<?xml version='1.0' encoding='utf-8'?>
<svg xmlns="http://www.w3.org/2000/svg" version="1.2" baseProfile="tiny" id="Layer_1" x="0px" y="0px" viewBox="0 0 900 600" overflow="visible" xml:space="preserve">
<g id="b_00000002371797710267872770000003404710128239328688_">
	<path display="inline" fill="#92A3C5" d="M651.9,30.9c7.1-2,17.2-1,20.7,6.6c1.4,175.6,0.8,351.3,2.7,526.9   c-15.8-5.6-4.4,15-13.5,18.3c-19.7,9.1-41.8,21.8-63.9,10.3c-11.5-8.6-8-28.4,0.7-37.9c0.1-1.6,0.2-3,0.3-4.7   c20.6-3.6,28-0.3,47.1,7.3c2.6,3.6,8.5,0.9,8.3-3.2c0-174.2,0-348.4,0-522.5C653.4,31.6,652.7,31.3,651.9,30.9z M662.4,31.3   c-2.3,168.8-2.1,352.3,2.3,520.6C664.4,378.6,663.9,204.6,662.4,31.3z M603.5,570.2c-4.8,4.9-2.8,12.2,4.7,9.6   C613.1,577.4,608.8,568.2,603.5,570.2z" />
	<path display="inline" fill="#010000" d="M576.7,534.6c0.3,13.3,4.6,28.6-7.4,38.2c-7,0.9-14.4,7.4-21.7,2.4   c-13.2-7.3-17.6-29.6-4.9-39.5c-31.2-3.8-61.9-7.6-92.5-11.4c-2,6-2.1,12.3-2.2,18.8c1.4-1.2,2.6-2.3,4-3.4   c14.3,15.7,23.6,29.1,46.9,29.8c1.6,3.8,2.3,7.9,3.5,11.9c-9.9,9.4-41,12.6-52.6,5.3c-5.2,1.8-12.5,0.4-16.5,4.6   c-7.1,0.6-19.6-2.8-24.1-6.5c8.7-9.6,1.6-25.9,11-35.7c0.5,0.1,1.1,0.2,1.7,0.3c1.4-9.1,0.2-18.7,0.6-28.1   c-30.9-3.3-62.6-10.3-93.4-10c-9.8-0.4-2.2-13.2,4.9-4.5c29.5,3.5,59,7.5,88.5,10.8c1.6-29.6-6.3-60.5,7.6-88.3   c9.7-26-16-46.8-11.2-57c17.3,36.3,21.1,36,7.6,75.1c-5.9,23.5,0.1,47.1-0.4,70.9c7.1,0.5,13.7,1.9,20.7,2.3   c5-32.2,13.3-63.5,19.4-95c1.9-3.5-0.2-6.9-0.8-10.4c0-9,0.6-18-0.6-27c1.1-18.3,4.8-37.6,0.4-55.5c-41.1,14.5-26.8-7.7-47.4,36.4   c-9.8,11.3-18,24.2-28.9,34.6c-0.4-0.4-0.7-0.7-1.1-1.1c14.1-19.1,30-37.3,39.8-59.1c1.3-0.8,0.6-2,0.7-3.1   c2.2-2.7,3.6-6.2,6.3-8.3c0.4,0,0.8,0,1.3,0c0.8,1.7-0.5,3-1.4,4.8c4.2-0.8,8-3,11.8-1c12.6-3.3,16.3-4.6,19.3-6.7   c-1-18.4-8.3-36.1-7.5-54.6c-5-0.4-9.3-2.1-14.4-1.7c-0.3,2,0.8,3.7-0.9,5.3c-1-2.1-0.1-4.1-0.8-6.1c-13.1-5-27.5-9-37.4-19.3   c-32.3,22.1-26.3,29.4-26.6,64.2c12.7,12.1,29.9,14.9,45,22.6c-16.7,0.9-32-11.7-45.8-19.8c-18.1,25.7-22.8,58.6-35.1,86.8   c-3.6,12.5-13.2,14.3-23.3,20.2c-20.9,12.3-37,30.9-51.2,50.2c2.9,6.4,9.3,9.3,8.8,17.5c0.4,0.5,1.1,1.2,1.9,2   c21.5-16.6,43.7-31.8,65.6-47.4c0.3,0.3,0.5,0.5,0.8,0.8c-16.5,20.8-44,30.7-62.1,48.5c0.7,0.2,1.5,0.4,2.1,0.5   c-0.1,2.4-0.2,4.6-0.3,6.9c-3.1-0.5-6.1,3.2-8.7-0.2c-0.7-0.7-1.3-0.2-1.9,0c-2.5,0.1-0.6,2.1,1,1.4c1.1,1,0.6,2.7,0.6,4   c-2.3,10.8,6.9,20.2,6.2,30.9c2.1,4.7,7.4,6.3,9.3,11c0.4,1.2,1.2,2.3,2.1,3.1c1.9,1.7,0.9,4,1.3,6c-1.2,2.8-2.6,5.6-5.6,7   c-9.9-6-23.7-5.2-32.3-14.6c0.3-0.3,0.7-0.6,1-1c10.7,4.9,20.5,11.1,32.8,10.4c0.7-1.2,1.4-2.3,2-3.3c-3.7-8.8-12.4-14-14.3-23.7   c-1-0.1-1.7-0.2-2.7-0.4c0.6-1,1.1-1.8,1.7-2.6c-0.4-1-0.7-1.9-1.1-2.7c-1.7,0.5-2.9,2.3-4.8,1.7c-1.2-2.8,3.1-3.2,4.8-4.7   c-0.5-0.9-0.9-1.8-1.4-2.6c-2.5,0.8-5.2,2.5-7.4,0.5c0.1-3.1,7.8-3,5.1-5.6c-10.5,3.3-12.2-1.7-0.8-2.9c0.2-3.2,2.7-6.4,0.4-9   c-10,5.5-20.4,5.6-29.9-0.3c-0.2-3.8-0.5-7.5,0.8-11c1.3,0,2.7,0.1,3-1.7c1.4-1.5,2.8-3.1,4.3-4.7c-0.2-0.6-0.3-1.2-0.5-1.7   c0.7-2.1,2.2-3.5,3.9-4.8c0.3,0,0.5,0,0.8,0c0,0.5,0,1,0,1.5c-0.5,0.6-1,1.2-1.4,1.7c1,6.5,6.4,12.5,12.6,14.7   c1.2-0.9,2.3-1.8,3.4-2.6l0,0c0.7-0.1,1.5-0.1,2.2-0.2c0,3.6,5.2,2.7,7.6,3.8c1.1-0.9,2-1.6,3-2.4c-3.1-2.1-5.6-4.5-8.3-6.8   c0-0.2,0-0.4,0-0.6c0.4-0.1,0.7-0.1,1.1-0.2c0.2-6.5-7.3-9.5-9.1-15.7c-1.1-0.1-2.1-0.1-2.9-0.2c-0.9,0.7,0,2-1.2,2.3   c-0.3-0.3-0.7-0.6-1.1-0.9c-1.1,1.7-2,3.2-2.9,4.8c-1,0.3-1.9,0.6-2.9,0.9c0-0.3,0-0.5,0-0.8c0,0,0,0,0,0c3.2-4.4,5.3-8.5,11.5-9.3   c4.8-5,9.9-10.3,15.1-15.7c-0.1-0.4-0.2-0.8-0.3-1.5c12.1-12.9,22.6-30.2,41.1-34.2c28.2-10.2,31.5-78.6,53.6-104.1   c1.9-2.9,1.5-6.4,0.8-9.5c-2-10-1.2-19.9,0.1-29.9c6-18.7,29.8-25.3,35-44.6c3-15.5-0.9-29.7-8.2-43.3c-6.9-18-12.9-37.3-12.7-56.6   c0.4-23.9,34.8-45.6,11.5-67.9c-3-3.1-2.2-7.7-3.5-10.9c-3.9,8.7-2,19.4-3.8,28.7c-3.4-12.5,1.5-26,4.7-38c0.4,0,0.9,0,1.3,0   c2.2,12.1,0.8,20.5,13,28.2c-3.6,8.2,0.2,20.2-6.5,28.2c-1.4,0.6-1.8,1.7-1.7,3.1c-1.2,1.7-2.4,3.4-3.9,5.6   c20.7-0.3,44.6,16.3,48.2,37.3c7.7,5.5,15,11.4,21.1,18.8c-0.3,0.2-0.5,0.5-0.8,0.7c-8.3-5.9-16.2-12.7-23.4-20   c1-1.1,2.3-1.4,0.7-3c-2.8-4.8-5-11.6-10.2-14.2c3.3,3.8,4.1,8.3,6.5,12.4c-0.2,0.3-0.5,0.6-0.7,0.9c-0.6-0.7-1.2-1.4-1.7-2.2   c0,0,0,0,0,0c0.1-0.6,0.1-1.2-0.6-1.5c-4.6-6.3-8-13.8-15.6-17.1c0.4-0.5,0.7-0.9,1-1.3c0.6,0,1.2-0.1,2.7-0.1   c-7.8-3.9-15-8.9-24-8.3c-1.4-1-2.9-0.5-4.5,0c-11.4,16.8-6.6,38.2-1.2,56.3c8.2,7.7,25.4,20.1,35.4,10.4c-2.8-1.9-5.5-3.8-8.1-5.6   c-0.7,0.3-1.2,0.6-1.7,0.8c-0.2-0.8-0.3-1.6-0.5-2.4c-5.4-4.5-12.1-8.2-15.3-14.7c31.6,20.8,63.4,55.9,104.6,50.9   c21.8-2.2,43.4-4.3,65.1-7.7c6.8-1.6,13.5,3.1,19.3-2.5c0.4,0.4,0.7,0.7,1.2,1.3c0.4-1,0.8-1.7,1.2-2.6c0.2,0.6,0.4,1.1,0.6,1.4   c3,0.5,6.6,4.4,7.9-0.4c-0.3-1-0.7-2-1.5-2.9c-2.8,0-5.4-0.8-8-1.9c-0.1-0.7-0.8-1.4,0.3-2c2.9,1.9,6.3,2.4,10,2.5   c-0.5-1-0.9-1.8-1.3-2.5c0.4-0.5,0.8-0.9,1.2-1.3c-0.7-0.4-1.4-0.8-2-1.1c1.2-1.6,2.7,0.2,3.8,0.9c0.7,2.2-0.2,4.1-1.2,6   c0.3,0.9,0.7,1.8,1,2.7c-1.1,3-1.6,3.7-4.4,5.8c0,95.4,0,191,0,286.7c0.5,0.5,1,1.2,1.6,1.8c-0.1,0.2-0.4,0.5-0.4,0.5   c-1.4-0.6-2.5,0-3.4,1.1c-4.4,1.5-12.2-3.8-13,0.5c1.3,1,1,2.5,0.7,4c-0.5,0.3-0.9,0.5-1.4,0.8c0-1.3,0-2.7,0-4.2   c-4.3-0.4-10.1-0.7-13.7,1.3c-1.5,0.8-0.6,4.2,1.3,3.8c0.6,0.7,1.2,0.7,1.8,0c0.1,0,0.4,0,0.5,0c1.8,1.3,3.9-0.1,5.6,1.3   c0.1,0,0.4,0,0.6,0c-0.4,8.8-0.3,18.3,1.1,27c0.5-0.2,1.1-0.3,1.7-0.5c-0.2-7.3-0.8-14.9,0.9-21.8c1,7,2.4,17.8-0.9,24.2   c-1-0.2-2.1-0.4-3.3-0.6C583.4,534.2,578.2,532.1,576.7,534.6z M476.9,566.9c-1.1-0.8-1.9,0.2-3,0.7c-1.1-0.8-0.3-1.8-0.5-2.9   c-1.1-0.9-2.3-1.8-3.4-2.7c-1.3,1.5-2.2,2.5-3.3,4c-1.7-2.8-1.7-3,1-6.4c-0.6-0.4-1.1-0.8-1.6-1.2c-1.5,1.1-2.9,2-4.3,3   c-1-2.4,0.5-4.2,0.6-6c-3-3.3-4.8,2.5-8.1,2.9c-0.8-3.1,1.9-4.7,3-7.1c-1.9-2.6-2.6-6.5-6.4-6.8c-3.8,7.6-10.4,13.7-18.6,15.5   c-5.4-1.8-9.6-2.4-12.2-7.7c-6.1,9.9-2.1,21.7-7.1,32.3c12.2,5.3,24.9,2.6,37.4,0.1c16,4.5,34.2,5,48.7-4c-0.8-3.1-0.9-6.1-2.5-8.9   C489.8,572.2,482.3,571.3,476.9,566.9z M253.1,497.7c-0.3-0.2-0.5-0.5-0.8-0.7c0.3-0.7,0.6-1.4,1-2.2c-0.6-0.7-1.2-1.5-1.9-2.2   c-22,16.4,6.3,21.1,19.2,12.2c-0.8-1-1.5-1.5-2.4-2.3c-2.2,0.7-4.2,1.3-6.4,1.5c-2.8-2-5.3-4.4-7.6-6.9   C253.7,497.3,253.4,497.5,253.1,497.7z M445.1,270c4.3,0.5,8.7,1.1,13,1.8c1.3-8,0-16.3,2.7-24.2c4.7-15,2.9-30.9,5.7-46.2   c-13.1-9.8-41.5-1.5-58.3-4.1c8,17.7,11,37.7-2.5,53.5c9.5,10.2,24.4,13,36.9,17.7C443.1,269.6,443.9,270.2,445.1,270z M429,548.7   c0.5,0,0.9,0,1.4,0.1c0.7,2,1.1,4.1,0.3,6.3c0.9,0.8,1.7,1.6,2.6,2.3c18.5-5.9,10.2-17.8,13.6-33.5c-7.1-0.7-13.6-1.7-20.6-2.5   c-1.7,11-0.6,22.4-1.7,33.5c0.8,0.7,1.4,1.5,2.6,0.9c-0.3-1.2-0.5-2.4-0.8-3.6C427.2,551,429.1,550.5,429,548.7z M401.5,177.2   c-0.4-0.5-0.8-1-1.2-1.6c-0.5,1.1-0.4,1.9,0.4,2.5c1.4,6,4.4,13.6,6.6,16.6c14.8,1,31.3,0.7,45.7-0.6c-5.9-3.6-11.3-7.5-16.5-11.9   C425.9,191.1,410.2,186.5,401.5,177.2z M603.1,493.1c0.8-96.2,0-192.6,0.3-288.8c-2-2.7-6.1-3.7-8.5-1.1   c-1.9,95.6-0.4,193.4,0.1,289.6C597.7,493.7,600.6,494.8,603.1,493.1z M546.1,571.7c7.4,5.3,18.1,2.1,23.7-4.5   c8.8-1.9,5.7-27.7,4.4-34.9c1.6-1.8,3.5,0.2,5.1-0.6c1.5-0.7,3.6-0.4,4.8-2.3c0-8.4-0.4-17.1-1.2-25.5c-2.8-0.3-5.6-0.6-7.8-0.8   c-4.5-4.3-8.1-8.5-13.5-11.2c-9.5-0.7-27.8,3.3-25.8,15.6c-1.2,11.4,9.1,14,11.6,23.6c1.1,3.9-4.5,7.1-6.6,9.8   C535.4,547.7,538.2,567.8,546.1,571.7z M575.1,495.5c4.6-2.5,9.2-1.3,14-1c1.3-1.2,2.3-2.1,3.6-3.2c-0.7-95.6,0.9-191.9-1.2-287.2   c-40.4-2.1-85.4,21.5-122.8-1.3c-0.3,25.6-8,50.1-8.3,75.7c1.7,31.2,14.5,61.8,8.5,93.4c-2.8,18.5,1.2,37.2,0.1,55.6   c-0.2,6-5,10.7-4.7,16.6c0.5,6.9-2.6,13-3.2,19.6c-3.5,19.2-10.3,37.5-10.7,57.2c31.4,3.5,62.7,9,94.2,11c-0.5-6.3-6-8.9-8.3-14.3   c0.2-0.7,0-1.2-0.6-1.6c0-0.2-0.1-0.5-0.2-0.7c-13.4-22.7,27.8-36,38.5-16.1c0.6-0.9,0.4-2,0.5-3   C574.7,495.9,574.9,495.7,575.1,495.5z" />
	<path display="inline" fill="#798BB3" d="M651.9,30.9c0.8,0.3,1.5,0.7,2.4,1c0,174.2,0,348.4,0,522.5c0.2,4.1-5.7,6.8-8.3,3.2   c7.9-172.2,2.3-351.6,3-525.8C650,31.6,650.9,31.3,651.9,30.9z" />
	<path display="inline" fill="#010101" d="M597.9,593c22.1,11.5,44-1.1,63.9-10.3c9.1-3.3-2.3-24,13.5-18.3   c-1.9-175.7-1.2-351.5-2.7-527.2c8.9,168.4-0.8,353.9,5.8,527.5c1.1-0.3,2-0.6,3.2-1c0.8,0.4,1.8,0.9,2.8,1.3   c0.4,1.2,1.6,2.1,1.3,3.5c-0.3,0.2-0.5,0.5-0.8,0.7l0,0c-1-0.7-2-1.4-3.3-2.3c-2.2,0-4.7,0-7.2,0c-1.7-1.3-3.5-1-5.2-0.4   c-2.5,5.3,1.4,10.9-2.4,15.8c0.1,5.5,8.1,7.6,8.9,12.7c-3.9,0.3-8.7-7.4-11.1-10.3c-5.6,0.3-9.5,4.3-14.3,6.6   c-36.3,18.3-92.3,9.2-58.2-41.3c0.4,0.2,0.9,0.4,1.5,0.6C584.7,562.9,576.8,589.2,597.9,593z" />
	<path display="inline" fill="#020202" d="M649,31.9c-0.8,174.1,4.8,353.6-3,525.8c-8.9-3.5-17.7-6.3-26.8-9.5   c-8.5,0.9-18,2.5-26.5,0.6c-2.6-1.6-1.4-5.7-2.1-8.2c-1-0.9-1.8-1.6-2.5-2.1c-4.5-0.7-9.6,2.6-9.6-4.3c-0.6,0.2-1.1,0.4-1.7,0.5   c0.2-1.8,2.5-0.9,3.7-1.1c0,1.1,0,2.2,0,3.2c2.7-0.6,5.5,0.7,7.6-1c0.5,0,1,0.1,1.5,0.1l0,0c0.4,0.6,0.8,1.3,1.1,1.9   c1.6,0.4,3,0.7,4.5,1c1.4-1.4,3-0.8,4.3-2.3c-9.1-2.8-1.2-16.2,6-10.4c0.7,1.4,1.4,2.8,2.2,4.3c4.8-0.5,9.7-0.9,14.7-0.8   c0.3-1.7,0.8-3.2,0.2-5c-5.4-0.4-10.8,0.9-16.2,0.8c-1.3-10,0.3-19.9-0.1-29.9c-1.1,0-2,0-2.9,0c0.9-1,2-1.6,3.4-1.1   c0.1,0,0.3-0.3,0.4-0.5c3.3,8.9-0.1,19.4,1,28.9c5,1.6,10.3-0.5,15.5,0.5c5.7,11.8-10.2,7.5-16.8,9.5c0.2,1.5,0.4,2.8,0.6,4.2   c1.8,0.2,3.7,0.3,6,0.5c-0.4,0.8-0.6,1.1-0.9,1.5c-6.7-0.3-13.4,0-19.7,2.3c-0.1,4.7,0.4,8.3,5.9,6c4.7,0.3,12.4,0,15.1-0.5   c0.3-1.1,0.6-2.1-0.3-3.1c-3.9-0.1-7.2,0.4-11.1-0.4c3.7-1.8,8.6-0.7,11.4-2.8c0.4-0.9,0-2.4,1.8-2.8c0.5,1.2,1,2.4,1.5,3.7   c-0.4,1.6-1.2,3.1-0.5,5c9.3-1,18.7,5.9,28.1,7.3C651.3,381.4,642.3,202.9,649,31.9z M601.2,527.2c-4.6-2.8-6.1,7.8,0.3,7   C603.3,532,606.5,527.2,601.2,527.2z M604.6,534.9c-0.9,0.4-1.7,0.8-2.8,1.4C604.3,536.4,604.3,536.4,604.6,534.9z" />
	<path display="inline" fill="#010000" d="M502.2,182.4c25,5.8,51.8,10.9,77.3,5.7c5.2-2.9,6.9-9.7,12.3-12.6   c1.1-45.6-1.5-91.6,0.9-136.9c0.4,0.1,0.7,0.2,1.2,0.3c0.6,44.3-0.9,89.3,0.7,133.4c0.4-0.2,0.9-0.4,1.3-0.6   c0.7-1.3-0.2-3.3,2.1-3.7c1,0.9,1.8,1.8,2.7,2.9c0.9-0.3,1.7-0.6,2.6-0.9c0.7-44.2-1.1-88.8,0.7-132.8c7.9,44-7.9,98.9,6.5,141.3   c-0.4,1.3-0.8,2.3-1.2,3.5c1.6,2,2.4,4.2,0.7,6.6c-0.5,0-1.1,0-1.6,0c0-1.1,0-2.2,0-3.4c-0.7-0.2-1.3-0.4-1.9-0.3   c-0.3-0.7-0.5-1.1-0.5-1.2c-2.5-1.5-4.6-2.8-6.8-4.1c0.3-0.3,0.7-0.7,1-1c1.5,0.1,3,0.1,4.6,0.2c0,0.6,0,1.2,0,1.8   c0.9,0,2.3,0.9,2.8,0.2c-0.3-1.6-0.5-3.2-0.8-4.7c-5.5-6.4-14.3,0.8-17.4,5.9c-12.4,20.7-74.2,5.1-95.1,1.1   C496.8,181.9,499.6,182.7,502.2,182.4z" />
	<path display="inline" fill="#92A3C5" d="M604,37.2c-1.8,44,0,88.6-0.7,132.8c-0.9,0.3-1.7,0.6-2.6,0.9c-0.5-0.5-0.9-1-1.3-1.5   c0.4-1.5-0.9-2.2-1.5-3.1c-0.1-24.5-2.5-50.5,0.2-74.6c0.6,0,1.2,0,1.8,0c1.1-2-0.3-3.9,0.2-6c-7.1,3.8-0.1-41.7-4.2-47.8   c-1.1,0-2.2-0.1-3.3-0.1C596,36.6,600.5,35.8,604,37.2z" />
	<path display="inline" fill="#040303" d="M404.6,105.8c0-1.4,0.4-2.5,1.7-3.1c0,0.4-0.1,0.7-0.1,1.3c15,0.5,25.2,12.9,36.3,20.7   c0.1,0.3,0.1,0.8,0.7,0.3c-3.1-3.3-6.5-6.9-7.6-11.4c0.6-0.5,1.1-0.8,1.5-1.2c-1.4-5.5,1.8-11.4,4.2-16.3   c4.2-7.6,13.1-2.6,19.5-4.5c1.7-4.9-0.5-6.7,4-11.3c1.5,1.7-0.5,3.5-1.4,5c4,15-16.1,3.7-20,12.3c-3.8,4.1-1.8,10-4.6,14.5   c6.7,22.5,42.5,34.7,37.4,60.4c1.3,1.3,2.5,2.5,3.8,3.7c-0.3,0.3-0.6,0.7-1,1c-2.7-1-4.2-3.3-6-5.4c0.6-0.5,1.2-1,1.6-1.6   c0.8-21.7-24.4-33.5-38-47c-8.5-8.6-18.8-15.8-30.9-18.3C405.3,105.4,405,105.6,404.6,105.8z" />
	<path display="inline" fill="#798BB3" d="M592.7,37.9c1.1,0,2.2,0.1,3.3,0.1c3.7,15.5-1.2,33,2.1,47.9c-1.8,1.9-1,3.9,0,5.9   c-2.7,24-0.3,50-0.2,74.6c0.7,1,1.9,1.7,1.5,3.1c-0.5-0.5-1-1-1.5-1.5c-2.2,0.4-1.4,2.4-2.1,3.7c-0.4,0.2-0.8,0.4-1.3,0.6   c-1.6-44-0.2-89-0.7-133.4c-0.5-0.1-0.8-0.2-1.2-0.3C592.7,38.4,592.7,38.1,592.7,37.9z" />
	<path display="inline" fill="#030303" d="M379.3,119.1c2.7-16.5-14.3-108.7,20.7-88.2c0,0.3,0,0.6-0.1,0.8l0,0   c-4.2,0.8-9.7-2.3-12.9,1.6c-5.1,0.3-4.7,19-6.1,23.7c-4.1,23.8,7.2,49.6-2.5,72.1c-0.4-0.1-0.8-0.2-1.3-0.3   C378.1,125.3,380,122.6,379.3,119.1z" />
	<path display="inline" fill="#798AB2" d="M592.6,548.7c4.7,1.4,9.7,0.6,14.5,0.8c-2.2,1.7-5.4,0.1-8.2,0.9   c-0.1,1.6-0.2,3.1-0.3,4.7c-8.7,9.5-12.2,29.4-0.7,37.9c-21.1-3.8-13.2-30.1-4.5-42.4c-0.6-0.3-1.1-0.4-1.5-0.6   C592.1,549.5,592.4,549.1,592.6,548.7z" />
	<path display="inline" fill="#060404" d="M245.4,495.2c-0.3,1.8-1.7,1.7-3,1.7c-1.1-1-2.3-0.9-3.1-0.7c-7,7.9-12.7,16.5-21.8,21.6   c1,2.3,2.8,3.9,3,6.3c6.8,9.4,18.8,9.9,27.8,16.5c4.1,2.4,2.8,7.7,6.4,10.3c-0.3,0.3-0.6,0.6-0.9,1c-2.6-1-4.4-2.9-5.8-5.5   c0.1-0.3,0.3-0.7,0.6-1.3c-10.9-11.1-28.7-8.5-34.1-27.7c9.7-5.9,16.5-15.1,24-23.3c2.1,0.5,4.1,0.2,5.9,1.5   C244.5,495.5,245,495.3,245.4,495.2z" />
	<path display="inline" fill="#788AB2" d="M675.5,595c-0.8-5.2-8.8-7.2-8.9-12.7c3.8-4.8-0.1-10.5,2.4-15.8c1.7-0.6,3.5-0.9,5.2,0.4   c-0.8,0.2-2-0.3-2.4,0.9c-0.5-0.2-1.1-0.5-1.6-0.7c-2.6,2.8,9.3,13.7,10.6,18.3c0.6-0.1,1.2-0.3,1.8-0.4c-0.1-0.8-0.1-1.4-0.2-2   c4,4.6-4.6,7.6-5.1,12.2C676.7,595.1,676.1,595.1,675.5,595z" />
	<path display="inline" fill="#060404" d="M326.1,504.4c-0.7,1.4-1.8,2.6-1.6,4.3c-0.3-0.8-0.7-1.5-1.1-2.4   c-2.2-0.3-3.1,1.7-4.7,2.8c-6,0.8-11.1-1.8-16.3-4.7c-5.4,2.9-12.8,3.7-18.2,1.2c0.1-2.2,0.2-4.4,0.3-6.9c-0.6-0.1-1.4-0.3-2.1-0.5   c-0.3-0.7,0-1,0.5-1.2c0.8,0.4,2.4,1.2,3,1.6c4.6-0.3,8.6,0,12.4,2.7C307.5,499.6,317.5,504.9,326.1,504.4z M286.6,503   c0.7-0.3,1.4-0.7,2.5-1.1C287.1,501.4,287.1,501.4,286.6,503c-0.4,0-0.8,0.1-1.3,0.3C286.1,504,286.4,503.6,286.6,503z    M313.3,505.2c-0.9-1.4-2.8-0.4-4.2-0.6c0,0.2-0.1,0.4-0.1,0.5c3.4,1.2,5,2.4,9.2,1C316.3,506,314.6,506.4,313.3,505.2z    M297.1,504.4c1,0.3,1.7-0.1,2.3-1.3c-0.9,0-1.5,0-2.2,0c-2.8-1.9-6-0.3-8.7,1.4C291.6,504.8,294.1,504.4,297.1,504.4z M304.5,503   c0,0.2,0,0.4,0,0.5c0.5,0,1.1,0,1.6,0c0-0.1,0-0.3,0-0.4C305.6,503,305.1,503,304.5,503z" />
	<path display="inline" fill="#0B0808" d="M446.6,16.5c0.2-0.1,0.4,0,0.6,0.2c-0.3,0.2-0.5,0.5-0.8,0.7c-7.8-1.7-23.9,1.6-31.4,5.2   c-3.4,1.4-7.1,3.7-9.5,6.5c0.2,0.5,0.4,0.9,0.5,1.2c-0.1,0.2-0.3,0.2-0.5,0.2c-1.9,1.2-3.5,2.8-4.7,4.7c0.1,0.6-0.6,0.9-0.9,1.3   c-0.5,0-1-0.1-1.5-0.1c-0.7-1.4-2.6-0.4-3.8-0.7c0-0.2,0-0.5,0-0.7c1.9-0.2,3.6,0.2,5.2-1.4c0-0.5,0.1-1.1,0.1-1.8l0,0   c0.8-0.1,1.9,0.4,2.2-0.9l0,0c1-0.1,0.9-0.8,0.9-1.4c0.7-0.2,0.8-0.8,0.8-1.4c9.4-11.1,27.4-16,41.1-12.3   C445.3,16.7,445.9,16.6,446.6,16.5z" />
	<path display="inline" fill="#91A2C3" d="M683.4,584.7c-0.2-0.7-0.1-1.5-1-1.7c-3.5-5.1-7.2-10.1-10.7-15.2   c2.3-2.1,6.8-0.4,9.6-0.9c1.3,0.9,2.3,1.6,3.3,2.3C684,574.1,686.5,580.5,683.4,584.7z" />
	<path display="inline" fill="#080908" d="M393.1,69.7c0.6,4.7-1.1,10.5,0.8,14.6c0.2,10.4-4,20.3-5.6,30c-0.3-0.3-0.5-0.6-0.8-0.8   c-1.4,1.5-1.8,4-2.8,5.9c-0.3,0-0.6,0-0.8,0c1.1-6.1,3.2-12.5,3.2-19c0.6,0.4,1.2,0.8,2.1,1.3c-0.5-4.7,3.2-10.1,0.9-14.3   c-0.4-1,0.7-2.3-0.7-3.1c0-1.9-0.9-4.7,0.7-6.1c0.4,0.8-0.5,1.8,0.7,2.3c0.6,1.4-1.5,3.4,0.9,3.8l0,0c-0.1,1.2-0.3,2.3,0.5,4   C393,81.9,391.3,75.8,393.1,69.7z" />
	<path display="inline" fill="#100E0E" d="M456.5,21.8c8.5,5.9,11,19,10.6,28.7c-2.8,5.3,1.3,10.3,3.2,15.2c-0.3,0.4-0.7,0.7-1,1.1   c-3.4-4.7-7.2-11.3-3.8-16.9c-2.1-9.7-2.4-20.5-9.8-27.3C455.9,22.4,456.2,22.1,456.5,21.8z" />
	<path display="inline" fill="#292120" d="M469.2,66.9c0.3-0.4,0.7-0.7,1-1.1c0.6,1,1.3,2.1,1.9,3.1c-0.6,3.3-3.7,2.6-5.8,3.8   c-0.5,2.3,1.3,5.1-1.7,6.4c0.1,0.6,0.1,1,0.2,1.3c-0.6,0.7-1.1,1.5-1.6,2.4c-0.1-1,0.7-2.3-0.8-3.2c-1.3,0.2-4.1,1.8-4.3-0.7   c1.7-1.5,4.4-0.5,6.3-2.1c0.4-1.1,0.2-2.3-0.2-3.5c-0.9-0.7-1.7-1.3-2.8-2.2c3.2-0.6,6.3-0.5,9-2.2C470,68.1,469.6,67.5,469.2,66.9   z" />
	<path display="inline" fill="#1F1917" d="M502.2,182.4c-2.6,0.2-5.4-0.5-7.8,0.8c-3.8-1.4-9.6-0.5-12.3-3.5   c0.4-0.4,0.8-0.7,1.1-1.1C489.4,181.1,495.9,181.5,502.2,182.4z" />
	<path display="inline" fill="#2D2927" d="M383.9,119.3c0.3,0,0.6,0,0.8,0c-1.3,4.8-2.9,14.9-9.7,13.1c0.4-0.9,0.9-1.7,1.3-2.6   c0.9,1,2.2-0.1,2.3-1.4c0.3,0,0.6,0,0.9,0c0.2-0.2,0.4-0.4,0.6-0.7c0,0,0,0,0,0c2.2-2.3,2.7-5.3,3.2-8.3   C383.5,119.4,383.7,119.3,383.9,119.3z" />
	<path display="inline" fill="#201715" d="M608.5,188.6c0.5,0,1.1,0,1.6,0c0,0.8,0,1.5,0.1,2.3c-1.1-0.7-2.6-2.4-3.8-0.9   c-2.4-2-7.4-0.9-8.2-4.3C601.7,184.9,604.9,188.9,608.5,188.6z" />
	<path display="inline" fill="#94A6C4" d="M613.9,540.2c-1.4,1.7-5.2,1-7.5,1.7c-0.3-1.4,0.5-2.3,1.5-3.1c1.6,0,3.1,0,4.7,0   C613,539.3,613.4,539.8,613.9,540.2z" />
	<path display="inline" fill="#1C1917" d="M378.5,129.1c-0.8,1.2-1.4,1.4-2.2,0.7c0.4-1-0.2-1.9-0.7-2.8c1.2-2.6,2.5-5.3,3.7-7.9   c0.6,3.5-1.3,6.2-2.1,9.7C377.7,128.9,378.1,129,378.5,129.1z" />
	<path display="inline" fill="#322523" d="M456.5,21.8c-0.3,0.3-0.6,0.6-0.9,0.9c-2.7-2.2-5.4-4.4-8.9-4.8c-0.1-0.2-0.2-0.3-0.2-0.5   c0.3-0.2,0.5-0.5,0.8-0.7C450.7,17.6,454.2,18.6,456.5,21.8z" />
	<path display="inline" fill="#838675" d="M273.5,505.2c1.5-1,2.6,0.8,3.9,1.5c-0.4,0-0.7,0.1-1.1,0.1c-0.4,0.7-0.7,1.5-1.1,2.2   C275.3,507.6,274.5,506.5,273.5,505.2z" />
	<path display="inline" fill="#453936" d="M483.3,178.6c-0.4,0.4-0.8,0.7-1.1,1.1c-1-0.8-2.1-1.5-3.1-2.3c0.3-0.3,0.6-0.7,1-1   C481.1,177.1,482.2,177.8,483.3,178.6z" />
	<path display="inline" fill="#24201F" d="M253.7,551.8c0.3-0.3,0.6-0.6,0.9-1c0.8,0.7,1.6,1.5,2.5,2.2c-0.3,0.3-0.7,0.6-1,1   C255.3,553.3,254.5,552.5,253.7,551.8z" />
	<path display="inline" fill="#8D8E84" d="M398.4,57.1c0,1,0,2,0,3c-0.4-0.5-0.9-1-1.3-1.5c0-0.5,0-1,0-1.5   C397.5,57,397.9,57,398.4,57.1z" />
	<path display="inline" fill="#251E1A" d="M402.2,30.9c-0.4,1.3-1.4,0.7-2.2,0.9c0-0.3,0-0.6,0.1-0.8   C400.8,30.9,401.5,30.9,402.2,30.9z" />
	<path display="inline" fill="#251E1A" d="M403.1,29.5c0,0.7,0.1,1.4-0.9,1.4C402.5,30.5,402.8,30,403.1,29.5z" />
	<path display="inline" fill="#251E1A" d="M403.8,28.1c0,0.6-0.1,1.2-0.8,1.4C403.3,29,403.6,28.6,403.8,28.1z" />
	<path display="inline" fill="#322523" d="M446.6,16.5c-0.7,0.2-1.4,0.2-1.7-0.7C445.5,16,446.1,16.3,446.6,16.5z" />
	<path display="inline" fill="#ADA2A2" d="M415.7,536.4c-0.1-0.2-0.2-0.3-0.3-0.5c0.4,0,0.7-0.2,0.9,0.2   C416.2,536.2,416,536.3,415.7,536.4z" />
	<path display="inline" fill="#C39266" d="M253.8,483.2c0,0.3,0,0.5,0,0.8l0.1-0.1c-0.3,0-0.5,0-0.8,0   C253.3,483.7,253.6,483.5,253.8,483.2z" />
	<path display="inline" fill="#C39266" d="M254.5,482.4c-0.2,0.3-0.5,0.5-0.7,0.8C254.1,482.9,254.3,482.7,254.5,482.4z" />
	<path display="inline" fill="#91A2C3" d="M684.7,569.2c0.3-0.2,0.5-0.5,0.8-0.7C685.5,569,685.3,569.3,684.7,569.2z" />
	<path display="inline" fill="#020202" d="M662.4,31.3c1.6,173.2,2.1,347.3,2.3,520.6C660.3,383.7,660.1,200.1,662.4,31.3z" />
	<path display="inline" fill="#040304" d="M603.5,570.2c5.3-2,9.6,7.2,4.7,9.6C600.7,582.4,598.7,575.1,603.5,570.2z M606.4,574.5   c-0.4-0.8-0.9-1.5-2.1-1.4c-0.3,0.4-0.6,0.9-0.9,1.4c0.9,0.6,1.5,1.1,2.2,1.6c0.1,0.9,0.2,1.8,0.4,3.2   C607.4,577.4,607.6,576,606.4,574.5z" />
	<path display="inline" fill="#F6D9C7" d="M427.5,343.1c-11.1,24.5-29.5,44.6-45.1,66.1c-7.8,8.4-18.3,15.3-22.5,26.2   c-1.7,1.1-3.4,2.2-4.9,3.5c-1.4-0.9,0-2.5,0.2-3.7c-0.6-1-1.2-2-1.7-2.8c-6.4-1.8-7.9,10.7-12.2,14.7c0.7,0.2,1.1,0.3,1.6,0.4   c1.9-2.2,3.6-4.4,4.6-7c3.8,6.6-6.8,8.4-10.1,12.4c-19.3,15.1-40.1,27.7-59.3,43.2c-0.8-0.9-1.5-1.6-1.9-2c-0.4-2.7-0.7-5.1-1-7.1   c-1.7-2-3.1-3.7-4.6-5.5c7.7-7.4,11.3-17.6,19.9-24.2c10-6.8,17.4-17,28.1-22.9c0.3,0.3,0.5,0.5,0.6,0.7c-1.5,4.2-7.2,4-7.7,8.4   c-0.6,0.3-0.9,0.8-0.2,1.5c2-4.6,9.6-6.3,10.2-10.7l0,0.1c1-0.1,1.9-0.5,2.4-1.4c3.5-1.7,6.9-3.5,10.7-5.3   c-0.4-0.8-0.9-1.9-1.3-2.8c1.8-1.3,3.6-2.6,5.5-3.9c0.5,4.2-3.7,8.1-2.6,12.4c0.6,0.3,1.3,0.6,1.9,0.9c7.1-10.3,14-21.3,14-34   c1.3-1.2,0.1-2.9,0.8-4.2c2.1-2.2,2.3-4.7,2.9-7.4c0.1,0,0.3,0,0.5,0c8-20.7,21-40,33.9-58.3c12.3,2.8,24.5,9.4,37.1,11.7   C427.4,342.4,427.4,342.8,427.5,343.1z M306.1,449.7c-0.6,0.4-0.7,0.9,0.1,1.4c0.9-1.4,1.5-2.1,2.7-3.6   C307.1,447.2,306.2,448,306.1,449.7z M369,418.5c-3.2,0.3-6.2,2.3-7.2,5.4C364.7,421.6,368,421.9,369,418.5z M351.5,426.2   c-2.3,0.2-2.6,1.8-1.1,2.6C350.7,428.1,351,427.3,351.5,426.2z" />
	<path display="inline" fill="#F6D9C7" d="M431.2,341c10.7-4.4,23.1-3.3,33.9-8.5c4.8,25.5-0.9,53-0.4,79.2c-1,0-1.8,0-2.7,0   c-1.2,3.3-2.2,6.5-4.8,8.7c0.7,1.8-0.6,3.7,0.2,5.5c9.9,15.3,1.5,33.8-1.5,50.3c-5.6,14.3-5.7,29.3-9,44.3   c-3.9-0.2-7.9-0.7-11.8-1.5c-0.4-0.4-0.9-0.8-1.6-1.5c1-7.2,2.2-14.7,1-22.3c-0.7,2.2-1.4,4.4-2.3,7.2c-4-23.8-4.9-50.1,7.3-71.7   c1.6,0.4,3.2,0.8,4.5,1.1c2.3,2.7,4,4.8,6,7.6c3.9-13.1-8.2-24.5-9.7-37.4C434.8,382.2,432.6,361.2,431.2,341z M444.9,449.1   c2.5-1.2,4.4-12.7,0-12C444.2,441,445.3,445.1,444.9,449.1z M444,459.6c-0.5,0.2-0.8,0.3-1.3,0.5c0.4,0.8,0.7,1.4,1.3,2.8   C444,461.3,444,460.5,444,459.6z M444.5,454.7c1-0.3,1.4-0.8,0.7-1.9C443.9,453.2,443.9,453.8,444.5,454.7z M441.5,468.2   c-0.8,1-0.5,1.8-0.1,2.8C442.3,469.9,442.7,469.1,441.5,468.2z" />
	<path display="inline" fill="#F6D9C7" d="M479,177.3c23,11.3,82.3,20.9,105.4,10.4c5.8-5.5,13.5-19.9,22.5-11.5   c0.2,1.5,0.5,3.1,0.8,4.7c-0.5,0.7-1.8-0.2-2.8-0.2c0-0.7,0-1.2,0-1.8c-1.6-0.1-3.1-0.1-4.6-0.2c-0.7-0.9-1.6-1.4-3.2-1   c2.8,2.8,5.5,3.9,9,6.1c0,0.1,0.2,0.5,0.5,1.2c0.6-0.1,1.2,0.1,1.9,0.3c0,1.2,0,2.3,0,3.4c-3.6,0.4-6.8-3.6-10.4-2.8   c0.6,3.2,7.7,2.8,10.3,5.4c-0.4,0.5-0.8,0.8-1.2,1.3c0.4,0.7,0.8,1.5,1.3,2.5c-3.8-0.2-7.1-0.6-10-2.5c-1.1,0.6-0.4,1.3-0.3,2   c-0.9,2.2-3.4,2.5-4.6,4c-2.8,0-5.3,0-7.8,0c-6-5-24.3,3.4-33,3.4c-20.6,1.7-42.3,8.2-62.6,3.3c0.4-0.8,0.8-1.6,1.2-2.2   c-0.7-0.9-1.2-1.6-1.3-1.8c-17.3-0.4-28.8-15.1-43.4-21.4c1.8-1,3.3-1.9,5.2-3c-15.5-6-14.4-1.2-27.5-14.7c-1,0-2,0-3,0   c-2.9-2.2-5.9-3.3-8.4-6.1c5.3-0.2,10.9,1.4,13.8-4.1c-6.2-4.6-15.2-2.1-22.2-5.7c-10.8-7.6-3.4-22.1-0.7-32.1   c8.1-0.6,14.8,3.9,21.9,7.2c-0.4,1-0.8,1.6-1.6,2.5c11,4.4,13.1,18,21.6,24.6C456.3,158.6,468.1,167.6,479,177.3z M413.8,121.7   c-0.7,0-1.4,0-2.2,0c1.4,2.5,4.1,1,6.9,2.1C417.3,121.1,416.2,121.6,413.8,121.7z M488.3,190.2c-0.5,0-1,0-1.5,0   c-17-9.7-16.1,6.7,2.2,2.8C488.9,191.8,489.7,190.8,488.3,190.2z M494,190.7c-1.8-0.7-1.7-0.8-3-0.3c0,0.2,0,0.3,0.1,0.5   C491.8,190.8,492.5,190.7,494,190.7z M409.1,122.6c-0.7-0.2-1.2-0.5-1.7,0C407.2,123.8,408.7,123.6,409.1,122.6z" />
	<path display="inline" fill="#FF9A77" d="M433.5,332.4c-1.8,2.5-3.6,5.1-5.3,7.6c-6.4,0.4-11.5-4.8-17.7-6.1   c-6.6-2.6-13.9-4-19.6-8.5c2.9-8.7,5.5-18.3,10.4-26.3c0.5,1.9,0.3,3.4,0.4,5.2c0.1,0,0.2,0,0.3,0c2-11.6,5.9-2.7,14.3-4.1   c-1.5-4-9.4-3.5-10.2-7.3c7.2,2.3,14.2,5.3,22.1,7.5c-5.5-6.4-13.3-8.9-20.7-12.2c0.1-1.3,0.6-2.5,1.2-3.8   c5.7,1.8,10.9,4.1,16.6,6.9c0.4-0.3,0.8-0.6,1.4-1.2c-4.8-3.1-8.4-6.4-13.3-8.6c2.1-6.1,8.7-10.2,9.2-17c6.8,1.2,12.2,5.9,19,7.2   c0.7,2-0.3,4,0.8,6.1c1.7-1.6,0.6-3.3,0.9-5.3c5.1-0.4,9.3,1.2,14.4,1.7c-0.8,18.5,6.6,36.3,7.5,54.6c-3,2.1-6.7,3.4-19.3,6.7   c-1.9-1.3-4.3-0.3-6.4-1.2c1.8-2.1,1.3-4.4,1.5-6.8c3.6-4.4,9.6-5.7,14-10.5c-4.3,1.4-7.8,2.3-11.2,4c-0.3-0.4-0.5-0.7-0.7-1   c1.3-5.5,8.6-5.5,10.6-10c-1.8-1.1-3.6,1.5-5.2,0.3c-0.4-4.3-5.1,3.7-4.5,5.4c-3.5,3.6-6,7.9-8.4,12.2c-1.1,0.6-0.6,1.5-0.6,2.4   c0,0,0,0,0,0c-0.2,0.3-0.5,0.6-0.7,0.8l0,0C433.5,331.1,433.5,331.8,433.5,332.4z M395.5,324.9c-0.3,0.8-1.1,1.7,0.5,2.4   c1.1-5.1,3.3-9.2,3.2-14.4C396.4,317.1,396.2,320.4,395.5,324.9z M452.4,301.9c-1.4,0.4-2.4,0.6-2.9,1.9   C451.2,303.3,451.2,303.3,452.4,301.9z" />
	<path display="inline" fill="#92A3C5" d="M562.3,492.3c5.5,2.3,8.5,6.8,13,10.7c2.3,0.2,5,0.5,7.8,0.8c0.7,8.4,1.2,17.1,1.2,25.5   c-1.3,1.9-3.3,1.6-4.8,2.3c-1.7,0.8-3.5-1.2-5.1,0.6c1.3,7.2,4.4,33-4.4,34.9c-5.7,6.6-16.3,9.8-23.7,4.5   c-9.9-21.6-5.4-19.2,4.1-37.2c3.6-11.1-11.7-16.8-10.6-28.1C539.7,496.5,553.8,492.3,562.3,492.3z M553.2,557   c8,0.4,6.2-11.6-0.9-8.5C548.2,550.4,547.7,557.1,553.2,557z M551.9,513c5.5,0.2,6.9-7,1.1-8.2C547.1,504.7,547.8,510.3,551.9,513z    M575.6,528.8c0.6,0.4,0.9,0.5,1.2,0.7c2.5-1.2,3.7-9.5,0.3-9.4C576.7,522.9,577.3,525.8,575.6,528.8z M576.6,509.9   c0.3-0.5,0.5-0.8,0.6-1C576.2,508,575.7,508.9,576.6,509.9z M577.2,516.3c-0.1,0-0.3,0-0.4,0C576.2,518.4,577.8,518.3,577.2,516.3z    M577,511c-0.4,1-0.6,1.4-0.7,1.7C577.1,513.2,577.5,512.6,577,511z" />
	<path display="inline" fill="#E1C7B6" d="M403.9,113.9c-2.5,9.7-9.9,23.7-0.1,31.5c-0.4,0-0.9,0.1-1.7,0.1   c1.3,4.3,7.6,7.6,11.6,5.1c0.6,0,1.3,0,2.3,0c-1.1-0.9-1.8-1.1-2.2,0.1c-3.5-0.4-6.9-1.7-9.2-4.6c7,3.7,16,1.1,22.2,5.7   c-2.9,5.6-8.4,3.9-13.8,4.1c2.4,2.8,5.4,3.9,8.4,6.1c1,0,2,0,3,0c13.2,13.6,12,8.7,27.5,14.7c-1.9,1.1-3.5,2-5.2,3   c14.5,6.3,26.1,21,43.4,21.4c0.1,0.2,0.7,0.9,1.3,1.8c-0.3,0.6-0.7,1.4-1.2,2.2c20.3,4.9,42-1.6,62.6-3.3c8.8,0,27-8.4,33-3.4   c2.5,0,5,0,7.8,0c1.2-1.6,3.6-1.9,4.6-4c2.6,1.1,5.2,1.9,8,1.9c0.8,0.9,1.3,1.9,1.5,2.9c-1.3,4.8-4.9,0.9-7.9,0.4   c-0.1-0.3-0.3-0.9-0.6-1.4c-0.4,0.8-0.7,1.6-1.2,2.6c-0.5-0.5-0.8-0.9-1.2-1.3c-5.8,5.6-12.5,0.9-19.3,2.5   c-21.6,3.5-43.3,5.5-65.1,7.7c-41.1,5-72.9-30.1-104.6-50.9c3.2,6.4,9.9,10.2,15.3,14.7c0.2,0.8,0.3,1.6,0.5,2.4   c0.5-0.3,1-0.5,1.7-0.8c2.6,1.8,5.3,3.6,8.1,5.6c-10.1,9.8-27.2-2.7-35.4-10.4c-5.4-18.1-10.2-39.5,1.2-56.3   C401,113.3,402.4,112.9,403.9,113.9z M574.1,199.9c0,0.2,0.1,0.4,0.1,0.5c1.2-0.2,5.1,0.5,3.5-1.8   C576.5,198.8,575.3,199.5,574.1,199.9z M421.3,151.2c-1-0.9-1.8-1.1-3,0C419.6,151.2,420.3,151.2,421.3,151.2z M571.3,201.3   c0-0.1,0-0.3,0-0.4c-0.4,0-0.8,0-1.2,0.1c0,0.1,0,0.2,0,0.4C570.5,201.3,570.9,201.3,571.3,201.3z M423.1,182.4c0.1,0,0.1,0,0.2,0   c0-0.3,0-0.7,0-1c-0.1,0-0.1,0-0.2,0C423.1,181.7,423.1,182.1,423.1,182.4z" />
	<path display="inline" fill="#F6D9C7" d="M440.4,197c8.8,0.5,19.1-2.4,26.1,4.4c-2.7,15.4-1,31.2-5.7,46.2   c-2.8,7.9-1.4,16.1-2.7,24.2c-12.7,0.7-12.7-13.5-16.7-22.4c-2.5,0.7-2.6,2.2-2.4,4.5c0.3,0.3,0.5,0.6,0.8,0.9c0,0,0-0.1,0-0.1   c-0.6,4.4,0.5,8.3,2.2,12.3c-0.3,0.3-0.6,0.6-0.9,0.8c-5.3-0.6-10.1-3.8-15.1-5.4c4.2-11.7,7-23.8,8.7-36.2c1.6-0.8,1.6-0.8,4.7-1   c-0.7-4.8-5-8.1-3.3-13.5c2.2,1.3,3.6,4.2,7,3.4c0.3-0.5,0.7-1.2,1.2-2.1c-1.3-0.5,0-2.4-1.6-3c-1.3-1.3-1.3-3-2.1-4.9   c1.5-0.4,1.2-2.2,2.4-2.9c1.3-0.6,0-1.8-0.3-2.7C442.4,198,440,198.8,440.4,197z M445.1,203.3c0.8,0.5,1.3,0.8,1.7,1.1   C447.6,203.5,446.9,202.7,445.1,203.3z" />
	<path display="inline" fill="#E1C7B6" d="M392.4,330.2c-0.6,0-1.3,0.1-2.1,0.2c-12.9,18.4-26,37.6-33.9,58.3   c0.1-0.4,0.5-0.9-0.3-1.4c-0.4,2.1-0.6,5.3-1.7,6.9c0-0.4-0.1-0.9-0.1-1.3c-0.8,0.1-1.1,0.5-0.9,1.2c0.3,0.1,0.7,0.1,1,0.2   c-2.2,1.8-0.8,4-2.1,6.1c-0.1-0.4-0.3-0.9-0.4-1.3c-2.5,1.1-2,3.2-2,5.1c-1.8,1.3-2.1,3.8-3.7,5.3c-1.1,1.9-2.9,3-2.2,5.5   c3-1.4,4.6-4.6,5.2-7.7c0.9-0.9,0.8-2,0.7-3.1c1.1-0.9,0.9-2.5,2.2-3.1c0.5,12.6-7,23.3-13.7,33.4c-0.7-0.3-1.3-0.6-1.9-0.9   c-1.2-4.3,3-8.2,2.6-12.4c-1.9,1.4-3.7,2.6-5.5,3.9c0.1,0.3,0.3,0.7,0.4,1c-5,0.3-9.3,4.8-12.2,8.5c0,0,0-0.1,0-0.1   c-0.8,0.2-1.6,0.5-2.3,0.7c-0.2-0.2-0.3-0.4-0.6-0.7c-10.8,5.9-18.1,16.1-28.1,22.9c-8.6,6.6-12.3,16.9-19.9,24.2   c-1.7-1.3-2.5-3.1-3.2-4.9c14.3-19.2,30.4-37.9,51.2-50.2c10.1-5.9,19.8-7.7,23.3-20.2c12.3-28.2,17-61.1,35.1-86.8   C382.9,321.5,387.3,326.8,392.4,330.2z" />
	<path display="inline" fill="#EF8A6A" d="M406.2,293c0.8,3.8,8.6,3.3,10.2,7.3c-3.5,1.3-11.5-3.6-12.7-1.2   c-1.5-0.6-1.4,0.9-2.1,1.5c-0.1-0.4-0.1-0.7-0.3-1.4c-5,8-7.5,17.5-10.4,26.3c-4.6-2.3-9-5-13-8.7c0.2-34.8-5.7-42.2,26.6-64.2   c5.2,5.4,11.4,9.2,18.4,12.1c-0.5,6.8-7.2,10.9-9.2,17c4.9,2.3,8.5,5.5,13.3,8.6c-0.6,0.5-1,0.8-1.4,1.2c-4.1-1.9-8.1-3.7-12-5.5   c0-0.4,0-0.7,0-1.2c-1.3-0.6-2.7-1.2-4-1.8c-0.1-0.8-0.1-1.4-0.2-2.4c-1,0.8-1.6,1.3-2.5,2c-1.1-0.3-2.4-0.7-3.7-1   c-0.8-1.2-2-0.6-3.1-0.7c-0.3-0.5-0.5-1.1-1.1-0.2c0.4,0.1,0.8,0.1,1.2,0.2c1.2,2.2,4.7,2.3,6.8,3.6c-0.1,3.2-2.2,5.8-1.8,9.1   c0.4-0.2,0.8-0.4,1.1-0.5C406.1,292.9,406.2,293,406.2,293z M411.5,272.4c1.2-2.9,4-5.1,3.7-8.4c-1.4,0.7-8.2,12.9-5.7,12.7   C410.1,275.2,410.8,273.8,411.5,272.4z M385.7,311.7c-2.1-1.3-3.5-1.5-5.5,0C382.2,312.3,383.7,312.2,385.7,311.7z" />
	<path display="inline" fill="#F7EFD0" d="M422.8,556.3c2.9,2.1,5.9,2.2,9.5,3.8c8.2-1.8,14.9-7.9,18.6-15.5   c3.8,0.3,4.5,4.2,6.4,6.8c-1.1,2.4-3.8,4-3,7.1c3.3-0.4,5.1-6.2,8.1-2.9c-0.1,1.8-1.6,3.6-0.6,6c1.5-1,2.8-1.9,4.3-3   c0.4,0.3,1,0.7,1.6,1.2c-2.7,3.4-2.7,3.5-1,6.4c1.1-1.5,2-2.5,3.3-4c1.1,0.9,2.3,1.8,3.4,2.7c-0.8,3.2,2.5,4.7,4.9,6.6   c0-1.3,0-2.2,0-3.1c5.7,2.8,11.8,4.2,18.1,3.5c0.9,2.1,1.9,4.1,1.8,6.4c-11.9,4.6-26,6.3-39,6.3c-1.3-0.9-2.5-1.7-3.6-2.5   c-1.6-12.7-14.6,2.9-22,0.2c-2.7-0.5-5.2,1-7.8,0.8C409.9,587.8,422.9,563.8,422.8,556.3z" />
	<path display="inline" fill="#F7EFD0" d="M241.7,498.6c-0.3,3.2-0.5,6-0.2,9.3c9.5,5.9,19.9,5.9,29.9,0.3c2.3,2.6-0.3,5.8-0.4,9   c-11.4,1.2-9.7,6.2,0.8,2.9c2.7,2.6-5,2.5-5.1,5.6c2.2,2,4.9,0.2,7.4-0.5c0.5,0.9,0.9,1.7,1.4,2.6c-1.6,1.5-6,1.9-4.8,4.7   c1.9,0.6,3-1.2,4.8-1.7c0.3,0.9,0.7,1.8,1.1,2.7c-0.5,0.8-1,1.6-1.7,2.6c1,0.1,1.7,0.2,2.7,0.4c1.5,8.9,9.2,13.6,12.9,21.2   c-11.6-4-39.9-3.6-38.2-20.6c-2.5-4.5-7.3-3.2-11.1-5.2c-6.1-3.9-15-6-19.2-11.7c3.7-3.5,7.9-4.9,8.8-10.2   c2.2-5.1,6.9-9.1,10.5-12.9C241.5,497.7,241.6,498.1,241.7,498.6z M278.6,542.2c-1.2-0.8-1.7-0.2-2.1,0.8   C277.8,543.8,278.3,543.2,278.6,542.2z" />
	<path display="inline" fill="#E1C7B6" d="M431.2,341c1.4,20.3,3.6,41.2,9,61c1.5,12.9,13.6,24.3,9.7,37.4c-2-2.8-3.7-4.9-6-7.6   c-1.3-0.3-2.8-0.7-4.5-1.1c-12.1,21.7-11.3,47.9-7.3,71.7c0.9-2.8,1.6-5,2.3-7.2c1.1,7.6,0,15-1,22.3c0.7,0.6,1.1,1,1.6,1.5   c-2.9-0.3-5.8-0.6-8.8-0.9c0.5-23.8-5.5-47.4,0.4-70.9c0.9-10.1,8.1-18.5,8.3-28.6c4.3-18.9-22.7-45.3-14.9-54.8   c2.1,0,3.1-2.7,2.9-4.6C425.9,353.4,427,345.5,431.2,341z M437.5,420.2c2.4-2.4,2.7-5.7,0.3-8.3   C437.9,414.7,435.7,418.1,437.5,420.2z M437.7,408.5c1.2-4.7,1.2-4.7,0.6-6.6C436.9,403.4,436.9,403.4,437.7,408.5z" />
	<path display="inline" fill="#E1C7B6" d="M442.6,209.9c1.6,0.6,0.3,2.5,1.6,3c-0.5,0.9-0.9,1.6-1.2,2.1c-3.3,0.9-4.8-2-7-3.4   c-1.7,5.4,2.6,8.7,3.3,13.5c-3.1,0.2-3.1,0.2-4.7,1c-1.7,12.3-4.5,24.5-8.7,36.2c-7.5-2.1-14.9-5.6-20.1-11.6   c13.5-15.8,10.4-35.8,2.5-53.5c10.5,0.6,21.5-0.2,32.1-0.3c-0.3,1.8,2,1,2.2,2.5c-0.7-0.3-1.3-0.6-1.9,0.2   c-0.1,1.6,1.4,1.7,2.2,2.5c-1.2,0.7-0.9,2.4-2.4,2.9c0.5,1.6,1,2.9,1.4,4.2c-1.2-0.4-2.1-1.7-3.4-1.2   C438.4,209.7,441.6,211.2,442.6,209.9z" />
	<path display="inline" fill="#92A3C5" d="M594.9,203.1c2.4-2.6,6.4-1.6,8.5,1.1c-0.3,96.2,0.5,192.6-0.3,288.8   c-1.6-0.3-4.4,0.9-5.1-1c3.3-17.8-2.4-40.5,2.2-59.1c-0.5-0.5-1-1.1-1.5-1.7c1.5-29.9-3-61,2-90.3c-0.7-0.1-1.4-0.1-2-0.2   c-0.7-29.1,1.3-58.6-0.8-87.5c1.8-1.3,2.8-2.9,2.2-5.2c-4,2-2.1-24.3-1.5-26.7c0.2,0.4,0.5,0.9,0.7,1.3c-0.8,2.9-0.8,2.9,0.6,3.8   c0.2-4,0.8-10.8-5-10.1C594.9,211.9,594.9,207.5,594.9,203.1z M599.5,212.2c-0.1-0.8,0.5-1.8-0.7-2.2c-1.3,2.2-1.1,3.6,0.7,5   C599.5,213.9,599.5,213,599.5,212.2z" />
	<path display="inline" fill="#798BB2" d="M599.4,435.9c-2,16.8,0.1,34.3-0.8,51.3c-1.7,0.9-0.4,3.4-0.6,4.9c0.7,1.9,3.5,0.6,5.1,1   c-2.5,1.8-5.4,0.6-8.1-0.3c-0.6-96.2-2-194.1-0.1-289.6c0,4.4,0,8.7,0,13.3c1.7,0.4,4-0.2,4.5,1.9c-3.2,8-0.7,18.5-1.5,27.5   c0,0.9-0.1,1.8,0.9,2.2c-0.6,0.7-1.1,1.5-1.6,2c0.3,1.4,1.1,1.8,2.2,1.7c-0.5,0.4-0.9,0.8-1.6,1.4c2.1,28.9,0.1,58.4,0.8,87.5   c-1.3,0.9-2.1,2-0.9,3.8c0.5,0,1.1,0,1.7,0c-2.1,28.6-0.1,57.9-0.7,86.7c0.5,0.6,1,1.1,1.5,1.7c-1.9-0.3-3,1-2.9,2.9   C598.2,435.9,598.8,435.9,599.4,435.9z" />
	<path display="inline" fill="#FEEFA7" d="M404.6,105.8c0.3-0.2,0.6-0.4,1.1-0.7c12.1,2.5,22.3,9.6,30.9,18.3   c13.6,13.5,38.8,25.4,38,47c-9.2-5.8-15.9-16.2-25.7-21.8c-3.6-21-27.4-37.6-48.2-37.3C402.3,109.1,403.5,107.5,404.6,105.8z" />
	<path display="inline" fill="#E0C7B6" d="M454.1,91.9c-12.7-2.4-15.6,8.4-17.5,18.3c-0.8-1.2-2.2-2.1-2.3-3.8   c0.4-0.1,0.8-0.2,1.6-0.4c-0.6-0.5-0.9-0.7-1.4-1c-0.1,0.7-0.1,1-0.2,1.4c-5.8-7.2-9.3-16.7-11.7-25.7c-1-0.8-1.6-2.2-3.1-2.3   c-2.3,10.4-3.1,18.4-11.1,25.6c-0.7,0-1.4,0-2.2,0c4.3-8.3,5.8-17.7,5.1-27.1c1-1.4,1.8-1.7,1.6-3.3c0.7,0.5,1.3,0.9,2,1.4   c1-1.3-0.4-1.9-0.5-2.8c0.4-1.6,2.5-0.2,3.1-1.9c-0.6-1.8-1-3.8-0.6-5.7c4,1.7,2.4,6.7,5.4,8.9c3-1.4,3.3-1.8,2.4-4.5   c-0.8,0.8-1.5,1.4-2.6,2.6c0.5-2.8-0.6-4.5-1.6-6.3c0.3,0,0.6,0,0.9-0.1c0.6,0.7,1.2,1.4,1.8,2.1c0.3-0.1,0.7-0.3,1.2-0.4   c3.2,1.9,4.3,4.8,3.7,8.4c-0.4-1.2-0.9-2.4-0.9-3.7c-0.1,0-0.3,0-0.4,0c-0.1,0.4-0.1,0.8-0.2,1.3l0,0c-2.3,5.1,4.4,9,3.9,14.5   c0.4,1.5,0.3,3.3,1.7,4.3c-0.4-2,0.2-4.1-1-5.9c0.4-1.1,1.7-0.4,2.3-1.4c6.1,3,11.3,8.1,18.5,6.9C452.8,91.3,453.7,91.1,454.1,91.9   z M432.4,94.2c-0.7,1.2-0.4,2.1,0.9,2.7C433.5,95.8,434,94.8,432.4,94.2z M433,99.3c-0.4,0.5,0.2,1.1,0.3,1.6   c0.3-0.1,0.6-0.2,0.9-0.4C433.8,100,433.8,99,433,99.3z" />
	<path display="inline" fill="#EBDDB8" d="M241.7,498.6c-0.1-0.5-0.3-1-0.4-1.6c-3.6,3.8-8.3,7.9-10.5,12.9   c-0.9,5.3-5.2,6.7-8.8,10.2c4.2,5.7,13,7.8,19.2,11.7c3.8,2,8.6,0.7,11.1,5.2c-1.6,17.1,26.7,16.6,38.2,20.6   c0.4,0.8,0.8,1.5,1.4,2.4c-0.6,1-1.2,2.1-2,3.3c-13,0.1-24.9-5.5-35.3-12.7c-3.6-2.6-2.3-7.9-6.4-10.3c-8.9-6.6-20.9-7-27.8-16.5   c-0.2-2.4-2-4-3-6.3c9.1-5.1,14.8-13.7,21.8-21.6c0.8-0.2,2-0.3,3.1,0.7C242.2,497.5,241.9,498,241.7,498.6z" />
	<path display="inline" fill="#EBDDB8" d="M422.8,556.3c0.2,7.5-12.9,31.6,3.2,26.7c2.7,0.2,5.1-1.3,7.8-0.8c7.3,2.7,20.4-13,22-0.2   c1.1,0.8,2.2,1.6,3.6,2.5c13,0,27.1-1.7,39-6.3c0.2,0.8,0.4,1.6,0.7,2.5c-14.4,9.1-32.6,8.5-48.7,4c-12.5,2.5-25.2,5.2-37.4-0.1   c5-10.6,1.1-22.4,7.1-32.3C421.3,553.6,421.9,555,422.8,556.3z" />
	<path display="inline" fill="#F6D9C7" d="M435.1,522.7c3.9-0.1,7.7,1,11.7,1.2c-3.4,15.7,4.9,27.5-13.6,33.5   c-0.8-0.8-1.7-1.5-2.6-2.3c1.3-3.5-1-6.6-0.2-10.1c2.3-2.5-1.2-5.3,0.7-7.7c2.1-1.4-1-4.3,0.7-6.2l0,0c2.1-2.3-1.7-5.7,1.3-8.1   C433.9,522.9,434.5,522.8,435.1,522.7z" />
	<path display="inline" fill="#EAD98F" d="M438.1,194.6c-10.3,0.6-20.6,1.2-30.9,0.1c-2.2-3-5.2-10.6-6.6-16.6   c0.3-0.3,0.6-0.6,0.9-0.8c8.7,9.3,24.4,13.8,35,5c5.2,4.4,10.6,8.3,16.5,11.9c-4.8,3.2-10.1-2.4-14.7-3.9   C438.2,191.9,438.1,193.2,438.1,194.6z" />
	<path display="inline" fill="#788AB2" d="M562.3,492.3c-8.5,0-22.6,4.2-22.6,14.1c-1.1,11.2,14.2,17,10.6,28.1   c-9.6,18.2-14,15.5-4.1,37.2c-8-4.1-10.6-23.8-5.2-30.8c2.1-2.7,7.7-5.9,6.6-9.8c-1.2-6.5-7.2-9.7-10.3-15.1   c-2.2-7.2-3.1-17.2,5.9-20.4C549.1,493.6,556.1,489.9,562.3,492.3z" />
	<path display="inline" fill="#798BB3" d="M598.7,525.1c-4.1,2.7-5,9.9,0.7,11.3c-1.3,1.5-2.9,0.9-4.3,2.3c-1.5-0.3-2.9-0.7-4.5-1   c-0.4-0.6-0.7-1.2-1.1-1.9c0.3-0.2,0.5-0.5,0.9-0.8c-0.9-0.9-0.4-2.6-1.8-3.2c3.4-8.1,2.5-21.3-0.7-29.5c2.1-1.2,0-3.6-0.3-5.4   c-1.2,0-2.3,0-3.4,0c0-0.2,0-0.4,0-0.6c1.7-0.2,3.4-0.3,5.4,0.1c0.5,1.8-1.4,5.7,1.4,5.5c-0.3-2,1.2-4.5-0.7-6   c0.9-3.5,4.1-1.5,6.2-0.5c0.9,9.1,0.5,19.7,0.9,29.4C598,524.9,598.3,525,598.7,525.1z" />
	<path display="inline" fill="#92A3C5" d="M598.7,525.1c-0.4-0.1-0.7-0.2-1.3-0.3c-0.4-9.7,0-20.3-0.9-29.4c3.3,0,6.3,0,9.7,0   c0.3,10-1.3,19.9,0.1,29.9c-0.3,0.3-0.6,0.5-0.9,0.8c-1.3-0.5-2.5-1-3.9-1.6C600.6,524.6,599.7,524.8,598.7,525.1z" />
	<path display="inline" fill="#DDC4B3" d="M431.2,537.2c-1,1.3-0.8,2.6-0.1,3.9c-1.6,0.6-2,1.9-2.2,3.7c0.7,0.1,1.1,0.1,1.6,0.1   c-0.1,0.5-0.1,1-0.2,1.6c-2.8-0.3,0.5,2.9-4,5.6c0.3,1.2,0.5,2.4,0.8,3.6c-1.2,0.6-1.7-0.2-2.6-0.9c1.1-11.1-0.1-22.5,1.7-33.5   c3,0.6,6,0.3,8.9,1.3c-0.6,0.1-1.2,0.2-1.9,0.3c-3.1,2.4,0.8,5.8-1.3,8.1c0-0.7,0.6-1.4-0.3-2.1c-0.8,0.8-0.9,1.5,0.3,2.1   C430.2,533,433.4,535.8,431.2,537.2c0-0.7,0-1.4,0-2.3c-1.1,0.5-1.3,1.2-1.1,2.3C430.5,537.2,430.9,537.2,431.2,537.2z" />
	<path display="inline" fill="#D1BB9C" d="M390.3,78.7c0-0.2,0-0.4-0.1-0.5c0.1-7.1,1-14.5,3.4-21.3c0.3-0.7-0.1-1.1-1-1.2   c-3.2,9.9-5.5,21.1-2.4,31.1c-0.1,0.2,0,0.4,0.1,0.6c0,1,0,2.1,0,3.1c-1.8-0.3-1.5,1.7-1.6,2.9c-0.5,0.5-0.9,1-1.4,1.5   c-0.3-6.9,1.6-14.3,0.3-21c-2.6,2-0.1,6.7-1.2,9.5c-1.4-5.5-1.5-11.6-1.4-17.5c0.5,0,1,0,1.5,0c0,0.8,0.1,1.5,0.1,2.3   c-1.1,0.7-1.2,1.6-0.2,2.8c2.2-7.3,4.3-14.4,7.6-21.2c1,1.2,2.5,0.1,3.8,0c0,0,0.2,0.2,0.2,0.2c-4.5,10.9-5.8,22.3-5.5,34   c-0.2,0.1-0.4,0.1-0.6,0.1l0,0c0.1-1.1,0.2-2.2-0.8-3.1C390.9,80.4,390.4,79.6,390.3,78.7z" />
	<path display="inline" fill="#DDAA7B" d="M272.9,493.7c2.7,2.3,5.2,4.8,8.3,6.8c-1,0.8-1.9,1.5-3,2.4c-2.4-1.1-7.5-0.3-7.6-3.8   c-1.2-1-1.3-1-2.2,0.2l0,0c-3.7-2.1-7.3-4.5-10.2-7.7c2.4-1.6,4.2-4.8,7.1-5.4C267.8,488.8,269.8,491.8,272.9,493.7z" />
	<path display="inline" fill="#CFBA9B" d="M416.6,67.4c0.3,0.9,0.6,2.1,0.8,3c-0.6,1.7-2.6,0.3-3.1,1.9c-0.2-0.3-0.5-0.6-0.7-0.9   c0.5-0.6,1.1-1,1.9-1.1c-4-6.3-8.1-11.5-13.3-16.7c0.6,4.5,4.5,6.6,6.8,10.2c-1.2,1.3,1.5,2.4,0,3.8c-3.7-3.1-4.8-7.8-7.7-11.4   c-1.6-3.1,0.4-7-1.6-9.8c0.6-1.9-0.4-4.1,1.2-6.1c3.5,15.2,8.9,11.3,10.4,18.2c-0.4-0.2-0.9-0.3-1.4-0.5c0,1.6,0.8,3.6,2,3   c0-0.3,0.1-0.7,0.1-1c0.2,0,0.4,0,0.6,0.1c0.7,2.5,2.9,4.4,2.5,7.2C415.9,67.3,416.3,67.3,416.6,67.4z" />
	<path display="inline" fill="#F3D6C4" d="M269.8,503.8c0.2,0.2,0.4,0.5,0.8,0.9c-8.2,4.9-16.5,6.1-25.3,2.3c2-2.1,4.1-4.2,6.2-6.3   c2.7,0.5,4.4,3.1,6.7,4.5C262.4,505.1,266.4,505.8,269.8,503.8z" />
	<path display="inline" fill="#EC8969" d="M443.2,320c0.2,0.3,0.4,0.6,0.7,1c3.3-1.6,6.9-2.6,11.2-4c-4.4,4.8-10.4,6.1-14,10.5   c-0.2,2.3,0.3,4.7-1.5,6.8c0.6,0.2,1.1,0.3,1.5,0.4c-2.1,0.5-4.2,1.1-6.9,1.7c0.8-1.9,2.1-3.1,1.4-4.8   C438.7,328.2,440.4,323.7,443.2,320z" />
	<path display="inline" fill="#E0C6B5" d="M462.6,437.8c-0.9-6.1-8.1-12.4-4.5-18.4c0,2,0.1,2.1,2,1.2c2.9,2.7,2.9,2.7,5.1,8.2   c0.8-1-0.4-2.6,1-3.4C466.7,429.9,464.2,433.7,462.6,437.8z" />
	<path display="inline" fill="#E0C6B5" d="M438.9,251.2c0.3-1.1,1.4-1.1,2.4-1.8c3.5,7,3.4,17.1,10.4,21.4c-2.2-0.3-4.5-0.6-6.7-0.9   c-0.4-2.1-2.5-0.9-4.1-2.1c3.3-1.4,0.3-5.7,0.8-8.8c-1.7-3.8-1.9,1.8-1.2,3.3l-0.4,0.1C437.8,258.8,441.9,254.2,438.9,251.2z" />
	<path display="inline" fill="#C39266" d="M265.3,486.2c-2.9,0.6-4.7,3.8-7.1,5.4c-1.5-2.5-4.5-4.6-4.3-7.7c0,0-0.1,0.1-0.1,0.1   c1-0.3,1.9-0.6,2.9-0.9c1-1.6,1.9-3,2.9-4.8C261.8,480.7,263.4,483.5,265.3,486.2z" />
	<path display="inline" fill="#E5E6E7" d="M588.7,513.1c-0.2,5.4-0.6,10.8-0.1,16.3c-0.6,0.2-1.2,0.4-1.7,0.5   c-1-2.8-1.1-6.3-0.8-9.3c1-5-3-11,0.5-15.3c0.2-0.1,0.5-0.1,0.7-0.1C588.5,507.7,587.9,510.5,588.7,513.1z" />
	<path display="inline" fill="#D6BFAF" d="M247.7,504.5c-0.8,0.8-1.6,1.6-2.4,2.5c-3-0.1-1.6-4.4-1.8-6.3c1.6-3.3,5.3-5.2,7.9-8.1   c0.6,0.8,1.3,1.5,1.9,2.2c-0.4,0.8-0.6,1.5-1,2.2c0.3,0.2,0.5,0.5,0.8,0.7c-0.4,0.7-0.9,1.5-1.3,2.2c0-0.5-0.1-0.9-0.2-1.7   c-2.7,1.3-4.7,2.8-6,4.9C245.9,504.5,246.8,504.5,247.7,504.5z" />
	<path display="inline" fill="#D6C2B2" d="M251.7,500c0.8-1.2,1-2.3,2.5-3c2.2,2.6,4.8,4.9,7.6,6.9c2.2-0.1,4.2-0.7,6.4-1.5   c0.5,0.4,1,0.9,1.6,1.3c-3.4,2.1-7.4,1.4-11.6,1.5c-2.2-1.5-4-4-6.7-4.5C251.6,500.5,251.7,500.2,251.7,500z" />
	<path display="inline" fill="#8A9ABB" d="M584.2,496.9c1.1,0,2.2,0,3.4,0c0.3,1.8,2.4,4.2,0.3,5.4c-0.8-0.1-1.7-0.3-2.2,0.6   c-4.9-3.4-11.2,1.7-9.8-5.2c1-0.4,2.3,0.5,3-0.8c0.2-0.1,0.5-0.1,0.7-0.1c0.3,0.3,0.6,0.6,0.8,0.9c0,0.4,0,0.9,0,1.3   c0.4,0.7,0.9,1.2,1.6,1.5C583.7,499.5,581.5,496.6,584.2,496.9z M585.4,500.4c0.6-0.3,0.1-1.2,0.3-1.8   C584.1,498.3,584.3,500.2,585.4,500.4z" />
	<path display="inline" fill="#EED3C2" d="M466.2,425.4c-1.4,0.8-0.2,2.4-1,3.4c-2.3-5.5-2.3-5.5-5.1-8.2c1.5-1.9,2.9-3.9,4.4-5.9   c0.2,0.1,0.6,0.2,0.9,0.3C466,418.5,468.1,421.9,466.2,425.4z" />
	<path display="inline" fill="#BF9369" d="M262.3,481.7c-1-0.5-1.1-1.5-1.6-2.4c1.2-0.3,0.3-1.6,1.2-2.3c0.8,0,1.8,0.1,2.9,0.2   c1.9,4.4,4.9,7.9,8.1,11.2c0,0.8-0.1,1.6-0.1,2.5c-4.6-2.3-5.9-8.6-10.4-10.5C262.4,480.8,262.3,481.2,262.3,481.7z" />
	<path display="inline" fill="#CD9F75" d="M266.8,498.4c0.5,0.3,1.1,0.6,1.6,0.9c-1.1,0.8-2.2,1.7-3.4,2.6c-4-1.3-6.9-3.7-8.9-7.2   c0-0.7,0-1.4,0.9-1.7C259.5,494.2,264.5,501.4,266.8,498.4z" />
	<path display="inline" fill="#170E0B" d="M443.2,320c-2.8,3.7-4.6,8.1-7.5,11.7c-0.4,0-0.8,0-1.3,0c0-0.2,0-0.5,0-0.7l0,0   c0.2-0.3,0.5-0.6,0.7-0.8c0,0,0,0,0,0c0.9-0.6,0.8-1.5,0.6-2.4c2.4-4.3,5-8.6,8.4-12.2c0.3-0.1,0.5-0.1,0.8-0.2   c0,0.4,0.1,0.7,0.1,1.1C444.4,317.7,443.8,318.9,443.2,320z" />
	<path display="inline" fill="#151312" d="M465.4,414.9c-0.3-0.1-0.7-0.2-0.9-0.3c-1.3,1.4-6.1,10-6.5,4.7c2.5-1.8,2.6-5,4-7.7   c0.9,0,1.7,0,2.7,0c0.2-2.4,0.4-4.7,0.7-7.1C465.4,408,465.4,411.5,465.4,414.9z" />
	<path display="inline" fill="#B7A388" d="M401.5,56.1c1.3,1,1.6,2.5,2.3,3.9c-1.9,2,4.1,8.4,6.2,9.8c0.6-0.3,1-0.5,1.5-0.8   c0.4,1.8,1.6,3.5,1.5,5.4C406.8,69.9,401.1,64.4,401.5,56.1z" />
	<path display="inline" fill="#130E0B" d="M262.3,481.7c0.1-0.5,0.1-0.9,0.2-1.3c4.5,1.9,5.8,8.2,10.4,10.5c0,1,0,1.9,0,2.9   C268.4,490.6,265.2,486.2,262.3,481.7z" />
	<path display="inline" fill="#241A14" d="M266.8,498.4c-2.3,2.9-7.3-4.2-9.8-5.4c-1.5-1.8-2-5.3-4.5-5.8c0.5-0.6,1-1.2,1.4-1.7   C256.9,490.9,261.4,495.3,266.8,498.4z" />
	<path display="inline" fill="#D8C0B1" d="M441.2,140.5c-0.8-1.9-1.7-3.9-2.4-5.9c0.3-0.3,0.5-0.5,0.8-0.8c3.1,3.3,4.8,7.4,6.9,11.4   c-0.1,0.5-0.1,0.9-0.3,2.3C443.8,144.7,442.5,143.4,441.2,140.5z" />
	<path display="inline" fill="#8FA1C3" d="M588.6,531.8c1.4,0.7,0.9,2.3,1.8,3.2c-0.4,0.4-0.6,0.6-0.9,0.8l0,0c-0.7-1-0.7-1-1.5-0.1   c-1,0.1-2.2-0.6-3,0.6c-0.3,0-0.5,0-0.8,0.1c-0.3-1.3-0.5-2.5-0.8-3.8c0.7-0.5,1.3-1,1.9-1.4C586.5,531.4,587.6,531.6,588.6,531.8z   " />
	<path display="inline" fill="#FDEFA6" d="M438.1,194.6c0-1.4,0.1-2.7,0.1-4.4c3.2,0.9,5.4,3,8.3,4.5   C443.7,194.7,440.9,194.6,438.1,194.6z" />
	<path display="inline" fill="#252328" d="M585.8,502.9c0.5-0.9,1.4-0.7,2.2-0.6c2.7,3.4,0.5,7,0.8,10.8c-0.6-3.3-0.7-6.4-1.7-9.6   c-0.1,0-0.3,0-0.4,0.1c0,0.6,0,1.2,0,1.8c-0.3,0.2-0.5,0.5-0.8,0.7C585.8,505,585.8,504,585.8,502.9z" />
	<path display="inline" fill="#2D2928" d="M382.4,409.3c1.8-2.3,3.5-4.7,5.3-7c0.4,0.4,0.7,0.7,1.1,1.1c-1.6,2.8-4.7,4.5-5.4,7.7   C383.2,410.4,383.3,409.5,382.4,409.3z" />
	<path display="inline" fill="#3C312A" d="M402.2,42.6c-0.4-0.7-0.7-1.5-1.2-2.4c-1.6,2-0.6,4.2-1.2,6.1c-0.4,0-0.9,0-1.3,0   c-0.4-2.7,0.1-5.2,1.4-7.7c1.2,0.5,2.5,0.9,3.1,2.3C402.8,41.5,402.5,42,402.2,42.6z" />
	<path display="inline" fill="#A57D58" d="M252.4,487.2c2.5,0.5,3,4,4.5,5.8c-0.9,0.3-0.8,1-0.9,1.7   C254.2,492.5,252.3,490.3,252.4,487.2z" />
	<path display="inline" fill="#CFBEA3" d="M398.4,43.2c0,2.3,0.6,4.8-0.6,6.9l-0.2-0.2c0.2-1.6,0.2-3.2-0.1-5.2   c-1.7,1.7-2.5,2.8-3.6,4.6c-0.3-0.2-0.5-0.5-0.8-0.7C394.6,46.5,395.6,43.5,398.4,43.2z" />
	<path display="inline" fill="#7180A4" d="M583.5,532.6c0.3,1.3,0.5,2.5,0.8,3.8c-1.2,0.1-2.4,0.1-3.8,0.2c0-1.1,0-2.1,0-3.2   C581.5,533.2,582.5,532.9,583.5,532.6z" />
	<path display="inline" fill="#28201E" d="M422.8,339.4c1.8,0.3,3.5,1.1,5.3,0.7c-0.1,1.1,0.6,2.3-0.7,3.1c0-0.4-0.1-0.7-0.1-1.1   c-2.2-1.9-5.3-0.3-7.6-1.9C420.9,340.2,421.9,340.1,422.8,339.4z" />
	<path display="inline" fill="#3E3D35" d="M478.4,568.2c0,0.9,0,1.9,0,3.1c-1.9-1.1-3.2-2.5-4.5-3.7c0.5-0.3,0.9-0.5,1.4-0.8   c0.8,1.1,1,1.1,1.6,0C477.4,567.4,477.9,567.8,478.4,568.2z" />
	<path display="inline" fill="#27221F" d="M442.8,143.5c1,1.1,1.9,2.3,3.4,4c0.2-1.4,0.2-1.8,0.3-2.3c1.6,1.6,0.3,1.9-0.7,3   c-2-0.5-2.7-2.3-3.7-3.8C442.3,144.1,442.6,143.8,442.8,143.5z" />
	<path display="inline" fill="#332821" d="M470,167.4c1.6,0.8,2.8,2.9,4.7,3c-0.5,0.6-1,1.1-1.6,1.6c-1.3-1.3-2.6-2.5-3.8-3.8   C469.4,167.9,469.7,167.7,470,167.4z" />
	<path display="inline" fill="#5B5957" d="M343.6,448.9c1.5-1.3,3-2.5,4.5-3.8c0.3,0.3,0.6,0.6,1,0.9c-1.6,1.2-3.1,2.4-4.7,3.7   C344.1,449.4,343.9,449.1,343.6,448.9z" />
	<path display="inline" fill="#B8B0A4" d="M422.9,359.2c0.2,1.8-0.8,4.6-2.9,4.6C420.5,362,421.4,360.4,422.9,359.2z" />
	<path display="inline" fill="#31302F" d="M417.7,368.8c2,1.6,1.3,3.7,0,5.5c-0.4-1.5-0.8-3-1.1-4.5   C417,369.5,417.3,369.2,417.7,368.8z" />
	<path display="inline" fill="#697798" d="M584.2,496.9c-0.7,0-1.3,0.1-1.6,0.8c-0.7-0.6-1.5-0.6-2.2,0c-0.3-0.3-0.6-0.6-0.8-0.9   c1.4-1.1,3.1-0.6,4.6-0.6C584.3,496.5,584.3,496.7,584.2,496.9z" />
	<path display="inline" fill="#877B72" d="M439.6,133.8c-0.3,0.3-0.5,0.5-0.8,0.8c-0.8-1.1-1.5-2.1-2.6-3.5   C438.3,131.8,438.3,131.8,439.6,133.8z" />
	<path display="inline" fill="#78624D" d="M272.9,493.1c0-1.6,0-3.1,0.1-4.7c1.2,1.1,0.7,2.9,1,4.5C273.6,493,273.2,493,272.9,493.1   z" />
	<path display="inline" fill="#8D7369" d="M429,548.7c-0.1-1.1-0.1-2.6,1.4-2.1c0,0.7,0,1.5,0,2.2   C429.9,548.8,429.4,548.7,429,548.7z" />
	<path display="inline" fill="#4C607B" d="M591,499.8c0,0.7,0,1.4,0,2.1c-1.5,0.3-1.4-0.5-1.4-1.3   C590.1,500.4,590.6,500.1,591,499.8z" />
	<path display="inline" fill="#697798" d="M579.6,501.6c1.3,0,2.7-0.6,3.9,0.6C582.2,502.1,580.8,502.5,579.6,501.6z" />
	<path display="inline" fill="#412C24" d="M273.5,505.2c0.3,0.5,0.7,0.9,1,1.4C272.9,507.3,271,505.3,273.5,505.2z" />
	<path display="inline" fill="#3F2624" d="M442.6,268.6c1.9-0.1,1.9-0.1,2.5,1.4C443.9,270.2,443.1,269.6,442.6,268.6z" />
	<path display="inline" fill="#697798" d="M575.9,497.8c0,1-0.1,2-0.1,3C574.9,499.1,574.9,498.9,575.9,497.8z" />
	<path display="inline" fill="#30332A" d="M398.4,57.1c-0.4,0-0.9,0-1.3,0c-0.2-0.7,0.2-1,0.7-1.4C398.2,56,398.6,56.4,398.4,57.1z" />
	<path display="inline" fill="#9A9286" d="M425.1,122.3c0.2-0.4,0.4-0.9,0.6-1.3c0.5,0.3,0.9,0.5,2.1,1.2   C426.4,122.3,425.8,122.3,425.1,122.3z" />
	<path display="inline" fill="#8D8C5C" d="M401.5,177.2c-0.3,0.3-0.6,0.6-0.9,0.8c-0.8-0.6-0.9-1.4-0.4-2.5   C400.7,176.2,401.1,176.7,401.5,177.2z" />
	<path display="inline" fill="#697798" d="M578.9,497c-0.7,1.2-2,0.5-2.9,0.8C576.7,496.5,577.9,497,578.9,497z" />
	<path display="inline" fill="#CD9F75" d="M268.4,499.3c0.9-1.2,1-1.2,2.2-0.2C269.8,499.2,269.1,499.3,268.4,499.3z" />
	<path display="inline" fill="#93AC95" d="M476.9,566.9c-0.6,1.1-0.8,1.1-1.6,0C475.9,566.1,476.4,566.9,476.9,566.9z" />
	<path display="inline" fill="#EC8969" d="M434.4,331.1c0,0.2,0,0.5,0,0.7c-0.3,0.2-0.7,0.4-1,0.7   C433.5,331.8,433.5,331.1,434.4,331.1z" />
	<path display="inline" fill="#697798" d="M577.3,501.6c0.6,0,1.2,0,1.8,0C578.5,502.3,577.9,502.2,577.3,501.6z" />
	<path display="inline" fill="#788AB2" d="M536.2,517.5c-0.6-0.4-0.8-0.9-0.6-1.6C536.2,516.3,536.4,516.8,536.2,517.5z" />
	<path display="inline" fill="#788AB2" d="M535.4,515.2c-0.7-0.3-0.8-0.9-0.7-1.5C535.3,514,535.6,514.5,535.4,515.2z" />
	<path display="inline" fill="#27221F" d="M440.4,142.2c-0.2-0.5-0.4-1-0.6-1.5C440.5,140.9,440.4,141.5,440.4,142.2z" />
	<path display="inline" fill="#697798" d="M573.6,498.6c0.2-0.1,0.5-0.1,0.7-0.2c-0.1,0.2-0.3,0.5-0.4,0.7   C573.8,498.9,573.7,498.8,573.6,498.6z" />
	<path display="inline" fill="#27221F" d="M440.5,138.9c0.2,0.3,0.3,0.7,0.5,1C440.8,139.6,440.7,139.2,440.5,138.9z" />
	<path display="inline" fill="#252328" d="M584.2,502.4c0.3,0.2,0.6,0.3,1,0.5C584.9,502.7,584.6,502.5,584.2,502.4z" />
	<path display="inline" fill="#27221F" d="M441.2,140.5c0.2,0.3,0.3,0.6,0.5,0.9C441.6,141.1,441.4,140.8,441.2,140.5z" />
	<path display="inline" fill="#697798" d="M574.5,496.1c-0.1-0.5,0.1-0.7,0.6-0.6C574.9,495.7,574.7,495.9,574.5,496.1z" />
	<path display="inline" fill="#27221F" d="M441,143.1c-0.2-0.3-0.4-0.6-0.6-1C440.6,142.5,440.8,142.8,441,143.1z" />
	<path display="inline" fill="#27221F" d="M442,142c0.2,0.3,0.4,0.6,0.5,0.9C442.3,142.6,442.1,142.3,442,142z" />
	<path display="inline" fill="#7588AF" d="M607.9,538.9c-1,0.8-1.9,1.6-1.5,3.1c-1.2,0.3-2.3,0.6-3.9,1.1c1,0.2,1.7,0.3,2.4,0.4   c-1.4,1.7-2.9-0.1-4.5,0.1c-0.5,1.2-1.1,2.4-1.6,3.6c-5.5,2.3-6-1.3-5.9-6C597.6,539.7,602.8,538.5,607.9,538.9z" />
	<path display="inline" fill="#8FA0C2" d="M609.4,525.1c4.4-0.2,8.7-1.1,13.1-0.7c0.6,1.8,0.1,3.3-0.2,5c-3.6,0.1-7.1,0.1-10.6,0.2   C612.1,527.7,610.4,526.6,609.4,525.1z" />
	<path display="inline" fill="#899CBC" d="M598.7,547.2c0.5-1.2,1-2.4,1.6-3.6c1.6-0.2,3.1,1.6,4.5-0.1c2.9,0,5.8,0,8.7,0   c0.9,1,0.6,2.1,0.3,3.1C611.1,547.2,603.4,547.5,598.7,547.2z" />
	<path display="inline" fill="#7688AE" d="M609.4,525.1c1,1.5,2.7,2.5,2.3,4.5c-1.4,0.3-2.8,1.1-4.1,0.6c-0.8-1.5-1.5-2.9-2.2-4.3   c0.3-0.3,0.6-0.5,0.9-0.8C607.3,525.2,608.4,525.2,609.4,525.1z" />
	<path display="inline" fill="#8599B8" d="M601.2,527.2c5.3-0.1,2.1,4.7,0.3,7c-0.5-0.1-0.9-0.1-1.3-0.1c0.1-2.2-0.1-4.2-0.6-6.5   C600.3,527.5,600.8,527.4,601.2,527.2z" />
	<path display="inline" fill="#7485AA" d="M601.2,527.2c-0.5,0.1-0.9,0.2-1.5,0.4c0.5,2.2,0.7,4.2,0.6,6.5   C595,534,597.2,524.6,601.2,527.2z" />
	<path display="inline" fill="#58697D" d="M604.6,534.9c-0.3,1.5-0.3,1.5-2.8,1.4C603,535.7,603.7,535.4,604.6,534.9z" />
	<path display="inline" fill="#7180A4" d="M585,536.4c0.8-1.2,2-0.5,3-0.6C587.3,536.9,586.1,536.3,585,536.4z" />
	<path display="inline" fill="#798BB3" d="M588.1,535.7c0.8-0.9,0.8-0.9,1.5,0.1C589.1,535.8,588.6,535.7,588.1,535.7z" />
	<path display="inline" fill="#382B28" d="M599.4,179.6c-0.7-0.6-1.3-1.2-2.2-2c1.6-0.3,2.5,0.1,3.2,1   C600,179,599.7,179.3,599.4,179.6z" />
	<path display="inline" fill="#0D0D0F" d="M598.2,91.8c-1-2-1.8-4,0-5.9c0.6,0,1.2-0.1,2.1-0.1c-0.6,2.1,0.8,4-0.2,6   C599.4,91.8,598.8,91.8,598.2,91.8z" />
	<path display="inline" fill="#F6D9C7" d="M428.1,75.3c0.6-3.6-0.6-6.5-3.7-8.4c1-1.2,2.1-1.6,0.7-3.1c1.1-1.4,0.9-3.5,2.4-4.6   c0.2,0.1,0.4,0.1,0.7,0.1c1.2,1.4,2.3-0.6,3-1.5c-0.2-0.5-0.4-1-0.6-1.5c1.3-0.9,4.6-1.7,3.3-3.7c-0.4,0.2-0.8,0.3-1.1,0.5   c-0.7-0.3-0.7-0.9-0.8-1.5c0.6-0.5,1-1.1,1.4-1.7c0,0,0-0.4,0-0.4c0-0.5,0.1-1.1,0.1-1.6c2.5-1.2,4.2-2.9,5.7-5.3   c-0.8-0.1-1.4-0.1-2-0.2c0.5-1.8,2.5-2.3,3.2-3.9c-1-0.7-1.5,1.3-2.4,0.1c0-0.4,0-0.9,0.1-1.3c1.8-1.3,3.5-2.7,5.3-4.1   c0.9,0.2,1.8,0.4,3.4,0.8c-1.9-2.8-4.5-3.2-7.4-4.4c1-0.1,1.8-0.3,1.7-1.6c2.2,1.1,4.5,2.3,6.8,3.4c0-0.5,0.1-0.8,0.1-1.2   c0.9,0.5,1.8,1,2.7,1.5c0.4-0.6,0.8-1.1,1.1-1.5c1.1,0.9,2.5,0.7,3.9,0.6c-0.1-1.6-1.1-1.9-2.2-2.2c-0.1-0.2-0.2-0.4-0.3-0.6   c0.3-0.3,0.6-0.6,0.9-0.8c1.7,0.5,2,2.5,3.3,3.4c0.4-0.2,0.7-0.3,1-0.4c1.1,0.6,2.2,1.1,3.3,1.7c1.7,6.1,2.4,11.7,3.7,18   c-3.8,6.6,1.6,13.4,5.1,18.9c-2.7,1.7-5.7,1.6-9,2.2c1.1,0.8,1.9,1.5,2.8,2.2c0.4,1.2,0.6,2.4,0.2,3.5c-1.9,1.6-4.6,0.6-6.3,2.1   c0.2,2.5,2.9,0.9,4.3,0.7c1.5,0.9,0.7,2.1,0.8,3.2c-3.1,2.4-0.5,5.9-2.4,8.9c-2.1,1.1-4.5,0.3-6.8,0.2c-0.4-0.8-1.2-0.6-2-0.7   c-7.5,1.5-12.7-4.5-19.1-6.9c-0.6-0.8-1.1-1.5-1.7-2.3c0-0.6-0.1-1.2-0.8-1.4l0,0c0.1-0.7,0.1-1.3-0.7-1.5   C428.8,77.9,428.2,76.7,428.1,75.3z M453.3,57.8c1.8,1,3.3,2.6,5.5,2.7c-0.6-2.2,1.1-3.7,1.2-5.5c1.2-0.7,2.4-1.1,2.7-2.6   c-3.2,0.8-6.8,0.7-8.9,3.6c-1.1-0.1-2,0.2-2.6,1.5C452.1,57.7,452.7,57.8,453.3,57.8z M464.2,48.3c-2.8-3.2-7.4-1.3-10.9-0.2   C456.4,50.3,460.7,48.6,464.2,48.3z" />
	<path display="inline" fill="#F6D9C7" d="M408.4,104c8-7.3,8.8-15.3,11.1-25.6c1.5,0.1,2.1,1.5,3.1,2.3c2.4,9,5.9,18.5,11.7,25.7   c0.3,2.5,2.8,3.4,2.9,6.1c-0.4,0.4-0.9,0.7-1.5,1.2c0.5,2.7,2.4,5,3.9,7.2c-0.3,0.3-0.6,0.6-0.9,0.8   C429.6,113.9,420.5,106.2,408.4,104z" />
	<path display="inline" fill="#BAA698" d="M438.7,121.8c0.3-0.3,0.6-0.6,0.9-0.8c0.7,0.7,1.3,1.5,2,2.2c-0.4,0-0.9,0.1-1.3,0.1   C439.7,122.8,439.2,122.3,438.7,121.8z" />
	<path display="inline" fill="#897067" d="M440.2,123.2c0.4,0,0.9-0.1,1.3-0.1c0.4,0.5,0.8,1,1.1,1.5c0,0-0.1,0.1-0.1,0.1   C441.5,124.8,440.8,124.1,440.2,123.2z" />
	<path display="inline" fill="#BAA698" d="M439.5,120.9c-0.2-0.3-0.4-0.5-0.7-0.8C439.1,120.3,439.3,120.6,439.5,120.9z" />
	<path display="inline" fill="#897067" d="M442.7,124.6c0.2,0.1,0.4,0.3,0.6,0.4C442.7,125.5,442.7,125.1,442.7,124.6L442.7,124.6z" />
	<path display="inline" fill="#BAA698" d="M437.4,120.8c0.2,0.2,0.5,0.4,0.7,0.6C437.9,121.2,437.6,121,437.4,120.8z" />
	<path display="inline" fill="#D6BFA0" d="M398.4,43.2c-7.7,4-8.8,15.4-12.2,22.8c-5.6,0,0.6-9.2-2.6-11.9c0.5-7,2.1-13.9,3.5-20.8   c2.5-3.3,6.9-1.5,10.4-1.5c-0.7,0.6-1.4,1.2-1.1,2.3c0,0.1-0.3,0.4-0.4,0.5c-2.7,0.3-6,0.9-7.2,4c0.9-0.4,1.5-0.6,2-0.9   c0,0.6,0,1.2,0,1.8c1.2-0.1,2.1-0.2,3-0.3c-3.4,2.9-9,9.5-7.7,12.5c1.8-3.3,2.8-6.9,5.9-8.8c0.7,0.3,1.3,0.6,2,0.8   c1.3-0.7,1.6-1.9,2-3.1c0,0,0,0,0,0C397.9,38.8,399,41.4,398.4,43.2z" />
	<path display="inline" fill="#353028" d="M387.1,33.4c-1.4,6.9-3,13.8-3.5,20.8c0.4,0.4,0.7,0.8,0.9,1.1c0.5,2.8-2.3,11.3,0.1,11.8   c-0.1,3.2,0.6,6.6,0,9.7c-0.2,0-0.4,0-0.6,0c-0.1-0.6-0.2-1.2-0.3-1.7c-1,5.4-0.7,11-1.8,16.3c-0.2-3,0.1-6-1.5-8.7   c0.4-0.1,0.7-0.1,1.2-0.2c0.8-13.3-1.6-26.5,1.6-39.2c0.8-2.2,2.8-6.2,1.7-8.3C385.2,33.7,386,33.3,387.1,33.4z" />
	<path display="inline" fill="#B7A489" d="M381.9,91.3c1.1-5.4,0.8-10.9,1.8-16.3c0.9,11.1-0.9,22.3-0.5,33.7c-0.2,0-0.4,0-0.7,0   C381.5,102.9,381.8,97.1,381.9,91.3z" />
	<path display="inline" fill="#AD9A81" d="M381,57c1.9,7.8,0,17,0.6,25.3c-0.5,0.1-0.9,0.2-1.2,0.2C379.1,74,381.2,65.6,381,57z" />
	<path display="inline" fill="#8D7E69" d="M382.5,108.7c0.2,0,0.4,0,0.7,0c0.2,0.4,0,1,0.9,1c0.3-3.1-0.7-6.5,0.7-9.3   c0.2,0,0.4,0,0.6-0.1c-0.3,6.3-1,12.7-1.5,19.1c-0.2,0-0.4,0.1-0.5,0.2c-0.1-0.7-0.1-1.5-1-1.7   C382.4,114.7,382.5,111.7,382.5,108.7z" />
	<path display="inline" fill="#A19078" d="M382.4,117.8c2.4,2.5-0.4,7.6-2.2,10C380.1,124.4,381.7,121,382.4,117.8z" />
	<path display="inline" fill="#251E1A" d="M396,34.7c0.1-0.2,0.4-0.4,0.4-0.5c-0.4-1.1,0.4-1.7,1.1-2.3c0.8,0,1.7-0.1,2.5-0.1   c0,0.6-0.1,1.2-0.1,1.8C398.7,34.5,397.5,35.1,396,34.7z" />
	<path display="inline" fill="#534B3E" d="M384.9,34.9c1.2,2.1-0.8,6.2-1.7,8.3C382.9,40.3,383.9,37.6,384.9,34.9z" />
	<path display="inline" fill="#1C1917" d="M379.5,128.4c-0.3,0-0.6,0-0.9,0c0.2-0.3,0.4-0.5,0.6-0.8c0.1,0.1,0.2,0.2,0.4,0.3   C379.8,128.1,379.7,128.3,379.5,128.4z" />
	<path display="inline" fill="#2D2927" d="M380,126.9c0.1,0.3,0.1,0.6,0.2,0.9l0,0c-0.2,0.4-0.6,0.1-0.9-0.1   C379.5,127.4,379.8,127.1,380,126.9z" />
	<path display="inline" fill="#08080A" d="M671.8,567.8c3.3,5.8,9.4,10.7,10.9,17.2c-0.6,0.1-1.2,0.2-1.8,0.4   c-1.3-4.7-13.2-15.6-10.6-18.3C670.7,567.3,671.2,567.5,671.8,567.8z" />
	<path display="inline" fill="#798FAA" d="M297.1,504.4c-3.1,0.1-5.5,0.4-8.7,0.1c2.7-1.7,6-3.3,8.7-1.4   C297.2,503.5,297.1,503.9,297.1,504.4z" />
	<path display="inline" fill="#556878" d="M313.3,505.2c1.3,1.2,3,0.8,4.9,1c-3.3,0.9-4.2,0.9-6.6-0.1   C312.3,506,313.1,506.1,313.3,505.2z" />
	<path display="inline" fill="#7F98B6" d="M313.3,505.2c-0.2,0.9-1,0.8-1.7,0.9c-0.9-0.3-1.7-0.7-2.6-1c0-0.2,0.1-0.4,0.1-0.5   C310.5,504.8,312.4,503.8,313.3,505.2z" />
	<path display="inline" fill="#465361" d="M297.1,504.4c0-0.4,0-0.9,0-1.3c0.7,0,1.4,0,2.2,0C298.9,504.2,298.2,504.6,297.1,504.4z" />
	<path display="inline" fill="#5D6779" d="M286.5,503c0.6-1.5,0.6-1.5,2.6-1.1C288,502.4,287.3,502.7,286.5,503L286.5,503z" />
	<path display="inline" fill="#7189A2" d="M304.5,503c0.5,0,1.1,0.1,1.6,0.1c0,0.1,0,0.3,0,0.4c-0.5,0-1.1,0-1.6,0   C304.5,503.3,304.5,503.2,304.5,503z" />
	<path display="inline" fill="#63768A" d="M286.6,503c-0.2,0.6-0.5,1-1.3,0.3C285.8,503.2,286.2,503.1,286.6,503L286.6,503z" />
	<path display="inline" fill="#F7E1C0" d="M441.1,28c-0.8,3.9-5.9-0.5-8.4-0.2c-0.8-0.8-1.7-1.1-2.8,0c1.8,0.5,3.3,1,5,1.9   c0,1.8-1.4,1.2-2.3,1.4l0,0c-0.3-1.3-1.4-0.5-2.3-0.8c-0.9-1.8-13.6-1.1-15.3,0.3c6.4,1.8,12.5,3,18.7,6.5   c-5.3,0.5-25.5-8.7-28.4-2.7c8.4-1.5,16.4,3.1,24.9,2.7c0.4,0.4,0.7,0.9,1.2,1.4c-0.3,0.2-0.7,0.5-1.2,0.9   c-9.1-3.2-18.5-2.5-28-2.7c-0.1-1.3-0.2-2.3-0.1-3.4c0,0,0,0,0,0c0.9-1.2,2-2.2,3.3-2.9c0.2,0,0.4,0,0.5-0.2   c0.7-0.3,1.5-0.5,2.2-0.8c0.8,0.6,1.3,2.1,2.5,1.4c4.3-1.8,8.9-3.5,13.6-3.7c2.7-1.7,5.3,0.6,8-1.9c-2.7-0.3-4.6-0.6-6.4,0.6   c-1.6,0.1-3.2-0.5-4.6,0.6c-1.6,0.2-3,0.4-4.4-0.5c12.2-4.8,26.9-9.4,37.2,1.4c-0.3,0.3-0.6,0.6-0.9,0.8c-2.7,0.5-6-2.4-8.2-0.1   C443.6,27.8,442.3,27,441.1,28z" />
	<path display="inline" fill="#D6C0A0" d="M402.2,34c0.1,0.9,0.1,1.8,0.2,2.8c3.4,1.3,7-0.9,10.3-0.2c2.6,0.8,5.2,0.5,7.8,0.6   c3.9,2.8,8.8,3.1,13.3,5.1c-6.9,8.4-19.9,2.6-27-2.8c5.5,0.2,10.8,3,16.3,2.9c-4.8-2.5-12.6-6.2-17.1-2c7.6,5.5,18.3,10.7,27.5,7.6   c0,0.5-0.1,1.1-0.1,1.6c-0.3-0.1-0.7-0.2-0.8-0.3c-3.8,2.5-7.4,3.4-11.7,4.1c-0.5,1.8-2.2,2.9-3.4,4.3c-3.3-0.5-6.1-3-8.3-5.4   c0.3-0.3,0.5-0.5,0.8-0.8c2.7,1.1,4.9,2.4,7.7,2c-3.8-1.4-6.3-3.4-9.3-5.7c0.3-0.3,0.5-0.5,0.8-0.8c4.1,1.8,6.9,4.3,11.6,5.2   c-5.3-3.4-10.1-6.3-15.4-9.1c0,0,0.1-0.1,0.1-0.1c-2.5-2.4-4.8-4.9-8.6-5.3c0.3-0.4,0.5-0.9,0.8-1.3c0.9-0.5,3.1,0.7,3.1-0.9   c0.1-0.1,0.2-0.3,0.1-0.5c0.2-0.3,0.4-0.7,0.6-1c0,0,0,0,0,0C401.8,34,402,34,402.2,34z M431,42.7c-2.4-0.1-3.7-1.6-5.6-0.7   C427,43.1,428.5,43.7,431,42.7z" />
	<path display="inline" fill="#F0DFBE" d="M414.5,22.8c9.5-3.6,22.2-8.2,32-3.9c-2.1,2.2-7.7-1.6-11.4,0.9   C428.2,19.9,420.8,24.3,414.5,22.8z" />
	<path display="inline" fill="#41362E" d="M421.5,22.7c0.7-0.1,1.4-0.1,2.1-0.2c0,0.3,0,0.5,0,0.8c-5.9,2.2-11.9,4.1-17.5,6.9   c-0.1-0.3-0.3-0.7-0.5-1.2c0.8-0.9,1.5-2,2.8-2.5C410.4,28.2,418.2,23.2,421.5,22.7z" />
	<path display="inline" fill="#C9B497" d="M421.5,22.7c-3.2,0.4-11,5.5-13.1,3.7c2.1-1.1,3.7-3.1,6.2-3.7c0.4,0.6,1,0.8,1.6,0.6   C417.8,22.4,419.6,22.7,421.5,22.7z" />
	<path display="inline" fill="#E6D7B8" d="M397.7,36.4c-1.3,2.5-4.1,3.1-6.8,3.3c0-0.6,0-1.2,0-1.8c0.5-0.5,1-1,1.5-1.6   c0.8-0.2,1.6-0.4,2.3-0.6c0,0-0.1-0.1-0.1-0.1c0.7,0,1.4,0,2.1,0.1C397.1,35.9,397.4,36.2,397.7,36.4z" />
	<path display="inline" fill="#322523" d="M443.3,17.4c-1.1-0.2-2.1-0.5-3.2-0.7c1.4-0.1,2.8-0.6,4,0.5   C443.9,17.3,443.6,17.3,443.3,17.4z" />
	<path display="inline" fill="#868B77" d="M443.3,17.4c1-0.4,2-0.1,3.1-0.1c0.1,0.2,0.1,0.4,0.2,0.5c-0.1,0.1-0.2,0.2-0.3,0.3   C445.2,18.4,444.3,18,443.3,17.4z" />
	<path display="inline" fill="#251E1A" d="M397.7,36.4c-0.3-0.3-0.6-0.5-0.9-0.8c0.7-0.1,1.3-0.2,1.7,0.6   C398.2,36.4,398,36.4,397.7,36.4z" />
	<path display="inline" fill="#C9B497" d="M416,22c-0.3,0.2-0.6,0.4-0.9,0.6C415.4,22.3,415.7,22.1,416,22z" />
	<path display="inline" fill="#251E1A" d="M400.8,35.6c0,0.5-0.2,0.9-0.8,0.8C400.3,36.1,400.5,35.9,400.8,35.6z" />
	<path display="inline" fill="#251E1A" d="M394,34.9c0.2-0.1,0.5-0.1,0.7,0c0,0.2,0,0.5,0,0.7c0,0,0.1,0.1,0.1,0.1   C394.5,35.5,394.2,35.2,394,34.9z" />
	<path display="inline" fill="#251E1A" d="M401.5,34.1c-0.2,0.3-0.4,0.7-0.6,1C401.1,34.8,401.3,34.4,401.5,34.1z" />
	<path display="inline" fill="#251E1A" d="M402.2,34c-0.2,0-0.5,0.1-0.7,0.1c0.3-0.2,0.5-0.5,0.8-0.7   C402.3,33.6,402.3,33.8,402.2,34z" />
	<path display="inline" fill="#251E1A" d="M403,32.5c-0.2,0.3-0.4,0.5-0.7,0.8C402.5,33.1,402.8,32.8,403,32.5z" />
	<path display="inline" fill="#251E1A" d="M403.7,31.8c-0.2,0.2-0.5,0.5-0.7,0.7C403.3,32.2,403.5,32,403.7,31.8z" />
	<path display="inline" fill="#251E1A" d="M404.6,31.1c-0.3,0.2-0.5,0.4-0.8,0.6C404.1,31.5,404.3,31.3,404.6,31.1z" />
	<path display="inline" fill="#251E1A" d="M405.6,30.4c-0.3,0.2-0.7,0.4-1,0.7C404.9,30.8,405.3,30.6,405.6,30.4z" />
	<path display="inline" fill="#2A241E" d="M384.2,117.1c1.1-11.4,1.4-22.8,2.2-34.2c1.7,3.4,0.3,8.2,0.7,12.1   c2.3,1.4,0.6,3.7,2.1,5.2c0,0.4,0,0.9-0.1,1.5c-0.8-0.5-1.4-0.9-2.1-1.3c-0.1-0.6-0.3-1.2-0.4-1.9c-0.3,1.9-1,4,0.3,5.6   C385.9,108.3,385.8,113.1,384.2,117.1z" />
	<path display="inline" fill="#2D2821" d="M389.3,82.2c-1.3-4.7-0.7-9.8,0.2-14.6c1.7,3.1,0.3,7.1,0.6,10.6   C388.8,79,389.6,80.9,389.3,82.2z" />
	<path display="inline" fill="#8C7965" d="M389.3,100.1c-1.5-1.5,0.1-3.8-2.1-5.2c0.5-0.5,0.9-1,1.4-1.5c0.1,0.4,0.2,0.8,0.5,1.8   c0.5-2.7,0.4-2.7-0.3-4c0.1-1,0.9-0.7,1.4-0.8C390.5,93.7,389.6,96.9,389.3,100.1z" />
	<path display="inline" fill="#5C5345" d="M387,104c-1.3-1.5-0.6-3.7-0.3-5.6C387.3,100.3,387.1,102.2,387,104z" />
	<path display="inline" fill="#2D2821" d="M390.3,92.7c-0.1-1.8-0.1-3.6-0.1-5.3C391.4,88.7,391.2,91.1,390.3,92.7z" />
	<path display="inline" fill="#2D2821" d="M391.7,84.2c0.2,0,0.4,0,0.6-0.1c0.2,1.2,0.1,2.4-0.1,4.1   C391.4,86.6,391.6,85.4,391.7,84.2z" />
	<path display="inline" fill="#2D2821" d="M390.9,81.2c1,0.8,0.9,2,0.8,3.1C389.8,83.9,390.7,82.6,390.9,81.2z" />
	<path display="inline" fill="#2D2821" d="M390,86.8c-0.8-0.7-0.7-1.6-0.6-2.5C390.5,84.9,390.1,85.9,390,86.8z" />
	<path display="inline" fill="#2D2821" d="M390.3,78.7c0.2,0.6,0.4,1.2,0.5,1.8C390,80.1,390.1,79.4,390.3,78.7z" />
	<path display="inline" fill="#1D1A16" d="M454.1,27.2c-2.8-3.2-6.9-4.5-10.6-6.2c0.5-0.3,1.1-0.5,1.6-0.8c1.7,0.6,3.5,1.2,5.2,1.8   c0.3,0.6,0.8,0.8,1.4,0.3c-0.2-0.4-0.4-0.8-0.7-1.3c0.3,0,0.5,0,0.8,0c3.9,3.3,8.5,5.5,9.8,10.9c-1.1-0.6-2.1-1.1-3.3-1.7   c-0.3,0.1-0.6,0.2-1,0.4C456,29.7,455.8,27.8,454.1,27.2z" />
	<path display="inline" fill="#ADA38B" d="M457,24.9c-2.1-0.8-3.6-2.4-5.3-3.8c0.3-0.2,0.5-0.5,0.8-0.7c1.6,1.3,3.3,2.4,4.4,4.1   C456.9,24.6,456.9,24.8,457,24.9z" />
	<path display="inline" fill="#1D1A16" d="M457,24.5c-0.3-0.3-0.5-0.7-0.8-1C456.8,23.6,457,23.9,457,24.5z" />
	<path display="inline" fill="#868B77" d="M452.6,20.4c-0.3,0.2-0.5,0.5-0.8,0.7c-0.3,0-0.5,0-0.8,0c0,0,0,0.1,0,0.1   c-0.5-0.6-1.6-2.4-2.2-0.9c-0.8-0.5-1.6-1-2.4-1.4c0-0.2,0-0.4-0.1-0.6c0.1-0.1,0.2-0.2,0.3-0.3C448.7,18.4,450.9,18.8,452.6,20.4z   " />
	<path display="inline" fill="#7284A0" d="M605.6,576.1c-0.7-0.5-1.3-1-2.2-1.6c0.3-0.5,0.7-1,0.9-1.4c1.2-0.1,1.7,0.6,2.1,1.4   C606.3,575.2,606.5,575.9,605.6,576.1z" />
	<path display="inline" fill="#51586B" d="M605.6,576.1c0.9-0.2,0.8-0.9,0.8-1.6c1.2,1.5,1,2.9-0.5,4.8   C605.8,577.9,605.7,577,605.6,576.1z" />
	<path display="inline" fill="#080707" d="M349.1,446c-0.3-0.3-0.6-0.6-1-0.9c0.1-0.1,0.2-0.3,0.2-0.5c4-2.7,7.2-6.7,11.5-9.1   c4.2-11,14.7-17.9,22.5-26.2c0.9,0.3,0.8,1.1,1,1.8C370.1,421.4,364.3,438.2,349.1,446z" />
	<path display="inline" fill="#DDC2B2" d="M354.9,439c-2.4,1.7-4,4.3-6.6,5.6c0-1.4,0.1-2.8-0.8-4c0.1-0.7,0.2-1.3,0.3-2.1   c-0.3,0-0.6,0-0.9,0c0.4-1.1,0.3-2.4,1.3-3.3c0.1,0.7,0.2,1.3,0.3,2c0.9-1.2,2.1-2.6,0.6-3.6c1.2-1.3,2.6-1.7,4.5-1.2   c0.5,0.9,1.1,1.8,1.7,2.8C354.9,436.5,353.6,438.1,354.9,439z" />
	<path display="inline" fill="#181211" d="M323.1,432.2c3.4-2.3,6.2-6.3,10.6-6.3c0.3,0.6,0.6,1.2,0.8,1.7   c-3.7,1.9-7.2,3.6-10.7,5.3C323.7,432.8,323.4,432.5,323.1,432.2z" />
	<path display="inline" fill="#28211E" d="M346.8,438.5c0.3,0,0.6,0,0.9,0c-0.2,3.6-2.6,6.3-4.9,9c-0.5-0.1-0.9-0.2-1.6-0.4   C343.2,444.2,345,441.3,346.8,438.5z" />
	<path display="inline" fill="#342825" d="M369,418.5c-1,3.4-4.3,3.1-7.2,5.4C362.8,420.8,365.7,418.8,369,418.5z" />
	<path display="inline" fill="#302926" d="M319.3,435.2c0.8-0.2,1.6-0.5,2.3-0.7c0.4,2.4-1.9,3.3-3.7,4c-0.3-0.1-0.6-0.1-1-0.2   C317.7,437.3,318.5,436.2,319.3,435.2z" />
	<path display="inline" fill="#362F2C" d="M311.6,443.6c0.1-2.5,1.7-3.6,3.8-4c0,0.4,0.1,0.7,0.1,1.1c-1,1-2,2-3.1,3   C312.2,443.7,311.9,443.6,311.6,443.6z" />
	<path display="inline" fill="#5A4C45" d="M352,400.9c-1.4,0.7-1.2,2.3-2.2,3.1l0.1,0.1c-0.1-1.9-0.5-4,2-5.1   c0.1,0.4,0.3,0.9,0.4,1.3C352,400.4,352,400.6,352,400.9z" />
	<path display="inline" fill="#242D2A" d="M351.5,426.2c-0.5,1.1-0.8,1.8-1.1,2.6C348.9,428,349.2,426.4,351.5,426.2z" />
	<path display="inline" fill="#3E3632" d="M349,433.6c1.6,1,0.4,2.4-0.6,3.6c-0.1-0.7-0.2-1.3-0.3-2   C348.4,434.7,348.7,434.2,349,433.6z" />
	<path display="inline" fill="#413935" d="M306.1,449.7c0-1.7,0.9-2.5,2.8-2.1c-0.8,1-1.3,1.6-1.8,2.2   C306.8,449.7,306.5,449.7,306.1,449.7z" />
	<path display="inline" fill="#6D6059" d="M315.6,440.7c0-0.4-0.1-0.7-0.1-1.1c0.5-0.4,1-0.9,1.5-1.3c0.3,0.1,0.6,0.1,1,0.2   C317.2,439.2,316.4,439.9,315.6,440.7z" />
	<path display="inline" fill="#7B766E" d="M323.1,432.2c0.3,0.3,0.5,0.5,0.8,0.8c-0.5,0.9-1.3,1.4-2.4,1.4   C322.1,433.8,322.6,433,323.1,432.2z" />
	<path display="inline" fill="#797169" d="M306.1,449.7c0.4,0,0.7,0,1.1,0.1c-0.3,0.5-0.6,0.9-1,1.4   C305.4,450.6,305.6,450.1,306.1,449.7z" />
	<path display="inline" fill="#897F75" d="M311.6,443.6c0.3,0,0.6,0,0.9,0.1c-0.3,0.5-0.7,0.9-1.1,1.4   C310.7,444.4,311,444,311.6,443.6z" />
	<path display="inline" fill="#522F2B" d="M355.9,388.7c0-0.4,0.1-0.9,0.1-1.4c0.8,0.5,0.4,1,0.3,1.4   C356.3,388.6,356,388.6,355.9,388.7z" />
	<path display="inline" fill="#DDC2B2" d="M356.8,437.6c-0.3,0.2-0.6,0.4-0.9,0.6C356.2,438,356.5,437.8,356.8,437.6z" />
	<path display="inline" fill="#DDC2B2" d="M355.8,438.3c-0.3,0.2-0.5,0.4-0.8,0.6C355.3,438.7,355.6,438.5,355.8,438.3z" />
	<path display="inline" fill="#181513" d="M444.9,449.1c0.4-4-0.8-8,0-12C449.3,436.4,447.4,447.9,444.9,449.1z" />
	<path display="inline" fill="#63524C" d="M444,459.6c0,0.9,0,1.7,0,3.3c-0.6-1.4-1-2-1.3-2.8C443.2,459.9,443.5,459.8,444,459.6z" />
	<path display="inline" fill="#B6A093" d="M444.5,454.7c-0.6-0.9-0.5-1.6,0.7-1.9C445.9,453.9,445.4,454.4,444.5,454.7z" />
	<path display="inline" fill="#3E3330" d="M441.5,468.2c1.2,0.9,0.8,1.7-0.1,2.8C441,469.9,440.7,469.1,441.5,468.2z" />
	<path display="inline" fill="#DCC4B3" d="M479.7,187.2c2.7,0.2,5.1,1.1,7.1,2.9c-0.4,1.7,1.8,1.8,1.5,0c1.4,0.6,0.6,1.7,0.7,2.7   c-12.3,2.8-20.4-5.9-9.7-5.7c-0.8,0.6-1.6,1.3-0.6,2.7c1.4,0.5,2.9,1.4,5,0.8C482.3,189.5,481,188.4,479.7,187.2z" />
	<path display="inline" fill="#241A18" d="M404.6,146c1.6,1.9,3.6,3.2,6,4c-0.8,1.1-2.1,0.2-3,0.6c-2.6-0.9-4.7-2.3-5.4-5.2   c0.8-0.1,1.3-0.1,1.7-0.1C404,145.5,404.3,145.8,404.6,146z" />
	<path display="inline" fill="#1B1311" d="M479.7,187.2c1.3,1.1,2.6,2.2,4.1,3.5c-2.1,0.5-3.6-0.4-5-0.8c-1-1.3-0.3-2,0.6-2.7   C479.5,187.3,479.6,187.3,479.7,187.2z" />
	<path display="inline" fill="#100707" d="M417.5,122.3c0.2,0.3,0.5,0.7,1,1.5c-1.9-0.3-3.3-0.6-4.7-0.8c0-0.4,0-0.9,0-1.3   C415.1,121.6,416.3,122,417.5,122.3z" />
	<path display="inline" fill="#B8AA9C" d="M413.8,121.7c0,0.4,0,0.9,0,1.3c-1,0.2-1.7,0-2.2-1.3   C412.5,121.7,413.1,121.7,413.8,121.7z" />
	<path display="inline" fill="#958075" d="M488.3,190.2c0.4,1.8-1.8,1.7-1.5,0C487.3,190.1,487.8,190.2,488.3,190.2z" />
	<path display="inline" fill="#8A756B" d="M494,190.7c-1.5,0.1-2.2,0.1-3,0.2c0-0.2,0-0.3-0.1-0.5C492.3,189.9,492.2,190,494,190.7z   " />
	<path display="inline" fill="#975E57" d="M409.1,122.6c-0.4,0.9-1.9,1.1-1.7,0C407.8,122.1,408.4,122.5,409.1,122.6z" />
	<path display="inline" fill="#B8AA9C" d="M417.5,122.3c-0.8-0.2-1.6-0.4-2.4-0.5C416,121.5,416.9,121.3,417.5,122.3z" />
	<path display="inline" fill="#EF8A6A" d="M407.6,288.3c7.3,3.3,15.2,5.8,20.7,12.2c-7.9-2.2-14.9-5.2-22.1-7.5l-0.1-0.2   C406.7,291.4,406.8,289.7,407.6,288.3z M412.3,293.6c0.2-0.2,0.3-0.4,0.5-0.6c-1.2-1.5-2.7-2.3-5.5-2.3   C409.4,291.9,410.9,292.8,412.3,293.6z" />
	<path display="inline" fill="#3E241C" d="M407.6,288.3c-0.9,1.4-1,3.1-1.5,4.6c-0.3,0.2-0.7,0.3-1.1,0.5c-0.3-3.2,1.7-5.9,1.8-9.1   c-1.7-0.7-3.4-1.5-5.1-2.2c1-1.7,3.7,0.2,5.1,0.3c0.9-0.7,1.6-1.2,2.5-2c0.1,1,0.1,1.6,0.2,2.4c1.3,0.6,2.6,1.2,4,1.8   c0,0.5,0,0.8,0,1.2c-0.1,0-0.3,0-0.4,0.1c-1.5-0.4-2.6-0.8-4.2-1.4C408.3,285.8,407.7,287,407.6,288.3z" />
	<path display="inline" fill="#ED896A" d="M444.9,315.5c-0.3,0.1-0.5,0.1-0.8,0.2c-0.1-2,1.2-3.6,2.1-5.3c0.1,0.4,0.2,0.9,0.4,1.4   c0.8-0.6,1.4-1,2.1-1.5c1.6,1.2,3.4-1.4,5.2-0.3c-1.1,2.7-4.9,4.2-7.6,5.6C446.7,313.9,444.9,314,444.9,315.5z" />
	<path display="inline" fill="#35231D" d="M396.8,318.7c0-1.9,0.8-3.6,2.3-5.9c0.6,3.3-0.6,4.6-1.5,7.4   C397.3,319.7,397.1,319.2,396.8,318.7z" />
	<path display="inline" fill="#7E5142" d="M396.8,318.7c1.5,2.2,0.4,4.8-0.5,7.1c-0.3-0.3-0.6-0.6-0.9-0.9   C395.9,322.8,395.7,320.5,396.8,318.7z" />
	<path display="inline" fill="#442C24" d="M401.6,300.6c0.7-0.5,0.6-2.1,2.1-1.5c-0.5,1.8-1.1,3.5-1.6,5.3c-0.1,0-0.2,0-0.3,0   C401.7,303.2,401.7,301.9,401.6,300.6z" />
	<path display="inline" fill="#B9745C" d="M452.4,301.9c-1.2,1.4-1.2,1.4-2.9,1.9C450,302.5,451,302.3,452.4,301.9z" />
	<path display="inline" fill="#744A3C" d="M448.7,310.3c-0.6,0.5-1.3,0.9-2.1,1.5c-0.1-0.6-0.2-1-0.4-1.4c0.3-0.3,0.6-0.5,0.9-0.8   c0.5,0,1,0,1.5,0.1C448.7,309.9,448.7,310.1,448.7,310.3z" />
	<path display="inline" fill="#6F4435" d="M444.9,315.5c0-1.5,1.8-1.6,1.4,0.2c-0.4,0.3-0.9,0.6-1.3,0.9   C445,316.2,445,315.9,444.9,315.5z" />
	<path display="inline" fill="#281813" d="M395.5,324.9c0.3,0.3,0.6,0.6,0.9,0.9c-0.1,0.5-0.2,0.9-0.4,1.5   C394.3,326.6,395.1,325.7,395.5,324.9z" />
	<path display="inline" fill="#EC8969" d="M435.7,327.9c0.1,0.9,0.3,1.8-0.6,2.4C435.1,329.4,434.7,328.5,435.7,327.9z" />
	<path display="inline" fill="#ED896A" d="M448.7,309.7c-0.5,0-1,0-1.5-0.1C447.8,308.7,448.3,308.7,448.7,309.7z" />
	<path display="inline" fill="#EF8A6A" d="M411.5,285.5c0.5,0.2,1.1,0.3,1.6,0.5C412.5,286.1,411.9,286.2,411.5,285.5z" />
	<path display="inline" fill="#EC8969" d="M435.1,330.2c-0.2,0.3-0.5,0.6-0.7,0.8C434.6,330.8,434.9,330.5,435.1,330.2z" />
	<path display="inline" fill="#0F1013" d="M553.2,557c-5.6,0.1-5-6.6-0.9-8.5C559.4,545.4,561.3,557.4,553.2,557z M554.6,554.7   c0.5-0.8,1.1-1.6,1.6-2.3c-0.8-1.3-1.8-2.2-3.2-2.8c-2,1.6-0.8,4.3,1.6,4.3C554.5,554.3,554.6,554.5,554.6,554.7   c-0.4,0.1-0.9,0.1-1.6,0.2C553.9,555.7,554.3,555.5,554.6,554.7z" />
	<path display="inline" fill="#09090A" d="M551.9,513c-4.1-2.7-4.8-8.3,1.1-8.2C558.7,506.1,557.4,513.3,551.9,513z M554.5,509.2   c-2-2.9-2.6-3.8-3.5-2c1.4,0.9,1.4,0.9,2.3,3.3C553.8,510,554.2,509.6,554.5,509.2z" />
	<path display="inline" fill="#1C1E24" d="M575.6,528.8c1.7-2.9,1-5.9,1.5-8.7c3.4,0,2.3,8.3-0.3,9.4   C576.5,529.3,576.2,529.1,575.6,528.8z" />
	<path display="inline" fill="#4D5463" d="M576.6,509.9c-1-1-0.4-1.9,0.6-1C577.1,509.2,576.9,509.5,576.6,509.9z" />
	<path display="inline" fill="#444753" d="M577.2,516.3c0.6,2-1,2.1-0.4,0C576.9,516.3,577.1,516.3,577.2,516.3z" />
	<path display="inline" fill="#4E4C5A" d="M577,511c0.5,1.6,0.1,2.2-0.7,1.7C576.4,512.3,576.6,512,577,511z" />
	<path display="inline" fill="#130605" d="M574.1,199.9c1.2-0.5,2.4-1.2,3.7-1.3c1.6,2.3-2.4,1.6-3.5,1.8   C574.2,200.3,574.2,200.1,574.1,199.9z" />
	<path display="inline" fill="#505951" d="M407.5,150.6c1-0.4,2.2,0.5,3-0.6c1.1,0.2,2.1,0.4,3.2,0.6c0,0-0.1-0.1-0.1-0.1   C411.7,152,409.6,151.6,407.5,150.6z" />
	<path display="inline" fill="#40302C" d="M421.3,151.2c-1,0-1.8,0-3,0C419.5,150.1,420.3,150.3,421.3,151.2z" />
	<path display="inline" fill="#572925" d="M413.7,150.6c0.4-1.2,1.1-1,2.2-0.1C415,150.5,414.3,150.5,413.7,150.6L413.7,150.6z" />
	<path display="inline" fill="#60554D" d="M571.3,201.3c-0.4,0-0.8,0-1.2,0c0-0.1,0-0.2,0-0.4c0.4,0,0.8,0,1.2-0.1   C571.3,201,571.3,201.2,571.3,201.3z" />
	<path display="inline" fill="#010000" d="M423.1,182.4c0-0.3,0-0.7,0-1c0.1,0,0.1,0,0.2,0c0,0.3,0,0.7,0,1   C423.3,182.4,423.2,182.4,423.1,182.4z" />
	<path display="inline" fill="#514943" d="M441.1,257.9c1.6,2,0.3,5,1.5,7.4c0.2,0.6,0.3,1.5-0.8,1.7c-0.5-1.5-1.1-3-1.6-4.6   c0,0,0.4-0.1,0.4-0.1C441.6,261,440.9,259.4,441.1,257.9z" />
	<path display="inline" fill="#463B36" d="M442.8,202.1c-0.8-0.8-2.3-0.9-2.2-2.5c0.6-0.8,1.2-0.4,1.9-0.2   C442.8,200.3,444.1,201.5,442.8,202.1z" />
	<path display="inline" fill="#62514B" d="M438.9,251.2c1.7,1.7,1.6,1.9,0.8,3.6c-0.3-0.3-0.5-0.6-0.8-0.9   C438.9,253,438.9,252.1,438.9,251.2z" />
	<path display="inline" fill="#706A61" d="M442.6,209.9c-0.5,1-3.1,0.1-3.8-0.8c0.6,0,1.3,0.2,1.5-0.7   C441.2,208.8,442,209.2,442.6,209.9z" />
	<path display="inline" fill="#4C453F" d="M445.1,203.3c1.8-0.6,2.5,0.2,1.7,1.1C446.4,204.2,445.9,203.9,445.1,203.3z" />
	<path display="inline" fill="#E0C6B5" d="M438.9,253.9c0.3,0.3,0.5,0.6,0.8,0.9C439.4,254.5,439.2,254.2,438.9,253.9z" />
	<path display="inline" fill="#1C1816" d="M349.1,407.1c-0.6,3.2-2.2,6.3-5.2,7.7c-0.7-3.5,2.9-5.6,4.4-8.5   C348.5,406.6,348.8,406.9,349.1,407.1z" />
	<path display="inline" fill="#5D4C46" d="M349.1,407.1c-0.3-0.3-0.5-0.5-0.8-0.8c0.3-0.9,0.5-1.9,1.5-2.3l-0.1-0.1   C349.9,405.1,350,406.2,349.1,407.1z" />
	<path display="inline" fill="#6B574F" d="M354.3,394.2c-0.3-0.1-0.7-0.1-1-0.2c-0.2-0.7,0.1-1.1,0.9-1.2   C354.3,393.3,354.3,393.7,354.3,394.2L354.3,394.2z" />
	<path display="inline" fill="#2E1A14" d="M410.6,271.5c1.6-2.5,2-5.8,4.5-7.6c0.4,3.3-2.5,5.6-3.7,8.4   C411.2,272.1,410.9,271.8,410.6,271.5z" />
	<path display="inline" fill="#9C5E49" d="M410.6,271.5c0.3,0.3,0.6,0.6,0.9,0.8c-0.7,1.4-1.4,2.9-2.1,4.3   C407.2,276.3,410.4,272.9,410.6,271.5z" />
	<path display="inline" fill="#1A0A08" d="M385.7,311.7c-1.9,0.5-3.5,0.5-5.5,0C382.2,310.2,383.5,310.4,385.7,311.7z" />
	<path display="inline" fill="#B5624C" d="M403.1,281.4c-0.5,0.1-1.2-0.1-1.4,0.7c-0.9-0.1-1.4-0.6-1.7-1.4l0,0   C401.1,280.8,402.3,280.2,403.1,281.4z" />
	<path display="inline" fill="#B5624C" d="M400,280.7c-0.4-0.1-0.7-0.1-1.2-0.2C399.5,279.7,399.7,280.2,400,280.7L400,280.7z" />
	<path display="inline" fill="#3F2C27" d="M278.6,542.2c-0.4,1-0.9,1.6-2.1,0.8C277,542,277.4,541.4,278.6,542.2z" />
	<path display="inline" fill="#3D332F" d="M437.5,420.2c-1.8-2.2,0.4-5.6,0.3-8.3C440.2,414.5,440,417.9,437.5,420.2z" />
	<path display="inline" fill="#3C332E" d="M437.7,408.5c-0.8-5.1-0.8-5.1,0.6-6.6C438.9,403.8,438.9,403.8,437.7,408.5z" />
	<path display="inline" fill="#220C0B" d="M440.3,208.4c-0.2,0.9-0.9,0.7-1.5,0.7c-0.1-0.4-0.2-0.8-0.4-1.2   C439.2,207.7,439.8,207.9,440.3,208.4z" />
	<path display="inline" fill="#1B1C22" d="M599.5,344.6c-0.6,0-1.2,0-1.7,0c-1.2-1.8-0.4-2.9,0.9-3.8c0.6,0.1,1.2,0.1,2,0.2   C600.8,342.5,599.8,343.5,599.5,344.6z" />
	<path display="inline" fill="#687389" d="M598.7,221.4c0.3-1-0.5-2.3,0.8-3c0.1,2.7,1.2,5.5,0.5,8.2c-1.4-1-1.4-1-0.6-3.8   C599.1,222.3,598.9,221.8,598.7,221.4z" />
	<path display="inline" fill="#1C1E25" d="M599.5,251.9c-1.1,0-1.9-0.3-2.2-1.7c0.5-0.6,1-1.3,1.6-2c0.4,0,0.7,0,1.2,0   C600.5,249.5,600.3,250.7,599.5,251.9z" />
	<path display="inline" fill="#161519" d="M599.4,435.9c-0.6,0-1.2,0-2.1,0c-0.1-1.9,1-3.2,2.9-2.9C600,434,599.7,434.9,599.4,435.9   z" />
	<path display="inline" fill="#121317" d="M598,492.1c0.2-1.5-1.1-4.1,0.6-4.9C598.8,488.7,600.4,491.6,598,492.1z" />
	<path display="inline" fill="#798BB2" d="M599.5,212.2c0,0.9,0,1.7,0,2.7c-1.8-1.3-2-2.8-0.7-5   C598.8,210.7,598.2,211.7,599.5,212.2z" />
	<path display="inline" fill="#404553" d="M599.5,212.2c-1.2-0.4-0.6-1.4-0.7-2.2C600,210.4,599.4,211.4,599.5,212.2z" />
	<path display="inline" fill="#1E1917" d="M417.5,57.7c1-1.1,2-2.2,3-3.2c0.8-0.2,1.4-1.2,2.3-0.6c0,0.3,0,0.7,0,1   c-1.7,0.6-2.7,1.8-3,3.6c-5.2,4.2,4.1,7.6,2.2,13.1c1.1-1.1,1.9-1.8,2.6-2.6c0.8,2.6,0.6,3.1-2.4,4.5c-3-2.2-1.3-7.2-5.4-8.9   c-1.4-0.4,0-1.2-0.2-1.8c-0.2-0.9-0.3-1.9-0.5-2.8C417,59.5,417.6,58.8,417.5,57.7z" />
	<path display="inline" fill="#171412" d="M428.1,75.3c0,2.1,1.6,3.4,2.3,5.2c0,0,0,0,0,0c0.1,1.3,0.1,2.2,0.2,3.7   c1.2,0,1.9-0.1,2.9,0.1c-0.3,0.3-0.6,0.7-0.9,0.7c-1.4-0.2-1.6,1.3-2.1,2.3c-0.3-3.8-1.8-6.8-3.9-9.8c0.1-0.6,0.1-1.2-0.6-1.6   c0-0.8,0-1.5,0-2.3c0.2-0.3,0.4-0.6,0.5-0.8l0,0c0.2,0.1,0.5,0.1,0.7,0.1C427.6,73.7,427.9,74.5,428.1,75.3z" />
	<path display="inline" fill="#2F2723" d="M425.1,63.8c1.8,1.6-0.4,3-1.8,3.5c-1.3-1.4-2.4-2.7-3.4-4.3c0.2-0.2,0.4-0.5,0.6-0.7   c0.8,0.7,1.6,1.5,2.3,2.2c0.1-1-0.1-1.8,0.8-2.3C424,62.7,424.5,63.2,425.1,63.8z" />
	<path display="inline" fill="#5A4E44" d="M416.7,62.9c0.2,0.6-1.1,1.3,0.2,1.8c-0.1,0.9-0.2,1.8-0.2,2.8c-0.4,0-0.7-0.1-1.3-0.2   c0.4-2.9-1.8-4.7-2.5-7.2c0.3,0,0.6,0,0.9,0C414.7,60.9,415,63.2,416.7,62.9z" />
	<path display="inline" fill="#51473E" d="M413,73.6c-0.5-1.5-1-3-1.5-4.5c0,0,0,0,0,0c1.4,1.7,4.5,3.3,3.5,5.9   C414.3,74.5,413.6,74.1,413,73.6z" />
	<path display="inline" fill="#3F3934" d="M430.5,87.3c0.2-0.5,0.5-1.1,0.7-1.6c1.2,1.7,0.5,3.8,1,5.9   C430.8,90.7,430.9,88.9,430.5,87.3z" />
	<path display="inline" fill="#928176" d="M432.4,94.2c1.6,0.5,1.2,1.6,0.9,2.7C431.9,96.3,431.7,95.5,432.4,94.2z" />
	<path display="inline" fill="#8E7B71" d="M433,99.3c0.8-0.2,0.8,0.7,1.2,1.2c-0.3,0.1-0.6,0.2-0.9,0.4   C433.2,100.3,432.6,99.7,433,99.3z" />
	<path display="inline" fill="#9B8D81" d="M419.8,63c0.5,0.7,1.1,1.5,1.6,2.2c-1.4,0.3-2.4-0.9-2.4-2.2C419.3,63,419.5,63,419.8,63z   " />
	<path display="inline" fill="#A48E83" d="M434.3,106.4c0-0.3,0.1-0.7,0.2-1.4c0.5,0.3,0.8,0.5,1.4,1   C435.1,106.2,434.7,106.3,434.3,106.4C434.3,106.4,434.3,106.4,434.3,106.4z" />
	<path display="inline" fill="#38302B" d="M426,75.9c0.7,0.4,0.6,1,0.6,1.6C426.4,77,426.2,76.5,426,75.9z" />
	<path display="inline" fill="#38302B" d="M427.3,72.9c-0.2,0-0.5,0-0.7-0.1c0.1-0.4,0.1-0.8,0.2-1.3c0.1,0,0.3,0,0.4,0   C427.2,72,427.3,72.5,427.3,72.9z" />
	<path display="inline" fill="#38302B" d="M426.6,72.8c-0.2,0.3-0.4,0.6-0.5,0.8C426.2,73.4,426.4,73.1,426.6,72.8z" />
	<path display="inline" fill="#2D211F" d="M430.5,545c-0.5,0-0.9-0.1-1.6-0.1c0.2-1.7,0.7-3,2.2-3.7   C431.5,542.6,431.3,543.8,430.5,545z" />
	<path display="inline" fill="#39312D" d="M431.2,537.2c-0.4,0-0.7,0-1.1,0c-0.3-1,0-1.7,1.1-2.3   C431.2,535.8,431.2,536.5,431.2,537.2L431.2,537.2z" />
	<path display="inline" fill="#332C28" d="M431.9,531.1c-1.2-0.6-1.1-1.2-0.3-2.1C432.5,529.7,431.9,530.4,431.9,531.1L431.9,531.1z   " />
	<path display="inline" fill="#B7A488" d="M386.2,83.5c-0.2,5.6-0.4,11.2-0.8,16.7c-0.2,0-0.4,0-0.6,0.1c0-8.1-0.5-16.4,0.2-24.4   C386.4,78.2,384.6,81.3,386.2,83.5z" />
	<path display="inline" fill="#51473B" d="M387.2,88.3c-0.4-1.7,0.6-4.1-0.8-5.4c0.5-2.7-1.3-7.1,1-8.9   C388.1,78.3,388.1,83.8,387.2,88.3z" />
	<path display="inline" fill="#484035" d="M390.2,70.8c0-1.2,0-2.3-0.8-3.2c0.2-3.2,1.4-6.1,2.2-9.1c0.3,0.3,0.5,0.5,0.8,0.8   C391.6,63,391.6,67.2,390.2,70.8z" />
	<path display="inline" fill="#E9D4B5" d="M394,49.3c1.1-1.9,1.9-3,3.6-4.6c0.3,2.1,0.2,3.6,0.1,5.2c-1.3,0-2.8,1.2-3.8,0   C393.8,49.7,393.9,49.5,394,49.3z" />
	<path display="inline" fill="#342F27" d="M387.7,62.1c0.8-2.5,1.7-5,2.5-7.5c2,2.3-1.4,6.3-1.6,9.1   C387.6,63.5,387.9,62.7,387.7,62.1z" />
	<path display="inline" fill="#574C40" d="M390.9,56.2c-0.1-0.6,0-1.3-0.7-1.6c1-2,2-4.1,3-6.1c0.3,0.2,0.5,0.5,0.8,0.7   C393.1,51.7,392,54,390.9,56.2z" />
	<path display="inline" fill="#6E6554" d="M387.7,62.1c0.2,0.6,0,1.4,0.9,1.6c-0.5,1.5-1,3-1.6,4.5c-0.2,0.1-0.4,0.1-0.6,0.1   C386,66.1,386.8,64.1,387.7,62.1z" />
	<path display="inline" fill="#83715E" d="M392.5,59.2c-0.3-0.3-0.5-0.5-0.8-0.8c0.3-0.9,0.5-1.9,0.8-2.8   C394.7,55.9,392.8,58.1,392.5,59.2z" />
	<path display="inline" fill="#B7A488" d="M386.3,68.3c0.2,0,0.4,0,0.6-0.1c-0.3,0.9-0.5,1.8-0.8,2.9   C385.2,69.9,385.2,69,386.3,68.3z" />
	<path display="inline" fill="#5F5547" d="M388.7,91.3c0.7,1.3,0.8,1.3,0.3,4C388.4,93.4,388.5,92.9,388.7,91.3z" />
	<path display="inline" fill="#B7A488" d="M384.7,67c-1.4-0.7-1.5-0.8-0.7-2.6c0.2,0.6,0,1.4,0.8,1.7   C384.7,66.4,384.7,66.7,384.7,67z" />
	<path display="inline" fill="#110E0B" d="M409.2,52.3c0.5,0.5,1,1.1,1.5,1.6c-0.3,0.3-0.6,0.6-0.9,0.9c-4.3-3-7.1-6.9-7.6-12.3   c0.3-0.5,0.6-1.1,0.8-1.6c0.8,0.7,1.6,1.4,2.4,2.1c-2.5,2.5,6.3,6.7,8.1,8.6c-0.5,0.2-1,0.5-1.5,0.7c-1.6-0.6-2.8-1.2-4.3-2.3   C407.6,51.5,408.3,52,409.2,52.3z" />
	<path display="inline" fill="#3E362D" d="M409.2,63.7c-2.3-3.6-6.3-5.7-6.8-10.2c5.2,5.2,9.3,10.4,13.3,16.7   c-0.4,0.1-0.7,0.2-1.1,0.3C412.8,68.3,411.3,65.7,409.2,63.7z" />
	<path display="inline" fill="#655749" d="M409.8,54.8c0.3-0.3,0.6-0.6,0.9-0.9c2.2,1.5,4.1,3.5,6.9,3.8c0.1,1.1-0.5,1.8-1.4,2.4   c-0.2-1.7-1.6-1.9-3.3-2.5c0.4,1.1,0.7,1.8,0.9,2.4c-0.5,0-1,0-1.5,0l0,0.1c-0.1-0.6,0-1.3-0.8-1.6l0,0   C412,56.7,410.6,55.9,409.8,54.8z" />
	<path display="inline" fill="#54483C" d="M411.4,69.1c-0.4,0.2-0.9,0.4-1.5,0.8c-2.1-1.4-8.1-7.8-6.2-9.8   C405.7,63.5,407.8,67.1,411.4,69.1C411.4,69.1,411.4,69.1,411.4,69.1z" />
	<path display="inline" fill="#B7A388" d="M411.4,69.1c-0.8-0.5-1.5-1-2.3-1.5c1.6-1.4-1.1-2.5,0-3.8c2.1,1.9,3.6,4.5,5.4,6.8   c-0.3,0.3-0.6,0.6-0.9,0.8C413,70.6,412.2,69.8,411.4,69.1z" />
	<path display="inline" fill="#95856F" d="M412.2,59.9c0,0.4-0.1,0.7-0.1,1c-1.2,0.7-2-1.3-2-3c0.5,0.2,0.9,0.3,1.4,0.5c0,0,0,0,0,0   C411.4,59.1,411.4,59.7,412.2,59.9C412.2,60,412.2,59.9,412.2,59.9z" />
	<path display="inline" fill="#1A1513" d="M251.7,500c-0.7,1.9-2.8,3-4,4.6c-0.9,0-1.8,0-2.2-1.3c1.3-2.2,3.3-3.7,6-4.9   C251.7,499,251.7,499.5,251.7,500z" />
	<path display="inline" fill="#2E2220" d="M441.1,257.9c-0.2,1.5,0.5,3.1-0.5,4.5C440.3,261.5,439.8,257.1,441.1,257.9z" />
	<path display="inline" fill="#748FA5" d="M586.6,505.3c0-0.6,0-1.2,0-1.8c0.1,0,0.3,0,0.4-0.1c0.1,0.6,0.2,1.2,0.3,1.8   C587.2,505.2,586.8,505.3,586.6,505.3z" />
	<path display="inline" fill="#1B2028" d="M580.5,497.7c0.7-0.6,1.4-0.6,2.2,0c0,1,0.5,2.1-0.6,2.9c-0.7-0.4-1.2-0.9-1.6-1.5   C580.5,498.6,580.5,498.2,580.5,497.7z" />
	<path display="inline" fill="#09080A" d="M585.4,500.4c-1.1-0.2-1.2-2.1,0.3-1.8C585.5,499.2,585.9,500.2,585.4,500.4z" />
	<path display="inline" fill="#697798" d="M581.2,500c0.3,0.2,0.6,0.4,0.9,0.6C581.8,500.4,581.5,500.2,581.2,500z" />
	<path display="inline" fill="#697798" d="M580.5,499.1c0.2,0.3,0.4,0.6,0.7,0.9C581,499.7,580.7,499.4,580.5,499.1z" />
	<path display="inline" fill="#CFBEA3" d="M398.2,38c0.6,0.2,1.2,0.4,1.8,0.6c-0.5,1.1-0.9,2.2-1.4,3.3c-0.1-0.8-0.2-1.6-1.2-1.9   C398.1,39.5,398.9,39.1,398.2,38z" />
	<path display="inline" fill="#DDC6A6" d="M430.5,39.4c0.4-0.3,0.9-0.7,1.2-0.9c-0.5-0.6-0.8-1-1.2-1.4c0,0,0,0,0,0   c0.9,0,1.7,0,3.5,0c-6.2-3.6-12.4-4.8-18.7-6.5c1.6-1.4,14.4-2.1,15.3-0.3c-0.8,1.6,2.1,1.5,2.5,2.8c-0.5,0.2-1,0.3-2,0.7   c2.5,1.1,3.9,1.4,6.3,2c-0.8,1.3-2.8,1.1-3.5,2.8c1.8,0.3,2.9-0.9,4.3-1.1c0,0.4,0,0.9-0.1,1.3c-1.1-0.2-1.8,0.3-2.3,1.2   C433.9,40.3,432.1,40.6,430.5,39.4z" />
	<path display="inline" fill="#4A3B32" d="M433.5,47.9c-3.1,1.5-6.8,1.6-10-0.1c1.2-0.1,2.3-0.2,3.5-0.3c-1.4-0.4-2.9-1.2-4.1,0.1   c-3.5-0.2-6.8-1.4-9.8-3.1c0.2-0.8,0.9-0.6,1.5-0.8c5.6,2.5,13.5,4.3,18.3-0.5c-0.1,0.7-0.1,1.4-0.5,2.1c0.4-0.3,0.8-0.5,1.2-0.8   c0,0-0.1,0-0.1,0c0.6,0.3,1.1,0.7,1.5,1.2c0,0.3,0,0.7,0,1C434.5,47.3,434,47.6,433.5,47.9z M428.3,47.5c2.3,0.1,2.3,0.1,3.4-1.3   C430.5,46.7,429.6,47,428.3,47.5z" />
	<path display="inline" fill="#27211F" d="M453.9,56.1c2.1-2.9,5.6-2.8,8.9-3.6c-0.3,1.5-1.5,1.8-2.7,2.6c-0.1,1.7-1.8,3.2-1.2,5.5   c-1.9,0-3.2-1.4-4.7-2.1c0.2-0.3,0.5-0.5,0.7-0.8c1.3,0,1.4-0.7,1.2-1.8C455.2,56.2,454.7,56.2,453.9,56.1z" />
	<path display="inline" fill="#CEBA9C" d="M432.7,31.1c0.9-0.2,2.3,0.4,2.3-1.4c3,0.8,5.6,2.4,8.5,3.6c-1.3,1-2.6,2-3.8,3.1   c-0.5-0.5-0.9-0.9-1.4-1.4c0.6-0.1,1.2-0.2,1.9-0.3C437.6,32.9,435,33.3,432.7,31.1z" />
	<path display="inline" fill="#392A23" d="M432.6,44.7c0-0.4,0.1-0.8,0.1-1.2c0.3-0.4,0.7-0.7,1.1-1.2c-2.2-0.8-4.2-1.5-6.3-2.2   c0.5-0.2,0.9-0.5,1.4-0.7c0.5,0,1,0.1,1.5,0.1c1.7,1.2,3.5,0.9,5.3,0.5c0.3,1.3,1.4,0.9,2.3,1c-0.3,0.5-0.5,1-0.8,1.5   c0,0,0.1-0.1,0.1-0.1c-1.3,0.8-3.4,0.8-3.9,2.4c0,0,0.1,0,0.1,0C433.3,44.7,432.9,44.8,432.6,44.7z" />
	<path display="inline" fill="#3C332F" d="M464.2,48.3c-3.6,0.3-7.8,1.9-10.9-0.2C456.8,47,461.4,45.1,464.2,48.3z" />
	<path display="inline" fill="#C5B396" d="M422.8,53.8c-1-0.6-1.6,0.4-2.3,0.6c0.1-0.3,0.2-0.7,0.4-1.1c1.4-0.3,2.9-0.6,4.3-0.9   c-0.2,0.4-0.3,0.8-0.5,1.4c2.8,0.7,4.8-1.4,7.3-2.2c0,0.6,0,1.3,0.8,1.5c-2.4,2.4-5.5,1.3-8.3,1.7   C423.9,54.5,423.4,54.2,422.8,53.8z" />
	<path display="inline" fill="#40352C" d="M443.4,33.3c-2.3-1-4.5-2.1-6.8-3.1c0.3-0.3,0.6-0.5,0.8-0.8c3.6,0.6,7,1.5,9.3,4.7   C445.2,33.7,444.3,33.5,443.4,33.3z" />
	<path display="inline" fill="#615347" d="M445,28c1.2-1.4,3.9-1,5.4-0.1c-0.3,0.3-0.6,0.6-0.9,0.9c0.1,0.2,0.2,0.3,0.3,0.5   c0.1-0.2,0.2-0.3,0.3-0.5c0.5,0.5,1.1,0.9,1.6,1.4c-0.3,0.5-0.7,0.9-1.1,1.5c-1.6-0.8-3.1-1.7-4.3-3.1c0,0,0.1,0.1,0.1,0.1   C446.2,28,445.5,28,445,28C444.9,28,445,28,445,28z" />
	<path display="inline" fill="#493830" d="M426.1,54.7c2.4,0.1,4.8,0.3,6.7-1.6c1,0.1,0.8,0.9,0.8,1.5c-1,0.6-2,1.1-3,1.7   C429,56.1,426.5,56.8,426.1,54.7z" />
	<path display="inline" fill="#4A3E38" d="M425.1,63.8c-0.5-0.5-1-1.1-1.6-1.6c0.5-0.5,1-0.9,1.4-1.2c0.1-2.7-2-0.3-2.5-1.2   c0.1-0.8,0.2-1.4,0.3-1.9c0.3-0.1,0.6-0.1,1-0.2c1.2,0.5,2,1.4,2.9,2.4C426.2,61.4,425.8,62.6,425.1,63.8z" />
	<path display="inline" fill="#2F251F" d="M432,51.6c-1.2,0.5-2.5,1.1-3.7,1.6c-0.6-0.2-1.3,0-1.5-0.8c1.9-1,3.8-2,5.9-3.2   c0.1,0,0.4,0.1,0.8,0.3c0,0,0,0.4,0,0.4C433,50.5,432.5,51.1,432,51.6z" />
	<path display="inline" fill="#5D4B3E" d="M447.2,29.4c0.3,0.3,0.6,0.6,0.9,0.9c0,0.3-0.1,0.7-0.1,1.2c-2.4-1.2-4.6-2.3-6.8-3.4   c1.2-1.1,2.5-0.2,3.8,0c0,0-0.1,0-0.1,0c0.5,0.3,1.1,0.5,1.6,0.8c0,0-0.1-0.1-0.1-0.1C446.7,28.9,446.9,29.2,447.2,29.4z" />
	<path display="inline" fill="#2C241F" d="M449.5,28.8c0.3-0.3,0.6-0.6,0.9-0.9c0.5,0.1,0.9,0.1,1.4,0.2c1.2,1.4,3.7-0.1,3.9,2.7   C453,31.7,451.6,29.5,449.5,28.8z" />
	<path display="inline" fill="#786655" d="M438.2,34.9c0.5,0.5,0.9,0.9,1.4,1.4c-1.7,1.1-3.4,2.3-5.8,2.2   C434.9,36.6,437,36.6,438.2,34.9z" />
	<path display="inline" fill="#766658" d="M438.1,40.9c-0.9-0.1-2,0.3-2.3-1c0.5-1,1.2-1.4,2.3-1.2c0.9,1.1,1.3-0.8,2.4-0.1   C440,39.7,439,40.2,438.1,40.9z" />
	<path display="inline" fill="#A8B59A" d="M426.1,54.7c0.5,2.1,3,1.4,4.5,1.6c0.2,0.5,0.4,1,0.6,1.5c-2.1-0.6-5-0.2-6.2-2.4   c0.1-0.2,0.2-0.4,0.1-0.7C425.4,54.7,425.7,54.7,426.1,54.7z" />
	<path display="inline" fill="#6E5F52" d="M435,47c0-0.3,0-0.7,0-1c0.9-1.1,2.4-1.8,2.3-3.6l-0.1,0.1c0.6,0,1.2,0.1,2,0.2   C437.9,44.3,437.1,46.2,435,47z" />
	<path display="inline" fill="#6B544D" d="M453.3,57.8c-0.6-0.1-1.2-0.1-2.1-0.2c0.7-1.5,1.7-1.6,2.9-1.5   C453.8,56.7,453.5,57.2,453.3,57.8z" />
	<path display="inline" fill="#191210" d="M433,84.2c-0.7,0-1.4,0-2.3,0c0-0.9-0.1-1.6-0.1-2.3c0.2,0,0.6,0,0.7,0   C431.8,82.7,432.4,83.5,433,84.2z" />
	<path display="inline" fill="#BCB3A5" d="M426.5,60.1c-0.5-0.5-1-1.1-1.4-1.6c0-0.3,0-0.5,0.1-0.8c0.7,0.3,1.4,0.6,2,0.9   c0.1,0.2,0.2,0.4,0.2,0.6C427.1,59.5,426.8,59.8,426.5,60.1z" />
	<path display="inline" fill="#C5B396" d="M433.6,54.6c0-0.7,0.1-1.4-0.8-1.5c0.4-0.2,0.7-0.3,1.1-0.5   C434.5,53.4,434.1,53.9,433.6,54.6z" />
	<path display="inline" fill="#9B9F99" d="M453.3,57.8c0.3-0.6,0.5-1.1,0.8-1.7c0.3,0,0.5,0.1,0.8,0.1c0,0.5,0,0.9,0,1.4   c-0.2,0.3-0.5,0.5-0.7,0.8C453.8,58.2,453.6,58,453.3,57.8z" />
	<path display="inline" fill="#615347" d="M453.4,28.7c-0.7,0.1-1.3,0.1-1.7-0.6c0.5,0,0.9,0,1.4,0   C453.2,28.3,453.3,28.5,453.4,28.7z" />
	<path display="inline" fill="#E0C7B6" d="M430.4,80.5c-0.2-0.5-0.5-1-0.7-1.5C430.5,79.2,430.5,79.9,430.4,80.5z" />
	<path display="inline" fill="#E0C7B6" d="M431.3,81.9c-0.2,0-0.6,0-0.7,0c0-0.5,0-0.9-0.1-1.4C431.2,80.7,431.3,81.3,431.3,81.9z" />
	<path display="inline" fill="#473B35" d="M429.8,59.3c-0.6,0.8-1.1,0.6-1.7,0c0,0,0.1-0.2,0.1-0.2c0.5,0,0.9,0,1.4,0   C429.7,59.1,429.8,59.3,429.8,59.3z" />
	<path display="inline" fill="#473B35" d="M430.5,57.7c0.2,0,0.4,0,0.7,0.1c-0.2,0.3-0.4,0.5-0.6,0.8l-0.2-0.2   C430.5,58.1,430.5,57.9,430.5,57.7z" />
	<path display="inline" fill="#D6C0A0" d="M432.8,50.8c0.2-0.3,0.4-0.6,0.6-1C433.2,50.2,433,50.5,432.8,50.8z" />
	<path display="inline" fill="#C5B396" d="M432,51.6c0.2-0.2,0.5-0.5,0.7-0.7C432.5,51.1,432.2,51.3,432,51.6z" />
	<path display="inline" fill="#473B35" d="M427.4,59.2c0-0.2-0.1-0.4-0.2-0.6c0.4,0.2,0.7,0.4,1.1,0.6c0,0-0.1,0.2-0.1,0.2   C427.9,59.3,427.6,59.3,427.4,59.2z" />
	<path display="inline" fill="#473B35" d="M430.6,58.5c-0.3,0.3-0.5,0.5-0.8,0.8c0,0-0.2-0.2-0.2-0.2c0.3-0.2,0.5-0.5,0.8-0.7   C430.4,58.4,430.6,58.5,430.6,58.5z" />
	<path display="inline" fill="#615347" d="M452.3,30.5c0.3,0.2,0.7,0.3,1,0.5C453,30.8,452.6,30.7,452.3,30.5z" />
	<path display="inline" fill="#2E221D" d="M398.2,38c0.7,1-0.1,1.5-0.8,2c-0.5,0-0.9,0.6-1.3,0.8c0,0,0,0,0,0   c-2.2,0.3-3.5,2-5.3,3.2c-0.3-0.3-0.5-0.5-0.8-0.8c2.1-2.1,4.1-4.2,6.9-5.4C397.4,37.8,397.8,37.9,398.2,38z" />
	<path display="inline" fill="#706353" d="M390.1,43.2c0.3,0.3,0.5,0.5,0.8,0.8c-1.9,2.3-3.2,5-4.6,8   C385.7,49.7,386.8,47.3,390.1,43.2z" />
	<path display="inline" fill="#CFBEA3" d="M392.1,43.1c1-1.4,2.4-1.9,4-2.3c-0.4,1.2-0.7,2.4-2,3.1   C393.5,43.6,392.8,43.4,392.1,43.1z" />
	<path display="inline" fill="#AA9880" d="M392.4,36.4c-1.1,1.2-1.8,1.8-3.5,2.4c0.5-2.1,2.2-2.5,3.5-3.2   C392.4,35.9,392.4,36.1,392.4,36.4z" />
	<path display="inline" fill="#61574A" d="M392.4,36.4c0-0.3,0-0.5,0-0.8c0.5-0.2,1-0.5,1.6-0.7c0.3,0.3,0.5,0.5,0.8,0.8   C394,36,393.2,36.2,392.4,36.4z" />
	<path display="inline" fill="#CFBEA3" d="M396.1,40.8c0.3-0.2,0.6-0.4,0.9-0.7C396.7,40.4,396.4,40.6,396.1,40.8z" />
	<path display="inline" fill="#29241E" d="M384.6,76.7c0,5.1,0,10.1,0,15.2c-0.2,0-0.4,0-0.5,0c-0.2-5.1-0.1-10.1-0.1-15.2   C384.2,76.7,384.4,76.7,384.6,76.7z" />
	<path display="inline" fill="#494237" d="M383.9,86.5c0.6,8,0.4,15.2,0.1,23.2c-0.9,0-0.7-0.6-0.9-1   C383.7,101.3,382.5,93.5,383.9,86.5z" />
	<path display="inline" fill="#DDC6A6" d="M430.5,37.1c-5.9-0.1-12.1-1.4-17.5-3c1-0.3,2.4,0.5,3.2-0.9   C420.9,34.3,426.4,34.8,430.5,37.1L430.5,37.1z" />
	<path display="inline" fill="#493830" d="M422.8,27.1c-4.1,0.8-8.2,2-12,3.7c-0.6,0.3-1.2,0.4-1.5-0.4   C413.3,28.7,418.4,25,422.8,27.1z" />
	<path display="inline" fill="#A88E77" d="M416.1,33.3c-2.9,2.4-6.8-0.3-10.1-0.1C408.7,32.4,413.5,32.3,416.1,33.3z" />
	<path display="inline" fill="#CABDA2" d="M418.4,26.6c-3.2,0.8-6.2,2.2-9.2,3.8c-0.3-0.3-0.7-0.7-1-1c2.6-1.8,5.6-2.7,8.6-3.6   C417.4,26.1,417.9,26.4,418.4,26.6z" />
	<path display="inline" fill="#BEA68E" d="M425.1,21.8c3.1-1.4,6.6-1.5,10-2.1c0,0.2,0,0.4,0,0.6c-2.1,1.7-5.8,1.4-8.4,2.3   C426.4,21.8,425.6,22,425.1,21.8z" />
	<path display="inline" fill="#725C4E" d="M432.7,31.1c1.1,0.7,2.2,1.4,3.3,2.1c-0.8,0.5-1.6,1-2.4,1.6c-0.7-0.3-1.3-0.5-2.5-1   c1-0.3,1.5-0.5,2-0.7c-0.4-1.3-3.3-1.2-2.5-2.8C431.2,30.4,432,30.8,432.7,31.1C432.7,31.1,432.7,31.1,432.7,31.1z" />
	<path display="inline" fill="#9C846F" d="M429,39.3c-0.5,0.2-0.9,0.5-1.4,0.7c-2.4-0.8-5.1-1.1-7-2.9   C423.5,37.2,426.3,38.2,429,39.3z" />
	<path display="inline" fill="#A28470" d="M435,20.3c0-0.2,0-0.4,0-0.6c2.4-1.1,4.9-0.8,7.4-0.8c0.1,0.2,0.1,0.4,0.2,0.5   C440.1,19.5,437.7,20.6,435,20.3z" />
	<path display="inline" fill="#C4B298" d="M425.9,25.7c1.8-1.1,3.8-0.8,6.4-0.6c-2.3,1.8-3.9,1.3-6.4,1.3   C425.9,26.2,425.9,26,425.9,25.7z" />
	<path display="inline" fill="#43372F" d="M439,20.2c1.8-1,3.9-0.9,5.8-0.5c0.1,0.2,0.2,0.4,0.3,0.6c-0.5,0.3-1.1,0.5-1.6,0.8   C441.9,20.8,440.5,20.5,439,20.2z" />
	<path display="inline" fill="#766455" d="M437.5,29.4c-0.3,0.3-0.6,0.5-0.8,0.8c-1.4-0.3-2.6-0.9-3.9-1.5c0-0.3,0-0.6,0-0.9   C434.4,28,436,28.4,437.5,29.4z" />
	<path display="inline" fill="#9B7F6D" d="M425.9,25.7c0,0.2,0,0.5,0,0.7c-1.6,0.6-3.1,1.1-4.6-0.1   C422.7,25.2,424.3,25.8,425.9,25.7z" />
	<path display="inline" fill="#655246" d="M406,33.2c1.3,0.1,2.7-0.1,3.8,0.8c-1.4,0.1-2.9,0.3-4.3,0.4   C405.2,33.7,405.5,33.4,406,33.2z" />
	<path display="inline" fill="#AD9680" d="M432.7,27.8c0,0.3,0,0.6,0,0.9c-0.9-0.3-1.8-0.5-2.8-0.9   C431.1,26.8,431.9,27.1,432.7,27.8z" />
	<path display="inline" fill="#776153" d="M425.1,21.8c0.6,0.2,1.3,0,1.5,0.8c-1,0.2-2,0.5-3,0.7c0-0.3,0-0.5,0-0.8   C424.1,22.3,424.6,22,425.1,21.8z" />
	<path display="inline" fill="#DDC6A6" d="M432.7,31.1c-0.6-0.2-1.1-0.5-1.7-0.7C431.8,30.3,432.4,30.2,432.7,31.1z" />
	<path display="inline" fill="#C4B298" d="M424.3,27.1c0.3-0.2,0.6-0.4,0.9-0.6C424.9,26.7,424.6,26.9,424.3,27.1z" />
	<path display="inline" fill="#F3DEBE" d="M406.9,39.4c5.1-2.3,11.6,0.3,16.3,2.9C417.6,42.4,412.4,39.6,406.9,39.4   C406.9,39.4,406.9,39.4,406.9,39.4z" />
	<path display="inline" fill="#4A3D33" d="M405.4,44.7c-1-0.8-1-0.9,0.1-1.7l-0.1,0.1c0.1,0.2,0.2,0.4,0.3,0.6   c0.1-0.2,0.3-0.3,0.4-0.5c3.3,2,6.6,4.1,9.8,6.1c-0.2,0.2-0.4,0.5-0.7,0.7C411.7,48.7,408.9,46,405.4,44.7z" />
	<path display="inline" fill="#98846E" d="M414.5,43.9c-0.6,0.1-1.3-0.1-1.5,0.8c-2.6-0.9-4.6-2.8-7-4.4c0.4-0.4,0.6-0.6,0.8-0.9   C409,41.7,412,42.3,414.5,43.9z" />
	<path display="inline" fill="#9F8C75" d="M415.2,50.1c0.2-0.2,0.4-0.5,0.7-0.7c1.5,0.7,3.2,1.2,4.9,2.9   C418.3,51.9,416.8,50.9,415.2,50.1z" />
	<path display="inline" fill="#7F695A" d="M431,42.7c-2.6,1-4,0.4-5.6-0.7C427.3,41.1,428.6,42.6,431,42.7z" />
	<path display="inline" fill="#6A5F4F" d="M412.1,52.4c0.5-0.2,1-0.5,1.5-0.7c1.2,0.5,2.5,1.1,4.1,1.8   C415.4,53.7,414.5,53.5,412.1,52.4z" />
	<path display="inline" fill="#9D9179" d="M405.4,44.7c1.6,0.1,2.6,1.4,3.8,2.2c-0.3,0.3-0.5,0.5-0.8,0.8   C407,47.1,406.1,46,405.4,44.7z" />
	<path display="inline" fill="#76705D" d="M426.7,52.4c0.2,0.8,1,0.6,1.5,0.8c-1,1.1-2.2,0.6-3.5,0.6c0.2-0.5,0.4-0.9,0.5-1.4   C425.7,52.4,426.2,52.4,426.7,52.4z" />
	<path display="inline" fill="#0F0F0D" d="M422.9,47.7c1.3-1.3,2.7-0.5,4.1-0.1C425.6,47.6,424.2,48.1,422.9,47.7z" />
	<path display="inline" fill="#77705D" d="M409.2,52.3c-0.8-0.3-1.6-0.8-1.3-2.2c0.8,0.5,1.4,1,2.1,1.4   C409.7,51.8,409.4,52,409.2,52.3z" />
	<path display="inline" fill="#110E0B" d="M406.1,43.2c-0.1,0.2-0.3,0.3-0.4,0.5c-0.1-0.2-0.2-0.4-0.3-0.6   C405.6,43,405.9,43,406.1,43.2z" />
	<path display="inline" fill="#DEC8AB" d="M445.1,20.3c-0.1-0.2-0.2-0.4-0.3-0.6c0.7-0.1,1.4,0,1.7-0.9c1.3,0.8,2.5,1.5,3.7,2.4   c0,0.3,0,0.6,0.1,0.8C448.5,21.5,446.8,20.9,445.1,20.3z" />
	<path display="inline" fill="#DEC8AB" d="M446.3,18.2c0.1,0.2,0.1,0.4,0.1,0.6c-0.5-0.2-1-0.4-1.5-0.6   C445.4,18.2,445.9,18.2,446.3,18.2z" />
	<path display="inline" fill="#DEC8AB" d="M443.4,19.4c-0.2,0.1-0.5,0.1-0.7,0c-0.1-0.2-0.1-0.4-0.2-0.5   C442.8,19.1,443.1,19.3,443.4,19.4z" />
	<path display="inline" fill="#959681" d="M450.3,22.1c0-0.3,0-0.6-0.1-0.8c0.3,0,0.6,0,0.8-0.1l0-0.1c0.2,0.4,0.4,0.8,0.7,1.3   C451,22.9,450.6,22.7,450.3,22.1z" />
	<path display="inline" fill="#4E4138" d="M451,21.2c-0.3,0-0.6,0-0.8,0.1c-0.4-0.3-0.9-0.6-1.3-1C449.4,18.8,450.5,20.5,451,21.2z" />
	<path display="inline" fill="#854D3C" d="M412.3,293.6c-1.5-0.9-2.9-1.7-5-3c2.7,0,4.3,0.8,5.5,2.3   C412.6,293.2,412.5,293.4,412.3,293.6z" />
	<path display="inline" fill="#788DAA" d="M552.3,552.6c-1.3-1.2-0.1-1.8,0.6-3c1.5,0.5,2.4,1.4,3.2,2.8c-0.5,0.8-1.1,1.6-1.6,2.3   l0,0.1C554.4,553.1,554.7,552,552.3,552.6z" />
	<path display="inline" fill="#090505" d="M552.3,552.6c1.9-0.3,2-0.3,2.2,1.4C553.5,554,552.7,553.6,552.3,552.6z" />
	<path display="inline" fill="#808AA6" d="M554.6,554.7c-0.2,0.7-0.6,0.9-1.6,0.2C553.7,554.9,554.2,554.8,554.6,554.7L554.6,554.7z   " />
	<path display="inline" fill="#6D7E97" d="M554.5,509.2c-0.3,0.4-0.7,0.8-1.2,1.3c-0.9-2.3-0.9-2.3-2.3-3.3   C551.9,505.4,552.6,506.3,554.5,509.2z" />
	<path display="inline" fill="#422F29" d="M430.4,58.4c-0.3,0.2-0.5,0.5-0.8,0.7c-2.9,0.1-5.2-2-6.8-4.2c0-0.3,0-0.7,0-1   c2.4,1.9,4.3,3.7,7.6,3.8C430.5,57.9,430.5,58.1,430.4,58.4z" />
	<path display="inline" fill="#C1AF95" d="M413.7,59.9c-0.2-0.6-0.5-1.3-0.9-2.4c3.3,0.5,3.5,2.7,3.8,5.4   C415,63.2,414.7,60.9,413.7,59.9z" />
	<path display="inline" fill="#81766A" d="M422.8,54.9c0.8,0.9,1.5,1.8,2.3,2.8c0,0.3,0,0.5-0.1,0.8c-1-0.4-2-1.3-2.6-2.1   c-1.1,0.8-1.9,1.5-2.7,2.1l0,0C420.1,56.7,421.1,55.5,422.8,54.9z" />
	<path display="inline" fill="#9B8D81" d="M419,63c-1.4-2.2-1.3-3,0.8-4.6l0,0c0,0.5,0,1,0,1.5C419,60.8,419,61.9,419,63L419,63z" />
	<path display="inline" fill="#CCB8A9" d="M422.7,57.8c-0.1,0.6-0.2,1.1-0.3,1.9c0.5,0.9,2.6-1.5,2.5,1.2c-1.1,0.9-2.5,1.7-2.2,3.5   c-0.8-0.7-1.6-1.5-2.3-2.2c0-0.8,0-1.6,0-2.4C421.1,59.2,421.9,58.5,422.7,57.8z" />
	<path display="inline" fill="#3A322E" d="M420.3,59.9c0,0.8,0,1.6,0,2.4c-0.2,0.2-0.4,0.5-0.6,0.7c-0.3,0-0.5,0-0.8,0   c0-1.1,0-2.2,0.8-3.1C419.9,59.9,420.2,59.9,420.3,59.9z" />
	<path display="inline" fill="#353028" d="M384.7,95.7c-0.9-1.1-0.6-2.5-0.6-3.8c0.2,0,0.4,0,0.5,0   C384.6,93.2,384.6,94.4,384.7,95.7z" />
	<path display="inline" fill="#CFBA9B" d="M412.2,60c-0.8-0.2-0.8-0.9-0.8-1.6C412.3,58.6,412.2,59.3,412.2,60z" />
	<path display="inline" fill="#474237" d="M433.5,34.7c0.8-0.5,1.6-1,2.4-1.6c1.4,0.3,2.9,0.2,4.2,1.5c-0.8,0.1-1.4,0.2-1.9,0.3   c-0.3,0.3-0.6,0.5-0.9,0.8C436,35.4,434.8,35,433.5,34.7z" />
	<path display="inline" fill="#F6D9C7" d="M437.3,42.4c0,1.7-1.4,2.5-2.3,3.6c-0.4-0.5-0.9-0.9-1.5-1.2   C434,43.2,436,43.2,437.3,42.4z" />
	<path display="inline" fill="#8C8B74" d="M428.3,47.5c1.3-0.5,2.2-0.8,3.4-1.3C430.5,47.6,430.5,47.6,428.3,47.5z" />
	<path display="inline" fill="#392A23" d="M432.3,45.5c0.1-0.3,0.2-0.6,0.3-0.9c0,0,0.1,0,0.1,0C432.6,45,432.5,45.3,432.3,45.5z" />
	<path display="inline" fill="#F6D9C7" d="M432.3,45.5c0.1-0.3,0.3-0.6,0.4-0.8c0.3,0,0.6,0,0.8,0C433.1,45,432.7,45.3,432.3,45.5z" />
	<path display="inline" fill="#DBE7E7" d="M454.8,57.6c0-0.5,0-0.9,0-1.4c0.3-0.1,0.7-0.2,1.2-0.4C456.2,56.9,456.2,57.7,454.8,57.6   z" />
	<path display="inline" fill="#493830" d="M424.9,55.4c-0.2-0.2-0.4-0.4-0.5-0.6c0.2,0,0.4-0.1,0.6-0.1   C425.1,54.9,425.1,55.2,424.9,55.4z" />
	<path display="inline" fill="#F7E1C0" d="M446.5,28.8c-0.5-0.3-1.1-0.5-1.6-0.8C445.5,28,446.2,28,446.5,28.8z" />
	<path display="inline" fill="#F7E1C0" d="M447.2,29.4c-0.3-0.2-0.5-0.5-0.8-0.7C446.7,28.9,446.9,29.2,447.2,29.4z" />
	<path display="inline" fill="#8F9C85" d="M449.5,28.8c0.2,0,0.4,0,0.7,0c-0.1,0.2-0.2,0.3-0.3,0.5C449.7,29.1,449.6,29,449.5,28.8z   " />
	<path display="inline" fill="#231A18" d="M420.3,59.9c-0.1,0-0.4,0-0.5,0c0-0.5,0-1,0-1.5c0.8-0.6,1.7-1.3,2.7-2.1   c0.3,0.4,0.8,0.9,1.2,1.3c-0.3,0.1-0.6,0.1-1,0.2C421.9,58.5,421.1,59.2,420.3,59.9z" />
</g>
</svg>