<?xml version='1.0' encoding='utf-8'?>
<svg xmlns="http://www.w3.org/2000/svg" version="1.2" baseProfile="tiny" id="Layer_1" x="0px" y="0px" viewBox="0 0 900 600" overflow="visible" xml:space="preserve">
<g id="b_00000108283205381000808630000015016737462248575151_">
	<path display="inline" fill="#010101" d="M470.1,567.8c-0.3-10.1-0.2-22.5,9.1-28.6c-2.2-14.5-2.4-29.8-6.4-44.1   c-2.6-6.5-5.3-12.8-6.2-19.8c-3.6-16.7,1.3-34.3,4.4-51c-6.8-5.7-6.1-14.2-8.3-21.7c-7,1.5-14.1,3.2-20.9,5.6   c-0.9,0.3-1.6,0.3-2.2-0.5c0.2-4.7,15.7-4.9,19.6-8c3.4-1.3,6.9-0.1,10.3,0.1c10.9-5,28.8-1.3,35.9-10.4   c-5.9-31.2-3.8-63.9-12.8-94.5c-0.7-0.3-1.1-0.5-1.4-0.6c-2.3-7.5-3.4-15.5-6-23c-5.4-5.2-9.4-12.1-8.9-19.8   c-1.2-0.4-2.1-0.7-3.2-1c-0.4,2.4,1.1,4.7-0.3,6.5c0.5,2.6,2.2,4.4,2.7,6.6c-4,1.8-4.4-5.4-5.2-8c-1.7,0.3-3.3-1.5-5.1,0.3   c0.7,0.6,1.3,1.1,1.8,1.6c-0.1,2.9,0.6,5.4-1,8c-1.6-3.9,1.1-10.7-5.2-10.7c0-0.2,0-0.3,0-0.5c1.1-0.1,2.2-0.2,3.4-0.3   c0-0.8,0-1.4,0-1.9c1.3-0.3,0.8,1.2,1.1,2c0.8,0,1.4,0,2.1,0c0.3-0.8,0-1.8,1.1-1.4c0,0.4,0.1,0.9,0.2,1.5c1-0.6,1.8-1,2.7-1.5   c-0.1-0.6-0.2-1.3-0.3-2c-7.6-0.6-16,1.3-23.1-0.8c8.3-2.2,17.5-0.1,25.3-1.6c0.9-3.7,0.9-3.7,0.3-6c8.3-20.5,1-45.7,7.1-66.1   c4.2,16.2,33.8,36.1,50.8,30.9c3.9-11.3,6.3-22.8,7.4-34.7c2.4-14.6-6.5-28.6-6.4-42.9c3.7-4.1,3.9-16.6-3.6-15.7l0,0   c-2.2-0.6-2.6-0.6-5.6,0.1c0.8,0.6,1.3,1,1.8,1.7c-0.1,0.3-0.2,0.6-0.3,1c-2.5-0.5-4.4-2.5-6.8-2.7c-0.7,0.7-1.3,1.3-1.9,2   c-0.7-2,0.2-3.8,0.9-5.5c0.5,0,0.8,0,1.2,0c2.7,1.6,7,1,6.2-2.8c0.3,0,0.5,0,0.8,0c0.2,0.9,0.5,1.7,0.7,2.6   c4.1,0.9,1.6-3.5,0.7-5.3c0.1-0.6,0-1.3,0.7-1.5c0.9,1,0.8,2.8,2.6,3.3c2-2.5-0.7-9.3-4.3-8.8c-0.1,0.8-0.4,1.3-1,1.9   c-0.4-0.7-0.7-1.4-1.1-2.2c-0.3,0.1-0.6,0.1-1,0.2c0.2,0.7,0.5,1.4,0.7,2c-0.1,0.4-0.2,0.8-0.3,1.3c-1.5-1.4-2.5-2.5-3.8-4   c-1.5,0-2.9,0-4.2,0c-1.5,2.7-9.6,2.4-7.3,5.6c-23-1-45.9-4.2-68.8-4.8c0.4,2.4,0,4.1-0.1,6.6c22.9,2,45.7,3.8,68.6,5.5   c1.8-1.6,3.6-3,5.3-4.7c0.6,0,1.2,0,1.9,0c0.3,0.2,0.6,0.5,0.8,0.7c-2.1,2.6-6,2.7-6.4,6.4c-1.2-0.8-2.4-0.7-3.8-0.7   c0,1.9,0.7,3.4,1.8,4.7c-1,3.5,2.3,5.5,4.2,8c-0.3,0.3-0.5,0.5-0.8,0.8c-5.3-3-4.6-8.8-7.6-13.5c-10.8-0.9-21.7-1.7-32.7-2.6   c10.4,11.7,28.2-2.4,33.6,36.4c4.5,2,8.9,4.6,12.9,7.5c2.3-5.5,0.5-11.8,2.3-17.2c6.1,18.1-9.6,32-9.4,48.9   c-0.6-0.7-1.2-1.5-1.8-2.2l0,0c-2-10,6.8-17,7.7-26.3c-25.2-9.5-11.6-38.7-39.2-40c8.8,13.7,19,36.8,4.6,50.2   c-0.8-0.2-0.8-0.9-0.9-1.5c11.8-16.3,0.1-45.5-14.5-55.6c1.8,7.4,3.9,16-0.7,22.8c-5.8,6.2-14.7,12.8-23.1,7.3   c0.3-0.2,0.5-0.5,0.8-0.7c1.8,1.1,3.8,0.6,6.1,0.7c0.6-2.9,0.1-5.6-0.3-8.8c2.4,2.6,3.2,5.2,3.3,8c14.5-2.7,15.6-18.1,11.3-29.9   c-8-0.6-15.9-1.2-24.1-1.9c-0.3,7.8-9.7,7.9-14.2,11.8c4.7,6.1,8.8,12.6,14.4,17.8c-0.3,0.3-0.6,0.6-0.9,0.9   c-7.7-4.1-10.8-12.8-16.4-18.9c-16.2,13.5-2.3,38.5-6.5,56.4c-1.9,12.3-11.4,48.9-28.7,39.8c-7.3-2.2-14.8-7.7-17.2-16   c-1.6-5.7-8.5-9.2-7.9-15.7c1.1-14.9-1.2-18.3-5.6-31.7c-3.6,1.1-7.6,2.9-11.1,1c17.6-1.6,30.5-16.6,35.5-32.6c0,0,0,0,0,0   c5.4-10.3,3.5-24.1,5.7-34.8c0.3,2.1,0.6,4.1,0.9,6.3c3.5,0.7,6.9,1,10.2,0.9c3.4-4,8.1-4.3,13.1-5.4c4.7-6,0.4-13.3,3.4-19.5   c1.7-2.1-0.8-5.8,2.6-6.8c-0.1,4.4,0.1,8.7-1.3,12.7c-1.1,4.8,1.7,9.7-1.5,14.2c1.2,1.2,2.7,2.8,4.3,1.3c1.4,0,2.8,0,4.2,0   c-1.1,0.9-2.3,0-3.2,1.3c0.5,0.2,1,0.5,1.4,0.7c-0.1,0.3-0.2,0.6-0.3,0.9c-1.1-0.1-2.2-0.2-3.4-0.3c0.5,3.7,3.6,6.2,3.7,10   c-0.4,0.2-0.9,0.5-1.4,0.8c1.5,2.3,3.3,6,6.1,3.6l0,0c0.6-0.3,0.4-0.5,0-0.8c-0.1-0.9,0-2-0.4-2.7c-2.3-3.3-1.5-7.9-4.6-10.7   c3-1.9,4,3.9,4.9,5.9c-0.1,0.2,0,0.3,0.1,0.5c0.2,0.5,0.4,1.1,0.6,1.6c-0.1,0.2,0,0.4,0.1,0.5c0,1.3-0.3,2.6,0.6,3.7   c-0.1,0.2,0,0.4,0.1,0.6c-0.6,1.6,1.3,1.8,2.3,0.9c0,0-0.2-0.1-0.2-0.1l0.2,0.1c1.1-1.1,0.7-2-0.1-3c0,0,0,0,0,0   c-1.7-3.3,0.9-8.8-2.9-10.7c-0.3-0.6-0.8-0.7-1.4-0.6l0,0c2.7-2.9,4.1,0.2,5.9-0.1c-0.6-1,0-1.8,0.5-2.7c0.6,2.9,3.6,4,3.8,7.1   c5.2-0.2,10,2.1,15.2,1.1c0.4-4,1.3-7.8,0.8-11.6c-1.9-0.7-4.2-0.3-5.5-2.2c0.3-0.3,0.6-0.6,0.9-0.9c2.3-0.5,4,1.1,5.9,1.6   c1.3-0.6,2.6-1.2,4.1-1.9c5.3-11.3,3.4-24.2,6.8-35.7c3.2,5.6,0.4,11.1,0,16.8c0.6,6.4-2.3,12.2-3.8,18.2c-0.1,3.2-2.9,4-5.5,4.9   c-0.5,2.6-0.3,5.3-0.6,8.1c12.7,8.2,36.6,5,52.1,7.5c5.6-3.1,10.1-6.9,16.5-4.8c6.5,0.1,9.8-0.1,11.9,7c16.5,1.6,32.9,3.1,49.6,3.7   c1-2.7,2.9-4.6,5.1-6.2c0.3,0.3,0.5,0.5,0.8,0.8c-1.4,1.8-3.4,3-4,5.6c7.7-0.5,19.5,4.6,9.6,12c-3.3,0-6.5,0-9.8,0   c1.7,6.3,10.7,9.6,16.1,5c0.2,0,0.5,0,0.7,0c-0.2,1,0.9,1.2,1.2,2.1c-7.7,4.3-17.8,0.6-21.2-7.6c-8-0.2-15.7-1.4-23.6-1.9   c-1.2,7.4,2.8,20.5,7.5,28c-0.2,0.7-0.8,0.6-1.3,0.7c-6.1-7.6-8.3-18.9-7.9-28.6c-2.5-1-14.6-2.1-19.8-1.8c3.4,5.8,0.4,12.4-2,18.1   c2,12.2,8.8,23.8,7.5,36.5c-1.6,14.1-1.4,29-10.3,40.8c-18.3,2.8-38-11.2-48.8-25.2c-1.6,7.8,0.4,17.1-0.9,25.4   c-3,5.9-1.7,12.3-1.7,18.6c-6,21.9-1.1,14.2,0.8,34.4c13,10.5,12.3,26.5,16.4,41.1c6,18.5,3.8,38.4,7.5,57.3   c0,8.6,7.2,27.7,1.1,32.9c1.3,19.7-3.5,38.2,2.2,57.6c-0.4,25.5-2.6,51.9-6.5,77.5c-0.5,2.8,2.8,3.6,3.3,6.2   c1.9,4.5,0.8,10.7,4.6,14.1c7,6,10,17.2,20.4,17.9c6.3-0.3,10,14.7,3.9,16.4c-12.5,3-33.9,7.5-44.3-1.4c-7.6,0.4-17,1.9-22.3-4.9   c0.3-0.6,0.7-1.1,1-1.7c3.9,6.3,13.9,2.5,20.1,3.5c8.7,8,19.6,5.9,30.2,4.5c9.2-0.5,21.2-1.7,13.2-13.6c-6.4-1-12.3-2.8-15.7-8.7   c-0.7,0.3-1.3,0.5-1.8,0.7c-0.6-0.1-1.1,0.1-1.3,0.7l0,0c-0.6-0.1-1.1,0-1.4,0.6c-0.7,0.4-1.7-0.3-2.1,0.7c-1.2,0.5-2.3,1.2-3.7,1   c-2.6-4.3,6-5,8.8-5.3c-0.6-1.1-1.1-1.9-1.5-2.6c0.1-1.1-0.4-1.8-1.4-2.2c-0.7-1.1-1.5-2.2-2.2-3.3c0-0.5-0.2-0.9-0.8-0.9l0,0   c0-0.5-0.2-0.8-0.7-0.7l0,0c0-0.5-0.3-0.8-0.8-0.8c-0.5-0.4-1-0.9-1.6-1.3c-5.5,1.8-12.7,1.7-15.2,7.9c-8.1-6.8,9.5-10.7,14.1-11.1   c-0.9-3.8-1.7-7.4-2.6-11c-8.9-2.4-11.3,4.5-13,11.8c0,0,0,0,0,0c-0.8,1.2-1.9,2.4-2.7,3.4c-1.2,0.4-2.2,0.6-3.1,0.9   c0,0.8-0.1,1.4-0.1,2.2c-2.3-2.2-3.2-4.8-3.4-10.5c-0.5,0-1.1,0-1.5,0c-0.9,2.5-3.4,4.1-3.3,6.8c0.1,1.6-1,2.1-2,2.8   c1.3,6,0.6,11.6-0.9,17.2C471,568.7,470.5,568.2,470.1,567.8z M412.5,94.7l0.1-0.2L412.5,94.7c1.1,1.6,2.2,3.2,3.4,4.9   c0.6-0.1,1.4-0.1,2.4-0.2c-3-3.7-3-8.1-6.6-11.1c-3.5-0.6-5.9,1.7-9,2.8c-0.9-0.2-1.6,0.2-2.1,1.2   C404.6,92.7,409.4,91.8,412.5,94.7z M409.9,96.5c-0.1-0.3-0.2-0.7-0.3-1.1c-7.6-1-15.6-2-23.2-1.8c0.1,2.3-0.3,4.2,0.1,6.4   c10.3,1.1,20,2.1,30.4,2.2C413.1,100.4,411.8,100.6,409.9,96.5z M533,107.1c-0.8,0.5-1.6,0.9-2.5,1.5c-0.1,0.9-0.3,1.9-0.4,2.8   c18.6,2.2,37,2.7,55.6,4.5c2.9-0.2,8.8,2.5,9.7-1.5c0.7-2.5-1.2-3.5-2.4-4.6c-20.2-1.3-39.7-4.2-59.8-4.5   C533.1,105.9,533.1,106.5,533,107.1z M485.5,398.4c-7,1.4-14.3,2.7-21,4.5c0.6,7.6,4.1,13.8,8.3,19.9c-1.3,9.1-2.4,18.2-2.7,27.4   c-0.4,7.6-4.3,14.7-1.7,22.5c7.5,23.1,11.1,46.8,13.9,70.7c1.3,0.5,2.5,1,3.8,1.4c0.9-4.3,3.7-7.2,5.5-11.2   c2.2-0.8,4.4-1.6,6.4-2.3c2.3-31.6,9.4-62.9,4.6-94.6c-0.5,0.6-0.8,0.9-1.2,1.3c0.6-13.6,2.1-28.1,1.7-42.3   c-4.7,0-8.6,2.9-13.5,2.1C488.3,397.8,486.8,397.5,485.5,398.4z M402,103.8c-1,0-2,0-3.2,0c1.1,7.1,2.1,15.5-4,20.5   c-4.3,20.1-13.4,38.2-22.8,56c-3.1-11.1,8.3-19.2,12-28.8c4.2-9.1,6.5-18.4,9.2-28c4.5-3.9,4.5-9.4,3.7-15.2   c-4.6-5.6-6.1-6.8-11.6-1.3c-0.4,2.1-0.7,3.8-1,5.3c0.7,0.7,1.2,1.2,2,1.8c-1.1,0.3-1.9,0.5-2.6,0.6c-3.6,15.1-12.7,27.3-25.7,35.7   c0.5,5.8,4.8,10.6,6.5,15.7c-0.5,0.3-1.1,0.7-1.6,1.1c-0.2,16.6-1.8,17.4,9.2,30.3c-0.9,7.7,10.9,13.7,17.5,14.8   c0.5,0.8,0.9,1.4,1.4,2.1c28.9-13.9,19.3-61.7,21.6-88.2c3.6-12.9,16.7-9.2,24-17.4c-0.1-3.9,1.8-7.3,0.1-10.4   c-1.8,0.5-3.4,1-5.2,1.6c0,1.4,0,2.9,0,4.4c0.7,1,2.4,1.5,1.7,2.9c-0.8-0.4-1.6-0.8-2.4-1.1c-0.5,0.4-0.9,0.8-1.2,1.2   c0.3,1,0.6,1.9,0.9,2.8c-2.3-0.3-2.4-3.3-5.6-3.1c-1.2,0.2-3.4,1.1-5.6,0.2c-0.2-0.6-0.3-1.3-0.5-2   C412.8,104.7,407.7,103.5,402,103.8z M428.5,91.8c0.7,2.4,0.1,5.3,1.6,7.3c0.8-0.5,1.5-1.1,2.3-1.7c-0.1-1.5-0.2-3-0.3-4.5   C430.6,92.4,429.9,91.4,428.5,91.8z M481.1,548.1c1.5,1.2,3.2,0.9,4.3-0.5C482.8,546.1,482.8,546.1,481.1,548.1z M454.4,96.2   c-0.4-1.1-1.1-1.7-2.2-1.8C451.8,96.3,451.9,96.4,454.4,96.2z M396.7,104.8c0.2-1.5,0.2-1.5-1.2-1.2   C395.9,104,396.2,104.3,396.7,104.8z" />
	<path display="inline" fill="#010101" d="M434,385.7c-0.4,3-2.2,6.2-1,9.2c-0.6,0.3-1,0.6-1.6,0.9c-1.3,4.7-0.4,10-5,13.3   c-1.4,0-3.1,0-4.9,0c-2.8,12.2-8.8,23.3-15.8,33.5c-0.8,7.9,2.3,17.2,0.1,25.1c-5.3,16.2-10,32.7-16.6,48.4   c-5.1,7.1-4.3,15.5-4,23.8c-0.2,10.8,8.6,19,12.6,28.6c2.1,3.9,3.8,7.9,7.2,10.8c1.6,1.5,4.6,2.3,4.7,4.9   c-0.1,4.2,2.1,10.5-3.4,12.3c-10.8-2.3-38.9,11-44.7-3.8c-3.3-1.1-9.4-0.6-10.1-4.9c4.1-9.3,4.7-18.5,3.7-28.4   c11-4.4,4.8-12,10.7-19.1c-4.4-26.7-3.1-54.2-4.2-81c0.3,0.3,0.5,0.6,0.8,0.9c2.5,26.6,2.6,53.4,5.9,80c3.1-0.3,5.7-2.4,8.7-2.7   c2.6,1,0.9,4.6,4.3,5.1c0.9-35.9,27.4-66.1,21.8-102.8c10-8.1,11.8-24.2,15.7-36.1c-4.7-3.5-10.7-4.7-16.2-6.7   c-0.8-0.8-0.8-0.8-1.4,0.1l0,0c-6.1-2.8-12.8-4.3-20-2.2c2.6,26-9.5,37.6-17.7,60.2c-2.6-18.5,19.7-29.4,16-56.2   c-2.5-1.5-6.4-2-7.7-4.7c3.7-16.9,1.9-35.1,4.6-51.6c2,16.9-0.9,34-1.7,50.9c18.3-4.4,35.5,3.3,51.8,11.1c3-10.4,4.3-20.4,6.6-30.9   c0.2,0,0.4,0,0.6,0c0.1,0.5-0.1,1.2,1.1,1.2c0.1-0.7,0.2-1.4,0.4-2.4c-0.7,0.6-1.1,0.9-1.5,1.3c0.1-0.9-0.3-2,0-2.8   c1.4-0.6,0.3-1.9,0.8-2.8c0.4,0.5,0.9,0.9,1.3,1.4c0.3,2.6-0.2,5.3,0.9,7.7c-0.5,0.9-1.5,2.4,0,3c0.3,1.2-0.7,2.7,0.6,3.5   c1,2.8,0.8,6.1,2,8.5c0.2,0.6-0.3,1-0.6,1.4c0,0,0,0,0,0c-2.7-3.2-3.3-8.3-3.7-12.4C434.4,382.6,433.7,384.1,434,385.7z    M373.6,559.9c-0.7,0.5-1.4,0.9-2.2,1.4c-5.5-5,9.4-9.5,13.4-8.9c0.5,0,1.1,0.6,1.6-0.4c-0.9-1.9-1.8-3.9-2.8-6.1   c-3.6-0.1-5.6-2.5-7.4-5.4c-3.4,1.3-6.3,3.4-9.9,3.1c-0.8,6.2-0.9,12-4.1,17.6l0-0.1c-0.5,0.1-0.9,0.2-1.3,0.2   c-0.7-0.6-1.2-1-1.8-1.5c-4.8,4.2,0.1,8.5-0.5,13.3c-0.5,5.7-5.2,9-4.6,14.9c2.6,0.7,4.9,1.1,7.4,0.6c0.1-1.4,0.3-2.7,0.4-4   c3.1,2.4-0.3,7.8,2.6,10.7c14,0.4,28.1,0.3,41.4-4.2c0.8-2.7,0.6-5.8,0.1-8.6c-7.8-5.6-12.2-16-16.1-24.1l0,0.1   c0.4-2.1-1.5-2.9-2.5-4.4C382.3,554.7,377.7,556.9,373.6,559.9z M425.1,406.7c-1.3-1.2-2.6-2-4.2-2.5c-0.5,1-0.2,1.4,0.1,2.5   C422.4,406.7,423.6,406.7,425.1,406.7z" />
	<path display="inline" d="M409.8,53.5c-0.5-0.8-0.9-1.6-1.4-2.4c2.1-6.3-6.2-11.6-1.7-19.4c1.5-2.3,0.3-5.4,1.8-7.4   c1.1-1.2,1.7-3.6,1.4-4.9c0.9-0.9,1.7-0.7,2.9,0c-0.5,1.1-2.3,1.8-1.6,2.8c1.4-0.6,2.7-1.3,3.9-1.8c1.1,0.5,2,0.8,3,1.2   c0.4-1,1.4-1.7,0.6-2.7c-1,0.2-1.8,0.4-2.7,0.5c-0.6-0.7-1.1-1.3-1.6-1.9c-0.9,0.1-1.8,0.3-2.7,0.4c-0.1-0.6-0.2-0.9-0.3-1.3   c1.5-4,1.8-6,5.9-2.8c-0.1-4.1,4.7-2.9,6.6-5.7c2.6-1.3,2.6-5.2,5,0c0.8-1.1,1.5-2,2.2-2.9c4.6,0.1,9.1-1.3,14.2-0.1   c2.1-1.3,6.1-2.4,8.8-2.6c0.6,0.5,1.1,0.8,1.8,1.3c1-1.1,2-2.2,3.1-3.3c2.3,1.2,1.4,3.8,2.1,5.8c1.3-0.4,2.4-0.8,3.7-1.2   c0.7,0.6,1.3,1.3,2.1,2c-0.6,0.8-1.1,1.4-1.6,2.1c3.6,0.2,3.1,2.5,2.8,5.4c-2.1,2.2-5.5,3.2-7.3,6.2c0.5,3.6,1.1,7.5,1.7,11.3   c-0.3,0.3-0.6,0.6-0.9,0.9c-2.6-2.8-2.2-7-3.4-10.6c-7.2,0.8-15.2-2.4-20.6,2.7c0.5-3.3-3.8-3.5-5.9-4.9c-0.7,1.1-1.3,2.1-1.9,3   c1.7-0.8,3.2-0.2,4.8,0.1c0.1,1.1,0.4,2.1,1.5,2.6c0.1,1.7-1.5,2.5-1.8,3.9c-1.3,0-2.3,0-3.4,0c-1.6,4.1-4.1,7.7-5.9,11.7   c-1.6,3.3-1,9.5-4.9,10.7c0.2-0.7,0.3-1.2,0.4-1.8c-1.9-1.8-0.5-4.4-2-6c-1.6-4.3-6-0.7-7.1,2c-0.8,2.9,2.3,5.1,2.9,7.9   c-0.6-0.4-1.3-0.8-2-1.3C411.5,54.1,410.6,53.8,409.8,53.5z M439.6,16.6c-1.2,0-1.7,0.5-1.2,1.8C439.4,18.1,439.6,17.5,439.6,16.6   c0.2,0,0.5,0,0.7,0c0.1,0.6,0.1,1.3,0.2,2.1c3.8-0.7,6.3,2.5,10.1,2c-0.4-0.5-0.8-0.9-1.1-1.3c2,0.2,1.3-2.1-0.4-1.2   c0.1,0.4,0.3,0.8,0.4,1.2c-1.6-0.6-3.2-1.2-4.6-1.8c-0.6,0.1-1.2,0.3-1.7,0.4c-0.2-0.2-0.5-0.5-0.7-0.7c1.4-0.6,1.4-0.6,1.8-2.5   c-1.1,0.5-1.8,1.2-1.8,2.5c-0.7-0.2-1.4-0.5-2.1-0.7C440,16,439.8,16,439.6,16.6z M421.9,19.4c1.8,0.1,2-1.1,2.2-2.8   C422.6,17.4,421.8,18.1,421.9,19.4c-0.8,0-1.6,0.1-1.9,1.3C421.1,20.7,421.6,20.2,421.9,19.4z M421.1,34.3   c-0.6-1.1-1.5-0.8-2.4-0.6c-0.4,0.6-1,1-0.6,1.8C419.2,35.2,420.2,34.7,421.1,34.3c0,0.8,0,1.6,0,2.9c1.5-1.5,2.4-1.6,1.8-3.7   C422.2,33.9,421.7,34.1,421.1,34.3z M426.8,17.4c-1,1.7-4.7,3.4-3,5.3C424.7,21.2,429.1,19.3,426.8,17.4z M465.1,11.6   c-0.2-0.2-0.3-0.4-0.5-0.5c-1,0.4-2.2,0.4-3,1.2c0.2,1.9,0.2,1.9,1.6,2.1C463.8,13.4,464.4,12.5,465.1,11.6z M415.5,31.9   c-1.7,1.5-1.8,2.9-0.9,5.7C416,36,415.3,34.2,415.5,31.9z M421.4,13.4c0.2,0.3,0.4,0.5,0.7,0.9c1.3-0.4,4.9-1.2,3.4-3.2   C424.2,11.8,422.8,12.5,421.4,13.4z M428.4,27.3c-0.2,0-0.5,0.1-0.7,0.1c0.2,1.3-1.3,2.3-0.5,4.1c0.9-1.2,2.1-1.7,2.4-3.2   C429.2,28,428.8,27.6,428.4,27.3z M456.2,5.3c-0.3,1.1-0.6,2.1-1,3.3c1.7-0.1,2.2-1.1,2.7-2C457.4,5.7,457.2,5.6,456.2,5.3z    M439,12.5c0.2,0.1,0.3,0.2,0.5,0.3c0.8-1.3,3-2.1,2.7-3.8c-0.8,0.3-1.7,0.5-2.4,0.7C439.5,10.9,439.2,11.7,439,12.5z M435,15.6   c0.3,0.1,0.5,0.1,0.8,0.2c0-1.5,1.6-2.7,0.4-4.8C434.9,12.3,435.6,13.9,435,15.6z M420.2,46.3c1.7,0.4,4.3-3.1,2.1-3.2   C421.7,43.9,421.1,44.8,420.2,46.3z M448,12.5c-1.6,0.1-2.1,0.8-2.6,1.8C447,14.6,447.7,14.1,448,12.5z M456.2,20.1   c-1-0.6-1.6-0.9-2.2-1.2c-0.3,0.4-0.6,0.6-0.8,0.9C453.9,20.8,454.7,21.1,456.2,20.1z M433.9,9.5c0.2-0.1,0.4-0.3,0.7-0.4   c-0.1-0.5-0.2-1.1-0.4-2c-0.7,0.6-1.1,0.9-1.6,1.3C433.1,8.9,433.5,9.2,433.9,9.5z M408.4,42.8c0.5,0.5,0.9,1,1.5,1.6   C410.3,42.8,410.3,42.8,408.4,42.8z M447.7,9.8c-0.4-0.5-1,0.1-1.5,0.2c0.2,0.3,0.3,0.5,0.5,0.8C446.9,10.4,447.8,10.3,447.7,9.8z" />
	<path display="inline" fill="#020102" d="M284.2,93.9c-11.3-0.5-22.4-1.2-33.6-3c-5.1-4.2-1.5-11.7,5-10   c10.8,1.4,21.8,1.7,32.7,2.8c0.3-1,0.6-1.9,0.9-2.7c1.6,0.7,0.2,2.4,1.5,3.5c1.3,0.1,2.7,0.4,4.2-0.3c0.4-22.9,23.7-56.8,49-42.8   c0,0.2,0,0.5,0,0.7c-25.5-11-46.8,19.3-47.2,42.3c10.9,0.3,21.1,2.3,31.8,2.3c1.5-3.6,5.1-3.1,7.8-4.2c11.8,4.5,11.9,16.5,0.5,20.7   c3.8,6,7.7,20-1.2,23.2c-4.3-1.4-4.3-1.4-6.7-5c0.9-6.3,0.5-12.7,1.4-19.1c0.2-0.1,0.4-0.1,0.4-0.4c-5.5,4.3-4,18.6-9.7,20.9   c-5.6-1.7-9.5-8-8.2-13.7c4.3-3.1,7.2-8.1,11.9-11.5c-9.8-0.7-19.2-2.4-28.8-2c1.5,18.8,9.5,41.2,28.7,48.3   c-20.5-3.3-29.1-30.2-30.5-48.5c-1.5-0.9-1.5-0.9-4-0.9c-1.4,0.4-0.1,2.1-1.3,2.3c-0.1-0.9-0.2-1.8-0.4-2.9   C286.9,93.7,285.5,93.8,284.2,93.9z M322.5,102.9L322.5,102.9c-5.4,4.4-11.1,13.6-1.7,17.2c2.4-8,5.3-15,9.9-22   c-1.1-0.2-2.3-0.2-3.3,0C325.7,99.8,324,101.2,322.5,102.9z M332.6,112.2c0,3,0.1,6,0.1,8.9c1.3,1.2,1.3,1.2,2.8,1.6   c5.8-7-0.1-16.9-1.8-24.5c-1.5,0.1-2.2,0.7-1.8,1.5C333.2,103.7,332.2,108.1,332.6,112.2z M341,88.2c-2.2-4-8.3-4.8-10.3-0.9   c7.8-0.7,10.1,6.8,3.9,11.1c0.4,0.9,0.9,1.9,1.4,2.8C342.2,100.7,345.1,92.5,341,88.2z M255.6,89.9c20.1,1.5,40,3.3,60.1,4.8   c5.6-0.7,20.5,5.6,20.4-3.4c-5.3-4.3-13.7-2-20.2-3.3c-19.8-1.5-39.7-3.9-59.5-4.6c0.2,1.4,0.4,2.9,0.6,4.3   C256.5,88.5,256.1,89.1,255.6,89.9z M252.9,82.7c-3.7,2-4,3-1.9,6c1.2,0.1,2.5,0.3,3.4-0.8C254.8,85.2,254.8,85.2,252.9,82.7z" />
	<path display="inline" fill="#060506" d="M284.2,93.9c1.4-0.1,2.8-0.2,4.3,0.1c0.1,1,0.3,1.9,0.4,2.9c1.2-0.2-0.1-1.9,1.3-2.3   c2.4,71.5,75.7,73.2,81.5,1.9c3.6-72-72.2-87.7-80.3-12.6c0.8,0,1.7,0.1,2.5,0.1c0.5-0.6,0.9-1,1.3-1.4c0,0.6-0.1,1.1-0.1,1.8   c-1.5,0.6-2.9,0.4-4.2,0.3c-1.2-1,0.1-2.8-1.5-3.5c1.8-26.8,23.6-53.6,52.5-48c-0.6,0.3-1.1,0.7-1.7,1   c42.1,16.4,43.2,83.6,10.9,110.1l0,0c-0.6,0-1.2,0-1.4,0.7c-5.5,3.8-11.5,5.4-17.9,6.7c4.4,0.5,8.6,1.1,13,0.5   c1.1,1,2.5,0.6,3.9,0.7c-34.4,6.8-61.1-25-60.5-58C286.6,94.5,285.4,94.2,284.2,93.9z" />
	<path display="inline" fill="#070708" d="M591.9,65.4c6.9-1.5,13.9-0.8,20.5,1.5c0,0.2,0,0.5,0,0.7c-0.8,0-1.6,0-3.1,0   c37.7,17.2,38.3,83.9-4,95.4c23.1,2.3,36.9-20.7,39.1-40.9c2.2-3-1-8.5,1.4-11.4c0.2,0.4,0.4,0.8,0.7,1.4c7,1.4,27-0.4,16.2,11.7   c-5.5-0.3-10.9-0.7-16.5-1.2c-1.7,25.4-24.1,49.2-50.7,40.5c55.3-2.4,52.2-97.4-2.8-97C592.4,65.9,592.2,65.7,591.9,65.4z    M662.9,117c-4.2-3.4-11.3-2-16.5-2.4c0.4,2.3-1.1,3.9,0.3,6.2C650.6,120.3,666.4,125.2,662.9,117z" />
	<path display="inline" fill="#060508" d="M384.2,213.6c5.4-2.5,0,28.5,6.5,33.7c1.1,0.1,2.1,0.2,3,0.2c0.5,0.6,0.8,1,1.2,1.4   c17.8,0.5,35.4,0.9,53.2,0.7c0.8,0.9,1.9,0.8,3,0.8c-0.9,1.1-1.2,2.3-0.2,3.6c-2.7,1.5-6.6,0.7-9.8,1.4c-0.2-0.2-0.5-0.5-0.7-0.7   c0.3-0.3,0.6-0.6,0.8-1c1.2,0.5,2.4,0.4,3.7,0c-0.1-0.6-0.2-1.3-0.3-1.9c0.5-0.2,1-0.5,1.5-0.7c0,1.1-0.6,3.6,1.4,2.1   c0.8,0,1.2,0.2,2.1,0.5c-0.1-1-0.2-1.7-0.3-2.4c-1.4-0.3-1.1,0.6-1.2,1.2c-0.2,0.2-0.4,0.4-0.6,0.7c-0.3-0.7-0.6-1.4-0.8-2   c0.1-0.2,0.2-0.4,0.4-0.8c-9.3,0.7-18.9,0-27.9,1.4c-6.7-0.7-3.4,1.5-5.4,4.9c-1-1.5-0.8-3.1-0.7-4.8c-1-0.2-2-0.5-3-0.7   c-0.2,1.9-0.2,1.9,0.5,3.4c-2.5,1.6-2.1-2.2-2.8-3.6c-1.6-1.3-3.3-1-5-0.1c-1.9,1.8,1.1,3.7-0.5,5.7c-1.6-1.8-0.3-4-1.6-5.6   c-0.3,0.1-0.8,0.2-1.3,0.3c0,1.6-0.1,3.1-0.1,4.6c-0.3,0-0.5,0-0.8,0c-0.1-1.6-0.2-3.2-0.3-4.8c-1.8,0-3.4,0-5.2,0   c0,1.4,0,2.7,0,4.2c-1-1.2-1.1-1.2-1.1-2.5c0.4-1.6-2.4-5.2-3.5-3.1c-0.4,0.2-0.8,0.4-1.2,0.6c-0.4,2.1,0.4,4.4-1.5,6.3   c-0.7-2.5,0.9-4.8-1.1-6.7c-1.4,3.7,0.8,7.6-1,11.1c-0.1-0.7-0.1-1.4-0.9-1.6c0.1-0.6,0.4-1.4,0.2-1.7c-1.4-2.1-0.8-4.3-0.6-6.5   c-0.1-3.1,1.3-3,3.8-3.4c-0.8-11-1.7-22.1-1.1-33.5C384.9,214.2,384.5,213.9,384.2,213.6z" />
	<path display="inline" fill="#050507" d="M382.8,259.5c0.8,0.2,0.8,1,0.9,1.6c-6.3,7.2,0,18.4-4.3,25.8c1.8,18.9-4.4,36.8-2.8,55.5   c-1.1,0.5-0.6,1.6-0.8,2.4c-2-10.1-1.4-20.4,0.7-30.4C379,299.3,373.6,270.7,382.8,259.5z" />
	<path display="inline" fill="#363944" d="M362.3,51.3c-5.8-7.7-12.8-14.6-22.3-17.4c4-2.5,9.2,0.1,13.1,1.7   c-0.4,0.1-0.8,0.2-1.2,0.4c7,3.8,15,7.4,18.9,14.6C368.1,50.9,364.8,49.8,362.3,51.3z" />
	<path display="inline" fill="#0F0C0D" d="M370.9,50.6C367,43.4,359,39.8,352,36c21,3.4,32.2,29.2,33.8,48.6   c-1.9,2.3-0.3,6.4-0.8,9.3C383.6,79.2,381.8,62.1,370.9,50.6z" />
	<path display="inline" fill="#0E0B0B" d="M591.9,65.4c0.2,0.3,0.5,0.5,0.7,0.8c-17.7,3.5-31.7,19.9-33.6,37.9   c0.6,0.4,1.2,0.7,1.8,1c-2.7-0.4-6.4,1-8.6-0.7c1.6,0,3.3,0,4.9,0C559.1,86,573.2,67.2,591.9,65.4z" />
	<path display="inline" fill="#151113" d="M612.5,67.6c0-0.2,0-0.5,0-0.7c19.5,4.4,32,25,33.4,43.9c-2.4,2.9,0.8,8.4-1.4,11.4   C646.3,99.4,634.9,75.3,612.5,67.6z" />
	<path display="inline" fill="#0C0D0E" d="M597.6,162.5c-0.8,0.1-1.7-0.3-2.2,0.7c-12.9-0.4-24.2-8.4-31.8-18.4c0.5,0,1.1,0,1.3-0.7   C573.5,154,584.8,161.5,597.6,162.5z" />
	<path display="inline" fill="#141110" d="M461.5,32.9c0.3-0.3,0.6-0.6,0.9-0.9c3.7,4.3-1.9,13.2-0.9,18.8c-1.7-2.6,0.2-5.3-1.2-8   c-1.8,1.5-4.5,0.2-5.8,1.4c-3.1-4.5,3.9-6.5,7-8.3C461.5,35,461.5,34,461.5,32.9z M456.8,41c1.6-0.2,3.2,0.8,3.8-1.2   C458.3,40,458.3,40,456.8,41z" />
	<path display="inline" fill="#2F1918" d="M409.8,53.5c0.9,0.3,1.7,0.6,2.3-0.6c0.8,0.5,1.4,0.9,2,1.3c0,0,0,0,0,0   c-0.1,0.9-0.1,1.8-0.2,2.7c0.8,0.2,1.7,0.3,2.8,0.5c-0.5-1.1-0.8-1.8-1.1-2.6c1.3,0.4,1.8,1.1,3.5,1.1c-2.2,2.2-1.7,4.7-2.8,6.8   c-0.1-0.8-0.1-1.6-0.2-2.6c-3.4,1-0.9,4.7-2.6,6.8C411.9,62.5,411.6,57.8,409.8,53.5z" />
	<path display="inline" fill="#343636" d="M411.2,16.7c0.1,0.3,0.2,0.7,0.3,1.3c0.9-0.1,1.8-0.3,2.7-0.4c0.5,0.6,1,1.2,1.6,1.9   c0.9-0.2,1.8-0.4,2.7-0.5c0.8,1-0.1,1.7-0.6,2.7c-1-0.4-1.9-0.8-3-1.2c-1.2,0.5-2.5,1.2-3.9,1.8c-0.7-1,1.1-1.8,1.6-2.8   c-1.2-0.7-2-0.9-2.9,0C408.3,18.7,410.7,17.4,411.2,16.7z" />
	<path display="inline" fill="#222736" d="M437.5,392.1c0.4,0.5,0.9,0.9,1.3,1.4c0.9,4,1.8,7.9,1.5,12c-1,0.4-0.6,1.3-0.7,2.1   C438.3,402.8,437.9,397.2,437.5,392.1z" />
	<path display="inline" fill="#1C1919" d="M418.3,11c-1.1,0.5-0.8,1.7-1.2,2.8c-1.4-0.5-2.4-2.2-3.8-1.5c-1.1-0.9-2.5-1.7-2.2-3.6   C414.5,7.8,415.4,10.6,418.3,11z" />
	<path display="inline" fill="#2A2729" d="M469.3,578.4c-0.5-0.7-1-1.4-1.4-2.1c0.3-3,2.5-5.3,2.2-8.5c0.5,0.5,0.9,0.9,1.4,1.4   C472,572.6,468.7,575.1,469.3,578.4z" />
	<path display="inline" fill="#22201F" d="M363,451.5c0,1.3,0,2.5,0.7,3.6c-0.4,1.7-0.8,3.4-1.3,5.2c-0.3-0.3-0.5-0.6-0.8-0.9   C362.1,456.7,362.5,454.1,363,451.5z" />
	<path display="inline" fill="#22201F" d="M361.6,459.9c0,4.6,0,9.2,0,13.8C360.6,469.3,360.5,464.4,361.6,459.9z" />
	<path display="inline" fill="#ACAAAA" d="M484.2,231.8c-0.9-1.6-0.7-3.3-0.7-5.5C485.4,227.8,485.1,229.7,484.2,231.8z" />
	<path display="inline" fill="#363944" d="M340.5,32.8c-3.6,0-7.2,0-10.8,0C333.1,32.1,337.1,31.9,340.5,32.8z" />
	<path display="inline" fill="#BBC2C2" d="M434,385.7c-0.3-1.7,0.4-3.1,1.2-4.6c0,0.8,0.1,1.7,0.1,2.5   C434.9,384.3,434.4,385,434,385.7z" />
	<path display="inline" fill="#484C59" d="M332.5,152.7c1.5,0.1,3.1-0.5,4.3,0.6C335.4,153.4,333.9,153.6,332.5,152.7z" />
	<path display="inline" fill="#373A46" d="M589.8,65.6c-0.6,0.9-1.4,0.7-2.2,0.5C588.2,65.4,588.9,65.4,589.8,65.6z" />
	<path display="inline" fill="#484C59" d="M329,151.9c0.6-0.1,1.2-0.1,1.5,0.6C329.8,152.8,329.3,152.5,329,151.9z" />
	<path display="inline" fill="#5876E8" d="M441,255.4c2.6-0.2,5.1-0.4,7.7-0.6c4.7,2.4,10.4-1.9,15,0.5c-0.1,0.4-0.2,0.8-0.3,1.1   c-3.1-1-1.8,2.1-3.3,3.2c-0.6-0.6-1.1-1.2-1.9-0.3c3,6.7,3,13.5,5.9,20.3c1.1-5.6-2.8-10.4-1.5-15.8c1.2,6.1,4.2,15.8,6.2,17.7   c2-7.9-2.8-16-1.7-24.1c-0.6-0.5-1.1-1-1.8-1.6c1.8-1.8,3.4,0.1,5.1-0.3c0.8,2.6,1.3,9.9,5.2,8c-0.4-2.2-2.2-4-2.7-6.6   c1.3-1.8-0.2-4.1,0.3-6.5c1.1,0.3,2,0.6,3.2,1c-0.5,7.7,3.5,14.6,8.9,19.8c2.6,7.5,3.7,15.5,6,23c0.3,0.1,0.7,0.3,1.4,0.6   c9,30.6,6.9,63.3,12.8,94.5c-6,8.2-17.6,5.2-26.2,7.8c-8.6-15.8-25.3-28.3-21.2-48.1c8.1,6.4,12.7,18.4,22.5,21.4   c-2.5-8-9.2-14-13.7-20.6c0.5-0.1,0.9-0.3,1.6-0.5c-7.5-4.5-11.7-9.6-10-18.8c4.3-1.5,6.9,2.3,10.8,2.2c-0.1-0.6-0.1-1.3-0.2-1.9   c-1.1-0.3-2-0.5-2.9-0.8c-3.9-9.1-11.4-14.6-18.2-21.4c0.7-8.3-1.2-15.7-1.6-23.7c-2.9,9.5,3.8,23.5-4.7,30.3c0,5.4,0,10.4,0,15.7   c4.8,4.4-8.4,28.6-7.1,37.2c-0.1,0.2-0.2,0.3-0.1,0.5c-0.7,0.6-0.7,1.5-0.6,2.3c-0.1,0.2-0.2,0.3-0.1,0.5   c-2.7,10.9-3.8,22.2-7.1,33.2c-10.4-5.5-21.4-8.6-32.4-12.5c-1-14.5-1.7-29.7,1.3-43.9c3.6,2.1,2.1,7.6,4.7,10.5   c1.3-2.2,1-4.5,1.3-6.7c0.9,0,1.7,0,2.6,0c-3.9-18.8-4.7-38.2-1-57.1c1.6,3.8,0.4,7.9,3,11.5c6.3-15.8,0.1-33.6,3.1-49.7   c0.8-0.4,1.4-0.6,2.2-1c-1.6-1.4-1.7-2.1-1.4-4.3c1,0.2,2,0.5,3,0.7c-0.1,1.7-0.3,3.3,0.7,4.8c2-3.5-1.3-5.6,5.4-4.9l0,0   c0.2,0.9,0.4,1.8,0.5,2.7c1.6-0.2,0.3-2.2,1.8-2.7c1.1,0,2.7-0.4,3.5,0.8c-0.2,1.1-0.5,2.1-0.7,3.3c6.1,0,1.1,14.1,3.8,18   c0.7-0.2,1.3-0.5,1.8-1c0.2,0,0.4,0,0.7-0.1c1.7,3.2,0.6,7.9,1.7,11.6c0-9.1,3.5-18.9,0.5-27.7C434.9,256.1,440.2,258.2,441,255.4z    M437.4,334.6c1.2-1,2.8-1,3.3-2.8c-3.7,1.6-6.6,3.4-9.9,5.5C433.4,337.3,435.3,335.7,437.4,334.6z M428.9,304.2   c6,7.6,6.6,8.2,9.2,9.2c-4.1-3.8-6.3-9.6-11.4-12.1C427.6,302.6,428,303.6,428.9,304.2z M424.7,370.2c3-4.1,11.3-7.5,9.3-13.3   c-2,6.3-7.4,10-11.8,14.7C424,371.3,423.9,371.2,424.7,370.2z M485.1,294c1.1-6.5-6.1-19.9-9.2-26.3   C474.9,272,483.1,289.6,485.1,294z M446.4,259.8c-4,0.1-0.5,19.8,0,23.6C446.4,275,446.4,267.5,446.4,259.8z M413,272.3   c2.3,5.7,2.9,13.7,7.9,16.6C419.1,285.9,416,271.8,413,272.3z M487.2,330.6c1.9,3.9,3.5,5.7,5.7,6.3   C491.1,334.9,489.9,330.2,487.2,330.6z M418.1,266.9c0.1-2.5,1-6.5-0.6-8.4C416.8,261.3,416.7,264.1,418.1,266.9z" />
	<path display="inline" fill="#CCD2E9" d="M448.1,249.7c-5.6,0-11.6,0.6-17-0.7c-1.3-6.9-2.6-14.9-6-21c-1.5,0.9-1,2.2-1.1,3.3l0,0   c-0.9,0.9-0.9,5.5,0,6.4c0,3.8,0.1,7.5-0.1,11.3c-2.9-0.1-5.6,0.4-8.4-0.3c0.9-19.5-3.7-39.2,0.4-58.3c1.1,0.5,2.1,1,3.1,1.5   c2.7-2.5,0.5-5.4,0.1-8.3c2.6-5.9,1.1-12.9,5.6-18l0,0c4.6-1.3,11,1,14.3-2.8c-1.4,0-2.5,0-3.6,0c-5.2-6-15.1-5-20.6-10.7   c-1.9-9.3-2.4-28.5,6.9-33.7c7.9,10.3,18.4,28.8,33.9,21.1c12.6-5.7,13.9-18.2,9.9-30.2c12.5,7.5,18.6,26.9,19.7,41.8   c1.7,6.3-5.9,10.7-5.9,16.7c-2,24.4,1.8,50.8-5.6,74.5c0.6,2.3,0.6,2.3-0.3,6c-0.6,0-1.3,0.1-1.9,0.1c0-0.6-0.1-1.3-0.1-2   c-1.1,0.4-1.3,1.1-1.3,2C463.1,249.7,455.1,247.4,448.1,249.7z M472.2,194.5c0.2,5.5-0.3,11.3,0.2,16.7c1.4-3,2.5-18.5-0.8-20.3   C471.8,192.2,472,193.4,472.2,194.5z M466.8,165.2c2.8,0.1,6.6,2.6,8.9,1.1c-1.6-2-5.6-2.4-9.9-2.3l0,0c-1.2-7.2-15.3-9.6-21.7-9.9   c-0.8,2.4-3.2,4.6-2.9,7c0.8-0.3,1.6-0.6,2.5-0.9c2.5,2.3,6.1,5.1,9.7,2.4C457.4,165.3,462,165.7,466.8,165.2z M433.8,176.3   c-4.1,1.4-8.5,10.6-5.9,14.4C428.8,185.3,431,180.7,433.8,176.3z M473.9,186.8c-0.7-3.4-4.3-10.2-8-9.9   C469,180.1,470.2,184.5,473.9,186.8z M447.9,221.6c-1.8,3.8-2.3,9.1,0,12.4C448.3,231.9,448.3,225.1,447.9,221.6z M447.7,209.5   c-0.6,3.4-1.3,7.7,0.9,10.2C448.8,217.7,448.3,211.9,447.7,209.5z M427.4,198.1c-1.8,1.5-1.9,2.8-0.4,4   C427.8,200.8,427.5,199.5,427.4,198.1z M449.7,153.3c1.3-0.6,1.3-1.5,0.7-2.8C449.1,151.2,449.4,152.2,449.7,153.3z M470.3,223   c0.5-1.5,0.9-2.5,0.4-4.3C469.8,220.3,469.8,221.4,470.3,223z M460.4,171.5c-1.1-0.8-1.7-1.7-2.7-0.9   C458.1,171.6,458.8,172,460.4,171.5z M427.3,203.8c-1.9,0.2-1.1,1.3,0,2.4C427.3,205,427.3,204.4,427.3,203.8z M452.1,145.5   c-0.5,0.2-0.8,0.3-1.3,0.4c0.4,0.6,0.7,1.1,1.5,2.4C452.2,146.9,452.2,146.3,452.1,145.5z M447.5,205c1.1-1,1.1-1,0-1.8   C447.5,203.8,447.5,204.3,447.5,205z M464,174.5c0-1.6,0-1.6-1.2-1.6C463.2,173.6,463.6,174.1,464,174.5z M448,196.5   c-0.8,0.7-0.8,1.2,0.2,2.1C448.1,197.7,448,197.2,448,196.5z" />
	<path display="inline" fill="#373A46" d="M597.6,162.5c-22.5-1.5-42.6-23.8-40.2-46.4c8,0.5,15.7,1.6,23.6,1.9   c3.4,8.2,13.4,11.9,21.2,7.6c-0.3-0.8-1.4-1.1-1.2-2.1c0.3,0,0.5,0,0.8,0c1.2,1.9,2.6-1.5,3.5-2.2c0.1,0.2,0.3,0.3,0.5,0.6   c11.4-15.4-14.2-35.9-23.3-15.6c-7.2,0.3-14.4-1.6-21.7-1.2c-0.6-0.3-1.2-0.7-1.8-1c4.6-36.7,47.8-53,68.4-18   C645.3,112.7,633.8,160.9,597.6,162.5z" />
	<path display="inline" fill="#FBDFD3" d="M502.7,410c1.1,8-2.6,15.9-0.2,23.9c-0.4,1.5-1.5,2.7-1.1,4.2c0.4-0.4,0.7-0.7,1.2-1.3   c4.8,31.6-2.3,63-4.6,94.6c-2.1,0.8-4.2,1.6-6.4,2.3c-1,3-3.4,5.1-4.5,7.9c-2.3-5.8,0.8-13.5-2.4-19.5c-4.8-15.9-6.4-32.6-12.9-48   c-0.1-15.3,1.8-30.8,7.3-45.2c2.2,1.4,3.5,3.5,5.7,5.1c-0.4-8.7-4.3-15.5-10-22.1c2.3-1,13.7-7.6,15-6.3c-0.1,1.2-1.3,2.1-0.8,3.6   c6.1-2.8,5.9-11.2,13.6-12.8C502.6,401.1,502.7,405.3,502.7,410z M489.3,423.8c0.2,4.1,3.2,8.6,6,8.5c0.5-0.6,1.1-1.3,1.6-1.8   c0.2-5.6-0.5-13.1-6.4-15C487.3,417.1,488.4,421.1,489.3,423.8z M483.3,446.4c0.9,6,1.7,10.7,2.5,16.6   C488.8,458.7,485.4,447.7,483.3,446.4z M485.3,470.3c1.3-1.9,1.8-3.3,0-4.6C484.7,467.2,484.7,468.5,485.3,470.3z M485.4,484.5   c0.4-1.7,0.4-1.7-0.3-2.9C484,483.4,484,483.4,485.4,484.5z M485.4,474.4c-1.8,0.6-1,2.2,0,3.4   C485.8,476.4,486.1,475.4,485.4,474.4z M500.5,445.3c0.2-1.6,0.6-2.7,0.6-4.2C499.5,443,499.5,443,500.5,445.3z M483.3,440.1   c-0.4-1-0.4-2.2-1.8-2.6C481.7,440,481.7,440,483.3,440.1z M487,411.7c-1.8,0.9-1.8,0.9-1.5,2.2C486.5,413.7,487.2,413.3,487,411.7   z M483.4,413.9c-1.2,0.5-2,0.9-1.1,2C483.2,415.7,483.8,415.3,483.4,413.9z M485.4,487.4c-0.3-0.5-0.5-0.4-1-0.2   C484.7,487.8,485,487.7,485.4,487.4z" />
	<path display="inline" fill="#FBDFD3" d="M419.1,107c2.2,0.9,4.4,0,5.6-0.2c3.2-0.2,3.3,2.8,5.6,3.1c-0.3-0.9-0.6-1.8-0.9-2.8   c0.4-0.3,0.8-0.7,1.2-1.2c0.8,0.4,1.6,0.8,2.4,1.1c0.7-1.3-1-1.8-1.7-2.9c0-1.4,0-2.9,0-4.4c1.8-0.5,3.4-1,5.2-1.6   c1.6,3.1-0.2,6.5-0.1,10.4c-7.4,8.2-20.4,4.5-24,17.4c-2,26.7,5.4,60.5-13.1,82.5c-7.2-1.7-14.8-3.8-19.9-9.6   c3.4-9.8,2.8-19.4,5.1-29.2c6.7-10.7,7.4-24.3,13.9-34.7c-0.4-5.7,3-10.3,4.3-15.5c0.2-1.6-2-1.4-1.8-2.8c3.3-0.3,6.5,2.2,9.6,0.6   c0-3.1-4.5-3.4-6.2-5.5c0-0.7,0.1-1.4,0.1-2.3c2.5-0.4,4.9-0.8,7.7-1.2c0.6-0.2,0.5-1.9,1.9-1.7c1.5,0.7,2.9,1.4,4.4,2.1   C419.3,108.5,419,107.7,419.1,107z M394.3,190.3c0.8-2.2,0.8-2.2,0.1-4.1c-0.8,2.9-5,7.9-3.2,10.4   C393.3,195.7,393.6,192.3,394.3,190.3z M411.3,164.5c-1.5-1.6-2.7-3.1-4.4-4.5C406.6,162.4,408.8,165.1,411.3,164.5z M395.3,184.2   c1.2-1.2,1.4-2.4,0.6-4.1C394.2,181.4,394.9,182.9,395.3,184.2z M408,120.6c-0.9,1.5-0.7,2.8,0,4.4   C408.7,123.4,408.8,122.1,408,120.6z M408.4,126.7c-0.1,0-0.3-0.1-0.4-0.1c-0.3,0.8-1.6,2.6,0.3,2.5   C408.3,128.3,408.3,127.5,408.4,126.7z M402.4,149.2c-1.3,0.8-0.9,1.3,0.2,1.7C402.6,150.3,402.5,149.8,402.4,149.2z M405.3,156.3   c0.4-2,0.4-2-0.9-1.8C404.7,155,404.9,155.5,405.3,156.3z M395.5,174.6c0.1,0.9,0.2,1.4,0.3,2.1   C396.8,175.9,397.2,175.4,395.5,174.6z M408.3,134.3c-0.1-0.2-0.1-0.4-0.2-0.6c-0.4,0.1-0.2,0.4-0.2,0.7   C408,134.4,408.2,134.4,408.3,134.3z M396.3,169.5c-0.1-0.1-0.3-0.2-0.4-0.3c-0.2,0.4-0.3,0.6,0.2,0.8   C396.2,169.9,396.2,169.7,396.3,169.5z" />
	<path display="inline" fill="#FBDFD3" d="M416.1,54.9c-0.2,0-0.4-0.1-0.6-0.1c-0.2-0.3-0.3-0.5-0.5-0.8c0-0.3,0-0.6,0-1   c3.6,1.3,2.8-3.2,3.3-5.2c0.2,0,0.5,0,0.6,0c0.4,0.8,0.9,1.6,1.3,2.4c-0.1,0.6-0.2,1.1-0.4,1.8c3.9-1.1,3.3-7.4,4.9-10.7   c1.8-4,4.3-7.6,5.9-11.7c1.2,0,2.2,0,3.4,0c0.4-1.4,1.9-2.2,1.8-3.9c0.2-0.8,1-0.6,1.5-0.7c5.4-5.1,13.4-1.9,20.6-2.7   c1.2,3.6,0.7,7.7,3.4,10.6c0,1,0,2.1,0,3c-2.9,1.7-6.2,2.3-7.8,5.4c-1.1,1.8-1.3,5.9,0.9,6.3c-0.1-1.1-0.1-2.3-0.2-3.4   c1.3-1.2,4,0,5.8-1.4c1.4,2.8-0.4,5.5,1.2,8c-3.2,9.7-1,20.4-6,29.8c-1.5,0.7-2.8,1.3-4.1,1.9c-2-0.5-3.7-2.1-5.9-1.6   c-2.1-0.1-5-3.4-6.4-1.2l0.1,0c-1.6-0.9-3.2-1.6-4.5-2.9l0,0c-2.7-2.5-6.2-4.1-9.2-6.2c0.4-3.9-1-7.3-3.4-10.4   C422.4,57,419.9,52.3,416.1,54.9z M455.2,69.6c0.4-1.8,5.4-4.2,1.2-5.1c-3.8,0.3-7.5,1.6-11.4,1.2c-0.9-0.1-1.3,0.8-1.1,1.8   c2,1.5,5,1.2,4.2,4.8c2.9,0.6,5.4,0.5,8-1.1C455.7,70.5,455.5,70.1,455.2,69.6z M438.2,39.3c0.7,0.7,1.4,1.4,2.1,2.1   c-1.6,1.6-5.1-0.2-5.5,2.7c5.9,0,9.8,1.4,10.9-2.5c1.2,0.1,1.8,0,3-0.4c-0.6-4.5-5.6-3.8-8.9-3.5c-1.1-1.3-8.7,2.4-6.9,3.7   C434.9,41.5,436,38.9,438.2,39.3z M449.7,58.9c0.5,0.4,0.9,0.7,1.3,1c0.6-0.5,1-0.9,1.6-1.3c1.5,0.3,3.2,1,3.9-1.2   C454.9,55.3,450.7,56.2,449.7,58.9z" />
	<path display="inline" fill="#FBDFD3" d="M533.1,114.4c2,4.7,3.1,10.7-0.6,14.9c-0.1,14.3,8.8,28.3,6.4,42.9   c-1.3,10.4-2.3,21.1-6.4,30.8c-6.3,1.5-13.4,1.2-19-2.4c2.1-0.7,4-1.3,6.2-2.1c-3.3-6.2-10.8-4.7-16.6-5.5   c-4.8-4.7-10.3-9.1-14-14.8l0,0c5,2.9,11.3,6.2,17.2,3.2c0.6,0.4,1,0.7,1.3,0.9l0,0c-0.4,2.6,0.4,4.5,2.9,5.7l0,0   c-0.3,1.7,1.7,3.3,3.2,3.7c0.6,0.4,0.6,1.6,2,1.1c-0.2-1.1-0.4-2.2-1.7-2.6c1-3.9,0.7-9,0.7-13.7c2-1.3,2.2-3.7,2.8-5.8   c1.5-7.1,5.9-13.5,5.7-21.1c0-3.9-0.4-7.8,0.4-11.6c0.4-1.2,0.8-2.7-0.4-3.9c-0.6-2.7,2.6-3.2,4.4-4.1c1.2,1.4,0.9,3,2.7,4   c0.2-3.6,1.4-9.1-3.3-9.9c-3.9,2.7-14.9-4.4-16.6-8.1c-2.5-8,0.5-6,4.9-10.3c2.1-0.8,3.2-3,5.6-3.6c0.5,1.2,1,2.2,1.6,3.4   c-1.6,1.7-3.7,2.3-4.3,4.6c-0.3,0-0.7,0-1.2,0c-0.7,1.8-2,4.6-0.3,6.2c3.9,0.4,10.8,2.6,12.8-2   C530.7,114.4,531.9,114.4,533.1,114.4z M525.3,187c-2.4,0.6-2.9,0.9-4.9,2.6C522.4,190.5,523,190.2,525.3,187z M525.6,185.6   c0.2,0.2,0.4,0.4,0.6,0.6c0.3-0.4,0.6-0.8,1-1.2c-0.1-0.1-0.3-0.3-0.4-0.4C526.4,185,526,185.3,525.6,185.6z M531.8,142.5   c-0.4-0.2-0.7-0.3-1-0.4C530.2,143.2,531.1,143.6,531.8,142.5z M530.9,138.5c-0.1-0.2-0.2-0.3-0.3-0.5c-0.4,0.2-0.1,0.5,0,0.8   C530.7,138.7,530.8,138.6,530.9,138.5z M530.7,146.5c-0.5,0.3-0.4,0.5-0.2,1C531.1,147.2,531,146.9,530.7,146.5z M529.9,181.8   c-0.1,0.1-0.1,0.1-0.2,0.2c0.1,0,0.2,0,0.4,0C530.1,182,530,181.9,529.9,181.8z" />
	<path display="inline" fill="#4B65C5" d="M467.2,348.1c0.4,0.3,0.8,0.7,1.4,1.1c-0.7,0.2-1.2,0.3-1.6,0.5   c4.5,6.6,11.1,12.6,13.7,20.6c-9.8-3.1-14.4-15-22.5-21.4c-4.1,19.8,12.5,32.3,21.2,48.1c-1.6,0.8-3.2,1.3-5,1.3   c0.4-0.3,0.9-0.7,1.3-1c-6-5.7-9.5-12.8-14.4-19.4c-0.1,6.9,2.8,14.3,4.5,21.1c-8.8,0-16.9,4.5-25.5,6.4c0.3-4.1-0.6-8-1.5-12   c0,0,0,0,0,0c0.8-0.9,1.1-2.7,0-3.6c-0.8-3.3-1.5-6.7-2.1-9.8c4.1,4.8,7,13.1,12.5,15.9c-4.8-8.4-14.1-16-13.4-26.6   c5.3-11.5,6.1-24.3,8.7-36.7c1-1.4,2.1-2.8,0.9-4.7c-0.4-2.5,1.3-5.6,0-8c-0.4,0.2-0.7,0.4-1,0.5c0.1-0.9,0.1-1.8,0.2-2.6   c2.8-0.1,3,0,3.3,2c0.2,2,1.3,4.4-0.2,5.7c0.4,3.3,0.2,6.2,0.2,9.1c-0.8-0.3-1.1-1.5-2.1-0.7C451.1,340,459.9,347.1,467.2,348.1z    M454.4,368.7c-3.4-1.8-6.1-10.6-9-10.3c2.4,4.4,5.6,10.5,10.2,12.1C455.8,369.4,455.2,369,454.4,368.7z" />
	<path display="inline" fill="#B7BDD5" d="M424,246.1c0-1.4,0-2.8,0-4.2c1.4-0.7,2.3-2.3,0-2.8c0-2.6,0-5.2,0-7.8l0,0   c4.7,4.2,3.4,11.9,5.4,17.6c1.2,0,2.1,0.1,3.1,0.7c-12.7,0.5-24.9-0.5-37.6-0.6c-0.4-0.4-0.7-0.9-1.2-1.4c-0.9-0.1-1.9-0.2-3-0.2   c-5.7-9.7-3.2-22.1-4.2-33c21.7,11.1,33.3-47.9,28.3-62.4c5.4,5.7,15.4,4.6,20.6,10.7c-0.3,0.7-1.8,0.6-1.1,1.8   c-3,0.7-6.4,0.3-9.6,0.9c0-1.4-1.6-1.7-1.7-0.2c0.6,0.3,1.1,0.3,1.7,0.2c-4.5,5.1-3.1,12.1-5.6,18c0.5,2.9,2.6,5.8-0.1,8.3   c-1-0.5-2-0.9-3.1-1.5c-4.1,19.1,0.5,38.8-0.4,58.3c2.8,0.3,8.5,1.3,10.6-0.4C425.6,247.3,425,246.6,424,246.1z M391.3,230.2   c-0.5,5.5,4.9,13.1,10.1,15.2C396.9,240.2,394.4,236.4,391.3,230.2z M432.9,163.5c-0.3-0.1-0.6-0.4-0.8,0   C432.4,163.9,432.6,163.9,432.9,163.5z" />
	<path display="inline" fill="#EECABA" d="M383.6,175.4c0,2.1-2.6,3.8-0.8,5.4c-0.1,2,0.6,4.1-0.6,5.8c-0.1-1.3,0.5-2.7-0.4-4.3   c-1.5,3-4,5.4-4.6,8.3c1.7,1.3,3-1,4.1-2c0,3.5-0.8,6.9-2,10.5c5.1,5.7,12.7,7.8,19.9,9.6c-2.6,2.2-5.1,4.8-8.5,5.7   c-0.4-0.7-0.8-1.3-1.4-2.1c-6.6-1.1-18.4-7.1-17.5-14.8c-11-12.9-9.4-13.7-9.2-30.3c0.5-0.4,1.1-0.7,1.6-1.1   c-1.7-5.1-6-9.9-6.5-15.7c3.9-3,7.7-5.8,11.4-8.7c1.1,4.3,2.5,8.5,2.3,13c-0.9,1.4-0.9,1.4,0,2.1c-0.7,1.5-2.1,1.9-3.5,2.1   c-0.1-0.4-0.2-0.8-0.3-1.7c-1.5,2.8-4,2.5-2,5.9c2.9,0.5,0.6-2.9,1.6-4.2c0.2,0,0.5,0,0.7,0c3.7,7.6-3.5,17.7,1.6,25.3   c0.5-0.2,0.8-0.4,1.1-0.5c0.1,1.8-0.2,2.5,1.6,3.8c0-2,0.2-2.8-0.3-4.3c-0.5,0-0.8-0.1-1.1-0.1c0.7-3.2-1.2-7,0.6-10   c0,2.3-0.7,4.7,0.4,7.2c9.3-17.8,18.5-35.9,22.8-56c6.1-5,5.1-13.4,4-20.5c1.2,0,2.2,0,3.2,0c0.7,0.7,1.5,1.3,2.3,2   c1.1,0,2.3,0,3.5,0c0.4-0.4,0.7-0.8,1.1-1.2c1.2-0.3,2.5-0.3,3.7-0.1c0,0.6,0.1,1.1,0.8,1.3c0.2,0.2,0.3,0.5,0.5,0.7   c-1.4-0.1-1.3,1.5-1.9,1.7c-2.8,0.4-5.2,0.8-7.7,1.2c0,0.9-0.1,1.6-0.1,2.3c1.8,2.1,6.3,2.4,6.2,5.5c-1.1,0.9-2.3,0.4-3.4,0.5   c0-2-1.8-3.1-3.7-2.6c0.7,0.8,1.1,1.3,1.5,1.8c-1.3-0.1-2.7-0.2-4-0.3c-0.1,1.5,2,1.3,1.8,2.8c-1.3,5.3-4.7,9.8-4.3,15.5   c-5.1,7-5.6,16.7-9.2,24.6c-1.4,4.9-5.4,9.1-5.6,14.2C382,173.7,382.1,175.7,383.6,175.4z M371.8,188.3c0.2,0.7,0.5,1.4,0.7,2.1   C373.1,189,373.1,189,371.8,188.3z" />
	<path display="inline" fill="#E4E4EB" d="M492,548.5c-2.5,2.2-7,5.2-2.1,8.2c2.5-6.1,9.7-6.1,15.2-7.9c0.8,0.7,1.6,1.4,2.4,2.1l0,0   c0.2,0.2,0.5,0.5,0.7,0.7l0,0c1.2,1.3,2,2.8,3,4.1c-0.2,0.2-0.5,0.6-0.7,0.5c-2.7-0.7-5.1,0.2-7.5,1.2c-2.7,0.6-5.4,5.5-1.5,6.2   c2.9-3,7.6-4.1,11.1-5.7c0.5,0.8,0.9,1.6,1.5,2.6c-2.9,0.3-11.4,1-8.8,5.3c3.8-0.2,6.9-2.4,10.5-3.7c3.4,5.9,9.3,7.7,15.7,8.7   c1.3,1.6,2.3,3.4,1.3,5.5c-14.4-0.2-34.3,13.7-44.6-2.7c-3.1-4.5-5.1,2.5-8.9,1.3c-1.9-0.5-3.7,1.6-5.4,0.2   c-1.2-6.6,2.1-12.8,1.9-19.4c0.3-4.6-1.1-9.4,1.8-13.3c0.5,0,1,0,1.5,0c0.2,5.7,1,8.3,3.4,10.5c0.1-0.8,0.1-1.4,0.1-2.2   c0.9-0.3,1.9-0.6,3.1-0.9c0.8-1,1.9-2.2,2.7-3.4l0,0C489.6,547.1,490.8,547.8,492,548.5z M495.6,559.4c3.8-3,7.4-4.6,11.8-5.4   C507.9,546.5,487.1,556,495.6,559.4z M516.1,565.4c-2.1-1.2-6.9-0.9-5.6,2.1C513.6,568.2,514.6,567.8,516.1,565.4z" />
	<path display="inline" fill="#FBDFD3" d="M485.6,160.3c6.7-14.8-1.9-29.6-7.8-43.1c0.5-0.3,1.1-0.6,1.6-0.9   c25,4.5,11,30.2,36.1,39.6c-0.4,7.6-6.9,13.2-7.8,20.7c-1.5,0.6,0,2.4-1.4,3.3c-1.2-3.2-4.7-3.6-7.2-5.2   C492.7,171.9,489.8,165.4,485.6,160.3z M489.2,145.2c1.3-1,1.5-1.4,2.1-2.7C489.5,142,489.3,142.3,489.2,145.2z" />
	<path display="inline" fill="#EECABA" d="M489.9,405.5c-1.2-1.3-12.7,5.2-15,6.3c5.6,6.5,9.6,13.4,10,22.1   c-2.2-1.6-3.5-3.6-5.7-5.1c-5.6,14.5-7.5,30-7.3,45.2c6.6,15.4,8.2,32.1,12.9,48c3.2,6,0.1,13.8,2.4,19.5c-0.2,1.2-0.3,2.3-0.9,3.3   c-1.3-0.5-2.5-0.9-3.8-1.4c-2.8-24-6.3-47.7-13.9-70.7c-2.6-7.8,1.2-14.9,1.7-22.5c0.3-9.2,1.4-18.3,2.7-27.4   c-4.2-6.1-7.8-12.4-8.3-19.9c9.1-1.4,20.1-6.5,29-3.6C492.3,401.3,491.1,403.4,489.9,405.5z" />
	<path display="inline" fill="#FBDFD3" d="M443.1,138.6c-0.2-0.1-0.4-0.2-0.7-0.2c-7.9-4.6-12.3-13.1-17.9-20.1   c4.5-4,13.9-4.1,14.2-11.8c8.2,0.6,16.1,1.3,24.1,1.9c4.3,11.8,3.2,27.2-11.3,29.9c-0.1-2.8-0.9-5.4-3.3-8c0.4,3.2,1,5.9,0.3,8.8   C446.6,139,444.8,139.4,443.1,138.6z M434,115.7c3.7,1.9,7.6,5.8,11.4,6.1c-2.4-3.7-7.5-6.7-11.9-6.6   C433.6,115.5,433.8,115.6,434,115.7z M462.2,117.1c-3.5-1.9-12.9-2-14.7,1.8C454.6,118.2,459.6,119.1,462.2,117.1z M446.7,114.5   c-0.1-1.8,0.3-2.4-0.4-3.6C444.8,111.8,444.8,112.6,446.7,114.5z M447.1,127.1c-0.2,0.1-0.3,0.1-0.5,0.2c0.3,0.6,0.2,1.4,1.1,1   C447.5,127.9,447.3,127.5,447.1,127.1z" />
	<path display="inline" fill="#FBDFD3" d="M370.7,183.8c-0.3,0.1-0.6,0.3-1.1,0.5c-5.1-7.6,2.1-17.6-1.6-25.3c1.6,0.1,6-3.1,3.6-4.3   c0.2-4.5-1.2-8.7-2.3-13c6.6-8.1,11.9-16.7,14.4-27c0.7-0.2,1.5-0.4,2.6-0.6c-0.7-0.7-1.3-1.2-2-1.8c0.3-1.5,0.6-3.3,1-5.3   c5.5-5.6,7.1-4.3,11.6,1.3c0.8,5.9,0.9,11.3-3.7,15.2c-3.8,14.7-8.3,28.9-17.1,41.4C371.3,170.5,370.6,176.9,370.7,183.8z    M396.8,112c-3.8-0.7-3.9-0.7-5.2,0.4C394,113.2,394.3,113.2,396.8,112z" />
	<path display="inline" fill="#4C505E" d="M370.9,50.6c15.2,18.3,16.9,45.6,9.9,67.3c-0.7,0.2-0.7,0.8-0.7,1.4l0,0   c-3.6-0.5-8.3,1-11.4-0.8c7.7-22.1,6.2-47.3-6.4-67.3C364.8,49.8,368.1,50.9,370.9,50.6z" />
	<path display="inline" fill="#EECABA" d="M485.6,160.3c4.2,5.1,7.1,11.6,13.4,14.5c2.5,1.6,6,2,7.2,5.2c1.4-0.9-0.1-2.7,1.4-3.3   c0,1.9,0.1,3.7,0.1,5.6c-0.4-0.3-0.7-0.5-1.3-0.9c-2.1,1.2-5,1.1-7.5,0.9c-0.3-1.1-1.3-2.7-2-0.6c-3.4,0.2-5.3-3.1-8.2-3.8   c4.2,5.4,9.3,10.4,14.4,15.1c5.8,0.8,13.3-0.7,16.6,5.5c-2.2,0.8-4.1,1.4-6.2,2.1c5.6,3.6,12.7,4,19,2.4c-0.3,1.2-0.7,2.5-1,3.9   c-11.2,3.1-21.5-1.7-30.4-8.3c-11.9-7.3-23.2-17.4-20.2-32.4C483.1,164.9,484.1,162.4,485.6,160.3z M486.7,165.8   c-1.1,4.2,0.9,9.7,5.1,10.6C489.4,173,489,169.4,486.7,165.8z M494.8,178c-0.7-0.5-1.2-0.8-1.4,0.1   C493.8,178.9,494.3,178.7,494.8,178z" />
	<path display="inline" fill="#EDCABA" d="M434.5,76.9c3.1,2,6,5.5,10,5c1.3,1.9,3.6,1.5,5.5,2.2c0.6,3.8-0.4,7.6-0.8,11.6   c-5.2,1-10-1.3-15.2-1.1c-0.1-3.1-3.2-4.2-3.8-7.1c-0.3-1.6-1-3-2-4.3c0.1-2.1-1.4-3.1-2.7-4.4c-0.8,0.7-0.4,1.2-0.2,1.7   c2,2,2.2,4.4,3,6.9c-0.8,0-1.2-0.6-1.6-1.2c-1.5-3.7-4.3-6.8-5-10.7c0.8,0.4,1.2,1.1,2.1,0.8c-0.2-1.1-0.9-1.6-1.9-2.1   c-0.1,0.6-0.2,0.9-0.2,1.2c-1.7,1.2-1.2,3.1-1.7,4.5c1.9,2.2,0.4,4.8,1.1,7c0.4,0.4,0.9,0.8,1.3,1.1c-1.6,0.4-3.3,0.1-5,0.2   c-1.6,1.5-3.2,0-4.3-1.3c0.5-1.2,1.1-2.4,1.6-3.6c1.7-0.2,3.2-1.6,2.8-3.4c-0.8,0.6-1.3,1.1-1.9,1.5c-0.4-0.5-0.7-0.8-1-1.1   c0.2-2.5-1.2-4.9-0.1-7.4c2-5.4,0.1-11.8,4.3-16.9c-1.5-0.2-2-0.1-2.9-1c3.8-2.6,6.3,2.1,5.8,5.4c2.5,3.1,3.8,6.5,3.4,10.4   c-0.7-0.3-1.5-0.6-2.1-0.9c-1.8-4.1-2.2-7.6-2.4-12c-0.5,0.2-0.8,0.3-1,0.3c0,4.1-0.3,7.6,1,11.6c4.2,2.6,8.8,6.8,13.4,8.1   C434.3,77.6,434.4,77.2,434.5,76.9z M448.7,88.3c-2.1,1.6-4.4,2.1-5.4,4.4c2.3,0.7,5.5-1.6,6.1-3.7   C449.1,88.8,448.9,88.6,448.7,88.3z" />
	<path display="inline" fill="#CFCEDC" d="M475.7,545.8c1.2,10-2.4,19.5-1.9,29.3c1.6,1.4,3.5-0.7,5.4-0.2c3.1-0.1,3.1-0.1,5.3-2.6   c3.8-1.1,5.5,4.5,8.2,6.4c12.2,8.1,27.1-2.8,40-2.4c0.2-0.6,0.3-1.1,0.4-1.5c0.2,0.7,0.4,1.4,0.6,2.1c-4,0.9-8.3,0.7-10.8,4.5   c4.1-1.3,7.3-2.8,10.8-3c0,6.7-15.9,5.1-20.8,6.5c-9.1,1.6-17.7,1.1-25-5.2c-6-0.4-12.9,1.2-18.6-1.4c1.6-8.6,5.3-17.2,3-26.4   C475.2,551,473.4,547.4,475.7,545.8z" />
	<path display="inline" fill="#EDC9B9" d="M523.2,134.2c1.3,1.2,0.8,2.7,0.4,3.9c-1.3,6.3,0.7,12.9-1.7,19.1   c-2.8,6.2-3.3,13.9-7.3,19.3c0.1,5.4,0.1,10.5-0.9,15.1c-1-0.4-2-0.6-2.5-1.7c0.3,0,0.6,0.1,1.2,0.2c-0.3-1.3-0.5-2.6-1-4.7   c-0.5,1.4-0.7,1.9-0.9,2.5c-2.5-1.1-3.2-3.1-2.9-5.7c0.6,0.8,1.3,1.5,1.8,2.2c1.9-2.2-0.7-7.4,1-10.3c7.5-14.4,12.9-30,7.2-46   c2.8-1.6,1.9,2,4.1,2.2c0.8-7-14.2-2.5-14.2-12c2.7-2.2,0.6-5.2,2-7.8c-0.3,4.6,1.8,8.3,5.8,10.6c3.7,1.1,7.6,5.5,11.5,3   c1.8,0.7,3.6,1.1,3.3,3.5c-0.4,0.1-0.8,0.1-1.3,0.2c-0.1,1.5-0.1,2.8-0.2,4.1c-0.4-0.7-0.8-1.3-1.2-2   C525.8,131,522.6,131.4,523.2,134.2c-1.9-0.1-1.6,1.2-0.3,2.5C523.1,135.5,523.1,134.8,523.2,134.2z" />
	<path display="inline" fill="#373A46" d="M368.7,118.6c3.1,1.8,7.8,0.2,11.4,0.8c-3.3,10.2-9.5,20.1-18.4,26.2   c-2.8-2.2-7.6,0.6-10.7-1.5C359,137.5,365.5,128.4,368.7,118.6z" />
	<path display="inline" fill="#798BB2" d="M511,106.5c-1.2,1.1-2.4,2.1-3.7,3.2c-22.9-1.7-45.7-3.5-68.6-5.5   c0.1-1.7,0.2-3.2,0.3-4.7c0.4,0.4,0.8,0.8,1.3,1.4C464,102,487.3,104.6,511,106.5z" />
	<path display="inline" fill="#91A2C4" d="M511,106.5c-23.7-2-47-4.6-70.7-5.6c-0.5-0.5-0.9-1-1.3-1.4c-0.1-0.6-0.1-1.1-0.2-1.9   c22.9,0.6,45.8,3.8,68.8,4.8c2.1,0.2,2.1,2.2,3.5,3.6C511.1,106.1,511.1,106.3,511,106.5L511,106.5z" />
	<path display="inline" fill="#798AB2" d="M595.4,114.4c-0.4,3.3-4.7,1.7-6.9,1.8c-19.5-2.1-38.9-2.5-58.4-4.8   c0.1-1,0.3-1.9,0.4-2.8c0.9-0.5,1.7-1,2.5-1.5C552.4,112.5,575.1,109.5,595.4,114.4z" />
	<path display="inline" fill="#91A2C4" d="M595.4,114.4c-20.3-4.9-43-1.9-62.4-7.3c0.1-0.6,0.2-1.2,0.3-1.9   c20.1,0.3,39.6,3.2,59.8,4.5C594.2,110.9,596.2,111.8,595.4,114.4z" />
	<path display="inline" fill="#91A2C4" d="M600.3,123.5c-0.9,0.5-1.9,1-2.8,1.4c-10.9-7.3,6.3-8.7-2.1-16.3c0.8-2.3,1.5-5.6,4.1-6.3   C605.4,107.5,605.9,118,600.3,123.5z" />
	<path display="inline" fill="#5875E7" d="M465.8,399.1c-1.7-6.9-4.6-14.2-4.5-21.1c4.9,6.6,8.3,13.7,14.4,19.4   C472.8,399.4,469,400.2,465.8,399.1z" />
	<path display="inline" fill="#7889B0" d="M409.9,96.5c1.9,4.1,3.2,4,7.1,5.7c-10.4-0.2-20.1-1.2-30.4-2.2c-0.4-2.2,0-4.1-0.1-6.4   c1.7-0.6,3.4-0.5,5.1,0.2c-1.4,0.1-2.8,0.2-4.2,0.3c0,0.8-0.1,1.5-0.1,2.2c7.5,0.3,14.8,1.9,22.3,1.8   C409.7,97.4,409.8,96.9,409.9,96.5z" />
	<path display="inline" fill="#484C59" d="M351,144.1c3.1,2,7.9-0.7,10.7,1.5c-8.5,6.5-19.8,7.5-30,5.9   C338.6,150.2,345.3,148,351,144.1z" />
	<path display="inline" fill="#E2E2E9" d="M494.8,534.4c1.9-0.5,4.4,0.3,6.6,0.2c0.8,3.6,1.7,7.2,2.6,11c-3.2,0.3-6.8,2-10.1,1.4   C494.8,542.6,495,538.7,494.8,534.4z" />
	<path display="inline" fill="#4B65C4" d="M460.1,259.6c1.4-1.1,0.1-4.2,3.3-3.2c0.1-0.3,0.2-0.7,0.3-1.1c3,3,0.8,6.5,2.4,10   c0.4-0.9,0.7-1.6,1-2.3c0.6,6,3.5,12.5,1.7,18.4c-2-1.8-5-11.6-6.2-17.7c-0.3,0.9-0.4,1.2-0.5,1.6   C461.5,263.4,460.8,261.5,460.1,259.6z" />
	<path display="inline" fill="#100F12" d="M600.3,123.5c9.1-7.9,0.9-29.8-11.9-22.6c-0.3-0.3-0.5-0.5-0.8-0.8   c11.9-9.7,27.7,11.4,18.2,21.8c-0.2-0.3-0.4-0.5-0.5-0.6c3.7-5.6,1.5-16.3-4-19.3c4.8,5.1,6.3,16.3,0.5,21.5   C601.3,123.6,600.8,123.6,600.3,123.5z" />
	<path display="inline" fill="#8FA1C3" d="M409.9,96.5c-0.1,0.4-0.2,0.9-0.4,1.5c-7.5,0.1-14.8-1.5-22.3-1.8c0-0.6,0.1-1.3,0.1-2.2   c7.4-0.4,15,0.2,22.3,1.3C409.8,95.8,409.8,96.1,409.9,96.5z" />
	<path display="inline" fill="#788BB2" d="M590.3,100.1c3.6-1.5,6.7-0.5,9.2,2.3c-2.6,0.7-3.3,4-4.1,6.3c-2.6-1.7-5.7-1.2-8.6-2   c1.1-0.1,2.2-0.2,3.4-0.3C590.1,104.3,591.5,101.5,590.3,100.1z" />
	<path display="inline" fill="#7C8DB3" d="M594,118.5c-1.1,2.5,1.4,5.7,3.5,6.5c-4.8,2.8-12.2-1.7-13.3-6.5   C587.5,118.5,590.7,118.5,594,118.5z" />
	<path display="inline" fill="#E5C5B6" d="M421.1,105.2c-0.7-1.1-1.5-2.2-2.4-3.7c0.5-0.3,1-0.6,1.4-0.8c-0.1-3.9-3.2-6.4-3.7-10   c1.2,0.1,2.3,0.2,3.4,0.3l-0.1-0.1c3.1,2.8,2.2,7.4,4.6,10.7c0.5,0.9,0.4,2.4,0.5,3.5c0,0,0,0,0,0   C423.5,105.2,422.3,105.2,421.1,105.2z" />
	<path display="inline" fill="#CCCDDB" d="M494.8,534.4c0.2,4.4,0.1,8.3-0.9,12.7c0.3,0.1,0.7,0.2,1.2,0.3c-1,0.4-2,0.8-3,1.2   c-1.2-0.7-2.4-1.4-3.6-2.1C489.5,542,490.8,537,494.8,534.4z" />
	<path display="inline" fill="#181413" d="M518.2,110.1c0.6-2.3,2.7-2.9,4.3-4.6c-0.5-1.2-1-2.2-1.6-3.4c-2.4,0.7-3.6,2.9-5.6,3.6   c-0.3-0.2-0.6-0.5-0.8-0.7c0.8-0.8,1.6-1.6,2.4-2.4c-1.5-1.5-2.4-3.3-4.3-4c0.8-0.6,1.6-1.2,2.4-1.8c0.1,2,2.5,2.9,3.6,4.5   c1-0.5,1.8-0.9,2.6-1.2c-0.1-0.5-0.1-0.9-0.2-1.2c0.6,0.6,1.2,1.2,2,1.9c0.1-0.5,0.2-0.9,0.3-1.3c1,2.5,1.4,5.2,2,7.9   c-0.3,0-0.5,0-0.8,0c-0.3-0.2-0.6-0.3-1-0.6c-0.7,0.8-1.5,1.5-2.2,2.3c0.2,0.7,0.4,1.3,0.6,1.8C520.6,110.9,519.3,111,518.2,110.1z   " />
	<path display="inline" fill="#F9DDD0" d="M422.6,88c-0.4-0.4-0.8-0.7-1.3-1.1c-0.7-2.2,0.8-4.8-1.1-7c0.5-1.4,0-3.3,1.7-4.5   c1.3,3.6,3.6,9.8,6.6,12c0.4,0.5,0.8,1.1,1.1,1.6c0,0.2,0,0.4,0,0.6c-0.5,0-0.9,0-1.4,0.1c-1.1-1.2-2.3-0.2-3.5-0.1   C424,89,423.3,88.5,422.6,88z" />
	<path display="inline" fill="#060505" d="M512.5,557.9c-3.5,1.6-8.3,2.8-11.1,5.7c-3.9-0.7-1.2-5.6,1.5-6.2c2.4-1,4.8-1.9,7.5-1.2   c0.2,0,0.5-0.3,0.7-0.5C512.2,556.1,512.6,556.8,512.5,557.9z" />
	<path display="inline" fill="#F4DBCF" d="M411.7,93.9c-2.6-1.8-6-1.1-8.9-1.6c0-0.4,0-0.8,0-1.2c5-2.6,11-5.3,12.1,2.5   c-0.9,1.4-0.9,1.4-2.4,1.1l0.1-0.2l-0.1,0.2C412.5,94.1,412.2,93.9,411.7,93.9z" />
	<path display="inline" fill="#E1CBC0" d="M427.4,95.2c0,0.2,0,0.5,0,0.7c-0.8,0.5-0.8,1,0,1.4c0.5,1.5-0.8,3.2,0.8,4.2l0,0   c0,1,0.1,2,0.1,3l-0.2-0.1c0,0,0.2,0.1,0.2,0.1c-0.3,0.2-0.6,0.4-0.9,0.6c-0.2,0-0.5,0-0.7,0c0-0.6,0-1.2-0.7-1.5   c-0.4-1.4,0.6-3.1-0.7-4.2c-0.4-0.7,0.5-1.7-0.7-2.1c-0.4-0.7,0.5-1.7-0.7-2.1c-0.7-1.7-1.9-6-4.3-4.2c0,0,0.1,0.1,0.1,0.1   c-0.1-3.3,6.6-0.4,7.2,1.2C426.9,93.3,426.4,94.4,427.4,95.2z" />
	<path display="inline" fill="#4861BE" d="M458.8,254.6c-2,0-3.8,1.2-5.9,0.7c-0.3-1.1-1.1-1.4-2.1-1.2c-1-1.3-0.7-2.4,0.2-3.6   c1.4,0,2.8,0,4.2,0c-0.6,4.3,5.6,2.6,8.2,2.5c0.1-0.5,0.2-0.8,0.3-1.2c0.2,0,0.4,0,0.7,0c0,0.6,0,1.1,0,1.9   C462.4,254.4,460.1,253.1,458.8,254.6z" />
	<path display="inline" fill="#DCC2B3" d="M493.5,399.3c-1.9-1.8-5.5-0.4-7.9-0.8c1.3-0.9,2.7-0.6,4.1-0.5c4.8,0.7,8.8-2.2,13.5-2.1   c0.2,4.8,0.5,9.5-0.4,14.2c-0.1-4.7-0.2-8.9-0.1-13.6c-2.8,1.1-4.8,2.7-6.9,4.2c-0.1-0.7-0.2-1.4-0.3-2.3   C494.6,398.7,494,399,493.5,399.3z" />
	<path display="inline" fill="#E8CDC0" d="M512.5,98.6c1.9,0.7,2.8,2.5,4.3,4c-0.8,0.8-1.6,1.6-2.4,2.4c-0.6,0-1.2,0-1.9,0   c-0.9-2.2-2.8-3.4-4.4-4.9C509.5,99.3,511.1,99.1,512.5,98.6z" />
	<path display="inline" fill="#E4CABB" d="M529.6,114.4c-1.6,4.1-10.6,3.2-13.4,1.2c0.6-0.6,1.2-1.3,1.9-2c2.5,0.2,4.3,2.2,6.8,2.7   c0.2-0.7,0.6-1.7-0.4-1.8c1.3-1,2.9-0.8,4.5-0.9c0,0,0,0,0,0C529.2,113.8,529.4,114.1,529.6,114.4z" />
	<path display="inline" fill="#8B9CBC" d="M590.3,100.1c1.2,1.5-0.2,4.2-0.1,6.3c-2,0.2-3.8,0.4-5.8,0.1   C585.4,103.5,587.6,101.2,590.3,100.1z" />
	<path display="inline" fill="#DCC4B9" d="M525.4,98.6c0.1-0.3,0.2-0.6,0.2-1c3.6-0.5,6.4,6.3,4.3,8.8   C527.1,104.7,527,101.2,525.4,98.6z" />
	<path display="inline" fill="#5476E7" d="M463.7,251.8c-0.1,0.3-0.1,0.7-0.3,1.2c-2.6,0.1-8.8,1.8-8.2-2.5c2.8,0,5.7,0,8.5,0   C463.7,250.9,463.7,251.4,463.7,251.8z" />
	<path display="inline" fill="#DDC4B9" d="M428.5,91.8c1.5-0.4,2.2,0.6,3.6,1.1c0.1,1.5,0.2,3,0.3,4.5c-0.8,0.6-1.6,1.1-2.3,1.7   C428.5,97.1,429.1,94.2,428.5,91.8z" />
	<path display="inline" fill="#D1B5A9" d="M525.2,107.3c-0.6-3.4-1.4-6.6-2.7-9.9c0.4-0.1,0.7-0.1,1-0.2c1.4,4,4.6,8.2,4.5,12.4   c-0.6,0.6-1.2,0.3-2.1,0.2C525.7,109,525.5,108.1,525.2,107.3z" />
	<path display="inline" fill="#292424" d="M480.9,166.2c0,3.3-0.1,6.5-0.1,9.8c-2.2,0.7-1.3,3.4-1.6,5.2c-1.9-4.4,1.2-9,0.1-13.6   c-0.1-1.1-0.2-2.1,0.7-2.9C480,165.3,480,166,480.9,166.2z" />
	<path display="inline" fill="#D7C5BA" d="M520.9,98.8c0.1,0.3,0.1,0.7,0.2,1.2c-0.8,0.4-1.6,0.8-2.6,1.2c-1.2-1.5-3.6-2.5-3.6-4.5   c1.4,0,2.8,0,4.2,0C519.7,97.5,520.3,98.2,520.9,98.8z" />
	<path display="inline" fill="#31312F" d="M519.6,126.5c0.3,0.2,0.5,0.4,0.8,0.6c0,0.5-0.1,1.1-0.1,1.6c-0.6-0.8-1.3-1.3-2.5-0.6   c2.3,3.3,0.9,6.9,0.4,10.4c-1.4-3.9-0.2-8-2.1-11.5C517.3,127.2,518.5,127.1,519.6,126.5z" />
	<path display="inline" fill="#352B2E" d="M533.8,578.4c-3.5,0.1-6.7,1.7-10.8,3c2.5-3.8,6.8-3.7,10.8-4.5   C533.8,577.4,533.8,577.9,533.8,578.4z" />
	<path display="inline" fill="#DBBBAD" d="M412.5,94.7c1.6,0.3,1.6,0.3,2.4-1.1c1.1,1.8,2.2,3.7,3.4,5.8c-1,0.1-1.8,0.2-2.4,0.2   C414.7,97.8,413.6,96.3,412.5,94.7z" />
	<path display="inline" fill="#877E74" d="M410.6,104.4c-0.6,0.1-1.1,0.2-1.7,0.3c-0.4,0.4-0.8,0.8-1.1,1.2c-1.2,0-2.4,0-3.5,0   c-0.8-0.7-1.5-1.4-2.3-2C404.8,104.1,408,103.3,410.6,104.4z" />
	<path display="inline" fill="#516BD3" d="M463.7,251.8c0-0.4,0-0.9,0-1.3c1.4,0,2.8,0,4.2,0c0.8,0.5,2.2,1.1,0.8,2   c-1.1-0.4-0.8,0.5-1.1,1.4c-0.6,0-1.3,0-2.1,0C465.2,252.4,465.4,251.4,463.7,251.8z" />
	<path display="inline" fill="#2F2626" d="M508.3,100.2c1.6,1.5,3.5,2.7,4.4,4.9c-0.3,0.3-0.6,0.6-1,1c-0.2-0.1-0.4-0.1-0.6-0.1   c-1.4-1.3-1.4-3.4-3.5-3.6C507.2,101.1,506.4,100.4,508.3,100.2z" />
	<path display="inline" fill="#403E3D" d="M511.2,124.3c2.5,1.4,5.2,1.3,7.8,2c-3,0-6.5,2.2-8.7-1.3   C510.6,124.8,510.9,124.5,511.2,124.3z" />
	<path display="inline" fill="#221F1D" d="M509,112.2c0.2,2.2,0.6,4.4-1.4,6.1c-0.3,0.3,0,1.1,0,1.7c-1.8-2.6,0.7-5.5,0-8.5   C508,111.8,508.5,112,509,112.2z" />
	<path display="inline" fill="#C3A79A" d="M413.4,105.8c-0.7-0.2-0.7-0.7-0.8-1.3c1.9,0.2,3.9,0.3,5.9,0.5c0.2,1.2,1.3,3-0.3,3.6   c0.3-2.2-2.8-2.5-4.2-3.6C413.8,105.4,413.6,105.6,413.4,105.8z" />
	<path display="inline" fill="#B79C91" d="M521.9,110.8c-0.2-0.5-0.4-1.1-0.6-1.8c0.7-0.7,1.4-1.5,2.2-2.3c0.4,0.3,0.7,0.4,1,0.6   C524.4,109.2,524.6,110.8,521.9,110.8z" />
	<path display="inline" fill="#2D1F1D" d="M444.5,81.9c-2.1,0.2-4.2-0.2-5.4-2.1l-0.1,0c2.3-0.5,4.3,0.3,6.4,1.2   C445.1,81.3,444.8,81.6,444.5,81.9z" />
	<path display="inline" fill="#CCAEA0" d="M507.5,111.6c-0.1,1.6,0.5,3.3-0.6,4.7c-1.1-1.3-1.8-2.8-1.8-4.7   C506,111.6,506.8,111.6,507.5,111.6z" />
	<path display="inline" fill="#332826" d="M429.6,89c-1.4-1.6-1.9-3.7-2.1-5.8c0.3,0,0.5,0,0.8,0c1,1.3,1.7,2.7,2,4.3   C430.1,88,429.8,88.5,429.6,89z" />
	<path display="inline" fill="#18203F" d="M468.7,252.4c1.3-0.8-0.1-1.4-0.8-2c1,0,2.1,0,3.4,0c0.1,0.7,0.2,1.3,0.3,2   c-0.9,0.5-1.7,1-2.7,1.5C468.8,253.3,468.7,252.9,468.7,252.4z" />
	<path display="inline" fill="#201B1A" d="M526.6,104.6c-0.7-1.7-1.3-3.4-2-5.1c0.3-0.3,0.5-0.6,0.8-0.9c0.6,1.5,1.3,3,1.9,4.5   C526.6,103.3,526.8,104,526.6,104.6z" />
	<path display="inline" fill="#DCE3E3" d="M481.1,548.1c1.7-1.9,1.7-1.9,4.3-0.5C484.3,549,482.6,549.3,481.1,548.1z" />
	<path display="inline" fill="#291E1D" d="M424,90.3c-1.2-0.3-3.1-1.8-3.9-0.1c-0.5-0.2-0.9-0.4-1.4-0.7c0.5-1,1.2-0.5,1.8-0.7   c0.7-0.3,1.4-0.6,2.2-0.8c0.7,0.5,1.5,1,2.2,1.5C424.5,89.8,424.2,90,424,90.3z" />
	<path display="inline" fill="#382C2F" d="M438.9,136.2c1.2,0.7,2.3,1.5,3.5,2.2c-0.3,0.2-0.5,0.5-0.8,0.7c-1.4-0.3-2.6-1-3.6-2.1   C438.4,136.8,438.7,136.5,438.9,136.2z" />
	<path display="inline" fill="#312B2A" d="M414.8,80.3c0.3,0.3,0.6,0.7,1,1.1c0.5-0.4,1.1-0.8,1.9-1.5c0.3,1.8-1.1,3.2-2.8,3.4   C414.9,82.3,414.9,81.3,414.8,80.3z" />
	<path display="inline" fill="#BCCDE4" d="M454.4,96.2c-2.6,0.1-2.7,0-2.2-1.8C453.4,94.5,454,95.2,454.4,96.2z" />
	<path display="inline" fill="#C0ADA1" d="M528.9,113.6c-1.6,0.1-3.2-0.1-4.5,0.9c-0.3-0.2-0.7-0.5-1.1-0.8   C526.3,112.9,526.7,112.9,528.9,113.6z" />
	<path display="inline" fill="#C0ADA1" d="M529.6,114.4c-0.2-0.3-0.4-0.6-0.6-0.8c1.4,0.2,3-0.2,4.1,0.8   C531.9,114.4,530.7,114.4,529.6,114.4z" />
	<path display="inline" fill="#605A64" d="M470,248.2c0-0.9,0.2-1.6,1.3-2c0,0.7,0.1,1.4,0.1,2C471,249.2,470.5,248,470,248.2z" />
	<path display="inline" fill="#C8A99C" d="M421.1,105.2c1.2,0,2.4,0,3.7,0C423.6,106.1,422.5,106.2,421.1,105.2z" />
	<path display="inline" fill="#C8A99C" d="M425.4,99.5c1.1,1,0.6,2.4,0.6,3.7C425.1,102.1,425.4,100.7,425.4,99.5z" />
	<path display="inline" fill="#A0978F" d="M402.8,91.1c0,0.4,0,0.8,0,1.2c-0.6,0-1.3,0-2.1,0C401.2,91.2,401.9,90.9,402.8,91.1z" />
	<path display="inline" fill="#C2BAB1" d="M479.4,116.4c-0.5,0.3-1.1,0.6-1.6,0.9c-0.5-0.4-0.9-0.8-1.5-1.3   C477.6,115.6,478.5,115.8,479.4,116.4z" />
	<path display="inline" fill="#C8A99C" d="M428.4,104.6c0-1-0.1-2-0.1-3C429.1,102.5,429.5,103.5,428.4,104.6z" />
	<path display="inline" fill="#C8A99C" d="M427.4,95.2c-1.1-0.8-0.5-2-0.5-3C427.7,93.1,427.5,94.2,427.4,95.2z" />
	<path display="inline" fill="#C8A99C" d="M428.3,101.6c-1.3-0.8-0.7-1.9-0.7-3C427.8,99.6,428,100.6,428.3,101.6z" />
	<path display="inline" fill="#1D274C" d="M458.8,254.6c0.5-1.1,1.3-0.6,2.1-0.6c0,0.2,0,0.3,0,0.5   C460.2,254.6,459.5,254.6,458.8,254.6z" />
	<path display="inline" fill="#332826" d="M428.2,89.6c0.5,0,0.9,0,1.4-0.1c0.1,0.2,0.2,0.4,0.3,0.6   C429.1,90.5,428.6,90.3,428.2,89.6z" />
	<path display="inline" fill="#556B77" d="M396.7,104.8c-0.5-0.5-0.8-0.8-1.2-1.2C396.9,103.2,396.9,103.2,396.7,104.8z" />
	<path display="inline" fill="#382C2F" d="M443.1,138.6c0.5,0.2,1,0.3,1.5,0.5C444,139.3,443.4,139.3,443.1,138.6z" />
	<path display="inline" fill="#C8A99C" d="M424.7,97.4c0.8,0.3,0.8,1,0.6,1.6C425.1,98.4,424.9,97.9,424.7,97.4z" />
	<path display="inline" fill="#C8A99C" d="M427.5,97.4c-0.8-0.5-0.8-0.9,0-1.4C427.5,96.4,427.5,96.9,427.5,97.4z" />
	<path display="inline" fill="#C8A99C" d="M424,95.2c0.8,0.4,0.7,1,0.6,1.7C424.4,96.3,424.2,95.8,424,95.2z" />
	<path display="inline" fill="#291E1D" d="M425.4,90.9c-0.5-0.2-0.9-0.4-1.4-0.6C424.6,90.2,425.1,90.2,425.4,90.9z" />
	<path display="inline" fill="#3C3839" d="M513.9,562.8c-0.4,0.2-0.9,0.5-1.3,0.7C512.8,562.9,513.3,562.7,513.9,562.8z" />
	<path display="inline" fill="#3C3839" d="M512.5,563.5c-0.5,0.2-0.9,0.4-1.4,0.6C511.4,563.5,511.9,563.4,512.5,563.5z" />
	<path display="inline" fill="#3C3839" d="M510.5,564.3c-0.5,0.2-1,0.4-1.5,0.6C509.3,564.2,509.9,564.1,510.5,564.3z" />
	<path display="inline" fill="#C8A99C" d="M426.1,103.7c0.7,0.3,0.7,0.9,0.7,1.5C425.8,105.1,426,104.4,426.1,103.7z" />
	<path display="inline" fill="#373A46" d="M380.1,119.4c0-0.6-0.1-1.2,0.7-1.4C380.8,118.5,380.8,119.1,380.1,119.4z" />
	<path display="inline" fill="#CCCDDB" d="M488.4,546.4c-0.2,0.3-0.4,0.5-0.6,0.8C488,546.9,488.2,546.7,488.4,546.4z" />
	<path display="inline" fill="#0C0B0B" d="M507.5,550.9c-0.3-0.3-0.5-0.5-0.8-0.8C507.2,550.1,507.5,550.4,507.5,550.9z" />
	<path display="inline" fill="#0C0B0B" d="M508.2,551.6c-0.2-0.2-0.5-0.5-0.7-0.7C508,550.9,508.2,551.1,508.2,551.6z" />
	<path display="inline" fill="#0C0B0B" d="M508.9,552.4c-0.3-0.3-0.5-0.6-0.8-0.9C508.7,551.6,508.9,551.9,508.9,552.4z" />
	<path display="inline" fill="#2F2626" d="M509.2,99.6c-0.3,0.2-0.6,0.4-0.9,0.5C508.6,100,508.9,99.8,509.2,99.6z" />
	<path display="inline" fill="#332826" d="M430.5,88c0.1,0.3,0.3,0.6,0.4,0.9C430.8,88.6,430.6,88.3,430.5,88z" />
	<path display="inline" fill="#291E1D" d="M416.8,88.8c0.3-0.2,0.5-0.4,0.8-0.5C417.3,88.4,417.1,88.6,416.8,88.8z" />
	<path display="inline" fill="#C8A99C" d="M424.7,105.2c0-0.3,0-0.5,0-0.8C425.1,104.7,425.3,104.9,424.7,105.2z" />
	<path display="inline" fill="#C8A99C" d="M427.5,105.2c0.3-0.2,0.6-0.4,0.9-0.6C428.1,104.8,427.8,105,427.5,105.2z" />
	<path display="inline" fill="#382C2F" d="M442.4,139.6c-0.2-0.1-0.5-0.3-0.7-0.4C441.9,139.3,442.2,139.5,442.4,139.6z" />
	<path display="inline" fill="#798BB2" d="M511.1,105.9c0.2,0,0.4,0,0.6,0.1c-0.2,0.1-0.4,0.3-0.6,0.4   C511.1,106.3,511.1,106.1,511.1,105.9z" />
	<path display="inline" fill="#C0ADA1" d="M524.5,114.5c0.5,0,0.7,0.4,0.7,0.9C524.9,115,524.7,114.8,524.5,114.5z" />
	<path display="inline" fill="#DBBBAD" d="M411.7,93.9c0.5,0,0.9,0.2,0.8,0.7C412.2,94.4,412,94.2,411.7,93.9z" />
	<path display="inline" fill="#4B65C5" d="M410.5,254.7c0.2,0.2,0.5,0.4,0.9,0.9c-0.8,0.3-1.4,0.6-2.2,1c-3,16.1,3.2,34-3.1,49.7   c-2.6-3.5-1.4-7.6-3-11.5c-3.7,19-2.9,38.4,1,57.1c-0.9,0-1.7,0-2.6,0c-0.3,2.3,0,4.6-1.3,6.7c-2.6-2.9-1.1-8.4-4.7-10.5   c-3,14.2-2.3,29.4-1.3,43.9c-6.6-0.8-12.9,0.9-19.4,1.3c2.4-21.9,2.3-43.4,1.4-65.3c2.9-13.5,3.5-27.1,3.1-41.1   c3.4-5.6,0.2-13.6,1.6-20c0.2-2.3,1.3-4.1,2.7-5.9c1.9-3.5-0.4-7.4,1-11.1c2,1.9,0.4,4.1,1.1,6.7c1.9-2,1.1-4.2,1.5-6.3   c0.4-0.2,0.8-0.4,1.2-0.6c0.4,1.3-0.9,5.8,1.2,5.2c0.1-1.8-1-4,0.3-5.4c3,1.1,1,4.1,3.1,5.9c0-1.5,0-2.8,0-4.2c1.7,0,3.3,0,5.2,0   c0,2.3,0.5,4.1,0,6.4c-3.2,0.2-6.7-1.9-9.2,0.2c3.4-0.1,14.9,2.8,15.6,0.5c-1.4-0.1-2.9-0.3-4.4-0.4c-1.5-2-0.8-4.1-0.9-6.5   c0.5-0.1,0.9-0.2,1.3-0.3c1.3,1.6,0,3.9,1.6,5.6c1.5-2-1.4-3.9,0.5-5.7c0.6,0.1,1.1,0.1,1.6,0.2c0.6,2.1,0.1,4.3,1.7,6   c0.8-2.1,0-4-0.3-6.1c0.8,0,1.4,0,2,0C408.3,252.5,408,256.2,410.5,254.7z M385.7,292.9c0.3-2.6-1.1-4.7-1.3-7.3   c-0.2-1.1,0.3-2.3-0.8-3.6c-1,2.2-0.3,5.3,0.8,7.3c-0.4,6.8-1.8,14.1-1.4,21.2c-0.6,0.6-1,1-1.4,1.4c1.4,21.2,2.3,42.4,0.6,63.7   c-1.7-0.2-2.9-1.2-4.5,0.4c1.8,0.6,3.2,1.1,4.6,1.7c0.5,4.1-1.1,8.4,0.6,12.2c3-3.8-0.1-7.7,1.2-11.9c1.8,0.1,3.4,1.1,5.3,0.2   c-1.7-1.6-3.9-1.1-5.7-2.5c2.8-26.3-2.8-53.7,1.8-79.7c1.6,3.3,1.9,7.6,4.6,10.2c0.1,0.4,0.1,0.7,0.3,1.4c0.4-0.9,0.2-1.2-0.3-1.4   C388.8,301.8,386.8,297.2,385.7,292.9z" />
	<path display="inline" fill="#FBDFD3" d="M417.7,407.9c-3.5,10.7-5.5,24.9-14.5,31.9c4.8,32.8-14.9,60.2-21,91.1   c-0.2,0-0.4-0.1-0.6-0.1c-0.5-1.5,0.6-3.7-0.7-4.7c-0.2,0-0.3,0.1-0.6,0.1c0,4.2-1.4,10,1.8,13.3c-0.2,1-0.4,2-0.7,3.1   c-3.4-0.5-1.7-4.1-4.3-5.1c-1.5,0.4-3.1,0.8-4.8,1.3c2-28.6-4.3-56.2-2.8-85c1.1-1.9,0.9-4.2,2.3-6.1c0.1,0,0.3,0.1,0.4,0.1   c0.5,6-1.2,12.1,1.2,17.9c1.8-12.2,4.2-23.9,7.3-35.7c4.1-3.5,3.9-9.3,5.2-14.2c2.1,4.7,0.4,9,4,13.8c8-1.6,5.8-24.9-3.4-18.6   c0-1.1,0-2,0-2.8c5.2-3,10.2-2.7,15.7-2.7c2.1,1.2,3.8,4.2,6.3,4c-0.6-1-1-1.8-1.5-2.6c2.8-1.4,7-0.3,10.3-0.6   C417.5,407,417.6,407.4,417.7,407.9z M402,444.5c-0.2-0.2-0.3-0.3-0.5-0.5c-4.8,5.3-6.6,15.4-5.4,22.3   C398.8,459.1,398.7,451.6,402,444.5z M401.1,429.2c1.7-5.4,9.9-10.6,6.8-16.8c-1.5,3.4-1.5,7.1-4.5,9.9   C402.1,424.3,399.4,426.5,401.1,429.2z M394.8,468c-1.5,2.6-1.6,3.7-0.8,6.4C394.9,472.1,395.4,470.2,394.8,468z M400.4,437.2   c0.9-1.4,2.1-2.7,1.5-4.8C400.3,434.2,400.3,434.4,400.4,437.2z M382.3,517.1c0.8-2.3,0.8-2.3,0-3.8   C381.3,514.7,381.3,514.7,382.3,517.1z M381.1,522.4c0.5-0.9,0.6-1.8-0.1-2.8C379.7,521.3,379.7,521.6,381.1,522.4z M392,486   c-1.8,0.6-1.8,1.7-1,3.6C391.5,488,391.8,487,392,486z M393.5,477.9c-1.3,0.3-2,1.8-0.9,2.5C393.5,479.8,393.7,479,393.5,477.9z" />
	<path display="inline" fill="#E4E4EB" d="M369.4,543.5c2.2-1,4.5-1.9,6.9-3c1.8,2.9,3.8,5.4,7.4,5.4c1,2.1,1.9,4.1,2.8,6.1   c-0.4,1-1,0.4-1.5,0.4c-4.9-0.6-19.9,4.2-12.5,9.8c-0.3,1.1-0.7,2.3,0.4,3.4c0.5,0,1.1,0,1.6,0c0.7-0.5,1.3-1,1.9-1.5   c0.3,0.2,0.5,0.4,0.8,0.6c-1.8,1.5-3.2,4.5-0.1,5.8c4.1-4,9.7-3.6,14.1-6.8c-3.9-2.8-8.2-1.3-12.4-0.1c-0.3-0.3-0.5-0.5-0.8-0.8   c3.5-2.7,7.6-3.7,11.9-4.1l0-0.1c4,8.7,8.4,18.2,16.1,24.1c0.6,2.6,0.9,5.6-1.1,7.7c-5.4-2.6-10.1,0.4-15,2.1   c-6.6-0.3-13.3,1.1-19.8,0.7c-2.6-2-4.6-4-4.2-7.4c-1.3-1.1-2.1-2.7-3.6-3.2c-1.9,0.9-1.2,2.3-1.4,4.1c-0.8-0.4-1.4-0.7-2-1   c1.1-8.2-0.4-16.9,3.4-24.5c0,0,0,0.1,0,0.1c0.6-0.6,1.3-1.2,2-1.9c1-0.1,2-0.2,2.8-0.3c3.9-2.8,2-7.6,2.5-11.6   C370.6,546.1,369.4,544.9,369.4,543.5z M392.5,569.1c-3-1.9-14.2-0.2-12.7,4.5C381.7,575.3,390.5,570.7,392.5,569.1z M393.1,574.5   c-1.2-2.8-6.5-2-8.3-0.4C382,579.1,391.1,576.1,393.1,574.5z" />
	<path display="inline" fill="#EECABA" d="M402.2,405.4c-5.5,0.1-10.5-0.3-15.7,2.7c0,0.8,0,1.7,0,2.8c1.5-1.2,4.4-1.8,5.5-0.4   c-2.2,0.1-2.1,12.4,0.6,11.4c-1.4-3.4-1.7-7.2-0.6-10.8c3.6,4.9,4.2,13.5-0.6,17.7c0-2.1,1.6-4.4-0.6-5.9c0.3,2.7-1,4.2-0.9,6.6   c-3.6-4.8-1.8-9.1-4-13.8c-1.4,4.8-1.1,10.6-5.2,14.2c-3.1,11.8-5.6,23.5-7.3,35.7c-2.4-5.8-0.7-11.9-1.2-17.9   c-0.1,0-0.3-0.1-0.4-0.1c-0.5,1.1-1,2.2-1.6,3.3c-1.7-2-2.9,2.6-0.9,2.7l0.2,0.1c-0.1,1.2-0.1,2.4-0.2,3.6c-1.6,0.8-4,1.8-2.5,3.9   c0.8-1,1.6-1.9,2.4-2.8c-0.6,27.2,4.8,53.3,3,80.3c-1.1,0.8-2.3,1.6-3.9,1.5c-2.2-17.4-3.3-35-3.4-52.6c0.1-11.5-5.4-23.4-0.4-34.5   c8.5-22.5,19.3-32,16.9-58.3c6.6-2,12.7-0.6,18.4,1.4C399.6,399.6,400.6,402.6,402.2,405.4z M371.4,445.5c0.7-3.3,3.3-6.9,2.7-10   C371.3,439.9,370.5,442.4,371.4,445.5z M364.8,467.3c2-0.5,2-1.2,1.4-2.3C365.8,465.6,365.5,466.1,364.8,467.3z" />
	<path display="inline" fill="#CECDDB" d="M360.9,584.8c0-0.9,0.3-1.6,1.3-2.1c1.6,0.5,2.3,2,3.6,3.2c-0.4,3.4,1.6,5.4,4.2,7.4   c7.3-0.2,15-0.2,22.2-1.4c0,0.9-0.1,1.8-0.1,2.8c-9.1,1-18.5,1.2-27.6,0.9C361.3,592.8,365.6,585.6,360.9,584.8z" />
	<path display="inline" fill="#EBC8B9" d="M417.7,407.9c-0.1-0.4-0.2-0.9-0.4-1.6c-3.3,0.3-7.4-0.9-10.3,0.6c-4.2-1.5-4.7-6-5.6-9.8   l0,0c6,0.7,12.4,3.3,17.5,6.5C418.5,405,418.7,406.6,417.7,407.9z" />
	<path display="inline" fill="#CBCCD9" d="M360.9,584.8c0.3,0,0.6,0.1,0.9,0.1c-0.1,1.3-0.3,2.5-0.4,4c-2.5,0.5-4.8,0-7.4-0.6   c-0.6-5.9,4.1-9.2,4.6-14.9c0.6-4.8-4.2-9.1,0.5-13.3c0.6,0.5,1.1,0.9,1.8,1.5c0.4-0.1,0.8-0.1,1.3-0.2c-3.8,7.6-2.3,16.3-3.4,24.5   c0.6,0.3,1.2,0.6,2,1C360.9,585.9,360.9,585.3,360.9,584.8z" />
	<path display="inline" fill="#CCCCDA" d="M369.4,543.5c0.1,1.3,1.2,2.6,0.1,4c-0.4,4,1.4,8.8-2.5,11.6c-0.8,0.1-1.9,0.2-2.8,0.3   c-0.7,0.7-1.3,1.3-2,1.9c3.2-5.6,3.3-11.4,4.1-17.6C367.3,543.6,368.3,543.6,369.4,543.5z" />
	<path display="inline" fill="#050506" d="M389.8,558.7c-6,0.2-11.1,2.9-15.4,6.9c-0.6,0-1.1,0-1.6,0c-1.1-1.1-0.7-2.2-0.4-3.4   c4.1-4.2,10.3-6.2,16.1-5.2c0-0.6,0-1,0-1.3C389.5,556.5,390,557.4,389.8,558.7z" />
	<path display="inline" fill="#090C18" d="M444.7,332.7c-2.6,12.4-3.4,25.2-8.7,36.7c-0.4-0.5-0.9-0.9-1.3-1.4   c6.3-11.3,4.5-25.3,9.9-36.9C444.6,331.6,444.6,332.1,444.7,332.7z" />
	<path display="inline" fill="#151B34" d="M436.8,377.1c3.5,6.5,8.4,12.2,12,18.5l-0.1,0.1c-5.4-3.9-7.8-10.7-11.9-15.6   C435.4,379.5,436.3,378,436.8,377.1z" />
	<path display="inline" fill="#211D1B" d="M401.4,397.1c0.9,3.7,1.4,8.3,5.6,9.8c0.5,0.8,0.9,1.6,1.5,2.6c-5.4-1-9.2-7.6-8.6-13.1   C400.4,396.6,400.9,396.8,401.4,397.1z" />
	<path display="inline" fill="#211819" d="M392.1,594.7c0-0.9,0.1-1.8,0.1-2.8c3.6-2.6,8.4-3.1,12.6-1.4c-3.7,1.8-8.7-0.6-11.7,3.4   c1.2,0.1,1.8,0.1,2.5,0.1C394.6,595,393.3,594.7,392.1,594.7z" />
	<path display="inline" fill="#B5BAC6" d="M395.7,594c-0.7,0-1.3-0.1-2.5-0.1c3.3-5,10.8,0,13.1-5.6c0.2,1.1,0.1,2.1-0.4,3   C402.4,592.2,399,593.1,395.7,594z" />
	<path display="inline" fill="#BFC4CA" d="M388.5,555.7c0,0.4,0,0.7,0,1.3c-3-1-6.3,1.1-9.1-0.5c2.4-1.6,5.3-1.7,8-2.1   C387.8,554.9,388.1,555.3,388.5,555.7z" />
	<path display="inline" fill="#393230" d="M382.1,539.6c-2.9-2.8-1.9-7.8-2-11.5c0.4,0,0.9,0,1.3,0C381.4,532,382,535.7,382.1,539.6   z" />
	<path display="inline" fill="#4769CF" d="M425.1,406.7c-1.5,0-2.7,0-4,0c-0.4-1-0.6-1.4-0.1-2.5   C422.6,404.7,423.8,405.6,425.1,406.7z" />
	<path display="inline" fill="#A3A5AA" d="M379.4,556.5c0.5,0.2,1,0.5,1.6,0.7c-1.2,0.5-2.4,0.9-3.6,1.4c-0.3-0.2-0.5-0.5-0.8-0.7   C377.5,557.5,378.4,557,379.4,556.5z" />
	<path display="inline" fill="#B59E95" d="M382.1,536.5c-0.9-1.8-0.6-3.7-0.5-5.6c0.2,0,0.4,0,0.6,0.1   C382.2,532.8,382.1,534.6,382.1,536.5z" />
	<path display="inline" fill="#7E8185" d="M376.5,557.9c0.3,0.2,0.5,0.5,0.8,0.7c-1,0.6-2,1.3-3,1.9c-0.2-0.2-0.5-0.4-0.7-0.6   C374.6,559.2,375.6,558.6,376.5,557.9z" />
	<path display="inline" fill="#090C18" d="M433.9,373.7c0.4-0.4,0.8-0.7,1.5-1.3c-0.2,1-0.3,1.8-0.4,2.4   C433.8,374.9,434,374.2,433.9,373.7z" />
	<path display="inline" fill="#B8C0C6" d="M373.6,559.9c0.2,0.2,0.5,0.4,0.7,0.6c-0.6,0.6-1.3,1.2-1.9,1.7c-0.3-0.3-0.6-0.6-0.9-1   C372.2,560.8,372.9,560.4,373.6,559.9z" />
	<path display="inline" fill="#222736" d="M438.9,389.9c0.8,0.6,0.7,1.4,0.6,2.2C438.6,391.5,438.9,390.7,438.9,389.9z" />
	<path display="inline" fill="#090C18" d="M433.3,373.7c-0.1-0.8-0.2-1.7,0.5-2.3c0,0.8,0.1,1.6,0.1,2.3   C433.7,373.7,433.5,373.7,433.3,373.7z" />
	<path display="inline" fill="#151B34" d="M436.8,381.3c0.8,0.6,0.6,1.4,0.6,2.3C436.4,383,436.8,382.1,436.8,381.3z" />
	<path display="inline" fill="#090C18" d="M433.9,370.8c-0.1-0.8-0.1-1.7,0.6-2.3C434.5,369.3,435,370.3,433.9,370.8z" />
	<path display="inline" fill="#050506" d="M390.6,560.2c-0.3-0.5-0.5-1-0.8-1.6C390.8,558.8,390.6,559.5,390.6,560.2z" />
	<path display="inline" fill="#211D1B" d="M402.7,397c-0.5,0-0.9,0.1-1.4,0.1C401.9,396.2,401.9,396.2,402.7,397z" />
	<path display="inline" fill="#222736" d="M439.4,392.7c-0.2,0.2-0.4,0.5-0.5,0.7C439,393.2,439.2,393,439.4,392.7z" />
	<path display="inline" fill="#211C1A" d="M418.3,47.8c-0.6,2,0.3,6.5-3.3,5.2c0,0.4,0,0.7,0,1c-0.3,0-0.6,0.1-0.9,0.1l0,0   c-0.4-1-0.9-2.1-1.3-3.1c0.2,0,0.5,0,0.9,0c-0.1-0.6-0.1-1.3-0.2-1.9c0.4-0.6,0.8-1.1,1.3-1.7c-0.8-0.7-1.5-1.3-2.2-1.9   c-0.6,0.3-1,0.5-1.4,0.7c0.5-1.8,2.5-2.7,3.7-4C414.6,44.7,417.2,45.9,418.3,47.8z M416.3,48.5c0.2-0.4,0.7-0.7,0.3-1.1   c-0.3,0.2-0.5,0.3-0.8,0.5C416,48.1,416.1,48.3,416.3,48.5z M416.1,50.3c-0.2,0-0.3,0-0.5,0C415.7,51.5,416.1,51.5,416.1,50.3z" />
	<path display="inline" fill="#303131" d="M437.5,25.1c-0.5,0.2-1.3-0.1-1.5,0.7c-1.1-0.4-1.4-1.5-1.5-2.6c-1.6-0.4-3.1-0.9-4.8-0.1   c0.6-0.9,1.2-1.8,1.9-3C433.7,21.6,437.9,21.8,437.5,25.1z" />
	<path display="inline" fill="#D1BDB3" d="M411.2,46.2c0.4-0.2,0.8-0.4,1.4-0.7c0.7,0.6,1.3,1.2,2.2,1.9c-0.5,0.6-0.9,1.2-1.3,1.7   c0.1,0.6,0.1,1.2,0.2,1.9c-0.4,0-0.6,0-0.9,0C411.9,49.5,410.4,48.1,411.2,46.2z" />
	<path display="inline" fill="#CFBCB2" d="M418.3,47.8c-1.1-1.9-3.8-3.1-3.4-5.6c1.8-0.5,2.7,0.7,3.4,2c0,0.8,0,1.6,0.7,2.2   c0,0.4,0,0.9,0,1.3C418.8,47.8,418.5,47.8,418.3,47.8z" />
	<path display="inline" fill="#1C1C1C" d="M449.5,19.4c0.3,0.4,0.7,0.8,1.1,1.3c-2.8,0.4-4.9-1.4-7.5-2c0-0.2,0-0.5,0-0.7   c0.6-0.1,1.1-0.2,1.7-0.4C446.3,18.2,447.9,18.8,449.5,19.4C449.5,19.4,449.5,19.4,449.5,19.4z" />
	<path display="inline" fill="#323333" d="M426.8,17.4c2.4,1.9-2.1,3.7-3,5.3C422.1,20.8,425.8,19.1,426.8,17.4z" />
	<path display="inline" fill="#323333" d="M465.1,11.6c-0.6,0.9-1.3,1.9-1.9,2.8c-1.4-0.2-1.4-0.2-1.6-2.1c0.8-0.8,2-0.8,3-1.2   C464.7,11.2,464.9,11.4,465.1,11.6z" />
	<path display="inline" fill="#2E2F2F" d="M415.5,31.9c-0.2,2.3,0.5,4-0.9,5.7C413.7,34.8,413.8,33.4,415.5,31.9z" />
	<path display="inline" fill="#252626" d="M421.4,13.4c1.4-0.8,2.8-1.6,4.1-2.4c1.5,2.1-2.1,2.8-3.4,3.2   C421.8,13.9,421.6,13.6,421.4,13.4z" />
	<path display="inline" fill="#343434" d="M428.4,27.3c0.4,0.4,0.8,0.7,1.2,1.1c-0.3,1.5-1.5,2-2.4,3.2c-0.8-1.8,0.7-2.8,0.5-4.1   C427.9,27.3,428.1,27.3,428.4,27.3z" />
	<path display="inline" fill="#282929" d="M456.2,5.3c1,0.2,1.2,0.4,1.8,1.3c-0.5,1-1,1.9-2.7,2C455.6,7.5,455.9,6.4,456.2,5.3z" />
	<path display="inline" fill="#2E2F2F" d="M439,12.5c0.2-0.8,0.5-1.7,0.8-2.7c0.7-0.2,1.5-0.5,2.4-0.7c0.3,1.6-1.9,2.5-2.7,3.8   C439.3,12.8,439.1,12.6,439,12.5z" />
	<path display="inline" fill="#191919" d="M435,15.6c0.6-1.6-0.1-3.2,1.2-4.6c1.1,2.1-0.4,3.3-0.4,4.8   C435.5,15.7,435.3,15.6,435,15.6z" />
	<path display="inline" fill="#212121" d="M420.2,46.3c0.9-1.4,1.5-2.4,2.1-3.2C424.5,43.1,421.9,46.7,420.2,46.3z" />
	<path display="inline" fill="#333434" d="M421.1,34.3c0.5-0.2,1-0.4,1.9-0.8c0.5,2.1-0.3,2.2-1.8,3.7   C421.2,35.9,421.2,35.1,421.1,34.3C421.2,34.3,421.1,34.3,421.1,34.3z" />
	<path display="inline" fill="#1C1D1D" d="M443.1,18c0,0.2,0,0.5,0,0.7c-0.8,0-1.6,0-2.6,0c-0.1-0.8-0.2-1.5-0.2-2.1c0,0,0,0,0,0   C441.3,17,442.4,17.1,443.1,18z" />
	<path display="inline" fill="#212424" d="M448,12.5c-0.3,1.6-1,2.1-2.6,1.8C445.9,13.2,446.5,12.6,448,12.5z" />
	<path display="inline" fill="#1A1A1A" d="M421.9,19.4c0-1.3,0.7-2,2.2-2.8C423.8,18.3,423.6,19.5,421.9,19.4L421.9,19.4z" />
	<path display="inline" fill="#333535" d="M421.2,34.3c-1,0.4-2,0.9-3,1.3c-0.4-0.8,0.2-1.3,0.6-1.8   C419.6,33.5,420.5,33.2,421.2,34.3C421.1,34.3,421.2,34.3,421.2,34.3z" />
	<path display="inline" fill="#232121" d="M456.2,20.1c-1.6,1-2.3,0.7-3-0.3c0.3-0.3,0.5-0.5,0.8-0.9   C454.6,19.2,455.2,19.5,456.2,20.1z" />
	<path display="inline" fill="#1D2222" d="M433.9,9.5c-0.4-0.3-0.8-0.6-1.4-1.1c0.5-0.4,0.9-0.8,1.6-1.3c0.2,0.9,0.3,1.5,0.4,2   C434.4,9.3,434.1,9.4,433.9,9.5z" />
	<path display="inline" fill="#222222" d="M442.4,17.3c0-1.3,0.7-2,1.8-2.5C443.8,16.7,443.8,16.7,442.4,17.3L442.4,17.3z" />
	<path display="inline" fill="#1B1C1C" d="M408.4,42.8c2,0,2,0,1.5,1.6C409.3,43.7,408.8,43.2,408.4,42.8z" />
	<path display="inline" fill="#202020" d="M447.7,9.8c0.1,0.5-0.7,0.7-1.1,1c-0.2-0.3-0.3-0.5-0.5-0.8   C446.7,9.9,447.3,9.3,447.7,9.8z" />
	<path display="inline" fill="#1C1C1C" d="M449.5,19.4c-0.1-0.4-0.3-0.8-0.4-1.2C450.7,17.3,451.5,19.6,449.5,19.4L449.5,19.4z" />
	<path display="inline" fill="#1C1D1D" d="M439.6,16.6c0,0.9-0.2,1.5-1.2,1.8C437.9,17.2,438.3,16.6,439.6,16.6L439.6,16.6z" />
	<path display="inline" fill="#1A1A1A" d="M421.9,19.4c-0.3,0.8-0.8,1.3-1.9,1.3C420.3,19.6,421,19.4,421.9,19.4L421.9,19.4z" />
	<path display="inline" fill="#211C1A" d="M419,46.5c-0.7-0.6-0.7-1.4-0.7-2.2C419.4,44.7,419,45.6,419,46.5z" />
	<path display="inline" fill="#1C1D1D" d="M439.6,16.6c0.2-0.7,0.5-0.6,0.7,0l0,0C440,16.6,439.8,16.6,439.6,16.6L439.6,16.6z" />
	<path display="inline" fill="#373A46" d="M295,82.5c-0.4,0.4-0.8,0.8-1.3,1.4c-0.8,0-1.7-0.1-2.5-0.1c8.1-75.1,83.9-59.4,80.3,12.6   c-5.8,71.3-79.1,69.6-81.5-1.9c2.5,0.1,2.5,0.1,4,0.9c1.4,18.3,10,45.2,30.5,48.5c-19.2-7.1-27.2-29.5-28.7-48.3   c9.6-0.5,19.1,1.2,28.8,2c-4.6,3.4-7.6,8.4-11.9,11.5c-1.2,5.7,2.7,12,8.2,13.7c5.6-2.1,4.4-16.2,9.4-20.5c0,0,0,0,0,0   c-0.9,6.3-0.5,12.8-1.4,19.1c2.4,3.6,2.4,3.6,6.7,5c8.9-3.2,5-17.2,1.2-23.2c11.4-4.1,11.3-16.2-0.5-20.7c-2.7,1.1-6.3,0.6-7.8,4.2   c-10.8,0-20.9-1.9-31.8-2.3c0.3-26,25.3-55.6,52-40.4C324,24.4,295.9,57.5,295,82.5z M337.1,144c0-0.2,0-0.3,0-0.5   c-0.7,0-1.3-0.1-2-0.1c0,0.2,0,0.3,0,0.5C335.8,144,336.4,144,337.1,144z" />
	<path display="inline" fill="#92A3C5" d="M255.6,89.9c0.5-0.8,0.9-1.5,1.3-2.2c-0.2-1.4-0.4-2.9-0.6-4.3   c19.9,0.7,39.7,3.1,59.5,4.6c6.5,1.4,14.9-0.9,20.2,3.3c0.2,9-14.8,2.7-20.4,3.4C295.6,93.2,275.8,91.5,255.6,89.9z" />
	<path display="inline" fill="#7789B0" d="M324.9,108.1c-1.3,4-2.7,7.9-4.1,12c-9.4-3.6-3.7-12.7,1.7-17.2   C323.9,104.4,323.6,106.7,324.9,108.1z" />
	<path display="inline" fill="#8E9FC0" d="M341,88.2c4.1,4.3,1.2,12.5-5,13.1c-0.5-0.9-1-1.9-1.4-2.8C341.2,93.9,335.2,89,341,88.2z   " />
	<path display="inline" fill="#8B9CBC" d="M332.6,112.2c-0.4-4.2,0.6-8.5-0.7-12.5c-0.4-0.8,0.3-1.4,1.8-1.5   c0.6,5.1,4.4,9.4,3.9,14.7c-2.8,0.1-2.8,0.1-4,2.4C332.9,114.4,333.9,113,332.6,112.2z" />
	<path display="inline" fill="#7586AC" d="M332.6,112.2c1.3,0.7,0.2,2.2,0.9,3.1c1.2-2.3,1.2-2.3,4-2.4c0.4,3.1,0.6,7.7-2.1,9.8   c-1.5-0.4-1.5-0.4-2.8-1.6C332.7,118.3,332.7,115.3,332.6,112.2z" />
	<path display="inline" fill="#8C9DBD" d="M324.9,108.1c-1.3-1.3-1-3.7-2.4-5.1c0.5,0.1,0.8-0.3,0.8-0.8c1.3-1.3,2.7-2.6,4.1-4   c1-0.2,2.2-0.2,3.3,0C328.7,101.5,326.8,104.8,324.9,108.1z" />
	<path display="inline" fill="#6D80A4" d="M341,88.2c-1.4,0.2-2.7,0.5-2.9,2.3c-1.8-2.5-4.4-3.2-7.4-3.2   C332.7,83.3,338.8,84.2,341,88.2z" />
	<path display="inline" fill="#6E7FA3" d="M252.9,82.7c2,2.5,2,2.5,1.6,5.3c-1,1.1-2.3,0.9-3.4,0.8   C248.9,85.7,249.2,84.7,252.9,82.7z" />
	<path display="inline" fill="#1B1C21" d="M343.9,41.4c1.8,0.8,3.8,0.5,4.8,2.6c-2.1,0.2-3.5-0.8-4.8-1.9   C343.9,41.9,343.9,41.6,343.9,41.4z" />
	<path display="inline" fill="#373A46" d="M330.5,102.3c0.1-0.1,0.2-0.3,0.3-0.4C330.8,102.2,330.7,102.3,330.5,102.3L330.5,102.3z" />
	<path display="inline" fill="#7789B0" d="M323.3,102.1c0,0.5-0.2,0.8-0.7,0.9C322.8,102.6,323,102.4,323.3,102.1z" />
	<path display="inline" fill="#373A46" d="M351,144.1c-0.2,0.7-0.8,0.7-1.4,0.7C349.8,144.2,350.4,144.1,351,144.1z" />
	<path display="inline" fill="#4C505E" d="M633,82.5c10.6,13,13.8,31.3,9.9,47.4c-2.1,1-5.3,1.3-7.1,0c3.6-16.3,0.8-33.5-8.5-47.5   C629.2,82.5,631.1,82.5,633,82.5z" />
	<path display="inline" fill="#373A46" d="M635.8,129.9c1.8,1.3,5,1,7.1,0c-2.2,9.1-6,18.1-13.4,24.2c-1.8-1.5-4.3-0.6-6.5-0.8   C629.4,146.7,633.7,138.6,635.8,129.9z" />
	<path display="inline" fill="#4A4E5C" d="M623,153.3c2.2,0.2,4.7-0.6,6.5,0.8c-6,7-14.9,9.6-24.2,8.9   C612.1,161.1,617.9,158.1,623,153.3z" />
	<path display="inline" fill="#353945" d="M633,82.5c-1.9,0-3.8,0-5.7,0c-5.1-6.2-10.7-11.2-18-14.9C618.5,68.6,627.8,74.8,633,82.5   z" />
	<path display="inline" fill="#798AB1" d="M662.9,117c3.6,8.2-12.2,3.3-16.2,3.7c-1.2-1.6-0.1-2.9-0.3-4.3c4.4,1.9,9.5-0.3,14.1,1.4   C661.3,118.1,662.4,118.2,662.9,117z" />
	<path display="inline" fill="#899EBE" d="M662.9,117c-0.5,1.2-1.6,1.1-2.4,0.8c-4.6-1.7-9.6,0.5-14.1-1.4c0-0.6,0-1.1,0-1.9   C651.6,115.1,658.7,113.6,662.9,117z" />
	<path display="inline" fill="#5470DC" d="M424.8,252.7c-0.8-1.2-2.4-0.8-3.5-0.8c-1.5,0.5-0.2,2.5-1.8,2.7c-0.2-0.9,0.7-2-0.5-2.7   l0,0c5.9-1.6,12.9-0.3,19.2-0.8c0.9,0.5,0.8,1.4,0.7,2.3c-0.5-0.5-1-0.9-1.5-1.4c-2.4-0.2-4.6,0.1-6.8,0.9c0,1,0,1.7,0,2.8   c-1.1-0.5-1.9-0.8-2.7-1.1c-0.6,0.3-1.1,0.7-1.7,1.1c-0.9-1.3-0.2-2,0.2-3.7C425.5,252.2,425.2,252.5,424.8,252.7z" />
	<path display="inline" fill="#5673E2" d="M431.8,252.5c1.5-1.3,3.8-0.5,5.6-0.7c1.1,0.9,2,1.8,2.9,2.9c0,0,0,0,0,0   c0.2,0.2,0.5,0.5,0.7,0.7c0.1,1.8-1.8,1.3-3,1.3c0.4-0.3,0.8-0.6,1.7-1.2c-2.7-0.1-4.8-0.2-7.1-0.3   C432.3,254.2,432.1,253.4,431.8,252.5z" />
	<path display="inline" fill="#171629" d="M399.3,256c0.3,0.6,0.6,1.2,1,1.9c1.5,0.1,2.9,0.3,4.4,0.4c-0.7,2.3-12.2-0.6-15.6-0.5   c2.5-2.1,6,0,9.2-0.2c0.1-0.7,0.2-1.1,0.3-1.5C398.8,256,399,256,399.3,256z" />
	<path display="inline" fill="#010101" d="M439.6,253.9c-0.2-0.2-0.4-0.5-0.7-0.7c0.1-0.8,0.2-1.7-0.7-2.3c2.7-1.2,5.7-0.3,8.8-0.6   c-0.2,0.3-0.3,0.5-0.4,0.8c-0.2,0-0.4,0-0.6,0c-0.5,0.2-1,0.5-1.5,0.7c-2.8-0.9-3.1-0.7-3.4,1.9c-0.3,0.3-0.6,0.7-0.9,1   C440,254.4,439.8,254.2,439.6,253.9z" />
	<path display="inline" fill="#1B2446" d="M407.7,251.1c-0.6,0-1.1,0-2,0c0.3,2.1,1.1,4,0.3,6.1c-1.7-1.7-1.1-3.9-1.7-6   c-0.4-0.1-1-0.1-1.6-0.2C404.4,250.1,406,249.8,407.7,251.1z" />
	<path display="inline" fill="#5573E2" d="M441.1,253.7c0.3-2.6,0.6-2.8,3.4-1.9c0.1,0.6,0.2,1.3,0.3,1.9   C443.5,254.1,442.3,254.2,441.1,253.7z" />
	<path display="inline" fill="#05060B" d="M389.9,249.6c-1.3,1.4-0.1,3.6-0.3,5.4C387.8,256.5,387.9,246.8,389.9,249.6z" />
	<path display="inline" fill="#222D58" d="M450.8,254c1-0.1,1.8,0.1,2.1,1.2c-1.4,0.1-2.9,0.4-4.2-0.5   C449.4,254.4,450.4,255,450.8,254z" />
	<path display="inline" fill="#2A3971" d="M448,252.5c0.1-0.6-0.2-1.5,1.2-1.2c0.1,0.7,0.2,1.5,0.3,2.4c-0.6-0.2-1-0.4-1.4-0.5   C448.1,253,448.1,252.7,448,252.5z" />
	<path display="inline" fill="#3F58AC" d="M446,251.1c0.2,0,0.4,0,0.6,0c0.3,0.7,0.6,1.4,0.8,2.1C445.4,254.7,446,252.2,446,251.1z" />
	<path display="inline" fill="#010101" d="M448,252.5c0.1,0.2,0.1,0.5,0.1,0.7c-0.2,0-0.5,0-0.7,0c0,0,0,0,0,0   C447.6,253,447.8,252.7,448,252.5z" />
	<path display="inline" fill="#564D49" d="M454.4,44.2c0.1,1.1,0.1,2.2,0.2,3.4c-2.2-0.4-2-4.5-0.9-6.3   C453.7,42.4,453.6,43.4,454.4,44.2z" />
	<path display="inline" fill="#D1D3C8" d="M456.8,41c1.5-1,1.5-1,3.8-1.2C460,41.8,458.4,40.8,456.8,41z" />
	<path display="inline" d="M414.1,54.1c0.3,0,0.6-0.1,0.9-0.1c0.8,1.1,0.9,1.9,1.6,3.4c-1.1-0.2-1.9-0.3-2.8-0.5   C413.9,55.9,414,55,414.1,54.1z" />
	<path display="inline" fill="#4B65C5" d="M444.5,331c-0.5,0.7-1,1.5-1.4,2.3c-0.1-1,0.2-2.2-1.3-2.5c0-5.2,0-10.3,0-15.7   c6.6-4.1,3.5-13.5,4.1-20.2c0.2,0,0.5,0,0.7,0c0.5,6-1,12.7,0.5,18.3c0.7-6.3,0.2-12.7,0.1-19c2.1,3.7,0.2,9.8,0.8,14.3   c6.7,6.8,14.3,12.3,18.2,21.4c0.9,0.2,1.8,0.5,2.9,0.8c0.1,0.6,0.1,1.2,0.2,1.9c-3.8,0.1-6.5-3.7-10.8-2.2   c-0.6,5.2-0.3,10.4,3.6,14.2c-5.3-2.3-10.1-5.7-14.1-10c-0.1-2.9,0.2-5.8-0.2-9.1c1.6-1.3,0.5-3.7,0.2-5.7c-0.3-2-0.5-2.2-3.3-2   C444.3,322.3,444.6,326.7,444.5,331z" />
	<path display="inline" fill="#0E1122" d="M431.8,252.5c0.3,0.9,0.6,1.7,0.8,2.6c2.3,0.1,4.4,0.2,7.1,0.3c-3.1,3-7.1,0.3-10.6,1.7   c1.1,4.5,0,9,0.8,13.6c-1.4,0.4-0.7,1.9-1.1,2.9c-0.3,0.1-0.6,0.2-0.9,0.3c-2-5.7,0.3-13-1.8-18.6c0.6-0.4,1.2-0.7,1.7-1.1   c0.8,0.4,1.7,0.7,2.7,1.1c0-1,0-1.8,0-2.8C431,252.7,431.4,252.6,431.8,252.5z" />
	<path display="inline" fill="#4B66C6" d="M429.6,259.6c-0.2-0.8-0.3-1.6-0.5-2.4c1.1-0.9,2.3-0.4,3.4-0.2   c3.1,8.8-0.5,18.5-0.5,27.7c-1.2-3.7,0-8.4-1.7-11.6C430.6,271,432.8,258.1,429.6,259.6z" />
	<path display="inline" fill="#06070E" d="M485.1,294c-2.1-4.4-10.2-22-9.2-26.3C479,274.1,486.2,287.4,485.1,294z" />
	<path display="inline" fill="#4A63C1" d="M440.3,346c-0.4,7.2-1.6,14.5-5.6,20.7C435.6,359.7,437.2,352.3,440.3,346z" />
	<path display="inline" fill="#020305" d="M446.4,259.8c0,7.7,0,15.2,0,23.6C445.9,279.8,442.4,259.6,446.4,259.8z" />
	<path display="inline" fill="#0D1121" d="M460.1,259.6c2.2,6.4,4.4,13,4,19.9c-2.9-6.8-2.9-13.6-5.9-20.3   C459,258.3,459.6,259,460.1,259.6z" />
	<path display="inline" fill="#0F1324" d="M413,272.3c2.9-0.6,6.1,13.6,7.9,16.6C416,286,415.4,278.1,413,272.3z" />
	<path display="inline" fill="#15172C" d="M453.1,339.6c4.7,3,9.6,5.3,14.1,8.5c-4.7,0.2-10.5-5.2-14.9-7.8   C452.6,340.1,452.8,339.8,453.1,339.6z" />
	<path display="inline" fill="#16172E" d="M423.9,370.1c3.6-4.2,8.7-7.5,10.2-13.2c2,5.8-6.4,9.2-9.3,13.3   C424.5,370.1,424.2,370.1,423.9,370.1z" />
	<path display="inline" fill="#1D213C" d="M429.6,303.5c3,3.2,5.5,6.7,8.5,9.9c-2.6-1-3.2-1.6-9.2-9.2   C429.2,304,429.4,303.8,429.6,303.5z" />
	<path display="inline" fill="#36498F" d="M431,269.5c-0.2,1.2-0.5,2.4-0.7,3.6c-0.4,0.1-0.9,0-1.3,0.1c0-0.9-0.2-1.9,0.9-2.3   c-0.5-3.8-0.2-7.5-0.3-11.2c0.2,0,0.5,0,0.7,0C430.8,262.7,429.3,266.9,431,269.5z" />
	<path display="inline" fill="#151930" d="M487.2,330.6c2.8-0.4,3.9,4.3,5.7,6.3C490.7,336.3,489.1,334.5,487.2,330.6z" />
	<path display="inline" fill="#161C35" d="M418.1,266.9c-1.3-2.8-1.2-5.6-0.6-8.4C419,260.4,418.1,264.4,418.1,266.9z" />
	<path display="inline" fill="#0F1322" d="M447.3,294.3c0,0.2-0.1,0.5-0.1,0.7c-0.4,0-0.8,0-1.2,0c-0.3-3.4,0-6.7,0.6-10.1   C446.7,288.1,446.7,291.2,447.3,294.3z" />
	<path display="inline" fill="#1F2344" d="M437.4,334.6c-2.1,1.1-4,2.6-6.6,2.7c1.8-1.5,3.9-2.3,5.8-3.4   C436.9,334.1,437.1,334.4,437.4,334.6z" />
	<path display="inline" fill="#1D1F3D" d="M426.1,255.4c0,0.3,0,0.7,0,1c-0.6-0.1-1.3-0.2-2.1-0.4c0.3-1.2,0.5-2.3,0.7-3.3   c0.4-0.2,0.7-0.5,1.5-1C425.9,253.4,425.2,254.1,426.1,255.4z" />
	<path display="inline" fill="#34407B" d="M437.4,334.6c-0.2-0.2-0.5-0.5-0.7-0.7c1.1-1,2.5-1.4,4-2.1   C440.2,333.7,438.6,333.6,437.4,334.6z" />
	<path display="inline" fill="#3A457F" d="M429.6,303.5c-0.2,0.2-0.5,0.5-0.7,0.7c-0.9-0.6-1.3-1.6-2.2-2.9   C428.5,301.6,429.1,302.5,429.6,303.5z" />
	<path display="inline" fill="#060508" d="M419,251.8c1.2,0.7,0.4,1.8,0.5,2.7C419.4,253.6,419.2,252.7,419,251.8z" />
	<path display="inline" fill="#2B3C76" d="M423.9,370.1c0.3,0,0.6,0,0.9,0.1c-0.8,1.1-0.8,1.2-2.5,1.4   C423.1,370.8,423.5,370.4,423.9,370.1z" />
	<path display="inline" fill="#4B66C6" d="M429,273.1c0.2,0,0.5,0,0.7,0c-0.3,0.2-0.6,0.4-0.9,0.6   C428.8,273.5,428.9,273.3,429,273.1z" />
	<path display="inline" fill="#B7BDD5" d="M446.6,154.1c6.6,1.5,17.4,2.4,19.2,9.9c-0.4,0-0.8,0.1-1.5,0.1c0.9,0.9,1.2,0.6,1.5-0.1   c0.3,0,0.6,0,0.9,0.1c0,0.4,0.1,0.8,0.1,1.2c-4.7,0.5-9.4,0-13.5-2.5c-3.6,2.7-7.2-0.1-9.7-2.4   C444.6,158.2,446.7,156.5,446.6,154.1z M460.8,163.9c-0.2-0.6-0.4-0.6-0.9-0.3c0.2,0.2,0.3,0.5,0.5,0.7   C460.5,164.1,460.7,164,460.8,163.9z" />
	<path display="inline" fill="#B7BDD5" d="M431.1,248.9c-0.6,0-1.1-0.1-1.8-0.1c-1.9-5.7-0.7-13.4-5.4-17.6c0.1-1.1-0.4-2.4,1.1-3.3   C428.6,234,429.8,242,431.1,248.9z" />
	<path display="inline" fill="#232125" d="M433.8,176.3c-2.8,4.4-5.1,9-5.9,14.4C425.4,187,429.8,177.7,433.8,176.3z" />
	<path display="inline" fill="#16171A" d="M472.3,210c0-5.2,0-10.3,0-15.5c0.4-0.2,0.8-0.4,1.2-0.7c-0.3,5.4,0.8,11-0.6,16.2   C472.7,210,472.5,210,472.3,210z" />
	<path display="inline" fill="#111012" d="M446.6,154.1c0.1,2.4-1.9,4.1-3,6.2c-0.8,0.3-1.6,0.6-2.5,0.9c-0.3-2.4,2.1-4.6,2.9-7   C445,154.1,445.8,154.1,446.6,154.1z" />
	<path display="inline" fill="#201E21" d="M473.9,186.8c-3.7-2.3-4.9-6.7-8-9.9C469.6,176.6,473.2,183.4,473.9,186.8z" />
	<path display="inline" fill="#1D1A1D" d="M466.8,165.2c0-0.4-0.1-0.8-0.1-1.2c4.5-0.2,7.3,0.5,9,2.3   C473.4,167.8,469.5,165.3,466.8,165.2z" />
	<path display="inline" fill="#1D1E21" d="M447.9,221.6c0.4,3.5,0.4,10.3,0,12.4C445.6,230.6,446.1,225.4,447.9,221.6z" />
	<path display="inline" fill="#313137" d="M447.7,209.5c0.7,2.4,1.2,8.2,0.9,10.2C446.4,217.2,447.1,212.9,447.7,209.5z" />
	<path display="inline" fill="#2E1D21" d="M434.3,164.4c-0.7-1.2,0.8-1.2,1.1-1.8c1.1,0,2.2,0,3.6,0   C437.6,164.6,436,164.6,434.3,164.4z" />
	<path display="inline" fill="#60626C" d="M427.4,198.1c0.1,1.4,0.4,2.7-0.4,4C425.6,200.8,425.7,199.6,427.4,198.1z" />
	<path display="inline" fill="#B7BDD5" d="M424,231.3c0,2.1,0,4.3,0,6.4C423.1,236.8,423.1,232.1,424,231.3z" />
	<path display="inline" fill="#B7BDD5" d="M424,246.1c1,0.4,1.6,1.2,2.1,2c-0.5,1.1-1.4,0.7-2.1,0.7C423.9,248,424,247.1,424,246.1z   " />
	<path display="inline" fill="#232327" d="M449.7,153.3c-0.4-1.1-0.7-2.1,0.7-2.8C451,151.7,451,152.6,449.7,153.3z" />
	<path display="inline" fill="#B7BDD5" d="M424,239c2.3,0.5,1.4,2.1,0,2.8C424,240.9,424,240,424,239z" />
	<path display="inline" fill="#686671" d="M473.5,193.8c-0.4,0.2-0.8,0.4-1.2,0.7c-0.2-1.1-0.4-2.2-0.7-3.6   C472.8,191.7,473.3,192.6,473.5,193.8z" />
	<path display="inline" fill="#37393F" d="M470.3,223c-0.5-1.6-0.6-2.7,0.4-4.3C471.2,220.4,470.8,221.5,470.3,223z" />
	<path display="inline" fill="#5F5862" d="M460.4,171.5c-1.6,0.5-2.3,0.1-2.7-0.9C458.7,169.8,459.3,170.7,460.4,171.5z" />
	<path display="inline" fill="#9EA0B2" d="M427.3,203.8c0,0.6,0,1.2,0,2.4C426.1,205.1,425.4,204,427.3,203.8z" />
	<path display="inline" fill="#7B7B88" d="M452.1,145.5c0,0.7,0.1,1.3,0.2,2.8c-0.8-1.2-1.1-1.8-1.5-2.4   C451.3,145.8,451.6,145.7,452.1,145.5z" />
	<path display="inline" fill="#35363D" d="M447.5,205c0-0.6,0-1.2,0-1.8C448.6,204,448.6,204,447.5,205z" />
	<path display="inline" fill="#48444B" d="M464,174.5c-0.4-0.5-0.8-1-1.2-1.6C464,173,464,173,464,174.5z" />
	<path display="inline" fill="#6A6C78" d="M448,196.5c0.1,0.7,0.1,1.1,0.2,2.1C447.2,197.7,447.2,197.3,448,196.5z" />
	<path display="inline" fill="#3F474E" d="M472.3,210c0.2,0,0.4,0,0.6,0c0.2,0.5,0,0.8-0.4,1.2C472.2,210.8,472.1,210.4,472.3,210z" />
	<path display="inline" fill="#818FAB" d="M601.8,123.6c2.3-1.8,3.1-4.4,3.6-7.1c1.7-1.5-0.4-4,1.2-5.6c0.8,4.7,0.6,9.5-3.3,12.8   C602.9,124.2,602.3,124.5,601.8,123.6z" />
	<path display="inline" fill="#EDC9B9" d="M488.5,419c-0.3-1.6,0.5-2.7,2-3.5c5.9,2,6.6,9.4,6.4,15c-0.4,0.5-1,1.2-1.6,1.8   c-2.8,0.1-5.9-4.4-6-8.5c0.8,0.5,0.5,2.1,2,2.1c0.9-1,0.4-2-0.2-2.8c-1.2-1.5-1-3.3-1.2-5.1C489,417.8,489,418.6,488.5,419z" />
	<path display="inline" fill="#141110" d="M493.5,399.3c0.6-0.3,1.1-0.6,1.9-1c0.1,1,0.2,1.6,0.3,2.3c-1.9,3.1-2.7,7.5-6.7,8.5   C489,405.3,491.9,402.5,493.5,399.3z" />
	<path display="inline" fill="#24201E" d="M483.3,446.4c2,1.3,5.5,12.3,2.5,16.6C485,457.1,484.2,452.3,483.3,446.4z" />
	<path display="inline" fill="#292321" d="M488.5,419c0.5-0.5,0.5-1.2,1.4-1.1c0.2,1.8,0,3.6,1.2,5.1c0.6,0.8,1.1,1.8,0.2,2.8   c-1.5,0-1.1-1.6-2-2.1C488.7,422.2,488.3,420.7,488.5,419z" />
	<path display="inline" fill="#3F3533" d="M485.3,470.3c-0.5-1.8-0.6-3.1,0-4.6C487.1,467,486.6,468.4,485.3,470.3z" />
	<path display="inline" fill="#160909" d="M485.4,484.5c-1.4-1.1-1.4-1.1-0.3-2.9C485.8,482.8,485.8,482.8,485.4,484.5z" />
	<path display="inline" fill="#211D1C" d="M485.4,474.4c0.7,1,0.4,2,0,3.4C484.4,476.6,483.6,475,485.4,474.4z" />
	<path display="inline" fill="#120C0B" d="M500.5,445.3c-1-2.3-1-2.3,0.6-4.2C501.1,442.6,500.7,443.7,500.5,445.3z" />
	<path display="inline" fill="#433431" d="M483.3,440.1c-1.7-0.1-1.7-0.1-1.8-2.6C482.9,437.9,482.9,439.1,483.3,440.1z" />
	<path display="inline" fill="#271817" d="M487,411.7c0.2,1.5-0.5,2-1.5,2.2C485.2,412.6,485.2,412.6,487,411.7z" />
	<path display="inline" fill="#483734" d="M483.4,413.9c0.4,1.3-0.2,1.7-1.1,2C481.5,414.9,482.2,414.4,483.4,413.9z" />
	<path display="inline" fill="#6E524D" d="M485.4,487.4c-0.4,0.2-0.7,0.3-1-0.2C484.9,487,485.2,486.9,485.4,487.4z" />
	<path display="inline" fill="#120D0C" d="M381.4,188.6c-1.1,1.1-2.4,3.4-4.1,2c0.6-2.9,3.1-5.3,4.6-8.3   C382.8,184.7,382.3,186.6,381.4,188.6z" />
	<path display="inline" fill="#1D1A19" d="M394.3,190.3c-0.7,2-1,5.4-3,6.2c-1.8-2.2,1.8-5.9,2.2-8.5   C394.7,188.5,394,189.6,394.3,190.3z" />
	<path display="inline" fill="#3E3331" d="M411.3,164.5c-2.5,0.6-4.7-2.1-4.4-4.5C408.6,161.4,409.8,162.9,411.3,164.5z" />
	<path display="inline" fill="#282523" d="M413.4,105.8c0.2-0.2,0.4-0.5,0.7-0.8c1.4,1.2,4.5,1.5,4.2,3.6   C416.7,107.7,414.5,107.4,413.4,105.8z" />
	<path display="inline" fill="#4D3D3A" d="M404.9,117.1c-0.4-0.5-0.9-1-1.5-1.8c1.8-0.5,3.6,0.6,3.7,2.6   C406.3,117.6,405.6,117.4,404.9,117.1z" />
	<path display="inline" fill="#5F524E" d="M395.3,184.2c-0.4-1.4-1.1-2.8,0.6-4.1C396.7,181.8,396.5,183.1,395.3,184.2z" />
	<path display="inline" fill="#4A3A37" d="M394.3,190.3c-0.3-0.7,0.4-1.8-0.8-2.3c0.3-0.6,0.6-1.2,0.9-1.9   C395.1,188.1,395.1,188.1,394.3,190.3z" />
	<path display="inline" fill="#272626" d="M408,120.6c0.8,1.5,0.7,2.8,0,4.4C407.3,123.4,407.2,122.1,408,120.6z" />
	<path display="inline" fill="#625756" d="M408.4,126.7c-0.1,0.8-0.1,1.6-0.2,2.4c-1.9,0.1-0.5-1.7-0.3-2.5   C408.1,126.6,408.2,126.7,408.4,126.7z" />
	<path display="inline" fill="#BEA098" d="M402.4,149.2c0.1,0.5,0.1,1.1,0.2,1.7C401.5,150.6,401.2,150.1,402.4,149.2z" />
	<path display="inline" fill="#594E4A" d="M405.3,156.3c-0.4-0.8-0.6-1.3-0.9-1.8C405.7,154.3,405.7,154.3,405.3,156.3z" />
	<path display="inline" fill="#5A4B46" d="M382.8,180.8c-1-1.1-1-1.4,0-2.6C382.8,179.1,382.8,180,382.8,180.8z" />
	<path display="inline" fill="#94726A" d="M383.6,175.4c-1.5,0.3-1.7-1.7-0.1-1.4C383.6,174.4,383.6,174.9,383.6,175.4z" />
	<path display="inline" fill="#AE9C94" d="M395.5,174.6c1.7,0.8,1.3,1.3,0.3,2.1C395.7,176,395.7,175.5,395.5,174.6z" />
	<path display="inline" fill="#B29F9A" d="M408.3,134.3c-0.1,0.1-0.3,0.1-0.4,0.1c0-0.3-0.2-0.6,0.2-0.7   C408.2,134,408.2,134.2,408.3,134.3z" />
	<path display="inline" fill="#8F7C77" d="M396.3,169.5c-0.1,0.2-0.1,0.4-0.2,0.5c-0.5-0.2-0.4-0.5-0.2-0.8   C396.1,169.3,396.2,169.4,396.3,169.5z" />
	<path display="inline" fill="#1A1312" d="M436.8,37.9c1-0.2,1.9-1.1,3-0.3c3.2-0.2,8.3-1,8.9,3.5c-1.2,0.4-1.8,0.4-3,0.4   c-1.1,3.9-5,2.5-10.9,2.5c0.4-2.9,3.9-1.1,5.5-2.7c1.2-0.3,2.6,0.5,4.3-0.4c-2.2-1.1-3.4-1.1-5.6-1   C438.2,39.3,437.5,38.6,436.8,37.9z" />
	<path display="inline" fill="#221B19" d="M434.5,76.9c-0.1,0.3-0.2,0.6-0.3,0.9c-4.7-1.3-9.3-5.4-13.4-8.1c-0.4-1.5-0.7-2.9-1-4.2   c0.3-0.8,0.7-1.5,1.3-2.1c0.7,2.1,1.4,4.1,2.1,6.4C427.2,71.6,431.2,74.2,434.5,76.9L434.5,76.9z" />
	<path display="inline" fill="#D9BEAF" d="M457.5,64.7c2.2,2-2.1,2.9-2.3,4.9c-2.4-0.7-5.2-1.3-7,1c-0.7-2.3-2.9-1.7-4.3-3.1   c4.5,0.4,8.9-0.9,13.4-1.3C457.4,65.6,457.4,65.2,457.5,64.7z" />
	<path display="inline" fill="#13100F" d="M448.2,70.6c1.8-2.4,4.6-1.8,7-1c0.3,0.5,0.5,1,0.9,1.6c-2.6,1.6-5.1,1.7-8,1.1   C448.1,71.7,448.1,71.1,448.2,70.6z" />
	<path display="inline" fill="#2A1E1C" d="M457.5,64.7c0,0.4-0.1,0.9-0.1,1.4c-4.6,0.4-8.9,1.7-13.4,1.3c-0.2-1,0.2-1.9,1.1-1.8   C449.2,66.3,453.4,64,457.5,64.7z" />
	<path display="inline" fill="#26211F" d="M449.7,58.9c1-2.7,5.1-3.6,6.8-1.5c-0.8,2.2-2.5,1.5-3.9,1.2c-0.5,0.4-1,0.8-1.6,1.3   C450.7,59.6,450.2,59.3,449.7,58.9z" />
	<path display="inline" fill="#39312E" d="M436.8,37.9c0.5,0.5,0.9,0.9,1.4,1.4c-2.2-0.4-3.2,2.2-5.3,2c-0.5-0.5-0.4-1.1,0-1.2   C434.3,39.6,435,37.9,436.8,37.9z" />
	<path display="inline" fill="#B8AFA6" d="M438.9,39.9c2.2-0.1,3.5-0.1,5.6,1c-1.7,0.8-3,0.1-4.3,0.4   C439.8,40.9,439.3,40.4,438.9,39.9z" />
	<path display="inline" fill="#EDCABA" d="M441.7,79.6c-0.9,0.1-1.8,0.1-2.7,0.2C439.8,78.7,440.4,78.6,441.7,79.6z" />
	<path display="inline" fill="#EDCABA" d="M434.5,76.9c-0.2-0.3-0.5-0.5-0.7-0.8C434.1,76.4,434.3,76.7,434.5,76.9z" />
	<path display="inline" fill="#312523" d="M525.3,187c-2.3,3.2-3,3.5-4.9,2.6C522.4,187.9,522.9,187.6,525.3,187z" />
	<path display="inline" fill="#221F1D" d="M528.8,132.1c0-1.3,0.1-2.7,0.2-4.1c0.5-0.1,0.9-0.1,1.3-0.2c0.2,2.1,0.4,4.2,0,6.3   C529.1,133.7,529.1,132.7,528.8,132.1z" />
	<path display="inline" fill="#1D1A19" d="M510.5,187.9c0.2-0.6,0.4-1.2,0.9-2.5c0.4,2.1,0.7,3.3,1,4.7c-0.5-0.1-0.8-0.1-1.2-0.2   c0-0.2,0-0.4-0.2-0.5C510.9,188.9,510.7,188.4,510.5,187.9L510.5,187.9z" />
	<path display="inline" fill="#372C29" d="M513.8,191.6c0.1-0.5,0.1-1,0.2-1.4c1.3,0.4,1.6,1.4,1.7,2.6   C514.4,193.2,514.3,192,513.8,191.6z" />
	<path display="inline" fill="#262624" d="M496.9,181.7c0.6-2.1,1.7-0.5,2,0.6C498.1,182.6,497.6,182,496.9,181.7z" />
	<path display="inline" fill="#141514" d="M525.6,185.6c0.4-0.3,0.8-0.7,1.2-1c0.1,0.1,0.3,0.3,0.4,0.4c-0.3,0.4-0.6,0.8-1,1.2   C526,186,525.8,185.8,525.6,185.6z" />
	<path display="inline" fill="#BEA9A2" d="M531.8,142.5c-0.6,1.1-1.6,0.7-1-0.4C531,142.2,531.3,142.3,531.8,142.5z" />
	<path display="inline" fill="#A48F8A" d="M530.9,138.5c-0.1,0.1-0.2,0.2-0.4,0.4c-0.1-0.3-0.4-0.6,0-0.8   C530.7,138.2,530.8,138.3,530.9,138.5z" />
	<path display="inline" fill="#EDC9B9" d="M510.5,187.9c0.2,0.5,0.4,1,0.5,1.5C510.3,189.1,510.4,188.6,510.5,187.9z" />
	<path display="inline" fill="#746563" d="M530.7,146.5c0.2,0.4,0.3,0.7-0.2,1C530.3,147,530.2,146.7,530.7,146.5z" />
	<path display="inline" fill="#AB9089" d="M529.9,181.8c0.1,0.1,0.1,0.1,0.2,0.2c-0.1,0-0.2,0-0.4,0   C529.8,181.9,529.9,181.9,529.9,181.8z" />
	<path display="inline" fill="#1D2549" d="M453.7,369.4c-3.7-3-6.2-6.8-8.3-11c2.9-0.2,5.5,8.5,9,10.3   C454.2,369,454,369.2,453.7,369.4z" />
	<path display="inline" fill="#212B52" d="M444.5,331c0-3.5,0-7,0-10.5c0.3-0.2,0.6-0.3,1-0.5c1.3,2.4-0.4,5.5,0,8   c1.2,1.9,0.1,3.3-0.9,4.7C444.6,332.1,444.6,331.6,444.5,331z" />
	<path display="inline" fill="#212950" d="M453.1,339.6c-0.2,0.2-0.5,0.5-0.7,0.7c-2.6-1.7-4.5-3.9-6.4-6.3   C448.6,333.7,450.8,338.1,453.1,339.6z" />
	<path display="inline" fill="#32478B" d="M453.7,369.4c0.2-0.2,0.5-0.5,0.7-0.7c0.8,0.3,1.4,0.7,1.3,1.8   C454.6,370.9,454.1,370.2,453.7,369.4z" />
	<path display="inline" fill="#151B34" d="M448.9,395.5c0.2,0.1,0.3,0.3,0.5,0.4c-0.5,0.5-0.5,0-0.6-0.3L448.9,395.5z" />
	<path display="inline" fill="#2C2A2F" d="M391.3,230.2c3.1,6.2,5.6,10,10.1,15.2C396.2,243.3,390.8,235.6,391.3,230.2z" />
	<path display="inline" fill="#21353B" d="M424.7,165.4c-0.6,0-1.1,0.1-1.7-0.2C423.1,163.6,424.7,164,424.7,165.4L424.7,165.4z" />
	<path display="inline" fill="#79717F" d="M432.9,163.5c-0.3,0.4-0.5,0.3-0.8,0C432.3,163.2,432.6,163.4,432.9,163.5z" />
	<path display="inline" fill="#352C29" d="M367.3,159c-1,1.3,1.3,4.7-1.6,4.2c-1.2-2.6-1.2-2.6,0.9-4.3   C366.8,159,367.1,159,367.3,159z" />
	<path display="inline" fill="#3B302D" d="M370.7,183.8c0.1-0.2,0.2-0.4,0.2-0.6c0.3,0,0.7,0,1.1,0.1c0.5,1.6,0.3,2.3,0.3,4.3   C370.6,186.3,370.9,185.5,370.7,183.8z" />
	<path display="inline" fill="#37302D" d="M371.8,188.3c1.3,0.7,1.3,0.7,0.7,2.1C372.3,189.7,372.1,189,371.8,188.3z" />
	<path display="inline" fill="#3E2E2B" d="M371.6,154.7c1.4,0.3,0.6,1.5,0,2.1C370.6,156.1,370.6,156.1,371.6,154.7z" />
	<path display="inline" fill="#201E1C" d="M367.3,159c-0.3,0-0.5,0-0.8,0c0.3-0.4,0.6-0.8,1.1-1.7c0.2,0.9,0.3,1.3,0.3,1.7l0,0   C367.8,159,367.5,159,367.3,159z" />
	<path display="inline" fill="#0C0B0B" d="M495.6,559.4c-8.4-3.4,12.3-12.9,11.8-5.4C503,554.8,499.4,556.5,495.6,559.4z" />
	<path display="inline" fill="#3C3839" d="M516.1,565.4c-1.5,2.4-2.5,2.8-5.6,2.1C509.3,564.5,514.1,564.2,516.1,565.4z" />
	<path display="inline" fill="#3B2C2B" d="M489.2,145.2c0.1-2.9,0.3-3.1,2.1-2.7C490.7,143.8,490.5,144.1,489.2,145.2z" />
	<path display="inline" fill="#201717" d="M462.2,117.1c-2.6,2.1-7.6,1.1-14.7,1.8C449.3,115,458.7,115.2,462.2,117.1z" />
	<path display="inline" fill="#211817" d="M436.8,115.7c3.2,1.5,6.9,2.9,8.6,6.2c-3.8-0.4-7.8-4.3-11.5-6.2c0-0.2,0.1-0.3,0-0.5   c0.4,0,0.9,0,1.3,0C435.6,115.8,436.2,115.8,436.8,115.7z" />
	<path display="inline" fill="#58504D" d="M446.7,114.5c-1.9-1.9-1.9-2.7-0.4-3.6C447,112.1,446.6,112.7,446.7,114.5z" />
	<path display="inline" fill="#695D5A" d="M447.1,127.1c0.2,0.4,0.4,0.8,0.6,1.2c-0.9,0.4-0.8-0.4-1.1-1   C446.8,127.3,446.9,127.2,447.1,127.1z" />
	<path display="inline" fill="#745452" d="M436.8,115.7c-0.6,0.1-1.2,0.1-1.5-0.5C435.8,115.4,436.3,115.6,436.8,115.7z" />
	<path display="inline" fill="#745452" d="M434,115.2c0,0.2,0,0.3,0,0.5c-0.2-0.1-0.3-0.3-0.5-0.4   C433.6,115.3,433.8,115.3,434,115.2z" />
	<path display="inline" fill="#745452" d="M434,115.7c0.2,0.2,0.4,0.3,0.7,0.5C434.4,116.1,434.2,115.9,434,115.7z" />
	<path display="inline" fill="#5A1A1A" d="M396.8,112c-2.5,1.2-2.8,1.2-5.2,0.4C392.9,111.3,393,111.3,396.8,112z" />
	<path display="inline" fill="#0B0404" d="M515.4,127c1.1-0.7,3-1,4.2-0.5C518.3,127.1,516.8,127.4,515.4,127z" />
	<path display="inline" fill="#201917" d="M486.7,165.8c2.3,3.6,2.7,7.2,5.1,10.6C487.6,175.6,485.6,170.1,486.7,165.8z" />
	<path display="inline" fill="#6E5A53" d="M494.8,178c-0.5,0.7-1,0.8-1.4,0.1C493.6,177.2,494.2,177.5,494.8,178z" />
	<path display="inline" fill="#FBDFD3" d="M489.2,178.1c-0.2-0.1-0.3-0.2-0.5-0.3C488.9,177.9,489,178,489.2,178.1L489.2,178.1z" />
	<path display="inline" fill="#271E1C" d="M448.7,88.3c0.3,0.3,0.4,0.5,0.7,0.7c-0.7,2.1-3.8,4.4-6.1,3.7   C444.3,90.5,446.6,90,448.7,88.3z" />
	<path display="inline" fill="#A1867B" d="M421.1,63.4c-0.6,0.6-1,1.3-1.3,2.1c0-2.4,0-4.9,0-7.4c0.3-0.1,0.6-0.2,1-0.3   C421.2,59.8,421.2,61.6,421.1,63.4z" />
	<path display="inline" fill="#443835" d="M428.3,83.2c-0.3,0-0.5,0-0.8,0c-0.6-1.4-3.3-2.8-1.9-4.4C426.9,80,428.4,81,428.3,83.2z" />
	<path display="inline" fill="#6D554E" d="M421.8,75.4c0.1-0.3,0.1-0.6,0.2-1.2c1,0.4,1.7,1,1.9,2.1C423,76.5,422.6,75.8,421.8,75.4   z" />
	<path display="inline" fill="#322926" d="M520.2,128.8c0-0.5,0.1-1.1,0.1-1.6c1.6,0.6,1.4,1.9,1.4,3.2   C520.6,130.3,520.3,129.6,520.2,128.8z" />
	<path display="inline" fill="#73625C" d="M523.2,134.2c-0.1,0.6-0.1,1.3-0.3,2.5C521.6,135.4,521.3,134,523.2,134.2L523.2,134.2z" />
	<path display="inline" fill="#798BB2" d="M510.4,105.2c0.2,0.2,0.4,0.5,0.6,0.7C510.8,105.7,510.6,105.4,510.4,105.2z" />
	<path display="inline" fill="#687589" d="M606.6,110.9c-1.6,1.5,0.5,4.1-1.2,5.6c0.3-4.8-0.7-9.3-2.9-13.5c0,0,0,0,0,0   C605.1,104.8,606.3,107.9,606.6,110.9z" />
	<path display="inline" fill="#687B90" d="M601.8,102.3c0.2,0.2,0.5,0.5,0.7,0.7c0,0,0,0,0,0C602.3,102.8,602.1,102.6,601.8,102.3   C601.9,102.3,601.8,102.3,601.8,102.3z" />
	<path display="inline" fill="#495D6A" d="M601.9,102.3c-0.2-0.1-0.4-0.2-0.5-0.3C601.8,101.6,601.7,102.1,601.9,102.3L601.9,102.3z   " />
	<path display="inline" fill="#373A46" d="M606.2,120.1c0.2-0.3,0.4-0.6,0.5-0.9C606.5,119.5,606.3,119.8,606.2,120.1z" />
	<path display="inline" fill="#18203D" d="M383.5,318.4c0,0.5,0,0.9,0,1.4c-1,1.2-1,2.4,0,3.6c1.1,11.3,0.8,22.7,0.7,34   c-2.1-14.7-1.4-30.2-2.7-45.3C382.7,313.9,382.2,316.4,383.5,318.4z" />
	<path display="inline" fill="#06060C" d="M383.6,375.8c1.8,1.4,4,0.8,5.7,2.5c-1.9,0.9-3.4-0.1-5.3-0.2c-1.3,4.2,1.8,8.1-1.2,11.9   c-1.8-3.7-0.1-8.1-0.6-12.2c-1.4-0.5-2.8-1-4.6-1.7C379.5,374.2,381.4,376.1,383.6,375.8z" />
	<path display="inline" fill="#0C101E" d="M383.6,375.8c-0.5,0-1,0-1.5-0.1c0.6-9.2,1-18.3,0.9-27.5   C385.1,357.2,383.7,366.6,383.6,375.8z" />
	<path display="inline" fill="#273465" d="M383.5,318.4c-1.3-2-0.8-4.5-2.1-6.4c0.4-0.4,0.8-0.8,1.4-1.4c-0.4-4.9,0.6-9.9,0.8-14.8   C385.7,302.8,382.7,310.9,383.5,318.4z" />
	<path display="inline" fill="#36488C" d="M384.4,298.6c0-1,0-2-0.7-2.8c0.1-1-0.5-2.1,0.6-2.9c0.2,1.3,0.2,1.3,1.5,0.8   c1.6,3.9,3,8.5,4.3,12.7l0,0c-2.7-2.6-3-6.9-4.6-10.2C385,297,384.7,297.8,384.4,298.6z" />
	<path display="inline" fill="#36488C" d="M384.3,289.4c-1.1-1.9-1.8-5.1-0.8-7.3c1.4,2.3,0.5,4.3,1.5,6.6   C384.7,288.9,384.5,289.1,384.3,289.4z" />
	<path display="inline" fill="#222D57" d="M384.3,289.4c0.2-0.2,0.5-0.5,0.7-0.7c-0.1,1.8,0.2,3.3,0.7,4.9   C383.3,294.9,384.6,290.6,384.3,289.4z" />
	<path display="inline" fill="#273465" d="M383.5,323.4c-0.9-1.2-1-2.4,0-3.6C383.5,321,383.5,322.2,383.5,323.4z" />
	<path display="inline" fill="#36488C" d="M385.7,292.9c-0.9-1-0.6-2.3-0.6-3.6C386,290.3,385.7,291.6,385.7,292.9z" />
	<path display="inline" fill="#36488C" d="M390,306.3c0.5,0.2,0.7,0.5,0.3,1.4C390.1,307.1,390,306.7,390,306.3L390,306.3z" />
	<path display="inline" fill="#141110" d="M402,444.5c-3.3,7.1-3.1,14.6-6,21.8c-1.1-6.9,0.7-17,5.4-22.3   C401.6,444.2,401.8,444.3,402,444.5z" />
	<path display="inline" fill="#261F1D" d="M401.1,429.2c-1.7-2.6,1-4.9,2.3-6.9c3-2.8,2.9-6.5,4.5-9.9c3.5,6.2-5.2,10.3-5.9,16   C401.9,428.6,401.6,428.7,401.1,429.2z" />
	<path display="inline" fill="#322A27" d="M392.1,411.2c-1,3.1-0.7,6.1-0.1,9.2c-0.2,0.2-0.5,0.5-0.7,0.7c-0.9-2-1.6-9.6,0.7-10.6   C392,410.8,392,411,392.1,411.2z" />
	<path display="inline" fill="#85746B" d="M390,429.6c-0.2-0.5,0.1-0.9,0.5-1.2c-0.2-0.1-0.3-0.2-0.5-0.2c0.7-1.9,0.9-2.9,0.9-5.2   C392.7,423.8,392.3,430.1,390,429.6z" />
	<path display="inline" fill="#342D2A" d="M394.8,468c0.6,2.2,0.1,4.1-0.8,6.4C393.2,471.7,393.4,470.6,394.8,468z" />
	<path display="inline" fill="#352E2C" d="M400.4,437.2c-0.1-2.7,0-2.9,1.5-4.8C402.4,434.4,401.3,435.8,400.4,437.2z" />
	<path display="inline" fill="#77645D" d="M369.3,458.5c-0.8,0.9-1.6,1.8-2.4,2.8c-1.5-2.2,0.9-3.1,2.5-3.9   C369.3,457.7,369.3,458.1,369.3,458.5z" />
	<path display="inline" fill="#675854" d="M382.3,517.1c-1-2.4-1-2.4,0-3.8C383.1,514.8,383.1,514.8,382.3,517.1z" />
	<path display="inline" fill="#564743" d="M381.1,522.4c-1.4-0.8-1.5-1.1-0.1-2.8C381.7,520.6,381.6,521.5,381.1,522.4z" />
	<path display="inline" fill="#161413" d="M392,486c-0.3,1-0.6,2-1,3.6C390.3,487.7,390.2,486.6,392,486z" />
	<path display="inline" fill="#524642" d="M393.5,477.9c0.2,1.1,0,1.9-0.9,2.5C391.5,479.7,392.2,478.2,393.5,477.9z" />
	<path display="inline" fill="#7A655F" d="M381.4,528.1c-0.4,0-0.9,0-1.3,0c0-0.6,0.1-1.3,0.1-1.9c0.3-0.1,0.4-0.1,0.6-0.1   C381.7,526.5,381.5,527.4,381.4,528.1z" />
	<path display="inline" fill="#EECABA" d="M370.3,451c-0.3,0.9,0.3,2.1-0.7,2.8l-0.2-0.1c0.2-0.9,0.5-1.9,0.7-2.8L370.3,451z" />
	<path display="inline" fill="#080607" d="M378.7,563.6c4.1-1.2,8.5-2.7,12.4,0.1c-4.4,3.2-10,2.8-14.1,6.8   C373.1,568.7,376.3,564.9,378.7,563.6z" />
	<path display="inline" fill="#090708" d="M392.5,569.1c-2,1.6-10.7,6.2-12.7,4.5C378.3,568.9,389.4,567.2,392.5,569.1z" />
	<path display="inline" fill="#0D0B0B" d="M393.1,574.5c-11.8,7.4-11.6-4.9-0.4-0.9C392.8,573.6,392.9,573.9,393.1,574.5z" />
	<path display="inline" fill="#B4B7BD" d="M378.7,563.6c-0.5,0.4-1.1,0.8-1.6,1.1c-0.3-0.2-0.5-0.4-0.8-0.6c0.5-0.4,1.1-0.9,1.6-1.3   C378.2,563.1,378.5,563.3,378.7,563.6z" />
	<path display="inline" fill="#B4B7BD" d="M374.4,565.6c0.2-0.2,0.5-0.3,0.7-0.5C374.9,565.3,374.7,565.5,374.4,565.6z" />
	<path display="inline" fill="#B4B7BD" d="M375.7,566.3c-0.2,0.3-0.3,0.6-0.5,0.9C375.4,566.9,375.5,566.6,375.7,566.3z" />
	<path display="inline" fill="#342A27" d="M371.4,445.5c-0.9-3.1-0.1-5.6,2.7-10C374.7,438.6,372.1,442.2,371.4,445.5z" />
	<path display="inline" fill="#302C28" d="M370.1,450.8c-0.2,0.9-0.5,1.9-0.7,2.8C367.5,453.7,368.4,449.2,370.1,450.8z" />
	<path display="inline" fill="#947F75" d="M364.8,467.3c0.7-1.1,1-1.7,1.4-2.3C366.8,466.1,366.8,466.7,364.8,467.3z" />
	<path display="inline" fill="#271F1D" d="M391.4,421.2c0.2-0.2,0.5-0.5,0.7-0.7c0.2,0.5,0.4,1,0.6,1.6   C391.7,422.2,391.4,421.8,391.4,421.2z" />
	<path display="inline" fill="#1E0C0B" d="M390,428.2c0.2,0.1,0.3,0.2,0.5,0.2c-0.2,0.2-0.3,0.3-0.5,0.5   C390,428.7,390,428.4,390,428.2z" />
	<path display="inline" fill="#4D4E4A" d="M416.3,48.5c-0.2-0.3-0.3-0.4-0.4-0.6c0.3-0.2,0.5-0.3,0.8-0.5   C417,47.8,416.5,48.1,416.3,48.5z" />
	<path display="inline" fill="#E2CBC0" d="M416.1,50.3c0,1.2-0.5,1.2-0.5,0C415.8,50.3,416,50.3,416.1,50.3z" />
	<path display="inline" fill="#1B161A" d="M337.1,144c-0.7,0-1.3-0.1-2-0.1c0-0.2,0-0.3,0-0.5c0.7,0,1.3,0.1,2,0.1   C337.1,143.7,337.1,143.9,337.1,144z" />
	<path display="inline" fill="#0E1122" d="M439.6,253.9c0.2,0.2,0.5,0.5,0.7,0.7C440,254.4,439.8,254.2,439.6,253.9z" />
	<path display="inline" fill="#05060A" d="M446.7,295c0.2,0,0.4,0,0.5,0c0.5,6.1,0.6,12.2,0,18.3C445.7,307.8,447.1,301,446.7,295z" />
	<path display="inline" fill="#0E1222" d="M431,269.5c-1.7-2.5-0.2-6.8-0.7-9.9C432.1,259,430.6,267.8,431,269.5z" />
	<path display="inline" fill="#371315" d="M460.8,163.9c-0.1,0.1-0.3,0.3-0.4,0.4c-0.2-0.2-0.3-0.5-0.5-0.7   C460.4,163.3,460.6,163.3,460.8,163.9z" />
	<path display="inline" fill="#5B3940" d="M465.7,164c-0.3,0.7-0.6,1-1.5,0.1C464.9,164.1,465.3,164,465.7,164   C465.8,164,465.7,164,465.7,164z" />
</g>
</svg>