<?xml version='1.0' encoding='utf-8'?>
<svg xmlns="http://www.w3.org/2000/svg" version="1.2" baseProfile="tiny" id="Layer_1" x="0px" y="0px" viewBox="0 0 900 600" overflow="visible" xml:space="preserve">
<g id="b_00000034805216835884496750000007350853626788422025_">
	<path display="inline" fill="#CCD2E9" d="M487.2,176.5c0,0.8,0,1.7,0,2.5c-0.4-0.6-0.8-1.2-1.2-2c-2.7,3.3,1.4,8.2-0.8,9.4   c-4.5-0.2-0.7,12.7-0.7,15.7c-14.1,6.9-30.6,7.1-45.8,4.2c-1.4-3.5-5-4.9-7.4-7.4c0.4-0.4,0.7-0.8,1.1-1.2c3.2,2,5.7,4.3,9.6,4.6   c-3.6-3.7-7.7-5.9-10.7-9.6c0-2.6-0.1-5.2,0.1-7.9c4.5-1.2,9.4,2.8,13.5,0.2c-5-2.3-9-2.9-13.6-5.8c0-0.9,0-2.1,0-3.2   c0.8-0.2,3,0.4,2.4-1.2c-0.9-0.2-2-0.4-3-0.6c0.1-5.6-1.5-10.5-1.3-15.9c4.6,1.8,8.5,6.4,13.6,5.4c-1.6-5.2-7.9-6.6-11-10.4   c0.7-0.1,1.8,0.3,2-0.7c-1.2-1-1.6-0.9-2,0.7c-1.1-1.3-2.5-1.9-4-2.6c0.8-8.4-8.1-13.4-8-21.6c0.1-1.6-0.5-3-2-3.8   c-2.8-2,0.4-10.7,1.9-13.2c1.4,1.7,3.2,2.5,5.3,3.3c0.6-2.4-0.3-4.6-1.5-6.6c-5.7-10.4,1.2-23.3-1.4-34.7c1.6,0,2.4,0,3.9,0.2   c3.2,35.4,46.7,29,53.9-0.3c2.1,0.1,4.2,0.4,6.1,0.9c0,17.7,3.5,34.9,10.3,51.2c1.6,9.7-3.7,19.4-5,29.1c-1,6.7-5.3,13-4.9,19.4   c-1.3-1.6-9.5,1.7-11.6,2.5c1,0.1,2.1,0.8,2.9-0.4c2.8-0.8,6.2-0.7,8.7-2.2C486.7,175.1,486.1,176,487.2,176.5z M477.1,119.3   c0.7,0.7,1.4,1.2,2.9,1.1c-1.8-1-2.2-3.1-4.3-2.3C476.2,118.6,476.7,118.9,477.1,119.3z M471.2,184.4c3.5-0.1,6.5-0.1,10-1.9   c-2.6-0.2-4.9,0.3-6.6,1.2c-2.4,0.3-4.5-0.3-6.6,1.4C469.3,184.9,470.4,185.6,471.2,184.4z M471.9,200.4c1.6-0.3,2.5-1.4,3.3-2.7   c0.6-0.1,1.3-0.1,0.9-1.3c-0.4,0.5-0.7,0.9-1.1,1.2c-1.6,0.3-2.5,1.5-3.4,2.7c-1.7,0.2-2.8,2-4.4,2.8c-0.7,0.6-1.8,0.6-2.1,1.9   C468.2,204.4,469.9,202.2,471.9,200.4z M481.4,114.7c0.5-0.6,1-1.2,1.9-2.1c-1.3,0.1-1.8,0.5-2.1,1.3c-1.2,0.7-2.4,1.4-1.8,3.1   C480.7,116.7,481,115.6,481.4,114.7z M455.3,184c0.3-0.7,0.7-1.5,1.1-2.1c0.9-0.1,1.7-0.1,2.6-0.2c-0.5-1.1-1.4-1.1-2.4-1.8   c0.5-4.4-1.4-9.4,0.7-13.4c0.4,0.6,0.7,1.2,1.1,1.8c0.6-2.5-0.2-4.6-0.3-7c1.8-2.5-0.8-5.8-0.1-8.7c1.4-3.1-0.5-7.5,1.5-10.1   c0.9-2.5,0.5-5.9-0.8-7.9c-0.9-8.6-0.3-18.4-2.7-26.6c-0.3-1.1,0.6-3.5-1.3-3.3c-0.2,0.2-0.5,0.4-0.7,0.7l0,0   c-0.9,1.1-1.8,2.1-2.7,3.2c-0.6,10.5,3.8,20.9-0.5,30.8c0.5,0,0.8,0,1.2,0c1.6,4.1,0.3,9.2,3.8,13.2c-2.3,1.4-1.9,3.9-3.3,5.5   c-2-0.8-3.9-2.2-6.4-1.7c2.1,1.8,4.4,1.9,6.6,3.6c0.5,3.3-1.4,10.2,2.6,11.4c0,1.3,0,2.7,0,4c-2.6,1.5-0.8,5.5-1.3,8   c0.4,2.2-0.8,3.2-0.8,5.5C454.6,187.1,454.6,185.4,455.3,184z M429.3,99.9c1.6-0.3,2.3-3.4,1.2-4.7c-0.6,0.9-1,1.5-1.3,2.1   c-0.6-0.1-1.2-0.2-1.9-0.3c-0.2,0.4-0.4,0.8-0.5,1C427.7,98.6,428.5,99.3,429.3,99.9z M429.9,119.9c3.2,3.6,6.2,7.3,11.3,7.7   c-0.4-2.2-1.3-3.4-0.9-5.6c-0.2-3.3-5.9-3.9-6.4-7.9c0.4-0.7,0.9-1.5,1.3-2.3c-1.2-2.6-2.8-4.8-2.6-7.8c0.3-3.1-1.8-3.4-3.8-1.6   C429.7,108.5,425.2,114.8,429.9,119.9z M465.3,111.8L465.3,111.8c0.9,2,3.9,2.2,5.7,3.3c3.2,0.6,2.4-4.4,0.7-5.7   c-4.5-3.2-7.5-10.4-12.9-11.5c-0.7,1-2,1.5-2.3,3.1C458.8,104.6,461.1,110.4,465.3,111.8z M478.2,192.8c0-0.1-0.1-0.3-0.1-0.4   c-5.2,0.9-10.4,1.4-15.7,1.5C468.5,194.5,474,195,478.2,192.8z M475.7,178.2c3,0.4,5.8-0.1,8.5-1.5   C481.4,176.9,478.5,177.3,475.7,178.2z M454.9,200c-1.1,1.3-2.8,4.5-0.6,5.3C455.3,203.5,454.9,201.7,454.9,200z M462.6,175.1   c-1.2-1.4-1.7-3.2-2.9-3.8C458.7,172.6,460.8,174.8,462.6,175.1z M455.6,198.4c0.6-2.1-0.1-3.6-0.9-5.8   C454.6,195,453.7,196.7,455.6,198.4z M479.7,109.5c0.2-2.9,0.2-2.9-1.2-4.4C478.4,106.6,478.3,108,479.7,109.5z M448.8,143.4   c-0.4,2.8-0.4,2.8,0.2,5.3c0.3-1.8,0.5-3.4,0.8-5C449.4,143.7,449.1,143.6,448.8,143.4z M479.3,97.3c-0.5,1.9,0.4,3,0.8,4.7   C480.9,100.1,480.5,98.9,479.3,97.3z M449.5,163.4c-0.3,1.6-0.5,3.2-0.9,5.2C450.5,166.8,450,165.1,449.5,163.4z M487.2,109   c-1.7,0.8-2.2,1.6-2.6,2.8C486.4,111.8,486.6,110.6,487.2,109z M485.4,131.4c-0.7,1.2,0.2,1.9,1,3   C486.5,133.1,486.8,132,485.4,131.4z M450.3,179.8c0.4-1.4,0.5-2.3-0.1-3.2C449.5,177.6,449.8,178.5,450.3,179.8z M443.9,130.6   c-0.1,1.3-0.1,1.3,0.6,2.2C444.8,131.9,444.9,131.1,443.9,130.6z M423.7,131c0.2-0.7,0.6-1.4-0.7-1.8   C422.4,130.1,422.7,130.6,423.7,131z M467.2,175.3c-0.5-0.2-0.8-0.4-1.2-0.5C465.6,175.6,466.7,176.1,467.2,175.3z M482.8,121.9   c0,0.1-0.1,0.3-0.1,0.4c0.3,0.1,0.6,0.2,0.9,0.2c0-0.2,0.1-0.3,0.1-0.5C483.4,122,483.1,121.9,482.8,121.9z" />
	<path display="inline" d="M418.7,113.2c-1.1,6.2-2.8,12.2-5.4,18c-0.7-0.2-0.6-0.9-0.7-1.4c1.9-6.4,3.5-13.3,4.6-19.8   c-0.5-1.3-3.3-3.8-0.8-4.3c0.4,0.5,0.7,1,1.3,1.8c2.5-11.1,3.7-22.2,2.5-33.4c-32.1,3.5-39.3,14.9-35,46.2   c-3.3,8-8.3,15.3-8.4,24.3c0,1.1-0.9,2.2-1.4,3.2c-0.3-0.3-0.5-0.6-0.8-0.8c-1.5-12.8,9.4-21.7,8.6-32.8   c-1.9-8.8-2.1-18.2,1.8-26.5c-36.8,0.2-74-0.6-110.9-0.3c-1.1-0.8-1.1-1.5-0.6-2.3c37.4-3,78,3.4,114-1.8c0.7-0.5,1.4-1,1.5-2.1   c-38.6-0.8-77.7,1.1-116.1-0.6c-0.3-2.5,1.1-2.4,2.7-2.3c34.8,0.2,69.5,0.2,104.3-0.1c10.2,0.7,20.5-0.2,30-4.2   c18.5-7,30.5,3.3,24.6-24.4c0.3-0.7,1.2-1.7,0.1-2.2c-0.8-3.3-0.9-7-2.1-9.8c0.1-0.7,0.3-1.4-0.8-1.1c-0.9-0.4-0.1-1.3,0.2-1.9   c-1-2.8,0.5-5.2,0.1-8.2c-0.4-0.3-0.8-0.6-1.4-1.1c-0.7-6,3.3-9.8,7.2-13.9c1.1,0.1,2.4,0.2,3.1-1.4c0.1-0.3,0.9-0.3,1.5-0.5   c0-0.9,0-1.7,0-2.6c0.9-0.8,1.8-1.6,2.7-2.5c-0.2-1-0.3-2-0.5-2.9c2.7-2.5,4.7,4.9,8.5,4.1c4.5-1.8,7.7,1.7,11.5,3.7   c-0.2,0.3-0.5,0.5-0.7,0.8c-0.4,0.1-0.7,0.2-1.4,0.3c1.9,1.5,3.2,3.3,5,4.2c0.7-0.5,1.2-0.1,1.7,0.2c0.3,1.6,2.1,2,2.7,3.3   c1.1,1.3,1.4-0.3,1.3-1.3c0.2-0.2,0.5-0.5,0.7-0.7c0.5,5.8,1.9,12.1,0.9,18.1c1.2,1.7,0.8,3.7,0.3,5.8c-1.1-0.7-0.4-2.5-1.6-3.1   c-1.6,3.1-0.4,7-2.8,10c0.4,0.6,0.8,1.2,1.2,1.8c-2.9,3,1.5,11.2-4,12.1c-0.3-0.2,0-0.9-0.8-0.8c-0.9,1.1-0.4,3.1-2.3,3.9   c-0.3-0.3-0.6-0.7-0.9-1.1c1.3-1.4,1.4-3.2,1.8-4.8c-0.8-0.8-1.5-1.4-2.2-2.1c-0.3,1.2-0.6,2.4-0.9,3.6c0.4,0.6,0.7,1.2,1,1.7   c-0.3,0.6-0.6,1.2-0.9,1.8l0,0c-1.3,0.5-4.2-0.1-4,1.9l0,0c-1.8,0-1.8,0-1.9,1.5c-1.2,1.3-2.7,2-4.6,2.3c-0.6-0.3-1.4-0.7-2.2-1.1   c0.2-1.8-1.5-1.9-2.7-2.4c-0.2-1.9,0.5-4.2-0.3-5.8c-0.5,0.5-1,0.9-1.7,1.5c0.1,1.4,0.2,3,0.4,4.7c-2.1-0.5,0.1-3.4-2-3   c-0.1,0-0.3-0.3-0.4-0.4c0.2-1,0.4-2,0.6-3.2c-0.8,0.5-1.3,0.9-1.9,1.2c-1.3-0.7-0.3-2,0-3.1c-0.6,0.2-1,0.3-1.4,0.4   c0.1-1,0.2-2.1,0.3-3.3c-0.5,0.1-1,0.1-1.4,0.2c-0.4,1.5-0.3,2.5,1.1,3.1c-0.3,0.6-0.6,1.1-1,1.8c-0.5-0.8-0.9-1.4-1.6-2.6   c-0.1,3.5,0.2,6.4,0.5,9.6c-3.4,2.9-6,5.7-10.5,7c-0.8,13.2,11.2,25.4,24.5,23.3c-0.1-4.4-0.1-4.4,1.3-7.2c0.4,2.6,0.8,4.9,1.2,7.5   c1.5-0.5,2.7-0.9,4.2-0.8c0.2,0.2,0.4,0.4,0.7,0.6c-16,8-33.1-5.7-33.7-22.4c-1.6-0.2-2.4-0.2-3.9-0.2   C423.4,87.1,421.3,100.3,418.7,113.2z M469.2,26.7c0.2-0.2,0.4-0.4,0.7-0.7c1.1-0.1,2.2,0.3,3.1-0.3c0.2-0.7,0.3-1.3-0.8-1.6   c-1.2,1.5-4.8,2.7-4,4.8c0.1-0.9,0.2-1.2,0.2-1.6C468.7,27.1,469,26.9,469.2,26.7z M449.2,30.7c-0.3,0.6-1,1.1-0.9,1.8   c1.4-0.4,1.4-0.4,2.1-1.5C450,30.9,449.6,30.8,449.2,30.7c0.4-1.6,0.1-2.6-0.9-2.4c-0.6,0.7-0.5,1.4,0,2.2   C448.6,30.6,448.9,30.6,449.2,30.7z M453.2,62.6c-0.1-0.6,0-1.4-1.3-1C452.5,62,452.8,62.3,453.2,62.6c0.1,0.3,0.1,0.6,0.1,0.7   c0.9,0.3,1.6,0.5,2.4,0.7c0.1-0.2,0.3-0.7,0.5-1.1c0.5,0.3,0.9,0.5,1.5,0.8c0-0.8,0-1.4,0-2.1c-0.7,0.1-1.3,0.2-1.9,0.3   c-0.4-0.4-0.8-0.7-1.2-1.1C454.2,61.5,453.7,62.1,453.2,62.6z M440.5,12.2c-3.4,2.6-6.2,3.6-7,8.5c3-3.5,4-5.4,7.7-7.9   C440.9,12.5,440.7,12.3,440.5,12.2z M464.5,48.7c0.3,1.3,0.6,2.4,1.1,4c0.5-2.7,1.4-4.8,0.7-7.3C464.9,46.3,465.2,47.8,464.5,48.7z    M437.4,23.8c0.3-1.6,1-3.1-0.6-4.4c-0.6,0.6-1.1,1.2-1.8,2C436,22.3,436.7,23.1,437.4,23.8z M433.3,32.3c0.4,2.6,1.2,2.9,3.3,1.7   C435.8,32.9,435.3,31.6,433.3,32.3z M438,51.7c1.5-2.2,1.5-2.8,0.7-5.4C437.3,47.6,437.9,49.8,438,51.7z M459.3,8.2   c-0.9-1.1-2-1.5-3.3-1.8c0.1,0.8,0.1,1.5,0.2,2.1C457.3,8.8,458.2,8.9,459.3,8.2z M473.6,27.7c-0.9,0.3-1.3,1-1,1.8   c0.8,1.1,0.1,2.7,1,3.5c0.3-0.9,0.6-1.7,0.7-2.2C474.1,29.5,473.8,28.6,473.6,27.7z M456.3,59.6c1.2-2.2,1.1-2.4-0.1-4.5   C455.8,56.7,455.7,57.8,456.3,59.6z M453.6,22.5c1.1,0.8,0.7,2.2,2.3,2.6c-0.2-1.3,0.5-2.6-1.3-3.7C454.4,21.7,454.1,22,453.6,22.5   z M449.9,60.5c-1.1,1.8-1.1,1.8-1.1,3.1C450.6,62.3,450.6,62.3,449.9,60.5z M447.5,5.2c0.5,1.5,1.4,2.3,3.1,2.5   C450.1,6,448.5,5.9,447.5,5.2z M449.3,38.7c0.8,1.4,3-0.8,2.2-2C450.3,37,449.6,37.7,449.3,38.7z M444,23.2   c-0.7,1.6-0.2,2.5,0.3,3.4C445.4,25.7,445.4,25.7,444,23.2z M451,19.5c-0.8,1.1-1.4,2-1.4,3.3C451.2,22.1,451.4,21.1,451,19.5z    M439.9,29.7c-1-1.4-1-1.4-2.5-1.8C437.7,29.2,438.7,29.5,439.9,29.7z M438.4,41.1c-0.1,0-0.3,0-0.4,0c0,1,0,2.1,0,3.3   c0.4-0.2,0.7-0.4,0.9-0.5C438.7,42.9,438.6,42,438.4,41.1z M448.7,17.5c0,0.9,0,1.5,0,2.1c0.5-0.7,1.5-1.2,1.6-2.3   C449.6,17.4,449.3,17.5,448.7,17.5z M461,21.9c-0.7-0.7-1.3-1.2-2.4-0.9C459.1,22.5,460,22,461,21.9z M462.7,28.3   c1.3,0.1,1.3,0.1,1.4-1.3c-0.2,0-0.4,0-0.7,0C463.2,27.4,463,27.8,462.7,28.3z M464.4,29.7c-0.1,0-0.2,0-0.3,0   c-0.3,0.9-0.2,1.8-0.1,2.7C464.8,31.6,464.4,30.6,464.4,29.7z M448.4,37.1c1.3-0.7,1.3-0.7,0.9-1.7C449,36,448.8,36.4,448.4,37.1z" />
	<path display="inline" fill="#010101" d="M438.7,206.3c15.1,3,31.7,2.8,45.8-4.2c0-3-3.8-15.9,0.7-15.7c0.7,6.2,1.4,12.3,2.6,18.4   c0.1,1.3,0.5,2.3,1.7,2.9c6,3.3,7.7,11.1,5.7,17.1c-0.5-1.1,0.5-2.4-0.6-3.3c-1.4-5-2-11.9-8.1-13.2c-0.3-1.4-0.6-2.9-0.9-4.6   c-0.7,0.6-1.2,1-1.7,1.4c0.3,0.5,0.6,0.9,0.8,1.2c-0.1,0.9-0.2,1.8-0.2,2.6c-2.2,0.3-1.9-2.2-3.5-2.5c-0.4,0.5-0.9,1.1-1.4,1.8   c-0.3-0.3-0.6-0.6-0.8-0.9c-1.4,0.2-2.3,1.1-2.9,2.3c-0.1-0.5-0.2-1-0.2-1.4c-1.9,0-1.5,1.7-2.3,2.8c-0.2-0.9-0.3-1.7-0.5-2.5   c-4.5,0.1-9.2,0.7-13.8,1.5c-0.3,0.9-0.5,1.5-0.8,2.3c-0.5-0.7-0.9-1.2-1.3-1.8c-0.3,0.9-0.5,1.4-0.8,2.3c-0.2-1.1-0.4-1.8-0.6-2.6   c-0.7,0.1-1.2,0.1-1.8,0.2c-0.5,0.7-1,1.4-1.5,2.2c-0.3-0.8-0.5-1.5-0.7-2c-9.8-0.9-18.8-3.7-28.2-5c-0.7-0.9-1.8-0.5-2.6-0.8   c-1-0.8-2.1-0.6-2.9-0.4c-1,1.2,0.1,2.6-1.2,3.2c0-1.4,0-2.9,0-4.4c-0.5-0.6-1.1-1.3-1.9-2.2c0.1,1-0.2,1.9,0.2,2.2   c1.5,1.4,0.9,3.3,1,5c-0.4,0-0.8-0.1-1.2-0.1c-0.1-0.5-0.2-1-0.2-1.4c-1.8,1-3.4,2-4.7,2.8c-3.3,6.6-4,13.8-8.1,19.9   c-2.1,3.6-4.8,8-3.2,12.1c-1.1,1.7-1.5,2.9,0.3,4.2c-12.9,13.9-6.7,20.2-12.1,36.7c7.8,3.8,10.7,4,14.3,12.4   c16.8,21.3,26.3,5.6,31.7-13.2c6.1-2.2,7.1-12.3,13.5-13.2c6.9,8.3,10.8,18.1,16.2,27.3c2.8-4.8,0.3-10.2,2.1-14.8   c2.7,6.7,1.1,14.3-3.2,19.9c6.7-0.3,12.5-1.2,18.5-3.7c5.6-0.9,11.3-0.6,16.8-1.7c4-1.4,5.8-6.6,10.5-6.8   c-0.7-7.1-0.3-14.7-3.8-21.1c0.4-0.9,1.3-1.7,0.1-2.6c-0.2-1.3-0.4-2.8,0.5-4c3.8,9.1,3.4,19.4,6,28.5c-1.5,2.3-4.7,0.2-6.1,3.1   c0.2,5,0.2,10.9-1.8,15.6c-3.5,0.8-2.4,5.6-5.4,7.3c-0.4-0.2-0.8-0.4-1.2-0.6c2.3-3.7,4.1-7.6,4.6-12c0.2-0.2,0.2-0.4,0.1-0.6   c1-1,0.1-3,1.9-3.6c0.1-1.4,1.2-3.2-0.1-4.4c-6.4,7.1-18.3,0.9-25.3,6.5c-8.9,1.2-15.3,1-18.8,10.7c-6.4,4.8-14.3,9.5-20.3,14.4   c2.4,2,3.6,4.9,4.2,8.1c1-0.1,1.7-0.2,2.2-0.2c-0.3,1.2-2,1.4-2,2.9c-0.1,2.4-2.6,4.3,0.1,6.1c-0.3,0.4-0.7,0.8-0.8,1.3   c8.5,3.5,20.5-3.9,26.1,5.1c3.4,8.1,0.1,20.1-6.7,25.6c-0.2,1.7-0.5,3.5-0.7,5.2c-0.2-0.3-0.5-0.5-0.7-0.8   c-0.2-1.6,0.3-3.3-1.2-4.6c7.6-5.2,9-15,9.1-23.6c-6.6-7.9-17.2-2-25.6-5.7c-0.4,0.6-0.8,1.2-1.3,2c1,0.9,1.9,1.7,3,2.6   c-1.1,1.5-2.2,3.2-3.3,4.7c0.9,4.6,1.7,10.6-4.8,10.2c-6.8,13.4-0.9,9.4-2.4,18.5c-0.6-1.4-1.1-2.9-1.7-4.4   c-3.2,5.3-5.9,11.5-9.1,17c-0.3-0.3-0.5-0.6-0.8-0.9c4.9-9.7,7.5-19.7,11.3-29.9c-1.7-3.9,3-8.2,4.7-11.3   c-1.5-14.7-7.3-11.8-2-28.8c-11.7-0.7-29.6-13.9-29.3,7c-0.2,0-0.5,0-0.7,0c-0.7-1.4-0.4-3.4-1.9-4.2c0.1-0.2,0.1-0.3,0-0.5l0,0   c0.3,0,0.5-0.1,0.8-0.1c2.8-12.7,14-8.1,22.9-5.9c-0.2-5.3-1-11.9-5.5-15.5c-9.3,4.7-17.6-4-23.1-10.4c-0.9,0-1.5,1-2.4,0.2   c0.4-0.7,0.9-1.4,1.4-2.3c-0.4-1.2-0.9-2.4-1.3-3.6c-2.7-1.3-4.8-3.5-7.7-3.7c-0.3,7.8,1.8,14.6,4.2,21.5c-0.2,0-0.4,0-0.6,0   c-5-5.6-4.5-14.1-5.6-22.1c-4.3-4.5,0.8-10.9,0.6-16.2c-0.6-13.8,3.9-12.1,7.6-22.2c1-8.9,2-17.6,8-24.8c3.5-5.4,3-14.3,9.5-17.4   c0.2-2.5-0.5-5,1-7.3c0.7,0.1,1.4,0.3,2.1,0.4c0.4-3.9-0.5-7.7-0.7-11.6c0.6-0.1,1-0.1,1.4-0.2c0.1,1.2-0.5,2.4,0.6,3.4   c0.3,3.7,0.6,7.5,0.9,11C423,206,431.8,204.5,438.7,206.3z M456,309.7c0.3-0.3,0.5-0.5,0.8-0.8l0.2,0l0.2-0.1   c0.6,0.2,0.7-0.2,0.6-0.6c0.2-0.2,0.2-0.4,0.1-0.6c0.4-1.3,1.5-2.7,2.2-3.7c-0.2-1.2-0.4-2.2-0.6-3.2c0.4-0.8,0.7-1.6,1.2-2.5   c-4.9-9.4-8.6-19.3-15.3-27.8c-3.9,4.4-5.8,10.5-11.1,13.4c-2.7,7.3-4.2,15.4-10.7,20.3c5.1,5.1,4.8,12.2,6,18.2   c2.2,0.4,4.6,0.8,7,1.2C443.3,319.4,450.7,315.6,456,309.7z M439.5,345.1c-1.7-5.7,2.1-13.2-3.5-17.5c-1.5,6.7-2.7,12.5,2.3,18   C438.7,345.4,439.1,345.3,439.5,345.1z M438.6,357.8c-1.3,1.9-2,3.4-2.6,4.9C439.9,362.9,438.4,360.6,438.6,357.8z M437.9,352.5   c0.1,0.1,0.3,0.3,0.4,0.4c0.8-0.8,1.6-1.6,2.5-2.5c-0.9-0.6-1.5-1.1-2.3-1.7C438.3,350.1,438.1,351.3,437.9,352.5z" />
	<path display="inline" fill="#010101" d="M467.8,60.6c0.7-0.2,1.4-0.4,2-0.7c-0.3,2.2-0.5,4.1-1.1,6.2c6.2,4.7,14.5,3.6,21.1,7.6   c4.7,0.9,8.5,4.8,13.4,4.8c41.1,0.7,82.8-1.1,123.7,0.9c0,0.5-0.1,1.1-0.1,1.7c-38.9,0.5-77.8,0-116.7,0.1c0.2,1.5,1.5,1.2,2.3,2   l0,0c37,3.8,76.9,0.5,114.6,1.1c0.9,0.6,1.6,1.2,0.9,2.6c-37.2,0.8-74.8,0.7-112.1,0.4c5.4,6.9,2.8,15.8,3.3,23.9   c-0.2,1.6,0.6,3.5-0.8,4.6c-1.1-1.6-0.3-3.6-1.1-5.4c-0.7,0.4-1.2,0.7-2.1,1.2c0.6-2.1,0.6-4.2,2.3-5.4c2-14-8-24.1-20.9-27.1   c-2.7-1.3-5.3-4.9-8.6-4c-0.3,0.7,0,1,0.4,1.5c-0.9,1.8-0.7,3.9,0.2,5.8c0.9-0.2,1.7-0.4,2.5-0.6c0.5,0.2,0.9,0.5,1.4,0.7   c-1.3,0.7-2.6,1.5-4.1,2.3c0,5.9,2.7,13.1,0.8,18.4c-2.2-9.5-2.8-18.8-3.1-28.5c-1.9-0.5-4-0.8-6.1-0.9   c-1.6,8.3-7.5,15.5-14.8,19.5c-0.3-0.3-0.5-0.5-0.8-0.8c5.6-5.5,11.7-11.2,13-19.3c-4.7-1.3-9.1-3.7-11.3-8.2   c0.6-0.3,1-0.5,1.6-0.8C467.8,63,467.8,61.8,467.8,60.6z" />
	<path display="inline" fill="#030202" d="M518.3,115.9c2-6.1,0.2-13.7,0.8-20.2c2.1,8.4-1.5,17.9,2.7,25.7   c2.1,3.8,3.9,7.7,4.3,12.1c1.1,7.8,6.7,14.9,2.8,22.8c-3.7,8.6-6,20.1-17,21.5c-8.5-4.1-14.8-13.2-17.9-21.9   c-2.2,4.4-3.6,8.9-5.8,13.3c-0.9-0.5-0.4-1.4-0.6-2.1c3.5-13.2,9.3-27.4,8.6-41c-2.4-7.6-6.1-14.8-7.2-22.7   c0.7-0.2,0.7-0.9,0.7-1.5c1.7,6.6,4.4,13,6.7,19.4c-0.1,0.6-0.1,1.1,0.5,1.5c0,0.2,0,0.4,0.1,0.5c-0.1,0.6-0.1,1.1,0.5,1.4   c0.1,0.4,0.2,0.7,0.4,1.5c1.4-1.7,1-3.3,1-4.9c0.1-0.2,0.1-0.4,0.1-0.6c1.3-3.1,0.5-6.9,2-10.1c1.7,5.4,0.7,13.8-2.1,18.6   c-1.2,7.6-1.6,16.1-4.1,23.7c10.3,24.9,25.1,32.8,32.3,0.4c2.1-6.3-2.5-11.2-3.1-17.2C523.9,128.9,520.2,122.7,518.3,115.9z" />
	<path display="inline" fill="#030303" d="M374.6,147c0.3,0.3,0.5,0.6,0.8,0.8c-0.5,0.8-1,1.7-1.5,2.5c-0.1,8.5,5.5,13.8,9.8,19.9   c0.8,4.5,10.9,10.8,12.1,4.1c12.8-9.1,9.5-22.4,10.5-36c-2.9-5.4-1.1-13.8-1.2-19c-1.5-6.6-6.3-12.6-5-18c7.3,9.9,6.2,22.8,8,34   c0.9,0.4,0.8,1,0.4,1.6c-1.6,9.9,9,19.3,6,28.7c-1.9-4.4-3.1-8.9-5.4-13.2c-1.5,17.8-4.9,12-11,23.2c-4,6.8-13.5,2.5-15.5-3.8   c-4.5-8.4-12.5-8-10-22.1c0.2-0.1,0.2-0.3,0.2-0.4c0.2-0.3,0.4-0.6,0.6-0.9c0,0,0,0,0,0C373.7,147.9,374.1,147.4,374.6,147z" />
	<path display="inline" fill="#8FA1C3" d="M272.9,80.5c38.4,1.8,77.5-0.2,116.1,0.6c-0.1,1.1-0.8,1.6-1.5,2.1   c-38.1-0.1-76.8-0.1-114.6-0.1C272.9,82.4,272.9,81.5,272.9,80.5z" />
	<path display="inline" fill="#7B8AB2" d="M627,84.4c-37.7-0.6-77.6,2.7-114.6-1.1c37.3-1.7,75.1-0.2,112.5-0.7   C625.6,83.2,627.1,83.5,627,84.4z" />
	<path display="inline" fill="#7988AF" d="M272.9,83.3c37.8,0,76.4-0.1,114.6,0.1c-0.7,2.5-4.3,0.9-6.2,1.4   c-35.8,1.4-72-1.4-107.8,0.5C273.2,84.5,273.1,83.9,272.9,83.3z" />
	<path display="inline" fill="#7C97B7" d="M626.9,83.9c-0.6-0.4-1.3-0.8-2-1.3c-37.5,0.5-75.2-1-112.5,0.7l0,0   c-0.8-0.8-2.1-0.5-2.3-2c38.9-0.2,77.8,0.4,116.7-0.1C626.9,82.1,626.9,83,626.9,83.9z" />
	<path display="inline" fill="#0B0909" d="M491.8,317.4c-12.9,11.6-30.7,14.4-45.8,22.7c-0.3,0-0.7-0.1-1-0.1   c5.1-5.7,13.6-7.7,20.5-10.4c9.7-2.1,16.6-9.3,25.5-12.9C491.3,317,491.5,317.2,491.8,317.4z" />
	<path display="inline" fill="#0B0B0B" d="M432.6,383.4c0.7-0.3,0.6-0.9,0.7-1.4c3.5,7.9,5,16.2,5.1,24.8c-0.3,0.1-0.5,0.2-1,0.4   c0.9,4.9-0.1,9.5,5.3,12c1.4,0.5,1.7,1.5,3.2,0.2c0.2,0,0.4,0,0.6,0c0.3,0.5,0.5,1,0.8,1.5c-0.8,1.8-2.3,2-3.9,1.6   c-7-1.4-7.5-10.8-7.5-16.5C437.1,398.4,434.3,390.7,432.6,383.4z" />
	<path display="inline" fill="#0B0A0A" d="M420.6,397.2c-17.3,5.2-21.1-21.3-15.9-33.1C406,378,400.8,395,420.6,397.2z" />
	<path display="inline" fill="#171617" d="M405.2,332.2c0.2,0,0.5,0,0.7,0c1.1,2.4-0.3,5.4,1.8,7.5c2.7,2.8,4,6.3,4.5,10.1   c-0.4,0.2-0.9,0.4-1.5,0.6c-0.5,3.5-0.9,7-3.4,9.8c-0.3-0.3-0.5-0.5-0.8-0.8c2.2-4.1,2.4-8,3.4-12.8   C407.4,342.1,403.8,337.8,405.2,332.2z" />
	<path display="inline" fill="#0A0A0E" d="M497.2,228.8c5.2,12,6.3,13.7,3.4,26.7c-1.6-2.5-2.1-5.1-0.9-7.9   c2.5-6.2-2.9-11.8-3.2-18.1C496.7,229.4,496.9,229.1,497.2,228.8z" />
	<path display="inline" fill="#121112" d="M460.5,384c4.4,4.2,0.3,10.3,0.8,15.4c0.4,4.3-2.6,7.8-4.8,11.3c-0.3-0.3-0.6-0.6-0.8-0.9   c3.5-7.2,6.9-17.2,4-24.8C460,384.6,460.3,384.3,460.5,384z" />
	<path display="inline" fill="#272120" d="M392.6,307.7c0-0.3,0.1-0.6,0.1-0.9c5.5,5.3,5.4,14.4,10.7,19.9c0,0.3,0,0.5,0,0.8l0,0   c-0.2,0-0.5,0-0.7,0c-5.4-5.3-6.4-13.2-10.3-19.4C392.4,308,392.5,307.8,392.6,307.7z" />
	<path display="inline" fill="#292624" d="M434.6,47.3c1.1,0.4,0.2,1.5-0.1,2.2c-1.2-0.5-2.4-0.9-3.7-1.4c-0.5-3.7-1.1-8.6,0.4-12.1   c0.7,0.9,1.7-0.2,1.3,1.5c-0.6,2.1-0.7,5.9-0.3,9.2C433,46.9,433.8,47.1,434.6,47.3z" />
	<path display="inline" fill="#130E0E" d="M463.8,10.1c0.2-0.3,0.5-0.5,0.7-0.8c3.2,1.9,8.3,2.5,9.3,6.8c-0.2,0.2-0.5,0.5-0.7,0.7   c-0.9-1.2-2.4-3.4-4-2c-1.1-0.8-1.6,0.3-2.6-0.7c0.4-0.3,0.8-0.6,1.3-1C466.4,12,465.1,11,463.8,10.1z" />
	<path display="inline" fill="#262426" d="M416.5,189.7c-1.1-3-1-6-2.5-9.2c0.3-0.5,0.7-1.1,1.2-1.9c-0.4-0.4-0.9-1-1.4-1.5   c0.1-0.2,0.1-0.5,0.2-0.7c0.4,0,0.8,0,1.1,0c0.9,0.7,1.8,1.4,2.7,2.1C414.3,181.2,417.7,185.9,416.5,189.7z" />
	<path display="inline" fill="#232426" d="M485.7,191.1c-0.9-1.4-0.5-3.1-0.5-4.7c2.2-1.1-1.9-6.2,0.8-9.4c0.4,0.7,0.8,1.4,1.2,2   c-0.4,2.4,0,4.8-0.1,7.2C485.5,187.4,486,189.3,485.7,191.1z" />
	<path display="inline" fill="#2B2425" d="M455.7,409.7c0.3,0.3,0.6,0.6,0.8,0.9c-1.3,4.8-5.8,7.2-9.2,10.2c-0.3-0.5-0.5-1-0.8-1.5   C450.8,417.3,453.4,413.7,455.7,409.7z" />
	<path display="inline" fill="#323234" d="M415.1,176.4c-0.4,0-0.8,0-1.1,0c0-0.2-0.1-0.4-0.1-0.6l0,0c0.6-0.2,0.7-0.5,0.1-0.8   c0.9-3.1,0.5-6,0.5-9.2c1-0.4,0.4-1.5,0.8-2.1c0.9,1.2,0.1,2.5,0.1,3.8C417.4,170.5,416.1,173.3,415.1,176.4z" />
	<path display="inline" fill="#22212E" d="M500.5,255.6c0.2-0.5,0.5-1,0.7-1.6c0.5,0.5,1,1,1.8,1.8c0.2,1.5,0.4,3.3,0.7,5.1   c-0.7,0.8-0.7,1.7-0.7,2.7C502.4,261,501.4,258.2,500.5,255.6z" />
	<path display="inline" fill="#1A1B1C" d="M487.8,167c0.3,0.7-0.3,1.6,0.6,2.1c-1,2.5,1.5,5.3-1.2,7.4c-1.1-0.4-0.5-1.4-0.6-2.1   l0,0.1c0.2-0.2,0.5-0.6,0.5-0.7C485.6,171.4,487,169.2,487.8,167z" />
	<path display="inline" fill="#4C5683" d="M497.2,228.8c-0.2,0.3-0.5,0.5-0.7,0.8c-2.5-3.4-0.1-7.4-0.6-11.3   C497.2,221.7,495.5,225.6,497.2,228.8z" />
	<path display="inline" fill="#424342" d="M445,340.1c0.3,0,0.7,0.1,1,0.1c-1,1.5-2,2.9-4.1,2.5c-1.6-1.4-1.6-1.7-0.7-3.3   c0.1,0.6,0.2,1.2,0.3,1.9C442.7,340.9,443.8,340.5,445,340.1z" />
	<path display="inline" fill="#473E3C" d="M472.5,42.7c0-1.2,0.1-2.3,0.1-3.5c1.6,2.9,1.8,7.2-0.8,9.4c-0.2-0.4-0.5-0.7-0.7-1.1   C472.5,46.9,473.5,43.7,472.5,42.7z" />
	<path display="inline" fill="#EFD7CC" d="M473.9,42c-0.8-1.6-2-3.7-0.4-5.3c1.3,0.7,0.5,2.4,1.6,3.1C475.5,41,474.4,41.3,473.9,42   C473.8,42,473.9,42,473.9,42z" />
	<path display="inline" fill="#272626" d="M460.5,384c-0.3,0.3-0.5,0.6-0.8,0.9c-1-1.7-1.9-3.9-0.6-5.7c0.2,0.3,0.5,0.5,0.7,0.8   C460.1,381.4,460.3,382.7,460.5,384z" />
	<path display="inline" fill="#342C2B" d="M491.8,317.4c-0.3-0.2-0.5-0.5-0.8-0.7c1.2-1,2.7-1.4,4.2-1.8c0.4,0.2,0.8,0.4,1.2,0.6   C495,316.4,493.4,316.8,491.8,317.4z" />
	<path display="inline" fill="#353032" d="M405.4,366.2c-0.3-0.7,0.3-1.6-0.6-2.1c0.2-0.7,0.4-1.3,0.7-2c0.2,0.3,0.5,0.6,0.7,0.9   C406,364.1,406.1,365.2,405.4,366.2z" />
	<path display="inline" fill="#272121" d="M420.6,397.2c-0.8-0.6-1.8-0.6-2.8-0.6c1.2-0.5,2.5-0.4,3.3-1.4c0.3,0.3,0.5,0.6,0.8,0.9   C422,397,421.4,397.3,420.6,397.2z" />
	<path display="inline" fill="#4F4C4E" d="M406.1,363c-1.5-1.1-0.2-2.4,0.4-3.6c0.3,0.3,0.5,0.5,0.8,0.8   C406.9,361.1,406.5,362,406.1,363z" />
	<path display="inline" fill="#CCD2E9" d="M485.9,189.1c-0.2-1.2,0.3-2.1,1.1-2.9C487.3,187.4,486.7,188.3,485.9,189.1z" />
	<path display="inline" fill="#B7BDD5" d="M414.6,167.1c0,0.7-0.1,1.3-0.1,2C413.7,168.1,413.7,168.1,414.6,167.1z" />
	<path display="inline" fill="#424342" d="M442.5,344.1c-0.5,0-1-0.1-1.5-0.1c0.1-0.2,0.2-0.4,0.2-0.6   C441.7,343.7,442.1,343.9,442.5,344.1z" />
	<path display="inline" fill="#EDC9B9" d="M372.6,149.8c-0.2,0.5-0.4,0.9-0.6,1.4C371.9,150.6,371.9,150.1,372.6,149.8z" />
	<path display="inline" fill="#B7BDD5" d="M413.9,175.8c0.1,0.5,0,0.9-0.2,1.3C413.1,176.6,413.2,176.1,413.9,175.8z" />
	<path display="inline" fill="#EDCABA" d="M392.6,307.7c-0.1,0.1-0.2,0.3-0.2,0.4c-0.1-0.2-0.2-0.3-0.3-0.5   C392.2,307.7,392.4,307.7,392.6,307.7z" />
	<path display="inline" fill="#CECEDC" d="M405.8,360.7c-0.1,0.3-0.3,0.5-0.4,0.8C405.5,361.3,405.7,361,405.8,360.7z" />
	<path display="inline" fill="#EDC9B9" d="M373.4,148.5c-0.2,0.3-0.4,0.6-0.6,0.9C373,149.1,373.2,148.8,373.4,148.5z" />
	<path display="inline" fill="#EDC9B9" d="M373.8,147.8c-0.2,0.2-0.3,0.5-0.5,0.7C373.5,148.2,373.7,148,373.8,147.8z" />
	<path display="inline" fill="#3C3938" d="M400.1,324.1c0.2,0.3,0.3,0.5,0.5,0.8C400.4,324.7,400.2,324.4,400.1,324.1z" />
	<path display="inline" fill="#3C3938" d="M400.9,325.5c0.1,0.2,0.3,0.4,0.4,0.6C401.2,325.9,401,325.7,400.9,325.5z" />
	<path display="inline" fill="#3C3938" d="M401.3,326.1c0.2,0.2,0.4,0.5,0.6,0.7C401.7,326.6,401.5,326.4,401.3,326.1z" />
	<path display="inline" fill="#3C3938" d="M402,326.8c0.2,0.2,0.4,0.4,0.7,0.6C402.4,327.2,402.2,327,402,326.8z" />
	<path display="inline" fill="#3C3938" d="M402.6,327.5c0.2,0,0.5,0,0.7,0c0.1,0.2,0.1,0.3,0,0.5   C403.1,327.8,402.9,327.6,402.6,327.5z" />
	<path display="inline" fill="#B7BDD5" d="M414.1,174.9c0.6,0.4,0.5,0.6-0.1,0.8C414,175.5,414,175.2,414.1,174.9z" />
	<path display="inline" d="M473.8,42c0.2-0.2,0.4-0.5,0.6-0.7C474.2,41.6,474,41.8,473.8,42z" />
	<path display="inline" fill="#292624" d="M431.8,34.5c-0.1,0.3-0.3,0.6-0.4,0.9C431.5,35.1,431.7,34.8,431.8,34.5z" />
	<path display="inline" fill="#B7BDD5" d="M415.1,176.4c1-3.1,2.3-5.9,0.3-9c0-1.3,0.8-2.6-0.1-3.8c-0.3-9.2-7.7-17.2-6.8-26.5   c5.3-2,5.3-9.6,7.9-14c0.2,2.5,4.1,2.9,3.3,5.9c-0.2,8.2,8.8,13.2,8,21.6c-3.5-0.5-6.1-2.9-9.9-1.6c4.1,0.2,7.7,3.1,11.2,2.3   c1.6,0.2,2.5,1.7,3.3,2.7c3.6,3,8.8,4.9,10.4,9.6c-5.1,0.9-9-3.6-13.6-5.4c-0.2,5.4,1.4,10.3,1.3,15.9c1.1,0.2,2.1,0.4,3,0.6   c0.3,0.6,0,0.9-0.4,1.1c-0.3-0.7-0.8-0.6-1.4-0.6c-4,0.5-7.7-1.4-11.7-0.5c3.4,2.3,7.4,0.7,11.2,1.2c0,1.2,0,2.3,0,3.2   c1.7,1,3.2,1.8,4.7,2.6C429,181.1,420.7,181.4,415.1,176.4z" />
	<path display="inline" fill="#B7BDD5" d="M416.5,189.7c1-3.3-1.3-7.1,0.2-9.9c6.6,1.1,14,4.3,20.6,1.9c2.4,1,4.8,2,7.6,3.1   c-4.1,2.5-9-1.4-13.5-0.2c-0.2,2.7-0.1,5.3-0.1,7.9c3,3.7,7.2,5.9,10.7,9.6c-3.8-0.2-6.4-2.6-9.6-4.6c-0.4,0.4-0.8,0.8-1.1,1.2   c-1.4-0.4-2.4-1.9-4-1.8c-0.1-0.2-0.1-0.7-0.5-0.3c1.4,2,3.9,2.3,5.3,4.2c-1.4,0.7-0.5,2.7-0.8,3.9c-4.7-0.6-10.4-0.2-13.8-4.2   C417.1,197.2,416.8,193.5,416.5,189.7z M421.2,183.2c2,0.7,6.2,1.6,8,0.6c-4.2-0.5-7.7-2-11.8-2.2   C417.8,182.8,420,182.6,421.2,183.2z" />
	<path display="inline" fill="#B6BCD4" d="M452.4,157.9c1.4-1.6,1-4.1,3.3-5.5c-3.6-5.1-3-10.9-3.9-16.4c3-8.8-1.4-18.3-0.5-27.5   c0.9-1,1.8-2.1,2.7-3.2c0.3,4.6-0.8,10.8,1.4,14.6l0-0.1c1,4.4-2.5,7.7-1.9,11.9c0.4-0.6,0.7-1.2,1-1.7c0.2,4.6,2.2,8.8,4.9,12.5   c-1.7,1.5-0.4,4.7-0.9,6.9c-0.3-0.2-0.6-0.4-1.3-0.9c0.4,7.9-0.4,15.3-0.7,22.8c-5.7,0.5-3.4-7.8-4-11.4c-0.8-0.5-1.4-0.9-2-1.3   C451.2,158.3,452,158.9,452.4,157.9z" />
	<path display="inline" fill="#B5BBD2" d="M465.3,111.8c-4.2-1.3-6.5-7.1-8.8-10.7c0.3-1.6,1.6-2.1,2.3-3.1c5.4,1,8.3,8.3,12.9,11.5   c1.7,1.3,2.5,6.3-0.7,5.7C469.2,114,466.2,113.7,465.3,111.8c1.7,0.9,3.6-0.7,5,0.4c0.4,0.4,0.9,0.6,1.4,0.1   c-0.7-1.3-1.7-2-3.2-1.6c-1.2-0.7-2.4-1.4-3.7-2.2c-0.3,0.4-0.6,0.7-0.9,1.1C464.4,110.3,464.8,111,465.3,111.8z M461.2,105.9   c0.4,0.8,0.7,1.8,1.8,1.9c0.3-1.1-0.3-1.6-0.9-2c-0.6-1.9,0.1-4-1.3-6C459.2,101.7,459.8,104.1,461.2,105.9z" />
	<path display="inline" fill="#B5BBD3" d="M428.7,108.7c0-2.1,0-4.2,0-6.3c2.1-1.8,4.2-1.6,3.8,1.6c-0.2,3,1.5,5.1,2.6,7.8   c-0.4,0.8-0.9,1.6-1.3,2.3c0.6,4,6.3,4.7,6.4,7.9c-0.7,1.3,0.4,2.1,0.2,3.2c-0.2,0-0.4,0-0.6,0c-1.2-1.3-1.9-3.8-4-3.3   c-1.4-1.1-2.7-2.1-4.1-3.2c-0.1-1-1.2-0.9-1.8-1.5c-3.5-2.8,3.5-7,0-9C429.7,108.3,429.2,108.5,428.7,108.7z M430.4,107.1   c0.7-1.7,0-2.9-1.2-4.6C429.5,104.4,428.5,106,430.4,107.1z" />
	<path display="inline" fill="#0A0B0C" d="M459.3,142.4c-4.3-5.4-6.1-12.5-4.1-19.2c0.4,0,0.8,0.1,1.3,0.1   c-0.4,3.9,0.1,7.4,1.9,10.7c-0.1,0.2,0,0.3,0.1,0.5c-0.1,0.6,0,1.1,0.6,1.4C459.8,138.1,460.3,140.2,459.3,142.4z" />
	<path display="inline" fill="#B6BCD4" d="M418.7,113.2c0.7-4.1,1.4-8.2,2.5-12.2c-0.8,5.4,5.1,8.8,3.8,14.2   c-2.1-0.7-3.9-1.5-5.3-3.3C419.3,112.4,419,112.8,418.7,113.2z" />
	<path display="inline" fill="#A7ACC1" d="M458.4,134c-1.7-3.3-2.3-6.8-1.9-10.7c-0.6-0.1-0.9-0.1-1.3-0.1   c0.6-4.9,0.1-10.2,0.7-15.3C458.1,116,457.8,125.4,458.4,134z" />
	<path display="inline" fill="#B1BBD3" d="M436,121.8c0.7,0.1,1.5-0.3,2,0.6c-0.4,0.1-0.8,0.2-1.4,0.3c1.3,1.6,2.6,2.7,3.3,4.5   c-5-0.4-8.9-5.5-11.2-9.5c0.6,0.1,1.2,0.6,1.4-0.5c0.5,0.6,1.6,0.5,1.8,1.5c-0.4-0.1-0.8-0.1-1.1-0.2   C429.9,120.4,434.8,123.2,436,121.8z" />
	<path display="inline" fill="#020304" d="M455.9,107.9c-0.5,4,0,8-0.5,11.9c-2-4.5-1.3-9.7-1.4-14.6l0,0c0.2-0.2,0.5-0.4,0.7-0.7   c0.2,0,0.3,0,0.5,0c0.2,0.3,0.4,0.5,0.7,0.8C455.8,106.2,455.8,107.1,455.9,107.9z" />
	<path display="inline" fill="#121214" d="M430.1,117.2c-0.2,1.1-0.8,0.6-1.4,0.5c-2.3-2.7-0.7-5.9,0-8.9c0.5-0.2,1-0.4,1.4-0.6   C433.6,110.2,426.6,114.4,430.1,117.2z" />
	<path display="inline" fill="#B5BBD2" d="M456.5,177.1c0,1,0,1.9,0,2.8c0.8,0.5,1.4,0.8,2,1.2c-1.7,0.1-4.2-0.4-4.1,2.1   c-0.2,0-0.4,0-0.5,0.1c0.5-2.5-1.3-6.5,1.3-8C455.3,176.8,455.3,176.8,456.5,177.1z" />
	<path display="inline" fill="#8D8693" d="M478.2,192.8c-4.2,2.3-9.6,1.7-15.8,1.1c5.3-0.2,10.5-0.7,15.7-1.5   C478.1,192.5,478.1,192.6,478.2,192.8z" />
	<path display="inline" fill="#605D68" d="M431.3,175.8c-3.8-0.5-7.8,1.1-11.2-1.2c4-1,7.7,1,11.7,0.5c0.5,0,1.1-0.1,1.4,0.6   C432.5,175.8,431.9,175.8,431.3,175.8z" />
	<path display="inline" fill="#919BAF" d="M437.2,181.8c-3.1,1.2-8.1,0.9-11.3,0.1c1.1-0.1,2.3,0,3.2-0.7   C431.9,181.1,434.5,181.9,437.2,181.8z" />
	<path display="inline" fill="#4A3F46" d="M486.5,174.4c-2.5,1.5-5.9,1.4-8.7,2.2c0-0.2,0-0.5,0-0.7   C480.6,175.6,484.3,172.8,486.5,174.4L486.5,174.4z" />
	<path display="inline" fill="#242629" d="M457.2,166.4c0-2.2-0.7-4.4,0.2-6.5c1.1,2.6,1.3,5.5,0.9,8.3   C457.9,167.6,457.5,167,457.2,166.4z" />
	<path display="inline" fill="#7E7885" d="M475.7,178.2c2.8-0.8,5.6-1.2,8.5-1.5C481.6,178,478.7,178.5,475.7,178.2z" />
	<path display="inline" fill="#717380" d="M457.9,161.2c-1.3-2.6-0.4-5.8-0.8-8.7c0.2,0,0.4,0,0.6,0   C457.2,155.4,459.8,158.6,457.9,161.2z" />
	<path display="inline" fill="#2A272A" d="M454.9,200c0.1,1.7,0.5,3.5-0.6,5.3C452,204.5,453.8,201.4,454.9,200z" />
	<path display="inline" fill="#2E2124" d="M452.4,157.9c-0.4,1-1.2,0.5-1.8,0.6c-1.5-0.8-3.2-1-4.6-2.3   C448.5,155.7,450.4,157,452.4,157.9z" />
	<path display="inline" fill="#343237" d="M429.1,97.2c0.4-0.6,0.8-1.2,1.3-2.1c1.1,1.4,0.4,4.4-1.2,4.7   C429.2,99,429.2,98.1,429.1,97.2z" />
	<path display="inline" fill="#9B93A2" d="M474.5,183.7c1.8-0.8,4.1-1.3,6.6-1.2c-2.3,1.4-4.6,1.2-6.6,1.8   C474.5,184.1,474.5,183.9,474.5,183.7z" />
	<path display="inline" fill="#2E2427" d="M438.7,206.3c-0.6,0-1.1,0-1.7-0.1c-0.2-1.8-2-2.7-3.1-3.9c0.2-0.2,0.5-0.4,0.7-0.6   C436.4,202.9,437.9,204.2,438.7,206.3z" />
	<path display="inline" fill="#818191" d="M429.1,151.2c-1.8,1.2-4.5-1-6.7-1.3c0.3-0.3,0.5-0.5,0.8-0.8   C425.2,149.9,427.3,150.1,429.1,151.2z" />
	<path display="inline" fill="#70737F" d="M456.5,177.1c-2.3-0.2-1.1-4.2-1.4-6c0.5,0,0.9,0,1.4,0.1c0,0.2,0,0.5,0,0.7   C454.9,173.5,456.9,175.2,456.5,177.1z" />
	<path display="inline" fill="#9BA1B2" d="M453.9,183.1c0.2,0,0.4,0,0.5-0.1c0.2,0.2,0.5,0.4,0.7,0.6c0,0.1,0.1,0.2,0.1,0.3   c-0.7,1.4-0.7,3.2-2.2,4.6C453.1,186.3,454.3,185.3,453.9,183.1z" />
	<path display="inline" fill="#686771" d="M462.6,175.1c-1.9-0.3-3.9-2.4-2.9-3.8C460.9,171.9,461.4,173.7,462.6,175.1z" />
	<path display="inline" fill="#39393E" d="M455.6,198.4c-1.9-1.7-1-3.4-0.9-5.8C455.5,194.8,456.2,196.3,455.6,198.4z" />
	<path display="inline" fill="#716C77" d="M469.9,202.4c-1.4,1-2.5,2.3-4.5,2.6c0.9-2,3-2.3,4.5-3.5   C469.8,201.8,469.9,202.1,469.9,202.4z" />
	<path display="inline" fill="#3D4147" d="M479.7,109.5c-1.5-1.5-1.3-2.9-1.2-4.4C480,106.6,480,106.6,479.7,109.5z" />
	<path display="inline" fill="#2E3034" d="M448.8,143.4c0.3,0.1,0.6,0.2,1,0.3c-0.2,1.6-0.5,3.2-0.8,5   C448.3,146.2,448.3,146.2,448.8,143.4z" />
	<path display="inline" fill="#B8BED4" d="M429.1,97.2c0.1,0.9,0.1,1.8,0.2,2.7c-0.8-0.6-1.6-1.2-2.6-2c0.1-0.3,0.3-0.6,0.5-1   C427.9,97,428.5,97.1,429.1,97.2z" />
	<path display="inline" fill="#808695" d="M454.6,181.8c0.9-1.3,2.6-0.7,3.9-0.9c0.1,0.2,0.2,0.3,0.4,0.7c-0.9,0.1-1.7,0.1-2.6,0.2   c-0.4,0.7-0.8,1.4-1.1,2.1C454.9,183.2,455.8,182.3,454.6,181.8z" />
	<path display="inline" fill="#817D8D" d="M427.3,197c1.8,0.2,3.3,1.5,4.8,2.6c-0.3,0.1-0.7,0.1-1,0.2   C429.6,199,428.1,198.5,427.3,197L427.3,197z" />
	<path display="inline" fill="#5C5E67" d="M479.3,97.3c1.2,1.5,1.6,2.8,0.8,4.7C479.7,100.3,478.8,99.2,479.3,97.3z" />
	<path display="inline" fill="#373C42" d="M481.4,114.7c-0.4,1-0.6,2.1-2,2.3c-0.6-1.8,0.7-2.4,1.8-3.1   C481.2,114.1,481.3,114.4,481.4,114.7z" />
	<path display="inline" fill="#5A4F53" d="M459.8,96.5c-0.2-0.2-0.4-0.4-0.7-0.6c1.1-0.6,2.3-1.2,3.4-1.9c0.2,0.2,0.5,0.4,0.7,0.6   C462.1,95.2,461,95.9,459.8,96.5z" />
	<path display="inline" fill="#6B6C77" d="M449.5,163.4c0.5,1.7,1.1,3.4-0.9,5.2C448.9,166.6,449.2,165,449.5,163.4z" />
	<path display="inline" fill="#4E4C54" d="M431,199.7c0.3-0.1,0.7-0.1,1-0.2c0.9,0.7,1.7,1.4,2.6,2.1c-0.2,0.2-0.5,0.4-0.7,0.6   C432.8,201.6,431.7,200.9,431,199.7z" />
	<path display="inline" fill="#4C4E57" d="M457.8,152.4c-0.2,0-0.4,0-0.6,0c0-1.2,0-2.4,0-4.1c0.7,0.4,1,0.6,1.3,0.9   C458.3,150.3,458,151.4,457.8,152.4z" />
	<path display="inline" fill="#9393A2" d="M475.2,197.8c-0.8,1.2-1.8,2.4-3.3,2.7l-0.1-0.1c0.9-1.2,1.8-2.3,3.4-2.7L475.2,197.8z" />
	<path display="inline" fill="#363136" d="M487.2,109c-0.6,1.6-0.7,2.7-2.6,2.8C485,110.6,485.5,109.8,487.2,109z" />
	<path display="inline" fill="#6C6974" d="M451.8,135.9c0.1,1.1,0.1,2.2,0.2,3.2c-0.3,0-0.6,0-1.2,0   C450.8,137.9,451,136.9,451.8,135.9z" />
	<path display="inline" fill="#767884" d="M485.4,131.4c1.4,0.7,1.1,1.7,1,3C485.6,133.3,484.7,132.6,485.4,131.4z" />
	<path display="inline" fill="#726E7A" d="M477.9,175.8c0,0.2,0,0.5,0,0.7c-0.8,1.1-1.9,0.5-2.9,0.4   C475.8,176.3,476.8,175.8,477.9,175.8z" />
	<path display="inline" fill="#8997A6" d="M471.2,184.4c-0.8,1.2-1.9,0.5-3.3,0.7c1-0.9,1.9-0.8,2.7-1.1   C470.8,184.1,471,184.2,471.2,184.4z" />
	<path display="inline" fill="#271E20" d="M463.2,94.6c-0.2-0.2-0.5-0.4-0.7-0.6c0.7-0.5,1.3-1,2-1.5c0.3,0.3,0.5,0.5,0.8,0.8   C464.6,93.7,463.9,94.2,463.2,94.6z" />
	<path display="inline" fill="#968C9A" d="M471.2,184.4c-0.2-0.2-0.4-0.3-0.6-0.5c1.3-0.1,2.6-0.1,3.9-0.2c0,0.2,0,0.4,0,0.6   C473.4,184.4,472.3,184.4,471.2,184.4z" />
	<path display="inline" fill="#888FA0" d="M439.9,127.2c-0.2-0.5-0.4-0.9-0.7-1.4c0.2-0.2,0.5-0.4,0.7-0.6c0.2,0,0.4,0,0.6,0   c0.2,0.7,0.4,1.4,0.7,2.4C440.6,127.4,440.3,127.3,439.9,127.2z" />
	<path display="inline" fill="#74727D" d="M477.8,118.6c0.6,0.5,1.2,1,2.2,1.9c-1.6,0.1-2.3-0.4-2.9-1.1   C477.3,119.1,477.6,118.8,477.8,118.6z" />
	<path display="inline" fill="#9393A2" d="M469.9,202.4c-0.3-1.2,0.8-2.1,1.9-2.1l0.1,0.1C471.2,201.1,470.5,201.7,469.9,202.4z" />
	<path display="inline" fill="#5C5A63" d="M450.3,179.8c-0.5-1.3-0.8-2.2-0.1-3.2C450.8,177.5,450.6,178.4,450.3,179.8z" />
	<path display="inline" fill="#35363C" d="M456.4,175c-0.7-1.1-0.9-2.1,0-3.2C456.4,172.9,456.4,173.9,456.4,175z" />
	<path display="inline" fill="#5C5B64" d="M443.9,130.6c1,0.6,0.9,1.4,0.6,2.2C443.8,131.9,443.8,131.9,443.9,130.6z" />
	<path display="inline" fill="#76707B" d="M423.7,131c-1-0.4-1.3-0.9-0.7-1.8C424.3,129.6,423.9,130.3,423.7,131z" />
	<path display="inline" fill="#7F7682" d="M481.4,114.7c-0.1-0.3-0.1-0.5-0.2-0.8c0.3-0.8,0.8-1.1,2.1-1.3   C482.4,113.5,481.9,114.1,481.4,114.7z" />
	<path display="inline" fill="#201618" d="M477.8,118.6c-0.2,0.3-0.5,0.5-0.7,0.8c-0.4-0.4-0.9-0.8-1.3-1.2   C476.8,117.4,477.3,118.1,477.8,118.6z" />
	<path display="inline" fill="#B7BDD5" d="M432.6,153.1c-0.2,0-0.5,0-0.7,0l0,0c0.4-1.5,0.8-1.7,2-0.7   C433.4,152.5,432.8,152.4,432.6,153.1z" />
	<path display="inline" fill="#999AA9" d="M475.1,197.6c0.3-0.4,0.6-0.7,1.1-1.2c0.4,1.2-0.3,1.3-0.9,1.3L475.1,197.6z" />
	<path display="inline" fill="#514951" d="M467.2,175.3c-0.6,0.8-1.6,0.3-1.2-0.5C466.4,175,466.7,175.1,467.2,175.3z" />
	<path display="inline" fill="#7A818F" d="M432.6,153.1c0.2-0.7,0.8-0.6,1.3-0.7C433.8,153.2,433.1,153.1,432.6,153.1z" />
	<path display="inline" fill="#A7ACC1" d="M459.1,135.9c-0.6-0.3-0.7-0.8-0.6-1.4C459.3,134.8,459.2,135.3,459.1,135.9z" />
	<path display="inline" fill="#3A2A2F" d="M482.8,121.9c0.3,0.1,0.6,0.1,0.9,0.2c0,0.2-0.1,0.3-0.1,0.5c-0.3-0.1-0.6-0.2-0.9-0.2   C482.7,122.2,482.8,122,482.8,121.9z" />
	<path display="inline" fill="#A7ACC1" d="M455.8,105.4c-0.2-0.3-0.4-0.5-0.7-0.8C455.6,104.6,455.8,104.9,455.8,105.4z" />
	<path display="inline" fill="#A7ACC1" d="M454.6,104.6c-0.2,0.2-0.5,0.4-0.7,0.7C454.2,105,454.4,104.8,454.6,104.6z" />
	<path display="inline" fill="#B5BBD3" d="M429.3,119.2c0.2,0.2,0.4,0.5,0.6,0.7C429.7,119.7,429.5,119.4,429.3,119.2z" />
	<path display="inline" fill="#FBDFD3" d="M401.2,102.6c-0.3-0.4-0.7-0.8-1-1.2c-1.2,5.3,3.5,11.3,5,18c0.1,5.2-1.7,13.6,1.2,19   c-1,13.6,2.2,26.9-10.5,36c-3.1-1.5-6.2-3.6-7.1-7.2c-0.4,0.1-0.8,0.2-1.4,0.3c-4.2-3.1-0.6-15.6-7.2-12.1   c-4.6-12,7.3-22.5,5.2-34.2c0.5-1,1.1-2,1.6-3c0.2,0.5,0.5,1,0.9,1.7c0.3-0.4,0.5-0.6,0.7-0.8c0,0,0,0,0,0c2.7,1.1,2.7,1.1,4.7-1.3   c-0.2-2.4,1.1-4.8,0.3-7.2c-0.2-1.9-2.4-5,0.9-5c0.2-2.5-1.2-4.1-2.5-5.8c0,0,0,0,0,0c-0.1-1.8-0.3-3.6,0-5.4   c0.4-0.5,0.9-0.9,1.2-1.2c0.1-4.2,0.1-4.2,1.5-6.3c4,0.9-1.4-3.6,9.2-6.5c0-0.8,0-1.2,0-1.9c5-2.7,10.6-4.6,16.4-4.5   c1.3,8.3-0.1,16.8-1,25.1c-0.3,0.1-0.6,0.2-1.1,0.4c-0.7-2.7-2.1-4.9-4.3-6.5c0.6-1.9,5.1-6.1,1.4-6.8c-10.2,12.6,6.9,24-1.1,33.9   c-1.9-4.9-6-9.1-5.5-14.6c-0.1-1.2-1.5-2.1-2.1-3C404.5,102.6,402.9,102.6,401.2,102.6z M401.4,141.8c0.3,2.3,0.3,4.6,1.3,6.6   c-0.1,0.1-0.3,0.3-0.4,0.4c1.6,0.5,0.9-2.8,0.4-3.7c-0.5-1.1,0.3-2.4-0.6-3.4C402.2,140.3,401,140.3,401.4,141.8z M402.3,125.1   c-2.1,2.7-0.5,7.5-0.7,10.9C403.1,132.5,403.5,129,402.3,125.1z M413.4,78.1c1.2,1,2.2,1.6,3.7,1C416.1,77.7,414.9,77.7,413.4,78.1   z" />
	<path display="inline" fill="#FBDFD3" d="M464.5,92.5c-2.2,1.5-4.5,3.6-7.3,3.4c0-4.6-1.3-8.8-1.4-13.3c-1.6-0.1-1.5,1.2-2,1.9   c-0.8-1.8-1.4-4.3-3.7-4.9c0.5,1.8,1,3.4,1.5,5.2c0.6,0.1,0.9,0.3,1.5,0.8c-3.6,3,0.1,6.6-1.7,10.3c-10.2,1.6-19.5-5.4-22.2-15.1   c0.2-0.5,0.5-1,0.7-1.6c0.4,0.2,0.6,0.4,1.2,0.7c0.3-3.3,3.2-8.1,6.9-5.2c0.3,4.9,5.2,4.1,8.1,2.4c0.9,0.4,1.2,1.8,2.7,1.6   c0.2-1.5-1.2-2-2-2.9c0-1.8-1.3-3.7-0.4-5.3c-0.4-1.5-0.7-2.7-1-3.9c2.3-0.9,4.7,1,6.8,1.8c1.9-0.3,3.4-1,4.6-2.3   c0.9-0.2,1.6-0.6,1.9-1.5c1.4-0.9,3.1-0.4,4-1.9l0,0c0.4,0,0.8-0.1,1.2-0.1c0.3,0.4,0.6,0.8,0.9,1.1c1.9-0.8,1.3-2.8,2.3-3.9   c0.8-0.2,0.5,0.5,0.8,0.8c0,1.2,0,2.4,0,3.6c-0.6,0.3-1,0.5-1.6,0.8c2.2,4.5,6.6,6.9,11.3,8.2C476.2,81.4,470.1,87,464.5,92.5z    M462.4,74.9c-2.3-1.3-6.8,4.2-7,6.3c0.2,0.2,0.5,0.4,0.9,0.7C458.3,79.6,460.3,77.3,462.4,74.9z M451.3,72.7   c0.6-1.5,0.6-1.5-0.7-3C450.6,70.7,450.1,71.7,451.3,72.7z M464.8,74.5c-1.2-0.6-1.2-0.6-1.5,0.5C463.9,74.8,464.4,74.7,464.8,74.5   z" />
	<path display="inline" fill="#EDC9B9" d="M396.6,86.6c-0.4,1.3-1.3,0.1-1.9,0.4c-1.4,2.1-1.4,2.1-1.5,6.3c-0.3,0.3-0.7,0.8-1.2,1.2   c-0.1,0.5-0.1,1.1-0.2,1.6c-0.3,0-0.6,0-1,0c0.1,3.5,0.8,6.7,2.4,9.8c-1.6,1.1,0.4,3.3,0.4,4.8c0.8,2.4-0.5,4.8-0.3,7.2   c-2,2.4-2,2.4-4.7,1.3c0.2-0.6,0.4-1.1,0.7-1.8c-1.7,0.5-1.7,0.6-0.7,1.8c-0.2,0.2-0.4,0.4-0.7,0.8c-0.3-0.7-0.6-1.2-0.9-1.7   c-0.5,1-1.1,2-1.6,3c-2.1-15.8-3.7-42.3,18.5-42.7c0,0.3,0,0.6,0,0.8C401.1,79.2,393.3,83.4,396.6,86.6z M386.6,112.6   c0.3,1.2,0.7,2.4,1.1,3.9c1.6-1.9,0.2-3.4-0.3-5.3c-0.3-2.2-0.2-4.4-0.9-6.4C383.5,105.3,386,110.6,386.6,112.6z M392.7,90.8   c-0.8,0.7-1.2,1.5-0.2,2.6C392.6,92.4,392.7,91.6,392.7,90.8z" />
	<path display="inline" fill="#EDC9B9" d="M385.2,120.3c2.9,12-9.7,22.8-5,35.1c1.1,0.6,1.1-1,1.9-0.9c0,0.6,0.1,1.2,0.1,1.8   c1.2,0.2,1.1-0.6,1.2-1.2c2.2,3.8,0.8,9,4.1,12.4c0.5-0.1,0.9-0.2,1.4-0.3c-0.9,2.3-1.1,4.4-0.4,7.1c1.7-1.5,0.7-3.3,0.8-5.2l0.2,0   l0.2-0.1c1.4,2.6,3.9,4,6.4,5.3c-1.2,6.7-11.2,0.4-12.1-4.1c-4.4-6.1-9.9-11.5-9.8-19.9c0.9-1.8,2.5-3.8,2.8-5.7   C376.9,135.6,381.9,128.3,385.2,120.3z M382.4,162.7c-1.3,1.6-1.3,1.9,0,3.1C382.9,164.7,382.9,163.7,382.4,162.7z M382.7,159.1   c-0.2-0.2-0.3-0.3-0.4-0.5c-0.2,0.3-0.4,0.6-0.6,0.9C382.2,159.9,382.4,159.5,382.7,159.1z" />
	<path display="inline" fill="#EDC9B9" d="M401.2,102.6c1.6,0,3.3,0,5.3,0c0.6,0.9,2,1.8,2.1,3c-0.5,5.4,3.6,9.7,5.5,14.6   c0.4-0.3,0.7-0.7,1.1-1c-1.1,5.3-1.9,12.2-6.4,15.7c-0.3-0.1-0.6-0.2-1-0.3c-2.1-4.9,0.7-10.8-1.2-15.9   C405.2,113.2,403.7,107.7,401.2,102.6z" />
	<path display="inline" fill="#EBC8B8" d="M445.2,66.6c0.3,1.2,0.6,2.5,1,3.9c-0.9,1.6,0.4,3.5,0.4,5.3c-0.2,0-0.5,0-0.7-0.1   c-0.7-0.9-1.7-0.3-2.5-0.5c-1.4-0.7-2.7-0.7-4.1-0.7l0,0c-2-0.8-3.1-3.1-5.3-3.3c0-0.3-0.1-0.6-0.1-0.9c1.5-1.7,2.6-3.1,4.6-4.4   c-0.1-1.8-0.3-3.9-0.5-5.9c2.8,0.1,1.5,4,3.5,5.3c0.5-0.1,0.8-0.1,1.1-0.1C443.4,65.7,444.3,66.2,445.2,66.6z M440.7,67.5   c0.7,0.8,1.3,1.6,2.5,0.8C442.5,67.6,441.9,66.8,440.7,67.5z M445.1,69.6c-0.1-0.2-0.2-0.2-0.4,0C444.8,69.8,444.9,69.8,445.1,69.6   z" />
	<path display="inline" fill="#E7C5B6" d="M413.8,93.1c2.2,1.6,3.6,3.9,4.3,6.5c0.4-0.2,0.7-0.3,1.1-0.4c0.1,2.7-0.6,5.2-1.5,8.3   c-0.6-0.8-1-1.3-1.3-1.8c-3.3,1,3,4.6,0.2,6.9c-0.3-4.1-3.9-7.4-4-11.5c1,0.5,1.5,1.9,3.1,1.9c-1-2.4-2.5-4.8-1.2-7.4   C413.9,94.8,412.7,93.9,413.8,93.1z" />
	<path display="inline" fill="#E0BEAF" d="M452.6,81.9c1.5,1.9,0.6,4.1,1.6,6c1.5,0,0.8-1.6,1.6-2.1c1.5,3.1,0.9,6.8,1.4,10.1   c-0.7,0.2-1.4,0.5-2.3,0.7c-0.4-2.5-0.8-4.9-1.2-7.5c-1.4,2.8-1.4,2.8-1.3,7.2c-2,0.4-4.1,0.4-6-0.4c1.6,0,3.3,0,4.9,0   c1.8-3.7-2-7.3,1.7-10.3c-0.3-0.3-0.5-0.4-0.7-0.5C452.5,84,452.5,83,452.6,81.9z" />
	<path display="inline" fill="#E4C4B4" d="M433.8,70.4c0.1,2-0.7,2.4,1.5,3.4c-2.9,0.7-3.8,3.5-4.3,6.1c-0.5-0.3-0.8-0.5-1.1-0.7   c0.6,0,0.9-0.9,0.4-1.2c-0.8,0.7-0.5,1.8-1.2,2.7c-1.1-2.4-1.1-5-1.1-7.7C430,72.2,431.9,71.3,433.8,70.4z" />
	<path display="inline" fill="#121312" d="M442.5,65.3c-0.3,0-0.6,0.1-1.1,0.1c-2-1.3-0.7-5.2-3.5-5.3c0-1,0-2.1,0-3.6   c0.7,1.1,1.1,1.8,1.6,2.6c0.4-0.7,0.7-1.2,1-1.8c0,0,0,0,0,0c0.4-0.1,0.8-0.2,1.4-0.4c-0.3,1.1-1.4,2.4,0,3.1c0,0.7,0,1.5,0,2.5   c0.5-0.2,0.9-0.4,1.3-0.5c0.6,0.9,1.6-0.3,1.3,1.4C443.1,63.2,443.1,64.5,442.5,65.3z" />
	<path display="inline" fill="#353A39" d="M442.5,65.3c0.6-0.8,0.5-2.1,2-2c0.1,0.7-0.2,1.5,1,2c-0.1-1.8-0.3-3.3-0.4-4.7   c0.7-0.6,1.1-1,1.7-1.5c0.8,1.6,0.1,3.8,0.3,5.8c1.2,0.6,2.9,0.6,2.7,2.4c-1.7-0.4-2.9-1.5-4.6-0.7   C444.3,66.2,443.4,65.7,442.5,65.3z" />
	<path display="inline" fill="#CEB6AC" d="M434.6,47.3c-0.8-0.2-1.6-0.4-2.4-0.6c-0.5-3.3-0.3-7.1,0.3-9.2c-0.1,0.2,0,0.4,0.1,0.5   c-0.1,0.6,0,1.1,0.5,1.5C433.6,42.1,434.1,44.7,434.6,47.3z" />
	<path display="inline" fill="#3D3E3E" d="M463.9,62.6c-0.4,0-0.8,0.1-1.2,0.1c0.3-0.6,0.6-1.1,0.9-1.8c-0.3-0.5-0.6-1.1-1-1.7   c0.3-1.2,0.6-2.4,0.9-3.6c0.7,0.7,1.4,1.4,2.2,2.1C465.3,59.4,465.2,61.2,463.9,62.6z" />
	<path display="inline" fill="#262123" d="M407.9,134.7c0.3,0.1,0.6,0.2,1,0.3c2.1-1.1,2.6-3.3,3.7-5.2c0.1,0.5,0,1.2,0.7,1.4   c-0.7,2.3-2.1,5.5-4.7,5.9C409.5,135.9,408,135.8,407.9,134.7z" />
	<path display="inline" fill="#303131" d="M440.5,12.2c0.2,0.1,0.4,0.3,0.7,0.6c-3.7,2.5-4.8,4.4-7.7,7.9   C434.3,15.8,437.1,14.7,440.5,12.2z" />
	<path display="inline" fill="#262727" d="M464.5,48.7c0.7-0.9,0.4-2.5,1.8-3.2c0.7,2.5-0.2,4.6-0.7,7.3   C465.1,51.1,464.8,50,464.5,48.7z" />
	<path display="inline" fill="#1D2020" d="M453.2,62.6c0.5-0.6,0.9-1.1,1.5-1.7c0.4,0.4,0.8,0.7,1.2,1.1c0.5-0.1,1.2-0.2,1.9-0.3   c0,0.7,0,1.3,0,2.1c-0.6-0.3-1-0.6-1.5-0.8c-0.2,0.5-0.4,0.9-0.5,1.1c-0.8-0.2-1.5-0.5-2.4-0.7C453.3,63.2,453.3,62.9,453.2,62.6   C453.2,62.6,453.2,62.6,453.2,62.6z" />
	<path display="inline" fill="#3A3B3B" d="M437.4,23.8c-0.7-0.7-1.5-1.5-2.4-2.4c0.7-0.8,1.2-1.4,1.8-2   C438.5,20.7,437.7,22.2,437.4,23.8z" />
	<path display="inline" fill="#3B3B3B" d="M469.2,14.7c1.6-1.4,3.1,0.9,4,2c0,0.2,0,0.4,0,0.6c-0.4,0.2-0.9,0.5-1.3,0.7   C471.2,16.7,469.4,16.3,469.2,14.7z" />
	<path display="inline" fill="#292B2B" d="M463.8,10.1c1.3,1,2.5,1.9,4,3c-0.5,0.4-0.9,0.7-1.3,1c-1.3-1.1-2.5-2.3-4.1-3.7   C463.1,10.2,463.5,10.2,463.8,10.1z" />
	<path display="inline" fill="#3C3E3E" d="M433.3,32.3c2-0.6,2.5,0.7,3.3,1.7C434.5,35.2,433.7,34.8,433.3,32.3z" />
	<path display="inline" fill="#333434" d="M438,51.7c-0.1-1.9-0.7-4.1,0.7-5.4C439.6,49,439.5,49.5,438,51.7z" />
	<path display="inline" fill="#282727" d="M459.3,8.2c-1.1,0.7-2,0.6-3.2,0.3c-0.1-0.6-0.1-1.3-0.2-2.1   C457.3,6.7,458.3,7.1,459.3,8.2z" />
	<path display="inline" fill="#1B1B1B" d="M473.6,27.7c0.2,0.9,0.5,1.9,0.8,3.1c-0.2,0.5-0.4,1.3-0.7,2.2c-0.9-0.8-0.2-2.4-1-3.5   C472.3,28.7,472.7,27.9,473.6,27.7z" />
	<path display="inline" fill="#191919" d="M456.3,59.6c-0.6-1.7-0.5-2.9-0.1-4.5C457.5,57.1,457.5,57.4,456.3,59.6z" />
	<path display="inline" fill="#343535" d="M453.6,22.5c0.5-0.5,0.8-0.8,1.1-1.1c1.7,1.1,1,2.4,1.3,3.7   C454.2,24.8,454.6,23.3,453.6,22.5z" />
	<path display="inline" fill="#CEBBB1" d="M472.5,42.7c0.9,1-0.1,4.2-1.4,4.8c-0.2-0.2-0.3-0.5-0.5-0.7   C471.3,45.4,471.9,44,472.5,42.7z" />
	<path display="inline" fill="#323333" d="M449.9,60.5c0.7,1.8,0.7,1.8-1.1,3.1C448.8,62.3,448.8,62.3,449.9,60.5z" />
	<path display="inline" fill="#252727" d="M447.5,5.2c1,0.7,2.6,0.7,3.1,2.5C448.9,7.5,447.9,6.7,447.5,5.2z" />
	<path display="inline" fill="#2F3232" d="M440.6,57.3c-1.4-0.5-1.6-1.6-1.1-3.1c0.4-0.1,0.9-0.1,1.4-0.2   C440.7,55.2,440.6,56.3,440.6,57.3L440.6,57.3z" />
	<path display="inline" fill="#393939" d="M443.2,61.9c-0.4,0.1-0.7,0.3-1.3,0.5c0-1,0-1.7,0-2.5c0.5-0.3,1.1-0.7,1.9-1.2   C443.5,60,443.4,60.9,443.2,61.9z" />
	<path display="inline" fill="#212222" d="M469.9,26c0.8-0.7,1.6-1.3,2.4-1.9c1.1,0.2,0.9,0.9,0.8,1.6C472,26.3,470.9,26,469.9,26   C469.8,26,469.9,26,469.9,26z" />
	<path display="inline" fill="#1F2020" d="M449.3,38.7c0.3-1,1-1.7,2.2-2C452.3,37.9,450.1,40.1,449.3,38.7z" />
	<path display="inline" fill="#232222" d="M444,23.2c1.4,2.5,1.3,2.5,0.3,3.4C443.9,25.7,443.4,24.8,444,23.2z" />
	<path display="inline" fill="#282929" d="M449.2,30.7c-0.3-0.1-0.6-0.1-0.9-0.2c-0.5-0.8-0.6-1.6,0-2.2   C449.3,28.1,449.6,29.1,449.2,30.7C449.2,30.7,449.2,30.7,449.2,30.7z" />
	<path display="inline" fill="#252626" d="M451,19.5c0.4,1.6,0.2,2.6-1.4,3.3C449.6,21.5,450.2,20.6,451,19.5z" />
	<path display="inline" fill="#1D2020" d="M462.6,62.7c-0.9,1.5-2.7,1.1-4,1.9C458.4,62.6,461.3,63.2,462.6,62.7z" />
	<path display="inline" fill="#292B2B" d="M439.9,29.7c-1.2-0.3-2.2-0.5-2.5-1.8C438.8,28.3,438.8,28.3,439.9,29.7z" />
	<path display="inline" fill="#232626" d="M449.2,30.7c0.4,0.1,0.8,0.2,1.2,0.3c-0.8,1.1-0.8,1.1-2.1,1.5   C448.2,31.8,448.9,31.3,449.2,30.7C449.2,30.7,449.2,30.7,449.2,30.7z" />
	<path display="inline" fill="#272828" d="M438.4,41.1c0.2,0.9,0.4,1.8,0.6,2.8c-0.3,0.2-0.5,0.3-0.9,0.5c0-1.2,0-2.2,0-3.3   C438.1,41.2,438.3,41.1,438.4,41.1z" />
	<path display="inline" fill="#2D2E2E" d="M448.7,17.5c0.6-0.1,1-0.1,1.6-0.2c-0.2,1.2-1.1,1.6-1.6,2.3   C448.7,19.1,448.7,18.5,448.7,17.5z" />
	<path display="inline" fill="#242727" d="M461,21.9c-1,0.1-1.8,0.6-2.4-0.9C459.6,20.7,460.2,21.1,461,21.9z" />
	<path display="inline" fill="#232626" d="M462.7,28.3c0.2-0.5,0.5-0.9,0.7-1.4c0.3,0,0.5,0,0.7,0C464,28.4,464,28.4,462.7,28.3z" />
	<path display="inline" fill="#292929" d="M464.4,29.7c0.1,0.9,0.4,1.9-0.4,2.7c-0.1-0.9-0.2-1.8,0.1-2.7   C464.2,29.7,464.3,29.7,464.4,29.7z" />
	<path display="inline" fill="#1D2020" d="M458.5,64.6c-0.3,0.9-1.1,1.3-1.9,1.5C456.8,64.7,456.8,64.7,458.5,64.6z" />
	<path display="inline" fill="#1F2020" d="M448.4,37.1c0.4-0.8,0.6-1.2,0.9-1.7C449.7,36.4,449.7,36.4,448.4,37.1z" />
	<path display="inline" fill="#130E0E" d="M471.8,18c0.4-0.2,0.9-0.5,1.3-0.7C473.3,18.3,472.6,19.1,471.8,18z" />
	<path display="inline" fill="#1D2020" d="M453.2,62.6c-0.4-0.3-0.8-0.6-1.3-1C453.3,61.3,453.1,62,453.2,62.6   C453.2,62.6,453.2,62.6,453.2,62.6z" />
	<path display="inline" fill="#212222" d="M468.5,27.4c0,0.3-0.1,0.6-0.2,1.6C468,27.7,467.7,27.8,468.5,27.4L468.5,27.4z" />
	<path display="inline" fill="#292624" d="M433.1,39.5c-0.6-0.4-0.7-0.9-0.5-1.5C433.3,38.3,433.3,38.9,433.1,39.5z" />
	<path display="inline" fill="#473E3C" d="M471,45.9c-0.1,0.3-0.3,0.6-0.4,0.8C470.8,46.5,470.9,46.2,471,45.9z" />
	<path display="inline" fill="#212222" d="M469.8,26c-0.2,0.2-0.4,0.4-0.7,0.7c0,0,0,0,0,0C469.4,26.5,469.6,26.3,469.8,26   C469.9,26,469.8,26,469.8,26z" />
	<path display="inline" fill="#212222" d="M469.2,26.7c-0.2,0.2-0.4,0.5-0.7,0.7c0,0,0,0,0,0C468.7,27.1,469,26.9,469.2,26.7   C469.2,26.7,469.2,26.7,469.2,26.7z" />
	<path display="inline" fill="#5876E8" d="M495.2,224.9c0.3,7.7,6.9,15.1,4.5,22.8c-2.3,6,3.3,11.3,3.6,17.2   c-0.2,0.1-0.3,0.3-0.5,0.5c-7.7-7.2-13.2-16.7-18.7-25.5c3,10,11.8,19.9,19.1,27.7c3.5,6.4,3.1,14,3.8,21.1   c-4.7,0.2-6.4,5.4-10.5,6.8c-6.4,1.5-13.5,0.1-19.6,2.6c-2.8,2-5.8,1.6-9.1,1.3c1.1-1.2,1.9-2,2.6-2.8c1.2-11.1-0.4-22.6-2.8-33.6   c3-0.9,5.1-0.7,8.5-1.7c-3.3-1.6-6-3-9.5-3.1c3-5,8.3-8.4,9.8-14.1c-7.2,3.4-12.4,8.9-18.6,12.8c-1.1-1.4-0.9-3.2-1.9-4.7   c-0.5,0.9-0.9,1.5-1.3,2.1c-0.3-1.5-0.6-2.9-1-4.4c-1,3,0.4,6.2-1.1,9c-0.7,0-1.5,0-2.1,0c-0.5-1-0.9-1.7-1.3-2.5   c-4.9-0.2-9.5,2.4-14.5,1.8c-2.9-4-5.2-7.4-8.1-11.8c-0.3,0.6-0.4,0.9-0.6,1.1c-5.3,2.4-9.4,6.9-14.7,9.3v0   c4.1-12.1,8-23.7,17.6-32.7c-2,0.6-3.2,0.9-4.8,1.4c2.9-6.3,4.5-12.2,3.9-19.2c7.8,1.9,15.4,3.1,23.6,4.2c0.2,0.5,0.4,1.2,0.7,2   c0.5-0.8,1-1.5,1.5-2.2c0.6-0.1,1.1-0.1,1.8-0.2c0.2,0.8,0.3,1.5,0.6,2.6c0.3-0.9,0.5-1.4,0.8-2.3c0.4,0.6,0.8,1,1.3,1.8   c0.3-0.8,0.5-1.5,0.8-2.3c4.6-0.8,9.2-1.4,13.8-1.5c0.2,0.8,0.3,1.5,0.5,2.5c0.8-1.1,0.4-2.8,2.3-2.8c0.2,1,0.3,2.3,0.4,3.5   c0.7,0,1.2,0,1.8,0c-2.4,2.6-0.3,6,0.1,9.1c-0.1,0.8-0.1,1.6,1.1,1.8c0.1-1.6,0.2-3.1,0.3-5.1c1.5,1.7,2.2,3.7,4.6,3.8   c0.5-2.1,1.3-3.7,0.6-5.6c0.8-0.4,1.3-0.9,1.3-1.8c3.8,2.1,4.6,8.3,9.2,10C495.1,224.2,495.2,224.6,495.2,224.9z M437.2,221   c1.5-1.6,0-4.6,1.9-6.7c7.1-0.2,14.2,0.9,21.3,0.9c2.2,5.5,0.3,12.1,3.1,17.6c0.1,0,0.2-0.1,0.3-0.1c0-1.9,0-3.7,0-5.6   c1.3,1,0.9,2.8,2,3.9c3.6-1.5,1.6-8.2,2-11.7c-0.8-0.8-1.6-1.5-2.3-2.2c-0.9,0.2-1.6,0.4-2.4,0.6c-0.4-1.1-0.8-2.2-1.2-3.3   c-7.5-0.3-14.7-1-22.3-1.5c0-0.8,0-1.5,0-2.5c-0.7,0-1.2,0-1.7,0c-0.9,0.6-1.7,1.3-2.6,1.9c-0.5-1,0.6-2.6-1.3-3.4   c0,1.8-0.1,3-0.4,4.6c-1,0.1-1.9,0.2-2.7,0.3c0,0.1,0,0.2,0,0.3c0.9,0.1,1.8,0.3,2.8,0.4c0.1,3.8,1.7,7.1,0.4,10.8   c-0.2,0.6,0.2,0.8,0.9,0.7c0.3-1.1,0.1-2.5,1.2-3.3c0.4,0.3,0.8,0.6,1.2,0.8C438.3,222.5,437.5,221.8,437.2,221L437.2,221z    M452,228.2c-0.3,2.8-0.2,5.2,0.2,7.6C452.8,233.4,454,231,452,228.2z M452.8,239.9c-0.5,2-0.1,3.7,0.9,5.6   C454.2,243.3,453.8,241.6,452.8,239.9z M475.7,249.3c-2.3,1.9-2.8,2.6-2.8,4.1C474.6,251.8,474.6,251.8,475.7,249.3z M430.6,211.8   c-0.1-1.6-0.2-2.5-0.3-3.5C428.9,209.3,428.9,209.7,430.6,211.8z M441.3,210.4c0,0.6,0,1.1,0,1.7c0.1,0,0.3,0.1,0.4,0.1   c0.2-0.5,0.4-1,0.6-1.6C441.8,210.5,441.6,210.4,441.3,210.4z" />
	<path display="inline" fill="#4B65C5" d="M427.9,210.3c0.8,5.7-1.9,10.1-3.8,15.3c1.6-0.4,2.9-0.8,4.8-1.4   c-9.9,9.1-13.5,21-17.9,33.1c0.1-0.2,0.2-0.3,0.3-0.5c5.2-2.5,9.4-7,14.7-9.3c0.6,0.9,1.3,1.8,1.9,2.7c-5.2,2.6-8.9,8.8-13.3,12.6   c-0.1-0.2-0.2-0.3-0.3-0.5c-0.1,0.2-0.2,0.3-0.3,0.5l0,0c-1,0-1.7,0.4-2,1.4l0,0c-0.2,0.2-0.5,0.5-0.7,0.7l0,0   c-7.4,4.2-13.9,7.5-22.3,10.5c6.5,0.1,11.9-3.9,17.6-6.5c-5.2,5-7.8,11.6-10.7,18c-3.1-1.5-6.1-2.9-9.3-4.5   c5.4-16.5-0.8-22.8,12.1-36.7c2.4-2.5,3.2-3.8,3.7-6.2c-2,1.6-3.3,3.4-4.5,5.3c-1.1-1.2,0-2,0.6-3.3c-1.6-4.1,1-8.5,3.2-12.1   c4.2-6.2,4.8-13.3,8.1-19.9c1.3-0.8,2.9-1.7,4.7-2.8c0.1,1.4,0.3,1.7,1.2,3.4c0.2-1.5,0.1-1.5,0.2-2.4c0.2,0,0.4,0,0.6,0l0.1-0.1   c-0.5,2.4,1.6,2.7,3.3,3.4c-1.2,2.1-1.5,4.5-1.8,6.9c2.5-3.4,3.8-7.4,3.8-11.6c1.1-1.2,4.6-0.8,6,0.1c0,0.9,0,1.8,0,2.6   c-0.4-0.1-0.8-0.3-1.1-0.4c-1.2,0.8-0.8,2-1.1,3c-0.1,0-0.3,0-0.4,0c-1.8-1.2,0.4-4.3-1.7-4.5c-1,1.5-0.3,3.2,0.4,4.6   c-1.4,2.3-2.2,4.8-2.7,7.7c1.7-0.6,1.3-2.1,1.9-3.1c0.8-1,1.4-2.2,2.1-3.3c0.4-0.1,0.9-0.1,1.3-0.2   C427.3,212.1,427.5,211.2,427.9,210.3z M395.3,257.6c2.1-1,4.2-2,6.7-3.2c-1.3-0.7-12.3,3.8-10.8,5.3   C392.6,259,393.9,258.3,395.3,257.6z M411.2,216.3c-1.1,1.3-2.5,1.6-3,3.5c2.8-1.9,5.7-3.4,7.1-6.4   C413.3,212,412.4,215.2,411.2,216.3z" />
	<path display="inline" fill="#5876E8" d="M414.6,262.9c4.4-3.8,8.1-10,13.3-12.6c3.7,4.2,5.4,8.8,8.5,13.4c0.1-0.7,0.2-1.1,0.2-1.5   c1.3-1.3,3.3-0.4,5.2-0.6c-0.8,1.8-1.5,3.4-2.2,5c-3.8-0.5-11.1-0.5-14.2,1.9c2.4,1.3,4.8,1.5,7.3,1.7c0.2,2.5-1,4.9-1.5,7.3   c-5.9,2.8-3.2,10.9-3,16c-1.7,8.5-11.2,14.7-19,9.5c-2.7-2.8-6.1-4.9-8.2-8.2c-2.1-2.5-2.1-6.2-5-7.9c3.2-8.8,8.1-16.3,15.4-22l0,0   c0.2-0.2,0.5-0.5,0.7-0.7l0,0c1,0,1.7-0.4,2-1.4l0,0C414.2,263,414.4,262.9,414.6,262.9z" />
	<path display="inline" fill="#E4E4EB" d="M421.1,395.1c-0.8,1.1-2.2,1-3.3,1.4c-0.6-0.2-1.3-0.4-1.9-0.5c0.8-3.7,5.3-5.8,4-10   c5.7-11.8-1.1-24.1-5.9-34.9c-1-9.7,3.7-20-0.1-29.4c5.8-2.8,14.4,3.7,21.4,3.5c-5.4,17.1,0.5,14.1,2,28.8   c-1.7,3.1-6.4,7.4-4.7,11.3C428.7,375.4,426,385.4,421.1,395.1z" />
	<path display="inline" fill="#CFCFDD" d="M459.1,379.2c-1.2,1.7-0.4,4,0.6,5.7c3.2,11.6-2.4,28.2-13.2,34.5c-0.9,0-1.7-0.1-2.6-0.1   c0.3-5.6-2.7-11.1-1.5-16.6c0.3-1.2,1.4-2.3,0.5-3.7c-0.3,0.7-0.7,1.3-1,1.9c0.1-2-0.6-4.3,0.5-6.1c0.1,0.5,0.2,1.1,0.3,1.5   c1.6-4.4,6.1-8,7.4-12c-0.5,0.1-1,0.2-0.9,0.9c-0.7,0.5-1.3,1.1-2,1.6c0.5-2.1,2.1-3.5,3.3-5.1c-0.5-0.6-0.9-1.1-1.3-1.6   c0.5,0,1,0.1,1.6,0.1c1.5-3-0.5-5.3-2.3-7.4c1-0.9,0.6-2.1,0.7-3.3c1.3-1.1,0.9-5.2-0.4-6.4c-0.3,0.1-0.6,0.3-0.9,0.4   c0.3-1.3,1.9-2.2,0.7-3.4c1.8-3.6,3.5-7.2,5.3-11c-0.2-0.1-0.5-0.2-0.7-0.4c0.3-0.4,0.6-0.7,1-1.2c-2.9-0.3-5.9,0.7-8.3-0.7   c7.3,0.4,15.8-2.2,21.1,4.2c-0.1,8.6-1.5,18.4-9.1,23.6C459.4,376,458.9,377.7,459.1,379.2z M446.6,412.5c4-1.6,5.2-15.1,4.4-19.6   C447.6,396,447.2,407.5,446.6,412.5z M460.4,353c-2.1,3.3-2.2,8.9-2.3,13.1C461,366,462.2,355,460.4,353z M453.9,410.4   c0.9-2.7,4.7-16.1,1.4-17C455.9,396.7,451.5,410.4,453.9,410.4z" />
	<path display="inline" fill="#FBDFD3" d="M441.8,336.6c0-1.5,1.7-1.6,2-2.9c-0.5,0.1-1.3,0.1-2.2,0.2c-0.7-3.1-1.9-6-4.2-8.1   c6-4.9,13.9-9.6,20.3-14.4c3.5-9.8,10.8-9.9,19.8-10.6c7.7-0.8,15.7,5.2,22.3-1c0.8,2.7-2.3,9.1-5.2,9c0.1-0.4,0.2-0.7,0.5-1.4   c-0.8,0.3-1.3,0.5-1.8,0.8c-0.8,1.1-0.8,1.1,0.3,2.4c-0.9,0.6-2.2-0.4-2.9,0.7c-0.2,0.1-0.4,0.1-0.6,0.1c-0.2,0.2-0.4,0.5-0.6,0.7   l0,0c-0.2,0.1-0.4,0.2-0.5,0.3c0.2,0.1,0.4,0.1,0.6,0.2c0,0,0,0,0,0c-0.3,0.7-0.9,0.8-1.6,0.8c-1.6-0.3-2.7,1.3-4.1,2   c-8.5-0.3-16.2,4.5-24.6,4.8c-0.8,0-1.4,0.2-1.2,1.2c0.8,0.7,1.6,1.4,2.4,2.1c3.9,0.3,7.7-1.8,11.4-1c-10.3,4.3-19.4,11-29.6,15.2   C442,337.2,441.9,336.9,441.8,336.6z M460.2,316c0-0.1-0.1-0.2-0.1-0.3c-0.7,0-1.4,0-2.2,0c0.1,0.4,0.1,0.7,0.2,1.2   C459,316.5,459.6,316.2,460.2,316z M448.2,331c-0.7,0.2-1.1,0.3-1.3,0.8C447.4,332.5,448.7,332.4,448.2,331z M496.4,304.3   c-1.5,1.1-1.5,1.2-0.1,1.9C496.3,305.5,496.4,305,496.4,304.3z M450.5,330.5c1.6,0.3,1.7,0.2,1.7-1.3   C451.6,329.7,451.1,330.1,450.5,330.5z" />
	<path display="inline" fill="#4B65C5" d="M434.5,266.3c1.6,0,3.3-0.3,5,0.3c0.7-1.6,1.4-3.2,2.2-5c-1.9,0.3-3.9-0.7-5.2,0.6   c-0.6-1.3-1.3-2.7-1.9-4c5,0.6,9.5-2.1,14.5-1.8c0.4,0.8,0.8,1.5,1.3,2.5c0.6,0,1.4,0,2.1,0c0.2,3.7-3.6,5.2-5.3,8   c6.6,0,6.1-10.5,8.7-14.8c1,1.5,0.8,3.3,1.9,4.7c6.2-3.9,11.4-9.4,18.6-12.8c-1.5,5.7-6.8,9.1-9.8,14.1c3.4,0.1,6.2,1.6,9.5,3.1   c-3.4,1-5.5,0.8-8.5,1.7c2.5,10.9,4.1,22.4,2.8,33.6c-0.7,0.8-1.5,1.7-2.6,2.8c1.2,0.1,2,0.2,2.8,0.3c-1.1,0.8-2.3,0.5-3.5,0.5   c-1.2-0.9-3-0.6-4.5-1.2c6.1-9.6,0.8-20-0.1-30.3c-1.5,9.5,3.8,17.9-0.2,27.1c-3.9-4.3-14.3-35.1-20.4-24.7c0-0.8-0.2-1.5-1.2-1.8   c-1.9,1.5-4.5,1-6.8,1.1C434.2,269,434.4,267.6,434.5,266.3z M463.9,259.7c0.4-0.6,0.7-1.2,1.1-1.9c-0.4-0.3-0.6-0.5-0.9-0.7   c-1.4,3-5.2,4.6-5.2,6.6C460.8,262.3,462.3,261,463.9,259.7z" />
	<path display="inline" fill="#E4E4EB" d="M448,363.4c0.3-0.1,0.6-0.2,0.9-0.4c1.2,1.2,1.7,5.3,0.4,6.4c-0.6-0.6-0.8-1.4-1.1-2.2   c-0.1,0-0.3,0.1-0.4,0.1c-0.3,3.6,1,6.3,3.4,8.9c-1.1,1.1-1.5,2.4-1.9,3.8c0.4,0.5,0.8,1,1.3,1.6c-4.1,6-9.4,12.2-8.7,19.8   c-1.8,3.7,0.2,8.6,0.1,12.7c-2.4-1.4-4-4.2-4.6-6.8c0.4-0.2,0.7-0.3,1-0.4c0.5-11.6-4.4-21.6-7-32.8c1.1-2.8,2.4-5.9,3.7-9.1   c6.5,0.3,5.7-5.6,4.8-10.2c1.1-1.6,2.2-3.2,3.3-4.7c-1.1-1-2-1.7-3-2.6c0.5-0.8,0.9-1.4,1.3-2c4.5,1.3,7.9,2.8,12.8,2.2   c-2.3,4-8.3,7.9-6.5,13.2c-0.8,0.9-0.6,1.9-0.5,2.9C447.5,363.5,447.7,363.5,448,363.4z" />
	<path display="inline" fill="#CECEDC" d="M418,320.8c-1.5,0.1-3-0.3-4.1,0.9c-0.6-0.2-1.2-0.7-1.7,0c0.9,5.5,2.1,10.9,1.7,16.5   c-0.9,0.8-0.7,1.7-0.3,2.6c0.3,0,0.7,0,1,0c-2.3,6.7,0.7,12.3,2.7,18.1c-0.4-0.2-0.7-0.4-1.4-0.7c3.2,8.4,6.2,16.8,4,26   c-0.7,0.5-0.6,1.3-0.7,2c-1.1,0.8,0,1.8-0.4,3c-1.5,1.9-3.1,4.1-4.8,6.3c-11.8-4.6-9.2-19-8.6-29.2c1.2-5.6,5.3-9.9,5.4-15.8   c0.5-0.2,1-0.4,1.5-0.6c0.2-5.5-5.3-8.8-5.7-13.8C404.8,328.1,407.7,316.6,418,320.8z M409.9,336.2c0.1,0.6,0.3,1.2,0.5,2   c1.1-2,1.3-5.7,0.5-9.6c-0.9-0.3-1.7-1.3-2.7-1C407.3,330.5,407.6,334,409.9,336.2z M408.1,379.2c-0.2-3.8-0.2-7.7,1.3-11.3   c-0.6-0.7-1.1-1.2-1.7-2c-0.9,3.9-3.4,16.3,0.9,17.2C408.6,381.8,408.8,380.4,408.1,379.2z M415.1,384.8c0.7-5.7-2.2-10.7-0.7-16.4   c0.3-2,0.3-4.4-0.7-6.2C412.5,366.8,411,382.5,415.1,384.8z" />
	<path display="inline" fill="#FBDFD3" d="M401.5,299.4c5.6,4.8,12.3,10.6,19.9,6.5c4.6,3.7,5.4,10.2,5.5,15.5   c-6.2-0.8-11.8-4.6-18.2-1.9c-3-1-3.7-5.7-5.6-8.2c-2.1-4.7-4.8-8.9-6.1-13.9C398.8,298.5,399.8,300.1,401.5,299.4z" />
	<path display="inline" fill="#EDCABA" d="M401.5,299.4c-1.8,0.7-2.7-0.9-4.4-1.9c1.3,5,4.1,9.2,6.1,13.9c1.8,2.5,2.6,7.1,5.6,8.2   c-2.7,2-3.6,5-4.8,7.8c-6.1-5.3-5.7-15.1-11.4-20.6c-3.6-6.4-4.1-13.3-4.3-20.6c2.9,0.3,5,2.5,7.7,3.7c0.4,1.2,0.9,2.4,1.3,3.6   c-0.5,0.8-0.9,1.5-1.4,2.3c1,0.8,1.5-0.3,2.4-0.2C399.5,296.6,400.7,297.9,401.5,299.4z M393.8,300.4c0.2,0.1,0.4,0.1,0.6,0.2   c0.3-0.7,0.5-1.3,0.9-2.1c-0.4-0.1-0.7-0.2-1.2-0.3C394,299,393.9,299.7,393.8,300.4z" />
	<path display="inline" fill="#EDC9B9" d="M490.5,311.4c0.8-1.1,2.1-0.1,2.9-0.7c-1-1.3-1-1.3-0.3-2.4c0,0.4,0,0.8,0,1.3   c0.6-0.3,0.9-0.5,1.3-0.7c2.5,0.4,3.9-4.4,5.3-6c-0.5,4.4-2.3,8.3-4.6,12c-10.6,3.4-18.5,12.2-29.6,14.8c-9,2.2-16.4,7.7-24.1,11.6   c-0.4-1.6,0-3.1,0.4-4.7c0.1,0.3,0.1,0.6,0.3,1.1c10.3-4.2,19.3-11,29.6-15.2c-3.7-0.9-7.5,1.3-11.4,1c-0.8-0.7-1.6-1.4-2.4-2.1   c6.7,0.4,14.4,0.6,20.6-2.5c1.1-0.4,2.7,0.6,3.3-0.8c1.6-1.8,4.3-1.6,6.1-3.9c-0.9-0.1-1.5-0.1-2.1-0.2c0.8-1.4,2.8,0.2,3.5-1.4   C490,312.6,491.9,312,490.5,311.4z" />
	<path display="inline" fill="#EAC9B9" d="M499.9,302.3c0-0.8-0.1-1.5-0.2-2.5c-6.8,6.3-15.3,0.1-23.3,1c7-5.6,18.9,0.6,25.3-6.5   c1.3,1.2,0.1,2.9,0.1,4.4C500,299.3,500.8,301.3,499.9,302.3z M495.1,299.7c0.4,0.5,0.7,0.8,1.1,1.2   C496.3,299.9,496.3,299.9,495.1,299.7z" />
	<path display="inline" fill="#5775E5" d="M434,270.3c2.3-0.1,4.8,0.4,6.8-1.1c1,0.3,1.1,1,1.2,1.8c-3,3.6-4.8,8.6-9.2,10.7   c-2-2,0.7-6,0.6-8.7C434.3,272.3,433.7,271.2,434,270.3z" />
	<path display="inline" fill="#F8F8F8" d="M439.5,345.1c-0.4,0.2-0.8,0.4-1.1,0.5c-5.1-5.4-3.8-11.2-2.3-18   C441.6,331.9,437.9,339.4,439.5,345.1z" />
	<path display="inline" fill="#5572E1" d="M484.5,209c0.1-0.8,0.2-1.7,0.2-2.6c-0.2-0.3-0.4-0.7-0.8-1.2c0.5-0.4,0.9-0.8,1.7-1.4   c0.3,1.7,0.6,3.2,0.9,4.6c5,1,6.8,6.5,7.4,11.1c-0.3,0.2-0.5,0.5-0.8,0.7c-1.9-1.8-6.2-12.2-8.7-7.3c-0.2,0-0.4,0-0.5,0   c-0.6-0.5-1-1.2-1.4-1.8c0.8-0.1,1.3-0.5,1.2-1.4C484,209.5,484.2,209.2,484.5,209z" />
	<path display="inline" fill="#161D3A" d="M433.3,272.9c0,3.9-3.2,8.5-2.1,11.9c-0.8,3-1.5,6-3.2,8.7c-0.7-1.5-0.2-3-0.1-4.5   c0.4-0.1,1.7-0.3,0.7-0.7c0.7-5.6,2.7-11.1,4-16.6C432.9,272.1,433.1,272.5,433.3,272.9z" />
	<path display="inline" fill="#0E0F1B" d="M485.3,211.8c4.4-0.2,6.2,9.1,9.3,9.9c0.9,0.6,0.5,1.5,0.5,2.2   c-4.7-1.1-6.1-11.3-10.6-9.6l0,0.1c0-0.5,0-0.9-0.1-1.4c0.1-0.1,0.1-0.3,0.1-0.5C484.8,212.3,485.1,212,485.3,211.8z" />
	<path display="inline" fill="#BBBFD4" d="M432,201c1.9,1.4,4.5,2.9,5,5.2c-1.9-0.4-3.9-0.9-5.8-1.3   C431.5,203.7,430.6,201.7,432,201z" />
	<path display="inline" fill="#4C69CF" d="M484.5,209c-0.2,0.3-0.5,0.5-0.7,0.8c-2.2,0.3-4.3,0.9-6.6,0.6c0-0.9,0-1.7,0-2.6   c0.5-0.2,1-0.3,1.6-0.5c0.3,0.3,0.5,0.6,0.8,0.9c0.5-0.6,0.9-1.2,1.4-1.8C482.6,206.7,482.2,209.3,484.5,209z" />
	<path display="inline" fill="#1C2345" d="M496.5,258.3c2.2,2.3,3.9,5.1,6.3,7.1c0.2-0.2,0.3-0.3,0.5-0.5c1.2,0.9,0.3,1.8-0.1,2.6   c-3-2.3-5.1-5.6-7.4-8.5C496,258.7,496.2,258.5,496.5,258.3z" />
	<path display="inline" fill="#1D2A52" d="M416.7,209.1c0-0.5,0-0.9,0-1.4c1.3-0.7,0.2-2,1.2-3.2c0.8-0.2,1.8-0.4,2.9,0.4   c-1.2,1.3-0.6,3.1-0.7,4.8l-0.2,0.1C418.7,209.5,417.7,209.3,416.7,209.1z M418.8,208c0.1,0,0.2,0,0.3,0c0-0.9,0-1.8,0-2.7   c-0.1,0-0.2,0-0.3,0C418.8,206.2,418.8,207.1,418.8,208z" />
	<path display="inline" fill="#11162B" d="M463.1,272.3c-0.1,3,0.7,5.8,1.3,8.7c-0.9,0.4-0.4,1.4-0.6,2c-1.7-3.4-1.7-7-1.3-10.7   C462.7,272.2,463,272.3,463.1,272.3z" />
	<path display="inline" fill="#111529" d="M397.9,244.9c1.2-1.9,2.5-3.7,4.5-5.3c-0.5,2.4-1.3,3.7-3.7,6.2   C398.5,245.5,398.2,245.2,397.9,244.9z" />
	<path display="inline" fill="#5876E8" d="M462.7,298.9c1.5,0.6,3.3,0.3,4.5,1.2c-1.9,0.3-3.7,0.9-5.9,0.7   C461.8,300,462.2,299.5,462.7,298.9z" />
	<path display="inline" fill="#DAE1E1" d="M438.6,357.8c-0.3,2.8,1.3,5.1-2.6,4.9C436.6,361.1,437.3,359.7,438.6,357.8z" />
	<path display="inline" fill="#324689" d="M416.6,207.7c-0.2,0-0.4,0-0.6,0c-0.2-1.5,0.3-3.1-1.1-4.4c-0.3-0.3-0.1-1.2-0.2-2.2   c0.8,0.9,1.4,1.6,1.9,2.2C416.6,204.9,416.6,206.3,416.6,207.7z" />
	<path display="inline" fill="#3C54A5" d="M420,209.7c0.1-1.6-0.5-3.4,0.7-4.8c0.9,0.2,1.9-0.1,2.6,0.8c-0.5,0.1-1.1,0-1.4,0.7   c-1.7-0.2-1.4,1.5-1.3,2.6C420.4,209.2,420.2,209.4,420,209.7z" />
	<path display="inline" fill="#32509D" d="M477.2,207.8c0,0.9,0,1.7,0,2.6c-0.7,0.9,2.6,0.5,3.4,0.8c-1.3,1.1-2.8,0.3-4.5,0.5   c-0.1-0.7-0.1-1.4-0.2-2.1C476.2,208.9,476.7,208.3,477.2,207.8z" />
	<path display="inline" fill="#CCD1D8" d="M437.9,352.5c0.2-1.2,0.4-2.3,0.7-3.8c0.8,0.6,1.4,1,2.3,1.7c-0.9,0.9-1.7,1.7-2.5,2.5   C438.2,352.7,438.1,352.6,437.9,352.5z" />
	<path display="inline" fill="#4259AF" d="M431.2,284.8c-1.1-1.1,0-3.4,0.6-4.7c0.1,0.6,0,1.2,0.8,1.5   C432.2,282.7,431.7,283.8,431.2,284.8z" />
	<path display="inline" fill="#4F5A81" d="M494.6,221.7c-1,0.7-1-0.7-1.4-1.3c0.3-0.2,0.5-0.5,0.8-0.7   C494.2,220.3,494.4,221,494.6,221.7z" />
	<path display="inline" fill="#324689" d="M415.9,208.3c0,0.4-0.1,0.7-0.2,1.8c-0.5-1.1-0.8-1.5-1-1.9   C415.1,208.2,415.5,208.3,415.9,208.3z" />
	<path display="inline" fill="#FBDFD3" d="M457.9,307.6c-0.1-0.6-0.1-1.2,0.6-1.4C458.3,306.7,458.1,307.1,457.9,307.6z" />
	<path display="inline" fill="#FBDFD3" d="M457.2,308.8c0.2-0.2,0.4-0.4,0.6-0.6C457.8,308.6,457.8,308.9,457.2,308.8z" />
	<path display="inline" fill="#FBDFD3" d="M456,309.7c0-0.5,0.2-0.8,0.8-0.8C456.5,309.2,456.2,309.5,456,309.7z" />
	<path display="inline" fill="#3C3938" d="M403.4,326.7c0.2,0.2,0.5,0.4,0.7,0.7c-0.3,0-0.5,0.1-0.8,0.1   C403.3,327.2,403.4,327,403.4,326.7z" />
	<path display="inline" fill="#FBDFD3" d="M500.5,112.7c-0.3,1.7-0.5,3.5-0.8,5.2c-1.3,0.9-0.3,2.2-0.7,3.3   c-1.4,0.7,0.1,2.7-1.4,3.4l0,0c0.6-1-0.6-1.2-0.6-2c0.2-0.6,0.2-1.1-0.5-1.5c-5.2-11.6-7.7-23.7-8.2-36.3c3-1.7,5.3-2.9,8.5-4.1   c-0.3-0.3-0.7-0.7-1-1.1c0.2-0.2,0.5-0.3,0.7-0.5c12.9,3,22.9,13.1,20.9,27.1c-1.7,1.2-1.6,3.2-2.3,5.4c0.9-0.5,1.4-0.8,2.1-1.2   c2.5,10.7,6.4,21.1,8.7,31.9c4.8,10-1.8,21.5-6.8,30.1c-1.9-1.2-4-1.7-4.6-4.1c-0.4,0.3-0.6,0.5-0.8,0.8   c-4.8-0.4-15-26.7-13.3-30.6c1,0.7,1.1,2,2.1,2.6c0,0,0,0,0,0c1.4,3.8,5.4,16.8,9.8,16.3c0.7-11.8-5.6-22.6-7.8-34.1   c0.4-2.3-0.9-4-2.1-5.7c0-1.7,0-3.5,0-5.2l0.2,0.1c0.4-0.2,0.8-0.4,1.3-0.7c1.7,1.1,3.6,1.9,5.7,1c0.9-2.9-1.8-4.6-3-6.9   c-3.4-1.6-5.8-4.4-7.5,1.1C500.3,108.8,500.6,110.7,500.5,112.7z M514.5,159.1c-0.1-1.1,0.4-2.3-1-3c-0.8,1.2,0.6,2,0.4,3.1   c0.1,0.5-0.3,1.5,1,1.1C514.7,159.8,514.6,159.5,514.5,159.1z M502.4,84.7c0.7,0.9,1.3,1.9,2.7,2c-0.5-1.3-1.3-2.2-2.6-2.8   c-0.3-0.6-0.7-0.7-1.3-0.2C501.6,84,502,84.3,502.4,84.7z M496.4,108.7c0.5,1.7,0.3,3.5,1.8,4.7c1-2.7,0.2-4.7-2.2-6   C495.6,107.9,496,108.2,496.4,108.7z M492.6,95.4c0.3-1.8,4.3-5.9,1.4-6.7c-1.5,3-3.8,8-2.3,11.1c-0.3,3.2,2.1,4.3,4.2,5.8   c0.5-0.3,0.8-0.6,1.2-0.9c-1.4-2.1-3.7-2.9-4.3-5.5c-1.7-0.1-0.5-2.4-0.4-3.4C492.6,95.8,492.6,95.6,492.6,95.4z M507.9,88.5   c-0.3,1.2,0,1.9,1.2,2.5C509.5,89.8,509,89.1,507.9,88.5z M512.7,112c-0.5,0.1-1,0.3-0.7,1C512.7,113.5,513.5,112.6,512.7,112z    M515.7,165.2c-0.1,0-0.3-0.1-0.4-0.1c0,0.5-0.5,1.1,0.3,1.1C515.6,165.9,515.7,165.6,515.7,165.2z M507.7,104.7   c-0.1-0.2-0.1-0.3-0.2-0.5c-0.4,0.2-0.1,0.5,0,0.8C507.5,104.9,507.6,104.8,507.7,104.7z" />
	<path display="inline" fill="#EBD2C7" d="M491.1,81.9c-0.8,0.2-1.6,0.4-2.5,0.6c-0.8-1.5-0.6-3-0.7-4.5c2.4,0.7,4.8,0.2,6.5,2.5   C493.2,81.1,492.3,81.5,491.1,81.9z" />
	<path display="inline" fill="#CDBBB1" d="M493,79.2c-0.8-0.5-1.6-0.8-2.5-0.6c0.3-1.7-1.1-1.6-2.1-1.9c-0.4-0.5-0.7-0.8-0.4-1.5   c3.2-0.9,5.8,2.7,8.6,4c-0.2,0.2-0.5,0.3-0.7,0.5C494.9,79.6,494,79.4,493,79.2z" />
	<path display="inline" fill="#705A55" d="M493,79.2c0.9,0.2,1.9,0.3,2.8,0.5c0.3,0.4,0.7,0.7,1,1.1c-1.6,0.6-3,1.2-4.4,1.8   c-0.5-0.2-0.9-0.5-1.4-0.7c1.2-0.4,2.1-0.7,3.3-1.4C493.8,80,493.4,79.6,493,79.2z" />
	<path display="inline" fill="#3B3331" d="M488.4,76.7c1,0.3,2.3,0.2,2.1,1.9c-0.9-0.2-1.8-0.4-2.6-0.6   C488.1,77.6,488.2,77.2,488.4,76.7z" />
	<path display="inline" fill="#7B8AB2" d="M511.5,82.7c0.3,0.2,0.6,0.4,0.9,0.6C512.1,83.1,511.8,82.9,511.5,82.7z" />
	<path display="inline" fill="#EDC9B9" d="M513.8,169c0.2-0.2,0.4-0.4,0.8-0.7c0.7,2.4,2.7,3,4.6,4.1c-8.9,9.5-22.1-11.8-24.2-19.6   c1.6-5.8,2.7-12.2,3.6-18.2c0.6,1.3,1.2,2.6,1.8,3.8C498.6,142,509,168.8,513.8,169c-0.7,1-1.3,2-2,3.1c0.5,0.4,0.8,0.6,1.1,0.9   C514.1,172.1,514.9,170,513.8,169z" />
	<path display="inline" fill="#EECABA" d="M502.4,117.7c1.2,1.7,2.5,3.4,2.1,5.7c2.2,11.4,8.4,22.3,7.8,34.1   c-2.9,2-10.6-15.1-9.4-17.3c-1.7-3.4-3.1-7.4-3.8-11c2.2-3,2.4-7,2.8-11.2C502.1,117.9,502.2,117.8,502.4,117.7z M507.8,149.8   c0.1,0.9-0.3,2,1,2.3C509.2,150.4,509.2,150.4,507.8,149.8c0.2-1.1,0-5.1-2-3.2C506.2,147.7,506.3,149.1,507.8,149.8z M504.8,144.5   c0.6-1.2-0.1-1.5-1-2.2C503.8,143.6,504,143.6,504.8,144.5z" />
	<path display="inline" fill="#3E3531" d="M499.1,129.2c0.5,3,1.8,6.1,2.8,9.1c-0.3,0.3-0.5,0.6-0.8,0.9   C498.8,136.6,497.5,132.3,499.1,129.2z" />
	<path display="inline" fill="#2A2623" d="M501.8,112.5c-0.1-0.7,0.3-1.6-0.6-2c0-0.4,0-0.9,0-1.3c2.3,0.5,2.7-2.5,4.9-2.7   c-0.4,2.5-0.4,2.5-2.1,4.2c-1.4-0.5-1.8,0.7-1.5,1.9C502.3,112.4,502.1,112.5,501.8,112.5z" />
	<path display="inline" fill="#EDCBBB" d="M501.2,109.2c0.1,1.2-0.3,2.3-0.7,3.4c0.1-2-0.3-3.9-1.5-5.6c0.7-1.4,0.7-3.1,2.8-3.2   C501,105.6,501.2,107.4,501.2,109.2z" />
	<path display="inline" fill="#C8A79B" d="M497.7,124.6c1.5-0.7,0-2.7,1.4-3.4c-0.1,1.5,0.4,3.2-1,4.9   C497.9,125.4,497.8,125,497.7,124.6z" />
	<path display="inline" fill="#403531" d="M501.8,112.5c0.2,0,0.4,0,0.5-0.1c0,1.7,0,3.5,0,5.2c-0.2,0.1-0.3,0.2-0.5,0.3   C501.9,116.2,501.9,114.4,501.8,112.5z" />
	<path display="inline" fill="#C8A79B" d="M499.2,120.6c-0.1-1-0.5-2,0.6-2.8C499.8,118.8,500,119.8,499.2,120.6z" />
	<path display="inline" fill="#C8A79B" d="M496.6,121.2c0.6,0.3,0.6,0.9,0.5,1.5C496.5,122.3,496.5,121.7,496.6,121.2z" />
	<path display="inline" fill="#C8A79B" d="M497.2,123.2c0.7,0.3,0.7,0.8,0.5,1.4C497.1,124.3,497.1,123.7,497.2,123.2z" />
	<path display="inline" fill="#424342" d="M445.4,339.5c0.2-0.2,0.3-0.4,0.5-0.6C445.8,339.1,445.6,339.3,445.4,339.5z" />
	<path display="inline" fill="#C4C3D0" d="M437.9,409.3c1.3,1.7,2,3.8,4,4.7c0.4,1.7,0.8,3.5,1.1,5.2l0.1,0.1   c-0.1-0.1-0.3-0.1-0.5-0.1C438.8,417.1,437.3,413.6,437.9,409.3z" />
	<path display="inline" fill="#2B2425" d="M443.9,419.3c0.7,0,1.3,0.1,2,0.1c-1.3,0.9-1.7,0.8-2.8-0.2   C443.4,419.2,443.7,419.2,443.9,419.3z" />
	<path display="inline" fill="#403F42" d="M441.9,418.7c0.3,0.2,0.6,0.3,0.8,0.5C442.4,419,442.2,418.9,441.9,418.7z" />
	<path display="inline" fill="#312C2E" d="M413.9,395.3c1.7-2.2,3.3-4.4,4.8-6.3c0.4-1.2-0.7-2.2,0.4-3c0.2,0,0.5,0,0.7,0   c1.3,4.2-3.2,6.3-4,10C415.2,396,414.3,396.3,413.9,395.3z" />
	<path display="inline" fill="#3C3938" d="M401.3,324.2c0.2,0.2,0.3,0.4,0.5,0.6C401.6,324.6,401.5,324.4,401.3,324.2z" />
	<path display="inline" fill="#4E464F" d="M429.1,181.2c-4,2.1-8.4-1.3-12.4-1.4c0.4-0.4,0.8-0.8,1.2-1.2   C421.5,179.8,425.2,181.1,429.1,181.2z" />
	<path display="inline" fill="#6E6874" d="M423.2,149.2c-0.3,0.3-0.5,0.5-0.8,0.8c-1.4-0.3-2.7-0.6-4.5-1   C420.1,147.9,421.6,148.9,423.2,149.2z" />
	<path display="inline" fill="#71707E" d="M421.9,182.5c2.3,0.4,4.7,0.9,7.2,1.3c-1.8,1-6,0.1-8-0.6   C421.4,183,421.6,182.7,421.9,182.5z" />
	<path display="inline" fill="#49363C" d="M421.9,182.5c-0.2,0.2-0.5,0.5-0.7,0.7c-1.1-0.6-3.4-0.4-3.8-1.6   C419,181.2,420.4,182.2,421.9,182.5z" />
	<path display="inline" fill="#817D8D" d="M427.2,197.1c-0.2-0.1-0.3-0.2-0.5-0.3C427.2,196.3,427.2,196.8,427.2,197.1   C427.3,197,427.2,197.1,427.2,197.1z" />
	<path display="inline" fill="#686B76" d="M454.5,127.1c0,0.9,0,1.9,0,2.8c-0.3,0.5-0.6,1-1,1.7   C452.8,129.8,453.4,128.4,454.5,127.1z" />
	<path display="inline" fill="#A7ACC1" d="M454.7,118.3c0.2,0.5,0.5,1,0.7,1.5C454.4,119.6,454.6,118.9,454.7,118.3z" />
	<path display="inline" fill="#1C181C" d="M468.5,111.8c-1.1,0.6-2.2,0.1-3.2,0c-0.5-0.7-0.9-1.4-1.4-2.2c0.3-0.4,0.6-0.7,0.9-1.1   c1.3,0.8,2.5,1.5,3.7,2.2C468.5,111,468.5,111.4,468.5,111.8z" />
	<path display="inline" fill="#0C0E10" d="M461.2,105.9c-1.3-1.8-2-4.3-0.3-6c1.4,2,0.6,4.1,1.3,6   C461.8,105.9,461.5,105.9,461.2,105.9z" />
	<path display="inline" fill="#322226" d="M468.5,111.8c0-0.4,0-0.8,0-1.2c1.5-0.4,2.5,0.3,3.2,1.6   C470.6,113.3,469.8,111,468.5,111.8z" />
	<path display="inline" fill="#4C4D57" d="M461.2,105.9c0.3,0,0.6,0,0.9-0.1c0.6,0.4,1.2,0.9,0.9,2   C461.8,107.7,461.6,106.7,461.2,105.9z" />
	<path display="inline" fill="#292328" d="M436,121.8c-1.1,1.3-6.1-1.4-5.2-3.3C432.8,118.8,434.2,120.8,436,121.8z" />
	<path display="inline" fill="#363A41" d="M430.4,107.1c-1.9-1.1-0.9-2.7-1.2-4.6C430.4,104.2,431.1,105.4,430.4,107.1z" />
	<path display="inline" fill="#3A383F" d="M439.9,125.2c-0.2,0.2-0.5,0.4-0.7,0.6c-0.9-1-1.7-2-2.7-3.1c0.6-0.1,1-0.2,1.4-0.3   C438.6,123.3,439.3,124.3,439.9,125.2z" />
	<path display="inline" fill="#37353B" d="M454.6,181.8c1,0.4,0.5,1.1,0.5,1.8c-0.2-0.2-0.5-0.4-0.7-0.6   C454.5,182.6,454.6,182.2,454.6,181.8z" />
	<path display="inline" fill="#151110" d="M413.8,93.1c-1.1,0.9,0,1.7,0.7,2.6c-1.3,2.5,0.2,4.9,1.2,7.4c-1.6,0.1-2.1-1.4-3.1-1.9   c-1-1.8-0.6-3.5-0.4-5.3c-1.8-3.5,1.8-6.4,2.9-9.5C418.9,87,414.4,91.2,413.8,93.1z" />
	<path display="inline" fill="#020201" d="M402.3,125.1c1.1,3.9,0.8,7.4-0.7,10.9C401.8,132.6,400.2,127.8,402.3,125.1z" />
	<path display="inline" fill="#211D1B" d="M393.3,105.9c-0.5-1.1-0.9-2.2-1.4-3.2c0.1-0.6,0.1-1.1-0.5-1.4c0-0.4-0.1-0.9-0.1-1.3   c0.3,0,0.5,0,0.8-0.1l0,0c1.3,1.7,2.8,3.3,2.5,5.8C394.1,105.7,393.7,105.8,393.3,105.9z" />
	<path display="inline" fill="#322624" d="M397.9,81.9c1.8-1.4,3.6-2.6,6-2.5c0,0.3,0,0.6,0,1.1c-1.7,0.7-3.5,1.4-5.2,2.2   C398.4,82.4,398.2,82.1,397.9,81.9z" />
	<path display="inline" fill="#493F3D" d="M402.1,141.8c0.9,1,0.1,2.3,0.6,3.4c0.4,1,0.8,2,0.5,3.2c-0.2,0-0.3,0.1-0.5,0.1   c-1-2-1-4.4-1.3-6.6C401.6,141.8,401.9,141.8,402.1,141.8z" />
	<path display="inline" fill="#483B37" d="M397.9,81.9c0.2,0.2,0.5,0.5,0.7,0.7c-1.4,0.9-2.2,2.2-2.1,3.9   C394.5,85,396.5,82.9,397.9,81.9z" />
	<path display="inline" fill="#604642" d="M413.4,78.1c1.5-0.4,2.7-0.4,3.7,1C415.6,79.7,414.6,79.1,413.4,78.1z" />
	<path display="inline" fill="#4D413D" d="M392.1,99.8c-0.3,0-0.5,0-0.8,0.1c-0.1-1.3-0.2-2.5-0.4-3.8c0.4,0,0.7,0,1,0   C391.9,97.3,392,98.6,392.1,99.8z" />
	<path display="inline" fill="#89706A" d="M388.1,170.5c-0.6-1.3,0.6-2.2,0.7-3.3c0.2,0.6,0.5,1.3,0.7,1.9l-0.2,0.1c0,0-0.2,0-0.2,0   C388.8,169.6,388.5,170.1,388.1,170.5z" />
	<path display="inline" fill="#A0867B" d="M383.4,155.1c-0.1,0.6,0,1.4-1.2,1.2c0-0.6-0.1-1.2-0.1-1.8   C382.6,154.4,383.1,154.5,383.4,155.1z" />
	<path display="inline" fill="#433C39" d="M402.1,141.8c-0.2,0-0.5,0-0.7,0.1C401,140.3,402.2,140.3,402.1,141.8z" />
	<path display="inline" fill="#A39B94" d="M402.7,148.5c0.2,0,0.3-0.1,0.5-0.1c-0.2,0.4-0.3,0.9-0.9,0.5   C402.4,148.7,402.6,148.6,402.7,148.5z" />
	<path display="inline" fill="#4D413D" d="M392.6,100.6c-0.2-0.2-0.4-0.5-0.6-0.7C392.2,100.1,392.4,100.3,392.6,100.6z" />
	<path display="inline" fill="#A39B94" d="M402,147.1c0.2,0.3,0.3,0.5,0.5,0.8C402.4,147.6,402.2,147.3,402,147.1z" />
	<path display="inline" fill="#E4C6B6" d="M443.4,75.2c0.8,0.2,1.9-0.4,2.5,0.5c-0.2,0.2-0.3,0.3-0.5,0.5c0.1,0.1,0.3,0.2,0.4,0.3   c0.1,0.2,0.1,0.4,0.1,0.6c-2.9,1.7-7.8,2.4-8.1-2.5c0.5-0.1,0.9-0.1,1.4-0.2c0,0,0,0,0,0C439.9,75.7,442.6,76.9,443.4,75.2z" />
	<path display="inline" fill="#1D1615" d="M462.4,74.9c-2.1,2.4-4.1,4.7-6.1,7c-0.4-0.3-0.7-0.5-0.9-0.7   C455.6,79.1,460.1,73.6,462.4,74.9z" />
	<path display="inline" fill="#0A0908" d="M455.8,85.8c-0.8,0.5-0.1,2.1-1.6,2.1c-1-1-0.2-2.3-0.4-3.3c0.5-0.7,0.4-2,2-1.9   C455.8,83.7,455.8,84.8,455.8,85.8z" />
	<path display="inline" fill="#2B2725" d="M452.6,81.9c-0.1,1.1-0.2,2.1-0.2,3.2c-0.3-0.1-0.6-0.2-0.8-0.2c-0.5-1.7-1-3.4-1.5-5.2   C451.5,79.9,452,81,452.6,81.9z" />
	<path display="inline" fill="#2A2221" d="M435.3,73.9c-1.2-0.9-2.1-0.8-1.4-2.5c1.6-0.1,2.2,1.3,3.3,2c-0.2,0.2-0.4,0.5-0.7,0.7   C436.1,74,435.7,73.9,435.3,73.9z" />
	<path display="inline" fill="#281D1C" d="M445.9,77.2c0-0.2-0.1-0.4-0.1-0.6c0.5,0,1,0,1.5,0c0.8,0.5,1.5,1.1,1.3,2.2   C447.1,79,446.9,77.6,445.9,77.2z" />
	<path display="inline" fill="#6B605B" d="M451.3,72.7c-1.2-1-0.7-1.9-0.7-3C451.9,71.2,451.9,71.2,451.3,72.7z" />
	<path display="inline" fill="#7D625B" d="M436.6,74c0.2-0.2,0.4-0.5,0.7-0.7c0.7,0.4,1.4,0.9,2.1,1.3c-0.5,0.1-0.9,0.1-1.4,0.2   C437.4,74.5,437,74.3,436.6,74z" />
	<path display="inline" fill="#6B4A47" d="M464.8,74.5c-0.5,0.1-0.9,0.3-1.5,0.5C463.6,73.9,463.6,73.9,464.8,74.5z" />
	<path display="inline" fill="#6B4A46" d="M447.3,76.6c-0.5,0-1,0-1.5,0c-0.1-0.1-0.3-0.2-0.4-0.3c0.2-0.2,0.3-0.3,0.5-0.5   c0.2,0,0.5,0,0.7,0.1C446.8,76.1,447.1,76.3,447.3,76.6z" />
	<path display="inline" fill="#2F2523" d="M386.6,112.6c-0.7-2-3.2-7.3-0.1-7.9C386.9,107,388.5,110.9,386.6,112.6z" />
	<path display="inline" fill="#938176" d="M386.6,112.6c0.9-0.1,0.6-0.9,0.8-1.4c0.5,1.9,1.9,3.5,0.3,5.3   C387.3,115,387,113.8,386.6,112.6z" />
	<path display="inline" fill="#75625A" d="M388.6,119.2c-1-1.2-0.9-1.3,0.7-1.8C389.1,118.1,388.9,118.6,388.6,119.2L388.6,119.2z" />
	<path display="inline" fill="#1F1817" d="M392.7,90.8c-0.1,0.8-0.1,1.6-0.2,2.6C391.5,92.4,391.9,91.6,392.7,90.8z" />
	<path display="inline" fill="#4D413D" d="M391.4,101.2c0.6,0.3,0.6,0.8,0.5,1.4C391.8,102.1,391.6,101.7,391.4,101.2z" />
	<path display="inline" fill="#0F0D0C" d="M388.1,170.5c0.4-0.5,0.7-0.9,1.1-1.4c-0.1,1.9,0.9,3.7-0.8,5.2   C387.8,172.9,388.2,171.7,388.1,170.5z" />
	<path display="inline" fill="#302724" d="M382.4,162.7c0.5,1,0.4,2,0,3.1C381.1,164.5,381.2,164.2,382.4,162.7z" />
	<path display="inline" fill="#977D74" d="M382.7,159.1c-0.3,0.4-0.5,0.8-1,0.4c0.2-0.3,0.4-0.6,0.6-0.9   C382.4,158.8,382.5,158.9,382.7,159.1z" />
	<path display="inline" fill="#59423E" d="M440.7,67.5c1.2-0.8,1.8,0,2.5,0.8C442,69.1,441.4,68.3,440.7,67.5z" />
	<path display="inline" fill="#7D625B" d="M441.3,75.9c-0.8-0.2-1.6-0.4-2.1-1.3c1.2,0.2,2.4-0.5,3.5,0.5   C442.2,75.2,441.5,75.1,441.3,75.9z" />
	<path display="inline" fill="#171412" d="M441.3,75.9c0.3-0.9,1.4-0.8,2.1-0.6C443,76.4,442.1,76,441.3,75.9z" />
	<path display="inline" fill="#95847A" d="M445.1,69.6c-0.2,0.2-0.2,0.2-0.4,0C444.9,69.4,445,69.4,445.1,69.6z" />
	<path display="inline" fill="#2B1917" d="M429.9,79.3c-0.2-0.5,0.1-0.8,0.5-1.2C430.8,78.4,430.5,79.5,429.9,79.3z" />
	<path display="inline" fill="#4B65C5" d="M463.1,217.7c0.7-0.2,1.5-0.4,2.4-0.6c0.7,0.7,1.5,1.4,2.3,2.2c-0.4,3.4,1.6,10.1-2,11.7   c-1.1-1.1-0.7-2.9-2-3.9C462.7,224.1,463.4,220.8,463.1,217.7z" />
	<path display="inline" fill="#4862BE" d="M477.8,211.7c0.9-0.2,2,0.4,2.7-0.5c0.7,0,1.3,0,2,0c0.2,0.4,0.4,0.7,0.6,1.1   c-1.4,1.2,0,3.2,0.8,4.5c0.3-0.2,0.4-0.3,0.6-0.4c1.2,1.2-0.5,3.5-0.6,5c-2.4-0.1-3.1-2.1-4.6-3.8c-0.1,2-0.2,3.6-0.3,5.1   c-2.9-0.4,1.5-7.2-1.9-9.7C477.4,212.5,477.6,212.1,477.8,211.7z" />
	<path display="inline" fill="#4862BE" d="M443.3,214.3c-1.4,0-2.8,0-4.2,0c-0.9,1.6-1.3,3.2-1.3,4.8c-0.3-0.2-0.7-0.5-1-0.7   c-0.3,0.3-0.5,0.5-0.8,0.9c0.8,1.4,2.6,2.5,1.5,4.3c-0.4-0.3-0.7-0.5-1.2-0.8c-1.1,0.8-0.9,2.2-1.2,3.3c-0.7,0.1-1.1-0.1-0.9-0.7   c1.3-3.7-0.3-7-0.4-10.8c-1-0.1-1.9-0.3-2.8-0.4c0-0.1,0-0.2,0-0.3c0.8-0.1,1.7-0.2,2.7-0.3c0.1-0.7,0.2-1.3,0.3-1.9   c1.2,1,0.1,2.5,0.8,3.9c0.4-0.6,0.7-1.1,1.1-1.6c-0.2-0.6-0.4-1.1-0.5-1.6c0.9-0.6,1.7-1.3,2.6-1.9c0.2,0.7,0.4,1.4,0.6,2.1   c-0.4,0.4-0.6,0.7-1.1,1.2C439.5,214,441.7,213,443.3,214.3z" />
	<path display="inline" fill="#0D0F1C" d="M463.1,217.7c-0.2,5.1,0.8,9.9,0.7,14.9c-0.1,0-0.2,0.1-0.3,0.1   c-2.8-5.5-0.9-12.1-3.1-17.6c-1.9-0.1-3.8-0.1-5.8-0.2c2.2-1.3,4.8-0.4,7.4-0.6C462.4,215.5,462.7,216.6,463.1,217.7z" />
	<path display="inline" fill="#242E55" d="M454.6,254.2c-0.2,4-2.5,13.1-7.4,12.7c1.8-2.8,5.5-4.3,5.3-8c1.5-2.8,0.2-6,1.1-9   C454,251.3,454.3,252.8,454.6,254.2z" />
	<path display="inline" fill="#334077" d="M496.5,258.3c-0.2,0.2-0.5,0.5-0.7,0.7c-4.1-5.8-10.4-12.4-11.7-19.2   C488.1,245.9,491.5,252.7,496.5,258.3z" />
	<path display="inline" fill="#282D58" d="M456,214.3c-3.9,1.8-8.5-0.5-12.7,0c-1.6-1.3-3.8-0.3-5.9-0.6c0.4-0.5,0.7-0.8,1.1-1.2   c-0.2-0.6-0.4-1.4-0.6-2.1c0.5,0,1,0,1.7,0c0,0.9,0,1.7,0,2.5C445,213.7,450.9,213,456,214.3z" />
	<path display="inline" fill="#232D53" d="M434.7,258.2c0.6,1.3,1.3,2.7,1.9,4c-0.1,0.4-0.1,0.8-0.2,1.5c-2.4-3.5-3.6-6.8-6-10.1   c0.3,0,0.6,0,0.9-0.1C432.4,255.1,433.5,256.7,434.7,258.2z" />
	<path display="inline" fill="#111528" d="M477.2,212.9c1.8,1.4,1.6,6.2,0.8,7.9C477.9,218.4,475.5,215,477.2,212.9z" />
	<path display="inline" fill="#1E2543" d="M452,228.2c1.9,2.8,0.8,5.2,0.2,7.6C451.8,233.4,451.7,231,452,228.2z" />
	<path display="inline" fill="#333F75" d="M431.3,253.6c-0.3,0-0.6,0-0.9,0.1c-1.5-2-3-4-4.4-6c0.1-0.3,0.3-0.6,0.6-1.1   C428.3,249.1,429.8,251.3,431.3,253.6z" />
	<path display="inline" fill="#21294E" d="M435.4,212.3c0.2,0.5,0.3,1,0.5,1.6c-0.3,0.5-0.7,1-1.1,1.6c-0.8-1.3,0.3-2.8-0.8-3.9   c0-0.8,0.1-1.6,0.1-2.7C436,209.8,434.9,211.3,435.4,212.3z" />
	<path display="inline" fill="#1B2242" d="M427.9,210.3c-0.3,0.9-0.6,1.9-1.2,2.6c-0.1-0.6-0.2-1.1-0.9-1.3c0.3-1-0.1-2.2,1.1-3   c0.3,0.1,0.7,0.2,1.1,0.4C427.9,209.4,427.9,209.9,427.9,210.3z" />
	<path display="inline" fill="#0E0E1C" d="M484.6,216.3c-0.2,0.1-0.3,0.2-0.6,0.4c-0.8-1.2-2.2-3.3-0.8-4.5c0.7,0.5,1,1.3,1.3,2.1   c0,0,0-0.1,0-0.1C484.6,215,484.5,215.7,484.6,216.3z" />
	<path display="inline" fill="#3A4883" d="M452.8,239.9c1,1.7,1.4,3.4,0.9,5.6C452.7,243.6,452.3,241.9,452.8,239.9z" />
	<path display="inline" fill="#334384" d="M475.7,249.3c-1,2.5-1,2.5-2.8,4.1C472.9,252,473.4,251.3,475.7,249.3z" />
	<path display="inline" fill="#354580" d="M430.6,211.8c-1.8-2.1-1.8-2.6-0.3-3.5C430.4,209.4,430.5,210.3,430.6,211.8z" />
	<path display="inline" fill="#141728" d="M437.2,221c-0.4-0.6-0.8-1.1-1.2-1.7c0.3-0.4,0.5-0.6,0.8-0.9c0.4,0.2,0.7,0.5,1,0.7   C437.9,219.8,437.5,220.4,437.2,221L437.2,221z" />
	<path display="inline" fill="#0D1223" d="M441.3,210.4c0.4,0.1,0.6,0.1,1,0.2c-0.2,0.6-0.4,1.1-0.6,1.6c-0.1,0-0.3-0.1-0.4-0.1   C441.3,211.5,441.3,211,441.3,210.4z" />
	<path display="inline" fill="#4862BE" d="M484.6,215.7c0-0.5-0.1-0.9-0.1-1.4c0.5-0.2,0.9-0.3,1.4-0.5   C485.9,214.8,485.4,215.3,484.6,215.7z" />
	<path display="inline" fill="#4862BE" d="M437.2,221c0.2-0.5,0.4-0.9,0.6-1.4C437.9,220.2,438,220.8,437.2,221z" />
	<path display="inline" fill="#1B1F3B" d="M408.6,267.5c-6,3.6-12.5,7.7-19.6,7.9c7.1-2.9,12.7-4.7,18.9-8.6   C408.1,267.1,408.3,267.3,408.6,267.5z" />
	<path display="inline" fill="#0C0F1D" d="M425.4,213.1c-0.7,1.1-1.3,2.3-2.1,3.3c-0.7,0.9-0.3,2.4-1.9,3.1c0.4-2.9,1.3-5.4,2.7-7.7   c0.4-0.1,0.9-0.1,1.3-0.2l0.1,0C425.4,212.1,425.4,212.6,425.4,213.1z" />
	<path display="inline" fill="#5573E2" d="M421.3,211c0.1,2.6-1.8,4.8-3.1,7c0.3-2.4,0.7-4.7,1.8-6.9   C420.4,211.1,420.8,211,421.3,211z" />
	<path display="inline" fill="#0D0F1D" d="M411.2,216.3c1.2-1,2.1-4.3,4.1-2.9c-0.4,1.8-2,2.6-3.3,3.6   C411.7,216.8,411.4,216.5,411.2,216.3z" />
	<path display="inline" fill="#2F3C75" d="M394.6,256.9c2.6-1,4.4-2.9,7.4-2.5c-2.5,1.2-4.6,2.2-6.7,3.2   C395.1,257.3,394.8,257.1,394.6,256.9z" />
	<path display="inline" fill="#1C203E" d="M394.6,256.9c0.2,0.2,0.5,0.5,0.7,0.7c-1.3,0.7-2.7,1.4-4,2.1   C390.5,257.8,393.5,257.7,394.6,256.9z" />
	<path display="inline" fill="#27315F" d="M411.2,216.3c0.2,0.2,0.5,0.5,0.7,0.7c-1.1,0.9-2,2.1-3.8,2.8   C408.7,217.9,410.1,217.5,411.2,216.3z" />
	<path display="inline" fill="#090B17" d="M420.7,209c-0.1-1.1-0.4-2.8,1.3-2.6c0,0.9-0.1,1.7-0.1,2.6   C421.4,208.9,421.1,208.9,420.7,209z" />
	<path display="inline" fill="#101223" d="M423.3,210.3c-0.1-1-0.5-2.1,0.3-3.1c1.4,0.1,0.9,1.1,0.8,1.8   C424.1,209.4,423.7,209.8,423.3,210.3z" />
	<path display="inline" fill="#23396F" d="M420.7,209c0.4,0,0.8,0,1.2,0c-0.2,0.7-0.4,1.3-0.6,2c-0.4,0.1-0.9,0.1-1.3,0.2   c-0.5-0.2-1-0.4-1.4-0.6C419.3,210,420.1,209.7,420.7,209z" />
	<path display="inline" fill="#364685" d="M408.6,267.5c-0.2-0.2-0.4-0.5-0.6-0.7c1.1-0.7,1.9-1.9,3.4-1.9   C410.7,266.2,409.8,267,408.6,267.5z" />
	<path display="inline" fill="#344379" d="M423.3,210.3c0.4-0.4,0.8-0.9,1.2-1.3c0,0.9,0.1,1.9,0.8,2.6c-0.4,0.1-0.9,0.1-1.3,0.2   C423.8,211.3,423.6,210.8,423.3,210.3z" />
	<path display="inline" fill="#010101" d="M419.7,209.8c-0.4,0.2-0.8,0.5-1.2,0.7c-0.9-0.1-1.6-0.4-1.9-1.4   C417.7,209.3,418.7,209.5,419.7,209.8z" />
	<path display="inline" fill="#344379" d="M425.4,213.1c0-0.5,0-1,0-1.5c0.8-0.1,1.3,0.5,1.3,1.3C426.2,213,425.8,213,425.4,213.1z" />
	<path display="inline" fill="#364685" d="M414,262.9c-0.4,0.9-1,1.4-2,1.4C412.3,263.3,413,262.9,414,262.9z" />
	<path display="inline" fill="#364685" d="M412,264.3c-0.2,0.2-0.5,0.5-0.7,0.7C411.5,264.7,411.7,264.5,412,264.3z" />
	<path display="inline" fill="#364685" d="M414.6,262.9c-0.2,0-0.4,0-0.6,0c0.1-0.2,0.2-0.3,0.3-0.5   C414.4,262.6,414.5,262.8,414.6,262.9z" />
	<path display="inline" fill="#5876E8" d="M411.3,256.9c-0.1,0.2-0.2,0.3-0.3,0.5C411.1,257.2,411.2,257.1,411.3,256.9L411.3,256.9z   " />
	<path display="inline" fill="#4C66C8" d="M432.6,270.3c-2.4-0.2-4.8-0.4-7.3-1.7c2.3-2.4,5.1-1.5,7.9-1.6   C433.3,268.1,433.3,269.2,432.6,270.3z" />
	<path display="inline" fill="#4A63C2" d="M431.1,277.6c-0.8,3.8-2.3,7.5-2.5,11.3c-0.2,0-0.4,0-0.6,0.1   C426.6,285.2,427,279.3,431.1,277.6z" />
	<path display="inline" fill="#37488C" d="M432.6,270.3c0.7-1,0.7-2.2,0.7-3.3c0.4-0.2,0.8-0.4,1.3-0.6c-0.6,2.2,0,4.8-1.2,6.6   C432.8,272.1,432.5,271.2,432.6,270.3z" />
	<path display="inline" fill="#101011" d="M414,336.1c-0.2-4.9-0.9-9.6-1.8-14.5c0.4-0.7,1.1-0.1,1.7,0c2,4.6,2,9.7,0.8,14.5   C414.4,336.1,414.2,336.1,414,336.1z" />
	<path display="inline" fill="#111111" d="M419.8,384c2.1-5.4-1.1-11.6,0.7-16.6c1.8,5.3,2.5,11.4,0.1,16.6   C420.3,384,420.1,384,419.8,384z" />
	<path display="inline" fill="#545157" d="M418.6,364.8c-1-2.1-2.3-4.1-2.7-6.7c0.6,0.3,1,0.5,1.4,0.7   C417.8,360.8,418.9,362.7,418.6,364.8z" />
	<path display="inline" fill="#2D2A2C" d="M418.6,364.8c0-0.5,0.1-1.1,0.1-1.6c1.3,1.1,1.8,2.6,1.9,4.2c-1,0.5-0.4,1.5-0.7,2.2   C419.4,368,419,366.4,418.6,364.8z" />
	<path display="inline" fill="#888991" d="M414.5,340.7c-0.3,0-0.6,0-1,0c-0.4-0.9-0.6-1.8,0.3-2.6c0.2,0.2,0.4,0.5,0.7,0.7   C414.5,339.4,414.5,340,414.5,340.7z" />
	<path display="inline" fill="#28282B" d="M419.8,384c0.3,0,0.5,0,0.8,0c-0.2,0.7-0.5,1.3-0.7,2c-0.2,0-0.5,0-0.7,0   C419.2,385.3,419.1,384.5,419.8,384z" />
	<path display="inline" fill="#575A60" d="M414.5,338.7c-0.2-0.2-0.4-0.5-0.7-0.7c0-0.7,0.1-1.3,0.1-2c0.2,0,0.4,0,0.6,0   C414.6,337,414.6,337.9,414.5,338.7z" />
	<path display="inline" fill="#1C1C1E" d="M446.6,412.5c0.6-5,1.1-16.4,4.4-19.6C451.8,397.3,450.6,410.9,446.6,412.5z M449.7,400.4   c-0.6,1-0.6,2.1,0,3.8C449.7,402.5,449.7,401.4,449.7,400.4z" />
	<path display="inline" fill="#100F10" d="M460.4,353c1.8,2,0.6,13-2.3,13.1C458.1,361.9,458.3,356.3,460.4,353z" />
	<path display="inline" fill="#1C1B1D" d="M453.9,410.4c-2.5,0,2-13.8,1.4-17C458.7,394.3,454.8,407.7,453.9,410.4z" />
	<path display="inline" fill="#282527" d="M447.8,360.7c-2-4.9,3.5-8.3,5.4-12c0.3,0.1,0.5,0.3,0.7,0.4   C452.6,350.8,448.7,361.9,447.8,360.7z" />
	<path display="inline" fill="#4B484D" d="M442.5,394.7c1.7-3.5,3.6-7.2,6.7-9.6c0,0.3,0.1,0.7,0.1,1c-2.4,3.3-4.7,6.5-6.5,10.1   C442.7,395.7,442.6,395.2,442.5,394.7z" />
	<path display="inline" fill="#403F42" d="M443.9,419.3c-0.3,0-0.6-0.1-0.8-0.1c-0.7-3.6-2.1-7.5-0.7-11.1   C443,411.8,444,415.5,443.9,419.3z" />
	<path display="inline" fill="#6F6E71" d="M442.4,408.1c-0.2,0.7-0.4,1.4-0.6,2c-1.1-2.3-0.4-4.9-0.5-7.3c0.4-0.2,0.7-0.1,1.1-0.2   C441.9,404.5,442.1,406.3,442.4,408.1z" />
	<path display="inline" fill="#322B2D" d="M449.3,380c0.4-1.4,0.9-2.8,1.9-3.8c0.2,1.3,0.3,2.6-0.3,4   C450.3,380.1,449.8,380,449.3,380z" />
	<path display="inline" fill="#6B6E70" d="M447.8,360.7c0.5,0.9,0.8,0,0.9-0.6c1.3,1.2-0.4,2.1-0.7,3.4c-0.2,0.1-0.5,0.1-0.7,0.2   C447.2,362.6,447,361.5,447.8,360.7z" />
	<path display="inline" fill="#85868A" d="M448.6,372.7c-1-1.3-0.7-2.8,0.1-4c0.2,0.3,0.4,0.5,0.6,0.8   C449.2,370.6,449.5,371.8,448.6,372.7z" />
	<path display="inline" fill="#5C5B5E" d="M442.4,402.6c-0.2,0-0.4,0-0.6,0c-0.3-1.4,0.4-2.5,1.1-3.8   C443.8,400.4,442.8,401.5,442.4,402.6z" />
	<path display="inline" fill="#817F87" d="M449.3,386.1c-0.1-0.9-0.3-1.8,0.9-1.9C450.7,385.1,449.8,385.5,449.3,386.1z" />
	<path display="inline" fill="#E0BDAE" d="M470.6,320.8c-0.5,0-0.9,0-1.4,0c-2.6-2.3-6.9,1.4-10.1-0.6c8.4-0.2,16.1-5,24.6-4.8   c-3.9,2.1-8.5,3.8-13.1,4.4C470.6,320.2,470.6,320.5,470.6,320.8z" />
	<path display="inline" fill="#3A312D" d="M480.4,316.7c2.2-0.3,3.7-1.4,5.4-2.7c0.6,0,1.2,0.1,2.1,0.2c-1.6,1.9-3.6,2.3-5.4,3.1   C482,316.5,481.1,317,480.4,316.7z" />
	<path display="inline" fill="#0F0505" d="M459.1,320.2c2,1.1,4.2-0.2,6,1.2c-2.4,0.4-4.8,0.8-7.2,0   C457.7,320.4,458.3,320.2,459.1,320.2z" />
	<path display="inline" fill="#BFA29A" d="M460.2,316c-0.6,0.3-1.3,0.5-2,0.8c-0.1-0.5-0.1-0.8-0.2-1.2c0.8,0,1.5,0,2.2,0   C460.2,315.7,460.2,315.9,460.2,316z" />
	<path display="inline" fill="#3E2B29" d="M448.2,331c0.5,1.4-0.7,1.5-1.3,0.8C447.1,331.2,447.5,331.2,448.2,331z" />
	<path display="inline" fill="#937D77" d="M496.4,304.3c0,0.7-0.1,1.3-0.1,1.9C494.9,305.5,494.9,305.4,496.4,304.3z" />
	<path display="inline" fill="#846C67" d="M494.5,308.8c-0.4,0.2-0.7,0.4-1.3,0.7c0-0.5,0-0.9,0-1.3c0.5-0.2,1-0.4,1.8-0.8   C494.7,308.1,494.6,308.5,494.5,308.8z" />
	<path display="inline" fill="#653937" d="M490.5,311.4c1.4,0.7-0.5,1.2-1.2,1.3c0-0.2,0-0.3,0-0.5l0,0c0.2-0.2,0.4-0.5,0.6-0.7   C490.1,311.5,490.3,311.5,490.5,311.4z" />
	<path display="inline" fill="#5F4744" d="M450.5,330.5c0.6-0.4,1.1-0.8,1.7-1.3C452.2,330.7,452.1,330.8,450.5,330.5z" />
	<path display="inline" fill="#EDC9B9" d="M489.9,311.5c-0.2,0.2-0.4,0.5-0.6,0.7C489.4,312,489.6,311.8,489.9,311.5z" />
	<path display="inline" fill="#EDC9B9" d="M489.3,312.2c0,0.2,0.1,0.3,0,0.5c-0.2-0.1-0.4-0.1-0.6-0.2   C488.9,312.4,489.1,312.3,489.3,312.2z" />
	<path display="inline" fill="#30417E" d="M463.9,259.7c-1.6,1.3-3.2,2.6-4.9,4.1c0.6-1.9,1-2.3,4.2-4.8   C463.4,259.2,463.7,259.4,463.9,259.7z" />
	<path display="inline" fill="#191E39" d="M463.9,259.7c-0.2-0.3-0.5-0.5-0.7-0.8c0.3-0.6,0.6-1.1,1-1.8c0.3,0.2,0.5,0.4,0.9,0.7   C464.7,258.5,464.3,259.1,463.9,259.7z" />
	<path display="inline" fill="#25305F" d="M463.1,272.3c-0.1,0-0.4,0-0.6,0c0-1,0-2,0-3.6C463.5,270.2,463.1,271.3,463.1,272.3z" />
	<path display="inline" fill="#5B5A5C" d="M448.6,368.6c-0.2,0.5-0.4,0.9-0.6,1.4c-0.1-0.9-0.1-1.8-0.2-2.8c0.1,0,0.3-0.1,0.4-0.1   C448.3,367.6,448.5,368.1,448.6,368.6z" />
	<path display="inline" fill="#CFCFDD" d="M441.8,401.3c0,0.4,0,0.9,0.1,1.3c-0.2,0-0.4,0.1-0.6,0.1   C441.2,402.2,441.1,401.7,441.8,401.3z" />
	<path display="inline" fill="#1E1D1F" d="M415.1,384.8c-4.1-2.3-2.6-18-1.4-22.6c1,1.8,1,4.2,0.7,6.2   C413,374.1,415.8,379.1,415.1,384.8z" />
	<path display="inline" fill="#111112" d="M407.4,382.6c-2.3-5.1-0.9-11.1,0.3-16.7c0.6,0.7,1.1,1.3,1.7,2   C407,372.6,409,377.9,407.4,382.6z" />
	<path display="inline" fill="#29272A" d="M409.3,335.5c-1.8-2.1-1.9-5.4-1.2-8c1-0.3,1.8,0.7,2.7,1c0.8,4,0.6,7.7-0.5,9.6   c-0.9-4.1,0-8.9-1.6-9.4C408.5,331.3,409.7,333.1,409.3,335.5z" />
	<path display="inline" fill="#70737B" d="M409.3,335.5c0.4-2.4-0.8-4.2-0.5-6.6c1.2,1.4,1.2,1.4,1.1,7.3   C409.7,336,409.5,335.7,409.3,335.5z" />
	<path display="inline" fill="#303437" d="M407.4,382.6c0.6-1.1,0.6-2.3,0.6-3.5c0.7,1.3,0.5,2.6,0.6,3.9   C407.9,383.5,407.6,383.3,407.4,382.6z" />
	<path display="inline" fill="#3E2E2B" d="M393.8,300.4c0.1-0.7,0.2-1.4,0.3-2.2c0.5,0.1,0.8,0.2,1.2,0.3c-0.3,0.7-0.6,1.4-0.9,2.1   C394.3,300.5,394,300.4,393.8,300.4z" />
	<path display="inline" fill="#2A1715" d="M470.6,320.8c0-0.3,0-0.6,0-1c3-0.6,6-0.8,8.6-2.3c0.3,0.3,0.6,0.5,0.9,0.8   c-0.1,0.1-0.2,0.3-0.3,0.5C476.8,318.9,473.7,322.4,470.6,320.8z" />
	<path display="inline" fill="#68534D" d="M465.1,321.4c-0.5-0.2-0.9-0.5-1.4-0.7c1.5-0.6,4.3-1.2,5.4,0.1   C467.8,321.1,466.5,321.4,465.1,321.4z" />
	<path display="inline" fill="#181311" d="M480.1,318.3c-0.3-0.3-0.6-0.5-0.9-0.8c0.4-0.3,0.8-0.5,1.2-0.8c0.7,0.2,1.6-0.3,2.1,0.6   c-0.2,0.2-0.4,0.5-0.7,0.7C481.2,318.2,480.6,318.2,480.1,318.3z" />
	<path display="inline" fill="#E0BDAE" d="M480.1,318.3c0.6-0.1,1.1-0.2,1.7-0.2c-0.4,1.1-1.3,0.7-2,0.7   C479.9,318.6,480,318.5,480.1,318.3z" />
	<path display="inline" fill="#E0BDAE" d="M477.7,319.4c0.3-0.2,0.5-0.4,0.8-0.5C478.2,319.1,478,319.3,477.7,319.4z" />
	<path display="inline" fill="#694843" d="M495.1,299.7c1.2,0.1,1.2,0.1,1.1,1.2C495.8,300.6,495.5,300.2,495.1,299.7z" />
	<path display="inline" fill="#292951" d="M482.5,211.1c-1.1-0.2-5.9,0.3-5.4-0.8c2.2,0.2,4.4-0.3,6.6-0.6   C483.8,210.6,483.4,211,482.5,211.1z" />
	<path display="inline" fill="#4862BE" d="M484.5,214.4c-0.2-0.5-0.4-0.9-0.6-1.4c0.2,0,0.4,0,0.5,0   C484.5,213.5,484.5,213.9,484.5,214.4z" />
	<path display="inline" fill="#4862BE" d="M485.3,211.8c-0.2,0.3-0.5,0.5-0.7,0.8C484.6,212,484.8,211.8,485.3,211.8z" />
	<path display="inline" fill="#010101" d="M428.6,288.9c0-0.2,0-0.4,0.1-0.6C429.3,288.5,429,288.7,428.6,288.9z" />
	<path display="inline" fill="#000101" d="M418.8,208c0-0.9,0-1.8,0-2.7c0.1,0,0.2,0,0.3,0c0,0.9,0,1.8,0,2.7   C419,208,418.9,208,418.8,208z" />
	<path display="inline" fill="#EAC8B9" d="M502.6,112.6c0-0.5-0.1-0.9-0.1-1.4c2.6-0.6,3.3-2,3.7-4.6c-1.5,0.2-2.1,1.4-3,2.1   c-1.3-1-0.4-3.3-0.7-4.8c1.7-0.3,2.5,2.1,4.1,2c1.2,2.4,3.9,4.1,3,6.9c-2.1,0.9-4,0-5.7-1C503.3,112.1,502.9,112.4,502.6,112.6z" />
	<path display="inline" fill="#231E1D" d="M492.5,99.3c0.9,0.1,0.9,1.8,1.6,2.4c1,1.1,2.3,1.6,3.1,3.1c-0.5,0.3-0.8,0.6-1.2,0.9   c-2.1-1.5-4.5-2.7-4.2-5.8C492,99.7,492.2,99.5,492.5,99.3z" />
	<path display="inline" fill="#4D413D" d="M491.6,95.8c0.6-2.4,1-5,2.4-7.1c2.9,0.8-1.5,5.2-1.5,7.1   C492.2,95.9,491.9,95.9,491.6,95.8z" />
	<path display="inline" fill="#403531" d="M502.4,103.9c0.3,1.5-0.5,3.7,0.7,4.8c-0.4,0.9-1.2,0.4-1.9,0.6c0-1.8-0.2-3.6,0.6-5.3   C502,103.9,502.2,103.9,502.4,103.9z" />
	<path display="inline" fill="#332C2A" d="M496.5,107.7c2.1,1.3,2.5,3.2,1.7,5.7C496.6,111.9,496.4,109.7,496.5,107.7z" />
	<path display="inline" fill="#4F4744" d="M491.6,95.8c0.3,0,0.6,0,0.9,0.1c-0.1,1.1-1.2,2.7,0,3.4c-0.3,0.2-0.5,0.4-0.8,0.6   C490.9,98.4,490.9,97.9,491.6,95.8z" />
	<path display="inline" fill="#4F4744" d="M502.5,83.8c1.3,0.6,2.1,1.5,2.6,2.8c-1.4-0.1-2-1.1-2.7-2   C502.4,84.4,502.4,84.1,502.5,83.8z" />
	<path display="inline" fill="#C4ABA2" d="M513.8,159.1c0.2-1-1.2-1.9-0.4-3.1c1.4,0.7,0.9,2,1,3C514.2,159.1,514,159.1,513.8,159.1   z" />
	<path display="inline" fill="#4A413D" d="M501.1,139.2c0.3-0.3,0.5-0.6,0.8-0.9c0.5,1,1.4,1.8,0.6,2.8   C501.8,140.7,501.5,139.9,501.1,139.2z" />
	<path display="inline" fill="#3A3331" d="M507.9,88.5c1.1,0.6,1.7,1.3,1.2,2.5C507.9,90.4,507.5,89.7,507.9,88.5z" />
	<path display="inline" fill="#937C76" d="M512.7,112c0.7,0.6-0.1,1.5-0.7,1C511.7,112.2,512.2,112.1,512.7,112z" />
	<path display="inline" fill="#8B736E" d="M502.5,83.8c0,0.3-0.1,0.5-0.1,0.8c-0.4-0.3-0.8-0.7-1.2-1   C501.8,83.1,502.2,83.3,502.5,83.8z" />
	<path display="inline" fill="#7A6863" d="M513.8,159.1c0.2,0,0.5,0,0.7-0.1c0.1,0.4,0.2,0.8,0.4,1.2   C513.4,160.6,513.9,159.6,513.8,159.1z" />
	<path display="inline" fill="#392E2C" d="M515.7,165.2c-0.1,0.3-0.1,0.7-0.2,1c-0.8,0-0.3-0.6-0.3-1.1   C515.5,165.2,515.6,165.2,515.7,165.2z" />
	<path display="inline" fill="#6E5A56" d="M496.5,107.7c0,0.3-0.1,0.7-0.1,1c-0.3-0.4-0.8-0.7-0.3-1.3   C496.2,107.5,496.3,107.6,496.5,107.7z" />
	<path display="inline" fill="#EAC8B9" d="M507.7,104.7c-0.1,0.1-0.2,0.2-0.2,0.2c-0.1-0.3-0.4-0.6,0-0.8   C507.5,104.3,507.6,104.5,507.7,104.7z" />
	<path display="inline" fill="#EECABA" d="M501.8,140.5c0.2,0.2,0.5,0.4,0.7,0.6C502.2,140.9,502,140.7,501.8,140.5z" />
	<path display="inline" fill="#4F4744" d="M492.6,95.4c0.1-0.3,0.3-0.6,0.4-0.8C492.8,94.9,492.7,95.2,492.6,95.4z" />
	<path display="inline" fill="#4F4744" d="M492.4,92.9c-0.1,0.3-0.2,0.6-0.4,1C492.1,93.5,492.2,93.2,492.4,92.9z" />
	<path display="inline" fill="#180E0D" d="M513.8,169c1.2,1,0.4,3-0.9,4c-0.3-0.3-0.7-0.5-1.1-0.9C512.5,171,513.1,170,513.8,169z" />
	<path display="inline" fill="#5C4A44" d="M507.8,149.8c-1.6-0.6-1.6-2.1-2-3.2C507.8,144.7,508,148.6,507.8,149.8L507.8,149.8z" />
	<path display="inline" fill="#5A4F49" d="M507.8,149.8c1.4,0.6,1.4,0.6,1.1,2.3C507.5,151.8,507.9,150.7,507.8,149.8L507.8,149.8z" />
	<path display="inline" fill="#5E514B" d="M504.8,144.5c-0.8-0.8-1.1-0.9-1-2.2C504.7,143,505.5,143.3,504.8,144.5z" />
	<path display="inline" fill="#403531" d="M504.1,110.7c-0.5,0.2-1.1,0.3-1.6,0.5C502.8,110.4,503.4,110.6,504.1,110.7z" />
	<path display="inline" fill="#46484C" d="M449.7,400.4c0,1,0,2.1,0,3.8C449.1,402.5,449.2,401.4,449.7,400.4z" />
</g>
</svg>