<?xml version='1.0' encoding='utf-8'?>
<svg xmlns="http://www.w3.org/2000/svg" version="1.2" baseProfile="tiny" id="Layer_2_00000182494022711580452610000003357661100339437233_" x="0px" y="0px" viewBox="0 0 900 600" overflow="visible" xml:space="preserve">
<g id="a">
	<path d="M287.1,183.4c6-15.5,18.8-27.4,24.8-42.7c4.5-12.9,6.8-28.8,19.8-36.1c16.2-10.5,28,3.3,38-6.8c-0.8-1.6-0.3-3.3-0.5-5.1   c-1.9,1.2-1.4,3.2-2.7,5c-1.9-0.6-0.6-1.7-0.7-2.9c-0.4-0.9-0.8-2.2-1.2-3.1c0.2-1.2,0.4-2.2,0.6-3.7c-1.6,1-2.8,1.7-4,2.4   c-1-1.1,0.3-2,0.1-3c-0.1-0.9-0.4-1.7-0.7-2.7c0.3-0.5,0.7-1,1.1-1.6c-3.9-4.5-8.2-8.2-0.1-11.5c-2-0.8-3.3,0.4-4.6,1.3   c-0.3-0.1-0.7-0.3-1.1-0.5c0.6-1.4,1.2-2.7,2-3.8c0-1.6,0-3,0-4.4c-0.7-0.7-1.3-1.4-2-2.2c0.6-1.2,1.2-2.4,1.8-3.6   c-1.7-5.9,2.9-5.8,5.8-8.6c-1-2-3.1-1.2-5-1.8c1.5-4,5.1-7.9,9.6-8.2c0.2-0.4,0.4-0.9,0.5-1.3c-1.9-1.3-4.3,0.3-6.1-1.3   c1-4.1,3.7-6,7.3-6.5c1-0.9,1.7-1.6,2.5-2.2c0.8,0,1.6,0,2.4,0c0.5,1.1,1.2,1.2,2.5,0.2c-1-0.1-1.8-0.1-2.5-0.2   c-1.5-2.1-5.9-2-0.2-3.3c3-3.2,6.8-4.5,11.3-4c1.8-1.2,3.6-2.4,5.7-3.8c-3.6-1-5,1.6-8,1.2c2-3.8,6.3-8.8,10.4-4.9   c2.6-0.6,4.2-2.6,6.4-3.8c1.2,0.1,2.1-0.5,3.4-1.3c-1.1-0.1-1.9-0.2-2.6-0.2c-0.2-0.5-0.5-0.9-0.8-1.5c2.2-3.7,6.8-0.9,10-3   c1.7,0.9,3.4,1.8,4.9,2.7c4.6-1,9.3-1.1,13.9-2.4c0.3-1.3,1.1-2,2.5-2.1c4.2,2.5,9.8,3.7,11.5,9c2.6-3.2,5.2-1.5,7.7,0.9   c0.9-0.2,2-0.4,2.6,1.2c-0.5,0.8-1.1,1.8-1.8,2.9c1.7-0.1,3.1,0.5,4,2c2,2.4,5.4,2.7,8,4.2c0.2,1.2,0.3,2.2,0.5,3.4   c4.1,2.4,9.2,4.2,3.6,9c1.8-0.3,2.5-0.3,3.7-1.2c4,0.7,5,5.6,1.1,7.2c0.3,1.4,0.7,2.6,1,3.9c1,0.2,1.8,0.3,2.6,0.4   c0.7,2.2,2,6.5-1.8,6.7c-2,2.1,1.1,5.1-2.8,6.3c-0.4-0.9-0.8-1.6-1.2-2.5c-0.6,0-1.2-0.1-1.7-0.1c-1.3,2,2.2,4.8-0.9,6.3   c-0.7-0.2-1.6-0.5-2.4-0.8c-3,1.4-1.4,5.3-4.1,6.9c-1.5,0.8-1.5-0.9-1.8-1.7c-0.9,0.1-1.7,0.2-2.7,0.4c-0.3,1.3-0.5,2.5-0.8,3.9   c-0.7,0-1.2,0.1-1.7,0.1c-0.2-1.1,0.3-2.4-1.4-3c0.9,5.4,6,9.9,5.5,16.2c-0.1,1.2-0.7,2.5,0.6,3.4c0,1.3,0,2.7,0,4   c-5.1-10.1-16.8-11.7-25.5-5.5c0-0.2,0-0.4-0.3-0.4c0.1,0.1,0.2,0.2,0.4,0.4c-0.5,1.5-3,0.4-3.7,1.3c-2.6,2.5-6.3-0.6-9.1,2   c-0.4,0.4-1.3,0.6-1.8,0.4c-1.5-0.6-1.2,1.7-2.6,0.7c0.1-0.5,0.2-0.9,0.3-1.1c-1.1-1.8-1.7-3.5-3-4.9l0,0.1c-0.2-0.5-0.5-1-0.7-1.5   c-11.8-4.2-13.7,10.3-10.5,19c1.1-0.4,1.9-0.5,3-0.4c0.2,1.4-0.7,2.1-1.4,2.8c-6.5-1.2-4-8.8-4.8-13.5c-1.4,0.4-2.5,0.6-3.1,0.8   c-1.9,3-3.4,4.7-5.8,7c-0.7,0-1.5,0-2.2,0.1c-2-2.5,0.7-4.8,2.1-6.7c-5-2-2.4,13.3-9.2,7.5l0,0c-0.3-0.8-0.7-1.6-1-2.4   c-1.5,0-2.8,0-4.2,0c-6.8,6.8-16.3,8.2-25.2,10.4c-0.2-0.2-0.5-0.5-0.7-0.7c0.6-2.1,2.4-2.5,4.5-2.8c-3.2-1.7-6.1-0.6-9.1-0.3   c-1.4-0.6-2.7-1.9-4.2-0.2c-10.5,3.5-18.5,10.2-22.4,20.8c-1.4,0.9-0.6,2.3-0.7,3.4c0.6,0.3,1.1,0.5,1.6,0.7   c-8.1,20.4-20.3,38.5-31.9,57.3C287.1,184.8,287.3,184,287.1,183.4z M417.9,75.1c-1.6,1.2-3.1,2.3-4.7,3.5c1.2,2.3,2.3,4.5,3.5,6.7   c12.9-3.5,26.6-5.2,39.3-6.3c-3-5.2-3.7-13.1-8.9-16.6c-0.6,0.5-1.1,1-1.8,1.6c-1.3-0.3-2.5-0.6-3.4-0.8c-4.2,2.7-7,4.3-10.8,7.1   c-0.5-0.3-0.9-0.6-1.3-0.8c-4.6,1.9-6.6,7-11,8.8C417.5,77.2,417.9,76.1,417.9,75.1c1.9-0.6,2-0.8,0.7-2.3   C417.4,73.3,417.9,74.3,417.9,75.1z M366.9,56.7c-1.2,1.3-2.1,2.4-3.4,3.7c2.4-0.5,4.8-2.3,4.6-3.3C367.8,57,367.5,56.9,366.9,56.7   z M450.5,34.6c1.8-0.4,2.3-1,2.2-2.1C451.1,32.1,451.3,33.4,450.5,34.6z M396.9,88.1c-1.7-0.3-1.7-0.3-2.4,1.1   C395.6,89.6,396.5,89.4,396.9,88.1z M458.4,61.9c-0.3-1.5-0.8-0.6-1.8-0.4C456.9,62.7,457.6,62.1,458.4,61.9z M375.9,75.2   c0.1,0.2,0.2,0.5,0.3,0.7c1.1-0.4,1.2-0.4,1.6-1.9C376.9,74.6,376.4,74.9,375.9,75.2z M432,6.6c0.3-1.3,0.1-1.8-1.3-1.3   C431.1,5.8,431.5,6.1,432,6.6z M394.8,16.4c0.9,0.9,1.7,0.2,1.2-0.7C395.7,15.9,395.3,16.2,394.8,16.4z M361.7,78.7   c0.1-0.3,0.4-0.6,0-0.9C361.3,78.1,361.4,78.3,361.7,78.7z M473.3,48c-0.1,0.3-0.4,0.5,0,0.7C473.4,48.5,473.7,48.2,473.3,48z" />
	<path fill="#010101" d="M543.8,501.5c-1.1,4.2-1.6,10.6-6.2,12.3c-0.7-0.4-1.4-0.9-2.2-1.4c-6.2,21.6-9.8,45.8-22.9,64.4   c-1.3,0.1-3.1,0.2-5,0.3c-4.6-7.4,1.2-16,2.8-23.6c5.5-23.2,9.6-47.1,11.2-70.9c-7.4-66.4-45.7-129-42.4-197.2   c5.5,42.9,14.4,86.1,27.7,127.7c9,25.2,18.9,50.8,17.1,78.1c-3.4,22.4-5,46.2-12.4,67.6c-0.6,4.9-7.1,13.5-1.1,16.5   c2.3-0.7,3.8-2,4.1-4.7c9.9-23.4,17.3-47.8,21.4-73.2c-0.7-0.9-1.2-1.7-1.7-2.4c0.1-0.6,0.2-1.1,0.2-1.7c1.2,1.2,2,3,3.8,3.3   c41.5,2.1,84.6,0,126.7,0.7c4.4,19.5,7.8,39.7,15.6,58.1c1.3-1.3-1.5-3.4,0.3-4.5c0.7,2,1.3,3.9,2,5.8c-0.5,0.4-0.8,0.7-1.2,1.1   c3.5,6.1,3.8,14,9.1,18.7c9.2-2.4-5-27.2-4.9-35.7c-7.1-37.2-11.1-61.4-1.7-98.8c-48.9-1.2-98.2,0.1-147.3-0.3   c-9.3,1.7-8.3-9.9-7.4-16c2.1-0.9,1.6-3.1,2.5-4.5c-18.1-27.9-24.6-60.9-34.3-92c0,0,0,0.1,0,0.1c0.2-6.9-5.9-24.5-2.4-28.7   c8.3,39.9,16.6,82.4,37.9,117.2c-1.5-42.8-29.4-84.1-29.3-128c-2.8,2.4-5.1,8.6-8.6,7.6c7-10.8,16-20.6,24.6-30.3   c0.4,0.3,0.7,0.7,1.1,1l0,0c-1,0-1,0.8-1,1.5c-1.3,1.8-2.7,3.5-3.9,5.2c2.4,38.5,17,75.6,32.9,110.3c3.5-2.9,7.3-5,12-4.6   c30.1,0,60.3,0.1,90.4,0.1c20.2-3.8,21.2,17.9,28.1,30.9l0,0c-0.5,1.3,0.8,1.3,0.9,2.1c1.1,1.1,0.1,2.8,1.5,3.5   c-0.5,1.1,0.9,1.3,0.9,2.2c-0.1,0.7-0.2,1.4,0.7,1.8c0.5,0.6,0,1.6,0.1,2.4c-0.3,0-0.5,0-0.8,0c0.4-1.1-0.9-1.4-0.9-2.3   c0.5-1.1-0.7-1.4-0.8-2.3c-1.1-1-0.1-2.8-1.5-3.4c-12.7-21.5-5.3-35.8-35.8-32.8c-28.4,0-56.8,0-85.2,0.1   c-15.9,4-18.2,29.9-25.6,41.8c0.5,0.4,0.9,0.6,1.4,0.9c-1.1,0.7-1.9,1.3-2.7,1.8c-0.4,4.1-0.6,8,1,12c50.1-0.1,100.3,0.9,150.4,0.5   c3.5-4.7,2-8.3-0.4-12.5c0.5-1.3,0.9-2.6,0.8-4c0.3,0,0.5,0,0.8,0c7.6,15.3-1.3,31.9-2.7,47.6c-4,15.7,1.8,31.8,3.5,47.5   c2.5,17.7,6.4,35,11.4,52.1c0.7,3.5-1.3,5.8-3.8,7.7c-11.8,3.7-28-69.6-29.4-80c-41.1-0.3-82.2-0.1-123.3-0.1   c-3.6,1.4-2.5,8.2-4.1,11.5c0.8,0.7,1.5,1.2,2.2,1.8c2.8-3.6,3.2-7.7,5-11.7C543.8,500,543.7,500.8,543.8,501.5z M546.2,389.1   c0.5-0.6,0.9-1.2,1.4-1.8c-16.5-34.5-31.5-71.7-33.4-110.2c-2.3,2.8-1.3,5.2-1.5,8.4c-0.2,0-0.4,0-0.7,0c-0.4-1.5,0.7-3.4-1.5-4   c-15.3,20,21.6,98.9,25.6,127.7C539.2,402.3,542.7,395.5,546.2,389.1z" />
	<path fill="#020101" d="M311.2,425.1c-3,12.3-8.2,23.9-6.8,37.1c0,17.8-8.6,34.6-7.8,52.5c1,0,1.7,0,2.5,0c3.5,4.3,1.4,12,7.9,14.6   c9.5,8.8,21.8,10.1,33.6,12.8c-0.3,0.3-0.6,0.5-0.9,0.8c-7.4,0.4-14.5-2.3-21.6-3.9c-1.4,0.9-1.8,2.6-3.6,2.7   c-0.3-0.4-0.5-0.8-0.8-1.2c0.5-1.1,1-1.9,1.5-2.9c-0.7-0.5-1.3-0.8-1.8-1.2c-1.8,1.4-2.6,3.9-4.9,4.6c-0.3-0.4-0.6-0.7-1.1-1.2   c1.4-1.5,2.9-3,4.4-4.6c-0.7-0.5-1.4-0.9-2.1-1.5c-2.3,1.5-4.3,8.3-7.3,4.7c1-2.7,4-4,4.8-6.7c-0.5-0.3-1.1-0.5-1.7-0.8   c-2.5,2.1-3.7,5.3-6.4,7.4c-0.5-0.6-0.9-1-1.3-1.4c1.4-3.3,4.1-5.4,6.3-8.2c-1-0.2-1.5-0.3-2.1-0.5c-3.4,2.7-5.4,6.8-9.4,8.2   c-1.5-4.3,5.5-7.2,8-9.9c-1-3.6-0.9-6.9-2.6-10c-2.6,0.8-4.9,1.6-7.2,2.3c-1.5,4.7-2.9,8.7-5.8,12.2c0,2.8,0,5.5,0,8.4   c1.1-0.2,1.9-0.3,2.6-0.4c4.8,5.3,1.7,16,11,18c9.3,7.9,25.3,2.8,36.4,0.7c0.3,0.3,0.6,0.5,0.9,0.8c-8.7,5.3-19.4,4.3-29.5,4   c3.5,4.4,9.4,2.9,13.7,6c5.2,1.6,11.9,0.4,16.6,2.9c-8.6,2.7-18-1.9-26.3-3.4c-1.8,1-2.2,3.1-4.3,3.3c-0.3-0.4-0.6-0.8-1-1.3   c0.6-1.1,1.3-2.2,1.9-3.4c-0.8-0.6-1.5-1.1-2.3-1.7c-2.1,1.8-3,4.6-5.9,5.5c-0.4-0.5-0.7-1-1.2-1.8c1.7-2,4.3-3.1,4.9-5.4   c-0.6-0.5-1.3-1-2.2-1.6c-7.9,11.6-12.7,7.6-2.5-1.9c-1.1-0.7-1.5-1.1-2.8-1c-2.6,2.5-4.1,6.7-7.3,8.4c-4.1-3.6,5.3-7.6,5.7-11.3   c-0.7-0.1-1.4-0.3-2.4-0.5c-3.2,3.3-6.5,6.6-9.9,10c-5.5-3.2,6.4-9.2,8.5-12c-1.4-3.9-1.5-7.9-3-11.8c-2.7,0.9-6.1,1.9-8.5,2.7   c-2.2,4.5-2.8,9-5.7,12.3c-0.4-0.4-0.8-0.7-1.2-1.1c0.2-1.8,1.9-3.2,1.5-5.3c-3.4-0.3-6.7-0.5-10.2-0.8c-0.5,2.2,0,3.6,0.8,5.5   c-3.1,0-3.6-4.2-2.7-6.5c-0.7-0.3-1.1-0.5-1.8-0.8c-0.3,2.3-0.2,4.4-0.2,6.3c2,2.3,2.8,6.3,6.3,6.6c0.8,0.8,1.6-0.2,2.4-0.1   c0.3,0.3,0.6,0.6,0.9,0.9c-6.9,6-9.1-7.5-14.3-9.1c-0.6,4.8,0.2,9.4-1.7,13.8c-1.8-3.4-1.2-12.2,1-15.7c0.8-0.2,1.5-0.4,2.5-0.6   c6.9-28.5-10.9-57.7-5-86.5c0.9,27.2,9.3,54.4,8.8,82c5.1,1.4,9.9,1.1,15.1,0.9c0.3-4.8,4.4-4.4,7.8-5.5   c-1.3-17.4,3.4-34.1,5.8-51.2c2.5-14.2,1-28.9,5.7-42.7c4.9-11.9,10.3-25.1,7.7-38.2c0.3-0.3,0.6-0.7,0.9-1   c6.8,14.8-4.4,29.6-7.7,44c-1.5,23.1-3.4,46.4-9.6,68.8c0.8,0.2,1.5,0.3,2.3,0.1c1.5-2.8,1.5-2.8,6.1-4.8   c-0.2-19.5,8.4-37.5,8.9-56.9c-0.6-12.8,4.4-24.2,7.9-36.2C311.5,423,310.9,424.2,311.2,425.1z M286.4,523.6   c-2.3,0.9-2.3,0.9-1.8,4.7C285.7,526.9,286.4,525.7,286.4,523.6z" />
	<path fill="#020101" d="M260.7,428.9c0.4-14-4.6-27.3-12.9-38.4c-17.6-22.3-19.7-51.9-36.2-74.8c-18.2-25-2.4-57.5,19.7-74.2   c14.1-10.8,31.3-18.2,41.5-33.4c0.3,0.3,0.7,0.7,1,1c-16,26.3-50.3,29.2-61.2,61.1c14.6,19,40.7,24.6,62.7,30.3   c-17.6,3.7-52.2-13.3-63.8-27.4c-16,31.3,17.9,58,23.4,87.9c6.7,23.3,34.1,43.4,27.1,68.7c-0.3,0-0.7-0.1-1-0.1   C260.9,429.4,260.9,429.1,260.7,428.9z" />
	<path fill="#020202" d="M399.2,188.4c-0.5-0.2-1-0.3-1.5-0.5c-0.9,19.4,12.1,37,13.2,56.7c1.1,13.8,14,20.9,18.6,33.1   c6.7,15.7,13.8,31.3,22.7,45.8c-0.1,0.7,0,1.6-1,1.9c-11.2-15.1-18.2-32.5-25.4-49.7c-2.4-7.1-9-11.2-12.9-17.5   c-2.5-6.8-4.7-13.8-6.5-20.8c-4-19.3-12-37.7-13.2-57.6c-1.1-14.4-12-24.4-17.7-36.8c0.3-0.3,0.7-0.6,1-1c0.7,0.5,1.4,1,2.1,1.6   c2.4-1.3-0.2-5.5,2.4-7.2c0.4,0.4,0.7,0.7,1.1,1.1c-7.1,14.3,17.4,23.6,15.2,47.6c1.2,0.9,2.1,1.7,3,2.4   C400,187.8,399.6,188.1,399.2,188.4z" />
	<path fill="#040303" d="M448.2,358.7c-0.2-1.7-0.4-3.4-0.7-5.3c-20.4-25.1-44.1-48.4-54.2-80c-8.3-17.4-22-31.3-28.1-49.8   c-3.5,0.2-8.2,1.5-11-0.5c3.1-1.9,7.7,0.8,10-2.5c-3.4-9.1-4.2-19.1-7.7-28.1c-12.3,5.2-29.1-0.3-32.6-14c0.2-0.9-0.4-2,0.9-2.5   c4.1,13.2,20.2,21.1,32.7,14.3c6.4,16.5,8.9,35.2,18.9,50.6c6.9,10.1,12.7,20.8,19.5,30.6c6.3,33.4,37.7,54.5,53.9,82.2   C447.8,355.1,450.1,357.7,448.2,358.7z" />
	<path fill="#070505" d="M399.2,188.4c0.4-0.3,0.7-0.6,1.1-0.8c14.1,8.3,24.9,21,39.9,27.9c15.9,8.8,35.3,15.2,47,29.6   c4.7,14.5,14.5,0.9,23.1,2.2c1.8,1.4,3.9,2.4,6.3,2.5c0.3,0.6,0.6,0.7,0.9,0l0,0c0.3,0,0.5-0.1,0.8-0.1c-1.2,3.8-0.9,7.7-1.4,11.8   c0.2,0.1,0.6,0.4,1.1,0.7c2.3-6,4.1-11.7,1-17.2c0.3-0.3,0.5-0.6,0.8-0.9c5.1,5.3-2.5,15.1,5.6,14.3c0,1.6-1,1.6-2.4,2   c0.5,2.9-0.8,5.3-2.2,7.7c-0.4-0.3-0.7-0.7-1.1-1c0-0.3,0.1-0.5,0.1-0.7c1.3-0.8,0.4-2.7,0.9-3.9c1-0.8,0.7-1.8,0.4-2.9   c-2,0.6-0.8,3-2.1,4.4c-4,0.4-3.3-6.3-5.6-9.1c0.4-1,0.8-2.1,1.2-3.1c-1.6-1-3.1-2-4.7-3c-8.4,3.9-18.9,4.3-25.4,12.1   c1,0.6,1.7,1.1,2.5,1.6c0,0.4,0,0.7,0,1.2c-14-6.8-2.4,28.1-2.8,34.4c1.9,1.7,3.8,1.8,5.9,1.7c0.7-0.7,1.5-1.4,2.2-2.1   c1.2,0.5,1.6-0.1,2.8-0.2c0.5,1.2,1.8-0.5,2.7-0.6c-0.8,1.4-2.5,2.2-2.7,3.9c-0.9,0.3-0.8,1.1-0.9,1.8c-0.4-0.6-0.9-1.2-1.4-1.9   c-3,4,3,10,0,14.4c-0.3-4.5-2.5-8.4-1.8-13c-12.3,1.9-8.9-12.5-11.4-20.6c-0.1,0-0.2,0-0.3,0c0.2,3-1.1,5.5-1,8.5   c-1.7-6.9,0.3-13.9-0.3-20.8c-1.4-8,6.4-11.8,11.6-16.1c-8-15.9-25-22.4-40.1-30.2C430.5,214.4,415.7,200.4,399.2,188.4z    M515.8,253.4c-0.7,0.9-0.7,0.8-0.1,1.4C515.7,254.5,515.7,254.2,515.8,253.4z" />
	<path fill="#070404" d="M388.4,134.8c8.6,13.5,20.3,24.8,32.7,34.8c10.1,5.3,20.6,10,27.6,19.5c13.2,16.8,28.8,31.6,46.5,43.5   c6.3,3.1,14.1-0.9,20.6,1c-0.3,0.3-0.6,0.6-0.9,0.8c-8.8,1.1-19.2,2.8-26.3-3.8c-14.8-11.2-29.2-23-40.1-38.2   c-8.3-13.5-24.8-17.2-36.2-27.2c-9.3-8.7-19.8-17.6-24.9-29.5C387.8,135.5,388.1,135.2,388.4,134.8z" />
	<path fill="#050504" d="M311.2,425.1c-0.2-0.9,0.3-2.1-0.9-2.6c-4.3-25.7-3.1-51.7-6.3-77.7c-1.2-14-11.7-28.5-10.4-41.8   c11.2,25.5,17.2,52.6,15,80.6C306.1,397.7,314.7,411.4,311.2,425.1z" />
	<path fill="#110D0C" d="M293.6,303c-0.9,0.3-0.8,1.2-0.9,1.8c-0.6-1.1-1.3-2.2-1.9-3.1c-5.8,0.7-11.7,1.1-17.3-0.2   c0.7-0.2,1.5-0.1,1.8-1c5.1-0.5,10.3,0.8,15.1-1.3c-6.9-14.6,32-43.5,43-53c15.6-9.2,11.9-16.9,20.8-23c1.7,1.8,5.2,0.5,7.5,1   c-2.6,0.3-5.2,0.6-8.1,0.9c-6.9,18.3-25.8,24.8-37.7,39C306.8,275.3,285.2,284.8,293.6,303z" />
	<path fill="#080707" d="M324.6,594.5c-9.6,5.4-21,6.6-31.8,4.4c-5.6-1.1-9.8-6.4-15.9-5c-9.1,0.8-19.4,2.3-27.3-3.3   c0.4-1.1,2-1,2.9-0.7c6.8,3.3,14.7,0.8,21.9,1c20.8,0.7,15.6,12.9,48.5,2.9C323.5,594,324.1,594.3,324.6,594.5z" />
	<path fill="#141212" d="M538.2,499c40.7-2.5,83.5-0.2,124.9-0.8c0.1,0.9,0.1,1.7,0.2,2.4c-0.4-0.6-0.9-1.2-1.4-1.9   c-1.1,0.1-2.1,0.1-3.6,0.2c1.3,3.7,1.8,7.4,4.4,10.5c0.9-0.7,1.6-1.2,2.3-1.7c1.3,0.8,0.6,2.1,0.7,3.2c-1.6,0-3.1,0-4.6,0   c-2.9-3.6-3.4-8-4.8-11.9c-3.4-0.6-99.4-0.8-111.2-0.3c-0.4,0.9-0.8,1.8-1.3,2.7C543.7,498.6,540.4,498.7,538.2,499z" />
	<path fill="#100D0C" d="M451.3,325.3c1-0.3,0.9-1.2,1-1.9c6,9.5,11.4,20,20.1,27.3c8.9,6.1,11.5,16.9,11,27.1c-0.3,0-0.6,0-0.9,0   C481.3,350.9,461.2,350,451.3,325.3z" />
	<path fill="#2D2320" d="M440.1,121.3c0.1,5.4-0.6,12.9-8,9.8c-0.9,5.4-3.9,5.9-7.1,9.1c-4.5,1.6-6.4-3.2-9.5,2   c-0.3-0.3-0.6-0.6-0.8-1c0.9-2,2.7-3.1,4.5-3.8c0.5-1.2-0.4-2.6,1-3.4c0.1,1.3,0.1,2.6,0.2,3.9c1,0.5,1.9,1,3,1.6   c0.8-1.1,1.4-1.4,1.5-2.7c-1.2-1.1-2.5-2.4-3.8-3.6c-0.1-1.4-1.6-2.3-1.2-4.1c1.7,0,2.4,1.4,3.5,2.4c-0.2,0.5-0.4,0.9-0.6,1.4   c2,2.3,5,5.3,6.7,1.2c-1.4-0.5-2.8-0.9-4.7-1.5c2.3-0.2,2.9-0.3,4.7-0.3c0.5-1,1.3-2.1,2.2-2.8c-0.4-0.6-0.7-1.1-1.1-1.7   c0.6-0.4,1-0.6,1.4-0.9c1.6,0.7,2.4,2,3.1,3.1c4.9-0.1,2.1-6.9,4-9.7C439.5,120.6,439.8,121,440.1,121.3z" />
	<path fill="#15110F" d="M260.9,429.7c0.3,0,0.7,0.1,1,0.1c-4.7,16.8-11.9,33.1-9.9,50.9c-2.5-4.8,1-12.7-1.5-17.5   C252.7,451.9,256.6,440.1,260.9,429.7z" />
	<path fill="#181312" d="M414.8,141.2c0.3,0.3,0.6,0.6,0.8,1c-6.9,6.7-12.4-6.8-16.1-11.2c-3.4-4.8-8.1,0.6-11.7,2.2   c0.3,0.7,0.5,1.2,0.6,1.6c-0.3,0.3-0.6,0.7-0.9,1c-0.5-0.3-1-0.7-1.6-1.1c-1.3,0.9-2.5,1.8-3.7,2.7c-0.4-0.4-0.7-0.7-1.1-1.1   c4.3-4.7,9.6-7.6,15.8-9.4C403.9,129.8,406,145,414.8,141.2z" />
	<path fill="#1E1917" d="M482.5,377.9c0.5,0,1-0.1,1.5,0c2.5,5.8-0.9,9.1-6.9,7.5c-2.1,2-5.5,2.9-8.2,1.4c1.4-0.6,1.5-1.9,1.5-3.2   c0.2-0.3,0.5-0.6,0.7-0.8c0.1,1,0.1,2.1,0.6,3c5.1-0.1,2.2-9.2,3.6-12.5c1.2-1.1,0.2-2.5,0.2-3.9c1.6,0.3,1,1.6,1.5,2.3   c-0.3,1.5-0.6,3.1-0.9,4.9c1.1,2.4,1.2,5.7,3.8,7.7C484,383.4,483.3,380.7,482.5,377.9z" />
	<path fill="#1B1615" d="M324.6,594.5c-0.5-0.3-1.1-0.5-1.6-0.8c5.6-3.4,13.8-5.1,15.1-12.4c-1-2.7-1.2-5.7-2.7-8.4   c-2.1,0.1-4.2,0-6.2-0.5c2.4-0.2,5.1,0.3,7.3-0.8C344.9,583.3,336.2,591.1,324.6,594.5z" />
	<path fill="#201C1A" d="M440.1,121.3c-0.3-0.3-0.6-0.7-0.8-1c-0.6-4.3,4.7-4.9,6.5-7.8c0-0.2,0-0.4,0-0.5c0.5,0.1,1,0.3,1.6,0.5   c6.4-6.5,10.9-14.4,10.3-23.8c0.5,0.8,1,1.6,1.5,2.4c0,11.1-7.2,19.1-14.7,26C441.7,115.8,441,119.3,440.1,121.3z" />
	<path fill="#161110" d="M514.9,234.6c1.6-2.6,6.4,4.8,9.1,5.7c0.1,3.9-0.3,7.6,0.6,10.9c-0.2,0-0.4,0-0.7,0c-2.1-4-1.9-7.6-5-11.5   c0.4,2,0.7,3.2,1,4.3c-0.3,0.3-0.5,0.6-0.8,0.9c-0.2-0.1-0.4-0.1-0.7-0.2c-0.8-2.6-1.3-5.3-2.9-7.5c-0.9-0.3-1.6-0.5-2.6-0.7   c1.2-0.6,2.2-0.2,3.2-0.7C515.7,235.2,515.3,234.9,514.9,234.6z" />
	<path fill="#181715" d="M251.4,589.7c-0.7,0.1-1.5,0-1.7,0.9c-1.7-1.1-3.9-1.6-4.5-3.9c4.5-7,2.4-15.8,6.1-23.3   c0.3,0.8-0.4,2,0.8,2.5c-1.7,6.9-0.9,14.6-4.6,20.9C248.4,588.8,250.3,588.7,251.4,589.7z" />
	<path fill="#25201F" d="M273.8,209.2c-0.3-0.3-0.7-0.7-1-1c5-8.2,10.3-16,14.4-24.7c0.1,0.7,0,1.5,0.9,1.7   C283.6,193.3,279.9,202,273.8,209.2z" />
	<path fill="#151312" d="M448.2,358.7c1.9-1.1-0.3-3.6,1.5-4.8c-1.1,9.4,3.7,16.9,6.6,25.3c-0.3,0.3-0.6,0.6-0.8,1   C451.2,373.6,447.8,366.8,448.2,358.7z" />
	<path fill="#191918" d="M455.4,380.3c0.3-0.3,0.6-0.6,0.8-1c1.8,2.5-0.4,5.9,2.3,8.1c0.6,0,1.3-0.1,2.1-0.2   c-0.2-3.1,0.9-5.8,4.2-6.2c1.1,1.7,1,3.9,0.8,5.8c-0.3-0.3-0.5-0.6-0.8-1c0-0.9,0.6-2-0.9-2.4l0,0c-0.1-0.2-0.2-0.4-0.3-0.6   C461.9,394.9,454.6,389.2,455.4,380.3z" />
	<path fill="#211E1C" d="M339.6,542.9c0.3-0.3,0.6-0.5,0.9-0.8c4.5,6.6,3.4,14.5-4.7,16.5c-0.3-0.3-0.6-0.5-0.9-0.8   C341.9,555,342.4,549.3,339.6,542.9z" />
	<path fill="#362D29" d="M465.6,386.9c0.1-0.4,0.1-0.8,0.2-1.2c1.4,1.3,3.4,0.8,4.9,1.8C468.8,388.5,467.1,388.6,465.6,386.9z" />
	<path fill="#090807" d="M523.9,251.2c0.2,0,0.4,0,0.7,0l0.1-0.1c-0.3,2.6,0.2,4.8,0.7,7.2c-0.3,0-0.6,0-0.9,0   C523.8,256,523.8,253.6,523.9,251.2z" />
	<path fill="#5A6666" d="M357.3,72.6c1.3-0.9,2.6-2.1,4.6-1.3c-1.4,0.8-2.6,1.5-3.8,2.1C357.8,73.2,357.5,72.9,357.3,72.6z" />
	<path fill="#939E9E" d="M367.8,95.1c0.2-1.5,0.2-1.5,1.5-2.5c0,1.4,0,2.7,0,4C368.8,96.1,368.3,95.6,367.8,95.1z" />
	<path fill="#7F655B" d="M525.3,256.8c-1.3-1.5-0.4-3.8-0.6-5.7C525.7,252.9,525.6,254.9,525.3,256.8z" />
	<path fill="#282B2B" d="M454.5,71.1c-1.1-1-1.8-2.1-1.4-3.7C455,68.1,454.6,69.8,454.5,71.1z" />
	<path fill="#9EC0C0" d="M401.2,8.1c0.7,0.1,1.5,0.1,2.6,0.2c-1.3,0.8-2.2,1.4-3.4,1.3C400.7,9.1,400.9,8.6,401.2,8.1z" />
	<path fill="#201C1A" d="M459.3,87c-1.3-0.9-0.7-2.2-0.6-3.4C458.8,84.8,459.1,85.9,459.3,87z" />
	<path fill="#4D5B5B" d="M374.8,28.1c-0.8,0-1.6,0-2.4,0c-0.1-0.5-0.1-1-0.2-1.5C373.4,26.7,374.3,27,374.8,28.1L374.8,28.1z" />
	<path fill="#362D29" d="M464,383.5c1.4,0.4,0.8,1.5,0.9,2.4C464.6,385.1,464.3,384.3,464,383.5z" />
	<path fill="#936F61" d="M484,377.9c-0.2,0-0.4-0.1-0.6-0.1c0-0.8,0-1.6,0-2.4C484.2,376.1,484.1,377,484,377.9z" />
	<path fill="#7F655B" d="M524.5,249.6c-0.8-0.4-0.8-1-0.5-1.7C524.2,248.5,524.3,249.1,524.5,249.6z" />
	<path fill="#D69479" d="M260.9,429.7c-0.3,0.3-0.5,0.5-0.8,0.8c-0.2-0.6-0.1-1.2,0.6-1.5C260.9,429.1,260.9,429.4,260.9,429.7z" />
	<path fill="#1C1818" d="M682.3,418.5c-0.7-0.3-0.8-0.9-0.7-1.6C681.9,417.5,682.1,418,682.3,418.5z" />
	<path fill="#1C1818" d="M681.7,416.9c-0.9-0.3-0.8-1-0.7-1.7C681.2,415.8,681.4,416.3,681.7,416.9z" />
	<path fill="#1C1818" d="M680,412.9c-0.8-0.3-0.8-1-0.7-1.7C679.6,411.8,679.8,412.4,680,412.9z" />
	<path fill="#1C1818" d="M679.3,411.3c-1-0.3-0.9-1-0.8-1.8C678.8,410.1,679.1,410.7,679.3,411.3z" />
	<path fill="#1C1818" d="M683.2,420.9c-0.8-0.3-0.8-1-0.7-1.8C682.8,419.7,683,420.3,683.2,420.9z" />
	<path fill="#070505" d="M519.9,269.5c0-0.7,0-1.4,1-1.5C520.5,268.5,520.2,269,519.9,269.5z" />
	<path fill="#1C1818" d="M684.1,423.3c-0.3,0-0.5,0-0.8,0c0,0,0,0,0,0c0-0.6,0.1-1.2,0.1-1.8C683.6,422.1,683.8,422.7,684.1,423.3z" />
	<path fill="#1C1818" d="M680.7,414.5c-0.2-0.4-0.4-0.7-0.5-1.1C680.4,413.8,680.6,414.2,680.7,414.5z" />
	<path fill="#362D29" d="M463.4,383.5c0.1-0.2,0.2-0.4,0.3-0.6c0.1,0.2,0.2,0.4,0.3,0.6C463.8,383.6,463.5,383.6,463.4,383.5z" />
	<path fill="#B28C7D" d="M518.3,236c-0.2-0.3-0.5-0.6-0.7-0.8C517.9,235.4,518.1,235.7,518.3,236z" />
	<path fill="#B28C7D" d="M517.3,234.6c-0.2-0.3-0.5-0.6-0.7-0.8C516.8,234.1,517,234.3,517.3,234.6z" />
	<path fill="#B28C7D" d="M519.2,236.6c-0.3-0.2-0.6-0.4-0.9-0.6C518.6,236.2,518.9,236.4,519.2,236.6z" />
	<path fill="#B28C7D" d="M445.8,112.4c-1.9,2.9-7.2,3.6-6.5,7.8c-1.9,2.8,0.9,9.6-4,9.7c-0.7-1.1-1.5-2.4-3.1-3.1   c-0.4,0.3-0.8,0.5-1.4,0.9c0.4,0.6,0.7,1.1,1.1,1.7c-0.9,0.8-1.7,1.9-2.2,2.8c-2.2-0.1-3.8-1.1-6.1-0.7c-1.1-1.1-1.8-2.4-3.5-2.4   c-0.4,1.8,1.2,2.7,1.2,4.1c-1.8,1-1.8,2.4-2,4.2c-1.8,0.7-3.6,1.8-4.5,3.8c-1,0.4-2,1.2-3.3,0.8c-2.7-8.5-7.4-16.5-8-25.5   c0-1.2-0.5-2-1.7-2.3l0,0c-0.2-3.7,2.9-6.6,2.5-10.4c0.7-0.7,1.5-1.4,1.4-2.8c-1.1-0.1-1.8,0.1-3,0.4c-1.9-4-1.8-8.4,0.5-11.9   c0.6,2-0.6,5,1,6.3c4.6,2.2,4.6,3.1,5.8-2.7c1.2-0.8,2.4-1.5,3.8-2.4c0-2,0-4,0-6c0.2,0,0.5,0,0.7,0c0.7,1.3,1.5,2.6,2.3,4.1   c-0.1,0.2-0.2,0.7-0.3,1.1c1.4,0.9,1-1.3,2.6-0.7c2.5-0.3,4.3-2.2,7.3-1.5c1.3,0,2.5,0.4,3.6-0.9c0.8-0.9,3.3,0.2,3.7-1.3l-0.1,0.1   c7.8-5.3,18.1-5.3,24,3.1c0.6,9.4-4,17.3-10.3,23.8c-1.8-1-4.5,0-5.5-2.1c0.8-0.7,1.2-1.6,0.9-2.9c-1.9-1.2-4.2-1.5-6.5-2   c-0.6,0.3-1.2,0.5-1.8,0.8c-0.8-0.2-1.2-1.3-2.4-1.2c0.8,1.6,0.5,3.9,2.4,4.2c-0.6,3.1,2.1,4.7-2.7,4.7c0.9,0.8,1.6,1.4,2.3,2   C437.7,113.5,441.7,112.2,445.8,112.4z M436.7,100.4c7.7,1.3,6.2,4.4,10.3,8.5C451,104.7,441.4,97.2,436.7,100.4z M432.6,123.5   c-4.1-1.5-6.2,3.7-2.9,4.9c-0.2-1.1-0.3-1.9-0.5-2.9C430.2,125,431.1,124.4,432.6,123.5z" />
	<path fill="#E6CCBB" d="M273.8,209.2c13.6-19.7,23.6-41.9,37.5-61.5c4.6-15,25.3-49.1,43.4-44.3c-2.1,0.3-3.9,0.7-4.5,2.8   c-3.8,1.9-8.4,8.2-3.1,11.1c-17.9,4.9-28.2,24.6-35.2,40.5c-2.4,10.3-1.3,22.9-7,31.9c-3.3-3.6-3.6-7.6-5.5-11.9   c-5.8,11.3-13.7,20.4-19.8,31.3c-2.6,4.9-2.5,11.5-6,15.6c-0.6-0.4-1.1-0.9-1.8-1.3c-21,15.6-44.1,27.3-52.5,54.3   c-2.8-1.9-4.8-4.5-6.8-7.4C223.5,238.4,257.7,235.5,273.8,209.2z" />
	<path fill="#B28C7D" d="M388.4,98.2c3.2,0.6,4.9-1.2,7.9-2.3c-0.2,3.8,2.1,6.4,3.7,9c-5.3,12.5-8.6,21.3-21.3,27.6   c-11.2-22.6-24.4-11.7-32.5-19.2c0.8-2.9,2.9-4.5,4.7-6.4c7.7-2,15.8-2.9,22.3-8c2.7,0,5.4,0,8.1,0l0,0c0.3,0.3,0.6,0.5,0.9,0.8   c1.4,0.2,2.8,0.7,3.9-0.7C386.8,98.7,387.6,98.4,388.4,98.2z" />
	<path fill="#977264" d="M378.6,132.6c12.7-6.3,16-15.1,21.3-27.6c-1.6-2.6-3.9-5.2-3.7-9c-2.3,0.3-3.5,2.6-5.6,2.2   c2.4-2.3,3.9-4,5.8-7c0.6-0.2,1.7-0.4,3.1-0.8c0.9,4.1-1.5,10.6,3,12.8c-0.4,2.6-2.2,5-3.1,7.2c1.5,3,0.2,6.4,2.3,8.9   c0.5-1.5,0.1-3.4,0.2-5c1.2,0.3,1.7,1.2,1.7,2.3c0.6,9,5.2,17.1,8,25.5c-6.7-2.5-8.2-11.8-14.7-15.2c-6.5,1.9-12.1,5.1-16.5,10.2   C379.3,135.8,379,134.1,378.6,132.6z" />
	<path fill="#9491A0" d="M434.6,68c1.5-2.7,4.8-2.2,7.2-4.8c0.8,0.2,2.1,0.5,3.4,0.8c0.6-0.6,1.2-1.1,1.8-1.6   c5.2,3.5,6,11.4,8.9,16.6c-3.8,1.9-10.2,0.3-14.9,0.9C437.3,78.4,436.5,71.6,434.6,68z" />
	<path fill="#908993" d="M434.6,68c1.8,3.6,2.7,10.4,6.5,11.9c-8.1,2.1-16.1,3.5-24.4,5.4c-1.2-2.2-2.3-4.4-3.5-6.7   c1.6-1.2,3.1-2.3,4.7-3.5l-0.1-0.1c0.1,1-0.3,2.1,0.9,3.1c4.4-1.8,6.5-6.8,11-8.8c0.4,0.2,0.8,0.5,1.3,0.8   C432.2,69.5,433.4,68.8,434.6,68z" />
	<path fill="#0E0B0A" d="M378.6,132.6c0.4,1.6,0.6,3.2,1.7,4.5c-1.6,1.9,0.5,5.4-1.7,6.4c1.7-17.3-16.6-26.4-31.6-26.3   c-5.3-2.9-0.7-9.1,3.1-11.1c0.2,0.2,0.5,0.5,0.7,0.7c-1.8,1.9-4,3.5-4.7,6.4C354.2,120.8,367.5,110,378.6,132.6z" />
	<path fill="#947164" d="M319,123.7c4.1-10.5,13.2-20,24.7-20.5c-9.4,6.5-17.8,13.6-24.5,23C319.1,125,319.1,124.3,319,123.7z" />
	<path fill="#251E1B" d="M319,123.7c0.1,0.6,0.1,1.3,0.2,2.4c6.7-9.4,15.1-16.4,24.5-23c-1.1-0.1-1.7-0.2-2.4-0.2   c1.5-1.7,2.8-0.4,4.2,0.2c-9.5,7.2-18.6,15-25.6,24.6c-0.5-0.2-1-0.4-1.6-0.7C318.4,126,317.6,124.6,319,123.7z" />
	<path fill="#83675C" d="M411.6,82.1c0.2,0.1,0.4,0.1,0.6,0.2c-0.3,2.8,1.1,6-0.4,8.5c-1.7,0.5-3.3,1-4.8,1.4   c-1.2,1.9,1.7,2.4,0.3,3.7c-0.7-0.5-1.5-1-2.3-1.5c0-2.3-0.2-4.7,0.3-6.9c1.3-0.5,1.9,1,3,0.7c0-0.6-0.1-1-0.1-1.4   c-0.8-0.4-1.6-0.8-2.3-1.3c0.1-0.5,0.2-1,0.3-1.6C408.2,83.7,410.8,84.4,411.6,82.1z M410.3,89.3c0.8-0.8,1.6-1.4,0.7-2.7   C410.1,87.2,409.5,87.9,410.3,89.3z" />
	<path fill="#221816" d="M405.1,89.5c0,1.6,0,3.2,0,4.8c0.8,0.5,1.6,1,2.3,1.5c1.4-1.3-1.5-1.8-0.3-3.7c1.5-0.4,3.1-0.9,4.8-1.4   c1.5-2.5,0.1-5.7,0.4-8.5c0.3,0,0.7,0.1,1,0.1c0,0.6-0.1,1.2,0.7,1.5c0,0,0-0.1,0-0.1c0.1,2.3,0,4.5,0,6.8   c-1.4,0.9-2.6,1.6-3.8,2.4c-1.2,5.8-1.3,4.9-5.8,2.7c-0.2-0.8-0.9-1.5-0.7-2.4C405.2,92.5,403.4,90.3,405.1,89.5z" />
	<path fill="#997C6F" d="M411.6,82.1c-0.8,2.4-3.4,1.7-5.4,1.8c-0.1,0.7-0.2,1.1-0.3,1.6c-3.2,0.8-2,4.3-4,6.3c-0.2-3.5-0.2-8,4.1-9   C407.7,82.1,409.9,80.1,411.6,82.1z" />
	<path fill="#211916" d="M401.9,114.2c-0.1,1.6,0.3,3.5-0.2,5c-2.1-2.5-0.8-5.9-2.3-8.9c1-2.3,2.8-4.6,3.1-7.2   c0.6,0.2,1.2,0.5,1.8,0.7c0,0.3,0,0.5,0,0.8C402.5,107.1,400,111.2,401.9,114.2L401.9,114.2z" />
	<path fill="#937466" d="M381.3,98.9c-2.7,0-5.4,0-8.1,0c1-0.8,1.9-1.6,2.9-2.4c1.4,0,2.7,0,4.2,0C380.6,97.4,381,98.1,381.3,98.9z" />
	<path fill="#654F46" d="M388.4,98.2c-0.8,0.3-1.6,0.6-2.4,0.8c0.7-2.2,1.1-9.1,4.5-7.6C389.1,93.4,386.5,95.7,388.4,98.2z" />
	<path fill="#272B2B" d="M366.9,56.7c0.6,0.2,0.9,0.3,1.3,0.4c0.1,1-2.3,2.8-4.6,3.3C364.8,59.1,365.7,58,366.9,56.7z" />
	<path fill="#202222" d="M450.5,34.6c0.8-1.2,0.6-2.4,2.2-2.1C452.8,33.6,452.3,34.2,450.5,34.6z" />
	<path fill="#614B43" d="M396.9,88.1c-0.4,1.3-1.3,1.5-2.4,1.1C395.2,87.8,395.2,87.8,396.9,88.1z" />
	<path fill="#505056" d="M417.9,75.1c0-0.8-0.5-1.8,0.7-2.3C419.9,74.4,419.8,74.5,417.9,75.1L417.9,75.1z" />
	<path fill="#242626" d="M458.4,61.9c-0.8,0.2-1.5,0.8-1.8-0.4C457.6,61.3,458.1,60.4,458.4,61.9z" />
	<path fill="#222727" d="M375.9,75.2c0.5-0.3,0.9-0.6,1.9-1.2c-0.4,1.5-0.5,1.5-1.6,1.9C376.1,75.6,376,75.4,375.9,75.2z" />
	<path fill="#7B8989" d="M432,6.6c-0.5-0.5-0.8-0.9-1.3-1.3C432.1,4.9,432.3,5.3,432,6.6z" />
	<path fill="#4D5B5B" d="M374.8,28.1c0.7,0.1,1.4,0.1,2.5,0.2C376.1,29.3,375.4,29.1,374.8,28.1L374.8,28.1z" />
	<path fill="#535C5C" d="M394.8,16.4c0.4-0.3,0.8-0.5,1.2-0.7C396.5,16.6,395.7,17.3,394.8,16.4z" />
	<path fill="#83675C" d="M413.9,83.9c-0.8-0.2-0.7-0.9-0.7-1.5C413.5,82.9,413.7,83.4,413.9,83.9z" />
	<path fill="#393939" d="M361.7,78.7c-0.3-0.3-0.4-0.6,0-0.9C362.1,78.1,361.8,78.4,361.7,78.7z" />
	<path fill="#201C1A" d="M457.7,88.6c-0.2-0.3-0.5-0.5-0.7-0.8C457.3,88.1,457.5,88.3,457.7,88.6z" />
	<path fill="#B28C7D" d="M433.8,85.4c-0.1-0.1-0.2-0.2-0.4-0.4C433.7,85.1,433.8,85.3,433.8,85.4L433.8,85.4z" />
	<path fill="#83675C" d="M413.9,84.7c0-0.3,0-0.6,0-0.9c0.2,0.3,0.5,0.6,0.7,0.9C414.5,84.7,414.1,84.7,413.9,84.7z" />
	<path fill="#A5ABAB" d="M473.3,48c0.4,0.2,0.1,0.4,0,0.7C472.9,48.5,473.2,48.3,473.3,48z" />
	<path fill="#937466" d="M382.2,99.7c-0.3-0.3-0.6-0.5-0.9-0.8C381.6,99.2,381.9,99.4,382.2,99.7z" />
	<path fill="#A39893" d="M678.4,413.1c1.6,3.9,3.2,7.9,4.8,11.9c-0.3,0.8-0.5,1.5-0.8,2.3c-1.4,0.4-1.4-1.4-2.4-1.6   c-1.1-0.8-2.4-1-3.8-0.7c-1.6,1.8-2.7,1.8-2.8-0.9c-46-1.1-94.6,1.9-139.3-1c5.1-12.8,9.6-36.4,24.2-40.5c28.4-0.1,56.8,0,85.2-0.1   C673.6,380.1,665.5,391.3,678.4,413.1z" />
	<path fill="#8F8580" d="M482.4,298.2c2.2,4.7,5,3.1,8.7,3.6c0.9,12.3,3.8,24.7,7.2,36.3c0.1-3.4-0.3-5.7-0.7-8.9   c1.6,2.1,1.4,5.5,2.3,8.1c-0.8,0.5-0.8,1.2-0.2,2.2c0.2-0.7,0.2-1.1,0.3-1.5c0.8,0.6,0.8,1.5,0.8,2.4c-1.5,1-0.7,7.3,0,8.8   c-1.9,0.4,3,9.3,2.6,11.9c0.7,0.4,1.1,0.7,1.5,0.9c0.3,6.5,2.7,13,5.3,18.9c0.1-0.7,0.2-1.1,0.3-1.5c0.9-0.3,0.7-1.1,0.9-1.7   c1.3,3.5,2.6,7,3.9,10.5c-1.9,1.1,0.3,3.4,0.7,4.9c-0.3,0-0.7,0.1-1.4,0.1c0.9,1.3,0.8,3,2.3,3.8l0,0c2.3,9.1,7.2,18.3,11.9,26.3   c-0.8,1.4-1.1,2.8-0.6,4.4c0.5-0.7,0.9-1.3,1.3-2c-0.9,6.1-2,17.7,7.4,16c49,0.4,98.3-0.9,147.3,0.3c-0.2,1.8,0.5,3.6-0.7,5.3   c-0.1-0.5-0.3-1-0.5-1.7c-49.2,0.7-99.1-2.3-148.6,1.1c-0.8,0.8-1.7,1.8-2.6,2.8c0.5,16.9,2.7,36.5-0.3,52.1c0.4,0.5,0.8,1,1.2,1.5   c-0.4,0-0.8,0.1-1.2,0.1c-2.8,13.3-4.8,26.4-8.3,39.6l0,0c-2.3,3.7-4.1,8.4-4.8,12.8l0,0c-0.8,0.3-0.8,0.9-0.8,1.6   c-0.3,0.3-0.5,0.6-0.8,0.9c0,0.8-0.1,1.5-0.1,2.3l0,0c-0.6,1.1-2.8,3-0.8,3.9c-0.6,3.9-1,10-5.5,11.2c-6-2.9,0.5-11.8,1.1-16.5   c7.5-19.8,7.8-42.1,12.1-62.9c3.1-28.8-7.1-56.2-16.8-82.8c-11.2-37.2-21.4-75.3-25.3-114C481.8,298.8,482.1,298.5,482.4,298.2z" />
	<path fill="#8F8580" d="M673.7,425.7c0.7,1.5,1.8-0.2,2.5-0.7c0,0.4,0,0.8,0,1.1c1.1,0.5,2.9,1.2,3.8-0.4c1,0.2,1,2,2.4,1.6   c2.4,4.2,3.9,7.8,0.4,12.5c-50.1,0.3-100.3-0.7-150.4-0.5c-1.6-4-1.4-7.9-1-12c0.8-0.5,1.7-1.1,2.7-1.8c-0.5-0.3-0.9-0.6-1.4-0.9   c0.5-0.5,0.9-0.9,1.4-1.4c1,1.5,2.6,1.8,4.2,1.8C581.2,428.7,629.6,426.2,673.7,425.7z" />
	<path fill="#8F8580" d="M512.6,285.4c0.3-3.2-0.7-5.5,1.5-8.4c0.3,26.4,9.9,51.5,18.4,76.2c-1.7,1,0,3.2,0.1,4.7   c-0.5-0.1-0.9-0.3-1.7-0.5c0.6,1.9,0.3,5.3,2.3,5.6c0-0.7,0.1-1.3,0.1-1.9c0.6,1.1,1.4,4,1.5,5.7c-2.1,2.2,2,5.9,2.9,8.6   c0.2-0.8,0.3-1.2,0.4-1.6c0.9,1.2,1.1,2.6,1.5,4c-1.3,1.4-1.2,1.9,0.8,2.4l0,0c0.1,1.2,0.4,2.4,1.6,3.2c1,1.9,2.3,4.5,4.1,5.6   c-3.5,6.4-7,13.2-10.2,20.1c-4-28.9-40.9-107.5-25.6-127.7c3.3,0.8-0.2,12.1,3.8,14.2C514.1,291.9,513.1,288.7,512.6,285.4z    M527.3,346.6c1.4-1.7-1.2-5-3-5.8C525.8,342.8,525.8,345,527.3,346.6z M513.8,297.8c-0.8,0.8,0.3,5,1.5,4.9   C515.9,301,515.9,301,513.8,297.8z M516.2,312.4c2.4-0.4,1.2-2.1-0.3-3.1C516,310.7,516.1,311.5,516.2,312.4z" />
	<path fill="#A39893" d="M668.9,446.4c3.9-1.8,9.4-0.2,13.9-0.7c-7.7,35.5-3.9,60,2.9,95.2c0,8.7,14.1,33.1,4.9,35.7   c-5.3-4.7-5.6-12.6-9.1-18.7c0.4-0.3,0.7-0.6,1.2-1.1c-1.2-2.3-1.2-5.7-2.7-7.6c-0.4-1.1,0.8-2.5-0.9-3.1l0,0   c-0.1-1.8-0.6-0.9-1.6-1.8c-0.9-1.4-0.7-2.6,0.1-3.9c-1.7-8.3-4.5-16.3-5.5-24.6l0,0c0.7-0.2,0.7-0.5,0.1-0.9   c-1.2-5.8-2.6-11.5-2.5-17.4c-0.8-1.4-1.8-0.4-1.5,0.8l0,0c-0.7-0.1-1.4,0-1.7-0.9c1.8-3.5,3-6-0.8-8.9c-0.1-0.5-0.4-1.2-0.2-1.3   c3.5-3.1,1.1-8.8,1.8-13c1.2-5.2,0.8-10.4,0.7-15.6C669.2,454.6,670.7,450.5,668.9,446.4z" />
	<path fill="#030202" d="M668.9,446.4c0.3,0.8,0.5,1.6,0.8,2.3c-1.5-0.1-3-0.2-4.6-0.3c-1.8,13.5-0.6,26.7-1,40.2l0-0.1   c-30.6,0.6-61.2,0.1-91.8,0.2c-10.6,0.2-21.1,0-31.7,0c-4.5-0.2-4.8,2.2-4.8,6.2c-2.9-2.1-1-5.6,0.8-7.6c0-12.8,2.2-25.4-0.9-37.9   c-1.1,0.1-1.9,0.2-3,0.2c0,1.1,0,2,0,2.9c-0.2,0.3-0.5,0.5-0.7,0.8c-0.1-1.3-0.1-2.6-0.2-4c0.9-1,1.8-2,2.6-2.8   C579,444.3,624.2,444.7,668.9,446.4z M655.5,475c-0.2,4.2,0.1,8.3,2,12c1.5,0.4,2.8,0.6,4-0.1c-0.3-13.3,0.3-26.4,0.8-39.5   c-37.4,0.2-75-0.4-112.3,0c1.9,13.5,0.7,26.3-1.6,39.7c35.4,0.5,70.8,0.5,106.2-0.1c-1.5-12.7-4.3-25.6-1.7-38.2   c0.5-0.3,1.1-0.5,1.6-0.8C653.5,457,654,466.2,655.5,475z M543.7,453.4c-0.4,0.5-0.7,1-1.3,1.7c-0.6-3-0.7-4.9-0.6-8   c-1.1,0.5-2.2,0.9-3.3,1.4c2.5,12.7,1,25.5,0.9,38.5c2.2-0.3,4.5,0.8,6.4-0.4c2.9-12.9,3.4-26.5,1.4-39.3c-1.3,0-2.8-0.5-4.2,0.4   C543.3,449.8,543.5,451.6,543.7,453.4z" />
	<path fill="#A39893" d="M487.1,262.4c-0.8-0.5-1.5-1-2.5-1.6c4.3-6.1,12-7.2,18.3-8.9c8.1,1.2,8,9.2,13.1,13.7   c1.2-0.3,2.5-0.6,3.9-0.9c0,0.8,0,1.6-0.1,2.3c-8.7,9.6-17.6,19.4-24.6,30.3c-5.2,0.3-0.2-16.4-5.4-20.7c0.5-0.5,0.9-1.1,1.4-1.6   c-0.2-3.7,1-8-2.6-10.2c-0.2,0-0.4,0.1-0.5,0.1C487.9,264,488.5,262.8,487.1,262.4z" />
	<path fill="#8F8580" d="M535.8,495c0-0.3,0.1-0.6,0.1-0.8c0.8-0.5,1.5-1,2.3-1.6c42.3,0,84.5,0,126.5-0.6c0.1-0.4,0.2-0.8,0.3-1.2   c0.5,1,0.9,2.1,1.4,3.1c-0.6,0.9-1.2,1.8-1.7,2.5C622.1,495.2,577.1,499.6,535.8,495z" />
	<path fill="#877D79" d="M680.1,549.2c0.9,0.3,0.8,1.1,0.7,1.8c-1.8,1.1,1,3.2-0.3,4.5c-7.8-18.5-11.2-38.6-15.6-58.1   c0.5,0,1.1,0,1.6,0c0.3,0.9,1,0.8,1.7,0.9c0.7,9.2,4.1,17.4,5.4,26.3c-2.2,1.7,2.4,13.8,4,15.8c-1,1.4-1,4.4,1.2,4.4   c0.2,0.1,0.2,0.8,0.4,1.3c-0.1,0.1-0.2,0.2-0.1,0.1c-0.1,0.1,0,0,0.1-0.1c1.4,0.5,0.8,1.6,0.8,2.5c-0.2,0.3-0.4,0.6-0.6,0.9   c0.1,0.1,0.1,0.1,0.2,0.2C679.7,549.5,679.9,549.3,680.1,549.2z" />
	<path fill="#221E1D" d="M666.5,497.4c-42.6-0.7-86.3,1.4-128.3-0.7c42.1-0.1,84.3,0.1,126.4-0.2c0.5-0.8,1.1-1.6,1.7-2.5   c-0.8-1.8-1.6-3.6-2.2-5.4l0,0.1c0.5-0.1,1.1-0.1,1.6-0.2C669.5,491.3,668.3,493.9,666.5,497.4z" />
	<path fill="#9F9590" d="M500.7,349.2c-0.7-1.6-1.5-7.8,0-8.8c2.8,12.6,11.1,26.6,9.6,39c-3.5-5.5-1.9-14.6-7-18.4   C502.1,357.6,502.2,352.8,500.7,349.2z" />
	<path fill="#9E948F" d="M532.6,357.9c-0.1-1.5-1.7-3.7-0.1-4.7c4.9,11.5,8.7,23.2,15,34.1c-0.4,0.6-0.9,1.2-1.4,1.8   c-1.8-1.2-3.1-3.7-4.1-5.6c0.2-1.4-0.1-2.6-1.6-3.2l0,0C538.2,372.8,534.1,365.6,532.6,357.9z" />
	<path fill="#9C938E" d="M529.4,425.7c-0.4,0.6-0.9,1.3-1.3,2c-0.6-1.6-0.2-3,0.6-4.4c-2.2-9.3-7.8-17.8-11.9-26.3l0,0   c0.3-2.9-3.7-6.6-1.6-8.8c0.2,0.1,0.2,0.3,0.1,0.5c5.5,10.9,10.3,22,16.7,32.5C531,422.6,531.5,424.8,529.4,425.7z" />
	<path fill="#9C918D" d="M532.6,503.1c-0.4-0.5-0.8-1-1.2-1.5c2.1-1.7,0.4-4.9,2.8-6.5c0.5,0.7,1.1,1.5,1.7,2.4   c-0.9,8.3-3.2,16.5-5.7,24.6C528.2,516.6,532.2,509.1,532.6,503.1z" />
	<path fill="#9B908B" d="M538.2,499c1.6,0.1,3.5-0.8,4.6,0.7c-1.7,4-2.2,8.1-5,11.7c-0.7-0.6-1.3-1.1-2.2-1.8   C536.6,506.1,537.4,502.6,538.2,499z" />
	<path fill="#968D88" d="M527.2,536.5c-2.1,7.7-4.5,15.2-8.2,22.3c-1.3-0.5-0.7-2.1-0.7-3.2l0,0c2.9-3.8,3.8-8.3,4.8-12.8l0,0   c2.1-2.9,2.5-6.4,4-9.6l-0.1,0C527.1,534.3,527.2,535.4,527.2,536.5z" />
	<path fill="#9E938E" d="M665,507.7c-0.7,0.5-1.4,1.1-2.3,1.7c-2.6-3.1-3.1-6.7-4.4-10.5c1.5-0.1,2.5-0.2,3.6-0.2   C664.1,501.3,664,504.7,665,507.7z" />
	<path fill="#363231" d="M497.5,334.9c-2.1-7.2-5.3-15.7-3.8-23.2c0.2,0.3,0.5,0.6,0.7,0.9c-0.1,5.6-0.1,5.6,1.4,8.2   c0.1-0.4,0.2-0.8,0.3-1.1c0.9,0.7,0.7,1.6,0.6,2.6c-1.7,1.8-0.5,5.2,0.9,7.1l0-0.1c0.2,1.9,0.5,3.8,0.7,5.6   C498,334.8,497.8,334.9,497.5,334.9z" />
	<path fill="#504B49" d="M534.1,495.1c-1,0.8-1.4,1.8-1.5,3c-1-9.8,1.7-21.1,1-31.9C535.6,475.8,532.6,485.8,534.1,495.1z" />
	<path fill="#706A66" d="M482.4,298.2c-0.3,0.3-0.6,0.6-0.9,0.9c-2.2-5.6-2-12-2.2-17.9c0.1,0,0.2,0,0.3,0   C480.6,286.9,481.5,292.5,482.4,298.2z" />
	<path fill="#7C7470" d="M529.4,520.4c0.1,0.6,0,1.3,0.8,1.6c-0.8,3.7-1.6,7.5-2.3,11.2c-0.3,0-0.6,0-0.8,0l0.1,0   c-0.2-3,1.2-5.8,0.8-8.8C529.5,523.6,527.8,521.4,529.4,520.4z" />
	<path fill="#78716E" d="M494.4,312.5c-0.2-0.3-0.5-0.6-0.7-0.9c0.5-3.7-3.3-8.1-0.8-11.2c0.5,0.7,0.9,1.3,1.4,1.9   c-1.1,2.1,0,4.1,0.2,6.1c-0.1,0.9-0.4,1.9,0.6,2.5c0,0.5,0,1,0,1.5C494.8,312.5,494.6,312.5,494.4,312.5z" />
	<path fill="#3C3937" d="M512.6,285.4c0.5,3.3,1.5,6.5,1.6,10.2c-2.4-2.4-2.3-6.8-2.2-10.2C512.2,285.4,512.4,285.4,512.6,285.4z" />
	<path fill="#7A706D" d="M518.2,557.1c0.1,0.6,0,1.4,0.9,1.7c-1,2.2-2,4.4-3,6.6c-0.4-1.7,0.4-3.3,0.7-5l0,0   c1.1-1.1,1.1-1.1,0.1-2.3c0.3-0.3,0.5-0.6,0.8-0.9C517.8,557.1,518,557.1,518.2,557.1z" />
	<path fill="#817874" d="M494.4,312.5c0.2,0,0.4,0,0.6,0c0.2,2.7,1.5,5.5,0.8,8.2C494.3,318.2,494.3,318.2,494.4,312.5z" />
	<path fill="#8F8580" d="M497.6,329.3c-1.4-1.9-2.6-5.3-0.9-7.1C497,324.5,497.3,326.9,497.6,329.3z" />
	<path fill="#2D2928" d="M527,533.2c0.3,0,0.6,0,0.8,0c-0.2,1.1,0.5,2.3-0.6,3.2C527.2,535.4,527.1,534.3,527,533.2z" />
	<path fill="#363231" d="M495.1,311c-0.9-0.7-0.7-1.6-0.6-2.5C495.4,309.2,495.2,310.1,495.1,311z" />
	<path fill="#9F9590" d="M500,338c-0.1,0.4-0.2,0.8-0.3,1.5c-0.6-1.1-0.6-1.7,0.2-2.2C500,337.5,500,337.7,500,338z" />
	<path fill="#1C1818" d="M682.5,423.3c-0.2-0.5-0.5-1.1-0.7-1.6C682.5,422,682.5,422.6,682.5,423.3z" />
	<path fill="#1C1818" d="M681.6,421c-0.2-0.6-0.5-1.1-0.7-1.7C681.7,419.6,681.7,420.3,681.6,421z" />
	<path fill="#1C1818" d="M679.3,415.3c-0.2-0.5-0.5-1.1-0.7-1.6C679.3,414,679.3,414.7,679.3,415.3z" />
	<path fill="#1C1818" d="M680,417c-0.2-0.6-0.5-1.1-0.7-1.7C680.1,415.6,680.1,416.3,680,417z" />
	<path fill="#1C1818" d="M683.2,425c-0.2-0.6-0.5-1.1-0.7-1.7c0.3,0,0.5,0,0.8,0l0,0C683.2,423.9,683.2,424.4,683.2,425z" />
	<path fill="#1C1818" d="M678.4,413.1c-0.2-0.3-0.4-0.7-0.5-1C678,412.5,678.2,412.8,678.4,413.1z" />
	<path fill="#1C1818" d="M680.8,418.7c-0.2-0.3-0.4-0.7-0.5-1C680.4,418,680.6,418.4,680.8,418.7z" />
	<path fill="#8F8580" d="M515.8,389.8c-0.2-0.4-0.4-0.7-0.6-1.1C515.4,389.1,515.6,389.5,515.8,389.8z" />
	<path fill="#EAA388" d="M273.5,301.5c5.6,1.2,11.5,0.9,17.3,0.2c17.9,38,13.8,80.4,19.5,120.8c-3.5,12-8.5,23.4-7.9,36.2   c-0.5,19.4-9.1,37.4-8.9,56.9c-4.6,1.9-4.6,1.9-6.1,4.8c-0.8,0.2-1.5,0.2-2.3-0.1c2.7-14,6.9-28,7.9-42.4   c0.2-15.7,1.1-30.8,8.2-45.2c6.7-14,0.4-22.3,1.7-36c-0.6-31.5-5.9-64.1-20.3-91.8c1.1,17.6,11.5,33.7,12.8,51.7   c3.1,21.2,6.7,42.7,6.7,64c-2,8.9-4.2,17.8-8.2,26c-4.7,13.8-3.2,28.5-5.7,42.7c-2.4,17.1-7.1,33.8-5.8,51.2   c-3.4,1.2-7.5,0.7-7.8,5.5c-3.9,0.2-7.4,0.2-11.2,0c-2.7-3.2,3.5-28-0.2-29.9c-0.2,0.4-0.6,1.1-1.2,2.3c-2-29.4-10-59.6,5.6-86.4   c1.5-0.9-0.1-2.9,1.4-3.8c3.3,0.8,3.9,5.3,7.4,6.2c9.9-9.6-10.3-36.5-16.4-46.1c-6.1-10.4-9.8-22.8-13.3-34.3   c-2.3-28.4-36-41.8-25.5-71.7C236.2,292.8,255,300.5,273.5,301.5z M292.9,429.7c4.6-3.7,4.1-11.7-1.5-14.5   c-0.7,0.7-1.4,1.4-1.8,1.8C289.9,421.8,288.6,426.9,292.9,429.7z M288.3,453.6c2.2-2.2,1.7-5.6,1-8.6   C287.9,446.9,287.6,449.7,288.3,453.6z M269.1,460c-0.2,2.4-1.5,6.6,0.8,7.7C270.5,465.9,271.4,460.8,269.1,460z M287.4,441   c-0.5,2.4-0.5,2.4,1.3,2.8C288.8,442.6,289,441.5,287.4,441z M269.1,454.1c0.9-0.6,0.4-2.6-0.7-1.9   C267.6,452.9,268.1,454.2,269.1,454.1z M268.2,476.7c0.7-2.5,0.7-2.5-0.2-4.2C268.1,473.9,268.1,474.9,268.2,476.7z M267.3,483.1   c1-1.4,1-2.1,0-3.3C267.3,481,267.3,481.8,267.3,483.1z M286.5,439.8c0.7-0.7,1.1-1.4,0-2.1C286.5,438.5,286.5,439.2,286.5,439.8z    M266,487.1c-0.4,0.4-0.4,0.7-0.1,1.2C266.4,487.9,266.5,487.6,266,487.1z" />
	<path fill="#F7EFD0" d="M329.2,572.4c2.1,0.4,4.1,0.6,6.2,0.5c1.5,2.7,1.6,5.7,2.7,8.4c-0.7,1.6-0.7,3.4-2.2,4.5   c-16.2,5.5-31.4,12.8-48.4,4.1c-3.7-0.8-4.7-5.8-9.1-3.9c-8.8,1.1-17.3,1.8-26.1,1.1c-1.3-10.3,8.4-22.4,1.3-31.6   c0.1-1,0.1-2,0.2-3.4c4.6,1.8,5.3,8.1,9.7,10.5c9.2-0.3,11-11.2,14.5-18.4c2.4-0.8,5.7-1.8,8.5-2.7c1.4,3.9,1.6,7.9,3,11.8   c-2.1,2.8-14,8.8-8.5,12c3.4-3.4,6.6-6.7,9.9-10c1,0.2,1.7,0.3,2.4,0.5c-0.3,3.7-9.8,7.7-5.7,11.3c3.2-1.7,4.7-5.8,7.3-8.4   c1.3-0.1,1.7,0.3,2.8,1c-10.3,9.6-5.4,13.5,2.5,1.9c0.9,0.6,1.6,1.1,2.2,1.6c-0.7,2.3-3.3,3.4-4.9,5.4c0.5,0.7,0.8,1.2,1.2,1.8   c3-0.8,3.9-3.7,5.9-5.5c0.8,0.6,1.5,1.1,2.3,1.7c-0.7,1.2-1.3,2.3-1.9,3.4c0.4,0.5,0.7,0.9,1,1.3c2.1-0.2,2.5-2.3,4.3-3.3   C316.4,569.5,322.6,571.7,329.2,572.4z" />
	<path fill="#F7EFD0" d="M339.6,542.9c0.5,2.6,2,5.1,1.7,7.9c-13.1,5.7-28.8,7.5-42.9,6.3c-9.3-2-6.2-12.7-11-18   c-0.7,0.1-1.6,0.2-2.6,0.4c0-2.9,0-5.7,0-8.4c2.9-3.5,4.3-7.6,5.8-12.2c2.3-0.7,4.6-1.5,7.2-2.3c1.7,3.1,1.6,6.5,2.6,10   c-2.4,2.7-9.4,5.5-8,9.9c4.1-1.4,6-5.6,9.4-8.2c0.6,0.1,1.2,0.3,2.1,0.5c-2.2,2.9-4.9,4.9-6.3,8.2c0.4,0.4,0.8,0.8,1.3,1.4   c2.7-2.1,3.9-5.3,6.4-7.4c0.6,0.3,1.1,0.5,1.7,0.8c-0.8,2.6-3.9,4-4.8,6.7c2.9,3.6,5-3.2,7.3-4.7c0.8,0.6,1.4,1,2.1,1.5   c-1.5,1.6-2.9,3.1-4.4,4.6c0.5,0.5,0.7,0.8,1.1,1.2c2.4-0.7,3.1-3.1,4.9-4.6c0.6,0.4,1.1,0.8,1.8,1.2c-0.5,1-1,1.9-1.5,2.9   c0.2,0.4,0.5,0.8,0.8,1.2c1.8-0.1,2.2-1.9,3.6-2.7C325.1,540.6,332.2,543.3,339.6,542.9z" />
	<path fill="#D69479" d="M267.2,433.6c-16.5,25.8-6.7,56.2-5.4,84.8c0.7-1.2,1-1.9,1.2-2.3c3.8,1.9-2.4,26.6,0.2,29.9   c-1.3-0.3-2.5-0.5-3.9-0.9c-0.3-45.8-17-68.6,2.6-115.3c3.3-5.2,0.5-12.7-0.2-18.4c1.8,1.1,1.6,4,2.8,4.9c-0.2,2.3-0.4,4-0.5,5.5   c1,1.2,1.7,2.1,2.4,2.9c0.2,2.1-0.3,4.1,0.8,5.9c-0.5,0-1-0.1-1.6-0.1c-0.3-1.7,0.6-4.3-0.6-5.5c-1.5,0.8-1.3,4.9,0.6,5.4   c0,1.2,0,2.5,0,4.1C266.4,434.1,266.8,433.9,267.2,433.6z" />
	<path fill="#EADCB7" d="M253.6,555.5c7.1,9.2-2.6,21.3-1.3,31.6c8.8,0.7,17.3,0,26.1-1.1c4.4-1.9,5.4,3,9.1,3.9   c17,8.7,32.2,1.5,48.4-4.1c-12.6,10.6-34.7,16.2-49.5,7.2c-11.8-6.9-28.6,4.3-38.8-6.3C251.7,577.1,252.1,566,253.6,555.5z" />
	<path fill="#030202" d="M301.4,408.3c-1.6-33.7-8.6-66.7-18.4-98.9c0.3-0.6,0.6-1.1,0.9-1.7c14.7,31,19.8,65.4,18.4,99.6   C302,407.7,301.7,408,301.4,408.3z" />
	<path fill="#EADBB6" d="M298.4,557.1c14,1.1,29.7-0.6,42.9-6.3C340.1,561.7,304,564.6,298.4,557.1z" />
	<path fill="#B08B7C" d="M263.3,554.8c-0.8-1.9-1.4-3.3-0.8-5.5c3.5,0.3,6.8,0.6,10.2,0.8c0.4,2.1-1.3,3.5-1.5,5.3   C267.3,561,264.6,563.7,263.3,554.8z" />
	<path fill="#8A685C" d="M263.3,554.8c0.4,1.9,0.9,3.8,1.5,5.6c-3.5-0.3-4.3-4.3-6.3-6.6c0.1-1.9-0.1-4,0.2-6.3   c0.7,0.3,1.2,0.5,1.8,0.8C259.6,550.6,260.2,554.7,263.3,554.8z" />
	<path fill="#28211D" d="M267.2,560.3c1.8-1.2,2.4-3.4,3.9-4.9c0.4,0.4,0.8,0.7,1.2,1.1c-1.2,1.7-2.1,3.7-4.2,4.7   C267.8,560.9,267.5,560.6,267.2,560.3z" />
	<path fill="#987A6D" d="M286.4,523.6c0.1,2.1-0.6,3.4-1.8,4.7C284.1,524.5,284.1,524.5,286.4,523.6z" />
	<path fill="#F5DDCE" d="M347,117.3c15-0.1,33.3,9,31.6,26.3c-28.6-33.2-77.4,19.3-46.7,46.9c-1,1-2,2-3.1,3.1   c8.3,4.3,18.9,1.7,27.5-0.8c3.5,9,4.3,19,7.7,28.1c-8.9,5.4-10-3.8-17.4,12.3c-3.7,8-12.4,11.6-18.8,17.3   c-10.5,10.6-43.6,33.5-37.6,48.9c-20.8,5-54.3-8.9-71-21.6c8.4-27,31.5-38.8,52.5-54.3c0.6,0.5,1.2,0.9,1.8,1.3   c3.5-4.1,3.4-10.8,6-15.6c6.1-10.9,14-20,19.8-31.3c1.9,4.4,2.2,8.3,5.5,11.9c5.7-9,4.6-21.6,7-31.9   C318.8,141.9,329.1,122.2,347,117.3z M334.1,242.7c-3.2-2-6.2,0.2-9.1,1.6C326.8,246.7,330.6,243.1,334.1,242.7z M314,246.1   c2.1,0.5,3.7,0.5,5.2-1.3C317.2,244.6,315.7,244.7,314,246.1z M311.8,247c-1.1-1.8-1.4-1.8-3.1,0C309.8,247,310.8,247,311.8,247z    M306.1,246.1c-0.8,0.7-1.3,1.1-1.7,1.5C305.2,248.5,306.2,248.1,306.1,246.1z" />
	<path fill="#D69479" d="M267.2,430.6c-1.1-1.8-0.6-3.9-0.8-5.9c-0.7-0.8-1.4-1.8-2.4-2.9c-1.3-21.6-22.7-39.4-29.1-60.7   c-5.6-29.9-39.4-56.6-23.4-87.9c3.3,3.1,6.4,6.2,9.5,9.2c-10.4,29.9,23.3,43.4,25.6,71.7c3.4,11.5,7.1,23.9,13.2,34.3   c6.2,9.8,26.3,36.3,16.4,46.1c-3.5-0.9-4.1-5.4-7.4-6.2c-1.5,0.9,0.1,2.9-1.4,3.8C267.3,431.6,267.2,431.1,267.2,430.6z" />
	<path fill="#B28C7D" d="M477,371.5c-0.5-0.7,0.1-1.9-1.5-2.3c0,1.4,1,2.8-0.2,3.9c-2-0.3-3.7,0.4-5.4,1.2c-0.1,0.3-0.2,0.7-0.3,1.1   c-1.1-0.5-2.1-1-3.4-1.6c-1.3,1.1-2.6,2.1-4,3.3c-7.9-0.8-11.8-13.6-10.5-20.8c1.1-0.4,2.3-0.8,3.6-1.3   c-8.8-12.5-18.2-25.1-28.2-37c-10.8-12.7-22.3-26.5-25.9-43c0.8-0.1,1.6,0,2.4,0c0.9,0.6,1,2.2,2.7,2.1c0.1-0.4,0.2-0.9,0.4-1.3   c0.5-0.1,1-0.2,1.8-0.4c-1-4-5-6-8.3-8.1c-10.3-8.4-16.2-22.5-21.5-34.7c-4.6-12.7-7.5-25.8-11.6-38.7c-1.3-4.5,5.2-1.8,7.8-3   c-2.4-6.4-10.8-9.1-14.8-14.9c-4.4-3.2-5-9.7-9.6-12.5c-7.3-0.6-3.2,7.7-1.9,10.7c-6.1,4.6-13.2,7.1-20.7,8.3   c-16.2-27.2,23.9-64.3,47.7-39.7c5.7,12.5,16.6,22.5,17.7,36.8c1.2,19.8,9.2,38.3,13.2,57.5c1.8,7,4,14,6.5,20.8   c3.9,6.2,10.4,10.3,12.9,17.5c7.2,17.2,14.2,34.7,25.4,49.7c6.5,19.8,31.9,30,29.4,46.6C479.1,372.5,478,372.3,477,371.5z    M365.9,146.8c3.6,0,5.2,0.5,8.3,2.2C373,145.7,368.5,144,365.9,146.8z M472.9,365.8c-0.2-1.5-0.2-1.4-1.6-2.1   C471.5,364.8,471,365.8,472.9,365.8z M464.9,368.4c0.5,1.7,0.2,1.3,2,2.3C466.3,369.5,467,368.4,464.9,368.4z M470.5,360.8   c-0.6-0.5-1-0.7-1.8-1.4c0.2,1.1,0.3,1.6,0.5,2.7C469.9,361.5,470.1,361.2,470.5,360.8z M462.7,365.5c0.4,0.4,0.6,0.7,1.1,1.1   C464.1,365.4,464,365,462.7,365.5z M409.6,278.3c-0.5,1.3-0.5,1.3,1,1.2C410.2,279.1,409.9,278.7,409.6,278.3z M467.1,357.4   c-1,0.5,0.1,1.6,0.7,0.9C467.5,358,467.3,357.7,467.1,357.4z" />
	<path fill="#B28C7D" d="M514.9,234.6c0.4,0.3,0.8,0.7,1.3,1.1c-1,0.5-2,0.1-3.2,0.7c0.9,0.3,1.7,0.5,2.6,0.7c1.5,2.2,2,5,2.9,7.5   c-0.4,0.3-0.7,0.7-1.1,1c-2-1.9-4-3.8-6.1-5.8c-1.7,0-3.4,0-4.9,0c-1.3-0.9-2.9-3.2-4.3-1.8c0.5,0.5,1.1,1,1.6,1.5   c-0.6,0.6-1.6,0.1-1.6,1.4c8.9-1,9.7,1.4,15.4,7.1c0,0.5,0,1.1,0.1,1.6c0,0,0,0,0,0c-0.5,0-1.1,0.1-1.6-0.1   c-5.8-10-15.7,0.3-23.8-1.9c-13.3-30-55.5-29.5-74.1-54.1c2.2-2,5.9-1,7.7-3.9c-9-4.7-20.8-2.9-28.6-10.2   c-0.2-19.4-27.8-34.4-11.4-44.7c0.6,0.4,1.1,0.8,1.6,1.1c10,20.8,30.1,34.4,49.7,45.2c20.8,17.4,41.3,57.3,72.3,54.3   c-0.2,0.4-0.3,0.9-0.5,1.4c1.7,0,1.7,0,2.1-1.5C512.4,235,513.7,234.8,514.9,234.6z M418.8,176.1c-0.8-1.2-1.2-5.1-3.3-3.1   c1,2.1,2,4.3,3,6.5c0.3,1,0,2.4,1.6,2.7c0.1-1.5,0.1-1.5-0.7-2.9C419.5,178.3,419.2,177.2,418.8,176.1z" />
	<path fill="#977264" d="M397.2,179.5c7.7,7.2,19.6,5.5,28.6,10.2c-1.8,2.9-5.5,1.9-7.7,3.9c15.2,21.4,56.9,25.5,70.8,48l-0.2,0.2   c-0.2-0.1-0.4-0.1-0.6-0.1c-0.6,0.6-1.2,1.1-1.8,1.7c-13-12.6-30.1-19.6-46.1-27.8c-15.9-7.9-28-20.8-42.8-30.4   C397.3,183.3,397.3,181.4,397.2,179.5z" />
	<path fill="#2C211E" d="M375.6,142.9c-1.1-1.1-2.1-2.2-3.2-3.2c0.3-0.3,0.6-0.6,0.9-0.9c1.1,1.1,2.2,2.1,3.3,3.2   C376.2,142.3,375.9,142.6,375.6,142.9z" />
	<path fill="#977264" d="M403.6,275.1c-0.6,0-1.2-0.1-1.8-0.1c0.4-2.4-1.5-3.6-2.6-5.5c-1.5,2.5,0.8,3.8,2,5.5   c3.6,16.5,15.1,30.3,25.9,43c10,11.8,19.4,24.4,28.2,37c-1.3,0.5-2.5,0.9-3.6,1.3c-1.3,7.2,2.5,20,10.5,20.8c1.4-1.2,2.7-2.2,4-3.3   c1.4,0.7,2.5,1.1,3.6,1.7c-1.7,3.5,4,14.7-4,10.2c-0.2-1.9,0.4-3.9-1.3-5.2c-0.1,0.2-0.1,0.4-0.2,0.6c-0.6,0.3-1.2,0.6-1.8,0.9   c0.5-1.3,1.5-2.5,0.1-4.2c-1.3,1.4-0.7,3.1-0.8,4.8c-1.2,1.3-0.8,2.7-1,4.6c-0.8,0.1-1.5,0.1-2.1,0.2c-2.7-2.2-0.5-5.6-2.3-8.1   c-2.9-8.4-7.6-15.9-6.6-25.3c-10.8-21.3-33.7-36.1-44.4-57.9c-2-8.3-9.2-16-9.5-24.3c-15.5-23-31-47.4-36-75.5c-0.3-5-4.3-9-9.4-7   c0,0.4,0,0.6,0,0.9c1.7,1.1,3.9-0.4,5.4,1.2c-9.6,4.1-22.3,0-27.8-8.8c7.5-1.2,14.6-3.7,20.7-8.3c-1.3-3-5.3-11.3,1.9-10.7   c4.6,2.8,5.2,9.3,9.6,12.5c4.1,5.7,12.5,8.4,14.8,14.9c-2.6,1.2-9-1.5-7.8,3c4.1,12.9,7.1,26,11.6,38.7   c5.2,12.2,11.2,26.3,21.5,34.7c3.3,2,7.3,4.1,8.3,8.1c-0.8,0.2-1.3,0.3-1.8,0.4c-0.8-0.8-1.6-1.6-2.6-2.6   C403.8,274.1,403.7,274.6,403.6,275.1z M360.5,182.8c-0.6-3.5-1.3-4.8-3.3-7.2C355.9,177.9,358.1,180.9,360.5,182.8z M361.8,181.9   c-1.1,1.8,0,3.3,1.8,2.8C362.9,183.7,362.4,182.8,361.8,181.9z M350.2,185.2c1,2.4,1.5,3,2.3,2.4   C352.4,186.5,351.7,185.9,350.2,185.2z M368.9,188.5c0.7,1.3,0.7,1.3,1.8,1.4C370.5,188.9,370.1,188.2,368.9,188.5z M348,182.1   c-0.3,1-0.1,1.7,1.2,1.9C349.4,183,349,182.5,348,182.1z" />
	<path fill="#0E0A09" d="M373.3,138.7c-0.3,0.3-0.6,0.6-0.9,0.9c-24.2-15.7-52.7,10.8-47.7,36.6c-1.2,0.5-0.7,1.6-0.9,2.5   C314.6,151.6,348.4,119.4,373.3,138.7z" />
	<path fill="#DFCAB9" d="M349.3,194.7c-5.5,1.2-15.6,2.1-20.5-1.2c1.1-1.1,2.1-2.1,3.1-3.1C337.3,193.4,343.2,195.2,349.3,194.7z" />
	<path fill="#1F1311" d="M355.6,191.4c-1.5-1.6-3.6-0.1-5.4-1.2c0-0.3,0-0.6,0-0.9c2.4-0.6,5.4-0.9,7.1,1.3   C356.8,190.9,356.2,191.1,355.6,191.4z" />
	<path fill="#8E847F" d="M492.7,294.8c0.1,1.2,0.5,2.2,1.8,2.6c-1,0.5-1,0.5-2,0.1c-0.7,0.7-1.5,1.4-2.2,2.1c-2.1,0.1-4,0.1-5.9-1.7   c0.5-6.2-11.2-41.3,2.8-34.4c0-0.4,0-0.8,0-1.2c1.4,0.4,0.8,1.6,1,2.5c0.1,2.1,0.7,4.1,1.6,6.1c0.6-0.3,1-0.5,1.5-0.7   c0,1.5,0,3.1,0,4.8c-0.4,0.5-0.9,1.1-1.4,1.6c0.5,0.7,0.9,1.3,1.3,1.8c-1.5,4.7-1.2,11.6,0.6,16.4   C492.1,294.8,492.4,294.8,492.7,294.8z" />
	<path fill="#956F62" d="M486.2,243.3c0.6-0.6,1.2-1.1,1.8-1.7c0,0.7,0,1.4,0,2.1c0.2,0,0.4,0,0.5,0c0-0.7,0.1-1.3,0.1-2   c0,0,0.2-0.2,0.2-0.2c1,1.9,2.1,3.9,3.3,6.1c8,2.2,18-8.1,23.8,1.9c-4.7-1-8.9-4.7-13.5-0.5C494.4,254,489.2,252.2,486.2,243.3z" />
	<path fill="#8C847F" d="M519.9,264.7c-1.4,0.3-2.7,0.6-3.9,0.9c-5-4.6-4.9-12.5-13.1-13.7c2.1-1.7,4.3-2.9,7.1-3.1   c1.6,1,3.1,2,4.7,3c-0.4,1-0.8,2.1-1.2,3.1c0.7,2.2,2.4,3.7,2.4,6.3c-0.2,2.8,4.6,4.2,4.1,0.5c0.3,0.3,0.5,0.5,0.8,0.8   c-0.1,0.8-0.1,1.5-0.2,2.3C520.3,264.7,520.1,264.7,519.9,264.7z" />
	<path fill="#95766A" d="M517.3,245.7c0.4-0.3,0.7-0.7,1.1-1c0.2,0.1,0.4,0.1,0.7,0.2c3.1,5.5,1.2,11.2-1,17.2   c-0.5-0.3-0.9-0.6-1.1-0.7c0.5-4.1,0.2-8,1.4-11.8c0,0-0.1,0.1-0.1,0.1C520.4,248.6,518.3,246.7,517.3,245.7z" />
	<path fill="#7F655B" d="M523.9,251.2c-0.2,2.4-0.1,4.8,0.7,7.1c-6.4,0.3-0.6-8.5-3.8-12.8c0.3,0,0.5,0,0.8,0   C522.9,247.2,522.8,249.5,523.9,251.2z" />
	<path fill="#B28C7D" d="M521.6,245.6c-0.3,0-0.5,0-0.8,0c-1.3-1.9-1.2-3.1-1.9-5.9C521.1,241.7,520.8,243.9,521.6,245.6z" />
	<path fill="#595551" d="M520.8,262.4c-0.3-0.3-0.5-0.5-0.8-0.8c-0.1-1,0-1.8,1.2-2.1C521.5,260.6,521.7,261.6,520.8,262.4z" />
	<path fill="#95766A" d="M517.5,249.6c0-0.5,0-1.1-0.1-1.6c0.9,0.2,0.8,0.9,0.8,1.6c0,0,0.1-0.1,0.1-0.1   C518.1,249.6,517.8,249.6,517.5,249.6z" />
	<path fill="#595551" d="M519.9,262.3c0.1,0.7,0.1,1.4-0.8,1.6C519.3,263.4,519.6,262.8,519.9,262.3z" />
	<path fill="#595551" d="M519.9,264.7c0.2,0,0.4,0,0.7-0.1c0.1,0.7,0.1,1.3-0.7,1.7C519.9,265.8,519.9,265.3,519.9,264.7z" />
	<path fill="#7F695D" d="M515.8,253.4c-0.1,0.8-0.1,1.1-0.1,1.4C515.1,254.2,515,254.3,515.8,253.4z" />
	<path fill="#95766A" d="M516.6,249.7c0.3,0,0.6,0,0.9,0C517.2,250.3,516.9,250.2,516.6,249.7z" />
	<path fill="#846A5E" d="M511.1,235.2c-0.4,1.4-0.4,1.4-2.1,1.5c0.2-0.5,0.3-1,0.5-1.4C510,235.3,510.6,235.2,511.1,235.2z" />
	<path fill="#936F61" d="M477,371.5c1,0.8,2.1,1,3.6,0.5c0.1-1.4,0.2-3,0.3-4.5c1.6,3.3-0.4,7.3,1.6,10.4c0.8,2.8,1.5,5.5-2.6,6.2   c-2.6-2-2.6-5.3-3.8-7.7C476.5,374.5,476.8,373,477,371.5z" />
	<path fill="#89675B" d="M420.3,134.1c0.3-0.3,0.6-0.6,1-0.9c1.3,1.2,2.6,2.5,3.8,3.6c-0.1,1.4-0.7,1.6-1.5,2.7c-1.1-0.6-2-1-3-1.6   C420.4,136.7,420.3,135.4,420.3,134.1z" />
	<path fill="#89685B" d="M423.5,131.6c1.6,0,3.3-0.2,4.7,0.7c-0.9,0.1-1.8,0.2-3.4,0.3c2,0.6,3.3,1.1,4.7,1.5   c-1.7,4.1-4.7,1.1-6.7-1.2C423.1,132.5,423.3,132.1,423.5,131.6z" />
	<path fill="#936F61" d="M469.6,375.4c0.1-0.4,0.2-0.7,0.3-1.1c1.7-0.8,3.5-1.5,5.4-1.2c-1.4,3.3,1.5,12.4-3.6,12.5   c-1.2-3.5-1.7-6.9-0.6-10.7c-0.7,0.3-1,0.5-1.4,0.6C469.7,375.5,469.6,375.4,469.6,375.4z" />
	<path fill="#261D19" d="M469.7,375.5c0.3-0.1,0.7-0.3,1.4-0.6c-0.5,2.7-1.2,5.3,0,7.8c-0.2,0.3-0.5,0.6-0.7,0.8   C469.1,381,469.2,378.3,469.7,375.5z" />
	<path fill="#1C1614" d="M441.9,110.3c0.5,1.7,2.5,1.3,3.8,1.6c0,0.2,0,0.4,0,0.5c-2.8,0.2-5.8-0.2-8.6,1.8   c-0.9-0.3-1.7-0.6-2.6-0.9c0-0.5,0.1-1,0.1-1.5c1.9-0.3,1.9-3.9-0.3-2.6c-1.9-0.3-1.5-2.6-2.4-4.2c3,0.9,5,3.3,7.7,4.8   c0.5-0.2,0.9-0.4,1.2-0.5C441.3,109.7,441.6,110,441.9,110.3z" />
	<path fill="#362D29" d="M461.7,382.6c0.1-1.7-0.5-3.4,0.8-4.8C464,379.7,463,381.5,461.7,382.6z" />
	<path fill="#362D29" d="M464.9,381.1c0.9,0.2,0.8,0.9,0.8,1.6C465.4,382.1,465.1,381.6,464.9,381.1z" />
	<path fill="#362D29" d="M464.3,381.1c0.1-0.2,0.1-0.4,0.2-0.6c0.1,0.2,0.2,0.4,0.3,0.5C464.7,381.1,464.5,381.1,464.3,381.1z" />
	<path fill="#150F0D" d="M436.7,100.4c4.7-3.2,14.2,4.1,10.3,8.5C442.9,104.8,444.5,101.8,436.7,100.4z" />
	<path fill="#473630" d="M403.3,89.5c-0.1-2,0.7-3.3,2.6-3.9c0.8,0.4,1.5,0.8,2.3,1.3c0,0.4,0.1,0.8,0.1,1.4c-1.1,0.3-1.7-1.2-3-0.7   c-0.1,0.6-0.2,1.3-0.3,2.1c-1.6,0.8,0.2,3-1.4,3.9C403.5,92.1,403.4,90.8,403.3,89.5z" />
	<path fill="#49322D" d="M441.9,110.3c-0.3-0.3-0.6-0.6-1-1c0-0.4-0.1-0.8-0.1-1.4c-1.4-0.4-2.9-0.9-4.4-1.4c0-0.3-0.1-0.7-0.1-1.1   c2.3,0.4,4.5,0.8,6.5,2C443.1,108.7,442.7,109.6,441.9,110.3z" />
	<path fill="#917165" d="M436.3,105.4c0,0.4,0.1,0.8,0.1,1.1c1.5,0.5,3,0.9,4.4,1.4c0,0.6,0.1,1,0.1,1.4c-0.3,0.2-0.7,0.3-1.2,0.5   c-1.7-1.2-3.5-2.4-5.2-3.6C435.1,106,435.7,105.7,436.3,105.4z" />
	<path fill="#977264" d="M401.9,114.2c-1.9-3,0.6-7.1,2.5-9.6C404.5,108.1,401.6,110.7,401.9,114.2z" />
	<path fill="#44332D" d="M432.6,123.5c-1.5,0.9-2.4,1.5-3.4,2.1c0.2,1,0.3,1.8,0.5,2.9C426.4,127.2,428.5,122,432.6,123.5z" />
	<path fill="#3F352F" d="M434.6,113.3c0.9,0.3,1.7,0.6,2.6,0.9c-1,0.6-2,1.1-3.1,1.8c-0.7-0.6-1.4-1.2-2.3-2   C433.2,113.2,433.8,114.8,434.6,113.3z" />
	<path fill="#D7DFDE" d="M434.4,109.3c2.1-1.3,2.2,2.3,0.3,2.6C434.2,111.1,434.1,110.2,434.4,109.3z" />
	<path fill="#473630" d="M403.6,94.2c0.2,0.5,0.5,1.1,0.7,1.6C403.5,95.5,403.5,94.9,403.6,94.2z" />
	<path fill="#533D37" d="M410.3,89.3c-0.8-1.3-0.2-2,0.7-2.7C411.9,87.8,411.1,88.5,410.3,89.3z" />
	<path fill="#200303" d="M673.7,425.7c-44-2.1-92.4,0-135.4-0.8c44.8-2.6,90.1,0,135.1-0.8C673.5,424.8,673.6,425.2,673.7,425.7z" />
	<path fill="#220E0E" d="M680,425.7c-0.9,1.6-2.6,0.9-3.8,0.4c0-0.4,0-0.8,0-1.1C677.6,424.7,678.8,424.9,680,425.7z" />
	<path fill="#242221" d="M533.6,466.2c-0.6,5.7,0.9,12.3-0.8,17.5c-0.1-10.2-0.1-20.3-0.8-30.2c0.2-0.3,0.5-0.5,0.7-0.8   C534.5,456.6,533,461.8,533.6,466.2z" />
	<path fill="#322D2C" d="M529.4,520.4c-1.6,0.9,0.1,3.2-1.6,4l0,0c0.2-7.2,2.1-14.3,3.5-21.3c0.4,0,0.8-0.1,1.2-0.1   C531.5,508.9,530.2,514.6,529.4,520.4z" />
	<path fill="#282423" d="M523.8,410.6c1.6,4.2,4.3,8.1,4.9,12.6c-2.9-3.1-4.3-7.7-5.7-11.8C523.2,411.1,523.5,410.9,523.8,410.6z" />
	<path fill="#534A48" d="M523.8,410.6c-0.3,0.3-0.6,0.5-0.8,0.8c-3.1-4.3-5.6-9.2-6.3-14.5C519.5,401.2,520.8,406.4,523.8,410.6z" />
	<path fill="#2D2928" d="M527.8,524.5c0.2,4.9-1.3,9.5-2.5,14.2c-0.3-0.5-0.5-1-0.8-1.6c0.9-4.2,2-8.3,2.6-12.5   C527.4,524.6,527.6,524.5,527.8,524.5L527.8,524.5z" />
	<path fill="#514A47" d="M523.1,542.8c-1,4.5-1.9,9-4.8,12.8C519,551.2,520.7,546.5,523.1,542.8z" />
	<path fill="#756D69" d="M507.2,370.7c1.5,2.5,1.6,6,3.2,8.8c-0.1,0.4-0.1,0.7-0.3,1.5c-1.8-3.2-2.5-6.8-3.7-10.3   C506.6,370.7,506.9,370.7,507.2,370.7z" />
	<path fill="#4D4745" d="M507.2,370.7c-0.3,0-0.5,0-0.8-0.1c-0.6-2.9-2-5.6-1.6-8.7C506.6,364.6,506.8,367.7,507.2,370.7z" />
	<path fill="#585350" d="M524.6,537.2c0.3,0.5,0.5,1,0.8,1.6c-0.8,1.4-1.5,2.7-2.3,4.1C523.3,540.9,523.6,538.9,524.6,537.2z" />
	<path fill="#534A48" d="M515.8,393.1c0.3,1.3,0.6,2.6,0.9,3.9c-1.5-0.8-1.4-2.4-2.3-3.8C515.1,393.2,515.5,393.2,515.8,393.1z" />
	<path fill="#6F6662" d="M500.7,349.2c0.9,1.2,0.9,2.6,0.8,3.9C501,352,498.8,350.2,500.7,349.2z" />
	<path fill="#413D3B" d="M516.7,560.3c-0.3,1.3-0.6,2.6-0.8,3.9C513.9,563.3,516.1,561.4,516.7,560.3z" />
	<path fill="#302B2A" d="M497.5,334.9c0.3,0,0.5,0,0.8,0c0,0.9,0,1.8,0,3.2C497.3,336.7,497.6,335.8,497.5,334.9z" />
	<path fill="#443C3A" d="M516.8,558.1c1,1.2,1,1.2-0.1,2.3C516.7,559.6,516.7,558.8,516.8,558.1z" />
	<path fill="#7C7470" d="M527.9,524.5c-0.2,0-0.5,0.1-0.7,0.2c-0.1-0.7-0.2-1.4,0.6-1.8C527.8,523.4,527.8,524,527.9,524.5z" />
	<path fill="#514A47" d="M518.2,557.1c-0.2,0-0.4,0.1-0.7,0.1c0-0.7-0.1-1.3,0.8-1.6C518.3,556,518.2,556.6,518.2,557.1z" />
	<path fill="#989691" d="M541.5,425.8c41.8-0.3,84-0.3,125.8,0C626,427.1,582.7,427,541.5,425.8z" />
	<path fill="#58514E" d="M535,366.8c1.1,2.4,2.2,4.7,3.3,7.1c-0.1,0.4-0.2,0.7-0.4,1.6C537,372.7,532.9,369,535,366.8z" />
	<path fill="#514C49" d="M532.6,357.9c0.4,1.7,1,3.3,0.7,5.1c-2-0.4-1.8-3.7-2.3-5.6C531.7,357.6,532.2,357.8,532.6,357.9z" />
	<path fill="#6F6662" d="M527.3,346.6c-1.5-1.6-1.6-3.8-3-5.8C526.1,341.5,528.8,344.8,527.3,346.6z" />
	<path fill="#4B4543" d="M513.8,297.8c2.1,3.2,2.1,3.2,1.5,4.9C514.1,302.8,513,298.6,513.8,297.8z" />
	<path fill="#68605D" d="M516.2,312.4c-0.1-0.9-0.2-1.7-0.3-3.1C517.3,310.3,518.6,312,516.2,312.4z" />
	<path fill="#635D5A" d="M539.8,377.9c0.3,0.8,0.5,1.6,0.8,2.4C538.6,379.7,538.5,379.3,539.8,377.9z" />
	<path fill="#635D5A" d="M540.6,380.2c1.5,0.6,1.7,1.8,1.6,3.2C541,382.7,540.7,381.5,540.6,380.2z" />
	<path fill="#8B817C" d="M665.7,488.5c-0.5,0.1-1.1,0.1-1.6,0.2c0.3-13.5-0.8-26.8,1-40.2c1.6,0.1,3.1,0.2,4.6,0.3   c-0.1,1.9,0.6,4.1-0.7,5.7c-0.1-1.4-0.1-2.8-0.2-4.2c-0.9,1.7-1.5,4.3,0,5.7c-3.1,5.3-2.8,14.2-1.5,20.1c-0.5,0.1-0.9,0.2-1.5,0.4   c0.3,1.8-0.6,4.3,0.5,5.4c0.3-0.4,0.7-0.8,1-1.1c0,2.4,0.6,5.1-1.7,6.6C665.4,487.3,665.6,488,665.7,488.5z" />
	<path fill="#272423" d="M667.3,474.2c-1.2-3.4-1.8-12.9,0.7-15.6C668.1,463.8,668.5,469,667.3,474.2z" />
	<path fill="#554F4C" d="M677.7,540.4c-1.7-2-6.2-14-4-15.8C675.2,529.8,676.6,535,677.7,540.4z" />
	<path fill="#5B5451" d="M672.1,515.8c-2.6-3.3-2-8.1-3.2-12.1c0.3-0.3,0.6-0.5,0.8-0.8C670.7,507,671.7,511.5,672.1,515.8z" />
	<path fill="#35312F" d="M667.2,480.5c-0.3,0.4-0.7,0.8-1,1.1c-1.1-1.1-0.2-3.6-0.5-5.4c0.6-0.1,1.1-0.2,1.5-0.4   C667.3,477.5,667.3,479,667.2,480.5z" />
	<path fill="#1F1C1B" d="M669.8,502.9c-0.3,0.3-0.6,0.5-0.8,0.8c-0.3-1.8-0.5-3.6-0.8-5.5l0,0c0.5-0.3,1-0.5,1.5-0.8   C669.7,499.3,669.8,501.1,669.8,502.9z" />
	<path fill="#272322" d="M668.8,455.8c-1.5-1.3-0.9-3.9,0-5.7C668.8,452,669.1,453.9,668.8,455.8z" />
	<path fill="#877D79" d="M669.7,497.5c-0.5,0.3-1,0.5-1.5,0.8C667.9,497.1,668.9,496.1,669.7,497.5z" />
	<path fill="#010101" d="M680.1,549.2c-0.2,0.1-0.3,0.3-0.5,0.4c-0.1-0.1-0.1-0.1-0.2-0.2c0.2-0.3,0.4-0.6,0.6-0.9   C679.9,548.8,679.9,549,680.1,549.2z" />
	<path fill="#877D79" d="M672.1,515.7c0-0.3,0-0.6,0.1-0.9C672.8,515.2,672.8,515.5,672.1,515.7z" />
	<path fill="#99928D" d="M664.1,488.6c0.3,0.8,0.6,1.5,0.9,2.3c-0.1,0.4-0.2,0.8-0.3,1.2c-42,0.6-84.3,0.5-126.5,0.6   c-0.8,0.5-1.5,1-2.3,1.6c-1.1-9,11.3-4.4,16.6-5.3C589.7,488.6,627,489.2,664.1,488.6z" />
	<path fill="#9D938E" d="M658,447.4c1.4,0,2.9,0,4.4,0c-0.5,13.1-1.2,26.2-0.8,39.5c-1.3,0.6-2.5,0.5-4,0.1c-1.6-3.2-2.2-6.6-2-10.2   c0.4,1.2,0.9,2,2.1,2.8C657.6,468.7,655.6,458.1,658,447.4z" />
	<path fill="#A19691" d="M543.7,453.4c-0.2-1.8-0.4-3.6-0.7-5.6c1.5-1,3-0.5,4.2-0.4c2,12.8,1.5,26.4-1.4,39.3   c-1.3,1-2.9,0.5-4.5,0.4c0.1-3.2,1.3-6.3,0.9-9.6c0.6-0.3,0.6-0.6,0-0.9c1.4-4.9,1.7-9.8,1.4-14.9c-0.3-0.3-0.5-0.6-0.8-0.9l0,0.1   C542.7,458.3,543.7,455.9,543.7,453.4z" />
	<path fill="#998F8A" d="M533.6,466.2c0.1-5.7-0.2-11-0.9-16.4c1.1-0.1,1.9-0.2,3-0.2c3.1,12.5,0.9,25.1,0.9,37.9   c-1.1,1.4-2.3,3-2.4,5.1C532.1,484.3,536,474.7,533.6,466.2z" />
	<path fill="#8C827E" d="M543.7,469.4c0.3,2.5-1.4,4.7-1.4,7.3c-0.2,0.2-0.5,0.3-0.7,0.4c0.2,0.2,0.5,0.3,0.7,0.5   c0.4,3.3-0.8,6.4-0.9,9.6c-0.6,0-1.2,0-2,0c0.1-13.1,1.6-25.9-0.9-38.5c1.1-0.5,2.1-0.9,3.3-1.4c-0.1,3,0.1,4.9,0.6,8   c0.6-0.8,0.9-1.2,1.3-1.7c0,2.5-1,4.9-0.8,7.5c-1.3,1.1-0.7,2.4-0.5,3.7c0.5,0,0.9,0,1.2,0c0,1.4,0,2.9,0,4.3   c-0.4-0.5-0.8-0.9-1.4-1.6c0,1.4,0,2.4,0,3.8C542.9,470.3,543.3,469.8,543.7,469.4z" />
	<path fill="#847B76" d="M656.9,454.3c0,1.1,0,2.2,0,3.4c-3.6,0,0.2,7.7-2.3,9.4c-1.2-6.3-0.6-12.7,0-19.1c0.3-0.2,0.6-0.5,0.8-0.7   c0.2,0,0.4,0,0.6,0.1c-0.2,3-1.2,5.1-0.1,8C656.2,455,656.5,454.6,656.9,454.3z" />
	<path fill="#353432" d="M656.9,454.3c-0.3,0.4-0.7,0.8-1,1.1c-1.1-2.9-0.1-5,0.1-8c0.7,0,1.3,0,2,0   C657.6,449.7,657.2,452,656.9,454.3z" />
	<path fill="#625B58" d="M654.6,467.1c1.6-1.7,0.4-4.9,0.8-7.2c1.2,3.5,0.5,7.5,0.8,11.2c-0.5,0.4-0.6,1.1-0.9,1.7   C654.1,471.1,654.8,469,654.6,467.1z" />
	<path fill="#585350" d="M657,471.1c0.3,2.7,1.3,5.4,0.6,8.5c-3.5-2-1.1-5.3-1.5-8.3l0.2-0.2C656.5,471.1,656.7,471.1,657,471.1z" />
	<path fill="#9D938E" d="M656,471.2c0,1.3,0.4,2.7-0.6,3.8C655.3,473.7,655.3,472.4,656,471.2z" />
	<path fill="#353432" d="M655.4,447.3c-0.7,0.7-1.6,1.1-2.4,1.5c-0.1-0.5-0.1-1-0.2-1.5C653.7,447.3,654.6,447.3,655.4,447.3z" />
	<path fill="#191716" d="M492.7,294.8c-0.3,0-0.5,0-1,0.1c-1.8-4.8-2-11.7-0.6-16.4C492.4,283.8,492.1,289.4,492.7,294.8z" />
	<path fill="#1E1C1B" d="M491.2,270.2c-0.4,0.2-0.9,0.5-1.5,0.7c-0.9-2-1.6-4-1.6-6.1c0.2,0,0.4,0,0.5-0.1   C490.3,265.9,491.2,268.3,491.2,270.2z" />
	<path fill="#8E847F" d="M492.7,291.9c-1.1-2.8-0.5-5.9-0.6-8.9C493.5,285.7,492.5,289,492.7,291.9z" />
	<path fill="#8E847F" d="M491.1,268.8c-0.2-0.6-0.4-1.1-0.7-1.7C491.3,267.5,491.2,268.1,491.1,268.8z" />
	<path fill="#8E847F" d="M489.6,265.5c-0.3-0.2-0.7-0.5-1-0.7C488.9,265.1,489.3,265.3,489.6,265.5z" />
	<path fill="#010101" d="M679.2,546.1c-0.1,0.1-0.2,0.3-0.1,0.1C678.9,546.3,679.1,546.2,679.2,546.1L679.2,546.1z" />
	<path fill="#D79479" d="M292.9,429.7c-4.3-2.8-3-7.9-3.3-12.7c0.4-0.4,1.1-1.1,1.8-1.8C297,418,297.4,426,292.9,429.7z" />
	<path fill="#392822" d="M288.3,453.6c-0.7-3.9-0.4-6.7,1-8.6C289.9,448,290.5,451.5,288.3,453.6z" />
	<path fill="#332520" d="M269.1,460c2.3,0.8,1.4,5.9,0.8,7.7C267.7,466.6,268.9,462.4,269.1,460z" />
	<path fill="#563830" d="M283.9,307.8c-0.3,0.6-0.6,1.1-0.9,1.7c-1-1.4-0.9-2.9-0.6-4.6C284,305.5,284.1,306.6,283.9,307.8z" />
	<path fill="#47352C" d="M267.2,430.6c0.2,1,0.2,2,0.1,3c-0.4,0.2-0.8,0.5-1.6,0.9c0-1.7,0-2.9,0-4.1l-0.1,0.1   C266.1,430.5,266.7,430.6,267.2,430.6z" />
	<path fill="#36251F" d="M287.4,441c1.5,0.5,1.3,1.6,1.3,2.8C287,443.4,287,443.4,287.4,441z" />
	<path fill="#75574A" d="M269.1,454.1c-1.1,0.1-1.5-1.2-0.7-1.9C269.5,451.5,270,453.5,269.1,454.1z" />
	<path fill="#1F1613" d="M268.2,476.7c-0.1-1.8-0.1-2.7-0.2-4.2C268.9,474.2,268.9,474.2,268.2,476.7z" />
	<path fill="#4B2E28" d="M267.3,483.1c0-1.4,0-2.1,0-3.3C268.4,481,268.3,481.7,267.3,483.1z" />
	<path fill="#33201C" d="M286.5,439.8c0-0.6,0-1.3,0-2.1C287.6,438.4,287.2,439.1,286.5,439.8z" />
	<path fill="#402E27" d="M266,487.1c0.5,0.5,0.3,0.8-0.1,1.2C265.6,487.9,265.7,487.5,266,487.1z" />
	<path fill="#1C1310" d="M265.7,430.4c-2-0.5-2.1-4.6-0.6-5.4C266.3,426.2,265.3,428.8,265.7,430.4L265.7,430.4z" />
	<path fill="#57423E" d="M334.1,242.7c-3.5,0.4-7.3,4-9.1,1.6C327.9,242.9,330.9,240.7,334.1,242.7z" />
	<path fill="#402927" d="M314,246.1c1.7-1.4,3.2-1.6,5.2-1.3C317.7,246.6,316.2,246.7,314,246.1z" />
	<path fill="#364A45" d="M311.8,247c-1.1,0-2,0-3.1,0C310.5,245.3,310.8,245.3,311.8,247z" />
	<path fill="#9C847B" d="M306.1,246.1c0.1,2.1-0.9,2.4-1.7,1.5C304.8,247.2,305.2,246.8,306.1,246.1z" />
	<path fill="#351F1C" d="M365.9,146.8c2.6-2.8,7.1-1.1,8.3,2.2C371.1,147.3,369.5,146.8,365.9,146.8z" />
	<path fill="#291E1A" d="M401.2,275c-1.2-1.7-3.6-3.1-2-5.5c1.1,1.9,3.1,3.1,2.6,5.5C401.6,275,401.4,275,401.2,275z" />
	<path fill="#3E322C" d="M403.6,275.1c0.1-0.5,0.3-0.9,0.5-1.8c1,1,1.8,1.8,2.6,2.6c-0.1,0.5-0.2,0.9-0.4,1.3   C404.6,277.3,404.5,275.7,403.6,275.1z" />
	<path fill="#43342E" d="M472.9,365.8c-1.9,0-1.4-1-1.6-2.1C472.7,364.4,472.7,364.4,472.9,365.8z" />
	<path fill="#6A554D" d="M464.9,368.4c2.1-0.1,1.4,1.1,2,2.3C465.1,369.8,465.4,370.1,464.9,368.4z" />
	<path fill="#745F55" d="M470.5,360.8c-0.4,0.4-0.7,0.7-1.3,1.3c-0.2-1.1-0.3-1.6-0.5-2.7C469.6,360.1,469.9,360.4,470.5,360.8z" />
	<path fill="#4B3B35" d="M462.7,365.5c1.3-0.5,1.4-0.1,1.1,1.1C463.4,366.2,463.1,365.9,462.7,365.5z" />
	<path fill="#392C28" d="M409.6,278.3c0.4,0.4,0.6,0.8,1,1.2C409.1,279.6,409.1,279.6,409.6,278.3z" />
	<path fill="#694E46" d="M467.1,357.4c0.2,0.3,0.5,0.6,0.7,0.9C467.2,359,466.1,357.9,467.1,357.4z" />
	<path fill="#281815" d="M518.3,249.6c-0.3-2.6-4.1-3.5-5.2-6.1c-2.2-3.9-7.3-2.2-11-2.6c0-1.3,1-0.8,1.6-1.4c-0.5-0.5-1-1-1.6-1.5   c1.4-1.4,3,0.9,4.3,1.8c1.5,0,3.2,0,4.9,0C512.8,242.4,521.5,247,518.3,249.6z" />
	<path fill="#2B211D" d="M418.5,179.6c-1-2.2-2-4.4-3-6.5c2.1-2,2.5,1.9,3.3,3.1c-0.1,0.7-0.2,1.3,0.6,1.7c0,0.5,0,1,0,1.6   C419.1,179.5,418.8,179.5,418.5,179.6z" />
	<path fill="#413731" d="M418.5,179.6c0.3,0,0.6-0.1,0.9-0.1c0.8,1.3,0.8,1.3,0.7,2.9C418.5,182,418.8,180.6,418.5,179.6z" />
	<path fill="#413731" d="M419.4,177.9c-0.8-0.4-0.7-1.1-0.6-1.7C419,176.7,419.2,177.3,419.4,177.9z" />
	<path fill="#2C1D1A" d="M488.7,241.7c0,0.7-0.1,1.3-0.1,2c-0.2,0-0.4,0-0.5,0c0-0.7,0-1.4,0-2.1   C488.3,241.6,488.5,241.7,488.7,241.7z" />
	<path fill="#261A17" d="M360.5,182.8c-2.3-2-4.6-4.9-3.3-7.2C359.2,178.1,359.8,179.4,360.5,182.8z" />
	<path fill="#382A25" d="M361.8,181.9c0.6,0.9,1.1,1.7,1.8,2.8C361.8,185.2,360.7,183.7,361.8,181.9z" />
	<path fill="#523D35" d="M350.2,185.2c1.5,0.7,2.2,1.3,2.3,2.4C351.7,188.2,351.2,187.7,350.2,185.2z" />
	<path fill="#674D44" d="M368.9,188.5c1.2-0.2,1.6,0.5,1.8,1.4C369.6,189.8,369.6,189.8,368.9,188.5z" />
	<path fill="#3F2A25" d="M348,182.1c0.9,0.4,1.4,0.9,1.2,1.9C347.9,183.8,347.8,183.1,348,182.1z" />
	<path fill="#213C3A" d="M666.6,425.5c-41.2,0.3-82.4,0.2-123.6,0.1C583.5,424.2,626,424.4,666.6,425.5z" />
	<path fill="#23201F" d="M657,471.1c-0.2,0-0.5,0-0.7-0.1c0.9-2.6-2.4-14.6,0.7-13.4C656.9,462.1,656.9,466.6,657,471.1z" />
	<path fill="#21201F" d="M543.7,464.5c-0.4,0-0.8,0-1.2,0c-0.2-1.3-0.8-2.6,0.5-3.7l0-0.1c0.3,0.3,0.5,0.6,0.8,0.9   C543.7,462.7,543.7,463.6,543.7,464.5z" />
	<path fill="#262322" d="M543.7,469.4c-0.4,0.4-0.8,0.9-1.4,1.6c0-1.4,0-2.4,0-3.8c0.6,0.7,1,1.2,1.4,1.6   C543.7,469,543.7,469.2,543.7,469.4z" />
	<path fill="#8C827E" d="M543.7,461.7c-0.3-0.3-0.5-0.6-0.8-0.9C543.2,461.1,543.4,461.4,543.7,461.7z" />
	<path fill="#8C827E" d="M542.3,476.6c0.6,0.3,0.6,0.6,0,0.9l-0.1-0.1c0-0.2,0-0.5,0-0.7L542.3,476.6z" />
	<path fill="#413231" d="M542.2,476.7c0,0.2,0,0.5,0,0.7c-0.2-0.1-0.4-0.2-0.6-0.3C541.8,476.9,542,476.8,542.2,476.7z" />
</g>
</svg>