<?xml version='1.0' encoding='utf-8'?>
<svg xmlns="http://www.w3.org/2000/svg" version="1.2" baseProfile="tiny" id="Layer_1" x="0px" y="0px" viewBox="0 0 900 600" overflow="visible" xml:space="preserve">
<g id="b">
	<path display="inline" fill="#010101" d="M429.3,376.3c1.2-2.9,4.1-5.2,6.2-7.5c11.8-10.2-2-23.8,8.6-32.9c-0.5-1-1.3-2.4-2.1-3.8   c0.3-0.3,0.5-0.6,0.8-0.9c3.7,4.3,7.4,10,12.6,12.2c11.3-0.8,23.4-0.4,34.2-4c13.5-5.3,9.4-21.6,13-33c3.9,4.7,4.1,11.6,6.5,16.9   c18.7-9.1,40.1-10.3,58-21.2c0.3,0.3,0.5,0.5,0.8,0.8c-11.3,9.6-26.9,11.8-40,15.6c9.5,8.6,1.4,10.6-7.2,8.6   c-10,2.7-19.2,8.1-28.4,12.8c1.1,7.6-3.9,15.1-4,21.8c9.1-1.7,18.5-1,27.6-1.1c7.5-0.3,15.5-3.5,22.9-1.1   c-16.7,3.9-34.1,1.6-50.9,4.4c-2.2,6.8-1.1,14.1-4.1,20.8c-4,7.9-7.6,14.8-5.4,24c1.2,13.4-2.1,26.6-6.3,39.1   c-1,16.5-3.9,32.6-1.7,49.1c0.9,0.5,2.1,1.2,3.5,1.9c3.3,8.5-1.9,18.7,0.6,27.7c-0.2,12.3,5.3,24.2,2.3,36.3   c-8.5,2.3-16,2-23.2-3.3c0.3-0.3,0.6-0.6,1-0.8c6.8,3.5,13.2,4.5,20.5,2.1c2.9-8.8-3.7-16.3-2.4-25.3c-0.6-8.2,1.2-17.1-0.9-24.9   c-22.8,1.9-20.5-5.5,0.2-1.8c0.7-2.6,1.8-5,1.2-7.8c-1.7-1-3.3-2.1-5.1-3.2c-3.2,1.3-6.7,1.6-10.3,1.5c-0.5,0.5-0.9,1-1.3,1.5   c-0.3-0.3-0.6-0.7-0.9-1c0.4-0.5,0.7-1.1,1.2-1.5c-3.7-0.4-5.2-3.2-7.6-5.5c1.3-29.2-14.2-56.7-11.6-85.8   c-11.6-2.2-8.1-15.5-9.6-24c1.5,0.7-0.2,2.8,1.4,3.5c1.8,6.4-0.1,18,9.2,17.4c1.3-5.3,4-10.1,5.9-15.1c-0.3-0.8-0.6-1.4-0.9-2   c3.3-1.6,3-1.2,1.9-4.6c1-0.2,1.7-0.4,2.5-0.6c0.3-0.7,0.6-1.3,0.9-1.9c-1.8-2.9-2.6-5.1,1.7-3.5c0.2-0.3,0.4-0.6,0.5-0.9   c-0.5-0.9-0.9-1.9-1.4-2.8c0.8-0.4,1.4-0.7,2.1-1c-0.1-11.6-2.4-22.8-5.8-33.9c-1.9,1.4-3.5,2.8-4.5,4.9   c3.7,16.9,0.1,23.7-11.4,35.4C429.3,377.6,429.4,376.8,429.3,376.3z M488.2,341.6c-11.7,2.9-26.2,4.4-37.7,2   c9.4,25.7-0.2,40.5-10.5,63.5c-3.9,15.9,3.7,31.1,6.8,46.3c1,8.2,2.6,16.2,3.9,24.3c0.2,3.7-1,8,1.3,11.2c-0.3,0.7-0.5,1.3-0.7,1.8   c2.5,6.2,12.2,7.9,16.3,4.5c-3.1-27.7,5.4-55.1,8.9-82.3c-0.9-8.8-1-17.1,2.7-25.2c4.5-13.9,6-28.4,9.7-42.4   c0.7-0.6,0.7-1.4,0.6-2.2c0.2-0.2,0.2-0.4,0.1-0.6c0.2-0.3,0.4-0.7,0.6-1C489.4,340.8,488.7,340.8,488.2,341.6L488.2,341.6z    M503.1,313.3c-1.1,6.8-2.2,13.6-3.3,20.5c8.8-6.1,18.6-9.7,30-8.4c-1-3.1-3.1-4.9-4.8-7.1c-4.8,2.1-9.6,3.8-14,6.4   c-0.9,0.6-1.9,1-3.2,0.3c-1.6-4.1-2.5-8.8-4.2-12.9c-0.1,0-0.2,0-0.4,0C503.2,312.5,503.1,312.9,503.1,313.3z" />
	<path display="inline" fill="#FBDFD3" d="M520.8,39.6c-0.8,2.4-1.7,5.1-0.8,8c-4.2,8.5-2.1,19.9-9.1,27.3   c-3.6-1.3-7.9-0.4-11.3-2.7c-1.2-1.2-3-0.6-4.5-0.7c-5.8-6.2-14.9-10.2-12.5-20.5c-0.7-0.8-1.1-1.3-1.4-1.7c3.9-8.2,7-17,12.8-24.2   c0.7,0.1,1.6,0.1,2.6,0.2c-0.1-0.5-0.1-0.8-0.2-1c0.7-0.4,1.9-0.6,2.1-1.2c0.5-1.4,1.8-1.2,2.8-1.8c0-0.5,0.1-0.9,0.1-1.5   c6-1.2,12.4,1.3,18.3,0.4c0,3.1-0.1,6.6,1.3,9.5c0.5,1.3,1.1,2.5,0,3.9c-4.9,1.9-10.4,4.7-7.1,10.9c0.4-1.8,0.7-3,1-4.1   c2,0.2,3.7,0,5.5-0.8C520.3,39.6,520.6,39.7,520.8,39.6z M512.3,63.7L512.3,63.7c0.5-0.8,1-1.5,1.5-2.2c0.1,0,0.4,0,0.5,0   c6.8-2.8-10.5-2-11.9-1.2c0.5,2.2,3.2,2.8,3.5,4.9c1.5,2.4,4.9,1.5,7.2,0.7c0-0.6-0.1-1-0.1-1.5C512.8,64.2,512.6,63.9,512.3,63.7z    M501.6,36.7c-1.7,1.6-4.9-0.5-5.5,2.3c2.9,0.2,5.8,0.5,8.6,0.7c0.6-0.9,1.1-1.5,1.5-2c0.9-0.1,1.7-0.2,2.7-0.4   c-0.4-1.1-0.7-1.9-1-2.7c-2.3-0.9-4.3-1.7-6.6-0.9c-2.9-1.5-4.8,0.5-7.5,2.3C498.1,36.1,497.5,33.3,501.6,36.7z M515.1,53   c-0.7-2.6-8.1-1.1-5.7,1.5C511.4,53.4,513.2,54.8,515.1,53z" />
	<path display="inline" fill="#010101" d="M520.8,29.7c-1.4-2.9-1.2-6.4-1.3-9.5c-5.9,0.9-12.3-1.6-18.3-0.4c0,0.6-0.1,1.1-0.1,1.5   c-0.9,0.6-2.3,0.3-2.8,1.8c-0.2,0.6-1.3,0.8-2.1,1.2c0,0.2,0.1,0.5,0.2,1c-0.9-0.1-1.8-0.1-2.6-0.2c-4.1,4.9-6.7,10.7-9.2,16.6   c-0.5-0.2-1.1-0.5-1.6-0.7c-0.4,0.5-0.8,0.9-1.2,1.3c-0.7-1.9-1-8.5-4.1-6.1c0.2,1.4,1,2.3,1.9,3.3c-0.4,0.4-0.8,0.7-1.2,1.1   c-0.5,0.4,0,1.5-1.3,1.7c-0.1-0.1-0.2-0.4-0.4-0.7l0,0c0.2-0.3,0.5-0.5,0.7-0.8c-0.4-1-1-1.8-2-2.2c-3.5,1.1,0.9,6.9,2.1,8.7l0,0   c0.3,0.7,0.6,1.5,1,2.3c-1.2,0.6-2-0.3-2.9-0.5c1-1.8,0-2.8-1.2-3.6c-0.8,0.2-1.3,0.3-1.9,0.4c-2.2-2.3,0.8-5.1-1-7.6   c-3.5-5.8-0.5-11.4,1.1-17.3c0.3-3.7,4.9-4.5,7.6-5.6c0.9,0.5,1.7,0.9,2.6,1.4c0.4-0.8,0.6-1.4,0.8-1.8c-0.9-1.6-1.8-0.4-2.7-0.5   c-0.6-0.7-1.2-1.3-1.8-1.9c-0.8,0.2-1.4,0.3-2.1,0.5c-0.1-0.6-0.2-0.9-0.3-1.3c1-0.8,0.3-2.1,1.3-2.9c1,0.3,1.3-0.5,1.9-1   c1.1,0.2,1.4,2,3,1.4c-0.2-0.7-0.4-1.3-0.5-1.9c3.5-0.5,6.5-1.7,8.7-4.5c1.8,0.1,0.7,1.5,0.9,2.3c2.2,0.8,2.2-1.8,3.8-2.3   c7,0.6,13.9,0.5,21.3-0.6c0.1,0.6,0.2,1,0.3,1.4c1.5-0.1,2.5-1.9,4-2.8c1.4,1.8,0.4,4.1,0.5,6.2c1.8-0.7,3.3-2.7,5.3-0.8   c-0.1,1.9-2.4,1.5-3,3.1c1.5,0.1,2.8,0.2,4,0.2c0,1.3,0,2.4,0,3.6c-2.1,2.1-5.5,2.6-7.3,5.4c0.2,3.3,0.3,6.7,0.5,10   C521.3,29.1,521.1,29.4,520.8,29.7z M505.2,14.8c-0.4-0.2-0.8-0.3-1.3-0.5c-0.2,0.4-0.4,0.7-0.5,1c1,1.3,2.2,0.8,3.3,0.9   c1.9,0.8,2.9,2.6,5.2,1.8C509.5,16,507.3,16.3,505.2,14.8c2-0.6,2-0.6,1.5-1.9C505.6,13.6,505.6,13.6,505.2,14.8z M484.7,27.6   c-2.1-0.1-2.1-0.1-3.4-1.1c-0.5,0.6-1,1.2-1.5,1.8c0-0.9-0.2-1.6-1.2-1.8c-1.2,1.8-1.2,2.3-0.4,5.3c1.1-1.3,0.4-2.6,1.6-3.5   c0.2,0.4,0.3,0.7,0.5,1.1c0.8-0.4,0.9,0.3,1.4,0.8c0.8-0.4,1.6-0.8,2.4-1.2c0.1,0.8-0.2,1.7,0.4,2.7c1.1-1.3,2.4-1.7,2.2-3.4   c-1,0.2-1.8,0.4-2.6,0.6C484.2,28.5,484.4,28,484.7,27.6c2,0,1.9-1.1,2.2-3.2C485.9,25.9,485.3,26.7,484.7,27.6z M486.4,18.5   c3.1-0.3,4.1-2.2,5.5-3.6c-0.4-0.5-0.6-0.8-1-1.3C489.5,15.1,488.2,16.5,486.4,18.5z M491,7.6c-1.6,1-5.5,0.9-4.4,2.7   c1.2-0.3,2.4-0.5,3.4-0.8C490.3,9,490.5,8.6,491,7.6z M502.9,10.7c1.3-0.7,2.2-1.6,2.9-2.8c-1,0-1.7,0-2.4,0   C503.1,8.8,502.2,9.3,502.9,10.7z M526.5,11.4c-1.4,0-2.3,0-3.6,0c0.4,1,0.7,1.7,1.1,2.7C524.9,13.2,525.6,12.4,526.5,11.4z    M490.3,25.6c0.2,0.1,0.4,0.2,0.6,0.3c0.5-0.6,1.1-1.3,1.9-2.3c-1-0.1-1.6-0.2-2.3-0.3C490.4,24.3,490.4,25,490.3,25.6z M518.2,7.9   c2.3-1.7,2.3-1.7,1.1-2.9C518.4,5.7,518.7,6.5,518.2,7.9z M483,39.3c1.4,0.6,2.7-1.5,1.8-2.3C484.2,37.7,483.7,38.4,483,39.3z    M510.2,11.4c-1.1-0.1-1.5,0.1-1.1,1.2C509.5,12.2,509.7,11.9,510.2,11.4z M502.3,15c-0.2-0.3-0.3-0.4-0.3-0.6   c-0.4,0.2-0.7,0.4-0.5,0.9C501.8,15.2,502,15.1,502.3,15z" />
	<path display="inline" fill="#010101" d="M547.8,157.5c-5,3.7-10.3,6.9-15.2,11c-0.4,11.8,0.6,23.8-3.7,35c-0.8,2.4-3,3.9-2.4,7.3   c0.9-0.4,1.6-0.6,2.7-1.1c3,3.6,0.8,9.9,2.5,14.2c11.4,9.9,4.2,8.9,5.4,21.3c-0.4,0.2-0.9,0.5-1.3,0.7c-0.3-3.7-1.5-7.5-0.3-11.1   c1.8-5.3-6.5-7.9-7.9-20.6c-0.1,0-0.3,0-0.4,0.1c0,0.8-0.1,1.6-0.1,2.4c-0.3,0.1-0.7,0.1-1.2,0.2c-0.2-1.2-0.3-2.3-0.6-3.5   c-2.1-0.3-3.6,0.3-5.2,0.6c-2.4-1.1-6.2-1-8.7-0.1c-2.6-0.4-6.8-1.6-9,0.2c0,0.8-0.1,1.6-0.1,2.3c-0.1,0-0.3,0-0.4,0   c-0.2-0.9-0.4-1.8-0.6-2.8c-0.8-0.1-1.4-0.1-2-0.1c-0.9,1.1,0.1,2.5-1.1,3.3c-0.1-1-0.2-2-0.3-3.3c-0.6,0.1-1.1,0.2-1.7,0.4   c0,1,0,1.9,0,2.8c-2.3-0.1-1-2.4-2.3-3.2c-1.1,0.1-2.5-0.7-3.7,0.5c-1.6-0.8-1.6-0.8-2.1,0.6c-0.5-0.5-1-0.9-1.6-1.4   c-0.4,0.5-0.6,0.9-0.8,1.2c-1.4-2.5-9.3-2.4-12.4-2.4c-0.1,0.9-0.1,1.7-0.1,2.5c-0.3,0-0.7,0-1.2,0.1c-0.1-1-0.2-2-0.3-3.1   c-3-0.6-6.4-1.1-9.3-1.4c-1.8,0.7-0.2,2.1-0.9,3c-1.4-0.8-0.6-2.3-1.4-3.5c-1.6-0.2-2.6-1.2-4.1-2.4c1-0.3,1.7-0.4,2.2-0.9   c-0.4-0.8-0.4-1.9-1.7-2.1c-0.3,1.8-1.4,2.8-3.1,3.1c0,0.8,0,1.4,0,2.1c0.7,0,1.2,0,1.9,0c-0.2,1.5-0.8,2.8,0.2,4   c-1.4,1.3-4.1,0.8-5.6-0.2c-0.2-2.9,0.3-5.7,2.3-8c0.5,0,1.1,0,1.7,0c0.2-6.1,4-11.6,2.8-17.6c-0.4-3.7-1.8-7.2-0.8-10.9   c-10.3-8.4-15.2-18.9-15.6-32.2c-10.4-9.2-10.3-26.1-5.3-38.2c0.2,0.5,0.5,1,0.7,1.5c-5.6,31.7,8.7,27.3,10.4,56   c9,8.6,17.2,18.4,26.3,26.6c4.2-2.7,8.9-3.4,13.9-3.7c11.9-2.5,22.6-8.1,33.5-13.1C528.6,171.1,539.9,155.6,547.8,157.5z    M481.1,210.4c13.2,1.6,26.8,1.8,40,1.7c7.9-12.4,9-27.6,9.5-42c-14.8,7.4-28.7,18.1-45.8,18.5c-2.8,0.6-5.8,0.6-8.2,2.6   c-8.1,6.4-12-9.6-18.4-11.3c1.8,7.4,2,12.1-0.4,19.3c0.3,2.2,3.2,9.9,5.9,8.9c-0.1-1.1-1.5-1.8-0.8-3.3c2.1,0.6,2,3.1,3.7,4.1   C471.3,209.7,476.3,209.9,481.1,210.4z M523,211.3c1.2,0,1.9-0.4,1.1-1.6C523.7,210.3,523.3,210.8,523,211.3z" />
	<path display="inline" fill="#030202" d="M509.5,75.7c-0.4,0.3-0.8,0.6-1.2,0.9c0,1.3,0,2.7,0,4.3c6.6,2.3,11.2,7,17,11   c16.4,0.9,31.7,10.3,38.4,26.2c1.9,5.7,4.5,10.4,9.7,13.7c-15.4,5-30.8,12.2-46.7,16.4c-0.9-0.2-1.8-0.5-2.8-0.8   c-16.5,7.7-36.8,2.6-52.7,11.3c0.8-4.9,7.6-6,11.8-6.6c0-10.6-14.1-16.3-9.5-27.3c0.4,0.5,0.8,0.9,1.3,1.4   c-0.1,1.8-0.2,3.7-0.3,5.9c5,6,10.6,12.3,11.8,20.4c13.9-2.3,27.7-5.3,41.4-6.1c3.1-1.4,6-2.7,8.9-4c1.8-5.1,3.4-10.3,5-15.4   c1.5-1.1-0.3-3.4,1.5-4.4c1.7,1,1.2,3.9,0.7,5.4c0.9,4.7-6.8,9.6-2.2,13.4c3.9-0.1,7.8-1.8,11.2-3.8c5-2.7,11.3-3.1,15.5-7.1   c-1.3-1.1-2.5-2.2-3.9-3.4c-5.2-17.6-18.8-31.5-37.6-33.3c-0.6,0.3-1.1,0.7-1.5,1.2c-2.2-3.1-6-3.8-8.3-6.9   c5.6,11.6,17.3,29.2,6.1,41c-2.1-1.9,3.6-10.2,1.9-14.8c-1.7-11.3-6.2-25.5-16.7-31.2c-0.4,2.5-0.8,4.6-1.6,7c-0.4,0-0.9,0-1.3,0   c-0.2-0.6-0.4-1.3-0.6-1.9c1.1-3.4,0.8-7.2,1.4-10.8c1.1-0.4,0.1-1.4,0.5-2.1C507.5,75.2,508.6,74.6,509.5,75.7z M539,141   c-0.1,0.1-0.2,0.3-0.3,0.4c0.4,0.2,0.6,0.3,0.9-0.2C539.4,141.2,539.2,141.1,539,141z" />
	<path display="inline" fill="#040303" d="M522.2,127.5c0,0.6,0,1.3,0.8,1.5c-7,11.5-25.5,3.9-29.9-6.8c-7-15-14.9-30.6-27.6-41.4   c-0.9,0.5-1.7,1.1-2.3,2.1c10.9,10.3,13.9,26.7,11.4,41c-1.1-8.8-1.3-17.9-5.1-26.5c-1.6-0.7-3.2,0.3-4.3-1.5   c1.4-0.2,2.5-0.4,3.6-0.6c-1.4-4.4-4.2-7.9-7-11.7c-3.8,3.6-7.7,6.2-12,9.1c-0.2-0.2-0.4-0.5-0.7-0.7c9.7-10.9,28.7-18.4,25.4-36   c0.4-1.1-0.3-2.5,0.8-3.9c5.5,7.5-0.4,16.7-3.6,24c-2,0.5-3.5,1.9-4.9,3.5c28.1,20.8,21.7,50.3,43.8,52.6c0.3-3.6-2.2-6.4-2-9.9   c3.4,2.5,3.2,6.5,4.7,10.1C517.6,133,520.6,130.7,522.2,127.5z" />
	<path display="inline" fill="#050405" d="M567.7,302.7c-0.3-0.3-0.5-0.5-0.8-0.8c0.9-0.6,1.8-1.3,2.8-2   c-4.6-11.1-10.2-21.6-16.4-31.8c0.3-0.3,0.6-0.7,1-1c16.1,22,24.2,49,23.3,75.7c-5.4,18.2-24.3,14.3-39,16.4   c-1.7-1-3.8-0.6-5.8-0.7c50.8-2.4,45.8-12.3,37.2-57.1C569.1,302,568.4,302.4,567.7,302.7z" />
	<path display="inline" fill="#0A0707" d="M547.8,157.5c-0.2-0.8-0.8-0.8-1.5-0.8c0.8-0.7,1.5-1.3,2.3-2   c13.2,0.9,28.5-12.6,38.8-0.3c-2.1,1.8-4.7-2.6-7-1.2c-2.4-2.7-6.4-3.2-9.5-1.3c-1.9,1.4-5.1,0.8-6.3,3.2c-1,0.1-2,0.2-3.2,0.3   c0.7,1,1.3,1.8,2,2.9c-2.7,0.3-3.7-1.7-5.1-2.9c-1.4,0.3-2.7,0.5-4.4,0.8c4.3,4.8,9.2,7.9,14.3,11.3c-0.3,0.2-0.6,0.4-0.9,0.7   c-6.1-1.7-11.5-6.8-15.4-11.9c-1-0.1-1.9-0.2-2.7-0.2C548.8,156.5,548.3,157,547.8,157.5z" />
	<path display="inline" fill="#0A0808" d="M567.4,168.1c0.3-0.2,0.6-0.4,0.9-0.7c6.8,5.1,12.2,7.9,20.9,4.9   c15-13,4.5-10.7,12.3-20.9c1.3-2,3.3-3.6,3.6-6.1c0.2-0.2,0.2-0.4,0.1-0.6c0.2-0.3,0.4-0.5,0.7-0.8c0.3,0.3,0.5,0.6,0.8,0.9   c-0.1,2.5-1.1,4.6-2.9,6.2c-5.3,4.5-2.4,12.2-7.2,17.1c-5.5,7.3-17.9,11.7-24.8,4.1c-1.4-1.1-2.2-3.4-4.2-3.5   C567.5,168.4,567.5,168.2,567.4,168.1z" />
	<path display="inline" fill="#110F10" d="M454.4,558.5c-0.3,0.3-0.6,0.6-1,0.8c-20.8-10.1-11.1-22.4-17.4-36.9   c-2.3-2.3-7.1-6.7-4.6-9.9C449.1,533.6,430.4,544.1,454.4,558.5z" />
	<path display="inline" fill="#0B0A0E" d="M434.2,271.1c5.3-17.6-2.7-42.3,10.6-55.7c0.3,0.3,0.6,0.5,0.9,0.8   c-11.9,16.7-5,39.1-10.7,58.2C434.1,273.4,434.2,272.2,434.2,271.1z" />
	<path display="inline" fill="#171211" d="M571.7,132.6c0.6-0.2,1.4-0.1,1.6-0.9c0.3-0.1,0.7-0.1,1-0.2c-0.2-2.2,0-2.7,1.5-5.9   c2.4-0.2,4.4,1.4,5.4,3.5c-0.1,0.4-0.2,0.9-0.3,1.3l0.1-0.1c-0.9,0.3-1.2,0.9-1.3,1.6c1.9,1.7,2.8,4.7,5.1,5.4   c1.2,1.5,0.8,4.1,2.8,5c1.1,1.4,2.9,2.5,3.4,4.3c-0.3,0.3-0.6,0.6-0.9,0.9c-4.4-5.5-7.3-9.6-15-8.6c-0.4,0-1,0-0.9-1   c2.3-0.7,4.9-0.3,7.3-0.5c-1.7-3.4-4.9-2.4-7.2-2.9C573.9,133,573,133,571.7,132.6z M575.6,131.5c0.9,0,1.8,0,2.6,0   c0.1-1.1,0.3-2,0.4-3.1c-0.7-0.4-1.4-0.7-2.2-1.1C576.1,128.8,575.9,130.1,575.6,131.5z" />
	<path display="inline" fill="#0B0D12" d="M434.2,271.1c0,1.2-0.1,2.3,0.8,3.2c0.2,14.5-0.9,28.9-2.1,43.2   C429.5,302.8,433.9,286.2,434.2,271.1z" />
	<path display="inline" fill="#120F10" d="M431.5,512.5c-1.1,0.5-0.6,1.5-0.8,2.2c-2.1-5.8-0.2-13.1,5-16.6c4.5-3.4,5.7-9.1,9.7-13   c0.9,0.2,1.9,0.3,3.1,0.5c0-1.6,0-3,0-4.4c1.3,2.1,0.4,4.8,0.6,7.2c-0.3-0.5-0.5-1-0.9-1.6c-1.1-0.1-2.3-0.3-2.7,1.2   c-3.9,3.1-4.8,8.4-8.6,11.5C433,502.7,431.7,507.8,431.5,512.5z" />
	<path display="inline" fill="#1B1A19" d="M515.8,65.1c2.5-5.6,0.6-12.3,4.2-17.5c-0.6-2.4-0.6-5.3,0.7-7.2l0,0   c2.4,5.4,0,10.6-1.2,15.9c-0.6,3.5-0.5,7.4-3,10.3C515.8,66.3,515.9,65.7,515.8,65.1z" />
	<path display="inline" fill="#321B1A" d="M477.7,56.1c-0.7-1.2-1.4-2.4-2.2-3.9c-1.2,1.4-0.4,2.8-0.8,3.9c-1-3.3-1-6.8-2-10.1   c0.6-0.1,1.1-0.3,1.9-0.4c1.2,0.8,2.2,1.7,1.2,3.6c0.9,0.2,1.7,1.1,2.9,0.5c-0.4-0.8-0.7-1.6-1-2.3c0.9,0.4,1.8,0.8,2.7,1.3   C479.9,51.3,478.6,53.6,477.7,56.1z" />
	<path display="inline" fill="#1C171F" d="M554.3,267.1c-0.3,0.3-0.6,0.7-1,1c-5.5-7.6-11.3-15.2-17.4-22.2c0.5-0.1,1.2-1,1.6-0.6   l-0.1,0.3l0.3,0.1c0.1,0.2,0.3,0.3,0.5,0.5v0.2h0.2C543.3,253.5,549.7,259.6,554.3,267.1z" />
	<path display="inline" fill="#201A19" d="M449.2,92.1c0.2,0.2,0.4,0.5,0.7,0.7c-0.2,0.5-0.5,0.9-0.7,1.4   c-6.3,2.4-11.3,7.1-13.4,13.6c-0.2-0.5-0.5-1-0.7-1.5C437,99.6,442.8,94.3,449.2,92.1z" />
	<path display="inline" fill="#15171C" d="M432.1,315.9c0.1,0.6,0,1.3,0.7,1.7c-0.2,1.3-0.3,2.5-0.5,3.8c2.2,4.6,7.7,5.3,10.4,9.7   c-0.3,0.3-0.5,0.6-0.8,0.9c-3.8-3.2-8.2-5.5-11.1-9.8C430.8,320.1,431.3,317.9,432.1,315.9z" />
	<path display="inline" fill="#2E2827" d="M606.7,144.7c-0.3-0.3-0.5-0.6-0.8-0.9c0-1.5,0.3-3.5-1.4-4.2c-2.7-3.1-2.8-7.8-7.1-9.1   c0-0.3,0-0.5,0.1-0.8c3.2-1,5,2.5,6,5C604.6,137.9,609.2,141,606.7,144.7z" />
	<path display="inline" fill="#343333" d="M476.9,12c0.1,0.3,0.2,0.7,0.3,1.3c0.7-0.2,1.3-0.3,2.1-0.5c0.5,0.6,1.1,1.2,1.8,1.9   c0.8,0.1,1.7-1.1,2.7,0.5c-0.2,0.4-0.4,1-0.8,1.8c-0.9-0.5-1.7-0.9-2.6-1.4c-1.9,0.1-3.4,2-5.5,2.1c-0.5-1.6,0.8-2.2,0.4-4   C475.6,13.2,476.2,12.6,476.9,12z" />
	<path display="inline" fill="#322624" d="M509.5,75.7c-0.8-1.2-2-0.5-3-0.6c-0.4,0.7,0.6,1.6-0.5,2.1c-2.1-3-6.8-1.7-9-5   c1.2,0,1.9,0,2.5,0c3.2,2.3,7.3,1.4,10.7,2.6c0,0.3,0,0.6-0.1,0.9C510,75.7,509.7,75.7,509.5,75.7z" />
	<path display="inline" fill="#221E1E" d="M482.6,7.5c0.2,0.6,0.3,1.3,0.5,1.9c-1.6,0.6-1.9-1.2-3-1.4c-0.6,0.5-0.9,1.4-1.9,1   c0.2-0.3,0.4-0.5,0.8-0.9c-0.6-0.9-1.3-1.8-1.9-2.8c0.7-1.6,1.9-0.3,2.6-0.5C480.7,5.8,481.6,6.7,482.6,7.5z" />
	<path display="inline" fill="#343332" d="M515.8,65.1c0.1,0.6,0,1.2,0.7,1.4c-1.4,3.2-1.3,8.6-5.6,9.2c0-0.3,0-0.5,0-0.8   C513.6,72.5,514,68.3,515.8,65.1z" />
	<path display="inline" fill="#2D2626" d="M520.8,29.7c0.3-0.3,0.5-0.6,0.8-0.8c0.5,0.8,0.9,1.6,1.5,2.5c-0.8,2.7-1.5,5.5-2.3,8.2   c-0.2,0-0.5,0-0.7-0.1c-0.2-1,0.4-2.4-0.7-2.9c0.1-0.7,0.9-1.9-0.2-2.1C521.6,33.7,521.8,31.6,520.8,29.7z" />
	<path display="inline" fill="#352827" d="M597.4,129.7c0,0.3,0,0.5-0.1,0.8c-0.7-0.1-1.4-0.1-2.1-0.2c-0.7-0.9-1.3-1.8-1.8-2.5   c-1.7-0.1-3.1-0.1-4.4-0.1c-0.3-0.3-0.6-0.5-0.9-0.8C591.7,125,595.7,126.2,597.4,129.7z" />
	<path display="inline" fill="#493A39" d="M588.2,126.9c0.3,0.3,0.6,0.5,0.9,0.8c-3.3,1.6-4.2-3.4-7.8,1.5c-0.3-0.5-0.6-1-0.9-1.5   c1.3-0.8,2.2-2,3.8-2.2C585.4,125.8,586.8,126.4,588.2,126.9z" />
	<path display="inline" fill="#1A191A" d="M429.3,376.3c0.1,0.6,0,1.3,0.8,1.5c-0.2,2.8-0.5,5.7-0.7,8.5c-1.6-0.7,0.2-2.8-1.4-3.5   C427.8,380.5,428.1,378.3,429.3,376.3z" />
	<path display="inline" fill="#281E2A" d="M445.7,216.1c-0.3-0.3-0.6-0.5-0.9-0.8c1-1.1,1.9-2.3,2.8-3.4c0.8-0.1,1.5-0.1,2.2-0.2   c0,0.5,0,0.9,0.1,1.4c-0.4-0.1-0.9-0.2-1.1-0.2C447.7,214.1,446.7,215.1,445.7,216.1z" />
	<path display="inline" fill="#1A191A" d="M427.9,387c1.2,1.2,0.5,3,0.6,4.5C427.8,390.1,427.8,388.6,427.9,387z" />
	<path display="inline" fill="#FBDFD3" d="M521.4,42.6c-0.3-0.7-0.5-1.5-0.8-2.2C522,40.8,521.5,41.8,521.4,42.6z" />
	<path display="inline" fill="#EDC9B9" d="M567.4,168.1c0.1,0.2,0.1,0.3,0.1,0.5c-0.6,0.2-1,0.1-1.3-0.5   C566.7,168,567.1,168,567.4,168.1z" />
	<polygon display="inline" fill="#5876E8" points="538.3,246.4 538.1,246.4 538.1,246.1 538.3,246.2  " />
	<polygon display="inline" fill="#5876E8" points="537.6,245.7 537.4,245.6 537.5,245.3 537.7,245.4  " />
	<path display="inline" fill="#DEBEAF" d="M448.6,92.1c-0.3,0.2-0.6,0.3-0.8,0.5C448,92.4,448.3,92.3,448.6,92.1z" />
	<path display="inline" fill="#DEBEAF" d="M450,90.7c-0.2,0.3-0.5,0.6-0.7,0.8C449.6,91.3,449.8,91,450,90.7z" />
	<path display="inline" fill="#030202" d="M510.9,75c0,0.3,0,0.5,0,0.8c-0.2,0-0.5,0-0.7,0c0-0.3,0-0.6,0.1-0.9   C510.5,74.8,510.7,74.9,510.9,75z" />
	<path display="inline" fill="#5876E8" d="M535.9,245.9c14.3,15.8,25.7,34.2,33.8,54c-9.9,5.8-21.2,12.4-32.8,13.1   c1.1-1.1,2.1-2,3.2-3c-0.6-5.1-5.8-10.8-9.3-15.1c-6.2-11-15.5-22.6-26.9-28.4c-1.1-2.3-3.1-3.9-3.8-6.3c-1,0.4-2.1,0-3.4,0.4   c4.4,5.8-2.9,15.2-0.1,21.9c1.1-1.1,0.9-2.6,1.1-3.9c2,28.8,15.1,65.5-28.2,63.8c-5.2-0.4-12.6,3-16.6-0.7c0.9-0.8,1.9-1.7,2.7-2.4   c-0.9-4.6-0.3-7.9,0.4-12.5c2.5,2.4,3.7,5.8,6.5,6.9c-4.1-25.3-10.1-11.2-4.1-45.1c2.5,6.7,1.9,14.7,5.5,21   c-1-22.5-7-46.5-1.5-68.8c1.2,3.3,2.5,6.6,3.7,9.9c2.2-2-1.3-14.7-2.4-18.5c1-5.5,6.2-8.8,7.5-14.3c6.4-0.2,12.5-1.2,18.9-1.1   c0.5-1.1,0.3-1.8,0.2-2.8c1.2-1.1,2.6-0.3,3.7-0.5c1.3,0.9,0,3.1,2.3,3.2c0-0.9,0-1.8,0-2.8c0.5-0.1,1-0.2,1.7-0.4   c0.1,1.2,0.2,2.3,0.3,3.3c-3.2,2.8,13.7,2.4,15.5,1.4c1.8-0.6,3.4-0.4,5.1,0c3.1-1.8,9.4,1.7,8.4-3.9c0.1,0,0.3,0,0.4-0.1   c1.4,12.8,9.7,15.2,7.9,20.6C534.4,238.4,535.5,242.2,535.9,245.9z M487.6,302.1c0.9-1.6,0.7-3.3,0.3-5.2   c-2.4,2.6-2.9,16.5-1.4,20.2C486.9,312.1,487,307.1,487.6,302.1z M500.3,247.3c-0.8-6.9,1.5-14.6-1.3-20.9c-0.6,9,0,17.6,1.2,26.5   c-1.1,0.1-2,0.6-2.9,1.7c3.4,6.7,16.9,16.1,24.3,17.3c-2.4-6.4-9.8-9-13.5-14.2c4.2,1.1,8.5,3.5,12.9,1.9   c-4.4,0.5-11.2-4.3-14.2-2.4C499.4,254.2,502.3,253.2,500.3,247.3z M493.8,275.6c1.1-2.8,3.4-5.2,1.8-8.5   c-2.3,6.6-6.2,12.1-9.8,18.4c4.4-1,7.2-4.7,9.6-8.4C494.7,276.6,494.2,276.1,493.8,275.6z M515.9,242.5c-3.2,1-6.2,2.5-9,4.6   c7.7-1.1,16.9,2.2,23.7-2.1C531.8,239.5,519.2,241.9,515.9,242.5z M471.2,221.7c-0.9,3.9-1,7.4-0.2,10c0.4-1.4,0.7-2.5,1.1-3.5   c2.3,3.2,0.1,8.2,3.6,10.6c3.5-2.9,1.9-7.8,2.7-11.7c0.5-2.3,0.9-4.5,0.7-7C476.6,216.6,473.1,219.3,471.2,221.7z M462.9,254   c-0.9,5.6,1.9,9.5,2.9,14.7c2.9,8.3,3.3,17.3,7.4,25C471.2,280.4,470.6,265.3,462.9,254z M506.5,239.5c7.3-0.8,14.5-1.3,21.8-1.6   C521.7,234.8,513.2,237.3,506.5,239.5z M533.1,234.9c-5.3-4.3-12.4-4.6-19.2-4.4C520.2,232.9,526.2,232.3,533.1,234.9z    M490.2,236.5c-3.3-5-3.6-10-4.6-15.6C484.9,225.9,484.6,234.6,490.2,236.5z M519.7,222.3c1.9,1,3.4,3.1,6.4,3.1   C524.1,223.4,522,222.7,519.7,222.3z" />
	<path display="inline" fill="#FBDFD3" d="M489,345.3c-1.9,8.9-4.9,18.7-5.6,28.2c-3.5,13.2-9.3,25.5-6.7,39.4   c-3.5,27.2-12,54.6-8.9,82.3c-3.6,2.7-8.8,2.2-13.6-1c-1-12.2,1.7-24.7-1-36.8c-0.3,0.8-0.5,1.5-0.7,2.4   c-2.7-21.8-14.9-43.3-5.7-65.1c0.5,0.7,0.7,1.1,1,1.4c-2.8,7.6-3.7,25.7,0.4,32.7c2.1-16.2,0.8-32.8,8-48.1c1.1,3.4,0.5,6.6,3,9.1   c0.5-13.3,3.1-27.4-2.6-39.9c10-1.8,21.4-2.2,30.3-7.7c0.6,0.1,1.2,0.1,1.5-0.7l0,0C491.4,342.1,488.1,343.5,489,345.3z    M468.2,377.5c-0.6,1.1-0.8,2.2,0.1,3.2c-0.3,3.1-0.2,8.3,4.1,8.2c-0.5-4.4,2.1-11.4-1.5-14.1c0.3-1.3,1-2.5,1.2-4.6   C469.9,372.6,469,374.6,468.2,377.5z M474,366.4c-0.7,1.1-3.5,2.8-1.2,3.7c2.1-3.8,8.3-6.6,7.4-11.7   C477.6,361.1,475.8,363.7,474,366.4z M471.5,411.7c1.5-1.8,4.6-10.1,2.3-11.3C472.2,403.9,471.2,408.3,471.5,411.7z M470.8,417.4   c1.1-1,1.4-2.1,0.8-3.6C470.2,414.8,470.1,415.9,470.8,417.4z M468.6,428.4c1.4-0.8,1.4-0.8,0.6-2   C468.4,426.9,468,427.5,468.6,428.4z M469.3,423c0.1,0,0.3,0,0.4-0.1c0-0.6,0-1.2,0-2.3C468.9,421.9,468.9,421.9,469.3,423z" />
	<path display="inline" fill="#4B65C5" d="M481.9,217c-3.4,1.4-7.2,0.1-10.7,0.9c-1.4,5.5-6.6,8.8-7.5,14.3c1,3.8,4.6,16.5,2.4,18.5   c-1.2-3.3-2.5-6.6-3.7-9.9c-5.5,22.3,0.5,46.4,1.5,68.8c-3.6-6.3-3-14.3-5.5-21c-6.1,33.8,0,19.8,4.1,45.1c-2.7-1.1-4-4.5-6.5-6.9   c-0.7,4.6-1.3,7.8-0.4,12.5c-0.8,0.7-1.8,1.6-2.7,2.4c-5.8-3.9-8.6-10.8-14.3-14.6c-3.5-2.1-4.1-2.7-6.1-5.7   c3.2-21.7,1.2-43.9,5.6-65.5c0.8-14.7-1.4-32.3,10.9-42.9C459.2,216.2,470.7,217,481.9,217z M442.2,320.4c-0.5,5.2-0.4,5.8,1.1,7.9   c-0.4-3.5-1-6.5,0.5-9.7c0.3,0,0.6,0,1.2,0.1c-0.8-2-0.8-3.7-0.4-5.8c-0.6,0.3-1.1,0.5-1.6,0.7c-2.5-4.4-3.3-8.4-6.7-12.6   C437,308.1,444.2,313.1,442.2,320.4z M441.4,271.4c-0.1,0.6-0.1,1.1-0.2,2.3c-1.2-2.1-0.9-7.8-3.3-6.7c4.5,10.7,5.9,21.8,6,33.5   c-3.4-3.4-4.2-7.5-7.2-11.2c3.3,11.4,11.4,21.6,17.7,31.9c-1-8.4-8.6-13.7-9.5-21.8c0.3-14-4-27.5-1.6-41.5   C440.4,261.5,441.7,267,441.4,271.4z M446.8,236.7c2.2-2.9,3.4-7.9,3.6-11.6C448.4,228.8,447.1,232.5,446.8,236.7z M462.9,227.1   c1.3-2.1,4.1-5.8,2.7-8C464,221.5,463.1,224.2,462.9,227.1z M454.2,306.4c-0.4-3.3-2.2-5.3-3.4-8.4c-0.2,3.2,1.9,4.9,2.1,7.1   C453,305.4,453.5,305.6,454.2,306.4z" />
	<path display="inline" fill="#FBDFD3" d="M567.7,302.7c0.7-0.4,1.4-0.8,2.3-1.3c3.7,23.4,17,57.6-20.6,55.1   c-20.2,2.9-40.9,3.5-61.4,5c0.2-5,2.8-11.8,4.9-16.8c7.3-2.2,13-7.5,20.3-9.5c5.6-3.4,18.4,0.3,18.2-8.9l0.1-0.1   c2.8,1.1,3.3,5.5,4.5,8c3.1-3.3,3.8-7.5,2.6-11.2c0.7-0.4,1.4-0.7,2.1-1.1c8.6,5.3,4.8,18.1,14.1,22.7c-0.2,1.2,0.5,1.8,1.4,0.8   c2.4,0.1,1,3.4,5.4,3.5c5.3,2,10.6-7.8,8.9-9.2c-0.8,1.2-2.2,0.4-2.6,1.7c0.3,0.3,0.6,0.6,0.9,1.1c-1.9,3-4.1,5.5-8,4.8   c-0.7-1.1-2-1.7-2.4-2.7c-1-5.3-5.2-9.1-6.6-14.2c-2-3.8-6.9-5.6-8.4-10C553.1,315.9,559.2,308.3,567.7,302.7z M526.6,353.8   c7.1-2.6,7.8-2.9,9-4.8c-2.4-0.4-7.6,2.2-11.1,4.9C525.4,354.8,526,354.4,526.6,353.8z M510.2,355.5c1,1.1,1,1.1,2.8,0.7   C512.3,355.4,511.5,355.2,510.2,355.5z M515.7,355.3c1.2,0.8,2.1,1.3,3.5,1C518.3,354.8,517.2,354.7,515.7,355.3z M506.6,355.2   c-0.7,0-1.3,0-2.1,0C505.9,356.3,505.9,356.3,506.6,355.2z" />
	<path display="inline" fill="#E4E4EB" d="M445.6,488.2c0.4-1.6,1.6-1.4,2.7-1.2c4.5,8.9-11.5,13.8,5.9,17.2   c1.5-1.6,1.9-3.7,3.5-5.1c3.6,0.2,7-0.2,10.3-1.5c1.8,1.1,3.5,2.2,5.1,3.2c0.6,2.8-0.5,5.2-1.2,7.8c-20.8-3.7-22.8,3.7-0.2,1.8   c1.3,1.1,0.6,2.3,0.8,3.3c-5.7-0.8-11.3-1.4-17.1-1.2c3,5.9,11.7,1.5,16.7,2.6c-0.1,1-0.3,2-0.4,3c-4.2,0.3-12.6-3-15.4,0.7   c2.8,4.4,15.6-2.5,15.5,2.8c1.3,10.2-0.8,21,3.6,30.7c1.1,2.7-0.3,5.5-0.6,8.4c-17.1-0.1-34.2-9.8-33.5-28.9   c2.5-9.7-1.8-10.7-6.2-17.7C433.3,502.3,444,505,445.6,488.2z M458.2,524.1c3.3,1.8,8.3,1.9,11.6,0   C469,521.9,458.2,520.5,458.2,524.1z M470.6,530.3c-1.9-0.8-12.3-4.2-8.8,0.4C464.5,532,468.7,533.1,470.6,530.3z" />
	<path display="inline" fill="#4B65C5" d="M498.2,263.8c0.1-1.2-0.6-2.1-1.7-3.2c1.3-0.4,2.4-0.1,3.4-0.4   c4.4,15.2,20.3,25.8,31.3,36.5c0-0.4,0-0.7,0.1-1c3.5,4,8.2,9.6,8.7,14.4c-1.1,1-2.1,2-3.2,3c0.3,0.1,0.7,0.2,1.1,0.3   c-0.6,1.6-5.2-1-3.5,0.7c-8.8,2.1-17.3,5.5-25.5,9.1c-2.1-7-5.4-13.6-5.3-21.2c-2.6,3.1-0.6,7.3-2.6,10.8   c-0.9-11.4-2.1-23.1-3.5-34.2c-0.7-5.5,2.4-11.6,1.6-16.6C498.9,262.6,498.5,263.2,498.2,263.8z M498.7,272.5   c3,4.8,11.6,14.1,14.9,16.3C509.3,283.1,504.4,277.2,498.7,272.5z M507.9,299.6c-0.4-2.9-1.9-5.2-4-6   C505.5,295.7,506,298.3,507.9,299.6z" />
	<path display="inline" fill="#EECABA" d="M445.7,417c0.2-6.2-1-12.7,1.2-18.7l0.2,0.2c-0.1,2.2-0.8,4.4,0.4,7.2   c0.5-4.7,3.7-9.1,2.1-13c-0.7,1.4-1.3,2.5-1.8,3.7c-0.5-0.4-0.5-0.8-1.2-1.6c-9.3,21.9,2.9,43.3,5.7,65.1c0.3-0.9,0.5-1.6,0.7-2.4   c2.7,12.2,0,24.7,1,36.8c-1.7-1.3-1.7-1.3-2.7-3.6c0.2-0.5,0.4-1,0.7-1.8c-2.3-3.2-1.1-7.5-1.3-11.2c-1.3-8-3-16-3.9-24.3   c-3.1-15.2-10.8-30.4-6.8-46.3c10.3-23.2,19.8-37.5,10.5-63.5c10.7,3.1,22.9-0.2,34.2-0.6c-7.8,5.7-19.2,4.8-28.2,7   c5.7,12.5,3.2,26.7,2.6,39.9c-2.4-2.5-1.9-5.8-3-9.1c-7.2,15.3-5.9,31.9-8,48.1c-2.5-3.4-2.5-6.7-2.3-10.8c0.3,0.4,0.7,0.8,1.1,1.2   c0.4-2.3,0.3-2.3-0.3-3.5C446.3,416.2,446,416.6,445.7,417z M456.8,358.8c-1.9,0-1.7,4.7,0.3,5.2   C457.2,362.2,457.5,360.5,456.8,358.8z M447.7,407c-1.6,2.6-1.6,2.6-0.1,4.6C448.1,410,448.1,408.6,447.7,407z M456.7,353.9   c-1.1,0-1.4,1.2-0.4,1.8C456.9,355.1,457.2,354.6,456.7,353.9z M446.6,424.7c0.6-0.5,0.4-0.8,0.1-1.5   C446.2,423.7,446.4,424,446.6,424.7z" />
	<path display="inline" fill="#E4E4EB" d="M446.4,338.8c3.2,10.7,5.3,21.5,5.4,32.7c-0.7,0.3-1.3,0.6-2.1,1c0.5,0.9,0.9,1.8,1.4,2.8   c-0.2,0.3-0.3,0.6-0.5,0.9c-4.3-1.7-3.5,0.6-1.7,3.5c-0.3,0.6-0.6,1.2-0.9,1.9c-0.8,0.2-1.5,0.3-2.5,0.6c1.1,3.4,1.4,3-1.9,4.6   c0.3,0.6,0.5,1.2,0.9,2c-1.7,4.1-3.5,8.3-5.3,12.6c-0.3,0.1-0.6,0.3-1,0.4c-0.9-0.6-1.9-1.2-2.8-1.9c-3.6-9.7-4.5-24.7,6.4-29.9   c2.2-0.8,3.4-2.4,3.7-4.7c0.1-6.4,3.8-14.2-1-19.5C445.7,343.2,445.1,340.8,446.4,338.8z" />
	<path display="inline" fill="#EDCABA" d="M557.7,345.9c-0.5-1.1-2-0.6-2.9-1.4c0-0.6,1-1.2-0.1-1.7c-0.9-0.4-1.2,0.3-1.3,1   c-0.5-0.5-0.9-0.9-1.4-1.4c1.7-0.5-0.2-2.5-0.7-0.7c-5.4-6.2-2.9-14.9-10.6-19.8c-0.7,0.4-1.4,0.7-2.1,1.1   c1.2,3.7,0.5,7.9-2.6,11.2c-0.6-1.7-1.2-3.4-1.8-5.1c0.4-0.1,0.8-0.2,1.2-0.3c0.5-3,0.5-3-0.2-4.9c-1.5,1.3-0.7,3.4-1,5.2   c-0.9-0.9-1.1-2.8-2.6-2.8c1.6-3-2.3-5.7-4-7.8c10.5-3.3,22.7-4.7,32.9-10.8c-4.2,5.9-10.7,9-17,12.5c1.5,4.4,6.4,6.2,8.4,10   c1.4,5.2,5.7,8.9,6.6,14.2c0.1,0.5,0.9,1,1.3,1.5C559.1,345.9,558.4,345.9,557.7,345.9z M533.7,321.9c1.7-1,1.7-1.2,0-2.3   C533.7,320.4,533.7,321.1,533.7,321.9z" />
	<path display="inline" fill="#CECEDC" d="M445.6,488.2c-1.5,16.8-12.3,14.1-10.4,25.8c4.5,7,8.7,8,6.2,17.7   c-0.3,19.1,14.6,27,31.4,29.2c-11.4,4.2-24-4.2-30.5-13.5c-3.7-8.5,0.4-20.2-6-27.6C424.1,509.3,439.4,497.4,445.6,488.2z" />
	<path display="inline" fill="#CECEDC" d="M446.4,338.8c-1.3,2-0.7,4.4-1.9,6.8c4.8,5.3,1.1,13.1,1,19.5c-0.3,2.2-1.5,3.9-3.8,4.7   c-11,5.2-10.1,20.2-6.4,29.9c0.9,0.6,1.9,1.2,2.8,1.9c0.4-0.2,0.7-0.3,1-0.4c-0.2,0.8-0.4,1.5-0.6,2.5c-11,0.4-8.8-18.3-8.5-25.9   c11.6-11.7,15.2-18.5,11.4-35.4c1.1-2.1,2.6-3.5,4.5-4.9C446.2,338.1,446.3,338.4,446.4,338.8z" />
	<path display="inline" fill="#EDCABA" d="M531.5,326.2c0.2,9.3-12.6,5.5-18.2,8.9c-7.4,2.1-13,7.3-20.3,9.5   c-0.4,0.6-0.8,1.2-1.2,1.9c0.3-2.4,0.3-4.3,0.3-6.9c9.2-4.7,18.3-10.1,28.4-12.8C523.9,327.3,528.5,328.7,531.5,326.2z" />
	<path display="inline" fill="#FCFDFD" d="M503.9,313.2c2,3.6,2.3,8.1,4,11.7c1.3,0.8,2.3,0.3,3.2-0.3c4.3-2.6,9.1-4.3,14-6.4   c1.7,2.2,3.8,4.1,4.8,7.1c-11.3-1.3-21.2,2.4-30,8.4c1.1-6.9,2.2-13.7,3.3-20.5C503.4,313.3,503.6,313.3,503.9,313.2z" />
	<path display="inline" fill="#0F0B0B" d="M470.5,518.2c0.4,0,0.7,0,1.3-0.1c0.1-0.9,0.3-1.9,0.4-3c-5-1.1-13.8,3.3-16.7-2.6   c5.7-0.3,11.4,0.4,17.1,1.2c0,4.4,0,8.8,0,13.2C471.1,523.9,472.9,520.6,470.5,518.2z" />
	<path display="inline" fill="#F6F7F7" d="M450.6,493.9c1.1,2,2.7,3.3,5,3.8c0.2,0.2,0.4,0.5,0.6,0.7c-0.9,1.5-2,2.5-3.2,3.9   c-1.9-0.9-4.2-0.8-6.1-2.7C448.1,497.7,448.8,495.1,450.6,493.9z" />
	<path display="inline" fill="#1C191A" d="M450.6,493.9c-1.8,1.2-2.5,3.8-3.7,5.6c1.9,1.9,4.3,1.8,6.1,2.7c0.9-1,1.7-1.9,2.4-2.7   c0.3,0.3,0.6,0.7,0.9,1c-0.5,1.3-1.3,2.5-2.2,3.6c-8.9-2.3-10.9-3.5-5-11.7C449.6,493,450.1,493.4,450.6,493.9z" />
	<path display="inline" fill="#191F3A" d="M502.4,306.2c0-1.4-0.5-3,1.2-4.3c0.3,2.1,0.3,3.9,0.1,5.7   C503.3,307.2,502.9,306.7,502.4,306.2z" />
	<path display="inline" fill="#CDB6A9" d="M489.7,342.5c-0.3-0.7-0.9-0.7-1.5-0.8c0.5-0.8,1.2-0.8,2.1-0.2   C490.1,341.8,489.9,342.1,489.7,342.5z" />
	<path display="inline" fill="#CDB6A9" d="M489,345.3c-0.1-0.8-0.4-1.7,0.6-2.2C489.7,343.9,489.6,344.7,489,345.3z" />
	<path display="inline" fill="#5876E8" d="M534.4,314.1c-1.2-0.9,0.7-0.8,1.3-0.2C535.2,314,534.8,314,534.4,314.1z" />
	<path display="inline" fill="#CDB6A9" d="M488.2,341.6c-0.2,0.8-0.8,0.8-1.5,0.7C487.2,342.1,487.7,341.9,488.2,341.6z" />
	<path display="inline" fill="#77929F" d="M503.9,313.2c-0.3,0-0.5,0-0.8,0.1c0-0.4,0.1-0.8,0.1-1.2c0.1,0,0.2,0,0.4,0   C503.7,312.5,503.8,312.9,503.9,313.2z" />
	<path display="inline" fill="#CDB6A9" d="M488.4,347.6c-0.2-0.7-0.3-1.3,0.5-1.7C488.7,346.5,488.5,347,488.4,347.6z" />
	<path display="inline" fill="#1C191A" d="M456.2,498.4c-0.2-0.2-0.4-0.5-0.6-0.7c0.4,0.1,0.7,0.2,1.1,0.3   C456.5,498.1,456.4,498.2,456.2,498.4z" />
	<path display="inline" fill="#1C191A" d="M457.7,499.1c-0.2,0.2-0.4,0.5-0.7,0.7C457.2,499.5,457.4,499.3,457.7,499.1z" />
	<path display="inline" fill="#1C191A" d="M457,499.8c-0.2,0.3-0.4,0.5-0.6,0.8C456.6,500.3,456.8,500,457,499.8z" />
	<path display="inline" fill="#EDCABA" d="M499.5,72.2c-0.7,0-1.3,0-2.5,0c2.2,3.2,6.8,2,9,5c-0.5,3.6-0.2,7.4-1.4,10.8   c-0.1-0.7-0.2-1.3-0.4-2c-2.2,0.4-4.2,0.7-6.2-0.4c0.1-0.4,0.3-0.8,0.4-1.2c-0.7-0.4-1.1,0.5-1.7,0.8c0.2,0.2,0.4,0.5,0.6,0.7   c-0.4,0.3-0.8,0.7-1.6,1.4c-0.1-1.2-0.1-2-0.2-2.8c-3.1-1.5-4.2-4.8-6.6-7c0.8,6.3,2.4,11.6,1.9,18.2c-7-6.8-7-15.7-10.1-24.4   c-0.9,6.5-7.3,7.1-9.7,11.8c-1.4-1.1-2.7-2.2-4.1-3.4c1.4-1.6,2.9-3,4.9-3.5c5.3-8.5,5.2-18.3,8.4-27.5c-0.9-0.4-1.8-0.8-2.7-1.3   l0,0c0-0.4,0-0.7,0-1.1c0.7-0.2,1.4-0.5,2.1-0.7c0.3-1.4,0.5-2.6,0.8-3.8c0.4,0.5,0.9,0.9,1.3,1.4c0.1,1.2-0.2,2.5,1.4,2.1   c-1.2,1-1.8,2.3-2.1,4.1c0.3,0.4,0.7,0.9,1.4,1.7c0,1.9,0,4.1,0,6.3c-1.2-1.8-0.4-4-1-5.9c-1.8,5.1-1.3,10.8,3.9,13.8   c-0.4,0.1-0.9,0.2-1.4,0.4c-0.5,4.1,1.5,7.5,2.5,11.9c1.4-4.9-1.4-7.8-1.1-12.3c2.3,1.7,4.6,3.4,7,5.1c0.4-0.4,0.6-0.6,0.8-0.9   c0.6,0.7,1.2,1.3,1.9,2.1C496.6,71.6,498.3,71,499.5,72.2z M488.7,88.2c0.7-3.4-0.5-6.8-2.6-9.8c-0.6,3.5,1.3,6.2,1.7,9.2   C487.8,87.8,488.3,87.9,488.7,88.2z M495.9,80.6c2.7,0.5,6.1,0.5,5.8-2.6C499.7,78.9,498,79.6,495.9,80.6z" />
	<path display="inline" fill="#201817" d="M499.6,35.2c-2.5-1.1-3,1.4-5.8,0.8c2.8-1.8,4.6-3.8,7.5-2.3c2.3-0.9,4.4,0,6.6,0.9   c0.3,0.8,0.6,1.6,1,2.7c-1,0.1-1.8,0.2-2.7,0.4c-0.4,0.6-0.9,1.2-1.5,2c-2.8-0.2-5.7-0.5-8.6-0.7c0.6-2.8,3.8-0.7,5.5-2.3   c0.9-0.1,1.8,0.6,3,0C503.1,35.2,501.2,35.8,499.6,35.2z" />
	<path display="inline" fill="#302724" d="M493.2,69.4c-0.2,0.2-0.4,0.5-0.8,0.9c-2.4-1.7-4.7-3.4-7-5.1l0.1,0.1   c-5.2-2.9-5.7-8.6-3.9-13.8c0.2,3.2,1.2,6.9,2,9.9C486.9,64.2,490,66.8,493.2,69.4z" />
	<path display="inline" fill="#432F2C" d="M514.4,61.5c-0.1,0-0.4,0-0.5,0c-3.4-0.9-7.2,0.2-10.7,0.2c-0.2-0.4-0.4-0.8-0.6-1.4   c4-1,8.4-0.4,12.6-0.8C515.5,60.4,515,61,514.4,61.5z" />
	<path display="inline" fill="#140F0E" d="M519.2,34.5c1.1,0.3,0.2,1.4,0.2,2.1c-0.9,0.3-2.1,0-2.7,1.3c1.2,0.3,2.3,0.4,3.3,0.1   c0,0.5,0,1,0,1.5c-1.7,0.6-3.7,1.5-5.3,0c-1.1,0-1.1-0.8-1.3-1.6C514.9,35.9,517,35.2,519.2,34.5z" />
	<path display="inline" fill="#1D1917" d="M513,64.4c0,0.4,0.1,0.9,0.1,1.5c-2.3,0.8-5.7,1.7-7.2-0.7   C507.5,62.4,510.9,62.7,513,64.4z" />
	<path display="inline" fill="#D3BCAE" d="M512.3,63.7c-2.5-0.7-4.8-1.2-6.4,1.4c-0.1-1.6-2-2.3-2.8-3.5c3.5,0.1,7.4-1,10.7-0.2   C513.3,62.2,512.8,63,512.3,63.7z" />
	<path display="inline" fill="#3B2D2B" d="M515.1,53c-1.9,1.8-3.7,0.3-5.7,1.5C507,51.9,514.5,50.5,515.1,53z" />
	<path display="inline" fill="#30302E" d="M483.2,45.3c-2.4,0.4-1.5-3.3-0.1-4.2c0.5,0.2,1.1,0.5,1.6,0.7   C484.2,42.9,483.7,44.1,483.2,45.3z" />
	<path display="inline" fill="#5D5550" d="M513.6,38c-0.1,1.6,1.4,1.3,2.3,2.3c-0.3,0-0.7,0-1.2,0c-0.3,1.1-0.5,2.3-1,4.1   C512.7,42.1,512.2,40.2,513.6,38z" />
	<path display="inline" fill="#CABCB2" d="M499.6,35.2c1.6,0.6,3.4,0,5.1,1.5C502.7,37.2,500.9,36.7,499.6,35.2z" />
	<path display="inline" fill="#D3BCAE" d="M514.4,61.5c0.7-0.5,1.1-1.1,0.7-2C516.6,59.8,515.7,62.1,514.4,61.5z" />
	<path display="inline" fill="#D3BCAE" d="M513,64.4c-0.2-0.2-0.5-0.4-0.7-0.7C512.6,63.9,512.8,64.2,513,64.4z" />
	<path display="inline" fill="#292320" d="M480.5,41.8c-0.3,1.2-0.5,2.4-0.8,3.8c-0.7,0.2-1.4,0.5-2.1,0.7c0,0.4,0,0.8,0,1.1   c-1.2-0.9-1.5-2.3-2.1-3.6c0.4-0.7,0.8-1.4,1.3-2.1c0.2,0.3,0.3,0.6,0.4,0.7c1.3-0.2,0.8-1.2,1.3-1.7c0.4-0.4,0.8-0.7,1.2-1.1   C481,40,480.3,41,480.5,41.8z M479.1,43.9c-0.8-1-1.7-0.5-1,0.5C478.4,44.2,478.7,44.1,479.1,43.9z" />
	<path display="inline" fill="#BFA99B" d="M480.5,41.8c-0.2-0.7,0.5-1.8-0.8-2.2c-0.9-0.9-1.7-1.9-1.9-3.3c3.1-2.5,4,4.8,4,6.8   C481.4,42.7,480.9,42.2,480.5,41.8z" />
	<path display="inline" fill="#CCAEA0" d="M476.8,41.7c-0.5,0.7-0.9,1.4-1.3,2.1c-0.8-1.8-3-3.6,0-5c1.1,0.3,1.6,1.2,2,2.2   C477.3,41.2,477,41.4,476.8,41.7L476.8,41.7z" />
	<path display="inline" fill="#1C1D1D" d="M479.7,28.3c0.5-0.6,1-1.2,1.5-1.8c1.4,1,1.4,1,3.4,1.1l0,0c-0.4,1.6-1.8,2-3.1,2.6   c-0.4-0.4-0.6-1.1-1.4-0.8C480,29,479.8,28.6,479.7,28.3L479.7,28.3z" />
	<path display="inline" fill="#303131" d="M486.4,18.5c1.8-2,3.1-3.4,4.5-4.9c0.3,0.4,0.6,0.8,1,1.3   C490.4,16.3,489.5,18.2,486.4,18.5z" />
	<path display="inline" fill="#272626" d="M479.7,28.3c-1.2,0.9-0.4,2.2-1.6,3.5c-0.8-3-0.8-3.5,0.4-5.3   C479.5,26.6,479.7,27.4,479.7,28.3L479.7,28.3z" />
	<path display="inline" fill="#212121" d="M491,7.6c-0.5,0.9-0.7,1.4-0.9,1.9c-1.1,0.3-2.3,0.5-3.4,0.8C485.5,8.5,489.4,8.6,491,7.6   z" />
	<path display="inline" fill="#252727" d="M506.7,15.5c2.1,0.5,3,1.1,5.2,2.4c-2.3,0.8-3.3-0.9-5.2-1.8   C506.6,16,506.6,15.8,506.7,15.5z" />
	<path display="inline" fill="#323232" d="M502.9,10.7c-0.7-1.4,0.2-1.9,0.5-2.8c0.7,0,1.5,0,2.4,0C505,9.1,504.2,9.9,502.9,10.7z" />
	<path display="inline" fill="#353636" d="M526.5,11.4c-0.9,1-1.6,1.7-2.5,2.7c-0.4-1-0.7-1.7-1.1-2.7   C524.2,11.4,525.1,11.4,526.5,11.4z" />
	<path display="inline" fill="#1C1D1D" d="M484,29c0.8-0.2,1.5-0.4,2.6-0.6c0.3,1.7-1.1,2.1-2.2,3.4C483.7,30.7,484,29.8,484,29   L484,29z" />
	<path display="inline" fill="#2E2F2F" d="M490.3,25.6c0-0.6,0.1-1.3,0.2-2.2c0.7,0.1,1.3,0.1,2.3,0.3c-0.8,1-1.4,1.6-1.9,2.3   C490.7,25.8,490.5,25.7,490.3,25.6z" />
	<path display="inline" fill="#1B1D1D" d="M506.7,15.5c0,0.2,0,0.5,0,0.7c-1.1-0.1-2.3,0.3-3.3-0.9c0.1-0.3,0.3-0.6,0.5-1   C505.1,14.5,505.4,15.6,506.7,15.5z" />
	<path display="inline" fill="#2B2D2D" d="M518.2,7.9c0.5-1.4,0.2-2.2,1.1-2.9C520.5,6.3,520.5,6.3,518.2,7.9z" />
	<path display="inline" fill="#202121" d="M505.2,14.8c0.4-1.2,0.4-1.2,1.5-1.9C507.3,14.2,507.3,14.2,505.2,14.8L505.2,14.8z" />
	<path display="inline" fill="#222424" d="M483,39.3c0.7-0.9,1.2-1.6,1.8-2.3C485.7,37.8,484.5,39.9,483,39.3z" />
	<path display="inline" fill="#1C1D1D" d="M484.7,27.6c0.6-0.8,1.2-1.7,2.2-3.2C486.6,26.5,486.7,27.6,484.7,27.6L484.7,27.6z" />
	<path display="inline" fill="#2C2F2F" d="M510.2,11.4c-0.5,0.5-0.7,0.8-1.1,1.2C508.7,11.5,509.1,11.3,510.2,11.4z" />
	<path display="inline" fill="#1B1D1D" d="M502.3,15c-0.3,0.1-0.6,0.2-0.8,0.3c-0.2-0.5,0-0.7,0.5-0.9   C502.1,14.6,502.2,14.7,502.3,15z" />
	<path display="inline" fill="#292320" d="M476.8,41.7c0.2-0.3,0.5-0.5,0.7-0.8C477.3,41.2,477,41.4,476.8,41.7z" />
	<path display="inline" fill="#CCD2E9" d="M481.8,189.2c18.2-0.9,33.3-10.7,48.9-19.2c-0.6,14.4-1.6,29.7-9.5,42   c-13.3,0.1-26.8-0.1-40-1.7c2.9-5.1,2.8-11.8,3.3-17.5c-0.9,0-1.7,0.1-2.6,0.1C481.8,191.7,481.8,190.5,481.8,189.2z M506.5,198.5   c-0.1-0.5-0.2-0.9-0.3-1.7c-1.2,1.1-1,2.1-0.9,3.1c-0.4,2.9-2,4.9-2.1,8c2.1-0.7,2.6-3,2.9-4.9C507.1,201.7,506.4,200,506.5,198.5z    M507.8,191.7c-0.4-0.1-0.6-0.2-1.1-0.3c0.1,0.7,0.1,1.3,0.2,1.8c0.2,0,0.3,0,0.5,0C507.5,192.8,507.6,192.3,507.8,191.7z    M508.1,186.7c-0.2,0-0.4,0-0.6,0c0,0.8,0,1.6,0,3C508.4,188.2,508.2,188,508.1,186.7z" />
	<path display="inline" fill="#EECABA" d="M435.8,107.8c1.9-5.2,5.3-10,10.5-12.2c-1.4,8.5-8.5,16.2-7,25.4   c-2.1,6.6,23.7,25.7,8.4,23.2c-0.4,6.9,2.8,13.2,4.6,19.5c3,1.9,5.3,4.1,6.8,7.1c0.9-1,1.7-1.9,2.4-2.7c4.2,0,8.3,1.8,12.5,0.6   c-0.4,1.9,2.3,1.8,2.1,0c0.5-0.4,1.1-0.9,1.6-1.3c-0.2,1.2-0.2,1.2,1.2,1.5c-0.3,0.3-0.7,0.6-0.9,0.7c0,1.1-0.5,2,0.4,2.8   c-1.7,0.3-3.5,0.5-5.2,0.8c0,0.6,0,0.9,0,1.2c-2.5,0.7-5.1,0.8-7.7,0.7c-0.4,0-1-0.3-1.2,0.7c5.9,7.9,14,9.1,22.7,5   c15.2-4,30-8.9,42.3-19.1c0.4,1.8,3.1,0.2,1.4-0.7c0.3-0.7,0.7-1.3,1.6-1.3c0.8,1.1,0.8,1.1,1.7-0.2c-0.7,0.1-1.2,0.1-1.8,0.2   c14.9-14.8,18.2-6.3,32.2-11c3.3-2,7-2.4,10.8-1.6c0.1,0.7,0.1,1.3,0.1,1.9c-8.3,1.7-17.5,5.8-26.8,5.8c-1.6-0.3-0.2-2.7-1.9-2.8   c-2.1,2-4.5,3.4-7.3,4.4c0.8,1.5,2.1,0.9,3.1,1c0.3,0.2,0.5,0.4,0.8,0.6c-20.9,16.9-45.4,26.2-70.9,32.5   c-9.1-8.2-17.3-18-26.3-26.6c-1.8-13.1-1.7-18.5-9.9-29.1c0.3-0.7-0.3-1.8,0.7-2.2c0.7,1,1.2,2.3,2.6,2.6c0.1-2.7-2.3-5.5-1.9-8.6   c-0.3-1.1-1.8-0.2-2.6-0.5C434.7,120,434.5,113.9,435.8,107.8z M473.3,170.1c-2.5,0.6-7.4-1.5-7.9,1.7   C467.7,173.7,472.2,173.4,473.3,170.1z M535.9,158.7c1.1,0.1,3.4,0.2,2.3-1.4C537.2,157.1,536.4,157.4,535.9,158.7z M447.3,139.1   c-0.3,2.5-0.3,2.5,1.4,2.2C448.3,140.8,448,140.3,447.3,139.1z M442.7,137.7c-0.4-0.7,0.1-1.6-1.4-1.7   C441.4,136.9,441.2,137.6,442.7,137.7z M444.8,137.6c-0.2,0-0.3,0-0.5,0c0,0.6,0,1.2,0,1.7c0.2,0,0.3,0,0.5,0   C444.8,138.7,444.8,138.2,444.8,137.6z" />
	<path display="inline" fill="#B7BDD5" d="M481.8,189.2c0,1.3,0,2.5,0,3.8c1,0,1.7-0.1,2.6-0.1c-0.5,5.8-0.4,12.4-3.3,17.5   c-4.8-0.5-9.9-0.7-14.6-1.6c-1.7-1-1.6-3.5-3.7-4.1c-0.6,1.5,0.7,2.2,0.8,3.3c-2.7,1.1-5.6-6.8-5.9-8.9c2.5-7.2,2.3-12,0.4-19.3   c4.1,1.7,7,7.4,10.6,10.5C473.1,196.4,476.8,189.2,481.8,189.2z M478.8,203.2c0.4,2-0.6,3.7,1.8,5.3   C480.2,206.5,481.1,204.9,478.8,203.2z M479.9,199.1c1.2-1.6,1-2.2-0.2-2.7C479.8,197.2,479.8,197.8,479.9,199.1z" />
	<path display="inline" fill="#4862C0" d="M462.8,215.4c-2.2-0.1-4.6,0.6-6.5-0.6c1.2-0.2,2.5,0.2,4.3-0.4c-1.1-0.3-1.6-0.4-2.2-0.6   c0-1.6,0-3.2,0-4.8c0.6,0.2,1.3,0.4,1.7,0.5c0.8,1.2,0,2.7,1.4,3.5c0.7-0.9-1-2.3,0.9-3c2.9,0.3,6.3,0.8,9.3,1.4   c0.1,1.1,0.2,2.1,0.3,3.1c0.5,0,0.8,0,1.2-0.1c-0.2,0.5-0.4,1-0.6,1.5C469.4,217,465.5,213.1,462.8,215.4z M467.8,213.6   c0.2,0.1,0.4,0.3,0.7,0.4c0.8-0.4,0.7-1.1,0.2-2.1C468.3,212.5,468,213,467.8,213.6z" />
	<path display="inline" fill="#5372E0" d="M472.6,216c0.6-1.3,0.6-2.5,0.7-4c2.9-0.6,5.6,0.6,8.4,0.6c0,1.1,0.4,2.3-0.5,3.4   C478.4,216,475.5,216,472.6,216z" />
	<path display="inline" fill="#172142" d="M525.1,217.6c-2.3,0-4.7,0.2-6.9,0.6c-1.5-1-3-0.2-4.4,0c-0.3-0.3-0.6-0.5-0.9-0.8   c0.1-1.2,0.9-3.8-1.1-3.4l-0.2-0.2c2.5-0.9,6.3-1.1,8.7,0.1c-2,0.2-4.2-0.4-6.2,0.4c0,0.8,0,1.5,0,2.3c1.9-0.4,3.9,0.9,5.1-0.7   c0.4,0.4,0.5,1.2,1.5,0.8c0.1-0.8,0.1-1.7,0.2-2.6c1.2-1.2,2.8-0.6,4.6-0.7c0.1,0.6,0.2,1.1,0.3,1.6   C523.9,215.2,525.2,216.4,525.1,217.6z M522.3,214.1c-0.9,0.9-0.9,1.5,0,2.6c0.4,0,0.9,0,1.3,0c0.2-1,0.3-1.7,0.5-2.6   C523.4,214.1,522.8,214.1,522.3,214.1z" />
	<path display="inline" fill="#181D39" d="M512.8,217.4c0.3,0.3,0.6,0.5,0.9,0.8c-5.2,1.5-10.3,0.5-15.5,0.1c1.5-1.8,4.7,0.1,7-0.9   c-0.1-1.2-0.1-2.2-0.2-3.3c-1,0-1.8,0-2.5,0c0.8-1.2,2.3-0.7,3.5-0.8c0.2,1.5-0.5,3.1,1.3,4.3C508.9,217.6,510.8,217.5,512.8,217.4   z" />
	<path display="inline" fill="#445EB9" d="M502.4,214.1c0.8,0,1.6,0,2.5,0c0.1,1.1,0.1,2.1,0.2,3.3c-2.3,1-5.4-0.9-7,0.9   c-1-0.6-1-0.8,0-1.4c1.2-0.7,0.2-2.2,1.1-3.3c0.5,0,1.2,0.1,2,0.1c0.2,1,0.4,1.9,0.6,2.8c0.1,0,0.3,0,0.4,0   C502.4,215.6,502.4,214.9,502.4,214.1z" />
	<path display="inline" fill="#19172D" d="M472.6,216c2.9,0,5.7,0,8.7,0c0.8-1.1,0.5-2.3,0.5-3.4c0.5,0,1.1,0,1.6,0.1   c-0.1,1.4-0.1,2.7-0.2,4.1c-6.8,0.4-13.8,0.4-20.4-1.4C465.5,213.1,469.4,217,472.6,216z" />
	<path display="inline" fill="#3E57A9" d="M458.4,209.1c0,1.6,0,3.2,0,4.8c-1.1-1.2-0.6-2.9-0.8-4.4c-1.1,1.3-0.9,2.8-2.1,3.9   c-1-1.2-0.3-2.5-0.2-4c-0.6,0-1.2,0-1.9,0c0-0.7,0-1.3,0-2.1c1.1-0.4,2.2-0.6,2.7-1.8c0.5,0.4,1,0.8,1.4,1.2   c-0.4,0.1-0.8,0.2-1.6,0.5C457,208,457.7,208.5,458.4,209.1z" />
	<path display="inline" fill="#516CD4" d="M520.8,214c-0.1,0.9-0.1,1.8-0.2,2.6c-1,0.4-1.1-0.4-1.5-0.8c-1.3,1.6-3.3,0.4-5.1,0.7   c0-0.8,0-1.4,0-2.3c2-0.7,4.1-0.1,6.2-0.4C520.4,214.1,520.6,214.1,520.8,214z" />
	<path display="inline" fill="#23305E" d="M483.2,216.8c0-0.5,0.1-0.9,0.1-1.4c1.7-0.2,3.8,0.5,5.2-0.3c-0.1-0.2-0.3-0.3-0.4-0.5   c0.5-1.4,0.5-1.4,2.1-0.6c0.1,1.1,0.3,1.8-0.2,2.8C487.7,216.8,485.5,216.8,483.2,216.8z" />
	<path display="inline" fill="#141B35" d="M455.5,213.4c1.2-1.1,1-2.6,2.1-3.9c0.2,1.5-0.3,3.2,0.8,4.4c0.5,0.1,1.1,0.3,2.2,0.6   c-2.9,0.3-5,0.9-7.3-0.3C454.1,213.8,455,214.4,455.5,213.4z" />
	<path display="inline" fill="#4261BE" d="M488.1,214.6c0.1,0.2,0.3,0.3,0.4,0.5c-1.4,0.8-3.6,0.1-5.2,0.3c0-0.9,0.1-1.8,0.1-2.7   c1.4,0.5,1.4,0.5,2.3,1.7c0.2-0.3,0.5-0.7,0.8-1.2C487.1,213.7,487.6,214.1,488.1,214.6z" />
	<path display="inline" fill="#B1968A" d="M435.1,126.1c0.4,0,0.9,0,1.3,0c-0.2,2.2,0,4.3,0.7,6.4c-1.1,0.5-0.4,1.5-0.7,2.2   C435.1,132.3,435.7,128.9,435.1,126.1z" />
	<path display="inline" fill="#BFA699" d="M547.8,153c0.1,0.7,0.1,1.4,0.9,1.6c-1.5,1.5-3.2,2.5-5.2,3.2c-0.3-0.2-0.5-0.4-0.8-0.6   C544.6,156.1,546.6,155,547.8,153z" />
	<path display="inline" fill="#172142" d="M505.9,214c0-0.2,0-0.5,0-0.7c1.7,0,3.5-0.4,5.1,0.6l-0.3,0.2c-0.6,0-1.3,0-1.9,0   c-0.1,0.9-0.3,1.6-0.4,2.7c-0.3-1.2-0.5-2-0.7-2.9C507.1,214,506.5,214,505.9,214z" />
	<path display="inline" fill="#A7B2C9" d="M457.6,206.7c-0.5-0.4-1-0.8-1.4-1.2c0.1-0.4,0.3-0.9,0.4-1.3   C457.8,204.4,458.8,206.2,457.6,206.7z" />
	<path display="inline" fill="#5674E3" d="M525.1,217.6c0.1-1.1-1.1-2.3,0.6-2.7c0.1,0.6,0.2,1.3,0.3,1.9c0.5-0.1,0.8-0.1,1.2-0.2   C526.9,218,525.8,217.5,525.1,217.6z" />
	<path display="inline" fill="#A9B7CC" d="M523,211.3c0.3-0.5,0.7-1,1.1-1.6C524.9,210.9,524.2,211.3,523,211.3z" />
	<path display="inline" fill="#172142" d="M511,213.9c0.2,0.1,0.3,0,0.5,0l0.2,0.2c-0.1,0.6-0.1,1.3-0.2,1.9c-0.1,0-0.2,0-0.4,0   c-0.1-0.6-0.2-1.2-0.3-1.8L511,213.9z" />
	<path display="inline" fill="#FBDFD3" d="M529.4,161.6c-12.2,10.2-27,15.2-42.3,19.1c-8.6,4.1-16.8,3-22.7-5   c3.7-2.3,11.2,0.5,15.2-2.8c-0.3-0.2-0.6-0.4-0.9-0.6h-0.2c-0.9-0.7-0.4-1.7-0.4-2.8c0.6-0.4,1.2-1.1,1.5-1.8c-1.4-1-2.4,0-3.5,1   c-5.1,0.7-9.7,0-14.6-0.6c-0.7,0.8-1.4,1.6-2.4,2.7c-1.5-3-3.8-5.2-6.8-7.1c-1.7-6.3-5-12.6-4.6-19.5c15.3,2.5-10.5-16.6-8.4-23.2   c-1.5-9.2,5.6-16.8,7-25.4c1-0.5,1.9-0.9,2.9-1.4c1.2,0.7,2.4,1.4,3.8,2.2c1.5-0.2,3.5,0.6,4.8-0.7c0.3-1.5-1.2-1.6-2.2-1.3   c0.7-2.3,1.5-4.7,2.2-7c1.3-1.1,2.6-2.3,4.1-3.6c2.8,3.8,5.6,7.2,7,11.7c-1.2,0.2-2.3,0.4-3.6,0.6c1.2,1.7,2.8,0.8,4.3,1.5   c2.3,6.9,5.6,16.4,3.2,23.6c-1.3-0.8-1.3,0.9-0.1,1.5c1.1,0.4,0.5,1.5,0.8,2.2c-4.6,11,9.5,16.8,9.5,27.3c-4.2,0.5-11,1.7-11.8,6.6   c16.8-8,37.7-5.5,55.5-10.5c8.5-3.6,18.1-4.4,26.2-8.6c5.6-1.7,17.5-10.6,21.6-5c2.3,0.5,5.5-0.5,7.2,2.9c-2.5,0.2-5-0.2-7.3,0.5   c1.2,2.7,9-0.7,10.5,3.6c0,1.4-0.4,2.9-2.2,2.3l0,0c-1-1-2-0.7-2.9,0l0,0c-1.2,0.1-2.5-0.2-3.4,0.8c-0.1,0.3-0.1,0.6-0.2,0.9   c8.8,2.9,7.4,3.3,9.4,5.4c-0.3,0.3-0.6,0.6-0.9,0.9c-2.6-1.5-5.2-3.6-9-3c0-0.6-0.1-1.2-0.1-1.9c-8-2.1-14.6,5.7-22.7,2.8   c-7.7-0.5-15.1,4.6-20.3,9.8l-0.1-0.2l0.1,0.2c-0.9,0-1.3,0.5-1.6,1.3C530.3,161.1,529.8,161.3,529.4,161.6z M563.3,138.9   c0.6,0,1.3-0.1,2-0.1c-0.1-0.5-0.1-0.8-0.2-1.1C564.1,137.5,563.7,138.2,563.3,138.9c-0.8,0.1-1.8,0-2.1,1.4   C562.5,140.4,563,139.8,563.3,138.9z M486.1,171.5c0.7-0.1,2,0.5,1.8-1.1c-1.6,0.7-3-0.1-4.7,0.7   C484.2,172.3,485.1,171.9,486.1,171.5z M464.7,123.1c0.2,2.5-1.1,4.7-0.4,7.3C466.1,128.9,467.6,123.7,464.7,123.1z M463.6,149.3   c2.7,3.1,3.5,3.6,5.2,3.4C467.9,150.7,466.3,149.9,463.6,149.3z M567.1,137.6c1.4,0.4,1.4,0.4,3.2-0.6   C568.4,136.7,568.4,136.7,567.1,137.6z M469.2,116.1c-0.2,1.1-0.4,1.5,0.7,1.9C470.4,117.1,470.1,117,469.2,116.1z M457.1,145.9   c-0.4,0.5-0.9,0.9-0.3,1.3C457.6,147,457.6,146.8,457.1,145.9z M462.8,148.5c-0.7-0.3-1.2-0.8-1.4,0.3c0.4,0.1,0.7,0.3,1.1,0.4   C462.6,149.1,462.6,149,462.8,148.5z M462.8,134.9c0.1,0,0.3,0,0.4,0c0-0.5,0-0.9,0-1.4c-0.2,0-0.3,0-0.5,0   C462.7,134,462.7,134.4,462.8,134.9z M470.4,160.5c-0.4-0.8-0.9-0.5-1.3,0C469.6,161.2,470,161,470.4,160.5z M462.3,94.3   c-0.6,0.3-0.6,1.1,0.1,1.1C463,94.9,462.7,94.6,462.3,94.3z M468.5,163c-0.2-0.1-0.4-0.2-0.6-0.3c-0.4,0.5-0.1,0.7,0.4,1   C468.3,163.5,468.3,163.3,468.5,163z" />
	<path display="inline" fill="#CCD2E9" d="M474.6,123.9c2.5-14.4-0.5-30.7-11.4-41c0.6-1,1.4-1.6,2.3-2.1   c20.2,14.1,23.6,50,42.5,53.2c5.8,1.5,11.9,0.6,14.9-5c9.8-10.2,1.8-27.1-4.5-37.4c0.3-0.3,0.7-0.7,1-1   c9.3,5.8,14.3,17.4,19.5,26.8c5,8.2-0.1,16.7-2.6,24.9c-2.9,1.3-5.8,2.6-8.9,4c-2.3-0.9-5,0.2-7.5,0.3c-0.3-2.9-2.4-4.3-4.4-5   c-1-1.7-1.1-2.1-2.7-3.1c-0.9,3.7-1.3,7-3.1,10.1c-5.2,0.4-10.6,1.8-15.8,1.5c-4-3.9-8.7-5.7-11.8-10.3c-0.4-0.7-1.2-1.1-2.1-0.9   c-2.3-2.1-4.2-4.7-5.9-6.9C474.5,129,474.7,126.7,474.6,123.9z" />
	<path display="inline" fill="#FBDFD3" d="M498.1,85.7c1.9,1.1,4,0.8,6.2,0.4c0.9,2.8,0.4,4.9,1.5,7.8c0.6-4.1,1.8-6.8,2.3-10.9   c13.7,5.8,27.2,47.7,5.3,49.5c-1.4-3.5-1.2-7.6-4.7-10.1c-0.2,3.6,2.4,6.3,2,9.9c-6.2-1.1-13.2-4-15.5-10.2   c-4.7-14.9-13.3-27.9-24.2-39c2.4-4.7,8.8-5.3,9.7-11.8c3.1,8.7,3.1,17.6,10.1,24.4c0.5-6.6-1.1-11.9-1.9-18.2   c2.4,2.3,3.6,5.6,6.6,7c0,0.8,0.1,1.5,0.2,2.8C496.9,86.4,497.1,86,498.1,85.7z M504.1,101.4c3-0.8,6-1.6,9-2.3   c-1-3.6-10.7,1.8-12.6,3.2c-2.7-0.6-2.7-0.6-3.7,0.2C499.8,105.8,501.4,103.4,504.1,101.4z M493.8,100.9c-1.2-1.4-2.6-1.1-4.1-0.8   C490.7,101.6,491.1,101.7,493.8,100.9z M507.2,119.5c-0.1-1.4-0.1-1.4-1.6-1.6C505.6,119,506.2,119.3,507.2,119.5z M498.1,112.4   c0.1-1.5,0.1-1.5-1.6-1.5C497.1,111.5,497.5,111.8,498.1,112.4z M512,119c-0.5,0.4-1.1,1.6,0,1.6C512.5,120.3,512.7,119.8,512,119z    M502.2,115.4c0.2-1.4,0.2-1.4-1-0.9C501.5,114.8,501.8,115.1,502.2,115.4z" />
	<path display="inline" fill="#FBDFD3" d="M544.1,126.6c-0.3-1.4,0.3-3.4-1.2-4.1c-3.4-4.9-4.5-11.3-8.4-16.1   c-2.2-4.3-7-8.2-7.8-12.8c18.8,1.8,32.4,15.7,37.6,33.3c1.4,1.2,2.6,2.3,3.9,3.4c-4.7,3.7-11.5,6-17.3,7c-1.4-3.4-3.4-6.3-6.5-8.1   C544.3,128.2,544.2,127.4,544.1,126.6z M544.8,117.2c-1.7,1.5-2,3-0.8,4.7C544.5,120.3,545.4,118.9,544.8,117.2z M546.2,114.9   c-0.4-0.3-0.6-0.5-0.8-0.7C544.7,115.2,545.3,115.8,546.2,114.9z" />
	<path display="inline" fill="#EAC7B7" d="M544.1,126.6c0.1,0.8,0.2,1.6,0.2,2.6c3.1,1.8,5.1,4.8,6.5,8.1c0.7,0,1.3,0.1,1.8,0.1   c-3.4,2-7.3,3.7-11.2,3.8C537.1,138.5,544.4,131.4,544.1,126.6z M543,134.2c-0.7,1.9,0.3,3,1.8,4.2c0.5-0.3,1-0.6,1.9-1.2   C544.6,136.7,544.9,134.4,543,134.2z" />
	<path display="inline" fill="#B6BAD2" d="M480.2,139c0.9-0.2,1.7,0.1,2.1,0.9c3.1,4.6,7.8,6.5,11.8,10.3c0.1,0,0.7,0.1,1.3,0.2   c-3,1.1-6.1,1.6-9.3,2.1C485,147.5,483.3,143.1,480.2,139z" />
	<path display="inline" fill="#383234" d="M526.7,93.6c0.8,4.6,5.6,8.4,7.8,12.8c3.9,4.8,5,11.2,8.4,16.1c-1.8,0.9,0.1,3.2-1.5,4.4   c-0.8-12.3-10.1-21.9-16.3-32C525.6,94.3,526.1,93.9,526.7,93.6z" />
	<path display="inline" fill="#B4B9D0" d="M514.5,139.6c0.3,0.6,0.7,1.1,1.2,2c2,0.8,4.1,2.1,4.4,5c-3,0.5-5.5,2-8.6,1.3   C513.5,145.3,514.8,142.9,514.5,139.6z" />
	<path display="inline" fill="#201F23" d="M514.5,139.6c0.3,3.3-1,5.8-3,8.4c0.9,0.1,1.6,0.2,2.2,0.3c-1.2,1.1-2.5,0.5-3.8,0.4   c1.8-3.2,2.1-6.4,3.1-10.1C513.7,139,514.1,139.3,514.5,139.6z" />
	<path display="inline" fill="#4B4444" d="M474.6,123.9c0,0.7,0,1.5,0,2.2c-0.4-0.5-0.8-0.9-1.3-1.4c-0.3-0.7,0.3-1.8-0.8-2.2   c0-0.5,0.1-1,0.1-1.5c1.8-2.4,0.2-6.2,0.7-9.1C475.4,115.3,472.7,120.6,474.6,123.9z" />
	<path display="inline" fill="#1E2726" d="M526.6,148.1c-1.7,1.3-3.9,0.5-5.8,0.5c1-0.4,2.1-0.9,3-1.3   C524.8,147.6,525.7,147.9,526.6,148.1z" />
	<path display="inline" fill="#95A2B3" d="M519.5,90.6c-0.3,0.3-0.7,0.7-1,1c-0.5-0.8-1-1.5-1.4-2.3c0.3,0,0.6-0.1,1-0.1   C518.6,89.6,519.1,90.1,519.5,90.6z" />
	<path display="inline" fill="#272B29" d="M506.5,89.9c-0.2,1.2-0.4,2.3-0.7,3.9c-1-1.5-0.5-2.7-0.6-3.9   C505.6,89.9,506.1,89.9,506.5,89.9z" />
	<path display="inline" fill="#4E6263" d="M518.1,89.2c-0.3,0-0.6,0.1-1,0.1c-0.3-0.5-0.3-0.5-0.2-1.3   C517.4,88.4,517.7,88.8,518.1,89.2z" />
	<path display="inline" fill="#658B8B" d="M539,141c0.2,0.1,0.4,0.2,0.6,0.3c-0.2,0.5-0.5,0.4-0.9,0.2   C538.8,141.3,538.9,141.2,539,141z" />
	<path display="inline" fill="#DEBEAF" d="M457.7,87.3c-0.7,2.3-1.5,4.7-2.2,7c-0.5,0.3-1.6,0-1.6,1.3c1.3,0,2.6,0,3.8,0   c-1.2,1.3-3.3,0.6-4.8,0.7c-1.3-0.8-2.5-1.5-3.8-2.2C450.9,90.9,455.1,89.7,457.7,87.3z" />
	<path display="inline" fill="#FBDFD3" d="M580.5,153.1c3.3-0.9,5.2,3.6,8.6,0.4c-0.8-1.5-1.5-2.8-2.2-4.1c0.2-0.2,0.4-0.3,0.5-0.5   c1.2,0.5,2.3,1,3.8,0.3c0.4-0.5,0.8-1.2,1.2-1.8c1.3-0.4,1.3,1.1,2,1.4c1.2,1,2.4,2,3.7,3c0.6,9.6-8.4,14.2-16.4,16.9   c-4.3,2.2-5.8-1.9-7.8-4.6c-2.9-3.2-6.7-5.4-9.3-9c1.2-2.4,4.4-1.8,6.3-3.2c2.4-1.5,5.6-1.5,7.9-0.1c0.1,0.6,0.2,1.1-0.4,1.4   c-1.6,0.8-3.5,3.9-1.3,4.9c0.3-1,0.6-1.9,0.8-2.7C578.8,154.6,579.6,153.9,580.5,153.1z M576.7,159.9c-0.8,0.1-1.2,0.5-0.9,1.3   C576.7,162,577.5,160.6,576.7,159.9z" />
	<path display="inline" fill="#EDC9B9" d="M564.7,155.1c2.6,3.5,6.4,5.8,9.3,9c2,2.8,3.5,6.8,7.8,4.6c8-2.7,16.9-7.3,16.4-16.9   c0.7,0,1.4,0.1,2,0.1c-4.3,11.3,1.5,9.1-10.9,20.4c-4.8,0.6-9,2.8-13.2,0.1c-7.6-5.3-15.5-9.2-21.9-16.3c1.6-0.3,3-0.6,4.4-0.8   c1.4,1.2,2.4,3.2,5.1,2.9c-0.7-1.1-1.3-1.9-2-2.9C562.7,155.2,563.7,155.1,564.7,155.1z M565.2,158.2c-0.2,1.9,0.3,2.5,2.1,2.3   C566.7,159.5,566.4,158.5,565.2,158.2z M568.4,162.5c0.8-0.5,0.8-1.2,0.1-1.2C568.5,161.6,568.5,162,568.4,162.5z" />
	<path display="inline" fill="#1B1312" d="M586.9,149.4c0.7,1.3,1.4,2.6,2.2,4.1c-0.6,0.3-1.1,0.6-1.6,0.8c-0.2-0.4-0.5-0.8-0.7-1.2   c0.5-1.1-0.7-1.5-1.4-2.2c-1.9-2.1-0.6-2.5-9.4-5.4c0.1-0.3,0.1-0.6,0.2-0.9c1,0,2,0.1,3,0.1c0.7,0.9,1.5,0.7,2.9,0.2   c-1.1-0.1-1.7-0.2-2.3-0.2c0-0.3,0-0.5,0-0.8l0,0c1,0,2,0,2.9,0l0,0c0.2,0.8,0.8,0.8,1.4,0.7l0,0c0.2,0.8,0.8,0.8,1.4,0.7l0,0   c0.2,0.3,0.4,0.5,0.6,0.8c0.2,0,0.3,0,0.5,0c0.2,0.4,0.3,0.9,0.5,1.3c-1.6,0.6-1.9-1.5-3.9-1.1   C584.4,147.5,585.3,148.8,586.9,149.4z" />
	<path display="inline" fill="#453E3B" d="M580.5,153.1c-0.8,0.8-1.7,1.5-2.6,2.3c-0.3,0.8-0.5,1.6-0.8,2.7c-2.2-1-0.3-4.1,1.3-4.9   c0.7-0.4,0.6-0.9,0.4-1.4C579.4,152.2,580,152.6,580.5,153.1z" />
	<path display="inline" fill="#AA958D" d="M585.4,150.9c0.6,0.7,1.9,1.1,1.4,2.2c-0.8-0.4-1.5-0.9-2.3-1.3   C584.8,151.5,585.1,151.2,585.4,150.9z" />
	<path display="inline" fill="#E8C8B9" d="M594.5,148.8c-0.8-0.4-0.8-1.8-2-1.4c-0.4-0.3-0.9-0.5-1.3-0.8c-0.5-1.8-2.3-2.9-3.4-4.3   c0.1-1.4,0.3-1.6,1.9-1.3c1.3,1.2,2.9,0.5,4.4,0.6c-3.9,5,6.6,4,9.1,2.7c-0.1-0.4-0.1-0.8-0.2-1.1c0.9,0.5,1.6,1.2,2.3,2   c-0.3,2.5-2.3,4.1-3.6,6.1c-2.3-1.2-4.9-1.8-6.9-4.4C594.5,148,594.5,148.4,594.5,148.8z" />
	<path display="inline" fill="#EDD7CC" d="M605.1,145.2c-0.7-0.7-1.4-1.5-2.3-2c-2.7,0.3-5.4,1.2-8.1,0.5c0-0.2-0.1-0.4-0.1-0.6l0,0   c2.1-1.6,5-2.3,7.7-2.8c1.1,1.3,3.2,2.3,2.9,4.3C605.4,144.9,605.3,145.1,605.1,145.2z" />
	<path display="inline" fill="#2F2321" d="M594.5,148.8c0-0.4,0.1-0.9,0.1-1.9c2,2.6,4.6,3.2,6.9,4.4c0,1-0.5,1.4-1.4,1.7   c0-0.3,0-0.7,0-1.1c-0.7,0-1.4-0.1-2-0.1C596.9,150.8,595.7,149.8,594.5,148.8z" />
	<path display="inline" fill="#EDD5C9" d="M605.3,144.6c0.3-1.3-0.7-2.1-1.4-2.9c0.4-0.1,0.8-0.2,1.1-0.3c-0.2-0.8-0.3-1.3-0.4-1.9   l-0.1,0.1c1.7,0.7,1.4,2.7,1.4,4.2C605.7,144.1,605.5,144.4,605.3,144.6z" />
	<path display="inline" fill="#F1D7CC" d="M581.3,129.2c3.7-4.8,4.5,0.1,7.8-1.5c1.3,0,2.7,0.1,4.4,0.1c0.5,0.7,1.1,1.6,1.8,2.5   c0,0.3,0,0.6,0,0.9c-1,1.1-1.9,2.3-3.3,2.8c-0.9-0.8-1.9-1.6-3.1-2.1c0.8-1,1.6-1.9,2.6-2.6c-1.8-1.4-2.8,1.5-4.4,2   c-0.2-0.3-0.3-0.6-0.6-1.1c-2.2,1.7-1.3,4.8-3.3,6c-1.1-1.4-2.3-2.8-3.5-4.3c0.1-0.6,0.4-1.3,1.3-1.6c0.6,0.6,1.2,0.8,1.9,0.1   c-0.7,0-1.3,0-2-0.1C581.1,130,581.2,129.6,581.3,129.2z" />
	<path display="inline" fill="#F0D6CA" d="M588.9,132c1.2,0.5,2.2,1.3,3.1,2.1c-2.3,2-2.4,5.9-6,6.4c-0.3-1-0.5-2.2-1.2-3.1   c1.5-1.1,2-3,3.3-4.2c0.7,0.6,1.3,1.1,2.7-0.1c-1.3,0.1-2.1,0.1-2.8,0.1C588.4,132.8,588.6,132.4,588.9,132z" />
	<path display="inline" fill="#2D211F" d="M586,140.4c2.3-0.3,3.4-2.1,4.1-3.9c1-2.5,3.7-3.2,5.2-5.3c2.9,3.2-6.2,5.9-5.7,9.7   l-0.1,0.1c-1.6-0.3-1.8-0.2-1.9,1.3C586.6,142.1,586.6,141.1,586,140.4z" />
	<path display="inline" fill="#372D2B" d="M588.2,133.2c-1.3,1.2-1.8,3.1-3.3,4.2c-0.8,0-1.3-0.4-1.7-1.1c1.9-1.3,1.1-4.4,3.3-6   c0.3,0.5,0.4,0.8,0.6,1.1c0.8-0.6,1.6-1.1,2.5-1.7c0.3,0.2,0.5,0.5,0.8,0.7C589.5,131.3,588.7,132.2,588.2,133.2   C588.1,133.3,588.2,133.2,588.2,133.2z" />
	<path display="inline" fill="#D6B9AA" d="M587,147.3c-0.3-0.9-0.6-1.9-1.6-2.1l0,0c-0.5-0.2-1-0.5-1.4-0.7l0,0   c-0.1-0.2-0.2-0.4-0.2-0.6c1.1-0.5,0.8-1.6,1-2.4c1.8,2,3.7,3.9,5.4,6C589.1,148.2,588.1,147.7,587,147.3z" />
	<path display="inline" fill="#D5BDB3" d="M575.6,131.5c0.3-1.4,0.5-2.7,0.8-4.2c0.8,0.4,1.5,0.8,2.2,1.1c-0.1,1.1-0.3,2-0.4,3.1   C577.4,131.5,576.5,131.5,575.6,131.5z" />
	<path display="inline" fill="#3E322F" d="M587,147.3c1.5,0.7,3,0.7,4.1-0.7c0.4,0.3,0.9,0.5,1.3,0.8c-0.4,0.7-0.9,1.3-1.2,1.8   c-2.2,1-3.9-0.3-5.1-1.8C586.4,147.4,586.7,147.3,587,147.3z" />
	<path display="inline" fill="#3E322F" d="M589.5,146.8c-0.2-0.3-0.4-0.6-0.6-0.8C589.2,146.2,589.3,146.5,589.5,146.8z" />
	<path display="inline" fill="#3E322F" d="M590.4,145.2c0.2,0.3,0.3,0.5,0.5,0.8C590.7,145.7,590.5,145.5,590.4,145.2z" />
	<path display="inline" fill="#EDD5C9" d="M589.7,140c0.7-3,8.4-5.9,5.6-8.8c0-0.3,0-0.6,0-0.9c5.7-0.4,6.3,5.7,9.2,9.3l0.1-0.1   c-3.2-0.8-6.2,0.8-9.2,1.4c0-0.2,0.1-0.4,0.1-0.6c1.5-1.6,3.5-2.4,5.8-3.4C596.5,133.3,594.7,142.8,589.7,140z M597.4,132.5   c0.6,1.1,0.7,3.4,2,2.3C599.2,133.9,599.3,132.7,597.4,132.5z" />
	<path display="inline" fill="#9E8F87" d="M520.1,38c-1.1,0.3-2.2,0.2-3.3-0.1c0.6-1.3,1.8-0.9,2.7-1.3   C520.1,36.9,520.1,37.5,520.1,38z" />
	<path display="inline" fill="#4B65C5" d="M501.7,254.4c7.4,4.3,15.5,9.9,19.9,17.6c-7.4-1.2-21-10.6-24.3-17.3   c0.9-1,1.8-1.6,2.9-1.7c0.5,1.5-0.6,3.5,1.4,5C501.6,256.6,501.7,255.5,501.7,254.4z" />
	<path display="inline" fill="#4B65C5" d="M471.2,221.7c2-2.4,5.5-5.1,7.8-1.6c0.2,2.5-0.2,4.7-0.7,7c-0.9,3.9,0.7,8.9-2.7,11.7   c-3.5-2.4-1.3-7.4-3.6-10.6C471.7,226.2,473.6,222.7,471.2,221.7z" />
	<path display="inline" fill="#4B64C4" d="M503.8,266.5c11.4,5.8,20.8,17.4,26.9,28.4C521.5,285.7,510.8,277.5,503.8,266.5z" />
	<path display="inline" fill="#4C66C6" d="M462.9,254c7.6,11.3,8.3,26.4,10.3,39.6c-4.1-7.6-4.5-16.7-7.4-25   C464.9,263.5,462.1,259.5,462.9,254z" />
	<path display="inline" fill="#4863C1" d="M530.1,242.4c1.1,0.7,0.6,1.6,0.5,2.6c-1.7,2.1-4.5,1.7-7,1.7c1.3-0.6,2.6-1.2,4.2-2   c-5.6,0.5-10.2,1.9-15.7,1.2c0-0.2-0.1-0.3-0.1-0.5C517.4,241.2,524.9,244.8,530.1,242.4z" />
	<path display="inline" fill="#111323" d="M510.8,275.7c6.8,6.6,13.7,13.3,20.5,19.9c0,0.3,0,0.7-0.1,1c-7.4-6-14.5-13.1-21.1-20.2   C510.4,276.2,510.6,276,510.8,275.7z" />
	<path display="inline" fill="#283260" d="M516.7,243.3c-1.6,0.7-3.1,1.4-4.7,2.1c0,0.2,0.1,0.3,0.1,0.5c5.6,0.7,10.2-0.7,15.7-1.2   c-6.7,4.4-13.7,1.5-21,2.4c2.8-2,5.7-3.6,9-4.6C516.2,242.7,516.4,243,516.7,243.3z" />
	<path display="inline" fill="#4D66C8" d="M506.5,239.5c6.8-2.2,15.3-4.8,21.8-1.6C520.9,238.2,513.7,238.7,506.5,239.5z" />
	<path display="inline" fill="#131628" d="M487.5,284.9c-0.4,0.2-0.8,0.3-1.7,0.7c3.6-6.3,7.5-11.8,9.8-18.4   C497.4,274,490.4,279.3,487.5,284.9z" />
	<path display="inline" fill="#171F3D" d="M499.6,248c-1.1-7.3-1-14.2-0.7-21.5c2.8,6.3,0.5,14,1.3,20.9   C500.1,247.6,499.9,247.8,499.6,248z" />
	<path display="inline" fill="#171D35" d="M498.2,263.8c0.3-0.6,0.6-1.2,1-1.8c0.8,3.6-1.4,8.4-1.6,12.4c-0.5,2.7,0.6,5.8-1.2,8.2   C495.1,276.7,497.4,269.7,498.2,263.8z" />
	<path display="inline" fill="#1A1B32" d="M533.1,234.9c-6.9-2.6-12.9-1.9-19.2-4.4C520.7,230.2,527.8,230.6,533.1,234.9z" />
	<path display="inline" fill="#4863C1" d="M487.5,284.9c2.1-3.1,4.2-6.2,6.3-9.3c0.5,0.5,0.9,1,1.5,1.6   C493.4,280,490.8,284,487.5,284.9z" />
	<path display="inline" fill="#1D233F" d="M510.8,275.7c-0.2,0.2-0.4,0.5-0.7,0.7c-3.7-4.5-9.3-9.1-9.9-15.1   C503.7,266.2,506.7,271.4,510.8,275.7z" />
	<path display="inline" fill="#10152A" d="M490.2,236.5c-5.6-1.9-5.3-10.6-4.6-15.6C486.6,226.4,486.9,231.5,490.2,236.5z" />
	<path display="inline" fill="#202545" d="M516.7,243.3c-0.3-0.3-0.6-0.5-0.8-0.8c4.7-1.1,9.5-1.1,14.2-0.1   C526.7,244.5,520.9,242.4,516.7,243.3z" />
	<path display="inline" fill="#0C0F1C" d="M487.6,302.1c-0.6,5-0.7,10-1.1,15c-1.7-5.6-0.6-11.6,0.4-17.3   C487.9,300.4,487.3,301.4,487.6,302.1z" />
	<path display="inline" fill="#1E1D35" d="M508.1,257.8c-0.4-0.2-0.8-0.4-1.2-0.6c3-1.9,9.8,3,14.2,2.4   C516.6,261.3,512.3,258.9,508.1,257.8z" />
	<path display="inline" fill="#12172D" d="M471.2,221.7c2.8,2,0.4,7-0.2,10C470.1,229.1,470.3,225.6,471.2,221.7z" />
	<path display="inline" fill="#374884" d="M499.6,248c0.2-0.2,0.4-0.4,0.6-0.6c0.9,0.5,0.7,1.4,0.7,2.1c-0.1,3.1,1.1,5.3,0.6,8.5   C499.1,255,500.6,251.4,499.6,248z" />
	<path display="inline" fill="#1D2141" d="M519.7,222.3c2.3,0.3,4.4,1.1,6.4,3.1C523,225.4,521.6,223.3,519.7,222.3z" />
	<path display="inline" fill="#1A2242" d="M487.6,302.1c-0.3-0.7,0.3-1.8-0.7-2.3c0-1-0.6-2.3,1.1-3   C488.3,298.8,488.5,300.5,487.6,302.1z" />
	<path display="inline" fill="#ECC9B9" d="M468.4,382.2c0-0.5-0.1-1-0.1-1.5c1.5-1.5,0.9-4,2-5.8c4.3,0.2,1.6,10.6,2.1,14   c-1.8,0.4-2.3-1-3.4-2c0.3-0.1,0.7-0.1,1.1-0.2c0.2-1.6,0.5-3.2-0.6-4.7C469.1,382.2,468.8,382.2,468.4,382.2z" />
	<path display="inline" fill="#211C1B" d="M471.5,411.7c-0.2-3.4,0.8-7.9,2.3-11.3C476.1,401.6,472.9,409.9,471.5,411.7z" />
	<path display="inline" fill="#1C1716" d="M474,366.4c1.9-2.6,3.7-5.3,6.2-8c0.7,3.4-2.8,7.1-5.4,8.8   C474.5,366.9,474.2,366.7,474,366.4z" />
	<path display="inline" fill="#362C28" d="M468.4,382.2c0.4,0,0.7-0.1,1.1-0.1c1.1,1.4,0.8,3,0.6,4.7c-0.5,0.1-0.8,0.1-1.1,0.2   C467.9,385.6,468,383.9,468.4,382.2z" />
	<path display="inline" fill="#2A1D1C" d="M470.9,374.9c-0.1,0-0.4,0-0.5,0.1c-0.4,0.7-0.6,1.4-0.7,2.1c-1.2,0.7-0.2,1.9-0.7,2.8   c-1.1-0.5-0.5-1.6-0.8-2.4c0.1-0.4,0.1-0.8,0.2-1.2c0.7-0.3,0.7-0.9,0.6-1.5c1.4-1.8,1.1-3,3.1-4.7   C471.9,372.3,471.3,373.6,470.9,374.9z" />
	<path display="inline" fill="#463C39" d="M474,366.4c0.3,0.3,0.6,0.6,0.8,0.9c-0.7,1-1.4,2-2.1,2.9   C470.5,369.1,473.3,367.4,474,366.4z" />
	<path display="inline" fill="#665B56" d="M470.8,417.4c-0.7-1.5-0.6-2.6,0.8-3.6C472.2,415.3,471.9,416.4,470.8,417.4z" />
	<path display="inline" fill="#43342F" d="M445.7,417c0.3-0.4,0.5-0.7,0.8-1.1c0.7,1.2,0.7,1.2,0.3,3.5c-0.4-0.5-0.8-0.9-1.1-1.2   C445.7,417.7,445.7,417.3,445.7,417z" />
	<path display="inline" fill="#745E5A" d="M468.6,428.4c-0.6-0.9-0.2-1.5,0.6-2C470,427.6,470,427.6,468.6,428.4z" />
	<path display="inline" fill="#433D3A" d="M468.2,377.5c0.3,0.8-0.3,1.9,0.8,2.4c-0.2,0.3-0.5,0.5-0.7,0.8   C467.4,379.7,467.6,378.6,468.2,377.5z" />
	<path display="inline" fill="#EECABA" d="M447,398.3c0.2-0.7-0.1-1.6,0.7-2.1l0.2,0.1c-0.2,0.7-0.4,1.4-0.7,2.2L447,398.3z" />
	<path display="inline" fill="#4E433F" d="M469.3,423c-0.4-1.1-0.4-1.1,0.4-2.4c0,1.2,0,1.8,0,2.3C469.6,423,469.5,423,469.3,423z" />
	<path display="inline" fill="#433D3A" d="M469,374.9c0.1,0.6,0,1.2-0.6,1.5C468.6,375.9,468.8,375.4,469,374.9z" />
	<path display="inline" fill="#05070D" d="M442.1,298.4c0.5,0.6,1,1.2,1.8,2.1c0.5-2.5-0.3-4.3,0.9-6.4c-1.6,10.7,7.9,17,9.6,27.1   c-5.3-7.2-9-14.3-13.2-22C441.6,299,441.8,298.7,442.1,298.4z" />
	<path display="inline" fill="#2C3B74" d="M442.8,263.7c-0.8,8.5,1.8,16.9,0.6,24.9c-1.4-3.6-0.8-8.2-1.4-12c-2.1-3-3.4-6-4.1-9.6   c2.4-1.1,2.1,4.6,3.3,6.7c0.1-1.2,0.2-1.7,0.2-2.3C443.3,269.4,441,265.9,442.8,263.7z" />
	<path display="inline" fill="#11162B" d="M442.2,320.4c2-7.3-5.2-12.3-5.9-19.4c3.4,4.2,4.2,8.2,6.7,12.6c0.5-0.3,1.1-0.5,1.6-0.7   c-0.4,2.1-0.4,3.8,0.4,5.8c-0.6,0-0.9-0.1-1.2-0.1c-0.3,0.9-0.6,1.7-1,2.6C442.7,320.9,442.4,320.7,442.2,320.4z" />
	<path display="inline" fill="#1C2545" d="M446.8,236.7c0.3-4.3,1.6-8,3.6-11.6C450.3,228.8,449,233.9,446.8,236.7z" />
	<path display="inline" fill="#181F3C" d="M442.1,298.4c-0.3,0.3-0.5,0.6-0.8,0.8c-2-2.9-4.7-6.5-4.5-9.9   C439.1,292.2,440.1,295.4,442.1,298.4z" />
	<path display="inline" fill="#131930" d="M443.4,288.6c0.1-1.3-0.1-2.6,0.8-3.6c1,4.4,0.6,8.5,0,12.8   C443.1,294.9,443.7,291.7,443.4,288.6z" />
	<path display="inline" fill="#1D264A" d="M442.8,263.7c-1.7,2.2,0.5,5.8-1.3,7.8c0.2-4.4-1-10,2-13.4   C443.2,260.1,443,261.9,442.8,263.7z" />
	<path display="inline" fill="#141B35" d="M462.9,227.1c0.1-2.9,1-5.5,2.7-8C467,221.3,464.2,224.9,462.9,227.1z" />
	<path display="inline" fill="#455AA7" d="M454.2,306.4c-0.7-0.7-1.2-1-1.3-1.3c-0.2-2.2-2.4-3.9-2.1-7.1   C452.1,301,453.8,303.1,454.2,306.4z" />
	<path display="inline" fill="#0E1321" d="M442.2,320.4c0.2,0.3,0.4,0.5,0.7,0.8c-0.1,2.5,0,4.4,0.4,7.1   C441.8,326.2,441.7,325.6,442.2,320.4z" />
	<path display="inline" fill="#1E1615" d="M557.7,345.9c0.7,0,1.4-0.1,2.1-0.1c0.3,0.3,0.6,0.7,1.1,1.2c3.9,0.7,6.1-1.8,8-4.8   c-0.4-0.4-0.7-0.7-0.9-1.1c0.4-1.3,1.8-0.5,2.6-1.7C572.7,343.8,562.1,354.2,557.7,345.9z" />
	<path display="inline" fill="#251918" d="M525.8,353c3.9-2.7,7.5-4.2,9.8-4c-1.2,1.8-1.8,2.2-9,4.8   C526.3,353.5,526,353.3,525.8,353z" />
	<path display="inline" fill="#283230" d="M510.2,355.5c1.3-0.3,2.1-0.1,2.8,0.7C511.1,356.5,511.1,356.5,510.2,355.5z" />
	<path display="inline" fill="#3D2B29" d="M515.7,355.3c1.6-0.6,2.7-0.6,3.5,1C517.8,356.7,516.9,356.1,515.7,355.3z" />
	<path display="inline" fill="#352927" d="M553.4,343.8c0.4-2,2.6-1.1,1.4,0.7C554.4,344.2,553.9,344,553.4,343.8z" />
	<path display="inline" fill="#4F2220" d="M506.6,355.2c-0.7,1.1-0.7,1.1-2.1,0C505.3,355.2,505.9,355.2,506.6,355.2z" />
	<path display="inline" fill="#78726C" d="M525.8,353c0.3,0.3,0.5,0.5,0.8,0.8c-0.6,0.7-1.2,1-2.2,0.2   C524.9,353.6,525.3,353.3,525.8,353z" />
	<path display="inline" fill="#9F867F" d="M554.8,344.5c0.5,0.2,1,0.5,1.5,0.7C555.4,346.3,554.6,345.7,554.8,344.5z" />
	<path display="inline" fill="#534541" d="M551.3,341.6c0.5-1.8,2.4,0.3,0.7,0.7C551.8,342.1,551.6,341.9,551.3,341.6z" />
	<path display="inline" fill="#0C0C0C" d="M470.5,518.2c0.2,0.4,0.5,0.9,0.7,1.3c-4.7-0.3-10.9,2.4-14.8-0.7   C458.4,515.6,467,517.7,470.5,518.2z" />
	<path display="inline" fill="#110F0F" d="M458.2,524.1c-0.1-3.5,10.9-2.1,11.6,0C466.5,526,461.5,525.8,458.2,524.1z" />
	<path display="inline" fill="#161111" d="M470.6,530.3c-1.9,2.7-6.2,1.7-8.8,0.4C458.3,526.1,468.7,529.5,470.6,530.3z" />
	<path display="inline" fill="#262F56" d="M498.7,272.5c5.6,4.7,10.6,10.5,14.9,16.3C510.3,286.6,501.7,277.3,498.7,272.5z" />
	<path display="inline" fill="#32407A" d="M507.9,299.6c-1.9-1.3-2.5-3.9-4-6C506.1,294.5,507.5,296.7,507.9,299.6z" />
	<path display="inline" fill="#201B19" d="M447.2,398.5c0.5-2.2,1.4-3.6,2.5-5.8c1.6,4-1.6,8.3-2.1,13   C446.4,402.9,447.1,400.7,447.2,398.5z" />
	<path display="inline" fill="#151311" d="M456.8,358.8c0.7,1.7,0.4,3.3,0.3,5.2C455.1,363.5,454.9,358.9,456.8,358.8z" />
	<path display="inline" fill="#1F1B18" d="M447.7,407c0.4,1.6,0.4,3-0.1,4.6C446.1,409.6,446.1,409.6,447.7,407z" />
	<path display="inline" fill="#65514A" d="M456.7,353.9c0.5,0.7,0.1,1.3-0.4,1.8C455.3,355.1,455.6,353.9,456.7,353.9z" />
	<path display="inline" fill="#342623" d="M446.6,424.7c-0.2-0.7-0.5-1,0.1-1.5C447,423.8,447.2,424.1,446.6,424.7z" />
	<path display="inline" fill="#261F1E" d="M534.2,328.9c0.3-1.8-0.6-3.8,1-5.2c0.8,2,0.8,2,0.2,4.9   C535.1,328.8,534.7,328.9,534.2,328.9L534.2,328.9z" />
	<path display="inline" fill="#110807" d="M533.7,321.9c0-0.8,0-1.5,0-2.3C535.3,320.7,535.3,321,533.7,321.9z" />
	<path display="inline" fill="#3F3632" d="M485.3,65.1c-0.3,4.5,2.5,7.4,1.1,12.3c-0.9-4.4-2.9-7.8-2.5-11.9   C484.5,65.4,485,65.3,485.3,65.1L485.3,65.1z" />
	<path display="inline" fill="#423935" d="M488.7,88.2c-0.4-0.2-0.9-0.4-0.9-0.6c-0.4-3-2.3-5.7-1.7-9.2   C488.2,81.4,489.4,84.8,488.7,88.2z" />
	<path display="inline" fill="#301F1D" d="M495.9,80.6c2.2-1,3.8-1.7,5.8-2.6C501.9,81.1,498.5,81.2,495.9,80.6z" />
	<path display="inline" fill="#5F4A45" d="M498.1,85.7c-0.2,0.1-0.4,0.2-0.7,0.3c-0.2-0.2-0.4-0.5-0.6-0.7c0.6-0.3,1.1-1.2,1.7-0.8   C498.4,84.9,498.2,85.3,498.1,85.7z" />
	<path display="inline" fill="#88736A" d="M479.1,43.9c-0.5,0.2-0.7,0.4-1,0.5C477.4,43.4,478.3,42.9,479.1,43.9z" />
	<path display="inline" fill="#222326" d="M506,203c-0.3,2-0.7,4.3-2.9,4.9c0.6-3.4,1.3-6.8,3.4-9.4c0,0.7,0,1.4,0,2.1   C505.6,201.2,506,202.1,506,203z" />
	<path display="inline" fill="#313035" d="M506.5,198.5c-0.4,0.5-0.8,0.9-1.3,1.4c0-1-0.3-2,0.9-3.1   C506.4,197.5,506.5,198,506.5,198.5z" />
	<path display="inline" fill="#363136" d="M507.8,191.7c-0.2,0.6-0.3,1.1-0.5,1.6c-0.2,0-0.3,0-0.5,0c-0.1-0.6-0.1-1.1-0.2-1.8   C507.1,191.6,507.4,191.7,507.8,191.7z" />
	<path display="inline" fill="#353238" d="M508.1,186.7c0.1,1.3,0.3,1.5-0.6,3c0-1.4,0-2.2,0-3C507.7,186.7,507.9,186.7,508.1,186.7   z" />
	<path display="inline" fill="#313035" d="M506,203c0-0.8-0.5-1.8,0.5-2.4C506.7,201.4,506.6,202.2,506,203z" />
	<path display="inline" fill="#2F2523" d="M473.3,170.1c-1.1,3.2-5.6,3.5-7.9,1.7C465.8,168.6,470.8,170.7,473.3,170.1z" />
	<path display="inline" fill="#251C1A" d="M547.8,153c-1.2,2-3.1,3.1-5.1,4.2c-1.1-0.1-2.4,0.5-3.1-1c2.8-1,5.2-2.3,7.3-4.4   C547.6,151.9,547.7,152.5,547.8,153z" />
	<path display="inline" fill="#241E1C" d="M437.1,132.5c-0.7-2.1-0.9-4.2-0.7-6.4c0.5-0.1,1.2-0.3,1.3,0.4c-0.4,3.1,2,5.8,1.9,8.6   C438.3,134.8,437.8,133.5,437.1,132.5z" />
	<path display="inline" fill="#100F0F" d="M479,173.6c-1.8,1-3.8,0.9-5.7,0.7c0-0.3,0-0.7,0-1.2c1.8-0.2,3.6-0.6,5.4-0.8   C478.8,172.7,478.9,173.2,479,173.6z" />
	<path display="inline" fill="#3A2826" d="M535.9,158.7c0.5-1.2,1.3-1.5,2.3-1.4C539.3,158.9,537,158.8,535.9,158.7z" />
	<path display="inline" fill="#45423D" d="M474,168.7c0.7,0,1.4,0,2.1,0C476.4,170.5,473.6,170.5,474,168.7z" />
	<path display="inline" fill="#503936" d="M477.7,167.3c0.7-0.2,1.2,0.1,1.8,0.4c-0.2,0.4-0.4,0.7-0.6,1.1   C477.6,168.6,477.6,168.6,477.7,167.3z" />
	<path display="inline" fill="#95756C" d="M529.4,161.6c0.5-0.2,0.9-0.5,1.4-0.7C532.5,161.8,529.8,163.4,529.4,161.6z" />
	<path display="inline" fill="#362724" d="M447.3,139.1c0.7,1.1,1,1.6,1.4,2.2C447,141.7,447,141.7,447.3,139.1z" />
	<path display="inline" fill="#502A27" d="M532.3,159.6c0.5-0.1,1.1-0.1,1.8-0.2c-0.9,1.4-1,1.1-1.8,0V159.6z" />
	<path display="inline" fill="#1B1614" d="M442.7,137.7c-1.5-0.1-1.3-0.9-1.4-1.7C442.8,136.2,442.4,137,442.7,137.7z" />
	<ellipse display="inline" fill="#453935" cx="444.6" cy="138.4" rx="0.4" ry="1.2" />
	<path display="inline" fill="#5F616D" d="M478.8,203.2c2.3,1.7,1.4,3.3,1.8,5.3C478.3,206.9,479.2,205.2,478.8,203.2z" />
	<path display="inline" fill="#373339" d="M479.9,199.1c-0.1-1.3-0.1-1.9-0.2-2.7C481,196.9,481.1,197.5,479.9,199.1z" />
	<path display="inline" fill="#010101" d="M467.8,213.6c0.3-0.5,0.5-1,0.9-1.7c0.5,1,0.5,1.7-0.2,2.1   C468.2,213.8,468,213.7,467.8,213.6z" />
	<path display="inline" fill="#4864C4" d="M510.7,214.2c0.1,0.6,0.2,1.2,0.3,1.8c0.1,0,0.2,0,0.4,0c0.1-0.6,0.1-1.3,0.2-1.9   c2.1-0.4,1.2,2.2,1.1,3.4c-1.9,0.1-3.9,0.2-5.5,0.2c-1.6-1.1-1.2-2.4-1.3-3.6c0.6,0,1.1,0,1.8,0c0.2,0.9,0.4,1.6,0.7,2.9   c0.2-1.1,0.3-1.8,0.4-2.7C509.5,214.2,510.1,214.2,510.7,214.2z" />
	<path display="inline" fill="#5674E3" d="M522.3,214.1c0.6,0,1.1,0,1.8,0c-0.2,0.9-0.3,1.6-0.5,2.6c-0.4,0-0.9,0-1.3,0   C522.3,215.8,522.3,215,522.3,214.1z" />
	<path display="inline" fill="#516CD4" d="M522.3,214.1c0,0.9,0,1.7,0,2.6C521.4,215.6,521.4,215,522.3,214.1z" />
	<path display="inline" fill="#2A2624" d="M464.7,123.1c2.9,0.6,1.4,5.7-0.4,7.3C463.7,127.8,464.9,125.6,464.7,123.1z" />
	<path display="inline" fill="#342725" d="M463.6,149.3c2.7,0.6,4.3,1.4,5.2,3.4C467.1,153,466.3,152.5,463.6,149.3z" />
	<path display="inline" fill="#0B0707" d="M457.7,95.6c-1.2,0-2.5,0-3.8,0c0-1.3,1.1-1,1.6-1.3c0.7,0.2,1.4,0.5,2.2,0.7   C457.8,95.2,457.8,95.4,457.7,95.6z" />
	<path display="inline" fill="#451E1D" d="M567.1,137.6c1.3-0.9,1.3-0.9,3.2-0.6C568.5,138,568.5,138,567.1,137.6z" />
	<path display="inline" fill="#5E2523" d="M486.1,171.5c-1,0.4-1.9,0.8-2.9-0.4c1-0.6,1.9-0.4,2.8-0.3   C486,171.1,486.1,171.3,486.1,171.5z" />
	<path display="inline" fill="#21100F" d="M579.6,143.8c0,0.3,0,0.5,0,0.8c-1.1,0.1-2.3,0-3.5,0   C577.1,143.6,578.4,143.8,579.6,143.8z" />
	<path display="inline" fill="#9E8982" d="M563.4,138.9c0.4-0.7,0.7-1.4,1.8-1.2c0,0.3,0.1,0.6,0.2,1.1   C564.6,138.8,564,138.8,563.4,138.9L563.4,138.9z" />
	<path display="inline" fill="#4C2D2C" d="M469.2,116.1c0.8,0.8,1.1,0.9,0.7,1.9C468.8,117.7,469.1,117.3,469.2,116.1z" />
	<path display="inline" fill="#6C534F" d="M563.3,138.9c-0.3,0.9-0.9,1.6-2.1,1.4C561.5,138.9,562.5,139,563.3,138.9L563.3,138.9z" />
	<path display="inline" fill="#D0BAB0" d="M457.1,145.9c0.5,0.9,0.5,1.1-0.3,1.3C456.2,146.8,456.6,146.4,457.1,145.9z" />
	<path display="inline" fill="#21100F" d="M582.6,143.8c-1,0-2,0-2.9,0C580.6,143.1,581.6,142.8,582.6,143.8z" />
	<path display="inline" fill="#524441" d="M462.8,148.5c-0.2,0.4-0.2,0.6-0.3,0.8c-0.4-0.1-0.7-0.3-1.1-0.4   C461.6,147.8,462.1,148.3,462.8,148.5z" />
	<path display="inline" fill="#B69992" d="M486.1,171.5c0-0.2-0.1-0.4-0.1-0.7c0.6-0.2,1.3-0.3,1.9-0.5   C488.1,172,486.8,171.4,486.1,171.5z" />
	<path display="inline" fill="#DEBEAF" d="M457.7,95c-0.7-0.2-1.4-0.5-2.2-0.7C456.4,94.2,457.3,93.8,457.7,95z" />
	<path display="inline" fill="#1C0F0E" d="M472.7,121c0,0.5-0.1,1-0.1,1.5C471.4,121.9,471.5,120.2,472.7,121z" />
	<path display="inline" fill="#58423F" d="M462.8,134.9c0-0.5,0-0.9-0.1-1.4c0.2,0,0.3,0,0.5,0c0,0.5,0,0.9,0,1.4   C463,134.9,462.9,134.9,462.8,134.9z" />
	<path display="inline" fill="#2C2221" d="M470.4,160.5c-0.4,0.5-0.8,0.8-1.3,0C469.5,160,470,159.7,470.4,160.5z" />
	<path display="inline" fill="#463835" d="M462.3,94.3c0.5,0.3,0.6,1.2-0.1,1.1C461.6,94.9,461.9,94.6,462.3,94.3z" />
	<path display="inline" fill="#EECABA" d="M479,173.6c-0.1-0.4-0.2-0.9-0.3-1.3c0.3,0.2,0.6,0.4,0.9,0.6   C479.4,173.2,479.2,173.4,479,173.6z" />
	<path display="inline" fill="#21100F" d="M583.8,143.9c0,0.2,0.1,0.4,0.2,0.6c-0.6,0-1.2,0.1-1.4-0.7   C583,143.8,583.4,143.9,583.8,143.9z" />
	<path display="inline" fill="#482826" d="M468.5,163c-0.1,0.3-0.2,0.4-0.3,0.6c-0.5-0.2-0.8-0.4-0.4-1   C468,162.8,468.2,162.9,468.5,163z" />
	<path display="inline" fill="#2F2120" d="M503.1,100.6c1.4-1.4,9.5-4.5,9.9-1.6c-3,0.8-6,1.6-9,2.3   C503.7,101.2,503.4,100.9,503.1,100.6z" />
	<path display="inline" fill="#32302E" d="M503.1,100.6c0.3,0.3,0.6,0.5,0.9,0.8c-2.6,2-4.3,4.4-7.4,1c1-0.8,1-0.8,3.7-0.2   C501.2,101.8,502.1,101.2,503.1,100.6z" />
	<path display="inline" fill="#503835" d="M493.8,100.9c-2.7,0.8-3.1,0.7-4.1-0.8C491.2,99.7,492.5,99.5,493.8,100.9z" />
	<path display="inline" fill="#272927" d="M507.2,119.5c-0.9-0.1-1.6-0.5-1.6-1.6C507.1,118.1,507.1,118.1,507.2,119.5z" />
	<path display="inline" fill="#634C48" d="M498.1,112.4c-0.6-0.5-1-0.9-1.6-1.5C498.2,110.8,498.2,110.8,498.1,112.4z" />
	<path display="inline" fill="#3C1F1D" d="M512,119c0.7,0.7,0.5,1.2,0,1.6C510.8,120.6,511.5,119.5,512,119z" />
	<path display="inline" fill="#6B5E5A" d="M502.2,115.4c-0.4-0.3-0.7-0.6-1-0.9C502.3,114,502.3,114,502.2,115.4z" />
	<path display="inline" fill="#1F1C1B" d="M544.8,117.2c0.6,1.7-0.3,3.1-0.8,4.7C542.8,120.2,543.1,118.7,544.8,117.2z" />
	<path display="inline" fill="#4F3835" d="M546.2,114.9c-0.9,0.9-1.5,0.3-0.8-0.7C545.5,114.4,545.8,114.6,546.2,114.9z" />
	<path display="inline" fill="#282421" d="M543,134.2c1.9,0.2,1.6,2.6,3.7,3c-0.9,0.6-1.4,0.9-1.9,1.2   C543.3,137.2,542.3,136.1,543,134.2z" />
	<path display="inline" fill="#8F847C" d="M586,147.4c0.5,0.5,0.9,1,1.4,1.5c-0.2,0.2-0.4,0.3-0.5,0.5c-1.6-0.6-2.5-1.9-3.8-3.2   C584.6,145.9,585.1,147.1,586,147.4z" />
	<path display="inline" fill="#554441" d="M576.7,159.9c0.8,0.7,0,2.1-0.9,1.3C575.4,160.4,575.8,160,576.7,159.9z" />
	<path display="inline" fill="#4B3834" d="M565.2,158.2c1.1,0.3,1.5,1.4,2.1,2.3C565.6,160.6,565,160,565.2,158.2z" />
	<path display="inline" fill="#1E1817" d="M568.4,162.5c0.1-0.5,0.1-0.9,0.1-1.2C569.2,161.3,569.2,162,568.4,162.5z" />
	<path display="inline" fill="#4A625D" d="M579.2,144.6c1-0.1,1.4,0.1,2.9,0.2C580.7,145.3,579.8,145.6,579.2,144.6z" />
	<path display="inline" fill="#21100F" d="M584,144.5c0.5,0.2,1,0.5,1.4,0.7C584.8,145.2,584.2,145.3,584,144.5z" />
	<path display="inline" fill="#21100F" d="M585.4,145.2c0.2,0.1,0.4,0.2,0.6,0.3c0,0.2,0,0.3,0,0.5   C585.8,145.7,585.6,145.5,585.4,145.2z" />
	<path display="inline" fill="#3E322F" d="M586,146c0-0.2,0-0.3,0-0.5c0.2,0.2,0.3,0.4,0.5,0.6C586.4,146,586.2,146,586,146z" />
	<path display="inline" fill="#382725" d="M594.7,143.7c2.7,0.7,5.4-0.2,8.1-0.5c0.1,0.3,0.1,0.7,0.2,1.1c-2.1,1-10.3,2.5-9.9-1.3   c0.3,0,0.5,0,0.8,0.1l0,0C594.1,143.3,594.4,143.5,594.7,143.7z" />
	<path display="inline" fill="#372523" d="M595.3,141c3.1-0.6,6-2.2,9.2-1.4c0.1,0.5,0.2,1.1,0.4,1.9c-0.3,0.1-0.7,0.2-1.1,0.3   c-0.5-0.5-1-0.9-1.5-1.4c-2.7,0.5-5.6,1.2-7.7,2.8l0,0c-0.2,0-0.5,0-0.7,0l0,0c-0.1-0.5-0.1-1,0.1-1.4   C594.6,141.8,595.1,141.7,595.3,141z" />
	<path display="inline" fill="#2D211F" d="M593.1,141.7c-1.2,0.1-2.5,0.4-3.6-0.6l0.1-0.1c1.2,0,2.4,0.1,3.6,0.1   C593.2,141.3,593.2,141.5,593.1,141.7z" />
	<path display="inline" fill="#69645E" d="M593.1,141.7c0.1-0.2,0.1-0.4,0.1-0.7c0.7-0.2,1.4-0.5,2.1-0.7   C595.5,141.8,594.2,141.8,593.1,141.7z" />
	<path display="inline" fill="#69645E" d="M593.8,142.4c0,0.3,0,0.5,0.1,0.8c-0.3,0-0.5,0-0.8-0.1   C593.3,142.8,593.6,142.6,593.8,142.4z" />
	<path display="inline" fill="#69645E" d="M593.9,143.1c0.2,0,0.5,0,0.7,0c0.1,0.2,0.1,0.4,0.1,0.6   C594.4,143.5,594.1,143.3,593.9,143.1z" />
	<path display="inline" fill="#69645E" d="M594.6,143.1c0.3-0.2,0.5-0.5,0.8-0.7C595.1,142.7,594.8,142.9,594.6,143.1z" />
	<path display="inline" fill="#7B6560" d="M590.3,130.3c-0.3-0.2-0.5-0.5-0.8-0.7c0.5-0.8,1-1.1,2-0.3   C591.1,129.7,590.7,130,590.3,130.3z" />
	<path display="inline" fill="#171211" d="M581,130.5c0.7,0,1.3,0,2,0.1C582.3,131.2,581.6,131,581,130.5L581,130.5z" />
	<path display="inline" fill="#282A27" d="M588.1,133.3c0.7,0,1.5-0.1,2.8-0.1C589.5,134.3,588.8,133.8,588.1,133.3L588.1,133.3z" />
	<path display="inline" fill="#301F1D" d="M595.4,140.3c-1.8,0.8-3.7,0.7-5.7,0.6c0-0.3,0-0.6,0-0.9c5,2.7,6.8-6.7,11.5-3.1   C598.9,137.9,596.9,138.8,595.4,140.3z" />
	<path display="inline" fill="#7E6963" d="M597.4,132.5c1.9,0.2,1.7,1.4,2,2.3C598.1,136,598,133.6,597.4,132.5z" />
	<path display="inline" fill="#433D3A" d="M469.1,379.4c-0.1-0.8-0.4-1.7,0.5-2.3C469.5,377.9,469.3,378.6,469.1,379.4z" />
	<path display="inline" fill="#433D3A" d="M469.9,375.9c0.2-0.3,0.3-0.6,0.5-1C470.2,375.3,470.1,375.6,469.9,375.9z" />
</g>
</svg>