<?xml version='1.0' encoding='utf-8'?>
<svg xmlns="http://www.w3.org/2000/svg" version="1.2" baseProfile="tiny" id="Layer_1" x="0px" y="0px" viewBox="0 0 900 600" overflow="visible" xml:space="preserve">
<g id="a_00000147209914068286073930000004613644189155830199_">
	<path d="M657.6,16.7c-36.6,1.8-73.7,0.1-110.5,0.7c-1.6,10.9-9.4,19.8-10.1,31c-2.9,9.1-1.7,19.6-3.3,29.2   c-0.9,14.4-5.3,28-9.5,41.7c-5.6,14.2-2.8,29.8-5.8,44.3c-4,18.2-9.9,36-13.7,54.2c-2.2,8.6,0.4,17.9-4.6,25.8   c-1.3,8.6-0.8,17.8-2.7,26.5c-1.9,11.9-8.8,23.4-7.5,35.7c16.2,51.8,29.5,51.1,18.7,112.5c-4.9,47.3,5.1,50.3-19.3,93.7   c-0.8,2,1.2,3.6,2.1,5.1c11.6,16.2,14.6,33.8-1.6,48.5c-15.1-1.9-18-19.3-23.8-30.6c-1.5,12.1-3.8,24.2-6,36.2   c-1.4,7.2-5.1,13.7-6.8,20.9c-1.1,4-3,6.7-7.6,6.3c-0.4,0.5-0.9,1-1.4,1.4c-2.7,0.2-4.7-3.3-7.4-2.3c-6.3-7.7-8.5-18-11.1-27.5   c-1.8-8.3,6.6-14.1,6.2-22.4c-3.5-12.8-9.3-34.3,7-40.6c-8.9-4.7-16.3-11.4-17.7-22c0.3-0.4,0.7-0.8,1.2-1.3   c-54.5-163.4,4.7-105.5-7.5-191.5c-6.3-25.4-13.9-50.1-16.7-76c-5.6-25.4-15.5-49.9-15.4-76.1c-0.6-17.3-9-32.7-11.5-49.6   c-2-13.2-2.9-26.7-4-40c-2-4.7-2.1-9.9-3.9-14.8c0.1-0.5,0-1.1,0.7-1.4c11.2,28,5.2,60.3,18.6,88c4.2,43.4,15.2,85.3,25.5,127.6   c6.7-7,24.7-42,17.3-49.2c0.6,0,1.3-0.1,1.9-0.1c2.4-4.3-8.1-15.2-3.5-16.2c2.6,3.6,3.7,8.2,6.6,11.8c1.1-0.1,2-0.3,2.8-0.4   c1-0.9,2-1.7,2.9-2.5c0.3-8.1-3-15.7-4.3-23.5c-2.4-1.3-4.5-2.5-6.7-3.8c-0.8-1.6,0.1-3.8-1.2-5c-0.1-0.6-0.1-1.3-0.2-1.9   c0.2-0.3,0.5-0.5,0.7-0.8c-0.3,0.9,0.7,1.1,0.8,1.9c-0.2,0.6-0.2,1.2,0.6,1.5l0,0c-0.1,0.8-0.3,1.6,0.6,2.1c1.1,2.5,3.9,3,6.3,2.7   c1.4,0.8,2.3,2.4,3.9,3c0.6,0.2,0.9,1,0.4,1.9c-0.6-0.1-1.3-0.2-2.3-0.4c1.1,7,8.2,21.4,1.2,26.7c0.4,6.9,1.3,13.5,7,17.8   c0.4-0.2,0.9-0.5,1.4-0.8c2.3-17.6-0.4-35.8-2.2-53.1c-0.6,0.7-0.9,1.1-1.3,1.4c-0.2-0.2-0.4-0.4-0.6-0.6c0.1-0.2,0.1-0.4,0.1-0.7   c0.4-0.7,0.9-1.4,1.3-2.1l0,0c0.9-0.7,0.6-1.8,0.7-2.7c-0.5-0.5-0.9-1-1.4-1.6c0.3-0.5,1.1-0.9,1.3-1.2c0.6-5.7-0.5-3-4-4.9   c1.2-0.4,2.4-0.7,3.6-1.1c0.1-0.7,0.3-1.3,0.4-1.9c-1-0.4-1.8-0.8-2.6-1.2c0.9-0.9,2.1-0.8,3.3-0.9c-0.4-1-0.4-1-1.4-1.1   c-3.1-1.4-5.3-3.8-7.5-6.2c0.3-0.3,0.6-0.6,0.8-0.9c2.7,1.9,5.4,3.8,8.4,5.9c1.7-2.9,4.6-4.2,7.4-5.4c0.5-2.5,0.9-4.9,1.3-7.2   c0.4,0.7,0.8,1.3,1.1,2c0,1.8,0,3.5,0,5.3c2.1,1.6,3.6,0.6,5.1-1.1c0.2,0.2,0.5,0.5,0.7,0.7c-0.5,0.7-1,1.5-1.5,2.3   c0.8,0.9,1.6,1.7,2.3,2.4c1.7-1,3.2-1.9,4.6-2.8c0.3,0.3,0.5,0.5,0.8,0.8c-0.1,0.1-0.1,0.3-0.1,0.4c-1.8,1.1-3.4,2.4-4.8,4.1   c0.4,0.8,0.7,1.5,1.1,2.2c1-0.2,2-0.3,3-0.4c-0.2,0.6-0.3,0.9-0.5,1.2c-0.9,0.4-1.9,0.9-3,1.4c0.6,1.1,1.1,1.9,1.5,2.7   c-0.7,0.2-0.4,0.6-0.1,0.9c-0.1,1.1,0.1,2.1,1,2.8c-0.4,1.2-0.4,2.5,0.4,3.5c-0.1,2.4,0.9,4.6,1.7,6.6c-0.6,3,0.6,5,0.8,8.2   c0.5-1.9,0.8-3.4,1.2-4.8c0.5-0.1,0.9-0.1,1.4-0.2l0,0c-0.7,9.4-5.7,18.3-1.6,28c1.9,0.7,3.7,1.8,5.6,3c1.9-5.3,3.7-10.4,6.9-15   c4.2-0.1-4.5,12.6-4.6,15.5c-3.9,17.2,6.2,37.2,22.4,44.4c4.7-27.3,12.9-54.1,18.6-81.6c1.6-21.1,4-41.7,11.9-61.6   c4.9-20.1,3.4-41.3,9.2-61.3c4.8-10.8,10.6-22,7.6-34.2c-0.8,0-1.4,0-2.2,0c-0.2,2.4,0.3,4.1-1.3,6c-1.6-2.6-0.3-5.3-1-7.8   c-0.5-0.4-1.1-0.8-1.9-1.4c-1.3,1.8-0.9,3.6-0.9,5.7c-1.2,0.9,0.2,2.6-1.3,3.7C535.6,8.4,535.4,6,535,3c-1.6,0-3-0.4-4.5,0.3   c-0.3,2.3-0.6,4.7-0.9,7.4c-1.3-3.1-0.3-5.4-1.4-8.4c-1.8,0.2-2.8,0.9-4.3,1.7c-0.9,5.3,1.1,12-3.1,16.1c-1.7-0.8-0.3-2-1.9-2.8   c-0.1,3.6,1,6.3,1.4,9.7c-0.4,0.7,0.3,1.8-0.8,2.2c-1-3.8-2.1-7.7-3.2-11.6c-43,0-86.2-0.2-129.2,0.2c-1.1,4.2-2.2,8.2-3.2,12.2   c-1.7-2.1-0.1-5.1,0-7.5c0.9-0.8,1.6-5.9-0.5-4.5c-0.1,1-0.2,2-0.3,3c-5.1-3.1-2.4-11.1-3.6-16.2c-1.4-0.6-2.6-1.6-4.1-1.5   c-1.5,2.5-0.3,5.3-1.6,8.4c-0.4-2.9-0.7-5.2-1-7.7C371,3.6,369.5,3.3,368,4c-0.3,3.3,0.2,5.6-1.4,8.7c-0.6-3.7,0.3-6.8-1.5-9.6   c-0.8,0.4-1.4,0.7-2,1.1c-0.2,3,0.7,5.3-1,8c-1.6-2.3-0.3-4.3-1.6-6.3c-0.6,0.1-1.2,0.1-1.9,0.2c-1.7,5.7,0.9,12-1,17   c-1.7-1.1-1.2-3.3-1.5-5.1c-37.8-1.3-76.1,0.6-114-0.6c-0.3-0.4-0.5-0.8-0.8-1.2c0-0.5,0-0.9,0-1.4c0.2-0.2,0.5-0.4,0.7-0.7   c0,0,0,0,0,0c0.7,0,1.4,0,2,0c0,0,0,0,0,0c37,1.2,74.8-0.2,112.1,0c0.1-1.3,0.1-2.3,0-3.5c-37.2-1.8-75.7,0.5-113.3-0.9   c0-0.6-0.1-1.3-0.1-1.9c37.3-2.1,75.7,0,113.4-0.7c0.7-2.1,1.5-4.2,4.4-2.8c2.5-4.3,7.7-1.9,11.7-2.5c3.9-2.2,9.2,0.2,9,5   c46.9,0.6,93.8-0.4,140.7,0.2c0.2-11.4,10.7-3.4,16.6-7.1c1.5,1.2,2.9,2.2,4.5,3.4c3.1-0.3,2.9-0.3,4.3,3.7   c36.4,0.8,73.6-1.5,109.7,0.8c-0.1,0.6-0.2,1.3-0.4,2.1c-36.5,0.7-73.2-0.7-109.6,0.5c-0.3,1.3-0.4,2.4,0.3,3.6   c36.7,0.7,74-1.5,110.4,0.7C657.7,15.6,657.6,16.2,657.6,16.7z M495.3,480.6C495.3,480.6,495.3,480.6,495.3,480.6   c-0.2,0.3-0.5,0.5-0.7,0.7c-4.1-2.3-8.4-4.2-13.6-3.6c7.4,4.8,8.5,13,10.6,20.8c17-23.7,8.8-54.1,12.5-81.2   c-12,5-33.2,8.9-44.5,1.5c3.2,18.3,11.1,36.6,10,55.9c2.9,0.9,7.2,1.8,9.5,0.4l0.3,0l0.2-0.2c2.7,0.1,5.4,0.1,8.5,0.2   c0.9-1.6,1.9-3.4,3-5.3c0.5,2.3-0.3,4.1-1.5,6C492,476.6,493.6,478.7,495.3,480.6z M448.5,221.2c-1.5,1.2-1.7,2.7-1.1,4.6   C448.2,224.3,448.7,222.8,448.5,221.2c1-0.8,1.6-1.8,1.1-3.4C448.8,219,448.3,220,448.5,221.2z M458,199.8c6.2-16.1,2.5-33.4,1-50   c0.2-3.4,0.1-6.7-3.3-8.4c0.2,2.7,0.3,5.1,0.4,7.5c-2.1-1.7-0.7-5.7-2.9-7.7c-0.9,2.5,0.2,4.5-1.1,6.4c-0.1-2.6-0.3-5.1-0.4-7.9   c-16.5,2.4,1.2,49-4.4,64.6c0.7-1.5,1.1-2.3,1.5-3c1-0.4,0.2-1.4,0.6-2.1c1.3-0.7,0.2-1.9,0.7-2.8c1.3-0.6,0.3-1.8,0.7-2.7   c1,0.5,0.4,1.5,0.7,2.2c-0.1,0.4-0.1,0.8-0.2,1.2c-1.2,0.7-0.2,1.9-0.6,2.8c-1,0.5-0.6,1.3-0.6,2.1c-1,4.5-3.2,9.6-3.4,14.4   c-0.1,1.5-2,2.8-0.2,4.7c0.6-3.2,2.3-5.8,2.8-8.8l0,0c4.3-9.5,6.3-19.5,6.6-30c0.6,1,1,1.5,1.6,2.4c0.5-5.9-1-11.9,0.7-17.1   c2.1,11.4,0.8,22.8-1.1,33.8C457.4,200.7,457.7,200.2,458,199.8z M447.2,512.9c-5.4-5.4-12.9-0.8-15.7,5   c-2.5,9.9,1.5,20.2,3.4,29.7c-6.3,26.8-12.4,8.6,0.9,44.2c0.6-0.1,1.1-0.1,1.7-0.2c0.9,5.1,8.9,6.8,10.6,1.5   c4.1-9.1,10.1-18.6,10.1-28.8c0.1-7.4-3.8-14.2-2.3-21.7c1.4-8.9,1.5-24.5-6.9-29.9C448.3,512.8,447.7,512.9,447.2,512.9   L447.2,512.9z M469.8,343.7c5.6-0.5,23.8-2.6,26.3,2.7c1.7,0.5,3.3,0.9,5.2,1.5c-12.5-31-20-35.4-11.7-70.7   c-11.3,5.1-23.4,6.1-35.5,6.3c-0.3,3.3-0.6,6.6-0.9,10c-0.5-0.5-0.9-0.9-1.4-1.4c-0.6-3-1.2-6-1.9-9.1c-11.5-0.5-22.9,0.7-34.1-2.8   c6.2,25,6.2,41.6-1.6,66.4c10-1,19.5-3.2,29.7-1.8c-1.2-2.5-2.3-3.4-2.2-6.1c2.3,1.8,3.3,3.4,4.7,5.7c-0.1,1,1.3,0.5,2,0.7   C455.6,344.8,463.1,345.4,469.8,343.7z M460.1,415.7c11.4,5.1,38.2,7.5,45-5c5.3-19,4.9-39.5-1.7-58c-14-7.8-29.8-6.4-45.1-4.4   c-15.2,0.6-30.4-2-45.5,1.8c-13,18.8-12.1,42.4-6.1,63.4c10.1,14.3,30.5,7.4,44.3,2.8c0-0.9,0-1.7,0-2.8c-5,2.6-10.2,3.8-15.5,3.8   c-0.2-0.5-0.4-0.8-0.5-1.1c8.2-0.7,14.8-5.5,21.4-9.7c2.6,4.2,7,6.2,11.4,7.5c-2,2.1-5.2-1.1-7.4,0.5c-0.2-0.4-0.3-0.8-0.5-1.2   C458.2,413.9,458.6,415.7,460.1,415.7z M440.2,465.5c0.5,1.2,1.2,2.5,1.7,3.8c3.7,0,7.2,0.7,10.7,1.4c-5.5-16.9-2.5-34.1-1.1-51.4   c-14.2,6.6-29.5,6.8-43.3,0.5c3.6,17.1,8.6,34,12.9,50.9c0.7,0.3,1.2,0.5,1.5,0.7c0.7,3.1-0.2,6.1,1.4,9.3   c2.5-7.3,9.2-8.8,15.5-11.1c0-1.4,0-2.7,0-4.1C439.8,465.5,440,465.5,440.2,465.5z M460.8,556.2c5.8-23,0.5-26.7-4.1-47.4   c-1.6,0.2-3-0.3-4.4,0.1c10.1,14.8,4.4,33.8,7.4,50.6C460.6,558.5,461.1,557.5,460.8,556.2z M466.5,526c-0.2-4.1,0.3-8.1,1.4-12.1   c-1.9-4.4-5-8.4-6.1-13c0.5-0.5,0.8-0.9,1.2-1.2c-1.8-4.2-2.5-8.5-1.5-13.3c-1,0.6-1.8,1-2.5,1.3c-0.7,2.8-1.4,5.4-2.1,8.1   c4,10.7,1.5,25.4,10.2,33.5C467.1,528.1,467.3,526.9,466.5,526z M455.4,499.8c-2.2-5.8-0.9-12.7,4.6-16c-2.2-9.9-12.5-13-22.1-11.7   c-23.3,9.3-13.6,23,3.8,32.5c3.8-0.5,7.3,1.3,10.9,2c1.1-2.2,2.3-0.9,4.4-1.2C455.9,503.6,456.7,501.5,455.4,499.8z M486.4,561.8   c0.4,0.2,0.7,0.5,1.1,0.8c8.5-4.2,9.9-15.8,12-24.4c-3.4-7.9-7.8-16.1-12.3-23.5c4.2-13.6,1.3-38-17.6-36.9   c-9.3,4.2-5.8,14.6-6.1,22.6c0.2,5.7,5.7,9.4,6.8,14.9c-4.9,10.4-2.4,23.3,4.2,32.5C476.1,554.9,479.3,558.8,486.4,561.8z    M447.1,280.3c14.8-1.7,30.8-2.9,44.4-9c2.6-8.2,4.4-16.4,5.1-25c-18.7-5.5-26.4-27.8-25.1-45.6c-0.6-0.2-1.4-0.4-2.2-0.6   c-1.6,13.2-2.6,18.2-17.5,19.1c-3.2,5.9-2.9,11.1-2.5,17.5c-1.3-1.4-1.4-2.7-1.6-3.9c-1.6-4.7-5.5-9.3-3.9-15   c-9.8-1.3-8.5-12.1-10.6-19.2c-0.9,0-1.7,0.1-2.7,0.1c-0.1,19.1-7.1,37.7-19.7,52.1c1.4,8.3,2.3,16.7,4.1,25.2   C425.2,279.3,436.4,281.9,447.1,280.3z M381.3,14c46.9-0.1,93.8,0.9,140.6-0.2c0-1.1,0-2.1,0-3.2c-46.8,0.5-94-1.3-140.6,0.4   C381.3,11.9,381.3,12.8,381.3,14z M456.6,411.5c-1.8,1.2-1.7,2.9-1.7,4.5c-0.1,10.7-1,21.3-2.7,31.8c-0.6,8.3,3.3,16.2,3.1,24.4   c3,2.2,5.1,5.1,7.1,8.5c1.1-2.4,2.5-4.2,4.5-5.3C467.2,453.5,455.8,433.6,456.6,411.5z M463.2,193.4c-3.5,7.8-7.5,15.2-10.4,23.2   c10.2-1.1,14.2-7.3,13.7-17.2C464.3,197.5,464.5,195.6,463.2,193.4z M449.5,509.8c0.4-0.2,0.2-1,0.1-1.4   C448.3,507.9,448.3,509.6,449.5,509.8z" />
	<path fill="#8999BB" d="M657.6,16.7c0-0.6,0.1-1.1,0.1-1.9c-36.3-2.2-73.7,0-110.4-0.7c-0.7-1.2-0.6-2.3-0.3-3.6   c36.4-1.3,73.1,0.1,109.6-0.5c0.1-0.8,0.2-1.5,0.4-2.1c1.4,2.2,1.4,4.3,2.1,6.9C658.6,15.4,658.1,16.1,657.6,16.7z" />
	<path fill="#8190AF" d="M242.7,7.9c0,0.6,0.1,1.3,0.1,1.9c36.9,2.5,75.8,0,113.3,0.9c0,0.7,0.1,1.4,0.1,2.1   c-37.1,1.7-74.8,1.1-112.2,1.4l0,0c-0.8-1-1.2-1-2,0l0,0c-0.3,0-0.6-0.1-0.9-0.1C241.4,11.9,241.3,9.7,242.7,7.9z" />
	<path fill="#191717" d="M363.9,34.7c-0.7,0.2-0.6,0.8-0.7,1.4c-3.1-3.8-4.7-8.3-5.5-13c0.7-0.2,0.6-0.9,0.7-1.4   c0.2,0,0.3,0.1,0.5,0.1C359.9,26.3,362,30.5,363.9,34.7z" />
	<path fill="#7283A8" d="M241.4,16.2c0.3,0.4,0.5,0.8,0.8,1.2C241.5,17.3,241.3,16.8,241.4,16.2z" />
	<path fill="#7283A8" d="M241.3,14c0.3,0,0.6,0.1,0.9,0.1c-0.2,0.2-0.5,0.4-0.7,0.7C240.8,14.7,240.9,14.4,241.3,14z" />
	<path fill="#FF9A77" d="M430.6,347.9c9.2-2,18.4,2.2,27.7,0.3c15.4-2,31.1-3.4,45.1,4.4c6.7,18.5,7.1,39.1,1.7,58   c-4.2,9.2-18.2,8.9-27.1,8.7c0.1-1.2,0-2.4-0.7-3.5c3.4,0.5,6.5-1.7,9.7,0c2.1-0.6,5-0.4,6.4-2c0.1-4.1,3.5-2.1,5.7-4.3   c-0.7-0.4-1.1-0.6-1.5-0.8c0.4-1.7,3-3.6,1.8-5.2c-10.8,4.2-29.5,6.9-38.5-1.9c-5.7-5-4.1-12.3-8-18.1c-2.9,6.6,0.4,14,1,21   c-9.7,1.5-27.6,8.7-31.6-4.5c-8.9-16.7,3.8-34.3,5.7-51.2C428.9,348.2,430.1,348.9,430.6,347.9z M453.9,356.7   c0.2-1.5,1-3.2,0.4-4.7c-2.9-1.6-1.4,7.9-1.7,9.7C453.8,360.2,454.2,358.5,453.9,356.7z M452.9,376.1c-0.5,1.1-0.4,2,0.1,3.5   c0.4-1.4,0.7-2.3,1-3.2C453.5,376.2,453.2,376.2,452.9,376.1z" />
	<path fill="#F6D9C7" d="M537.2,7.7c0-2.1-0.4-3.9,0.9-5.7c0.8,0.6,1.4,1.1,1.9,1.4c0.7,2.5-0.6,5.2,1,7.8c1.6-1.9,1.1-3.6,1.3-6   c0.8,0,1.4,0,2.2,0c3,12.3-2.8,23.4-7.6,34.2c-5.8,19.9-4.3,41.2-9.2,61.3c-7.9,19.9-10.2,40.5-11.9,61.6   c-5.7,27.5-13.9,54.2-18.6,81.6c-12.9-5.3-19.1-17.3-22.6-30.1c1.3-4.3,2.6-10.3,6.7-12.6c0.8,0.4,1.6,0.9,2.6,1.5   c1.1-0.1,2.3-0.2,3.7-0.4c3.4,2.1,4.5,6.2,9.5,6.3c-1-8.8-6.1-15.8-8.9-24.1c3-1.3,4.3-4.1,5.9-6.6c1.1,0.9,2,1.7,2.9,2.5   c4.9-5.6,1.5-13.7,1.7-20.2c-0.9-16.8,16.6-42.6,12.3-53.9c3.6-24.5,16.5-46.9,15.6-72C520.5,23,523.2,16,523.8,4   c1.5-0.8,2.5-1.5,4.3-1.7c1.1,3,0.1,5.3,1.4,8.4c0.3-2.7,0.6-5,0.9-7.4c1.5-0.8,3-0.3,4.5-0.3c2.2,7.3-3.7,14.3-1.1,21.5   c-0.3,0.6-1.3,1.1-0.5,2c1.1-0.3,1.3-1,1.2-2c0.5-2,1.8-3.7,1.3-5.8c0.3-0.6,0.6-1.2,0.9-1.8c0.8-0.4,0.8-1.1,0.5-1.7   C535.7,12.7,538,10.3,537.2,7.7z M527.7,21.6c-0.1,0.6-0.2,1.2,0.6,1.5c0.9-0.7,0.7-1.7,0.7-2.8c-1.7-2.2,1.7-3.8,1.2-6.1   c0-0.7-0.3-1.4-1.2-0.8c-1.2-0.5-0.3-2.6-2.4-2.6c-1.7,1-0.9,2.6-1,4.1c0.5,0.4,1,0.8,1.3,1C526.8,18.2,526.9,19.7,527.7,21.6z    M511.4,159.3c-1,1.3-2.2,9.2-0.7,10C512.3,166.3,512.8,162.5,511.4,159.3z M517.5,107.1c-0.5,2.9,1.1,6,1.4,8.9   C521.9,115.7,520,107.8,517.5,107.1z M517.8,102.5c-1.7-0.1-1.8,3.7-0.1,3.8C518.3,105,518.4,103.8,517.8,102.5z M488.9,231.8   c-1.3,0.3-2.6,0.7-2.6,2.6C488.4,234.6,488.5,233,488.9,231.8z M531.8,42c1.8,0.4,1.9,0.3,3-1.7C533.2,39.9,532.6,40.9,531.8,42z    M528.2,27.4c1.1-1.1,1.2-2,0.9-3.1C527.7,25.5,527.7,25.5,528.2,27.4z M510.8,154.3c0.6-1.7,0.6-2.7-0.2-3.8   C509.4,151.8,509.9,152.7,510.8,154.3z M510.5,158.4c1.5-1.3,1.5-1.6,0-3.2C510.5,156.3,510.5,157.3,510.5,158.4z M517.7,97.3   c-1.6,0.5-1.4,2.1,0.1,2.5C518.1,98.5,518.1,98.5,517.7,97.3z M493.6,225.9c0.3-0.4,0.9-0.8,0.3-1.2   C493.2,224.4,492.9,225.5,493.6,225.9z M491.3,228.1c0.9-0.3,0.5-0.6,0.3-1.2C490.9,227.1,491.2,227.5,491.3,228.1z" />
	<path fill="#FFF0A7" d="M421.6,234.8c6.2-11.2,8.5-23.3,8.9-36c1,0,1.9-0.1,2.7-0.1c2.1,7.1,0.8,18,10.6,19.2   c-1.5,5.7,2.3,10.3,3.9,15c0.2,1.2,0.3,2.4,1.6,3.9c-0.4-6.4-0.7-11.7,2.5-17.5c14.9-0.9,15.8-5.9,17.5-19.1   c0.9,0.2,1.6,0.4,2.2,0.6c-1.3,17.8,6.4,40.1,25.1,45.6c-0.7,8.6-2.5,16.8-5.1,25c-9.7,4.5-21.4,6.7-32,6.7   c-0.7-7.7-4.8-14.5-3.2-22.4c3.7,1.6,6.6,3.9,10.7,2.2c-2.6-4.5-8-5.6-12.2-8.3c-0.4-1.5-0.3-3.5-1.9-4.7   c-3.9,10.5-5.6,23.1-3.9,34.4c-5.2,3.4-11.5,1.5-17,0.5c-3.3-3.2-1.8-8.4-2.9-12.5c-0.5-3-1.6-5.6-1.1-8.7c2.8-0.7,7.5,1.5,8.7-1.7   C425,249,427.5,246.5,421.6,234.8z" />
	<path fill="#F6D9C7" d="M358.9,21.7c-0.2,0-0.3-0.1-0.5-0.1c-0.4-5.3-0.7-10.2,0.2-15.6c0.7-0.1,1.3-0.1,1.9-0.2   c1.2,2-0.1,4,1.6,6.3c1.7-2.6,0.8-5,1-8c0.6-0.3,1.2-0.7,2-1.1c1.8,2.9,1,5.9,1.5,9.6c1.6-3.2,1.1-5.4,1.4-8.7   c1.5-0.7,3-0.4,4.7-0.2c0.3,2.4,0.6,4.8,1,7.7c1.3-3.1,0.1-5.9,1.6-8.4c1.5,0,2.7,0.9,4.1,1.5c1.1,5.1-1.5,13.1,3.6,16.2   c0.8,0.2,0.7,0.9,0.9,1.5c-5.9,22.4,0.8,45.9,8.2,67.1c2.9,7.4,1.5,15.9,4.9,23c2.4,11.7,9.9,21.9,11.3,34   c0.3,7.2,2.6,14.3,3.3,21.7c5.3,10.4,15.3,20.4,15.7,32.7c-0.7,0.1-1.3,0.1-1.9,0.1c5.7,8.1-2.9,20.2-5.5,29.2   c-4.9-2.8-7.2-6.7-12.1-10c-1.5-2.8,0.7-7.2-0.3-10.4c5.7,0.3,5.6-6.6,8.9-9.8c2.1-1.5,8-5.7,5.3-8.3c-1.6,0.8-1.5,2.9-2.7,4   c-6.6-2.8-10.8,2.6-14.4,7.4c-3.3-12.5-10.3-24.5-10.3-37.7c0.2-4,5.6-30.3-3-15.3c-2.8-4.6-2.3-11.6-2.5-17.1   c-1-1.1-1.9-2.1-2.8-3.2c0.3-5.9-0.5-11.6-0.6-17.3c1.1-0.5,0.2-1.4,0.6-2.1c1.8-4.9,1.4-9.1-4.9-6.4c-3.9-8.8-3.3-18.2-3.5-27.5   c-2.1-11.3-4.2-22.6-5.3-34C372.1,33.7,362.9,28.3,358.9,21.7z M374.1,17.9c0.8-1.4,0-2.7-0.3-4.5   C372.3,15.3,373.4,16.6,374.1,17.9z M366.3,15.8c0.4,1.7,0.5,2.9,2.4,3.9C368.4,18,368.2,16.8,366.3,15.8z M374.2,23.8   c1.5-1.8,1.5-1.8,0.4-3.1C373.9,21.7,374.2,22.5,374.2,23.8z M374.8,28.4c1-2,0.6-2.7-0.8-3.6C373.9,26.6,374.1,26.4,374.8,28.4z    M407.3,166.3c-0.8,1.6,1.1,4,2.5,2.9C409.1,168.4,408.4,167.6,407.3,166.3z M385.2,100.7c1.9-0.5,1.8-3.4-0.2-2.4   C385.1,99,385.2,99.7,385.2,100.7z M368,20.2c0.3,1.3,0.3,2.2,1.3,2.8C369.6,21.8,369.7,20.9,368,20.2z M370,27.3   c0.4-1.1-0.1-1.7-1.1-2C368.4,26.4,369.1,26.8,370,27.3z" />
	<path fill="#EF8A6A" d="M430.6,347.9c-0.5,1.1-1.7,0.3-2.5,1c-1.9,16.8-14.6,34.5-5.7,51.2c4,13.2,21.9,6,31.6,4.5   c-0.6-7-4-14.3-1-21c3.9,5.8,2.3,13.1,8,18.1c9,8.7,27.7,6,38.5,1.9c1.2,1.6-1.3,3.5-1.8,5.2c0.4,0.2,0.8,0.4,1.5,0.8   c-2.2,2.2-5.6,0.2-5.7,4.3c-0.7,0.7-1.8,1.3-3.1,1.3c0.1-0.4,0.3-0.7,0.6-1.4c-1.6,0.4-2.8,0.6-4,0.9c0,0.5,0.1,0.8,0.1,1.2   c-1.9-1-3.8-0.9-5.7-0.1c-0.2-0.9-0.8-1.3-1.7-1.3c-8.4,0.3-18.4-0.3-23.4-8.1c-6.5,4.2-13.2,9-21.4,9.7c-1.2-1.3-2.8-0.9-4.4-0.9   c-0.1-0.4-0.1-0.8-0.2-1.3c-1.5,0-2.9-0.4-4.5,0.1c0.6,0.6,1,0.9,1.4,1.3c-2.2-0.4-4.3-0.9-6.5-1.3c-0.8,3.9-0.5,5.3,1.6,7.5   c-28,1.4-22.1-57-9.6-71.5C418.5,348.6,424.6,348.6,430.6,347.9z M453.9,390.4c-0.8,0.9-1.4,0.9-0.8,1.9   C454.3,392.1,453.9,391.6,453.9,390.4z" />
	<path fill="#F6D9C7" d="M465,344.4c-2.4,0.2-4.8,0-7.2-0.1c4.3-19.8,5-40.4,1.9-60.3c2.1-0.4,4.6,0.7,6.1-0.8   c8.3-0.8,16.1-2.9,24-6c-8.3,35.4-0.8,39.8,11.7,70.7c-1.9-0.5-3.5-1-5.2-1.5c-4.3-6.2-18.7-1.7-25.6-3.8c-0.6-2.8,1.7-6.7-2.4-7.1   c-0.3,0.8-1.2,1.7-1.1,2.6l0,0C465.9,340,464.8,342.1,465,344.4z M478.5,325.9c-0.8,0.7-2,1-1.4,2.5   C478.7,327.5,478.7,327.5,478.5,325.9z M472.6,331.2c1.7-1.2,1.7-1.2,1.8-2.5C473.4,329.1,472.6,329.5,472.6,331.2z M470.2,334.1   c1.1-0.7,1.1-0.7,0.5-1.8C469.9,332.7,469.4,333.2,470.2,334.1z" />
	<path fill="#EBDDB8" d="M486.4,561.8c-7-3-10.3-6.9-11.7-14.1c-6.7-9.2-9.2-22.2-4.2-32.5c-1.1-5.5-6.6-9.2-6.8-14.9   c0.3-7.9-3.2-18.4,6.1-22.6c18.8-1.1,21.8,23.3,17.6,36.9c4.5,7.4,8.9,15.6,12.3,23.5c-1.1,5.5-1.9,10.8-4.9,15.5   c0.1-2.1-0.4-4.2-1.2-6.2c-1.1-0.1-2.1-0.1-3.1-0.2c1.5-9.6,2.6-14.6-4.5-22.7c0,7,0.5,16.5,3.3,23.6c0.4-0.3,0.8-0.6,1.2-0.9   C490,552.5,492.5,559.5,486.4,561.8z M476.3,508.9c4.9-3.3,3.4-11,1.8-15.9c-2.5-2.2-0.8-6.8-3.7-8.2   C473.8,492.7,477.2,501,476.3,508.9z M475.3,526.9c-1.3,1.9,3.1,22.5,5.8,21.7C481.1,540.9,477.8,534.1,475.3,526.9z" />
	<path fill="#EBDDB8" d="M447.2,512.9c0.6-0.1,1.1-0.1,1.8-0.2c13.5,10.4,3.6,29.6,8.1,43.5c4.5,7.5-5.4,37.4-12.7,39.9   c0.1-0.3,0.3-0.6,0.4-1c-0.5-1.2-1-2.4-1.5-3.7c-3.4-0.7-7.1-0.3-8.3-4.9c-0.1,1.2-0.2,1.7-0.2,2.3c-11.5-31-5.8-16,0.3-41.2   c-2.1-11.4-11.1-32,5.3-36.9c0.1,0.8,0.2,1.5,0.3,2.2c1.2,0.8,2.2,1.4,3.2,2.1C444.9,514.2,446,513.6,447.2,512.9z M442.4,544.7   c-1.3,0.1-2.9-0.5-4.1,0.9c2.3,0.3,11.2,2.1,10.7-1.6C446.8,543.4,444.5,544.5,442.4,544.7z M436.9,564.4c-0.2,2-0.2,2-1.4,3.7   c0.1,5.7-2.5,12.5,2.7,16.6c1.3-7.8,2.3-17-0.1-24.8C436.4,561.3,436.9,562.6,436.9,564.4z M445.6,563.9   c-4.8,4.5,0.3,13.9-2.6,19.8c-0.3,0.8-0.6,1.8,0.4,2.7c4.5-4.1,2.6-12.5,6.1-17.2c-0.9-4.2,0.4-8.3-2.2-11.7   C445.7,559.7,447.4,562.3,445.6,563.9z M442,518.1c-4.1,7.6-5.8,17.5-0.8,25.4C447.8,538.5,443.5,524.8,442,518.1z" />
	<path fill="#F6D9C7" d="M479.5,475.1l-0.2,0.2c0,0-0.3,0-0.3,0c-0.7-0.1-1.3-0.2-2.1-0.3c1.6-16.8-0.2-33.9-0.1-50.8   c8.5-4.7,18.7-0.9,27.3-6.7c-3.7,27.1,4.6,57.5-12.5,81.2c-2.1-7.8-3.2-16-10.6-20.8c6.2-0.4,12,1.4,15.6,6.2   c0.8-3.4-3.6-5.2-5.4-7.5c2.4-6,4.2-14.1,0.4-19.8c-3.6,5.5-3.3,13-8.8,17.7C481.8,474.5,480.2,474,479.5,475.1z" />
	<path fill="#E1C7B6" d="M385.1,113.7c0.8,5.4,0.8,10.6,0.8,16.1c0.9,1,1.8,2,2.8,3.2c0.2,5.5-0.3,12.5,2.5,17.1   c8.5-15,3.2,11.2,3,15.3c0.1,13.2,7,25.2,10.3,37.7c3.6-4.8,7.8-10.1,14.4-7.4c-0.4,1-0.7,2-2.2,2.1c-2.4,1.5-3.4,4.9-5.4,6.9   c0,0.4,0.1,0.8,0.1,1.2c0.4-0.2,0.8-0.4,1.3-0.5c-0.2,3-2.6,4.4-5.4,4.4c1,3.2-1.2,7.6,0.3,10.4c4.9,3.4,7.2,7.2,12.1,10   c-0.6,3.6-3.3,6.4-4.9,9.6c0.1-2.5-5.2-10.7-7.5-11.3c1.6,5.3,2.3,11.1,4.7,16c-0.2,2.6-2.4,3.6-4.1,5.7   c-6.6-26.1-11.7-52.2-18.8-78.4c-5-18-1.7-37.8-9-55.2c-11.5-30.9-6-65.2-21.3-94.9c4,6.6,13.3,12,13.3,20.8   c1.1,11.4,3.2,22.7,5.3,34c0.2,9.3-0.4,18.6,3.5,27.5c1.6-0.4,3-0.7,4.4-1c-0.5,1.3-0.5,2.6,0,3.9c0.4,0,0.8-0.1,1.1-0.1   c0,1.3,0.5,2.6-0.6,3.6c0-0.9,0-1.7-0.1-2.7c-2.5,1-4.5,8.3-1.5,8.9C384.6,115.6,384.9,114.7,385.1,113.7z M388.8,165.7   c1.3-3.2,1.3-3.2,0.7-5.5C388.5,161.7,388.5,161.7,388.8,165.7z M414,232.7c0.9,1.2,1.1,2.6,3,2.1   C416.6,233.3,415.6,232.7,414,232.7z M368.2,41.1c1.6,2.1,1.6,2.1,3.1,1.3C370.5,41.6,369.9,40.4,368.2,41.1z M409.5,226.6   c0.2-0.1,0.3-0.1,0.5-0.2c-0.2-0.5-0.1-1.3-0.9-0.9C409.3,225.8,409.4,226.2,409.5,226.6z M411.7,228.7c0.6-0.2,0.6-1.1-0.1-1.1   C411,228.1,411.3,228.4,411.7,228.7z M409.1,242.9c-0.1-0.2-0.2-0.2-0.4,0C408.9,243.1,409,243.1,409.1,242.9z" />
	<path fill="#E1C7B6" d="M489.2,203.3c-0.6-0.3-1.1-0.7-1.6-1c-1.3,0.1-2.6,0.3-3.7,0.4c-1-0.6-1.9-1.1-2.6-1.5   c-4.1,2.4-5.4,8.4-6.7,12.6c-4.5-17.7,11-32.8,17.3-47.7c0.6-6.3,3.1-12.5,2.8-18.7c1.3-12.7,9-23.4,11.6-35.7   c3.7-8.6,2.2-18.6,6.4-27.2c5.7-12.6,6.1-26,8.8-39.4c2.7-9.2-2.5-18.5-2.7-27.8c1.6,0.9,0.2,2,1.9,2.8c0.4-0.4,0.9-0.9,1.4-1.3   c10.3,30-0.9,43.3-7.2,71.8c-1.2,6.8-6,13.3-2.8,20.3c-2,13-9.2,25.8-12.2,39.1c-3.3,9.8,3.1,21.6-2.9,30.3   c-0.9-0.8-1.8-1.6-2.9-2.5c-1.7,2.5-2.9,5.3-5.9,6.6c2.8,8.3,7.8,15.3,8.9,24.1c-2.5-0.5-6-1.5-6.6-4c0.4,0.2,0.7,0.5,1.1,0.8   c0.5-1.4,0.6-1.6,0.1-1.8c-2.8-1.7-2.6-6.5-6.4-6.7c-1.4-1.8-2-4.9-4-5.8c-1.4,4.2,4,7.1,7,9C488.6,201.2,488.9,202.2,489.2,203.3z    M478.3,200.9c-1.4-1-1.9-0.8-2.8,1C476.6,202.3,477.4,202,478.3,200.9z" />
	<path fill="#F6D9C7" d="M426.7,424.8c8.8,0.3,16.8-2.4,24.8-5.5c-1.4,17.3-4.4,34.5,1.1,51.4c-3.6-0.7-7-1.4-10.7-1.4   c-0.1-0.2-0.2-0.5-0.3-0.8c0.7-3.5-1.8-6.3-1.4-9.7c-0.8-1.2-2-1.9-3.2-2.8c-2.7,4.7-1.1,9.9-1.5,15c-1.3,0.5-2.7,1-4,1.5   c-4.4-15.3-8.3-31.3-7.5-47.3C424.9,425,425.8,424.9,426.7,424.8z M438.9,453.6c1.2-1.3,1.2-1.3,0-2.7   C438.9,452,438.9,452.7,438.9,453.6z" />
	<path fill="#F6D9C7" d="M432.9,283.1c5.7-0.2,11.5-0.8,17.2-0.1c3.9,20.3,0.6,41.7,6.4,61.3c-2.5,0.6-5.9-0.9-7.9,0.8   c-0.5,0-0.9-0.1-1.4-0.1c-1.2-1.1-1.8-2.7-2.8-4c1.8-9.6-6.6-15.9-9.5-24.1c-3.1-10.9-6.1-22.4-5.9-33.5   C430.2,283.2,431.5,283.1,432.9,283.1z" />
	<path fill="#E1C7B6" d="M432.9,283.1c-1.3,0.1-2.7,0.2-3.9,0.3c-0.2,11.2,2.8,22.7,5.9,33.5c2.9,8.2,11.2,14.6,9.5,24.1   c-0.7-0.7-1.5-1.4-2.6-2.3c0.1,1,0.1,1.6,0.2,2.2c-4.6-2-5.7-8.4-8.6-12.2c1.6-0.6-0.4-2.3-0.8-0.7c-1.3,1.2,0.1,3.4-1.2,4.8   c-2.6,3.5-2.2,7.7-2.1,11.8c-5,1-9.8,1.6-14.9,2.1c7.9-24.8,7.9-41.4,1.6-66.4C421.6,281.5,427.1,282.5,432.9,283.1z M438.9,333.3   c-0.1,1.3,0.1,2.1,1.3,2.6C440.6,334.6,440.1,333.9,438.9,333.3z M437.3,331.8c0.1-1.1,0.1-1.1-0.9-0.8   C436.5,331.4,436.8,331.7,437.3,331.8z" />
	<path fill="#EBDA8F" d="M421.6,234.8c5.9,11.8,3.4,14.2,15.2,22c-1.2,3.2-5.8,1-8.7,1.7c-0.5,3.1,0.6,5.7,1.1,8.7   c1.1,4.1-0.4,9.3,2.9,12.5c-5.8-0.4-11.5-1.1-17.1-3.6c-1.9-8.5-2.7-17-4.1-25.2C415.4,246.2,418.1,240.3,421.6,234.8z" />
	<path fill="#E1C7B6" d="M478.8,422.8c-0.6,0.4-1.3,0.8-2.1,1.3c-0.1,16.9,1.7,33.9,0.1,50.8c0.8,0.1,1.5,0.2,2.1,0.3   c-2.3,1.5-6.5,0.6-9.5-0.4c1.1-19.3-6.7-37.5-10-55.9C465.4,423,471.9,423.5,478.8,422.8z" />
	<path fill="#E1C7B6" d="M426.7,424.8c-0.9,0.1-1.8,0.2-2.8,0.3c-0.8,16,3.2,32,7.5,47.3c-3,2.1-6,4.1-7.3,8.2   c-1.6-3.1-0.7-6.2-1.4-9.3c-0.4-0.2-0.8-0.4-1.5-0.7c-4.3-16.9-9.3-33.8-12.9-50.9c0.7-0.6,1.1,0.1,1.5,0.3   C414.7,423.3,421.2,423.1,426.7,424.8z" />
	<path fill="#F6D9C7" d="M426.5,479.4c2.7-4.4,8.2-3.9,11.4-7.2c9.6-1.4,19.9,1.8,22.1,11.7c-5.5,3.3-6.8,10.2-4.6,16   c-0.2,0.3-0.4,0.5-0.7,0.8C442,499.5,432.3,489.4,426.5,479.4z M450.3,480.6c1.3,2,5.3,3.9,7.8,4c0.2-0.3,0.3-0.6,0.6-1   C456.7,481.2,453.6,480.8,450.3,480.6z M447.2,477.6c0.9,1,0.9,1,1.9,0.9c0-0.1,0-0.2,0-0.3C448.6,477.6,448.1,477,447.2,477.6z" />
	<path fill="#D7C0A0" d="M441.1,150.4c0.1,0.1,0.2,0.1,0.4,0c2.8,6.3-6.4,8.2-5.5,11.4c1.2-0.8,2.1-2.1,3.5-2.6c1,0.3,0.1,1.4,0,2.1   c-1,0.8-1.3,1.8-0.5,2.9c-0.2,1.3-1.3,2.4-0.5,4c0.8-0.5,1.7-1.1,2.5-1.6c-0.3-0.7-0.5-1.2-0.7-1.7c0.4-1.4,0.7-1.9,1.8-3.1   c0.6,4.2-0.9,7.9-1.9,11.9c-0.4-0.3-0.8-0.7-1.5-1.2c-1,1-2.7-0.8-3.4,0.6c-0.2-0.6-0.4-1.2-0.6-1.9c1,0.2,1.7,0.3,2.3,0.4   c0.5-0.9,0.2-1.7-0.4-1.9c-1.7-0.6-2.5-2.1-3.9-3c-0.9-0.9,0.1-1.9-0.1-3c-2.8-0.9-3.3-11.8-6.2-8l0,0c-1.9,1.8,1,4.2-0.6,6.2l0,0   c0.2-0.7,0.1-1.2-0.6-1.5c-0.1-0.7-0.6-1.3-0.8-1.9c0.3-2,0.5-4,2.1-5.5c0.7,0.9,0.8-1.3,1-1.8c1.8-0.4,3.4-0.4,4.9-1.6   c-1.6,0.1-3.4-0.1-5-0.4c-0.7-2.2,0.2-4,0.4-5.8c0.6-0.3,1.2-0.6,1.7-0.9c-0.7-0.7-1.3-1.3-1.9-1.9c0.5-1.3,1.9-0.2,2.7-1   c-0.7-0.6-1.3-1.2-1.9-1.7c-0.2-2.9,0.7-5.8,3.1-7.3c1.7,1.3,2,2.8,4.7,3.3c-1.8-2.2-3.3-3.1-4-5.6c0.3-1,0.7-1.8,1.6-2.2   c1,2.1,2.6,2.5,4.6,1.8c0.1-0.5,0.1-0.8,0.2-1.1c0.8,1,1.6,2.1,2.6,3.3c0.3-0.5,0.5-0.8,0.7-1.2c0.4,0.1,0.9,0.2,1.6,0.4   c-1.2-2.3-0.8-4.6-0.7-6.8c1.1,2-0.3,4,1.9,5.7c0-2.5,0-4.8,0-7c0.2-0.1,0.3-0.3,0.4-0.5l0.2,0c0.5,1.8,0.1,7.1,2.2,7.4   c0-2.5,0.1-4.8,0.2-7.3c1.3-0.6,2.5-1,3.9-1c0.4,1.5-0.6,2.6-0.9,3.9c-0.3,0-0.7,0.1-1,0.1c0.3,1.9-0.7,4.2,0.5,5.7   c0.5-0.5,1-0.9,1.4-1.3c0.2,2.9-0.8,5.6-1.2,8.7c-1.5,0.7-3.2,1.5-5,2.3c-2-2.1-4.1-4.3-6.1-6.4c-0.3-0.9-0.6-4-2.2-2.7   c2.1,3.3,2.1,8.1,6.5,9.4c0.3,0.1,0.4,0.7,0.6,1.1c-0.4,0.5-0.8,1-1.3,1.7c-4.8-2.5-7.5-7.2-12.9-7.7c4.4,2.7,6.5,6.7,11.1,8.8   c-1.5,1.4-4-0.4-5.9,0.2c0.7,2.5,4.7,1.3,6.6,3c-0.1,0.6-0.2,1.3-0.4,1.9c-2.9,1.4-5.7,0.4-8,3.3   C436.5,151.2,439,151.5,441.1,150.4z M435.1,160c0.6-2.2,0.6-2.2,0-3.1C434.1,158.9,434.1,158.9,435.1,160z" />
	<path fill="#8E9FC1" d="M381.3,14c0-1.2,0-2.1,0-3c46.6-1.7,93.8,0.1,140.6-0.4c0,1.1,0,2.1,0,3.2C475,14.9,428.1,13.9,381.3,14z" />
	<path fill="#E1C7B6" d="M448.5,345.1c2-1.6,5.4-0.1,7.9-0.8c-3.8-16.1-4.8-33.2-4.5-50.2c2.1,6.1,0.9,12.7,2.7,18.9   c2.8-10-3.1-19.5-0.5-29.6c3.6-0.8,7.7-0.1,11.5-0.3c-1.5,1.4-3.9,0.4-6.1,0.8c3.1,19.9,2.4,40.5-1.9,60.3c1.6,0.1,3.2,0.2,4.7,0.2   C458.1,345.6,453.1,344.7,448.5,345.1z M454.8,320.2c0,0.8-0.5,1.8,1.1,2c0.2-2.3,0.9-5.1-0.9-6.9   C454.1,317.1,454.7,318.7,454.8,320.2z M455.8,331.4c-1.2,0.4-1.5,2.2-0.2,2.5C456.1,333.1,456.4,332.3,455.8,331.4z M455.5,328   c0.7-1,1-1.8-0.2-2.3C454.4,326.5,454.5,327.1,455.5,328z" />
	<path fill="#D7C0A0" d="M450.6,193.7c-0.1,0.2-0.2,0.4-0.1,0.6c-0.7,0.6-0.7,1.4-0.6,2.2c-0.1,0.2-0.2,0.3-0.1,0.6   c-0.7,0.6-0.7,1.4-0.6,2.2c-0.1,0.2-0.2,0.4-0.1,0.6c-0.5,1.8-0.9,2.4-2,4.5c5.2-18.5-9.3-51.4,0.7-62.8c0.7,0.4,1.4,0.8,2,1.3   c-0.6,0.1-1.1,0.1-1.6,0.2c-1.6,1.8-1.1,4.1-1,6.3c0.1-0.1,0.2-0.1,0.3-0.2c0.1-0.6,0.2-1.2,0.4-1.8c0.5,0,0.8,0,1.1,0   c0.3-1.5,0.6-2.9,0.8-4.4c1.2,0.7,0.8,2,0.5,2.8c-0.7,3.6-1,7.9-0.1,11.2c1.5-2.8,1.6-3.4,1.7-6.5c0.9,1.6,0.7,4,2.6,4.9   c1.3,0.6,0.6,1.8,0.8,2.8c-0.5,5.6,0.9,12-0.6,17.2c-0.1-0.4-0.3-0.8-0.4-1.3C452.1,179.7,452.6,187.4,450.6,193.7z M450.4,186.4   c0.1-7.2,0.8-12.3-0.9-19C448.8,172.8,449.2,180.8,450.4,186.4z" />
	<path fill="#EBDA8F" d="M447.1,280.3c0.6-0.3,1.1-0.7,1.9-1.1c-1.6-11.3,0.1-23.9,3.9-34.4c1.7,1.3,1.5,3.2,1.9,4.7   c4.2,2.7,9.6,3.8,12.2,8.3c-4.2,1.8-7-0.5-10.7-2.2c-1.6,7.9,2.5,14.7,3.2,22.4c0.9,0.1,1.6,0.3,2.2,0.4   C456.9,279.3,452.1,280.5,447.1,280.3z" />
	<path fill="#E0C7B6" d="M426.5,479.4c5.7,10.1,15.5,20.2,28.2,21.3c0.3-0.3,0.5-0.6,0.7-0.8c1.3,1.7,0.4,3.8,1.6,5.6   c-2,0.4-3.2-0.9-4.4,1.2c-3.6-0.8-7.1-2.6-10.9-2C433.9,500.7,417.5,488.5,426.5,479.4z" />
	<path fill="#E0C6B5" d="M435.4,173.1c0.7-1.4,2.4,0.4,3.4-0.6c0.6,0.5,1,0.8,1.5,1.2c1.6-0.1,1.7-0.2,2.1-2.1c0.2,0,0.4,0,0.7,0   c1.7,10.2,2,20.7,2.1,31c-1.9-3,0.1-7.4-1-11c-1.3,0.5-1,1.2-1.1,2.3c0.2,5.5-3.3,9.3-5.6,13.7c-1-3.1-1-6.2-1.4-9.7   C443,191.7,436,180.6,435.4,173.1z" />
	<path fill="#E9DBB7" d="M465.8,528c-7.4-9.4-5.1-21.7-9-32.3c0.7-2.7,1.4-5.3,2.1-8.1c0.7-0.4,1.4-0.8,2.5-1.3   c-1,4.8-0.4,9.1,1.5,13.3c-0.3,0.4-0.6,0.7-1.2,1.2c1.2,4.7,4.2,8.6,6.1,13C466.1,518.5,467.1,523.4,465.8,528z" />
	<path fill="#F2EACB" d="M459.6,556.9c-3.4-15.8,2.7-33.9-7.4-47.9c1.4-0.4,2.8,0.1,4.4-0.1c4.6,20.6,9.9,24.4,4.1,47.4   C460.4,556.4,460,556.6,459.6,556.9z" />
	<path fill="#F4D7C5" d="M463.2,193.4c1.3,2.2,1.2,4.1,3.3,6c0.4,9.9-3.6,16.1-13.7,17.2C455.7,208.6,459.7,201.2,463.2,193.4z" />
	<path fill="#FC9876" d="M422.4,421.5c-2.1-2.3-2.4-3.7-1.6-7.5c4.6,1.8,10,0.2,14.2,2.2c0.1,0.3,0.3,0.6,0.5,1.1   c5.4-0.1,10.5-1.2,15.5-3.8c0,1,0,1.8,0,2.8C441.9,419.1,431.8,422.8,422.4,421.5z" />
	<path fill="#F4DEBE" d="M458.8,190.9c1-12.1-0.4-24.9-1.9-36.7c-0.2,0.1-0.5,0.2-0.8,0.3c-1.4-1.1-1.5-2.6-1.3-4.1   c0.4-0.5,0.8-1,1.2-1.5c-0.1-2.4-0.3-4.8-0.4-7.5c3.4,1.7,3.5,5.1,3.3,8.4c1.2,14.9,4.9,29.9,0.5,44.6   C458.6,193.3,458.8,192.1,458.8,190.9z" />
	<path fill="#F5D8C6" d="M433.4,328.6c2.9,3.8,4,10.2,8.6,12.2c0.6,1.2,1.2,2.3,2.1,3.9c-5.2-0.5-9.7-0.4-14.8-0.3   c-0.1-4.1-0.5-8.2,2.1-11.8c1.3-1.4-0.1-3.5,1.2-4.8C432.8,328.1,433.1,328.4,433.4,328.6z" />
	<path fill="#F4D7C5" d="M437.4,207.7c2.3-4.5,5.9-8.2,5.6-13.7c0.1-1.1-0.3-1.8,1.1-2.3c0.2,8.1,2.2,15.3,0.3,23.3   c-0.5,0.3-1,0.5-1.4,0.8C440.6,213.7,438,210.9,437.4,207.7z" />
	<path fill="#E0C6B5" d="M479.5,475.1c0.7-1.1,2.3-0.5,3.3-0.6c5.5-4.7,5.2-12.3,8.8-17.7c3.8,5.7,2,13.8-0.4,19.8   c-0.5-0.2-1-0.3-1.8-0.6c1.2-1.9,2-3.7,1.5-6c-1.1,2-2.1,3.7-3,5.3C484.9,475.2,482.2,475.1,479.5,475.1z M490.6,467.2   c1.9-1.7,1.9-1.7,1-2.7C490.8,465.2,491.1,465.6,490.6,467.2z M492,461.2c0.1,0,0.2,0,0.3,0c0-0.4,0-0.7,0.1-1.1   c-0.1,0-0.3,0-0.4,0C492,460.4,492,460.8,492,461.2z" />
	<path fill="#7283A8" d="M244.1,14.1c37.4-0.3,75.1,0.3,112.2-1.4c0,0.4-0.1,0.8-0.1,1.4C318.9,13.9,281.1,15.3,244.1,14.1z" />
	<path fill="#7283A8" d="M356.1,10.7c-37.5-0.8-76.4,1.6-113.3-0.9C280.4,11.1,318.9,8.8,356.1,10.7z" />
	<path fill="#E8D1B7" d="M467.2,168.3c-0.4,1.4-0.7,2.8-1.2,4.8c-0.2-3.2-1.4-5.3-0.8-8.2c-1-2.9-3.6-8.5,0.3-10.2   c1.1,0.5,2,0.8,2.9,1.2c0.4,2.2-1.3,1.8-3.1,2c1.5,1.5,2.7,2,4.5,3c0,0.2,0,0.3,0,0.5c-0.9,1-1.5,0.2-2.9-0.1   c0.8,1.5,1.9,1.7,2.9,2.1c0.8-1,1.5-1.8,2.2-2.7c4.2,1.8-3.2,3.8,0.1,6.2c-1,0.9-2.1,1.6-3.5,1.2   C467.9,167.3,467.6,167.3,467.2,168.3z" />
	<path fill="#F4DEBE" d="M454.8,175.1c1.5-5.3,0.1-11.6,0.6-17.2c0.2,0,0.5,0,0.7,0c0.3,9.1,1.4,17.5,1.3,26.8   c-0.6-0.9-0.9-1.4-1.6-2.4c-0.4,5.2-0.2,9.8-1.8,14.8C451.9,190.4,454.2,182.2,454.8,175.1z" />
	<path fill="#EED8B9" d="M464.9,139.8c2.5-2.9,4-3.3,4.1-4.8c-1.6,1.1-3.1,2-4.5,3c-1.8-0.4-1.9-0.5-2.2-2.2c1-2.1,3.2-3.4,3.9-5.9   c0.2-0.5,0.3-1.1,1-1.1c1.6,2.3,3.7,4,4,7c-1.4,2.2-3.5,3.3-4.8,5.6c1.1-0.3,2-0.6,2.8-0.8c-1,1.6-3.2,1.6-3.6,3.6   c0,0.2-0.8,0.4-1.6,0.7C464.3,143,464.6,141.4,464.9,139.8z" />
	<path fill="#DFC5B4" d="M440.1,461.2c0.9,2.3,1.8,4.7,1.4,7.3c-0.4-1-0.9-2-1.3-2.9c0.1-0.9,0-1.6-1.2-1.6   c-0.3,0.7-0.1,1.2,0.5,1.6c0,1.3,0,2.7,0,4.1c-1.4,0.7-2.7,1.2-4.2,1.4c0.4-5.1-1.2-10.3,1.5-15c1.2,0.9,2.4,1.6,3.2,2.8   c-0.3,0-0.7,0-1-0.1C438.5,459.9,438.7,460.8,440.1,461.2z" />
	<path fill="#E68667" d="M477.4,415.9c0.7,1.1,0.8,2.2,0.7,3.5c-6.3,0.8-12.2-1.5-17.9-3.7c0.1-0.4,0.1-0.8,0.2-1.2   c1.6-1.1,3.5,0,5.2,0.2C469.4,416.1,473.6,414.4,477.4,415.9z" />
	<path fill="#F3EACC" d="M490.4,547.3c1,0.1,2,0.1,3.1,0.2c2.6,5.6,0,13.1-6,15.1c-0.4-0.3-0.8-0.5-1.1-0.8   C492.5,559.5,490,552.5,490.4,547.3C490.4,547.3,490.4,547.3,490.4,547.3z" />
	<path fill="#F4D7C5" d="M412,244.6c-2.3-5-3.1-10.7-4.7-16c2.9,1.1,4.2,5.5,6.4,7.8C416.2,239.2,413.5,242,412,244.6z" />
	<path fill="#CDB89A" d="M453.3,188.8c0.4,2.6-0.9,6.1,0.7,8.3c-0.9,5.2-2.5,10.4-4.8,15.2c0-1-0.4-1.7-1.4-2.1   c0.6-2.7,1.3-5.5,2.1-8.2c0.7-0.6,0.7-1.3,0.6-2.1c0.1-0.2,0.2-0.4,0.1-0.6c1-3.2,1.8-6.8,2.1-10.3   C452.9,188.9,453.1,188.9,453.3,188.8z" />
	<path fill="#EDE5C7" d="M434.7,588.8c0.1-0.6,0.1-1.1,0.2-2.3c1.3,4.6,4.9,4.2,8.3,4.9c0.5,1.3,1,2.6,1.5,3.7   c-0.1,0.4-0.3,0.7-0.4,1c-3,1.1-6.2-1.7-6.9-4.6c-0.6,0.1-1,0.1-1.7,0.2C435.2,591,434.7,590,434.7,588.8z" />
	<path fill="#D0BA9B" d="M458.2,136c-0.5,0.4-1,0.9-1.4,1.3c-0.8-0.3-1-1.5-0.7-2.1c0.8-0.3,0.6-1,0.5-1.6c0.5-1.3,1.9-3.5,0.8-4.6   c0.8-1.1,1.4-2.4,3-1.9c1.1,1.3-0.3,2.5-0.1,3.6c1.2-0.6,2.3-1.1,3.4-1.6c-0.8,2.5-1.4,5.1-3.6,6.8l0,0c-0.4-1.1,1.4-1.9,0.3-3.3   C459.5,133.6,458.8,134.8,458.2,136z" />
	<path fill="#E5CFB1" d="M449.9,142.7c-0.7-0.4-1.4-0.9-2-1.3c0.8-1.3,2.1-1.5,3.7-1.7c-0.1,6,1.8,11.7-1.3,17.1   c-0.9-3.3-0.5-7.7,0.1-11.2C450.7,144.7,451.1,143.5,449.9,142.7z" />
	<path fill="#1C1A1A" d="M422.3,186.3c-2.4-5.6-6-10.4-9.5-15.3c1-0.5,0.4-1.5,0.8-2.2c2.7,5.3,7.8,9.9,10.2,16   C422.6,184.7,422.3,185.4,422.3,186.3z" />
	<path fill="#1A1918" d="M490.4,170.3c-3.5,4.9-7.1,9.7-9.5,15.3c0-0.9-0.3-1.6-1.4-1.5c2.4-6.1,7.4-10.5,10.2-16   C490,168.8,489.4,169.8,490.4,170.3z" />
	<path fill="#191715" d="M454.1,309.2c-0.5-5.8-1.4-11.5-2.1-17.1c3.8,4.5,3.5,11.4,3.3,17.1C454.9,309.2,454.5,309.2,454.1,309.2z" />
	<path fill="#DBC2B1" d="M535.8,18.7c0.6,2.1-0.8,3.8-1.3,5.8c-0.2,0-0.4,0-0.6,0c-2.4-5.7,1.7-11,1.5-16.7c0.8,1.2,0.5,2.2,0.6,3.7   c1.5-1.2,0.1-2.9,1.3-3.7c0.8,2.6-1.4,5-0.1,7.4c0.3,0.6,0.3,1.3-0.5,1.7c-0.1-0.5-0.2-0.9-0.3-1.6c-1.2,1-1.6,2-1.6,3.2   C535.2,18.8,535.3,18.7,535.8,18.7z M534,22.4c0.7-1.5,0.7-1.5,0.6-2.7C533.6,20.2,533.6,21.1,534,22.4z" />
	<path fill="#D7C1A4" d="M468.5,155.8c-0.9-0.4-1.8-0.8-2.9-1.2c-1.6,0.5-2,1.9-2,3.6c-0.8-1-0.8-2.3-0.4-3.5   c-1.2-0.9-1.1-2.4-0.9-3.7l0,0c2.1,0,4.1-0.1,6.2,0.2c-0.2,0.3-0.3,0.6-0.5,0.8C469.3,153.9,469.3,153.9,468.5,155.8z" />
	<path fill="#DBC1B1" d="M467.1,337.5c0.4-0.7,0.7-1.3,1.1-2c4.1,0.4,1.8,4.3,2.4,7.1c1,0.2,2,0.3,2.9,0.5c-2.4,0.5-4.5,0.8-7,0.7   c0.4-2.1,1.2-3.5,1.3-5.6C467.5,337.9,467.3,337.7,467.1,337.5z" />
	<path fill="#CDB799" d="M463.6,151c-0.4,0-0.9,0-1.3,0c-0.5-0.8-0.9-1.7-1.5-2.7c2.4-0.6,6.9-4.9,8.3-1.3   C468,149.1,465.4,149.6,463.6,151z" />
	<path fill="#C2AE91" d="M467.1,145.5c-1.1,0.4-2.3,0.9-3.4,1.4c0.1-0.3,0.2-0.6,0.5-1.2c-1,0.2-2,0.3-3,0.4   c-0.4-0.7-0.7-1.4-1.1-2.2c1.4-1.7,3-3,4.8-4.1c-0.3,1.6-0.6,3.2-1,5.1c2.4-0.4,1.7-2.4,3.9-2.9c0.2,0.3,0.5,0.5,0.7,0.8   c0,0.2,0,0.4,0,0.5c-0.4,0.2-0.9,0.4-1.3,0.7C467.1,144.6,467.1,145,467.1,145.5z" />
	<path fill="#3E3830" d="M457.3,176.6c-1-7.3-1.1-14.8-1.3-22.2c0.3-0.1,0.6-0.2,0.8-0.3c1.4,4.1,0.6,9,1.2,13.4   C456.6,170,457.8,173.7,457.3,176.6z" />
	<path fill="#E1CCAE" d="M456.1,154.5c0,1.1,0,2.3,0,3.4c-0.2,0-0.5,0-0.7,0c-0.2-0.9,0.5-2.1-0.8-2.8c-0.8-4.8-2.7-9-1.5-14   c2.3,2,0.8,6,2.9,7.7c-0.4,0.5-0.8,1-1.2,1.5C454.6,151.9,454.7,153.4,456.1,154.5z" />
	<path fill="#1F1B18" d="M427.1,155c2.5-0.8,2.7,7.7,5.5,8.8c0.2,1.1-0.8,2.1,0.1,3c-1.4-0.1-3,0.4-4.2-0.6c0.9-0.2,2,0.5,2.9-0.6   c-2-3.1-3.2-6.8-5-9.8l0,0C426.6,155.5,426.9,155.3,427.1,155z" />
	<path fill="#D0BA9B" d="M462.2,135.9c0.3,1.7,0.4,1.8,2.2,2.2c-0.1,0.2-0.1,0.4-0.1,0.6c-1.5,0.9-2.9,1.8-4.6,2.8   c-0.7-0.8-1.5-1.6-2.3-2.4c0.8-1.2,1.4-2.4,2.8-3.1l0,0c0,0.4,0.1,0.8,0.2,1.7C461.2,136.8,461.7,136.3,462.2,135.9z" />
	<path fill="#E9E1C3" d="M447.2,512.9c-1.1,0.7-2.2,1.3-3.5,2.1c-1-0.6-2-1.3-3.2-2.1c-0.1-0.7-0.2-1.5-0.3-2.2   C442.8,509.7,445.2,511.4,447.2,512.9L447.2,512.9z" />
	<path fill="#BCA88C" d="M457.4,129c0.8,0.5,0.2,3.5-0.7,4.1c-1.3-0.8-1.7,2.7-2.1,4.2c0.7-0.8,1-1.2,1.4-1.6c0.1,0.6,0,1.3,0.8,1.5   c-1.1,1.2-2.3,0.5-3.6-0.2c0-1.8,0-3.5,0-5.3c0.1,0,0.3,0,0.4-0.1c0.5,0.2,1,0.3,1.7,0.6C455.9,131.2,456.8,130.1,457.4,129z" />
	<path fill="#423D3A" d="M381.7,45.9c-1.3-5.9-0.1-12.9,1.4-18.8c0,1-0.1,2.1,0.8,2.9C382.9,35.4,381.3,40.2,381.7,45.9z" />
	<path fill="#33302F" d="M520.2,27c1.4,5.6,3,12.6,1.3,18.2c0.5-5.7-1.3-10.5-2.1-15.9C520.5,28.8,519.8,27.7,520.2,27z" />
	<path fill="#2A251F" d="M439.6,132.9c2,2.1,4.1,4.3,6.1,6.4c-0.4,0.5-0.8,0.9-1.1,1.4C442.7,138.3,438.4,137,439.6,132.9z" />
	<path fill="#2A2725" d="M426.5,153.1c-1.6,1.5-1.8,3.5-2.1,5.5c-0.2,0.3-0.5,0.5-0.7,0.8c-1.7-4.2,2.4-7.9,1.3-12.5   C426.9,148.4,424.5,151.6,426.5,153.1z" />
	<path fill="#918370" d="M452,129.8c0.1-3,0.6-6.2,2-9c0.3,0.3,0.6,0.5,0.8,0.8c0.1,1.2-1.3,2.1-1.2,3.2c1,2.3-0.9,4.5-0.1,6.9   c-0.1,0.1-0.2,0.1-0.4,0.1C452.8,131.1,452.4,130.5,452,129.8z" />
	<path fill="#CBB4A5" d="M429.7,162.8c0.6,0.9,1.1,1.8,1.7,2.8c-0.9,1.1-2,0.4-2.9,0.6c-0.8-0.6-1.9-0.9-2.1-2.1   c0.2-0.6,0.1-1.4,1.1-0.8C428.2,163.6,429.1,163.1,429.7,162.8z" />
	<path fill="#494137" d="M442.3,171.7c-0.4,1.9-0.5,2-2.1,2.1c1-3.2,1.7-6.4,2.2-9.7c1.1,1.5,0.3,3.8,0.5,5.6   C442.2,170.2,442.4,171,442.3,171.7z" />
	<path fill="#4A413C" d="M428.5,163.4c-1.2,0.2-1.9-1-2.1,0.7c-1.7-1.4,0.6-3.5-0.4-5.3c-0.2-1-0.7-2.2,0.4-3.1   c-0.1,1.1,1,1.3,1.3,2.3C425.9,159.7,428.8,161.5,428.5,163.4z" />
	<path fill="#38312D" d="M467.2,341.1c-0.2,0.8-0.4,1.6-0.7,2.7c1.2,0,2.3,0,3.4,0c-1.4,1.1-3.2,0.5-4.8,0.6   c-0.2-2.3,0.9-4.3,2.1-6.2c0,0,0,0,0,0c0.2,0,0.5,0,0.7,0c0,0.5-0.1,0.9-0.1,1.4C467,339.9,467.1,340.5,467.2,341.1z" />
	<path fill="#E4CFB1" d="M447.8,210.2c1,0.3,1.3,1.1,1.4,2.1l0,0c-1.3,1-0.5,2.8-1.4,4.1c-0.4,0-0.8,0-1.2,0   C446.1,214.1,447.1,212.2,447.8,210.2z" />
	<path fill="#211D18" d="M452.8,189c-0.1,2.4-0.5,4.7-1.4,6.9c-0.3-0.7,0.3-1.7-0.7-2.2c0.5-2.3,0.9-4.6,1.4-6.9   C453,187.3,452.4,188.3,452.8,189z" />
	<path fill="#B0A089" d="M458.8,190.9c0.4,3.2,1.1,5.9-0.8,8.9c-0.2-0.5-0.4-0.9-0.6-1.4C457.8,195.9,458.3,193.4,458.8,190.9z" />
	<path fill="#1E1B16" d="M439.6,145.5c-1.3-0.2-4,0-4-1.8c1.9-0.6,4.4,1.2,5.9-0.2c0.9,0.2,0.9,0.2,1.4,1.1   C441.6,144.8,440.5,144.7,439.6,145.5z" />
	<path fill="#625748" d="M440.8,163.3c-0.2,0.5-0.4,1-0.6,1.6c0.2,0.5,0.4,1,0.7,1.7c-0.8,0.5-1.6,1-2.5,1.6c-0.8-1.6,0.2-2.7,0.5-4   c0.4-0.5,0.9-1,1.3-1.4C440.4,162.9,440.6,163.1,440.8,163.3z" />
	<path fill="#A08F77" d="M439.5,161.3c0-0.7,1-1.8,0-2.1c0.8-0.9,1.4-2,2.8-1.9c-0.1,0.9,0.3,2-0.7,2.7c0-0.2-0.1-0.3-0.3-0.3   c0.1,0.1,0.2,0.2,0.3,0.3c-0.4,0.7-0.9,1.4-1.3,2.1C440,161.8,439.8,161.5,439.5,161.3z" />
	<path fill="#413C38" d="M468.6,168.1c1.4,0.3,2.5-0.3,3.5-1.2c0.2,0,0.3,0,0.5,0c0.2,0.2,0.5,0.5,0.7,0.7c-0.8,1.8-2.6,1.9-4.1,2.4   c-0.2,0.4-0.5,0.8-0.7,1.1C468.6,170.1,468.6,169.1,468.6,168.1z" />
	<path fill="#36211B" d="M474.6,415.2c-3-0.2-6.2,0.5-9-0.6c0.7-0.3,1.7,0.3,2.2-0.7c2.3,0.2,4.6,0.5,6.9,0.7   C474.6,414.8,474.6,415,474.6,415.2z" />
	<path fill="#28231E" d="M441.1,150.4c-2,1.1-4.6,0.8-7.3,1.4c1.3-1.9,2.9-1.9,4.4-2.2C439,150.5,440,150.4,441.1,150.4z" />
	<path fill="#25211B" d="M442.3,157.3c-1.4-0.1-2.1,1-2.8,1.9c-0.2,0.1-0.3,0.1-0.5,0.2c-0.3-0.3-0.5-0.5-0.8-0.8   c0.9-0.9,1.8-1.9,2.7-2.8C441.3,156.2,441.8,156.8,442.3,157.3z" />
	<path fill="#544C41" d="M464.3,138.6c0-0.2,0.1-0.4,0.1-0.6c1.5-1,2.9-1.9,4.5-3c-0.4,1.5-0.4,1.5-3.9,4.3   C464.8,139.1,464.6,138.9,464.3,138.6z" />
	<path fill="#3F382F" d="M452.7,146.2c1,1.5,0.5,3.2,0.8,4.7c-0.2,0.5-0.5,0.9-0.7,1.4C451.9,150.4,451.4,148,452.7,146.2z" />
	<path fill="#C6B59E" d="M446.5,216.4c0.4,0,0.8,0,1.2,0c-0.4,1.5-0.9,3-1.4,4.7C444.5,219.2,446.4,217.8,446.5,216.4z" />
	<path fill="#A49184" d="M383.8,22.4c-0.1-0.6,0-1.3-0.9-1.5c0.1-1,0.2-2,0.3-3C385.4,16.4,384.8,21.5,383.8,22.4z" />
	<path fill="#5A5143" d="M460.2,135.9c-0.4,0.3-0.8,0.5-1.2,0.8c-0.2-0.2-0.5-0.5-0.7-0.7c0.6-1.2,1.3-2.4,2.3-3.4   C461.6,133.9,459.8,134.8,460.2,135.9z" />
	<path fill="#51483D" d="M434,137.3c-1.1-0.8-2.2-1.6-3.6-2.6c2.2-0.4,3.2,0.9,4.4,1.8C434.5,136.8,434.3,137,434,137.3z" />
	<path fill="#332F2A" d="M448.5,221.2c0.2,1.6-0.3,3.1-1.1,4.6C446.8,223.9,447,222.4,448.5,221.2L448.5,221.2z" />
	<path fill="#544B46" d="M495.3,480.6c0.8,0.9,2.1,1.5,1.3,3.4c-1.1-0.8-1.5-1.8-2.1-2.6C494.8,481.1,495,480.9,495.3,480.6z" />
	<path fill="#A5A1A0" d="M460.4,414.4c-0.1,0.4-0.1,0.8-0.2,1.2c-1.5,0-2-1.8-0.3-2.4C460,413.7,460.2,414,460.4,414.4z" />
	<path fill="#696558" d="M459.6,556.9c0.4-0.2,0.8-0.4,1.1-0.6c0.3,1.3-0.2,2.3-1.1,3.4C459.6,558.6,459.6,557.7,459.6,556.9z" />
	<path fill="#28231E" d="M441.4,155.1c0.5-1.5,0.5-3.1,0-4.6C442.7,150.7,442.7,154.7,441.4,155.1z" />
	<path fill="#332F2A" d="M448.5,221.2c-0.2-1.2,0.3-2.2,1.1-3.4C450.2,219.5,449.5,220.4,448.5,221.2L448.5,221.2z" />
	<path fill="#807965" d="M465.8,528c0.2-0.7,0.4-1.4,0.7-2c0.8,1,0.6,2.1,0.6,3.2C466,529.3,465.9,528.7,465.8,528z" />
	<path fill="#AA987F" d="M439.5,161.3c0.3,0.3,0.6,0.5,0.8,0.8c0.1,0.9-0.9,1.4-1.4,2.1C438.2,163,438.5,162.1,439.5,161.3z" />
	<path fill="#6D615A" d="M439.6,465.5c-0.7-0.4-0.9-0.9-0.5-1.6c1.2,0,1.3,0.7,1.2,1.6C440,465.5,439.8,465.5,439.6,465.5z" />
	<path fill="#7E7362" d="M457.3,198.4c0.2,0.5,0.4,0.9,0.6,1.4c-0.3,0.5-0.6,1-1,1.6C456.5,200.1,456.6,199.2,457.3,198.4z" />
	<path fill="#6F6C5E" d="M449.5,509.8c-1.2-0.2-1.2-2,0.1-1.4C449.7,508.9,450,509.6,449.5,509.8z" />
	<path fill="#2A2725" d="M424.4,163.5c-0.6-0.6-0.7-1.3-0.6-2.2C424.7,161.9,424.5,162.7,424.4,163.5z" />
	<path fill="#CDB89A" d="M448.5,214.4c0-0.8-0.3-1.6,0.7-2.1C449.3,213.1,449.1,213.8,448.5,214.4z" />
	<path fill="#7283A8" d="M242.1,14.1c0.8-1,1.2-1,2,0C243.5,14.1,242.8,14.1,242.1,14.1z" />
	<path fill="#D7C0A0" d="M442.3,171.7c0.1-0.7-0.2-1.5,0.6-2c0,0.7,0.1,1.3,0.1,2C442.8,171.7,442.6,171.7,442.3,171.7z" />
	<path fill="#211D18" d="M449.2,199.2c-0.1-0.8-0.1-1.6,0.6-2.2C449.9,197.8,450.2,198.7,449.2,199.2z" />
	<path fill="#211D18" d="M449.9,196.4c-0.1-0.8-0.1-1.6,0.6-2.2C450.6,195.1,450.9,195.9,449.9,196.4z" />
	<path fill="#211D18" d="M450.5,199.9c0.1,0.8,0.1,1.5-0.6,2.1C449.9,201.2,449.6,200.4,450.5,199.9z" />
	<path fill="#211D18" d="M451.2,197.1c0.1,0.8,0.1,1.6-0.5,2.2C450.6,198.5,450.2,197.7,451.2,197.1z" />
	<path fill="#4A413C" d="M425.2,160.5c0.7,0.3,0.8,0.8,0.6,1.5C425.1,161.7,425.1,161.2,425.2,160.5z" />
	<path fill="#211D18" d="M449.8,202.6c-0.2,0.5-0.3,1-0.5,1.5C449.1,203.6,449.1,203,449.8,202.6z" />
	<path fill="#2A2725" d="M424.4,158.6c0.2,0.5,0.4,0.9,0.6,1.4C424.4,159.7,424.3,159.2,424.4,158.6z" />
	<path fill="#211D18" d="M448.6,201.3c0.2-0.5,0.3-1,0.5-1.5C449.2,200.3,449.3,200.9,448.6,201.3z" />
	<path fill="#413C38" d="M467.2,168.3c0.4-1,0.7-1,1.4-0.2C468.1,168.2,467.7,168.2,467.2,168.3z" />
	<path fill="#EBDDB8" d="M447.2,512.9c-0.2-0.1-0.5-0.3-0.7-0.4C446.7,512.6,446.9,512.8,447.2,512.9z" />
	<path fill="#E1C7B6" d="M446.5,344.4c0.2,0.2,0.4,0.4,0.6,0.6C446.6,345.1,446.5,344.8,446.5,344.4z" />
	<path fill="#544B46" d="M494.7,479.8c0.2,0.3,0.4,0.5,0.6,0.8C495.1,480.4,494.9,480.1,494.7,479.8z" />
	<path fill="#CDB799" d="M462.3,151.1c0,0.3-0.1,0.6-0.1,0.9C461.9,151.6,461.6,151.3,462.3,151.1z" />
	<path fill="#544B46" d="M494,481.1c-0.3-0.2-0.5-0.3-0.8-0.5C493.5,480.8,493.7,480.9,494,481.1z" />
	<path fill="#050504" d="M426.5,153.1c-2-1.5,0.4-4.8-1.5-6.2c-1.5-19.3,11.6-30.4,29.7-29.1c14.8,8.2,23.3,14.3,19.3,32.6   c-0.9-0.5-2.2-1.3-2.8,0l0,0.1c-0.7-0.3-1.6,0.4-2-0.7c1.1-0.6,2.2-1.2,3.2-1.7c0.4-4.3,0.3-4.9-0.8-6.9c-0.3,0.1-0.6,0.3-0.9,0.4   c-0.2-0.2-0.5-0.4-0.7-0.7c1.1-1,1.1-1,1.4-2.3c-0.9,0.5-1.6,0.9-2.3,1.3c-0.2-0.2-0.5-0.4-0.7-0.6c0.9-1.1,1.9-2.2,2.8-3.3   c-1.6-6.6-8-10.3-13-13.9c-0.5-0.9-1.3-0.5-2-0.6c-0.6-0.7-1.1-1.3-2.1-1.4c-0.7-0.5-1.4-1.1-2.2-0.1c-2.6,0.2-5.2,0.1-7.5,1.5   c0,1.2,0.1,2.4-0.6,3.4c-0.6-3-1.1-3.3-4-2.5c0.6,2.6,0.9,4.7,2.5,6.7c-0.2,0.3-0.4,0.7-0.7,1.2c-2.1-2.3-3-3.9-3.6-7   c-2,2-4.6,2.6-5.5,5.2c0.3,0.8,0.7,1.7,1.1,2.6c-0.3,0.2-0.5,0.5-0.8,0.7c-0.3-0.3-0.7-0.6-1.1-1c-2.4,1.5-3.3,4.4-3.1,7.3   c0.6,0.5,1.2,1.1,1.9,1.7c-0.8,0.8-2.2-0.3-2.7,1c-1.2,1-0.3,1.9,0.2,2.8c-0.2,1.9-1.1,3.7-0.4,5.8c0.7,0.1,1.6,0.3,2.4,0.4   c-0.2,0.4-0.5,0.8-0.7,1.2c-0.5,0.1-1.1,0.2-1.7,0.4C427.2,151.8,427.2,154,426.5,153.1z" />
	<path fill="#060505" d="M381.7,45.9c0.5-2.6-0.8-6.2,0.8-8.4c1,25.7,14.1,49.5,15.3,74.9c-0.3,0-0.6,0-0.8,0.1   c-3.8-10.1-2.8-21.5-7.9-31.4C384.7,69.6,384,57.8,381.7,45.9z" />
	<path fill="#060505" d="M520.8,36.8c1.6,15.6-2.9,33-8.1,47.8c-4.2,8.6-2.7,18.6-6.4,27.2c-0.3,0-0.5,0-0.8-0.1   C506.5,86.3,519.9,62.6,520.8,36.8z" />
	<path fill="#060606" d="M396.9,112.5c0.4,0,0.9-0.1,1.3,0c7.9,18.2,16.6,38.4,14.5,58.4c-2.9-5.9-2-13-4.5-19.2   c-0.1-0.3-0.3-0.8-0.1-1c0.9-1.5,0.2-2.9,0-4.3C406.8,134.4,399.3,124.1,396.9,112.5z" />
	<path fill="#060605" d="M505.5,111.8c0.3,0,0.5,0,0.8,0.1c-2.6,12.2-10.3,23-11.6,35.7c-0.5,7.5-1.6,15.9-4.3,22.8   c-1.8-19.9,6.3-40.2,14.6-58.4C505.1,111.8,505.3,111.8,505.5,111.8z" />
	<path fill="#2C2A28" d="M471.2,150.3c0.6-1.3,1.9-0.5,2.8,0c-0.2,0.7-0.5,1.5-0.8,2.4c0.9,0.2,1.9,0.3,2.8,0.5   c0.6,2.9,1.5,6.7-0.2,9.4c-1.6-2.1,0-5.5-0.8-7.9c-1.9-1.1-2.4,1.2-3.6,2.2c-0.2-0.6-0.3-0.9-0.4-1.2c0.5-1.8,0.9-3.5,1.4-5.4   C472,150.4,471.6,150.4,471.2,150.3z" />
	<path fill="#514741" d="M473.3,155.1c0.4-0.7,1-0.7,1.9-0.3c0.8,2.4-0.8,5.8,0.8,7.9c-0.4,0.8-0.8,1.5-1.1,2.3   c-0.3-0.3-0.6-0.7-0.9-1c0.7-0.6,1.2-1.3,0.5-2.3c-0.3,0-0.6,0.1-1,0.1c0-0.2-0.1-0.3-0.2-0.4c0-1,0.1-2.1,0-3   C473,157.2,474.1,156.2,473.3,155.1z" />
	<path fill="#1F1E1E" d="M474,164.2c0.2,0.3,0.5,0.5,0.7,0.8c-0.5,0.9-1,1.7-1.5,2.6c-0.2-0.2-0.5-0.5-0.7-0.7   C473.1,166,473.6,165.1,474,164.2z" />
	<path fill="#E1C7B6" d="M505.5,111.8c-0.2,0-0.3,0.1-0.5,0.1c-0.1-0.6-0.1-1.1,0.5-1.4C505.5,110.9,505.5,111.3,505.5,111.8z" />
	<path fill="#F6D9C7" d="M398.2,112.5c-0.2,0-0.3-0.1-0.5-0.1c0-0.4,0-0.9,0-1.3C398.3,111.4,398.3,112,398.2,112.5z" />
	<path fill="#50352C" d="M453.9,356.7c0.3,1.8-0.1,3.5-1.3,5.1c0.3-3.2-0.8-6.9,0.7-9.8C453.5,353.6,452.8,355.4,453.9,356.7z" />
	<path fill="#7E5042" d="M474.6,415.2c0-0.2,0-0.4,0-0.6c2.1,0.4,5.8-1.3,6.8,1.2C479.1,415.9,476.8,416,474.6,415.2z" />
	<path fill="#110C0A" d="M487.1,415.9c0-0.3,0-0.7-0.1-1.2c1.2-0.3,2.4-0.6,4-0.9c-0.3,0.7-0.4,1-0.6,1.4   C489.3,415.4,488.2,415.7,487.1,415.9z" />
	<path fill="#080605" d="M453.9,356.7c-1.1-1.3-0.5-3.1-0.6-4.7C455.6,350.8,454.1,355.6,453.9,356.7z" />
	<path fill="#815749" d="M452.9,376.1c0.3,0.1,0.6,0.2,1.1,0.3c-0.3,1-0.6,1.9-1,3.2C452.5,378.1,452.4,377.1,452.9,376.1z" />
	<path fill="#D7BEAE" d="M527.6,21c-1.2-1.4-0.5-3.1-0.7-5.1c-0.4-0.3-0.8-0.6-1.3-1c0.1-1.4-0.7-3.1,1-4.1c2-0.1,1.2,2.1,2.4,2.6   c0.1,1.3-1.1,3.1,0,4.1c-0.6,0.9-0.6,1.9,0,2.8C528.3,20,527.9,20.4,527.6,21z" />
	<path fill="#24201D" d="M511.4,159.3c1.4,3.2,0.9,6.9-0.7,10C509.2,168.6,510.4,160.6,511.4,159.3z" />
	<path fill="#100F0D" d="M517.5,107.1c2.5,0.7,4.4,8.6,1.4,8.9C518.5,113,516.9,110,517.5,107.1z" />
	<path fill="#3B3430" d="M488.6,199.8c1.4,1,1.4,3,3,3.8c0.4,0.2,0.4,0.4-0.1,1.8C489.7,204.5,487.8,201.6,488.6,199.8z" />
	<path fill="#181513" d="M529,17.5c-1.1-1,0.1-2.8,0-4.1C531.3,12.5,530.1,16.8,529,17.5z" />
	<path fill="#403935" d="M517.8,102.5c0.6,1.3,0.4,2.5-0.1,3.8C516,106.2,516.1,102.4,517.8,102.5z" />
	<path fill="#342F2C" d="M488.9,231.8c-0.5,1.2-0.6,2.8-2.6,2.6C486.3,232.5,487.6,232.1,488.9,231.8z" />
	<path fill="#352F2B" d="M535.8,18.7c-0.5,0-0.6,0.1-1.1-0.2c0-1.2,0.4-2.2,1.6-3.2c0.1,0.7,0.2,1.1,0.3,1.6   C536.3,17.5,536.1,18.1,535.8,18.7z" />
	<path fill="#2B2624" d="M531.8,42c0.7-1.1,1.4-2.1,3-1.7C533.7,42.3,533.7,42.4,531.8,42z" />
	<path fill="#504742" d="M528.2,27.4c-0.5-1.9-0.5-1.9,0.9-3.1C529.3,25.4,529.2,26.3,528.2,27.4z" />
	<path fill="#0E0D0D" d="M510.8,154.3c-0.9-1.6-1.4-2.5-0.2-3.8C511.5,151.6,511.4,152.6,510.8,154.3z" />
	<path fill="#2B2724" d="M510.5,158.4c0-1.1,0-2.1,0-3.2C512,156.8,512,157.1,510.5,158.4z" />
	<path fill="#403934" d="M517.7,97.3c0.4,1.1,0.4,1.1,0.1,2.5C516.3,99.5,516.1,97.9,517.7,97.3z" />
	<path fill="#37312D" d="M527.6,21c0.3-0.6,0.7-0.9,1.4-0.7c0,1,0.3,2.1-0.7,2.8c-0.2-0.5-0.4-1-0.6-1.5   C527.7,21.4,527.7,21.2,527.6,21z" />
	<path fill="#2F2A26" d="M533.8,24.5c0.2,0,0.4,0,0.6,0c0.1,1-0.1,1.7-1.2,2C532.6,25.5,533.5,25.1,533.8,24.5z" />
	<path fill="#46403C" d="M493.6,225.9c-0.7-0.4-0.4-1.5,0.3-1.2C494.5,225.1,493.9,225.5,493.6,225.9z" />
	<path fill="#D7BEAE" d="M527.7,21.6c0.2,0.5,0.4,1,0.6,1.5C527.5,22.8,527.6,22.2,527.7,21.6z" />
	<path fill="#2D2927" d="M491.3,228.1c-0.1-0.5-0.4-1,0.3-1.2C491.8,227.5,492.2,227.8,491.3,228.1z" />
	<path fill="#282421" d="M415.4,199c0.4-0.4,0.9-1.2,1.3-1.2c3-0.5,2.5-4.7,4.9-6.1c2.7,2.6-3.3,6.8-5.3,8.3   C416,199.6,415.7,199.3,415.4,199z" />
	<path fill="#0F0D0C" d="M385.1,113.7c-0.3,0.9-0.5,1.9-0.8,2.9c-3-0.6-1.1-7.9,1.5-8.9c0,1,0.1,1.9,0.1,2.7   c-0.2,0.1-0.2,0.3-0.1,0.4C385.5,111.8,385.2,112.7,385.1,113.7z" />
	<path fill="#514842" d="M415.4,199c0.3,0.3,0.6,0.6,0.9,0.9c-1.7,1.5-1.9,4.7-4.1,5.6c-0.3-0.3-0.6-0.6-0.8-0.8   C412.9,203,413.7,200.8,415.4,199z" />
	<path fill="#161413" d="M374.1,17.9c-0.7-1.3-1.9-2.6-0.3-4.5C374.1,15.2,374.9,16.5,374.1,17.9z" />
	<path fill="#403935" d="M386.5,106.8c-0.3,0-0.7,0-1.1,0.1c-0.5-1.3-0.5-2.6,0-3.9C387.2,103.4,386.5,105.5,386.5,106.8z" />
	<path fill="#302A27" d="M366.3,15.8c1.9,1,2.1,2.2,2.4,3.9C366.8,18.7,366.8,17.5,366.3,15.8z" />
	<path fill="#38312E" d="M374.2,23.8c0-1.3-0.2-2.1,0.4-3.1C375.7,22,375.7,22,374.2,23.8z" />
	<path fill="#504742" d="M374.8,28.4c-0.8-2-0.9-1.8-0.8-3.6C375.4,25.7,375.9,26.4,374.8,28.4z" />
	<path fill="#504843" d="M407.3,166.3c1.1,1.3,1.8,2.1,2.5,2.9C408.4,170.2,406.5,167.9,407.3,166.3z" />
	<path fill="#403934" d="M385.2,100.7c-0.1-1-0.1-1.8-0.2-2.4C387.1,97.4,387.2,100.2,385.2,100.7z" />
	<path fill="#1F1C1A" d="M368,20.2c1.6,0.7,1.5,1.6,1.3,2.8C368.3,22.4,368.3,21.5,368,20.2z" />
	<path fill="#2F2A27" d="M370,27.3c-0.9-0.5-1.6-0.9-1.1-2C369.9,25.6,370.4,26.2,370,27.3z" />
	<path fill="#E1C7B6" d="M385.3,112.5c0.2-0.5,0.3-1.1,0.5-1.6C385.9,111.5,386,112.1,385.3,112.5z" />
	<path fill="#34201A" d="M430.5,415.2c-1.1,0-2.2,0-3.3,0c-0.4-0.3-0.8-0.7-1.4-1.3c1.6-0.5,2.9-0.1,4.5-0.1   C430.4,414.4,430.4,414.8,430.5,415.2z" />
	<path fill="#C27057" d="M453.9,390.4c0,1.2,0.4,1.7-0.8,1.9C452.5,391.4,453.1,391.3,453.9,390.4z" />
	<path fill="#776B63" d="M478.5,325.9c0.2,1.6,0.2,1.6-1.4,2.5C476.5,327,477.7,326.6,478.5,325.9z" />
	<path fill="#554D47" d="M472.6,331.2c0-1.7,0.8-2.1,1.8-2.5C474.3,330.1,474.3,330.1,472.6,331.2z" />
	<path fill="#72665E" d="M470.2,334.1c-0.8-0.9-0.3-1.4,0.5-1.8C471.3,333.3,471.3,333.3,470.2,334.1z" />
	<path fill="#5B504A" d="M467.8,338.2c-0.2,0-0.5,0-0.7,0c0-0.2,0-0.5,0-0.7C467.3,337.7,467.5,337.9,467.8,338.2z" />
	<path fill="#5B504A" d="M467.1,338.2c-0.2,0.2-0.3,0.5-0.5,0.7C466.7,338.6,466.9,338.4,467.1,338.2z" />
	<path fill="#161511" d="M490.4,547.3c-0.4,0.3-0.8,0.6-1.2,0.9c-2.7-7.1-3.3-16.6-3.3-23.6C493,532.7,491.9,537.7,490.4,547.3   L490.4,547.3z M489.1,532.9c-0.1-0.8-0.5-1.3-1.4-1.7c-0.2,2.9,0.8,4.9,1,7.6C489.8,536.9,490.4,534.9,489.1,532.9z" />
	<path fill="#0C0B0A" d="M476.3,508.9c0.9-7.9-2.6-16.2-1.9-24.2c2.9,1.5,1.2,6.1,3.7,8.2C479.7,497.8,481.2,505.6,476.3,508.9z" />
	<path fill="#12110E" d="M475.3,526.9c2.4,7.1,5.7,14,5.8,21.7C478.5,549.4,474,528.9,475.3,526.9z" />
	<path fill="#12100E" d="M446.5,559.6c0.3-0.6,0.5-1.1,0.9-2c2.5,3.4,1.3,7.6,2.2,11.7c-3.5,4.8-1.6,13.1-6.1,17.2   c-1-1-0.7-1.9-0.4-2.7c2.9-5.9-2.2-15.3,2.5-19.8c0.1,2.6,0.2,5.2,0.3,7.8C448.4,568.5,447.1,563.4,446.5,559.6z" />
	<path fill="#161511" d="M442,518.1c1.5,6.7,5.8,20.4-0.8,25.4C436.3,535.6,437.9,525.8,442,518.1z M441.3,525.5   c-2.8,4.4-2.1,10.7,0.7,14.9C443.1,535.2,443.6,530.4,441.3,525.5z" />
	<path fill="#181613" d="M436.9,564.4c0.1-1.8-0.5-3.1,1.2-4.5c2.4,7.8,1.5,17,0.1,24.8c-5.2-4-2.6-10.9-2.7-16.6c0.3,0,0.7,0,1,0.1   c0.1,2.5,0.2,4.9,0.4,8.2C438.6,571.6,437.9,568.7,436.9,564.4z" />
	<path fill="#DDD0AD" d="M446.5,559.6c0.6,3.8,1.9,8.8-0.5,12.1c-0.1-2.6-0.2-5.2-0.3-7.8C447.1,563.1,446.2,561,446.5,559.6z" />
	<path fill="#171612" d="M442.4,544.7c2.2-0.3,4.4-1.3,6.6-0.7c0.3,3.3-5.2,2-7.3,1.9C441.9,545.5,442.1,545.1,442.4,544.7z" />
	<path fill="#C8BC9D" d="M436.9,564.4c1,4.3,1.7,7.1,0,12c-0.1-3.2-0.3-5.7-0.4-8.2c-0.4,0-0.7-0.1-1-0.1   C436.7,566.5,436.7,566.5,436.9,564.4z" />
	<path fill="#5C5648" d="M442.4,544.7c-0.2,0.4-0.5,0.8-0.7,1.2c-1.1,0.1-2.2,0.3-3.4-0.3C439.5,544.2,441,544.9,442.4,544.7z" />
	<path fill="#2E2925" d="M388.8,165.7c-0.4-4-0.4-4,0.7-5.5C390.1,162.4,390.1,162.4,388.8,165.7z" />
	<path fill="#37312D" d="M414,232.7c1.6,0,2.5,0.6,3,2.1C415.1,235.3,414.9,233.9,414,232.7z" />
	<path fill="#322D29" d="M368.2,41.1c1.6-0.7,2.2,0.4,3.1,1.3C369.8,43.2,369.8,43.2,368.2,41.1z" />
	<path fill="#4C443F" d="M409.5,226.6c-0.1-0.4-0.3-0.7-0.4-1.1c0.8-0.4,0.7,0.4,0.9,0.9C409.8,226.5,409.7,226.5,409.5,226.6z" />
	<path fill="#0C0A09" d="M411.3,204.7c0.3,0.3,0.6,0.6,0.8,0.8c-0.2,0.1-0.5,0.3-0.7,0.4C411.4,205.5,411.4,205.1,411.3,204.7z" />
	<path fill="#322D2A" d="M411.7,228.7c-0.5-0.3-0.6-1.1,0.1-1.1C412.3,228.1,412.1,228.4,411.7,228.7z" />
	<path fill="#8C7D72" d="M409.1,242.9c-0.2,0.2-0.3,0.2-0.4,0C408.9,242.7,409,242.7,409.1,242.9z" />
	<path fill="#26221F" d="M488.3,200.1c-3-1.9-8.4-4.8-7-9c2,0.9,2.5,4,4,5.8c2,0,2.8,1.3,3.4,2.9   C488.5,199.8,488.3,199.9,488.3,200.1z" />
	<path fill="#2E2926" d="M478.3,200.9c-0.8,1.1-1.7,1.4-2.8,1C476.4,200.1,476.8,199.9,478.3,200.9z" />
	<path fill="#756860" d="M440.1,461.2c-1.4-0.4-1.7-1.3-1-2.5c0.3,0,0.6,0,1,0.1C440.1,459.6,440.1,460.4,440.1,461.2z" />
	<path fill="#221F1D" d="M438.9,453.6c0-0.9,0-1.7,0-2.7C440.1,452.4,440.1,452.4,438.9,453.6z" />
	<path fill="#3B3530" d="M438.9,333.3c1.2,0.6,1.7,1.2,1.3,2.6C439,335.4,438.7,334.7,438.9,333.3z" />
	<path fill="#88796F" d="M433.4,328.6c-0.3-0.2-0.5-0.5-0.8-0.7C433,326.3,434.9,328,433.4,328.6z" />
	<path fill="#695E56" d="M437.3,331.8c-0.5-0.1-0.7-0.4-0.9-0.8C437.4,330.7,437.4,330.7,437.3,331.8z" />
	<path fill="#181614" d="M450.3,480.6c3.4,0.1,6.4,0.6,8.4,3c-0.2,0.4-0.4,0.7-0.6,1C455.6,484.5,451.6,482.6,450.3,480.6z" />
	<path fill="#94847B" d="M447.2,477.6c0.9-0.6,1.4,0,1.9,0.5c0,0.1,0,0.2,0,0.3C448.1,478.7,448.1,478.7,447.2,477.6z" />
	<path fill="#F1DBBB" d="M451.9,119.9c0.8-1,1.5-0.4,2.2,0.1c0,0.3,0,0.5,0,0.8c-2,2.8-0.5,6.8-3.5,8.8c-1.2-1.5-0.3-3.9-0.5-5.7   c0.4,0,0.7-0.1,1-0.1C451.3,122.5,452.3,121.4,451.9,119.9z" />
	<path fill="#E9D4B5" d="M442.2,129.1c-1.5-2-1.8-4.2-2.5-6.7c5.8-2.1,1.9,4,4.1,7.1C443,129.3,442.6,129.2,442.2,129.1z" />
	<path fill="#F0DABA" d="M434,126.2c1.2-1,2.4-1.9,3.8-3c0.3,1.9,1.2,3.1,0.8,4.8C436.6,128.7,435,128.3,434,126.2z" />
	<path fill="#221F1B" d="M445.6,120.9c1.5-0.3,2.9-1.2,4.5-0.7c-0.7,0.3-1.4,0.5-2.1,0.8c-0.1,1.5-0.1,3.1-0.2,4.6   c-0.4,0.2-0.8,0.5-1.2,0.7C446.1,124.5,445.6,122.7,445.6,120.9z" />
	<path fill="#584E41" d="M443.7,124.8c0.8-1,0.6-2.2,0.6-3.4c0.2,0,0.4,0,0.6,0c0,2.2,0,4.4,0,7C443.4,127.3,443.7,126,443.7,124.8z   " />
	<path fill="#675C4C" d="M438.2,158.6c0.3,0.3,0.5,0.5,0.8,0.8c-1,0.8-2,1.7-3,2.5C434.7,160.4,437.4,159.6,438.2,158.6z" />
	<path fill="#1C1915" d="M435.1,160c-1-1.2-1-1.2,0-3.1C435.7,157.8,435.7,157.8,435.1,160z" />
	<path fill="#665B4C" d="M432.7,131.7c0.3-0.2,0.5-0.5,0.8-0.7c0.9,0.7,1.8,1.6,2.9,3C434.4,133.6,433.6,132.6,432.7,131.7z" />
	<path fill="#544B3E" d="M427.9,143.5c-0.4-0.9-1.4-1.8-0.2-2.8c0.6,0.6,1.2,1.2,1.9,1.9C429.1,142.9,428.5,143.2,427.9,143.5z" />
	<path fill="#534A3F" d="M446.5,126.2c0.4-0.2,0.8-0.5,1.2-0.7c0,0.9,0,1.8,0,2.7C446.2,128.1,446.5,127.1,446.5,126.2z" />
	<path fill="#746857" d="M438.7,132.5c-0.4-0.8-0.8-1.5-1.2-2.2c1.5-1.3,1.6,1.3,2.1,2.2C439.3,132.5,439,132.5,438.7,132.5z" />
	<path fill="#473F35" d="M429.2,150.9c0.2-0.4,0.5-0.8,0.7-1.2c0.9,0,1.7,0,2.6,0C431.4,150.4,430.4,150.9,429.2,150.9z" />
	<path fill="#423B31" d="M438.7,132.5c0.3,0,0.6,0,0.9,0c0.2,0.7-0.1,1.5-0.1,2.3C439.2,134,438.9,133.2,438.7,132.5z" />
	<path fill="#4A413C" d="M427.1,155c-0.2,0.3-0.5,0.5-0.7,0.8C426.6,155.5,426.9,155.3,427.1,155z" />
	<path fill="#221F1B" d="M444.9,121.4c-0.2,0-0.4,0-0.6,0c0.3-0.2,0.6-0.4,1-0.5C445.3,121.1,445.1,121.3,444.9,121.4z" />
	<path fill="#0D0C0B" d="M454.8,320.2c-0.1-1.5-0.7-3,0.2-4.8c1.3,1,1,2.1,1,3.5C455.6,319.3,455.2,319.7,454.8,320.2z" />
	<path fill="#7D6F66" d="M454.1,309.2c0.4,0,0.8,0,1.2,0c0.1,1.2,0.3,2.4-0.6,3.8C453.7,311.6,454,310.4,454.1,309.2z" />
	<path fill="#95847A" d="M454.8,320.2c0.4-0.5,0.8-0.9,1.2-1.4c0.2,1.1,0.1,2.2-0.1,3.4C454.3,322,454.8,321,454.8,320.2z" />
	<path fill="#282421" d="M455.8,331.4c0.6,0.9,0.2,1.7-0.2,2.5C454.3,333.6,454.7,331.8,455.8,331.4z" />
	<path fill="#5C524B" d="M455.5,328c-1-0.9-1-1.5-0.2-2.3C456.4,326.2,456.1,327,455.5,328z" />
	<path fill="#EED7B6" d="M450.4,186.4c-1.2-5.7-1.6-13.6-0.9-19C451.2,174.1,450.5,179.2,450.4,186.4z" />
	<path fill="#817461" d="M454.8,175.1c-0.5,3-0.5,6.1-1.3,9.1c-0.3-0.5-0.5-1-0.8-1.5c0.8-2.8-0.1-6.7,1.7-8.8   C454.5,174.3,454.7,174.7,454.8,175.1z" />
	<path fill="#3B352C" d="M449.9,142.8c-0.3,1.4-0.5,2.9-0.8,4.4c-0.4,0-0.7,0-1.1,0c-0.1,0.6-0.2,1.2-0.4,1.8   c-0.1,0.1-0.2,0.1-0.3,0.2c-0.1-2.2-0.6-4.5,1-6.3C448.8,142.9,449.3,142.8,449.9,142.8C449.9,142.7,449.9,142.8,449.9,142.8z" />
	<path fill="#564D40" d="M452.7,182.7c0.3,0.5,0.5,1,0.8,1.5c-0.1,1.5-0.1,3.1-0.2,4.6c-0.2,0-0.4,0.1-0.5,0.2   c-0.3-0.7,0.2-1.7-0.8-2.2C452.2,185.5,452.5,184.1,452.7,182.7z" />
	<path fill="#7C6F5C" d="M452.8,152.3c0.2-0.5,0.5-0.9,0.7-1.4c0.9,1.3,0.8,2.8,1.2,4.2C453.4,154.6,453,153.5,452.8,152.3z" />
	<path fill="#302B27" d="M490.6,467.2c0.5-1.6,0.3-2,1-2.7C492.4,465.5,492.4,465.5,490.6,467.2z" />
	<path fill="#524943" d="M492,461.2c0-0.4,0-0.7,0-1.1c0.1,0,0.3,0,0.4,0c0,0.4,0,0.7-0.1,1.1C492.2,461.2,492.1,461.2,492,461.2z" />
	<path fill="#F1DABB" d="M471.2,150.3c0.4,0,0.8,0,1.3,0.1c-0.8,2.5-0.7,5.2-2.7,6.8c-0.6,0-0.9-0.4-1.3-0.7   c0.2-2.1,1.3-2.5-0.4-4.5c0.1-0.3,0.3-0.6,0.5-0.8C469.4,150.9,470.5,151.4,471.2,150.3L471.2,150.3z" />
	<path fill="#D7C1A4" d="M469.8,157.3c0.4-0.5,0.9-0.9,1.3-1.4c0.1,0.3,0.2,0.6,0.4,1.2c0.6-0.7,1.2-1.3,1.7-1.9   c0.8,1.1-0.2,2.1-0.1,3.2c0.1,1,0,2,0,3c-0.4-0.2-0.8-0.4-1.2-0.7c0-0.7,1.2-1.6-0.4-2c-0.6,0.9-1.2,1.8-1.8,2.7   c0.3-1.5-1.8-3.5-2.7-2c-0.5-0.4-0.9-0.8-1.7-1.5c1.3-0.3,2.4,0.2,3-0.6c0.5,0.7,0.7,1.6,2,1.2C470.2,158,470,157.6,469.8,157.3z" />
	<path fill="#584E46" d="M469.8,161.3c0.6-0.9,1.2-1.7,1.8-2.7c1.6,0.5,0.4,1.4,0.4,2c-0.7,0.9-1.4,1.7-2.2,2.7   c-1-0.4-2.1-0.5-2.9-2.1C468.3,161.5,468.9,162.3,469.8,161.3z" />
	<path fill="#594E48" d="M474,164.2c-0.5,0.9-1,1.8-1.5,2.7c-0.2,0-0.3,0-0.5,0c-0.3-0.5-0.6-0.9-0.9-1.4c0.9,0.1,1.8-0.6,0.7-1.4   c0.4-0.4,0.9-0.8,1.3-1.2C473.5,163.3,473.7,163.8,474,164.2z" />
	<path fill="#6B6153" d="M467.1,159.3c0.8-1.3,2.6,0.1,2.8,1.5C468.9,160.3,468,159.8,467.1,159.3z" />
	<path fill="#D7C1A4" d="M473.8,163.9c-0.2-0.4-0.4-0.7-0.6-1.1c0.1-0.4,0.1-0.7,0.2-1.1c0.3,0,0.6-0.1,1-0.1   C475,162.6,474.5,163.3,473.8,163.9z" />
	<path fill="#2F2A26" d="M471.9,164.1c1.1,0.8,0.2,1.5-0.7,1.4C470.9,164.8,471.4,164.4,471.9,164.1z" />
	<path fill="#D7C1A4" d="M468.5,156.5c0.2,0.2,0.5,0.4,0.7,0.6c-0.2,0.1-0.4,0.1-0.6,0.2l-0.1-0.1   C468.4,157,468.5,156.8,468.5,156.5z" />
	<path fill="#2B2721" d="M465.6,127.7c0.8,0,1.2,0.5,1.5,1.2c-1.8,1.3-1.9,4.4-4.2,5.6c-0.2-0.2-0.5-0.5-0.7-0.7   c0.5-1.6,1.1-3.1,1.6-4.7C464.4,128.6,465,128.2,465.6,127.7z" />
	<path fill="#5A5144" d="M462.2,133.8c0.2,0.2,0.5,0.5,0.7,0.7c-0.6,1.4-1.2,1.9-2.6,3.1c-0.1-0.8-0.1-1.3-0.2-1.7   C460.9,135.2,461.6,134.5,462.2,133.8z" />
	<path fill="#2F2B25" d="M470,140.8c0.2,0.2,0.5,0.4,0.7,0.7c-0.5,0.4-1,0.9-1.5,1.3c-0.2,0-0.5,0.1-0.7,0.1   c-0.2-0.3-0.5-0.5-0.7-0.8c0.5-0.5,0.9-0.9,1.4-1.4c0,0,0,0.1,0,0.1c0.2-0.1,0.4-0.1,0.6-0.1L470,140.8z" />
	<path fill="#484138" d="M468.4,139.2c0.6,0.4,1,0.8,0.8,1.5c0,0,0-0.1,0-0.1c-0.8,0.2-1.7,0.5-2.8,0.8   C466.7,140.2,467.6,139.8,468.4,139.2z" />
	<path fill="#F3DDBD" d="M465.6,127.7c-1.5,1.4-3.3,2.1-5.2,3c-0.3-1.1,1.1-2.3,0.1-3.6c-2.9-0.6-3.5,3.6-5.3,5.1   c-0.7-0.2-1.2-0.4-1.7-0.6c-0.8-2.4,1.1-4.6,0.1-6.9c-0.1-1.1,1.3-2,1.2-3.2c0.2,0.2,0.4,0.5,0.6,0.7c-0.1,0.6-0.2,1.3-0.3,1.9   c-0.8,0.6-0.5,1.4-0.5,2.1c0.1,1.5-0.3,2.9,0.6,4.4c0.5-2.8,1.1-5.6,1.8-8.4c0.4-0.1,0.7-0.2,1-0.3   C461.2,123.2,462.7,126.1,465.6,127.7z" />
	<path d="M456,135.8c-0.3,0.4-0.7,0.8-1.4,1.6c0.4-1.6,0.7-5,2.1-4.2c-0.1,0.1-0.1,0.3-0.1,0.5c-0.6,0.4-0.6,1-0.5,1.6   C456,135.4,455.9,135.5,456,135.8z" />
	<path fill="#BCA88C" d="M456.1,135.2c-0.1-0.6,0-1.2,0.5-1.6C456.8,134.2,456.9,134.8,456.1,135.2z" />
	<path fill="#221E1C" d="M534,22.4c-0.4-1.3-0.4-2.2,0.6-2.7C534.8,20.9,534.8,20.9,534,22.4z" />
	<path fill="#F1DBBB" d="M469.2,142.8c0.8-0.6,1.5-1.4,2.5-1.7c1.2,2.1,1.2,2.6,0.8,6.9c-1.8,1.4-4.4,1.5-6,3c-0.9,0-1.8,0-2.8,0   c1.7-1.4,4.4-1.9,5.4-4.1c-0.2-1.1-1-1.5-1.9-1.5c0-0.2,0-0.4,0-0.6c0.6-0.3,0.5-0.5,0-0.8C467.9,143.7,468.6,143.4,469.2,142.8z" />
	<path fill="#685E51" d="M466.4,151c0.6-1.1,1.9-0.9,2.8-1.3c0.4,1,1.4,0.4,2,0.7C470,151.7,468,151,466.4,151z" />
	<path fill="#5B504A" d="M467.2,341.1c-0.1-0.6-0.1-1.1,0.5-1.5C467.5,340.1,467.3,340.6,467.2,341.1z" />
	<path fill="#CDB799" d="M469.2,142.8c-0.2,0.2-0.5,0.4-0.7,0.6c0-0.2,0-0.4,0-0.5C468.7,142.9,468.9,142.8,469.2,142.8z" />
	<path fill="#CDB799" d="M467.1,144.1c0.5,0.3,0.6,0.5,0,0.8C467.1,144.6,467.1,144.4,467.1,144.1z" />
	<path fill="#AB978B" d="M428.5,163.4c0.3-1.9-2.6-3.7-0.7-5.3c0.6,1.6,1.3,3.2,1.9,4.8C429.3,163,428.9,163.2,428.5,163.4z" />
	<path fill="#D0BA9B" d="M456.1,131.1c0.2-0.3,0.4-0.5,0.6-0.8C456.5,130.6,456.3,130.8,456.1,131.1z" />
	<path fill="#CBB89E" d="M455.5,122.3c-0.4-0.5-0.9-1-1.4-1.5c0-0.3,0-0.5,0-0.8c1,0.1,1.5,0.7,2.1,1.4   C455.9,121.7,455.7,122,455.5,122.3z" />
	<path fill="#CBB89E" d="M454.7,122.8c-0.2,0.2-0.4,0.5-0.6,0.7C454.2,123.3,454.5,123,454.7,122.8z" />
	<path fill="#D7C0A0" d="M452,127.7c0.1-0.3,0.3-0.5,0.4-0.8C452.3,127.2,452.2,127.5,452,127.7z" />
	<path d="M441.6,160c-0.1-0.1-0.2-0.2-0.3-0.3C441.5,159.7,441.6,159.8,441.6,160L441.6,160z" />
	<path fill="#4D463C" d="M455.5,122.3c0.2-0.3,0.4-0.6,0.7-0.9c0.7,0.1,1.6-0.3,2,0.6c-0.3,0.1-0.7,0.2-1,0.3   c-0.4,1.5-0.7,3.1-1.1,4.6c-0.3-0.2-0.5-0.5-0.8-0.7C455.2,124.9,455.3,123.6,455.5,122.3z" />
	<path fill="#2F2B25" d="M469.1,139.8c0.7-0.4,1.5-0.8,2.3-1.3c-0.4,1.3-0.4,1.3-1.4,2.3C469.7,140.5,469.2,140.3,469.1,139.8z" />
	<path fill="#DACDAB" d="M489.1,532.9c1.3,2,0.8,3.9-0.4,5.9C488.6,536.9,487.7,534.6,489.1,532.9z" />
	<path fill="#978E76" d="M489.1,532.9c-0.8,0.8-0.7,1.8-0.8,2.8c-0.8-1.3-0.5-2.8-0.6-4.6C488.6,531.7,489,532.2,489.1,532.9z" />
	<path fill="#DCCFAC" d="M441.3,525.5c2.3,4.9,1.8,9.8,0.7,14.9C439.2,536.2,438.5,529.9,441.3,525.5z" />
	<path fill="#7A6E5F" d="M468.5,157.3c0.2,0,0.4-0.1,0.6-0.2c0.2,0.1,0.4,0.1,0.6,0.1c0.2,0.4,0.4,0.7,0.6,1.1   C469.3,158.7,468.9,158,468.5,157.3z" />
	<path fill="#EED8B9" d="M469.2,140.1c0.2,0.2,0.3,0.3,0.5,0.5c-0.2,0-0.4,0-0.6,0.1C469.1,140.5,469.2,140.3,469.2,140.1z" />
	<path fill="#A59680" d="M455.3,126.2c0.3,0.2,0.5,0.5,0.8,0.7c-0.2,1.3-0.5,2.5-0.7,3.8c-0.9-1.5-0.5-2.9-0.6-4.4   C454.9,126.3,455.1,126.2,455.3,126.2z" />
	<path fill="#CBB89E" d="M455.3,126.2c-0.2,0-0.3,0.1-0.5,0.1c0-0.7-0.3-1.6,0.5-2.1C455.2,124.9,455.2,125.5,455.3,126.2z" />
</g>
</svg>