<?xml version='1.0' encoding='utf-8'?>
<svg xmlns="http://www.w3.org/2000/svg" version="1.2" baseProfile="tiny" id="Layer_1" x="0px" y="0px" viewBox="0 0 900 600" overflow="visible" xml:space="preserve">
<g id="c_00000080191758674020334940000015203410169794203030_">
	<path display="inline" fill="#010101" d="M437.2,542.8c4.5,4.5,11.3,6.5,15,11.6c0.5,1.3,1.6,1.9,3,2.2c6.2,0.9,7.7,5.8,6.5,11.5   c-14.5,13.3-26.5,6.4-40.5-3.2c-7.2,2-15.5,2-21.4-3.3c-0.4,7,8.5,12.3,12.6,17.5C441,597,395.4,611,377,588   c-6.1-0.9-15-2-17.4-8.2c4.9,0.6,8.7,5.3,14.1,5.3c6.8,2.5,12.3,8.2,19.4,10.6c7.9,3.3,29,3.6,25.6-9.4c-3.8-2.3-7.7-5.2-11.2-8.3   c-2,0.4-3.9,1.6-5.9,1.6c-0.8-2.9,3.3-1.8,4-3.7c-0.5-0.4-1.1-0.8-1.5-1.2c-2.4,0.9-6.2,5.4-8.2,3.2c1.1-2.4,1.1-2.4,6.8-5.4   c-0.4-0.6-0.8-1.3-1.3-2.1c-3.2,0.9-5.3,2.9-8.4,3.8c-1-4.2,4-4.7,6.9-6.4c-5.6-0.9-8.3,3.9-13.1,3.4c-1.2-3,8-6.2,10.3-6.5   c-1.8-3.3-9.7,3.8-13,3.8c1.1-5.6,7.5-7.6,12.5-8.2c0.1-2.4,0.7-4.5,0.1-6.7c-10.8-1.6-11.2,6.7-18.9,10c-5.9,2.4-8.8-7.6-4.6-10.5   c-1.3-39.5-12.9-63.6,9.1-100c-2-3.9-1-8.1-2-12.2c-4.5-0.5-8-3.2-11.8-5.7c4-18.5-0.6-38.1,4-56.8c0.5,18.3,1.9,38.2-1.7,56.4   c17.3,7.2,39.2,11.1,55.8,0.3c-0.4-5.9,0.4-11.5,2.7-16.9c2.3,3.6-1.1,7.8-0.4,12c6.7,0.2,12.9-0.1,19-3.2   c2.5-18.8,1.9-37.9,4.1-56.4c3.2,18.6-1.3,37.8-1.3,56.6c-1.9,2.1-4.4,2.6-6.8,3.9c-0.5,4.8-3.5,8.8-1.1,14   c-6.6,9.6-6.6,20.9-7.8,32.1c-3.9,17.9-7.5,36.2-7.8,54.4c1.5-0.2,3-0.4,4.4-0.6c3,5.3,5.9,10.7-0.8,14.1l0.1,0   c-0.6,0-1.3,0-1.5,0.7l0.1,0c-2.5,0.3-3.8,2.1-6.4,2.7c0.1-5.2,6.4-6.3,10-8.6c-0.7-2.4-1.3-4.5-2-6.7c-2.2,0.5-4.3,1.1-6.7,1.7   c-7.3,12.3-10.7,11.2-18,0.1c-2.1,7.4-4,14.7-6.1,22.2c6.9,9.8,14.7,4.5,23.4,7.6c3.1,2.4,8.3,2.1,10.3,5.5   c7.5,5.5,18.5,2.8,25.1-3.4c2.9-9.2-5.2-6.8-8.8-12.6c0-0.6,0-1.3-0.9-1.2l0.1,0c0-0.8-0.6-0.9-1.2-0.9c-1.5-0.9-2.9-1.8-4.6-2.2   l0.1,0.1c-0.3-1.5-1.7-1.7-2.6-2.4c-6.2,5.3-7.8,6.1-11,5.7c-1.9-5.9,13-5.2,6.2-10.3C436.4,542.9,436.8,542.8,437.2,542.8z    M412.2,539.3c-0.4-0.6-0.8-0.9-1.5-0.6c1.4,2.2,3.1,3.9,6,3.5c0.3-0.7,0.8-1.6,0.9-2C415.6,539.9,413.9,539.6,412.2,539.3z    M409.3,532.2c-0.2,0.9-0.4,1.8,0.3,2.7c0.7-2.7,0.5-5.3,1.3-8.4c2.3,2.6,0.7,6.5-0.1,9.6c2.7,1.8,5.1,3.1,8.4,2.1   c0.6-1.7,1.3-3.5,1.9-5.3c1-0.3,1.9-0.6,3.1-0.9c1-25.2,8-49.6,9.6-74.5c1.6-6,8.2-11.7,5.9-18.1c-0.4,0-0.8,0.1-1.5,0.2   c0.2-2.9,2.3-5,2.9-7.7c-4.3,0.2-8.1,0.5-12.2,0.6c-0.8,5.7-2.1,5.3-7.1,7.6c-1.9-0.5-3.5,1.5-5.2,1.9c-3.8,7-4.7,14.1-6.9,21.5   c-7.9,10.7-4,24.4-1.3,36.3C409.8,510.5,408.9,521.4,409.3,532.2z M400.8,444.9c-6-1.6-12-4-18.3-3.3c6.8,34.5-18.2,14-10.6,75.2   c4.8,7.5,1.9,18.8,3.4,27.6c0.5-0.8,1-1.5,1.7-2.5c0.2,1,0.3,1.7,0.4,2.4c-0.2,0.2-0.2,0.4-0.1,0.6c-0.7,0.4-1.3,0.8-2.1,1.3   c-0.1,1.1-0.3,2.3-0.4,3.5c1.4,0.5,1.4,0.5,0.9,3.8c-0.5,0.3-1.1,0.7-1.8,1.2c2.6,1.5,5.5,2.6,8.4,3c2.4-2.3,4.3-4.9,7.5-5.9   c-2.1-25.6,9-48.1,11.4-73.1c-0.9,2-1.5,3.3-2.1,4.6c-0.2-0.4-0.4-0.9-0.6-1.3c2.3-7.3,12.7-21.7,11.5-28.4   c-0.6-3.8,3.6-6.7,3.3-10.5C409.1,444.1,405.1,445.1,400.8,444.9z M403.4,485.1c-0.2,0-0.4,0-0.6,0c-3,22.3-14.5,43.3-10.4,66.3   c2.8-0.1,4.7-0.1,7.1,1.6c1.2-4.4,0.6-8.5,2.3-12.6c1-2.1,2-4.3,1.1-6.5c0.9-1.6,2.5-1.6,3.8-2.1   C405.8,516.1,408.7,500.4,403.4,485.1z M380.2,558.8c-2.3-0.5-4.5-1-6.7-1.6C371.5,561.9,378.5,562.4,380.2,558.8z" />
	<path display="inline" fill="#010101" d="M383.1,285.3c-5.1-15.7-9.4-30.9-8.1-47.6c-1.9-11.2-7.5-21.4-3-33   c-7.2-12.6-4.8-28.1,2.2-40.2c-0.1-13.4-1.9-29.7,5.1-41.9c-2.9-7-2.2-14.1-0.2-21.2c-2.9-3.7-2.5-8.4-3.4-12.7   c-41.7,5.8-47.4-62.1-2.5-56.7c1.1-1.9,2.3-4,3.4-5.8c-0.7-1.9-2.4-2.5-3.7-3.4c0-0.2,0.1-0.4,0.1-0.7c0.5-0.1,1,0,1.5-0.1   c1.2,0.5,2.8,2.6,3.6,0.9c0,0,0,0,0,0c0.2-0.5,0.5-1,0.7-1.5c0,0,0,0,0,0c0.4-1,0.9-1.9,1.3-2.9c-0.3-1.9,1.4-3,1.8-4.5   c0.6,0.1,1.1,0.1,1.5,0.1c1.1-1.4,1.1-1.4,1-3c-2,1.8-4,0.5-6.1,0.4c-0.6,0.4-1.2,0.8-1.7,1.3c-0.2-0.2-0.4-0.5-0.7-0.7   c0.2-0.5,0.5-0.9,0.7-1.4c2-1,6,0.3,6.5-2.1c0.2,0,0.5,0.1,0.7,0l0,0c2.6,3.3,5.6,1.9,8-0.2c4.5,6.7,0.2,10,0.5,15.9   c-3.5,4.3-4.4,10.6-8.1,14.8c0,20.3-10.4,40.5-2.4,60.3c-3.4,8.1-2.3,16.3-0.2,24.7c-9.2,12.5-0.8,31.8-7.4,45   c-5.3,12.1-7,23.2,0.2,34.8c0,0.9-0.1,1.7-0.1,2.6c-0.3,0.1-0.7,0.2-1,0.3c-3,8.6,0,17.2,3.8,24.8c2.9,0.6,3.5,1.5,3.4,4.8   c-0.5-0.2-1.1-0.3-1.7-0.5c-0.1,0.8-0.1,1.6-0.1,2.4c20.1,22.9,50.5-12.2,41.2-35.1c0.3-0.3,0.5-0.6,0.8-0.8   c9.7,15.6-0.9,34.2-14.7,43.1c0.3,0.2,0.6,0.4,1.3,0.7c-10.2,3.9-21.7,2.1-29.5-5.9c-1,8.4-0.7,18.2,2.1,26.6   C380.9,272.7,387,279.8,383.1,285.3z M363.8,34.8L363.8,34.8c-16-1.1-24.3,23-18.4,35.7c4.4,9.6,20.9,20.6,31,13.9   c-1.3-13.8,7-28.4,4.9-41.5c-0.9,0.7-1.7,1.3-2.5,1.9c0-0.3,0-0.5-0.1-0.8c5.5-9.8,13-20.5,13.1-31.9c-0.8,0.5-1.6,1-2.3,1.5   c-1.3,0-2.6,0-3.7,0c-6,7.3-6.6,18.5-14.9,24c-0.5-1.3,0.9-2,0.6-3.3C369,34.4,365.9,33.5,363.8,34.8z" />
	<path display="inline" fill="#FBDFD3" d="M436.9,157.9l0,0.3c-2.4,8.2-1.5,18.6-5.3,27c-1.8,9-11.2,3.5-16.8,3   c-3.5-3.3-7.8-5.9-10.5-9.9c1.5-2.1,0.8-6.1,0.3-8.8c0.2-5.4,1.4-10.7,2-16.4c2.1-1.9,2.8-5.2,4.5-7.5c1,0,1.9,0,3,0   c1-1.9,2.1-3.1,4.2-4c0.1-0.4,0.2-1,0.3-1.6c5.4-1.2,10.8,1.6,16.1-0.4c1.1,3.3-0.1,6.8,2.2,9.5c0.5,1.2,0.3,2.3-0.3,3.2   c-4.5,1.4-8.5,4.3-6.7,9.4c1-0.6,0.6-1.4,0.7-2C431.2,157.1,435,158.8,436.9,157.9z M432.6,177.4c-0.6-3.1-8.7,0.3-11.5-0.6   c-0.2,0.5-0.3,0.9-0.4,1.2c1,1.9,3.4,0.3,4.9,1.7c-0.5,0.4-1,0.9-1.4,1.5c0,0.3,0,0.7,0,1.2c2.1,1.4,4.2,0.2,6.5,0   c-0.1-2-0.2-2.8-2.2-2.7c0.3-0.4,0.6-0.8,0.8-1.2C430.4,178.1,432.2,178.8,432.6,177.4z M417.1,154c0.5,0.3,0.9,0.5,1.4,0.8   c-0.2,0.4-0.4,0.8-0.6,1.2c-1.2,0.6-3.1-0.4-4,1.7c2.9,0.8,5.7,0.6,8.3,0.4c0.8-0.8,1.5-1.4,2.1-2.1c0.5-0.1,1-0.1,1.7-0.2   c-0.4-1-0.7-1.7-0.9-2.3c-2.3-1.7-13.4-1.7-12.3,1.7C414.1,154.9,415.6,154.5,417.1,154z M426.3,171.6c2-0.4,7.1,0.2,4.9-2.4   C429.1,168.9,426.6,169,426.3,171.6z" />
	<path display="inline" fill="#010101" d="M437,149.1c-2.3-2.7-1.1-6.2-2.2-9.5c-5.6,2.5-12.3-2.1-17.5,1.3c-0.8-2.1-3-2.2-4.6-3.3   c-0.4,0.4-0.8,0.7-1,1c1.1,2.2,2.8,0.4,4.2,4.3c-0.6,0.9-1.1,1.7-1.7,2.6c-1.1,0-2,0-3,0c-1.8,2.4-2.4,5.7-4.5,7.5   c-1.5,8.3-1.8,15.6-1.7,23.7c-0.6,0.3-0.7,0.9-0.6,1.5l0,0c-4.9-11.5,1.4-25.2-0.7-37.5c0.3-5.6-3.9-10.8-2.2-16.2   c1-4.4,1.6-9.3,1.2-13.6c-1.3-1.2-0.9-2.6-0.7-4c1.8-12.2,1.6-24.8-1.3-36.8c-2.2-8.6-6.6-17.8-4.8-26.8c0.3,0,0.5,0,0.8,0   c9.8,27.5,9.2,56.6,7.2,85.3c1.9-1,3.5-2.1,4.8-3.9c0.8,0.9,1.3,1.6,2,2.4c0.6-0.7,1.2-1.4,1.9-2.3c4.3-0.3,8.8,0.5,13.1,0.1   c2.4-1,5.7-2,8-0.1c0.9-0.8,1.8-1.6,2.8-2.4c2,0.9,0.8,3.4,1.1,5.3c2.9-2.1,6.7-1.2,3.2,2.1c0.8,0.1,1.6,0.2,2.6,0.4   c0,1.2,0,2.5,0,3.7c-1.9,2.1-4.9,2.5-6.4,5.3c0.3,3,0.6,6.1,0.9,9.3C437.4,148.6,437.2,148.8,437,149.1z M427.7,138.5   c-2.5-2.4-5-2.6-8.3-3.4C421.8,137.4,424.3,137.5,427.7,138.5z M408.1,135.1c-2.9,2.7-2.9,2.7-2.5,4.2c1.4-1,2.4-2.1,3.4-3.3   C408.8,135.4,408.7,135.5,408.1,135.1z M409.1,143.3c-1.3,1.6-1.3,1.6-1.1,3.9C410.1,144.9,410.1,144.9,409.1,143.3z M440.9,131.4   c-0.8,0-1.6,0.1-2.3,0.1c-0.3,1.1-0.6,2,0.4,2.5C440.3,133.6,440.6,132.6,440.9,131.4z M422.4,128.8c-2.8-0.2-3.3,0.1-2.8,2.3   C420.8,130.6,421.9,130.1,422.4,128.8z M434.5,125.9c-1.2,0.6-1.4,1.4-0.6,2.8c0.6-0.6,1.1-1,1.7-1.6   C435.1,126.6,434.9,126.2,434.5,125.9z M407.8,129.1c-1.2,0.9-1.8,1.4-2.6,2.1C407.1,131.1,407.1,131.1,407.8,129.1z M432.1,137.8   c-0.3,0.2-0.5,0.3-0.6,0.4c0.2,0.4,0.4,0.7,1,0.5C432.4,138.4,432.3,138.1,432.1,137.8z" />
	<path display="inline" fill="#040304" d="M373.1,381.2c0-1.1,0.1-2.2-0.8-3c-0.2-16.5-4.9-37.7,9.4-49.2c0.5-1.3,0.9-2.8,1.5-4.3   c0.8-0.5,1.6-0.9,2.4-1.4c0.5-6.7-0.7-13.4,0.3-20.3c1.5-0.8-0.2-2.8,1.3-3.5c2,8.8-1.2,17.7,1.3,26.3c9.7,6.8,41.2,8.1,51,1.7   c2.5-8.8,0.9-18.4,3.9-26.6c2.2,10.6-0.9,21.9,0,32.7c-0.5,0.1-1,0.4-1.5,0.6c-0.2-0.2-0.4-0.4-0.5-0.6c1.1-0.9,0.5-2.1,0.5-3.1   c-0.9,0.1-1.6,0.2-2.6,0.4c-0.2,1.4,0.3,3.1-0.9,4.1c0,0,0.1-0.1,0.1-0.1c-0.1-1.1-0.1-2.2-0.2-3.3c-0.6-0.1-0.9-0.1-1.2-0.1   c-0.3,0.2-0.5,0.4-0.8,0.5l0.1,0.2c-6.2,0-12,0.5-18.2,1.2c-0.2,0.9-0.4,1.7-0.7,3c-0.3-1.3-0.4-2.1-0.5-2.9   c-1.6,0.2-3-0.5-4.6,0.4c-0.1,0.7-0.2,1.4-0.5,2.8c-0.2-1.6-0.3-2.3-0.4-3.1c-1.3-1-2.1-1-3.4,0l-0.1-0.1c-2.8-0.2-5.6-0.8-8.5-0.8   c-1.1-1-0.4,1.5-1.7,1.2c-0.3-0.7-0.6-1.5-0.8-2.1c-1.8-0.7-3.3-1.2-4.9-1.8c-0.3,0.7-0.5,1.2-0.8,1.9c-0.2-1.7,0-3.4-2.3-3.6   c-0.1,0.9-0.2,1.8-0.4,3.3c-0.3-1.6-0.4-2.6-0.6-3.5c-0.5-0.1-0.9-0.1-1.2-0.2c0.1-1,0.2-1.9-0.5-2.9c-1.1,1.6-1.1,1.6,0.5,2.9   c0,0.8-0.1,1.6-0.1,2.2c-0.8,0.3-1.4,0.5-2,0.7c-0.5-0.8,0.1-2-0.8-3c-0.5,1.1-1,2-1.4,2.8c-1,0.4-0.6,1.4-0.7,2.1   C367.5,342.4,377.3,367,373.1,381.2z" />
	<path display="inline" fill="#030202" d="M407.2,181.7c6.8,5.1,11.6,11.2,16.7,18.1c0.6-3.6,1.4-6.3,1.7-9.5c0.7,0,1.4-0.1,2.1-0.1   c-0.7,3.5-0.7,7.1-2.8,10.3c8.9,10.3,23.2,18.7,24.9,33.2c1,6.7,3.5,16.7-2.9,21.1c1.1-16.3,3.6-24.4-9.3-37.8   c-0.8,0.4-1.3,0.8-1.8,1c-7.7-3.4-9.4-12.3-15.2-18.1c0,1.2,0,1.8,0,2.3c-0.3,0.3-0.5,0.6-0.8,0.8c-1.5-8.3-8.9-13.8-13.5-20.6   C406.6,182.3,406.9,182,407.2,181.7z M429.8,208c-0.9-1.3-0.9-1.3-2.3-1.7c0.6,0.7,1.1,1.1,1.5,1.6c0.6,2.8,3.2,7.9,6.5,6.9   C434.6,212,431.6,210.3,429.8,208z" />
	<path display="inline" fill="#0E0A0A" d="M372.3,12.8c3.3-3.8,4.9-10.5,10.5-10.4c5.5-4.2,10.3,4.6,16.9,3.9   c2.7,10.2,4.5,21-3.1,29.3c-2.6-1.6,0.7-5.3,1.9-6.9c4.2-5.4,0.3-14.6,0.5-21c-3.4-1.5-6.9-1.2-10.4-2.2c-1.5,1.1-2.8,2.1-4.1,3.1   c-0.3,0-0.6-0.1-0.8-0.1c0,0,0,0,0,0c0.5-0.9,0.9-1.7,1.3-2.6c-1.6-0.6-3-1.1-4.4-1.7c-0.9,0.8-2.1,1.3-1.8,3   c1.6-0.4,2.9-1.1,4.3-0.2c-1.8,2.1-5.3,0.6-6.6,2.9c-0.9,0.5-1.4,1.1-1.4,2.2l0,0c-1.1,0.3-1.7,1.2-2.1,2.2   c-0.3-0.1-0.5-0.5-0.8-0.7C372.3,13.3,372.3,13.1,372.3,12.8z M387,4.9c0.4-0.4,0.7-0.7,0.9-1c-1.2-1.3-2.5-1.1-4.5-0.7   C384.9,3.9,385.9,4.4,387,4.9z" />
	<path display="inline" fill="#161414" d="M361.1,579.8c-0.5,0-1,0-1.5,0c-0.2-0.3-0.3-0.6-0.5-1.1c5.4-8,4.4-19.4,10.8-26.3   c0.6,0.1,1.4,0.2,2.3,0.3c0.7-1.5,0.2-3.2,0.3-4.8c1.2,1.5,0.5,3.2,0.7,5.2c-0.4,0.3-0.9,0.8-1.4,1.2c-0.6-0.1-1.1-0.1-1.8-0.2   c-4.6,7.8-2.4,18.1-9.4,24.7C360.6,579,360.8,579.4,361.1,579.8z" />
	<path display="inline" fill="#171615" d="M427.7,191c0-0.3,0-0.5,0-0.8c7.5-5.1,5.6-16.3,8.1-24.1c1.1-2.3-0.8-6.3,1.1-7.9   c2.8,9.8-1.5,19.9-4.5,29.2C431.5,190.3,431,190.7,427.7,191z" />
	<path display="inline" fill="#0E0E0F" d="M446.9,254.8c0.5-0.2,0.9-0.5,1.4-0.7c1.3,3.5,4.6,18.1,2.1,24.1c-0.2,0-0.5,0-0.7,0   C448.1,270.5,449.6,262.2,446.9,254.8z" />
	<path display="inline" fill="#151415" d="M444.1,304.7c0.1-2.2-0.4-4.2-2.1-5.8c1.6-5.6,2.9-11.5,6.3-16.4c0.8,0.2,0.6,1,0.8,1.6   C446.2,290.7,444.9,297.5,444.1,304.7z" />
	<path display="inline" fill="#222431" d="M451.8,370.5c-1.1,1.7-0.6,3.8-0.7,5.7c-2.2-8.6,0.6-18.2-1.3-27.1   c0.7-1.1,0.7-2.4,0.7-3.7C452.2,353.6,451.6,362.2,451.8,370.5z" />
	<path display="inline" fill="#1B1514" d="M437,149.1c0.2-0.2,0.4-0.5,0.7-0.7c2.6,2.5-0.5,6.4-0.7,9.5c-1.6,0.4-3.3,0.5-5,0.4   c-4.2-2.9,2.3-4.8,4.7-6C437.3,151.3,437.5,150.2,437,149.1z M433.2,155.7c0,0.2,0,0.4,0,0.5c0.9-0.1,3.4,0.5,2.6-1.1   C434.9,155.3,434.1,155.5,433.2,155.7z" />
	<path display="inline" fill="#1C1D1E" d="M387.2,299.5c-1.5,0.8,0.2,2.8-1.3,3.5c0.3-6.2-0.9-11.9-2.8-17.8c1.2-1,1.3-2.4,1.5-3.7   C384.7,287.6,387.5,293.3,387.2,299.5z" />
	<path display="inline" fill="#17151C" d="M450.5,345.5c0,1.3,0,2.6-0.7,3.7c-1.3-4.8-1.8-10.7-6.5-13.5c0-0.5,0.1-1.1,0.1-1.6   l0.2,0.1l0.2-0.1C448.2,336.1,449.7,340.9,450.5,345.5z" />
	<path display="inline" fill="#3B3837" d="M395.6,34c0.1,0.7,0.1,1.5,1,1.7c0,2.5,0,5.1-0.1,7.6c-0.3,0-0.5,0-0.8,0   c-0.2-3.1-0.5-6.1-0.7-9.2C395.3,34.1,395.4,34,395.6,34z" />
	<path display="inline" fill="#111111" d="M372.3,13.6c0.2,0.2,0.4,0.4,0.6,0.7c0,0.2,0,0.4,0,0.6c-1,1.1-0.5,2.1,0.1,3.1   c0,0,0,0,0,0c0.2,0.5,0.4,1,0.7,1.5c0,0,0,0,0,0c0.1,0.9,0.2,1.8,0.3,2.7c-0.5,0.1-0.9,0.1-1.4-0.1c-0.4-2.8-1.4-5.3-0.7-8.2   C372,13.7,372.2,13.7,372.3,13.6z" />
	<path display="inline" fill="#47494A" d="M449.1,284.1c-0.2-0.5,0-1.3-0.8-1.6c0.3-1.5,1.6-2.7,1.4-4.3c0.2,0,0.4,0,0.7,0   C450.5,280.3,450,282.2,449.1,284.1z" />
	<path display="inline" fill="#0F0D0E" d="M434.1,542.3c0.3-0.8,0.5-1.6,0.8-2.4c0.8,1,1.5,2,2.3,2.9c-0.4,0.1-0.8,0.1-1.3,0.2   C435.3,542.7,434.7,542.5,434.1,542.3z" />
	<path display="inline" fill="#D9B8AB" d="M371.6,15c0,1.2,0,2.3,0,3.5C370.5,17.3,370.6,16.2,371.6,15z" />
	<path display="inline" fill="#E4E4EB" d="M441.9,546.4c-0.2-0.2-0.4-0.4-0.6-0.7C441.5,546,441.7,546.2,441.9,546.4z" />
	<path display="inline" fill="#D9B8AB" d="M371.6,18.6c0.1,0.2,0.3,0.4,0.4,0.6C371.9,19,371.8,18.8,371.6,18.6z" />
	<path display="inline" fill="#E4E4EB" d="M442.6,547.1c-0.2-0.2-0.4-0.5-0.7-0.7C442.2,546.7,442.4,546.9,442.6,547.1z" />
	<path display="inline" fill="#E4E4EB" d="M443.3,547.7c-0.2-0.2-0.4-0.3-0.7-0.5C442.9,547.3,443.1,547.5,443.3,547.7z" />
	<path display="inline" fill="#D9B8AB" d="M372.3,13.6c-0.2,0.1-0.4,0.1-0.6,0.2c0.2-0.3,0.4-0.6,0.5-0.9   C372.3,13.1,372.3,13.3,372.3,13.6z" />
	<path display="inline" fill="#5876E8" d="M443.7,334.1l-0.2,0.1l-0.2-0.1c0-0.2,0-0.3-0.1-0.5l0.1,0   C443.5,333.8,443.6,334,443.7,334.1z" />
	<path display="inline" fill="#D9B8AB" d="M372.5,21.9c0.2,0,0.4,0.1,0.6,0.1c0,0.2-0.1,0.4-0.1,0.7   C372.8,22.5,372.6,22.2,372.5,21.9z" />
	<path display="inline" fill="#5876E8" d="M443.3,335.7c11.5,9.9,4.8,27.7,7.8,40.5c0.2,4.3,0.2,8.5-0.6,12.7   c-4.3,3.5-8,7.6-12,11.4c-1.4-1.5-0.8-3.8-0.5-5.8c2.1,0.2,9-11.9,6.8-12.5c-2.4,1.8-3.5,4.9-6.1,6.7c-3.1-5.3-1.2-11.4-2.9-17.1   c-0.4,21.6-7.9,42.1-9.3,63.3c-8.9,4.7-21.3,10.1-31.4,5.7c-0.8-2-0.8-4.1-0.7-6.3c3.1,1.3,5.7,4.1,9.2,4c-1.6-1-2.9-1.8-4.2-2.6   c-2.4-19.6-10-38.9-7-58.8c2.8,3.6,2.1,8.9,5,12c0.4-0.3,0.8-0.7,1-0.9c-1-15.4-2.9-30.2,2.4-45.1c2,9.5,1.4,20.6,4,30.4   c0.5-0.1,1-0.1,1.7-0.2c-0.7-11.2,0.7-22.3,0-33.6c1.3,0,2.7,0,4,0c0.4,3.7-0.8,7.2-1.1,10.9c2.7-3.3,2.1-7,2.2-10.8   c1.1-0.1,2.2-0.2,3.3-0.3c1.5-1.4,0.5-3.8,0.8-5.7c0.3,0,0.7,0,1.2,0c0.2,0.8,0.3,1.6,0.5,2.9c0.3-1.3,0.5-2,0.7-3   c5.4-0.9,10.3-0.5,15.9-0.7c-0.6,1.1-1.1,1.8-1.5,2.7c-2.3,1.3-5.1,1.1-7.5,2.3c0.9,4-1.1,8.8,0.6,13.1c0.7,2.7-1.1,5.9,1.5,8.1   c-0.5-7.1,0.9-13.4,0.5-20.1c2-1,3.8-2,6-1.5c1.3-1.3,3-2.4,4.9-2.4l-0.1,0.1c-2.8,4.4-3.1,12.2,1,16.4c0-3.8-1.2-7,0.3-10.4   c0.9,3.1,2.7,15.5,5.7,15.6c0.5-3.9-1.2-7.8-1.2-11.8c2.5-1.8-0.9-6.5-2.2-8.5c0-0.5,0-0.9,0-1.4l0,0   C442.3,335.2,442.8,335.5,443.3,335.7z M420.4,396c1.1,1.2,1.6,6.2,3.5,5.2c-1.2-2.3-2.3-4.8-3.6-7c-0.1,0.1-0.3,0.1-0.4,0.2   C420,394.9,420.2,395.5,420.4,396z M420.6,413.1c-0.1-1.5-0.8-2.8-2-4.2c0.9,7.1,3.6,13.5,5.1,20.6c0.3,0.9,0.4,2.1,1.8,2.6   C423.8,425.6,422.2,419.4,420.6,413.1z M438.6,379.5c2.8-3.9,10-13.4,6.9-18C445.9,368.9,439.8,373.3,438.6,379.5z M433.7,348.7   c0.5-0.9,1-1.3,0.9-1.6c-0.8-2.6-0.1-5.1-0.8-7.7C431.2,341.4,433.9,345.1,433.7,348.7z M434.6,356.6c-1.8,1.5-1.5,5.8,0,7.1   C434.9,361.1,434.9,358.9,434.6,356.6z M420.7,348.6c1.6-1.6,1.5-2.7,1-4.2C420.3,345.5,420.8,346.8,420.7,348.6z M423.7,380.2   c0.4,1.2,0.4,2.7,2.2,3.1C425.8,381.6,425,380.7,423.7,380.2z M423.5,347.6c-0.2,0-0.4,0-0.6-0.1c0,0.9,0,1.8,0,3.4   C423.6,349.2,423.5,349.1,423.5,347.6z" />
	<path display="inline" fill="#4B65C5" d="M397.2,361.3c-0.8,1.1-1.1,2.5-0.6,3.7c1.6,7.6,0.8,15.2,1.7,23c-0.2,0.2-0.6,0.5-1,0.9   c-2.9-3-2.2-8.4-5-12c-3,20,4.6,39.2,7,58.8c-0.7-0.4-1.5-0.9-2.2-1.3c0.2-0.2,0.5-0.4,0.4-0.4c-2.2-2.8-1.8-5.4-3.9-8.5   c0,2.8,0,4.7,0,6.7c-1.9-1.2-3.7-2.4-5.6-3.6c-0.9-3.2,0.7-6.9-0.8-9.9l0,0c-0.2-4.5,0.5-9-0.5-13.3c0.5,0,0.8-0.1,1.1-0.1   c0.9,0.9,1.9,1.6,3.5,1.1c-1.9-1.2-3.3-2.1-5-3.3c0.9-21.4,2.6-42.8,6.3-63.9c-7,20.3-4.5,42.1-7.9,63c-2.4-0.1-3.5-2.6-6.1-2.4   c1.9,1.9,4.1,2.8,6.1,4.1c2.2,7,2.7,15.9,1,22.7c-3.9-3.8-7.7-7.7-10.7-12.4c-0.2-0.4-0.6-1.1-1.5-0.4c3.2,4.9,6.5,10.2,11.6,13.4   c1.1,0.7,1.2,1.8,1.2,3c0,0.7-0.4,1.7,0.7,2c1.1-0.2,0.5-1.5,1.4-2c1.8,1.4,3.8,2.8,5.7,4.3c-0.1,2.1-0.1,4.3,0.7,6.3   c-8.1-2.4-17.1-0.8-24.4-6c4.8-19.8-0.3-40.6,3.6-60.6c0.2-11.8-4.3-34.2,7.3-41.2c3.5,3.3,7.7,4,12.3,3.2   c-4.2-0.9-14.9-1.8-10.2-8.2c0.9,1,0.3,2.2,0.8,3c0.6-0.2,1.2-0.5,2-0.7c0-0.7,0.1-1.4,0.1-2.2l-0.1,0c0.3,0.1,0.7,0.1,1.2,0.2   c0.2,0.9,0.3,1.9,0.6,3.5c0.2-1.5,0.3-2.4,0.4-3.3c2.3,0.2,2.1,2,2.3,3.6c0.3-0.7,0.5-1.2,0.8-1.9c1.6,0.6,3.2,1.2,4.9,1.8   c0.3,0.6,0.5,1.4,0.8,2.1c1.3,0.3,0.6-2.2,1.7-1.2c0,1.5-0.3,3,0.7,4.3c-0.4,0.1-0.8,0.2-1.5,0.4   C404.7,337.3,392.9,354.9,397.2,361.3z M380.7,369c-0.2-4.9,2.2-10.1,2.2-14.5c-3.5,3.3-4.5,11.8-2.8,15.8   C380.5,370,380.9,369.6,380.7,369z M386.9,337.1c-2.5,2.2-3.8,4.9-4.4,8C384.1,342.8,387.6,340,386.9,337.1z" />
	<path display="inline" fill="#FBDFD3" d="M377.2,544.9c2.8-3.7-3.1-4.5,0.7-8.3c-0.4-0.5-0.9-1-0.8-1c-1.2-2.3,0-3.5,0.9-4.8   c-0.5-0.5-0.9-1-1.3-1.4c-0.7-25-2.6-52.2,10.1-74.5c0.8,1.4,1.3,2.1,2.2,3.3c1.5-1.1,1-2.7,1.8-3.6c-0.6-3.1-1.2-5.9-1.9-8.7   c8.3-1.5,16.3-0.2,24.4-3c-3.7,9.5-5.9,19.6-9.9,29.5c-2.1,4.4-6.4,8.1-5.3,13.4c1.2-3.1,1.6-3.8,3.1-7.2   c-2.4,25-13.6,47.5-11.4,73.1c-3.2,1-5.1,3.6-7.5,5.9c-1.5-0.3-3-0.4-4.3-1.3C377.1,552.7,376.4,548.6,377.2,544.9z M395.7,454.9   c-0.2,0.3-0.4,0.6-0.6,0.9l0,0.3c-0.3,1.6-2.3,1.5-2.9,3c-0.5,2.5,0.6,5.3,1.4,7.8l0,0c-0.5,0.2-0.7,0.4-0.1,0.7   c0.5,0.9,1,1.9,1.6,2.8c-0.4,1.8,0.3,6.4,2.7,5.5c-0.2-0.8-0.4-1.7-0.6-2.6c3.6-3.3,2.7-8.8,2.8-13.3c-0.5-0.1-0.9-0.1-1.2-0.1   c-1-1.2-3-2-3-3.7c0.4-0.4,0.8-0.7,1.3-1.3C396.4,455,396.1,454.9,395.7,454.9z M401.8,451.2c2.1-0.8,5.1-3.5,3.4-5.6   C403.8,447.4,402.4,449,401.8,451.2z M395.7,491.3c0.2,0.1,0.4,0.1,0.6,0.2c0.4-0.8,1-2.5-0.6-2.1   C395.7,490,395.7,490.6,395.7,491.3z M390.8,462c-0.7,0.6-0.8,0.8-0.2,1.4C391.4,463,391.4,462.8,390.8,462z M394,496.8   c0.4-0.6,0.9-0.8,0.4-1.4C393.5,495.7,393.6,495.9,394,496.8z M399.6,452.5c0.3,0.1,0.6,0.4,0.8,0   C400.1,452.2,399.9,452.1,399.6,452.5z" />
	<path display="inline" fill="#FBDFD3" d="M429.1,432.4c4.1-0.1,7.9-0.4,12.2-0.6c-0.7,2.7-2.7,4.8-2.9,7.7c0.6-0.1,1-0.1,1.5-0.2   c2.3,6.4-4.3,12.1-5.9,18.1c-1.7,25-8.6,49.3-9.6,74.5c-1.1,0.3-2.1,0.7-3.1,0.9c-0.7,1.8-1.3,3.6-1.9,5.3   c-2.4,0.6-4.6,0.5-6.5-0.9c2.1-18.1,1.8-35.9-2-53.9c-0.2-4.5-0.2-9.3,0.1-13.8c1.6-5.2-2.8-4.2,1.2-12.7c1.1-0.1,0.5-1.4,1.4-1.8   c1.6,3.3,4,5.7,7.1,7.6c1.2,2.6,0.9,5.6,2.8,7.7c-0.2-5.3,0.4-11-2.7-15.5c-0.1-2-1.8-3.6-2.6-5.4c2.1-4.5,1.9-4.6,1.2-8.7   c0.8-0.8,1.7-1.2,2.9-0.9c0.1,3.3,2.3,6,4.9,7.8c-1.5,0.5,0.1,2.3,0.7,0.8c0.6-0.9,1.1-0.2,1.2,0.2c0.4,1.9,1.5,3,3.2,4   c1.9-1.7,1.7-4.8,0.6-7c0.6-1.6,2.7-2.2,2.7-4.4c-1.9,0.1-2.8,1.8-4.1,2.8C428.4,441,429.2,436.4,429.1,432.4z M423,478.2   c1.6-2.3,1.5-4.1,0.8-6.7C422.3,473.8,422.6,475.6,423,478.2z M419.2,489.6c0.2,0.1,0.3,0.1,0.5,0.2c0.2-0.4,0.5-0.8,0.7-1.2   c-0.3-0.1-0.6-0.2-0.9-0.4C419.5,488.7,419.4,489.2,419.2,489.6z M421.5,480.6c0,1-0.1,1.6-0.1,2.6   C422.4,482.2,422.4,481.6,421.5,480.6z M417.4,496.1c-0.3,0.2-0.1,0.4,0,0.7C417.7,496.6,417.5,496.4,417.4,496.1z" />
	<path display="inline" fill="#E4E4EB" d="M363.8,574.8c2.5-7,2.5-14.2,6-20.7c0.7,0.1,1.3,0.2,1.8,0.2c-3.1,10.9,7.2,12.3,12.5,4.3   c2.2-4.2,7.7-5.4,12.4-5c0.6,2.3,0.1,4.3-0.1,6.7c-5,0.6-11.3,2.6-12.5,8.2c1.1-0.3,2.1-0.6,3.1-0.9c0.3,0.3,0.6,0.5,0.9,0.8   c-0.8,0.7-1.7,1.3-1.2,2.8c4.8,0.4,7.5-4.3,13.1-3.4c-2.9,1.7-7.8,2.2-6.9,6.4c3.1-0.8,5.1-2.9,8.4-3.8c0.5,0.8,0.9,1.4,1.3,2.1   c-5.7,3-5.7,3-6.8,5.4c2,2.2,5.8-2.3,8.2-3.2c0.5,0.4,1,0.8,1.5,1.2c-0.7,1.9-4.9,0.8-4,3.7c2,0,3.9-1.2,5.9-1.6   c3.5,3,7.4,5.9,11.2,8.3c0.8,2.5,0.4,4.5-0.9,6.3c-6.1,1.6-12.7,1.8-19,2.1c-3.4,0.4-4.9-3.2-8.1-3.7c-4.9-1.3-7.8-6.4-12-9.2   c-1.3,0.5-2.5,1-3.6,1.5c-3-2.2-6.4-3.5-9.8-4.5C364.3,577.5,363.7,576.3,363.8,574.8z" />
	<path display="inline" fill="#E4E4EB" d="M443.1,549.9c2.1,0.5,4,1.7,5.7,3.1l-0.1,0c-2,2.7-7.2,3-8,6.8c3.1,2.1,7.2-3,8.9-5.5   c3.5,6,10.3,2.4,8.4,11.2c-14.1,7.6-23.4,2.6-34.7-6.9c-7.3,1.9-15.2,2.4-20.5-3.8c2.1-6.7,0.7-13.2,3-19.7   c7.3,11.1,10.8,12.2,18-0.1c2.4-0.6,4.6-1.1,6.7-1.7c0.7,2.2,1.3,4.3,2,6.7c-3.6,2.3-9.9,3.4-10,8.6c1.7-0.5,2.9-1.6,4.5-1.2   c-0.9,1.2-2.4,2.3-1.4,4.3c1.3-0.8,2.6-1.5,3.9-2.3c0.3,0.3,0.6,0.6,0.9,0.9c-0.5,1-1.5,1.9-0.9,3.2c3.1,0.4,4.7-0.4,11-5.7   c0.9,0.7,2.3,0.9,2.6,2.4c-3.4,0.6-9.7,3.2-8.4,7.4c3.4-0.7,7.5-3.2,9.4-5.9C443.9,551,443.5,550.5,443.1,549.9z" />
	<path display="inline" fill="#EDC9BA" d="M400.8,444.9c-4-0.2-7.9,0.5-11.9,1c0.6,2.9,1.2,5.7,1.9,8.7c-0.7,0.9-0.2,2.6-1.8,3.6   c-0.9-1.2-1.4-1.9-2.2-3.3c-1.9,4.6-5.1,8.7-6.1,13.6c-2,1.5-5.2,7.1-3.7,9.4c0.3-0.1,0.6-0.3,0.9-0.4c-1.4,17.1-2.5,34.8-1.3,51.9   c0.4,0.4,0.8,0.8,1.3,1.4c-0.9,1.2-2,2.4-0.9,4.8c-0.1-0.1,0.4,0.4,0.8,1c-0.4,0.1-0.7,0.2-1.1,0.3c0.1,0.1,0.3,0.3,0.4,0.4   c-2.6,2.5,2.5,4.7,0,7c-0.1-0.7-0.2-1.3-0.4-2.4c-0.7,1-1.2,1.8-1.7,2.5c-1.5-8.8,1.3-20.1-3.4-27.6c-7.6-61.3,17.4-40.6,10.6-75.2   C388.8,440.9,394.8,443.3,400.8,444.9z M375.6,485.5c1.3-1.8,1.3-1.8,0.3-3.7C374.9,483,374.9,484.1,375.6,485.5z M375.2,489.2   c-1.3,1.2-1.3,1.2-0.2,2.3C375.1,490.7,375.2,490,375.2,489.2z M374.8,496.2c-1.6,0-1.1,1.4-0.2,2.1   C375.2,497.3,375.3,497,374.8,496.2z" />
	<path display="inline" fill="#5876E8" d="M449.8,395.3c-1.7,10.5,0.4,21.2-2.1,31.6c-4.1,2.1-8.1,3-12.6,2.3   c1.4-4.3,2.7-8.4,4.1-12.5c1-0.6,1.4-0.9,2.8-1.4c-1.1-0.7-1.5-1.1-1.9-1.4c0.4-2.4,1.9-4.5,1.8-7.5c-2.2,2.7-3.1,5.6-5.7,8.3   c0.8-4,1-6.4,0.9-10.1c3.9-4.7,8.1-9.5,12.8-13.3C449.8,392.7,449.8,394,449.8,395.3z" />
	<path display="inline" fill="#EDC9B9" d="M409.9,463.4c0.3,2.2,2.4,3.9,0.9,6.3c-1.8,13.5,3.2,26.6,3.4,40c-1.7,1.1-1.7,1.1-1,2.7   c0.4-0.3,0.7-0.5,1-0.8c0.5,8.7-1.3,17-1.4,25.7c-0.6-0.3-1.2-0.7-1.9-1.1c0.8-3.1,2.4-7,0.1-9.6c-0.3,2.1-0.6,3.9-1,5.7   c-0.2,0-0.4,0-0.6,0c-0.4-10.8,0.5-21.7-0.7-32.5C405.9,487.8,402.1,474.1,409.9,463.4z M412.2,518.5c0.6-1.3,0.6-1.3,0-2.5   C412.2,517,412.2,517.7,412.2,518.5z M412,522c-0.6,1.3-0.6,1.3,0,2.4C412,523.5,412,522.8,412,522z" />
	<path display="inline" fill="#CFCEDC" d="M404.2,541.3c0.3,4.5,0.1,8.9-1.3,13.4c5.4,6.2,13.3,5.8,20.5,3.8   c11.3,9.5,20.5,14.5,34.7,6.9c0.1-1.8,0.2-3.4,0.3-5c1.5,1.8,0.2,4.4,0.2,6.4c-6.6,6.2-17.6,8.9-25.1,3.4c-2-3.4-7.3-3.1-10.3-5.5   c-8.6-3.1-16.5,2.1-23.4-7.6C402,552,401.7,546.1,404.2,541.3z" />
	<path display="inline" fill="#CFCEDC" d="M363.8,574.8c-0.1,1.5,0.5,2.7,1.5,4c3.4,1,6.7,2.3,9.8,4.5c1.1-0.5,2.3-1,3.6-1.5   c4.2,2.8,7.1,8,12,9.2c3.2,0.5,4.7,4.1,8.1,3.7c6.3-0.3,12.9-0.5,19-2.1c-6.5,9.8-26.5,3.6-34.8-2c-6.3-6.4-16.5-5.5-22.5-11.8   C361.6,577.4,362.7,576.1,363.8,574.8z" />
	<path display="inline" fill="#4A64C3" d="M439.1,416.7c-1.3,4.1-2.7,8.2-4.1,12.5c1.2,0.1,2.4,0.2,3.5,0.3   c-2.9,1.3-6.5,0.3-9.8,0.6c0.1-6.3,2.2-11.4,3.2-17.5c-0.6,0.2-1,0.3-1.3,0.5c0.2-2.4-0.6-5,0.7-7.1c0.1,0.9,0.2,1.8,0.2,2.7   c0.5,0.1,0.9,0.1,1.2,0.1c0,0.6,0,1.1,0,2c1.6-2.3,2.9-4.2,4.3-6.2c0.1,3.7-0.1,6-0.9,10.1c2.6-2.7,3.5-5.6,5.7-8.3   c0,3-1.4,5.1-1.8,7.5c0.4,0.3,0.9,0.6,1.9,1.4c-0.8,0.3-1.1,0.4-1.4,0.6c-0.2-0.2-0.4-0.5-0.6-0.7c-5.1,2.4-5.6,2.8-7,5   C435.1,419,437.1,417.8,439.1,416.7z" />
	<path display="inline" fill="#ECC9B9" d="M419.2,440.9c0.7,4.1,0.9,4.3-1.2,8.7c0.8,1.7,2.5,3.3,2.6,5.4c-2.2,1.8,0,5.3-0.1,7.7   c-3.1-1.9-5.5-4.3-7.1-7.6c-0.9,0.4-0.4,1.7-1.4,1.8c-0.3-5.7,3-9.9,4.9-15.1C417.5,441.6,418.3,441.3,419.2,440.9z" />
	<path display="inline" fill="#EDCABA" d="M429.1,432.4c0.1,4-0.7,8.6,2.1,11.9c0,0.9-1.2,1.6-0.3,2.6c0.6-0.3,1.2-0.7,1.7-1   c1.1,2.2,1.3,5.3-0.6,7c-1.7-1-2.9-2.2-3.2-4c-0.1-0.4-0.6-1.2-1.2-0.2c-2.6-2.3-5.6-4.7-5.6-8.6   C427,437.7,428.3,438.1,429.1,432.4z" />
	<path display="inline" fill="#14162A" d="M437,404.6c-1.3,1.9-2.7,3.9-4.3,6.2c0-0.9,0-1.5,0-2l-0.1,0c4.2-7.9,11.1-13.9,17.8-19.8   c-0.2,2.1,0.6,4.5-0.7,6.3c0-1.3,0-2.6,0-4C445.1,395.1,440.8,400,437,404.6z" />
	<path display="inline" fill="#0F0D0E" d="M429.7,549.2c-1.3,0.7-2.5,1.5-3.9,2.3c-1-2,0.5-3.1,1.4-4.3c0.9-0.1,1.6-0.6,1.9-1.5   l-0.1,0c0.6,0,1.3,0.1,1.5-0.7l-0.1,0c0.8,0.1,1.7,0.2,2.2-0.7c1.3-0.1,2.7,0.2,3.7-0.7c0.4,0.4,0.8,0.8,1.3,1.2   C435.3,546.9,432,547,429.7,549.2z" />
	<path display="inline" fill="#131010" d="M449.7,554.2c-1.7,2.5-5.8,7.6-8.9,5.5c0.7-3.7,6-4.1,8-6.8   C449.7,552.9,449.7,553.6,449.7,554.2z" />
	<path display="inline" fill="#D9B9AB" d="M377.2,544.9c-0.8,3.7-0.1,7.8,0.8,11.5c-1.5-0.4-2.8-0.9-4.1-1.8   c0.7-0.5,1.2-0.8,1.8-1.2c0.5-3.3,0.5-3.3-0.9-3.8c0.1-1.2,0.3-2.4,0.4-3.5C375.9,545.7,376.6,545.3,377.2,544.9z" />
	<path display="inline" fill="#E9ECEC" d="M380.2,558.8c-1.7,3.7-8.8,3.2-6.7-1.6C375.7,557.7,377.9,558.2,380.2,558.8z" />
	<path display="inline" fill="#DCB9AB" d="M407.8,461.3c-0.2-2.1,0-4.2,1-6.1c0.5-1-0.2-2.5,1.1-3.1   C411,455.6,410.2,458.5,407.8,461.3z" />
	<path display="inline" fill="#A9B4B9" d="M387.9,568.3c-0.3-0.3-0.6-0.5-0.9-0.8c1.9-1.1,9.2-5.8,10-3   C393.6,564.7,391.1,567.4,387.9,568.3z" />
	<path display="inline" fill="#E8EEEE" d="M412.2,539.3c1.7,0.3,3.4,0.6,5.4,1c0,0.4-0.6,1.3-0.9,2c-2.6,0.3-4.3-0.8-5.5-2.9   C411.5,539.3,411.9,539.3,412.2,539.3z" />
	<path display="inline" fill="#212A50" d="M430.5,413.1c0.3-0.1,0.7-0.2,1.3-0.5c-0.8,2.9-0.7,5.7-2,8.3c0-1.1,0.1-2.1-0.7-2.9   C429.6,416.4,430.1,414.7,430.5,413.1z" />
	<path display="inline" fill="#B5BEC4" d="M429.7,549.2c1.6-1.5,3.7-2.2,5.8-2.9c0,0.3,0,0.5,0,0.8c-1.6,1-3.3,2-4.9,3   C430.3,549.8,430,549.5,429.7,549.2z" />
	<path display="inline" fill="#AEBEC5" d="M436.4,543.6c-1,0.9-2.4,0.6-3.7,0.7c0-0.2,0-0.5,0-0.7c0.5-0.5,1-0.9,1.4-1.4   c0.6,0.2,1.2,0.5,1.8,0.7C436.1,543.2,436.2,543.4,436.4,543.6z" />
	<path display="inline" fill="#625853" d="M399.2,483.2c-0.3,0.7-0.5,1.3-1,2.6c-0.5-1.9-0.6-3,0.4-3.9   C398.8,482.3,399,482.7,399.2,483.2z" />
	<path display="inline" fill="#8C989D" d="M435.5,547.1c0-0.3,0-0.5,0-0.8c0.7-0.5,1.4-1,2.2-1.6C439,546.2,436.4,546.6,435.5,547.1   z" />
	<path display="inline" fill="#778A8E" d="M429.1,545.7c-0.4,1.3-1.8,1.6-3,1.3C426.9,546.1,428,545.8,429.1,545.7z" />
	<path display="inline" fill="#9F8076" d="M409.3,532.2c0.2,0,0.4,0,0.6,0c0.1,0.9,0.2,1.8-0.3,2.7C409,534,409.2,533.1,409.3,532.2   z" />
	<path display="inline" fill="#6D7A7E" d="M432.7,543.6c0,0.2,0,0.5,0,0.7c-0.5,0.9-1.3,0.8-2.2,0.7   C430.9,544.1,431.9,544,432.7,543.6z" />
	<path display="inline" fill="#A1BDBD" d="M412.2,539.3c-0.3,0-0.7,0.1-1,0.1c-0.2-0.2-0.4-0.5-0.5-0.7   C411.4,538.4,411.8,538.7,412.2,539.3z" />
	<path display="inline" fill="#131010" d="M448.9,553c-0.4-0.3-0.8-0.6-1.2-0.9C448.3,552.1,448.9,552.2,448.9,553z" />
	<path display="inline" fill="#62787B" d="M430.6,545c-0.2,0.9-0.9,0.7-1.5,0.7C429.3,545,429.9,545,430.6,545z" />
	<path display="inline" fill="#FBDFD3" d="M395.1,34.2c-1.4,21.7,10,41.5,7.9,63.4c0.3,4.4-2.6,9.5-0.3,13.4   c0.3,0.3,0.2,1.1,0.2,1.7c0.5,6.4-3,12.6-1,18.8c5,15.5-0.3,32,0.9,48c11.4,10.2,22.1,24.5,17.9,40.6c-0.3,0.1-0.7,0.2-1.2,0.4   c-4.7-13.4-12.3-24.7-16.8-37.9c-2.8,3.3,0.3,6.4,0.3,9.9c-1.7,2.4,2,4.9,1.5,7.7c4.1,11.6,2.8,24.5,7,36.2   c-4.3,4.5-10.4,10.5-17,9.1c-6.3-8-8.9-17.8-12.7-27c11.9-24.1-15.3-12.1-2.9-47.1c1.7,0.4,3.2,0.8,4.8,0c1.1-5.6-3.2-9.9-3.7-15.2   c-0.3-9.6,1.6-18.5,1.1-28.3c2.4,1.4,4.2,3.2,6.9,2.9c1.5-7.1-3.5-10.7-5.4-16.9c0.6-0.1,0.9-0.2,1.2-0.3c4,5.2,3.2-2.5,2.3-5   c0-2.4-3.1-0.5-2-4.5c1.2-14.3-0.4-28.6,0.6-43c-1-8.7,4.1-17.2,2.1-25.6c1.7-3.5,3-7.1,4.9-10.5c0.9,0.7,1.9,1.3,3,2.1   C394.4,29.4,394.2,31.9,395.1,34.2z M405.6,234.8c-0.8,2.4-0.8,2.4,0,4.7c0.8-3.1,2-5.2,1.2-8.6   C405.4,231.9,405.8,233.3,405.6,234.8z M398.3,182.9c-1.1-2.7-1.3-5.7-3-8.6C393.4,176.7,395.2,184.1,398.3,182.9z M396.8,111.1   c-1.5,2.2-2.2,4-3.1,5.7C396.7,117.4,398,114.3,396.8,111.1z M393.2,42.1c0.6-2.2,1.1-4.3,0.2-6.4c-0.3,0-0.6,0-0.9,0   C392.1,37.9,391.8,40.1,393.2,42.1z M395.4,169.4c0.4-1.2,0.8-2.4-0.7-3.4C394.1,167.5,394.3,168.5,395.4,169.4z M405.1,223.3   c0.1,2-0.9,3,0.6,3.9C406.6,225.8,406.1,224.9,405.1,223.3z M386.4,92.3c-1.6,0.8-1.6,1,0,2.8C386.4,94,386.4,93.2,386.4,92.3z    M392.3,44.8c0,0.8,0.1,1.5,0.1,2.3C394,45.9,394,45.7,392.3,44.8z M386.2,99.2c-0.6,0.1-1,1.6-0.1,1.7   C386.3,100.2,386.8,99.7,386.2,99.2z M394.8,163.5c0.4-0.4-0.2-1-0.2-1.5c-0.3,0.1-0.5,0.2-0.8,0.3   C394.1,162.9,394.1,163.8,394.8,163.5z M386.1,104.2c-0.3,0.3-0.5,0.6-0.7,0.9C386,106.2,387.1,105.2,386.1,104.2z M393.3,54.4   c-0.5,1.3-0.6,1.4-0.1,2.3c0.2-0.1,0.3-0.1,0.5-0.2C393.6,56,393.5,55.5,393.3,54.4z M392.4,51.5c0.1,0,0.2,0,0.3,0   c0-0.3,0.1-0.7,0.1-1c-0.1,0-0.3,0-0.4,0C392.4,50.8,392.4,51.1,392.4,51.5z" />
	<path display="inline" fill="#CCD2E9" d="M449.7,278.2c-0.3,2.6-1.8,4.8-3,7.1c-1.8-4.4-1.5-7.9-6.3-10.5c-3.1,2.7-5.7,7.6-7.5,11   c0.5,0.2,1,0.4,1.7,0.7c0.4,1.6,0.8,3.3,1.2,4.9c0.5-0.1,0.9-0.1,1.6-0.2c8,10.4,3.5,24.5,2,36.5c-2.6,1.9-5.4,3.5-8.9,3.1   c-2.9-7.8-3.7-17.9-8.9-24.1c-0.9,3.1,0.4,5.8-1,8.6c1.5,5.4,3.1,10.8,4.9,16.1c-3.7-1.2-8.3-0.4-12.4-0.6   c-18.2-21.7-1.7-52.7-14.1-76.9c0.7-1.3,2.5-2.1,1.3-3.7c-1,0.9-1.5,1.4-2.6,2.5c-0.2-1.6-0.4-2.9-0.6-4.2   c3.5-0.7,6.5-1.3,10.1-2.3c-0.7-0.4-0.9-0.5-1.3-0.7c2.2-2.4,5.5-4.1,8.1-6.3c3.8,3,6.5,7.1,10.9,9.2c1.9-1.2,4.2,0,6.1-1   c0-0.6,0.1-1.2,0.1-1.7c-5.7-4.7-4.9-12.5-9.3-17.9c3.3-8,2.9-15.8-0.1-23.8c0.3-0.3,0.6-0.6,0.9-0.9c5.1,4.5,6,12.7,13.1,15.1   c0.5-0.3,1-0.6,1.8-1c8.2,8.4,13,19.9,9.5,31.5c-1.7,4,1,7.6,1.1,11.6C448.6,266.2,448.9,272.2,449.7,278.2z M436.9,221.5   c0.4-0.9-0.7-2.1-1.3-1.1C435.6,221.2,436.1,221.5,436.9,221.5c2.8,6.2,1.3,13,3.2,19.3c1.7-6.8,0.7-15.2-2.2-19.3   C437.6,221.5,437.2,221.5,436.9,221.5z M427.9,294.2c-0.4,2.2-0.6,2.1,0,4C428.8,296.9,429.2,295.9,427.9,294.2z M430.1,289.9   c1.2,0.2,1.2,0.2,1.7-2.3C430.5,287.9,430.4,289,430.1,289.9z M414.3,304.8c0.2,1.2,0.3,2.1,1.9,2.6   C415.7,306.2,415.8,305.1,414.3,304.8z M425.6,305.7c0-1.6,0-2.3,0-3.5C424.4,303.4,424.2,304.2,425.6,305.7z M418.7,313.3   c0.2,0,0.3,0,0.5,0c0-0.7-0.1-1.4-0.1-2c-0.2,0-0.3,0-0.5,0C418.6,311.9,418.6,312.6,418.7,313.3z M436,248   c-1.1-0.6-1.8,0.1-0.7,0.8C435.5,248.6,435.7,248.4,436,248z M437.9,245.3c0.5-0.7,0.7-1.2,0.2-1.8   C437.6,244.1,437.6,244.1,437.9,245.3z" />
	<path display="inline" fill="#B7BDD5" d="M400,252.6c-0.3,0.3-0.6,0.7-1,1.2c12.3,24.2-4.1,55.2,14.1,76.9c3.7,0.5,8.4-1,11.7,0.6   c-12.2-0.8-25.7,1.8-36.4-5.5c-2.5-8.7,0.7-17.6-1.3-26.3c0.9-5.7-2.9-10.8-2.2-16.3c-3.9-13.9-10-28.5-7.2-43   c5.1,5.1,12.3,8,19.4,8.2c0.2,1.3,0.4,2.6,0.6,4.2c0.6-0.7,1-1,1.3-1.4C399.2,251.8,399.1,252.6,400,252.6z M397.8,323.1   c1.1,1,2.7,0.4,4,1.2c0.2-1.2-0.1-2-1.1-1.6c-5.7-0.2-7.5-6.7-10.2-10.5C389.2,316.4,394.2,321.1,397.8,323.1z M398.3,255.9   c-1.2-0.7-1.3,0.2-1.6,0.8C397,258.2,398.1,256.6,398.3,255.9z M406.6,327.3c0-1.1-0.4-1.9-1.6-1.1   C405.6,326.6,406.1,326.9,406.6,327.3z" />
	<path display="inline" fill="#EECABA" d="M386.5,35.5c1.8,6.9-1.8,14-2.1,21c-0.3,11.1-0.7,22-0.1,33.1c-1,5.4,0.6,10.1-0.7,15.6   c-0.7,2.3,2.4,1.4,2.1,3.4c-0.6-0.3-1.2-0.5-1.7-0.8c-1.7,3.1-1,3.3-0.5,5.8c-0.3,0.1-0.7,0.2-1.2,0.3c1.9,6.2,6.9,9.8,5.4,16.9   c-2.7,0.3-4.5-1.6-6.9-2.9c0.5,9.8-1.4,18.7-1.1,28.3c0.6,5.4,4.8,9.7,3.7,15.2c-1.5,0.8-3.1,0.4-4.8,0   c-12.5,34.9,14.7,23,2.9,47.1c3.8,9.2,6.4,19,12.7,27c-3.3,0.3-6.3-0.9-9.3-2c-0.3-0.6,0.4-1.4-0.2-2.1c-0.4,0.5-0.8,0.9-1.1,1.3   c-1.8-1.3-3.6-2.7-5-4.5c0-0.8,0.1-1.6,0.1-2.4c0.6,0.2,1.2,0.4,1.7,0.5c0.1-3.3-0.5-4.2-3.4-4.8c-3.8-7.6-6.8-16.3-3.8-24.8   c1.9-0.8,3.5,0.2,5.2,1.2c0.4-1.8-0.4-2.6-1.8-2.9c0-1.3-0.4-2.4-1.5-3.3c-0.3,0.3-0.6,0.5-0.8,0.7c-0.2,0-0.5,0.1-0.7,0.1   c0,0,0,0,0,0c-6.6-10.7-4.3-22.5,0.5-33.4c6.6-13.2-1.9-32.5,7.4-45c-2.1-8.3-3.2-16.6,0.2-24.7c-8.1-19.8,2.4-39.9,2.4-60.3   C384.8,38,385.6,36.8,386.5,35.5z M382.8,238.3c0.4-1.4-0.3-1.5-0.9-1.8C381.1,237.8,382,237.9,382.8,238.3z" />
	<path display="inline" fill="#4C505E" d="M389.4,13.6c0.8-0.5,1.5-1,2.3-1.5c0,11.4-7.5,22.1-13.1,31.9c-0.7,0.3-0.7,0.9-0.6,1.5   c-1.3,0.8-2.5,1.6-3.6,2.2c-2.9-1-2.9-1-3-0.2c0.9,0.4,1.8,0.9,2.5,1.3c2.4-0.7,4.1,0.1,4.1-3.3c1-1,2.1-1.7,3.2-2.6   c1.1,0.5,1.1,1.5,0.9,2.4c-2.1,10.4-2.5,21.9-6.8,31.4c-27.5,0.8-32.6-26.5-11.5-41.9c0,0,0,0,0,0c2.3,0.3,4.1-0.9,6.4-0.6   c-2.7,5.4-3.9,11.5,4.3,8.2c5.1-8.5,9.4-16.8,10.9-26.4C386.2,14.2,388,14.6,389.4,13.6z" />
	<path display="inline" fill="#373A46" d="M351.8,49.8c-0.3,1.2-0.4,2.6-1.5,3.5c-0.4-0.2-0.8-0.3-1.2-0.5c-1.5,1.8-0.3,2.4,1.2,2.6   c0.3,13.4,11.7,23,25,21.3c0.3-0.4,0.8-0.9,1.2-1.4c0,3.1,0.2,6.1-0.2,9.1c-10.1,6.7-26.6-4.3-31-13.9   c-5.8-12.7,2.4-36.7,18.4-35.7c-2.5,2-4.9,4.2-6.4,7.1c-0.1-0.6-0.1-1.3-0.2-1.9c-3.4-1-7.3,1.7-5.9,5.2c1.9-0.7,2.9-2.3,4.7-2.6   c-1.2,1.9-2.3,3.8-3.5,5.7c0.1-1.3-1-1.7-2.1-1c0.1,0.8,0.1,1.5,0.2,2.2C351.1,49.7,351.4,49.7,351.8,49.8z M348.2,60.7   c0.5,0.1,0.8,0.2,1.4,0.4c0-0.7-0.1-1.2-0.2-2.5C348.7,59.7,348.5,60.1,348.2,60.7z" />
	<path display="inline" fill="#EECABA" d="M402.9,192.5c-0.1-3.5-3.1-6.6-0.3-9.9c4.4,13.1,12.1,24.5,16.8,37.9   c0.5-0.2,0.9-0.3,1.2-0.4c-1.2,6.2-4.5,11.9-9.2,16.3c-4-12.2-3.5-25.4-7.1-37.6c0.4,0.2,0.8,0.3,1.3,0.5c0.3-0.8,0.3-1.5-0.4-2.2   C404.7,195.4,404.6,193.6,402.9,192.5z M407.2,204.4c0.6,1.7-0.2,4.2,2.2,4.6c-0.7-1.6-0.5-3.3-1.5-4.6c0-1-0.5-1.8-1.2-2.6   C405.8,203.1,406.7,203.7,407.2,204.4z" />
	<path display="inline" fill="#F7DCD0" d="M395.1,34.2c-0.2-0.8-0.4-1.5-0.7-2.3c0.6,0.2,1.3,0.5,1.3-0.6c1.1-3-0.5-6.1-3.5-7.1   c-1.2-2.6,1.5-5,1.6-7.7c0.3-0.8,1.2-0.8,1.9-1.3c-0.5-0.1-0.8-0.2-1.2-0.3c-0.8-2.3-1.7-4.3-2.8-6.6c-2.2,1.7-4.5,3.7-7.3,1   c0.1-0.2,0.2-0.4,0.1-0.6c1.3-1,2.6-2,4.1-3.1c3.5,1,7,0.6,10.4,2.2c0.9,4.2,0.2,8.8,1.3,13.1c1.9,5.4-3.4,8.4-4.6,13.1   C395.4,34,395.3,34.1,395.1,34.2z" />
	<path display="inline" fill="#B7BDD5" d="M421.9,227.7c4.3,5.4,3.5,13.2,9.3,17.9c0,0.5-0.1,1.1-0.1,1.7c-2,1-4.2-0.2-6.1,1   c-4.4-2.1-7.2-6.3-10.9-9.2C417,235.6,419.7,231.8,421.9,227.7z" />
	<path display="inline" fill="#373A46" d="M389.4,13.6c-1.4,1-3.2,0.6-4,2.4c-1.5,9.6-5.8,18-10.9,26.4c-8.2,3.3-7-2.8-4.3-8.2   c0.4,0.1,0.9,0.1,1.2,0.2c0.3,1.3-1.1,2-0.6,3.3c8.3-5.5,8.8-16.8,14.9-24C386.8,13.6,388.1,13.6,389.4,13.6z" />
	<path display="inline" fill="#F0D7CC" d="M372.9,14.8c0-0.2,0-0.4,0-0.6c0.8,0.4,1.1,1.2,1.4,2.1c0.3-0.2,0.6-0.4,0.9-0.6   c0.7-1.7,1.3-3.3,3.1-4.2c2.1,0.1,4.1,1.4,6.1-0.4c0.1,1.6,0.1,1.6-1,3c-0.4,0-0.9-0.1-1.5-0.1c-0.4,1.5-2.1,2.5-1.8,4.5   c-0.7,0.3-0.7,0.8-0.7,1.4c-0.7,0.2-0.8,0.8-0.7,1.5l0,0c-0.8,0.2-0.8,0.8-0.7,1.5c0,0,0,0,0,0c-0.7,0-1.5,0-2.2-0.1   c-0.1-0.4-0.2-0.8-0.7-0.3c-0.2-0.2-0.5-0.3-0.7-0.5c0.1-1.1,0.1-2-0.9-2.7c0,0,0,0,0,0c0.2-0.7,0.2-1.3-0.7-1.5c0,0,0,0,0,0   C373,16.8,373,15.8,372.9,14.8z" />
	<path display="inline" fill="#44302E" d="M392.2,24.2c1.4,0.6,2.7,1.5,3.4,2.9c-0.8,1.4-0.8,2.8,0.1,4.1c0,1.1-0.7,0.8-1.3,0.6   c0-1.6,0-3.3,0-4.8c-1.1-0.8-2-1.4-3-2.1C391.7,24.7,391.9,24.5,392.2,24.2z" />
	<path display="inline" fill="#D4CABF" d="M376.5,10c1.2-2.1,4.5-1.4,6.5-1.4c-1.1,1.8-4.5,1.5-6.5,2.1   C376.6,10.5,376.6,10.2,376.5,10z" />
	<path display="inline" fill="#2B2725" d="M374.3,16.3c-0.1-0.4-0.3-0.8-0.4-1.2c0.4-1,0.9-2,1.3-2.9c0,0,0,0,0,0c0.2,0,0.5,0,0.7,0   c0.2,0.2,0.4,0.5,0.7,0.7c-0.5,1-0.9,1.9-1.4,2.9C374.9,15.9,374.6,16.1,374.3,16.3z" />
	<path display="inline" fill="#96A0B1" d="M422.7,203c-0.3,0.3-0.6,0.6-0.9,0.9c-0.4-0.5-0.8-1.1-1.2-1.6c0-0.6,0-1.1,0-2.3   C421.6,201.4,422.2,202.2,422.7,203z" />
	<path display="inline" fill="#3F1211" d="M393.7,12.8c0.3,0.7,0.5,1.5,0.8,2.2c0.4,0.1,0.7,0.2,1.2,0.3c-0.7,0.5-1.6,0.5-1.9,1.3   C393.7,15.3,393.7,14,393.7,12.8z" />
	<path display="inline" fill="#87756E" d="M383.1,8.6c-0.8-0.1-1.5-0.1-2.3-0.2c0.8-0.3,1.6-0.8,2.3-1.3c0.4,0,0.9,0.1,1.3,0.1   c-0.2,0.5-0.5,0.9-0.7,1.4C383.5,8.7,383.2,8.7,383.1,8.6z" />
	<path display="inline" fill="#9B8379" d="M376,206.5c-0.6,0-1.1,0-1.7-0.1c0-0.9,0.1-1.7,0.1-2.6l0.1-0.1c0.5,0.7,1,1.4,1.5,2.1   C375.9,206,376,206.2,376,206.5z" />
	<path display="inline" fill="#373A46" d="M367.4,34.2c-1,0.9-2.3,0.6-3.6,0.6C364.8,33.9,366.1,34.2,367.4,34.2z" />
	<path display="inline" fill="#2A100F" d="M383.7,242.7c0.3-0.4,0.6-0.8,1.1-1.3c0.7,0.7-0.1,1.5,0.2,2.1   C384.4,243.5,383.9,243.4,383.7,242.7z" />
	<path display="inline" fill="#D9B8AB" d="M373.6,19.3c1,0.7,0.9,1.6,0.9,2.7c-0.2,0-0.5,0.1-0.6,0   C373.8,21.1,373.7,20.2,373.6,19.3z" />
	<path display="inline" fill="#7E7771" d="M375.9,12.1c-0.2,0-0.5,0-0.7,0c0-1,0.5-1.7,1.4-2.2c0,0.3,0.1,0.5,0.1,0.8   C376.4,11.2,376.1,11.7,375.9,12.1z" />
	<path display="inline" fill="#D9B8AB" d="M375.9,22.8c0.7,0,1.4,0,2.2,0.1C377.4,23.9,377.1,23.9,375.9,22.8z" />
	<path display="inline" fill="#87756E" d="M380.8,9.9c0.7-0.2,1.4-0.5,2-0.7C382.5,10.4,381.6,10,380.8,9.9z" />
	<path display="inline" fill="#D9B8AB" d="M378.8,21.4c-0.1-0.6-0.1-1.2,0.7-1.5C379.2,20.4,379,20.9,378.8,21.4z" />
	<path display="inline" fill="#201F24" d="M378,45.5c0-0.6,0-1.2,0.6-1.5c0,0.3,0,0.5,0.1,0.8C378.5,45,378.2,45.3,378,45.5   C378,45.5,378,45.5,378,45.5z" />
	<path display="inline" fill="#D9B8AB" d="M379.4,19.9c-0.1-0.6,0-1.1,0.7-1.4C379.9,19,379.6,19.5,379.4,19.9z" />
	<path display="inline" fill="#9B8379" d="M373.7,202.4c0.2-0.1,0.5-0.1,0.7-0.1c0,0.5,0,1,0.1,1.5l-0.1,0.1   C373.6,203.6,373.7,203,373.7,202.4z" />
	<path display="inline" fill="#D9B8AB" d="M378.1,22.8c-0.1-0.6-0.1-1.2,0.7-1.5C378.5,21.9,378.3,22.4,378.1,22.8z" />
	<path display="inline" fill="#D9B8AB" d="M375.2,22.5c0.5-0.5,0.6-0.1,0.7,0.3C375.7,22.7,375.4,22.6,375.2,22.5z" />
	<path display="inline" fill="#9B8379" d="M373.2,201.5c0.2,0.3,0.3,0.5,0.5,0.8C373.5,202.1,373.4,201.8,373.2,201.5z" />
	<path display="inline" fill="#87756E" d="M384.5,8.7c0.1,0.2,0,0.4-0.1,0.6c-0.2-0.2-0.5-0.5-0.7-0.7   C383.9,8.6,384.2,8.7,384.5,8.7z" />
	<path display="inline" fill="#E3C0B1" d="M425.4,191.9c-0.5,2.5-1,4.9-1.6,7.9c-3.2-4.3-5.9-7.6-9.1-11.6c1.8-0.1,3.6,0.1,5.1,1.3   c-0.4,0-0.8,0-2,0C420.3,191.7,422.6,191.1,425.4,191.9z" />
	<path display="inline" fill="#3B3532" d="M424.1,156.1c-0.6,0.6-1.3,1.2-2.1,2.1c-2.6,0.2-5.4,0.3-8.3-0.4c1.7-2.8,5.7-0.7,7.4-2.9   C422.2,155.3,423.2,155.7,424.1,156.1z" />
	<path display="inline" fill="#231A19" d="M424.1,156.1c-2.5-1.9-6.6-0.1-7.8-3.4c2.8,0,5.7-0.7,8.6,1c0.2,0.5,0.5,1.3,0.9,2.3   C425.2,156,424.7,156,424.1,156.1z" />
	<path display="inline" fill="#1A1413" d="M430.5,180.4c0.1,0.6,0.1,1.1,0.2,1.8c-2.3,0.2-4.4,1.4-6.5,0c0-0.5,0-0.8,0-1.2   c0.4-0.6,0.9-1.1,1.4-1.5c0.9,0,1.9-0.1,2.8-0.1c0.2,0.1,0.4,0.2,0.6,0.1C429.5,179.9,430,180.2,430.5,180.4z" />
	<path display="inline" fill="#333636" d="M415.8,142.9c-1.3-3.8-3-2.1-4.2-4.3c0.3-0.3,0.6-0.6,1-1c1.6,1.1,3.8,1.2,4.6,3.3   c0.5-0.4,1-0.7,1.4-1c-0.1,0.6-0.2,1.1-0.3,1.6C417.4,142,416.6,142.5,415.8,142.9z" />
	<path display="inline" fill="#351F1D" d="M420.7,178c0.1-0.3,0.2-0.7,0.4-1.2c3.5,0.4,7.8-1.1,10.8,0.7   C428,176.9,424.5,179,420.7,178z" />
	<path display="inline" fill="#392D2A" d="M426.3,171.6c0.3-2.6,2.9-2.7,4.9-2.4C433.4,171.8,428.3,171.2,426.3,171.6z" />
	<path display="inline" fill="#463B38" d="M406.3,182.5c-1.2-1-2.3-2-3.6-3.1c0.1-1.1,0.2-2.3,0.2-3.4c1.1,2.1,2.6,4,4.3,5.6   C406.9,182,406.6,182.3,406.3,182.5z" />
	<path display="inline" fill="#271B19" d="M425.4,191.9c-2.9-0.8-5.1-0.2-7.6-2.4c3.1-0.1,4.7,1,7.7,0.8   C425.5,190.8,425.5,191.4,425.4,191.9z" />
	<path display="inline" fill="#CBBAAC" d="M420.7,178c2.7,0.9,5.5-0.2,8.3,0.1c0.1,0.1,0.2,0.2,0.3,0.3c-0.3,0.4-0.6,0.8-0.8,1.2   c-1.5,0.1-2.9,0.2-4.2-0.6C422.9,178.7,421.4,179.4,420.7,178z" />
	<path display="inline" fill="#5A504C" d="M416.4,152.7c0.2,0.4,0.5,0.9,0.7,1.3c-1.5,0.4-3,0.9-4.4,1.3   C411.3,154.4,415.4,152.4,416.4,152.7z" />
	<path display="inline" fill="#3A3734" d="M430.5,156.1c-0.3,1.3,1.1,1.3,1.5,2.1c-2,0.4-0.5,2.4-2,3.5   C429.8,159.7,429,157.9,430.5,156.1z" />
	<path display="inline" fill="#372522" d="M432,177.5c-1-1.1-2.5-0.7-3.9-0.8c1.3-0.6,4.5-1.4,4.5,0.7   C432.4,177.5,432.2,177.5,432,177.5z" />
	<path display="inline" fill="#CCCBC0" d="M418.4,154.8c0.9,0,1.8,0,2.7,0c-0.5,1.1-2.3,0.7-3.4,1.2   C418,155.6,418.2,155.2,418.4,154.8z" />
	<path display="inline" fill="#CBBAAC" d="M432,177.5c0.2,0,0.5,0,0.7-0.1c-0.5,1.4-2.3,0.7-3.4,0.9c-0.1-0.1-0.2-0.2-0.3-0.3   c0.1-0.2,0.2-0.3,0.4-0.5C430.2,177.5,431.1,177.5,432,177.5z" />
	<path display="inline" fill="#463B38" d="M404.3,178.2c-0.1-0.6-0.1-1.2,0.6-1.5C405,177.4,405.2,178,404.3,178.2z" />
	<path display="inline" fill="#CBBAAC" d="M430.5,180.4c-0.5-0.3-0.9-0.5-1.4-0.8C429.7,179.5,430.3,179.6,430.5,180.4z" />
	<path display="inline" fill="#CBBAAC" d="M424.8,180.3c-0.2,0.3-0.4,0.5-0.6,0.8C424.4,180.8,424.6,180.6,424.8,180.3z" />
	<path display="inline" fill="#232525" d="M427.7,138.5c-3.4-1-5.8-1-8.3-3.4C422.7,135.9,425.2,136.1,427.7,138.5z" />
	<path display="inline" fill="#2E2F2F" d="M408.1,135.1c0.5,0.5,0.7,0.4,0.9,1c-1,1.2-2,2.3-3.4,3.3   C405.2,137.8,405.2,137.8,408.1,135.1z" />
	<path display="inline" fill="#242525" d="M409.1,143.3c0.9,1.5,0.9,1.5-1.1,3.9C407.9,144.9,407.9,144.9,409.1,143.3z" />
	<path display="inline" fill="#2D2F2F" d="M440.9,131.4c-0.4,1.2-0.6,2.2-1.8,2.6c-1.1-0.5-0.7-1.4-0.4-2.5   C439.3,131.5,440.1,131.5,440.9,131.4z" />
	<path display="inline" fill="#292B2B" d="M422.4,128.8c-0.5,1.4-1.6,1.9-2.8,2.3C419.1,128.9,419.5,128.5,422.4,128.8z" />
	<path display="inline" fill="#222323" d="M434.5,125.9c0.3,0.4,0.6,0.7,1.1,1.2c-0.6,0.5-1.1,1-1.7,1.6   C433.1,127.3,433.4,126.5,434.5,125.9z" />
	<path display="inline" fill="#2B3030" d="M407.8,129.1c-0.8,2-0.8,2-2.6,2.1C406,130.5,406.6,130,407.8,129.1z" />
	<path display="inline" fill="#292E2E" d="M432.1,137.8c0.1,0.3,0.2,0.6,0.3,0.8c-0.5,0.2-0.7,0-1-0.5   C431.7,138.1,431.9,138,432.1,137.8z" />
	<path display="inline" fill="#B7BDD5" d="M442,303.9c-0.2-4.6-1.5-9.3-4.5-12.8c-0.7,0.1-1.2,0.2-1.6,0.2c-0.4-1.7-0.8-3.3-1.2-4.9   c-0.7-0.3-1.2-0.5-1.7-0.7c-0.3-0.6,0-0.9,0.5-1.1c1.5,2.3,7.9-8.1,7-9.9c4.8,2.7,4.5,6.1,6.3,10.5c-2.8,4-3.2,9.1-4.8,13.6   C444.2,300.4,442.9,302,442,303.9z" />
	<path display="inline" fill="#B7BDD4" d="M425.6,331.3c-0.5-1.4-1-2.8-1.4-4.2c0.4,0.2,0.7,0.4,1.1,0.7c0.9-4.2-1.3-10-4.6-12.6   c1.4-2.8,0.1-5.5,1-8.6c5.2,6.2,6,16.3,8.9,24.1C428.9,330.9,427.2,331.1,425.6,331.3z" />
	<path display="inline" fill="#4B65C5" d="M441.9,336.4c0.2,0.2,0.5,0.4,0.7,0.6c-1.6,1.8,0.4,4.6,1.8,6.5c0.2-0.6,0.3-1,0.4-1.4   c0.7,1.4,0.7,1.4-0.7,2.8c-0.1,3.9,1.6,7.9,1.2,11.8c-2.9,0-4.8-12.5-5.7-15.6c-1.3,2-0.3,4-0.6,6.1c-1.3-3.1-0.2-6.6-0.9-9.8   c-0.5-0.1-0.8-0.2-1.2-0.2c0.3-0.8,1.8-0.8,1.4-2c1.2-1,0.8-2.7,0.9-4.1c0.7-0.1,1.3-0.2,1.9-0.3c-0.9,1.5-2.6,2.4,0.2,3   C443,334.7,440.3,335.6,441.9,336.4z" />
	<path display="inline" fill="#4B65C6" d="M415.6,333.5c-0.3,1.9,0.7,4.3-0.8,5.7c-3.7-2.2-9.5-0.1-13.5-2.1c1.2-1.1,1-2.9,0.1-4.2   c1.7-0.2,3.3,0.1,4.9,0.6c0.1,1.4-0.2,2.5,0.8,3.6c0.9-1.3,0.5-2.5,0.6-3.6c0,0,0.1,0.1,0.1,0.1c0.3,0,0.7,0.1,1,0.1   c0.7,0.7,0,2.3,1.6,2.3c0.7-0.7-0.3-2,0.9-2.4c0.1,0.8,0.2,1.6,0.4,3.1c0.3-1.5,0.4-2.2,0.5-2.8   C413.3,333.1,414.5,333.7,415.6,333.5z M414.7,334.6c-0.1,0-0.2,0-0.2,0c0,0.7,0,1.4,0,2.2c0.1,0,0.2,0,0.2,0   C414.7,336.1,414.7,335.4,414.7,334.6z" />
	<path display="inline" fill="#181C36" d="M437.6,335c-1.6,0.4-3,1.2-4.1,2.4c-2.9-0.3-5.5,1.1-8.5,0.4c2.4-1.1,5.1-0.9,7.5-2.3   c0.5-0.8,0.9-1.6,1.5-2.7c-2.3,0-4.2,0-6.2,0c2.1-1.3,4.9-0.3,7.3-0.5c-0.8,1.6,1,2.6,1.3,0.6C437.2,333.3,437.7,334,437.6,335z" />
	<path display="inline" fill="#181D39" d="M382.2,330.7c1.4,4.4,7.8,4.4,11.7,5.3c-4.6,0.8-8.8,0.1-12.3-3.2   C381.6,332.1,381.2,331.2,382.2,330.7z" />
	<path display="inline" fill="#5473E2" d="M401.4,333c0.9,1.3,1.1,3.1-0.1,4.2c-0.4,0-0.9-0.1-1.3-0.1c-1-1.3-0.7-2.8-0.7-4.3   C400,332.9,400.7,332.9,401.4,333z" />
	<path display="inline" fill="#2E3E79" d="M411.3,333.6c-1.2,0.5-0.2,1.7-0.9,2.4c-1.6,0-0.8-1.6-1.6-2.3c-0.3,0-0.6-0.1-1-0.1   C409.2,332.7,410,332.7,411.3,333.6z" />
	<path display="inline" fill="#526FDB" d="M441.3,333.7c-2.8-0.7-1.1-1.5-0.2-3c0.2,0,0.5-0.1,0.7-0.1   C441.9,331.6,442.4,332.8,441.3,333.7z" />
	<path display="inline" fill="#151E3C" d="M407.8,333.6c-0.1,1.1,0.3,2.3-0.6,3.6c-1.1-1.1-0.8-2.2-0.8-3.6   C406.8,333.6,407.3,333.6,407.8,333.6z" />
	<path display="inline" fill="#32468A" d="M437.6,335c0.1-1-0.3-1.6-1.3-2c-0.1-0.3-0.1-0.6-0.2-0.9c0.3-0.2,0.5-0.4,0.8-0.5   c0.3,0,0.7,0.1,1.2,0.1c0.1,1.1,0.1,2.2,0.2,3.3C438.1,334.9,437.9,334.9,437.6,335z" />
	<path display="inline" fill="#36498E" d="M386.6,327.9c-1.6-1.3-1.6-1.3-0.5-2.9C386.7,326,386.6,327,386.6,327.9L386.6,327.9z" />
	<path display="inline" fill="#435FBB" d="M436.2,332.2c0.7,2.2-2.1,2.5-1.2,0.1C435.4,332.3,435.8,332.3,436.2,332.2z" />
	<path display="inline" fill="#526FDB" d="M441.9,335c0-0.2,0-0.5,0-0.7c0.5-0.2,0.9-0.4,1.4-0.6c0.2,0.7,0,1.4,0,2.1   C442.8,335.5,442.3,335.2,441.9,335z" />
	<path display="inline" fill="#181C36" d="M437,331.5c-0.3,0.2-0.5,0.4-0.8,0.5C436.4,331.9,436.7,331.7,437,331.5z" />
	<path display="inline" fill="#B3A29A" d="M430.5,208.7c1.6,2.1,4.3,3.6,5,6.2c-3.3,1-5.9-4.1-6.5-6.9c0.3,0,0.6,0,0.8,0   C430,208.3,430.3,208.5,430.5,208.7z" />
	<path display="inline" fill="#5B5550" d="M429.8,208c-0.3,0-0.6,0-0.8,0c-0.4-0.5-0.9-0.9-1.5-1.6   C428.9,206.7,428.9,206.7,429.8,208z" />
	<path display="inline" fill="#5B5550" d="M430.5,208.7c-0.2-0.2-0.5-0.5-0.7-0.7C430,208.3,430.3,208.5,430.5,208.7z" />
	<path display="inline" fill="#B3A29A" d="M429.5,212.9c-0.1-0.2-0.3-0.4-0.4-0.6C429.3,212.6,429.4,212.8,429.5,212.9z" />
	<path display="inline" fill="#D5C5BB" d="M384.4,7.2c-2.1-0.3-3.6-0.9-5.7,0.1c-0.3-1.7,0.8-2.2,1.8-3c1.4,0.5,2.8,1.1,4.4,1.7   C384.8,6.5,384.6,6.8,384.4,7.2z" />
	<path display="inline" fill="#B5ACA3" d="M387,4.9c-1.1-0.5-2.1-1-3.6-1.7c2-0.5,3.3-0.6,4.5,0.7C387.6,4.2,387.4,4.5,387,4.9z" />
	<path display="inline" fill="#958B83" d="M375.2,12.1c-0.4,1-0.9,2-1.3,2.9c-0.3-0.2-0.5-0.5-0.8-0.7   C373.5,13.3,374.1,12.5,375.2,12.1z" />
	<path display="inline" fill="#A1A69D" d="M433.2,155.7c0.9-0.2,1.7-0.4,2.6-0.5c0.8,1.6-1.7,1-2.6,1.1   C433.2,156.1,433.2,155.9,433.2,155.7z" />
	<path display="inline" fill="#D9B8AB" d="M372.9,14.8c0,1,0.1,2.1,0.1,3.1C372.4,16.9,371.9,15.8,372.9,14.8z" />
	<path display="inline" fill="#D9B8AB" d="M373,17.9c0.8,0.2,0.8,0.8,0.7,1.5C373.4,18.9,373.2,18.4,373,17.9z" />
	<path display="inline" fill="#4B65C5" d="M406.4,339.4c0.8,11.4-0.6,22.4,0,33.6c-0.7,0.1-1.3,0.2-1.7,0.2c-2.6-9.8-2-20.8-4-30.4   C401,338.2,402.4,338.1,406.4,339.4z" />
	<path display="inline" fill="#4B65C4" d="M438.4,400.4c-1.2,1.4-2.3,2.8-3.5,4.3c-2.5-5.8,1.2-14,1.9-20c0.6,1.4,1.2,2.7,1.8,4.2   c2.6-1.8,3.6-4.9,6.1-6.7c2.2,0.6-4.7,12.7-6.8,12.5C437.6,396.6,437.1,398.8,438.4,400.4z" />
	<path display="inline" fill="#0C1020" d="M436.9,384.6c-1.6,7.9-3.1,16.1-4.2,24.3l0.1,0c-0.4,0-0.7-0.1-1.2-0.1   c0.5-12.4,4.2-24.6,4.3-37C436.7,375.9,437,380.2,436.9,384.6z" />
	<path display="inline" fill="#4C67C9" d="M424.9,337.7c1.4,0.1,2.8,0.2,4.2,0.3c-0.5,0.3-1,0.5-1.7,0.8c0.5,6.7-1,13-0.5,20.1   c-2.6-2.2-0.8-5.4-1.5-8.1C423.8,346.6,425.8,341.8,424.9,337.7z" />
	<path display="inline" fill="#080B15" d="M436.9,337.1c0.3,0.1,0.7,0.1,1.2,0.2c0.3,4.9,0.7,9.2,1.3,14.2   C435.6,347.8,436.2,341.8,436.9,337.1z" />
	<path display="inline" fill="#212C57" d="M401.4,339.2c-1.5,7.4-3.7,14.5-4.2,22.1c-2.6-6.5,1.7-15.4,3.6-22.1   C400.9,339.2,401.2,339.2,401.4,339.2z" />
	<path display="inline" fill="#1D264C" d="M420.6,413.1c1.6,6.3,3.2,12.5,4.9,18.9c-4-4.4-3.5-11.9-5.6-17.5   C419.9,414,419.8,413.3,420.6,413.1z" />
	<path display="inline" fill="#273160" d="M388.1,428.6c5.2,3.5,9.9,6.5,15.4,9.8c-5.6-0.6-10.4-5.1-14.9-8.2c-1,0.5-0.3,1.8-1.4,2   C387.2,430.9,387.3,429.6,388.1,428.6z" />
	<path display="inline" fill="#25305E" d="M438.6,379.5c1.2-6.2,7.3-10.6,6.9-18C448.5,366.3,441.5,375.4,438.6,379.5z" />
	<path display="inline" fill="#18162C" d="M401.4,339.2c-0.1,0-0.4,0-0.6,0c0.1-1.4-1-1.3-2.2-1.7c4.7-0.5,9.6,1.1,14.5,1   c0.7,0.1,1.4-0.1,1.8,0.7c-1.1,0.1-2.2,0.2-3.3,0.3c-0.1,0.5-0.1,0.8-0.1,1.2c-0.3,0-0.5,0-0.8,0c-0.1-0.3-0.1-0.7-0.2-1.3   C407.5,340.2,403.8,337.6,401.4,339.2z" />
	<path display="inline" fill="#0E1224" d="M410.6,340.7c0.3,0,0.5,0,0.8,0c0.4,3.4,0.1,6.7-2.1,9.7   C409.7,347.1,410.2,343.9,410.6,340.7z" />
	<path display="inline" fill="#314180" d="M433.7,348.7c0.2-3.5-2.4-7.3,0.1-9.2c0.7,2.6,0,5.1,0.8,7.7   C434.7,347.3,434.2,347.8,433.7,348.7z" />
	<path display="inline" fill="#141A32" d="M434.6,356.6c0.3,2.3,0.3,4.5,0,7.1C433.1,362.4,432.8,358.1,434.6,356.6z" />
	<path display="inline" fill="#1B2344" d="M444.8,342.1c-0.1,0.4-0.2,0.8-0.4,1.4c-1.4-1.9-3.4-4.7-1.8-6.5   C443.4,338.7,444.1,340.4,444.8,342.1z" />
	<path display="inline" fill="#232D59" d="M421.3,396c0.9,1.7,1.7,3.5,2.6,5.2c-1.9,0.9-2.4-4-3.5-5.2C420.7,396,421,396,421.3,396z   " />
	<path display="inline" fill="#374990" d="M420.6,413.1c-0.8,0.2-0.6,0.9-0.8,1.4c-0.8-1.7-1.3-3.4-1.2-5.6   C419.8,410.3,420.5,411.6,420.6,413.1z" />
	<path display="inline" fill="#1B203E" d="M420.7,348.6c0-1.8-0.4-3.1,1-4.2C422.3,345.9,422.3,347,420.7,348.6z" />
	<path display="inline" fill="#3E51A0" d="M423.7,380.2c1.3,0.5,2.1,1.5,2.2,3.1C424.1,382.8,424.1,381.4,423.7,380.2z" />
	<path display="inline" fill="#2E3C76" d="M423.5,347.6c0,1.5,0.1,1.6-0.6,3.3c0-1.6,0-2.5,0-3.4   C423.1,347.6,423.3,347.6,423.5,347.6z" />
	<path display="inline" fill="#3D4E98" d="M421.3,396c-0.3,0-0.6,0-0.9,0c-0.2-0.5-0.4-1.1-0.6-1.6c0.1-0.1,0.3-0.1,0.4-0.2   C420.6,394.8,421,395.4,421.3,396z" />
	<path display="inline" fill="#526FDB" d="M441.9,336.4c-0.8-0.7-0.8-0.7,0-1.4C441.9,335.5,441.9,335.9,441.9,336.4z" />
	<path display="inline" fill="#212B55" d="M387.9,405.3c-0.3,0-0.7,0-1.1,0.1c1,4.3,0.3,8.8,0.5,13.3c-0.2,0-0.4,0-0.6,0.1   c0-5.1,0.1-10.1-1.8-14.9c-2-1.3-4.2-2.2-6.1-4.1c2.6-0.2,3.7,2.3,6.1,2.4c0.6-1.5,0.1-3.2,0.4-4.7c2,2.7-1.4,5,3.5,7.1   C388.4,404.8,388.1,405.1,387.9,405.3z" />
	<path display="inline" fill="#2C3B73" d="M386.4,403.1c-1.7-1.6,0.5-4.2-1.3-5.6c0.6-6.1,2.3-12.2,2.1-18.5c0.2,0,0.5,0,0.7,0   C388.6,387.2,386.3,395,386.4,403.1z" />
	<path display="inline" fill="#0E1224" d="M379.5,369c-0.1-4.9-0.4-10.9,3.4-14.5c0,4.4-2.4,9.6-2.2,14.5   C380.3,369,379.9,369,379.5,369z" />
	<path display="inline" fill="#334485" d="M385.3,427.1c-5-3.2-8.3-8.5-11.6-13.4c0.9-0.7,1.2,0,1.5,0.4c2.9,4.7,6.7,8.6,10.7,12.4   C385.6,426.7,385.4,426.9,385.3,427.1z" />
	<path display="inline" fill="#1C2548" d="M389.3,354.1c0.9-5,1.6-10.1,3.4-14.9c0.8,5.7-1.9,10.8-2.7,16.3   C389.3,355.3,389.4,354.6,389.3,354.1z" />
	<path display="inline" fill="#2E3E79" d="M389.3,354.1c0.1,0.5,0,1.2,0.7,1.4c-1.1,5.9-2,11.8-2.1,17.8c-0.2,0-0.4,0-0.7,0   C387.3,366.9,387.7,360.2,389.3,354.1z" />
	<path display="inline" fill="#5470DD" d="M397.1,434.4c-1.5-0.3-2.4-1.3-3.4-2.3c0-2,0-3.9,0-6.7c2.1,3.1,1.7,5.7,3.9,8.5   C397.6,434,397.3,434.2,397.1,434.4z" />
	<path display="inline" fill="#0F1324" d="M385.3,427.1c2.4-1.9,0.9-5.6,1.4-8.3c0.2,0,0.4,0,0.6-0.1l0,0c0.2,3.3-0.7,6.8,0.8,9.9   c-0.8,1.1-0.9,2.3-0.9,3.6C385.4,431,387.6,428.2,385.3,427.1z" />
	<path display="inline" fill="#12172E" d="M386.9,337.1c0.7,2.9-2.8,5.7-4.4,8C383.1,342,384.4,339.4,386.9,337.1z" />
	<path display="inline" fill="#212B55" d="M387.8,428c-1.3-2.8-0.3-6.2-0.6-9.3C388.6,421.5,387.6,424.9,387.8,428z" />
	<path display="inline" fill="#2C3B73" d="M387.3,373.3c0.2,0,0.4,0,0.7,0c0,1.9,0,3.8,0,5.7c-0.2,0-0.5,0-0.7,0   C387.3,377.1,387.3,375.2,387.3,373.3z" />
	<path display="inline" fill="#324281" d="M387.9,405.3c0.2-0.3,0.5-0.5,0.7-0.8c0.9,0.6,1.7,1.1,2.8,1.8   C389.8,406.9,388.8,406.2,387.9,405.3z" />
	<path display="inline" fill="#1D2B54" d="M379.5,369c0.4,0,0.8,0,1.2,0c0.2,0.6-0.2,1-0.6,1.3C379.7,370,379.3,369.6,379.5,369z" />
	<path display="inline" fill="#ECC9B9" d="M400,464c0.1,3.3-0.2,7.1-2.8,9.4c-0.7-1-0.7-2.7-2.1-2.9c-0.2-0.4-0.5-0.9-0.7-1.3   c1.1-1.2,0.9-1.8-0.7-2.3c-0.8-2.5-1.8-5.3-1.4-7.8c0.6-1.6,2.6-1.5,2.9-3c0.2,0,0.4,0,0.6,0.2c0.1,1.7,2,2.5,3,3.7   c-0.2,1.7-1.2,3.5,0.2,5.3C399.4,464.7,399.7,464.4,400,464z" />
	<path display="inline" fill="#2F2825" d="M378,477.6c-0.3,0.1-0.6,0.3-0.9,0.4c-1.5-2.3,1.7-7.9,3.7-9.4   C381.6,471.8,378.8,474.6,378,477.6z" />
	<path display="inline" fill="#231B1A" d="M401.8,451.2c0.6-2.2,2-3.8,3.4-5.6C406.9,447.7,403.8,450.4,401.8,451.2z" />
	<path display="inline" fill="#251E1D" d="M395,470.5c2,0.7,2.1,3.7,2.7,5.5C395.3,476.9,394.6,472.3,395,470.5z" />
	<path display="inline" fill="#342B28" d="M400,464c-0.3,0.3-0.6,0.7-1,1.2c-1.4-1.8-0.4-3.6-0.2-5.3c0.3,0,0.7,0.1,1.2,0.1   C400,461.4,400,462.7,400,464z" />
	<path display="inline" fill="#6E5852" d="M393.6,467c1.6,0.4,1.8,1.1,0.7,2.3c-0.3-0.5-0.6-1-0.8-1.5   C393.5,467.4,393.6,467.2,393.6,467z" />
	<path display="inline" fill="#3C3432" d="M395.7,491.3c0-0.7,0-1.3,0-2c1.7-0.3,1,1.3,0.6,2.1C396.1,491.4,395.9,491.3,395.7,491.3   z" />
	<path display="inline" fill="#3D1B1A" d="M395.7,456.3c-0.2-0.1-0.4-0.2-0.6-0.2l0-0.3c0.2-0.3,0.4-0.6,0.6-0.9   c0.3,0,0.7,0.1,1.4,0.1C396.5,455.6,396.1,455.9,395.7,456.3z" />
	<path display="inline" fill="#937872" d="M390.8,462c0.6,0.8,0.6,1-0.2,1.4C390,462.8,390.1,462.6,390.8,462z" />
	<path display="inline" fill="#554945" d="M394,496.8c-0.4-0.9-0.5-1.1,0.4-1.4C394.9,496,394.4,496.2,394,496.8z" />
	<path display="inline" fill="#B09189" d="M377.3,537.3c-0.1-0.1-0.3-0.3-0.4-0.4c0.4-0.1,0.7-0.2,1.1-0.3   C377.7,536.9,377.5,537.1,377.3,537.3z" />
	<path display="inline" fill="#CA9F97" d="M399.6,452.5c0.3-0.4,0.5-0.3,0.8,0C400.2,452.9,399.9,452.6,399.6,452.5z" />
	<path display="inline" fill="#ECC9B9" d="M395.7,454.9c-0.2,0.3-0.4,0.6-0.6,0.9C395.3,455.5,395.5,455.2,395.7,454.9z" />
	<path display="inline" fill="#ECC9B9" d="M393.6,467c0,0.2-0.1,0.5-0.1,0.7C392.9,467.3,393.1,467.1,393.6,467z" />
	<path display="inline" fill="#181413" d="M420.5,462.7c0.1-2.4-2.1-5.9,0.1-7.7c2.3,2.8,3.1,9.6,1.5,12.7   C421.6,466,421,464.4,420.5,462.7z" />
	<path display="inline" fill="#231D1B" d="M432.7,445.8c-0.6,0.3-1.2,0.7-1.7,1c-0.9-1.1,0.2-1.8,0.3-2.6c1.4-1.1,2.2-2.7,4.1-2.8   C435.4,443.6,433.3,444.3,432.7,445.8z" />
	<path display="inline" fill="#403634" d="M423,478.2c-0.3-2.6-0.7-4.4,0.8-6.7C424.5,474.2,424.6,475.9,423,478.2z" />
	<path display="inline" fill="#79716C" d="M422.1,467.6c1.4-1.1,0.4-3.4,0.8-5c1,2.3,0.2,5,0.4,7.8   C422.4,469.6,421.9,468.8,422.1,467.6z" />
	<path display="inline" fill="#604E49" d="M414.2,511.6c-0.3,0.3-0.7,0.5-1,0.8c-0.7-1.6-0.7-1.6,1-2.7   C414.2,510.3,414.2,511,414.2,511.6z" />
	<path display="inline" fill="#413532" d="M419.2,489.6c0.1-0.5,0.2-0.9,0.3-1.4c0.3,0.1,0.6,0.2,0.9,0.4c-0.2,0.4-0.5,0.8-0.7,1.2   C419.5,489.8,419.4,489.7,419.2,489.6z" />
	<path display="inline" fill="#555652" d="M421.5,480.6c0.9,1,0.9,1.7-0.1,2.6C421.4,482.2,421.5,481.5,421.5,480.6z" />
	<path display="inline" fill="#9E938C" d="M427,447.8c0.2,0.3,0.5,0.5,0.7,0.8C427.1,450.1,425.4,448.2,427,447.8z" />
	<path display="inline" fill="#513532" d="M417.4,496.1c0.1,0.3,0.3,0.5,0,0.7C417.2,496.5,417,496.3,417.4,496.1z" />
	<path display="inline" fill="#0C0A0A" d="M443.1,549.9c0.4,0.5,0.8,1.1,1.1,1.6c-2,2.6-6,5.1-9.4,5.9c-1.3-4.2,5-6.8,8.4-7.4   L443.1,549.9z" />
	<path display="inline" fill="#51433E" d="M375.6,485.5c-0.8-1.4-0.7-2.5,0.3-3.7C376.9,483.7,376.9,483.7,375.6,485.5z" />
	<path display="inline" fill="#493F3A" d="M375.2,489.2c-0.1,0.7-0.1,1.4-0.2,2.3C373.9,490.4,373.9,490.4,375.2,489.2z" />
	<path display="inline" fill="#89746B" d="M374.8,496.2c0.5,0.8,0.4,1.1-0.2,2.1C373.7,497.6,373.2,496.2,374.8,496.2z" />
	<path display="inline" fill="#222746" d="M439.1,416.7c-2,1.1-4,2.3-6.2,3.5c1.4-2.3,1.9-2.6,7-5c0.2,0.2,0.4,0.5,0.6,0.7   C440,416.2,439.5,416.4,439.1,416.7z" />
	<path display="inline" fill="#433834" d="M412.2,518.5c0-0.7,0-1.5,0-2.5C412.9,517.1,412.9,517.1,412.2,518.5z" />
	<path display="inline" fill="#54423D" d="M412,522c0,0.7,0,1.4,0,2.4C411.4,523.3,411.4,523.3,412,522z" />
	<path display="inline" fill="#4A64C3" d="M432.6,408.8c-0.1-2.5,0.5-4.9,1.4-7.2c-0.1,1.1,0.1,2.1,0.9,3   C434.4,406.1,433.8,407.6,432.6,408.8z" />
	<path display="inline" fill="#14100F" d="M383.6,113.6c-0.4-2.6-1.1-2.7,0.5-5.8c0.6,0.3,1.2,0.5,1.7,0.8   C386.8,111.1,387.6,118.9,383.6,113.6z" />
	<path display="inline" fill="#211D1C" d="M398.3,182.9c-3.1,1.3-4.9-6.2-3-8.6C397,177.2,397.2,180.2,398.3,182.9z" />
	<path display="inline" fill="#1B1817" d="M396.8,111.1c1.2,3.1,0,6.3-3.1,5.7C394.5,115.1,395.3,113.4,396.8,111.1z" />
	<path display="inline" fill="#222321" d="M393.2,42.1c-1.4-2-1.2-4.2-0.8-6.4c0.4,0,0.6,0,0.9,0C394.3,37.8,393.8,39.9,393.2,42.1z   " />
	<path display="inline" fill="#392D2A" d="M402.9,192.5c1.7,1,1.8,2.9,2.3,4.6c-0.3,0.3-0.6,0.6-0.9,1   C403.7,196.3,401.4,194.3,402.9,192.5z" />
	<path display="inline" fill="#161211" d="M405.6,234.8c0.2-1.5-0.2-2.9,1.2-3.9c0.6,2.3-0.1,4.2-0.5,6.1   C405.3,236.5,406,235.5,405.6,234.8z" />
	<path display="inline" fill="#6E615B" d="M395.4,169.4c-1.1-0.9-1.3-2-0.7-3.4C396.2,167,395.8,168.3,395.4,169.4z" />
	<path display="inline" fill="#494440" d="M405.6,234.8c0.4,0.7-0.2,1.7,0.7,2.2c-0.2,0.7-0.4,1.4-0.7,2.4   C404.8,237.2,404.8,237.2,405.6,234.8z" />
	<path display="inline" fill="#524541" d="M405.1,223.3c1,1.7,1.4,2.6,0.6,3.9C404.3,226.3,405.3,225.3,405.1,223.3z" />
	<path display="inline" fill="#2B2927" d="M386.4,92.3c0,0.9,0,1.7,0,2.8C384.9,93.3,384.9,93.1,386.4,92.3z" />
	<path display="inline" fill="#52423F" d="M392.3,44.8c1.7,0.9,1.8,1.1,0.1,2.3C392.3,46.3,392.3,45.6,392.3,44.8z" />
	<path display="inline" fill="#201C1B" d="M386.2,99.2c0.6,0.5,0.1,1.1-0.1,1.7C385.2,100.7,385.6,99.3,386.2,99.2z" />
	<path display="inline" fill="#B39E96" d="M394.8,163.5c-0.8,0.2-0.8-0.7-1.1-1.2c0.3-0.1,0.5-0.2,0.8-0.3   C394.7,162.6,395.2,163.1,394.8,163.5z" />
	<path display="inline" fill="#8E7E77" d="M386.1,104.2c1.1,1,0,2-0.7,0.9C385.5,104.8,385.8,104.6,386.1,104.2z" />
	<path display="inline" fill="#58504A" d="M404.2,198.1c0.3-0.3,0.6-0.6,0.9-1c0.6,0.6,0.7,1.3,0.4,2.2c-0.4-0.2-0.8-0.3-1.3-0.5   C404.3,198.6,404.2,198.3,404.2,198.1z" />
	<path display="inline" fill="#5E504C" d="M393.3,54.4c0.2,1,0.3,1.6,0.4,2.1c-0.2,0.1-0.3,0.1-0.5,0.2   C392.7,55.8,392.8,55.7,393.3,54.4z" />
	<path display="inline" fill="#45322F" d="M392.4,51.5c0-0.3,0-0.7,0-1c0.1,0,0.3,0,0.4,0c0,0.3-0.1,0.7-0.1,1   C392.6,51.5,392.5,51.5,392.4,51.5z" />
	<path display="inline" fill="#252529" d="M436.9,221.5c0.4,0,0.7,0,1.1,0c2.8,4.1,3.8,12.5,2.2,19.3   C438.2,234.5,439.7,227.7,436.9,221.5L436.9,221.5z" />
	<path display="inline" fill="#222125" d="M420.6,315.2c3.4,2.6,5.5,8.4,4.6,12.6c-0.4-0.2-0.8-0.5-1.1-0.7   C423,323.2,421.7,319.2,420.6,315.2z" />
	<path display="inline" fill="#262327" d="M440.4,274.7c0.9,1.8-5.5,12.2-7,9.9C435.8,281.5,437.2,277.1,440.4,274.7z" />
	<path display="inline" fill="#181E21" d="M427.9,294.2c1.3,1.8,1,2.7,0,4C427.3,296.3,427.5,296.3,427.9,294.2z" />
	<path display="inline" fill="#3B393F" d="M430.1,289.9c0.3-0.9,0.4-2,1.7-2.3C431.3,290.1,431.3,290.1,430.1,289.9z" />
	<path display="inline" fill="#5F646D" d="M414.3,304.8c1.5,0.4,1.4,1.4,1.9,2.6C414.6,306.9,414.5,305.9,414.3,304.8z" />
	<path display="inline" fill="#35363B" d="M400,252.6c-0.9-0.1-0.8-0.8-0.9-1.4c0.4-0.4,0.8-0.8,1.2-1.1   C401.4,251.3,400.2,251.8,400,252.6z" />
	<path display="inline" fill="#2B2528" d="M425.6,305.7c-1.3-1.6-1.1-2.3,0-3.5C425.6,303.4,425.6,304.2,425.6,305.7z" />
	<path display="inline" fill="#3D4248" d="M436.9,221.4c-0.8,0-1.3-0.2-1.4-1.1C436.2,219.4,437.2,220.7,436.9,221.4   C436.9,221.5,436.9,221.4,436.9,221.4z" />
	<path display="inline" fill="#73717C" d="M418.7,313.3c0-0.7-0.1-1.4-0.1-2c0.2,0,0.3,0,0.5,0c0,0.7,0.1,1.4,0.1,2   C419,313.2,418.8,313.3,418.7,313.3z" />
	<path display="inline" fill="#4C4951" d="M436,248c-0.3,0.4-0.5,0.6-0.7,0.8C434.2,248.2,434.9,247.4,436,248z" />
	<path display="inline" fill="#181618" d="M437.9,245.3c-0.3-1.2-0.3-1.2,0.2-1.8C438.7,244.1,438.4,244.6,437.9,245.3z" />
	<path display="inline" fill="#2A282D" d="M397.8,323.1c-3.6-2-8.6-6.7-7.3-11c2.4,3.6,3.7,7.9,8,10.1   C398.3,322.6,398.1,322.8,397.8,323.1z" />
	<path display="inline" fill="#7D8191" d="M397.8,323.1c0.2-0.3,0.5-0.6,0.7-0.8c0.7,0.1,1.3,0.8,2.2,0.4c1-0.4,1.3,0.4,1.1,1.6   C400.5,323.5,399,324.1,397.8,323.1z" />
	<path display="inline" fill="#1B0E11" d="M398.3,255.9c-0.2,0.7-1.3,2.3-1.6,0.8C397,256.1,397.1,255.2,398.3,255.9z" />
	<path display="inline" fill="#56545E" d="M406.6,327.3c-0.5-0.4-1-0.7-1.6-1.1C406.2,325.4,406.6,326.2,406.6,327.3z" />
	<path display="inline" fill="#352623" d="M374.4,203.7c0-0.5,0-1-0.1-1.5c0.2-0.2,0.5-0.4,0.8-0.7c1.1,0.9,1.5,2,1.5,3.3   c-0.3,0.3-0.5,0.6-0.8,0.9C375.4,205.1,374.9,204.4,374.4,203.7z" />
	<path display="inline" fill="#493C37" d="M375.9,205.8c0.3-0.3,0.5-0.6,0.8-0.9c1.4,0.3,2.2,1.1,1.8,2.9c-0.9-0.5-1.8-0.9-2.6-1.4   C376,206.2,375.9,206,375.9,205.8z" />
	<path display="inline" fill="#393D38" d="M382.8,238.3c-0.8-0.5-1.7-0.5-0.9-1.8C382.5,236.8,383.2,237,382.8,238.3z" />
	<path display="inline" fill="#040304" d="M356,42.6c-1.8,0.2-2.9,1.9-4.7,2.6c-1.3-3.5,2.5-6.1,5.9-5.2c0.1,0.6,0.1,1.2,0.2,1.9   C356.9,42.2,356.5,42.4,356,42.6z" />
	<path display="inline" fill="#201F24" d="M378,45.5c0.1,3.4-1.7,2.6-4.1,3.3c-0.7-0.4-1.7-0.8-2.5-1.3c0.1-0.8,0.1-0.8,3,0.2   C375.5,47.1,376.8,46.3,378,45.5C378,45.5,378,45.5,378,45.5z" />
	<path display="inline" fill="#0D0D10" d="M351.8,49.8c-0.3-0.1-0.7-0.1-1.2-0.2c-0.1-0.7-0.1-1.4-0.2-2.2   C352.6,46,352.9,48.5,351.8,49.8z" />
	<path display="inline" fill="#111013" d="M350.3,55.4c-1.5-0.2-2.7-0.7-1.2-2.6c0.4,0.1,0.8,0.3,1.2,0.5   C350.3,54,350.3,54.7,350.3,55.4z" />
	<path display="inline" fill="#100E11" d="M348.2,60.7c0.3-0.5,0.6-1,1.2-2.1c0.1,1.3,0.1,1.8,0.2,2.5   C349,60.9,348.7,60.8,348.2,60.7z" />
	<path display="inline" fill="#8C776E" d="M407.9,204.4c1,1.4,0.8,3,1.5,4.6c-2.5-0.5-1.6-2.9-2.2-4.6   C407.4,204.4,407.7,204.4,407.9,204.4z" />
	<path display="inline" fill="#6C554E" d="M407.9,204.4c-0.3,0-0.5,0-0.8,0c-0.4-0.7-1.3-1.4-0.5-2.6   C407.4,202.6,407.9,203.4,407.9,204.4z" />
	<path display="inline" fill="#060505" d="M395.7,31.3c-0.9-1.4-0.9-2.8-0.1-4.1C396.2,28.5,396.1,29.9,395.7,31.3z" />
	<path display="inline" fill="#D9B8AB" d="M374.3,16.3c0.3-0.2,0.6-0.4,0.9-0.6C374.9,15.9,374.6,16.1,374.3,16.3z" />
	<path display="inline" fill="#372522" d="M429.4,177.6c-0.1,0.1-0.3,0.3-0.4,0.5c-1.1,0-2.3,0-3.4,0   C426.7,177,428.1,177.6,429.4,177.6z" />
	<path display="inline" fill="#040304" d="M414.7,334.6c0,0.7,0,1.4,0,2.2c-0.1,0-0.2,0-0.2,0c0-0.7,0-1.4,0-2.2   C414.5,334.6,414.6,334.6,414.7,334.6z" />
</g>
</svg>