<?xml version='1.0' encoding='utf-8'?>
<svg xmlns="http://www.w3.org/2000/svg" version="1.2" baseProfile="tiny" id="Layer_1" x="0px" y="0px" viewBox="0 0 900 600" overflow="visible" xml:space="preserve">
<g id="b_00000011710034411283405840000010399194673468376199_">
	<path display="inline" d="M15.4,208.8c-0.3-1.4-0.7-2.7-1.1-4.4c0.8-0.8,1.7-1.9,2.5-2.8c2.3-0.3,4.2-0.1,5.9,1.2   c-0.4,0.9-0.8,1.8-1.3,2.9c6,3.5,5,11.1,8.7,15.3l0,0c0,1.5-0.6,3.2,1.5,3.8c0.3,2.2-1.7,6.3,1.2,7.1l-0.1-0.1   c-1,2.4-0.6,5.9-2.6,7.6c-0.4-2.9,0.9-6.3-1.3-8.5c-1.8,3.4-2,8.3,1.3,11.1c1.2-0.7,2.4-1.4,3.5-2c0.2-2.4,0.1-4.6,2.8-5.5   c4,14.7,16.9,28.1,30.5,35.6c-0.3,0.7-0.5,1.4-0.8,2.1c1.1,1.3,2.2,2,3.9,1.2c-0.5-0.7-0.9-1.1-1.3-1.7c2.1-1.1,4.4,0.8,5.5-1.6   l0,0c0.5,0.5,1,1,1.5,1.5c0,0.6,0.1,1.2,0.1,1.7c1.1,0.4,2.1,0.7,3.6,1.2c-3.7,3.6-8.5,3.8-12.6,6.2c-1.3,4.3-4.9,7.4-6.3,11.9   c4.7,2.4,9.7,5.3,11.9,10.1c5.4,0.8,9.4-3.3,14.3-4.7c4.9,1.9,9.5,3.9,15,2.9c5.6,1.5,10.6,5.6,16.5,5.2c-0.8-20,15-34.5,16.2-54.4   c-7.8-1.8-14.6-8-10-16.1c0.9,6.6,3.7,11.8,11.1,12.3c10.3-20.9,28.9-39.8,52.2-45.6c0.4-4.7,4.6-5.2,7.2-8   c3.1-7.3,11-3.8,16.6-6.5c5.5,0.7,9.4-3.3,14.6-4.5c-1.5-3.1-2.9-5.7-5-7.3c-1.4,0.1-2.3,0.2-3.3,0.3c-1.2-3.9,2.4-8.4-2.4-11.6   c-2.5,3.2-4.9,6.5-7.6,9.6c-0.6-0.7-1.2-1.5-1.6-2.1c2.4-4,4.5-7.6,6.7-11.2c0.9-1.6,3.7-1.4,3.8-4.1c0-0.7,1.3-1.7,2.2-1.9   c7.7-1.1,16.6-5.5,23.6-0.4c3.3-2.3,7-2.5,10.9-2c2.5,3.7,2.2,8.6,6.3,11.5c10.6-8.6,21.3-16.5,34.7-21c0.9-4.3,4.9-5.5,8.6-7.2   c0.6,0.2,1.2,0.4,1.8,0.6c0,0.4,0,0.8,0,1.2c-2.4,1.1-5.1,2-6.2,5.7c2.4-1.3,4.3-2.3,6.1-3.3c3,2.7-0.4,8.4-0.1,12.2   c-1.2-1.5-1.2-4-3.6-3.6c0.3-1.2,2.1-2.1,0.6-3.7c-7.6,2.3-3.6,10.9-9.2,14.7c-1.7-3.8,1.5-7.4,1-11.4c-23,7.6-38.2,26.7-60.3,36.1   c7,5.4,9.9,13.8,12.3,22.2c-1.9,1.6-3.8,3.1-5.6,4.6c3.5,13.1,6.2,27.1,14.5,38.1c0,1,0,2.1,1.4,2.4c7.1,8.9,13.7,18,17.5,29.4   c8.9-10.9,17.4-21.2,26-31.7c10-0.1,18.1-9.2,26-14.7c-1.7-2.6-3.3-4.9-4.9-7.3c0.5-0.5,1-1,1.5-1.5c1,0.7,1.9,1.5,2.5,1.9   c2.3-1.2,5.2-1,6.3-2.9c-1.2-0.2-2.2-0.5-3.6-0.8c1.3-0.6,2.3-1.1,3.3-1.6c-0.9-2.2-1-3.8-2.6-5.1l0,0.1c0.4-1.3-0.5-3.1,1.4-3.9   c3.8,6,9.1,12.5,10.1,19.4c43.9,13.5,39.3-9.9,62.3-17.2c6-1.4,13.3-2.9,17.1-8.3c19.2-31.9,60.2-41.5,93.1-53.2   c-12.3-36.6-16.3-77-38.8-109.6C452.8,46.1,438,62.5,421,71.6c-21.3,13.2-43.5,25.5-62.4,41.6C373,88.5,434.9,59,462,43.6   c-1-2.2-1.4-4.1-3.8-5.1c-23.2,9.4-45.8,20.5-65.4,36.3c-9.7,6.2-21.3,18.3-33.5,15.5c-2.4,1.8-4.5,3.3-6.6,4.9   c-0.6-0.6-1.1-1.1-1.7-1.7c6.8-6.8,7.9-7.5,18.3-8.5c8.1-3.4,15.2-9.6,22.4-14.6c29.1-24.8,66-32.7,100.6-45.4   c55.4-29.3,100,126.3,137.4,156.8c8.3-13.5,23.1,13.8,50.7,5.9c25.3,0.2,32.2-19.5,41.7-7.4c3.9,21.3,26.5,1.2,3,39.5   c27.9,1.3,59.5,2.6,87.5,0.2c13.5,24.8,34.1,45,52,66.9c7,10.6,22.2,15.5,24.6,28.7c5.8,38.5,0.6,79.6,2.6,118.9   c0.2,34.1,0.5,68.2,0.7,102.3c-1,13.8,3.1,29.8-4.8,41.9c-94.6-0.4-189.4,2-284-1.6C570.4,462,576.9,343,577,224.6   c0.8-1,1.9-2.2,2.9-3.5c4,0.7,7.9,0.6,12.5-0.2c-14-14.9-24.5-31.7-36-48.4c-24.3-16.9-49.1-39.3-50.5-71c-2.2,0.9-2.2,1-4.4,4.8   c5,15.1,7.5,31.1,13.1,46c0.7,2.3,0.5,2.3-1.1,6c-21,4.7-70.5,21.9-82.5,39c-8.6,14.9-17.8,21.6-35,23.9   c-11.4,19.1-32.4,24.3-52.7,17.6c-5.3-2.8-10.1,3.6-15.3,0.6C314,247,299,254,289.7,267.8c4.2,15.7,14,26.4-7.1,34.5   c6.3,13.2,1.2,26.9,3.5,40.4c2.1,5.9-3.5,11-5.6,16.6c-0.9,0.4-2.2,1-3.5,1.5c-0.3,1.1-0.5,2-0.8,3.1c-3.7,2.9-9.4,1-12.3,4.9   c-20.8-0.5-40.3,0.4-60.9-4.3c-7.1,14.6-13.6,28.9-21.2,43.5c0.4,2.5,0.8,5.3,1.3,8.4c19.8,0.4,39.2-0.6,58.9,0.5   c1.2,2.8,4.8-0.2,6.1,2.4c-21.4,1.1-43.1,0.6-64.4,0.6c-1,1.8-1,1.8-0.5,3.4c-5.7,4.1-5.2-3.7-5.4-8c-2.1,2.2-3.3,3-5.5,4.2   c-1.6-0.4-2.9-0.8-4.1-1.1c-1.7,2.2,0.3,5.1-3,7.5c-1-2.5,0.6-5.7-1.7-7.7c-20.5,0.9-42.9-5.2-62.3-1c-0.3,43.6-0.5,87.2,0.2,130.8   c-24.6-0.2-48.8,0.1-73.2,0.1c-2.9,6.1-8.3,11.1-7.8,18.9c60.3-1,121,0.2,181.5-0.9c-1.6-5.6-2.9-10.9-5.5-15   c-111-7.5-79.4,30.4-81.8-121.9c0.4,0,0.9,0,1.3,0c2.1,38.5,0.5,77,1.1,115.6c1.9-1.3,3.3-2.3,4.8-3.3c0.1,0.6,0.2,1.3,0.2,1.9   c-0.4,0.8-0.8,1.7-1.4,3c24.3,0,49.1-3.3,72.8,1.6c2.1-1.3,4.8-1.7,5-5.2c-23.9-0.2-47.8,0.8-71.7-1c2.7-2.7,7.6,0.7,9.8-2.3   c22.5,0.4,47.2-2.8,68.6,1.2c-0.2,1,0,2.2-1.4,2.6c-2.5,0.8-2.6,3.4-3.8,4.8c1.5,4.6,3,8.7,4.5,13.4c1.8-3.9,4.1-6.8,7-9.8   c2.1,5.8-4.4,12-5.9,18.5c-62.7-0.5-126.8,3.1-189.2-1.5c0.9-9.1,4.6-19.2,12.2-25.4c0.8,0.8,1.6,1.7,2.3,2.4   c22.8-0.3,45.1,0.7,67.8-0.2c-0.3-2.2-0.5-3.9-0.8-5.8c-20.6-0.9-41.3,0.2-61.9,0c-1.3-0.5-1.1-1.7-1.3-2.7   c20.3-2.3,42.1,0.4,63-0.3c1.3-31.3,0.7-63.2,0.3-94.6c-1.5-0.5-3.1-1.1-5-1.7c-1.2-6,0.8-11.8,0.6-17.3c1.3-2.2,4.7-2.2,5.1-5.6   c-28.1-2.1-58,3.7-85.1-4.1c-8.1-37.3,27.7-64.7,41.6-96.4c-9.6-0.7-18.8-0.4-27.4-4.8c-4.1,1.7-7.1-1.8-8.9-5.6   c-1.5,1.8-2.5,2.9-3.4,4c-4.3-1-2.3-6.6-6.4-7.1c0.7-1.1,1-1.6,1.4-2.4c-1.2-0.9-2.5-1.7-4-2.8c0.9-1.2,1.6-2.3,2.6-3.6   C2.8,290,3.2,283,2.7,276.3c-0.7-2-3.8-2.7-3.3-5.9c1.1,0.2,2.2,0.4,3.2,0.6c1.5-4.4-2.6-9.3,0.1-13.6c4.4-7.2-2.1-13.9-0.7-20.5   c1.1,0.3,2.2,0.5,3.3,0.8c1.6-3.6-0.3-8.4,1.6-11.5c2.2-1,0.6-3,1.7-4.8c1-0.8,5.1-0.8,4.3-2.9c0.9-0.6,1.8-1.3,2.7-2   c-1.1-2.4-6.7-6.3-2.5-6.8l-0.2,0.3l0.2-0.3c0.5,1.1,1.3,2,2.4,2.6C17.1,211.1,16.6,209.9,15.4,208.8z M58.2,277.4   c0.3,0.2,0.5,0.3,0.8,0.5c-2.8-1.6-2.9-5-7.1-3.7C54.2,276.3,56,277.3,58.2,277.4z M31.2,246.8c2.4,0.7,3.1,3.9,6.6,4.3   c-1.9-2.8-3.5-4.9-5.9-7.1C31.6,245.4,31.4,246.1,31.2,246.8c-3.7,1.1-3.7,1.1-5.4,3.7c1.9-0.7,3.5-1.2,5.1-1.8   C31.1,248,31.1,247.4,31.2,246.8z M699.2,188.1c-5.1,2.9-9.6,2-15.5,2.7c1.4,1.4,2.5,2.5,3.6,3.6c8.8-6.2,23.3-2.5,27-14.5   C708.9,184,705.7,187.1,699.2,188.1z M604.8,154.9c-1.8-2.4-1.9-4.6-5.2-6.2c7.7,17.6,21.1,31.4,29.4,48.5   C627.4,181.5,612.1,169,604.8,154.9z M223.8,161c-0.2,0.5-0.4,1-0.5,1.4c-1.6,0.4-3-1.4-4.7-0.2c2.8,3.1,3.9,6.4,3.8,10.3   c2.3,2.9,4.4,5.5,6.6,8.3c1-0.7,1.8-1.2,3-2c-1.4-5-6-9.3-6.3-14c0.6,0,1.2-0.1,1.7-0.1c3.1,3.8,5.7,7.6,8.1,12   c1.1-0.8,2.1-1.4,2.9-2c-1.1-7-5.8-12.3-9.5-17.3c-3.6,0.5-6.8-1.3-9.3,1.4C221.1,159.6,222.4,160.3,223.8,161z M276.4,282.4   c-4.2,3.7,2.9,10.5,4.4,14.6c17.3-2.8,9.8-14.5,6.2-26.1C283.2,275.2,279.2,278.3,276.4,282.4z M624.6,213.9   c-5,7.8-12.6,10.7-21.1,14.1c6.9,3.7,13.1,2.8,19.2-0.1c1.1-4.1,2-7.9,3-11.6c1.4-1.4,1.6-3,0.8-5.2   C625.8,212.2,625.2,213,624.6,213.9z M580.4,323c-1.2,75.2-2,151.4,22.7,223.4c0.2-104.8,10.3-210.7-21-312.5   C578.6,263.5,582.1,293.7,580.4,323z M202.8,280L202.8,280c0,4.3,0.1,8.7,0.2,13.4c8.9,0.6,16.2,2.1,24.7,5   c1.9-6.5,0-12.9-0.7-19.3c0.2-1.5,0.8-3-1-4c-1.1-2.6-1.1-6.2-3.1-8.2c-0.9,0.4-1.8,1.3-2.7-0.5c0.6-0.6,1.2-1.3,2.2-2.4   c-7.8-21.8-16.6-43-34.3-59.1c-26.2,18.1-45.8,25-51.9,59.5c0.5,0.4,1.1,0.9,1.7,1.5c-0.4,1.7-0.7,3.3-1.2,5.7   C161.1,247.6,187.6,247.8,202.8,280z M185.5,392.4c5.9-10.6,12.8-25.8,13.4-29.4c-3-1.5-6-5.1-8.4-1c-18.3-26.3-55.4,2.1-72.3-51.2   c-3.3-0.6-6.5-1.1-9.7-1.7c-2.6,2.7-5.8,2.9-9.1,2.7c-12.8-0.5-24.6,7-37.7,4.4c-15,30.9-51.9,58.5-44.8,95.6   c51.7,5,104.7-0.4,156.8,2.5C178.1,407.5,181.6,399.7,185.5,392.4z M282.4,347.3c0.3-1.1,1.1-2.8,0.7-3.3c-2.1-2.5-1.7-5.4-1.7-8.2   c2.3-25.9-9.8-49.4-22.4-71.2c-7-9.6-14.6-19.4-17.1-31.2c0.1-1,0-2.3-1.1-2.3c-1.9-0.1-2.4-1.7-3.6-2.6c1.9-18.7-10.1-23-8.7-39.1   c0.6,0,1.2,0.1,2.1,0.1c0.2,1.8,0.5,3.5,0.7,5.3c0.8-0.1,1.7-0.2,3.2-0.4c-0.5,2-0.9,3.5-1.2,4.6c2.1,3.1,2.7,6.6,5.5,8.5   c0.8-0.6,1.8-1.3,2.8-2.1c-2.5-6.1-4-12.5-8.3-17c-8.6,0-16.8,0.5-24.2,4.9c-5.1-1.2-10.8-0.2-12.5,5.2c-1.9,1-3.5,1.7-4.8,2.4   c16.1,25.1,36,51.7,39.4,83.1c2.3,19.9-8.5,39.1,0.8,58.6c-0.7,0.4-1.3,0.8-2.2,1.4c-10.5-10.5-3.3-26.7-4.1-39.8   c-11-5.8-24-7.7-36.4-7c0-0.6-0.1-1.2-0.1-1.8c2.7-3.3,7-1.2,10.4-3c-0.6-3.9,0.6-7.9-1.6-11.2c-3.1,3.5-4.2,10.4-9.8,5.8   c3-4.6,4.8-9.6,4.9-15.3c-17.6-27.5-51.1-5.8-65.9,12.5c-9.4,24.2,2.4,54.5,27.2,59.4c5.5-1.1,17.5-3.1,21.1,0.2   c-0.9,0.6-2,1.2-2.9,1.8c32.5,21,58,20.3,95.2,19C273,358.5,280,354.7,282.4,347.3z M678.4,212.5c-2.5,1.8-2.5,1.8-5,0   c-0.3-5.3,1.6-9.4-0.9-14.5c-1,6.6-1.3,9.8-1.5,15.7c-8,8-4.9-9.6-5.3-13.5c-1.2,0.2-1.9,0.4-2.3,0.4c-1.3,6.2,0.8,12.6-3.8,17.3   c-4.7-5,0.1-11.2-0.7-17c-1.8-0.8-3.3-1-5,0.3c-0.2,6.2,1.6,14.9-5.8,17.7c-3.4-6.1,0.1-14.1-0.3-20.8c-5-1.3-9-4.1-14-2.5   c-1.4,12.2-5.2,24.8-9.4,36.2c-8.3,1.8-16.3,3.1-24-1.2c-1.1-1.4-2.3-1.3-3.7-0.4c-1.5,17.5,16.2,22.3,14.5,46.5   c17.5,2.3,35.4-5.9,49.6-15.9c2.4-5.8,6-10.4,12.7-11.1c27.4-1.7,45.1-26.9,56.9-49c3.9-5.1-11.2-10.8-14.6-14.1   c-7.3,8.8-19.9,6-29,12.6c0.4,4.4,0.8,19.1-5.9,10.7c0.1-3.8,0.3-7,0.5-11c-1.5,0.2-2.6,0.3-3.3,0.4   C678.1,204.1,678.2,208.3,678.4,212.5z M495.7,85.1c0.7,4.9,2,9.7,4.1,14.4c2.8-3.5,5.3-6.6,7.8-9.7c0.8,0.1,1.4,0.1,2.4,0.2   c-3.1,33.6,19.6,62.3,48.3,77.1c10.1,21.3,30.3,37.4,41.2,58.5c4.1-1.5,7.8-3,10.3-6.5c8.4-3,13.1-10.2,16-18.3   c-17-25.3-31.3-51.4-40.9-80.3c-12.9-30.3-35.9-54-51.1-82.9c-13.9-3.9-24-7.4-34.2,1.5c0.3,0.5,0.6,1,1.1,1.7   c-3,2.3-6.8,3.5-10,1.2c-4.1,1-8.2,2.1-12.7,3.2C485.7,58.1,491.9,70.7,495.7,85.1z M700.2,316.5c61-1.7,123.4,3.7,183.4-2.8   c-26.2-25.4-51.7-55.3-70.8-87.4c-29.9-2.8-61.4,0.5-91.8-0.7c-14.5,15.1-28.6,28.5-50.5,28.7c0.3,1.4,0.6,2.5,0.8,3.7   c-17.8,13.2-41.2,30-64.3,21.2c2.7-20.8-18.6-34.9-13.3-54.2c-3.2-0.6-6.4-0.6-9.8,0c5.6,31.5,14.9,61.8,23.1,92.5   C638.1,316.2,669.2,316.7,700.2,316.5z M870.6,321.1c-87.8,0.6-175.6,0.7-263.3-0.4c2.1,84.1-4,169.5,2.7,253.1   c92.2-1.7,186.1,1.9,277.5-2.2c-2.7-84.1,1.5-168.4,0-252.5c-5.4-0.3-10.4-0.6-15.5-0.9C871.5,319.3,871,320.2,870.6,321.1z    M524.9,30.7c-19.1-13.9-40.9,3.3-60.5,8.6c0.8,1.1,1.4,2,1.8,2.6C487.7,44.8,503.9,24.9,524.9,30.7z M633.1,192.9   c5.1-2.7,9.4,0.6,14.3,0.1c0-1.7,0-3.2,0-4.1c-4.4-3-7.4-6.7-12-8.4C634.6,184.7,633.9,188.3,633.1,192.9z M248.1,170.2   c-2.2-5.7-7.7-16-14.5-13.4c3.9,5.2,6.6,10,9,16C244.4,171.9,246.2,171.1,248.1,170.2z M250.5,156.4c-1.8,0-3.8,0-6.1,0   c2.8,4.3,5.4,8.1,7.9,12c2.2-0.3,2.2-0.3,3.5-1.6C254.1,163.4,252.4,160.2,250.5,156.4z M12.1,226.7c-0.4,4.7-0.4,4.7,2.2,9   c0.3-0.6,0.8-1.1,0.7-1.5c-2-6.7,0.8-5,4.9-8.9c-0.5-0.9-1.1-2-1.6-2.8c-1.7,0-3.1,0-4.7,0c0.6,1,1,1.7,1.6,2.7   C14,225.7,13,226.2,12.1,226.7z M98.7,438.6c-0.5-5.1,0.5-8.9-0.7-12.8C95.5,427.2,94.3,435.8,98.7,438.6z M657.2,191   c-1.3-0.3-2.3-0.6-3.7-0.9c-0.3,1.9-0.4,3.4-0.7,5.1c1.2,0.4,2.3,0.7,3.6,1.1C656.7,194.3,656.9,192.8,657.2,191z M46.3,258.5   c-2.7-2.5-4.6-9.5-7.8-8C40.5,253.4,40.7,257.9,46.3,258.5z M682,191.6c-2.5,0.2-4.3,0.1-6,1.2c1.3,3,3.4,2.5,5.8,2.2   C681.9,193.9,681.9,193,682,191.6z M334.8,228c-2.5,1.4-5.3,0.6-6.5,3.9c2.4,0,4.5,0,7,0C335.1,230.6,335,229.7,334.8,228z    M23.8,260.7c0.7,0.7,1.3,1.1,1.8,1.6c1.5-1.9,2.8-3.6,4.2-5.4c-0.9-0.6-1.6-1-2.3-1.5C26.4,257.1,25.3,258.6,23.8,260.7z    M24.1,283.3c-1.5,1.6-2.6,2.8-4,4.4c1.4,0.6,2.4,1.1,3.5,1.6C24.2,287.3,26,285.9,24.1,283.3z M43.4,306.5c2.6,1,4.1,3.6,6.1,0.7   c-1.3-1.1-2.3-2-3.5-3.1C45.1,305,44.5,305.6,43.4,306.5z M46.2,292.2c-1.1,1.8-6.4,3.7-3.9,6C44.4,297,46.4,295.6,46.2,292.2z    M47.5,273.3c-0.6,3-4.1,6.2-0.6,7.2c0.2-2.1,1.2-3.1,2.9-4.3C49.1,275.4,48.6,274.8,47.5,273.3z M24,275.6c1.1,1,2,1.9,3.2,3   c0.7-1,1.2-1.7,1.7-2.4c-0.9-1.5-1.3-1.9-2.9-2.3C25.4,274.4,24.8,274.9,24,275.6z M9.2,288.6c-0.6-2.8-1.2-4.6-3-5.9   C5.5,286.8,5.5,286.8,9.2,288.6z M11.4,245c-0.1-1.9-0.9-2.8-3-2.7c-0.1,1.2-0.3,2.5-0.5,4.3C9.5,245.9,10.5,245.4,11.4,245z    M45.4,266.5c-0.8,1-1.4,1.7-1.8,2.2c0.7,1.8,1.6,2.7,3.6,2C46.6,269.3,46.1,268.1,45.4,266.5z M25.5,300.9c0.3-3.4-0.2-3.8-4-3.2   C23,298.9,24.1,299.8,25.5,300.9z M24.7,303.6c0.5,1.5,1.2,2.9,3.8,2.9C28.3,304.1,26.4,304,24.7,303.6z M56.7,311.4   c-3-2.8-3.7-2.9-4.4,0C53.9,311.4,55.1,311.4,56.7,311.4z M662.6,192.5c-0.5,2.9-0.5,2.9,1.4,3.8   C665.2,193.1,665.2,193.1,662.6,192.5z M673.7,193.4c-3.1-2.2-4.5-0.7-3.5,2.5C671.6,194.9,672.4,194.3,673.7,193.4z M67.3,307.4   c1.9,1.8,1.9,1.8,3.8,0.9C70.1,306.8,68.9,306.3,67.3,307.4z M51.4,263.8c0.9-1.5,0.2-2.4-1.6-3.1C49.8,262.1,49,263.4,51.4,263.8z    M16.9,296c0.4-2.4,0.4-2.4-2.7-2.2C15.2,294.7,16,295.3,16.9,296z M60.2,289.2c-2,0.2-2.7,0.9-1.3,2.5   C59.4,290.8,59.8,290,60.2,289.2z M54.3,298c-1.8-2-1.8-2-2.9,0.3C52.4,298.2,53.2,298.1,54.3,298z" />
	<path display="inline" fill="#050506" d="M179.5,424.5c1.3-0.2,2.8,0.5,3.7-1c20.8,2.7,43,0.8,64.2,1c1.9-2.5,1.7-6.8-2.4-6.2   c-1.2,0-2.4,0.2-3-1.3c3.6-0.8,7,0.2,10.7,1.6c1,2.6-0.9,6.4,1.5,8.3c0.8,2.1,1.5,4.2,2.2,6.1c-1.7,3.4-2.2,5.8-2.4,9.7   c-43.1,0-85.9,0.5-128.8-0.9c-0.8,5.7-0.7,92.6,0.1,97.9c3.7,0,7.5,0,11.4,0c-2.2,3-7.1-0.4-9.8,2.3c-2.1-0.8-3,1-4.8,1.6   c-0.3-41.2,0-84.1,0.1-126.4c-2,0.1-3.9,0.2-6.3,0.3c0,4.2,0,8.1,0,11.9c-0.4,0-0.9,0-1.3,0c-0.1-3.9-0.2-7.9-0.3-12   c-4.6,0-8.8,0-13,0c6.5-2.8,18.5-1.6,25.6-0.5c-0.8,0.2-1.5,0.4-2.6,0.6c0.1,1.5,0.3,2.8,0.4,4.4c13.1,0.2,25.9,0.3,38.9,0.5   c0-1.3,0-2.7,0-4.1c1.8,1.6,1.3,3.9,1.3,6c-13.2,3.2-26.9,0.1-40.3,1.6c0.3,4.6-0.5,8.7,0.6,13c41.5-1.4,83.3,0.5,124.5-1.7   c-0.7-3.1-1.3-6.2-2-9.3c-21.4,0-42.3,0-63.1,0C182.7,426.8,181.1,425.6,179.5,424.5z M250.9,424.4c-0.3,3.8-1.3,6.9,1.3,10   C253.1,431.1,253.1,431.1,250.9,424.4z" />
	<path display="inline" fill="#0C090D" d="M305.7,142.6c0-1,0-2-1.2-2.4c0-1.2,0.1-2.4,0-3.5c0.6-0.5,1.4-0.9,1.5-1.8l0.4-0.1   l-0.2-0.4c7.6-6.8,11.7-18.1,21-22.4c11.8-1.1,14.9-12.7,23.7-18.7c0.6,0.6,1.1,1.1,1.7,1.7c-7.3,6-10.6,17.8-21.2,18.4   c-8.8,0.3-10.2,13.3-16.7,17.8c-3.6,0.6-5.1,3.8-7.1,5.3C306.2,138.7,308,141.2,305.7,142.6z" />
	<path display="inline" fill="#1D1514" d="M35,218.9c8.3,1.2,20.9-9.6,26.4-0.7c9.3-0.4,22.4-14.5,27.2-2.3c2.1-0.3,4.1-0.6,6-0.8   c0.1,0.4,0.3,0.7,0.4,1.1c-2.2,1.6-4,2.7-6.9,3c2.8,3.4-2,9.7-4.8,5.1c0.6-0.7,1.2-1.4,2.2-2.6c-2.3-2.1,1.4-5.1-1.5-7.9   c-9-1.7-18.4,12.8-26.3,4.9c-6.7-3.5-14.1,3.9-21.5,2.5C35.8,220.4,35.4,219.6,35,218.9z" />
	<path display="inline" fill="#221E1D" d="M91.3,218.5c1.3-0.7,2.5-1.5,3.7-2.4c0.4,0,0.8,0,1.1,0.1l0-0.1c0.4,0.8,0.7,1.5,1.1,2.3   c0.5-0.4,1.1-0.7,1.6-1.1c1.8,0,3.6,0,5.9,0c1.4,0.9,3.1,1.9,4.7,2.9c19-5.6,15.1,12.3,13.8,24c-3.1-5.5,1.3-14.8-3.4-20.6   c-5-3.8-11.3,1.9-16.3-2.7c-2.4-1.1-2.4-1.1-4.6,1.3c0.7,1.6,1.5,3.2,2.3,4.9C94.3,230.9,99,216.5,91.3,218.5z" />
	<path display="inline" fill="#1B1919" d="M35,218.9c0.4,0.8,0.8,1.5,1.2,2.3c-0.6,0-1.2,0.1-1.8,0.1c-0.7,4.6-5,5.2-4.3-0.2   c0.6,0.7,1.3,1.3,2.5,2.5c-0.4-2,0.7-3.8-1.8-4.8c-0.2,0.8-0.4,1.5-0.6,2.2c-3.7-4.3-2.7-11.8-8.7-15.3c0.5-1.1,0.9-2,1.3-2.9   c0.9-0.4,1.8-0.8,3-1.3c0.7,0.6,1.6,1.3,2.4,2c0.6-0.2,1.1-0.3,2.1-0.6C32.2,208.2,32.6,213.8,35,218.9z" />
	<path display="inline" fill="#342C2A" d="M207.7,174.5c0.7-0.8,1.4-1.7,2.1-2.5c1.6,5.1,5.7,8.8,7.3,13.8c1.2-0.2,2-0.3,2.7-0.4   c-2.5,2.1-5.3,2.9-8.5,2.5c0.8-0.6,1.6-1.2,2.6-1.9C213,181.7,209.5,178.5,207.7,174.5z" />
	<path display="inline" fill="#2D2427" d="M34.8,536.9c0.2,1,0,2.2,1.3,2.7c-1.5,1.5-3,3-5.2,5.1c8.1,0.3,14.3-0.7,21.4,0.8   c-7,0-14.1,0-21.3,0c-0.7-0.7-1.5-1.5-2.3-2.4C30.5,540.9,32.7,539,34.8,536.9z" />
	<path display="inline" fill="#282325" d="M203.9,543.5c1.4-0.4,1.2-1.6,1.4-2.6c2.1,3.6,4.3,7.3,6.4,10.9c-0.8,0.9-1.7,1.8-2.5,2.7   C209.3,550.3,205.4,547.2,203.9,543.5z" />
	<path display="inline" fill="#1E1C1C" d="M11.5,211c1.2,1.7,2.5,3.3,4.1,5.5c-0.9,0.7-1.8,1.3-2.7,2c-2.3-0.7-4.1-2-5.4-4.3   C8.9,213.1,10.2,212,11.5,211z" />
	<path display="inline" fill="#C2C3C3" d="M15.4,208.8c1.3,1.1,1.7,2.3,0.2,3.6c-0.5-0.4-1-0.7-1.5-1.1c0-0.4,0-0.8,0.1-1.2   C14.5,209.6,15,209.2,15.4,208.8z" />
	<path display="inline" fill="#5876E8" d="M305.5,135.9c-0.3,0.3-0.7,0.5-1,0.8c-0.6-0.2-1.2-0.4-1.8-0.6   C303.6,134.8,304.6,135.6,305.5,135.9z" />
	<path display="inline" fill="#4E5667" d="M254.2,426.9c-1.5-1-1.4-2.4-1-3.8C253.5,424.4,253.9,425.7,254.2,426.9z" />
	<path display="inline" fill="#FBDFD3" d="M98.8,217.5c-0.5,0.4-1.1,0.7-1.6,1.1c-0.4-0.8-0.7-1.5-1.1-2.3   C97,216.6,97.9,217.1,98.8,217.5z" />
	<path display="inline" fill="#1E1C1C" d="M13.1,209.7c-0.5,0.1-1,0.2-1.4,0.3c0.1-0.3,0.2-0.7,0.3-1   C12.3,209.3,12.7,209.5,13.1,209.7z" />
	<polygon display="inline" fill="#5876E8" points="306.3,134.4 306.5,134.8 306.1,134.9 305.9,134.5  " />
	<path display="inline" fill="#1E1C1C" d="M14.1,210.1c-0.1,0.4-0.1,0.8-0.1,1.2c-0.3-0.5-0.6-1-0.9-1.5   C13.5,209.7,13.8,209.8,14.1,210.1z" />
	<path display="inline" fill="#FBDFD3" d="M96.1,216.3c-0.4-0.1-0.8-0.1-1.1-0.1c-0.1-0.3-0.3-0.7-0.4-1.1   C95.1,215.5,95.6,215.9,96.1,216.3z" />
	<path display="inline" fill="#DAA371" d="M870.6,321.1c0.4-0.9,0.8-1.8,1.4-3c5.1,0.3,10.1,0.6,15.5,0.9   c1.5,84.1-2.7,168.4,0,252.5c-91.5,4.1-185.3,0.4-277.5,2.2c-6.7-83.5-0.5-168.9-2.7-253.1c31.6,0.3,62.1,2.7,94.1,2.5   c0.1,1.8,0.2,3.3,0.3,4.7c-28.1,4.2-62.5-2.9-90,2.8c29.4,5,60.6-1,90.2,2.6c0.5,68.5-1.4,137.4,1.4,205.7   c2.5-68.5,0.1-137.6,0.9-206.3c32.4-0.3,64.8-1.8,97.1-0.3c1,44.7-2.5,90.4,1.9,134.4c2.3-44.8-2.4-91.2,2-135   c26.2,0.1,52.3-0.3,78.6-0.5c-25.3-6.5-52.6-1.7-79.2-4c0.3-1.7,0.5-3,0.8-4.4C826.7,321.3,850.7,325.8,870.6,321.1z M807.8,569   c1-5.2,0.9-42.7-0.1-50.8c-4,14.7-0.7,30.9-1.8,46.2C806.1,566.2,805.7,568.3,807.8,569z M702.1,551.2c-1.1,5-0.8,8.8,0.1,13.9   C703.6,560,703.5,556.1,702.1,551.2z" />
	<path display="inline" fill="#F4C790" d="M700.2,316.5c-31,0.2-62.1-0.3-93.2,1.1c-8.2-30.7-17.5-61-23.1-92.5   c3.4-0.7,6.6-0.7,9.8,0c-5.2,19.2,16,33.4,13.3,54.2c23.1,8.8,46.5-8,64.3-21.2c-0.3-1.2-0.5-2.3-0.8-3.7   c21.9-0.2,35.9-13.5,50.5-28.7c30.4,1.1,61.8-2.1,91.8,0.7c19.1,32.1,44.6,62.1,70.8,87.4c-59,6.4-120.4,1.3-180.4,2.7   c-2.2-9.8-4.6-21.6-11.3-28.9C694,297.7,700.6,306.3,700.2,316.5z M794.6,299.6c-2-2.5-1.4-5-5.6-6c4.9,6.1,7.7,16.7,13.2,19.8   C800.7,308.4,797.3,304.2,794.6,299.6z M768.4,254.3c-1.8,3.9,3.7,10.6,5.5,11.5C772.6,261.6,771.4,257.7,768.4,254.3z M757.2,237   c0.9,5.3,2.4,8.1,5.8,10.8C762.3,243.3,760.1,240.3,757.2,237z M686.6,270.8c-0.1-3.1-0.2-6.2-2.5-9.1   C684.2,267.8,684.2,267.8,686.6,270.8z" />
	<path display="inline" fill="#5876E8" d="M305.7,142.6c2.3-1.4,0.5-3.8,2-6c2-1.5,3.5-4.7,7.1-5.3c6.5-4.4,7.9-17.4,16.7-17.8   c13.1-1.7,16.1-17.8,27.8-23.3c12.1,2.9,23.8-9.3,33.5-15.5c19.6-15.8,42.3-26.9,65.4-36.3c2.4,1,2.8,3,3.8,5.1   c-27.1,15.5-88.9,44.8-103.4,69.7c18.9-16.1,41.1-28.4,62.4-41.6c17-9.2,31.8-25.5,51.9-26.9c12.2,17.1,20.5,37.5,22.5,57.9   c-13,4.6-22.8,10.4-34.9,16.9c0.8-6.4,1-12.3,3.4-18c-4.2-1-12.9,20.2-15,24.7c-6.4,2.6-11.2,6.6-17.8,8.3   c0.9-7.4,4.6-13.4,3.9-20.8c-4.5,8.3-7.8,17.1-11.2,25.4c-8.5,4.5-16.7,8.9-25.3,13.5c-3.3-4.9-1.3-10.5-5.2-14.8   c-3.4,6.4-0.7,13-2.2,19.3c-6.6,4.6-13.3,9.4-20,14.1c-0.3-3.9,3.6-6.9,2.9-11.1c-7.3,3.7-11.4,14.4-15.5,21.8   c-10.6,5.1-22.3,9.5-29.4,19.5c-2.4-0.2-4.1,1.6-6.1,2.3c-2.3-2.5-4.2-5.2-5.3-8.5c11.2-9.9,26.4-16.6,34.4-29.2   c-7.6,3.3-14.3,7.3-21.3,10.3c-0.7-0.3-1.3-0.6-1.8-0.8c-2.3-5.7-6-8.3-12.3-7.5c3.9-2.9,8.1-5.5,12.1-9.9c-3,0.5-5.5,3-7.2,0.3   c3.3-2.2,6.5-4.3,9.8-6.5c-1.7-1.4-2.9-0.9-3.9,0.2c-6.9,2.1-29.5,10.8-16.7,18.6c0,0.7,0,1.5,0,2.6c5.6-0.7,14-4.7,15.6,3.5   c0.1,1.5-0.6,2.7-1.9,3.5c-4.4,1.7-7,6.3-11.3,7.5C304.2,174.2,302.4,158.7,305.7,142.6z M406,91.6c-2.5,6.6-1.7,14.7-4.3,21.7   c-0.5,1.9-0.4,2.3,0.6,5.7C404.7,109.8,407.8,101.2,406,91.6z M339.7,116.4c5.8-0.4,13.4-1.4,17.4-4.7   C352.6,110,343.7,113.2,339.7,116.4z M322.5,129.9c5.7-2.2,7.7-4.2,9.4-8.9C328.7,122.5,326.1,124.8,322.5,129.9z M447.6,66.6   c-2.4,2.6-3.2,5.2-2.9,9.1C447.1,72.7,448.7,70.3,447.6,66.6z M452.9,75.1c-3.1,1.7-3.1,3-0.6,4.9   C452.5,78.6,452.6,77.3,452.9,75.1z M328.3,197.7c1.7-2-1.8-3.5-3.9-3.4C324.8,197.1,326.8,197.2,328.3,197.7z" />
	<path display="inline" fill="#4B65C5" d="M474.8,110.9c7.5-1.4,13.1-6,20.6-8.2c0.1-0.3,0.3-1.1,0.5-1.8   c4.2,13.8,10,27.6,11.9,41.9c-5,3.8-26.9,17.4-26.8,22c-15.9,9-34.5,13.6-48.9,24.8c-2.2-17.7,5.9-37.7,11.4-55.3   c-1.5,1.3-2.2,1.8-2.9,2.4c-0.4-0.4-0.8-0.8-1.4-1.4c-3.6,4.2-11.2,8.1-11.5,13.3c4.3-4,8.6-7.9,12.9-11.9   c-6.7,17.9-12.1,37.1-11.1,56.3c-7.4,10.1-14.1,22-28,23c-22.7,7.2-18.5,30.8-62.3,17.2c-2.2-10.7-11-19.5-16.1-29.2   c2.1-0.8,3.7-2.5,6.1-2.3c0.1,1.4-0.1,2.9,2.2,3.2c11.3-15.6,32.8-17,46.7-27.8c13.9-5,26.3-14.9,39.3-21.5   c-4.9,12.8-13,27.4-14.4,39.9c8.5-18.4,14.9-40,26-56.3c-2,0.3-3.1,1.8-3,3.6c-15.4,19.1-43.8,31.9-67.3,39.4   c4.1-7.4,8.2-18.1,15.5-21.8c0.8,4.1-3.2,7.2-2.9,11.1c6.7-4.7,13.4-9.5,20-14.1c1.5-6.3-1.2-12.8,2.2-19.3   c3.9,4.3,1.8,9.9,5.2,14.8c8.6-4.6,16.8-8.9,25.3-13.5c3.4-8.4,6.7-17.2,11.2-25.4c0.7,7.4-3,13.4-3.9,20.8   c6.5-1.6,11.4-5.6,17.8-8.3c2.1-4.5,10.7-25.7,15-24.7c-2.4,5.7-2.6,11.5-3.4,18c5.2-2.1,9-4.9,13.1-7.6   c2.7,10.2-15.4,7.9-17.6,17.1c5.5-3,11-6.6,16.6-9.6c5.6,4.2-0.4,16.5,5.6,21.1c-2.3-21.6-6.7-22.1,15-30.2c-1.5-0.8-2-0.4-2.2,0.5   c-5.8-1-9.1,4.1-14.3,4.7C476,114,475.4,112.4,474.8,110.9z M336.4,213.1c1.5,2,3.4,2.6,6.5,2.7c-1.7-2.6-3.5-3.6-5.7-4.4   C336.9,212.1,336.6,212.6,336.4,213.1z M349.3,226.9c2.3-1.6,2.1-3.4,1.3-5.7C348.7,223.6,348.7,223.6,349.3,226.9z" />
	<path display="inline" fill="#FBDFD3" d="M495.7,85.1c-3.9-14.4-10-27-17.6-39.8c4.5-1.1,8.6-2.2,12.7-3.2c3.2,2.3,7,1.1,10-1.2   c-0.4-0.7-0.7-1.1-1.1-1.7c10.2-8.8,20.4-5.3,34.2-1.5c15.2,28.9,38.1,52.6,51.1,82.9c9.6,28.9,23.9,55,40.9,80.3   c-3,8.2-7.6,15.3-16,18.3c-0.1-0.6-0.2-1.3-0.2-1.9c-15.7-10-15.9-32.8-30.8-44.1c1,8.1,5.6,12.6,6.4,19.7l0,0   c-7-7.5-17.3-17.3-15.9-28.8c-3.3-3.2-8-5.3-10.7-8.8c-6-8.9-17.7-9.6-23.7-18.5c0.6-8.1-7.5-13-10.7-19.8   c-6.9-9.3-6.7-21.4-12.6-30.8c2.4-3.7,6.7-5.5,7-10.4C508.3,70.8,502.8,78.7,495.7,85.1z M518.2,49.2c4.7,3.5,12.1,7.5,15.3,0   c-3.2-3.6-7.4-5.8-12.4-6.8C518.7,43.8,517,45.7,518.2,49.2z M531.6,80.1c2,3.6,14.5,21.1,17.8,19   C546.4,91.6,541.4,81.9,531.6,80.1z M564.2,130.1c1.1,3.2,3,5.5,6.4,7.6c-0.5-4-1.9-6.6-4.4-8.7C565.5,129.4,565,129.6,564.2,130.1   z M551.6,105c-0.5,3.4,1,5.9,4.2,6.7C555.4,107.2,555.1,106.6,551.6,105z M562.8,123.8c-0.3-4.6-0.6-5.9-4.4-7   C557.5,120.3,559.7,122.5,562.8,123.8z M536.7,60.2c3.2,0.9,4.6,3.5,7.5,2.4C541.6,58.7,540.8,58.4,536.7,60.2z M508.6,42.8   c2.9,2.1,2.9,2.1,4.6,0C511,40.7,511,40.7,508.6,42.8z M506,43.3c0.5-2.4,0.3-2.6-2.8-2.3C503.4,42.8,504.7,43.1,506,43.3z    M527.9,55.7c-1.1-1.3-1.4-1.4-2.5-0.3C526.1,56.8,526.5,56.7,527.9,55.7z M533.9,57c-0.5-0.8-0.9-1.6-1.9-0.9   c0.3,0.5,0.7,1.1,1,1.6C533.2,57.5,533.5,57.3,533.9,57z" />
	<path display="inline" fill="#4ABA79" d="M189.4,359.6c1.3,1.9,1.2,3.9,1,6.1c-4-3.2-3.9,1.9-4.8,4.9c-1.1,0-2.1,0-2.4,1.4   c-6.4,7.5-10.3,14.3-10.8,19.1c3.9-1.5,4.5-5.6,7-8.2c2.4,2.4-3.6,13.4-5.9,15.9c-0.4-1.1-0.5-2.5-2.5-2c-0.1,1.4-0.3,3-0.4,4.5   c-1.8-1.5-3.6-3.1-5.6-4.7c-2.7-0.4-5.9,0.4-7.8-2.7c3.4-2.2,7.2-0.1,11.2-0.6c-47.5-11.7-101.5,0.8-150.9-1.6   c3.9-23.3,24.6-41.8,35.7-62.5c18.3,0.7,35.7-4.1,53.9-3.5c9,1.5,11.3,12.7,18.4,17.7C143.8,356.4,169,351.5,189.4,359.6z" />
	<path display="inline" fill="#FBDFD3" d="M189.5,297c12.4-0.6,25.4,1.3,36.4,7c0.8,13-6.4,29.2,4.1,39.8c0.9-0.6,1.6-1,2.2-1.4   c4.2,0.3,4.2,4.2,6.3,6.6c-1.8,1.7-3.2,3.1-4.6,4.4c-19.8,3.6-33.1-3.1-51-11.3c3.6-3.9,7.6-5.5,8.7-11.2c-1.1-1.1-2.3-2.2-3.3-3.1   c-11.3-0.3-21.9,9.4-33.1,2.5c-22-10.6-17.1-11-26.7-28.1c-2.2,0.5-1.8,2.1-1.8,3.5c-0.6-0.1-1.1-0.2-1.8-0.3   c1.8-9.9-2-24.8,10.1-29c13.5-10.1,32.6-27.4,49.2-13.1c-1.9,7.9-8.4,14.6-10.1,22.9c3.7,3.6,5.6,8.3,9.8,10.7   c0.9-0.6,1.8-1.2,2.9-1.9C187.7,295.7,188.5,296.4,189.5,297z M147.7,275.6c-1.5-3.5-14.4,1.1-13.2,5.2   C139.1,279,143.2,277.4,147.7,275.6z M138.8,315.1c0.5-3.1,0.2-3.4-2.8-2.9C136.3,313.8,137.4,314.4,138.8,315.1z" />
	<path display="inline" fill="#DAA371" d="M581.6,317.8c-2-27.8-1.7-56,0.6-83.8c31.3,101.8,21.2,207.6,21,312.5   c-12.3-36.5-17.3-75.4-22.8-113.4c3.1-4.7-0.3-11.1,1.5-16.7c2.1,6.9,4,13.4,6,19.9c1.8-11.3-7.7-22.8-6.4-34.7   c1.1-24.3-1.8-50.1,1-73.7c2.8,8.5,4.1,24.3,8.9,29.9C588.3,343.9,585.7,331.1,581.6,317.8z M600.3,392.8c-1.3,4.4,1,7.8,1.5,11.4   C603.1,400.3,602.2,396.7,600.3,392.8z" />
	<path display="inline" fill="#798BB3" d="M101.2,417.4c4.2,0,8.4,0,13,0c5.2,162.1-33.7,127.4,82.1,133.9c2.6,4.2,3.9,9.4,5.5,15   c-60.4,1.1-121.2-0.2-181.5,0.9c-0.4-7.7,4.9-12.7,7.8-18.9c24.4,0,48.6-0.3,73.2-0.1C100.8,504.6,100.9,461.1,101.2,417.4z" />
	<path display="inline" fill="#E4E4EB" d="M600.3,230.7c7.7,4.3,15.7,3,24,1.2c4.2-11.4,8.1-24,9.4-36.2c5-1.6,9,1.1,14,2.5   c0.4,6.7-3.1,14.7,0.3,20.8c7.4-2.7,5.7-11.5,5.8-17.7c1.8-1.3,3.3-1.1,5-0.3c0.8,5.8-4,12,0.7,17c4.6-4.7,2.5-11.1,3.8-17.3   c0.3-0.1,1.1-0.2,2.3-0.4c0.4,6.8-3.4,21.7,7.7,12.3c3,3,5.1-0.3,7.4-2.5c6.7,8.4,6.3-6.3,5.9-10.7c9-6.6,21.6-3.8,29-12.6   c4.3,2.5,8.2,5.3,11.8,8.4c-36.2,60.4-59.9,35.2-74.8,65.5c-12.1,4.6-23.4,10-35.8,13.3c-5.4-14.9-8-30.6-19.4-42.3   C598.5,231.3,599.4,231,600.3,230.7z" />
	<path display="inline" fill="#FBDFD3" d="M193.8,205.4c-1.5-1-2.2-2.3-1.7-4.7c1.3-0.6,2.9-1.4,4.8-2.4c1.7-5.4,7.4-6.3,12.5-5.2   c5.5-4,12.8-3.9,19.4-3.9c-1.4,16.1,10.6,20.5,8.7,39.1c-0.7,2.6-2.9-0.7-4.3,1.8c1.6,2.4,3.3,5.3,6.8,8.1   c-0.3-2.8-0.6-4.5-0.9-7.1c5.5,2.4,3.4,7.6,6.1,11.9c10.3,15.9,21.1,31.6,27.8,49c9.9,16.6,8.5,37.2,9.6,55.1   c-5.7,2.7-15.7,8.6-20.8,2.6c1.4-2.5,5.1-7.5,1.4-9.6c-3.5,4.5-7.8,14.5-14.5,12.5c-0.1-0.5-0.2-1.1-0.4-1.7   c4.2-2.6,4.8-23.8-2.2-18.2c0,4.8-1.9,8.8-6.7,11.8c-1.2-35.7,10.9-77.6-15.6-107.5c3.1-12-1-23.5-3-35.6c-1.2-1.2-2.7-2.5-4.1-3.9   c-2.1,0.7-5.8-1-6.3,1.5l0.1,0c-3-0.9-5.2,1.5-7.8,2.1c-1.3-0.7-2.6-1.4-3.9-2.2c-0.7,1.1-1,2.2-0.6,3.5   C196.7,203.6,195.2,204.5,193.8,205.4z M260.6,337.4c2.5-1.1,4-2,3.1-4.5C262,333.8,260.4,334.5,260.6,337.4z M260.8,320.6   c2.1-1.8,2.1-1.8,0-3.7C260.8,318.3,260.8,319.3,260.8,320.6z M244.3,248.9c-0.4-1.7-1.7-2.2-3.4-3   C241.7,248.9,241.7,248.9,244.3,248.9z M259.4,312.7c1.9-1.5,1.9-1.5,0.2-3.1C259.5,310.7,259.4,311.5,259.4,312.7z M246.5,255.3   c-0.5,2,0.1,2.8,2.1,1.9C247.7,256.5,247.1,255.9,246.5,255.3z M250.7,265.8c0.8,1,1.2,2.6,3.1,1.1   C253.2,265.4,252.6,264.4,250.7,265.8z M263.6,328.5c0.5-1.6,0.5-1.6,0-3.1C262.8,326.8,262.8,326.8,263.6,328.5z" />
	<path display="inline" fill="#EECABA" d="M250.5,345.8c0.2,2.1-0.6,3.8-2.2,5.2c-0.2-1,0.5-2.7-1.6-2.4c-1.5,5.7-5.1,5-8.3,9.3   c6.4,1.9,8.3-2,9.9-6.8c0.1,0.6,0.2,1.1,0.4,1.7c2.7,1.8,4.2-0.4,6-1.7c0,1.1,0,2.3,0,3.5c3.5-0.2,4.8-3.3,7.1-4.6   c5.1,6,15,0.1,20.8-2.6c-2.4,7.4-9.4,11.3-14.5,17.3c-37.2,1.2-62.7,1.9-95.2-19c0.9-0.6,1.9-1.2,2.9-1.8   c-3.6-3.3-15.6-1.3-21.1-0.2c-17.8-3-36.8-28.1-29.1-48c0.4,3.3,0.4,6.5-0.4,9.8c0.7,0.1,1.3,0.2,1.8,0.3c1.6,1.8,3.1,5.2,6,3.5   c-0.5,9.9,14.4,17,22.5,21.1c11.2,6.8,21.7-2.8,33.1-2.5c1,0.9,2.1,2,3.3,3.1c-1.1,5.7-5.2,7.3-8.7,11.2   c17.9,8.3,31.1,14.9,51,11.3c1.4-1.3,2.8-2.7,4.6-4.4c-2.1-2.3-2.2-6.3-6.3-6.6c-9.3-19.6,1.6-38.7-0.8-58.6   c-4.9-29-18.4-56.1-37.7-78.4c1.5-0.9,2.9-1.8,4.4-2.7c0.9,0.8,1.8,1.5,3.5,3c-0.5-2.5-0.8-4-1.1-5.5c0.7,0.4,1.4,0.7,2.1,1.1   c2.6-0.6,4.7-3.1,7.8-2.1c1.1,1.7,0.4,4.5,3.1,5.3c0.5-3,0.5-3-1.4-6.5c1.4-0.1,2.8-0.2,4.5-0.3c1.4,1.3,2.9,2.7,4.1,3.9   c2,12.2,6.1,23.7,3,35.6c26.5,29.9,14.4,71.8,15.6,107.5c4-2.4,5.5-5.5,6.7-8.9c2.7,0.1,2.7,0.1,3.6-3.3c1.4,2.4,1.7,5.1,2,7.8   C247.2,338,244.4,347.3,250.5,345.8z M181.5,337.6c-2.7-0.3-4.5-0.9-5.6,1.6C178,340.5,179.6,340.4,181.5,337.6z M215.6,206.2   c-1.3,3-1.3,3,1.5,4.9c0.2,0.1,0.7-0.2,1-0.4C217.4,209.4,216.6,208.1,215.6,206.2z M204.6,210c0.8-3,0.7-3.2-2.1-2.8   C203.3,208.2,203.9,209,204.6,210z M184.2,334.1c-0.7,0.1-1.4,0.2-2.1,0.2C181.8,336.7,184.3,336.6,184.2,334.1z M208.4,212.2   c-0.5,3-0.4,3.2,2.1,3C209.8,214.2,209.2,213.3,208.4,212.2z" />
	<path display="inline" fill="#35A65F" d="M65.5,391.4c29.5-3.5,60.1-6.6,89.6,0c-0.3,0.6-0.6,1.3-1.1,2.2c1.4,0,2.4,0,3.3,0   c1.9,3.1,5.1,2.4,7.8,2.7c2,1.7,3.8,3.2,5.6,4.7c0.4,2.5,0.9,4.9,1.9,7.2c4-1.2,0.7-6.7,1-9.7c2.3-2.4,8.3-13.4,5.9-15.9   c0.7-3.2,6.6-8.5,3.7-10.9c0.2-1.4,1.3-1.4,2.4-1.4c1.1,2,2.3,3.9,3.5,5.9c1.4-1.9,1.5-2,1.1-2.9c-1.7-2.4-1.5-6.1-3.4-8   c1.3-2.2,2.4-0.1,3.6,0.1c0.6,2.6,1.3,5.2,1.9,7.9c0-4.2,1.8-9.3-0.5-12.8c1.7-2.5,5,1.7,7.1,2.3c-0.6,3.6-7.5,18.8-13.4,29.4   c-2.4-3.5-1.6-7.4-2.9-12.7c-1.7,6.9-0.1,10.6,0.8,16.7c-3.2,6-6.1,12.3-9.8,17.8c-52.1-3-105.1,2.4-156.8-2.5   c-2-7.7-2.1-16.7,0.8-24.2c0.5,2-1.1,6.4,2.2,6.3c1.4-0.1,1.4-1.2,1.4-2.2c11.9,0,23.9-0.1,35.8-0.1c-0.6,0.7-1.2,1.3-2.2,2.4   c3.8-0.1,7,0.4,10.3-0.4C65.3,392.6,65.4,392,65.5,391.4z M88.3,393.2c10.1-0.5,21.8,3.6,30.6-1.8   C107.7,391.8,98.8,390.1,88.3,393.2z M82,393.4c-3.6-2.5-5.9-3.2-9.5-0.6C75.7,394.5,78.3,394,82,393.4z M41.8,406   c-0.1-3.5,0.7-10.7-3.3-10.5C40.6,398.9,38.4,402.9,41.8,406z M31.8,409.3c0.9-2.5,0.4-4.5-0.2-6.6c-0.6-1.9,0.5-4.1-1.6-7   C30.1,401.1,29.1,405.3,31.8,409.3z M81.4,405.3c-0.5-3.8,1.4-6.1-1.6-7.7C79,400.2,78.4,402.4,81.4,405.3z M139.9,392.6   c-1.3-3.2-6.1-0.9-9.9-0.4C134,393.3,136.9,392.3,139.9,392.6z M23.7,394c2.4,1.7,3.6,1.3,4.5-0.8C26.7,392.3,25.3,392.2,23.7,394z    M51.1,393.7c-1.9-1.3-3.8-1.4-6.9,0C47.3,393.7,49.2,393.7,51.1,393.7z M107.8,401.8c0.9-0.7,0.9-2.2-0.2-2.8   C105.5,398.9,106.2,401.5,107.8,401.8z" />
	<path display="inline" fill="#FBDFD3" d="M31.6,224.9c2.7,0.1,1.9-2.4,2.8-3.6c8.1,1.6,16-5.9,23.3-2.6c7.9,7.9,17.3-6.6,26.3-4.9   c2.9,2.8-0.7,5.9,1.5,7.9c-1,1.2-1.6,1.9-2.2,2.6c2.8,4.6,7.7-1.7,4.8-5.1c12.2-5,5.5,11.9,13,8c2.7-1.3-0.2-4.8,2.4-6.1   c13.1,6.3,22.6-8.8,14.8,23c-5.5,16.5-14.5,21.6-27.1,30.6c-1.5,0.3-1.3,2.3-1.2,3.8c-0.3,0.5-0.7,1-1,1.5c0.4,1.1,0.8,2.1,1.2,3.2   c-1.3,4.7-4.6,7.8-8.5,10.4c-1.8-0.6-1.5-2.4-2-3.8c4-3.1,4-7.8-0.1-9.8c-3.5,0.9-2.3,6.8-6.7,5.7c-2.3-0.6,0.6-3.6-1.8-4.2   c-2.6,1.6-3.9,4.6-6.9,5.4c0.3-0.2,0.3-0.5,0.1-0.8c0.8-1.8,1.7-3.7,2.3-5.2c4.1-2.4,8.9-2.6,12.6-6.2c-1.4-0.5-2.5-0.9-3.6-1.2   c0-0.6-0.1-1.2-0.1-1.7c1.2-1,2.7-2,1.7-4.5c-2,2-3.3,3.3-5.8,4c-0.2-0.1-0.6-0.1-0.8,0c-15.2-4.8-30.3-22-34.3-36.7   c-0.6-3.1-0.6-3.1-3.6-2.7l0.1,0.1C32.3,229.6,31.2,227.3,31.6,224.9z M56.7,246.9c1.9-5-3.1-8.6-0.8-13.7c0.6-2.7,1.7-5.4,0.7-8.5   c-0.8-0.3-1.6-0.7-2.9-1.3C51.1,230.4,49.2,242.1,56.7,246.9z M59.6,227.8c0.1,6.5,0.3,7,3.9,11.8c3.3-1.6-0.2-4.8,1.8-7   c1.2-1.2-0.4-3.3-1.6-4.7C62.4,228.2,61,227.9,59.6,227.8z M81.1,264.6c3.2-0.6,3.2-0.6,2-2.8C82.4,262.8,81.7,263.7,81.1,264.6z    M87.1,256.9c-1.4,0.7-2.3,1.5-1.7,3.6C86.9,259.4,88.5,258.9,87.1,256.9z" />
	<path display="inline" fill="#CCD2E9" d="M249.5,240.7c-5.5-9-6.9-19.4-9.8-29.4c1.8-1.5,3.7-3,5.6-4.6   c-2.4-8.4-5.4-16.7-12.3-22.2c22.1-9.4,37.3-28.5,60.3-36.1c0.5,4-2.7,7.6-1,11.4c-4.1,17.3,8.2,32.8,14.7,47.8   c-9.7,4.8-20,10.2-29.8,14.6c-1.9-2.2,0.3-5.1-1.9-7c-8.5,2.6-3.2,17.2-12.5,17.7c-0.4-2.7,1.4-6.9-2.3-7.5   C256,229.7,257.5,241.1,249.5,240.7z M256.1,179.9c-3.7-4.6-14.4,3.6-17.7,6.4c0.3,0.5,0.6,1,0.9,1.5   C245,185.1,250.6,182.5,256.1,179.9z M265.4,173c-4.3,2-7.1,3.1-7.3,7.3C261.7,179.2,263.7,177.1,265.4,173z M274.8,168.5   c-3.1-1.7-8.5,0.2-6.2,3C270.3,170.7,272,169.9,274.8,168.5z M283.2,162.8c-2-1.2-3.1-0.2-4.2,1.7   C281.2,165.2,282.4,164.7,283.2,162.8z" />
	<path display="inline" fill="#B7BDD5" d="M249.5,240.7c8,0.4,6.5-11,11-15.3c3.7,0.6,1.9,4.8,2.3,7.5c9.2-0.5,3.9-15,12.5-17.7   c2.2,1.9,0.1,4.8,1.9,7c9.7-4.4,20.1-9.7,29.8-14.6c3.3,4,6.7,8,9.9,12.2c-0.8,6.5,5.8,9.4,8.3,15c-7.9,5.5-16,14.6-26,14.7   c-8.6,10.5-17.1,20.8-26,31.7c-3.8-11.4-10.4-20.6-17.5-29.4c3.1-2,12-2.5,11.4-7.3c-4.2,1.6-8.5,3.3-12.7,5   C251.9,246.9,250.3,244,249.5,240.7z M278.2,235.7c1.4-0.6,2.7-1.1,4.5-1.9C280.2,232.7,278.6,232.9,278.2,235.7z M296.1,221.1   c-2.3-0.3-3.1,0.6-3.7,2.5C294.7,224,295.3,222.9,296.1,221.1z" />
	<path display="inline" fill="#CCD2E9" d="M183,256.7c-17.7-7.9-33.1,3.6-46.2,14.8c0.5-2.4,0.9-4,1.2-5.7c-0.6-0.5-1.2-1-1.7-1.5   c6.1-34.6,25.7-41.4,51.9-59.5c15.6,15.1,26.3,33.3,31.9,54c-4.6,3.4-11.5,1.6-16.6,4.5c-0.1,0.1-0.5-0.5-0.8-0.8   c-0.5-12.4,7.4-29-6.5-36.7c-10.1,5.6-5.2,21.4-11.2,30.5C184.2,256.5,183.6,256.6,183,256.7z" />
	<path display="inline" fill="#EECABA" d="M495.7,85.1c7-6.4,12.6-14.2,23-9.3c-0.4,4.9-4.7,6.7-7,10.4c5.9,9.4,5.7,21.5,12.6,30.8   c3.2,6.8,11.3,11.8,10.7,19.8c6,8.9,17.7,9.6,23.7,18.5c2.7,3.5,7.4,5.7,10.7,8.8c-2.1,11.6,8.7,18.1,13.6,27.4   c-1.3,1.2-2.5,2.3-1,3.9c1.9,0.2,1.7-1.2,1.8-2.3l0.4-0.4c0.7,0.1,1.3,0.2,1.9,0.7c-0.3-0.2-0.6-0.3-0.8-0.5   c-0.8-7.1-5.4-11.7-6.4-19.7c11.6,10,16.2,25.4,23.4,38.5c-1-0.3-2.1-0.7-3.8-1.2c0.9,4.3,7.1,10.1,11.2,6.8   c0.1,0.6,0.2,1.3,0.2,1.9c-2.5,3.4-6.2,5-10.3,6.5c-10.9-21.1-31.1-37.2-41.2-58.5c-28.7-14.8-51.5-43.5-48.3-77.1   c-1-0.1-1.6-0.2-2.4-0.2c-2.5,3.1-5,6.2-7.8,9.7C497.8,94.7,496.5,90,495.7,85.1z M589.4,201c-1.7,1.8-0.5,4.3,2,3.9   C591.6,202.8,591.6,201.3,589.4,201z M506.2,80c-0.3,0.8-0.4,1.3-0.6,1.8C507.6,82.9,508.2,81.1,506.2,80z" />
	<path display="inline" fill="#798BB3" d="M179.5,424.5c1.6,1.1,3.2,2.3,5,3.6c20.8,0,41.7,0,63.1,0c0.7,3.1,1.4,6.2,2,9.3   c-41.2,2.1-83,0.3-124.5,1.7c-1.1-4.3-0.3-8.5-0.6-13c13.4-1.5,27.2,1.6,40.3-1.6c0.2,0.6,0.3,1.1,0.4,1.6c3.3-2.3,1.3-5.3,3-7.5   c1.2,0.3,2.5,0.6,4.1,1.1c2.2-1.2,3.4-2,5.5-4.2C178.6,419.1,177,422.3,179.5,424.5z" />
	<path display="inline" fill="#35A65F" d="M189.4,359.6c-20.4-8-45.6-3.2-63.7-16.4c-7-5-9.3-16.2-18.4-17.7   c-18.1-0.6-35.6,4.2-53.9,3.5c2.7-4.2,5.4-8.5,8.2-12.8c13.2,2.6,24.9-4.9,37.7-4.4c3.4,0.2,6.5,0,9.1-2.7c3.3,0.6,6.4,1.1,9.7,1.7   C135.3,362.3,169.1,337.8,189.4,359.6z" />
	<path display="inline" fill="#CFCEDC" d="M600.3,230.7c-0.9,0.3-1.8,0.6-2.9,0.9c11.5,11.7,14,27.4,19.4,42.3   c12.4-3.3,23.7-8.7,35.8-13.3c14.6-30.1,38.8-5.3,74.8-65.5c2.5,0.7,5.2,3.4,2.8,5.7c-3.1,3.6-3.8,8.4-6.7,12.2   c-12.1,17.4-27.6,35.7-50.3,36.8c-6.6,0.7-10.3,5.3-12.7,11.1c-14.3,10-32.1,18.1-49.6,15.9c1.7-24.3-15.9-28.8-14.5-46.5   C598,229.4,599.2,229.3,600.3,230.7z" />
	<path display="inline" fill="#D8A16F" d="M701.7,327.9c-0.1-1.4-0.2-2.8-0.3-4.7c-18.7-2.2-39.6,2.1-57.4-1.7   c75.5-0.7,151.1,0.5,226.6-0.5c-19.9,4.7-43.9,0.2-65.3,1.7c-0.3,1.4-0.5,2.7-0.8,4.4c18.6,2.1,38.7-1.8,56.4,1.6   c-19,0.7-37.8,0.1-56.8,0c-0.5-1.7-0.8-3.2-1.5-5.7c-0.6,2.6-1,4.1-1.4,5.5c-32.2,0.2-65.1,1.1-97-0.5c-0.2-1.4-0.4-2.9-0.7-5.1   C702.8,325,702.2,326.5,701.7,327.9z" />
	<path display="inline" fill="#EDC9B9" d="M90,278.4c0-1.4-0.2-3.4,1.2-3.8c17.4-10.2,31.1-26.7,29.6-48.9   c3.4,8.6-2.5,20.3,8.6,24.3c-7.6,8.1-7.6,18.9-15.6,26.8c0.8,0.9,3,0.1,2.9,2.2c-3.4-1.2-12.5-2.1-12,3.3c-0.6,0.1-1.2,0.2-1.3,0.3   c-1.9,3.2-3.6,6.2-5.4,9.2c6.6,1.9,13.4,3.9,20.4,4.1c-0.1,3.4-0.2,6.8-0.4,10.3c-5.9,0.4-10.9-3.7-16.5-5.2   c-5.5,0.9-10.1-1-15-2.9c-0.2-0.6-0.3-1.2-0.5-2.1c2.7-5.3,10.8-11.7,5.2-17.3c6.2,1.8,14-1.6,14.3-8.9c-2.7,0.9-4,3.4-6.6,5   c-2.4,0.5-5.5,0.5-7.9,2.3c0,0.7,0.1,1.1,0.1,1.5C90.8,278.7,90.4,278.6,90,278.4z" />
	<path display="inline" fill="#B6BCD4" d="M202.7,262.5c0.3,0.3,0.6,0.8,0.8,0.8c5.2-2.9,12.1-1.1,16.6-4.5c0.8,1.8,1.7,3.6,2.4,5.2   c-1,1-1.6,1.7-2.2,2.4c0.9,1.7,1.8,0.9,2.7,0.5c2,1.9,1.9,5.6,3.1,8.2c-0.6,1.2-2.8,1-2.3,3.2c1,0.3,2.1,0.6,3.3,0.8   c0.7,6.5,2.6,12.8,0.7,19.3c-8.5-2.9-15.8-4.4-24.7-5c-0.1-4.7-0.2-9.1-0.3-13.5c5.5-1.2,13.1-4.5,14.4-10   c-4.7,3.6-11.2,5.3-14.3,10.1c-4-5.1-5.8-11.4-10.8-16.1c1.1,0.2,2.1,0.4,3.2,0.5c0.7-1.4-0.4-3.3,1.4-4.2c0,2.3,0,4.7,0,7.2   C200.3,270.3,202,265.4,202.7,262.5z M221.2,273.2c-3.4-1.3-6.5,3.1-3.9,5.3C219.7,277.8,220.3,275.7,221.2,273.2z" />
	<path display="inline" fill="#90A1C3" d="M115.9,429.4c0-3.8,0-7.7,0-11.9c2.3-0.1,4.2-0.2,6.3-0.3c0.6,41.1-1.7,82,0.5,122.5   c-0.4,2.5-3.5,3.5-5.7,5.3C116.5,506.4,118,467.9,115.9,429.4z" />
	<path display="inline" fill="#FADED2" d="M118.5,295.9c-7.1-0.3-13.8-2.2-20.4-4.1c1.8-3.1,3.5-6,5.4-9.2c4.3-1.2,9.7-0.6,13.3-3.5   c0.1-2-2.1-1.3-2.9-2.2c7.9-7.9,8-18.8,15.6-26.8c1.5,0.6,3,1.1,4.9,1.9C132.5,268.2,124.2,280.8,118.5,295.9z M125.8,275.7   c-1.9-0.5-1.9-0.5-2.8,1.1C124.9,277.3,124.9,277.3,125.8,275.7z" />
	<path display="inline" fill="#5674E4" d="M291.5,162.3c0.3-0.8,0.5-1.7,0.8-2.5c2.8-1.6,3-4.6,3.8-7.2c2.2,0.4,3.9-0.8,6-2.4   c0,2,0,3.4,0,4.7c-3.9,0.5-3.9,0.5-5.6,5.5c2.2-1.6,3.9-2.8,5.6-4.1c0,2,0,4,0,4.9c-2.6,3.3-4.5,3.7-4.9,7.3c1.7-1,2.9-1.7,4.4-2.6   c1,5.4,2.7,9.6,4.3,14.7c-1.2,1.5-2.3,3-3.8,4.8c3,0.3,3.6-2.4,5.7-3c0.9,2.2,1.7,4.5,2.6,6.7c-1.1,1-2.2,2-3.4,3.1   c0.1,0.2,0.3,0.5,0.4,0.7c1.5-0.4,2.9-0.8,4.4-1.2c1.1,2.1,2.3,4.2,3.5,6.4c-0.7,1.2-1.5,2.5-3,5c2.3-1.3,3.4-2,4.7-2.7   c1.5,2.4,2.9,4.5,4.3,6.7c-5.4,3.4-3.6,10.3,1.6,12.8c0.8-0.1,1.5-0.1,2.3-0.2c-0.9,1.2-1.8,2.5-2.8,4   c-14.3-17.7-25.4-38.6-28.9-61.2C292.7,162.4,292.1,162.3,291.5,162.3z" />
	<path display="inline" fill="#B7BCD4" d="M196.6,260.3c-1.8,0.9-0.7,2.8-1.4,4.2c-5.1-0.3-8.2-5.1-12.2-7.7c0.6-0.1,1.2-0.3,2-0.4   c6-9.1,1.1-24.8,11.2-30.5c12.2,6.6,7.7,21.2,6.5,32.2c-1.1-1.2-1.4-3.7-4.5-2.2C197.8,257,197.2,258.7,196.6,260.3z M199.9,242.6   c-0.8,2.5-1.4,4.1,0.7,5.3C201.6,245.2,201.6,245.2,199.9,242.6z M199.5,236.9c-0.6,1.7-0.7,3.1,1.6,3.7   C201.8,238.8,201.9,237.5,199.5,236.9z M195.7,229.4c1.4,2.1,2,3,2.8,4.3C199.1,230.7,199.1,230.7,195.7,229.4z" />
	<path display="inline" fill="#ECC9B9" d="M181,293.8c-0.9-1-1.7-1.9-2.6-2.9c0.7,0,1.4-0.1,2.2-0.1c-0.2-1.9-0.8-2.7-2.3-1.7   c0.1,0.6,0.1,1.2,0.2,1.8c-1.3-1.5-2.5-3-4-4.8c1.6-8.3,8.1-14.9,10.1-22.9c3.6,2.1,6.1,5.2,8.8,8.4c0,5.6-1.9,10.7-4.9,15.3   c5.5,4.6,6.7-2.4,9.8-5.8c2.2,3.3,1.1,7.3,1.6,11.2c-3.4,1.7-7.7-0.3-10.4,3c0,0.5,0.1,1.1,0.1,1.8c-0.9-0.6-1.8-1.3-2.5-2.1   c-1.1,0.7-2,1.3-2.9,1.9C184.4,294.2,183.8,293.6,181,293.8z" />
	<path display="inline" fill="#8E9FC0" d="M52.3,545.6c-7.1-1.6-13.3-0.6-21.4-0.8c2.2-2.2,3.7-3.6,5.2-5.1   c20.6,0.2,41.3-0.9,61.9,0c0.3,1.8,0.5,3.6,0.8,5.8C83.3,546.3,67.8,545.4,52.3,545.6z" />
	<path display="inline" fill="#F6DBD0" d="M524.9,30.7c-21-5.9-37.2,14-58.7,11.2c-0.4-0.5-1-1.5-1.8-2.6   C484,34,505.8,16.8,524.9,30.7z" />
	<path display="inline" fill="#8599B9" d="M248.2,419.5c1.5,1.9-0.2,3.3-0.7,5c-21.2-0.2-43.4,1.7-64.2-1c-0.5-1.6-0.5-1.6,0.5-3.4   C205.1,420.1,226.7,420.6,248.2,419.5z" />
	<path display="inline" fill="#8D9FC0" d="M122,543.6c24.2-3.2,51.2,0.9,76.5-0.6c-0.2,3.5-2.9,3.9-5,5.2   c-23.8-4.9-48.6-1.6-72.8-1.6C121.3,545.3,121.7,544.4,122,543.6z" />
	<path display="inline" fill="#5774E5" d="M481,164.7c-0.2-4.6,21.8-18.1,26.8-22c1.7,3.7,3.3,7.3,3.9,11.6   C501.6,157.6,490.7,159.7,481,164.7z" />
	<path display="inline" fill="#A77D56" d="M582.5,327.8c-2.9,23.6,0.1,49.4-1,73.7c-1.2,12,8.3,23.4,6.4,34.7c-2-6.5-3.9-13-6-19.9   c-1.8,5.6,1.5,12-1.5,16.7c0-36.7,0-73.4,0-110.1C581.9,324.2,582.8,325.8,582.5,327.8z" />
	<path display="inline" fill="#8BA0C2" d="M163.6,418.4c0,1.4,0,2.8,0,4.1c-12.9-0.2-25.7-0.3-38.9-0.5c-0.1-1.6-0.3-2.9-0.4-4.4   C137.2,416.4,150.5,418.4,163.6,418.4z" />
	<path display="inline" fill="#0D1121" d="M319.4,208.9c0.6-0.5,1.1-1.1,2-1.9c-1.4-2.2-2.8-4.4-4.3-6.7c-1.3,0.8-2.4,1.4-4.7,2.7   c1.5-2.5,2.3-3.8,3-5c-2.9-5.2-5.7-10.1-7.5-15.7c-2.1,0.6-2.7,3.3-5.7,3c1.4-1.8,2.6-3.3,3.8-4.8c-0.5-1.7-1-3.2-1.4-4.7   c0.4-0.8,0.7-1.7,1.1-2.5c7.5,13.8,14.5,27.4,23.5,40.3c-1.9,0.8-1.1,2.6-1.4,3.9c-0.8,0.7-1.6,1.4-2.3,2.1   c-0.8,0.1-1.5,0.1-2.3,0.2c0.3-2,2-3.2,3.4-4.2c0.1-3.4-2.3-4.8-3.8-6.6C321.4,209.1,320.3,210.8,319.4,208.9z" />
	<path display="inline" fill="#F2F3F3" d="M625.7,216.3c-0.9,3.7-1.9,7.4-3,11.6c-6.2,2.9-12.4,3.8-19.2,0.1   c8.5-3.4,16.1-6.3,21.1-14.1C625,214.7,625.4,215.5,625.7,216.3z" />
	<path display="inline" fill="#E7C7B9" d="M219.9,185.5c-0.8,0.1-1.5,0.2-2.7,0.4c-1.6-5-5.7-8.7-7.3-13.8c1.8-2.3,3.6-4.7,5.4-7.1   c4.8,3.2,1.3,7.7,2.4,11.6c1-0.1,1.9-0.2,3.3-0.3c2.1,1.5,3.5,4.1,5,7.3C223.8,184.4,222.1,184.9,219.9,185.5z" />
	<path display="inline" fill="#F6DCD1" d="M276.4,282.4c2.9-4.1,6.8-7.2,10.6-11.5c1.6,4.9,2.9,9.2,4.3,13.5   c-2.6,2.7-6.6,1.7-10.3,2.5C279.3,285.9,276.7,284.9,276.4,282.4z" />
	<path display="inline" fill="#EBC6B7" d="M276.4,282.4c0.3,2.5,3,3.5,4.6,4.6c3.7-0.9,7.7,0.2,10.3-2.5c4.3,6.5-4.7,11.8-10.5,12.5   C279.3,293,272.1,286.1,276.4,282.4z" />
	<path display="inline" fill="#EFD5CA" d="M223.8,161c-1.4-0.7-2.7-1.4-4.4-2.3c2.5-2.7,5.7-0.9,9.3-1.4c3.7,5,8.4,10.3,9.5,17.3   c-0.8,0.5-1.7,1.2-2.9,2C232.3,170.8,228.6,165.5,223.8,161z" />
	<path display="inline" fill="#1C2445" d="M429.5,192.9c-1-19.3,4.5-38.4,11.1-56.3l0,0c0.7-0.6,1.4-1.2,2.9-2.4   c-5.5,17.6-13.6,37.6-11.4,55.3C431.2,190.6,430.3,191.7,429.5,192.9z" />
	<path display="inline" fill="#1D1716" d="M91.6,279.7c5.8,4.6-3.6,11.8-5.5,16.4c0.2,0.9,0.4,1.5,0.5,2.1c-5,1.4-8.9,5.5-14.3,4.7   c-0.5-0.9-1.2-2-1.9-3.2c8.9,0.8,16.2-9.2,19.8-16.5c-0.4-1.1-0.8-2.1-1.2-3.2C89.9,279.9,90.7,279.8,91.6,279.7z" />
	<path display="inline" fill="#CFBAB0" d="M604.8,154.9c7.3,14.1,22.6,26.5,24.3,42.4c-7.2-14.4-17.7-26.9-25.6-41   C603.9,155.8,604.3,155.4,604.8,154.9z" />
	<path display="inline" fill="#DBDDE4" d="M633.1,192.9c0.9-4.6,1.5-8.2,2.3-12.3c4.7,1.7,7.6,5.3,12,8.4c0,0.9,0,2.4,0,4.1   C642.5,193.5,638.2,190.3,633.1,192.9z" />
	<path display="inline" fill="#EDD4C8" d="M248.1,170.2c-2,0.9-3.7,1.7-5.5,2.6c-2.4-6-5.1-10.8-9-16   C240.4,154.1,245.9,164.4,248.1,170.2z" />
	<path display="inline" fill="#E1C8BE" d="M228.7,189.3c-2.1,0-4.2-0.1-6.3-0.1c3.4-1.8,6.9-0.6,11.1-0.9c4.3,4.5,5.8,10.8,8.3,17   c-1,0.8-1.9,1.5-2.8,2.1c-2.8-1.9-3.4-5.4-5.5-8.5c0.3-1.1,0.7-2.5,1.2-4.6c-1.5,0.2-2.4,0.3-3.2,0.4c-0.2-1.8-0.5-3.5-0.7-5.3   C229.9,189.3,229.3,189.3,228.7,189.3z" />
	<path display="inline" fill="#E8D0C5" d="M223.8,161c1.2,1.2,2.4,2.4,3.5,3.5c-0.6,0-1.2,0.1-1.7,0.1c0.4,4.7,4.9,9.1,6.3,14   c-1.2,0.8-2,1.3-3,2c-2.2-2.7-4.3-5.4-6.6-8.3c0.1-3.9-1-7.2-3.8-10.3c1.7-1.2,3.1,0.5,4.7,0.2C223.5,162,223.6,161.5,223.8,161z" />
	<path display="inline" fill="#19203E" d="M305.6,173.4c-0.4,0.8-0.7,1.7-1.1,2.5c-1.9-2.9-1.8-6.5-2.9-10c-1.5,0.9-2.6,1.5-4.4,2.6   c0.4-3.6,2.3-4,4.9-7.3c0-3.1,0-7.2,0-11c-2.1,1.7-3.8,2.9-6,2.4c-0.1-1.4-0.5-2.9,1.1-3.8c0.1,0.7,0.3,1.4,0.4,2.3   c3.6-3,5.1-2.9,6.9,1.3C304.7,159.4,303.9,166.5,305.6,173.4z" />
	<path display="inline" fill="#8A9CBC" d="M203.9,543.5c5.4,8.6,6.9,9.3,0.7,18.1c-1.6-4.6-3-8.8-4.5-13.4   C201.3,546.8,201.4,544.2,203.9,543.5z" />
	<path display="inline" fill="#433527" d="M700.2,316.5c0.4-10.2-6.2-18.8-8.3-28.9c6.7,7.3,9.1,19,11.3,28.9   C702.2,316.4,701.2,316.5,700.2,316.5z" />
	<path display="inline" fill="#DDC7BD" d="M250.5,156.4c1.9,3.8,3.5,7,5.2,10.4c-1.3,1.3-1.3,1.3-3.5,1.6c-2.5-3.8-5.1-7.7-7.9-12   C246.8,156.4,248.7,156.4,250.5,156.4z" />
	<path display="inline" fill="#4962BC" d="M325.4,219.6c0.8-0.7,1.6-1.4,2.3-2.1l0-0.1c1.6,1.4,1.8,2.9,2.6,5.1   c-1,0.5-2,0.9-3.3,1.6c1.4,0.3,2.4,0.5,3.6,0.8c-1.2,1.9-4.1,1.7-6.3,2.9c-2.7-1.3-3.9-5.5-7.4-5.8c0-0.8,0-1.6,0-2.3   c0.8-0.3,1.5,2,2.4,0.1c1,1.1,1.9,2.3,3.3,3.8C323.6,222.1,324.5,220.9,325.4,219.6z" />
	<path display="inline" fill="#3F3023" d="M582.5,327.8c0.3-2-0.6-3.5-2.1-4.8c0.4-1.7,0.8-3.5,1.1-5.2c2.9,7.9,4.1,16.3,6.2,24.5   c-0.4,0.8-0.7,1.6-1.1,2.4C585.3,339.1,583.9,333.4,582.5,327.8z" />
	<path display="inline" fill="#282929" d="M12.1,226.7c1-0.5,2-1,3.1-1.5c-0.6-1-1.1-1.7-1.6-2.7c1.6,0,3,0,4.7,0   c0.5,0.9,1.1,1.9,1.6,2.8c-4,3.9-6.9,2.2-4.9,8.9c0.1,0.4-0.4,0.9-0.7,1.5C11.7,231.4,11.7,231.4,12.1,226.7z" />
	<path display="inline" fill="#44403E" d="M242,233.4c-0.8-0.5-1.6-1.1-3.1-2.1c0.3,2.5,0.5,4.3,0.9,7.1c-3.5-2.8-5.2-5.7-6.8-8.1   c1.4-2.4,3.6,0.9,4.3-1.8c1.1,0.9,1.7,2.5,3.6,2.6C242,231.1,242.1,232.3,242,233.4z" />
	<path display="inline" fill="#BABFC5" d="M680.8,210.1c-0.8,0.8-1.6,1.6-2.4,2.4c-0.1-4.2-0.3-8.4-0.4-13c0.7-0.1,1.8-0.2,3.3-0.4   C681,203,680.9,206.3,680.8,210.1z" />
	<path display="inline" fill="#121010" d="M32.7,231.8c3-0.4,3-0.4,3.6,2.7c-2.6,0.8-2.6,3.1-2.8,5.5c-1.1,0.6-2.2,1.3-3.5,2   c-0.5-0.5-0.9-0.9-1.3-1.2C31.8,238.7,31.7,235.1,32.7,231.8z" />
	<path display="inline" fill="#2D2529" d="M254.3,249.3c4.3-1.7,8.5-3.3,12.7-5c0.6,4.8-8.2,5.3-11.4,7.3   C254.3,251.4,254.3,250.3,254.3,249.3z" />
	<path display="inline" fill="#7586AD" d="M98.7,438.6c-4.4-2.7-3.2-11.4-0.7-12.8C99.1,429.7,98.2,433.5,98.7,438.6z" />
	<path display="inline" fill="#A8ACB1" d="M673.4,212.5c-0.8,0.4-1.6,0.8-2.4,1.2c0.2-5.9,0.5-9.2,1.5-15.7   C675,203.1,673.1,207.2,673.4,212.5z" />
	<path display="inline" fill="#DCE2E9" d="M657.2,191c-0.2,1.8-0.4,3.3-0.7,5.3c-1.4-0.4-2.4-0.7-3.6-1.1c0.2-1.7,0.4-3.2,0.7-5.1   C654.8,190.4,655.9,190.7,657.2,191z" />
	<path display="inline" fill="#174528" d="M183.4,396.4c-0.9-6.1-2.5-9.8-0.8-16.7c1.3,5.3,0.5,9.2,2.9,12.7   C184.8,393.7,184.1,395.1,183.4,396.4z" />
	<path display="inline" fill="#B8C8CE" d="M693.1,191.7c-1.8,0.8-3.6,1.7-5.7,2.7c-1.1-1.1-2.1-2.1-3.6-3.6c3.4-0.7,6.3-0.4,9.3-0.3   C693,190.9,693.1,191.3,693.1,191.7z" />
	<path display="inline" fill="#11341E" d="M191.9,360.7c2.3,3.5,0.5,8.6,0.5,12.8c-0.9-3.8-2.3-7.6-1.8-11.5   C191,361.6,191.4,361.1,191.9,360.7z" />
	<path display="inline" fill="#B2BBC0" d="M710.3,185.6c-2.4,3.4-6.2,3.5-9.8,3.8c-0.4-0.5-0.8-0.9-1.3-1.4c3.5-0.5,6.6-2,9.5-3.9   C709.3,184.6,709.8,185.1,710.3,185.6z" />
	<path display="inline" fill="#292A2A" d="M46.3,258.5c-5.7-0.6-5.8-5-7.8-8C41.7,249,43.6,255.9,46.3,258.5z" />
	<path display="inline" fill="#D6C1B7" d="M69.1,298.4c-1.6-1.2-3.2-2.4-4.9-3.7c0.5-0.5,1.1-1.1,1.6-1.6c2.5,0.4,4.4,1.9,5.8,4   C71.3,298.6,70,298.2,69.1,298.4z" />
	<path display="inline" fill="#AB9C94" d="M69.1,298.4c0.9-0.2,2.2,0.2,2.5-1.3l0.4-0.4c0.6,0.5,1.2,1,1.9,1.5   c1.9-0.8,3.6-1.5,3.9-3.8l-0.1,0.1c0.4,0,0.9,0,1.3,0c0.4,0.4,0.8,0.8,1.2,1.2c-2.2,4-6,3.9-9.7,3.8   C70,299.2,69.5,298.8,69.1,298.4z" />
	<path display="inline" fill="#CBDEE5" d="M682,191.6c-0.1,1.4-0.1,2.3-0.2,3.4c-2.4,0.2-4.5,0.8-5.8-2.2   C677.7,191.6,679.5,191.7,682,191.6z" />
	<path display="inline" fill="#364E99" d="M334.8,228c0.2,1.8,0.3,2.6,0.5,3.9c-2.5,0-4.6,0-7,0C329.4,228.6,332.3,229.3,334.8,228z   " />
	<path display="inline" fill="#2B2B2B" d="M23.8,260.7c1.5-2.1,2.5-3.6,3.7-5.3c0.7,0.5,1.3,0.9,2.3,1.5c-1.4,1.8-2.7,3.5-4.2,5.4   C25.1,261.8,24.6,261.4,23.8,260.7z" />
	<path display="inline" fill="#A9978F" d="M65.8,293.1c-0.5,0.5-1.1,1.1-1.6,1.6c-1.2-0.6-2.4-1.2-3.8-2c1.1-2.6,1.8-5,4-6.7   c0.2,0.3,0.2,0.5-0.1,0.8c0.1,0.6,0.1,1.1,0.2,1.7C62.2,291.5,63.3,291.4,65.8,293.1z" />
	<path display="inline" fill="#2E2F2F" d="M30.1,239.4c-0.4,0.4-0.9,0.9-1.3,1.3c-1.7-3.4-1.7-6.7,0-9.8c0.5,1.6-0.9,3.7,1.3,4.9   C30,237,30.1,238.2,30.1,239.4z" />
	<path display="inline" fill="#353737" d="M24.1,283.3c2,2.6,0.1,4-0.5,5.9c-1.1-0.5-2.1-0.9-3.5-1.6   C21.5,286.1,22.6,284.9,24.1,283.3z" />
	<path display="inline" fill="#272828" d="M43.4,306.5c1.1-1,1.7-1.6,2.6-2.4c1.2,1.1,2.2,2,3.5,3.1   C47.5,310.2,46.1,307.5,43.4,306.5z" />
	<path display="inline" fill="#3E58AC" d="M300.8,148.8c-1,0.7-2,1.3-3.3,2.2c-0.2-0.9-0.3-1.6-0.4-2.3c1.2-1.6,2.4-3,4.4-3.7   C302.9,146.7,301.1,147.6,300.8,148.8z" />
	<path display="inline" fill="#292929" d="M46.2,292.2c0.2,3.4-1.7,4.8-3.9,6C39.8,295.8,45.1,294,46.2,292.2z" />
	<path display="inline" fill="#1B1C1C" d="M47.5,273.3c1.2,1.5,1.6,2.1,2.3,2.9c-1.7,1.3-2.7,2.2-2.9,4.3   C43.4,279.6,46.9,276.3,47.5,273.3z" />
	<path display="inline" fill="#282828" d="M31.3,246.8c0.2-0.7,0.3-1.5,0.6-2.8c2.4,2.3,4.1,4.3,5.9,7.1   C34.4,250.7,33.6,247.5,31.3,246.8L31.3,246.8z" />
	<path display="inline" fill="#323333" d="M24,275.6c0.8-0.7,1.4-1.2,2-1.8c1.6,0.4,2,0.8,2.9,2.3c-0.5,0.7-1,1.4-1.7,2.4   C26,277.5,25.1,276.6,24,275.6z" />
	<path display="inline" fill="#212222" d="M9.2,288.6c-3.7-1.8-3.7-1.8-3-5.9C8,284,8.6,285.8,9.2,288.6z" />
	<path display="inline" fill="#978A83" d="M604.8,154.9c-0.4,0.5-0.9,0.9-1.3,1.4c-1.8-1.9-2.7-4.3-3.8-7.5   C602.9,150.3,603,152.5,604.8,154.9z" />
	<path display="inline" fill="#232525" d="M11.4,245c-0.9,0.4-1.9,0.9-3.5,1.5c0.2-1.8,0.4-3.1,0.5-4.3   C10.5,242.2,11.3,243.1,11.4,245z" />
	<path display="inline" fill="#2E4486" d="M304.5,137.8c0,0.8,0,1.6,0,2.4c-1.8,1-3.7,2-6.1,3.3C299.4,139.9,302.1,139,304.5,137.8z   " />
	<path display="inline" fill="#292D3A" d="M316.9,222.1c2.4,0.3,3.8,2,4.9,3.9c-0.5,0.5-1,1-1.5,1.5   C318.6,226,316.8,224.7,316.9,222.1z" />
	<path display="inline" fill="#1F2121" d="M45.4,266.5c0.7,1.6,1.2,2.8,1.8,4.2c-2.1,0.7-2.9-0.1-3.6-2   C44,268.2,44.6,267.5,45.4,266.5z" />
	<path display="inline" fill="#211818" d="M66.8,270.1c1.3,0.4,2.6,0.8,3.8,1.1c-0.6,0.1-1.1,0.2-2,0.4c0.5,0.6,0.8,1.1,1.3,1.7   c-1.7,0.8-2.9,0.2-3.9-1.2C66.3,271.5,66.5,270.8,66.8,270.1z" />
	<path display="inline" fill="#191B1B" d="M58.2,277.4c-2.2-0.2-4.1-1.1-6.3-3.2C55.6,273.2,56.2,275.3,58.2,277.4L58.2,277.4z" />
	<path display="inline" fill="#2A2C2C" d="M31.2,246.8c-0.1,0.6-0.2,1.2-0.3,1.9c-1.6,0.6-3.2,1.1-5.1,1.8   C27.5,247.9,27.5,247.9,31.2,246.8L31.2,246.8z" />
	<path display="inline" fill="#5B5F62" d="M699.2,188.1c0.4,0.5,0.8,0.9,1.3,1.4c-2.5,0.8-4.9,1.5-7.4,2.3c0-0.4,0-0.8-0.1-1.2   C695.1,189.7,697.2,188.9,699.2,188.1z" />
	<path display="inline" fill="#222424" d="M25.5,300.9c-1.4-1.1-2.6-2-4-3.2C25.4,297.1,25.9,297.5,25.5,300.9z" />
	<path display="inline" fill="#1E1F1F" d="M24.7,303.6c1.7,0.4,3.6,0.5,3.8,2.9C25.9,306.6,25.3,305.1,24.7,303.6z" />
	<path display="inline" fill="#8A8F93" d="M710.3,185.6c-0.5-0.5-1-1-1.5-1.5c1.5-1.1,3-2.3,5.5-4.3   C713.6,183.6,712.6,183.6,710.3,185.6z" />
	<path display="inline" fill="#2D3136" d="M227.1,279c-1.1-0.3-2.2-0.6-3.3-0.8c-0.6-2.2,1.7-2,2.3-3.2   C227.9,276,227.3,277.6,227.1,279z" />
	<path display="inline" fill="#272929" d="M56.7,311.4c-1.6,0-2.8,0-4.4,0C53.1,308.5,53.8,308.6,56.7,311.4z" />
	<path display="inline" fill="#C4BBC1" d="M662.6,192.5c2.6,0.6,2.6,0.6,1.4,3.8C662.1,195.4,662.1,195.4,662.6,192.5z" />
	<path display="inline" fill="#BEB0B5" d="M673.7,193.4c-1.3,0.9-2.2,1.5-3.5,2.5C669.2,192.7,670.6,191.2,673.7,193.4z" />
	<path display="inline" fill="#232424" d="M67.3,307.4c1.6-1.1,2.8-0.6,3.8,0.9C69.2,309.3,69.2,309.3,67.3,307.4z" />
	<path display="inline" fill="#3B2A28" d="M74.2,270.1c1-0.9,1.9-1.8,3.2-2.9c1,2.5-0.5,3.4-1.7,4.5   C75.1,271.1,74.6,270.6,74.2,270.1z" />
	<path display="inline" fill="#909B9B" d="M625.7,216.3c-0.4-0.8-0.8-1.6-1.1-2.4c0.6-0.9,1.2-1.7,1.9-2.9   C627.3,213.3,627.1,214.9,625.7,216.3z" />
	<path display="inline" fill="#2C2E2E" d="M51.4,263.8c-2.4-0.4-1.7-1.7-1.6-3.1C51.6,261.4,52.3,262.3,51.4,263.8z" />
	<path display="inline" fill="#292C2C" d="M16.9,296c-0.9-0.7-1.6-1.3-2.7-2.2C17.3,293.6,17.3,293.6,16.9,296z" />
	<path display="inline" fill="#BAA9A1" d="M60.2,289.2c-0.4,0.8-0.8,1.6-1.3,2.5C57.5,290.1,58.3,289.4,60.2,289.2z" />
	<path display="inline" fill="#293030" d="M54.3,298c-1.1,0.1-1.9,0.2-2.9,0.3C52.5,296.1,52.5,296.1,54.3,298z" />
	<path display="inline" fill="#121010" d="M30,235.8c-2.1-1.2-0.8-3.3-1.3-4.9C30.2,232.3,30.2,233.9,30,235.8z" />
	<path display="inline" fill="#121010" d="M31.5,226.6c0.4,1.8,0.9,3.5,1.3,5.3C30.3,231.5,31.6,228.4,31.5,226.6z" />
	<path display="inline" fill="#3B2A28" d="M71.5,271.2c0.9-0.4,1.8-0.7,2.6-1.1C73.6,271.4,72.7,271.5,71.5,271.2z" />
	<path display="inline" fill="#0D1121" d="M329,218.8c-0.4-0.4-0.8-0.9-1.2-1.3C328.1,217.9,328.5,218.4,329,218.8z" />
	<path display="inline" fill="#191B1B" d="M58.2,277.5c0.3,0.2,0.6,0.3,0.8,0.5C58.8,277.8,58.5,277.6,58.2,277.5L58.2,277.5z" />
	<path display="inline" fill="#1E1C1C" d="M14.1,211.3c0.5,0.3,1,0.7,1.5,1C15.1,212,14.6,211.7,14.1,211.3z" />
	<path display="inline" fill="#4E5667" d="M250.9,424.4c2.2,6.7,2.2,6.7,1.3,10C249.6,431.3,250.6,428.2,250.9,424.4z" />
	<path display="inline" fill="#DEC3B5" d="M103.5,221.1c-2.6,1.3,0.3,4.9-2.4,6.1c-0.8-1.6-1.5-3.2-2.3-4.9   C101.1,220,101.1,220,103.5,221.1z" />
	<path display="inline" fill="#686868" d="M30.1,221c0.2-0.7,0.4-1.4,0.6-2.2c2.5,1,1.4,2.7,1.8,4.8C31.4,222.4,30.7,221.7,30.1,221   L30.1,221z" />
	<path display="inline" fill="#0A0504" d="M701.7,327.9c0.6-1.4,1.1-2.8,1.9-4.9c0.3,2.2,0.5,3.7,0.7,5.1c31.9,1.5,64.8,0.7,97,0.5   c0.4-1.4,0.7-2.9,1.4-5.5c0.6,2.5,1,4,1.5,5.7c21.8,0.6,44.1-0.5,65.3,2.4c-21.4,0.7-43,0.3-64.3,0.5c-4.4,43.9,0.3,90.3-2,135   c-4.4-44.1-0.9-89.8-1.9-134.4c-63-2.3-126.8,0.8-189.6-1.6C639.2,324.9,673.5,332.1,701.7,327.9z" />
	<path display="inline" fill="#2A2016" d="M618,331.5c28.2-0.6,56.6,0,84.8-0.1c0.4,0.4,0.9,0.8,1.3,1.2c-5,67.9,2.7,138-0.9,206.3   c-2.8-68.3-0.9-137.2-1.4-205.7C674.3,330.1,645.6,334.6,618,331.5z" />
	<path display="inline" fill="#1B140E" d="M703.9,466.1c-1.9-42.4-2-87.7,0-129.8C704.3,379.6,704.4,422.9,703.9,466.1z" />
	<path display="inline" fill="#0B0907" d="M807.8,569c-2.1-0.7-1.7-2.8-1.9-4.6c1.1-15.3-2.3-31.5,1.8-46.2   C808.7,526.3,808.7,563.8,807.8,569z" />
	<path display="inline" fill="#1B271B" d="M869.4,331.2c-6.9-3.5-17.3,1.3-24.3-2.1c12.9,0.7,26.4-2.8,38.6,2.1   C878.7,331.2,874.1,331.2,869.4,331.2z" />
	<path display="inline" fill="#1B140E" d="M704.1,332.6c-0.4-0.4-0.9-0.8-1.3-1.2c16.5,0,32.9,0.1,49.4,0.1   C736.3,333.4,720.1,331.4,704.1,332.6z" />
	<path display="inline" fill="#201710" d="M702.1,551.2c1.3,4.9,1.4,8.8,0.1,13.9C701.3,560,701.1,556.2,702.1,551.2z" />
	<path display="inline" fill="#5C4A36" d="M794.6,299.6c2.7,4.5,6.1,8.8,7.6,13.9c-3.2,0.5-6.2-9.9-8.8-12.7   C793.9,300.4,794.2,300,794.6,299.6z" />
	<path display="inline" fill="#937858" d="M768.4,254.3c2.9,3.4,4.2,7.3,5.5,11.5C772.1,264.9,766.6,258.2,768.4,254.3z" />
	<path display="inline" fill="#5F4C38" d="M757.2,237c2.9,3.3,5.1,6.3,5.8,10.8C759.6,245,758.1,242.3,757.2,237z" />
	<path display="inline" fill="#67543E" d="M686.6,270.8c-2.4-3-2.4-3-2.5-9.1C686.3,264.5,686.4,267.7,686.6,270.8z" />
	<path display="inline" fill="#9B7D5C" d="M794.6,299.6c-0.4,0.4-0.8,0.8-1.1,1.1c-2.2-1.7-2.3-4.4-4.5-7.1   C793.2,294.6,792.6,297.2,794.6,299.6z" />
	<path display="inline" fill="#4B65C5" d="M317.8,195.4c-2.4-2-3.3-4.8-4.4-7.5c4.3-1.2,6.9-5.8,11.3-7.5c1.4-0.7,2-1.9,1.9-3.5   c0.7,0.4,1.4,0.7,2,1.1c0.6-0.7,0.4-1.5,0.5-2.3c0.6,0.2,1.1,0.5,1.8,0.8c7-3.1,13.7-7,21.3-10.3   C344.2,178.8,329,185.5,317.8,195.4z" />
	<path display="inline" fill="#050509" d="M378,176.9c-13.9,10.8-35.3,12.3-46.7,27.8c-2.3-0.3-2.1-1.8-2.2-3.2   c11.8-15.3,31.9-19.5,48.9-26C378.1,176,378.1,176.4,378,176.9z" />
	<path display="inline" fill="#4964C3" d="M321.7,158.6c1.7,2.7,4.2,0.2,7.2-0.3c-5.8,6-10.9,9.7-17.9,12.6c-2.8-1.1-4.3-3-4-6.1   C312.4,164.9,316.8,160.5,321.7,158.6z" />
	<path display="inline" fill="#09080F" d="M321.7,158.6c-4.9,1.9-9.3,6.4-14.7,6.3c4.2-6.9,13.3-9.9,20.7-12.5   c0.5,0.5,1,0.9,1.5,1.4C326.6,155.3,324.2,156.9,321.7,158.6z" />
	<path display="inline" fill="#0D0D17" d="M311,170.9c6.6-5.2,19.3-2.5,17.7,7.2c-0.7-0.4-1.4-0.7-2-1.1c-1.7-8.1-10.1-4.1-15.6-3.5   C311,172.4,311,171.6,311,170.9z" />
	<path display="inline" fill="#151A31" d="M474.8,110.9c0.6,1.6,1.2,3.1,1.7,4.7c0.9-0.1,1.4-0.1,2-0.2c0,0.5,0,1,0,1.5   c-5.8,5.6-0.2,15.8-0.5,23.7c-6.4-5.4,0.8-17.8-6.8-22.1c3.2-0.5,2.2-4,2.2-6.4C473.9,111.6,474.4,111.2,474.8,110.9z" />
	<path display="inline" fill="#1B223E" d="M406,91.6c1.9,9.6-1.3,18.2-3.8,27.4c-1-3.5-1.1-3.8-0.6-5.7   C404.3,106.3,403.5,98.2,406,91.6z" />
	<path display="inline" fill="#121424" d="M339.7,116.4c4-3.2,12.9-6.4,17.4-4.7C353.1,115,345.4,115.9,339.7,116.4z" />
	<path display="inline" fill="#1B1F3A" d="M322.5,129.9c3.7-5.2,6.2-7.5,9.4-8.9C330.1,125.8,328.2,127.7,322.5,129.9z" />
	<path display="inline" fill="#27325B" d="M447.6,66.6c1.1,3.8-0.4,6.1-2.9,9.1C444.4,71.8,445.2,69.2,447.6,66.6z" />
	<path display="inline" fill="#33417A" d="M452.9,75.1c-0.3,2.2-0.4,3.4-0.6,4.9C449.7,78.1,449.7,76.9,452.9,75.1z" />
	<path display="inline" fill="#242B4E" d="M328.3,197.7c-1.6-0.5-3.5-0.6-3.9-3.4C326.5,194.2,330,195.7,328.3,197.7z" />
	<path display="inline" fill="#282542" d="M329.1,153.7c-0.5-0.5-1-0.9-1.5-1.4c1-1.1,2.2-1.6,3.9-0.2   C330.6,152.7,329.8,153.2,329.1,153.7z" />
	<path display="inline" fill="#1D2241" d="M378,176.9c0-0.4,0-0.9,0-1.3c11.6-7.3,24.4-12.5,35.5-20.6c0.4,0.4,0.8,0.8,1.2,1.2   C403.6,164.3,390.7,171.5,378,176.9z" />
	<path display="inline" fill="#181F3B" d="M416.2,162.3c-4.6,10.8-7.8,22.7-13.3,32.9c0.8-10.4,8-23.4,12-34.2   C415.3,161.5,415.7,161.9,416.2,162.3z" />
	<path display="inline" fill="#2E396A" d="M416.2,162.3c-0.4-0.4-0.8-0.8-1.3-1.3c0.8-1.8,1.5-3.6,2.4-5.7c-1.2,0.3-1.9,0.5-2.6,0.6   c-0.4-0.4-0.8-0.8-1.2-1.2c6.6-1.6,7.4-8.3,12.3-12.2l0,0C424,149.6,419.2,155.7,416.2,162.3z" />
	<path display="inline" fill="#20274B" d="M471.3,118.4c0.4,0.3,0.8,0.7,1.2,1c-5.7,3-11.1,6.6-16.6,9.6   C457.9,123.3,466.1,121,471.3,118.4z" />
	<path display="inline" fill="#293360" d="M440.6,136.5c-4.3,3.9-8.6,7.9-12.9,11.9c0.3-5.2,7.9-9.1,11.5-13.3   C439.8,135.8,440.2,136.2,440.6,136.5L440.6,136.5z" />
	<path display="inline" fill="#262E57" d="M478.5,116.9c0-0.5,0-1,0-1.5c3.8-2.3,7.5-5,12.3-4.5c0,0-0.1-0.1-0.1-0.1   C487.3,113.7,482.6,114.8,478.5,116.9z" />
	<path display="inline" fill="#191D38" d="M336.4,213.1c0.2-0.5,0.5-1.1,0.8-1.8c2.2,0.8,3.9,1.9,5.7,4.4   C339.8,215.7,337.9,215.1,336.4,213.1z" />
	<path display="inline" fill="#111528" d="M349.3,226.9c-0.6-3.2-0.6-3.2,1.3-5.7C351.5,223.5,351.6,225.3,349.3,226.9z" />
	<path display="inline" fill="#333F7A" d="M426,141.5c0.4-1.4,1.3-2.1,2.9-2.4C429.2,141.1,427.4,141.5,426,141.5z" />
	<path display="inline" fill="#262E57" d="M490.9,110.8c0.2-0.9,0.7-1.3,2.2-0.5C492,110.5,491.4,110.7,490.9,110.8L490.9,110.8z" />
	<path display="inline" fill="#2E396A" d="M426,141.5c0.4,0,0.8,0,1.2,0c-0.4,0.4-0.9,0.8-1.3,1.2c0,0,0,0,0,0   C425.8,142.2,425.9,141.8,426,141.5z" />
	<path display="inline" fill="#EECABB" d="M518.2,49.2c-1.2-3.5,0.5-5.3,2.9-6.8c5,1,9.1,3.2,12.4,6.8   C530.3,56.7,522.9,52.6,518.2,49.2z" />
	<path display="inline" fill="#120F0E" d="M531.6,80.1c9.8,1.8,14.7,11.5,17.8,19C546.2,101.2,533.6,83.7,531.6,80.1z" />
	<path display="inline" fill="#322826" d="M609.6,217.3c-4.1,3.3-10.4-2.5-11.2-6.8C603.2,211.6,605.9,214.5,609.6,217.3z" />
	<path display="inline" fill="#342C2A" d="M564.2,130.1c0.8-0.4,1.3-0.7,1.9-1.1c2.6,2.1,4,4.8,4.4,8.7   C567.2,135.6,565.3,133.2,564.2,130.1z" />
	<path display="inline" fill="#362D2B" d="M551.6,105c3.4,1.6,3.8,2.2,4.2,6.7C552.6,110.9,551.1,108.4,551.6,105z" />
	<path display="inline" fill="#3B302E" d="M562.8,123.8c-3.1-1.3-5.2-3.5-4.4-7C562.2,117.9,562.5,119.2,562.8,123.8z" />
	<path display="inline" fill="#36322F" d="M536.7,60.2c4.1-1.8,4.9-1.5,7.5,2.4C541.4,63.7,539.9,61.1,536.7,60.2z" />
	<path display="inline" fill="#211B1A" d="M508.6,42.8c2.5-2,2.5-2,4.6,0C511.4,44.8,511.4,44.8,508.6,42.8z" />
	<path display="inline" fill="#524B47" d="M506,43.3c-1.4-0.2-2.7-0.5-2.8-2.3C506.3,40.7,506.5,40.9,506,43.3z" />
	<path display="inline" fill="#7E726D" d="M527.9,55.7c-1.4,1-1.8,1.1-2.5-0.3C526.5,54.3,526.8,54.4,527.9,55.7z" />
	<path display="inline" fill="#9D8C86" d="M533.9,57c-0.4,0.3-0.6,0.5-0.9,0.7c-0.3-0.5-0.7-1.1-1-1.6C533,55.4,533.4,56.2,533.9,57   z" />
	<path display="inline" fill="#EECABA" d="M582.9,191.5c0.4,0.4,0.8,0.8,1.2,1.2l-0.4,0.4c-0.4-0.4-0.8-0.7-1.2-1.1   C582.6,191.8,582.8,191.7,582.9,191.5z" />
	<path display="inline" fill="#0A150E" d="M183.3,372c3.2,1.7-7.5,18-10.8,19.1C173,386.2,176.9,379.4,183.3,372z" />
	<path display="inline" fill="#13321E" d="M173.7,398.7c-0.3,3,3.1,8.5-1,9.7c-1.6-3.6-2.2-7.8-1.5-11.7   C173.2,396.2,173.3,397.6,173.7,398.7z" />
	<path display="inline" fill="#1D5633" d="M186.9,365.5c1.9,1.9,1.6,5.6,3.4,8c0.4,1,0.4,1-1.1,2.9c-1.2-2-2.3-4-3.5-5.9   C186.1,368.9,186.5,367.2,186.9,365.5z" />
	<path display="inline" fill="#216037" d="M65.5,391.4c-0.1,0.6-0.2,1.2-0.4,2c-3.2,0.8-6.5,0.4-10.3,0.4c1-1.1,1.6-1.7,2.2-2.4   C59.8,391.4,62.7,391.4,65.5,391.4z" />
	<path display="inline" fill="#110805" d="M157.4,393.7c-1,0-1.9,0-3.3,0c0.5-1,0.8-1.6,1.1-2.2c10.6-0.4,10.6-0.4,13.5,1.6   C164.7,393.6,160.9,391.5,157.4,393.7z" />
	<path display="inline" fill="#1E4D2E" d="M21.2,391.6c0.6,3.1-3.9,2.9-3.4-0.1C18.9,391.5,20.1,391.6,21.2,391.6z" />
	<path display="inline" fill="#35A65F" d="M178.7,384.1c0.3-0.4,0.6-0.8,0.9-1.2C179.3,383.3,179,383.7,178.7,384.1z" />
	<path display="inline" fill="#443431" d="M147.7,275.6c-4.5,1.8-8.7,3.4-13.2,5.2C133.3,276.7,146.2,272.1,147.7,275.6z" />
	<path display="inline" fill="#443B38" d="M132.9,309.1c-2.8,1.7-4.4-1.7-6-3.5c0-1.4-0.4-2.9,1.8-3.5   C130.8,303.9,132,306.5,132.9,309.1z" />
	<path display="inline" fill="#281211" d="M181,293.8c2.8-0.2,3.4,0.4,3.1,3C182.7,296.2,181.5,295.4,181,293.8z" />
	<path display="inline" fill="#563F3C" d="M138.8,315.1c-1.4-0.7-2.4-1.3-2.8-2.9C139,311.7,139.3,312,138.8,315.1z" />
	<path display="inline" fill="#6B5139" d="M586.6,344.7c0.4-0.8,0.7-1.6,1.1-2.4c2.4,4.7,1.9,9.9,3.7,15.4   C588.9,354.6,588.2,352.6,586.6,344.7z" />
	<path display="inline" fill="#6D5239" d="M600.3,392.8c1.9,3.9,2.8,7.5,1.5,11.4C601.3,400.5,599,397.2,600.3,392.8z" />
	<path display="inline" fill="#15100F" d="M261.7,349.9c-2.4,1.4-3.7,4.4-7.1,4.6c0-1.2,0-2.4,0-3.5c3.6-3,6.2-6.8,8.6-10.8   C266.8,342.4,263.1,347.4,261.7,349.9z" />
	<path display="inline" fill="#3C332F" d="M250.5,345.8c-6.1,1.5-3.3-7.8,1.2-5.5C251.2,342.2,250.9,344,250.5,345.8z" />
	<path display="inline" fill="#251F1D" d="M212.1,198c1.8,3.5,1.8,3.5,1.4,6.5c-2.7-0.8-2-3.5-3.1-5.3l-0.1,0c0.5-0.4,1-0.8,1.5-1.2   L212.1,198z" />
	<path display="inline" fill="#3C3230" d="M249.6,332.6c-0.9,3.4-0.9,3.4-3.6,3.3C245.6,333.4,246.2,329.9,249.6,332.6z" />
	<path display="inline" fill="#4A3E3A" d="M200.5,200.2c0.3,1.5,0.6,2.9,1.1,5.5c-2.7-2.4-5-3.4-2.9-6.5   C199.3,199.5,199.9,199.9,200.5,200.2z" />
	<path display="inline" fill="#5A4E4A" d="M260.6,337.4c-0.2-2.8,1.4-3.6,3.1-4.5C264.6,335.4,263.1,336.3,260.6,337.4z" />
	<path display="inline" fill="#383330" d="M260.8,320.6c0-1.3,0-2.4,0-3.7C262.9,318.9,262.9,318.9,260.8,320.6z" />
	<path display="inline" fill="#302220" d="M244.3,248.9c-2.6-0.1-2.6-0.1-3.4-3C242.6,246.7,243.9,247.3,244.3,248.9z" />
	<path display="inline" fill="#3E3431" d="M259.4,312.7c0.1-1.2,0.1-2,0.2-3.1C261.3,311.1,261.3,311.1,259.4,312.7z" />
	<path display="inline" fill="#665652" d="M246.5,255.3c0.6,0.6,1.3,1.2,2.1,1.9C246.6,258.1,246,257.3,246.5,255.3z" />
	<path display="inline" fill="#352827" d="M250.7,265.8c1.9-1.3,2.6-0.4,3.1,1.1C251.9,268.4,251.5,266.8,250.7,265.8z" />
	<path display="inline" fill="#2C2D2B" d="M263.6,328.5c-0.9-1.6-0.9-1.6,0-3.1C264.2,326.9,264.2,326.9,263.6,328.5z" />
	<path display="inline" fill="#EECABA" d="M211.9,198c-0.5,0.4-1,0.8-1.5,1.2C210.4,198.2,210.9,197.9,211.9,198z" />
	<path display="inline" fill="#241918" d="M248.2,351.1c-1.6,4.8-3.5,8.6-9.9,6.8c3.2-4.3,6.8-3.6,8.3-9.3c2.1-0.2,1.4,1.4,1.6,2.4   L248.2,351.1z" />
	<path display="inline" fill="#2E1F1D" d="M181.5,337.6c-1.9,2.8-3.5,2.9-5.6,1.6C177,336.7,178.8,337.3,181.5,337.6z" />
	<path display="inline" fill="#674C47" d="M215.6,206.2c1.1,1.9,1.8,3.2,2.6,4.5c-0.4,0.1-0.9,0.5-1,0.4   C214.2,209.2,214.2,209.2,215.6,206.2z" />
	<path display="inline" fill="#6C5751" d="M204.6,210c-0.8-1-1.4-1.9-2.1-2.8C205.3,206.8,205.4,207,204.6,210z" />
	<path display="inline" fill="#605049" d="M184.2,334.1c0.1,2.5-2.4,2.6-2.1,0.2C182.8,334.2,183.4,334.2,184.2,334.1z" />
	<path display="inline" fill="#544944" d="M208.4,212.2c0.8,1.1,1.4,2,2.1,3C208,215.4,207.9,215.2,208.4,212.2z" />
	<path display="inline" fill="#164125" d="M88.3,393.2c10.4-3.1,19.4-1.4,30.6-1.8C110.1,396.8,98.5,392.7,88.3,393.2z" />
	<path display="inline" fill="#091009" d="M82,393.4c-3.6,0.6-6.2,1.1-9.5-0.6C76.1,390.2,78.3,390.9,82,393.4z" />
	<path display="inline" fill="#06110A" d="M41.8,406c-3.4-3.1-1.3-7.1-3.3-10.5C42.5,395.3,41.7,402.5,41.8,406z" />
	<path display="inline" fill="#07180D" d="M31.8,409.3c-2.8-4.1-1.8-8.3-1.8-13.6c2.1,2.9,1,5.1,1.6,7   C32.3,404.8,32.8,406.9,31.8,409.3z" />
	<path display="inline" fill="#184A2A" d="M81.4,405.3c-3.1-2.9-2.5-5.1-1.6-7.7C82.9,399.1,80.9,401.5,81.4,405.3z" />
	<path display="inline" fill="#0E1C10" d="M139.9,392.6c-3.1-0.3-5.9,0.7-9.9-0.4C133.8,391.7,138.6,389.4,139.9,392.6z" />
	<path display="inline" fill="#0F2C19" d="M23.7,394c1.7-1.8,3-1.7,4.5-0.8C27.3,395.2,26,395.7,23.7,394z" />
	<path display="inline" fill="#0C180E" d="M51.1,393.7c-1.9,0-3.7,0-6.9,0C47.3,392.3,49.2,392.3,51.1,393.7z" />
	<path display="inline" fill="#21663B" d="M107.8,401.8c-1.6-0.3-2.4-3-0.2-2.8C108.7,399.6,108.7,401.1,107.8,401.8z" />
	<path display="inline" fill="#141110" d="M56.7,246.9c-7.6-4.8-5.7-16.5-3-23.6c1.3,0.6,2.1,1,2.9,1.3c1.8,5.9-3.5,11.2-0.1,16.7   C57.6,243,57.5,244.7,56.7,246.9z" />
	<path display="inline" fill="#211D1B" d="M59.6,227.8c1.4,0.1,2.7,0.4,4.1,0.1c1.2,1.4,2.8,3.5,1.6,4.7c-2,2.1,1.4,5.4-1.8,7   C59.9,234.8,59.8,234.3,59.6,227.8z" />
	<path display="inline" fill="#2B2422" d="M73,285.7c4.4,1.1,3.2-4.8,6.7-5.7c3.6,2.4,3.9,3.6,1.8,8.5c-2.1-1.7-4.1-0.3-6.2,0.1   c-0.8-0.4-1.6-0.9-2.4-1.3C72.9,286.7,73,286.2,73,285.7z" />
	<path display="inline" fill="#463431" d="M73,285.7c0,0.5-0.1,1-0.1,1.6c-0.9-0.3-1.8-0.6-2.7-0.9c-1.3,1-4.1,1.7-3,4.3   c-1.8,0.4-1.4-1.9-2.7-2.1c-0.1-0.6-0.1-1.1-0.2-1.7c3-0.8,4.3-3.8,6.9-5.4C73.6,282.1,70.8,285.1,73,285.7z" />
	<path display="inline" fill="#D2BFB4" d="M80.2,295.8c-0.7-0.7-1.3-1.4-2.1-2.1c-0.1,0.3-0.3,0.6-0.4,0.9c0,0,0.1-0.1,0.1-0.1   c-1.9,0-3.3,1.6-5,0.1c-0.3-3.6,4.9-2.9,7.2-4c0.2,1.2,0.3,2.6,1.8,3C81.3,294.3,80.7,295.1,80.2,295.8z" />
	<path display="inline" fill="#382725" d="M80,290.6c-2.3,1.1-7.5,0.5-7.2,4c-0.9-0.9-1.8-1.8-2.8-2.8c3.1-1.7,6.2-2.9,9.8-2.1   C79.9,290,80,290.3,80,290.6z" />
	<path display="inline" fill="#B4A9A0" d="M79.8,289.8c-1.5-0.1-3-0.2-4.5-0.4c0-0.3,0-0.5,0-0.8c2.1-0.4,4.1-1.8,6.2-0.1   C81,288.9,80.4,289.4,79.8,289.8z" />
	<path display="inline" fill="#51403D" d="M81.1,264.6c0.6-0.9,1.3-1.8,2-2.8C84.3,264,84.3,264,81.1,264.6z" />
	<path display="inline" fill="#44302F" d="M87.1,256.9c1.4,2.1-0.2,2.6-1.7,3.6C84.8,258.3,85.8,257.5,87.1,256.9z" />
	<path display="inline" fill="#4B3E39" d="M91.6,279.7c-0.8,0.1-1.7,0.2-2.5,0.2c0.3-0.5,0.7-1,1-1.5c0.4,0.2,0.8,0.2,1.2,0.2   l0.1,0.1C91.4,279.1,91.5,279.4,91.6,279.7z" />
	<path display="inline" fill="#090B10" d="M291.5,162.3c0.6,0,1.2,0.1,2.1,0.1c2.2,18.8,11.7,34.9,20.9,51.1   c-0.5,0.5-0.9,0.9-1.4,1.4C301.8,200,291.1,181.6,291.5,162.3z" />
	<path display="inline" fill="#1D1618" d="M256.1,179.9c-5.5,2.6-11.1,5.2-16.8,7.9c-0.3-0.5-0.6-1-0.9-1.5   C241.7,183.5,252.4,175.3,256.1,179.9z" />
	<path display="inline" fill="#3A373D" d="M265.4,173c-1.7,4.1-3.6,6.2-7.3,7.3C258.3,176.1,261.1,175,265.4,173z" />
	<path display="inline" fill="#221D20" d="M274.8,168.5c-2.7,1.3-4.5,2.2-6.2,3C266.3,168.8,271.6,166.8,274.8,168.5z" />
	<path display="inline" fill="#5A4D55" d="M283.2,162.8c-0.8,1.9-2,2.5-4.2,1.7C280.1,162.5,281.2,161.6,283.2,162.8z" />
	<path display="inline" fill="#242F53" d="M313.1,215c0.5-0.5,0.9-0.9,1.4-1.4c1.6,2.1,3.2,4.2,4.7,6.3c-0.9,1.9-1.6-0.4-2.4-0.1   C315.6,218.1,314.4,216.6,313.1,215z" />
	<path display="inline" fill="#251A1D" d="M278.2,235.7c0.5-2.8,2-3,4.5-1.9C280.9,234.5,279.5,235.1,278.2,235.7z" />
	<path display="inline" fill="#21171A" d="M296.1,221.1c-0.9,1.8-1.4,2.9-3.7,2.5C293,221.6,293.8,220.8,296.1,221.1z" />
	<path display="inline" fill="#121215" d="M196.6,260.3c0.6-1.6,1.2-3.3,1.7-4.5c3.1-1.4,3.4,1.1,4.5,2.2c0.3,3.6-0.6,12.9-6.2,9.4   C196.6,265,196.6,262.6,196.6,260.3z" />
	<path display="inline" fill="#1D1B19" d="M589.4,201c2.2,0.3,2.2,1.8,2,3.9C588.9,205.3,587.7,202.8,589.4,201z" />
	<path display="inline" fill="#060706" d="M582.5,192c0.4,0.4,0.8,0.7,1.2,1.1c-0.1,1.1,0.1,2.5-1.8,2.3   C580.8,194.1,581.1,192.9,582.5,192z" />
	<path display="inline" fill="#866E66" d="M506.2,80c1.9,1.1,1.4,3-0.6,1.8C505.8,81.3,505.9,80.8,506.2,80z" />
	<path display="inline" fill="#FBDFD3" d="M585.2,192.9c0.3,0.2,0.6,0.3,0.8,0.5C585.7,193.2,585.5,193.1,585.2,192.9L585.2,192.9z" />
	<path display="inline" fill="#4B3E39" d="M91.2,278.6c0-0.4-0.1-0.8-0.1-1.5c2.4-1.8,5.5-1.8,7.9-2.3c2.6-1.6,3.9-4.1,6.6-5   C105.4,277.1,97.3,280.8,91.2,278.6z" />
	<path display="inline" fill="#23211F" d="M116.8,279.1c-3.3,2.8-8,2.3-12,3.3C104.3,276.9,113.3,277.9,116.8,279.1z" />
	<path display="inline" fill="#2B2529" d="M202.8,280c3.1-4.8,9.5-6.5,14.3-10.1C215.8,275.5,208.3,278.7,202.8,280L202.8,280z" />
	<path display="inline" fill="#2E2F34" d="M221.2,273.2c-0.8,2.6-1.5,4.6-3.9,5.3C214.6,276.3,217.7,271.9,221.2,273.2z" />
	<path display="inline" fill="#341E1D" d="M125.8,275.7c-0.9,1.6-0.9,1.6-2.8,1.1C123.9,275.2,123.9,275.2,125.8,275.7z" />
	<path display="inline" fill="#4862BF" d="M319.4,208.9c0.9,1.9,2,0.2,3.2,0.2c1.5,1.8,3.9,3.2,3.8,6.6c-1.4,1-3.1,2.2-3.4,4.2   C319.1,217.9,316.1,212.4,319.4,208.9z" />
	<path display="inline" fill="#1C2243" d="M302.1,154.8c0,0.5,0,0.9,0,1.4c-1.7,1.2-3.4,2.5-5.6,4.1   C298.2,155.4,298.2,155.4,302.1,154.8z" />
	<path display="inline" fill="#1E284F" d="M310.5,189c0.5,0.9,0.9,1.7,1.4,2.6c-1.5,0.4-2.9,0.8-4.4,1.2c-0.1-0.2-0.3-0.5-0.4-0.7   C308.3,191.1,309.4,190,310.5,189z" />
	<path display="inline" fill="#585964" d="M199.9,242.6c1.7,2.6,1.7,2.6,0.7,5.3C198.5,246.7,199.1,245.1,199.9,242.6z" />
	<path display="inline" fill="#414149" d="M199.5,236.9c2.4,0.6,2.3,1.9,1.6,3.7C198.7,240,198.9,238.7,199.5,236.9z" />
	<path display="inline" fill="#3B363D" d="M195.7,229.4c3.4,1.3,3.4,1.3,2.8,4.3C197.7,232.4,197.1,231.5,195.7,229.4z" />
	<path display="inline" fill="#654F49" d="M178.4,290.8c-0.1-0.6-0.1-1.2-0.2-1.8c1.5-1,2.1-0.3,2.3,1.7   C179.8,290.8,179.1,290.8,178.4,290.8L178.4,290.8z" />
	<path display="inline" fill="#2A2120" d="M70.1,291.8c0.9,0.9,1.9,1.9,2.8,2.8c-0.5,0.4-0.9,0.9-1.4,1.3c-0.4,0-0.7-0.1-1-0.1   c-1.6-3.3-10.4-2.4-6-7.3c1.3,0.2,1,2.5,2.7,2.1C68.2,291,69.1,291.4,70.1,291.8z" />
	<path display="inline" fill="#AB9C94" d="M70.5,295.8c0.3,0.1,0.7,0.1,1,0.1c0.2,0.3,0.3,0.5,0.5,0.8l-0.4,0.4   C71.2,296.7,70.9,296.3,70.5,295.8z" />
	<path display="inline" fill="#3F2F2C" d="M72,296.8c-0.1-0.3-0.3-0.6-0.5-0.8c0.5-0.4,0.9-0.9,1.4-1.3c1.7,1.4,3.1-0.2,4.9-0.1   c-0.3,2.3-2.1,3-3.9,3.8C73.2,297.7,72.6,297.3,72,296.8z" />
	<path display="inline" fill="#3F2F2C" d="M77.8,294.6c0.1-0.3,0.3-0.6,0.4-0.9c0.3,0.3,0.6,0.6,0.9,0.8   C78.6,294.6,78.2,294.6,77.8,294.6z" />
	<path display="inline" fill="#E1CEC3" d="M70.1,291.8c-0.9-0.4-1.9-0.8-2.8-1.2c-1.2-2.6,1.7-3.2,3-4.3c1.8,0.5,3.6,1.2,5.1,2.2   c0,0.3,0,0.5,0,0.8C73.6,290.2,71.8,291,70.1,291.8z" />
</g>
</svg>