<?xml version='1.0' encoding='utf-8'?>
<svg xmlns="http://www.w3.org/2000/svg" version="1.2" baseProfile="tiny" id="Layer_1" x="0px" y="0px" viewBox="0 0 900 600" overflow="visible" xml:space="preserve">
<g id="b_00000036212045882621843520000013965050765295278486_">
	<path display="inline" d="M551.4,443.2c-0.9-1.7-1.7-3.3-2.6-5c-25.3,3.2,2.2,36.1-44.5,87.9c-11.1,13.1-14.9,39.7-37.5,34.1   c-30.1-8.3-56-28.4-85.9-36.2c-0.8,6.6-1,13.4-0.3,20c-1.2,6,5.7,8.2,6,13.6c0.2,3.6,2.5,11.1-3.3,10.8   c-23.7-0.2-41.4-2.7-30.3-31.3c0.9-1.9,1.1-3.6,0.3-5.6c-8.9-6.2-16.8-20.6-9.3-30.6c5-3.9,20.2-9,26.6-7.1   c0.6,1.1,1.3,2.3,2.3,3.9c13.3,1.1,25.7,7.8,38.8,9.3c17.6-3.9,33.1,4.4,48.2,12.7c13.7-21,6-47.5,11.2-70.6   c-1.5-1.4-3.4-1.9-5.3-2.4c-1.7-2.4-4-3.2-6.8-3c-0.8-0.6-1.5-1.2-2.2-1.8c-1.7,0.3-3.1,0.1-4.3-1.1c0.3-0.4,0.6-0.7,1-1.2   c-0.4-0.6-0.8-1.3-1.4-2.2c3.3-0.3,5.6,4.6,8.6,2.7c-1.4-1.7-4.5-1.7-4.2-4.7c3.5,1.1,5.4,3.9,8.8,4.8c-0.5-1.6-1.5-2.4-2.5-3.1   c-0.3-0.9-1.4-1.5-1.1-2.9c2.2,0.4,3.2,2.5,4.6,3.9c1.8,0.8,2.4,2.3,2.4,4.3c-1.3-0.1-2.5-0.2-3.7-0.2c0.7,2.2,3.5,2.3,5.3,4   c-0.1-1-0.2-1.7-0.3-2.3c2.3,2.2,4.3,4.8,6.4,7.2c-1.2,0.2-2-0.4-3.3-0.8c-2.1,19.2,2.9,38.7-5.4,56.9c-1.3,5.7-2.9,14.3-9.7,15.6   c-0.1-0.5-0.3-1.1-0.4-1.7c-12.1-3-23.3-13.1-36.3-11.4c-9.8,2-18.9-1.2-27.9-4.5c-8.8-2.3-17.9-2.9-26.5-6.4   c-7.3,3.3-2.2,11.8-1.3,18.1c1.3,1.5,2.6,2.6,4,4.5c36.3-7.3,73.4,42.4,111,34.2c7.5-3.5,9.2-13.8,13.9-20.2   c21.7-28.8,39-56.1,40.7-93.5c-10.8,0.5-26.4,10.4-35,7.7c1-1.2,2-2.3,3-3.5c27.3-4,54.4-15,81.3-22.9   c-26.7,43.8,17.4,89.5,9.8,135.3c-0.7,2.9-0.7,3,1.9,5c0.4,1.1,2.1,0.7,2.9,1.3c7.4-3.8,12.7-7.9,16.6-14.5   c-8.9-43.6,0.1-88.5-5.7-132.1c1.8-4,0-9.9,1.7-14.4c-2-3.4-5.6-5.4-6.5-9.4c-33.4-10.1-68.9-10.3-103.4-13   c-5.1,3.5-9.3,7.5-12.2,12.8c-1.3,1.1-1.7,2.1-3.5,0.8c2.7-7.5,8.8-11.8,14.8-16.3c3.5,0.6,7.3,0.7,10.9,0.1   c-11.6-5.2-30.6-10.2-41.9-10.3c-11.9,20-4.3,19.9-7.6,38.7c-4.5-17.2,0.5-35.5,0.4-53c0.1-10.4,0.3-21,2.1-31.2   c-0.4,0-0.8-0.1-1.1-0.1c8.3-15.8,12.5-33.6,15.9-51.1c0.4,0,0.9,0,1.5,0c0.2,5.7-2,10.8-2.2,16.5c11.6-4.1,16.7-15.9,20.9-26.3   c0.7,0.1,1.1,0.1,1.6,0.2c5.5-11.9-2.3-22.5-9.3-31.4c-8.7-11.8-17.6-5-28.1-0.2c-8.1,7.1-7.5,21.2-8,31.3   c1.1,6.7-3.5,13.4-4.2,20.3c-2.7,8-1.9,16.5-2.4,24.8c-0.4,12-6.2,25.5-1.4,36.7c-0.2,0.5-0.5,1-0.7,1.5c-0.1-0.6-0.2-1.2-0.5-1.8   c-0.1,0.2-0.1,0.3-0.2,0.5l0,0c-2.9,14.2,0.6,31.2,1.9,46.2c1.1,15.7-1,31.4-1.8,46.8c2,1.4,3.8,2.8,5.6,4.1   c-0.2,0.2-0.4,0.5-0.7,0.8c-2-0.9-4.5-2.3-6.1-3.4c-3.3-8,1.9-15.4,0.4-23.5c-1-4.2,1.9-8.2,0-12.6c-1.4,0.5-2.9,0.9-4.4,1.4   c0-0.6-0.1-1.1-0.1-1.7c1.6-0.3,3.2-0.7,5-1.1c-0.5-21.9-4.7-43.3-2.5-65.3c-1.1-16.6,5.8-32.4,3.5-49.2   c10.4-19.7-2-53.3,23.9-62.1c1.6-3.9,1.1-7,1.1-11.8c-2.9,2.4,0.4,6.6-2.8,8.7c-1.9-1.6,0-5,0-7.3c3-12-4.1-22.8-5.4-34.4   c-9-15.3-2.4-41.8,19.2-35.8c7.2-8.1,16.3-12.7,27.3-11.2c10.2,1.6,23.5,2.4,28.1,13.2c2.5,7,9.3,14.9,3.6,22   c0.6,0.2,1.1,0.3,2,0.6c-0.7,0.6-1.3,1-2.1,1.6c0.5,3.4,2.3,6.3,4.6,8.9c0.3,3.5,0.3,3.5-3.4,6.2c0.2,1.4,0.5,2.9,0.8,4.6   c-0.4,0.6-0.9,1.4-1.5,2.3c1.4,1.7,1.4,3.5-0.3,4.9c4.9,10.7-9.9,10.6-16.7,8.9c-1.2,6.3,0.5,13.5,2.4,19.7c5.4,2,7.3,4.3,9.5,8.1   c11.6,1.1,11.5,7,15.5,15.7c9.6,8.1,22.2,16.5,20.2,30.8c1.2,10.8-12.3,17.6-11.9,28c1.3,13.8-8.7,24.8-9,38   c1.2,12-3.1,23.3-1.6,35.1c16.9,4.9,48.9,1.3,60.8,13.8c-0.5,0.3-1,0.6-1.5,0.9c2.2,2.8,5.6,6.2,4.6,10   c-4.6,14.7,2.6,30.1,0.9,45.2c0.7,32.6-4.1,65.8,3.1,98c1.2-0.2,2.2-0.4,3.1-0.5c14.9,14.4,29.6,31.2,50,37.4c1.4,3.4,2,7,0.5,10.8   c-30.4,5.8-62.7,2.8-92.8-2.6c-5.6-1.6,1.5-12.2,2.1-16.3c3.6-6.7,0.8-18.2,9.3-21.4c2.5-34.8-17.1-66.2-19.9-100.2   c-1.1-1.7-3.3-0.4-5-0.9c0-0.2,0-0.4,0-0.7c2.5,0.4,7.4-0.9,3.6-3.6l0,0c0.4-0.1,0.7-0.1,1.1-0.2c1.6-7.2,3.4-13.9,5.8-20.9   c-6.9,0.6-15,3-21.3,6c0,0.2,0,0.4,0,0.6c-0.2,0-0.5,0-0.7,0c-1-1-2.7,0-3.5,1.1c0.5,1.8,0.9,3.6,1.4,5.4   C552,443.2,551.7,443.2,551.4,443.2z M486,184.5c0.5,0.1,0.9,0.2,1.4,0.3c0,0.4,0,0.8,0,1.2c-1,1.1-1,1.1,0,2.2   c1,1.2,1.2,4.5,3.2,4.1c0.1-0.6-0.8-1.3,0.2-1.8c1.3,1,2.9,1.7,4.4,0.7c0,0.7,0,1.4,0,2.1c-1.1,0.7-2.1,1.3-3.2,2   c0.5,8.1,1.1,16.8-4.3,23.5c8.2,6.9,19.3,12.8,25.5,22.6c5.7,8.5,22.9,12.4,32,9.1c-3.8-10-9.6-18.4-18.6-23.8   c-2.6-5.5-8.1-18.6-1.6-22.7c5.4,0.2,19.9,2.6,14.5-7.1c0.6-1.5,1.1-1.9,2.3-2.9c-0.9-0.8-1.5-1.4-2-1.9c-1.6,0.1-2.8,0.2-4.1,0.4   c-0.5-0.5-1.8-0.4-1.2-1.8c2.5-0.4,5.6,1.2,7.2-1.7c-0.5-1.7-0.9-3.1-1.4-4.6c-0.6,0-1.3-0.1-2.1-0.1c1.8-4.2,3.8-0.3,6.4-2.6   c-1.9-6.6-9.6-12.7-2.1-18.6c-2.8-5.1-2.2-12.4-6.8-16.2c0-0.2,0.1-0.4,0.1-0.6c0.4-0.2,0.8-0.3,1.1-0.5c-1.5-1.9-3.3-3.8-5.6-4.6   l0,0c-0.6-1.2-1.4-2.2-2.9-2.2l0,0c-5.5-3.6-12.8-5.6-19.5-4.2c-2.5,0.6-9.5-1.4-10.2,1.2c-1,0.2-2.1-0.3-2.9,0.6   c-1.5,0.5-2.6,1.4-3.7,2.9c3,1.1,5.7,0.9,8.8,1.7c-9.1,2.5-9.3-3.1-17.6,6.1c0.5,0.7,1.1,0.9,1.1,1.7c-1.7-0.2-1.2,1.1-1.4,2.4   c-2.7,1.5-2,5.9-2.7,8.9c1.4,0.9,2.8,1.8,4.1,2.6c-1.9,1.6-2.5-0.4-4.4,0.2c0.3,0.6,0.5,1.2,0.8,1.9c-0.5,0.5-0.9,0.9-1.4,1.3   c0.1,1.4-0.5,2.9,0.9,3.8c-0.1,2.6,1.7,5.1,3.4,7.1c-0.3,0.6-0.6,1.2-0.9,1.9C483.9,181,484.6,183.1,486,184.5z M370.4,536.9   c-2.4-0.1-5.3,0.4-6.4-2.5c0.5-0.4,1-0.8,1.5-1.2c4.2-0.2,8.3,0.6,12.5-0.3c-0.1-0.8-0.3-1.3-0.4-2.3c-5.1,2.3-13.3,1.8-16.7-2.9   c5.1-3,10.4,2,15.8-0.3c-0.1-1.5,2.3-2,1.5-4.2c-2.9,1.4-5.8-1.5-8.6,0.5c-3.5-2-7.2-6.4-8.4-9.7c0.5-0.3,0.9-0.5,1.2-0.7   c-3.8-7.3-4.6-12.8,3.2-17.7c-5.6-0.9-7.3,5-12.6,4.3c-13.3-0.2-7.9,13.5-6.7,21.5c1.1,5,17.3,8.1,9.8,13.6   c-3.6,12.4-9,28.6,10.2,29.2c10.5-0.9,24.4,6.2,15.5-10.9c-2.1-0.5-4-0.9-6.1-1.4c-5.9,2.2-7.1,2.3-8.7,0.9c1-1.4,2.9-0.5,4.2-1.7   c-1.4-0.7-2.6-1.3-3.7-1.9c-0.1-0.7-0.1-1.1-0.2-1.5c-1.4-0.6-2.9-0.7-3.9-2.2c3-2.8,7.5-0.6,10.7-2.3c1.6-0.1,2.7,0,4.4,0.4   c-0.3-2.6-1.3-4.5-1-7C375.1,537,372.8,536.9,370.4,536.9z M479.2,174.6c-0.1-0.7-0.2-1.4-1.2-1.2c-0.2,1.7,2.2,11.9,4.1,11.5   C482.3,181.5,479.8,178.2,479.2,174.6z M477.3,166.7c-0.2,1.9-0.4,3.8,0.8,5.5c0.5-0.4,1.5-0.7,0.7-1.3c-1.1-2.7-0.4-5.4-1.5-8   C477.3,164.1,477.3,165.4,477.3,166.7z M478.7,191.1L478.7,191.1c-3.6-13.4-9.5-30.6,2.1-41.8c1-0.1,1.3-2.9,0.9-3.6   c-3.8-1.9-15.2-0.6-13.7,5.1l0,0c-13.8,12,0.5,34.6,4.3,49.1c0.7-5.5-3-9.8-0.7-14.5l0,0c-0.1,0.8-0.2,1.7,0.6,2.2   c1.9,9.9,2,20,1.2,30.1c-0.1,0.9,0.3,1.3,1.1,1.5c-0.2,1.4-1,2.7-0.5,4.1c0.9-0.3,1.6-0.5,2.4-0.7c2.2-8.6,0.3-18.2,0.9-27.2   c0.2,0,0.4,0,0.7,0c2.5,8.9-0.5,18.4,1,27.1c0.6-1.2,1-1.9,1.3-2.6c4.2,5.6,5.1-9.5,3.6-11.6c0,0,0,0,0,0   C482,202.6,480.6,196.7,478.7,191.1z M380.1,550.5c-0.8-1.6-1.5-3.2-2.3-4.9c-0.8,0.5-1.5,0.9-2.2,1.3c-0.9-0.1-1.6,0.2-1.9,1.3   c1.7-0.1,3.1,0.2,4.7,0.6c0.1,0.8,0.2,1.5,0.4,2.3c0.5-0.1,1.1-0.2,1.6-0.2C380.3,550.8,380.2,550.7,380.1,550.5z M482.8,198.3   c0,1.6,0.3,3.1,1.3,4.6c0.1-5.5-1.4-10.8-3.7-15.9c-0.5,2.7,1.2,5.4,1.7,8C482.4,196.1,481.7,197.4,482.8,198.3z M541.3,237   c-0.4-0.6-0.8-0.6-1.3,0c3.3,3,4.7,7.3,9.1,9.6C547.7,242.9,544.7,239.1,541.3,237z M488.1,207.6c-0.1,1.3-0.2,2.6,0.2,4.4   c1.8-4.7,2.2-9.6,0.9-14.8C485.7,199.6,487.4,204.2,488.1,207.6z M493.1,309.3c-0.6-0.2-1.2-0.1-1.5,0.5c-3.4,0.7-6.6,1.7-9.9,2.9   c5.3,18.6-1.1,36.2-10.4,52.6c9.6,0.6,17.8,3.7,27,5.2c0.3-2.1-1-3.5-1.6-5.1c1.3-0.1,1.9,1.5,2.8,2.2c0.1,1.3,0.3,2.6,0.9,3.6   c15,4.2,29.1,10.5,45,8.2c3.1-11.8,2.5-23.8,2.7-35.8c0.4-13,11.5-22.9,10.3-36.7c-3.1-1.5-6.3-1.9-9.4-2.3c-0.5-0.6-1-1.2-1.3-1.6   C529.4,302.9,511.1,305.8,493.1,309.3z M590.3,561.4c0.2-0.4,0.4-0.8,0.8-1.3c-2.5,0-1.5,5.1-2.9,6.8c-1.9,7.9-3.3,16.1-6.7,23.6   c8.6,4.7,19.2,3.8,28.7,3.5c19.4,4.4,40,1.9,59.4,0.7c0.5-2.1,0.3-4.2-0.1-6.3c-6.4-0.8-11.7-4.4-16.7-8c-2.5,0.9-5.4,1.5-7.5-0.6   c1.4-1,2.5-1.8,3.8-2.8c-0.6-0.4-1-0.8-1.4-1.1c-3.2,3.2-18.1,3.1-8.2-1.6c1,0.2,1.4-0.2,1.5-1.3c-1.2-0.1-2.2-0.2-3,0.6   c-2.4,0-4.8,0.9-6.9-0.7c1.6-3.3,4.9-2.4,7.8-3.3c-1.3-1-2.2-1.7-3-2.3c-3.1,2.8-7.2,3-11,4.2c-2.5-4.7,5.8-4.4,7.9-6.3   c-0.5-0.5-0.9-1-1.4-1.6c-3.3,1.5-6.5,3.3-10,3.7c-2.6-4,6.1-4.4,8.2-6.7c-2.6-3.1-5.1-6.1-7.5-9.1c-5.8,1.2-7,7.6-11.8,10.1   C602.4,566.5,596.4,572,590.3,561.4z M567.2,289c11.4-17.3-8.5-29.9-19.8-40.1c-0.5,1.2-0.8,2.2-1.1,3.1   c-29.2,11.4-36.9-18.3-57.3-27.7c11.7,12.5,24.6,30,9.9,45.9c-3.7,9.4-10.1,18.4-20.9,20.1c-0.6,1.7-1.3,3.9-1.7,5.4   c1.8,5.1,3.4,9.6,5.1,14.4c24.5-6.7,52.3-13.8,77.2-6.7C561,298,563.6,293.6,567.2,289z M475.5,302.3   c-11.4,21.6-9.5,45.8-10.7,69.1C479.3,349.9,486.1,327.3,475.5,302.3z M485.9,196.4c1.5-2,1.7-4.4,0-6   C485.9,192.7,485.9,194.5,485.9,196.4z" />
	<path display="inline" fill="#161516" d="M459.2,454.6c-8.4,6.5-22,5.1-27.4-4.9c0.2-0.2,0.3-0.3,0.6-0.6c4.3,4.5,8.8,9.3,15.7,8.4   c-8.5-3.8-15.5-11.8-16.2-21.5c0.2,0,0.4,0,0.6,0c2.1,11.4,13.7,25.8,26,18C458.7,454.2,458.9,454.4,459.2,454.6z" />
	<path display="inline" fill="#151417" d="M432.4,436c-0.2,0-0.4,0-0.6,0c-3.8-10-1.1-22.2,5.5-30.7c-0.1-0.1-0.2-0.2-0.3-0.3   c-0.8,0.5-1.5,0.9-2.3,1.4c-0.2-0.2-0.5-0.4-0.7-0.6c2-2,4.2-3.6,7.1-3.9c0,0.6,0.1,1.1,0.1,1.7l0,0c-0.7,0.4-2.2,0.3-1.5,1.4   C432,413.2,429.7,425.7,432.4,436z" />
	<path display="inline" fill="#353944" d="M436.1,448.2c3.3,4.1,7.2,7,11.9,9.3c-6.9,0.9-11.4-3.8-15.7-8.4   c-0.2,0.3-0.4,0.4-0.6,0.6c-0.5-0.7-0.9-1.5-1.4-2.2c0.2-0.2,0.5-0.5,0.7-0.7c0.5,0.5,0.9,1,1.4,1.5   C433.8,448.2,435,448.2,436.1,448.2z" />
	<path display="inline" fill="#2C2526" d="M434,405.9c0.2,0.2,0.5,0.4,0.7,0.6c-5.5,5.6-8.5,13-8,20.9c-0.4,0.2-0.9,0.5-1.3,0.7   C426.3,420.2,426.5,411,434,405.9z" />
	<path display="inline" fill="#2E2F31" d="M425.4,428.1c0.4-0.2,0.9-0.5,1.3-0.7c-0.5,6.8,1.1,13.4,4.4,19.4   c-0.2,0.2-0.5,0.5-0.7,0.7C426.7,441.9,425.1,434.8,425.4,428.1z" />
	<path display="inline" fill="#171618" d="M551.4,443.2c0.3,0,0.6,0,0.9,0c2.9,5.8,7.2,9.8,13.6,11.5c0,0.2,0,0.4,0,0.7   C559,455.4,553.8,449.2,551.4,443.2z" />
	<path display="inline" fill="#242B2C" d="M459.2,454.6c-0.2-0.2-0.5-0.4-0.7-0.6c2.6-2.5,5.6-4.7,5.8-8.7c0.5,0.5,1,1,1.5,1.5   C464.4,450.2,462.2,452.7,459.2,454.6z" />
	<path display="inline" fill="#363735" d="M470.8,218.6c-0.5-1.5,0.7-2.9,0-4.5c-0.1-0.2,0.6-0.8,1.3-1.7c-0.4,3.6,0.8,7-0.6,9.6   C471.5,220.9,471.4,219.7,470.8,218.6z" />
	<path display="inline" fill="#2E2F31" d="M426,421.2c-0.1,1.8,0.6,3.9-0.5,5.4C425.3,424.8,425.1,423,426,421.2z" />
	<path display="inline" fill="#171618" d="M567.8,455.5c1.2-0.1,2.3-0.5,3,0.8C569.8,456.1,568.8,455.8,567.8,455.5z" />
	<path display="inline" fill="#363945" d="M426.7,417.8c0.1,0.6,0.2,1.3-0.5,1.6C426.3,418.9,426.5,418.3,426.7,417.8z" />
	<path display="inline" fill="#D7C0A0" d="M464.1,151.4c-0.2,0.3-0.3,0.6-0.5,0.9C463.8,152,463.9,151.7,464.1,151.4z" />
	<path display="inline" fill="#D7C0A0" d="M463.4,152.9c-0.2,0.3-0.3,0.6-0.5,0.9C463.1,153.5,463.3,153.2,463.4,152.9z" />
	<path display="inline" fill="#F6D9C7" d="M609.9,418.2c5.8,43.7-3.3,88.6,5.7,132.1c-3.8,6.7-9.2,10.7-16.6,14.5   c-0.4-0.2-0.9-0.4-1.5-0.6c0.5-0.7,1.6-0.9,1.5-2.1c0-11.4,0.3-22.9-0.7-34.1c-0.1-13.3,0.7-27.4-4.8-39.7c-0.7,5.3-1,9.2-1.2,14.4   c-12.9-29.9-12.4-54.1-3.2-84.1c1.9-1.5,5.1-2.4,3.7-5.5c-7.9-3.4-15.7,2.7-23.1,5c-19.5,5.3-39.8,9.5-60.1,9.9   c-0.2-14.2-6.4-28.7-20.3-33.8c2.9-5.3,7.1-9.3,12.2-12.8c34.5,2.7,70,2.9,103.4,13c0.9,4,4.5,6.1,6.5,9.4c-0.3,2-0.7,4.1-1,6.2   c-2.7-0.1-1.5-3.1-2.8-4.3c-0.2-0.8,0-2.3-1.3-2c-2.1-0.3-5.1-4.2-6.8-3.1c-0.9,0.9-1.9,1.8-2.6,2.4c-0.9,6.2,6.1,8.8,9.2,12.8   c1.3,3.4,1.8-0.5,3.5,0.4C609.7,416.9,609.8,417.5,609.9,418.2z M596.2,448.1c-0.2-2.7-0.7-5.3-1.9-7.9c-2.7,4.6,2.1,9.7,2,14.8   C596.9,452.7,597.2,450.4,596.2,448.1z M597.6,458.7c-0.4,1.8-0.1,3.5,1.3,5.4C598.6,462,599.3,460.1,597.6,458.7z M595.1,438.2   c0.3-0.5,0.5-0.9,0.8-1.3C595,436.4,594.4,437.2,595.1,438.2z M598.5,469.1c0.1-0.1,0.3-0.1,0.4-0.2c-0.1-0.4-0.2-0.8-0.3-1.1   c-0.2,0.1-0.4,0.1-0.6,0.2C598.2,468.3,598.3,468.7,598.5,469.1z" />
	<path display="inline" fill="#F6D9C7" d="M364.1,501.6c0.6-1.2,1.6-2,2.8-2.7c8.6,3.5,17.7,4.1,26.5,6.4c9,3.3,18.2,6.5,27.9,4.5   c12.1-1.4,23.2,7.1,34.3,11.1c0,0.2-0.1,0.5-0.1,0.7c-1.6,0.6-5,1.4-4.3,3.7c1.7-0.2,3.3-0.9,4.9-1.6c0.3,0.3,0.6,0.5,0.9,0.8   c-0.5,0.5-1,1-1.4,1.6l0,0c-4.9,2.5-5.1,14.8-1.9,18.4c3.4-3.1,3.5-6.9,4.6-11c18.5-20.8,24.8-49.6,29.1-76.9   c15.3-6.7,31.1-10.9,47.8-14.7c-3.8,52.7-24.8,65.9-48.5,107.2c-3-0.2-5.9,0.1-8.8,1.1c-5.1,1.4-10-1.6-15.2-1.1   c-7.7,0.9-14.3-3.3-21.2-6c2.9-0.3,5.6-0.6,6.9-3.6c-3.6-6-11.5-4.8-17.5-6c-4.1-0.4-7.4-3.6-11.4-3.8l0,0   c-5.7-3.3-8.1-9.6-11.9-14.3c-1.8-0.4-0.2-2.6-1.7-3c-6.1,3.5-3,4.2-1.4,10.2c-11.8-5-25.2-6-37.8-4.4c-2.4-2-1.8-5.7-2.8-8.5   c2.6-3,17.4,5.7,19.5,0.3c-4.3-3.7-10.8-4.6-16-5.8C366.1,503.2,366.2,500.8,364.1,501.6L364.1,501.6z" />
	<path display="inline" fill="#F6D9C7" d="M501.7,307.8c15.1-2.8,30.6-4.9,46-4.8c0.3,0.4,0.8,0.9,1.3,1.6c3.1,0.5,6.3,0.9,9.4,2.3   c1.1,13.8-10,23.7-10.3,36.7c-0.2,12.1,0.4,24-2.7,35.8c-15.9,2.2-30-4-45-8.2c-3-6.9,2-2.4,3.4-5.9c-1.9-3.4-4.6-5.9-7.5-8.4   c-0.8,1.1,0.3,2.6-1,3.4c-0.4-0.2-0.8-0.3-1.5-0.6c0,2.3-0.1,2.5,1.8,3.1c0.6,0.9-0.1,2.2,1.1,2.6c0.6,1.6,1.9,3,1.6,5.1   c-2.6-0.2-5-0.9-7.4-1.6c0.2-4.2,0.5-8.5,1-12.7c0.5-0.1,0.9-0.2,1.2-0.2c0,0.9-0.1,1.8,1.5,1.8c-0.4-2-2.6-2.6-2.3-4.7l0,0   c2.5-6.1,2.8-13.9,4-20.7c1.7,0.2,3.4,1,5.2,0.2c0.3-1,0.7-1.9-0.4-2.6c-1.1-5.3-4.7-10-4.4-15.8c4.2,3,7.6,7.4,13.2,6.3   c-1.7-4.7-5.9-7.7-9.4-11.4C500.9,308.6,501.3,308.2,501.7,307.8z M540,344.6c0.1,1.2-1.7,3.9,0.4,4c0.1-0.8,0.2-1.7,0.4-2.6   c1-1.3,0.5-2.7,0.7-4.8C540.4,342.7,539.8,343.4,540,344.6z M542.7,327.3c-0.2,1.9-1.3,3.6-0.2,5.6c1.9-3.7,0.9-7.2,0.9-11.3   C541.6,323.5,541.8,325.3,542.7,327.3z M537.9,355.4c0.7-0.4,1.5-0.8,1-2.1c-3.8,1.2-5,7.9-1.3,9.3   C538.5,360.1,537.5,357.9,537.9,355.4z" />
	<path display="inline" fill="#F6D9C7" d="M479.4,271.8c-3.4,17.5-7.6,35.3-15.9,51.1l0-0.1c-2.4-0.5-5.6,6.8-5.1,8.9   c2-2.2,2.9-4.9,4.5-7.3c3.8,19.4-9.6,76.2,2.7,88.4c-3.6,8.1,0.3,17.1,0.2,24.6c-1.2-1.2-2.1-2.8-3.9-3.1c-0.3,1.4,0.8,2,1.1,2.9   c-0.3,0.3-0.7,0.7-1,1c-1.8-0.9-3.5-1.8-5.3-2.7c-0.3,2.9,2.8,3,4.2,4.7c-3,1.9-5.3-3-8.6-2.7c0.6,0.9,1,1.6,1.4,2.2   c-0.4,0.4-0.7,0.8-1,1.2c-0.2-0.1-0.4-0.1-0.5,0.1c-1.8-1.3-3.6-2.7-5.6-4.1c0.8-15.4,2.9-31.2,1.8-46.8c1.3-1.2,2.6-1,4.4-1.1   c0-10.7-3.3-20.9-4.4-31.5c0.7-0.5,1.2-0.8,2.1-1.5c-0.7-0.3-1-0.5-1.3-0.6c0,0,0,0,0,0c-0.4-0.7-0.4-1.5,0-2.2   c0.4-1.5-1.2-2.6-0.2-4c0.3-0.4,0.1-1.1,0.2-1.7c1.1,0.3,1.7,1.9,3.2,1.1c3.4-7.9-3-16.8-1.2-24.9c-0.5-5.1,4.5-8.2,3.7-13.3   c0.2-12.6,0.1-27.7,5-38.9c3.2,4.9,3.2,4.9,6.2,5.8c1.3-5.4-2-10.5-2.4-15.9c0.4-0.6,0.8-1.2,1.3-1.9c1.8-9.3-2.1-26.2,5.6-31.8   c16.9-14.1,38.2,19.5,30.6,34.5c-0.5-0.1-0.9-0.1-1.6-0.2c-1.3,2.1-1.2,5-3,6.9c-4.3-1.3-6.3-7-10.7-8.5c-2.9-1.1-3.5,2.4-2.4,4.4   c-2.1,1.4-3.8,3.4-3.3,6C480,271.1,479.7,271.4,479.4,271.8z M458.5,335.1c0.2-0.6,0-0.9-0.4-1.3c-0.5,0.9,0,2.1-0.1,3.1   c0.1,0,0.3,0,0.4,0C458.4,336.4,458.4,335.7,458.5,335.1z M453.7,426.5c-0.6,1.6,0.7,7,2.4,7.3   C456.1,431.4,455.4,427.7,453.7,426.5z M453,435.9c-0.8-2.6-0.9-2.6-2.6-2.4C451.2,434.4,450.9,436,453,435.9z M460.4,428.4   c0.6-1.1,0.6-1.9-0.8-2.6C458.9,427.1,459.1,427.9,460.4,428.4z M458.9,340.6c-0.4,1.3-0.4,1.3,0.1,2.6   C459.3,342.3,459.7,341.5,458.9,340.6z M461.1,433.7c0.7-0.8,0.4-1.6,0-2.5C460.1,432.8,460.1,432.8,461.1,433.7z" />
	<path display="inline" fill="#FFF0A7" d="M498.1,271.7c15.2-17.6,3.9-33.2-9.1-47.4c20.4,9.3,28.2,39.1,57.3,27.7   c0.3-0.8,0.7-1.8,1.1-3.1c11.2,10.2,31.2,22.8,19.8,40.1c-1.6-0.1-3.3,0.4-5.4-0.5c0.5-2.9-2.9-3-3.7-5.1c-1.1,0-1.9,0-2.6,0   c-1.4,1.3-2.7,2.6-3.9,3.8c0,1,0,2,0,2.9c2.8,3.1,5.1,6.7,9.7,6.3c0.1,0.5,0.2,0.8,0.3,1.2c-0.9,1.9-1.8,3.8-2.8,5.8   c-17.9-7.1-37.6,0-56.1,0.8c-1.4-2.6,1.3-8.5,4.1-10.1c11.4,1.4,24.5,5.5,34.9-1.8c-0.3-0.5-0.6-0.8-0.9-1.2   c0.2-0.8,0.4-1.6,0.6-2.4c-5.8-3.3-14.9-0.3-21.3-3.1c-6-3-12.6-4.5-16.8-10.1c-2-2-2-2-4.7-2.8C498.2,272.4,498.1,272,498.1,271.7   z M546.3,289.4c-1.2-0.6-2-0.1-2.7,0.9C544.9,291.1,545.6,290.5,546.3,289.4z" />
	<path display="inline" fill="#E1C7B6" d="M509.7,428.1c20.3-0.5,40.6-4.7,60.1-9.9c7.4-2.3,15.3-8.5,23.1-5c1.3,3.1-1.8,4-3.7,5.5   c-9.2,30-9.7,54.4,3.2,84.1c0.2-5.2,0.5-9,1.2-14.4c8.2,23.2,4.2,49.3,5.5,73.7c-3.9-7.2,0.4-16.9-2.1-24.6   c-1.1,1.6-0.6,2.6-0.9,4.3c-5.6-20.2-9.3-41.5-16-61.7c-7.2-18.6-6.1-39.9,4.4-57c-26.3,8.7-52.9,16.7-79.6,23.5   C507.3,440.7,509.5,434.8,509.7,428.1z M580.3,420.3c3.9-0.9,8.2-2.3,10.9-5.3c0.2-3.9-15.1,4.9-14.2,6.7   C578.2,421.2,579.3,420.7,580.3,420.3z M571.7,422.5c1.1,0.5,1.9,0.3,2.7-0.7C573.2,421.2,572.4,421.3,571.7,422.5z M595.8,523.2   c-0.8,1.5-0.6,2.7-0.2,4.3C596.3,525.8,596.4,524.7,595.8,523.2z M596.5,530.4c-0.9,2-0.9,2,0.2,3   C597,532.4,597.1,531.5,596.5,530.4z" />
	<path display="inline" fill="#F6D9C7" d="M540.1,195.5c-0.2,0.4-0.4,0.9-0.7,1.5c8.9,16-36.7,3.3-35.5-6c-0.6,0-1.1,0-1.5,0l0.1,0   c-0.2-0.8-0.2-1.7-1.2-2c-0.4,0.7-1.1,1.2-1.7,1.5c-2.5-0.7-3.3-2.8-4.3-4.6c1.2-0.9,2.5-1.4,3.7-2.3c0.4,0,0.7,0.1,1.1,0.1   c0.9-0.8,1.8-1.6,1.8-3.1c-0.9-0.7-1.8-1.3-2.9-2.1c2.9-3.5-1.6-7.5-5.1-7.9c-0.2-0.2-0.5-0.5-0.7-0.7c5.1-5.5,7.6,8.7,13.5,2.8   c1.6-0.6,0-1.4-0.6-2.1c1.4-2.8,10.6-5.9,8.5-8.7c0.5-1.5,1-2.8,2.7-3c0.5-3.2,0.9-6.3,1.4-9.6c-1.2,0.2-2.2,0.4-3.2,0.6   c-0.5-0.2-0.9-0.5-1.4-0.7c0.8-0.2,1.8,0,2.3-1c1.3-1.1,3.7-0.3,5.2-0.4c0.4,0.5,0.6,0.8,1,1.3c1.4-1.1,2.6-1.8,4.3-2.2   c0.1,0.2,0.3,0.2,0.5,0.2c0.7,0.3,1.6,1,2.1,1.3c2.2-0.6,4.1-1,6.1-1.5c4.6,3.8,4,11.1,6.8,16.2c-7.5,5.9,0.2,12,2.1,18.6   c-2.6,2.4-4.6-1.5-6.4,2.6c0.8,0,1.5,0.1,2.1,0.1c0.4,1.5,0.9,2.9,1.4,4.6c-1.7,2.9-4.8,1.3-7.2,1.7   C533.6,192.4,538.8,194.8,540.1,195.5z M535.5,168.3c-4.9-0.9-5.4,0.7-8.8,2.8c1,1.5,2.4,0.1,3.4,0.8c0,0.3,0.1,0.7,0.1,1.1   c1.2,0.2,2,1.1,3.2,0.4C532.6,171.2,533.8,169.7,535.5,168.3z M524.7,166.5c3.4-0.7,5.9-2.3,9.3-0.4c1.3,0.6,2.2,0.8,3.7,0.4   c-2.2-3-5.3-2.8-8-3.3C527.9,164,525.8,164.2,524.7,166.5z" />
	<path display="inline" fill="#F7EFD0" d="M593.8,565.7c5.9,5.2,10.9-1.6,16.2-4.4c4.9-2.5,6-8.9,11.8-10.1c2.5,3,5,6,7.5,9.1   c-2.1,2.3-10.9,2.7-8.2,6.7c3.5-0.4,6.6-2.1,10-3.7c0.5,0.6,1,1.1,1.4,1.6c-2,1.9-10.4,1.6-7.9,6.3c3.8-1.2,7.9-1.3,11-4.2   c0.8,0.6,1.7,1.3,3,2.3c-2.9,1-6.2,0-7.8,3.3c2.6,2.1,5.8-0.3,8.4,1.4c-9.9,4.7,5,4.8,8.2,1.6c0.4,0.3,0.8,0.6,1.4,1.1   c-1.3,1-2.4,1.8-3.8,2.8c2,2.2,5,1.5,7.5,0.6c4.8,3.4,9.6,6.8,15.6,7.8c0.3,0.8,1.2,1.6,0,2.7c-27-2-34.8,7.6-62.2-4.9   c-4.9,5-12.2,4.8-18.5,2.2c-1.3-8.1,4.2-14.5,5.2-22.2C593.1,565.8,593.5,565.8,593.8,565.7z" />
	<path display="inline" fill="#4C505E" d="M503.2,446.1c-25.5,25.8-44.3-31.7-23.8-46.9C504.3,385.7,515.5,429.9,503.2,446.1z    M498.1,428.8c2.6-2.8,2.8-8.6,0.3-11.3c-0.4,0.1-0.7,0.2-1,0.4c-5.7-9.8-12.5,3.9-6.6,9.5c-0.1,0.4-0.3,0.8-0.4,1.2   C492.1,431.1,496.2,430.8,498.1,428.8z M495.9,449.7c1.5-0.1,1.5-0.1,2.1-1.4c-1.1,0.9-1.8,1-2.4,1.9   C495.8,450,495.8,449.8,495.9,449.7z M501.7,408.6c-1-5.5-7.6-10.6-13.1-10.9c-19.8,0.7-20.1,38.7-7.1,48.5   c0.8,3.2,8.8,6.7,11.5,4.2c0.4,0,0.8-0.1,1.3-0.2c-0.8-0.7-1.1-0.3-1.3,0.2c-23.1-0.3-27.3-47.8-4.8-51.8   C494.8,399.4,498,404.1,501.7,408.6c0.4,1.6,1.1,6.1,2.8,5.8C503.7,412.4,503.4,410.2,501.7,408.6z M506.6,426.4   c-0.6,0.9-0.8,1.8,0,3.3C506.6,428.1,506.6,427.3,506.6,426.4z" />
	<path display="inline" fill="#F6D9C7" d="M498.1,226.5c-1.9-1.5-3.9-2.9-5.8-4.4c-0.1-0.4-0.2-0.9-0.2-1.2   c-0.6-0.2-1.1-0.3-1.4-0.5c8.2-5.3,7-13,9.1-21c4.8,7.2,9.6,14.8,17.1,19.1l0,0c1.6,2,4.8,1.9,7.1,2.9c1.8,8.3,8.4,7.4,12.3,13.8   c4.1,4.4,6.4,9.9,8.8,15.4c-7.1,3.5-15.9-0.4-23.1-2.3c-9.7-3.3-12.8-14.8-21.5-19.9c0-0.3,0.1-0.7,0.1-0.9   c6.5,0.2,12.7,0.9,19.1,1c1.9,0.7,2.6,5,4.8,3.8C519.9,222.9,506.6,226.8,498.1,226.5z" />
	<path display="inline" fill="#EBDA8F" d="M498.1,271.7c0.1,0.3,0.2,0.7,0.2,1c2.7,0.8,2.7,0.8,4.7,2.8c4.3,5.6,10.8,7.1,16.8,10.1   c6.5,2.9,15.5-0.2,21.3,3.1c-0.2,0.8-0.4,1.6-0.6,2.4c-10.8,4.7-22.3,2.4-33.2,0c-0.2-0.1-0.3-0.2-0.5-0.1c-1.4-0.6-2.1-2.1-4-1   c3.2,2.3,7,2.5,10.4,4.6c-2.2,0.1-4.5,0.4-6.7-0.6c-2.7,1.6-5.4,7.5-4.1,10.1c-6.8,2.2-14.2,3.1-21.1,5.9   c-1.7-4.8-3.3-9.4-5.1-14.4c0.4-1.5,1.1-3.7,1.7-5.4C487.9,288.6,494.9,280.8,498.1,271.7z M496.1,287c1,0.8,1.7,1.1,2.6,0.7   c-0.1-0.4-0.1-0.5-0.1-0.7C497.9,287,497.1,287,496.1,287z" />
	<path display="inline" fill="#E1C7B6" d="M501.1,330.1c1,0.7,0.6,1.6,0.3,2.6c-1.7,0.8-3.4,0-5.2-0.2c-1.2,6.8-1.4,14.5-4,20.7   c-0.1-0.6-0.1-1.2-0.2-2c-0.7,1-0.5,1.6,0.2,2c-0.3,1.4,0.7,2.1,1.5,2.9c-0.7,0-1.1,0.1-1.9,0.2c-0.5,4.2-0.8,8.4-1,12.7   c-6.4-1.3-12.7-3.2-19.6-3.6c9.3-16.3,15.7-34,10.4-52.6c3.7-1.2,7.5-3,11.4-2.8l0-0.1c-0.6,2.1,2.3,2.7,3.5,3.8   C496.4,319.6,499.7,324.6,501.1,330.1c-0.7,0-1.3-1.2-2.1-0.2C499.6,330.5,500.8,331.4,501.1,330.1z M495.2,325.8   c0.1,0.2,0,0.8,0.5,0.3c-1.4-0.7-1.5-2.5-3.4-2.4C493.1,325.1,493.9,325.9,495.2,325.8z" />
	<path display="inline" fill="#F7EFD0" d="M365.6,533.3c-0.5,0.4-1,0.8-1.5,1.2c1.2,2.4,4.3,3.6,6.6,3.1l0,0   c-0.1,0.2-0.1,0.5-0.1,0.7c-2.1,0.2-4.3-0.1-5.9,1.5c-0.1,3.1,3.8,2.7,5.8,3.7c0,0.2,0,0.3,0,0.5c-2.4,0.5-5.1,0-7,1.8   c1,1.5,2.6,1.5,3.9,2.2c0,0.4,0.1,0.8,0.2,1.5c1.1,0.6,2.3,1.2,3.7,1.9c-1.3,1.3-3.2,0.3-4.2,1.7c1.6,1.4,2.7,1.3,8.7-0.9   c2.1,0.5,4.1,0.9,6.1,1.4c2.4,3.2,2.7,6.9,2.3,10.8c-8.3-4.6-27.5,1-26.7-12.1c-2.1-6.6,3.7-12.7,2.2-19.5c0.2-4-2.7-6.3-6-8.1   c-4.6-4.2-5.4-11.6-8.5-17c2.1-3.1,3.1-8.5,7.8-7.4c5.3,0.8,7-5.1,12.6-4.3c-7.8,4.9-7,10.4-3.2,17.7c-0.3,0.2-0.8,0.5-1.2,0.7   c1.2,3.3,4.9,7.7,8.4,9.7c2.8-2,5.7,0.8,8.6-0.5c0.7,2.1-1.6,2.7-1.5,4.2c-5.4,2.3-10.7-2.6-15.8,0.3c1.4,3,5.3,3.3,8.2,4.1   C368.3,533.3,366.3,531.7,365.6,533.3z" />
	<path display="inline" fill="#E1C7B6" d="M457,524.5c-0.3-0.3-0.6-0.5-0.9-0.8c0.2-0.4,0.5-0.7,0.8-1.2c-0.4-0.3-0.9-0.6-1.3-0.9   c0-0.2,0.1-0.5,0.1-0.7c0.6,0.1,1.2,0.2,1.9,0.3c0.2,0.6,0.3,1.1,0.4,1.7c6.8-1.4,8.4-9.9,9.7-15.6c8.3-18.2,3.3-37.7,5.4-56.9   c5.3,2.6,9.9,6.1,16.3,5.2c-0.6,0.3-1.2,0.7-2,1.2c-4.2,27.3-10.5,56.1-29.1,76.9c-1.1,4-1.2,7.8-4.6,11c-3.2-3.7-3-15.9,1.9-18.4   c0.1,0.4,0.2,0.8,0.3,1.4c2-1.4,2-1.4,2.5-3C457.9,524.5,457.5,524.5,457,524.5z" />
	<path display="inline" fill="#E1C7B6" d="M470.7,227.7c-7.7,5.5-3.8,22.5-5.6,31.8c-0.5,0.7-0.9,1.3-1.3,1.9   c0.4,5.4,3.7,10.5,2.4,15.9c-3-0.9-3-0.9-6.2-5.8c-4.9,11.1-4.8,26.3-5,38.9c0.8,5.2-4.1,8.2-3.7,13.3c-1.9,8.1,4.6,17,1.2,24.9   c-1.6,0.8-2.1-0.9-3.2-1.1c-5.9-13.1-1.1-26.9,0-40.4c-0.4-13.3,1.9-26.1,6-38.7C457.8,254.7,452.4,232,470.7,227.7z M457.4,274   c0.2-1.5,0.2-1.5-1.1-2.6C456.7,272.4,457,273.1,457.4,274z" />
	<path display="inline" fill="#E1C7B6" d="M366.8,518.2c12.5-1.6,26-0.6,37.8,4.4c-1.6-6-4.8-6.7,1.4-10.2c-0.1,0.6-0.1,1.2,0.7,1.4   c0,0.8,0.2,1.4,1,1.6c-1,5.6,4.6,10,8.3,13.6c0.5-1.8-1.4-2.3-1.4-3.6c1.7,1.4,3.4,2.9,5.1,4.3c-0.4,0-0.9,0-1.5,0   c-0.1,2.2,4.3,5.1,5.8,3.8c-1.6-1.2-2.9-2.5-4.3-3.8c4,0.2,7.3,3.4,11.4,3.8c6,1.2,13.9,0.1,17.5,6c-1.3,2.9-4,3.3-6.9,3.6   c6.9,2.7,13.5,6.9,21.2,6c5.1-0.5,10.1,2.5,15.2,1.1c2.9-1,5.8-1.3,8.8-1.1c-22.5,30.8-85.1-38.5-117.1-27.7   C368.5,520.2,367.6,519.2,366.8,518.2z M434.6,538.8c0.8,0.1,1.5,0.1,2.6,0.2c-0.9-0.9-1.3-1.7-2.3-1.1   C434.8,538,434.8,538.1,434.6,538.8z M428.6,536.9c0.1-0.2,0.1-0.3,0.2-0.5c-0.4-0.2-0.8-0.4-1.1-0.6   C427.3,536.7,428,536.6,428.6,536.9z M439.5,538.3c0,0.2,0,0.4,0,0.5c0.5,0,1,0,1.5,0c0-0.1,0-0.3,0-0.4   C440.5,538.3,440,538.3,439.5,538.3z" />
	<path display="inline" fill="#4C505E" d="M452.1,441c1.5,0.2,2.8,1.8,4.8,1.1c0.7,0.6,1.4,1.2,2.2,1.8c1.8,0.2,3.9-0.4,5.3,1.5   c-2.6,14-21.6,13.5-27.2,1.7c-2-3.6-4.4-7.5-4.5-11.8c-0.2-1,0.6-2.1-0.6-2.9c-2.1-10.2,1.6-21.8,9.3-28.8l0,0   c1.5-0.5,2.9-0.9,4.4-1.4c1.9,4.4-0.9,8.4,0,12.6c1.5,8.1-3.6,15.5-0.4,23.5c1.6,1.1,4.1,2.5,6.1,3.4   C451.6,441.5,451.8,441.3,452.1,441z" />
	<path display="inline" fill="#EBDDB8" d="M593.8,565.7c-0.3,0.1-0.7,0.2-1.2,0.3c-1,7.7-6.5,14.1-5.2,22.2   c6.3,2.6,13.5,2.8,18.5-2.2c27.4,12.5,35.3,2.9,62.2,4.9c1.3-1.1,0.4-1.9,0-2.7c0.3,0,0.7,0.1,1.1,0.2c0.4,2.1,0.6,4.2,0.1,6.3   c-19.4,1.2-40,3.7-59.4-0.7c-9.5,0.3-20.1,1.2-28.7-3.5c4.2-9.3,5.3-19.4,8.3-29c0.1,0,0.4,0,0.6,0   C590.8,563.3,592.4,564.4,593.8,565.7z" />
	<path display="inline" fill="#E1C7B6" d="M516.9,218.4c-7.6-4.3-12.3-11.9-17.1-19.1c-2.1,8.1-1,15.7-9.1,21   c0.4,0.1,0.8,0.3,1.4,0.5c0.1,0.4,0.1,0.8,0.2,1.2c-1.7-0.9-4.3-0.9-4.6-3.2c5.4-6.7,4.8-15.5,4.3-23.5c1.1-0.7,2.1-1.3,3.2-2   c0-1,0-2,0.1-3c0.8,1,1.5,2,2.2,2.8c3.4-0.8,3.4-0.8,5-2l-0.1,0c0.8,2.3,0.8,5.6,3.1,6.9c3.5,1.2,9,4.4,12.2,3.2c2.4,1,4.8,2,7.2,3   c-6,3.5-1.5,11.9-0.9,17.2C521.7,220.3,518.5,220.5,516.9,218.4c0.4-0.1,0.8-0.2,1.3-0.3c-0.4-0.7-0.7-1.1-1.5-2.2   C516.8,217.3,516.9,217.9,516.9,218.4z M514.7,213.4c0.6,0.7,0.7,2,2.3,1.6c-0.9-1.3-1.5-2.4-2.6-3.5   C513.6,212.4,514.5,212.8,514.7,213.4z M510.4,204.8c1.1,1,1.7,3.5,3.2,3.3c-1.5-2.9-3-6.1-6-7.8   C508.1,202.2,508.1,202.2,510.4,204.8z" />
	<path display="inline" fill="#ED8969" d="M462.9,396.2c0.5-4.7,0.8-9.6,1.4-14.6c9.1-2,18.4-1.2,27.2-2.4c0.4,0.4,0.8,0.7,1.1,1   c-3.8,0.9-10.6,4.5-13.9,2.5c0.2-0.4,0.5-0.7,1-1.5c-3.3,1.6-11.3,1.9-12.1,4.4c1-0.2,2.1,0,3,0.6c-1.3,1.1-2.8,1-3.5,3   c1.3-0.1,1.5-0.4,2.1-1.3c5.1-0.9,10.1-2,15.1-3c-0.9,1-2.4,1.3-2.1,2.9c-1,0.4-1.9,0.9-2.9,1.3c-1.4,3.8-5.8,3.3-8,6.5   c3.3-1.3,6.7-2.1,9.2-4.6c-0.2-0.5-0.3-0.8-0.4-1.1c0.2,0,0.4,0,0.6-0.1c0.2,0,0.5,0,0.7,0c3.5,2.1-0.6,3.9,0.9,5.1   c-5.7,1.5-9.9,5.2-14.3,8.9c0.5,0.2,0.8,0.4,1,0.5c-1.1,1.7-1.5,4-3.3,5.1c-0.8-0.8-1.6-1.5-2.5-2.3   C463.2,403.6,463.9,399.7,462.9,396.2z" />
	<path display="inline" fill="#EADCB7" d="M348.9,500.9c-1.2,2.2-2.4,4.4-3.7,6.5c3.1,5.5,3.9,12.8,8.5,17c3.2,1.8,6.2,4.1,6,8.1   c1.5,6.8-4.4,12.9-2.2,19.5c-0.8,13.1,18.4,7.5,26.7,12.1c-1.3,1.8-5,0.1-7.1,0.5c-25.5,0.6-28.4-6.4-21-29.6   c7.5-5.5-8.8-8.6-9.8-13.6C346.2,515.2,339.8,503.6,348.9,500.9z" />
	<path display="inline" fill="#D7C0A0" d="M463.5,156.5c0.3-2.9,2.6-3.9,4.3-5.7c2.6-0.4,5.2-3.6,7.9-1.4c-0.7,0.7-1.3,1.4-2,2.2   c-0.2-0.2-0.4-0.5-0.6-0.8c-7.2,6.8-5.8,16.2-2.7,24.7c0.1-6.3-2.9-12.6,0.2-18.8c0.3,1.7-0.7,3.8,0.5,5.2c0.4-4.5,1.1-6.3,3.4-8.7   c-0.8,5.9-4.4,11.1-2.7,17.4c2.1-1.8,0.1-4.5,1.6-6.6c-0.4,8.8,0.8,17.5,1.2,25.9c-1.4-3.5-0.8-7.2-3.9-9.4c-0.4-1.4-0.4-3-2-4.2   c0.1,1.3,0.3,2.3,0.4,3.1c-0.5,0.3-0.8,0.5-1,0.6c0.5,4.7,4.2,9.7,1.8,14.1c-3.2-9-6.1-18.1-7.9-27.4   C463.2,164.5,464.8,158.5,463.5,156.5z" />
	<path display="inline" fill="#4C505D" d="M557.9,434.6c6.1-1.5,12.3-4.4,18.5-4.5c-2.4,7-4.3,13.8-5.8,20.9   c-0.4,0.1-0.8,0.1-1.1,0.2c-1.5-1.2-2.2-2.3-4.4-2.1c1.7,1.1,2.7,2.5,4.5,2.1c0.3,0.8,1.8,0.8,1.4,2.1c-8.3-0.5-13.8-10-15.8-17.2   c0.3-0.2,0.5-0.5,0.8-0.7c0.2,0,0.4,0,0.6,0c1.8,3.9,3.2,9.9,7.1,11.8C561.6,443.2,558.1,439.3,557.9,434.6z" />
	<path display="inline" fill="#E0C6B5" d="M479.4,271.8c0.3-0.3,0.6-0.7,0.9-1.1c-0.5-2.6,1.2-4.6,3.3-6c-1.1-2-0.5-5.4,2.4-4.4   c4.4,1.5,6.4,7.2,10.7,8.5c-4.2,8.1-8.7,16.3-18,19.4c0.2-5.7,2.3-10.8,2.2-16.5C480.3,271.8,479.8,271.8,479.4,271.8z    M482.1,271.1c1.8-1.5,4-2.9,4.9-4.5C483.8,266.8,480.2,268,482.1,271.1z" />
	<path display="inline" fill="#ED8969" d="M464.3,379.8c1.8-3.7,3.6-7.5,5.4-11.3c3.7-0.5,12.6,1,19.3,3.2c-0.4,0.1-0.9,0.2-1.4,0.4   c0.5,0.9,0.9,1.7,1.3,2.6c-4.3,0.2-9.4-3.5-13.2-1.1c5.5,0.9,10.1,1.8,15.2,3.5c-1.3,1.6-3.6-0.3-5,1.2   C478.7,378,471,380.2,464.3,379.8z" />
	<path display="inline" fill="#E0C6B5" d="M448.5,346c1.5,1.9-0.7,4,0.6,5.8c-0.4,0-0.8,0.1-1.8,0.2c0.9,0.6,1.4,0.9,1.8,1.2   c-0.4,0.7-0.5,1.5,0,2.2c-0.2,0.1-0.8,0-0.3,0.5c0.1-0.2,0.2-0.4,0.3-0.6c0.3,0.2,0.6,0.3,1.3,0.6c-0.9,0.7-1.4,1-2.1,1.5   c1.1,10.6,4.3,20.8,4.4,31.5c-1.8,0.1-3.1-0.1-4.4,1.1c-1.4-15.2-4.7-31.1-1.9-46.2l0,0c0.1,0.1,0.3,0.1,0.5,0.1   c0.3,1.6,0.2,2.8,1.4,4.1C448.4,347.3,448.4,346.6,448.5,346z" />
	<path display="inline" fill="#4C4F5C" d="M465.7,437.4c1.5-1.6-0.7-4.5-0.7-6.5c2.1-3-0.9-7.5,0.7-10.8c1.2-0.5,2.4-0.9,3.6-1.4   c-0.2,9.1,2.1,17.9,6.5,25.9c-1.4,0-2.9-0.2-4.2,0.7c-1.4-1.5-3.1-3.3-5.1-1.6c-0.7-0.2-1.3-0.5-1.3-1.5c1.2,0.1,2.4,0.1,3.7,0.2   C469.1,439.8,467.3,439,465.7,437.4z" />
	<path display="inline" fill="#EBD98F" d="M561.5,297.6c-0.1-0.3-0.1-0.7-0.3-1.2c-4.6,0.4-6.9-3.2-9.7-6.3c0-0.9,0-1.9,0-2.9   c1.3-1.2,2.5-2.5,3.9-3.8c0.7,0,1.6,0,2.6,0c0.8,2.1,4.2,2.2,3.7,5.1c2,0.9,3.7,0.4,5.4,0.5c-1.2,2.8-4.3,4.1-4.7,7.2   C562.5,296.7,561.8,297.2,561.5,297.6z" />
	<path display="inline" fill="#171618" d="M475.7,444.6c-7.5-13.8-10.6-35.1,2.9-46.1c0.2,0.2,0.5,0.5,0.7,0.7   c-18.3,14.5-6.4,65.1,20.8,50.4c0.3,0.8,1.1,0.7,1.7,0.9c-7.9,4.5-18.8,8.2-26.2,0.7c4.1,0.6,7.3,4,11.9,2.7   C483,451.8,478.9,448.9,475.7,444.6z" />
	<path display="inline" fill="#1F1818" d="M479.4,399.2c-0.2-0.2-0.5-0.5-0.7-0.7c0-0.2,0-0.4,0-0.7c0.3-0.1,0.7-0.2,1-0.3   c-0.1-0.2-0.2-0.3-0.2-0.5c-3.4,1.7-6.5,4.2-8.8,7.3c-0.5,0.1-1,0.3-1.4,0.4c-0.1-0.1-0.1-0.2-0.1-0.3c-0.3-0.1-0.6-0.3-1-0.5   c5.2-4.3,10.6-9.5,17.8-8.9c1.8,1.4,2.2,0.4,3.5-0.8c20.4,7.8,24.6,34.6,15.4,52.5c-0.5-0.2-1.1-0.4-1.6-0.6   C515.5,430,504.3,385.7,479.4,399.2z" />
	<path display="inline" fill="#E0C7B6" d="M609.9,418.2c-0.1-0.7-0.2-1.3-0.2-1.9c-1.7-0.9-2.3,2.9-3.5-0.4c0.5,0.1,0.8,0.9,1.6,0.2   c-1-3.9-2.8-9-7.3-10.1c1.9,3.1,4.2,5.3,5.2,9c-3.6-3.1-9.4-6.4-8.7-11.9c0.7-0.7,1.7-1.6,2.6-2.4c0.1,0.8-0.2,2.3,1.3,2   c0-0.6,0.1-1.2,0.1-1.9c2.1,0.6,3.3,2.4,5.4,3c-0.4,2.1-0.4,2.1,1.1,3.4c0.1-0.5,0.1-1,0.2-1.4c1.3,1.3,0.1,4.3,2.8,4.3   C610.1,412.6,611.6,416.2,609.9,418.2z" />
	<path display="inline" fill="#DEC5B4" d="M366.4,503c0.3,0.4,0.6,0.7,1.1,1.2c5.3,1.2,11.7,2.1,16,5.8c-2.1,5.5-16.9-3.2-19.5-0.3   c-0.1-2.5-3.1-6.8,0.2-8.1l-0.1-0.1c0,1.6,0,3.2,0.4,4.7C366.7,506.9,366.2,504.3,366.4,503z M370.4,506.4   c-1.3-0.7-1.9-1.8-2.7-0.7C368,507.1,368.9,506.4,370.4,506.4z M372.4,507.8c0.3-1.1,0.3-1.1-1.1-0.9   C371.7,507.3,372,507.5,372.4,507.8z M376.1,508.4c0.7,0.1,1.2,0.7,1.5,0.2C377.4,507.7,376.9,508.2,376.1,508.4z" />
	<path display="inline" fill="#FB9775" d="M485.9,395c-6.4,0.1-2.8,0.2-3-3.8c-0.5-0.5-0.9-0.9-1.3-1.3c0.2-1,1.8-0.8,1.8-2.1   c-0.4,0-0.8,0-1.1-0.1c0.6-4.1,6.4-3.9,9.3-5.9c2.5,0.4,5.4-3.4,7.2-1.4C492.6,383.4,488.6,388.9,485.9,395z" />
	<path display="inline" fill="#E0C6B5" d="M508.3,320.6c-4-0.2-7.5-2.2-10.2-5.7c0.5,0,1,0,1.4,0c0.1,0.2,0,0.8,0.5,0.3   c-2.4-1.7-4-4.6-7-5.4l0,0.1c-0.1-0.2,0-0.5,0-0.7c2.8-0.6,5.7-1.3,8.6-1.5c-0.4,0.4-0.8,0.8-1.2,1.3c2.5,3.4,7.8,5.8,8.5,10.1   c-0.4,0.1-0.9,0.1-1.5,0.2C507.8,319.9,508.1,320.3,508.3,320.6z M504.6,318c-0.1,0.1-0.3,0.2-0.4,0.3c0.2,0.4,0.5,0.1,0.8,0   C504.8,318.2,504.7,318.1,504.6,318z" />
	<path display="inline" fill="#1E1816" d="M502.5,191.1c-1.6,1.2-1.6,1.2-5,2c-0.9-1.1-1.8-2.5-2.9-3.5c-2.5-0.5-4.8-1.2-7.1-2.4   c-0.1,0.4-0.2,0.7-0.2,1c-1-1.1-1-1.1,0-2.2c2.2-0.2,3.9,1.9,6.4,1.8c0.3-1.3-0.6-1.9-1.4-2.5l0,0.1c-0.3-0.3-0.5-0.5-0.8-0.8l0,0   c-5.1-8-2.8-5-2.1-13.7c1.3-1.2,2.6-2.5,3.7-3.5c1.7-0.2,3-0.3,4.1,0.6c-0.3,0.3-0.6,0.5-0.9,0.8c-3.8-0.3-5.7,3.8-6.2,7   c0.5,0.3,0.9,0.5,1.3,0.6c0,0.6,0.4,1.9,0.9,0.8c0.2,0.1,0.4,0.1,0.6,0.2c0,0.5-0.1,1-0.1,1.4c-0.9,0-1.8,0-3.1,0   c3.4,4.2,4.9,9.1,9.6,11.7c0.6-0.4,1.3-0.9,1.7-1.5C502.3,189.4,502.2,190.3,502.5,191.1z" />
	<path display="inline" fill="#CCB799" d="M480.1,219.9c-0.4,0.7-0.7,1.4-1.3,2.6c-1.4-9.9,1.4-20.8-0.9-30.7   c0.3-0.3,0.5-0.6,0.8-0.8l0,0c-0.1,0.6-0.1,1.2,0.6,1.5C482.5,201.4,482.1,210.8,480.1,219.9z" />
	<path display="inline" fill="#F59674" d="M488.8,374.7c-0.4-0.8-0.8-1.6-1.3-2.6c8.1,0.1,16.7,3.2,24.1,6.7c-3.3,0.7-6.5,0-9.7,0.2   C498.9,375.6,492.9,376.3,488.8,374.7z" />
	<path display="inline" fill="#D1BB9C" d="M489.6,171c0.2,3.3-1.8,5.7-0.9,9.3c-0.4,1.1-0.8,0-1.3,0c-3.3-2.4-7.2-5.6-7.2-10   c2.3,1.3,5.3,3.1,7.8,1.9c-3.5-0.9-7.1-1.7-7.9-5.4c1.7,1,3.3,1.9,4.9,2.7c0.6,1.1,1.9,0.3,2.9,0.7C488.3,171,489,170.9,489.6,171z   " />
	<path display="inline" fill="#D2BD9D" d="M484.4,163.1c-1.4-0.9-2.7-1.7-4.1-2.6c0.2-1.9,0.4-3.6,0.7-5.3c5.6,2.8,11,6,17.1,7.9   c-1.8,1.3-4.3,0.4-6.4,0.6c-1.3-1.3-4.5-0.8-6.2-1.8C485,162.4,484.7,162.8,484.4,163.1z" />
	<path display="inline" fill="#191613" d="M536.2,145c0.2,0.3,0.4,0.6,0.6,0.9c-1.3,0.7-2.5,0.6-4.1,0.8c-1.8-1.1-2.6-3.5-4.5-4.6   c-2.7,0.9-4.2-1.5-6.4-1.5c-0.2-0.8-0.9-0.6-1.5-0.7c-3.1-1.6-8.2-1.9-12.2-2.3c0.2-0.4,0.5-0.8,0.7-1.2c0,0,0-0.2,0-0.2   c1.2,0.1,2.4,0.1,3.6,0.2c4.9,1.6,6.6-1.5,12.6,2.7c1.1-0.4,2.2-0.1,3.3,0l0,0c0.6,1.2,1.5,2.1,2.9,2.2l0,0   C532.7,142.2,534.8,146.8,536.2,145z" />
	<path display="inline" fill="#D8CBAC" d="M484.3,148.7c-0.3-0.3-0.6-0.6-1-1.1c1.9-1.7,3.7-3.2,5.4-4.7c0,0.5,0,0.9,0,1.4   c-0.6,0.6-1.2,1.2-0.6,2c6.2,1.1,12.9,0.9,18.6,3.3c-0.8,0.3-1.7,0.6-2.5,1c0.5,1.3,1.6,1,2.6,1l0,0c0,0.3,0,0.6,0,0.8l0.1,0   c-2.8,1.3-5.5-0.2-8.3,0.6c-0.6,0.2-1.4,0.2-1.8-0.7c0.6,0,1.2,0,1.5-0.8c1.7-0.7,1.7-0.7,4.3-0.2c-0.7-0.8-1.3-1.3-1.8-1.8   c-4.1-0.3-7.8-1-11.9-0.9C487.7,147,485.7,148.3,484.3,148.7z" />
	<path display="inline" fill="#F1DCBB" d="M473.8,151.5c0.7-0.8,1.5-1.6,2.2-2.4c0.7-0.1,4.6-0.7,4.7,0.2c-6.4,5.5-6.6,14-8.8,21.1   c-1.7-6.2,2-11.5,2.7-17.4c-2.3,2.4-3,4.2-3.4,8.7C469.5,158.4,471.2,154,473.8,151.5z" />
	<path display="inline" fill="#CFBB9C" d="M481.7,153.5c0-1,0.1-1.8,1.3-1.9c3.6,2.9,10.8,7.1,15.2,4.8c2.1,1.2,4.7,1.1,7,1.6   c0,0.4,0,0.8,0,1.2C497.1,161.1,488.3,158.3,481.7,153.5z" />
	<path display="inline" fill="#CCB89A" d="M489.6,171c-0.6-0.1-1.3,0-1.6-0.7c0.4-0.1,0.7-0.3,1.6-0.6c-3.9-1.6-8.2-2.5-9.6-6.3   c1.2-0.8,1.9,0.7,2.9,0.5c5,1.8,10.6,2.1,15.9,2.8c-0.5,0.5-0.9,1-1.4,1.5c-1.1-0.9-2.4-0.8-4.1-0.6   C492.2,168.5,490.9,169.7,489.6,171z" />
	<path display="inline" fill="#E0C6B5" d="M495.2,360.4c1.4-0.8,0.2-2.3,1-3.4c2.9,2.5,5.6,5,7.5,8.4c-0.4,2.5-3.3,0.5-4.3,2.3   c-0.9-0.7-1.5-2.3-2.8-2.2c-1.2-0.4-0.6-1.7-1.1-2.6c-0.3-0.5-1.7,0-1.8-1.2C495.3,361.9,495.3,361.9,495.2,360.4z" />
	<path display="inline" fill="#363944" d="M475.7,444.6c3.1,4.3,7.3,7.1,11.9,9.2c-7,1.2-12.3-3.4-16.1-8.5   C472.8,444.4,474.3,444.7,475.7,444.6z" />
	<path display="inline" fill="#353844" d="M565.8,454.7c-5.1-1.7-10-4.2-12.2-9.4c1.2-0.1,2.9,0.6,3.5-0.7c3,4.3,6.6,8,11.5,10.1   C567.8,454.7,566.8,454.7,565.8,454.7z" />
	<path display="inline" fill="#B9A589" d="M470.9,180.2c3.1,2.2,2.5,5.9,3.9,9.4c0.2-1,0.3-1.7,0.4-2.3c1.2,3.6,2.3,8.1,0.7,11.6   c-0.1-2.6-0.2-5.1-1.4-7.5c-0.4,2.4,0.8,5.6-0.7,7.5C472.9,192.5,471.8,186.5,470.9,180.2z" />
	<path display="inline" fill="#482A20" d="M464.3,379.8c5.8,0.7,12.5-2,18.7-1.3c0.2,0.2,0.5,0.4,0.7,0.7c0,0.2-0.1,0.4-0.1,0.6   c-6.4,0.2-12.8,0.8-19.3,1.9c-0.9,4.2-0.3,8.9-1.5,12.7C463.7,389.9,460.9,383,464.3,379.8z" />
	<path display="inline" fill="#29251F" d="M476.6,195.3c-1.8-11.5-4.8-23-2.4-34.6c0.4,6.4-1,13.1,1.4,19   c-2.1,4.7,3.3,10.6,2.2,15.7C477.4,195.4,477,195.5,476.6,195.3z" />
	<path display="inline" fill="#494D5A" d="M557.2,444.6c-0.7,1.3-2.4,0.6-3.5,0.7c-1.8-2.1-2.1-4.9-2.8-7.5c0.7-1.1,2.5-2.1,3.5-1.1   C554.3,439.6,556.4,441.9,557.2,444.6z" />
	<path display="inline" fill="#272421" d="M519.7,228.6c-6-1.6-12.7-0.2-19.1-1c0,0.2-0.1,0.6-0.1,0.9c-0.8-0.6-1.6-1.3-2.4-1.9   c7.6-0.1,16.3-1.8,23.2,1.8c-0.3,0.3-0.5,0.6-0.8,0.9C520.3,229,520,228.8,519.7,228.6z" />
	<path display="inline" fill="#21100C" d="M488.8,374.7c4.1,1.7,10.1,0.9,13.1,4.4c-0.4-0.1-0.8-0.2-1.2-0.4   c-0.4,0.4-0.7,0.8-1.1,1.2c-4.8-3.3-11.8-2.7-17.2-5.2c0.5-0.2,1-0.5,1.5-0.7C485.5,374.2,487.1,374.4,488.8,374.7z" />
	<path display="inline" fill="#171618" d="M557.2,444.6c-0.9-2.7-2.9-5-2.9-7.9c0.2,0,0.5,0,0.7,0c2.8,6.9,7.5,16.1,15.8,16.5   c-0.4,1-1.4,1-2.1,1.5C563.8,452.6,560.2,448.9,557.2,444.6z" />
	<path display="inline" fill="#160F0E" d="M469.1,404.5c0,0.1,0,0.2,0.1,0.3c-0.5,3.4-2.3,6.2-2.9,9.6c-0.2,0-0.5,0-0.7,0   c0.3-3-3.7-4.1-3.6-7.2c1.7-3,0.3-7.5,0.8-11c1,3.5,0.3,7.4,0.5,11c0.9,0.9,1.7,1.6,2.5,2.3C467.7,408.5,468,406.2,469.1,404.5z" />
	<path display="inline" fill="#2D221D" d="M480.7,149.3c-0.2-0.8-4.5-0.5-5,0.1c-2.7-2.2-5.3,1-7.9,1.4l0,0c0.7-1.8,2.5-2.3,3.9-3.3   c-0.4-0.4-0.7-0.7-1-1c1.3-0.1,2.7,0.1,3.9-0.7c2.6-0.1,4.5,1.3,6.8,2C481.6,148.4,481.6,149.1,480.7,149.3z" />
	<path display="inline" fill="#4B3C32" d="M481.7,153.5c5.1,4.2,11,5.2,17.3,6.5c-0.3,0.2-0.5,0.5-0.8,0.7c-1.3-0.3-2.5-0.4-3.8-0.5   c0,0.1,0,0.2,0,0.3c0.3,0.1,0.6,0.2,0.9,0.4c-0.3,0.2-0.5,0.5-0.8,0.7c-5-1.3-8.9-4.6-13.5-6.5   C481.2,154.6,481.4,154.1,481.7,153.5z" />
	<path display="inline" fill="#211D1A" d="M597.4,553.6c0.5,2.8-0.8,6.4,1.5,8.6c0.2,1.2-1,1.4-1.5,2.1c-3.9-1.6-1.5-8.7-1.2-12.7   C596.8,552.4,597.1,553,597.4,553.6z" />
	<path display="inline" fill="#96604A" d="M490.8,377.1c2.9,0.9,6.7,0.3,8.8,2.8c-0.3,0.2-0.5,0.4-0.8,0.7c-1.8-2-4.8,1.8-7.2,1.4   c-0.2-0.8-0.9-0.6-1.4-0.7c0.8-0.3,1.6-0.6,2.5-1c-0.3-0.3-0.7-0.6-1.1-1c0.9-0.1,1.7-0.2,2.6-0.3c0-0.1,0-0.3,0-0.4   c-2.8-0.1-5.6-0.2-8.3-0.2C487.2,376.8,489.5,378.7,490.8,377.1z" />
	<path display="inline" fill="#DFE0E0" d="M488.1,207.6c-0.7-3.4-2.5-8,1.1-10.4c1.5,3.8,0.3,7.5,0.1,11.1   C488.9,208.1,488.5,207.8,488.1,207.6z" />
	<path display="inline" fill="#3B3028" d="M483.7,177.4c1.3,1,2.5,1.9,3.8,2.9c-0.4,0.3-0.9,0.7-1.5,1.1c1.8,1.3,3.2,3,5.6,3.2l0,0   c0.3,0.3,0.5,0.5,0.8,0.8c0,0,0-0.1,0-0.1c-1.4,1-2.7-0.2-4.2-0.5c0,0.5,0,0.9,0,1.2c-0.3,0-0.6,0.1-0.8,0.1   c0.3-1.3-0.9-4.1-2.3-2.8c-0.7-1.3-1.4-2.6-2.2-3.9C483.1,178.6,483.4,178,483.7,177.4z" />
	<path display="inline" fill="#342B24" d="M497.4,166.5c-4.8-0.9-10-1-14.5-2.7c1.1-0.5,1.7-0.8,2.5-1.9c3.9,1.2,8,2.6,12,3.9   C497.4,166.1,497.4,166.3,497.4,166.5z" />
	<path display="inline" fill="#6D6252" d="M476.6,195.3c0.2,0.1,0.4,0.1,0.6,0.1c-0.5,8.6,1,17.7-0.6,26c-0.4-2.8,0.8-6.4-0.7-8.7   C477.3,206.8,475.3,201.1,476.6,195.3z" />
	<path display="inline" fill="#3C3129" d="M480.8,165.2c2.5,2,5.3,3.3,8.8,4.5c-3.5,1.7-6.2-1.5-9.3-2.9c0.8,2.3,1.1,2.6,3.5,4.1   c-0.3,0.3-0.5,0.6-0.8,0.9c-2.4-1.1-4.2-2.4-3.5-5.3C479.8,166.1,480.3,165.6,480.8,165.2z" />
	<path display="inline" fill="#546253" d="M495.8,136.9c2.3-1.4,5.4-0.3,8-0.6c0,0.7,0,1.3,0.1,2c-0.6,0.1-1.2,0.3-1.8,0.4   c2.8,0.7,5.7-0.1,8.3,1.1c-3.7,0-7.8,0.8-11.2-0.9c0.2-0.5,0.5-1.1,0.8-1.8C498.4,137.1,497.3,137.1,495.8,136.9z" />
	<path display="inline" fill="#463730" d="M528.3,142.2c1.9,1.1,2.7,3.5,4.5,4.6c1.1-0.1,2-0.2,3-0.3c0,0.2-0.1,0.4-0.1,0.6   c-1.9,0.5-3.9,1-6.1,1.5c-1.1-0.9-4.8-2.2-1.9-3.6l0,0c-0.3,2.7,4.3,1.7,0.7,0.1C528.6,144.1,527.3,143.2,528.3,142.2z" />
	<path display="inline" fill="#5E5345" d="M470.9,180.2c0.2,1.7,0.4,3.4,0.6,5.1c-0.7,0.9-0.8,1.9-0.8,2.9c-1.4-2.5-1.5-5.6-2.4-8.4   c0.2-0.1,0.5-0.3,1-0.6c-0.1-0.9-0.2-1.9-0.4-3.1C470.5,177.2,470.5,178.8,470.9,180.2z" />
	<path display="inline" fill="#CFBBAB" d="M541.3,237c3.4,2.1,6.4,5.9,7.8,9.6c-3.7-2.2-5.8-5.4-7.9-8.6   C541.3,237.6,541.3,237.3,541.3,237z" />
	<path display="inline" fill="#B4A193" d="M597.4,553.6c-0.3-0.6-0.7-1.2-1.2-2c-0.7,4.2-1.3,8.4-0.1,12c-4.1-2.3-1.1-5.6-1.3-9.2   c1.1-1.4,0.4-3,0.6-4.5c0.1-0.2,0.2-0.3,0.1-0.6c0.2-0.1,0.4-0.1,0.6-0.1l0,0c0.1,0.2,0.2,0.3,0.3,0.5c0.2-0.2,0.3-0.3,0.5-0.5   c0.2,0,0.4-0.1,0.7-0.1C597.5,550.5,597.4,552,597.4,553.6z" />
	<path display="inline" fill="#93836E" d="M473.7,199c1-0.5,0.5-1.5,0.7-2.2c0.2,0.1,0.4,0.1,0.6,0.1c-0.3,4.8,0.6,9.8-0.6,14.4   C472.8,207.6,474.1,203,473.7,199z" />
	<path display="inline" fill="#E6D0B2" d="M501,139.8c1.9,0.1,3.9,0.2,5.8,0.3c0.5,0.4,0.9,0.8,1.4,1.2c-0.2,0.4-0.4,0.9-0.6,1.2   c-3.7-0.3-7.3-1.2-10.9-2C498,139.7,499.5,139.9,501,139.8z" />
	<path display="inline" fill="#C7C4AA" d="M375.7,536.9c0.6,0,1.2-0.1,1.8-0.1c-0.3,2.5,0.7,4.4,1,7c-1.7-0.4-2.8-0.5-4.4-0.4   c0-0.2,0-0.5,0-0.7c2.2-1.3,3.1-2.6,0.7-4.6c0-0.1,0-0.3,0-0.4C375.2,537.4,375.4,537.1,375.7,536.9z" />
	<path display="inline" fill="#CCCBB1" d="M365.6,533.3c0.7-1.6,2.8,0.1,3.6-1.4c2.9-0.2,5.7,0.6,8.5-1.2c0.2,0.9,0.3,1.5,0.4,2.3   C373.8,533.8,369.8,533.1,365.6,533.3z" />
	<path display="inline" fill="#BBA68A" d="M475.9,212.8c1.4,2.6,0.7,6.7,0.4,9.8c-0.7,0.2-1.5,0.5-2.4,0.7c-0.5-1.4,0.3-2.7,0.5-4.1   c0,0-0.1,0.1-0.1,0.1c1.2-0.8,0.5-2,0.8-3l0,0.1C476,215.3,475.5,213.9,475.9,212.8z" />
	<path display="inline" fill="#171618" d="M557.9,434.6c0.1,4.7,3.7,8.6,5.5,12.5c-3.9-1.8-5.3-7.9-7.1-11.8   C556.9,435.1,557.4,434.8,557.9,434.6z" />
	<path display="inline" fill="#291F1A" d="M493.7,156.7c-3.9-0.8-8-2.3-10.8-5.1c0-0.3,0.1-0.7,0.1-1c4,2.3,7.5,4.2,12.1,5.6   C494.4,156.5,494.1,156.6,493.7,156.7z" />
	<path display="inline" fill="#BCA98E" d="M481.6,210c0-3,0-6-0.1-9c0.8,2.4,1.6,4.8,2.2,7.2c-1.7,1.9,0,4.6-1.4,6.6   C482.2,213.2,482.7,211.4,481.6,210z" />
	<path display="inline" fill="#AFA086" d="M487.3,188.2c0.1-0.3,0.1-0.6,0.2-1c2.3,1.1,4.6,1.9,7.1,2.4c-1.8-0.1-5.1,0.3-4.1,2.7   C488.5,192.7,488.3,189.4,487.3,188.2z" />
	<path display="inline" fill="#8F826F" d="M501,139.8c-2.6-0.5-5,1.9-7.4,0.3c0.7-0.1,1.3-0.2,2.1-0.4c0-0.6,0-1.1,0-1.5   c0.6-0.4,1.1-0.7,1.7-1.1c0.8,0,1.6,0,2.7,0c-0.3,0.7-0.6,1.3-0.8,1.8C499.8,139.2,500.4,139.5,501,139.8z" />
	<path display="inline" fill="#BFAC90" d="M484.3,148.7c1.4-0.3,3.4-1.7,4.5-0.1c-0.8,1.1,2.8,1.4,3.6,2.1c0,0.5,0,0.9,0.1,1.4   c-1.5-0.2-2.7-1.6-4.4-1.3l0,0c-0.6-1-2.2-2-2.9-0.7c-0.2-0.3-0.5-0.5-0.7-0.8C484.4,149,484.3,148.8,484.3,148.7z" />
	<path display="inline" fill="#CCB799" d="M482.4,214.9c1.5-2-0.3-4.7,1.4-6.6c-0.7,4,1.6,9.4-1.4,12.5c-0.3,0-0.7-0.1-1-0.1   c0.1-0.5,0.2-0.9,0.2-1.4C482.8,218.2,481.9,216.3,482.4,214.9z" />
	<path display="inline" fill="#DDCAAD" d="M488.7,143.5c0-0.3,0-0.5,0-0.8c1.3-2,3.9-0.6,5.8-0.6c1,1.4,2.4,0.2,3.6,0.7   c0,0.2,0,0.5,0,0.7c-0.9,0.1-1.9-0.3-2.3,0.9C493.5,143.6,491.3,143.4,488.7,143.5z" />
	<path display="inline" fill="#DCCAAD" d="M463.5,156.5c1.3,2-0.4,8-1.4,10.1c-0.7-3-0.6-5.9,0.7-8.6   C463.5,157.7,463.5,157.1,463.5,156.5z" />
	<path display="inline" fill="#24211D" d="M482.8,198.3c-1.1-0.9-0.4-2.2-0.8-3.3c-0.5-2.7-2.1-5.3-1.7-8c2,3.4,2.3,7.1,3.3,10.6   C483.4,197.8,483.1,198.1,482.8,198.3z" />
	<path display="inline" fill="#3D342B" d="M481.6,219.2c-0.1,0.5-0.2,0.9-0.2,1.4c-0.2,0-0.3,0.1-0.5,0.1c-0.2-0.3-0.5-0.5-0.7-0.8   c0.6-3.3,1.1-6.6,1.5-9.9C483,212.7,482.4,216.3,481.6,219.2z" />
	<path display="inline" fill="#D2B4A4" d="M540.1,195.5c-1.7-0.8-3.4-1.4-4.5-2.9c1.3-0.1,2.6-0.2,4.1-0.4c0.5,0.5,1.1,1.1,2,1.9   C541.1,194.7,540.6,195.1,540.1,195.5z" />
	<path display="inline" fill="#BEC0A7" d="M375.6,547c0.7-0.4,1.4-0.8,2.2-1.3c0.7,1.5,1.3,2.8,2,4.2c-0.7,0.6-0.1,0.6,0.3,0.6   c0.1,0.2,0.2,0.3,0.2,0.5c-0.5,0.1-1,0.2-1.6,0.2c-0.1-0.8-0.2-1.5-0.4-2.3c-0.9-0.2-1.8-0.4-2.7-0.6   C375.7,547.8,375.6,547.4,375.6,547z" />
	<path display="inline" fill="#C4B497" d="M484.4,149.2c0.2,0.3,0.5,0.5,0.7,0.8c1,0.2,1.9,0.5,2.9,0.7l0,0c0.3,0.7,0.6,1.4,0,2.2   l0,0c-0.2,0-0.5,0-0.7,0.1c-1.4-0.8-2.8-1.5-4.2-2.3C483.1,149.3,483.1,149.3,484.4,149.2z" />
	<path display="inline" fill="#A7927A" d="M470,193.9c0.8-0.8,0.8-1.9,0.8-3c0.9,2.7,1.3,5.4,1.3,8.9   C470.9,197.6,470.3,195.8,470,193.9z" />
	<path display="inline" fill="#C8C8C8" d="M480,177.4c0.6,1.6,1.1,3.3,1.7,4.9c-0.3,0.5-0.5,1-0.8,1.5   C480,182.1,478.2,179,480,177.4z" />
	<path display="inline" fill="#BAA68A" d="M473.7,209.8c0.2,0.5,0.5,1,0.7,1.5c-0.3,1.7,0.5,3.3,0.7,5l0-0.1c-1,0.8-0.6,2-0.8,3   l0.1-0.1C471.8,217.5,474.2,212.6,473.7,209.8z" />
	<path display="inline" fill="#B3A78F" d="M497.4,137.1c-0.5,0.4-1.1,0.7-1.7,1.1c0,0.4,0,0.9,0,1.5c-1.3,0.3-2.2,0.5-3.5,0   C493.6,138,495.1,136.5,497.4,137.1z" />
	<path display="inline" fill="#8D816F" d="M516.8,137c-2.7,0-5.2-0.8-7.9-0.7c0-0.4,0-0.9,0-1.3c2.2,0,4.2,0.9,6.5,0.6   c0.5,0.2,0.9,0.4,1.4,0.6C516.8,136.5,516.8,136.8,516.8,137z" />
	<path display="inline" fill="#6F443A" d="M508.9,135.6c0,0.3,0,0.6,0,0.8c-3.4-0.1-6.8-0.2-10.2-0.2c0.1-0.5,0-1.3,0.9-1.2   C502.6,136.1,505.8,135.4,508.9,135.6z" />
	<path display="inline" fill="#847A68" d="M470.7,146.5c0.3,0.3,0.7,0.7,1,1c-1.4,1-3.2,1.5-3.9,3.3c-1.4-1.5,1.6-3.9,2.9-5   C470.8,146,470.8,146.3,470.7,146.5z" />
	<path display="inline" fill="#96BDA2" d="M478,146.2c-2-0.3-4-0.5-5.9-0.5c2.8-1,6.8-1,9.5,0.1C480.4,146,479.1,145.3,478,146.2z" />
	<path display="inline" fill="#B2A086" d="M477.9,191.9c-1-1.8-1.3-3.8-1.5-5.8c0.2-0.2,0.5-0.5,0.7-0.7c0.5,1.9,1,3.8,1.6,5.7   C478.4,191.3,478.1,191.6,477.9,191.9z" />
	<path display="inline" fill="#A28C80" d="M594.7,539.7c1.9,2.2,1.1,5.1,1.3,7.8c-0.2,0.1-0.4,0.1-0.6,0   C595,544.9,594.8,542.3,594.7,539.7z" />
	<path display="inline" fill="#F1DDBE" d="M490.8,190.4c1.1-0.9,2.4-0.9,3.8-0.9c0.2,0.2,0.5,0.5,0.7,0.7c0,0.3-0.1,0.6-0.1,0.9   C493.6,192.1,492.1,191.4,490.8,190.4z" />
	<path display="inline" fill="#BCA98E" d="M483.8,218.8c0-3.5,0-7,0-10.5C485,211.3,484.3,215.5,483.8,218.8z" />
	<path display="inline" fill="#8EB59B" d="M508.9,135.6c-3.1-0.2-6.3,0.5-9.2-0.5c3.1,0,6.2,0,9.2-0.1   C508.9,135.2,508.9,135.4,508.9,135.6z" />
	<path display="inline" fill="#888989" d="M485.9,196.4c0-1.9,0-3.7,0-6C487.6,192,487.4,194.4,485.9,196.4z" />
	<path display="inline" fill="#7B705D" d="M477.1,185.4c-0.2,0.2-0.5,0.5-0.7,0.7c-0.6-1.8-2.3-4.8-0.7-6.4   C476.2,181.6,476.6,183.5,477.1,185.4z" />
	<path display="inline" fill="#CD745B" d="M466.4,443.8c1.3-0.9,2.5-1.1,3.7,0.2c0.1,0.6,0.2,1.3,0.3,2.3   C468.9,445.3,467.7,444.5,466.4,443.8z" />
	<path display="inline" fill="#453930" d="M498.1,142.8c-0.2-0.1-0.5-0.1-0.6-0.1c-0.1-0.2-0.1-0.4-0.2-0.5c1.3-0.1,2.6,0.1,3.7-0.8   c1.2,0.2,2.4,0.5,3.7,0.7c0,0.2,0,0.4,0,0.6C502.4,142.8,500.3,142.8,498.1,142.8z" />
	<path display="inline" fill="#838471" d="M516.8,137c0.2-1.7,0.2-1.3-1.4-1.4l0,0c0.3-0.3,0.5-0.6,0.8-0.9c1.8,0,3.5,0.5,5.1,1.5   c-0.3,0.2-0.5,0.5-0.8,0.7C519.3,136.2,518.1,136.8,516.8,137z" />
	<path display="inline" fill="#545045" d="M536.2,145c-1.4,1.8-3.6-2.8-5-3.7C533.3,141.9,534.7,143.6,536.2,145z" />
	<path display="inline" fill="#37342F" d="M446.3,335c0.8,2.4,0.2,5,1.3,7.3C445,340.9,446.6,337.4,446.3,335z" />
	<path display="inline" fill="#76726E" d="M478.8,171.7c-0.2,0.1-0.4,0.2-0.7,0.4c-1.2-1.7-1-3.6-0.8-5.5c0.1,0,0.4,0,0.5,0   C478.1,168.3,478.9,170,478.8,171.7z" />
	<path display="inline" fill="#EED4B5" d="M478,146.2c1.1-0.9,2.4-0.2,3.6-0.5c0.5,0.7,0.1,1.3-0.1,2.1   C480.2,147.6,479.1,146.8,478,146.2z" />
	<path display="inline" fill="#565448" d="M528.4,139.2c-1.5-0.6-3.1,0.4-4.4-0.6c0.7-0.2,0.7-0.7,0.6-1.3   C526.1,137.5,527.4,137.9,528.4,139.2z" />
	<path display="inline" fill="#403C33" d="M516.2,134.8c-0.3,0.3-0.5,0.6-0.8,0.9c-1.7-0.1-3.5,0.3-5.1-0.6c1-0.2,2-0.5,3-0.7   c0.5,0.8,0.9,0.9,1.3-0.1C515.2,134.4,515.7,134.6,516.2,134.8z" />
	<path display="inline" fill="#625A4C" d="M482.8,198.3c0.3-0.3,0.6-0.5,0.8-0.8c-0.1,1.8,1.3,3.4,0.4,5.3   C483.2,201.5,482.8,200,482.8,198.3z" />
	<path display="inline" fill="#CAB2A4" d="M461.9,438.3c0.3-0.3,0.7-0.7,1-1c1.1,0.7,2,1.5,2.5,3.1   C463.6,440.4,462.8,439.3,461.9,438.3z" />
	<path display="inline" fill="#BAB59B" d="M524.6,137.2c0.1,0.6,0.1,1.1-0.6,1.3c-1.2-0.5-2.3-1.1-3.5-1.6c0.3-0.2,0.5-0.5,0.8-0.7   C522.4,136.6,523.5,136.9,524.6,137.2z" />
	<path display="inline" fill="#989393" d="M488.1,207.6c0.4,0.2,0.8,0.5,1.2,0.7c0.3,1.2-0.2,2.2-1,3.7   C487.9,210.2,488,208.9,488.1,207.6z" />
	<path display="inline" fill="#37342F" d="M448.5,346c-0.1,0.7-0.2,1.3-0.3,2.2c-1.4-1.5-1.5-2.9-0.5-4.5   C448,344.4,448.3,345.2,448.5,346z" />
	<path display="inline" fill="#B5AC9E" d="M463.6,327.3c0-1-0.1-2-0.7-2.9c0.2-0.5,0.4-1,0.6-1.5l0,0.1c0.3,0,0.6,0,1.1,0.1   C464.1,324.5,464.4,326,463.6,327.3z" />
	<path display="inline" fill="#B7BCBC" d="M480,177.4c-0.8,0.3-0.6,1-0.7,1.6c-0.3-1-0.5-2-0.8-2.9c0.2-0.5,0.5-0.9,0.7-1.4   C479.5,175.6,479.8,176.5,480,177.4z" />
	<path display="inline" fill="#B2A086" d="M477.8,195.4c0.1-0.7,0.1-1.5,0.2-2.2c1.1,1.5,0.4,3.5,0.5,5.2   C478.3,197.5,478.1,196.4,477.8,195.4z" />
	<path display="inline" fill="#867D6D" d="M374.2,542.7c0,0.2,0,0.5,0,0.7c-1.1,1-2.4,0.7-3.7,0.5c0-0.2,0-0.3,0-0.5   C371.8,543.2,373,542.9,374.2,542.7z" />
	<path display="inline" fill="#0A0807" d="M375.7,536.9c-0.3,0.2-0.5,0.5-0.8,0.7c-1.4,0-2.9-0.1-4.3-0.1l0,0c0-0.2-0.1-0.4-0.2-0.6   C372.2,536.9,374,536.9,375.7,536.9z" />
	<path display="inline" fill="#3E3F3E" d="M477.8,166.7c-0.1,0-0.4,0-0.5,0c0-1.3,0-2.6,0-3.9C478.2,164,477.9,165.4,477.8,166.7z" />
	<path display="inline" fill="#5F5C4E" d="M531.3,141.4c-1.4-0.1-2.3-0.9-2.9-2.2C529.9,139.2,530.7,140.2,531.3,141.4z" />
	<path display="inline" fill="#211D1A" d="M595.4,549.8c-0.2,1.5,0.5,3.1-0.6,4.5C594.8,552.8,594.2,551,595.4,549.8z" />
	<path display="inline" fill="#9CA792" d="M639.3,574.2c-0.5-0.2-1-0.5-1.5-0.7c0.8-0.8,1.8-0.7,3-0.6   C640.7,574,640.2,574.4,639.3,574.2z" />
	<path display="inline" fill="#AAB8A0" d="M370.4,536.9c0.1,0.2,0.2,0.4,0.2,0.6c-1.3,0.1-2.6,0.6-3.7-0.6   C368.1,536.9,369.3,536.9,370.4,536.9z" />
	<path display="inline" fill="#626868" d="M479.2,174.6c-0.2,0.5-0.5,0.9-0.7,1.4c-0.7-0.8-0.7-1.7-0.4-2.6   C479.1,173.3,479.1,174,479.2,174.6z" />
	<path display="inline" fill="#766F61" d="M375.6,547c0,0.4,0.1,0.9,0.1,1.3c-0.6,0-1.3,0-2,0C374,547.1,374.7,546.9,375.6,547z" />
	<path display="inline" fill="#A39E83" d="M485,183.2c1-1.1,2.1,0.6,2.3,1.6c-0.5-0.1-0.9-0.2-1.4-0.3c-0.3-0.2-0.5-0.5-0.8-0.7   C485.2,183.6,485.1,183.4,485,183.2z" />
	<path display="inline" fill="#878080" d="M480.9,183.8c0.3-0.5,0.5-1,0.8-1.5c0.6,0.8,0.7,1.7,0.5,2.7   C481.2,185.2,481.2,184.4,480.9,183.8z" />
	<path display="inline" fill="#C2B99E" d="M472,145.6c0.9,0,1.8,0.1,2.6,0.1c-1.2,0.9-2.6,0.6-3.9,0.7c0-0.2,0.1-0.4,0-0.7   C471.2,145.8,471.6,145.7,472,145.6z" />
	<path display="inline" fill="#C8BD9E" d="M497.3,142.2c0.1,0.2,0.1,0.4,0.2,0.5c-1-0.1-2.2,0.6-3-0.6   C495.4,142.2,496.4,142.2,497.3,142.2z" />
	<path display="inline" fill="#5E5345" d="M471.4,185.3c1,0.5,0.7,1.4,0.6,2.2C471.2,187,471.3,186.2,471.4,185.3z" />
	<path display="inline" fill="#BCA98E" d="M480.9,220.7c0.5-0.2,1-0.1,1.5,0C481.5,221.7,481.3,221.7,480.9,220.7z" />
	<path display="inline" fill="#7E746A" d="M541.3,237c0,0.3-0.1,0.7-0.1,1c-0.4-0.3-0.8-0.7-1.3-1C540.6,236.3,541,236.3,541.3,237z   " />
	<path display="inline" fill="#91947C" d="M590.3,561.4c-0.1,0-0.4,0-0.6,0c-0.2-0.9,0.1-1.5,1.3-1.4   C590.7,560.6,590.5,561,590.3,561.4z" />
	<path display="inline" fill="#D7C0A0" d="M463.5,156.5c0,0.6,0,1.2-0.7,1.4C463.1,157.5,463.3,157,463.5,156.5z" />
	<path display="inline" fill="#211D1A" d="M595.4,547.5c0.2,0.1,0.4,0.1,0.6,0c0,0.5,0,1.1,0,1.6c-0.2,0-0.4,0-0.6,0.1   C595.5,548.7,595.4,548.1,595.4,547.5z" />
	<path display="inline" fill="#B2A086" d="M479.3,192.5c-0.7-0.3-0.7-0.9-0.6-1.5C478.9,191.6,479.1,192,479.3,192.5z" />
	<path display="inline" fill="#584E47" d="M493.1,309.3c-0.1,0.2-0.1,0.4,0,0.7c-0.5,0-1-0.1-1.5-0.1   C491.9,309.2,492.5,309.1,493.1,309.3z" />
	<path display="inline" fill="#76957F" d="M514.7,134.2c-0.4,0.9-0.8,0.9-1.3,0.1C513.8,134.2,514.2,134.2,514.7,134.2z" />
	<path display="inline" fill="#37342F" d="M446.3,343.9c-0.2,0.5-0.5,1-0.7,1.5C445.5,344.7,445.3,344,446.3,343.9z" />
	<path display="inline" fill="#191613" d="M519.7,135.5c-0.5-0.2-1-0.3-1.5-0.5C518.8,134.9,519.4,134.8,519.7,135.5z" />
	<path display="inline" fill="#AFA086" d="M490.8,190.5c0.3,0.2,0.6,0.3,0.8,0.5C491.4,190.8,491.1,190.6,490.8,190.5z" />
	<path display="inline" fill="#171618" d="M555.8,435.3c-0.3,0.2-0.5,0.5-0.8,0.7C555.3,435.8,555.6,435.6,555.8,435.3z" />
	<path display="inline" fill="#3B3028" d="M485.2,183.8c0.3,0.2,0.5,0.5,0.8,0.7C485.7,184.3,485.5,184,485.2,183.8z" />
	<path display="inline" fill="#37342F" d="M446.8,344c-0.1,0-0.4,0-0.5-0.1c0.1-0.2,0.1-0.3,0.2-0.5   C446.6,343.6,446.7,343.8,446.8,344z" />
	<path display="inline" fill="#BCA98E" d="M483.1,220.1c0.2-0.3,0.4-0.6,0.7-0.9C483.5,219.5,483.3,219.8,483.1,220.1z" />
	<path display="inline" fill="#3C3129" d="M480.2,171.4c0.1,0.3,0.3,0.6,0.4,0.9C480.5,172.1,480.4,171.8,480.2,171.4z" />
	<path display="inline" fill="#3C3129" d="M478.8,171.7c0-0.3,0-0.6,0-0.8C479.3,171.1,479.3,171.4,478.8,171.7z" />
	<path display="inline" fill="#D5E0C3" d="M380.1,550.5c-0.4-0.1-1-0.1-0.3-0.6C379.9,550.1,380,550.3,380.1,550.5z" />
	<path display="inline" fill="#4B4F5D" d="M431.1,446.8c-3.4-6.2-5-13.1-4.3-20.1c1.2-0.2,2.3-0.5,3.5-0.7c0.1,3.3-0.2,7.3,1.5,10.1   c0,4.5,2.4,8.4,4.3,12.2c-1.2,0-2.4,0-3.6,0C432.1,447.8,431.6,447.3,431.1,446.8z" />
	<path display="inline" fill="#363945" d="M430.3,425.9c-1.2,0.2-2.3,0.5-3.5,0.7c-0.5-8.2,3.1-17.2,10.2-21.6   c0.1,0.1,0.2,0.2,0.3,0.3C432.9,411.4,429.8,418.3,430.3,425.9z" />
	<path display="inline" d="M441.2,403.6c-0.5,0.5-1,0.9-1.5,1.4C439,403.9,440.6,404,441.2,403.6z" />
	<path display="inline" fill="#4B4F5D" d="M431.9,432.4c1.2,0.8,0.4,1.9,0.6,2.9C431.4,434.6,432,433.4,431.9,432.4z" />
	<path display="inline" fill="#312C28" d="M595.5,450.4c-0.5-3.6-3.7-6.6-1.1-10.1C595.4,443.4,597.3,447.6,595.5,450.4z" />
	<path display="inline" fill="#292420" d="M605.6,415c-0.8-1.9-1.6-3.7-2.4-5.6c0.3-0.3,0.6-0.6,0.9-0.9c2,2.2,3,4.9,3.6,7.6   c-0.8,0.8-1.1,0-1.6-0.2C606,415.6,605.8,415.3,605.6,415z" />
	<path display="inline" fill="#0F100F" d="M597.6,458.7c1.7,1.4,1,3.2,1.3,5.4C597.5,462.2,597.2,460.5,597.6,458.7z" />
	<path display="inline" fill="#695F57" d="M595.5,450.4c1-0.5,0.4-1.5,0.8-2.2c1,2.3,0.7,4.6,0.2,7   C596.1,453.5,595.8,451.9,595.5,450.4z" />
	<path display="inline" fill="#574E48" d="M607.8,405.7c-0.1,0.4-0.1,0.8-0.2,1.4c-1.5-1.3-1.5-1.3-1.1-3.4l0.3,0   c0.3,0.3,0.6,0.5,0.9,0.8C607.6,404.9,607.7,405.3,607.8,405.7z" />
	<path display="inline" fill="#87746A" d="M601,400.8c0,0.6-0.1,1.3-0.1,1.9c-1.5,0.4-1.2-1.1-1.3-2   C600.1,399.7,600.6,400.7,601,400.8z" />
	<path display="inline" fill="#5F4D47" d="M595.1,438.2c-0.8-0.9-0.2-1.8,0.8-1.3C595.7,437.3,595.4,437.7,595.1,438.2z" />
	<path display="inline" fill="#5F534D" d="M598.5,469.1c-0.2-0.4-0.4-0.7-0.5-1.1c0.2-0.1,0.4-0.1,0.6-0.2c0.1,0.4,0.2,0.8,0.3,1.1   C598.8,468.9,598.7,469,598.5,469.1z" />
	<path display="inline" fill="#E0C7B6" d="M607.5,404.5c-0.3-0.3-0.6-0.5-0.9-0.8C607.2,403.7,607.5,403.9,607.5,404.5z" />
	<path display="inline" fill="#1E1917" d="M413,526.1c-2.8-2.6-6.4-6.6-5.4-10.7c2.8,2.3,4,6.8,6.3,9.8   C413.6,525.5,413.3,525.8,413,526.1z" />
	<path display="inline" fill="#231917" d="M455.6,521.6c0.4,0.3,0.9,0.6,1.3,0.9c-0.3,0.5-0.6,0.8-0.8,1.2c-1.6,0.7-3.2,1.4-4.9,1.6   C450.6,523.1,454,522.2,455.6,521.6z" />
	<path display="inline" fill="#221F1C" d="M366.4,503c-0.1,1.3,0.3,4-1.9,3.3c-0.4-1.5-0.4-3.1-0.4-4.7   C365.5,500.9,365.9,502,366.4,503z" />
	<path display="inline" fill="#2B2623" d="M457,524.5c0.4,0,0.9,0,1.4,0c-0.5,1.6-0.5,1.6-2.5,3c-0.1-0.5-0.2-0.9-0.3-1.4l0,0   C456,525.5,456.5,525,457,524.5z" />
	<path display="inline" fill="#534A44" d="M413,526.1c0.3-0.3,0.6-0.6,0.9-0.9c0.2,0,0.4,0.1,0.6,0.1c0,1.3,1.9,1.8,1.4,3.6   C414.6,528.1,413.8,527.2,413,526.1z" />
	<path display="inline" fill="#927E73" d="M406.6,513.8c-0.8-0.2-0.7-0.8-0.7-1.4C406.7,512.6,406.7,513.2,406.6,513.8z" />
	<path display="inline" fill="#E1C7B6" d="M456.2,525.3c-0.2,0.3-0.4,0.5-0.6,0.8C455.9,525.8,456,525.6,456.2,525.3z" />
	<path display="inline" fill="#161211" d="M537.9,355.4c-0.3,2.5,0.6,4.7-0.4,7.1c-2.9-0.9-2.7-5.9-0.6-8.1   C537.2,354.8,537.6,355.1,537.9,355.4z" />
	<path display="inline" fill="#584B45" d="M542.7,327.3c-0.9-1.9-1.1-3.8,0.7-5.7c0.3,2.1,0.2,3.9,0,5.7   C543.2,327.2,542.9,327.2,542.7,327.3z" />
	<path display="inline" fill="#766A61" d="M542.7,327.3c0.2,0,0.5,0,0.7,0c0.1,1.8,0.6,3.8-0.9,5.6   C541.4,330.9,542.5,329.2,542.7,327.3z" />
	<path display="inline" fill="#3D3530" d="M540.7,346c-0.1,0.9-0.3,1.8-0.4,2.6c-2.1-0.1-0.3-2.8-0.4-4   C540.2,345.1,540.5,345.5,540.7,346z" />
	<path display="inline" fill="#9B867B" d="M540.7,346c-1.2-1.7-0.9-2.8,0.7-4.8C541.2,343.3,541.7,344.8,540.7,346z" />
	<path display="inline" fill="#94867A" d="M499.6,315c-1.1,0.1-2-0.2-2.9-0.7c0-0.2,0-0.4-0.1-0.5c0.3-0.3,0.6-0.6,0.9-0.9   C498.1,313.5,498.8,314.3,499.6,315C499.5,315,499.6,315,499.6,315z" />
	<path display="inline" fill="#70534C" d="M537.9,355.4c-0.3-0.3-0.7-0.6-1-0.9c0.6-0.4,1.3-0.8,2-1.2   C539.4,354.6,538.6,355,537.9,355.4z" />
	<path display="inline" fill="#77665D" d="M508.3,320.6c-0.3-0.4-0.5-0.7-0.9-1.2c0.6-0.1,1-0.2,1.5-0.2c0.3,0.4,0.5,0.7,1,1.3   C509.2,320.6,508.7,320.6,508.3,320.6z" />
	<path display="inline" fill="#6C564F" d="M495.2,360.4c0,1.5,0,1.5-1.4,1.3c0-0.6-0.1-1.1-0.1-1.9   C494.4,360,494.8,360.2,495.2,360.4z" />
	<path display="inline" fill="#6E6159" d="M493.1,356.1c0.2,0,0.4,0,0.7,0c0.3,0.6,0.5,1.1,0.8,1.8C493,357.9,493.1,357,493.1,356.1   z" />
	<path display="inline" fill="#242222" d="M465.7,414.4c0.2,0,0.5,0,0.7,0c-2.2,5.3,0.4,11.5-1.4,16.6c-1.5-5.5-1.2-11,0.1-16.5   C465.3,414.4,465.5,414.4,465.7,414.4z" />
	<path display="inline" fill="#423833" d="M463.5,322.9c-1.5,3.1-2.9,6.2-5.1,8.9C458,329.7,461.2,322.3,463.5,322.9z" />
	<path display="inline" fill="#453C38" d="M453.7,426.5c1.7,1.2,2.4,4.8,2.4,7.3C454.4,433.5,453.1,428.1,453.7,426.5z" />
	<path display="inline" fill="#4B3F3B" d="M453,435.9c-2.1,0-1.8-1.6-2.6-2.4C452.2,433.4,452.2,433.4,453,435.9z" />
	<path display="inline" fill="#4D3D39" d="M460.4,428.4c-1.3-0.6-1.5-1.4-0.8-2.6C461,426.5,461,427.3,460.4,428.4z" />
	<path display="inline" fill="#5F4841" d="M458.9,340.6c0.9,0.8,0.5,1.7,0.1,2.6C458.5,341.9,458.5,341.9,458.9,340.6z" />
	<path display="inline" fill="#332B29" d="M461.1,433.7c-1-0.9-1-0.9,0-2.5C461.5,432.2,461.8,432.9,461.1,433.7z" />
	<path display="inline" fill="#9A9286" d="M458.5,335.1c0,0.6-0.1,1.2-0.1,1.9c-0.1,0-0.3,0-0.4,0c0-0.6-0.1-1.2-0.1-1.9   C458,335.1,458.3,335.1,458.5,335.1z" />
	<path display="inline" fill="#685951" d="M449.1,353.2c-0.4-0.3-0.9-0.6-1.8-1.2c1-0.1,1.4-0.2,1.8-0.2   C449.1,352.2,449.1,352.7,449.1,353.2z" />
	<path display="inline" fill="#373A45" d="M465.7,414.4c-0.2,0-0.4,0-0.6,0c0.2-0.5,0.3-1.1,0.5-1.6   C465.6,413.3,465.6,413.9,465.7,414.4z" />
	<path display="inline" fill="#473934" d="M458.5,335.1c-0.2,0-0.5,0-0.6,0c-0.1-0.5-0.1-0.8,0.2-1.2   C458.4,334.2,458.7,334.6,458.5,335.1z" />
	<path display="inline" fill="#0A0805" d="M513.3,294.7c-1.5-0.7-3-1.4-4.4-2.1c0.5-0.3,1-0.5,1.6-0.8c10.1,2.3,20.4,3.5,30.2-0.7   c0.3,0.4,0.5,0.7,0.9,1.2C533.3,298,522.5,297.2,513.3,294.7z" />
	<path display="inline" fill="#261F16" d="M546.3,289.4c-0.7,1.1-1.4,1.7-2.7,0.9C544.3,289.3,545.1,288.9,546.3,289.4z" />
	<path display="inline" fill="#0F0A09" d="M578.9,419.5c2.5-1.3,10.7-8,12.4-4.6c-2.8,3-7,4.4-10.9,5.3   C579.8,420,579.4,419.8,578.9,419.5z" />
	<path display="inline" fill="#171412" d="M596.1,549.1c0-2.9-0.2-5.8,0.1-8.6c0.4,0.2,0.9,0.5,1.3,0.7c0,2.6,0,5.2,0,7.8   C597,549.1,596.5,549.1,596.1,549.1L596.1,549.1z" />
	<path display="inline" fill="#79655C" d="M597.5,541.2c-0.4-0.2-0.9-0.5-1.3-0.7c-0.1-1.5-0.1-1.5,0.7-3   C597.7,538.8,597.6,540,597.5,541.2z" />
	<path display="inline" fill="#261110" d="M571.7,422.5c0.7-1.2,1.5-1.3,2.7-0.7C573.6,422.8,572.8,423,571.7,422.5z" />
	<path display="inline" fill="#5A4F49" d="M578.9,419.5c0.5,0.3,1,0.5,1.5,0.8c-1.1,0.4-2.1,0.9-3.2,1.4   C576.8,420.1,578.1,420,578.9,419.5z" />
	<path display="inline" fill="#3D332F" d="M595.8,523.2c0.6,1.5,0.5,2.7-0.2,4.3C595.2,525.8,595,524.6,595.8,523.2z" />
	<path display="inline" fill="#413C37" d="M596.5,530.4c0.5,1.1,0.4,2.1,0.2,3C595.6,532.4,595.6,532.4,596.5,530.4z" />
	<path display="inline" fill="#0C0908" d="M497.4,166.5c0-0.2,0-0.5,0-0.7c3.2,0.5,6.1-1.1,8.9-1.9c1.7-0.5,3.3-0.7,4.8-1.6   c0,0,0,0,0,0c0.2-0.2,0.3-0.4,0.5-0.6c-2.7-0.3-5.5,1.4-8.3,1.1c-1.4-1.4-3.3-1.7-5.1-2.2c0.3-0.2,0.5-0.5,0.8-0.7   c2.2,0.4,4.2-0.6,6.3-0.8c0.9,0.3,1.6,0,2-1.1c-4.8,0-9.2-1.4-13.4-3.9c0.2-0.2,0.5-0.5,0.7-0.7c5.5,2.6,12.2,2.7,17.9-0.1   c0.5,0.1,0.9,0.2,1.4,0.3c0.2,0.4,0.5,0.8,0.7,1.2c-1.2,0.6-2.3,1.2-3.5,1.8c-1.4-0.3-2.8-1.5-4.1,0.3c1.8,0.2,4,1.8,5.6,0.4   c2.1-0.5,3.7-0.3,3.5,2.1c-0.3,0.2-0.6,0.4-0.8,0.6c-0.3,0.7-0.5,1.4-0.8,2.1c-1.8,0.4-1,1-0.6,2.3c-2.5,2.4-5.7,3.7-8,6.4   c-1.6,0.4-3.1,0.7-4.9,1.1c2,1.1,4.1-0.3,5.5,1c-3.7,3.1-6.4,0.3-8.6-2.8c0.4-0.6,1.3-1,1.2-2.1c0-0.2,0.7-0.5,1-0.8   c1.9,1.7,3.5,0.3,5.4-0.3c0-0.1,0-0.2-0.1-0.4c-1.9-0.2-3.5,0.9-5.3,0.6C499.8,166.1,498.4,166.8,497.4,166.5z M505.3,169.5   c1.1-1-4-1.1-4.2,0C502.5,170.7,503.9,170.5,505.3,169.5z" />
	<path display="inline" fill="#120F0D" d="M492.4,177.3c-2.3,1.6,0.3-5.7,1.4-6.3c3.5,0.4,8,4.4,5.1,7.9c1,0.7,2,1.4,2.9,2.1   c0,1.5-0.9,2.3-1.8,3.1c-0.4,0-0.7-0.1-1.1-0.1c-0.5-1.7-1-3.3-1.6-5.3c0.4-0.6,0.9-1.3,1.4-2.2c-0.6-0.6-0.7-1.7-1.6-1.4   c-3.8,3.5-0.9,5.4,0.2,8.9c-0.2,0.2-0.5,0.4-0.7,0.7c-0.2,0-0.5,0-0.7,0c-0.3-0.2-0.5-0.4-0.8-0.5l0,0c-0.2-0.2-0.5-0.5-0.7-0.7   l0,0c-1.3-1.2,0.1-3.3-1.5-4.4c0,0,0,0,0,0c0-0.5,0.1-1,0.1-1.4c0.8-1,5-4.1,1.6-4.3C494,174.4,493.1,175.9,492.4,177.3z" />
	<path display="inline" fill="#231B18" d="M513.1,200.6c-5.6-0.6-10.4-3.5-10.7-9.5c0.5,0,0.9,0,1.5,0c0.6,5.9,6.1,6.9,10.7,8.8   C514.1,200.1,513.6,200.3,513.1,200.6z" />
	<path display="inline" fill="#14100F" d="M535.5,168.3c-1.7,1.4-2.9,2.9-2,5.1c-1.3,0.7-2.1-0.2-3.2-0.4c0-0.4-0.1-0.8-0.1-1.1   c-1-0.7-2.3,0.7-3.4-0.8C530.1,168.9,530.6,167.3,535.5,168.3z" />
	<path display="inline" fill="#1F1D19" d="M524.7,147.8c-0.7,0.5-1.3,0.9-2.1,1.5c-0.3-0.5-0.6-0.8-1-1.3c-1.2,0-2.6-0.1-4-0.2   c-0.5-1.6-2.1-1.3-3.5-1.6c0.3-0.3,0.6-0.7,0.9-1c-0.1-0.2-0.4-0.5-0.9-1.1c1.9,0.3,3.8,1.9,4.9,0.1c1.8,0.4,3.4,1.4,5,2.3   C524.3,146.9,524.5,147.4,524.7,147.8z M519.7,146.4c0.5,0.7,1,0.8,1.7,0.5c0-0.2,0-0.3-0.1-0.5   C520.8,146.4,520.3,146.4,519.7,146.4c-0.5-0.7-1-0.8-1.8-0.4c0,0.1,0,0.3,0.1,0.4C518.6,146.4,519.1,146.4,519.7,146.4z" />
	<path display="inline" fill="#211614" d="M524.7,166.5c1.1-2.3,3.2-2.5,5-3.3c2.7,0.6,5.8,0.3,8,3.3c-1.5,0.4-2.4,0.2-3.7-0.4   C530.6,164.3,528,165.8,524.7,166.5z" />
	<path display="inline" fill="#473D34" d="M514.6,154.9c-0.2-0.4-0.5-0.8-0.7-1.2c0.9-0.1,1.8-0.1,3-0.2c0.1-0.8,0.1-1.5,0.2-2.2   c-0.6-0.3-1.1-0.6-1.7-0.6c0.1-0.2,0.1-0.3,0.1-0.5c1-0.2,2-0.3,3.2-0.6c-0.5,3.3-0.9,6.4-1.4,9.6c-0.4,0.1-0.7,0.2-1,0.3   c-0.2-1,0.1-2.4-1.6-2.3c0.7-0.5,1.4-1.1,2.6-2C516,155,515.3,155,514.6,154.9z" />
	<path display="inline" fill="#CEB7A8" d="M497.4,183.9c-1-3.5-4-5.4-0.2-8.9c0.9-0.3,1,0.8,1.6,1.4c-0.5,0.8-1,1.6-1.4,2.2   c0.6,1.9,1.1,3.6,1.6,5.3c-0.5,0.3-1,0.6-1.5,1l-0.1-0.2C497.5,184.3,497.5,184.1,497.4,183.9z" />
	<path display="inline" fill="#E4C6B6" d="M495.9,184.5c0.5,0,1,0.2,1.4,0.1l0.1,0.2c-0.8,0.3-1.5,0.8-2.2,1.3   c-2.2-2.1-3.4-4.5-5.3-7.2c1.3,0,2.2,0,3.1,0l0,0c-0.1,1.7,0.1,3.1,1.5,4.4l0,0c0.2,0.2,0.5,0.5,0.7,0.7l0,0   C495.4,184.1,495.7,184.3,495.9,184.5z" />
	<path display="inline" fill="#575045" d="M524.7,147.8c-0.2-0.4-0.5-0.9-0.7-1.3c0.4,0,0.9-0.1,1.5-0.1c-0.9-1.2-1.8-1.5-2.9-1.5   c0-0.2,0-0.4-0.1-0.6c1.6-1.2,3.5-0.2,5.1,0.7c-1.3,0.8-1.3,0.8-0.7,2.1C526.2,147.3,525.5,147.5,524.7,147.8z" />
	<path display="inline" fill="#55473D" d="M515.3,146.5c1.1-0.1,1.8,0.4,2.2,1.4c-1.8,1-3.1,2.4-5.1,0.7c0-0.4,0-0.9,0-1.3   C513.5,147.3,514.5,147.2,515.3,146.5z" />
	<path display="inline" fill="#AC9A8C" d="M493.8,170.9c-1.2,1.7-2.2,3.4-2.3,5.6c-0.4-0.2-0.8-0.4-1.3-0.6c0.6-2.2,0.7-4.4,2.8-5.6   C493.3,170.5,493.6,170.7,493.8,170.9z" />
	<path display="inline" fill="#A7A891" d="M506.6,173c-1.4-1.3-3.5,0.1-5.5-1c1.8-0.4,3.3-0.8,4.9-1.1   C506.7,171.6,508.3,172.4,506.6,173z" />
	<path display="inline" fill="#9C9C86" d="M512.5,148.5c1,0.6,2,1.1,3,1.6c0,0.2-0.1,0.3-0.1,0.5c-0.6,0-1.3,0-1.9-0.1   c-0.9-1-2.7-0.2-3.3-1.9C510.9,148.7,511.7,148.6,512.5,148.5z" />
	<path display="inline" fill="#342B24" d="M500.3,167.3c-0.4,0.3-1,0.6-1,0.8c0.2,1.1-0.7,1.4-1.2,2.1c-0.6-0.4-1.1-0.9-1.7-1.3   c0.9-0.7,1.6-1.5,2.4-2.3C499.4,166.5,500,166.5,500.3,167.3L500.3,167.3z" />
	<path display="inline" fill="#644E47" d="M513.1,200.6c0.5-0.3,1-0.5,1.5-0.8c1,0.4,2.1,0.9,3.1,1.3   C516.6,202.6,514.6,200.7,513.1,200.6z" />
	<path display="inline" fill="#52493E" d="M514,164.5c-0.4-1.2-1.3-1.8,0.6-2.3C515.4,163.8,515.4,163.8,514,164.5z" />
	<path display="inline" fill="#575045" d="M527.4,147.3c0.3,0.2,0.6,0.4,1,0.5C528.1,147.6,527.7,147.4,527.4,147.3z" />
	<path display="inline" fill="#473D34" d="M515.4,160.1c0.3-0.2,0.5-0.4,0.8-0.6C516,159.7,515.7,159.9,515.4,160.1z" />
	<path display="inline" fill="#161517" d="M498.9,405c-24.2-23.1-31.9,26.1-18,40.3l-0.1,0.1c-17.3-12.6-5-66.6,18.8-41.1   C499.3,404.5,499.1,404.8,498.9,405z" />
	<path display="inline" fill="#0D0C0D" d="M490.9,427.4c-2.6-3.4-2.3-4.6-2-9.6c6.5-9.4,11.6,3.3,8.5,9.6c0,0,0,0,0,0   C495.1,428.8,493,429.3,490.9,427.4z M495.5,427.3c4.8-3.1,0.1-15.4-4.6-9.9C489,421.2,490.1,428.4,495.5,427.3z" />
	<path display="inline" fill="#1D1D20" d="M498.1,422.3c-0.1-1.5,0.2-3.1-0.7-4.5c0.3-0.1,0.7-0.2,1-0.4c2.5,2.7,2.3,8.5-0.3,11.3   c-0.2,0-0.5,0-0.7,0l0,0c0-0.5,0-1,0-1.5l0,0C499.1,426.9,499.5,423.4,498.1,422.3z" />
	<path display="inline" fill="#292629" d="M481.5,445.4c3.2,3.3,6.9,5.2,11.5,5l0,0C490.4,452.9,481.1,449.2,481.5,445.4z" />
	<path display="inline" fill="#35393F" d="M497.4,427.3c0,0.5,0,1,0,1.5c-1.4,0.5-3.4,0.3-4.3,1.4c-1.2,0.1-1.9-0.7-2.6-1.6   c0.1-0.4,0.3-0.8,0.4-1.2C493,429.3,495.1,428.8,497.4,427.3z" />
	<path display="inline" fill="#2D2F34" d="M501.7,408.6c1.7,1.6,2,3.8,2.8,5.8C502.8,414.7,502.1,410.2,501.7,408.6L501.7,408.6z" />
	<path display="inline" fill="#2D2F34" d="M498.9,405c0.2-0.2,0.4-0.5,0.7-0.7c1.1,1.3,2.4,2.4,2.2,4.3l0,0   C500.2,407.9,499.8,406.2,498.9,405z" />
	<path display="inline" fill="#191416" d="M493.1,430.2c0.9-1.2,2.9-0.9,4.3-1.4l0,0c0,0.2,0,0.5,0,0.7   C496,430.4,494.6,430.3,493.1,430.2z" />
	<path display="inline" fill="#18191B" d="M506.6,426.4c0,0.9,0,1.8,0,3.3C505.8,428.2,506,427.3,506.6,426.4z" />
	<path display="inline" fill="#292629" d="M496,449.7c0.6-0.4,1.1-0.8,2.1-1.5C497.5,449.6,497.5,449.6,496,449.7L496,449.7z" />
	<path display="inline" fill="#292629" d="M493.1,450.4c0.3-0.5,0.6-0.9,1.3-0.2C493.8,450.3,493.4,450.3,493.1,450.4L493.1,450.4z" />
	<path display="inline" fill="#35393F" d="M498.1,428.8c0.2-0.2,0.5-0.5,0.7-0.7C498.6,428.3,498.3,428.6,498.1,428.8z" />
	<path display="inline" fill="#161517" d="M481.5,445.4c0,0.3,0,0.5,0,0.8c-0.2-0.3-0.5-0.5-0.7-0.8l0.1-0.1   C481.1,445.3,481.3,445.3,481.5,445.4z" />
	<path display="inline" fill="#292629" d="M495.9,449.7c-0.1,0.2-0.2,0.3-0.3,0.5C495.8,450,495.9,449.9,495.9,449.7L495.9,449.7z" />
	<path display="inline" fill="#35393F" d="M497.4,429.5c0-0.2,0-0.5,0-0.7c0.2,0,0.5,0,0.7,0C497.9,429,497.6,429.3,497.4,429.5z" />
	<path display="inline" fill="#3E332F" d="M520.5,229.2c0.3-0.3,0.5-0.6,0.8-0.9c1.2,1.2,2.5,2.4,3.1,4.1   C522.7,233.6,521.7,230.1,520.5,229.2z" />
	<path display="inline" fill="#3E332F" d="M509.4,227.9c3.1,0.3,6.8-0.9,9.5,0.5C515.8,228.2,512.5,228.8,509.4,227.9z" />
	<path display="inline" fill="#3E332F" d="M519.7,228.6c0.3,0.2,0.5,0.4,0.8,0.6C520.2,229,519.9,228.8,519.7,228.6z" />
	<path display="inline" fill="#3E332F" d="M520.7,227.7c-0.3-0.1-0.6-0.3-0.9-0.4C520,227.4,520.4,227.6,520.7,227.7z" />
	<path display="inline" fill="#3D2D1E" d="M507.5,292c-1.7,0-3.1-0.8-4.5-1.9c1.9-1,2.6,0.5,4,1c0.2-0.1,0.4-0.1,0.5,0.1   C507.5,291.5,507.5,291.7,507.5,292z" />
	<path display="inline" fill="#412C1D" d="M507.5,292c0-0.3,0-0.5,0-0.8c1,0,2.1-0.1,3,0.7c-0.5,0.3-1,0.5-1.6,0.8   C508.4,292.4,507.9,292.2,507.5,292z" />
	<path display="inline" fill="#70412C" d="M496.1,287c1,0,1.7,0,2.4,0c0,0.3,0.1,0.4,0.1,0.7C497.8,288.1,497.1,287.9,496.1,287z" />
	<path display="inline" fill="#412C1D" d="M506.9,291.1c-0.3-0.2-0.6-0.3-0.9-0.5C506.4,290.8,506.7,291,506.9,291.1z" />
	<path display="inline" fill="#584E47" d="M497.5,312.8c-0.3,0.3-0.6,0.6-0.9,0.9c-1.3-1.1-4.1-1.7-3.5-3.8   C494.9,310.3,496,311.8,497.5,312.8z" />
	<path display="inline" fill="#978075" d="M495.2,325.8c-1.4,0.1-2.1-0.7-2.9-2.1C494,323.7,494.3,324.8,495.2,325.8L495.2,325.8z" />
	<path display="inline" fill="#76645B" d="M501.1,330.1c-0.3,1.3-1.4,0.4-2.1-0.2C499.8,328.9,500.4,330.1,501.1,330.1L501.1,330.1z   " />
	<path display="inline" fill="#9F8378" d="M492.3,353.1c-0.7-0.4-0.9-1-0.2-2C492.2,352,492.3,352.6,492.3,353.1   C492.3,353.1,492.3,353.1,492.3,353.1z" />
	<path display="inline" fill="#978075" d="M495.2,325.8c0.2,0.1,0.4,0.2,0.5,0.3C495.3,326.6,495.3,326,495.2,325.8L495.2,325.8z" />
	<path display="inline" fill="#0A0807" d="M374.2,542.7c-2.9,0.8-9,1-9.5-2.9c2.8-2.3,6.8-1.3,10.2-1.7   C377.4,540,376.4,541.4,374.2,542.7z" />
	<path display="inline" fill="#AAB8A0" d="M374.9,538.1c-1.4,0-2.9,0.1-4.3,0.1c0-0.2,0-0.5,0.1-0.7c1.4,0,2.9,0.1,4.3,0.1   C374.9,537.8,374.9,537.9,374.9,538.1z" />
	<path display="inline" fill="#48453E" d="M457.4,274c-0.4-1-0.7-1.6-1.1-2.6C457.7,272.5,457.7,272.5,457.4,274z" />
	<path display="inline" fill="#281C1A" d="M419.5,529.7c1,0.9,2,1.9,3,2.8c-0.3,0.3-0.6,0.6-0.9,0.9c-1.6-0.6-3.3-1.2-3.6-3.6   C418.7,529.7,419.1,529.7,419.5,529.7L419.5,529.7z" />
	<path display="inline" fill="#614C46" d="M434.6,538.8c0.2-0.6,0.2-0.7,0.3-0.9c1-0.6,1.4,0.2,2.3,1.1   C436.1,538.9,435.4,538.9,434.6,538.8z" />
	<path display="inline" fill="#666159" d="M421.7,533.3c0.3-0.3,0.6-0.6,0.9-0.9c0.4,0.3,0.8,0.7,1.3,1   C422.9,534.3,422.2,534,421.7,533.3z" />
	<path display="inline" fill="#644842" d="M428.6,536.9c-0.6-0.3-1.3-0.2-0.9-1.1c0.4,0.2,0.8,0.4,1.1,0.6   C428.8,536.6,428.7,536.8,428.6,536.9z" />
	<path display="inline" fill="#452C28" d="M439.5,538.3c0.5,0,1,0.1,1.5,0.1c0,0.1,0,0.3,0,0.4c-0.5,0-1,0-1.5,0   C439.5,538.6,439.5,538.4,439.5,538.3z" />
	<path display="inline" fill="#3D322E" d="M510.4,204.8c-2.3-2.5-2.3-2.5-2.8-4.5c2,0.7,2.5,2.5,3.6,3.8   C510.9,204.3,510.6,204.5,510.4,204.8z" />
	<path display="inline" fill="#938177" d="M510.4,204.8c0.3-0.2,0.5-0.5,0.8-0.7c0.8,1.4,2.1,2.5,2.5,4.1   C512,208.2,511.5,205.7,510.4,204.8z" />
	<path display="inline" fill="#948479" d="M515.4,212.7c0.5,0.8,1,1.5,1.6,2.4c-1.6,0.3-1.8-0.9-2.3-1.6   C514.9,213.2,515.2,212.9,515.4,212.7z" />
	<path display="inline" fill="#7D6A61" d="M516.9,218.4c0-0.6-0.1-1.1-0.1-2.5c0.8,1.1,1,1.6,1.5,2.2   C517.7,218.2,517.3,218.3,516.9,218.4L516.9,218.4z" />
	<path display="inline" fill="#52443F" d="M515.4,212.7c-0.3,0.3-0.5,0.5-0.8,0.8c-0.2-0.6-1.1-1-0.3-1.9   C514.8,211.9,515.1,212.3,515.4,212.7z" />
	<path display="inline" fill="#120B08" d="M487.3,383.4c-5.5,3-12,3-18,4.5c0-0.3,0-0.5,0-0.8C472.9,385.6,484.4,381.2,487.3,383.4z   " />
	<path display="inline" fill="#431E17" d="M469.3,385.5c-0.6,0-1.1,0.1-1.6,0.1c0.8-2.5,8.7-2.8,12.1-4.4c-0.5,0.8-0.8,1.2-1,1.5   C475.6,383.8,472.1,384.2,469.3,385.5z" />
	<path display="inline" fill="#391E17" d="M475.8,394c-0.5,0.1-0.9,0.2-1.4,0.3c0-0.3,0-0.6-0.1-0.9c1.2-0.9,2.6-1.5,3.9-2.3   c0.4-0.7,0.8-1.3,1.1-2c0,0,0.1,0.3,0.1,0.3c0.3,0.2,0.6,0.4,0.8,0.6c0.1,0.3,0.2,0.7,0.4,1.1C479.5,392.8,477.5,393.1,475.8,394z" />
	<path display="inline" fill="#9B5C47" d="M469.3,385.5c2.8-1.4,6.4-1.8,9.4-2.8c0.2,0.8,0.9,0.6,1.5,0.8c-2.8,1.5-6.4,1.7-9.5,2.7   C470.2,386,469.7,385.7,469.3,385.5z" />
	<path display="inline" fill="#240907" d="M485.8,378.2c2.8,0.1,5.6,0.2,8.3,0.2c0,0.1,0,0.3,0,0.4c-3.4,0.6-6.9,0.2-10.4,0.3   c-0.2-0.2-0.5-0.4-0.7-0.7C483.9,378.4,484.9,378.3,485.8,378.2z" />
	<path display="inline" fill="#472018" d="M487.3,383.4c-0.5-1.1-1.5-0.5-2.3-0.8c1.8-0.6,5.1-2.4,6.5-0.7c-0.8,0.4-1.6,0.9-2.4,1.3   c-0.5-0.5-0.8-0.4-1.1,0.2C487.8,383.4,487.5,383.4,487.3,383.4z" />
	<path display="inline" fill="#96604A" d="M483.8,379.1c2.4,0,4.8,0,7.2,0.1c-2.2,1.2-4.9,0.3-7.3,0.5   C483.7,379.5,483.7,379.3,483.8,379.1z" />
	<path display="inline" fill="#9C5643" d="M482.3,387.8c0.3,0,0.6,0,1.1,0.1c0,1.3-1.6,1.1-1.8,2.1c-0.2,0-0.5,0-0.7,0   c-0.2-0.9-0.8-0.7-1.4-0.5l-0.1-0.3C480.3,388.7,481.3,388.2,482.3,387.8z" />
	<path display="inline" fill="#603A2D" d="M474.3,393.5c0,0.3,0,0.6,0.1,0.9c-0.7,0.7-1.6,1.2-3,1.3   C472.1,394.2,473.3,394,474.3,393.5z" />
	<path display="inline" fill="#64392C" d="M469.3,387.1c0,0.3,0,0.5,0,0.8c-0.6,0.8-0.8,1.1-2.1,1.3   C467.6,387.9,468.3,387.4,469.3,387.1z" />
	<path display="inline" fill="#200A08" d="M479.4,389.4c0.6-0.3,1.2-0.4,1.4,0.5c-0.2,0.1-0.4,0.1-0.6,0.1   C480,389.8,479.7,389.6,479.4,389.4z" />
	<path display="inline" fill="#603A2D" d="M475.1,392.9c-0.3,0.2-0.5,0.4-0.8,0.6C474.6,393.3,474.8,393.1,475.1,392.9z" />
	<path display="inline" fill="#603A2D" d="M475.8,394c0.3-0.1,0.6-0.3,0.9-0.4C476.3,393.7,476,393.9,475.8,394z" />
	<path display="inline" fill="#39332B" d="M473.8,151.5c-4.2,4.1-4.7,10.2-4.6,15.8c-0.2,0-0.4,0-0.6,0c-0.7-6.1-0.4-12.2,4.5-16.6   C473.5,151,473.6,151.2,473.8,151.5z" />
	<path display="inline" fill="#8B7D68" d="M468.6,167.2c0.2,0,0.4,0,0.6,0c1,2.6,1.5,5.2,1.3,8C469.3,172.4,468.8,169.9,468.6,167.2   z" />
	<path display="inline" fill="#8B7D68" d="M468.4,159.3c0,2.4,0.1,4.9,0.1,7.3C467.3,164.5,467.5,161.6,468.4,159.3z" />
	<path display="inline" fill="#B9A589" d="M474.4,183.8c0.7,0.6,0.6,1.4,0.5,2.2C474,185.5,474.3,184.6,474.4,183.8z" />
	<path display="inline" fill="#201C1F" d="M569.5,451.1c-1.8,0.4-2.8-1-4.5-2.1C567.3,448.9,567.9,450,569.5,451.1L569.5,451.1z" />
	<path display="inline" fill="#342C28" d="M482.1,271.1c-1.8-3.1,1.7-4.3,4.9-4.5C486,268.2,483.9,269.6,482.1,271.1z" />
	<path display="inline" fill="#613428" d="M483.8,373.9c-0.5,0.2-1,0.5-1.5,0.7c-2.1-0.5-4.3-0.3-6.8-1.1   C477.8,371.6,481.2,373.3,483.8,373.9z" />
	<path display="inline" fill="#815951" d="M449.1,355.3c-0.1,0.2-0.2,0.4-0.3,0.6C448.3,355.4,448.9,355.5,449.1,355.3L449.1,355.3z   " />
	<path display="inline" fill="#373A45" d="M465.7,420.2c-0.1-4.2,1.1-8.5,2.9-12.3c1.5-0.6,2.3-1.8,2.1-3.5c2.2-2.6,4.7-5.5,7.9-6.6   l0.1,0.1c0,0.2,0,0.4,0,0.7c-6.6,4.4-8.4,12.9-9.4,20.2C468.1,419.2,466.9,419.7,465.7,420.2z" />
	<path display="inline" fill="#875D52" d="M470.7,404.4c0.2,1.7-0.6,2.8-2.1,3.5c0.2-1,0.4-2.1,0.6-3.1   C469.7,404.7,470.2,404.5,470.7,404.4z" />
	<path display="inline" fill="#373A45" d="M478.6,397.8c0.3-0.2,0.6-0.4,0.9-0.7c0.1,0.2,0.2,0.3,0.2,0.5c-0.3,0.1-0.7,0.2-1,0.3   L478.6,397.8z" />
	<path display="inline" fill="#756159" d="M604.1,408.5c-0.3,0.3-0.6,0.6-0.9,0.9c-0.9-1.1-2.5-1.6-2.8-3.4   C602.3,406.1,603.1,407.5,604.1,408.5z" />
	<path display="inline" fill="#322522" d="M370.4,506.4c-1.5,0-2.4,0.7-2.7-0.7C368.5,504.6,369.1,505.7,370.4,506.4z" />
	<path display="inline" fill="#693F3A" d="M372.4,507.8c-0.4-0.3-0.7-0.6-1.1-0.9C372.6,506.7,372.6,506.7,372.4,507.8z" />
	<path display="inline" fill="#3C2421" d="M376.1,508.4c0.8-0.1,1.3-0.7,1.5,0.2C377.3,509,376.8,508.5,376.1,508.4z" />
	<path display="inline" fill="#ED8969" d="M488,383.4c0.3-0.6,0.7-0.6,1.1-0.2C488.7,383.3,488.4,383.3,488,383.4z" />
	<path display="inline" fill="#A6877C" d="M504.6,318c0.1,0.1,0.2,0.2,0.4,0.3c-0.3,0.1-0.6,0.3-0.8,0   C504.3,318.2,504.4,318.1,504.6,318z" />
	<path display="inline" fill="#94867A" d="M499.5,315c0.2,0.1,0.3,0.2,0.5,0.3C499.6,315.7,499.7,315.2,499.5,315L499.5,315z" />
	<path display="inline" fill="#B4A489" d="M491.7,184.6c-2.4-0.2-3.9-1.9-5.6-3.2c0.6-0.5,1-0.8,1.5-1.1c0.4-0.1,0.9,1.1,1.3,0   C489.8,181.7,491.3,182.7,491.7,184.6z" />
	<path display="inline" fill="#A4957D" d="M488.1,186c0-0.3,0-0.7,0-1.2c1.5,0.3,2.8,1.5,4.2,0.5c0.8,0.6,1.6,1.2,1.4,2.5   C491.6,187.8,489.9,186.6,488.1,186z" />
	<path display="inline" fill="#867168" d="M492.4,177.3c0.4-0.7,0.8-1.5,1.2-2.2c0.3,0.3,0.6,0.6,0.9,0.9c-0.5,0.5-1,1-1.5,1.5   C492.9,177.4,492.6,177.3,492.4,177.3z" />
	<path display="inline" fill="#A4957D" d="M492.4,185.3c-0.3-0.3-0.5-0.5-0.8-0.8C491.9,184.8,492.1,185.1,492.4,185.3z" />
	<path display="inline" fill="#94856F" d="M482.9,171.8c0.3-0.3,0.5-0.6,0.8-0.9c1.4,0.4,2.8,0.8,4.4,1.2   C486.7,173.1,484.4,172.3,482.9,171.8z" />
	<path display="inline" fill="#CCB89A" d="M485.2,169.5c0.5,0.2,1.1,0.4,1.6,0.6C486.2,170.2,485.5,170.3,485.2,169.5z" />
	<path display="inline" fill="#9E856F" d="M503.9,164.4c-3.8,2.7-8.5,1.3-12.3-0.7c2.1-0.2,4.6,0.7,6.4-0.6c1.7,1,3.1,0.6,3.6-1.4   c0.5,0.4,1.1,0.8,1.6,1.2c-0.4,0.1-0.8,0.2-1.3,0.4C502.7,163.7,503.3,164,503.9,164.4z" />
	<path display="inline" fill="#6B5B4C" d="M501,163.1c-1.7,1.7-4.5-1.1-6.6-1.4c0.3-0.2,0.5-0.5,0.8-0.7   C497.1,161.6,499,162.3,501,163.1z" />
	<path display="inline" fill="#9E856F" d="M491.6,163.7c-0.8,0-1.6,0.1-2.2-0.7C490.2,163,491.1,162.7,491.6,163.7z" />
	<path display="inline" fill="#908874" d="M527.7,145c-1.7-0.9-2.8-2.6-4.8-2.9c-0.3-0.4-0.7-0.9-1-1.3l0-0.1c2.2,0,3.7,2.4,6.4,1.5   c-0.9,1,0.3,1.9,0.1,2.9l0,0C528.2,145,527.9,145,527.7,145z" />
	<path display="inline" fill="#2C2520" d="M503.8,136.3c1.7,0,3.4,0.1,5.1,0.1c-0.2,0.4-0.5,0.8-0.7,1.2c-1.4,0-2.9,0.1-4.3,0.1   C503.9,137.3,503.8,136.8,503.8,136.3z" />
	<path display="inline" fill="#87947E" d="M503.9,137.8c2.6-0.1,5.2-0.1,7.8,0.1c0.1,0.2,0.1,0.3,0.1,0.5c-2.6,0-5.2-0.1-7.9-0.1   C503.9,138.2,503.9,138,503.9,137.8z" />
	<path display="inline" fill="#4B4D42" d="M511.8,138.4c0-0.2,0-0.4-0.1-0.5c1.7,0.1,4.9,0.8,5.9,1.3l0,0   C515.8,138.9,513.1,140,511.8,138.4z" />
	<path display="inline" fill="#4B4D42" d="M517.5,139.2c1.1,0.1,3-0.5,3,1.3c-0.3,0-0.5,0.1-0.8,0.1   C519,140.2,518.3,139.7,517.5,139.2L517.5,139.2z" />
	<path display="inline" fill="#2C2520" d="M512.5,136.5c0.5,0.1,1.1,0.3,1.6,0.4C513.5,137.1,512.9,137.2,512.5,136.5z" />
	<path display="inline" fill="#7A8976" d="M520.5,140.6c0-0.2-0.1-0.4-0.1-0.6c0.6,0.1,1.2-0.1,1.5,0.7l0,0.1   C521.4,140.6,521,140.6,520.5,140.6z" />
	<path display="inline" fill="#110D0B" d="M494.5,144.2c4.6,1.2,9.3,1.9,13.7,3.8c-0.5,1.1-1.6,0.5-2.4,0.8   c-5.9-0.9-11.6-1.9-17.6-2.6c-0.6-0.7,0-1.4,0.6-2C490.7,144.2,492.6,144.2,494.5,144.2z" />
	<path display="inline" fill="#D8C1A2" d="M495.2,153.7c-0.2-0.1-0.4-0.1-0.6-0.2c0-0.2-0.1-0.4-0.1-0.6c0.7-0.2,1.5-0.5,2.2-0.7   c0.4,0.8,1.2,0.9,1.8,0.7c1.9-0.6,3.7-0.2,5.5,0.1c0.2,0.7,0.8,0.8,1.4,0.6c2.1-1.3,4.7-0.7,7.1-0.6c0,0.2,0,0.3,0,0.5   c-5,2.3-10.6,3-15.8,0.8C496.4,153.6,495.8,153.5,495.2,153.7z" />
	<path display="inline" fill="#D8C1A2" d="M491.5,148.7c3.2-0.5,5.9,0.9,9.2,0.7c0.5,0.5,1,1.1,1.8,1.8c-3.7-1-5.4,1.4-8.6-0.4   c0.4-0.1,0.8-0.2,1.5-0.5C493.8,149.7,492.6,149.2,491.5,148.7z" />
	<path display="inline" fill="#302721" d="M509,152.7c-0.7,0-1.4,0.1-2,0.1c-0.1-0.2-0.1-0.3-0.1-0.5c0,0-0.1,0-0.1,0   c0.2-0.2,0.3-0.3,0.5-0.5c-0.2-0.1-0.3-0.2-0.5-0.3l0,0c0.8-0.4,1.6-0.7,2.5-1.1c-1.2-0.5-2.6-0.7-3.5-1.6c0.8-0.3,1.8,0.3,2.4-0.8   c1.4-0.4,2.8-1.1,4.3-0.7c0,0.4,0,0.9,0,1.3c-0.8,0.1-1.6,0.1-2.4,0.2c0.6,1.7,2.4,0.9,3.3,1.9C511.7,150.8,509.4,150.6,509,152.7z   " />
	<path display="inline" fill="#836656" d="M491.5,148.7c1.1,0.5,2.3,1.1,3.8,1.7c-1.2,1-7.2-0.7-6.5-1.9   C489.7,148.6,490.6,148.6,491.5,148.7z" />
	<path display="inline" fill="#F0DDBC" d="M492.4,150.6c2,0.4,3.7,1.2,5.7,0.8c-0.7,1.2-2.5,0.8-3.7,1.5c-0.7-0.3-1.3-0.6-2-0.9   C492.4,151.6,492.4,151.1,492.4,150.6z" />
	<path display="inline" fill="#D8C1A2" d="M506.7,149.4c0.9,0.3,1.7,0.6,2.6,0.9c-1.6,0.7-4,2.3-5.1,0.1   C505.1,150.1,505.9,149.8,506.7,149.4z" />
	<path display="inline" fill="#C8BD9E" d="M494.5,144.2c-1.9,0-3.8,0-5.8,0c0-0.2,0-0.4,0-0.7C490.7,143.7,492.9,143,494.5,144.2z" />
	<path display="inline" fill="#B5A088" d="M506.8,152.3c0,0.2,0,0.4,0.1,0.5c-0.9,0.4-2.3,1.6-2.9,0.2   C504.9,152.7,505.9,152.5,506.8,152.3z" />
	<path display="inline" fill="#D8C1A2" d="M506.8,151.4c0.2,0.1,0.3,0.2,0.5,0.3c-0.2,0.2-0.3,0.3-0.5,0.5   C506.8,151.9,506.8,151.7,506.8,151.4z" />
	<path display="inline" fill="#8E8873" d="M493.9,154.3c1.4,0.7,2.9,1.4,4.3,2.1c-1.4,1-2.9,1.5-4.5,0.2c0.3-0.1,0.6-0.2,1.4-0.4   c-2.7-1-4.7-1.7-7-2.8c-0.1-0.2-0.1-0.4-0.1-0.6l0,0C490,153.1,491.9,153.7,493.9,154.3z" />
	<path display="inline" fill="#676353" d="M505.2,158c0.6,0,1.3,0.1,2,0.1c-0.4,1.1-1.1,1.4-2,1.1   C505.2,158.8,505.2,158.4,505.2,158z" />
	<path display="inline" fill="#211E19" d="M475,216.3c-1.2-6.3,0.5-12.9,0-19.5c0.2-0.2,0.4-0.4,0.7-0.7   C476.1,202.9,477.5,210,475,216.3z" />
	<path display="inline" fill="#645749" d="M475.6,196.2c-0.2,0.2-0.4,0.4-0.7,0.7c-0.2,0-0.4-0.1-0.6-0.1c0-1.8,0-3.5,0-5.3   C474.9,193.1,476,194.5,475.6,196.2z" />
	<path display="inline" fill="#B8AE91" d="M501,163.1c-2.2-0.9-4.5-1.7-6.7-2.6c0-0.1,0-0.2,0-0.3c2.5,0.2,4.9,0.8,7.3,1.5   C501.4,162.1,501.2,162.6,501,163.1z" />
	<path display="inline" fill="#1F1512" d="M517.6,139.2c0.7,0.5,1.4,1,2.1,1.5l0,0c-0.6,0.1-1.2,0.1-2.7,0.3   c2.2,0.8,3.5,1.4,4.9,1.9l0,0c0,0.2,0,0.5,0,0.7c0,0-0.1,0.1-0.1,0.1c-3.3-1-6.5-2.9-10-3c-2.6-2.3-6.4-1-9.7-1.9   c3.1-0.9,6.5-0.2,9.7-0.3C513.1,140,515.8,138.9,517.6,139.2z" />
	<path display="inline" fill="#EEE2C1" d="M510.4,139.9c0.2,0.1,0.4,0.1,0.6,0.1c0.2,0.2,0.5,0.4,0.8,0.7c0,0.5,0.1,0.8,0.7,0.8   l0-0.1c-2,1.6-4.2,0.2-5.7-1.3C508,140,509.2,139.9,510.4,139.9z" />
	<path display="inline" fill="#C1C4A7" d="M528.4,145c1.6,0.5,2,2.2,0,1.4C528.4,145.9,528.4,145.5,528.4,145L528.4,145z" />
	<path display="inline" fill="#575045" d="M528.4,145c0,0.5,0,0.9,0,1.4c-0.7-0.2-0.7-0.9-0.7-1.4C527.9,145,528.2,145,528.4,145z" />
	<path display="inline" fill="#211D1A" d="M596,549.1c0.3,0,0.5,0,0.8,0c-0.2,0.2-0.3,0.3-0.5,0.5   C596.2,549.5,596.1,549.3,596,549.1z" />
	<path display="inline" fill="#55473D" d="M508.2,141.3c1.4,0.7,2.8,1.3,4.3,0.1c2.1,1.2,4.7,1.4,6.5,2.8c-1.1,1.9-3,0.2-4.9-0.1   c0.5,0.6,0.7,0.9,0.9,1.1c-0.3,0.4-0.6,0.7-0.9,1c-1.2-0.6-2.9-0.1-3.7-1.3l0,0c0.8,0,1.6-0.1,3.1-0.1c-2.6-1-4.3-2.2-6.6-0.6   c-0.2-0.1-0.4-0.1-0.6-0.1c-0.5-0.5-1-0.9-1.6-1.4c0-0.2,0-0.4,0-0.6c1,0.1,2,0.2,3.1,0.3C507.8,142.2,508,141.7,508.2,141.3z" />
	<path display="inline" d="M474.3,219.2c0.2-1-0.2-2.2,0.8-3C474.8,217.2,475.5,218.5,474.3,219.2z" />
	<path display="inline" fill="#685749" d="M488.7,153.7c0.3,0.2,0.6,0.4,0.8,0.5C489.3,154,489,153.8,488.7,153.7z" />
	<path display="inline" fill="#685749" d="M488,152.9c0,0.2,0,0.4,0.1,0.6c-0.3-0.2-0.6-0.4-0.8-0.6   C487.5,152.9,487.8,152.9,488,152.9z" />
	<path display="inline" fill="#685749" d="M493.9,154.3c-1.9-0.5-3.9-1.2-5.9-1.4c0.7-0.7,0.3-1.4,0-2.2c2.3-0.1,4.3,1.5,6.4,2.2   c0.1,0.2,0.1,0.4,0.1,0.6C494.3,153.8,494.1,154,493.9,154.3z" />
	<path display="inline" fill="#685749" d="M488,150.8c-1-0.2-1.9-0.5-2.9-0.7C485.8,148.7,487.5,149.8,488,150.8z" />
	<path display="inline" fill="#BCA98E" d="M481.6,219.2c0.2-0.5,0.3-1.1,0.5-1.6C482.3,218.2,482.4,218.8,481.6,219.2z" />
	<path display="inline" fill="#ECD5B6" d="M506.2,144.2c0.2,0,0.4,0,0.6,0.1c-0.8,0.8-1.6,1.6-2.4,2.3c-2.8-0.7-5.7-1.4-8.5-2.1   C498.3,141.8,502.9,145.2,506.2,144.2z" />
	<path display="inline" fill="#C8BD9E" d="M506.2,144.2c-2.8,0.5-5.3-0.6-8-0.7c0-0.2,0-0.5,0-0.7c2.2,0,4.3,0,6.5-0.1   C505.1,143.3,505.6,143.7,506.2,144.2z" />
	<path display="inline" fill="#191613" d="M515.4,135.6c0.5,0.2,2.2-0.4,1.4,0.6C516.4,136.1,515.9,135.8,515.4,135.6z" />
	<path display="inline" fill="#C0B69C" d="M512.5,153.4c0-0.2,0-0.3,0-0.5c1.4-0.9,3-1.4,4.6-1.6c-0.1,0.7-0.1,1.5-0.2,2.2   C515.2,153.6,514,153.8,512.5,153.4z" />
	<path display="inline" fill="#D1C0A4" d="M514.6,154.9c0.7,0.1,1.3,0.1,2.6,0.3c-1.2,0.9-1.9,1.4-2.6,2c-0.6,0.1-1.3,0.2-1.9,0.2   c-0.5-0.2-1.1-0.5-1.6-0.7C512.3,156.1,513.5,155.5,514.6,154.9z" />
	<path display="inline" fill="#A48975" d="M511.1,156.7c0.5,0.2,1.1,0.5,1.6,0.7c-1.7,1.3-3.8-0.2-5.6-0.4   C508.3,155.2,509.8,156.4,511.1,156.7z" />
	<path display="inline" fill="#B2B294" d="M505.2,162.8c2-0.4,3.9-0.8,5.9-1.3c0,0.2,0,0.5,0,0.7l0,0c-0.6,0-1.2,0-1.5,0.7l-0.2,0.1   c-1.3-0.1-2.7,0-4.1-0.1L505.2,162.8z" />
	<path display="inline" fill="#486A5A" d="M501.1,169.5c0.2-1.1,5.4-1,4.2,0C503.9,169.5,502.5,169.5,501.1,169.5z" />
	<path display="inline" fill="#342B24" d="M500.3,167.3c1.3,0.1,2.5,0,3.6-0.6c0.2,0.2,0.5,0.4,0.7,0.7   C503.2,168.4,501.7,168.4,500.3,167.3L500.3,167.3z" />
	<path display="inline" fill="#B2B294" d="M503.9,164.4c-0.6-0.4-1.2-0.7-1.9-1.1c1.1-0.4,2.1-0.4,3.2-0.4l0.2,0.2   c0,0.2,0,0.5,0,0.7C504.9,164.1,504.5,164.6,503.9,164.4z" />
	<path display="inline" fill="#744137" d="M501.1,169.5c1.4,0,2.8,0,4.2,0C503.9,170.5,502.5,170.7,501.1,169.5z" />
	<path display="inline" fill="#BAAA91" d="M505.3,163.7c0-0.2,0-0.5,0-0.7c1.3,0,2.5,0,3.8,0C507.9,163.3,506.6,164.1,505.3,163.7z" />
	<path display="inline" fill="#2B3D34" d="M504.6,167.3c-0.2-0.2-0.5-0.4-0.7-0.7c0.6,0,1.2,0,1.7,0c0,0.1,0,0.2,0.1,0.4   C505.3,167.1,505,167.2,504.6,167.3z" />
	<path display="inline" fill="#685749" d="M495.2,153.7c0.6-0.2,1.2-0.1,1.6,0.5C496.1,154.4,495.5,154.4,495.2,153.7z" />
	<path display="inline" fill="#BAAA91" d="M509.6,163c0.3-0.7,0.9-0.7,1.5-0.7C510.6,162.5,510.1,162.8,509.6,163z" />
	<path display="inline" fill="#9E856F" d="M505.3,163.7c0.3,0.1,0.6,0.1,1,0.2c-0.5,0.6-1.1,0.6-1.7,0.5   C504.8,164.1,505.1,163.9,505.3,163.7z" />
	<path display="inline" fill="#BAAA91" d="M511.1,162.3c0-0.2,0-0.5,0-0.7c0.2,0.1,0.3,0.1,0.5,0.2   C511.4,161.9,511.3,162.1,511.1,162.3z" />
	<path display="inline" fill="#B6A496" d="M494.5,176c-0.3-0.3-0.6-0.6-0.9-0.9c0.4-0.7,0.8-1.3,1.1-1.9   C497.2,173.1,495.4,175.2,494.5,176z" />
	<path display="inline" fill="#1E1816" d="M493.8,182.4c-1.2-1-0.7-2.3-0.8-3.5C494.1,179.8,493.8,181.1,493.8,182.4z" />
	<path display="inline" fill="#1E1816" d="M497.4,184.6c-0.2,0.1-0.5,0-0.7,0c0.2-0.2,0.5-0.4,0.7-0.7   C497.5,184.1,497.5,184.3,497.4,184.6z" />
	<path display="inline" fill="#1E1816" d="M495.9,184.5c-0.3-0.2-0.5-0.4-0.8-0.5C495.4,184.1,495.7,184.3,495.9,184.5z" />
	<path display="inline" fill="#1E1816" d="M495.2,184c-0.2-0.2-0.5-0.5-0.7-0.7C494.7,183.5,494.9,183.7,495.2,184z" />
	<path display="inline" fill="#1E1816" d="M494.4,183.3c-0.2-0.3-0.4-0.5-0.6-0.8C494,182.7,494.2,183,494.4,183.3z" />
	<path display="inline" fill="#BFB79C" d="M519,144.2c-1.9-1.5-4.5-1.6-6.5-2.8l0,0.1c0-0.2,0.1-0.4,0.1-0.7   c3.2,0.8,8.1,1.6,10.1,4.1l-0.2,0.2c-0.2,0-0.4,0-0.7,0.1c-0.2-0.1-0.5-0.1-0.7-0.2c-0.3-0.6-0.8-0.8-1.4-0.6   C519.5,144.3,519.3,144.2,519,144.2z" />
	<path display="inline" fill="#9D8673" d="M512.4,145.8c1,0.3,1.9,0.5,2.9,0.6c-1.2,1-2.7,0.8-4.2,0.6c0-0.2-0.1-0.4-0.2-0.5   C511.5,146.3,511.9,146.1,512.4,145.8z" />
	<path display="inline" fill="#BFB89D" d="M522.7,144.9c1,0.1,2,0.3,2.9,1.5c-0.7,0-1.1,0.1-1.5,0.1c-0.5-0.3-0.9-0.5-1.4-0.8   c-0.1-0.2-0.1-0.4-0.1-0.6L522.7,144.9z" />
	<path display="inline" fill="#606A5A" d="M519.7,146.4c-0.6,0-1.2,0-1.7,0c0-0.1,0-0.3-0.1-0.4   C518.7,145.6,519.2,145.7,519.7,146.4L519.7,146.4z" />
	<path display="inline" fill="#55473D" d="M519.7,146.4c0.6,0,1.1,0,1.7,0c0,0.2,0,0.3,0.1,0.5C520.7,147.2,520.2,147.1,519.7,146.4   L519.7,146.4z" />
	<path display="inline" fill="#55473D" d="M519.7,144.4c0.6-0.1,1.1,0,1.4,0.6C520.7,144.8,520.2,144.6,519.7,144.4z" />
	<path display="inline" fill="#55473D" d="M522.5,145.1c0,0.2,0.1,0.4,0.1,0.6c-0.3-0.2-0.5-0.3-0.8-0.5   C522,145.1,522.3,145.1,522.5,145.1z" />
	<path display="inline" fill="#0A0605" d="M516.1,151.4c-1.2,0.4-2.5,0.7-3.5,1.5c-1.2-0.1-2.4-0.1-3.6-0.2c0.9-2.9,4.8-2,7.1-2   C516.2,151,516.2,151.2,516.1,151.4z" />
	<path display="inline" fill="#9C9C86" d="M516.1,151.4c0.1-0.2,0.1-0.5,0-0.7c0.3,0.2,0.7,0.3,1,0.5   C516.7,151.3,516.4,151.4,516.1,151.4z" />
	<path display="inline" fill="#251C18" d="M522.6,144.3c-0.3-0.2-0.5-0.4-0.8-0.6c0.2-0.2,0.4-0.3,0.6-0.5c-0.2-0.1-0.4-0.2-0.5-0.4   c0,0,0,0,0,0c0-0.2,0-0.5,0-0.7c1.8-0.3,3.4,0.9,4.6,2.2C525,144.2,523.9,143.1,522.6,144.3z" />
	<path display="inline" fill="#494D59" d="M495.5,427.3c-5.4,1.1-6.5-6.1-4.6-9.9C495.6,411.8,500.2,424.1,495.5,427.3z M496,421.6   c0.2,0.1,0.3,0.2,0.5,0.3C496.3,421.8,496.1,421.7,496,421.6c0.4-8-9.1-1.1-2.3,2.7c0.4-1.7-1.4-3-0.1-4.7c0.3,0,0.8-0.1,1.1-0.1   C495.1,420.2,495.6,420.9,496,421.6z" />
	<path display="inline" fill="#35393F" d="M498.1,422.3c1.4,1.1,1,4.5-0.8,5C497.9,425.7,498.3,424.1,498.1,422.3z" />
	<path display="inline" fill="#261512" d="M522.9,142c-0.3,0-0.6,0.1-0.9,0.1c-0.7-0.5-1.5-1-2.2-1.4c0,0,0,0,0,0   c0.7-0.2,1.4-0.1,2.2,0C522.2,141.1,522.5,141.6,522.9,142z" />
	<path display="inline" fill="#C7B89E" d="M512.4,145.8c-0.5,0.2-1,0.5-1.4,0.7c-1.3-0.2-2.5-0.4-3.8-0.5c0,0.4,0.3,1-0.4,1.3   c-0.8-0.2-1.6-0.5-2.3-0.7c2.5-3.3,5.3-3.8,9-1.7c-1.5,0.1-2.3,0.1-3.1,0.1c-0.5-0.7-1-0.8-1.8-0.5c0,0.1,0,0.2,0,0.3   c0.6,0,1.2,0.1,1.8,0.1C510.8,146,511.7,145.5,512.4,145.8z" />
	<path display="inline" fill="#55473D" d="M506.7,147.3c0.8-0.2,0.4-0.9,0.4-1.3c1.3,0.2,2.6,0.4,3.8,0.5c0.1,0.2,0.1,0.3,0.2,0.5   c-1,0.3-2,0.6-3,0.9C507.7,147.7,507.2,147.5,506.7,147.3z" />
	<path display="inline" fill="#5F5F52" d="M519.7,140.7c0.7,0.5,1.5,1,2.2,1.4c0,0.2,0,0.5,0,0.7c-1.4-0.5-2.7-1.1-4.9-1.9   C518.5,140.8,519.1,140.7,519.7,140.7z" />
	<path display="inline" fill="#5F5F52" d="M521.9,142.8c0.2,0.1,0.4,0.2,0.5,0.4c-0.2,0.1-0.4,0.3-0.5,0.4   C521.9,143.3,521.9,143.1,521.9,142.8z" />
	<path display="inline" fill="#55473D" d="M514.7,141.1c-0.3-0.1-0.6-0.2-0.9-0.4C514.1,140.9,514.4,141,514.7,141.1z" />
	<path display="inline" fill="#55473D" d="M512.6,140.7c0,0.2-0.1,0.4-0.1,0.7c-0.6,0.1-0.7-0.3-0.7-0.8   C512.1,140.7,512.3,140.7,512.6,140.7z" />
	<path display="inline" fill="#55473D" d="M511.8,140.6c-0.2-0.2-0.5-0.4-0.7-0.7C511.3,140.2,511.6,140.4,511.8,140.6z" />
	<path display="inline" fill="#141517" d="M496,421.6c-0.4-0.7-0.8-1.3-1.3-2.1c-0.4,0-0.8,0.1-1.1,0.1c-1.3,1.6,0.5,3,0.1,4.7   C486.9,420.4,496.4,413.6,496,421.6L496,421.6z" />
	<path display="inline" fill="#141517" d="M495.9,421.6c0.2,0.1,0.3,0.2,0.5,0.3C496.3,421.8,496.1,421.7,495.9,421.6L495.9,421.6z" />
	<path display="inline" fill="#55473D" d="M510.4,145c-0.6,0-1.2-0.1-1.8-0.1c0-0.1,0-0.2,0-0.3C509.3,144.2,509.9,144.3,510.4,145   L510.4,145z" />
</g>
</svg>