<?xml version='1.0' encoding='utf-8'?>
<svg xmlns="http://www.w3.org/2000/svg" version="1.2" baseProfile="tiny" id="Layer_1" x="0px" y="0px" viewBox="0 0 900 600" overflow="visible" xml:space="preserve">
<g id="b_00000095308630206126018640000009264141104199982469_">
	<path display="inline" d="M602.1,466.5c-11.2,6.6-25.9,2.5-38.4,1.8c-22.5,1.5-38.7,3.1-59.6-7.9c-57.4,17.1-120.2,16.7-177.7,6.7   c-18.5-0.6-36.6,3.1-55.1,4.3c-15,2.6-28.2-7.8-43.1-4.8c-23.2,2.4-54.7,0-64.5-25c-30.5,25.8-88.4,46.9-115.5,5.7   c-10.9-23.8,1.8-67.2,29.7-72.2c-4.7-4.5-12.5-6-13.2-13.6c-9.4-4-17.9-8-27.7-10.6c-0.4-1-0.7-1.9-1.1-3c-4.4-2.3-5.8-8.5-11-9.8   c-5.6-18.4-5.1-24.3-2.8-42.5c-1.2-6.4,5.1-11.6,7.6-16.8c7.2-14.8,29-28.5,45.7-22.5c11.9,0.5,24.7,2.8,34.3,10.9   c-0.8,2.3-3.2,0.6-4.6,0c-7.6-4.5-16.1-5.8-24.5-7.4c-0.6-0.3-1.9-0.1-2.3,0.3c-1.5,1.5-3.8,0.9-5.2,2.1   c-4.4,2.3-11.5,2.2-12.5,8.3c-9.2,8.8-17.9,21.4-19.3,34.8c3.1,3.7,0.9,10.4,7.1,11.9c2,0.3,2.7,2.4,3.9,3.5   c1.3-0.2,2.4-0.3,3.2-0.4c8.2,6.6,14,14.9,20.3,23c-2.4,3.5,0.7,6.9,2.5,9.7c-1,1.8-1.8,3.3-2.6,4.8c-1.7,0-3.4,0-5.3,0   c-0.2,0.9-0.3,1.5-0.4,2.1l0.1-0.1c-1.1,0.6-2.2,1.2-2.5,2.7c0.6,1.3,1.3,2.6,1.9,3.9c0.6,0.1,1.1,0.2,1.5,0.2   c2.6,4.3,6.7,5.2,11.3,5.9c5.2,2.4,15.4,0.7,18.8-3.5c-1.1-0.8-2-1.5-3.1-2.3c0.1-0.7,0.1-1.3,0.2-2c5.8-0.9,10.4,4,16.1,3.9   c5.5,2.1,10.2-1.3,16.7,0.1c-8,5.6-17.7,2.1-26.4,0.7c-1.2,1.7-2.2,3.1-3.3,4.7c19.2,5.2,37.1,11.5,52.6,24.4   c-0.1-9.1,5.4-16.6,10.8-23.2c0.9,0.3,0.8,1.1,0.9,1.8c-4,7.9-10.2,15.3-9.4,24.7c6.9,8.3,4.9,19.3,8.1,29.6   c9.2,30.2,42.7,35,70.3,30.7c18.5-14.1,25.8-41.7,25.7-64.5c-11.9-3.5-17.4-14.3-26.6-22.6c6.9,1.1,7,0.4,14.8,7.8   c9.7-2.6,17.8-8.9,27.9-10.9c-0.5,3.8-4.3,9.5-8.7,7.8c-1.1,0.9-1.9,1.6-2.7,2.3c-0.9-0.4-1.6-0.6-2.3-0.9c-1.7,0.4-1.3,2-1.6,3.2   c-2.1,1.8-4.4,3.5-6.4,6.1c24.7,4.1,49.3,3.3,72.2,14.7c2.7-1.8,5.2-1,9-1.6c-2.2,2.4-2.8,2-5.2,3.3c6.6,3.4,12.4,7.9,20,5.8   c21.6-2.7,44.3-1.8,65.5,3.3c15.7,2.1,29.8,12.4,45.9,9.6c2.9-3.3,0.7-9.5,3.7-13.3c-1.7-17.8-0.4-34.9-1-52.6   c-4.2,0.3-6.2,3.3-10.5,2.7c3.6-2.3,6.8-3.5,10.3-4c-0.4-11,1-22.1-1-32.5c-10-0.8-19.8-2.6-29.7-3.8c13.9-3.5,30,4.1,43.5-1.2   c1.5-1.5,3.4-1.7,5.5-1.7c3.3-9.7,12.7-15.3,22.5-11.2c1.2-3.2,2.1-6.3,5.7-7.8c1.2,0.3,2.5,0.6,3.9,0.9   c18-43.4,43.8-83.7,68.7-123.4c11-15,26.7-25.7,38-40.2c13.2-14.7,38.6-16.3,53.1-2.5c15.4-0.7,19.2,15.7,27.6,25.3   c8.9,9.5,11.5,21.8,17,33.1c34.4,44.7,31,105.4,62.3,151.4c2.9-1.8,5.9-3.2,9.9-2.1c9.7,15.9,27.7,23.9,43.8,32.6   c12.7,8.6,46.4-4.1,43.4,17.2c27.9-1.5,14.6,39.1-2,46.3c-30,7.6-60.9,5.4-91.1,3.1c-11.8,2.6-76.1,0.8-80.5-9.2   c6-7.5,2.8-17.6,9.7-24.4c-3.2-11.4,2.7-23,5.1-34.1c1.7-8.1-0.7-19.8,10.5-21c-13.2-33.1-45.4-54-67.3-80.3   c-6.7,13.4-6.6,29.5-14.9,42.5c16.1,19.7,22.3,9.4,5.7,34c-21,24.6-53,90.5-85.8,92.7c14.6,9.3,35.6,7.1,51.6,15.5   c0,1.8,0,3.3,0,5.1c-1.9,0.5-3.4,1.9-5.5,1.3c0-0.3,0-0.6,0-0.9c1.8-0.9,2.8-1.4,4.2-3.2c-8.9-3.3-17.5-6-26.4-7.5   c-6.7-2.1-15.1-2.1-22-5.6c-10.7-4.3-22.7-1.8-34.6-4.4c-27.5-8.3-59.4-8.5-87.7-13.9c-36.2-12.2-74.6-14.6-112.2-11.7   c0.5-1,0.9-1.8,1.2-2.5c-22.8-9.6-47.8-16.4-72.5-15.3c-1.4,22.7-6.6,46.3-23.2,62.8c26,9.5,54.1,1.8,80.7,0.4   c0.1,0.3,0.1,0.5,0.5,0.5c-0.2-0.1-0.4-0.3-0.5-0.4c-0.7-1.6-3.2-1.5-3.4-3.9c20.5,4.1,28,13.5,51.6,7.9c-0.9,1-1.5,1.7-2.3,2.5   c15.9,3.6,31.7,1.5,47.3-0.3c22.6,1.9,45.4-5.9,67.5-6.5c35.9-11.3,16.2-1,51.6,4c17.3-2.8,35.8-1.4,53.8-1.9   c5.1-0.2,10,4.8,12.9-1.8C600.6,463.9,601.5,465.2,602.1,466.5z M523.7,305.9c-0.3,0.3-0.6,0.7-1,1l0,0c-0.7,0.6-1.5,1.2-2.2,1.8   c-5,0.3-9.1,1.3-12.9,4.5c-0.2,1-0.4,1.9-0.5,2.5c-4.4,2-7.8,4.8-12.1,5.8c-0.4-0.3-0.7-0.6-1.1-0.9c3.1-3.4,6.3-6,10.4-8.4   c-4-1.7-4.7-1.8-9.7-1.3c-2.5,1.8-5.5,3.1-6.4,6.6c-1.4,0.5-2.1,1.4-2,2.9c-1.5,3.6-5.5,0.3-7.6,4.3c0.2,0.2,0.5,0.4,0.7,0.6   c-3.6,2.7-7.9,1.6-12.3,1.9c-0.1,14.7-1.3,29,1.8,43.2c1.5,0.1,3,0.1,4.6,0.2c-0.1,0.5-0.2,0.9-0.3,1.5c-1.6,0.3-3.1,0.5-4.8,0.8   c-0.2,1.1-0.3,2-0.4,2.5c0.9,1.6,2.9,0.2,3.4,2.3c-1.1,0.3-2.2,0.6-3.5,0.9c0.1,0.9,0.2,1.7,0.3,2.2c2,0.8,4.6,0.4,5.7,1.8   c-0.4,0.3-0.8,0.6-1.2,0.9c0,0.7,0.1,1.4,0.2,2.7c-1.4-1.3-2.3-2.2-3.5-3.3c-3.5,7.6,0,17.6-0.5,26.1c1.3,6.5-3.4,12.2-1.3,18.5   c28.9,0.4,56.5,10.9,85.3,12.5c52,2.8,77.5-73.6,108.3-107.4c-33-33.4-66.2-67.3-90.5-108c-16.3,25.8-34.9,51-44.9,80.1   C525,305.2,524.3,305.6,523.7,305.9L523.7,305.9z M826.7,374.6c0.2,0.3,0.2,1,0.8,0.3c-2.2-2.4-3.4-4.6-7.4-3.9   C823.1,372.4,824.5,374.2,826.7,374.6z M72.1,381.2c0,0.3-0.1,0.5-0.1,0.8c-0.7,0.2-1.3,0.7-1.9,1.2l0,0   c-20.6,14.3-27.9,43.4-17.1,65.9c13.7,17.6,39,18,59.4,16.3c19.1-4.4,33.7-17.3,48.5-29.1c-5.2-12.8,0.9-33.6-16.5-37.6   c0-0.5,0-0.9,0-1.6c-9.7-7-19.9-14-31.7-16.8C101.6,377.7,81.8,371.9,72.1,381.2z M849.1,383.1c-3-1.5-6.4-0.3-10-2   c9.3,7.2,22.4,13.7,34.7,13c1.6-3.5,1.5-6.6-0.8-9.8C865.1,383.7,857,384.7,849.1,383.1z M626.1,292.5c7.3,6,12.2,14.6,19.6,20.1   c16.7-30.9,9.9-67.2,21.9-99.1c0.3,0.3,0.6,0.6,0.9,0.9c-4.5,25.7-7.3,57.8,16.7,75.6c12.4,11.8,53.7,51.5,47.9,68.1   c0.6,1.5,1.1,2.8,1.7,4.2c6.5,4.8,13.8,3.4,21.3,2.1c-1.4-6.4-4.8-12.5-4.6-18.8c4.5,4.3,3.9,12.8,9.4,17.2c7.2-1.5,17-7,21.5-12.1   c-25.6-32.1-24.8-49.4-35.8-87c-6.6-28-22.2-51.6-34.5-76.9c-2.5-18.4-18.8-29.4-26.4-45.6c-38.9-11.9-68.9,28.5-90.3,54.7   c-7.2,1.4-18.1,19.4-23.7,25.7C588.3,246.2,604.7,271.8,626.1,292.5z M725.1,363.8c-0.9,11.8-5,22.7-6.9,34.5   c-2.3,4.7,3,9.8-1,13.8c-5.1,5.8-2.6,14.3-7.3,20.6c20.6,5,43.2,6.9,64.3,6.7c33-7.8,131.2,23,114-41.2   c-12.6-1.2-25.6,1.2-36.8-6.9c-3.2,10.6-9.1,5.8-5.2-2.8c-1.9-0.9-3.6-2.1-5.8-2.2c-0.7,3.9-0.6,13.4-6.2,12.2   c-3.8-3.4,1.9-9.8,2.5-14.2c-1-1-2.4-1.4-4-1.7c0,5.8-3.9,18.4-8.7,10.8c1.3-4.4,2.7-8.8,4-13.3c-1.1-0.5-1.9-0.9-2.9-1.4   c-0.1,4.5-6,18.8-9.9,9.6c1.7-3.8,4.2-7.8,4.6-12.8c-1.4-0.8-2.8-1.6-4.4-2.5c-1.6,5-3.5,17.8-10.7,15.2c-0.9-6.9,4.7-13.1,5.1-20   c-7.7-6.6-13-15.4-20.3-22.6c-1.2,0.2-2.4,0.4-3.9,0.7c8.5,18.5-5.7,45-27.7,40.8c-10.2-1-13.8-13.3-22.2-18.1   c-3.9-2.3-4.9-6.4-6.6-10.3C726.4,359.5,725.6,361.6,725.1,363.8z M666.7,134.7c-9-8.5-19.9-5.5-30.8-2.8   c-11,2.3-14.2,13.4-21.9,20c-21.9,17.1-35.6,39.7-48.5,63.8c0.7,1.9,1.7,3.2,3.5,4.4c10.9-15.4,23.3-28.3,36.8-40.9   C619.7,157.5,643.1,142.8,666.7,134.7z M744.1,370.8c4.6,4.3,6.9,10.5,12.6,12.1c5.5-0.1,11.6,1.2,16.2-2.4   c6.3-3.2,15.3-18.9,10.6-25.1C769.3,366.5,764.6,368.1,744.1,370.8z M563.5,218.5c-8.3,10.5-50.5,78.3-42.4,87.1   c11.7-28.9,28.1-55.4,45.4-82.3C565.6,221.9,564.8,220.5,563.5,218.5z M516,306.6c-1-1.6-1-1.6-4.5-3.1c-1.8,1.2-3.2,2.8-3.7,5.4   C510.7,308.6,513.3,307.3,516,306.6z M54.2,337.8c-2.5-1.4-4.5-1.3-5.2,1.3c0.5,0.5,1.1,1.1,1.8,1.9C52,339.9,52.9,339,54.2,337.8z    M25.3,302.2c1.2-1.3,3.7-6.8,0.8-6.5C25.8,297.6,24.2,299.3,25.3,302.2z M53.8,353.6c2,0.8,3.5,2.6,5.2,2.1   C57.2,353.4,57.2,353.4,53.8,353.6z M61.7,339.8c-1.8-0.7-1.8-0.7-3.9,1.9c0.3,0.3,0.7,0.6,1.2,1C60,341.6,60.8,340.7,61.7,339.8z    M39.5,332.3c-2.3-0.1-3,1-3.7,2.3C37.7,335.3,38.7,334.5,39.5,332.3z M68.2,337.8c-0.2,0.2-0.4,0.4-0.6,0.6c0.8,0.9,3,3.7,3.3,0.9   C70,338.8,69.1,338.3,68.2,337.8z M810.7,365.6c-1.2-2.6-2.1-3-3-1.9C808.7,364.3,809.7,365,810.7,365.6z M23.1,314.2   c0.2-0.1,0.5-0.2,0.7-0.3c0-1.2,0.3-3.7-1.8-2.4C22.4,312.4,22.8,313.3,23.1,314.2z M57.3,271.2c-0.1-0.3-0.2-0.6-0.3-0.9   c-0.7,0.1-1.4,0.2-2.2,0.3c0.2,0.7,0.3,1.1,0.5,1.7C56.1,271.9,56.7,271.5,57.3,271.2z M64.7,358.4c0.3,1.1,2.1,2.1,2.3,0.6   C66.5,358,65.7,358.1,64.7,358.4z M817.7,368.4c-0.9-1-1.8-1.7-3.5-1.4C815.2,368.6,816.1,369.2,817.7,368.4z M42.4,321.4   c-1.1-0.8-1.4-0.9-1.8,0.3C41,322.5,41.6,321.9,42.4,321.4z" />
	<path display="inline" fill="#030202" d="M443.9,321.3c-6.2-0.7-11.9,2.4-17.9,0.3c1.5-0.1,3-0.3,4.5-0.4c-1.8-0.5-3.7-1.6-5.2,0.3   c-8.1-1.3-18.3-0.6-24.3-6.5c-22.9-5.1-47.5-3.5-70.8-1.6c-27.7-5.2-54.6-3.2-81.6,5.4c-18.8,4.6-34.6,17.1-52.9,22.4   c-0.3,3-1,5.8-3.7,7.5c-0.4-0.4-0.8-0.8-1.2-1.2c-0.1-2.3,2.5-4,1.7-6.6c-5.6-0.8-10-3.6-14.5-6.8c-1.5,2.6-2.6,5.4-4.4,7.7l0,0   c-1,0.2-1.1,1-1.1,1.7c-1.7,1.7-3.4,3.9-5.5,5.1c-0.4-0.4-0.8-0.7-1.2-1.1c0.6-0.7,1.3-1.3,1.9-2l0,0c0.3-0.3,0.6-0.7,0.9-1   c0,0,0,0,0,0c0.3-0.3,0.6-0.7,1-1l0,0c1.6-0.3,2.2-1.3,2.1-2.8l0,0c0.3-0.4,0.6-0.7,0.9-1.1c0,0-0.1,0.1-0.1,0.1   c5.5-12.3,7.9-15.3-3.4-24.4c-11.4-15.1-24.2-29.6-41.9-37.1l0,0c17.9-3.7,35.2,27.9,48,38.4c4.3,3.5,6.2,7.4,4.1,12.9   c12.7,15.6,29.1,3.1,43.2-3.5c17.1-7.5,34.8-14.7,53.7-16c29.3-7.5,59.3,3.2,89.3-2.4C392.5,307.9,416.9,319.9,443.9,321.3z" />
	<path display="inline" fill="#0E0A09" d="M602.1,466.5c-0.6-1.3-1.4-2.6-1.1-4.2c0.5,0.6,1,1.1,1.6,1.7c2.6,0.4,5.2,0.3,7.7-1.4   c-13.6-4.5-27.3-7.3-41.1-11c0-0.8,0-1.3,0-1.7c3-0.2,7.2,2.4,9.5,0c2.5,0.8,5.8,0.6,7.8,1.9c-0.4,0.1-0.9,0.2-1.9,0.5   c9.9,4.3,21.5,4.5,29.9,11.1c0,0.3,0,0.6,0,0.9C610.4,465.7,606.5,466.8,602.1,466.5z" />
	<path display="inline" fill="#15110F" d="M107.9,268.3c0.9,0,1.7-0.1,2-1.2c1.3,0.7,2.6,1.4,3.8,2.1c-1.8,0.3-1.8,0.3-1.1,2   c-9-1.2-3.4,12.9-10.3,13.1C100.1,277.8,105.3,273.6,107.9,268.3z" />
	<path display="inline" fill="#312824" d="M130,277c-1,0.3-2.5-0.4-3.1,1.1c-3.3,0.2-6.2-2.2-7.6-4.9c0.9-0.1,1.9-0.2,2.2-1.3   C124.5,273.4,126.8,275.9,130,277z" />
	<path display="inline" d="M121.5,271.9c-1.8,2.9-6.6,0.8-8.8-0.7C110.8,267.3,120.3,269.9,121.5,271.9z" />
	<path display="inline" fill="#E0DEE5" d="M192,348.5c2.7-1.7,3.4-4.5,3.7-7.5c18.3-5.4,34.1-17.8,52.9-22.4   c27-8.6,53.8-10.6,81.6-5.4c23.3-1.9,47.9-3.5,70.8,1.6c6.1,6.2,16.6,4.9,24.7,6.8c12.6,1,25.3,3.3,38.1,4.5c0.9,8.2,0,17.4,0,25.8   c-2,0.6-3.8,0-4.5,2.2c-9.1,2.2-17.5,5.2-27,6.2c-0.9,1-2,2.1-2.9,3.1c-1.6,6.7,5.4,6,8.5,9.1c2.7-0.7,2.6-3.9,5-4l0,0   c0.2,0.4,0.5,0.7,0.8,1.2c6.2-3.7,13.6-2.8,20.2-4.6c0.1,1.9-0.1,3.2,1.1,4.5c0,1.3,0,2.6,0,3.9c-2.3,2.3-0.3,7-1.1,9.8   c-34.3-0.1-69.5,2.4-103-4.6c4.1-3.6,5.2-8.9,0-12.1c-7.9,0.1-14.3,2.3-17.6,10.2c-4.3-0.5-8.6-1.1-13-1.6   c0.9-3.4,3.1-6.3,2.2-10.4c-0.8-0.8-1.9-2-2.6-2.6c-7.1-1.7-10.9,4.4-16.2,7.2c-9.6-3.2-19.2-1.6-28.9-1c3.4-3.5,6.8-6.3,9-10.5   c1.4-0.5,2.4-1.1,4-1c0.1-2.6,3.8-5.7,0.9-7.5l0,0.1c-1-2.5,1.8-7.1-0.7-8.5c-9.1,10.4-23.9,15.9-36.4,22.2   c-6.6,4.1-14.4-2.4-20.5,3c-4.5,2.2-8.3,4-9.8,9.3c-1.8-0.4-5.3-3.7-6-0.5c1,0.7,2.1,1.6,3.2,2.4c0.7,1.8,2.7,0.5,3.9,1.8   c2.7,5.3,8.1,7,13.4,8.9c4.5,4.3,8.1,8.6,14.5,9.9c0.7,12.2-2.2,25.2-6.7,36.4c-10-7.6-22.4,0.9-32.3,4.8   c-15.8-2.5-31.5-4.3-46.7-10.1c-6.4-4.3-7.3-12.9-13.7-17C146.2,386.1,177.9,367.3,192,348.5z M247.8,321.6c-2,1.3-2,1.3-2.2,3   c6.8-4.7,15.5-3.5,22.7-6.8C261.4,317.1,254.4,319.7,247.8,321.6z M300.8,320.6c0.5,0.8,1,1,1.9,0.1c-7-6.7-18.7-7.1-28.1-4.7   c2.3,0.7,3.8,0.9,5.1-0.3c6.2,0.2,12,2.2,18.2,2.8C298.5,319.8,299.4,320.5,300.8,320.6z M373.1,324.5c1.7,2,2.7,3,5,4.9   c-3.7-9.7-13.6-12.3-22-16.6c-0.5,0.6-0.9,1-1.2,1.4C359.4,319.3,367.2,321,373.1,324.5z M387.6,336.7c-2.4-2.5-4.8-5.1-7.3-7.8   c-0.5,0.4-1,0.9-1.5,1.4C380.1,333.4,384.4,339.6,387.6,336.7z M250.7,397.4c1.5-3.4-7.3-8.3-8.7-4.7   C244.3,395.1,247.5,395.4,250.7,397.4z M398.8,342.4c-2.5-2.5-5.1-3.9-7.9-5.6C390.4,340.4,395.4,343.2,398.8,342.4z M162.4,404.2   c0.4-2.2,2.2-4.2,1.4-6.9C160.7,396.9,158.3,405.2,162.4,404.2z M169.4,408.2c-1.6,2-2.4,3.7-1.3,5.9c2.2-1,3.6-3.7,2.7-5.3   C170.5,408.6,170.1,408.5,169.4,408.2z M400.4,341.4c1.8,1.6,3.2,3.3,5.9,3c-0.9-2.7-3.1-3.2-4.8-4.3   C401.2,340.6,401,340.8,400.4,341.4z M212.1,377.4c2.8,0.9,3.1,0.8,4.8-1.5C214.6,375.5,214.6,375.5,212.1,377.4z M237,393.1   c1.6,3.3,2.2,4.1,5.3,3.6C240.9,394.8,239.7,393.5,237,393.1z M300.1,330.2c1.2-2.9,1.2-2.9-0.9-4.2   C298.8,327.3,298.5,328.6,300.1,330.2z M416.6,346.1c-1-2.9-1.8-3.2-4.8-1.8C413.2,345.6,414.8,345.5,416.6,346.1z M167.6,392.3   c1.9-1.4,3-2.4,3-4.2C168.9,388.6,168.9,388.6,167.6,392.3z M175.3,403.8c-0.8-1-2.3,0.1-1.4,1   C174.9,405.3,175.2,404.6,175.3,403.8z" />
	<path display="inline" fill="#B28C7D" d="M618.4,284.7c-17.5-19.3-32.2-41.5-46.6-63c5.7-6.3,16.4-24.2,23.7-25.7   c21.3-26.2,51.4-66.6,90.3-54.7c7.7,16.2,23.9,27.3,26.4,45.6c12.4,25.3,28,48.9,34.5,76.9c11,37.6,10.2,54.9,35.8,87   c-4.5,5.1-14.3,10.6-21.5,12.1c-12.4-16.8-15.5-39.9-27.9-56.2c1.7,4.5,1,8.9,1.1,13.3c-8.9-6.5-9.2-20.8-19.3-26.1   c-14.4-8.7-26.8-20.2-36.1-34.3c-6.2-11.6-4.7-26.2-3.1-38.8c0.6-8.1,6.9-17.3,1-24.4c4.8-5,10.4-9.3,9.2-16.9   c-1.5-1.8-2.9-3.3-4.1-4.8c-10.1,1.4-14.6,11.3-21.9,17.1c-9,7.9-12.5,18.5-15.1,29.5C634.1,241.6,624,262.5,618.4,284.7z    M666.6,149.7c1.4-1,6.8-2.3,4-4.5c-3.4,0.8-7.9,3.8-8.9,7.5C663.8,151.5,665.2,150.6,666.6,149.7z M678.3,159.2   c3.8,2.6,8.6,5.8,13.2,5.6c1-5.2-2.3-7.7-5.4-10.2c-2.8,0.3-5.4-0.7-7.8,0.6C678.3,156.3,678.3,157.4,678.3,159.2z M687.1,199.8   c0.3,4.7,9.7,8.1,13.8,10.7C703,207.1,689.9,200.1,687.1,199.8z M701.8,175c3.3,4.3,5,7.4,6.7,12.2   C712.6,184.6,706,173.9,701.8,175z M700.6,216c3,2,5.3,5.9,8.7,6.6c0.6-3.9-3.6-7-6.9-8.1C701.3,215,701.3,215.1,700.6,216z    M714.5,232.3c0.5-3.4-0.6-4.9-5.3-7c-0.3,0.4-0.5,0.7-0.9,1.2C710.1,228.6,712,230.7,714.5,232.3z M774.8,348.9   c0-2-3.9-9.5-5.9-7.4C769.9,344.4,771.9,346.5,774.8,348.9z M653.5,161c2.5-1.5,3.5-4,5.4-6.9C654.9,154.2,654.9,156.6,653.5,161z    M716,234.5c-2.2,1.5,0.4,5.1,2.4,3.5C717.6,236.9,716.9,235.9,716,234.5z M697.4,173.8c-0.8-2.4-2-3.6-4.3-3.8   C694.5,172.8,694.5,172.8,697.4,173.8z M721.4,249.8c-1,1.4-1.1,2.3,0.2,3.1C722.9,251.9,722.7,251,721.4,249.8z M765.3,332.6   c-1,0.9-0.1,2.8,1.2,1.8C767,333.3,766.4,332.7,765.3,332.6z M719.4,245c0-0.7,0-1.5,0-2.4C717.9,243.3,717.5,244,719.4,245z    M688.4,168.3c-0.8,0.8-0.3,1,0.4,1.5C689.6,169.4,688.8,168.8,688.4,168.3z M762.1,326.2c-0.2-0.2-0.4-0.3-0.6-0.5   c-0.3,0.6-0.4,0.9,0.2,1.3C761.9,326.7,762,326.4,762.1,326.2z" />
	<path display="inline" fill="#544492" d="M498.6,431.4c-10-3.9-20.6-2.7-31.2-3.8c-2-6.3,2.7-12,1.3-18.5c0.6-8.5-3-18.4,0.5-26.1   c1.2,1.1,2.2,2,3.5,3.3c-0.1-1.3-0.1-2-0.2-2.7c0.4-0.3,0.8-0.6,1.2-0.9c-1.1-1.5-3.7-1.1-5.7-1.8c-0.1-0.6-0.2-1.3-0.3-2.2   c1.3-0.3,2.4-0.6,3.5-0.9c-0.5-2.1-2.5-0.7-3.4-2.3c0.1-0.6,0.2-1.4,0.4-2.5c1.7-0.3,3.2-0.6,4.8-0.8c0.1-0.6,0.2-1,0.3-1.5   c0.9-0.5,1.9-1.1,2.9-1.6c0.1-1.2,0.2-2.3,0.2-3.4c1.9,4.1,0.2,9.4,2.6,13.8c0.8-4.4-0.4-8.5-0.6-12.8c0.3,0,0.6,0,0.8,0l0,0   c0.6,1.2,1.3,1.2,1.9,0c1.4-0.3,2.7-0.6,4.1-0.8c2.7,4.5,11-2.5,15.2-3c3.4,1.7,7.3,0.8,10.5,3.7c-7.1,9.9-21.4,9.3-31.5,15   c-0.1,1.8-0.2,2.8,0.4,4.4c7.9-1.3,40.7,1.2,43.1-4.7c1.9-2,4.9-3.4,7.2-5.2c2.3,5.7,3.4,11.4,10.5,12.1c0.9,1.5,1.3,2.1,2.7,3   c1.4-8.4-11.4-11.8-6.2-22.6c0.1,1.2,0.3,2.5,0.4,4.1c4.7-2,8.6-4.6,12.2-7.7c0-0.7,0-1.4,0-2c3.6,5.5,5.4,13.3,11.4,17   c0.7-0.5,1.4-1,2.3-1.6c-2.9-6.2-5.9-12.1-8.9-18.2c6.1-0.6,3.4-8.4,4-12.6c0.7,1.5,1.5,2.9,2.4,4.9c1.1-3.3-1.1-6.1-0.6-9.6   c0-0.4-0.5-0.7-0.8-1.1c0-4.4-1.2-9,0-13.3c1.6-1.4,3.1-2.7,4.7-4.1c0.3,8.8,0.7,17.5,1.6,26.2c9.9-7.1,4.6-22.1,6.8-32.4   c-0.5-0.1-0.9-0.2-1.4-0.4c1-2.2,1.8-4.2,3.2-6.3c1.9,3.8,1.4,13.1,5.3,14.3c-1-13.2-10.9-25.4,3.7-34.3   c0.8,11.2-1.8,20.8-0.5,32.8c5.6-6.3,12.5-11.7,16.9-18.9c0.1-5.8,0.9-9.3,2.2-10.7c1.2,0.7,0.3,3,2.6,3.2c2.9-4.6,6.4-8.9,8.7-14   c17.5,14.9,30.5,33.6,47.5,48.9c-23.8,31.2-43,65.6-69.8,94.6c-23.4,22.3-56.9,8.7-84.8,6c0.3-0.7,0.5-1.3,0.8-2   C504.9,428.7,500.6,428.6,498.6,431.4z M588.4,422.7c0.8-1,2.2-1.4,1.9-2.9c13.7-27.6,14.8-60.5,19.3-90.7c0.3-0.1,0.5-0.1,0.5-0.5   c-5.3,5.4-2.6,19.5-5.3,26.8c-1.4,22.1-8.7,43.3-14.5,64.4c-1,0.3-0.9,1.1-1,1.9c-0.5,0.5-1,1-1.3,1.6   C588.2,423.2,588.3,422.9,588.4,422.7z M472.5,408.1c-1.9,0-2.4,1.8-0.9,3c0.8-0.8,1.3-1.3,1.9-1.9c1.6,0,6-1.6,4-3.7   C476.2,407.5,474.1,406.7,472.5,408.1z M578.7,388c-1.3,1.9-5.6,11.4-3.4,12.4c6.9-20.3,17.5-39.3,24.6-59.1   C590.9,356.1,584.8,371.9,578.7,388z M613.6,395c0.2,0.1,0.4,0.2,0.6,0.2c10.2-27,5.7-56.3,13.7-83.8c-6,7.2-4.9,17.1-5.9,25.7   C620.5,356.6,618,375.9,613.6,395z M484.7,391.7c5,2.8,24.5,13,28.6,7.6C504.7,397.1,493.1,389.9,484.7,391.7z M527.5,388.6   c-0.9,11,10,26-4.4,31.9C537.3,422.6,532.8,394.8,527.5,388.6z M487,406.5c3.3,2.1,7.9,3,10.3,0.4C495,405.2,488.1,404,487,406.5z    M524.3,409.3c0.7-5.1,0.6-9.4-0.3-13C522.3,400.5,521.7,405.6,524.3,409.3z M473,423.5c-1.1-0.1-2.2-0.2-3.5-0.3   c-0.2,0.6-0.3,1.3-0.6,2c2.1,0.4,3.8,0.6,5.6-0.1c-0.3-1.7,1.5-3.1,0.3-5.4C474.1,421.1,473.7,422,473,423.5z M521.5,431.2   c-4.7-1.8-4.8-2.8-7.7-0.2C516.7,431.5,518.9,431.8,521.5,431.2z M606.2,309.5c-0.3,2.1,0.3,3.7,2.1,5   C609.4,311.9,606.7,311.1,606.2,309.5z M474.9,418.7c0-0.2,0.1-0.4,0.1-0.5c-0.9-0.3-1.9-0.7-2.9-1.1c-0.1,0.7-0.2,1.1-0.3,1.6   C473,418.7,473.9,418.7,474.9,418.7z M476.1,392.5c-0.3-1.2-2.2-2.1-2.3-0.6C474.4,393,475.1,392.8,476.1,392.5z M476.2,401.2   c-0.5-1-1-1.5-2.1-1.3C473.1,401.1,475.1,401.8,476.2,401.2z" />
	<path display="inline" fill="#B28C7D" d="M569.1,449.8c0,0.5,0,0.9,0,1.7c13.8,3.8,27.5,6.5,41.1,11c-2.5,1.8-5,1.8-7.7,1.4   c-0.5-0.6-1.1-1.2-1.6-1.7l0,0c-8.7-3.3-20-2.4-29-6.9c-3.1-0.8-17.1-4.5-17.9-1.3c11.2,2.8,24.3,5.5,34,10.1   c-19.6,1-37.8,0-57-3.9c-8.5-0.6-15.5-8.3-23.9-8.5c-3.5-2.2-7.5-0.1-11.3,0c-1.8,0.1-3.8-0.7-4.9,1.1c0,0.2,0.1,0.5,0.1,0.7   c-1.8-1-3.8-0.9-5.8-0.8c-0.7,0.6-1.4,1.1-2.2,1.8c-1.8,0-3.8,0-5.6-0.2c-2.3-2-3.7,0-5.2,1.3c-20.7-0.5-41.5,5.6-61.7,4.3   c0.2-0.4,0.4-0.8,0.8-1.5c-2.8,0.4-6.1-0.9-8.3,0.8c-1.3,0-2.6,0.1-3.8,0.1c-2.1-4.7-7.4-3.3-10.6-5.8c0.5-0.5,1-0.9,1.8-1.6   c-2.2,0.3-3.9,0.4-5.6,0.6c-0.7,0.6-1.3,1.2-2.2,2.1c-1.5-0.3-3.2-0.6-4.9-0.9c-4.5,2.4-10.7-0.9-15.1,1.6   c-12.6,9.8-38.9-4.2-53.8-6.6c-5.1,2.2-3.7,3.7-3.6,7.7c-9.5-0.1-17.1,1.6-26.8-0.1c6.5-6.8,14-12.1,13.1-22.2   c-1.3-1.3-3.2-1.2-3.2,1.1c-1,0.2-2.3-0.5-2.9,1l0,0c-6.7,0.1-30.9,20.4-36.7,17.3c10.7-16.3,14.7-35.1,15.9-54.5   c24.7-1,49.7,5.7,72.5,15.3c-0.4,0.7-0.7,1.5-1.2,2.5c37.5-2.9,75.9-0.5,112.2,11.7c28.4,5.4,60.2,5.6,87.7,13.9   c12.4,2.9,25.4-0.4,36.3,5.3C571,448.5,570,449.1,569.1,449.8z M367.3,438.1c-8.3,1.4-28-2.9-28.9,8.8c0.2,2.8,2.2,5.3,5,5.6   c10.1,0.5,25-3.5,28.7-13.7C370.7,438.1,368.6,436.1,367.3,438.1z M515.3,447.2c-3-0.5-5.4-0.9-8.1,1.5   C510.2,448.6,512.8,450,515.3,447.2z M425.5,455.6c-4,0.4-6.3-1.3-8.8,1.6C419.8,457.7,422.2,457.4,425.5,455.6z M403,449.1   c-2.4-0.3-4.4-0.5-6.7,1.8C399,450.5,401.3,451.7,403,449.1z M334.5,416.3c-2.6-1.2-4.3,0.8-6.3,1.3   C330.4,418,332.7,419,334.5,416.3z M407.3,448.5c2,0.4,3.9,0.9,5.3-1.5C410.6,446.9,408.7,446.1,407.3,448.5z M428.2,455.4   c2.6,0.4,4.5-0.4,7.3-1.5C432.4,453.4,430.2,452.8,428.2,455.4z M385,431.5c-2.4-0.3-3.9-0.5-4.8,1.5   C382,433.8,383.3,433.3,385,431.5z M376.2,434.4c-2-0.2-3.4-0.5-4,1.5C373.8,436.8,374.9,436.1,376.2,434.4z M550.3,450.3   c-1.9-1-3.8-0.8-5.8,0.1C546.5,450.5,548.4,451.3,550.3,450.3z M302,433.7c1.1,0.8,2.1,0.8,3.4,0.1   C303.1,431.8,303,431.9,302,433.7z M415.7,445.6c2.1,0.6,3.6,0.6,4.6-1.2C418.4,443.4,417.4,444.6,415.7,445.6z M299,432.5   c-1,0-1.8,0-2.9,0C297.8,434.2,297.8,434.2,299,432.5z M315.7,419.7c0.1-0.2,0.1-0.4,0.2-0.6c-0.4-0.2-0.9-0.3-1.3-0.5   C314.1,419.6,315,419.4,315.7,419.7z M322.3,419.8c1.2-1.3,0.1-2-0.8-0.6C321.7,419.4,321.9,419.6,322.3,419.8z M540.7,449.8   c-1.7-1.2-2.4-1.4-3.3-0.2C538.4,449.7,539,449.7,540.7,449.8z M310.2,434.1c0-0.1,0-0.3,0-0.4c-0.5,0-0.9,0-1.4,0   c0,0.1,0,0.3,0,0.4C309.3,434.1,309.8,434.1,310.2,434.1z" />
	<path display="inline" fill="#B28C7D" d="M112.6,271.2c1,0.6,2,1.2,3,1.8c0,0.4-0.1,0.7-0.1,1.1c-7.3,0.9-5.7,10.7-7.6,16.2   c4.1,3.4,4.5-2.6,7.7-4.2c-1-0.2-1.5-0.4-2-0.5c2.6-1.4,4.2-3.7,5.4-6.2c-0.2-0.6-0.4-1.2-0.5-1.8c0.5-0.9,2.1-1,1.9-2.5l0,0.1   c2,1.4,3.8,3.4,6.6,3c17.7,7.6,30.5,22,41.9,37.1c11.7,9.3,8.5,11.6,3.4,24.4c0,0,0.1-0.1,0.1-0.1c-0.3,0.4-0.6,0.7-0.9,1.1l0,0   c-1.2,0.6-1.9,1.5-2.1,2.8l0,0c-0.3,0.3-0.6,0.7-1,1c0,0,0,0,0,0c-0.3,0.3-0.6,0.7-0.9,1l0,0c-18.2,17.4-45.2,27.5-69.3,19.4   c-0.7,0.6-1.3,1.2-2,1.8c-2.7-1.9-5.4-3.9-9.1-3.3c-1-0.2-1.9-2.8-3.4-2.4c-1.2-0.8-2.5-1.2-4-1c-1-1-2.4-1-3.8-1.1   c-0.1-0.3-0.2-0.6-0.2-0.9c0.8-1.5,1.7-3,2.6-4.8c-1.8-2.8-4.9-6.2-2.5-9.7c-6.2-8.2-12.1-16.4-20.3-23c-0.8,0.1-1.9,0.2-3.2,0.4   c-1.2-1.1-2-3.2-3.9-3.5c-6.2-1.5-4-8.2-7.1-11.9c1.4-13.4,10.1-26,19.3-34.8c1-6.1,8.1-6,12.5-8.3c10.9-5.5,24.1,1.4,34.7,6.1   c-2.5,5.3-7.8,9.4-5.6,16C109.2,284.1,103.6,270,112.6,271.2z M118.5,320.2c-0.8-1.1-1-2.7-2.6-3.2c-1.3,6.6,9.2,5.7,9.3,0   c-1.8,1.1-2.8,1.8-3.8,2.5c-0.8-0.1-1.6-0.1-2.1,0.8C118.9,320.3,118.7,320.3,118.5,320.2z M93.3,308.9c-0.3,0.3-0.7,0.6-1,0.9l0,0   c-3.9,4.1-6,13.8-1.9,18.2c0-1,0-1.9,0-2.8c2.5-1.3,3.2-3.3,2.1-5.8c3.6-1.2,7-4.9,5.5-8.6c0.1-0.3,0.2-0.6,0.2-0.9   c0.8-0.3,1.7-0.4,2.6-0.5c-0.1-1.4-0.2-2.5-0.3-3.9C97.6,306.6,95.5,307.1,93.3,308.9z M137.7,328.2c-2.2,2.4-1.5,5.3,1.2,7.1   c1.1-1.6,1.9-2.9,2.8-4.2c1.6-0.7,3.1-1.3,4.7-2c-0.1,0.9-1.8,1.8-0.1,2.7c2.4-1.1,2.4-1.1,3.5-2.7c-1.2,0-2.3,0-3.4,0   c0.6-1.3,1.8-0.9,2.9-1c7.4-1,13.9-9.8,10.6-17.4c0-2.7-4.3-2.6-3.9-5.8c0.2-1.2-0.1-2.2-1.2-2.5c-5.8,0.9-13-0.1-14.2,7.3   C138,315.6,134,321.7,137.7,328.2z M79.6,323.7c1.1-8.2,4.3-14.6,11-19.2c4.2-2.3,5.3-9.1-0.9-4.9   C84.9,306.7,73.7,313.5,79.6,323.7z M138.6,294.6c-2.4-1.6-5.2-4.6-8.1-2.2c-3.1,1.9-7.1,0.6-10.6,1.1c4.3,3.1,8.6,2.5,12.7-0.2   c5.1,1.5,3.6,6.1,6.6,5.8C139,297.6,138.8,296.3,138.6,294.6z M132.3,309.3c4.4-1.1,2.2-6.4,3.4-9.4c0.5-1.1-0.1-1.8-1.3-2.1   c-2.8,2.4-0.6,7.4-2.4,10.6C131.8,308.6,132.1,309,132.3,309.3z M78.4,281.1c4.4-2.7,6.1-4.8,6.7-8.1   C81.7,274.4,80.1,277.1,78.4,281.1z M129.1,309.7c-2.9-2.3-6.3,4.8-4.3,7.3C127.7,315,126.7,311.9,129.1,309.7z M117.4,287.2   c3.1,0.6,6.4-4.1,5.7-7C121.1,282.6,118.9,284.6,117.4,287.2z M98.6,319.9c2.8-1.7,4.1-4.3,4.3-8C99.6,313.8,99.4,316.9,98.6,319.9   z M77.7,284.3c-1.7-1.8-4.5,1.4-2.8,3.2C76.3,286.8,77.6,286.1,77.7,284.3z M79.9,329.8c0.1-2.5,0.5-4.1-1.8-5.2   C77.7,326.4,77.4,328,79.9,329.8z M73.2,290.5c-1.3-1.2-2.5-0.4-1.3,0.9C72.2,291.1,72.6,290.9,73.2,290.5z" />
	<path display="inline" fill="#B1B6B7" d="M725.1,363.8c0.5-2.3,1.2-4.3,3.8-5.3c1.7,3.9,2.7,8,6.6,10.3c8.5,4.7,12,17.1,22.2,18.1   c22,4.1,36.3-22.3,27.7-40.8c1.5-0.3,2.7-0.5,3.9-0.7c7.3,7.3,12.5,16,20.3,22.6c-0.4,7-6,13.1-5.1,20c7.2,2.6,9.1-10.2,10.7-15.2   c1.6,0.9,3.1,1.7,4.4,2.5c-0.3,5-2.9,8.9-4.6,12.8c3.9,9.2,9.8-5.1,9.9-9.6c1,0.5,1.8,0.9,2.9,1.4c-1.4,4.5-2.7,8.9-4,13.3   c4.8,7.6,8.7-4.9,8.7-10.8c1.6,0.3,3,0.7,4,1.7c-0.6,4.4-6.3,10.8-2.5,14.2c5.6,1.2,5.6-8.3,6.2-12.2c2.2,0.1,3.9,1.3,5.8,2.2   c-3.9,8.6,2,13.3,5.2,2.8c11.1,8,24.2,5.7,36.8,6.9c11.5,26.9-22.2,30.1-40.8,32.7c-19.2,2.6-41.6,8.6-57.2-5.4   c-10.9,3.6-20.7,10.9-32.7,8.8c-11.5-3.3-25.3,1-35.6-5c1-11.3,2.6-22,4.3-33.2c0.1-10.6,8.2-20.8,2.7-31   C728.1,364.8,726.6,364.3,725.1,363.8z" />
	<path display="inline" fill="#6D5CA9" d="M485.4,365.9c-2,0.4-4,1-6,0.8l0,0c-0.1-1,0.4-2.3-0.9-2.9c0.1-4.6,0-9.1-1.1-13.6l0,0   c3.4-7.3,4.3-17,3.3-24.9c-0.5,0-0.9,0-1.4-0.1c-0.2-0.2-0.5-0.4-0.7-0.6c0.2-0.2,0.5-0.4,0.7-0.6c2.6,0.1,2.6,0.1,3-1.8   c1.5-0.3,3.3,0.2,3.8-2c0.8-1.9,2.8,0.9,3.7-1c-0.3-0.9-0.9-1.6-1.8-2c0.9-3.5,3.9-4.8,6.4-6.6c5-0.4,5.8-0.3,9.7,1.3   c-4.9,3.2-10.7,7.2-13.6,12c2.1,0,3.2-1.3,4.3-2.7c4.4-1,7.7-3.9,12.1-5.8c0.1-0.6,0.3-1.5,0.5-2.5c6.9-6.7,13-1.6,15.1-6.3l0,0   c0.3-0.3,0.6-0.7,1-1l0,0c12.9-26.6,29-55.8,46.8-81.3c12.3,21.3,28.3,39.6,43,59.2c-2.3,5.1-5.8,9.4-8.7,14   c-2.3-0.1-1.4-2.4-2.6-3.2c-1.4,1.3-2.1,4.9-2.2,10.7c-4.4,7.1-11.3,12.5-16.9,18.9c-1.3-12,1.3-21.6,0.5-32.8   c3.9-5.2,12-10.9,10-18.1c-2.7,5-4.5,9.8-9,13.4c-0.6-0.2-1.1-0.3-1.6-0.5c-1-5.1,0.2-10.7-3.8-14.7c-2.4,4.3-4.2,14.6-4.3,19.5   c0.1,1.2,0.6,2.6-1,3.4c-0.4-1.8-0.8-3.6-1.3-5.4c-1.7,10.3,3,24.7-7.5,31.3c-0.6-0.2-1.1-0.3-1.8-0.5c-0.1-8.2,0.1-16.2-1.8-24   c0.7,13.1-6.4,23.1-6.1,35.9c-3.6,3.2-5.4,7.6-8,11.4c-0.5-0.2-1-0.4-1.4-0.6c-1.8-4.2-4.4-8.1-5-12.8c1.1-0.6,2-1.1,3.2-1.7   c-14.5-2.3,2.4,19.8-0.1,27.1c0,0,0,0,0,0c-0.8,0-1.5,0-2.8,0c0,4.2-2.1,7.5-4.8,10.5c-2.4-9.6,1-20.5-2.6-29.1   c-2.8,12.6-4.5,24.6-4.3,36.9c-12.8,14.2-33.7,6-50.2,10.7c0-0.8,0.1-1.6,0.2-2.6c10.1-5.7,24.4-5.1,31.5-15c-3.1-2.8-7-2-10.5-3.7   c0.2-0.6,0.4-1.1,0.6-1.6C496.5,358.5,489.8,363.7,485.4,365.9z M490.9,345.5L490.9,345.5c5.7-2.6,11.9-7.4,13.3-13.7   c-1.6-1.8-3.2,0.4-4.5-0.7c1.5-2.3,7.5-4.5,6.1-7.4C472.8,337.3,492.1,369.9,490.9,345.5z M524.2,351.5c-4.3,1.3-8.1,23.8-3.9,26.6   c0.8-0.4,1.4-0.8,2.3-1.2C522.5,368.8,529.3,358.3,524.2,351.5z" />
	<path display="inline" fill="#D5D2DC" d="M245.8,388c-5.3-1.9-10.8-3.6-13.4-8.9c-1.3-1.2-3.2,0.1-3.9-1.8c1.1,0.1,2.3,0.1,3.6,0.2   c-0.3-0.9-0.6-1.5-0.8-2c1.6-5.3,5.3-7.1,9.8-9.3c6-5.4,13.8,1.1,20.4-3c12.3-5.7,25.5-11.8,35.4-20.6c0,1.5-0.2,3.5,1.9,2.9   c0.2,1.4-1.1,2.7-0.2,4.1c-2.2,2-3.1,4.5-2.5,7.4c-0.8,0.3-1.6,0.6-2.4,1c0.1-0.9,0.1-1.7,0.3-3.4c-2.4,2.9-4.4,3.7-5.6,6.6   c1,0.3,1.9,0.6,2.7,0.9c-2.1,2.1-4.2,4.2-6.4,6.5c9.7-0.6,19.3-2.3,28.9,1c5.3-2.8,9.1-9,16.2-7.2c0.7,0.7,1.8,1.8,2.6,2.6   c0.9,4.1-1.3,7-2.2,10.4c4.4,0.5,8.8,1.1,13,1.6c3.3-7.9,9.7-10.1,17.6-10.2c5.3,3.2,4.1,8.5,0,12.1c33.5,6.9,68.7,4.4,103,4.6   c0.8-2.9-1.2-7.6,1.1-9.8c0.3,13-0.7,25.9,0.9,39c-3,3.7-0.9,10-3.7,13.3c-0.1-0.9-0.2-1.8-0.3-2.7c-7-1.6-12.5-1.2-19.7-2   c-0.4,0.3-1.3,0.9-2.2,1.5c-23.2-7.9-47.3-11.7-71.9-11.1c-13.2-0.1-25.7,5-37.2-4.4c2.4-1.3,3-0.9,5.2-3.3c-3.8,0.6-6.3-0.2-9,1.6   c-22.9-11.4-47.6-10.6-72.2-14.7c2-2.6,4.3-4.4,6.4-6.1c0.3-1.2-0.1-2.8,1.6-3.2c0.7,0.3,1.4,0.6,2.3,0.9c0.8-0.7,1.7-1.4,2.7-2.3   c4.4,1.7,8.3-4,8.7-7.8c-10.1,2-18.2,8.4-27.9,10.9c-7.8-7.4-7.9-6.7-14.8-7.8C238.2,380,242,384,245.8,388z M317.8,390.4   c-1.9-0.4-3.3-1-4.2,0.8C315.1,391.9,316.2,392.1,317.8,390.4z M341.5,395.7c-0.5-1.1-0.8-0.7-1.6-0.3   C340.3,396.3,340.7,396,341.5,395.7z M338.5,399.8c-0.9-0.6-1.7-0.5-2.7,0.4C336.8,400.5,337.6,401.4,338.5,399.8z M344.9,392.2   c-0.6-0.3-0.9-0.4-1.2,0.2C344.2,392.8,344.6,392.8,344.9,392.2z M313.3,394.3c-0.6-0.7-1-0.4-1.5,0.1   C312.3,394.8,312.8,394.8,313.3,394.3z" />
	<path display="inline" fill="#2D8FB9" d="M144.4,398.7c3.8-0.5,5.9,3.8,8.7,5.8c-0.6,0.5-1.1,1-1.8,1.6c1.7,2.1,1.7,4.8,3.5,6.9   c2.4-2.1-1.7-4.4,0.2-6.4c4.7,8.9,1.7,20.3,5.9,29.8c-14.8,11.8-29.4,24.8-48.5,29.1c-20.4,1.7-45.7,1.2-59.4-16.3   c-10.8-22.5-3.4-51.6,17.1-65.9c6.8,3.7,15.7-4.5,22.9-4.2c0-0.1,0-0.3,0-0.4c-1.2-0.2-2.4-0.3-3.6-0.5c1-0.4,1.9-0.9,2.9-1.5   c4.2,0.6,8.4,1.2,12.5,1.9c0,0.2,0,0.5,0,0.7c-1.9,0.5-4.2-0.5-6.1,2.2c4.1,1.1,8.1,0.8,11.9,1.8c10.6,6.7,18.9,16.7,27.2,26.1   c1.9,1.8-0.1,5.2,2.7,6.5c0.3,0.8,0.7,1.6,1,2.4c-0.6,0-1.2,0.1-1.9,0.1c0.6,8.6,2.1,16.2-0.9,24.6c5.6-4.5,4.6-13.5,5-20.1   c2.1-0.6,3.3-2.7,5.5-2.9c0.8,3.1-1.6,10,1.6,11.2c0.9-3.6,0.6-7.2,0.1-10.9c-0.7-0.1-1.1-0.2-1.6-0.3c-0.2-4-2.7-7.4-2.9-11.4   l0.3-0.3c0.5-0.1,1.1-0.2,1.6-0.2C147.6,404.3,146,401.4,144.4,398.7L144.4,398.7z M90,391.5c-4,3.8-6.6,13.3-3.8,18.1   C88.2,403.3,88.4,398,90,391.5z M96.4,433.1c1.8,4.3,5.4,14.9,10.2,15.2c-2.7-3.3-4.8-7-6.7-10.9C98.9,435.9,99.1,433.5,96.4,433.1   z M110,434.9c1.8,3.9,6.1,10.3,7.8,11.7c0.2-2.3-0.2-3.4-4-8.6C112.9,436.7,112.4,434.7,110,434.9z M60.8,405.6   c4.7,3.8,7.4,4.1,12.7,5.6C69.5,408,66.5,406.6,60.8,405.6z M61.7,428.9c4.3,0.3,9.2-0.3,13.6-0.6C70.7,427.6,66.2,427,61.7,428.9z    M99.6,387.4c-2.3,1.7-3.7,3.9-3.1,7.4C98.7,392.5,98.9,389.9,99.6,387.4z M94.7,424.8c-1.7,2,1,6.3,3.2,4.2   C96.9,426,96.9,426,94.7,424.8z M116,416.7c3.8-0.3,6.9-2.1,7.6-4.7C120.8,413.3,118.1,414.3,116,416.7z M84.4,445.5   c1.6-1.9,2.7-4.2,1.9-7.2C83.6,440.2,85.3,443.2,84.4,445.5z M105.8,392.6c-0.3,1.8,0.3,2.1,2,1.8   C107,393.7,106.5,393.2,105.8,392.6z" />
	<path display="inline" fill="#977264" d="M749.6,342.6c0.6,1,1.2,2,2,3c-0.1,6.4,3.2,12.4,4.6,18.8c-7.5,1.2-14.8,2.7-21.3-2.1   c-0.6-1.4-1.1-2.7-1.7-4.2c5.9-16.3-35.7-56.5-47.9-68.1c-28.4-22.1-20.9-62.4-11.3-92c-20,34.9-9.2,78.8-28.3,114.6   c-7.4-5.5-12.3-14.1-19.6-20.1c3.5-3.5,4.2-10.3,4.6-15.2c-2.5,4.2-6,8.4-6.6,13.3c-1.9-1.9-3.8-3.9-5.7-5.8   c5.6-22.2,15.7-43.1,26.3-63.5c2.5-11,6.1-21.6,15.1-29.5c7.3-5.8,11.8-15.7,21.9-17.1c1.2,1.4,2.6,3,4.1,4.8   c1.2,7.6-4.4,11.9-9.2,16.9c7.9,10.3-10.7,41.2,2.1,63.3c9.4,14,21.8,25.6,36.1,34.3c10.1,5.3,10.4,19.6,19.3,26.1   c0-4.4,0.6-8.8-1.1-13.3c7.6,8.4,10.5,21.7,15.5,32.3c-0.6,0.1-1.1,0.2-1.9,0.4c0.2,2.5-0.7,4.9,1.2,6.9   C749.8,345.6,749.4,343.9,749.6,342.6z M650.2,226.8c-1.3,2-0.8,4.5-0.9,6.7c-3.5,1.9-2.9,7.2,0,9.5c2.6-2.6-2-5.3,0.9-7.5   c0.5,0.2,0.9,0.5,1.7,0.8c0.6-3.8,0.9-7.1-0.4-10.7C650.8,226.3,650.5,226.6,650.2,226.8z M662.9,202.5   c5.1-4.2,12.3-11.7,14.2-14.8c-8.6,0.5-15.2,16.1-22.7,20.8c-1.1,5.7-4.7,11.1-0.2,15.8C655.9,216.3,661.2,210.1,662.9,202.5z    M706,305.4c-0.9-2.1-3.1-5.7-5.5-4.5C701.5,303.3,703.3,304.8,706,305.4z M707.3,301.9c1.3,3.8,2.1,5.4,6.1,4.9   C711,304.9,710.1,302.9,707.3,301.9z M742.2,331.1c-1.1,2.7-0.6,4.1,1.9,5.8C744,334.8,743.6,333,742.2,331.1z M647.1,253.7   c0-1.3,0-2.7,0-4.2C645.2,251.3,645.2,251.3,647.1,253.7z M645.7,257.2c-0.3,1.3-1.1,2.7,0.9,3.4   C647.6,259,647.5,257.9,645.7,257.2z M738.7,326.4c-0.2,0.1-0.5,0.2-0.7,0.3C737.3,330.2,741.3,328.8,738.7,326.4z M716.9,304.2   c-0.9-0.7-1.1-1.3-1.9-0.5C715.5,304.8,715.6,305,716.9,304.2z" />
	<path display="inline" fill="#977264" d="M403.1,459.3c2.2-1.7,5.5-0.4,8.3-0.8c-0.4,0.6-0.6,1-0.8,1.5c20.3,1.2,41-4.8,61.7-4.3   c1.5-1.2,2.9-3.3,5.2-1.3c-0.9,0.2-1.8,0.3-3,0.5c2,1.2,3.6,2.3,5.7,1.1c0.1-0.5,0.1-1,0.2-1.4c1,0,1.9,0,2.7,0   c0.8-0.7,1.5-1.2,2.2-1.8c0.1,0.5,0.1,0.9,0.2,1.4c1.1,0.5,2.1,0.4,3.2,0.1c0.1-0.6,0.1-1.1,0.2-1.6c4.8,1.8,10.5,1.5,15.4-0.1   c0.7,0.6,1.2,1.1,2.1,1.8c0.3-1.1,0.6-1.9,0.8-2.7c8.5,0.1,15.5,7.9,23.9,8.5c6.2,0.7,13.5,1,18.7,4c-15.3,1.9-23.7,1.5-38.9-4.2   c-7-9.1-19.1,1.8-28.2,2c-22.1,0.5-44.9,8.3-67.5,6.5c-15.5,1.9-31.4,3.9-47.3,0.3c0.7-0.8,1.3-1.5,2.3-2.5   c-23.6,5.6-31.1-3.8-51.6-7.9c0.2,2.4,2.7,2.3,3.4,3.9l0.1-0.1c-26.7,1.4-54.7,9.1-80.7-0.4c2.2-3,5.1-5.3,7.3-8.3   c5.8,3.1,30-17.2,36.7-17.3c-2.9,4-10.9,4.4-10,10.8c-5.3,4.1-14.5,3.1-16.9,9.9c7.1,0.2,17.7-3,20.3-10.6c3.5-1.4,8.1-6.8,6.6-10   c0.9-1.9,3-0.6,4.6-1.2c0-0.2,0-0.3,0-0.5c-0.5,0-1.1-0.1-1.6-0.1c0.8-1.8,1.9-1.1,3.1-0.3c0.9,10.1-6.6,15.4-13.1,22.2   c9.7,1.7,17.3,0,26.8,0.1c-0.1-4-1.5-5.4,3.6-7.7c11.1,2.4,45.4,15.5,53,7.5c4.9,3.3,11.9,0.6,15.9-2.5c1.7,0.3,3.4,0.6,4.9,0.9   c0.9-0.8,1.6-1.4,2.2-2.1c1,1.3,2.4,1,3.8,1c3.2,2.4,8.6,1.1,10.6,5.8c-1.1,0.4-2.7-0.3-3.4,1.5c3.7,1.7,7,0.7,10.6-1.4   C405.3,459.4,404.2,459.4,403.1,459.3z M310.8,454.1c-0.5,3.5,5.2,2.9,6.5,1.1C315,454.5,313.1,453.4,310.8,454.1z M392.6,461.6   c-4-0.9-6.6,0.8-9.9,2.3C386.6,464.8,389.3,463.4,392.6,461.6z M257.1,454.5c-2.4-1.4-2.8-1.2-4.3,2.4   C255.2,457.8,255.2,457.8,257.1,454.5z M373.6,466.4c2.8,1.1,5.3,1.2,7.6-1.7C378.1,465.3,375.9,465,373.6,466.4z" />
	<path display="inline" fill="#D5D2DC" d="M160.9,412.1c6.3,4.1,7.3,12.7,13.7,17c15.2,5.8,30.9,7.6,46.7,10.1   c10-3.9,22.3-12.4,32.3-4.8c-3.3,10.1-8.6,19-16.4,26.3c-3.4-3.3-8.7,1-12.9-0.4c0.1-0.6,0.2-1.2,0.3-1.9c-3.8-1-7.2-1.2-11.1,0.7   c1.9,0.5,3.2,0.9,4.5,1.2c-7-0.6-15,1.6-21.6-1.1c-2.5-0.9-7.6-3.2-9.5-1.7C168.4,450.6,162.6,429.5,160.9,412.1z M233.3,457.1   c-2.7-2.2-5-1.1-8.1,0.1C228.4,458.5,230.7,459,233.3,457.1z M239.2,452.4c-2.3,0.1-3.9,0.8-5.5,1.6   C234.7,456.9,239,455.6,239.2,452.4z" />
	<path display="inline" fill="#9BA1A2" d="M725.1,363.8c1.5,0.5,3,1,3.8,1.3c5.6,10.2-2.6,20.4-2.7,31c-1.7,11.2-3.3,21.9-4.3,33.2   c10.3,6,24.2,1.7,35.6,5c12,2.1,21.8-5.2,32.7-8.8c15.6,13.9,38,8,57.2,5.4c18.4-4.2,30.6-0.3,42.9-17.8   c-2.3,17.4-10.7,22.5-27.3,24.9c-22.2,2.2-45.4,4-67.4-0.1c-10.4-2.9-20.6,3-30.9,1.9c-18.2-2.8-37.2-1.6-54.8-7.1   c4.8-6.3,2.2-14.8,7.3-20.6c4-3.9-1.3-9.1,1-13.8C720.2,386.6,724.3,375.6,725.1,363.8z" />
	<path display="inline" fill="#B28C7D" d="M666.7,134.7c-23.6,8.1-46.9,22.8-60.9,44.4c-13.5,12.6-25.9,25.6-36.8,40.9   c-1.7-1.1-2.7-2.4-3.5-4.4c12.8-24,26.6-46.7,48.5-63.8c7.7-6.6,11-17.6,21.9-20C646.7,129.2,657.7,126.2,666.7,134.7z" />
	<path display="inline" fill="#977264" d="M114.4,368.8c9-0.8,17.5-3.8,26.3-5.8c-0.4,0.6-0.7,1.3-1.1,2c1.9,0.7,2.6-0.5,4-1.7   c-1-0.2-1.5-0.3-2.1-0.5c1.7-0.9,3.4-1.7,5.1-2.6c0.1,0.5,0.2,1,0.3,1.9c10.5-4.7,19.8-11.1,26.5-20.4l0,0c1.8-2.3,2.9-5.1,4.4-7.7   c4.2,3,8.1,5.4,13.1,6.5c-0.9,0.1-1.9,0.3-2.6,0.4c-5.2,6.7-9.1,14-15.8,19.1c-2-2.2-5.3-1.1-7.3,0.3c0.1,0.2,0.1,0.4,0.2,0.6   c1.4,0,2.8,0,4.2,0c-7.6,6.8-19.1,9.3-27.7,14.9c6.9,5.4,11.3,4.1,19,4.4c-1.2,2.3-2.4,4.6-3.7,6.9c-1.5-1.9-4.2-1-6.8-0.8   c1.3,1.6,2.3,2.9,3.9,3.5c0.7-0.4,1.3-0.6,1.9-0.9c-0.9,3-2.7,5.8-2,9.7c-15.5-12.9-33.4-19.2-52.6-24.4c1.1-1.6,2.1-3,3.3-4.7   c8.7,1.3,18.4,4.9,26.4-0.7C124.7,367.5,120,370.9,114.4,368.8z M164.3,358.5c-3.3-0.8-4.8,0-6,2.3   C160.6,361.3,161.9,360,164.3,358.5z" />
	<path display="inline" fill="#6C5BA7" d="M563.5,218.5c1.2,2,2.1,3.4,3,4.9c-17.3,26.8-33.8,53.4-45.4,82.3   C513,297,555.1,229,563.5,218.5z" />
	<path display="inline" fill="#B18B7D" d="M172.5,360c6.8-5.1,10.7-12.4,15.8-19.1c1.3-0.2,2.7-0.5,4.1-0.2c0.8,2.6-1.8,4.2-1.7,6.6   c-11.2,9.8-20.8,21.2-30,32.9c-7.6-0.3-12,1-19-4.4C151.9,370.5,163,365.5,172.5,360z" />
	<path display="inline" fill="#D4D2DB" d="M461.9,352.4c0.5-0.1,0.9-0.2,1.7-0.4c0.6-7.4-0.1-14.8,0.4-22.2   c1.5,9.4,0.2,19.1,0.6,28.9c-3.5,0.5-6.8,1.6-10.3,4c4.2,0.6,6.3-2.4,10.5-2.7c0,3.4,0.1,6.6,0.1,9.8c-1.3-1.3-1-2.7-1.1-4.5   c-6.6,1.8-14,0.9-20.2,4.6c-0.3-0.5-0.5-0.8-0.8-1.2c1.7-1.1,3.4-2.2,5.2-3.4c-3.9-0.4-4.1-0.2-5.2,3.5c-2.1-0.1-1.8,1.9-3.2,3   c-0.2-0.5-0.3-1-0.5-1.6c-1.4,0.5-1.6,1.3-1.3,2.6c-3.2-3.1-10.1-2.4-8.5-9.1c0.9-0.9,2-2.1,2.9-3.1c9.5-1,17.9-4,27-6.2   C461.6,354.2,461.6,354.2,461.9,352.4z" />
	<path display="inline" fill="#3FA5C9" d="M146.4,408.3c0.2,4,2.7,7.4,2.9,11.4l0,0.1c-2.2,0.2-3.5,2.3-5.5,2.9   c-1.1-2.3-2.2-4.6-3.2-7c1-4.8-0.9-8.9-3.6-13.7c-0.4,3.2,0.2,4.4,1,7.2c-6.1-5.9-11.1-13.4-17.5-19.3c1,0,2,0.1,2.1-1.3   c-2.4-2.5-5.2-4.7-7.9-2.5c-5-1.5-2.5-3.7-5.8-5.9c0-0.3,0-0.6,0-0.9C126.4,381.1,137.4,394.1,146.4,408.3z M131.5,394.9   c-2.4,1.2,0.1,3.9,1.2,1.3C132.4,395.8,132,395.4,131.5,394.9z M128.1,393.8c-0.2-1.9-1-2.7-2.7-1.4   C126.4,392.9,127.3,393.3,128.1,393.8z" />
	<path display="inline" fill="#6A5AA5" d="M477.3,350.3c0.2,3,1.7,5.8,1,8.9c-0.5-0.2-1.1-0.4-1.8-0.7c0,3.9,0.1,7-0.2,10.7   c-1,0.5-1.9,1.1-2.9,1.6c-1.5-0.1-3.1-0.1-4.6-0.2c-2.9-13.3,0.2-27-2-40.3c4.2,0.9,7.2,1.1,11.9,1.1c-2,3.9-5.5,1.6-9.1,1.6   c1.6,2,2.8,3.4,4,4.8c1.5,0.1,2.9,0.2,4.5,0.3c-0.2,4-0.4,8-2.4,11.8C476.5,350.1,476.9,350.2,477.3,350.3z M469.4,342.7   c1.6,3.1,1.8,3.2,5.8,2.1C473.1,344,471.2,343.3,469.4,342.7z M470.8,339c0.3,2.9,0.3,2.9,3.6,2.5C473.7,340,472.4,339.6,470.8,339   z" />
	<path display="inline" fill="#AFB4B5" d="M849.1,383.1c7.9,1.6,16,0.6,23.9,1.1c2.3,3.2,2.4,6.3,0.8,9.8   c-11.3,1.5-21.5-5.6-31.4-10.1C844.5,382.8,846.8,383.2,849.1,383.1z" />
	<path display="inline" fill="#100A09" d="M588.1,464.1c-9.7-4.6-22.8-7.3-34-10.1c0.9-3.1,14.7,0.5,17.9,1.3c9,4.5,20.3,3.6,29,6.9   c-0.6,1-1.3,2-2,2.9c-0.1-0.6-0.1-1.1-0.2-1.9c-2.6,0.3-5.3-0.8-7.2,0.9C590.4,464.2,589.2,464.1,588.1,464.1z" />
	<path display="inline" fill="#D7D6DD" d="M224.3,460.2c4.2,1.4,9.5-2.9,12.9,0.4c-12.7,4.8-38.1,4.6-50.4-3.2   c1.8-1.6,7.1,0.8,9.5,1.7C205.1,462,215.2,459.4,224.3,460.2z" />
	<path display="inline" fill="#14101D" d="M478.3,340.6c-0.1-0.8-0.1-1.5-0.2-2.4c-1.6-0.1-3-0.2-4.5-0.3c-1.2-1.4-2.4-2.9-4-4.8   c3.7-0.1,7.1,2.3,9.1-1.6c-4.6,0-7.7-0.2-11.9-1.1c0-0.9,0.1-1.8,0.1-3c4.3-0.4,8.6,0.7,12.3-1.9c0.5,0,0.9,0,1.4,0.1   c0.4,2.4,1.1,4.4-0.1,6.7c1.6,4.3-0.8,8.3-1.2,12.4C478.2,343.4,478.3,342,478.3,340.6z" />
	<path display="inline" fill="#110E0D" d="M164.8,375.5c7.3-10.5,16.6-19.4,25.9-28.1c0.4,0.4,0.8,0.8,1.2,1.2   c-7.6,10.5-18.5,18.3-26.3,28.8C165.7,376.6,165.7,375.8,164.8,375.5z" />
	<path display="inline" fill="#9F7F71" d="M614.5,463.3c-8.4-6.6-20-6.8-29.9-11.1c11.4-0.6,22.6,4,34,7.9   C617.2,461.9,616.3,462.4,614.5,463.3z" />
	<path display="inline" fill="#DBD6DD" d="M439.8,422.6c0.9-0.6,1.8-1.2,2.2-1.5c7.2,0.8,12.7,0.4,19.7,2c0.1,0.8,0.2,1.8,0.3,2.7   C454.2,427,446.9,426.1,439.8,422.6z" />
	<path display="inline" fill="#3998B9" d="M85.7,380.1c-3.3,2.3-12.1,5.7-15.5,3l0,0c0.6-0.5,1.2-0.9,1.9-1.2c0.9,3,5.2-2.9,8.6-2   c-1.1-1.1-1.8-1.8-2.5-2.5c4.8-0.6,9.5-2.6,14.2-0.9C90.6,378.7,86,377.3,85.7,380.1z" />
	<path display="inline" fill="#2D8FB9" d="M146.4,408.3c-4.3-6.9-10.4-12.6-14.4-19.5c4.4,2.3,8.4,5.5,12.4,8.2c0,0.7,0,1.2,0,1.6   l0.1-0.1c-0.5,0.1-1,0.3-1.5,0.4c1.3,3.2,2.4,6.1,3.6,9.1L146.4,408.3z" />
	<path display="inline" fill="#A28173" d="M82.4,372.7c-1.8-0.4-3.5-0.8-5.3-1.2c-0.4-0.7-1.2-1.4-0.3-2.3c0.2-0.2,0-0.9,0-1.3   c-0.9-1.1-1.9-2.1-2.7-3.1c0-0.8-0.1-1.5-1-1.8l0,0c0-0.3,0.1-0.6,0.1-0.8l0,0c9.3-0.6-1.2,4.7,14.4,9.7   C86.1,373,84.2,372.6,82.4,372.7z" />
	<path display="inline" fill="#170F0D" d="M76.9,367.9c0,0.4,0.2,1.1,0,1.3c-0.9,1-0.1,1.6,0.3,2.3c-2.9-0.1-4.1-2.9-6-4.7   c0.1-2.4-1.5-4.3-0.9-6.8l-0.1,0.1c2.8-0.5,5.6-1.5,8.5-0.8c0,0.3,0.1,0.5,0.2,0.8c-1.6,2.2-4.6-0.1-6.4,2.4   c0.2,0.2,0.4,0.3,0.6,0.5c0,0.8,0.1,1.5,1,1.8C75,365.8,76,366.8,76.9,367.9z" />
	<path display="inline" fill="#AE8879" d="M624.1,290.5c0.5-4.9,4.1-9.1,6.6-13.3c-0.5,4.9-1.2,11.8-4.6,15.2   C625.4,291.8,624.8,291.2,624.1,290.5z" />
	<path display="inline" fill="#997B6E" d="M82.4,372.7c1.8-0.1,3.7,0.3,5.1-1c3.3,0.5,9.4-0.5,8.8-5c0.7-0.6,1.3-1.2,2-1.8   c-0.1,0.6-0.1,1.3-0.2,2c1.1,0.8,2.1,1.5,3.1,2.3C97.6,373.4,87.6,375,82.4,372.7z" />
	<path display="inline" fill="#14101D" d="M466.9,331.9c1.8,9.4,0.3,19.5,0.8,29.1C465.4,351.9,467.5,341.5,466.9,331.9z" />
	<path display="inline" fill="#5F5297" d="M516,306.6c-2.7,0.7-5.2,2-8.2,2.3c0.5-2.6,1.9-4.2,3.7-5.4C515,305,515,305,516,306.6z" />
	<path display="inline" fill="#091A20" d="M78.1,377.5c0.7,0.7,1.4,1.4,2.5,2.5c-2.7,0.2-4.9,0.9-6.7,2.5c-0.6-0.4-1.3-0.9-1.9-1.3   C73.4,378.8,75.9,378.4,78.1,377.5z" />
	<path display="inline" fill="#AC8779" d="M156.1,389c-0.6,0.3-1.1,0.6-1.9,0.9c-1.5-0.6-2.5-1.9-3.9-3.5c2.6-0.2,5.2-1.1,6.8,0.8   C156.8,387.8,156.4,388.4,156.1,389z" />
	<path display="inline" fill="#856B60" d="M591.5,464.2c2-1.7,4.6-0.7,7.2-0.9c0.1,0.7,0.1,1.3,0.2,1.9   C595.7,466.3,594.5,466.1,591.5,464.2z" />
	<path display="inline" fill="#0B232E" d="M155,406.5c-1.9,2,2.1,4.3-0.2,6.4c-1.8-2.1-1.7-4.9-3.5-6.9c0.7-0.6,1.3-1.1,1.8-1.6   C154.2,404.7,154.9,405.4,155,406.5z" />
	<path display="inline" fill="#796258" d="M569.1,449.8c0.9-0.7,1.9-1.3,2.8-1.9c2.3,0.4,4.5,1,6.7,1.9   C576.3,452.2,572.2,449.6,569.1,449.8z" />
	<path display="inline" fill="#2B2D2D" d="M54.2,337.8c-1.3,1.3-2.2,2.1-3.3,3.2c-0.8-0.8-1.3-1.4-1.8-1.9   C49.7,336.5,51.7,336.4,54.2,337.8z" />
	<path display="inline" fill="#6A5249" d="M70.2,360c-0.6,2.4,1.1,4.4,0.9,6.8c-0.5-0.1-0.9-0.1-1.5-0.2c-0.6-1.3-1.3-2.6-1.9-3.9   C68,361.2,69.1,360.6,70.2,360z" />
	<path display="inline" fill="#2F211D" d="M671.3,206.7c-0.5,2.7-1.4,5.3-2.8,7.7c-0.3-0.3-0.6-0.6-0.9-0.9c0.7-1.9,1.3-3.9,2-5.8   C670.2,207.3,670.8,207,671.3,206.7z" />
	<path display="inline" fill="#3C326B" d="M498.6,431.4c0.3-0.3,0.7-0.7,1-1c2.4,1.5,5,1,7.6,0.9c-0.3,0.7-0.5,1.3-0.8,2   C503.7,433.1,501.1,432.7,498.6,431.4z" />
	<path display="inline" fill="#212222" d="M25.3,302.2c-1.1-2.9,0.5-4.6,0.8-6.5C29.1,295.4,26.5,300.9,25.3,302.2z" />
	<path display="inline" fill="#657B7C" d="M849.1,383.1c-4-0.7-7.7,2.9-10-2C842.7,382.8,846.1,381.6,849.1,383.1z" />
	<path display="inline" fill="#15101E" d="M495,321.6c-1.1,1.4-2.2,2.7-4.3,2.7c0.8-2.1,0.7-2.1,3.2-3.6   C494.3,321,494.7,321.3,495,321.6z" />
	<path display="inline" fill="#232525" d="M53.8,353.6c3.4-0.2,3.4-0.2,5.2,2.1C57.2,356.2,55.8,354.4,53.8,353.6z" />
	<path display="inline" fill="#6A5249" d="M76.1,358.9c-2,0.4-4,0.8-5.9,1.1c0.1-0.6,0.2-1.2,0.4-2.1c1.9,0,3.6,0,5.3,0   C75.9,358.3,76,358.6,76.1,358.9z" />
	<path display="inline" fill="#221F34" d="M488.1,317.6c0.9,0.4,1.5,1.1,1.8,2c-0.9,1.9-2.9-0.9-3.7,1   C486,319,486.8,318.1,488.1,317.6z" />
	<path display="inline" fill="#44494A" d="M826.7,374.6c-2.3-0.4-3.7-2.1-6.6-3.6c3.5-0.4,5.1,0.8,6.8,3.5L826.7,374.6z" />
	<path display="inline" fill="#292D2D" d="M61.7,339.8c-0.9,0.9-1.6,1.8-2.6,2.9c-0.6-0.5-0.9-0.8-1.2-1   C59.9,339,59.9,339,61.7,339.8z" />
	<path display="inline" fill="#282A2A" d="M39.5,332.3c-0.9,2.3-1.8,3.1-3.7,2.3C36.5,333.3,37.2,332.1,39.5,332.3z" />
	<path display="inline" fill="#202121" d="M68.2,337.8c0.9,0.5,1.8,1,2.6,1.5c-0.3,2.9-2.5,0.1-3.3-0.9   C67.8,338.2,68,338,68.2,337.8z" />
	<path display="inline" fill="#464E4E" d="M810.7,365.6c-1-0.6-2-1.3-3-1.9C808.6,362.6,809.5,363,810.7,365.6z" />
	<path display="inline" fill="#202121" d="M23.1,314.2c-0.4-0.9-0.7-1.8-1.1-2.7c2.1-1.3,1.8,1.2,1.8,2.4   C23.6,314,23.4,314.1,23.1,314.2z" />
	<path display="inline" fill="#257088" d="M108.8,379.3c0,0.3,0,0.6,0,0.9c-1.3-0.3-2.6-0.7-4-1c0-0.2,0-0.5,0-0.7   C106.2,378.5,107.7,377.9,108.8,379.3z" />
	<path display="inline" fill="#373C3C" d="M57.3,271.2c-0.6,0.3-1.2,0.7-1.9,1.1c-0.2-0.7-0.3-1.1-0.5-1.7c0.8-0.1,1.5-0.2,2.2-0.3   C57.2,270.6,57.3,270.9,57.3,271.2z" />
	<path display="inline" fill="#232322" d="M64.7,358.4c1-0.6,3,0.1,2,1.3C65.6,359.9,65.2,359.4,64.7,358.4z" />
	<path display="inline" fill="#5C7172" d="M817.7,368.4c-1.6,0.7-2.5,0.2-3.5-1.4C815.9,366.7,816.8,367.5,817.7,368.4z" />
	<path display="inline" fill="#1D203A" d="M482.3,322.5c-0.4,1.9-0.4,1.9-3,1.8C479.9,322.9,480.9,322.2,482.3,322.5z" />
	<path display="inline" fill="#0E0A09" d="M592.2,452.5c-1.4,0-2.9,0.4-4.1-0.8C589.6,451.9,591.1,451,592.2,452.5z" />
	<path display="inline" fill="#272C2C" d="M42.4,321.4c-0.8,0.5-1.3,1.1-1.8,0.3C40.9,320.5,41.3,320.6,42.4,321.4z" />
	<path display="inline" fill="#2F211D" d="M668.3,216.2c0.1,1.1,0.4,2.2-0.7,3C667.6,218.2,667.1,217,668.3,216.2z" />
	<path display="inline" fill="#6C5BA7" d="M522.8,306.9c0.1,1.6-0.7,2.1-2.2,1.8C521.3,308.2,522,307.6,522.8,306.9z" />
	<path display="inline" fill="#2D8FB9" d="M72.1,381.2c0.6,0.4,1.3,0.9,1.9,1.3C72.8,383.9,71.8,382.4,72.1,381.2z" />
	<path display="inline" fill="#257088" d="M112.7,380.2c-0.8,0.1-1.6,0.1-2.1-0.7C111.5,379.3,112.2,379.5,112.7,380.2z" />
	<path display="inline" fill="#6C5BA7" d="M525.6,304.8c-0.1,1.2-1,1.2-1.9,1.2C524.3,305.6,525,305.2,525.6,304.8z" />
	<path display="inline" fill="#18110F" d="M93.2,373.5c0.7-0.3,1.4-0.5,2-0.8C94.9,373.6,94.1,373.6,93.2,373.5z" />
	<path display="inline" fill="#15101E" d="M497.9,320.6c-0.4,0.2-0.8,0.5-1.2,0.7C497.1,321.1,497.5,320.8,497.9,320.6z" />
	<path display="inline" fill="#6C5BA7" d="M523.7,305.9c-0.3,0.3-0.6,0.7-1,1C523.1,306.6,523.4,306.3,523.7,305.9z" />
	<path display="inline" fill="#2F211D" d="M666.8,215.3c0.2-0.4,0.5-0.8,0.7-1.1C667.2,214.6,667,215,666.8,215.3z" />
	<path display="inline" fill="#2D8FB9" d="M71.1,382.4c-0.3,0.3-0.7,0.5-1,0.8C70.5,382.9,70.8,382.6,71.1,382.4z" />
	<path display="inline" fill="#D5D2DC" d="M186.9,457.5c0.3,0.2,0.6,0.5,1,0.7C187.6,458,187.2,457.7,186.9,457.5z" />
	<path display="inline" fill="#44494A" d="M826.8,374.4c0.2,0.2,0.4,0.3,0.6,0.5c-0.6,0.6-0.6,0-0.8-0.3L826.8,374.4z" />
	<path display="inline" fill="#977264" d="M322,462.3c0.2,0.1,0.4,0.3,0.5,0.4C322.2,462.8,322.1,462.5,322,462.3L322,462.3z" />
	<path display="inline" fill="#150F0D" d="M166.9,348.6c-5,6.6-12.6,9.8-19.9,13.5c-0.1-0.9-0.2-1.4-0.3-1.9c7.1-3,12.8-8.3,19-12.7   C166.1,347.9,166.5,348.2,166.9,348.6z" />
	<path display="inline" d="M426,321.6l-0.4,0.1l-0.3-0.2c1.6-1.8,3.4-0.7,5.2-0.3C429,321.3,427.5,321.4,426,321.6z" />
	<path display="inline" fill="#150F0D" d="M169.4,343.5c0.2-1.3,0.9-2.2,2.1-2.8C171.6,342.2,171,343.2,169.4,343.5z" />
	<path display="inline" fill="#150F0D" d="M172.3,339.7c0.3-0.7,0.7-1.4,1-2.1C173.4,338.5,173.6,339.4,172.3,339.7z" />
	<path display="inline" fill="#150F0D" d="M173.5,341.7c-0.4,0.6-0.7,1.2-1.1,1.7C172.5,342.7,172.5,341.9,173.5,341.7z" />
	<path display="inline" fill="#150F0D" d="M169.5,346.5c-0.3,0.3-0.6,0.6-0.9,0.9C168.9,347.1,169.2,346.8,169.5,346.5z" />
	<path display="inline" fill="#150F0D" d="M171.5,340.7c0.3-0.4,0.6-0.7,0.9-1.1C172.1,340,171.8,340.3,171.5,340.7z" />
	<path display="inline" fill="#150F0D" d="M168.5,347.4c-0.3,0.3-0.6,0.5-0.9,0.8C167.9,348,168.2,347.7,168.5,347.4z" />
	<path display="inline" fill="#150F0D" d="M171.4,344.6c-0.3,0.3-0.6,0.6-0.9,0.9C170.8,345.2,171.1,344.9,171.4,344.6z" />
	<path display="inline" fill="#150F0D" d="M166.7,346.5c0.3-0.3,0.6-0.7,0.9-1C167.3,345.8,167,346.2,166.7,346.5z" />
	<path display="inline" fill="#312824" d="M128.1,279c-0.4-0.3-0.7-0.6-1.1-0.9C127.4,278.4,127.7,278.7,128.1,279z" />
	<path display="inline" fill="#150F0D" d="M170.5,345.5c-0.3,0.3-0.6,0.6-0.9,0.9C169.9,346.1,170.2,345.8,170.5,345.5z" />
	<path display="inline" fill="#150F0D" d="M168.5,344.5c0.3-0.3,0.6-0.7,0.9-1C169.1,343.8,168.8,344.2,168.5,344.5z" />
	<path display="inline" fill="#150F0D" d="M172.3,343.6c-0.3,0.3-0.6,0.6-0.9,0.9C171.8,344.2,172.1,343.9,172.3,343.6z" />
	<path display="inline" fill="#150F0D" d="M167.6,345.5c0.3-0.3,0.6-0.7,0.9-1C168.2,344.8,167.9,345.2,167.6,345.5z" />
	<path display="inline" fill="#150F0D" d="M165.7,347.5c0.3-0.3,0.6-0.6,0.9-1C166.4,346.8,166,347.1,165.7,347.5z" />
	<path display="inline" fill="#150F0D" d="M174.3,340.7c-0.3,0.3-0.5,0.7-0.8,1C173.8,341.4,174,341.1,174.3,340.7z" />
	<path display="inline" fill="#80695E" d="M115.5,274.1c0-0.4,0.1-0.7,0.1-1.1c1.2,0.1,2.4,0.2,3.7,0.3c0.4,0.6,0.7,1.2,1.1,1.9   l0-0.1C118.7,275.2,117,275.2,115.5,274.1z" />
	<path display="inline" fill="#161111" d="M373.1,324.5c-5.9-3.5-13.7-5.2-18.3-10.3c0.4-0.4,0.8-0.9,1.2-1.4   c6.3,3.2,13.1,5.3,18.1,10.6C373.8,323.8,373.4,324.1,373.1,324.5z" />
	<path display="inline" fill="#242223" d="M387.6,336.7c-3.2,2.9-7.5-3.3-8.8-6.4c0.6-0.5,1.1-1,1.5-1.4   C382.9,331.6,385.2,334.1,387.6,336.7z" />
	<path display="inline" fill="#272021" d="M250.7,397.4c-3.2-2-6.4-2.3-8.7-4.7C243.4,389.1,252.2,394,250.7,397.4z" />
	<path display="inline" fill="#302728" d="M398.8,342.4c-3.4,0.8-8.4-2-7.9-5.6C393.6,338.5,396.3,339.9,398.8,342.4z" />
	<path display="inline" fill="#1D1C1D" d="M162.4,404.2c-4.1,1-1.7-7.3,1.4-6.9C164.5,400,162.8,402,162.4,404.2z" />
	<path display="inline" fill="#2D2B2D" d="M291.2,362c-0.8-0.3-1.7-0.5-2.7-0.9c1.2-2.9,3.1-3.8,5.6-6.6   C294.2,358.2,292.9,359.4,291.2,362z" />
	<path display="inline" fill="#261C1D" d="M231.3,375.5c0.2,0.6,0.4,1.1,0.8,2c-1.4-0.1-2.5-0.1-3.6-0.2c-1.1-0.8-2.2-1.7-3.2-2.4   C226.1,371.7,229.5,375.1,231.3,375.5z" />
	<path display="inline" fill="#202021" d="M296.2,357c-0.6-3,0.3-5.4,2.5-7.4l0-0.1c0.4,2.6,0,5.1-0.9,7.5   C297.1,357,296.6,357,296.2,357z" />
	<path display="inline" fill="#393435" d="M250.7,320.6c3.6-0.9,7-1.5,10.4-2.2c0.7,0.3,1.4,0.7,2.1,1   C259.2,319.2,253.9,323,250.7,320.6z" />
	<path display="inline" fill="#332F30" d="M169.4,408.2c0.7,0.3,1.1,0.5,1.4,0.6c0.9,1.6-0.6,4.3-2.7,5.3   C166.9,411.9,167.8,410.1,169.4,408.2z" />
	<path display="inline" fill="#363032" d="M400.4,341.4c0.5-0.6,0.7-0.9,1.2-1.4c1.7,1.2,3.9,1.7,4.8,4.3   C403.6,344.7,402.2,343,400.4,341.4z" />
	<path display="inline" fill="#4A4E50" d="M291.2,315.7c2.3,0.5,4.7,0.4,6.8,1.6c0,0.4-0.1,0.8-0.1,1.2c-3.3-0.6-6.7-0.6-9.8-1.9   C289.1,316.3,290.5,317.1,291.2,315.7z" />
	<path display="inline" fill="#643335" d="M287.3,316.4c-2.6-0.2-5.1-0.5-7.7-0.7c0-0.3-0.1-0.6-0.1-0.9c3.6-0.3,7.2-0.4,10.8,0.7   C289.4,315.8,288.3,316.1,287.3,316.4z" />
	<path display="inline" fill="#626063" d="M373.1,324.5c0.4-0.4,0.7-0.7,1.1-1.1c2.4,2.2,2.4,2.2,3.9,5.9   C375.7,327.4,374.8,326.5,373.1,324.5z" />
	<path display="inline" fill="#271819" d="M212.1,377.4c2.6-1.9,2.6-1.9,4.8-1.5C215.1,378.2,214.9,378.3,212.1,377.4z" />
	<path display="inline" fill="#372B2C" d="M237,393.1c2.7,0.4,3.9,1.7,5.3,3.6C239.2,397.2,238.6,396.4,237,393.1z" />
	<path display="inline" fill="#796669" d="M263.1,319.4c-0.7-0.3-1.4-0.7-2.1-1c2.3-1.3,4.8-0.9,7.3-0.6   C266.7,318.7,265,319.3,263.1,319.4z" />
	<path display="inline" fill="#333133" d="M298.9,345.5c-2.1,0.6-1.9-1.4-1.9-2.9c0.3-0.5,0.7-1,1-1.6   C299.2,342.4,299.2,342.4,298.9,345.5z" />
	<path display="inline" fill="#595D60" d="M300.1,330.2c-1.6-1.5-1.3-2.8-0.9-4.2C301.3,327.3,301.3,327.3,300.1,330.2z" />
	<path display="inline" fill="#423E40" d="M416.6,346.1c-1.8-0.6-3.4-0.5-4.8-1.8C414.8,343,415.5,343.2,416.6,346.1z" />
	<path display="inline" fill="#585354" d="M279.6,314.8c0,0.3,0,0.6,0.1,0.9c-1.3,1.2-2.8,1.1-5.1,0.3   C276.7,315.5,278.2,315.2,279.6,314.8z" />
	<path display="inline" fill="#343334" d="M297.9,318.6c0-0.4,0.1-0.8,0.1-1.2c1.7-0.3,2.2,1,3,2c0,0.4-0.1,0.9-0.1,1.3   C299.4,320.5,298.5,319.8,297.9,318.6z" />
	<path display="inline" fill="#544F51" d="M167.6,392.3c1.3-3.7,1.3-3.7,3-4.2C170.6,389.9,169.5,390.9,167.6,392.3z" />
	<path display="inline" fill="#605B5E" d="M249,322.7c-1.1,0.6-2.2,1.2-3.4,1.9c0.1-1.7,0.1-1.7,2.2-3   C248.2,322,248.6,322.3,249,322.7z" />
	<path display="inline" fill="#473C3E" d="M249,322.7c-0.4-0.3-0.8-0.7-1.2-1c1-0.3,1.9-0.7,2.9-1c0.4,1,1.3,0.8,2.1,1   C251.5,321.9,250.3,322.3,249,322.7z" />
	<path display="inline" fill="#ABA4AA" d="M461.9,352.4c-0.3,1.9-0.3,1.9-2.7,1.9C459.6,352.9,460.5,352.3,461.9,352.4z" />
	<path display="inline" fill="#797478" d="M437.8,372.6c-0.3-1.3,0-2.1,1.3-2.6c0.2,0.5,0.3,1,0.5,1.6   C439,371.9,438.4,372.2,437.8,372.6z" />
	<path display="inline" fill="#412526" d="M175.3,403.8c0.1,1.3-1.7,1.7-1.7,0.3C174,403.1,174.6,403.3,175.3,403.8z" />
	<path display="inline" fill="#130708" d="M287.3,316.4c1.3-0.2,2.6-1.2,3.8-0.7C290.4,317,288.4,316.8,287.3,316.4z" />
	<path display="inline" fill="#D5D2DC" d="M298.9,353.3c-0.1-1.3-0.2-2.5-0.2-3.8C300.2,350.8,300.3,351.4,298.9,353.3z" />
	<path display="inline" fill="#737073" d="M300.8,320.6c0-0.4,0.1-0.9,0.1-1.3c0.6,0.5,1.1,0.9,1.7,1.4   C301.8,321.6,301.3,321.5,300.8,320.6z" />
	<path display="inline" fill="#473C3E" d="M258.3,318.7c-0.6,1-1.5,0.7-2.3,0.6C256.8,319.1,257.6,318.9,258.3,318.7z" />
	<path display="inline" fill="#473C3E" d="M254.5,321.2c0.5-0.2,0.9-0.4,1.4-0.6C255.5,320.8,255,321,254.5,321.2z" />
	<path display="inline" fill="#473C3E" d="M253.5,319.8c-0.5,0.2-0.9,0.4-1.4,0.5C252.6,320.1,253.1,319.9,253.5,319.8z" />
	<path display="inline" fill="#987264" d="M678.3,159.2c0-1.7,0-2.8,0-4c2.3-1.3,5-0.4,7.8-0.6c3.1,2.5,6.4,5,5.4,10.2   C686.8,165,682.1,161.7,678.3,159.2z" />
	<path display="inline" fill="#110C0A" d="M687.1,199.8c2.8,0.4,15.8,7.3,13.8,10.7C696.8,207.9,687.5,204.5,687.1,199.8z" />
	<path display="inline" fill="#201816" d="M701.8,175c4.2-1.1,10.8,9.6,6.7,12.2C706.8,182.4,705.1,179.3,701.8,175z" />
	<path display="inline" fill="#150E0D" d="M700.6,216c0.7-1,0.8-1,1.8-1.5c3.3,1.1,7.5,4.2,6.9,8.1C705.8,221.9,703.5,218,700.6,216   z" />
	<path display="inline" fill="#1A110F" d="M714.5,232.3c-2.4-1.6-4.3-3.7-6.1-5.8c0.3-0.5,0.6-0.8,0.9-1.2   C713.8,227.4,715,228.9,714.5,232.3z" />
	<path display="inline" fill="#2D221D" d="M749.6,342.6c-0.2,1.3,0.2,3-1.8,3.5c-1.9-2-1-4.4-1.2-6.9c0.7-0.2,1.3-0.3,1.9-0.4   C748.9,340.2,749.3,341.4,749.6,342.6z" />
	<path display="inline" fill="#171210" d="M664.7,148.8c1.8-1.5,3.3-3.4,5.9-3.5c2.8,2.2-2.6,3.4-4,4.5   C665.9,149.6,665,149.8,664.7,148.8z" />
	<path display="inline" fill="#2D201D" d="M774.8,348.9c-2.9-2.4-4.9-4.6-5.9-7.4C770.9,339.4,774.8,346.9,774.8,348.9z" />
	<path display="inline" fill="#2D221E" d="M653.5,161c1.4-4.4,1.4-6.8,5.4-6.9C657,156.9,655.9,159.5,653.5,161z" />
	<path display="inline" fill="#231D1A" d="M716,234.5c0.9,1.3,1.6,2.3,2.4,3.5C716.4,239.6,713.8,236,716,234.5z" />
	<path display="inline" fill="#2F221F" d="M697.4,173.8c-2.8-1.1-2.8-1.1-4.3-3.8C695.3,170.3,696.5,171.4,697.4,173.8z" />
	<path display="inline" fill="#634E46" d="M664.7,148.8c0.3,1,1.2,0.8,1.9,0.9c-1.4,0.9-2.8,1.8-4.8,3   C662.1,150.3,663.3,149.4,664.7,148.8z" />
	<path display="inline" fill="#483933" d="M721.4,249.8c1.3,1.3,1.5,2.1,0.2,3.1C720.3,252.1,720.4,251.2,721.4,249.8z" />
	<path display="inline" fill="#584941" d="M765.3,332.6c1.4-0.1,1.9,2,0.4,2.1C764.5,334.2,764.8,333.4,765.3,332.6z" />
	<path display="inline" fill="#624C44" d="M719.4,245c-1.9-1-1.5-1.7,0-2.4C719.4,243.5,719.4,244.2,719.4,245z" />
	<path display="inline" fill="#6D524A" d="M688.4,168.3c0.4,0.5,1.2,1,0.4,1.5C688.1,169.3,687.6,169.1,688.4,168.3z" />
	<path display="inline" fill="#321E1B" d="M762.1,326.2c-0.1,0.3-0.2,0.5-0.3,0.8c-0.7-0.3-0.6-0.7-0.2-1.3   C761.7,325.8,761.9,326,762.1,326.2z" />
	<path display="inline" fill="#020103" d="M544.1,354.2c2-7.2-14.3-27.9,0.1-26.1c-1.2,0.7-2.1,1.1-3.2,1.7   c1.4,5.6,3.6,11.6,7.1,15.9c-0.2,1-0.6,2.2,0.8,2.7c4.8,10,9.8,19.8,14.6,29.9c-0.9,0.6-1.6,1.1-2.3,1.6   c-7.5-5.6-10.2-15.7-14.2-23.8c-0.4-1.6-0.9,0.2-1.8,0.1c-0.3-0.3-0.7-0.7-1-1l0,0C544.9,354.9,545,354.6,544.1,354.2z" />
	<path display="inline" fill="#6C5BA8" d="M571.3,317.6c0.5,0.1,0.9,0.2,1.4,0.4c-2.3,10.3,3,25.3-6.8,32.4   c-0.9-8.7-1.3-17.4-1.6-26.2C566.5,322,568.7,319.6,571.3,317.6z" />
	<path display="inline" fill="#6C5BA8" d="M554.5,360.1c-2-4.8-5.4-9.4-6.4-14.3c1-1.1,2.9-1.8,2-3.8c1.6-2.8,3.3-6.6,6.4-7.8   C555.6,341.8,563.9,356.3,554.5,360.1z" />
	<path display="inline" fill="#020103" d="M536.2,362.1c0.1,1,0.1,2.1,0.3,3.6c0.8-0.8,1.3-1.3,1.8-1.8c0.3,0.3,0.7,0.7,1,1   c-9.8,14,5,16.1,4.1,26.2c-1.4-0.9-1.9-1.5-2.7-3c-8.4-0.8-8.5-8.3-10.1-14.7c2.4-4.4-1.5-11.7,3.7-14.2   C535,360.3,535.6,361.2,536.2,362.1z" />
	<path display="inline" fill="#312853" d="M609.6,329.1c-4.5,30.2-5.6,63.1-19.3,90.7l0,0c5.8-21,13.1-42.3,14.5-64.4   C607.6,347.2,604.9,336.4,609.6,329.1L609.6,329.1z" />
	<path display="inline" fill="#0E0B14" d="M571.3,317.6c-0.4,0.3-0.8,0.6-1.2,0.9c-0.4-0.4-0.7-0.8-1.1-1.1c5-8.7,2.4-18.9,3.6-28.3   c0.7,3.1,1.3,5.1,1.7,8.5c7.4-8.3,15-14.1,19.2-24.3c1.8,14.4-20.3,19.8-19.1,34.4C571.9,310.7,573.7,314.5,571.3,317.6z" />
	<path display="inline" fill="#282045" d="M613.6,395c4.5-19,6.9-38.4,8.5-57.8c1-8.7-0.1-18.6,5.9-25.7c-8,27.4-3.6,56.8-13.7,83.8   C614,395.1,613.8,395,613.6,395z" />
	<path display="inline" fill="#6B5BA7" d="M537.2,368.5c3.1-4.1,5.1-8.8,7.9-12.3c0.3,0,0.6-0.1,0.8-0.3c0.3,0.1,0.7,0.1,1,0.2   c1,2.9,3.1,5.6,2.9,8.8c-3.6,3.1-7.5,5.7-12.2,7.7C537.4,371,537.3,369.8,537.2,368.5z" />
	<path display="inline" fill="#060307" d="M484.7,391.7c8.5-1.8,20,5.3,28.6,7.6C509.2,404.8,489.7,394.6,484.7,391.7z" />
	<path display="inline" fill="#160E1D" d="M530.5,373.4c1,1.5,1.2,3.2,1,5c-0.4-0.8-0.9-1.6-1.3-2.4c-2.3,1.8-5.2,3.2-7.2,5.2   c-2.6,5.9-35,3.4-43.1,4.7c-0.2-0.6-0.4-1.2-0.5-1.8c13.7-0.9,27.8,0.2,41.3-2.5c0.1-0.8,0.1-1.6,0.2-2.4c3.5-0.3,6.6-3.1,8.7-5.8   C529.8,373.5,530.1,373.5,530.5,373.4z" />
	<path display="inline" fill="#0A080F" d="M558.6,346.4c-2.4-9.8-5.6-21.6-0.1-30.8c0.5,0.4,1,0.7,1.6,1.1c-1.3,3.8-2.7,8-0.6,11.6   C557.7,334.1,561.3,340.9,558.6,346.4z" />
	<path display="inline" fill="#1F1834" d="M578.7,388c6.1-16.1,12.2-31.9,21.1-46.7c-5.3,16-14.3,31.5-20.1,47.6   C579.4,388.6,579,388.3,578.7,388z" />
	<path display="inline" fill="#0F0C19" d="M527.5,388.6c5.3,6.1,9.9,34-4.4,31.9C537.5,414.6,526.6,399.6,527.5,388.6z" />
	<path display="inline" fill="#0B070E" d="M485.4,365.9c4.4-2.3,11.1-7.5,15.8-4.6c-0.2,0.5-0.4,1-0.6,1.6   C496.4,363.5,488.1,370.4,485.4,365.9z" />
	<path display="inline" fill="#1B1630" d="M573,313.8c-0.9-3.4,1.8-5.5,2-8.8c2.4,6.5,3.7,13.8,4.8,20.8c-3.9-1.2-3.4-10.5-5.3-14.3   C573.9,312.2,573.5,313,573,313.8z" />
	<path display="inline" fill="#251E3F" d="M476.5,365.7c0-2.3,0-4.7,0-7.3c0.7,0.3,1.3,0.5,1.8,0.7c-0.3,6.9,1.5,13.5,0.7,20.4   C476.7,375.2,478.5,369.8,476.5,365.7z" />
	<path display="inline" fill="#0C0811" d="M487,406.5c1.1-2.5,8-1.3,10.3,0.4C494.8,409.6,490.3,408.6,487,406.5z" />
	<path display="inline" fill="#1B1529" d="M559.6,328.3c-0.3-0.7-0.7-1.4-1-2.2c4.1-1.5,6.4-6.5,10.4-8.7c0.4,0.4,0.7,0.8,1.1,1.1   C566.6,321.8,563.3,325.3,559.6,328.3z" />
	<path display="inline" fill="#1B152D" d="M524.3,409.3c-2.6-3.6-2-8.8-0.3-13C524.9,399.9,525,404.2,524.3,409.3z" />
	<path display="inline" fill="#3F336D" d="M578.7,388c0.3,0.3,0.7,0.6,1,0.9c-1.4,3.8-2.9,7.6-4.4,11.5   C573.1,399.4,577.4,389.9,578.7,388z" />
	<path display="inline" fill="#0C0C19" d="M473,423.5c0.7-1.5,1.2-2.4,1.8-3.8c1.2,2.3-0.6,3.7-0.3,5.4c-1.8,0.7-3.5,0.6-5.6,0.1   c0.2-0.8,0.4-1.4,0.6-2C470.8,423.3,471.9,423.4,473,423.5z" />
	<path display="inline" fill="#262043" d="M558.6,346.4c1.2-1.4,0.8-3.1,0.9-4.8c1.6,2.5,0.6,6.1,1.9,9c0.1,0.3-0.2,0.8-0.5,1.7   c-1-1.9-1.7-3.4-2.4-4.9C558.6,347.1,558.6,346.8,558.6,346.4z" />
	<path display="inline" fill="#180E1E" d="M521.5,431.2c-2.6,0.6-4.8,0.4-7.7-0.2C516.7,428.4,516.8,429.4,521.5,431.2z" />
	<path display="inline" fill="#1D132A" d="M507.2,431.3c-2.6,0.1-5.2,0.6-7.6-0.9C501.6,428.6,505.4,429.2,507.2,431.3z" />
	<path display="inline" fill="#3E3169" d="M472.5,408.1c1.5-1.4,3.7-0.6,5-2.6c2,2-2.3,3.6-4,3.7   C473.2,408.9,472.9,408.5,472.5,408.1z" />
	<path display="inline" fill="#312754" d="M606.2,309.5c0.6,1.6,3.2,2.4,2.1,5C606.5,313.2,605.9,311.6,606.2,309.5z" />
	<path display="inline" fill="#1F1937" d="M472.5,408.1c0.3,0.4,0.7,0.7,1,1.1c-0.6,0.5-1.1,1.1-1.9,1.9   C470.1,409.9,470.6,408.1,472.5,408.1z" />
	<path display="inline" fill="#09060E" d="M474.9,418.7c-1,0-2,0-3.1,0c0.1-0.6,0.2-1,0.3-1.6c1.1,0.4,2,0.7,2.9,1.1   C475,418.3,475,418.5,474.9,418.7z" />
	<path display="inline" fill="#322550" d="M476.1,392.5c-1.1,0.6-3-0.1-2-1.3C475.2,391.1,475.7,391.5,476.1,392.5z" />
	<path display="inline" fill="#261B3A" d="M476.2,401.2c-1.1,0.6-3.1-0.1-2.1-1.3C475.2,399.7,475.7,400.2,476.2,401.2z" />
	<path display="inline" fill="#6A5AA5" d="M478.5,366.7c0-0.9-0.1-1.9-0.1-2.8c1.3,0.6,0.8,1.9,0.9,2.9   C479.1,366.8,478.8,366.8,478.5,366.7z" />
	<path display="inline" fill="#312853" d="M590.3,419.8c0,0.8,0,1.6-1,1.9l0,0C589.4,421,589.3,420.2,590.3,419.8L590.3,419.8z" />
	<path display="inline" fill="#6A5AA5" d="M479.4,366.8c0.6,0,1.3,0,1.9,0C480.6,367.9,480,368,479.4,366.8z" />
	<path display="inline" fill="#312853" d="M589.4,421.8c-0.3,0.3-0.6,0.6-1,1l0,0C588.7,422.4,589.1,422.1,589.4,421.8L589.4,421.8z   " />
	<path display="inline" fill="#312853" d="M588.4,422.7c-0.1,0.2-0.2,0.4-0.4,0.7C588.2,423.2,588.3,423,588.4,422.7L588.4,422.7z" />
	<path display="inline" fill="#312853" d="M609.6,329.2c0.2-0.2,0.3-0.3,0.5-0.5C610.2,329,609.9,329.1,609.6,329.2L609.6,329.2z" />
	<path display="inline" fill="#967164" d="M355.9,450.9c-22.7,8.4-28.3-15.9,10.5-12.7c0,0.3,0,0.6,0,0.9   c-6.5,3.9-14.8,6.1-22.5,6.3c-6.6,5,8.7,6.1,11.7,5.2L355.9,450.9z" />
	<path display="inline" fill="#906F61" d="M367.3,438.1c1.3-2,3.4,0,4.8,0.7c-1.7,6.7-10,10.2-16.2,12.1l-0.2-0.3   c5-3.2,10.2-6.8,13.2-12.1c-0.6,0-0.9,0-1.2,0.1L367.3,438.1z" />
	<path display="inline" fill="#1E100E" d="M507.2,451.7c-0.3,0.8-0.5,1.7-0.8,2.7c-0.9-0.8-1.4-1.3-2.1-1.8   c-4.2,1.6-8.7,1.2-13.1,0.9c0-0.2-0.1-0.5-0.1-0.7C496.3,452.8,502.1,448.9,507.2,451.7z" />
	<path display="inline" fill="#180C0B" d="M375.9,454.7c-2.9,3.3-10.4,4.2-14.2,1.7c0.3-0.3,0.5-0.6,0.8-0.9   C367.1,455.5,371.6,455.5,375.9,454.7z" />
	<path display="inline" fill="#0F0C0B" d="M403.1,459.3c1.1,0.1,2.2,0.1,3.4,0.2c-3.6,2.1-6.9,3.1-10.6,1.4   C397.5,458.4,400.6,459.8,403.1,459.3z" />
	<path display="inline" fill="#2A1E1B" d="M515.3,447.2c-2.5,2.8-5.1,1.4-8.1,1.5C509.8,446.2,512.3,446.7,515.3,447.2z" />
	<path display="inline" fill="#1B0404" d="M425.5,455.6c-3.3,1.7-5.7,2.1-8.8,1.6C419.2,454.3,421.5,456,425.5,455.6z" />
	<path display="inline" fill="#977264" d="M374.3,454.7c-3.5,1.6-7.9,0.4-11.7,0.8C365.9,453.6,370.5,455.1,374.3,454.7z" />
	<path display="inline" fill="#292A25" d="M403,449.1c-1.7,2.6-4,1.4-6.7,1.8C398.5,448.6,400.6,448.8,403,449.1z" />
	<path display="inline" fill="#200F0D" d="M334.5,416.3c-1.8,2.7-4.1,1.8-6.3,1.3C330.2,417.1,331.9,415.1,334.5,416.3z" />
	<path display="inline" fill="#523E38" d="M407.3,448.5c1.4-2.5,3.3-1.6,5.3-1.5C411.1,449.4,409.3,448.9,407.3,448.5z" />
	<path display="inline" fill="#2C1A17" d="M428.2,455.4c2-2.6,4.2-1.9,7.3-1.5C432.7,455,430.8,455.7,428.2,455.4z" />
	<path display="inline" fill="#311F1B" d="M480.3,454.6c-0.1,0.5-0.1,0.9-0.2,1.4c-2,1.2-3.6,0.1-5.7-1.1   C476.8,454.4,478.2,454.3,480.3,454.6z" />
	<path display="inline" fill="#422D28" d="M488.9,452.7c0,0.5-0.1,0.9-0.2,1.6c-1.1,0.3-2.1,0.4-3.2-0.1c-0.1-0.5-0.1-1-0.2-1.4   C486.5,452.8,487.7,452.7,488.9,452.7z" />
	<path display="inline" fill="#352A26" d="M385,431.5c-1.7,1.8-3,2.3-4.8,1.5C381.2,431,382.7,431.2,385,431.5z" />
	<path display="inline" fill="#281B18" d="M376.2,434.4c-1.4,1.7-2.4,2.5-4,1.5C372.8,433.9,374.2,434.2,376.2,434.4z" />
	<path display="inline" fill="#2B100E" d="M388.6,453.6c-1.5,0.1-2.9,0.4-3.8-1c1.7-0.2,3.4-0.4,5.6-0.6   C389.6,452.7,389.1,453.2,388.6,453.6z" />
	<path display="inline" fill="#281D1A" d="M550.3,450.3c-2,1.1-3.8,0.2-5.8,0.1C546.5,449.4,548.4,449.3,550.3,450.3z" />
	<path display="inline" fill="#453832" d="M302,433.7c0.9-1.9,1.1-1.9,3.4,0.1C304.1,434.5,303.1,434.5,302,433.7z" />
	<path display="inline" fill="#5E4840" d="M415.7,445.6c1.7-1,2.7-2.2,4.6-1.2C419.3,446.2,417.8,446.1,415.7,445.6z" />
	<path display="inline" fill="#2A0E0D" d="M299,432.5c-1.2,1.6-1.2,1.6-2.9,0C297.1,432.5,297.9,432.5,299,432.5z" />
	<path display="inline" fill="#977264" d="M495.9,451.8c-1.5,0.9-3.2,1.1-4.9,1.1C492.1,451,494.2,451.9,495.9,451.8z" />
	<path display="inline" fill="#604D45" d="M315.7,419.7c-0.7-0.2-1.6-0.1-1.1-1.1c0.4,0.2,0.9,0.3,1.3,0.5   C315.8,419.2,315.8,419.5,315.7,419.7z" />
	<path display="inline" fill="#56453E" d="M322.3,419.8c-0.4-0.3-0.6-0.4-0.8-0.6C322.4,417.9,323.5,418.5,322.3,419.8z" />
	<path display="inline" fill="#322521" d="M540.7,449.8c-1.6-0.1-2.3-0.1-3.3-0.2C538.3,448.4,539,448.6,540.7,449.8z" />
	<path display="inline" fill="#562E29" d="M310.2,434.1c-0.5,0-0.9,0-1.4,0c0-0.1,0-0.3,0-0.4c0.5,0,0.9,0,1.4,0   C310.2,433.8,310.2,433.9,310.2,434.1z" />
	<path display="inline" fill="#3B2724" d="M288.4,434.5c0.5,0,1.1,0.1,1.6,0.1c0,0.2,0,0.3,0,0.5c-0.6,0.1-1.1,0.1-1.7,0.2   C288.3,435,288.3,434.7,288.4,434.5z" />
	<path display="inline" fill="#906F61" d="M366.4,439c0-0.3,0-0.6,0-0.9c0.3,0,0.6,0,0.9-0.1c0,0,0.3,0.4,0.3,0.4   C367.2,438.6,366.8,438.8,366.4,439z" />
	<path display="inline" fill="#967163" d="M156,305c-0.4,3.2,3.9,3.1,3.9,5.8c-3.1,7.9-1.9,9.9-9.9,16c1,0.2,1.6,0.4,2.2,0.5   c-1.4,2.2-4.5-0.5-5.8,1.9l0,0c-1.6,0.7-3.1,1.3-4.7,2C145.4,322.1,148.5,311.5,156,305z" />
	<path display="inline" fill="#957163" d="M147.3,303.2c0.7,0,1.5,0,2.2,0c0.6,0.6,1.2,1.2,1.9,1.9c0,3.5-2.1,5.8-4.5,7.4   c-2.1,5.4-3.4,14.1-9.1,15.8c-0.3-0.7-0.6-1.4-0.9-2.2c2.9-2.2,1.4-6.7,2-9.7c1.8-2.5,4-4.4,4-7.6c0-1.3,1.3-2.2,2.6-2.6   c1-0.3,2.2-0.4,2.6-1.7C147.7,304,147.5,303.6,147.3,303.2z" />
	<path display="inline" fill="#0D0908" d="M79.6,323.7c-5.9-10.2,5.4-17,10.1-24.1c6.3-4.3,5.2,2.6,0.9,4.9   C83.8,309.1,80.7,315.5,79.6,323.7z" />
	<path display="inline" fill="#171210" d="M115.5,274.1c1.5,1.1,3.2,1.1,4.9,1c0.2,1.5-1.4,1.5-1.9,2.5c0.2,0.6,0.3,1.2,0.5,1.8   c-1.2,2.6-2.8,4.8-5.4,6.2c0.2,1.5-0.2,2.7-1,4c-0.3,0-0.6,0-0.9,0c-0.1-2,0.2-4.1-0.5-6.6c-0.3,1-0.4,1.4-0.6,1.8   c-0.6,0.3-1.2,0.6-1.7,0.9C109.7,281.3,110,274.4,115.5,274.1z" />
	<path display="inline" fill="#18110F" d="M96.3,366.7c-0.8,8.5-13.7,4.7-17.5,0c-0.4-1.3,0.6-2.9-1-3.8c0.3-0.9,1-1,1.8-0.8   c1,5.7,5.1,7.5,10.4,8.2c0.9-0.9,1.9-1.9,3-3c-3.7-1.4-3.7-1.4-7.9-0.8c-1.6-1.9-1.6-1.9-1.4-5.5c1.4-0.4,2.4,2.2,3.4,2.4   C90.9,362.9,93.6,364.8,96.3,366.7z" />
	<path display="inline" fill="#050404" d="M99.1,309.7c-0.7,0.3-2.5,0.3-1,1.1c1.5,3.7-2,7.3-5.5,8.6c1.1,2.5,0.4,4.5-2.1,5.8l0.1,0   c1.5-4.6,0.1-10,3.6-13.7c-0.7-0.7-1.2-1.2-1.7-1.7l0,0c1.4-2,3.3,0.4,5.2-0.8C97.8,308.8,98.5,309.4,99.1,309.7z" />
	<path display="inline" fill="#8E6A5D" d="M83.8,361.1c-0.2,3.6-0.2,3.6,1.4,5.5c4.2-0.6,4.2-0.6,7.9,0.8c-1.1,1.1-2.1,2-3,3   c-5.8-0.6-11-3.8-10.3-10.3l0,0C81.3,359.8,82.6,360.3,83.8,361.1z" />
	<path display="inline" fill="#332722" d="M147.3,303.2c0.2,0.4,0.5,0.8,0.7,1.2c-0.4,1.3-1.5,1.4-2.6,1.7c-1.3,0.4-2.5,1.3-2.6,2.6   c0,3.2-2.2,5.2-4,7.6c-0.5,3,0.9,7.5-2,9.7c-1.2-4.1-0.7-9.2,2.1-12.5C141.4,309.6,141.3,303.7,147.3,303.2z" />
	<path display="inline" fill="#150F0D" d="M137.7,328.2c3.9,0,4.6-6.1,6.9-8.7c0.3,0.3,0.6,0.7,0.9,1c-1.2,5.3-3.5,10.1-6.6,14.8   C136.3,333.5,135.6,330.6,137.7,328.2z" />
	<path display="inline" fill="#17110F" d="M152.2,327.3c-0.6-0.1-1.2-0.3-2.2-0.5c8-6.1,6.8-8,9.9-16   C162.7,317.8,158.5,324.2,152.2,327.3z" />
	<path display="inline" fill="#251916" d="M138.6,294.6c0.3,1.7,0.5,3,0.7,4.4c-3,0.3-1.6-4.3-6.6-5.8c-4.1,2.7-8.4,3.3-12.7,0.2   c3.5-0.5,7.5,0.8,10.6-1.1C133.4,290,136.1,293,138.6,294.6z" />
	<path display="inline" fill="#251A17" d="M92.3,309.8c0.5,0.5,1.1,1.1,1.7,1.7c-0.5,0.7-1.1,1.5-1.6,2.2c-0.9-0.6-1.7-0.1-1.8,0.8   c0.8,3.4-2.8,8.2-0.2,10.7l-0.1,0c0,0.9,0,1.8,0,2.8C86.3,323.6,88.4,313.9,92.3,309.8z" />
	<path display="inline" fill="#191311" d="M132.3,309.3c-0.1-0.3-0.4-0.6-0.3-0.9c1.8-3.3-0.4-8.3,2.4-10.6c1.2,0.3,1.9,1,1.3,2.1   C134.5,302.9,136.6,308.2,132.3,309.3z" />
	<path display="inline" fill="#221A17" d="M78.4,281.1c1.6-4.1,3.3-6.7,6.7-8.1C84.6,276.3,82.9,278.5,78.4,281.1z" />
	<path display="inline" fill="#2B211E" d="M129.1,309.7c-2.4,2.3-1.4,5.3-4.3,7.3C122.7,314.5,126.2,307.3,129.1,309.7z" />
	<path display="inline" fill="#1B110F" d="M151.3,305c-0.6-0.6-1.2-1.2-1.9-1.9c2.1,0.1,7.2-2.4,6.6,1.8c-0.9,0.7-1.8,1.4-2.7,2.1   C152.6,306.4,152,305.7,151.3,305z" />
	<path display="inline" fill="#251A17" d="M99.1,309.7c-0.5-0.3-1.3-0.9-1.5-0.7c-1.4,0.9-2.8-0.1-4.1-0.1c2.2-1.8,4.2-2.3,7.1-3.3   c0.1,1.4,0.2,2.5,0.3,3.9C100.2,309.5,99.6,309.6,99.1,309.7z" />
	<path display="inline" fill="#332723" d="M117.4,287.2c1.4-2.7,3.7-4.6,5.7-7C123.8,283.1,120.6,287.8,117.4,287.2z" />
	<path display="inline" fill="#362B27" d="M98.6,319.9c0.8-2.9,1-6,4.3-8C102.7,315.6,101.4,318.1,98.6,319.9z" />
	<path display="inline" fill="#40342E" d="M108.9,285.6c0.6-0.3,1.2-0.6,1.7-0.9c-0.2,1.5-0.4,2.9-0.7,4.5c0.6,0.4,1.2,0.9,1.8,1.4   c-1.4,1.4-2.6,0.4-3.9-0.4C108.3,288.6,108.6,287.1,108.9,285.6z" />
	<path display="inline" fill="#2D211E" d="M121.3,319.5c1-0.7,2.1-1.3,3.8-2.5c-0.4,3.6-3.4,5.2-6.7,4.3c0-0.4,0-0.8,0-1.2   C119.5,320.3,120.8,320.8,121.3,319.5z" />
	<path display="inline" fill="#221815" d="M77.7,284.3c-0.1,1.8-1.3,2.5-2.8,3.2C73.2,285.6,76,282.5,77.7,284.3z" />
	<path display="inline" fill="#967163" d="M146.4,329.2c1.1,0,2.2,0,3.4,0c-1.1,1.6-1.1,1.6-3.5,2.7   C144.7,330.9,146.4,330,146.4,329.2L146.4,329.2z" />
	<path display="inline" fill="#312420" d="M79.9,329.8c-2.5-1.7-2.1-3.3-1.8-5.2C80.4,325.6,80,327.3,79.9,329.8z" />
	<path display="inline" fill="#563E37" d="M118.5,320.2c0,0.4,0,0.8,0,1.2c-2.5-0.8-2.7-1.2-2.6-4.3   C117.5,317.5,117.6,319.1,118.5,320.2z" />
	<path display="inline" fill="#311E1B" d="M141.5,362.8c0.6,0.1,1.2,0.3,2.1,0.5c-1.4,1.2-2.1,2.4-4,1.7c0.4-0.7,0.7-1.3,1.1-2   C141,363,141.3,362.9,141.5,362.8z" />
	<path display="inline" fill="#503B35" d="M73.2,290.5c-0.6,0.4-1,0.6-1.3,0.9C70.7,290.1,71.8,289.3,73.2,290.5z" />
	<path display="inline" fill="#DECFCA" d="M113.6,287.6c0-0.7,0-1.3,0-2c0.5,0.1,1,0.3,2,0.5C114.7,286.8,114.2,287.2,113.6,287.6z" />
	<path display="inline" fill="#563E37" d="M121.3,319.5c-0.4,1-1.3,0.9-2.1,0.8C119.7,319.4,120.5,319.4,121.3,319.5z" />
	<path display="inline" fill="#8E6A5D" d="M85.6,362c-0.4-0.3-0.7-0.6-1.1-0.9C84.9,361.4,85.3,361.7,85.6,362z" />
	<path display="inline" fill="#8E6A5D" d="M78.8,360c-0.1-0.3-0.2-0.5-0.2-0.8c0.4,0.3,0.8,0.5,1.2,0.8l0,0   C79.5,360.1,79.1,360,78.8,360z" />
	<path display="inline" fill="#251A17" d="M98,310.8c-0.9-0.5-0.6-0.8,0.2-0.9C98.2,310.2,98.1,310.5,98,310.8z" />
	<path display="inline" fill="#251A17" d="M93.3,308.9c-0.3,0.3-0.7,0.6-1,0.9C92.7,309.5,93,309.2,93.3,308.9z" />
	<path display="inline" fill="#40342E" d="M111.7,289.5c0.3,0,0.6,0,0.9,0c-0.3,0.4-0.5,0.7-0.8,1.1l-0.1-0.1   C111.7,290.2,111.7,289.9,111.7,289.5z" />
	<path display="inline" fill="#544492" d="M584.5,286.7c-3.2,3.5-6.5,6.9-10.2,10.9c-0.2-1.5-0.3-2.3-0.4-3.1c1.5-0.8,1-2.2,1-3.4   c0.1-4.9,1.9-15.2,4.3-19.5c4,4,2.7,9.6,3.8,14.7C583.3,286.3,583.9,286.5,584.5,286.7z" />
	<path display="inline" fill="#040305" d="M489.7,354.1c-12.2-7.5,6.4-27.9,16.1-30.4c0.8,0.7,0.5,1.4-0.1,2   c-6.1,5.5-13.8,11.4-14.8,19.8l0,0C489,347.8,490.3,351.3,489.7,354.1z" />
	<path display="inline" fill="#020203" d="M524.2,351.5c5.1,6.8-1.7,17.3-1.6,25.4c-0.8,0.4-1.5,0.8-2.3,1.2   C516.1,375.4,519.9,352.8,524.2,351.5z" />
	<path display="inline" fill="#544491" d="M530.5,373.4c-0.3,0-0.6,0.1-0.9,0.1c-0.2-12.3,1.5-24.3,4.3-36.9   c3.8,7.3-0.2,17.3,2.4,25.5c-0.6-0.9-1.2-1.8-2-2.9C529,361.8,532.9,369,530.5,373.4z" />
	<path display="inline" fill="#544591" d="M565.2,320.4c-2.2,1.8-3.8,5.2-6.6,5.7c-0.2-3.2,0.4-6.3,1.6-9.4   c-0.6-0.4-1.1-0.8-1.6-1.1c3-6,2-12.9,3-19.7c1.9,7.7,1.7,15.8,1.8,24C564,320.1,564.6,320.3,565.2,320.4z" />
	<path display="inline" fill="#52438F" d="M490.8,345.5c0.9-5.4,4.1-10.7,8.8-14.4c1.3,1.1,2.9-1.1,4.5,0.7   C502.8,338.1,496.5,342.9,490.8,345.5z" />
	<path display="inline" fill="#261F38" d="M555.4,331.8c0.4,0.8,0.7,1.5,1.1,2.3c-3.1,1.2-4.9,4.9-6.4,7.8c0.9,2.1-1,2.7-2,3.8   c-0.8-1-2.4-1.6-2.1-3.1c0.4,0.2,0.9,0.4,1.4,0.6C550,339.4,551.8,335,555.4,331.8z" />
	<path display="inline" fill="#544492" d="M504.4,383c-8,0.1-16,1.6-24.1,0.9C487.7,382.9,497.2,380.8,504.4,383z" />
	<path display="inline" fill="#1C182B" d="M545.1,356.3c-3,2.2-2.6,6.6-5.9,8.7c-0.3-0.3-0.7-0.7-1-1c1.1-2.9,3.4-5.2,3-8.6   c1.2,0,2,0,2.8,0C544.4,355.6,544.8,355.9,545.1,356.3z" />
	<path display="inline" fill="#544492" d="M520.8,379.3c-0.1,0.8-0.1,1.6-0.2,2.4c-4,1.6-8.2,1.5-12.3,1.3   C512.2,381.8,516.7,380.6,520.8,379.3z" />
	<path display="inline" fill="#26213D" d="M478.3,340.6c0,1.5-0.1,2.9,1,4c-0.6,2-0.3,4.4-1.9,5.8l0,0c-0.4-0.1-0.8-0.2-1.6-0.4   C478,347,476.8,343.6,478.3,340.6z" />
	<path display="inline" fill="#52438F" d="M489.7,354.1c0.6-2.8-0.7-6.3,1.2-8.6C490.3,348.1,492.4,352.8,489.7,354.1z" />
	<path display="inline" fill="#6A5AA5" d="M477.4,350.3c0.3-0.4,0.6-0.7,1-1.1C478,349.6,477.7,350,477.4,350.3z" />
	<path display="inline" fill="#1C182B" d="M544.1,354.2c0.8,0.4,0.8,0.7,0,1C544.1,354.9,544.1,354.6,544.1,354.2z" />
	<path display="inline" fill="#612F31" d="M317.8,390.4c-1.5,1.7-2.7,1.5-4.2,0.8C314.5,389.3,315.8,390,317.8,390.4z" />
	<path display="inline" fill="#683639" d="M341.5,395.7c-0.7,0.3-1.2,0.7-1.6-0.3C340.7,395,340.9,394.5,341.5,395.7z" />
	<path display="inline" fill="#382C2E" d="M338.5,399.8c-0.8,1.7-1.6,0.7-2.7,0.4C336.8,399.2,337.6,399.2,338.5,399.8z" />
	<path display="inline" fill="#736A6F" d="M344.9,392.2c-0.3,0.6-0.7,0.6-1.2,0.2C344,391.8,344.3,391.9,344.9,392.2z" />
	<path display="inline" fill="#523638" d="M313.3,394.3c-0.5,0.5-1,0.5-1.5,0.1C312.3,393.9,312.7,393.7,313.3,394.3z" />
	<path display="inline" fill="#07151C" d="M141.5,418.1c3.8,7.1,3,19-2.8,24.7c2.9-8.4,1.5-16,0.9-24.6   C140.3,418.2,140.9,418.1,141.5,418.1z M142.1,431.1c0.5-3.3,0.7-5.5-0.2-7.6C141.6,425.6,141.4,427.8,142.1,431.1z" />
	<path display="inline" fill="#0D2935" d="M90,391.5c-1.6,6.5-1.8,11.8-3.8,18.1C83.4,404.8,86.1,395.3,90,391.5z" />
	<path display="inline" fill="#0B181E" d="M104.9,379.2c2.1,0.7,6.2,0.8,5.8,3.9c-3.8-0.9-7.8-0.7-11.9-1.8   C100.7,378.7,103,379.7,104.9,379.2z" />
	<path display="inline" fill="#123544" d="M96.4,433.1c2.8,0.4,2.5,2.8,3.4,4.4c2,3.8,4,7.5,6.7,10.9   C101.8,447.9,98.2,437.4,96.4,433.1z" />
	<path display="inline" fill="#113545" d="M110,434.9c2.3-0.2,2.9,1.8,3.8,3c3.8,5.3,4.2,6.3,4,8.6   C116.1,445.2,111.8,438.8,110,434.9z" />
	<path display="inline" fill="#102B36" d="M137.9,409.2c-0.8-2.8-1.4-3.9-1-7.2c2.8,4.8,4.7,8.9,3.6,13.7   C137.8,414.4,139.8,411,137.9,409.2z" />
	<path display="inline" fill="#113747" d="M149.3,419.7c0.5,0.1,0.9,0.2,1.6,0.3c0.5,3.6,0.8,7.3-0.1,10.9   C147.6,429.8,150,422.9,149.3,419.7L149.3,419.7z" />
	<path display="inline" fill="#11262F" d="M114.6,386.1c2.7-2.1,5.4,0,7.9,2.5c-0.1,1.4-1.1,1.3-2.1,1.3   C118.4,388.7,116.4,387.5,114.6,386.1z" />
	<path display="inline" fill="#174255" d="M60.8,405.6c5.7,1,8.7,2.4,12.7,5.6C68.2,409.7,65.5,409.4,60.8,405.6z" />
	<path display="inline" fill="#0E2D3A" d="M146.6,408.1c-1.2-2.9-2.3-5.8-3.6-9.1c0.4-0.1,0.9-0.3,1.5-0.4c1.5,2.9,3.1,5.7,3.7,9.2   C147.7,407.9,147.2,408,146.6,408.1z" />
	<path display="inline" fill="#14313F" d="M61.7,428.9c4.6-1.9,9.1-1.3,13.6-0.6C70.8,428.6,65.9,429.2,61.7,428.9z" />
	<path display="inline" fill="#133C4D" d="M99.6,387.4c-0.7,2.5-0.9,5.1-3.1,7.4C95.9,391.3,97.2,389.1,99.6,387.4z" />
	<path display="inline" fill="#0B212B" d="M94.7,424.8c2.1,1.2,2.1,1.2,3.2,4.2C95.7,431.1,93,426.8,94.7,424.8z" />
	<path display="inline" fill="#12303E" d="M116,416.7c2.1-2.4,4.9-3.4,7.6-4.7C122.8,414.6,119.8,416.4,116,416.7z" />
	<path display="inline" fill="#174052" d="M84.4,445.5c0.9-2.3-0.8-5.3,1.9-7.2C87.1,441.3,86,443.5,84.4,445.5z" />
	<path display="inline" fill="#0E1216" d="M85.7,380.1c0.4-3.1,5.2-1.8,7.4-1.6c0,0.1,0,0.3,0,0.4C90.6,379.4,88.1,379.8,85.7,380.1   z" />
	<path display="inline" fill="#226785" d="M105.8,392.6c0.7,0.6,1.2,1,2,1.8C106.1,394.8,105.5,394.4,105.8,392.6z" />
	<path display="inline" fill="#080605" d="M662.9,202.5c-1.7,7.5-7.1,13.8-8.7,21.7c-4.5-4.7-0.9-10.1,0.2-15.8   c7.5-4.7,14.1-20.3,22.7-20.8C675.3,190.8,668,198.4,662.9,202.5z" />
	<path display="inline" fill="#231B18" d="M650.1,235.6c-2.8,2.2,1.7,4.9-0.9,7.5c-2.9-2.3-3.5-7.7,0-9.5c0.1-2.2-0.4-4.7,0.9-6.7   C650.2,229.8,650.1,232.7,650.1,235.6z" />
	<path display="inline" fill="#1A1311" d="M650.1,235.6c0-2.9,0-5.9,0-8.8c0.3-0.3,0.6-0.5,1.3-1.1c1.3,3.6,1,6.9,0.4,10.7   C651.1,236.1,650.6,235.9,650.1,235.6z" />
	<path display="inline" fill="#5F473E" d="M671.3,206.7c-0.6,0.3-1.2,0.6-1.8,1c-0.1-3.8,1.7-6.7,4.4-9.7   C674.2,201.6,671.1,203.2,671.3,206.7z" />
	<path display="inline" fill="#291E1A" d="M706,305.4c-2.7-0.6-4.5-2.1-5.5-4.5C702.8,299.7,705.1,303.3,706,305.4z" />
	<path display="inline" fill="#2F221D" d="M707.3,301.9c2.8,1,3.7,3,6.1,4.9C709.4,307.2,708.6,305.6,707.3,301.9z" />
	<path display="inline" fill="#2C1F1C" d="M742.2,331.1c1.4,1.9,1.8,3.7,1.9,5.8C741.6,335.2,741.1,333.8,742.2,331.1z" />
	<path display="inline" fill="#1B1311" d="M647.1,253.7c-1.9-2.3-1.9-2.3,0-4.2C647.1,251,647.1,252.3,647.1,253.7z" />
	<path display="inline" fill="#533E36" d="M645.7,257.2c1.8,0.8,1.9,1.8,0.9,3.4C644.6,259.8,645.4,258.5,645.7,257.2z" />
	<path display="inline" fill="#45342E" d="M738.7,326.4c2.6,2.4-1.4,3.8-0.7,0.3C738.3,326.6,738.5,326.5,738.7,326.4z" />
	<path display="inline" fill="#442F2A" d="M716.9,304.2c-1.3,0.8-1.5,0.6-1.9-0.5C715.9,303,716.1,303.5,716.9,304.2z" />
	<path display="inline" fill="#060403" d="M285.4,436.3c1.5,3.3-3.1,8.7-6.6,10c-2.6,7.7-13.2,10.8-20.3,10.6   c2.4-6.7,11.6-5.8,16.9-9.9C274.5,440.7,282.5,440.3,285.4,436.3L285.4,436.3z" />
	<path display="inline" fill="#30231F" d="M310.8,454.1c2.3-0.7,4.2,0.4,6.5,1.1C315.9,456.9,310.3,457.6,310.8,454.1z" />
	<path display="inline" fill="#332622" d="M392.6,461.6c-3.3,1.8-6,3.2-9.9,2.3C386,462.4,388.6,460.7,392.6,461.6z" />
	<path display="inline" fill="#170F0E" d="M257.1,454.5c-2,3.3-2,3.3-4.3,2.4C254.3,453.3,254.8,453,257.1,454.5z" />
	<path display="inline" fill="#1D100E" d="M373.6,466.4c2.4-1.3,4.5-1.1,7.6-1.7C378.8,467.5,376.3,467.5,373.6,466.4z" />
	<path display="inline" fill="#050202" d="M224.3,460.2c-4,0.1-6.8,0.2-10.8-1.2c4-1.9,7.4-1.7,11.1-0.7   C224.5,459.1,224.4,459.7,224.3,460.2z" />
	<path display="inline" fill="#0E0707" d="M233.3,457.1c-2.6,1.9-4.9,1.4-8.1,0.1C228.3,455.9,230.6,454.9,233.3,457.1z" />
	<path display="inline" fill="#1E1A1B" d="M239.2,452.4c-0.2,3.2-4.5,4.5-5.5,1.6C235.3,453.3,236.9,452.5,239.2,452.4z" />
	<path display="inline" fill="#33201C" d="M172.5,360c-2.3,1-4.7,1-7.2,0.9c-0.1-0.2-0.1-0.4-0.2-0.6   C167.2,358.9,170.5,357.8,172.5,360z" />
	<path display="inline" fill="#332521" d="M164.3,358.5c-2.3,1.5-3.6,2.8-6,2.3C159.5,358.5,161,357.7,164.3,358.5z" />
	<path display="inline" fill="#2E2526" d="M442.8,368.6c1.1-3.7,1.3-3.9,5.2-3.5C446.2,366.3,444.5,367.4,442.8,368.6L442.8,368.6z" />
	<path display="inline" fill="#0F2830" d="M131.5,394.9c0.5,0.5,0.9,0.9,1.2,1.3C131.6,398.7,129.2,396.1,131.5,394.9z" />
	<path display="inline" fill="#091114" d="M128.1,393.8c-0.9-0.4-1.7-0.9-2.7-1.4C127.1,391.1,127.9,391.9,128.1,393.8z" />
	<path display="inline" fill="#257088" d="M109.8,381c-0.3-0.2-0.7-0.5-1-0.7C109.2,380.5,109.5,380.7,109.8,381z" />
	<path display="inline" fill="#2E2646" d="M469.4,342.7c1.8,0.6,3.6,1.3,5.8,2.1C471.3,345.9,471,345.8,469.4,342.7z" />
	<path display="inline" fill="#140C16" d="M470.8,339c1.6,0.6,2.9,1.1,3.6,2.5C471,341.9,471,341.9,470.8,339z" />
	<path display="inline" fill="#7F6256" d="M78.8,360c0.3,0,0.6,0,1,0c0,0.7,0,1.4-0.1,2.1c-0.8-0.2-1.5-0.1-1.8,0.8   c-1.4-1-3.1-1-4.7-0.9C74.4,359.7,77.6,362.4,78.8,360z" />
	<path display="inline" fill="#7F6256" d="M77.9,362.9c1.6,1,0.6,2.6,1,3.8C77.1,365.9,78.1,364.2,77.9,362.9z" />
	<path display="inline" fill="#7F6256" d="M74.1,364.7c-1-0.2-1.1-1-1-1.8C74,363.2,74.1,363.9,74.1,364.7z" />
	<path display="inline" fill="#7F6256" d="M73.1,362.9c-0.2-0.2-0.4-0.3-0.6-0.5c0.2-0.1,0.5-0.2,0.7-0.3   C73.1,362.4,73.1,362.6,73.1,362.9z" />
	<path display="inline" fill="#7F6256" d="M75.9,366.8c-0.3-0.3-0.6-0.7-0.9-1C75.3,366.1,75.6,366.5,75.9,366.8z" />
	<path display="inline" fill="#7F6256" d="M76.9,367.9c-0.3-0.4-0.6-0.7-0.9-1.1C76.3,367.1,76.6,367.5,76.9,367.9z" />
	<path display="inline" fill="#7F6256" d="M75,365.8c-0.3-0.3-0.6-0.6-0.9-1C74.5,365.1,74.7,365.4,75,365.8z" />
	<path display="inline" fill="#261F38" d="M548,346.4c0.3,0.7,0.6,1.4,0.8,2.1C547.8,348.1,547.8,347.3,548,346.4z" />
	<path display="inline" fill="#1C182B" d="M546.9,356.1c-0.3-0.1-0.7-0.1-1-0.2C546.4,355.1,546.7,355.3,546.9,356.1z" />
	<path display="inline" fill="#050303" d="M366.4,439c0.8-0.5,1.3-0.7,2.4-0.7c-3,5.3-8.2,8.9-13.2,12.1c-3,0.9-18.3-0.2-11.7-5.2   C351.7,445.2,359.9,442.9,366.4,439z" />
	<path display="inline" fill="#2A201C" d="M151.3,305c0.7,0.7,1.3,1.3,2,2c-2.6,4.5-5.2,9-7.8,13.5c-0.3-0.3-0.6-0.7-0.9-1   c0.7-2.3,1.4-4.5,2.2-7.1C149.2,310.8,151.3,308.6,151.3,305z" />
	<path display="inline" fill="#796257" d="M111.7,289.5c0,0.3,0,0.7-0.1,1c-0.6-0.4-1.2-0.9-1.7-1.3c0.4-2.5,0.4-3.9,1.2-6.3   C112,285.5,111.6,287.5,111.7,289.5z" />
	<path display="inline" fill="#4F4039" d="M90.5,325.2c-2.6-2.5,0.9-7.3,0.2-10.7c0.2-0.9,0.9-1.5,1.8-0.8   C91.2,317.5,91.6,321.4,90.5,325.2z" />
	<path display="inline" fill="#103444" d="M142.1,431.1c-0.7-3.3-0.5-5.4-0.2-7.6C142.8,425.6,142.6,427.7,142.1,431.1z" />
</g>
</svg>