<?xml version='1.0' encoding='utf-8'?>
<svg xmlns="http://www.w3.org/2000/svg" version="1.2" baseProfile="tiny" id="Layer_2_1_" x="0px" y="0px" viewBox="0 0 900 600" overflow="visible" xml:space="preserve">
<g id="b">
	<path display="inline" d="M352.4,106.2c0.4-3.4,0.8-6.8,1.2-10.1c-1.1-1.3-2.6-1.1-4-1.3c-0.6-0.6-0.6-2-2.2-1.3   c0.5,0.5,0.9,0.9,1.3,1.3c0.2,0.9,1,1.6,0.7,2.8c-2.4-1.6-4.1-2.5-6.1-4.2c-0.3,1-0.6,2-1,3.2c-1.1-1.1-1.6-2.4-3.1-2.6   c-0.3,0-0.5-1-0.8-1.8c-3.8,0.1-7.8,1-7.5-4.3c-0.1,0-0.3,0-0.4,0c-0.1,0.6-0.2,1.2-0.3,1.9c-0.4,0.3-0.5,0.5-1.2,0.4   c-0.4-1-0.8-2.1-1.3-3.4c-0.8-0.6-1.7-1.3-2.7-2.1c-0.7,0-1.4,0-2.2,0c-2.5-6.2-4.8-2.7-3.2-10.7c-2-0.6-2.4,1.5-3.6,1.8   c-1.7-1-0.4-3.2-1.2-4.7c-1.5-2.4,1.7-4,0.8-5.9c-1.7,0.2-2.2,2.1-3.6,3c-3.8-3.1-0.3-7.1-0.5-10.9c0.9-0.6,2.2-0.7,3.1-2.3   c-1.4,0.5-2.6,0.4-3.1,1.7c-0.5,0.1-1,0.2-2.1,0.5c2.3-3.8,0.6-8.6,4.7-11.3c0.3-1.7,0.5-3.3,0.8-5.2c-2.4,0.9-1.8,3.8-3.7,5.2   c-1-3.5-1.8-8.1,2.7-8.8c0.6-2.4,1.4-5.1,0.9-7.6c0.2,0,0.4,0,0.3,0c-0.1,0.1-1.3,0.3-1.8,0.4c-1.8-3.2,2.7-4.9,3.1-7.7   c1.5-0.6,2.8-1,4.1-1.5c1.8-3.3,4.3-6.1,5.9-9.7c-1.6-4.2,8.3-5.6,11.2-4.8c0.2-1.9,1.2-3.9,3.4-3.7c1.3,0.2,1.6-1.5,3.1-1.2   c0.3,0.6,0.6,1.4,1,2.3c3.2-1.3,6.8-1.4,10-3.6c0.8,0.5,1.6,1,2.3,1.5c2.3-1,7.9-3.2,6.8,1.5c-0.4,0.3-0.9,0.7-1.4,1.1   c0.8,0.5,1.3,0.4,1.4-0.4c1.1-0.4,1.7-1.3,1.7-2.5c1.6-1.3,3.1-0.9,4.7,0c-0.1,2.2,0.8,4.2,3.3,4.4c0.4-0.4,0.8-0.8,1.2-1.3   c1.9,0.5,3,1.7,4.1,3.1c-0.3,0.7-0.6,1.3-1,2c0.9,0.8,1.7,1.6,2.6,2.4c0,0.6,0,1.2,0,1.9c-1.4,0-2.3-1-3.2,0.5   c0.4,1.8,3.6,1.1,3.3,3.6c-0.5,0.4-1.1,1-1.7,1.4c-0.5,2.5,2.7,3.5,2,6c-0.5,0.3-1.1,0.5-2,0.2c-0.3,0.5-0.7,1-1.2,1.7   c0.7,0.8,1.2,1.5,1.9,2.3c-0.1,0.5-0.1,0.9-0.2,1.4c4.9,1.4,9.5,3.5,13.4,6.9c-0.3,0.3-0.5,0.5-0.8,0.8   c-8.5-2.3-14.8,5.9-15.1,13.6c-1,1.1-0.7,2.7-1.9,3.7c-1,0.8-2,2-2.2,3.2c-0.3,1.4-1.5,2.4-1.3,3.9c0,0.1-0.5,0.3-0.8,0.5   c-0.2-0.4-0.3-0.7-0.4-0.9c-1.6-0.3-3-0.5-4.6-0.8c0.3,0.6,0.3,0.8,0.4,1.4c-1.6-0.5-3.3-0.5-4.9-1.2c-1.1,1.5-0.9,1.8-0.1,3.4   c-1,2.8,0.1,5.2,2.1,7.3c-4.7,3.2,2.1,9.7-2.8,12.1c-1.8-1-1-3.6-2.8-4.9c-1,3.1,1.5,4.1,2.5,6.3c0.5,1.9-0.3,3-2.3,3   c-0.6,0-1.3-0.8-1.9-0.1c0,6.5-1.2,12.7-2.9,18.9c-0.3,0-0.5,0-0.8,0C352.4,107.2,352.4,106.7,352.4,106.2z M367.7,38.5   c-1.7,1.3-0.1,4.3-1.1,6c-1.2,2.8-1.4,2.7-1.2,4.7c0,2.2,1.1,5.1-0.6,6.8c-1.7,0-1.3-1.6-2.3-2.4c0.7,2-0.2,4.1,0.2,5.9   c1.9,0.5,3.6,0.9,5.4,1.3c5.7-9.2,9.2-18.7,17.2-26.4c-5.2-1.5-9.6-4.5-15-3.8c0,0.6,0,1.2,0,1.9c-0.7,0.6-1.5,1.3-2.4,2   C367.9,35.9,367.8,37.2,367.7,38.5z M326.2,75.2c-0.6,1.6-0.4,2.8-0.1,4.7C326.6,78,326.7,76.8,326.2,75.2z M359.4,73.9   c-1,1.3-1,1.3,0.1,2.2c0.3-0.3,0.6-0.7,0.9-1.1C360,74.5,359.7,74.2,359.4,73.9z M352,91.1c0,1.7,0,1.7,1,1.7   C352.7,92.3,352.3,91.7,352,91.1z M345.4,55.1c-0.5-0.5-0.9-0.9-1.3-0.4C344.3,55.6,344.5,55.6,345.4,55.1z M375.1,7.6   c0,0.1,0,0.2,0,0.3c0.3,0,0.7,0,1,0.1c0-0.1,0-0.2,0-0.4C375.8,7.6,375.5,7.6,375.1,7.6z M353.4,91.4c0.1,0.2,0.2,0.3,0.3,0.5   c0.4-0.2,0.1-0.4,0-0.7C353.5,91.2,353.5,91.3,353.4,91.4z M335.5,90.2c0.1-0.1,0.1-0.1,0.2-0.2c-0.1-0.2-0.2-0.2-0.4,0   C335.4,90.1,335.5,90.1,335.5,90.2z M377.7,30.1c-0.1-0.1-0.1-0.1-0.2-0.2c0,0.1,0,0.3,0,0.4C377.5,30.2,377.6,30.2,377.7,30.1z" />
	<path display="inline" fill="#010101" d="M507.1,530.3c-1,3.8-1.5,9.6-5.6,11.2c-0.6-0.4-1.3-0.8-2-1.2   c-5.6,19.6-8.9,41.4-20.7,58.4c-1.2,0.1-2.9,0.2-4.6,0.3c-4.4-6.7,1.1-14.7,2.5-21.7c5.4-25.3,12.2-51.8,8.8-77.7   c-8.8-41.3-27-80-33.1-122.1c-1.8-15.6-13.3-62.1,2.2-70c0.3-1-0.4-1.4-1-1.7c-9.7-1.2-13.8-9.8-18.2-17.3c0.5-1.1,0.9,0,1.4,0   c5.2,6,7.9,15.1,17.3,15.4c3.6,3.4,5,8.5,8.8,11.9c-0.3,0.3-0.6,0.6-0.8,0.9c-2.9-1.6-4.3-4-6.2-6.9c-0.8,0.6-1.4,1.1-1.9,1.6   c-0.2,0-0.4,0.1-0.5,0.3c-0.2,0.1-0.3,0.2-0.5,0.2c0.6,0.3,1,1,1.7,1.1c0.3,0.2,0.5,0.5,0.8,0.7l0,0c0,0.3-0.1,0.7-0.1,1.2   c-12.5-6.5-2.2,25.5-2.5,31.1c1.7,1.5,3.4,1.6,5.3,1.4c0.7-0.6,1.4-1.3,2.1-1.9c2.7,1.4,6.2-6.8,8.6-8.5c5.1-7.3,12.3-13.4,16.8-21   c1.4-7.8,1.7-32.5-11.2-20.5c-0.3-0.7-0.5-1.5-0.8-2.2c2.1-1.8,5.2-2.6,7.7-3.7c8.7,3.1,5.5,15,6.7,22.4c0.2,5.2-3.3,9.1-6.4,12.6   c2.3,34.9,15.1,68.5,29.9,100c3.1-2.6,6.6-4.5,10.7-4.1c27.4,0,54.9,0,82.3,0.1c17.8-3.4,19,16.6,25.1,28l0,0   c-0.5,1.1,0.7,1.2,0.8,1.9c1,1,0.1,2.5,1.3,3.2c-0.4,1,0.8,1.2,0.8,2c-0.1,0.7-0.2,1.3,0.6,1.6c0.4,0.6,0,1.5,0.1,2.2   c-0.2,0-0.5,0-0.7,0c0.3-1-0.8-1.2-0.8-2.1c0.4-1-0.7-1.3-0.8-2.1c-1-0.9-0.1-2.5-1.4-3.1c-11.5-19.4-4.8-32.5-32.4-29.7   c-25.7,0-51.5,0-77.2,0.1c-14.4,3.6-16.4,27.1-23.2,37.9c0.5,0.4,0.8,0.6,1.2,0.9c-0.9,0.6-1.6,1.1-2.4,1.6   c-0.3,3.7-0.6,7.3,1,10.9c45.5-0.1,91,0.8,136.5,0.5c2.2-3.4,2.3-6.6,0.2-9.9c0.1-1,1.3-2.5-0.1-2.9c0-0.7,0.1-1.4,0.1-2.1   c0.2,0,0.5,0,0.7,0l0,0c-0.1,0.6-0.1,1.2,0.6,1.4c5.8,13.5-1.9,27.8-3,41.5c-3.6,14.4,1.6,29.1,3.2,43.5   c2.3,15.9,5.7,31.5,10.3,46.9c0.7,3.2-1.1,5.3-3.4,7c-10.7,3.8-25.5-63.3-26.7-72.5c-37.3-0.3-74.5-0.1-111.7-0.1   c-3.2,1.3-2.2,7.4-3.7,10.4c0.8,0.6,1.4,1.1,2,1.6c2.5-3.3,2.9-7,4.5-10.6C507.1,528.9,507,529.7,507.1,530.3z M492,562.7   c1.9-11.9,6.4-24,7.9-36c-0.6-0.8-1.1-1.5-1.6-2.2c0.1-0.5,0.1-1,0.2-1.5c1.4,1.8,3.1,3.2,5.5,3c37.5-0.1,75,0,112.5,0   c0.4-0.5,0.8-1,1.1-1.5c0.7,0.3,0.6,0.9,0.7,1.5c-0.5,0.3-0.9,0.7-1.6,1.2c4.3,17.4,6.9,35.5,14.1,52c0.1,0,0.3-0.1,0.4-0.1   c-0.2-1.4-0.5-2.7-0.7-4.1c1.4,1.5,1.7,3.6,2.6,5.5c-0.4,0.3-0.8,0.5-1,0.7c2.8,5.6,3,13.4,8.3,17.2c7.6-3.4-3.8-21.2-3.8-28.9   c-7.1-30.9-10.8-62.3-2.4-93.3c-45.1-0.3-90.1,0-135.2,0c-7,0.1-5.4-9.8-4.9-14.6c1.9-0.8,1.5-2.8,2.2-3.9   c-16-25.6-22.4-55.2-31-83.5c0,0,0,0.1,0,0.1c-0.6-8.2-3.1-16.1-3.2-24c0.2-0.5,0-2.1-1.5-1.8c-1.1,2,0.2,4.2,0.4,6.3   c-0.3,0.3-0.6,0.6-0.9,0.9c-1.4-1.8-0.5-4.1-0.7-6.1c-10.8,1.6-8.3-11.6-10.4-19c1.3,34.4,10.9,68.7,19.3,102.3   c8.1,29.9,23.6,58.6,20.7,90.5c-3.6,19.6-4.3,40.5-11.1,59.1c-0.6,4.4-6.5,12.2-1,15c2.1-0.7,3.4-1.8,3.7-4.3   C483.6,582.7,489.4,573.2,492,562.7z M478.8,334.4c-0.2,0-0.4,0-0.6,0c-0.2-1.1,0.5-5.5-1.5-3.5c-13.8,17.9,19.7,89.6,23.2,115.6   c3.4-6.7,6.3-13.8,10.5-19.8c-14.8-31.3-28.7-65-30.3-99.9C478.2,329.4,479.1,331.6,478.8,334.4z M497,454.8   c4.1-8.8-4.9-22.8-5.8-32.7c-8-27.6-19.4-55-20.6-83.6c-2.5,3-4.9,6.1-7.5,9.2C469.8,384.6,478.8,421.8,497,454.8z" />
	<path display="inline" fill="#020201" d="M417.3,272.5c-2.6-1.2-3.6-3.2-6.1-4.8c-3.7,19.8,2.5,39.1,0.8,58.9   c-0.1,24.8-5.6,49.4-5.7,73.9c1.9,11.4-6.7,20.9-6.8,32c-2.7,26.1-13.3,50.3-16.2,76.4c0.6,0.2,1.2,0.5,2,0.8   c5.6,10.8,3.2,24.8,10.5,34.7c12-0.1,15.8-0.5,15.4,13.1c-9,9.9-38.5,9-41.9-5.7c-3.4-10.1-17.8-5.6-22.3-15.1   c-2.4-3.9-7.6-11.6-2.4-15c6.7-4.3,8.5-15,17.3-16.4c0.7-16.5-0.1-32.9-0.2-49.4c-8.9,8.6-16.9,18.2-27.3,25.2   c-0.6,0-1.1,0-1.3-0.7c14.9-12.5,26.7-28.3,41.7-40.6c0.3,0.3,0.6,0.5,0.9,0.8c-18.6,14.8-9.9,26.6-11.3,46.5   c0.2,6.3-1.4,13.6,0.5,19.4c4.9,2.5,10.4,4.8,16,3.9c6.1-36,17.2-72.2,23-108c0.1-37.3,11.4-74.9,3.6-112c1-8.2,1.9-16.6,1.3-25   c-16.8-14.5-25.4-34.8-38.3-52.2c-7.8-9-15-18.4-21.5-28.4c-0.4-0.6-1-1.1-1.7-0.2c7.2,23,15.5,49.4,2,71.7   c-15.6,20.6-24.5,50-2.3,69.7c0,0.6-0.1,1.2-0.8,1.4c-13.6-10.2-16.9-27.2-13.6-43.2c3.1-14.3,15.5-24.2,18.9-38.6   c8.4-27.6-5.8-55.3-13.3-81.4c0.2-0.1,0.3-0.3,0.5-0.4c2.7,2.7,5.2,18.3,8.2,16.9c-1.7-3.7-3.4-7.5-4.3-11.5   c0.2-0.3,0.5-0.5,0.7-0.8c4.3,9,8.3,18,14.6,25.9c0.8-0.6,1.2-0.9,1.8-1.4c1.3,1.5,2.8,2.5,3.8,4.2c-1.4,0.5-2.1-1.2-3.6-0.7   c20.7,24.6,33.3,54.7,58.7,75.3C418,271.9,417.6,272.2,417.3,272.5z M361.3,507.7c-5.8-2.3-10.9,14.6-17.1,16.1   c0.7,22.3,23.4,13,28.6,31.4c6.9,10.4,48.3,10.1,33.5-8.8c-4-0.4-8,0-12-0.7c-1-1.4-2-2.7-3-4.1c-1.9,0.3-3.1,1.3-4.7-0.2   c1.6-1,2.8-1.9,4.2-2.8c-0.4-0.5-0.7-0.8-0.9-1c-1.8,0.2-4.6,2.6-5.3,0.2c1.2-1.5,3.4-1.6,4.8-3.1c-0.1-0.5-0.2-1-0.4-1.5   c-2.1-0.1-3.8,2.2-6,0.2c1.9-1.1,3.7-2,5.5-3c-0.1-0.5-0.1-0.9-0.2-1.7c-2.9,1-5.8,3.7-8.6,1.2c3.1-1.4,6.6-1.8,8.2-4.8   c-3.8,0.5-5.4,3.3-9.2,1.5c2.5-2.4,7.3-1.6,8.3-5.6c-1-3.3-2.1-6.6-3.1-9.9c-5.1,1-11.3,10.4-16.3,4.7   C365.4,513.4,364.9,508.5,361.3,507.7z M366.6,509.5c0.2,2.8,2.4,3.9,3.6,6.3c2.6,0,4.9-0.9,7.4-3.3   C373.4,511.9,369.9,511.1,366.6,509.5z" />
	<path display="inline" fill="#050403" d="M352.4,107.7c0.3,0,0.5,0,0.8,0c-0.1,1.1-0.3,2.2-0.5,3.6c26.3,1.7,36.6,31.5,58.9,40.3   c-7.1-9.3-17.6-16.4-23.8-26.5c0.3-0.3,0.6-0.6,0.9-0.9c8.3,9,16.4,18.3,25.4,26.4c9.3,7,19.6,19,12.5,31   c-9.3,9.8-6.3,19.3-8.5,31.3c17.3,18.8,23,45.7,41.9,63.2c-0.2,0.4-0.4,0.9-0.6,1.3c-20-15.1-24.2-43.6-41.6-61.3   c-1.6,2.1-2.3,4.6-2.6,9.2c-1.1,1.5-0.5,3.5-1.5,5.1c7.4,16.9,20.8,29.5,30.5,44.7c-0.3,0.3-0.6,0.6-0.9,0.9   c-9.6-11.9-20-23.6-27.1-37.1c-6.6-12.7-9.5-13.7-19.4-23.1c-2.4-19.7-13.4-39.5-20.6-58.6c0.6-1,0.8-2.2,1.9-3.1   c0.9,8.3,2.6,10.5,4.3,12.8c17.5-21.1-14.5-45.2-34-49.3c-2.9,3.1-5.6,6-8.3,9c-0.3-0.3-0.5-0.6-0.8-0.9   c3.8-6.1,10.5-10.7,12.5-17.8C352.1,107.7,352.2,107.7,352.4,107.7z M419.7,188.7c11.7-12.7,7.3-25.4-5.1-35.2   c-25.3-4.3-34.7-40.2-63-40.5c-0.7,0.9-1.6,1.5-1.8,2.7c20.9,5.4,53.5,31.1,33.4,53.3c11.6,19.4,9.8,45.2,29.5,59.2   c0.9-6.4,3.1-12.5,4.1-18.9C417.7,202.3,416.3,194.8,419.7,188.7z" />
	<path display="inline" fill="#020201" d="M315.8,499.4c-1.7,3.2-3.6,6.2-5.5,9.3c0.6,0.9,1.1,1.6,1.7,2.5c-0.1,0.4-0.2,0.8-0.4,1.4   c2,2.3,2.4,5.2,2.2,8.3c-0.6,16.2,6.1,31.1,20.5,39.4c2,4.8-3.6,8.7-7.9,8.8c-15.9,3-31.1-7.9-38.9-21.1c-3.1-5.8-10.4-3.9-15-7.7   c-7-4.1-16.9-8.6-17.9-17.5c7.2-4.4,14.7-9.6,18.3-17.3c4.8,5.8-13.5,15.9-16.6,19.2c5.1,4.1,8.1,10.1,14.7,12.1   c5.1,4.7,13.4,3.6,17.6,9.1c7.9,12.6,22.1,24.3,37.9,20.9c3,0,7-2.9,5.6-6.3c-6.6-3.5-11.8-8.3-15.9-14.4c-1.7,0.2-5.1,2.3-5.5-0.3   c1.2-1.6,3.7-1.1,4.9-3c-0.3-0.7-0.6-1.5-1-2.3c-2.1,0.2-5.6,3.1-6.8,0.6c1.2-2.1,3.8-2.1,5.9-3.3c-0.1-5.7-6.8,2.3-8-1.8   c1.6-2,4.6-1.7,6.5-3.6c-0.2-1-0.3-1.9-0.5-2.8c-3.4,1.2-7,3.4-10.1,0.7c3.5-1.4,6.9-1.7,9.9-3.3c-0.2-1-0.3-1.8-0.5-2.7   c-4.1,1-8.5,3.1-12.4,1.5c3.7-2.8,8.5-2.2,12.4-4c1.4-3.8-1-8.5-4-10.2c-12.4,7.6-21.1,5.1-26.2-8.6c-1.5,0.5-2.8,0.9-4.2,1.4   c-0.3-0.3-0.5-0.6-0.8-0.8c0.9-2.3,3.5-2.1,5.6-2.8c0.5,0.4,1.1,0.8,1.7,1.3c11.3-14.2,23.2-28.5,31.9-44.3   c6.4-12.8,13.2-29.5,26.6-35.7l0,0c0,0.3,0.1,0.6,0.1,0.8c-13.8,11.5-21,28.1-28.7,43.9c-6.6,11.2-15.6,20.4-23,31   c1.2,1,2,2.2,3.3,2.9c3.4,5.1,8.8,6.9,14.3,8.5c2.2-3.9,4.3-7.3,7.2-10.7C315.1,498.7,315.5,499,315.8,499.4z M291.2,502   c-0.6-1.2-1.7-1.9-2.6-2.6c-1.7,1.6-3.3,3.1-4.9,4.7c3.4,9.5,11.7,12.6,19.8,6.2C299,507.9,294.6,506,291.2,502z" />
	<path display="inline" fill="#060504" d="M345.9,327.3c0.7-0.2,0.8-0.8,0.8-1.4c3.4,14.1,0.2,29.7,4.1,44.1   c1.7,14,10.8,29.5,6.1,43.2c-4,3.2-8.3,6.1-13,8c-0.7,0.5-1.3,1-2.3,0.7l0,0c0-0.3,0-0.5,0-0.8l0,0c0.5-0.2,0.8-0.8,1.3-0.8   c0.3-0.2,0.6-0.4,1-0.6c0.6,0.1,1.2,0,1.4-0.7l0,0c0.7,0.1,1.3,0,1.4-0.8c3.1-2.5,6.2-4.9,9.4-7.2c0.5-12.9-4.4-25-6.8-37.4   C346,358.3,345.8,342.7,345.9,327.3z" />
	<path display="inline" fill="#141212" d="M507.1,530.3c-0.1-2.6-3.1-2.5-5.1-2.2c36.9-2.2,75.7-0.2,113.2-0.7   c0.1,0.8,0.1,1.5,0.2,2.2c-0.4-0.6-0.8-1.1-1.1-1.6c-1.2,0-2.2-0.4-3.2,0.5c1.1,3,1.5,6.3,3.9,9c0.8-0.6,1.4-1.1,2-1.5   c1.2,0.8,0.5,1.9,0.7,2.9c-1.4,0-2.8,0-4.1,0c-2.6-3.3-3.1-7.2-4.4-10.7c-3.1-0.5-90.1-0.7-100.8-0.3   C507.9,528.6,507.5,529.5,507.1,530.3z" />
	<path display="inline" fill="#2C2220" d="M392.2,38.5c0.3-0.3,0.5-0.5,0.8-0.8c6.8,5.5,10.1,15.7,7.9,24.1   c-1.3,5.1,11.2,8.8,2.7,13.8c2.2,2.9,1.9,5.8,1.6,9.2c-1.6,3.4-4.8,1.2-3.5,6.4c-0.5,0.5-0.9,1-1.4,1.5c0.2-2.1-0.6-4.3,0.4-6.3   c-0.5-0.4-0.8-0.7-1.2-1c0.5-1.5,2.2,0.4,3,0.7c1.2-1.4,1.2-1.4,0.8-3.7c-2,1.8-4,0-6.1,0.3c-0.2-0.3-0.5-0.7-0.7-1   c2-1.7,9.1,2.9,7.4-2.6c-0.8,0.2-1.6,0.4-2.3,0.6c0.5-0.7,0.9-1.3,1.4-2c-0.4-1.5-1-2.7-2.1-3.8c1.2-1.4,2.9-0.2,4.1-1   c0.6-4.9-7.5-6.8-5.6-12.6c0.3-1-0.5-1.7-1.5-1.5c0.7-0.7,1.4-1.4,2.2-2.2C400,48.7,397.2,43.4,392.2,38.5z" />
	<path display="inline" fill="#191513" d="M339.4,125.5c0.3,0.3,0.5,0.6,0.8,0.9c-3.2,6.4-6.4,14.6-4.2,21.7l0,0   c-0.2,1.1,0.6,1.3,1.2,1.7c1.5,4,2.1,8.6,3.9,12.1c-0.4,2.6,3.4,5.2,1.4,7.2c-2.2-4.3-3.9-9-5.2-13.3c-0.8,0.7-0.4,1.2,0.2,1.7   c-0.1,1.3,0.1,2.5,0.6,3.7c-0.4,0-0.8-0.1-1.2-0.1C333,150.1,332,135.3,339.4,125.5z" />
	<path display="inline" fill="#191312" d="M400.3,92.6c0.5-0.5,0.9-1,1.4-1.5c-0.2,11-17.6-2-19.1,7.3c-2.4,7.1-3.6,16.5,3.3,21.5   c-0.3,0.3-0.6,0.7-1,1c-3.8-1.6-4.7-5.4-6.3-8.7C381.6,80.4,387,100.7,400.3,92.6z" />
	<path display="inline" fill="#2F2521" d="M417.3,272.5c0.3-0.3,0.7-0.7,1-1c4.6,3.3,8.7,7.5,13.3,10.5c0.3-0.2,0.5-0.5,0.9-0.8   c2.7,1.3,4.1,3.4,5.7,5.7c-0.5,0.5-0.9,0.9-1.4,1.4c-0.5,0-0.9-1.1-1.4,0C429.5,283,423.4,277.8,417.3,272.5z" />
	<path display="inline" fill="#151211" d="M315.8,499.4c-0.3-0.4-0.7-0.7-1-1.1c6-6,11.8-12.3,18.2-18c0.2,0.7,0.8,0.7,1.3,0.7   C328.3,487.3,322.4,493.7,315.8,499.4z" />
	<path display="inline" fill="#1C1514" d="M459.5,277.4c0.2-0.4,0.4-0.9,0.6-1.3c4,6.3,9.3,11.3,14.7,16.4c-0.3,0.3-0.6,0.5-0.9,0.8   c-0.2,0-0.4,0-0.6-0.1C467.9,288.6,462.6,284,459.5,277.4z" />
	<path display="inline" fill="#40322D" d="M337.3,157.5c1.8,2.4,2.2,5.9,3.5,8.7c-0.2,0.2-0.4,0.5-0.7,0.7c-0.6-1.1-1.1-2.2-1.7-3.3   c-0.2,0.2-0.4,0.3-0.5,0.4c-0.2-0.5-0.4-1-0.6-1.5C339,161.5,336.7,159.2,337.3,157.5L337.3,157.5z" />
	<path display="inline" fill="#3D3431" d="M384.9,120.8c0.3-0.3,0.6-0.7,1-1c0.4,0.3,1,0.6,1,0.8c-0.1,1.6,1.2,2.4,1.9,3.6   c-0.3,0.3-0.6,0.6-0.9,0.9C386.2,124.1,386,122.2,384.9,120.8z" />
	<path display="inline" fill="#25201C" d="M275.9,503.4c0.3,0.3,0.5,0.6,0.8,0.8c-1,1-2,1.9-2.9,2.9c-0.1-0.7,0-1.4-0.9-1.6   C273.5,504.2,274.4,503.3,275.9,503.4z" />
	<path display="inline" fill="#546060" d="M311.3,56.6c0.5-1.3,1.7-1.3,3.1-1.7c-0.9,1.5-2.1,1.7-3.1,2.3   C311.1,57,311.1,56.8,311.3,56.6z" />
	<path display="inline" fill="#97A5A5" d="M348.7,94.7c-0.4-0.4-0.8-0.7-1.3-1.3c1.7-0.7,1.7,0.7,2.2,1.3   C349.3,94.7,349,94.7,348.7,94.7z" />
	<path display="inline" fill="#818989" d="M330.1,89.6c0.1-0.6,0.2-1.2,0.3-1.9c0.1,0,0.3,0,0.4,0c0,0.6,0,1.3,0,1.9   C330.6,89.7,330.3,89.6,330.1,89.6z" />
	<path display="inline" fill="#556363" d="M364.1,3.7c-0.1,0.8-0.6,0.9-1.4,0.4c0.5-0.4,0.9-0.7,1.4-1.1   C364.2,3.2,364.2,3.4,364.1,3.7z" />
	<path display="inline" fill="#977264" d="M352.4,107.7c-0.2,0-0.4,0-0.5,0.1c-0.2-0.6-0.2-1.2,0.5-1.6   C352.4,106.7,352.4,107.2,352.4,107.7z" />
	<path display="inline" fill="#302320" d="M345.3,418.9c-0.2,0.7-0.8,0.8-1.4,0.7C344.4,419.4,344.8,419.2,345.3,418.9z" />
	<path display="inline" fill="#302320" d="M346.7,418.1c-0.1,0.8-0.7,0.9-1.4,0.8C345.8,418.7,346.2,418.4,346.7,418.1z" />
	<path display="inline" fill="#020201" d="M338,161.2c0.1,0.6,0.1,1.1-0.6,1.4c-0.4-0.4,0-1,0.1-1.4   C337.6,161.2,337.8,161.2,338,161.2z" />
	<path display="inline" fill="#1B1818" d="M632,453.6c-0.8-0.3-0.8-0.9-0.7-1.6C631.6,452.6,631.8,453.1,632,453.6z" />
	<path display="inline" fill="#1B1818" d="M632.7,455.1c-0.7-0.3-0.7-0.8-0.6-1.4C632.2,454.1,632.5,454.6,632.7,455.1z" />
	<path display="inline" fill="#1B1818" d="M633.4,457.2c-0.8-0.3-0.7-0.9-0.6-1.6C633,456.2,633.2,456.7,633.4,457.2z" />
	<path display="inline" fill="#1B1818" d="M629.9,448.5c-0.9-0.3-0.8-0.9-0.7-1.6C629.5,447.5,629.7,448,629.9,448.5z" />
	<path display="inline" fill="#1B1818" d="M634.2,459.4c-0.2,0-0.5,0-0.7,0l0,0c0-0.6,0.1-1.1,0.1-1.7   C633.8,458.3,634,458.9,634.2,459.4z" />
	<path display="inline" fill="#1B1818" d="M634.8,460.8c-0.7-0.3-0.7-0.8-0.6-1.4C634.4,459.9,634.6,460.4,634.8,460.8z" />
	<path display="inline" fill="#1B1818" d="M630.6,450c-0.7-0.3-0.7-0.9-0.6-1.5C630.1,449,630.3,449.5,630.6,450z" />
	<path display="inline" fill="#302320" d="M341.6,421.1c0,0.3,0,0.5,0,0.8c-0.4,0-0.9,0-1.3,0C340.8,421.6,341.2,421.4,341.6,421.1z   " />
	<path display="inline" fill="#302320" d="M343.9,419.7c-0.3,0.2-0.6,0.4-0.9,0.6C343.2,420.1,343.5,419.9,343.9,419.7z" />
	<path display="inline" fill="#1B1818" d="M631.2,451.5c-0.2-0.3-0.3-0.7-0.5-1C630.9,450.8,631,451.1,631.2,451.5z" />
	<path display="inline" fill="#40322D" d="M337.5,161.2c-0.1,0.3-0.2,0.6-0.2,0.9c-0.1-0.3-0.3-0.6-0.4-0.9   C337,161.1,337.2,161.1,337.5,161.2z" />
	<path display="inline" fill="#302320" d="M342.4,420.5c-0.3,0.2-0.5,0.4-0.8,0.5C341.9,420.9,342.2,420.7,342.4,420.5z" />
	<path display="inline" fill="#B28C7D" d="M400.3,92.6c-7,5.6-18.1-10.1-25.6-10.7c-0.8-1.9-1.6-3.9-2.5-6c-0.7,0.5-1.3,1.1-1.9,1.7   c-1.7-0.6-3.1-1.5-4.1-2.9c0.3-0.3,0.6-0.6,0.9-0.9c1.4-0.3,2.7-0.6,4-0.9c0.6-3.6-2.6-1.7-1.1-7.6c-1.3-1-2.5-1.9-3.7-2.8   c-0.1-0.2-0.2-0.4-0.3-0.8c1.6,0.3,3,0.5,4.6,0.8c0.1,0.2,0.2,0.5,0.4,0.9c0.3-0.2,0.8-0.4,0.8-0.5c-0.2-1.5,1-2.5,1.3-3.9   c0.2-1.2,1.2-2.4,2.2-3.2c1.2-1,1-2.7,1.9-3.7c3.2-21.7,23.4-15.7,23.1,4.4c-1.1,1-1.9,2.3-3.5,2.6c-0.5-1.3-2-3-3-1.1l0,0   c-1.1-0.1-1.8,0.5-2.2,1.5l0,0c-0.2,0-0.5,0-0.7,0.1c-0.5,0.7-1,1.3-1.5,2c-0.4,0.2-0.8,0.3-1.7,0.7c1.7,0.4,2.8,0.7,3.9,0.9   c0.5,0.8,1.3,0.8,2.2,0.7c0.4,0.6,0.7,1.2,1.1,1.8c-0.5,0.2-1,0.4-1.4,0.7c0,0.1,0.1,0.3,0.1,0.4c0.7-0.1,1.3-0.1,2.1-0.2   c0.7-3,1.1-5.6,3.3-7.8c0.7,0.3,0.7,0.9,0.6,1.5c-2,5.8,6.2,7.6,5.6,12.6c-1.2,0.8-2.9-0.4-4.1,1c1.1,1.2,1.7,2.3,2.1,3.8   c-0.5,0.7-0.9,1.3-1.4,2c0,0,0,0,0,0c-0.9,0.8-2.4,0.4-2.9,1.5c-0.8-0.1-1.5,0.1-2.2,0.5c0.6,1.3,2.3,1.8,2.4,3.4   c0.5,0.4,1.1,0.8,1.7,1.3C399.7,88.3,400.5,90.5,400.3,92.6z M390.2,55.1c2.6-1.9,5.2,1.1,7.8-0.4c-2.5-4.1-9.9-2.2-10.8,2.6   C388.5,56.3,389.4,55.7,390.2,55.1z M401.1,75.9c-1.2-0.9-1.5-1.1-2.4-1.6c-0.1-1.1,0.6-2.2-0.1-2.6   C397.3,74.3,397.8,75.5,401.1,75.9z" />
	<path display="inline" fill="#977264" d="M374.7,81.8C383.1,84,389.2,93,398.1,94c-10.7,2-16.1-5.9-18.9,10.1   c-5.4-6.3-7.2-15.7-9.6-23.5c-2-0.6-3.6-1.1-5.5-1.7c0.5,11.5-4,22.2-7.2,33.1c-1.4-0.2-2.7-0.4-4.1-0.7c1.1-7.6,3.6-14.7,3.4-22.5   c0.6-0.7,1.2,0.1,1.9,0.1c2.7,0.1,3-2.5,1.6-4.3c5.8-0.7,0.2-7.3,2.4-10.6c1.4-0.4,1.9,0.8,2.6,1.5c2.1,2,4.2,3.8,7.4,3.5   c1.4,4.5,4,7.5,9.2,8.3C378.3,85.2,376.4,84.5,374.7,81.8z" />
	<path display="inline" fill="#9491A0" d="M377.8,43.4c-1,1.7-2,3.4-3,5.1c-3.1-0.4-4.7-3.3-7.1-5.1c0-2.9,0-5.9,0.3-8.8   c0.8-0.7,1.7-1.4,2.4-2c0-0.7,0-1.3,0-1.9c5.4-0.7,9.8,2.3,15,3.8C382.7,37.6,380.1,40.3,377.8,43.4z" />
	<path display="inline" fill="#8F8892" d="M367.7,38.5c0,1.7,0,3.3,0,4.9c2.4,1.8,4,4.7,7.1,5.1c-2,4.2-3.9,8.4-6.7,12.3   c-1.8-0.4-3.5-0.9-5.4-1.3c-0.4-1.8,0.5-3.9-0.2-5.9c1,0.8,0.5,2.4,2.3,2.4c1.7-1.8,0.6-4.6,0.6-6.8c-0.2-2,0-1.9,1.2-4.7   C367.6,42.8,366,39.8,367.7,38.5z" />
	<path display="inline" fill="#261C19" d="M366.2,62.4c1.2,0.9,2.4,1.8,3.7,2.8c-1.5,6,1.7,4,1.1,7.6c-1.2,0.3-2.6,0.6-4,0.9   c-1.4-1.8-7.2-4.6-3-7c0.4,0,0.9,0.1,1.7,0.2c-0.8,0.8-1.3,1.4-1.9,2c1.9,1.6,3.1,4,5.8,3.2c-0.5-1.7-0.5-1.7-2-1.3   c-0.1-0.3-0.3-0.6-0.4-0.9c0.6-1.3,1.1-2.6,1.7-4c-1-0.8-1.9-1.5-2.8-2.3C366.3,63.2,366.2,62.8,366.2,62.4z" />
	<path display="inline" fill="#17100E" d="M375.6,84.6c-2.4-0.9-2.5-3.5-3.6-5.6c-3.2,0.3-5.3-1.6-7.4-3.5c-0.7-0.7-1.2-1.9-2.6-1.5   c0.4-0.5,0.9-1.1,1.3-1.6c2.5,1.6,4,4.1,7,5.1c0.6-0.7,1.2-1.2,1.9-1.7c1.3,3,2,5.8,4.1,8.2C376.1,84.2,375.8,84.4,375.6,84.6z" />
	<path display="inline" fill="#7D645A" d="M366.2,62.9c0,0.2,0,0.5,0,0.7c-1.4,0.5-1.6,1.9-2.1,3c-0.3,0.2-0.5,0.3-0.8,0.5   c-0.5-1-1.4-0.6-2.2-0.7c0-1.6,0.9-2.9,1.5-4.3C363.8,62.4,365.1,62.6,366.2,62.9z" />
	<path display="inline" fill="#9F7F72" d="M361.1,66.5c0.8,0.1,1.7-0.3,2.2,0.7c-2.6,2.8,2.6,4.7,3.8,6.5c-0.3,0.3-0.6,0.6-0.9,0.9   C363.8,72.8,359.7,69.9,361.1,66.5z" />
	<path display="inline" fill="#4F3F37" d="M360.5,84.5c-0.3,0-0.6,0.1-0.9,0.1c-1.7-1.2-2.5-2.7-1.9-5   C359.5,80.9,358.7,83.5,360.5,84.5z" />
	<path display="inline" fill="#27221E" d="M362.6,62.2c-0.5,1-0.9,2-1.4,2.9c-0.7-1.6-1-1.9,0.1-3.4   C361.8,61.9,362.2,62.1,362.6,62.2z" />
	<path display="inline" fill="#313232" d="M326.2,75.2c0.5,1.6,0.4,2.8-0.1,4.7C325.8,78,325.6,76.8,326.2,75.2z" />
	<path display="inline" fill="#42352E" d="M359.4,73.9c0.3,0.3,0.6,0.6,1,1.1c-0.4,0.4-0.6,0.8-0.9,1.1   C358.4,75.2,358.4,75.2,359.4,73.9z" />
	<path display="inline" fill="#646464" d="M352,91.1c0.3,0.6,0.7,1.1,1,1.7C352,92.9,352,92.9,352,91.1z" />
	<path display="inline" fill="#3B2F2A" d="M345.4,55.1c-0.9,0.6-1.1,0.5-1.3-0.4C344.5,54.2,344.8,54.6,345.4,55.1z" />
	<path display="inline" fill="#447777" d="M375.1,7.6c0.3,0,0.7,0,1,0c0,0.1,0,0.2,0,0.4c-0.3,0-0.7,0-1-0.1   C375.1,7.8,375.1,7.7,375.1,7.6z" />
	<path display="inline" fill="#B9DFDF" d="M353.4,91.4c0.1-0.1,0.2-0.2,0.3-0.2c0.1,0.3,0.4,0.5,0,0.7   C353.5,91.7,353.4,91.5,353.4,91.4z" />
	<path display="inline" fill="#5B6969" d="M335.5,90.2c-0.1-0.1-0.1-0.1-0.2-0.2c0.2-0.2,0.3-0.2,0.4,0   C335.7,90.1,335.6,90.2,335.5,90.2z" />
	<path display="inline" fill="#B28C7D" d="M377.8,43.4c0.1-0.2,0.3-0.4,0.4-0.6C378.1,43,378,43.2,377.8,43.4z" />
	<path display="inline" fill="#4E6161" d="M377.7,30.1c-0.1,0.1-0.2,0.1-0.2,0.2c0-0.1,0-0.3,0-0.4C377.5,30,377.6,30,377.7,30.1z" />
	<path display="inline" fill="#A39893" d="M629.1,450.2c1.5,3.6,2.9,7.1,4.4,10.8c0,0.2-0.1,0.4,0,0.5c-2.6,0.6-4.9-1.4-7.4-0.3   c-0.4-0.4-0.9-0.7-1.3-1c-40.8,0.6-81.9-1.6-122.5,0.7c-1.8,1-3,0.6-3.8-1.7c4.6-11.6,8.7-33,22-36.7c25.7-0.1,51.5,0,77.2-0.1   C624.8,420.2,617.4,430.4,629.1,450.2z" />
	<path display="inline" fill="#B28C7D" d="M438.3,286.9c-2.7-3.1-2.6-6-7.2-8.6c-2.6-2.7-6.3-11.1-10.7-6.6   c-12.1-12.8-23.6-25.6-32-41.2c0.4-0.4,0.7-0.6,0.9-0.8c2.1,0.4,3.9,1,5.6,2.4c0.9-0.9,1.5-1.7,2.4-2.6   c-6.1-6.2-16.2-7.4-20.1-15.7c-2.8-4.6-6.8-8.4-8.9-13.4c1.9-0.5,4.1,0.8,4.9-1.1c-9.2-7.6-17.6-16.1-20.7-28.3   c3.4,0.6,6.1,2.2,9.3,0.4c-1.2-1.4-2.3-2.5-3-4.1c-2.5-6.3-10.2-8.2-13.7-13.9c-6.9-10.6-5.8-26.4,4-34.7   c19.1,1.7,50.5,28.9,33.1,48.2c-1.7-2.3-3.4-4.5-4.3-12.8c-1,0.9-1.3,2.1-1.9,3.1c7.2,19.1,18.1,38.9,20.6,58.6   c25.4,22.3,35.6,58.9,65.4,77.5c-0.5,0.9-1.4,2.3-0.1,2.9c3.1,6.2,9.4,11.5,9.4,18.7c-0.5,0-1.1,0-1.7,0   c-3.3-6.6-4.7-13.8-10.7-18.7c1.8,6.3,7.1,10.5,8.1,17.3c-0.7,1.4-1.4,0.1-2.1,0c-1.9-3.3-5.8-16.3-10.2-15.3   c3.9,4.9,8.1,11.2,8,17.4c-3.8-3.4-5.2-8.6-8.8-11.9c0-0.8-0.5-1.3-1.2-1.6C446.2,299,442.2,292.3,438.3,286.9z M453.2,295.5   c-0.6-2.4-0.6-2.4-2.6-2.2C451.3,294.2,451.7,295.4,453.2,295.5z M378.3,153.1c1.4-0.7,1.4-0.9,0.1-2.8   C377.5,151.3,377.7,152.2,378.3,153.1z M457,292.6c-0.2,1.2-0.2,1.2,1.3,1.9C458.5,293.3,458.5,293.3,457,292.6z M393.1,212.6   c0.1,1.4,0.6,1.9,1.8,1.9C395,213.2,394.5,212.7,393.1,212.6z M448.4,290.1c-0.1-0.1-0.1-0.1-0.2-0.2c0,0.1,0,0.3,0,0.4   C448.3,290.2,448.3,290.1,448.4,290.1z" />
	<path display="inline" fill="#8F8580" d="M467.4,382.1c0.7,0.6,0.7,1.4,0.7,2.2c-1.4,0.9-0.6,6.6,0,8c-1.1,1.1-0.5,2.8,0.8,3.6   c1.5,2.7,1.1,6.2,3.6,8.6c-2.1,2.4,2.7,12.9,3.8,16.2c0.2-0.1,0.4-0.2,0.5-0.3c1.6,3.5,2.5,7.9,4.3,11.5c-0.8,0.9,0.5,2.9,1.5,3.6   l0,0c0,1.4,0.1,2.8,1.5,3.6l0,0c0.2,2.8,1.1,5.8,3.6,7.3l0,0c0,0.8-0.2,1.7,0.7,2.2c0.8,3.8,3.1,7.1,4.4,10.8   c-1,0.9-0.3,1.7,0.3,2.6c0.5-0.2,0.8-0.3,1.1-0.4c-0.5,4.7-2.1,14.7,4.9,14.6c45.1,0,90.1-0.3,135.2,0c-0.1,1.8,0.4,3.5-0.6,5   c-3.7,0-7.4,0-11,0c-0.5,0.8-0.9,1.5-1.4,2.2c0.5-4.2-5.1-3.5-7.9-3.8c-36,0.1-72,0.1-108,0.2c-3.7,0-7.2,0.8-9.6,3.9   c2.9,15.9,0.3,33,1.3,48.2c-0.4,0-0.7,0.1-1.1,0.1c-0.3,6.1-8.3,30.8-4.6,33c-0.2,0.6-0.4,1.1-0.6,1.7c-0.2-0.2-0.4-0.4-0.5-0.6   c-0.6,0.9-1.2,1.7-1.8,2.5c-0.2,0-0.4-0.1-0.7-0.1c0,0.5-0.1,1.1-0.1,1.6l0,0c-2,2.8-3.1,6-3.6,9.4l0,0c-0.8,0.2-0.7,0.9-0.7,1.5   c-0.2,0.3-0.4,0.5-0.7,0.8c0,0.7-0.1,1.4-0.1,2.1l0,0c-1.2,0.8-2,2.5-0.7,3.5c-0.5,3.5-0.9,9.1-5,10.1c-5.5-2.6,0.4-10.7,1-15   c6.7-17.8,7.1-37.9,10.9-56.6c4-32.7-12.1-62.3-20.4-93c-7.2-28.3-15-56.7-17.6-85.8c0.3-0.3,0.6-0.6,0.8-0.8   c2,4.3,4.5,2.7,7.9,3.3c0.8,11,3.4,22.3,6.5,32.8c0.1-3.1-0.3-5.1-0.6-8c1.5,1.9,1.3,5,2.1,7.3c-0.8,0.5-0.7,1.1-0.2,2   C467.2,382.8,467.3,382.5,467.4,382.1z" />
	<path display="inline" fill="#8F8580" d="M498.3,459.2c0.9,2.3,1.9,2.7,3.8,1.7c0.3,0.4,0.7,0.9,0.8,1c40.5-1.4,81.5,0.4,121.8-0.7   c0-0.3,0-0.7,0-1c0.4,0.3,0.8,0.7,1.3,1c0.3-0.1,0.8-0.2,1.2-0.3c0,0.4,0,0.8,0,1.1c1.1,0.4,2.7,1.1,3.5-0.5c0.7,0,1.5,0,2.2,0   c0.1,1-0.5,2.3,0.7,2.9c2.1,3.3,2,6.5-0.2,9.9c-45.5,0.3-91-0.6-136.5-0.5c-1.6-3.6-1.3-7.2-1-10.9c0.7-0.5,1.5-1,2.4-1.6   c-0.4-0.3-0.7-0.6-1.2-0.9C497.5,460,497.9,459.6,498.3,459.2z" />
	<path display="inline" fill="#A39893" d="M621.2,483.2c0.4-0.7,0.8-1.3,1.4-2.2c3.6,0,7.3,0,11,0c-9.9,36.1-1.3,74,9,109   c1.1,3.8,1.9,5.5-2.1,8.2c-5.4-3.8-5.5-11.6-8.3-17.2c0.2-0.1,0.6-0.4,1-0.7c-0.8-1.9-1.2-3.9-2.6-5.5l0.1,0.1   c-0.4-1.4,0.8-3.5-0.8-4.3l0,0c-0.5-1.6-0.2-3.9-1.4-5.1c-4-13.6-4.9-28.8-8.8-41.3c0.5-2.1,0.4-4-1.4-5.6c3-5.2,0.7-11.7,1.6-17.4   C621.3,495.8,620,489.1,621.2,483.2z" />
	<path display="inline" fill="#8F8580" d="M509.3,428.4c-3.2,5.8-6.3,12-9.3,18.1c-3.5-25.8-37-97.9-23.2-115.6   c0.4,0.5,0.9,1,1.3,1.4c0.4,3.7-0.5,8.6,2.2,11.4c0.3-5.7-3.6-11.6,0-16.9c-0.2,7.7,1.1,14.6,2.2,22.1c-0.2,0-0.4,0-0.6,0   c-0.6-1.1-1.3-2.2-1.9-3.3c-0.1,1.7,0,4,1.7,4.6c-1.4,2.1-0.3,4,0.8,5.9c-1.2,1.6-1,2.3,0.7,2.8c1.1,8.8,3.3,17.9,7.3,26   c-0.5,1.1,1.1,3.2,1.4,4.7c0.3-0.1,0.5-0.2,0.8-0.3c2.1,4.7,1.6,11.8,5,15.9c1.1,0.7,0.8,2.1,1.4,3c-2.1,3,3.7,6.9,3.1,10.7   c0,1.1,1,1.6,2.1,1.5l0,0c-0.1,1.2,0,2.4,1.4,2.9C506.7,425.1,507.6,427.1,509.3,428.4z" />
	<path display="inline" fill="#030202" d="M497.6,481.7c37-5.8,77.5-0.4,115.7-2.3c2.5,0.3,7.6-0.5,7.9,3c-1.4-0.1-2.7-0.1-4.2-0.2   c-1.6,12.2-0.6,24.2-0.9,36.4l0,0c-33.9,0.5-67.8,0-101.6,0.2c-5.2,0.6-16-2.9-14.7,5.6c-2.7-1.8-1-5,0.7-6.8   c0.6-11.7,0.8-22.9,0-34.4C499.5,482.2,498.1,483,497.6,481.7z M608.9,512.9c-0.4,3,2,5.6,5,4.1c-0.2-12,0.3-23.9,0.6-35.8   c-33.9,0.1-67.9-0.4-101.8,0c1.8,12.3,0.6,23.8-1.4,35.9c32,0.3,64.6,0.8,96.2-0.2c-1.2-11.4-3.8-23.1-1.5-34.5   c0.5-0.2,1-0.5,1.4-0.7C606.5,492.1,607.3,502.9,608.9,512.9z M504.9,517.2c1.4,0,2.8,0.5,4-0.4c2.6-11.7,3.1-24,1.3-35.6   c-1.2,0-2.5-0.5-3.8,0.4c0.2,1.8,0.4,3.4,0.6,5.1c-0.3,0.4-0.7,0.9-1.2,1.6c-0.5-2.8-0.7-4.5-0.6-7.2c-1,0.5-2,0.9-2.9,1.3   c2.2,11.5,0.9,23,0.8,34.9C503.8,517.2,504.3,517.2,504.9,517.2z" />
	<path display="inline" fill="#A39893" d="M454.9,312.9c-0.5-0.1-0.9-0.5-1.3-0.8c0-0.2,0-0.3,0-0.5c0.1-0.2,0.3-0.3,0.5-0.3   c8,4.7,10.3,9.4,19.6,4.4c0-0.9-0.1-1.7-0.1-2.6c0.9,0.2,1.6,0.4,2.4,0.5c5.6-5.2,1.5-13.5,0.2-19.4c12.1-8.6,10.7,15.2,9.7,21.9   c-6.8,10.3-16.2,19.2-23.5,29.4c-3.7-2.8,0.4-13.9-4-18.6c0.4-0.6,0.7-1.1,1.1-1.6c-0.2-3.4,0.9-7.3-2.3-9.3   c-0.2,0-0.3,0.1-0.5,0.1c-0.2-0.8,0.4-1.9-0.9-2.3c0,0,0,0,0,0C455.5,313.4,455.2,313.1,454.9,312.9z" />
	<path display="inline" fill="#8F8580" d="M499.9,524.4c0-0.7,0-1.4,0-2.2c0.7-0.5,1.4-0.9,2.2-1.4c38,1.1,77.2-2.1,114.7,1.2   c0.1-0.6,0.2-1,0.2-1.3c1,2.1,1.5,3.6-0.4,5.3C578,524.5,537.6,528.7,499.9,524.4z" />
	<path display="inline" fill="#8E847F" d="M460.8,342.4c0,1.3,0.1,2.5,1.5,3c-0.5,1-1.2,0.4-1.8,0.1c-0.7,0.6-1.4,1.2-2.1,1.9   c-1.9,0.2-3.6,0.1-5.3-1.4c0.3-5.5-10.1-37.7,2.5-31.1c0-0.5,0.1-0.9,0.1-1.2c1.3,0.4,0.7,1.5,0.9,2.3c0.1,1.9,0.7,3.7,1.5,5.5   c0.5-0.3,0.9-0.5,1.3-0.7c0,1.4,0,2.9,0,4.4c-0.3,0.5-0.7,1.1-1.1,1.6c0.4,0.5,0.7,0.9,1,1.4c-1.6,4.4-0.9,10.2,0.5,14.8   C460.2,342.7,460.5,342.5,460.8,342.4z" />
	<path display="inline" fill="#120D0C" d="M476.2,294.1c1.3,5.9,5.4,14.3-0.2,19.4c-0.7-0.2-1.5-0.3-2.4-0.5c0,0.9,0.1,1.7,0.1,2.6   c-1.5,1.3-3.3,0.5-4.8,2c-0.4,0.4-1.6,0.2-2.4,0.2c0.6-0.6,1.3-1.2,2-1.9c-2.6-4.8-3-10.4-7-14.5c-1.2-1.8-2.2-2.8-2.4-5.2   c6,4.9,7.4,12.1,10.7,18.7c0.6,0,1.2,0,1.7,0c0-7.2-6.3-12.5-9.4-18.7c0.1-0.4,0.3-0.7,0.5-1.4c2,3.2,3.6,6.3,6.6,8.1   c-4.2-12.5-19.8-15.2-25.9-26.9c0.3-0.3,0.6-0.6,0.9-0.9c0.6,0.8,1.5,0,2.2,0.4c0.4,0.5,1.1,0.9,0.9,1.7c-0.3,0.3-0.5,0.5-0.8,0.9   c3.2,2.2,5.5,4.9,8.1,7.6c4.6,3.9,10.9,5.9,13.6,11.8c2.4,3.1,2.8,7.3,5.4,10.4c-0.5-3.9-3-7.3-4.3-11c0.3-0.3,0.6-0.5,0.9-0.8   c2.6,5.4,5.3,10,5.5,16.2c4.1-5.9-3.9-11.8-3.1-17.7c2.3,2.1,1.9,4.3,3.9,6.3c-0.2-2.3-0.2-2.3-2-3.9c0-0.5,0.1-1,0.1-1.5   C475.2,295,475.7,294.5,476.2,294.1z M473.1,312.2c0.7-1.7,0.6-1.8-1.2-3.5C471.4,310,472.2,310.9,473.1,312.2z" />
	<path display="inline" fill="#A19691" d="M481.9,348.9c0.2,0,0.4,0,0.6,0c6.8,26.8,15.4,53.2,28.1,77.8c-0.4,0.5-0.8,1.1-1.3,1.6   c-1.7-1.3-2.5-3.3-3.6-5.1c0.1-1.3,0-2.4-1.4-2.9l0,0c-2-5.1-4-10.4-6.5-15.2c-0.5-2.1,0-4.5-2.1-5.7c-3.4-13.9-11.5-26-12.3-40.5   C482.9,355.1,479.9,353.2,481.9,348.9z" />
	<path display="inline" fill="#A09590" d="M494,461.6c-0.3,0.1-0.6,0.2-1.1,0.4c-0.6-0.9-1.3-1.7-0.3-2.6l0,0c0.3,0.2,0.7,0.4,1,0.5   c-0.4-4.2-3.5-9.8-6.1-13.5l0,0c-0.8-2.6-1.9-5.1-3.6-7.3l0,0c0.1-1.5-0.3-2.7-1.5-3.6l0,0c-5.3-12.7-8.9-26.7-13.7-39.7   c0.4-1.8-0.8-3.3-1.3-4.9c0.6-2.1-1.2-5.1,0.6-6.7c7.6,25.3,14,50.6,28.1,73.3C495.5,458.8,495.9,460.7,494,461.6z" />
	<path display="inline" fill="#867D78" d="M629.8,570.7c1.2,0.4,0.7,1.4,0.7,2.2c-0.9,0.7-0.6,1.4,0.1,2.1l-0.1-0.1   c0.2,1.4,0.5,2.7,0.7,4.1c-0.1,0-0.3,0.1-0.4,0.1c-7.2-16.5-9.7-34.6-14.1-52c1.3-0.9,2-1.6,2.8-2.9c-0.4,1.3,1.3,1.4,1.5,2.4   c-2.5,0.8-0.7,3.9-0.7,5.7c1.1,3.2,0.4,8.2,2.7,10.5c0.1-0.4,0.2-0.7,0.3-1.1c1.3,2.7,0.7,6.4,1.3,9.5c-1.9,3.4,1.9,9,2.3,13   C629.1,565.8,629.5,568.1,629.8,570.7c-0.6,0.3-0.7,0.6-0.2,1.1C629.7,571.3,629.8,571,629.8,570.7z" />
	<path display="inline" fill="#9C918D" d="M496.9,531.7c-0.2-0.8-0.9-1.5-0.2-2.5c0.5-1.5,0-3.6,1.6-4.7c0.5,0.7,1,1.3,1.6,2.2   c-0.8,7.5-2.8,14.9-5.2,22.3c-0.3-0.3-0.5-0.5-0.8-0.8C494.7,542.6,495.9,537.2,496.9,531.7z" />
	<path display="inline" fill="#957062" d="M438.3,286.9c3.9,5.4,7.9,12.1,14.8,15.2c0.7,0.3,1.2,0.8,1.2,1.6   c-9.4-0.3-12.1-9.4-17.3-15.4C437.4,287.8,437.8,287.3,438.3,286.9z" />
	<path display="inline" fill="#9B908B" d="M502,528c1.5,0.1,3.2-0.7,4.2,0.7c-1.6,3.6-2,7.3-4.5,10.6c-0.6-0.5-1.2-1-2-1.6   C500.5,534.4,501.3,531.2,502,528z" />
	<path display="inline" fill="#201816" d="M465.9,317.8c-1.3-0.1-2.6-0.4-3.6-1.3c3.3-3.9-4.3-14.8-7.2-18.3   C459.6,297.3,465.7,313.5,465.9,317.8z" />
	<path display="inline" fill="#9D928E" d="M616.9,535.9c-0.6,0.5-1.3,1-2,1.5c-2.5-2.7-2.8-6-3.9-9c1-0.9,2.1-0.6,3.2-0.5   C616.1,530.1,616.1,533.3,616.9,535.9z" />
	<path display="inline" fill="#968D88" d="M488.3,568.5c0.6-0.8,1.1-1.6,1.8-2.5c0.1,0.2,0.3,0.4,0.5,0.6   c-1.5,5.4-3.3,10.7-5.9,15.6c-1.2-0.5-0.6-1.9-0.7-2.9l0,0c2.2-2.8,3.1-6,3.6-9.4l0,0C487.8,569.4,488.1,568.9,488.3,568.5z" />
	<path display="inline" fill="#4A4543" d="M498.3,524.5c-0.9,0.7-1.3,1.6-1.4,2.7c-0.9-0.4-0.8-1.2-0.7-1.8c1.3-9,1.4-17.8,1.5-27.1   C499.7,506.9,496.9,516.1,498.3,524.5z" />
	<path display="inline" fill="#353230" d="M465.2,374.2c0.2,1.7,0.4,3.4,0.6,5.1c-0.2,0-0.5,0-0.7,0c-2-4.1-2.3-9.3-3.4-13.8   c0.2-0.3,0.5-0.5,0.7-0.8c0.3,0.7,0.7,1.3,1.1,2.1c0.2-0.5,0.3-0.9,0.4-1.4c0.8,0.6,0.6,1.5,0.5,2.3   C462.9,369.4,464,372.5,465.2,374.2L465.2,374.2z" />
	<path display="inline" fill="#69625F" d="M451.5,346c-0.3,0.3-0.6,0.6-0.8,0.8c-1.8-5.1-2.2-11.2-1.7-16.5   C449.8,335.8,450.7,340.9,451.5,346z" />
	<path display="inline" fill="#231F1E" d="M619.7,524.3c-0.4,0.6-0.8,1.1-1.3,1.7c-0.1-0.6,0-1.2-0.7-1.5c0.9-1.8-1.1-3.9-1.5-5.9   l0,0c0.7,0,1.4,0,2.1,0.1C620,520.2,620.1,522.2,619.7,524.3z" />
	<path display="inline" fill="#756F6B" d="M463,357.7c0,0.5,0,0.9-0.1,1.4c-0.2,0-0.4,0-0.6,0c-1.5-1.1,0.1-3.3-1.3-4.4   c-0.2-2.1-1.5-4.2-0.4-6.3c1.6-0.2,1.7,1.4,1.5,1.8c-0.7,1.9,0.3,3.5,0.4,5.2C462.3,356.2,462.1,357.1,463,357.7z" />
	<path display="inline" fill="#262422" d="M461,354.6c1.5,1.1-0.2,3.3,1.3,4.4c0,1.9,0.1,3.8,0.1,5.7c-0.2,0.3-0.5,0.5-0.7,0.8   c-0.5-3.3-1.1-6.7-1.6-10C460.3,355.2,460.7,354.9,461,354.6z" />
	<path display="inline" fill="#827A76" d="M494,548.1c0.3,0.3,0.5,0.5,0.8,0.8c-0.7,3.4-1.4,6.8-2.1,10.1c-0.3,0-0.5,0-0.8,0l0,0   c-0.2-2.8,1.1-5.3,0.7-8C493.3,550.2,493.6,549.2,494,548.1z" />
	<path display="inline" fill="#413F3D" d="M478.8,334.4c0.5,3.2,1.6,6,1.4,9.3c-2.2-2.1-2-6.2-2.1-9.3   C478.4,334.5,478.6,334.5,478.8,334.4z" />
	<path display="inline" fill="#847E79" d="M459.2,314.3c-1.9-0.7-3.4-2-5.1-3.1c0.6-0.5,1.2-1,1.9-1.6   C457.2,311.3,458.2,312.8,459.2,314.3z" />
	<path display="inline" fill="#7A706C" d="M483.9,580.7c0.1,0.6,0,1.3,0.8,1.5c-0.9,2-1.8,4-2.8,6c-0.3-1.5,0.4-3,0.6-4.5l0,0   c1-1,1-1,0.1-2.1c0.2-0.3,0.4-0.5,0.7-0.8C483.5,580.7,483.7,580.7,483.9,580.7z" />
	<path display="inline" fill="#847B77" d="M462.4,364.7c0-1.9-0.1-3.8-0.1-5.7c0.2,0,0.4,0,0.6,0c0.2,2.6,1.4,5.2,0.6,7.8   C463.1,366,462.7,365.3,462.4,364.7z" />
	<path display="inline" fill="#8F8580" d="M465.2,374.2c-1.2-1.7-2.3-4.8-0.8-6.4C464.7,369.9,465,372.1,465.2,374.2z" />
	<path display="inline" fill="#968D88" d="M491.2,564.8c-0.2-0.3-0.5-0.5-0.7-0.8c0.1-1.8,0.7-3.4,1.5-5l0,0   C492,561,492.2,563,491.2,564.8z" />
	<path display="inline" fill="#7C6156" d="M474.7,295.5c0,0.5-0.1,1-0.1,1.5c0,0,0,0,0,0c-0.6-0.7-1.1-1.4-1.9-2.3   c-0.2,0.8-0.2,1.2-0.3,1.6c-1.4-1.7,0-1.9,0.9-3c0.2,0,0.4,0,0.6,0.1C474.2,294,474.4,294.7,474.7,295.5z" />
	<path display="inline" fill="#1B1818" d="M633.5,464.5c-1.1-0.5-0.6-1.9-0.7-2.9C634.8,461.2,633.7,463.4,633.5,464.5z" />
	<path display="inline" fill="#2A2625" d="M492,562.7c0-1.2-0.1-2.4-0.1-3.6c0.3,0,0.5,0,0.8,0C492.6,560.3,492.9,561.7,492,562.7z" />
	<path display="inline" fill="#413F3D" d="M478.1,332.4c-0.4-0.5-0.9-1-1.3-1.4C477.9,329.4,478.4,331.3,478.1,332.4z" />
	<path display="inline" fill="#262422" d="M463,357.7c-0.8-0.6-0.6-1.4-0.5-2.3C463.3,356,463,356.8,463,357.7z" />
	<path display="inline" fill="#A09590" d="M467.4,382.1c-0.1,0.4-0.2,0.8-0.3,1.4c-0.5-1-0.6-1.6,0.2-2   C467.4,381.6,467.4,381.9,467.4,382.1z" />
	<path display="inline" fill="#1B1818" d="M629.9,452.2c-0.2-0.5-0.4-1-0.7-1.4C629.9,451,629.9,451.6,629.9,452.2z" />
	<path display="inline" fill="#1B1818" d="M632,457.3c-0.2-0.5-0.4-1-0.6-1.5C632.1,456.1,632.1,456.7,632,457.3z" />
	<path display="inline" fill="#1B1818" d="M630.5,453.7c-0.2-0.5-0.5-1-0.7-1.5C630.7,452.4,630.6,453.1,630.5,453.7z" />
	<path display="inline" fill="#1B1818" d="M632.8,459.4c-0.2-0.5-0.4-1-0.6-1.4C632.8,458.2,632.8,458.8,632.8,459.4z" />
	<path display="inline" fill="#1B1818" d="M633.4,461c-0.2-0.5-0.4-1.1-0.6-1.6c0.2,0,0.5,0,0.7,0l0,0   C633.5,459.9,633.4,460.5,633.4,461z" />
	<path display="inline" fill="#1B1818" d="M631.2,455.2c-0.2-0.3-0.3-0.6-0.5-0.9C630.9,454.6,631.1,454.9,631.2,455.2z" />
	<path display="inline" fill="#847E79" d="M453.7,311.5c0,0.2,0,0.4,0,0.5c-0.1-0.1-0.3-0.2-0.4-0.3   C453.4,311.7,453.5,311.6,453.7,311.5z" />
	<path display="inline" fill="#847E79" d="M453.7,312.1c0.2,0.2,0.5,0.4,0.7,0.6C454.1,312.5,453.9,312.3,453.7,312.1z" />
	<path display="inline" fill="#847E79" d="M454.9,312.9c0.3,0.2,0.5,0.5,0.8,0.7C455.5,313.4,455.2,313.1,454.9,312.9z" />
	<path display="inline" fill="#1B1818" d="M629.1,450.2c-0.2-0.3-0.3-0.6-0.5-0.9C628.7,449.6,628.9,449.9,629.1,450.2z" />
	<path display="inline" fill="#EAA388" d="M333,480.3c-9.2,8.9-19.3,17.2-25.4,28.7c-5.5-1.7-10.8-3.5-14.3-8.5   c13.9-6.4,18.2-22.8,26.6-34.9c3-0.5,3.3-4.4,4.3-6.9c3.6-19.7,16.9-34.3,32.7-45.5c1.7,1.3,1.9,5.9,4.8,3.2   c2.5,3.5,3.6,8.3,5.6,12.3c3-6.7,2.5-14.7-3.2-19.7c-1.9-27-10.7-53.3-5.6-80.5c0.8-0.8,1.5-1.4,2.1-2c-0.6-3.2-3.5-3.2-5.4-4.2   c-2.3-9.8-4.2-21.6-0.8-31.7c17.2,2.1,37.4,10.8,53.8,1.5c7.3,73.9-12.5,146.6-27.2,218.2c-5.6,0.9-11.1-1.4-16-3.9   c6.7-19,4.3-38.8,4.4-58.4c7.4-11.5,26.2-15.1,24.5-31.2c0.9,1.4,1.8,2.9,2.7,4.3c2.5-0.6,6.1-11.9-0.3-12.3   c-0.7,0.1-1.4,0-1.8-0.9c7.9-32,12.3-64.7,8.9-97.7c-3,28.1,0.1,57.3-8.5,84.8c-5.2,13.8,1.6,30.1-12.6,39.1c-0.2,0-0.4,0-0.6,0   c-1.1-1.2,0.8-2.4,0.9-3.7c4.3-8.2-5.3-10-6.1-1.4c1.1,3.9-4,5.6-3.5,9.4c2.1-1.2,2.1-1.2,3.6-3.6c0.4-0.1,1.2-0.3,1.2-0.2   c0.6,1.2,1.5-0.2,2.3,0.8C362.7,448.7,349.5,466.2,333,480.3z M353.4,441.5c2.2,0.5,8.4-9.2,5.6-10   C356.7,434.4,355,438,353.4,441.5z M383.2,437.2c-1.3,0.8-1.3,7.3-0.3,8.5C384.3,443.3,385.5,439,383.2,437.2z M351.9,442.9   c-2.6,1.1-3.7,2.9-3.4,5C350.3,446.8,351.2,445.3,351.9,442.9z M382.6,447.7c-1.6,1.9-2.4,3.7-1,5.7   C383,451.7,383.1,450,382.6,447.7z M389.9,406.9c-1.8,1.4-1.4,2.9-1.2,4.9C390.1,410.2,390.5,408.8,389.9,406.9z M403.7,303.7   c-1.8,1.6-1.8,2.6,0,3.2C403.7,305.8,403.7,304.8,403.7,303.7z M377.5,463.6c1.2-1,1.2-1,0.3-2.5C377,462.1,377,462.1,377.5,463.6z    M380.5,455c-1.4,1.2-1.7,2.2-1,3.5C380.8,457.8,380.9,456.7,380.5,455z M374,469.2c0.6-0.6,0.1-2.4-0.9-1.6   C373.3,468.2,373.1,469.4,374,469.2z M337.9,457.9c0-0.6,0-1.2,0-2.5c-0.7,1.1-1,1.5-1.3,2C337.1,458,337.1,457.8,337.9,457.9z    M403.2,299.1c-0.4,1.1-0.5,1.4-0.6,1.6C403.9,301.4,403.7,300.4,403.2,299.1z M385,415.5c0.6-0.8,0.7-1.1-0.2-1.3   C384.2,414.5,384.6,414.9,385,415.5z M379.7,420.4c-0.4,1.1-0.6,1.3,0.1,1.9C380.8,421.8,380.5,421.8,379.7,420.4z" />
	<path display="inline" fill="#F5DDCE" d="M373.5,217.4c10.9,16.6,19.9,34.5,35.1,47.9c-0.2,6,1.7,25.1-4.1,27.2   c-15,3.7-32.1,0.7-46.9-3.7c-2.2-6.2,1.7-12.8,2.8-18.9C365.6,252.7,369,234.4,373.5,217.4z M395.8,272c-0.5,2.6,0.5,5,1.2,7.7   C398.1,277.5,397.8,275.5,395.8,272z M391.6,262.3c0.1,2.4,0.8,4.4,2.1,6.9C394.7,267,394,263.6,391.6,262.3z" />
	<path display="inline" fill="#D69479" d="M355.5,290.4c-0.4,0.1-0.7,0.1-1.2,0.2c-3.4,10.1-1.5,21.9,0.8,31.7   c2,1.1,4.8,1.1,5.4,4.2c-0.6,0.6-1.3,1.3-2.1,2c-5,27.2,3.7,53.5,5.6,80.5c5.7,5,6.3,13,3.2,19.7c-2-4.1-3.1-8.8-5.6-12.3   c-1.4,1.1-1.7,1.1-2.6,0.2c0.4,0,0.9,0.3,1.4-0.4c-0.5-1.2-0.9-2.6-2.8-2.2c-0.2-0.3-0.5-0.5-0.7-0.8c0.3-1,1.6-1.6,1.4-2.9   c1.3,0.6,2.7,1.2,4,1.7c0.9-2.3-2.3-3.6-4-2.6c-1.9-26.1-12.9-50.9-10.2-77.5c0.5-4.6-2.7-7.9-5.7-10.9   c-11.1-11.3-10.3-29.2-6.5-43.5C341.6,282.7,347.8,287.8,355.5,290.4z M349.4,326c1.1,1.3,8.1,2.2,7.8,0.1   C354.8,325.5,352.4,325.5,349.4,326z M352.8,328.8c1.4,2.1,1.4,2.1,3.1,1.6C355.1,329.4,354.1,329,352.8,328.8z" />
	<path display="inline" fill="#F7EFD0" d="M361.3,507.7c3.7,0.8,4.2,5.6,6.4,8.2c4.9,5.7,11.2-3.6,16.3-4.7c1,3.3,2.1,6.6,3.1,9.9   c-1,4-5.8,3.2-8.3,5.6c3.8,1.8,5.4-1.1,9.2-1.5c-1.6,3.1-5.1,3.4-8.2,4.8c2.8,2.5,5.6-0.2,8.6-1.2c0.1,0.7,0.1,1.1,0.2,1.7   c-1.8,1-3.6,2-5.5,3c2.3,2,4-0.3,6-0.2c0.1,0.5,0.2,1,0.4,1.5c-1.4,1.6-3.6,1.6-4.8,3.1c0.7,2.4,3.5-0.1,5.3-0.2   c0.1,0.2,0.4,0.5,0.9,1c-1.4,0.9-2.6,1.8-4.2,2.8c1.6,1.6,2.9,0.5,4.7,0.2c1,1.4,2,2.7,3,4.1c4,0.8,8,0.3,12,0.7   c16.7,20.8-36.3,15.5-33.7-1.7c-3.2-3.4-8.9-3.2-12.2-4.6c-17.4-16.8-11.2-14.5-0.2-32.2C360.6,507.9,360.9,507.8,361.3,507.7z" />
	<path display="inline" fill="#E6CCBB" d="M373.5,217.4c-4.5,17-7.9,35.3-13.1,52.4c-1.2,6.2-5.1,12.7-2.8,18.9   c-7.3-2.7-16.7-6.3-20.2-13.6c23.9-31.2,22.1-55.1,9.7-90.7c0.8-0.9,1.3-0.4,1.7,0.2C356.1,196.4,365.1,206.6,373.5,217.4z" />
	<path display="inline" fill="#977264" d="M389.5,229.7c-0.3,0.2-0.5,0.4-0.9,0.8c8.4,15.6,19.8,28.4,32,41.2   c4.4-4.5,8.1,3.8,10.7,6.6c-0.6-0.2-2.8-0.1-1.4,0.7l0,0c0.2,0.2,0.5,0.5,0.7,0.7l0,0c0.3,0.2,0.5,0.4,0.8,0.6   c0.9-0.1,0.5-0.4,0.1-0.7c-0.1-0.4-0.1-0.8-0.2-1.3c2.9,2,4.3,3.5,5.2,5.6c-1.3-0.9-2.5-1.7-3.8-2.6c-0.4,0.3-0.6,0.6-0.9,0.8   c-32.7-21.1-48.5-56.4-72.1-85.7c1.5-0.5,2.2,1.2,3.6,0.7c-1-1.7-2.5-2.7-3.8-4.2c-0.6,0.4-1,0.8-1.8,1.4   c-2.3-3.3-19.8-28.3-12.1-28.3c-1.2-1.8-1.7-3.6-3.5-5c-0.2,0.7-0.3,1.2-0.4,1.6c-0.2,0-0.4,0-0.6,0c-0.3-0.8,0.2-1.7-0.8-2.1   c-1.1-3.5-2.1-7-3.2-10.6c-0.5-0.3-1.4-0.6-1.2-1.7c1.4,0.3,2.1-2.3,0.2-1.9c0,0.6-0.1,1.3-0.1,1.9c-3-11.6,4.1-23,12.6-30.7   c1,0.1,2.4,0.4,3.4,1c-0.8,0-1.7,0.1-2.4,0.1c-9.9,8.3-11,24.1-4,34.7c3.4,5.7,11.1,7.6,13.7,13.9c0.6,1.6,1.8,2.7,3,4.1   c-3.3,1.7-6,0.2-9.3-0.4c3,12.2,11.5,20.6,20.7,28.3c-0.8,1.9-3,0.6-4.9,1.1c7.6,15.4,15.4,20.3,29,29.2c-0.8,0.9-1.5,1.7-2.4,2.6   c-0.5-0.3-0.9-0.6-1.3-0.9c0.4,0,0.9,0,1.8-0.1c-1-1.7-1.9-1.4-3.4-2c-1.8-1.2-2.8-3.2-5.3-2.7   C387.9,227.7,388.7,228.7,389.5,229.7z M426.9,276.7L426.9,276.7c0.2,0.2,0.5,0.5,0.7,0.7l0,0c1.5,1.5,0.4-3-1.4-2.8   c-0.9,0.1-0.4,0.4-0.1,0.7C426,276,426.6,276.3,426.9,276.7z M367.1,198c-1-1.1-1.4-2.3-3.1-1.7C364.7,197.3,365.4,197.9,367.1,198   z M348.4,168.3c-0.6-1.4-0.7-2.4-1.8-2.7C346.3,166.8,346.3,166.8,348.4,168.3z M351.1,167.6c-0.4,1.2-0.5,1.4-0.6,1.7   C351.9,170,351.7,168.9,351.1,167.6z M386.2,224.9c-0.2-0.2-0.5-0.4-0.7-0.6c-0.1,0.2-0.3,0.4-0.4,0.6   C385.6,225.2,385.8,225.6,386.2,224.9z M368.2,197.5c-0.9,0.4,0.1,1.5,0.6,0.8C368.6,198,368.4,197.8,368.2,197.5z" />
	<path display="inline" fill="#EADCB7" d="M361.3,507.7c-0.4,0.1-0.7,0.2-1.2,0.3c-11,17.8-17.1,15.4,0.2,32.2   c3.4,1.4,9,1.1,12.2,4.6c1.2,15.1,22.6,16.7,34.2,13.6c-8.8,6.3-26.8,4.6-34-3.1c-2.3-3.4-2.8-8.4-6.8-10.3   c-10-3.4-22.3-8.2-21.8-21.1C350.4,522.3,355.4,505.5,361.3,507.7z" />
	<path display="inline" fill="#D59479" d="M369.2,448c-0.1,19.6,2.3,39.5-4.4,58.4c-2.2-8.3,0.1-18.1-0.1-26.9   c-0.7-8.8-2.3-17.3-0.6-26.3C365.9,451.7,366.7,449,369.2,448z" />
	<path display="inline" fill="#0F0908" d="M337.3,275.3c7,15.2,57.7,25.1,70,15.1c0.2,0.6,0.5,1.2,0.7,1.8   c-17.3,10-59.2,0.5-72.1-14.6C336.4,276.8,336.9,276,337.3,275.3z" />
	<path display="inline" fill="#A88476" d="M366.6,509.5c3.4,1.5,6.9,2.4,11,3c-2.5,2.4-4.8,3.3-7.4,3.3   C368.9,513.5,366.8,512.3,366.6,509.5z" />
	<path display="inline" fill="#614A41" d="M340.2,167c0.2-0.2,0.4-0.5,0.7-0.7c2.5,4.5,3.3,9.8,5.9,14.3   C344.2,182.4,341.8,169.2,340.2,167z" />
	<path display="inline" fill="#221613" d="M381.5,434.2c0.2,0,0.4,0,0.6,0c0.3,0.3,0.6,0.5,0.9,0.8c-2.3,2-4.4,4.5-7.4,5.6   c-0.3-0.3-0.6-0.5-0.9-0.8C377,437.9,379.2,436,381.5,434.2z" />
	<path display="inline" fill="#F5DDCE" d="M384.2,170.6c-0.4-0.6-0.7-1.2-0.9-1.6c20.1-22.2-12.5-47.9-33.4-53.3   c0.2-1.2,1.1-1.8,1.8-2.7c28.3,0.4,37.6,36.2,63,40.5c6.3,6,15.7,14.5,11,24.3c-1.6,0-3.2,0.1-5,0.1   C406.1,192,394.6,183.4,384.2,170.6z" />
	<path display="inline" fill="#B28C7D" d="M473.3,293.2c-4.5,3.1,5.5,10.3,2.1,14.5c-1.5-4.5-3.4-9.1-6.2-12.9   c-0.4,1.5,0.2,1.6,0.4,2.8c-0.2,0.2-0.5,0.5-0.7,0.7c-5.6-8.5-15.4-12.6-22.2-20.2c0.4-0.4,0.6-0.6,0.8-0.9   c0.1-0.8-0.5-1.2-0.9-1.7c-0.7-0.4-1.6,0.4-2.2-0.4c-3.9-7.7-10.7-13.5-15.3-20.7c-2.9-12-19.6-25.7-11.1-38.3   c17.4,17.6,21.7,46.1,41.6,61.3C462.6,284,467.9,288.6,473.3,293.2z M465.9,291.2c0.8,1,1.2,2.2,2.8,2   C468.5,291.4,467.4,291.1,465.9,291.2z M464.5,289.7c-0.4-1.3-0.4-1.3-1.3-0.9C463.7,289.2,464.1,289.4,464.5,289.7z" />
	<path display="inline" fill="#B28C7D" d="M356.9,111.9c3.2-10.9,7.7-21.6,7.2-33.1c2,0.6,3.6,1.1,5.5,1.7   c2.4,7.8,4.2,17.2,9.6,23.5c-5,15.8,23.8,35.3,32.4,47.5C390.4,143.5,380.7,116,356.9,111.9z" />
	<path display="inline" fill="#F5DDCE" d="M418.3,191.5c-1.2,12.3-2.2,24.7-5.5,36.7c-11.4-9.2-18.8-22.5-19.4-37.3   c10,2.5,15.7,6.8,24.9-1.2C418.2,190.6,418.2,191,418.3,191.5z M408.9,219.8c1.4-0.5,1.4-0.5,0.9-1.5   C409.5,218.9,409.2,219.4,408.9,219.8z" />
	<path display="inline" fill="#E6CCBB" d="M404.6,194.3c-1.3-0.1-1.8-1.5-3.1-1.5c-0.4-1.4-1.4-1.7-2.9-1.2c0.4,0.5,0.7,0.9,0.9,1.2   c-2.3-0.2-3.9-1.8-6.3-2c-0.1,0.5-0.2,0.9-0.3,1.4c-2.3-7.5-5.5-14.6-8.7-21.7c10.5,12.8,21.9,21.4,36.5,7.4c1.8,0,3.4-0.1,5-0.1   c-0.3,2.1-1.2,3.9-2.4,5.7c-1.2-0.7-0.5-2.3-0.8-3.5c-4.5,7.2-8.5,13.7-18.4,13.3C404.2,193.7,404.4,194,404.6,194.3z" />
	<path display="inline" fill="#957062" d="M415.3,225.3c2.2,10.6,10.7,19,13.7,29.1c-6.6-7-10.5-15.7-15.2-24   C414.8,228.8,414.2,226.9,415.3,225.3z" />
	<path display="inline" fill="#201817" d="M404.6,194.3c-0.2-0.3-0.3-0.6-0.6-1.1c6.3,0.2,11.2-2.7,14.9-7.6c0.3,0.3,0.6,0.6,0.9,1   c-0.2,0.7-1.3,1.8-0.1,2c-0.1,1.1-0.5,2.1-1.5,2.8c0-0.5-0.1-0.9-0.1-1.7C414,193.1,409.8,195.1,404.6,194.3z" />
	<path display="inline" fill="#B7A497" d="M419.7,188.7c-1.7-1.6,2.7-4.2,2.3-6.5c0.2,0,0.4-0.1,0.5-0.1c0.1,0.6,0,1.2,0.7,1.4   C422.5,185.6,421.3,187.3,419.7,188.7z" />
	<path display="inline" fill="#F7EFD0" d="M278.8,503.5c0.7-0.2,1.3-0.4,2.1-0.7c5.1,13.8,13.9,16.2,26.2,8.6c3,1.7,5.4,6.4,4,10.2   c-4,1.8-8.7,1.2-12.4,4c3.9,1.6,8.3-0.5,12.4-1.5c0.2,0.9,0.3,1.7,0.5,2.7c-3,1.7-6.4,1.9-9.9,3.3c3.2,2.7,6.7,0.5,10.1-0.7   c0.2,1,0.3,1.9,0.5,2.8c-1.8,1.9-4.8,1.6-6.5,3.6c1.2,4.1,7.9-3.9,8,1.8c-2,1.2-4.7,1.2-5.9,3.3c1.2,2.6,4.7-0.4,6.8-0.6   c0.4,0.9,0.7,1.6,1,2.3c-1.2,1.9-3.7,1.3-4.9,3c0.5,2.7,3.9,0.5,5.5,0.3c4.1,6,9.3,10.9,15.9,14.4c0.9,2.2-0.1,3.8-2,5   c-18,0.6-33.3-10.1-40.4-26c-8.4-5.4-20.2-7-26.1-15.5C266.7,515.6,275.2,511.6,278.8,503.5z" />
	<path display="inline" fill="#D69479" d="M350.3,418.2c-13.7,11-23.3,25-26.7,42.5c-0.7,2.2-1.2,4.5-3.6,4.8   c-8.5,12.1-12.7,28.5-26.6,34.9c-1.3-0.6-2.1-1.8-3.3-2.9c7.4-10.6,16.5-19.8,23-31C322.2,448.7,330.5,426.3,350.3,418.2z" />
	<path display="inline" fill="#EBDCB8" d="M269.5,515c-2.4,2.7-4.6,5.5-5.9,9c5.9,8.5,17.7,10.2,26.1,15.5   c7.1,15.9,22.4,26.6,40.4,26c-16,7.2-33.3-6.3-41.4-19.6c-4.2-5.5-12.5-4.5-17.6-9.1c-6.6-2-9.7-8.1-14.7-12.1   c3.6-3.5,8.8-5.7,12.5-9.7C269,515,269.3,515,269.5,515z" />
	<path display="inline" fill="#B08B7C" d="M291.9,502.7c3.1,3.8,7.4,5.3,11.6,7.6c-4.2,2.6-10,5.6-14.4,1.7c0.4-0.4,0.8-0.8,1.3-1.2   c-0.3-2.4,0.3-5.1,0.4-7.2c-0.5-0.7-0.4-1.2,0.3-1.6l0,0C291.4,502.2,291.7,502.4,291.9,502.7z" />
	<path display="inline" fill="#927062" d="M290.4,505.6c0,1.7,0,3.5,0,5.2c-0.5,0.4-0.9,0.8-1.3,1.2c-2.3-2.2-4.1-4.8-5.4-7.9   c1.7-1.6,3.2-3,4.9-4.7c0.9,0.7,2,1.3,2.6,2.6c-1.7,0.7,0.8,2.1-0.6,3c-0.2-0.3-0.5-0.5-0.7-0.8c-1.8,0.6-2.6,5.1-0.4,4.8   C290.1,507.9,289.1,506.4,290.4,505.6z" />
	<path display="inline" fill="#DFD8B4" d="M269.5,515c-0.2,0-0.5,0-0.7,0c1.9-2.5,4.9-4.5,5-7.9c1.5-1.5,2.8-3.2,5-3.6   C276.3,507.9,273.7,512,269.5,515z" />
	<path display="inline" fill="#302320" d="M342.6,422c-0.3,0.2-0.6,0.5-0.9,0.7c0-0.3-0.1-0.6-0.1-0.8   C342,421.9,342.3,422,342.6,422z" />
	<path display="inline" fill="#927062" d="M291.9,502.7c-0.3-0.2-0.5-0.5-0.8-0.7C291.4,502.2,291.7,502.4,291.9,502.7z" />
	<path display="inline" fill="#372821" d="M358.3,409.5c1.7-1.1,4.9,0.3,4,2.6c-1.3-0.6-2.7-1.2-4-1.7   C358.3,410.1,358.3,409.8,358.3,409.5z" />
	<path display="inline" fill="#302320" d="M348.2,419c-0.3,0.2-0.5,0.3-0.8,0.5C347.7,419.3,348,419.2,348.2,419z" />
	<path display="inline" fill="#302320" d="M343.9,421.2c-0.3,0.2-0.6,0.4-0.8,0.6C343.4,421.6,343.7,421.4,343.9,421.2z" />
	<path display="inline" fill="#302320" d="M345.4,420.5c-0.3,0.2-0.6,0.3-0.9,0.5C344.8,420.8,345.1,420.6,345.4,420.5z" />
	<path display="inline" fill="#302320" d="M346.9,419.8c-0.3,0.2-0.6,0.4-0.9,0.5C346.3,420.1,346.6,419.9,346.9,419.8z" />
	<path display="inline" fill="#1F1715" d="M398.8,58.6c-2.2,2.2-2.5,4.8-3.3,7.8c-0.7,0.1-1.4,0.1-2.1,0.2c0-0.1-0.1-0.3-0.1-0.4   c0.5-0.2,1-0.4,1.4-0.7c-0.4-0.6-0.7-1.2-1.1-1.8c0.5-1.6-1.8-2.4-2.2-0.7c-1.1-0.3-2.2-0.5-3.9-0.9c2.7-1.2,5-1.1,7.4-2.5   c0.3-1.4-0.4-1.7-1.3-1.7c0.9-1.9,2.5-0.2,3,1.1C397.4,58.8,398,58.5,398.8,58.6z" />
	<path display="inline" fill="#8C6C5F" d="M399.5,85.3c-0.9-0.7-0.9-2.1-2.2-2.7c2.1-0.3,4,1.5,6.1-0.3c0.4,2.3,0.4,2.3-0.8,3.7   C401.7,85.7,400,83.8,399.5,85.3z" />
	<path display="inline" fill="#8A695C" d="M398.7,81c0.2-0.7,0.8-0.7,1.4-0.8c0.9,0.8,1-0.1,1.5-0.7c0,0,0,0,0,0   c0.8-0.2,1.6-0.4,2.3-0.6C405.6,82.5,400.6,82.1,398.7,81z" />
	<path display="inline" fill="#75584E" d="M341,162.6c0.2,0,0.4,0,0.6,0c0.8,1.2,1.5,2.4,2.3,3.6c-0.8,0.2-0.7,0.9-0.8,1.5   C342.2,166.1,341.3,164.4,341,162.6z" />
	<path display="inline" fill="#40322D" d="M337.4,157.5c-0.6-0.5-1-1-0.2-1.7C337.2,156.4,337.3,157,337.4,157.5L337.4,157.5z" />
	<path display="inline" fill="#75584E" d="M340.3,160.4c0.7,0.3,0.7,0.9,0.6,1.5C340.3,161.6,340.2,161,340.3,160.4z" />
	<path display="inline" fill="#977264" d="M378.6,112.1c0.2-2-0.6-4.2,0.6-5.9C378.9,108.2,379.7,110.5,378.6,112.1z" />
	<path display="inline" fill="#190D0B" d="M389.3,54.2c2.1-2.7,7.1-2.3,8.7,0.4c-2.6,1.5-5.2-1.5-7.8,0.4   C389.9,54.8,389.6,54.5,389.3,54.2z" />
	<path display="inline" fill="#907367" d="M393.7,57.9c0.9,0,1.6,0.3,1.3,1.7c-1.7,0.8-3.6,1.5-5.6,1.7c0.5-0.7,1-1.3,1.5-2   c0.1,0.2,0.3,0.3,0.4,0.5c0.1-0.2,0.2-0.4,0.3-0.6c0,0,0,0,0,0C392.6,59.4,393.3,58.9,393.7,57.9L393.7,57.9z" />
	<path display="inline" fill="#3F312C" d="M401.1,75.9c-3.3-0.5-3.8-1.7-2.4-4.2c0.7,0.4,0,1.4,0.1,2.6   C399.6,74.8,399.9,75.1,401.1,75.9z" />
	<path display="inline" fill="#302421" d="M389.3,54.2c0.3,0.3,0.6,0.6,0.9,0.9c-0.8,0.6-1.7,1.2-2.9,2.2   C387.5,55.4,388.1,55.1,389.3,54.2z" />
	<path display="inline" fill="#D7DCDB" d="M391.5,63c0.4-1.8,2.6-0.9,2.2,0.7C392.9,63.8,392.1,63.8,391.5,63z" />
	<path display="inline" fill="#49302B" d="M393.7,57.9c-0.4,1-1.1,1.6-2.2,1.5C391.9,58.3,392.6,57.8,393.7,57.9z" />
	<path display="inline" fill="#563B34" d="M401.6,79.5c-0.5,0.6-0.6,1.5-1.5,0.7C400.6,80,401.1,79.8,401.6,79.5z" />
	<path display="inline" fill="#341B18" d="M391.5,59.3c-0.1,0.2-0.2,0.4-0.3,0.6c-0.1-0.2-0.3-0.3-0.4-0.5   C391.1,59.3,391.3,59.3,391.5,59.3z" />
	<path display="inline" fill="#332520" d="M375.6,84.6c0.2-0.2,0.5-0.5,0.7-0.7c1.4,1,2.8,2,4.8,3.4C378.4,87.2,377,85.8,375.6,84.6   z" />
	<path display="inline" fill="#9F7F72" d="M364.1,66.7c0.5-1.2,0.8-2.5,2.1-3c0.9,0.7,1.8,1.5,2.8,2.3c-0.6,1.4-1.2,2.7-1.7,4   c0.3,0.7,0.7,1.5,1,2.3c-1.9-0.1-2.9-2.2-4.5-3.3c0.6-0.7,1.1-1.2,1.9-2C365,66.8,364.5,66.8,364.1,66.7z M366.5,65.2   c-0.3,0.9-0.1,1.5,1,1.7C367.7,66.1,367.2,65.6,366.5,65.2z" />
	<path display="inline" fill="#64534A" d="M368.3,72.2c-0.2-0.5-0.4-0.9-0.6-1.4c1.5-0.4,1.5-0.4,2,1.3   C369.2,72.2,368.8,72.2,368.3,72.2z" />
	<path display="inline" fill="#1F0202" d="M624.7,460.2c0,0.4,0,0.7,0,1c-40.3,1.1-81.3-0.7-121.8,0.7c-0.1-0.1-0.4-0.6-0.8-1   C542.8,458.6,583.9,460.8,624.7,460.2z" />
	<path display="inline" fill="#220E0E" d="M630.6,461.6c-0.8,1.5-2.4,0.9-3.5,0.5c0-0.3,0-0.7,0-1.1   C628.4,460.6,629.5,461,630.6,461.6z" />
	<path display="inline" fill="#95776A" d="M462.3,293.3c4,1.5,5.3,6.2,7,9.7c-3.1-1.9-4.6-4.9-6.6-8.1c-0.2,0.7-0.4,1-0.5,1.4   C460.9,295.5,461.9,294.1,462.3,293.3z" />
	<path display="inline" fill="#1C1311" d="M389.5,229.7c-0.8-1-1.6-1.9-2.7-3.3c2.6-0.4,3.5,1.5,5.3,2.7c1.4,0.6,2.4,0.3,3.4,2   c-0.9,0-1.3,0-1.8,0.1C392.6,230.1,390.9,230.2,389.5,229.7z" />
	<path display="inline" fill="#8F6C5F" d="M465.9,317.8c-0.1-1.4-0.4-2.8-0.6-4.3c0.7,0.1,1.4,1.4,2.1,0c0.4,0.8,0.8,1.6,1.3,2.4   c-0.7,0.7-1.3,1.3-2,1.9C466.4,317.8,466.1,317.8,465.9,317.8z" />
	<path display="inline" fill="#2A1C19" d="M453.2,295.5c-1.5-0.1-1.8-1.2-2.6-2.2C452.5,293.1,452.5,293.1,453.2,295.5z" />
	<path display="inline" fill="#372A26" d="M378.3,153.1c-0.5-0.9-0.7-1.8,0.1-2.8C379.7,152.1,379.7,152.3,378.3,153.1z" />
	<path display="inline" fill="#3B322D" d="M457,292.6c1.6,0.7,1.6,0.7,1.3,1.9C456.7,293.8,456.7,293.8,457,292.6z" />
	<path display="inline" fill="#5B443D" d="M393.1,212.6c1.4,0.1,1.9,0.6,1.8,1.9C393.7,214.5,393.2,214,393.1,212.6z" />
	<path display="inline" fill="#5B3A35" d="M448.4,290.1c-0.1,0.1-0.1,0.1-0.2,0.2c0-0.1,0-0.3,0-0.4   C448.3,289.9,448.4,290,448.4,290.1z" />
	<path display="inline" fill="#8C827E" d="M618.3,518.7c-0.7,0-1.4,0-2.1-0.1c0.3-12.2-0.8-24.3,0.9-36.4c1.4,0.1,2.8,0.1,4.2,0.2   c0,1.8,0.4,3.6-0.6,5.2c-0.1-1.3-0.1-2.6-0.2-4.4c-1.2,2.3-2,4.1,0,5.8c-0.5,4,1,8.8-0.6,12.4c-0.1-3.2-0.1-6.5-0.2-9.7   c-2.9,3.9-1,9.6-1.3,14.4c1.1-1,0-2.6,1.3-3.3C619.2,508,621.1,513.9,618.3,518.7z M617.9,512.6c1.3-1.8,1.4-3.5,0.7-5.5   C617.3,508.7,617.3,508.7,617.9,512.6z" />
	<path display="inline" fill="#1C1B1A" d="M497.8,498.3c-0.5,5.2,0.8,11.2-0.7,15.9c-0.3-10.4,0.5-20.5-1.4-30.7   c0.6-0.6,1.3-1.2,2-1.8c0.5,1.3,1.9,0.5,2.9,1.4c0,0.6,0,1.5,0,2.4c-0.4-0.7-0.7-1.4-1.1-2.3c-0.8,0.1-1.5,0.3-2.3,0.4   C497.7,488.5,498,493.3,497.8,498.3z" />
	<path display="inline" fill="#312E2C" d="M494,548.1c-0.3,1.1-0.7,2.1-1.4,3l0,0c0.2-6.5,1.9-13,3.2-19.3c0.4,0,0.8-0.1,1.1-0.1   C495.9,537.2,494.7,542.6,494,548.1z" />
	<path display="inline" fill="#272322" d="M488.9,447.9c1.5,3.4,3,6.7,4.5,10.1c-0.1,0.5,0,1.2-0.8,1.4l0,0   c-1.3-3.7-3.5-6.9-4.4-10.8C488.5,448.4,488.7,448.1,488.9,447.9z" />
	<path display="inline" fill="#2A2625" d="M491.9,559.1c-0.8,1.6-1.3,3.2-1.5,5c-1.8-3.4,1.4-8.8,1.6-12.8c0.2-0.1,0.4-0.2,0.6-0.2   l0,0C493,553.8,491.8,556.3,491.9,559.1z" />
	<path display="inline" fill="#746C68" d="M473.9,411.7c1.5,2.6,1.8,5.8,2.8,8.7c-0.2,0.1-0.4,0.2-0.5,0.3c-1.5-2.8-2.1-6-3.1-9   C473.4,411.7,473.7,411.7,473.9,411.7z" />
	<path display="inline" fill="#534B49" d="M487.6,569.9c-0.6,3.4-1.4,6.7-3.6,9.4C484.5,575.9,485.6,572.7,487.6,569.9z" />
	<path display="inline" fill="#4F4644" d="M484,439.2c1.7,2.2,2.8,4.6,3.6,7.3C485,445,484.2,441.9,484,439.2z" />
	<path display="inline" fill="#423E3C" d="M473.9,411.7c-0.3,0-0.5,0-0.8,0c-0.1-2.2-2.8-5.6-0.7-7.2   C472.9,406.9,473.4,409.3,473.9,411.7z" />
	<path display="inline" fill="#6D6461" d="M468.1,392.3c0.8,1.1,0.8,2.3,0.8,3.6C467.6,395.1,466.9,393.4,468.1,392.3z" />
	<path display="inline" fill="#625754" d="M481.1,431.9c1.2,0.9,1.5,2.2,1.5,3.6C481.6,434.8,480.2,432.8,481.1,431.9z" />
	<path display="inline" fill="#58504D" d="M482.5,435.5c1.2,0.9,1.6,2.2,1.5,3.6C482.7,438.3,482.5,437,482.5,435.5z" />
	<path display="inline" fill="#3D3B39" d="M482.5,583.6c-0.2,1.2-0.5,2.3-0.7,3.5C480.5,586.1,481.4,584.3,482.5,583.6z" />
	<path display="inline" fill="#4F4644" d="M488.9,447.9c-0.2,0.2-0.5,0.5-0.7,0.7c-0.9-0.5-0.7-1.4-0.7-2.2   C488,446.9,488.5,447.4,488.9,447.9z" />
	<path display="inline" fill="#302B2A" d="M465.1,379.3c0.2,0,0.5,0,0.7,0c0,0.8,0,1.6,0,2.9C465,381,465.2,380.1,465.1,379.3z" />
	<path display="inline" fill="#534B49" d="M488.3,568.5c-0.3,0.5-0.5,1-0.8,1.5c0-0.5,0.1-1.1,0.1-1.6   C487.9,568.4,488.1,568.4,488.3,568.5z" />
	<path display="inline" fill="#413937" d="M482.6,581.5c0.9,1.1,0.9,1.1-0.1,2.1C482.5,582.9,482.6,582.2,482.6,581.5z" />
	<path display="inline" fill="#827A76" d="M492.7,551.1c-0.2,0-0.4,0-0.6,0.2c-0.1-0.6-0.2-1.3,0.5-1.6   C492.6,550.2,492.6,550.7,492.7,551.1z" />
	<path display="inline" fill="#534B49" d="M483.9,580.7c-0.2,0-0.4,0.1-0.7,0.1c0-0.6-0.1-1.3,0.7-1.5   C484,579.7,483.9,580.2,483.9,580.7z" />
	<path display="inline" fill="#2B2826" d="M619.7,502.7c-1.3,0.7-0.2,2.3-1.3,3.3c0.2-4.7-1.6-10.5,1.3-14.4   C619.7,495.3,620,499,619.7,502.7z" />
	<path display="inline" fill="#514B48" d="M628.5,565.6c-1.7-0.9-5.6-13.5-3.7-14.4C626,555.9,627.7,560.7,628.5,565.6z" />
	<path display="inline" fill="#595350" d="M623.5,541.7c-0.1,0.3-0.2,0.7-0.3,1.1c-2.3-2.3-1.6-7.2-2.7-10.5   c0.3-0.2,0.5-0.5,0.8-0.7C622.3,534.6,622.5,538.4,623.5,541.7z" />
	<path display="inline" fill="#211E1D" d="M621.3,531.5c-0.3,0.2-0.5,0.5-0.8,0.7c0-1.8-1.8-4.9,0.7-5.7   C621.2,528.3,621.3,529.9,621.3,531.5z" />
	<path display="inline" fill="#2A2625" d="M620.4,488.9c-2-1.7-1.2-3.5,0-5.8C620.5,485.6,620.7,486.9,620.4,488.9z" />
	<path display="inline" fill="#010101" d="M630.6,575c-0.7-0.7-1-1.3-0.1-2.1C630.6,573.6,630.6,574.3,630.6,575z" />
	<path display="inline" fill="#615956" d="M499.1,408.2c1.8,4.1,3.6,8,5.1,12.2c-1.1,0.1-2.1-0.5-2.1-1.5   C502.8,415.1,497,411.2,499.1,408.2z" />
	<path display="inline" fill="#595350" d="M495.5,399.5c2.1,1.2,1.7,3.7,2.1,5.7C496,403.9,495.3,401.7,495.5,399.5z" />
	<path display="inline" fill="#756B67" d="M490.5,385c1.1,1.3,1.9,2.7,2.2,4.3c-0.3,0.1-0.5,0.2-0.8,0.3   C491.6,388.2,490,386.1,490.5,385z" />
	<path display="inline" fill="#4E4845" d="M481.9,348.9c-0.1,0.4-0.1,0.9-0.2,1.3c-1.8-0.7-1.8-2.9-1.7-4.6   C480.7,346.8,481.3,347.8,481.9,348.9z" />
	<path display="inline" fill="#716864" d="M482.5,356.2c0.6,0.9,0.9,1.8,0.7,2.8C481.5,358.5,481.3,357.8,482.5,356.2z" />
	<path display="inline" fill="#615956" d="M504.2,420.4c1.4,0.5,1.6,1.7,1.4,2.9C504.2,422.8,504.1,421.6,504.2,420.4z" />
	<path display="inline" fill="#8D8A86" d="M616.2,518.6c0.3,0.7,0.5,1.4,0.8,2c-0.1,0.3-0.1,0.7-0.2,1.3   c-37.4-3.3-76.7-0.1-114.7-1.2c-0.8,0.5-1.5,1-2.2,1.4c0.1-0.5,0.1-1,0.2-1.5c3.3-4,9.9-1.3,14.5-2   C548.4,518.6,582.3,519.1,616.2,518.6z" />
	<path display="inline" fill="#A19691" d="M507,486.7c-0.2-1.6-0.4-3.3-0.6-5.1c1.3-0.9,2.7-0.4,3.8-0.4c1.8,11.6,1.3,23.9-1.3,35.6   c-1.2,0.9-2.7,0.4-4,0.4c1.7-7.5,2.2-15.2,2.1-23c-0.2-0.3-0.5-0.6-0.7-0.8l0,0.1C506.1,491.1,507,488.9,507,486.7z" />
	<path display="inline" fill="#A09691" d="M610.6,481.2c1.3,0,2.6,0,3.9,0c-0.4,11.8-0.9,23.8-0.6,35.8c-1,0.3-1.9,0.8-2.8,0.2   c0.2-0.4,0.4-0.9,0.5-1c-1.8-9.1-1.4-18.2-2.7-27.3l0,0C610.5,487.1,609.7,483.7,610.6,481.2z" />
	<path display="inline" fill="#9B918C" d="M497.8,498.3c0.2-5-0.1-9.8-0.7-14.7c0.8-0.1,1.5-0.3,2.3-0.4c3.6,10.9,0.9,22.8,1.1,34.3   c-1,1.3-2.1,2.7-2.1,4.6C496.4,515.1,500,505.9,497.8,498.3z" />
	<path display="inline" fill="#8C837E" d="M507,496.8c0,1.3,0,2.6,0,3.9c-0.4-0.4-0.7-0.8-1.3-1.5c0,1.3,0,2.2,0,3.4   c0.6-0.6,0.9-1,1.3-1.4c-0.4,5.4-0.9,10.8-2.1,16c-0.6,0-1.1,0-1.8,0c0.1-11.8,1.4-23.4-0.8-34.9c1-0.4,1.9-0.9,2.9-1.3   c-0.1,2.7,0,4.5,0.6,7.2c0.5-0.7,0.9-1.1,1.2-1.6c0,2.2-0.9,4.4-0.7,6.8c-1.2,1-0.6,2.1-0.4,3.3C506.3,496.8,506.6,496.8,507,496.8   z M505.3,508l-0.1,0.2l0.3,0L505.3,508z" />
	<path display="inline" fill="#7E7571" d="M608.9,488.9c0.2,0.6,0.4,1.1,0.7,1.7c-0.3,0-0.7,0.1-1,0.1c0.5,2.7-0.4,6,1,8.2   c0,0.8,0,1.6,0,2.4c-0.8,0.4-0.7,0.8,0,1.2c0.6,2.1,2.2,8.1-0.6,8.6c0,0.6-0.1,1.1-0.1,1.7c-1.6-10.2-2.6-21.3-1.3-31.7   c0.4,0,0.8,0,1.2,0C608.8,483.8,607.2,486.6,608.9,488.9z" />
	<path display="inline" fill="#8D827D" d="M608.9,512.9c0-0.6,0.1-1.1,0.1-1.7c0.6-0.3,1.6-0.2,1.4-1.3c1.2,1.9,0.8,3.9,1.1,6.3   c-0.1,0.2-0.3,0.6-0.5,1C609.2,516.8,608.8,514.6,608.9,512.9z" />
	<path display="inline" fill="#363634" d="M608.9,488.9c-1.7-2.3-0.1-5.2-0.1-7.7c0.6,0,1.2,0,1.8,0.1c-0.3,1.9-0.6,3.7-1,5.6   C608.8,487.3,608.9,488.2,608.9,488.9L608.9,488.9z" />
	<path display="inline" fill="#363634" d="M607.6,481.2c0,0.2-0.1,0.4-0.1,0.6c-0.5,0.2-1,0.5-1.4,0.7c-0.1-0.4-0.1-0.9-0.2-1.3   C606.5,481.2,607,481.2,607.6,481.2z" />
	<path display="inline" fill="#8F8580" d="M500.6,520.1c-0.2,0.2-0.4,0.4-0.5,0.6C500.2,520.5,500.4,520.3,500.6,520.1z" />
	<path display="inline" fill="#181615" d="M460.8,342.4c-0.3,0.2-0.6,0.3-1,0.5c-1.4-4.6-2-10.4-0.5-14.8   C460.6,332.8,460.1,337.7,460.8,342.4z" />
	<path display="inline" fill="#211F1E" d="M459.4,320.7c-0.4,0.2-0.8,0.4-1.3,0.7c-0.8-1.8-1.4-3.6-1.5-5.5c0.2,0,0.3,0,0.5-0.1   C458.7,316.8,459.4,318.9,459.4,320.7z" />
	<path display="inline" fill="#8E847F" d="M460.8,340.4c-1-2.5-0.4-5.4-0.6-8.1C461.5,334.7,460.6,337.7,460.8,340.4z" />
	<path display="inline" fill="#8E847F" d="M459.4,319.4c-0.2-0.5-0.4-1-0.6-1.5C459.5,318.2,459.4,318.8,459.4,319.4z" />
	<path display="inline" fill="#8E847F" d="M458,316.4c-0.3-0.2-0.6-0.4-0.9-0.6C457.4,316,457.7,316.2,458,316.4z" />
	<path display="inline" fill="#745A51" d="M468.8,298.3c0.2-0.2,0.5-0.5,0.7-0.7c1.6,3.3,3.6,6.7,4.1,10.3   C471.3,305.1,470.6,301.4,468.8,298.3z" />
	<path display="inline" fill="#7B6056" d="M475.3,307.7c0.8-0.8,0.8-1.8,0.7-2.9c1.1,1.8,1.2,5.7-0.3,7.4   C475.2,310.5,475.3,309.1,475.3,307.7z" />
	<path display="inline" fill="#715950" d="M473.1,312.2c-0.9-1.2-1.7-2.1-1.2-3.5C473.7,310.4,473.7,310.4,473.1,312.2z" />
	<path display="inline" fill="#7C6156" d="M474.6,296.9c1.8,1.6,1.8,1.6,2,3.9C475.2,299.2,475.2,299.2,474.6,296.9L474.6,296.9z" />
	<path display="inline" fill="#745A51" d="M469.4,297c-0.5-0.8-0.5-0.8-0.3-2.1c0.5,0.5,0.8,0.9,1.2,1.3   C470,296.4,469.7,296.7,469.4,297z" />
	<path display="inline" fill="#745A51" d="M468.3,297.6c0.2,0.2,0.4,0.5,0.6,0.7C468.6,298.1,468.4,297.8,468.3,297.6z" />
	<path display="inline" fill="#8F8580" d="M492.7,459.4c0.8-0.2,0.7-0.9,0.8-1.4c0.5,0.7,0.8,1.2,0.2,2   C493.3,459.7,493,459.6,492.7,459.4z" />
	<path display="inline" fill="#010101" d="M629.8,570.7c-0.1,0.3-0.1,0.7-0.2,1.1C629.2,571.2,629.3,570.9,629.8,570.7L629.8,570.7z   " />
	<path display="inline" fill="#050403" d="M383,434.9c-0.3-0.3-0.6-0.5-0.9-0.8c14.2-9,7.4-25.3,12.6-39.1   c8.6-27.5,5.5-56.7,8.5-84.8c3.2,33.3-0.7,66.8-9.5,99C393.9,420.2,394.2,429.4,383,434.9z" />
	<path display="inline" fill="#D59379" d="M381.5,434.2c-0.5,0.4-1.1,0.8-1.6,1.2c-0.8-1-1.7,0.4-2.3-0.8c0-0.1-0.8,0.1-1.2,0.2   c-0.2-1.4-0.2-1.4-1.5-1.3c0.3-1,1.5-1.2,1.4-2.4c1.3-0.5,2.1-1.2,1.9-3.1c-0.8,0.4-1.4,0.7-1.9,1c0.8-8.5,10.5-6.8,6.1,1.4   C382.3,431.8,380.4,433,381.5,434.2z" />
	<path display="inline" fill="#D69479" d="M393.6,416.8c0.3-2.9-0.6-6.2,0.7-8.8c0.3,0.8,1,0.9,1.8,0.9c6.4,0.4,2.8,11.6,0.3,12.3   C395.4,419.6,394.5,418.2,393.6,416.8z" />
	<path display="inline" fill="#1B120F" d="M353.4,441.5c1.6-3.4,3.3-7.1,5.6-10C361.8,432.3,355.6,442,353.4,441.5z" />
	<path display="inline" fill="#130C0A" d="M383.2,437.2c2.3,1.8,1.1,6.2-0.3,8.5C381.9,444.5,381.9,438,383.2,437.2z" />
	<path display="inline" fill="#2A1E19" d="M375,433.6c1.3-0.2,1.3-0.2,1.5,1.3c-1.5,2.4-1.5,2.4-3.6,3.6   C372.3,436.4,374.1,435.2,375,433.6z" />
	<path display="inline" fill="#3D2822" d="M351.9,442.9c-0.7,2.4-1.6,3.9-3.4,5C348.2,445.8,349.3,444,351.9,442.9z" />
	<path display="inline" fill="#241613" d="M382.6,447.7c0.5,2.3,0.4,4-1,5.7C380.2,451.4,381,449.6,382.6,447.7z" />
	<path display="inline" fill="#241A16" d="M389.9,406.9c0.6,1.9,0.2,3.3-1.2,4.9C388.5,409.9,388.1,408.3,389.9,406.9z" />
	<path display="inline" fill="#5E4137" d="M403.7,303.7c0,1.1,0,2.1,0,3.2C401.9,306.3,401.9,305.3,403.7,303.7z" />
	<path display="inline" fill="#32221C" d="M357.6,414c1.9-0.3,2.3,1.1,2.8,2.2c-0.4,0.7-0.9,0.4-1.4,0.4   C358.6,415.8,358.1,414.9,357.6,414z" />
	<path display="inline" fill="#261C17" d="M376.4,429.1c0.6-0.3,1.1-0.6,1.9-1c0.2,1.8-0.6,2.6-1.9,3.1   C376.4,430.5,376.4,429.8,376.4,429.1z" />
	<path display="inline" fill="#64453A" d="M377.5,463.6c-0.5-1.5-0.5-1.5,0.3-2.5C378.7,462.6,378.7,462.6,377.5,463.6z" />
	<path display="inline" fill="#3E2B25" d="M380.5,455c0.4,1.7,0.3,2.8-1,3.5C378.8,457.2,379.1,456.2,380.5,455z" />
	<path display="inline" fill="#1B1713" d="M374,469.2c-0.9,0.2-0.7-1-0.9-1.6C374.1,466.8,374.6,468.5,374,469.2z" />
	<path display="inline" fill="#6C453A" d="M337.9,457.9c-0.8-0.1-0.8,0.1-1.3-0.5c0.3-0.4,0.6-0.9,1.3-2   C337.9,456.8,337.9,457.4,337.9,457.9z" />
	<path display="inline" fill="#A77462" d="M403.2,299.1c0.6,1.3,0.7,2.3-0.6,1.6C402.6,300.5,402.7,300.2,403.2,299.1z" />
	<path display="inline" fill="#BB826E" d="M385,415.5c-0.4-0.6-0.8-1-0.2-1.3C385.7,414.4,385.6,414.7,385,415.5z" />
	<path display="inline" fill="#654B3F" d="M379.7,420.4c0.8,1.4,1.1,1.3,0.1,1.9C379.1,421.7,379.3,421.5,379.7,420.4z" />
	<path display="inline" fill="#554B47" d="M395.8,272c2.1,3.5,2.4,5.5,1.2,7.7C396.3,277,395.3,274.6,395.8,272z" />
	<path display="inline" fill="#645A54" d="M391.6,262.3c2.4,1.3,3.1,4.8,2.1,6.9C392.4,266.7,391.7,264.7,391.6,262.3z" />
	<path display="inline" fill="#EAA388" d="M405.5,292c-0.3,0.2-0.7,0.4-1,0.6C404.8,292.4,405.2,292.2,405.5,292z" />
	<path display="inline" fill="#EAA388" d="M406.5,291.1c-0.2,0.2-0.4,0.4-0.6,0.6C406.1,291.5,406.3,291.3,406.5,291.1z" />
	<path display="inline" fill="#33231D" d="M349.4,326c3-0.5,5.4-0.5,7.8,0.1C357.5,328.2,350.5,327.4,349.4,326z" />
	<path display="inline" fill="#794F41" d="M352.8,328.8c1.3,0.2,2.3,0.6,3.1,1.6C354.2,330.9,354.2,330.9,352.8,328.8z" />
	<path display="inline" fill="#231815" d="M343.9,166.2c-0.8-1.2-1.5-2.4-2.3-3.6c0.1-0.4,0.2-0.9,0.4-1.6c1.7,1.4,2.2,3.2,3.5,5   C344.7,166,344.3,166.1,343.9,166.2z" />
	<path display="inline" fill="#402D27" d="M367.1,198c-1.7-0.1-2.4-0.7-3.1-1.7C365.7,195.6,366.1,196.8,367.1,198z" />
	<path display="inline" fill="#60483F" d="M348.4,168.3c-2.1-1.5-2.1-1.5-1.8-2.7C347.7,165.9,347.8,166.9,348.4,168.3z" />
	<path display="inline" fill="#241715" d="M426.2,274.7c1.4,0.4,2.1,1.3,2.1,2.7c-0.2,0-0.5,0-0.7,0l0,0c-0.3-0.2-0.5-0.5-0.8-0.7   l0,0C426.2,276.2,425.9,275.5,426.2,274.7z" />
	<path display="inline" fill="#191513" d="M335.9,148.2c0.1-0.7,0.1-1.3,0.1-1.9C338,145.9,337.3,148.4,335.9,148.2L335.9,148.2z" />
	<path display="inline" fill="#513D35" d="M351.1,167.6c0.6,1.3,0.8,2.4-0.6,1.7C350.6,169,350.7,168.7,351.1,167.6z" />
	<path display="inline" fill="#2E1C19" d="M386.2,224.9c-0.4,0.8-0.6,0.3-1.1,0c0.1-0.2,0.3-0.4,0.4-0.6   C385.7,224.5,386,224.7,386.2,224.9z" />
	<path display="inline" fill="#4B332C" d="M368.2,197.5c0.2,0.3,0.4,0.5,0.6,0.8C368.3,199,367.3,197.9,368.2,197.5z" />
	<path display="inline" fill="#32241F" d="M431.2,278.2c0.1,0.4,0.1,0.8,0.2,1.3l-0.1,0.1c-0.3,0-0.5,0-0.8,0c0,0,0,0,0,0   c-0.2-0.2-0.5-0.5-0.7-0.7l0,0c0-0.3,0-0.5,0.1-0.8C430.3,278.2,430.7,278.2,431.2,278.2L431.2,278.2z" />
	<path display="inline" fill="#2F2521" d="M429.7,278.9c0.2,0.2,0.5,0.5,0.7,0.7C430.2,279.4,430,279.2,429.7,278.9z" />
	<path display="inline" fill="#2F2521" d="M429.8,278.1c0,0.3,0,0.5-0.1,0.8C429.1,278.6,429,278.3,429.8,278.1z" />
	<path display="inline" fill="#2F2521" d="M427.6,277.4c0.2,0,0.5,0,0.7,0C428.1,278.1,427.9,278,427.6,277.4z" />
	<path display="inline" fill="#2F2521" d="M426.9,276.7c0.3,0.2,0.5,0.5,0.8,0.7C427.4,277.2,427.1,277,426.9,276.7z" />
	<path display="inline" fill="#2F2521" d="M426.2,276c0.2,0.3,0.5,0.5,0.7,0.8C426.6,276.5,426.4,276.2,426.2,276z" />
	<path display="inline" fill="#2F2521" d="M426.2,274.7c0,0.2-0.1,0.5-0.1,0.7C425.8,275.1,425.3,274.8,426.2,274.7z" />
	<path display="inline" fill="#32241F" d="M431.3,279.5c0.4,0.3,0.8,0.6-0.1,0.7c0-0.2,0-0.4,0-0.6L431.3,279.5z" />
	<path display="inline" fill="#2F2521" d="M431.2,279.6c0,0.2,0,0.4,0,0.6c-0.3-0.2-0.5-0.4-0.8-0.6   C430.7,279.6,431,279.6,431.2,279.6z" />
	<path display="inline" fill="#543F38" d="M465.9,291.2c1.5-0.1,2.6,0.2,2.8,2C467.1,293.3,466.8,292.1,465.9,291.2z" />
	<path display="inline" fill="#6B554C" d="M464.5,289.7c-0.4-0.3-0.8-0.5-1.3-0.9C464.1,288.4,464.1,288.4,464.5,289.7z" />
	<path display="inline" fill="#4B403B" d="M399.5,192.9c-0.3-0.4-0.5-0.7-0.9-1.2c1.5-0.4,2.4-0.2,2.9,1.2   C400.8,192.9,400.2,192.9,399.5,192.9z" />
	<path display="inline" fill="#55433E" d="M408.9,219.8c0.3-0.5,0.6-1,0.9-1.5C410.3,219.3,410.3,219.3,408.9,219.8z" />
	<path display="inline" fill="#322824" d="M422,182.2c0,1.9-1.4,3-2.2,4.5c-0.3-0.3-0.6-0.6-0.9-1c0.8-1.4,1.5-2.8,2.3-4.2   C421.5,181.7,421.7,181.9,422,182.2z" />
	<path display="inline" fill="#8A756B" d="M422,182.2c-0.3-0.2-0.5-0.5-0.8-0.7c0.2-1,0.2-1,1.2-1.5c0.1,0.8,0.1,1.4,0.1,2.1   C422.4,182.1,422.2,182.1,422,182.2z" />
	<path display="inline" fill="#17110F" d="M290.4,505.6c-1.2,0.8-0.3,2.3-1,3.3c-2.2,0.3-1.4-4.1,0.4-4.8c0.2,0.2,0.5,0.5,0.7,0.8   C290.4,505.1,290.4,505.3,290.4,505.6z" />
	<path display="inline" fill="#453832" d="M366.5,65.2c0.7,0.5,1.2,0.9,1,1.7C366.4,66.7,366.2,66.1,366.5,65.2z" />
	<path display="inline" fill="#2B2826" d="M617.9,512.6c-0.6-3.9-0.6-3.9,0.7-5.5C619.3,509.1,619.3,510.8,617.9,512.6z" />
	<path display="inline" fill="#21201F" d="M507,496.8c-0.3,0-0.7,0-1.1,0c-0.2-1.2-0.7-2.4,0.4-3.3l0-0.1c0.2,0.3,0.5,0.6,0.7,0.8   C507,495.1,507,495.9,507,496.8z" />
	<path display="inline" fill="#262322" d="M507,501.2c-0.4,0.4-0.7,0.8-1.3,1.4c0-1.2,0-2.2,0-3.4c0.6,0.7,0.9,1.1,1.3,1.5   C507,500.8,507,501,507,501.2z" />
	<path display="inline" fill="#8C837E" d="M507,494.2c-0.2-0.3-0.5-0.6-0.7-0.8C506.5,493.7,506.8,494,507,494.2z" />
	<path display="inline" fill="#030202" d="M609.6,499c-1.5-2.2-0.5-5.5-1-8.2c0.3,0,0.6-0.1,1-0.1   C609.5,493.4,609.6,496.2,609.6,499z" />
	<path display="inline" fill="#7E7571" d="M608.9,489c0.1-0.8-0.1-1.6,0.7-2.2C609.6,487.6,610,488.6,608.9,489z" />
	<path display="inline" fill="#030202" d="M609.6,502.7c-0.8-0.4-0.8-0.8,0-1.2C609.6,501.8,609.6,502.2,609.6,502.7z" />
	<polygon display="inline" fill="#403230" points="505.3,508 505.4,508.2 505.1,508.2  " />
</g>
</svg>