<?xml version='1.0' encoding='utf-8'?>
<svg xmlns="http://www.w3.org/2000/svg" version="1.2" baseProfile="tiny" id="Layer_1" x="0px" y="0px" viewBox="0 0 900 600" overflow="visible" xml:space="preserve">
<g id="b_00000069380473014589069080000013053973902833134259_">
	<path display="inline" fill="#010001" d="M513.8,164.9c-4.2,2-9.8-0.1-14.3-1c-8.7,0.1-17.6,3.4-26.5,2.2c1.6,10-3.3,18.8-7,27.7   c-2.3,13.5-3.6,26.7-9.6,39.1c1.1,3.9-1.8,7-3.2,10.4c-4.2,13.6-4.4,28.9-13.3,40.9c4.3,1,11.2-2.5,12.8,3.4   c11.9,34.6,41.5,62.2,46,100.3c10,9.6,4.4,24.3,5.3,36.4c6.4,31.5,3,64.2,11.7,95.3c2.5-2.2,5.3-1.4,7.7-2.3   c3.7,3.2,5,7.3,6.2,11.8c6.3,11.5,16.3,21.6,27.2,28.8c0.3,0.8,0.6,1.5,0.9,2.3c5.7,2,10,6.4,15.5,8.6c5.4,1.8,4.8,8.2,3.8,12.9   c-0.7-0.1-1.4-0.2-2.1-0.3c-21.6,11.9-48.6,3.7-69.9-5.5c-11.7,1.5-23.3,0.2-33.3-8.6c9.4-12.2,5.1-15.2,9.8-26.9   c1-3.3,0.8-7,1.4-10.8c0.8-0.4,1.9-1.1,3.1-1.8c-4.2-14.9-7-30.9-14-44.9c-4.4-5.7-10.8-9.4-13.2-16.7c3.5-16.4-1.1-34.3-0.2-50.9   c-3.3-2.2-6.6-4.4-9.8-6.6c-7.1,2.3-14.2,4.1-20.7,7.8c-9.1-3.1-8.7-15-14.2-21.4c-3.6,10.9-9.8,21.2-10.9,32.6   c-12.7,2.2-26.2,1.9-39.2,1.8c-5.7,6.7-10.9,14.7-20.5,15.4c-4.2,5.3-10.7,5.7-16.5,8.3c-10.9,9.9-23.3,17.1-36.5,23.8   c-6.3,2.5-9.7,8.2-15.2,12.1c-12.4,10.5-27.8,16.8-37.8,30.1c1.7,0.8,3.1,1.4,4.6,2.1c3.1,9.3-10.6,10.5-10.1,18.6   c-8.8,9.2-2.5,24.6-7.5,34.9c-2.9-9.4-0.5-19.6,0.2-28.7c-6.3,0-16.1,1-17.5-7.2c6.3,1.3,12.3,2.6,18.5,3.9   c0.6-0.9,1.1-1.8,1.7-2.7c-5.8-0.9-14.3-0.2-17.2-6.8c3.4-2.2,6.5,0.8,9.8,1.3c1.9,1.4,4.2,0.5,6.4,0.8c1.2,0,2.4,0.9,3.5-0.3   c-1.1-1.3-1.1-1.3-3.5-1.5c-0.2-0.2-0.4-0.2-0.7-0.1c-3.6-0.5-25.9-9.9-11.9-9.9c6.5,2.3,12.9,5,19.4,7.5c2.4-2.5,6.2-3.6,6.3-8   c-3.5,0.4-5.6-2-8.1-2.7c-4-0.6-5.3-4.2-6.9-7.2c-4.4,0.7-8.4,3.9-12.5,2.4c0.8-4.6-1.3-8.7,2.8-12.2c0.4-0.5,0.4-1.4,0.7-2.5   c-1,1-0.8,1.1-2.1,0.8c1-2.3,2.1-4.2,3.6-6.2c-4.9,1.3-9.1,4.7-14.4,3.8c-15,13.1-12,17.7-9.7,34.5c-1.5,9.5-8.7,15.6-11.4,24.7   c-4-12.5,10.8-15,6.7-33.6c-4.4-11.8,6.2-28.5,19.3-28.2c1.6-2.8,5.4-3.1,7.7-5.2c3-3.1,8.3-5.2,8.8,0.5   c28.8-38.2,33.8-66,84.5-81.3c-1.2-1.4-2.3-2.7-3.5-4.1c6.2-12.6,9.7-26.8,18.7-37.7c1.5-0.3,1.3-1.9,2-2.8c0.5,0.2,1,0.4,1.8,0.6   c-7.1,13-12.3,27.2-17.8,40.6c26.2,17.3,59.2,21.8,89.8,18.1c2-10.5,6.3-19.8,10.2-29.6c1-0.3,0.9-1.1,0.8-1.9   c0.2-1.3,1.1-2.5,1.8-3.6c0,0,0,0,0,0c1.1-0.1,1-0.9,1.1-1.7c0.3-0.3,0.5-0.7,0.8-1c0,0,0,0,0,0c2.6,1.1-1.2,4.8,1.8,5.5l0,0   c4.3,6.3,6,14.2,11.4,20c23.3-9.1,44.5-23.6,65.6-37.5c-12.5-27.7-25.9-55.9-43.1-80.7c-1.9,1.5-1.1,4.3-3.6,6.1   c0.4-2.3,0.7-4,0.9-5.7c0.3-1.8-2.2-2.9-1.5-5c1.1,0,2.2,0,3.2,0c0.2-4.6-6.3-2-9.1-2.6c-1,0.8-1.9,1.6-2.9,2.4   c-1-0.6-1.8-1-2.6-1.4c-4.3,2.8-9.4,1.5-13.7-0.3c0.1-1.8,1.4-1.5,2.6-1.7c1.2,1.2,2.6,1.1,4.2,0.7c0.1-0.8,0.2-1.5,0.4-2.7   c-1.4,0.6-2.4,1.1-3.4,1.6c-0.1-0.5-0.1-0.9-0.2-1.4c3.1-3.7,8.3-0.9,12.5-0.8c8.6-13.5,8.7-30,13.6-44.3   c6.7-14.2,10.4-28.4,12.5-43.8c3.9-9.7,7-19.6,6.6-30.2c-10.1-0.2-19.4,0.7-28.9-1.7c-2.2,5.5-7.9,7.7-10.4,12.5   c-0.8,1.1-0.9,3-2.4,3.4c-0.6-0.7-0.7-1.2-0.6-2.2c-2.1,1-3.9,1.8-5.7,2.7c-0.3-0.3-0.6-0.6-0.9-0.9c2.8-2.6,6.2-4,8.6-7.1   c0.1-3.7,0.7-7.4,0.1-11.1c-2.6-1.6-15.3-8.6-11.6-11.5c24,13.3,54.3,17.6,81.2,10.8c3,1.1,6.3,1.7,8.8,3.5   C510,164,512.2,163.2,513.8,164.9z M504,536.2c-3.7,2.9-7.8,2-12,0.8c-0.5,0.6-1,1.1-1.4,1.6c0.7,3.2,2.4,5.5,5.2,7.1   c4.1-1.3,8.3-2.7,12.1-5.1c0-4.9,0.6-9.7,0.7-14.8c6.4-1.7,2-7.6,1.6-11.9c-3-15.5-4.4-31.3-4.7-47.1c-0.3-19.8-5.5-39.4-4.2-59.1   c1.4-6.5,1.8-13-4-17.4c-0.9,2.2-1.6,4.1-2.3,6.1c-3.5-4.7,2.9-11.4-1.5-16.7c-12.3,10.7-25.9,19.6-40.3,27.1   c4.7,2.8,8.9,5.9,10.6,11.2c-1.4,0.4-1.6-2.1-3.5-1.3c5.2,12.1,1.4,26.8,2.6,39.9c-1.2,12.5,8.9,20.5,14.4,30   c6.5,14.8,12,30.6,14.3,46.6c1.3,0.4,2.4,0.8,3.5,1.2C497,537,501.9,533.6,504,536.2z M223.8,499.6c-2.2,3.4-6.4,7.2-4.1,11.6   c2.9,0.5,4.6-1.4,6.5-3.1c4,2.4,2.4,9,7.9,9.4c7.7-6.3,13.8-14.5,22.8-19.4c16-11,28.2-27.3,47.2-33.8c5.6-3,13.3-5.6,14.9-12.3   c9.8-0.2,18.7-5.6,26.3-11.4c3.9,3.7,10.7-8.4,13.5-11.6c-16.1-4-32.8-7.5-46.9-16.3C258.1,430.2,254.5,457.7,223.8,499.6z    M486.9,542.4c0.3-2.7,0.1-5.6,2.1-7.8c-0.5-1.2-1-2.2-1.6-3.6c-3.8,4.4-0.5,11-5.7,15c0.5,2.3,1,4.6,1.5,6.9   c-2,4.8-3.8,9.1-7.8,12.8c9.7,7.2,22.5,7.9,34.2,7.4c0.3,0.6,0.6,1.3,0.8,1.8c15.7,8.8,34.1,5.8,50.6,9.8   c5.9-3.2,13.6-4.7,12.4-12.9c-6.9-5.2-16.6-5.3-22-12.4c-3.2-3.3-6.8-6.3-10.2-9.5c-2.8,3.6-3,3.7-7.7,5.5   c-1.7-3.6,2.9-6.3,4.7-9.2c-0.1-0.1-0.4-0.5-0.8-1c-2.9,1.6-11.6,8.6-13.6,4.3c3.1-3.3,7.6-5.3,10.7-8.5c-0.7-0.8-1.3-1.6-2-2.3   c-7.4,5.2-10.7,6.6-14.1,6.1c1.3-4.7,6.6-5.4,8.8-9.1c-2.8-4.3-1-11.2-4.9-14.4c-0.6,0.4-1.4,0.8-2.1,1.2c0.2,1.1,0.4,1.9,0.5,2.7   c-2.9,1.2-6.1,1.5-8.8,3.4c0,4.1,0,8.1,0,12.4C505.6,545.1,489.9,554.5,486.9,542.4z M223.2,494.8c-0.8-1.5-1.3-2.6-1.9-3.7   c-1.8,0.3-2.4,1.4-3.7,2.6c1.6,1.4,2.5,2.3,3.9,3.9C222.1,496.6,222.6,495.8,223.2,494.8z M434.1,162.6c-0.3,2.1-0.4,3.8-0.6,5.4   c1.8-1.3,3.6-2.4,4-4.8C436.4,163,435.4,162.8,434.1,162.6z M217.5,512.3c-0.8-1.6-0.5-4.1-2.1-4.5c-0.5,2.3-0.1,4.6,1.1,4.9   C216.7,512.6,217,512.5,217.5,512.3z M433.8,285.8c-1.7-0.5-3.1-0.7-4.1,1.3C431.5,287.7,432.6,286.8,433.8,285.8z" />
	<path display="inline" d="M361.5,257.7c0.8-1.8,1.5-3.5,2.3-5.4c1.2-0.2,2.3-0.4,3.8-0.7c4.6-19.5,5.3-40.5-0.3-59.9   c-1.9-17.5,7.5-33.8,7.3-51.4c9.8-31.9,37.5-57.4,21.1-93.7c-0.6-1.3,0.8-2,1.6-2.8c2,0,2.2-1.5,2.6-3.2c-0.8,0-1.5,0-2.5,0   c0,1.2,0,2.3,0,3.3c-0.3,0-0.6,0-0.9,0c-4.5-6.1-2.5-14.4-0.3-21.1c-0.2-0.8-0.4-1.6-0.6-2.7c1.2-1.4,2.4-2.8,3.9-4.4   c-0.9-0.8-1.8-1.6-2.9-2.6c1.9-1.4,3.7-2.8,5.6-4.1c0.6,0.2,1.1,0.4,1.6,0.6c0.6-1,1.3-1.9,1.9-2.9c0.8,0.6,1.4,1.1,2.1,1.7   c3.5-4.2,8.6-5.2,13.8-5.9c1.3-0.5,1.5-2.7,3.6-2.3c0,0.7,0,1.4,0,2.1c3.1,0.9,7-2,10.3-0.3c5.4,2.7,9.5-2.5,14.6-1.6   c0,0.5,0,1,0,1.5c-0.5,0.4-1,0.8-1.6,1.2c1.2,1.1,1.9,0.8,2.6-0.1c2.3,0.2,4.3,0.2,6.6-0.2c2.5,4,2.6-0.5,4,2c0,1-0.3,2,1,2.5   c0.2,0.1,0.2,0.3,0.1,0.5c0.1,0.3,0.2,0.5,0.3,0.8c0.1-0.2,0.2-0.4,0.3-0.6l0,0c0.7,0.1,1-0.1,1-0.8c0,0,0,0,0,0   c0.5,0.5,0.9,1,1.4,1.6c1.8-1,2.7-2.7,4.8-2.5c0.1,0.8-0.1,1.4-0.5,2.5c1.7-0.4,3.1-0.8,4.8-1.2c0.7,0.7,1.4,1.3,2.4,2.2   c-0.4,1.2-0.7,2.4-1.1,3.6c-3.6-2.6-2.5,3.3-8.4,4.4c-3.4,1.6-7.6,2.4-10.5,4.7c-2,3.8-5.9,3.8-9.6,3.3   c-6.2,9.4-17.7,14.4-19.4,26.6c0.9,1.4,1.9,2.8,2.9,4.2c-1.8,0.8-2.6-1.5-4.2-0.9c-0.2,0.7-0.5,1.5-0.7,2.4   c-3.2-2.4-3.7-5.7-5.6-8.9c-1.2-0.4-2.4-0.8-3.6-1.1c-1.2-1.6-3-1.8-4.8-2.5c-3.6,5.4-8.6,11-0.6,15.4c-0.3,0.3-0.6,0.6-0.9,0.9   c-2.8-0.5-2.4,3-4.2,3.9c-1.6-0.7-2.4,0.1-2.9,1.6c0.4,0.3,0.7,0.5,1.1,0.7c-0.6,0.8-1.2,1.6-1.9,2.4c0,7.7-0.2,15-3.8,22.1   c2.6,3-0.5,6.1-1.6,9.5c12.4-3.5,24.6-3.2,37.4-2.7c10.3,3.4,8.5-1,12.6-9c0.5,0.8,1,1.6,1.6,2.7c11.1-0.9,22.2,4.7,28.8,13.5   c-0.3,1-1.2,0.8-1.9,1c-7.7-6.6-17.6-8.9-27.3-11.8c-0.3,1.7-0.7,3.7-1,5.8c6.2,1.4,11.9,3.8,17.1,7.6c6.7,15.3,28.1,3.3,39.3,12.5   c-9.2,3.2-21.3-1.4-31.3-0.9c-15.3-16.6-35.9-23.7-56.8-11.7c-0.8-0.6-1.5-1.2-2.2-1.7c-26.4,3.5-41.5,61.4-13.6,72.7   c-0.6,0.3-1.2,0.6-1.8,1c-27.1-10.4-14.7-50.3-1.6-68c7.9-6.2,17-7.7,26.6-10.5c-9.7-0.9-23.9-1.3-30.6,6.8c0,0,0,0,0,0   c-9.7,13.2-16.9,28.8-15.2,45.7c-0.7-0.4-1.4-0.8-2.4-1.4c-0.1,1.1-0.1,2-0.2,2.7c1.1,0.2,1.8,0.4,2.6,0.6   c-10.5,19.2-4.9,39.9-0.7,60.6c-0.7,0.4-1.6,0.8-2,1c-0.7,12.4-0.2,24.4-5.1,35.7c12.1,12.5,30.8,16.9,46.3,24.5   c-0.3,0.9-1.2,0.8-1.9,0.9c-0.9,1.1-1.8,2.3-2.7,3.4c-0.3-0.3-0.6-0.6-0.9-0.9c0.3-0.8,0.6-1.6,0.8-2.4c-1.8-1-1.8-1-4.2-1.1   c-0.3,0.5-0.7,1.1-1,1.7c-1.1-0.4-0.8-1.4-0.9-2.3c-0.1-1.2-1-1.3-1.9-1.2c-4-0.2-6.8-2.7-10.6-3.6c-0.8-1-1.9-1.2-3.1-1.5   c-1,0.8-2,1.6-3.1,2.4c-0.4,0-0.8-0.1-1.2-0.1c0.7-1.1,1.3-2.1,2-3.3c-2.6-2-5.6-2.7-8.3-4.7c-1.4,1.5-3.1,2.4-3.5,4.4   c-0.5,0.2-0.9,0.4-2,0.8c0.4-4,3.1-3.7,3-7.6c-1.9,2.2-3.2,3.6-4.7,5.4c-0.3-1-0.5-1.5-0.6-2c0.4-1.6,1.6-2.8,2.6-4.1   c-0.5-0.4-0.9-0.7-1.3-1c-1.8,1.3-2.9,2.9-3,5.1c-2.9,1.2-4.5-0.8-6.3-2.9c0-0.7,0.1-1.4,0.9-1.6l0,0c3.6,5,4,1.9,6.3-1.9   c-1-1-1.5-0.5-2,0.1c-0.2-0.5-0.5-1.1-0.7-1.6c2.2-1-1.3-3.7-2.5-2.4c-0.7,1.3,0.5,3.1-1.1,4.1   C363.1,259.8,361.5,259.5,361.5,257.7z M423.3,42.1c1.8,0.1,2-1.1,2.2-2.6C423.7,39.7,423.3,40.7,423.3,42.1   c-0.5,0.4-1,0.8-1.7,1.4C423.4,43.9,423.2,42.9,423.3,42.1z M412.6,8.1c1.8,0,2.8-1.4,4.1-2.4C413.4,5.4,413.4,5.4,412.6,8.1   c-0.2,0.2-0.9,0-0.4,0.6C412.3,8.5,412.5,8.3,412.6,8.1z M459.6,9.4c-0.6-0.8-1.2-1.5-1.5-2c-2.5-0.8-4.5,0.3-7,1.1   c3.6,1.5,6.5-1.2,7.9,3.9c3-0.8,3.2-1.1,2-4.4C460.5,8.5,460.2,8.9,459.6,9.4z M414.2,14.7c-0.7,1.6-1.1,2.6-1.6,3.8   c1.7,0,2.8,1.4,4.6,0.5C416.3,17.7,415.5,16.5,414.2,14.7z M448.8,20.2c3.3,0.4,3.3,0.4,6.5-1.4c-0.6-0.3-1.4-0.8-1.6-0.7   C452.3,19.4,449.7,17.8,448.8,20.2z M437.1,33c2-1.7,3.8-3.2,5.9-5C439.4,28.1,437.7,29.6,437.1,33z M419.8,35.2   c2.7-1.2,4.8,4.8,5.2-1.1C423,34.3,421.4,33.3,419.8,35.2z M441.4,26c2.5,0.1,3.6-1.6,5.1-3.4C443.4,22,442.7,24.5,441.4,26z    M438.5,18.9c-2.6,0.5-3.7-1.6-6.2-0.6c1.5,1.1,2.8,2,4.1,3C436.9,20.8,437.3,20.4,438.5,18.9z M412.7,34.4c-2.8,0.1-4-3.4-5.5-2.2   c0.8,1.6,2.2,2.5,3.5,3.8C411.4,35.5,411.8,35.2,412.7,34.4z M422.9,18c-0.7,0.8-1.4,1.5-2.2,2.3c0.8,0.5,1.3,0.9,2,1.3   c0.6-0.8,1.1-1.4,1.7-2.1C423.8,19,423.4,18.6,422.9,18z M402.8,35.7c-0.5-0.5-1-1-1.7-1.7c-0.7,1.3-1.1,2.3-1.7,3.3   C401.1,37.9,401.9,37.2,402.8,35.7z M444.6,21.2c-1.3-1.3-1.3-3.5-3.5-2.8c0.7,1.2,1.2,2.2,1.8,3.1C443.6,21.4,444,21.3,444.6,21.2   z M401.5,50.5c-1.7,0.7-1.9,2.6-0.1,3.3c0.4-0.9,0.8-1.6,1.2-2.3C402.1,51,401.7,50.7,401.5,50.5z M409.9,14.5   c-0.1-1.3-0.2-2-0.2-2.7c-1.6,0.2-1.6,0.6-2.6,2C408,14,408.6,14.2,409.9,14.5z M403.2,19.6c-2,0.8-2,0.8-2.4,2.6   C402.4,21.9,402.1,21.5,403.2,19.6z M406.9,18.4c-1.7-0.1-1.7-0.1-1.9,1.8c0.3,0,0.5,0,1,0C406.3,19.7,406.6,19.1,406.9,18.4z    M427.7,35.2c1.2-1.8,1.2-1.8,0.9-2.9C427.6,32.8,426.7,33.3,427.7,35.2z M407.5,37.9c0,1.5,0,2.3,0,3   C409.9,40.8,409,39.3,407.5,37.9z M415.9,43.3c-1.6,0-2.3,0-3,0C413,45.7,414.4,44.8,415.9,43.3z M446.4,5.7   c-0.9-0.6-2.8-0.1-1.9,1C445.4,7.1,445.9,6.6,446.4,5.7z" />
	<path display="inline" fill="#060607" d="M735.7,110.5C667.1,110.6,666,5.4,735.8,4.9C805.7,4.9,804.7,111.2,735.7,110.5z    M785.2,68.1c1.8-5.8,2.2-11.7,0.5-18.1c-2.7,4.6-5.5,8.3-9.6,11c-0.4,0-0.7,0-1.1,0c2.7-4.6,7.7-8.6,7.4-14.3   c0.9-0.5,1.7-1,2.5-1.4C767.5-18.1,674,3.9,686.2,68C696.4,120.9,775.3,121.3,785.2,68.1z" />
	<path display="inline" fill="#030202" d="M513.8,164.9c-2-2.3-5.3,0.2-7.2-2c37.4,1.8,88.8-26.9,115.1-52.5   c7.7,0.6,13.9-4.4,17.2-10.8c-1.4-0.6-3,0.8-4.3-1c3.9-3,9.9-8.6,15.2-5.4c-2.7,2.2-8.5,0.2-7.9,5.2c-0.5,9-10.7,17.1-19.5,15.5   C594.9,140.7,553.1,163.2,513.8,164.9z" />
	<path display="inline" fill="#050404" d="M476,107.5c0.8-0.1,1.6,0,1.9-1c0.5,0.5,1.1,1,1.6,1.4c15.4-12.2,35.9-0.3,50.9-11.2   c13.2-7.1,28.9-2.7,43.3-5.7c10.9-2.1,21.5-6.9,32-10.7c0.4,0.4,0.8,0.7,1.2,1.1c-12.4,9.2-30.2,11.2-45.4,14   c-14.4,0-28.9,1-41.1,9.6c0.1,0.6,0.2,1,0.2,1.3c-1.9,0.5-3.3,0-4.3-1.5c-12.2-0.3-24.2,0.1-35.7,5.1   C479.1,109.1,477.5,108.3,476,107.5z" />
	<path display="inline" fill="#060608" d="M361.5,257.7c0,1.8,1.5,2.1,2.7,2.8c0,0.6,0,1.2,0.1,1.8c-0.8,0.2-0.9,0.9-0.9,1.6   c-1.7-0.5-0.5-2.1-1.3-3c-3.8,6.4-9.8,9.7-16.4,15c-13.4,26.2-13.2,21.6-7.2,51.1c1.2,1.7,0.4,3.4-0.3,4.8c1,1.6,1.8,2.9,2.7,4.3   c-4.7,10.1-12.1,19.3-15.1,29.9c-0.7,0.9-0.5,2.5-2,2.8c0.1-1.5,0.3-3.1,0.4-4.6c0.7-0.3,0.7-0.8,0.4-1.4   c2.7-9.3,8.9-17.1,12.2-26.2c-4.1-6.4,2.8-8.7-2.5-18.9C325.6,293.2,343.8,272.1,361.5,257.7z" />
	<path display="inline" fill="#161110" d="M622.9,60c0.9-1.2,1.9-2.6,2.7-3.9c9.9-3.4,16.6-11.3,25.3-16.2c2,0.7,4.3,0.9,5.4,3.4   c-1.6,5.5-9.2,9.7-10.1,14.1c-0.6,0.5-1.2,1.1-1.8,1.6c-0.6-0.7-1.3-1.3-2-1.9c3-3.6,6.7-5.4,8.4-10.2c-5.5,5-9.5,9.2-15.3,13.1   c-0.4,0-0.7-0.1-1.1-0.1c0.1-0.6,0.1-1.1,0.2-1.7c1.8-2,19.9-15,14.9-16c-7.4,7.8-19,11.8-25.6,19.6c-0.4,0-0.8-0.1-1.3-0.1   C622.8,61.1,622.8,60.5,622.9,60z M653.9,43.2c0-0.1,0-0.3,0-0.4c-0.3,0-0.4,0.1-0.3,0.5C653.8,43.3,653.8,43.3,653.9,43.2z    M652.3,46.1l-0.3-0.2l0,0.3L652.3,46.1z" />
	<path display="inline" fill="#161413" d="M473.5,13.5c0.5-1.6,1.8-0.4,2.8,0c0.3,0.8,0.5,1.6,0.9,2.7c-0.4,0.2-1,0.7-1.5,1   c0.2,0.6,0.4,0.9,0.6,1.5c-3.1,2.4-7.1,2.7-10.8,4.2c-2,7,8.2,14.5,0.9,20.1c2.2,6.5,11.5,14.6,3.3,19.7c0.2,1.2,1.7,3.9-0.4,4.4   c-0.4-0.4-0.8-0.7-1.2-1.1c-0.3-1.1-0.7-2.2-1-3.4c-2.1,0.3-3.9,0.1-4.8-2.4c0.2-0.5,0.5-1.1,0.8-1.9c0.8,0.6,1.4,1,1.8,1.2   c16.9,1.4-6.9-14.4,2.1-21.8c-1.2-4.7-3.5-9.6-3.9-14.9c-0.7-0.3-1.3-0.6-2-0.9C463.3,20.6,477.4,17.7,473.5,13.5z" />
	<path display="inline" fill="#0E0B0A" d="M649.8,93.1c-1.3-1.1-2.9-1-4.6-1c4.1-1.4,10.1-0.7,12.4-5.1c-6.4,1.5-13.5-1.4-19.2,2.1   c-1.8,1.4-2.5,2.2-5.1,2c1-1.4,1.7-2.3,2.1-2.8c0-1.1,0-1.8,0-2.3c1.6-1.1,3.1-2.1,4.2-2.9c2.7-8,9.8-12.9,15.6-18.7   c0.4,0.7,0.7,1.3,1.1,2l-0.1-0.2l0.2,0.2c-0.7,0-1,0.4-1,1c-5.2,5.5-11.6,9.6-13.6,17.4c6.1,1.3,13.6-1.9,18.8,1.8   c-0.6,1.3-1.2,2.6-1.9,4.1C656,92.1,653,93.1,649.8,93.1z" />
	<path display="inline" fill="#060504" d="M644.5,59.1c2.2-1.9,3.7-3.8,6.6-4.7c0.7,1,1.4,1.9,1.9,2.7c0.8,0.3,1.6,0.6,2.4,0.8   c-13.3,10.7-14,1.8-27.1,20.1c-0.2-0.5-0.5-1.1-0.8-1.7c0.9-1.7,1.8-3.4,2.7-4.9c-0.6-1.2-1.2-2.2-1.7-3.4c0.6-1,1.1-1.8,1.6-2.7   c1.6,0.1,0.7,2.2,2.2,2.6c2.1-2,4.2-3.8,6.6-5.6c-0.7-2.6,1.9-3.3,2.8-5.1c0.2,0,0.5,0,0.7-0.1c0.4,0.3,0.7,0.6,1.1,0.9   c-0.8,0.8-2.7,1.3-1.9,2.8C642.6,60.3,643.6,59.7,644.5,59.1z M650.5,57.8c-1.8,0.6-3.5,1.1-4.5,2.9   C647.6,59.9,649.6,59.9,650.5,57.8z" />
	<path display="inline" fill="#0A0909" d="M224.5,574.7c2.2-1.4-0.3-4.8,2-6.3c2.3,14-5.5,16.7-8.4,29.2c-6.3,3.4-12.9,3-19.5,0.3   c5.6-1.5,11.5-0.9,17.5-2.3c1.9-6.8,4.5-13.2,8.4-19.2C224.5,576.1,224.5,575.4,224.5,574.7z" />
	<path display="inline" fill="#1C1616" d="M468.1,66.2c0.4,0.4,0.8,0.7,1.2,1.1c-0.4,0.4-0.8,0.9-1.1,1.3c1.7,3.8,1.6,4.6-0.9,9   c5.3,12.1-9.1,12.7-17.5,12c-0.2,0.9-0.3,1.4-0.5,1.9c1.3,1.4,3.4,0,4.5,1.5c-1.6,0-3.2,0-4.6,0c-0.6-1-1.1-1.8-1.6-2.7   c3-7,21.1,0.6,18.5-10c-2.6-3.7,3.2-7.4-0.3-10.2c-2.9,1.4-2.9,1.4-4.8,1.1C461.4,67.9,466.4,68.9,468.1,66.2z" />
	<path display="inline" fill="#0D0C0D" d="M196.8,597c-1.2-0.1-2.4-0.2-3.9-0.4c-6.5-6.7-11.1-16.1-11.4-25.6c0.3,0,0.6,0,1,0   c3.5,9.3,7.9,18.1,15.2,25C197.5,596.4,197.1,596.7,196.8,597z" />
	<path display="inline" fill="#1C1615" d="M653.4,59.9c0.7-0.7,1.3-1.4,2-2.1c1.1,2.6,2.9,5.8,0.9,8.5c-2.2-5.8-7.3,1.8-10.9,2.6   c-6.3,1.5-5.9,10.7-12.3,11.5c-0.2-2.9,3.9-4.3,4.6-7.2c3.2-6.6,11.3-7.4,16.6-12.1C653.9,60.5,653.7,60.2,653.4,59.9z" />
	<path display="inline" fill="#211E1D" d="M622.8,61.7c0.4,0,0.8,0.1,1.3,0.1c-4.4,7.7-10.7,13.8-17.2,19.6   c-0.4-0.4-0.8-0.7-1.2-1.1c4.9-5.7,10.7-11.6,15.7-17.6c0,0,0,0,0,0c0.3-0.3,0.6-0.7,0.9-1c0,0,0,0,0,0   C622.3,61.8,622.6,61.7,622.8,61.7z" />
	<path display="inline" fill="#1B1A1B" d="M182.5,571.1c-0.6,0-1.1,0.1-1.6-0.2c-0.3-3.5-0.7-7-1-10.5c0.8-0.3,0.8-0.6,0-0.9   c0-2.2-0.5-4.5,0.7-6.5C181.1,559,181.9,564.9,182.5,571.1z" />
	<path display="inline" fill="#292020" d="M470.7,6.3c-2.1-0.3-3,1.4-4.8,2.5c-0.5-0.6-1-1.1-1.4-1.6c0.6-2,0.6-2,2.2-3.6   c1.3-0.3,1.3,1,1.9,1.5C469.2,5.6,470,5.9,470.7,6.3z" />
	<path display="inline" fill="#0D0C0D" d="M210.3,596.2c-3.5,2.1-8.1-0.5-11.6,1.6c-0.6-0.3-1.2-0.5-1.8-0.8   c0.3-0.3,0.6-0.6,0.9-0.9C201.9,596.2,206.1,596.2,210.3,596.2z" />
	<path display="inline" fill="#8D9897" d="M648.1,55.7c-0.6,0.6-1.2,1.2-1.8,1.8c-1.3-1.3,1-1.9,1.8-2.9   C648.1,55,648.1,55.4,648.1,55.7z" />
	<path display="inline" fill="#95A1A1" d="M451.2,2.8c-0.7,0.9-1.4,1.2-2.6,0.1c0.6-0.4,1.1-0.8,1.6-1.2   C450.5,2.1,450.8,2.5,451.2,2.8z" />
	<path display="inline" fill="#CECEDC" d="M180.9,570.8c0.2,0.1,0.4,0.2,0.7,0.3c0,1.2,0,2.4,0.1,3.6   C180.1,573.6,180.7,572.2,180.9,570.8z" />
	<path display="inline" fill="#2A2929" d="M462.8,7.2c-1.2-0.5-0.9-1.6-1-2.5C462.9,5.2,463,6.1,462.8,7.2z" />
	<path display="inline" fill="#FBDFD3" d="M622.8,61.7c-0.2,0-0.5,0.1-0.7,0.1c-0.1-0.7-0.1-1.5,0.7-1.8   C622.8,60.5,622.8,61.1,622.8,61.7z" />
	<path display="inline" fill="#4B65C5" d="M324.6,362.7c0.3,0.6,0.3,1.1-0.4,1.4C323.9,363.5,323.9,363,324.6,362.7z" />
	<path display="inline" fill="#FBDFD3" d="M621.3,62.7c-0.3,0.4-0.6,0.7-0.9,1.1C620.7,63.4,621,63.1,621.3,62.7z" />
	<path display="inline" fill="#FBDFD3" d="M622.1,61.8c-0.3,0.3-0.6,0.7-0.9,1C621.6,62.4,621.8,62.1,622.1,61.8z" />
	<path display="inline" fill="#292020" d="M463.5,7.9c-0.1,0.2-0.2,0.4-0.3,0.6c-0.1-0.3-0.2-0.5-0.3-0.8   C463.2,7.7,463.4,7.7,463.5,7.9z" />
	<path display="inline" fill="#292020" d="M464.5,7.1c0,0.6-0.4,0.9-1,0.8C463.8,7.7,464.2,7.4,464.5,7.1z" />
	<path display="inline" fill="#010001" d="M179.9,559.4c0.8,0.3,0.7,0.6,0,0.9C179.9,560,179.9,559.7,179.9,559.4z" />
	<path display="inline" fill="#202121" d="M397.4,43.8c-0.3,0.3-0.7,0.6-1,0.9c-0.1-0.3-0.1-0.6,0.1-0.9   C396.8,43.9,397.1,43.9,397.4,43.8C397.4,43.9,397.4,43.8,397.4,43.8z" />
	<path display="inline" fill="#1C1615" d="M655.3,67.4c0-0.7,0.3-1,1-1C656,66.7,655.7,67.1,655.3,67.4z" />
	<path display="inline" fill="#5876E8" d="M411.6,282.8c0.9-1.1,1.8-2.3,2.7-3.4c0.9,0.3,1.7,0.6,2.6,0.9c-0.5,1.4-1,2.7-1.5,4.3   c2.6-0.9,2.6-0.9,3.7-3.4c0.7,0.3,1.4,0.6,2.4,0.9c-2.2,1.9-1.4,3.8-1.7,6.1c-4.7,4.8-19.5,24.9-15.7,30.3   c5.3-3.2,6.1-9.9,10.8-13.5c3.3-3.3,9.5-4.6,10.9-9.3c-0.4-0.4-0.9-0.8-1.5-1.3c-1.3,0.8-2.5,1.5-3.6,2.2c0.4-3,2.5-4.9,4.6-6.7   c3.1,0,6.3,0.7,9.1-1.4c0.8,0.4,1.6,0.9,2.6,1.4c0.9-0.8,1.9-1.6,2.9-2.4c2.8,0.6,9.3-2,9.1,2.6c-1,0-2.1,0-3.2,0   c-0.7,2.2,1.8,3.2,1.5,5c-0.2,1.7-0.6,3.4-0.9,5.7c2.5-1.8,1.7-4.5,3.6-6.1c17.2,24.8,30.6,53,43.1,80.7   c-8,5.6-15.8,10.7-24.1,15.6c-10.9-6.3-20.6-14.9-33-19c-0.6-1.3-1.8-2.3-1.5-4c10.4,0.5,20.5,6.7,31,5.3c-8-5.1-14.9-8.8-24-11.5   c12.8-0.9,25.4,1.4,38.3,2c-15.9-6-36.8-3-53.7-7.7c0.6-1.3,1.2-2.6,1.7-3.8c-2.4-2.9-4.7,2.8-6.8,3.8c-10.4,9-23.4,16.6-30.6,28.3   c12.7-7.9,23.2-20.3,35.8-28.4c0.3,0.6,0.6,1.2,0.8,1.9c-2.1,1.8-4.9,2.8-2.8,6.3c-8.3,20.1-26.3,36.3-33.2,57   c7.7-10.6,12.5-23.4,21.7-32.8l-0.1-0.1c0,0.6-0.1,1.2-0.1,1.8c0,0,0,0,0,0c-5.3,11.3-10,22.7-12.8,35.1c-22.3,2.3-45,2.2-66-7.2   c1.2-3.4,2.5-6.8,3.7-10.2c2.4,2.1,4.5,4.8,7.2,6.5c0.8-0.1,1.2,0.2,2.1,0.3c1.6,2.3,2.1,6.6,5.8,6.3c0.7-8.5-1.6-16.6-3.5-24.8   c-0.2-0.8-0.3-1.8,0.8-2.3c4.3,7.4,10.7,13,16.9,18.8c0.4,0.4,0.8,0.9,1.8,0.2c-17.8-17.7-25.7-24.2-13.1-48.6   c4.7,9.8,2.7,25.1,12,32c-0.5-15-7.4-29.5-8.6-44.6l0,0c1.7-2.7,1.6-7,3.5-10.3c7.6-1.6,15.7,0.6,23-1c-7.2-2.1-14.3-3.1-21.2-5.8   c0.3-2.4,0.5-4.8,0.8-7.2c0.3-0.3,0.6-0.6,0.9-0.9c6.4,0.2,14.1,3.9,19.7,0.8c-5.3-3.5-12.6-3.9-16.9-7.9c0.3-0.6,0.7-1.2,1-1.7   c3.7,1.6,7.2,6,11.5,3.8c-1.8-5.5-7.2-7.3-10.4-11.3c1.9-16.3,8.6-16.4,12.3-28.2c-2,1.4-2.5,2.6-3.8,4.3c-1.4-2.6,2.2-6,2.8-8.8   c1.3-2.2,3.8,0.2,5.5,0.7c1.1,0.9,2.9,0.7,3.6,2.2c2.2-0.1,3.4,0.2,5.4,1.4c0,0,0,0,0,0c-3.5,2.7-5.9,6.5-6.3,11   c-2.2,3.1-6.4,6.3-3.1,10.4c0.4-1.9,0.8-3.5,1.2-5.2c0,0,0.2,0.1,0.2,0.1c0.3-0.3,0.5-0.6,0.8-0.8c0.4,0.7,0.8,1.4,1.3,2.3   c3-6.9,9.1-10.1,16.5-10.6c0-0.5-0.1-0.9-0.1-1.3c-2.2-1.4-4.6,0.3-6.8-0.8c0.3-1.5,0.5-2.7,0.7-4c0.3,0,0.6,0.1,0.9,0.1   c1.6,1.6,4.2,0.3,6.3,0.8c1,1.3,2.4,1.3,3.7,1.2c0.2-0.4,0.3-0.5,0.4-0.7C412,283.8,411.8,283.3,411.6,282.8z M420.7,316   c1.6-0.5,3-1.3,4.5-2.2c-0.2-0.6-0.4-1-0.5-1.4c-2.2,0.2-2.9,2-4.1,3.4c-0.3,0.2-0.9,0.2-0.3,0.7   C420.4,316.4,420.6,316.2,420.7,316z M417,339.1c3.6-5.3,9.4-7.3,15-8.5c-8.6-4.7-17.4,7.4-19,14.5   C414.7,343.7,415.6,341,417,339.1z M463.6,356.2c2.3,1.6,5.3,0.4,7.7,1.8c0.2,0.1,0.5-0.2,1.4-0.5c-13.4-4.4-28.1-2.5-40.3-10.4   c0.1-0.4,0.2-0.8,0.4-1.4c5.9,2.3,11.5,5.4,17.9,5c0.7-6.1-13.4-10.3-18.4-10.6c0-1.9,0-3.8,0-5.7c-2.2,4.9-3.2,10.2-3.2,15.5   c0.7-0.1,1.3-0.3,2-0.4C440.7,355.7,452.4,356.3,463.6,356.2z M440.4,316.1c3.6-2,8.2-4.7,8.4-9.3c-0.5-0.2-1.1-0.5-1.4-0.6   c-4.4,4.7-8,9-13,12.8C436.2,319.8,438.5,316.8,440.4,316.1z M432.2,301.5c-2.1,7.6-3.3,17.8-0.4,25.2c0.5-2.7,1.1-5-0.3-7.3   c1.1-4.5-0.6-10.7,2.5-14.1c3.7,2.9,16.1-10,9-12.6c-0.5-1-1.2-1.2-2.1-0.6c0.4,0.8,0.8,1.7,1.3,2.5c-2.3,2.7-4.8,5.3-7.3,7.9   c-2-1.7,0.2-4.4-1.7-6.5c-0.4,0.6-0.7,0.9-0.9,1.2C432.3,298.6,432.2,300.1,432.2,301.5z M429.2,338.6c-3.5,0.2-6.1,4.5-9.7,6.7   C423.9,344.2,426.9,342.1,429.2,338.6z" />
	<path display="inline" fill="#FBDFD3" d="M633.2,80.4c5.7,0,9.7-16.7,17.7-12.2c-3.9,5.2-9.6,8.2-11.3,14.9   c-1.1,0.8-2.6,1.8-4.2,2.9c0,0.6,0,1.3,0,2.3c-0.4,0.5-1.1,1.4-2.1,2.8c2.6,0.2,3.4-0.6,5.1-2c5.7-3.5,12.8-0.6,19.2-2.1   c-2.9,5.1-10.6,3.5-15.2,5.9c-2.1,2.7-6,2.8-7.8,5.5c1.3,1.8,3,0.4,4.3,1c-2.5,8.3-17,1.9-24,9.7c-1.3,3.4-4.4,5.2-7.8,5.9   c0.2,0.4,0.4,0.8,0.7,1.2c-1.1,1.7-1.1,1.7-2.1,0.6c-0.7-1.5-2.3-0.1-3.4,0.3c-1.6,0.5-0.1,1.7-0.6,2.6c-0.7,0.3-1.5,0.7-2.2,1   c-2.8-1.9-5.5-0.5-3.8,2.6c-11.6,9.4-72.2,38.5-84.5,33.4c0.2-0.8,0.3-1.6,0.5-2.3c-0.6-0.5-0.9-0.8-1.5-1.3   c23.2-15.7-10.2-12.4-14.2,0.7c-7.2-0.5-14.3,1-21.7-1.4c4.5-2.5,9.9-3,13.3-7.5c-17.5-12.8-36.3,14.9-54.3-1.2   c4.6-3.8,11.2-4.1,12.8-11.1c-1.7-0.7-3.5-1.3-5.3-2c-55.2,12.8-57.1-5-16.8,45.6c-3.1,2.9-6.9,4.7-10.9,6.2   c-0.3-0.1-0.5,0-0.7,0.1c-5.2-1.7-11.3-1.1-16.1-4.5c-0.1-10.5-8.2-18.9-10.9-28.6c-0.4-10.3,4.9-19.4,9.5-28.1   c0.9-8.9,11.1-12.2,18.5-14.2c0.7,0.5,1.4,1.1,2.2,1.7c21-12,41.6-4.9,56.8,11.7c18.1,0.3,35.6,7.4,51.9-2.8   c28.9-2.6,61.2-4.5,86.9-18.4l0,0c7.4-3.7,12.1-10.1,15.8-17.2C629.2,81.7,630.9,80.2,633.2,80.4z M548.8,138.1   c2.1-0.4,3.9-1.3,4.9-3.4c-3.3,0-3.3,0-6,2.2c-5.4,3.7-12.2,3.6-18.3,5C531.6,148.4,544.5,139.7,548.8,138.1z M512,136.2   c2.5,7.6,11.7-1.9,16.6-2c1-0.2,3.2-2,1.6-3.1C524.6,134.5,517.7,133.7,512,136.2z M537.2,126.2c-3.5,1.3-3.6,1.4-4.3,4.4   C535,129.9,536,128.4,537.2,126.2z M562.2,132.8c-2.8-0.6-4.4,0.1-5.8,1.9C558.9,135.7,560.1,134,562.2,132.8z M575.4,127.9   c1.6,0.6,5.6-1.8,4-3.2C577.8,125.3,576.1,125.8,575.4,127.9z M466.7,125.6c-1.6,0.1-3.2,0.1-4,2   C464.9,128.7,465.8,127,466.7,125.6z M569.6,129.8c-3.3-0.3-4.1,0.3-3.5,2.3C567.7,132,568.6,131.1,569.6,129.8z M409.9,110.1   c-1.2-0.4-4.4,1.6-2.5,2.7C408.1,112,409.7,112.1,409.9,110.1z" />
	<path display="inline" fill="#CCD2E9" d="M416.2,278.4c-2.7-1.2-5.4-2.5-8-3.7c0.3-12.2-7.1-23.1-12.1-33.8   c-4.5-19.4-2-39.9,2.3-59.4c17.2,2.7,13.6,4,28.9-4.2c-0.1,1,0.1,1.5,0.6,2.2c1.5-0.4,1.6-2.2,2.4-3.4c5.1,4,11.6,11.9,18.5,7.6   c1.8,0.6,3.3,1,4.9,1.5c0.8-1.5,2.4-1.1,4-1.7c-6.6-4.8-10.4-11.8-13.8-19c8.1,1.9,16.8,0.3,25.6,0.8c0.4,10.7-2.7,20.5-6.6,30.2   c-2.1,15.4-5.8,29.6-12.5,43.8c-4.9,14.3-5,30.9-13.6,44.3C429.3,283.9,423.2,279.9,416.2,278.4z M426,221.1   c-0.8-0.7-1.7-0.9-2.7-0.9l0.1,0.1c-2.5-3.6,0-12.9-6.1-12.3c-0.9,0.9-2,2.1-2.9,3c-0.1,5.1-0.5,15.1,6.5,14.4   c2.3-0.5,0.7-3.4,2.4-4.3c0.8,2,2.1,2.9,4.6,2.5C427.2,222.6,426.6,221.8,426,221.1z M428.8,209.4c1.3,1.3,3,5.5,5.2,3.9   c-0.9-1.5-1.8-3-2.7-4.5c0.1-0.7-0.2-1-0.9-1l0,0c0.4-4.6-1.8-12.9-7.8-11.6C422.3,200.8,423.3,208.6,428.8,209.4   C428.8,209.4,428.8,209.4,428.8,209.4z M433.3,260.7c0.9-3.9,2.7-7.5,3.2-12c-6.7,7.6-3.6,20.1-11.3,27.6c0.8,0.5,1.4,1,2,1.4   C432.6,274.3,433.2,266.5,433.3,260.7z M427,181.8c-2.3,3.1-3.9,5.4-3.7,8.7C426,188,428.8,185.5,427,181.8z M432.8,214.4   c1.9,4.1,2.6,4.6,5.6,4.3C437.4,216.6,435.6,215.7,432.8,214.4z M417.1,198c-1.6-1.8-4.5,1-3,2.8C415.2,199.8,416.1,199,417.1,198z    M450.3,230.2c-2.7,1.8-2.7,1.8-2.8,4.6C449,233.4,450.2,232.3,450.3,230.2z M436.9,247.6c1.6-2.5,1.6-2.5,1.6-4   C436.6,245,436.6,245,436.9,247.6z M423.2,192.2c-2.5-0.3-2.9,0.9-3.3,3.3C421.4,194.1,422.3,193.2,423.2,192.2z M440.3,240.3   c1.9,0.6,2.5,0.1,2.9-2.5C441.8,238.5,440.9,239,440.3,240.3z M460.1,184.4c-0.7-0.2-1.2-0.3-1.4,0.5   C459.4,185.1,459.7,185.6,460.1,184.4z" />
	<path display="inline" fill="#4B65C5" d="M383.9,276.6c-1.8-0.6-5.9,8.9-4.5,9.8c-5.6,8-8.1,18.5-20.1,16.4c2.3,4.3,7,1.7,10.7,1.2   c1.4-1.4,2.2-3.4,3.3-5.1c0,4-1.5,7.4-2.4,11.3c3.3,4,8.7,5.8,10.4,11.3c-4.3,2.2-7.8-2.2-11.5-3.8c-0.2-0.5-0.3-1-0.6-1.8   c-2.2,3.5-5.6,5.3-5,9.6c-7.5,1.4-16.3-1.8-23,2.1c-0.2,1.3,1.2,2.2,0.3,3.5c-0.2,0.2,0.3,0.9,0.5,1.5c5.5-3.2,11.6-2.2,17.3-3.8   c-0.7-0.4-1.2-0.7-1.8-1c1.7-1.2,3.8-1.6,5.8-0.9c0,3.9-1.1,7.6-1.7,11.3c-4,2-9.6-1-14-1.4c-0.2,4,9.9,3.6,13.1,4.5   c-6.7,19.7-12.6,41.7-26,58.1c-0.4,5.1-6.1,8.5-4.1,14c1.5-3.2,2.3-6.4,4.4-8.9c1.3,0.8,2.1,1.9,2.4,3.2c-1.2,3.4-2.5,6.8-3.7,10.2   c-8.7-1.9-16.8-5.4-23.9-10.9c5.4-13.4,10.7-27.5,17.8-40.6c-0.8-0.3-1.3-0.4-1.8-0.6c3-10.5,10.3-19.8,15.1-29.9   c-0.9-1.4-1.7-2.8-2.7-4.3c0.7-1.4,1.5-3.1,0.3-4.8c-6.1-29.6-6.2-24.9,7.2-51.1c6.6-5.3,12.6-8.5,16.4-15c0.7,0.9-0.4,2.5,1.3,3   c0.9,1,1.8,1.9,2.7,2.9c-2.9,2-5,1.5-6.7,6.3c2.8-1.9,5.7-2,8-4.3c1.9,1.2,4.1,2.2,4.4,4.7c0,0.1,0.7,0.4,1,0.3   c1.2,0.1,1.6-1.4,3.1-1.3c0.9,0,0.9-1.1-0.1-2.2c0.5-2,2.1-2.9,3.5-4.4c1,0.6,2,1.2,2.9,1.8c-1.4,1.6-2.4,3.7-4.2,4.9   c0.2,0.1,0.4,0.3,0.7,0.4h0C380.1,274.6,382.1,275.4,383.9,276.6z M357.3,316.1c4.3-0.8,8.6-1.3,13-2.3c-2.3-3.8-15.7,1.8-19.8,3   C353.4,316.7,355.4,317.5,357.3,316.1z M363.3,300.7c-1.9-1.8-1.9-1.8-4.2-1.1C360.4,301.1,361.4,300.7,363.3,300.7z" />
	<path display="inline" fill="#FBDFD3" d="M347.3,441.4c-1.2,1.2-1.1-1.2-2.1-0.9c-7.6,5.8-16.4,11.2-26.3,11.4   c-6.1,13.5-26,14.2-36.2,24.4c-15.6,14.6-33.5,26.3-48.7,41.1c-10.8-2.2,0.1-20.3,3.1-26.1c8.6-12.2,17.1-25.7,26.8-38   c6.8-11.8,15.4-23.3,28.1-29.1c10.7-1.7,24-16.2,31.9-2.8c-1.6,0.8-6,2.7-2,4.1c0.4-0.7,0.8-1.4,1.3-2.1c0.8-0.3,1.6-0.7,2.4-1   c4.1,3,8.3,6,12.4,9c-1.9,3.3,1.2,4.5,5.7,5.3C345.1,438.1,347.3,439.1,347.3,441.4z M301.4,434.1c-11.9,4.1-28.7,10.8-32.6,23.7   c9.5-5.4,17.3-11.5,26.9-16.3c2.5-1.7,6.6-2.5,7.5-5.8c2.8-2.2,16.3-4.1,12.7-8.7C310.6,428.7,306,431.2,301.4,434.1z" />
	<path display="inline" fill="#FBDFD3" d="M494.9,396.5c0.7-1.9,1.5-3.9,2.3-6.1c5.8,4.3,5.3,10.9,4,17.4   c-1.3,19.7,3.9,39.3,4.2,59.1c0.3,15.8,1.7,31.5,4.7,47.1c0.4,4.3,4.9,10.3-1.6,11.9c-0.1,3.2-0.3,6.3-0.4,9.4   c-0.2,0.1-0.4,0-0.6,0c-1.6-2.5-6.3-0.4-9-0.9c-1.4-10.1-2.2-20.4-5-30.3c-3,0.8-1.8,3.3-2.5,5.1c-6.1-12.8-6.1-27.8-17-38.3   c-7.4-6.8-7.4-30.6-4.9-39.2c3.5,3.9,10.5,3.6,12.5,9c1.8,1.6,2.1,5.4,5.1,4.8c-3-1-1.4-5.9-4.3-5.7c-0.2-0.6-0.4-1.1-0.6-1.7   c0.7-0.3,1.4-0.5,2.3-0.9c-6.4-9.5-12.2-19.5-19.1-29c2.5-3.1,4.9-6,7.4-9.1c5.3,5.1,11.9,9.8,18.8,5.6c-0.4,2.7,1.5,3.8,3.2,5.1   c3-2.3,3.5-5.2,2.8-8.6C496.1,400,494.5,398.7,494.9,396.5z M497.5,417c-0.9,0.7-1,1.6-0.5,2.7c1.2-0.6,2.8-2.8,1.7-4.3   C498.2,415.9,497.8,416.4,497.5,417z M492.3,471.6c-0.3,1-0.5,2.1-0.9,3.3c0.6,0,1,0,1.9-0.1c-0.4-3.2-0.4-5.5-1.5-8.6   C489.9,468.7,490,469.4,492.3,471.6z M491.3,461c0-3.5,0.1-7.1-2.4-10.3c-1.6,3.9,2.1,6.6,1.5,10.3c-0.7,1.3-0.4,2.3,0.6,3.4   C492.1,463.1,491.6,462,491.3,461z" />
	<path display="inline" fill="#EECABA" d="M424.2,176.3c-7.3-9.2-15.9-18-22.4-27.5c6.1,2.2,12.7,1.2,17-2.8   c-4.9,2.1-17.2-3.4-17.9,1.8c-5.8-3.1-5.8-11.5,1.4-11.6c4.8-0.5,9.9,0.9,14.6-0.7c8.3,0.2,16-3,24.1-4.6c1.8,0.7,3.5,1.4,5.3,2   c-1.4,5-5,7.4-9.4,8.9l-0.1-0.2c0.3-0.5,0.6-1,0.9-1.5c-2.1-0.1-2.1-0.1-4.3,1.7c0.7,0.4,1.4,0.3,1.8,0.9c-0.5,0.5-1.1,0.9-1.6,1.4   c18,16.1,36.8-11.5,54.3,1.2c-3.4,4.6-8.7,5.1-13.3,7.5c7.3,2.3,14.5,0.9,21.7,1.4c4-13.2,37.4-16.5,14.2-0.7   c0.5,0.5,0.9,0.8,1.5,1.3c-0.1,0.7-0.3,1.5-0.5,2.3c12.1,5.1,72.7-23.9,84.5-33.4c-0.2-0.6-0.4-1.1-0.6-1.6c1.3,0,2.5-0.2,2.7-1.9   c0.5,0.3,1,0.5,1.7,0.8c0.7-0.3,1.4-0.7,2.2-1c0.5-0.8-1-2,0.6-2.6c1.3,1.9,1.8,0.2,3.4-0.3c1,1.1,1,1.1,2.1-0.6   c3.5,1.3,15-6.8,7.2-7.1c0.4-1.5,2.1-0.7,2.9-1.6c4.8-5,12.8-1.7,18.7-4.6c-3.6,5.1-8.4,7.8-14.8,7.4   c-20.2,22.3-92.9,63.3-122.6,49.9c-27,6.8-57.2,2.5-81.2-10.8c-3.7,2.9,9,9.8,11.6,11.5c0.6,3.7-0.1,7.4-0.1,11.1   C427.8,173.7,426.3,175.3,424.2,176.3z M468,149.4c-3.3,1.2-5.8,4.7-9.5,4.2c-0.3-0.1-1.2,0.6-1.3,1c1.4,7.6,11.4-1,12.7-5.1   c1.8,0.1,2.5-1.1,3.5-2.9C470.8,146.7,469.7,147.7,468,149.4z M425.4,144.9c-2.5,0.2-3.6-0.7-4.7,0.8   C422.2,146.9,423.3,146.3,425.4,144.9z M484.1,143.5c-1.1-0.6-2.1-0.7-3.2,0.1C482.6,145.3,482.6,145.3,484.1,143.5z M430,145   c0-0.3-0.1-0.6-0.1-0.9c-0.6,0.1-1.4-0.5-1.9,1.1C428.8,145.1,429.4,145,430,145z M475.3,145.2c1,1.2,1.6,0.8,2.3-0.2   C476.9,145,476.2,145.1,475.3,145.2z" />
	<path display="inline" fill="#E4E4EB" d="M224.5,574.7c0,0.7,0,1.5,0,1.7c-3.9,5.3-5.4,11.2-8.1,17.1   c-21.7-0.8-26.5-12.5-31.3-31.8c-0.5-7.8,6-13,7.2-20.1l0,0c9.4-13-5.3-32.1,10.2-42.3c5.3,0.9,9.4-2.5,14.4-3.8   c-1.5,2-2.6,3.9-3.6,6.2c1.3,0.3,1.1,0.2,2.1-0.8c-0.8,4.3-5,6.2-3.1,11c0.3,1-0.2,2.3-0.3,3.6c4.1,1.5,8.1-1.7,12.5-2.4   c1.6,3,3,6.6,6.9,7.2c2.5,0.7,4.6,3.1,8.1,2.7c-0.1,4.3-3.9,5.5-6.3,8c-6.4-2.5-12.8-5.2-19.4-7.5c-13.3-0.1,6.4,8.5,9.9,9.3   c0.6,1.4,1.8,0.2,2.7,0.7c0,0.6,0,1.2,0,1.7c-0.9,0-1.8,0-2.6,0c-1-1.4-2.5-0.8-3.8-0.7c-3.3-0.5-6.5-3.5-9.8-1.3   c2.9,6.6,11.4,5.9,17.2,6.8c-0.5,0.9-1.1,1.7-1.7,2.7c-6.1-1.3-12.2-2.6-18.5-3.9c0.6,3.7,2.7,5.5,5.7,6.4c-0.3,0.3-0.7,0.7-1,1   c-1.5,0.2-3.3-0.2-4.1,1.7c3.2,5.2,10.8,3,15.9,3.5C223.8,559.2,222.1,567.1,224.5,574.7z M206.1,558.3c-2.9,5.5,6.5,6.9,10.2,7.3   C225.2,561.7,209.5,558.9,206.1,558.3z M207.6,554c1.5,2.4,12,5.7,12.2,1.3C218.5,552.7,210,549.8,207.6,554z" />
	<path display="inline" fill="#E4E4EB" d="M551.4,559.4c5.3,7.1,15,7.3,22,12.4c-0.3,2.4,0.1,4.6-1.1,6.6   c-20.1,5.4-44-1.7-61.6-11.5c-7.7,0.2-13,6-21.5,2.2c-2.2-2.7-2.2-2.7-6.4-3.8c0.3-6.3,1.1-12.7-1-19.2c1.9-1.8,2.9-3.9,3.4-6.2   c3.8,14.2,18.4,7.1,26.9,1.2c0-4.3,0-8.3,0-12.4c2.6-1.9,5.8-2.2,8.8-3.4c-0.2-0.8-0.3-1.7-0.5-2.7c0.7-0.4,1.4-0.8,2.1-1.2   c3.8,3.2,2.1,10.1,4.9,14.4c-2.2,3.7-7.5,4.4-8.8,9.1c3.4,0.5,6.7-0.9,14.1-6.1c0.6,0.8,1.3,1.5,2,2.3c-3.1,3.2-7.6,5.2-10.7,8.5   c2,4.3,10.6-2.7,13.6-4.3c0.4,0.5,0.7,0.9,0.8,1c-1.8,2.9-6.4,5.6-4.7,9.2c4.7-1.8,4.9-1.9,7.7-5.5c2.8,2.6,5.7,5.2,8.5,7.7   c-1.4,1.5-7.4,4.2-3.9,6.3C548.6,563.6,549.6,561.3,551.4,559.4z M538,560c2.7,1,7.2-2.6,6.2-5.5C541.7,552.4,538.2,557.3,538,560z   " />
	<path display="inline" fill="#EECABA" d="M486,406.4c-5.4,0.3-9.4-4.1-13.4-7.3c-2.5,3.1-4.9,6-7.4,9.1c6.9,9.5,12.7,19.4,19.1,29   c-0.9,0.4-1.6,0.6-2.3,0.9c0.2,0.6,0.4,1.1,0.6,1.7c-0.3,0.3-0.5,0.6-0.8,0.9c-0.7-1.7-5.1-12.3-7.4-9.5c0.9,1.6,1.8,3.2,2.7,4.8   c-3.2-0.5-5.5-2.7-7.8-4.3c-2.5,8.7-2.5,32.2,4.9,39.1c10.9,10.5,10.9,25.5,17,38.3c0.7-1.8-0.5-4.3,2.5-5.1   c2.8,9.9,3.6,20.2,5,30.3c-2.6,0.2-4.6-0.1-7.1-1.1c-8.3-60.7-36.8-48-27.9-114.2c0.2-0.1,0.4-0.2,0.7-0.2   c-0.2-0.3-0.4-0.5-0.6-0.8l0.1,0.1c-1.7-5.3-5.9-8.4-10.6-11.2c9.2-4.8,17.9-10.2,26.5-15.9C482.6,395.6,489.6,400.2,486,406.4z    M479.8,403.5c2.6,0,2.6,0,3.5-1.8C481.7,401.3,481.7,401.3,479.8,403.5z M469.1,426.2c0.5,1.8,0.7,3,2.4,2.9   C471.4,427.9,471.3,426.7,469.1,426.2z M468.3,424.6c-0.2-2.2-0.2-2.2-2-2.4C467,423.1,467.5,423.7,468.3,424.6z" />
	<path display="inline" fill="#4B65C5" d="M460.1,384.9c2.6,2.6,5,5.5,8.9,6.2c-1.1,0.7-2.3,1.3-3.4,2c-8-2.5-15.6-3.7-23.5-8.6   c2.6,6,7.3,9.6,7.6,16.3c0.7,0.2,1.1,0.2,1.6,0.3c-8.2,3.8-14.6,10.3-23.7,11.9c-5.3-5.9-7-13.7-11.4-20c0,0,0,0,0,0   c0-0.3,0-0.7,0-1c3.1-1.4,4.1-4.8,6.3-7.3c3.8,0.5,7.5,4.3,10.7,3.7c-2.8-2.3-6.3-3-8.8-5.7c0.6-1.1,2-1.6,1.2-2.9   c-2.7,1.5-4.8,3.6-6.6,6c-0.7-0.3-1.3-0.6-2-0.8c-0.9,0.8-1.7,1.7-2.6,2.5c0,0,0,0,0,0c-0.3,0.3-0.5,0.7-0.8,1c0,0,0,0,0,0   c-0.3,0-0.6-0.1-1-0.1l0.1,0.1c3.4-6.8,8.1-13.4,12.7-19.4c9.1,6,19.7,8.3,29.3,13.1C455.7,383.9,458.5,385.7,460.1,384.9z" />
	<path display="inline" fill="#EDCABA" d="M238.8,489.4c-0.1,1.1-0.7,1.7-1.7,2c-1.8-2.2-5,2.6-5.9,4.2c-0.9,0.6-2.4-0.3-3,1.1   c-1.2,0.9-2.4,1.8-3.6,2.7l0.1,0.1c0-0.3-0.1-0.6-0.1-0.9c30.8-42.2,33.5-68.1,87.4-86c1.4,0.9,2.7,1.8,4,2.7   c-36.4,7.4-53.1,37.4-71.6,66.2c-1,0-2.1-0.1-2.8,0.8C238.6,483.2,236.5,487.4,238.8,489.4z" />
	<path display="inline" fill="#CFCEDC" d="M483.2,552.9c0,2.1-0.1,4.2,0.2,6.2c0.3,2.1-1.8,3.9-0.6,6c4.2,1.1,4.2,1.1,6.4,3.8   c8.5,3.9,13.7-2,21.5-2.2c17.6,9.8,41.4,17,61.6,11.5c-3,3-7.5,4.1-11.2,6.4c-16.4-3.9-34.9-1-50.6-9.8c-0.3-0.6-0.5-1.2-0.8-1.8   c-11.7,0.5-24.5-0.3-34.2-7.4C479.4,562,481.2,557.7,483.2,552.9z" />
	<path display="inline" fill="#CECEDC" d="M192.4,541.5c-1.2,7.1-7.7,12.4-7.2,20.1c4.8,19.3,9.6,30.9,31.3,31.8   c-0.1,0.7-0.2,1.4-0.4,2.1c-6.2,1-12.1,0.5-18.4,0.5C183.2,582.5,173.3,555,192.4,541.5z" />
	<path display="inline" fill="#ECC9B9" d="M323.9,421.5c-0.9-1.2-1.7-2.3-2.6-3.5c12.5,3.8,24.4,8.6,37.4,11   c-3.4,4.3-6.5,9.9-11.5,12.4c0.1-2.3-2.2-3.2-3.5-4.7c1.8-0.3,6,1,5.7-2c-2.3-0.9-2.3-0.9-6.3,0.9c0.2,0.4,0.4,0.8,0.6,1.1   c-1.7,0-3.2-0.6-4.6-1.5c0.9-0.2,1.8-0.3,2.6-0.5c0.5-3-2.8-1.4-4.4-1.4c0.2-0.5,0.4-1.1,0.6-1.9   C333.3,428.2,328.9,424.4,323.9,421.5z" />
	<path display="inline" fill="#B6BCD4" d="M455.7,181.7c0.6,0.6,1.2,1.1,2,2c-1.6,0.6-3.3,0.2-4,1.7c-1.6-0.5-3.1-1-4.9-1.5   c-7,4.3-13.4-3.6-18.5-7.6c2.4-4.7,8.1-7,10.4-12.5c1.2,0.3,2.2,0.6,3.3,1c1.5,4.8,5.6,8.5,7.2,13.4c-4.4-1.9-4.5-8.1-8.5-10.3   c-2.5,2.9,5.8,13.8,8.5,10.3C452.7,179.2,453.7,180.9,455.7,181.7c-0.5,0.1-1,0.2-1.7,0.4C455.1,183,455.5,182.6,455.7,181.7z" />
	<path display="inline" fill="#F9DED2" d="M486,406.4c3.6-6.2-3.4-10.7-6.4-15.4c4.6-3.7,9.2-7.4,13.8-11.2c3,4.3,0.9,7.7,0.6,12.3   c-2.2,2,0.4,5.6-1.7,7.9c-0.4,2.3-5.9,4-3.5,5.6C488.1,406.8,486.9,406.3,486,406.4z" />
	<path display="inline" fill="#4B65C4" d="M425.3,289.9c-2.1,1.9-4.2,3.8-4.6,6.7c-2.8,3.9-12,9.6-12.1,13.6c1-0.7,2.1-1.5,3.1-2.2   c-1.7,4.1-4.1,7.8-7.7,10.5c-3.8-5.3,11-25.5,15.7-30.3C421.7,288.1,423.5,289.4,425.3,289.9z" />
	<path display="inline" fill="#5875E7" d="M451.2,401.1c-0.4-0.1-0.9-0.2-1.6-0.3c-0.3-6.6-5-10.2-7.6-16.3   c7.8,4.9,15.6,6.1,23.5,8.6C461.1,396.4,456.4,399.1,451.2,401.1z" />
	<path display="inline" fill="#EAC7B8" d="M228.2,496.8c0.6-1.4,2.1-0.5,3-1.1c0.5-0.8,1-1.6,1.4-2.4c-0.2,2.5-0.2,2.5,1.7,2.5   c-1.8,5.5-4.2,10.7-5.4,16.4c-0.5-1.8-1.3-3-2.9-4.1c-1.9,1.8-3.5,3.6-6.5,3.1c-2.2-4.4,1.9-8.1,4.1-11.6c0.3,0,0.6-0.1,0.9-0.1   l-0.1-0.1c0,1.1-0.7,2.3,0.4,3.3c3-0.6,4.5-2.7,4.5-6C229.1,496.8,228.6,496.8,228.2,496.8z" />
	<path display="inline" fill="#CBCBD9" d="M192.4,541.5c-0.6,0.3-1.3,0.6-1.9,0.8c1.9-6.2,4.6-13,0.2-18.7   c0.2-6.2,0.3-14.8,6.1-18.3C191.2,516.4,200.5,531,192.4,541.5L192.4,541.5z" />
	<path display="inline" fill="#F8F9F9" d="M507.6,535.3c0.2,0.1,0.4,0.1,0.6,0c0,0.6,0,1.2,0.1,1.8c-1.4,0.9-0.4,2.2-0.3,3.6   c-3.8,2.3-7.9,3.8-12.1,5.1c-2.8-1.6-4.5-3.9-5.2-7.1c0.5-0.5,0.9-1,1.4-1.6c4.2,1.2,8.2,2.1,12-0.8c1.2-0.4,2.8,0.5,3.5-0.9   L507.6,535.3z" />
	<path display="inline" fill="#ECC9BA" d="M492.3,400c2.1-2.3-0.4-5.9,1.7-7.9c0.3,1.4-0.8,3.8,0.9,4.4c-0.4,2.2,1.2,3.5,2.5,4.7   c0.7,3.4,0.2,6.2-2.8,8.6c-1.9-1.3-4.1-3.1-2.9-5.8c1.2-0.9,2-2,2-3.6C493.1,400.2,492.7,400.1,492.3,400z" />
	<path display="inline" fill="#110B11" d="M416.2,278.4c4.6,0.3,8.2,3.4,12.7,4.4c-1.5-0.1-2.8,0.2-3.9,1.2c-2-1.3-3.4,1.2-5,2.1   c-0.6-1.6,0.3-2.7,1.5-4.1c-2.5-0.9-4.6-1.9-7.1-2.7C415,279.2,415.8,279.4,416.2,278.4z" />
	<path display="inline" fill="#CACDD4" d="M486.9,542.4c-0.6-0.9-1.1-1.8-1.7-2.7c0.5-3.2-0.3-6.3,2.3-8.8c0.6,1.4,1.1,2.5,1.6,3.6   C486.9,536.9,487.1,539.7,486.9,542.4z" />
	<path display="inline" fill="#201F20" d="M551.4,559.4c-1.8,1.9-2.8,4.2-5.6,4.6c-3.5-2.1,2.5-4.8,3.9-6.3   C550.2,558.2,550.8,558.8,551.4,559.4z" />
	<path display="inline" fill="#CED0D7" d="M223.2,494.8c-0.6,1-1.1,1.8-1.7,2.8c-1.5-1.6-2.4-2.5-3.9-3.9c1.4-1.2,1.9-2.3,3.7-2.6   C221.8,492.2,222.4,493.3,223.2,494.8z" />
	<path display="inline" fill="#99A1A6" d="M223.7,551.4c-0.4,0-0.7-0.1-1.1-0.1c0.2-0.5,0.4-1,0.7-1.8c-1.2-1.2-2.7-2-4.3-2.5   c0.3-0.3,0.6-0.5,1-0.8c1.6-0.1,3.2-0.1,4.7-0.2C225.8,548,224.3,549.6,223.7,551.4z" />
	<path display="inline" fill="#1A0808" d="M505.7,536c-0.6,0.1-1.1,0.1-1.7,0.2c-2.1-2.6-7,0.7-9-1.9c3.8,0.7,10-1.8,12.7,0.9   c0,0-0.2,0.1-0.2,0.1C506.9,535.6,506.3,535.8,505.7,536z" />
	<path display="inline" fill="#D6BDB0" d="M434.1,162.6c1.3,0.2,2.3,0.4,3.4,0.5c-0.4,2.4-2.2,3.5-4,4.8   C433.7,166.4,433.9,164.8,434.1,162.6z" />
	<path display="inline" fill="#3D52A0" d="M416.2,392c0,0.3,0,0.7,0,1c-3.4-1.4,1.1-5.4,0.8-8c0.7,0.3,1.3,0.6,2,0.8   C417.9,387.8,417,389.9,416.2,392z" />
	<path display="inline" fill="#48383B" d="M421.6,180c-2,1.3-4.1,2.4-6.2,3.6c-0.1-0.6-0.2-1.3-0.1-1.9c1.8-0.9,3.6-1.8,5.4-2.6   C421,179.4,421.3,179.7,421.6,180z" />
	<path display="inline" fill="#3F5BB2" d="M424.3,284.7c0.1,0.4,0.1,0.8,0.2,1.4c1-0.5,2-0.9,3.4-1.6c-0.2,1.2-0.2,1.9-0.4,2.7   c-1.6,0.4-3,0.5-4.2-0.7C423.4,285.7,423.3,284.9,424.3,284.7z" />
	<path display="inline" fill="#A9BFC5" d="M220.1,546.2c-0.3,0.3-0.6,0.5-1,0.8c-2.4-0.1-4.9,0.4-7.2-0.8c0.3-0.3,0.7-0.7,1-1   C215.3,545.5,217.7,545.9,220.1,546.2z" />
	<path display="inline" fill="#8A7B71" d="M463.6,419c-1.2,1.6-0.9,3.6-1,5.5c-1.2-2.7,0-5.4-2.4-7.8c2-0.8,2.2,1.7,3.5,1.3   l-0.1-0.1C463.6,418.3,463.6,418.6,463.6,419z" />
	<path display="inline" fill="#B4B0B0" d="M217.5,512.3c-0.5,0.2-0.8,0.3-1.1,0.4c-1.1-0.3-1.6-2.6-1.1-4.9   C217,508.2,216.7,510.8,217.5,512.3z" />
	<path display="inline" fill="#4763C3" d="M424.3,284.7c-1,0.3-1,1.1-1,1.8c-1.1,0.2-2.5-0.1-2.6,1.7c-0.3,0-0.7,0-1,0   c0.1-0.7,0.1-1.4,0.2-2.1c1.6-0.9,3-3.4,5-2.1C424.7,284.2,424.5,284.4,424.3,284.7z" />
	<path display="inline" fill="#D0C7C0" d="M226.3,535.2c0-0.6,0-1.2,0-1.7c2.4,0.2,2.4,0.2,3.5,1.5   C228.8,536.1,227.5,535.2,226.3,535.2z" />
	<path display="inline" fill="#3956AA" d="M433.8,285.8c-1.3,0.9-2.3,1.9-4.1,1.3C430.7,285.1,432.1,285.3,433.8,285.8z" />
	<path display="inline" fill="#0F101F" d="M416.9,385c-0.3,1.6-0.6,3.1-1.6,4.4c-0.1-0.8,0-1.6-1-1.9   C415.2,386.7,416.1,385.8,416.9,385z" />
	<path display="inline" fill="#B6BCD4" d="M450.4,165.5c-1.9-0.1-4.1,0.7-5.6-0.7C446.7,164.7,448.7,164.5,450.4,165.5z" />
	<path display="inline" fill="#D0C7C0" d="M220,534.5c1.3,0,2.7-0.7,3.8,0.7C222.4,535.3,221.1,535.4,220,534.5z" />
	<path display="inline" fill="#D0C7C0" d="M225.7,533.4c-0.8,0.2-1.5,0.3-2-0.6C224.4,533,225,533.2,225.7,533.4z" />
	<path display="inline" fill="#FBDFD3" d="M507.6,539.1c-0.2-0.8-0.3-1.6,0.6-2C508,537.8,507.8,538.4,507.6,539.1z" />
	<path display="inline" fill="#0F101F" d="M412.6,388.4c0.3,0,0.6,0.1,1,0.1c0,0.8,0,1.5-1.1,1.7C412.5,389.6,412.5,389,412.6,388.4   z" />
	<path display="inline" fill="#0F101F" d="M409.9,395.6c0.3-0.6,0.5-1.3,0.8-1.9C410.8,394.5,410.9,395.3,409.9,395.6z" />
	<path display="inline" fill="#13100F" d="M224.6,499.5c-0.3,0.1-0.6,0.1-0.9,0.1c0.2-0.4,0.5-0.7,0.7-1.1   C224.5,498.9,224.6,499.2,224.6,499.5z" />
	<path display="inline" fill="#3D52A0" d="M416.1,393c0.3,0.3,0.6,0.7,0.9,1C416.7,393.7,416.4,393.3,416.1,393z" />
	<path display="inline" fill="#191E36" d="M410.9,393c0.2-0.4,0.4-0.7,0.6-1.1C411.4,392.2,411.1,392.6,410.9,393z" />
	<path display="inline" fill="#0F101F" d="M411.9,391.2c0.2-0.3,0.4-0.7,0.7-1C412.3,390.5,412.1,390.8,411.9,391.2z" />
	<path display="inline" fill="#0F101F" d="M413.5,388.5c0.3-0.3,0.5-0.7,0.8-1C414.1,387.8,413.8,388.2,413.5,388.5z" />
	<path display="inline" fill="#B7BDD5" d="M398.4,181.5c-4.3,19.4-6.8,39.9-2.3,59.4c4.9,10.7,12.4,21.6,12.1,33.8   c-5.1-1.3-10-3.2-14.4-6.1c0.5-0.1,1-0.3,1.7-0.5c-1.4-2.2-1.9-4.8-4.3-6.9c0,2.5,0,4.3,0,6.2c-7.4-4.4-16.1-6.4-21.3-13.5   c4.8-11.3,4.4-23.4,5.1-35.7c0.4-0.2,1.2-0.6,2-1c-4.1-13.4-3.1-26.9-6.5-40.1c2.2-10.1,8.7-18.9,7.2-29.5   c-0.4-14.3,7.4-27.2,15.2-38.5c1,1.6,2.2,3,3.9,3.8c-13.2,17.7-25.6,57.6,1.6,68C398.3,181.1,398.3,181.3,398.4,181.5z    M381.4,169.7c-0.7-2.7-0.1-5.9-3-7.6c-4.1,1.8,2.1,12.3,2.5,15.8c-0.6,1.9-3.8,4.4-1.5,6.1C383.6,180.5,382.2,174.4,381.4,169.7z    M395.1,261.3c-4.2-5.8-5.8-9.7-9.9-15.5c-1.7,5.1,3.9,8,5.5,12.4C391.2,259.7,392.6,260.7,395.1,261.3z M396.9,261.8   c2.9,5.3,3.3,5.8,5.9,6.5C401.5,265.4,400.1,262.9,396.9,261.8z M380.7,195.9c-3.5,2.4-3.6,2.9-1.5,5.4   C379.6,199.7,380,198.3,380.7,195.9z M378.9,191.1c1-1.3,1-1.3,1.2-2.8C378.6,189.3,378.6,189.3,378.9,191.1z" />
	<path display="inline" fill="#FBDFD3" d="M606.9,81.4c8.2-6.8,14.3-14.9,20.2-23.7c8.4-3.2,15.6-10,22.6-15.5   c3.7,2.3-3.1,4.2-4,6.2c-2.6,5-10.1,6.8-11.8,11.6l0,0c-1.2,1.8-3.7,3-3.6,5.3c-0.5,0.9-1,1.7-1.6,2.7c0.6,1.1,1.1,2.2,1.7,3.4   c-0.8,1.5-1.8,3.2-2.7,4.9c0.3,0.6,0.5,1.1,0.8,1.7l0.1-0.1c-1.9-0.5-2.6,1.6-3.6,2.7c-2.8,0.8-5.5-0.4-8.7,0c-1,1.2-2,2.4-3,3.6   c0,0,0,0,0,0c-0.3,0.3-0.6,0.5-1,0.8c0.3,0.9,0.6,1.8,0.9,2.7c-0.8,1.8-2.4,3.1-3.7,4.5c-0.8-0.1-1.5,0-1.5,1.1   c0.7,0.8,2.1-0.9,2.6,0.8c-14.3,14.2-36,12.9-54.3,18c-1.4,0-0.3-1.6-1.4-2c-4.9-0.6-11.2,1.5-15.5-1.3c0.1-0.6,0.2-1.2,0.2-1.7   c-6.5-4.9-13.2,3.7-15.9,8.3c-5.8,2-12,3.3-16.8,7.1c-16.5-10.6-29.6,1.2-40.3-10.7c0.8-4.2-14.8-9.3-18.8-10.3   c0.4-2.1,0.7-4.1,1-5.8c11.9,2.6,22,7.7,31.9,14.2c11.5-5,23.5-5.3,35.7-5.1c0.9,1.5,2.3,2,4.3,1.5c-0.1-0.3-0.1-0.7-0.2-1.3   c12.3-8.6,26.7-9.6,41.1-9.6C576.7,92.7,594.4,90.6,606.9,81.4z M478.1,111.5c-2.1-1.4-2.6-1.1-3.5,2.2   C476,113.4,477.2,113.1,478.1,111.5z M604.9,95.3c-2.1-0.5-2.1-0.5-3,2.1C603.3,97.2,604.3,96.5,604.9,95.3z M599.4,99   c-2.2-0.6-2.2-0.6-4,2.2C597.2,100.6,598.5,100.3,599.4,99z M521.8,106.7c0.8,1.7,0.8,1.7,3.1,1C524.3,106.2,523.2,106,521.8,106.7   z" />
	<path display="inline" fill="#FBDFD3" d="M468.1,66.2c-1.7,2.7-6.7,1.7-7.1,5c1.9,0.4,1.9,0.4,4.8-1.1c1.5,1.1,1.6,2.5,0.7,3.9   c-1.4,2.1-1.2,4.1-0.4,6.3c2.5,8.4-10.2,5.3-14.9,7.4c-6.7-2.9-31.6-11.2-26.3-20.3c-0.8-0.7-1.5-1.3-2.3-2c-0.7,0.5-1.4,1-2.2,1.5   c-3.2-1.4-6-3-7.9-6.1c0.1-0.5,0.2-1,0.4-1.6c2.7,1.3,8.7,3.6,9.4-0.6c-0.7-1.5-2.1-1.4-3.3-1.9c-2-0.8-0.7-4.5,1.5-3.2   c0.7-0.3,1.4-0.5,2-0.8c1.2,1.8,1.6,4.1,3.9,5.4c0.3-0.9,0.5-1.7,0.7-2.4c1.6-0.6,2.4,1.8,4.2,0.9c-1-1.5-2-2.9-2.9-4.2   c1.7-12.2,13.1-17.2,19.4-26.6c5.9,1.2,7.3-1.1,11.3-4.5c1.3,0.6,2.6,1.2,3.9,1.8c0.4,5.3,2.7,10.2,3.9,14.9   c-9,7.4,14.8,23.2-2.1,21.8c-0.4-0.2-0.9-0.7-1.8-1.2c-0.3,0.7-0.6,1.4-0.8,1.9c0.9,2.4,2.7,2.7,4.8,2.4   C467.4,64,467.8,65.1,468.1,66.2z M445.1,40.6c2.5,0.4,2.6,0.6,3.8-0.3c3.8-2.9,8.2-0.2,12.6-0.4c0.4-0.9,0.8-1.7,1.1-2.3   C457.6,35.2,447.9,35.2,445.1,40.6z M451,45.4c1,1.6,2,0.4,2.9,0.5c1.1,0.1,2.3,0.4,3.4,0.6c0.8-0.4,1.6-0.8,2.3-1.2   c0-1.4,0-2.6,0-4.1C456.4,42.2,453.3,42.6,451,45.4z M440.2,63.3c-1.9-1.7-1.9-1.7-3.2-1.1C437.6,63.4,438.4,64,440.2,63.3z    M433,58.5c0.8,2.4,0.8,2.4,2.8,2.5C435.1,59.4,434.8,59.6,433,58.5z" />
	<path display="inline" fill="#EDCABA" d="M439.5,82.3c3,3.2,7.8,3.6,11.7,5.4c-5.3,1.5-5.4,8.4-8.2,12.5c-10.3-0.9-21.3-1.3-32.2-1   c2.1-3,27.5,2.5,22.5-4.1c-0.5,0.7-0.1,1.6,0,2.4c-1.3-1.9-1.3-1.9,0.4-4.3c-1.1-0.4-2.2-0.8-3.2-1.1c0.8-1.6,0.8-1.6-0.9-1.7   c-0.6-0.9-1.2-1.8-1.7-2.7c0.5-0.1,1-0.1,2-0.3c-0.9-0.6-1.2-0.9-1.8-1.4c-0.1,0.8-0.1,1.2-0.2,1.7c-5.8-2-4.1-11.1-10.1-12   c-4.5,8.1-11.5,15.5-13.1,24.8c-2.1,1.1-4.5,1.1-7.1,1.6c1.1-3.3,4.3-6.5,1.6-9.5c3.5-7.1,3.7-14.4,3.8-22.1   c0.6-0.8,1.3-1.6,1.9-2.4c3.2-0.7,4.4-3.4,5.3-6.3c0.2,0,0.5,0,0.7,0c1.2,0.9,2.3,1.8,3.5,2.6c0.2,3.7,4.4,3.8,7.1,4.7   c-0.2,0.9-0.4,1.7-0.6,2.8c3,4,4.5,8.5,6.8,13c0.7-3.3-1.4-4.4-0.9-7c4.7,0.7,8.1,3.9,12.5,5.8C439.3,83.2,439.4,82.7,439.5,82.3z    M406.7,83.9c1.6-0.3,1.6-0.3,0.9-1.9C407.1,82.6,406.9,83.2,406.7,83.9z M410.1,77.5c0.2,0,0.4,0,0.5,0   C411.3,75,409.4,75.2,410.1,77.5z" />
	<path display="inline" fill="#FADED2" d="M430.4,92.1c1.1,0.4,2.1,0.7,3.2,1.1c-1.7,2.3-1.7,2.3-0.4,4.3l0,0   c-0.6,1.2-1.7,0.9-2.7,0.9c-8.9-0.1-17.5-0.5-25.9,2c1.6-9.3,8.6-16.6,13.1-24.8c6,0.9,4.4,10,10.1,12l0,0c0.6,0.9,1.2,1.8,1.7,2.7   C429.6,91.1,429.6,91.8,430.4,92.1z" />
	<path display="inline" fill="#0D0A0A" d="M504,121.5c0.8,0.3,1.7,0.6,2.7,1c14.2-10.4,33-7.7,49.1-9.6c1.4,0.8,3,0.8,4.7,0.9   c-12.5,4-25.8,2.1-38.4,4.7c-7.3,3.9-14.8,7.4-22.9,4.2C500.8,122.4,503.2,123.3,504,121.5z" />
	<path display="inline" fill="#C6CDE4" d="M396.7,112.9c-1.7-0.8-2.9-2.2-3.9-3.8l0,0c1-0.1,1-0.9,1-1.7c8.1-5.7,19.9-6.3,29.5-5.1   C413.7,105.2,404.6,106.7,396.7,112.9z" />
	<path display="inline" fill="#ECC8B8" d="M385.6,149.5c2.7,9.7,10.8,18.1,10.9,28.6C386.2,172.8,384.8,159.8,385.6,149.5z" />
	<path display="inline" fill="#0E0F1E" d="M408.1,283.8c-1.2,0-2.4-0.1-3.5-0.1c-2.2-1.5-5.4-0.7-8-1.9l0,0c-2-1.2-3.2-1.5-5.4-1.4   c-0.7-1.5-2.5-1.3-3.6-2.2c0.6-1.2,1.7-0.6,2.6-0.8c2.2,0.3,2.9-1.8,4.9-3.1c0.2,1.1,0.2,1.6,0.3,2.1c-0.5,0.6-1.1,1.2-1.9,2.1   c3.8,1.2,7.1,2.6,10.7,2.8c0.3-1.8,0.8-3.4-0.8-4.6c2.8-0.7,1.1,2.6,2.9,3.5c-0.1,2.2-0.1,2.2,1.7,2.9   C408.1,283.3,408.1,283.6,408.1,283.8z" />
	<path display="inline" fill="#CCB9AF" d="M416.3,60.8c-1-0.5-2.1-0.9-3.3-1.5c-0.1,0.6-0.3,1.1-0.4,1.6c-0.3,0-0.6,0-0.9,0   c-2.8-2-6.1-4.7-3.6-8.3c0,2,0.9,5.8,3.5,5.3c-0.3-0.8-0.6-1.5-0.9-2.4c0.5-0.5,1-1,1.6-1.5c0.6,0.6,1,1.1,1.3,1.5   c0.1,1.2,0.4,2.4,1.4,3.5c1.3-3.8-3.2-6.1-0.6-10.1c1.2,1.2,2.1,2.1,2.6,2.6C416.2,55.1,416.4,57.7,416.3,60.8z" />
	<path display="inline" fill="#5370DD" d="M403.5,276.7c1.6,1.2,1.1,2.8,0.8,4.6c-3.6-0.2-6.8-1.6-10.7-2.8   C396,274.8,399.8,275.7,403.5,276.7z" />
	<path display="inline" fill="#19203F" d="M390.2,277.5c-0.9,0.1-2-0.4-2.6,0.8c-3.2-1.4-6.5-2.9-9-5.3h0c0-0.3,0-0.5,0-0.8   c1.2-1.5,2.4-3,3.5-4.5c0.6,0.3,1.3,0.7,1.9,1c-1.1,1.3-2.3,2.6-3.4,4c2.8,3.2,3.1,1.3,6,1.4c-0.2,0.5-0.5,1-0.8,1.7   c0.8,0.4,1.6,0.7,2.5,1.1c1.2-1.6,2.4-3.1,3.5-4.6c0.3,0.3,0.7,0.6,1,0.9C392,274.6,391.1,276,390.2,277.5z" />
	<path display="inline" fill="#405BB2" d="M375.7,270.3c1,1,1,2.2,0.1,2.2c-1.4-0.1-1.8,1.2-2.8,1.4c0-0.4,0.2-0.9-0.1-1.2   c-0.6,0.2-0.5,0.7-0.4,1.2c-0.3-0.1-0.7-0.2-0.7-0.3c-0.1-2.1-1.8-2.9-3.1-4c0.5-0.8,0.3-1.7,0.2-2.6c0.8-0.1,1.6-0.1,2.5-0.1   c0.2,0.5,0.3,1,0.6,2c1.5-1.8,2.8-3.2,4.7-5.4c0.1,3.9-2.6,3.6-3,7.6C374.8,270.6,375.3,270.4,375.7,270.3z" />
	<path display="inline" fill="#2E3232" d="M461,22.2c-0.6-0.3-1.3-0.6-1.9-0.8c4.7-2.6,11.7-2.7,14.4-7.9   C477.4,17.7,463.3,20.6,461,22.2z" />
	<path display="inline" fill="#2A2929" d="M459.6,9.4c0.6-0.5,1-0.9,1.5-1.3c1.2,3.3,1,3.6-2,4.4c-1.5-5.1-4.4-2.4-7.9-3.9   c2.5-0.8,4.4-1.9,7-1.1C458.4,7.9,458.9,8.6,459.6,9.4z" />
	<path display="inline" fill="#5370DC" d="M385.5,273.9c-2.3,1.1-2.3,1.1-4.8-1.3c1.1-1.3,2.3-2.6,3.4-4c1.4,0.1,2.3,1.2,3.5,1.9   C386.8,271.8,386.2,272.8,385.5,273.9z" />
	<path display="inline" fill="#0D101F" d="M368.9,266.8c0.1,0.9,0.3,1.8-0.2,2.6c-0.4-0.2-0.8-0.4-1.3-0.7c-2.3,2.3-5.3,2.4-8,4.3   c1.8-4.8,3.8-4.3,6.7-6.3C367,267.4,368,267.1,368.9,266.8z" />
	<path display="inline" fill="#4F6DD6" d="M408,283c-2.5-0.4-1.9-3-0.7-4.6c2.4,0.1,2.4,0.1,4.2,1.1c-0.3,0.8-0.6,1.6-0.8,2.4   C409.8,282.3,408.9,282.6,408,283z" />
	<path display="inline" fill="#C9CFE6" d="M391.1,267.5c0-1.9,0-3.7,0-6.2c2.4,2.1,2.9,4.6,4.3,6.9c-0.7,0.2-1.2,0.3-1.7,0.5   C392.9,268.2,392,267.8,391.1,267.5z" />
	<path display="inline" fill="#554142" d="M398.4,181.5c0-0.2-0.1-0.4-0.1-0.6c0.6-0.3,1.2-0.6,1.8-1c4.1,1.3,8.5,1.3,12.5,2.6   c0.1,0.3,0.1,0.6,0,0.8C407.8,183.6,403.1,182,398.4,181.5z" />
	<path display="inline" fill="#4967CB" d="M391.9,272.2c-1.1,1.5-2.3,3-3.5,4.6c-0.9-0.4-1.6-0.7-2.5-1.1c0.6-2.1,2.3-2.8,3.8-4.1   C390.5,271.8,391.2,272,391.9,272.2z" />
	<path display="inline" fill="#3D5BB3" d="M390.2,277.5c0.9-1.5,1.8-2.9,2.7-4.4c2.1,0.2,3.8,1.4,5.5,2.5c-1,0.3-2,0.6-3,0.9   c-0.1-0.5-0.1-1-0.3-2.1C393.1,275.7,392.4,277.8,390.2,277.5z" />
	<path display="inline" fill="#DCC5BA" d="M408.2,54.7c-0.6-2.6,0.7-4.7,2.6-6.4C413.3,49.9,410.4,54,408.2,54.7z" />
	<path display="inline" fill="#4059AD" d="M364.3,262.2c0-0.6,0-1.2-0.1-1.8c1.9-1.1-0.2-6.9,3.7-3.6c0,0.6,0,1.2,0,1.8   c-0.8,1.1-1.6,2.2-2.4,3.4C365.1,262.1,364.7,262.2,364.3,262.2C364.3,262.2,364.3,262.2,364.3,262.2z" />
	<path display="inline" fill="#171A1A" d="M410.1,61.8c-0.8,2.9-2,5.5-5.3,6.3c-0.3-0.2-0.7-0.5-1.1-0.7c0.5-1.5,1.2-2.3,2.9-1.6   C408.3,64.9,407.7,62.2,410.1,61.8z" />
	<path display="inline" fill="#A1978F" d="M411.7,50.2c-0.1-0.7,0.1-1.6-1-1.9c0.5-0.9,0.9-1.7,1.5-2.7c1.8,0.7,3.7,0.9,4.8,2.5   c0,0.3,0,0.7,0,1c-1.3-0.6-2.5-1.1-3.8-1.7C412.7,48.5,412.2,49.3,411.7,50.2z" />
	<path display="inline" fill="#2D2F2F" d="M414.2,14.7c1.3,1.8,2.1,3,3,4.3c-1.8,0.9-2.9-0.5-4.6-0.5   C413.1,17.3,413.5,16.4,414.2,14.7z" />
	<path display="inline" fill="#30478A" d="M371.4,266.7c-0.6,0-1.1,0-1.7,0c0.2-2.2,1.3-3.8,3-5.1c0.4,0.3,0.7,0.6,1.3,1   C373,264,371.8,265.2,371.4,266.7z" />
	<path display="inline" fill="#DACAC0" d="M417.1,49.1c0-0.3,0-0.7,0-1c1.2,0.4,2.4,0.8,3.6,1.1c0.6,1.3,1.2,2.4,1.7,3.5   c-0.7,0.3-1.4,0.5-2,0.8C420.2,51.5,418.5,50.5,417.1,49.1z" />
	<path display="inline" fill="#313535" d="M448.8,20.2c0.9-2.4,3.5-0.9,5-2.1c0.2-0.1,0.9,0.4,1.6,0.7   C452.1,20.6,452.1,20.6,448.8,20.2z" />
	<path display="inline" fill="#373939" d="M437.1,33c0.7-3.4,2.3-4.8,5.9-5C440.9,29.8,439.1,31.3,437.1,33z" />
	<path display="inline" fill="#1A1B1B" d="M419.8,35.2c1.5-1.9,3.2-1,5.2-1.1C424.6,40,422.5,34,419.8,35.2z" />
	<path display="inline" fill="#282929" d="M441.4,26c1.3-1.5,1.9-4,5.1-3.4C445,24.4,443.9,26.1,441.4,26z" />
	<path display="inline" fill="#2F3030" d="M438.5,18.9c-1.3,1.4-1.6,1.9-2.1,2.4c-1.4-1-2.6-1.9-4.1-3   C434.8,17.3,435.9,19.4,438.5,18.9z" />
	<path display="inline" fill="#394F9A" d="M368.6,260.4c0.5-0.5,1.1-1,2-0.1C368.4,265.4,364.5,267.4,368.6,260.4z" />
	<path display="inline" fill="#0F1427" d="M368.6,260.4c-0.4,1.6-2.2,2.7-1.7,4.6c-0.8-0.9-1.7-1.8-2.5-2.8c0.4,0,0.8,0,1.2-0.1   c0.8-1.2,1.6-2.3,2.4-3.4C368.1,259.3,368.3,259.8,368.6,260.4z" />
	<path display="inline" fill="#292B2B" d="M412.7,34.4c-0.9,0.7-1.4,1.1-2,1.5c-1.4-1.3-2.8-2.1-3.5-3.8   C408.7,31,409.9,34.6,412.7,34.4z" />
	<path display="inline" fill="#262F5D" d="M408,283c0.9-0.4,1.8-0.8,2.6-1.2c0.8,0.6,1.2,1.5,1.5,2.5c-0.1,0.2-0.2,0.3-0.4,0.7   C410.5,285.1,408,285,408,283z" />
	<path display="inline" fill="#323434" d="M422.9,18c0.5,0.6,0.9,1,1.5,1.6c-0.5,0.7-1,1.3-1.7,2.1c-0.7-0.5-1.2-0.8-2-1.3   C421.5,19.5,422.2,18.8,422.9,18z" />
	<path display="inline" fill="#202121" d="M397.4,43.9c0-1,0-2,0-3.3c1,0,1.7,0,2.5,0C399.5,42.3,399.3,43.8,397.4,43.9L397.4,43.9z   " />
	<path display="inline" fill="#2F3030" d="M402.8,35.7c-0.9,1.6-1.7,2.3-3.4,1.7c0.5-1.1,1-2,1.7-3.3   C401.8,34.7,402.3,35.1,402.8,35.7z" />
	<path display="inline" fill="#212323" d="M412.6,8.1c0.8-2.6,0.8-2.6,4.1-2.4C415.4,6.6,414.4,8.1,412.6,8.1L412.6,8.1z" />
	<path display="inline" fill="#2A2C2C" d="M444.6,21.2c-0.6,0.1-1,0.2-1.7,0.4c-0.5-1-1.1-1.9-1.8-3.1   C443.3,17.6,443.3,19.9,444.6,21.2z" />
	<path display="inline" fill="#483733" d="M411.6,60.9c0.3,0,0.6,0,0.9,0c0.9,1.2,1.8,2.3,2.8,3.5c-0.4,0-0.7,0-1.1,0   c-1.2-0.9-2.3-1.8-3.5-2.6C411,61.5,411.3,61.2,411.6,60.9z" />
	<path display="inline" fill="#646A77" d="M377.6,154.8c0,0.6,0,1.3,0,1.9c-0.8-0.2-1.6-0.3-2.6-0.6c0-0.7,0.1-1.6,0.2-2.7   C376.2,153.9,376.9,154.3,377.6,154.8z" />
	<path display="inline" fill="#282929" d="M401.5,50.5c0.3,0.3,0.6,0.5,1.1,0.9c-0.4,0.7-0.7,1.5-1.2,2.3   C399.6,53,399.8,51.1,401.5,50.5z" />
	<path display="inline" fill="#212121" d="M409.9,14.5c-1.2-0.3-1.9-0.5-2.8-0.7c0.9-1.4,0.9-1.8,2.6-2   C409.7,12.5,409.7,13.2,409.9,14.5z" />
	<path display="inline" fill="#262929" d="M403.2,19.6c-1.1,1.8-0.8,2.2-2.4,2.6C401.2,20.4,401.2,20.4,403.2,19.6z" />
	<path display="inline" fill="#242626" d="M406.9,18.4c-0.3,0.6-0.6,1.3-0.9,1.8c-0.4,0-0.7,0-1,0C405.2,18.3,405.2,18.3,406.9,18.4   z" />
	<path display="inline" fill="#76625E" d="M464.7,109c2.1,0.6,2.1,0.6,1.8,2.7C465,111.4,464.5,110.4,464.7,109z" />
	<path display="inline" fill="#2A2929" d="M427.7,35.2c-1.1-1.9-0.1-2.4,0.9-2.9C428.9,33.4,428.9,33.4,427.7,35.2z" />
	<path display="inline" fill="#272828" d="M407.5,37.9c1.5,1.4,2.4,2.8,0,3C407.5,40.2,407.5,39.5,407.5,37.9z" />
	<path display="inline" fill="#1A1A1A" d="M423.3,42.1c0-1.3,0.4-2.3,2.1-2.6C425.4,41,425.2,42.1,423.3,42.1L423.3,42.1z" />
	<path display="inline" fill="#2E3030" d="M415.9,43.3c-1.4,1.5-2.9,2.4-3,0C413.6,43.3,414.3,43.3,415.9,43.3z" />
	<path display="inline" fill="#2C2E2E" d="M446.4,5.7c-0.3,1.1-2.1,1.8-2.2,0.3C444.8,5.2,445.5,5.4,446.4,5.7z" />
	<path display="inline" fill="#E9C8BD" d="M434.9,99.4c1,0.1,2.1-0.5,2.7,0.7C436.6,100.2,435.6,100.3,434.9,99.4z" />
	<path display="inline" fill="#1A1A1A" d="M423.3,42.1c-0.1,0.8,0.1,1.8-1.7,1.4C422.3,42.9,422.8,42.5,423.3,42.1   C423.3,42.1,423.3,42.1,423.3,42.1z" />
	<path display="inline" fill="#B7BDD5" d="M393.8,107.5c0,0.8,0,1.5-1,1.7C393.1,108.6,393.5,108,393.8,107.5z" />
	<path display="inline" fill="#0F1427" d="M367.9,258.7c0-0.6,0-1.2,0-1.8C369,257.5,368.9,258.1,367.9,258.7z" />
	<path display="inline" fill="#E9C8BD" d="M443,100.2c0.3-0.6,0.5-1.1,0.8-1.7C443.5,99.1,443.3,99.6,443,100.2z" />
	<path display="inline" fill="#E9C8BD" d="M441.8,100.4c0.4-0.1,0.8-0.1,1.2-0.2C442.7,101.2,442.2,100.8,441.8,100.4z" />
	<path display="inline" fill="#212323" d="M412.6,8.1c-0.1,0.2-0.2,0.4-0.4,0.6C411.7,8.1,412.4,8.2,412.6,8.1   C412.6,8.1,412.6,8.1,412.6,8.1z" />
	<path display="inline" fill="#19203F" d="M385.8,269.3c-0.4-0.2-0.7-0.4-1.1-0.6C385,268.9,385.4,269.1,385.8,269.3z" />
	<path display="inline" fill="#40A6CA" d="M699.9,22.2c25.5-28.6,76.9-14.3,85,22.9c-0.8,0.5-1.6,0.9-2.5,1.4   c-0.5,6.7-5.8,13.1-11,16.9c-0.5,0.4-0.9,0.8-0.3,1.5c5.8-3.4,10.8-8.6,14.6-14.9c1.7,6.5,1.3,12.3-0.5,18.1   c-13.1,9.8-28.5,22.1-45.8,19c0.5-0.6,1-1.1,1.5-1.7c-0.1-0.2-0.2-0.3-0.3-0.5c-15.2,8.8-52.2-13.7-38.4-31.2   c-2.4,0.7-2.8,3-4.1,4.4l-0.2,0C692.2,46.6,695.9,33.8,699.9,22.2z M759,76.9c-2.1,1.2-2.1,1.2-2.1,2.9c2-2.4,5-1.3,6.2-4.6   c-0.6-0.3-1.1-0.7-1.7-1C760.6,75.2,759.8,76.1,759,76.9z M746,22.3c-2.6,0.4-8,0.8-6.8,3.4C741.3,25.2,743.6,24.9,746,22.3z    M707.6,47.1c2-0.9,2-0.9,2.8-4.8C708.5,43.5,708.4,45.4,707.6,47.1z M730.2,28.9c-1.4-0.8-5.3,0.9-3.5,2.3   C727.9,30.7,729.4,30.5,730.2,28.9z M715.2,37.5c0.2,0.2,0.4,0.5,0.7,0.7c0.5-0.8,1.7-0.9,1.6-2.8   C716.4,36.4,715.8,36.9,715.2,37.5z" />
	<path display="inline" fill="#2D8FB9" d="M698.1,62.5c5.2,14.9,20.2,22.9,35,25.2c21.3,1.8,35.2-6.1,52.1-19.6   c-23,84-143,20-85.3-45.9c-4,11.5-7.7,24.3-1.9,35.9c-1.6,3.2-4.3,5.9-5.1,9.5c0.5,0.4,0.8,0.6,1.3,1   C695.9,66.8,696.9,64.7,698.1,62.5z M701.7,78.8c-1.5-2.5-11.8-12.8-12.3-5.8c7.4,2.2,12.5,8.9,17.3,14.8c0.4,0.5,1,1.1,1.8,0.3   C706.2,85,704,81.9,701.7,78.8z M730.4,90.1c-1.9-0.5-1.9-0.5-3.8,1.1C728,91.3,729.5,91.8,730.4,90.1z M711.8,99.7   c0.2,0,0.4,0,0.6,0c-0.1-0.8-0.1-1.6-0.2-2.5c-0.2,0-0.4,0-0.6,0C711.8,98.1,711.8,98.9,711.8,99.7z" />
	<path display="inline" fill="#2F535F" d="M776.1,60.9c-2.3,2.8-2.3,2.8-5,4c-0.8-2,2.8-2.8,3.9-4C775.4,60.9,775.7,60.9,776.1,60.9   z" />
	<path display="inline" fill="#D4BDB3" d="M630.2,65.3c-0.1-1.3,0.5-2.1,1.5-2.7c0.2,0.3,0.4,0.6,0.8,1.1c2.3-3.2,5.1-5.2,8.3-7.4   c0.3,0.3,0.7,0.6,1,0.9c-1,1.7-3.6,2.5-2.8,5.1c-2.4,1.8-4.6,3.6-6.6,5.6C630.9,67.5,631.7,65.4,630.2,65.3z" />
	<path display="inline" fill="#B4A49B" d="M641.8,57.3c-0.3-0.3-0.7-0.6-1-0.9c3.2-2.9,6.3-5.8,10.1-9.3c-1.7,4.8-5.4,6.5-8.4,10.2   C642.3,57.2,642,57.3,641.8,57.3z" />
	<path display="inline" fill="#4B3835" d="M635.6,60.1c-1,1.2-2,2.3-3.1,3.6c-0.4-0.5-0.6-0.8-0.8-1.1c0.6-0.9,1.3-1.8,2.1-2.6l0,0   C634.4,59.9,635,60,635.6,60.1z" />
	<path display="inline" fill="#2F2F2E" d="M644.5,59.1c-0.9,0.6-1.8,1.2-2.8,1.8c-0.9-1.5,1.1-2,1.9-2.8   C643.9,58.4,644.2,58.8,644.5,59.1z" />
	<path display="inline" fill="#D4BDB3" d="M634.6,60c-0.3,0-0.5,0-0.8,0.1c-0.1-0.8-0.1-1.6,1-1.8C634.7,58.8,634.6,59.4,634.6,60z" />
	<polygon display="inline" fill="#575B56" points="652.3,46.1 652,46.2 652,45.9  " />
	<path display="inline" fill="#C1BCB1" d="M650.9,68.2c-0.3-1-1.2-1-2-1.1c1.9-1.1,3.9-3.8,6.4-2.6   C653.8,65.7,652.3,66.9,650.9,68.2z" />
	<path display="inline" fill="#FBDFD3" d="M633.2,80.4c-2.2-0.2-3.9,1.3-5.9,1.8c0.4-1.5,0.8-3,1.2-4.4c0,0-0.1,0.1-0.1,0.1   c10.8-14,10.1-11,25.1-18c0.2,0.3,0.5,0.6,0.9,1.2c-5.3,4.7-13.3,5.5-16.6,12.1C637.1,76.2,633,77.5,633.2,80.4z" />
	<path display="inline" fill="#65625D" d="M650.5,57.8c-0.8,2.1-2.9,2.1-4.5,2.9C647,58.9,648.7,58.3,650.5,57.8z" />
	<path display="inline" fill="#0A0909" d="M197.6,596.3c-0.2,0.2-0.4,0.4-0.6,0.6C197.2,596.7,197.4,596.5,197.6,596.3z" />
	<path display="inline" fill="#4B65C5" d="M443.2,361.5c-0.4,0.1-0.8,0.2-1.8,0.5c9.1,2.7,16,6.4,24,11.5c-10.5,1.3-20.6-4.9-31-5.3   c-0.3,1.7,0.9,2.8,1.5,4c-3.7-0.7-6.6-2.7-9.7-4.6c0.9-3.9,0.9-3.9-1.6-4.9c-0.2,0.5-0.3,1.1-0.5,1.6c-2.2-3.4,0.7-4.4,2.8-6.3   C432,360.7,438,359.7,443.2,361.5z" />
	<path display="inline" fill="#4B65C5" d="M349.9,393.9c-1,0.5-0.9,1.5-0.8,2.3c1.9,8.2,4.2,16.2,3.5,24.8c-3.7,0.2-4.2-4-5.8-6.3   c-0.6-0.1-1.1-0.2-1.5-0.3c1.1-1.3,0-1.5-0.6-2.7c2.1-3.4-2.1-8.1-1.1-12.3c0-0.5-0.7-1.1-1.2-1.9c-1.6,2.8-2.7,5.3-3.2,8   c-0.9-1.2-1.8-2.5-2.6-3.5c6.4-10,10.2-21.1,16-31.4c-0.4,5.4-3.8,10.1-4.5,15.3c-0.5,0-1,0.1-1.9,0.2   C347.5,388.9,348.7,391.4,349.9,393.9z" />
	<path display="inline" fill="#4B65C6" d="M358.9,351.8c1.2,15.1,8.1,29.7,8.6,44.6c-9.3-6.9-7.3-22.2-12-32   c1.1-3.6,3.3-6.9,2.5-10.8C358.3,352.9,358.6,352.4,358.9,351.8z" />
	<path display="inline" fill="#040406" d="M426.1,356.2c-12.6,8.1-23.1,20.5-35.8,28.4c7.2-11.7,20.2-19.3,30.6-28.3   c2.1-1,4.4-6.7,6.8-3.8C427.2,353.7,426.6,355,426.1,356.2C426,356.3,426.1,356.2,426.1,356.2z" />
	<path display="inline" fill="#4B65C5" d="M432.3,340.1c5,0.3,19,4.5,18.4,10.6c-6.5,0.4-12-2.7-17.9-5c-0.2,0.6-0.3,1-0.4,1.4   C430.6,345.5,431.5,342.2,432.3,340.1z" />
	<path display="inline" fill="#0F101F" d="M424.2,364.3c0.2-0.5,0.3-1.1,0.5-1.6c2.5,1,2.5,1,1.6,4.9c6.7,4.4,14.9,6.4,22.1,10.2   c-0.3,0.9-1.1,0.7-1.8,0.9c-7.3-3-14.7-5-21.2-9.6c-6.1,6.5-9.4,15.6-15.4,22c-0.3-0.4-0.7-0.7-1-1.1   C414.1,381.7,420.7,373.5,424.2,364.3z" />
	<path display="inline" fill="#09060B" d="M443.2,361.5c-5.1-1.8-11.1-0.9-16.2-3.5c-0.3-0.6-0.6-1.2-0.8-1.9l-0.1,0.1   c15.2,3.3,31,3.3,46.4,5.5C463,364,452.8,361.4,443.2,361.5z" />
	<path display="inline" fill="#4B64C3" d="M368.7,319.5c4.3,4,11.7,4.4,16.9,7.9c-5.6,3.1-13.4-0.6-19.7-0.8   C365.1,323.6,366.5,321.4,368.7,319.5z" />
	<path display="inline" fill="#0B0C15" d="M432.3,340.1c-5.2,12.3,18.2,12.5,25.9,14.5c-9,2.9-19.3-0.6-27.1-5.1   c-0.8,0.2-1.3,0.3-2,0.4c0-5.2,1-10.6,3.2-15.5C432.3,336.4,432.3,338.3,432.3,340.1z" />
	<path display="inline" fill="#4B65C5" d="M364.2,334.8c6.9,2.7,14,3.7,21.2,5.8c-6.2,1.3-13.1,0-19.5,0.4c-0.5-1.1-1.5-0.7-2.3-1   C363.1,338.2,363.4,336.4,364.2,334.8z" />
	<path display="inline" fill="#4A64C4" d="M396.6,281.9c1.5,0.4,2.9,0.7,4.4,1.1c-0.2,1.3-0.4,2.5-0.7,4c0.5,0.1,1.1,0.3,1.6,0.4   c-3.9,1.8-7.7,3.7-11.6,5.5C390.7,288.3,393.1,284.6,396.6,281.9z" />
	<path display="inline" fill="#0A0C16" d="M338.4,398.4c-0.5,1.4-1.3,1.9-1.8,3.6c1.5,3.8,9.8,9,8.7,12.3c-0.2,0-0.5,0-0.6,0   c-2.8-1.7-4.8-4.4-7.2-6.5c-0.4-1.3-1.1-2.4-2.4-3.2c-2,2.6-2.9,5.7-4.4,8.9c-2-5.5,3.7-8.9,4.1-14c1-0.7,2-1.1,2.6-2.1   C337.7,397.8,338,398.1,338.4,398.4z" />
	<path display="inline" fill="#040408" d="M434.9,302.4c2.7-3.2,6.4-5.8,8.1-9.7c7.1,2.6-5.3,15.4-9,12.6   C434.3,304.3,434.6,303.4,434.9,302.4z" />
	<path display="inline" fill="#171D37" d="M338.4,398.4c-0.3-0.3-0.6-0.7-0.9-1c6.2-10.6,10.5-22.2,16.2-33.1c0.3,0.3,0.6,0.7,0.9,1   C349.4,376.4,345.1,388.1,338.4,398.4z" />
	<path display="inline" fill="#181B31" d="M349.9,393.9c-1.2-2.5-2.3-4.9-3.7-7.8c0.9-0.1,1.4-0.1,1.9-0.2c4.2,10.9,12.1,19,20.4,27   c-0.9,0.7-1.4,0.1-1.8-0.2C360.5,406.9,354.2,401.3,349.9,393.9z" />
	<path display="inline" fill="#0D0F1B" d="M363.5,340c0.8,0.3,1.9-0.1,2.3,1c-1.1,0.2-2.3,0.3-3.5,0.5c-1.6,3.4-2.2,6.9-3.5,10.3   l0,0c-0.3,0.6-0.6,1.2-0.9,1.8c-0.3,0-0.6,0-0.9,0c-0.3-4.5,2.4-7.8,3.7-12.1c-3.2-0.9-13.3-0.5-13.1-4.5c4.4,0.3,9.9,3.4,14,1.4   C362.3,338.9,362.9,339.5,363.5,340z" />
	<path display="inline" fill="#191E36" d="M408.9,390.1c0.3,0.4,0.7,0.7,1,1.1c-5.9,8.3-10.7,17.3-16.1,25.9   c-0.3-0.3-0.6-0.6-0.9-0.9C397.9,407.3,402.4,398,408.9,390.1z" />
	<path display="inline" fill="#090A13" d="M411.7,308c-1,0.7-2.1,1.5-3.1,2.2c-0.3-3.2,12.3-13.7,15.7-15.7c0.5,0.5,1.1,0.9,1.5,1.3   C423.4,301.4,415.3,302.8,411.7,308z" />
	<path display="inline" fill="#08070D" d="M390.3,292.9c5.5-1.8,10.9-7.4,16.8-5.2c0,0.4,0.1,0.9,0.1,1.3c-7,0.8-14,3.8-18.6,9.1   c-1-0.2-1.1-1-1.1-1.8C388.5,295.2,389.4,294,390.3,292.9z" />
	<path display="inline" fill="#1C2448" d="M434.9,302.4c-3.9,6.1-2,14-4.3,20.6c-0.4-7.1-0.8-14.9,1.6-21.5c0.1,0.8,0.3,1.6,0.4,2.4   c0.6-2.3,1.3-4.8-0.2-6.6c0.2-0.3,0.4-0.6,0.9-1.2C435.1,298,433,300.7,434.9,302.4z" />
	<path display="inline" fill="#0A0A13" d="M439.3,315c2.6-2.8,5.2-5.6,8.1-8.7c0.3,0.1,0.9,0.4,1.4,0.6c-0.1,4.6-4.8,7.3-8.4,9.3   C440,315.7,439.7,315.3,439.3,315z" />
	<path display="inline" fill="#0E0D17" d="M418.8,334.7c3-3.7,8.7-7.1,13.2-4.1c-4.3,1.1-8.4,2-12.1,5.2   C419.5,335.4,419.2,335.1,418.8,334.7z" />
	<path display="inline" fill="#14182B" d="M373.1,296.2c3.4-4.7,5.5-10.2,10-14.1c-0.3,5.6-6.3,10.2-9.2,15   C373.7,296.8,373.4,296.5,373.1,296.2z" />
	<path display="inline" fill="#283360" d="M363.5,340c-0.6-0.5-1.3-1-1.9-1.6c0.5-3.7,1.6-7.3,1.7-11.3c-0.7-0.2-1.2-0.3-1.8-0.5   c0-0.3,0-0.5,0-0.8c0.9-0.1,1.7-0.2,2.6-0.3C366.6,330.1,362.7,335.3,363.5,340z" />
	<path display="inline" fill="#181E39" d="M365,327.5c-3-4.7,1.6-7.8,4.1-11.5c0.3,0.8,0.4,1.3,0.6,1.8c-1.6,3-5.1,4.9-3.8,8.9   C365.6,326.9,365.3,327.2,365,327.5z" />
	<path display="inline" fill="#2C4076" d="M464.4,362.7c4.4,0.3,12.6-2.3,15.2,1.3C474.4,362.9,469.4,364.2,464.4,362.7z" />
	<path display="inline" fill="#202442" d="M429.2,338.6c-2.4,3.5-5.3,5.6-9.7,6.7C423.1,343.2,425.7,338.8,429.2,338.6z" />
	<path display="inline" fill="#232D55" d="M357.1,353.6c0.3,0,0.6,0,0.9,0c0.5,4.1-1.2,8.5-3.4,11.8c-0.3-0.3-0.6-0.7-0.9-1   C354.8,360.8,357.3,357.4,357.1,353.6z" />
	<path display="inline" fill="#1C1D31" d="M451.8,355.5c2.1-0.2,4.5,0.5,6.4-0.9c1.8,0.3,3.6,0.6,5.4,0.8c0.1,0.3,0.1,0.5,0.1,0.8   C459.7,355.9,455.5,356.9,451.8,355.5z" />
	<path display="inline" fill="#4462C0" d="M389.5,297.3c1.4-1.7,3-3.2,5.2-3.8c-1.3,2-2.5,4-3.9,6.1   C390.3,298.7,389.9,298,389.5,297.3z" />
	<path display="inline" fill="#283159" d="M446.6,378.7c0.7-0.1,1.5,0.1,1.8-0.9c2.1,1.2,4.2,2.4,6.3,3.6c0,0.3,0,0.6,0.1,0.8   C452,381.1,449.3,379.9,446.6,378.7z" />
	<path display="inline" fill="#252F58" d="M373.1,296.2c0.3,0.3,0.6,0.6,0.9,0.9c-0.9,2.2-2.2,4.3-3.5,6.3c-0.5-1.4-1.9-0.7-2.8-1.1   c0.8-0.4,1.5-0.7,2.4-1.2C371,299.6,372.1,297.9,373.1,296.2z" />
	<path display="inline" fill="#404C88" d="M463.6,356.2c0-0.3,0-0.5-0.1-0.8c3,0.2,5.9,0.7,9.1,2.1c-0.9,0.3-1.2,0.6-1.4,0.5   C468.9,356.6,465.9,357.8,463.6,356.2z" />
	<path display="inline" fill="#41559C" d="M417,339.1c-1.4,1.8-2.2,4.5-3.9,5.9c-0.4-2.2,2.2-4.6,3-6.8   C416.3,338.6,416.7,338.8,417,339.1z" />
	<path display="inline" fill="#334584" d="M430.6,323c0.8-1.1,0.9-2.3,0.9-3.6c1.4,2.3,0.8,4.6,0.3,7.3   C430.6,325.1,430.6,325.1,430.6,323z" />
	<path display="inline" fill="#171E35" d="M387.6,296.3c0,0.7-0.1,1.4,0.8,1.7c-0.4,1.6-0.8,3.3-1.2,5.2   C385.1,300.7,385.9,298.5,387.6,296.3z" />
	<path display="inline" fill="#19213D" d="M416.9,280.3c0.7,0.3,1.4,0.6,2.1,0.9c-1.1,2.6-1.1,2.5-3.7,3.4   C415.9,283,416.4,281.6,416.9,280.3z" />
	<path display="inline" fill="#313D70" d="M439.3,315c0.4,0.4,0.8,0.8,1.1,1.1c-1.9,0.7-4.3,3.7-6.1,2.9   C436,317.6,437.7,316.3,439.3,315z" />
	<path display="inline" fill="#3D4A85" d="M454.7,382.3c0-0.3,0-0.6-0.1-0.8c1.8,1.2,3.6,2.3,5.4,3.5   C458.5,385.7,455.7,383.9,454.7,382.3z" />
	<path display="inline" fill="#455AA8" d="M392.9,416.2c0.3,0.3,0.6,0.6,0.9,0.9c-0.9,1.4-1.9,2.8-2.8,4.2   C390.8,419.2,391.5,417.6,392.9,416.2z" />
	<path display="inline" fill="#1C2441" d="M417,339.1c-0.3-0.3-0.6-0.6-0.9-0.9c0.9-1.2,1.9-2.4,2.8-3.6c0.4,0.4,0.7,0.7,1.1,1.1   C418.9,336.9,418,338,417,339.1z" />
	<path display="inline" fill="#080B15" d="M432.4,297.2c1.5,1.9,0.8,4.4,0.2,6.6C432,301.7,432.3,299.5,432.4,297.2z" />
	<path display="inline" fill="#1A1A2F" d="M421.3,315.1c0.8-1.3,1.7-2.3,3.4-2.6c0.2,0.4,0.3,0.8,0.5,1.4c-0.9,0.5-1.8,1-2.7,1.4   C422.1,315.2,421.7,315.2,421.3,315.1z" />
	<path display="inline" fill="#4053A3" d="M443,292.7c-0.3,0.6-0.5,1.2-0.8,1.9c-0.4-0.8-0.8-1.7-1.3-2.5   C441.9,291.6,442.6,291.8,443,292.7z" />
	<path display="inline" fill="#4A64C4" d="M401.9,283c1-0.1,2-0.3,2.7,0.7C403.6,283.7,402.5,284.1,401.9,283z" />
	<path display="inline" fill="#4B65C6" d="M358.9,351.8c0.3-0.7,0.5-1.3,0.8-2C359.8,350.6,359.9,351.4,358.9,351.8z" />
	<path display="inline" fill="#374985" d="M421.3,315.1c0.4,0.1,0.9,0.2,1.3,0.2c-0.6,0.2-1.2,0.5-1.9,0.7c0,0-0.1-0.1-0.1-0.1   C420.8,315.6,421,315.4,421.3,315.1z" />
	<path display="inline" fill="#4462C0" d="M388.6,298.1c0.3-0.3,0.5-0.5,0.8-0.8C389.1,297.6,388.9,297.9,388.6,298.1z" />
	<path display="inline" fill="#4A64C4" d="M395.6,281.3c0.3,0.2,0.7,0.4,1,0.6C396.2,281.7,395.9,281.5,395.6,281.3z" />
	<path display="inline" fill="#374985" d="M420.7,316c-0.2,0.2-0.3,0.4-0.5,0.6c-0.6-0.6,0-0.6,0.3-0.7L420.7,316z" />
	<path display="inline" fill="#4B65C5" d="M343.7,413.8c0.3,0.2,0.7,0.4,1,0.6C344.4,414.2,344,414,343.7,413.8z" />
	<path display="inline" fill="#4B65C5" d="M380.1,285.5c-0.2,0.3-0.4,0.5-0.6,0.8C379.6,286,379.9,285.8,380.1,285.5z" />
	<path display="inline" fill="#4B65C5" d="M381.2,283.7c-0.3,0.3-0.5,0.7-0.8,1C380.7,284.4,380.9,284.1,381.2,283.7z" />
	<path display="inline" fill="#050403" d="M628.4,77.8c-2.2,9.2-8.6,17.2-17,21.7c-0.1-0.5-0.2-1-0.5-2.3c-0.7,0.7-1.1,1.1-1.8,1.8   c1.3,0.3,1.8,0.4,2.3,0.5c-9.2,7.4-43.8,15-55.6,13.5c0.1-0.3,0.2-0.6,0.3-0.9c21.3-4.5,43.2-6.1,59.8-21.5   c0.4,0.2,0.8,0.5,1.4,0.8c0.5-0.7,1-1.4,1.7-2.3c-2.4-0.1-3.8-0.5-5.9-1.3c-0.3-0.9-0.6-1.8-0.9-2.7c0.3-0.3,0.6-0.5,1-0.8l0,0   c1.3,1.1,2.6,2.2,3.9,3.3c1.6-0.3,3-0.5,4.7-0.8C623.6,84,624.5,78,628.4,77.8z" />
	<path display="inline" fill="#180F0E" d="M400.9,147.7c0.7-5.2,13,0.3,17.9-1.8c-4.4,4-10.9,5.1-17,2.8   C401.5,148.4,401.2,148,400.9,147.7z" />
	<path display="inline" fill="#140D0D" d="M512,136.2c5.7-2.4,12.6-1.7,18.2-5c1.6,1.1-0.6,2.9-1.6,3.1   C523.8,134.3,514.5,143.8,512,136.2z" />
	<path display="inline" fill="#201A19" d="M544.1,140.4c-3.1,1.7-13.7,6.9-14.7,1.6c4.6-0.8,9.2-1.7,13.8-2.5   C543.5,139.7,543.8,140,544.1,140.4z" />
	<path display="inline" fill="#1C1513" d="M614.9,109.2c7.9,0.3-3.7,8.4-7.2,7.1c0.4-0.6,0.7-1.1,1.1-1.7   C611.7,113.8,613.8,112,614.9,109.2z" />
	<path display="inline" fill="#453331" d="M547.7,136.9c2.8-2.2,2.8-2.2,6-2.2c-1.1,2.1-2.8,3-4.9,3.4   C548.5,137.7,548.1,137.3,547.7,136.9z" />
	<path display="inline" fill="#413533" d="M537.2,126.2c-1.2,2.2-2.2,3.8-4.3,4.4C533.6,127.5,533.7,127.4,537.2,126.2z" />
	<path display="inline" fill="#412220" d="M562.2,132.8c-2.1,1.3-3.4,2.9-5.8,1.9C557.9,132.9,559.4,132.1,562.2,132.8z" />
	<path display="inline" fill="#7D6661" d="M547.7,136.9c0.4,0.4,0.7,0.8,1.1,1.2c-1.6,0.8-3.2,1.5-4.8,2.3c-0.3-0.3-0.6-0.6-0.9-0.9   C544.7,138.6,546.2,137.7,547.7,136.9z" />
	<path display="inline" fill="#574744" d="M575.4,127.9c0.7-2.1,2.4-2.6,4-3.2C580.9,126.1,577,128.5,575.4,127.9z" />
	<path display="inline" fill="#564441" d="M466.7,125.6c-0.9,1.4-1.7,3.1-4,2C463.5,125.8,465.1,125.8,466.7,125.6z" />
	<path display="inline" fill="#1C1615" d="M569.6,129.8c-1,1.3-2,2.2-3.5,2.3C565.6,130.1,566.4,129.5,569.6,129.8z" />
	<path display="inline" fill="#3E3432" d="M409.9,110.1c-0.1,2-1.8,1.9-2.5,2.7C405.5,111.7,408.7,109.7,409.9,110.1z" />
	<path display="inline" fill="#482E2C" d="M597.9,119.9c-0.2,1.7-1.3,1.9-2.7,1.9C595.5,120,595.7,119.9,597.9,119.9z" />
	<path display="inline" fill="#0A0808" d="M412.6,183.4c0-0.3,0-0.6,0-0.8c0.9-0.3,1.8,0,2.7-0.1c0,0.4,0.1,0.8,0.1,1.2   C414.4,184.6,413.6,183.5,412.6,183.4z" />
	<path display="inline" fill="#78716B" d="M605,117.2c-1.2,1.3-1.7,1.3-2.7,0c0.6-0.3,1.2-0.6,1.8-0.8   C604.5,116.7,604.8,116.9,605,117.2z" />
	<path display="inline" fill="#EECABA" d="M608.9,114.7c-0.4,0.6-0.7,1.1-1.1,1.7c-0.2-0.4-0.4-0.8-0.7-1.2   C607.7,115,608.3,114.8,608.9,114.7z" />
	<path display="inline" fill="#2D1111" d="M605,117.2c-0.3-0.3-0.6-0.5-0.9-0.8c0.7-0.3,1.2-0.1,1.5,0.6   C605.5,117,605.3,117,605,117.2z" />
	<path display="inline" fill="#EECABA" d="M436.9,141.6c-0.6,0.3-1.2,0.6-1.8,0.9l-0.2-0.3c0.6-0.3,1.2-0.5,1.9-0.8L436.9,141.6z" />
	<path display="inline" fill="#554142" d="M415.3,182.5c-0.7,0-1.3,0-2,0c0.7-0.2,1.3-0.5,2-0.7C415.3,182,415.3,182.2,415.3,182.5z   " />
	<path display="inline" fill="#B6BDD4" d="M423.4,221.1c-1.8,0.9-0.1,3.8-2.4,4.3c-7,0.7-6.6-9.3-6.5-14.4c0.9-1,2-2.1,2.9-3   c4.1-1,4.5,4.2,4.2,6.9c-0.5-0.5-1-1-1.6-1.5c-3.2,2.5,0.5,6.5,3.4,6.9l-0.1-0.1C423.3,220.5,423.3,220.8,423.4,221.1z" />
	<path display="inline" fill="#141315" d="M433.3,260.7c-0.1,5.8-0.7,13.7-6.2,16.9c-0.5-0.4-1.2-0.8-2-1.4c4.7-4.7,5-11.5,7.3-17.4   C432.7,259.4,433,260,433.3,260.7z" />
	<path display="inline" fill="#B1B6CD" d="M423.2,202.4c-1.6-1.8-0.5-3.9-0.7-6.1c5.9-1.4,8.2,6.9,7.8,11.6   c-0.5-0.1-1.1-0.1-1.6-0.2c0,0,0.1,0.1,0.1,0.1c-1.2-3.1-1.3-6-4.2-8.3c-0.4,1.2-0.7,1.9-0.9,2.6   C423.5,202.2,423.4,202.3,423.2,202.4z" />
	<path display="inline" fill="#37373D" d="M433.3,260.7c-0.3-0.6-0.6-1.3-0.9-1.9c1.7-3.6-0.2-7.5,4-10.1   C436,253.2,434.2,256.8,433.3,260.7z" />
	<path display="inline" fill="#28262A" d="M427,181.8c1.8,3.7-1,6.2-3.7,8.7C423.1,187.2,424.7,184.9,427,181.8z" />
	<path display="inline" fill="#212125" d="M423.4,220.2c-2.9-0.4-6.6-4.4-3.4-6.9C422.2,215,422.7,217.7,423.4,220.2z" />
	<path display="inline" fill="#B1B6CD" d="M428.8,209.4c-3.7-0.2-4.9-4.1-5.5-7c0.1-0.1,0.3-0.2,0.4-0.3c1.5,2.1,2.5,4.6,5.1,5.6   c0,0-0.1-0.1-0.1-0.1C428.7,208.2,428.7,208.8,428.8,209.4z" />
	<path display="inline" fill="#302C31" d="M428.8,209.4c0-0.6-0.1-1.2-0.1-1.8c0.5,0.1,1.1,0.1,1.6,0.2l0,0c1.5,1.6,2.4,3.7,3.6,5.5   C431.8,214.9,430,210.7,428.8,209.4C428.8,209.4,428.8,209.4,428.8,209.4z" />
	<path display="inline" fill="#2F3237" d="M432.8,214.4c2.8,1.3,4.6,2.2,5.6,4.3C435.4,218.9,434.7,218.5,432.8,214.4z" />
	<path display="inline" fill="#1E1F23" d="M423.4,221.1c0-0.3,0-0.6-0.1-0.9c2.4-0.1,3.3,1.6,4.7,3.4   C425.4,224,424.1,223,423.4,221.1z" />
	<path display="inline" fill="#3D3E44" d="M417.1,198c-1,1-1.9,1.8-3,2.8C412.6,199,415.5,196.2,417.1,198z" />
	<path display="inline" fill="#3D3B40" d="M450.3,230.2c-0.1,2.1-1.3,3.2-2.8,4.6C447.6,231.9,447.6,231.9,450.3,230.2z" />
	<path display="inline" fill="#4A4950" d="M436.9,247.6c-0.3-2.6-0.3-2.6,1.6-4C438.5,245.1,438.5,245.1,436.9,247.6z" />
	<path display="inline" fill="#1D1517" d="M423.2,192.2c-0.9,0.9-1.8,1.8-3.3,3.3C420.2,193.2,420.7,191.9,423.2,192.2z" />
	<path display="inline" fill="#383035" d="M440.3,240.3c0.7-1.3,1.5-1.8,2.9-2.5C442.8,240.5,442.2,241,440.3,240.3z" />
	<path display="inline" fill="#4A4E55" d="M460.1,184.4c-0.3,1.2-0.6,0.8-1.4,0.5C458.9,184,459.3,184.1,460.1,184.4z" />
	<path display="inline" fill="#B1B6CD" d="M431.2,208.9c-0.3-0.3-0.6-0.7-0.9-1C431,207.8,431.3,208.2,431.2,208.9z" />
	<path display="inline" fill="#B1B6CD" d="M428.8,209.4c0.2,0.3,0.4,0.6,0.6,1C429.2,210,429,209.7,428.8,209.4z" />
	<path display="inline" fill="#B6BDD4" d="M426,221.1c-0.4-0.3-0.8-0.5-1.1-0.8C425.3,220.6,425.6,220.8,426,221.1z" />
	<path display="inline" fill="#07070C" d="M361.5,325.9c0,0.2,0.1,0.5,0,0.8c-1.4,0.4-2.9,0.3-4.1,1.3c0.6,0.3,1.1,0.6,1.8,1   c-5.8,1.6-11.9,0.5-17.3,3.8c-0.2-0.5-0.7-1.2-0.5-1.5c0.9-1.3-0.6-2.2-0.3-3.5C347,324.2,354.9,326.6,361.5,325.9z" />
	<path display="inline" fill="#0F101E" d="M355.4,315.2c4.3-0.6,11.5-5,14.8-1.4c-4.4,1-8.7,1.5-13,2.3   C356.6,315.8,356,315.5,355.4,315.2z" />
	<path display="inline" fill="#0B0D18" d="M367.7,302.4c0.9,0.4,2.3-0.4,2.8,1.1c-3,1.6-9.1,3.5-11.2-0.6   C362.5,302.6,365.1,302.5,367.7,302.4z" />
	<path display="inline" fill="#222849" d="M355.4,315.2c0.6,0.3,1.2,0.6,1.9,0.9c-1.9,1.4-3.9,0.6-6.8,0.7   C352.9,315.9,353.4,315.2,355.4,315.2z" />
	<path display="inline" fill="#374685" d="M363.3,300.7c-2,0-2.9,0.3-4.2-1.1C361.4,298.9,361.4,298.9,363.3,300.7z" />
	<path display="inline" d="M372.5,273.8c-0.1-0.5-0.2-1,0.4-1.2c0.3,0.4,0.1,0.8,0.1,1.2C372.9,273.8,372.6,273.8,372.5,273.8z" />
	<path display="inline" fill="#384A90" d="M378.6,272.2c0,0.3,0,0.5,0,0.8c-0.2-0.1-0.4-0.3-0.7-0.4   C378.2,272.4,378.4,272.3,378.6,272.2z" />
	<path display="inline" fill="#171D37" d="M337.4,397.4c-0.2,0.3-0.5,0.6-0.7,0.9C336.9,398,337.2,397.7,337.4,397.4z" />
	<path display="inline" fill="#384A90" d="M378.6,273c0.3,0.3,0.6,0.6,0.9,0.9C379.2,273.6,378.9,273.3,378.6,273z" />
	<path display="inline" fill="#EBC9B9" d="M303.2,435.7c-0.9,3.2-5,4.1-7.5,5.8c-9.6,4.8-17.4,10.9-26.9,16.3   c3.9-12.9,20.7-19.6,32.6-23.7c-0.2,0.3-0.4,0.7-0.6,1c-1,0.5-2.5,0.7-2.2,2.8C300.3,436.9,301.4,435.7,303.2,435.7z M286.4,442.3   c-0.6,0.4-1.2,0.7-1.9,1.2c2.1,1.7,4.9-1.4,4.9-3.1C288.3,441,287.4,441.6,286.4,442.3z M276.8,449.5c2.9-0.7,3.7-0.9,4-3.4   C278.5,446.4,277.7,447.9,276.8,449.5z M297.7,438.1c-2.6-1-2.9,1.1-4.4,1.9C295.4,440.8,296.4,439.9,297.7,438.1z" />
	<path display="inline" fill="#150E0D" d="M303.2,435.7c-0.6,0.1-1.1,0.2-1.7,0.2c-0.3-0.3-0.5-0.5-0.8-0.8c3.8-4.1,9.8-6,15.1-8.1   C319.6,431.6,306.1,433.5,303.2,435.7z" />
	<path display="inline" fill="#2E2623" d="M238.8,489.4c-2.3-2.1-0.2-6.2,2.7-7.1c0.4,0.3,0.7,0.7,1.1,1   C241.3,485.4,240.1,487.4,238.8,489.4z" />
	<path display="inline" fill="#332B28" d="M234.4,495.7c-2,0-2,0-1.7-2.5c1.3-0.6,3.4-3.9,4.5-1.8   C236.2,492.8,235.3,494.3,234.4,495.7z" />
	<path display="inline" fill="#2C2725" d="M337.4,433.3c1.6,0,4.9-1.6,4.4,1.4c-0.8,0.1-1.7,0.3-2.6,0.5   C338.4,434.8,337.2,434.7,337.4,433.3z" />
	<path display="inline" fill="#382C2A" d="M323.2,423.5c-0.4,0.7-0.9,1.4-1.3,2.1c-3.1-1.1-1.2-2.2,0.2-3.2   C322.5,422.7,322.8,423.1,323.2,423.5z" />
	<path display="inline" fill="#AD958E" d="M323.2,423.5c-0.4-0.4-0.7-0.7-1.1-1.1c0.6-0.3,1.2-0.6,1.8-0.9c0.6,0.3,1.1,0.6,1.7,1   C324.8,422.8,324,423.1,323.2,423.5z" />
	<path display="inline" fill="#745A56" d="M242.5,483.4c-0.4-0.3-0.7-0.7-1.1-1c0.8-0.9,1.8-0.8,2.8-0.8   C244.4,482.8,243.3,483,242.5,483.4z" />
	<path display="inline" fill="#312826" d="M490.4,461c0.7-3.7-3.1-6.5-1.5-10.3c2.5,3.2,2.4,6.8,2.4,10.3   C491,461,490.7,461,490.4,461z" />
	<path display="inline" fill="#302422" d="M477,435.9c-0.9-1.6-1.9-3.3-2.7-4.8c2.2-2.1,3.3,2.7,4.7,3.9c-0.4,0.4-0.8,0.7-1.2,1.1   C477.5,436,477.2,436,477,435.9z" />
	<path display="inline" fill="#352F2C" d="M481.7,440.6c0.3-0.3,0.5-0.6,0.8-0.9c0.2,0.1,0.3,0,0.5-0.1c0.4,0.3,0.8,0.7,1.1,1   c0.3,1.1,0.7,2.2,1,3.3c-0.3,0-0.6,0.1-1,0.1C483.3,442.9,482.5,441.8,481.7,440.6z" />
	<path display="inline" fill="#443A37" d="M492.3,471.6c-2.2-2.2-2.3-3-0.5-5.4C492.4,468.2,492.4,469.7,492.3,471.6z" />
	<path display="inline" fill="#5D5A56" d="M492.3,471.6c0-0.9,0.1-1.9,0.1-2.8c1.4,1.8,0.1,3.9,0.9,6c-0.9,0-1.3,0.1-1.9,0.1   C491.7,473.7,492,472.7,492.3,471.6z" />
	<path display="inline" fill="#5E5751" d="M477.8,436.1c0.4-0.4,0.8-0.7,1.2-1.1c1.3,0.8,1.6,2.1,1.7,3.5   C479.7,437.7,478.7,436.9,477.8,436.1z" />
	<path display="inline" fill="#1A1615" d="M497.5,417c0.4-0.5,0.8-1,1.2-1.6c1,1.2,0,1.9-0.2,2.6C498.1,417.6,497.8,417.3,497.5,417   z" />
	<path display="inline" fill="#151110" d="M490.4,461c0.3,0,0.6,0,0.9,0c0.3,1.1,0.7,2.1-0.3,3.4C490.1,463.3,489.7,462.3,490.4,461   z" />
	<path display="inline" fill="#554B48" d="M491.7,403.9c-0.1,0.2-0.2,0.5-0.3,0.8c-0.9,0.1-2.3,0.4-2.5-0.9c0.5-0.4,1-0.7,1.5-1.1   C490.8,403.1,491.2,403.5,491.7,403.9z" />
	<path display="inline" fill="#B2A49C" d="M484.2,444.1c0.3,0,0.6-0.1,1-0.1c0.5,0.4,1,0.8,1.7,1.4   C485.2,445.9,484.7,445,484.2,444.1z" />
	<path display="inline" fill="#64605C" d="M497.5,417c0.3,0.3,0.7,0.7,1,1c-0.3,0.8-0.7,1.4-1.5,1.7   C496.4,418.6,496.6,417.7,497.5,417z" />
	<path display="inline" fill="#EECABA" d="M488.9,403.7c0.1,1,1,0.8,1.6,1c-0.6,0.3-1.2,0.5-1.7,0.8   C487.5,404.6,487.6,404.4,488.9,403.7z" />
	<path display="inline" fill="#EECABA" d="M484.1,440.6c-0.4-0.3-0.8-0.7-1.1-1C483.7,439.6,484.1,439.9,484.1,440.6z" />
	<path display="inline" fill="#0D0A0A" d="M470,149.5c-1.4,4.1-11.4,12.7-12.7,5.1c0.1-0.4,0.9-1.1,1.3-1   C463,154.3,465.6,148.6,470,149.5z" />
	<path display="inline" fill="#463330" d="M470,149.5c-0.7,0-1.4-0.1-2-0.1c1.8-1.7,2.8-2.7,5.6-2.8   C472.5,148.4,471.8,149.6,470,149.5z" />
	<path display="inline" fill="#36201E" d="M436.7,141.4c-0.6,0.3-1.2,0.5-1.9,0.8c-0.5-0.2-1-0.4-1.6-0.6c2.2-1.8,2.2-1.8,4.3-1.7   C437.3,140.4,437,140.9,436.7,141.4z" />
	<path display="inline" fill="#2A0A09" d="M425.4,144.9c-2.2,1.4-3.3,1.9-4.7,0.8C421.8,144.2,423,145.2,425.4,144.9z" />
	<path display="inline" fill="#51423D" d="M484.1,143.5c-1.5,1.8-1.5,1.8-3.2,0.1C482,142.9,483,142.9,484.1,143.5z" />
	<path display="inline" fill="#3D211F" d="M430,145c-0.6,0.1-1.2,0.1-1.9,0.2c0.5-1.6,1.2-1,1.9-1.1   C429.9,144.3,429.9,144.6,430,145z" />
	<path display="inline" fill="#4A3C38" d="M475.3,145.2c0.9-0.1,1.6-0.2,2.3-0.2C477,146,476.3,146.4,475.3,145.2z" />
	<path display="inline" fill="#0C0B0B" d="M206.1,558.3c3.3,0.6,19.1,3.4,10.2,7.3C212.6,565.2,203.3,563.8,206.1,558.3z" />
	<path display="inline" fill="#0F0C0C" d="M211.9,546.2c3.8,1.7,8.5-0.4,11.5,3.3c-0.3,0.8-0.5,1.3-0.7,1.8   c-4.8,0.1-12,1.3-14.8-3.4C208.6,546,210.4,546.3,211.9,546.2z" />
	<path display="inline" fill="#0E0C0D" d="M207.6,554c2.3-4.2,11.1-1.4,12.2,1.3C219.6,559.8,209.1,556.4,207.6,554z" />
	<path display="inline" fill="#CECEDC" d="M192.4,541.5c0.3-0.3,0.6-0.6,0.9-0.9C193,540.9,192.7,541.2,192.4,541.5z" />
	<path display="inline" fill="#151212" d="M538,560c0.2-2.8,3.7-7.6,6.2-5.5C545.3,557.4,540.8,561.1,538,560z" />
	<path display="inline" fill="#543E3A" d="M479.8,403.5c1.8-2.2,1.8-2.2,3.5-1.8C482.5,403.5,482.5,403.5,479.8,403.5z" />
	<path display="inline" fill="#131413" d="M469.1,426.2c2.1,0.5,2.3,1.7,2.4,2.9C469.8,429.2,469.6,428,469.1,426.2z" />
	<path display="inline" fill="#1C0F0E" d="M468.3,424.6c-0.8-1-1.3-1.6-2-2.4C468,422.4,468,422.4,468.3,424.6z" />
	<path display="inline" fill="#010001" d="M463.6,419c0-0.3,0.1-0.7,0.1-1c0.2,0.3,0.4,0.5,0.6,0.8C464,418.8,463.8,418.9,463.6,419   z" />
	<path display="inline" fill="#0F1223" d="M416.2,392c1.7-5,4.6-9.6,9.4-12.2c0.8,1.3-0.6,1.7-1.2,2.9c0.9,0.7,1.7,1.4,2.6,2.1   c-0.3,0.3-0.7,0.7-1,1c-1.1-0.4-2.2-0.7-3.5-1.2C420.3,387.2,419.3,390.6,416.2,392z" />
	<path display="inline" fill="#252C53" d="M426,385.9c0.3-0.3,0.7-0.7,1-1c2,1.3,4.4,1.9,6.2,3.6C431.2,389.4,428.3,386.4,426,385.9   z" />
	<path display="inline" fill="#13100F" d="M228.2,496.8c0.4,0,0.9,0,1.3,0c0,3.3-1.5,5.3-4.5,6c-1.1-1-0.4-2.2-0.4-3.3   C225.8,498.5,227,497.6,228.2,496.8z" />
	<path display="inline" fill="#372B28" d="M343.8,436.7c-0.2-0.4-0.4-0.8-0.6-1.1c4-1.7,4-1.7,6.3-0.9   C349.8,437.7,345.6,436.5,343.8,436.7z" />
	<path display="inline" fill="#171517" d="M448.3,178.2c-3-2.2-7.5-6.5-5.7-10.5c3.4,2,4.1,6.5,6.8,9.4   C449,177.5,448.7,177.9,448.3,178.2z" />
	<path display="inline" fill="#4B5059" d="M448.3,178.2c0.4-0.4,0.7-0.7,1.1-1.1c0.6,0.3,1.2,0.6,1.7,1   C450.2,179.4,449.8,179.4,448.3,178.2z" />
	<path display="inline" fill="#544850" d="M455.7,181.7c-0.1,1-0.5,1.3-1.7,0.4C454.7,181.9,455.1,181.7,455.7,181.7L455.7,181.7z" />
	<path display="inline" fill="#3A2B28" d="M491.7,403.9c-0.4-0.4-0.9-0.8-1.3-1.2c0.6-0.9,1.3-1.8,1.9-2.7c0.4,0.1,0.8,0.2,1.4,0.3   C493.7,401.9,492.9,403,491.7,403.9z" />
	<path display="inline" fill="#FBDFD3" d="M505.7,536c0.6-0.2,1.2-0.4,1.8-0.7C507.1,536.2,506.4,536.2,505.7,536z" />
	<path display="inline" fill="#1D1D21" d="M380.5,176.3c-0.9-2.7-5.8-13-2.1-14.2C382.3,165.2,382,172.1,380.5,176.3z" />
	<path display="inline" fill="#212024" d="M395.1,261.3c-2.5-0.6-3.9-1.6-4.5-3.1c-1.5-4.4-7.2-7.3-5.5-12.4   C389.3,251.6,390.9,255.5,395.1,261.3z" />
	<path display="inline" fill="#2A2B31" d="M380.5,176.3c1.3-2,0.8-4.3,0.9-6.6c0.8,4.7,2.2,10.8-2.1,14.4c-2.3-1.7,0.9-4.2,1.5-6.1   C380.7,177.4,380.6,176.9,380.5,176.3z" />
	<path display="inline" fill="#403F47" d="M396.9,261.8c3.1,1.1,4.6,3.6,5.9,6.5C400.3,267.6,399.9,267.1,396.9,261.8z" />
	<path display="inline" fill="#3E3C43" d="M380.7,195.9c-0.6,2.3-1.1,3.8-1.5,5.4C377,198.8,377.1,198.3,380.7,195.9z" />
	<path display="inline" fill="#342F36" d="M378.9,191.1c-0.3-1.8-0.3-1.8,1.2-2.8C379.9,189.8,379.9,189.8,378.9,191.1z" />
	<path display="inline" fill="#EAC5B6" d="M556.2,112.1c-0.4,2-2.9,1.9-4.5,1.7c-9.4-0.8-18.8,0.1-28.1,1.6   c2.8-4.6,9.5-13.2,15.9-8.3c-0.1,0.5-0.1,1.1-0.2,1.7c4.3,2.9,10.6,0.7,15.5,1.3C555.9,110.5,554.8,112.1,556.2,112.1z" />
	<path display="inline" fill="#EAC5B6" d="M624.8,80.6c-1,2.1-2.1,4.1-3.1,6.1c-1.7,0.3-3.1,0.5-4.7,0.8c-1.3-1.1-2.6-2.2-3.9-3.3   c1-1.2,2-2.4,3-3.6C619.3,80.1,622,81.4,624.8,80.6z" />
	<path display="inline" fill="#AB9B93" d="M613.2,87.7c2,0.8,3.5,1.2,5.9,1.3c-0.6,0.9-1.2,1.6-1.7,2.3c-0.6-0.3-1-0.5-1.4-0.8   c-1.8,1.2-3.6,2.3-5.5,3.5c-0.4-1.6-1.9,0.1-2.6-0.8c0.6-2.3,4.5-0.2,5.3-3.2c-0.4-0.3-0.7-0.5-1.1-0.7   C612.5,88.8,612.8,88.3,613.2,87.7z" />
	<path display="inline" fill="#574845" d="M478.1,111.5c-0.9,1.5-2.1,1.9-3.5,2.2C475.5,110.4,476,110.1,478.1,111.5z" />
	<path display="inline" fill="#604945" d="M604.9,95.3c-0.6,1.2-1.6,1.9-3,2.1C602.8,94.8,602.8,94.7,604.9,95.3z" />
	<path display="inline" fill="#97827B" d="M599.4,99c-0.9,1.4-2.3,1.7-4,2.2C597.2,98.4,597.2,98.4,599.4,99z" />
	<path display="inline" fill="#443D3A" d="M521.8,106.7c1.4-0.7,2.4-0.6,3.1,1C522.6,108.4,522.6,108.4,521.8,106.7z" />
	<path display="inline" fill="#322220" d="M612.2,89.4c0.3,0.2,0.7,0.4,1.1,0.7c-0.8,1.7-2.3,1.9-3.8,2.1   C610.4,91.3,611.3,90.3,612.2,89.4z" />
	<path display="inline" fill="#EAC5B6" d="M613.2,84.2c-0.3,0.3-0.6,0.5-1,0.8C612.5,84.7,612.9,84.5,613.2,84.2z" />
	<path display="inline" fill="#D4BDB3" d="M633.8,60c-0.3,0.3-0.6,0.6-0.9,0.9C633.2,60.6,633.5,60.3,633.8,60z" />
	<path display="inline" fill="#AB9B93" d="M610.5,94c-0.3,0.3-0.6,0.5-0.9,0.8C609.9,94.6,610.2,94.3,610.5,94z" />
	<path display="inline" fill="#251E1C" d="M417.1,49.1c1.4,1.3,3.1,2.4,3.4,4.5c-2.2-1.3-3.5,2.4-1.5,3.2c1.2,0.5,2.6,0.5,3.3,1.9   c-0.1,3.2-3.9,2.1-6.1,2.1c0.2-3.1,0-5.7,0.7-9.3c-0.6-0.6-1.4-1.4-2.6-2.6c-1.4,2.6-0.6,4.2,0.2,6.5c-0.3,0-0.7,0-1,0   c-0.4-0.4-0.8-0.8-1.3-1.5c-0.6,0.6-1.1,1-1.6,1.5c0.3,0.9,0.6,1.7,0.9,2.4c-1.9,0.6-2.7-1.9-3.4-3.3c3.4-1.2,3.2-4.7,5.2-7.2   C414.6,48,415.8,48.6,417.1,49.1z" />
	<path display="inline" fill="#1B1514" d="M414.2,64.5c2.2-0.1,4.1,1.8,6.2,2.6c0.8-0.6,1.5-1,2.2-1.5c0.8,0.7,1.5,1.3,2.3,2   c-2.2,3.1,0.5,5.9,2.1,8.6c-0.9,0.6-1.7,1.2-2.6,1.7c-1.2-2-2.5-3.9-3.6-5.8c0.2-1.1,0.4-1.9,0.6-2.8   C418.6,68.3,414.4,68.2,414.2,64.5z" />
	<path display="inline" fill="#181312" d="M445.1,40.6c2.8-5.3,12.5-5.4,17.4-3c-0.3,0.7-0.7,1.4-1.1,2.3c-4.4,0.1-8.7-2.5-12.6,0.4   C447.8,41.1,447.6,41,445.1,40.6z" />
	<path display="inline" fill="#231D1C" d="M451,45.4c2.3-2.9,5.4-3.2,8.6-4.2c0,1.5,0,2.7,0,4.1c-0.7,0.4-1.5,0.8-2.3,1.2   c-1.2-0.2-2.3-0.6-3.4-0.6C453,45.8,452,47,451,45.4z" />
	<path display="inline" fill="#524A45" d="M424.4,77.8c0.9-0.6,1.7-1.2,2.6-1.7c0.9,0.6,1.8,1.2,2.7,1.8c0,0.3,0,0.5,0,0.8   c-1-0.2-2-0.4-2.9-0.6c-0.7,0.9,0.6,2.1,0.5,3.2c-0.4,0.3-0.7,0.7-1.1,1C425.5,80.8,424.9,79.3,424.4,77.8z" />
	<path display="inline" fill="#6C5D57" d="M439.5,82.3c-0.1,0.4-0.1,0.8-0.3,1.6c-2.2-1.1-4.1-2.2-6.1-3.2c0.3-0.3,0.7-0.6,1-1   C435.9,80.6,437.7,81.5,439.5,82.3z" />
	<path display="inline" fill="#3D2D2B" d="M434.1,79.7c-0.3,0.3-0.7,0.6-1,1c-1.1-0.7-2.3-1.3-3.4-2c0-0.3,0-0.5,0-0.8   C431.5,77.4,432.6,79,434.1,79.7z" />
	<path display="inline" fill="#423230" d="M440.2,63.3c-1.8,0.6-2.6,0.1-3.2-1.1C438.2,61.6,438.2,61.6,440.2,63.3z" />
	<path display="inline" fill="#41312E" d="M433,58.5c1.8,1.1,2.2,1,2.8,2.5C433.8,60.9,433.8,60.9,433,58.5z" />
	<path display="inline" fill="#86766C" d="M426.1,82.3c0.4-0.3,0.7-0.7,1.1-1c0.6,1.5,0.6,1.5,0.4,3.8   C426.9,83.8,426.5,83.1,426.1,82.3z" />
	<path display="inline" fill="#6F5B55" d="M406.7,83.9c0.2-0.7,0.3-1.3,0.9-1.9C408.4,83.6,408.4,83.6,406.7,83.9z" />
	<path display="inline" fill="#201F1E" d="M433.2,97.5c-0.1-0.8-0.5-1.7,0-2.4C434.6,96.1,434.6,96.1,433.2,97.5L433.2,97.5z" />
	<path display="inline" fill="#B29F95" d="M430.4,92.1c-0.9-0.3-0.8-1-0.9-1.7C431.2,90.5,431.2,90.5,430.4,92.1z" />
	<path display="inline" fill="#705F59" d="M410.1,77.5c-0.7-2.3,1.2-2.5,0.5,0C410.4,77.5,410.3,77.5,410.1,77.5z" />
	<path display="inline" fill="#967C72" d="M427.9,87.7c0-0.4,0.1-0.9,0.2-1.7c0.6,0.4,1,0.7,1.8,1.4   C428.8,87.5,428.3,87.6,427.9,87.7L427.9,87.7z" />
	<path display="inline" fill="#36302D" d="M413.5,55.5c0.3,0,0.7,0,1,0c0.9,1,0.9,2.1,0.4,3.5C413.9,57.9,413.7,56.7,413.5,55.5z" />
	<path display="inline" fill="#10262E" d="M698.1,62.5c-1.2,2.2-2.2,4.3-3.9,6.2c-0.5-0.4-0.8-0.7-1.3-1c0.8-3.7,3.5-6.3,5.1-9.5   c0,0,0.2,0,0.2,0c0.3,0.3,0.6,0.7,1,1C698.8,60.2,698.4,61.4,698.1,62.5z" />
	<path display="inline" fill="#2A4650" d="M746,22.3c-2.5,2.5-4.7,2.9-6.8,3.4C738,23.2,743.4,22.8,746,22.3z" />
	<path display="inline" fill="#1F333A" d="M759,76.9c0.8-0.8,1.5-1.7,2.5-2.7c0.6,0.4,1.1,0.7,1.7,1c-0.8,2.2-2.4,2.6-4.1,2.9   C759.1,77.8,759.1,77.4,759,76.9z" />
	<path display="inline" fill="#3A6777" d="M699.1,59.1c-0.3-0.3-0.6-0.7-1-1c1.3-1.4,1.7-3.7,4.1-4.4   C702,56.2,700.2,57.4,699.1,59.1z" />
	<path display="inline" fill="#437C91" d="M707.6,47.1c0.7-1.6,0.9-3.6,2.8-4.8C709.6,46.2,709.6,46.2,707.6,47.1z" />
	<path display="inline" fill="#396372" d="M730.2,28.9c-0.7,1.6-2.2,1.7-3.5,2.3C724.8,29.8,728.7,28.1,730.2,28.9z" />
	<path display="inline" fill="#25373F" d="M739.4,87.1c-1.2,0.2-2.4,0.5-3.6,0.7c0-0.3,0-0.7,0-1c1.6-0.6,3.2-1.3,4.8-1.9   c0.1,0.2,0.2,0.3,0.3,0.5C740.4,86,739.9,86.6,739.4,87.1z" />
	<path display="inline" fill="#325866" d="M759,76.9c0,0.4,0,0.8,0,1.2c-0.6,0.5-1.3,1-2.1,1.6C756.9,78.1,756.9,78.1,759,76.9z" />
	<path display="inline" fill="#427A8E" d="M715.2,37.5c0.6-0.6,1.3-1.1,2.3-2.1c0.1,1.9-1.2,2-1.6,2.8   C715.6,38,715.4,37.7,715.2,37.5z" />
	<path display="inline" fill="#34687E" d="M735.8,86.8c0,0.3,0,0.7,0,1c-1.4,1.2-1.4,1.2-2.7-0.1C734,87.4,734.9,87.1,735.8,86.8z" />
	<path display="inline" fill="#060D10" d="M700.8,80.6c-3.4-3.2-7-6.4-11.4-7.6c0.5-6.9,10.7,3.3,12.3,5.8   C701.7,79.6,701.8,80.4,700.8,80.6z" />
	<path display="inline" fill="#1A4557" d="M700.8,80.6c1-0.2,0.9-1,0.9-1.8c2.3,3.1,4.5,6.1,6.8,9.2   C705.8,89.1,703.1,82.3,700.8,80.6z" />
	<path display="inline" fill="#16323E" d="M730.4,90.1c-0.9,1.7-2.4,1.2-3.8,1.1C728.5,89.6,728.5,89.6,730.4,90.1z" />
	<path display="inline" fill="#172A33" d="M711.8,99.7c0-0.8-0.1-1.6-0.1-2.5c0.2,0,0.4,0,0.6,0c0.1,0.8,0.1,1.6,0.2,2.5   C712.3,99.7,712.1,99.7,711.8,99.7z" />
	<path display="inline" fill="#5674E4" d="M344.7,411.7c-1.9-2.1-3.7-4.1-5.6-6.2c0.5-2.8,1.6-5.3,3.2-8c2.3,3.5,1.1,8,3,11.8   C345.6,410.1,345.7,411.1,344.7,411.7z" />
	<path display="inline" fill="#171D37" d="M337.4,400.1c0.2-0.3,0.4-0.6,0.7-0.9C337.8,399.5,337.6,399.8,337.4,400.1z" />
	<path display="inline" fill="#323535" d="M611.5,99.5c-0.5-0.1-1-0.2-2.3-0.5c0.7-0.7,1.1-1.1,1.8-1.8   C611.2,98.5,611.3,99,611.5,99.5L611.5,99.5z" />
	<path display="inline" fill="#29272C" d="M428.7,207.7c-2.6-1-3.7-3.5-5.1-5.6c0.3-0.7,0.5-1.5,0.9-2.6   C427.4,201.7,427.5,204.6,428.7,207.7z" />
	<path display="inline" fill="#634D48" d="M276.8,449.5c0.9-1.6,1.7-3.1,4-3.4C280.4,448.5,279.7,448.8,276.8,449.5z" />
	<path display="inline" fill="#463935" d="M297.7,438.1c-1.3,1.8-2.3,2.7-4.4,1.9C294.8,439.2,295.1,437.1,297.7,438.1z" />
	<path display="inline" fill="#301C1B" d="M286.4,442.3c1-0.6,1.9-1.2,3.1-1.9c-0.2,1.6-0.2,1.6-2.1,2.8   C287.1,442.9,286.7,442.6,286.4,442.3z" />
	<path display="inline" fill="#9B887D" d="M300.8,435.1c0.3,0.3,0.5,0.5,0.8,0.8c-0.9,0.6-1.8,1.3-2.9,2   C298.3,435.8,299.8,435.6,300.8,435.1z" />
	<path display="inline" fill="#655650" d="M286.4,442.3c0.3,0.3,0.7,0.6,1,0.9c-0.7,0.9-1.6,1.2-2.9,0.2   C285.2,443,285.8,442.6,286.4,442.3z" />
</g>
</svg>