<?xml version='1.0' encoding='utf-8'?>
<svg xmlns="http://www.w3.org/2000/svg" version="1.2" baseProfile="tiny" id="Layer_2_00000036934685902163878490000007289907189001526673_" x="0px" y="0px" viewBox="0 0 900 600" overflow="visible" xml:space="preserve">
<g id="a">
	<path d="M429.8,163.5c0.5-3.9-1.1-3.1-4.1-3.1c-0.2,0.5-0.4,1-0.7,1.9c-1-0.9-1.8-1.7-2.7-2.5c-0.6,0-1.2-0.1-2-0.1   c-0.3,0.3-0.6,0.7-0.8,1c-2.4-0.1-2.1-4.8-4.2-4.1c0.3,0.7,0.7,1.5,1,2.3c-2.2,2-3.1-2.7-5.1-3.2c-0.2,0.4-0.3,0.7-0.6,1.3   c-2.3,0.1-2.6-2.6-4.6-3.1c-1.1-1.6-2.1-3.7-2.5-5.8c0.3-0.6,0.3-0.6-0.5-1.4c-0.1,0.5-0.2,0.8-0.3,1.2c-3.8-0.4-3.5-4.4-3.9-7.3   c1-0.4,1.3-4.5,0.1-4.5c-0.1,0.3-0.2,0.6-0.3,0.9c-0.4,0-0.9,0.1-1.3,0.1c-1-3.4-0.1-6,0-9.6c-0.7,0.4-1.2,0.7-1.9,1.1   c-1.9-2.9,0-6.1-0.1-9.3c0.9-0.6,1.2-1.5,1.3-3.1c-0.9,1.1-1.4,1.7-1.9,2.4c-1.4-3.9,1.6-6.7,3.1-10.2c0-0.1-0.1-0.5-0.2-1   c0.5-0.8,1-1.7,1.5-2.6c-0.5-0.4-0.9-0.8-1.5-1.4c0.7-1.4,1.4-2.8,2.1-4.2c1.2-0.4,2.4-0.8,3.6-1.2c-0.6-0.4-1.1-0.7-1.6-1.1   c0.1-1.1,1-1.2,1.7-1.5c1.6,0.6,2.4-0.5,3.5-1.3c-0.3-0.4-0.5-0.6-0.7-0.8c-0.1-0.4-0.1-0.9-0.2-1.3c2.3-3.1,2.9-0.3,3.8-2.1   c-0.5-0.4-1-0.8-1.8-1.3c0.3-0.6,0.6-1.2,0.8-1.5c2.7-0.5,5.1-1,7.2-1.4c1.7-1.5,0.6-4.4,4-2.5c0.8,0.3,1.6,0,2.1-0.7   c2.1-1.9,4.6-2.2,7.4-1.8c0.1-0.1,0.3-0.4,0.6-0.7c2-0.6,3.6-0.1,4.8,1.6c3.5-0.3,7.4-3.8,10.7-1.7c-0.1,0.3-0.1,0.6-0.2,1.1   c-0.7,0.2-1.5,0.4-2.4,0.6c2.2,2.6,6.2-3.6,11.5-1.4c-0.9,1.6-2.3,0.7-3.2,2.4c4.3,1.5,9.6-0.4,13.1,3.4c-0.2,0.5-0.3,0.9-0.5,1.3   c-0.8-0.1-1.7-0.2-2.6-0.3c0,0.4,0,0.7,0,1.2c0.9,0,1.8,0,2.6,0c2.2,1.4,4.3,2.8,7.1,4.5c-0.5,2.2,3.3,4,3.3,6.7   c-0.5,0.2-0.9,0.4-1.4,0.7c0.4,0.9,0.8,1.8,1.3,2.7c-0.3,0.4-0.6,0.9-1,1.5c0.5,0.4,1,0.9,1.7,1.6c0,1.6,0,3.2,0,4.9   c-2.4,1.9,1.1,6.3-3.3,6.4c1.2,2.3-0.6,4.2-0.7,6.4c-1.2,0-1.9,0.2-2.9,0.7c-4.6-7.8-3.4-7.4-11.9-6.7c-6.7-1.7-15,2.5-18.2,8.7   c-1.4,0.5-1.4,0.5-0.6,2.1c-0.5,3.2-0.6,6.6-2.9,9.2c-0.2,0.6,1.1,1.1,0.2,1.8c-0.6-0.1-1.2-0.2-1.5,0.6c-0.5,0-1,0.1-1.5,0.1l0,0   c-0.5-1-0.9-2-1.4-3c2-14.2,14.1-24.7,28.8-23c-14.7-9.5-30.7,6.8-31.3,21.7c0.2,0.3,0.4,0.5,0.6,0.8c-2.6,2.4-2,5.1-1.4,8.2l0-0.1   c-1.6,2.5,2.8,4.4,4.1,6.3c0.3,5.7-1,11.1-0.7,16.9C429.3,166.9,430.1,164.9,429.8,163.5z M399,108.1c1.2-0.4,1.7-0.6,1.3-1.3   C399.4,106.8,399.6,107.1,399,108.1z" />
	<path fill="#020101" d="M454.5,183.4c45.4,16.2,38.9,22.3,39.2,67.5c5.9,26.5,10.5,54.3,6.3,81.2c-2.4-15.3,0.4-30.7-1.5-46   c-2.2-13.8-7.2-27-6.7-41.2c-2,0.9-2.7,3.1-4.6,3.7c-1.7,0.3-2.8,1.3-4.3,2.3c0,11.5-6.7,22.7-4.8,34c1.3,14.3,8.8,26.7,12.1,40.5   c1.3,2.7,0.2,8.1,3.5,8.8c0.9,8.8-4.2,16.5,0.2,24.2c-0.5,1.3-0.9-0.6-1.4-0.1c0,0.8-0.4,1.8,0.7,2.3c4,31.6,0.7,63.7,0,95.4   c-3.7-17.5-0.6-36.4,0.1-54.4c-0.1-23.4-2.2-47-8-69.6c-28.2,10.6-58.1-1.9-87,0.8c-2.7,6.4-1.1,12,3.6,16.7   c-0.2,0.3-0.5,0.5-0.7,0.8c-2.7-3.1-9.4-9.3-9.4-13.2c0.7-1-0.5-1.4-0.5-2.2c0.3-0.3,0.7-0.7,1-1.1c1.6-24.3,5.8-48.5,7.9-73.5   c3.4-10.9,4.4-22.3,4.9-33.7c0.1-2.7-0.4-5.7,2.3-7.4c0.3,0.4,0.6,0.8,0.9,1.3c7.5-10.2,10.5-24.1,5.2-36   c-8.4,5.7-20.4,5.6-25.4,15.4c-6.2,9.4,0.7,21.2-3.3,31.2c-1.2,11-3.8,21.9-3.6,33c-1.3,13.1-7.4,25.6-3.7,39.1   c2,13.7,6.8,28,5.8,41.6c-6-16.1-5.3-34.5-8.7-51.5c-0.9-7.4,1.8-14.6,3.7-21.6c1.7-13.2,1.3-26.7,4.7-39.8   c2.3-14.8-3.8-37.1,15.2-42.6c9.4-1.1,15-9.6,23.9-11.6c0.3,0.2,0.6,0.5,0.8,0.7c-0.5,0.4-1,0.9-1.6,1.5   c3.9,17.1,16,32.6,34.9,32.5c0.5-0.4,1-0.8,1.5-1.2c0.2,0.4,0.3,0.8,0.5,1.3c3.3,0,6.6,0,9.8,0c-0.2,0.1-0.2,0.3-0.2,0.5   c-23.7,7.5-43.5-10.3-48.4-32.7c-1.8,0.7-3.2,1.6-4.2,3.2c6.5,13.5,2.6,31-8.3,41c-1.8,56.8,23.7,34.6-7.7,105.7   c28.5-1.1,58.5,9.8,85.8-1c-16-51.8-12.8-30.8-4.1-80.2c14.8-5.7,11.7-19.5,6-31c0.2-0.4,0.4-0.9,0.6-1.3c1.2,2,2.4,4,3.6,6   c-0.1,1-0.2,2,1.1,2.4c-0.1-13.4-4.1-29.4-19.6-31.6c3.5,3.3,5.4,6.7,7.6,10.8c-0.3,0.3-0.5,0.5-0.8,0.8   c-4.6-5.2-7.8-11.3-13.8-15.3c1.8,7,11.5,17.1,2.9,22.8c-0.2-0.1-0.4-0.1-0.7-0.1c-0.2-1.8,1.6-2.3,2.5-3.3   c-0.9-7.2-3.8-14.4-8.1-20.3c-3.7-0.8-6.7-2.5-9.6-5.2C453.6,183.8,454.1,183.6,454.5,183.4z M478.2,295.3   c-1.1-4.4-0.6-8.2-2.6-12.5c1,22.2,13.4,41.7,15.3,64.3C494.4,329.6,481.8,312.2,478.2,295.3z M394.4,337.7   c12.2-33.7,27.4-51.9,11.2-88.7c-4.7,12.3-5.4,24.9-5.6,37.8C398.6,304,393.2,320.3,394.4,337.7z" />
	<path fill="#020101" d="M430.6,445.4c-2.8,8.2-4.1,17.9-9.4,24.8c-3.5,9-0.9,19.1-4.7,28.3c-2.9,6.6-16.3,57-7.2,57.4   c1.7,8.8,7.3,15.9,11,23.9c5.1,6.1,8.5,8.8,5.2,17.3c-11.2,3.5-23.6,3.8-35,0.8c-0.3-1.1-0.7-2.3-1.2-3.7c-2-0.4-4.2-0.9-6.2-1.3   c-2.1-4.5,2.3-9.7,1.7-14.6c0.5-4.6-2.8-11.4,2.7-13.7c4.6-27.2-4.1-54.6-0.5-81.9c19.2-58.6,13.3-36.8,8.5-98   c-0.4-0.5-0.8-1-1.3-1.5c0.3-0.4,0.6-0.8,1.1-1.3c-0.1-0.3-0.7-0.9,0.2-1.4c1,1.1,1.7,2.5,3.1,3.2c0.5-0.5,0.2-1.1,0.3-1.7   c0.2-0.3,0.5-0.5,0.7-0.8c0.4,0,0.8-0.1,1.3-0.1c0.3-4.4-2-8.3-2.5-12.7c-1.4-3.6-0.1-7.8-1.5-11.1c0.2-0.4,0.5-0.9,0.7-1.3l0,0   c0,0.6,0,1.2,0.7,1.4l0,0c0.1,0.7-0.1,1.5,0.7,2c1,2.6,0.1,5.7,2.2,7.9c-2.8,5.9,5.6,15.2-2.9,18.8c-0.4,24.4,9.6,49.4-1,72.7   c-3.8,7.9-6.7,16.1-7.8,24.8c-3.7,17.5,0.1,35.3,1.4,52.8c0.2,6.8-0.1,13.6-0.5,20.4c0,0.7,0.3,0.7,0.9,0.7   c0.6-2.1,1.1-4.3,1.7-6.5c2.5-1.9,5.3-2.2,8.3-3c0.5,0.6,1,1.2,1.6,1.8c1.7-17.4,5.5-34.3,11.3-50.9c3.6-8.9,1.4-18.7,3.8-27.8   c4.6-9.1,8-18.6,11.6-28.1c0.2,0,0.5,0,0.7,0l0,0C430.6,443.9,430.6,444.7,430.6,445.4z M412.1,597.2c4.1-0.5,7.7,0.2,11.7-2   c-3.1-0.3-5.8-0.5-8.1-0.8c-1.4,0.9-4.4,3.1-4.1,0.1c0.9-0.5,1.7-1.1,2.9-1.8c3,0.2,6.4,0.4,9.8,0.6c0.8-2.9,1.2-5.6-1.5-7.7   c-6.8-7.9-11.9-18.2-14.9-28.2c-3-1.6-4.6-4.5-7-6.9c-2.1,0.2-3.9,1-5.6,1.7c-0.8,5.5-2.2,10.7-5.1,15.3c-1.5,0.3-2.2-0.1-3.5-1.1   c-0.2,8.3,0.7,16.1-2.3,24.3c1.4,0.3,2.9,0.5,4.2,0.8c0.9-0.8-0.1-2.3,1.6-2.7c1.3,2.2,0.8,5,1.9,7.4   C398.4,598,405.7,598.8,412.1,597.2z M391.1,559.4c-1.8,1.9-1.8,3.2-1.1,5.1C391.2,563,391.3,561.6,391.1,559.4z" />
	<path fill="#020101" d="M492.5,445.8c5,32.7,4.4,65.8,2.9,99c1,0.2,1.9,0.4,2.7,0.5c2,2.6,1.9,5.6,2.3,8.8   c5.5,6.1,9.8,15.1,17.4,18.7c2.8,1.2,6.2,2.1,6.4,5.6c8.6,16.2-29.9,14.6-36.8,7.4c-4,2.2-16.2,1.5-18-3.4c3.6-5.1,3-11,2.6-16.9   c-0.2-4.4,2.9-8.4,2.1-12.8c2-1.2,2-1.2,4.4-0.8c-1.4-12.9-1.8-26.9-6.4-39.3c-3.6-9.6-7.2-19.5-7.8-29.8   c-0.1-8.6,1.3-17.2,1.4-25.7c-0.3-7.8-6.2-16.4-3.9-24c1.8,9.9,6.9,19.9,5.9,30c-1.5,8.2-1.7,16.4-0.6,24.7   c1.5,13.2,8.5,24.8,10.4,37.8c1.1,8,1.9,16.2,3.4,24.1c1.9,0.6,3.7,1,5.6,0c1.9-4,2.8-3.5,6.5-5.4c-1-14.5,2.1-29,1.5-43.6   C495.5,482.3,490.2,463.9,492.5,445.8z M500.1,559.2c0.6,0.2,0.9-0.1,1.1-0.6c-4.5-0.1-9.7,1-13.4,3.4c-3.2-4.9,8.3-4.5,11.1-5.5   c-0.8-2.9-0.7-5.8-1.9-8.5c-11.8-5.4-6.5,13.9-17,11c-1.6-1.9-1.3-4.8-3.5-5.9c-3.7,10-0.6,20.3-4.9,29.9c4.1,0.8,8.5,2.7,12.7,1.7   c2.2-0.8,4.1-0.4,6.2,0.6c9.8,4.9,24.3,5.4,33.2-1.1c-2.5-13.6-8.6-5-20.2-23.1c-4.1,0.4-8,1.3-11.4,4.1   C489,560.8,497.7,560.7,500.1,559.2z M481,552c0,1.8-1.1,3.6,0.8,5.1c2.3-0.1,3.8-2.4,4.3-4.7C484.4,552.2,482.8,552.1,481,552z" />
	<path fill="#030302" d="M462,433c-0.7,0.8-0.9,1.8-0.8,2.8c-5.1-17.5-11.2-34.8-15.2-52.7c-4.3,18.2-7,37.3-12.7,55.3   c-0.8,0.3-0.7,0.9-0.6,1.6c0,0.7-1.2,0.9-0.8,1.8l0,0c-0.7,0.2-0.8,0.7-0.7,1.3l0,0c-0.2,0-0.5,0-0.7,0l0,0   c-0.6-1.7,1.1-2.6,0.7-4.1l0,0c0.7-0.2,0.8-0.7,0.7-1.3c3.6-14.5,6.8-30.2,9.9-45.2c3.3-12.9,2.4-27.6,9.2-39.3   C442.6,381.3,455.4,405.3,462,433z" />
	<path fill="#110E0D" d="M500,332.1c1.9-4.5,0-10.8,0.8-15.9c0.6,13.8,0.6,27.1,8,39.4c-1.4,4-2,9-1.5,11.6   c-2.4,5.4-10.5,18.8-12.1,5.2l0,0c0.2,0,0.5,0,0.7,0l0,0c-0.1,1,0.4,1.4,1.3,1.4c0.2,0.2,0.4,0.5,0.7,0.7c-0.3,1.1-1,1.9,0.2,2.7   c0.8-3.2,0.9-6.4,3.7-8.9c1,2.8-2.1,3.7-1.6,7c5.3-5.9,5.8-13.1,6.3-20.5C502.8,347.4,500,340.3,500,332.1z" />
	<path fill="#1A1514" d="M468.1,124.2c0.5-0.2,1-0.4,1.4-0.6c1.5,5.2,2.2,10.8,3,15.9c-0.3,0.2-0.8,0.4-1.2,0.7   c0.1,0.3,0.3,0.5,0.5,0.9c-0.3,0.3-0.6,0.6-1,0.8c-1.6,0.2-3-0.2-4-1.4c-0.2-0.5,0-1.1-0.7-1.3c-0.2-0.3-0.5-0.5-0.7-0.8   c0.7-2.1,3.4-1.2,5.1-1.5c1-3.7-3.3-0.8-5-1.5c0.7-2.4,3.2-1.8,4.6-2.9C470.3,129.7,468.6,127,468.1,124.2z" />
	<path fill="#0F0D0C" d="M391.6,380.6c-5.7-3.1-7.6-10.2-8.9-16.2c0.3-0.7-0.3-1.8,0.8-2.3c0.4,0.5,0.9,1,1.3,1.5   c0,0.4,0.1,0.8,0.1,1.2c0.2,0.2,0.4,0.5,0.7,0.7c0,0.2,0,0.5,0,0.7c-1.6,1.7,0,3.7,1.2,5.7c0.4-2.4-1.1-3.9-1.2-5.7   c0.2,0,0.5,0,0.7,0c2.8,4.7,1.2,10.2,6.1,13.7C392.1,380.1,391.9,380.3,391.6,380.6z" />
	<path fill="#463733" d="M470.2,152.9c-0.7,4.5-1.9,8.9-4.3,12.9c-0.3,0-0.5,0-0.8,0c0.2-0.6,0.3-1.2,0.5-1.7c-3.7,0.8-7,0-9.9-2.3   c2.7-0.7,5.6,2.5,8.8,1.1c0.6-0.8,1.1-1.6,1.6-2.3c0.5,0,1,0.6,1.1-0.4c-0.9-0.9-2.1-1.3-3.4-1.2c0.6-0.3,1.2-0.6,1.9-0.9   c-0.3-0.7-0.5-1.1-0.4-1.8c0.8,0.8,1.6,1.6,2.5,2.5c0.5-3.2,1-5.9,2.2-8.8C470.1,150.9,470.1,151.9,470.2,152.9z" />
	<path fill="#25201F" d="M383.5,362.1c-1.1,0.5-0.5,1.5-0.8,2.3c-2.3-7-0.6-14.2-0.5-21.4C385,348.6,382.4,355.8,383.5,362.1z" />
	<path fill="#251D1B" d="M391.6,380.6c0.3-0.2,0.5-0.5,0.8-0.7c0.6,0.4,1.2,0.7,2.2,1.4c-3-6.2-4-11.5-7-17.4   c6.7,3.8,3.8,11.5,8,16.8c-0.9,0.5-0.3,1.1-0.2,1.4c-0.4,0.5-0.7,0.9-1.1,1.3C393.5,382.3,392.5,381.4,391.6,380.6z" />
	<path fill="#1E1A18" d="M423,178.7c-0.3-0.2-0.6-0.5-0.8-0.7c5.5-2.5,6.4-9.2,7.6-14.4c0.3,1.4-0.5,3.3,0.7,4.3   C429.4,171.8,427.8,178.1,423,178.7z" />
	<path fill="#494341" d="M465.1,165.7c0.3,0,0.5,0,0.8,0c-2.1,5-6.4,6.2-11.5,6.2c0.2-0.4,0.4-0.9,0.6-1.3   C459.4,171,462.9,169.6,465.1,165.7z" />
	<path fill="#3F3A37" d="M470.1,150.8c-0.2-3,0.4-6-0.8-8.8c0.5,0,1,0,1.4,0c0.9,3,0.9,5.9-0.1,8.9   C470.5,150.9,470.3,150.9,470.1,150.8z" />
	<path fill="#28211F" d="M454.5,183.4c-0.5,0.2-0.9,0.3-1.6,0.6c0.9,0.7,1.5,1.2,2.1,1.7c-1-0.4-1.1,0.6-1.8,1   c-0.5-1.3-1.2-2.5-0.8-3.9c1.8-1.9-0.4-5.4,1.3-7.5C454.1,177.9,452.8,181.3,454.5,183.4z" />
	<path fill="#28211F" d="M455.1,170.7c-0.7,1.3-0.9,2.7-1.3,4.1c0.5-3.1-2.8-4-4.8-5.6c0.2-0.2,0.5-0.4,0.7-0.7   c0.7,0.2,1.3,0.5,2,0.7C452.4,170.3,454,170,455.1,170.7z" />
	<path fill="#020101" d="M453.1,171.9c1.3,1.4,0.7,3.3,0,4.8c-0.4,1.9,0.7,4.6-0.7,6.1c0-2.7,0.1-5.4,0.1-8.2   C453.6,174,452.7,172.9,453.1,171.9z" />
	<path fill="#483C3A" d="M495.3,372.3c0.2,0.9,0.4,1.9,0.7,2.8c-1.5,1.2-0.3,4.3-0.7,6.1c-1.3-2.6-0.3-6-0.6-9   C494.8,372.3,495.1,372.3,495.3,372.3z" />
	<path fill="#3C4040" d="M405.9,92c0.1,0.4,0.1,0.9,0.2,1.3c-0.9,0.6-1.9,1.1-2.8,1.7C401.7,93.4,404.9,92.8,405.9,92z" />
	<path fill="#B0BABA" d="M446.2,81.5c-1.7,1.3-1.7,1.3-3.2,0.1c0.9-0.2,1.7-0.4,2.4-0.6c0.1-0.4,0.2-0.7,0.2-1.1   C446.5,80.2,446.3,80.9,446.2,81.5z" />
	<path fill="#BDC7C7" d="M403.2,95c0.9-0.6,1.9-1.1,2.8-1.7c0.2,0.2,0.4,0.5,0.7,0.8c-1.1,0.9-1.9,2-3.5,1.3   C403.2,95.4,403.2,95.2,403.2,95z" />
	<path fill="#D3D8D8" d="M398.4,137.1c0.1-0.3,0.2-0.6,0.3-0.9c1.2,0,0.9,4.1-0.1,4.5C398.5,139.4,398.4,138.2,398.4,137.1z" />
	<path fill="#545C5C" d="M416.2,158.9c-0.3-0.8-0.7-1.5-1-2.3c1.4-0.9,1.6,1.7,2.3,2.4C417.1,159,416.6,159,416.2,158.9z" />
	<path fill="#D1DDDD" d="M463.9,88.1c-0.9,0-1.7,0-2.6,0c0-0.4,0-0.7,0-1.2c0.9,0.1,1.8,0.2,2.6,0.3   C463.9,87.5,463.9,87.8,463.9,88.1z" />
	<path fill="#3D3D3D" d="M394.5,118.7c0.5-0.6,1-1.3,1.9-2.4c0,1.6-0.4,2.5-1.3,3.1C394.9,119.2,394.7,119,394.5,118.7z" />
	<path fill="#6B7474" d="M398.4,137.1c0,0.6,0,1.3,0.1,1.9c-1.8,0.6-1.3-0.7-1.3-1.8C397.5,137.2,398,137.1,398.4,137.1z" />
	<path fill="#F7EFD0" d="M409.3,555.9c-0.9-0.2-2,0-2.6-0.9C407.7,555.1,409.2,554.6,409.3,555.9z" />
	<path fill="#B28C7D" d="M470.1,150.8c0.2,0.1,0.4,0.1,0.6,0c0.1,0.7,0.1,1.5-0.5,2C470.2,152.2,470.1,151.5,470.1,150.8z" />
	<path fill="#768282" d="M402.5,147.9c0.1-0.4,0.2-0.8,0.3-1.2c0.8,0.8,0.8,0.8,0.5,1.4C403,148,402.8,148,402.5,147.9z" />
	<path fill="#302826" d="M430.5,443.2c0.2,0,0.5,0,0.7,0c-0.2,0.7-0.4,1.4-0.6,2.2C430.6,444.7,430.6,443.9,430.5,443.2z" />
	<path fill="#302826" d="M432.7,440c-0.2-0.7-0.2-1.3,0.6-1.6C433.1,439,432.9,439.5,432.7,440z" />
	<path fill="#302826" d="M431.9,441.9c-0.1-0.6,0-1.1,0.6-1.4C432.4,440.9,432.1,441.4,431.9,441.9z" />
	<path fill="#302826" d="M431.2,443.2c-0.1-0.6,0-1.1,0.7-1.3C431.7,442.3,431.5,442.8,431.2,443.2z" />
	<path fill="#1E1A18" d="M428.3,160.5c0.7-0.2,1.4-0.2,1.5,0.8C429.3,161,428.8,160.7,428.3,160.5z" />
	<path fill="#B0BABA" d="M447.6,80.6c-0.2,0.1-0.5,0.3-0.7,0.4C447.1,80.9,447.4,80.8,447.6,80.6z" />
	<path fill="#B28C7D" d="M455.1,170.7c-0.7-0.3-1.4-0.5-2-0.8c-0.2-0.7-0.8-0.7-1.3-0.7c-1.6-2.1-3.6-3.5-6.2-4l0,0   c-1.8-2.5-5.1-2.9-7.4-4.9l0,0c-2.6-2.4-4.2-5.9-4.2-9.5c-0.9-1.1-1.5-2.5-1.2-4c0.6-0.5,0.3-1,0-1.4c-1.3-1.2-0.1-3.1-1.3-4.2   c-0.5-1.1-0.5-1.1,0.5-1.2c0.6,0.8,1,0.7,1.5-0.1l0,0c0.6,0.1,1.2,0.1,1.5-0.6c0.8-0.7-0.4-1.1-0.2-1.8c2.3-2.7,2.4-6,2.9-9.2   c1.5-6.5,9.1-11,15.5-11.4c2,0.3,4.6,1.2,6.5,0.4c7-2.2,10.1,10,10.6,15.3c-1.4,1.1-3.9,0.5-4.6,2.9c1.8,0.7,6-2.2,5,1.5   c-1.7,0.3-4.4-0.6-5.1,1.5c-0.2,0.1-0.4,0.2-0.5,0.3c-0.1-0.5-0.3-0.9-0.5-1.6c-2.2,3.1-2.4,4.5-0.6,6.6c0.2-0.8,0.4-1.6,0.5-2.4   c1,0.2,1.7,0.8,2.4-0.2c0-0.2,0-0.4,0-0.7c0.8,0.6,1.5,1.5,2.6,1.4c2.2,5.8-0.8,11-1.5,16.8c-2.7-4.3-9-3.2-12.2,0.1   c-1.6-0.7-1.6-0.7-2.6,0.7c0.4,1.2,1.3,0.6,2.1,0.7c0.8,3.7,7.1,4.5,10.5,3.8C464.4,168.9,459.8,171.1,455.1,170.7z M446.2,141.2   c2.7,2,6.7,0.6,10,0.6c0.1-6.2-7.7-5-11.3-3.3C445.3,139.4,445.8,140.3,446.2,141.2z M456.4,152.8c1,1.6,4.3,0.2,4.8-1.1   c-0.5-0.2-1.1-0.5-1.5-0.7c-1,0.4-1.8,0.7-2.6,1.1c-0.1-0.9-0.2-1.8-0.3-2.7C455.3,150.3,455.6,151.7,456.4,152.8z M447.7,134.1   c3.2,0.3,6.3,0.4,9.1,1.7c0.4,0.2,1.1,0.3,1.3-0.5c-3.9-3.3-10.3-3.4-14.6-0.2C445.3,135.5,446.5,134.4,447.7,134.1z M466.3,152.8   c2.8-2.1-0.3-4.3-1.7-6.2c-0.5,1.8,1.2,2.5,1.4,3.8c-1.1,0.9-2.2,1.3-2.7,2.8C464.5,153,465.4,152.9,466.3,152.8z" />
	<path fill="#977264" d="M440.1,161.7c1.9,1.1,4.1,1.6,5.4,3.5c-0.3,0.1-0.6,0.1-1.2,0.2c2.4,2.8,5.9,4.3,8.8,6.5   c-1.4,3.7-0.2,8.2-0.8,12.3c-7.2-4.1-12-10.7-16.9-17.1c0,2,0,3.5,0,5.1c-4.1,3.9-4.2,10.2-9.4,13c-1.2,0.6-1.6,1.8-1.5,3.2   c-1.5-2.6-1.9-5.4-3-8.2c10.7-4.7,9.7-17.7,9.9-27.9c0.3,0,0.6,0.1,1,0.1c0.6,3.1,2.3,7.2,5.8,7.9l0,0   C437.7,161.4,439.6,163.3,440.1,161.7z" />
	<path fill="#92909F" d="M433.9,120c5.1-7.5,17.6-11.8,25.4-5.9c-8.4-0.2-17.6,1.5-22.6,8.8C435.7,121.9,434.8,120.9,433.9,120z" />
	<path fill="#8C868F" d="M433.9,120c0.9,1,1.8,1.9,2.7,2.9c-2.7,4.5-5.6,8.9-6.2,14.2c-1-0.3-2.1-0.3-2.5-1.3   C429,130.2,430.1,124.4,433.9,120z" />
	<path fill="#362622" d="M431.9,142.7c-0.7,1.6,1.8,2.8,0.8,4.1c-0.8-0.2-1.6-0.4-2.2-0.6c0,1.4,0,2.7,0,3.9   c-0.4-0.5-0.8-0.9-1.3-1.4c0.8-1.4-1.5-2.8-2-4.2l0,0.1c1.3-0.9,0.6-3.5,2.8-3.4l0,0c-0.3,1-1.2,1.8-0.9,2.9   c0.3,0.2,0.7,0.4,1.1,0.6c0.3-0.8,0.5-1.3,0.8-2C431.2,142.7,431.5,142.7,431.9,142.7z" />
	<path fill="#281D19" d="M435.2,158.4c-2-1.5-2.4-3.7-2.9-5.9c-0.3,0-0.7-0.1-1-0.1c-0.1-0.5-0.1-0.9-0.2-1.4   c0.7-0.3,1.4-0.6,2.1-0.8c1.1,2.5,1.2,5.7,2.8,8.2C435.8,158.3,435.5,158.3,435.2,158.4z" />
	<path fill="#3D352F" d="M428.5,136.5c0.6,0.2,1.3,0.4,1.9,0.5c0.5,1,0.9,2,1.4,3c-1,0.1-1,0.1-0.5,1.2c-0.5,1-1,0.1-1.5,0l0,0   c0.1-1.6-1.6-2.1-2.8-2.8C427.5,137.8,428,137.1,428.5,136.5z" />
	<path fill="#7E6054" d="M427.1,138.4c1.2,0.7,2.9,1.2,2.8,2.8c-2.2-0.1-1.5,2.5-2.8,3.4C427.1,142.6,425.6,140.3,427.1,138.4z    M427.5,140.8l-0.1,0.2l0.2,0L427.5,140.8z" />
	<path fill="#8C6A5D" d="M433.3,150.1c-0.7,0.3-1.4,0.6-2.1,0.8c-0.3-0.2-0.5-0.5-0.8-0.7c0-1.3,0-2.5,0-3.9   c0.6,0.2,1.4,0.4,2.2,0.6C432.5,148,432.6,149.1,433.3,150.1z" />
	<path fill="#634B41" d="M427.1,144.6c0.6,1.4,2.8,2.7,2,4.2C428,147.9,425.8,146.1,427.1,144.6z" />
	<path fill="#1E1A18" d="M431.2,156.9c-0.2,2.8,0.5,5.7-0.6,8.3C430.9,162.5,429.9,159.4,431.2,156.9z" />
	<path fill="#67574E" d="M438,126.2c0,0.8,0.3,1.6-0.6,2.1C436.6,126.7,436.6,126.7,438,126.2z" />
	<path fill="#707878" d="M399,108.1c0.7-1,0.5-1.3,1.3-1.3C400.6,107.4,400.1,107.7,399,108.1z" />
	<path fill="#3D352F" d="M434.7,139.3c-0.3,0.7-0.9,0.7-1.5,0.6C433.5,139.1,434.1,139.2,434.7,139.3z" />
	<path fill="#3D352F" d="M433.3,139.9c-0.4,0.7-0.9,0.9-1.4,0.1C432.3,140,432.8,139.9,433.3,139.9z" />
	<path fill="#3D352F" d="M427.9,135.7c0.2,0.3,0.4,0.5,0.6,0.8C428.3,136.2,428.1,136,427.9,135.7z" />
	<path fill="#EAA388" d="M451,353.3c-5.2,6.9-4.4,15.9-6.4,23.9c-3.6,20.3-7.9,40.5-12.7,60.5c-0.6,0.3-0.8,0.7-0.7,1.3l0,0   c-3.7,10.7-7.8,21.9-12.9,32.2c-2.4,9.1-0.3,18.8-3.9,27.8c-5.8,16.6-9.6,33.5-11.3,50.9c-0.6-0.7-1.1-1.2-1.6-1.8   c-2.5,0.4-4.6,1.9-7,1.1c0.6-11.2,3.2-21.9,3.3-33.2c-1,1.1-1.7,1.8-2.7,2.8c-1.2-21.6-0.5-42,8.9-62.2c2.9,3,0.7,7.4,4.5,9.4   c3-6.7,0.9-14.7-0.3-21.7c2-15,2.8-30,3.2-45.1c2-22.2-1.2-44.7,4.8-66.6c22.2,2.3,47.2,7.3,69.2-0.6c5.8,22.6,7.9,46.2,8,69.6   c0.2,14.7-4.2,29.3-0.9,44c-2.3,18.2,3,36.5,2.1,54.8c0.6,14.6-2.5,29.1-1.5,43.6c-3.7,1.9-4.6,1.4-6.5,5.4   c-1.1-0.1-2.2-0.2-3.5-0.3c-1.6-14,3.5-34.4-4.2-46c-0.5,3.9,0.9,9-0.5,11.7c-3.5-16.2-11.4-33.4-5.2-49.9c2,1.8,2.9,4.1,4.3,5.9   c-1.5,2.5,0.2,4.4,2,6.4c0-1.2,0-2,0-2.8c2.1,0.8,1.5,2.9,3.5,3.9c0.8-12.1-10.1-20-13-31c-5.5-24.7-4.4-49.6-4-74.5   c-2.5,1.1-2.7,3.8-3.9,5.9c-4-7.9-0.4-21.4-7.1-27.8c0.2-0.8,1.3-1.4,0.5-2.4c-1.4,0.2-1.6,1.7-2.6,2.4   C452.1,351.7,451.3,352.3,451,353.3z M439.4,349.1c0.1,0.1,0.3,0.2,0.4,0.3c-3.2-2.4-6.9-6.1-11.1-6.5   C432.3,344.9,435.5,348.1,439.4,349.1z M418.3,430.2c-1.3-2.4-2.3-4.1-4.8-0.8c-0.9,5.1,4.3,6.5,6,10.3c0.4,0.2,0.8,0.5,1.6,0.9   C420.7,436.8,420.8,433.3,418.3,430.2z M480.2,443.2c1.1,1.7,2.5-1.5,0.8-2c-0.8-0.3-0.7-1.1-0.7-1.7c-0.1-2.4-1.4-4-3.6-4.8   C469,433.6,474.9,444.5,480.2,443.2z M415.7,474.4c-2.1,2.3-3.4,5.5-3.3,9.2C414.4,481.1,416.9,477.2,415.7,474.4z M484.1,438   c2.6-2.2,3.4-4.3,2.8-7.5C485.3,432.8,484.7,435.4,484.1,438z M411,489.3c1.4-2.1,1.5-2.4,0.2-4C410.1,486.6,410.4,487.9,411,489.3   z M481.4,485.2c0.3-2.5-0.1-3.2-2.2-3.7C479.8,482.9,479.9,484.4,481.4,485.2z M409,494.5c-1.4,1.2-1.4,1.4-0.3,3.3   C409.7,496.7,409.7,495.7,409,494.5z M440.3,354.6c0.1-0.2,0.2-0.4,0.3-0.7c-1.8-0.8-2.8-2.1-5-1.8   C437.4,353.4,438.8,354.1,440.3,354.6z M481.6,489.8c0.2-1,0.2-1.7-1-1.9C480.6,488.9,480.8,489,481.6,489.8z M481.7,492.8   c-0.5,0.5-0.9,0.9-0.3,1.3C482.3,493.9,482.3,493.7,481.7,492.8z" />
	<path fill="#F5DDCE" d="M468.7,212.9c8.6-5.7-1.1-15.8-2.9-22.8c11.4,10,25.2,28.7,25.3,44.2c-6.7,9.8-18.3,1.9-27.5,3.2   c-0.7,2,1,3,1.4,4.4c-0.5,0.2-1,0.4-1.5,0.6c0.1,2.3,4.4-0.4,4.6,2.2c3.5,2.9,9.5,1.8,14.1,2.1c0.9-0.2,2.2-1.1,2.9,0   c-1.2,0.8-2.5,1.6-4,2.5c-8.7,49.5-11.9,28.3,4.1,80.2c-21.4,8.5-46,3.7-68.3,1.3c2.2-6.2,1.5-14.5,6.7-19.1   c3.8,4.4,4.5,11.6,9.4,15.5c0.3-13.2-10.3-25.8-9.4-39.4c-1.5-11.7-1.2-38.6,14.1-40.2c3.8-4.7,10.8-2.5,15.2-6.2   c2.4,0,5.1-3.3,4.7-5.8c-12.3,2.1-30.5,2.5-37.4-9.7c-3.3,0.1-6-1.1-8-3.4c-1.3,0.5-1.3,0.5-2.1-0.2c7.8-11.3,11.6-25.6,5.3-38.4   c1-1.7,2.4-2.5,4.2-3.2c3.3,7.6,4.7,16.3,10.6,22.6C440,212.4,455.7,218.7,468.7,212.9z M455.4,277.9c-2.6,7.7-2.2,18.1,0.3,26.2   C455.1,295.2,458.4,286.2,455.4,277.9z M473,322.3c2.4-2.4,3.6-6.2,3-9.1C474.1,315,473.1,319.6,473,322.3z M470,294.8   c0.6-2.1,0.3-4-1.3-6.4C468.6,290.9,469.6,292.8,470,294.8z M468.4,282.8c-2,0.6-1.3,2.6,0.2,3.6   C468.8,284.8,469.2,283.8,468.4,282.8z M471.3,325.4c-1,0.6-1.4,1.1-1,2C471.4,327.2,471.6,326.5,471.3,325.4z M469.1,329.7   c-0.9,0.3-1.5,0.8-1.2,1.9C469,331.2,469.5,330.8,469.1,329.7z M468.5,275.4c-1,1,0,2,0.7,1C469.1,276,468.8,275.8,468.5,275.4z    M468.7,272.2c-0.1-0.2-0.2-0.4-0.2-0.6c-0.5,0.2-0.4,0.5-0.2,0.9C468.4,272.4,468.6,272.3,468.7,272.2z M468.6,281   c-0.1-0.1-0.2-0.3-0.3-0.4c-0.4,0.2-0.1,0.5,0,0.8C468.4,281.2,468.5,281.1,468.6,281z" />
	<path fill="#B28C7D" d="M393.2,375c-0.9-4.4-0.9-8.6-5.5-11.2c1.2,4.2,5,7.8,3.8,12.5c-2.7-3.7-3.5-8.2-6.5-11.5   c-0.7-13.9,1.7-27.7-0.7-41.3c-1.3-16.5-8.2-37.7,1.2-52.6c2,2.6,3.5,7.1,6.8,7.8c0.3-1.8-0.1-4.3-1.8-5.1   c-0.2-0.7-0.5-1.4-0.7-2.1l0,0c1.9-1.2-0.7-2.7-1.4-4c0.1-0.6,0.1-1.2-0.7-1.4l0,0c-4.4-12-0.9-25.6,2-37.7l0,0   c1.1-0.2,2,1.3,3.4,0.3c0.3-4.1-2.7-7.7-2-12c-3.2-8-0.8-16,3.4-23.2c6-3.7,13.2-4.7,19.3-8.8c5.3,11.9,2.3,25.8-5.2,36   c-0.3-0.5-0.6-0.8-0.9-1.3c-2.7,1.7-2.2,4.7-2.3,7.4c-0.5,11.3-1.5,22.8-4.9,33.7c-2.1,25-6.3,49.1-7.9,73.5   c-0.3,0.4-0.7,0.7-1,1.1c0,0.8,1.2,1.1,0.5,2.2c0,3.9,6.7,10.1,9.4,13.2c1.8,5.1,0,11,2.3,15.9c0.5,0.8,0,1.3-0.7,1.6   c-4.2-0.8-2.2-5.7-3.7-8c-0.4-0.9,0.6-2.2-0.8-2.7l0,0c0.1-0.6,0.1-1.2-0.7-1.4l0,0c-0.2-0.2-0.4-0.5-0.6-0.7   c-0.9,0.4-1.1,1.5-0.1,2c0.3,1-0.5,2.1,0.7,2.7c-0.4,5.1,1.5,10,2.2,15c-2.9,0.5-3.5-3.5-3-5.3c-0.9-1.8-1.6-3.3-2.3-4.9   c-0.5,0.1-1,0.1-1.7,0.2c1.9,3.6,2.8,6.8,1.9,10.8C394.1,375.5,393.6,375.2,393.2,375z M390.3,332.3c0.4,0.2,0.7,0.3,1,0.4   C391.8,331.6,391,331.2,390.3,332.3z M391.6,360.8c-0.2,0-0.3,0-0.5,0C391.2,362.1,391.6,362.1,391.6,360.8z" />
	<path fill="#D69479" d="M416.2,332.8c-6,21.9-2.8,44.3-4.8,66.6c-0.4,15-1.1,30.1-3.2,45.1c1.2,7,3.2,15,0.3,21.7   c-3.8-2.1-1.6-6.5-4.5-9.4c-9.5,20.1-10.1,40.5-8.9,62.2c1-1,1.7-1.8,2.7-2.8c-0.1,11.3-2.7,22-3.3,33.2c0.6,0.2,1,0.3,1.4,0.4   c-0.9,0.5-1.7,1-2.6,1.6c-0.6,2.2-1.2,4.3-1.7,6.5c0.1-27.7-7.9-59.9,1.4-88.2c16-27.5,6.3-53.8,5.5-83.3c7.3-3.2,2-11.5,2.1-17.1   c1.7-0.1,3.3,0,4.6-1.2c-0.6-25.8-11.8-18.7-6.8-34.9C404.4,332.6,410.3,331.9,416.2,332.8z" />
	<path fill="#E6CCBB" d="M410,222.3c0.8,0.6,0.8,0.6,2.1,0.2c2.1,2.3,4.7,3.5,8,3.4c6.9,12.2,25.1,11.8,37.4,9.7   c0.4,2.5-2.2,5.8-4.7,5.8c0-0.4,0.1-0.8,0.1-1.2c-1.2-0.2-1.8,0.1-2.2,1.4c0.9-0.1,1.5-0.1,2.1-0.2c-0.8,1.1-2.1,1.1-3.3,1.5   c-9.3-1.7-22.2,3-29.1-6.5c-2.1-2.4-2.3-5.3-5.9-7.3c4.5,12.6,14.2,16.7,26.8,15.9c-1.4,0.6-2.6,0.9-3.7,2.6   c-15.3,1.6-15.6,28.6-14.1,40.2c-0.9,13.6,9.7,26.2,9.4,39.4c-1-0.9-2.1-1.4-2.3-2.8c0.3,0,0.6,0.1,1.2,0.2c-0.4-1.2-0.6-2.1-2-2.8   c0,0.6,0,1,0,1.4c-1.7-2-3-4.7-3.4-7c0.4-0.2,0.7-0.4,1-0.6c-0.3-1-0.2-2-1.8-1.9c0,0.5,0,0.9,0,1.3c-1.1-1-0.9-2.6-2.2-3.3   c-5.2,4.6-4.5,12.9-6.7,19.1c-5.8-0.1-11.6-0.2-17.5-0.3c31.3-71,5.9-48.8,7.7-105.7C408,224,409,223.1,410,222.3z M413.6,224.8   c-1.1,1.5-0.2,2.6,1.1,2.2C414.7,225.9,414.4,225.7,413.6,224.8z M425,309.1c-0.1,0-0.3,0-0.4,0c0,0.5,0,1,0,1.6c0.1,0,0.3,0,0.4,0   C425,310.2,425,309.6,425,309.1z M455,239.1c-0.1-0.2-0.2-0.2-0.4,0C454.7,239.3,454.8,239.3,455,239.1z" />
	<path fill="#B28C7D" d="M500,332.1c0,8.2,2.8,15.3,6.6,22.5c-0.8,5.7-0.1,12.1-4,16.9c-0.2-0.4-0.4-0.9-0.6-1.3   c0-0.2,0.1-0.4,0.1-0.6c0.9-0.5,0.7-1.3,0.6-2.1l0,0c1.8-2.9-0.7-7.3-0.8-10.5c-1-1.1-1.8-2-2.6-3c-5.8,2.3,1.2,7.4-2.9,10.9   c-9.1-14.4,2.2-29.6-4.4-44.3c-0.5,0.1-0.9,0.1-1.3,0.2c-3.2-16.5-12.8-31.8-8.1-49.2c1.2,1.3,2.8,1.2,4.4,1.2   c1.1,1,2.1-1.7,0.1-1.4c-3.9-5.9-3.6-13.7-4.2-20.5c1.4-1,2.6-2,4.3-2.3c1.9-0.6,2.6-2.8,4.6-3.7c-0.5,14.1,4.5,27.4,6.7,41.2   C500.5,301.4,497.7,316.8,500,332.1z M490.7,266.8c1.7-2.2,1.8-3.7,0.5-5.4C490.3,263.4,490.3,263.5,490.7,266.8z M489.4,267.2   c-0.6,1.5-1.3,2.5,0,3.8C490.1,269.7,490.8,268.8,489.4,267.2z" />
	<path fill="#B28C7D" d="M424.4,188.4c-0.1-1.4,0.3-2.5,1.5-3.2c5.2-2.8,5.4-9.1,9.4-13c0-1.5,0-3.1,0-5.1c4.9,6.4,9.7,13,16.9,17.1   c0.3,0.8,0.6,1.6,0.9,2.5c0.7-0.4,0.9-1.4,1.8-1c2.1,2.1,4.9,2.7,7.5,3.5c4.2,5.9,7.1,13.1,8.1,20.3c-0.9,1.1-2.7,1.5-2.5,3.3   l0.1,0c-3.3,0-6.5,0-9.8,0c-0.8-2.1-0.7-4-3-5.4c0.4,2,0.7,3.7,1.1,5.3C441.5,212.4,428.3,202.7,424.4,188.4z M427.7,188.4   c2.8,1.4,3.7,1.5,5.9,0.7C431.6,187.9,429.4,186.8,427.7,188.4z M439.2,190.6c-0.9-1.2-0.9-1.2-2.6-0.2   C437.5,191.2,438.3,191.3,439.2,190.6z M441.6,190.3c0.8,1.1,0.8,1.1,2,0.1C442.8,190.4,442.3,190.4,441.6,190.3z" />
	<path fill="#977264" d="M390.3,277.6c-2.2-1.8-3.4-4.3-5-6.7c-8.7,13.7-3.2,32.4-1.8,47.6c2.9,15,1.2,29.9,1.3,45.1   c-0.4-0.5-0.9-1-1.3-1.5c0.8-20-1.4-39-5.9-58.7c-3.8-17.3,5.1-33.5,4.4-50.9c0.9-11.1,4.9-22.2,4-33.1c-1.2-9.3-0.5-20.5,8.4-25.8   c-4.2,7.2-6.6,15.2-3.4,23.2c-0.7,4.3,2.3,7.9,2,12c-1.4,1-2.3-0.5-3.4-0.3c0-1.2,0-2.4,0-3.5c-0.5-0.5-0.9-0.8-1.3-1.2   c-0.1-0.7,0.2-2.4-1-1.8c-0.5,0.9-0.7,2.1,0.1,2.7c1.4,1.2,0.6,2.8,2.2,3.8c-3,12.1-6.4,25.7-2,37.7   C385.4,269.1,391.8,271.3,390.3,277.6z" />
	<path fill="#977264" d="M487.1,272.8c-1.6,0-3.2,0.1-4.4-1.2c-4.8,17.4,4.9,32.7,8.1,49.2c0.4-0.1,0.7-0.1,1.3-0.2   c2.8,2.9,1.7,7.2,1.9,10.8c-0.4-0.2-0.8-0.3-1.2-0.5c-0.3,0.8-0.2,1.1,0.1,1.8c0.4,0,0.7,0,1.1,0c0,0.5,0,1.1-0.1,1.6   c-3.3-0.7-2.3-6.2-3.5-8.8c-3.3-13.8-10.8-26.2-12.1-40.5c-1.9-5.4,0.8-10.3,1.5-15.6c2-4.9,1.1-10.3,3.2-15.1   c1.4,5.7,0.4,12.3,4.2,17.2C487.1,271.9,487.1,272.4,487.1,272.8z" />
	<path fill="#E6CCBB" d="M472.4,246.2c-1-0.1-2.2,0.5-3-0.5c0.5-0.1,1.1-0.2,1.6-0.3c0-0.1,0-0.3,0-0.4c-0.7-0.1-1.4-0.3-2.1-0.4   c0,0.5,0,0.7,0,0.9c-1.1-0.6-0.8-2.2-2.3-2c-1-1-1.3-1-2.4-0.1c-0.5,0-0.8-0.2-0.7-0.9c0.5-0.2,1-0.4,1.5-0.6   c-0.4-1.4-2.1-2.4-1.4-4.4c9.2-1.2,20.8,6.6,27.5-3.2c0.1-1.2,0.1-2.6,0.2-3.9c2,6.2,0.3,13.8-6.2,16.4c-0.7-1.2-1.9-0.3-2.9,0   c-0.1-0.3-0.2-0.6-0.4-1C478.8,245.8,475,244.6,472.4,246.2z" />
	<path fill="#B08B7C" d="M480.4,204.6c-2.2-4.1-4.1-7.4-7.6-10.8c13.6,1.8,20.9,16.9,18.5,29.2C487.5,216.9,484.3,210.5,480.4,204.6   z" />
	<path fill="#140F0D" d="M494,358.6c0.8,2.2,1.7,4.1,2.4,6.4c4.1-3.5-2.9-8.6,2.9-10.9c3.9,3.1,3.6,8.8,3.5,13.5   c-3.5-2.6,1.1-10.5-4.4-11.1c3.5,6.3,3.8,10.7-1.1,15.9c-0.4,0-0.9,0-1.3,0l0,0c-0.5-4.2,5.2-5.9,3-10.3c-0.3,1.3-0.6,2.7-0.9,4.1   c-0.9,0.3-1.7,1.4-2.7,0.7c0.1-2.3-0.5-4.3-2-6.1c-1.1-0.5-0.7-1.4-0.7-2.3C493.2,358,493.5,359.9,494,358.6z" />
	<path fill="#EEEEEE" d="M487,321.2c1.7,8.4,7.3,17.4,3.9,25.8c-1.6-8.4-3.1-16-4.6-24.2C486.6,322.3,486.8,321.8,487,321.2z" />
	<path fill="#201713" d="M402,349.7c3.2,5.4,1.5,12,3.3,18.2c-1.3,1.2-3,1.1-4.6,1.2c0.2-0.6,0.5-1.1,0.7-1.7c0.5,0.2,1,0.4,1.6,0.6   c0.7-0.4,1.1-0.8,0.7-1.6c-2.3-4.9-0.5-10.8-2.3-15.9C401.5,350.2,401.8,350,402,349.7z" />
	<path fill="#D6D8D8" d="M487,321.2c-0.2,0.5-0.5,1.1-0.7,1.6c-1.9-5.7-4.8-11.2-6.2-17c0.3-0.3,0.5-0.6,0.8-1   C483.2,310.2,485.5,315.6,487,321.2z" />
	<path fill="#2C2623" d="M480.4,204.6c2.5,4.1,5.1,8.1,7.3,12.4c-0.2,0.4-0.4,0.9-0.6,1.3c-2.5-4.3-5.6-8.4-7.5-13   C479.9,205.1,480.1,204.8,480.4,204.6z" />
	<path fill="#BDBDBD" d="M481,304.8c-0.3,0.3-0.5,0.6-0.8,1c-1.4-2.9-2.1-6-2.4-9.1c0.2,0,0.5,0,0.7,0   C479.7,299.2,480.5,302,481,304.8z" />
	<path fill="#D8DADA" d="M495.3,366.9c1,0.7,1.8-0.4,2.7-0.7c0,0.3,0.1,0.5,0.1,0.8c-1,1.8-2,3.5-2.8,5.4c0,0,0,0,0,0   c-0.2,0-0.4,0-0.6,0c-0.1-1.1-0.1-2.1-0.2-3.2C494.9,368.3,494.2,367.3,495.3,366.9z" />
	<path fill="#979999" d="M477.4,295.3c-1.1-2.4-1.3-4.9-1.3-7.5c0.2-0.2,0.5-0.5,0.7-0.7c0.5,2.7,0.9,5.4,1.4,8.1   C478,295.3,477.7,295.3,477.4,295.3z" />
	<path fill="#949595" d="M495.3,366.9c-1.1,0.4-0.5,1.5-0.8,2.2c-1-2.6-0.7-5.5-1.2-8.3C494.9,362.5,495.4,364.6,495.3,366.9z" />
	<path fill="#342723" d="M456.3,212.7c-0.3-1.7-0.7-3.4-1.1-5.3c1.6,1.1,2.4,2.4,2.5,4.1C457.3,211.9,456.8,212.3,456.3,212.7z" />
	<path fill="#5C6060" d="M476.8,287.2c-0.2,0.2-0.5,0.5-0.7,0.7c-1.1-1.4-0.5-3-0.4-5.1C476.5,284.6,477.1,285.8,476.8,287.2z" />
	<path fill="#342622" d="M491.3,223c0.2-0.4,0.5-0.9,0.7-1.3c0.7,1.4,0.7,1.4,0.4,3.8C491,225,491.2,224,491.3,223z" />
	<path fill="#D69479" d="M419.1,333.4c-0.8,0-1.7,0.4-2.2-0.5C417.7,332.7,418.5,332.7,419.1,333.4z" />
	<path fill="#BEC2C2" d="M477.4,295.3c0.3,0,0.6,0,0.8,0c0.1,0.4,0.1,0.9,0.2,1.3c-0.2,0-0.5,0-0.7,0   C477.6,296.2,477.5,295.8,477.4,295.3z" />
	<path fill="#B28C7D" d="M468.7,212.9c-0.3,0.1-0.5,0.3-0.8,0.4c0-0.2,0-0.4,0.2-0.5l-0.1,0C468.3,212.8,468.5,212.8,468.7,212.9z" />
	<path fill="#F7EFD0" d="M390.2,567.8c2.9-4.6,4.4-9.8,5.1-15.3c1.7-0.8,3.5-1.5,5.6-1.7c2.4,2.3,4,5.3,7,6.9   c3,10,8.1,20.3,14.9,28.2c2.1,1.8,2.7,4.1,1.6,6.7c-4.8,0.2-9.4-1.9-13.9,0.5c-4.3,1.8-8.9,0.4-13.3,0.1c-1.1-0.9-3-0.1-3.8-1.5   c-0.4-2.9-0.5-5.7-3.7-6.5C389.4,579.1,389.8,573.5,390.2,567.8z M397.7,568c3-4.6,9.5-3.4,10.4-6.5   C405.1,560,393.1,564.3,397.7,568z M410.1,569.2c-3-0.3-12.1,2.2-9.7,5.6c3.1-1.4,6.2-2.9,9.6-3.9C410,570.5,410,570.1,410.1,569.2   z M409.3,566.7c-3-4.1-13.9,0.4-9.9,5.2C401.4,567.3,404.7,567.8,409.3,566.7z M402.4,578.9c6.6-2.3,7.5-2.7,8.5-4.7   C409.5,572.8,401.1,576.3,402.4,578.9z M413,579.5c-1.4-2.8-7.3,0.3-8.8,1.8c0.3,0.4,0.6,0.7,1,1.1   C407.8,581.5,410.7,581.3,413,579.5z" />
	<path fill="#EADCB7" d="M390.2,567.8c-0.4,5.7-0.8,11.4-0.6,17.3c3.1,0.8,3.2,3.6,3.7,6.5c0.8,1.4,2.7,0.6,3.8,1.5   c4.4,0.2,9,1.7,13.3-0.1c4.6-2.4,9.1-0.2,13.9-0.5c0,0.3-0.1,0.6-0.1,1c-3.4-0.2-6.7-0.4-9.8-0.6c-2,1.2-5.4,2.7-2.3,4.4   c-6.4,1.6-13.8,0.7-20.1-0.9c-1.1-2.3-0.6-5.1-1.9-7.4c-1.7,0.5-0.7,2-1.6,2.7c-1.3-0.2-2.7-0.5-4.2-0.8c2.9-8.2,2.1-15.9,2.3-24.3   C388,567.6,388.7,568,390.2,567.8z" />
	<path fill="#181210" d="M395.2,372.9c0.2-2.8-1-5.2-2.3-7.9c0.7-0.1,1.2-0.1,1.7-0.2c0.8,1.6,1.5,3.1,2.3,4.9   c-0.6,3.8,1.1,8,2.8,11.4c-0.2,0.3-0.5,0.5-0.7,0.8C396.1,379.7,396.5,376,395.2,372.9z" />
	<path fill="#D3D1AE" d="M412.1,597.2c-1-0.8-2.1-1.5-0.5-2.6c-0.3,3,2.7,0.7,4.1-0.1c2.3,0.2,5,0.5,8.1,0.8   C419.9,597.5,416.3,596.7,412.1,597.2z" />
	<path fill="#89685B" d="M395.2,372.9c1.3,3.1,0.9,6.8,3.9,9.1c-0.1,0.6,0.3,1.2-0.3,1.7c-2.8-2-4.9-5.3-5.7-8.7   c0.5,0.2,0.9,0.5,1.7,0.8C395,374.7,395.1,373.8,395.2,372.9z" />
	<path fill="#8B695D" d="M399.8,381.2c-0.9-2.5-2.8-4.7-2.5-7.5c0.7,0.8,1.4,1.7,2.7,1.4c0.8,1.9,1.7,3.8,1.2,6   C400.6,381.1,400.2,381.2,399.8,381.2z" />
	<path fill="#7C5D51" d="M391.1,559.4c0.2,2.2,0.2,3.6-1.1,5.1C389.3,562.7,389.3,561.3,391.1,559.4z" />
	<path fill="#75564C" d="M397.1,357.3c-1-0.5-0.8-1.6,0.1-2c0.2,0.2,0.4,0.5,0.6,0.7C397.6,356.5,397.3,356.9,397.1,357.3z" />
	<path fill="#75564C" d="M398.5,357.4c1.1,0.4,0.8,1.3,0.7,2C398.4,358.9,398.5,358.1,398.5,357.4z" />
	<path fill="#75564C" d="M397.8,360.1c-0.8-0.5-0.6-1.3-0.6-2.1C398,358.5,397.9,359.3,397.8,360.1z" />
	<path fill="#302826" d="M429.9,443.2c0.2-0.5,0.4-1,0.6-1.5c0,0.5,0.1,1,0.1,1.5C430.4,443.2,430.1,443.2,429.9,443.2z" />
	<path fill="#75564C" d="M397.8,356c0.8,0.2,0.8,0.7,0.7,1.4C397.7,357.2,397.7,356.6,397.8,356z" />
	<path fill="#75564C" d="M399.2,360c0.7,0.3,0.7,0.9,0.5,1.5C399.6,361,399.4,360.5,399.2,360z" />
	<path fill="#D69479" d="M451,353.3c0.3-1.1,1.1-1.7,2-2.2c0.1,0.4,0.2,0.7,0.3,1.3c0.7-0.5,1.2-0.9,1.8-1.3   c6.6,6.4,3.1,20,7.1,27.8c1.2-2.1,1.4-4.8,3.9-5.9c-0.4,24.8-1.5,49.8,4,74.5c2.9,11,13.7,19,13,31c-2-1-1.4-3.2-3.5-3.9   c-0.5-0.6-1-1.3-1.7-2.1c-0.3,0.9-0.4,1.2-0.3,2.1c-1.4-1.1-0.4-2.2,0-3.6c-1.4-1.8-2.4-4.1-4.3-5.9c-6.2,16.5,1.6,33.6,5.2,49.9   c1.5-2.7,0.1-7.7,0.5-11.7c7.7,11.6,2.6,32.1,4.2,46c1.3,0.1,2.4,0.2,3.5,0.3c-1.9,1-3.7,0.5-5.6,0c-1.5-7.9-2.3-16.1-3.4-24.1   c-1.8-13.1-8.9-24.7-10.4-37.8c-2.6-11.4,2.4-22.9,0.1-34.1c-5.9-26.8-16.7-53.2-19.9-80.4c1.4-5.7,1.6-11.6,3.7-17.2   C451.3,355,452.2,354,451,353.3z" />
	<path fill="#F7EFD0" d="M505.5,563.9c9.4,14.1,18.3,9.7,16.2,16.9c-7.9-1.2-14.8,4.9-22.5,2.1c-3.9-1.6-8.5,0.8-11.5-2.9   c-3.3,1.1-7.3,2.5-10-0.5c-0.4-7.9-1.8-16.6,0.6-23.9c0.6,1.1,1.2,2.1,1.8,3.3c10.5,2.9,5.2-16.4,17-11c1.2,2.7,1.1,5.6,1.9,8.5   c-2.8,1-14.3,0.6-11.1,5.5c2.4-1.2,5.2-3.5,8.1-1.6c-1.9,1-6.5,2.2-3.9,5c3.4-2.8,7.3-3.7,11.4-4.1c0.1,0.4,0.1,0.8,0.2,1.4   c-2.4,0.9-10.8,3.2-7.4,6.5C498.9,566.6,502.5,565.8,505.5,563.9z M500.7,572.3c2.5-0.9,5-2,7.2-4.4c-0.6-0.4-1.2-1-1.4-0.9   C504.7,568.4,497.9,569.3,500.7,572.3z M509.7,570.9c-2.8-0.6-4.1-0.3-4.9,2C506.8,573.8,509.8,573.1,509.7,570.9z" />
	<path fill="#EADCB7" d="M478.3,555.7c-2.4,7.3-1,16-0.6,23.9c2.7,2.9,6.7,1.6,10,0.5c3,3.7,7.6,1.3,11.5,2.9   c7.7,2.7,14.7-3.3,22.5-2.1c0.1-0.8,0.2-1.5,0.3-2.1c0.6,1.9,1.2,3.9,1.7,5.6c-8.9,6.5-23.4,6-33.2,1.1c-2.1-1-4-1.4-6.2-0.6   c-4.1,1-8.5-0.9-12.7-1.7c4.4-9.7,1.2-19.9,4.9-29.9C477.8,553.6,478.3,554.4,478.3,555.7z M511.4,586.3c3.2-2.4,6.7-2.5,10.5-2.8   C522.3,580,508.5,582.1,511.4,586.3z" />
	<path fill="#16110F" d="M505.5,563.9c-3,1.9-6.6,2.6-9.3,5c-3.4-3.3,5.1-5.5,7.4-6.5c-0.1-0.5-0.1-1-0.2-1.4   C504.1,562.1,504.8,563,505.5,563.9z" />
	<path fill="#9A7568" d="M481,552c1.9,0.1,3.4,0.2,5.1,0.3c-0.5,2.3-2,4.7-4.3,4.7C479.8,555.5,481,553.8,481,552z" />
	<path fill="#C2C6AD" d="M496,560.3c-0.9-0.6-1.8-0.6-2.8-0.6c2.2-1,4.6-0.8,6.9-1.2c0,0.2,0,0.4,0,0.6   C498.9,560.1,497.4,560,496,560.3z" />
	<path fill="#C4D4B9" d="M500.1,559.2c0-0.2,0-0.4,0-0.6c0.4-0.3,0.8-0.3,1.2,0C501,559,500.7,559.3,500.1,559.2z" />
	<path fill="#302826" d="M431.9,437.8c0.2-0.7,0.4-1.4,0.6-2.1C432.6,436.4,432.9,437.3,431.9,437.8z" />
	<path fill="#302826" d="M430.6,441.2c-0.1-0.8-0.1-1.5,0.6-2.1C431.3,439.9,431.5,440.7,430.6,441.2z" />
	<path fill="#302826" d="M431.2,439.1c-0.1-0.6,0.1-1.1,0.7-1.3C432,438.4,431.9,438.9,431.2,439.1z" />
	<path fill="#5E4940" d="M499.5,369.6c2.7-5.8,1.8-7.4-1.1-13.2c5.5,0.7,1,8.6,4.4,11.1c0.1,0.8,0.3,1.6-0.6,2.1   c-0.1-0.4-0.2-0.8-0.3-1.5c-0.7,0.9-1.3,1.5-1.8,2.1C499.9,370.1,499.7,369.8,499.5,369.6z" />
	<path fill="#856559" d="M499.5,369.6c0.2,0.2,0.4,0.4,0.6,0.7c-0.5,1.3-1,2.7-1.5,4c-0.2,0-0.4,0.1-0.7,0.1   c-0.2-0.2-0.4-0.5-0.7-0.7c0-0.5,0-1,0-1.5C498,371.4,498.7,370.5,499.5,369.6z" />
	<path fill="#775A4F" d="M502.1,370.2c0.2,0.4,0.4,0.9,0.6,1.3c-0.4,1.2-1.2,2.3-2.3,3.7C500.1,372.9,501,371.5,502.1,370.2z" />
	<path fill="#533E36" d="M498,374.4c0.2,0,0.4-0.1,0.7-0.1c-0.1,1.1,0.3,1.8-0.4,2.8C496.9,376.3,497.7,375.5,498,374.4z" />
	<path fill="#483C3A" d="M497.3,372.3c0,0.5,0,1,0,1.5c-0.9,0-1.4-0.4-1.3-1.4C496.4,372.3,496.9,372.3,497.3,372.3z" />
	<path fill="#483C3A" d="M495.3,372.3c0.2-0.5,0.5-0.9,0.7-1.4c0,0.5,0,1,0.1,1.4C495.8,372.3,495.5,372.3,495.3,372.3z" />
	<path fill="#4F3F39" d="M466.7,141.2c-0.7,0.9-1.4,0.4-2.4,0.2c-0.2,0.8-0.4,1.6-0.5,2.4c-1.8-2-1.7-3.4,0.6-6.6   c0.2,0.6,0.3,1.1,0.5,1.6c0.2-0.1,0.4-0.2,0.5-0.3c0.2,0.3,0.5,0.5,0.7,0.8c-0.2,0.3-0.4,0.7-0.7,1.2   C465.8,140.8,466.3,141,466.7,141.2z" />
	<path fill="#B8C5C5" d="M466.7,141.2c-0.4-0.2-0.9-0.5-1.4-0.7c0.3-0.5,0.5-0.8,0.7-1.2c0.8,0.1,0.6,0.8,0.7,1.3   C466.7,140.8,466.7,141,466.7,141.2z" />
	<path fill="#8C695C" d="M388.4,370.9c1,1.7,2,3.4,3.1,5.3c0.2-0.5,0.3-0.9,0.4-1.3c0.9,1.9,1.7,3.8,2.8,6.3   C390.6,378.9,387.7,375.7,388.4,370.9z" />
	<path fill="#49352F" d="M385.5,366.2c0.1,1.8,1.5,3.2,1.2,5.7C385.6,369.9,384,367.9,385.5,366.2   C385.6,366.2,385.5,366.2,385.5,366.2z" />
	<path fill="#49352F" d="M384.9,364.8c0.2,0.2,0.4,0.5,0.7,0.7C385.3,365.3,385.1,365,384.9,364.8z" />
	<path fill="#49352F" d="M385.6,365.5c0.2,0.2,0.5,0.4,0.7,0.7c-0.2,0-0.5,0-0.7,0c0,0,0,0,0,0C385.6,366,385.6,365.7,385.6,365.5z" />
	<path fill="#8D6D60" d="M455.7,161.7c-0.6-0.3-0.6-0.9-0.5-1.4c3.9,0.3,7.6-0.2,11.5-0.7c0.2,0.2,0.5,0.4,0.7,0.5   c-0.1,1-0.6,0.5-1.1,0.4c-0.5,0.7-1.1,1.5-1.6,2.3C461.3,164.2,458.4,161,455.7,161.7z" />
	<path fill="#8C6F61" d="M465.3,157c0.1,0.3,0.3,0.6,0.4,1c-2.2,1.9-5.1,0.2-7.3,1.6c-0.2,0-0.4,0-0.6,0c-0.1-0.3-0.3-0.6-0.4-0.9   C459.7,156.3,462.5,157.3,465.3,157z" />
	<path fill="#251714" d="M465.3,157c-1.8,0.4-3.6-0.2-5.5,0.1c0-0.2,0-0.5,0.1-0.7c1.7,0.1,4-1,5.4-0.1   C465.3,156.5,465.3,156.7,465.3,157z" />
	<path fill="#150D0B" d="M463.3,159c1.1-0.3,2.3-0.2,3.3,0.5c-1.1,0-2.2,0.2-3.2,0.1C463.3,159.4,463.3,159.2,463.3,159z" />
	<path fill="#47322C" d="M449,169.2c-1.6-1.3-3.5-2-4.7-3.8c0.6-0.1,0.9-0.1,1.2-0.2c1.1,1.4,2.7,2.3,4.2,3.3   C449.4,168.7,449.2,168.9,449,169.2z" />
	<path fill="#977264" d="M449.7,168.5c-1.4-1.1-3-1.9-4.2-3.3c2.6,0.5,4.6,1.9,6.2,4C451,169,450.4,168.7,449.7,168.5z" />
	<path fill="#977264" d="M451.7,169.2c0.6,0,1.1,0,1.3,0.7C452.5,169.9,451.9,169.8,451.7,169.2z" />
	<path fill="#28211F" d="M452.5,174.7c-0.1-0.8-0.3-1.6,0.5-2.2C453,173.3,453.3,174.1,452.5,174.7z" />
	<path fill="#170F0E" d="M447.6,137.9c3.9,0.5,8.6-1.9,8.7,3.9c-1.8,0.3-3.6,0.4-5.3,0.3c-0.6-0.6-0.3-4.1-1.3-3   c-0.4,0.1-0.8,0.1-1.3,0.2c-0.3,0.2-0.5,0.4-0.8,0.7l0,0c-0.2,0.1-0.3,0.2-0.5,0.4c0.2,0.1,0.4,0.2,0.5,0.3l0,0   c-0.2,0.7-0.8,0.8-1.4,0.7l0,0c-0.1-0.7,0.4-1.8-0.9-1.9c-0.1-0.3-0.2-0.5-0.4-0.8C445.8,138.3,446.9,139,447.6,137.9z    M453.4,139.3c0,0.2,0,0.3,0,0.4C453.6,139.6,453.6,139.5,453.4,139.3z" />
	<path fill="#1A0D0B" d="M447.7,134.1c-1.2,0.3-2.5,1.3-4.2,1.1c4.4-3.2,10.7-3.1,14.6,0.2C457.6,136.8,450.5,133.6,447.7,134.1z" />
	<path fill="#48342F" d="M466.3,152.8c-0.8,0.1-1.8,0.2-3.1,0.3c0.5-1.5,1.6-1.9,2.7-2.8c-0.1-1.3-1.8-2-1.4-3.8   C466,148.5,469.1,150.7,466.3,152.8z" />
	<path fill="#322B26" d="M463.4,159.6c0.2,0,0.4,0,0.7,0.1c-2.7,1.2-6,0.3-8.9,0.6c-0.5-0.9-1.4-0.4-2-0.7c1-1.4,1-1.4,2.6-0.7   C458.1,160,460.8,159.6,463.4,159.6z" />
	<path fill="#53413A" d="M457.1,152.2c0.8-0.3,1.6-0.7,2.6-1.1c0.4,0.2,1,0.4,1.5,0.7c-0.4,1.3-3.7,2.7-4.8,1.1   C456.7,152.6,456.9,152.4,457.1,152.2z" />
	<path fill="#85665A" d="M429.9,141.3c0.5,0.1,1,0.9,1.5,0c0.6,0.3,0.6,0.9,0.5,1.5c-0.3,0-0.7,0.1-1,0.1c-0.3,0.6-0.5,1.2-0.8,2   c-0.5-0.3-0.9-0.5-1.1-0.6C428.7,143,429.5,142.2,429.9,141.3z" />
	<path fill="#1E1513" d="M450.5,140.6c0.1,0.5,0.3,1,0.4,1.5c-1.6-0.2-3.5,0.7-4.7-0.8c0.6,0,1.2,0,1.4-0.7   C448.6,140.8,450.1,142,450.5,140.6z" />
	<path fill="#59362F" d="M457.9,159.6c-0.7-0.2-1.5-0.5-2.2-0.7c1-1.5,2.7-2,4.3-2.6c0,0.2,0,0.5-0.1,0.7c-0.8,0.5-1.6,1.1-2.4,1.7   C457.6,159,457.7,159.3,457.9,159.6z" />
	<path fill="#1E1513" d="M453.9,137.8c-1.9,0.5-3.8,0.1-5.7,0C450.1,136.8,452,136.8,453.9,137.8z" />
	<path fill="#2A1F1C" d="M457.1,152.2c-0.2,0.2-0.5,0.5-0.7,0.7c-0.9-1.1-1.2-2.5,0.3-3.4C456.9,150.4,457,151.3,457.1,152.2z" />
	<path fill="#4C3A34" d="M435.2,158.4c0.3,0,0.6-0.1,0.9-0.1c0.7,0.7,1.3,1.4,2,2.1C436.6,160.4,436,159.4,435.2,158.4z" />
	<path fill="#4C3A34" d="M440.1,161.7c-0.5,1.6-2.4-0.3-2.1-1.4C438.7,160.8,439.4,161.2,440.1,161.7z" />
	<path fill="#1E1513" d="M447.6,137.9c-0.7,1.1-1.8,0.4-2.6,0.6C445.6,137.5,446.7,138,447.6,137.9z" />
	<path fill="#1E1513" d="M445.3,139.3c1.3,0.1,0.8,1.2,0.9,1.9C445.9,140.6,445.6,139.9,445.3,139.3z" />
	<path fill="#8D6D60" d="M453.1,159.6c0.7,0.3,1.6-0.2,2,0.7C454.4,160.2,453.4,160.8,453.1,159.6z" />
	<polygon points="427.5,140.8 427.5,141 427.4,141  " />
	<path fill="#D69479" d="M480.2,443.2c-5.3,1.2-11.2-9.6-3.5-8.6c2.2,0.9,3.5,2.4,3.6,4.8c0,0.7-0.1,1.4,0.7,1.7   C480.7,441.9,480.5,442.5,480.2,443.2z" />
	<path fill="#CA8C72" d="M417.6,437.1c-2.9-1.8-4.3-4.3-4.1-7.6c2.2-2.5,2.3-2.5,4.1-0.6C414.9,430.1,417.4,434.9,417.6,437.1z" />
	<path fill="#261B17" d="M415.7,474.4c1.3,2.8-1.2,6.7-3.3,9.2C412.2,479.9,413.5,476.7,415.7,474.4z" />
	<path fill="#CA8B72" d="M417.6,437.1c0-0.2,0-0.4,0-0.6c1.6-1.3,0.4-4.3,0.7-6.2c1.9,1.9,1.8,4.6,2.5,7c-0.4,0-0.8-0.1-1.3-0.1   c0,1,0,1.9,0,2.7C418.8,438.9,418.9,437.4,417.6,437.1z" />
	<path fill="#271B17" d="M484.1,438c0.6-2.6,1.2-5.1,2.8-7.5C487.5,433.7,486.7,435.8,484.1,438z" />
	<path fill="#130C0A" d="M418.3,430.2c-0.4,1.9,0.9,4.9-0.7,6.2c-0.7-1.8-2.3-6.9,0-7.6C417.8,429.3,418.1,429.8,418.3,430.2z" />
	<path fill="#B17D6A" d="M432.6,344.4c2.2,1.7,5.2,2.6,6.8,4.8l0,0c-2.8-0.4-5-2.8-7.5-4.1C432.2,344.8,432.4,344.6,432.6,344.4z" />
	<path fill="#1D100D" d="M477.5,474.6c-0.1-0.8,0-1.2,0.3-2.1c0.7,0.8,1.2,1.4,1.7,2.1c0,0.8,0,1.6,0,2.8   C478.4,476.3,478.1,475.8,477.5,474.6z" />
	<path fill="#151310" d="M411,489.3c-0.7-1.4-1-2.7,0.2-4C412.5,486.9,412.5,487.2,411,489.3z" />
	<path fill="#382823" d="M481.4,485.2c-1.5-0.8-1.6-2.3-2.2-3.7C481.3,481.9,481.7,482.7,481.4,485.2z" />
	<path fill="#3D2923" d="M455.1,351.2c-0.5,0.4-1,0.8-1.8,1.3c-0.1-0.5-0.2-0.9-0.3-1.3c0.9-0.7,1.2-2.2,2.6-2.4   C456.3,349.8,455.2,350.4,455.1,351.2z" />
	<path fill="#3D2923" d="M409,494.5c0.6,1.2,0.7,2.2-0.3,3.3C407.7,495.9,407.7,495.7,409,494.5z" />
	<path fill="#65463C" d="M440.3,354.6c-1.5-0.4-2.9-1.2-4.7-2.5c2.2-0.3,3.2,1.1,5,1.8C440.5,354.1,440.4,354.3,440.3,354.6z" />
	<path fill="#201713" d="M419.6,439.8c0-0.8,0-1.7,0-2.7c0.6,0.1,0.9,0.1,1.3,0.1c0.1,1,0.2,2,0.3,3.4   C420.4,440.3,420,440,419.6,439.8z" />
	<path fill="#C28671" d="M432.6,344.4c-0.2,0.2-0.5,0.5-0.7,0.7c-1.1-0.7-2.1-1.4-3.2-2.1C430.3,342.7,431.5,343.4,432.6,344.4z" />
	<path fill="#543C33" d="M480.2,443.2c0.3-0.7,0.5-1.4,0.8-2C482.7,441.7,481.3,444.9,480.2,443.2z" />
	<path fill="#251815" d="M481.6,489.8c-0.8-0.8-1-0.9-1-1.9C481.8,488.1,481.8,488.7,481.6,489.8z" />
	<path fill="#886556" d="M481.7,492.8c0.6,0.9,0.6,1.1-0.3,1.3C480.9,493.7,481.3,493.3,481.7,492.8z" />
	<path fill="#B17D6A" d="M439.4,349.2c0.2,0.1,0.3,0.2,0.5,0.3C439.7,349.3,439.6,349.2,439.4,349.2L439.4,349.2z" />
	<path fill="#0D0909" d="M441.5,244.9c-8.1-0.2-18.7-0.2-22.7-8.7c0.3-0.3,0.6-0.6,0.9-0.9c6.8,10.5,20.2,5.9,30,7.5   C447.1,244.2,444.2,244.2,441.5,244.9z" />
	<path fill="#E7CDBC" d="M455.4,277.9c3,8.3-0.3,17.3,0.3,26.2C453.2,296,452.8,285.6,455.4,277.9z" />
	<path fill="#443D39" d="M473,322.3c-0.3-3,1.7-6,2.3-9c0.1-0.1,0.4-0.1,0.6-0.1C476.5,316.2,475.3,319.9,473,322.3z" />
	<path fill="#4C1A18" d="M472.4,246.2c2.5-1.6,6.4-0.4,9.4-0.4c0.2,0.4,0.3,0.7,0.4,1C478.9,247,475.7,246.7,472.4,246.2z" />
	<path fill="#443D39" d="M470,294.8c-0.4-2-1.4-3.8-1.3-6.4C470.3,290.7,470.6,292.7,470,294.8z" />
	<path fill="#231F1D" d="M468.4,282.8c0.8,1,0.4,2.1,0.2,3.6C467.2,285.4,466.5,283.4,468.4,282.8z" />
	<path fill="#4A413B" d="M429.9,323.2c0-0.4,0-0.8,0-1.4c1.3,0.6,1.6,1.6,2,2.8c-0.6-0.1-0.9-0.1-1.2-0.2   C430.4,324,430.2,323.6,429.9,323.2z" />
	<path fill="#372D29" d="M425.8,315c0-0.4,0-0.8,0-1.3c1.5-0.1,1.5,1,1.8,1.9c-0.3,0.2-0.7,0.4-1,0.6   C426.3,315.8,426.1,315.4,425.8,315z" />
	<path fill="#613E3A" d="M468.9,245.4c0-0.2,0-0.4,0-0.9c0.7,0.2,1.4,0.3,2.1,0.4c0,0.1,0,0.3,0,0.4c-0.5,0.1-1.1,0.2-1.6,0.3   C469.3,245.5,469.1,245.4,468.9,245.4z" />
	<path fill="#4F3E3A" d="M471.3,325.4c0.3,1.1,0.2,1.8-1,2C469.9,326.5,470.3,326,471.3,325.4z" />
	<path fill="#58423E" d="M469.1,329.7c0.4,1.1-0.1,1.6-1.2,1.9C467.7,330.5,468.2,330,469.1,329.7z" />
	<path fill="#79655F" d="M468.5,275.4c0.3,0.4,0.5,0.6,0.7,1C468.5,277.4,467.5,276.4,468.5,275.4z" />
	<path fill="#554A45" d="M464.2,243.4c1.1-0.9,1.4-0.9,2.4,0.1C465.8,243.4,465,243.4,464.2,243.4z" />
	<path fill="#655953" d="M468.7,272.2c-0.1,0.1-0.3,0.2-0.4,0.3c-0.2-0.4-0.3-0.7,0.2-0.9C468.6,271.8,468.6,272,468.7,272.2z" />
	<path fill="#AA998F" d="M468.6,281c-0.1,0.1-0.2,0.2-0.3,0.3c-0.1-0.3-0.3-0.6,0-0.8C468.4,280.7,468.5,280.9,468.6,281z" />
	<path fill="#2C221F" d="M390.3,277.6c0-1.4,0-2.7,0-4.1c1.7,0.8,2.2,3.4,1.8,5.1C391,279,390.8,278.2,390.3,277.6z" />
	<path fill="#372A25" d="M389.6,271.4c-1.2-0.8-3.7-4.1-2.1-5.3c0,0,0,0,0,0c0.5,1.3,1.4,2.3,2.2,3.3   C389.7,270.1,389.6,270.7,389.6,271.4L389.6,271.4z" />
	<path fill="#60473F" d="M390.3,332.3c0.7-1.1,1.5-0.7,1,0.4C391,332.6,390.7,332.5,390.3,332.3z" />
	<path fill="#977264" d="M389.6,271.4c0.1-0.7,0.1-1.3,0.2-2C390.6,270.5,390.6,270.5,389.6,271.4z" />
	<path fill="#221B18" d="M391.6,360.8c0,1.2-0.4,1.2-0.5,0C391.2,360.9,391.4,360.8,391.6,360.8z" />
	<path fill="#977264" d="M388.2,267.4c-0.2-0.5-0.5-0.9-0.7-1.4C388.3,266.2,388.3,266.8,388.2,267.4z" />
	<path fill="#3C312D" d="M419.7,235.3c-0.3,0.3-0.6,0.6-0.9,0.9c-1.5-2-2.7-4.2-4.2-7.2C417.6,230.8,418.6,233.1,419.7,235.3z" />
	<path fill="#5C4B45" d="M413.6,224.8c0.8,0.9,1.1,1.1,1.1,2.2C413.4,227.4,412.5,226.3,413.6,224.8z" />
	<path fill="#473934" d="M452.9,241.3c-0.6,0.1-1.2,0.1-2.1,0.2c0.4-1.3,1-1.6,2.2-1.4C453,240.6,453,240.9,452.9,241.3   C452.9,241.3,452.9,241.3,452.9,241.3z" />
	<ellipse fill="#5A5049" cx="424.8" cy="309.9" rx="0.3" ry="1.1" />
	<path fill="#7B7268" d="M455,239.1c-0.2,0.2-0.3,0.2-0.4,0C454.7,238.8,454.8,238.8,455,239.1z" />
	<path fill="#1F1815" d="M490.7,266.8c-0.4-3.3-0.4-3.4,0.5-5.4C492.5,263.2,492.4,264.7,490.7,266.8z" />
	<path fill="#100909" d="M489.4,267.2c1.4,1.6,0.7,2.5,0,3.8C488.1,269.7,488.9,268.6,489.4,267.2z" />
	<path fill="#5E4940" d="M502.8,367.5c0-1.8,0-3.7,0.1-5.5C503.8,364.3,503.8,365.8,502.8,367.5z" />
	<path fill="#372622" d="M493.9,332.7c-0.3,0-0.7,0-1.1,0c-0.3-0.7-0.4-1-0.1-1.8c0.4,0.2,0.8,0.3,1.2,0.5   C493.9,331.9,493.9,332.3,493.9,332.7z" />
	<path fill="#6E584F" d="M487.1,272.8c0-0.5,0.1-0.9,0.1-1.4C489.2,271.1,488.2,273.8,487.1,272.8z" />
	<path fill="#3E2D28" d="M427.7,188.4c1.8-1.7,3.9-0.6,5.9,0.7C431.4,190,430.4,189.9,427.7,188.4z" />
	<path fill="#382924" d="M439.2,190.6c-0.9,0.7-1.7,0.6-2.6-0.2C438.3,189.4,438.3,189.4,439.2,190.6z" />
	<path fill="#1E0C0B" d="M441.6,190.3c0.7,0,1.2,0.1,2,0.1C442.4,191.4,442.4,191.4,441.6,190.3z" />
	<path fill="#140D0B" d="M389.6,228.4c-1.6-0.9-0.9-2.6-2.2-3.8c-0.7-0.6-0.5-1.8-0.1-2.7c0.6-0.3,0.9,0,1,0.5   c-1.6,0.9,0.7,1.6,1.3,2.5C389.6,226,389.6,227.2,389.6,228.4L389.6,228.4z" />
	<path fill="#0F0A09" d="M388.3,223.7c-0.8-0.4-0.9-0.9,0-1.4C388.3,222.8,388.3,223.3,388.3,223.7z" />
	<path fill="#7A5E53" d="M498.1,366.9c-0.2-1.6,0.6-3.3,0.8-4.9C499.9,364.7,499.8,365.2,498.1,366.9z" />
	<path fill="#16110F" d="M397.7,568c-4.5-3.6,7.4-8,10.4-6.5C407.3,564.5,400.7,563.4,397.7,568z" />
	<path fill="#181411" d="M410.1,569.2c0,0.8-0.1,1.3-0.1,1.6c-3.4,1-6.5,2.5-9.6,3.9C398,571.4,407.1,568.9,410.1,569.2z" />
	<path fill="#14100E" d="M409.3,566.7c-4.6,1.1-7.8,0.6-9.9,5.2C395.4,567.1,406.3,562.6,409.3,566.7z" />
	<path fill="#171512" d="M402.4,578.9c-1.3-2.6,7.1-6.1,8.5-4.7C409.9,576.2,409.1,576.6,402.4,578.9z" />
	<path fill="#201A16" d="M413,579.5c-2.3,1.8-5.1,2-7.8,2.9c-0.3-0.4-0.6-0.7-1-1.1C405.7,579.7,411.6,576.6,413,579.5z" />
	<path fill="#13100E" d="M500.7,572.3c-2.8-2.9,4-3.9,5.7-5.2c0.2-0.1,0.8,0.5,1.4,0.9C505.7,570.3,503.2,571.3,500.7,572.3z" />
	<path fill="#211D1A" d="M509.7,570.9c0.1,2.2-2.9,2.9-4.9,2C505.7,570.6,506.9,570.3,509.7,570.9z" />
	<path fill="#13110E" d="M511.4,586.3c-2.9-4.2,10.9-6.3,10.5-2.8C518.1,583.8,514.6,583.9,511.4,586.3z" />
	<path fill="#59362F" d="M463.4,159.6c-1.6,0-3.3,0-4.9,0c1.4-1.1,3.2-0.5,4.9-0.6C463.3,159.2,463.3,159.4,463.4,159.6z" />
	<path fill="#B9C8C8" d="M450.5,140.6c-0.4,1.5-1.9,0.3-2.8-0.1l0,0c0-0.2-0.1-0.4-0.1-0.6l0,0c0.7-0.7,1.7-1,2.7-0.7   C450.4,139.7,450.4,140.1,450.5,140.6z" />
	<path fill="#1E1513" d="M450.3,139.3c-0.2,0-0.4-0.1-0.6-0.2C450.1,138.4,450.2,138.8,450.3,139.3z" />
	<path fill="#638686" d="M453.4,139.3c0.2,0.2,0.2,0.3,0,0.4C453.4,139.6,453.4,139.5,453.4,139.3z" />
	<path fill="#1E1513" d="M448.4,139.3c-0.3,0.2-0.5,0.4-0.8,0.7C447.9,139.7,448.1,139.5,448.4,139.3z" />
	<path fill="#1E1513" d="M447.6,139.9c0,0.2,0,0.4,0.1,0.6c-0.2-0.1-0.4-0.2-0.5-0.3C447.3,140.1,447.5,140,447.6,139.9z" />
</g>
</svg>