<?xml version='1.0' encoding='utf-8'?>
<svg xmlns="http://www.w3.org/2000/svg" version="1.2" baseProfile="tiny" id="Layer_2_00000036934685902163878490000007289907189001526673_" x="0px" y="0px" viewBox="0 0 900 600" overflow="visible" xml:space="preserve">
<g id="b">
	<path display="inline" d="M431.3,163.9c0.3-3.3-0.4-3.3-3.6-3.1c-0.2,0.5-0.5,1.1-0.8,1.7c-1.9-0.2-2.3-2.4-4.5-2.3   c-0.4,0.4-0.8,0.8-1.4,1.2c-0.8-0.8-1.5-1.5-2.3-2.2c-2.4,1.9-3.8-1.2-4.9-2.5c-1.2-0.7-1.2,0.7-1.9,0.6c-2.2-0.2-2.7-2.8-4.7-3.5   c-0.8-1.7-1.7-3.4-2.5-5.1c-5.4-1.9-4.7-6.1-4-10.7c-0.6,0.7-0.9,1.1-1.4,1.7c-1.4-2.4-0.1-5-1.5-6.7c0.3-1.7,0.6-3,0.9-4.4   c-0.5,0.2-0.9,0.3-1.3,0.5c-3-2.1-0.6-5.4-0.9-8.6c-2.8-5.2,2.3-10.1,3.6-15c-0.3-0.7-0.7-1.4-1-2.2c0.6-1.3,1.3-2.6,2-4   c0.8-0.3,1.6-0.6,2.6-1c-0.2-0.4-0.4-0.9-0.7-1.6c1-1.5,2.8,0,3.9-1.5c0.5,0,1.1,0,1.3-0.7c-0.9-0.7-0.6-1.7-0.7-2.7   c1.8-2.6,2.9,0.2,3.7-1.8c-0.5-0.4-1.1-0.7-1.6-1.1c0.1-0.6,0.3-1.3,0.4-1.8c2.7-0.6,5.2-1.1,7.9-1.7c0.2-0.8,0.5-1.5,0.8-2.4   c0.3-0.2,0.8-0.4,1.3-0.7c0.6,0.3,1.2,0.6,1.9,1c2.8-1.2,5.1-3.8,8.6-2.6c2.1-1.8,4.4-1,6.2,0.8c3-0.8,5.9-2.6,9.4-2.6   c2.6,2-1.2,2.4,0.2,3.9c1.8-1.4,9.3-5.8,9.7-1.4c-0.7,0.3-1.4,0.7-2.2,1.1c2.8,1.6,13.5-0.4,11.7,5.2c-0.9-0.1-1.9-1-2.7-0.4   c0,0.3,0.1,0.5,0.2,1c6.4-0.7,10.4,5.5,13.2,10.9c-0.4,0.5-0.7,1-1.1,1.5c0.6,3.9,3.3,8.2,0.6,11.9c0,1.2,0,2.3,0,4   c-0.4,0.3-1,0.9-1.9,1.7c-0.3,2.1-0.4,4.5-2.3,6.6c0.1,0.6,0.1,1.3,0.2,2.1c-0.3,0.3-0.5,0.6-0.8,0.9c-2.1-3.9-3.7-12.5-9.6-10.6   c-7.8-0.5-13.7,0-20,5.5c0.5,1.3-0.9,1.4-1.3,2.1c-0.4,0.8-0.9,1.5-1.4,2.1c0.7,2.6-1,4.9-0.6,7.1c-0.8,1.3-1.4,2.3-2,3.3   c0.3,0.6,0.5,1,0.6,1.3c-0.4,1.4-1.6,1.2-2.5,1.5c-0.5-0.3-0.9-0.5-1.4-0.8c-2.6-14.4,13.4-27.3,27.8-25.5   c-13.1-8.9-29.7,5.3-30.6,19.4c-1,0.7-0.8,3.9,0.8,3.4c-2.4,1.7-3.4,3.8-3.8,6.8c1.7,2.6,3.3,5.6,5.9,7.4c0,5.8-0.9,11.2-0.8,17.1   c-1,0.4-0.3,1.3-0.7,2c-0.6,0.3-0.6,0.8-0.6,1.4l0,0c-0.8-0.3-1-1.5-0.7-2.1c0.7-0.3,0.7-0.9,0.6-1.5   C431.5,166.7,431.7,165.6,431.3,163.9z M417.4,157c-0.1,0.3-0.3,0.6,0,0.8C417.8,157.5,417.8,157.3,417.4,157z" />
	<path display="inline" fill="#010101" d="M383.8,342.6c-3.7-15.1-4.4-30.7-7.1-46c-2.6-12.3,5.1-23.2,4.4-35.4   c-0.4-9.9,2.1-19.6,3.7-29.3c2.7-12.2-3.1-26.5,6.5-36.6c4.9-6.9,14.3-5.5,20.4-10.7c3.3-2.6,6.8-4.9,10.8-6.2   c0.6,0.2,1.3,0,1.5,0.8c-0.2,16.7,16.1,34.2,33.8,33.3c0.6-1.3-0.5-2.2-0.6-3.3c0.3-0.2,0.5-0.4,0.8-0.7c0.7,1.5,1.4,3,2.1,4.5   c3,0.1,5.9,0.2,8.8,0.3c0,0.2,0,0.3,0,0.5c-23,6.8-43.4-11-47.6-33c-2,0.6-3.3,1.6-4.3,3.2c6.3,13.6,2.7,30.8-8.3,40.8   c-1.8,56.9,23.5,34.9-7.6,105.6c28.3-1.1,58.2,9.7,85.6-0.8c-13.5-41.5-12.8-37.8-4.1-78.9c0-1.6,1.3-1.9,2.4-2.5   c3.8-1.8,6.9-4.4,8.5-8.5c0.3,0.3,0.6,0.7,0.9,1c-0.5,4.9-5.8,7.4-9.3,10c-1.1,12.8-7.1,24.8-7.2,37.4c6,27,16.3,53,18.4,80.9   c3.8,23.3-1.4,47.1-0.5,70.1c0.1,14.2,0.7,28.1,2.6,42.2c2,21.1-1.6,42-1.1,63c7.6,0.8-0.3,7.9,16.9,24c4.4,6,11.9,3.3,12.5,11.8   c6.7,13.6-31.5,12.8-37.1,5.6c-5.3,2-15.4,1.9-18.4-3.6c3.6-5.1,3-11.2,2.7-17.1c-0.2-4.5,2.9-8.1,2-12.8c0.7-0.5,1.5-0.9,2.1-1.3   c0.9,0.2,1.7,0.4,2.4,0.6c-0.5-10.1-2.5-20.5-3.5-30.7c-3.6-12.7-9.9-24.8-10.6-38.2c5.5-34.6-10.8-66.1-18.4-99.2   c-0.1,0-0.3,0-0.4,0.1c-5.2,29.3-10.6,60.5-24.2,86.9c-2.1,25.9-13.5,50.1-14.6,76.3c-2.1,1.9,0.7,6.3-1.4,8.2   c-1.5-1.6-3.1-3.2-4.6-4.8c-1.9,0.7-3.7,1.3-5.2,1.8c-1,5.5-2.2,10.8-5.1,15.3c-1.8,0.5-2.8-0.5-3.5-2.2   c6.6-26.3-3.8-54.8,0.2-81.8c18-56.5,13.9-40.3,8.6-98.7c-0.7-0.8-1.4-1.6-2-2.3c0.7-0.5,1.4-1,2.1-1.5c1.1,0.7,2.2,4.6,3.4,2.7   c0.5-0.2,0.7-0.4,0.1-0.7c-0.1-0.2-0.1-0.4-0.1-0.6c0.2-0.2,0.4-0.4,0.7-0.7c1.1,1.2,0.6,2.4,0.1,3.6c-0.4,0.3-0.9,0.6-1.4,1   c0.6,27.8,10.1,56.6-5.4,82.2c-9.7,29-1.2,60.5-1.9,89.5c1.4-6.8,3.2-9.1,10.3-9.7c0.5,0.5,1,0.9,1.6,1.5   c2-26.9,13.8-51.6,15.1-78.5c19.5-36.1,20.3-78.6,32-116.9c0.4-0.2,0.8-0.4,1.5-0.7c-13.6,36.9,16,73,15.9,109.8   c-5.4,22,5.9,42,10,62.9c1,7.8,2,15.6,3.4,23.3c1.9,0,3.7,0,5.7,0c0.5-3.3,3.5-4.4,6.2-5.4c2.5-35.5,0.6-71.1-1.6-106.6   c2-35.1,3.7-71.1-5.9-105.4c-28.1,10.3-58-1.4-86.7,0.3c-2.3,5.2-2.5,11.3,2,15.4c-0.3,0.3-0.6,0.6-0.9,1c-3.2-2.6-5-6.3-7.5-9.5   c0.1-0.6,0.1-1.2-0.5-1.5c-0.1-0.2,0-0.4,0.1-0.6c0.4-0.2,0.8-0.3,1.1-0.5c-0.3-13.6,0.8-26.9,3.9-40.1c2.9-11.9,0.2-24.2,3.5-36   c3-10.8,4.5-22,4.8-33.3c0.2-2.9-0.6-5.9,2.6-7.6c0.2,0.3,0.5,0.6,0.8,0.9c7.4-10.1,10.3-24,5.1-35.6c-7.6,4.9-18,5.3-23.8,12.9   c-8.4,9.8-1,23.3-4.9,34.3c-2.9,19.1-4.1,38.2-8.2,57c-0.7,18.7,8,37.1,6.8,55.4C384.7,343.9,384.2,343.2,383.8,342.6z    M505.6,561.9c0.6-3.5-10.6,1.4-11.9,2.9c-3.5-4.6,6.7-4.8,9.4-6.1c-0.2-0.4-0.3-0.7-0.4-0.8c-4.8,0.9-9.4,0.8-13.4,4.1   c-2.3-5.6,7.7-4.8,11.2-5.7c-0.5-2.9-1.1-5.6-1.6-8.4c-9.7-4.9-7.9,7.3-13.6,11.3c-1.1-0.1-2.3-0.2-3.4-0.2c-1.8-1.8-1.3-5-3.8-5.9   c-0.6,5.5-3.2,10.5-2.5,16.1c1.3,4.9-1.2,9.4-2,13.9c3.9,0.3,8,2.5,11.8,1.6c2.4-0.9,4.5-0.5,6.8,0.7c9.9,5,23.6,4.9,33-1   c-2.2-11.1-3.5-6.7-10.8-12.1c-1.9-1.7-3-4.3-5.3-5.5l0.1,0.1C507.7,565.2,507.2,562.8,505.6,561.9L505.6,561.9z M406.9,251.3   c-4.4,11.5-4.7,23.7-4.9,35.8c-1.8,16.6-6.4,32.4-5.8,49.3c12.5-32.8,27.2-51.3,10.9-86.8C407.1,250.2,407,250.8,406.9,251.3z    M487.8,551.7c-1.9,0-3.5,0-5.2,0c-0.5,2-0.9,4.8,1.8,5.1C485.9,555.4,487.1,553.9,487.8,551.7z M392.7,559.8   c-1.7-0.1-2.4,4-0.6,3.8C392.6,562.5,393.1,561,392.7,559.8z" />
	<path display="inline" fill="#040202" d="M494.2,240.7c-0.3-0.3-0.6-0.7-0.9-1c1.4-12.9-6.9-24.3-13.4-34.9   c-3.5-3.6-9.3-15.7-14-15.3c3.7,6.2,9.8,13.7,7,21c-0.3,0-0.6,0-0.9-0.1c-0.2-6.7-3.5-12.4-6-18.3c-2-4-8-3.4-10.5-7.2   c-0.1,0.2-0.2,0.4-0.3,0.5c0,0,0,0,0,0c-0.4-0.5-0.9-1-1.3-1.5c0.2-3.8-1.9-11.1,2-13c1.9,0.3,4.5-0.6,6,0.7   c-1.9,0.3-3.8,0.6-5.8,1c-0.9,3.2-0.9,6.7-0.9,10.2c11.4,10.1,28.9-2.2,39.6,10.1c9.4-0.1,18.4-2.8,27.8-1.4   c6.4,0.8,11.8-3.1,18.2-3.4c13.4-1.9,27,0.1,40.4-1.5c5.1,0,8.6-4.8,13.7-4.2c4,0.5,8.6,0.7,12.5,0.5c1.7,0.8,2.7,2.4,4.6,2   c2.5,1.7,5.9,1.4,8.5,2.8c2.8,2.2,7.8,0.9,9.6,4.1c-1.6,2.8-2.4,3.1-6.5,2.4c-4.6,2.3-9.5,1.2-14.3,0.6c-3.3,3.4-7,2.7-11.5,2.2   c-2.5,2.8-7.6,3.8-10.8,0.9c-18.6,3.2-34.7,17.1-54.5,14.4c-13,3.9-25.9,11.6-39.9,9.9C494.1,228.2,496.2,234.8,494.2,240.7z    M599.7,195.4c2.7,0.9,4.6,1.3,6.4-0.6c-1.7,0-3.3,0.1-5-0.1c0-0.4,0-0.9,0-1.3c7.1-0.9,14.4,2.2,21.1-0.4   c-5.5-2.7-11.1-5-16.7-7.2c-2.8-0.1-5.7,2-7.1-0.6c1,0,2,0,3.2,0c-7.7-5.2-15.8,4.4-24.2,3.4c-16.7,1-33.8-1.4-49.9,4.6   c-11-1.4-22.3,2.1-33.1,0.7c-7.5-4.8-15.7-7.1-24.6-5.2c5.4,5.5,9.8,11.5,13.8,18.1c1.3-0.9,1.1-2.7,2.8-3.2c1,1.8-0.5,3.3-1,5   c0.3,4.2,3.9,8.2,6.2,11.6c15.3,1.8,28.2-8.7,42.8-9.9c18.5,0.7,33.9-10.2,51.5-14c0-1.1,0-2.1,0-3.1c0.5,0.2,0.9,0.5,1.4,0.8   l0.1-0.1c1.1,5.4,10.2,5.3,10.1-0.4c-0.6-0.3-1.1-0.5-1.7-0.8c1.7-2.1,1.7-2.1,1.4-4.2c-0.6-0.2-1.3-0.5-2.1-0.8   c-0.9,2.6-3.2,6.8-6.1,4.1c0.7-0.1,1.3-0.2,2-0.4c1.1-1.7,2.3-3.4,3.4-5.1C602.4,185.7,597.6,191.9,599.7,195.4z M622.1,190   c-1.9-1.3-3.7-0.4-6.1-1.4c2.5,2.2,5.2,1.8,7.7,3.1c0.3,0.6,0.5,1,0.6,1.4c0.9-0.3,1.9-0.3,2.1-1.7   C625.1,191,623.6,190.5,622.1,190z" />
	<path display="inline" fill="#050403" d="M388.5,565.1c0.2,0.5,0.5,0.9,0.7,1.4c-0.4,0.1-0.8,0.2-1.3,0.3   c0.9,8.2,0.7,15.7-1.9,23.6c1.4,0.7,2.9,0.6,4.2,0.8c0.7-0.9-0.1-2.4,1.3-2.7c1.7,2,0.8,5.3,2.3,7.7c10.4,1.5,21.8,2.5,31.6-1.6   c-3.4-0.1-6.2-0.2-8.9-0.3c-0.6,0.6-1.1,1-1.6,1.5c-0.6-0.1-1.3-0.1-2-0.2c0.1-1.9,1.9-2,2.5-3.3c3.5,0.3,6.8,0.5,10.3,0.8   c0.7-2.8,1.3-5.5-1.2-7.4c-8.6-8.1-10.9-22.1-17.7-30.7c2.2-1.9-0.7-6.3,1.4-8.2c0.1,2.7,0.1,5.2,0.1,7.9c2,0.3,3.1,1.4,3.3,3.4   c1.9,7.4,6.7,13.5,9.8,20.4c4.8,7.1,9.6,8.9,5.8,18.6c-11.2,3.5-23.8,4-35.2,0.8c-0.4-1.2-0.8-2.4-1.2-3.7c-4.1-0.7-8.9-1-6.2-6.5   C388.6,581.7,383.3,565.6,388.5,565.1z" />
	<path display="inline" fill="#120F0E" d="M397.4,380.7c-0.7,0.5-1.4,1-2.1,1.5c-6.4-3.9-12.3-13.1-10.2-20.6c1.6,1,0.8,4.1,2.7,4.1   c3.2,5.4,1,12.4,8.5,15.1c-0.9-2.3-2.3-3.2-2.2-5.6c0.1,0,0.4,0,0.5,0c0.2,0.2,0.5,0.5,0.7,0.7l0,0   C396,377.5,396.7,379.1,397.4,380.7z M388.5,372c-0.2-2.3-0.6-3.8-1.8-5.1C387,368.5,386.8,370.2,388.5,372z" />
	<path display="inline" fill="#140F0E" d="M471,128.1c0.3-0.3,0.5-0.6,0.8-0.9c1.7,4,1.4,8.1,2.6,12.3c-0.4,1.1-0.9,2.4-2,3.5   c-0.3,0.7,0.3,1.6-0.7,2.1c-0.3-1-0.5-2-0.7-2.8c-1.1-0.5-1.8-0.9-2.6-1.3c-0.2-1.1-0.5-2.2-0.8-3.3c1.4-1,3-0.5,4.7-0.4   c-0.1-0.9-0.1-1.5-0.2-2.4c-1.7,0.1-4.3,2.2-4.9,0.3c1-1.8,3.3-1.3,4.6-2.7C471.5,131,471.2,129.5,471,128.1z M470.5,139.3l0.2,0.1   l0-0.2L470.5,139.3z" />
	<path display="inline" fill="#24201E" d="M385.1,361.6c-0.7,0.8-0.7,1.8-0.7,2.8c-2.6-7.2-0.7-14.6-0.6-21.9   C386.8,348.1,384.2,355.4,385.1,361.6z" />
	<path display="inline" fill="#252120" d="M462.1,171.6c-0.5-0.9-1.4-0.4-2.1-0.7c5.9-1.3,8.4-7.5,9.6-12.9c0.2,0.2,0.4,0.5,0.7,0.7   C469.6,163.4,467.1,170.3,462.1,171.6z" />
	<path display="inline" fill="#1D1817" d="M424,179.2c-0.2-0.8-0.9-0.6-1.5-0.8c4.2-1.1,5.9-4.6,7.5-8.3c0.2,0.6,0,1.3,0.8,1.6   C429.8,175,427.6,178.6,424,179.2z" />
	<path display="inline" fill="#332F2E" d="M471.7,145.1c0.9-0.5,0.4-1.4,0.7-2.1c1.5,3.1,0.6,6.5-0.3,9.6c-0.2,0-0.3,0-0.5,0.1   c-0.2-0.2-0.4-0.5-0.6-0.7C471.2,149.7,471.5,147.4,471.7,145.1z" />
	<path display="inline" fill="#2B2625" d="M471,151.9c0.2,0.2,0.4,0.5,0.6,0.7c0.2,2-0.6,4-0.9,6c-0.2,0-0.3,0-0.5,0.1   c-0.2-0.2-0.4-0.5-0.7-0.7C470.1,156,470.6,154,471,151.9z" />
	<path display="inline" fill="#342929" d="M408.3,94.7c-0.6,1.3-2.4,0.5-3.5,0.6c-0.7-2,0.7-2.2,2.1-2.1   C407.4,93.7,407.8,94.2,408.3,94.7z" />
	<path display="inline" fill="#3D3636" d="M449.2,81.1c-0.7,1-1.8,1.4-2.8,2c-1.3-1.1,1.1-1.5,0.8-2.8   C447.7,80.8,448.3,81.3,449.2,81.1z" />
	<path display="inline" fill="#8C8F8F" d="M409.8,89.2c0.5,0.4,1,0.7,1.6,1.1c-0.5,1.6-1.5,0.2-2.3,0.4   C409.3,90.2,409.5,89.7,409.8,89.2z" />
	<path display="inline" fill="#5C6464" d="M465.7,88.4c-0.8,0.1-1.7,0.1-2.6,0.2c-0.1-0.5-0.1-0.7-0.2-1c0.9-0.6,1.8,0.2,2.7,0.4   C465.7,88.2,465.7,88.3,465.7,88.4z" />
	<path display="inline" fill="#1D1817" d="M431.3,163.9c0.1,1.2,0.6,2.6-0.5,3.6C431,166.4,431.2,165.2,431.3,163.9z" />
	<path display="inline" fill="#313232" d="M404.8,95.4c0.7,0,1.5,0,2.2,0c-0.7,1.2-1.8,0.5-2.7,0.7   C404.4,95.9,404.6,95.6,404.8,95.4z" />
	<path display="inline" fill="#1D1817" d="M429.2,160.9c1.7-0.2,1.7-0.2,2.1,0.9C430.6,161.5,429.9,161.2,429.2,160.9z" />
	<path display="inline" fill="#313232" d="M407.7,94c-0.3-0.2-0.5-0.5-0.8-0.7c0.1-0.5,0.1-1.1,0.7-1.2   C407.6,92.7,407.6,93.4,407.7,94z" />
	<path display="inline" fill="#1D1817" d="M430.7,168.1c0.1,0.6,0.2,1.2-0.6,1.5C430.3,169.1,430.5,168.6,430.7,168.1z" />
	<path display="inline" fill="#AFC0C0" d="M447.1,384.8c0-0.4,0-0.8,0-1.2c0.1,0,0.3,0,0.4-0.1c0.1,0.4,0.2,0.8,0.3,1.2   C447.6,384.7,447.4,384.8,447.1,384.8z" />
	<path display="inline" fill="#B28C7D" d="M471.8,154c0-0.4-0.1-0.9-0.1-1.3c0.1-0.1,0.3-0.1,0.5-0.1   C472.3,153.1,472.2,153.6,471.8,154z" />
	<path display="inline" fill="#B28C7D" d="M470.3,158.8c0.1-0.1,0.3-0.1,0.5-0.1c-0.1,0.3-0.2,0.5-0.3,0.8   C470.4,159.2,470.3,159,470.3,158.8z" />
	<path display="inline" fill="#B28C7D" d="M471,151.9c-0.5,2.2-1,4.4-1.5,6.6c-1-0.7-1.8-1.6-2.7-2.5c-3.4-0.5-7,0.2-9.5,2.6   c-1,0-2.3-0.5-2.6,1.2c0.6,0.1,1.2,0.2,1.8,0.3c0.5,3.9,6.3,4.1,9.5,3.9c0.3,0.3,0.6,0.5,0.9,0.8c-1.8,4.7-6.2,6.6-10.9,6   c-6.8-6.6-20.8-8.8-20.6-20.3c-1.3-1.6-1.3-1.6-1.4-3.5l0,0c1.9-0.8-2.5-3.2,0-6.7c0.9-0.4,2.1-0.1,2.5-1.5   c-0.2-0.3-0.3-0.7-0.6-1.3c0.6-1,1.2-2,2-3.3c-0.4-2.3,1.3-4.5,0.6-7.1c0.4-0.6,0.9-1.4,1.4-2.1c0.4-0.7,1.8-0.8,1.3-2.1   c6.3-5.5,12.1-6.1,20-5.5c7-1.7,9.2,9.8,10.3,14.9c-1.3,1.4-3.7,0.9-4.6,2.7c0.6,1.9,3.3-0.2,4.9-0.3c0.1,0.9,0.1,1.5,0.2,2.4   c-2.2-0.4-4.2-0.4-5.8,1.3c-0.2-0.3-0.5-0.5-0.8-0.9c-1.5,1.7-2.6,4.7-0.5,6.1c0.3-0.7,0.5-1.3,0.6-1.6c2-1.7,3.1-1.1,5.3,0.1   C472.2,145.3,471.2,148.8,471,151.9z M467.6,150.6c-0.6,0-1.2-0.1-1.4,0.7c-0.6,0.5-1.2,1.1-2,1.9c7.6,0.8,4.1-3.5,1.7-7.5   C465,148.2,466.8,148.8,467.6,150.6z M448.6,134.3c3.2,0,6.3,0.4,9.2,1.6c0.7,0.3,1.4,0.5,2.1-0.3c-3.7-3.6-9.3-3.4-14.3-1.3   c-0.4,0.2-0.7,0.5-0.2,1.2C446.5,135.2,447.7,135.2,448.6,134.3z M446.6,138.4c0.5,5.1,7.3,4.6,11.2,3.3   C457.5,135.5,450.5,137.3,446.6,138.4z M458.9,149c-3.2,1.5-1.4,4.7,1.2,4.7c0.5-0.4,0.9-0.8,1.4-1.1c0.4-0.2,1.2,0.1,1.1-0.9   c-1.4-1.4-2.4,0-4,0.9C458.8,151.3,458.8,150.4,458.9,149z" />
	<path display="inline" fill="#977264" d="M441.6,161.5c4.2,2.5,8.9,4.6,12.4,8.1c-2.9-0.8-5-3.1-7.8-4c2.5,2.5,5.4,4.4,8.4,6.1   c-1.3,4.3-0.5,8.6-0.7,12.9c-6.6-5.1-12.2-10.8-17-17.6c0.3,7.5-5.1,14.9-10.8,19.5c-0.1,0.6-0.1,1.1-0.2,1.7   c-0.5-2.9-3.9-6.3-1.9-9c3.7-0.6,5.8-4.2,6.8-7.5l0,0c0.6-0.3,0.7-0.8,0.6-1.4c1.8-5.4,1.2-11.7,1.5-17.6c0.3,0,0.6,0,1.1,0   c0.4,4.7,4,7.4,7.5,10.1C441.5,162.1,441.6,161.8,441.6,161.5z" />
	<path display="inline" fill="#928F9E" d="M435.5,120c5-7.3,17.8-11.7,25.1-5.8c-8.2-0.1-17.2,1.6-22.3,8.5   C436.6,122.5,435.7,121.6,435.5,120z" />
	<path display="inline" fill="#8D8690" d="M435.5,120c0.2,1.7,1.1,2.6,2.8,2.7c-2.6,4.5-5.6,8.9-6.2,14.2c-0.5,0-0.9,0-1.4,0.1   c0,0,0,0,0,0c-0.4-0.3-0.8-0.6-1.2-0.9C430.7,130.8,431.6,124.3,435.5,120z" />
	<path display="inline" fill="#3B2C27" d="M430.7,137c0.5,0,0.9,0,1.4-0.1c-0.7,1.9,0.5,0.9,0.7,2.7c-1.1,0.4,0.2,1.2-0.3,1.8   c-1.5,0.4-2.9,2.9-0.7,3.5c0.2-0.9,0.4-1.6,0.6-2.3c0.4-0.1,0.7-0.1,1-0.2c-0.1,1.2,0.1,2.3,1,3.3c-0.1,0.5-0.2,0.9-0.2,1.4   c-0.8-0.4-1.6-0.7-2.4-1c0.1,1.5,0.3,3,0.4,4.5c-0.9-0.4-1.7-1.1-2-2.1c1.4-0.5-0.8-3.2-1.5-1.9c-0.6-0.9-1.2-1.9-1.7-2.7   c0.2-1.4,0.4-2.4,1-3.5c0.4,0.2,0.8,0.4,1.3,0.6c0,0.4,0.1,1,0.1,1.5c-0.8,0.4-0.9,1,0,1.8c0-0.7,0-1.3,0-1.8   c0.7-0.5,1.3-1.1,2-1.6c-0.7-0.9-1.3-1.7-2-2.5C429.9,137.9,430.3,137.4,430.7,137z" />
	<path display="inline" fill="#221815" d="M436.2,158.1c-1.3-1.5-2.1-3.3-2.2-5.3c-0.5,0-0.8,0-1.1,0c0-0.5,0-1,0-1.5   c0.9-0.2,1.8-0.4,2.6-0.6c-0.3,2.4,0.9,4.4,1.6,6.6C436.8,157.5,436.5,157.8,436.2,158.1z" />
	<path display="inline" fill="#856559" d="M435.5,150.6c-0.9,0.2-1.8,0.4-2.6,0.6c-0.2-0.2-0.5-0.4-0.7-0.6   c-0.1-1.5-0.2-2.9-0.4-4.5c0.8,0.3,1.6,0.7,2.4,1C434.2,149.1,434.2,149.1,435.5,150.6z" />
	<path display="inline" fill="#82695D" d="M433.4,142.5c-0.3,0.1-0.6,0.1-1,0.2c-0.2,0.8-0.4,1.5-0.6,2.3c-2.2-0.7-0.8-3.2,0.7-3.5   c0.5-0.6-0.8-1.4,0.3-1.8c0.5,0.3,0.9,0.5,1.4,0.8C433.9,141.1,433.7,141.8,433.4,142.5z" />
	<path display="inline" fill="#7D6155" d="M429.4,142.4c0-0.5-0.1-1.1-0.1-1.5c-0.5-0.2-0.9-0.4-1.3-0.6c0.1-0.9,0.2-1.8,1.4-2   c0.6,0.8,1.2,1.5,2,2.5C430.7,141.3,430.1,141.9,429.4,142.4L429.4,142.4z" />
	<path display="inline" fill="#1D1817" d="M432.8,157.4c-0.1,2.5,0.5,5.2-0.5,7.6C432.4,162.5,431.5,159.6,432.8,157.4z" />
	<path display="inline" fill="#7C5B50" d="M428.6,146.5c0.7-1.3,2.9,1.4,1.5,1.9C429.7,147.8,429.2,147.2,428.6,146.5z" />
	<path display="inline" fill="#3B2C27" d="M430,133.5c0.1,0.8,0.3,1.6-0.5,2.2C429.4,134.9,429.1,134.1,430,133.5z" />
	<path display="inline" fill="#3B2C27" d="M429.5,136.1c0.4,0.3,0.8,0.6,1.2,0.9C430.1,137,429.5,137,429.5,136.1z" />
	<path display="inline" fill="#1D1817" d="M431.4,170.3c0.1,0.6,0,1.1-0.6,1.4C430.7,171.1,430.7,170.6,431.4,170.3z" />
	<path display="inline" fill="#393F3F" d="M417.4,157c0.4,0.3,0.3,0.5,0,0.8C417.1,157.6,417.3,157.3,417.4,157z" />
	<path display="inline" fill="#1D1817" d="M432,168.3c0.1,0.6,0,1.1-0.6,1.4C431.4,169.1,431.4,168.6,432,168.3z" />
	<path display="inline" fill="#313232" d="M408.3,94.7c-0.2-0.2-0.4-0.5-0.6-0.7C407.9,94.3,408.1,94.5,408.3,94.7z" />
	<path display="inline" fill="#EAA388" d="M419.3,332.9c22.3,1.9,46,7,67.7-0.9c9.6,34.3,7.9,70.3,5.9,105.4   c2.2,35.4,4.1,71.1,1.6,106.6c-2.7,1.1-5.6,2.1-6.2,5.4c-1.3,0-2.6,0-3.8,0c-1.3-11.9,3.3-37-4-45.6c-0.2,4.2,0,6.8-0.3,11.2   c-1.6-3.1-2-5.7-2.9-8.9c-0.3-8.8-6.1-16.7-4.8-25.7c1.6-5.2-1.5-11.1,2.6-15.5c1.6,2.3,3,4.4,4.4,6.5c-2,1.5-0.1,3.2,0.5,4.9   c0.6,1.4,1.6-0.2,2.3-0.8c0.5,0.9,0.9,1.9,2.1,2c0.8-10.9-9.3-18.6-11.9-28.4c-6.8-24.6-5.6-51-4.5-76.4c-2.4,0.3-3.5,4-4.2,6.3   c-2.9-7.6-2.8-17-4.7-25.8c-0.6-0.4-1.7-1.6-2.7-1.9c0.1-0.9,1.4-1.5,0.7-2.6c-15.3,13-14.7,71-25.8,94c-3,9.8-7.1,19-11.5,28.2   c-2.5,9-0.3,18.8-3.9,27.8c-5.8,16.5-9.5,33.4-11.3,50.7c-0.6-0.5-1-0.9-1.6-1.5c-2.2,0-4.2,1.3-6.5,1.6   c-1.4-10.5,3.1-22.3,2.6-33.5c-1.1,1-1.8,1.7-2.8,2.7c-0.7-21.5-0.6-41.9,8.8-61.7c3.5,3.1,0.9,6.9,4.6,9.2   c4.2-9.9-1.9-21.3,1-31.7c4.1-33.7-0.1-67.9,6.4-101.3C418.2,333.1,418.8,333,419.3,332.9z M441,349.4c-2.3-2.6-6.8-6.1-10.1-6.3   c3.4,2.6,7.3,4.3,10.5,6.7C441.2,349.6,441.1,349.5,441,349.4z M421.3,439.9c0.4,0.2,0.8,0.4,1.4,0.7c-0.3-4.8-0.9-11.5-5.8-13.6   c-0.6,0.6-1.2,1.2-1.7,1.7c0,3.4-0.1,6.7,3.3,7.1c0.9,1,2.2,1.9,2.1,3.4C420.6,439.4,421,439.7,421.3,439.9z M483.2,441.2   c-0.4-0.4-0.8-0.7-1.3-1.2c-0.1-0.8-0.1-1.7-0.2-2.5c-1.6-1.7-2.9-3.6-5.4-3.7C469,437.9,483.8,447.5,483.2,441.2z M414,483.1   c1.3-1.5,5.1-6.5,3.2-8.9C415.8,475.5,413.2,480.1,414,483.1z M488.5,430.5c-1.8,1.8-2.4,4.7-2.9,7.6   C488,436.2,489.4,433.4,488.5,430.5z M482.7,484.9c1.2-1.2-0.2-4.3-1.9-3.8C481.1,482.5,481.4,483.9,482.7,484.9z M437.1,351.7   c2.1,1.8,2.6,2.1,5.1,2.5C440.1,352.3,439.3,351.9,437.1,351.7z M412.7,485c-0.6,1.3-0.7,2.5-0.1,3.8   C414.1,486.9,414.1,486.2,412.7,485z M409.9,497.5c1.6-1.2,1.7-1.9,0.3-3C409.4,495.4,409.4,496.4,409.9,497.5z M482,487.9   c0.3,0.5,0.6,1,0.9,1.7C483.6,488.5,483.4,487.9,482,487.9z M484.5,493.1c-1-0.4-1.3-0.5-1.5-0.6   C482.3,493.8,483.3,493.7,484.5,493.1z" />
	<path display="inline" fill="#F5DDCE" d="M473,210.5c2.9-7.2-3.3-14.7-7-21c7.9,1.6,28.9,36.6,26.8,45.6   c-8.7,12.1-19.7-0.4-27.7,2.9c0.2,2.4,0.3,2.7,2.5,4.4c-0.8,0.1-1.5,0.1-2.9,0.3c1.7,0.6,2.3,1.6,3.5,0.5c1.4-0.2,1.3,1.2,2,2.1   c3.3,3.7,8.8,2.1,12.3,5.4c-8.9,48.1-10.6,30.2,4.1,78.9c-21.1,8.1-45.4,3.6-67.4,1.3c0.5-6.4,1.8-14.9,6.2-19.5   c3,6,4.9,11.3,9.7,16.6c-1.5-15.7-11.4-29.1-10.4-45.2c-0.4-15.9,0.9-30.8,16.9-37.6c4.6-0.2,18.5-3.4,17.5-9.4   c-13.3,0.7-29.9,2.5-38.2-10.3c-1.5-0.1-2.8-0.1-4-0.2c-1.1-1-2-1.8-2.8-2.6c-0.8,0.2-1.4,0.3-2,0.5c-0.1-0.5-0.2-0.8-0.3-1.1   c7.8-11.3,11.4-25.3,5.2-38.2c1-1.6,2.3-2.6,4.3-3.2c3.8,14.3,11,27.6,26.1,32.2C455,215,467.6,218,473,210.5z M457,277.6   c-2,1.9-0.5,5-1.3,7.4c-0.8,6.4-0.6,12.9,1.6,18.9C456.7,295,459.9,286,457,277.6z M477.5,313.3c-1.4,0.4-3.2,7.2-3,8.8   C476.4,320.2,478.4,316.4,477.5,313.3z M470.2,289.1c0.7,2-0.1,4.6,1.8,5.8C472.4,292.6,471.7,290.8,470.2,289.1z M469.9,282.7   c-1.8,0.6-1.3,2.6,0,3.4C470.5,284.8,470.7,283.7,469.9,282.7z M469,331.2c1.6,0.3,1.8,0.1,1.6-1.9   C469.9,330.1,469.5,330.6,469,331.2z M471.9,327.7c1.1-0.9,1-1,1.1-2.4C471.8,325.8,471.4,326.4,471.9,327.7z M469.6,276.8   c0.1,0.1,0.3,0.1,0.4,0.2c0.2-0.3,0.3-0.6,0.5-0.9c-0.2-0.1-0.4-0.2-0.6-0.3C469.9,276.1,469.8,276.5,469.6,276.8z M470.2,271.1   c-0.8,0.6-0.9,1.6-0.1,1.6C470.1,272.2,470.1,271.8,470.2,271.1z M470.1,280.9c-0.2-0.2-0.3-0.2-0.5,0   C469.8,281.2,469.9,281.2,470.1,280.9z" />
	<path display="inline" fill="#B28C7D" d="M386.6,364.9c-0.7-14,1.6-27.9-0.8-41.6c-1.2-16.8-8.4-36.6,1.2-52c2,2.3,3.6,6.9,7,7.1   c-0.3-2.6-1.4-5-2.7-7.2c0.9-1,0.9-1,0-2.1c-8.1-11.5-2.9-28.2,0-40.8c9.6,3.9-7.1-16,4-34.1c1.5-1.9,3.7-2.6,5.9-3.1   c5.3-0.7,9.3-4.3,14.1-6c5.2,11.7,2.4,25.6-5.1,35.6c-0.3-0.4-0.5-0.6-0.8-0.9c-4.5,2.1-2.5,23.5-4.6,29.8   c-3.1,10.7-5.4,21.5-4.7,32.7c-0.9,17.3-6.5,34.3-6.2,51.7c-0.6,0.5-0.9,0.8-1.3,1.1c0.3,0.8,0.5,1.6,0.8,2.3   c0.9,5.4,6.8,9.7,10,14.3c0.2,2.5-0.5,5.3,0.6,7.6c-0.3,2.9,0.3,5.6,1.3,8.1c-5.4,2.4-3.1-9-6.6-11.6c0.2,6.6,1.1,13.5,2.7,19.7   c-1.2-0.3-1.9-1.3-2.8-2c-0.2-3.2-0.8-5.7-2.5-8.5c-0.3,0.6-1.1-0.6-1.6,0.6c2.1,3,2.4,6.7,1.9,10.4c-0.5,0.1-0.9,0.2-1.3,0.3l0,0   c0.1-0.6,0.1-1.1-0.6-1.4c-0.9-4.2-1.1-8.3-5.1-10.7c-0.6,0.9,0,1.5,0.4,2c2.1,3,3.9,6.6,3,10.3   C390.6,372.2,389.7,367.6,386.6,364.9z M393.1,331.2c-1.6-0.1-1.2,1.2-0.3,1.9C393.5,332.4,393.2,331.9,393.1,331.2z M392.5,360.3   c-0.4,0.8,0.1,1.2,0.6,1.8C393.6,361.2,393.5,360.6,392.5,360.3z" />
	<path display="inline" fill="#D69479" d="M419.3,332.9c-0.6,0.1-1.1,0.1-1.9,0.2c-6.5,33.4-2.3,67.6-6.4,101.3   c-2.9,10.4,3.1,21.8-1,31.7c-3.7-2.3-1.2-6.2-4.6-9.2c-9.4,19.9-9.5,40.2-8.8,61.7c1-1,1.7-1.6,2.8-2.7c0.5,11.2-4.1,23-2.6,33.5   c-3.1,1.5-2.4,5.3-3.8,8.1c0.8-29-7.8-60.5,1.9-89.5c15.5-25.5,5.9-54.4,5.4-82.2c7.6-3.8,1-11.5,2.4-17.4c1.5,0,3,0,4.1-1.1   c-0.6-25.3-12.3-20.1-6.5-35.1C406.6,332.9,413.3,331.1,419.3,332.9z" />
	<path display="inline" fill="#E6CCBB" d="M445.8,244.6c-1.2,1-2.7,0.5-4.2,0.6c-15.9,6.8-17.3,21.7-16.9,37.6   c-1,16.1,8.9,29.5,10.4,45.2c-1-1.4-1.6-2.2-2.3-3.1c1.3-0.9,0-2.6-1.2-3.4c-0.1,0.5-0.2,1-0.2,1.4c-1.7-2-3.5-4.8-3.6-7.4   c0.4,0.4,0.8,0.9,1.4,0.2c-0.2-0.8-0.1-1.8-1.4-2.2c-0.1,0.4-0.3,0.8-0.4,1.2c-0.6-1-1.2-2-1.9-3.3c-4.4,4.6-5.7,13.1-6.2,19.5   c-6.1-0.8-12-0.4-18.2-0.5c31.2-70.8,5.8-48.6,7.6-105.6c1-0.9,2-1.8,3.1-2.6c0.1,0.3,0.1,0.6,0.3,1.1c0.7-0.2,1.3-0.3,2-0.5   c0.8,0.8,1.8,1.6,2.8,2.6c1.2,0.1,2.5,0.1,4,0.2c8.3,12.8,24.9,11,38.2,10.3c0.1,3.2-1.6,5.1-5.3,5.9c0.5-0.6,1.1-1.1,0.5-1.9   c-0.9,0.2-1.7,0.3-1.8,1.4c0.2,0.2,0.5,0.4,0.7,0.6c-0.7,0.4-1.5,0.8-2.2,1.2c-0.1-0.3-0.1-0.6-0.2-0.9c-12,1-26.9,2-32.2-11.4   c-1-1.2-1-1.2-2.3-1.4C421.7,243,432.1,246,445.8,244.6z M415.4,227.2c1.7,0,0.3-2.6-0.6-1.4C415,226.3,415.2,226.7,415.4,227.2z    M457.1,238.8c-0.6-0.6-0.7-0.2-1,0.3C456.4,239.7,456.7,239.1,457.1,238.8z M426.4,310.4c0.5-0.4,0.3-0.7-0.1-1.1   C426,309.8,426,310.1,426.4,310.4z" />
	<path display="inline" fill="#D69479" d="M479,474c-0.5-1.3-0.5-1.3,0.6-2.5c-1.4-2.1-2.9-4.2-4.4-6.5c-3.2,3.4-1.8,7.7-2.1,11.8   c0.4,2.2-1.2,4.5-0.5,6.7c0.1,8,4.7,14.8,5,22.7c0.9,3.2,1.3,5.7,2.9,8.9c0.2-4.4,0-6.9,0.3-11.2c7.3,8.6,2.7,33.7,4,45.6   c-0.7,0-1.3,0-1.9,0c-1.4-7.7-2.3-15.5-3.4-23.3c-4.1-20.9-15.4-41-10-62.9c0.1-36.8-29.5-72.9-15.9-109.8   c-0.7,0.3-1.1,0.5-1.5,0.7c-0.2-1.6,1.5-2.1,2.6-2.7c0.3,1.2,1.3,0.4,2,0c1,0.3,2.1,1.5,2.7,1.9c1.9,8.8,1.8,18.2,4.7,25.8   c0.7-2.2,1.8-6,4.2-6.3c-1.1,25.4-2.3,51.8,4.5,76.4c2.6,9.8,12.7,17.6,11.9,28.4c-1.2-0.1-1.6-1.1-2.1-2c-0.4,0.4-0.7,0.7-1.1,1   c-0.3-3.2-0.3-3.2-2.1-4C479,473.1,479,473.6,479,474z" />
	<path display="inline" fill="#B28C7D" d="M425.9,188.2c0.1-0.6,0.1-1.1,0.2-1.7c5.6-4.6,11.1-12,10.8-19.5   c4.8,6.9,10.4,12.6,17,17.6c0.2,0.9,0.5,1.7,1.4,2.7c0.1-0.9,0.1-1.4,0.2-1.9l0,0c0.1,0,0.4,0,0.6,0c2.8,3.2,8.2,2.9,10.2,6.7   c2.6,6,5.8,11.7,6,18.3c-1.6,0.4-2.4,1.5-3.2,2.8c-2.9-0.1-5.8-0.2-8.8-0.3c-1.3-2.4-1.9-5.5-4.3-7.1c0.3,1.2,0.5,2.4,1.4,3.2   c0.1,1.1,1.1,2,0.6,3.3C443.2,212.9,429.5,202.2,425.9,188.2z M429.5,188.3c0.7,1.8,4,1.2,6,1.5   C433.9,187.8,432.8,187.6,429.5,188.3z M443,190.9c1,0.7,1.6,0.9,2.1-0.2C444.4,189.8,443.8,189.8,443,190.9z M440.8,190.7   c-1.3-1.5-1.3-1.5-2.4,0C439.2,190.7,439.9,190.7,440.8,190.7z" />
	<path display="inline" fill="#F7EFD0" d="M509.1,566.5c1.2,0.3,1.7,1.4,2.4,2.2c3.3,6.6,13.7,5.2,11.7,11.3   c-6.6-1-12.2,4.3-18.4,2.9c-4.6,0.1-8.7-2.1-13.5-1.4c-2.3-2.7-4.8-0.9-7,0c-1.8-0.7-3.4-1.2-5.2-1.9c0-7.8-2.1-16.6,0.8-24   c0.6,1,1.2,2.1,1.9,3.2c1.2,0.1,2.3,0.2,3.4,0.2c5.7-4,3.9-16.2,13.6-11.3c0.5,2.8,1,5.5,1.6,8.4c-3.5,0.9-13.5,0.1-11.2,5.7   c2.9-2.2,6.2-3.9,9.6-2.3c-2,0.8-8.5,2.2-5.2,5.2c3.2-2.8,7.3-3.2,11.1-4.3c0.3,0.5,0.5,0.9,0.8,1.4l0,0c-2.2,1.5-11,3-8,6.7   c3.1-2,6.1-3.6,9.5-4.9C507.7,564.7,508.4,565.6,509.1,566.5c-2,0-9.6,2.8-7.1,5.3C503.8,571.5,509.8,568.9,509.1,566.5z    M511.5,570.7c-1.8-1.2-4.4-0.8-5.2,1.4C507.6,573.6,510.8,573.1,511.5,570.7z" />
	<path display="inline" fill="#F7EFD0" d="M406.9,555c6.8,8.5,9.1,22.6,17.7,30.7c1.9,1.6,2.4,3.7,1.5,6.1   c-4.3,1.3-9.3-2.5-13.6,0.7c-5.2,3.2-11.1-0.4-16.6,0c-2.6-2.5,0.6-6.4-4.5-7.1c-1.7-12.3,3.1-21.7,5.8-33.2   c1.6-0.5,3.3-1.2,5.2-1.8C403.8,551.8,405.3,553.4,406.9,555z M400.3,567.9c-0.2,1.1-0.8,2.4,0.8,3.2c2.5-4.7,5.8-3,9.5-5.2   c-1.7-2-3.8-0.6-5.7-2.1c1.6-0.5,3.1-1.1,4.7-1.6c-1.7-3.8-6.6,0-9.2,0.9C398.1,563.9,396.8,568.7,400.3,567.9z M401.3,574   c3.6,0.2,6.8-2.6,10.3-3.7C411,566.3,401.4,571.1,401.3,574z M412.7,573.6c-1.7-0.7-10.6,2.4-8.4,4.9   C407.2,577.1,411.4,576.8,412.7,573.6z M406.2,581.4c2.5-0.1,6.8-0.4,8.4-2.7C413,577.6,406.3,578.2,406.2,581.4z" />
	<path display="inline" fill="#977264" d="M391.3,228.2c-3.3,12.2-6.3,25.8-2.1,38.1c-1.4,1.1,0.7,4.2,2.1,4.8   c0.5,0.9,0.9,1.7,1.4,2.6c-1.4,0.6-0.6,2.4-0.8,3.5c-2.4-1.3-3.2-4-4.9-5.9c-9.6,15.3-2.5,35.2-1.2,52c2.2,13.4,0.3,26.9,0.7,40.4   c-0.5-0.7-0.9-1.4-1.4-2.1c2.6-24.6-5.6-48-6.8-72.5c0.9-11.1,5.9-21.5,4.8-32.9c0.7-12.2,5.2-24.4,4.4-36.4   c-1.1-9.3-0.8-19.9,7.7-25.7C384.2,212.3,400.9,232.1,391.3,228.2c0-2.7-0.6-4.9-2.2-6.9c-1.8,2.8,1,4.2,1.2,6.7   C390.7,228.1,391,228.2,391.3,228.2z" />
	<path display="inline" fill="#EADCB7" d="M479.9,555.6c-2.9,7.4-0.7,16.2-0.8,24c1.8,0.7,3.4,1.2,5.2,1.9c2.2-0.9,4.7-2.7,7,0   c4.8-0.6,8.8,1.5,13.5,1.4c6.2,1.4,11.8-3.9,18.4-2.9c0.1-0.7,0.2-1.4,0.3-2c1,1.9,1.1,4.1,1.8,6c-9.4,5.9-23.1,6-33,1   c-2.3-1.2-4.4-1.5-6.8-0.7c-3.8,1-8-1.2-11.8-1.6c0.7-4.5,3.2-9,2-13.9c-0.7-5.5,1.9-10.5,2.5-16.1   C479.5,553.2,479.8,554.3,479.9,555.6z M512.4,585.2c0.8,0.9,1.6,0.5,2.1-0.1c2.6-2.9,6.7-0.4,9.5-2.6   C521,580.5,513.2,580.8,512.4,585.2z" />
	<path display="inline" fill="#E5CBBA" d="M482.5,250.6c-2.7-3.5-8.4-1.1-10.9-4.7c0.4-0.1,0.8-0.2,1.5-0.4c-1.2-0.4-2.5-1.9-3-0.4   c-0.7-0.8-0.6-2.3-2-2.1c-1.9-2-3.3-2.4-3.2-5.1c8-3.2,19.1,9.2,27.7-2.9c0-1.6,0-3.3,0-5c2.7,7.1-0.6,15.3-7.9,18   C483.8,248.7,482.5,249.1,482.5,250.6z M474.6,246.1c2.7,0,7.4,2.3,9-0.2C480.6,246,477.4,245.3,474.6,246.1z" />
	<path display="inline" fill="#EADCB7" d="M392,567.3c-0.7,5.9-0.8,11.8-0.7,18c5.2,0.7,1.9,4.6,4.5,7.1c5.5-0.4,11.4,3.3,16.6,0   c4.3-3.2,9.3,0.6,13.6-0.7c-0.1,0.4-0.1,0.8-0.2,1.3c-3.5-0.3-6.8-0.5-10.3-0.8c-0.7,1.3-2.4,1.4-2.5,3.3c0.7,0.1,1.3,0.1,2,0.2   c0.3,0.2,0.5,0.4,0.8,0.6c-7.1,2.3-14.6,0.7-21.9-0.2c-1.5-2.4-0.5-5.6-2.3-7.7c-1.4,0.3-0.6,1.7-1.3,2.7c-1.4-0.2-2.8-0.1-4.2-0.8   c2.5-7.9,2.7-15.4,1.9-23.6c0.5-0.1,0.9-0.2,1.3-0.3C389.8,567.9,391,567.3,392,567.3z" />
	<path display="inline" fill="#0F0A09" d="M405,352.7c0.8,4.9,0.6,9.8,1.8,14.9c-1.1,1.1-2.7,1.1-4.1,1.1   c-1.6,5.4,4.7,12.2-1.1,16.4c0.4-1.2,1-2.4-0.1-3.6l0.1-0.1c0.4-0.1,0.8-0.2,1.2-0.3c-1-8.5-4.2-16.7-3.8-25.5   c3.5,2.6,1.2,14,6.6,11.6C403.9,363,403.1,356.6,405,352.7z" />
	<path display="inline" fill="#0F0A09" d="M396.8,372.4c0.1-2.7-0.9-5-2.1-7.1c0.5-1.2,1.3,0,1.6-0.6c3.4,5.2,1.6,11.6,5.3,16.6   c-0.2,0.3-0.5,0.5-0.8,0.8C397.9,379.5,398,375.8,396.8,372.4z" />
	<path display="inline" fill="#161311" d="M507.1,563.7c-3.4,1.3-6.4,2.9-9.5,4.9c-3.1-3.7,5.7-5.2,8-6.7   C506.6,562,506.5,563.1,507.1,563.7z" />
	<path display="inline" fill="#957567" d="M487.8,551.7c-0.7,2.2-1.9,3.7-3.4,5.1c-2.7-0.3-2.3-3.1-1.8-5.1   C484.3,551.7,485.8,551.7,487.8,551.7z" />
	<path display="inline" fill="#89685C" d="M396.8,372.4c1.2,3.4,1.1,7.1,4,9.7c0,0.2,0,0.4,0.1,0.6c0,0.2-0.1,0.5-0.1,0.7   c0,0,0,0,0,0c-0.4,0-0.9-0.1-1.3-0.1c-2-2.1-3.1-4.7-4.2-7.4c0.4-0.1,0.8-0.2,1.3-0.3C396.7,374.5,396.7,373.5,396.8,372.4z" />
	<path display="inline" fill="#3D302B" d="M393.5,337.2c-0.2-0.7-0.5-1.5-0.8-2.3c0.3-0.3,0.7-0.6,1.3-1.1c0.4-2.7-0.6-6.4,0.6-9.1   c0,3.9,0,7.8,0,11.9C394.2,336.8,393.9,337,393.5,337.2z" />
	<path display="inline" fill="#231815" d="M405,352.7c-1.7,1.4-0.5,4.4-0.9,6.4c-1.1-2.3-0.5-5.1-0.6-7.6c-0.7-1-1.4-1.8-2.1-2.7   c0.3-0.3,0.6-0.6,0.9-1C404.1,348.9,404.2,351,405,352.7z" />
	<path display="inline" fill="#A0A791" d="M498.8,559.6c-0.7-0.2-1.4-0.4-2.1-0.7c1.9-0.7,3.8-0.9,5.9-1.1c0.1,0.1,0.2,0.4,0.4,0.8   C501.6,559.2,500.2,559.5,498.8,559.6z" />
	<path display="inline" fill="#1C1715" d="M468.9,213.2c0.9-1.5,2.1-3.1,4.1-2.8c-0.6,2-2.3,2.7-4.1,3.3   C468.9,213.6,468.9,213.4,468.9,213.2z" />
	<path display="inline" fill="#70564B" d="M392.7,559.8c0.4,1.2-0.1,2.7-0.6,3.8C390.3,563.8,391.1,559.7,392.7,559.8z" />
	<path display="inline" fill="#785B51" d="M457.2,209.1c-0.9-0.8-1.2-2-1.4-3.2c1,0.6,1.8,1.5,2.2,2.6   C457.7,208.7,457.5,208.9,457.2,209.1z" />
	<path display="inline" fill="#7C8C8C" d="M408.2,251.4c-0.4,0-0.8,0-1.3-0.1c0.1-0.6,0.1-1.1,0.2-1.8   C408.1,250,408.4,250.6,408.2,251.4z" />
	<path display="inline" fill="#0F0A09" d="M399.5,383.3c0.4,0,0.9,0.1,1.3,0.1C400.1,384.3,400,384.3,399.5,383.3z" />
	<path display="inline" fill="#161311" d="M505.6,561.9c-0.3-0.5-0.5-0.9-0.8-1.4C505.7,560.6,505.7,561.2,505.6,561.9z" />
	<path display="inline" fill="#3D302B" d="M393.9,339.3c-0.6-0.3-0.7-0.9-0.5-1.5C394,338.1,394,338.7,393.9,339.3z" />
	<path display="inline" fill="#0F0A09" d="M400.8,383.4c0-0.2,0.1-0.5,0.1-0.7C401.5,383,401.3,383.2,400.8,383.4z" />
	<path display="inline" fill="#B28C7D" d="M598.3,185.3c1.3,2.6,4.3,0.5,7.1,0.6c5.6,2.2,11.3,4.4,16.7,7.2c-3,1.4-5.5-0.9-8.5-1   c-2.8,0.2-5.3-1.5-7.9-0.1c-0.6,0.2-1.1,0-1.4-0.6l0,0c1.4-0.7,0.4-2.1,0.7-3.7c-1.9,1.1-1.2,2.1-1.3,3.7c-1.2,0.8-2.6,1.9-4.1,2   c-0.2-0.2-0.4-0.5-0.7-0.7c1.3-3.4-0.1-7.1-4.5-6.1c-1.2,1.7-2.3,3.5-3.4,5.1c-0.7,0.1-1.2,0.2-2,0.4c2.9,2.8,5.2-1.4,6.1-4.1   c0.8,0.3,1.5,0.5,2.1,0.8c0.3,2.1,0.3,2.1-1.4,4.2c0.6,0.3,1.2,0.5,1.7,0.8c0,0.4,0,0.7-0.1,1.1c-3.2,2.1-6.7-1.7-10.2-0.6   c0-2,1.6-2.7,1.4-4.8c-1.7,1.2-2.5,2.4-2.6,4.1c0,0-0.2-0.1-0.2-0.1c-0.4,0.4-0.7,0.8-0.8,1c-18.1,4.3-35.3,11.1-53.8,13.3   c-6.9-0.3-13.7,5.4-20.3,1.6c3.2-0.8,4.4-3.3,7.2-5.1c-10.6-0.7-20.8,4.5-31.6,1.5c0-0.2,0.1-0.5,0.1-0.7c1.1-0.7,0.4-1.8,0.6-2.7   c1.2-1.2,1.8-2.7,3.2-3.9c-4.7-1.6-6.4,2.4-9.9,3.8c-3-4.9-7-9-10.9-13.4c25.3-3.3,12.3,9.1,46.2,4.5c13,0.7,24.9-4.5,38-4.5   c7.8-0.8,15.6,1.3,23.3-0.2c7.6,0.7,13.4-5.7,20.8-4.7C598.2,184.5,598.3,184.9,598.3,185.3z M514.7,208.7c0.1,1.8,1.2,1.1,2.3,0   C515.8,208.7,515.3,208.7,514.7,208.7z M529.6,195.2c-1.2,1.5-1.2,1.5-0.1,1.9C529.5,196.5,529.5,195.8,529.6,195.2z" />
	<path display="inline" fill="#977264" d="M486.6,205.7c10.9,3,21-2.1,31.6-1.5c-2.8,1.7-4.1,4.3-7.2,5.1c6.6,3.8,13.4-1.8,20.3-1.6   c18.5-2.2,35.7-9,53.8-13.3c0.1-0.1,0.5-0.6,0.8-1c0,1,0,2,0,3.1c-17.6,3.8-33.1,14.6-51.5,14c-14.6,1.2-27.5,11.6-42.8,9.9   C488.9,216.1,483.1,210.8,486.6,205.7z M500.8,211.7c-1.2-1.1-1.2-1.1-3.3-1.3C498.2,211.8,499.3,212.1,500.8,211.7z M504.3,211.4   c-0.6-1.4-1.5-1.1-2.6-0.8C502.4,211.8,503.1,212.2,504.3,211.4z M509.6,210.4c0.2-0.1,0.4-0.2,0.5-0.2c-0.2-0.4-0.5-0.2-0.8-0.2   C509.5,210.1,509.6,210.3,509.6,210.4z" />
	<path display="inline" fill="#957062" d="M487.3,202.3c-0.2,0.9,0.5,2-0.6,2.7c-0.1-0.4-0.2-0.8-0.4-1.3c-1.7,0.5-1.5,2.3-2.8,3.2   c-1.2-1.4-2-3.1-2.9-4.7c3.4-1.4,5.2-5.5,9.9-3.8c-1,1.1-1.9,2-2.5,3.2C487.6,200.2,485.9,201.8,487.3,202.3z" />
	<path display="inline" fill="#987063" d="M604.4,191.4c1.6,1.7,4.4-1.1,6.6,0.5c3.4-0.1,6.5,1.6,9.9,1.6   c-6.5,1.7-13.7-0.8-20.5-0.1l-0.1-0.1c1.2-0.6,2.4-1.2,3.5-2C604,191.4,604.2,191.4,604.4,191.4z" />
	<path display="inline" fill="#916A5D" d="M587.4,194.1c3.5-0.8,6.9,2.7,10.1,0.7C596.2,199.5,588.5,199,587.4,194.1z" />
	<path display="inline" fill="#3C2924" d="M454.6,171.7c-3-1.7-5.9-3.5-8.4-6.1c3.4,1.4,6.6,3.6,9.9,5.3   C455.5,171,454.8,171,454.6,171.7z" />
	<path display="inline" fill="#877165" d="M622.1,190c1.5,0.5,2.9,1,4.4,1.5c-0.3,1.3-1.2,1.4-2.1,1.7c-0.2-0.4-0.3-0.8-0.6-1.4   c-0.8-0.3-1.9-0.7-2.9-1C621,189.9,621.7,190.1,622.1,190z" />
	<path display="inline" fill="#70574D" d="M601.6,194.9c1.4,0,2.9,0,4.4,0c-1.7,1.6-3.1,1.7-5.8,0.7   C600.7,195.3,601.2,195.1,601.6,194.9z" />
	<path display="inline" fill="#372924" d="M586.1,193.5c0.1-1.7,0.9-2.9,2.6-4.1c0.2,2.1-1.4,2.8-1.4,4.8   C586.9,193.9,586.5,193.7,586.1,193.5z" />
	<path display="inline" fill="#2E2C27" d="M622.1,190c-0.5,0.1-1.1,0-1.3,0.7c-1.4-0.8-3.3-0.3-4.8-2.1   C618.5,189.6,620.2,188.7,622.1,190z" />
	<path display="inline" fill="#4A3A33" d="M598.3,185.3c-0.1-0.4-0.1-0.8-0.2-1.3c1.3-0.3,2.3,0,3.4,1.3   C600.3,185.3,599.3,185.3,598.3,185.3z" />
	<path display="inline" fill="#342F2A" d="M455.4,185.4c0,0.5-0.1,1-0.2,1.9c-0.9-1.3-1.6-2.2-1.2-3.4   C454.5,184.4,454.9,184.9,455.4,185.4z" />
	<path display="inline" fill="#987063" d="M601.6,194.9c-0.6,0.2-1.3,0.9-2,0.6c0-0.7,0-1.3,0-2c0.2,0,0.4,0,0.6,0l0.1,0.1   C600.2,194.4,600.7,194.8,601.6,194.9z" />
	<path display="inline" fill="#70574D" d="M599.7,193.4c0,0.7,0,1.3,0,2c-0.8-0.8-0.7-1.7-0.6-2.7   C599.3,193,599.5,193.2,599.7,193.4z" />
	<path display="inline" fill="#70574D" d="M601.1,194.8c-0.8-0.1-0.7-0.7-0.7-1.3c0.2,0,0.5,0,0.7,0   C601.1,193.9,601.1,194.4,601.1,194.8z" />
	<path display="inline" fill="#342F2A" d="M455.9,185.4c-0.1,0-0.4,0-0.6,0c0.1-0.2,0.2-0.4,0.3-0.5   C455.7,185,455.8,185.2,455.9,185.4z" />
	<path display="inline" fill="#CDCEAB" d="M415.8,596.4c-0.3-0.2-0.5-0.4-0.8-0.6c0.5-0.5,1-0.9,1.6-1.5c2.7,0.1,5.5,0.2,8.9,0.3   C422.5,596.7,419.2,596.6,415.8,596.4z" />
	<path display="inline" fill="#8D6A5D" d="M389.9,370.5c1.4,1.8,1.8,3.3,3,5.6c0.2-0.9,0.3-1.2,0.4-1.6c0.2,0.2,0.5,0.5,0.7,0.7   c-0.2,2.4,1.3,3.3,2.2,5.6C391.7,378.8,389.4,375.2,389.9,370.5z" />
	<path display="inline" fill="#221917" d="M394.1,375.2c-0.2-0.2-0.5-0.5-0.7-0.7c-0.5-3.2-1.3-6.2-3.4-8.7c-0.4-0.5-1-1-0.4-2   c4,2.5,4.7,7.1,5,11.4C394.5,375.2,394.2,375.2,394.1,375.2z" />
	<path display="inline" fill="#4A352F" d="M388.5,372c-1.7-1.8-1.6-3.5-1.8-5.1C387.9,368.1,388.4,369.7,388.5,372z" />
	<path display="inline" fill="#89685C" d="M394.6,375.2c0-0.2,0.1-0.5,0.1-0.7c0.7,0.3,0.7,0.8,0.6,1.4   C395.1,375.7,394.8,375.5,394.6,375.2z" />
	<path display="inline" fill="#4A352F" d="M386.6,364.9c0.5,0.1,1.1,0.2,1.2,0.9C387.2,365.7,386.6,365.7,386.6,364.9z" />
	<path display="inline" fill="#4A3B36" d="M467.5,141.1c-0.5,0.3-1,0.6-1.7,1.1c-0.1,0.3-0.3,0.9-0.6,1.6c-2-1.4-1-4.3,0.5-6.1   c0.3,0.4,0.6,0.6,0.8,0.9c0.4-0.3,0.7-0.6,1.1-0.9c0.2,0.7,0.4,1.4,0.6,2C466.7,140,466.7,140,467.5,141.1z" />
	<path display="inline" fill="#B5BFBF" d="M467.5,141.1c-0.8-1.1-0.7-1.1,0.7-1.4c0.1,0.4,0.2,0.9,0.2,1.3   C468.1,141,467.8,141.1,467.5,141.1z" />
	<polygon display="inline" fill="#495D5D" points="470.5,139.3 470.7,139.2 470.7,139.4  " />
	<path display="inline" fill="#55413A" d="M466.8,156.1c0.8,0.9,1.7,1.8,2.7,2.5c-0.6,2.2-1,4.5-2.5,6.3c-0.5-0.5-1.1-1-1.6-1.5   c0.4-1.1,2.2-2.1,1.4-3.3c0.3-0.5,1.8-1,0.6-1.4c-0.3-1.2-0.3-1.2-2-1.4C465.9,156.9,466.4,156.5,466.8,156.1z" />
	<path display="inline" fill="#14100E" d="M446.6,138.4c4-1.1,10.9-2.9,11.2,3.3C453.8,143,447,143.5,446.6,138.4z M451.8,139.1   c-1.1,0.3-1.8,0.6-2.5,0.8c0.3,1.3,1.4,1.4,2.5,1.8C451.8,140.9,451.8,140.2,451.8,139.1z M455.2,140c-0.1-0.1-0.1-0.1-0.2-0.2   c-0.2,0.1-0.2,0.2,0,0.4C455,140.1,455.1,140.1,455.2,140z" />
	<path display="inline" fill="#8B6C5F" d="M466.8,160.1c0.8,1.2-1,2.2-1.4,3.3c-3.1,0.3-5.8-1.7-8.7-2.5c0-0.2-0.1-0.4-0.1-0.7   C460,160.1,463.4,160.1,466.8,160.1z" />
	<path display="inline" fill="#271816" d="M447.8,133.7c4.8-1.5,8.8-0.9,12.1,2.1c-0.6,0.8-1.3,0.6-2.1,0.3c-3-1.2-6.1-1.6-9.2-1.6   C448.4,134.1,448.1,133.9,447.8,133.7z" />
	<path display="inline" fill="#2E1A17" d="M466.8,160.1c-4-0.1-8.1,0.4-12.1-0.2c0.2-1.4,1.1-1.2,1.9-1.2c0.1,0.2,0.2,0.3,0.3,0.5   c0.1-0.1,0.2-0.3,0.3-0.4c0.2,0,0.5,0,0.7,0l0,0C459,161.3,470.8,156.7,466.8,160.1z" />
	<path display="inline" fill="#412D28" d="M458.9,149c-0.1,1.3-0.1,2.2-0.2,3.7c1.5-0.9,2.5-2.3,4-0.9c0.1,0.9-0.7,0.6-1.1,0.9   c-0.5,0.3-0.9,0.7-1.4,1.1C457.5,153.7,455.7,150.5,458.9,149z" />
	<path display="inline" fill="#422924" d="M466.8,156.1c-0.5,0.4-0.9,0.8-1.4,1.2c-2.7-0.5-5,0.7-7.5,1.4c0,0,0,0,0,0   c0-0.2,0-0.5,0-0.7C460.7,156.3,463.6,155.6,466.8,156.1z" />
	<path display="inline" fill="#41342F" d="M467.5,148.5c3,3.5,0.7,5.2-3.4,4.6c0.8-0.8,1.4-1.3,2-1.9c0.8,0.8,2.9,0.2,1.4-0.7   c-0.3-0.4-0.5-0.9-0.8-1.3C467,149,467.3,148.8,467.5,148.5z" />
	<path display="inline" fill="#55413A" d="M456.7,160.8c2.3,0.9,4.5,1.7,6.8,2.6c-0.5,0.1-1.2,0-1.4,0.7   C460.3,163.7,457.1,162.8,456.7,160.8z" />
	<path display="inline" fill="#543F37" d="M436.2,158.1c0.3-0.3,0.6-0.5,0.8-0.8c1.3,1.6,2.7,3.2,4.5,4.3c0,0.3,0,0.6-0.1,1.3   C439.6,161.1,437.4,160.1,436.2,158.1z" />
	<path display="inline" fill="#3D2B27" d="M447.8,133.7c0.3,0.2,0.5,0.5,0.8,0.7c-0.9,0.8-2.1,0.9-3.1,1.2   C444.5,134,447,134.1,447.8,133.7z" />
	<path display="inline" fill="#73584E" d="M467.5,148.5c-0.2,0.2-0.5,0.5-0.7,0.7c-0.9-0.9-1.5-1.8-0.9-3.6   C466.6,146.8,467,147.7,467.5,148.5z" />
	<path display="inline" fill="#1A1210" d="M462.1,164.1c0.6-1.2,2.2-0.6,3.3-0.8c0.2,0.2,0.4,0.5,0.7,0.7   C464.8,164.1,463.4,164.1,462.1,164.1z" />
	<path display="inline" fill="#836056" d="M467.6,150.6c1.5,0.9-0.6,1.5-1.4,0.7C466.4,150.5,467,150.6,467.6,150.6z" />
	<path display="inline" fill="#856559" d="M434.1,147.1c0.1-0.5,0.2-0.9,0.2-1.4C435,146.3,435,146.8,434.1,147.1z" />
	<path display="inline" fill="#8C6A5D" d="M458,158c0,0.2,0,0.5,0,0.7c-0.2,0-0.5,0-0.7,0C457.5,158.5,457.8,158.3,458,158z" />
	<path display="inline" fill="#8B6C5F" d="M456.7,161.4c0.2,0.2,0.4,0.5,0.6,0.7C457.1,161.9,456.9,161.6,456.7,161.4z" />
	<path display="inline" fill="#8C6A5D" d="M457.3,158.7c-0.1,0.1-0.2,0.3-0.3,0.4c-0.1-0.2-0.2-0.3-0.3-0.5   C456.9,158.7,457.1,158.7,457.3,158.7z" />
	<path display="inline" fill="#7D6155" d="M429.4,142.4c0,0.5,0,1.1,0,1.8C428.5,143.4,428.6,142.8,429.4,142.4L429.4,142.4z" />
	<path display="inline" fill="#D69479" d="M481.8,443.3c-4.1-0.7-10.9-5.4-5.5-9.5c2.5,0.1,3.8,2.1,5.4,3.7c0.1,0.8,0.1,1.7,0.2,2.5   c0.5,0.4,0.9,0.8,1.3,1.2C481.9,441.6,481.9,441.6,481.8,443.3z" />
	<path display="inline" fill="#D59379" d="M418.5,435.8c-3.4-0.5-3.3-3.7-3.3-7.1c0.5-0.5,1.1-1.1,1.7-1.7c0.9,0.4,1.9,0.4,2.2,1.5   C416.5,429.8,418.7,433.5,418.5,435.8z" />
	<path display="inline" fill="#2E1F1A" d="M414,483.1c-0.8-3,1.8-7.6,3.2-8.9C419.1,476.6,415.4,481.6,414,483.1z" />
	<path display="inline" fill="#C98B72" d="M419.9,429.7c1.7,2.2,1.9,5,2.6,7.6c-0.3-0.2-0.7-0.4-1.1-0.7c-0.6,1.2-0.1,2.3-0.1,3.3   c-0.2-0.2-0.7-0.5-0.6-0.7c0.2-1.3-0.8-1.9-1.4-2.8C420.9,434.9,419.5,431.8,419.9,429.7z" />
	<path display="inline" fill="#2A1C17" d="M419.9,429.7c-0.4,2.1,1,5.2-0.7,6.8c-0.2-0.2-0.5-0.4-0.7-0.6c0.2-2.3-2-6.1,0.6-7.3   C419.4,428.9,419.6,429.3,419.9,429.7z" />
	<path display="inline" fill="#2D201B" d="M488.5,430.5c1,2.9-0.4,5.7-2.9,7.6C486.1,435.2,486.6,432.3,488.5,430.5z" />
	<path display="inline" fill="#B37B67" d="M440.3,348.7c-3.3-1.3-6.3-3.7-9.4-5.7C433.9,343.2,438,346.3,440.3,348.7L440.3,348.7z" />
	<path display="inline" fill="#31221D" d="M479,474c0-0.4,0.1-0.8,0.2-1.3c1.8,0.9,1.8,0.9,2.1,4C479.8,477.9,479.5,474.8,479,474z" />
	<path display="inline" fill="#473129" d="M482.7,484.9c-1.3-1-1.6-2.4-1.9-3.8C482.5,480.5,483.9,483.6,482.7,484.9z" />
	<path display="inline" fill="#604036" d="M437.1,351.7c2.2,0.2,3,0.6,5.1,2.5C439.7,353.8,439.2,353.5,437.1,351.7z" />
	<path display="inline" fill="#3E2A23" d="M456.4,351.4c-0.6,0.5-1.7,1.2-2,0c0.9-0.8,1.4-2.5,2.7-2.6   C457.8,349.9,456.5,350.5,456.4,351.4z" />
	<path display="inline" fill="#090807" d="M412.7,485c1.5,1.2,1.5,2-0.1,3.8C412,487.5,412,486.3,412.7,485z" />
	<path display="inline" fill="#1C120F" d="M421.3,439.9c0-1-0.4-2.1,0.1-3.3c0.5,0.3,0.8,0.5,1.1,0.7c0,1,0.1,2,0.1,3.3   C422,440.3,421.6,440.1,421.3,439.9z" />
	<path display="inline" fill="#30211C" d="M409.9,497.5c-0.4-1.1-0.5-2.1,0.3-3C411.5,495.5,411.4,496.3,409.9,497.5z" />
	<path display="inline" fill="#4C332A" d="M481.8,443.3c0.1-1.7,0.1-1.7,1.4-2.1C483.3,443.1,483.3,443.1,481.8,443.3z" />
	<path display="inline" fill="#442E27" d="M482,487.9c1.4,0,1.6,0.6,0.9,1.7C482.5,488.9,482.3,488.4,482,487.9z" />
	<path display="inline" fill="#8B5B4D" d="M484.5,493.1c-1.2,0.6-2.2,0.7-1.5-0.6C483.2,492.6,483.5,492.7,484.5,493.1z" />
	<path display="inline" fill="#B37B67" d="M441,349.4c0.1,0.1,0.2,0.2,0.4,0.3C441.1,349.7,441.1,349.6,441,349.4   C441,349.4,441,349.4,441,349.4z" />
	<path display="inline" fill="#B37B67" d="M440.3,348.7c0.2,0.2,0.4,0.5,0.7,0.7l0,0C440.8,349.1,440.5,348.9,440.3,348.7   L440.3,348.7z" />
	<path display="inline" fill="#100B0A" d="M445.8,244.6c-9.2,0.3-21.9,0.8-26-9.5c0.3-0.3,0.5-0.5,0.8-0.8   c6.5,10.6,19.6,8.3,30.3,7.9c0.1,0.3,0.1,0.6,0.2,0.9C449.3,243.6,447.5,244.1,445.8,244.6z" />
	<path display="inline" fill="#E7CDBC" d="M457,277.6c2.9,8.4-0.4,17.5,0.3,26.3c-2.2-6-2.3-12.5-1.6-18.9   C456.6,282.6,455,279.5,457,277.6z" />
	<path display="inline" fill="#302B28" d="M477.5,313.3c0.9,3.1-1.1,7-3,8.8C474.4,320.5,476.1,313.7,477.5,313.3z" />
	<path display="inline" fill="#3D3431" d="M470.2,289.1c1.5,1.7,2.3,3.5,1.8,5.8C470.1,293.8,470.9,291.1,470.2,289.1z" />
	<path display="inline" fill="#302926" d="M469.9,282.7c0.8,1.1,0.6,2.1,0,3.4C468.7,285.3,468.1,283.3,469.9,282.7z" />
	<path display="inline" fill="#201D1B" d="M427.3,314.6c0.1-0.4,0.2-0.8,0.4-1.2c1.3,0.4,1.2,1.3,1.4,2.2   C428.3,316.5,427.7,315.3,427.3,314.6z" />
	<path display="inline" fill="#655850" d="M431.3,322.8c0.1-0.4,0.1-0.8,0.2-1.4c1.2,0.8,2.5,2.5,1.2,3.4   C432.3,324.2,431.8,323.5,431.3,322.8z" />
	<path display="inline" fill="#895650" d="M467.5,242.4c0.2,0.3,0.5,0.5,0.7,0.8c-1.3,1.1-1.8,0.1-3.5-0.5   C466,242.5,466.8,242.4,467.5,242.4z" />
	<path display="inline" fill="#52433E" d="M453.2,241.8c-0.2-0.2-0.5-0.4-0.7-0.6c0.1-1.1,0.9-1.2,1.8-1.4c0.6,0.8,0,1.3-0.5,1.9   C453.6,241.7,453.4,241.7,453.2,241.8z" />
	<path display="inline" fill="#70605A" d="M469,331.2c0.5-0.6,1-1.2,1.6-1.9C470.8,331.3,470.6,331.6,469,331.2z" />
	<path display="inline" fill="#4E423D" d="M471.9,327.7c-0.5-1.3-0.1-1.9,1.1-2.4C472.9,326.7,473,326.8,471.9,327.7z" />
	<path display="inline" fill="#64524D" d="M470.2,245.2c0.5-1.5,1.8-0.1,3,0.4c-0.7,0.2-1.1,0.3-1.5,0.4   C471.1,245.7,470.7,245.5,470.2,245.2z" />
	<path display="inline" fill="#3E312E" d="M469.6,276.8c0.1-0.3,0.2-0.7,0.3-1c0.2,0.1,0.4,0.2,0.6,0.3c-0.2,0.3-0.3,0.6-0.5,0.9   C469.9,276.9,469.8,276.9,469.6,276.8z" />
	<path display="inline" fill="#7F7169" d="M470.2,271.1c0,0.7-0.1,1.1-0.1,1.6C469.3,272.7,469.4,271.7,470.2,271.1z" />
	<path display="inline" fill="#836A63" d="M470.1,280.9c-0.2,0.2-0.3,0.2-0.5,0C469.9,280.7,470,280.7,470.1,280.9z" />
	<path display="inline" fill="#8C695D" d="M401.5,381.3c-1.6-2.5-2.5-5.2-2.8-8.1c0.9,0.8,1.6,1.7,2.8,2c0.8,1.8,1.6,3.5,1.2,5.8   C402.3,381.1,401.9,381.2,401.5,381.3z" />
	<path display="inline" fill="#191210" d="M391.9,277.2c0.2-1.1-0.6-2.9,0.8-3.5c1,1.4,0.9,3.1,1.3,4.6   C392.5,278.7,392.4,277.8,391.9,277.2z" />
	<path display="inline" fill="#332521" d="M391.3,271.1c-1.4-0.6-3.4-3.7-2.1-4.8c0.3,1.2,1.3,1.9,2.1,2.7   C391.3,269.7,391.3,270.4,391.3,271.1L391.3,271.1z" />
	<path display="inline" fill="#70564C" d="M393.1,331.2c0.1,0.8,0.4,1.2-0.3,1.9C391.9,332.4,391.5,331.1,393.1,331.2z" />
	<path display="inline" fill="#342824" d="M392.5,360.3c1,0.3,1.1,0.9,0.6,1.8C392.6,361.5,392.1,361.1,392.5,360.3z" />
	<path display="inline" fill="#977264" d="M391.3,271.1c0-0.7,0-1.4,0-2.1C392.2,270.1,392.2,270.1,391.3,271.1z" />
	<path display="inline" fill="#8C695D" d="M400.9,372.4c0.2,0.5,0.3,1,0.5,1.5C400.8,373.6,400.8,373,400.9,372.4z" />
	<path display="inline" fill="#312926" d="M420.6,234.3c-0.3,0.3-0.5,0.5-0.8,0.8c-0.7-1.1-1.4-2.3-2.1-3.4c0.3-0.3,0.6-0.6,0.9-0.9   C419.2,232,419.9,233.1,420.6,234.3z" />
	<path display="inline" fill="#160E0D" d="M415.4,227.2c-0.2-0.4-0.4-0.9-0.6-1.4C415.7,224.6,417.1,227.2,415.4,227.2z" />
	<path display="inline" fill="#68524B" d="M418.6,230.8c-0.3,0.3-0.6,0.6-0.9,0.9c-0.4-0.7-0.8-1.4-1.4-2.3   C417.6,229.7,417.6,229.7,418.6,230.8z" />
	<path display="inline" fill="#B3A092" d="M457.1,238.8c-0.4,0.3-0.7,0.9-1,0.3C456.4,238.6,456.5,238.2,457.1,238.8z" />
	<path display="inline" fill="#3E3531" d="M426.4,310.4c-0.3-0.4-0.4-0.7-0.1-1.1C426.6,309.7,426.8,310,426.4,310.4z" />
	<path display="inline" fill="#30231F" d="M429.5,188.3c3.3-0.7,4.4-0.5,6,1.5C433.5,189.5,430.2,190.1,429.5,188.3z" />
	<path display="inline" fill="#3B2723" d="M443,190.9c0.8-1,1.4-1,2.1-0.2C444.6,191.7,444,191.6,443,190.9z" />
	<path display="inline" fill="#1D100E" d="M440.8,190.7c-0.9,0-1.6,0-2.4,0C439.5,189.2,439.5,189.2,440.8,190.7z" />
	<path display="inline" fill="#1B1714" d="M506.4,569.8c-0.1,0.2-0.3,0.2-0.5,0.2c-1.2,0.7-2.3,1.8-3.9,1.8   c-2.5-2.5,5.1-5.3,7.2-5.2l-0.1-0.1C509.4,568.6,507.8,569,506.4,569.8z" />
	<path display="inline" fill="#403931" d="M511.5,570.7c-0.6,2.3-4,2.9-5.2,1.4C507.1,570,509.7,569.5,511.5,570.7z" />
	<path display="inline" fill="#403931" d="M506.4,569.8c0.3-0.2,0.5-0.3,0.8-0.5C506.9,569.5,506.6,569.7,506.4,569.8z" />
	<path display="inline" fill="#403931" d="M505,570.6c0.3-0.2,0.6-0.3,0.8-0.5C505.6,570.2,505.3,570.4,505,570.6z" />
	<path display="inline" fill="#161210" d="M398.2,567c-1.3-3.7,10.4-8.9,11.4-4.8c-3.5,1.6-8.1,1.4-10.1,5.3   C399,567.3,398.6,567.2,398.2,567z" />
	<path display="inline" fill="#191613" d="M406.4,564.6c1.7,0.1,2.9-0.2,4.2,1.3c-3.7,2.2-7,0.5-9.5,5.2c-1.6-0.8-1-2.1-0.8-3.2   C402,566.3,404.2,565.4,406.4,564.6z" />
	<path display="inline" fill="#16120F" d="M401.3,574c0.1-2.9,9.7-7.7,10.3-3.7C408.1,571.3,404.8,574.1,401.3,574z" />
	<path display="inline" fill="#1B1614" d="M412.7,573.6c-1.3,3.2-5.5,3.4-8.4,4.9C402.1,576,411,572.9,412.7,573.6z" />
	<path display="inline" fill="#18110F" d="M406.2,581.4c0.1-3.3,6.8-3.9,8.4-2.7C413,581,408.7,581.3,406.2,581.4z" />
	<path display="inline" fill="#C1C1A8" d="M406.4,564.6c-2.2,0.8-4.4,1.7-6.1,3.3c-0.8-0.1-1.9,0.5-2.1-0.9c0.4,0.2,0.8,0.3,1.4,0.5   c1.2-2.2,3.1-3.2,5.3-3.7C405.4,564.1,405.9,564.4,406.4,564.6z" />
	<path display="inline" fill="#271B18" d="M391.2,227.5c0,0.2,0.1,0.5,0.1,0.7l0,0c-0.3-0.1-0.6-0.1-1-0.2c-0.2-2.5-3-3.9-1.2-6.7   c1.2,1.2,0.8,2.5,2,3.6C390.4,226.1,390.4,226.4,391.2,227.5z" />
	<path display="inline" fill="#100D0B" d="M391.2,227.5c-0.9-1.1-0.9-1.4-0.1-2.6C391.2,225.7,391.2,226.6,391.2,227.5z" />
	<path display="inline" fill="#201A16" d="M512.4,585.2c0.8-4.4,8.6-4.6,11.6-2.7c-2.8,2.3-7-0.3-9.5,2.6   C514,585.7,513.2,586,512.4,585.2z" />
	<path display="inline" fill="#2B100F" d="M474.6,246.1c2.9-0.8,6-0.1,9-0.2C481.9,248.4,477.3,246.1,474.6,246.1z" />
	<path display="inline" fill="#261A17" d="M604.4,191.4c-0.2,0-0.4,0-0.6,0c0.1-1.6-0.5-2.6,1.3-3.7   C605.1,189.5,605.2,190.1,604.4,191.4L604.4,191.4z" />
	<path display="inline" fill="#6A524A" d="M514.7,208.7c0.5,0,1.1,0,2.3,0C515.9,209.8,514.8,210.5,514.7,208.7z" />
	<path display="inline" fill="#291816" d="M529.6,195.2c0,0.6-0.1,1.2-0.1,1.9C528.3,196.7,528.3,196.7,529.6,195.2z" />
	<path display="inline" fill="#604B42" d="M487.3,202.3c-1.4-0.6,0.3-2.2,0.7-0.7C487.8,201.9,487.5,202.1,487.3,202.3z" />
	<path display="inline" fill="#987063" d="M604.4,191.4c0.2-0.4,0.5-0.9,0.7-1.3C605.1,190.6,605.1,191.2,604.4,191.4z" />
	<path display="inline" fill="#34211D" d="M500.8,211.7c-1.5,0.4-2.5,0.2-3.3-1.3C499.5,210.6,499.5,210.6,500.8,211.7z" />
	<path display="inline" fill="#30221D" d="M504.3,211.4c-1.2,0.7-1.9,0.4-2.6-0.8C502.8,210.4,503.7,210.1,504.3,211.4z" />
	<path display="inline" fill="#45342E" d="M509.6,210.4c-0.1-0.1-0.1-0.3-0.2-0.4c0.3,0,0.6-0.2,0.8,0.2   C510,210.2,509.8,210.3,509.6,210.4z" />
	<path display="inline" fill="#8C6A5D" d="M458,158.7c2-0.5,8.9-3.3,9.5,0C464.5,158.7,460.6,160.7,458,158.7z" />
	<path display="inline" fill="#B6BCBC" d="M451.8,139.1c0,1,0,1.8,0,2.6c-1.1-0.4-2.1-0.5-2.5-1.8   C450,139.7,450.7,139.4,451.8,139.1z" />
	<path display="inline" fill="#796C6C" d="M455.2,140c-0.1,0.1-0.1,0.1-0.2,0.2c-0.2-0.2-0.2-0.3,0-0.4   C455,139.9,455.1,139.9,455.2,140z" />
</g>
</svg>