<?xml version='1.0' encoding='utf-8'?>
<svg xmlns="http://www.w3.org/2000/svg" version="1.2" baseProfile="tiny" id="Layer_1" x="0px" y="0px" viewBox="0 0 900 600" overflow="visible" xml:space="preserve">
<g id="b_00000010279989478801522990000011934023153167425164_">
	<path display="inline" fill="#92A3C5" d="M567.8,567.1c-5.1,0.8-9,5.1-14.1,6.1c-3-189.8-5.1-379.6-7.4-569.4   c6.2,2,13-0.5,19.5,1.4C567.5,192.3,565.4,380.1,567.8,567.1z" />
	<path display="inline" fill="#798BB3" d="M547.7,573.7c-4-0.3-7.9-0.7-11.8-1c-0.4,0.4-0.7,0.7-0.9,1.1c-1.9-190-4.4-380-6.1-570   c0.4,0.4,0.7,0.8,1.2,1.2c2.8,0,5.8,0,8.8,0C542.5,194.6,543.7,384.4,547.7,573.7z M532.7,85.4c0,2,2.2,2.7,4.1,2.1   c0.4-1.3,1.6-3.5-0.7-3.8C535.2,84.7,534.1,85.2,532.7,85.4z M535.6,189.2c1.4,2.4,4.3,1.3,4.5-1c-0.4-0.4-0.9-0.8-1.5-1.3   C537.5,187.7,536.6,188.4,535.6,189.2z M541.4,375c-1.2,1.1-2.3,2-3.5,3C539.6,381,543.7,377.2,541.4,375z M541.5,464.4   c-3,0.6-0.2,3.8,1.7,4c0.4-0.5,0.7-0.9,1.2-1.6C543.3,465.9,542.3,465.1,541.5,464.4z M544.6,559.3c-1.2,0-2.3,0-3.3,0   C539.1,562.6,546.8,562.7,544.6,559.3z M539.3,286.5c1.5-0.7,2.2-1.5,2.1-2.9c-1.6-0.7-1.6-0.7-3.2,1.7   C538.5,285.6,538.9,286,539.3,286.5z" />
	<path display="inline" d="M451.7,241.4c4.6,0.1,4.2-25.3,6-30.4c5.1-38.6,10-77.1,15.1-115.7c3.5-27,7.1-54.1,10.5-81.1   c0.1-1.8,1.3-3.7,3.2-2.2c-9.2,76.3-20.1,152.5-29.5,228.9c5.2,5.8,0.3,8.7-1,14.1c0.7,8-0.2,15.6-2.9,23.1   c7.8,14.2,6.8,8.7,19.7,14.5c0.4,0.8,0.5,1.5-0.4,2c-3.4-2.6-8.1-2.9-12.2-4.2c-0.5-0.7-1-0.8-1.7-0.1c1.8,1.2,5.1,1.5,5.1,4.2   c0.1,4.4-0.3,6.8-5.2,7.4c0.1,1.2,0.2,2.2,0.3,3.3c-0.8,0.5-0.5,2-1.9,2c-0.2-2.2,0.3-4.3-0.8-6.4c-0.8-0.3-1.5-0.5-2.3-0.9   c-0.7,0.9-1.4,1.7-2,2.5c0.7,2,1.3,3.9,2,5.8c1.3-0.3,2.4-0.2,3.7,0c0.2,0.2,0.4,0.4,0.7,0.6c-0.1,0.5-0.9,1,0.2,1.3   c0,0.1-0.1,0.3-0.1,0.4c4.8,5.2,10.9-3.1,14.1-6.5c0.5,1,0.6,1.7,0.6,2.8c11.3,5.2-9,16.8-12.7,9.4c-0.2-2.7-2.9-4-4.3-5.8   c-1.8-0.5-3.4-0.9-5.1-1.3c-0.6,23.8,11.7,87.5,0.7,103.3c-5.4,1.5-7.7,7.4-13.8,7.1c-2,0.5-4.6-0.8-6.1,1   c0.8,18.5-0.2,37.3-6.2,54.9c-4.3,15.8-3.7,32.1-5,48.3c2.3-0.4,1.8-3,3.6-4.1c4.8,1.5,5.2,7.3,5.8,11.5   c6.4,4.9,14.1,8.3,18.5,15.5c7.5,6.1,27.6,7.7,17,21.2c-0.3-0.3-0.6-0.6-1-1.1c-6.2,9.4-18.7,8.1-27.6,7.2   c9.2,3.4,21,9.4,11.8,20.4c-7.6,6.4-19.8,5-29.3,5.8c-9.4-0.1-18-5.2-26.1-9.4c-10-3.8-22.2-2.4-28.4-12.8c7.6-7.9,3-14.1,7.9-17.2   c0.5-2.5-0.2-5.1,1.3-7c1.4-1.7,1-4.5,3.7-5.3c-3.3-17.5-8.6-35.3-15.5-51.8c-4.3-7.3-3.7-15.5-2.9-23.3c0.8-14.8,8.5-29,6.3-44   c-12-6-9.7-19.2-8.8-30.2c0.6-22.4-5.3-45.7-2.7-67.5c3.8,10.2,1.5,22.4,5,32.7c-0.3,0.2-0.5,0.4-0.8,0.7   c0.6,11.5,1.6,23.1,0.5,34.7c0.9,7-4.1,17.8,2.9,21.9c11.4,10.7,27.8,15.5,42.8,18.7c4.9-2.6,9.8-5.2,15-7.3c5.9-2,4-8.9,5-13.8   c5.3-22.6,1.5-48.6,16.2-67.9c0.6,3.9-2.3,6.5-3.1,9.5c1,1.2,1.9,2.2,2.8,3.1c-1.4,0.2-2.5-0.7-4-1.2c-0.6,1.5-1.2,2.8-1.8,4.2   c0.8,0.4,1.5,0.8,2.1,1.1c0,0.2,0,0.4,0.1,0.6c-0.9,0-1.7,0-2.6,0c-0.9,2.1-1.8,4-1.4,6.1c1.1,1.2,5.2,2.1,4.2,3.8   c-1.6-0.6-3.1-1.7-4.8-1.1c-1.3,8.3-2,17.2-1.5,25.6c-0.4-0.2-0.7-0.3-1-0.5c-0.9,5.3-1.7,10.5-2.6,15.7c7.2,1.4,14.8-4.7,21-8.2   c11.5-7.7,3.2-27.3,3.6-39.1c-1.8-23.9-0.6-48.2-3.7-71.6c-5.4,1.5-2.7,3.6-4.4,7.3c-0.5-1.2-0.9-2.4-1.4-3.8   c-4.8,1.6-6.3,6.6-9.5,9.4c0.2,3.6-0.7,6.6,2.1,9.2c0,0.6,0,1.1,0.7,1.3c0.2,1.5-0.7,2.6-1.3,3.9c-1,0.1-1.8,0.1-2.6,0.2   c-0.3-0.2-0.6-0.5-0.8-0.7c0.8-0.4,1.5-0.8,2.3-1.2c1.7-3.7-4.8-5.4-2.4-10.2c-1.9-3.9-7.9-2.6-10.8-6.2c-3.2,0.7-6.5,1.4-9.7,2.1   c-0.4,0.5-0.7,0.9-1.2,1.5c-22.3-27.7-11.1-34.5-20.9-59.8c-4.9-8.8-5.5-18.8-3-28.4c1.2-8.3-1.5-16.4-1.3-24.7   c0.3-0.3,0.7-0.5,1-0.8c5.4,4.1,1.3,12.9,5.9,15.7c-0.6,0.3-1,0.5-1.2,0.6c-1.4,9.2-8.3,23.7,0,31.5c-0.3,0.4-0.5,0.9-0.9,1.4   c1.1,1.6,1.3,4.6,3.7,4.7c0,0.1,0.1,0.3,0.1,0.4c-0.2,0.2-0.4,0.4-0.7,0.6c6.5,12.5-0.5,28.6,7.8,40.6c4.3-0.3,8.9,0.8,11.5-3.1   c0.1,0.7,0.3,1.4,0.4,2.2c2.9-0.4,7.3,0.3,9-1.9c5,0.5,17.2,0.1,20.3-4.6c-0.1-2.1-0.3-4.2,0.3-6.2c0.8-0.6,1.6-1.1,2.1-1.5   c1.4-3-1-5.2-0.1-8c0.9-4.8,2.8-9.4,3.8-14.1c2-3.7-1.5-7.8,0.6-11c1.1-1,1-2.4,1.3-3.7C450,242.3,450.8,241.9,451.7,241.4z    M420.7,563.1c0.9,1,1.5,2.2,2.6,2C422.8,564.1,421.9,562.9,420.7,563.1c-0.1-0.2,0-0.7-0.5-0.3C420.4,562.9,420.5,563,420.7,563.1   z M466.9,314.5C466.9,314.5,466.9,314.5,466.9,314.5c-0.9,0.6-1.3,0.9-2.6,1.1c1.1,0.8,1.9,1.3,2.8,0.4c0.9-0.1,2,0.2,2.6-0.7   c2.2-0.6,3.9-2.5,4.6-4.8c-0.3-0.5-0.6-0.9-1-1.5c-2,1.7-3.6,3.5-5.8,4.8l0,0C467.4,314.1,467.2,314.3,466.9,314.5z M430.1,541.6   c-0.5,0.1-1.1-0.1-1.4,0.6c-2,0.1-3.9,1.3-6.1,1.3c0.2-2.1,2.5-2.1,3.1-4c-3.3,0.6-5.2,2-8.4,2.8c0.8-1.3,1.5-2.4,2.4-3.9   c-1.4,0.1-1.9-0.1-2.9-0.7c3.5-3.9,12.1-4.1,10.8-10.6c-0.3-2.9-3.2-2.7-5.1-1.5c-8-2.1-6.7,5.5-7.7,10.5   c-4.4,2.5-8.5,3.8-13.3,1.7c0,2.2,0.3,4.3,2,5.8c6.6-4.9,11.4,6.1,9.4,11.6c2.6,1.9,4.4,4,6.3,6.6c0.9-0.1,1.6-0.2,2.4-0.3   c4,4.9,10.2,6,15,9.8c10.6,0.6,23.5,0.1,29.2-10c-0.6-7.1-11-4.4-15.3-10c-2.6,1-4-2.4-5.4-4c-1.9,0-5.2,2.6-6,0.5   c1.5-1,2.8-1.9,4.2-3c-1.1-1.8-2.9-2.8-4.3-4.3l0,0c-0.3-1.7-2.5-1.8-3.6-2.9c-0.9,1.7-2.3,2.3-3.7,3.4l0,0   C430.9,540.9,430.3,540.9,430.1,541.6z M410.7,560.5c-1.2-0.1-2,0.6-3,1.1c1-0.2,2.2,0.8,2.9-0.6c1,0,2.1,0.2,2.8-1   C412.3,559.2,411.6,560.5,410.7,560.5z M470.4,308.8c-1.5,0.6-2.5,1.7-3.5,3.1c1.8-0.3,1.8-0.3,4-2.6   C471.1,308.7,470.9,308.6,470.4,308.8z M414.6,569.1c1.8,0.1,3.4-0.7,5-1.6c-0.9-1.1-1.5-2.2-2.8-2.8c-0.1,1.1-0.2,2.1-0.3,3   C415.8,568.2,415.2,568.7,414.6,569.1c-3.9-0.6-6.9,0.2-11.3,0.8c1.5-1.9,1.9-2.6,3.6-4.1c-3.5-0.4-5.4,1.6-8.7,0.3   c1.9-1.6,2.2-1.8,4.1-3.5c-2.2,0.2-3.9,0.3-5.3,0.4c-4.5,8.6-15.5,9.3-18.5-0.6c-0.1-1.7-0.7-3.2-2.2-5.2   c-0.4,7.3-3.8,12.6-6.6,18.8c4.8,9.4,15.2,8.6,23.8,11.2c17.3,7.9,28.2,12,47.6,6.7c0.7-1.5,2.4-0.9,3.4-1.5   c3.7-3,5.5-8.5,0.5-11.1c-4.2-3.6-9.9-1.8-14.3-4.9c-1.6-1.5-1.6-1.5-2.7-1.4c-0.1,1.1,1.8,1,1.3,2.3c-2.1,1.9-4.9,0.9-7.4,0.6   c1.4-1.7,4.5-2.3,4.4-5c-1.4-1.1-3.3-1.7-4.5-3.1c-3.6,3.9-8.6,4.4-13.6,5.4C409.2,571.4,412.6,571.1,414.6,569.1z M424.7,299.9   c0.2,0.5,0,1.1,0.9,1.2c1.2-1.4,4.1-2.4,3.8-4.6c1.4-0.4,2.6-1,3.3-2.8c-10.1,2.2-19.6,3.8-29.8,5.1c1.7,3,3,6.6,5.3,9.3   c2.4,0.9,4.5,0.4,6.5-0.9c0.2-1.9-1-5,0.7-6.2c0.5,1.9,1,3.8,1.5,5.6c1.9-0.1,3.7-0.2,5.8-0.3c0.2-2.3,0.5-4.4,0.7-6.6   C423.8,299.9,424.2,299.9,424.7,299.9z M449.5,283.6c-1.1,1.3-2.5-0.3-3.7,0.4c0.2,2.2,0.2,2.2,3.5,2.2c0.5-0.5,1.1-1.1,1.8-1.7   c0.1,0,0.3,0,0.5,0c0.3,1.9-0.5,3.1-2.5,3.7c-1-1.3-2.6-0.9-4.1-1.2c-1.2-1.6-0.8-3.4-0.4-5.1c-0.4-0.5-0.8-1-1.3-1.7   c-2.4,3.1,0.1,5.2,0.2,8.2c-8.5,2.9-14,12.2-20,18.7c0.3,0.7,0.6,1.4,0.9,2c2.5,0.9,4.3,2.1,6.9,2.3c5.5-6.5,11.7-14.2,20.4-16   c0.2,0.6,0.3,1.2,0.5,1.8c3-0.2,5.2,1.4,7.4,3.4c7.6-5.9-2.9-9.8-7.9-11.9c1-2.5,4.1-8.2,0-9c-0.5-0.8-1.2-0.8-2-0.6   c-0.2-0.1-0.4-0.1-0.7,0c-4.6-8.3-0.2-18.4,3.4-26.4c-0.3-0.7-0.5-1.3-0.7-2c0.5,0.3,1.1,0.6,1.6,0.9c2.4-2.5,2.5-3,0.4-4.6   c-1.7,1.5-1.7,1.5-2,3.8c-0.6,0.2-1.2,0.3-1.8,0.5c0.2,1,0.4,1.9,0.5,2.8C447.3,261.9,440.1,278.4,449.5,283.6z M451.7,260.9   c-0.1-0.5-0.2-1-0.4-2.2c-2.3,6.3-2.5,11.9-1.6,18.5c0.7,0.2,1.2,0.3,1.7,0.4c2.8-6.9,2.3-14.3,2.8-21.7c0-0.4,0-0.9-0.8-1   c-1.1,1.8-0.8,4-1.2,5.9C452,260.9,451.9,260.9,451.7,260.9z M425.3,431.3c-2.6,3.7-7.3,4.3-10.9,6.7c-3.1,2.4-6.6,4-10.4,4.8   c0.3,29.7-7.9,58.4-1.1,87.7c3.2-0.7,6.4,0.3,8.9-1.9c-1.3-2.6-2-5.1-1.9-7.8c0.3,0,0.5,0,0.8,0c0.9,2.3,1.8,4.7,2.8,7.3   c1.2-2.5,2.7-3.5,5.3-4.4c-0.5-34.4,10.7-67.8,10.2-102.1c-0.7,0.2-1.4,0.4-2.1,0.6C426.3,425.2,425.8,428.3,425.3,431.3l0.1,0.1   L425.3,431.3z M381.8,558.3c-1.2-1.8-1.6-4.4-3.2-5.6c-0.2,0.5-0.4,1-0.6,1.4c3.6,5.1,3.6,14.3,11.8,13.1c1.5-2.1,2.9-4.1,4.2-5.8   c0.1-2.4-0.8-3.9-2.4-5C388.4,557.9,385.1,560.6,381.8,558.3z M369.7,441.5c-4.4,14.5-8,30.3-7.4,45.7c5.5,19.5,15,38.7,17.6,59.3   c0.9-0.7,0.5-2.2,1.6-2.6c1.3,3.4,0.6,6.7,0.3,10c2.5,4.6,7,1.5,10.3,0.2c-0.9-4.4-0.6-4.5,3.1-6.7c1.9,0.4,4.2-1.2,5.4-2.9   c-9.7-33.7,1.5-68.5,0.7-102.7c-9.8-0.5-19.2-4.6-27.7-7.6c-0.6,0.2-1,0.3-1.5,0.4c-0.1-1.4-0.4-2.6-2.3-2.4   C369.6,435.4,369.6,438.5,369.7,441.5L369.7,441.5z M406.7,544.8c-6.3,4.1-16.9,7.2-8.3,15.6c4-1.8,7.6-2.3,11.5-4.2   C408.2,552.3,410.5,548,406.7,544.8z M400,532.5c2.1,5.7,8.8,2.2,13,1.2c-0.1-0.7-0.3-1.3-0.4-2C406.8,531,407.2,534,400,532.5z    M456.4,244.5c-0.6,1.2,0,2.4-0.2,3.5c-0.2,1.1-1.3,2-0.6,3.4C457.2,249.6,458,246.5,456.4,244.5z M399.5,521.1   c-0.4,2.7-0.5,5.4,0,8.9C400.2,526.5,400,523.8,399.5,521.1z M453.6,287.5c0.5,1,1.2,1.1,2.2,1c0-1.3,0.5-2.6-1.1-3.3   C454.2,286,453.9,286.8,453.6,287.5z M434.3,573c-1.1-1.2-2.4-2-4.1-2.1C431.3,572.1,432.6,572.8,434.3,573z M461.7,313.7   c1.8,0.6,3,0.9,4-1C464.3,312.7,463.2,313.3,461.7,313.7z M451.1,302.1c0.6-1.1,1-1.8,1.4-2.6c-0.5-0.3-0.9-0.5-1.7-0.8   C450.9,299.9,451,300.7,451.1,302.1z M450.5,248.1c-2,0.3-1.7,1.1-1.3,2C449.6,249.5,449.9,249,450.5,248.1z M429.8,534.6   c-0.5-0.4-0.9-0.6-1.3-1c-0.3,0.6-0.6,1-1.1,1.9C428.4,535.2,428.9,534.9,429.8,534.6z M415.9,562.6c-0.4-0.2-0.8-0.3-1.1-0.5   C414.6,562.8,415.2,563.3,415.9,562.6z M432.7,536.8c0-0.2-0.1-0.5-0.1-0.7C431.3,536.5,431.5,536.8,432.7,536.8z" />
	<path display="inline" fill="#130707" d="M390.5,93.8c0.3-13.7-6.6-29.2,0.3-42c-3-3.3,0.8-6.5,1.4-9.8c0.3-1.7,3.4-4.5,5.3-5.3   c0-0.3,0-0.6,0-1.2c0.7-0.3,1.5-0.7,2.3-1.1c-1.1-4.2,0.1-6,4-3c0.7-1.9-1-4.5,1.7-5.7c1.7,1.6,1.3,3.7,2.3,5.8   c9.8-6.9,21.1-4,31.4,0.6c5.8,1.3,11.6,2.5,16.4,6.3c0.1,0.5,0.1,1,0.2,1.5c1.4,0.7,3.4-0.7,4.4,0.8c2.5-0.2,4.5-2.2,7.2-1.1   c-0.5,1.7-1.7,2-1.7,3.6c-1.3,0.2-2.6,0.1-3.8,1.2c1.4,0.3,2.7,0.3,3.9,0.1l0,0c0,0.3,0,0.5,0,0.8c-2.5,0.9-4.4,2.7-6.4,4.4   c1.8-0.2,3.4-0.6,4.4-2.3c0.6,0,1.2,0,2,0c-0.8,2.8-3.2,3.1-5.2,4.3c2.3,2.2,4.5-0.5,7.1,0.3c-2.2,4.3-9.6,3.6-13.9,5.4   c-1.1,6,3.6,15.2-3.5,18.6c-0.4,3,0.9,7-0.8,9.5c-0.6-4.4-2.8-10,0.1-14c0.9-0.2,1.8-0.4,2.7-0.6c1.1-1.7,0.1-3.2,0-4.7   c-0.4-2.8,0.3-6.1-0.7-8.7c-8.4-2.7-18.4-3.7-26.6,0c-7.7,7-17.6,12-19,23.4c-3.3-3.8-0.5-10.2-1.8-15c-2.8,0.7-4.1-2.2-6-3.6   c-1.2,1.2-2.5,2-2.6,3.7l0,0c-5.8,4.4,3.1,9.2,4.4,14.1c0.8-0.8,1.4-1.5,2.1-2.2c0.1,0.6,0.2,1.1,0.2,1.6c-0.2,0.5-0.5,1-0.9,1.8   c2.5,3.6-1.2,9.5,2.2,13c0,0.6-0.1,1.2-0.1,2.1c-4.4-3.9-4.1-8.7-3.9-14.3c-2.4,2.6-3.6,5.3-5.3,7.7c-0.1-0.6-0.2-1.3-0.3-1.8   C390.7,86.4,392.2,92.5,390.5,93.8z M424.7,30c-0.1-0.2-0.1-0.4-0.4-0.4c0.6,0.5,0.9,1,1.5,1.7c0,0.3,0,0.8,0,1.6   c1.4-0.4,2.7-0.7,4.2-1.1C428.4,30.2,426.6,29.9,424.7,30z M402.1,43.2c2-2.1,4.7,0,6.6-2.5c-0.3-0.6-0.6-1.2-0.9-1.9   C405.6,40.1,402.9,40.1,402.1,43.2z M423.3,48.9c1.3-1.4,1.9-2.8,2.1-4.8c-1.6,0.6-2.9,1.6-4.3,2.7C422,47.6,422.6,48.2,423.3,48.9   z M428.2,44.4c-0.8,1.1-1.3,1.9-1.9,2.7c0.8,1,2.2-0.8,2.9,0.8c0.9-0.4,2-0.5,2.1-1.9C429.8,46.2,429.4,45.6,428.2,44.4z M416,58.8   c0.6,0.4,1.2,0.8,1.7,1.1c1.7-0.8,1.7-0.8,2.8-2.3c-0.2-0.2-0.5-0.4-0.8-0.7c-1.7,1.8-4.4,0.3-5.7,2.2   C414.7,59,415.2,58.9,416,58.8z M449.4,37.3c-0.6,1.3-1.1,2.3-1.6,3.3c1.1,0,2.2,0,3.3,0c0-0.9,0-1.8,0-2.8   C450.6,37.6,450.1,37.4,449.4,37.3z M401.9,38c-1.2,0.6-2.1,1.1-3.3,1.7c1.2,0.6,2.1,1.1,3.2,1.6c0.7-0.9,1.3-1.6,1.9-2.3   C403,38.6,402.5,38.4,401.9,38z M422.3,41.5c-2.2,1.3-2.2,1.3-2.7,3.9c1.5-0.3,2.5-1.3,3.6-2.1C422.9,42.6,422.6,42,422.3,41.5z    M430.3,49.4c-0.1,1.2-0.2,2.1-0.2,3.2c1.6-0.8,2.9-1.5,4.4-2.2C432.8,50,432,49.9,430.3,49.4z M458.6,47c-2,0.7-3.9,1.3-5.8,3.1   C455.5,49.9,457.3,48.9,458.6,47z M445.2,35.4c-2.7,0-4.5-1.4-7-0.4c2.1,0.4,3,0.7,4.5,1.8C443.3,36.5,443.9,36.1,445.2,35.4z    M420.4,28.8c-1.7,0.5-6,0.4-5.4,2.9c0.9-0.4,1.9-0.7,2.6-1.2C418.5,29.8,420,30.4,420.4,28.8z M422.8,33.5   c-2.3,0.2-4.4,1.1-6.4,2.3C418.6,35.7,420.6,35,422.8,33.5z M409.6,52.9c-0.8,0.5-1.5,1-2.1,1.4c0.4,1.3,0.9,2.2,2.1,2.1   C409.6,55.4,409.6,54.4,409.6,52.9z M457.4,54.3c-0.9-1.1-1.1-1.1-3.6-0.4C454.7,55.1,454.9,55.1,457.4,54.3z M451.3,46.3   c1.3,1.2,1.3,1.2,3.4-0.6C453.4,44.9,452.5,46.4,451.3,46.3z M416.6,44.2c0.5-0.5,1-1,1.5-1.6c-1.3-0.8-2-0.5-2.6,0.5   C415.8,43.5,416.1,43.8,416.6,44.2z M392.6,54.1c0,1.1-0.5,1.8,0.3,2.4c0.8-0.4,1.5-0.9,1.4-2.1C393.9,54.3,393.5,54.2,392.6,54.1z    M440.4,53.1c-1.5-0.3-3-0.5-4.4,0.1C437.4,53.5,438.9,53.6,440.4,53.1z M412.6,57.5c-0.1-0.1-0.3-0.3-0.4-0.4   c-0.7,0.6-2.6,2.1-0.6,2.3C412,58.8,412.3,58.1,412.6,57.5z M430.8,32.5c0.8,0.1,1.5,0.1,2.2,0.2c0-0.1,0.1-0.2,0.1-0.4   c-0.6-0.3-1.2-0.6-1.9-1C431.1,31.7,431,32,430.8,32.5z" />
	<path display="inline" d="M528.9,3.9c1.7,190,4.1,380,6.1,570c-0.8,1.4-0.8,1.4-2.5,1c-3.5-182.3-3.9-365.2-6.5-547.7   C526.9,22.4,522.6,1.3,528.9,3.9z" />
	<path display="inline" d="M546.3,3.8c0.7,190.3,7.4,383.3,5.8,572.2c-6.8-189.2-6.1-383.4-8.5-574.1C545.6,1.4,545.8,1.5,546.3,3.8   z" />
	<path display="inline" fill="#020202" d="M567.8,567.1c1-186-6.7-383.4,1.3-564.5C565.2,189.6,573.1,382.1,567.8,567.1z" />
	<path display="inline" fill="#010101" d="M547.7,573.7c-1.6-188.9-9.8-384.9-6.6-570.6c2.4,190.3,6.5,381.2,7.8,570.6   C548.5,573.8,548.1,573.7,547.7,573.7z" />
	<path display="inline" fill="#140808" d="M389.3,213.2c-2-2.2,0-6-1.5-8.7c0.3,0.1,0.7,0.1,1.1,0.2c1-1.3,2.3-2.3,3-3.9   c-0.9-0.6-2.2,0.2-2.7-1c1,0,2-0.1,3.1-0.1c-0.1-0.7-0.2-1.1-0.3-1.5c0.5,0.1,1,0.2,1.7,0.3c3.8-14.1,10-29.3,4.9-43.7l0.1,0.1   c-2.5-8.5-8.8-16.1-13.5-23.6c0-0.6,0.1-1.2-0.7-1.3c-4.9-5.6-10.5-10.5-13.9-12.2c-8.5,1.7-17.6,19.8-23.6,16.9   c8.4-10.8,20.8-17.3,31.5-25.6c0.1,0.4,0.2,0.8,0.4,1.5c1.2-0.8,1.9-1.3,3-2.1c0.3,2.6-2.9,2.7-3.5,5   c16.8,12.9,27.4,32.6,44.7,45.4c2.6-0.5,5-1,7.6-0.4c8.1-8.6-0.2-25.9-6.4-33.2c0.5-0.7,0.9-1.4,1.4-2.2c1.6,3.9,4.8,6.4,7.2,9.8   c3,8.9,9.1,27.8-5.9,27.7c-0.4,0.6-0.6,1.1-0.9,1.5c-15.1-4.8-23.8-20-33.7-31.6c-5.1-5.4-11.5-9.7-16.1-15.9   c-1.1,0.5-2,1.1-3.1,2.1c32.6,25.6,34,45.8,24.4,83.4c-3.6,2.2-5.4,6.4-8.4,9.7C389.1,210.8,389.2,212,389.3,213.2z" />
	<path display="inline" fill="#7788AF" d="M545.6,304.6c-1.7-100.5-3-201-4.6-301.5c0.4,0.4,0.8,0.9,1.2,1.3c1.1-0.6,0-2.1,1.4-2.4   C542.3,102.5,548,204.4,545.6,304.6z" />
	<path display="inline" fill="#020102" d="M356.8,303.8c3-5.1,12.4-10.3,7.8-16.8c-5.5-7.2-6.2-15.7-7.9-24.2   c-1.2-3.5-3.3-7.6-1.7-11.1c-6.1-7.7-3.1-18.9-10-26.1c-9.5-9.1-10.4-24.1-9-36.5c1.2-0.9,0.5-2.6,0.9-4c0.8,0.3,1.3,0.5,1.7,0.7   c2.1,9.5-2,13,6.1,21.3c0,0.3-0.1,0.6-0.1,0.9c-1.2-0.2-2.3-0.5-3.7-0.7c-2.2,9.4,6.4,14.8,9.6,22.3c1.9,8.7,5.1,17.1,6.2,25.9   c5.7,33.8,22.6,42.3,39.2,68.8l0,0.1l0.1,0c0.2,0.2,0.4,0.4,0.6,0.6c-0.1,0.1-0.2,0.2-0.3,0.4l0,0c-7.4-2.8-9-12.5-14.4-17.8   c-3.1-4.8-8-7.9-11.7-12.3c-1.5,0-3,0-4.5,0c-2.7,3.4-5.6,6.7-8.4,10C356.8,305,356.9,304.4,356.8,303.8z" />
	<path display="inline" fill="#140909" d="M451.7,241.4c-0.9,0.5-1.8,0.9-2.8,0.7c0.6-12.5,0-24.7-2.1-37   c14-36.2,2.1-55.5-20.7-83.7c0.4-0.7,0.9-1.4,1.3-2.1c2,1.1,3.5,3,5.6,3.9c-0.7,0.1-1.4,0.3-2.1,0.4c-0.1,2.4,2.2,1.1,3.2,2.3   c2.3,6.8,10.2,13.4,13.1,20.9c0.5,0,0.7-0.1,0.9-0.1c0.1,2.5-0.1,5,1.2,7.3c1.1,0.1,0.8-0.8,1-1.3c9.4,15.4,6.7,35.3-0.5,51.3   C452.1,216.2,451.6,228.9,451.7,241.4z" />
	<path display="inline" fill="#180C0C" d="M338.8,185.7c-0.5-0.2-1-0.4-1.7-0.7c-0.4,1.5,0.3,3.1-0.9,4c0-1.4,0-2.9,0-4.5   c-12.6-12.7-2.5-40.7,10.8-49.8c0.5,0.2,1,0.5,1.5,0.7c-13.9,11-18.5,32.2-11.3,48.7C337.5,184.5,338.9,184.2,338.8,185.7z" />
	<path display="inline" fill="#050404" d="M434.1,125.9c-1-1.2-3.3,0.2-3.2-2.3c13.2-1.7,23.4,20.3,18.4,30.3   C447.4,143.3,446.2,130,434.1,125.9z" />
	<path display="inline" fill="#201211" d="M449.6,85.7c1.4-1.1,0.4-3.4,0.8-4.9c0.1,3.7,3.7,12-2.5,11.2c-0.5,2.7,0.7,6.4-1.2,8.4   c-1.3,0.9-1.4,2.1-1.8,3.4c-0.5,0-1,0-1.5-0.1c0.4-1,0.7-2,1.1-3.2c-3.6-0.5-6.9,0.2-10.4,0.6c-2.4-5.3,8.7-2,11.5-2.9   c0.5-1.8,0.4-6.7-0.9-7.5c-0.9,0.3-1.8,0.6-2.6,0.9c-2.1-0.9-3-3.1-0.6-4.3c0.1,0.7,0.2,1.1,0.3,1.7c2.8-0.7,5,2.6,7.7,0.5   C449.6,88.4,449.6,87,449.6,85.7z" />
	<path display="inline" fill="#060605" d="M381.7,108.5c-1,0.8-1.8,1.3-3,2.1c-0.2-0.7-0.3-1.1-0.4-1.5c0.8-0.9,1.7-1.5,2.8-2   c1,0,1.7-0.5,1.8-1.6c4.2-2.8,5.5-7.5,7.5-11.8c1.8-1.3,0.2-7.4,3.9-5.6c1.1,8.1-4.9,15.4-10.3,20.8   C383.7,107.5,382.4,107.7,381.7,108.5z" />
	<path display="inline" fill="#190C0C" d="M443.4,103.8c0.5,0,1,0,1.5,0.1c-0.3,8.4-1.4,12.6-10.7,14.1c-1.7-0.8-3.4-1.8-5.4-1.3   c0.8-0.9,2.1-0.8,2.1-2.3c5.9,0.6,12.6,0,11.3-7.8c-2.2-0.3-5,0.5-6-2C438.3,103.3,441,104.1,443.4,103.8z" />
	<path display="inline" fill="#181012" d="M356.8,303.8c0.1,0.6,0,1.2,0.7,1.5c-2.9,5-1.9,10.8-2.7,16.3c-0.5,3.3-2.5,6.5-0.7,9.9   c-1.8,4,0,9.7-0.8,14.3C353.5,334.7,348.8,311.5,356.8,303.8z" />
	<path display="inline" fill="#120E0D" d="M470.8,293.3c0.6,0.4,1.1,0.8,1.6,1.3c0,0.2,0,0.4-0.1,0.9c0.5,0.3,2,1.3,2.3,1.6   c0.5,1.9-0.3,3-0.8,4.2c1,1.5,0.5,2.8-0.9,3.9c-0.2-0.4-0.3-0.9-0.5-1.3c0.1-0.4,0.2-0.8,0.4-1.2c-0.5-0.1-1,0-1.4-0.3   c1.1-1.8,3.1-4-0.1-5.2c-0.6,1.7-1.2,3.5-1.8,5.2c-2.2,1-2.9,3.8-4.6,5.4c-1.7,0.2-4.9,1.8-5.7-0.5   C466.9,308.1,468.3,298.9,470.8,293.3z" />
	<path display="inline" fill="#090807" d="M430.9,114.4c-3.3,3.9-6.1,9.1-8.3,14.2c-0.5,0-1.1,0-1.7,0   C420.9,123.8,425.2,112.7,430.9,114.4z" />
	<path display="inline" fill="#7888A3" d="M549.5,572.4c0.4-4.3-0.7-9.3,0.7-13.3c0,4.9,0.1,9.8,0.1,14.7c-0.2,0-0.5-0.1-0.7-0.1   C549.6,573.3,549.6,572.8,549.5,572.4z" />
	<path display="inline" fill="#858484" d="M463.8,47.6c-0.9,1.7-2.6,2.1-4.4,2.3c1.2-1,2.4-2.1,3.7-3.1   C463.3,47.1,463.5,47.3,463.8,47.6z" />
	<path display="inline" fill="#938C8C" d="M465.7,44.7c-1.2,0.2-2.5,0.2-3.9-0.1c1.2-1.2,2.5-1.1,3.8-1.2   C465.6,43.8,465.7,44.2,465.7,44.7z" />
	<path display="inline" fill="#364646" d="M463.7,567.8c0.3-0.4,0.6-0.8,0.9-1.2c0.4,0.5,0.7,0.8,1,1.1   C465.4,568.9,464.3,568.3,463.7,567.8z" />
	<path display="inline" fill="#140808" d="M383,105.6c-0.1,1.1-0.8,1.6-1.8,1.6C381.8,106.7,382.4,106.1,383,105.6z" />
	<path display="inline" fill="#576278" d="M549.5,572.4c0,0.4,0,0.9,0,1.3c-0.2,0-0.5,0-0.7,0.1   C549.1,573.3,549.3,572.8,549.5,572.4z" />
	<path display="inline" fill="#EECABA" d="M345,136.2c-0.3,0.2-0.6,0.4-0.9,0.6C344.4,136.6,344.7,136.4,345,136.2z" />
	<path display="inline" fill="#EECABA" d="M346,135.4c-0.2,0.2-0.4,0.4-0.6,0.6C345.6,135.7,345.8,135.5,346,135.4z" />
	<path display="inline" fill="#140808" d="M379,108.5c-0.2,0.2-0.5,0.4-0.7,0.6C378.6,109,378.8,108.8,379,108.5z" />
	<path display="inline" fill="#140808" d="M379.7,107.9c-0.2,0.2-0.4,0.4-0.7,0.6C379.3,108.3,379.5,108.1,379.7,107.9z" />
	<path display="inline" fill="#140808" d="M381.1,107.3c-0.3,0.2-0.7,0.3-1,0.5C380.4,107.6,380.8,107.5,381.1,107.3z" />
	<path display="inline" fill="#938C8C" d="M465.8,45.5c0-0.3,0-0.5,0-0.8c0.2,0.1,0.3,0.2,0.5,0.2C466.1,45.1,465.9,45.3,465.8,45.5   z" />
	<path display="inline" fill="#121014" d="M532.7,85.4c1.4-0.2,2.5-0.7,3.4-1.7c2.3,0.3,1.1,2.5,0.7,3.8   C534.9,88.2,532.7,87.5,532.7,85.4z" />
	<path display="inline" fill="#14151A" d="M535.6,189.2c1-0.8,1.9-1.5,2.9-2.3c0.6,0.5,1.1,0.9,1.5,1.3   C539.9,190.5,537,191.6,535.6,189.2z" />
	<path display="inline" fill="#15171C" d="M541.4,375c2.3,2.2-1.8,5.9-3.5,3C539.1,377,540.2,376.1,541.4,375z" />
	<path display="inline" fill="#141419" d="M541.5,464.4c0.8,0.7,1.8,1.5,2.9,2.4c-0.5,0.6-0.9,1.1-1.2,1.6   C541.4,468.2,538.5,465,541.5,464.4z" />
	<path display="inline" fill="#141115" d="M544.6,559.3c2.2,3.4-5.4,3.3-3.3,0C542.3,559.3,543.3,559.3,544.6,559.3z" />
	<path display="inline" fill="#15151A" d="M539.3,286.5c-0.5-0.5-0.8-0.9-1.2-1.2c1.7-2.3,1.7-2.3,3.2-1.7   C541.6,285,540.9,285.8,539.3,286.5z" />
	<path display="inline" fill="#CCD2E9" d="M433.5,132c20.4,22,24,45.8,13.3,73.1c1.4,13.3,4.5,27.8,0.8,40.7   c-2.1,3.2,1.3,7.3-0.6,11c-1.1,4.8-3,9.3-3.8,14.1c-0.9,2.8,1.5,5.1,0.1,8c-0.6,0.4-1.3,0.9-2.1,1.5c-0.7,2-0.4,4.1-0.3,6.2   c-2.2,4.1-15.3,5.4-19.5,4.6c-3.3-6.2-3.7-12.9-7.2-18.9c0.9,6.5,3.3,13.2,6.4,18.9c-1.8,2.3-6.1,1.5-9,1.9   c-0.2-0.8-0.3-1.5-0.4-2.2c-0.4,0.3-0.7,0.7-1.1,1c-5.8-9.1-13.7-18.7-12.7-30.1c2.3-0.4,5.3,0.8,7-1.3c-2.6-0.5-5.2,0.3-7.7-0.5   c0-1.1,0-2.1,0-3.1c7.7,0.1,15.5-0.4,23.1-1.5c-2.5,0-5.6-1.1-7.7,0.3c-5.2-1.2-17.2,3.4-15.4-5.4c7.2,0.9,14.9,2.2,22.1,0.8   c-3.5-0.7-7.2,0.5-10.4-0.6c-1.2-1.3-2.3-0.9-3.6-0.3c-2.8-0.2-5.5-0.7-8.1-2c0.8-4.5-1.5-9-0.2-13.3c1.4,0.4,2.7,0.8,3.9,1.2   c0.3-0.3,0.5-0.5,0.8-0.8c-1.8-5.1-7.3-7.2-5.5-13.4c2.9,1.7,5.6,3.8,9.2,2.3c-0.2-1.4-0.3-2.6-0.5-4c0.4-0.1,0.8-0.2,1.2-0.3   c1-1.2-0.3-1.4-0.8-2c-0.8-1.2-2.1-0.2-3-0.7c-2.4-2-4.7-3.9-7-5.8c-0.5-3.5,0.4-6.6,2.1-9.4c12.5,3.1,34.6,7.1,40-8.2   c0.7,1,1.5,1.9,2.2,2.9l0,0.3c0.2,0.3,0.4,0.6,0.5,0.9c2.2,0.6,4.3,1.3,6.8,2c-0.8-1.7-2.5-1.7-3.4-2.7c1.2-1.1,2.8-1.8,3.3-3.4   c-1.4-4.1-2.8-4.9-7.2-4.3c-1.1,1.1-2,2.3-3.5,3.1c-0.9,2.3-2.5,4-4.4,5.5c-10.5-3.3-22.7-0.6-32.5-6.2   c11.2-31.4,0.3-55.6-25.6-75.1c1.1-1,2-1.6,3.1-2.1c4.6,6.2,11,10.5,16.1,15.9c9.9,11.6,18.6,26.8,33.7,31.6   c0.2-0.4,0.5-0.8,0.9-1.5c15,0.1,8.9-18.8,5.9-27.7C433,132.6,433.2,132.3,433.5,132z M438.9,244.2L438.9,244.2   c1.9-4.6,5-38.6-2.5-36.9c1.7,4.5,3.2,9,4.5,13.4c-2.6,8-2.7,16.9-2.6,25.2c0.1,0,0.2,0,0.3,0C438.7,245.4,438.8,244.8,438.9,244.2   z M426,245.3c1.4,0.2,2.6-0.1,4.1-1c-8.1,0-14.8,1.5-22.6,0.9C411.4,247.6,421.4,245.9,426,245.3z M436.4,181.8   c-0.9,2.4-1.3,4.7-1.5,7.2C437.7,187.6,438,184.3,436.4,181.8z M439.2,248.6c-1.5,1.8-1,4.1,0.4,5.8   C441.4,252.7,441.3,250.5,439.2,248.6z M435.4,178.2c0.3-3.2,0.7-3.8-1.1-5.2C434,176.4,434,176.6,435.4,178.2z" />
	<path display="inline" fill="#FBDFD3" d="M348.1,136c0.1-0.2,0.2-0.3,0.2-0.5c8.5-3.7,12.8-14.5,22.1-17.6c3.4,1.7,9,6.6,13.9,12.2   c-4.6,1.7-10.7-1.6-15.4,0.7c-7-0.4-8.8-0.2-10.8,0.8c0.3,0.2,0.5,0.4,0.7,0.5c4.9,0,9.8-0.7,14.7-1.2c3.4,1.7,8.2,2.8,11.5,0.6   c4.7,7.5,11,15.1,13.5,23.6c-1.1-0.9-2.2-0.1-3.4,0c-0.9-0.3-1.5,0.1-2.1,1.2c1-0.1,1.7,0.3,2.1-0.6c1.2,0.1,2.3,0.2,3.4-0.7   c3.9,11.3,1.1,24.5-2.8,35.5c-2.8-0.8-4.4-3.9-6.1-5.8c0.5-1.6-1.5-2.4-1.8-3.7c-0.3-1.5-1.4-2.2-2.4-3.1   c-2.9,2.6-1.7,7.9-1.3,11.2c-2.9,2.8-3.5,6.2-6.6,9.1c1.3,0.1,2.3,0.1,3.2,0.2c0.7-0.6,1.4-1.1,2.2-1.7c0.4,1-0.3,2.1,0.7,2.6   c-0.2,8.3,2.5,16.3,1.3,24.7c-2.5,9.5-1.9,19.6,3,28.4c9.7,25.1-1.2,32.3,20.9,59.8c0.5-0.6,0.8-1,1.2-1.5c3.2-0.7,6.4-1.4,9.7-2.1   c2.8,3.6,8.9,2.4,10.8,6.2c-2.4,4.8,4.1,6.5,2.4,10.2c-3,1.1-5.5,2.8-5.1,6.2c-0.7,0.4-1.3,0.7-2,1.1c-1.9,6.4-3.2,7.7-8.7,2.8   c-6.5-5.1-14.3-3.1-18.3-11.8C387,297.8,367.6,287,364.2,257c2.1,1.3,1.6-1.8,0.1-1.4c-1.4-1.4-2-2.9-0.8-4.7   c0.1,0.6,0,1.2,0.8,1.3c0.6,0.6,1,1.4,2,1.3c1.1,1.6,2.6,2.4,4.5,2.9c-0.3,3.1,2.2,12.1,5.1,13.1c-1-1.9-3.8-9.8-2.2-11.1l0,0   c0.3,0.6,0.8,0.7,1.4,0.6c1.3,0.6,2.5,1.1,3.9,1.4c3-10.1-20.9-15-11.1-20.7c1-0.6,3.4-2.4,1.8-3.5l0,0c-1.3-0.8-1.6-0.7-2.1,0.7   l0,0c-0.6,0.9-1.3,1.7-1.8,2.7c-0.6,1.3-2,0.4-3,1.4c-0.1,0.5-0.3,1.3-0.4,2c-0.3,0-0.7-0.1-1.1-0.1c-1.9-3.1-3.5-6.4-3.1-10.2   c-6-5-6.5-13.5-8-20.8c5.6,3.2,6.4,9.4,9.3,14.1c1.6-0.4,1.2-1.9,1.7-3.2c1,0.5,1.8,0.9,2.9,1.5c-1.7-17.4-15.2-15.1-13.8-35.7   c5.1,0.1,6.8,5.7,11.2,6.7c-0.6-1.8-2.2-2.4-3.3-3.5c0.7-0.5,1.3-1.1,1.9-1.6c-1.4-6.8-9.8-7.8-10.9-14.2c-7.3-1.8-4.2-11-5.4-16.4   c-0.7-5.6-2-12,1.6-16.8c0,0,0,0,0,0c-0.4,1,0.4,1.6,1.3,1.4c1.1-1.8,2.1-3.4,3-4.9c1.9-0.4,3.8,0.3,4.8-1.5   C353.1,135,349.9,139.3,348.1,136z M365.6,199.8c-0.1-0.2-0.2-0.3-0.2-0.5c-0.1,0.1-0.2,0.2-0.3,0.3   C365.3,199.7,365.5,199.8,365.6,199.8c-0.1,0.8-0.2,1.5,0.7,2C367.7,203.8,367.1,199.6,365.6,199.8z M385,287.9   c0.2,0.4,0.3,0.7,0.5,1.1c0.1,0,0.3-0.1,0.4-0.1c0-0.6-0.1-1.1-0.1-1.7c-0.3-0.4-0.5-0.8-0.9-1.3C384,286.8,384.3,287.4,385,287.9z    M404,318.8c-0.9,1-1.8,2-2.9,3.2c2.6,0.5,5.6-4.3,4.3-6.3C404.9,316.8,404.4,317.8,404,318.8z M360.3,232.7   c0.1,1.8,0.1,1.8,1.4,1.8c-1.8-2.5,0.5-4.9-1.9-7.3C358.3,229.3,359.8,230.7,360.3,232.7z M344.9,158.2c-0.1,2.4-0.5,4.9,1.2,7.7   c0.5-4.9-0.5-8.9,2-13c-0.4-2.1,4.4-7.8,1.1-8c-2.1,3.7-2.7,8-3.6,12C344.7,157.1,344.9,157.7,344.9,158.2z M381.1,140.1   c-2.2-1.8-2.2-1.8-4-2.2c2.6,2.1,4.5,5.5,7.1,7.6C385.2,143.4,382.7,141.2,381.1,140.1z M418.7,321.4c2.5,1.3,5.7,5.8,8.7,3.4   c-1.6-3.7-5.9-3-8.8-4.7c-0.4,0.3-0.8,0.6-1.5,1.1C417.9,321.3,418.3,321.3,418.7,321.4z M380.5,279c-0.6-2.6-2.5-6.8-4.7-8.2   c0.1,3.4,1,8.5,4.6,8.9c-0.1,1.4,1.3,2,1.7,3.4C383,280.9,381.8,279.9,380.5,279z M369.1,204.7c3.2,5.4-0.6,13.4,2.9,15.4   c0.4-2.2,0.4-3.9-0.2-6c1.5-3,1.6-8.5-2-10C369.6,204.3,369.4,204.5,369.1,204.7z M357.6,137.3c3.6-0.1,10-0.2,12.3-2.4   C366,135.2,359.8,133.1,357.6,137.3z M424.5,330.8c-0.7-2.5-4.8-6.8-8-4.6c1.5,0.8,2.6,1.6,3.2,2.9   C421.3,329.6,422.8,330.1,424.5,330.8z M387.7,266.2c-0.4-2-1.8-3.2-4.4-3.7C385.3,265.3,385.6,265.6,387.7,266.2z M384.2,167.5   c1.2,1.5,3.6-3.4,2.6-4.4C385.8,164.5,384.8,165.9,384.2,167.5z M376.3,199.2c-1.8,0.7-1.8,0.7-3,3.2   C375.4,201.9,375.4,201.9,376.3,199.2z M386.5,290.4c0.9,2.4,0.9,2.4,3.4,3.9C389.3,292.5,387.9,291.8,386.5,290.4z M370.7,224.3   c0.6-1.2,1.4-2.2,0.1-3.3C369.2,222,370.1,223,370.7,224.3z M424.5,316.5c1.2,1.6,2.1,2,3.7,1.1C426.9,317.3,426.1,317,424.5,316.5   z M382.6,262.3c-1.1-1.2-0.9-1.4-2-1.2C381,262.1,381.1,261.8,382.6,262.3z M423.1,316.6c0-0.2,0-0.4-0.1-0.6   c-0.5,0.1-0.9,0.2-1.4,0.3c0,0.1,0,0.2,0,0.4C422.1,316.6,422.6,316.6,423.1,316.6z M384.2,171.1c-0.7,0.5-0.3,0.7,0.1,1.1   C385,172,384.5,171.6,384.2,171.1z M420.3,316.3c-0.8-0.1-1.2-0.6-1.4,0.1C419.2,316.9,419.6,316.4,420.3,316.3z M382,173.3   c-0.1,0.3-0.3,0.6,0,0.8C382.3,173.7,382.4,173.6,382,173.3z" />
	<path display="inline" fill="#5876E8" d="M391.9,322.7c1.4,1.2,2.8,2.3,4.6,2.7c0.3,3,2.6,5.1,3.7,7.8c-0.5,0.9-2.1,0.9-2,2.5   c5.6,4.2,13.3,5.5,19.5,8.4c2.7-0.4,4.9-1.4,4.7-4.4c3.3-0.8,4.3-3.4,4.7-6.5c3.2-0.1,3-2.9,3-5.1c0.6-0.5,1.1-0.8,1.5-1.2   c0.8-0.1,1.7-0.1,2.6-0.2c0.4-0.9,0.8-1.7,1.3-2.6c1.5,1.1-0.2,2.9,1.2,4.4c0-2.6,0.3-4.6,0.9-7c0.6-0.1,1.3-0.2,1.1-1.1   c-1.6-0.9-2.2,0.5-3,1.4c-4-1.6-2.8-5.9-3-9.5c3.2-2.9,4.7-7.9,9.5-9.4c1.5,3.1,1.5,6.3,3.8,8.9c0.4-0.5,0.4-0.7,0.2-1.1   c-2.1-2.7-0.4-6.1-1.8-8.8c0.1-1.7,2.3-1.6,3.7-2.6c3.1,23.5,1.9,47.7,3.7,71.6c1.4,10.6,1.8,21,2.3,31.7   c-2.2,6.6-9.6,9.4-15.1,12.9c-0.2,0-0.5-0.1-0.7-0.1c0-8-6.1-14.1-2.5-22.1c1.8,1.1,3.2,4.4,5,3.6c-1.1-6.6-4-12.4-6.6-18.6   c0.6-0.1,1-0.3,1.4-0.4c0.5,0.2,1,0.4,1.5,0.6c1-1.7-3.1-2.6-4.2-3.8c-0.3-2.2,0.5-4,1.4-6.1c0.9,0,1.8,0,2.6,0   c0.4,0.9,1,0.9,1.7,0.3c-0.4-0.8-1-1.1-1.8-0.9c-0.7-0.3-1.3-0.7-2.1-1.1c0.6-1.5,1.2-2.7,1.8-4.2c1.1,0.5,2.1,0.9,3,1.3   c0.8,0.7,1.4,3.2,2.6,2.2c-0.8-2.3-3.1-3.2-4.5-5.4c0.8-3,3.7-5.6,3.1-9.5c-5.7,7.4-9.3,15.6-10,24.7c-0.9,0.8-1.8,1.6-2.7,2.5   c3.6,15.8-4.1,32.3-4.1,48.4c-1,8.5-13.1,8.3-18.6,13.2c-6.3,0.1-12.9-2.5-18.8-4.9c-1.6-4.6-1.4-9.5-1.3-14.4   c0.5,0.2,0.8,0.4,1.3,0.6c-0.6-5-2.9-11.9-0.6-16.5c2.1,1.1,3.3,3,5.1,4.8c0.1-3.2-4-5.2-6.5-7.5c0.3-6.2-0.6-11.3-0.7-17.5   c2.9,2.3,2.1,14.9,6.6,14.5c2.1-19.1-4.6-38.1-7.2-57c1.1,0.4,2,0.7,2.9,0.9c0.9-1.2-0.2-2.8,1.3-4c3.3,7.3,5.5,15.7,11.1,21.4   c0.5-11.3-6.5-20.9-9.2-31.5c0.6-0.5,1.2-1,1.9-1.6C391.3,325.5,390.7,323.8,391.9,322.7z M412,393.9c0.2,11.5-0.8,23.3,1.5,34.6   c0.9-8.1-1.3-16.8-0.8-25.2c-0.9-4.8,1.9-11.9-1.8-15.4C411.3,390.1,411.6,392,412,393.9z M409.9,365c-0.7-3.7,1.6-9.2-1.2-11.8   c1.2,5.7-0.2,11.6,1.2,17.3C409.9,368.7,409.9,366.8,409.9,365z M440.3,333.6c1-4.7,1-9.7-0.5-14.6c1.1,10-2.4,18.9-1.4,28.8   c1.9-2.7,0.9-5.2,0.6-7.8C440.7,338.5,440.1,335.8,440.3,333.6z" />
	<path display="inline" fill="#4B65C5" d="M385.2,416c0.7,1.6,1.3,3.2,1.2,5.1c-0.5-0.2-0.8-0.4-1.3-0.6c-0.1,4.9-0.3,9.7,1.3,14.4   c-10.4-3.6-22.1-8.2-28.3-17.6c0.8-17.3,1.8-35.1,0.2-52.4c0.3-0.3,0.6-0.5,0.8-0.7c-3.5-10.3-1.2-22.5-5-32.7   c-1.8-3.4,0.2-6.5,0.7-9.9c0.4-7.7,0.2-15.6,6.7-21c0.2,0,0.5,0,0.7,0c0.1,0.8,0,1.7,1.4,1c0-0.4,0-0.9-0.1-1.4   c-0.5,0.1-0.9,0.3-1.3,0.4c0-0.2,0-0.5-0.1-0.7c1.3-1.5,2.5-3.1,3.8-4.6c1.5,0,2.9,0,4.5,0c8.5,8,16.1,16.8,21.5,27.4   c-1.2,1.1-0.6,2.9-0.7,4.3c-0.7,0.6-1.3,1.1-1.9,1.6c2.7,10.7,9.7,20.2,9.2,31.5c-5.6-5.8-7.9-14.1-11.1-21.4   c-1.5,1.2-0.4,2.8-1.3,4c-0.9-0.3-1.8-0.6-2.9-0.9c2.6,19,9.3,37.9,7.2,57c-4.5,0.4-3.7-12.2-6.6-14.5c0.1,6.3,1,11.4,0.7,17.5   c-4.8-1.7-17.8-11.3-21.4-9.4c7,4.4,16.2,6.5,22.8,12.2c-1.8,2.6-0.3,7-0.8,10.2c-1-0.5-0.2-2.3-1.7-2.5c0,2,0.3,2.8,1.6,4.7   C385,416.6,385.1,416.3,385.2,416z M364.3,313.3c1-2.7,5.4-5.9,3.4-8.7c-2.7,3.2-3.5,7.9-5.9,11.5c-0.3,0.7-1,1.2-0.5,2.1   c0.3,5.1-1.3,13.1,3.6,16.1c-2.5-5.8-0.8-12.3-2.4-18.2C363.5,315.5,363.7,314.3,364.3,313.3z" />
	<path display="inline" fill="#FBDFD3" d="M400.6,449.1c1,31.9-9.8,64-0.2,95.4c-1.1,1.6-3.4,3.3-5.4,2.9c-3.7,2.2-4,2.3-3.1,6.7   c-2.2,0.6-4.2,2.4-6.9,2.3c0.3-11.5-1.5-23.1-0.8-34.8c-1.9-12.5-2-24.2-1.4-36.8c-4.5-0.4-1.6,10.7-1.8,13.8   c-1,6.4-1.9,12.5-2.3,18.9c-7.4-22.4-13.4-44.6-6.1-67.8c2.4-0.2,4.5,0.9,6.8,0.8c0.2,4.7,0.7,9.2,2.2,13.6   c-0.8-4.7,1.6-8.6,1.4-13.1c5.7-1.6,11.8-2.3,17.3-5.1C400.5,447.1,400.6,448.1,400.6,449.1z M394,537.3c1.4-1,1.4-1-0.1-3.7   C393.8,535,393.6,536.1,394,537.3z M381.4,473.1c0.3-1.6,0.3-1.6-1-1.7C380.7,471.9,381,472.4,381.4,473.1z M383.1,479.1   c-1.3,0.2-1.6,0.9-1,2C382.5,480.3,382.8,479.7,383.1,479.1z M395,541.7c-0.1,0-0.2,0-0.3,0c0,0.4,0,0.7,0,1.1c0.1,0,0.2,0,0.3,0   C395,542.4,395,542.1,395,541.7z" />
	<path display="inline" fill="#FBDFD3" d="M428.2,438.4c0.1,13.7-3.1,26.7-5.8,40.1c-3.9,14.8-1.8,30.2-3.7,45.1   c-2.6,0.9-4,1.9-5.3,4.4c-1.5-5-4.6-9.5-4.2-14.6c1.5-2.9-1.1-6-0.5-9.1c-0.8-3.2-1.9-1-1.4,1c-2.1,2-1.8,5.7-2.5,8.4   c-9-22.4,0.3-47.2-1-70.9c3.8-0.9,7.3-2.4,10.4-4.8c3.5-2.4,8.2-3,10.9-6.7l0.1,0.1l-0.1-0.1c1.1,0.6,1.7-0.9,2.7-0.8   C428,433.2,428.1,435.8,428.2,438.4z M406.7,497.2c0.3,0.6,0.6,1.3,1,2.3c0.2-2.2,0.2-2.2-0.4-3.7c-0.3-1.4,0.4-2.6-1.2-3.4   C405.8,494.3,406.4,495.7,406.7,497.2z" />
	<path display="inline" fill="#E4E4EB" d="M422,577.8c3.2,0.8,6.2,0.8,8.8-1.5c5.3,3.4,22.1,2.5,16,13c-7,4.5-16.4,2.4-24.3,5.3   c-12.2,0.7-21.2-13-33.1-14c-3.4,2.2-17.9,0.8-14.6-5c2.8-4,1.8-9.3,3.6-13.2c3,9.9,14,9.2,18.5,0.6c1.4-0.1,3.1-0.2,5.3-0.4   c-1.9,1.6-2.2,1.9-4.1,3.5c2.5,1.2,5.1-0.7,7.2,1.1c-0.6,0.8-1.2,1.5-2.1,2.7c3.3,0.5,7.9-3.1,9.3,0.5c-1.6,1.3-3.6,2.3-4.2,4.8   c2.4-0.5,4.6-0.9,6.8-1.4c0.5,0.2,1.3,0,1.5,0.8c-0.4,0.7-1.5,1-1.4,2.1c2.1,0,4,0,5.9,0C421.4,577.1,421.3,577.8,422,577.8z" />
	<path display="inline" fill="#EECABA" d="M400.6,449.1c-0.1-1-0.1-2-0.2-3.2c-5.5,2.8-11.7,3.5-17.3,5.1c-1.3-1.1-2.3-0.4-3.4,0.7   c-0.1-0.3-0.1-0.7-0.3-1.2c-2.2,0.1-4.4-1-6.8-0.8c-7.4,23.3-1.3,45.4,6.1,67.8c0.5-6.4,1.3-12.5,2.3-18.9c0.3,1,0.4,2.1,1.3,2.8   c-1,1.3,0.2,2.6-0.1,4.2c-1.1,0.9-1.6,2-1,3.5c1.1-0.8,1.2-1.9,1.2-3.1c2.6,16.3,1.9,34,2.6,50.4c-1.7,0.1-2.2-1.4-3.4-2.5   c0.3-3.3,1-6.6-0.3-10c-1.1,0.5-0.7,1.9-1.6,2.6c-2.5-20.7-12.1-39.8-17.6-59.3c-0.6-15.4,3-31.2,7.4-45.7c0,0.7,0.1,1.4,0.1,2.2   c2.3-1.2,2.9-2.8,2-5.4c-0.8,1.1-1.5,2.2-2.2,3.2c0-3.1,0-6.2,0-9.3c1.9-0.1,2.2,1,2.3,2.4c0.4-0.1,0.8-0.2,1.5-0.4   c8.5,3,18,7.1,27.7,7.6C401.2,444.3,401.6,446.8,400.6,449.1z M381.2,448.5c1.5-2.2,3.1-6.3,1.5-8.3c-0.3,0-0.8,0.1-1.2,0.1   C380.7,442.9,381.1,445.4,381.2,448.5z M380.9,536.2c-1.3,2.2-1.1,3.5,0.9,4.5C381.5,539,381.2,537.8,380.9,536.2z M381,513.7   c-1.4,0.7-1.1,1.7-0.9,2.9C381.2,515.8,381.5,515,381,513.7z M379.3,522c0.7-0.9,1.4-1.5,0.7-2.4C379,520.2,378.7,520.8,379.3,522z    M380.1,533.1c-0.5,0.2-0.4,0.4-0.2,0.8C380.4,533.7,380.4,533.5,380.1,533.1z" />
	<path display="inline" fill="#E4E4EB" d="M418.1,538.3c0.4,0,0.8,0,1.6,0c-0.9,1.4-1.5,2.5-2.4,3.9c3.2-0.8,5.1-2.2,8.4-2.8   c-0.5,1.9-2.8,2-3.1,4c2.2,0,4.1-1.1,6.1-1.3c0,0.2,0,0.5,0,0.7c-0.5,0.9-1.8,1.2-2.2,2.5c3,0.7,5.5-1.3,6.9,2.3   c1.2-0.6,2.7,0.5,3.9-0.7c0.6-0.2,1,0,1.3,0.6c0.8,2.1,4.2-0.5,6-0.5c1.4,1.6,2.8,5,5.4,4c4.3,5.6,14.7,2.9,15.3,10   c-6.8,6.4-17.7,6.7-26.6,5.7c-8.6-0.8-14.5-9.3-23.1-9c-1-0.9-2-1.7-3.2-2.7c2.1-5.4-2.7-16.5-9.4-11.6c-1.7-1.5-2-3.6-2-5.8   c4.8,2.1,8.9,0.8,13.3-1.7c1-5-0.3-12.6,7.7-10.5c4.7-3.1,6.7,2.9,4.1,6.4c-4.2,1.9-7.7,4.2-11.6,6.9   C416.4,539,417.3,539,418.1,538.3z M421,529.8c-0.3-0.1-0.5-0.3-0.7,0C420.5,530.2,420.7,530.1,421,529.8z" />
	<path display="inline" fill="#B7BDD5" d="M424.1,203.9c-8.9,1.8-18.5,0.6-27.3-2c-1.7,2.9-2.6,5.9-2.1,9.4c2.3,1.9,4.6,3.8,7,5.8   c0.8,0.5,2.2-0.5,3,0.7c-0.6,0-1.2,0-2.3,0c1,1.5,1.7,1.4,3.1,2c-0.4,0.1-0.8,0.2-1.2,0.3c0.2,1.4,0.3,2.7,0.5,4   c-3.6,1.5-6.2-0.6-9.2-2.3c-0.3,2.2-0.8,4.2,0.4,6c-0.4,0.1-0.8,0.2-1.3,0.4c0.9,1.2,2,1.6,3.2,1.8c1.5,1.4,2.1,3.5,3.2,5.2   c-0.3,0.2-0.5,0.5-0.8,0.8c-1.2-0.4-2.4-0.7-3.9-1.2c-1.2,4.3,1,8.8,0.2,13.3c-1.9,0.4-3.6-0.6-5.4-0.8c-0.4-0.6-0.8-1.2-1.7-1.1   c-6.4-5.6-3.7-16.3-1.7-23.5c1,0.1,1.7,1.5,3,0.9c1.1-1.7-1.8-1.2-2.3-2c-0.1-2.4,0.6-4.5,1-6.9c0.2-0.1,0.5-0.3,1.2-0.6   c-0.6-0.4-1-0.7-1.4-1c-0.1-1.2-0.2-2.4-0.3-3.4c2.9-3.3,4.8-7.5,8.4-9.7c-0.2-3,1.7-5.3,1.2-8.4c9.7,5.6,22,2.9,32.5,6.2   c-0.8,1-1.6,2.1-2.5,3.3c-3.2,0.4-9.1-1-11,2C419.5,204.6,421.9,203.7,424.1,203.9z M395.7,216c-2.2,2.7,3,2.9,4.5,1.6   C398.7,217.1,397.2,216.5,395.7,216z M391.5,227.5c-0.8,0.6,0,1.5,0.7,1C392.6,227.7,392.1,227.6,391.5,227.5z M388.8,229   c-0.5-0.5-0.9-0.5-1.2,0.1C388,229.6,388.4,229.6,388.8,229z M388.3,233.8c-0.2-0.3-0.3-0.3-0.5,0C388,234,388.2,234,388.3,233.8z" />
	<path display="inline" fill="#CFCEDC" d="M378.5,562.4c-1.8,3.8-0.8,9.2-3.6,13.2c-3.3,5.8,11.4,7.2,14.6,5   c11.9,0.9,20.9,14.6,33.1,14c7.9-2.9,17.3-0.7,24.3-5.3c-0.1,1.5-1.1,2.4-2.3,3.1c-1.1,0.7-2.7,0-3.4,1.5   c-19.5,5.3-30.3,1.2-47.6-6.7c-8.7-2.7-19-1.8-23.8-11.2c2.7-6.1,6.2-11.4,6.6-18.8C377.8,559.2,378.3,560.7,378.5,562.4z" />
	<path display="inline" fill="#91A3C4" d="M430.1,311.2c-2-0.2-3.6-1.4-5.7-2.1c-0.2-0.6-0.6-1.3-0.9-2c6.1-7.7,12.8-15.8,21.5-20   c1.5,0.2,3.1-0.1,4.1,1.2c2-0.6,2.8-1.8,2.5-3.7c1-1.3-0.4-3.9-1.9-4.1c-0.7-0.1-0.7-0.7-0.7-1.2c0.2-0.1,0.4-0.1,0.7,0   c0.5,0.8,1.3,0.5,2,0.6c4.1,0.8,1,6.5,0,9c3.7,2.4,12.2,3,10.1,9.1c-0.4,0.1-0.8,0.3-1.2,0.5C449.8,284.5,435.5,301.1,430.1,311.2z   " />
	<path display="inline" fill="#4B65C5" d="M435.5,377.8c-0.4,0.1-0.8,0.2-1.4,0.4c2.5,6.3,5.4,12,6.6,18.6c-1.8,0.9-3.2-2.5-5-3.6   c-3.5,7.9,2.2,13.8,2.5,21.5c-0.6-0.1-1.3-0.1-2-0.2c-1-1.9-1.9-3.7-3-5.7c-1.1,2.7-1.4,5.2-0.7,7.8c1.1,0.1,2.1,0.1,3.1,0.2   c-3.1,0.2-5.6,3-8.6,1.3c0.9-5.2,1.7-10.5,2.6-15.7c0.4,0.2,0.6,0.3,1,0.5c-0.5-8.4,0.2-17.3,1.5-25.6   C433.3,377.1,434.4,376.7,435.5,377.8z" />
	<path display="inline" fill="#EDC9B9" d="M400.5,496.5c2.5,4.9,1,12.3,4.4,17.2c0.7-2.7,0.4-6.4,2.5-8.4c1.6,2-0.1,6.1,1.9,8.1   c-0.6,1.7,0,3.1,0.7,4.6c-1.7,0.2,0.9,9,1.8,10.6c-2.5,2.2-5.8,1.3-8.9,1.9C402.3,519.2,397.1,507.6,400.5,496.5z" />
	<path display="inline" fill="#CFCEDC" d="M415.9,557.8c3.2-0.7,5.9,0.8,8.3,2.5c11.5,8.5,26.9,8.9,39.5,2.8   c-5.2,8.9-18.3,8.2-27.4,8c-4.8-3.7-10.9-4.9-15-9.8c-0.8,0.1-1.5,0.2-2.4,0.3C417.9,560.4,416.9,559.1,415.9,557.8z" />
	<path display="inline" fill="#E2E2E9" d="M406.7,544.8c3.9,3.3,1.6,7.5,3.2,11.5c-3.9,1.9-7.5,2.4-11.5,4.2   C389.7,552,400.3,548.9,406.7,544.8z" />
	<path display="inline" fill="#5675E5" d="M414.5,304.6c0,0.9,0.1,1.8,0.1,2.7c-2.1,1.2-4.1,1.7-6.5,0.9c-2.2-2.7-3.6-6.3-5.3-9.3   c10.2-1.3,19.7-2.9,29.8-5.1c-3,5.7-16.5,4.4-21.7,7.4c1,0.1,1.8,0.2,2.5,0.2C414.3,302.5,413.5,303.8,414.5,304.6z" />
	<path display="inline" fill="#090709" d="M431.6,326.8c-0.4,0.3-0.8,0.7-1.5,1.2c0.1,2.3,0.3,5.1-3,5.1c-0.4,3.1-1.4,5.7-4.7,6.5   c0.2,3-2,4-4.7,4.4c-6.2-2.9-13.9-4.2-19.5-8.4c-0.1-1.6,1.5-1.6,2-2.5c-1.1-2.7-3.3-4.8-3.7-7.8l0,0c0.2-0.1,0.3-0.1,0.4-0.3   c8.9,11.6,6.5,6.7,18.6,11.6c6.1,3.2,8.8,2.1,10.5-4.6c0.7-0.4,1.2-0.7,2-1.1c0.1-2.1,0.3-4.2,2.7-5   C431,326.3,431.3,326.6,431.6,326.8z M413.5,338.1c-4.1-1.9-8.5-1.7-12.4-4c-0.3,0.6-0.5,1-0.9,1.7c4.5,0.6,17.5,8.9,19.9,5.3   c-0.5-0.4-1-1-1.4-1C416.4,340.6,415.6,338.3,413.5,338.1z" />
	<path display="inline" fill="#B5BBD3" d="M396.5,256.8c0,1,0,2,0,3.1c2.5,0.9,5.1,0.1,7.7,0.5c-2.4,2.7-4.4-0.8-8,1   c0.3,0.1,0.6,0.2,0.9,0.3c-0.1,2.9-0.1,5.8,0.6,8.6c-0.3,0-0.6,0.1-1.1,0.2c0.9,1.8,1.7,3.5,2.5,5.2c-1.5,2.2,0.3,5.4-1.9,7.3   c1,2.5,1.3,5.2,3.1,7.3c3.3,1,3.3,3.5,7.7,2.9c-2.8,0.9-5.7,0.3-8.6,0.6c-2-2.9-3.2-6.8-4.1-10.1c-0.4-8.6-0.7-17.5-1.6-26.2   c0-0.6,0-1.1,0.7-1.4C395.2,256.4,395.9,256.6,396.5,256.8z" />
	<path display="inline" fill="#798AB1" d="M430.1,311.2c5.4-10.1,19.8-26.6,30.3-12.8c0.5-0.2,0.9-0.3,1.2-0.5   c0.1,1.6-1.1,2-2.1,2.8c-2.2-2-4.4-3.6-7.4-3.4c-0.2-0.7-0.3-1.2-0.5-1.8c-8.7,1.7-14.9,9.5-20.4,16   C430.7,311.3,430.4,311.2,430.1,311.2z" />
	<path display="inline" fill="#FCFCFC" d="M381.8,558.3c3.3,2.3,6.6-0.4,9.7-1.8c1.6,1.1,2.5,2.6,2.4,5c-1.2,1.7-2.7,3.7-4.2,5.8   C385.2,568.7,379.1,561.9,381.8,558.3z" />
	<path display="inline" fill="#070505" d="M389.7,184.7c-0.1,0.2,0,0.3,0.1,0.4c0.5,2.9-1.2,5.3-2,8c1.1,2.6,4.1,3.8,4.4,6.7   c-2.7,0.4-5.2,0-6.2-3c-0.9,1.2-1.2,1.8-2.3,2.5c-1-0.6-0.4-1.6-0.7-2.6c-0.8,0.6-1.5,1.1-2.2,1.7c-0.9-0.1-1.9-0.1-3.2-0.2   c2.8-2.3,3.1-5.6,5.5-7.7c0.6,0.2,1.2,0.4,2,0.7c1.1-2.4,2.3-4.9,3.5-7.4C389,184.1,389.4,184.4,389.7,184.7z" />
	<path display="inline" fill="#CAD0E7" d="M408.1,293.3c-4.4,0.5-4.4-1.9-7.7-2.9c-1.8-2.1-2.1-4.8-3.1-7.3c2.2-1.9,0.4-5.1,1.9-7.3   c3.2,5.7,6.1,11.6,10.1,16.8C409.2,293.3,408.7,293.4,408.1,293.3z" />
	<path display="inline" fill="#F6DBCF" d="M470.8,293.3c-1.7,4.1-2.9,8.4-5.7,12c-1.9-0.5-2.4-2.5-3.5-4c2.5-2.3,3.4-7.8,0.1-9.6   c0.4-0.2,0.9-0.4,1.3-0.6C465.7,291.8,468.3,292.6,470.8,293.3z" />
	<path display="inline" fill="#8696B4" d="M452.1,260.9c0.4-2,0.1-4.1,1.2-5.9c0.8,0.1,0.8,0.6,0.8,1c-0.4,7.3,0.1,14.7-2.8,21.7   c-0.6-0.1-1.1-0.2-1.7-0.4c-0.4-5.1-1.1-10,0.6-14.9c0.2,0.2,0.5,0.5,0.7,0.7c-0.3,4-1.2,6.6-0.6,11   C451.7,269.2,452.1,265.1,452.1,260.9z" />
	<path display="inline" fill="#5775E6" d="M423.3,299.9c-0.2,2.2-0.5,4.3-0.7,6.6c-2,0.1-3.9,0.2-5.8,0.3c-0.5-1.8-1-3.7-1.5-5.6   C417.5,299.4,420.8,299.8,423.3,299.9z" />
	<path display="inline" fill="#7788AA" d="M448.9,279.2c-0.3,1.5,1.6,0.8,2,2c-0.5-0.1-1.1-0.1-1.6-0.2c-0.1,3.3-3.7,0.5-4-1.1   c-0.2-5.7-0.5-10.8,1.7-16.2c0.2,0.4,0.4,0.9,0.6,1.3C447.2,269.8,446,274.9,448.9,279.2z" />
	<path display="inline" fill="#080909" d="M431.2,545.5c-1.5-0.2-3,0.4-4.6-0.1c0.9-2.5,3.8-2.5,4.8-4.5l0,0   c1.3,0.1,2.4-0.3,3.4-1.2c0.8-0.3,2.3,0.3,2.6-0.8c0.8,0.2,1.3,0.6,1.3,1.4c-1,1.2-1.4,3.1-3.3,3.3c-0.6-0.1-1.1,0-1.3,0.6   C433.2,544.7,432.2,545.1,431.2,545.5z" />
	<path display="inline" fill="#E9ECEC" d="M400,532.5c7.2,1.5,6.8-1.5,12.6-0.8c0.1,0.7,0.3,1.3,0.4,2   C408.8,534.6,402.1,538.2,400,532.5z" />
	<path display="inline" fill="#DFC0B1" d="M428.2,438.4c-0.1-2.6-0.2-5.2-0.2-7.8c-1-0.1-1.6,1.4-2.7,0.8c0.5-3.1,1-6.1,1.6-9.3   c0.7-0.2,1.4-0.4,2.1-0.6C429.1,426.8,428.8,432.9,428.2,438.4z" />
	<path display="inline" fill="#100D0E" d="M422,577.8c-0.8,0-0.6-0.7-0.9-1.2c-1.9,0-3.9,0-5.9,0c0-1.2,1-1.4,1.4-2.1   c2.6-1.2,7.1-4,7.7,0.7c0.3,0,0.7,0,1,0C424.2,576,423.1,576.8,422,577.8z" />
	<path display="inline" fill="#E0C0B1" d="M455.6,307.9c-0.5,0.1-1.1,0.2-1.7,0.2c-0.6-1.9-1.3-3.7-2-5.8c0.6-0.8,1.3-1.6,2-2.5   c0.8,0.3,1.5,0.6,2.3,0.9C457.5,303.2,457,305.6,455.6,307.9z" />
	<path display="inline" fill="#5775E5" d="M435.6,416.8c-1-0.1-2-0.1-3.1-0.2c-0.7-2.6-0.5-5.1,0.7-7.8c1,2,2,3.8,3,5.7   c0.8,0.1,1.4,0.1,2,0.2c0,0.2,0,0.4,0,0.6C437.6,416.3,436.5,416.4,435.6,416.8z" />
	<path display="inline" fill="#AEB5CC" d="M389.5,246.3c0.8-0.1,1.3,0.5,1.7,1.1c-0.2,0.2-0.4,0.4-0.9,0.8c2.2,0.9,4.3,0.7,6.3,2.1   c0,0.7,0,1.4,0,2c-4.3,0.7-6.5-0.3-7.8-4.6C389,247.2,389.2,246.7,389.5,246.3z" />
	<path display="inline" fill="#E6C3B4" d="M461.7,301.3c1.1,1.4,1.5,3.5,3.5,4c-0.7,2.5-3.9,1-5.9,1.1c-0.5-1.6-0.5-2.9-0.6-4.6   C459.5,301.1,460.6,301.5,461.7,301.3z" />
	<path display="inline" fill="#DBBAAB" d="M384.7,198.5c0.3-0.5,0.7-1,1.3-1.7c0.7,1.8,1.5,2.5,3.1,3.1c0.6,1.2,1.8,0.4,2.7,1   c-0.7,1.6-2,2.6-3,3.9c-0.4-0.1-0.8-0.1-1.1-0.2C386.8,202.5,386.7,199.8,384.7,198.5z" />
	<path display="inline" fill="#201E1F" d="M438.8,547.6c-1-1.3-3.6-0.3-5.2-0.8c0.2-3.6,6-1.7,7.2-4.6c0.5,0.4,0.9,0.8,1.4,1.2   c-1,0.2-1.7,1.9-0.7,2.3C440.6,546.4,439.7,547,438.8,547.6z" />
	<path display="inline" fill="#8799B9" d="M467.7,316c-0.7,0.3-1.4-0.4-2-0.7l0,0c0.6,0,1.2,0,1.2-0.8l0,0c0.3-0.2,0.5-0.4,0.8-0.6   l0,0c0.6,0.1,1.3,0.1,1.3-0.8c1.5-1.3,2.9-2.6,4.5-4c0.4,0.6,0.7,1,1,1.5c-0.7,2.2-2.4,4.2-4.6,4.8C469,315.4,468.2,315,467.7,316z   " />
	<path display="inline" fill="#C5C9CF" d="M440.8,542.3c-1.2,2.9-7,1-7.2,4.6c1.3,0.1,2.6,0.1,3.9,0.2c-1.2,1.2-2.7,0.1-3.9,0.7   c-0.9-0.8-0.8-2.4-2.3-2.3c2.9-1.3,6.1-2,7.5-5.2c0,0,0,0,0,0C439.4,541,440.1,541.6,440.8,542.3z" />
	<path display="inline" fill="#261C1A" d="M458.5,310c-1.1-0.3-0.3-0.8-0.2-1.3c6,3.2,9.2-3.2,13.2-6.3l0.2,0.1c-1,3.6-5,5.4-7.5,8   C462.3,310.5,460.3,311.1,458.5,310z" />
	<path display="inline" fill="#C3CAD0" d="M425.4,575.2c-0.3,0-0.7,0-1,0c-0.4-3.5-2.6-1.9-5-3.2c0.8-0.7,1.6-1.4,2.5-2.3   c1.2,1.4,3.1,2,4.5,3.1C426.7,574,425.9,574.5,425.4,575.2z" />
	<path display="inline" fill="#7F8EAA" d="M448.1,260.1c0.3-2.2,0.9-4.2,2.2-6c-0.2-0.9-0.3-1.8-0.5-2.8c0.7-0.2,1.2-0.3,1.8-0.5   l-0.1-0.1c0.2,0.6,0.5,1.2,0.7,2c-1.1,2.6-2.3,5.3-3.5,8.1C448.5,260.6,448.3,260.4,448.1,260.1z" />
	<path display="inline" fill="#BAA79A" d="M465,308.6c-2.4,1.3-5.4,1.2-7.4-0.5c-0.7-0.1-1.3-0.2-2-0.2c0.4-0.9,0.8-1.7,1.2-2.6   c0.1,0.6,0.1,1.3,0.2,1.9c1.4-0.1,1.1-1.5,1.9-2c0.1,0.4,0.2,0.8,0.4,1.3c1.3,0.1,2.6,0.2,3.9,0.3c-1.1,1.1-2.6,0.1-3.9,0.7   c0.8,2.3,4,0.6,5.7,0.5C465,308.1,465,308.4,465,308.6z" />
	<path display="inline" fill="#AFB6CD" d="M394.5,256.2c-0.7,0.2-0.6,0.8-0.7,1.4c-0.7-1.4-1.4-2.8-2.1-4.3c0.3-0.2,0.5-0.4,0.7-0.6   c1,0.9,2.8,0,4,0.1c-0.2,1.2,0.5,2,1.4,2.6c-1.3-0.2-2.5-0.3-4.1-0.5C394.1,255.5,394.3,255.9,394.5,256.2z" />
	<path display="inline" fill="#212329" d="M452.1,260.9c-0.1,4.2-0.4,8.3-1.7,13.1c-0.6-4.4,0.3-7.1,0.6-11c0.9-0.5,0.5-1.4,0.7-2.1   C451.9,260.9,452,260.9,452.1,260.9z" />
	<path display="inline" fill="#69788E" d="M445,287.1c-0.5,0.5-1,0.9-1.5,1.4c-0.1-2.9-2.6-5-0.2-8.2c0.5,0.7,0.9,1.2,1.3,1.7   C444.1,283.7,443.8,285.4,445,287.1z" />
	<path display="inline" fill="#39467B" d="M422.1,299.7c-3.4,0.2-8.5,0.1-7.5,4.9c-1.1-0.8-0.2-2.2-1-3.3c-0.7-0.1-1.5-0.1-2.5-0.2   c2.9-1.2,6.6-1.8,9.8-2.5C421.2,299,421.7,299.4,422.1,299.7z" />
	<path display="inline" fill="#7F90AD" d="M451.6,250.9c0.3-2.3,0.3-2.3,2-3.8c2,1.6,2,2.1-0.4,4.6   C452.6,251.4,452.1,251.1,451.6,250.9L451.6,250.9z" />
	<path display="inline" fill="#4860BB" d="M429.5,383.2c-0.7-1.7-1.2-3.2-1.5-5c0.9-0.9,1.8-1.7,2.7-2.5   C430.8,378.3,430.2,380.8,429.5,383.2z" />
	<path display="inline" fill="#C1ACA3" d="M451.1,284.5c-0.6,0.6-1.2,1.2-1.8,1.7c-3.3,0-3.3,0-3.5-2.2c1.2-0.6,2.6,1,3.7-0.4   C450.9,283.1,450.9,283.1,451.1,284.5z" />
	<path display="inline" fill="#1E1F3A" d="M422.1,299.7c-0.4-0.3-0.9-0.7-1.3-1c3.1,0.2,5.7-1.5,8.7-2.1c-0.2,0.7,0.3,1.6-0.8,1.9   c-1-0.9-3.3,0.1-4,1.4C423.8,299.9,422.9,299.9,422.1,299.7z" />
	<path display="inline" fill="#B9C2C8" d="M414.7,569.2c0.6-0.5,1.1-1,1.7-1.5c0.1-0.9,0.2-1.9,0.3-3c1.4,0.6,1.9,1.7,2.8,2.8   C418,568.4,416.5,569.2,414.7,569.2C414.6,569.1,414.7,569.2,414.7,569.2z" />
	<path display="inline" fill="#BDC2C2" d="M381.8,558.3c-0.8,0.2-0.6,0.9-0.8,1.5c-1-1.8-2-3.7-3-5.6c0.2-0.4,0.4-0.9,0.6-1.4   C380.2,554,380.6,556.6,381.8,558.3z" />
	<path display="inline" fill="#A79A91" d="M464.2,310.5c2.3-1.9,4.6-3.9,6.8-6c0.2,0,0.5,0,0.7,0c-1.6,2.6-3.8,4.6-6.4,6.1   C464.9,310.6,464.5,310.6,464.2,310.5z" />
	<path display="inline" fill="#1D2442" d="M444.3,301.8c1.4,2.7-0.2,6.1,1.8,8.8c0.2,0.4,0.2,0.6-0.2,1.1c-1.5-1.5-1.8-3.3-2.3-5.1   C444.5,305.1,444.2,303.4,444.3,301.8z" />
	<path display="inline" fill="#414046" d="M420.5,291.2c-1.5-1.7-2.1-3.8-2.7-5.9c0.2-0.3,0.5-0.5,0.7-0.8c0.9,2.2,1.8,4.4,2.8,6.7   C421.1,291.2,420.8,291.2,420.5,291.2z" />
	<path display="inline" fill="#2D292E" d="M409.2,292.5c-1.4-2-2.7-4-4.1-6c0.2-0.2,0.5-0.5,0.7-0.7c1.4,2,2.7,4,4.1,6   C409.7,292.1,409.5,292.3,409.2,292.5z" />
	<path display="inline" fill="#BDA497" d="M464.2,310.5c0.4,0.1,0.7,0.1,1.1,0.2c-2,1.6-5.3,2.3-6.9-0.2c0-0.1,0.1-0.3,0.1-0.4   C460.3,311.1,462.3,310.5,464.2,310.5z" />
	<path display="inline" fill="#6B778C" d="M456.4,244.5c1.6,2.1,0.8,5.1-0.8,6.9c-0.7-1.4,0.4-2.3,0.6-3.4   C456.4,246.9,455.8,245.7,456.4,244.5z" />
	<path display="inline" fill="#374573" d="M437.6,321.5c-0.6,2.4-0.8,4.4-0.9,7c-1.5-1.4,0.3-3.2-1.2-4.4c0-0.5,0-0.9,0-1.4   C436.6,322.9,436.7,321.8,437.6,321.5z" />
	<path display="inline" fill="#282224" d="M451.1,284.5c-0.2-1.4-0.2-1.4-1.6-0.9c-0.4-0.3-0.9-0.7-1.3-1c1,0,0.9-0.8,1.1-1.6   c0.5,0.1,1,0.1,1.6,0.2c0.6,1,1.6,2.2,0.7,3.3C451.4,284.5,451.2,284.5,451.1,284.5z" />
	<path display="inline" fill="#415CB4" d="M424.7,299.9c0.7-1.3,3.1-2.3,4-1.4c-1.1,0.9-2.1,1.8-3.1,2.6   C424.7,301,424.9,300.4,424.7,299.9z" />
	<path display="inline" fill="#070303" d="M388.5,220c0,0.5,0,1.1,0,1.7c0.6,0.8,3.4,0.3,2.3,2c-1.2,0.6-1.9-0.8-3-0.9   C387.9,221.8,387.3,220.7,388.5,220z" />
	<path display="inline" fill="#989898" d="M399.5,521.1c0.5,2.7,0.6,5.4,0,8.9C399,526.5,399.1,523.8,399.5,521.1z" />
	<path display="inline" fill="#272842" d="M437.6,321.5c-1,0.8-2.8,2.4-2.8-0.1c0.3,0.1,0.6,0.2,0.9,0.3c0.8-0.9,1.4-2.3,3-1.4   C438.9,321.3,438.3,321.4,437.6,321.5z" />
	<path display="inline" fill="#C1B1A8" d="M453.6,287.5c0.3-0.7,0.7-1.5,1-2.3c1.7,0.7,1.1,1.9,1.1,3.3   C454.7,288.6,454,288.5,453.6,287.5z" />
	<path display="inline" fill="#A1A5AA" d="M419.4,572c0.5,0.2,1,0.4,1.4,0.6c-1.4,0.6-2.8,1.3-4.2,1.9c-0.2-0.8-1-0.6-1.5-0.8   C416.6,573.1,418,572.5,419.4,572z" />
	<path display="inline" fill="#9EA8AD" d="M437.4,538.9c-0.3,1.1-1.8,0.5-2.6,0.8c-0.2-0.3-0.5-0.6-0.7-0.8c0.3-0.4,0.6-0.8,1-1.4   C435.9,538,436.6,538.5,437.4,538.9z" />
	<path display="inline" fill="#818383" d="M434.3,573c-1.7-0.2-3.1-0.9-4.1-2.1C431.9,571,433.2,571.9,434.3,573z" />
	<path display="inline" fill="#A0948C" d="M470.9,309.2c-2.2,2.3-2.2,2.3-4,2.6c1.1-1.3,2.1-2.4,3.5-3.1   C470.6,308.9,470.8,309.1,470.9,309.2z" />
	<path display="inline" fill="#565D6D" d="M448.1,260.1c0.2,0.2,0.5,0.5,0.7,0.7c-0.6,1.3-0.2,3-1.1,4.2c-0.2-0.4-0.4-0.9-0.6-1.3   C447.3,262.5,447.7,261.3,448.1,260.1z" />
	<path display="inline" fill="#4A5664" d="M451.7,260.9c-0.2,0.7,0.1,1.6-0.7,2.1c-0.2-0.2-0.5-0.5-0.7-0.7c0.3-1,0.6-2,1-3.6   C451.5,259.8,451.6,260.4,451.7,260.9z" />
	<path display="inline" fill="#1F2A53" d="M440.4,363.7c0.9,0.5,1.5,1.2,1.7,2.2c-1.2,1.1-1.9-1.5-2.6-2.2   C439.8,363.7,440.1,363.7,440.4,363.7z" />
	<path display="inline" fill="#626A6D" d="M430.9,576.3c-0.5,0.3-1,0.6-1.4,0.9c0.5-1.3-1.4-1.3-1.3-2.3   C429.3,574.8,429.3,574.8,430.9,576.3z" />
	<path display="inline" fill="#353436" d="M434.1,538.9c0.2,0.3,0.5,0.6,0.7,0.8c-1,0.9-2.1,1.2-3.4,1.2   C432.3,540.3,433.2,539.6,434.1,538.9z" />
	<path display="inline" fill="#979A8E" d="M461.7,313.7c1.5-0.3,2.6-1,4-1C464.7,314.6,463.4,314.3,461.7,313.7z" />
	<path display="inline" fill="#3F4446" d="M410.6,561c-0.8,1.3-1.9,0.3-2.9,0.6c1-0.5,1.8-1.3,3-1.1   C410.6,560.6,410.6,560.8,410.6,561z" />
	<path display="inline" fill="#C1A094" d="M451.1,302.1c-0.1-1.4-0.2-2.2-0.3-3.4c0.8,0.4,1.2,0.6,1.7,0.8   C452.1,300.3,451.7,300.9,451.1,302.1z" />
	<path display="inline" fill="#B1CAD0" d="M405.3,567.2c-0.8-0.9-1.9-0.8-3-0.9c1.3-0.6,2.6-0.6,4.5-0.6   C406.2,566.4,405.8,566.8,405.3,567.2z" />
	<path display="inline" fill="#857F8E" d="M396.5,252.9c-1.3-0.2-3.7,1.1-4.2-0.5c1.4,0,2.8-0.1,4.2-0.1   C396.5,252.4,396.5,252.7,396.5,252.9z" />
	<path display="inline" fill="#9FA4A9" d="M441.5,545.8c-1-0.4-0.3-2.1,0.7-2.3c0.2,0.3,0.5,0.7,0.8,1.1   C442.5,545,442,545.4,441.5,545.8z" />
	<path display="inline" fill="#4A5252" d="M421.3,563.1c1,0.3,1.6,1,2.1,1.9c-1.1,0-1.1,0-2-1.3   C421.3,563.6,421.3,563.4,421.3,563.1z" />
	<path display="inline" fill="#463936" d="M409.9,520.8c-0.2-0.9-1.5-2.7,0.1-2.8c0.2,0.9,0.5,1.8,0.7,2.7   C410.4,520.8,410.1,520.8,409.9,520.8z" />
	<path display="inline" fill="#627A90" d="M450.5,248.1c-0.6,1-0.9,1.4-1.3,2C448.8,249.1,448.5,248.4,450.5,248.1z" />
	<path display="inline" fill="#8B8881" d="M463.1,291.1c-0.4,0.2-0.9,0.4-1.3,0.6c-0.5-0.2-1-0.3-1.5-0.5c0-0.3,0-0.5,0-0.8   C461.2,290.6,462.2,290.8,463.1,291.1z" />
	<path display="inline" fill="#6C7B9D" d="M465.7,315.3c0.5,0.2,1,0.5,1.4,0.7c-0.9,0.9-1.7,0.4-2.8-0.4   C465,315.5,465.3,315.4,465.7,315.3z" />
	<path display="inline" fill="#493436" d="M418.1,538.3c-0.8,0.6-1.7,0.7-3.2,0.5c1-0.6,1.4-0.9,1.9-1.2   C417.2,537.9,417.6,538.1,418.1,538.3z" />
	<path display="inline" fill="#C6D0D6" d="M429.8,534.6c-0.8,0.3-1.4,0.5-2.4,0.9c0.5-0.9,0.7-1.3,1.1-1.9   C428.9,534,429.2,534.2,429.8,534.6z" />
	<path display="inline" fill="#A5CDD3" d="M410.6,561c0-0.2,0-0.4,0.1-0.6c0.9,0,1.6-1.3,2.7-0.4C412.7,561.2,411.6,561,410.6,561z" />
	<path display="inline" fill="#2F3971" d="M436.7,367.8c0.8-0.2,1.4,0.1,1.8,0.9C437.7,369.6,436.7,368.9,436.7,367.8z" />
	<path display="inline" fill="#6F6D6B" d="M471.7,304.6c-0.2,0-0.5,0-0.7,0c0.2-0.7,0.5-1.3,0.7-2c0.4,0.1,0.8,0.1,1.2,0.2   c-0.2,0.5-0.3,0.8-0.4,1.2C472.3,304.2,472,304.4,471.7,304.6z" />
	<path display="inline" fill="#B1B7BD" d="M412.6,570.3c-0.2-0.4-0.4-0.8-0.6-1.2c0.9,0,1.8,0,2.7,0.1l-0.1-0.1   C414.3,570.1,413.3,570,412.6,570.3z" />
	<path display="inline" fill="#434541" d="M460.3,290.4c0,0.3,0,0.5,0,0.8c-0.5-0.3-1.1-0.6-1.7-0.9   C459.3,289.6,459.8,289.7,460.3,290.4z" />
	<path display="inline" fill="#2B2D2E" d="M415.9,562.6c-0.8,0.6-1.3,0.2-1.1-0.5C415.2,562.3,415.5,562.4,415.9,562.6z" />
	<path display="inline" fill="#7788AA" d="M451.6,279.7c-0.7,0-1.5,0.2-2-0.6C450.4,279,451.1,279,451.6,279.7z" />
	<path display="inline" fill="#717F83" d="M430,542.2c-0.4,0.2-0.8,0.5-1.2,0.7c-0.3-1,0.4-1.5,1.3-1.4   C430.1,541.8,430.1,542,430,542.2z" />
	<path display="inline" fill="#353436" d="M430,542.2c-0.1-0.9,0.6-1.4,1.4-1.3C431.2,541.6,430.8,542.1,430,542.2z" />
	<path display="inline" fill="#6C7B9D" d="M467.7,316c0.5-1,1.3-0.6,2.1-0.6C469.2,316.1,468.5,316.1,467.7,316z" />
	<path display="inline" fill="#6C7B9D" d="M468.9,313.1c0,0.9-0.6,0.9-1.3,0.8C468.1,313.7,468.5,313.4,468.9,313.1z" />
	<path display="inline" fill="#6C7B9D" d="M466.9,314.5c0,0.9-0.6,0.8-1.2,0.8C466.1,315.1,466.5,314.8,466.9,314.5z" />
	<path display="inline" fill="#4B65C5" d="M437.5,416.1c0.2-0.3,0.4-0.5,0.7-0.8c0.2,0,0.5,0.1,0.7,0.1   C438.4,415.6,438,415.9,437.5,416.1z" />
	<path display="inline" fill="#9BB0B5" d="M432.7,536.8c-1.2,0-1.3-0.4-0.1-0.7C432.6,536.4,432.6,536.6,432.7,536.8z" />
	<path display="inline" fill="#261C1A" d="M457.6,308.1c0.2,0.2,0.4,0.4,0.6,0.5C458,308.5,457.8,308.3,457.6,308.1z" />
	<path display="inline" fill="#6C7B9D" d="M470.4,315.2c0.3-0.2,0.5-0.3,0.8-0.5C470.9,314.9,470.7,315.1,470.4,315.2z" />
	<path display="inline" fill="#798AB1" d="M428.5,310.8c0.3,0.1,0.6,0.3,0.9,0.4C429.1,311,428.8,310.9,428.5,310.8z" />
	<path display="inline" fill="#080909" d="M439.5,541c-0.2-0.2-0.5-0.5-0.7-0.7C439,540.5,439.2,540.8,439.5,541z" />
	<path display="inline" fill="#BDC0B5" d="M470.9,309.2c-0.2-0.2-0.3-0.3-0.5-0.5C470.9,308.6,471.1,308.7,470.9,309.2z" />
	<path display="inline" fill="#DFC0B1" d="M425.3,431.3c-0.2,0.3-0.4,0.5-0.5,0.8C424.9,431.9,425.1,431.6,425.3,431.3z" />
	<path display="inline" fill="#261C1A" d="M458.4,310.4c0.2,0.3,0.4,0.6,0.6,0.8C458.8,311,458.6,310.7,458.4,310.4z" />
	<path display="inline" fill="#455F5F" d="M420.7,563.1c-0.2-0.1-0.4-0.2-0.5-0.3C420.7,562.3,420.6,562.8,420.7,563.1   C420.7,563.1,420.7,563.1,420.7,563.1z" />
	<path display="inline" fill="#9DABAB" d="M421.3,563.1c0,0.2,0,0.5,0.1,0.7c-0.2-0.2-0.4-0.5-0.6-0.7c0,0,0,0,0,0   C420.9,563,421.1,563,421.3,563.1z" />
	<path display="inline" fill="#6C7B9D" d="M467.7,313.9c-0.3,0.2-0.5,0.4-0.8,0.6C467.2,314.3,467.4,314.1,467.7,313.9z" />
	<path display="inline" fill="#FBDFD3" d="M436.2,104.7c1,2.4,3.8,1.7,6,2c1.4,7.8-5.4,8.4-11.3,7.8l-0.1,0c-4.3-3-9.7-4.3-13.8-7.3   c-4-2.2-6.4-6.8-10.6-8.4c-6.5-8-2.2-10.4-4.8-17.3c0.4-0.8,0.6-1.3,0.9-1.8c1.9-1.5-0.8-3.9,0.6-5.8c-0.5-0.8-0.9-1.5-1.4-2.3   c0.7-0.6,1.2-1,2-1.7c-0.6-0.8-1.2-1.6-1.7-2.4c1-1,1.2-1,2.7,0c0.6,4.3-1.5,10.2,1.6,13.6c1.4-11.4,11.3-16.3,19-23.4   c8.1-3.8,18.1-2.7,26.6,0c1,2.6,0.3,5.9,0.7,8.7c0,1.5,1,3,0,4.7c-0.8,0.2-1.8,0.4-2.7,0.6c-3.6,5.3,0.6,12-0.1,17.9   c-2.7,2-4.9-1.3-7.7-0.5c-0.1-0.5-0.2-1-0.3-1.7c-2.4,1.2-1.5,3.4,0.6,4.3c0.8-0.3,1.7-0.6,2.6-0.9c1.3,0.8,1.4,5.7,0.9,7.5   C440,98.9,429,95.6,436.2,104.7z M438.3,71.4c-2.4-1-6.2,0.6-8.7,1.3c0.3,2,2.3,1.3,3.1,2.4c0,0.3-0.1,0.6-0.1,0.9   c1.5,0.5,2.9,1.1,4.5,0.3c0.1-0.5,0.2-1,0.4-1.5c1.2-0.9,2.1,1,3.5,0.4C440.4,73.7,438.9,72.9,438.3,71.4z M426.9,70.2   c4,0.6,7.3-1.8,11.1-0.8c1.9,0.1,5.6,2.3,6.7,0.4C440.3,65.7,431,66.2,426.9,70.2z" />
	<path display="inline" fill="#EECABA" d="M403.9,94.4c0.8,1.4,1.6,2.7,2.6,4.2c4.5,2,7.5,6.6,11.5,9.3c-0.4,0.1-0.8,0.1-1.6,0.2   c2.8,3.4,5.4,6.3,9.4,7.4c0,0.4,0,0.6,0,0.9c-3.2,3.2-4.6,7.7-4.9,12.1c0.6,0,1.1,0,1.7,0c-0.4,1.1-0.8,2.2-1.3,3.4   c-1.2,0.2-2.2-0.1-3.5-0.1c-9.2-9.1-14.4-21.4-18.7-33.2c-2,2.4-1.1,3.4-1.3,5.9c-0.2,0-0.4,0-0.7,0c-0.1-1,0.3-2-0.5-3.5   c-0.1,1.3-0.2,2.1-0.2,2.8c-0.4-0.2-0.7-0.3-1.2-0.6c-3.1,6-8.2,10.1-14.6,11.6c-0.1,0.5-0.1,0.7-0.1,0.9c-0.8-0.8-1.5-1.5-2.3-2.3   c0.6-2.3,3.8-2.4,3.5-5c0.8-0.8,2-1,2.3,0.4c5.3-5.1,10.1-11.5,10.6-19c1.7-2.4,2.9-5.1,5.3-7.7c-0.2,5.6-0.5,10.4,3.9,14.3   C403.8,95.6,403.9,95,403.9,94.4z M413.5,113.9c-3.1-2.4-4.6-14.4-9-12.4c1.5,4.4,5.4,12.3,10,13.4   C414.1,114.6,413.8,114.2,413.5,113.9z M416.8,124.4c0.1,2.8,0.1,2.8,2,3.8C418,127.1,418.6,125.4,416.8,124.4z M416.6,121.4   c-0.2-1.6,0.3-2.7-1-3.6C414.8,119.1,415.1,120.1,416.6,121.4z" />
	<path display="inline" fill="#352826" d="M404.6,67.6c-1.9-1.4-2.3-0.3-3.5,0.8c-0.2-0.1-0.4-0.1-0.6-0.2c-0.3-0.8-1-2.5-2.1-2.3   c0.1,0.5,0.2,1,0.2,1.5c-2,0.2-3,1.9-3.6,3.6c0,0,0,0,0,0c-0.3,0.2-0.5,0.5-0.8,0.7c-0.9-1.4-1-2.7,0-4.1c0.1,0.3,0.2,0.7,0.4,1.5   c0.4-1.3,0.7-2.1,1-2.9c0,0,0,0,0,0c1.2-0.9,2.3-1.8,3.4-2.7c1.9,0.8,2.6,3.5,5.1,2.6C404.5,66.9,404.5,67.2,404.6,67.6z" />
	<path display="inline" fill="#C7A99D" d="M402.6,75.7c0.3,1.3,1.4,3,0,4c-0.1-0.5-0.2-1.1-0.2-1.6c-0.7,0.7-1.3,1.4-2.1,2.2   c-1-2.4-3.4-4.2-3-6.9c1.1,1,2.2,2,3.4,3.1C401.4,76.2,402,75.9,402.6,75.7z" />
	<path display="inline" fill="#383737" d="M402.1,43.2c0.8-3,3.5-3.1,5.7-4.3c0.3,0.7,0.6,1.3,0.9,1.9   C406.8,43.1,404.1,41,402.1,43.2z" />
	<path display="inline" fill="#393838" d="M423.3,48.9c-0.8-0.8-1.4-1.4-2.1-2.1c1.4-1.1,2.7-2.1,4.3-2.7   C425.2,46.1,424.6,47.5,423.3,48.9z" />
	<path display="inline" fill="#2B2525" d="M428.2,44.4c1.2,1.2,1.6,1.8,3.1,1.5c-0.2,1.4-1.3,1.5-2.1,1.9c-0.6-1.6-2,0.2-2.9-0.8   C426.9,46.3,427.4,45.5,428.2,44.4z" />
	<path display="inline" fill="#333232" d="M416,58.8c-0.8,0.1-1.3,0.2-2,0.3c1.3-1.9,4-0.3,5.7-2.2c0.3,0.3,0.6,0.5,0.8,0.7   c-1.1,1.5-1.1,1.5-2.8,2.3C417.2,59.6,416.6,59.3,416,58.8z" />
	<path display="inline" fill="#353333" d="M449.4,37.3c0.6,0.2,1.1,0.3,1.7,0.5c0,1,0,1.9,0,2.8c-1.1,0-2.2,0-3.3,0   C448.4,39.5,448.8,38.6,449.4,37.3z" />
	<path display="inline" fill="#373737" d="M401.9,38c0.6,0.3,1.1,0.6,1.8,0.9c-0.6,0.8-1.2,1.5-1.9,2.3c-1-0.5-2-1-3.2-1.6   C399.8,39.1,400.7,38.6,401.9,38z" />
	<path display="inline" fill="#2E2C2C" d="M424.7,30c1.9,0,3.7,0.2,5.3,1.8c-1.5,0.4-2.8,0.7-4.2,1.1c0-0.8,0-1.3,0-1.6   C425.4,30.8,425.1,30.4,424.7,30C424.7,30,424.7,30,424.7,30z" />
	<path display="inline" fill="#353333" d="M422.3,41.5c0.3,0.6,0.6,1.1,0.9,1.8c-1.1,0.9-2.1,1.8-3.6,2.1   C420.1,42.8,420.1,42.8,422.3,41.5z" />
	<path display="inline" fill="#312F2F" d="M430.3,49.4c1.7,0.5,2.5,0.6,4.2,0.9c-1.5,0.8-2.9,1.4-4.4,2.2   C430.1,51.5,430.2,50.6,430.3,49.4z" />
	<path display="inline" fill="#343232" d="M458.6,47c-1.3,1.9-3,2.9-5.8,3.1C454.6,48.2,456.6,47.7,458.6,47z" />
	<path display="inline" fill="#333232" d="M445.2,35.4c-1.3,0.7-1.9,1-2.6,1.4c-1.5-1.1-2.4-1.4-4.5-1.8   C440.6,34.1,442.5,35.4,445.2,35.4z" />
	<path display="inline" fill="#282424" d="M420.4,28.8c-0.4,1.6-1.9,1-2.8,1.7c-0.8,0.6-1.7,0.8-2.6,1.2   C414.4,29.2,418.7,29.4,420.4,28.8z" />
	<path display="inline" fill="#252020" d="M422.8,33.5c-2.2,1.5-4.2,2.2-6.4,2.3C418.4,34.5,420.5,33.7,422.8,33.5z" />
	<path display="inline" fill="#2E2B2B" d="M409.6,52.9c0,1.5,0,2.5,0,3.6c-1.2,0-1.7-0.9-2.1-2.1C408.1,53.9,408.8,53.4,409.6,52.9z   " />
	<path display="inline" fill="#302F2F" d="M457.4,54.3c-2.6,0.7-2.7,0.7-3.6-0.4C456.3,53.2,456.5,53.3,457.4,54.3z" />
	<path display="inline" fill="#302D2D" d="M451.3,46.3c1.2,0.1,2.1-1.4,3.4-0.6C452.6,47.6,452.6,47.6,451.3,46.3z" />
	<path display="inline" fill="#2F2C2C" d="M416.6,44.2c-0.5-0.4-0.8-0.7-1.1-1c0.6-1,1.3-1.4,2.6-0.5   C417.6,43.2,417.1,43.7,416.6,44.2z" />
	<path display="inline" fill="#2B2626" d="M392.6,54.1c0.8,0.1,1.2,0.2,1.6,0.3c0.2,1.2-0.6,1.7-1.4,2.1   C392.1,55.9,392.7,55.2,392.6,54.1z" />
	<path display="inline" fill="#8F7C74" d="M399.2,63.5c-1.1,0.9-2.2,1.8-3.4,2.7c0.1-1.7,1.4-2.5,2.6-3.7   C398.7,63,399,63.3,399.2,63.5z" />
	<path display="inline" fill="#313636" d="M440.4,53.1c-1.4,0.5-2.9,0.4-4.4,0.1C437.4,52.6,438.8,52.8,440.4,53.1z" />
	<path display="inline" fill="#AF948D" d="M397.3,73.4c0,0.3-0.1,0.7-0.1,1c-0.9-0.9-1.8-1.9-2.7-2.8c0.3-0.2,0.5-0.5,0.8-0.7   C395.9,71.7,396.6,72.6,397.3,73.4z" />
	<path display="inline" fill="#2F2D2D" d="M412.6,57.5c-0.3,0.6-0.7,1.3-1,1.9c-2-0.2-0.1-1.7,0.6-2.3   C412.4,57.2,412.5,57.3,412.6,57.5z" />
	<path display="inline" fill="#2E2C2C" d="M430.8,32.5c0.2-0.5,0.2-0.7,0.4-1.2c0.7,0.4,1.3,0.7,1.9,1c0,0.1-0.1,0.2-0.1,0.4   C432.4,32.6,431.7,32.5,430.8,32.5z" />
	<path display="inline" fill="#8F7C74" d="M395.8,66.2c-0.3,0.8-0.5,1.6-1,2.9c-0.2-0.9-0.3-1.2-0.4-1.5   C394.9,67.1,395.4,66.6,395.8,66.2z" />
	<path display="inline" fill="#2E2C2C" d="M424.7,30c-0.1-0.1-0.2-0.2-0.4-0.3C424.6,29.6,424.7,29.8,424.7,30   C424.7,30,424.7,30,424.7,30z" />
	<path display="inline" fill="#6C7C9E" d="M545.6,304.6c1.8-8.8-0.1-19.1,0.7-28.3c1,26.4,1.4,54.5,0,80.7   C546.1,339.4,546.5,321.9,545.6,304.6z" />
	<path display="inline" fill="#6A799B" d="M546.3,356.9c1.7-9.1-0.1-19.5,0.7-29.1c0.9,25.6,1.4,52.7,0,78.1   C546.6,389.6,547.5,373,546.3,356.9z" />
	<path display="inline" fill="#677596" d="M547,405.9c1.7-7.7,0-16.8,0.7-25c0.8,24.4,1.4,50,0,74   C547.3,438.6,548.1,422.1,547,405.9z" />
	<path display="inline" fill="#62708D" d="M547.7,455c1.7-6.9,0-15,0.7-22.3c0.7,22.6,1.5,46.4,0,68.7   C547.8,485.9,549,470.1,547.7,455z" />
	<path display="inline" fill="#576278" d="M550.2,559.1c-1.4,3.1-0.2,7.3-0.7,10.8c-1.6-11.6,0.4-23.4,0.2-35.2   C550.8,542.7,550.1,551.1,550.2,559.1z" />
	<path display="inline" fill="#606C87" d="M548.4,501.3c1.6-4.8,0.1-11,0.7-16.3c1.6,12.8-0.4,25.7-0.2,38.7   C547.7,516.4,548.7,508.7,548.4,501.3z" />
	<path display="inline" fill="#6B7895" d="M548.8,523.7c0.5-4.8-0.8-10.5,0.7-14.9c-0.4,12.8,1.3,26.5-0.5,38.9   C549,539.6,548.9,531.6,548.8,523.7z" />
	<path display="inline" fill="#6A799B" d="M545.7,312c1.6,9.1,0.1,19,0.5,28.4C545,331.1,546,321.4,545.7,312z" />
	<path display="inline" fill="#677697" d="M546.3,360.3c1.5,8.2,0.1,17.2,0.5,25.7C545.7,377.7,546.7,368.8,546.3,360.3z" />
	<path display="inline" fill="#63708F" d="M547,410c1.5,7.1,0.1,15,0.5,22.4C546.4,425.1,547.4,417.4,547,410z" />
	<path display="inline" fill="#606D89" d="M547.7,456.3c1.5,6.9,0.1,14.5,0.5,21.7C547,471,548,463.5,547.7,456.3z" />
	<path display="inline" fill="#FBDFD3" d="M397.8,104.5c0.2-2.5-0.7-3.4,1.3-5.9c4.3,11.8,9.4,24,18.7,33.2c1.1,0.1,2,0.1,2.9,0.2   c-0.8,2.9,2.8,1.8,0.7-0.1c0.8-2.2,1.7-4.5,2.7-6.6c6.2,7.3,14.5,24.6,6.4,33.2c-2.6-0.7-5-0.2-7.6,0.4   c-16.7-11.8-26.3-31.2-42.4-43.1c0-0.2,0.1-0.4,0.1-0.9c6.5-1.5,11.5-5.6,14.6-11.6c0.5,0.2,0.8,0.4,1.2,0.6c0.3,1.3,0,2.1,1.4,3.3   C397.8,106,397.8,105.3,397.8,104.5z M424.8,142.1c0.5,1.9,0.6,3.9,1.8,5.6c0.1,1.3,0.8,5.8,2.7,4.1c-1.5-3.3-2.4-7.2-4.4-10.2   C424.9,141.7,424.8,141.9,424.8,142.1z M415.2,134.8c0.5-2-1-1.6-2.1-0.8c-3.4,0.8-13.8-5-14.3-1.8   C403.7,136,409.6,135.5,415.2,134.8c0.3,0.3,0.6,0.9,0.9,0.9c2.5,0.1,3.7,2.5,5.8,3.1c0.4-0.4,0.8-0.9,1.3-1.4c1-0.1,3.3,0,3.1-1.5   c-2.2-0.7-2.2-0.7-4.7,0C419.7,134.8,417.7,133.3,415.2,134.8z M387.4,113.6c-1,1.4,0,5.1,1.9,4.2c-0.3-1.3-0.7-2.6-1-3.9   C388,113.8,387.7,113.7,387.4,113.6z M397.8,114.3c0.4-1.4,1-2.5,0.4-3.7C396.3,111.3,397.1,113.2,397.8,114.3z M414.4,132.5   c-0.2-1.4-0.2-1.4-1.6-1.6C413.1,131.8,413.4,132.5,414.4,132.5z" />
	<path display="inline" fill="#EAC6B6" d="M391.9,198.2c-1.4-1.7-3.1-3.2-4.1-5.2c0.8-2.7,2.5-5.1,2-8c2.2,1.7,3.1,4.7,6,5.4   c-0.7,2.7-1.4,5.3-2.2,8.1C392.9,198.4,392.4,198.3,391.9,198.2z" />
	<path display="inline" fill="#B5BBCF" d="M433.5,132c-0.3,0.3-0.6,0.6-0.9,0.9c-2.3-3.3-5.6-5.8-7.2-9.8c0.2-0.6,0.4-1.2,0.6-1.8   C429.4,124.1,431.4,128.3,433.5,132z" />
	<path display="inline" fill="#2D1C1B" d="M373.8,130.1c3.5-0.4,7.5,1.3,10.6,0c0.8,0.2,0.7,0.8,0.7,1.3c-3.4,2.2-8.1,1.1-11.5-0.6   C373.6,130.5,373.7,130.3,373.8,130.1z" />
	<path display="inline" fill="#EECABA" d="M422.7,338.1c-5.5,1.4-10.6-4.3-16.4-4.1c-4.9-0.7-5.8-6.3-9.4-8.9c0,0,0-0.1,0-0.1   l-0.1,0c-11.2-19.8-32.9-34.5-36.5-58c0-4.4-3.9-7.2-3.4-11.5c-1-8.8-4.3-17.2-6.2-25.9c-3.3-7.5-11.9-13-9.6-22.3   c1.3,0.3,2.5,0.5,3.7,0.7c1.3,1.9,3.5,2.6,5.4,3.7c1.5,7.2,2,15.8,8,20.8c-0.5,3.8,1.2,7.1,3.1,10.2c0.4,0,0.7,0.1,1.1,0.1   c0.6,1.2,1.2,2.4,1.7,3.5c-0.7,1.6-1.4,3-0.5,4.6c-1.2,1.8-0.6,3.3,0.8,4.7c0,0.4,0,0.9,0,1.3c0,0-0.1,0.1-0.1,0.1   c-1.2,2.5,3.2,5.2,2,8.1c2.6,21.6,25.8,41.6,35.7,61.6c-0.2,0.1-0.3,0.2-0.5,0.3c0.1,0.1,0.2,0.2,0.3,0.3c0.1-0.2,0.2-0.3,0.2-0.5   c3.3,5.8,10.9,3.7,15.4,8.3C419,336.2,420.5,337.8,422.7,338.1z" />
	<path display="inline" fill="#EECABA" d="M348.1,136c0.5,0.4,0.9,0.8,1.4,1.3c-2.8-0.1-3.8,3.2-4,5.4c-3.6,4.8-2.3,11.2-1.6,16.8   c1.1,5.3-2,14.6,5.4,16.4c1.1,6.5,9.5,7.4,10.9,14.2c-0.6,0.5-1.3,1-1.9,1.6c-2,0.2-3.3-4.5-4.8-2.5c-0.9-0.2-1.9-0.5-3.1-0.8   c-1.5,20.7,12,18.3,13.8,35.7c-1.1-0.6-1.9-1-2.9-1.5c-0.2,0.6-0.3,1-0.4,1.5c-0.7-0.5-0.6-2-2.2-1.7c-0.2,0.3-0.4,0.6-0.6,1   c-1.6-1.4,1.6-4.5,0.4-6.5c-0.5-2.5-1.6-4.4-4.2-5c-2.5-2.5-5.7-4.6-9.5-4.8c-1.5-1.5-2.1-3.8-4.1-5c-0.5-0.3-0.4-1.4-0.6-2.1   c0.5,0,1.1,0.4,1.5-0.5c-3.5-4,0.7-12.8-4.6-15.3C330.1,168.1,333.9,146.5,348.1,136z M337.5,175.6c0.3,1.9,1.6,7.7,4,7.5   c-1.6-2.3-2-4.9-2.8-7.5c0.5-1.5,0.1-2.7-1.2-3.9C337,173.3,337.1,174.5,337.5,175.6z M336.3,164.8c1.8-0.1,1.1-1.2,0-2.2   C336.3,163.7,336.3,164.2,336.3,164.8z M336.6,167.2c-1.3,1-1.3,1,0,1.8C336.6,168.3,336.6,167.7,336.6,167.2z M348.6,176.3   c-0.8,0.9-0.7,1.7,0,2.8C348.6,178,348.6,177.2,348.6,176.3z" />
	<path display="inline" fill="#181110" d="M344.9,207.1c3.2,0.3,6.7,1.6,8.7,4.2c0,0.2,0,0.4,0,0.6c-3.3,0.4-6.6-1.4-8.8-3.9   C344.8,207.7,344.8,207.4,344.9,207.1z" />
	<path display="inline" fill="#301E1C" d="M339.5,187.7c1.8,3.7-0.7,8.4,2.2,11.7c-0.4,1-1,0.5-1.5,0.5   C338.5,196.2,339.8,191.7,339.5,187.7z" />
	<polygon display="inline" fill="#5876E8" points="396.1,324.3 396.2,324.4 396.1,324.5  " />
	<path display="inline" fill="#5876E8" d="M396.8,325l0.1,0c0,0.2-0.3,0.4-0.5,0.4C396.6,325.3,396.7,325.1,396.8,325z" />
	<path display="inline" fill="#1A1D36" d="M362.3,300.5c-0.2,0-0.5,0-0.7,0c0.2-0.2,0.4-0.5,0.6-0.7   C362.2,300.1,362.2,300.3,362.3,300.5L362.3,300.5z" />
	<path display="inline" fill="#F4D9CD" d="M434.1,125.9c8.4,3.1,13.3,12.2,14,20.8c-0.2,0-0.4,0-0.9,0.1   C444.3,139.2,436.4,132.7,434.1,125.9z" />
	<path display="inline" fill="#E4C4B5" d="M436.2,104.7c-0.7-1.2-1.4-2.3-2.1-3.5c3.5-0.4,6.7-1.2,10.4-0.6   c-0.4,1.2-0.8,2.2-1.1,3.2C441,104.1,438.3,103.3,436.2,104.7z" />
	<path display="inline" fill="#140808" d="M382.5,107.9c-0.3,0.2-0.5,0.4-0.8,0.6C382,108.3,382.2,108.1,382.5,107.9z" />
	<path display="inline" fill="#E0C9BE" d="M471.5,302.4c-0.4,0.3-0.8,0.5-1.2,0.8c-0.2-0.3-0.5-0.5-0.7-0.8c0.6-1.7,1.2-3.5,1.8-5.2   C474.6,298.4,472.6,300.6,471.5,302.4z" />
	<path display="inline" fill="#B9A69D" d="M469.6,302.5c0.2,0.3,0.5,0.5,0.7,0.8c-0.6,0.7-1.3,1.4-1.9,2.1c-0.3-0.3-0.5-0.5-0.8-0.8   C468.1,303.7,468.5,302.7,469.6,302.5z" />
	<path display="inline" fill="#85766F" d="M467.6,304.5c0.3,0.3,0.5,0.5,0.8,0.8c-1.1,1.1-2.2,2.2-3.4,3.3c0-0.3,0-0.5,0-0.8   C465.9,306.7,466.8,305.6,467.6,304.5z" />
	<path display="inline" fill="#190C0C" d="M425.8,116.5c0-0.2,0-0.4,0-0.9c-4-1.1-6.6-4-9.4-7.4c0.8-0.1,1.2-0.2,1.6-0.2   c4.4,2,8.8,3.9,12.9,6.5C427.7,113.4,428,114.8,425.8,116.5z" />
	<path display="inline" fill="#B7BCD4" d="M435.5,192.4c1.5-0.7,2.4-2,3.5-3.1c4.5-0.6,5.8,0.2,7.2,4.3c-0.6,1.6-2.2,2.3-3.3,3.4   c-1.3-0.2-2.8-1.6-3.9-0.4c-0.7-1-1.5-1.9-2.2-2.9C436.7,193,436.4,192.4,435.5,192.4z" />
	<path display="inline" fill="#1F1113" d="M435.5,192.4c1-0.1,1.2,0.5,1.2,1.3c-1.6,7.9-12.2,11.9-19.2,9.5c1.9-3,7.8-1.6,11-2   C430.6,197.8,434,196.2,435.5,192.4z" />
	<path display="inline" fill="#261C1E" d="M440.9,227c0,4.9-0.8,9.7-1.5,14.5c-1.1,0.7-0.5,1.8-0.5,2.7l0,0c-0.2,0-0.5,0-0.7-0.1   c0.7-7.2,0.4-14.8,2-22.1C441.2,223.5,440.8,225.3,440.9,227z" />
	<path display="inline" fill="#362C30" d="M440.9,227c-0.1-1.7,0.2-3.4-0.7-4.9c0.2-0.4,0.4-0.8,0.7-1.3c-1.3-4.5-2.8-9-4.5-13.4   C440.7,205.4,442.5,223.8,440.9,227z" />
	<path display="inline" fill="#43373C" d="M394.5,256.2c-0.2-0.4-0.4-0.7-0.7-1.4c6.2,1,12,0.5,18.1,0.7c0,0.2,0,0.4-0.1,0.6   C406.1,256.4,400.1,257.7,394.5,256.2z" />
	<path display="inline" fill="#413A41" d="M396.5,250.2c-1.9-1.4-4-1.1-6.3-2.1c0.4-0.4,0.7-0.6,0.9-0.8c1.8,0.2,3.5,1.2,5.4,0.8   c2.5,1.3,5.3,1.8,8.1,2c0,0.3,0,0.5,0,0.8C401.8,251.1,399.2,250.7,396.5,250.2z" />
	<path display="inline" fill="#686974" d="M418.6,284.5c-0.2,0.3-0.5,0.5-0.7,0.8c-1.4-4.3-3.6-8.4-3.8-13   C416.8,276.1,416.9,280.3,418.6,284.5z" />
	<path display="inline" fill="#676973" d="M404.6,251c0-0.3,0-0.5,0-0.8c1.2-0.7,2.4-1,3.6,0.3c3.2,1.1,6.9-0.1,10.4,0.6   C414.3,251.9,408.8,251.9,404.6,251z" />
	<path display="inline" fill="#8EA4B5" d="M423.5,245.6c-3.2,0.6-13.6,1.5-15.9-0.4C412.8,245.6,418.1,244.9,423.5,245.6z" />
	<path display="inline" fill="#1D1416" d="M438.9,196.7c1.6-1.4,6.2,1.3,7.3,3.1c-2.5-0.7-4.6-1.3-6.8-2c-0.2-0.3-0.4-0.6-0.5-0.9   L438.9,196.7z" />
	<path display="inline" fill="#2D2427" d="M436.4,181.8c1.6,2.5,1.3,5.7-1.5,7.2C435.1,186.5,435.5,184.2,436.4,181.8z" />
	<path display="inline" fill="#222124" d="M439.2,248.6c2.1,1.9,2.2,4.1,0.4,5.8C438.2,252.6,437.7,250.4,439.2,248.6z" />
	<path display="inline" fill="#9B9DAE" d="M401.2,279.1c-1.8-2.7-3.1-5.5-4.5-8.5c0.5-0.1,0.8-0.1,1.1-0.2c1.3,2.9,2.6,5.9,4.1,8.7   C401.6,279.1,401.4,279.1,401.2,279.1z" />
	<path display="inline" fill="#93828F" d="M411.9,256.1c0-0.2,0-0.4,0.1-0.6c2.1-1.4,5.2-0.3,7.7-0.3   C417.2,256,414.5,255.8,411.9,256.1z" />
	<path display="inline" fill="#3F383D" d="M435.4,178.2c-1.4-1.6-1.4-1.8-1.1-5.2C436.2,174.4,435.8,175,435.4,178.2z" />
	<path display="inline" fill="#61464C" d="M423.5,245.6c-1.8-0.2-3.7,0.1-5.3-0.7c2.4-0.1,4.8-0.1,7.2-0.2c0.2,0.2,0.5,0.4,0.7,0.5   C425.2,245.4,424.3,245.5,423.5,245.6z" />
	<path display="inline" fill="#535159" d="M405.9,285.8c-0.2,0.2-0.5,0.5-0.7,0.7c-0.7-1.1-1.4-2.3-2-3.4c0.2-0.2,0.5-0.5,0.7-0.7   C404.5,283.6,405.2,284.7,405.9,285.8z" />
	<path display="inline" fill="#7A5159" d="M426,245.3c-0.2-0.2-0.5-0.4-0.7-0.5c1.7-0.7,1.7-0.7,4.8-0.4   C428.6,245.2,427.4,245.5,426,245.3z" />
	<path display="inline" fill="#7E808D" d="M403.8,282.5c-0.2,0.2-0.5,0.5-0.7,0.7c-0.7-1.4-1.3-2.7-2-4.1c0.2,0,0.5,0,0.7,0   C402.5,280.2,403.2,281.4,403.8,282.5z" />
	<path display="inline" fill="#1F1517" d="M405.4,219.8c-1.4-0.5-2.1-0.5-3.1-2c1.1,0,1.7,0,2.3,0   C405.1,218.4,406.4,218.7,405.4,219.8z" />
	<path display="inline" fill="#606B76" d="M397.2,261.7c-0.3-0.1-0.6-0.2-0.9-0.3c2.6-0.7,3.8-0.7,5.5,0.2   C400.3,261.6,398.7,261.7,397.2,261.7z" />
	<path display="inline" fill="#656571" d="M397.7,230c-1.2-0.2-2.3-0.6-3.2-1.8c0.5-0.1,0.9-0.3,1.3-0.4   C396.6,228.5,397.5,228.9,397.7,230z" />
	<path display="inline" fill="#3B3338" d="M438.7,235.9c-0.1,1.6,0.6,3.5-0.5,4.9C438.1,239.1,437.9,237.5,438.7,235.9z" />
	<path display="inline" fill="#3B3338" d="M438.9,244.2c0.1-0.9-0.5-2,0.5-2.7C439.5,242.4,439.7,243.4,438.9,244.2z" />
	<path display="inline" fill="#3B3338" d="M438.2,244.1c0.2,0,0.5,0,0.7,0.1c-0.1,0.6-0.2,1.2-0.2,1.7c-0.1,0-0.2,0-0.3,0   C438.3,245.3,438.3,244.7,438.2,244.1z" />
	<path display="inline" fill="#B7BCD4" d="M438.9,197c0.2,0.3,0.4,0.6,0.5,0.9C439.3,197.5,439.1,197.3,438.9,197z" />
	<path display="inline" fill="#EDC9B9" d="M365.7,244.1c4.7,4.3,13.3,7.6,13.2,15c-1.6-1.8-4.2-1.7-5.9-3.4c-2-1-4.6-4.8-6.8-3.7   C364.3,250,366,246.7,365.7,244.1z" />
	<path display="inline" fill="#ECC8B8" d="M389.7,184.7c-0.3-0.3-0.6-0.6-1.1-1c-1.2,2.5-2.4,5-3.5,7.4c-0.8-0.3-1.4-0.5-2-0.7   c0.3-0.4,0.7-0.9,1.1-1.4c-0.4-3.3-1.6-8.5,1.3-11.2c1,0.9,2.1,1.6,2.4,3.1C388.2,182.2,390.2,183.1,389.7,184.7z" />
	<path display="inline" fill="#1D1816" d="M365.7,244.1c0.3,2.5-1.4,5.9,0.5,7.9c0,0.5,0.1,1,0.1,1.5c-3-0.7-3.9-4.7-2.2-7.2   c-0.5-1.1-1.1-2.3-1.7-3.5c0.2-0.7,0.3-1.4,0.4-2c1-0.9,2.4-0.1,3-1.4c0.6-0.9,1.2-1.8,1.8-2.7l0,0c0.7-0.2,1.4-0.5,2.1-0.7   c0,0.7-0.1,1.3-0.1,2C368,240.1,363.9,240.9,365.7,244.1z" />
	<path display="inline" fill="#191615" d="M369.1,204.7c0.3-0.2,0.5-0.4,0.8-0.6c3.6,1.5,3.5,7,2,10c0.6,2.1,0.6,3.9,0.2,6   C368.6,218.2,372.2,210.1,369.1,204.7z" />
	<path display="inline" fill="#130D0C" d="M366.3,253.5c0-0.5-0.1-1-0.1-1.5c2.2-1.1,4.8,2.7,6.8,3.7c1.7,1.7,4.3,1.6,5.9,3.4   c0,0.3,0,0.6,0,1.2c-1.4-0.3-2.7-0.8-3.9-1.4c-0.3-0.6-0.8-0.7-1.4-0.6l0,0C372.3,255.3,367.8,256.7,366.3,253.5z" />
	<path display="inline" fill="#231211" d="M345.6,142.7c0.1-2.3,1.2-5.6,4-5.4c1.9,0.8,4-2.1,5.2,0.4c-1,1.8-2.9,1.1-4.8,1.5   c-0.9,1.5-1.9,3.2-3,4.9c-0.2,0-0.5,0-0.8,0C345.9,143.6,345.7,143.2,345.6,142.7C345.6,142.7,345.6,142.7,345.6,142.7z" />
	<path display="inline" fill="#271B1A" d="M357.6,137.3c2.2-4.2,8.4-2.1,12.3-2.4C367.6,137.1,361.2,137.2,357.6,137.3z" />
	<path display="inline" fill="#302F2D" d="M370.8,256.4c1.3,0.2,2.5,0.5,2.9,2c-1.6,2.3,1.3,7.1,1.5,10c-0.2,0-0.5,0-0.7,0   C372.5,264.7,370.5,260.6,370.8,256.4z" />
	<path display="inline" fill="#151010" d="M380.4,279.8c-3.6-0.4-4.5-5.5-4.6-8.9C377.9,272.1,380.6,277.2,380.4,279.8z" />
	<path display="inline" fill="#231D1B" d="M353.5,211.9c0-0.2,0-0.4,0-0.6c4.4,1.7,6.8,5.7,4.1,10.5   C356.9,217.9,356.2,215.1,353.5,211.9z" />
	<path display="inline" fill="#EDCABB" d="M424.5,330.8c-1.8-0.6-3.2-1.1-4.8-1.7c-0.6-1.3-1.7-2.2-3.2-2.9   C419.7,323.9,423.8,328.3,424.5,330.8z" />
	<path display="inline" fill="#E6C3B4" d="M423.3,324.7c-1.5-1.1-3.1-2.2-4.6-3.4c-0.1-0.4-0.1-0.8-0.2-1.3c2.9,1.7,7.2,1,8.8,4.7   C426.2,324.8,423.8,323,423.3,324.7z" />
	<path display="inline" fill="#EECABA" d="M353.5,211.9c1.2,2.5,4.1,4.3,3.3,7.4c-1.2-3-4.1-4.8-6-7.4   C351.8,211.9,352.7,211.9,353.5,211.9z" />
	<path display="inline" fill="#66524D" d="M348.3,150.9c-0.1,0.7,0.1,1.6-0.3,1.9c-2.1,2-0.7,4.7-1.8,6.8c-0.6-0.9,0.4-2.1-0.8-2.8   c1.3-2.3,0-5.3,1.9-7.5C347.5,150,347.4,150.7,348.3,150.9z" />
	<path display="inline" fill="#643835" d="M358.9,132c-0.2-0.2-0.4-0.3-0.7-0.5c2-1,3.8-1.1,10.8-0.8c0,0.2,0,0.4,0,0.6   C365.5,132.4,362,130.7,358.9,132z" />
	<path display="inline" fill="#3D2B2A" d="M348.3,150.9c-0.8-0.2-0.8-0.9-0.9-1.6c0.7-1.4,0.7-3.2,1.7-4.5   C352.3,145.4,348.6,149.2,348.3,150.9z" />
	<path display="inline" fill="#372524" d="M381.1,140.1c1.6,1.1,4.1,3.3,3.1,5.4c-1.9-0.8-2.5-3.1-3.8-4.6   C380.6,140.6,380.8,140.3,381.1,140.1z" />
	<path display="inline" fill="#766E69" d="M346.2,159.7c-0.1,1.8-0.1,3.7-0.2,6.2c-1.6-2.8-1.2-5.3-1.2-7.7   C345.3,158.7,345.9,159.1,346.2,159.7z" />
	<path display="inline" fill="#2C211F" d="M387.7,266.2c-2.1-0.6-2.4-0.9-4.4-3.7C385.9,263,387.3,264.2,387.7,266.2z" />
	<path display="inline" fill="#353331" d="M358.1,223.4c0.2-0.4,0.4-0.7,0.6-1c1.5-0.3,1.5,1.2,2.2,1.7c-0.1,0.8-0.3,1.5-1.3,1.7   C358.5,225.3,358.4,224.3,358.1,223.4z" />
	<path display="inline" fill="#201C1B" d="M360.3,232.7c-0.5-2-2-3.4-0.5-5.5c1.7,1.8,1.1,3.4,1.1,5.5   C360.7,232.7,360.5,232.7,360.3,232.7z" />
	<path display="inline" fill="#594440" d="M384.2,167.5c0.5-1.6,1.5-3,2.6-4.4C387.9,164.1,385.4,169,384.2,167.5z" />
	<path display="inline" fill="#3D3533" d="M357.6,191.5c0.2,0.1,0.4,0.1,0.6,0.2c1,1.1,2.6,1.6,3.3,3.5c-1.8,0.1-2.7-1.6-4-2.5   C357.5,192.2,357.6,191.8,357.6,191.5z" />
	<path display="inline" fill="#514341" d="M404.8,319.4c-1.4,2.3-1.4,2.3-3.7,2.5c1.1-1.2,2-2.2,2.9-3.2   C404.2,319,404.5,319.2,404.8,319.4z" />
	<path display="inline" fill="#3B2E2C" d="M376.3,199.2c-0.9,2.7-0.9,2.7-3,3.2C374.5,199.9,374.5,199.9,376.3,199.2z" />
	<path display="inline" fill="#A6918A" d="M386.5,290.4c1.4,1.3,2.8,2.1,3.4,3.9C387.5,292.8,387.5,292.8,386.5,290.4z" />
	<path display="inline" fill="#6C514E" d="M381.1,140.1c-0.3,0.3-0.5,0.5-0.8,0.8c-1-1-2.7-1.8-3.2-3   C378.9,138.2,378.9,138.2,381.1,140.1z" />
	<path display="inline" fill="#453D3A" d="M380.4,279.8c0-0.3,0-0.5,0.1-0.8c1.3,0.9,2.5,1.9,1.7,4.1   C381.7,281.7,380.3,281.2,380.4,279.8z" />
	<path display="inline" fill="#AE867F" d="M368.9,131.3c0-0.2,0-0.4,0-0.6c1.5-1,3.2-0.6,4.8-0.6c-0.1,0.2-0.1,0.5-0.2,0.7   C372,131,370.5,131.2,368.9,131.3z" />
	<path display="inline" fill="#080908" d="M370.7,224.3c-0.6-1.3-1.5-2.3,0.1-3.3C372.1,222.1,371.3,223,370.7,224.3z" />
	<path display="inline" fill="#AC9893" d="M404.8,319.4c-0.3-0.2-0.5-0.4-0.8-0.7c0.5-1,0.9-2,1.4-3.1   C406,317.2,406.1,317.2,404.8,319.4z" />
	<path display="inline" fill="#3D2B29" d="M423.3,324.7c0.5-1.7,2.8,0,4,0.1C426.2,326.1,424.6,325.3,423.3,324.7z" />
	<path display="inline" fill="#1D1514" d="M358.9,132c1.6-0.9,2.8-0.9,4.7-0.1C362,131.9,360.5,132,358.9,132z" />
	<path display="inline" fill="#AD8F85" d="M353.5,189.1c0.8-1.7,2.1,0.7,2.7,1.4c0,0.2,0,0.5-0.1,0.7   C355.3,190.5,354.4,189.8,353.5,189.1z" />
	<path display="inline" fill="#331716" d="M398.5,154.9c-1,0.8-2.1,0.8-3.4,0.7c0.1-0.2,0.1-0.4,0.1-0.5   C396.3,154.9,397.5,154.1,398.5,154.9C398.6,155,398.5,154.9,398.5,154.9z" />
	<path display="inline" fill="#101010" d="M346,159.3c-0.4-0.4-0.8-0.8-1.1-1.2c0-0.5-0.2-1.1,0.6-1.3   C346.4,157.5,346,158.5,346,159.3z" />
	<path display="inline" fill="#7A6260" d="M424.5,316.5c1.6,0.5,2.4,0.7,3.7,1.1C426.6,318.5,425.8,318.1,424.5,316.5z" />
	<path display="inline" fill="#706661" d="M360.3,232.7c0.2,0,0.4,0,0.6,0c0.3,0.6,0.5,1.1,0.8,1.8   C360.4,234.5,360.4,234.5,360.3,232.7z" />
	<path display="inline" fill="#7F736D" d="M395.2,155c0.1,1.4-1.1,1.2-2.1,1.2C393.7,155.1,394.3,154.7,395.2,155z" />
	<path display="inline" fill="#EECABA" d="M364.9,255.6c0.9,0.8,0.9,2.4-0.7,1.4C365.1,256.8,365.1,256.3,364.9,255.6z" />
	<path display="inline" fill="#583936" d="M382.6,262.3c-1.5-0.5-1.5-0.2-2-1.2C381.7,260.9,381.5,261.1,382.6,262.3z" />
	<path display="inline" fill="#1F1B19" d="M369.7,236c-0.7,0.2-1.4,0.5-2.1,0.7C368.1,235.3,368.4,235.2,369.7,236z" />
	<path display="inline" fill="#675954" d="M356.2,191.2c0-0.2,0-0.5,0.1-0.7c0.5,0.3,0.9,0.6,1.4,1c0,0.4-0.1,0.7-0.1,1.1   C357.1,192.1,356.6,191.6,356.2,191.2z" />
	<path display="inline" fill="#705752" d="M385,287.9c-0.7-0.5-1-1.1-0.1-2c0.3,0.5,0.6,0.9,0.9,1.3   C385.5,287.4,385.2,287.7,385,287.9z" />
	<path display="inline" fill="#715D59" d="M365.6,199.8c0.8,0.1,1.3,0.5,1.3,1.4c-0.2,0.2-0.5,0.5-0.7,0.7   C365.5,201.4,365.5,200.6,365.6,199.8L365.6,199.8z" />
	<path display="inline" fill="#1F1B19" d="M369.6,238c0-0.7,0.1-1.3,0.1-2C370.5,237,370.5,237,369.6,238z" />
	<path display="inline" fill="#1A1615" d="M385,287.9c0.2-0.2,0.5-0.5,0.7-0.7c0,0.6,0.1,1.1,0.1,1.7c-0.1,0-0.3,0.1-0.4,0.1   C385.3,288.6,385.1,288.3,385,287.9z" />
	<path display="inline" fill="#623F3E" d="M423.1,316.6c-0.5,0-0.9,0-1.4,0c0-0.1,0-0.2,0-0.4c0.5-0.1,0.9-0.2,1.4-0.3   C423,316.2,423,316.4,423.1,316.6z" />
	<path display="inline" fill="#64706C" d="M418.6,320.1c0.1,0.4,0.1,0.8,0.2,1.3c-0.4,0-0.8-0.1-1.6-0.2   C417.8,320.7,418.2,320.4,418.6,320.1z" />
	<path display="inline" fill="#6D4E4B" d="M384.2,171.1c0.3,0.4,0.7,0.9,0.1,1.1C383.9,171.8,383.5,171.6,384.2,171.1z" />
	<path display="inline" fill="#0F0706" d="M366.3,201.9c0.2-0.2,0.5-0.5,0.7-0.7C367.5,202.1,366.8,203,366.3,201.9z" />
	<path display="inline" fill="#4E4844" d="M374.4,268.3c0.2,0,0.5,0,0.7,0c0.2,0.3,0.4,0.6,0.7,1.1   C374.7,269.5,374.5,269,374.4,268.3z" />
	<path display="inline" fill="#584341" d="M364.9,255.6c0,0.6,0.3,1.3-0.7,1.3c0-0.4,0-0.9,0-1.3   C364.5,255.5,364.7,255.5,364.9,255.6z" />
	<path display="inline" fill="#5B383A" d="M420.3,316.3c-0.7,0.1-1.1,0.5-1.4,0.1C419.1,315.7,419.5,316.2,420.3,316.3z" />
	<path display="inline" fill="#BDA9A1" d="M382,173.3c0.4,0.3,0.3,0.5,0,0.8C381.7,173.8,381.9,173.6,382,173.3z" />
	<path display="inline" fill="#302F2D" d="M373.6,258.3c0.6-0.1,1.1-0.1,1.4,0.6C374.5,259,373.9,258.9,373.6,258.3z" />
	<path display="inline" fill="#EECABA" d="M345.6,142.7c0.2,0.5,0.3,0.9,0.5,1.4C345.4,143.8,345.4,143.3,345.6,142.7z" />
	<path display="inline" fill="#EECABA" d="M363.6,251c0.3,0.4,0.5,0.8,0.8,1.2C363.7,252,363.6,251.5,363.6,251z" />
	<path display="inline" fill="#7C6763" d="M365.6,199.8c-0.2-0.1-0.3-0.1-0.5-0.2c0.1-0.1,0.2-0.2,0.3-0.3   C365.5,199.5,365.5,199.7,365.6,199.8L365.6,199.8z" />
	<path display="inline" fill="#1F1B19" d="M365.6,241.3c0.2-0.2,0.4-0.4,0.6-0.5C366,241,365.8,241.2,365.6,241.3z" />
	<path display="inline" fill="#1F1B19" d="M366.3,240.8c0.2-0.2,0.5-0.4,0.7-0.6C366.8,240.4,366.5,240.6,366.3,240.8z" />
	<path display="inline" fill="#1F1B19" d="M368.3,239.3c0.2-0.2,0.4-0.3,0.6-0.5C368.7,239,368.5,239.1,368.3,239.3z" />
	<path display="inline" fill="#1F1B19" d="M366.3,238.7c-0.2,0.2-0.3,0.5-0.5,0.7C366,239.2,366.1,238.9,366.3,238.7z" />
	<path display="inline" fill="#1F1B19" d="M369,238.7c0.2-0.2,0.4-0.4,0.6-0.6C369.4,238.3,369.2,238.5,369,238.7z" />
	<path display="inline" fill="#1F1B19" d="M367.6,236.8c-0.2,0.2-0.3,0.4-0.5,0.7C367.3,237.2,367.5,237,367.6,236.8z" />
	<path display="inline" fill="#1F1B19" d="M367,240.2c0.3-0.2,0.6-0.4,0.9-0.6C367.6,239.8,367.3,240,367,240.2z" />
	<path display="inline" fill="#4E4844" d="M374.8,267c-0.1-0.3-0.2-0.6-0.3-0.9C374.6,266.4,374.7,266.7,374.8,267z" />
	<path display="inline" fill="#1A2243" d="M412.6,398.6c-0.5,9.9,1.6,20.2,0.9,29.9c-2-9.8-1.5-19.9-1.5-29.9   C412.2,398.6,412.5,398.6,412.6,398.6z" />
	<path display="inline" fill="#151A2F" d="M440.3,333.6c-0.2,2.1,0.4,4.9-1.4,6.5c0.3,2.6,1.3,5.1-0.6,7.8c-1-5.4,0.3-10.5,1.2-15.7   C439.8,332.6,440,333.1,440.3,333.6z" />
	<path display="inline" fill="#263057" d="M440.3,333.6c-0.2-0.5-0.5-1-0.7-1.4c1.3-4.7-0.6-8.2,0.2-13.1   C441.3,323.9,441.3,328.9,440.3,333.6z" />
	<path display="inline" fill="#334587" d="M409.3,365c0.1-4-0.1-7.8-0.6-11.8c2.8,2.6,0.5,8.1,1.2,11.8   C409.7,365,409.5,365,409.3,365z" />
	<path display="inline" fill="#1C203F" d="M381,400c2.5,1.2,4.7,2.8,6.7,4.6c-0.2,0.2-0.4,0.4-0.7,0.7c-2.4-1.3-4.5-3.2-6.8-4.7   C380.6,400.4,380.8,400.2,381,400z" />
	<path display="inline" fill="#455BB3" d="M412,393.9c-0.4-1.9-0.7-3.8-1.1-6.1c2.2,1,1.8,4,1.7,6.1   C412.4,393.9,412.2,393.9,412,393.9z" />
	<path display="inline" fill="#2D386E" d="M387.1,405.3c0.2-0.2,0.4-0.4,0.7-0.7c2.7,2.2,2.7,2.2,3.1,4.7   C389.6,407.9,388.3,406.6,387.1,405.3z" />
	<path display="inline" fill="#273364" d="M385.2,416c-0.1,0.3-0.1,0.6-0.2,1c-1.3-1.9-1.6-2.7-1.6-4.7c1.5,0.2,0.7,1.9,1.7,2.5   C385.1,415.2,385.1,415.6,385.2,416z" />
	<path display="inline" fill="#455DB6" d="M409.3,365c0.2,0,0.4,0,0.6,0c0,1.9,0,3.7,0,5.6C409,368.7,409.4,366.8,409.3,365z" />
	<path display="inline" fill="#2B396F" d="M412,393.9c0.2,0,0.4,0,0.6,0c0,1.6,0,3.1,0,4.7c-0.2,0-0.5,0-0.6,0   C412,397,412,395.5,412,393.9z" />
	<path display="inline" fill="#0D1120" d="M362.4,316c1.6,6-0.1,12.5,2.4,18.2c-5-3.4-4-13-3.1-18.2C361.9,316,362.1,316,362.4,316z   " />
	<path display="inline" fill="#0E0E1C" d="M381,400c-0.2,0.2-0.5,0.4-0.7,0.6C356.3,390.6,359.7,388.2,381,400z" />
	<path display="inline" fill="#0B0D19" d="M363.6,312.6c1.5-2.6,2-6,4.1-8c2.1,2.9-2.3,6-3.4,8.7C364,313.1,363.8,312.8,363.6,312.6   z" />
	<path display="inline" fill="#242F59" d="M363.6,312.6c0.2,0.2,0.5,0.5,0.7,0.7c-0.5,1.1-1,2.9-2.6,2.8   C362.3,314.9,362.9,313.7,363.6,312.6z" />
	<path display="inline" fill="#1A1D36" d="M362.2,300.6c0.4-0.1,0.8-0.2,1.3-0.4c0,0.5,0,0.9,0.1,1.4   C362.3,302.2,362.3,301.3,362.2,300.6L362.2,300.6z" />
	<path display="inline" fill="#120F0F" d="M382.4,501.3c-1.9-1.5-3.6-18.2,0.5-16.5C383.3,490.3,382.2,495.9,382.4,501.3z" />
	<path display="inline" fill="#0E0E0D" d="M379.7,451.6c1-1.1,2-1.8,3.4-0.7c0.7,3.3-1.8,6.1-1.4,9.4c-0.3,0-0.5,0.1-0.8,0.1   C380.2,457.5,379.1,454.7,379.7,451.6z" />
	<path display="inline" fill="#3A302E" d="M394,537.3c-0.5-1.1-0.3-2.3-0.1-3.7C395.4,536.3,395.4,536.3,394,537.3z" />
	<path display="inline" fill="#7C6860" d="M382.5,506c0,1.1-0.1,2.2-1.2,3.1c-0.5-1.5-0.1-2.6,1-3.5   C382.3,505.7,382.4,505.9,382.5,506z" />
	<path display="inline" fill="#39312E" d="M380.9,460.4c0.3,0,0.5-0.1,0.8-0.1c0,1.2,0,2.3,0,3.7   C380.3,462.9,381.5,461.5,380.9,460.4z" />
	<path display="inline" fill="#B3A299" d="M381.4,473.1c-0.4-0.7-0.7-1.1-1-1.7C381.6,471.5,381.6,471.5,381.4,473.1z" />
	<path display="inline" fill="#CCB5AB" d="M383.1,479.1c-0.3,0.6-0.6,1.3-1,2C381.5,479.9,381.8,479.3,383.1,479.1z" />
	<path display="inline" fill="#746560" d="M395,541.7c0,0.4,0,0.7,0,1.1c-0.1,0-0.2,0-0.3,0c0-0.4,0-0.7,0-1.1   C394.8,541.7,394.9,541.7,395,541.7z" />
	<path display="inline" fill="#47403C" d="M409.3,513.4c-1.2-1.9-2.1-8.1-0.8-10.1C408.4,506.7,410.5,510.3,409.3,513.4z" />
	<path display="inline" fill="#25211F" d="M406.7,497.2c-0.3-1.5-0.9-2.9-0.5-4.8C407.9,493.4,407.5,495.7,406.7,497.2z" />
	<path display="inline" fill="#665E59" d="M406.7,497.2c0.2-0.5,0.4-0.9,0.6-1.4c0.6,1.5,0.6,1.5,0.4,3.7   C407.3,498.5,407,497.8,406.7,497.2z" />
	<path display="inline" fill="#594C48" d="M408.5,503.4c-0.9,0.5-0.4,1.5-0.6,2.2c-0.1-0.2-0.2-0.3-0.4-0.3   C407.1,504.4,407.3,501.3,408.5,503.4z" />
	<path display="inline" fill="#0C0909" d="M381.2,448.5c-0.1-3.1-0.5-5.6,0.2-8.2c0.5-0.1,0.9-0.1,1.2-0.1   C384.3,442.2,382.7,446.3,381.2,448.5z" />
	<path display="inline" fill="#251E1C" d="M369.6,441.6c0.7-1.1,1.5-2.1,2.2-3.2c0.9,2.6,0.3,4.2-2,5.4   C369.8,443,369.7,442.2,369.6,441.6C369.7,441.5,369.6,441.6,369.6,441.6z" />
	<path display="inline" fill="#2B2421" d="M380.9,536.2c0.3,1.7,0.6,2.8,0.9,4.5C379.8,539.6,379.6,538.4,380.9,536.2z" />
	<path display="inline" fill="#3F2825" d="M381,513.7c0.6,1.3,0.2,2.1-0.9,2.9C379.8,515.4,379.6,514.4,381,513.7z" />
	<path display="inline" fill="#5A4A44" d="M379.3,522c-0.6-1.2-0.3-1.9,0.7-2.4C380.7,520.6,380,521.2,379.3,522z" />
	<path display="inline" fill="#78625B" d="M380.1,533.1c0.2,0.4,0.3,0.6-0.2,0.8C379.8,533.5,379.7,533.3,380.1,533.1z" />
	<path display="inline" fill="#B2A1A5" d="M421,529.8c-0.3,0.3-0.5,0.4-0.7,0C420.5,529.5,420.8,529.7,421,529.8z" />
	<path display="inline" fill="#2F2F35" d="M395.7,216c1.4,0.5,2.9,1,4.5,1.6C398.7,218.9,393.5,218.7,395.7,216z" />
	<path display="inline" fill="#53515A" d="M391.5,227.5c0.5,0.1,1.1,0.3,0.7,1C391.6,229,390.7,228.1,391.5,227.5z" />
	<path display="inline" fill="#544851" d="M388.8,229c-0.4,0.6-0.8,0.6-1.2,0.1C387.9,228.4,388.3,228.5,388.8,229z" />
	<path display="inline" fill="#6B4951" d="M388.3,233.8c-0.2,0.2-0.3,0.2-0.5,0C388.1,233.5,388.2,233.5,388.3,233.8z" />
	<path display="inline" fill="#8194B3" d="M412,340.1c-4-1.4-7.7-2.7-11.7-4.3c0.3-0.7,0.6-1.1,0.9-1.7c3.9,2.3,8.3,2.1,12.4,4   C412,338.4,412,338.4,412,340.1z" />
	<path display="inline" fill="#8797B8" d="M412,340.1c0.4-4.9,4.4,0.8,6.8,0c0.4,0,0.9,0.6,1.4,1C418,344.2,414.6,340.6,412,340.1z" />
	<path display="inline" fill="#201E1F" d="M435.5,543.6c-0.4,0.2-0.9,0.4-1.3,0.6C434.4,543.6,434.9,543.6,435.5,543.6z" />
	<path display="inline" fill="#211312" d="M397.3,73.4c-0.7-0.8-1.4-1.6-2.1-2.5c0,0,0,0,0,0c1.2-0.6,1.5,1.2,2.6,1   c-0.3-2.9,2.8-2.7,4.2-4.4c0.6,0.8,1.1,1.5,1.7,2.4c-0.7,0.6-1.3,1.1-2,1.7c0.5,0.8,0.9,1.5,1.4,2.3c-0.2,0.6-0.3,1.2-0.5,1.8   c-0.6,0.2-1.2,0.5-1.9,0.7C399.5,75.4,398.4,74.4,397.3,73.4z" />
	<path display="inline" fill="#221413" d="M426.9,70.2c4.2-3.9,13.4-4.4,17.8-0.5c-1.1,1.9-4.8-0.3-6.7-0.4   C434.1,68.4,430.9,70.8,426.9,70.2z" />
	<path display="inline" fill="#271817" d="M437.4,74.8c-0.1,0.5-0.2,1-0.4,1.5c-1.5,0.8-3,0.3-4.5-0.3c0-0.3,0.1-0.6,0.1-0.9   c-0.8-1.1-2.8-0.4-3.1-2.4c2.1-0.8,12.5-3.9,7.2,1.1C437,74.1,437.2,74.5,437.4,74.8z" />
	<path display="inline" fill="#625755" d="M437.4,74.8c-0.2-0.4-0.4-0.7-0.6-1c0.3-1,1.8-1.1,1.5-2.4c0.6,1.5,2.1,2.3,2.5,3.8   C439.5,75.8,438.6,73.9,437.4,74.8z" />
	<path display="inline" fill="#241615" d="M410.5,112c-2.9-2.7-4.8-6.8-6-10.4C406.6,98.3,412.9,111.6,410.5,112z" />
	<path display="inline" fill="#5E4B46" d="M416.8,124.4c1.8,1.1,1.2,2.7,2,3.8C416.9,127.2,416.9,127.2,416.8,124.4z" />
	<path display="inline" fill="#513A36" d="M410.5,112c0.8-0.2,0.7-0.8,0.8-1.4c0.7,1.1,1.5,2.2,2.2,3.3c-0.3,0-0.6,0.1-0.9,0.1   C411.9,113.4,411.2,112.7,410.5,112z" />
	<path display="inline" fill="#221110" d="M416.6,121.4c-1.4-1.4-1.7-2.3-1-3.6C416.8,118.7,416.3,119.9,416.6,121.4z" />
	<path display="inline" fill="#AE9991" d="M397.8,104.5c0,0.7,0,1.5,0,2.6c-0.9-1-1.5-1.6-1.2-2.7   C397,104.5,397.4,104.5,397.8,104.5z" />
	<path display="inline" fill="#796661" d="M421.4,131.9c2.1,1.9-1.5,3-0.7,0.1C420.9,132,421.2,132,421.4,131.9z" />
	<path display="inline" fill="#745D58" d="M397.2,104.5c-0.2,0-0.4,0-0.6-0.1c0-0.2-0.1-0.4-0.2-0.6c0.1-0.7,0.1-1.5,0.2-2.8   C397.5,102.5,397.1,103.5,397.2,104.5z" />
	<path display="inline" fill="#99867C" d="M412.5,114.1c0.3,0,0.6-0.1,0.9-0.1c0.3,0.3,0.7,0.6,1.1,1.1   C413.4,115.3,413,114.6,412.5,114.1z" />
	<path display="inline" fill="#D8B9AB" d="M400.5,68.7c-1.6,0.6-2.8,1.3-2.8,3.2c-1.1,0.2-1.4-1.6-2.6-1c0.6-1.4,1.1-2.8,2.7-3.4   c0.8,1.3,1.7,0.4,2.5,0.1C400.7,68,400.4,68.4,400.5,68.7z" />
	<path display="inline" fill="#A38E83" d="M400.4,67.7c-0.9,0.4-1.7,1.2-2.5-0.1c0.3-0.1,0.6-0.1,0.9-0.2c-0.1-0.5-0.2-1-0.2-1.5   C399.6,65.6,399.7,67,400.4,67.7z" />
	<path display="inline" fill="#A38E83" d="M400.5,68.7c0-0.2,0-0.3,0.1-0.5c0.2,0,0.4,0.1,0.6,0.2C400.9,68.5,400.7,68.6,400.5,68.7   z" />
	<path display="inline" fill="#241414" d="M414,134.7c-5.3,1.5-10.7,0.7-15.1-2.5c0.5-3.1,11,2.7,14.3,1.8   C413.4,134.2,413.7,134.4,414,134.7z" />
	<path display="inline" fill="#3D2B29" d="M415.2,134.8c2.5-1.4,4.4,0,6.4,1.2c2.5-0.8,2.5-0.8,4.7,0c0.2,1.5-2.1,1.3-3.1,1.5   c-0.5,0.5-0.9,1-1.3,1.4c-2.1-0.5-3.3-2.9-5.8-3.1C415.8,135.7,415.6,135.1,415.2,134.8C415.3,134.7,415.2,134.8,415.2,134.8z" />
	<path display="inline" fill="#453432" d="M427.4,146.8c0.7,1.7,1.3,3.3,1.9,4.9c-1.9,1.7-2.6-2.8-2.7-4.1   C426.9,147.4,427.1,147.1,427.4,146.8z" />
	<path display="inline" fill="#322321" d="M387.4,113.6c0.3,0.1,0.6,0.2,0.9,0.4c0.3,1.3,0.6,2.5,1,3.9   C387.4,118.7,386.5,114.9,387.4,113.6z" />
	<path display="inline" fill="#67524E" d="M427.4,146.8c-0.3,0.3-0.5,0.6-0.8,0.8c-1.2-1.7-1.4-3.7-1.8-5.6c0.2,0,0.5,0,0.7,0   C426.1,143.7,426.7,145.2,427.4,146.8z" />
	<path display="inline" fill="#211312" d="M397.8,114.3c-0.7-1.1-1.5-3.1,0.4-3.7C398.8,111.8,398.2,112.9,397.8,114.3z" />
	<path display="inline" fill="#3D2B29" d="M414,134.7c-0.3-0.2-0.5-0.5-0.8-0.7c1-0.8,2.5-1.2,2.1,0.8l0.1-0.1   C414.9,134.7,414.4,134.7,414,134.7z" />
	<path display="inline" fill="#684643" d="M414.4,132.5c-1-0.1-1.4-0.7-1.6-1.6C414.3,131.1,414.3,131.1,414.4,132.5z" />
	<path display="inline" fill="#634C48" d="M425.4,142.1c-0.2,0-0.5,0-0.7,0c0.1-0.2,0.1-0.4,0.2-0.5   C425.1,141.7,425.3,141.9,425.4,142.1z" />
	<path display="inline" fill="#74625D" d="M401.9,326.7c-0.1,0.2-0.2,0.3-0.2,0.5c-0.1-0.1-0.2-0.2-0.3-0.3   C401.6,326.9,401.7,326.8,401.9,326.7L401.9,326.7z" />
	<path display="inline" fill="#54423D" d="M338.7,175.7c0.5,1.8,1,3.5,1.6,5.3c-0.2,0.2-0.4,0.4-0.7,0.6c-0.9-1.9-2-3.8-2.1-5.9   C337.9,175.6,338.3,175.6,338.7,175.7z" />
	<path display="inline" fill="#110D0C" d="M338.7,175.7c-0.4,0-0.8,0-1.2,0c-0.4-1.2-0.5-2.4-0.1-3.8   C338.8,173,339.2,174.2,338.7,175.7z" />
	<path display="inline" fill="#937D73" d="M339.6,181.6c0.2-0.2,0.4-0.4,0.7-0.6c0.4,0.7,0.8,1.4,1.2,2.2   C340.1,183.4,339.9,182.4,339.6,181.6z" />
	<path display="inline" fill="#B2968A" d="M336.3,164.8c0-0.5,0-1.1,0-2.2C337.4,163.6,338.1,164.7,336.3,164.8z" />
	<path display="inline" fill="#79635B" d="M336.6,167.2c0,0.6,0,1.1,0,1.8C335.3,168.2,335.3,168.2,336.6,167.2z" />
	<path display="inline" fill="#665C56" d="M348.6,176.3c0,0.9,0,1.7,0,2.8C348,177.9,347.8,177.2,348.6,176.3z" />
</g>
</svg>