<?xml version='1.0' encoding='utf-8'?>
<svg xmlns="http://www.w3.org/2000/svg" version="1.2" baseProfile="tiny" id="Layer_1" x="0px" y="0px" viewBox="0 0 900 600" overflow="visible" xml:space="preserve">
<g id="a_00000029739675167040703920000016860932304265389956_">
	<path d="M302.7,301.3c0.3-5.1,0.6-10.1,0.8-15.2c0.1-0.1,0.1-0.3,0-0.4c0.2-1.6,0.5-3.3,0.7-4.9l0,0c0.8-1.2,0.8-2.5,0.8-3.8l0,0.1   c0.2-1,0.5-2.1,0.7-3.1l0,0c0.2-0.8,0.5-1.6,0.7-2.3c0.2-0.1,0.2-0.3,0.1-0.5c0.3-0.8,0.5-1.7,0.8-2.5l0,0.1   c0.3-0.8,0.5-1.6,0.8-2.3l0,0c0.3-0.8,0.5-1.5,0.8-2.3l0,0.1c0.2-0.5,0.4-1.1,0.6-1.6c0.2-0.1,0.2-0.2,0.2-0.4   c0.2-0.6,0.5-1.2,0.7-1.8l0,0c0.2-0.5,0.5-1.1,0.7-1.6c0,0,0,0,0,0c0.3-0.5,0.5-1,0.8-1.5l0,0c0.3-0.5,0.5-1,0.8-1.5l0,0   c0.3-0.5,0.5-1,0.8-1.5l0,0c0.3-0.5,0.5-1,0.8-1.6l0,0c0.3-0.5,0.5-1,0.8-1.6l0,0c0.2-0.5,0.5-1.1,0.7-1.6c0.2-0.1,0.2-0.2,0.1-0.4   c0.2-0.6,0.5-1.2,0.7-1.8l0,0c0.6-1.2,1.1-2.5,1.7-3.7l0,0.1c0.5-0.8,0.9-1.6,1.4-2.5c0,0,0,0,0,0c0.3-0.5,0.6-1,0.9-1.5   c0,0,0,0,0,0c0.5-0.8,1-1.6,1.5-2.3c0,0,0,0,0,0c0.5-0.8,1-1.6,1.5-2.3l0,0c0.8-1,1.6-2,2.3-3.1l0,0.1c0.2-0.3,0.5-0.6,0.7-0.9l0,0   c0.3-0.3,0.5-0.5,0.8-0.8c0,0,0,0,0,0c0.2-0.5,1-0.8,0.8-1.3c0.4-0.7,0.9-1.3,1.6-1.7l0,0c1-0.8,2-1.6,3-2.4c0,0,0,0,0,0   c0.3-0.2,0.6-0.5,0.9-0.7c0,0,0,0,0,0c0.3-0.3,0.5-0.6,0.8-0.8l0,0c0.3-0.3,0.5-0.5,0.8-0.8l0,0c0.3-0.3,0.5-0.5,0.8-0.8l0,0   c0.3-0.2,0.6-0.5,0.9-0.7l0,0c2-1.6,3.8-3.3,5.4-5.3l0,0c0.3-0.3,0.5-0.6,0.8-0.8l0,0c0.3-0.3,0.5-0.6,0.8-0.8l0,0   c0.3-0.3,0.5-0.5,0.8-0.8c0,0,0,0,0,0c0.6-0.7,1.1-1.5,1.6-2.3l0,0c0.3-0.3,0.5-0.5,0.8-0.8l0,0c0.3-0.3,0.5-0.5,0.8-0.8l0,0   c1-1.1,2-2.1,3.1-3l0,0c0.3-0.2,0.6-0.4,0.9-0.7l-0.2-0.1c0,0,0.1,0.2,0.1,0.2c0.5-0.3,0.9-0.6,1.4-0.9l0,0c1-0.5,2-1.1,3-1.5l0,0   c0.6,0,1.3,0,1.6-0.7c0,0,0,0,0,0c0.3-0.3,0.5-0.5,0.8-0.8c0,0,0,0,0,0c0.8-0.3,0.8-1,0.7-1.6l0,0c0.2-0.8,0.5-1.6,0.7-2.3   c0.2-0.1,0.2-0.2,0.1-0.4c0.2-0.9,0.5-1.8,0.7-2.6c0.1-0.1,0.1-0.2,0.1-0.4c0.9-3,0.9-7.3,0-11.1l0,0c-1.8-3.6,0.2-7.7-1.6-11.4   l0,0c-0.2-0.6-0.4-1.1-0.7-1.7l0,0.1c-2.5-10.4-1.7-21.2-1.6-31.8c0,0,0,0,0,0c0.3-1.3,0.6-2.5,0.8-3.8c0,0,0,0.1,0,0.1   c0.3-0.8,0.6-1.5,0.9-2.3c0,0-0.1,0-0.1,0c0.8-1.2,0.6-2.6,0.6-4l0,0c0.8-0.7,1.6-1.5,2.3-2.2l0,0c1-0.9,0.5-1.9-0.8-1.8   c0,0,0,0,0,0c-0.3-0.3-0.5-0.5-0.8-0.8l0.1,0.1c0.5-0.7,0.9-1.5,1.4-2.2l0,0c1.5,0,2.8-0.5,3.2-2.2l-0.1,0.1   c0.7,0.3,1.3,0.5,2.1,0.8c0.3-0.8,0.7-1.6,1-2.4c0,0-0.1,0.1-0.1,0.1c0.5,0,0.9-0.1,1.4-0.1c0.4,0.5,0.8,0.9,1.3,1.6   c1.2-1.1,2.3-2.1,3.3-3.1c0,0,0,0,0,0c2.2-0.9,4.5-1.1,6.9-1.5c0,0,0,0,0,0c2.3,0.8,3.3-1,4.6-2.3l0,0c0.4,0,0.8,0.1,1.3,0.1   l-0.1-0.1c0,0.4,0.1,0.8,0.1,1.3l0,0c-1.7,1.3,0.8,1.6,1.7,1l0,0c2.5,0,4.9,0,7.4,0.1l0,0c1.3,0.9,3.5,1.6,4.7,0.6   c1-0.3,2.3,0.5,3.1-0.6c0,0,0,0,0,0c0.5-0.2,1.1-0.5,1.6-0.7c0,0,0,0,0,0c1.4-0.2,3.1-0.7,3.4,1.2l0.2,0.1c0,0-0.2-0.2-0.2-0.2   c-0.4,0.4-0.8,0.8-1.5,1.6c3.2,0.1,5.9,0.2,8.5,0.2l0,0c0.1,0.4,0.3,0.9,0.4,1.4c0.7-0.2,1.3-0.4,1.9-0.6c0,0,0,0,0,0   c0.7,1.2,1.3,2.4,2.1,3.8c0.4-0.9,0.8-1.6,1.2-2.3l0,0c0.2-0.3,0.5-0.6,0.7-0.8c0,0,0,0,0,0c0.3-0.2,0.6-0.5,0.9-0.7l-0.1,0   c1.8,0.6,1.5,2.7,3.6,2.2l0,0c1.1,1.1-1,1.8-0.5,3.1c1.4-0.4,2.6-0.7,3.9-1c0.7,0.7,1.4,1.4,1.8,1.8c0.4,2.1-1.4,3.7-0.1,5.5   c0.1,0.1-0.1,0.5-0.3,0.6c-1.3,0.6-0.4,2-1.2,2.8l0,0c-0.7,0.3-1.5,0.6-2.2,0.9c0,0,0,0,0,0c-0.8,0.2-1.6,0.5-2.3,0.7c0,0,0,0,0,0   c-2,0-4.2,0.7-5.9-0.5c3.4-1.9,8.8-2,9.8-6.4c-3.9,2.9-9.1,3.9-13.7,6.4c-2.1-0.1-4,0.4-6.1,0.7c-0.8-1.3-1.7-0.8-2.7-0.5   c0.8,1.9,1.8,0.9,2.7,0.5c0.3,0.7,0.5,1.5,0.8,2.2c-1.8,1.5-3.6,0-5.6,0.1c-4.7,8.6-23.2,14.9-15.8,27c-1.5-0.6-2.5-1.1-3.6-1.5   c-0.4,0.8-0.7,1.5-1.1,2.4c-2.9-3.8-3-8.5-8-10.4c-0.4-1.3-0.8-2.5-1.2-3.9c-0.7,0.2-1.3,0.3-1.9,0.5c0.4,0.8,0.6,1.4,0.9,1.9   c-0.6,0-1.4-0.3-1.7,0.5c-1.2,2.2-4.1,3.9-4.3,6.3l0,0c-2.6,0.8-2.8,1.3-1.2,3.7c0.4-0.5,0.8-1,1.1-1.4c0.3,1-0.4,2.1-0.6,3.2   c0.6,1.3,1.2,2.6,1.9,3.9c-1,3.4-2.7,6.6-1.9,10.3c-0.6,1-1.2,1.8-1.5,2.3c-0.2,6.9,1,13.5-2.7,19.6c8.9,0.2,17.6-4.4,26.1-0.6   c-11.9,2.1-25.7,2.8-36.8,9c-5.4,15.1-11.7,31.1-8.9,47.4c1.1,9.1,3.1,23.7,8.1,22.4c0.1,0.7,0.1,1.2,0.2,1.6   c7.1,5.9,16.4,2.6,24.4,0.8c0.6,0.2,1.4,0,1.6,0.9c-43.3,25-46.8-46.2-29.4-69.9c-3.7,8.8-13.1,11.7-17.9,19.5   c-8.5,13.1-16.8,27.6-18.2,43.4c-2.2,16.2-2.9,32.9-5.7,48.8c-0.5,10.3-5.8,21.5-2.3,31.1c17.8,2.8,35.9,5.8,53.1-1   c0.1,0.5,0.2,0.8,0.4,1.2c6.1,0.8,11.8-3.6,17.7-1.5c2.6-5.7,0.5-12,2.3-17.4c3.6-5,4.5-11.2,7.6-16.4c8.4-11.4,9-25.7,14.3-38.4   c1.7,0.7,0.8,2.5,0.9,3.9l0,0c-0.5,0.3-0.6,0.6-0.1,0.9l0-0.1c0,0.5,0,1,0.1,1.4c0,0,0,0,0,0c-0.9,1.2-0.8,2.5-0.8,3.9   c-0.1,0.1-0.2,0.3-0.1,0.4c-0.2,1.1-0.5,2.2-0.7,3.3c0,0,0,0,0,0c-0.3,1.3-0.5,2.6-0.8,3.8c0,0,0,0,0,0c-0.9,1.4-0.7,3-0.9,4.6   l0-0.1c-0.2,0.8-0.5,1.6-0.7,2.4c0,0,0,0,0,0c-0.3,1.3-0.6,2.5-0.9,3.8l0-0.1c-0.3,0.5-0.5,1-0.8,1.6c0,0,0,0,0,0   c-0.8,1.3-1.5,2.6-2.3,3.9c0,0,0,0,0,0c-0.6,0.7-1.1,1.5-1.7,2.2c0,0,0,0,0,0c-0.3,0.3-0.5,0.5-0.8,0.8c0,0,0,0,0,0   c-0.2,0.3-0.5,0.6-0.7,0.9c0,0,0,0,0,0c-0.3,0.5-0.6,1-0.9,1.5c0,0,0,0,0,0c-0.3,0.5-0.5,1.1-0.8,1.6c0,0,0-0.1,0-0.1   c-0.5,1.3-1,2.6-1.5,3.9l0,0c-0.8,0.6-0.8,1.5-0.8,2.3l0,0c-0.2,0.8-0.5,1.6-0.7,2.3c0,0,0,0,0,0c-0.5,1-1,2-1.6,3c0,0,0,0,0,0   c-0.8,1-1.6,2-2.3,3c0,0,0,0,0,0c-3.1,3.2-0.9,8.2-1.6,12.2l0-0.1c-0.3,0.8-0.5,1.6-0.8,2.3c0,0,0-0.1,0-0.1   c-0.4,0.7-0.9,1.4-1.6,2.6c17-1.9,9.2,0.6,22.3,3.6c0.1,0.2,0.3,0.3,0.5,0.1c1,0.9,1.9,0.6,2.9,0c11.3,0.6,22.7-0.1,33.9,1.4   c0.2,0.2,0.4,0.3,0.6,0.1c2.1,0.6,4.2,0.9,6.3,1.4c0.1,0.2,0.3,0.3,0.5,0.1c0.6,0.2,1.2,0.4,1.7,0.6c0.2,0.2,0.4,0.3,0.6,0.2   c0.5,0.2,1.1,0.4,1.6,0.6c0.2,0.2,0.4,0.3,0.7,0.1c0.8,0.2,1.6,0.5,2.4,0.7c0.1,0.2,0.3,0.2,0.5,0.1c3.1,1,6.4,1,9.4,2.1   c0.2,0.2,0.4,0.3,0.6,0.2c0.6,0.2,1.1,0.4,1.7,0.6c0.1,0.2,0.3,0.3,0.6,0.1c0.8,0.2,1.6,0.5,2.5,0.7c0,0,0,0,0,0   c0.6,0.7,1.4,0.7,2.3,0.7c0.1,0.2,0.3,0.3,0.6,0.2c1.1,0.8,2,1.8,1.9,3.3c1.9,0.8,4.5,0.2,6.6,1.1c0.2,0.2,0.3,0.3,0.6,0.2   c3.1,1.4,6.8,0.3,10.1,1.4c0.1,0.2,0.3,0.3,0.5,0.1c2.5,0.4,3.2,2.7,4,4.5l0,0c0.3,0.2,0.5,0.4,0.8,0.6c0.1,0.2,0.2,0.3,0.5,0.2   c0.6,0.2,1.1,1,1.7,0.7c0.5,0.2,1.1,0.4,1.6,0.6c0.1,0.2,0.3,0.3,0.5,0.2c0.3,0.2,0.7,0.4,1,0.6c0.1,0.2,0.2,0.3,0.5,0.2   c4.4,2.9,10.4,1.4,15.5,3c0.1,0.1,0.3,0.2,0.4,0.1c1.3,0.9,2.7,0.7,4.1,0.7c0.2,0.2,0.4,0.2,0.6,0.1c3.6,0.7,7.4,1.3,10.8,2.9   c0.1,0.2,0.2,0.2,0.4,0.2c0.6,0.2,1.2,0.5,1.8,0.7l0,0c0.8,0.3,1.5,0.5,2.3,0.8l0,0c0.5,0.2,1,0.4,1.6,0.7c0.1,0.2,0.3,0.2,0.5,0.1   c1.4,0.5,2.7,1,4.1,1.5l0,0c0.5,0.3,1,0.5,1.5,0.8l0,0c0.5,0.3,1,0.5,1.5,0.8l0,0c1,0.5,2.1,0.9,3.1,1.4c0.1,0.2,0.2,0.3,0.5,0.2   c0.4,0.2,0.7,0.4,1.1,0.5c0.1,0.2,0.3,0.3,0.5,0.2c1.3,0.8,2.6,1.5,3.9,2.3l0,0c0.7,0.6,1.5,1,2.4,1.5l0,0c0.6,0.8,2,0.7,2.1,2   c1.7,0.3,3.8,1.2,5.5,1.8l0,0c0.5,0.2,1.1,0.4,1.6,0.6c0.1,0.2,0.3,0.3,0.5,0.1c0.6,0.2,1.2,0.4,1.8,0.6c0.2,0.2,0.4,0.3,0.6,0.1   c3.7,0.9,7,2.9,10.8,3c0.1,0.2,0.3,0.2,0.4,0.1c0.6,0.2,1.2,0.4,1.8,0.6c0.1,0.2,0.3,0.3,0.6,0.2c1.1,0.4,2.2,0.9,3.2,1.4   c0.1,0.2,0.3,0.3,0.5,0.2c2.2,1.1,6,1.7,8.5,1.5c-0.2-0.9-0.3-1.5-0.4-2.2c0,0-0.1,0.1-0.1,0.1c0.2-0.3,0.5-0.6,0.7-0.9l-0.1,0   c0.8-0.3,1.5-0.6,2.3-0.9c0.2,0.2,0.5,0.1,0.7-0.1c3.3-1,6.9-0.1,10.1-1.4c0.2,0.2,0.4,0.1,0.6-0.1c3,0.1,6.5-0.2,9.2-1.5l0,0   c0.6-0.2,1.1-0.5,1.7-0.7c0.2,0.1,0.4,0.1,0.6-0.1c1.6-0.1,3.2,0.4,4.7-0.7c0.3,0.1,0.5,0.1,0.7-0.1c0.6-0.2,1.1-0.4,1.7-0.6   c0.2,0.1,0.4,0.1,0.6-0.1c0.8-0.2,1.7-0.4,2.5-0.6c0.2,0.1,0.4,0.1,0.5-0.1c0.9,0.1,1.8,0,2.4-0.7c0.2,0.1,0.4,0.1,0.6-0.1   c0.7,0.1,1.4,0,1.9-0.6c0.2,0.1,0.3,0,0.4-0.1c1-0.5,2.1-0.9,3.1-1.4l0,0c0.8-0.3,1.5-0.5,2.3-0.8l0,0c0.8,0,1.7,0,2.3-0.8   c0.6-0.2,1.2-0.5,1.7-0.7c1.8-0.9,4.5-1.5,5.9-3.1l0,0c0.3-0.2,0.6-0.4,0.9-0.6l-0.2-0.1l0.2,0.2c1.7-1.5,3.9-2.3,5.8-0.8l0,0   c0.3,0.2,0.6,0.4,0.9,0.5c0.1,0.2,0.3,0.3,0.5,0.2c0.4,0.2,0.8,0.4,1.2,0.6c0.6,1.6,2.3,1.5,3.6,2.5l0,0c0.3,0.2,0.6,0.5,0.8,0.7   l0,0c0.2,0.3,0.5,0.6,0.7,0.9l-0.1-0.1c0.3,0.6,0.6,1.2,0.8,1.7c-0.1,0.2-0.1,0.3,0.1,0.4c0,0.5,0,1,0,1.5l0-0.1   c-0.5,1.6-1,3.1-1.5,4.7c-0.2,0.1-0.2,0.3-0.1,0.5c-0.3,1.1-0.5,2.2-0.8,3.3c0,0,0-0.1,0-0.1c-0.3,0.5-0.5,1-0.8,1.6c0,0,0,0,0,0   c-0.7,0.3-0.8,0.9-0.8,1.6l0,0c-0.3,0.5-0.5,1-0.8,1.6l0,0c-0.3,0.5-0.6,1-0.9,1.5c0,0,0,0,0,0c-0.3,0.5-0.6,1-0.9,1.5l0,0   c-0.2,0.3-0.4,0.6-0.6,0.9l0,0c-0.8,1-1.6,2-2.4,3l0,0c-0.2,0.3-0.5,0.6-0.7,0.9c0,0,0,0,0,0c-1.5,1.8-3.2,3.5-4.7,5.2l0.2,0.1   c0,0-0.1-0.2-0.1-0.2c-0.3,0.3-0.5,0.5-0.8,0.8l0.2,0.1l-0.2-0.2c-2.5,2.1-4.6,4.6-7.5,6.2l0,0c-0.5,0.3-0.9,0.6-1.4,0.9   c0,0-0.1,0-0.1,0c-0.3,0.2-0.6,0.4-0.9,0.6c0,0,0,0,0,0c-0.8,0.5-1.6,0.9-2.4,1.5c0,0,0.2,0.1,0.2,0.1l-0.2-0.2   c-1.7,0.8-3.1,2-3.7,4l0,0c-0.3,0.5-0.5,1-0.8,1.5l0,0c-0.2,0.5-0.5,1.1-0.7,1.6l0,0c-0.3,0.5-0.6,1-0.9,1.5l0,0   c-1.3,1.5-3.1,2.7-3.8,4.6l0,0c-0.5,0.8-1,1.6-1.5,2.3l0,0c-0.3,0.5-0.6,1-0.9,1.4l0,0c-0.2,0.3-0.4,0.6-0.6,0.9c0,0,0,0,0,0   c-0.3,0.5-0.6,0.9-0.9,1.4l0-0.1c-0.2,0.3-0.4,0.6-0.7,0.9l0,0c-1.5,1.5-2.9,3.2-4.6,4.5l0,0c-0.8,0.5-1.5,1-2.3,1.5l0,0   c-0.5,0.3-1,0.5-1.5,0.8c0,0,0,0,0,0c-0.5,0.3-1,0.5-1.5,0.8c0,0,0,0,0,0c-1,0.1-1.8,0.7-2.3,1.5l0,0c-1.6,0.4-2.8-0.7-4.4-0.8l0,0   c-0.5-0.5-1.1-1-1.6-1.5l0,0c-0.2-0.5-0.5-1-0.7-1.6l0,0c-0.3-0.3-0.5-0.5-0.8-0.8l0,0c-0.3-0.3-0.5-0.5-0.8-0.8l0,0   c-0.2-0.3-0.5-0.6-0.7-0.8l0,0.1c-0.5-0.8-1-1.6-1.6-2.3l0,0c-0.5-1.3-1-2.5-2.2-3.2l-0.2,0.2l0.2-0.1c-0.3-0.2-0.6-0.4-0.9-0.7   l0,0c-0.8-0.5-1.5-1-2.3-1.6l0,0c-1-0.8-2-1.6-3-2.4l-0.2,0.2c0,0,0.2-0.1,0.2-0.1c-0.3-0.2-0.6-0.4-0.9-0.6l0,0   c-1.4-1.2-1.3-3-3-3.8c0,0,0,0,0,0c-0.5-0.3-1-0.6-1.5-0.9c0,0-0.2,0.1-0.2,0.1l0.2-0.1c-0.8-0.5-1.6-1-2.3-1.5l0,0   c-0.3-0.3-0.5-0.5-0.8-0.8l0,0c-0.2-0.3-0.5-0.6-0.7-0.8l0.1,0.1c-0.3-6.6-11.4-2.9-16.1-3.8l0,0c-6.1-1.4-12.7-0.4-19-0.8   c0,0,0,0,0,0c-9.5-2.2-19.3-0.3-28.9,0l0,0c-2.3-0.2-4.6-0.5-6.9-0.7l0,0c-1.5-0.5-3-1-4.5-1.6l0,0c-1.3-0.5-2.5-1-3.8-1.5l0,0   c-0.6-0.8-1.5-0.7-2.3-0.7l0,0c-0.8-0.2-1.5-0.5-2.3-0.7l0,0c-0.7-0.3-1.5-0.6-2.2-0.8l0,0c-0.7-0.3-1.5-0.6-2.2-0.9l0,0   c-0.5-0.2-1.1-0.5-1.6-0.7l0,0c-0.3-0.3-0.5-0.5-0.8-0.8l0,0.1c0-2,0-2-1.5-2.4l0,0c-1.3-0.5-2.6-1-3.8-1.5l0,0   c-0.7-0.4-1.4-0.8-2.4-1.4c0,6.7-0.1,13.3,0.7,19.3c-0.7,0.8-0.8,1.7-0.7,2.7c-0.2,0.1-0.2,0.3-0.1,0.5c-0.2,1.6-0.5,3.2-0.7,4.8   c-0.2,0.1-0.2,0.3-0.1,0.5c-0.8,1.5-1,3.1-0.8,4.8l0-0.1c-0.8,1.4-0.7,3.1-0.8,4.6l0,0c-0.9,1.4-0.9,3-0.8,4.6l0,0   c-0.3,1.3-0.5,2.6-0.8,3.8l0,0c-0.2,0.8-0.5,1.6-0.7,2.4c-0.1,0.1-0.2,0.2-0.1,0.4c-0.2,0.6-0.5,1.2-0.7,1.9l0,0   c-0.3,0.8-0.6,1.5-0.8,2.3l0,0c-0.2,0.8-0.5,1.6-0.7,2.4l0,0c-0.8,0.9-0.8,2-0.8,3l0-0.1c-0.8,0.9-0.8,2-0.8,3.1l0-0.1   c-0.8,0.9-0.8,2-0.8,3.1l0-0.1c-0.2,0.8-0.4,1.6-0.7,2.4c-0.2,0.1-0.3,0.3-0.1,0.6c-0.8,1-0.7,2.1-0.7,3.2l0,0   c-0.9,1.7-0.7,3.5-0.9,5.3l0-0.1c-0.8,0.9-0.7,2-0.7,3.2c-0.1,0.1-0.2,0.2-0.1,0.4c-0.8,1-0.8,2.2-0.7,3.4   c-0.1,0.1-0.2,0.3-0.1,0.4c-0.7,1-0.8,2.2-0.7,3.4c-0.2,0.2-0.2,0.3-0.1,0.5c-0.8,1.8-0.7,3.7-0.7,5.5c-0.2,0.2-0.2,0.3-0.1,0.5   c-0.4,0.4-0.4,0.8,0,1.3c0.3,3.1,0.6,6.3,1,9.4c0.2-0.2,0.4-0.4,0.6-0.6c0,0,0,0,0,0c1,0,2,0.1,2.9,0.1l-0.1,0   c0.3,0.2,0.6,0.5,0.8,0.7l0,0c1.4,1.4,2.5,3.2,4.5,4l0.1-0.2l-0.2,0.1c0.3,0.2,0.6,0.5,0.9,0.7l0,0c0.3,0.2,0.6,0.5,0.8,0.7l0,0   c0.3,0.3,0.5,0.5,0.8,0.8l0,0c0.9,0.9,2,1.6,3,2.4l0,0c0.3,0.2,0.6,0.5,0.9,0.7l0,0c0.3,0.3,0.5,0.5,0.8,0.8l0,0   c0.3,0.3,0.5,0.5,0.8,0.8l0,0c0.2,0.3,0.5,0.6,0.7,0.8l0,0c0.5,0.8,1,1.6,1.6,2.3l0,0c1,0.8,1.9,1.7,3,2.4l0.1-0.2l-0.2,0.1   c0.8,0.5,1.5,1,2.3,1.6l0,0c0.8,0.5,1.5,1,2.3,1.6l0,0c0.3,0.2,0.6,0.4,0.9,0.7l0,0c1,0.7,1.7,1.7,3,1.6l0,0   c0.5,0.2,1.1,0.4,1.6,0.6c0.1,0.2,0.3,0.2,0.4,0.1c0.3,0.2,0.7,0.5,1,0.7l0,0c1.2,0.9,2.5,1.5,3.9,2.2c0.1,0.2,0.2,0.2,0.4,0.1   c0.6,0.2,1.3,0.4,1.9,0.7c0.1,0.2,0.3,0.2,0.5,0.1c1.2,0.8,2.6,0.9,4,0.8l0,0c0.6,0.8,1.5,0.8,2.4,0.7c0.1,0.2,0.3,0.2,0.5,0.1   c0.6,0.2,1.2,0.5,1.7,0.7l0,0c0.5,0.3,1,0.6,1.4,0.9l0,0c0.3,0.2,0.6,0.5,0.9,0.7l0,0c0.2,0.3,0.5,0.6,0.7,0.9l-0.1-0.1   c0.4,0.8,1,1.6,0.8,2.6c-1.4,1.3,0.4,2.7,0.8,4.3l0-0.1c0,1.7,0,3.5,0,5.2l0-0.1c-0.2,0.3-0.5,0.6-0.7,0.8c0,0,0,0,0,0   c-0.3,0.2-0.6,0.5-0.8,0.7l0,0c-0.5,0.3-1,0.6-1.5,0.8l0,0c-2.6,0.2-4.5,2.1-6.9,3l0,0c-0.5,0.2-1.1,0.5-1.6,0.7l0.2,0.1   c0,0-0.2-0.1-0.2-0.1c-4.3,2-9.5,1.6-13.7,3.1l0,0c-1.5,0-2.9,0-4.4,0l0,0c-5.2-1.3-11.3-0.3-16.8-0.8l0,0c-3.3-0.5-6.6-1-9.9-1.6   l0,0c-1.9-0.3-3.4-1.7-5.4-1.5l0,0c-2.1-1.1-4.1-0.9-6.2,0c0,0,0,0,0,0c-4.6-0.2-9.2-0.2-13.7,0.8l0,0c-1.5,0-2.9,0-4.4,0l0,0   c-2.7-1.2-5.6-0.3-8.3-1.6l0,0c-0.5-0.6-1-1.1-1.5-1.7c0.1-0.1,0.1-0.3,0-0.4c0-2.3,0-4.5,0-6.8l0,0.1c0.2-1.3,0.4-2.6,0.7-3.9   c0.2-0.1,0.3-0.3,0.1-0.5c0.2-0.8,0.5-1.7,0.7-2.5l0,0c0.9-1.1,0.6-2.5,0.8-3.8l0,0.1c0.2-0.8,0.5-1.6,0.7-2.4l0,0   c6.2-8.5,0.6-23.5,9-25c2.7-24.2-7.5-47.6-4.5-71.7c1.9-2,1.1-4.8,2-7.1c-18.1-8.1-37.9-10.2-57-15c-5.1,10.3-17.5,13.9-26.6,19.8   c1.3,5.1,2.1,11.3,0.4,16.1c-1.4-4.6-0.2-10.8-4.3-14.2c-4.2,1.9-8.2,4.3-13.1,4c7.8,23.5-1,49.8,1,74.2c1.9,1.1,3.8,1.1,5.6,1.4   c-11.7,2.2-24.6-0.4-36.6,1.2c0.6,3.8-1.2,7.1,0.3,10.7c3.7,0.1,7.5,0.2,11.2,0.3c-3,2.5-9.5-1.3-12.1,1.7   c-0.1,10.8,0.3,21.7,0.7,32.5c-1.3,1.1-2.9,1.4-4.6,1.5c0,0,0.1,0.1,0.1,0.1c0.7-0.6,1.5-1.2,2.3-1.9   c0.8-21.4-6.9-112.3,11.2-120.9c-1.5-1-2.5,0-3.6,0.4c-5.2-1.8-11.5-0.3-17-0.8c-17.1,23.4-7.7,58.8-14.2,85.9   c-2.8,7.6,1.3,18.2-1.6,25.9c-0.2-0.1-0.4-0.2-0.6-0.3c0.1-0.2,0.1-0.3-0.1-0.5c-0.3-7.4,0.5-14.8,0-22.4   c-4.9-0.2-9.5-0.4-14.4-0.5l0,0c-0.3-0.3-0.5-0.5-0.8-0.8l0,0c-0.3-0.5-0.5-1-0.8-1.6l0,0.1c0.2-1.2,0.5-2.5,0.7-3.7c0,0,0,0,0,0   c2.6-1.3,3.3-3.7,4.6-6.1c0,0,0,0,0,0c0.3-0.5,0.6-1,0.9-1.5c0,0,0,0.1,0,0.1c0.2-0.3,0.5-0.6,0.7-0.8c0,0,0,0,0,0   c0.3-0.2,0.6-0.4,0.9-0.7c0,0,0,0,0,0c0.5-0.3,1-0.5,1.5-0.8l0,0c2.9-0.2,5.5,0.7,8.4-0.3c0.2-4.5,0.5-9,0.7-13.5   c0.1-0.1,0.1-0.3,0-0.4c1.3-5.6,0.9-11.4,0.7-17c0.2-0.1,0.2-0.3,0-0.5c0.3-3.1,0.5-6.3,0.8-9.4c0.1-0.1,0.1-0.3,0-0.4   c0.3-2.4,0.5-4.7,0.8-7.1l0,0.1c0.8-1.4,0.7-3.1,0.8-4.6l0,0.1c0.3-1,0.5-2.1,0.8-3.1l0,0.1c0.2-0.8,0.5-1.6,0.7-2.4l0,0   c0.3-1,0.6-2,0.9-3l-0.1,0.1c0.2-0.8,0.5-1.6,0.7-2.4c0,0,0,0.1,0,0.1c0.2-0.8,0.5-1.6,0.7-2.4c0,0,0,0,0,0c0.5-1,1-2.1,1.5-3.1   c0,0,0,0,0,0c0.4-1.4,2.3-1.6,1.9-3.2c-5.4,0-10.9,0-16.3,0l0,0c-4.4-1.4-9.2-0.8-13.6-2.4l0,0c-0.3-0.2-0.6-0.5-0.9-0.7l0.1,0.1   c0-5.3-0.1-10.6-0.1-15.9c0.2-0.1,0.2-0.2,0.1-0.4c0.5-0.8,1.1-1.7,1.6-2.5l-0.1,0.1c0.5-0.3,1.1-0.6,1.6-0.9   c0.2,0.2,0.4,0.1,0.6-0.1c0.7,0.1,1.3,0,1.8-0.7c0.2,0.1,0.4,0,0.5-0.2c0.3-0.2,0.6-0.4,0.9-0.5l0,0c2.4-1.5,5-2.7,7.6-3.8l0,0   c0.8-0.3,1.5-0.6,2.3-0.8l0,0c0.8-0.3,1.5-0.5,2.3-0.8c0,0,0,0,0,0c0.8-0.2,1.6-0.5,2.5-0.7c0.2,0.1,0.4,0.1,0.6-0.1   c3.1,0.4,5.6-1.8,8.4-2.9c0,0,0,0,0,0c0.5-0.2,1-0.5,1.6-0.7l0,0c0.6-0.3,1.2-0.5,1.7-0.8c0.2,0.1,0.4,0,0.5-0.2   c5.3-3,11.7-1.3,16.7-4.2c-1.5-1.2-3-2.4-4.4-3.5l-0.1,0.2l0.2-0.1c-0.3-0.2-0.6-0.5-0.9-0.7l0,0c-0.3-0.3-0.5-0.5-0.8-0.8l0,0   c-0.3-0.3-0.5-0.5-0.8-0.8l0,0c-0.3-0.3-0.5-0.5-0.8-0.8l0,0c-0.3-0.3-0.5-0.5-0.8-0.8l0,0c-0.3-0.3-0.5-0.5-0.8-0.8l0,0   c-0.2-0.3-0.5-0.6-0.7-0.8l0,0.1c-0.5-0.8-1-1.6-1.5-2.3l0,0.1c-0.3-0.5-0.6-1-0.9-1.5l0,0c-0.3-0.5-0.5-1-0.8-1.6l0,0   c-0.3-0.8-0.5-1.5-0.8-2.3l0,0c-0.2-0.9-0.5-1.7-0.7-2.6c0.1-0.2,0.1-0.3-0.1-0.4c0-1.4,0.2-2.9-0.7-4.2c0.1-0.2,0.1-0.3-0.1-0.4   c-1.7-5.3,0.5-11.1-1.5-16.1l0,0.1c0.1-1.2,0.2-2.4-0.8-3.3c0.1-0.2,0-0.3-0.1-0.4c0-3,0-6.1,0-9.1l0,0c0.3-0.5,0.5-1,0.8-1.5l0,0   c0.8-1.4,3-2.2,3.1-3.8c0,0,0,0.1,0,0.1c0.7-0.3,0.5-0.6,0-0.9l0,0c0-1,0-2,0-3l0,0c1.4-1.3,0.9-2.6,0-3.8l0,0c0-1.3,0-2.5,0-3.8   l0,0c0.9-3.2,0.6-6.6,0.8-9.9l0,0.1c0.2-1.3,0.5-2.6,0.7-3.9l0,0c0.9-1.4,0.8-3,0.8-4.6c0.1-0.1,0.2-0.3,0.1-0.4   c0.8-1.3,0.8-2.7,0.7-4.2c0.1-0.1,0.1-0.3,0-0.4c1.7-6.2,0.3-13,0.8-19.4c0.1-0.1,0.1-0.3,0-0.4   C302.9,305.7,302.7,303.5,302.7,301.3z M440.3,365.3c-11.3-4-23.3-2.2-35-2.6c0.2-0.6,0.3-0.9,0.5-1.4c-3.8,0-7.4,0-11,0   c-2.4-1.5-5.6-1.9-7.8-3.6c-1.9,2.1-3.5,3.4-5.1,5.6c23.3,4,48.6-2.5,70.8,7.1c1.6,0.7,3.1,1,4.8,0.7c3.1-0.8,4.8,1.7,7.7,2.5   c0.4-0.8,0.8-1.4,1.1-2C458.2,367.3,448.8,367.7,440.3,365.3z M502.9,553.4c-0.5-0.7-1.1-1.3-2.2-1.1c-0.4,0.9-0.8,1.9-1.2,2.8   c-0.4,0.1-0.7,0.2-1.1,0.3c-1.4-1-0.2-2.4-0.4-3.6c-0.7-0.4-1.4-0.9-1.9-1.2c-1.8,0.5-2.8,2.1-4.9,2.2c0.5-1.6,1-3,1.5-4.6   c-0.6-0.4-1.1-0.8-1.8-1.3c-1.6,1.7-3.4,2.6-5.8,3c-0.1-2.6,2-3.8,3-5.5c-0.4-0.6-0.6-0.8-1.2-1c-3.6,3.3-4.3,3.7-7,4.5   c0.3-1.2,0.5-2.3,0.7-3.3c1.2-1.3,2.4-2.7,3.7-4.1c-0.5-0.3-0.8-0.5-1.2-0.7c-2.4,3.3-5.3,4.8-9.2,6.1c0.3-4.3,4-6.2,5.9-9.7   c-1.9-1.6-3.9-3.1-6.1-4.9c-4,2-5.2,8.6-9.2,11.3c-7.8,5.5-16.8,8.4-22.7-0.9c-1.4-2.9,0-13.2-4.4-11.2c3.7,14.2-6.5,25-6.5,39.1   c9.8,4.9,21.2,0.1,31.5,1.7c18.8,4.8,42.3,6.7,59.5-3.8C518.8,552.9,512.4,560.4,502.9,553.4z M407.7,133.4   c0.9-0.1,1.9-0.2,2.8-0.3c0.4-2.1-5.4-1.1-5.9,0.3C403.4,134.3,407.2,134.6,407.7,133.4z M353.6,432.9c-13.7-4-28.5,2-40.2-10.9   c-14,3.8-27.3,8.8-41,13.2c-10.9,2.3-8.6,10.8-8.2,19.5c24.7,4.3,50.5-0.7,75.1,2.6c12.5-7.4,26.8-12.1,37.8-21.8   c0-1.1,0-2.1,0-3.1c-7.4-0.2-15.4,0-22.7,1.2C354.2,433.3,353.9,433.1,353.6,432.9L353.6,432.9z M273.8,533.9   c-3.7,2.6-5.9,7.3-8.2,11.1c3.5,2.5,9.1,0.5,13.4,1.1c0.7-3.5,1.9-7.7,1-10.8c0.1-0.7,1.5-1.5-0.1-2.2   C278.2,533.6,274.2,532.2,273.8,533.9z M446.3,541.6c0.9,1,1.9,2,2.9,3.1c4.1-0.3,9.7-0.2,12.2-3.8c-6.4-0.4-12.1,2.3-17.8-2.2   C443.8,540.7,445.2,541,446.3,541.6z M600.8,422.9c-1.3,4.8-2.9,8.9-5.2,13.4c2.1-0.4,2.8-0.5,5-0.9c1.3-4.3,2-8.9,3.4-13.1   c-1.4-1.5-1.2-4.1-3.2-4.5C600.8,419.5,600.8,421.2,600.8,422.9z M593.1,432c1.5-4.7,7.4-10.6,4.7-15.3   c-23.5-2.4-45.1-12.8-65.7-23.5c-9.3-3.5-19.4-4.6-28.9-7.4c-4-1-7.5-4-11.8-3.1c-5.8-4-12.2-7.5-19.4-6.5c4,3.8,10.5,3.5,11.6,9.4   c-1.4,1.1-0.5,2.4-0.5,3.9c1.5,0.2,2.8,0.3,4.1,0.5c-0.4,2-2.4,2.3-3.6,3.8c0.9,1.2,1.1,2.1,1.5,3.5c-0.4,0.5-0.9,1.1-1.5,1.9   c2.5,7-0.1,15.1,1.2,21.9c19.5,8.2,19.5,11.5,42.7,12.3c11.9,1.3,24.1-3.2,35.7,0.5c8.2,1.6,17.7-1.2,25,3.7   c0.7,0.7,1.5,0.8,2.5,0.3C591.4,435.9,592.3,434,593.1,432z M657.8,397.2c-1.4-0.6-2.7-1.3-4.2-1.9c-7,4.9-15.2,7.7-23.1,10.5   c-0.4,5.6-4.9,0.2-7.4,2.3c0.4,1,0.9,2.1,1.3,3c-2.9,4.7-6.8-4-8.7-0.7c1.4,1.4,3.2,2.8,3.2,5.3c-3.8,2-6.7-2.8-9.2-5.2   c-3.7,0.4-7.3,1.2-11.1,1.1c0.4,1.2,1.1,1.4,2,1.3c11.2,8.5,5,11,2.5,21.7c-1.6,4.1-12.1,7.1-16,5.1c-0.6-0.4-1.6-0.4-2.6,0.6   c3.5,3.2,9.3,3.8,10.5,9c0.6,0,1,0,1.3,0c2.9,2.6,6.2,4.5,8.1,7.8c0.2,2.8,3.3,3.9,5.2,5.3c13.1-4.2,15-20.7,25.5-28.1   c11-8.4,28.3-20.7,24.5-36.4C659.1,397.7,658.4,397.4,657.8,397.2z M458.6,413c-0.1-0.4-0.2-0.9-0.3-1.5c-3.5,10.6-8.4,22.2-15,32   c-13.8,22.3,4.9,63.8,0.8,91.6c7.6,0.8,19.7,7,23.8-2.6c-4-38.6,12.9-74.6,13-113c-0.5-0.9-0.9-1.5-1.3-2.2   c0.6-0.4,1.1-0.8,1.6-1.2c0.1-10.4-1.6-20.5-0.8-30.9c-3.9-2.4-7.6-4.5-11.8-6.2c-2.5,6.2-2.4,13.1-5.7,18.8   c-2.3,3.2-3.3,6.8-3,10.7C460,409.7,460.1,413,458.6,413z M325.6,364.5c-6.1,0-12,3.6-18.3,2c-2.9-0.5-5.5,0-8.2,0.3   c-1.5,1.6-1.7,3.7-2.1,5.6c0.5,0.4,1,0.8,1.5,1.2c1.8,27.2,3,33.8,24.1,51.5c14,3.3,29.5,5,44.1,4.4c15.6-2.2,28.5,5.4,43.8,5.8   c9.9,0.5,18.3,8,28,7.9c3.4-9.3,8.7-18.1,12.7-27c0.9-0.1,1.7-0.2,2.6-0.3c2.5-8.2,3.2-16.7,8.4-23.8c0.8-1.4,1.1-2.8,0.9-4.4   c-0.7-3.8,1.7-6.6,3.4-9.8c-28.6-12.1-62.6-9.2-92.6-11.6c0.4-0.2,1.3-1,1.7-1.5c-3.5-1.1-3.8-4.4-4.6-7.3   c-13.6,1.3-27.4,4.8-40.6,5.9c-0.2,0.7-0.4,1.5-0.6,2.4c-0.5-0.8-0.8-1.3-1.2-1.9C327.5,364.1,326.5,364.3,325.6,364.5z    M322.1,459.2c-5,3-10.7,5.7-10.8,12.1c-1.9,20.3-5.2,40.3-4.4,60.7c3.1,0.5,26.3,0.7,29.5,0.3c0.8-15.7,0.9-31.4,1.2-47.2   c-0.1-9,1.7-18.6-3.4-26.7C330,458.7,325.9,459,322.1,459.2z M374.5,357.3c-0.8,6.4,7.6,5.1,9.3,0.3   C380.5,357.5,377.6,357.4,374.5,357.3z M307.2,534c-0.1,0.2-0.1,0.3-0.2,0.5c9.2-0.1,21.4,1,29.2-0.5   C326.6,534,316.9,534,307.2,534z M413.9,121.7c-2.1,0.4-4,0.8-5.9,1.2c0.6,1.7,1.5,0.5,2.2,0.6c1,0.1,1.9,0.2,2.8,0.3   c0.6,1.3,1,2.2,1.6,3.4c0.8-0.4,1.5-0.7,2.2-1.1c-0.1-1-0.1-2-0.2-3c-0.7,0.5-1.2,0.8-1.7,1.1C414.6,123.4,414.3,122.8,413.9,121.7   z M329.1,361.8c-3.1-0.4-11,0-13.9,0.9C319.8,362.8,324.5,363.6,329.1,361.8z M393.8,143.8c4.2-2.5,4.2-2.5,4.8-4.3   C393.8,141.6,393.3,142,393.8,143.8z M372.8,129.9c1.6,0.5,3.4,2.1,4,0c-0.7-0.8-1.4-1.7-2.3-2.7   C373.9,128.2,373.4,129,372.8,129.9z M377.1,118.9c-2.6-0.8-2.6-0.8-4.8,2.7C374.3,120.8,375.5,119.6,377.1,118.9z M390.6,130.8   c1.8,1.2,3.3,3.9,4.6,1.2C393.8,131.9,393.1,129.7,390.6,130.8z M383.2,132.2c-0.2-1.1-0.4-1.8-1.3-2.3c-0.6,0.7-1.1,1.4-1.7,2.1   c0.5,0.5,0.8,0.9,1.2,1.3C382,132.8,382.7,132.5,383.2,132.2z M397.7,138.4c2-0.6,5.6-2.4,3.9-4.3C401,136.1,398.5,136,397.7,138.4   z M372.1,143.8c-1-0.4-1.6-0.6-2.3-0.9c-0.7-0.3-1-1.6-2.3-0.8c1.1,1,2.2,2,3.4,3.2C371.3,144.9,371.6,144.4,372.1,143.8z    M308.9,362.8c-1.2-1.3-1.9-2.5-3.7-2c0.1,0.6,0.1,1.3,0.2,2C306.5,362.8,307.3,362.8,308.9,362.8z M362.1,142.8   c-0.8,1.5-2,2-1,3.6c0.8-0.7,1.5-1.3,2.5-2.1C363.2,143.8,362.8,143.5,362.1,142.8z M400.1,134.4c1.1-1.7-0.3-2.3-0.6-3.3   c-0.4,0-0.9,0.1-1.6,0.1C398.7,132.3,399.2,133.1,400.1,134.4z M367.3,128.4c-0.6,1.3-2.4,2.8-0.5,3.2   C367.3,130.8,368.5,130.2,367.3,128.4z M364,130.5c-1.9,0-2.3,1.4-1.5,2.9C363.1,132.3,364.4,132.1,364,130.5z M362,158   c-1.8,1.2-1.8,1.4-0.4,2.5C362.1,159.7,362,159,362,158z M383.1,148.9c-1.4,1.2-1.4,1.2-1.2,2.6C383,151,383.6,150.3,383.1,148.9z    M449.8,425.5c1.1-0.7,1.7-1.6,1.9-3.3C450.2,423.1,450,424.3,449.8,425.5z M389.4,147.8c2.1-0.1,2.1-0.1,1.6-1.7   C390.4,146.8,389.9,147.3,389.4,147.8z M302.9,360c-0.8,0.2-1.1,2.3,0.3,2C303.1,361.2,303.5,360.5,302.9,360z M403.8,119.9   c-1,0-1.8,0-3.3,0c1,0.7,1.5,1.1,2,1.4C403,120.8,403.3,120.4,403.8,119.9z M386.5,142.1c-0.7,1.2-1.8,1.5-1,2.5   C386.5,144.3,387.3,143.9,386.5,142.1z M367.5,149.7c1.8-1.1,1.8-1.2,0-2.3C367.5,148.2,367.5,148.9,367.5,149.7z M368.5,125.9   c2.1-0.5,2.1-1.2,1.4-2.3C369.6,124.2,369.2,124.7,368.5,125.9z M359.2,150.6c0.9-0.2,1.7-1.7,0.5-1.9   C358.9,149.2,359,149.8,359.2,150.6z M381,146.3c1.3-0.4,1.5-0.2,1.9-1.3C381.9,144.5,381.4,144.7,381,146.3z M310.2,361.4   c0,0.2-0.1,0.5-0.1,0.7c0.5,0,1-0.1,1.5-0.1c0-0.2,0-0.3,0-0.5C311.1,361.5,310.6,361.4,310.2,361.4z M380.7,152.6l-0.1,0.2l0.2,0   L380.7,152.6z" />
	<path fill="#060405" d="M307.3,581c0-0.6,0.1-1.1,0.1-1.7c26.1,0.2,52.1,0.4,78.2,1.1c0,0.5,0,1,0,1.4c-2.9,0.5-6.5-1.6-7.7,2.3   c9.1-1.9,9.7,5.8,15.4,9.1c-0.1,1.2-0.1,2.5-0.2,3.7l0-0.1c-0.2,0.5-0.5,1.1-0.7,1.6c0,0,0,0,0,0c-0.2,0.3-0.5,0.5-0.7,0.8   c-64.5,1.3-132,1.2-196-1.9c-0.3-1.6-0.3-3.2,0.1-4.9l-0.1,0.1c1-1.2,0.5-2.6,0.8-3.9l0,0.1c0.2-0.5,0.5-1.1,0.7-1.6c0,0,0,0,0,0   c0.3-0.5,0.5-1,0.8-1.5l0,0c0.5-0.8,1-1.6,1.5-2.3l0,0c0.8-1.2,2-2.1,3.1-3.1l0,0c0.6,0,1.3,0.1,1.6-0.7l-0.2-0.2l0.2,0.2   c0.2-0.3,0.5-0.6,0.7-0.9c0,0,0,0.1,0,0.1c0.3-0.3,0.5-0.5,0.8-0.8c0,0-0.1,0-0.1,0c25-0.2,49.9,1.2,74.9,0.5   c-0.2-0.9-0.3-1.6-0.4-2.3l0,0c0.5-9.3,0.9-19.1,0.7-28.8c0-0.8-0.3-1.8,0.8-2.3c0.4,11.6-0.9,23.7,1.4,35   c5.8,3.2,13.4,1.3,19.9,2.2l-0.1-0.1c14.4,1.8,30,0.6,44.8,1.3c5.8-1.1,27.9,3,29.4-2c-14.9-0.3-29.9,0.4-44.7-0.7   c6.2-0.3,12.5,0.4,18.7-0.5C336.3,579.6,321.6,580.6,307.3,581z M201.6,584c-1.3,3.6-2.7,7.2-4.1,10.9c0.9,0.8,1.6,1.4,2.3,2   c58.6,0.5,117.2,1.1,175.7,1.2c-1.2-4.2,0.3-8.3-1-12.4C317.1,586.3,258.4,582.3,201.6,584z M376.5,598.2c4.2,0.4,8.5,0.8,12.6-0.1   c-0.1-2.2-0.2-4.2-0.4-6.5c-1.5-1.7-2.7-4.1-5-5.5c-2.4,0-4.6,0-6.9,0C376,589.8,376.8,594,376.5,598.2z M205.1,581.7   c25.1,0.1,50.6,1.8,75.4,0.5c-22.2-4.2-47.6-0.8-70.7-2.1C208.1,580.1,206.1,579.6,205.1,581.7z" />
	<path fill="#010101" d="M399.3,285.4c-0.1-0.9,0.3-2-1-2.4c0.4-1.2,0.8-2.3,1.2-3.5c0.8-0.2,1.4-0.3,2.1-0.5   c3.6-6.4,8.8-11.9,11.3-19.3c-1.1-0.2-2.4,0-3-0.5c-2.8-1.9-6-0.9-9.1-2.1c5-2.3,11.4,0.2,16.9-1.2c12.5-1.9,24.6-7.8,35.5-11   c-1.2,1.4-2.3,2.8-3.7,4.5c23,4.7,45.5,0.5,67.5-5.9c9.9-3.2,21.9,0.1,30.9-4.3c10.2,5.5,21.2-1.2,31.6-1.7   c6.3,1.1,12.2,2.5,18.6,1c-5.8-1.1-10-3.9-15.6-4.5c-2.6-0.4-6,0-7.8-2.4c0.3-0.4,0.4-0.6,0.5-0.8c9.2,1.4,19.4,2.9,27.1,8.2   c2.5-0.3,2.5-0.3,3.8-2c-5.6,0.3-9.3-3.3-14.3-5c2.4-1.9,6.5,1.3,9.1,1.9c2.1,1.9,7.1-0.4,7,3.4c-1.2,0.3-0.8,1.4-0.9,2.3   c0,0,0,0,0,0c-0.3,0.2-0.6,0.5-0.9,0.7l0,0c-2,0.8-4.2-0.3-6.1,0.8l0,0c-4.3,0.5-9.1-0.6-13,0.7l0,0c-0.7,0.3-1.5,0.6-2.2,0.9l0,0   c-0.9,0-1.8-0.3-2.3,0.7l0,0c-0.5,0.3-1,0.6-1.5,0.8c0,0,0,0,0,0c-3,0.4-6.5-0.8-9.1,0.7l0,0c-4-0.3-8.4,0.8-12.2-0.6   c-1.1-0.2-1.5,0.5-1.5,1.4c0,0,0,0,0,0c-0.8,0.3-1.5,0.5-2.3,0.8c0,0,0,0,0,0c-1.4,0-2.8-0.1-4.1,0.7c-2.1,0-4.5-0.4-6.6,0.8l0,0   c-2.8-0.1-5.6-0.2-8.3,0.8l0,0c-3.3,0.1-6.7,0.5-9.9,1.5l0,0c-4.4,0.4-9,1.3-13.4,1.4l-0.3,0.2c-1.6-0.1-3.2-0.2-4.6,0.7l0,0   c-1.6,0-3.1,0-4.6,0.8l0,0c-3,0-6,0-9,0l0,0c-0.8-0.6-1.6-0.6-2.4,0c-1.6,0-3.2-0.1-4.6,0.7l0,0c-6.3,0-12.6,1.1-18.9,0.1l0,0   c-3.4-1.1-7.1-0.5-10.6-0.8l0,0c-3.1-1.3-6.6-0.5-9.9-1.6l0,0c-0.3-0.7-0.9-0.8-1.5-0.7l0,0c-1.4-1.3-3,0.6-4.7,0.7l0,0   c-0.9,0.2-1.9,0.7-2.8,0.7l-0.2,0.1c-1.5-0.3-2.5,1-3.9,1.5l0,0c-1.5,0.6-3,1.1-4.6,1.5c0,0,0,0,0,0c-1.1,0.1-2.2-0.1-3.1,0.7l0,0   c-1.6,0-3.1-0.1-4.6,0.8l0,0c-1.1,0-2.2-0.1-3,0.8c0,0,0,0,0,0c-0.5,0.2-1,0.5-1.5,0.7c0,0,0,0,0,0c-0.5,0.3-1,0.5-1.5,0.8   c0,0,0,0,0,0c-0.6,0.1-1.2,0.1-1.9,0.2c-0.1,1-0.2,2-0.3,2.9c-0.2,0.1-0.3,0.3-0.1,0.5c-0.5,1.3-1,2.7-1.5,4c0,0,0,0,0,0   c-0.3,0.5-0.5,1-0.8,1.6c0,0,0,0,0,0c-0.3,0.5-0.6,1-0.8,1.5l0,0c-0.3,0.5-0.6,1-0.9,1.5l0-0.1c-0.5,0.8-1,1.6-1.5,2.3l0-0.1   c-0.3,0.3-0.5,0.6-0.8,0.8l0,0c-0.3,0.3-0.5,0.5-0.8,0.8l0,0c-0.3,0.2-0.6,0.5-0.9,0.7c0,0,0.2,0.1,0.2,0.1l-0.2-0.2   c-0.7,0.5-1.5,1.1-2.2,1.7l0,0c-0.3,0.2-0.6,0.5-0.9,0.7c0,0,0,0,0,0c-1.5,1.3-3.9,2.5-3.7,4.7l0,0c-0.3,0.8-0.6,1.5-0.9,2.3l0-0.1   C399.7,285.2,399.5,285.3,399.3,285.4z M572,241.4c-1.1,0-2.3-0.4-4.1,0.6c2.4-0.4,13,1.3,12.7-1.2c-1.2-0.4-2.4-0.7-3.6-1.1   C575.3,240.3,573.6,240.8,572,241.4z M550.6,244.3c0.5,0,0.9-0.1,1.4-0.1c0-0.1,0-0.2,0-0.4c-15.6-2.1-32.9,1.5-48,6.4   C519.5,248.3,535,245.7,550.6,244.3z" />
	<path fill="#020101" d="M595.7,232.1c-1.3-0.1-3.1-1.6-4,0c-1.2,0-2.5-0.1-3.7-0.1c-0.1-0.2-0.2-0.4-0.3-0.6   c0.9-0.1,1.9-0.2,2.8-0.3c-1.9-0.8-3.9-0.1-5.7-1.2c0.6-0.1,1.2-0.3,2.5-0.5c-15.5-6.6-17.8-1-33.1-0.5c-0.4,0.8-0.7,1.6-1,2.2   c-3.3,0.6-5.8-2.8-9-1.3c-20.6,0.5-40.6-9.1-61.4-10.4c-13.5-4.1-26,3.2-39.3,2.2c-13.1,0-26-6.1-38.8-0.2   c-0.3-0.3-0.5-0.5-0.8-0.8c1.8-2.7,4.7-3.2,7.5-3.9c1.1-0.1,2.4,0.6,3.1-0.7c4.7-1.8,9.5-0.6,14.2,0.2c0.9,2.3,3.7,1,5.5,1.2   c5.7,1.7,13.3,1.1,19.3,0.2c0.2,0.1,0.3,0.1,0.5-0.1c0.7,0.1,1.3,0.1,1.7-0.6l0,0c0.5-0.3,1-0.6,1.5-0.8l0,0   c0.8-0.3,1.6-0.5,2.4-0.8c0.2,0.1,0.4,0.1,0.6-0.1c0.8-0.2,1.6-0.4,2.5-0.6c0.2,0.2,0.4,0.1,0.6-0.1c6.8-1.1,13.8-0.9,20.5,0.7   c0.2,0.2,0.4,0.3,0.7,0.1c0.8,0.2,1.6,0.4,2.4,0.6c0.2,0.2,0.4,0.3,0.6,0.1c1,0.3,2.1,0.5,3.1,0.8l0,0c0.9,0.8,2,0.7,3.1,0.7   c0.2,0.2,0.4,0.3,0.6,0.1c1.2,0.8,2.6,0.7,4,0.7c0.2,0.2,0.4,0.3,0.6,0.1c1.2,0.8,2.6,0.7,4,0.7c0.2,0.2,0.4,0.3,0.6,0.1   c1.7,0.3,3.4,0.6,5.1,0.8c1,0.8,2.2,0.7,3.4,0.7c0.2,0.2,0.4,0.3,0.6,0.1c1.1,0.2,2.1,0.4,3.2,0.6c0.2,0.2,0.4,0.3,0.6,0.1   c1.8,0.4,3.7,0.8,5.5,1.4c0.2,0.2,0.4,0.3,0.7,0.1c0.8,0.2,1.6,0.4,2.4,0.7c0.2,0.2,0.4,0.3,0.6,0.1c2.5,1.2,5.8,0.7,8.4,1.5   c4.5,1.8,9.2,0.1,13.8,1.4c0.2,0.2,0.3,0.3,0.6,0.1c0.6,0.5,1.2,0.9,1.8,0l0,0c4.6-0.2,9.5-0.3,13.8-1.6c0.2,0.2,0.4,0.1,0.6-0.1   c1.4,0,2.7,0.1,3.9-0.7c0.2,0.2,0.5,0.1,0.6-0.1c1.2,0.1,2.3,0.2,3.3-0.6c2.6-0.2,5.6-0.5,8,0.6c0.2,0.2,0.4,0.3,0.6,0.2   c0.9,0.4,1.8,0.6,2.4,1.5l0,0c0.2,0.9,0.9,0.8,1.5,0.8c0.9,0.8,2,0.8,3.1,0.7c0.2,0.2,0.4,0.3,0.7,0.1c5.1,0.6,10.7,2.3,15.4,0l0,0   c2.2,0.1,4.4,0.1,6.6,0.2l-0.1-0.1c0,0.9,0,1.8,0,2.9c1.4,0.2,3.1-0.5,4.1,0.7c-0.3,0.3-0.6,0.6-0.9,0.9c-1.9,0-3.7,0-5.6,0   c0,0.1,0,0.3,0,0.4c0.4,0,0.9,0.1,1.3,0.1c0,0,0,0,0,0C605.2,236.4,599.1,228.8,595.7,232.1z M607.6,229.8c-1.7,0-3.3,0.1-5,0.1   c1.8,1.1,4,2.1,5.7,0.7c0-0.3,0.1-0.6,0.1-1C608.1,229.7,607.8,229.8,607.6,229.8z" />
	<path fill="#080606" d="M414.5,216.2c-0.8,1.4-2.1,0.6-3.1,0.7c0.1-0.4,0.1-0.7,0.2-1.1c-3.4-0.9-6.7-1.8-7.4-6   c-2.6-1.2-5.2-2.3-7.9-3.5c0.5-0.2,1-0.5,1.5-0.7c0.7,0.1,1.4,0.3,2.3,0.5c0.3-4.3-1.2-9.1,2.8-12l0,0c1.8,0.2,4.1-0.5,5.5,0.9   c-2,0.5-4.1,0.3-5.4,2.2l0,0c-0.7,0.3-0.9,0.8-0.8,1.5l0-0.1c-0.5,0.3-0.5,0.7,0,1l0-0.1c0.1,2.4-0.1,4.8,0.8,7.1   c-0.1,0.2-0.1,0.3,0.1,0.4c-0.1,0.6,0.3,0.7,0.7,0.7c0.1,0.2,0.3,0.3,0.6,0.2c0.3,0.2,0.6,0.4,1,0.5c0.1,0.2,0.3,0.3,0.5,0.2   c0.3,0.2,0.7,0.4,1,0.6c0.1,0.2,0.2,0.3,0.4,0.2c1.2,1.5,2.6-0.9,4.3-0.8c0.2,0.2,0.4,0.2,0.6-0.1c3.8-0.1,7.7-0.1,11.4,0.8   c0.1,0.2,0.3,0.2,0.5,0.1c0.6,0.2,1.2,0.4,1.8,0.6c0.2,0.2,0.4,0.3,0.6,0.2c1.1,0.4,2.1,0.9,3.2,1.3c0.1,0.2,0.3,0.3,0.6,0.2   c0.6,0.2,1.1,0.5,1.7,0.7l0,0c0.5,0.3,1,0.5,1.5,0.8l0,0c0.3,0.2,0.6,0.4,0.8,0.6c0.1,0.2,0.2,0.3,0.4,0.2c0.3,0.3,0.7,0.5,1,0.8   l0,0c0.3,0.3,0.5,0.5,0.8,0.8l0,0c-0.1,0.7,0.5,1,0.9,1.4l0,0c-0.6,1.4-2.2,0.1-3.3,0.2c-7.3-3.4-16.5-6.6-23.8-5.1   c1.6,1.2,2.5,2.2,3.1,4C413.7,216.1,414.1,216.1,414.5,216.2z" />
	<path fill="#111013" d="M355.9,526.3c0.1,2.1,0.2,4.2,0.3,6.6c12.1,0.8,24.4-0.2,36.5,0.9c-9.8,0.5-19.6-0.3-29.4,0.4   c14.4,1.4,28.8-0.2,43.2,0.9c-18.2,0.3-37,1.4-55.2-0.5c0.1-0.2,0.2-0.4,0.3-0.6c1,0,2,0,2.8-1.3c0.3-11.9-1.1-23.4-0.7-35.3   c0.7-0.2,0.7-0.5,0-0.8c0.7-4.3,0.7-8.5,0.8-12.9c0.7-0.3,0.7-0.9,0.7-1.5c0.2,0,0.5,0,0.7,0C355,496.5,354.5,512.1,355.9,526.3z" />
	<path fill="#09080A" d="M351.3,534.6c18.1,1.9,36.9,0.8,55.2,0.5c-14.4-1.2-28.8,0.4-43.2-0.9c15-0.5,30.1-0.2,45.1-0.2   c2.5,1.9,6.5,0,9.7,1c0.1,0.7,0.1,1.3,0.2,1.9c-23.1,0.8-46.1-0.7-69.2-0.7c-0.2-0.4-0.5-0.9-0.7-1.3   C349.3,534.7,350.3,534.6,351.3,534.6z" />
	<path fill="#181413" d="M613.5,232.2c0.3-0.3,0.6-0.6,0.9-0.9c0.5,0.1,0.9,0.2,1.4,0.2l-0.1-0.1c1.3,2.1-0.5,3.4-1.4,5.2   c0,0,0,0,0,0c-0.8,1.2-2,1.8-3.3,2.2l-0.3-0.1l-0.2,0.2c-1.3,0-2.5,0.1-3.8,0.1c-0.1-0.7,0-1.4,0.9-1.6c2.1,0.7,3.6-0.2,5.1-1.9   c-2.3-1-4.4-1.3-6.7-1.3c0-0.2-0.1-0.4-0.2-0.6c1.2,0.1,2.3-0.2,3.2-0.9c1.6-0.1,3.1,1.5,5,0.5   C613.9,232.9,613.7,232.6,613.5,232.2z" />
	<path fill="#09080A" d="M420.5,534.7c2.3,2,4.5,4.1,6.8,6.1c0,0.7,0.1,1.5,0.1,2.2c-0.3,0-0.5,0-0.8,0c-2.4-1.9-5.1-3.5-6.7-6.3   C419.9,536,419.5,535.2,420.5,534.7z" />
	<path fill="#161719" d="M355.2,482.2c0,0.6,0,1.2-0.7,1.5c-0.4-8.9,0.8-17.1,0.8-26C357.1,465.8,354.8,474,355.2,482.2z" />
	<path fill="#111013" d="M420.5,534.7c-0.9,0.5-0.6,1.3-0.6,2.1c-0.5,0-1,0-1.6,0.1c-0.1-0.6-0.1-1.2-0.2-1.9   c-3.1-0.9-7.1,0.9-9.7-1C412.3,534.4,417,532.9,420.5,534.7z" />
	<path fill="#161719" d="M355.3,500.8c0.4-5.4-1-11.3,0.6-16.3C355.6,489.9,356.2,495.5,355.3,500.8z" />
	<path fill="#121314" d="M355.9,526.3c-1.5-3.3-0.3-7.4-0.6-11C355.6,518.9,356.1,522.6,355.9,526.3z" />
	<path fill="#121314" d="M355.2,482.2c0.3-3.3-0.8-6.9,0.7-9.9c0,3.3,0,6.6,0,9.9C355.7,482.2,355.4,482.2,355.2,482.2z" />
	<path fill="#FBDFD3" d="M396.3,206.2c2.6,1.2,5.3,2.4,7.9,3.5c0.8,4.2,4.1,5.1,7.4,6c-0.1,0.4-0.1,0.8-0.2,1.1   c-2.8,0.6-5.7,1.2-7.5,3.9c-1.3,0.3-2.5,1-3.8,0.8c-2.3-4-7.9,0.7-11.2,1.4c-4.7,2.4-10,2.9-14.9,4.4c-0.9,1.6-0.5,3.1-0.4,4.8   c1.1,0.6,2.2,1.1,2.7,1.4c13.6-1,13.3-0.8,23-10.5c0.6,0,1.2,0.3,1.5-0.5c8.1-1.6,16.8-5.6,25.4-2.9c13.6,4,27.3,2.2,40.7-1.1   c29.4,0,57.6,11.8,86.3,12.8c0.3-0.6,0.6-1.4,1-2.2c8.4,0.9,17.3-5.3,25.2-2.1c0,0.4,0,0.9,0.1,1.3c-1.7,1,0.5,2,1.4,2.5   c-0.2,0.2-0.5,0.5-0.7,0.7c-1.7-0.2-3.4-0.4-5.2-0.5c-0.1,0.2-0.3,0.4-0.5,0.8c1.8,2.4,5.2,2,7.8,2.4c5.7,0.6,9.9,3.3,15.6,4.5   c-6.1,1.4-11.8-0.7-17.8-2.1c-8.4-2.2-16.6,2.9-25,2.9c-4.4,0.5-6.6-4.4-10.8-4c1,1.8,2.1,3.2,1.7,5.1l0,0   c-29.7-5.1-58.6,5.2-88.4,1.3c-0.6-0.7-1.1-1.3-1.7-2c-5.9-0.2-12.4,2-16.9,6c-66.8,14.4-53.7-31-86.9,30.6   c4.3-4,9.1-6.6,13.8-10.1c6.8,2.3,11.4,7.2,16,12.4c-7.7,6.4-22.7,9.6-31.5,3.4c0-0.4-0.1-0.9-0.2-1.6c-5,1.4-7-13.3-8.1-22.4   c-1.1-5.5,2.5-9.5,4.1-14.5c1.3-21.4,4.1-19,12.8-35.8c10.2-3.8,23.8-8.4,33.8-2C394,205.1,395.1,206.3,396.3,206.2z M349.2,239.7   c2.2,2.2,8.6,9.2,11.2,6.2c-3.5-2.1-7.6-3.8-10.7-6.7C349.3,239,349.1,239.1,349.2,239.7z M416.6,233.6   c-6.1,7.4-15.3,0.5-11.7,11.2c5.1,1.4,18.4-4.6,18.2-10.2c-1-0.2-2.1-0.3-3.1-0.5C420,231.3,417.9,231.9,416.6,233.6z M463.5,226.3   c-4.7,0.9-8.5,2.5-12,5.2c-1.1,0-2.3,0-3.8,0c1.6,2.3,3.9,2.1,5.8,2.8c4-0.6,6.1-3.8,9.4-5.4c1-0.5,2.6-0.8,2.9-1.9   C465,226.7,464.2,226.5,463.5,226.3z M374.7,208.1c1,2,4.3,2.2,6.4,0.8C378.9,208.4,377.2,207.4,374.7,208.1z M468,235.6   c-1.6-0.2-3.3-1.8-5,0.2C464.8,237.2,466.4,236,468,235.6z M513.6,227c2.9,1.6,3,1.6,5.7,0.9C517.5,226.6,515.7,226.5,513.6,227z    M485.2,234.7c1.4,1.7,2.8,1.4,4.5,0.9C488.4,234.2,487,234.2,485.2,234.7z M476.4,235.6c1.3,0.3,2.7,0.9,4.5-0.3   C479,235.2,477.7,234.1,476.4,235.6z M471.2,225.6c-2.3-0.7-2.3-0.7-2.6,1.3C469.8,227,470.7,226.7,471.2,225.6z M496.1,235.3   c-2.7-2.3-1.9-1.9-3.7-0.3C493.7,235.1,494.5,235.1,496.1,235.3z M477.9,226.6c-1-1.3-2-1.1-3.1,0   C475.9,227.2,476.8,227,477.9,226.6z M425,229.2c0.6-0.4,1.1-0.8,1.9-1.2C425.1,227.6,425.1,227.6,425,229.2z M503.9,227.1   c-0.6-0.1-1.3-0.1-2.1-0.2C502.4,228.1,503,228.5,503.9,227.1z M481.6,226.7c0.8,0,1.4,0,2.1,0   C482.9,225.4,482.9,225.4,481.6,226.7z M385.9,210.4c1.1,0.8,1.5-0.1,0.3-0.6C386.1,210,386,210.1,385.9,210.4z M508.2,226.9   c0.6,0.5,1.2,1.1,1.7,0.2C509.3,226.6,508.8,226.8,508.2,226.9z M422.1,229.8c-0.5,0.3-1,0.5-0.5,1.2c0.3-0.2,0.7-0.4,1-0.7   C422.4,230.2,422.3,230,422.1,229.8z M486.8,227.3c0.4,0.4,0.8,0.4,1.2,0.1C487.5,226.9,487.2,226.7,486.8,227.3z M391.7,212.8   c-0.4-0.4-0.7-0.4-1.1-0.1C390.9,213.1,391.2,213.3,391.7,212.8z" />
	<path fill="#4B65C5" d="M454,414.6c0,0.4-0.1,0.7-0.2,1.3c-0.8,0.1-1.7,0.2-2.6,0.3c-4,8.9-9.2,17.7-12.7,27   c-9.8,0.1-18.2-7.4-28-7.9c-15.3-0.4-28.2-7.9-43.8-5.8c-14.6,0.6-30-1.1-44.1-4.4c-21-17.6-22.3-24.5-24.1-51.5   c-0.5-0.4-1-0.8-1.5-1.2c0.4-1.9,0.6-3.9,2.1-5.6c2.7-0.3,5.3-0.8,8.2-0.3c6.3,1.5,12.2-2.1,18.3-2c0.5,2.2,0.2,4.8,2.4,6.1   c-1.6,1-7.1-0.2-5.7,2.8c13.9,1.4,26.2-7.4,39.8-7.3c0,0.2,0,0.4,0,0.6c-10,0.7-18.3,6.9-26.6,11.4c-2.4-1.1-5.2,0.7-7,2.3   c0.5,0.6,0.9,1.1,1.3,1.6c1.7-0.8,3.3-1.6,4.9-2.3c-1.4,3.3-3.7,9.7,2.2,9.1c-0.3-1,0.9-1.4,0.1-2.2c-0.7,0.2-1.4,0.4-2,0.6   c-1-1-1.4-1.9-0.4-3c1.9-0.1,2.8,2,4.7,2.2c7.7-3,15.2-6.8,23.4-8.3c-1,1.7-3.9,3.1-3.5,5.3c-4.5,1.9-9,3.8-13.6,5.8   c2.4,1.7,9,4.4,13.6,5.7c-1.3,1.5-2.7,2.9-4,4.4c-5.1,1.4-11.3-0.2-15.8-2.8c1.2-0.2,2.3-0.6,2.8-2c-1.3,0-2.6,0.1-3.7,1.1   c-7.5,0.4-18.3,2.5-20.6-7.1c-3.8,5.8,6.1,9.2,10.6,9.9c7.3-3.6,15,4.4,22.8,3.5c0.6,1.5-1.7,2-1.1,3.9c1.9-1.8,2.9-4.2,5.7-3.9   c5.5,0.7,11.6-0.2,16.7,2c-5.3,2.4-10.5,5-15.3,8.3c9.1-1.5,18.6-12.9,27.8-5.8c10.4-0.7,21.1,4.1,31.7,5   c-4.3,3.8-10.7,3.7-15.6,6.7c1.3,0.2,2.6,0.9,3.5-0.3c5.4-1.1,10.3-3.2,15-6.2c4.6-0.1,15.5,5.6,18.2,2.6   c-6.4-3.4-14.3-3.6-21.3-5.5c2.2-0.3,4.6,0.4,6.7-0.8c4.3,0.2,8.1-1.8,12.4-1.7c-1.4,2-3.6,2.7-5,4.5c5,1.4,10.3,1.2,14.9,3.4   c1.2,1.1,1.2,1.1,2.2,0C449.9,414.3,452,415.4,454,414.6z M311.4,370.5c3.3,12.7-2,9.2,11.4,13.2c-0.3,0.6-0.5,1.2-1,2.2   c2-0.7,3.1-1.5,2.8-3.4c-2.7-2.9-6.4-1.4-9.6-3.5c-0.1-3.6-0.6-13.9-6.4-10.6C309.7,369.2,310.5,369.7,311.4,370.5z M421.6,428.2   c7.1-3.4,17.3-8.1,22.2-13.7C436.5,419,427.1,421.8,421.6,428.2z M317.2,371.9c1.7,0.1,6.4-1,4.8-2.9   C320.4,369.7,318.7,370.2,317.2,371.9z" />
	<path fill="#CCD2E9" d="M400.8,257.2c3,1.2,6.3,0.2,9.1,2.1c0.6,0.5,1.9,0.3,3,0.5c-2.5,7.4-7.7,12.9-11.3,19.3   c-0.7,0.2-1.3,0.3-2.1,0.5c-4.6,10.1-5.9,21.3-9.8,31.6c-8.9,13.9-14.2,28.1-15.7,44.1c-5.9-2.1-11.6,2.4-17.7,1.5   c-0.1-0.4-0.2-0.7-0.4-1.2c-10.1,3.6-19.9,5.6-30.4,3.5c-0.3-4.7,1.3-9.2,0.8-13.9c1.5-5.1,1.6-10.2,0.9-15.4   c4.4,4,5.4,12.2,12.3,13.3c-2.3-18.5-15.6-25.2-12.1-49.5c1.3,5,2.2,6.6,4.8,8.3c0.9-2.2,1.7-4.4,2.5-6.6c1.2-0.9,2.4-1.7,4.2-2.9   c-2.4-0.6-3,0.6-4.8,1.6c1-11.5-7.4-31.2,2.1-39.4c3.5,22.1,15.2,46.1,40.4,29.3c0.6,0.5,1.2,1,1.9,1.6c1.5-1.9,3-3.2,4.9-4.7   c1.5,0.3,1.5,2.2,3,3c1.5,1,3.4-1.8,5.2-0.2c0.3,0.9,0.2,1.7-0.1,2.5c-0.8,0.4-1.5,0.8-1,1.9c3.1-1.6,3.3-5.5,6.7-7   c-7.7-14-7.3-8.9-5.9-25.8C394.5,255.8,397.6,256.5,400.8,257.2z M363.6,308.9c-4.1-2.8-14-25.5-18-13.7c-0.8-0.5-1.7-1.3-2.5,0.2   c2.4,4.3,6.6,8.2,11.4,9.8l-0.1-0.1c0.3,3.8,5.4,5.9,8.4,4.7c0.5,0.8,1.2,0.8,2.2,0.2C364.4,309.6,364,309.3,363.6,308.9z    M345.3,317.3c5.9,6.3,6.8,3.4,13.6,5.4c1.2,0.1,2.4,0.4,3.6-0.4c-0.9-1.7-2.2-1.1-3.4-1.1c-6.4-0.9-7.3-9.7-13.2-10.7   c-0.8,0.8-1.5,1.6-2.3,2.4c-0.9-0.2-1.9-0.8-2.8,0.6C341.7,315.3,343.6,316.3,345.3,317.3z M376.4,324.7c-1,0.9-2,2-1.9,4.1   c2.4-1.9,10.9-14.3,7-15.5C379.7,317.2,378,321,376.4,324.7z M370.7,341.1c4.1,2.9,6.1-9,4.1-11   C373.3,331.7,371.9,335.6,370.7,341.1z M351.3,329.6c-1.1,0.5-2.3-1.8-3.3,0.3C349.5,331.5,349.6,331.5,351.3,329.6z M343,288.4   c-2.5,1.1-2.5,1.2-1.8,3.1C342,290.5,343.3,290,343,288.4z M360.1,296.4c1.5,0.2,2.4,0.3,3.5,0.5   C362.1,294.7,362.1,294.7,360.1,296.4z M368.2,309.4c-0.2-1-0.5-0.7-1.2-0.4C367.2,309.8,367.5,309.9,368.2,309.4z M369.8,338.2   c0.1,0,0.3,0,0.4,0c0-0.5,0-1.1,0-2C369.5,337.2,369.6,337.3,369.8,338.2z" />
	<path fill="#5876E8" d="M445.7,413.8c-4.7-2.2-9.9-2-14.9-3.4c1.3-1.8,3.6-2.5,5-4.5c-8.9,1-22.5,4.8-30.1,0.5   c9.7-4,23.6-6.9,31.4-13.2c-8.7,2.8-16.8,5.8-25.5,8.4c-0.4-0.1-0.8-0.2-1.4-0.4c5.8-3.9,12.8-6.2,17.2-11.4   c-10.3-0.7-25.1,9.3-34.2,14.7c-0.7,0-1.4,0-2.1,0c0-3,12.3-5.6,11.3-8.4c-7.2,3-15.1,10.6-22.8,5.8c13-8.2,27.8-12.3,40.4-21.2   c-18.5,1.2-34.7,13.1-52.3,17.8c-2.6-1-4.6-1.4-6.6-3.2c2.3-3,5.7-5.1,7.9-8.8c-4.2,1.5-6.6,5.5-10,8.3c-4.6-1.3-11.2-4.1-13.6-5.7   c11-4.1,20.2-9.8,30.9-14.3c-3.5-0.7-7.4,2.3-11.3,1.7c-1.2-0.2-1.7,0.8-2.4,1.5c-1.7,0.4-3.4,0.6-5,1.1c-6.3,2-12.3,4.6-18.3,7.1   c-1.8-0.1-2.8-2.2-4.7-2.2c3.7-11,18.6-14.1,28.8-17c-0.7-0.3-1-0.4-1.4-0.5c0-0.2,0-0.4,0-0.6c2.5-0.7,7.3,1.1,8.6-1.3   c-7.9-0.7-19.5-6.4-24.7,2.1c-5.3,2.3-11.5,3.4-18,3.7c-2.2-1.3-1.9-3.9-2.4-6.1c1-0.2,2-0.4,3.1-0.6c0.4,0.6,0.7,1.1,1.2,1.9   c0.2-0.9,0.4-1.6,0.6-2.4c13.2-1.1,27-4.6,40.6-5.9c0.9,2.9,1.1,6.2,4.6,7.3c-0.4,0.5-1.3,1.3-1.7,1.5c30,2.4,64-0.5,92.6,11.6   c-1.7,3.2-4.1,6-3.4,9.8c0.3,1.6-0.1,3-0.9,4.4c-5.2,6.7-5.4,14.8-8.2,22.5C451.2,415.6,448.6,413.3,445.7,413.8z M372,388.1   c1.6-0.3,3-0.9,3.9-2.3c3.2-1.1,6.7-3,9-5.4c4.2-0.2,7.5-3.8,11.3-4.9c-0.9-0.6-1.2-0.2-1.4,0.3c-8.2,2.6-16.1,7.1-22.9,12.1   c-0.9,0-1.6,0.3-2,1.3C371.1,389.6,371.6,388.8,372,388.1z M347.7,378.2c3.5-4.3,24.5-4.1,22.1-9.9c-7,2.7-21.1,4.2-24.3,11.1   C346.7,379.5,347.2,378.9,347.7,378.2z" />
	<path fill="#FBDFD3" d="M480,401.6c1.8,4.7,1.7,9.6,1.4,14.5c-0.6,0.4-1,0.8-1.6,1.2c0.4,0.6,0.7,1.3,1.3,2.2   c-0.1,38.4-17,74.5-13,113c-2.3,6.9-9.8,5-15.5,4.4c-2.4-9.5,0.7-19.9-1.5-29.6c-1-8.9-4.2-17.5-5.3-26.3c0-14.5-0.4-29.6,3.9-43.6   c2-7.9,8.4-14.3,7.5-22.7c0.5-0.5,1-1.1,1.5-1.6c1.5,0.1,1.4-3.3,1.4-4.6c-0.3-3.9,0.8-7.5,3-10.7c3.3-5.7,3.3-12.5,5.7-18.8   c4.2,1.7,7.9,3.9,11.8,6.2c0,0.9,0,1.9,0.1,2.8c-1.6,1.5-0.4,4.3-0.7,6.3c-1.3-2.5-3.3-4.1-5.5-5.8c-0.8,0.5-1.4,1-2.3,1.5   C473.5,392.8,476.3,401.8,480,401.6z M459.3,451.8c-0.5,0.1-0.3,1.3-0.2,1.4c0.9,0.4,1-0.8,0.9-1.5c0.3-1.5,1.3-2.9,0.5-4.9   C458.5,447.8,459.6,450,459.3,451.8z M461.5,438.1c0.1-3.9,2.5-7.8,0.5-11.4c-2.5,4.7-1.8,11-1.8,16.4   C460.9,441.4,461.5,439.8,461.5,438.1z M454.9,484.1c0.2,0,0.3-0.1,0.5-0.1c0.1-2.1,0.3-2.8,0.7-5.3c-1.7,1.4-1.6,2.7-2,3.8   C454.4,483,454.7,483.5,454.9,484.1z M456.1,474.6c1.2-0.7,1.2-1.5,0.6-2.7C455.6,472.7,455.3,473.4,456.1,474.6z M457.4,467.3   c0.4-1,1.3-2,0.5-3.7C456.8,464.9,456.7,466,457.4,467.3z M454.5,486c-0.8,0.9-1.3,1.8-0.8,3.2C455.2,488.3,454.9,487.2,454.5,486z    M455.7,460.1c1.1,0.5,1.4,0.6,1.7,0.7C458.1,459.3,457,459.4,455.7,460.1z M475.7,419.9c-0.2,0.8-0.4,1.7,1.1,1.2   C476.3,420.6,476,420.3,475.7,419.9z M460,422.9c-1.2,0.8-0.7,1.4,0.1,2C460.1,424.3,460,423.7,460,422.9z" />
	<path fill="#FBDFD3" d="M484.4,403.2c-0.3-1.4-0.6-2.9-0.9-4.1c0.6-0.8,1.1-1.4,1.5-1.9c-0.2-0.8-0.5-1.5-0.7-2.3   c0.5-1.1,1.4-0.9,2.3-0.9c9.4-1.6,2.9-5.6-2.8-5.7c0.8-7.8-6.9-8.1-11.8-12.2c7.2-1,13.6,2.5,19.4,6.5c4.3-0.8,7.8,2.1,11.8,3.1   c9.6,2.8,19.6,3.9,28.9,7.4c20.5,10.7,42.2,21.1,65.7,23.5c2.8,4.3-2.8,9.4-3.9,13.8c-11.4-1.8-21.7-9.7-34.1-8.3   c1.5,2.5,4.4,2,6.5,3.7c-26.5-2.8-58.4,4.5-81.1-12C484.7,410.5,486.4,405.9,484.4,403.2z M513.8,407.3c-7.5-1.1-14.4-3-21.1-0.7   c0,0.4,0.1,0.9,0.2,1.3C500.2,407.7,506.3,408.3,513.8,407.3z M524.7,410.6c-2-1.4-6.9-4.8-8-1.5C518.8,410.8,520,411,524.7,410.6z    M533.1,412.9c-1.9-2.1-1.9-2.1-3.6-1.3C530.3,412.7,531.4,412.5,533.1,412.9z M539.1,413.5c-1.2-0.4-2.2-0.7-3.1-1   c-0.3,0.5-0.5,0.7-0.9,1.3C536.5,413.7,537.4,415.1,539.1,413.5z M491.1,385.7c-1.4-1.4-3.2,0.1-1.6,1.3   C489.9,386.7,490.3,386.3,491.1,385.7z M541.2,413.9c1.2,0.8,1.7,1,2.5,0C542.8,413.9,542.2,413.9,541.2,413.9z" />
	<path fill="#B7BDD5" d="M336.9,258.7c-1-1.2-0.7-2.7-0.8-4.2c-5.1,4-5.3,12.2-3.7,18.1c0.9,7.3,0.6,15.9,2.3,22.6   c-0.8,2.2-1.7,4.4-2.5,6.6c-2.6-1.7-3.5-3.2-4.8-8.3c-3.5,24.3,9.9,30.9,12.1,49.5c-6.9-1.2-7.9-9.3-12.3-13.3   c0.7,5.2,0.6,10.3-0.9,15.4c0.5,4.7-1.1,9.2-0.8,13.9c-7.6,0-15.1-0.8-22.6-2.4c-3.9-12.4,3.5-26.7,3.7-39.6   c2.5-34.5,5.4-75,36.2-96.4c0.4,0.1,0.7,0.1,1.1,0.2C337.8,232.4,335.7,245.7,336.9,258.7z M320.3,255c0.3,2.3-1.1,4.1,1.3,5.8   c-1.5-3.5,5.7-13.9,0.4-13.1c-0.1,1.5-1,3.1-1.1,4.9C320.2,253.2,320.2,254.1,320.3,255z M323.1,268.7c-1.3,1.3-1.3,1.3,0.7,4.9   C325.1,271.2,325,270.6,323.1,268.7z M327.2,278.3c0.5-1.4,0.5-1.4-1.4-2.4C325.3,277.4,325.3,277.4,327.2,278.3z M334.6,336.3   c2.6-0.4,1.5-2,0.2-3C334.7,334.5,334.7,335.3,334.6,336.3z" />
	<path fill="#92A3C5" d="M302.8,582.6c-6-0.7-12.7,0.4-18.3-1.4c-1-22.9,1.5-46.6,3.1-69.4c3.5-14.3-3.8-46.9,18.2-45.4   c0,1.3-0.1,2.5-0.1,3.8c-1.3,2.1-0.3,4.7-0.6,7.6c0.6-0.9,0.9-1.3,1.4-2.1c0.6,12.6-1.6,24.6-2.3,37.1c-2.9,11.6,1.9,26.1-1.9,37.6   c0.2,8.1,1.1,16-0.1,23.9c-0.4,1.6-0.2,2.7,1.4,3.9c0.6-4.7-1.2-9.8,0.8-13.8c0.4,5.5,1.1,10.9,0.8,16.4   C304.2,581.4,303.5,582,302.8,582.6z M302.9,508.2c1.1-1.2,0.6-2.6,0.6-3.9c-1.5-5.3-0.6-11.4,0.5-16.8c0-2.1,3.5-7.6,0.7-8.1   c-4,15-3.1,31-3.1,46.4C302.5,519.9,302.7,514.1,302.9,508.2z M302.8,535.2c-0.3,0-0.5,0-0.8,0c0.9,4.4-2.8,9,0.8,12.6   C302.8,543,302.8,539.5,302.8,535.2z" />
	<path fill="#35A65F" d="M354.4,433.6c7.3-1.2,15.3-1.4,22.7-1.2c0,1,0,2,0,3.1c-11,9.7-25.2,14.5-37.8,21.8   c-24.6-3.3-50.4,1.7-75.1-2.6c-0.4-8.7-2.7-17.1,8.2-19.5c14.5,2,31.1-0.2,45.6,2.8c-5.9,0.1-11.8,0.2-18.2,0.2   c12.4,0.8,25.5,2.9,38.1,1.5c-0.2,2.7,0.6,5.2,1.2,7.7c0.2-2.6,0.5-5.1,0.1-7.6c-0.5,0-0.9-0.1-1.3-0.1c0.1-0.2,0.2-0.6,0.3-0.6   c1.3,0,1.7-1.2,2.6-1.8C342.3,440,352.3,434.9,354.4,433.6z M279.9,439c0.1,2.1,0.1,4.2,0.2,6.3c0.9-2,1.6-4.1,1.5-6.3   c2.6-0.1,5.2-0.1,7.9-0.2c-2.6-1.4-19.3-2-19.9,0.5c1.2,0.2,2.3,0.4,3.4,0.7c0.1,1.7,0.2,3.1,0.3,4.6c0.1,0,0.2,0,0.3,0   c0.5-1.8,0.9-3.5,1.5-5.6C276.6,439,278.3,439,279.9,439z M319.2,441.7c-1.1,5.3-0.7,9.2,0.8,11.7   C320.5,445.6,320.4,444,319.2,441.7z M316.3,440.5c-0.8,2.7-0.6,4.5-0.4,6.8C317.8,445.3,317.6,443.5,316.3,440.5z M339.9,450   c-2.6,0.3-0.7,3-0.3,4.5c0.1,0,0.2-0.1,0.3-0.1C339.9,452.9,339.9,451.4,339.9,450z" />
	<path fill="#E4E4EB" d="M480.7,544.6c-0.2,1.1-0.4,2.1-0.7,3.3c2.7-0.8,3.4-1.2,7-4.5c0.6,0.2,0.8,0.4,1.2,1c-1,1.7-3.1,2.8-3,5.5   c2.4-0.4,4.2-1.3,5.8-3c0.6,0.5,1.2,0.9,1.8,1.3c-0.5,1.6-1,2.9-1.5,4.6c2.1-0.2,3-1.8,4.9-2.2c0.6,0.3,1.3,0.8,1.9,1.2   c0.2,1.3-1,2.6,0.4,3.6c0.4-0.1,0.7-0.2,1.1-0.3c1,0.4,1.9,0.9,3,0.8c0.6-0.5,1.1-1,1.7-1.5c4.4,3.9,16.9,0.9,15,9.1   c-7.5,4.8-16.5,4.2-25,5.2c-10.7,2.8-23,3.8-31.4-5c-9.3,0.3-18.5,7.7-27.7,2.3c-3.6-13,6.3-17.6,2.3-35.5c4.5-2,3.1,8.3,4.4,11.2   c5.9,9.3,14.8,6.4,22.7,0.9c4-2.8,5.2-9.3,9.2-11.3c2.2,1.8,4.2,3.4,6.1,4.9c-1.9,3.5-5.6,5.4-5.9,9.7c2.1-0.8,3.9-1.5,5.7-2.3   C480,543.9,480.3,544.3,480.7,544.6z" />
	<path fill="#E4E4EB" d="M592.4,440.4c10.9-2.1,10.9-6,14.1-15.4c3.7-4-2.7-9.6-5.7-12.2c0.3-0.4,0.5-0.9,0.8-1.3   c2.7-0.4,5.5-0.7,8.3-1.1c2.5,2.3,5.3,7.2,9.2,5.2c0-2.5-1.8-3.9-3.2-5.3c1.9-3.3,5.8,5.4,8.7,0.7c-0.4-1-0.8-2-1.3-3   c2.5-2.1,7,3.4,7.4-2.3c7.8-2.8,16.1-5.6,23.1-10.5c1.4,0.7,2.8,1.3,4.2,1.9c0.2,0.4,0.5,0.9,0.8,1.6   c-4.4,13.5-13.4,23.7-24.3,32.6c-11.8-7.2-9.2,29.7-29.7,25.7c-4.7-5.5-7.4-12.7-14.9-15.7C590.6,441,591.9,441.6,592.4,440.4z" />
	<path fill="#FBDFD3" d="M412.3,134.9c1.9-0.4,3.6,0.6,5,1.7c-0.5,5.1,4.4,10.5,1.9,15c-2,2-1.6,4.1-0.5,6.2   c3.3,6.8,8.7,14.2-3.3,10.7c-1,3.5,1.8,3.1,4,3.2c0.2,1.1,0.3,2.3,0.4,3.4c-1.5,2.3-6,1-6.4,3.8c1.3,1.6,2.6-0.3,4-0.7   c0.5,0.7,0.9,1.3,1.3,1.8c-4.1,5.5,0.5,7.7-2.5,12.2c-11.2,4.6-21.5-3.7-30-10.1c0,0,0,0,0,0c-1-0.9-2.6-2.2-3.4-2.8   c-0.3-2.6-0.5-3.8-0.4-6.1c-0.8-0.4-1.6-0.7-2.3-1.1l0,0.1c-0.6-1.1-0.7-1.1-1.4-0.1l0,0c-4.6,0.9-6.6-3.3-9.7-5.7   c-0.8-0.7-1.8-1.4-1.7-2.7c0.2,0,0.3-0.1,0.3-0.3c1.2,0.7,1.2,2.1,3.3,2.6c-0.6-1.4-1-2.4-1.5-3.4c0.5-0.4,0.9-0.7,1.4-1.1   c0.9,1.7,1.1,3.2,1.1,4.9c1.7,1.1,3.1,1.6,5,1.7c2.7,0.4,3.4-3.5,0.5-3.7c-1.1-0.1-1.4-0.8-1.8-1.8c0.8-2.8,2.1-0.4,2.7-2.1   c-0.9-1-1.8-2-2.7-3c0.2-0.8,0.9-0.6,1.5-0.7c3.7,1.8,2.9,6.1,5.7,8.9c0.4-0.8,0.7-1.5,1.1-2.4c1.1,0.5,2.1,0.9,3.6,1.5   c-7.4-12.1,11.1-18.3,15.8-27c2-0.1,3.9,1.3,5.6-0.1c1.7-0.6,1.7-0.6,1.7-1.9C411.3,135.6,411.8,135.3,412.3,134.9z M416.5,148.8   c-5.7-1.3-12.3-2.7-15.9,2.3c2.5,0.4,2.6,0.5,3.5-0.1c3.6-2.4,7.2,0.5,11.1,0.2C415.6,150.6,415.9,150,416.5,148.8z M405.6,156   c3.6-0.2,5.2,1.7,8.1-0.7c-1.4-0.7,0.7-1.9-0.7-2.9C410.5,153.1,407.7,153.1,405.6,156z M388.6,167.6c1,0.8,1.6,1.9,2.9,1.1   C390.2,166.8,390.2,166.8,388.6,167.6z M394.6,171.3c-0.7-1.8-1.5-2.4-2.2-1.7C392.5,170.8,393.2,171.1,394.6,171.3z" />
	<path fill="#798BB3" d="M349.1,536.1c21.5-0.1,42.1,1.8,63.7,1.9c0,3.1,0.5,5.9-0.4,8.9c-35.1,0-70,0.2-105-0.3   c-1.6-3.6,0.2-6.8-0.3-10.7C320.8,535.8,335.1,536.5,349.1,536.1z" />
	<path fill="#798BB3" d="M351.3,534.6c-4.5,0.1-8.9,0.8-13.2-1.3c-2-24.4,6.8-50.7-1-74.2c3.9,0.4,7.1-1.4,10.5-2.7   c7.1,13.3,2.4,29,2.9,43.3c-2.9,11.1,0.4,23-2.5,34.1c1.3,0.1,2.4,0.1,3.5,0.2C351.5,534.2,351.4,534.4,351.3,534.6z" />
	<path fill="#EECABA" d="M484.4,403.2c2,2.7,0.3,7.3,0.8,10.7c22.7,16.5,54.6,9.2,81.1,12c-2.1-1.7-4.9-1.1-6.5-3.7   c11.1-0.5,21.2,3.8,31,8.2c-2,0-4,0-6,0c-1.4-0.7-1.4-0.7-1.8,0.7c3.4,0.3,6.7,1.8,10.2,0.9c0,0-0.1-0.1-0.1-0.1   c-0.8,1.9-1.7,3.9-2.5,5.7c-1.8,1.2-2.6-0.8-4-1.3c-10-3.5-20.7-1.2-30.9-4.2c-19.8,0.1-42.6,4.7-60.1-6.7   C478.1,419,486.4,419,484.4,403.2z M569.3,430.7c0.8,0.8,1.9,0.8,2.8,0.4c2.2-0.9,4.1-0.1,6.4,0c-0.9-3.2-5-0.9-7.5-1.2   c-0.9-0.4-1.8-0.6-2.9,0.3C568.7,430.4,569,430.5,569.3,430.7z M563.7,429.2c0.9,1.9,2,1.3,3-0.3   C565.3,429,564.5,429.1,563.7,429.2z" />
	<path fill="#EECABA" d="M457,416.7c0.5,7.4-5.9,13.4-7.4,20.6c-4.3,14.1-3.9,29.1-3.9,43.6c1,8.8,4.3,17.4,5.3,26.3   c2.2,9.8-0.9,20.1,1.5,29.6c-1.9-0.2-3.2-1.9-5.3-1.1c-0.8,0.3-1.9-0.4-3-0.7C446.2,477.8,423.4,473.3,457,416.7z M447.2,526.6   c-1.2,1.4-0.5,6.5,1,7.4C449.4,531.8,448,529.4,447.2,526.6z M446.8,514.2c1.8-1.5,1.8-2.1,0-5.2   C445.1,510.8,446.1,512.5,446.8,514.2z M446.7,525.3c1.7-1.9,1.7-2.6,0-4C446.1,522.5,446.1,523.7,446.7,525.3z M446.9,515.6   c-1.2,1.7-1.2,1.7,0.1,3C447.6,517.6,447.9,516.6,446.9,515.6z" />
	<path fill="#798BB2" d="M305.8,466.3c-22.1-1.4-14.7,31.2-18.2,45.4c-1.6,22.9-4.1,46.5-3.1,69.4c-7.6-11.5-0.1-44.3-0.6-59.4   c0.8-17.5,0-49.2,11.8-62.3c5.1,0,10.2,0,15.4,0c-0.7,0.9-1.3,1.8-2,2.7c0.1,0.1,0.2,0.2,0.3,0.4c1.1-0.5,2.1-1,3.2-1.6   c0.3,0.3,0.5,0.5,0.8,0.8c-7.1,6.3-5.2,15.6-6.7,23.8c-0.1-3.2-0.1-6.4-0.2-9.9c-0.5,0.8-0.8,1.2-1.4,2.1c0.3-2.9-0.7-5.5,0.6-7.6   c0.1,0.9,0.3,1.7,0.5,3.1c0.7-3.8,2-5.2,0.5-9C306.3,465,306,465.6,305.8,466.3z" />
	<path fill="#EDC9B9" d="M386.3,182.1c4,3.3,8.6,6.1,13,8.9c-1.5,1.4,2.8,2.2,3.7,3l0,0c-4.1,2.9-2.6,7.6-2.8,12   c-2.9-0.4-5.1-1.9-7.7-3.1c-1.1-3.5-1.9-8.2-5.9-9.5c0.5,1.4,1,2.4,1.9,3.2c0.5,1.7,1.7,3.3,1.7,5.3c-2.3,0-4-1.1-6.2-1.6   c0.2-0.2,0.4-0.3,0.4-0.4c-3.5-6.8-5.9-14-6.7-21.6c-2.2-0.1-4.6-0.8-5,2c-0.6,3.1-2.3,6.2-1.6,9.4c-0.4-0.3-0.7-0.6-1.4-1.2   c0.7,4.5-3.2,8-2.7,12.3c1.6,0.1,3.3,0.1,5,0.2c-3.2,1.4-6.6,0.9-10.2,1.3c3.7-6.1,2.4-12.7,2.7-19.6c0.4-0.5,0.9-1.4,1.5-2.3   c-0.7-3.2,0.5-6,1.4-8.9c1.5,0.3,0.7,2.1,1.7,2.5c1.6-0.2,0.9-1.4,1.1-2.4c3.4,0.3,7.1,6.2,10,2c0,1.8-0.5,3.7,0.8,5.4   c-0.2,0.7-0.4,1.4-0.6,2.2c0.5,1.1,0.6,2.6,2.1,3.6c-0.3-1.5-0.8-2.4,0-3.6c1.1,0.8,2,2.1,3.6,1.9   C386.2,182.6,386.3,182.3,386.3,182.1z M370,186.4c0.7-2.2,0.7-2.2-0.2-3.9C368.5,184.9,368.6,185.2,370,186.4z M384.7,189.8   c-0.5,1.6-0.5,1.6,0.9,1.8C385.3,190.9,385,190.3,384.7,189.8z" />
	<path fill="#CFCFDD" d="M437.9,545c-1,8.8-6.2,11.6-2.8,21c9.3,5.4,18.5-2,27.7-2.3c8.4,8.8,20.6,7.8,31.4,5c8.5-1,17.6-0.4,25-5.2   c0-0.4,0.1-1.4,0.2-2.4c0.8,2.1,1.5,4.2,2.4,6.5c-17.2,10.5-40.6,8.6-59.5,3.8c-10.2-1.6-21.6,3.2-31.5-1.7   C431.6,560.8,433.3,552.6,437.9,545z" />
	<path fill="#4ABA79" d="M337.8,439.8c-3.9,0.8-8.5,1.3-12.2,0c3.2-0.5,6.8,1.1,9.4-1.6c-20.6-0.5-42-2.1-62.5-3   c25.4-9.1,52.5-0.8,78.9-3.1c0.6,0.8,1.5,0.7,2.3,0.7l0,0C348.8,436.6,341.8,435.7,337.8,439.8z" />
	<path fill="#CFCEDC" d="M604.6,457.1c20.5,4,17.9-32.9,29.7-25.7c10.9-8.8,19.9-19.1,24.3-32.6c-0.4-0.7-0.6-1.2-0.8-1.6   c0.7,0.2,1.4,0.5,2,0.7c3.9,15.7-13.5,28-24.5,36.4c-10.5,7.4-12.4,23.9-25.5,28.1C607.9,461,604.7,459.9,604.6,457.1z" />
	<path fill="#90A1C3" d="M351.5,534c-1.1-0.1-2.3-0.1-3.5-0.2c2.9-11.1-0.4-22.9,2.5-34.1c-0.5-14.4,4.2-30-2.9-43.3   c0.9-0.4,1.8-0.9,2.6-1.3c9.5,12.6,0.3,50.4,4.2,67.9c-0.6,0.9-0.6,1.9,0,2.8c0,2.4,0,4.8,0,6.9C353.6,534,352.6,534,351.5,534z" />
	<path fill="#35A55F" d="M349.3,431.9c-21.4,1.2-42.2-1.5-63.4-0.8c8.8-4.2,18.2-6.4,27.5-9.2C322.9,432.7,336.7,430.5,349.3,431.9z   " />
	<path fill="#FBDED2" d="M372,201c-1.7-0.1-3.4-0.1-5-0.2c-0.4-2.8,1.5-6.5,2.7-9l0,0c0.2,0.3,0.5,0.5,0.7,0.8   c1.8-1.9-0.3-4.9,0.9-7.2c1.2-3.9,0.8-8.5,6.3-7.1c0.8,7.7,3.2,14.8,6.7,21.6c-0.1,0.1-0.3,0.2-0.4,0.4   C379.9,200.2,375.9,200.3,372,201z M372.4,199.2c0.6-1.5,0.1-2.5-1.2-3.6C370.8,197.2,371,198.4,372.4,199.2z" />
	<path fill="#ECC9B9" d="M359,207.9c-2.6,8.5-11.5,14.5-11.4,24c1.1,9.5-5.7,17.3-5.4,26.3c-2.8-16.3,3.4-32.4,8.9-47.4   C353.4,209.3,356,208,359,207.9z M346.7,234.7c-0.1-0.6-0.3-1.2-1.1-0.9C344.9,234.6,345.9,235.7,346.7,234.7z" />
	<path fill="#869ABA" d="M332.2,581.1c14.8,1.2,29.8,0.4,44.7,0.7c-1.5,5-23.7,0.9-29.4,2c-14.8-0.7-30.3,0.5-44.8-1.3   c1.7-0.1,3.3-0.4,4.6-1.5C315.6,581,323.9,581.1,332.2,581.1z" />
	<path fill="#120E0F" d="M318.7,546.9c35.5-0.5,70.9,0.8,106.4,0.6c0,0.3,0,0.6,0,0.9c-39.5,0.1-79-0.1-118.5,0.2   C309.1,545.6,315.7,549.3,318.7,546.9z" />
	<path fill="#788AB1" d="M280,535.3c0.9,3.1-0.3,7.2-1,10.8c-4.3-0.6-9.9,1.4-13.4-1.1c1.5-3.4,4.3-6.1,6-9.5c0.6,0,1.2,0,1.9,0   c1.7,3.4-1.1,7.1,1.9,9.9c0.1-3.7,0.2-6.8,0.2-10.1C277.2,535.3,278.6,535.3,280,535.3z" />
	<path fill="#5575E6" d="M434.9,365.3c-14.9,0.8-29.7-1.1-44.6-1c0.8-0.3,1.7-0.6,2.6-1c0.2-0.6,0.5-1.3,0.7-1.8   c4.1-0.5,8-0.1,12.2-0.2c-0.2,0.6-0.3,0.9-0.5,1.4c10.7,0.5,21.7-1.3,32,1.8C436.7,365.6,435.6,364.9,434.9,365.3z" />
	<path fill="#1B1818" d="M419.8,175.1c-0.1-1.1-0.3-2.2-0.4-3.4c-2.2-0.2-5,0.3-4-3.2c12,3.5,6.6-3.9,3.3-10.7   c-1.1-2.2-1.5-4.2,0.5-6.2c2.5-4.6-2.4-9.9-1.9-15c-0.4-0.2-0.9-0.6-1.4-0.9c0.1-0.1,0.3-0.1,0.4-0.3c0.3,0,0.4-0.2,0.4-0.5   c1.7-0.3,3,1,4.7,0.8c-0.1,0.2-0.1,0.4-0.2,0.6c-0.5,0-1,0-1.5,0c-2.1,5.4,6,13.3,0,18.4c1.4,4.9,5.7,9.9,4.6,15.1   c-0.9,0.6-1.8,1.2-2.7,1.8c-0.2,1.1-0.3,2,0.4,2.9c0,0.4-0.1,0.9-0.1,1.3C421.1,175.9,420.1,176.1,419.8,175.1z" />
	<path fill="#707D98" d="M304.3,564.3c-1.9,4-0.2,9.1-0.8,13.8c-1.6-1.2-1.7-2.4-1.4-3.9c1.2-7.9,0.3-15.9,0.1-23.9   c3.9-11.5-0.9-26,1.9-37.6C304.3,529.8,304.6,547.1,304.3,564.3z" />
	<path fill="#EECABB" d="M480,401.6c-3.7,0.2-6.5-8.8-7.9-11.6c0.8-0.6,1.5-1,2.3-1.5c2.2,1.7,4.2,3.3,5.5,5.8   c0.4-2-0.8-4.9,0.7-6.3C480.7,392.5,480.3,397,480,401.6z" />
	<path fill="#F2F2F2" d="M602.2,419.2c0.6,1,1.1,1.9,1.8,3.1c-1.4,4.3-2.1,8.8-3.4,13.1c-2.2,0.4-2.9,0.5-5,0.9   c2.3-4.5,3.9-8.6,5.2-13.4C601.9,422.1,601.5,420.4,602.2,419.2z" />
	<path fill="#1F1B1A" d="M380.3,173.6c-3,4.2-6.6-1.7-10-2c-0.3,1,0.4,2.2-1.1,2.4c-1.1-0.4-0.3-2.3-1.7-2.5   c0.1-0.5,0.3-0.9,0.4-1.4c-0.6-1.3-1.3-2.6-1.9-3.9c0.2-0.9,0.5-1.7,0.7-2.5c0.2,0.1,0.5,0.1,0.7,0.1c0.2,2,9.7,11.6,11.4,8.4l0,0   c0.5,0,1,0.1,1.4,0.1c0,0,0-0.1,0-0.1C380.2,172.7,380.2,173.2,380.3,173.6L380.3,173.6z" />
	<path fill="#4E6DD6" d="M445.1,366.6c7.1,1.2,14.7,1.5,21.1,5.1c-0.3,0.6-0.7,1.2-1.1,2c-2.8-0.9-4.6-3.4-7.7-2.5   c-4.6,0.5-8.8-2.7-13.2-3.9C444.5,367,444.8,366.8,445.1,366.6z" />
	<path fill="#C5C4D1" d="M592.4,440.4c-0.5,1.2-1.8,0.5-2.7,1c4.9,2.3,9.4,6.3,11,11.3c-1.3-1.1-2.7-2.2-4.2-3.4c-0.3,0-0.7,0-1.3,0   c-1.2-5.2-7-5.8-10.5-9c0.9-0.9,2-1,2.6-0.6C588.9,441,590.7,440.4,592.4,440.4z" />
	<path fill="#F3F5F5" d="M447.3,540.7c4.9,1.7,9.1-0.5,14.1,0.1c-2.5,3.7-8,3.5-12.2,3.8c-1-1.1-1.9-2.1-2.9-3.1   C446.6,541.3,447,541,447.3,540.7z" />
	<path fill="#111013" d="M343.8,534.7c1.5,0,3.1,0,4.6,0c0.2,0.4,0.5,0.9,0.7,1.3c-12.9-0.2-26.3,0.7-38.9-0.6   C321.3,534.9,333.1,536.6,343.8,534.7z" />
	<path fill="#241C1A" d="M387.9,201.7c0.7,0.1,1.4,0.1,2.2,0.2c0-2-1.2-3.6-1.7-5.3c0.3-0.3,0.6-0.6,0.9-0.9c1.8,2,2.4,4.6,3.1,7.2   c1.8,0.9,3.6,1.8,5.4,2.7c-1.7,1.6-3.2-0.4-5,0.3c-2.7-2.3-6.2-2.6-9.6-3.2C384.7,202.2,386.9,203.1,387.9,201.7z" />
	<path fill="#5270DD" d="M374.5,357.3c3,0.1,6,0.2,9.3,0.3C382.1,362.5,373.8,363.7,374.5,357.3z M378.4,360.9l-0.1,0.2l0.2,0   L378.4,360.9z" />
	<path fill="#5270DD" d="M384.8,363.8c-0.9-0.1-1.7-0.2-3-0.4c1.6-2.2,3.2-3.6,5.1-5.6c1.2,0.6,2.6,1.4,4,2.1   c-0.8,0.5-1.5,1-2.4,1.6c0.1,0.7,0.2,1.3,0.3,2.1C387.5,363.6,386.1,363.7,384.8,363.8z" />
	<path fill="#E6C5B6" d="M483.6,385.5c0.1,0.9,0.1,1.7,0.2,2.8c5.7,0.1,12.2,4.1,2.8,5.7c-0.8-0.1-1.8-0.2-2.3,0.9   c-0.3-0.4-0.5-0.8-0.8-1.3c1.3-1.5,3.2-1.8,3.6-3.8c-1.3-0.1-2.6-0.3-4.1-0.5C483.1,388,482.2,386.7,483.6,385.5z" />
	<path fill="#1A1C23" d="M280,535.3c-1.4,0-2.7,0-4.4,0c-0.1,3.3-0.1,6.4-0.2,10.1c-3-2.9-0.2-6.5-1.9-9.9c-0.6,0-1.2,0-1.9,0   c2.1-2.9,5.8-0.5,8.3-2.4C281.5,533.8,280,534.6,280,535.3z" />
	<path fill="#1E262E" d="M307.2,534c9.7,0,19.4,0,29,0c-7.8,1.5-20,0.4-29.2,0.5C307.1,534.3,307.1,534.2,307.2,534z" />
	<path fill="#2A2D2D" d="M418.3,134.9c-0.5,0-1.1,0-1.6,0c-0.2,0.3-0.4,0.6-0.8,0.8c-0.5-0.3-1-0.5-1.5-0.8   c4.6-2.4,9.8-3.4,13.7-6.4C427.2,132.9,421.7,133,418.3,134.9z" />
	<path fill="#232F5D" d="M384.8,363.8c1.3-0.1,2.7-0.1,4-0.2c-0.1-0.8-0.2-1.4-0.3-2.1c0.9-0.6,1.6-1.1,2.4-1.6   c1.4,0.2,2.7,0.5,3.9,1.4c-0.4,0.1-0.7,0.1-1.2,0.2c-0.2,0.6-0.4,1.2-0.7,1.8C390.4,364.4,387.2,365.1,384.8,363.8z" />
	<path fill="#292A2A" d="M413.9,121.7c0.4,1,0.7,1.6,1,2.4c0.5-0.4,1-0.7,1.7-1.1c0.1,1.1,0.1,2,0.2,3c-0.7,0.4-1.4,0.7-2.2,1.1   c-0.5-1.2-1-2.2-1.6-3.4c-0.9-0.1-1.8-0.2-2.8-0.3c-0.7,0-1.6,1.1-2.2-0.6C409.9,122.5,411.8,122.1,413.9,121.7z" />
	<path fill="#D3C0B6" d="M367.4,163.7c-0.2,0-0.5,0-0.7-0.1c0.1-0.2,0-0.4-0.1-0.6c0-0.8,0-1.5,0.1-2.3l0,0c0.9-2.4,2.9-4.2,4.3-6.3   c0.3,0.3,0.6,0.6,1,0.9c-1.2,2.5-2.2,5.1-4.3,7c0,0,0.2,0.3,0.3,0.5c0,0.2-0.1,0.4-0.3,0.5C367.6,163.6,367.5,163.7,367.4,163.7z" />
	<path fill="#1B3E28" d="M340.8,437.4c4.5-0.8,8.9-2,12.8-4.5c0.3,0.2,0.6,0.5,0.9,0.7C352.3,434.9,342.3,440,340.8,437.4z" />
	<path fill="#4A6AD0" d="M329.1,361.8c-4.5,1.8-9.2,1-13.9,0.9C318,361.8,326,361.4,329.1,361.8z" />
	<path fill="#222424" d="M393.8,143.8c-0.5-1.8,0-2.3,4.8-4.3C398,141.3,398,141.3,393.8,143.8z" />
	<path fill="#363235" d="M380.4,283.1c-0.6,0.7-1.3,1.4-2,2.3c-0.7-0.6-1.3-1.1-1.9-1.6c-0.2-0.9-1.1-0.6-1.6-0.9   c1.1-0.4,2.2-0.8,3.2-1.2C378.9,282.2,379.6,282.7,380.4,283.1z" />
	<path fill="#373737" d="M372.8,129.9c0.6-0.9,1.1-1.7,1.7-2.6c0.9,1,1.6,1.8,2.3,2.7C376.3,132,374.4,130.4,372.8,129.9z" />
	<path fill="#1A1C1C" d="M377.1,118.9c-1.5,0.7-2.8,1.9-4.8,2.7C374.5,118.1,374.5,118.1,377.1,118.9z" />
	<path fill="#303030" d="M390.6,130.8c2.5-1.2,3.1,1,4.6,1.2C393.9,134.7,392.4,132,390.6,130.8z" />
	<path fill="#292D2D" d="M404.6,133.3c0.4-1.4,6.2-2.3,5.9-0.3C408.5,133.4,406.6,133.4,404.6,133.3z" />
	<path fill="#313333" d="M383.2,132.2c-0.6,0.3-1.2,0.6-1.9,1c-0.4-0.4-0.7-0.8-1.2-1.3c0.6-0.7,1.1-1.4,1.7-2.1   C382.8,130.4,383.1,131.1,383.2,132.2z" />
	<path fill="#959189" d="M371.9,155.4c-0.3-0.3-0.6-0.6-1-0.9c0.4-0.9,1.1-0.6,1.7-0.5c1.1,1.5,3.2,1.7,4.5,3   c-0.5,0.1-1.3-0.1-1.5,0.7C374.6,156.6,373.4,155.9,371.9,155.4z" />
	<path fill="#1D1E1E" d="M343.8,219.3c1-1.7,2.1-3.5,3.2-5.4c0.8,2.2-1.7,4-2.4,6.1C344.4,219.8,344.1,219.5,343.8,219.3z" />
	<path fill="#222424" d="M397.7,138.4c0.8-2.4,3.3-2.3,3.9-4.3C403.3,136,399.7,137.9,397.7,138.4z" />
	<path fill="#272828" d="M372.1,143.8c-0.5,0.7-0.9,1.1-1.2,1.5c-1.2-1.1-2.3-2.1-3.4-3.2c1.3-0.8,1.6,0.5,2.3,0.8   C370.5,143.2,371.2,143.4,372.1,143.8z" />
	<path fill="#ABB3B8" d="M480.7,544.6c-0.3-0.3-0.7-0.7-1-1c1.2-1.3,2.3-2.5,3.5-3.8c0.4,0.2,0.7,0.4,1.2,0.7   C483.1,541.9,481.9,543.3,480.7,544.6z" />
	<path fill="#2B2C2B" d="M375,155.4c-1.9-0.4-2.4-1.6-3.1-3.4c0.7-0.2,1.2-0.3,1.9-0.5C374.2,152.9,374.6,154.1,375,155.4z" />
	<path fill="#344B92" d="M308.9,362.8c-1.6,0-2.4,0-3.5,0c-0.1-0.7-0.1-1.4-0.2-2C307,360.4,307.6,361.5,308.9,362.8z" />
	<path fill="#1F1B1A" d="M366.6,160.7c0,0.8,0,1.5-0.1,2.3c-0.4,0.5-0.7,0.9-1.1,1.4C363.8,162,364,161.5,366.6,160.7z" />
	<path fill="#161515" d="M412.3,134.9c-0.5,0.3-1,0.7-1.5,1c0.1,1.3,0.1,1.3-1.7,1.9c-0.3-0.7-0.5-1.5-0.8-2.2l0,0   C409.7,135.4,411,135.2,412.3,134.9z" />
	<path fill="#2E3030" d="M362.1,142.8c0.7,0.7,1,1,1.5,1.5c-1,0.8-1.7,1.4-2.5,2.1C360.1,144.8,361.4,144.2,362.1,142.8z" />
	<path fill="#A3B7B7" d="M447.3,540.7c-0.3,0.3-0.6,0.6-0.9,0.9c-1.1-0.6-2.5-0.9-2.8-3C445,539.4,446.2,540,447.3,540.7z" />
	<path fill="#94A6AB" d="M501.3,555.8c-0.6-0.2-1.2-0.5-1.8-0.7c0.4-1,0.8-1.9,1.2-2.8c1.1-0.2,1.7,0.4,2.2,1.1   c-0.1,0.2-0.3,0.3-0.4,0.5C501,554,500.9,554.1,501.3,555.8z" />
	<path fill="#425DB6" d="M445.1,366.6c-0.3,0.2-0.6,0.5-0.8,0.7c-1.6-0.4-3.2-0.9-4.8-1.3c0.3-0.2,0.6-0.4,0.9-0.6   C441.9,365.6,443.6,365.7,445.1,366.6z" />
	<path fill="#435FBA" d="M440.3,365.3c-0.3,0.2-0.6,0.4-0.9,0.6c-1.5-0.1-3.2,0.2-4.6-0.7c0.8-0.3,1.8,0.3,2.4-0.8   C438.3,364.8,439.3,365.1,440.3,365.3z" />
	<path fill="#20343F" d="M279.9,533.1c-1.7,1.4-4.1,0.5-6.1,0.8C274.2,532.2,278.2,533.6,279.9,533.1z" />
	<path fill="#363E50" d="M312.6,460.9c-1.1,0.5-2.1,1-3.2,1.6c-0.1-0.1-0.2-0.2-0.3-0.4c0.7-0.9,1.3-1.8,2-2.7   c0.5,0.3,1,0.5,1.6,0.8C312.6,460.4,312.6,460.7,312.6,460.9z" />
	<path fill="#252727" d="M400.1,134.4c-0.9-1.3-1.5-2.1-2.2-3.2c0.7-0.1,1.1-0.1,1.6-0.1C399.8,132.1,401.2,132.7,400.1,134.4z" />
	<path fill="#242424" d="M367.3,128.4c1.2,1.8-0.1,2.4-0.5,3.2C364.9,131.2,366.7,129.8,367.3,128.4z" />
	<path fill="#1B1C1C" d="M364,130.5c0.4,1.6-0.9,1.8-1.5,2.9C361.7,131.9,362.1,130.5,364,130.5z" />
	<path fill="#A2ADAD" d="M602.2,419.2c-0.7,1.2-0.2,2.9-1.4,3.8c0-1.7,0-3.4,0-5.1C601.8,417.7,602.1,418.4,602.2,419.2z" />
	<path fill="#526785" d="M312.6,460.9c0-0.2,0-0.5,0.1-0.7c1.1-0.4,2.1-1.4,3.6-0.4c-1,0.7-2,1.2-2.9,1.8   C313.1,461.4,312.8,461.1,312.6,460.9z" />
	<path fill="#212222" d="M362,158c0.1,1,0.2,1.7-0.4,2.5C360.1,159.4,360.2,159.2,362,158z" />
	<path fill="#181818" d="M383.1,148.9c0.5,1.3-0.1,2.1-1.2,2.6C381.7,150.1,381.7,150.1,383.1,148.9z" />
	<path fill="#141D38" d="M449.8,425.5c0.1-1.2,0.4-2.4,1.9-3.3C451.5,423.8,450.9,424.8,449.8,425.5z" />
	<path fill="#1F2020" d="M389.4,147.8c0.5-0.5,1-1.1,1.6-1.7C391.5,147.7,391.5,147.7,389.4,147.8z" />
	<path fill="#2D4485" d="M302.9,360c0.6,0.5,0.2,1.3,0.3,2C301.7,362.3,302.1,360.1,302.9,360z" />
	<path fill="#2A2C2C" d="M403.8,119.9c-0.5,0.6-0.8,0.9-1.2,1.4c-0.5-0.4-1-0.7-2-1.4C402,119.9,402.7,119.9,403.8,119.9z" />
	<path fill="#161515" d="M408.4,135.6c-0.9,0.4-2,1.4-2.7-0.5C406.7,134.8,407.7,134.4,408.4,135.6L408.4,135.6z" />
	<path fill="#272929" d="M386.5,142.1c0.8,1.8,0,2.2-1,2.5C384.8,143.6,385.8,143.3,386.5,142.1z" />
	<path fill="#262828" d="M367.5,149.7c0-0.8,0-1.5,0-2.3C369.3,148.5,369.3,148.6,367.5,149.7z" />
	<path fill="#A2C0C5" d="M601.5,411.6c-0.3,0.4-0.5,0.9-0.8,1.3c-0.9,0-1.6-0.1-2-1.3C599.7,411.6,600.6,411.6,601.5,411.6z" />
	<path fill="#2B2C2C" d="M368.5,125.9c0.7-1.2,1-1.7,1.4-2.3C370.6,124.7,370.6,125.3,368.5,125.9z" />
	<path fill="#161515" d="M404.6,133.3c1,0,2,0,3,0.1C407.2,134.6,403.4,134.3,404.6,133.3z" />
	<path fill="#2B2E2E" d="M359.2,150.6c-0.4-0.9,0.1-2.4,1-1.6C360.4,149.9,360,150.2,359.2,150.6z" />
	<path fill="#4C4D49" d="M458.6,413c-0.5,0.5-1,1.1-1.5,1.6c-0.3-1.2-0.1-2.2,1.2-3.1C458.4,412.1,458.5,412.6,458.6,413z" />
	<path fill="#2B2E2E" d="M381,146.3c0.3-1.6,0.9-1.8,1.9-1.3C382.6,146.1,382.3,146,381,146.3z" />
	<path fill="#94A6AB" d="M504.3,554.4c-0.6,0.5-1.1,1-1.7,1.5c0-0.7,0-1.3,0-2c0.1-0.2,0.3-0.3,0.4-0.5   C503.4,553.7,503.8,554,504.3,554.4z" />
	<path fill="#758795" d="M343.8,219.3c0.3,0.2,0.6,0.5,0.8,0.7c-0.2,0.2-0.5,0.5-0.7,0.7c-0.4-0.1-0.7-0.1-1.1-0.2   C343.2,220.2,343.5,219.7,343.8,219.3z" />
	<path fill="#203D78" d="M310.2,361.4c0.5,0.1,0.9,0.1,1.4,0.2c0,0.2,0,0.3,0,0.5c-0.5,0-1,0.1-1.5,0.1   C310.1,361.9,310.1,361.6,310.2,361.4z" />
	<path fill="#EECABA" d="M592.2,430.6c0.6,0,1.2-0.1,1.7-0.1c-0.3,0.5-0.6,1-0.8,1.5c0,0,0.1,0.1,0.1,0.1   C592.9,431.6,592.5,431.1,592.2,430.6z" />
	<path fill="#1B3E28" d="M353.6,432.9c-0.8-0.1-1.7,0.1-2.3-0.7C352.2,432.1,353.2,431.6,353.6,432.9z" />
	<path fill="#1F1B1A" d="M367.3,159.2c-0.2,0.5-0.4,1-0.7,1.5C366.5,160.1,366.6,159.5,367.3,159.2z" />
	<polygon fill="#181818" points="380.7,152.6 380.8,152.8 380.6,152.8  " />
	<path fill="#798BB3" d="M236.6,584c46,0.4,92,1.5,138,1.7c1.2,4.1-0.2,8.3,1,12.4c-55.3-0.2-110.8-0.6-166.2-1.2   c-0.9-4.2-1-8.4-0.7-12.8C218,583.7,227.3,584.1,236.6,584z" />
	<path fill="#7889B1" d="M376.5,598.2c0.3-4.1-0.6-8.4,0.4-12.1c2.2,0,4.5,0,6.9,0c2.3,1.4,3.5,3.9,5,5.5c0.1,2.3,0.2,4.3,0.4,6.5   C385.1,598.9,380.7,598.5,376.5,598.2z" />
	<path fill="#879BBC" d="M205.1,581.7c1-2.1,3-1.6,4.8-1.7c23,1.4,48.4-2.1,70.7,2.1C255.7,583.5,230.3,581.8,205.1,581.7z" />
	<path fill="#7789B0" d="M208.3,596.9c-2.8,0-5.5,0-8.4,0c-0.7-0.6-1.4-1.2-2.3-2c1.4-3.7,2.7-7.3,4.1-10.9c2-0.1,4-0.4,6,0.2   C207.5,588.7,207.5,592.6,208.3,596.9z" />
	<path fill="#161921" d="M208.3,596.9c-0.8-4.3-0.8-8.2-0.7-12.6c-2-0.6-4-0.3-6-0.2c10.7-1.6,23.9-1.1,35-0.1   c-9.3,0.2-18.6-0.3-27.9,0.1c-0.4,4.4-0.2,8.6,0.7,12.8C209,596.9,208.6,596.9,208.3,596.9z" />
	<path fill="#252227" d="M393.2,589.4c0.8,0.8,0.6,1.9,0.7,3c-0.2,0.3-0.4,0.5-0.7,0.8c-1.9,0.1-2.6-2.5-3.9-3.7   c0.3-0.2,0.5-0.4,0.9-0.7c-1.6-2.4-3.1-4.7-4.7-7c0-0.5,0-1,0-1.4c0.2-0.1,0.5-0.1,0.7,0C388.9,583.1,391,586.3,393.2,589.4z" />
	<path fill="#7E91B0" d="M385.6,581.8c1.5,2.3,3.1,4.6,4.7,7c-0.4,0.3-0.6,0.5-0.9,0.7c-2.7-4.3-6.4-6.2-11.5-5.4   C379.1,580.2,382.7,582.4,385.6,581.8z" />
	<path d="M332.2,581.1c-5.3,0-10.5-0.1-15.8-0.1c10.9-1.8,23.2-0.6,34.5-0.4C344.7,581.5,338.4,580.8,332.2,581.1z" />
	<path fill="#EECABA" d="M359.1,266.5c1.1-9.1,14.2-27.9,24.5-22.9c17.8,6.9,37.1,5.8,55.4,2.2c4.5-4,11-6.2,16.9-6   c0.6,0.7,1.2,1.4,1.7,2c27.6,4.6,55.2-7,82.3-1.4c-13.3,2.4-28.1,2-40.8,8.1c-16.1,3.8-33.3,3.4-49.7,0.9c1.4-1.7,2.6-3.1,3.7-4.5   c-25.9,9.7-44.1,16.9-72.5,5C372.1,253.2,364.5,259,359.1,266.5z M464.8,244.8c2.2,1,2.2,1,5.7-0.3   C468.6,244,466.8,243,464.8,244.8z M479.1,244.7c1.7,0.3,2.9,0.3,3.8-0.9C481.6,243.3,480.4,243.3,479.1,244.7z M454.3,244.8   c1.7,0.4,1.5,0.7,2.7-0.1C455.7,244,455.9,244.1,454.3,244.8z M486,243.2c0.5,0.5,0.8,0.3,1.2-0.1   C486.8,242.8,486.4,242.8,486,243.2z" />
	<path fill="#020202" d="M359.1,266.5c5.4-7.5,13-13.3,21.6-16.6c8.1,2.4,14.8,4.9,22.7,6.4c-0.8,0.2-1.9-0.3-2.5,0.8   c-3.2-0.7-6.3-1.3-9.6-1.9c0.3,10.5-2.2,21.4-10.9,27.9c-0.8-0.5-1.5-0.9-2.3-1.4c3.6-1.2,4.6-4.6,6.1-7.7c0,0,0,0,0,0   c2.1-5.6,5.9-13.5,4.2-19.6c-2.3,0-3.7-1.2-5.8-1.5c0,0.4-0.1,0.8-0.1,1.2c-4,1.8-0.6,7.4-0.9,10.7c0.4,2.1,2.9,4.4,1.7,6.1   c-1.7-1.2-4.1-2.8-4-5c-2.8-2-5.3-3.8-8-5.8c-4.5,6.1-10.8,9.9-16.9,14.1c-0.1-0.4-0.1-0.8-0.2-1.2   C355.9,270.9,357.5,268.7,359.1,266.5z M380.3,253.2c-0.5-0.2-0.8-0.3-1.1-0.4C378.5,254,379.6,254.4,380.3,253.2z" />
	<path fill="#ECC6B7" d="M546,240.5c0.4-1.9-0.7-3.3-1.7-5.1c4.1-0.3,6.4,4.5,10.8,4c14.5-2,20.6-5.6,35.7-0.5   c-17.6-4.3-28.9,6.5-43.1,0.3C547.2,239.7,546.6,240.1,546,240.5z" />
	<path fill="#DCBFB0" d="M513.4,247.5c11.9-2.7,25.2-5.8,37.2-3.9c0,0.2,0.1,0.5,0.1,0.7C538.3,244.5,525.4,249.3,513.4,247.5z" />
	<path fill="#DDC9BE" d="M587.9,232c4.1-0.3,8.1,1.4,11.3,4c0,0.3,0,0.5,0,0.8c-4.1-1.1-8.3-2-12.1-4   C587.4,232.5,587.7,232.3,587.9,232z" />
	<path fill="#BDACA3" d="M606,233.7c0.2,0.4,0.1,0.9,0.1,1.3c-3.7,0.6-6.9-2.1-10.4-2.9C598.1,229.5,602.8,233.5,606,233.7z" />
	<path fill="#D3BEB4" d="M606.1,235.1c0-0.3,0-0.5,0-0.8c2.2,0,4.4,0.3,6.7,1.3c-1.4,1.7-3,2.6-5.1,1.9   C607.9,236.1,607.2,235.5,606.1,235.1z" />
	<path fill="#917A70" d="M513.4,247.5c0.9,0.7,1.9,0.7,3,0.7c-4,1.3-8.2,1.6-12.4,2C506.9,248.4,510.1,247.9,513.4,247.5z" />
	<path fill="#C8B6A8" d="M572,241.4c1.7-0.5,3.3-1.1,5-1.7c1.2,0.3,2.3,0.7,3.6,1.1c0,0.9-0.6,1.4-1.3,1.2c-2.5-0.7-4.9,0.7-7.3-0.1   C571.9,241.8,572,241.6,572,241.4z" />
	<path fill="#C5BAB0" d="M599.2,236.8c0-0.3,0-0.5,0-0.8c2.3,0.5,4.3,0.9,6.7,1.1c-1.4,1.8-1.4,1.8-3.8,2   C601.1,238.4,600.2,237.6,599.2,236.8z" />
	<path fill="#938F87" d="M587.9,232c-0.3,0.2-0.5,0.5-0.8,0.7c-2.3-0.4-4.8-0.1-7-1.3c0.2-0.2,0.5-0.5,0.7-0.7   c2.3,0.2,4.5,0.5,6.8,0.7C587.7,231.7,587.8,231.9,587.9,232z" />
	<path fill="#ECC6B7" d="M536.9,241.3c2.5-1.7,6.2-0.4,9.1-0.8C543.5,241.8,539.8,240.8,536.9,241.3z" />
	<path fill="#464C46" d="M572,241.4c0,0.2,0,0.4,0,0.6c-1.1,0-2.2,0-4.1,0C569.6,241,570.8,241.3,572,241.4z" />
	<path fill="#8F9E92" d="M550.6,244.3c0-0.2,0-0.5-0.1-0.7c0.5,0.1,0.9,0.1,1.4,0.2c0,0.1,0,0.2,0,0.4   C551.5,244.2,551.1,244.2,550.6,244.3z" />
	<path fill="#EDD6CA" d="M414.5,216.2c-0.4,0-0.7-0.1-1.1-0.1c-0.6-1.8-1.5-2.9-3.1-4c6-1.1,13.8,0.3,20.1,3.6   c-0.6,0.3-1.1,0.5-1.7,0.8C424,215.6,419.2,214.4,414.5,216.2z" />
	<path fill="#010101" d="M587.7,231.5c-2-0.6-10.3,0.3-8.2-3.2c3.7,1.3,7.1,2.3,11,2.9C589.5,231.3,588.6,231.4,587.7,231.5z" />
	<path fill="#496A64" d="M608.3,230.6c-1.7,1.5-3.9,0.4-5.7-0.7c1.7,0,3.3-0.1,5-0.1C607.8,230.1,608,230.4,608.3,230.6z" />
	<path fill="#403432" d="M437.4,216.9c0.5,0.1,0.9,0.1,1.4,0.2c0.1,0.4,0.2,0.9,0.3,1.3c-1.7,0-3.4,0.5-4.8-0.8   c0-0.2-0.1-0.3-0.1-0.5C435.2,217,436.8,218.2,437.4,216.9z" />
	<path fill="#7D756F" d="M613.5,232.2c0.2,0.3,0.4,0.6,0.6,1.1c-1.8,1-3.3-0.6-5-0.5l0,0c0-0.2,0-0.4,0.1-0.6   C610.7,232.2,612.1,232.2,613.5,232.2z" />
	<path fill="#BDB6AC" d="M434.1,217.1c0,0.2,0.1,0.3,0.1,0.5c-1.8,0.2-3.5-0.3-5.3-0.7c-0.1-0.2-0.2-0.4-0.3-0.5   c0.6-0.3,1.1-0.5,1.7-0.8C431.6,216.1,432.9,216.6,434.1,217.1z" />
	<path fill="#B8B2A8" d="M582.5,229.2c-1-0.3-2-0.6-3-0.9c0-0.4,0-0.9-0.1-1.3c1.3,0.5,2.5,1,3.8,1.4   C583,228.7,582.7,228.9,582.5,229.2z" />
	<path fill="#55524E" d="M582.5,229.2c0.2-0.3,0.5-0.5,0.7-0.8c1.1,0.3,2.3,0.6,4.1,1.1c-1.3,0.3-1.9,0.4-2.5,0.5   C584,229.7,583.2,229.5,582.5,229.2z" />
	<path fill="#453230" d="M404.7,221.6c-1.1,1.2-2.6,0.5-3.9,0.9c0-0.3,0-0.6,0.1-0.8c1-0.3,2-0.6,3-0.9   C404.1,221,404.4,221.3,404.7,221.6z" />
	<path fill="#080606" d="M429,216.9c1.1,0.2,2.2,0.5,3.3,0.7C431,217.7,429.8,218,429,216.9z" />
	<path fill="#181413" d="M609.3,232.3c-0.1,0.2-0.1,0.4-0.1,0.6c-0.4,0-0.9-0.1-1.3-0.1c0-0.1,0-0.3,0-0.4   C608.4,232.3,608.8,232.3,609.3,232.3z" />
	<path fill="#C5BDB3" d="M608.3,230.6c-0.2-0.3-0.5-0.5-0.7-0.8c0.3,0,0.5-0.1,0.8-0.1C608.3,230,608.3,230.3,608.3,230.6z" />
	<path fill="#221C1B" d="M419.8,175.1c0.2,0.7,0.8,0.8,1.4,0.8c0,0.2,0,0.4-0.1,0.6c-0.5,0.2-0.9,0.5-1.4,0.7c0.2,0.3,0.5,0.7,0.7,1   c-0.1,1.4-0.1,2.9-0.2,4.3c-2,1.8-1.8,3.9-0.7,6.2c-0.5,1.8-0.9,3.3-1.7,5.1c-2.9,1.3-6.4,1-9.6,1.1c-0.8-1-2-0.9-3.2-0.9   c0.1-0.2,0.1-0.4,0.2-0.6c3.7-0.3,7.3,0.4,10.8-1.2c3-4.5-1.5-6.7,2.5-12.2c-0.4-0.5-0.8-1.1-1.3-1.8c-1.4,0.5-2.7,2.3-4,0.7   C413.8,176.1,418.3,177.4,419.8,175.1z" />
	<path fill="#6F514B" d="M405.4,193.5c0,0.2-0.1,0.4-0.2,0.6c-1.6,0.3-7.2-1.2-6-3C401.3,191.8,403.4,192.6,405.4,193.5z" />
	<path fill="#403432" d="M436.6,216.1c0.2,0,0.5,0,0.7,0.1c0,0.2,0.1,0.4,0.1,0.7C437.1,216.6,436.8,216.4,436.6,216.1z" />
	<path fill="#6F514B" d="M402.3,194.8c0.2-0.3,0.5-0.5,0.7-0.8C402.7,194.3,402.5,194.6,402.3,194.8z" />
	<path fill="#191D1F" d="M361.7,548.4c21.1-0.3,42.3,0,63.4-0.1c-0.1,0.2-0.1,0.4-0.2,0.6C403.9,549.3,382.7,549.2,361.7,548.4z" />
	<path fill="#121314" d="M353.7,494.4c0-2.6-0.4-5.3,0.6-7.9C354.1,489.1,355.1,492,353.7,494.4z" />
	<path fill="#121314" d="M354.3,522.8c-1-2-0.4-4.2-0.7-6.4C355.2,518.1,354.1,520.7,354.3,522.8z" />
	<path fill="#121314" d="M354.3,525.8c-0.6-0.9-0.6-1.9,0-2.8C354.3,523.9,354.3,524.9,354.3,525.8z" />
	<path fill="#121314" d="M353.7,497.4c0-0.3,0-0.5,0-0.8C354.4,496.9,354.4,497.2,353.7,497.4z" />
	<path fill="#788AB2" d="M425.1,547.5c-14.7-0.4-29.6,0.7-44.2-0.6c10.5,0,21,0,31.6,0c0.9-3,0.4-5.8,0.4-8.9   c-9.9-1.4-21.2,1.4-30.3-1.1c10.4,0.1,20.7,0.1,31.1,0.2c0,2.9,0.1,5.8,0.1,8.9c2.4-3.4,1.1-5.3,1.6-8.9c1.5-0.1,3-0.3,4.5-0.3   c1.6,2.8,4.3,4.4,6.7,6.3C427.1,544.8,426.2,546.2,425.1,547.5z" />
	<path fill="#29303E" d="M415.4,537c-0.5,3.6,0.8,5.4-1.6,8.9c-0.1-3.2-0.1-6-0.1-8.9C414.2,537,414.8,537,415.4,537z" />
	<path fill="#191D1F" d="M425.1,547.5c1.1-1.3,2-2.6,1.5-4.4c0.3,0,0.5,0,0.8,0c0,1.8,0.8,3.9-0.8,5.3c-0.5,0-1,0-1.5,0   C425.1,548,425.1,547.8,425.1,547.5z" />
	<path fill="#EECABA" d="M395.5,226.1c-4.4,7.2-11.7,6.7-19.2,7.4c-0.5-0.3-1.6-0.9-2.7-1.4c-0.1-1.7-0.5-3.2,0.4-4.8   c4.9-1.5,10.2-2,14.9-4.4c3.3-0.7,8.8-5.3,11.2-1.4C399.2,223.7,397.7,225.3,395.5,226.1c-0.2-0.8-0.6-1.1-1.5-0.2   C394.6,226,395.1,226.1,395.5,226.1z M389.6,227.8c0,0.2,0,0.3,0.1,0.5c0.5-0.1,1-0.1,1.5-0.2c0-0.2,0-0.3-0.1-0.5   C390.6,227.6,390.1,227.7,389.6,227.8z M387.6,230.5c0.1-0.1,0.2-0.1,0.2-0.2c-0.1-0.1-0.2-0.1-0.2-0.2c-0.1,0.1-0.2,0.2-0.3,0.3   C387.4,230.4,387.5,230.4,387.6,230.5z" />
	<path fill="#ECC9B9" d="M383.4,275.7c-0.5,1-1,2.1-1.5,3.1c-4.6-5.2-9.2-10.1-16-12.4c1.8-2,3.6-4.1,5.5-6.2c2.7,2,5.2,3.8,8,5.8   c-0.2,1.7,1.3,2.8,2.5,4c0.1,0.9,0.7,0.9,1.4,0.9l0,0c0.3,1,0.6,2.1,0.8,3.1l0,0C383.2,274.2,383.3,274.9,383.4,275.7z" />
	<path fill="#ECC9B9" d="M419.8,232.9c0.1,0.4,0.2,0.7,0.3,1.3c1,0.2,2.1,0.3,3.1,0.5c0.2,5.5-13.1,11.6-18.2,10.2   c-0.3-1.5-0.6-3-1-4.6c5.3,1.2,9.5-0.4,11.2-4.3c-0.5,0-1,0-1.5,0c0.8-1,2.2-1,2.9-2.3c0.1,0.5,0.3,1,0.6,2   C418.4,234.4,418.9,233.9,419.8,232.9z" />
	<path fill="#0C0909" d="M463.5,226.3c0.6,0.2,1.5,0.4,2.4,0.7c-0.3,1.1-2,1.4-2.9,1.9c-3.3,1.6-5.5,4.8-9.4,5.4   c-1.9-0.7-4.2-0.5-5.8-2.8c1.5,0,2.7,0,3.8,0C455,228.8,458.8,227.2,463.5,226.3z" />
	<path fill="#1B1211" d="M413.7,236c0.5,0,0.9,0,1.5,0c-1.7,3.9-5.9,5.5-11.2,4.3C405.3,236.6,411.2,238.7,413.7,236z" />
	<path fill="#2B201F" d="M352.2,241.2c2.8,1.6,5.6,3.1,8.2,4.6c-1.9,2.7-7.1-2.3-9-3.8C351.7,241.7,351.9,241.5,352.2,241.2z" />
	<path fill="#220B0A" d="M374.7,208.1c2.5-0.7,4.3,0.3,6.4,0.8C379,210.3,375.7,210.1,374.7,208.1z" />
	<path fill="#140605" d="M468,235.6c-1.5,0.5-3.1,1.6-5,0.2C464.7,233.8,466.3,235.3,468,235.6z" />
	<path fill="#5A4541" d="M513.6,227c2.1-0.5,3.9-0.4,5.7,0.9C516.6,228.7,516.5,228.6,513.6,227z" />
	<path fill="#342A27" d="M419.8,232.9c-0.8,1.1-1.4,1.6-2.6,2.8c-0.3-1-0.4-1.5-0.6-2C417.4,232.8,419,231,419.8,232.9z" />
	<path fill="#685652" d="M485.2,234.7c1.9-0.5,3.2-0.6,4.5,0.9C487.9,236.1,486.5,236.5,485.2,234.7z" />
	<path fill="#887670" d="M352.2,241.2c-0.3,0.3-0.5,0.5-0.8,0.8c-0.7-0.8-1.5-1.5-2.2-2.3c0.2-0.2,0.4-0.4,0.6-0.6   C350.6,239.8,351.4,240.5,352.2,241.2z" />
	<path fill="#2A2321" d="M476.4,235.6c1.3-1.4,2.6-0.4,4.5-0.3C479.1,236.4,477.7,235.9,476.4,235.6z" />
	<path fill="#281817" d="M471.2,225.6c-0.5,1.1-1.4,1.4-2.6,1.3C468.9,224.8,468.9,224.8,471.2,225.6z" />
	<path fill="#73625D" d="M496.1,235.3c-1.6-0.1-2.4-0.2-3.7-0.3C494.2,233.4,493.4,233,496.1,235.3z" />
	<path fill="#4F4441" d="M477.9,226.6c-1.1,0.4-2,0.6-3.1,0C475.9,225.4,476.9,225.3,477.9,226.6z" />
	<path fill="#644F4B" d="M354.3,273c0.1,0.4,0.1,0.8,0.2,1.2c-0.7,0.6-1.4,1.2-2.4,2.1C352.4,274.7,353.2,273.8,354.3,273z" />
	<path fill="#5C4542" d="M425,229.2c0.2-1.7,0.2-1.7,1.9-1.2C426.1,228.5,425.5,228.9,425,229.2z" />
	<path fill="#652827" d="M503.9,227.1c-0.9,1.4-1.5,0.9-2.1-0.2C502.6,227,503.3,227.1,503.9,227.1z" />
	<path fill="#A58D86" d="M481.6,226.7c1.3-1.3,1.3-1.3,2.1,0C482.9,226.7,482.3,226.7,481.6,226.7z" />
	<path fill="#3E3532" d="M385.9,210.4c0.1-0.3,0.2-0.5,0.3-0.6C387.4,210.3,387,211.2,385.9,210.4z" />
	<path fill="#8B766F" d="M399.3,223c0.3-0.5,0.5-1,0.8-1.4c0.3,0,0.5,0.1,0.8,0.1C401,222.7,400.3,223.3,399.3,223z" />
	<path fill="#604E4A" d="M508.2,226.9c0.7-0.2,1.1-0.3,1.7,0.2C509.4,228,508.8,227.4,508.2,226.9z" />
	<path fill="#6F5D58" d="M422.1,229.8c0.2,0.2,0.4,0.4,0.5,0.5c-0.3,0.2-0.7,0.4-1,0.7C421.1,230.3,421.5,230.1,422.1,229.8z" />
	<path fill="#5F2725" d="M486.8,227.3c0.5-0.5,0.8-0.3,1.2,0.1C487.5,227.7,487.2,227.7,486.8,227.3z" />
	<path fill="#5B4542" d="M391.7,212.8c-0.5,0.6-0.7,0.3-1.1-0.1C391,212.3,391.3,212.4,391.7,212.8z" />
	<path fill="#513734" d="M349.8,239.1c-0.2,0.2-0.4,0.4-0.6,0.6C349.1,239.1,349.3,239,349.8,239.1z" />
	<path fill="#030204" d="M381.2,403.1c2.8-0.2,5.5,1.2,8.1,0c0.6,0.5,1.2,1,1.9,1.5c3.3-0.1,7.1,1.3,9.8,1.8   c8.2-3,21.8-10.6,29.5-9.3c-8,3.9-16.4,6.3-24.8,9.5c8.3,3.3,23.6,2.7,32.3,7.6c-3,2.9-13.5-2.7-18.2-2.6c-4.7,3.1-9.7,5.2-15,6.2   c-0.5-0.2-1-0.5-1.5-0.7c4.4-2.1,9.9-2.3,13.6-5.7c-10.6-0.9-21.3-5.7-31.7-5c-2.8-2.4-8.1-2.8-11.6-1.6   c-3.5-3.2-16.1-3.6-20.5-2.2c-7.8-0.4-17.6-7.3-24.5-4.3c-4.5-0.7-14.4-4-10.6-9.9c2.2,9.6,13.1,7.5,20.6,7.1   c4.2,3.7,11.4,5,16.7,3.7c7.3,0.7,15.4,3.3,22.7,2.2C378.8,402.3,379.5,403.8,381.2,403.1z" />
	<path fill="#040306" d="M328,370.6c6.4-0.3,12.7-1.5,18-3.7c5.2-8.5,16.8-2.9,24.7-2.1c-2.8,2.9-10.4,0.2-14.6,1.7   c-11.3,2.4-22,7.9-33.8,6.9C320.9,370.3,326.3,371.6,328,370.6z M348.3,365.7c2.5,0.7,4-0.8,5.7-0.8   C351.8,364.3,351.8,364.3,348.3,365.7z" />
	<path fill="#06070D" d="M311.4,370.5c-1-0.7-1.8-1.3-2.8-2.1c5.8-3.3,6.3,7,6.4,10.6c3.2,2.1,7,0.6,9.6,3.5   c0.3,1.9-0.8,2.7-2.8,3.4c0.4-1,0.7-1.6,1-2.2C309.4,379.7,314.7,383.1,311.4,370.5z" />
	<path fill="#1E2442" d="M362.1,366.6c0.3,0.1,0.6,0.2,1.4,0.5c-9.5,2.7-31,7.9-28.4,20c0.6-0.2,1.3-0.4,2-0.6   c0.8,0.8-0.4,1.2-0.1,2.2c-6.6,0.5-3.1-7.4-1.4-10.7C343.8,373.5,352.1,367.3,362.1,366.6z" />
	<path fill="#0E0E1C" d="M421.6,428.2c5.5-6.4,14.9-9.2,22.2-13.7C438.9,420.1,428.7,424.8,421.6,428.2z" />
	<path fill="#1B1E39" d="M356.9,400c-0.6-0.2-1.2-0.5-1.8-0.7c4.4-4.4,8.3-10,14-12.7C365.7,392.2,360,394.8,356.9,400z" />
	<path fill="#111324" d="M372.6,403.8c0.3,0.3,0.6,0.6,0.9,1c-5.5,2.2-10.5,6.4-16.3,7.3C362.1,408.8,367.3,406.1,372.6,403.8z" />
	<path fill="#0A0C16" d="M362.6,378c0.7-0.6,1.2-1.7,2.4-1.5c0.5,1.4-0.5,2.5-0.9,3.7c-1.6,1.1-2.8,3-5.1,3   C358.8,381.1,361.6,379.8,362.6,378z" />
	<path fill="#0E101F" d="M335.5,378c-0.3,0.5-0.5,1.1-0.8,1.6c-1.6,0.8-3.2,1.5-4.9,2.3c-0.4-0.5-0.8-1-1.3-1.6   C330.3,378.8,333.1,376.9,335.5,378z" />
	<path fill="#191C35" d="M317.2,371.9c1.5-1.7,3.2-2.2,4.8-2.9C323.5,370.8,318.9,372,317.2,371.9z" />
	<path fill="#15162A" d="M339.3,396.4c-0.3-0.3-0.6-0.6-0.9-0.9c1.1-0.9,2.4-1,3.7-1.1C341.6,395.8,340.5,396.2,339.3,396.4z" />
	<path fill="#22284D" d="M351.3,401.7c0.6,0.3,1.2,0.5,1.7,0.8c-0.9,1-1.7,1.9-2.8,3.1C349.6,403.8,351.9,403.2,351.3,401.7z" />
	<path fill="#191E3B" d="M403.2,417c0.5,0.2,1,0.5,1.5,0.7c-1,1.2-2.2,0.5-3.5,0.3C401.8,417.6,402.5,417.3,403.2,417z" />
	<path fill="#262240" d="M445.7,413.8c0.7,0,1.5,0,2.2,0C446.9,414.9,446.9,414.9,445.7,413.8z" />
	<path fill="#B6BCD4" d="M383.2,280.7c3-3.8,5.4-7.7,6.8-12.3c1.3,4.9,6.1,7.7,7,12.6c-1.9,1.1-3.1,2.3-3.9,4.3c0-0.6,0-1.3,0-2.4   c-0.7,0.8-1.1,1.3-1.5,1.7c-0.1-0.4-0.2-0.7-0.2-1.1c-1.9-1.6-3.7,1.2-5.2,0.2C384.7,283,384.8,281.1,383.2,280.7z" />
	<path fill="#B6BCD4" d="M362.1,309.8c-1.7,1.1-4.7-0.2-6-1.8c0.7,0,1.4,0,2.4,0c-1.4-1.4-2.2-2.9-4.1-2.9l0.1,0.1   c-3.1-3.2-6-6.6-8.9-9.9c0.7-3.7,5.1-4.9,7-0.8c2.7,5.1,7.5,8.8,10.1,13.9c-0.6,0-1.3,0-2.7,0C361.1,309.1,361.6,309.5,362.1,309.8   z" />
	<path fill="#B5BBD3" d="M358.9,322.6c-4.2-1.9-9.5,0.7-12.2-4.5c0,0,0.2-0.2,0.2-0.2c0.8,0,1.7,0.1,3.3,0.2c-3-1.7-4.3-3.2-6.7-5.2   c0.7-0.8,1.5-1.6,2.3-2.4c4.1,0.3,5.2,4.9,7.8,7.5c-0.5,0-0.9,0.1-1.9,0.1c1.4,1.5,3.4,4,4.9,2.3c0.8,0.3,1.6,0.5,2.4,0.8   C359,321.6,359,322.1,358.9,322.6z" />
	<path fill="#0C0C0D" d="M370.7,341.1c1.1-5.5,2.6-9.4,4.1-11C376.8,332,374.8,343.9,370.7,341.1z" />
	<path fill="#131012" d="M345.6,295.2c2.2,2.5,4.4,5,6.7,7.6c-0.3,0.3-0.7,0.7-1,1c-3.2-1.8-6.3-5.2-8.1-8.4   C343.9,293.9,344.7,294.7,345.6,295.2z" />
	<path fill="#18181A" d="M376.4,324.7c1.7-3.8,3.4-7.6,5.1-11.4c3.2,0.6-2.5,10.6-4.2,12.3C376.9,325.3,376.7,325,376.4,324.7z" />
	<path fill="#161416" d="M343.6,312.8c1.4,1.2,2.7,2.4,4.1,3.6c-0.3,0.3-0.6,0.6-0.9,0.9c-2.4-0.1-4.8-1.9-6-4   C341.7,312,342.7,312.7,343.6,312.8z" />
	<path fill="#211A1D" d="M356.7,320.3c-1.5,1.7-3.5-0.8-4.9-2.3c1-0.1,1.4-0.1,1.9-0.1C354.7,318.7,355.7,319.5,356.7,320.3z" />
	<path fill="#2F292E" d="M354.4,305.1c1.9,0.1,2.7,1.6,4.1,2.9c-1,0-1.7,0-2.4,0C355.4,307.1,354.1,306.5,354.4,305.1z" />
	<path fill="#2E282C" d="M334.7,295.3c-0.8-0.1-0.7-0.7-0.7-1.3c1.8-1,2.4-2.2,4.8-1.6C337.1,293.6,335.9,294.4,334.7,295.3z" />
	<path fill="#2D1B1E" d="M358.9,322.6c0.1-0.5,0.1-1,0.2-1.5c1.2,0,2.5-0.6,3.4,1.1C361.3,323,360.1,322.7,358.9,322.6z" />
	<path fill="#51545C" d="M376.4,324.7c0.3,0.3,0.6,0.6,0.9,0.9c-0.8,0.9-1.6,1.8-2.8,3.2C374.4,326.7,375.3,325.7,376.4,324.7z" />
	<path fill="#2F2326" d="M351.3,329.6c-1.7,1.9-1.8,1.9-3.3,0.3C349,327.8,350.2,330.1,351.3,329.6z" />
	<path fill="#292428" d="M343,288.4c0.3,1.6-1,2.2-1.8,3.1C340.5,289.5,340.5,289.5,343,288.4z" />
	<path fill="#292327" d="M360.1,296.4c2.1-1.7,2.1-1.7,3.5,0.5C362.5,296.7,361.6,296.6,360.1,296.4z" />
	<path fill="#373238" d="M351.2,303.7c0.3-0.3,0.7-0.7,1-1c0.8,0.8,1.5,1.6,2.3,2.4C353.4,304.7,352.3,304.2,351.2,303.7z" />
	<path fill="#514A52" d="M362.1,309.8c-0.5-0.4-0.9-0.7-2-1.5c1.4,0,2,0,2.7,0c0.3,0.2,0.6,0.4,0.8,0.6c-0.3,0.3-0.5,0.6-0.8,0.9   C362.6,309.8,362.2,309.8,362.1,309.8z" />
	<path fill="#362F33" d="M391.7,284.7c0.4-0.4,0.8-0.9,1.5-1.7c0,1.1,0,1.8,0,2.4c-0.3,0.2-0.6,0.5-0.9,0.7c-0.3,0-0.6,0-0.9,0.1   C391.5,285.6,391.6,285.2,391.7,284.7z" />
	<path fill="#666E79" d="M391.4,286.1c0.3,0,0.6,0,0.9-0.1c-0.3,0.9-0.9,1.6-2,2C389.9,286.9,390.6,286.5,391.4,286.1z" />
	<path fill="#B6BCD4" d="M362.8,309.8c0.3-0.3,0.5-0.6,0.8-0.9c0.4,0.4,0.9,0.7,1.4,1.1C364,310.6,363.3,310.6,362.8,309.8z" />
	<path fill="#2B2124" d="M368.2,309.4c-0.7,0.4-1,0.4-1.2-0.4C367.6,308.8,367.9,308.4,368.2,309.4z" />
	<path fill="#65606A" d="M369.8,338.2c-0.2-0.9-0.3-1,0.4-2.1c0,1,0,1.5,0,2C370.1,338.2,370,338.2,369.8,338.2z" />
	<path fill="#B5BBD3" d="M345.3,317.3c0.5,0,1,0.1,1.4,0.1c0.1,0.2,0.1,0.3,0.2,0.5l-0.2,0.2C346.3,317.8,345.8,317.6,345.3,317.3z" />
	<path fill="#4B65C5" d="M356.9,400c0.5-2.2,2.7-3.1,4.3-4.6c1.9,1.8,4,2.2,6.6,3.2c17.6-4.8,33.8-16.6,52.3-17.8   c-9.3,5.6-18.9,11.8-29.3,14.7c-0.1-0.4-0.2-0.8-0.3-1.3C373.1,405.3,375.3,401,356.9,400z M394,390.8c4.1,0.1,7.1-1.3,10.3-3.4   C400.4,387,397.3,388.3,394,390.8z" />
	<path fill="#4B65C5" d="M411.5,401.7c-3.5,1.7-6.5,2.9-10.5,4.7c-2.2-0.5-5-1.1-7.8-1.7c9-5.4,23.8-15.3,34.2-14.7   c-4.5,5.2-11.4,7.5-17.2,11.4C410.7,401.5,411.1,401.6,411.5,401.7z" />
	<path fill="#07070C" d="M346.8,377.3c6.2-5.4,15.4-6.4,23-9.1c2.4,5.8-18.6,5.6-22.1,9.9C347.4,377.9,347.1,377.6,346.8,377.3z" />
	<path fill="#121323" d="M377.8,401.5c3.8-3,8.3-4.7,12.7-7.3c0.1,0.5,0.2,0.9,0.3,1.3c-3.7,2.2-7.3,4.3-11.1,6.5   c0.5,0.4,1,0.7,1.5,1.1C379.5,403.8,378.8,402.3,377.8,401.5z" />
	<path fill="#4C66C6" d="M364.2,380.3c0.3-1.2,1.4-2.3,0.9-3.7c3.8,0.6,7.8-2.4,11.3-1.7C372.3,376.9,368.1,378.1,364.2,380.3z" />
	<path fill="#191B31" d="M391.2,404.6c-0.6-0.5-1.3-1-1.9-1.5c4.2-2.7,8.9-4.4,13.2-6.9C403.5,398.9,391.2,401.6,391.2,404.6z" />
	<path fill="#44559D" d="M384.8,380.4c-2.5,2.3-6.3,5.1-9.9,5.3C378.2,383.8,381.1,381.3,384.8,380.4L384.8,380.4z" />
	<path fill="#161629" d="M430.4,397c-0.3-0.8-1-0.6-1.6-0.8c2.5-1.5,5.2-2.1,8.2-3C435.4,395.1,435,395.4,430.4,397z" />
	<path fill="#4D63B9" d="M386.4,379.5c2.6-1.6,5.1-3.5,8.4-3.7l0,0c-2.4,2.2-5.7,2.9-8.4,4.5C386.3,380.1,386.4,379.8,386.4,379.5z" />
	<path fill="#3B4988" d="M374.9,385.7c0.3,0,0.6,0,0.9,0.1c-0.9,1.4-2.3,2-3.9,2.3l-0.1-0.1C372.4,386.6,373.8,386.3,374.9,385.7z" />
	<path fill="#283667" d="M346.8,377.3c0.3,0.3,0.5,0.6,0.8,0.8c-0.4,0.8-1,1.3-2.2,1.2C345.3,378.2,345.9,377.7,346.8,377.3z" />
	<path fill="#425296" d="M372,388.1c-0.4,0.8-0.8,1.5-2.1,1.2c0.4-1,1.1-1.3,2-1.3L372,388.1z" />
	<path fill="#44559D" d="M386.4,379.5c0,0.3,0,0.5,0,0.8c-0.5,0-1,0-1.5,0c0,0,0,0,0,0C385.1,379.6,385.7,379.6,386.4,379.5z" />
	<path fill="#4D63B9" d="M394.7,375.8c0.2-0.5,0.5-0.9,1.4-0.3C395.5,375.6,395.1,375.7,394.7,375.8   C394.7,375.8,394.7,375.8,394.7,375.8z" />
	<path fill="#1D1A19" d="M460.7,431.8c0.2-1.9-0.4-3.6,1.3-5.1c2,3.6-0.4,7.5-0.5,11.4C460.4,436.2,460.9,433.9,460.7,431.8z" />
	<path fill="#3D3836" d="M460.7,431.8c-0.3,4,1.7,7.6-0.5,11.3C460,439.3,459.9,435.5,460.7,431.8z" />
	<path fill="#9E8F88" d="M454.9,484.1c-0.2-0.5-0.5-1.1-0.8-1.7c0.4-1.1,0.4-2.4,2-3.8c-0.5,2.5-0.6,3.3-0.7,5.3   C455.3,484,455.1,484.1,454.9,484.1z" />
	<path fill="#1D1817" d="M459.3,451.8c0.3-1.8-0.8-4,1.2-4.9c0.8,1.9-0.2,3.4-0.5,4.9C459.8,451.7,459.5,451.8,459.3,451.8z" />
	<path fill="#725D58" d="M456.1,474.6c-0.8-1.1-0.5-1.9,0.6-2.7C457.3,473.1,457.3,473.9,456.1,474.6z" />
	<path fill="#383633" d="M457.4,467.3c-0.6-1.3-0.6-2.4,0.5-3.7C458.7,465.3,457.8,466.3,457.4,467.3z" />
	<path fill="#3A2F2D" d="M454.5,486c0.3,1.2,0.7,2.3-0.8,3.2C453.2,487.8,453.7,486.9,454.5,486z" />
	<path fill="#595450" d="M459.3,451.8c0.2,0,0.4-0.1,0.7,0C460.5,454,458,453.5,459.3,451.8z" />
	<path fill="#998881" d="M455.7,460.1c1.3-0.7,2.4-0.7,1.7,0.7C457.1,460.6,456.8,460.5,455.7,460.1z" />
	<path fill="#73615D" d="M475.7,419.9c0.3,0.4,0.6,0.7,1.1,1.2C475.2,421.6,475.4,420.8,475.7,419.9z" />
	<path fill="#3E3734" d="M460,422.9c0,0.7,0.1,1.4,0.1,2C459.3,424.3,458.8,423.7,460,422.9z" />
	<path fill="#241514" d="M513.8,407.3c-7.5,1-13.6,0.3-21,0.6c-0.1-0.4-0.1-0.9-0.2-1.3C499.4,404.3,506.3,406.3,513.8,407.3z" />
	<path fill="#332624" d="M524.7,410.6c-4.6,0.4-5.9,0.1-8-1.5C517.8,405.9,522.7,409.3,524.7,410.6z" />
	<path fill="#2E1514" d="M592.2,430.6c0.3,0.5,0.7,1,1,1.5c-3.1,0.7-6.1-0.1-9.1-0.9c0.3-0.3,0.5-0.5,0.8-0.8   C587.3,430.5,589.8,430.3,592.2,430.6z" />
	<path fill="#100909" d="M533.1,412.9c-1.6-0.4-2.8-0.2-3.6-1.3C531.1,410.7,531.1,410.7,533.1,412.9z" />
	<path fill="#1B0C0B" d="M539.1,413.5c-1.7,1.6-2.6,0.2-4,0.3c0.4-0.6,0.6-0.9,0.9-1.3C537,412.7,537.9,413,539.1,413.5z" />
	<path fill="#584F4B" d="M491.1,385.7c-0.8,0.7-1.2,1-1.6,1.3C488,385.7,489.7,384.3,491.1,385.7z" />
	<path fill="#693532" d="M541.2,413.9c1.1,0,1.6,0,2.5,0C542.9,414.9,542.3,414.8,541.2,413.9z" />
	<path fill="#141214" d="M320.9,252.5c0.1-1.8,1-3.3,1.1-4.9c4.7-0.7,0.1,6.5-0.2,8.8c-0.5,0-0.9,0-1.4,0c0-0.5,0-1,0-1.5   C321.3,254.3,321,253.4,320.9,252.5z" />
	<path fill="#1A1719" d="M323.1,268.7c1.9,1.9,2,2.4,0.7,4.9C321.8,270,321.8,270,323.1,268.7z" />
	<path fill="#393C43" d="M320.4,256.4c0.5,0,0.9,0,1.4,0c0,1.2-0.1,2.4-0.1,4.3C319.6,259.3,320.4,258.3,320.4,256.4z" />
	<path fill="#0D0C0C" d="M327.2,278.3c-1.9-0.9-1.9-0.9-1.4-2.4C327.7,276.9,327.7,276.9,327.2,278.3z" />
	<path fill="#36343A" d="M334.6,336.3c0.1-1.1,0.1-1.8,0.2-3C336.2,334.3,337.2,335.9,334.6,336.3z" />
	<path fill="#393C43" d="M320.9,252.5c0.1,0.9,0.4,1.8-0.5,2.4C320.2,254.1,320.2,253.2,320.9,252.5z" />
	<path fill="#667189" d="M302.1,504.3c-0.4-8.4-0.3-16.9,2.5-24.9c1.1-0.1,1.2,0.5,1.1,1.2c-2,7.6-4.4,16-2.3,23.7   C303,504.3,302.5,504.3,302.1,504.3z" />
	<path fill="#525C6F" d="M302.6,513.3c0.2,4.2-0.6,8.3-1.1,12.5c-0.4-5.1-1.1-10.7,0.3-15.6C301.9,511.3,302,512.4,302.6,513.3z" />
	<path fill="#7B89A6" d="M302.8,535.2c0,4.3,0,7.8,0,12.6c-3.6-3.5,0.2-8.2-0.8-12.6C302.2,535.2,302.5,535.2,302.8,535.2z" />
	<path fill="#464F61" d="M305.8,466.3c0.3-0.6,0.5-1.3,0.9-2.2c1.4,3.8,0.2,5.2-0.5,9C305.6,470.4,305.6,468.8,305.8,466.3z" />
	<path fill="#292D37" d="M302.6,513.3c-1.4-2.2-0.5-5-0.5-7.4C303.7,507.8,302.4,510.9,302.6,513.3z" />
	<path fill="#4B5263" d="M302.9,508.2c-0.3-0.7,0.3-1.8-0.8-2.3c0-0.5,0-1,0-1.5c0.4,0,0.9,0,1.3,0   C303.4,505.6,303.9,507,302.9,508.2z" />
	<path fill="#194328" d="M279.9,439c-1.6,0-3.2,0-4.8,0c-0.5,2-1,3.8-1.5,5.6c-0.1,0-0.2,0-0.3,0c-0.1-1.4-0.2-2.9-0.3-4.6   c-1.1-0.2-2.3-0.4-3.4-0.7c0.5-2.4,17.3-1.9,19.9-0.5C286.2,438.9,283,439,279.9,439z" />
	<path fill="#1B3927" d="M322.5,438.2c4.2,0,8.3,0,12.5,0c-1.4,2.5-18.2,1.8-20.9,0.8C316.7,438.5,320.3,439.8,322.5,438.2z" />
	<path fill="#11170D" d="M322.5,438.2c-6.8,1.5-15.7,1-22.7,0C307.7,438.2,314.9,437.8,322.5,438.2z" />
	<path fill="#215D37" d="M319.2,441.7c1.2,2.3,1.3,3.9,0.8,11.7C318.5,450.9,318.2,447.1,319.2,441.7z" />
	<path fill="#0B2214" d="M337.8,439.8c0.4,0,0.7,0,1.3,0.1c0.4,2.6,0.1,5.1-0.1,7.6C338.5,444.9,337.6,442.4,337.8,439.8z" />
	<path fill="#257141" d="M316.3,440.5c1.3,3,1.5,4.8-0.4,6.8C315.6,445,315.4,443.2,316.3,440.5z" />
	<path fill="#236D3F" d="M279.9,439c0.6,0,1.1,0,1.7,0c0.1,2.2-0.6,4.2-1.5,6.3C280,443.2,279.9,441.1,279.9,439z" />
	<path fill="#19482B" d="M339.9,450c0,1.5,0,2.9,0,4.4c-0.1,0-0.2,0.1-0.3,0.1C339.2,453,337.3,450.3,339.9,450z" />
	<path fill="#322B2C" d="M502.5,553.8c0,0.7,0,1.3,0,2c-0.4,0-0.8,0-1.3,0C500.9,554.1,501,554,502.5,553.8z" />
	<path fill="#292321" d="M371.9,155.4c2.8,0.8,4.7,3.1,6.5,5.2c-0.6,1.7-1.9-0.7-2.7,2.1c0.4,1,0.7,1.7,1.8,1.8   c4.9,1.9-0.4,5-3.4,3.1c0.1-0.6,0.6-1.3,0.4-1.8c-1.2-2.5,0.8-4,0.9-6.3c-0.6-0.6-1.3-1.3-2.2-2.1c-0.5,1-0.8,1.8-1.1,2.5   c1.7,3.6,1.7,3.6,0.9,5.7c-0.7-1.4-1.3-2.5-1.9-4c-0.5,0.4-0.9,0.7-1.4,1.1c0.4,1,0.9,2,1.5,3.4c-1.6-0.6-2.3-1.3-2.8-2.3   c0.2-0.3,0.3-0.7,0.5-1c-0.3,0.1-0.5,0.2-0.8,0.2c-0.1-0.2-0.4-0.5-0.3-0.5C369.8,160.5,370.8,157.9,371.9,155.4z" />
	<path fill="#181312" d="M416.5,148.8c-0.6,1.2-0.9,1.8-1.3,2.4c-3.9,0.3-7.5-2.6-11.1-0.2c-0.9,0.6-1,0.5-3.5,0.1   C404.2,146,410.8,147.5,416.5,148.8z" />
	<path fill="#201A19" d="M405.6,156c2-2.9,4.8-2.9,7.4-3.5c1.4,0.9-0.7,2.1,0.7,2.9C410.8,157.8,409.2,155.9,405.6,156z" />
	<path fill="#D4BFB5" d="M371.9,163.7c0.3,0.6,0.7,1.3,1,1.8c0.8-2.1,0.8-2.1-0.9-5.7c0.3-0.7,0.7-1.4,1.1-2.5   c0.9,0.8,1.6,1.5,2.2,2.1c-0.1,2.2-2.1,3.8-0.9,6.3c0.2,0.5-0.2,1.2-0.4,1.8c-0.6-0.3-1.2-0.7-2.1-1.2   C372,165.6,372,164.7,371.9,163.7z" />
	<path fill="#1E1715" d="M381.1,178.9c-1.2-1.6-0.8-3.5-0.8-5.4l-0.1,0.1c0.4,0,0.7-0.1,1.1-0.1c1.4,1.8,1.2,3.1,1.5,5.7   c0.8,0.7,2.4,1.9,3.4,2.8l0,0c0,0.2,0,0.5,0,1C383.7,183.1,382.3,180.7,381.1,178.9z" />
	<path fill="#62524F" d="M388.6,167.6c1.6-0.8,1.6-0.8,2.9,1.1C390.2,169.4,389.6,168.4,388.6,167.6z" />
	<path fill="#5C4E4B" d="M394.6,171.3c-1.4-0.2-2.2-0.6-2.2-1.7C393.1,168.9,394,169.6,394.6,171.3z" />
	<path fill="#EDC9B9" d="M382.5,175.4c-0.4-0.6-0.7-1.2-1.1-1.8c-0.4,0-0.7,0.1-1.1,0.1c0-0.5,0-1-0.1-1.5c0.7,0.3,1.5,0.7,2.3,1.1   C382.5,174,382.5,174.7,382.5,175.4z" />
	<path fill="#EDC9B9" d="M378.8,172.1c-1.3,1.1-1.4,1.1-3,0C376.8,172.1,377.8,172.1,378.8,172.1z" />
	<path fill="#0B0A0A" d="M367.9,162.9c0.3-0.1,0.5-0.2,0.8-0.2c-0.2,0.3-0.3,0.7-0.5,1c-0.2-0.1-0.4-0.2-0.6-0.3   C367.8,163.3,367.9,163.1,367.9,162.9z" />
	<path fill="#EDC9B9" d="M380.2,172.2c-0.5,0-1-0.1-1.4-0.1C379.5,171.1,379.7,171.1,380.2,172.2z" />
	<path fill="#EDC9B9" d="M386.3,182.1c-0.3-0.3-0.6-0.5-0.9-0.8C385.7,181.6,386,181.8,386.3,182.1z" />
	<path fill="#3E302C" d="M571.1,429.9c2.4,0.3,6.5-2,7.5,1.2c-2.3-0.1-4.2-0.9-6.4,0c-0.9,0.4-2,0.4-2.8-0.4   C569.9,430.4,570.5,430.1,571.1,429.9z" />
	<path fill="#451B19" d="M563.7,429.2c0.9-0.1,1.6-0.2,3-0.3C565.7,430.5,564.6,431.1,563.7,429.2z" />
	<path fill="#271413" d="M571.1,429.9c-0.6,0.3-1.1,0.5-1.7,0.8c-0.3-0.1-0.6-0.3-1.2-0.6C569.3,429.3,570.1,429.5,571.1,429.9z" />
	<path fill="#93766D" d="M584.8,430.4c-0.3,0.3-0.5,0.5-0.8,0.8c-0.4,0-0.7,0-1.1-0.1C583.5,429.7,583.5,429.7,584.8,430.4z" />
	<path fill="#332926" d="M447.2,526.6c0.8,2.8,2.2,5.2,1,7.4C446.7,533.2,446,528,447.2,526.6z" />
	<path fill="#52423D" d="M446.8,514.2c-0.6-1.8-1.7-3.4,0-5.2C448.5,512.1,448.5,512.7,446.8,514.2z" />
	<path fill="#4A3A36" d="M446.7,525.3c-0.6-1.6-0.6-2.8,0-4C448.4,522.7,448.4,523.4,446.7,525.3z" />
	<path fill="#0A0807" d="M446.9,515.6c1,1,0.7,2,0.1,3C445.7,517.3,445.7,517.3,446.9,515.6z" />
	<path fill="#4D423D" d="M381.1,178.9c0.5,0.7,1,1.5,1.5,2.2c-0.8,1.2-0.3,2.1,0,3.6c-1.5-1.1-1.7-2.5-2.1-3.6   C380.7,180.3,380.9,179.6,381.1,178.9z" />
	<path fill="#3B2B28" d="M370,186.4c-1.5-1.2-1.5-1.5-0.2-3.9C370.7,184.3,370.7,184.3,370,186.4z" />
	<path fill="#473F3C" d="M371.1,189.7c0.1,1.1,0.3,2.1-0.7,2.9c-0.2-0.3-0.5-0.5-0.7-0.8l0,0c0-0.9,0-1.9,0-3.3   C370.4,189.1,370.7,189.4,371.1,189.7z" />
	<path fill="#69534D" d="M389.4,195.7c-0.3,0.3-0.6,0.6-0.9,0.9c-1-0.7-1.4-1.8-1.9-3.2C388.2,193.7,388.9,194.6,389.4,195.7z" />
	<path fill="#75615A" d="M384.7,189.8c0.3,0.5,0.6,1.1,0.9,1.8C384.3,191.4,384.3,191.4,384.7,189.8z" />
	<path fill="#554D4A" d="M372.4,199.2c-1.5-0.8-1.6-1.9-1.2-3.6C372.6,196.7,373.1,197.7,372.4,199.2z" />
	<path fill="#EDC9B9" d="M369.7,191.8c0.2,0.3,0.5,0.5,0.7,0.8C370.2,192.3,369.9,192.1,369.7,191.8z" />
	<path fill="#64514B" d="M346.7,234.7c-0.7,1-1.8-0.2-1.1-0.9C346.4,233.5,346.6,234.1,346.7,234.7z" />
	<path d="M416.3,135.4c0.1-0.2,0.3-0.3,0.4-0.5C416.7,135.2,416.6,135.4,416.3,135.4z" />
	<polygon points="378.4,360.9 378.4,361.1 378.3,361.1  " />
	<path fill="#090303" d="M464.8,244.8c2-1.8,3.8-0.8,5.7-0.3C467,245.8,467,245.8,464.8,244.8z" />
	<path fill="#340A09" d="M479.1,244.7c1.3-1.5,2.4-1.4,3.8-0.9C482,245.1,480.8,245.1,479.1,244.7z" />
	<path fill="#421F1D" d="M454.3,244.8c1.6-0.6,1.4-0.8,2.7-0.1C455.8,245.5,456,245.2,454.3,244.8z" />
	<path fill="#542F2C" d="M486,243.2c0.4-0.4,0.8-0.4,1.2-0.1C486.8,243.5,486.5,243.7,486,243.2z" />
	<path fill="#F6DCD0" d="M382.5,254.1c0-0.4,0-0.7,0.1-1.2c2.1,0.3,3.5,1.5,5.8,1.5c1.6,3.3-0.4,7.1-1.2,10.5   c-2.9-2.5-5.6-6-6.1-9.8l0.1-0.1C381.8,255,382.4,254.9,382.5,254.1z" />
	<path fill="#E3C0B1" d="M381.1,255.1c0.6,3.8,3.2,7.3,6.1,9.8c-0.4,3.3-1.8,6.4-3.1,9.2c-0.3-1-0.6-2.1-0.8-3.1   c1.2-1.7-1.2-4-1.7-6.1C381.8,261.9,379.7,257.7,381.1,255.1z" />
	<path fill="#635750" d="M380.3,253.2c-0.8,1.2-1.8,0.8-1.1-0.4C379.5,252.9,379.8,253,380.3,253.2z" />
	<path fill="#E3C0B1" d="M383.3,270.9c-0.7,0-1.3,0-1.4-0.9C382.3,270.3,382.8,270.6,383.3,270.9z" />
	<path fill="#E3C0B1" d="M382.5,254.1c-0.1,0.8-0.7,0.9-1.3,0.9C381.6,254.7,382.1,254.4,382.5,254.1z" />
	<path fill="#E3C0B1" d="M383.4,275.7c-0.1-0.7-0.2-1.4,0.8-1.7C383.9,274.6,383.7,275.1,383.4,275.7z" />
	<path fill="#72453F" d="M389.6,227.8c0.5-0.1,1-0.1,1.5-0.2c0,0.2,0,0.3,0.1,0.5c-0.5,0.1-1,0.1-1.5,0.2   C389.7,228.1,389.7,227.9,389.6,227.8z" />
	<path fill="#834E48" d="M395.5,226.1c-0.4-0.1-0.9-0.1-1.5-0.2C394.9,225,395.3,225.3,395.5,226.1L395.5,226.1z" />
	<path fill="#5B423D" d="M387.6,230.5c-0.1,0-0.2-0.1-0.2-0.1c0.1-0.1,0.2-0.2,0.3-0.3c0.1,0.1,0.2,0.1,0.2,0.2   C387.8,230.3,387.7,230.4,387.6,230.5z" />
	<path fill="#263B74" d="M348.3,365.7c3.5-1.3,3.5-1.3,5.7-0.8C352.2,364.9,350.7,366.3,348.3,365.7z" />
	<path fill="#584F59" d="M347,317.9c-0.1-0.2-0.1-0.4-0.2-0.5c0.3-0.3,0.6-0.6,0.9-0.9c0.7,0.4,1.3,0.8,2.6,1.6   C348.6,318,347.8,318,347,317.9z" />
	<path fill="#131528" d="M394,390.8c3.4-2.5,6.4-3.8,10.3-3.4C401.1,389.5,398.1,390.9,394,390.8z" />
</g>
</svg>