<?xml version='1.0' encoding='utf-8'?>
<svg xmlns="http://www.w3.org/2000/svg" version="1.2" baseProfile="tiny" id="Layer_1" x="0px" y="0px" viewBox="0 0 900 600" overflow="visible" xml:space="preserve">
<g id="a">
	<path fill="#010101" d="M399.5,526.4c-14.4-64.7,11.5-50.1,11.9-95.4c-7-34.8-19.7-71.2-8.6-106.6c5.5-15,16-28.6,16.2-45.2   c8.1-20.5-18-37.6-17.3-58.1c0.3,0,0.6,0,0.8,0c1.9,3.6,3,7.8,4.3,11.4c16.6,9.7,28.4-14.1,27.2-28.1c2.2-13.7-10.5-22.3-10.6-35.6   c-2.8-18.3,3.1-36.8,1.3-55.3c1.1-16.3-7.7-32.6-5.2-48.4c5.9,20.8,8.9,42.7,7.6,64.2c0.2,18.5-7,39,4.1,55.7   c0.1-1,0.2-1.5,0.3-1.9c3-1.4,1.8-1.8,1.4-4.5c0.2-0.3,0.5-0.6,0.7-0.9c0-0.7,0-1.4,0-2.1c3.6-0.8,0.4-7,0.8-9.7   c0.5-0.2,1-0.4,1.5-0.7c0.1-0.9-0.2-2.1,0.2-3.1c4.1,7.3,1,17.4-3.3,24.1c0.8,1.5,1.6,2.8,3.1,3.6c0,0.2,0.1,0.4,0.1,0.6   c-1,1.2-2.3,1.2-0.9,3.1c4.4,18.1-2.4,46.4-25.9,43c3.2,7.9,8.2,15.5,12,23.2c19.7-2.4,39.1,0.2,58.9-0.8   c0.5-5.2,0.8-10.3,1.5-15.5c0.3-0.3,0.5-0.5,0.8-0.8c3.8,0.9-1.6,11.3-0.3,14.7c2.8,18-6.7,36.5,0.3,53.9c-0.5,0.5-0.9,1-1.4,1.5   c0.8,23.1,7.8,46.6,14.6,68.1c-0.6,1.3-1.3,3.3,0.1,4.4c2.6,13,3.6,27.7,1.5,40.3c-1.9-19.4-1.2-39.5-8.5-58   c-12.2,0-23.7,1.7-35.5,4.1c-3,0-4.9-1.1-5.4,3.1c-1.4-1.1-0.6-3.1-0.8-4.6c-12.1-5.4-32.3-7.5-45.1-3.9   c-0.8,27.7,17.1,54.9,10,82.5c-3.8,16.4-16.2,30.3-14.6,47.8C398.2,506.3,401.3,517.2,399.5,526.4z M439.2,318.8   c0.4-0.3,0.7-0.6,1-0.8c12.5,4.6,26.4,2.1,39.9,3.4c-3.4-20.3-0.6-40.3,0-60.6c-9.9,0.2-19.1,0.6-29,1.1c-0.3-0.4-0.7-0.9-1.1-1.4   c-9.2,0.5-18.7-0.2-27.7,1.8c4.3,16.2-2.4,33.4-10,47.9c7.1,1.1,13.4,4.1,20.2,6.5c-7.1,2.7-14.1-4.9-21.8-3.7   c-9.2,15.2-11.9,34.1-8.4,51.3c2-0.9,4.3-0.3,5.9-1.7c-0.2-0.4-0.4-0.7-0.7-1.4c10.7,2.4,36.6-1,42,8.9c0.9,0.3,1.9,0.6,2.5-0.5   c11.5-4.6,23.9-4.5,36.1-4.9c-4.5-13.7-7.5-27-8-41.4c-14.3-0.2-28.8,2.8-42.3-3.7C437.9,318.8,438.6,319,439.2,318.8z" />
	<path fill="#F6D9C7" d="M463.7,180.7c-0.2,0.2-0.5,0.5-0.7,0.7c-0.2-4-3.8,2.3-5.2-1.4c0.2-0.1,0.5-0.1,0.7-0.1   c0.2-0.2,0.5-0.4,0.7-0.6c-0.3-0.3-0.5-0.6-0.8-0.9c-0.5-0.1-0.9-0.1-1.4-0.2c-0.8-1.2-2.4-0.1-3.6-0.8   c-9.9-1.2-6.1-17.2-16.5-16.3c-0.8-0.9-1.6-1.9-2.4-2.8c1-2,2.1,1.2,3.5,1.3c0.6-0.7,0.8-1.1,0.9-2c-0.5-0.8-1.1-1.5-1.6-2.3   c0.1-1,0.1-2,0.2-3c1.2,0.2,2.5,0.3,3.7,0.5c-0.1-1.5-1.7-1.7-0.6-3.3c0.7-0.2,1.5-0.2,1.4-1.4c-0.3-0.2-0.7-0.4-1-0.6   c1-0.9,3.2-1.4,2.2-3.2c2.3-0.4,2.2-2.8,3.3-4.2c-0.2-0.4-0.4-0.8-0.6-1.3c0.7-0.7,2-1.7,2-2.6c-0.5-0.6-1-0.4-1.3,0.2l0,0   c-1.4-1.6,0-1.7,0.8-2.9c-0.4-0.6-0.9-1.1-1.4-1.6c0-0.2,0-0.5,0-0.7c4.9,0.1,2.5-0.1,4.7-2.9c1.7,0.1,1.2-1.8,1.3-3   c1.1,0.3,2.1,0.9,3,0c2.3,0.9,4.5,2.5,7.3,2.4c0.3,0.4,0.6,0.8,1,1.4c1.7-1.9,4.3,1.1,5.7-1.5c0.1,1.5,1.1,1.8,2.2,0.8   c2.4,4.2,4.2,9.1,4.8,13.8c-1.9,0.6-5.9-0.9-6.2,1.6c-6.2,5.4,6.8,12.8-0.3,17.5c2.7-0.8,3.6-0.9,4-3.4c-1.1-2.9-3.2-5.5-3.4-8.7   c0.2,0,0.5,0,0.7-0.1c1,2.4,2.9,3,5.2,1.6c1,5.9,1.3,11.7-1.6,17.2c-0.2-0.2-0.5-0.5-0.7-0.7c-0.7-3.8-9-0.1-11.7-1.3   c-0.6-0.2-1.2,0.2-1,1.3c0.7,0.2,1.5,0.5,2.3,0.8c0.7,0.8,1.7,1.4,1.7,2.6c1.9,1.3,4.4,1,6.6,0.3c0.5,0.2,1.2-1,1.6,0.1   c-0.7,2.9-1.3,5.8-3.6,8C467.2,179.4,465.3,179.3,463.7,180.7z M459.2,145.7c-2.1-0.1-3.9,0.2-5.4,1.9c0.2,0.6,0.3,1.2,0.5,1.8   c1-0.2,1.8-0.5,2.6-0.7c0.1,2.3,3,3.4,4.5,0.7c0.4,0,0.9,0,1.6,0c-0.1-1.3-0.2-2.4-0.3-3.7C461.4,145.7,460.3,145.7,459.2,145.7z    M461.5,143.3c1.4,0.1,2.7,1,4.2,0.5c0-1.4-1-1.2-1.8-1.3c-3.2-1-10.5-2.9-11,1.8C455.7,142.3,458.5,142.7,461.5,143.3z M469,160.7   c0-0.3,0-0.7,0-1c-1.2-0.5-2.3,0.3-3.5,0.6c-0.5-0.2-1-0.4-1.5-0.6C463.7,162.7,467.3,160.8,469,160.7z M468.4,164.2   c0.2,0,0.3,0,0.5,0C468.8,162.7,468.4,162.8,468.4,164.2z" />
	<path fill="#020202" d="M447.2,372.4c0.3,0.8-0.3,1.9,0.8,2.5c4.3,27.9,26.6,53.4,24,82.9c-0.1,13-8.5,25.7-4.8,39   c4.6,18.4,5.3,39.2,3.3,57.3c-2.8-10.7,1.3-24.2-1.5-35.1c-6.6-27-5.7-38.8,1.4-65.4c-0.8-25.3-18.3-46.3-22.5-70.8   c-0.9,14.8-0.1,30-5,44.4c-2.1-7.5,1.6-16.3,1.4-24.2C445,392.7,444.2,382.3,447.2,372.4z" />
	<path fill="#050404" d="M489.1,548c9.4-0.6,10,21.3,27.9,21.6c8.3,1.8,5.3,6.6,2.2,11.8c-11.6,7.1-29.6,7.6-41.9,2.4   c-7.2,2.9-13.8,1.5-20.2-2.1c3.4-3.9,3.3-9.1,4.5-14c0.5-0.3,0.9-0.5,1.4-0.8c0.7-2.5,0.4-5.6,2.2-7.7c0.3,0,0.6,0,0.9,0.1   c-0.5,4.9-1.3,9.8-1.6,14.8c-2.1,1.7-3.3,3.8-3.9,6.6c4.6,2.6,10.6,2.8,15.7,1c9.1,3.2,46.2,8,42.6-9.3c-5.2-0.9-10-2.8-15.1-3.6   c0.1-0.8,0.2-1.4,0.3-1.9c-2.1-0.9-2.9-3-4.5-4.5c-0.3,0-0.5,0-0.8,0l0.1,0.1c-0.3-5.5-9.1,4.1-11.1,0.5c1.9-3.3,6.1-2.7,8.9-4.7   c-0.4-0.7-0.8-1.4-1.2-2c-3.2,1.9-7.4,2.2-9.5,5.2c-5.5-4.1,5.2-5.9,7.9-7.4c-1.4-2-2.7-3.8-4.8-4.8   C489.2,548.7,489.1,548.4,489.1,548z" />
	<path fill="#060606" d="M402.6,221c-0.5,0-1,0-1.5,0c-0.7-3.1,0.9-6.9-0.8-9.7c2-8.4-3-17.7-0.4-26.5c4.4-20.8,1.7-42.7,6.1-63.6   c0.4-17.3-2.8-35.1,0.2-52.5c2.6,31.2,0.8,63-1.4,94.7c0.4,10.9-3.8,21.2-3.2,32C404.3,203.8,400.1,213,402.6,221z" />
	<path fill="#070606" d="M497.3,425.6c1.9-4.3,0.2-10.3,0.8-15.1c0.4,9.1,2.8,19.6,0.2,28.3c-0.6,4.9,2.3,9.5,0.8,14.3   c-0.2,29.7-5.9,59.1-11.5,88.3c-3.3-16.6,6.2-34.3,7-51.3C496.1,468.5,497.3,447.2,497.3,425.6z" />
	<path fill="#060606" d="M436.9,457.9c-5.6,32.9-19,64.3-19.6,98.1c1.3,0.6,2.5,0.3,3.7,0.2c0.3,0.6,0.5,1.2,0.8,1.8   c-0.5-0.1-1-0.1-1.4-0.2c-1.1-1-1.1-1-2.2,0c-0.7,0-1.5,0-2.2,0.1c0-0.6,1-1.3-0.2-1.7c0-35.4,13.2-68.6,20.4-102.9   C437.1,454.6,436.8,456.3,436.9,457.9z" />
	<path fill="#070605" d="M446.1,583c5.4,2.7,1.2,7.1,3.7,11.2c-12.1,7.3-29.8,6.5-43.5,3.8c-4.4-3.7-9.4,1.8-14.1-2.3   c2.7-8.1,2.5-16.7,4.9-24.8c0.3,0.9-0.3,2,0.9,2.5c-1.7,7.2-0.4,14.5-3.5,21.5c5.2,0.5,6.9-2.5,12.6,0.2   c12.7,4.4,26.7,2.7,39.3-1.3c-0.1-3.6,0.7-7-1.5-9.9C445.3,583.7,445.7,583.4,446.1,583z" />
	<path fill="#050404" d="M421.8,557.9c-0.3-0.6-0.5-1.2-0.8-1.8c0.3-0.2,0.5-0.3,0.9-0.6c6.6,7.1,8,17.8,16,23.3   c0.6,0.5,0.3,1.5,0.3,2.2c-1.5-0.6-2.9-1.5-4.6-1.5c-0.1-0.2-0.2-0.3-0.3-0.5c0.1,0.1,0.3,0.3,0.4,0.4c0,0.4,0,0.7-0.1,1.3   c-2.6,0.4-4.6-1.3-7.2-0.9c-0.6,0.1-1.3-0.5-1.9-0.7c0.3-3.5,5-1.1,6.7-3c-0.3-0.4-0.6-0.7-1-1.2c-3.5,0.9-6.9,1.8-10.4,2.7   c-0.5-1.9,1.1-2.5,1.8-3.5c2.3-0.7,4.6-1.4,7.1-2.1c-0.3-0.7-0.6-1.1-0.9-1.7c-2.6,0.7-5.1,1.2-7,3.1c-2.4,1.5-5.4,0.7-2.7-2.2   c1.9-0.6,3.5-1.7,5-3c1.2-0.1,2.6,0.5,3.9-0.7c-0.4-0.3-0.7-0.5-0.9-0.7c-0.3,0.2-0.6,0.5-0.9,0.7c-0.8,0-1.6-0.2-2,0.8   c-3.7-0.1-6,3.2-9.2,4.4c-1.4-0.6-1.3-0.9-2.1-2.3c3.7-3.2,8.1-4.7,12.6-6.1C423.8,562.1,422.8,560,421.8,557.9z" />
	<path fill="#070707" d="M492.1,271.8c10.7,20.1,3.5,44.4,11.6,65.3c0.2,5.6,4.6,9.9,4.4,15.5c-0.6,2,2.4,4.8,0.5,6.6   c-0.2,0-0.5-0.1-0.7,0c-7.2-21.9-11.8-43.9-12.1-67.1C496,285.5,490.1,277.9,492.1,271.8z" />
	<path fill="#161517" d="M407.1,71.9c0-1.1,0.1-2.3-0.8-3.2c0.2-3.7,0.5-6.8,0.8-10.6c-10.3,5.7-26.3-1.1-27-13.3c0.2,0,0.5,0,0.7,0   c6.1,22.3,28.2,11.4,32-6.1c6-16.8-1.8-44.5-23-33.4c5.5-4.6,11.5-5,17.9-2.3c-0.2,0.4-0.3,0.9-0.5,1.5c15.7,13.6,9.7,48.3-11,54.2   c5,1.4,9.5-1,13-4.2c0.3,0,0.5,0,0.8,0C408.4,60.1,408.1,66.2,407.1,71.9z" />
	<path fill="#1C1715" d="M475.8,141.1c-1.5-4.8-2.7-9.8-5.7-13.9c-0.5,0.5-0.8,0.8-1.1,1.2c-0.5-1.6-1.3-3-2.8-4.1   c-0.1,0.8-0.2,1.4-0.3,2l0,0c-2.7-3.4-6.5-6.5-11.1-5.3c-0.1,0.2-0.1,0.5-0.1,0.7c-2.2-1-11.4-2.9-11.2,0.9   c-1.3,0.2-4.1-0.7-3.7,1.5c-2.8-0.5-7.8,3.9-6.3,6.7c-2.6-0.5-2.3,3.3-0.8,4.5c-2.2-0.4-2.1,1.8-1,3c-1.8,1.6-0.3,2.5,0.7,3.7   c-2.5-0.3-0.5,2.8-2.2,3.7c0-1-0.4-1.6-1.4-1.5c-0.1-0.2-0.2-0.5-0.2-0.7c0.9-3.9,0.6-7.9,0.8-11.9c1.9,0.3,1.8-2.5,2.3-3.7l0,0   c1.1-1.5,1.9-3.7,4.1-3.7c1.1-1.2,3.7-1.6,3.1-3.5c0.5-0.1,1.1-0.2,1.7-0.4c-0.3-0.6-0.5-1-0.7-1.4c1.7,0.9,3.4,1.8,5.3,0.8   C459.1,117.3,479.4,124,475.8,141.1z" />
	<path fill="#0C0A0A" d="M423.3,20.7c1.8-5.3,5.3-9.2,10.3-11.7c0.6,0.2,1.4,0,1.7,0.8c-4.7,3.5-9.6,6.2-11.2,12.4   c2,0.5,3.8,1,5.5,1.5c0.3,1,0.6,1.6,0.9,2.4c12,5.2,1.2,18.7-7.8,20.4c-0.3-0.3-0.6-0.6-0.9-0.9c3-3.9,8.2-3.7,11.4-7.7   c0.2-2.5,1.7-5.3-0.5-7.9c-1.4,0-2.6,0-3.8,0c-0.4,2.2,2.1,2.2,2.5,3.7c-2.5,1.5-4.7,1.8-7.5,1.4c0-0.1,0-0.3-0.1-0.4   c1.4-0.7,3.3,0.5,4.1-1.4c-2.9-4.1,2.5-4.7,0.4-8.4c-0.7-0.2-1.2-0.4-1.7-0.5c-0.4,1-0.7,1.8-1,2.6c-0.3,0-0.5,0-0.8,0   c0.4-1.7,0-2.3-1.2-3.8c-1.1,2-1,3.3-1.2,5.3c-1.5-1.2,0.4-3.3-1.1-4.4c-0.1-0.5-0.1-0.9-0.2-1.4C422,22.1,422.8,21.6,423.3,20.7z" />
	<path fill="#050404" d="M398.1,573.5c-2.4-2.9-0.1-7.5,0.8-10.8c0.7,0,1.3-0.1,2.2-0.1c0.3-7,0.3-14.1,0.8-21.1c0.2,0,0.4,0,0.6,0   c0.7,8.6,3.6,18-1.2,25.9c-0.5,0.8-0.5,1.9,0.8,2.5c2.3-0.3,15.1-20.2,14-12c-4.8,4.5-8.7,13.2-15.6,13.9c-0.4-0.5-0.8-1-1.4-1.6   C398.6,571.4,398.3,572.4,398.1,573.5z" />
	<path fill="#161311" d="M486.8,538.9c0.3,0.8-0.3,2,0.9,2.5c-0.1,2.1-0.3,4.3-0.4,6.7c0.7,0,1.3,0,1.8,0c0,0.3,0.1,0.7,0.1,1   c-3.2,2.3-6.5,4.3-8.1,8.2c-4.7,7.5-15.8,11.1-13.7-2.2c-0.8,1.9-1.1,3-1.4,4.2c-0.3,0-0.6,0-0.9-0.1c0.2-3.5,1.6-6.4,4.1-9   c0-10.3-0.4-20.8-0.3-31.2c2.8,10.9-1.2,24.4,1.5,35.1c-1.8,2.6,0.4,5.2-0.9,7.9c8.1,2,9.9-9.1,15.8-12.4   C485.3,545.8,485.8,542.3,486.8,538.9z" />
	<path fill="#0D0B09" d="M474.3,199.3c3.8-0.1,5.9,3.4,7.5,6.3c1.5,4.4,5.7,6.7,8.3,10.3c4.9,6.5,4.6,16.2,0.2,22.9   c-0.9,1.4-3.7,4.8-5,2.3c12.7-11,2.7-27.5-8.1-35.7c0.2-0.2,0.5-0.5,0.7-0.7c0.5,0.2,1,0.5,1.5,0.7c0.1,0.2,0,0.8,0.5,0.3   c-0.2-0.1-0.4-0.2-0.6-0.3c-0.1-1.6-3.7-5.4-5.2-5.3l0,0c0-0.2,0-0.5,0-0.7L474.3,199.3z" />
	<path fill="#171719" d="M421.8,45.5c0.3,0.3,0.6,0.6,0.9,0.9c-7.7,15.1,13.8,19.8,21.6,8.9l0,0c-1.2,3.7-4.8,5.2-8.4,7.2   c4,1,6.1-1,9.1-2.8c0.3,0,0.5,0,0.8,0c0,0.2,0,0.5,0,0.7c-7.3,6.8-19.2,3.8-25-3.8c-1.3,4.8-1.4,8.4-2,12.9   C417.5,61.9,417.5,52.3,421.8,45.5z" />
	<path fill="#19171A" d="M435.3,9.8c-0.3-0.8-1.1-0.7-1.7-0.8c7.7-2.6,16.2,1.9,19.8,8.9c-0.3,0.3-0.6,0.6-0.8,0.9   c-1.9-3.5-4.3-5.9-6.2-6.3c9.2,12.5,7.5,30.5-1.3,42.9c-0.2,0-0.5,0-0.7,0l0,0C453.2,42.7,456.5,10.9,435.3,9.8z" />
	<path fill="#30323C" d="M389.8,5.4c0.3,0.2,0.7,0.6,0.8,0.5c5.3-4.4,13.7-4.6,17.8,1.6c-0.3,0.3-0.5,0.5-0.8,0.8   c-6.4-9-19.5-3-21.7,6l0,0c-1.2,0.7-3.5,4.9-2.3,6c-0.8,3-1.9,5.8-2.5,9c-0.8-0.3-1.4-0.5-1.9-0.7c0.3-1.8,1.5-3.7,0.1-5.2   C380.4,16.4,384.3,9.7,389.8,5.4z" />
	<path fill="#4C505D" d="M445.1,55.3c3.6-5.2,6-10.8,6.8-17.2c1.1-0.9,2.4-0.8,3.6-0.7c0.8,2.3-2.1,5.1,0,6.7   c-0.2,0.8-0.4,1.6-0.6,2.4c-0.1-0.5-0.2-0.9-0.4-1.6c-2.3,3.8-2.8,8.6-6.4,11.1C447.1,55.8,445.8,56.7,445.1,55.3z" />
	<path fill="#221F1D" d="M507.9,359.2c0.2,0,0.5,0,0.7,0c-1.8,8.7-5.1,16.6-7.8,25c-0.8-0.4-1.5-0.7-2.4-1.2   c-0.4,1.2-2.5,0.8-2.5,2.2c-1.4-1.1-0.8-3.3,0.1-4.5c0.3,0.1,0.7,0.2,1,0.3c1.3-1.1,1.4-2.4,1.3-3.9c0.4-0.3,0.9-0.1,1.4-0.1   c0,0.9,0.1,1.8,0.1,3.4C504.3,374,503.8,365.8,507.9,359.2z" />
	<path fill="#211E1E" d="M421.8,27.6c0.2,0.3,0.4,0.6,0.6,0.9c-0.5,1.7-2.5,3.7-0.3,5.2c2.2-1.3,1.5-4.5,2.7-6.6c0.3,0,0.5,0,0.8,0   c0.6,2.5-1.3,5.1-0.5,7.3c-0.4,0.1-0.8,0.2-1.3,0.3c0,0.1,0,0.3,0.1,0.4c1.4,0.1,2.7,0.1,4.1,0.2c-1.7,0.9-3.5,0.7-5.3,0.6   c-0.4-0.8-0.6-0.4-0.7,0.1c-1,0.7-2.2,1.3-2.9,2.3c0,0.2,0,0.4-0.1,0.6c-0.9-0.4-0.8-1.2-0.5-1.8c1.1-5.7,1.5-11.8,0.5-17.6   c0.3,0,0.5,0,0.8,0c0.8,1.5,2.1,1.9,3.6,1.2c-3.3,3.3-3.2,2.4-2.7,7.5C421.2,27.9,421.5,27.7,421.8,27.6z M420.9,34.5   c-0.3,0.4-0.6,0.7-1,1.1C421.3,36,421.4,35.6,420.9,34.5z" />
	<path fill="#44403D" d="M463.7,180.7c1.5-1.4,3.5-1.3,5.5-1.5c3.5-3.5,3.2-8.6,5.6-12.7c3.6-6.1-0.4-12.7,2.2-18.6   c0.4,6.4,2.2,13-0.7,19C473.5,172.8,472.6,183,463.7,180.7z" />
	<path fill="#0B0B0A" d="M486.8,245c0.7,7.2,1.6,14.7,3.2,21.4c-0.3,0.6-0.5,1.2-0.8,1.8c-0.4-0.7,0.4-1.8-0.7-2.2   c-2.8-7.2-4-14.7-3.1-22.4C485.9,244,486.3,244.5,486.8,245z" />
	<path fill="#3A322F" d="M477,147.9c-0.4,1-0.7,2.2-1.4,3c0-0.4,0-0.9,0-1.9c-0.7,1.2-1.1,1.8-1.5,2.5c-2.1,1.1-4.9-3-2.3-3.8   c0.8-0.5,2.1,0,2.5-1.3c0.4,0.2,0.9,0.3,1.4,0.5c0.3-0.9,0.6-1.7,0.9-2.8c-2.3-0.2-3.9-0.1-6.1,0l0,0c0-0.5,0.1-0.9,0.1-1.4   c1.7-0.1,3.4-0.2,5.3-0.3c0-0.4,0-0.9,0-1.3c1.1-0.8,0.2-2.1,0.6-3C477.5,141.2,478.5,144.9,477,147.9z" />
	<path fill="#1F1D1C" d="M436.9,457.9c-0.1-1.6,0.2-3.2-0.8-4.6c2.1-6.9,3.1-14,5.1-20.9C443.9,438.3,437.6,450.9,436.9,457.9z" />
	<path fill="#333336" d="M455.5,44.1c-1.2-0.6-0.9-1.7-0.6-2.5c1.2-7.5,1.3-16-2.4-22.9c0.3-0.3,0.6-0.6,0.8-0.9   C458.2,25.5,457.9,35.7,455.5,44.1z" />
	<path fill="#2B2A2A" d="M428.8,144.1c0.6,0,1.2,0,1.3,0.8c-4,7.5-0.3,17.3-2.8,25.3c-0.5-3.9,0.5-8.3-1-11.8   C427.1,153.7,426.3,148.4,428.8,144.1z" />
	<path fill="#2A2A2D" d="M379.4,23.2c1.3,6.7-1.9,14.8,1.4,21.7c-0.5,0-1,0-1.4,0C376.7,38.2,377.4,30,379.4,23.2z" />
	<path fill="#2C2528" d="M419.6,19.5c-0.3,0-0.5,0-0.8,0c-1.1-1.6-0.8-3.7-2.2-5.2c-0.1-1.8-4.2-8.3-6-6.7c-1.2-1-2.4-2-3.5-3   c0.2-0.6,0.4-1,0.5-1.5C414.8,5.4,418.4,13,419.6,19.5z" />
	<path fill="#1B1818" d="M460.9,180.8c4.6-3.8-0.4,10.3,0.6,12.6c0,0,0,0,0,0c-0.2,0-0.4,0-0.6,0   C458.8,189.5,460.3,184.9,460.9,180.8z" />
	<path fill="#272524" d="M402.4,541.4c-0.2,0-0.4,0-0.6,0c-2.2-2.2,0.5-6-1.5-8.3c-0.3-2.2-0.5-4.5-0.8-6.7c1.4-0.9,0.5-3.1,0.8-4.6   C402,528.1,401.1,535.4,402.4,541.4z" />
	<path fill="#C0C0C0" d="M427.1,148.6c0.1,4.9-1.3,9.6-1.6,14.4c-1.2-5.6-0.5-12,0.8-17.4C426.4,146.7,426.3,147.8,427.1,148.6z" />
	<path fill="#2E3032" d="M448.1,56.1c3.6-2.5,4.1-7.3,6.4-11.1c0.2,0.7,0.3,1.1,0.4,1.6c-1.4,4.5-3.5,8.5-6.8,11.8l0,0   c-0.2,0.3-0.5,0.5-0.7,0.8l0,0c-0.3,0.3-0.5,0.5-0.8,0.8c0,0,0,0,0,0c-0.5,0-1-0.1-1.6-0.1C446.1,58.6,447.1,57.3,448.1,56.1z" />
	<path fill="#493733" d="M456.5,119.4c-3.8,0-7.6,0.1-11.4,0.1c-0.7-1.4-0.7-1.4-2.3-0.7c-1-1.8-2.7-1.8-4.4-1.3   c-0.3-0.9-1.1-0.9-1.8-1c3.8-1.9,7.1,0.8,10.6,2.5C450.1,118.8,453.3,118.5,456.5,119.4z" />
	<path fill="#2F2926" d="M436.6,116.4c0.9,0.1,2.1,0.4,1.8,1.7c-2.1-0.3-4.2,0.1-5.3,2.2c0,0,0,0,0,0c-0.8,0.9-1,2-1.5,3l0,0   c-1.1,0.8-0.6,2-0.6,3l-0.2-0.1C428.4,121.9,431.8,116.7,436.6,116.4z" />
	<path fill="#221C17" d="M467.1,196.3c2.8,0.1,5,1.5,7.2,3l-0.1,0.1c-0.2,0.1-0.4,0.2-0.5,0.2c0.2,0.2,0.4,0.3,0.5,0.5c0,0,0,0,0,0   c0,0.3,0,0.5,0,0.8c-0.3,0.3-0.5,0.5-0.8,0.8C472.4,200.6,464.8,197.3,467.1,196.3z" />
	<path fill="#2E261D" d="M467.1,196.3c-1.3,0.2-0.2,1,0.4,1.5c-0.3,0.3-0.6,0.6-0.8,0.9c-0.7-0.5-1.4-1-2.2-1.5   c0.2-0.1,0.8,0,0.3-0.5c-0.1,0.2-0.2,0.4-0.3,0.5c-1.2-0.5-2.2-1.4-3.1-2.3c0-0.5,0.1-1,0.1-1.5l0,0   C463.6,193,465.2,195.4,467.1,196.3z" />
	<path fill="#2B201E" d="M438.3,581.1c0-0.5,0-1.1,0-1.6c2.1,2.3,5.9,0.9,7.8,3.5c-0.4,0.3-0.7,0.7-1.1,1   C442.8,583,440.1,582.9,438.3,581.1z" />
	<path fill="#2F2E2D" d="M442.2,434.2c-0.2-0.7,0-1.5-0.9-1.8c-0.1-2.8-0.4-5.6,0.7-8.3C442.5,427.4,444,430.7,442.2,434.2z" />
	<path fill="#312E2D" d="M489.2,268.1c0.3-0.6,0.5-1.2,0.8-1.8c0.7,1.8,1.4,3.7,2.1,5.5c-0.8,0.2-0.6,0.9-0.8,1.5   C490.6,271.6,489.9,269.8,489.2,268.1z" />
	<path fill="#413C35" d="M430,123c-0.2,1.5,0.7,2.6,0.8,3.9c-0.8,1.2-1.3,2.5,0,3.7c-0.1,0.9-0.8,0.8-1.4,0.8   C428.5,129,429.4,125.7,430,123z" />
	<path fill="#382F2C" d="M486.8,245c-0.5-0.5-1-1-1.4-1.5c-0.5,0.3-0.9,0.6-1.4,0.9c-0.1-0.9-0.4-1.7-1.5-1.6c0.6-1.1,2-0.9,2.8-1.7   c0.2,0.9,0.9,0.8,1.5,0.9C486.8,243,486.8,244,486.8,245z" />
	<path fill="#232121" d="M400.3,211.4c1.5,2.4,0.3,5.7,0.6,8.4C400,217,400.1,214.2,400.3,211.4z" />
	<path fill="#3F4343" d="M447.4,387c-0.3-1.4-0.1-2.8,0.4-4.3c0.3,1.7,0.6,3.4,0.9,5C448.2,387.5,447.8,387.2,447.4,387z" />
	<path fill="#272524" d="M398.8,521.2c1.2,1.3,0.5,3.1,0.6,4.6C398.7,524.4,398.6,522.8,398.8,521.2z" />
	<path fill="#4A4745" d="M400.3,533.1c1.3,1.1,0.6,2.6,0.6,3.9C400.2,535.8,400.2,534.5,400.3,533.1z" />
	<path fill="#3D3934" d="M462.5,193.3c-0.3,0-0.7,0.1-1,0.1c0-1.1,0.1-2.1,0.1-3.2C461.9,191.3,462.2,192.3,462.5,193.3z" />
	<path fill="#232121" d="M401.1,221.1c0.2,0,0.5,0,0.7,0c0,1-0.1,2.1-0.1,3.1C400.9,223.3,400.9,222.2,401.1,221.1z" />
	<path fill="#4A4745" d="M401.1,540.6c0.2,0.3,0.5,0.5,0.7,0.8c-0.1,0.8-0.1,1.6-0.2,2.3C400.9,542.8,401,541.7,401.1,540.6z" />
	<path fill="#BCA98D" d="M428.8,144.1c-0.3,0.5-0.5,1-0.8,1.5c-0.1-0.8-0.3-1.7,0.6-2.3C428.6,143.7,428.7,143.9,428.8,144.1z" />
	<path fill="#232121" d="M400.9,206.6c0.1,0.9,0.5,1.9-0.6,2.5C400.5,208.3,400.7,207.5,400.9,206.6z" />
	<path fill="#312E2D" d="M489.8,265.1c-1-0.6-0.7-1.6-0.6-2.5C489.9,263.4,490,264.2,489.8,265.1z" />
	<path fill="#373A46" d="M379.4,44.9c0.2,0,0.5,0,0.7,0c0,0.6-0.1,1.1-0.1,1.7C379.7,46,379.6,45.4,379.4,44.9z" />
	<path fill="#4A4E5B" d="M419.5,18.7c-0.7-0.4-0.7-1-0.5-1.6C419.2,17.7,419.4,18.2,419.5,18.7z" />
	<path fill="#343943" d="M445.8,59.8c0.3,0,0.5,0,0.8,0.1c-0.3,0.2-0.5,0.5-0.8,0.7C445.8,60.3,445.8,60.1,445.8,59.8z" />
	<path fill="#343943" d="M446.6,59.9c0.3-0.3,0.5-0.5,0.8-0.8C447.1,59.4,446.9,59.6,446.6,59.9z" />
	<path fill="#343943" d="M447.4,59.2c0.2-0.3,0.5-0.5,0.7-0.8C447.9,58.6,447.6,58.9,447.4,59.2z" />
	<path fill="#343943" d="M448.1,58.4c0.2-0.3,0.5-0.5,0.7-0.8C448.6,57.8,448.3,58.1,448.1,58.4z" />
	<path fill="#3D3934" d="M463.8,194.1c-0.3-0.2-0.6-0.4-0.8-0.6C463.3,193.7,463.6,193.9,463.8,194.1z" />
	<path fill="#F6D9C7" d="M486.8,538.9c-1,3.4-1.4,7-1.4,10.7c-4.2,2.6-5.8,7.5-9.4,10.6c-3.8-2.5,1.2-7.9-1.7-11.3l0,0   c0-1.3,0-2.5,0-3.8c2.8-2.1-2.7-15.4-0.8-16.4c0.1,0.4,0.2,0.8,0.4,1.2c3.8-10.2-1-21.8-2.4-32.3c0.3-12.2,1.3-25.8,5.1-37.5   c4.2,5.4,6.8,9.6,7.1,16.4c1.4-2.8,0.9-5.2,1-7.6c0.9-0.1,1.9-0.2,2.8-0.3c-3-10.7-12.7-18.2-13.6-29.6c-2.6-23.2-11.7-45-16.1-68   c10.3-2.6,20.4-3.3,31.2-3.5C505.4,423.6,494.8,482.7,486.8,538.9z M466,374.8c-0.1,1.1-0.3,2.3,0.6,4.1c-0.3-3.4,0.9-4.4-0.1-7.4   C465.6,372.8,466,373.8,466,374.8z M483,486.7c-1.2,1.5-0.5,3.2-0.3,4.9c1-2.7,1.9-4.8,0.5-8.1C483.2,485.1,483.1,485.9,483,486.7z    M491.1,456.1c2.7-2.2,4.1-9.6-1.2-9.6C485.4,447.3,490,453.7,491.1,456.1z M469.2,405c0.2,0,0.3,0,0.5,0c-0.1-1,0.5-3.9-1.3-2.6   C468.6,403.2,468.9,404.1,469.2,405z M467.9,392.4c-0.5,1.7-0.5,1.7,0.2,3.4C468.1,394.8,468.8,393.6,467.9,392.4z M480.4,501.4   c1.3-1,1.3-1,0.7-2.2C480.2,499.7,479.9,500.4,480.4,501.4z" />
	<path fill="#F6D9C7" d="M442,424c-5.7,44.4-25.8,86.8-26.3,132.1c-4.2-0.4-5.8,7.3-9.5,9.1c-1.4-6.1,1.1-13.7-0.5-20.3   c-0.8-3.4,3.7-7-0.4-9.7c0.4-1.7,2.2-3,1.3-4.7c-1,0.2-1.2,1.1-1.3,1.9c-2-4.3,0.4-9.4,0.9-13.9c1-6.6-1.8-13.4,0-19.7   c0.3-1-0.6-1.4-1.2-1.9c-0.8-6-3.3-14.6,2.7-18.7c-0.1-2.5,0.5-4.8,1.4-7.1c3.4-3.1,3.8-9.1,7.3-12.3c1,4.7,1.9,9.1,2.9,13.8   c2.4-3.8,1.7-9,1.8-13.4c-1.4-2.4,0-5.2-1.3-7.6c2.4-4.8-3-8.5-1-13.3c1.3-24.4-3.4-49-3.1-73.2c10.5,0.5,22.1,0,31.5,5.1   C444,387.9,444.6,406.1,442,424z M429.5,441.3c1.6-1.7,3.7-2.7,4.4-5.1c0.7-0.6,0.9-1.3,0.4-2.3c-1.4,2.3-5.1,3.9-5,6.7   c-1.2-0.1-1.3,1.2-2.1,1.5c-1.2,0.3-0.6,1.5-1.2,2.1c-0.6,0.7-1.3,1.5-1.8,2.1c-0.1,3.8,0.8,10,3.5,12.1c2.3,0.3,4.3-0.3,3.8-2.8   C429.8,451,430.3,445.8,429.5,441.3z M427.8,463.5c-0.9,1.3-0.5,8.1,1.5,6.2C428.8,467.7,428.3,465.6,427.8,463.5z M406.3,484.1   c0.5-0.9,0.9-1.9,0-3.3C406.3,482.3,406.3,483.2,406.3,484.1z M406.7,523.7c-0.9,0.2-1.6,1.7-0.4,1.8   C407,525.1,407,524.5,406.7,523.7z M422.2,454.3c-0.6,0.7,0.1,1.1,0.3,1.7C423.5,456.1,423,454.5,422.2,454.3z M405.6,491.7   c0.1,0,0.2,0,0.4,0c0-0.5,0-1,0-1.5c-0.1,0-0.2,0-0.4,0C405.6,490.7,405.6,491.2,405.6,491.7z" />
	<path fill="#FF9A77" d="M427.1,317.4c11.7,1.8,22.9,7.8,35.2,6.7c5.8-1.2,11.6-0.5,17.6-0.7c0.5,14.4,3.5,27.8,8,41.4   c-10.1,0.2-20,0.5-30,2.7c-2.2-4.8,3.9-10,1.9-15.7c-8.4-0.6-11,8.6-11.9,15.5c-8.3-3.6-17.2-4.3-26-5.2c-1-1.6-3.2,0.1-4.3-1.3   c-0.6-7.9,1.3-15.6,3.3-23.3c3.6-1.1,12,3.1,13.3-0.8c-3.8-3-10.4-0.6-12.3-4.2c2.4-0.5,4.4,0.5,6.3-0.6c-1-2.3-3.5-2.1-5.4-3.4   c1-3.6,2-7.3,3-10.8C426.4,317.5,426.8,317.4,427.1,317.4z" />
	<path fill="#F6D9C7" d="M418.9,38.9c0.1-0.2,0.2-0.4,0.1-0.6c3.1-3.9,8.5-1.5,12.4-4.7c-0.4-1.5-3-1.6-2.5-3.7c1.2,0,2.4,0,3.8,0   c2.2,2.5,0.7,5.3,0.5,7.9c-30.1,14.1-6.3,50.6-8.3,75.7c1.8,19.9-4.7,39.9-0.6,59.7c2.8,14.2,13.3,18.9,9.5,36.7   c-0.4-0.1-0.7-0.2-1.1-0.2c-1.8-2.7-8.2-31.8-11.5-22.4c0,1.5-0.3,3,0.5,4.4c0.1,0.2-0.4,0.7-0.6,1.1c-1.6,1.7,3.8,7.7,3,11.1   c0.1,8.1,0.8,16,2.3,24c-11.7,17.2-22.6-11.4-20.8-22.1c1.7-1.1,3.9-1.9,5.1-4.3c-5.9-14.5-1.5-18.3-0.4-31.7   c-2.5-2.3-0.2-4.9-0.4-7.7c2.8-11.3,1.1-23.9,2.4-35.6c1.5-0.1,2.8-0.2,4.1-0.4c0.6-0.7,1.2-1.4,1.8-2.1c0.4-7.5-7-12.7-7.6-20.1   c0.2-14.7-0.3-29.6,0.2-44.3c1.1-3.2-0.1-6.3,2.9-8.7c1.4-0.7-0.1-3,1.8-3.6c0.2,0.6,0.5,1.1,0.8,1.8c0.8-1.7,1.1-2.8,0.4-4.5   C418,43,418.6,41,418.9,38.9z M420.1,186.5c0-0.8,0-1.7,0-2.7C418.7,184.8,418.7,184.8,420.1,186.5z M414.8,55.9   c0.5-0.6,1.5-0.9,0.5-2C414.4,54.3,414.2,54.9,414.8,55.9z M415.2,59.6c-0.1-0.7-0.2-1.2-0.2-1.9C413.9,58.8,413.9,58.8,415.2,59.6   z M419.9,179.6c0.2,0,0.3,0,0.5,0c0-0.8-0.1-1.5-0.1-2.3c-0.2,0-0.3,0-0.5,0C419.8,178.1,419.8,178.8,419.9,179.6z" />
	<path fill="#F6D9C7" d="M448.8,260.7c0.4-0.1,0.7-0.1,1.1-0.2c0.4,0.5,0.8,1,1.1,1.4c9.9-0.5,19-0.8,29-1.1   c-0.6,20.4-3.3,40.3,0,60.6c-11.5,0.4-21.4-2-32.5-2.1c-3.9-4-5-11.3-10.7-13.2c-0.6-0.7-0.6-1.9-1.8-2c1.3,6.4,3.9,8,3.9,14.1   c-4.1-1.2-9.2-1.1-12-4.8c2.3-5,3.1-11.1,6.7-15.5c-0.5-6,0.9-12.9,1.9-19.2c1.8,1,2.9,3.5,5.8,2.8c-1.1-3.8-2.2-7.7-5.1-10.6   c0.7-1.3,0.1-3,1-4c1.9,0.8,2.5,3.6,5.2,3.1c1.1-3.2-1.3-5.6-1.8-8.6C443.5,260.8,446.7,262.4,448.8,260.7z M452.5,283.7   c-1.4,1.8-0.6,3.7-0.3,5.6c0.4-4,3.7-5.6,4.2-9.5C454.3,281,453.7,282,452.5,283.7z M468.4,289.8c-2.8,5.4-2,10.9-3,16.9   c-0.2,1.6-0.7,4.3,0.7,5.4l0,0c0.1,0.6,0.5,0.8,1.1,0.6c2.5-3.1,1.6-6.9,2.4-10.6c-0.3-0.4-0.6-0.9-1-1.4   c1.3-5.9,1.8-11.9,0.9-17.9C468.8,285.5,468.4,287.6,468.4,289.8z M460.7,276.3c4.1-3.5,5.9-8.8,9.7-12.4   c-5.1,0.5-9.5,10.4-12.5,14.5C459.4,277.8,459.4,277.8,460.7,276.3z M472.9,264.5c1.7,2,1.7,2,3.3,2.3   C475.2,266.1,475.1,264.1,472.9,264.5z M450,296.6c-1.1,2.1-1.1,2.1-0.9,4.4C449.6,299,450.7,298.3,450,296.6z" />
	<path fill="#FFF0A7" d="M466.6,198.7c0.3-0.3,0.6-0.6,0.8-0.9c11.1,7.8,27.2,19.9,23,35.2c-4.2,0.8-9.9-0.4-12.5,3.6   c0,1,0,1.9,0,2.6c1.3,1.5,2.5,2.9,3.7,4.3c-0.7,5.2-1,10.3-1.5,15.5c-13.3,0.9-26.4-0.6-39.6-0.6c-0.4-2.2-0.8-4.3-1.1-6.4   c2.2-2.1,3.4-5.6,6.4-6.4c8.9,2.7,24.1,2.7,27.6-7.8c-3.9-3.2-9.5,0.9-13.6,1.8c-8-2.4-16.1-5.6-21.8-11.9   c-2.2-2.5-2.1-2.6-4.8-3.5c-0.1-0.4-0.2-0.7-0.2-1.1c4.9-9.4,3.3-19.6,2.2-29.6c0.3-0.3,0.7-0.7,1-1c13.8,7.9,23.9,22.3,38.9,27.6   c1-0.9,4.7-1.9,2.8-3.6C478,208.5,472.4,203.4,466.6,198.7z" />
	<path fill="#E1C7B6" d="M407.6,476.3c0,0.6,0,1.2,0,1.9c-5.9,4.2-4.3,15.4-1.4,20.6c-1.9,6.3,1,13.1,0,19.7c-0.2,4.6-3.8,11,0,14.7   c-0.3,0.7-0.6,1.3-0.9,2.1c0.6,0.6,1,1.1,1.6,1.7c-0.1,1.4,0.4,3.2-0.7,4.4c0-1.3,0-2.6,0-4c-1.3,1.2-2.1,3.5,0,4   c-1.5,2,0,4.4-0.1,6.7c-0.4,0.1-0.9,0.2-1.5,0.3c0.8,3.3-1.8,11.1,1.5,12.2c-0.8,1.4-1.3,3.3,0,4.5c-1.4,1.5-2.3,3.6-4.3,4.5   c-1.3-0.6-1.3-1.8-0.8-2.5c5.1-9.1,1.7-20.3,0.7-29.8c-4.5-54.3-10.1-37.4,10.2-88.6c7.1-27.7-10.8-54.8-10-82.5   c6.1-1.8,12.3-2.9,18.4-1.2c-1.6,0-3.2,0-4.8,0c-0.3,24.2,4.5,48.8,3.1,73.2c-2.1,4.8,3.4,8.6,1,13.3c1.3,2.4-0.1,5.2,1.3,7.6   c-0.1,4.4,0.6,9.6-1.8,13.4c-1-4.7-1.9-9.2-2.9-13.8c-3.5,3.2-3.8,9.2-7.3,12.3c0-0.9,0-1.9,0-3   C407.2,468.6,406.1,475.3,407.6,476.3z" />
	<path fill="#E1C7B6" d="M474.2,545.1c0,1.3,0,2.5,0,3.8c-1.5,2-1.1,4.6-0.4,7c1-2.6,0.2-4.8,0.4-7c1.6,2.5,0.8,6.3-0.1,9.2   c-0.8-0.4-1.2-1.5-2.5-1.4c0.8,1.8,0.6,3.2,2.6,4c0.1-0.9,0.1-1.5,0.1-2.1c0.5,0.5,1.1,1.1,1.6,1.6c-1.8,1.5-3.6,3-6.3,1.8   c2.8-20.7,3.1-43.9-2.4-65.1c-3.7-13.3,4.7-26,4.8-39c1.8-28-16.3-53-24-79.1c-0.6-9.8,2.7-6,9.7-7.6c4.4,23,13.5,44.8,16.1,68   c1,11.4,10.7,18.9,13.6,29.6c-3.2,1-5-2-4.2,2.5l-0.3,0c-0.9-4.3-4-7.3-6.4-11.1c-3.9,11.7-4.8,25.3-5.1,37.5   c1.4,10.5,6.2,22.1,2.4,32.3c-0.1-0.4-0.2-0.8-0.4-1.2c1.3-1,0.7-2.2,0.5-3.9c-0.7,1.6-0.4,2.7-0.5,3.9c-1.8,1.2,0.5,3.7,0.7,5.3   C471.9,537.3,477.1,541.7,474.2,545.1c0-1.1,0.3-2.2-0.4-3.2C473.6,543,472.6,544.2,474.2,545.1z" />
	<path fill="#F6D9C7" d="M484,244.3c0.5-0.3,0.9-0.6,1.4-0.9c-1,8.3,0.6,16.3,3.7,24c8.6,19.2,6.4,40.4,10,60.6   c2.1,10.6,6.5,20.6,8.7,31.1c-4.1,6.7-3.5,14.8-8.2,21.3c-0.1-4.5,0.1-8.3,2.5-12.2c1.2-4.3-1.2-9.8-0.4-14.7   c-5.7,4.4,3.6,13.8-4.1,16.8c1.8-9.5-9.1-18.4-3.7-27.3c1.5-0.5,2.4-1.7,2.5-3.2c-2.9-15.2-10-29-14.9-43.4   C481.4,279.1,481.6,261.5,484,244.3z M486.8,272.5c1-2.9,1-3.8-0.7-6.2c0.1,3.5-0.7,5.8,0.7,8.7   C486.8,273.9,486.8,273.2,486.8,272.5z M486.1,275.8c-0.2,0-0.3,0-0.5,0c0,0.6-0.1,1.2-0.1,1.8c0.2,0,0.3,0,0.5,0   C486,277,486,276.4,486.1,275.8z" />
	<path fill="#EBDA8F" d="M433,223.2c0.1,0.4,0.2,0.7,0.2,1.1c2.7,0.9,2.6,1,4.8,3.5c5.7,6.3,13.8,9.6,21.8,11.9   c3.8-1.2,8-3.5,12.2-2.9c-1.7,7-9.5,7-14.1,10.3c-0.8,0-1.6,0-2.4,0.1c0.2-0.4,0.7-0.7,0.2-1.4c-5,0.5-9.5-2.1-14.3-3   c1.1,1.6,2.9,2.1,4.5,2.9c-3,0.8-4.2,4.3-6.4,6.4c0.4,2.1,0.7,4.2,1.1,6.4c-6.4,0.9-12.8,0.6-19.3,1.4c-3.8-7.7-8.8-15.3-12-23.2   C419.5,238.5,428.6,232.1,433,223.2z" />
	<path fill="#EF8A6A" d="M427.1,317.4c-0.4,0.1-0.7,0.2-1.3,0.3c-1,3.5-2,7.2-3,10.8c1.8,1.4,4.4,1.1,5.4,3.4   c-1.9,1.1-4,0.1-6.3,0.6c1.9,3.6,8.6,1.3,12.3,4.2c-1.3,3.9-9.7-0.3-13.3,0.8c-2,7.7-3.9,15.4-3.3,23.3c1.1,1.4,3.4-0.3,4.3,1.3   c-5,0.1-9.5-0.1-14.6-0.9c0.3,0.6,0.5,0.9,0.7,1.4c-1.6,1.4-3.9,0.8-5.9,1.7c-3.4-17.2-0.8-36.1,8.4-51.3   C416.5,312.9,421.8,314.9,427.1,317.4z" />
	<path fill="#E1C7B6" d="M411.4,54.6c-1.5,16.2-0.4,32.9-0.8,49.4c0.6,7.4,8,12.6,7.6,20.1c-0.6,0.7-1.2,1.4-1.8,2.1   c-1.3,0.1-2.6,0.2-4.1,0.4c-1.3,11.7,0.5,24.4-2.4,35.6c-1.5-3.3,1.3-5.3,0.3-9c-2.2,3.4-1.6,6.9-2.1,10.5c0.7-0.3,1.2-0.6,1.7-0.8   c0.1,2.5-1.9,4.8,0.5,7c-1.2,13.4-5.5,17.3,0.4,31.7c-1.2,2.5-3.4,3.2-5.1,4.3c-1.6,7.5,4.9,27.4,13.4,28.1   c-4.1,2.4-8.2,0.5-12.2-1.4c-1.3-3.6-2.5-7.8-4.3-11.4c-2.8-34.1,4.7-68.4,4.8-102.8c1.8-20.9-4.4-43.7,3.4-63.6l0,0   C411,54.6,411.2,54.6,411.4,54.6z M410.5,120.4c0.7,1.5,1.5,3,3.5,3.9c0.9-2.4-1.4-4.1-3.3-5c-0.3-0.6-0.6-0.6-1.2-0.1   C409.8,119.6,410.2,120,410.5,120.4z M408.4,166.5c-2.7,4.5-2.7,4.5-2.6,6.5C407.2,171.3,407.8,170,408.4,166.5z" />
	<path fill="#E1C7B6" d="M448.8,260.7c-2.1,1.7-5.3,0.1-8.1,0.9c0.5,3,2.9,5.4,1.8,8.6c-2.7,0.5-3.3-2.4-5.2-3.1c-0.9,1-0.3,2.7-1,4   c2.9,2.9,4,6.8,5.1,10.6c-2.8,0.6-3.9-1.8-5.8-2.8c-0.9,6.2-2.4,13.1-1.9,19.2c-3.6,4.4-4.4,10.4-6.7,15.5c0.6,0.7,1.1,1.2,1.6,1.8   c-5.7-1.6-10.5-4.3-16.4-5c7.6-14.5,14.4-31.7,10-47.9C430.9,260.6,440,260.7,448.8,260.7z" />
	<path fill="#F5D9C7" d="M461.4,194.3c0,0.2-0.1,0.4-0.1,0.6c-0.6,0.2-0.6,0.7-0.4,1.1c5.2,5.7,12.2,10.6,14.9,18.2   c-0.3,0.3-0.6,0.5-0.9,0.8c-1.6-0.9-3.4-6.3-5.1-4.3c0.8,1.2,1.7,2.5,2.6,3.8c0,1.1,1.2,1.9,0.5,3.3c-9.1-5.4-17.5-12.8-25-20.6   c-0.5,0.1-0.8,0.2-1.2,0.4c-3.5-2.4-7.1-4.8-10.7-7.2c0-0.2-0.1-0.4-0.1-0.6c2-2.8,5-5,6.2-8.5c0.1-0.3,0.8-0.4,1.3-0.5   c0.4,1.6,0.3,3.3,1.6,4.5c0,1.2-0.3,2.5,0.6,3.8c1.3-2.1,1.2-2.3-0.7-3.8c0.1-0.6,0.1-1.3,0.2-2.5c3,5,10.8,5,10.3,11.3   c0.2,0,0.3,0.1,0.5,0.1c1-2.4,1.5-2.9,4-2.2C460.5,192.7,460.9,193.6,461.4,194.3z" />
	<path fill="#E0C6B5" d="M443.5,180.8c-0.4,0.2-1.1,0.2-1.3,0.5c-1.2,3.5-4.2,5.7-6.2,8.5c-1.5-0.8-2.4-2.1-3.1-3.6   c8.1-9.2,2.3-24.4,6.9-23.4c-0.3,2.6,1.1,6.1,3.4,7.3c-0.4-3.1-2.7-5.5-2.8-8.7c5,1.9,3.6,8.4,6.8,12c-1.7,3.7,7.7,5.5,10.5,6.6   c1.1,1.5,1.1,1.5,3.1,0.8c-0.7,3.7-1.5,7.3-0.7,11.1c-1.1,0.2-2-0.9-2.9,0.1c-0.1-0.4-0.2-0.9-0.4-1.5c-0.5,0.6-0.9,1.1-1.2,1.5   c-1.9-4.5-7.3-4.7-10.3-9.3c-0.1,1.2-0.2,1.9-0.2,2.5c0,0,0,0,0,0c-1-1.1-1.4-2.5-1.5-3.9c1.5-0.6,0.9-4.7-0.5-5.5   C442,177.6,443.6,179.1,443.5,180.8z" />
	<path fill="#FDFDFD" d="M493.6,372.6c-6.1-18.6-12.5-37.3-11.9-57.1c0.3-0.1,0.7-0.1,1.1-0.2c4.3,10.2,10.1,21.3,8.2,32.6   c-1.3,4,1.6,7.3,3.5,10.5c0.6,3.8,1.1,7.6,1.6,11.2C495.2,370.9,495.1,372.3,493.6,372.6z" />
	<path fill="#E0C6B5" d="M421.1,192.7c0.2-0.4,0.7-0.9,0.6-1.1c-0.8-1.4-0.5-2.9-0.5-4.4c3.3-9.4,9.7,19.7,11.5,22.4   c0.4,0.1,0.7,0.2,1.1,0.2c-0.4,6.6-2.7,13.2-7.4,18c-1.4-8-2.2-15.9-2.3-24c0.2,0,0.4,0,0.7,0.1c0.3,1.8,0.4,3.6,2.1,5.2   C426.2,203.2,424.2,197.8,421.1,192.7z M426.4,211.4c0.3,3.7-0.8,6.3-0.4,9.8C428.9,219.8,428.7,213.6,426.4,211.4z" />
	<path fill="#E0C5B5" d="M480.8,285.8c-0.8,16.2,10.8,28.8,12.7,44.4c-0.7-0.1-1.4-0.1-2.1-0.2C484.6,316.1,476.5,301.8,480.8,285.8   z M491.2,324.2c-0.2,0-0.3,0-0.5,0c0,0.6,0,1.2,0,1.7c0.2,0,0.3,0,0.5,0C491.2,325.4,491.2,324.8,491.2,324.2z" />
	<path fill="#0B0807" d="M436.1,190.4c3.6,2.4,7.2,4.8,10.7,7.2c0.4-0.1,0.7-0.2,1.2-0.4c7.4,7.8,15.9,15.2,25,20.6   c0.7-1.4-0.5-2.3-0.5-3.3c0.4-0.4,0.7-0.7,1.1-1.1c0.5,0.5,0.9,1,1.4,1.6c-0.1,1,0.4,1.8,1.3,2.2c0.6-0.2,1.1-0.5,1.7-0.7   c1.8,1.7-1.8,2.7-2.8,3.6c-15.1-6-26.7-19.7-39.8-29C435.6,191,435.9,190.7,436.1,190.4z" />
	<path fill="#EB8869" d="M454.7,352.5c1.6-0.2,3.3-0.4,5.1-0.7c2,5.6-4.2,10.8-1.9,15.7c-5.4,1.7-10.4,5.1-7.1-3.5   c-0.4-0.2-1,0.5-1.1-0.3c1.5-2.3,2.9-4.5,4.3-6.7c0.1,0.5,0.1,0.9,0.2,1.8c0.9-1.3,2.1-1.6,1.8-3c-0.7,0.5-1.4,0.9-2,1.3   c0.1-0.7,0.1-1.4,0.2-2C455,354.2,454.9,353.4,454.7,352.5z" />
	<path fill="#12100F" d="M482.4,311.3c4.9,9.6,10.2,19.3,11.5,30.1c1.2,0.1,1.1-2.1,2.6-1.6c-0.1,1.6-1.1,2.7-2.5,3.2   c-2.6,3.5-2,9.9,1.1,13.1c-0.2,0.8,0.3,1.7-0.6,2.2c-5.5-5.6-2.3-12.2-3.4-19c-1.3-8.6-4.7-16.4-8.3-24.2c-0.4,0.1-0.7,0.1-1.1,0.2   c-0.2-0.8-0.5-1.7-0.7-2.5C481.5,312.4,482,311.9,482.4,311.3z" />
	<path fill="#EBD98F" d="M481.7,243.5c-1.2-1.4-2.4-2.8-3.7-4.3c0-0.8,0-1.6,0-2.6c2.6-4,8.3-2.8,12.5-3.6   C489.4,238.1,485.5,240.7,481.7,243.5z" />
	<path fill="#201D1B" d="M494.5,358.4c1-0.5,0.5-1.5,0.6-2.2c1.2,3,1.5,6.5,2.8,9.5c-0.3,1.5-0.8,3-0.2,4.6   c7.7-2.9-1.6-12.4,4.1-16.8c-0.9,4.9,1.6,10.4,0.4,14.7c-2.1,2.6-1.8,5.8-2.7,8.8c-0.3,0-0.6,0-0.9-0.1c-0.1-1.7,1-3.9-0.6-5.1   c-1.7-0.8-4.2,2.1-1.9,2.7c0.2-0.4,0.4-0.8,0.5-1.2c0.2,0.2,0.5,0.5,0.7,0.7c0,0.2,0,0.5,0,0.7c-0.7,1.9-2,3.7-1.5,5.9l-0.2,0.1   c-0.4-0.8-0.9-1.6-1.3-2.4c1.1-0.7,0.3-3.2-0.6-3.9c-0.1,0.1-0.1,0.2-0.2,0.3c-1.4-0.8,0-1.6,0.1-2.3c1.5-0.3,1.6-1.7,2.5-2.9   C495.6,366,495,362.2,494.5,358.4z" />
	<path fill="#E0C5B4" d="M439,318.2c-0.2-1.6-0.4-3.1-0.6-4.7c0.4-0.1,0.9-0.1,1.3-0.2c-0.7-2.2-0.7-2.2-2.1-3.4   c-0.2-1.3-0.5-2.5-0.7-3.8c5.6,2,6.7,9.2,10.7,13.2c4.4,1,9.9-1,13.9,1c-7-0.4-15,1.4-21.3-2.3c-0.2,0.2-0.6,0.5-1,0.8   C439.1,318.6,439.1,318.4,439,318.2z" />
	<path fill="#221411" d="M454,356.9c-1.4,2.3-2.8,4.5-4.3,6.7c0.1,0.8,0.7,0.1,1.1,0.3c-0.1,2.1-3.2,6.2,1,5.7   c-0.7,1.2-1.6,0.8-2.5,0.5c-0.9-0.8,0.1-2.3-1.3-2.8c0.6-5,1.9-9.6,5.4-13.3c0.3,0.3,0.6,0.6,0.9,0.9   C454.1,355.6,454.1,356.3,454,356.9L454,356.9z" />
	<path fill="#D0CFCF" d="M426.5,159c1.7,5.8-0.5,13.5,2.9,18.8l0,0c0.6,1.7,1.2,3.4,1.8,5.2c-0.3,0-0.6,0-0.9,0   C425,175.8,425.9,167.2,426.5,159z" />
	<path fill="#413B34" d="M431.1,183c-0.6-1.7-1.2-3.4-1.8-5.2c1.2-1.3,0.6-3.7,0.5-5.3c-0.3-1.6,1.5-2,1-3.7c0.2,0,0.5,0,0.7,0   c0.5,3,0.1,6.2,2.2,8.7c-0.2,0.3-0.5,0.6-0.7,0.9c-0.3-0.5-0.7-0.9-1-1.4c-0.2,0.1-0.3,0.2-0.5,0.3c0.4,1.3,0.8,2.6,1.2,3.8   c0.5,0,0.8,0,1,0.1c-0.1,1-1.4,0.9-2,1.6C431.4,182.9,431.3,182.9,431.1,183z" />
	<path fill="#A9977E" d="M433.7,177.6c-2.7-4.1-2.1-9.5-2.7-14.1c1.6-1.4-0.5-3.8,1.2-5.2C432.3,164.9,433.3,171.3,433.7,177.6z" />
	<path fill="#332721" d="M439,318.2c0,0.2,0.1,0.4,0.2,0.6c-0.6,0.2-1.3,0-1.6,0.8c-3-1-6.3-1.1-9.2-2.1c1.3-0.1,2.8,0.2,3.9-0.8   C434.6,317.2,436.8,317.7,439,318.2z" />
	<path fill="#514239" d="M434.5,158.4c0.8,0.9,1.6,1.9,2.4,2.8c-0.7,0.3-2.1-0.3-2.2,0.8c0.1,0.8,0.7,0.7,1.3,0.7c0,0.8,0,1.7,0,2.4   c-0.6,0.3-1.1,0.5-1.5,0.7c-1.4-2.3-0.6-5.1-0.6-7.6C434.1,158.3,434.3,158.4,434.5,158.4z" />
	<path fill="#827460" d="M433.8,164.3c1.4,2.5,1,5.5,1.5,8.2c-0.4,0.4-0.8,0.8-1.5,1.5c0.2-3.7-0.3-6.4-0.5-9.7   C433.4,164.3,433.6,164.3,433.8,164.3z" />
	<path fill="#27221D" d="M433.7,168.1c0,1.8,0,3.6,0,5.9c0.7-0.7,1.1-1.1,1.5-1.5c0.1,1.3,0.4,3.3-1.5,3.1c-1.1-2.3-0.5-5-0.6-7.5   C433.3,168.1,433.5,168.1,433.7,168.1z" />
	<path fill="#F9FAFA" d="M426.5,159c-0.2,2.3,0.3,4.7-0.7,6.8c-0.1-2.4-0.7-5.1,0.6-7.4C426.4,158.6,426.5,158.8,426.5,159z" />
	<path fill="#8B7C68" d="M433.7,181.4c-0.2,0-0.5,0-1-0.1c-0.4-1.2-0.8-2.5-1.2-3.8c0.2-0.1,0.3-0.2,0.5-0.3   C433.1,178.3,433.4,179.9,433.7,181.4z" />
	<path fill="#271715" d="M436,161.4c0.5-0.1,1-0.1,1.6,0c0.3,0.7,0.9,0.7,1.5,0.7c0.2,0.3,0.5,0.5,0.7,0.8c-1.1,0.2-2.3,0-2.2,1.5   C436.9,163.4,436.3,162.5,436,161.4z" />
	<path fill="#675F59" d="M493.5,374.9c0.1-0.1,0.1-0.2,0.2-0.3c0.9,0.7,1.8,3.2,0.6,3.9C494.1,377.3,493.8,376.1,493.5,374.9z" />
	<path fill="#272524" d="M399.6,515.1c0.9,1.4,0.7,3,0.6,4.6C399,518.4,399.6,516.7,399.6,515.1z" />
	<path fill="#A59882" d="M436,161.4c0.1,0.3,0.2,0.5,0.2,0.8c-0.1,0.2-0.1,0.5-0.2,0.7C434.4,163.2,434.3,161.1,436,161.4z" />
	<path fill="#B0BA85" d="M435.4,191.2c0.3,0.5,0.6,0.9,0.9,1.4c-0.3,0.3-0.7,0.7-1,1C434.4,192.1,434.4,192.1,435.4,191.2z" />
	<path fill="#A69B9B" d="M431.1,183c0.2,0,0.4,0,0.5,0c-0.1,0.4-0.1,0.9-0.3,1.9c-0.6-1-0.9-1.5-1.2-1.9   C430.5,183,430.8,183,431.1,183z" />
	<path fill="#413B34" d="M433.7,180.9c-0.1-0.3-0.3-0.6-0.4-0.9C433.4,180.2,433.5,180.6,433.7,180.9z" />
	<path fill="#383029" d="M433.7,168.1c-0.2,0-0.4,0-0.6,0c-1.4-3.7-0.1-7.9-1.4-11.4c-1.9-4.3-1.5-4.5-0.1-8.8   c3.2-1.8,7.1-0.7,10.4-2.3c0.3,0.2,0.5,0.5,0.8,0.7c-0.6,0.4-1.2,0.8-1.8,1.3c0.4,0.2,0.7,0.4,1,0.6c0,1.9-2.2,1.2-3.4,1.4   c0,0.1,0,0.3,0,0.4c0.6,0.1,1.2,0.2,1.7,0.3c-0.8,1.2,1.1,1.4,0.9,2.6c-1.2-0.2-2.4-0.3-3.7-0.5c-0.1-0.1-0.1-0.2-0.2-0.3   c-1.2,0.7-2.1,2.2-3.4,2.5c-0.8-1.3,1.1-1.8,0.9-2.8c-0.2-0.2-0.4-0.4-0.6-0.5c-0.7,0.7-1.3,1.3-2,2c0-0.7,0.1-1.5,0.1-2.2   c0.7-0.4,0.6-1,0.6-1.6c0.8,0.2,1.7,0.4,3,0.6c-1.8-1.5-1.8-1.5-2.9-0.6c-0.9,0.1-0.8,0.8-0.9,1.4c-1.1,1.1-0.7,2.1,0,3.2l0,0   c-0.2,1.7,1.3,2.8,1.6,4.3C432.7,161.4,433.1,164.8,433.7,168.1z" />
	<path fill="#4D4237" d="M442.8,146.3c-0.3-0.2-0.5-0.5-0.8-0.7c-0.1-1-0.9-0.6-1.5-0.8c0-0.2,0-0.5,0-0.7c-0.3-0.3-0.5-0.5-0.8-0.8   c0.3-2.7-3.1-0.3-3.9-2c1.9-0.4,3.7-0.8,6.2-1.3c-2.7-0.4-4.7-0.8-6.7-1.1c0.3-0.2,0.5-0.5,0.8-0.7c1.3,0.1,2.6,0.2,4.8-0.3   c-2-0.6-3.1-1-4.2-1.3c1.3-1.3,2.6-0.2,3.9,0.1c1.7,0.3,3.5-0.3,5,0.7c0.1,0.1,0.5-0.5,0.8-0.7c0.3,0.3,0.6,0.6,0.9,0.9   c-0.5,0.5-1,1-1.5,1.5c-1.4-0.9-1.4-0.9-2.2,1.1c0.8-0.4,1.5-0.8,2.1-1.1c0.2,0.4,0.4,0.8,0.6,1.3c-1.2,1.4-1,3.8-3.3,4.2   C443.5,145.3,443.8,145.9,442.8,146.3z" />
	<path fill="#877F6D" d="M463.7,123.3c0.9,0.9,0.9,2.5,2.3,2.9c0.4,0.4,0.7,0.8,1.2,1c-0.5-0.2-0.9-0.6-1.3-1c0.1-0.6,0.2-1.1,0.3-2   c1.3,1,2.1,2.2,2.6,3.5c-1.4,2.6-4-0.3-5.7,1.5c-0.5-0.6-0.8-1-1-1.4c0.4-0.1,0.8-0.3,1.2-0.4c-1.8-1.5-3.4-2.9-5.5-3.6   c0.4-0.4,0.8-0.8,1.2-1.2c1.2,0.2,2.5,0.1,3.5,1.1C463,124.1,463.5,123.9,463.7,123.3z" />
	<path fill="#C3A496" d="M474.1,168c-0.4,1.1-0.9,2.1-1.3,3.2c-0.4-1.1-1.1,0.1-1.6-0.1c-0.8-1.8-4-0.4-5.8-0.8   c0,0.2-0.1,0.5-0.2,0.8c-0.2-0.1-0.6-0.2-0.6-0.3c0-1.3-1-1.8-1.7-2.6c3.4-1.1,7.2-0.1,10.4-0.8C473.6,167.5,473.9,167.8,474.1,168   z" />
	<path fill="#0D0A09" d="M457.9,123.9c2.1,0.7,3.7,2.1,5.5,3.6c-5.2,1.6-8.9-3.3-13.5-4.7c0.1-0.3,0.3-0.6,0.4-0.9   c2.1,0.1,4,0.7,5.9,1.3C456.6,124.1,457.2,124,457.9,123.9z" />
	<path fill="#3C2825" d="M473.4,167.3c-0.3,0.2-0.7,0.5-1,0.5c-3.9-1.4-8,1.3-11.7-0.5c-0.2-1.1,0.4-1.5,1-1.3   c3.8,0.9,8.1-1.9,11.6,0.8C473.4,166.9,473.4,167.1,473.4,167.3z" />
	<path fill="#60534C" d="M471,159.7c2.7-4.5-7-11.1-1.4-15.6c0.3,0,0.6,0.1,0.8,0.1l0,0c-0.2,1.7-3.1,4-0.6,5.3   c0.2,3.2,2.3,5.9,3.4,8.7c-0.4,0.9-0.3,2-1.3,2.5C471.7,160.3,471.4,160,471,159.7z" />
	<path fill="#584F44" d="M450.3,121.9c-0.1,0.3-0.3,0.6-0.4,0.9c1.7,0.9,3.6,1.1,4.9,2.7c-2.4,1-8.4-2.1-11.2-3c0-0.3,0-0.5,0-0.8   c2.1,1.4,4.3-0.1,6.6-0.2C450.2,121.7,450.3,121.8,450.3,121.9z" />
	<path fill="#4F3732" d="M461.5,143.3c-3.1-0.6-5.9-1-8.6,1c0.5-4.6,7.8-2.8,11-1.8C463.1,142.9,462.1,142.3,461.5,143.3z" />
	<path fill="#BEAB9D" d="M469.9,149.4c-2.2-1-0.3-3.3,0.4-4.6c0.7,1.8,3.1-0.2,3.9,1.6c-0.6,1.7-3.8,0.6-3.6,2.9   C470.4,149.4,470.1,149.4,469.9,149.4z" />
	<path fill="#5A4A3E" d="M445.9,132.1c0.3,0.3,0.5,0.5,0.8,0.8c-1.4,0-2.7-0.1-3.9,0.8c0,0.3,0,0.5,0,0.8c-2.1-0.1-4.2,0.3-6.2-0.7   c1.6-0.1,3.3-0.1,4.9-0.2c0-0.1,0-0.2,0-0.4c-0.8-0.1-1.6-0.3-2.4-0.4C441,131.4,443.7,132.4,445.9,132.1z" />
	<path fill="#998A76" d="M450.9,124.9c0.3,0.2,0.6,0.4,0.9,0.7c0.2,1.8-0.1,3.5-2.3,2.9c-1-1-1.9-2-3-2.8   C448,125.5,449.6,125.9,450.9,124.9z" />
	<path fill="#D3BCAC" d="M434,154.5c0.2,0,0.4,0,0.5-0.1c0.3,0.3,0.7,0.6,1,1c-0.2,0.6,0.4,0.9,0.7,1.4c1.1,0.5,0.5,1.5,0.7,2.3   c-0.9-0.6-1.5-2.3-2.3-0.7c-0.2,0-0.4-0.1-0.6-0.2c-0.3-1.5-1.8-2.6-1.6-4.3C432.9,154.1,433.4,154.3,434,154.5z" />
	<path fill="#423A36" d="M435.5,156c-0.3-0.8,0.7-1.2,1-1.9c0.9,1.2,1.6,2.3,2.5,3.5c-0.1,0.9-0.4,1.3-0.9,2   c-0.4-0.2-0.8-0.4-1.2-0.6C437,157.8,436.5,156.9,435.5,156z" />
	<path fill="#ACA48B" d="M442.8,134.5c0-0.3,0-0.5,0-0.8c1.5,0,3,0,4.5,0c-0.8,1.3-2.2,1.4-0.8,2.9c-0.2,0.2-0.6,0.7-0.7,0.7   c-1.6-1-3.4-0.3-5-0.7c1.1-1.5,3.6,0.3,4.1-2.2C444,134.5,443.4,134.5,442.8,134.5L442.8,134.5z" />
	<path fill="#131312" d="M461.4,149.4c-1.4,1.9-2.2,2.1-3.8,0.9c0.5-0.9,1-1.8,0.9-2.9c0.5,0,1,0,1.4,0   C460.4,148.1,460.8,148.9,461.4,149.4L461.4,149.4z" />
	<path fill="#77645D" d="M457,148.7c-0.8,0.2-1.6,0.4-2.6,0.7c-0.2-0.6-0.3-1.2-0.5-1.8c1.3-1.3,2.8-2,4.6-1.8c-0.5,0.5-1,1-1.5,1.5   C457,147.7,457,148.2,457,148.7z" />
	<path fill="#3E3833" d="M439.8,162.9c-0.2-0.3-0.5-0.5-0.7-0.8c0.1-0.2,0.2-0.4,0.3-0.6c0.4,0,0.7,0,1.1,0c0,2.1,1.3,3.8,1.8,5.8   c-0.3,0.3-0.6,0.6-0.9,0.9C440.4,166.5,439.3,164.9,439.8,162.9z" />
	<path fill="#130A09" d="M465.3,171c0.1-0.3,0.1-0.7,0.2-0.8c1.8,0.4,5-1,5.8,0.8C469.2,171.6,467.2,172,465.3,171z" />
	<path fill="#2E2421" d="M469,160.7c-1.7,0.1-5.2,2-5-1.1c0.6,0.2,1,0.4,1.5,0.6c1.2-0.2,2.3-1.1,3.5-0.6   C468.9,160,468.9,160.3,469,160.7z" />
	<path fill="#552826" d="M457.8,180c-1.5-0.5-3-0.9-4.5-1.5c0.2-0.2,0.5-0.5,0.7-0.7c1.5-0.1,2.9,0.7,4.4,0.7c0,0.5,0,0.9,0,1.4   C458.3,179.9,457.9,180,457.8,180z" />
	<path fill="#7C6B62" d="M451,177.7c-1.4-0.4-5.7-3-3.8-4.3c1.3,1.2,2.5,2.3,3.8,3.5C451.1,177.2,451,177.5,451,177.7z" />
	<path fill="#886C64" d="M459.2,145.7c1.1,0,2.2,0,3.5,0c0.1,1.3,0.2,2.4,0.3,3.7c-0.7,0-1.1,0-1.6,0l0.1,0.1   c-0.1-0.2-0.2-0.4-0.1-0.7C463.6,147.4,460.1,146.6,459.2,145.7z" />
	<path fill="#2C1F1B" d="M448.6,131.3c-0.9,0-1.8,0-2.7,0c-0.2-0.8-0.9-0.7-1.5-0.8c0.5-0.2,1-0.5,1.6-0.7c0.8,0.2,1.6,0.1,2.1-0.6   c0.2,0,0.5,0,0.7,0l0-0.1C448.7,129.9,448.6,130.6,448.6,131.3z" />
	<path fill="#80776D" d="M437.4,155.4c-0.3-0.4-0.5-0.8-0.9-1.2c-0.4,0.4-0.7,0.8-1.1,1.2c-0.3-0.3-0.7-0.6-1-1   c1-0.8,1.9-1.6,2.9-2.4c0.1,0.1,0.1,0.2,0.2,0.3C437.5,153.4,437.5,154.4,437.4,155.4z" />
	<path fill="#201412" d="M461.5,143.3c0.6-1,1.6-0.4,2.4-0.7c0.8,0.1,1.8-0.2,1.8,1.3C464.2,144.3,462.9,143.4,461.5,143.3z" />
	<path fill="#3A2826" d="M457,148.7c0-0.5,0-1,0-1.5c0.5,0,1,0.1,1.5,0.1c0.1,1.1-0.4,2-0.9,2.9C456.8,150,457.1,149.2,457,148.7z" />
	<path fill="#B0A99A" d="M458.5,147.3c-0.5,0-1-0.1-1.5-0.1c0.5-0.5,1-1,1.5-1.5c0.3,0,0.5,0,0.8,0c0.7,0.6,1.4,1,2.2,1.3   C460.5,147.2,459.5,147.3,458.5,147.3z" />
	<path fill="#BDB398" d="M444.4,130.6c0.9,0,1.7,0.4,1.5,1.5c-1.2,0-2.4,0-3.6,0C443,131.6,443.7,131.1,444.4,130.6z" />
	<path fill="#1E1C18" d="M447.3,133.7c-1.5,0-3,0-4.5,0c1.1-0.9,2.5-0.8,3.9-0.8C446.9,133.2,447.1,133.4,447.3,133.7z" />
	<path fill="#877F6D" d="M469.1,128.4c0.3-0.3,0.6-0.7,1.1-1.2c0.3,0.5,0.6,1,0.9,1.4C470.4,129.2,469.1,129.8,469.1,128.4z" />
	<path fill="#170606" d="M471,159.7c0.3,0.3,0.6,0.7,0.9,1c-0.6,0.2-1.2,0.4-2.7,0.9C470.3,160.5,470.7,160.1,471,159.7z" />
	<path fill="#6F5952" d="M451,177.7c0-0.3,0-0.5,0-0.8c0.8,0,1.8-0.2,2.4,0.7c-0.3,0.3-0.5,0.5-0.8,0.8   C452.1,178.2,451.6,178,451,177.7z" />
	<path fill="#B9AFA1" d="M474,151.5c0.4-0.7,0.8-1.3,1.5-2.5c0,1.1,0,1.5,0,1.9C475,151.2,474.5,151.3,474,151.5z" />
	<path fill="#ACA48B" d="M447.4,137.5c-0.3-0.3-0.6-0.6-0.9-0.9C447.3,135.4,448.4,136.4,447.4,137.5z" />
	<path fill="#D3B79B" d="M448.6,131.3c0.1-0.7,0.1-1.4,0.2-2.1c0.3,0.1,0.5,0.2,0.8,0.2C449.4,130.2,450,131.3,448.6,131.3z" />
	<path fill="#96AF96" d="M440.4,150.3c-0.6-0.1-1.2-0.2-1.7-0.3c0-0.1,0-0.3,0-0.4c0.7,0,1.3,0,2,0   C440.6,149.8,440.5,150,440.4,150.3z" />
	<path fill="#E0C6B5" d="M458.4,180c0-0.5,0-0.9,0-1.4c0.3,0.3,0.5,0.6,0.8,0.9C458.9,179.6,458.7,179.8,458.4,180z" />
	<path fill="#E0C6B5" d="M457,178.4c-0.5-0.2-1.1-0.3-1.6-0.5C456,177.7,456.6,177.7,457,178.4z" />
	<path fill="#391E1D" d="M452.6,178.4c0.3-0.3,0.5-0.5,0.8-0.8c0.2,0,0.4,0.1,0.6,0.2c-0.2,0.2-0.5,0.5-0.7,0.7   C453,178.6,452.8,178.5,452.6,178.4z" />
	<path fill="#BEAB9D" d="M470.5,144.2c-0.3,0-0.6-0.1-0.8-0.1c0.1-0.6,0.1-1.2,0.9-1.3C470.5,143.2,470.5,143.7,470.5,144.2z" />
	<path fill="#E0C6B5" d="M439.3,161.5c-0.1,0.2-0.2,0.4-0.3,0.6c-0.6,0-1.2,0-1.5-0.7C438.2,161.4,438.8,161.4,439.3,161.5z" />
	<path fill="#504843" d="M468.4,164.2c0-1.4,0.4-1.4,0.5,0C468.7,164.1,468.5,164.2,468.4,164.2z" />
	<path fill="#C3A496" d="M473.4,166.7c-0.5-0.3-1-0.6-1.4-0.9C472.6,165.8,473.3,165.8,473.4,166.7z" />
	<path fill="#60453A" d="M449.6,129.4c-0.3-0.1-0.5-0.2-0.8-0.2l0,0.1c0.2-0.3,0.5-0.6,0.7-0.8c0.3,0,0.7,0.1,1,0.1   C450.2,128.8,449.9,129.1,449.6,129.4z" />
	<path fill="#C3A496" d="M474.8,166.5c-0.2,0.3-0.3,0.6-0.5,0.9C474.5,167.1,474.6,166.8,474.8,166.5z" />
	<path fill="#F7EFD0" d="M467.4,560.8c1.8,7.2,11.7,0.9,13.7-3.5c1.6-4,4.9-5.9,8.1-8.2c2.1,1,3.4,2.8,4.8,4.8   c-2.7,1.5-13.5,3.3-7.9,7.4c2-3,6.3-3.3,9.5-5.2c0.4,0.6,0.8,1.3,1.2,2c-2.9,2-7,1.5-8.9,4.7c2,3.6,10.8-6,11.1-0.5   c-2.4-0.4-5.7,1.1-5.7,3.9c2.1-0.9,6.7-1,5.7-4c0.3,0,0.5,0,0.8,0c1,0.8,1.5,2,2.2,3c-1.1,0.8-2.3,1.6-3.6,2.6   c2.5,1.7,3.6-0.9,5.8-1.1c-0.1,0.6-0.2,1.2-0.3,1.9c4.7,0.7,9.1,2.5,13.8,3.3c0.7,1.2,0.9,2.5,0.5,4.1c-11.1,5.5-22.5,4.8-34.5,3.1   c-1.2-1.1-2.4-2.3-3.7-3.4c-4.2-0.7-4.2,2.4-5.7,4c-3-0.2-5.6-0.4-8.3-0.6c-3.1-5.3-0.5-12.7,0.2-18.5   C466.5,560.8,466.9,560.8,467.4,560.8z" />
	<path fill="#EADCB7" d="M464.4,574.1c0.2,1.8-0.3,3.8,1.4,5.2c2.7,0.2,5.3,0.4,8.3,0.6c1.4-1.6,1.4-4.7,5.7-4   c1.3,1.2,2.5,2.4,3.7,3.4c12,1.7,23.5,2.4,34.5-3.1c0.5-1.6,0.3-2.9-0.5-4.1c0.4,0.1,0.7,0.2,1.3,0.3c3.6,17.4-33.5,12.6-42.6,9.3   c-5.2,1.9-11.1,1.7-15.7-1C461.1,577.9,462.3,575.7,464.4,574.1z" />
	<path fill="#27201C" d="M504,566.8c-2.2,0.1-3.3,2.8-5.8,1.1c1.3-1,2.5-1.8,3.6-2.6C502.6,565.8,503.3,566.3,504,566.8z" />
	<path fill="#C7C0A6" d="M467.4,560.8c-0.4,0-0.9,0-1.3,0c-0.1-2.1,0.3-3.1,1.3-5.7C467.4,557.6,467.4,559.2,467.4,560.8z" />
	<path fill="#1F1A16" d="M500.3,562.9c-0.3-0.2-0.5-0.4-0.8-0.7C499.8,562.5,500.1,562.7,500.3,562.9z" />
	<path fill="#232121" d="M401.8,215.6c0.8,1.5,0.6,3.1,0.6,4.7C401.2,219.1,401.9,217.2,401.8,215.6z" />
	<path fill="#F7EFD0" d="M438.3,581.1c1.8,1.8,4.5,1.9,6.7,3c3,4.9-2.1,2.6-4.5,4.2c-13.8,11-26.7,4.6-41.5,1.3   c1.7-5.8,2.2-11.8,1.3-17.8c7-0.7,10.8-9.4,15.6-13.9c2,0,4-0.2,5.9,0.1c1,2.1,1.9,4.2,2.9,6.4c-4.5,1.4-8.9,2.9-12.6,6.1   c0.7,1.4,0.7,1.6,2.1,2.3c1-0.5,2-1,3.1-1.6c0.3,0,0.7,0.1,1,0.1c-2.7,2.9,0.3,3.7,2.7,2.2c0.3,0.2,0.5,0.5,0.8,0.7   c-0.7,1-2.3,1.6-1.8,3.5c3.4-0.9,6.9-1.8,10.4-2.7c0.4,0.5,0.7,0.8,1,1.2c-1.7,1.9-6.3-0.5-6.7,3c0.6,0.2,1.2,0.8,1.9,0.7   c2.6-0.5,4.6,1.3,7.2,0.9c0-0.6,0-0.9,0.1-1.3c0,0-0.1,0.1-0.1,0.1C435.4,579.6,436.8,580.5,438.3,581.1z" />
	<path fill="#050404" d="M420.4,557.7c-0.7,0-1.5,0-2.2,0C419.3,556.8,419.3,556.8,420.4,557.7z" />
	<path fill="#EADCB7" d="M431.6,592.9c0.6-0.2,1.2-0.4,1.7-0.7c0,0.4-0.1,0.9-0.1,1.6c3.3-1.1,6.3-1.8,8.1-4.8   c1.6-0.3,3,0.8,4.6-0.1c-0.6-0.5-1.1-0.9-1.6-1.3c1.2,0,1.6-0.6,1.7-1.7c1.3,2,0.2,5.4,0.6,8c-12.6,3.9-26.6,5.6-39.3,1.3   c-5.8-2.7-7.4,0.2-12.6-0.2c3.5-8.2,1.6-16.5,4.4-24.9c0.5,0.6,0.9,1.1,1.4,1.6c0.9,6.1,0.4,12-1.3,17.8c3.6-0.1,6.3,2.5,9.8,2.6   c1.9-0.3,3.6,0.5,5.4,1c4.7,2.2,8.8,1.8,13.7,1.2c0.1,0.4,0.2,0.8,0.3,1.4C429.6,594.8,431.4,594.7,431.6,592.9z" />
	<path fill="#D4D5B9" d="M421.9,574.2c-0.3-0.2-0.5-0.5-0.8-0.7c1.9-2,4.4-2.4,7-3.1c0.3,0.6,0.5,1.1,0.9,1.7   C426.4,572.8,424.2,573.5,421.9,574.2z" />
	<path fill="#484E44" d="M418.4,571.2c-0.3,0-0.7-0.1-1-0.1c1.6-1.8,3.7-2.7,6.1-2.8l0,0C421.9,569.5,420.3,570.6,418.4,571.2z" />
	<path fill="#656154" d="M426.3,566.8c0.2,0.2,0.5,0.4,0.9,0.7c-1.3,1.2-2.6,0.6-3.9,0.7l0,0c0.4-1,1.3-0.7,2-0.8   C425.7,567.2,426,567,426.3,566.8z" />
	<path fill="#F7EFD0" d="M433.8,579.5c-0.1-0.1-0.3-0.3-0.4-0.4c0.1,0.2,0.2,0.3,0.3,0.5L433.8,579.5z" />
	<path fill="#9ABDA4" d="M426.3,566.8c-0.3,0.2-0.6,0.5-0.9,0.7C425.7,567.2,426,567,426.3,566.8z" />
	<path fill="#373A46" d="M380.8,44.9c-2.2-5.2-1.2-10.9-1.4-16.4c0.5,0.2,1.1,0.4,1.9,0.7c0.9-5.3,3.3-9.8,4.8-14.9l0,0   c27.7-34.5,36.5,39.8,6.7,41.3c21.3,0.3,24.4-32.8,15-47.3c0.3-0.3,0.5-0.5,0.8-0.8C428.7,25.6,397.2,83.8,380.8,44.9z M388.3,53.8   c-0.2-0.1-0.3-0.2-0.5-0.3C388,53.6,388.1,53.7,388.3,53.8c0.2,0.8,0.9,0.7,1.5,0.7c0.5,0.8,1,1.1,2,0c-0.8,0-1.4,0-2,0   C389.5,53.8,388.9,53.8,388.3,53.8z M391.3,34.4c7.5,0.7,9.8-15,1-14.1c-0.9,1.1-2.1,2.3-3.2,3.6c0,0,0,0,0,0   c-0.1-0.4-0.2-0.8-0.5-1.8c-2.9,4.9-2.9,14.7,4.5,13.4C392.4,35.2,391.9,34.8,391.3,34.4C391.3,34.4,391.3,34.4,391.3,34.4z    M380.3,34.9c1.7-1.7,1.8-3.1,0.1-4C379.9,32.2,380,33.5,380.3,34.9z" />
	<path fill="#4C4F5C" d="M418.9,38.9c-0.2,2.1-0.9,4.1-2.1,5.9c0.6,1.7,0.4,2.8-0.4,4.5c-0.3-0.7-0.5-1.2-0.8-1.8   c-1.9,0.5-0.4,2.8-1.8,3.6c-0.1-0.3-0.1-0.7-0.2-1c-0.2,0-0.5,0.1-0.7,0.1c-1-0.5-2-1-3-1.5c2.4-4.8,4.3-9.7,5.4-14.9   c1.2,0,2.4,0,3.7,0C419.6,35.5,417.1,37.6,418.9,38.9z" />
	<path fill="#4A4E5B" d="M416.7,14.3c2.3,3.8,2.7,8.3,2.9,12.7c-1.2,1-2.4,0.9-3.6,0C417.3,23.6,411.3,13.8,416.7,14.3z" />
	<path fill="#353944" d="M409.9,48.6c1,0.5,2,1,3,1.5c-3.9,5.3-9.6,10.5-16.8,8.7C402.3,58,405.9,52.9,409.9,48.6z" />
	<path fill="#373A46" d="M416,26.9c1.2,0.9,2.4,1,3.6,0c-0.4,2.2-0.6,4.5-0.7,6.8c-1.2,0-2.4,0-3.7,0   C415.2,31.4,416.4,29.3,416,26.9z" />
	<path fill="#343844" d="M416.7,14.3c-0.8,0.1-1.8-0.3-2.3,0.8c-1.5-2.4-2.1-5.2-3.7-7.5C412.4,6,416.6,12.4,416.7,14.3z" />
	<path fill="#242525" d="M409.2,54.6c1.2-1.5,2.5-3,3.7-4.5c0.2,0,0.5-0.1,0.7-0.1c0.1,0.3,0.1,0.7,0.2,1c-1,1.2-1.9,2.6-3,3.7   c0,0,0,0,0,0C410.3,54.6,409.7,54.6,409.2,54.6z" />
	<path fill="#353944" d="M410,54.6c0.3,0,0.5,0,0.8,0.1c-0.3,0.3-0.5,0.5-0.8,0.8C410,55.1,410,54.9,410,54.6z" />
	<path fill="#BCA98D" d="M432.2,157.6c0,0.3,0,0.5,0,0.8c-1.6,1.4,0.4,3.7-1.2,5.2c-0.5-2,0.1-4.3-1.6-6.6c0.1,4.2-0.2,8.3,1.4,11.9   c0.5,1.7-1.2,2-1,3.7c0.1,1.6,0.7,4-0.5,5.3l0,0c-0.5-10.7-3.3-22.7,0.7-32.8c0.1,1.1,0.4,2.3,1.5,2.9   C430,152.2,429.9,153.4,432.2,157.6z" />
	<path fill="#766353" d="M444.4,130.6c-0.7,0.5-1.4,1-2.1,1.5c-1,0.4-2.3-0.4-3.2,0.7c-1,0-2,0-3.1,0c-0.2-0.4-0.3-0.6-0.6-0.1   c-1.2-0.5-2.4-1-3.6-1.2c0.2-1.1,1-0.8,1.7-0.9c1.9,1.1,3.8,1,6.1,0.6c-1.6-0.6-2.8-1-4.3-1.6c2.2-1.1,3.9,0.9,5.9-0.1   c-2.9-0.1-3.9-2.5-5.9-3.4c0.6-1.2,2-1.5,3-2.2c0.2,0.5-0.2,2.6,0.7,1.7c0.5,0.2,1.1,0.4,1.6,0.6c0,0,0,0,0,0   c-0.4,0.4-0.8,0.8-1.6,1.5c1.9-0.1,2.9-0.9,4.6-0.7c0.1,0.7,0.1,1.4-0.3,2c0.6,0.1,1.4,0.4,1.7-0.5c0.8,0,1.5,0,2.3-0.1   c-0.1,0.2-0.1,0.5,0,0.7c-0.6,0-1.1,0-1.3,0.7C445.4,130.1,444.9,130.3,444.4,130.6z" />
	<path fill="#D6C9AC" d="M430.8,126.9c0-0.2,0-0.5,0-0.7l0.2,0.1c1.1-0.8,0.5-2,0.6-3l0,0c1.4-0.6,0.2-2.2,1.5-3c0,0,0,0,0,0   c1.1-2,3.2-2.5,5.3-2.2l-0.1,0c0.2,0.8,0.8,0.9,1.6,0.8l-0.1-0.1c0.2,0.4,0.4,0.8,0.7,1.4c-0.6,0.1-1.1,0.3-1.7,0.4   c0.2,1.2,0.1,1.5-1.2,2.1c-0.5-1.1-3.3-2.5-3.6-0.8c0.7,0.7,1.3,1.3,2,2l-0.3,0.2c-1.3-0.4-1.9,0.5-2.7,1.5   c-1.1,0.4-0.6,1.7-1.4,2.3l0,0c-0.2,0-0.5-0.1-0.7-0.1C430.9,127.4,430.9,127.2,430.8,126.9z" />
	<path fill="#BDAD90" d="M436.1,132.9c1.9-0.1,3.7,0,5.5,0.3c0,0.1,0,0.2,0,0.4c-1.6,0.1-3.3,0.1-4.9,0.2c2,1,4.1,0.6,6.2,0.7l0,0   c-2.2,1.9-6.3-0.5-8.2,1.5c-2-0.5-3.7-2.2-2.8-4.4C433.3,131.7,434.6,132.7,436.1,132.9z" />
	<path fill="#A99B81" d="M435.4,138.9c2,0.3,4.1,0.7,6.7,1.1c-2.5,0.5-4.3,0.9-6.2,1.3c0.9,1.6,3-0.3,3.9,1.3   c-2.6,0.4-5-0.3-7.5-0.7c0,0,0.1,0.1,0.1,0.1c-1-1.2-2.5-2.1-0.7-3.7l0-0.1c0.4,1.3,1.4,1.9,2.8,2.3c-0.3-0.7-0.4-1.1-0.6-1.5   c0,0,0,0,0,0C434.3,138.9,434.9,138.9,435.4,138.9z" />
	<path fill="#C0B395" d="M435.3,126.2c2,0.9,3.1,3.3,5.9,3.4c-2.1,1.1-3.7-1-5.9,0.1c1.6,0.6,2.8,1,4.3,1.6   C434.8,132.3,430.6,130.5,435.3,126.2z" />
	<path fill="#DCD5B6" d="M443.6,122.5c1.4,0.8,2.9,1.2,4.4,1.6c-1,0.4-1.9,1.5-2.9,1.2c-1.2-1.2-4.6-0.2-4.4-2.8   C441.6,122.6,442.6,122.5,443.6,122.5z" />
	<path fill="#A19C83" d="M439.8,143.3c0.3,0.3,0.5,0.5,0.8,0.8c-3.2,0-6.4,0.4-9.6,0c-0.1-1.9,0-1.9,1.4-2.1l-0.1-0.1   C434.1,144.1,437.4,143.4,439.8,143.3z" />
	<path fill="#B7AC94" d="M463.7,123.3c-0.4,1.3-7.3-1.9-8.8-2.4C457.4,120.1,461.4,121.5,463.7,123.3z" />
	<path fill="#808874" d="M456.3,123.3c-1.9-0.6-3.9-1.3-5.9-1.3c-0.3-0.7-1.1-1-1.6-1.5c2.2-0.4,4,0.8,6,1.2   C455.2,122.2,455.7,122.7,456.3,123.3z" />
	<path fill="#DCC2A6" d="M448.7,120.4c0.5,0.4,1,0.8,1.4,1.1c-2.3,0.2-4.5,1.7-6.6,0.2c0.6-2,3.3,0.2,4.5-1.4   C448.3,120.3,448.5,120.3,448.7,120.4z" />
	<path fill="#B8A68B" d="M431.6,138.2c-0.5-0.9-1.4-2.3-0.1-3c0.9,0.8,1.8,1.6,2.8,2.4c-0.2,0.4-0.4,0.8-0.5,1.3c0,0,0,0,0,0   C433.1,138.7,432.4,138.4,431.6,138.2L431.6,138.2z" />
	<path fill="#C6B093" d="M436,123.9c-0.7-0.7-1.3-1.3-2-2c0.4-1.7,3.1-0.4,3.6,0.8C437.1,123,436.6,123.5,436,123.9z" />
	<path fill="#5D5648" d="M433.8,139c0.2-0.4,0.4-0.9,0.5-1.3c-1-0.8-1.9-1.6-2.8-2.4c1.1-0.2,2,0.3,3,0.7l0,0   c0.5,0.7,1.1,1.5,1.6,2.2c-0.3,0.2-0.5,0.5-0.8,0.7C434.9,138.9,434.3,138.9,433.8,139z" />
	<path fill="#CFC3A7" d="M438.4,118.1c0-0.2,0-0.4,0.1-0.6c1.7-0.4,3.3-0.5,4.4,1.3c-0.3,0.3-0.6,0.6-0.9,0.9   c-0.7-0.3-1.4-0.7-2.1-1l0.1,0.1C439.7,117.9,438.9,118,438.4,118.1L438.4,118.1z" />
	<path fill="#43342D" d="M456.3,123.3c-0.5-0.5-1-1.1-1.5-1.6c0-0.2,0.1-0.5,0.1-0.7c1.4,0.6,2.8,1.2,4.2,1.8   c-0.4,0.4-0.8,0.8-1.2,1.2C457.2,124,456.6,124.1,456.3,123.3z" />
	<path fill="#625143" d="M431,144.1c0.7,0.1,1.5,0.2,2.2,0.2c0,0.2,0,0.4,0,0.5c-0.3,0-0.6,0.1-0.8,0.1c-1,1.3-0.9,1.8,0.8,2.2   c-0.5,0.2-1,0.4-1.5,0.7c-0.9-0.5-1.2-1.4-1.4-2.3C431,145.4,430.8,144.7,431,144.1z" />
	<path fill="#605045" d="M440.6,122.6c-0.3,1.3,1.3,1.6,2.1,2.2c0.1,0.2,0.1,0.5,0.2,0.7c-0.8-0.2-1.6-0.4-2.5-0.7   c-0.2-0.3-0.4-0.5-0.6-0.8C439.8,123.4,439.7,122.7,440.6,122.6z" />
	<path fill="#8F8471" d="M441.9,119.7c1-1.2,2.5-2.2,3.2-0.2C444,119.9,443,120.4,441.9,119.7z" />
	<path fill="#CDC1A5" d="M439.8,124c0.2,0.3,0.4,0.5,0.6,0.8c0,0.5,0.1,1,0.1,1.4c-0.8-0.3-1.5-0.6-2.2-0.9c0-0.4,0-0.9-0.1-1.3   C438.8,124,439.3,124,439.8,124z" />
	<path fill="#A5937C" d="M430.8,126.9c0,0.6,0.3,1,0.6,1.5c-0.2,0.7-0.4,1.5-0.6,2.2C429.5,129.4,430,128.2,430.8,126.9z" />
	<path fill="#808874" d="M448.1,120.4c-0.9,0.9-2.1,0.6-3.2,0.5C445.9,120,447,120.3,448.1,120.4z" />
	<path fill="#C6B093" d="M432.3,126.9c0-0.6,0.1-1.2,0.8-1.4C432.8,126,432.6,126.4,432.3,126.9z" />
	<path fill="#C6B093" d="M433.8,124.7c0.3-0.8,0.9-0.7,1.6-0.6C434.9,124.3,434.4,124.5,433.8,124.7z" />
	<path fill="#C6B093" d="M431.5,128.4c-0.2-0.2-0.3-0.5-0.5-0.7c0.2,0,0.5,0.1,0.7,0.1C431.7,128,431.6,128.3,431.5,128.4z" />
	<path fill="#C6B093" d="M431.6,127.8c0.2-0.3,0.4-0.5,0.6-0.8C432.1,127.2,431.9,127.5,431.6,127.8z" />
	<path fill="#C6B093" d="M433.1,125.5c0.2-0.3,0.4-0.5,0.7-0.8C433.5,125,433.3,125.2,433.1,125.5z" />
	<path fill="#373A46" d="M435.3,9.8c21.1,1.2,17.9,32.9,9,45.5c-7.9,10.9-29.3,6.2-21.6-8.9c9-1.7,19.8-15.2,7.8-20.4   c-0.3-0.7-0.5-1.4-0.9-2.4c-1.7-0.5-3.5-0.9-5.5-1.5C425.7,16,430.6,13.2,435.3,9.8z" />
	<path fill="#DEC4B3" d="M425.5,30.5c0-2.3,0-4,1.1-6.2c0.5,0.2,1.1,0.3,1.7,0.5c2,3.7-3.4,4.3-0.4,8.4c-0.6,1.4-1.7,1.1-2.9,1.1   C423.7,32.9,426.1,32,425.5,30.5z" />
	<path fill="#BAA597" d="M424.8,26.9c-1.2,2.1-0.4,5.3-2.7,6.6c-2.2-1.5-0.3-3.5,0.3-5.2c0.2-2,0-3.3,1.2-5.3   C424.8,24.6,425.2,25.2,424.8,26.9z" />
	<path fill="#A19084" d="M421.8,27.6c-0.3,0.2-0.6,0.3-1.2,0.6c0.1-1.9-0.9-4.4,0.5-5.6c0.4,1.3-0.4,2.7,0.7,3.8   C421.8,26.8,421.8,27.2,421.8,27.6z" />
	<path fill="#211E1E" d="M421.8,26.4c-0.8-0.7-0.6-1.5-0.5-2.4C422.2,24.6,421.8,25.5,421.8,26.4z" />
	<path fill="#4B3E31" d="M477.2,205.3c-1.3-1.2-2.5-2.4-3.8-3.6c0.3-0.3,0.5-0.5,0.8-0.8c0.2,0,0.5,0,0.7,0c1,1,2,2.1,3.1,3.1   c0,0.2,0,0.4,0,0.6C477.7,204.9,477.4,205.1,477.2,205.3z" />
	<path fill="#CEBFB0" d="M477.9,204.1c-1-1-2-2.1-3.1-3.1c0.3,0,0.6-0.1,0.9-0.1c0.7,0.8,1.5,1.5,2.2,2.3   C478,203.4,477.9,203.7,477.9,204.1z" />
	<path fill="#8C897D" d="M477.9,204.1c0-0.3,0.1-0.7,0.1-1c0.9,0.5,1.5,1.2,1.4,2.3l0,0c-0.5-0.2-1-0.5-1.5-0.7   C477.9,204.5,477.9,204.3,477.9,204.1z" />
	<path fill="#646C63" d="M475.8,200.8c-0.5,0.1-1.1,0.2-1.6,0.1c0-0.3,0-0.5,0-0.8C474.8,200.1,475.5,200.1,475.8,200.8z" />
	<path fill="#646C63" d="M474.2,200.2c-0.2-0.2-0.4-0.3-0.5-0.5c0.2-0.1,0.4-0.2,0.5-0.2C474.2,199.7,474.2,199.9,474.2,200.2z" />
	<path fill="#60564F" d="M479.4,205.4c0.2,0.1,0.4,0.2,0.6,0.3C479.4,206.2,479.5,205.6,479.4,205.4L479.4,205.4z" />
	<path fill="#343943" d="M448.1,56.1c-2.9,3.9-6.7,7.7-12.1,6.5c3.6-2.1,7.1-3.5,8.4-7.2c0.2,0,0.5,0,0.7,0   C445.8,56.7,447.1,55.8,448.1,56.1z" />
	<path fill="#4B4F5C" d="M452.5,18.7c1.5,3.3,3.2,6.6,3,10.4c-1,0-2,0-2.9,0c-0.7-3.5-1.4-7-2.3-10.4   C450.9,18,451.7,18.6,452.5,18.7L452.5,18.7z" />
	<path fill="#373A46" d="M452.5,29.2c1,0,2,0,2.9,0c0,2.8,0,5.5,0,8.3c-1.3-0.1-2.6-0.1-3.6,0.7C452.8,35.2,452.5,32.2,452.5,29.2z" />
	<path fill="#333743" d="M452.5,18.7c-0.8-0.2-1.6-0.7-2.3,0c-1.5-2-2.7-4.3-3.9-6.3C448.2,12.9,450.7,15.3,452.5,18.7z" />
	<path fill="#131317" d="M402.5,52.3c14.8-13.7,11-61.6-12.7-42.5c-0.2-0.2-0.5-0.5-0.7-0.7C413.6-13.1,420.5,42.4,402.5,52.3   L402.5,52.3z" />
	<path fill="#1B1D22" d="M389,9c0.2,0.2,0.5,0.5,0.7,0.7c-1.2,1.5-2.1,3.3-3.7,4.5C385.7,12,387.9,10.7,389,9z" />
	<path fill="#1B1D22" d="M386.1,14.3c-0.4,2.1-1.2,4.1-2.3,6C382.5,19.2,384.8,14.9,386.1,14.3z" />
	<path fill="#D5BDAD" d="M495.9,380.8c-0.4-2.2,0.8-4,1.5-5.9c1.4,1.3,1,5-0.5,6.2C496.6,381,496.2,380.9,495.9,380.8z" />
	<path fill="#A69488" d="M498.2,377.2c-0.3-0.8,0.4-1.8-0.8-2.3c-0.1-0.2-0.1-0.5,0-0.7c0.9-0.6,0.6-1.5,0.7-2.3   c1.5,1.2,0.4,3.4,0.6,5.1C498.5,377.1,498.3,377.1,498.2,377.2z" />
	<path fill="#F6D9C7" d="M420.9,34.5c0.5,1.1,0.4,1.6-1,1.1C420.3,35.2,420.5,34.8,420.9,34.5z" />
	<path fill="#BAA597" d="M425.5,30.5c0.1,0.6,0.2,1.2-0.5,1.6C425.2,31.6,425.4,31.1,425.5,30.5z" />
	<path fill="#4C4F5C" d="M419.7,37.4c-0.2,0.3-0.5,0.6-0.7,0.8C419.2,38,419.5,37.7,419.7,37.4z" />
	<path fill="#0C0A0A" d="M422.6,35.8c-0.2,0-0.5,0.1-0.7,0.1C422.1,35.5,422.2,35.1,422.6,35.8z" />
	<path fill="#312E2D" d="M489.1,267.5c-0.2-0.5-0.4-1.1-0.6-1.6C489.2,266.2,489.2,266.8,489.1,267.5z" />
	<path fill="#E3CEBD" d="M474.2,146.4c-0.8-1.8-3.1,0.2-3.9-1.6c0.1-0.2,0.1-0.4,0.1-0.7c2.2-0.1,3.8-0.2,6.1,0   c-0.4,1.1-0.6,1.9-0.9,2.8C475.1,146.7,474.6,146.6,474.2,146.4z" />
	<path fill="#413B34" d="M428,165.6c0.8,3.9,1,8.2,1.4,12.2c-1.7-1.9-1.3-5.1-2.1-7.6C428.1,168.8,427.9,167.2,428,165.6z" />
	<path fill="#3D3934" d="M461.4,194.3c-0.2-0.3-0.4-0.6-0.6-0.9c0.2,0,0.4,0,0.6,0C461.5,193.7,461.4,194,461.4,194.3z" />
	<path fill="#4A4745" d="M401.9,537.4c0.7,0.7,0.6,1.6,0.5,2.5C401.4,539.2,401.8,538.3,401.9,537.4z" />
	<path fill="#C6B093" d="M431.6,123.2c-0.1,1,0.5,2.2-0.6,3C431,125.2,430.5,124.1,431.6,123.2z" />
	<path fill="#C6B093" d="M432.3,121.6c0.1,0.7,0.2,1.4-0.7,1.7C431.8,122.7,432,122.1,432.3,121.6z" />
	<path fill="#C6B093" d="M433.1,120.2c-0.2,0.3-0.4,0.5-0.6,0.8C432.7,120.8,432.9,120.5,433.1,120.2z" />
	<path fill="#C6B093" d="M433.8,119.4c-0.2,0.3-0.5,0.6-0.7,0.9C433.3,120,433.5,119.7,433.8,119.4z" />
	<path fill="#0E0B0A" d="M478,216.5c-0.6,0.2-1.1,0.5-1.7,0.7c-0.2-8.3-8.9-14.2-14.1-20c0.3-0.3,0.5-0.6,0.8-0.9   C470.3,200.9,477.9,207.2,478,216.5z" />
	<path fill="#3D3934" d="M463,196.4c-0.3,0.3-0.5,0.6-0.8,0.9c-0.6-0.6-2.2-1.7-0.8-2.4C461.9,195.4,462.4,195.9,463,196.4z" />
	<path fill="#3D3934" d="M464.5,197.2c0.1-0.2,0.2-0.4,0.3-0.5C465.3,197.2,464.6,197.1,464.5,197.2   C464.5,197.2,464.5,197.2,464.5,197.2z" />
	<path fill="#151311" d="M491.1,456.1c-1.1-2.4-5.7-8.8-1.2-9.6C491.8,449.5,491.6,452.8,491.1,456.1z" />
	<path fill="#D3BAAA" d="M491.1,456.1c0.5-3.3,0.6-6.6-1.2-9.6C495.3,446.5,493.9,453.9,491.1,456.1z" />
	<path fill="#564E47" d="M484,468.8c0.2,0.1,0.4,0.1,0.6,0.2c0,2.4,0.4,4.8-1,7.6c-0.8-2.1-0.3-3.8-0.7-5.4l0.3,0   C484.3,470.6,483.7,469.5,484,468.8z" />
	<path fill="#302C28" d="M474.3,558.5c0,0.6-0.1,1.1-0.1,2.1c-2-0.8-1.8-2.2-2.6-4c1.3-0.1,1.7,1,2.5,1.4   C474,558.2,474.1,558.4,474.3,558.5z" />
	<path fill="#9D8B80" d="M483.8,488.2c0.3,1.3-0.8,2.2-1,3.4c-0.3-1.7-0.9-3.4,0.3-4.9C483.3,487.2,483.5,487.7,483.8,488.2z" />
	<path fill="#B49E91" d="M469.2,405c-0.3-0.9-0.6-1.8-0.8-2.7c1.8-1.2,1.3,1.7,1.3,2.6C469.5,404.9,469.4,405,469.2,405z" />
	<path fill="#7F756C" d="M467.9,392.4c0.9,1.1,0.2,2.3,0.2,3.4C467.4,394.1,467.4,394.1,467.9,392.4z" />
	<path fill="#CCB3A5" d="M480.4,501.4c-0.5-0.9-0.2-1.7,0.7-2.2C481.7,500.4,481.7,500.4,480.4,501.4z" />
	<path fill="#635751" d="M483.8,488.2c-0.2-0.5-0.5-1-0.7-1.5c0.1-0.8,0.1-1.7,0.3-3.2C484.4,485.5,483.8,486.9,483.8,488.2z" />
	<path fill="#726A63" d="M466.8,374.9c0,1.1-0.1,2.2-0.1,4.1c-0.9-1.8-0.7-3-0.6-4.1C466.3,374.9,466.5,374.9,466.8,374.9z" />
	<path fill="#3C3532" d="M466.8,374.9c-0.2,0-0.5,0-0.7-0.1c-0.1-1-0.4-2.1,0.5-3.3C467.4,372.9,466.8,373.9,466.8,374.9z" />
	<path fill="#B9A395" d="M474.2,537.6c-1-1.4-1-2.2,0-3.7C474.2,535.2,474.2,536.4,474.2,537.6z" />
	<path fill="#DBC2B1" d="M429.3,442c1.9,3.8-0.4,8.3,2,12.2c1.2,2.8-0.4,4.9-3.5,4.2c0.8-1.4,1.4-2.9,0.2-4.4   c-1.6-2.6-1.2-5.2-1.7-8.3c-3.2,4.2,2,7.4,0.3,11.4c-1-3.5-2.8-6.8-2.2-10.9c0.5-0.6,1.2-1.4,1.8-2.1c0.5-0.6,0-1.8,1.2-2.1   c0,0.6,0,1.2,0,2.4C428.2,443.3,428.8,442.7,429.3,442z" />
	<path fill="#A08B7F" d="M405.6,560.6c-2.2-2.9-0.3-8.2-0.9-12.1c0.6-0.1,1-0.2,1.5-0.3C405.6,552.3,405.3,556.4,405.6,560.6z" />
	<path fill="#26211F" d="M434,436.2c-0.6,2-2.2,3.3-3.8,4.5c-0.3,0-0.5-0.1-0.8-0.1l0,0c-0.4-2.3,2.6-3.5,3.7-5.3   C433.4,435.6,433.7,435.9,434,436.2z" />
	<path fill="#83766D" d="M427.8,463.5c0.5,2.1,1,4.2,1.5,6.2C427.3,471.5,426.9,464.8,427.8,463.5z" />
	<path fill="#252220" d="M405.6,560.6c0.2-3.4-0.8-7,0.5-10.2c0,3.4,0.1,6.8,0.1,10.3C406,560.7,405.8,560.7,405.6,560.6z" />
	<path fill="#0B0404" d="M427.9,454c1.3,1.5,0.7,3-0.2,4.4c-0.8,0-1.1-0.6-1.3-1.3C427.2,456.1,426.7,454.6,427.9,454z" />
	<path fill="#4E433E" d="M407.5,471.1c0.3-1-0.2-2.4,1.5-3c0,1.7,0.2,3.1-0.6,4.5C407.6,472.5,407.8,471.7,407.5,471.1z" />
	<path fill="#94877C" d="M407.5,471.1c0.2,0.6,0,1.4,0.9,1.6c-0.3,1.2-0.5,2.4-0.8,3.6C406.4,475,406.7,472.7,407.5,471.1z" />
	<path fill="#332825" d="M429.3,442c-0.6,0.7-1.2,1.3-2.1,2.5c0-1.2,0-1.8,0-2.4c0.8-0.4,1-1.6,2.1-1.5l0,0c0.1,0.3,0.1,0.5,0.2,0.8   C429.4,441.5,429.3,441.7,429.3,442z" />
	<path fill="#A59287" d="M406.2,533.2c-0.3-0.3-0.6-0.5-0.9-0.8c0.2-0.8,0.3-1.7,1.3-1.9C407.4,531.5,406.5,532.3,406.2,533.2z" />
	<path fill="#BDA99D" d="M406.3,484.1c0-0.9,0-1.8,0-3.3C407.2,482.3,406.9,483.2,406.3,484.1z" />
	<path fill="#E1C7B6" d="M406.7,523.7c0.4,0.8-0.1,2.3-1,1.6C405.6,524.4,406,524.1,406.7,523.7z" />
	<path fill="#BAA99C" d="M422.2,454.3c0.8,0.1,1.3,1.7,0.3,1.7C422.2,455.4,421.6,455,422.2,454.3z" />
	<path fill="#63504B" d="M434,436.2c-0.3-0.3-0.6-0.6-0.9-0.9c0.4-0.5,0.8-0.9,1.3-1.4C434.9,434.9,434.6,435.6,434,436.2z" />
	<path fill="#AD9B91" d="M405.6,491.7c0-0.5,0-1,0-1.5c0.1,0,0.2,0,0.4,0c0,0.5,0,1,0,1.5C405.9,491.7,405.8,491.7,405.6,491.7z" />
	<path fill="#A99489" d="M406.2,498.8c-0.8-0.2-0.7-0.8-0.7-1.5C406.3,497.6,406.2,498.2,406.2,498.8z" />
	<path fill="#DBC2B1" d="M429.5,441.3c-0.1-0.3-0.1-0.5-0.2-0.8c0.3,0,0.5,0.1,0.8,0.1C429.9,440.9,429.7,441.1,429.5,441.3z" />
	<path fill="#502A22" d="M454.2,354.9c-0.3-0.3-0.6-0.6-0.9-0.9c0.1-0.8,0.6-1.3,1.4-1.5C454.9,353.4,455,354.2,454.2,354.9z" />
	<path fill="#AD998D" d="M421.1,192.7c2.1,3.2,3.6,6.7,4.5,10.5c-0.3,0.3-0.5,0.5-0.8,0.8c-0.2,0-0.4-0.1-0.7-0.1   C424.9,200.3,419.5,194.6,421.1,192.7z" />
	<path fill="#B59F92" d="M409.9,162.8c-0.5,0.2-1,0.5-1.7,0.8c0.5-3.6-0.1-7.1,2.1-10.5c1,2.4-0.6,4-0.9,5.7   C409.6,160.2,410,161.4,409.9,162.8z" />
	<path fill="#B9A396" d="M420.1,186.5c-1.5-1.7-1.5-1.7,0-2.7C420.1,184.9,420.1,185.7,420.1,186.5z" />
	<path fill="#C6AFA0" d="M414.8,55.9c-0.7-1-0.5-1.6,0.5-2C416.3,55,415.3,55.3,414.8,55.9z" />
	<path fill="#C3AB9D" d="M415.2,59.6c-1.3-0.8-1.3-0.8-0.2-1.9C415.1,58.4,415.1,58.9,415.2,59.6z" />
	<path fill="#84756D" d="M419.9,179.6c-0.1-0.7-0.1-1.5-0.2-2.2c0.2,0,0.3,0,0.5,0c0,0.8,0.1,1.5,0.1,2.3   C420.2,179.6,420,179.6,419.9,179.6z" />
	<path fill="#353944" d="M410.8,54.7c0.3-0.3,0.5-0.5,0.8-0.8c0,0.2-0.1,0.5-0.1,0.7C411.2,54.6,411,54.6,410.8,54.7z" />
	<path fill="#DCC3B3" d="M468.9,299.3c-0.1,0.5-0.2,0.9-0.4,1.4c0.4,0.5,0.7,1,1,1.4c-0.8,3.7,0.1,7.5-2.4,10.6   c-0.6,0.2-0.9,0-1.1-0.6c1.7-3,1.9-4.5,0.8-8c-0.2,3-1.3,5.4-0.8,8c-1.4-1.1-0.9-3.8-0.7-5.4c1.6-3.8-0.6-8.4,1.3-11.7   c0.2,1.4-0.4,2.9,0.3,4.4C467.7,299.4,468.3,299.3,468.9,299.3z" />
	<path fill="#2D2522" d="M459.9,275.4c3.1-3.8,5.4-11,10.5-11.6c-3.8,3.6-5.6,8.9-9.7,12.4C460.4,276,460.1,275.7,459.9,275.4z" />
	<path fill="#26211F" d="M468.9,299.3c-0.6,0-1.2,0.1-1.9,0.1c-1.2-3.3,0.4-6.5,1.3-9.6C469.5,292.7,469,296.2,468.9,299.3z" />
	<path fill="#322A26" d="M469.1,297.5c0.2-5.3-1.4-9.2,0.3-14.7C470.1,287.7,470.1,292.7,469.1,297.5z" />
	<path fill="#69615C" d="M452.5,283.7c1.3-1.7,1.9-2.7,3.9-3.9c-0.2,2.7-1.5,3.6-3,5.5C452.5,285.1,452.5,284.4,452.5,283.7z" />
	<path fill="#AC988B" d="M436.9,306.2c0.2,1.5,0.8,3,0.7,4.5c-1.6-2.3-1.6-2.4-2.5-6.6C436.3,304.3,436.3,305.5,436.9,306.2z" />
	<path fill="#998C83" d="M452.5,283.7c0.1,0.7,0,1.4,0.9,1.6c-0.4,1.3-0.8,2.7-1.2,4C451.9,287.4,451.1,285.5,452.5,283.7z" />
	<path fill="#6D5751" d="M459.9,275.4c0.3,0.3,0.5,0.6,0.8,0.9c-1.2,1.5-1.2,1.5-2.8,2.1C458.1,277,458.9,276.2,459.9,275.4z" />
	<path fill="#6B6058" d="M472.9,264.5c2.2-0.4,2.3,1.6,3.3,2.3C474.5,266.6,474.5,266.6,472.9,264.5z" />
	<path fill="#73685F" d="M437.6,310.7c0.1-0.2,0.1-0.5,0-0.7c1.4,1.2,1.4,1.2,2.1,3.4c-0.5,0.1-0.9,0.1-1.3,0.2   C438.4,312.5,437.7,311.7,437.6,310.7z" />
	<path fill="#BBA698" d="M450,296.6c0.7,1.8-0.4,2.4-0.9,4.4C448.9,298.7,448.9,298.7,450,296.6z" />
	<path fill="#AC988B" d="M437.7,311.3c0.2,0.3,0.3,0.6,0.5,0.9C438,312,437.9,311.6,437.7,311.3z" />
	<path fill="#2B2419" d="M460,245.8c5.2-1.7,10.2-3.5,12-9c0.5,0.4,0.9,0.7,1.4,1.1c-1.3,5.8-8,8.5-13.5,8.6   C460,246.3,460,246.1,460,245.8z" />
	<path fill="#3E3223" d="M445.9,245.6c-1.6-0.9-3.4-1.4-4.5-2.9c4.9,0.9,9.3,3.6,14.3,3c0.5,0.7-0.1,1-0.2,1.4   C452.2,247.6,449,246.4,445.9,245.6z" />
	<path fill="#593527" d="M460,245.8c0,0.2,0,0.4-0.1,0.6c-0.7,0.2-1.4,0.4-2.1,0.6C458.3,246.1,459,245.8,460,245.8z" />
	<path fill="#171312" d="M406.2,541.4c-2.1-0.5-1.3-2.8,0-4C406.2,538.7,406.3,540.1,406.2,541.4   C406.3,541.4,406.2,541.4,406.2,541.4z" />
	<path fill="#362E2A" d="M474.2,548.8c-0.2,2.2,0.6,4.4-0.4,7C473.1,553.5,472.7,550.8,474.2,548.8L474.2,548.8z" />
	<path fill="#695E57" d="M473.4,528.7c0.1-1.1-0.3-2.3,0.5-3.9C474.2,526.4,474.7,527.7,473.4,528.7L473.4,528.7z" />
	<path fill="#4C443F" d="M474.2,545.1c-1.6-0.9-0.5-2.1-0.4-3.2C474.5,542.8,474.2,544,474.2,545.1L474.2,545.1z" />
	<path fill="#281B19" d="M484,468.8c-0.3,0.8,0.2,1.8-0.7,2.4C483.3,470.5,482.6,467.5,484,468.8z" />
	<path fill="#D8BEAE" d="M496.6,339.9c-1.5-0.5-1.4,1.7-2.6,1.6c-0.4-2.3-0.8-4.6-1.2-6.8c1.2-1,1-2.4,1-3.8   C495.4,333.6,495.7,336.8,496.6,339.9z" />
	<path fill="#130F0E" d="M486.3,272.5c-0.5-1.9-0.2-3.8-0.2-6.2c1.7,2.5,1.8,3.3,0.7,6.2C486.6,272.5,486.5,272.5,486.3,272.5z" />
	<path fill="#64554E" d="M493.7,330.8c0,1.4,0.3,2.8-1,3.8c-0.8-1.4-0.9-3-1.3-4.5c0.7,0.1,1.4,0.1,2.1,0.2   C493.5,330.4,493.6,330.6,493.7,330.8z" />
	<path fill="#5B5650" d="M486.3,272.5c0.2,0,0.4,0,0.6,0c0,0.7,0,1.4,0,2.5C485.8,274,486.1,273.2,486.3,272.5z" />
	<path fill="#63554F" d="M486.1,275.8c0,0.6-0.1,1.2-0.1,1.8c-0.2,0-0.3,0-0.5,0c0-0.6,0.1-1.2,0.1-1.8   C485.7,275.8,485.9,275.8,486.1,275.8z" />
	<path fill="#593527" d="M462.3,245.1c-0.3,0.2-0.7,0.3-1,0.5C461.6,245.4,461.9,245.3,462.3,245.1z" />
	<path fill="#2C2320" d="M410.7,119.3c1.9,0.9,4.2,2.6,3.3,5c-2-0.8-2.8-2.3-3.5-3.9C410.6,120,410.6,119.6,410.7,119.3z" />
	<path fill="#7C6D64" d="M408.4,166.5c-0.6,3.6-1.2,4.9-2.6,6.5C405.7,171,405.7,171,408.4,166.5z" />
	<path fill="#7A6A61" d="M410.7,119.3c0,0.4-0.1,0.8-0.1,1.1c-0.4-0.4-0.7-0.8-1.1-1.2C410,118.7,410.4,118.6,410.7,119.3z" />
	<path fill="#4D3B37" d="M473.6,213.5c-0.4,0.4-0.7,0.7-1.1,1.1c-0.9-1.3-1.8-2.6-2.6-3.8C471.1,208.7,472.5,212.7,473.6,213.5z" />
	<path fill="#61534D" d="M443.5,180.8c0.2-1.6-1.5-3.2-0.3-4.9c1.3,0.8,2,4.9,0.5,5.5C443.7,181.1,443.6,180.9,443.5,180.8z" />
	<path fill="#97857B" d="M445.1,185.3c1.9,1.5,1.9,1.6,0.7,3.8C444.8,187.8,445.1,186.5,445.1,185.3L445.1,185.3z" />
	<path fill="#786962" d="M455.6,192c0.4-0.5,0.7-0.9,1.2-1.5c0.2,0.6,0.3,1,0.4,1.5c-0.4,0.7-0.7,1.4-1.1,2.2   c-0.2,0-0.3-0.1-0.5-0.1C455.6,193.4,455.6,192.7,455.6,192z" />
	<path fill="#9D8379" d="M475.8,214.2c1,0.9,0.7,2,0.5,3c-1-0.4-1.4-1.2-1.3-2.2C475.3,214.8,475.5,214.5,475.8,214.2z" />
	<path fill="#918277" d="M441.3,168.1c0.3-0.3,0.6-0.6,0.9-0.9c0.8,0.8,0.8,1.8,1,2.9C441.9,169.9,441.7,168.9,441.3,168.1z" />
	<path fill="#2B2522" d="M426.4,211.4c2.3,2.1,2.5,8.4-0.4,9.8C425.6,217.8,426.7,215.1,426.4,211.4z" />
	<path fill="#8E7E73" d="M424.8,204c0.3-0.3,0.5-0.5,0.8-0.8c0.3,1.9,1.7,3.6,1.4,6C425.2,207.6,425.1,205.7,424.8,204z" />
	<path fill="#332522" d="M491.2,324.2c0,0.6,0,1.2,0,1.7c-0.2,0-0.3,0-0.5,0c0-0.6,0-1.2,0-1.7C490.9,324.2,491.1,324.2,491.2,324.2   z" />
	<path fill="#74493D" d="M454,356.9c0.7-0.4,1.3-0.8,2-1.3c0.4,1.4-0.9,1.7-1.8,3C454.1,357.8,454.1,357.4,454,356.9L454,356.9z" />
	<path fill="#9D887D" d="M496.7,373.4c-0.2,0.4-0.4,0.8-0.5,1.2c-1.7-0.1-0.6-2.5,0.4-2.8C496.6,372.4,496.7,372.9,496.7,373.4z" />
	<path fill="#4F4540" d="M496.7,373.4c0-0.5-0.1-1-0.1-1.6c0.5,0,1,0,1.5,0c-0.1,0.8,0.2,1.7-0.7,2.3   C497.2,373.9,496.9,373.7,496.7,373.4z" />
	<path fill="#695F4F" d="M430.8,168.8c-0.7-0.3-0.6-0.9-0.6-1.5c0.2-0.3,0.5-0.6,0.7-0.8c0.8,0.7,0.6,1.6,0.5,2.4   C431.3,168.8,431,168.8,430.8,168.8z" />
	<path fill="#584D40" d="M431,166.4c-0.2,0.3-0.5,0.6-0.7,0.8c-0.7-3.6-1-6.4-0.8-10.3C431.4,160.2,430.9,163.1,431,166.4z" />
	<path fill="#A99980" d="M433.2,164.3c0.1-1.7-0.7-3.7,0.6-5c0,1.7,0,3.4,0,5C433.6,164.3,433.4,164.3,433.2,164.3z" />
	<path fill="#CAB698" d="M433.1,147.2c-1.7-0.5-1.8-0.9-0.8-2.2c2.2,1.3,5.7,0.8,8.2-0.2c0.5,0.2,1.4-0.2,1.5,0.8   C439.2,147,436.1,146.5,433.1,147.2z" />
	<path fill="#A89A8D" d="M434,154.5c-0.6-0.2-1.1-0.4-1.7-0.6c0,0,0,0,0,0c0-0.3,0-0.5,0.1-0.8c0.7-0.7,1.3-1.3,2-2   c0.2,0.2,0.4,0.3,0.6,0.5C435.1,152.8,433.2,153.2,434,154.5z" />
	<path fill="#B0A193" d="M433.1,149.4c1.1-1,1.1-1,2.9,0.6C434.8,149.7,433.9,149.5,433.1,149.4L433.1,149.4z" />
	<path fill="#9C8F83" d="M432.4,153.2c0,0.3,0,0.5-0.1,0.8c-0.8-1-1.1-2.1,0-3.2l0.2,0.2C432.4,151.7,432.4,152.4,432.4,153.2z" />
	<path fill="#9C8F83" d="M433.1,149.4c0,0.6,0.1,1.3-0.6,1.6l-0.2-0.2C432.3,150.2,432.3,149.5,433.1,149.4L433.1,149.4z" />
	<path fill="#A9977E" d="M432.2,157.6c-0.2-0.3-0.3-0.6-0.5-0.9C431.9,157,432.1,157.3,432.2,157.6z" />
	<path fill="#614438" d="M434.6,136c1.6-1.7,4.8-0.4,7-0.9c1-0.6,1.8-0.8,3.2-0.6c-0.5,2.5-3,0.7-4.1,2.2c-1.3-0.3-2.5-1.5-3.9-0.1   C436.1,136.3,435.3,136.1,434.6,136L434.6,136z" />
	<path fill="#B1A98D" d="M434.6,135.9c2.4,0.6,3.5,1,6.4,1.9c-2.2,0.4-3.5,0.4-4.8,0.3C435.6,137.4,435.1,136.7,434.6,135.9z" />
	<path fill="#442C25" d="M439.8,143.3c-2.5,0.1-5.7,0.8-7.5-1.4c2.5,0.4,4.9,1.1,7.5,0.7C439.8,142.9,439.8,143.1,439.8,143.3z" />
	<path fill="#3D1A15" d="M440.5,144.8c-2.4,0.5-4.9-0.1-7.4,0c0-0.2,0-0.4,0-0.5c2.5-0.1,4.9-0.1,7.4-0.2   C440.6,144.3,440.5,144.6,440.5,144.8z" />
	<path fill="#18120F" d="M445.9,139c-0.7,0.4-1.4,0.7-2.1,1.1C444.5,138.1,444.5,138.1,445.9,139L445.9,139z" />
	<path fill="#1C1715" d="M466.7,127c-0.2-0.2-0.5-0.5-0.7-0.7l0,0C466.2,126.5,466.4,126.7,466.7,127L466.7,127z" />
	<path fill="#46362E" d="M466.7,127c0.2,0.1,0.3,0.2,0.5,0.3C467,127.2,466.9,127.1,466.7,127L466.7,127z" />
	<path fill="#D3BBA0" d="M445.8,125.4c0.7-0.4,1.5-0.8,2.2-1.2c1,0.2,1.9,0.5,2.9,0.7C449.5,125.8,447.4,125.8,445.8,125.4z" />
	<path fill="#58362F" d="M445.8,125.4c0.2,0.1,0.5,0.2,0.7,0.2c0.5,0.5,1.1,0.9,1.6,1.4c-1.3,1-2.9,0.7-4.4,0.8c0-0.3,0-0.5-0.1-0.8   c0.6-0.1,1.2-0.2,1.8-0.3c-0.7-0.5-1.2-0.8-1.8-1.2C444.3,125.4,445,125.4,445.8,125.4z" />
	<path fill="#1A201C" d="M443.7,127.8c1.5-0.1,3.1,0.2,4.4-0.8c0.2,0.2,0.4,0.4,0.6,0.6c-1.4,1.2-3.3,1-5.1,0.7   C443.6,128.2,443.6,128,443.7,127.8z" />
	<path fill="#D3C7AA" d="M447.3,128.5c0.5-0.3,0.9-0.6,1.4-0.9c0.3,0.3,0.5,0.5,0.8,0.8c-0.2,0.3-0.5,0.6-0.7,0.8   c-0.5,0-1-0.1-1.6-0.1C447.2,129,447.2,128.7,447.3,128.5z" />
	<path fill="#80776D" d="M435.5,156c0.2,0.3,0.4,0.5,0.6,0.8C435.9,156.5,435.7,156.3,435.5,156z" />
	<path fill="#3A2826" d="M460,147.3c0.5-0.1,1-0.2,1.4-0.3c1,0.9,1,1,0,1.8c-0.2-0.1-0.4-0.1-0.6,0   C460.5,148.3,460.3,147.8,460,147.3z" />
	<path fill="#F6D9C7" d="M460.8,148.8c0.2-0.1,0.4-0.1,0.6,0c0,0.2,0,0.5,0.1,0.7C461.3,149.2,461.1,149,460.8,148.8z" />
	<path fill="#D3B79B" d="M447.2,129.2c0.3,0,0.5,0,0.8,0c-0.5,0.8-1.3,0.8-2.1,0.6C446.1,129.2,446.7,129.2,447.2,129.2z" />
	<path fill="#1F1A16" d="M498.8,562.2c1.1,2.9-3.6,3.1-5.7,4C493.2,563.5,496.4,562,498.8,562.2L498.8,562.2z" />
	<path fill="#2D221D" d="M441.3,589.1c-1.8,2.9-4.8,3.7-8.1,4.8c0.1-0.8,0.1-1.2,0.1-1.6c2.5-1.1,5.1-2,7.1-3.9   C440.7,588.6,441,588.8,441.3,589.1z" />
	<path fill="#4D3C35" d="M441.3,589.1c-0.3-0.3-0.6-0.5-0.9-0.8c1.1-1.1,2.5-0.6,3.8-0.6c0.5,0.4,1.1,0.8,1.6,1.3   C444.4,589.9,442.9,588.8,441.3,589.1z" />
	<path fill="#786657" d="M431.6,592.9c-0.2,1.9-1.9,1.9-3.5,2.8c-0.1-0.6-0.2-1-0.3-1.4C429.1,593.8,430.3,593.4,431.6,592.9z" />
	<path fill="#0D0D0F" d="M389,24c1.1-1.3,2.3-2.5,3.2-3.6c8.9-0.9,6.5,14.7-1,14.1c-0.3-0.7-0.9-0.7-1.5-0.7c-0.1-0.2,0-0.8-0.5-0.3   c0.2,0.1,0.3,0.2,0.5,0.3c0.2,0.8,0.9,0.7,1.5,0.7c0.6,0.4,1.1,0.7,1.8,1.2c-7.4,1.3-7.4-8.4-4.5-13.4   C388.8,23.2,388.9,23.6,389,24c-0.4,0.3-1,0.5-0.2,1.1C388.9,24.7,389,24.3,389,24z M392.9,32.9c10.6-9.2-5-17.8-3.1-2.1   C390.6,31.9,391.2,32.9,392.9,32.9z M388.1,28.1c-0.2,0-0.3,0-0.5,0.1c0.1,0.5,0.1,0.9,0.2,1.4c0.2,0,0.3,0,0.5-0.1   C388.2,29,388.1,28.6,388.1,28.1z M388.5,31.8l0.2,0.1l0-0.2L388.5,31.8z" />
	<path fill="#131317" d="M402.5,52.4c-1.9,2.7-6.5,4.6-9.8,3.2C396.6,55.5,399.3,53.4,402.5,52.4L402.5,52.4z" />
	<path fill="#212229" d="M380.3,34.9c-0.3-1.4-0.4-2.7,0.1-4C382,31.8,382,33.2,380.3,34.9z" />
	<path fill="#131317" d="M389.8,54.6c0.6,0,1.2,0,2,0C390.8,55.6,390.3,55.4,389.8,54.6L389.8,54.6z" />
	<path fill="#131317" d="M389.8,54.6c-0.6,0-1.3,0.1-1.5-0.7l0,0C388.9,53.8,389.5,53.8,389.8,54.6L389.8,54.6z" />
	<path fill="#131317" d="M388.3,53.8c-0.2-0.1-0.3-0.2-0.5-0.3C387.9,53.6,388.1,53.7,388.3,53.8C388.3,53.8,388.3,53.8,388.3,53.8z   " />
	<path fill="#7B8370" d="M443.6,125.6c0.5,0.4,1.1,0.7,1.8,1.2c-0.9,0.1-1.7,0.3-2.6,0.2c-0.5-1.1-1.4-0.7-2.2-0.7l0,0   c0-0.5-0.1-1-0.1-1.4C441.5,125.1,442.5,125.4,443.6,125.6z" />
	<path fill="#CEC4A8" d="M440.5,126.3c0.8-0.1,1.7-0.4,2.2,0.7c-1.4,0.4-2.1,0.6-3.8,0.8C439.7,127,440.1,126.6,440.5,126.3z" />
	<path fill="#CCCCAF" d="M443.6,128.4c0.5,0.1,0.9,0.1,1.4,0.2c-0.3,0.9-1,0.6-1.7,0.5C443.4,128.8,443.5,128.6,443.6,128.4z" />
	<path fill="#5A4A3E" d="M436.1,132.9c-0.2,0-0.5,0-0.6-0.1C435.7,132.3,435.9,132.5,436.1,132.9z" />
	<path fill="#4E4238" d="M438.4,125.3c0.2,0.1,0.4,0.2,0.6,0.3C438.4,126.4,438.5,125.6,438.4,125.3z" />
	<path fill="#573A32" d="M438.3,118c0.6,0,1.4-0.2,1.6,0.8C439.1,118.9,438.5,118.8,438.3,118z" />
	<path fill="#524237" d="M431.6,138.2c0.8,0.3,1.5,0.5,2.3,0.8c0.2,0.4,0.3,0.8,0.6,1.5C433,140.1,432,139.5,431.6,138.2z" />
	<path fill="#D3BBA0" d="M443.6,125.6c-0.2-0.1-0.4-0.1-0.7-0.1c0-0.2-0.1-0.5-0.2-0.7c0.8,0.1,1.7-0.3,2.3,0.6   C444.6,125.4,444.1,125.5,443.6,125.6z" />
	<path fill="#759179" d="M433.2,144.9c2.2,0.1,4.5,0.1,6.7,0.2c-2.3,1-5.6,1.2-7.6,0C432.6,144.9,432.9,144.9,433.2,144.9z" />
	<path fill="#1B1514" d="M427.9,454c-0.9,0.3-0.7,1.1-0.9,1.8c-0.5-3.7-3.3-6.2-0.8-10C426.7,448.8,426.3,451.3,427.9,454z" />
	<path fill="#7D6F66" d="M466,312.1c-0.4-2.6,0.6-5.1,0.8-8C467.9,307.6,467.7,309,466,312.1L466,312.1z" />
	<path fill="#30343F" d="M392.9,32.9c-1.6,0-2.2-1-3.1-2.1C387.9,15,403.5,23.7,392.9,32.9z M393,29.8c3.9-1.4,1.9-9.2-1.4-5.4   c0.6,0.3,1.2,0.5,1.7,0.7C394.3,26.6,392.5,27.9,393,29.8z" />
	<path fill="#373A46" d="M388.1,28.1c0.1,0.5,0.1,0.9,0.2,1.4c-0.2,0-0.3,0-0.5,0.1c-0.1-0.5-0.1-0.9-0.2-1.4   C387.7,28.1,387.9,28.1,388.1,28.1z" />
	<path fill="#373A46" d="M389,24c-0.1,0.4-0.1,0.7-0.2,1.1C388,24.5,388.6,24.2,389,24C389,24,389,24,389,24z" />
	<path fill="#373A46" d="M389.8,33.7c0.6,0,1.2,0,1.5,0.7l0,0C390.7,34.4,390,34.4,389.8,33.7L389.8,33.7z" />
	<path fill="#373A46" d="M389.8,33.7c-0.2-0.1-0.3-0.2-0.5-0.3C389.8,32.9,389.6,33.5,389.8,33.7L389.8,33.7z" />
	<polygon fill="#373A46" points="388.5,31.8 388.7,31.7 388.7,31.9  " />
	<path fill="#0B0A0C" d="M393,29.8c-0.5-1.9,1.3-3.1,0.2-4.7c-0.5-0.2-1-0.4-1.7-0.7C394.9,20.5,396.9,28.4,393,29.8z" />
</g>
</svg>