<?xml version='1.0' encoding='utf-8'?>
<svg xmlns="http://www.w3.org/2000/svg" version="1.2" baseProfile="tiny" id="Layer_1" x="0px" y="0px" viewBox="0 0 900 600" overflow="visible" xml:space="preserve">
<g id="a_00000027594028418224684670000014901457309007451319_">
	<path d="M382,191.9c-0.1,0.1-0.2,0.2-0.1,0.4c-0.9,0.9-0.6,2.1-0.6,3.2c-0.2,0.1-0.3,0.3-0.1,0.5c-1,1.9-0.6,3.9-0.7,5.9l0,0   c-0.3,0.5-0.5,1-0.8,1.4c0,0,0,0,0,0c-1.2,0.7,2.5,2.7,2.9,3.8l0,0c0.2,0.3,0.4,0.6,0.7,0.8l0,0c0.5,0.7,1,1.4,1.5,2.2l0-0.1   c0.8,1.7,1.6,3.1,2.9,4.4l0-0.1c0.3,0.5,0.6,0.9,0.8,1.4l0,0c0.3,0.5,0.5,0.9,0.8,1.4l0,0c0,1,0.5,2.4-0.7,2.9   c-4.5-9.6-12.7-17.5-23.8-18.1c-0.5-0.4-0.9-0.8-1.4-1.2c0.6-0.2,1.6-0.2,1-1.4c-19.5-2.7-23.9,9.7-30.6,25.1   c-1.3-0.6-0.5-2.4-0.7-3.6c0.2-0.2,0.2-0.3,0.1-0.6c0.2-0.8,0.4-1.5,0.6-2.3c0.2-0.1,0.2-0.2,0.1-0.4c0.2-0.3,0.5-0.6,0.7-1l0,0   c0.5-0.7,0.9-1.5,1.3-2.3c0.2-0.1,0.2-0.2,0.2-0.4c0.7-1.3,1.4-2.6,2.1-3.9l0,0c0.3-0.5,0.5-1,0.8-1.4c0,0,0,0,0,0   c0.3-0.5,0.6-0.9,0.8-1.4l0,0.1c0.5-0.8,0.9-1.5,1.4-2.3c0,0,0,0,0,0c0.5-0.7,0.9-1.5,1.4-2.2l0,0c0.3-0.4,0.6-0.9,0.9-1.3l0,0   c0.2-0.3,0.4-0.6,0.6-0.9c0,0,0,0,0,0c0.5-0.7,1-1.4,1.5-2.2c0,0,0,0,0,0c0.5-0.7,1-1.4,1.5-2.2l0,0c0.8-0.6,0.7-1.4,0.7-2.3l0,0   c0.2-1.2,0.5-2.4,0.7-3.7l0,0c0.8-0.6,0.8-1.4,0.7-2.2c0.2-0.2,0.2-0.3,0.1-0.5c0.2-0.8,0.4-1.6,0.7-2.3c0.1-0.1,0.2-0.2,0.1-0.4   c0.3-0.8,0.5-1.6,0.8-2.4l0,0.1c1.1-1.1,0.7-2.1,0-3.2c0.3-0.5-0.5-0.9-0.7-1.4l0,0c-0.2-0.3-0.5-0.7-0.7-1c0-1.9,1-3.7,0-5.5   l0,0.1c-0.1-1.5,0.1-3-0.7-4.4l0,0.1c0-1,0.2-2.1-0.8-2.9l0,0c-0.6-1.3-0.7-3-2.1-3.7l0.1,0c-0.3-0.5-0.6-0.9-0.9-1.4l0,0   c-0.6-3.6-0.2-7.2,0-10.8c0.1-0.1,0.1-0.2,0-0.4c0.7-1.8,0.4-3.7,1.4-5.4l0,0c0.3-0.7,0.6-1.4,0.8-2.1l0,0.1   c0.8-0.6,0.8-1.4,0.7-2.2l0,0.1c0.3-1.1,0.8-2,1.6-2.8l0,0c0.2-0.3,0.4-0.6,0.7-0.8c0,0,0,0,0,0c0.3-0.3,0.5-0.8,0.9-1   c-0.5-0.7-0.1-1.7-0.1-2.5l-0.1,0.1c1.7-0.9,1.9-1.5,0.7-3.4c0.3-0.2,0.6-0.4,0.9-0.6c0.6,0.4,1.2,0.7,1.8,1.1l0.1-0.2l-0.1,0.2   c0.2,0.1,0.4,0.2,0.7,0.3c0.6-1.1,1-2.1,1-3.4l0,0c0.3-0.2,0.5-0.5,0.8-0.7l0,0c0.1,0.1,0.4,0.1,0.6,0l0,0c0.2,0.9,0.5,1.9,0.8,3.1   c1.1-0.7,1.9-1.2,3-1.6c0,0,0,0,0,0c1.3,0,2.6,0.1,3.7-0.7l0,0c0.5-0.3,1-0.5,1.4-0.8c0,0,0,0,0,0c0.7-0.3,1.4-0.5,2.1-0.8l0,0   c2.4-0.1,4.7-0.6,7.1,0.1l-0.1,0c0.3,0.2,0.5,0.5,0.8,0.7l0,0c0.1,0.2,0.2,0.4,0.3,0.6c0.5-0.8,1.3-1.4,2-2.1c0,0,0,0,0,0   c0.2,0.1,0.5,0.1,0.6,0l0,0c0.3,0.2,0.5,0.5,0.8,0.7l0,0c0,0.5,0.1,0.9,0.7,0.8l0,0c0.3,0.6,0.7,0.4,1.1,0c2.2-0.1,3.7,0.8,4.8,2.8   c0.4-0.7,0.6-1.1,0.8-1.5c0,0,0,0,0,0c0.3-0.2,0.6-0.4,1-0.7c0.2,0.1,0.3,0.1,0.4-0.1c0.4,0.1,0.9,0.2,1.3,0.2l-0.1-0.1   c0.3,0.5,0.5,1,0.8,1.4c0,0,0-0.1,0-0.1c-0.2,0.4-0.4,0.8-0.7,1.5c2.3-0.3,4.2,0.3,6.1-0.8c0.2,0.1,0.4,0.1,0.5-0.1l0.3,0.1l0.3,0   l0,0c0.2,0.3,0.5,0.5,0.7,0.8l0,0c1.3,1.2,3.4,0,4.3,2.2l0,0c0,0.5,0.3,0.8,0.9,0.7c0.1,0.1,0.2,0.1,0.3,0c0.9,1.8,0.5,3.7,0.2,5.6   l0-0.1c-0.2,0.5-0.5,1-0.7,1.5l0-0.1c-0.8,1.1-1.8,2.1-3,2.8l0,0c-1.2,0.4-1.2,0.4-0.7,1.6l0.1-0.1c-0.2,0.3-0.5,0.5-0.7,0.8l0,0   c-1-0.2-1.4,1-2,1.5c-3-0.7-4.5,2.3-6.9,2.6c-1.9,6.9-5.9,12.3-7.2,19.2c-1.6-1-2.8-3.4-4.1-8c0.5-1.8-1.9-2.2-1.5-3.6   c0.4,0.1,0.9,0.2,1.6,0.3c-0.6-1.5-0.9-2.5-1.2-4c-0.7,0.2-1.1,0.3-1.8,0.4c0.9,1.7-1.3,2.3-1.1,3.7c-4.7,0.1-7.3,5.2-5.2,9.5   c-0.3,0.5-1.1,1-1.4,1.3c0.2,2.2-1.7,3.3-2.3,5.2l0,0c-2.2,1.5-3.4,3.5-3.1,6.2c-1.2,0.6-2.2,1.2-3.1,1.7c-0.9-0.1-1.5-0.2-2.3-0.4   c-0.4,0.7-0.6,1.2-0.9,1.7c-0.9-0.9-1.6-4.3-3.2-2.4c1.3,5.4-2,15.1-4,20.7c10.4-3.7,20.2-0.7,30.1,3.3c0.3-5.7,1.5-11.2,4.1-16.3   c0.4,0.2,0.8,0.4,1.3,0.6c0,0.2,0,0.5-0.1,0.7l0,0c-0.2,0.7-0.5,1.5-0.7,2.2l0,0C382.1,190.3,382,191,382,191.9z M356.8,173.9   c-1.6-0.1-3.2,0-4.7,0.5c-0.8-1.7,0.1-2,0.7-3.3c-0.7-0.3-1.3-0.5-2.1-0.9c-0.4,2.4-0.8,4.6,1,6.4c2-1.7,3.9-2.1,6.5-3   C357.3,173.1,357,173.4,356.8,173.9z M395.6,132.4c-1,0.1-1.2,0.6-1.8,1.3c-2.5,5.6-9.4,3.5-8.4,6.9   C389.8,139.8,394.1,136.9,395.6,132.4z M355.2,133.3c-3.3,2.2-5.1,4.2-5.7,6C352,137.3,356.3,137.9,355.2,133.3z M381,142.8   c-1.6-1.8-1.6-2.8-3.6-2.7c-0.3,0.7-0.5,1.2-0.7,1.6c-0.6-0.3-1-0.6-1.7-1c-0.1,1.1-0.1,1.8-0.1,2.4c0.9,0.2,1.7,0.3,2.4,0.4   c0.5-0.4,1-0.7,1.5-1.1C379.2,142.5,379.8,142.6,381,142.8z M356,140.2c1.5,0.8,1.7,1.5,1.8,3.3c1.2-2.2,1.5-3.7,1.4-5.6   C358.1,138.3,356.9,138.5,356,140.2z M371.9,125.9c-2.1-0.7-3.3,0.4-4.8,0.6c0.6,1.3,1,2.4,0.8,3.8c1.9-0.7,1.7-2.5,2.1-3.8   C370.7,126.4,371.1,126.2,371.9,125.9z M363,147.3c-0.4,1.7-1.2,2.7,0,4.3c1.1-1.5,3.4-2.5,1.9-4.3   C364.3,147.3,363.6,147.3,363,147.3z M401.8,134.6c-1.7,1.7-4.2,2.2-4.6,4.9C399.7,138.2,401.1,136.7,401.8,134.6z M391.6,130.6   c-2.8,0.5-6,1.1-5.6,3.8C387.9,133.1,389.4,132.1,391.6,130.6z M380.4,152.6c0-2.1,0.3-3.4,1.4-5.4c-0.8,0.2-1.3,0.3-1.8,0.4   C379.9,149.3,379.7,151,380.4,152.6z M378.4,129.5c-2.3-1.2-2.7-0.2-3.8,2C376,130.7,377.2,130.1,378.4,129.5z M353.1,149.6   c-1.7,1-1.9,3.6,0,3.6C353.1,152,353.1,150.9,353.1,149.6z M382.5,131.8c-1,1-2.1,2.1-3.5,3.5C382.4,134.2,382.6,133.9,382.5,131.8   z M360.2,129.7c-1.7,0-3.1,0.5-3.5,2.4C357.9,131.3,359.1,130.5,360.2,129.7z M370.7,139.1c1.4,0,1.8-0.6,1.8-1.8   C371.3,137.3,370.7,137.7,370.7,139.1z M381.9,130c0.7-0.4,1.3-0.8,1.9-1.1c0-0.1-0.1-0.2-0.1-0.4c-0.7,0.1-1.4,0.1-2.3,0.2   C381.6,129.2,381.7,129.5,381.9,130z M397.3,133.2c1.1-0.3,1.5-0.9,1.8-1.8C397.5,131.6,397.5,131.6,397.3,133.2z M382,152.9   c0.4,0.6,0.7,1.2,1.2,2.1C383.7,153.7,383.4,153,382,152.9z M360.6,175.2c-1,0.1-1.5,0.2-2.2,0.3   C359,176.5,359.5,176.6,360.6,175.2z M355.3,150.5c-0.2,0-0.4,0.1-0.6,0.1c0.1,0.6,0.1,1.3,0.2,1.9c0.1,0,0.3,0,0.4,0   C355.3,151.8,355.3,151.2,355.3,150.5z" />
	<path fill="#010101" d="M327.3,540.6c0.2-0.1,0.2-0.3,0.1-0.4c0.2-0.6,0.5-1.1,0.7-1.7c0,0,0,0,0,0c0.4-0.6,0.8-1.1,1.4-1.5   c0.6,0.3,1.2,0.6,2,1c0.1-0.8,0.2-1.5,0.3-2.3c0,0,0,0,0,0c1.3-2.3,0.4-5.4,0.8-8l0,0.1c0.8-8,1-16.7,0-24.7l0,0.1   c-0.3-3.4,0.1-6.8-0.8-10.1l0,0c0.1-4.7,0.2-9.5-0.7-14c0.9-2.2,0.7-4.5,0.7-6.8l0,0c0.7-0.9,0.7-1.9,0.7-2.9   c0.2-0.1,0.2-0.3,0.1-0.5c0.2-0.8,0.4-1.6,0.6-2.4c0.2-0.1,0.2-0.3,0.1-0.5c0.3-0.8,0.6-1.5,0.8-2.3l0,0.1c0.9-1.2,2.1-2.4,2.8-3.8   l0,0c0.2-0.5,0.5-1,0.7-1.5l0,0c0.3-0.7,0.5-1.4,0.8-2.2l0,0c0.3-0.7,0.5-1.4,0.8-2.2l0,0.1c1-2.8,1-5.6,0-8.4   c0.1-0.2,0.1-0.3-0.1-0.4c0-3.1,0-6.1,0-9.4c-0.8,0-1.4-0.1-2.1-0.1l0,0c-1.6-1.4-2.7,0.3-4.4,0.1l0,0c-0.1-0.9-0.1-1.9-0.2-2.8   c0.3-0.1,0.3-0.3,0.2-0.5c0.2-1.7,0.5-3.5,0.7-5.2c0,0,0,0.1,0,0.1c0.8-1.4,0.7-2.9,0.7-4.4c0.2-0.2,0.2-0.3,0.1-0.5   c0.8-4.1,0.7-8.6,0-12.7c0.1-0.1,0.1-0.3,0-0.4c0.1-2.5,0-5-0.7-7.4c0.2-0.2,0.1-0.3,0-0.5c-0.4-5.3,0.3-10.8-0.7-16l0,0.1   c0.1-2.2,0.2-4.4-0.8-6.5l0,0c-0.2-0.7-0.5-1.5-0.7-2.2l0,0c-0.2-1-0.5-1.9-0.7-2.9l0,0c-0.4-3.2-3.2-5.3-0.7-8.6   c7.9,21.5,6.9,45.9,5.4,68.3c5.7,0.3,11.3,0.5,16.9-0.6c1.5-0.3,0.1-2.2,1.4-2.7c0.2,0.8,0.3,1.7,0.5,2.8   c9.4-2.3,19.1-0.4,28.5,1.4c3.3-12.9,5-26.1,8.1-39.1c1.3-10.7-1.2-22.2,2.7-32.9c2.5,4.5-0.1,10.2,1.2,15   c41.7-4.6,26.7,8.2,31.9-22.2l0,0c2.9-10.4,5.7-22.3,8.8-33.4c-7.9-1.4-15.4-1.4-23.2-1.8c-0.6-0.7-1.2-1.3-1.7-1.9   c-0.9-0.1-1.8-0.2-2.6-0.3c0-0.5-0.1-0.9,0.2-1.3c1.5,0,2.9-0.1,4.1,0.7l0,0c0.2,0.3,0.5,0.5,0.7,0.8l0,0   c18.2,0.4,37.2,2.2,55.6,4.9c0.1,0.2,0.3,0.3,0.5,0.1c0.8,0.2,1.6,0.5,2.3,0.7l0,0c-0.2,1.5,3.8,1.6,2.1,2.9   c-11.2-3.5-23.3-3.1-34.9-4.1c-1.4,2.6-3.4,10.2-3.8,14.1c1.6,0.7,3.3,1.4,4.9,2.2c0,0.3,0,0.5,0,0.8c-1.8-0.3-3.7-0.6-5.7-1   c-3,8-5,16.9-6.5,25.2c6-0.8,11.4-2.9,17-5c1.7,1.3,3-1,4.5,0.1c-5.2,4.3-12,6-18.4,8.3c-1.5,3-0.2,7-3,10.1   c-10.8,0.6-21.8,2.2-33.1,2c-3.5,18.6-3.3,39.4-10,57.3c-3.4,0.7-6.6-0.7-10.2-1.2c-2.1,5.2,0.8,11.9-2.8,16.8   c-7.6,13.4-4.7,29.7-10,43.9c-5.4,14.4-8.8,28.3-7,43.7c4.8,2.2,4.3,8.4,9.3,10.5c9.6,6.4,16.6,12.7,29,11.8   c0.1,0.2,0.3,0.2,0.5,0.1c1.3,0.4,2.4,1,3,2.2l-0.1-0.1c0.2,3.3,0.3,6.6,0.5,9.9c0.3,0.1,0.7,0.2,1,0.3l-0.1-0.1c0,0.6,0,1.3,0,1.9   l0.1-0.1c-0.7,0.3-1.4,0.5-2.1,0.8l0,0c-1.9,0.5-4.1,0.4-5.7,1.5l0,0c-0.8-0.1-1.6-0.1-2.2,0.7l0,0c-1,0.3-1.9,0.5-2.9,0.8   c0,0,0,0,0,0c-1.4,0.3-2.9,0.5-4.3,0.8c0,0,0,0,0,0c-3.6,0-7.1,0-10.7,0c0,0,0,0,0,0c-1.4-0.2-2.9-0.5-4.3-0.7l0,0   c-1.1-0.8-2.4-0.6-3.6-0.7l0,0c-1.3-1.1-2.9-0.5-4.3-0.8l0,0c-1.2-0.2-2.8-1.7-3.8-0.8c0,0,0.1,0.2,0.1,0.2l-0.1-0.2   c-0.7,0.5-1.4,1-2.1,1.5l0,0c-0.5,0.2-1,0.4-1.5,0.7l0.2,0.1c0,0-0.1-0.1-0.1-0.1c-1.9,0-3.7,0.1-5.6,0.1l0,0   c-1.8-1-3.8-0.6-5.8-0.7l0,0c-1.2-0.7-2.5-0.8-3.7,0c0,0,0,0,0,0c-2.8-0.2-5.7-0.5-8.5-0.7l0,0c-1.7-0.7-3.5-1.1-5-2.3l0.1,0.1   c0-0.6-0.1-1.3-0.1-1.9l0,0c0.2-0.3,0.5-0.5,0.7-0.8l0,0c1.4-1.3,0.4-3.4,0.7-5.1l0,0c1-2.1,1-4.3,0.8-6.6c0.1-0.1,0.1-0.3,0-0.4   c0.2-1.1,0.4-2.1,0.6-3.2l0,0c0.3-0.7,0.6-1.4,0.8-2.1c0,0,0,0.1,0,0.1c0.3-0.5,0.5-1,0.8-1.4l0,0.1c1-1.2,1.7-2.2,1.3-3.8   c0.1-0.1,0.1-0.2,0.1-0.4c0.9-1.2,0.5-2.6,0.6-3.9c0.2-0.1,0.2-0.3,0.1-0.5C328,544.9,326.8,542.6,327.3,540.6z M361.8,444   c2.7-1.9,5.4-3.7,8-5.5c0-1.4,0-2.2,0-3.5c-9-1.9-19,0.4-27.8,1.3c3.4,13.8-4.1,24.5-7.7,37.1c-1.9,15.2,2.1,30.5,0.9,45.9   c0,6.7,0,13.4-2,19.9c-0.9,2.4,2.1,6.8,4.9,5.5c4.9-0.9,13.8,4.4,14-3.6c-0.4-0.1-0.9-0.2-1.3-0.3c-1.4-23.6,9-45.6,12.1-68.8   c0.1-10.4,7.7-19.5,7.4-29.4c-1.9,1.5-4.1,3.4-6.8,3c-1.2-0.2-2.3,1.2-3.7,0.5c-0.3-0.6-0.6-1.2-1.2-2.2   C360.2,444.4,360.6,444.8,361.8,444z M392.8,565.8c-1-1.5-3.6-1.2-5.2-1.4c-3.8,0.2-7.6-1.7-11-2.7c-0.8,0.2-1.2,0.3-1.6,0.4   c-1-1.9-2.1-3.4-4-3.8c-0.2,0.3-0.4,0.5-0.9,1.1c-0.1-1.5,0-2.7-1.2-3.4c-0.7,0.7-1.4,1.4-2.1,2.1c-1.9-1.1-0.2-2.5-0.6-3.9   c-0.6-0.4-1.4-0.9-2.3-1.4c-0.6,1.8-1.4,3.3-3.1,3.8c-2.2-1.4,0.6-3.1-0.5-4.7c-1.7,0.6-1.8,2.8-4,2.8c-0.8-2.3,0.9-4,0.7-6   c-0.7-1.9-1.8-3.4-1.8-5.4c-0.2,0-0.3,0-0.5-0.1c-0.2,0.7-0.5,1.4-0.7,2.1c-3.5,0.9-5.6,3.4-7.3,6.2c-8.7,2.4-14.3-4.8-16.2-12.3   c-2.5,5.1-0.1,11.6-3.1,16.5c-3.1,5.9-2,13-3.7,19.3c6.6,1.6,14,1.2,20.9,2.6c5,1.5,6.5-3.4,10.3-2.7c12.6,4.2,26.2,4.4,38.6-0.3   C393.2,571.6,393.9,568.7,392.8,565.8z M346.1,547.9c-2.6-0.3-4.8-0.3-7.5,0c2.1,2.3,4.4,2.3,6.9,2.4   C345.6,549.4,345.8,548.8,346.1,547.9z M428.3,367.7c-0.9-0.9-1.6-0.9-2.3-0.1c-0.2,1.9,0.1,3.7,1.2,5.7   C427.6,371.1,428,369.3,428.3,367.7z" />
	<path fill="#020202" d="M500.1,501.3c0.3,2.4-0.2,4.8,0.7,7.1c-0.1,0.2-0.1,0.3,0,0.5c0.3,5.4-0.3,10.9,0.7,16.1   c-0.1,0.2-0.1,0.3,0,0.4c0.5,6.1,0,12.9,1.9,18.7c1.7,0,3.1,0,4.5,0c1.5-2.3,3.8-1.1,5,0.9l0-0.1c0.3,0.5,0.5,1,0.8,1.4l0,0   c0.3,0.5,0.5,1,0.8,1.5l0,0c-0.1,1.3,1.4,1.5,2.3,2.1l0,0c0.5,1.7,1.2,3.4-0.2,4.9l0.1-0.1c-0.4,0.3-0.9,0.6-1.3,0.9l0,0   c-3.9,0.1-7.6-0.5-11.5,0.3c0,6.7,0,13.3,0,19.9l0,0c-0.8,1.9-0.8,3.8-0.6,5.8c21,0.5,42-0.6,63-0.6c0.3,0.3,0.6,0.5,0.9,0.8   l-0.1-0.1c0.3,1.2,1.3,1.3,2.3,1.4l0,0c0.6,0.4,1.1,0.9,1.5,1.4l0,0c0.2,0.3,0.4,0.5,0.7,0.8l0-0.1c0.5,0.7,1,1.5,1.4,2.2l0-0.1   c0.3,0.5,0.5,1,0.8,1.5l0-0.1c0.3,0.7,0.6,1.4,0.8,2.1l0,0c-0.1,1.3-0.2,2.5,0.8,3.6c0,0,0,0,0,0c-0.1,0.7-0.1,1.4-0.2,2l0,0   c-0.2,0.5-0.4,1.1-0.6,1.6l0,0c-53.6,1.5-107.4,1-161,1.7c-4.9,0.8-6-3.1-6.8-6.9l0,0.1c0-0.4,0-0.9,0-1.3l0,0   c0.5-0.7,1-1.5,1.5-2.2c0,0,0,0,0,0c0.5-0.7,1-1.4,1.5-2.2c0,0,0,0,0,0c0.7-1,1.5-1.9,2.2-2.9c0,0,0,0,0,0c0.2-0.3,0.5-0.5,0.7-0.8   l0,0c0.3-0.3,0.5-0.5,0.8-0.8l-0.1,0.1c22.3-1.3,44.7-0.3,67-1.2c0.1-8.7,1.3-17.6,0.2-26.2c-20.8-0.3-42.5,0.9-62.9-0.7   c21-0.6,42.1-0.2,63.1-0.9c-0.1-3,1.4-6.9-0.6-9.2c-9.6-0.8-20.2,1.1-29.3-0.7c1.3-0.4,2.8-0.2,3.6-1.5c0.2,0,0.4,0,0.6,0   c-0.3,2.9,21.9,1,25.5,1.1c0-0.2,0-0.3,0-0.5c-3.2,0-6.4,0-9.6,0c0-0.2,0-0.5,0-0.7c3.2-0.2,6.6,0.1,9.8-0.7   c0.7-17.4-2.1-34.1-3.7-51.4c-1-9.3-11.6-11.3-19.2-10.9c-7.2,11.8-1.1,33.9-4,47c0.4-15.3-4.2-31.7,1.2-46.4   c-0.7-0.8-1.5,0.6-2-0.4c5-4.6,13.8-1.5,20.2-1.7c14.7-0.5,29.4,0,44-1.6c-0.6-4.8,1.5-10.2-1.5-14.1c0.7-1,1.9-0.5,2.8-0.5l0,0   c0.2,0.3,0.4,0.6,0.7,0.8l-0.1-0.1c0.3,0.7,0.6,1.4,0.9,2.1l0,0c0.1,4.1,0,8.1,0,12.2c0,0,0,0,0,0c-2.3,3.2-6.3,1.4-9.4,2.9l0,0   c-5.5,0.9-12.1-0.7-17.1,0.8c0.4,0.5,0.9,1,1.3,1.5l0,0c0.5,0.8,1,1.6,1.4,2.4c-0.1,0.2,0,0.3,0.2,0.4c0.2,0.5,0.4,1,0.6,1.5l0-0.1   c0,1,0,2.1,0.8,2.9c0,0,0,0,0,0c0.2,0.7,0.5,1.5,0.7,2.2l0,0c0.2,0.7,0.5,1.5,0.7,2.2l0-0.1c0.3,1,0.5,2,0.8,3.1   c-0.1,0.2-0.1,0.3,0.1,0.5C499.5,498.7,499.4,500,500.1,501.3z M482.9,583.8c-19.9,0.4-41.7-0.1-62.2,0.9c1.5,1.3,2.2,1.5,3.9,1.3   c25.4-1.1,51.5,1.2,76.2-2.9c1.9-16.7,0.8-94.2-11.1-102.8c-4.5,0.8-9.7-1-13.4,1.2l0.1-0.1c-1.1,0.3-2-1.3-3.4-0.4   c14.8,11.1,8.2,78.6,9.1,98.3c-0.9,1-0.9,2,0,3c0,0.2,0,0.4,0.1,0.6C482.1,583.6,482.4,583.8,482.9,583.8z M410.8,590.2   c2.4-3.6,5.5-4.2,9.6-4.5c-2.3-2.1-4.6-0.9-6.8-1.2c-1.4,2.9-4.3,4.7-4.8,7.8C409.9,591.8,410.6,591.2,410.8,590.2z M508.1,552.8   c-1.6-2.2-0.8-5.1-1-7.8c-1.4-0.1-2.7-0.3-4.1,0.3c0,3,0.2,5.9,1.1,8.8c3.6-0.4,7.6,0.8,10.6-0.6c1-2.7-3-5.4-4.1-7.9   c-0.5-0.8-1.3-1-2.3-0.2C507.9,547.8,508.2,550.3,508.1,552.8z M563.7,589.5c0.1-0.8,0.2-1.7,0.4-3.2c1.9,4.2-0.6,6.7,0.7,10.5   c2.9-0.4,6.7,1.3,8.4-1.8c-1.6-3-1.7-6.5-4.1-9.2c-48.6,1.1-98,0.2-146.4,2.3c-0.4,3.2-0.2,6.5-0.1,9.9   c46.9-1.2,94.6,0.5,141.1-2.1C563.7,594.1,563.7,591.8,563.7,589.5z M502.7,585.2c21.2-0.7,42.8,0.2,63.7-1.3   c-3.5-3-9.4-0.3-13.8-1c-15.1,0.1-30.2,0.2-45.3,0.4C505.6,583.5,502.9,582.5,502.7,585.2z M410.9,598.3c3.8-0.3,7.2,0.2,10.8-0.4   c-0.5-3.5-0.6-6.3-0.3-9.9c-2.3-0.2-4.4-0.1-6.7,0c-1.3,1.6-2.6,3.1-3.8,4.6C410.9,594.5,410.9,596.1,410.9,598.3z" />
	<path fill="#020202" d="M407.2,317.1c0,0.3,0,0.5,0.1,0.8c-0.6,0.3-1.3,0.6-2,0.9c0.1,0.4,0.2,0.7,0.3,1.2   c-5.2,2.9-7.2,9.6-11.3,13.7c-0.2-0.1-0.4-0.1-0.6-0.1c1-5.4,5.2-9.8,8.6-14.1c-1.2-1.6-0.2-4.2-2.8-5.1c-1.3,0.2-2.5,0.5-3.8,0.7   c-3.6,3.7,0,8.1-4,10.5c-0.8,0-1.7,0-2.7,0c0,1.1,0,2,0,2.8c-4,1.8-7-1.3-10.6,0.8c-0.5-0.2-1.3,0.1-1.2-1c1.1-0.2,2.2-0.4,3.3-0.7   c-0.7-2.5-0.7-2.5-2.5-2.4c-0.2,0.5-0.4,1-0.6,1.7c-1.5-1.1-2.6-2.2-4.5-2.2c-0.2,0.9-0.3,1.7-0.4,2.4c-1.7-0.3-1-1.8-1.8-2.6   c-0.6,0-1.3,0-1.7,0c-0.7,0.6,0.4,1.7-0.8,1.9c-0.4-0.2-0.8-0.5-1.2-0.7c-0.1-0.7-0.2-1.3-0.3-2c-0.9,0-1.6,0-2.2,0   c-0.2,0.7-0.4,1.3-0.8,2.4c-0.7-1.3-1.1-2.2-1.5-3c-6.7-2.5-13.4-4.6-19.8-7.4c-0.6,0.9-0.9,1.3-1.6,2c-0.3-0.7-0.6-1.1-1-2.1   c0,1.7,0,2.9,0,4c0.9,0.1,1.7,0.2,2.5,0.3c0.2-0.9,0.4-1.7,0.5-2.5c0.4-0.1,0.8-0.2,1.1-0.2c-0.1,1-0.7,1.9-0.1,2.8   c0.6-0.4,1.2-0.8,1.9-1.3c0.3,0.8,0.6,1.5,0.9,2.1c0.8-0.3,1.4-0.5,2.1-0.7c0.4,0.5,0.8,0.9,1.1,1.4c-2.8,2.2-7.1,0-10.3-0.7   c-0.9,1.4-1.7,2.6-2.4,3.6c0.1,1.2,0.2,2.1,0.4,3c-10.1,8.8-10.5,25.6-7.9,38.1c-0.9,0.8-0.8,2-0.8,3.1c-0.2-0.1-0.4-0.2-0.5-0.3   l0,0.1c-0.1-1.2-0.2-2.4-0.3-3.6c0.3-0.5,0.2-1.3-0.5-1.4c-0.2-1.3-0.4-2.6-0.6-3.8c0.1-0.2,0.1-0.3,0-0.5   c0.5-6.2-0.9-12.8,0.7-18.7l0,0c0.5-1.2,1.1-2.4,1.6-3.5l0,0.1c0.2-0.3,0.3-0.6,0.5-0.9c0.2-0.1,0.2-0.2,0.2-0.4   c1.4-2.1,2.4-4.2,2.1-6.8l0,0.1c0.1-1.3,2.9-3.3,0.8-3.9l0,0c-0.3-0.5-0.6-0.9-0.8-1.4l0,0c-0.3-0.5-0.5-1-0.8-1.5l0,0   c-0.2-0.5-0.4-1-0.7-1.6l0,0.1c-0.2-0.5-0.5-1-0.7-1.5l0,0c-0.3-0.5-0.6-0.9-0.9-1.4l0,0c-0.2-0.5-0.4-1-0.6-1.6l0,0.1   c-0.3-1-0.6-1.9-0.8-2.9l0,0c0-1.5,0-3-0.8-4.3l0,0c0-1.6,0.2-3.1-0.7-4.6c0.1-0.2,0.1-0.3-0.1-0.5c-0.2-1.2-0.4-2.4-0.7-3.7l0,0   c-0.2-1.5-0.5-2.9-0.7-4.4l0,0c-0.2-2.7-0.5-5.5-0.7-8.2c0.1-0.1,0.1-0.3,0-0.4c0.4-1.4-0.9-2.4-1.4-3.6l0,0.1   c0.3-0.7,0.5-1.5,0.8-2.2l0,0.1c0.2,0,0.4-0.1,0.5-0.2c0.3,0,0.5,0,0.8,0c3.5,13.7,3.9,28.6,10.4,41.5c1-1.2,1.8-2.1,2.8-3.4   c0.3-5-1.8-11.9,2.2-16c-0.2-6.7-1.7-12.9-1.8-19.5c-0.8,0.1-1.5,0.2-2.7,0.3c7.7-9,0.2-26.8-2.6-37.2c-5.2,11.1-5.6,23.1-7.7,34.3   c-0.2,0-0.4,0-0.7,0c0-0.7,0-1.5,0-2.2l0,0c1.7-1.5,0.3-4.5,0.7-6.6c1.4-3,0.4-6.6,0.7-10c0.2-0.2,0.3-0.4,0.1-0.6   c0.7-0.9,0.7-2,0.6-3c0.2-0.1,0.2-0.3,0.1-0.5c0.2-0.8,0.4-1.6,0.6-2.4c0.2-0.1,0.2-0.3,0.1-0.4c0.2-0.6,0.4-1.2,0.6-1.7   c0.1-0.1,0.2-0.2,0.1-0.4c0.2-0.8,0.5-1.6,0.7-2.5l0,0c0.3-0.7,0.6-1.4,0.9-2.1l0,0.1c0.6-0.4,0.7-1,0.6-1.6   c0.2-0.1,0.2-0.3,0.1-0.5c2.6-2.8,0.9-7.2,1.2-10.9c-0.4-4.5,0.8-8.8,0.8-13.2c0.2-0.1,0.2-0.3,0.1-0.4c0.2-0.1,0.4-0.2,0.6-0.3   c0,0.6,0,1.3,0.7,1.5c-2.5,11.7,0.4,23,4.4,34c3.3,15.8,4.3,33.2,2.8,49.1c-0.5-0.2-0.9-0.3-1.4-0.5c-0.1,2.3-0.5,4.5,0.1,6.8   c11.6,2.4,22.6,8.8,34.5,8.2c-0.3-1.6-0.6-3.1-0.9-4.6c0.2-0.2,0.5-0.5,0.7-0.7c0.7,1.8,1.5,3.7,2.3,5.7c4.8,0.3,9.8,0.6,14.7,0.8   c2.2-17.7,6.1-35,8.4-52.7c0.5-0.5,1-1,1.5-1.5c0.2,1,0.4,1.9,0.6,2.9l0-0.1c-0.2,2.2-0.4,4.4-0.7,6.6c-0.2,0.2-0.2,0.3,0,0.5   c-0.3,1.7-0.5,3.5-0.8,5.2c0,0,0-0.1,0-0.1c-0.5,2.7-0.9,5.3-1.4,8l0,0c-0.3,1.2-0.5,2.4-0.8,3.6l0-0.1c-0.9,1.1-0.7,2.4-0.7,3.7   c-0.2,0.1-0.2,0.3-0.1,0.4c-0.2,1-0.4,2.1-0.7,3.1l0,0c-0.8,1.1-0.8,2.4-0.8,3.6l0,0c-0.9,1.3-0.8,2.9-0.8,4.3l0-0.1   c-0.8,1.1-0.6,2.3-0.5,4c1.2-1.1,2.1-1.2,3.6-1.6c0.2,0.1,0.4,0.1,0.6-0.1c1,0,1.9,0,2.9,0c0.1,0.2,0.2,0.2,0.4,0.1   c0.3,0.3,0.6,0.5,0.9,0.8l-0.1-0.1c0.3,0.7,0.6,1.4,0.9,2.1l0,0c0.1,0.5,0.2,1,0.4,1.5C405.2,317.2,406.2,317.2,407.2,317.1z    M382.6,324.6c-1.5,1.8-1.5,1.4,0,3.2C382.6,326.5,382.6,325.9,382.6,324.6z M384.2,326.8c0.2,0,0.5,0,0.7,0.1c0-0.5-0.1-1-0.1-1.4   c-0.1,0-0.3,0-0.4,0C384.3,325.9,384.3,326.4,384.2,326.8z" />
	<path fill="#030302" d="M454.1,478.6c-0.5,0.5-1,1-1.5,1.5c-3.5,0.4-5.8-2.9-9.3-3c-1.7,1.3-1.6,3.4-2.2,5.1   c-1.6,1,0.2,3.7-2.1,4.3c-0.1-3.7-0.4-7.4,1.6-11.1c-7.3-5.5-20.1-8.3-22.5-18c-2-16.5,4.1-11.6,16.6-12.3c1-1.4,0.8-2.9,0.7-4.2   c-0.4-3.6,2.9-13.4,6.4-6.7c2.8-13.2,2.3-29.1,4.6-43.2c-2.5-14.5-2.8-18.6,3.9-32.4c-0.7-0.6-1.2,0.5-1.8,0.3   c-1.5-1.1-2.9,1.2-4.5-0.1c1.2-0.6,2.3-1.5,3.5-1.6c4.9-0.2,6.3-5.3,10.4-7c0.3,0.3,0.6,0.6,1,0.9c-11.2,11.3-12.7,26-10.3,40.8   c-1,13.9-3.2,27.8-3.5,41.7c1,0,1.7,0,2.7,0c-0.1-1.5-1.3-3.3,0.3-4.1c1.1,1.1,1.1,2.7,1.8,4.2c2,0,3.9,0,6,0c1.9-3.3,5.6-6,5.2-10   c1.4-1.1,0.2-2.8,0.8-4.3c0.2,0,0.4,0,0.6,0l0,0c0,1.9,0.3,3.9,0,5.7c1.2,0,2.4-0.2,3.5,0.3l-0.1-0.1c0.3,0.7,0.6,1.4,0.9,2.1l0,0   c-0.1,0.3,0,0.5,0.2,0.6c0,0.5,0,0.9,0,1.4c-0.3,0.3-0.6,0.6-0.9,0.8c-1.7-0.4-1.2-2.2-1.7-3.8c-7.2,7.8-14.8,21.6-24.7,7.4   c-2.6,4.7-0.6,9.7-2.9,14.4c-0.2,2.9-3.2,5.4-1.6,8.3c9.1,2.5,18.5,2.6,27.2-0.3c14,4.3,26.1,3.2,39.9-2.3c0,0-0.1-0.1-0.1-0.1   c0.9,1.8,2.7,1.5,4.3,2.2l0,0c0.5,0.2,1,0.4,1.5,0.6c0.1,0.2,0.3,0.3,0.5,0.2c0.5,0.2,1.1,0.5,1.6,0.7c0,0,0,0,0,0   c0.5,0.2,1,0.5,1.5,0.7l0,0c0.5,0.3,1,0.5,1.4,0.8l0,0c0,0.2,0,0.4,0.2,0.5c-0.2,0.3-0.5,0.6-0.7,0.8c-10.4-6.2-20.5-0.2-31.5,0   c-7.9,2.7-16.7-5-24-0.1c-2.5,0-4.9,0-7.9,0c0.9,0.6,1.3,0.9,1.9,1.3c-5.4-0.8-11.1-1.7-16.3-3.5c-0.5-1.4-1-2.8-1.5-4.3   c1.2-2.1,0.7-4.5,1.5-7.1c-5,0.4-9.7-0.7-14.2,0.3c0.2,0.1,0.4,0.2,0.5,0.3c0,0,0,0,0,0c0,0.3,0,0.5-0.1,0.8c0,0,0,0,0,0   c-0.9,0.4-0.8,0.9-0.1,1.5c0.3,3.5-0.3,7.2,1.3,11.1C431.4,467.6,442.8,474.4,454.1,478.6z M443.6,436.1c4.7,3,6.4,2.8,9-0.5   C449.8,435.8,447,435.9,443.6,436.1z" />
	<path fill="#040303" d="M400.8,268.9c-0.5,0.5-1,1-1.5,1.5c0.1-0.9,0.2-1.8,0.3-2.7c-8.2-2-15.7-5.8-22.8-10.2   c-2.2,3.1-3.6,6.1-6.5,8.5c-0.2,0-0.4,0.1-0.6,0.1c-0.3-0.3-0.6-0.6-1-1c1.1-2.7,5.2-5.9,4.6-8.5c-5.6,2.4-11.9,3.3-17.6,4.8   c-0.7-0.2-1.4-0.4-2-0.6c0.5-0.5,0.9-0.9,1.4-1.4c2.5-0.1,5.1,0.3,7.4-1.2l0,0c3.5-1.4,7.5-1.7,10.6-4c-3.1-2.7-6-5.2-7.8-8.6   c-1.9-0.3-3.6-0.7-5-2c2.9-1.2,5.2-0.4,7.4,1.9c7,7.5,15.3,13.3,24.8,17.4c12.3,2.9,26.2,4.5,38.5,3.8c0.2,0.5,0.5,1,0.7,1.6   c-0.1,0.4-0.1,0.8-0.2,1.2l0.1,0c-2.8,0.7-5.7,0-8.5,0l0,0c-1.9-1-3.9-0.8-5.9-0.7l-0.2-0.1l-0.2,0.1c-2.8-0.8-5.6-1.1-8.2,0.7l0,0   c-1.7-0.3-3.4-0.5-5-0.8l0,0C402.8,268.2,401.8,267.6,400.8,268.9z" />
	<path fill="#070606" d="M472.8,326.6c1.5-1.1-1.7-1.3-2-2.4c0.9,0.1,1.8,0.2,2.7,0.3l-0.1,0c0.3,0.2,0.5,0.5,0.8,0.7l0,0   c0.8,0.5,1.5,1,2.3,1.4l0,0c0.5,0.3,1,0.5,1.4,0.8l0,0c0.8,0.6,1.6,1.4,2.1,2.3l0-0.1c0.5,0.7,1,1.4,1.6,2.1l0,0   c0.2,0.5,0.4,1,0.7,1.5l0-0.1c0,0.9,0.1,1.9,0.1,2.8c-0.1,0.1-0.2,0.3-0.1,0.4c-0.4,0.4-0.4,0.8,0,1.2c-0.2,0.2-0.1,0.4,0.1,0.5   c0,4.8,0,9.6,0,14.4c-0.2,0.1-0.2,0.3-0.1,0.4c-0.2,0.8-0.4,1.6-0.6,2.4c-0.1,0.1-0.2,0.2-0.1,0.4c-0.2,0.6-0.4,1.2-0.6,1.8   c0,0,0,0,0,0c-1.2,1.8-0.7,3.8-0.8,5.8l0,0c-0.2,1.2-0.5,2.4-0.7,3.6l0,0c-0.8,0.9-0.7,1.9-0.7,3c-0.1,0.1-0.1,0.2-0.1,0.4   c-0.2,0.8-0.5,1.7-0.7,2.5c0,0,0,0,0,0c-0.2,0.7-0.5,1.5-0.7,2.2c0,0,0,0,0,0c-0.3,0.7-0.5,1.4-0.8,2.2l0,0c-0.5,1.2-1,2.4-1.4,3.7   c0,0,0,0,0,0c-0.5,1.7-1.1,3.3-1.6,5c0,0,0-0.1,0-0.1c-0.2,0.5-0.4,1.1-0.6,1.6c-0.2,0.1-0.2,0.2-0.1,0.4c-0.2,0.6-0.4,1.2-0.6,1.7   c-0.2,0.1-0.2,0.2-0.1,0.4c-0.4,1.3-0.9,2.6-1.5,3.9l0,0c-0.5,1.2-1,2.4-1.4,3.7l0,0c-0.3,0.7-0.6,1.4-0.8,2.1l0-0.1   c-0.2,0.5-0.4,1-0.6,1.6l0,0c-0.5,1.2-1,2.4-1.5,3.6l0-0.1c-0.8,0.6-0.7,1.4-0.7,2.2l0,0c-0.3,1-0.5,1.9-0.8,2.9c0,0,0-0.1,0-0.1   c-0.2,0.8-0.5,1.5-0.7,2.3c0,0,0,0,0,0c-0.9,2.1-0.8,4.2-0.8,6.5l0-0.1c-0.2,0.5-0.5,1-0.7,1.5c-0.2,0-0.5,0-0.7,0l0,0   c-0.2-0.3-0.5-0.5-0.7-0.8c0.9-11.6,4.1-23.4,9.7-34c6.9-11.1,4.7-24.8,9.6-36.3C479,336.8,484.3,333.1,472.8,326.6z" />
	<path fill="#080607" d="M379.9,555.7c-7.1-2.5,1.8-9.3,4.8-11.9c18.6-0.7,37.2-0.5,55.8-0.4c0,0,0,0,0,0c-1.4,1.2-2.5,0.3-4.2,1.3   c2.2,0.3,4.1,0.5,5.7-0.6c1.5,0.1,2.8,0.9,4.1,1.4c-20.5,0.6-40.9,0.7-61.4,0.9c-1.8,1.7-3.8,3.6-5.6,5.3c-0.3,1.4,0.1,2.4,0.7,3.3   C379.9,555.2,379.9,555.4,379.9,555.7z" />
	<path fill="#0D0A0A" d="M465.5,430.4c0.3-0.3,0.6-0.6,0.9-0.8c0.2,0.1,0.4,0.2,0.6,0.2l0-0.1c-0.1,0.6,0.6,0.9,0.7,1.5l0,0   c0.2,0.3,0.5,0.5,0.7,0.8l0,0c0.3,0.2,0.6,0.3,0.8,0.5c0.1,0.2,0.3,0.3,0.5,0.2c0.3,0.2,0.6,0.4,1,0.6c0.1,0.2,0.2,0.2,0.4,0.2   c0.6,0.2,1.1,0.4,1.7,0.7l0,0c1,0.4,1.9,0.9,2.9,1.5l0,0c0.5,0.3,0.9,0.5,1.4,0.8l0,0c0.7,0.5,1.5,1,2.2,1.5l0,0   c0.5,0.2,0.9,0.8,1.4,0.7c0.5,0.3,1,0.5,1.5,0.8l0,0c0.3,0.2,0.6,0.3,0.8,0.5c0.1,0.2,0.2,0.3,0.4,0.2c1.5,0.7,3.1,1.3,4.6,2   c0.1,0.2,0.3,0.3,0.5,0.2c3.8,1.2,8.2,1,11.7,2.8l0,0c0.2,0.3,0.5,0.5,0.7,0.8l0-0.1c0.2,0.6,0.5,1.1,0.7,1.7   c-0.1,0.2,0,0.3,0.2,0.4c0.2,0.3,0.3,0.6,0.5,0.9l0-0.1c0.3,0.7,0.6,1.4,0.8,2.2l0-0.1c0,0.9,0.1,1.9,0.1,2.8   c-0.2,0.2-0.5,0.5-0.7,0.7c-0.3,0-0.5,0-0.8,0l0.1,0.1c-0.9-2.7-1.8-5.2-2.8-8c-5.8-1.1-11-1.7-16.2-4.5c-0.5,1.1-0.8,1.4-2,2.4   c0.1-1.5,0.2-2.5,0.2-3.5c-0.8-0.3-1.6-0.6-2.3-0.8c-1.4,1-1.8,2.8-3.5,3.2c-1-2,1-3.4,0.9-5.2c-0.6-0.3-1.3-0.6-1.8-0.9   c-1,1.8-1.7,4.7-4.3,3.3c-0.4-2,1.8-3,1.8-4.7c-0.9,0-1.8,0-2.3,0c-1.8,1.8-2.3,4-4.5,4.5c-0.5-0.4-1-0.9-1.5-1.4   c0.1-2.6,2.4-3.5,4-5.2C466.7,432.4,466.1,431.4,465.5,430.4z" />
	<path fill="#120F0F" d="M430.3,211.3c0.2-0.1,0.2-0.2,0.1-0.4c0.2-0.6,0.5-1.2,0.7-1.8c0,0,0,0,0,0c0.7-0.6,0.8-1.4,0.7-2.2   c0.1-0.1,0.2-0.3,0.1-0.4c0.7-3.4,1.3-7.3,0-10.5l0,0.1c-0.3-0.7-0.6-1.4-0.8-2.1c0,0,0,0,0,0c-0.2-0.5-0.5-1-0.7-1.5c0,0,0,0,0,0   c-0.3-0.5-0.5-1-0.8-1.4l0,0c-0.9-1.9-0.4-4.7,0.7-6.5c1.3,1.5,0,3.2,0.4,4.8c3.4,4.8,3.6,11.1,4,16.5c-3.8,9.8-7.9,19.1-15.9,26.2   c-0.2-0.3-0.5-0.5-0.7-0.8c0.1-0.2,0.1-0.4,0.1-0.6l0,0c0.5-0.7,1-1.4,1.6-2.1c0,0,0,0.1,0,0.1c0.2-0.3,0.4-0.6,0.7-0.8   c0,0,0,0,0,0c0.6-0.7,1.1-1.4,1.6-2.1l0,0c0.2-0.3,0.4-0.6,0.7-0.8l0,0c0.8-0.9,1.5-1.9,2.3-2.9l0,0c0.2-0.3,0.4-0.6,0.7-0.8l0,0   c0.6-0.7,1-1.4,1.4-2.2c0,0,0,0,0,0c0.2-0.5,0.5-1,0.7-1.5c0,0,0,0,0,0c0.6-1.2,1.1-2.4,1.6-3.5l0,0.1c0.2-0.5,0.4-1,0.7-1.5l0,0   C429.9,212.3,430.1,211.8,430.3,211.3z" />
	<path fill="#0D0D0C" d="M446.1,220c-0.1,0.1-0.1,0.2,0,0.4c-0.9,1.4-0.7,3.1-0.7,4.6l0,0c-0.2,1.5-0.5,2.9-0.7,4.4l0,0   c-0.2,1.2-0.5,2.4-0.7,3.6l0,0c-0.2,1-0.5,1.9-0.7,2.9c0,0,0,0,0,0c-0.3,1-0.6,1.9-0.8,2.9l0-0.1c-0.6,0.8-1.7,1.3-1.3,2.4   c0.1,0.2,0.1,0.4-0.2,0.6c-0.9-0.8-1.2-1.8-1.4-2.9l0,0c1.1-0.4,0.7-1.4,0.7-2.2l0,0c2.7-10.4,4.1-22.3,7.3-33.1   c1.4,1.5,0.5,3.9,0.6,5.7c0,0,0,0,0,0c-0.2,1.2-0.4,2.4-0.7,3.7c-0.2,0.2-0.2,0.3-0.1,0.5c-0.2,1-0.4,2-0.6,3.1   c-0.2,0.1-0.2,0.3-0.1,0.5C446.6,217.9,446.4,218.9,446.1,220z" />
	<path fill="#0E0B0B" d="M388.5,220c0.8-0.3,0.7-1,0.8-1.5c0.2,0.1,0.4,0.3,0.6,0.4c-0.1,0.5,0.6,0.8,0.7,1.3l0,0   c0.3,0.3,0.5,0.5,0.8,0.8l0,0c0.3,0.2,0.5,0.5,0.8,0.7l0,0c0.3,0.2,0.5,0.4,0.8,0.6c0.1,0.2,0.2,0.3,0.5,0.2   c1.3,0.7,2.6,1.4,3.8,2.1l0,0c0.3,0.2,0.5,0.4,0.8,0.5c0.1,0.2,0.2,0.3,0.5,0.2c0.8,0.5,1.5,1,2.3,1.5l0,0c0.3,0.2,0.6,0.4,0.9,0.6   l0,0c0.9,0.8,1.9,1.5,2.8,2.3l0,0c0.3,0.2,0.5,0.5,0.8,0.7l0,0c0.3,0.2,0.5,0.5,0.8,0.7l0,0c0.2,0.2,0.5,0.5,0.7,0.7l0,0   c0.2,0.3,0.5,0.5,0.7,0.8l0,0c0.2,0.3,0.5,0.5,0.7,0.8l0,0c0.2,0.3,0.5,0.5,0.7,0.8l0,0c0.2,0.3,0.5,0.6,0.7,0.8l-0.1-0.1   c0.3,0.5,0.6,0.9,0.9,1.4l0,0c0.2,0.5,0.5,1,0.7,1.5l0,0c0.2,0.5,0.5,1,0.7,1.5l0,0c0.6,1.5,0.6,1.5,1.7,0.7c1,0.5,0.5,1.3,0.6,2   c-0.7,0.3-1.4,0.6-2.1,0.9C406.9,232,395.5,228.4,388.5,220z" />
	<path fill="#1F1918" d="M402.8,166.2c-0.1,0.2,0,0.3,0.2,0.4c0,0.5,0,1,0,1.4c-0.3,0.2-0.5,0.4-0.8,0.7l0,0c-2.5-0.4-1,3.5-1.5,5.1   l0,0c-1.4,0.7-1.7,2.1-1.6,3.5l0.1-0.1c-1.6,0-1.5,2.3-2.7,3.1c-1-2,0.7-3.2,1.5-5.1c-1.2-0.4-2.9,0.5-2.8-1.2   c1.3-0.9,2.7-1,4.3-1.6c-0.2-1.2-0.3-2.3-0.5-3.4c-0.7-0.1-1.3-0.2-1.9-0.3c0-0.5,0-1,0-1.4c1.4-0.1,2.8-0.1,4.5-0.2   c-1.6-3.4-3.1-6.7-4.5-9.7c0.2-1,0.3-1.8,0.4-2.6c-3.3-0.8-5.2,1.4-8.2,1.6c2.2-2.5,2.2-2.5,6.5-4.1c0.9,0.2,1.8,0.4,2.8,0.6   c0.3,0.3,0.6,0.6,0.9,1c-0.1,0.9-0.1,1.8-0.2,2.6c0,0,0,0,0,0c-0.7,0.5-0.7,1,0,1.6l0,0c1.1,1.9,2,3.8,2.9,5.8l0,0   C402.4,164.6,402.6,165.4,402.8,166.2z" />
	<path fill="#191515" d="M381.3,556.4c-0.4-0.1-0.9-0.1-1.3-0.2c-0.1-0.4-0.1-0.8-0.1-1.3c24.7-0.2,48.8,0.8,73.7,0.8   C429.6,557.7,404.8,554.7,381.3,556.4z" />
	<path fill="#29211F" d="M452.6,181.3c-0.1,0.2-0.1,0.4,0.1,0.5c-0.8,4-0.2,8.4-1.4,12.3c-0.1-4.1-0.1-8.1-0.2-11.9   c-1.2-1.6-2.4-2.4-4.1-1.9c-1.5-1.8-3.1-2.2-5.3-1.8c-1.1-0.4-0.9-2.3-2.5-2.1c-1.1,1.3,0.6,2.1,0.4,3.6c-2.1-0.8-3.4,1.5-5.6,1.1   c-0.2-2.2,1.9-2.2,2.9-3.3c-0.3-0.9-0.7-1.9-1.1-3c-0.4,0-0.8,0-1.1,0c-0.9,0.6-2,0.8-3,0.7c0.3-1.7,2.4-2.2,3.7-2.8   c0.2,0.1,0.4,0,0.6-0.1c0.2,0.1,0.5,0.1,0.7,0c0.1,0.2,0.3,0.2,0.5,0.2c0.8,1.6,2.1,2.1,3.8,2.2l0,0c0.2,0.3,0.5,0.5,0.7,0.8l0,0   c0.3,2,3,1.1,4.4,1.4l0,0c0.9,0.7,1.6,1.7,2.9,1.5l0,0c1,0.4,1.9,0.9,2.8,1.6l-0.1-0.1C452,180.3,452.3,180.8,452.6,181.3z" />
	<path fill="#0D0E10" d="M440.5,543.4c-4.9,0-9.8,0-14.7-0.1c4.3-0.2,8.5-0.6,12.9-0.6c1.1-12.4,1.2-24.4,1.1-37.1   c0-0.9-0.4-1.9,0.6-2.6C440.7,516.5,440.4,530,440.5,543.4z" />
	<path fill="#1D1E20" d="M440.3,503.1c-2.4,9.2,1.1,20.9-1.3,30.2c-0.6-15.7,1.3-31.6-0.1-46.8c2.3-0.7,0.5-3.3,2.1-4.3   C440.5,489.1,440.1,496.1,440.3,503.1z" />
	<path fill="#2C2423" d="M396.5,180.3c0.3-0.3,0.5-0.7,0.8-1c0.2,0.2,0.3,0.3,0.5,0.4c-0.2,0.2-0.1,0.4,0.1,0.5   c0,1.4-0.1,2.8-0.1,4.3l0-0.1c-0.8,1.1-1.8,2.1-2.9,2.9l0,0c-0.6,0.2-1.1,0.5-1.7,0.7l-0.2-0.1c0,0-0.2,0.1-0.2,0.1   c-0.5,0-0.9,0-1.4-0.1c0,0,0,0,0,0c-1.3-1-2.8-0.7-4.3-0.8l0,0c-1.5-1.2-3.4-0.1-4.9-1.3c4.3-2.9,10.5,2.6,14.3-2.3   C396.5,182.4,396.5,181.4,396.5,180.3z" />
	<path fill="#2D2827" d="M431.7,175.3c0.3,0,0.6,0,0.9,0.1c-0.3,2.2-0.6,4.3-0.8,6.5c-0.8,0.8-1.5,1.6-1.4,2.8   c-0.9,0.8-0.8,1.9-0.8,3.1c-0.2-0.1-0.4-0.2-0.6-0.2l0,0.1c0-1.7,0-3.3,0-5c0,0,0,0,0,0c1.8-2,2-4.6,2.3-7.2c0,0,0,0.1,0,0.1   C431.3,175.4,431.6,175.4,431.7,175.3z" />
	<path fill="#262121" d="M448.4,205.7c-0.3-0.8,0.3-1.8-0.8-2.3c0-0.3-0.1-0.5-0.1-0.8c1.2-2.7,2.4-5.3,3.6-8c1,1.5,0.7,2.9-0.1,4.3   l0,0c-0.2,0.5-0.4,1-0.7,1.5c0,0,0,0,0,0c-0.6,1.5-1.8,2.7-1.4,4.4c-0.2,0.1-0.2,0.3-0.1,0.5C448.8,205.4,448.6,205.6,448.4,205.7z   " />
	<path fill="#1C1B1A" d="M451.8,196.2c-1-1.3-0.5-2.4,0.1-3.7c0.3-2.6-0.6-5.5,0.7-7.8c0.2,1.3,0.5,2.6,0.7,3.9   c-0.1,0.2-0.1,0.3,0,0.4c0,1.7,0,3.4,0,5l0,0C453,194.9,452.7,195.7,451.8,196.2z" />
	<path fill="#403D3C" d="M399.5,153.9c-1.9-2.5-2-6.1-3.7-8.9c0.4-0.5,0.9-0.9,1.3-1.4c-0.1,0.9,0,1.7,0.7,2.2c0,0,0,0,0,0   c0.2,0.6,0.5,1.1,0.7,1.7c-0.1,0.2,0,0.3,0.2,0.5c0.2,0.5,0.4,1.1,0.6,1.6c-0.1,0.2,0,0.4,0.2,0.6c0.2,0.5,0.4,1.1,0.6,1.6   c-0.1,0.2-0.1,0.4,0.1,0.5c0,0.5,0,1-0.1,1.4l0,0C399.9,153.8,399.7,153.8,399.5,153.9z" />
	<path fill="#574E4B" d="M413.7,241.5c-0.1-0.7,0.4-1.6-0.6-2c0-0.2,0-0.5,0-0.7l0,0c1-1.1,1.7-2.2,2.2-3.6l0,0   c0.3-0.5,0.5-1,0.8-1.4l0,0c0.5-0.7,1-1.5,1.5-2.2c0,0,0,0,0,0c0.2,0,0.4-0.1,0.6-0.1c0.2,0.3,0.5,0.5,0.7,0.8   C416.5,235,415.2,238.6,413.7,241.5z" />
	<path fill="#B7BDD5" d="M331.5,232.2c-0.7,4.6,1.4,10.4-0.6,14.4c0-4.8,0-9.6,0-14.4C331.1,232.2,331.3,232.2,331.5,232.2z" />
	<path fill="#030302" d="M439,488c1.1,4.2,1.1,10.2,0,14.4C438.6,497.6,438.7,492.8,439,488z" />
	<path fill="#402B27" d="M511.8,460.6c0.2-0.3,0.5-0.6,0.7-0.8c0.2,0,0.5-0.1,0.7-0.1c0.1,0.2,0.2,0.3,0.5,0.2   c0.3,0.2,0.7,0.3,1,0.5c0.1,0.2,0.3,0.3,0.5,0.2c0.6,0.2,1.1,0.4,1.7,0.5c0.2,0.2,0.3,0.2,0.6,0.2c0.1,0.2,0.1,0.4,0.2,0.7   c-0.7,0.2-1.7-0.4-2.2,0.6C514.1,462,512.6,461.8,511.8,460.6z" />
	<path fill="#242120" d="M324.5,273.5c0.2-0.1,0.4-0.2,0.5-0.4c-0.4,2.1,1,5.1-0.7,6.6c0-1.9,0-3.8,0-5.8   C324.6,273.9,324.6,273.7,324.5,273.5z" />
	<path fill="#242120" d="M325.1,272.5c0-1.9,0-3.8,0-5.8c0.2-0.2,0.2-0.3,0.1-0.5c0.2-0.1,0.3-0.3,0.5-0.4   C325.5,268.1,326.5,270.7,325.1,272.5z" />
	<path fill="#B7BDD5" d="M331.7,228.7c-0.6-1.4,0-2.9-0.1-4.3c0.2,0,0.4-0.1,0.6-0.1C332.3,225.8,332.5,227.3,331.7,228.7z" />
	<path fill="#433C39" d="M462,419.5c0.2,0,0.5,0,0.7,0c0.1,1.1,0.2,2.3-0.1,3.4c-0.2,0.1-0.4,0.2-0.5,0.3   C462.1,422,462,420.7,462,419.5z" />
	<path fill="#242120" d="M323.8,280c0.2-0.1,0.4-0.2,0.6-0.3c0,0.7,0,1.5,0,2.2c0,0,0,0,0,0c-0.3,0-0.5,0-0.8,0c0-0.5,0-0.9,0-1.4   C323.8,280.4,323.9,280.2,323.8,280z" />
	<path fill="#4B65C5" d="M327.8,364.7c-0.1,0.1-0.4,0-0.5,0c0.1-0.5,0.1-0.9,0.2-1.4C328.1,363.7,328.1,364.2,327.8,364.7z" />
	<path fill="#E4E4EB" d="M466.9,429.7c-0.2,0-0.4-0.1-0.6-0.2c0-0.5,0-0.9,0-1.4c0.2,0,0.5,0,0.7,0C467,428.7,467,429.2,466.9,429.7   z" />
	<path fill="#E4E4EB" d="M467.2,430.3c0.2,0,0.4,0,0.6,0c0,0.3-0.1,0.6-0.1,0.8C467.5,430.9,467.3,430.6,467.2,430.3z" />
	<path fill="#FBDFD3" d="M475.8,325.9c0,0.2,0,0.3-0.1,0.5c-0.2-0.2-0.5-0.3-0.7-0.5C475.3,325.9,475.6,325.9,475.8,325.9z" />
	<path fill="#FBDFD3" d="M475,325.8c-0.3-0.2-0.6-0.4-0.9-0.6C474.4,325.5,474.7,325.6,475,325.8z" />
	<path fill="#FBDFD3" d="M474.2,325.3c-0.3-0.2-0.5-0.5-0.8-0.7C473.9,324.5,474.2,324.8,474.2,325.3z" />
	<path fill="#FBDFD3" d="M451.3,194c-0.2,0.2-0.2,0.4-0.1,0.6c-1.2,2.7-2.4,5.3-3.6,8c-0.7-0.2-0.6-1.5-1.6-1.2   c-1.8,5.4-3.9,10.7-3.4,16.4l0,0c-0.5,0.5-1,0.9-1.6,1.5c0.4,2,1.7,3.8,1.5,5.7c-0.3-0.1-0.7-0.2-1.2-0.4c-0.3,0.9-0.7,1.8-1.1,2.7   c0.6,0.2,1,0.3,1.4,0.4c0.5,2.9-0.5,6-1.3,8.8l0,0c-0.7,0.6-0.8,1.4-0.7,2.2l0,0c-2.3,8.3-5.7,16.2-7.9,24.5   c-2.6-1.4-5.8,0-8.2-1.1c0.3-0.5,0.5-1,0.8-1.7c-2.1-1.7-5.2-0.4-6.8,0.5c-8-1.2-16.8,0.5-23.3-4.8c2.9-0.8,4.4-3.9,7.8-3.1   c0-0.5,0-0.8,0.1-1.2c-5.4-3.4-13.1-1.8-18.6-5.9c-1-0.5-2-1-3.1-0.6c-3.2,0.5-5.6-2.9-7.7-5c4.1-1.8,9.7-0.9,12.2-5.1   c-5-6.9-15.5-0.4-22.1-2.8c-2.2-0.7-4.4,0.6-6.6,0c-2.7-0.9-4.1,2.1-3.7,4.4c1.5,1.5,2.8,2.9,4.1,4.3c-2.5,3.5-0.2,6.4-0.3,10.1   c0.6-0.2,1-0.5,1.4-0.9c2.2,2.1,4,5.2,5.1,8.1l0,0c-4,2.1-9.1,1.6-13.1-0.1c-0.1-1.1,1.4-1.9,0.3-2.9c-0.3,0.2-0.7,0.4-1.1,0.6   c-2.8-5.5-4-12.2-6.7-18.1c-4.6-15.9,9.5-40.5,28-35c8.8,2,14.6,9.5,18.5,17.2c5.7,8.2,17.6,10.6,21.3,20.2c0.8,1.9,3,3,4.6,4.3   c9.7-14,21.9-29.7,23-47.2c-5.2-7.2-6.9-13.3-4.9-21.9c0.8-0.1,1.5-0.2,2.2-0.7c0.4,0,0.7,0,1.1,0c0.4,1,0.7,2,1.1,3   c-1,1.1-3.1,1.1-2.9,3.3c2.2,0.4,3.5-1.9,5.6-1.1c0.2-1.5-1.6-2.3-0.4-3.6c1.6-0.2,1.4,1.8,2.5,2.1c2.2-0.3,3.9,0,5.3,1.8   c1.7-0.5,2.9,0.3,4.1,1.9C451.2,185.9,451.2,190,451.3,194z M374.1,212.8c-3-3.1-8.3-5.4-12.4-7c-1.1,0.5-1.8,0.9-1.3,1.7   C365.3,208.9,369.5,211.9,374.1,212.8c0.9,1.3,0.9,1.3,2.3,1.3C376.1,212.6,375.2,212.5,374.1,212.8z M423.8,246.6   c0.2-1,0.5-2.1-0.2-3.3c-1.7,3-4.6,4.7-6.9,7c0,1.2,0,2.2,0,3.4C421.3,258,427.5,251.3,423.8,246.6z M396.1,239.4   c-2.6-1.7-7-4.3-8.4-1.9C390.1,239.4,393,238.4,396.1,239.4z M353.9,207.7c-2.6,2.1-2.7,2.2-3.3,4.9   C352.3,211.1,354.5,210,353.9,207.7z M426.9,250.1c2.9-1.2,3.1-1.6,3.1-5.3C428.8,246,428.3,247.9,426.9,250.1z M433.1,234.2   c-0.3-1.8,1.3-3.5-0.3-5.4C432.5,230.8,430.6,233,433.1,234.2z M423.4,241.6c1.4-0.7,1.5-1.7,1.2-3.3   C423.4,239.3,422.8,240.1,423.4,241.6z M358.6,204.7c-1,0.8-2.1,0.9-2.2,2.3c1-0.3,2-0.6,3.1-0.9   C359.2,205.6,359,205.3,358.6,204.7z M432.4,238.6c0-1,0-1.8,0-2.8C430.7,236.8,430.7,236.8,432.4,238.6z M441.1,179.9   c0.5,1.5,1.6,1.1,2.6,0.8C443.1,179.4,442.2,179.2,441.1,179.9z M382.7,219.8c0.1,1,0.2,1.5,0.3,2.2c0.5-0.5,0.8-0.7,1.1-1   C383.7,220.7,383.4,220.4,382.7,219.8z M404.2,251.6c-0.2,0.4-0.3,0.7-0.4,1C404.9,253.2,405.3,252.2,404.2,251.6z M431.1,239.5   c0,1.3,0,1.9,0,2.6C432.1,241.5,431.9,240.9,431.1,239.5z M398,240.6c0.5,0.2,0.8,0.3,1.2,0.5C399.4,240.4,398.8,239.9,398,240.6z    M352.5,254.7c0.1,0.1,0.2,0.2,0.4,0.4c0.8-0.4,1-0.4,0.7-1.5C353.1,254,352.8,254.4,352.5,254.7z M380.3,217.3   c-0.4-0.4-0.6-1-1.1-0.5C379.5,217.3,379.6,217.8,380.3,217.3z" />
	<path fill="#B7BDD5" d="M354,260.9c0.7,0.2,1.4,0.4,2,0.6c0.2,3.6,1.2,7.1,0.8,10.8c0,1-0.1,1.9,0.9,2.4c-0.6,1.1-0.6,1.1,0.5,1.5   c-0.8,0.4-1.5,0.8-2.3,1.2c-1.9-0.9-1.9-0.9-2.9,0.7c0.7,0.4,1.6,0,2.4-0.1c1.5,13.7,3.6,27.2,3,41.1c-6.2-1.9-12.3-3.8-18.6-5.5   c-0.6-2.3-0.2-4.6-0.1-6.8c0.5,0.2,0.9,0.3,1.4,0.5c1.7-20.2,0.3-41.7-6.6-61.1c-5.1-14.3,2.8-45.2,20.2-46.7   c0.4,1.8-1.7,2.3-2.1,4.1c0.1,0.1,0.4,0.2,0.7,0.4c-0.1,0.2-0.1,0.4-0.2,0.6C331.6,215.3,326.7,255,354,260.9z" />
	<path fill="#FBDFD3" d="M395.8,145c1.1,2.6,2.2,5.2,2.8,8c-0.9-0.2-1.9-0.4-2.8-0.6c-4.3,1.6-4.3,1.6-6.5,4.1   c3-0.2,4.9-2.4,8.2-1.6c-0.1,0.8-0.3,1.6-0.4,2.6c1.4,3.1,2.9,6.3,4.5,9.7c-1.7,0.1-3.1,0.1-4.5,0.2c-0.1-0.7-0.2-1.4-0.3-2.2   c-1.7,1.3-1.7,1.9,0.3,3.6c0.6,0.1,1.1,0.2,1.9,0.3c0.2,1.1,0.3,2.3,0.5,3.4c-1.6,0.6-3.1,0.7-4.3,1.6c-0.1,1.7,1.6,0.7,2.8,1.2   c-2.3,2.9-1.5,5-1.5,8.6c-6.1,6.2-13.5-2.1-18-6.5c-0.8-2.4-0.2-5.9-2.7-7.5c-0.3,0.5-0.5,0.9-0.9,1.5c-0.6-0.7-1.2-1.3-1.7-1.9   c0-1.4,1.2-2.3,1.6-3.6c0.3-0.2,0.6-0.3,1.1-0.6c-0.8-0.8-1.6-1.7-2.2-2.4c0.2-1.9,0.3-3.4,0.4-4.9c0.3,0,0.6-0.1,0.9-0.1   c0.8,0.5,2-0.1,2.7,0.9c1.3,4.6,2.5,7.1,4.1,8c1.2-7,5.3-12.3,7.2-19.2C391.3,147.3,392.8,144.3,395.8,145z M396.2,156.6   c-2.1,0.8-3.8,0.6-5,2.6c1.8,0,2.8,0.1,4.3,0.7C396.7,158.9,397.2,157.9,396.2,156.6z" />
	<path fill="#FBDFD3" d="M378.5,197.1c-0.1,1.8-0.3,3.5-0.4,5.3c-6.3-1.7-11.9-5.2-18.3-5.7c2.2-5.7,3.4-11.4,4.2-17.2   c1.7-1.6,0.1-5.5,0.7-7.9c2,1.3,4.1,3.3,6.4,3.6c1.3,0,1.4,1.1,2.2,1.6C373.2,183.9,376.3,190.5,378.5,197.1z M365.8,185.1   c-0.5,2.3-0.8,4.6,1.2,6.9C367.3,189.3,366.3,187.2,365.8,185.1z M365.8,182.6c0.5-2,0.4-2.1-1.1-1.8   C365.1,181.4,365.4,181.9,365.8,182.6z" />
	<path fill="#EDC9B9" d="M364.7,171.6c0,1.8,0,3.5-0.1,5.3c-0.3-0.3-0.7-0.6-1-0.9c-0.7,1.5-0.1,2.5,0.4,3.6   c-0.8,5.8-1.9,11.5-4.2,17.2c1.7,0.1,2.9-0.2,4.2,0.8c-5.6-0.4-10.6,0.1-16,1.6c2.2-3.7,1.9-7.2,3.1-10.9c1.3,0,2.1-0.8,2-2.2   c2.6-1.1,1.1-4.9,3.1-6.9c0.7,0.1,1.4,0.2,2.3,0.4c0.9-0.5,1.9-1.1,3.1-1.7C361.3,175.1,362.5,173.1,364.7,171.6z" />
	<path fill="#EAC7B7" d="M378.5,197.1c-2.2-6.6-5.4-13.2-5.2-20.3l0.2-0.2c2.4,3.3,3.1,7.2,4.2,11c0.2,0.1,0.5,0.1,0.7,0.2   c1.3-4.4-5.2-11.3-2.7-14c0.7,0.7,1,1.4,1,2.4c0.2,2,2.4,3.1,3.4,4.7c0.1-0.1,0.2-0.2,0.3-0.3c-0.2-0.1-0.3-0.2-0.5-0.3   c0-0.5-0.1-0.9-0.1-1.4c2.6,2,5.1,4.6,8,6.4C380.1,183.4,380.4,192,378.5,197.1z" />
	<path fill="#E8C7B8" d="M375.7,173.8c-0.8,0.2-0.9,0.8-0.9,1.5c-0.4-0.5-0.8-0.9-1.6-1.8c0.1,1.4,0.2,2.3,0.3,3.2l-0.2,0.2   c-0.7-0.5-0.9-1.6-2.2-1.6c-2.4-0.3-4.4-2.3-6.4-3.6c0.7-1.9,2.6-3,2.3-5.2c0-0.2,0.4-0.4,0.7-0.5   C370,168.9,372.7,171.5,375.7,173.8z" />
	<path fill="#362C29" d="M375.7,173.8c-3-2.3-5.7-4.9-8-7.9c0.2-0.3,0.5-0.5,0.7-0.8c2.4,1.9,4.5,3.9,6.5,6.3c0.3-0.6,0.6-1,0.9-1.5   c2.5,1.6,1.9,5.1,2.7,7.5c-0.3,0.3-0.6,0.6-0.9,0.9C376.5,176.9,377,175,375.7,173.8z" />
	<path fill="#B9C5DB" d="M353.2,204.1c-0.3-0.2-0.6-0.3-0.7-0.4c0.4-1.8,2.5-2.3,2.1-4.1c3.2-1.1,6.5-0.5,9.7-0.5   c0.6,1.2-0.4,1.2-1,1.4C359.7,200.5,356.4,202.6,353.2,204.1z" />
	<path fill="#D4BEB3" d="M372,168c-3.4-2.1-5.3-5.4-3.6-9.3c0.3,0,0.6,0,0.9,0c-0.2,3.1-0.6,4.8,2.1,7c-0.4-1.6-0.5-2.5-0.7-3.3   c1.4-0.6,1.2,1.1,1.9,1.4c0.5,0.5,1,0.9,1.5,1.4C373.6,166.3,373,167.4,372,168z" />
	<path fill="#AE978C" d="M353.1,186.7c-0.1,1.2-0.9,1.6-2,1.6c0.4-3.2,2.5-6.8,0.9-9.8c1.6-1.9,2.4,1.5,3.2,2.4   c-0.2,0.8-0.4,1.6-0.7,2.4c-0.4,0.3-0.7,0.6-1.1,1c0.5,0.4,0.6,0.3,1.1,0.3c-0.1,1-1,1.3-1.8,1.7   C352.9,186.4,353,186.5,353.1,186.7z" />
	<path fill="#202221" d="M377.7,158.8c-0.6-1-1.9-0.4-2.7-0.9c-0.8-0.7-1.6-1.3-2.3-2.1c0.3-0.1,1-0.2,1-0.2c-0.1-1.5,2-2,1.1-3.7   c0.7-0.2,1.1-0.3,1.8-0.4c0.3,1.5,0.6,2.6,1.2,4c-0.7-0.1-1.1-0.2-1.6-0.3C375.8,156.7,378.2,157.1,377.7,158.8z" />
	<path fill="#282020" d="M354.2,203.5c3-1,5.8-3.1,9.1-2.9c0.5,0.4,0.9,0.8,1.4,1.2c-4-0.1-7.4,1.9-10.8,3.7   c-0.3-0.3-0.6-0.5-0.9-0.8c0-0.2,0.1-0.4,0.2-0.6C353.6,203.9,353.9,203.7,354.2,203.5z" />
	<path fill="#2D2E2E" d="M395.6,132.4c-1.5,4.5-5.8,7.4-10.2,8.2c-1.1-3.3,5.9-1.3,8.4-6.9C394.4,133,394.7,132.5,395.6,132.4z" />
	<path fill="#1E1F1F" d="M356.8,173.8c-2,1.6-3.6,0.9-5.2,2.7c-1.8-1.8-1.4-3.9-1-6.4c0.9,0.4,1.5,0.6,2.1,0.9   c-0.6,1.3-1.5,1.6-0.7,3.3C353.6,173.9,355.2,173.8,356.8,173.8L356.8,173.8z" />
	<path fill="#343434" d="M355.2,133.3c1.1,4.6-3.2,4-5.7,6C350.1,137.5,351.9,135.5,355.2,133.3z" />
	<path fill="#2C2C2C" d="M381,142.8c-1.2-0.2-1.7-0.3-2.3-0.4c-0.5,0.3-0.9,0.7-1.5,1.1c-0.7-0.1-1.5-0.3-2.4-0.4   c0-0.7,0.1-1.3,0.1-2.4c0.7,0.4,1.2,0.7,1.7,1c0.2-0.4,0.4-0.9,0.7-1.6C379.4,140,379.4,141,381,142.8z" />
	<path fill="#1F2020" d="M356,140.2c0.9-1.7,2.1-1.9,3.2-2.3c0.1,1.9-0.3,3.3-1.4,5.6C357.7,141.7,357.5,141,356,140.2z" />
	<path fill="#2B2C2C" d="M371.9,125.9c-0.9,0.3-1.3,0.4-1.9,0.6c-0.4,1.3-0.1,3.1-2.1,3.8c0.2-1.4-0.2-2.5-0.8-3.8   C368.7,126.3,369.9,125.2,371.9,125.9z" />
	<path fill="#333434" d="M363,147.3c0.7,0,1.4,0,2,0c1.5,1.8-0.8,2.8-1.9,4.3C361.7,150,362.5,149,363,147.3z" />
	<path fill="#4F4844" d="M372.7,155.9c0.2,0.2,0.5,0.5,0.7,0.7c0,0.2,0,0.5,0,0.7c-0.6-0.1-2.6,0-1.3,0.8c-0.1,0.3-0.1,0.5-0.2,0.8   c-0.2,0-0.3-0.1-0.5-0.1c-0.8,0.5-1.1,1.3-1.5,2.2c-0.2,0-0.4,0-0.5,0c0-0.7,0-1.5,0.1-2.2c0.5-0.5,1.2-0.7,0.5-1.4   C370.5,156.3,371.4,155.8,372.7,155.9z" />
	<path fill="#313333" d="M401.8,134.6c-0.6,2.2-2,3.7-4.6,4.9C397.6,136.7,400.1,136.3,401.8,134.6z" />
	<path fill="#1C1E1E" d="M391.6,130.6c-2.2,1.5-3.7,2.5-5.6,3.8C385.7,131.7,388.9,131.1,391.6,130.6z" />
	<path fill="#1D1E1E" d="M380.4,152.6c-0.7-1.6-0.5-3.2-0.5-5.1c0.6-0.1,1.1-0.2,1.8-0.4C380.7,149.2,380.4,150.5,380.4,152.6z" />
	<path fill="#282C2C" d="M378.4,129.5c-1.2,0.6-2.4,1.2-3.8,2C375.7,129.3,376.1,128.3,378.4,129.5z" />
	<path fill="#222222" d="M353.1,149.6c0,1.3,0,2.4,0,3.6C351.2,153.2,351.4,150.7,353.1,149.6z" />
	<path fill="#212323" d="M382.5,131.8c0.1,2.1-0.1,2.4-3.5,3.5C380.4,133.9,381.4,132.8,382.5,131.8z" />
	<path fill="#1B1B1B" d="M360.2,129.7c-1.2,0.8-2.3,1.6-3.5,2.4C357.2,130.2,358.5,129.7,360.2,129.7z" />
	<path fill="#2A2B2B" d="M370.7,139.1c0-1.4,0.6-1.8,1.8-1.8C372.5,138.5,372.1,139.1,370.7,139.1z" />
	<path fill="#232626" d="M381.9,130c-0.2-0.5-0.3-0.8-0.5-1.2c0.9-0.1,1.6-0.2,2.3-0.2c0,0.1,0.1,0.2,0.1,0.4   C383.2,129.2,382.6,129.5,381.9,130z" />
	<path fill="#1C2020" d="M397.3,133.2c0.2-1.6,0.2-1.6,1.8-1.8C398.8,132.4,398.4,132.9,397.3,133.2z" />
	<path fill="#252626" d="M382,152.9c1.4,0.1,1.7,0.8,1.2,2.1C382.7,154.2,382.4,153.5,382,152.9z" />
	<path fill="#708178" d="M360.6,175.2c-1,1.4-1.6,1.4-2.2,0.3C359,175.4,359.6,175.3,360.6,175.2z" />
	<path fill="#899088" d="M369.8,157.3c0.7,0.7-0.1,0.9-0.5,1.4c-0.3,0-0.6,0-0.9,0C368.3,157.7,369.3,157.7,369.8,157.3z" />
	<path fill="#343636" d="M355.3,150.5c0,0.7,0,1.3,0,2c-0.1,0-0.3,0-0.4,0c-0.1-0.6-0.1-1.3-0.2-1.9   C354.9,150.6,355.1,150.5,355.3,150.5z" />
	<path fill="#1E1F1F" d="M356.8,173.9c0.2-0.5,0.5-0.8,1.3-0.3C357.5,173.7,357.2,173.8,356.8,173.9L356.8,173.9z" />
	<path fill="#5876E8" d="M366.9,325.8c0.4,0.2,0.8,0.5,1.2,0.7c1.2-0.3,0.1-1.3,0.8-1.9c0.5,0,1.1,0,1.7,0c0.8,0.8,0.1,2.3,1.8,2.6   c0.1-0.7,0.3-1.5,0.4-2.4c0.7,0.1,1.3,0.2,2,0.3c-0.1,0.4-0.3,0.8-0.4,1.2c0.4,0.4,0.7,0.7,1,1c-0.8,1.9-4.7,0.6-3.8,2.7   c1.4-0.2,2.7-1,3.9,0.2c0.5,6,0.4,13.2,4,18.3c2.3-6.1-0.1-12.8-0.2-18.6c1.2-0.8,2.6,0.2,3.4-1.1c1.9,0,3.8,1,6.3-0.2   c0-0.8,0-1.7,0-2.8c1,0,1.9,0,2.7,0c4-2.4,0.4-6.8,4-10.5c1.2-0.2,2.5-0.5,3.8-0.7c2.6,0.9,1.6,3.5,2.8,5.1   c-4.5,5.1-8.4,10.4-9.5,17.1c0,0,0,0,0,0c-2-1.5-1-4.4-3-5.8c-1.5,2.2,1.5,6.8,3,8.7c0,1.2,0,2.6,0,3.8c-0.8,0.7-1.5,1.3-2.1,1.9   c0.9,3.2,0.9,3.2,0,6.5c1.8,2.2,1.5,5,2.2,7.3c-0.3,0.6-0.5,1.3-0.8,2c0.2,0.4,0.5,1,0.8,1.5c-5.4,11.2-13.7,22.1-17,34.2   c1.1-0.8,1.7-1.9,2-3.2c0.6,0.1,1.2,0.2,1.8,0.3c4.6-6.7,6.4-14.7,11.1-21.3c0.3,20.8-3.6,41.4-8.6,61.9c-8.6-1.9-17.2-2.6-26-2.1   c1.3-18-2.7-35.4-2.6-53.2c3.6,5.6,1.8,14.7,5.1,21.1c1.9-22.5-9-45.8,1.6-66.8c0.8,3.1,1.5,6.1,3.5,8.7c2.6-4.6,2-10.2,1.2-15.2   C365.7,326.5,366.3,326.2,366.9,325.8z M378.4,361.3c2.1-1.8,5.2-4.3,6.1-6.4c-0.1,0.2-0.2,0.3-0.3,0.5c-3.7,1.9-7.7,6.3-9.9,9.7   c0.2,0.1,0.3,0.2,0.5,0.3C375.9,364,377.2,362.6,378.4,361.3z M377,411.6c-1.3,6.7-3.5,13.1-5,19.7c3.7-4.9,4.3-12.8,5.7-19   c1.9-3.4,3-6.8,2.4-10.8C379.1,405.2,378.1,408.4,377,411.6z M386.7,396.6c-2.1,2.2-2.1,5.1-3.3,7.5c-0.6,1.6-1.6,3.4-1,5.1   c2.8-3,3.6-7.8,5.6-11.5C387.4,397.3,387.1,397,386.7,396.6z M363.6,426.5c2.1-7.7,2.1-7.7,1.4-10.3   C364.5,419.7,362.6,422.8,363.6,426.5z" />
	<path fill="#4B65C5" d="M366.9,325.8c-0.6,0.3-1.3,0.7-2,1.1c0.9,5,1.4,10.7-1.2,15.2c-2-2.6-2.7-5.6-3.5-8.7   c-10.6,21.1,0.3,44.3-1.6,66.8c-3.3-6.4-1.5-15.5-5.1-21.1c-0.1,17.7-2.3,35.7-1.7,53.9c-5.6,1.1-11.2,0.9-16.9,0.6   c-1-2.5,0.5-4.7,0.5-7c0.6-0.2,1.3-0.4,2.1-0.7c-0.1-9.8,3.7-19.2,5.6-28.6c-0.1,0-0.3-0.1-0.4-0.1c-2.4,6.9-4.6,13-5.5,20.7   c-3.2-17.4-0.4-36.2-7.7-52.7c-2.6-12.5-2.2-29.3,7.9-38.1c-0.1-0.9-0.2-1.8-0.4-3c0.7-1,1.5-2.2,2.4-3.6c2.7,0.6,5.2,2.1,8,1.5   c0.3,0.4,0.6,0.7,0.8,0.9c1.9-0.1,3.7-0.2,5.4-0.3c0-0.1,0-0.2,0.1-0.3c-1.4-0.3-2.7-0.7-4.1-1c-0.4-0.4-0.7-0.9-1.1-1.4   c-0.6,0.2-1.3,0.5-2.1,0.7c-0.3-0.7-0.5-1.3-0.9-2.1c-0.6,0.4-1.2,0.9-1.9,1.3c-0.6-0.9,0-1.8,0.1-2.8c6.2,0.6,12.1,4.2,18.3,6   c0.4,0.8,0.8,1.7,1.5,3c0.4-1.1,0.6-1.7,0.8-2.4c0.6,0,1.3,0,2.2,0C366.7,324.5,366.8,325.2,366.9,325.8z M338,335.9   c-0.9,0.9-1.5,2-1.9,3.2c1.2-0.6,2.2-1.3,2.6-2.5c0.6-1.1,2-1.8,1.7-3.6C338.9,333.5,338.8,335,338,335.9z M347.9,360.1   c-1.2,11.6-3.5,23-5.2,34.6C347,384.4,348.1,371.4,347.9,360.1z M354.1,349.6c0.5-6.6,2.6-13.4,1.7-20   C353.2,334.6,354,342.8,354.1,349.6z M359.8,326.8c-0.5-0.5-0.8-1-1.3-0.4C358.7,327.2,358.9,327.2,359.8,326.8z" />
	<path fill="#FBDFD3" d="M472.8,326.6c2.4,1.2,5.5,3.9,7.3,6.4c-0.1,0.6-0.2,1.3-0.3,1.9c-1.2-0.4-2.1-0.7-3.2-1   c-0.5,2.5-0.2,4.5,1.4,6.1c0.4,0,0.8,0,0.9,0c2.2,2.5,1.8,5.4,1.8,8.6c-4.9,11.5-2.6,25.2-9.6,36.3c-4,7.3-6.3,15.2-8.3,23.2   c-0.4,0-0.9,0-1.3,0c-0.2-0.8,0.2-1.7-0.6-2.5c-0.7,1.2-0.4,2.2-0.2,3.2c-0.5,0.7-0.9,1.4-1.5,2.2c0.1,1.1-0.4,2.4,0.9,4   c0.2-0.5,0.4-0.8,0.6-1.1c0,0,0,0,0,0c0.2,0,0.4,0,0.7,0c0.2,2.1-1.4,3.6-2.9,4.8c0.7,2.1-1.2,6.4,1.5,6.7c0,0.7,0,1.4,0,2.2   c-1.5,2.1-3,4.3-4.5,6.4c-2.1,0-4,0-6,0c-0.4-1.2-0.8-2.4-1.1-3.5c0-0.2,0.1-0.4,0-0.7c0.2-0.3,0.5-0.5,0.7-0.8   c0-1.2-0.1-2.4-0.1-3.6c1-1.6,1.3-3.2,0.2-5.3c-1.4,1.7-0.6,3.3-0.7,5.3c-0.3,0.2-0.5,0.5-0.8,0.7c-1.3-1.3-0.6-3.5-0.7-5.1   c0.8-1.2,1.4-2.1,2.8-2.1c1-0.7,0.9-1.8,0.9-2.9c1.7-1.2-0.8-2.8,0-4.3c2.1-7.8,2.3-15.2,3.4-23.3c-5.4-13.9,3.2-28.5,9.7-40.5   c1.5-0.8,3.4-0.8,4-2.7c-7.7-7.4-29.8,7.7-38.2,6.6c0.8-4.5,1.8-9,3.7-13.1c2,0.3,3.8,0.6,5.7,1c0.5,0.9,1.1,0.8,2.2,0.3   c-2.6-1.2-4.6-2.1-7.1-3.2c0.4-3.9,2.4-11.5,3.8-14.1C449.4,323.6,461.6,323.1,472.8,326.6z M470.7,339c1.7-0.6,3.1-1.7,2.7-3.8   c-0.9,0.6-1.4,1-2,1.5c-2.8,0-6.2-0.3-7.7,2.7C466.1,340.7,466.8,340.6,470.7,339z M466.4,364.8c-0.8,4.9-3.1,8.2-3.5,13.3   c2.8-5.5,7.5-10.5,4.8-16.9c0.3-4.5,0.2-4.7-1-7.1C464.9,356.8,466.8,361.4,466.4,364.8z M442.9,340.5c1.1,1.2,2.3,2,2.4,0   C444.7,340.5,444.1,340.5,442.9,340.5z M457.1,387.1c0.9-1.1,2.4-1.4,1.6-2.7C457.6,384.9,457.3,385.7,457.1,387.1z M461.8,381.7   c-1.6-0.3-1.8,0.4-1.7,1.7C460.8,382.8,461.3,382.3,461.8,381.7z M456.2,388.9c0.2-0.3,0.4-0.5,0.6-0.7c-0.5-0.6-0.7,0-1.1,0.3   C455.9,388.6,456,388.7,456.2,388.9z M452.5,412c-0.1,0-0.3,0-0.4,0c0,0.5,0,1,0,1.5c0.1,0,0.3,0,0.4,0   C452.5,413,452.5,412.5,452.5,412z M461.3,403.2c0.2,0,0.5,0,0.7,0.1c0-0.5-0.1-1-0.1-1.4c-0.1,0-0.3,0-0.4,0   C461.4,402.3,461.4,402.7,461.3,403.2z M449.1,341.1c0,0.1,0,0.3,0,0.4c0.6,0,1.2,0,1.7,0c0-0.1,0-0.3,0-0.4   C450.2,341.1,449.6,341.1,449.1,341.1z M455.2,340.5c-0.3-0.1-0.6-0.3-0.8,0.1C454.8,340.8,455,341,455.2,340.5z" />
	<path fill="#FBDFD3" d="M359.8,446.1c1.4,0.7,2.5-0.7,3.7-0.5c2.7,0.4,4.9-1.5,6.8-3c0.3,10-7.3,19.1-7.4,29.4   c-3.2,23.1-13.6,45.2-12.1,68.8c0.5,0.1,0.9,0.2,1.3,0.3c-0.2,8-9.1,2.7-14,3.6c0-0.2,0-0.4,0-0.6c1.4-1.9,1-5.5-0.2-7.5   c0.4-0.6,0.7-0.9,0.9-1.3c0-1.2,0-2.3,0-3.5c-0.6-0.6-2.1-1.6-0.7-2.2c1.4-1.5,0.4-3.8,0.7-5.8c2.5-15-1.2-32-0.1-47.3   c-1.5-9.1,8-15.3,8.8-23.8c3.4,1.2-1,3.8,1.3,5.6c5.5,0.4-0.6,12.1,3.5,13.9c2.2-12.6,4-15.2-2.5-27.6c1.6-0.7,3.2-1.4,5-2.2   C355.9,444.5,357.4,446,359.8,446.1z M351,482.9c-0.8,0.8-0.8,1.6-0.4,2.6c1.7-0.6,3.2-8.9,2.4-10.8   C352,477.4,351.2,480.1,351,482.9z M362.8,448.2c-1.2,1.5-1.9,3.2-0.2,4.6C363.5,450.3,363.5,450.3,362.8,448.2z M345,503.3   c-2.8,1.2-2.9,1.3-2.8,3.3C343,505.6,343.7,504.7,345,503.3z M350,490.1c-1.1,2.4-1.1,2.4-0.7,3.9   C349.9,492.9,350.8,491.8,350,490.1z M348.2,497.3c-1.5,0.1-1.8,0.9-1.1,2.3C347.5,498.6,347.9,498,348.2,497.3z" />
	<path fill="#E4E4EB" d="M355.3,544.9c2.7,4,0.7,5.8,0.9,10c2.1-0.1,2.3-2.2,4-2.8c1,1.6-1.8,3.3,0.5,4.7c1.8-0.6,2.5-2,3.1-3.8   c0.9,0.5,1.7,1,2.3,1.4c0.4,1.4-1.3,2.8,0.6,3.9c0.7-0.7,1.4-1.4,2.1-2.1c1.2,0.6,1.1,1.9,1.2,3.4c0.5-0.6,0.7-0.8,0.9-1.1   c2,0.4,3.1,1.9,4,3.8c0.5-0.1,0.9-0.2,1.6-0.4c3.4,1,7.2,2.8,11,2.7c1.7,0.2,4.2-0.1,5.2,1.4c0,2.3-0.1,4.5-0.1,6.5   c-10.3,5-21.9,2-32.8,2.6c-4-0.8-4.8-8.5-9.5-5.6c-7,5.7-16.3,1.5-24.6,1.2c-2.8-6.5,1.3-12.9,2.9-19c0.5-4,0-8.4,1.7-12.2   c1.8,7.5,7.5,14.8,16.2,12.3C348.4,548.3,351.5,546.2,355.3,544.9z" />
	<path fill="#5876E8" d="M392.9,359.1c-0.6-2.2-0.4-5-2.2-7.3c0.9-3.3,0.9-3.3,0-6.5c0.6-0.5,1.3-1.2,2.1-1.9c0-1.2,0-2.6,0-3.8   c-0.5-0.6-0.9-1.1-1.4-1.7c1.1,0.3,1.4-0.4,1.4-1.3c0,0,0,0,0,0c1.8,2.3-0.1,5.2,1,7.9c2.8-1.6-0.2-7.8,0.5-10.8   c4.1-4.2,6.1-10.8,11.3-13.7c-0.1-0.5-0.2-0.9-0.3-1.2c0.7-0.3,1.3-0.6,2-0.9c0.8,0.1,1.7,0.2,2.6,0.3c0.5,0.6,1.1,1.2,1.7,1.9   c7.8,0.4,15.3,0.5,23.2,1.8c-3.1,10.7-5.1,21.7-8.8,32c-2.7,0-5.4,0-8.5,0c1.2-2.3,3.5-3.4,5-6c-4.1,1.8-7.2,3.5-10,6.1   c-2.9,0-4.4,0-7.8-0.1c4.3-2.1,6.2-4.3,8.5-7.6c-5.3,0.1-9.4,1.9-14.6,2c2.6-4.6,5.4-9,8.3-13.4c-4.9,1.1-6.7,5.9-9.6,9.3   c0-8.4,7.7-14.8,10.5-22c-6.3,4.2-13,18.1-12,26.9C394.4,352.1,394.4,355.8,392.9,359.1z M412.2,328.7c-2.1,2.1-2.6,2.7-3.4,5.1   c1.8-1.1,2.4-2.8,3.5-4c1.2-1.3,2.8-1.7,3-3.7C413.7,326.6,412.9,327.6,412.2,328.7z M393.4,352.7c0.3-2.4-0.5-3.9-1-5.4   C392.1,348.9,391.6,350.6,393.4,352.7z M422.6,331.3c-2.8,0.8-2.8,0.8-3.2,2.6C420.5,333.1,421.6,332.5,422.6,331.3z" />
	<path fill="#EECABA" d="M338.8,524c0,0.5,0,1,0,1.5c-0.3,0.1-0.7,0.1-1.1,0.2c-0.7,1.5-0.4,2.8,0.4,4.1c-1.4,0.6,0.1,1.6,0.7,2.2   c-1.8,0.7-1.5,2.1-1.2,3.5c0.5,0,0.8,0,1.2,0c-0.3,0.4-0.5,0.7-0.9,1.3c1.2,1.9,1.7,5.5,0.3,7.5c0-1.7,0-3.5-0.1-5.2   c-0.2,0-0.3,0-0.5,0c-0.2,1.7-0.3,3.3-0.5,5.1c0.4,0.1,0.7,0.1,1.1,0.2c0,0.2,0,0.4,0,0.6c-2.8,1.4-5.8-3.1-4.9-5.5   c3.2-10.8,1.4-22.1,2-33.2c-6.6-50.1,9.9-35.6,6.8-69.7c8.8-0.9,18.8-3.2,27.8-1.3c0,0.4,0,0.7,0,1.1c-3.1,0.8-5.8,2.6-8.7,4.1   c0.2,1.4-0.5,2.7,0.6,3.8c-1.2,0.9-1.6,0.4-3.2-0.1c0.6,1.1,0.9,1.7,1.2,2.2c-2.4-0.1-3.8-1.6-4.9-3.5c-1.8,0.8-3.4,1.5-5,2.2   c2.4,6.4,7.6,13.7,3.4,20.1c-0.3-1,0.6-2.5-1.5-2.9c0,3.4,0,6.8,0,10.1c-2.6-3.6,1.7-10.7-2.1-13.7c-0.1-0.4-0.2-0.8-0.4-1.9   c-0.2,1.1-0.3,1.5-0.4,1.9c-2.3-1.8,2-4.4-1.3-5.6c-0.7,8.5-10.2,14.8-8.8,23.8c-0.5,14.8,1.3,30,0.8,45.2   c-0.4-0.2-0.8-0.3-1.3-0.5C338.1,522.4,337.7,523.4,338.8,524z M346.2,440.8c-0.1,1.2-1.3,2.2-0.6,3.5   C346.6,443.3,347.2,442.2,346.2,440.8z" />
	<path fill="#EECABA" d="M449.7,418.8c-1.4,0-2,0.9-2.8,2.1c0.2,1.6-0.6,3.8,0.7,5.1c-0.2,5.1-2.3,1.3-0.2,7.7c-0.9,0-1.7,0-2.7,0   c-0.1-15.8,4-31.6,3.2-47.3c-4.5-14.3,5.2-29,13.6-39.1c-10,8.6-21.3,14.6-34.8,16.6c0.1-4.1,2-8,2.8-12.1   c8.4,1.1,30.5-14,38.2-6.6c-0.6,1.9-2.5,1.9-4,2.7c-6.6,12-15.1,26.6-9.7,40.5c-1,8-1.2,15.5-3.4,23.3c-0.7,1.5,1.7,3.1,0,4.3   c-0.1-0.4-0.2-0.8-0.3-1.6C448.4,415.9,449.1,417.3,449.7,418.8z" />
	<path fill="#4B65C5" d="M412.3,347.5c-1.8,2.5-4,4.6-7.6,6.4c3.4,0.1,4.8,0.1,7.8,0.1c2.8-2.6,6-4.3,10-6.1c-1.5,2.6-3.8,3.8-5,6   c3,0,5.7,0,8.5,0l0.1,0.1c0,0.4-0.1,0.9-0.1,1.3l0,0c-2-0.4-3.9-1.2-6.5-0.1c2.5,0.4,4.5,0.7,6.4,1c-5.2,29.2,9.8,16.8-31.9,21.4   c-0.6-7.3-0.7-15.2,2.3-22.3c6.2-0.4,12.3,1,18.3-0.6c-6.1,0-12,0.1-18.2-0.2c-0.3-0.7-0.5-1.4-0.7-2c0.1-0.5-0.1-1.2,0.7-1.3   c0,0.6,0.1,1.1,0.1,1.6c2.1-1,4.1-1.9,6-2.7c-0.2-0.2-0.3-0.4-0.4-0.5C405.4,348.2,408.9,347.9,412.3,347.5z M395.6,367.1   c1.8,0.6,3.4,2.7,5.3,2.1C400.3,368.1,393.2,364.2,395.6,367.1z M407.9,364.2c-3.5-1.6-8.3-6.4-12.2-4.4c5.1,2.1,9.3,4.8,14.3,6.3   C409.5,365,408.9,364.4,407.9,364.2z" />
	<path fill="#CFCEDC" d="M325,568.5c0.3,0.7,0.6,1.5,0.8,2.1c8.3,0.3,17.6,4.4,24.6-1.2c4.7-2.9,5.5,4.8,9.5,5.6   c10.8-0.6,22.5,2.5,32.8-2.6c0-2,0.1-4.3,0.1-6.5c1.1,2.9,0.4,5.8,0.6,9c-12.4,4.7-26,4.6-38.6,0.3c-3.7-0.8-5.3,4.2-10.3,2.7   c-6.9-1.4-14.3-1-20.9-2.6C323.8,573,324.1,570.7,325,568.5z" />
	<path fill="#4962BF" d="M351.8,411.7c1.2-7.5,0.3-16.1,2.1-23.1c0.9,14.7,3,29,2.2,43.9c-0.7,0.2-1.5,0.5-2.5,0.8   C351.8,426.2,353.7,418.2,351.8,411.7z" />
	<path fill="#4A64C4" d="M386.4,374.2c2.7-3.3,3.9-7.3,5.9-10.8c-1,11.1-7.7,20.7-12.6,30.6c-0.6-0.1-1.2-0.2-1.8-0.3   c0-0.3-0.1-0.5-0.1-0.8c3.2-6.1,7.5-12.1,9.9-18.5C387.1,374.3,386.7,374.3,386.4,374.2z" />
	<path fill="#F6D9CD" d="M361.8,444c-1.2-1.1-0.4-2.4-0.6-3.8c2.9-1.5,5.5-3.3,8.7-4.1c0,0.7,0,1.4,0,2.4   C367.2,440.3,364.5,442.1,361.8,444z" />
	<path fill="#2E3E79" d="M336.6,416.6c0.1,0.3,0.2,0.6,0.5,1.6c0.3-5.5,2.4-9.7,3.2-14.4c0.2,0.2,0.5,0.5,0.7,0.7   c-1.5,7.1-3.6,14.5-3.6,21.7c-0.8,0.2-1.4,0.4-2.1,0.7C335.7,423.5,335.5,419.7,336.6,416.6z" />
	<path fill="#090C17" d="M395.8,352.5c0.2,0.6,0.5,1.3,0.7,2c1.8,0.1,3.4,0.1,5,0.2c0,0.2,0,0.4,0,0.6c-1.7,0-3.4,0-5.1,0   c-1.7,3.4-1.8,6.8-2.7,10.3c0.3-1.8-0.8-3.1-1.6-4.5c1.2-2.9,1.9-5.7,3-8.6C395.3,352.5,395.5,352.5,395.8,352.5z" />
	<path fill="#2B396F" d="M351.8,411.7c1.7,5.6,0.3,12.8,1.3,18.8c-1.3,0.5,0.2,2.4-1.4,2.7C351.8,426,351.8,418.8,351.8,411.7z" />
	<path fill="#E1EAEA" d="M346.1,547.9c-0.3,0.9-0.4,1.6-0.7,2.4c-2.4-0.1-4.7-0.1-6.9-2.4C341.2,547.5,343.4,547.6,346.1,547.9z" />
	<path fill="#384E98" d="M428.3,367.7c-0.3,1.7-0.7,3.5-1.1,5.7c-1.1-2-1.4-3.8-1.2-5.7C426.7,366.7,427.4,366.8,428.3,367.7z" />
	<path fill="#263059" d="M425.9,356.2c-2-0.3-3.9-0.6-6.4-1c2.6-1.1,4.5-0.3,6.5,0.1C425.9,355.6,425.9,355.9,425.9,356.2z" />
	<path fill="#4A64C4" d="M390,383.5c0.2-2.2-0.7-4.7,0.6-6.5C390.5,379.2,391.4,381.7,390,383.5z" />
	<path fill="#9A8982" d="M439,338.8c0.6,0.3,1.2,0.6,2.2,1c-1.1,0.5-1.7,0.7-2.2-0.3C439,339.3,439,339.1,439,338.8z" />
	<path fill="#A3AEB4" d="M355.3,544.9c-0.5,0.2-0.9,0.4-1.4,0.7c0.2-0.7,0.5-1.4,0.7-2.1c0.2,0,0.3,0,0.5,0.1   C355.2,544,355.2,544.5,355.3,544.9z" />
	<path fill="#4B65C5" d="M425.9,353.9c0.2-0.5,0.5-0.9,0.7-1.4c0,0.5,0,0.9,0,1.4c-0.2,0-0.4,0.1-0.6,0.1L425.9,353.9z" />
	<path fill="#263059" d="M426.1,354c0.2,0,0.4-0.1,0.6-0.1c0.1,0.6,0.2,1.3-0.7,1.5C426,354.9,426,354.5,426.1,354z" />
	<path fill="#92A3C5" d="M492.8,483.7c6,14.4,6.5,30.7,7.1,46.1c0,17.8,4.2,35.5,0.9,53.4c-5,2.1-11.2,1.3-16.6,1.4   c-0.2-0.7-0.8-0.8-1.5-0.7l0,0c-1.3-1.3-0.6-3.4-0.7-5.1c0.4,0.9,0.8,1.7,1.8,2.1c1.2-32.1,2.7-64.8-2.3-96.2   C485.6,484,489.2,483.3,492.8,483.7z" />
	<path fill="#798BB3" d="M563.7,589.5c0,2.3,0,4.5,0,6.6c-46.5,2.6-94.2,0.9-141.1,2.1c-0.1-3.5-0.3-6.7,0.1-9.9   c46.1-2,93.4-1.7,139.8-1.4C563.2,587.8,562.5,589.1,563.7,589.5z" />
	<path fill="#35A65F" d="M512.4,461.3c7,1.7,3.7,10,4.4,15.4c-20.7,2.8-42.2,0-62.7,1.9c-11.3-4.2-22.7-11-32.6-17.7   c-1.6-4.4-1.2-8.4-1.2-12.5l0,0c4.1,1.3,7.5,4.4,11.2,6.4c0.5,1.7,0.7,3.2,1.3,4.6c0.5-0.4,0.8-0.7,1.2-1   c5.2,1.8,10.9,2.7,16.3,3.5c-0.6-0.4-1-0.7-1.9-1.3c3,0,5.4,0,7.9,0c-0.7,1.8-3.4-0.3-3.9,1.4c2.3,2.1,5.6-1.5,8.3,0.6   c-1.3,0.1-2.6,0.2-4.2,0.3c12.6,0.9,26.6,1.3,38.9-0.8c1.6,1.5,4.6,0.3,6.8,0.8c0.2,1.4,0.3,2.6,0.5,3.7c0.1,0,0.2,0,0.2,0   c0.2-1.2,0.3-2.4,0.5-3.7c3.9,0.3,5,0.3,5,4.4c0.1,0,0.2,0,0.4,0c0.1-1.1,0.2-2.3,0.2-3.5c1.1-0.2,2.1-0.3,3.1-0.5   c-1.1-1.1-2.6,0.2-3.3-1.2C510.1,462,511.4,462.3,512.4,461.3z M469.4,475.6c1-2.3,2.8-8.9,0-9.5   C469.4,469.2,469.4,472.2,469.4,475.6z M452.8,471.6c1.3-2.5,2.5-7.5,0-7.9C452.8,466.2,452.8,468.5,452.8,471.6z M422.4,458.6   c0.2,0,0.5,0,0.7-0.1c-0.1-2.3,0.2-4.6-0.4-6.9C422,453.8,422.6,456.3,422.4,458.6z M472.5,469.8c0.4-2.7,0.4-2.7-0.3-5   C472.2,466.8,471.9,468.2,472.5,469.8z M453.2,472.5c-0.7,1.1-0.7,2.3,0,3.4C453.2,474.8,453.2,473.6,453.2,472.5z M451.6,463.1   c-0.2-0.4-0.5-0.1-0.8,0C451,463.5,451.3,463.2,451.6,463.1z" />
	<path fill="#798BB3" d="M417.4,555c-9.1-0.1-18.3,0-27.4-0.2c-0.1-2.8,0.1-5.7,0-8.5c29.9-0.6,60.1-0.3,89.8-1.4   c0.5,2.2-0.2,4.6,0.9,6.6c-0.1,0.8-0.2,1.6-0.2,2.6C459.4,554.9,438.4,554.4,417.4,555z" />
	<path fill="#92A3C5" d="M454.2,542.7c-2.4,2.5-6.3,1.1-9.4,1.3c-0.4-0.4-0.9-0.8-1.5-1.3c-1-18.5-1-37.3-0.5-55.9   c4.2-0.5,6.7-0.5,9.2,0.3C452.2,505.7,453.6,524.2,454.2,542.7z" />
	<path fill="#7586AC" d="M481.5,487.2c1.2,3.1,1.5,7.3,1.4,10.8c-0.4-0.2-0.8-0.3-1.4-0.5c1.9,6.8,2.6,12.7,2.2,19.8   c1.2-1.2,0-2.7,1.3-3.4c0,2.9,0,5.9,0,8.8c-0.2-0.1-0.4-0.1-0.6-0.1c-0.1-1.3,0.2-2.6-0.7-4.6c-0.1,5.8,0.4,10.1,0.8,15.7   c0.1,0,0.2,0,0.3,0c0.1-2,0.2-4,0.3-6c1.1,9.4-0.1,20-0.9,29.6c-3.5-2.5-0.5-20.4-1.5-26c-1.5-11.9,0.4-44.7-9.8-50.1   c1.4-0.9,2.3,0.7,3.4,0.4c0.2,0.8,0.9,0.7,1.5,0.7c0.4,0.5-1.1-0.6-1.5-0.6c3.7-2.2,8.8-0.3,13.4-1.2c1.1,0.7,2.3,1.8,3.1,3.3   c-3.7-0.4-7.3,0.3-11.1,0.9c-0.1,0.6-0.2,1.3-0.2,1.9c-0.4-0.6-0.8-1.2-1.3-1.9c-0.5,2.7,0.5,4.9,1.4,7.1   C481.5,490.2,481.5,488.7,481.5,487.2z" />
	<path fill="#788AB2" d="M452,492.4c0-1.8,0-3.6,0-5.3c-2.5-0.8-5-0.9-9.2-0.3c-0.5,18.6-0.5,37.4,0.5,55.9c0.6,0.5,1,0.9,1.5,1.3   c-1.5,0.4-3,0.1-4.3-0.6l0,0c-0.4-12.3,1.8-24.7,0-36.9c0.3-9.6-2-20.8,2.9-29.4c3.4,0.1,5.7,3.4,9.3,3c0.5,1,1.3-0.4,2,0.4   C452.3,484,453,488.4,452,492.4z" />
	<path fill="#8399B7" d="M502.7,585.2c0.2-2.7,2.9-1.6,4.6-1.9c15.1-0.1,30.2-0.2,45.3-0.4c4.4,0.7,10.3-2,13.8,1   C545.6,585.4,523.9,584.5,502.7,585.2z" />
	<path fill="#8499B7" d="M480,585.1c-18.4,0.7-36.9,0.5-55.4,0.9c-1.7,0.1-2.4,0-3.9-1.3c19.7-0.7,39.5-0.9,59.3-0.8   C480,584.3,480,584.7,480,585.1z" />
	<path fill="#788AB2" d="M563.7,589.5c-1.2-0.5-0.5-1.8-1.2-2.7c-8.6-0.5-17.7,0-26.4-0.3c10.8-1.2,22.1-0.3,33-0.6   c2.4,2.7,2.5,6.1,4.1,9.2c-1.7,3.1-5.5,1.3-8.4,1.8c-1.3-3.8,1.2-6.3-0.7-10.5C563.8,587.9,563.8,588.7,563.7,589.5z" />
	<path fill="#788AB2" d="M410.9,598.3c0-2.2,0-3.8,0-5.6c1.2-1.5,2.5-3.1,3.8-4.6c2.3-0.2,4.4-0.2,6.7,0c-0.3,3.6-0.3,6.3,0.3,9.9   C418.1,598.6,414.7,598,410.9,598.3z" />
	<path fill="#7083A8" d="M514.7,553.6c-3.1,1.4-7.1,0.2-10.6,0.6c-0.9-2.9-1.1-5.8-1.1-8.8c1.4-0.7,2.7-0.4,4.1-0.3   C506.7,552,507.1,554.4,514.7,553.6z" />
	<path fill="#26282A" d="M454.2,542.7c-0.7-14-0.2-27.8,0-42c0.9,13.9,0.5,28,1.4,41.9C455.2,542.8,454.7,542.8,454.2,542.7z" />
	<path fill="#7485AA" d="M514.7,553.6c-8.1,0.8-6.8-1.3-6.4-8.1c1-0.8,1.7-0.6,2.3,0.2C511.7,548.2,515.7,550.8,514.7,553.6z" />
	<path fill="#0D0E10" d="M443.3,544.2c11.5,0.4,23.5,0.8,35.4,0.7C467.4,545.4,454.4,546.9,443.3,544.2z" />
	<path fill="#63708D" d="M484.3,562.9c-0.3,6,0.6,12.1-0.3,18c-3.1-1.6-1.3-5.8-1.7-8.6C484.8,569.7,482.5,565.4,484.3,562.9z" />
	<path fill="#4F596F" d="M484.3,562.9c-1.8,2.5,0.5,6.8-2,9.4c0.4-5.4-0.9-11.5,0.6-16.6c0.1,0.9,0.4,1.5,1.4,1.5   C484.3,559.1,484.3,561,484.3,562.9z" />
	<path fill="#0F181C" d="M470.7,543.4c3.2,0,6.4,0,9.6,0c0,0.2,0,0.3,0,0.5c-8.2,0.1-17.8,1.3-25.5-0.5   C460.1,543.4,465.4,543.4,470.7,543.4z" />
	<path fill="#8098B7" d="M410.2,589.6c1.1-1.7,2.2-3.3,3.4-5.1c2.2,0.3,4.5-0.9,6.8,1.2c-4.1,0.3-7.2,0.9-9.6,4.5   C410.6,590,410.4,589.8,410.2,589.6z" />
	<path fill="#251416" d="M510.2,542.1c0.1,0.2,0.1,0.4,0.2,0.6c-1.2-0.2-1.6,0.9-2.4,1.5c-1.4,0-2.8,0-4.5,0   c-0.3-0.7-0.7-1.6-1.1-2.4C505.1,541.8,507.7,541.9,510.2,542.1z" />
	<path fill="#200000" d="M470.7,543.4c-5.3,0-10.6,0-15.8,0c0-0.2,0-0.4,0-0.7c5.3-0.3,10.6-0.3,15.9-0.1   C470.7,542.9,470.7,543.2,470.7,543.4z" />
	<path fill="#0D0E10" d="M480.7,551.5c-1-2-0.4-4.4-0.9-6.6C481.7,546.4,480.3,549.4,480.7,551.5z" />
	<path fill="#63708D" d="M480,585.1c0-0.4,0-0.8,0-1.2c0.9,0.2,2.3,1.1,2.9-0.1c0.7-0.1,1.2,0,1.5,0.7   C483,585.6,481.5,585.2,480,585.1z" />
	<path fill="#4E5970" d="M410.2,589.6c0.2,0.2,0.4,0.4,0.6,0.6c-0.3,1-0.9,1.6-2,2C408.7,591,409.3,590.2,410.2,589.6z" />
	<path fill="#63708D" d="M482.2,579.4c0,1,0,2,0,3C481.2,581.4,481.3,580.4,482.2,579.4z" />
	<path fill="#63708D" d="M482.2,583c0.2,0.3,0.4,0.5,0.7,0.8C482.4,583.8,482.1,583.6,482.2,583z" />
	<path fill="#CCD2E9" d="M355.9,277.5c1.3-1.3,3.7-0.8,4.5-2.2c-0.4-1.2-1.8-0.6-2.7-0.5c-1-0.5-0.9-1.5-0.9-2.4   c0.4-3.7-0.6-7.2-0.8-10.8c5.6-1.5,12-2.4,17.6-4.8c-0.1,4.3-5.6,8-7.4,12.3c2.4-0.4,2.6-2.6,4.3-3c4.3,2.2,5.2,8.7,10.8,9.3   c-0.6-0.9-1-1.4-1.4-2c0.3-4.6-3.5-8.1-7.2-9.4c1.4-2.1,2.8-4.1,4.2-6.4c7.1,4.3,14.6,8.2,22.8,10.2c-2.3,18.6-6.4,36.8-8.8,55.4   c-4.5-0.3-8.9-0.2-13.2-0.8c-0.7-3.7-0.4-7.9-2.4-11.2c-1.4,0.7-0.7,2.6-2,3.3l0,0c-1-0.9-0.9-2.6-2.9-2.7   c1.4,3.8,3.5,6.2,3.8,10.3c-5.6,0.9-10.7-1.3-15.9-2.7c0.6-13.9-1.5-27.4-3-41.1C355.5,277.9,355.7,277.7,355.9,277.5z    M369.1,279.7c-0.7-1.2-1.9-0.3-0.8,0.8c0.6,0.4,1.2,0.8,2.1,1.3C370.4,280.5,369.8,280.1,369.1,279.7z M390.6,280.4   c1.4-2.7,6.4-5.3,5.6-8.3c-3,1.1-4.3,5.3-6.4,7.6c-1.1,0.6-1.5,1.6-1.7,2.9C389.5,282.1,390.3,281.5,390.6,280.4z M372.6,280.4   c4.1-2-0.8-8.6-3.7-9.2C365.5,273.9,370.1,278.7,372.6,280.4z M370.4,287.9c0.6-2.2-3.8-9.6-6.2-7.7   C363.2,283.7,366.4,289.5,370.4,287.9z M366,269.5c-2,0.3-2.8,0.9-3.3,2.3C364.7,271.5,364.9,271.5,366,269.5z M371.8,281.5   c0.8,1.6,1.2,2.1,2.4,1.3C373.4,282.4,372.9,282.1,371.8,281.5z M386.5,285.8c-1.4-0.1-1.4-0.1-1.7,1.4   C385.4,286.7,385.9,286.3,386.5,285.8z M380.1,298.4c0.4-0.7,1.5-1.2,0.7-2.1C379.8,296.6,379.5,297.3,380.1,298.4z M382.4,292   c0.3-0.4,0.4-0.7,0.1-1.1C382.1,291.3,381.9,291.5,382.4,292z" />
	<path fill="#EECABA" d="M326.5,273.3c0.7-9,2.8-17.1,6.2-25.7c3.3,5.4,0.2,9.7-0.9,14.8c2.3,6.8,4.3,13.5,5.4,20.1   c-0.5,0.6-1,1.2-1.9,2.2c1.2-0.1,1.8-0.2,2.7-0.3c0,0.8,0,1.6,0,2.4c-0.5-0.5-1-1.3-1.5-1.3c-3.2-0.1-3.8-2.8-5.5-5   c-3,11.1,3.2,21.2,5.2,31.8c0.4-1.2,0.1-2.3,1-3.2c0.1,3.7,0.2,7.4,0.3,10.8c-1,1.2-1.8,2.2-2.8,3.4c-6.2-12.9-7.6-27.5-9.8-41.5   c0.1-0.2,0.2-0.4,0.1-0.6c0.2-0.5,0.9-0.9,0.7-1.4C326.9,277.8,326.3,275.5,326.5,273.3z" />
	<path fill="#FADED2" d="M337.4,309.3c-0.9,0.9-0.7,2-1,3.2c-2.1-10.6-8.3-20.7-5.2-31.8c1.7,2.2,2.3,4.8,5.5,5c0.5,0,1,0.9,1.5,1.3   c0.6,5.8,1.5,11.3,1.8,17.1C338.2,305.3,338.2,307.5,337.4,309.3z" />
	<path fill="#F8DCD0" d="M337.2,282.6c-1.1-6.6-3.1-13.3-5.4-20.1c0.7-2.5,1-5.4,2.7-7.9C337.8,263.2,340.4,273.9,337.2,282.6z" />
	<path fill="#4B65C6" d="M379.2,332.3c1.7,4.7,1.9,11.1,0.4,16.2c-3.7-5.1-3.6-12.2-4-18.3c2.6,1.3,3.1-2.6,7.2-1.4   c-0.8,1.3-2.2,0.3-3.4,1.1C379.3,330.6,379.2,331.4,379.2,332.3c-3.4,1-3.3,8.1,0.2,9.3C377.8,338.8,379.2,335.9,379.2,332.3z" />
	<path fill="#B6BBD2" d="M373.3,314.4c1.3-0.7,0.6-2.5,2-3.3c1.9,3.3,1.7,7.4,2.4,11.2c-0.6,0-1.1,0-1.5,0   C375.2,319.5,374.1,317.2,373.3,314.4z" />
	<path fill="#4A64C5" d="M378.4,329.4c-1.7,2.8-3.9-1-6.7,0.6c-0.9-2.1,3-0.8,3.8-2.7c-0.3-0.3-0.6-0.6-1-1c0.1-0.3,0.2-0.7,0.4-1.2   c0.8,0.6,1.6,1.2,2.5,1.9c0.2-0.7,0.4-1.2,0.6-1.7c1.8-0.1,1.8-0.1,2.5,2.4c-1.1,0.2-2.2,0.4-3.3,0.7   C377.2,329.5,378,329.2,378.4,329.4z" />
	<path fill="#202E5A" d="M345.3,317.1c-0.9,0-1.7,0.1-2.7,0.3c-0.2,0.8-0.3,1.6-0.5,2.5c-0.9-0.1-1.6-0.2-2.5-0.3c0-1.1,0-2.3,0-4   c0.5,1,0.7,1.5,1,2.1c0.7-0.7,1-1.1,1.6-2C343.3,316.2,344.3,316.7,345.3,317.1z" />
	<path fill="#55525A" d="M373.3,314.4c0.2,0.7,0.4,1.5,0.7,2.2c-0.2,0.2-0.5,0.5-0.7,0.7c-1.1-1.7-2.2-3.4-2.9-5.6   C372.4,311.8,372.3,313.5,373.3,314.4C373.3,314.4,373.3,314.4,373.3,314.4z" />
	<path fill="#2D3D77" d="M393.6,339.6c0-1.1,0-2.1-0.8-2.9c0.3-1,0.5-2,0.8-3c0.2,0,0.4,0,0.6,0.1c-0.4,2.7,0.8,5.2,0.6,7.9   C394.5,341,394.1,340.3,393.6,339.6z" />
	<path fill="#1C2446" d="M349.6,321.5c1.4,0.3,2.7,0.7,4.1,1c0,0.1,0,0.2-0.1,0.3c-1.7,0.1-3.5,0.2-5.4,0.3   c-0.2-0.2-0.5-0.5-0.8-0.9C348.1,322.1,349.2,322.6,349.6,321.5z" />
	<path fill="#242120" d="M326.5,273.3c-0.2,2.2,0.4,4.5-0.6,6.6C326.2,277.7,325.1,275.1,326.5,273.3z" />
	<path fill="#374D98" d="M382.6,324.6c0,1.3,0,1.9,0,3.2C381.1,326,381.1,326.4,382.6,324.6z" />
	<path fill="#242120" d="M325.1,281.9c0,1.2,0,2.4,0,3.6c-0.8-1.1-0.8-2.3-0.7-3.6l0,0C324.6,281.9,324.8,281.9,325.1,281.9z" />
	<path fill="#253467" d="M384.2,326.8c0.1-0.5,0.1-0.9,0.2-1.4c0.1,0,0.3,0,0.4,0c0,0.5,0.1,1,0.1,1.4   C384.7,326.9,384.5,326.8,384.2,326.8z" />
	<path fill="#242120" d="M325.7,280.5c-0.2,0.3-0.4,0.6-0.6,0.9C325.4,281,325.6,280.7,325.7,280.5z" />
	<path fill="#2D3D77" d="M395,333.1c-0.2,0.2-0.5,0.5-0.7,0.7C394.5,333.6,394.8,333.3,395,333.1z" />
	<path fill="#2D3D77" d="M393.7,332.4c0.2-0.3,0.3-0.6,0.5-0.9C394,331.8,393.9,332.1,393.7,332.4z" />
	<path fill="#E4E4EB" d="M465.5,430.4c0.6,1,1.3,2,1.9,2.9c-1.5,1.7-3.8,2.6-4,5.2c0.5,0.5,1,0.9,1.5,1.4c2.2-0.5,2.7-2.7,4.5-4.5   c0.5,0,1.4,0,2.3,0c0,1.8-2.2,2.7-1.8,4.7c2.6,1.4,3.3-1.6,4.3-3.3c0.6,0.3,1.2,0.6,1.8,0.9c0.1,1.8-1.9,3.2-0.9,5.2   c1.7-0.5,2.2-2.2,3.5-3.2c0.7,0.2,1.4,0.5,2.3,0.8c-0.1,1-0.1,2-0.2,3.5c1.2-1,1.5-1.3,2-2.4c5.2,2.8,10.4,3.4,16.2,4.5   c0.8,2.2,1.5,4.4,2.3,6.5c-11.5,4.1-25.6,6.4-36.2-1.3c-9.1,3.4-19.8,5.4-29.5,2.3c-0.6-4.3,2.8-8.1,2.1-12.5   c-0.2-2.5,0.6-4.7,1.6-7.1c9.9,14.2,17.5,0.4,24.7-7.4C464.3,428.2,463.7,430,465.5,430.4z" />
	<path fill="#CFCEDC" d="M435.3,451.9c0.1,0.6,0.1,1.2,0.2,1.7c9.7,3.1,20.4,1.1,29.5-2.3c10.6,7.7,24.7,5.4,36.2,1.3   c0.2,0.5,0.3,1,0.5,1.5c-14.2,5.5-25.5,6.6-39.9,2.3c-8.7,2.9-18.1,2.8-27.2,0.3C433.6,454.9,434.2,453.4,435.3,451.9z" />
	<path fill="#47B776" d="M460.6,462.6c-2.7-2.1-5.9,1.5-8.3-0.6c0.5-1.7,3.2,0.4,3.9-1.4c7.4-4.8,16.1,2.8,24,0.1   c11.1-0.1,22.2-6.9,32.2,0.7C495.5,463.7,477.8,461.2,460.6,462.6z" />
	<path fill="#47B576" d="M420.4,447c4.4-0.4,8.8,0.2,13.6,0c-0.8,2.6-0.3,5-1.5,7.1c-4.1-2-7.6-5.8-12.2-6.5l0,0   C420.3,447.4,420.3,447.2,420.4,447z" />
	<path fill="#1B4329" d="M420.3,447.5c4.5,0.7,8.1,4.5,12.2,6.5c0.5,1.4,1,2.8,1.5,4.3c-0.3,0.3-0.7,0.6-1.2,1   c-0.6-1.4-0.8-2.9-1.3-4.6c-3.7-2-7.1-5.1-11.2-6.4C420.3,448.1,420.3,447.8,420.3,447.5z" />
	<path fill="#DFC5BB" d="M459.9,425.3c-1.4-0.2-1.4-0.2-1.4-1.6c0.4,0.2,0.5,0.8,1.2,0.6c0.4-1.8-0.1-3.2-0.1-5.5   c-0.5,1.4-0.8,2.2-1.1,3.1c0-1.1-0.1-2.1-0.1-3.2c1.2-1,2.3-2,2.8-3.4c0.4,2.1,0.3,4.3,0,6.4c-1.1,1-0.3,2.4-0.7,3.6   C460.3,425.2,460.1,425.3,459.9,425.3z" />
	<path fill="#E8EBEB" d="M443.6,436.1c3.4-0.2,6.2-0.3,9-0.5C450,438.9,448.3,439.1,443.6,436.1z" />
	<path fill="#241E1D" d="M446.9,431.1c-0.5-0.6-0.8-1.4-0.2-1.9c1.2-0.9,0.8-2.1,1-3.2c0.3-0.2,0.5-0.5,0.8-0.7c0.1,0,0.4,0,0.5,0   c0,1.2,0.1,2.4,0.1,3.6c-0.2,0.3-0.5,0.5-0.7,0.8C447.3,429.4,446.9,430.2,446.9,431.1z" />
	<path fill="#553D38" d="M457.6,350.3c0.9-1.4,2.6-1.9,4-3c-0.3,1.5-0.3,1.5-3,4C458.3,350.9,458,350.6,457.6,350.3z" />
	<path fill="#433C39" d="M464.2,424.6c0.1,0.2,0.1,0.4,0.2,0.6c-0.8,0-1.6,0-2.4,0.1c0-0.2,0.1-0.5,0.1-0.7   C462.8,424.6,463.5,424.6,464.2,424.6z" />
	<path fill="#433C39" d="M460.6,423.9c-0.2-0.9-0.2-1.7,0.5-2.3C461.3,422.4,461.6,423.3,460.6,423.9z" />
	<path fill="#433C39" d="M459.9,425.3c0.2,0,0.4-0.1,0.6-0.1c0.1,0.8,0.4,1.7-0.6,2.3C459.9,426.7,459.9,426,459.9,425.3z" />
	<path fill="#1B4329" d="M420.2,448.3c0,0.5-0.1,1-0.1,1.5C419.4,449.3,419.3,448.8,420.2,448.3z" />
	<path fill="#EECABA" d="M447.7,429.6c0.2,0,0.4,0,0.7,0.1c0,0.2,0,0.4,0,0.7C448.1,430.1,447.9,429.9,447.7,429.6z" />
	<path fill="#1B4329" d="M420.4,447c0,0.2,0,0.4-0.1,0.6c-0.2-0.1-0.4-0.2-0.5-0.3C420,447.1,420.2,447.1,420.4,447z" />
	<path fill="#CFCEDC" d="M502.4,454.1c0,0.3,0,0.5-0.1,0.8c-0.2-0.3-0.5-0.6-0.7-0.9C501.9,454.1,502.1,454.1,502.4,454.1z" />
	<path fill="#433C39" d="M461.4,419.6c0-0.3,0-0.5-0.1-0.8c0.2,0.3,0.5,0.5,0.7,0.8C461.8,419.5,461.6,419.5,461.4,419.6z" />
	<path fill="#EECABA" d="M356.2,249.6c-0.3-3.3-1.8-5.5,0.4-8.6c-1.3-1.4-2.6-2.7-4.1-4.3c-0.4-2.4,0.9-5.3,3.7-4.4   c2.2,0.6,4.4-0.7,6.6,0c6.7,2.4,17.1-4.1,22.1,2.8c-2.5,4.2-8,3.3-12.2,5.1c2.1,2.1,4.5,5.6,7.7,5c1.1-0.4,2.1,0.1,3.1,0.6   c5.5,4.1,13.2,2.5,18.6,5.9c-2.3,0-4.5-0.8-5.9,1.9c0.8,0.1,1.2,0.2,1.6,0.2c-1.3,0.5-1.9,2.1-3.5,2c0.1-0.4,0.2-0.8,0.3-1.2   c-3.3,0.8-7.4-0.4-9.7,2.3c3.4,0.8,6.4,0.2,9.2-1.1c6.5,5.3,15.3,3.6,23.3,4.8c1.6-0.9,4.7-2.2,6.8-0.5c-0.3,0.7-0.6,1.2-0.8,1.7   c2.4,1.1,5.6-0.3,8.2,1.1c-0.2,1.2-0.4,2.4-0.6,3.6c-12.3,0.7-26.2-0.9-38.5-3.8c-9.5-4-17.7-9.9-24.8-17.4   c-2.5-3.1-5.4-2.3-8.8-1.8C356.7,243.9,357.5,247.9,356.2,249.6z M366.8,237.8c-3.8,1.1-8-2.2-11.3-0.3c5.9,4.3,10.9,1.9,16.3-0.1   C370.1,237.2,368.2,236.9,366.8,237.8z M377.3,236.4c-1.5-0.6-2.1-0.4-2.5,0.6C375.9,237.5,376.1,237.1,377.3,236.4z M380,234.3   c-0.3,0.2-0.4,0.3-0.5,0.5c0.2,0.2,0.5,0.4,0.7,0.6C380.8,234.9,380.4,234.7,380,234.3z" />
	<path fill="#EBC8B8" d="M362.7,258.3c-1-2.9-2.9-5.9-5.1-8.1c1.1-1.5,1.5-3,1.6-4.9c2.3-0.3,4-0.2,6.2,0.4c1.9,3.4,4.8,5.9,7.8,8.6   C370.3,256.6,366.2,256.9,362.7,258.3z" />
	<path fill="#161414" d="M431.1,266.8c1.6-9.7,6-18.7,8.6-28.1c0.1,1.1,0.5,2.1,1.4,2.9c-2.8,8.7-6.3,17.5-8.7,26.6   c-0.2,0.1-0.4,0.1-0.5,0.2C431.6,267.8,431.3,267.3,431.1,266.8z" />
	<path fill="#B5BCD3" d="M372.7,263.9c3.7,1.2,7.5,4.8,7.2,9.4c-1.3,0.3-1.8-1.1-2.8-1.5c-0.6-1.2-1.1-2.4-1.7-3.7   c-1,0.6-1,0.6-1.3,1.5c-1.1-1.4-1.7-3.2-3.6-3.7C371.2,265.3,371.9,264.6,372.7,263.9z" />
	<path fill="#1A1412" d="M362.6,245.1c-1.1,0.1-2.1,0.2-3.3,0.2c-0.1,2.2-0.7,5-3,5.9c-0.4-2.8,1.5-5.1,2.8-7.4c0.5,0,0.9,0,1.4,0   C361.1,244.2,361.8,244.7,362.6,245.1z" />
	<path fill="#4C3E42" d="M354,260.9c-1.9-0.2-3.6-0.8-5.2-2c0.3-0.2,0.5-0.5,0.8-0.7c1.9,0.5,3.6,1.8,5.8,1.3   C354.9,260,354.4,260.5,354,260.9z" />
	<path fill="#3F4148" d="M369.9,266.2c-1,1-1.7,2.4-3.8,2.9c0.7-1.8,1.7-2.8,2.8-3.9C369.3,265.5,369.6,265.8,369.9,266.2z" />
	<path fill="#EBC8B8" d="M361.9,258.7c0.3-0.1,0.6-0.3,0.9-0.4C362.4,258.4,362.1,258.6,361.9,258.7z" />
	<path fill="#EECBBB" d="M480.1,341.7c-0.4-0.5-0.7-1.1-1.2-1.7c-0.1,0-0.4,0-0.9,0c-1.6-1.6-1.8-3.6-1.4-6.1c1.1,0.3,2,0.6,3.2,1   c0.1-0.6,0.2-1.3,0.3-1.9C481.7,335.5,479.2,338.8,480.1,341.7z" />
	<path fill="#DFC5BB" d="M460.6,413.7c-0.2,0.3-0.3,0.6-0.6,1.1c-1.3-1.5-0.7-2.9-0.9-4c0.8-1.1,1.2-2.1,2.3-2.9c0.4,0,0.9,0,1.3,0   c-0.5,1.9-0.2,4.2-1.5,5.8C461,413.8,460.8,413.8,460.6,413.7c-0.1-0.9-0.1-1.7-0.2-3.2C459.7,412.1,459.2,413.1,460.6,413.7z" />
	<path fill="#433C39" d="M461.2,413.8c0.2-0.3,0.4-0.6,0.7-0.9c0,1.3,0.5,2.6-0.5,3.8C461.2,415.7,461.1,414.7,461.2,413.8z" />
	<path fill="#7789B0" d="M389.9,554.1c0,0.2,0,0.5,0.1,0.7c-3.4,0-6.7,0.1-10.1,0.1c-0.7-0.9-1-1.9-0.7-3.3c1.8-1.7,3.8-3.5,5.6-5.3   c1.4,0,2.5,0,3.7,0C389,548.8,387.4,552.8,389.9,554.1z" />
	<path fill="#313A47" d="M389.9,554.1c-2.5-1.3-0.9-5.3-1.5-7.7c0.5,0,1,0,1.6,0C390,548.9,389.9,551.5,389.9,554.1z" />
	<path fill="#0D0E10" d="M440.4,543.4c0.5,0.2,1,0.4,1.5,0.7c-1.7,1.1-3.5,0.9-5.7,0.6C437.9,543.7,439.1,544.6,440.4,543.4z" />
	<path fill="#CFCEDC" d="M503.1,454.1c-0.2,0-0.5,0-0.7,0c0.2-0.2,0.5-0.5,0.7-0.7C503.1,453.6,503.1,453.9,503.1,454.1z" />
	<path fill="#030707" d="M381.3,556.4c5.9-1.2,13.6-1.2,19.4,0C394.3,556.3,387.8,556.4,381.3,556.4z" />
	<path fill="#EBC9B9" d="M431.8,181.8c-0.5,6.6,2.4,9.6,5.7,15.4c-1.1,17.6-13.4,33.3-23,47.2c-1-0.7-1.9-1.4-2.8-2.1   c0.8-0.4,2-0.7,2.6-1.2c5-12.7,17.3-21.1,20.4-35.2c-0.4-5.4-0.5-11.7-4-16.5c-0.3-1.6,0.9-3.3-0.4-4.8   C430.3,183.4,431,182.6,431.8,181.8z" />
	<path fill="#E2C8BD" d="M445.9,201.4c1-0.3,0.9,1.1,1.6,1.2c-0.9,6.7-3.2,13.4-4.4,20.1c-1-1.5-0.5-3.3-0.6-5l0,0   c1.5-1.9,0.9-5.5,1.4-8C445.8,207.8,446.9,204.2,445.9,201.4z" />
	<path fill="#BAA59C" d="M442.6,217.8c0.1,1.7-0.4,3.5,0.6,5c-0.2,0.5-0.4,1-0.5,1.6c-0.5-1.7-1.1-3.3-1.6-5.1   C441.6,218.7,442.1,218.2,442.6,217.8z" />
	<path fill="#BAA59C" d="M441.9,228.7c-0.1-0.3-0.2-0.7-0.3-1c-0.4-0.1-0.8-0.2-1.4-0.4c0.4-0.9,0.7-1.8,1.1-2.7   c0.5,0.2,0.9,0.3,1.2,0.4C442.7,226.3,442.8,227.6,441.9,228.7z" />
	<path fill="#161414" d="M439.6,238.7c-0.1-0.8,0.1-1.6,0.7-2.2C440.3,237.3,440.8,238.2,439.6,238.7z" />
	<path fill="#161414" d="M440.4,236.5c0.2-0.8,0.5-1.5,0.7-2.3C441,235.1,441.5,236,440.4,236.5z" />
	<path fill="#161414" d="M441.8,239.4c0,0.4,0,0.9,0,1.3c-0.2,0.1-0.4,0.1-0.6,0.2C441.1,240.4,441,239.7,441.8,239.4z" />
	<path fill="#64524E" d="M397.1,168.8c-1.9-1.8-2-2.3-0.3-3.6C397.1,166.5,397.2,167.6,397.1,168.8z" />
	<path fill="#2D2827" d="M434.8,174.6c-0.3,0.2-0.6,0.3-0.8,0.5C434.2,175,434.5,174.8,434.8,174.6z" />
	<path fill="#2D2827" d="M431.9,174.6c-0.1-0.2-0.1-0.4-0.1-0.6c0.2,0,0.4,0,0.6,0.1C432.3,174.2,432.1,174.4,431.9,174.6z" />
	<path fill="#1D1E20" d="M440.5,506.5c0.9,7.5,1.1,16,0,23.5C440.5,522.1,440.5,514.3,440.5,506.5z" />
	<path fill="#ECC9B9" d="M347.5,211.4c-11.5,21.5-4.8,25.6,1.4,46.1C333.6,247,334.2,223.4,347.5,211.4z" />
	<path fill="#070606" d="M347.5,211.4c-13.6,12.3-13.6,36.2,2.1,46.7l0,0.1c-0.3,0.2-0.5,0.5-0.8,0.7c-22.4-10-14.8-44.6,4.2-54.2   c0.3,0.3,0.6,0.5,0.9,0.8C351.8,207.5,349.6,209.5,347.5,211.4z" />
	<path fill="#EAC6B7" d="M419,255.1c-0.8-0.5-1.5-0.9-2.3-1.4c0-1.2,0-2.1,0-3.4c1.8-1.7,3.8-3.4,5.7-5.2c0.1,0.5-0.2,1.2,0.5,1.5   c0.3,0.5,0.6,0.9,1,1.4c-0.5,2.8-3.3,3.7-5.3,5.2C418.8,254,418.9,254.6,419,255.1z" />
	<path fill="#241D1C" d="M371.9,212.1c-3.8-1.7-7.4-3.1-11.4-4.7c-0.5-0.8,0.2-1.2,1.3-1.7c3.9,1.1,7.3,3.6,10.9,5.7   C372.4,211.6,372.1,211.9,371.9,212.1z" />
	<path fill="#1A1615" d="M419,255.1c-0.1-0.6-0.2-1.1-0.4-1.8c2-1.5,4.8-2.4,5.3-5.2c0.1,0,0.4,0,0.5,0   C426.5,251.4,422.6,255.7,419,255.1z" />
	<path fill="#3C2C29" d="M396.1,239.4c-3.1-1.1-6-0.1-8.4-1.9C389.1,235.2,393.5,237.7,396.1,239.4z" />
	<path fill="#423634" d="M353.9,207.7c0.6,2.3-1.6,3.4-3.3,4.9C351.2,209.9,351.3,209.8,353.9,207.7z" />
	<path fill="#1E1514" d="M426.9,250.1c1.4-2.2,1.9-4.1,3.1-5.3C430,248.5,429.8,248.9,426.9,250.1z" />
	<path fill="#A4948D" d="M433.1,234.2c-2.5-1.2-0.6-3.4-0.3-5.4C434.4,230.6,432.8,232.4,433.1,234.2z" />
	<path fill="#282321" d="M445.9,201.4c0.9,2,0.2,3.8-0.5,5.5c-0.3-0.3-0.5-0.5-0.8-0.8C444.9,204.5,444.9,202.8,445.9,201.4z" />
	<path fill="#5F544F" d="M443.9,209.9c0,1.9-0.3,3.8-0.7,5.7c-0.2,0.1-0.4,0.1-0.5,0c-0.2-2-0.6-3.9,0.8-5.7   C443.6,209.9,443.8,209.9,443.9,209.9z" />
	<path fill="#3F2C29" d="M397.9,254c-0.4-0.1-0.9-0.1-1.6-0.2c1-1.7,2.1-2.4,3.7-2C399.6,252.8,398.8,253.4,397.9,254z" />
	<path fill="#554D4A" d="M423.4,241.6c-0.7-1.5,0-2.3,1.2-3.3C425,239.9,424.8,240.9,423.4,241.6z" />
	<path fill="#5F5A55" d="M443.9,209.9c-0.2,0-0.3,0-0.5,0c0.4-1.2,0.8-2.5,1.2-3.7c0.3,0.3,0.5,0.5,0.8,0.8   C445.3,208.1,444.9,209.1,443.9,209.9z" />
	<path fill="#47413E" d="M358.6,204.7c0.4,0.7,0.6,0.9,0.9,1.3c-1.1,0.3-2,0.6-3.1,0.9C356.5,205.5,357.6,205.4,358.6,204.7z" />
	<path fill="#70615B" d="M399.3,253c0.2-0.4,0.5-0.8,0.7-1.2c0.7,0,1.4,0,2.1,0.1c0,0.4,0,0.7-0.1,1.2   C401.1,253,400.2,253,399.3,253z" />
	<path fill="#685A55" d="M432.4,238.6c-1.7-1.7-1.7-1.8,0-2.8C432.4,236.8,432.4,237.6,432.4,238.6z" />
	<path fill="#3F1413" d="M441.1,179.9c1.2-0.6,2.1-0.5,2.6,0.8C442.7,181,441.6,181.4,441.1,179.9z" />
	<path fill="#332B28" d="M423,246.7c-0.7-0.3-0.4-1-0.5-1.5c0.4-0.5,0.7-1.1,1.2-1.8c0.7,1.2,0.4,2.2,0.2,3.3   C423.5,246.6,423.2,246.7,423,246.7z" />
	<path fill="#70534F" d="M349.6,258.2c-0.2-0.2-0.4-0.4-0.7-0.6c-0.1-0.5-0.1-1.1-0.2-1.6c0.4-0.2,0.8-0.4,1.1-0.6   C351,256.3,349.5,257,349.6,258.2z" />
	<path fill="#362322" d="M374.1,212.8c1.1-0.3,2-0.2,2.3,1.3C375,214,375,214,374.1,212.8L374.1,212.8z" />
	<path fill="#BDA098" d="M382.7,219.8c0.8,0.6,1.1,0.9,1.5,1.2c-0.4,0.3-0.6,0.6-1.1,1C382.9,221.3,382.8,220.8,382.7,219.8z" />
	<path fill="#7A6F6A" d="M371.9,212.1c0.2-0.2,0.5-0.5,0.7-0.7c0.8,0.2,1.4,0.4,1.5,1.4l0,0C373.3,212.9,372.5,212.9,371.9,212.1z" />
	<path fill="#B6A39A" d="M404.2,251.6c1.1,0.6,0.7,1.6-0.4,1C403.9,252.3,404,252,404.2,251.6z" />
	<path fill="#3B3835" d="M431.1,239.5c0.9,1.5,1,2.1,0,2.6C431.1,241.4,431.1,240.8,431.1,239.5z" />
	<path fill="#CEB5AB" d="M398,240.6c0.8-0.7,1.4-0.3,1.2,0.5C398.8,240.9,398.4,240.8,398,240.6z" />
	<path fill="#4B3835" d="M423,246.7c0.3,0,0.6-0.1,0.9-0.1c0.2,0.5,0.4,1,0.6,1.5c-0.1,0-0.4,0-0.5,0   C423.6,247.6,423.3,247.2,423,246.7z" />
	<path fill="#382826" d="M352.5,254.7c0.3-0.3,0.6-0.6,1.1-1.2c0.2,1.1,0.1,1.1-0.7,1.5C352.8,254.9,352.6,254.8,352.5,254.7z" />
	<path fill="#BAA59C" d="M442.7,215.5c0.2,0,0.4,0,0.5,0c0,0.8,0.4,1.8-0.6,2.3C442.6,217.1,442.6,216.3,442.7,215.5z" />
	<path fill="#511F1E" d="M380.3,217.3c-0.7,0.5-0.8,0.1-1.1-0.5C379.7,216.2,379.9,216.8,380.3,217.3z" />
	<path fill="#EBC8B8" d="M356.9,250.9c0.2-0.2,0.4-0.4,0.6-0.6C357.4,250.5,357.1,250.7,356.9,250.9z" />
	<path fill="#4D434B" d="M355.9,277.5c-0.2,0.2-0.4,0.4-0.6,0.6c-0.8,0.1-1.6,0.5-2.4,0.1C354,276.6,354,276.6,355.9,277.5z" />
	<path fill="#261618" d="M357.7,274.8c0.9-0.1,2.3-0.7,2.7,0.5C359.5,276,356.3,277.1,357.7,274.8z" />
	<path fill="#332C2A" d="M372,158.1c-1.3-0.8,0.7-0.9,1.3-0.8c0.2,0.2,0.5,0.5,0.7,0.7c-0.1,1.5-0.3,3.1-0.4,4.9   c0.6,0.7,1.5,1.6,2.2,2.4c-0.5,0.3-0.8,0.5-1.1,0.6c-0.8-0.7-1.5-1.4-2.3-2.1C372.4,161.9,373.4,159.6,372,158.1z" />
	<path fill="#473E3B" d="M396.2,156.6c0.9,1.3,0.4,2.3-0.7,3.3c-1.4-0.5-2.5-0.6-4.3-0.7C392.4,157.3,394.1,157.5,396.2,156.6z" />
	<path fill="#4F4541" d="M374.1,165.2c0.3,0.2,0.5,0.5,0.8,0.7c-0.4,1.3-1.6,2.2-1.6,3.6c-0.4-0.5-0.9-1-1.3-1.5   C373,167.4,373.6,166.3,374.1,165.2z" />
	<path fill="#7B6E65" d="M377.6,178.3c0.3-0.3,0.6-0.6,0.9-0.9c0.4,0.5,0.9,1,1.3,1.5c0,0.5,0.1,0.9,0.1,1.4l-0.1,0.1   C379.1,179.7,378.4,179,377.6,178.3z" />
	<path fill="#BEC3B8" d="M374.1,158c-0.2-0.2-0.5-0.5-0.7-0.7c0-0.2,0-0.5,0-0.7c0.5,0.5,1.1,0.9,1.6,1.4   C374.7,157.9,374.4,158,374.1,158z" />
	<path fill="#36312E" d="M365.8,185.1c0.5,2.1,1.6,4.2,1.2,6.9C364.9,189.7,365.3,187.4,365.8,185.1z" />
	<path fill="#5F544E" d="M364,179.6c-0.5-1.1-1.1-2.1-0.4-3.6c0.4,0.3,0.7,0.6,1,0.9C364.6,177.8,365.3,179.3,364,179.6z" />
	<path fill="#82746E" d="M365.8,182.6c-0.4-0.7-0.8-1.2-1.1-1.8C366.2,180.5,366.3,180.6,365.8,182.6z" />
	<path fill="#4C3A36" d="M354.6,184.6c-0.5,0-0.6,0.1-1.1-0.3c0.4-0.3,0.8-0.7,1.1-1C354.6,183.7,354.6,184.1,354.6,184.6z" />
	<path d="M353.1,186.7c-0.1-0.1-0.2-0.3-0.3-0.4c0.1-0.1,0.2-0.1,0.3-0.2C353.1,186.3,353.1,186.5,353.1,186.7z" />
	<path fill="#443733" d="M373.5,176.6c-0.1-0.9-0.1-1.7-0.3-3.2c3,3.5,3.9,7.7,5.1,12c-1,0.5-0.5,1.5-0.7,2.2   C376.6,183.8,375.9,180,373.5,176.6z" />
	<path fill="#2E2724" d="M377.7,187.6c0.2-0.7-0.3-1.7,0.7-2.2c0,0.8,0,1.6,0,2.4C378.1,187.8,377.9,187.7,377.7,187.6z" />
	<path fill="#7B6E65" d="M379.9,180.3c0.2,0.1,0.3,0.2,0.5,0.3c-0.1,0.1-0.2,0.2-0.3,0.3c-0.1-0.2-0.2-0.3-0.3-0.5L379.9,180.3z" />
	<path fill="#B7BDD5" d="M354.2,203.5c-0.3,0.2-0.7,0.4-1,0.6C353.6,203.9,353.9,203.7,354.2,203.5z" />
	<path fill="#81766F" d="M372,158.1c1.4,1.6,0.4,3.9,0.5,5.8c-0.7-0.3-0.5-2-1.9-1.4c-0.1-0.5-0.2-0.9-0.2-1.4l0.2-0.2   c0.1,0,0.4,0,0.5,0C372.6,162.2,371.5,158.7,372,158.1z" />
	<path fill="#1F1A18" d="M370.5,161.6c0.3,1.4,0.5,2,0.9,4.1c-0.9-1-1.3-1.5-1.6-1.9c0.1-0.6,0.1-1.2-0.5-1.5c0-0.5,0-0.9,0-1.4   c0.2,0,0.4,0,0.5,0C370,161.1,370.2,161.4,370.5,161.6z" />
	<path fill="#4F4844" d="M369.2,162.3c0.6,0.4,0.6,0.9,0.5,1.5C369.1,163.5,369.1,162.9,369.2,162.3z" />
	<path fill="#1E1817" d="M371.8,158.8c0.1,0.6,0.5,3.3-0.7,2c0.1-0.7,0.1-1.4,0.2-2.1C371.4,158.7,371.6,158.8,371.8,158.8z" />
	<path fill="#BCA9A0" d="M371.3,158.7c-0.1,0.7-0.1,1.4-0.2,2.1c-0.1,0-0.4,0-0.5,0c0-0.5-0.1-0.9-0.1-1.4   C370.7,159.2,371,158.9,371.3,158.7z" />
	<path fill="#81766F" d="M370.5,159.4c0,0.5,0.1,0.9,0.1,1.4l-0.2,0.2c-0.2-0.1-0.4-0.1-0.6-0.1l0,0   C370,160.4,370.2,159.9,370.5,159.4z" />
	<path fill="#4D67CA" d="M386.7,396.6c0.4,0.4,0.7,0.7,1.2,1.1c-2,3.7-2.8,8.4-5.6,11.5c-0.6-1.7,0.4-3.5,1-5.1   C384.6,401.7,384.6,398.7,386.7,396.6z" />
	<path fill="#384B94" d="M377.8,412.3c-1.4,6.2-2.1,14.1-5.7,19c1.5-6.6,3.7-13.1,5-19.7C377.3,411.9,377.5,412.1,377.8,412.3z" />
	<path fill="#171D39" d="M386.4,374.2c0.3,0.1,0.7,0.1,1.2,0.2c-0.5,3.5-3.3,6-4.9,9.1c-0.3-0.3-0.5-0.6-0.8-0.9   C383.4,379.8,384.9,377,386.4,374.2z" />
	<path fill="#25305F" d="M381.9,382.6c0.3,0.3,0.5,0.6,0.8,0.9c-1.7,3.1-2.8,6.6-5,9.4C378,389.2,380.1,385.8,381.9,382.6z" />
	<path fill="#465EB9" d="M377.8,412.3c-0.2-0.2-0.5-0.5-0.7-0.7c1-3.2,2-6.4,3.2-10.1C380.8,405.5,379.6,409,377.8,412.3z" />
	<path fill="#455DB7" d="M363.6,426.5c-1-3.7,0.9-6.8,1.4-10.3C365.7,418.9,365.7,418.9,363.6,426.5z" />
	<path fill="#2A386E" d="M392.9,336.7c0,0.9-0.3,1.6-1.4,1.3c-0.3-2.2-3.3-5.2-1.6-7.1C391.9,332.3,390.9,335.2,392.9,336.7z" />
	<path fill="#2F3C77" d="M384.2,355.4c-1.5,2.3-3.7,4.1-5.8,5.9c0-0.3,0-0.6-0.1-0.9C380.3,358.7,381.6,356,384.2,355.4L384.2,355.4   z" />
	<path fill="#4559B0" d="M378.4,360.4c0,0.3,0,0.6,0.1,0.9c-1.2,1.4-2.5,2.7-3.7,4.1c-0.2-0.1-0.3-0.2-0.5-0.3   C374.7,363,377.1,362,378.4,360.4z" />
	<path fill="#3A4E99" d="M377.7,392.1c0.4,1.8-0.2,3.6-1.8,4.7C376.2,395.1,376.3,393.4,377.7,392.1z" />
	<path fill="#2F3C77" d="M384.2,355.4c0.1-0.2,0.2-0.3,0.3-0.5C385,355.4,384.4,355.3,384.2,355.4L384.2,355.4z" />
	<path fill="#28376A" d="M347.9,360.1c0.2,11.3-0.9,24.3-5.2,34.6C344.3,383.1,346.7,371.8,347.9,360.1z" />
	<path fill="#1B2446" d="M354.1,349.6c-0.1-6.8-1-15,1.7-20C356.7,336.2,354.7,343,354.1,349.6z" />
	<path fill="#3C519D" d="M341,404.4c-0.2-0.2-0.5-0.5-0.7-0.7c0.8-2.1,1.5-4.2,2.3-6.3c0.1,0,0.3,0.1,0.4,0.1   C342.9,399.8,342.3,402.6,341,404.4z" />
	<path fill="#1C2243" d="M338,335.9c0.7-0.9,0.9-2.4,2.5-2.9c0.4,1.8-1.1,2.5-1.7,3.6C338.5,336.4,338.3,336.2,338,335.9z" />
	<path fill="#36498D" d="M338,335.9c0.3,0.2,0.5,0.5,0.8,0.7c-0.5,1.2-1.5,1.9-2.6,2.5C336.5,337.9,337.1,336.8,338,335.9z" />
	<path fill="#354486" d="M359.8,326.8c-0.9,0.5-1.1,0.5-1.3-0.4C359,325.8,359.3,326.3,359.8,326.8z" />
	<path fill="#141211" d="M464.1,373.3c0.8-2.8,1.5-5.7,2.3-8.5c1.5-0.8-0.1-2.8,1.3-3.6c2.2,4.8-0.4,9.5-3,13.6   C464.5,374.2,464.3,373.8,464.1,373.3z" />
	<path fill="#E9C6B7" d="M470.7,339c-3.9,1.6-4.6,1.7-7,0.4c1.5-2.9,5-2.7,7.7-2.7C471,337.4,469.4,338.5,470.7,339z" />
	<path fill="#282220" d="M467.7,361.2c-1.4,0.8,0.2,2.8-1.3,3.6c0.4-3.3-1.5-8,0.3-10.7C467.9,356.5,467.9,356.7,467.7,361.2z" />
	<path fill="#726661" d="M448.9,425.3c-0.1,0-0.4,0-0.5,0c0.1-1.9-0.7-3.6,0.7-5.3C450.2,422.2,449.9,423.8,448.9,425.3z" />
	<path fill="#57433F" d="M470.7,339c-1.5-1.2,1.6-2.8,2.7-3.8C473.7,337.3,472.4,338.4,470.7,339z" />
	<path fill="#39322F" d="M458.5,421.8c0.3-0.8,0.6-1.7,1.1-3.1c0,2.3,0.5,3.7,0.1,5.5c-0.7,0.3-0.9-0.4-1.2-0.6   C458.5,423.1,458.5,422.4,458.5,421.8z" />
	<path fill="#544945" d="M449.7,418.8c-0.6-1.4-1.4-2.9,0.6-4.4C450.6,416,451.1,417.7,449.7,418.8z" />
	<path fill="#4E4744" d="M464.1,373.3c0.2,0.5,0.4,1,0.6,1.5c-0.5,0.9-1,1.8-1.8,3.3C462.6,375.8,463.5,374.6,464.1,373.3z" />
	<path fill="#A08E86" d="M442.9,340.5c1.2,0,1.8,0,2.4,0C445.2,342.4,444,341.7,442.9,340.5z" />
	<path fill="#7E6D68" d="M457.1,387.1c0.1-1.5,0.5-2.2,1.6-2.7C459.5,385.7,458,386,457.1,387.1z" />
	<path fill="#7B6C67" d="M461.4,408c-0.3,0.2-0.5,0.5-0.8,0.7c-0.1-1-0.4-2.1,0.2-3.2C461.6,406.2,461.2,407.2,461.4,408z" />
	<path fill="#625C57" d="M461.8,381.7c-0.5,0.5-1,1-1.7,1.7C459.9,382.1,460.2,381.4,461.8,381.7z" />
	<path fill="#7C5F5A" d="M456.2,388.9c-0.2-0.2-0.3-0.3-0.5-0.4c0.4-0.4,0.6-0.9,1.1-0.3C456.6,388.4,456.4,388.6,456.2,388.9z" />
	<ellipse fill="#A38E86" cx="452.3" cy="412.7" rx="0.3" ry="1" />
	<path fill="#A99891" d="M461.3,403.2c0.1-0.5,0.1-0.9,0.2-1.4c0.1,0,0.3,0,0.4,0c0,0.5,0.1,1,0.1,1.4   C461.8,403.2,461.5,403.2,461.3,403.2z" />
	<path fill="#321817" d="M449.1,341.1c0.6,0,1.2,0,1.7,0c0,0.1,0,0.3,0,0.4c-0.6,0-1.2,0-1.7,0C449.1,341.4,449.1,341.3,449.1,341.1   z" />
	<path fill="#BEA79F" d="M455.2,340.5c-0.3,0.5-0.5,0.3-0.8,0.1C454.6,340.3,454.9,340.5,455.2,340.5z" />
	<path fill="#EECABA" d="M448.4,429.6c0.2-0.2,0.4-0.5,0.6-0.7C448.8,429.2,448.6,429.4,448.4,429.6z" />
	<path fill="#403936" d="M351.7,472.1c0-3.3,0-6.7,0-10.1c3.3,1.5,0.4,7.2,0.6,10.3C352.2,472.3,352,472.2,351.7,472.1z" />
	<path fill="#49423F" d="M351,482.9c0.3-2.8,1-5.5,2.1-8.2c1,3-0.6,6.1-1.3,9C351.5,483.3,351.2,483.1,351,482.9z" />
	<path fill="#322826" d="M362.8,448.2c0.8,2.1,0.8,2.1-0.2,4.6C360.9,451.4,361.6,449.7,362.8,448.2z" />
	<path fill="#B49D93" d="M338.1,529.7c-0.8-1.3-1.1-2.6-0.4-4.1c0.4-0.1,0.7-0.1,1.1-0.2C338.7,527,339.3,528.6,338.1,529.7z" />
	<path fill="#7F6F69" d="M338.8,535.4c-0.3,0-0.7,0-1.2,0c-0.2-1.4-0.6-2.8,1.2-3.5C338.8,533.1,338.8,534.3,338.8,535.4z" />
	<path fill="#BEA8A0" d="M345,503.3c-1.2,1.5-2,2.3-2.8,3.3C342,504.5,342.1,504.4,345,503.3z" />
	<path fill="#695E5A" d="M350,490.1c0.8,1.7-0.1,2.7-0.7,3.9C348.9,492.5,348.9,492.5,350,490.1z" />
	<path fill="#BBA399" d="M338.8,524c-1.1-0.6-0.7-1.6-0.6-2.7c0.5,0.2,0.9,0.4,1.3,0.5C339.4,522.6,339.8,523.5,338.8,524z" />
	<path fill="#9C8B84" d="M351,482.9c0.2,0.2,0.5,0.5,0.7,0.7c0.1,0.9,0,1.7-1.1,1.8C350.2,484.5,350.2,483.6,351,482.9z" />
	<path fill="#85746E" d="M348.2,497.3c-0.3,0.7-0.7,1.4-1.1,2.3C346.4,498.2,346.6,497.4,348.2,497.3z" />
	<path fill="#856D67" d="M348.8,458.4c0.1-0.4,0.2-0.8,0.4-1.9c0.2,1.1,0.3,1.5,0.4,1.9C349.4,458.4,349.1,458.4,348.8,458.4z" />
	<path fill="#4B65C6" d="M395.8,349.1c1.1-2.4-1.5-5,0.5-7.4c0.5,0.8,0.9,1.5,1,2.5c2.9-3.4,4.7-8.3,9.6-9.3   C403.1,338.8,401.3,348.1,395.8,349.1z" />
	<path fill="#13182F" d="M397.8,337.3c2.3-6.5,6.5-12.9,10-15.1c-2,5.8-7.7,10.2-9.3,16.6C397.8,338.5,398,337.8,397.8,337.3z" />
	<path fill="#0F1223" d="M395.8,349.1c0.9-0.4,2.1,0.1,2.8-0.9c1.9,0,4.1-0.7,5.7,0.6c-2.5,1.4-7.7,0.5-8.5,3.7c-0.2,0-0.5,0-0.7,0   C395,351.3,394.7,350,395.8,349.1z" />
	<path fill="#354586" d="M412.3,347.5c-1.7,0.2-3.4,0.4-5.1,0.6c0-0.2,0.1-0.5,0.1-0.7c1.7-0.9,3.5-1.5,5.9-1.2   C412.8,346.8,412.5,347.1,412.3,347.5z" />
	<path fill="#131931" d="M393.4,352.7c-1.7-2-1.3-3.7-1-5.4C392.9,348.8,393.7,350.3,393.4,352.7z" />
	<path fill="#303E7A" d="M412.3,329.7c-1.1,1.2-1.7,3-3.5,4c0.9-2.4,1.3-3,3.4-5.1C412.3,329,412.3,329.3,412.3,329.7z" />
	<path fill="#253161" d="M397.8,337.3c0.1,0.6,0,1.3,0.7,1.5c-0.5,1.4-0.9,2.9-1.4,4.3c-0.3-0.5-0.5-0.9-0.8-1.4   C397,340.3,396.8,338.6,397.8,337.3z" />
	<path fill="#1C2549" d="M393.6,339.6c0.5,0.7,0.9,1.4,1.3,2.1c-0.2,1.1,0.5,2.6-1.1,2.8C393.2,342.8,393.5,341.2,393.6,339.6z" />
	<path fill="#262447" d="M407.3,347.4c0,0.2,0,0.5-0.1,0.7c-1,0.2-1.9,0.5-2.9,0.7c-0.9-0.8-1.9-0.7-3-0.7   C403.2,347.2,405.2,347.4,407.3,347.4z" />
	<path fill="#4255A8" d="M422.6,331.3c-1,1.2-2.1,1.7-3.2,2.6C419.8,332.1,419.8,332.1,422.6,331.3z" />
	<path fill="#14162C" d="M412.3,329.7c0-0.3-0.1-0.7-0.1-1c0.7-1,1.4-2,3.1-2.7C415.1,327.9,413.5,328.4,412.3,329.7z" />
	<path fill="#292524" d="M338.1,544.2c-0.3-0.1-0.6-0.1-1.1-0.2c0.2-1.8,0.4-3.4,0.5-5.1c0.2,0,0.3,0,0.5,0   C338,540.7,338.1,542.4,338.1,544.2z" />
	<path fill="#7D6860" d="M346.2,440.8c0.9,1.3,0.3,2.4-0.6,3.5C345,443,346.2,442,346.2,440.8z" />
	<path fill="#121222" d="M407.2,364.9c-3.9-1.6-7.4-3.3-11.5-5.2c3.8-2,8.6,2.8,12.2,4.4C407.6,364.4,407.4,364.7,407.2,364.9z" />
	<path fill="#252F5C" d="M401.4,355.3c0-0.2,0-0.4,0-0.6c4.4,0,8.8,0,13.2,0C410.3,356.1,405.9,355.1,401.4,355.3z" />
	<path fill="#5273E1" d="M396.5,351.2c1.7-1.1,3.6-1.6,5.6-1.7c0.1,0.2,0.3,0.3,0.4,0.5c-1.9,0.9-3.9,1.8-6,2.7   C396.5,352.3,396.5,351.8,396.5,351.2z" />
	<path fill="#2A3664" d="M396.4,366.2c1.7,0.5,3,1.7,4.5,2.9c-2,0.6-3.5-1.4-5.3-2.1C395.9,366.8,396.2,366.5,396.4,366.2z" />
	<path fill="#293669" d="M407.2,364.9c0.2-0.3,0.5-0.5,0.7-0.8c1,0.2,1.6,0.9,2.2,1.9C408.8,366.1,408,365.6,407.2,364.9z" />
	<path fill="#0D080F" d="M396.4,366.2c-0.3,0.3-0.5,0.5-0.8,0.8C394.4,366.4,395.3,365.7,396.4,366.2z" />
	<path fill="#59637B" d="M485,513.9c-1.3,0.7-0.1,2.3-1.3,3.4c0.4-7.1-0.3-13-2.2-19.8c0.6,0.2,1,0.4,1.4,0.5   C483.8,503.4,484.7,508.6,485,513.9z" />
	<path fill="#313642" d="M485.2,527.6c-0.1,2-0.2,4-0.3,6c-0.1,0-0.2,0-0.3,0c-0.3-3.7-0.6-7.4-0.8-11c0.4,0,0.9,0,1.3,0.1   C485.1,524.3,485.1,525.9,485.2,527.6z" />
	<path fill="#40485A" d="M481.5,487.2c0,1.5,0,3,0,4.5c-0.8-2.2-1.9-4.4-1.4-7.1c0.5,0.8,0.9,1.4,1.3,1.9   C481.5,486.8,481.5,487,481.5,487.2z" />
	<path fill="#7586AC" d="M485,511c-1-1-0.6-2.4-0.6-3.7C485.4,508.4,485.1,509.8,485,511z" />
	<path fill="#2F6A44" d="M467,462.6c8-1.7,16.5,0.1,24.5,0.1c-4.6,1.7-10.3,0.2-15.2,0.6C473.8,461.9,469.9,463.1,467,462.6z" />
	<path fill="#0F140D" d="M467,462.6c3,0.5,6.8-0.7,9.3,0.7c-6.5-0.4-13.6,0.8-19.9-0.5C460.2,462.5,463.3,462.6,467,462.6z" />
	<path fill="#1E341F" d="M495.3,462.1c3.8,0,7.6,0,11.3,0c0.2,0.2,0.5,0.4,0.7,0.6c0,0.2,0,0.5,0,0.7c-1.3-0.2-2.5-0.3-4-0.5   c-0.2,1.3-0.3,2.5-0.5,3.7c-0.1,0-0.2,0-0.2,0c-0.2-1.2-0.3-2.3-0.5-3.7C499.9,462.4,497,463.6,495.3,462.1z" />
	<path fill="#22653B" d="M469.4,475.6c0-3.3,0-6.4,0-9.5C472.2,466.7,470.3,473.3,469.4,475.6z" />
	<path fill="#194D2C" d="M452.8,471.6c0-3.1,0-5.5,0-7.9C455.3,464.1,454.2,469.1,452.8,471.6z" />
	<path fill="#14331E" d="M507.4,463.4c0-0.5-0.1-0.9-0.1-1.4c0.5,0,1,0,1.5,0.1c0.7,1.4,2.3,0.1,3.3,1.2c-1.1,0.2-2,0.3-3.1,0.5   c-0.1,1.2-0.2,2.3-0.2,3.5c-0.1,0-0.2,0-0.4,0C508,466,508.6,464.3,507.4,463.4z" />
	<path fill="#22663C" d="M422.4,458.6c0.2-2.3-0.4-4.8,0.4-7c0.6,2.3,0.3,4.6,0.4,6.9C422.9,458.6,422.6,458.6,422.4,458.6z" />
	<path fill="#1F5B36" d="M472.5,469.8c-0.6-1.6-0.3-3-0.3-5C472.9,467.2,472.9,467.2,472.5,469.8z" />
	<path fill="#174428" d="M453.2,472.5c0,1.1,0,2.3,0,3.4C452.5,474.8,452.5,473.6,453.2,472.5z" />
	<path fill="#47B776" d="M451.6,463.1c-0.3,0.1-0.6,0.4-0.8,0C451.1,463,451.4,462.7,451.6,463.1z" />
	<path fill="#282A34" d="M484.4,522.5c-0.2,0-0.5,0-0.7,0c0-1.3,0-2.6,0-4.6C484.6,519.9,484.4,521.2,484.4,522.5z" />
	<path fill="#020202" d="M477.9,482.1c-0.6,0-1.3,0.1-1.5-0.7l-0.1,0.1C476.9,481.7,477.4,482,477.9,482.1L477.9,482.1z" />
	<path fill="#020202" d="M477.9,482.2c0.1,0.1,0.2,0.2,0.2,0.2C478.1,482.4,478,482.3,477.9,482.2   C477.9,482.1,477.9,482.2,477.9,482.2z" />
	<path fill="#B8BED6" d="M372.6,280.4c-2.5-1.6-7.1-6.5-3.7-9.2C371.8,271.7,376.7,278.4,372.6,280.4z" />
	<path fill="#B8BED6" d="M370.4,287.9c-4,1.5-7.2-4.2-6.2-7.7C366.6,278.3,371,285.7,370.4,287.9z" />
	<path fill="#1D1A1D" d="M389.8,279.7c2.1-2.3,3.4-6.5,6.4-7.6c0.8,3.1-4.2,5.6-5.6,8.3C390.4,280.2,390.1,279.9,389.8,279.7z" />
	<path fill="#39363D" d="M374,269.7c0.3-0.9,0.3-0.9,1.3-1.5c0.6,1.2,1.1,2.5,1.7,3.7c-0.2,0.2-0.5,0.4-0.7,0.6   C375.6,271.5,374.8,270.6,374,269.7z" />
	<path fill="#9298AA" d="M376.3,272.4c0.2-0.2,0.5-0.4,0.7-0.6c1,0.3,1.5,1.7,2.8,1.5c0.4,0.6,0.8,1.1,1.4,2   C379,275,377.6,273.9,376.3,272.4z" />
	<path fill="#48464D" d="M366,269.5c-1.1,1.9-1.4,2-3.3,2.3C363.2,270.4,364,269.8,366,269.5z" />
	<path fill="#838796" d="M389.8,279.7c0.3,0.2,0.5,0.5,0.8,0.7c-0.4,1-1.1,1.7-2.5,2.2C388.4,281.3,388.8,280.3,389.8,279.7z" />
	<path fill="#A5ADC0" d="M369.1,279.7c0.7,0.4,1.3,0.8,1.3,2.1c-0.9-0.5-1.5-0.9-2.1-1.3C368.6,280.3,368.8,280,369.1,279.7z" />
	<path fill="#8B8895" d="M369.1,279.7c-0.3,0.3-0.5,0.5-0.8,0.8C367.3,279.4,368.4,278.5,369.1,279.7z" />
	<path fill="#67626C" d="M371.8,281.5c1.2,0.6,1.7,0.9,2.4,1.3C373,283.6,372.5,283.1,371.8,281.5z" />
	<path fill="#49434A" d="M386.5,285.8c-0.6,0.5-1.1,0.9-1.7,1.4C385,285.7,385,285.7,386.5,285.8z" />
	<path fill="#504B52" d="M380.1,298.4c-0.6-1.1-0.4-1.7,0.7-2.1C381.6,297.2,380.5,297.6,380.1,298.4z" />
	<path fill="#534B52" d="M382.4,292c-0.5-0.4-0.3-0.7,0.1-1.1C382.8,291.3,382.7,291.6,382.4,292z" />
	<path fill="#B7BDD5" d="M358.9,276.1c0.5-0.3,1-0.5,1.5-0.8C360.2,276.2,359.5,276.2,358.9,276.1z" />
	<path fill="#B6BBD2" d="M373.3,314.4c-0.2-0.3-0.4-0.5-0.5-0.8C373,313.9,373.2,314.1,373.3,314.4z" />
	<path fill="#0A0C18" d="M379.2,332.3c0,3.6-1.4,6.4,0.2,9.3C375.9,340.5,375.7,333.3,379.2,332.3   C379.2,332.3,379.2,332.3,379.2,332.3z" />
	<path fill="#35A65F" d="M507.3,462c0,0.2,0,0.4,0,0.6c-0.2-0.2-0.5-0.4-0.7-0.6C506.9,462,507.1,462,507.3,462z" />
	<path fill="#1F1715" d="M368.4,238.7c-3.9,1.9-8.4,2-12.9-1.1c1.3-1.2,2.5-0.8,3.9-0.4C362.2,238.5,366.1,236.8,368.4,238.7z" />
	<path fill="#281C1A" d="M394.3,256.1c-2.9,1.3-5.8,1.9-9.2,1.1c2.3-2.7,6.3-1.5,9.7-2.3c-0.1,0.4-0.2,0.8-0.3,1.2L394.3,256.1z" />
	<path fill="#7A5952" d="M368.4,238.7c-0.2-0.8-1-0.6-1.6-0.8c1.4-1,3.3-0.6,5-0.3C370.7,237.9,369.5,238.3,368.4,238.7z" />
	<path fill="#161A18" d="M377.3,236.4c-1.3,0.7-1.4,1.1-2.5,0.6C375.2,236,375.8,235.8,377.3,236.4z" />
	<path fill="#EBC8B8" d="M359,243.8c-0.4,0.8-0.7,1.6-1.5,2.2C357.6,244.1,357.6,244.1,359,243.8z" />
	<path fill="#7F4F4A" d="M380,234.3c0.4,0.4,0.8,0.6,0.2,1.1c-0.2-0.2-0.5-0.4-0.7-0.6C379.6,234.7,379.8,234.5,380,234.3z" />
	<path fill="#443D3B" d="M460.6,413.7c-1.4-0.6-0.8-1.6-0.2-3.2C460.4,412,460.5,412.9,460.6,413.7L460.6,413.7z" />
	<path fill="#4F4844" d="M369.8,160.9c0.2,0,0.4,0,0.6,0.1c0.1,0.2,0.1,0.4,0.1,0.6C370.2,161.4,370,161.1,369.8,160.9z" />
</g>
</svg>