<?xml version='1.0' encoding='utf-8'?>
<svg xmlns="http://www.w3.org/2000/svg" version="1.2" baseProfile="tiny" id="Layer_1" x="0px" y="0px" viewBox="0 0 900 600" overflow="visible" xml:space="preserve">
<g id="c">
	<path display="inline" fill="#010101" d="M596.5,215.6c-0.3,2.8-0.6,5.6-0.9,8.3c5.4,8.4,12.7,12.4,21.4,16.6   c9.8,6.7,13.4,20,9.3,31.1c-1.9,6.7,0.6,13.7-2,20.5c3.1,8.4,3.1,17.5,4.4,26.3c-0.6,0-1.2,0-2,0c-1.7-7.6-1-14.7-4.1-22.1   c-1.1,5.3-3.6,9-8.3,11.1c-0.3-0.3-0.6-0.6-1-0.9c9.4-8,11-34.2,4-44.1c-8.3-7.9-7.2-21.8-16.2-29c8.1,13.5,0.7,39.3-18.1,27.9   c-15.8-10.3-25.9-27.3-42.9-36.2c-1.2,0.6-2.5,1.3-4.3,2.2c20.3,15.2,23.7,50.4,8.2,70.1c3.6,1.9,6.9,3.6,10.2,5.2   c-0.1,0.6-0.1,1-0.2,1.4c-4.8,0.9-8.7-1.7-12.7-3.9c-1.9,3.2-4.8,5.4-8.5,6.4c0.4,0.6,0.6,1.1,0.9,1.5c-0.3,0.3-0.6,0.6-0.9,0.9   c-1-1-2.1-2-3.3-3.2c-4.4-0.5-7.5,15.8-12.7,19.5c2.6,8.6,13,17.4,8.4,26.9c0.1,3.3,1.2,6.5,0.3,9.5c-1.7,2.9,1,5.7,1.1,8.7   c12.4,1.2,24.3,0,36.2-2.8c1.4,1.8,3,3,5,3.9c1.4,2.1,4.3-0.5,5.7,1.6c-4.4,2.3-8.5-1.1-12.2-3.2c-1.9,0.3-3.9,0.6-6.1,1   c0.9,0.7,1.8,1.2,2.6,1.8c-0.3,0.6-0.7,1.1-1.3,1c-3.1-1.1-6.1-0.5-9.1,0.3c-7.6,1.5-18.5-5.6-22.3,4c-0.9,0-1.5,0-2.2,0   c-0.9-17.8,2.5-35.1-7.5-51c-5.7,3.4-7.9,9.6-11.7,14.7c-2.9,5.5,1.7,12.1,1.3,18.1c1,10.5-3.6,20.7-4,31.1   c-0.5,5,1.5,11.2-0.7,15.6c-4.3-22,5.3-44-1-66.3c0.8-0.1,1.4-0.1,2.2-0.2c13.7-17.1,24.4-32.8,29-54.5c2.8-1.2,6.6-5.5,9.6-3.5   c-1.2,2.3-3.7,3.4-5.7,5.2c2.4,2.7,4.8,5,7.5,7.2c11.7-14.2,10.8-38.3,1.4-53.7c-2.2-0.4-4.3-0.7-6.5-1c-0.5-0.5-0.9-0.9-1.4-1.4   c2-0.5,3.7,0.2,5.7-0.7c-2.7-3.2-3.5-6.8-6.7-9.4c-8.4,4.3-14.6,10.5-22.7,14.8c-12.2,5-14.8,19.3-14.4,31   c-4.3,3.4-4.2,9.5-6.4,13.9c-3.3,3.1-0.5,8.1-2.6,11.3c-2.8-1.2-3.4,18.9-5.8,21.1c-0.2-0.3-0.5-0.6-0.7-0.9   c1.6-10.3,0.6-21.5,5.6-30.9c7.1-8.2,5.5-18.5,7.7-28.3c2.4-14.2,16.7-17.8,26.2-25.7c9.5-12.5,28.1-12.8,37-25.6   c-0.3-1.4-0.8-2.7-1.9-3.9c1.5-7.6-2.7-15-3.5-22.5c-1.9-5.7-0.2-11.9-1.9-17.5c-2.2-4.9,2.4-8.7,2.7-13.5c0.2-3,4-3.2,6.1-4.5   c2.2-1.4,3.3,0.3,5.3,0.6c0.5-0.6,1-1.3,1.5-2c-1.3-1.5-2.4,0-3.5-0.2c-0.6-0.7-1.2-1.4-1.7-2.1c-1-0.1-1.7-0.2-2.6-0.3   c0.8-1.7-0.6-4.7,2.1-4.7c0.6-0.7,1.3-1.5,1.9-2.2c1.7,0.2,0.2,3,2.3,2.9l1.5-2.2c3.6-0.4,6.4-2.1,8.7-4.7c2,0.3,0.8,1.8,1.3,2.7   c2.2,0.7,2.2-1.9,4-2.6c4.3,0.5,9.9-0.6,14.1,1.2c3.5-0.4,6.9-2.1,10.6-1.4c0.3,0.5,0.5,1,0.8,1.4c2-0.3,2.8-2.1,4.5-3.1   c1.5,2.2,0.4,4.4,0.4,7.2c0.9-0.4,1.5-0.7,2.3-1.1c1.3,0.4,1.6,2.2,2.6,2.6c1.3,0.4,1.9,1.3,2.6,2c-0.1,0.4,0,0.8-0.1,0.9   c-1,1,0.6,2.8-1,3.7c-2.5,1.5-5.6,2.6-7.5,4.8c-0.4,4.2,1,8.7-0.9,12.5c-1.4-3.7-0.7-7.3-1.2-11.2c-6.9,2.7-13.7-2-20.6,0.1   c-0.3,0.5-0.5,1-0.7,1.4c-1.7-2.3-3.8-4.1-6.7-5.2c-0.8,0.8-1.6,1.7-2.8,2.8c1.9,0,3.3,0,4.7,0c0.8,1.3,1.5,2.6,2.2,3.8   c-1,1.1-2,2.1-2.9,3.1c-1.3,0-2.5,0.2-3.5,0.4c-2.8,5.9-7.6,9.9-9.1,16.3c-0.9,2.2-1.6,4.7-3.7,6.1c0-0.5-0.1-1-0.1-1.5   c1-1,1.8-2.1,1.5-3.4c-0.9-0.3-1.6-0.4-2.3-0.6c0.9-5.6-4.5-7.8-7.4-2.6c-3.6,2.6,1.4,6.6,1.7,9.9c-0.7-0.7-1.5-1.3-2.3-2.1   c0,0.8,0,1.6,0,2.3c0.7,0.5,1.2,1.1,2.1,0.9c0.1-0.4,0.1-0.7,0.2-1.1c0.3,0,0.6,0,0.9,0c0.2,0.1,0.4,0.2,0.6,0.1l0,0   c0.1,0.4,0.2,0.8,0.3,1.1c0.8,0.2,1.5,0.4,2.6,0.7c-0.8,0.9-1.3,1.5-1.8,2.1c0.1,9.4-0.7,17.5,0.8,27.1c-1-0.7-1.5-1.1-1.9-1.3   c-5.2,4.7-10.3,8.7-16.3,12.2c18.3,6.9,33.2,41,53.1,36.1c11.6-3.1,5.8-27.4-1.4-33.6c-0.5-3.5,0-6.8,0.1-10.4   c-3.8-0.3-7.7,0.4-11-1.8c0.1-0.6,0.2-0.9,0.2-1.3c4.3,0.7,8.9,0.1,12.9,1.4C596.5,214.9,596.5,215.3,596.5,215.6z M561.5,160.1   c0.2,1.5,0.2,1.5,1.6,0.8c0.1,0.5,0.2,1,0.3,1.5c0.9-0.2,1.7-0.4,2.4-0.6c0.3,0.7,0.6,1.3,0.9,2c1.1-0.5,2.2-0.7,2-2   c-0.6-0.6-1.1-1.2-1.6-1.7c2.5-0.8,2.6-0.8,1.8-3.2c-0.7,1.2-1.2,2.2-1.8,3.2c-1.4,0-2.8-0.1-4.1,0.8c-0.2-0.7,0.7-1.5,0-2.4   C562.5,159.2,562,159.7,561.5,160.1c-0.5-1.4-0.5-1.4-2.2-1.3c-0.4,1.6-0.4,3.2-0.1,5.1C560,162.5,560.7,161.3,561.5,160.1z    M623.8,268.1c4.6-12.5-5.1-24.8-16-30.1c3.2,4.8,5.7,18.4,10.6,19C619.3,261.2,622.7,263.8,623.8,268.1z M539.2,297.3   c-2.9-2-5.1-7.7-8.7-7.2c-0.1,4.3-1.4,8.9-1.3,12.9C533.9,303.3,537.1,301.3,539.2,297.3z M589.2,145.1c-1.9,2.9,7.9,3.7,10.1,5.3   c-0.7-1.2,0.9-2.1-0.3-3.2c-0.8,0.2-1.7,0.4-2.5,0.6C594,146.9,591.7,146,589.2,145.1z M570,149.6c4-1.9,5-2.8,4.6-5.4   C573.1,146.2,570.3,146.4,570,149.6z M615.2,142c-3-1.7-4.9,2.4-1.8,3.3C614,144.2,614.6,143.2,615.2,142z M572.8,159.5   c0.1,0.1,0.2,0.1,0.4,0.2c1.1-1.3,1.9-2.4,3.1-3.9c-0.8-0.5-1.4-0.9-2.3-1.4C573.7,156.5,573.4,157.7,572.8,159.5z M588.3,140.7   c1.4-1.3,2.9-1.6,3.9-3.1c-1.5-0.3-2.3-0.2-3.8,0.1C588.4,138.7,588.3,139.4,588.3,140.7z M573.4,139.7c-0.2-0.8,1-1.2,0.3-2.3   c-1.5,0.7-3,1.3-5.1,2.3C570.4,139.7,571.6,139.7,573.4,139.7z M565,174.1c2.3-1.5,2.3-1.5,2.6-3.9   C566.2,171,565.4,172.1,565,174.1z M606.1,138.4c1.1-1.2,1.8-1.9,2.4-2.5c-0.7-1.3-1.3-1.1-2.2-0.4   C606.3,136.2,606.2,137,606.1,138.4z M592.5,145.7c0.7-1.5,0.8-1.2,0-2.8C592.2,144,591,144.5,592.5,145.7z M595,142.5   c0.2,0.2,0.4,0.4,0.6,0.6c0.5-0.4,0.9-0.8,1.4-1.2c-0.1-0.2-0.2-0.3-0.4-0.5C596,141.8,595.5,142.2,595,142.5z" />
	<path display="inline" fill="#010101" d="M573.6,373.1c-1.4-2.1-4.3,0.5-5.7-1.6c9.5,0.5,19.6-3.8,28,2.5c1.3,1,3,1.9,4.8,1.4   c2.9-21.8,8.5-43,10.4-64.8c1.6,0.9-0.3,3.2,1.5,4c0.3,7.4-0.2,14.5-1.6,21.8c0.6,0.5,1.2,1.1,1.7,1.6c-0.3,0.3-0.6,0.6-1,1   c-0.5-0.1-1-0.3-1.7-0.5c-5.2,14.6,7.9,27.3,16.6,37.4c2.9,5.3,13.6,2,19.4,4.5c-1.4-5.6-6.9-11.7-4.2-17   c5.8,21.2,11.8,19.2,29.1,27.4c1.9,2.6,7.1,3.7,6,7.9c4.2,4.8,4,10.3,2.4,16c-2.4-2.6,1.1-8.1-1.6-10.5c-4.1-5.2-6.7-16.7-15.3-13   c-21.3-12-40.6-15.8-52.3,10.1c-5.4,16.4-23.6,27.7-22.4,46.2c11.2-2.4,22-4,32.9-7c3.6-4.5,9.6-4.8,14.5-7.1   c3.8-1.1,6.3-4.4,10.6-3.8c-0.7,1.3-1.4,2.6-2,3.8c-0.7-0.2-1.4-0.5-2-0.7c-8.1,3.9-16.7,6.9-24.7,11c4.2,13.2-1.5,13.7-1.8,23.1   c1.5,4.9,2,9.7,1.8,14.7c0,5.9-4.7,10.5-6.9,15.8c-2.3,11.4-3.2,23.4-8.4,34.1c-8,12.9-7.9,31.1-27.9,26.9   c-30.2-6.3-57.3-24.3-87.2-31.5c-3.2,5.9-8.2,2.6-11.1,10.8c-0.5,0.1-1.1,0.5-1.5,0.4c-3.9-1.2-10.1,1.2-11.5-4   c4-1.2,7.1,1.6,11,1.9c0.4-0.8,0.8-1.3,1.3-2.3c-3.9-0.5-7.4-1.3-9.3-4.9c0.1-0.7-0.2-1.7,1.5-1.9c2.4,3.6,6.6,3.4,10.9,3.9   c1.4-2,5-0.3,6.2-3.5c-12,0.2-25.9,0.2-26.4-15.4c-2.6-7,5.4-8.5,6.8-14.9c-8.9-6.6-18.1,3.2-27.4,1.5c-0.3-0.5-0.5-0.9-0.8-1.4   c22.7-11.1,42.3,3.5,64.6,6.5c17.8,2.5,35.2-2,52.3,4.8c-4.3-16.8-6.3-34.3-5-51.7c-1.2-1.9-2.3-3.8-3.5-5.7   c-7.5-2.4-11.1-10-17.6-13.6c-3.5-2.6-7.9-4.8-9.3-9.2c-3.1-4.9-3.3-10-2.6-15.5c-0.5-7.9-4.4-17.3,0.1-24.5   c0.3,5.6-0.2,11.7,1.9,17.4c-2,26.6,4.3,26,26.8,37.7c0,0.4,0,0.9,0,1.6c13.3,8.4,25.9,16.4,41.7,18.8   c-6.9-16.9,2.9-35.4,13.8-48.8c8.1-10.4,10.5-24.7,23-31.5c0.6-0.4,1.6-0.6,1.3-2c-9,0.1-17.4-4-26.4-2.9   C590,373.4,582.7,370.4,573.6,373.1z M471.9,522.7c-6.1-5.8-7.8-14-4.2-21.7c-14.1,3.8-6.3,26.1,6.8,22   C473.5,522.9,472.7,522.9,471.9,522.7z M524.8,535.8c6.1,3.1,12.7,6.2,19.5,7.3c0,0.2,0,0.5,0,0.7c-0.7,0.4-1.3,0.8-2.2,1.4   c14.4,2.5,39.5,22.1,49.1,3.8c9.6-22.9,24.2-49,12.1-73.4c-1.7-0.6-3-1.7-3.9-3.1c-4.9-1.4-9.6-1.5-14.3-0.9   c-0.7-0.2-1.5,0-1.8-0.9c4.2-2.9,9.8-1.2,14.5-1.5c8.1,1.3,8.4,11.6,13.1,16.9c-0.2,0.9-0.4,1.9-0.7,3.1c9.6-9-3.9-23.5,5.7-32.6   c-0.6-3.7,1.8-9.6-2.3-11.8c-7.2,16.9-25.1,26.2-42.2,17.7c-13.8-2.7-24-15.6-35.7-20.7c4,6.4,16.4,8.5,15,17.7   c-2.5,6.8,1.4,13.4,0.3,20.2c-0.2,3.7,1.1,7.4,1.6,11.1c1.6-0.2,3.1-0.5,4.5-0.7c0.3,0.3,0.7,0.6,1,0.9c-11.9,2.6,4.1,17.5-4,26.2   c2.8-13.9-36.2-9.5-45.6-11.3c-12.5,0.7-23.5-5-35.8-6.3c-0.7,1.4-2.4,2.4-2.4,4.4c-0.8,0.6-0.7,1.5-0.7,2.4   c-0.6,1.3-1.7,3.1-0.2,4.2c2.3,4.5,3.8,16.2,10.9,14.1c14.7-2.1,27.9,7.3,41.3,12c0.6,1,1.5,0.8,2.4,0.8c0.2,0.1,0.3,0.2,0.5,0.4   c-0.1-0.2-0.2-0.3-0.4-0.5C524.3,536.7,524.6,536.2,524.8,535.8C524.8,535.7,524.8,535.8,524.8,535.8z M623.9,377.9   c-4.7-8.7-13.1-14.5-15.3-24.8c-0.1-0.5-0.3-1.1-1.3-1c-1.1,7.9-4.2,15.9-3.3,23.8C610.5,376.9,616.9,378.1,623.9,377.9z    M609.6,446.7c-6.7-0.4-13.6,4.2-20.9,3c-1.4,0-2.7,0.2-3.7,1.4C586.2,472.8,603,455.8,609.6,446.7z M469.9,495.9   c-1.3,0.1-1.9,0.1-2.8,0.2C468,496.9,468.6,496.5,469.9,495.9z" />
	<path display="inline" fill="#4B65C5" d="M585.9,435.7c-1,9.5-5,18.5-0.2,27.4c-15.8-2.4-28.5-10.4-41.7-18.8c0-0.7,0-1.2,0-1.6   c-22.5-11.7-28.7-11.1-26.8-37.7c-1.8-5.9-2.2-12.4-1.6-18.1c3.2-1.7,4.4-5.1,7.5-7.6c0-0.2,0.1-0.8,0.1-1.4l-0.1,0.1   c0.7,0,1.3,0,2.2,0c2.4-6.9,9.2-5.1,15-4c0.8,1.3,2.6,2.3,2.4,4c-4.4-2.6-9.4,1.7-8.8,6.6c1.8-3.9,4.4-6.1,8.8-5.9   c-0.4,2.4-1.1,4.7-1.3,7.8c4.1-4.8,8.8-8.5,15.3-10.1c-2.7,3.5-8.8,5.9-9.1,10.5c-1.7,0.6-6.2,4.2-5.4,6.2c0.6,0.1,1,0.2,1.4,0.2   c-2.8,2.8-8.8,2-10.3,5.7c3.4-0.4,6.4-2,9.5-3.1c-0.2,4.7,2.4,8.4,4.9,12.1c-1.4,3.8-2.3,0.4-2.9,2.3c2.8,2.1,5.9,4.2,9.4,4.9l0,0   c0.4,0.9,1.7,2.5,2.4,0.9c1.6,0.9,3,1.9,3.3,3.9c-2.1,0.8,3.4,2.8,2.9,4.4c-3.7,4-9.3,5.4-13.3,8.9c5.7-1.7,11.3-4.3,15.2-9   c2.8,0.5,6.4,4.3,8.8,2.5C577.2,430.4,582.1,432.2,585.9,435.7z M539.6,416.3c-2,0.4-4.1,0.7-6.9,1.3c4.7,0.6,6.9,0.4,10.8-1.3   C541.9,416.3,540.7,416.3,539.6,416.3z M532.2,400.8c-2.9-1.8-5.1-3.5-7.2-6.4c0.2,5,3,5.3,6.3,7.4c2.4,1.5,2.4,1.5,4.2,1.3   C534.3,402.2,533.2,401.5,532.2,400.8z M528.2,415.4c1.7-0.4,2.6-1.3,3.9-2.4C529.8,413.3,529.8,413.3,528.2,415.4z" />
	<path display="inline" fill="#FBDFD3" d="M586,152.9c0.2-0.5,0.5-0.9,0.7-1.4c6.9-2.1,13.8,2.6,20.6-0.1c0.5,4.3-0.1,8.3,1.6,12.3   c2.7,7.5-12.5,3.3-9.1,15c1.2-0.5,0.7-1.5,1-2.1c0.4-0.6,0.9-1.3,1.3-1.9c2.2,1,4.3-0.1,6.5-0.5c0,0.5,0,0.9,0,1.4   c-4.3,11.5-3.4,29-12.1,38.9c-6-1.9-14,0.3-18.8-4.5c-2.6-5-8.4-7.4-12.6-11.4c-1.9-3.6,0.1-9.5-2-12.3l0,0   c-0.4-1.2-0.8-2.5-1.2-3.6c-1.1-0.2-2-0.3-2.9-0.5l0,0c0.9-0.5,1.8-1,2.5-1.8l0,0c0.5-0.4,0.9-0.7,1.3-1c0.5,0.3,1,0.6,1.5,1   c2.1-1.4,2.8-3.9,3.7-6.1c1.5-6.4,6.3-10.4,9.1-16.3c1.1-0.2,2.3-0.4,3.5-0.4C582,155.8,583.7,153.9,586,152.9z M598.7,201.8   c1.1-1.7,1.9-2.9,3.8-3.9c-3.9-2.9-9.1,0.4-13.7-0.9c-0.4-0.1-0.9,0.4-1.7,0.7c1,2.3,3.4,2.6,4.4,4.8c-0.1,0.5-0.2,1-0.4,1.5   c2.8,1.8,6,1.3,8.6-0.2C599.3,202.9,599,202.3,598.7,201.8z M589.1,170.7c-3.1,0.9-7-0.3-9.2,2.3c3.7,0.5,7.1,1.4,10.7,0.7   c0.5-2.1,2.3-2.4,4.3-2.3c-0.4-1.2-0.7-2.2-1-3.1c-4.8-2-12.5-3.1-15.9,1.5c2.1,0.2,3.5-1,5.4-1.6c1.8,1.6,3.4,2,5.6,1.8   C589,170.2,589,170.5,589.1,170.7z M595.6,191.2c1.4-1.6,3.7,0,5.3-1C603.7,186.3,591.2,188.1,595.6,191.2z" />
	<path display="inline" fill="#010101" d="M641.6,432.6c0.7,0.2,1.4,0.5,2,0.7c-0.1,11.9-10.5,21.3-9.5,33.7   c8.3,27.5,7.1,57.1,12.6,84.7c2.7,0,5.2,0.5,7.7-0.5c1.9,0.4,3.7,0.6,5.8-0.3c2.5-3.8,3.1-8.5,7.2-11.4   c-5.5-30.3,5.6-60.7,8.7-90.7c4.6,21.5-19.9,82.2,0.6,94.6c-0.1,10,9.8,16,17,21.5c5.8,17.4,37.9,9.5,33.4,26.7   c-32.4,14.1-67,5.3-100.2,0.4c3.8-9.7,4.1-21.1,8.1-31c1.8-4.6-0.2-9.6,3.2-13.8c1.3-0.4,2.9-0.8,4.5-1.3   c-3.9-17.3-3.5-35.2-5.8-52.7c-2.8-9-5.2-17.9-5-27.4C628.2,453.1,642.3,444.2,641.6,432.6z M653.3,556.1c0.5-0.4,0.9-0.9,1.6-1.5   c-4.4,0.2-7.9,1.1-11.7-0.7c-1.6-2,0.7-3.7-0.2-5.7c-1.5-0.4-2.6,0-3.6,1.2c-0.6,13.2-7.3,25.5-8,38.9c10,5.6,20.9,3.3,31.3,5.3   c19.5,7.7,42.4,2.5,61.7-3.8c0.4-12.5-17.5-5-31.1-19.9c-2.8,1.1-5.5,2.4-8.9,1.6c2-2.5,5.1-2.7,7.7-4.3c-0.5-0.6-0.9-1-1.2-1.4   c-4.5,1.9-8.8,3.6-13.3,5.5c0.7-5.2,6.8-5.2,9.8-8.1c-1.1-0.9-2.2-1.6-3.1-2.4c-4.7,1.7-8.9,5.6-13.6,5.8c1.9-5,6.9-5.7,10.4-8.4   c-0.9-0.8-1.7-1.5-2.5-2.2c-4.4,2.1-7.8,4.6-11.6,7.5c-0.1-5.8,5.4-7.5,9-10c-1.3-4.8-1.5-9.5-5.9-12.9   C663.5,544.6,664,561.8,653.3,556.1z M631.8,591.4c-0.2-0.8-0.9-0.8-1.5-1.2c-0.1,0.3-0.3,0.6-0.4,0.9   C630.6,591.3,631,592,631.8,591.4z" />
	<path display="inline" fill="#FBDFD3" d="M641,365.2c0.3,5.6,3.1,9.8,5,15.2c-4.7-0.2-8.8-2.3-13-2.5   c-8.3-12.2-17.5-23.9-21.2-38.2c2.8,1.3,6.9,4.4,9.1,0.6c-5.9-8.6-5.4-18.6-5.1-28.4c-0.9-1.1-1.5-1.9-2.2-2.6   c0.3-0.8,0.6-1.2,0.7-2c4.7-2.1,7.2-5.8,8.3-11.1c3,7.4,2.4,14.4,4.1,22.1c0.7,0,1.3,0,2,0c0.1,0.3,0.1,0.7,0.2,1   c-0.3,0.2-0.6,0.5-0.9,0.7c-2.7-0.1-2.5,3.1-3.3,4.9c-1.3,1.1-0.4,2.7-0.9,4c-0.5,2-2.6,4-1.8,6c3.8-3,2.5-10.3,6-13.9   c8.7,7.8,4.5,19.6,9.7,28.6C638.3,355,638.5,360.4,641,365.2z" />
	<path display="inline" fill="#EDCABA" d="M482.4,320.2c2.7-6.5,2.8-14,4.6-20.8c1.3-2,2.9,3.9,4.2,4.6c-4.2,1.7-1.1,8.2-3,11.7   c-3.5,9.7,0.2,19.4,2,28.8c-4.1-1.3-3.8-2.8-6.6-5.4c-11.5,22,2,44.9,3.8,67.5c0.5,14.8,7.4,33.2-1.5,47.8   c-1.3-0.7-0.5-3.1-2.6-2.4c0.3-0.6,0.6-1.2,0.9-1.8c0.4,0.2,0.9,0.4,1.3,0.6c3-5,1-11.2,1.7-16.8c-1-1.7-0.5-3.4,0-4.5   c-0.8-2.5-1.4-4.5-2-6.5c0.6-0.7,1-1.2,1.6-1.8c-3-7-3.4-14.5-5.8-21.8c0.2-0.5,0.4-1.1,0.5-1.4c-2.6-14.8-8.1-29.4-7.2-44.6   c4.7-8.2,1.6-14.2,9.8-24c-3.3,0-3.3,3.3-5.3,4.5C478.7,329.7,481.6,324.8,482.4,320.2z" />
	<path display="inline" fill="#070606" d="M467.8,537.4c2.6-0.6,5.2,0.6,7.6,0c-1.3,2.2-1.2,4.6-0.6,7.1c0.3,1.8-0.8,4.1,0.8,5.4   c3.4,5,11.7,11.6,4.4,17.3c-9.7-2.2-21.6,3.2-29.5-4.9c-8.1-5.8-6.1-9-7-18c-0.1-17.2,3.9-9.6-8-23.2c0.2-0.8-0.3-1.9,0.7-2.4   c1.7,3.6,5.2,5.8,7.8,8.7c7.9,23.4-12.5,38.9,34.9,36.7c3.9-3.5-3.8-11.9-7.5-13.1c0.2-1.3,0.3-2.5,0.5-3.6c-2.1-1-4.8-0.5-6.3-2.7   c0.4-0.4,0.6-0.7,0.8-1c1.8,0.3,3.7,0.6,5.8,0.9c0-0.9-0.1-1.5-0.1-2c-2.1-0.1-3.9-0.2-5.7-0.3c-0.7-0.6-1.7-1-1.3-2.4   c2.8-0.8,5.9,1.2,8.1-1.4C471.1,538.1,469.5,537.7,467.8,537.4z" />
	<path display="inline" fill="#080707" d="M474.4,365c2.6,11,5,21.9,7.3,33c-0.1,0.3-0.3,0.9-0.5,1.4c2.4,7.2,2.8,14.8,5.8,21.8   c-0.6,0.7-1,1.2-1.6,1.8c0.6,1.9,1.3,4,2,6.5c-0.5,1.2-1.1,2.9,0,4.5c-0.7,5.6,1.3,11.8-1.7,16.8c-0.4-0.2-0.8-0.4-1.3-0.6   C490.2,421.2,471.9,393.4,474.4,365z" />
	<path display="inline" fill="#130E0D" d="M508.5,448.7c0.1,2.6,1.7,4.9,0.8,7.5c-0.2,0.5,0.3,1.2,0.5,1.9c1.4,0.1,2.7,0.3,4.2,0.4   c0.7,1.5,0,3,0.2,4.1c-0.5,1.7-2.6,2-2.5,3.8c-2.6,3.9-8.5,1.8-12,3.7c-3.4-0.6-6.2-1.9-7.7-4.7c-1.5-0.5-2.8-0.9-4.1-1.4   c-1.4-2.4-3.1-4.5-3.8-7.2c0.3-0.3,0.6-0.6,0.8-0.9c1.7,1.2,3.8,8.1,5.8,6.6c-0.8-2.4-3.3-4.4-3.8-6.6c0.5,0,0.9-0.1,1.3-0.1   c2.9,3.7,4.4,8,7.7,11.3c-1.2-4-3.9-7.8-5.3-12.1c5.1,0.1,4.4,13.4,9.7,11.9c-1.1-4.6-2.1-9-3.2-13.5l0,0c0.3-0.3,0.5-0.6,0.8-0.9   c0.2,0,0.5,0,0.7,0c2,4.4,2.5,9.2,3.7,13.9c4.5,1.1,6.8-2.2,9.7-3.8c0.1-1.2,0.2-2.1-0.7-2.6c-1.6,0,0.4,2.4-1.9,1.9   c-0.8-2.5-1.7-5.2-2.5-7.8c1.9-2.1-1.5-5.1,0.8-7.4C508,447.6,508.3,448.1,508.5,448.7z" />
	<path display="inline" fill="#0E0C0B" d="M508.5,448.7c-0.3-0.6-0.5-1.1-0.8-1.7c1.4-3.9,1.9-4.8,3.5-6.4c1.2,0.6,0.4,1.6,0.5,2.4   c-0.8,0.6-0.8,1.3-0.1,2.3c4.9,0.8,5.3,8.7,10.6,8.5c0-1.6,0-2.9,0-4.2c-5.3-4-4.8-11.6-9.6-15.7c-9.1-6.7-12-16.5-12.1-27.4   c1.2-0.6,0.6-1.7,0.9-2.6c3.9,30.8,6.2,15.2,16.9,34.7c1.1,6.9,7.2,10.5,7.2,17.8c-7.4,2.6-9.6-7.2-15.4-9.8   C509.5,447.2,509,448,508.5,448.7z" />
	<path display="inline" fill="#090808" d="M636.4,347.8c-2.6-9.2-0.7-19.3-8.4-26.7c0-0.3,0-0.7,0-1c0.3-0.2,0.6-0.5,0.9-0.7   c0.2,0.2,0.4,0.2,0.6,0.1c10.9,11.3,10.1,29.2,12.4,43.8c-0.9,0.3-0.7,1.1-0.8,1.8C637.5,361.1,639.4,349,636.4,347.8z" />
	<path display="inline" fill="#0E0C0C" d="M482.4,320.2c-0.9,4.5-3.7,9.4-3.5,13.8c2-1.2,2-4.6,5.3-4.5c-3.7,5.4-6.6,10.2-7.4,16.8   c-0.6,0.6-1.2,1.2-1.8,1.7c-0.2-0.1-0.3-0.1-0.5-0.1c-1.8-9.7,3-20.1,7.2-28.5C482,319.6,482.2,319.9,482.4,320.2z" />
	<path display="inline" fill="#0A0A0A" d="M677,455.5c-0.2-2.3,0.4-4.8-0.8-6.8c0.4-6.6,1.9-13.3,2.4-19.8c-1.7-2.8-0.8-5.7-0.7-8.6   C685.8,430.4,676.8,444,677,455.5z" />
	<path display="inline" fill="#1C1A19" d="M602.8,202.3c1.1-8.6,3.9-19.3,5.8-26.7c1.8,9.4-2.2,19.5-5,28.4   C602.8,203.7,603,202.9,602.8,202.3z" />
	<path display="inline" fill="#151415" d="M436.2,518.6c-1.1,0.6-0.6,1.6-0.7,2.4c-2-5-5.5-22,0.8-24.3c0.3,0.5,0.5,0.9,0.8,1.4   c-0.5,0.2-0.9,0.4-1.5,0.6C435.4,505.5,435.9,511.9,436.2,518.6z" />
	<path display="inline" fill="#150F0E" d="M600.4,172.3c3.4-4.7,11.8-6.4,8.2,1.9c-2.1,0.4-4.2,1.4-6.5,0.5   C601.6,173.8,600.1,173.7,600.4,172.3z M607.6,171c-1.4,0.3-2.5,0.6-3.6,0.8c0,0.1,0,0.3,0,0.4c1.2,0.1,2.3,0.1,3.5,0.2   C607.6,171.9,607.6,171.7,607.6,171z" />
	<path display="inline" fill="#2B2827" d="M475.1,348c0.6-0.6,1.2-1.2,1.8-1.7c-0.2,3.8-0.6,5.3-2.4,7.2c0.6,6-0.6,12.3-0.9,18.3   c-1.4-6.9-0.9-14.1-0.5-21.1c0.3-0.3,0.6-0.6,0.9-0.9c0.2,0.1,0.3,0.1,0.5,0.1C475.5,351.2,475.3,348.6,475.1,348z" />
	<path display="inline" fill="#333333" d="M558.9,141.4c-0.1,0.5-0.2,1-0.4,1.6c0.8,0.1,1.6,0.2,2.6,0.3c0.5,0.6,1.1,1.4,1.7,2.1   c1.1,0.2,2.2-1.3,3.5,0.2c-0.5,0.7-1,1.4-1.5,2c-3.7-2.1-5.6-0.4-9.3,1.1c-0.3-1.5,0.8-2.7,1.2-4c0.4,0.4,0.8,0.9,1.3,1.5   c0.4-0.5,0.7-1,1-1.4c-1-1-1.7-0.9-2.4-0.1c-0.2-0.1-0.4-0.3-0.6-0.4C556.9,143.1,557.4,141.7,558.9,141.4z" />
	<path display="inline" fill="#363333" d="M602.8,202.3c0.2,0.6-0.1,1.4,0.8,1.7c-2.3,3.6-2.2,10.9-7.1,11.6c0-0.4,0-0.8-0.1-1.2   C600.3,211.8,600.6,206.2,602.8,202.3z" />
	<path display="inline" fill="#292626" d="M679.5,422.6c-4.2-5-0.4-12.6-1.8-18.6c2.7,2.5-0.8,7.9,1.6,10.5   C679.4,417.2,679.4,419.9,679.5,422.6z" />
	<path display="inline" fill="#332A2A" d="M566.3,136.7l-1.5,2.2c-2.1,0.1-0.5-2.6-2.3-2.9c-0.6,0.7-1.2,1.4-1.9,2.2   c0.2-1.7-1.7-2.3-2.1-4C561.9,131.5,563.1,136.7,566.3,136.7z" />
	<path display="inline" fill="#383231" d="M609.5,170.1c0-1.3-0.7-1.9-1.9-1.9c2.5-1.9,1.8-3.2,1-5.6c1.1-1.2,0.8-2.8,0.9-4.2   C610.3,162.3,612.6,166.5,609.5,170.1z" />
	<path display="inline" fill="#1D1720" d="M523.2,377.9c0,0.6-0.1,1.3-0.1,1.4c-1.8,1.9-3.3,3.5-4.9,5.1c-0.3-0.3-0.6-0.6-0.8-0.9   C519.3,381.7,520.1,377.3,523.2,377.9z" />
	<path display="inline" fill="#2D2625" d="M485,456c-0.3,0.3-0.6,0.6-0.8,0.9c-1.1-1.5-0.7-3.3-0.7-4.9C486,451.3,485,454.7,485,456   z" />
	<path display="inline" fill="#FBDFD3" d="M677.8,451.1c-0.2-1.7-0.5-3.5,0.6-5.1C678.3,447.7,679,449.7,677.8,451.1z" />
	<path display="inline" fill="#393747" d="M517.4,383.5c0.3,0.3,0.6,0.6,0.8,0.9c-0.5,1.2-1.2,2.2-2.6,2.5   C516.3,385.8,516.9,384.7,517.4,383.5z" />
	<path display="inline" fill="#EDCABA" d="M475.1,348c0.2,0.6,0.5,3.1-0.7,1.7c0-0.6,0.1-1.2,0.1-1.9   C474.7,347.9,474.9,347.9,475.1,348z" />
	<path display="inline" fill="#B8CACA" d="M598,215.4c0.3-0.2,0.6-0.5,0.9-0.7c-0.2,0.4-0.3,0.8-0.5,1.1   C598.3,215.7,598.2,215.6,598,215.4z" />
	<path display="inline" fill="#EDCABA" d="M473.9,349.7c-0.3,0.3-0.6,0.6-0.9,0.9C472.9,350,473.3,349.7,473.9,349.7z" />
	<path display="inline" fill="#FBDFD3" d="M630.5,320.4c-0.3-0.3-0.7-0.6-1-0.9C629.8,319.8,630.2,320.1,630.5,320.4z" />
	<path display="inline" fill="#B8CACA" d="M599,214.7c0.2-0.3,0.5-0.6,0.7-0.9C599.4,214.1,599.2,214.4,599,214.7z" />
	<path display="inline" fill="#CCD2E9" d="M611.1,310.6c-1.9,21.9-7.4,43.1-10.4,64.8c-1.9,0.5-3.5-0.4-4.8-1.4   c-9.7-8.9-24.7,3.3-33-6.4c-8.1,1.4-16.9,3.7-24.7,1.7c0.7-0.8,1.3-1.7,2.1-2.5c0-12.3-0.3-25.1-4.1-36.6c8.8,0.8,8.1-4.7,1.2-7.4   c-0.5-1.7-1.9-3-1.9-5c0.8-1.2,1.5-2.5,3.3-2.3c4.3,3.4,5,4,9.8,2.4c0.8,1,0.9,1,1.5,0c-1.3-0.9-2.6-1.9-4-2.6   c-0.9-2.6-3.1-4.5-4.7-6.7c1.1-1.4,2.1-2.5,3.1-3.6c-0.9-2.1-2.4-2.7-4.3-2.6c0.4-0.7,0.9-1.3,1.4-2.2c8.7,5,19.5,6.1,29,5.5   c1.3,0.9,2.7-0.2,4,0c0.7-0.9,1.5-1.8,2.2-2.8c-1.1-0.8-2.1-1.5-3.1-2.2c-8.9,0-18.2-3.2-26-7.4c10.6-20.9,8-51.5-11.6-66   c1.8-0.9,3.1-1.6,4.3-2.2c17.1,8.9,27.2,25.9,42.9,36.2c17.1,10.5,25.4-10.5,19.6-24.6c0.3-0.3,0.5-0.5,0.8-0.8   c4,4.5,5.6,10.4,7.6,15.9c1.4,6.8,8.5,10.7,9.5,17.4c1.2,12.4,2.5,28.1-7.2,37.3c-0.6,0-1.2,0.1-1.8,0.1   C610.9,308,610.9,309.2,611.1,310.6z M589.8,301.5c6.4,2.3,13.1,3.4,19.7,3.8c-1.1-2.3-3.1-2.3-5.4-2.3c-0.3-1.2-0.5-2.2-0.8-3.1   c-3.1-1.9-5.5-3.5-8.4-5.7c-0.4-1.9,0.8-4.3,1.1-6.1c-3.8-2-4.5,10.4-8.6,12.2c-0.9,0.9-2.3,1.4-2.8,3.2   C586.9,304.5,588,302.6,589.8,301.5z M567,327.8c2.9-0.5,8.6-2.9,13.8-5.6c1.4-3.7,5.7-5.2,6.7-9.3c-0.5-0.3-0.8-0.5-1.4-0.8   C582,320.6,573.5,322,567,327.8z M589.3,356.7c3.1-5.2,5.3-12.8,0.5-17.2C588.2,345.2,589.8,350.5,589.3,356.7z M590.8,337.2   c1.6-4.9,4.5-12.1,0.6-15.6C591.7,327.3,590.5,331.6,590.8,337.2z M601.8,319.2c-2.3-4.5-4.6-6.3-7.9-6.1   C596.7,315,598.7,319.1,601.8,319.2z M588.9,361.8c-1.8,1.5-2.5,4.2,0.1,5.2C588.6,365,589.4,363.5,588.9,361.8z M564.6,328.8   c-1.6,0.9-1.6,0.9-2.7,2.6C564.4,331.4,565.1,330.8,564.6,328.8z M556.9,338.2c1.2-1.3,2-1.7,1.9-3.5   C555.9,336.2,555.9,336.2,556.9,338.2z" />
	<path display="inline" fill="#FBDFD3" d="M511.7,443c-0.1-0.8,0.7-1.8-0.5-2.4c-1.6,1.6-2.1,2.5-3.5,6.4c-2.5,2.5,2.3,7.1-2.1,7.9   c-2.4-1.6-4.9-2-7.6-2.1c-0.3,0.3-0.5,0.6-0.8,0.9l0,0c-2.3,0.7-5.7,0-7.4,1.6c-0.3,0.8-1,0.7-1.7,0.8c-0.8-0.4-1.7-0.8-2.3-1.6   c8.8-14.6,2-33,1.5-47.8c-1.8-22.6-15.3-45.5-3.8-67.5c2.8,2.7,2.5,4.2,6.6,5.4c-1.8-9.4-5.5-19.1-2-28.8c1.9-3.5-1.1-10,3-11.7   c0.9,0.6,1.5,1.6,2,2.5v-0.1c-2.1,0.4,0.9,3.3,0.8,4.9c0.1,0.8-0.7,1.9,0.8,2.3c1.1-1.1,1.1-1.1,0.1-2.5c0.1-0.4,0.2-0.8,0.4-1.7   c1,1.6,1.3,1.9,2.4,3.2c3.7-12.3-5.6-16.2,6.3-29.2c3.9,2.7,8.3,4.7,10.6,9.1c1.8-2.6-2.4-3.8-3.5-5.7l-0.2,0.1   c0.1-0.3,0.1-0.6,0.2-0.9c2-2.5-1.8-6.6-2.4-9.5c-6.4-14.2-3-21,3.1-33.7c8.1-4.4,14.3-10.5,22.7-14.8c3.2,2.6,3.9,6.2,6.7,9.4   c-3.2,1.1-6.2,0.4-9.6,0.9c0.8,1.6,2,1.5,3.2,1.2c2.9-0.2,5.6,0.6,8.6,1c8.9,14.5,9.9,35.8,1.1,50.4c-2.4-1.6-4.9-4.8-5.1-7.6   c0.3-0.5,0.6-0.9,0.9-1.4c0.6-0.2,0.9-0.5,0.5-1.4c-1-0.1-2.2-0.3-3-0.4c-1-1.1-1.8-2-2.9-3.2c-1.1,2.1-1.8,3.6-3.5,5   c-2.3,0.5-2.7,0.8-3.3,3.3c0.6-0.3,1.2-0.6,1.7-0.9c0.3,0.3,0.6,0.7,0.8,1c-4.5,21.7-15.2,37.4-29,54.5c-0.8,0.1-1.4,0.1-2.2,0.2   c8.9,30.4-13.1,69.8,13.1,93.7c4.8,4.1,4.3,11.7,9.6,15.7c0,1.3,0,2.6,0,4.2c-0.4-0.1-0.9-0.2-1.3-0.3   C519.4,449.3,516.8,443.2,511.7,443z M497.9,419.6c0.3,1,0.4,2.1,1.7,2.7c1-1.6-0.7-5.5-2.9-5C497.1,418.2,497.5,418.9,497.9,419.6   z M516.7,245.5c-1.7,1.4-1.7,1.4-2.1,3c1.3-1.7,7.1-3,5.5-5.2C519.1,244,517.9,244.8,516.7,245.5z M497.4,443.7   c-0.9-1.3,1-2.4,0.3-3.9c-2,0.4-0.9,2.6-1.3,4.1c-0.3,2.4-2.1,5.3,0.4,7c1.2-1.2,0-2.3-0.1-3C497,446.2,498.5,445.2,497.4,443.7z    M500.2,338.4c0.6-2.2,0.5-4-1.1-6.3C498.8,334.7,497.7,336.7,500.2,338.4z M509.2,257.4c1.1-1.9,2.3-2.6,2.4-4   c-0.3-0.1-0.6-0.3-0.9-0.4C509,255.5,509,255.5,509.2,257.4z M494.2,373c-0.4,2.2,0.3,3.8,2.8,4.1   C495.8,375.4,495.9,373.8,494.2,373z M499.4,327.2c-1.6,2-1.5,2.5,0.2,3.3C500,329.4,500,328.3,499.4,327.2z M527.9,238.6   c-1.7-0.4-1.7-0.4-3.6,1.3C525.8,239.8,527.2,240.3,527.9,238.6z M491.3,368.6c0.5-1.1,0.4-1.9-0.8-3   C490.1,367,490.1,367.9,491.3,368.6z M496,415.1c0.4-1.6,0.4-1.6-1-2.5C494.6,413.8,494.8,414.6,496,415.1z M489.6,362.7   c-0.3-0.6-0.6-1.3-1-2.3c-0.6,1.3-0.5,2.1,0.1,2.8c0.4-0.1,0.5-0.1,0.6-0.1C489.3,363,489.4,362.9,489.6,362.7z M492.1,451.3   c-0.4-2.1-0.4-2.1-1.5-3.5C490.9,449.2,489.9,450.5,492.1,451.3z M498.4,323.1c-0.8,0.7,0,2.5,1,1.5   C499.7,323.9,499.1,323.2,498.4,323.1z M494.2,410.3c0.2-0.1,0.4-0.1,0.6-0.2C495.4,407.1,492,408.3,494.2,410.3z" />
	<path display="inline" fill="#5876E8" d="M559.9,420.1c-0.5-2.9-3.3-4-5.7-4.8l0,0c-0.8-0.8-1.6-1.6-2.4-2.4   c8.5-5.4,18-9.7,25.7-16.3c-0.1-1.1-0.2-1.8-0.4-2.8c-9.3,5.8-18.8,11.5-29.4,14.3c-2.5-3.8-5.1-7.4-4.9-12.1   c8.4-5.2,18.4-9.3,25.2-16.4c1.4-0.4,1.4-0.4,1.9-1.6c-8.2,5.4-17.1,11-26.3,15.4c-0.4-0.1-0.8-0.1-1.4-0.2   c-0.6-2.7,3.2-4.2,4.6-6.2c7.4-1.4,11.7-10,19.5-12c-6.6-3.7-20.5,6.2-24.9,11.5c0.1-5,3.2-9-1.1-12.5c5.6,1.9,10.7-2.3,16.4-0.3   c0.6,0.1,0.9-0.4,1.3-1c-0.8-0.6-1.6-1.1-2.6-1.8c2.2-0.4,4.2-0.7,6.1-1c9.9,8.6,22.6-3.1,32.5,6.4c-8.9,6.9-24.7,9-29.3,20.4   c25.9-14.9,27.2-23.1,59.1-15.9c0.3,1.4-0.7,1.6-1.3,2c-6.2,4.4-12.1,10-14.8,17.2c-4.9,13.3-16.3,22.7-21.8,35.8   c-5.7-4.3-11.5-8.3-17.9-11.5c8.9-5.8,22.8-8.7,28.4-17.8c2.8-1.9,5.3-2.4,7.6-5.4c-13.1,6.6-25.9,14.7-40.7,15.9   c0.2,0.3,0.4,0.6,0.6,0.9c-0.1,0.4-0.1,0.8-0.2,1.3C562.4,419.5,561.2,419.8,559.9,420.1C559.9,420.2,559.9,420.1,559.9,420.1z    M576.9,381.2c-11.4,4.2-23.5,10.9-32.2,19.5c12-4.4,21.8-14.9,33.8-19.8C577.4,380.4,577.1,380.7,576.9,381.2z M587.5,421.6   c-5.4,0.7-5.4,0.7-8.7,2.9c-0.5,1.5-0.6,2.8,1,3.7C583.5,427.7,586.8,425,587.5,421.6z" />
	<path display="inline" fill="#FBDFD3" d="M561.5,238.8c-5.5-5.8-11.9-10.5-19-14.7c1.2-1.4,2.8-1.6,4.1-2.3c4,0.7,7.9,1,12,1   c2.4,4.8,2.9,10.6,7.5,13.8c1-5.5-3.8-10.5-0.1-15.4c6.8,12.2,19.3,7,27.1-0.9c-1.3,7,5.8,9.9,7.4,16.4c0.9,7.5,4.6,21.1-4.9,23.5   c-0.4-0.1-0.8-0.2-1.3-0.4c-0.8-1.9-0.9-9-3.4-8.3c0.7,3.1,1.4,6.2,2.1,9.3c-11.6,1.3-20.3-11-27.7-18.6c4.8-2.5,11.7,0.7,17.2,0.5   c2.9,1.2,5.1,3.9,8.4,3.6c1.3-3,5-1.7,7.1-3.8c-2.2-2.1-6.1,0.1-8,1.6C581.5,239.8,570.7,239.6,561.5,238.8z" />
	<path display="inline" fill="#B7BDD5" d="M540,302.3c1.9-0.1,3.4,0.5,4.3,2.6c-0.9,1.1-1.9,2.3-3.1,3.6c1.6,2.2,3.9,4,4.7,6.7   c-0.7,0.1-1.4,0.3-2.3,0.4c2.4,1.7,2.4,1.7,4,0.5c0.8,0.6,1.5,1.1,2.3,1.7c-5.3,0.8-6.7,1.9-11.3-2.4c-1.8-0.2-2.5,1.1-3.3,2.3   c0.1,2,1.5,3.3,1.9,5c7,2.8,7.6,8.3-1.2,7.4c3.8,11.5,4.1,24.3,4.1,36.6c-0.7,0.9-1.4,1.7-2.1,2.5c3.5,1.4,8.1,0.2,11.9,0.6   c-7.2,1.9-15.9,0.5-23.5,0.5c-0.1-3-2.8-5.8-1.1-8.7c0.9-3-0.2-6.2-0.3-9.5c4.6-9.5-5.7-18.3-8.4-26.9c5.2-3.7,8.3-20.1,12.7-19.5   c3,2.3,3.5,5.2,7.8,5.4c-2.1-2-3.3-2.4-4.4-4.6C535.9,305.9,537.9,304,540,302.3z M532.4,323.6c-1.8-1.4-3-2.4-4.3-3.4   C526.6,322.6,529.8,323.4,532.4,323.6z M540.2,312.9c0.2,1.7,1,2.1,2.7,1.3C541.8,313.7,541,313.3,540.2,312.9z M540.2,327   c-0.4-1.2-1.2-1.3-2.7-0.5C538.7,327,539.1,328.1,540.2,327z M535.9,325.1c0-0.2,0-0.4,0-0.5c-0.6,0-1.3-0.1-1.9-0.1   c0,0.2,0,0.4,0,0.5C534.6,325,535.3,325,535.9,325.1z M535.9,336.9c-0.5-0.3-0.8-0.4-1,0.2C535.4,337.4,535.6,337.4,535.9,336.9z" />
	<path display="inline" fill="#EECABA" d="M594.2,226.7c-2-1.4-0.7-3.8-1.1-6.3c-7.9,8-20.4,13.2-27.1,0.9   c-3.7,4.9,1.2,9.9,0.1,15.4c-4.6-3.2-5.1-9-7.5-13.8c-4.1,0-8-0.3-12-1c4.3-3.1,8.2-6.4,12.2-9.9c0.3,0.2,0.8,0.6,1.9,1.3   c-0.2-6.6-2.9-13.5,0.7-18.9c1.1,1.1,0.5,2.4,0.2,3.7c4.6,3.6,9,8.2,14.1,10.6c0.1-0.5,0.2-0.9,0.2-1.3c1.2,0.4,0.6,1.7,1.6,2.6   c1.7,0.9,3.3,2.9,5.9,3.1c-0.1,0.4-0.1,0.8-0.2,1.3c3.3,2.2,7.2,1.5,11,1.8C594.2,219.9,593.7,223.1,594.2,226.7z M564.3,204.1   c2.3,4.6,5,7.8,6.4,11.9c-0.3,1.7,0.8,2.2,1.9,3.1c0.1-2.9,0.1-2.9-0.6-4.1C569.4,211.6,569,205.1,564.3,204.1z M558.9,216.9   c0.4,1.1,0.7,2.2,1.2,3.3c0.5,0.9-1,2.6,1.2,3c0.6-2.5-0.2-4.6-1.1-6.7C559.4,216.2,559.6,216.4,558.9,216.9z M591,218   c-3,1.8-3.9,2.9-3.7,4.9C588.8,221.6,592,220.1,591,218z M577.8,226c-1-2-1-2-2.6-2.8C575.7,224.4,575.7,225.6,577.8,226z" />
	<path display="inline" fill="#EDC9B9" d="M493.3,306.6c-0.3-0.5-0.6-1.1-0.9-1.6c2.8-1.2,0-5.2-2.7-4.8c-0.2-3.2,1.3-6.4-0.5-9.1   c4-5.1,3.2-12.6,8.2-17c0.5,0,0.9,0,1.4,0c1.7,3.3,2.6,6.8,5.2,9.5c-11.9,13.1-2.5,16.9-6.3,29.2c-1.2-1.2-1.4-1.5-2.4-3.2   c-0.2,0.9-0.3,1.3-0.4,1.7l-0.1,0.1c-0.2,0-0.5,0-0.7,0c-0.3-0.9-0.5-1.8-0.8-2.6c0.5-0.1,0.9-0.2,1.4-0.2   C494.4,307.7,494.2,306.9,493.3,306.6z" />
	<path display="inline" fill="#ECC9B9" d="M511.8,243c-6.2,12.7-9.5,19.5-3.1,33.7c0.6,2.9,4.4,7,2.4,9.5c-1.4-0.4-1.6-2-2.6,0   c-1.1-0.4-2.3-0.8-3.2-1.6c0.6,0,1.2,0,2.1,0c-3.4-7.1-8.7-9.6-7.1-18.1c-0.7,0.4-1.2,0.7-1.7,1c-0.3-0.3-0.5-0.6-0.8-0.8   C497.8,256.8,502.5,247,511.8,243z" />
	<path display="inline" fill="#B7BCD4" d="M564.8,305.6c-2.5-0.1-5.2,0.6-7.5-0.6c1-0.1,2-0.1,3.4-0.2c-1.5-1.3-3-1.8-4.7-2.2   c-0.2,0.5-0.3,1-0.5,1.5c-0.5,0-1,0-1.5,0c0.1-0.4,0.1-0.8,0.2-1.4c-3.3-1.7-6.6-3.4-10.2-5.2c1.3-1.5,2.3-2.8,3.4-4.1   c7.8,4.3,17.1,7.4,26,7.4c1,0.7,2,1.4,3.1,2.2c-0.8,1-1.5,1.9-2.2,2.8c-2-2.3-4.8,0.8-7.4,0.7c0.2-0.4,0.5-0.8,0.7-1.3   C566.5,304.8,565.4,304.2,564.8,305.6z" />
	<path display="inline" fill="#F7DCD0" d="M623.8,268.1c-1.1-4.3-4.5-6.9-5.4-11.2c-4.9-0.5-7.5-14.2-10.6-19   C618.7,243.2,628.4,255.6,623.8,268.1z" />
	<path display="inline" fill="#EAC7B7" d="M539.2,297.3c-2.1,4-5.3,6-9.9,5.7c-0.1-4,1.2-8.6,1.3-12.9   C534.1,289.6,536.2,295.3,539.2,297.3z" />
	<path display="inline" fill="#E9C6B6" d="M539.3,283.4c0.2,2.9,2.7,6,5.1,7.6c-0.2,1.4-1.2,2.3-2.5,3.3c-2.6-2.2-5.1-4.5-7.5-7.2   C536.2,285.9,537.8,284.6,539.3,283.4z" />
	<path display="inline" fill="#221B19" d="M558.3,182.1c-0.3,0-0.6,0-0.9,0l0,0c-0.5-1.4-1-2.8-1.5-4.2c0.3,0,0.5,0,0.9,0   c0.1-1.2,0.7-2.3,1.5-3.2c-0.5-1.3-1.3-2.1-2.5-2.5c0.4-1.8,2.3-2,3.4-3c-0.3,2.4,1.2,3.7,3.1,4.7c-0.3,2.2-0.6,4.3-0.9,6.5l0,0   c-1,0.1-2.1,0.3-3.1,0.4C558.3,181.3,558.3,181.7,558.3,182.1z M559.1,178.1c0.1,0.2,0.2,0.4,0.3,0.6c0.4-0.2,0.2-0.6,0.2-0.9   C559.4,177.9,559.3,178,559.1,178.1z" />
	<path display="inline" fill="#291C1B" d="M561.5,238.8c7.6,0.4,16,1.2,23.6,3.4c-6.7,2.1-15.2-2.3-21.2-0.8   C562.7,241,561.8,240.2,561.5,238.8z" />
	<path display="inline" fill="#E8C3B4" d="M530.6,285.5c-0.3-0.3-0.6-0.7-0.8-1c0.5-0.8,1.9-1.1,1.6-2.4c1.7-1.4,2.4-2.9,3.5-5   c1,1.2,1.8,2,2.9,3.2c0.8,0.1,1.9,0.2,3,0.4c0.4,0.9,0.1,1.2-0.5,1.4C537.2,279.9,533.5,284.2,530.6,285.5z" />
	<path display="inline" fill="#D2B5A7" d="M561.4,194.3c-0.5,0.8-1.1,1.6-1.5,2.4c0-3.5,0-7,0-10.6c0.5-0.6,1.1-1.2,1.8-2.1   c-1-0.3-1.8-0.5-2.6-0.7c-0.1-0.4-0.2-0.8-0.3-1.1c0.9,0.1,1.8,0.3,2.9,0.5c0.4,1.1,0.8,2.4,1.2,3.6   C560.1,187.9,561.6,191.6,561.4,194.3z" />
	<path display="inline" fill="#323635" d="M586,152.9c-0.9,0.5-1.7,1-2.6,1.5c-0.7-1.3-1.4-2.5-2.2-3.8c-1.3,0-2.7,0-4.7,0   c1.2-1.2,2-2,2.8-2.8C582.2,148.9,584.3,150.7,586,152.9z" />
	<path display="inline" fill="#1B1C1C" d="M589.2,145.1c2.5,0.9,4.9,1.8,7.2,2.7c0.8-0.2,1.7-0.4,2.5-0.6c1.2,1.1-0.3,2.1,0.3,3.2   C597.1,148.8,587.3,148,589.2,145.1z" />
	<path display="inline" fill="#0F0C0B" d="M489.1,291c1.9,2.7,0.3,6,0.5,9.1c2.7-0.4,5.5,3.6,2.7,4.8c-1.8-1.5-3.2-3.6-4.1-5.8   C490.1,297.2,488.6,293.6,489.1,291z" />
	<path display="inline" fill="#BCA498" d="M555.7,172.2c1.2,0.4,2,1.2,2.5,2.5c-0.8,0.9-1.4,2-1.5,3.2c-0.4,0-0.6,0-0.9,0   C554.8,175.9,553.2,173.7,555.7,172.2z" />
	<path display="inline" fill="#483B38" d="M593.1,260.9c-0.7-3.1-1.4-6.2-2.1-9.3c2.5-0.7,2.6,6.5,3.4,8.3c0.5,0.1,0.9,0.3,1.3,0.4   C595,261.3,594,260.9,593.1,260.9z" />
	<path display="inline" fill="#1D1F1F" d="M567.1,160.1c0.5,0.6,1,1.1,1.6,1.7c0.2,1.3-0.9,1.6-2,2c-0.3-0.6-0.6-1.3-0.9-2   c-0.8,0.2-1.5,0.4-2.4,0.6c-0.1-0.6-0.2-1.1-0.3-1.5C564.3,160,565.7,160.1,567.1,160.1L567.1,160.1z" />
	<path display="inline" fill="#2D2F2F" d="M570,149.6c0.3-3.2,3.1-3.4,4.6-5.4C574.9,146.8,574,147.7,570,149.6z" />
	<path display="inline" fill="#A5928A" d="M498,266.6c0.3,0.3,0.5,0.6,0.8,0.8c0,2.2,0,4.4,0,6.6c-0.5,0-0.9,0-1.4,0   C497.2,271.5,496.7,268.9,498,266.6z" />
	<path display="inline" fill="#312C2E" d="M611.1,310.6c-0.2-1.3-0.2-2.6,0.6-3.9c0.5,0,1.1-0.1,1.8-0.1c0.3,0.3,0.6,0.6,1,0.9   c0,0.2-0.1,0.5-0.2,0.7c-0.4,0.1-0.8,0.2-1.3,0.3c-0.3,2.1-0.4,4.1-0.3,6.2C610.8,313.8,612.7,311.5,611.1,310.6z" />
	<path display="inline" fill="#C8B0A2" d="M562.3,173.9c-1.9-1-3.4-2.3-3.1-4.7c1.5-0.4,2.5,0.3,3.2,1.5   C562.3,171.8,562.3,172.9,562.3,173.9L562.3,173.9z" />
	<path display="inline" fill="#D2B5A7" d="M561.3,180.4c0.3-2.2,0.6-4.3,0.9-6.5v0.1c0.3,0,0.5,0,0.8,0.1c0.3,2,1.1,4.1,1.1,6.2   c-0.5-0.3-1-0.6-1.5-1C562.3,179.7,561.8,180,561.3,180.4z" />
	<path display="inline" fill="#282A2A" d="M615.2,142c-0.7,1.2-1.2,2.2-1.8,3.3C610.3,144.4,612.2,140.3,615.2,142z" />
	<path display="inline" fill="#292A2A" d="M572.8,159.5c0.6-1.8,0.9-3.1,1.2-5.1c0.9,0.5,1.5,0.9,2.3,1.4c-1.1,1.5-2,2.6-3.1,3.9   C573,159.6,572.9,159.6,572.8,159.5z" />
	<path display="inline" fill="#262727" d="M561.5,160.1c-0.7,1.2-1.4,2.4-2.3,3.8c-0.3-1.9-0.3-3.5,0.1-5.1   C561,158.7,561,158.7,561.5,160.1L561.5,160.1z" />
	<path display="inline" fill="#313232" d="M588.3,140.7c0.1-1.3,0.1-2.1,0.1-3c1.4-0.3,2.2-0.4,3.8-0.1   C591.2,139.2,589.7,139.4,588.3,140.7z" />
	<path display="inline" fill="#262A2A" d="M573.4,139.7c-1.8,0-3,0-4.8,0c2.1-0.9,3.6-1.6,5.1-2.3   C574.4,138.5,573.2,138.9,573.4,139.7z" />
	<path display="inline" fill="#221B19" d="M564,178.9c-0.3-1.4-0.6-2.7-0.9-4.1c0.7,0.2,1.4,0.4,2.3,0.6   C565.8,176.7,565,177.8,564,178.9z" />
	<path display="inline" fill="#393A41" d="M533.8,308c1,0.9,2,1.7,3.5,3.1c-2.4-0.1-3.5-0.9-4.5-2.2   C533.2,308.7,533.5,308.4,533.8,308z" />
	<path display="inline" fill="#1E1E1E" d="M565,174.1c0.4-2,1.2-3.2,2.6-3.9C567.3,172.6,567.3,172.6,565,174.1z" />
	<path display="inline" fill="#252626" d="M606.1,138.4c0.1-1.5,0.1-2.3,0.1-2.9c0.9-0.7,1.6-0.9,2.2,0.4   C607.9,136.6,607.3,137.3,606.1,138.4z" />
	<path display="inline" fill="#1C1C1C" d="M557.4,182.1c-0.1,0.4-0.1,0.7-0.2,1.1c-0.9,0.3-1.5-0.3-2.1-0.9c0-0.7,0-1.4,0-2.3   C555.9,180.8,556.6,181.4,557.4,182.1L557.4,182.1z" />
	<path display="inline" fill="#1D1F1F" d="M567.1,160.2c0.6-1,1.1-2,1.8-3.2C569.7,159.3,569.7,159.3,567.1,160.2   C567.1,160.1,567.1,160.2,567.1,160.2z" />
	<path display="inline" fill="#4B65C5" d="M547.6,374c-2,1-3.6,1-5.7,0C543.8,374,545.7,374,547.6,374z" />
	<path display="inline" fill="#1D1F1F" d="M561.4,160.2c0.5-0.5,1-1,1.7-1.6c0.7,0.9-0.3,1.6,0,2.4   C561.6,161.6,561.6,161.6,561.4,160.2C561.5,160.1,561.4,160.2,561.4,160.2z" />
	<path display="inline" fill="#748391" d="M603.6,235.8c-0.3,0.3-0.5,0.5-0.8,0.8c-0.8-0.8-1.6-1.6-1.5-3.3   C602.6,234,603.2,234.7,603.6,235.8z" />
	<path display="inline" fill="#BEB6AC" d="M564,241.4c0.8-1.6,2.7-0.1,4,0c-0.9,0.3-2.1-0.3-2.6,1C564.9,242,564.5,241.7,564,241.4z   " />
	<path display="inline" fill="#D2B5A7" d="M558.3,182.1c0-0.4,0-0.8,0-1.3c1.1-0.1,2.1-0.3,3.1-0.4   C560.6,181.1,559.4,182.5,558.3,182.1z" />
	<path display="inline" fill="#1B1C1C" d="M592.5,145.7c-1.5-1.3-0.4-1.7,0-2.8C593.3,144.5,593.2,144.2,592.5,145.7z" />
	<path display="inline" fill="#642725" d="M533.9,238.2c0.5,0,1.1,0,1.6,0c0.5,0.5,0.9,0.9,1.4,1.4c-0.7,0-1.4,0-2.1,0   C534.5,239.2,534.2,238.7,533.9,238.2z" />
	<path display="inline" fill="#221B19" d="M563,174.1c-0.2-0.1-0.5-0.2-0.8-0.1c0.1-1.1,0.1-2.2,0.2-3.3   C563.6,171.7,563,172.9,563,174.1z" />
	<path display="inline" fill="#262828" d="M595,142.5c0.5-0.3,1-0.7,1.5-1c0.1,0.2,0.2,0.3,0.4,0.5c-0.5,0.4-0.9,0.8-1.4,1.2   C595.4,142.9,595.2,142.7,595,142.5z" />
	<path display="inline" fill="#FBDFD3" d="M677.7,404c5,45.5-16.4,90-10.3,135.4c-4.1,2.9-4.7,7.7-7.2,11.4c-3.2,1.4-6.4,0-9.5,0   c-2.3-13.7,4-28.5-0.2-42.5c-3.1,3.3-1.6,10.1-4.3,11.4c-1-7.7-2.8-15.3-2.6-23.1c3.6-3.3,0-9.3,0.1-13.5c0.1-1,1.7-1.7,1.5-2.9   l0,0c1.3-1.1,0.9-2-0.5-2.3c-1.4-0.2-0.7,1.6-1.6,1.8c-0.6-4.2-1.2-8.4-1.8-12.7c4.4-8.3,5.5-17.7,7.5-26.9   c4,6.1-2.4,13.4-1.2,20.2c6.2-1.5,6.7-20.7,2.5-24.6c1.2-3.9,0.4-6.7-1.5-10.3c2.9-3,8-2,9.8-6.3c-5.1-7.7-16.4,1.9-22.6,4.3   c-10.2,4.9-21.9,6.4-32.5,9.6c-2-13.2,6.3-24.5,9.4-36.5c11.9-22.2,31.7-15.6,49.8-5.6C670.9,387.3,673.6,398.8,677.7,404z    M637.7,392.7c1.2,1.1,2.7,0.7,4.1,0.8c1.8,0.4,3.2,2.3,5.8,1c-4-2.1-8.9-3.2-13.5-2.4C635.4,393.1,636.6,392.7,637.7,392.7z    M645.2,471.4c0,0.7,0.1,1.5,0.1,2.2c0.2,0,0.3,0,0.5,0c0-2.5,1.5-3.8,1.3-6.6C645,468,644.9,469.5,645.2,471.4z M653.3,430   c0,0.4,0,0.8,0,1.3c3.8,0.9,5.4,5.4,9,6c-0.2,2.3,2.2,3.3,3.4,4.8c0-2.5-0.7-4.5-3.5-4.8c-2-4-3.1-8.7-7.7-10.4   C653.3,427.6,653.3,428.8,653.3,430z M662,401.4c2.9,2.7,4.4,7.1,8.1,8.9c0.2-1.7-5.3-11.2-7.7-9.8   C662.3,400.8,662.2,401,662,401.4z M669.5,448.2c0.2-3.7-0.2-4.1-2.8-4.1C667.1,445.6,668.2,446.5,669.5,448.2z M669.8,449.5   c0.6,3.1,0.6,3.1,2.1,4.3C672.4,451.8,671.4,450.7,669.8,449.5z M661.6,398.4c1.5,0.4,1.8-0.4,2-1.4c-0.3-0.3-0.6-0.6-1.1-1   C662.2,396.8,662,397.5,661.6,398.4z M674.2,413.5c-0.4-1-0.7-2-2-2c-0.5,1,0.4,1.6,0.8,2.5C673.5,413.8,673.8,413.7,674.2,413.5z" />
	<path display="inline" fill="#FBDFD3" d="M470.3,503.8c0-2,1.7-2.9,2.4-4.4c12.3,1.2,23.4,7,35.8,6.3c15,1.5,30.8-1,44.8,5.7   c-1.7,8.3-4.8,19.4,3.9,24.9c1.5,0.1,2.2-0.5,2.6-2c-5.3-9.5-0.2-19.3,2.2-29c3.9-2.3,6.9-6.2,11.5-8.8c0,3.6-0.4,6.5-1.6,9.7   c-3.9,5.9-2,13.1-5,19.2c-2.2,2.9-2,18.2,2.3,16.8c-1.2-5.3-3.5-10.6-0.7-15.8c1.2,0.2,2.4-0.3,2.5-1.4c0.5-5.8,6.2-9.8,5.7-15.8   c0.7-3.2,0.1-7.1,2.6-9.5c1.4-2.2,0.6-5.2,0.8-7.5c4.5-4.9,25.4-11.3,28.3-4.2c-0.7,18-4.3,37.1-14.3,52.4c-5.7,1.2-3.6,7.9-8,10.6   c-1.4,1.6-4.5,2.4-4.3,4.9c-1.9,0.7-3.8,0.1-5.7-0.2c3.6-2.4,9.7-4.1,10.5-9c0.6-0.6,1.1-1.3,2.1-2.4c-5.5,1.2-10.4,4.2-15.9,5.7   c-0.7-0.6-1.1-1.1-1.6-1.5c-6.7,1.6-12.7-1.8-19.6-3.5c2-1.1,3.3-2.2,4.2-3.9c-0.5-0.8-0.9-1.6-1.3-2.2c-3.4-0.8-5.7,1.9-8.4,2.1   c-6.7-4.7-16.9-2.2-21.4-10c-5.2-5.1-12-8.2-17.7-12.7c-0.6-2.1-0.6-2.1-2.2-2.6c-0.8,6.2,7.2,8.5,9.8,13.5   c-13.1-7.1-26.6-8.3-40.9-9.1c-2.5-3.3-3.6-7.3-2.9-11.4c7.7-0.2,14.8,0.5,22.4-0.3C486.9,502.6,477,506.8,470.3,503.8z    M501.7,513.9c-0.5-2.1-0.5-2.1-2-1.3C500.4,513.1,501,513.5,501.7,513.9z" />
	<path display="inline" fill="#EECABA" d="M654.1,422.7c-1.8,1.3-4.1,0.7-5.6,2.8c1.8,3.6,2.7,6.4,1.5,10.3   c4.2,4.3,3.5,21.3-1.6,24.3c0.6-5.1,3.1-9.5,3.4-14.7c-0.8,0.1-1.3,0.1-1.8,0.1c0-0.9,0-1.7,0-2.6c0.4,0,0.8,0,1.2,0   c0.7-1.7-0.4-2.9-1.4-4.3c0,1.2,0,2.4,0,3.6c-0.4-0.6-0.8-1.3-1.2-2c-2,9.2-3,18.6-7.5,26.9c0.6,4.3,1.2,8.5,1.8,12.7   c0.9-0.2,0.2-2,1.6-1.8c-0.4,0.9-0.9,1.8,0.5,2.3c-0.8,2.6-2.3,2.6-0.9,5.9c-3,2,0.5,6.1-1.2,9c0.7,8.1,1.6,16.4,3,24.6   c2.7-1.3,1.2-8.1,4.3-11.4c4.2,13.9-2.1,28.7,0.2,42.5c1.1,0.1,2.4,0.2,3.8,0.3c-2.4,1.1-4.9,0.6-7.7,0.5   c-1.9-5.1,0.6-9.9-0.1-14.9c-1.9-0.3-1.1,1.1-1.6,2c-0.3,0-0.5,0-0.7,0.1c-1.3-24.4-4.1-48.5-10.1-71.9c-0.1-9.4,4.3-18,8.6-26.2   c1.2-3.8,0-7.9,2.9-11.3c-4.3-0.7-6.8,2.7-10.6,3.8c-4.9,2.3-10.9,2.7-14.5,7.1c-10.9,3-21.7,4.6-32.9,7   c-0.3-19.9,18.8-32.8,24.9-50.8c-3.1,12-11.4,23.3-9.4,36.5c10.7-3.1,22.4-4.7,32.5-9.6c6.2-2.4,17.5-12,22.6-4.3   C657.2,420.7,656.4,422.5,654.1,422.7c0.2-0.5,0.4-0.9,0.6-1.7c-1.5,0.7-2.5,0.3-3,1.7C652.6,422.7,653.4,422.7,654.1,422.7z    M624,433.7c7,1.2,16.4-6.9,22-11.2C638.1,424.8,631.1,430.3,624,433.7z M648.4,523c1.2-1.3,1.3-2.2,0.6-3.5   C647.9,520.4,647.3,521.2,648.4,523z M646.4,535.5c0.6-1.1,1.6-3.7-0.3-3.5C645.8,533.1,645.4,534.1,646.4,535.5z M647,422.9   c1.1,0.7,1.7,0.3,2.1-0.7C648.1,421.6,647.3,421.7,647,422.9z M647.2,526c-0.9,1.1-0.9,2,0,3.1C648,528,648,527,647.2,526z    M650.2,515.2c-0.2,0-0.5-0.1-0.7-0.1c0,0.6,0,1.1,0,1.7c0.1,0,0.3,0,0.4,0C650,516.3,650.1,515.7,650.2,515.2z M611.9,438.4   c0,0.1,0,0.3,0,0.4c0.5,0,1,0,1.5,0c0-0.1,0-0.3,0-0.4C612.9,438.4,612.4,438.4,611.9,438.4z" />
	<path display="inline" fill="#E4E4EB" d="M467.8,537.4c1.7,0.3,3.3,0.7,5.3,1.1c-2.2,2.7-5.3,0.7-8.1,1.4c-0.4,1.5,0.5,1.9,1.3,2.4   c0,0.5,0,0.9,0,1.4c-0.2,0.3-0.5,0.6-0.8,1c1.5,2.2,4.2,1.6,6.3,2.7c-0.1,1.2-0.3,2.3-0.5,3.6c3.7,1.2,11.5,9.5,7.5,13.1   c-0.6,0-1.3,0-1.9,0c-5-4.7-13.1-3.3-19.3-4.9c-14.5-3.5-8.1-22.7-9.1-33.5c-10.6-8.1-11.8-13.2-10.3-26.4   c8.8-0.3,17.7-9.1,26.4-2.6c-1.2,3.9-2.5,4.8-4.9,7.2c-5.2,4.9-0.7,18.9,6,21.1c-0.5,1-1.7,2.7-0.1,3.4c1.9,3.6,5.4,4.4,9.3,4.9   c-0.6,1-0.9,1.5-1.3,2.3c-3.9-0.3-7-3-11-1.9C462.9,536.1,465.5,537.3,467.8,537.4z" />
	<path display="inline" fill="#EECABA" d="M551.7,519.4c0.6-2.6,1.4-5.2,1.6-7.9c1.7,1.2,0.5,3.5,0.8,5.6c5.3-6.6,0.1-15.6-0.9-22.9   c1.6-3.1,5.2-2.9,7.9-4.5c12.7-7,21.8-23.9,38.4-17.3c0.9,1.4,2.2,2.5,3.9,3.1c0.9,3.7,1.8,7.4,4.3,10.6   c-9.4-1.9-20.1,0.1-27.5,6.4c-0.2,2.2,0.6,5.3-0.8,7.5c-0.1-0.9,0.5-2-0.7-3.1c-2,4.6-3.5,8.5-3.3,13.7c0.6-0.4,1-0.7,1.4-1   c0.4,5.9-5.3,9.9-5.7,15.8c-0.1,1.1-1.2,1.6-2.5,1.4c0.6-1.6,1.2-3.2,1.8-5.1c-0.7-0.2-1.1-0.3-1.6-0.5c-1.2-8.9,5.4-15.7,4.8-24.4   c-4.6,2.6-7.6,6.5-11.5,8.8c-2.4,9.7-7.5,19.5-2.2,29c-0.4,1.5-1.1,2.1-2.6,2c-2.7-2-5.1-4.5-5.4-8.3c0.8,0.6,1.5,1.2,2.3,1.8   c-0.1,1,0.2,1.8,1.5,2.3c-0.1-0.8-0.1-1.5-0.1-2.3c-0.6,0-1,0-1.4,0c-0.2-1.3,0.8-3.3-0.5-4.2c-1.4-2.6,0.8-5.6-0.6-7.9   C552.5,518.5,552.1,519,551.7,519.4z M573.6,512c-1.4,1.5-2.5,1.5-2.2,3.4C573.1,515.1,573.6,514.2,573.6,512z" />
	<path display="inline" fill="#4B65C5" d="M588.3,469c-14.2,2.9-20.8,20.1-35.6,21.7c-0.4-3.7-1.7-7.4-1.6-11.1   c1.2-6.8-2.8-13.5-0.3-20.2c1.3-3.1-1.7-5.7-3.3-8.2c0.4-0.4,0.7-0.7,1.1-1.1c11.6,8.8,25.2,14.5,39.7,16.4   C588.3,467.4,588.3,468.2,588.3,469z M573.3,473.8c2.1-0.4,1.6-4.2-0.4-4.4C573,471,572.4,472.4,573.3,473.8z" />
	<path display="inline" fill="#EDC9B9" d="M506.9,518.5c1.1,0.9,2.2,1.7,3.3,2.5c-1.9,0.6,0.6,2.8,0.9,0.8   c9.2,3.1,13.7,13.4,23,15.4c4.2,1.1,8.1,1.5,11.9,3.9c2.7-0.2,5-2.9,8.4-2.1c0.4,0.6,0.9,1.4,1.3,2.2c-0.9,1.7-2.2,2.8-4.2,3.9   c6.3,1.3,12.1,5.1,18.2,3.6c0.7,1,0.8,1,1.5,0c0.5,0.4,0.9,0.9,1.6,1.5c3.1-1.1,6.5-2.5,9.9-3.2c-2.2,1.5-3.5,4.7-6.2,5   c-0.3,0-0.6,0.5-1.2,1c4.9,1.2,7.1-4.5,11.4-6.1c-9,18.8-30.2,0.8-44.4-1.8c2-1.5,3-1.5,5.5-1.5c-10.9-1.5-20.5-5.7-28.6-13   c0.7,3,3,3.3,4,5.6c-0.6,0.1-1,0.2-1.5,0.3c-13.3-4.7-26.6-14.1-41.3-12c-3.7,1.6-5.3-1.8-6.8-4.3c14.3,0.8,27.8,2,40.9,9.1   c-2.6-4.8-9.2-6.9-9.9-12.4C505.3,517.5,505.6,518.9,506.9,518.5z M514.4,525c-0.5-0.8-0.9-1.6-2.4-1.2c1.2,1.9,2.6,4.7,4.8,3.7   C516.2,526.4,515.2,525.8,514.4,525z" />
	<path display="inline" fill="#5775E6" d="M588.3,469c0-0.8,0-1.6,0-2.5c2.7-1.1,5-3.1,8.2-3.1c7-4.8,14.6-10.2,17.3-18.6   c4.1,2.2,1.7,8.1,2.3,11.8c-8.7,8.4,1.3,19.8-3.4,29.5c-0.5,0-1,0-1.5,0C603.6,474.4,605.1,467.2,588.3,469z M606.9,461.8   c-0.5-1.1-0.7-2.4-2.4-3.1c1.2,6.1,5,11,5.9,17.2c0.1,0.6,0.1,1.7,1.3,1.6C612.7,472.1,609.4,466.5,606.9,461.8z M612.4,460.1   c1.2-2.3-1.4-6-4.1-5.1C609.9,456.7,609.5,459.5,612.4,460.1z" />
	<path display="inline" fill="#CECEDC" d="M443.6,498.3c-1.5,1.3-3.4,0.7-5.4,0.9c-1.5,13.2-0.2,18.2,10.3,26.4   c1,10.8-5.4,29.9,9.1,33.5c6.2,1.7,14.4,0.3,19.3,4.9c-24.2,2.7-35.6-4.2-30.7-30c-3.3-17.4-12.6-2.5-10.6-35.3   C438.1,497.5,440.9,498.5,443.6,498.3z" />
	<path display="inline" fill="#FDFDFD" d="M623.9,377.9c-6.9,0.1-13.4-1-19.9-1.9c-0.8-7.9,2.2-15.9,3.3-23.8c1-0.1,1.1,0.5,1.3,1   C610.7,363.4,619.1,369.2,623.9,377.9z" />
	<path display="inline" fill="#EDC9B9" d="M611.9,339.7c3.7,14.2,12.9,26,21.2,38.2c1,0,3-0.2,4,0.8c-3.5-0.4-8.8,1.5-10.4-2.8   c-8.6-10.1-21.8-22.8-16.6-37.4c0.7,0.2,1.2,0.4,1.7,0.5C611.8,339.3,611.9,339.5,611.9,339.7z" />
	<path display="inline" fill="#4A64C4" d="M609.6,446.7c-6.6,9.1-23.4,26-24.6,4.4c1-1.3,2.3-1.4,3.7-1.4   C595.9,450.9,602.8,446.3,609.6,446.7z" />
	<path display="inline" fill="#ECC9B9" d="M612.6,314.6c0-2.1,0-4.2,0.3-6.2c0.5-0.1,0.9-0.2,1.3-0.3c-0.1,0.4-0.3,0.7-0.5,1.3   c0.6,0.7,1.3,1.5,2.2,2.6c-0.3,9.8-0.8,19.8,5.1,28.4c-1.9,3.4-5.9,1.2-8.3-0.4c0.5-0.1,1-0.2,1.9-0.3c-1.5-1.3-2.3-2-3.5-3.2   C612.4,329.1,613,322,612.6,314.6z" />
	<path display="inline" fill="#FAFAFA" d="M467.3,501.7c-2.8,7.9-1.4,15.4,4.7,21.1c-0.1,0.2-0.1,0.4,0,0.7   c-5.7-0.6-11.1-3.7-11.9-10.5c0.4-4.4,1.3-10.9,7-11.4L467.3,501.7z" />
	<path display="inline" fill="#4B65C6" d="M597.4,377.9c-11.9,4.4-21.7,13.4-32.7,18.8c4.6-11.4,20.4-13.5,29.3-20.4   C595.1,376.9,596.2,377.4,597.4,377.9z" />
	<path display="inline" fill="#E6C4B5" d="M470.3,503.8c6.7,2.9,16.6-1.3,22.8,4.7c-7.6,0.8-14.7,0.1-22.4,0.3   c-0.1,1.3-0.2,2.3-0.3,3.4c-0.3-0.6-0.6-1.2-0.9-1.7c0.1-0.8,0.2-1.5,0.2-2.3c1.5-0.6,3.3,0,4.5-1.5c-1.6-0.6-3.1-0.3-4.6-0.4   C469.6,505.4,469.5,504.5,470.3,503.8z M484.6,507.9c1.1-0.1,1.7-0.1,2.5-0.2C486.1,506.3,485.6,506.7,484.6,507.9z M479.7,507.8   c0-0.1,0-0.3,0-0.4C477.5,506.7,477.6,508.4,479.7,507.8z" />
	<path display="inline" fill="#101114" d="M557.2,490c10.2-4.9,16.5-14.1,26.2-19.4c0.3,0.9,1.1,0.7,1.8,0.9   c-9.6,5.7-16.5,15.2-27,19.3C557.8,490.6,557.5,490.3,557.2,490z" />
	<path display="inline" fill="#E9C4B5" d="M581.8,556.1c-0.2-2.5,2.9-3.3,4.3-4.9c4.4-2.7,2.3-9.4,8-10.6   C591.9,547,590.5,556.3,581.8,556.1z" />
	<path display="inline" fill="#D2D6DD" d="M465.5,528.4c-1.6-0.7-0.5-2.4,0.1-3.4c6.1,2.7,12.2,1.3,18.5,1.9   c-1.3,3.2-4.8,1.5-6.2,3.5c-4.3-0.5-8.5-0.4-10.9-3.9C465.3,526.6,465.7,527.6,465.5,528.4z" />
	<path display="inline" fill="#32488D" d="M548.6,450.2c-0.4,0.4-0.7,0.7-1.1,1.1c-3.5-3.8-9-4.9-11.7-9.5   C537.9,440.8,545.8,448.7,548.6,450.2z" />
	<path display="inline" fill="#330A0A" d="M469.7,506.3c1.5,0.2,3-0.2,4.6,0.4c-1.3,1.5-3,0.9-4.5,1.5c-0.1,0.8-0.2,1.5-0.2,2.3   C467.9,509.4,469,507.5,469.7,506.3z" />
	<path display="inline" fill="#4A3633" d="M523.3,534c0.5,0.6,1,1.2,1.5,1.7c-0.3,0.5-0.4,1.2-0.8,1.6c-0.9,0-1.9,0.2-2.4-0.8   c0.5-0.1,0.9-0.2,1.5-0.3c-0.3-0.5-0.5-0.9-0.8-1.3C522.6,534.6,523,534.3,523.3,534z" />
	<path display="inline" fill="#2C386E" d="M611.1,486.1c0.5,0,1,0,1.5,0c-0.5,1.1-0.6,2.4-2.3,3.1   C610.6,487.9,610.9,487,611.1,486.1z" />
	<path display="inline" fill="#B7B9B9" d="M472,523.4c0-0.2,0-0.4,0-0.7c0.7,0.1,1.5,0.2,2.4,0.3C473.4,523.9,473.4,523.9,472,523.4   z" />
	<path display="inline" fill="#584944" d="M544.3,543.1c1-0.3,2-0.4,3.4,0.6c-1.4,0.1-2.4,0.1-3.3,0.1   C544.3,543.5,544.3,543.3,544.3,543.1z" />
	<path display="inline" fill="#372E2B" d="M612.7,338.1c0.5,0.4,1,0.9,1.8,1.6c-1.3,0.2-1.7,0.5-2.6,0.1c0-0.2-0.1-0.5-0.1-0.7   C612.1,338.7,612.4,338.4,612.7,338.1z" />
	<path display="inline" fill="#8D979D" d="M469.9,495.9c-1.3,0.6-1.9,1-2.8,0.2C468,496.1,468.6,496,469.9,495.9z" />
	<path display="inline" fill="#B7B9B9" d="M468.8,522.7c0.7-0.2,1.3-0.1,1.7,0.6C469.9,523.1,469.3,522.9,468.8,522.7z" />
	<path display="inline" fill="#4A3633" d="M524.1,537.2c0.1,0.2,0.2,0.3,0.4,0.5C524.3,537.6,524.2,537.5,524.1,537.2   C524,537.4,524.1,537.2,524.1,537.2z" />
	<path display="inline" fill="#B7B9B9" d="M471.9,522.7c-0.3-0.2-0.5-0.4-0.8-0.6C471.4,522.3,471.7,522.5,471.9,522.7z" />
	<path display="inline" fill="#FAFAFA" d="M467,501.4c0.2-0.1,0.4-0.3,0.7-0.4c-0.1,0.2-0.3,0.4-0.4,0.7   C467.3,501.7,467,501.4,467,501.4z" />
	<path display="inline" fill="#4A3633" d="M524.8,535.8c0.3,0.2,0.6,0.5,0.9,0.7C525.4,536.2,525.1,536,524.8,535.8z" />
	<path display="inline" fill="#040407" d="M556.7,376.4c3-1.5,6.5-4.2,9.7-1.3c-7.6,2-11.9,9.8-18.7,11.9   C547.8,382.3,554,379.9,556.7,376.4z" />
	<path display="inline" fill="#0F0E1A" d="M543.6,393.4c5.2-2.7,10.3-5.3,15.4-8.2c0.3,0.3,0.6,0.5,0.9,0.8   c-8.6,4.9-16.6,11.3-26.5,13.1C534.8,395.4,540.8,396.2,543.6,393.4z" />
	<path display="inline" fill="#151526" d="M547.6,408.2c6.6-1.5,12.4-4.9,18.6-7.5c0.3,0.3,0.6,0.6,0.8,0.8   c-6.5,3-12.9,8.1-20.3,8.2C547.1,409.2,547.4,408.7,547.6,408.2z" />
	<path display="inline" fill="#1F233F" d="M568,424.2c1.8,0.9,3.6,1.8,5.4,2.7c-2.4,1.8-5.9-1.9-8.8-2.5c-2.3,3.1-5.5,4.8-8.9,6.4   c-0.3-0.3-0.5-0.5-0.8-0.8c2.9-1.5,5.5-3.4,7.8-5.4c-0.1-1.8-2.2-2-3-3.5l0,0C562.7,421.7,565.3,423.2,568,424.2z" />
	<path display="inline" fill="#181B31" d="M542.7,378.1c0,0.2,0,0.4,0,0.7c-4.3-0.1-7,2.1-8.8,5.9   C533.3,379.7,538.3,375.4,542.7,378.1z" />
	<path display="inline" fill="#4558A5" d="M546.8,409.7c0.8,0,1.6,0,2.5,0c-0.5,0.4-0.9,0.8-1.4,1.2c2.3,1.6,4.6,2.1,6.3,4.4   c-3.5-0.8-6.6-2.8-9.4-4.9C545,408.8,546.5,411.1,546.8,409.7z" />
	<path display="inline" fill="#1C213D" d="M531.3,401.7c-3.3-2.1-6.1-2.4-6.3-7.4c2,2.9,4.3,4.6,7.2,6.4   C531.9,401.1,531.6,401.4,531.3,401.7z" />
	<path display="inline" fill="#3E5098" d="M555,430c0.3,0.3,0.5,0.5,0.8,0.8c-1.5,1.6-4.2,1.8-6.3,2.6   C550.9,431.6,553.1,431.1,555,430z" />
	<path display="inline" fill="#2E3B74" d="M540.4,417.1c-2.1,1.4-4.5,0.6-7.7,0.4c2.8-0.5,4.9-0.9,6.9-1.3   C539.9,416.6,540.1,416.8,540.4,417.1z" />
	<path display="inline" fill="#384A87" d="M531.3,401.7c0.3-0.3,0.6-0.7,0.9-1c1.1,0.7,2.1,1.5,3.4,2.3   C533.7,403.3,533.7,403.3,531.3,401.7z" />
	<path display="inline" fill="#2C355F" d="M528.2,415.4c1.6-2.1,1.6-2.1,3.9-2.4C530.8,414.1,529.9,415,528.2,415.4z" />
	<path display="inline" fill="#1F1B2F" d="M540.4,417.1c-0.3-0.3-0.5-0.6-0.8-0.8c1.2,0,2.3,0,3.9,0   C542.3,417.3,541.3,416.9,540.4,417.1z" />
	<path display="inline" fill="#4558A5" d="M554.1,415.4c0.8,0.3,1.6,0.6,2.4,0.9C555.8,417.8,554.6,416.2,554.1,415.4z" />
	<path display="inline" fill="#1F233F" d="M559.8,421.1c-1-0.3-0.6-0.6,0-0.9l0.1,0.1C559.9,420.5,559.9,420.8,559.8,421.1   L559.8,421.1z" />
	<path display="inline" fill="#281F1D" d="M561.4,194.3c0.1-2.7-1.3-6.4,1.6-8l0,0c-0.3,4.1,1.3,8.4,2,12.3c3.8,3,7.4,5.9,11,8.8   c-0.1,0.4-0.1,0.8-0.2,1.3c-5.2-2.3-9.5-6.9-14.1-10.6C562,196.7,562.5,195.4,561.4,194.3z" />
	<path display="inline" fill="#392E2B" d="M588.3,199.3c-0.3-0.5-0.7-1-1.1-1.7c0.8-0.3,1.3-0.8,1.7-0.7c4.5,1.4,9.8-1.9,13.7,0.9   c-0.9,0.6-1.5,1-2.1,1.4C596.5,198.6,592.3,199.4,588.3,199.3z" />
	<path display="inline" fill="#120C0B" d="M584.2,166.7c3.4,0.2,6.5,0,9.7,1.6c0.3,0.9,0.6,1.8,1,3.1c-0.8,0-1.3,0-1.8,0   c-0.6-1.1-1.6-0.7-2.5-0.7l0,0c-0.3-0.3-0.6-0.6-0.8-0.8c-0.3,0-0.6,0-0.8,0.1c-0.2-0.1-0.4-0.2-0.6-0.2c-1.5-1.4-3.5-0.1-4.9-1.7   C583.7,167.7,584,167.2,584.2,166.7z" />
	<path display="inline" fill="#271E1D" d="M590.6,170.8c0.9,0,1.9-0.4,2.5,0.7c-1.4,0.2-2.2,1-2.5,2.3c-3.6,0.6-7-0.2-10.7-0.7   c2.2-2.6,6.1-1.5,9.2-2.3C589.6,171.5,590.1,171.5,590.6,170.8z" />
	<path display="inline" fill="#1B1514" d="M598.7,201.8c0.3,0.6,0.6,1.1,1,1.9c-2.6,1.5-5.9,2-8.6,0.2   C591.7,199.9,596,200.8,598.7,201.8z" />
	<path display="inline" fill="#E0C6B7" d="M598.7,201.8c-2.5-0.7-5.3-1.8-7.2,0.6c-0.5-1.6-2.2-2.1-3.2-3.1c4,0.1,8.2-0.7,12.2-0.1   C599.9,200.1,599.3,200.9,598.7,201.8z" />
	<path display="inline" fill="#342221" d="M595.6,191.2c-4.5-3.1,8-4.9,5.4-1C599.3,191.2,597,189.6,595.6,191.2z" />
	<path display="inline" fill="#503C39" d="M584.2,166.7c-0.3,0.5-0.5,1-0.8,1.5c-1.8,0.7-3.3,1.8-5.4,1.6   C579.5,167.9,581.3,167,584.2,166.7z" />
	<path display="inline" fill="#45403D" d="M600.4,172.3c-0.4,1.4,1.2,1.5,1.7,2.3c-0.4,0.6-0.9,1.2-1.3,1.9c-0.4,0.6,0.2,1.6-1,2.1   C599.6,176.4,598.8,174.3,600.4,172.3z" />
	<path display="inline" fill="#D2B5A7" d="M563.8,192.9c-0.6-2.2-0.9-4.4-0.8-6.6C565,187.3,563.3,190.9,563.8,192.9z" />
	<path display="inline" fill="#95A098" d="M585,169.1c1.2,0.1,2.4-0.4,3.4,0.7C587.1,170.1,585.9,170.4,585,169.1z" />
	<path display="inline" fill="#95A098" d="M590.6,170.8c-0.7,1.1-1.7,0.3-1.6-0.8c0.3,0,0.6,0,0.8-0.1   C590.1,170.2,590.4,170.5,590.6,170.8L590.6,170.8z" />
	<path display="inline" fill="#E4E4EB" d="M697.2,572.8c7,6.7,16.4,7.8,25.2,10c-15.9,10-44.8,13.8-60.7,3.2   c-3.3,0.4-6.4,0.7-9.9,1.1c-0.5,0.9-1.1,1.9-1.8,3.1c-4-0.7-8.1-1.4-12.1-2.1c-5.2-9.6,1-20.6,4.7-29.7c3.4,5.8,8.7-1.4,12.8-1.7   c9.7,2.4,8.1-12.7,14.6-16.3c4.4,3.4,4.6,8.1,5.9,12.9c-3.6,2.5-9.1,4.2-9,10c3.8-2.8,7.2-5.3,11.6-7.5c0.8,0.7,1.6,1.4,2.5,2.2   c-3.6,2.7-8.6,3.4-10.4,8.4c4.7-0.2,8.9-4,13.6-5.8c1,0.7,2,1.5,3.1,2.4c-3,2.9-9.1,2.9-9.8,8.1c4.6-1.9,8.8-3.7,13.3-5.5   c0.3,0.4,0.7,0.8,1.2,1.4c-2.6,1.6-5.6,1.8-7.7,4.3c3.3,0.8,6-0.5,8.9-1.6c0.7,0.6,1.4,1.1,2.1,1.7c-1.9,1.3-3.9,0.7-5.6,2.8   C692.9,575.5,695.1,574.4,697.2,572.8z M699.4,575.6c-1.4-0.2-2.1,0.5-2.6,1.3C697.8,579.3,701.2,577.5,699.4,575.6z" />
	<path display="inline" fill="#CFCFDD" d="M721.5,583.7c0.3-0.3,0.6-0.6,0.9-0.8c1.9,1.4,1.2,4.5,2.1,6.8   c-19.3,6.3-42.2,11.5-61.7,3.8c-10.4-2-21.3,0.3-31.3-5.3c0.6-13.4,7.4-25.7,8-38.9c1.1-1.1,2.1-1.6,3.6-1.2   c0.9,1.9-1.3,3.7,0.2,5.7c1.2,0.4,2.5,0.8,3.7,1.3c-0.7,0.2-1.6,0.1-1.9,1c-0.6-0.3-1.2-0.6-2.2-1.1c-1.2,10.9-11.3,22-4.9,33.1   c4.1,0.7,8.1,1.4,12.1,2.1c0.7-1.2,1.3-2.2,1.8-3.1c3.4-0.4,6.6-0.7,9.9-1.1c5.8,6.3,16.3,4.4,24.1,6.3c3.9,1.2,7.9-1.1,11.8-1.4   c5.5-1,10.8-0.1,15.8-3.3c2.2,1.9,6.5,0.5,9.7,0.6c-0.1-0.9-0.2-1.5-0.2-2.1c-0.9-0.1-1.5-0.1-2.2-0.2c0.6-0.4,1.2-0.7,2.3-1.4   C722.4,584.2,721.9,584,721.5,583.7z" />
	<path display="inline" fill="#1D1B1B" d="M642.6,558.4c0.1-1,0.1-2,0.2-3.5c1,0.5,1.6,0.8,2.2,1.1c0.1,0.9,0.1,1.9,1.3,2.3   c2.3-0.7,4.6-1.5,6.9-2.3c0.3,0.3,0.6,0.5,0.9,0.8C650.8,558.3,645.5,563.6,642.6,558.4z" />
	<path display="inline" fill="#F1EFEF" d="M653.3,556.1c-2.3,0.8-4.7,1.5-6.9,2.3c-5-4.5,5.8-3.3,8.6-3.8   C654.2,555.2,653.8,555.6,653.3,556.1z" />
	<path display="inline" fill="#2F2729" d="M697.2,572.8c-2.1,1.6-4.3,2.7-7.4,1.5c1.7-2.1,3.7-1.6,5.6-2.8   C696.1,571.9,696.6,572.4,697.2,572.8z" />
	<path display="inline" fill="#2C2421" d="M646.8,539c0.4,3-1.3,5.7-0.8,8.9c-1.3-1.1-1-3.4-1.6-4.9c1.5-1.2,0.2-3.2,0.8-4.8   C645.7,538.4,646.3,538.7,646.8,539z" />
	<path display="inline" fill="#BA9C8F" d="M645,538.9c-0.1,1.4,0.6,3.1-0.6,4.1c0-1.3-0.1-2.7-0.1-4   C644.5,538.9,644.8,538.9,645,538.9z" />
	<path display="inline" fill="#444347" d="M631.8,591.4c-0.8,0.5-1.2-0.1-1.9-0.3c0.1-0.3,0.3-0.6,0.4-0.9   C630.9,590.6,631.6,590.6,631.8,591.4z" />
	<path display="inline" fill="#534945" d="M624.2,331c-0.6,1.5-0.2,3.7-2.1,4.1c-0.8-2,1.3-4,1.8-6c0.3,0.1,0.6,0.1,0.9,0.2   C624.9,329.9,624.3,330.4,624.2,331z" />
	<path display="inline" fill="#302726" d="M628,320.2c0,0.3,0,0.7,0,1c-1.4,1.5-1.7,3.7-2.6,5.5c-0.2-0.5-0.5-1-0.7-1.5   C625.6,323.2,625.3,320,628,320.2z" />
	<path display="inline" fill="#847872" d="M624.8,325.1c0.2,0.5,0.5,1,0.7,1.5c-0.3,0.9-0.5,1.8-0.8,2.6c-0.3-0.1-0.6-0.1-0.9-0.2   C624.3,327.8,623.5,326.2,624.8,325.1z" />
	<path display="inline" fill="#333B39" d="M636.4,347.8c1.3,0.1,1.5,0.8,1.3,1.9C637.3,349.1,636.9,348.5,636.4,347.8z" />
	<path display="inline" fill="#847872" d="M624.2,331c0.1-0.3,0.3-0.7,0.4-1C624.5,330.3,624.3,330.7,624.2,331z" />
	<path display="inline" fill="#B59D90" d="M486,454.4c0.6,0.8,1.4,1.1,2.3,1.6c-0.4,0-0.8,0.1-1.2,0.1c0.5,2.2,2.9,4.2,3.8,6.6   c-2,1.5-4.1-5.4-5.8-6.6c0.1-0.8,0.2-1.7,0.2-2.5C485.5,453.8,485.7,454.1,486,454.4z" />
	<path display="inline" fill="#B3B7BD" d="M466.3,543.7c0-0.5,0-0.9,0-1.4c1.8,0.1,3.6,0.2,5.7,0.3c0,0.5,0.1,1.1,0.1,2   C470,544.3,468.1,544,466.3,543.7z" />
	<path display="inline" fill="#ECC9BA" d="M498.8,452.8c2.4,0.2,4.7,0.5,6.9,2c0.3-0.1,0.8-0.3,1.3-0.5c0.9,2.7,1.7,5.3,2.5,7.8   c2.3,0.5,0.4-2,1.9-1.9c0.8,0.5,0.8,1.4,0.7,2.6c-2.9,1.6-5.2,4.9-9.7,3.8C501.3,462,500.7,457.2,498.8,452.8z" />
	<path display="inline" fill="#E6C3B4" d="M490,455.2c1.7-1.6,5.1-0.9,7.4-1.6c1,4.5,2.1,8.9,3.2,13.5   C494.9,468.6,496.1,454.2,490,455.2z" />
	<path display="inline" fill="#C7A99C" d="M490,455.2c0.3,0,0.5,0,0.8,0c1.2,3.5,3.7,7,4,10.6c-2.7-2.8-3.9-6.8-6.5-9.9   C488.9,455.9,489.7,456,490,455.2z" />
	<path display="inline" fill="#54504B" d="M494.8,465.9c0-0.3,0.1-0.6,0.1-0.9c0.7,0.5,1.7,0.9,1.2,2.4   C495.5,466.7,495.2,466.3,494.8,465.9z" />
	<path display="inline" fill="#E6C3B4" d="M497.3,453.7c0.3-0.3,0.5-0.6,0.8-0.9C497.8,453.1,497.6,453.4,497.3,453.7z" />
	<path display="inline" fill="#E8C2B3" d="M511.7,443c5.1,0.2,7.7,6.4,9.1,10.5c-4.1-0.5-4.7-7.7-9.2-8.2   C510.9,444.3,510.9,443.6,511.7,443z" />
	<path display="inline" fill="#B9ABA2" d="M607.6,171c0,0.7,0,0.9,0,1.4c-1.2-0.1-2.4-0.1-3.5-0.2c0-0.1,0-0.3,0-0.4   C605.1,171.6,606.3,171.3,607.6,171z" />
	<path display="inline" fill="#130F0F" d="M556.6,144.6c0.7-0.9,1.4-0.9,2.4,0.1c-0.3,0.5-0.7,0.9-1,1.4   C557.5,145.5,557.1,145,556.6,144.6z" />
	<path display="inline" fill="#B6BDD4" d="M598.1,304c-2.8-0.7-5.6-1.4-8.3-2.4c2.3-2.3,3.5-5.3,4.9-8.2c0.1,0.4,0.1,0.8,0.2,0.9   c3,2.1,5.4,3.8,8.4,5.7c0.2,1,0.5,2,0.8,3.1c1.6,0.1,3.2-0.3,4.5,1c-1.2,0.1-3.1-0.8-3.8,0.7c-1.7-0.1-3.5-0.3-5.2-0.7   C598.9,303,598.9,303,598.1,304z" />
	<path display="inline" fill="#181416" d="M567,327.8c6.5-5.8,15.1-7.2,19.2-15.6c0.5,0.3,0.9,0.5,1.4,0.8c-1,4.1-5.3,5.6-6.7,9.3   C575.6,324.9,569.9,327.3,567,327.8z" />
	<path display="inline" fill="#111012" d="M594.7,293.4c-2.1,3.9-4.7,11.2-10.1,10.1c0.5-1.7,1.9-2.3,2.8-3.2c4-1.7,5-14.3,8.6-12.2   C595.6,289.8,595.2,291.6,594.7,293.4z" />
	<path display="inline" fill="#1C1C1F" d="M589.3,356.7c0.5-6.2-1.1-11.4,0.5-17.2C594.6,343.9,592.4,351.4,589.3,356.7z" />
	<path display="inline" fill="#323338" d="M590.8,337.2c-0.3-5.6,0.8-10,0.6-15.6C595.3,325.1,592.4,332.4,590.8,337.2z" />
	<path display="inline" fill="#211D20" d="M601.8,319.2c-3.2-0.2-5.1-4.2-7.9-6.1C597.2,312.9,599.5,314.7,601.8,319.2z" />
	<path display="inline" fill="#33262A" d="M555.6,304.1c0.1-0.5,0.3-0.9,0.5-1.5c1.8,0.3,3.2,0.8,4.7,2.2c-1.4,0.1-2.4,0.1-3.4,0.2   C556.8,304.7,556.2,304.4,555.6,304.1z" />
	<path display="inline" fill="#424046" d="M588.9,361.8c0.5,1.7-0.3,3.2,0.1,5.2C586.4,366,587,363.3,588.9,361.8z" />
	<path display="inline" fill="#353338" d="M564.6,328.8c0.5,1.9-0.2,2.6-2.7,2.6C563,329.8,563,329.8,564.6,328.8z" />
	<path display="inline" fill="#34363B" d="M556.9,338.2c-1-2-1-2,1.9-3.5C558.9,336.5,558.1,336.9,556.9,338.2z" />
	<path display="inline" fill="#241E21" d="M604.8,304.7c0.7-1.5,2.6-0.6,3.8-0.7c0.3,0.4,0.6,0.8,0.9,1.3   C607.6,306.3,606.3,304.5,604.8,304.7z" />
	<path display="inline" fill="#493D44" d="M547.7,316.2c-1.6,1.2-1.6,1.2-4-0.5c0.9-0.2,1.6-0.3,2.3-0.4   C546.6,315.6,547.2,315.9,547.7,316.2z" />
	<path display="inline" fill="#392327" d="M570.4,305.6c1.8-1.3,2.7-1.3,4,0C573.1,305.4,571.8,306.5,570.4,305.6z" />
	<path display="inline" fill="#543A40" d="M564.8,305.6c0.6-1.4,1.7-0.8,2.9-0.6c-0.3,0.5-0.5,0.9-0.7,1.3   C566.3,306.1,565.5,305.9,564.8,305.6z" />
	<path display="inline" fill="#6C6C78" d="M598.1,304c0.7-1,0.8-1,1.5,0C599.1,304,598.6,304,598.1,304z" />
	<path display="inline" fill="#817884" d="M548.6,317.9c0.5,0,1,0,1.5,0C549.4,318.8,549.4,318.8,548.6,317.9z" />
	<path display="inline" fill="#110F0E" d="M501.5,275.5c2.2,2.7,4.4,5.5,6,9c-0.9,0-1.5,0-2.1,0   C503.2,282.9,498.3,277.9,501.5,275.5z" />
	<path display="inline" fill="#60514C" d="M497.4,443.7c1,1.5-0.4,2.5-0.6,4.2c0,0.7,1.3,1.7,0.1,3c-2.6-1.7-0.8-4.7-0.4-7   C496.7,443.8,497.1,443.7,497.4,443.7z" />
	<path display="inline" fill="#2F2A28" d="M500.2,338.4c-2.5-1.7-1.4-3.7-1.1-6.3C500.7,334.4,500.8,336.2,500.2,338.4z" />
	<path display="inline" fill="#B49E96" d="M509.2,257.4c-0.2-1.9-0.2-1.9,1.5-4.4c0.3,0.1,0.6,0.3,0.9,0.4   C511.6,254.8,510.3,255.5,509.2,257.4z" />
	<path display="inline" fill="#4D3E3B" d="M531.3,282.1c0.3,1.3-1.1,1.6-1.6,2.4c-0.6,0.3-1.1,0.6-1.7,0.9   C528.7,282.9,529,282.6,531.3,282.1z" />
	<path display="inline" fill="#504340" d="M516.7,245.5c1.2-0.7,2.3-1.5,3.5-2.2c1.6,1.7-1.7,2.2-2.6,3.1   C517.3,246.1,517,245.8,516.7,245.5z" />
	<path display="inline" fill="#473E3B" d="M494.2,373c1.7,0.8,1.6,2.3,2.8,4.1C494.5,376.8,493.8,375.2,494.2,373z" />
	<path display="inline" fill="#382C2A" d="M499.4,327.2c0.7,1.1,0.6,2.2,0.2,3.3C497.8,329.7,497.8,329.2,499.4,327.2z" />
	<path display="inline" fill="#83736D" d="M497.4,443.7c-0.3,0-0.7,0.1-1,0.1c0.4-1.4-0.6-3.7,1.3-4.1   C498.4,441.3,496.5,442.4,497.4,443.7z" />
	<path display="inline" fill="#BFACA3" d="M516.7,245.5c0.3,0.3,0.6,0.6,0.9,1c-0.9,0.7-1.9,1.3-3,2.1   C515,246.9,515,246.9,516.7,245.5z" />
	<path display="inline" fill="#5E4643" d="M527.9,238.6c-0.7,1.7-2.1,1.1-3.6,1.3C526.2,238.2,526.2,238.2,527.9,238.6z" />
	<path display="inline" fill="#3F3936" d="M498.8,418.6c0.9,1.1,1.4,2.2,0.7,3.6c-1.3-0.6-1.4-1.7-1.7-2.7   C498.2,419.3,498.5,419,498.8,418.6z" />
	<path display="inline" fill="#CCB6AC" d="M533.9,238.2c0.3,0.5,0.6,0.9,0.9,1.4c-1.2,0.2-2.4,0.4-3.2-1.2   C532.4,238.3,533.2,238.3,533.9,238.2z" />
	<path display="inline" fill="#251C1B" d="M491.3,368.6c-1.2-0.7-1.2-1.6-0.8-3C491.7,366.7,491.9,367.5,491.3,368.6z" />
	<path display="inline" fill="#2F2B28" d="M508.5,286.1c0.9-2.1,1.9-0.5,2.4,0.9l0.2-0.1c-0.1,0.3-0.1,0.6-0.2,0.8   c-0.3-0.1-0.5-0.1-0.7,0.1C509.6,287.3,509.1,286.7,508.5,286.1z" />
	<path display="inline" fill="#8D8079" d="M496,415.1c-1.2-0.4-1.4-1.3-1-2.5C496.4,413.5,496.4,413.5,496,415.1z" />
	<path display="inline" fill="#70625D" d="M489.6,362.7c-0.2,0.2-0.2,0.3-0.3,0.4c-0.1,0-0.2,0.1-0.6,0.1c-0.6-0.7-0.6-1.5-0.1-2.8   C489,361.4,489.3,362.1,489.6,362.7z" />
	<path display="inline" fill="#6F615B" d="M492.1,451.3c-2.1-0.9-1.2-2.1-1.5-3.5C491.7,449.2,491.7,449.2,492.1,451.3z" />
	<path display="inline" fill="#CAB2A9" d="M498.4,323.1c1-0.1,1.7,1.8,0.4,1.8C497.9,324.7,497.9,323.7,498.4,323.1z" />
	<path display="inline" fill="#7E6C66" d="M494.2,410.3c-2.2-2,1.2-3.2,0.6-0.2C494.6,410.1,494.4,410.2,494.2,410.3z" />
	<path display="inline" fill="#5D514C" d="M493.3,306.6c0.9,0.4,1.2,1.1,1.3,2c-0.5,0.1-0.9,0.2-1.4,0.2c0-0.3-0.2-0.5-0.3-0.7   C493,307.5,493.1,307,493.3,306.6L493.3,306.6z" />
	<path display="inline" fill="#6F5853" d="M498.8,418.6c-0.3,0.3-0.6,0.7-1,1c-0.4-0.7-0.8-1.5-1.2-2.3   C498.2,416.9,498.5,417.9,498.8,418.6z" />
	<path display="inline" fill="#706560" d="M510.2,287.8c0.5-0.2,1.1,0,1.7-0.1c0.3,0.2,0.5,0.5,0.8,0.7c0,0.4-0.1,0.7-0.1,1.1   C511.8,289,511,288.4,510.2,287.8z" />
	<path display="inline" fill="#443331" d="M512.6,289.6c0-0.4,0.1-0.7,0.1-1.1c0.6,0.6,1.1,1.1,1.7,1.7c-0.3,0.3-0.6,0.6-0.9,0.9   C513.2,290.5,512.9,290,512.6,289.6z" />
	<path display="inline" fill="#766E68" d="M513.5,291c0.3-0.3,0.6-0.6,0.9-0.9c0.8,0.6,1.2,1.3,0.2,2.5   C514.2,292,513.8,291.5,513.5,291z" />
	<path display="inline" fill="#EDC9B9" d="M494.9,311.3c1,1.3,1,1.3-0.1,2.5c0-0.8,0-1.6-0.1-2.4L494.9,311.3z" />
	<path display="inline" fill="#746560" d="M494.7,311.4c0,0.8,0,1.6,0.1,2.4c-1.4-0.4-0.7-1.5-0.8-2.3   C494.3,311.4,494.5,311.4,494.7,311.4z" />
	<path display="inline" fill="#EDC9B9" d="M493.3,306.5c-0.1,0.5-0.3,1-0.4,1.5C492.1,307.3,492.2,306.8,493.3,306.5z" />
	<path display="inline" fill="#706560" d="M510.9,287c-0.2-0.4-0.3-0.7-0.5-1.1c0.2,0.1,0.4,0.2,0.6,0.2   C511,286.4,511,286.7,510.9,287z" />
	<path display="inline" fill="#ECC9B9" d="M511.9,287.7c-0.3,0-0.6,0-1,0.1c0.1-0.3,0.1-0.6,0.2-0.8   C511.4,287.2,511.6,287.4,511.9,287.7z" />
	<path display="inline" fill="#4A64C4" d="M559.8,421.1c0-0.3,0.1-0.6,0.1-0.9c1.3-0.4,2.5-0.7,3.7-1.1c0.1-0.5,0.2-0.9,0.2-1.3   c11.8,0.5,22.5-5.8,32.6-11.2c-6.3,8.9-19.4,11.9-28.4,17.6C565.3,423.2,562.7,421.7,559.8,421.1z" />
	<path display="inline" fill="#4B65C5" d="M551.7,412.9c-1.5-0.5-2.5-1-3.9-2c9.5-4.7,19.4-8.7,28.2-15.3c-0.4-0.4-0.6-0.5-0.8-0.7   c0.5-0.3,1.1-0.6,1.8-1.1c0.1,1,0.2,1.7,0.4,2.8C569.7,403.3,560.2,407.5,551.7,412.9z" />
	<path display="inline" fill="#4D67C9" d="M576.9,381.2c-8.6,5.9-18,10.6-26.4,16.9c-2,1.5-2.8,2.6-5.8,2.6   C553.4,392.1,565.5,385.4,576.9,381.2L576.9,381.2z" />
	<path display="inline" fill="#100E1A" d="M596.5,406.6c-10,5.4-20.8,11.8-32.6,11.2c-0.2-0.3-0.4-0.6-0.6-0.9   c11.3-1.2,22-6,32.1-11.4C595.8,405.9,596.3,406.1,596.5,406.6z" />
	<path display="inline" fill="#4B66C6" d="M587.5,421.6c-0.7,3.4-4,6.1-7.6,6.6c-1.6-0.8-1.6-2.2-1-3.7   C582.1,422.3,582.1,422.3,587.5,421.6z" />
	<path display="inline" fill="#333B6B" d="M575.2,395c0.2,0.2,0.4,0.3,0.8,0.7c-3.1,2-6,3.9-8.9,5.8c-0.3-0.3-0.6-0.6-0.8-0.8   C569.2,398.8,572.2,396.9,575.2,395z" />
	<path display="inline" fill="#1F213C" d="M559.8,386.1c-0.3-0.3-0.6-0.5-0.9-0.8c1.6-1.1,3.3-2.2,4.9-3.2c0.3,0.3,0.5,0.5,0.8,0.8   C563,383.9,561.4,385,559.8,386.1z" />
	<path display="inline" fill="#1F223D" d="M596.4,406.4c-0.3-0.3-0.6-0.6-0.9-0.9c1.4-0.8,2.8-1.6,4.2-2.4c0.3,0.3,0.6,0.6,0.8,0.9   C599.1,404.8,597.7,405.6,596.4,406.4z" />
	<path display="inline" fill="#394681" d="M564.7,382.8c-0.3-0.3-0.5-0.5-0.8-0.8c1.3-1,2.3-2.3,4.1-2.4l0,0   C567.2,381,566.1,382.1,564.7,382.8z" />
	<path display="inline" fill="#3E4C8C" d="M600.4,404c-0.3-0.3-0.6-0.6-0.8-0.9c1-1.2,2.4-1.5,4.4-2.2   C602.8,402.6,601.7,403.3,600.4,404z" />
	<path display="inline" fill="#4857A1" d="M568,379.6c0.5-0.8,0.9-1.4,1.9-1.6C569.4,379.3,569.4,379.3,568,379.6L568,379.6z" />
	<path display="inline" fill="#4D67C9" d="M576.9,381.2c0.2-0.6,0.5-0.9,1.6-0.3C577.7,381.1,577.3,381.2,576.9,381.2L576.9,381.2z" />
	<path display="inline" fill="#1B1514" d="M582.6,242.8c2.9-1.4,4.9,0.2,7.4,1.4c2-1.5,5.9-3.8,8-1.6c-2.1,2.1-5.8,0.8-7.1,3.8   C587.8,246.7,585.5,244,582.6,242.8z" />
	<path display="inline" fill="#4A474F" d="M532.4,323.6c-2.6-0.2-5.8-1-4.3-3.4C529.4,321.2,530.6,322.2,532.4,323.6z" />
	<path display="inline" fill="#45373E" d="M540.2,312.9c0.8,0.4,1.6,0.8,2.7,1.3C541.2,315,540.4,314.6,540.2,312.9z" />
	<path display="inline" fill="#514E58" d="M540.2,327c-1.1,1-1.6-0.1-2.7-0.5C539.1,325.7,539.8,325.8,540.2,327z" />
	<path display="inline" fill="#5B5058" d="M535.9,325.1c-0.6,0-1.3-0.1-1.9-0.1c0-0.2,0-0.4,0-0.5c0.6,0,1.3,0.1,1.9,0.1   C535.9,324.7,535.9,324.9,535.9,325.1z" />
	<path display="inline" fill="#71525B" d="M535.9,336.9c-0.3,0.5-0.6,0.5-1,0.2C535.2,336.5,535.5,336.6,535.9,336.9z" />
	<path display="inline" fill="#554640" d="M564.3,204.1c4.7,0.9,5,7.5,7.7,10.9c0.7,1.3,0.7,1.3,0.6,4.1c-1.1-0.9-2.2-1.5-1.9-3.1   C569.3,211.9,566.7,208.7,564.3,204.1z" />
	<path display="inline" fill="#716059" d="M558.9,216.9c0.7-0.5,0.6-0.7,1.4-0.5c0.9,2.1,1.6,4.3,1.1,6.7c-2.2-0.4-0.8-2-1.2-3   C559.5,219.1,559.2,217.9,558.9,216.9z" />
	<path display="inline" fill="#54433E" d="M591,218c1,2.1-2.2,3.6-3.7,4.9C587.2,220.9,588,219.8,591,218z" />
	<path display="inline" fill="#B4988B" d="M577.8,226c-2.1-0.4-2.1-1.6-2.6-2.8C576.8,224,576.8,224,577.8,226z" />
	<path display="inline" fill="#16110F" d="M501.5,275.5c-1,0.2-1,1-1.1,1.8c-2.2-2.9-1.7-6.4-1.7-9.9c0.5-0.3,1-0.6,1.7-1   C500.9,269.7,499.3,273.1,501.5,275.5z" />
	<path display="inline" fill="#D2B5A7" d="M559.1,178.1c0.1-0.1,0.3-0.2,0.4-0.3c0.1,0.4,0.3,0.7-0.2,0.9   C559.3,178.5,559.2,178.3,559.1,178.1z" />
	<path display="inline" fill="#201C1A" d="M650.1,445.5c0.5,0,1-0.1,1.8-0.1c-0.3,5.2-2.8,9.6-3.4,14.7c-0.2,0.1-0.4,0.2-0.9,0.4   C647.1,455.3,649.2,450.5,650.1,445.5z" />
	<path display="inline" fill="#261F1D" d="M662,401.4c0.2-0.4,0.3-0.6,0.4-0.8c2.3-1.5,7.8,8.1,7.7,9.8   C666.4,408.5,664.9,404.1,662,401.4z" />
	<path display="inline" fill="#201716" d="M660.6,434.1c0.5,1.1,1.1,2.2,1.6,3.3l0.1-0.1c-3.7-0.6-5.3-5.1-9-6c0-0.5,0-0.9,0-1.3   C656.5,429.3,658.4,432.3,660.6,434.1z" />
	<path display="inline" fill="#E8C1B2" d="M660.6,434.1c-2.2-1.7-4.2-4.7-7.3-4.1c0-1.2-0.1-2.4,1.3-3.1   C657.7,428.4,659.6,430.6,660.6,434.1z" />
	<path display="inline" fill="#5D524D" d="M643.5,496.7c-0.8-2.4,0.7-4.9-0.4-7.5c-0.3-1.3-0.1-2.4,1.2-3   C643.8,489.7,647,494.2,643.5,496.7z" />
	<path display="inline" fill="#3A3431" d="M662.3,437.3c2.8,0.3,3.5,2.2,3.5,4.8C664.5,440.5,662.1,439.5,662.3,437.3L662.3,437.3z" />
	<path display="inline" fill="#7A6A64" d="M642.6,392.8c1.9,0.4,3.3,0.5,4.9,1.8c-2.5,1.3-4-0.6-5.8-1   C642.1,393.3,642.4,393.1,642.6,392.8z" />
	<path display="inline" fill="#423735" d="M669.5,448.2c-1.3-1.7-2.4-2.7-2.8-4.1C669.3,444.1,669.6,444.5,669.5,448.2z" />
	<path display="inline" fill="#514441" d="M669.8,449.5c1.6,1.2,2.6,2.3,2.1,4.3C670.4,452.6,670.4,452.6,669.8,449.5z" />
	<path display="inline" fill="#685953" d="M650,442.2c0-1.2,0-2.4,0-3.6c1,1.3,2.1,2.5,1.4,4.3c-0.5,0-0.8,0-1.2,0   C650.1,442.7,650.1,442.4,650,442.2z" />
	<path display="inline" fill="#463E3B" d="M645.2,471.4c-0.3-1.9-0.3-3.5,1.9-4.4c0,1.9-0.3,3.2-1.1,4.4   C645.8,471.5,645.5,471.5,645.2,471.4z" />
	<path display="inline" fill="#49423F" d="M642.6,392.8c-0.3,0.2-0.5,0.5-0.8,0.7c-1.4-0.2-2.9,0.2-4.1-0.8c0.3-0.2,0.6-0.4,1-0.6   C640,392.3,641.3,392.6,642.6,392.8z" />
	<path display="inline" fill="#571B1A" d="M638.7,392.1c-0.3,0.2-0.6,0.4-1,0.6c-1.1,0-2.3,0.4-3.6-0.5   C635.7,391.5,637.2,391.8,638.7,392.1z" />
	<path display="inline" fill="#120A0A" d="M661.6,398.4c0.3-0.9,0.6-1.5,0.9-2.4c0.5,0.4,0.8,0.8,1.1,1   C663.4,398,663.1,398.8,661.6,398.4z" />
	<path display="inline" fill="#2B1D1C" d="M674.2,413.5c-0.4,0.2-0.8,0.3-1.2,0.5c-0.4-0.9-1.3-1.5-0.8-2.5   C673.5,411.5,673.8,412.5,674.2,413.5z" />
	<path display="inline" fill="#65625D" d="M645.2,471.4c0.3,0,0.5,0,0.8,0c-0.1,0.7-0.2,1.5-0.3,2.2c-0.2,0-0.3,0-0.5,0   C645.3,472.9,645.3,472.2,645.2,471.4z" />
	<path display="inline" fill="#41423F" d="M645.2,480.4c-1.4-0.5-0.9-1.4-0.5-2.3h0.2C645,478.8,645.1,479.6,645.2,480.4   L645.2,480.4z" />
	<path display="inline" fill="#EECABA" d="M645.2,480.4c-0.1-0.8-0.2-1.5-0.3-2.3C646.3,478.7,646.3,479.3,645.2,480.4z" />
	<path display="inline" fill="#2C2725" d="M568.8,521.1c0.5,0.1,0.9,0.3,1.6,0.5c-3.5,7-3.8,13.5-1.1,20.8   C563.3,543,565.8,524.7,568.8,521.1z" />
	<path display="inline" fill="#2F211F" d="M579.2,550.3c2.9-2.5,5.3-5.7,9.5-5.7c-2.5,3.2-5.4,4.5-8.5,6.7   C579.9,550.9,579.5,550.6,579.2,550.3z" />
	<path display="inline" fill="#514742" d="M553.6,525.8c1.3,0.9,0.4,2.8,0.5,4.2l0.1-0.1c-0.8-0.6-1.5-1.2-2.3-1.8   c-0.7-2.6-1.3-5.2-0.1-7.9C553.4,521.9,551.5,524.6,553.6,525.8z" />
	<path display="inline" fill="#594944" d="M576.2,503.2c0.6-2.2,1.6-4.1,2.5-6.4c1.2,1.1,0.6,2.2,0.7,3.1c-2.2,1.7-1.5,4.4-2.3,6.8   C577,505.4,577,504.2,576.2,503.2z" />
	<path display="inline" fill="#322B28" d="M576.2,503.2c1.3,1.8,0.8,4.2,0.6,6.3c-0.4,0.3-0.8,0.6-1.4,1   C574.8,507.7,576.3,505.6,576.2,503.2z" />
	<path display="inline" fill="#5C4A45" d="M553.6,525.8c-1.8-1.5-0.7-4.3-1.9-6.4c0.4-0.5,0.8-0.9,1.2-1.5   C554.4,520.2,552.2,523.3,553.6,525.8z" />
	<path display="inline" fill="#71625C" d="M506.9,518.5c-1.3,0.4-1.6-1-2.4-1.5c0-0.4,0.1-0.8,0.1-1.2   C506.4,516.4,506.4,516.4,506.9,518.5z" />
	<path display="inline" fill="#504541" d="M501.7,513.9c-0.6-0.4-1.3-0.8-2-1.3C501.1,511.8,501.1,511.8,501.7,513.9z" />
	<path display="inline" fill="#826B63" d="M511.2,521.8c-0.3,2-2.9-0.2-0.9-0.8C510.6,521.3,510.9,521.5,511.2,521.8z" />
	<path display="inline" fill="#895C59" d="M571.2,548.7c-0.6,1-0.7,1-1.5,0C570.2,548.7,570.7,548.7,571.2,548.7z" />
	<path display="inline" fill="#1D1312" d="M624,433.7c7.1-3.4,14.1-8.9,22-11.2C640.4,426.7,631,434.9,624,433.7z" />
	<path display="inline" fill="#483C37" d="M648.4,523c-1.1-1.8-0.5-2.6,0.6-3.5C649.7,520.8,649.6,521.7,648.4,523z" />
	<path display="inline" fill="#2A1F1D" d="M646.4,535.5c-1-1.3-0.6-2.4-0.3-3.5C648,531.7,647.1,534.4,646.4,535.5z" />
	<path display="inline" fill="#3F1716" d="M647,422.9c0.4-1.2,1.1-1.3,2.1-0.7C648.7,423.1,648.1,423.6,647,422.9z" />
	<path display="inline" fill="#957369" d="M646.8,539c-0.5-0.3-1-0.5-1.5-0.8c-0.1-0.8,0-1.6,1.4-1.3   C646.6,537.5,646.7,538.2,646.8,539z" />
	<path display="inline" fill="#221918" d="M654.1,422.7c-0.8,0-1.5,0-2.4,0c0.5-1.5,1.5-1,3-1.7   C654.5,421.8,654.3,422.3,654.1,422.7L654.1,422.7z" />
	<path display="inline" fill="#2B221F" d="M647.2,526c0.8,1.1,0.8,2,0,3.1C646.3,528,646.4,527,647.2,526z" />
	<path display="inline" fill="#4C413C" d="M650.2,515.2c-0.1,0.5-0.2,1.1-0.3,1.6c-0.1,0-0.3,0-0.4,0c0-0.6,0-1.1,0-1.7   C649.7,515.1,649.9,515.2,650.2,515.2z" />
	<path display="inline" fill="#3E211F" d="M611.9,438.4c0.5,0,1,0,1.5,0c0,0.1,0,0.3,0,0.4c-0.5,0-1,0-1.5,0   C611.9,438.6,611.9,438.5,611.9,438.4z" />
	<path display="inline" fill="#4E433E" d="M573.6,512c0.1,2.2-0.5,3.1-2.2,3.4C571.1,513.5,572.2,513.5,573.6,512z" />
	<path display="inline" fill="#6E5B55" d="M554.1,530c0.4,0,0.8,0,1.4,0c0,0.8,0.1,1.5,0.1,2.3C554.4,531.8,554.1,531,554.1,530   L554.1,530z" />
	<path display="inline" fill="#1D284E" d="M573.3,473.8c-0.9-1.4-0.3-2.8-0.4-4.4C574.9,469.5,575.4,473.3,573.3,473.8z" />
	<path display="inline" fill="#7C6860" d="M523.3,534c-0.3,0.3-0.6,0.6-1,1c-1.3-1.1-2.7-2.1-3.3-4.3   C521.3,531.3,522.2,532.7,523.3,534z" />
	<path display="inline" fill="#AC968B" d="M579.2,550.3c0.3,0.3,0.6,0.7,1,1c-1.1,1.6-2.4,2.8-5,1.8   C576.6,551.4,578.1,552.2,579.2,550.3z" />
	<path display="inline" fill="#4E3A36" d="M514.4,525c0.8,0.8,1.8,1.4,2.4,2.5c-1.7,0.4-1.7,0.4-3.4-1.5   C513.7,525.7,514,525.3,514.4,525z" />
	<path display="inline" fill="#9E8278" d="M514.4,525c-0.3,0.3-0.7,0.7-1,1c-0.4-0.7-0.9-1.4-1.4-2.2   C513.4,523.4,513.9,524.2,514.4,525z" />
	<path display="inline" fill="#11162C" d="M606.9,461.8c2.5,4.7,5.8,10.4,4.9,15.8c-1.2,0.1-1.2-1-1.3-1.6   c-0.9-4.4-2.7-8.5-4.4-12.6C606.2,462.8,606,462,606.9,461.8z" />
	<path display="inline" fill="#13172C" d="M612.4,460.1c-2.9-0.6-2.5-3.4-4.1-5.1C610.9,454.1,613.6,457.8,612.4,460.1z" />
	<path display="inline" fill="#37468A" d="M606.9,461.8c-0.9,0.2-0.7,1-0.8,1.6c-0.9-1.3-1.4-2.7-1.6-4.7   C606.2,459.3,606.4,460.7,606.9,461.8z" />
	<path display="inline" fill="#2A3532" d="M484.6,507.9c1-1.3,1.5-1.6,2.5-0.2C486.3,507.8,485.7,507.9,484.6,507.9z" />
	<path display="inline" fill="#52554F" d="M479.7,507.8c-2.1,0.6-2.2-1.1,0-0.4C479.7,507.5,479.7,507.6,479.7,507.8z" />
	<path display="inline" fill="#271E1D" d="M590.7,170.8c-0.3-0.3-0.6-0.6-0.8-0.8C590.1,170.2,590.4,170.5,590.7,170.8z" />
	<path display="inline" fill="#25191A" d="M721.5,583.7c0.4,0.2,0.9,0.5,1.5,0.9c-1.9,1.3-2.6,1.6-4.5,1.7c-0.3-0.3-0.6-0.6-1-0.9   C718.9,584.8,720.2,584.3,721.5,583.7z" />
	<path display="inline" fill="#1C1616" d="M699.4,575.6c1.8,1.9-1.5,3.7-2.6,1.3C697.3,576.1,697.9,575.4,699.4,575.6z" />
	<path display="inline" fill="#8E9196" d="M715,588.5c-0.6,0-1.3,0.1-1.6-0.8c0.8-0.5,1.7-1,2.5-1.5c0.3,0.3,0.5,0.5,0.8,0.8   C716.2,587.5,715.6,588,715,588.5z" />
	<path display="inline" fill="#5B5A5D" d="M716.8,587c-0.3-0.3-0.5-0.5-0.8-0.8c0.5-0.3,1-0.6,1.6-0.9c0.3,0.3,0.6,0.6,1,0.9   C717.9,586.5,717.4,586.7,716.8,587z" />
	<path display="inline" fill="#D5DDE4" d="M716.8,587c2-1,3.9-1.1,6.1-0.8c0.1,0.6,0.1,1.2,0.2,2.1c-2.8,0.3-5.5,0.1-8.1,0.2   C715.6,588,716.2,587.5,716.8,587z" />
</g>
</svg>