<?xml version='1.0' encoding='utf-8'?>
<svg xmlns="http://www.w3.org/2000/svg" version="1.2" baseProfile="tiny" id="Layer_1" x="0px" y="0px" viewBox="0 0 900 600" overflow="visible" xml:space="preserve">
<g id="a_00000022546297099655984820000013709022707491882166_">
	<path d="M483.8,252c6.1-2.2,13.4,2.3,18.3-3.9c9.5-7,22.2-8.6,32.2-15c9.7-6.4,21.8-8.2,30.4-16.5c4.4-3.8,8.8-8,14.5-9.8   c17.1-6.8,28.6-22.1,46.2-28.3c3.7-8.5,10-15,17.2-20.8c-1.3,3.9-5.3,5.2-7.5,9c1.2,0.4,2.1,0.7,2.9,1c-3.2,3.3-7.5,5.9-10.3,9.5   c-0.1,1.2-0.2,2.1-0.3,3.1c-38.9,32.2-84.8,52.6-129.2,76c1.4,1.3,2.8,2.6,4.2,3.9c-2,3.2-5-0.4-6.8-1.7c0.1-0.9,0.2-1.8,0.3-2.9   c-0.6,0.1-0.9,0.2-1.4,0.3c0.7,24.8,4.9,50.9,6.2,76c45.4-1,91-11.6,135.8-1.2c11.1-1.9,15.6-2.5,22.4-8.2   c18.1-14.1,38.2-26.9,52.7-45.5c1.6-0.2,2.6-0.3,3.6-0.4c23.3-23.1,28.4-23.4,36.1-57.5c2.1-5.4-0.1-9.5-2.5-14.2   c-3.3-10-6.9-19.5-8.8-29.7c-0.6-0.2-1-0.3-1.4-0.4c-0.2-1.1-0.4-2.1-0.6-3.4c-1.8,3.4-5.6,4.8-5.9,8.5c0.8,0.2,1.5,0.4,2.1,0.6   c-1.6,8.5-4.3,16.5-9.5,23.5c-0.1-0.8-0.2-1.6-0.3-2.5c-0.9,0.2-1.4,0.3-2,0.4c3.5-6.1,7.9-13.3,6.4-20.5   c-4.4,8.7-10.1,16.3-13.3,25.5c-0.8-0.1-1.4-0.3-2.4-0.4c0.5-17.9,14.1-31.2,27-41.7c0.9,0.2,1.9,0.4,3.5,0.7   c22.8-9.3,42.1-24.6,55.4-45.6c3-4,8.7-3.7,10.6-8.9c2.7-3.8,7.6-4,8.8-9.3c0.1,0.6,0.3,1.2,0.4,1.9c1.1-0.3,2-0.5,2.8-0.7   c-1.9,3.1-4.1,5.9-7.8,7c-4.9,10-16.7,15.9-20.4,27.1c-4.6,3.1-7,8.9-10.7,13.2c6.1,4.1,11.9,15.2,20.4,10.9   c7.4-0.7,4.6-13.4,14.2-12.1c0-1.3,0-2.3,0-3.6c-1.3-0.2-2.5-0.4-3.7-0.6l0,0c0-0.9,0-1.8,0-2.7c4-0.6,6.9,2,10.6,2.9   c1-2.8,1.9-5.3,2.9-7.8c-1.2-0.7-2.3-1.4-3.1-1.9c-0.6-1.8-1.2-3.3,0-4.7c3,2.8,6.5,4.5,10.2,7.1c1.6-8.5,2-16.1,4.3-24.2   c1.1-1.1,2.3-2.1,3.4-3.2c-4.7-5.9-11.4-3.9-17.4-6.9c5.8-3.1,11-0.9,16.5-0.2c7.2,6.8,6.4,6.6-0.4,13c-0.5,7.4-1.9,16-4.2,23.1   c-2.2,1.9-3.9,0.1-5.7-0.1c-3.7,1.5-2.8,5.9-5.4,8.4c-1.4,0.1-3,0.2-4.7,0.3c-0.6,1.3-1.2,2.7-1.9,4.3c-9.2-3.1-7,12.1-15.3,12.5   c-10.3,3.8-16.3-6.7-23.3-12.4c-5.7,6.9-18,6.5-20,15.8c-5.3,56.4,4.5,67.9-41.5,111.6c-22.1,20.7-43.9,43.7-72.5,55.5   c75.8,50.6,112.4,179.2,22.1,234.5C620.9,602.3,558,604,502.6,596c-67.6-5.7-130-63.6-129.2-133.6c-0.4-0.3-1-0.8-1.8-1.5   c2.4-8.3,4.9-16.9,8.6-24.5c-21.8,24-20,34.2-43.5,2.8c-8.9,6.1-19.1,11.5-30,11.1c-3.7-0.5-6.6,1.6-9.2,3.4   c-14.3,10.3-26,7.1-41.3,4.8c-28.3,4.5-56.7,10.3-85.3,11.9c-22.6-0.2-44.9,2.1-66.3,10.2c-2,18.2-7.6,37-2.5,55.1   c1.4,4,3,7.8,5.9,10.8c6.3,7.4,0.9,18-8.1,19.7c1.2,7.7-5.1,14.8-11.9,17.5c-8.4-5.9-19.2-5.3-27.6-11.2   c-16.5-9.9-40.9-33.8-36.4-54.7C8.9,500.5-5.2,478.2,1.9,454.2c2.5-1.3,2.5-1.3,7.9-1.4c0.6-13.6,15.8-11,25.1-13.6   c10.7-3.8,21.7-4.6,33-4.9c1.6,1.3-0.4,2.7,0.3,4c79-2.2,108.4-63.5,188.8-38.6c11.9-10.6,23.5-19.4,36-28   c-6-24.3,60.3-69.5,78.6-85.1c13-16,30.1-27.5,47.2-38.8c20.1-13.6,44.9-0.1,65.4,5.1c-0.4,0.6-0.8,1.3-1.2,1.9   c-0.5,0.2-1.1,0.4-1.8,0.6c-0.7,7.6,1.4,16.3-0.8,23.3c-1.6-2.6-4.9,0.2-7.3-1.2c1.5-2.9,4.3-0.8,6.2-2.1c0-3.3,0-6.6,0-9.7   c-1.8-1.9-4.1-1.4-6.3-2c1.8-1.1,4-0.9,6.3-1.5c0-2.9,0.2-5.2,0.5-8.2c-49.9-19.1-65.6-3.2-100.9,30.6   c-28.7,24.9-58.8,47.7-83,77.1c0.5,2,2.3,2.7,1.9,4.9c-0.9-0.5-1.7-0.9-2.7-1.5c2.2,16.2,16.7,26.6,21.8,41.7   c12.6,16.4,23.9,36.4,41,48.1c40.9-40.8,50-49,58.4-107.4c3.3,18.9-5.4,37.9-10.9,55.9c12.6-14.3,20.8-32.8,40.4-38.4   c2.9-4.9,1.6-9.6,1.9-14.8c-0.1-14.9,1.7-30.3-0.6-44.7c0.7,0,1.4,0,2.4,0c3.3,14.4-0.3,30.5,1.8,44.4c1-0.8,1.9-1.6,2.9-2.4   c0.7,4-3.5,6.9-2.3,11.5c11.7-1.3,16.3-13.6,26.9-16.9c-1.5-0.4-2.1-0.4-2.5,0.4c-2.6,1.5-5.8,0.2-8,2.4c0.9,0.5,1.7,1.1,2.5,1.6   c-2.9,0-3.2,0.2-3.9,2.9c-0.3-0.1-0.6-0.1-0.9-0.1c-0.3-0.3-0.7-0.6-1-0.9c0-1.4,0-2.8,0-4.6c2.3-1.9,4.6-3.2,7.4-4.7   c-2-1.6-3.9-1.2-5.8-1.2c-3.6,4.4-6.5,9.3-10.4,13.4c-2.5-2.7,3-8.4,4.5-11.1c-0.6-0.2-1.1-0.3-1.5-0.4c1.9-5.7,13-10.2,18.8-11.9   c1.4,4.4-7.6,4.4-10.2,7.7c3,0.7,5.6,1.3,7.9,1.9c3.9-0.4,7.4-3,10.9-0.8c3.1-0.8,5.8-1.6,7.8-4.2c-0.7-0.2-1.3-0.4-1.8-0.6   c0-0.5,0-1.1,0-1.6c1.3-0.4,2.5-0.7,3.8-1.1c2-3.3,1.1-9.2-1-12.4l0,0c-0.5-1.9,0.8-4.2-0.8-5.8c-1-16.6-1.7-33.3-4-49.7   c-1.3-2.2-4.2,0.3-5.6-1.7c2.8-1.3,5.5-1.4,6.9-4.6c-3-0.8-5.5-1.5-8-2.2C484,252.5,483.9,252.2,483.8,252z M153.4,417.1   c1,0,2.2,0.3,2.9-0.8c89.8-45,83.9,11,119.2-28.3c-5.4,1.8-10.7,8.4-15.2,12.4c-17.3,6.1-28.1-11.6-50.5-3.3c0,0,0,0,0,0   c-20.6,0.3-40.1,12-57.8,20.4c0.1,0.2,0.2,0.4,0.3,0.6C152.7,417.6,153.1,417.3,153.4,417.1z M103.7,436.1c-11.9,1-23.9,4.1-36.1,5   c-0.1,1.5-2,2.9-0.2,3.8c22.9-6,47.2-8.7,69.3-16.7c-0.3-0.4-0.6-0.9-0.9-1.2c1.4-0.9,2.7-1.6,4.9-3c-2.6,0.3-4.4-0.8-5.4,0.7   C125.4,429.9,114.2,432.8,103.7,436.1z M678.1,553.6C678.1,553.6,678,553.7,678.1,553.6c3-1.5,7.1-4.9,8.4-8.3   c-0.8,0.3-1.3,0.6-1.8,0.8c0-0.4,0-0.7,0-1.1c1.3-1.3,2.6-2.6,3.9-3.8c0.1,0.6,0.1,1.2,0.2,2.2c58.8-55.1,14.3-180.7-54.4-208.8   c-0.4-1-0.8-1.7-1.1-2.4c-41.5-6.9-82.9-0.3-124.4,1.5c-9.2-0.4-15.5,5.5-23,9.4c-13.6,2.6-20.8,16.4-34.2,19.6   c-1.5,3.9-4.2,6.2-7.8,7.5c-12.6,4.6-20.2,16.2-27.7,26.6c-10.4,14.7-25.8,24-32.1,41.4c0.4,0.4,0.7,0.7,1.1,1.2   c-23,49.5,23.9,128.3,76.2,138.9c52.9,19.8,152.4,28.2,197.4-10.4c0.5-0.1,1.1-0.2,1.6-0.3c0-0.1,0-0.3,0-0.4   c-0.5-0.1-1.1-0.1-1.6-0.2c2.9-3.3,7.1-5.1,10.6-7.7c0.2,0.3,0.5,0.6,0.9,1.2c2.1-1.7,4.1-3.3,6.1-5   C677.6,555.8,678.1,554.8,678.1,553.6z M97.1,496.5c0,0.6,0.1,1.1,0.2,1.9c1.1,0,2,0,3.2,0c0.4-3.1,0.8-6.1,1.2-9.6   C99.2,491.1,96.7,493.3,97.1,496.5z M93.4,520.4c1.1-0.5,2.3-1,3.5-1.5c0-1.7,0-3.3,0-5c-1.1,0.5-2.1,0.9-3.2,1.4   c-0.8,2.1-1.6,4.2-2.3,6.4c0.2,0.1,0.3,0.2,0.5,0.3C92.3,521.4,92.9,520.9,93.4,520.4z M753.4,184.7c-0.1-7.9,2.9-15,3.7-22.8   c-5.5,2.3-10.1,5.5-14.5,9.1c-0.1,1.1-0.3,2.4-0.4,3.5c0.6,0.2,1.1,0.3,1.8,0.4c1.7,5.6,5.3,28,9.4,29.4   C753.4,197.9,753.6,191.3,753.4,184.7z M105.4,558.3c5.4-3.9-1.6-12.7-5.1-15.9c-1.4-2.9-1.4-6.8-3-9.5c-1.1,0.2-2.2,0.3-3.7,0.6   c1.1-2.2,1.8-2.9,3.6-4.2c-0.3-2.4,0.1-4.8-0.6-7c-1.9,0.4-3.5,0.7-5.4,1.1c0.6,13.9-3.1,28.7,7.5,39.7   C101.5,561.6,103.5,560.5,105.4,558.3z M76,462l-0.1-0.1c-1.2,2.7-4,1.7-6.6,2.2c1.3,5.3,10.5,12.7,6.3,17   c22.2-1.1,42.1-9.5,63.8-12.8c38.7-0.1,77.8-4.7,115.4-13.4c0-0.4,0-0.9,0-1.3c1-1.1,2.2-1.6,3.8-1.4c-0.3,0.8-0.5,1.4-0.7,1.9   c18,6.1,24.6,2.2,41.5-4.2c0.6-1.1,1.1-1.8,1.5-2.5c12.3-0.3,23.9-2.7,34.3-9.6c-16.6-18.8-26.9-42.3-41.1-62.5   c-41.1,54.9-53.8,12.4-105.8,31.4c-39.1,18.9-78.5,35.4-121.6,42.3c1,4.3-0.2,8,2,11.8C71.1,461.2,73.8,460.4,76,462z M13.9,456.2   c-3,0.2-5.9,0.5-9.1,0.8c-1.6,45.5,14,37.7,22.6,63.2c-2.4,15.5,10.1,25.8,19.2,36.4c9.9,14.5,27,17.1,42.3,22.8   c4.2-2.7,7.4-6.8,9.4-11.4c-4.4-3.4-7.1-8.4-9.8-13.3c-2.5-4.3,0-8.7-2.4-13c-1.2-0.6-3.7,0-3.3-3.1c1.4-0.3,2.8-0.6,4.4-0.9   c0-2.5,0-4.9,0-7.5c-9.7,2.4-9.1-4.5,0-4.2c0.5-1.2,0.5-2.5,0-4c-2.4-0.3-6.5,1.2-6.4-2.4c1.9-2.5,5-1,7.6-1.9   c0.9-1.8,2.1-3.6,2.4-6c-3.8-0.9-10.5,2.2-11.9-2.2c3.2-3,9.1-2.3,13.4-1.6c0.5-2.3,1.3-4.2,0.5-6c-5.3-0.7-11.7,1.8-15.6-2.2   c4.1-3.5,11.3-1.9,16.8-1.6c0.4-6.3,5.7-10.2,6.7-16c-28.2,0.6-59.5,10.8-42.3-30.8c-1.9-2.2-3.5-4-5.3-6   C39.7,447.2,27,453.4,13.9,456.2z M60.9,447.6c1.2-0.9,2.2-1.8,3.2-2.5c0-2.6,0-5.1,0-7.5c-16-2.4-30,9-45.7,7.2   c-0.8,2.4-1.4,4.4-2.1,6.6C31,451.8,48.1,435.2,60.9,447.6z M62.6,463.5c-0.3-3-0.6-6-1.1-10.1c-3.7,11.1-10.2,25.3,6.6,25.8   c-1.4-4.9-2.8-9.7-4.3-14.8C63.6,464.2,63.1,463.9,62.6,463.5z M99.7,501.9c-1.6,0.6-2.5,0.8-3.3,1.1c-0.3,2.8-0.6,5.4-0.9,8   c0.8,0.5,1.2,1,2.1,0.8C98.3,508.8,98.9,505.8,99.7,501.9z" />
	<path d="M637.9,167.7c-0.8-0.3-1.7-0.6-2.9-1c9.5-10.3,16.7-22.3,22.3-35.3c0.8-0.1,1.7-0.2,2.8-0.4c5.8-6.4,14.5-9.5,20.8-15.5   c11.6-17,48.1,2.4,46.6-23c0.6-1,1.5-2.4,2.1-3.5c-2-3-3.9-5.7-5.6-8.3c1.5-3.9,1.6-3.9,7.4-5.1c0.3-0.7,0.7-1.4,1-2   c-4.7-5.7-5-6.9-2.5-11c1.6,0,3.3,0,4.8,0c3.8-3.5-4.3-9.1,5.9-11.3c-0.1-6,4.9-8.5,9.1-11.5c8.7-10.2,18.9-19.6,31.9-23.7   c0.4-1.2,0.8-2.6,1.2-4.1c2.6,0.1,4.3-0.4,6.7-2.2c0.4-1.8-0.4-4.1,2.2-4.8c1.4,2.1,0.5,5,3,6.5c3-1,4-4.7,7-5.3   c3.6,1.3,0,4.3-1.2,6.5c4.7,2.2,9.4,0.2,13.1,4.7c8.2,0.3,23.4,3.1,23.1,13.7c2.2-0.7,4.1-1.3,6.1-1.9c0.7,0.5,1.3,0.9,1.9,1.4   c-0.1,1.2-0.3,2.3-0.4,3.6c3,2.6,12.2,6.6,6.6,11.1c-2.6,0.7-8.4-4.8-7.2,0.9c6,1.3,11.3-2.6,16.9,0c0,1.2,0,2.6,0,4   c-2.3,2.2-5.7,0.5-8.5,2.4c3.7,1.1,7.3,0.5,10.9,2.6c-3.3,4-17-0.9-16.2,3.4c5.8-2.3,11.6,1.3,17.4,0.4c2.5-0.6,5-0.7,7.4,0.3   c0.1,1.3,0.2,2.4,0.3,3.5c9.9,5.6,1.7,6.8,7.2,11.9c-3.7,7.8-9.4,12.5-18.6,11.8c-0.4-0.3-0.7-0.8-1.1-0.8c-3.9,0.8-7.4-2.1-11-1.6   c5.4,3.3,5.4,3.3,9.3,3.4c1.4,2.5-3,1.5-4.4,1.7c-0.5,2.1-1,4.1-1.4,6c-1.9,0.9-0.3,2.6-0.9,3.8c-1.5-1.5-1.2-3.8-0.9-5.7   c3.7-4.3-2.8-5.4-6-7c-2.7,1.2-5.9,2.1-8.9-0.5c-1.1,2.2-3.7,1.7-5.7,1.6c-0.9-1.3-1.2-5.9-3.4-3.5c1.4,2.2,2.3,4.8,2,7.6   c-3.8,2.9-3.4,7.9-6.3,11.6c-0.9,0.2-1.7,0.4-2.8,0.7c-0.4-9.2,8.9-26.4-4.4-31C805,69.2,792,62.3,783.9,72   c2.6,0.4,4.2-0.2,6.1,1.3c-4.4,1.5-6.9,4.6-11.3,5.5c-0.5-1.4-1.1-2.8-1.7-4.4c4-4.5,7.6-8.7,13.7-10.7c-0.8-0.7-1.7-1.2-2.1-1.9   c-1.5-3.1-5-2.9-7.4-4.3c-9.6-2.1-9.4-23.5-24.5-16.7c2,2.7,6.1,3.4,7.6,6.3c0.5,3.3,8.5,6.8,4.3,9.5c-5.4-6.5-11.3-10.2-19.9-11.9   c-1.3,0.9-2.8,2-4.3,3.1c3.7,6.9,14.1,7.2,16.9,15.3c-0.2,0.5-0.2,0.8-0.8,1.3c-6.5-3.8-13.1-7.7-21.5-4.7   c-0.3,1.2-0.6,2.3-0.8,3.3c4.8,4.5,12.2,3.5,15.2,9.7c-5.7,6.7-15.2-5.3-18.9,3.3c-0.3,2.5-0.3,2.5,1.8,2.8c5.2,1.3,9.9,4.7,15,6.8   c6.6-4,14.2-5.1,21.3-7.8c0.7,0.2,1.7,0.2,1.4,1.7c-23.2,7.1-37.1,34.4-63.9,30.3c-14.5-1.2-25.7,13.3-37.5,20.1   c-2.9,2.9-4.6,7.3-6.3,11c-0.8,0.5-0.9,1-0.1,1.8c0.9-1.4,1.9-2.6,3.1-3.8c0.4,0.4,0.8,0.9,1.2,1.3c-12.9,23.6-34.8,65.8-7,85.8   c16.4,8.4,40.2,0.3,49.8-15.2c5.3-0.9,5.8-8.7,11.2-9.4c0.1,0.8,0.2,1.6,0.3,2.5c-3.6,7.2-10.9,12.7-12.8,19.7   c-0.4-0.9-0.7-1.7-1.2-2.7c-5.5,5.4-12.2,9.8-20,9.7c0-0.5-0.2-0.9,0.3-1.2c-0.1-0.1-0.2-0.2-0.4-0.3c-9.5,2.7-19.2,4.1-29.1,1.5   c-0.9,0.4-1.7,0.8-2.6,1.2c-0.6-0.3-1.3-0.6-1.9-0.9c0.6-0.5,1.2-1,1.7-1.4c-31-28.2,0.5-71,10.6-101.7   C656.2,139.6,652.9,157.8,637.9,167.7z M789.8,33c-0.6-0.6-1.3-1.2-1.9-1.8c-2.7,1.9-2.7,1.9-3.5,3.8c0.6,0.7,1,1.2,1.5,1.8   c-0.5,1.6-2.7,2.5-2,4.7c4.1-2.9,6.4-5.3,7.6-8.1C791,33.2,790.4,33.1,789.8,33z M734.4,93.1c1.8-1.6,1.4-4.2,2.3-6.6   c1,0,1.7,0,2.5,0c0.9,0.1,1.6,1.2,2.8,0.1c-0.7-2-2.1-3.2-4.1-4.1C735,85.7,734,89.2,734.4,93.1c-0.8-0.2-1.6-0.5-2.8-0.9   c0.1,1.2,0.1,1.9,0.2,2.4C733.7,95.4,734.4,94.7,734.4,93.1z M840.8,66.8c-3.1-0.2-3.1-0.2-4.6,2.3c3.7,1.4,7.4,2.7,10.9,4   c2.9-3.1,19.1-1.3,16.2-6.7c-6.8,2.9-13.5,3-20.9,3.5C842,68.9,841.4,67.8,840.8,66.8z M772.8,24.3c5.2-1.9,9.5,1.2,14.4,1.7   c1.6-1.9,3.1-3.7,2.8-6.5c-4.6,0-8.7,2.5-13.4,2C774.8,21.4,773.7,22.4,772.8,24.3z M815.6,30.8c3.8-0.3,7.8-1.5,8.3-2.4   c-0.1-0.7-0.1-1.5-0.2-1.9c1.6-2.2,3.3-0.3,5.4-0.5c-2.7-2.4-5.4-3.3-8.3-3.4C820.1,27.3,820.1,27.3,815.6,30.8z M874.5,78   c-4.8,0.8-10.6-0.3-14.6,2.5C864.3,83.5,870.8,81.7,874.5,78z M739,66.7c-3.2,1.3-5.1-3-8.1-0.7c0.1,2.7,1.9,4.2,3.3,5.9   C738.5,69.6,738.5,69.6,739,66.7z M826.4,60.7c-4.1-1.7-5.7-1-9.4,3.6c2,0,3.8,0,6.2,0C823.9,63.4,825,62.2,826.4,60.7z    M826.9,39.3c4.5,2.1,7.8,1.9,11.8,0.1C834.6,37,831.1,37.1,826.9,39.3z M830.8,52.6c3.1,0.5,5.5,0.9,7.5,1.2   c1.3-1.5,6.5-2.6,3.9-4.6C838.7,51.8,835,50.5,830.8,52.6z M735.4,83.9c0.2-4.4-4.4-3-7.2-1.6c1,1.3,1.8,2.4,2.5,3.5   C732.4,85.1,733.6,84.6,735.4,83.9z M806.3,19.4c0.2-0.3,0.3-0.6,0.5-0.9c-3.4-0.8-9.6-2-12.2,0.9   C798.9,19.4,802.6,19.4,806.3,19.4z M732.5,97.1c-3.1,1.8-1.5,4.6-3.2,7.2c3.5-1.5,3.5-1.5,5.1-5C733.8,98.6,733.1,97.7,732.5,97.1   z M811.8,49.7c3,1.1,5.3,0.3,7.5-2c-2.3-0.4-4.2-0.7-6.3-1C812.7,47.6,812.3,48.5,811.8,49.7z M793,57.3c-2.1-1.4-3.5-2.2-5.1-3.2   c-0.5,1.1-0.8,1.9-1.2,2.8c1.3,0.9,2.4,1.7,3.4,2.5C791,58.7,791.8,58.2,793,57.3z M814.8,63.5c2.1-2.2,5-2.9,5.3-5.4   c-0.7-0.3-1.5-0.7-2.5-1.1C816.7,59.2,814.5,60.4,814.8,63.5z M854.1,76.3c3.3,0.7,5.5,0.7,7.7,0.1   C859.6,76.4,857.5,73.9,854.1,76.3z M871.8,70c-1.8-2-1.8-2-3.2,0C869.6,70,870.6,70,871.8,70z M822.8,71.8   c-0.4,2.1,0.1,2.6,1.7,2.7C823.9,73.6,823.5,73,822.8,71.8z M829.3,77.6c0.4-1.4,0.1-2.1-1.5-2.1C828.5,76.4,828.9,77,829.3,77.6z    M740.5,56.6c0-0.1,0-0.2,0-0.4c-0.4,0.1-1.2-0.4-1.2,0.3C739.7,56.5,740.1,56.5,740.5,56.6z M739.9,92.7l-0.3-0.2l0,0.3   L739.9,92.7z" />
	<path fill="#262524" d="M849.9,94.8c0.1,1.5,0,3,1.1,4.1c-0.6,3.8-0.8,9.9-4.7,11.6c-0.2-0.7,1.3-1.6-0.3-2.2   C847.8,103.9,848.9,99.4,849.9,94.8z" />
	<path fill="#242929" d="M857.7,87.4c-3.8-0.1-3.8-0.1-9.3-3.4c3.6-0.5,7,2.4,11,1.6c0.3,0,0.7,0.5,1.1,0.8   C859.7,86.9,858.3,86.1,857.7,87.4z" />
	<path fill="#2F3131" d="M851,46.3c-2.3,0-4.7-0.1-7.3-0.1c-1.2-5.8,4.6-0.3,7.2-0.9C850.9,45.7,850.9,46,851,46.3z" />
	<path fill="#C8D7D7" d="M858.6,58.6c-0.6,0-1.2,0-1.8,0c0-0.6,0-1.1,0-1.7c0.9,0,1.9,0,2.8,0C859.3,57.5,859,58,858.6,58.6z" />
	<path fill="#7F969B" d="M376,441.9c0.4-0.6,0.7-1.2,1.1-1.7c0.4,0.3,0.7,0.5,1.1,0.8c-0.4,0.6-0.7,1.3-1.1,1.9   C376.7,442.5,376.4,442.2,376,441.9z" />
	<path fill="#262524" d="M851.1,98.2c-0.2-1.2-0.7-2.4,0.8-3.2C852.1,96.2,852,97.3,851.1,98.2z" />
	<path fill="#516CD3" d="M484.1,252.7c-0.5-0.1-1-0.2-1.5-0.3c0.4-0.1,0.8-0.2,1.2-0.3C483.9,252.2,484,252.5,484.1,252.7   L484.1,252.7z" />
	<path fill="#40A6CA" d="M681.8,374c11.7,10.7,17.7,26.3,23,41c-1.6,11,10.7,22.8,6.9,34.3c-1.5-4.2-7.3-23.7-11.2-23.3   c23.7,41.1,11.6,96.2-27.1,123.9c-0.4,0-0.7-0.1-1.1-0.1c-0.7-3.1-2.9-1.8-3.8,0c0,0,0,0,0,0c-0.3,0.3-0.6,0.6-1,0.9   c-0.3,0-0.6,0-1,0c-0.3-0.9-0.6-0.8-1,0c-1,0-1.9,0-2.9,0c-0.3,0.3-0.6,0.6-1,0.9c-2.3-0.7-4.9,2.1-6.7,0.3   c49.6-19.6,75.7-93.9,32.9-131.5c41.5,45.9,12.6,117.1-43.4,133.9c0.7-5.1-5.8-4.1-5.7,0.2l0,0c-1.6,0-3.2,0-4.8,0   c-0.9-0.6-1.8-1.2-2.8-1.9c-11.3-0.8-22.2,2.6-33.5,1.9c0-2.5-2.2-2.2-3.5-3c-2.8,2.1-5.2,3.1-7.3-0.5c-2.4-0.5-4.4-0.9-6.6-1.3   c-0.5,0.6-1.1,1.2-1.7,1.9c-1,0-1.9,0-2.9,0c-4.4-8.1-28.7-7.4-38.5-11.4c-0.6,1-1.1,1.8-1.6,2.6c-4.8-1.6-7.8-5.9-12.4-7.4   c-0.1-0.3,0-1-0.7-0.4c1.4,0.8,2.3,2.3,3.5,3.3c-0.3,0.9-1.1,0.9-1.9,0.9c-0.3-0.3-0.6-0.6-1-0.9c-0.6,0-1.3,0-1.9,0   c0.8-4.6-2.6-5.2-6.3-4.8c-1.5-2.9-8.4-7.8-10.9-4.8c-0.3,0-0.6,0-1,0c-1.8-2.7-5.5-2.5-7.7-4.8c-0.3,0-0.6,0-0.9,0   c1.7-5.5-6-5.9-9.4-8.3c-0.6,0.5-1.3,1-2,1.6c-0.4,0-0.8,0.1-1.2,0.1c-24.4-41.6-9.2-85.4,20.3-117.6   c-31.8,26.1-42.1,72-26.8,109.8c-3.9,0.2-7.2-6.1-10.6-8.5c0-1.1,0-2.2,0-3.4c-1.3-1.2-2.6-2.4-3.9-3.6c-1.1,0.5-2,0.8-2.8,1.2   c-0.6-0.6-1.3-1.3-1.9-1.9c1.1-2.6-1.1-6-3.8-3.8c-1.3-1.3-2.5-2.5-3.8-3.8l0,0c-0.3-0.3-0.7-0.6-1-0.9c-0.3,0-0.5-0.1-0.7-0.3   c-3.3-27.9,8.3-54.9,23.3-76.9c-18.7,18.6-26,47.4-25.5,73.3c-1.8-0.7-1.9-2.5-2.8-3.8c0.2-0.9,0.3-1.8,0.5-2.6   c-3.5-5-5-20.2-10.1-21.3l0,0c-0.4-1.7,1.5-1.9,1.9-3.1c0-3.2,0-6.3,0-9.6c-1.4-1.5-2.2-3.3-1.9-5.5c7.3-1.3,2.4-13.7,5.8-18.7   c-0.7-1.5-0.7-3.4-2.9-3.3c0-0.7,0-1.4-0.1-2c6.3-8.2,17.9-15.9,21.9-24c-5.9,5.4-10.4,11.9-17,16.5c2.6-28,34.6-37.2,49.5-57.2   c13.8-2.7,28.8-3.8,42.4-3.3c4,2.5,8.8,0.6,13,1.8c2.9,0.9,5.6,0.2,8.3-0.2c3.1,1.2,6.2,2.6,9.6,0.9c5.2,1.6,11.9,1.7,16.7,3.6   c-6.8,2.2-16.6-0.7-22.2,1.8c3.6,0,7.2,0,10.8,0l-0.1,0.1c0.6,1.1,1.3,2.1,2.1,2.3c7.5-3.4,15.8-2.4,23.7-1.4   c-0.8,4.4,4.1,3.8,7.4,4.6c0.9-1.1,2-2.2,3.1-3.5c16.2,5.2,33.1,8.2,49,14.1C660.6,368.5,677.4,381.4,681.8,374z M566.2,388.5   c0,0-0.1-0.3-0.1-0.3c1-0.2,2-0.3,3-0.5c0.4,0.7,0.7,0.5,0.9-0.1c0.6-0.4,1.3-0.7,1.9-1.1c0.3,0.1,0.7,0.2,1,0.2   c0.4,0.8,0.7,0.5,1-0.1l-0.1-0.3c1.3-0.2,2.6-0.4,3.9-0.5c0.4,0.7,0.7,0.6,0.9-0.1c1.6-0.3,3.2-0.6,4.8-0.9   c0.4,0.7,0.6,0.6,0.9-0.1c2.5-0.9,5-1.2,7.7-0.9c0.1,1.1,0.1,2.1,0.2,3.1c4,0.5,4.1,0.5,4.6-3.2c3.2,0,6.4,0,9.6,0   c0,1.5,0.9,2.5,1.9,3.7c2-0.3,3.3-1.6,2.9-3.7c2.6-0.5,5.1,0.5,7.7,0.9c0.3,0.7,0.6,0.7,1,0.1l-0.1-0.3c4.5,0.8,8.9,2.4,13.5,2.9   l-0.1,0.3c0.2,0.6,0.5,0.9,0.9,0.1c11,1.8,21.3,8.8,31.2,12.6c-82.4-61.4-231.5,36.5-148,128.9c-44.1-50.3-16.8-121.2,45.2-139.6   c0.7,0.9,1.2-0.8,1.9-1.1c0.3,0.1,0.6,0.1,1,0.2C565.8,389.4,566,389,566.2,388.5z M626.5,547.2c0.7,0.9,1.3,0.8,1.8-0.1   c1.3-0.3,2.6-0.6,3.9-0.9c0.4,0.7,0.7,0.5,0.9-0.1c1-0.3,2-0.5,2.9-0.8c0.4,0.7,0.7,0.4,0.9-0.1l-0.1-0.3   c116-37.6,50.5-169.4-53.6-141.3c-42.8,8.3-77.3,56.6-55.6,98.4c0.5-1.7,0.6-2.9-0.5-3.9c-16.1-41.4,15.5-84.8,56.3-93.3   c0.4,0.8,0.7,0.5,0.9-0.1l-0.1-0.3c2.6-0.4,5.1-0.8,7.7-1.4c-0.2,0.4-0.4,0.8-0.7,1.5c0.8,0.3,1.5,0.6,2.5,1c0.1-1.2,0.1-2,0.2-2.7   c1.9-0.3,3.8-0.6,5.7-0.8c-0.3,0.7-0.6,1.4-0.8,1.9c1.3,2,2.7,1.9,4.5,1.2c0.1-1.1,0.1-2.2,0.2-3.2c4-0.7,8.3,0.2,12.4,0   c0.1,1.1,0.1,2.1,0.2,3.3c2.1,0.6,3.6,0.5,4.5-1.5c-0.3-0.6-0.6-1.2-0.9-1.7c2-0.3,3.9,0.1,5.7,0.9c0.1,0.8,0.3,1.7,0.5,3   c1-0.6,1.6-1,2.2-1.4c-0.3-0.6-0.5-1-0.7-1.4c2.5,0.6,5.1,1,7.7,1.4l-0.1,0.3c0.2,0.6,0.5,0.9,0.9,0.1c0.3-0.1,0.6-0.1,0.9-0.2   c5.2,2.7,11.4,3.2,16.3,6.7c0.2,0.5,0.4,0.8,0.9,0.3c111.7,66.7-18.6,181.4-103.9,117.3c9.5,9.2,23.6,13.4,36.2,17.3   c0.2,0.5,0.5,0.7,0.9,0.1c1.3,0.3,2.6,0.6,3.9,0.9c0.5,1,1.1,1,1.8,0.2c1.6,0.2,3.3,0.3,4.9,0.5l-0.1,0.3c0.9,1.1,1.8,1.1,2.8,0.1   c6.2,0.4,12.1,0.4,18.3,0c1,1,1.9,1,2.8-0.1C623.2,547.8,624.8,546.7,626.5,547.2z M511.8,355l-0.1-0.2c3.8-0.8,7.3-2.4,11.1-3.4   c1.6-0.6,3.8,0.6,5.1-2.2c-22.4,5.2-57.1,17.1-68.3,37.4c6.6-8.3,15.1-14.1,24.6-18.9c0.6,0.7,0.7,0.2,0.9-0.3   c0.3-0.2,0.7-0.4,1-0.6c0.6,0.7,0.7,0.2,0.9-0.3c0.3-0.2,0.7-0.4,1-0.7c0.6,0.7,0.7,0.2,0.9-0.3c1.6-0.9,3.2-1.8,4.8-2.6   c0.6,0.8,0.8,0.3,0.9-0.3c1-0.5,2-1.1,2.9-1.6c0.5,0.8,0.7,0.3,0.9-0.2c1.8-1,3.9-1.6,5.8-2.6c0.5,0.7,0.7,0.3,0.9-0.2   c1.9-0.9,3.9-1.7,5.8-2.6C511.3,356,511.6,355.5,511.8,355z M647.5,373.9c1.3,0.6,2.7,1.1,3.9,2c0.8,0,1.3,0.6,2,0.9   c0.3,0,0.6,0,0.9-0.1c9.4,4.8,19.9,8.3,27,16.5c0.3,0.4,0.8,1.1,1.6,0.1c-10.1-12.7-27.1-17-41.3-23   C643.5,372.6,645.6,373,647.5,373.9z M600.7,369.5c0.4,0.8,0.7,0.5,0.9-0.1c-0.1-0.6-0.2-1.1-0.4-1.9c-3.6,0-7.3-0.4-10.1,1.9   c-0.6-0.2-1.1-0.4-1.7-0.6c-4.6,4.4,5.9,6.7,4.6,0.7C596.2,369.4,598.4,369.4,600.7,369.5z M525.1,388.5c2.4-1.7,5-2.7,7.7-3.6   c0.8,1,0.7-0.7,1.5-0.5c2.4-1.8,5.6-2.4,7.1-5.2c-3,0.1-3.6,0.3-14.3,6.4c-2.4,2.2-10.1,4-10,7C519.9,391.3,522.6,390,525.1,388.5z    M592,421.7c-59.1,13.5-62.7,86.3-4.7,105.3c0.2,0.5,0.5,0.7,0.9,0.2c1.9,0.6,4.3,0.2,5.8,1.8c0.2,0.6,0.5,0.7,0.9,0.1   c1.3,0.3,2.6,0.6,3.9,0.9c0.5,1,1.1,1,1.8,0.1c2,0.2,3.9,0.3,5.9,0.5l-0.1,0.3c6.3,2.4,13.6,0,20.1-0.8c0.7,0.9,1.3,0.8,1.8-0.2   c1-0.2,2-0.5,3-0.7c0.7,0.9,1.3,0.8,1.8-0.2c1.9-0.6,3.9-1.2,5.8-1.7c0.4,0.7,0.7,0.4,0.9-0.2C724.5,492.5,667.3,399.3,592,421.7z    M575.7,368.9c1.7,4.9,1.7,5,3.9,4.2C578.7,371.7,578.1,370.2,575.7,368.9z M527.6,368.7c-0.5-0.6-1.4,0-2.1,0.1   c0.1,0.4,0.2,0.8,0.4,1.2C526.4,369.6,527.4,369.5,527.6,368.7z" />
	<path fill="#CCD2E9" d="M659,231.8c0.8-0.4,1.7-0.8,2.6-1.2c9.9,2.6,19.6,1.2,29.1-1.5c0.2,0.2,0.3,0.2,0.4,0.3   c-0.5,0.3-0.3,0.7-0.3,1.2c2.2-0.1,3.9,0,6.2,0.4c-1.2,7.3,5,23.3,13.8,22.4c0.9-1.1,1.7-2.2,1.5-3.8l0,0c2.7-2.8,0.3-8.9,1.1-12.8   c1.3-9,8.7-16.9,7.5-26.5c6.1-9.4,11.8-18.7,13.4-30c-0.7-0.2-1.3-0.4-2.1-0.6c0.3-3.7,4.1-5.1,5.9-8.5c0.2,1.3,0.4,2.3,0.6,3.4   c0.4,0.1,0.8,0.3,1.4,0.4c1.6,10.2,6.1,20.4,8.9,30.6c-2.3,0.9-3.5,2.9-3.9,5c-4.3,11.8-9.7,23.2-15.2,34.6   c-14.8,17.4-42,15.1-59.4,28.3c-6.7-1.9-13.1-6.7-20.5-5.6c-1.4-0.3-2.7-2.2-3.9-1.7c1.2,2.7,3.3,4.9,5.2,7.3   c0.3,3.4,4.3,4.6,5.7,7.7c-0.4,3.6-5.4,4.5-7.8,6.7c-4-0.2-8.3,1-11.6-1.8c-0.2,0.1-0.3,0.1-0.5,0.2c0-2.4-2.1-6.2-4.8-6.7   c0.7,3.2,2.4,4.6,3.3,7.3c-2.6-0.2-4.7,0.2-6.9-0.7c-4.2-1.9-10.3,3.3-4.5,6.2c3.6,2,7.6,3.2,11.7,3.1c0.5,0.1,1.2-0.4,1.4,0.7   c-15,9.7-33.2,19.6-50,9.7c-3.2-1.7-7.2-0.4-10.7-0.7c-1.6,0.3-6.4-1.6-6.4,0.6c-11.6,3.2-25.8,1.2-38.1,2.9   c6.7-9.1,16.6-13.3,22-23.5c-10.1,1.1-18.2,5.5-26.1,10.3c-0.4-1.3-0.2-2.8-1.6-3.7c-2.2,1.2-0.6,3.8-1.2,5.6   c-6.4,5.3-15.7,11.2-18,19.4c-1.6,1.5-3.2,3.1-4.7,4.6c-2.1,0.4-0.3,3-2,3.7c-1.4-21.9-5.2-45.2-5.7-66.8c0.2,0,0.7,0,0.9-0.1   c2.6,2.5,4.4,3.2,8.2,4.2c-1.5-3.2-3.3-4-5.6-6.3c44.4-23.4,90.2-43.8,129.2-76c0.1-1,0.2-1.9,0.3-3.1c6.7-7.8,16.7-12.6,22.3-21.4   c5.2-7.7,8.6-17,15.6-23.5c0.4,0.4,0.8,0.8,1.2,1.2c-9.6,29.3-37.7,69.6-7.9,95.9c-0.6,0.5-1.1,1-1.7,1.4c-1.1-0.1-1.7,0.3-1.8,1.5   C656.6,232.8,657.9,232.8,659,231.8z M610.6,241c2.7-4.5,3.2-8.1,6.3-12.1c1-1.3,1.4-2.3,0.7-4C612.5,229.1,609.8,233.7,610.6,241z    M639.6,257.1c1.9,3,3.1,5.3,6.1,7C645.3,260.1,644,258.4,639.6,257.1z M646.1,235.8c-2.3,1.5-5.5,1.5-7.4,4.4   C642.4,240.3,644.8,239,646.1,235.8z M511.5,257.9c-2.9-0.2-3.3-0.1-4.9,2C509.3,260.4,509.3,260.4,511.5,257.9z M518.8,259.3   c0.1-0.3,0.2-0.5,0.3-0.8c-1.4-0.7-4.7-2.4-4.3,0.8C516.2,259.3,517.5,259.3,518.8,259.3z M625.7,274.9c-1.6,1.6,0.7,4.9,2.7,3.3   C628,276.7,627.1,275.6,625.7,274.9z M611.4,250.6c0.6-1.6,2.9-2.8,1.4-4.1C611.1,247.3,610.6,248.5,611.4,250.6z M611.3,253   c0.3,1.1-0.7,3,0.7,3.3C612.2,255.2,613.5,254.3,611.3,253z M637.3,253.9c0.3,1.3,0.9,2,2.3,2.1   C639.5,253.9,639.5,253.9,637.3,253.9z" />
	<path fill="#2D8FB9" d="M470.7,506.8c1.6,0.8,3,4,4.8,2.8c36.4,81.6,159.5,91.7,215.9,25.8c0.2,0.6,0.5,1.1,0.8,1.8   c-0.9,1.3-1.8,2.6-2.7,3.9c-0.2-0.2-0.3-0.5-0.5-0.7c-0.1,0.3-0.3,0.5-0.4,0.8c0,0,0.1-0.1,0.1-0.1c-9,9.8-19.1,17.8-29.7,25.9   l0.1-0.1c-0.5,0.1-1.1,0.2-1.6,0.4c0,0.1,0,0.3,0,0.4c0.5,0.1,1.1,0.2,1.6,0.2l-0.1-0.1C616.2,603,551,598.2,501.5,581.7   c0-0.6-0.1-0.9-0.1-1.2c0.2-0.5,0.5-0.9,0.7-1.4c-4.2,0.1-11.3-4.9-13.2-0.2c14.2,5,29.3,11,44.8,13.1   c-29.4,4.3-87.7-14.3-111-33.1c-27.5-27.3-57.2-81.6-37.4-119.4c-0.4-0.4-0.7-0.8-1.1-1.2c6.3-17.4,21.7-26.7,32.1-41.4   c7.5-10.5,15.1-22,27.7-26.6c3.6-1.3,6.3-3.6,7.8-7.5c13.3-3.3,20.5-17.1,34.2-19.6c-13.8,20.9-52.9,33.1-48.7,63.4   c-1.1,1.4-2.3,2.8-3.6,4.4c0.8,0.1,1.3,0.2,1.7,0.2c-1.5,13.5-5.9,28.7-2.8,42.2l0,0c0.7,10.2,5.7,20.3,12.3,27.7   c3.1,23.9,11.7,48.9,30.3,65.3c-0.2-0.1-0.4-0.2-0.7-0.3c-11.8-18.2-26.3-37.1-26.7-60.2c0.3,0,0.6,0,0.9,0l0,0   C455.6,493.3,463.5,499.6,470.7,506.8z M492.6,561.3c-0.1-0.3-0.1-0.5-0.5-0.5c19.7,17.4,47.9,27.3,73.9,27.8   C539.4,585.4,514.7,575.9,492.6,561.3z M411.3,485.1c2,25.8,17.2,49.9,36.5,66.6c-35.3-37.2-47.3-80.9-22.4-127.5   C412.6,440.2,408.2,464.9,411.3,485.1z M423.8,537.5c2.1,6.3,7.1,20.7,15.6,17.4c6.3,7.1,31.1,27.7,39,17.6   c-2.1-1.4-4.4-2.3-6.1-3.8c0,0,0.2,0.2,0.3,0.3c-4,3.4-29.1-10.9-32.1-16.2c-1.2-0.2-2.1-0.3-3-0.5c-5.1-6.8-8.5-15.6-15.4-20.3   C422.7,533.9,422.4,536,423.8,537.5z M410.7,511.8c2,7.7,0.6,18.3,7.1,23.9c0.7-0.5,1.5-1,2.1-1.5   C416.6,526.3,416,518.3,410.7,511.8z M401.4,491.4c-4.4,2.3-3.7,23.5,4.2,18.4C402.5,504.1,403.2,497.7,401.4,491.4z M395.3,488.4   c2.6-5.3,1.7-11,2.5-16.7c-0.9-0.1-1.4-0.1-2.1-0.2C395.5,476.6,388.5,485.9,395.3,488.4z M396.8,450.2c-2.7,1.1-7.5,14.5-4.1,15.6   C396.1,461.4,396.6,456,396.8,450.2z M577.9,588.1c4.3,4.4,12.7,0.8,18.3,0.2C590.3,587.9,584.3,588.1,577.9,588.1z M401.5,433.8   c-5.6,6.4-6,7.3-4.7,10.8C399.7,442.2,400.6,437.5,401.5,433.8z M635,578.4c-5,1.6-9.4,3-14.2,4.5   C626.2,583.4,631.3,582.3,635,578.4z M460.7,561.9c-1.7-2.3-3.3-4.8-6.3-5.3C458.2,561,458.2,561,460.7,561.9z" />
	<path fill="#5876E8" d="M330,424.7c-10-11.4-15.9-25.1-24.3-37.5c-4.7-7.3-9.9-13.4-10.7-22.3c1,0.5,1.8,1,2.7,1.5   c0.4-2.2-1.4-2.9-1.9-4.9c24.2-29.5,54.3-52.2,83-77.1c35.3-33.8,51.2-49.7,100.9-30.6c-0.3,3-0.5,5.3-0.5,8.2   c-2.3,0.7-4.5,0.4-6.3,1.5c2.1,0.5,4.5,0.1,6.3,2c0,3.1,0,6.4,0,9.7c-1.9,1.2-4.8-0.8-6.2,2.1c6.5,1,6.8-2,8.7,5.9   c-8.3,1.6-32.2-3.8-34.4,5.9c6.7-3.8,15-5.5,22.6-4.3c-0.2,0.4-0.3,0.8-0.6,1.5c4.4-0.9,8.6-1.4,12.9-1.1c0.2,2,0.2,4-0.2,6   c-2.7-0.8-4.6-2.8-7.6-3.2c1.8,3.3,4.8,4.3,7.6,5.5c-2.6,22,6.2,23.8-15.7,23.3c1.1,0.7,1.8,1.2,2.5,1.7c-0.9,1.7-2.3,2.9-3.8,3.9   c-1.6,0-3.2,0-4.8,0c0.3-6,2.9-11.6,5.9-16.7c0.4-0.6,1.1-1.2,0.3-2.3c-6.3,3.4-8.8,12.3-10.2,19c-1.4-0.1-2.8-0.1-4.5-0.2   c0.5-6.1-1.4-10.9-2.2-16.8c-1,0-1.7,0-2.4,0c-3.5,8.4-8.9,16.3-12.1,25.1c-0.7,1.9-1.8,3.7-3.9,4.4c-4.5,2.4-7.4,6.2-11.9,9.2   c-1.1-8,2.3-15.1-0.3-22.9c6.2-11.8,18.6-19.4,23.1-31.9c-15.2,15.7-27.5,33.9-41.7,50.2c0.5,0,0.9,0,1.3,0   c0.3,0.3,0.7,0.6,0.8,0.7c-6.9,11.8-9.3,36.6-18.5,43.6c0.1-7.6,9-23.4,6.4-27.1c-7.2,13.3-4.3,31.4-19.4,39   c2.8-15,10.1-29.8,12.6-44.9c1.8-2.4,11.7-5.6,10-8.2c-19.5,13.5-60.3,35.4-68.2,57.1c-0.4,0.1-1.1,0.1-0.4,0.7   c12.5-19.6,33.6-30.9,51.9-44.8c-6.8,17-15.4,35.8-20.5,54.5C349.7,417.2,339,421.9,330,424.7z M460.2,280.4   c-0.8,0.5-1.7,0.9-2.7,1.5c1.3,0.6,2.1,0.5,2.7-0.5c3.3-0.5,6.3-1.4,9.2-3.3C466.1,275.8,463.2,279.4,460.2,280.4z M451.7,280.6   c5.2-2.7,5.5-3,7-6.2c-3.5,1.8-9.2,3.8-9.6,7.6C450,281.6,450.9,281.1,451.7,280.6z M401,300.5c1.3-3.4,2-7.3,1.6-10.9   c-3.8,15.3-10.6,34-8.9,48.8C397.6,326.3,397.9,313,401,300.5z M346.3,400.6c-1.7,4-1.2,8.8-0.1,13c0.9-10.6,3.5-20.9,4.4-31.5   C347.1,387.3,347.4,394.5,346.3,400.6z M361.7,357.8c6.1-21,11.1-42.9,19.3-62.8c-13.1,19.8-17,45.5-22.3,68.5   C361.3,362,361.2,359.7,361.7,357.8z M342,375.7c-0.1-4.1,5.2-16.1,2-17.6C341,363.2,340.5,370,342,375.7z M459.2,261.1   c-2.4-4.8-16.6,2.2-16.5,5.8C454.7,260.2,452.6,261.6,459.2,261.1z" />
	<path fill="#FBDFD3" d="M95.1,478.1c-2.5,0.3-5,0.6-7.4,1c0.3-2.4,3-3.4,4.6-5c-2.8-0.2-8.5,1.6-5.7,5.1c-3.8,1-6.9,1.7-10.9,1.9   c3.3-3.4-0.3-6.1-2-8.8c-10.6-12.4,22.7-5.5,36.4-18.5c-13.3-4.8-29-1.1-42.6,1.5c-0.2-2-0.5-4-0.8-6.4   c43.1-6.9,82.5-23.4,121.6-42.3c52.2-19.1,64.5,23.5,105.8-31.4c11.8,16.9,21.2,36.3,33.5,53.2c-8.7,6.2-18.8,1.7-28.5,0.4   c-15.2-1.8-19.8,8.9-2.6,12.7c-5.8,5.4-17.4,9-24.7,7.2c0.9-0.5,1.6-1.2,2.6-1.4c-0.2-0.2-0.4-0.3-0.6-0.5l0,0   c0.6-0.8,1.1-1.7,1.7-2.5c0-0.3-0.1-0.6-0.1-0.9c-0.5,0.4-1,0.5-1.7,0.5c-0.9-1.8,1.3-3.4,2-5.2c-11.5-6.3-22.7,6.6-33.8,8.8   c-10,2-20.6,5.5-30.7,5.6c14.9-5.3,28.9-10.6,41.9-19.6c-4.6-1.6-9.7,7-12,1.7c-21.9,4.3-42.7,13.4-65.5,13.6   c-1.4,1.5-2.8,3.1-4.3,4.7c-1.7-0.5-3.9-1.9-5.4-0.2c-11.3,3-24.2,2.2-35.9,3.1c-12.4,2.1-23.2,10.3-33.9,15.4   C96.2,473.9,94.7,475.8,95.1,478.1z M269.1,410.4c-4.3,1.1-7.6,0.6-12.1,4c11.8,0,23.1-7.9,28.2-17.7   C279.5,400.1,274.5,406.1,269.1,410.4z M272,427.2c0.5,0.4,1,0.8,1.4,1.1c2-1.1,4-1.8,5.5-4.4C275.8,424.4,273.4,424.4,272,427.2z    M285.7,421.4c1.3,0.8,2.3,0.4,3-0.9C286.7,419.9,286.7,419.9,285.7,421.4z M253.7,428.4c1.5-0.1,2.3-0.5,2.8-1.7   C254.2,426.6,254.2,426.6,253.7,428.4z M289.3,394.3c-2.8,0.1-2.8,0.1-2.6,1.8C287.3,395.6,287.9,395.2,289.3,394.3z M111.6,453.2   c1,0,1.8,0,2.8,0C113,451.7,113,451.7,111.6,453.2z M243.5,412.4c2,0.7,2,0.7,2.1-0.7C244.9,411.9,244.2,412.2,243.5,412.4z    M293.9,389.7c-1.6-0.2-1.6-0.2-1.5,1.2C293,390.5,293.4,390.2,293.9,389.7z" />
	<path fill="#B7BDD5" d="M589.4,307.1c0.8,1.3,2.6,0.7,3.6,1.9c4.5,6.6,25.1,14.8,29.3,14.6c0.1-0.3,0.3-0.6,0.4-0.9   c-9.4-4.8-20-7.6-28.9-13.6c5.3-1.2,10.2,2.9,15.2,1.4c9.7-4,19.3-8.3,28.1-14.2c-0.2-1.1-0.9-0.6-1.4-0.7c-4.1,0.1-8.1-1-11.7-3.1   c-5.7-2.9,0.4-8.1,4.5-6.2c2.2,1,4.4,0.5,6.9,0.7c-0.3-0.7-0.4-1.3-0.6-1.8c1.3-0.2,1-1.2,1-2.1c1.4,0.7,0.8,2.1,1.1,3.2   c0.7,3.6,7.5,8,10.2,4.9c-1.7-2-4.3-1.6-6.4-2.5c-0.1-0.2-0.2-0.5-0.3-0.8c2.8,0,5.6,0,8.5,0c2.4-2.2,7.4-3.1,7.8-6.7   c3.5,2.4,8,7,12.3,3.6c-4.4-3.8-10.6-3.4-14.3-8c-0.1-0.1-0.6,0.3-0.9,0.5c-1.4-0.9-2.9-1.9-2.7-3.9c0.7,0,1.5,0,2.4,0   c-0.2-2.8-2.7-3.7-3.7-5.5c7.4-1.2,13.8,3.6,20.5,5.6c17.4-13.2,44.6-11,59.4-28.3c5.4-11.3,10.9-22.8,15.2-34.6   c0.4-2.2,1.5-4.2,3.9-5c8.3,13.2-4.1,29.6-7.2,43.2c-6.7,10.8-18.6,17.5-26.6,27.5c-1.1,0.1-2,0.2-3.6,0.4   c-14.5,18.6-34.6,31.4-52.7,45.5c-6.8,5.7-11.3,6.3-22.4,8.2c-44.8-10.4-90.4,0.2-135.8,1.2c-0.7-2.2-0.9-4.4-0.3-6.5   c1.7-0.7-0.1-3.4,2-3.7c-0.1,0.9-0.2,1.7-0.4,3.2c4.9-2,8.6-6,11.7-10c2.6-0.3,5-2.8,4.7-5.4c-3.2,0.1-3.7,3.1-4.6,5.4   c-2.6-0.4-4.4,1.4-6.6,2.2c2.3-8.2,11.6-14.1,18-19.4c0.3,0.6,0.1,1.6,1.4,1.6c0.4-1.1,0.9-2.3,1.4-3.5c8-4.7,16-9.2,26.1-10.3   c-5.5,10.1-15.4,14.3-22,23.5c12.3-1.7,26.5,0.3,38.1-2.9c2.5,0.1,7,3.7,8.5,0.6c-0.7-0.4-1.4-0.8-2-1.2c3.6,0.3,7.5-1,10.7,0.7   c-1.8,0.2-3.6-0.4-5.8,0.4C584,307.8,587.7,309.3,589.4,307.1z M520.9,306.6c1.6,0.4,3.6-1,2.5-3   C522.5,304.6,521.8,305.5,520.9,306.6z" />
	<path fill="#E4E4EB" d="M13.9,456.2c13.1-2.8,25.8-9,39.3-11c1.8,2,3.3,3.8,5.3,6c-17.2,41.7,14.2,31.5,42.3,30.8   c-1,5.8-6.3,9.7-6.7,16c-5.5-0.4-12.7-1.9-16.8,1.6c3.9,4,10.3,1.6,15.6,2.2c0.8,1.8-0.1,3.7-0.5,6c-4.3-0.6-10.2-1.4-13.4,1.6   c1.4,4.5,8.1,1.4,11.9,2.2c-0.3,2.5-1.5,4.3-2.4,6c-2.6,0.9-5.7-0.6-7.6,1.9c0,3.6,4,2.1,6.4,2.4c0.4,1.5,0.5,2.9,0,4   c-9.1-0.3-9.7,6.6,0,4.2c0,2.6,0,4.9,0,7.5c-1.5,0.3-3,0.6-4.4,0.9c-0.4,3,2.1,2.4,3.3,3.1c2.4,4.3-0.1,8.7,2.4,13   c2.7,4.9,5.3,9.9,9.8,13.3c-0.8,1.8-1.6,3.5-2.9,4.9c-7.1-7.3-17.7-8.4-26.3-13.6C55.3,553,44.7,541.9,34,531.7   c0.1-12,2.8-25.7-12-29.5c-4.4-14.4-12.3-29.5-11.5-44.6C11.6,456.8,13.3,457.7,13.9,456.2z" />
	<path fill="#EECABA" d="M821.3,87.4c-0.3,2.5-0.6,5.1-0.9,7.6c-0.9-0.2-1.7-0.4-2.9-0.7c3.4,10.8-1.8,10.7-7.8,16.7   c-1.8,5.2-7.6,4.9-10.6,8.9c-13.3,21-32.6,36.3-55.4,45.6c-1.6-0.3-2.6-0.5-3.5-0.7c-12.9,10.5-26.4,23.8-27,41.7   c1,0.2,1.7,0.3,2.4,0.4c0.5-1.2,0.9-2.2,1.3-3.2c0.4,1.1-0.4,2.5,1.1,3.2c-1.1,1.9-2.2,3.8-4.8,4.1c-9.6,15.5-33.4,23.6-49.8,15.2   c0-1.3,0.4-2.2,1.9-2.1c1.7,3,7-0.7,6.6-3.7c-0.7,0-1.2,0-1.6,0c9.3-7.9,17.6-16.9,24.9-26.8c-1.9,4.3-3.9,8.6-5.8,12.9   c-2.9,0.4-3.8,2.9-5.5,4.4c-3.5,3.7-7.3,6.1-8.8,11.5c12.3-6.5,21.4-17.6,27.1-30.3c3.3-5.6-2.8-10.9-5-3.1   c-4.6-3.1-11.7,0.9-15.6-4.7c-2.3-3.2-8.2-2.2-8.3-7.4c5.1-6.9,15.2-6.6,22.5-9.7c9.1-2.2,16.8-9.8,26.4-9.1c3.5-3,5.8-7,10.6-7.9   c1.5-0.3,2.3-1.5,3.2-2.6c1.6,3.7,3.2-1.5,4.8-2.1c0.2,0.2,0.4,0.5,0.7,0.9c15.2-8.2,31.8-16.4,42.9-29.8c-0.4-0.5-0.7-0.8-1.1-1.2   c9.7,0.4,9.9-18.6,19.8-10.8c1.6-1,2.8-2,2.8-3.8c0.7,0,1.5,0,2.5,0c0.7-3,1.3-5.7,2.1-8.7c0.1,0.8,0.2,1.7,0.4,3   c2.3-3,5.4-3.3,7.4-5.8c0.2,0,0.4-0.1,0.7-0.1c-0.2-0.2-0.4-0.4-0.6-0.6C818.9,86.8,820.3,87.6,821.3,87.4z M711.4,176.2   c-4,0.9-9,2.4-10.5,6.6c0.6,0.4,1.2,0.8,1.7,1.2c5.1-2.7,8.4-6,13.5-8.4C714.1,174.8,712.6,175.1,711.4,176.2z M721.7,172.3   c7.5,5.5,14.8-13.2,15-20C731.4,158.7,728.9,167,721.7,172.3z" />
	<path fill="#4B65C5" d="M330,424.7c9-2.9,19.7-7.6,26.4-14.5c6.6-16.9,13.3-50.3,27.2-59.4c-2.5,15.1-9.8,29.8-12.6,44.9   c10.9-6.8,12-13.2,14.4-24.6c0.3,0.7,0,1.7,1.1,1.8c-0.8,3.4-1.6,6.9-2.5,10.8c9.3-7.1,11.6-31.7,18.5-43.6   c-0.2-0.1-0.5-0.4-0.8-0.7c1.6-1.4,3-2.9,4.9-3.7c-0.7,10.4-5.9,20.4-6.3,30.5c6-6.4,13.4-13.3,15.7-21   c-3.1,50.6-22.2,76-58.1,109.4C346.2,448.1,338.7,435,330,424.7z" />
	<path fill="#EECABA" d="M271.9,448.6c7.3,1.8,18.9-1.7,24.7-7.2c-17.1-3.7-12.6-14.4,2.6-12.7c9.7,1.3,19.8,5.9,28.5-0.4   c2.5,3,5,6.1,7.6,9.3c-10.4,6.9-22,9.3-34.3,9.6c-0.4,0.7-0.9,1.5-1.5,2.5c-16.9,6.5-23.5,10.4-41.5,4.2c0.2-0.5,0.4-1,0.7-1.9   c-1.6-0.2-2.8,0.3-3.8,1.4c0,0.4,0,0.8,0,1.3c-36.1,7.9-73.5,13.7-110.7,13c-17.3-0.7-32.1,10-49,10.2c-0.4-2,0.8-3.8,1-5.7   c2.3,0.4,2.4,0.4,2.7-1.8c27.8-19.2,38.3-12.1,67.1-17.4c4,3.8,7.2-1.9,9.7-4.4c22.8-0.2,43.6-9.4,65.5-13.6c0.9,0.5,0.4,2.3,2,1.9   c-8,5.6-18,5.2-26.1,10.1c4.9-0.5,8.8-1.8,13.7-2.5c-4.5,5.3-13.3,5.3-19.5,8.4c10.1-0.1,20.7-3.6,30.7-5.6   c11.2-2.2,22.3-15.2,33.8-8.8c-0.7,1.8-2.9,3.3-2,5.2c-2.5,4-14.3,1.5-11.8,7.8C265.6,451.6,268.6,449.6,271.9,448.6z M315.8,438   c3.8,1.4,10.3,2.9,12.3-1.9c-7.1,1.8-13.2-1-20.4,0.4C310.9,437.9,310.9,437.9,315.8,438z M211.2,447.9c-4.8-0.9-12.3,0.2-16.5,2.5   C200.2,450.4,207.2,450.8,211.2,447.9z M305.3,436c-2.7-2-2.7-2-5.1,0C301.7,436,303,436,305.3,436z M297.5,436.4   c-1.5-0.7-2.7-0.5-3.4,1.3C295.5,438.2,296.7,438.2,297.5,436.4z M175.5,452.9c1.1,1.1,2.1,0.8,3.2,0.1   C177.6,452,176.6,452.1,175.5,452.9z M184.3,450.9c0.3,0.6,0.7,0.5,1.3,0.2C185.2,450.4,184.9,450.6,184.3,450.9z" />
	<path fill="#2D8FB9" d="M489.5,341.4c13.8-12.5,34.1-7.1,51-9c31-4.8,61.8-4.4,92.8-0.2c0.3,0.7,0.6,1.4,1.1,2.4   c19.2,6.9,33.7,22.7,46.6,38.5C620.4,349.3,554.3,332.6,489.5,341.4z" />
	<path fill="#FBDFD3" d="M849.9,94.8c-1,4.6-2.1,9.1-3.8,13.5c-1.7-1.8-3.4-3.6-4.9-5.2c-5.5-0.8-10.6-2.9-16.5,0.2   c6,2.9,12.7,1,17.4,6.9c-1.1,1.1-2.3,2.1-3.4,3.2c-0.5-0.9-1.2-2.6-2.3-2.9c-4.8,2.7-6.7-3.1-12.3-0.5c3.9,1.7,6.7,3.3,7.4,6.8   c1.5-0.3,2.7-0.6,3.9-0.8c3.1,6.5-0.3,14.3-1,21.7c-3.3-2.2-6.2-4.1-9.1-6.1c1.1-1.1,2.3-2.2,3.5-3.4c-4.6-2.2-6.1,3.8-4.6,7.1   c0.9,0.5,1.9,1.2,3.1,1.9c-0.9,2.5-1.8,5-2.9,7.8c-2.1-0.8-14.8-6.1-10.7-0.2l0,0c-0.3,1.8,1,3.3-0.1,4.8   c-8.2,4.5-2.9,14.8-16.9,11.1c-0.8-6.4-3.3-11.8-7.5-16c4.4-8.7,9-16.4,15.3-23.7c3.4-3.5,8-5.8,9.3-10.9c8.8-2.7,8.7-13,14.1-18.6   c2.5-0.7,2.6-0.8,2.8-3.9c1.7-0.5,3.5,0.3,4.4-1.8c3,2.6,6.2,1.7,8.9,0.5C849.5,88,851.2,89.2,849.9,94.8z" />
	<path fill="#4B65C5" d="M419,340.5c0.1,1.1,0.1,2.2,0.3,3.8c17.5-10.6,18.1-21.1,27.6-37.2c3.6,13.7,0.2,28.8,0.9,43.1   c-0.3,5.2,1,9.8-1.9,14.8c-19.6,5.6-27.8,24.1-40.4,38.4C413.5,383,417.3,361.7,419,340.5z" />
	<path fill="#CFCFDD" d="M13.9,456.2c-0.7,1.6-2.3,0.6-3.4,1.4c-0.8,15.1,7.1,30.2,11.5,44.6c14.7,3.8,12,17.5,12,29.5   c10.7,10.2,21.4,21.2,35.2,27.6c8.5,5.2,19.1,6.3,26.3,13.6c-1.4,2.8-4.1,4.7-6.5,6.5c-29-7.3-40.8-18-58.3-41.7   c-5.5-7.3-0.4-17.9-5.6-24.9C9.8,497.9,2.8,478,4.8,456.9C8,456.7,10.9,456.4,13.9,456.2z" />
	<path fill="#40A6CA" d="M489.5,341.4c64.7-8.4,132.6,7.2,192.3,32.6c-4.7,7.3-21.1-5.5-28.4-6.8c-16-5.9-32.8-8.9-49-14.1   c-1.1,1.3-2.1,2.4-3.1,3.5c-3.3-0.8-8.1-0.2-7.4-4.6c2.1,0.2,4.2,0.4,6.4,0.5c-4.5-5.2-14.3-2.4-20.8-3.4c-4.8-1.9-11.4-2-16.7-3.6   c-3.4,1.7-6.5,0.2-9.6-0.9c-2.8,0.4-5.4,1.1-8.3,0.2c-4.2-1.2-9.1,0.7-13-1.8c-13.6-0.5-28.6,0.6-42.4,3.3   c-14.9,20-46.9,29.2-49.5,57.2c-1,0.9-1.9,1.9-2.9,2.8c-4.1-30.3,34.9-42.4,48.7-63.4C487.1,342.6,488.3,342,489.5,341.4z" />
	<path fill="#4B65C4" d="M478.2,316.8c1.5,0,2.6-0.7,3.1-2.2c1.8,0.9,3.3,1.9,2.7,4c1.4,3.1,0.3,7.6,3.6,9.2   c0.6-1.1,1.1-2.2,1.6-3.2c2.5-1.1,2.5-1.1,3.8-2.6c-1.9-1.7-3.8,1-6-0.1c-0.3-0.8-0.6-1.8-0.9-2.9c3.3-0.8,6.3-1.6,9.3-2.3l0,0   c1.7,2,1.9,5,1.9,7.6c-1.9,0.1-7.4,1.3-6,3.8c1.6-0.5,3.2-0.9,5.1-1.5c0,1,0,1.7,0,2.5c-3.3,1.3-5.5,0.6-9,3c3.3-0.1,4.5-0.7,7,0.2   c-2,2.6-4.7,3.4-7.8,4.2c-3.5-2.2-7,0.3-10.9,0.8c-2.3-0.6-4.9-1.2-7.9-1.9c2.5-3.3,11.6-3.4,10.2-7.7c-5.8,1.7-16.9,6.2-18.8,11.9   c-0.2,0.1-0.5,0.2-0.7,0.4c0.1,0.1,0.3,0.3,0.4,0.4c0.1-0.2,0.2-0.5,0.3-0.7c0.4,0.1,0.9,0.2,1.5,0.4c-1.7,2.3-3.2,4.6-4.5,7.2   c-0.7,0-1.4,0.1-2.1,0.1c-1,0.8-1.9,1.6-2.9,2.4c-1.7-11.3,0.4-24.9-0.6-36.9c1.6,2.8,0.7,6,1,9.3c1.7,0.1,3.1,0.1,4.5,0.2   c0.4,1.5,0.5,3.1,2.8,3.4c0.4-1.1,0.8-2.2,1.2-3.4c1.6,0,3.1,0,4.8,0c1.6-1,2.9-2.2,3.8-3.9c3.4,0.3,6.8,0.6,10.7,0.9   C478.9,318.3,478.5,317.5,478.2,316.8z" />
	<path fill="#EDC9BA" d="M67.5,455.2c13.6-2.7,29.2-6.3,42.6-1.5c-10.5,7.7-23.1,9.3-35.5,11.2c-1.4,0.2-3.3,0.5-3.3,2.7   c-0.6-1-1.1-2.1-1.9-3.6c2.6-0.4,5.4,0.6,6.6-2.2c2.7,0.7,3.3-1.5,6-2.8c-3.5-0.4-4.3,0.5-5.9,2.9c-2.2-1.5-4.9-0.8-7.4-1.3   C67.8,458.9,66.9,457.2,67.5,455.2z M97.3,455.6c1.9,0.6,1.9,0.6,3.4-0.3C98.7,454,98.7,454,97.3,455.6z M91,457.5   c-3.6-0.6-3.6-0.6-4.5,1.5C88.3,459.4,89.7,458.9,91,457.5z M105,453.8c1,0.7,1.8,1,2.3-0.2C106.6,452.8,105.9,453.1,105,453.8z" />
	<path fill="#E2E2E9" d="M93.9,555.7c-5.4-9.5-1.4-21.7-2.7-32.2c1.9-0.4,3.5-0.7,5.4-1.1c0.7,2.2,0.3,4.6,0.6,7   c-1.8,1.3-2.5,2-3.6,4.2c1.5-0.2,2.6-0.4,3.7-0.6c1.6,2.7,1.6,6.7,3,9.5c3.5,3.2,10.5,11.9,5.1,15.9   C102,555.7,98.3,554.1,93.9,555.7z" />
	<path fill="#E0E1E8" d="M60.9,447.6c-12.8-12.5-29.9,4.2-44.7,3.7c0.7-2.2,1.4-4.2,2.1-6.6c15.7,1.9,29.7-9.6,45.7-7.2   c0,2.4,0,4.9,0,7.5C63.1,445.9,62.1,446.7,60.9,447.6z" />
	<path fill="#5573E3" d="M490.7,261.2c1.8,10.3,2.1,20.8,1.7,31.3c-3.1-1.6-4.9,1-7.4,1.8c0-3.8,0-7.4,0-11c1.3-0.8,2.7-1.6,4.3-2.6   c-0.7-0.7-1.1-1.1-1.5-1.6c-1.1,0.9-2,1.6-2.8,2.3c-0.9-0.4-1.7-0.8-2.6-1.1c-0.6-8.6-0.4-16,0.5-19   C485.4,261.3,488.1,261.3,490.7,261.2z M487.9,267.8c0.6-0.8,2.2-0.8,1.6-2.5c-2-1.2-3.2,1.4-5.3,0.8c0.7,1.2,1.1,2,1.5,2.7   c-0.9,0.1-2.1-0.1-2.5,1.6c3-0.6,5.4,0.6,7.5-2.1C489.4,268,488.7,267.9,487.9,267.8z M491,272.8c-2.3-1.7-4.9-0.4-7,1.7   C486.6,274.6,488.9,275.4,491,272.8z" />
	<path fill="#E9C6B7" d="M751.7,202.8c-3.4-9-5.7-18.4-7.7-27.7c-0.7-0.2-1.1-0.3-1.8-0.4c0.1-1.2,0.3-2.4,0.4-3.5   c4.4-3.7,8.9-6.8,14.5-9.1c-0.8,7.7-3.7,14.9-3.7,22.8c-3.9-3.2-1.8-10.3-6.5-12.9C747.9,181.8,755.7,191.7,751.7,202.8z" />
	<path fill="#40A2C4" d="M689.4,541.2c0.9-1.3,1.8-2.6,2.7-3.9c-0.3-0.7-0.5-1.3-0.8-1.8l0,0c10.1-12.7,17.7-27.1,21.2-42.9   c2.7,15.5-11.1,41.3-23.8,50.8c-0.1-1-0.1-1.6-0.2-2.2l-0.1,0.1C688.8,541.2,689.1,541.2,689.4,541.2z" />
	<path fill="#4A64C3" d="M485,283.4c0,3.6,0,7.2,0,11c2.6-0.8,4.3-3.5,7.4-1.8c0.1-2.7,0.2-5.2,0.3-7.6c1.8,8.5,1.1,17.4,1.9,26   c-0.7,0-1.4,0.3-2.1-0.1c-0.4-0.9-1.3-0.8-2.1-0.9c0-0.5,0-0.9,0-1.7c-2.3-0.2-4.3,1.1-6.4,0.8c0.2-8.6-0.7-17.2,0-25.7   C484.4,283.3,484.8,283.3,485,283.4z" />
	<path fill="#4962C0" d="M454.2,347.4c0.7,0,1.4-0.1,2.1-0.1c0,1.2-2,2.3,0,3.8c4-4.1,6.9-8.9,10.4-13.4c1.9-0.1,3.7-0.4,5.8,1.2   c-2.9,1.5-5.1,2.8-7.4,4.7c0,1.7,0,3.1,0,4.6c0.3,0.3,0.7,0.6,1,0.9c0.3,0,0.6,0.1,0.9,0.1c0,0-0.1,0-0.1,0   c-3.1,5.3-8.9,8.9-14.9,9.7C450.6,354.2,454.9,351.4,454.2,347.4z" />
	<path fill="#F9FAFA" d="M62.6,463.5c0.5,0.4,1,0.7,1.3,0.9c1.5,5.1,2.9,9.9,4.3,14.8c-16.9-0.5-10.4-14.7-6.6-25.8   C61.9,457.5,62.2,460.5,62.6,463.5z" />
	<path fill="#ECC8B8" d="M793.5,136.9c-1.4,2.4-2.7,4.9-4.3,7.6c4.3,4.2,6.7,9.7,7.5,16c2.1,0.9,4.3,0.1,6.4,0.5   c-8.5,4.3-14.4-6.8-20.4-10.9C786.6,145.9,789,140,793.5,136.9z" />
	<path fill="#152227" d="M713.3,469.7c-1.8-15.3-5.6-29.9-12.8-43.7c6.2,2.3,13.1,28.5,13.3,36.2c0.1,0,0.3,0,0.4,0   c0.1-2,0.2-4,0.3-6c1.7,3.8,0.2,8.4,1.8,12.4c-2.1,0.9-0.2,3.7-1.8,5c-0.1-2-0.2-4-0.3-6.1c-0.2,0-0.3,0-0.5,0   C713.5,468.2,713.4,469,713.3,469.7z" />
	<path fill="#F0D5C9" d="M718.2,206.8c-1.5-0.7-0.7-2.1-1.1-3.2c2.7-6.8,7.1-13.2,10.7-19.7c1.5,0.6,0.5,2,1,2.9   C727.9,194.6,723.4,201.4,718.2,206.8z" />
	<path fill="#E3CFC4" d="M241.2,400.9c-10.2-3.3-20.7-3.7-31.4-3.2c0-0.3,0-0.6,0-0.8l0,0c1.4,0,2.8,0.6,3.9-0.8   c9.9-1.7,19.9-1.9,28.6,3.7C241.9,400.2,241.6,400.6,241.2,400.9z" />
	<path fill="#E7D1C6" d="M94.1,438.8c-8.8,3.1-18.2,3.6-26.8,6.1c-1.7-0.9,0.1-2.3,0.2-3.8C76.4,441,85.6,437,94.1,438.8z" />
	<path fill="#D2C3B9" d="M159.3,413.5c11.1-4.5,21.6-10.4,33-13.9c0.4,0.3,0.8,0.7,1.1,1c-10.7,4.8-21.2,9.9-32.3,13.6   C160.5,414,159.9,413.7,159.3,413.5z" />
	<path fill="#0C0E1C" d="M495.5,316.7c-3,0.8-6,1.5-9.3,2.3c0.4,1.1,0.7,2.1,0.9,2.9c2.2,1.1,4.1-1.6,6,0.1   c-1.4,1.5-1.4,1.5-3.8,2.6c-0.5,1-1.1,2.1-1.6,3.2c-3.3-1.7-2.3-6.2-3.6-9.2c2.6-3.6,7.9-2.6,11.4-3.9   C495.4,315.3,495.5,316,495.5,316.7z" />
	<path fill="#CCCAD7" d="M93.9,555.7c4.4-1.5,8.1,0,11.5,2.7c-2,2.2-4,3.2-6.7,4.8C97.4,560.3,94.8,558.6,93.9,555.7z" />
	<path fill="#3B322E" d="M751.7,202.8c4-11.1-3.8-21-4.8-31c4.7,2.6,2.5,9.7,6.5,12.9c0.2,6.6,0,13.2,0,19.7   C751.4,204.8,751.6,203.7,751.7,202.8z" />
	<path fill="#10172A" d="M419,340.5c-2.1,4.4,0.4,10.1-1.7,14.6c-0.1-8.2-2.5-23.9,1.8-30.4C419.1,330.7,419.2,334.9,419,340.5z" />
	<path fill="#516CD3" d="M482.9,254.6c0.4-0.6,0.8-1.3,1.2-1.9l-0.1,0.1c2.5,0.7,5,1.4,8,2.2c-1.9,3.8-5.9,4.1-9.6,5.3   C481.4,258.2,481.9,256.3,482.9,254.6z" />
	<path fill="#3B819A" d="M714.4,473.5c1.7-1.3-0.2-4.1,1.8-5c0.3,1.7,0.6,3.4,1,5.4c-3.8,6.2-1,15.1-3.8,21.6c-0.4-1,0.3-2.3-0.9-3   C713.2,486.2,714.3,479.9,714.4,473.5z" />
	<path fill="#0E1324" d="M482.9,254.6c-1,1.8-1.5,3.6-0.5,5.7c1-0.3,1.8-0.5,2.7-0.7c1.5,2,4.3-0.5,5.6,1.7c-2.7,0-5.3,0.1-7.9,0.1   c-0.9,3-1.1,10.3-0.5,19c-0.6-0.3-1.3-0.6-1.9-0.9c1.6-7.4,0.3-16.2,0.7-24.3C481.8,255,482.4,254.8,482.9,254.6z" />
	<path fill="#D0C0B6" d="M120.1,431.6c3.8-1.7,7.5-3.4,11.3-5.2c0.4,0.1,0.9,0.1,1.3,0.2c-0.7,2.1-2.7,3.2-4.2,4.7   c-2.1,0.4-4.2,0.8-6.3,1.2C121.4,432.2,120.7,431.9,120.1,431.6z" />
	<path fill="#B9BBC1" d="M99.7,501.9c-0.8,3.9-1.4,6.9-2.1,10c-0.9,0.2-1.4-0.3-2.1-0.8c0.3-2.6,0.6-5.2,0.9-8   C97.2,502.8,98.1,502.5,99.7,501.9z" />
	<path fill="#1B1615" d="M128.4,431.3c1.5-1.5,3.5-2.6,4.2-4.7c4.4-1,0.4-3.4,8-2.6c-2.2,1.3-3.5,2.1-4.9,3c0.3,0.4,0.6,0.8,0.9,1.2   C134.1,429.6,131.5,431,128.4,431.3z" />
	<path fill="#57514C" d="M246.1,400.8c5.2,1.4,12.9,2.2,16.3-2.9c-0.1,0.9-0.2,1.8,1,2.1c-5,3.9-12.5,3.2-18.4,1.9   C245.4,401.6,245.7,401.2,246.1,400.8z" />
	<path fill="#4861BC" d="M495.4,314.7c-2.8,0.9-6.3,1.1-9.4,1.9c0-0.9,0-1.8-0.1-2.7c0,0,0,0,0,0c2.3-0.2,8.1,0.8,7.5-2.8   c0.4,0,0.8-0.1,1.3-0.1C496.1,312,495.2,313.4,495.4,314.7z" />
	<path fill="#DCDEE4" d="M92.2,519.2c0.5-1.3,1-2.6,1.5-3.9c1.1-0.5,2.1-0.9,3.2-1.4c0,1.7,0,3.3,0,5c-1.2,0.5-2.3,1-3.5,1.5   C93,520,92.6,519.6,92.2,519.2z" />
	<path fill="#A8ABB1" d="M97.8,493.4c1-1.5,1.9-3.2,3.9-4.7c-0.5,3.5-0.8,6.5-1.2,9.6c-1.2,0-2.1,0-3.2,0c-0.1-0.7-0.1-1.3-0.2-1.9   c0.8-0.5,1.6-0.9,2.5-1.4C98.9,494.4,98.4,493.9,97.8,493.4z" />
	<path fill="#397D95" d="M714.5,456.1c-0.1,2-0.2,4-0.3,6c-0.1,0-0.3,0-0.4,0c-0.4-4.3-1-8.6-2.1-12.8c1-1.4,0.7-3.1,0.8-4.7   C714.3,448,713.7,452.4,714.5,456.1z" />
	<path fill="#22647E" d="M542.2,592c1.4,0,2.9-0.7,4,0.7c-4.7,1.2-9.9,2-14.5,0.2C534.9,590.4,539,594.5,542.2,592z" />
	<path fill="#0E0E1C" d="M496.5,329.1c0-0.7,0-1.5,0-2.5c-1.9,0.6-3.5,1-5.1,1.5c-1.4-2.6,4.1-3.7,6-3.8   C497.3,326,497.9,327.9,496.5,329.1z" />
	<path fill="#297797" d="M684.7,546.1c0.5-0.2,1-0.5,1.8-0.8c-1.3,3.4-5.4,6.8-8.5,8.3C679.7,550.7,682.3,548.5,684.7,546.1z" />
	<path fill="#D8B9AB" d="M813.7,149.4c1.1-1.5-0.2-3,0.1-4.8c1.2,0.2,2.4,0.4,3.7,0.6c0,1.3,0,2.3,0,3.6   C816.1,149.1,814.9,149.2,813.7,149.4z" />
	<path fill="#245A70" d="M669.4,559.4c1.3-2.7,3.9-4.3,6.9-3.8c-2,1.6-4,3.2-6.1,5C669.9,560,669.7,559.7,669.4,559.4z" />
	<path fill="#C0B5AF" d="M837.5,111.1c0.4,0.7,0.8,1.4,1.2,2.2c-0.6,2.9-1.2,5.7-2,8.6c-0.1-2.1,0.4-4.4-1.3-6   C837.1,114.7,836.4,112.6,837.5,111.1z" />
	<path fill="#4760BC" d="M470.7,346.3c-0.8-0.5-1.7-1.1-2.5-1.6c1.4-1.7,3.4-1,5.1-1.4c0.4,0.4,0.7,0.7,1.1,1.1   C473.2,345,471.9,345.6,470.7,346.3L470.7,346.3z" />
	<path fill="#494F4A" d="M205,397.8c-1.7,2-5.4,1.1-7.8,1.9c-0.6-0.3-1.2-0.6-1.9-0.9c2.9-1.6,6.6-1,9.8-1.6   C205.2,397.4,205.1,397.6,205,397.8z" />
	<path fill="#17313D" d="M676.3,555.6c-0.8,0-1.5,0-2.3,0c1.6-1.6,3.2-3.2,4.9-4.8c0.3,0,0.7,0,1,0.1c-0.6,1-1.3,1.9-1.9,2.9   l0.1-0.1c-0.7,0.3-1.1,0.5-0.1,0.9C677.8,555.4,677.1,555.6,676.3,555.6z" />
	<path fill="#71756E" d="M118.2,433.4c-3.1,1.1-6.4,1.6-9.7,1.8c0-0.3,0-0.6,0-0.9c2.9-0.6,5.8-1.2,8.6-1.8   C117.5,432.8,117.9,433.1,118.2,433.4z" />
	<path fill="#47413E" d="M269,392.2c2.1-1.1,4.2-4.6,6.5-4.3C273.7,389.8,272.1,392.6,269,392.2z" />
	<path fill="#28586C" d="M679.9,550.8c-0.3,0-0.7,0-1-0.1c1.9-1.9,3.8-3.8,5.8-5.7c0,0.4,0,0.7,0,1.1   C683.1,547.7,681.5,549.2,679.9,550.8z" />
	<path fill="#433331" d="M824.2,130.4c1-3.2,1.1-3.2,4.6-2.4c-1.3,1.2-2.4,2.3-3.5,3.4C824.9,131.1,824.6,130.8,824.2,130.4z" />
	<path fill="#29201F" d="M86.5,479.1c-1.3-2.2-1.3-2.2,0.9-3.8c0.8,0.1,1.8-0.2,2,1c-0.6,0.9-2,1.3-1.8,2.8   C87.3,479.1,86.9,479.1,86.5,479.1z" />
	<path fill="#C6B2A8" d="M263.4,400c-1.3-0.2-1.1-1.2-1-2.1c1.3-1,2.5-2.1,3.8-3.1c0.1,0.4,0.1,0.9,0.2,1.3   C265.4,397.4,264.4,398.7,263.4,400z" />
	<path fill="#8E7B74" d="M159.3,413.5c0.6,0.3,1.2,0.5,1.8,0.8c-1.6,0.7-3.2,1.3-4.8,2c-0.3-0.3-0.6-0.7-0.9-1   C156.7,414.6,158,414,159.3,413.5z" />
	<path fill="#43403C" d="M98,437.1c1.7-1.3,3.7-1,5.8-1l0,0c-1.2,1.6-4,1.2-5.8,1.9C98,437.7,98,437.4,98,437.1z" />
	<path fill="#9F948D" d="M246.1,400.8c-0.3,0.4-0.7,0.7-1,1.1c-1.3-0.2-2.8,0.1-3.8-1c0.4-0.4,0.7-0.7,1.1-1.1   C243.5,400.2,244.8,400.5,246.1,400.8z" />
	<path fill="#857A71" d="M728.8,186.9c-0.6-0.9,0.4-2.3-1-2.9c0.4-0.8,0.8-1.6,1.3-2.5C729.8,184.2,729.8,184.2,728.8,186.9z" />
	<path fill="#787871" d="M266.4,396.2c-0.1-0.4-0.1-0.9-0.2-1.3c1-0.9,1.9-1.8,2.9-2.6c0.4,0,0.9,0,1.3,0   C269,393.5,267.7,394.8,266.4,396.2z" />
	<path fill="#23396F" d="M470.7,346.3c-0.6,1.8-2.4,2.2-3.9,2.9l0.1,0C467.5,346.6,467.8,346.3,470.7,346.3L470.7,346.3z" />
	<path fill="#444845" d="M108.5,434.3c-0.1,0.3-0.1,0.6,0,0.9c-1.5,1-3.1,1-4.8,0.9l0,0C105,434.7,106.8,434.6,108.5,434.3z" />
	<path fill="#151425" d="M492.7,331.8c-1.4,0.1-2.8,0.2-5.2,0.3c2.1-1.4,3.6-1.9,5.2-1.9C492.7,330.7,492.7,331.3,492.7,331.8z" />
	<path fill="#94A79E" d="M98,437.1c0,0.3,0,0.6-0.1,0.9c-1.3,0.3-2.5,0.5-3.8,0.8c-0.7-0.3-1.4-0.6-2.1-0.8   C93.9,436.9,96,437.1,98,437.1z" />
	<path fill="#A3938C" d="M118.2,433.4c-0.3-0.3-0.7-0.7-1-1c1-0.3,1.9-0.6,2.9-0.9c0.7,0.3,1.4,0.6,2.1,0.9   C121,433.5,119.6,433.3,118.2,433.4z" />
	<path fill="#2C3436" d="M97.8,493.4c0.6,0.5,1.1,1,1.9,1.6c-0.9,0.5-1.7,1-2.5,1.4C97.2,495.4,96.6,494.2,97.8,493.4z" />
	<path fill="#11313E" d="M378.2,440.9c-0.4-0.3-0.7-0.5-1.1-0.8c0.4-1.5,1.4-2.4,2.8-3l0,0C379.9,438.6,379.2,439.8,378.2,440.9z" />
	<path fill="#A79B92" d="M195.3,398.7c0.6,0.3,1.2,0.6,1.9,0.9c-1.2,0.3-2.5,0.6-3.7,1c-0.4-0.3-0.8-0.7-1.1-1   C193.3,399.3,194.3,399,195.3,398.7z" />
	<path fill="#505854" d="M135.2,424.7c-0.6,1.7-2.2,2.2-3.9,1.7C132.4,425.2,133.7,424.8,135.2,424.7z" />
	<path fill="#A4ADA4" d="M205,397.8c0.1-0.2,0.1-0.4,0.1-0.6c1.5-0.1,3.1-0.2,4.6-0.2c0,0.3,0.1,0.6,0,0.8   C208.2,397.8,206.6,397.8,205,397.8z" />
	<path fill="#84797D" d="M92.2,519.2c0.4,0.4,0.8,0.8,1.2,1.2c-0.5,0.5-1.1,1-1.6,1.5c-0.2-0.1-0.3-0.2-0.5-0.3   C91.6,520.8,91.9,520,92.2,519.2z" />
	<path fill="#36343A" d="M502.4,260.1c0.3,0.6,0.6,1.1,1.4,2.4c-1.7-0.5-2.7-0.8-3.6-1.1C501,261.1,502,261.2,502.4,260.1z" />
	<path fill="#73808E" d="M495.5,258.4c-0.2,0.1-0.7,0.1-0.9,0.1c0-0.9-0.1-1.8-0.1-2.6c0.5-0.1,0.8-0.2,1.4-0.3   C495.7,256.6,495.6,257.5,495.5,258.4z" />
	<path fill="#37302E" d="M155.4,415.2c0.3,0.3,0.6,0.7,0.9,1c-0.7,1.1-1.8,0.8-2.9,0.8l-0.1-0.1   C153.7,415.9,154.4,415.4,155.4,415.2z" />
	<path fill="#A4ADA4" d="M213.7,396.1c-1.1,1.4-2.5,0.8-3.9,0.8C210.9,395.8,212.3,396,213.7,396.1z" />
	<path fill="#314689" d="M474.4,344.4c-0.4-0.4-0.7-0.7-1.1-1.1c1-0.3,1.9-0.6,2.9-0.9c0.1,0.1,0.2,0.2,0.3,0.4   C475.9,343.3,475.2,343.8,474.4,344.4z" />
	<path fill="#D8B9AB" d="M813.8,144.7c-1.5-1.1-1.5-1.7,0-2.7C813.8,142.8,813.8,143.7,813.8,144.7z" />
	<path fill="#2D8FB9" d="M658.9,567.1c0.5,0.1,1.1,0.1,1.6,0.2c0,0.1,0,0.3,0,0.4c-0.5,0.1-1.1,0.2-1.6,0.3l0.1,0.1   C658.9,567.7,658.9,567.3,658.9,567.1L658.9,567.1z" />
	<path fill="#37302E" d="M153.4,417.1c-0.4,0.3-0.8,0.6-1.1,0.9c-0.1-0.2-0.2-0.4-0.3-0.6C152.4,417.2,152.9,417.1,153.4,417.1   L153.4,417.1z" />
	<path fill="#314689" d="M476.2,342.3c0.5-0.8,1.1-0.8,2.5-0.4c-1.2,0.4-1.7,0.6-2.2,0.8C476.5,342.6,476.4,342.5,476.2,342.3z" />
	<path fill="#0C0E1C" d="M496.4,317.8c-0.3-0.4-0.6-0.8-0.9-1.1C495.8,317.1,496.1,317.5,496.4,317.8z" />
	<path fill="#23396F" d="M466,349.1c-0.3-0.3-0.7-0.6-1-0.9C465.3,348.5,465.6,348.8,466,349.1z" />
	<path fill="#11313E" d="M379.9,437.1c0.1-0.2,0.2-0.4,0.4-0.7C380.1,436.7,380,436.9,379.9,437.1L379.9,437.1z" />
	<path fill="#297797" d="M678,554.6c-1-0.4-0.6-0.7,0.1-0.9C678,553.9,678,554.3,678,554.6z" />
	<path fill="#FBDFD3" d="M736.1,147.6c-0.9,1.1-1.7,2.4-3.2,2.6c-4.8,0.9-7.1,4.9-10.6,7.9c-9.6-0.7-17.3,6.9-26.4,9.1   c-7.3,3-17.4,2.7-22.5,9.7c0.1,5.2,6,4.2,8.3,7.4c3.9,5.5,10.9,1.6,15.6,4.7c-5.8,12.6-16.9,22.1-26.8,31.4l0,0   c-2.5,0-3.6,2-4.9,3.7c-1.5,0-2,0.8-2,2.2c-32.3-20.5,1.3-83.4,21.8-102.4c-1.2,0.8-1.9,1.4-2.6,1.9c-1-0.2-2.1,0.4-2.8-0.8   c8.3-7,19.4-16,30.2-15c26.8,4.1,40.6-23.2,63.9-30.3c0.3-1.5-0.7-1.5-1.4-1.7c-4.6-6-19.8,5.5-27.2-2.3c0.2-0.3,0.4-0.5,0.6-0.7   c1.1,0.1,2.2,0.1,3.5,0.2c1.3-0.7,2.6-1.5,3.9-2.3c-3.1-6.2-10.5-5.1-15.2-9.7c0.2-1,0.5-2.1,0.8-3.3c8.3-3,15,1,21.5,4.7   c0.6-0.5,0.6-0.8,0.8-1.3c-2.8-8.2-13.2-8.4-16.9-15.3c1.5-1.1,3-2.2,4.3-3.1c8.6,1.7,14.5,5.5,19.9,11.9c4.2-2.7-3.8-6.2-4.3-9.5   c-1.5-3-5.6-3.7-7.6-6.3c15.1-6.9,14.9,14.5,24.5,16.7c2.5,1.5,5.9,1.2,7.4,4.3c0.4,0.7,1.3,1.2,2.1,1.9c-6.1,2-9.7,6.2-13.7,10.7   c0.6,1.7,1.2,3,1.7,4.4c4.4-1,6.9-4.1,11.3-5.5c-1.9-1.5-3.6-0.9-6.1-1.3c7.1-8.7,19-4,27.6-0.6c8.3,1.6,11.1,8.2,9.8,16   c-1,0.2-2.4-0.6-2.7,1.2c0.2,0.7-0.7,1.9-1.1,2.1c-2.5,0.6-4.2,2.4-6.3,4.4c-0.3-6.1-1-12.5-9.2-11.1c0.1,3.2,3.4,3.3,5.2,5.1   c-1.4,5,1.1,12.4-3.9,15.5c-9.9-7.8-10.1,11.1-19.8,10.8c0.4,0.4,0.7,0.8,1.1,1.2c-11.2,13.4-27.7,21.6-42.9,29.8   c-0.4-0.4-0.5-0.7-0.7-0.9c0-1.7,0.1-3.4,0-5.1c-0.1,0-0.3,0-0.4,0c-0.1,0.5-0.2,1-0.4,1.6l0,0   C738.8,143.8,737.5,145.7,736.1,147.6z M818.5,84.8c0.6-4.8-1.7-9.8-6.3-8.5C813.7,79.6,816.1,81.7,818.5,84.8z M744.9,64.2   c1.1-1.7,2.6-2.5,1.2-4.4C745,61,743.6,61.7,744.9,64.2z M743.7,129.5c-1.7,0.8-2.7,1.5-2.2,3.3   C743.1,132.5,743.5,131.4,743.7,129.5z M745.3,122.9c-1.3,0.8-2.2,1.7-0.9,3.4C745.5,125.4,746.8,124.6,745.3,122.9z M728.2,115.2   c0,0.3,0,0.5,0,0.7C728.6,115.7,728.6,115.5,728.2,115.2z" />
	<path fill="#B7BDD5" d="M712.3,249.7c0.2,1.6-0.6,2.7-1.5,3.8c-8.8,0.9-14.9-15.1-13.8-22.4c-1.1-0.2-2-0.3-2.9-0.4   c6.6-1.8,11.9-4.7,16.8-9.7c0.5,1.1,0.8,1.8,1.2,2.7c1.9-1.2,0.5-3.3,2-5.5c1.9-2.1,4.4-4.9,6.9-7.7c1.2,9.6-6.2,17.5-7.5,26.5   C712.6,240.8,715,246.9,712.3,249.7c0.2-1.5,0.4-3.1-0.4-4.6c-0.5,0.1-0.9,0.2-1.6,0.4C710.8,247,710.9,248.6,712.3,249.7z    M707.8,238.3c-0.3,1.5,0.6,2.5,1.8,4c-0.7-2.8,1-4.6-0.5-6.9C706.9,235.8,707.8,237.2,707.8,238.3z" />
	<path fill="#EDC9B9" d="M746.1,74.8c-0.2,0.2-0.4,0.4-0.6,0.7c7.5,7.8,22.7-3.7,27.2,2.3c-7.1,2.6-14.7,3.7-21.3,7.8   c-4.7-2.3-9.4-4.5-14.1-6.8c-0.2-2.1,1.4-3.9-0.1-5.8C740,71.4,743.2,74.3,746.1,74.8z" />
	<path fill="#363939" d="M840.8,66.8c0.6,1.1,1.1,2.1,1.6,3.1c7.3-0.6,14.1-0.6,20.9-3.5c2.8,5.4-13.3,3.7-16.2,6.7   c-3.6-1.3-7.2-2.7-10.9-4C837.8,66.6,837.8,66.6,840.8,66.8z" />
	<path fill="#3C3D3D" d="M772.8,24.3c0.9-2,2-2.9,3.8-2.8c4.7,0.5,8.8-2.1,13.4-2c0.3,2.8-1.2,4.6-2.8,6.5   C782.3,25.5,778,22.4,772.8,24.3z" />
	<path fill="#E4CEC3" d="M680,124.9c0.7,1.1,1.9,0.6,2.8,0.8c-5.2,2.5-9,8.3-13.4,12.4c-1.1-0.3-0.9-1.2-1-1.9   C670.7,130.7,675.6,128.3,680,124.9z" />
	<path fill="#323333" d="M815.6,30.8c4.5-3.5,4.5-3.5,5.2-8.2c2.9,0.2,5.6,1,8.3,3.4c-2.1,0.2-3.8-1.7-5.4,0.5   c0,0.4,0.1,1.2,0.2,1.9C823.5,29.2,819.4,30.5,815.6,30.8z" />
	<path fill="#261F1D" d="M669.5,138.1c4.2-3.3,7.4-10,12.4-11.5c0,0.6,0,1.3,0.1,1.9c-4,3.7-7.6,7.7-11.3,11.7   c-0.4-0.4-0.8-0.9-1.2-1.3C669.4,138.7,669.4,138.4,669.5,138.1z" />
	<path fill="#373939" d="M874.5,78c-3.7,3.7-10.3,5.5-14.6,2.5C863.9,77.7,869.8,78.8,874.5,78z" />
	<path fill="#DEC7BC" d="M739,66.7c-0.5,2.9-0.5,2.9-4.9,5.2c-1.3-1.7-3.2-3.2-3.3-5.9C733.9,63.8,735.8,68.1,739,66.7z" />
	<path fill="#3B3C3C" d="M826.4,60.7c-1.4,1.5-2.4,2.7-3.2,3.6c-2.4,0-4.2,0-6.2,0C820.7,59.7,822.2,59.1,826.4,60.7z" />
	<path fill="#2A2A2A" d="M826.9,39.3c4.2-2.2,7.7-2.3,11.8,0.1C834.7,41.2,831.4,41.4,826.9,39.3z" />
	<path fill="#2B2C2C" d="M734.4,93.2c-0.5-4,0.6-7.4,3.4-10.5c2,0.9,3.4,2.1,4.1,4.1c-1.2,1-1.9-0.1-2.8-0.1c-0.8-0.1-1.5,0-2.5,0   C735.8,88.9,736.2,91.5,734.4,93.2C734.4,93.1,734.4,93.2,734.4,93.2z" />
	<path fill="#242828" d="M830.8,52.6c4.2-2.1,7.9-0.8,11.4-3.4c2.6,2-2.6,3.1-3.9,4.6C836.2,53.5,833.9,53.1,830.8,52.6z" />
	<path fill="#DAC6BB" d="M735.4,83.9c-1.8,0.7-3.1,1.2-4.7,1.8c-0.8-1-1.6-2.1-2.5-3.5C731,80.9,735.6,79.5,735.4,83.9z" />
	<path fill="#1F1F1F" d="M806.3,19.4c-3.7,0-7.5,0-11.7,0c2.6-2.8,8.8-1.7,12.2-0.9C806.7,18.8,806.5,19.1,806.3,19.4z" />
	<path fill="#303131" d="M789.8,33c0.6,0.1,1.1,0.3,1.8,0.4c-1.3,2.8-3.6,5.2-7.6,8.1C783.8,37.6,787.7,35.6,789.8,33z" />
	<path fill="#2C2D2D" d="M732.5,97.1c0.5,0.6,1.2,1.5,1.9,2.2c-1.6,3.5-1.6,3.5-5.1,5C731,101.7,729.5,98.9,732.5,97.1z" />
	<path fill="#292B2B" d="M811.8,49.7c0.4-1.1,0.8-2.1,1.2-3.1c2.1,0.3,4,0.7,6.3,1C817.1,50,814.9,50.7,811.8,49.7z" />
	<path fill="#181919" d="M789.8,33c-1.3,1.3-2.5,2.5-3.8,3.8c-0.5-0.6-1-1.2-1.5-1.8c0.8-1.9,0.8-1.9,3.5-3.8   C788.5,31.8,789.2,32.4,789.8,33z" />
	<path fill="#222424" d="M830.9,87.4c-0.2,3-0.3,3.2-2.8,3.9c0.3-2.8-0.5-5.4-2-7.6c2.3-2.3,2.5,2.3,3.4,3.5   C830,87.3,830.5,87.3,830.9,87.4z" />
	<path fill="#323333" d="M793,57.3c-1.2,0.9-2,1.4-2.9,2c-1-0.7-2.1-1.5-3.4-2.5c0.4-0.9,0.7-1.7,1.2-2.8   C789.5,55.1,790.9,56,793,57.3z" />
	<path fill="#303232" d="M814.8,63.5c-0.3-3.1,2-4.3,2.8-6.5c1,0.4,1.8,0.8,2.5,1.1C819.7,60.6,816.9,61.3,814.8,63.5z" />
	<path fill="#333C3C" d="M856.8,56.9c0,0.6,0,1.1,0,1.7c-3.3-1.2-6.7-1.1-10,0C846.1,54.9,854.4,57.6,856.8,56.9z" />
	<path fill="#1A1C1C" d="M854.1,76.3c3.4-2.4,5.5,0,7.7,0.1C859.6,77,857.4,77.1,854.1,76.3z" />
	<path fill="#66524C" d="M818.7,99.9c0.3-2.1-1.1-3.4-1.2-5.6c1.2,0.3,2,0.5,2.9,0.7C820.2,96.8,819.8,98.5,818.7,99.9z" />
	<path fill="#5D534C" d="M737.2,73c0.9,1.3,0.8,2.6,0.1,3.9c-0.9-0.3-1.9-0.6-2.8-1C734.9,74.6,735.9,73.7,737.2,73z" />
	<path fill="#9BA9BB" d="M666.7,133.5c-0.4-0.4-0.8-0.8-1.2-1.2c1.1-1.2,2.2-2.5,3.9-4.5C669.5,130.9,668.2,131.3,666.7,133.5z" />
	<path fill="#B89A8E" d="M734.5,76c0.9,0.3,1.9,0.6,2.8,1c0,0.6,0,1.2-0.1,1.8C735,78.7,733.8,78.9,734.5,76z" />
	<path fill="#1D1E1E" d="M734.4,93.1c0,1.6-0.7,2.3-2.6,1.5c0-0.6-0.1-1.3-0.2-2.4C732.8,92.6,733.6,92.9,734.4,93.1L734.4,93.1z" />
	<path fill="#B7A69D" d="M669.5,138.1c0,0.3-0.1,0.6-0.1,0.9c-0.6,0.6-1.2,1.3-1.9,1.9c-0.4,0-0.8,0-1.2,0c0.7-1.6,1.4-3.2,2.1-4.8   C668.6,136.9,668.4,137.8,669.5,138.1z" />
	<path fill="#353939" d="M871.8,70c-1.2,0-2.2,0-3.2,0C870,68,870,68,871.8,70z" />
	<path fill="#3E383E" d="M659,231.8c-1.1,1-2.4,1-3.7,0.6C655.4,230,657.7,231.1,659,231.8z" />
	<path fill="#262524" d="M850.1,93.2c-0.3-1.5,0.6-3.2-0.5-4.6C851.6,88.9,851.7,92,850.1,93.2z" />
	<path fill="#2B2C2C" d="M822.8,71.8c0.8,1.2,1.1,1.8,1.7,2.7C822.8,74.4,822.3,73.9,822.8,71.8z" />
	<path fill="#232424" d="M829.3,77.6c-0.4-0.6-0.8-1.2-1.5-2.1C829.4,75.5,829.7,76.2,829.3,77.6z" />
	<path fill="#705B56" d="M666.3,140.9c0.4,0,0.8,0,1.2,0c-0.4,0.6-0.8,1.2-1.2,1.8C665.4,141.9,665.5,141.4,666.3,140.9z" />
	<path fill="#9F988F" d="M740.5,56.6c-0.4,0-0.8,0-1.2-0.1c-0.1-0.6,0.8-0.2,1.2-0.3C740.5,56.3,740.5,56.4,740.5,56.6z" />
	<polygon fill="#395151" points="739.9,92.7 739.5,92.8 739.6,92.5  " />
	<path fill="#2D8FB9" d="M494.6,524c0.3,0,0.6,0,0.9,0c2.2,2.2,5.8,2,7.7,4.8c0.3,0,0.6,0,1,0c5.7,3.6,12.5,8.1,19.1,9.6   c0.3,0.3,0.6,0.6,1,0.9c0.8,0,1.6,0.1,1.9-0.9c0.3,0,0.6,0,0.9-0.1c34.9,29.1,87.3,32.3,128.2,13.6c1.8,1.8,4.4-1,6.7-0.3   c0.3-0.3,0.6-0.6,1-0.9c1.6,0,3.2,0,4.8,0c0.3-0.3,0.6-0.6,1-0.9c0,0,0,0,0,0c1.6,0,3.3-0.1,4.9,0.1c-56,46-156.6,34.2-191.4-32.4   c0.4,0,0.8-0.1,1.2-0.1C486.4,520.4,490.6,522,494.6,524z" />
	<path fill="#2D8FB9" d="M597.7,554.6c12.7,1.1,28.5,2.3,41.1,0l0,0c1.6,0,3.3,0.1,4.9,0.1c-34.5,13.5-76.6,9.4-107.4-11.4   C557.1,545.9,576.8,554.5,597.7,554.6z" />
	<path fill="#17262C" d="M590.1,562.2c76.3,11.6,156.3-73.8,97.9-141.7c63.7,65.7-20.8,155.2-97.9,142.6   C590.1,562.8,590.1,562.5,590.1,562.2z" />
	<path fill="#162328" d="M504.2,512.5c-30.5-49.5,7.5-112.2,60.1-124.9c0,0.3,0,0.6,0,0.9c-51.1,14.5-87.8,73.1-59.2,123   C504.8,511.8,504.5,512.2,504.2,512.5z" />
	<path fill="#162328" d="M587.3,527c-57-18.9-54.9-89.6,2.9-105c0,0.3,0,0.6,0,0.9c-57.5,18.1-56.8,86.9,1,103.9c0,0.3,0,0.6,0,1   C589.8,527.6,588.5,527.1,587.3,527z" />
	<path fill="#162328" d="M582.5,404.6c-0.7,0.4-1.3,0.7-2,1.1c-39.8,9.5-68.9,52.3-53.4,92.4c-0.3,0.3-0.6,0.6-1,0.9   c-18.2-41.3,14.4-85.8,55.4-95.2C581.9,404.1,582.2,404.4,582.5,404.6z" />
	<path fill="#17252B" d="M636.9,543.9c39.2-10.9,64.2-43.5,59.4-84.1c11,39.1-22.5,76.8-59.4,85.1   C636.9,544.5,636.9,544.2,636.9,543.9z" />
	<path fill="#15242A" d="M630.3,572c36.7-10.1,68.6-37.6,79.3-74.8c1.5-0.8,0.5-2.5,1-3.8c0.3,0.4,0.7,0.8,1,1.2   c-2.4,15.2-11.2,28.6-20.3,40.7l0,0c-16.2,17.4-36.6,31.9-60,37.4C631,572.6,630.7,572.3,630.3,572z" />
	<path fill="#18252B" d="M638.9,527.2c-2.2,0.4-4.5,1.9-6.7,1.5c0-0.3,0-0.6,0-1c32.1-7.6,52.1-34.1,47.6-66.7   c9.6,29.4-13,56.9-39.9,66C639.5,526.9,639.2,527,638.9,527.2z" />
	<path fill="#172429" d="M696.3,459.8c-0.3,0.7-0.6,1.4-0.9,2.1c-5.9-27.9-29.7-49-56.5-56.1c-0.7-0.4-1.3-0.7-2-1.1   c0.3-0.3,0.6-0.5,1-0.8C664.8,411,690.6,431.5,696.3,459.8z" />
	<path fill="#162328" d="M468.8,463.9c1.8-24.7,14.7-48,33.4-64c1.3,1.2-0.5,1.8-1.1,2.6c-18,17-28.9,40-31.4,64.5   C469.5,465.9,470.2,464.6,468.8,463.9z" />
	<path fill="#11252E" d="M448.5,493.4c3,20.4,15.4,36.2,25.9,52.6l0.1-0.1c-18.2-17.6-29.5-43.7-28.7-68.7c0.2,0,0.6,0,0.8,0   c0.7,3.4-0.8,7.6,0.9,10.5C448.1,489.6,447,492.1,448.5,493.4z" />
	<path fill="#40A6CA" d="M575.8,551.7c-13.3-3-26.9-6.1-40.1-8.8c0.5-0.8,1-1.6,1.6-2.6C547.1,544.4,571.2,543.5,575.8,551.7z" />
	<path fill="#18262B" d="M679.7,461c-0.3,0.7-0.6,1.4-0.9,2.1c-6.3-21.5-25-35.3-45.8-41.2c0-0.3,0-0.6,0-1   C654,425.6,673.5,439.9,679.7,461z" />
	<path fill="#16242A" d="M447.6,452.1c3.6-16.1,10.7-33.1,22.6-44.4c-8.2,14-18.9,29.3-21.6,46.6c-0.3,0-0.6,0-0.9,0   C447.7,453.6,447.6,452.9,447.6,452.1z" />
	<path fill="#40A6CA" d="M432.4,435.2c-0.1-7.3,0.9-15.2,2.9-22c2.2-0.1,2.2,1.8,2.9,3.3C434.8,421.5,439.7,433.9,432.4,435.2z" />
	<path fill="#40A6CA" d="M442,477.2c-5.4-6.7-9-15.3-9.6-23.9c5.1,1,6.6,16.3,10.1,21.3C442.3,475.4,442.2,476.3,442,477.2z" />
	<path fill="#40A6CA" d="M638.8,554.6c-11.5,1.8-26.8,1.8-38.2,0c10.9,1.4,23.6-5.6,33.4,0C635.7,554.6,637.3,554.6,638.8,554.6z" />
	<path fill="#152932" d="M535.6,542.9c12.2,9,27,13.5,41.3,17.3c-0.4,0.3-0.7,0.6-1.1,0.9c-16.5-3.3-32.3-10.1-45.9-19.9   c0-0.4,0-0.8,0-1.2C531.8,540.9,533.7,541.9,535.6,542.9z" />
	<path fill="#12181B" d="M497.5,360.9c-8.3,4.3-16.7,8.4-24.8,13.2c-0.3-0.3-0.7-0.6-1-0.9c12.1-8.1,25.2-14.8,39-19.3   c0.4,0.4,0.8,0.7,1.1,1.1C506.9,356.7,502.2,359.2,497.5,360.9z" />
	<path fill="#1D2B31" d="M586.3,546.2c-11.7-3.2-23.2-7.7-33.3-14.6c0.3-0.3,0.6-0.6,0.9-0.9c13.5,8.5,28.5,13.7,44,16.1   c0,0.3,0,0.7,0,1C593.9,547.6,590,546.9,586.3,546.2z" />
	<path fill="#142830" d="M481.9,517.4c2.1,4.2,4.4,8.3,6.9,12.3c-0.3,0.3-0.6,0.6-0.9,0.9c-7.6-10-13.2-21.2-16.3-33.4   c0.3-0.4,0.7-0.8,1-1.1C475.5,503.3,477.5,511,481.9,517.4z" />
	<path fill="#141A1E" d="M579.6,349.2c6.5,0.9,16.3-1.9,20.8,3.4c-10.7-1.5-21.4-1.2-32.2-1.5l0.1-0.1c-0.1-0.3-0.1-0.6,0-0.8   C572,349.8,575.8,350.3,579.6,349.2z" />
	<path fill="#40A6CA" d="M521.3,538.3c-5.6-3.3-12.1-5.7-17.2-9.5c2.4-3,9.3,1.9,10.9,4.8C518.7,533.2,522.1,533.8,521.3,538.3z" />
	<path fill="#1E2D34" d="M655.2,375.9c10,4,21.1,8.5,27.7,17.4c-0.8,1-1.3,0.3-1.6-0.1c-7.2-8.2-17.6-11.7-27-16.5   C654.5,376.4,654.9,376.1,655.2,375.9z" />
	<path fill="#121E22" d="M472.7,496.1c-0.3,0.4-0.7,0.8-1,1.1c-3.7-10.8-3.1-22.2-2.8-33.4C471,473.9,469.7,485.6,472.7,496.1z" />
	<path fill="#40A6CA" d="M597.7,554.6c-6.3,0.1-13.7,0-19.1-2.9c0.6-0.7,1.2-1.3,1.7-1.9c2.2,0.4,4.2,0.8,6.6,1.3   c2.2,3.5,4.6,2.5,7.3,0.5C595.6,552.4,597.7,552.1,597.7,554.6z" />
	<path fill="#1C292F" d="M638.8,387.6c12.7,3.8,23.1,8.8,26.4,12.7c-8.4-3.5-17.5-8.6-26.5-11.7   C638.8,388.2,638.8,387.9,638.8,387.6z" />
	<path fill="#40A6CA" d="M494.6,524c-3.9-2-8.1-3.7-11.5-6.7c0.7-0.5,1.4-1.1,2-1.6C488.6,518.1,496.3,518.5,494.6,524z" />
	<path fill="#40A6CA" d="M432.4,453.3c-1.6-4.9-1.7-12.3,0-17.2c-0.4,1.9,0.8,3.3,1.9,4.6c0,3.3,0,6.4,0,9.6   C434,451.5,432,451.7,432.4,453.3z" />
	<path fill="#232327" d="M597.8,547.8c0-0.3,0-0.7,0-1c9.2,0,18.5,0.6,27.7-0.7c0,0.3,0,0.6,0,0.9c-9,2.5-18.5,1.3-27.7,1.1   L597.8,547.8z" />
	<path fill="#18191C" d="M632.1,527.7c0,0.3,0,0.6,0,1c-8.2,2.9-17.2,2-25.8,2.1c0.2-0.4,0-0.8,0-1.2   C615,530.1,623.5,528.9,632.1,527.7z" />
	<path fill="#1B2227" d="M604.4,419.1c8.9,0.4,18.3-1.6,26.8,1.7c0,0.3,0,0.6,0,0.9c-8.8-1.8-17.8-2-26.7-1.7   C604.4,419.7,604.4,419.4,604.4,419.1z" />
	<path fill="#274550" d="M615.9,401.9c-5.3,0-10.5-0.3-15.5-1.3c5.7-1.2,12.9-1.3,18.5,0C617.9,401.1,617,401.7,615.9,401.9z" />
	<path fill="#1C2D33" d="M471.7,373.2c0.3,0.3,0.7,0.6,1,0.9c-5,3.7-9.1,7.7-13.2,12.4C460.2,382.2,463.7,378.5,471.7,373.2z" />
	<path fill="#143B44" d="M593.8,382.5c4.7-1.3,10.8-1.3,15.5,0c-0.3,0.3-0.7,0.6-1,0.9c-4.4,0.5-9.1,0.5-13.5,0   C594.5,383.1,594.1,382.8,593.8,382.5z" />
	<path fill="#21333C" d="M600.4,400.6c1.4,0.1,2.8,0,4,1c-6.7,0.7-13.5,1.6-20.1,2.9c-0.3-0.3-0.6-0.6-1-0.9   C588.4,401.3,594.7,400.7,600.4,400.6z" />
	<path fill="#192D34" d="M711.6,494.7c-0.3-0.4-0.7-0.8-1-1.2c1.5-6,1.3-12.4,2.6-18.4c0.1,1.4,0.2,2.7,0.9,3.9   C713.2,484.2,713.7,489.8,711.6,494.7z" />
	<path fill="#141D21" d="M539.2,381.6c-1.6,0.9-3.3,1.8-4.9,2.8c-0.2-0.1-0.4,0-0.6,0.2c-1.9,0.4-3.7,1.4-5.6,2   c-0.3-0.3-0.7-0.6-1-0.9c10.7-6.1,11.3-6.4,14.3-6.4C540.8,380.3,540.3,381.1,539.2,381.6z" />
	<path fill="#1E353D" d="M447.7,454.3c0.3,0,0.6,0,0.9,0c0,0.3-0.1,0.7-0.1,1c-2.4,6.6-1.4,14.6-1.9,22c-0.2,0-0.6,0-0.8,0   c0-5.7-0.3-11.5,0.1-17.2c1.8-1.4,0.3-3.8,1-5.7C447.1,454.3,447.5,454.3,447.7,454.3z" />
	<path fill="#274652" d="M504.2,512.5c0.3-0.3,0.6-0.7,0.9-1c2.5,3.9,5,7.7,7.5,11.6c-0.3,0.3-0.6,0.6-0.9,0.9   C509,520.3,506.1,516.8,504.2,512.5z" />
	<path fill="#203038" d="M606.4,529.6c0,0.3,0,0.6,0.1,0.9c-4.4-0.6-9.8-0.1-13.5-2.5c0-0.3,0-0.7,0-1   C597.3,528.2,602.3,528.2,606.4,529.6z" />
	<path fill="#40A6CA" d="M593.9,369.4c1.4,5.9-9.2,3.7-4.6-0.7C590.8,369.4,592.4,369.3,593.9,369.4z" />
	<path fill="#40A6CA" d="M464.9,501.1c-2.3-1.8-4.7-3.5-6.7-5.7c0.9-0.4,1.7-0.7,2.8-1.2c1.3,1.2,2.5,2.3,3.9,3.6   C464.9,498.9,464.9,500,464.9,501.1z" />
	<path fill="#233F49" d="M437.2,406.5c2-2.1,4.3-4,6.7-5.7c0.4,0,0.8,0,1.2,0c-3.3,3.5-6.6,6.9-9.8,10.4c-0.4-0.1-0.9-0.1-1.7-0.2   C434.9,409.3,436,407.9,437.2,406.5z" />
	<path fill="#1C2227" d="M573.8,385.3c4.3-2.2,9.6-1.6,14.4-2.6c0,0.3,0,0.6,0,0.9c-4.7,1.4-9.5,1.9-14.4,2.6   C573.8,385.9,573.8,385.6,573.8,385.3z" />
	<path fill="#203841" d="M629.3,386.7c-2.6-0.7-5.3-1-7.8-2c0.3-0.3,0.7-0.6,1-0.9c4,0.3,7.9,1,11.6,2.6c-0.3,0.3-0.6,0.6-1,0.9   C631.9,387.2,630.6,386.7,629.3,386.7z" />
	<path fill="#20343C" d="M625.5,402.9c-1-0.3-2-0.7-3-1c0.3-0.3,0.7-0.6,1-0.9c4.3,0.4,8.6,1,12.6,2.6c-0.3,0.3-0.6,0.6-1,0.9   C631.8,404.1,628.7,403.1,625.5,402.9z" />
	<path fill="#40A6CA" d="M644.6,554.4c-1.8,0.6-3.9,0-5.7,0.2C638.8,550.4,645.2,549.3,644.6,554.4z" />
	<path fill="#1C2428" d="M604.4,419.1c0,0.3,0,0.6,0,0.9c-3.7,1.7-8.4,1.6-12.5,2.6c0-0.3,0-0.6,0-0.9   C595.5,419.5,600.4,420.2,604.4,419.1z" />
	<path fill="#1F3942" d="M445.7,464.4c0.1,6.6,0.2,13.1,0,19.7C444.3,478,444.1,470.5,445.7,464.4z" />
	<path fill="#26444E" d="M527.1,385.7c0.3,0.3,0.7,0.6,1,0.9c-3.5,2.3-7.2,4.2-11,6.1C517,389.7,524.8,387.9,527.1,385.7z" />
	<path fill="#40A6CA" d="M594.8,383.4c0.7,0.1,1.3,0.2,2,0.3c-0.5,3.7-0.6,3.7-4.6,3.2c-0.1-1-0.1-2.1-0.2-3.1   C592.9,383.7,593.9,383.6,594.8,383.4z" />
	<path fill="#40A6CA" d="M615.9,401.9c1.2-0.5,2.5-0.1,3.8,0c0.3,0.6,0.6,1.1,0.9,1.7c-0.9,2-2.5,2.1-4.5,1.5   C616,404.1,616,403,615.9,401.9z" />
	<path fill="#22404A" d="M593.9,369.4c-1,0-1.9-0.1-2.9-0.1c2.8-2.3,6.5-1.9,10.1-1.9c0.2,0.8,0.3,1.4,0.4,1.9   C599.1,369.6,596.5,369.3,593.9,369.4z" />
	<path fill="#40A6CA" d="M599.6,402c1.3,0,2.6-0.1,3.9-0.1c-0.1,1.1-0.1,2.1-0.2,3.2c-1.8,0.7-3.3,0.7-4.5-1.2   C599,403.4,599.3,402.7,599.6,402z" />
	<path fill="#40A6CA" d="M606.4,383.7c1.6-0.4,3.2-0.2,4.8,0.1c0.4,2.1-0.9,3.4-2.9,3.7C607.2,386.3,606.4,385.2,606.4,383.7z" />
	<path fill="#3C7184" d="M516.5,352c3.3-2.1,7.2-1.8,11.3-2.8c-1.2,2.8-3.5,1.6-5.1,2.2c-1.7,0.6-3.6,1.1-5.3,1.6   C517.1,352.6,516.8,352.3,516.5,352z" />
	<path fill="#458EA8" d="M449.7,395.1c2-3.1,4.9-5.2,7.5-7.9c0.9,2.9-4.9,5.3-6.6,7.9C450.3,395.1,450,395.1,449.7,395.1z" />
	<path fill="#40A6CA" d="M606.3,530.8c4.8,0,9.5,0,14.3,0C617.1,532.3,609.9,532.2,606.3,530.8z" />
	<path fill="#1B1619" d="M611.1,383.8c-0.9-0.1-1.9-0.2-2.8-0.4c0.3-0.3,0.7-0.6,1-0.9c3.5,0.2,7-0.4,10.4,1.1c0,0.4-0.1,0.8,0,1.2   C616.9,384.6,614.1,383.2,611.1,383.8z" />
	<path fill="#1B1D21" d="M636.9,543.9c0,0.4,0,0.9,0.1,1.3c-3.2,0.3-6.4,2.1-9.6,1.7c0-0.3,0-0.6,0-0.9   C630.5,545.3,633.7,544.6,636.9,543.9z" />
	<path fill="#40A6CA" d="M456.3,493.5c-1.3-1.3-2.6-2.5-3.8-3.8C455.3,487.4,457.4,490.9,456.3,493.5z" />
	<path d="M714.2,479c-1.6-3.5-0.9-7.8-0.5-11.5c0.2,0,0.3,0,0.5,0C714.4,471.3,714.5,475.1,714.2,479z" />
	<path fill="#3A6879" d="M449.7,395.1c0.3,0,0.6,0,0.9,0c-1.8,1.9-3.6,3.8-5.5,5.7c-0.4,0-0.8,0-1.2,0   C445.8,398.9,447.7,397,449.7,395.1z" />
	<path fill="#3F7082" d="M568.2,350.2c-0.1,0.3,0,0.6,0,0.8c-3.6,0-7.2,0-10.8,0C559.2,349,565,350.8,568.2,350.2z" />
	<path fill="#40A6CA" d="M568.1,351.1c2.5,0.1,5.1,0.2,7.6,0.2c-1.7,0.6-3.4,1.3-5.4,2.1C569.4,353.2,568.7,352.3,568.1,351.1z" />
	<path fill="#2F515E" d="M655.2,375.9c-1.2,1.8-2.3,0.3-3.8,0c-1.1-0.9-2.5-1.4-3.9-2c0-0.3-0.1-0.6-0.1-0.9   C650.3,373.1,652.7,374.6,655.2,375.9z" />
	<path fill="#305563" d="M575.7,368.9c2.4,1.3,3,2.8,3.9,4.2C577.5,373.9,577.4,373.8,575.7,368.9z" />
	<path fill="#273F49" d="M516.5,352c0.3,0.3,0.6,0.6,0.9,1c-1.8,0.9-3.7,1.5-5.7,1.9c-0.3-0.3-0.6-0.6-0.9-0.9   C512.4,352.6,514.4,352.1,516.5,352z" />
	<path fill="#3C7284" d="M511.8,524c0.3-0.3,0.6-0.6,0.9-0.9c1.3,1.9,3.7,3.1,3.9,5.7l0,0C514.5,527.6,512.9,526,511.8,524z" />
	<path fill="#3F778B" d="M647.4,373.1c0,0.3,0,0.6,0.1,0.9c-1.9-0.9-4-1.4-6-3.6C644.2,370.8,646,371.6,647.4,373.1z" />
	<path fill="#181416" d="M569.1,387.6c-1,0.2-2,0.3-3,0.5c0-0.3,0-0.5,0-0.8c1.7-1.3,3.8-1.3,5.8-1.7c0,0.3,0,0.6,0,0.8   c-0.6,0.4-1.3,0.7-1.9,1.1C569.7,387.4,569.4,387.4,569.1,387.6z" />
	<path fill="#191316" d="M633.2,387.3c0.3-0.3,0.6-0.6,1-0.9c1.6,0.4,3.1,0.8,4.7,1.2c0,0.3,0,0.7,0,1c-1.9-0.3-3.8-0.8-5.7-1.1   L633.2,387.3z" />
	<path fill="#1A1619" d="M594.8,383.4c-2.2,0.4-4.4,0.4-6.6,0.2c0-0.3,0-0.6,0-0.9c1.9-0.1,3.7-0.2,5.6-0.2   C594.1,382.8,594.5,383.1,594.8,383.4z" />
	<path fill="#1B1719" d="M619.7,401.9c-0.9-0.1-1.9-0.2-2.8-0.3c2-1.4,4.3-0.7,6.5-0.7c-0.3,0.3-0.7,0.6-1,0.9   C621.6,401.9,620.6,401.9,619.7,401.9z" />
	<path fill="#417B8F" d="M527,538.4c-0.3,0-0.6,0-0.9,0.1c-0.9-1-1.9-2-2.8-2.9c2.1,0,3.3,1.8,4.8,2.8   C527.7,538.3,527.3,538.4,527,538.4z" />
	<path fill="#40A6CA" d="M591.9,403c0.7-0.1,1.3-0.1,2-0.2c0,0.7-0.1,1.5-0.2,2.7c-1-0.4-1.7-0.7-2.5-1   C591.6,403.8,591.8,403.4,591.9,403z" />
	<path fill="#40A6CA" d="M625.5,402.9c0.7,0.1,1.3,0.1,2,0.2c0.2,0.4,0.4,0.8,0.7,1.4c-0.6,0.4-1.2,0.8-2.2,1.4   C625.7,404.5,625.6,403.7,625.5,402.9z" />
	<path fill="#40A6CA" d="M672.3,549.8c-1.3,0-2.5,0-3.8,0C669.4,548,671.6,546.7,672.3,549.8z" />
	<path fill="#3B6A7B" d="M553.8,530.7c-0.3,0.3-0.6,0.6-0.9,0.9c-1.3-0.3-2.1-1.2-2.8-2.7C551.8,529,552.9,529.6,553.8,530.7z" />
	<path fill="#2B4D5B" d="M527,538.4c0.3,0,0.7,0,1,0c0.6,0.5,1.3,1.1,1.9,1.6c0,0.4,0,0.8,0,1.2C528.9,540.2,528,539.3,527,538.4z" />
	<path fill="#345F6E" d="M526.2,499.1c0.3-0.3,0.6-0.6,1-0.9c1.2,0.9,1,2.1,0.5,3.9C527.1,500.8,526.6,499.9,526.2,499.1z" />
	<path fill="#3C839C" d="M527.6,368.7c-0.2,0.8-1.2,0.8-1.7,1.2c-0.1-0.4-0.2-0.8-0.4-1.2C526.2,368.8,527,368.2,527.6,368.7z" />
	<path fill="#171316" d="M583.3,403.6c0.4,0.4,0.9,0.6,1.1,1.1c-1.1,0.3-2.1,0-2.8-0.8C582.2,403.8,582.7,403.7,583.3,403.6z" />
	<path fill="#171315" d="M635.1,404.4c0.3-0.3,0.6-0.6,1-0.9c0.6,0.1,1.2,0.2,1.7,0.3c-0.8,0.8-1.8,1.1-2.8,0.8L635.1,404.4z" />
	<path fill="#181012" d="M619.7,384.4c0-0.3,0-0.5,0-0.8c0.9,0,1.9,0.1,2.8,0.1c-0.3,0.3-0.7,0.6-1,0.9   C620.9,384.6,620.3,384.5,619.7,384.4z" />
	<path fill="#1F3942" d="M446.9,464.2c0-1.1-0.6-2.3,0.7-3.1C447.7,462.1,447.7,463.2,446.9,464.2z" />
	<path fill="#40A6CA" d="M597.7,548.1c0.9,0,1.9,0.1,2.8,0.1C599.6,549.2,598.6,549.2,597.7,548.1z" />
	<path fill="#183642" d="M447.6,487.7c-1.3-0.8-0.7-2-0.6-3.1c0.2,0.2,0.5,0.3,0.7,0.3C447.7,485.8,447.7,486.8,447.6,487.7z" />
	<path fill="#40A6CA" d="M618.8,548.2c0.9,0,1.8-0.1,2.8-0.1C620.7,549.2,619.8,549.1,618.8,548.2z" />
	<path fill="#1F3942" d="M446.6,456.8c0,1.1,0.6,2.4-0.7,3.1C446.2,458.9,446.4,457.9,446.6,456.8z" />
	<path fill="#150C0E" d="M592,421.7c0,0.3,0,0.6,0,0.9c-0.6,0.1-1.2,0.2-1.9,0.3c0-0.3,0-0.6,0-0.9   C590.7,421.9,591.4,421.8,592,421.7z" />
	<path fill="#161013" d="M571.9,386.4c0-0.3,0-0.6,0-0.8c0.6-0.1,1.2-0.2,1.9-0.3c0,0.4-0.1,0.8,0.1,1.2   C573.2,386.7,572.6,386.6,571.9,386.4z" />
	<path fill="#1F3942" d="M447.7,454.3c-0.2,0-0.6,0-0.8,0c0.2-0.7,0.5-1.4,0.7-2.1C447.6,452.9,447.7,453.6,447.7,454.3z" />
	<path fill="#1F3942" d="M447.9,457.5c-0.1-0.8-0.3-1.7,0.6-2.2C448.3,456,448.1,456.7,447.9,457.5z" />
	<path fill="#192D34" d="M710.4,495.1c0.1,0.8,0.3,1.7-0.8,2.1C709.9,496.5,710.1,495.8,710.4,495.1z" />
	<path fill="#19191C" d="M631.2,421.7c0-0.3,0-0.6,0-0.9c0.6,0.1,1.2,0.1,1.9,0.2c0,0.3,0,0.6,0,1   C632.5,421.8,631.8,421.8,631.2,421.7z" />
	<path fill="#161517" d="M592.9,527c0,0.3,0,0.7,0,1c-0.6-0.1-1.2-0.2-1.8-0.3c0-0.3,0-0.6,0-1C591.7,526.9,592.3,527,592.9,527z" />
	<path fill="#40A6CA" d="M631.3,529.1c0.3-0.1,0.6-0.3,0.9-0.4c0.3,0.1,0.6,0.1,0.9,0.2C632.6,529.9,632,530,631.3,529.1z" />
	<path fill="#40A6CA" d="M598.7,529.9c0.6,0,1.2,0.1,1.8,0.1C599.9,531,599.3,530.9,598.7,529.9z" />
	<path fill="#40A6CA" d="M626.5,530c0.6-0.1,1.2-0.1,1.8-0.2C627.8,530.9,627.2,530.9,626.5,530z" />
	<path fill="#181112" d="M627.4,546c0,0.3,0,0.6,0,0.9c-0.3,0.1-0.6,0.3-0.9,0.4c-0.3-0.1-0.7-0.2-1-0.3c0-0.3,0-0.6,0-0.9   C626.1,546.1,626.7,546,627.4,546z" />
	<path fill="#150D0E" d="M566.2,387.3c0,0.4-0.1,0.8,0.1,1.2c-0.6,0.2-1.3,0.2-1.9,0c0-0.3,0-0.6,0-0.9   C565,387.5,565.6,387.4,566.2,387.3z" />
	<path fill="#40A6CA" d="M591.1,547.1c0.6,0.1,1.2,0.1,1.8,0.2C592.2,548.2,591.6,548.1,591.1,547.1z" />
	<path fill="#40A6CA" d="M626.5,547.2c0.3-0.1,0.6-0.3,0.9-0.4c0.3,0.1,0.6,0.2,0.9,0.2C627.8,548.1,627.2,548.1,626.5,547.2z" />
	<path fill="#40A6CA" d="M534.3,384.4c0.4-0.3,0.9-0.6,1.3-0.8C535.2,383.9,534.8,384.1,534.3,384.4z" />
	<path fill="#40A6CA" d="M539.2,381.6c0.4-0.3,0.8-0.5,1.2-0.8C540,381.1,539.6,381.3,539.2,381.6z" />
	<path fill="#40A6CA" d="M652.3,376.1c0.4,0.2,0.7,0.5,1.1,0.7C653,376.6,652.6,376.4,652.3,376.1z" />
	<path fill="#40A6CA" d="M650.3,375.2c0.3,0.2,0.7,0.5,1,0.7C651,375.7,650.7,375.4,650.3,375.2z" />
	<path fill="#40A6CA" d="M502.2,527.8c-0.3-0.3-0.6-0.6-1-0.9C501.5,527.2,501.9,527.5,502.2,527.8z" />
	<path fill="#40A6CA" d="M587.3,527c0.3-0.1,0.6,0,0.9,0.2C587.7,527.8,587.5,527.5,587.3,527z" />
	<path fill="#40A6CA" d="M466.8,503c-0.3-0.3-0.6-0.6-1-1C466.2,502.4,466.5,502.7,466.8,503z" />
	<path fill="#40A6CA" d="M638.9,527.2c0.3-0.2,0.6-0.3,0.9-0.2C639.6,527.6,639.3,527.9,638.9,527.2z" />
	<path fill="#40A6CA" d="M503.1,528.8c-0.3-0.3-0.6-0.6-0.9-0.9C502.5,528.2,502.8,528.5,503.1,528.8z" />
	<path fill="#40A6CA" d="M449.6,486.8c-0.3-0.3-0.6-0.6-1-1C449,486.1,449.3,486.5,449.6,486.8z" />
	<path fill="#40A6CA" d="M447.7,485.8c-0.1-0.3-0.1-0.6-0.1-0.9c0.3,0.3,0.7,0.6,1,0.9C448.4,485.8,448,485.8,447.7,485.8z" />
	<path fill="#3C7284" d="M516.5,528.8c0.2,0.1,0.5,0.3,0.7,0.4C516.6,529.8,516.7,529,516.5,528.8L516.5,528.8z" />
	<path fill="#40A6CA" d="M593.9,529c0.3-0.1,0.6-0.1,0.9,0.1C594.5,529.6,594.2,529.5,593.9,529z" />
	<path fill="#40A6CA" d="M469.7,505.9c-0.3-0.3-0.6-0.6-1-0.9C469.1,505.2,469.4,505.5,469.7,505.9z" />
	<path fill="#40A6CA" d="M465.9,502c-0.3-0.3-0.6-0.6-1-1C465.2,501.4,465.6,501.7,465.9,502z" />
	<path fill="#40A6CA" d="M470.7,506.8c-0.3-0.3-0.6-0.6-0.9-0.9C470,506.2,470.3,506.5,470.7,506.8z" />
	<path fill="#40A6CA" d="M467.8,504c-0.3-0.3-0.6-0.6-1-1C467.2,503.3,467.5,503.6,467.8,504z" />
	<path fill="#40A6CA" d="M504.2,358.1c0.3-0.1,0.6-0.2,0.9-0.2C504.9,358.4,504.7,358.8,504.2,358.1z" />
	<path fill="#40A6CA" d="M562.4,389.6c0.3-0.2,0.6-0.3,0.9-0.2C563.1,390,562.9,390.2,562.4,389.6z" />
	<path fill="#417B8F" d="M523.2,535.5c-0.2-0.1-0.4-0.3-0.7-0.4C523.2,534.5,523.1,535.2,523.2,535.5z" />
	<path fill="#40A6CA" d="M468.7,504.9c-0.3-0.3-0.6-0.6-1-1C468.1,504.3,468.4,504.6,468.7,504.9z" />
	<path fill="#40A6CA" d="M522.1,390.2c0.4-0.3,0.7-0.5,1.1-0.8C522.8,389.7,522.5,390,522.1,390.2z" />
	<path fill="#40A6CA" d="M524.2,539.3c-0.3-0.3-0.6-0.6-1-0.9C523.5,538.7,523.8,539,524.2,539.3z" />
	<path fill="#40A6CA" d="M565.3,388.7c0.3-0.1,0.6-0.1,0.9-0.2C566,389,565.8,389.4,565.3,388.7z" />
	<path fill="#40A6CA" d="M524,389.2c0.4-0.2,0.8-0.5,1.1-0.7C524.7,388.7,524.3,389,524,389.2z" />
	<path fill="#40A6CA" d="M582.5,545.2c0.3-0.1,0.6-0.1,0.9,0.1C583.1,545.3,582.8,545.3,582.5,545.2z" />
	<path fill="#40A6CA" d="M636,545.3c0.3,0,0.6-0.1,0.9-0.1C636.7,545.7,636.4,546.1,636,545.3z" />
	<path fill="#40A6CA" d="M633.1,387.5c0.3,0,0.6,0.1,0.9,0.1C633.6,388.4,633.3,388.1,633.1,387.5z" />
	<path fill="#40A6CA" d="M586.3,546.2c0.3-0.1,0.6-0.1,0.9,0.1C586.8,546.8,586.5,546.7,586.3,546.2z" />
	<path fill="#40A6CA" d="M569.1,387.6c0.3-0.2,0.6-0.2,0.9-0.1C569.8,388.2,569.5,388.4,569.1,387.6z" />
	<path fill="#40A6CA" d="M632.2,546.2c0.3-0.2,0.6-0.2,0.9-0.1C632.9,546.8,632.6,547,632.2,546.2z" />
	<path fill="#40A6CA" d="M458.2,495.4c-0.3-0.3-0.6-0.6-1-1C457.6,494.7,457.9,495,458.2,495.4z" />
	<path fill="#40A6CA" d="M515.4,353.9c0.4-0.2,0.8-0.5,1.1-0.7C516.1,353.4,515.7,353.7,515.4,353.9z" />
	<path fill="#40A6CA" d="M510.8,355.2c0.3-0.1,0.6-0.1,0.9-0.2C511.6,355.5,511.3,356,510.8,355.2z" />
	<path fill="#40A6CA" d="M666.5,550.8c-0.2,0-0.7,0-1,0C665.9,549.9,666.2,549.9,666.5,550.8z" />
	<path fill="#40A6CA" d="M668.5,549.8c-0.3,0.3-0.6,0.6-1,0.9C667.8,550.4,668.1,550.1,668.5,549.8z" />
	<path fill="#40A6CA" d="M499.4,360.1c0.2-0.3,0.5-0.3,0.9-0.3C500,359.9,499.7,360,499.4,360.1z" />
	<path fill="#40A6CA" d="M629.3,386.7c0.3-0.1,0.6-0.1,0.9,0.1C629.9,386.7,629.6,386.7,629.3,386.7z" />
	<path fill="#40A6CA" d="M662.7,550.8c-0.3,0.3-0.6,0.6-1,0.9C662.1,551.4,662.4,551.1,662.7,550.8z" />
	<path fill="#40A6CA" d="M587.3,404c0.3-0.2,0.6-0.2,0.9-0.1C587.9,403.9,587.6,403.9,587.3,404z" />
	<path fill="#40A6CA" d="M631.2,403.9c0.3-0.1,0.6-0.1,0.9,0.1C631.8,403.9,631.5,403.9,631.2,403.9z" />
	<path fill="#40A6CA" d="M493.6,362.8c0.3-0.1,0.6-0.2,0.9-0.3C494.4,363.1,494.2,363.6,493.6,362.8z" />
	<path fill="#40A6CA" d="M572.9,386.7c0.3,0,0.6-0.1,1-0.1C573.6,387.2,573.4,387.4,572.9,386.7z" />
	<path fill="#40A6CA" d="M583.5,404.8c0.3,0,0.6-0.1,0.9-0.1C584.2,405.3,583.9,405.6,583.5,404.8z" />
	<path fill="#40A6CA" d="M635,404.7c0.3,0,0.6,0.1,0.9,0.1C635.5,405.6,635.2,405.3,635,404.7z" />
	<path fill="#40A6CA" d="M579.7,405.9c0.3-0.2,0.5-0.3,0.9-0.2C580.2,405.8,579.9,405.9,579.7,405.9z" />
	<path fill="#40A6CA" d="M638.9,405.7c0.3-0.1,0.6-0.1,0.9,0.2C639.4,405.9,639.2,405.8,638.9,405.7z" />
	<path fill="#40A6CA" d="M487.9,365.8c0.3-0.1,0.6-0.2,0.9-0.3C488.7,366,488.5,366.5,487.9,365.8z" />
	<path fill="#40A6CA" d="M576.8,406.9c0.3-0.2,0.5-0.3,0.9-0.2C577.4,406.7,577.1,406.8,576.8,406.9z" />
	<path fill="#40A6CA" d="M457.3,494.4c-0.3-0.3-0.6-0.6-1-1C456.6,493.8,457,494.1,457.3,494.4z" />
	<path fill="#40A6CA" d="M641.7,406.7c0.3-0.1,0.6,0,0.9,0.2C642.3,406.8,642,406.7,641.7,406.7z" />
	<path fill="#40A6CA" d="M624.5,385.7c0.3-0.1,0.6-0.1,0.9,0.1C625.1,385.8,624.8,385.7,624.5,385.7z" />
	<path fill="#40A6CA" d="M577.7,385.7c0.3-0.2,0.6-0.2,0.9-0.1C578.4,386.3,578.1,386.4,577.7,385.7z" />
	<path fill="#40A6CA" d="M497.5,360.9c0.3-0.1,0.6-0.2,0.9-0.2C498.2,361.3,498,361.7,497.5,360.9z" />
	<path fill="#40A6CA" d="M653.2,411.4c0.3,0.1,0.6,0.2,0.9,0.3C653.6,412.2,653.3,411.8,653.2,411.4z" />
	<path fill="#40A6CA" d="M486,366.7c0.3-0.1,0.6-0.2,0.9-0.3C486.8,367,486.6,367.4,486,366.7z" />
	<path fill="#40A6CA" d="M484.1,367.7c0.3-0.1,0.6-0.2,0.9-0.3C484.8,367.9,484.7,368.4,484.1,367.7z" />
	<path fill="#40A6CA" d="M496.5,525c-0.3-0.3-0.6-0.6-1-0.9C495.8,524.3,496.1,524.7,496.5,525z" />
	<path fill="#40A6CA" d="M618.8,384.7c0.3,0,0.6,0,1,0.1C619.4,385.4,619.1,385.4,618.8,384.7z" />
	<path fill="#40A6CA" d="M583.4,384.8c0.3-0.2,0.6-0.2,0.9-0.1C584.1,385.4,583.8,385.5,583.4,384.8z" />
	<path fill="#40A6CA" d="M600.7,369.5c0.3-0.1,0.6-0.1,0.9-0.1C601.4,369.9,601.1,370.3,600.7,369.5z" />
	<path fill="#40A6CA" d="M532.8,384.9c0.2-0.2,0.5-0.3,0.9-0.3C533.5,385.1,533.3,385.4,532.8,384.9z" />
	<path fill="#19181A" d="M610.6,241c-0.7-7.3,1.9-11.9,7-16.1c0.7,1.7,0.3,2.7-0.7,4C613.8,232.9,613.3,236.5,610.6,241z" />
	<path fill="#141113" d="M513.6,314.8c-3.1,4-6.8,8-11.7,10c0.2-1.5,0.3-2.4,0.4-3.2C505.5,318.5,508.9,314.6,513.6,314.8   L513.6,314.8z" />
	<path fill="#120E10" d="M657.1,279.3c4.2,2,8.4,2.8,12.2,5.7c-4.5,3.5-10-1.5-13.1-4.7C656.5,280,656.8,279.6,657.1,279.3z" />
	<path fill="#221E22" d="M650,268.2c1,1.9,3.5,2.7,3.7,5.5c-0.9,0-1.7,0-2.4,0c-1.5-2.2-4.2-4-4.7-6.7c0.3,0,0.7-0.1,1-0.1   C648.4,267.3,649.2,267.8,650,268.2z" />
	<path fill="#040303" d="M576.5,305.4c0.6,0.4,1.3,0.7,2,1.2c-1.4,3.1-5.9-0.5-8.5-0.6C570.1,303.8,574.9,305.7,576.5,305.4z" />
	<path fill="#29272B" d="M639.6,257.1c4.4,1.3,5.7,3,6.1,7C642.7,262.4,641.4,260.1,639.6,257.1z" />
	<path fill="#2F272B" d="M646.1,235.8c-1.3,3.2-3.7,4.5-7.4,4.4C640.6,237.3,643.8,237.3,646.1,235.8z" />
	<path fill="#312E34" d="M589.4,307.1c-1.7,2.2-5.4,0.7-7.9-0.6c2.2-0.8,4-0.2,5.8-0.4C588,306.4,588.7,306.8,589.4,307.1z" />
	<path fill="#090B0D" d="M527.9,295.7c-0.5,1.2-1,2.4-1.4,3.5c-1.4,0-1.1-1-1.4-1.6c0.2-0.2,0.2-0.5,0.1-0.8   c0.4-1.6,0.8-3.2,1.1-4.8C527.7,292.8,527.5,294.4,527.9,295.7z" />
	<path fill="#2D2F34" d="M636,283.3c0,0.9,0.3,1.9-1,2.1c-1.4-1.5-2-3.3-2.7-5.6C634.6,280,634.8,281.8,636,283.3z" />
	<path fill="#3C3237" d="M511.5,257.9c-2.2,2.5-2.2,2.5-4.9,2C508.2,257.9,508.6,257.7,511.5,257.9z" />
	<path fill="#463D44" d="M518.8,259.3c-1.3,0-2.6,0-3.9,0c-0.4-3.1,2.8-1.5,4.3-0.8C519,258.8,518.9,259.1,518.8,259.3z" />
	<path fill="#2B2225" d="M625.7,274.9c1.4,0.7,2.3,1.9,2.7,3.3C626.4,279.7,624.1,276.5,625.7,274.9z" />
	<path fill="#312E33" d="M611.4,250.6c-0.8-2.2-0.3-3.3,1.4-4.1C614.3,247.9,612,249.1,611.4,250.6z" />
	<path fill="#808293" d="M595.8,312c-1-1-3.9-1.3-2.8-3c1.5,0.1,2.6,1.2,3.8,1.9C596.5,311.3,596.1,311.6,595.8,312z" />
	<path fill="#3C343B" d="M640.7,288.1c0.1,0.3,0.2,0.5,0.3,0.8c-0.4,0.4-0.8,0.8-1.2,1.2c-1.5-0.7-2.4-1.9-2.7-3.5   c0.2,0,0.3-0.1,0.5-0.2C638.6,286.9,639.6,287.5,640.7,288.1z" />
	<path fill="#222226" d="M611.3,253c2.2,1.2,0.9,2.2,0.7,3.3C610.6,256,611.6,254.1,611.3,253z" />
	<path fill="#595760" d="M637.3,253.9c2.2,0,2.2,0,2.3,2.1C638.2,255.9,637.6,255.1,637.3,253.9z" />
	<path fill="#78727F" d="M657.1,279.3c-0.3,0.3-0.6,0.7-0.9,1c-0.7-0.9-1.4-1.8-2.1-2.7C655.4,276.2,656.1,278.5,657.1,279.3z" />
	<path fill="#B7BDD5" d="M526.3,292c-0.4,1.6-0.8,3.2-1.1,4.8C525.3,295,524.5,293,526.3,292z" />
	<path fill="#483F46" d="M647.6,266.9c-0.3,0-0.7,0.1-1,0.1c-0.2-0.2-0.3-0.4-0.5-0.6C646.7,265.9,647.1,266.5,647.6,266.9z" />
	<path fill="#483F46" d="M646.7,268c0.2,0.4,0.4,0.7,0.7,1.1C647.2,268.7,646.9,268.3,646.7,268z" />
	<path fill="#B7BDD5" d="M638.8,287.1c-0.4-0.3-0.9-0.5-1.3-0.8C638,286.6,638.4,286.8,638.8,287.1z" />
	<path fill="#020304" d="M424.9,534.4c5,5.5,8.4,11.8,12.6,17.9c0.9,0.1,1.8,0.3,3,0.5c2.9,5.2,28.1,19.6,32.1,16.2l-0.1,0.1   c1.9,1.1,3.8,2.2,5.8,3.5c-7.9,10-32.7-10.5-39-17.6C433,560,420.4,538.1,424.9,534.4z" />
	<path fill="#0F222A" d="M412.2,482c1.7,27.7,18.5,49.5,35.5,69.7C429,534.8,409.7,507.9,412.2,482z" />
	<path fill="#112832" d="M412.2,482c-1.3,0.7-0.6,2.1-0.9,3.1c-3.1-20.2,1.3-45,14-60.9C417,442,410.2,461.5,412.2,482z" />
	<path fill="#13262F" d="M505.1,546.9c15.8,12.9,34.4,22.5,54.4,26.9c-0.4,0.3-0.7,0.6-1.1,0.9c-20.1-3.7-38.6-14-54.2-26.9   C504.5,547.5,504.8,547.2,505.1,546.9z" />
	<path fill="#050B0E" d="M410.7,511.8c5.3,6.5,6,14.6,9.2,22.4c-0.6,0.4-1.4,1-2.1,1.5C411.2,530,412.7,519.4,410.7,511.8z" />
	<path fill="#04080B" d="M401.4,491.4c1.8,6.4,1.2,12.8,4.2,18.4C397.7,514.8,397,493.6,401.4,491.4z" />
	<path fill="#152B35" d="M497.4,564.1c12.1,8,25.2,14.1,39.1,18.3c-0.3,0.3-0.7,0.6-1,0.9c-13.9-4-27.3-9.7-39.1-18.2   C496.8,564.8,497.1,564.4,497.4,564.1z" />
	<path fill="#030709" d="M395.3,488.4c-6.7-2.5,0.3-11.9,0.4-16.9c0.7,0.1,1.3,0.1,2.1,0.2C397,477.4,397.8,483.1,395.3,488.4z" />
	<path fill="#16323E" d="M501.4,580.5c0,0.3,0,0.6,0.1,1.2c9.8,4.5,21.4,5.5,31.3,9.1c0,0.3,0,0.6,0,0.9c-11.7-1.9-24-4.6-34.5-10.3   C499.3,581.1,500.4,580.8,501.4,580.5z" />
	<path fill="#173441" d="M630.3,572c0.4,0.3,0.7,0.6,1.1,0.9c-9,3.9-19.2,4.7-28.9,5.4c0-0.3,0-0.6,0-0.9   C611.5,575.5,621.3,574.9,630.3,572z" />
	<path fill="#08151A" d="M396.8,450.2c-0.2,5.8-0.7,11.2-4.1,15.6C389.3,464.7,394,451.4,396.8,450.2z" />
	<path fill="#091014" d="M501.4,580.5c-3.8,1.2-9.2,0.8-12.5-1.6c1.9-4.7,9,0.3,13.2,0.2C501.8,579.6,501.6,580,501.4,580.5z" />
	<path fill="#1B4150" d="M505.1,546.9c-0.3,0.3-0.6,0.6-0.9,0.9c-6.2-4.9-11.6-10.8-16.2-17.2c0.3-0.3,0.6-0.6,0.9-0.9   C493.6,536.1,499,541.8,505.1,546.9z" />
	<path fill="#225266" d="M577.9,588.1c6.4,0,12.4-0.2,18.3,0.2C590.6,588.9,582.2,592.6,577.9,588.1z" />
	<path fill="#0B1B21" d="M401.5,433.8c-0.9,3.7-1.8,8.4-4.7,10.8C395.5,441.1,395.9,440.2,401.5,433.8z" />
	<path fill="#121115" d="M602.5,577.5c0,0.3,0,0.6,0,0.9c-7.3,0-14.6,0-21.9,0c0-0.3,0-0.6,0-0.8   C587.9,577.5,595.2,577.5,602.5,577.5z" />
	<path fill="#1C404F" d="M535.6,583.3c0.3-0.3,0.7-0.6,1-0.9c5.1,1.3,10.2,2.5,15.3,3.8c0,0.3,0.1,0.6,0.1,0.9   C546.4,586.4,540.4,585.7,535.6,583.3z" />
	<path fill="#162C36" d="M635,578.4c-3.7,3.9-8.8,5-14.2,4.5C625.6,581.4,630,580,635,578.4z" />
	<path fill="#162F3B" d="M558.4,574.8c0.4-0.3,0.7-0.6,1.1-0.9c4.1,1.2,8.8,1.2,12.6,2.6c-0.4,0.3-0.7,0.6-1.1,1   C566.8,576.8,562.5,576.4,558.4,574.8z" />
	<path fill="#296C87" d="M551.9,587.1c0-0.3,0-0.6-0.1-0.9c4.6,0.8,9.1,1.5,14.3,2.4C561.1,589.3,555.9,589.6,551.9,587.1z" />
	<path fill="#142B36" d="M571,577.4c0.4-0.3,0.7-0.6,1.1-1c2.8,0.2,5.7-0.4,8.4,1c0,0.3,0,0.6,0,0.8   C577.3,578.9,574.2,577.3,571,577.4z" />
	<path fill="#2A7190" d="M460.7,561.9c-2.6-0.9-2.6-0.9-6.3-5.3C457.4,557.1,459.1,559.6,460.7,561.9z" />
	<path d="M532.8,591.7c0-0.3,0-0.6,0-0.9c3.1,0.4,6.3,0.8,9.4,1.1C539.4,594,535.9,591.9,532.8,591.7z" />
	<path fill="#17313D" d="M424.9,534.4c-1.6,0.6-0.9,2-1.2,3.1c-1.4-1.5-1.1-3.6-1.6-5.5C424,532,424.3,533.4,424.9,534.4z" />
	<path fill="#245C73" d="M497.4,564.1c-0.3,0.3-0.7,0.7-1,1c-1.3-1.3-2.5-2.6-3.8-3.8l0,0C494.7,561.3,495.9,563,497.4,564.1z" />
	<path fill="#183642" d="M445.9,488.7c1.3,0.8,0.7,2,0.7,3C445.7,490.9,445.8,489.8,445.9,488.7z" />
	<path d="M658.9,567c0,0.3,0,0.7,0,1c-0.5-0.1-1.1-0.2-1.6-0.2c0-0.1,0-0.3,0-0.4C657.8,567.2,658.4,567.1,658.9,567z" />
	<path fill="#1E353D" d="M448.5,493.4c-0.9-0.5-0.8-1.3-0.6-2.1C448.1,492,448.3,492.7,448.5,493.4z" />
	<path d="M689.4,541.2c-0.3,0-0.6,0-1,0.1c0.1-0.3,0.3-0.5,0.4-0.8C689.1,540.7,689.3,540.9,689.4,541.2z" />
	<path fill="#11252E" d="M474.4,546c0.2,0.1,0.4,0.2,0.7,0.3C474.9,546.2,474.7,546.1,474.4,546L474.4,546z" />
	<path fill="#245C73" d="M492.7,561.3c-0.2-0.2-0.3-0.3-0.5-0.5C492.5,560.8,492.5,561,492.7,561.3   C492.6,561.3,492.7,561.3,492.7,561.3z" />
	<path fill="#020304" d="M472.6,568.9c-0.1-0.1-0.3-0.2-0.3-0.3C472.3,568.7,472.4,568.8,472.6,568.9L472.6,568.9z" />
	<path fill="#5876E7" d="M419.2,333.9c0-2.8-0.1-5.6-0.1-9.2c-6.3,21.9,3.5,20.4-18.7,41.7c0.4-10.1,5.6-20.1,6.3-30.5   c4.5-4.5,8.2-9.8,12.3-14.6C419.6,325.4,421.2,330,419.2,333.9z" />
	<path fill="#0B0B14" d="M383.6,350.9c-17.1,12.4-34.8,24.3-50.6,38.4c-0.3-0.3-0.7-0.7-1-1c16.9-16.6,37.5-30.1,57.3-43   c0.3,0.3,0.7,0.7,1,1C388.1,347.8,385.8,349.3,383.6,350.9z" />
	<path fill="#07080E" d="M419,321.3c-4.8,5-8.2,11.9-14.2,15.6c-0.3-0.3-0.7-0.7-1-1c10.9-11.9,18.6-26.4,30.5-37.3   c0.4,0.4,0.8,0.8,1.1,1.2C430.1,306.9,423.7,313.6,419,321.3z" />
	<path fill="#06080E" d="M360.6,356.7c2.1-15,6.3-29.7,11.8-43.8c0.3,0.7,0.7,1.4,1,2.1c-4.2,14.2-6.9,28.8-11.6,42.8   C361.4,357.4,361,357.1,360.6,356.7z" />
	<path fill="#06080F" d="M460.2,322.4c-0.4,1.1-0.8,2.3-1.2,3.4c-7.4-2.2,2.6-20.8,7.4-22.4c0.8,1.1,0.1,1.7-0.3,2.3   C463.1,310.8,460.5,316.4,460.2,322.4z" />
	<path fill="#0E1324" d="M483.9,286.2c0.8,8.7-1.1,18.5,1.1,26.6c0.3,0,0.7,0.1,1,0.1l0,0c0,0.3,0,0.7,0,1l0,0   c-2.4-0.1-2.4-0.1-2.9,1.8c-0.6-0.4-1.2-0.7-1.7-1.1C480.8,305,482.5,295.4,483.9,286.2z" />
	<path fill="#11172B" d="M398.1,314c-1.5,8-1.3,16.9-4.5,24.4c-2.5-7.6,2.3-18.9,3.5-27.4C398.6,311.7,397.8,313,398.1,314z" />
	<path fill="#141525" d="M483.9,286.2c-2,3.5,0.5,7.9-1.6,11.4c-0.1-1.3-0.2-2.5-0.3-4c-2.8-1.2-5.8-2.1-7.6-5.5   c2.9,0.4,4.9,2.4,7.6,3.2c0.6-4.4,1.3-6.8-3.6-7.9c1.1-0.1,2.2-0.1,3.4-0.2c-0.4-1.3-0.9-2.5-1.3-3.7c1.5,0.7,3,1.3,4.6,2   c-0.4,0.7-2.3,1.3-0.8,1.8C484,284.3,484,285.2,483.9,286.2z" />
	<path fill="#161C33" d="M346.3,400.6c1-6.1,0.8-13.4,4.4-18.6c-0.5,7.9-2.6,15.5-3.5,23.4C346.1,404,346.4,402.3,346.3,400.6z" />
	<path fill="#191F3B" d="M373.3,315c-0.3-0.7-0.7-1.4-1-2.1c2.2-6,4.3-13.4,8.7-17.9C379.8,301.6,375.6,308.4,373.3,315z" />
	<path fill="#151C33" d="M342,375.7c-1.5-5.6-1-12.4,2-17.6C347.2,359.6,341.9,371.6,342,375.7z" />
	<path fill="#0D070E" d="M478.3,283.4c1.2,1,3.1,0.4,3.8,1.9c-4.2-0.3-8.4,0.2-12.9,1.1c0.3-0.7,0.4-1.1,0.6-1.5   c-2.7-1-6.1,0.5-8.7-1.4C466.9,283.4,472.6,283.4,478.3,283.4z" />
	<path fill="#16182F" d="M461.1,283.4c0.7,0.3,1.4,0.7,2.1,1c-5.7,0.8-11,1.6-15.9,4.7C446,284.9,457.9,282.7,461.1,283.4z" />
	<path fill="#1F223F" d="M459.2,261.1c-6.6,0.6-4.5-0.9-16.5,5.8C442.6,263.3,456.7,256.3,459.2,261.1z" />
	<path fill="#151C33" d="M386.5,373c-1.1-0.2-0.8-1.2-1.1-1.8c1.2-4.8,2.5-9.6,5-14.4C392.9,362,386.9,367.4,386.5,373z" />
	<path fill="#0C0B13" d="M478.2,316.8c0.3,0.8,0.7,1.5,1.2,2.7c-5-0.9-9.3,0.5-13.2-2.6C470.5,316.2,474.3,316.8,478.2,316.8z" />
	<path fill="#1C2443" d="M398.1,314c-0.3-1,0.4-2.3-1-3c0.9-4.1,1.9-8.3,2.8-12.4C402.3,300.8,399.1,310.8,398.1,314z" />
	<path fill="#1B233F" d="M332,388.2c0.3,0.3,0.7,0.7,1,1c-2.5,3.5-4.2,7.7-7.6,10.5l0,0C326.5,395.3,328.7,391.5,332,388.2z" />
	<path fill="#1C223E" d="M435.4,299.7c-0.4-0.4-0.8-0.8-1.1-1.2c2.2-3.2,5-5.8,7.8-9.1C441.3,294.1,438.7,297.1,435.4,299.7z" />
	<path fill="#121427" d="M450.6,279.4c2.4-1.9,4.8-3.8,8.1-5c-1.5,3.2-1.8,3.5-7,6.2C451.3,280.2,450.9,279.8,450.6,279.4z" />
	<path fill="#161931" d="M460.2,280.4c3-1,5.9-4.6,9.2-2.3c-2.9,1.9-5.9,2.9-9.2,3.3C460.2,281.1,460.2,280.7,460.2,280.4z" />
	<path fill="#41549D" d="M401,300.5c-0.2-0.7,0-1.6-1-1.9c0.7-3.1,0.9-6.1,2.6-9C403,293.2,402.3,297.1,401,300.5z" />
	<path fill="#2B3C6B" d="M346.3,400.6c0.1,1.7-0.2,3.4,0.9,4.8c-0.3,2.7-0.7,5.4-1,8.2C345.1,409.4,344.6,404.6,346.3,400.6z" />
	<path fill="#2B3A6D" d="M360.6,356.7c0.4,0.4,0.8,0.7,1.1,1.1c-0.5,1.9-0.4,4.2-2.9,5.8C359,360.8,359.7,358.8,360.6,356.7z" />
	<path fill="#252C51" d="M390.4,346.3c-0.3-0.3-0.7-0.7-1-1c1.4-0.8,2.9-1.7,4.3-2.5C395.1,344.9,391.6,345.3,390.4,346.3z" />
	<path fill="#202746" d="M403.8,335.8c0.3,0.3,0.7,0.7,1,1c-1,0.9-2,1.8-3.1,2.7c-0.4,0-0.9,0-1.3,0   C401.4,337.5,401.4,337.5,403.8,335.8z" />
	<path fill="#283567" d="M450.6,279.4c0.4,0.4,0.8,0.8,1.2,1.2c-0.9,0.5-1.7,1-2.7,1.5C448.7,280.4,449.6,279.9,450.6,279.4z" />
	<path fill="#39488C" d="M460.2,280.4c0.2,1.6-1,2.4-2.7,1.5C458.5,281.3,459.3,280.9,460.2,280.4z" />
	<path fill="#1B233F" d="M325.4,399.8c-0.1,0.2-0.3,0.5-0.4,0.7C324.4,399.9,325,399.9,325.4,399.8L325.4,399.8z" />
	<path fill="#291C1B" d="M222.3,444.8c11.2-1.6,20.3-9.3,30.9-11.4c-8.6,6.8-19,10.8-29.7,12.5C223.1,445.6,222.7,445.2,222.3,444.8   z" />
	<path fill="#271C1B" d="M269.1,410.4c5.4-4.3,10.5-10.4,16.1-13.7c-1.9,6.3-9.9,10.5-15.1,14.7C269.7,411,269.4,410.7,269.1,410.4z   " />
	<path fill="#120E0D" d="M271.9,448.6c-3.3,1-6.3,3-9.9,3c-2.6-5.1,6.7-4.6,9.7-6.1c0.7,0.4,1.4,0.8,2.2,1.2l0,0   c-0.2,0.2-0.2,0.5-0.1,0.7C273.1,447.7,272.5,448.2,271.9,448.6z" />
	<path fill="#453836" d="M269.1,410.4c0.3,0.3,0.7,0.6,1,0.9c-3.9,3.1-7.6,2.1-13.1,3C261.5,411,264.7,411.6,269.1,410.4z" />
	<path fill="#554744" d="M272,427.2c1.4-2.8,3.9-2.8,6.9-3.3c-1.5,2.6-3.5,3.4-5.5,4.4C273,428,272.5,427.6,272,427.2z" />
	<path fill="#404440" d="M171.4,453.4c-1.4,1.6-3.9,1.2-5.4-0.2C167.4,451.5,169.6,452.9,171.4,453.4z" />
	<path fill="#7D5955" d="M89.5,476.3c-0.3-1.2-1.2-0.9-2-1c1.2-1.5,3.1-1,4.8-1.3C91.3,474.8,90.4,475.5,89.5,476.3z" />
	<path fill="#371413" d="M285.7,421.4c1-1.5,1-1.5,3-0.9C288,421.8,287,422.1,285.7,421.4z" />
	<path fill="#594945" d="M273.9,446.6c-0.7-0.4-1.4-0.8-2.2-1.2c0.7-0.6,1.4-1.1,2.1-1.7c0.3,0,0.6-0.1,1-0.1   c0.2,0.2,0.5,0.4,0.8,0.4C275,444.9,274.4,445.8,273.9,446.6z" />
	<path fill="#5A3F3B" d="M98.9,470.6c-0.3,2.1-0.4,2.2-2.7,1.8c0-0.2,0.1-0.5,0-0.7c0.3-0.4,0.7-0.7,1-1.1   C97.8,470.6,98.3,470.6,98.9,470.6z" />
	<path fill="#443A37" d="M253.7,428.4c0.5-1.7,0.5-1.7,2.8-1.7C256,427.9,255.2,428.3,253.7,428.4z" />
	<path fill="#5D413D" d="M289.3,394.3c-1.3,0.9-2,1.3-2.6,1.8C286.5,394.4,286.5,394.4,289.3,394.3z" />
	<path fill="#41433F" d="M111.6,453.2c1.4-1.4,1.4-1.4,2.8,0C113.4,453.2,112.6,453.2,111.6,453.2z" />
	<path fill="#5C514D" d="M243.5,412.4c0.7-0.2,1.4-0.5,2.1-0.7C245.6,413.1,245.6,413.1,243.5,412.4z" />
	<path fill="#795450" d="M293.9,389.7c-0.6,0.5-1,0.8-1.5,1.2C292.4,389.5,292.4,389.5,293.9,389.7z" />
	<path fill="#EECABA" d="M97.2,470.6c-0.3,0.4-0.7,0.7-1,1.1C96.5,471.3,96.9,471,97.2,470.6z" />
	<path fill="#594945" d="M273.7,447.3c-0.1-0.3,0-0.5,0.1-0.7c0.2,0.2,0.4,0.3,0.6,0.5C274.2,447.2,274,447.3,273.7,447.3z" />
	<path fill="#EECABA" d="M275.6,444.1c-0.3-0.1-0.6-0.2-0.8-0.4c0.2-0.2,0.5-0.3,0.7-0.5C275.5,443.5,275.5,443.8,275.6,444.1z" />
	<path fill="#1A1416" d="M601.9,313.7c6.8,3.4,14.3,5.5,20.9,9.1c-0.2,0.3-0.3,0.6-0.4,0.9c-4.7-0.1-11.6-2.9-21.7-8.9   C601,314.4,601.5,314,601.9,313.7z" />
	<path fill="#1F1E22" d="M639.7,290c0.4-0.4,0.8-0.8,1.2-1.2c2.1,0.9,4.6,0.5,6.4,2.5C645.6,293.9,641.5,291.7,639.7,290z" />
	<path fill="#353238" d="M513.7,314.8c0.9-2.3,1.4-5.4,4.6-5.4C518.6,312,516.3,314.5,513.7,314.8L513.7,314.8z" />
	<path fill="#352C32" d="M601.9,313.7c-0.4,0.3-0.8,0.7-1.2,1.1c-1.6-0.9-3.3-1.8-4.9-2.7c0.4-0.4,0.7-0.7,1.1-1.1   C598.5,311.8,600.2,312.7,601.9,313.7z" />
	<path fill="#30282D" d="M520.9,306.6c0.9-1.1,1.7-2,2.5-3C524.5,305.6,522.5,307.1,520.9,306.6z" />
	<path fill="#050404" d="M695.3,193.5c1.8-2.6,1.9-8.7,5.8-8.5c2.9,0.9,2.2,5,1.1,7c-5.7,12.7-14.7,23.8-27.1,30.3   c1.5-5.4,5.3-7.8,8.8-11.5c1.7-1.6,2.6-4,5.5-4.4C691.5,202.1,693.4,197.8,695.3,193.5z" />
	<path fill="#0D0A09" d="M721.7,172.3c7.1-5.3,9.7-13.7,15-20C736.5,159.1,729.3,177.9,721.7,172.3z" />
	<path fill="#100D0D" d="M806.1,100.7c0.3-3.8,0.7-7.8,1.1-11.6c-1.8-1.8-5.1-1.9-5.2-5.1c11.4-1.7,8.9,9.9,6.7,16.7   C807.6,100.7,806.8,100.7,806.1,100.7z" />
	<path fill="#140E0D" d="M712.5,177.3c-2.6,3.1-6.5,4.3-9.9,6.8c-0.5-0.4-1.1-0.8-1.7-1.2c1.5-4.2,6.4-5.8,10.5-6.6   C711.7,176.6,712.1,176.9,712.5,177.3z" />
	<path fill="#231B1A" d="M741,141.9c0,0.6,0,1.2-0.1,1.9c-0.8,0.5-0.8,1.2-0.7,2c-0.7,1.5-2.9,4.9-4.1,1.8c1.3-1.9,2.7-3.8,3.9-5.8   l0,0C740.4,141.9,740.7,141.9,741,141.9z" />
	<path fill="#3B2F2C" d="M670.4,220.3c0.5,0,0.9,0,1.6,0c0.4,3-4.8,6.7-6.6,3.7C667.7,223.4,669.5,222.5,670.4,220.3L670.4,220.3z" />
	<path fill="#402E2A" d="M712.5,177.3c-0.4-0.4-0.7-0.7-1.1-1.1c1.3-1.1,2.7-1.4,4.7-0.6C714.6,176.3,713.6,176.8,712.5,177.3z" />
	<path fill="#5A4C48" d="M740.2,145.8c-0.1-0.8-0.1-1.6,0.7-2c0,0.6,0,1.1,0,1.7C740.7,145.5,740.4,145.6,740.2,145.8z" />
	<path d="M818.5,89.2c0.1-0.2,0.2-0.4,0.1-0.7c0.2,0.2,0.4,0.4,0.6,0.6C819,89.2,818.7,89.2,818.5,89.2z" />
	<path fill="#322522" d="M211.2,447.9c-4,2.9-11,2.5-16.5,2.5C198.9,448.1,206.4,447,211.2,447.9z" />
	<path fill="#151413" d="M315,436.2c0.9,0,1.8,0,2.8,0c3.1,2.2,6.6-0.2,10.3-0.3c-2,4.9-8.4,3.3-12.3,1.9   C315.5,437.4,315.3,436.8,315,436.2z" />
	<path fill="#4A312D" d="M315,436.2c0.3,0.6,0.6,1.1,0.9,1.7c-4.9-0.1-4.9-0.1-8.2-1.6C310.2,435.3,312.6,436.5,315,436.2z" />
	<path fill="#9B8A80" d="M222.3,444.8c0.4,0.4,0.8,0.7,1.1,1.1c-2.1,1.3-3.8,0.6-6.3,1.2C218.9,445.3,220.6,445.1,222.3,444.8z" />
	<path fill="#302724" d="M305.3,436c-2.3,0-3.7,0-5.1,0C302.6,434.1,302.6,434.1,305.3,436z" />
	<path fill="#604C46" d="M297.5,436.4c-0.8,1.8-2,1.8-3.4,1.3C294.8,436,296,435.8,297.5,436.4z" />
	<path fill="#63312D" d="M175.5,452.9c1.1-0.8,2.2-0.9,3.2,0.1C177.6,453.7,176.6,454,175.5,452.9z" />
	<path fill="#4A312D" d="M321.8,436.9c-1.4,0.1-2.9,0.7-4.1-0.7C319.2,436.1,320.6,436.1,321.8,436.9z" />
	<path fill="#93544E" d="M184.3,450.9c0.6-0.3,0.9-0.4,1.3,0.2C185,451.4,184.7,451.5,184.3,450.9z" />
	<path fill="#191414" d="M837.5,111.1c-1.1,3.8-1.3,5.2-5.9,5.5c-0.7-3.4-3.5-5.1-7.4-6.8c5.6-2.6,7.5,3.2,12.3,0.5   C836.5,110.3,837.1,110.9,837.5,111.1z" />
	<path fill="#223669" d="M483,315.7c0.6-1.9,0.6-1.9,2.9-1.8c0,0.9,0,1.8,0.1,2.7c-0.7,0.7-1.4,1.3-2,2   C483.9,317.5,484.5,316.3,483,315.7z" />
	<path d="M459.2,339.7c-0.1,0.2-0.2,0.5-0.3,0.7c-0.1-0.1-0.3-0.3-0.4-0.4C458.7,339.9,459,339.7,459.2,339.7L459.2,339.7z" />
	<path fill="#6A534D" d="M97.3,455.6c1.5-1.6,1.5-1.6,3.4-0.3C99.1,456.2,99.1,456.2,97.3,455.6z" />
	<path fill="#351E1C" d="M91,457.5c-1.3,1.4-2.7,1.9-4.5,1.5C87.4,456.8,87.4,456.9,91,457.5z" />
	<path fill="#2D2C28" d="M79,461c-0.8,1-1.8,1.2-3,0.9c0,0,0.1,0.1,0.1,0.1c0.5-0.7,1.1-1.4,1.6-2.1C78.1,460.2,78.5,460.6,79,461z" />
	<path fill="#6F4943" d="M79,461c-0.4-0.4-0.9-0.8-1.3-1.2c0.9-1.2,2.2-0.7,4.3-0.8C80.5,460,79.7,460.5,79,461z" />
	<path fill="#473633" d="M105,453.8c0.9-0.7,1.6-0.9,2.3-0.2C106.8,454.8,106,454.5,105,453.8z" />
	<path fill="#131428" d="M491,272.8c-2.1,2.6-4.4,1.8-7,1.7C486.1,272.4,488.8,271.1,491,272.8z" />
	<path fill="#0F0C17" d="M485.8,268.8c-0.4-0.8-0.9-1.6-1.5-2.7c2.1,0.6,3.3-1.9,5.3-0.8c0.6,1.7-1,1.7-1.6,2.5   C487.6,269,486.7,269,485.8,268.8z" />
	<path d="M485.8,268.8c0.9,0.1,1.8,0.1,2.2-1c0.7,0.1,1.5,0.2,2.8,0.4c-2,2.7-4.4,1.5-7.5,2.1C483.6,268.8,484.8,269,485.8,268.8z" />
	<path fill="#0E1324" d="M484.1,283.3c-1.7-0.9,2.7-2.9,3.6-4.1c0.4,0.4,0.9,0.9,1.5,1.6c-1.7,1-3,1.8-4.3,2.6   C484.8,283.3,484.4,283.3,484.1,283.3z" />
	<path fill="#2D8FB9" d="M691.4,535.5c0.3-0.4,0.6-0.7,0.9-1.1C692,534.7,691.7,535.1,691.4,535.5z" />
	<path fill="#3C55A6" d="M484.9,312.8c-1.1-1-1-2.3-0.8-3.7c0.4,0.1,0.7,0.1,1.1,0.2c0.1,0.5,0.1,1,0.2,1.4c2.6,0.1,5.5-1.7,7.3,0.2   C490.1,311.5,487.1,311.2,484.9,312.8z" />
	<path fill="#0E0911" d="M486,312c2.2-0.4,4.4-0.8,6.6-1.2c0.2,0.1,0.5,0.2,0.8,0.2c0.7,3.7-5.4,1.3-7.5,1.8l0,0   C485.9,312.6,485.9,312.3,486,312z" />
	<path fill="#15162B" d="M490.6,310c-1.6,0.2-3.2,0.4-5.2,0.6c-0.1-0.4-0.1-0.9-0.2-1.4c1.8-0.6,3.5-0.9,5.4-0.9   C490.6,309,490.6,309.5,490.6,310z" />
	<path fill="#223669" d="M485.9,312.9c2.3,0,4.5,0.1,6.8,0.1c-2.1,1.2-4.4,0.8-6.7,0.9C486,313.5,486,313.2,485.9,312.9z" />
	<path fill="#1B1615" d="M818.5,84.8c-2.4-3.2-4.8-5.2-6.3-8.5C816.8,75,819.1,80,818.5,84.8z" />
	<path fill="#31302E" d="M744.9,64.2c-1.3-2.5,0.1-3.2,1.2-4.4C747.5,61.7,746,62.5,744.9,64.2z" />
	<path fill="#6D5E5A" d="M681.9,128.5c0-0.6,0-1.3-0.1-1.9c1.2-1.2,2-1.7,3.6-2.9C685.6,126.3,683.3,126.9,681.9,128.5z" />
	<path fill="#EECABA" d="M670.4,220.3c-0.9,2.2-2.7,3.2-4.9,3.7C666.8,222.3,667.9,220.3,670.4,220.3z" />
	<path fill="#312624" d="M743.7,129.5c-0.2,1.9-0.6,2.9-2.2,3.3C740.9,131.1,742,130.3,743.7,129.5z" />
	<path fill="#4C433F" d="M745.3,122.9c1.4,1.7,0.2,2.4-0.9,3.4C743.2,124.6,744,123.7,745.3,122.9z" />
	<path fill="#5A4C48" d="M741,141.9c-0.3,0-0.6,0-0.9-0.1c0.1-0.5,0.2-1,0.4-1.6c0.1,0,0.3,0,0.4,0C740.9,140.8,741,141.4,741,141.9   z" />
	<path fill="#7F605B" d="M728.2,115.2c0.4,0.3,0.4,0.4,0,0.7C728.2,115.7,728.2,115.5,728.2,115.2z" />
	<path fill="#5A4C48" d="M740.1,141.8c-0.2,0.3-0.4,0.7-0.7,1C739.6,142.5,739.9,142.2,740.1,141.8z" />
	<path fill="#282529" d="M712.3,249.7c-1.4-1.1-1.6-2.6-2-4.2c0.6-0.2,1.1-0.3,1.6-0.4C712.7,246.6,712.6,248.1,712.3,249.7   L712.3,249.7z" />
	<path fill="#222024" d="M707.8,238.3c0.1-1.1-0.8-2.5,1.2-2.9c1.1,1.2,0.5,2.5,0.4,3.7C708.8,238.8,708.3,238.6,707.8,238.3z" />
	<path fill="#68727F" d="M707.8,238.3c0.5,0.3,1.1,0.6,1.6,0.8c0.1,0.9,0.1,1.8,0.2,3.2C708.3,240.8,707.4,239.8,707.8,238.3z" />
	<path fill="#14252E" d="M575.8,561.1c0.4-0.3,0.7-0.6,1.1-0.9c4.4,0.6,8.9,0.7,13.2,1.9c0,0.3,0,0.6,0,0.9   C585.3,563.1,580.7,562,575.8,561.1z" />
	<path fill="#2D8FB9" d="M582.5,562.5c1.3,0.1,2.8-0.6,3.8,0.7C585.1,562.9,583.6,563.8,582.5,562.5z" />
	<path fill="#40A6CA" d="M592.9,527c-68.5-18.6-55.6-99.7,11.5-107.1C714.7,414,694.8,550.3,592.9,527z M596.8,507.8   c0.3,0.6,0.7,1.3,1.5,0.2C597.7,507.9,597.2,507.9,596.8,507.8c-1.4-1.8-3.5-2.6-5.7-2.9c-0.6-1.1-0.6-0.7-2.3-0.3   c1.4,0.2,1.8,0.3,2.3,0.3c0.6,1.8,2.1,2,3.8,1.9C595.2,507.8,596,507.8,596.8,507.8z M584.4,500.1c0.2,0.1,0.4,0.3,0.7,0.4   c-2-1.2-2.1-4.1-4.4-5.2c-27.8-44.3,41.9-75.5,71-42.5c19.1,19.4,3.6,50.5-21.1,54.8c-10.1,4.6-20.8-1.9-30.4,1.6   c39.9,14.3,88.6-29.2,48.2-62.7c-29.7-24.9-93.3,1.2-72.5,43.1l0,0C577.6,493.6,579.9,498.9,584.4,500.1z M608.2,488.7   c0-0.4,0-1-0.7-0.4c17.7,15.1,53.3-7.8,31.2-27.4c-11.9-10.3-38.4-5.9-38.6,12.1c5-17.1,28.8-21.9,40-8.5   C653.5,486.4,625.5,496.5,608.2,488.7z" />
	<path fill="#223669" d="M486,312c-0.1,0.3-0.1,0.6-0.1,0.9c-0.3,0-0.7-0.1-1-0.1C485.3,312.5,485.7,312.3,486,312z" />
	<path fill="#050708" d="M574.8,487.7c-17.6-41.7,44.5-65.3,73.5-41.2c38.1,30.3-3.5,74.2-42.6,64c-0.2-0.5-0.5-1-0.9-1.9   c33.3,7.6,74-23,46.8-55.7c-26.4-29.9-91.2-7.6-74.6,35.6c-0.4,0.4-0.8,0.8-1.2,1.2l0,0C575.8,488.8,575.8,488,574.8,487.7z" />
	<path fill="#1A2A30" d="M608.2,488.7c17.3,7.8,45.3-2.3,31.9-24.2c-11.3-13.4-35.1-8.6-40,8.5c0.2-18.1,26.7-22.5,38.6-12.1   C660.6,479.9,625.9,503.2,608.2,488.7L608.2,488.7z" />
	<path fill="#213941" d="M575.7,489.7c0.4-0.4,0.8-0.8,1.2-1.2c1.2,2.3,2.5,4.6,3.7,6.9c-0.3,0.3-0.6,0.6-0.9,0.8   C578.3,494,576.2,492.3,575.7,489.7z" />
	<path fill="#407B90" d="M609.2,508.6c-1.4,0-2.8,0-4.5,0c0.4,0.8,0.6,1.4,0.9,1.9c-2,0.6-3.6-0.6-5.5-1.3   C603.2,507.9,606.1,506.7,609.2,508.6z" />
	<path fill="#428198" d="M579.7,496.2c0.3-0.3,0.6-0.6,0.9-0.8c1.9,1.1,2.5,3.2,3.7,4.8l0,0C582,499.8,580.6,498.2,579.7,496.2z" />
	<path fill="#468BA3" d="M591.1,504.9c1.7,0.3,3.5,0.6,4.8,1.9C594,506.9,591.8,507.2,591.1,504.9L591.1,504.9z" />
	<path fill="#213941" d="M576.5,486.8c-0.8-0.5-0.8-1.2-0.7-2C576.6,485.3,576.7,486,576.5,486.8z" />
	<path fill="#468BA3" d="M591.1,504.9c-0.5-0.1-0.9-0.1-2.3-0.3C590.5,504.2,590.4,503.8,591.1,504.9L591.1,504.9z" />
	<path fill="#407B90" d="M594.8,506.8c0.3,0,0.7,0,1,0c0.3,0.3,0.6,0.6,0.9,1l0,0C596,507.8,595.2,507.8,594.8,506.8z" />
	<path fill="#407B90" d="M596.8,507.8c0.5,0.1,0.9,0.1,1.5,0.2C597.5,509.1,597.1,508.4,596.8,507.8L596.8,507.8z" />
	<path fill="#213941" d="M574.8,487.7c1,0.3,1.1,1.1,1,1.9C575.4,489,575.1,488.4,574.8,487.7z" />
	<path fill="#1A2A30" d="M608.3,488.6c-0.3-0.1-0.5-0.2-0.8-0.4C608.2,487.7,608.2,488.3,608.3,488.6L608.3,488.6z" />
	<path fill="#428198" d="M584.4,500.1c0.2,0.1,0.4,0.3,0.7,0.4C584.8,500.4,584.6,500.3,584.4,500.1L584.4,500.1z" />
</g>
</svg>