<?xml version='1.0' encoding='utf-8'?>
<svg xmlns="http://www.w3.org/2000/svg" version="1.2" baseProfile="tiny" id="Layer_1" x="0px" y="0px" viewBox="0 0 900 600" overflow="visible" xml:space="preserve">
<g id="a">
	<path fill="#020202" d="M298.3,91.5c0.5,0.8,1,1.6,1.7,2.7c44.8,6.2,89.7,12.3,134.9,18.5c2.4-7.3,0.2-14.5,0.1-22   c-3.4-3.6-3.6-8.1-3.4-13.1c3-23.4-17.8-38.3-26.9-57.3c0.5-3.3,0.4-6.2,2.2-8.7c2.8,1.3,6,3.6,5.6,7.2l0.1-0.1   c-0.9-0.3-1.9-0.6-3.6-1.2c2.8,7.4,8.8,11.1,13.6,16.8c-0.4,1.7-1.9,0.5-2.7,1c0,2,0,2,1.2,3.4c0.5,0,0.9,0.1,1.4,0.1l0,0   c23.3,32.9,5.1,27.9,18.2,52.5c10.4-0.7,7.9,12.6,13.9,18.3c13.5,4.8,20.5,9.2,28-6.5c2.6-1.4,0.4-4.9,2.1-7   c5.3-5.9,8.2-17.2,17.5-17l-0.1-0.1c0,0.8,0,1.7,0.1,2.5c-7.1,2.3-9.6,10.2-13.4,15.5c2.4,2.8,4.4,5.2,6.4,7.7l0,0   c2.1,2.8,5.1,4.6,8.1,5.8c2.1-0.3,3.2-0.8,4.9-1.7c1.7,0.9,1.9,3.2,4,3c1.9,1-0.9,3.5-2.5,2.1c-0.6-0.3-1.3-0.3-1.9-0.4   c-3,1.6-6.2,1.5-9.4,1.1c-1.9-4.7-8.1-6.8-10.4-11.7c-4.2,5-8.2,9.7-12.2,14.5c-1.9,33.5,2.1,66.6,8.7,99.5c1.9-1.8,0.5-5.1,4-6.2   c-1.4,19.1-0.8,37.8-1.7,57.1c-4.7,27.4-6.5,53.8-4.4,81.7c-0.2,44.4,27.6,83.7,23.2,128.6c1,0.2,1.9,0.4,2.7,0.7l0,0   c0,0.6-0.1,1.3-0.1,1.9c-3.3,2.3-1.4,6.7,0.1,9.6c-0.8,0.1-1.5,0.3-3,0.6c3.2,4,5.8,6.4,7.2,10.8l0.1-0.1c-0.8-0.2-1.5-0.5-2.4-0.7   c0,3-1.2,3.5-3.4,2.3c-0.2-3.1,1-7.4-2.9-8.6c-1.6-43.3-13.6-83.8-25.1-125.2c-5-21.1,1.9-42.8-2.2-63.9c-5.4-21.4,4.9-42.5,7-63.6   c-4.2-40.9-16.7-80.5-11.8-121.9c-3.6-0.5-8.2-4.3-11.6-2.7c0.7,6,0.7,6-1.4,11.2c-3-4-1.8-8.1-1.1-12.3   c-8.7-4.3-10.2-12.8-14.3-20.4c-10.3,12.9-3.4,33-6.5,48.6c-8.5,35.5-8.6,71.3-10.1,107.5c-3.6,2.6,0.9,7.6-2.8,10   c-5.6-43.9,4.4-87.6,9.1-131c-60.9-8-122.2-17.8-182.7-23c1.1,6.3,2.8,12.2,0.8,18.3c-0.9,0.5-1.8,0.9-2.7,1.4   c-0.8-7.2,0.1-14.1-1.9-21.2c-21-3.4-42.1-4.4-62.7-8.7c0.1-0.9,0.3-1.8,0.5-3.2c31.6,3.4,61.7,8,93.4,11.8c-1-1.3-1.6-2.2-2.2-3.2   c0.6-0.5,1.2-1,1.8-1.5c1.1,0.3,2.2,0.6,3.7,1.1c0.5-3.6,0.9-7.1,1.3-10.5c0.4-0.6,0.9-1.1,1.3-1.7c3.6,3.7-3.7,16.7,4.3,15.5   c1.5-4.5,1.6-9.1,1.5-13.8c0.5-0.6,1-1.1,1.5-1.7c2.4,3.8,0.8,7.4,1.6,12C298.7,100.5,294.5,94.4,298.3,91.5z M480.7,279.8   c-1.6,5.7-1.6,6.1-0.2,11.2c1.9-5.1,4.7-11.1,0.8-16.5C481.1,276.6,480.9,278.2,480.7,279.8z M298.3,103c-2.2,0.8-4.3,1.6-6.5,2.3   c1,5,8.7,2.5,12.5,3.8c43.2,5.1,86.3,12.4,129.5,16.2c0-3.3,0-5,0-8.4c-44.7-6.6-89-12.6-133.7-18.4   C299.4,100.4,298.8,101.7,298.3,103z" />
	<path fill="#020202" d="M725.1,164.2c0.4,1.4,0.2,1.6-0.6,3.1c-70.1-7.7-139.8-18.2-210-26.7c4.7,44.6,32.8,87.6,21.6,133.4   c-2.4,16.9-9.9,34.8-5.7,51.7c44,123.3,86.3,310.5-115.1,255.6c0.9-2.3,3.1-1.1,4.6-1.7c22.3,6.2,45.7,9.5,68.1,1.5   c35.1,13.8,71.2-27.1,74.2-62.5c-3.1,1.7-5.7,3.1-8,4.3c-7.9-2.5-15.7-4.5-19.2-12.7c0.6-0.6,1.2-1.3,1.8-1.9c3.6,3,7.3,6,10.4,8.6   c21.8,2.7,14.9-23.1,13.3-36.1c-6.8-52.8-13.2-106.3-34.2-155.7c-5.1-21.2,6.7-42.3,7.9-63.6c8-43.6-30.4-84.8-21.7-127.3   c1.3-0.2,2.6-0.4,4.1-0.6c-2.1-6.1-3.8-11.4-2.3-17.6c2.8,4.8,0.9,9.3,4.9,13.3c0.6-4.4,0.6-8.2-1.2-12.2c0.5-0.5,0.9-0.9,1.4-1.4   c2.8,2.6,3.2,6.7,6.1,9.2c66.1,9.9,133.3,17.4,198.9,28.5c0.1,0.7,0.2,1.3,0.2,2c-65.8-5.6-130.9-19-196.7-25.4   c-2.4,0.7-0.5,3.7-3.1,4.9c-0.7,0.3-2,0.8-4.6,1.9C588.7,147,657,153.8,725.1,164.2z M523.4,129c-0.3,0-0.6,0-0.8,0   c0,1.2,0,2.4,0,3.6c0.3,0,0.6,0,0.8,0C523.4,131.5,523.4,130.3,523.4,129z" />
	<path fill="#030302" d="M397.8,571.5c-11.5-6.3-18.5-19.1-27.6-28.3c-18.8-18.9-39.5-27.2-47.2-55.6c-0.6,4.5-0.3,9.1-0.5,13.6   c-0.5-0.5-1-1-1.5-1.5c-0.8-5.9,1.5-13.5-1-18.5c0,0-0.3,0.1-0.3,0.1c0.5-2.9-2-4.5-4-5.9c-0.5-1.8-0.7-3.8-3.1-4.2   c-8.1-10.8-16.4-22.4-18.3-35.7c-1.5-2.1-0.5-7.9-4.5-6.2c0,13.6,0.5,27.9-1.2,41.6c-0.5,0.6-1.1,1.2-1.6,1.7   c-4.2-15.2,3.2-31.4,0-47.1c-5.3-13-9-25.9-5.6-40c3.1,16.7,4.6,37.8,20.8,49.1c-1,0.7-1.8,1.2-2.8,2c1.7,4.6,2.8,9.3,5.9,13.4   c19.1-5.7,27.1-25.6,31.5-43.5c-1-0.9-1.9-1.7-2.7-2.5c-0.5-3.6,2.5-2.2,4.6-4.2c3.6,20.2-11.2,46.3-30.1,55   c1.5,9.2,11.6,15,15.3,22.9c1.3,5.3,3.2,10.2,6.6,14.4c13.8-28.8,48.6-36.3,76.7-44c0.8-18.2,4.7-35.9,8.5-53.6   c-9-6.5-19.7-6.1-28.6-11.9c8.7-1.2,16.4,2.8,24.8,5.1c0.7-0.7,1.5-1.7,2.4-2.7c0.7,0.8,1.1,1.4,1.5,1.9c0.1,1.2,0.2,2.4,0.2,3.6   c0.2,0,0.5,0.1,0.7,0.1c5.7-16.8,8.4-33.4,6.9-52.5c-4.5,7.7-6.5,14-12.3,20.3c-0.6,0-1.2-0.1-1.8-0.1c0.1-0.9,0.3-1.8,0.4-2.6   c0,0,0,0,0,0c4.8-8.6,9.3-17.3,14-26.1c-0.7-4.7-0.6-9.3,0.2-14c3.5,2.5-0.9,7.4,2.7,10c7.6,41.8-14.5,81.8-14.6,123.7   c-1.5,15.7,1,32.5-2.2,47.6c-8-0.5-13.9,25.1-17.5,32.8c-5.4-8.8,7.6-20.8,7.9-29.4c-12,14.4-15.5,34.6-15.1,53   c5,5.5,8.2,12.3,14.5,16.5C399,570.4,398.4,570.9,397.8,571.5z M388.7,510.1c4.5-7.2,9.3-14.5,17.9-17.5   c0.1-13.5,2.9-27.4-0.2-40.8c-22.8,7.6-93.2,26.6-66.3,59.9c14.5,11.6,28.1,23.6,41,36.7C381,535,383.7,522.5,388.7,510.1z" />
	<path fill="#050504" d="M284.2,354.3c-7.9-24-1.8-50.6-9.6-74.5c-9.8-18.3-11.5-38.3-12-58.5c-0.2-19.6-8.2-40.9-4.3-59.7   c8.9,36.5,5.5,75.1,18.8,110.3c3.5,0.9,3.5,0.9,5.5,3.9c-1.2,1.5-3.8,2.2-2.6,4.3c2.6,27.3,7.5,55.1,6.9,82.9l0,0   C283.5,361,287.4,356.4,284.2,354.3z" />
	<path fill="#798AB2" d="M725.1,164.2C657,153.8,588.7,147,520.4,137c2.6-1.1,3.9-1.7,4.6-1.9c2.5-1.2,0.6-4.2,3.1-4.9   c0.2,1.3,0.4,2.6,0.6,3.8c65,10.9,132.9,13.9,196.6,27.6C725.2,162.4,725.1,163.3,725.1,164.2z" />
	<path fill="#8E9FC1" d="M725.2,161.5c-63.7-13.7-131.6-16.7-196.6-27.6c-0.2-1.2-0.4-2.5-0.6-3.8c65.8,6.4,130.9,19.8,196.7,25.4   C725.8,157.5,727.6,159.4,725.2,161.5z" />
	<path fill="#91A2C3" d="M182.4,96.1c-2.8-4.3-1.1-13.7,1.7-17.4c0.1,1.1,0.2,2.3,0.4,3.6c29.4,4.2,58.4,8.2,87.7,12.1   c1,2.5,0.4,4.1,0,6.5c-29.7-2.2-59.7-10.4-89.2-10.1C182.8,92.8,182.6,94.5,182.4,96.1z" />
	<path fill="#0B0B0A" d="M409.6,13c-0.9-0.5-1.8-0.9-2.8-1.4c0-2.6,0-5.1,0-6.9c8.5-7.2,20.8-0.8,31.3-0.4   c22.4-7.5,74.4,0.8,68.4,33.5c-5.8-2.4-3.9-9.6-4.7-14.5c-14.1-13.5-35.2-21-54.3-15.8c4.7,3.2,9.4,5.1,12.2,9.5   c-0.6,0.6-1.2,1.2-1.8,1.8c-14.1-9.9-33.4-15.3-50.1-11.6C408.5,9.5,409.1,11.2,409.6,13z" />
	<path fill="#131210" d="M294.1,514.2c-0.3-2-0.2-5.4-0.2-6.7c-1.2-1.5-2-2.4-2.7-3.3c5.1-3.8,1.5-10.5,4.5-15.7   c0.8,0.5,1.6,0.9,2.4,1.4c0.1,1.4,0.3,2.8,0.4,4.2c-6.3-0.6-2.3,23.5,0.8,26.3c1.2-7-1.5-13.5-1.2-20.5c0.5,0,1,0,1.5,0   c2,6.3,0.8,13.1,3.9,20.1c2.3-11.4,0.6-22,3.1-32.8c3.9,23.9,1.1,45.2,1.1,69.2c-6.4-5-4-15-7.9-21.7c-2.1-5-4.4-9.9-4.6-15.5   C295.2,517.4,296.2,515.4,294.1,514.2z" />
	<path fill="#7789B0" d="M182.4,96.1c0.2-1.6,0.3-3.3,0.5-5.2c29.5-0.3,59.5,7.8,89.2,10.1c0.2-1.4,0.5-2.8,0.7-4.1   c0.9,3.7,2.7,5.9,5,9c-31.7-3.7-61.8-8.4-93.4-11.8c-0.2,1.4-0.4,2.3-0.5,3.2C183.4,96.9,182.9,96.5,182.4,96.1z" />
	<path fill="#0A0A0B" d="M275.5,102.8c-2-2.5-2.4-5.2-3.4-8.3c-29.3-3.9-58.3-7.9-87.7-12.1c-0.1-1.3-0.3-2.5-0.4-3.6   c23.4,2.1,47.4,5.6,70.3,9.7c3.1-0.3,7.7,2,9.7-1.3c2.3,2.7,5.6,3.4,9,2.7c3.8,2.5,2.9,7.5,4.3,11.4   C276.8,101.8,276.1,102.3,275.5,102.8z" />
	<path fill="#191716" d="M273.1,89.9c-0.6,0.1-1.2,0.2-1.8,0.2c-0.8-3.8-4-6.2-5.3-9.3c-3.5-0.2-6.5-0.3-9.7-0.5   c-1.5,2.9-4.6,5.2-1.8,8.2c-1.9,0.6-3.2-0.7-4.7-1.3c1.4-3.4,3.2-6.6,5.4-9.5c12.5,0.6,23.2,2.4,35.3-0.8c2.9,4.9,6.7,9.1,8,14.7   c-1.6,0.5-1.3,1.9-1.6,3.1c-1.9-5.3-4.8-10-7.7-15c-1.1,0.3-1.9,0.6-2.6,0.8c1.6,3.4,3.1,6.5,4.6,9.7c-0.5,0.6-1,1.1-1.5,1.7   c-2.9-3.6-4.5-12-10.7-9.4c1.8,2.8,3.3,5.3,4.9,7.7c-0.4,0.6-0.9,1.1-1.3,1.7c-3.6-2.9-6.4-12.9-11.8-10.6   C271.5,84.2,272.3,87.1,273.1,89.9z" />
	<path fill="#1B1916" d="M291.2,504.2c0.7,0.9,1.4,1.7,2.7,3.3c0,0.8,0,2.7,0,4.5c-0.5-1.5-1-3.1-1.5-4.8   c-5.6,2.6-13.2,7.2-16.8-0.6c16.6-0.4,11.9-22.7,11.3-33.8c0.5-0.6,1.1-1.2,1.6-1.7c1.8,2.9,0.5,6.5,2.5,9.1   c-0.1,9,2.3,19.7-5.4,26.3c2.4,0.5,3.3-0.8,4.3-2.1C290.3,504.3,290.7,504.2,291.2,504.2z" />
	<path fill="#2A2723" d="M309.7,519.9c1.3-1.6,1.2-3,0.2-4.7c3.4-3.2-2.4-12.5,4.2-12.5c-0.2,8.3,0.1,13.9,2.1,22.4   c0.9-8.1,2.7-13.3,3.7-20.9c2,1.1,0.8,3.2,1.5,4.7c-0.1,1.3-0.3,2.5-0.4,3.8c-2.2,1.7-1.2,4-1,6.2c0,6.4-2.3,12.9,0,19.1   c-0.6,0.6-1.2,1.3-1.8,1.9C314.7,533.5,313.9,525.9,309.7,519.9z" />
	<path fill="#1C1B19" d="M512,111.6c-2.2,0.3-2.4-2.1-4-3c1.4-9.7,5.7-18,11.6-25.7c0.1,0.8,0.1,1.6,0.3,3.3   c2.7-4.5,7.5-5.1,7.9-10.2c1,0.4,2,0.8,3,1.2C525.2,88.3,509.8,98.7,512,111.6z" />
	<path fill="#363531" d="M506.6,37.8c0.1-0.7,0.2-1.5,0.3-2.2c9.9,9.5,40.8,22.7,25.6,39c-0.7-0.6-1.4-1.3-2-1.9   c11.1-12.5-11.7-25.4-21.3-30.5C508.2,40.6,507.4,39.2,506.6,37.8z" />
	<path fill="#1C1A1A" d="M258.3,161.5c-1.6,1.7-1.5,3.9-1.6,6.1c-2.1-13.5-5-27-8.3-40.4c0.9-0.5,1.8-0.9,2.7-1.4   C253.7,137.6,258.9,149.2,258.3,161.5z" />
	<path fill="#181714" d="M530.4,72.7c0.7,0.6,1.4,1.3,2,1.9c-0.6,0.9-1.2,1.7-1.8,2.6c-1-0.4-2-0.8-3-1.2   c-9.3,3.1-17.3-3.1-23.9-8.7c0.2-1.1,0.4-2.2,0.6-3.3C513.6,67,519.2,76.9,530.4,72.7z" />
	<path fill="#201D1C" d="M284.2,354.3c3.2,2.2-0.7,6.7,2.7,8.6c0.3,13-4.4,25.5-3.1,38.5c-3.4-4.6,1-11.7-2.6-15.7   C282.3,375.3,284.9,364.9,284.2,354.3z" />
	<path fill="#1C1B19" d="M519.5,115.8c-0.5,0.5-0.9,0.9-1.4,1.4c-2.9,0.7-1.1,2.8-1.2,4.3l-0.6,0c-0.6-1.6-1.2-3.2-2-5.4   c-0.3,1.2-0.5,2-0.6,2.8c-0.7-0.8-1.4-1.6-2.5-2.9c-0.6,6.6,0.1,12.5,1.4,18.3c-1.9,1.6-1.7,3.9-1.8,6.2   c-3.2-8.8-2.7-18.1-3.1-27.2c2,0.2,4.2,2,5-0.8C514.5,114.7,517.3,114.1,519.5,115.8z" />
	<path fill="#211A18" d="M397.8,571.5c0.6-0.6,1.2-1.1,1.9-1.7c6.5,3.9,13.1,7.4,20.2,9.9c-1.5,0.6-3.7-0.6-4.6,1.7   C408.7,579.4,402.7,576.3,397.8,571.5z" />
	<path fill="#4F4941" d="M321.4,509c-0.7-1.5,0.5-3.7-1.5-4.7c-0.1-1.6-0.5-3.3,1.1-4.5c0.5,0.5,1,1,1.5,1.5   C322.7,503.9,322.8,506.5,321.4,509z" />
	<path fill="#4F4941" d="M319.9,518.9c-0.1-2.1-1.2-4.4,1-6.2C320.6,514.8,320.3,516.9,319.9,518.9z" />
	<path fill="#3E3E3E" d="M318.2,539.9c0.6-0.6,1.2-1.3,1.8-1.9c1.3,1.2,2.2,2.5,1.1,4.3C319.1,542.6,318.6,541.3,318.2,539.9z" />
	<path fill="#1B1916" d="M294.1,514.2c2.2,1.2,1.1,3.2,1.2,5C294.8,517.5,294.4,515.8,294.1,514.2z" />
	<path fill="#4F4941" d="M322.7,488.8c0.1-0.4,0.1-0.8,0.2-1.2c0.3,0.4,0.6,0.7,0.9,1.1C323.5,488.8,323,488.8,322.7,488.8z" />
	<path fill="#F6D9C7" d="M447.2,105.6c2.5,4.4,6.5,7.3,10.3,10.2c-0.7,4.2-1.9,8.4,1.1,12.3c2.1-5.1,2.1-5.1,1.4-11.2   c3.4-1.6,8,2.2,11.6,2.7c-4.9,41.4,7.6,80.9,11.8,121.9c-3,23.1-12.9,45.9-6,69.2c1.6,19.4-3.1,39,1.2,58.3   c7.4,38.1,44.9,128.9,13.4,157.8c-15.7,9.2-39,12.1-53.9,0.4c-14.5-67.5,6.5-136.7-2.7-204.9c2.6-2.5,3.2-6.6,7.6-7.9   c2.9,3.9,3.7,10.2,8.1,12.7l0,0c0.3,2.1-0.4,4.7,1.9,5.7c5.9-24.3-10.7-41.5-14.7-64.4c-5.5-47,4.5-93.6,8.2-139.7   C445.3,122.3,443.2,110.2,447.2,105.6z M458.9,383.2c1-5.4-0.6-13.6-3.3-18.4C452.6,369.9,457,377.8,458.9,383.2z M451.1,338.9   c-0.2,4.8-1.9,10.1,2.3,11.7C454.6,344.3,454.5,343.6,451.1,338.9z M465.5,253.6c3.1-6.1,3.4-8.3,1.6-13.9   C465.5,244.4,464.5,248.3,465.5,253.6z M458.5,129.8c-1.6,2.3-2.1,4.5-1.2,7.3C461.2,133.4,461.4,132.6,458.5,129.8z M460.1,388.7   c-1,2.3-0.9,4.5,0.1,6.7C463.4,395.7,463.4,388.8,460.1,388.7z M471.8,322.6c-3,3.5-3,5.3-0.2,7.3   C473,327.7,472.8,325.5,471.8,322.6z M458.1,140.4c0,3.3,0,5,0,7.2C460.6,144.6,460.6,144.6,458.1,140.4z M466.8,232.2   c2.2-2.1,4.4-4.9,0.2-4.8C467,228.6,467,229.8,466.8,232.2z M461.5,401.7c-1,1.4-0.2,4.4,1.6,3.1   C463.7,403.3,462.8,402.6,461.5,401.7z M468.9,223.6c0.9-1.1,0.2-2.1,0.2-3.4C466.8,220.1,467.2,222.9,468.9,223.6z M468.1,342.3   c2-1.3,2.5-2.9,0.3-4.8C468.3,339.4,468.2,340.9,468.1,342.3z M468.1,209c-0.5,0-0.9,0-1.4,0c0.1,1.2,0.1,2.4,0.3,4.5   C469.1,211.6,468.8,211.2,468.1,209z" />
	<path fill="#F6D9C7" d="M507.6,113.3c-3.4,51.8,30.6,97.8,26.6,148.4c-1.2,21.3-13,42.4-7.9,63.6c21,49.4,27.3,103,34.2,155.7   c1.6,13.1,8.4,38.7-13.3,36.1c-15.1-10.2-22.6-29.9-39-38.6l0,0c-5-49-20-102.6-10.1-150.9c5.3,19.6,8.2,41.6,7.4,61.5   c3.4,2.7,1.5,6.6,5.3,9.3c2.3-28.9,3.9-60.7-8.3-87.6c-1.7-0.6-3.2-1.1-4.9-1.7c-5.1-14.1-8.4-30-3.1-44.2   c6.2,4.4,6.1,15.7,14.4,17.7c3.1-15.6-14.2-27.4-12.3-43.6c-3.8-13.9-2.6-28.9-2.9-43.3l-0.1,0c8.9-12.7,5-31.6,5.9-46.8   c-3.3-3.8,2.8-9.9-1.6-12.7c0,0,0,0.1,0,0.1c-1-5.5,2.4-13-1.5-17.3l0,0.1C495.7,111.5,503.5,116.3,507.6,113.3z M516.8,294.2   c-0.1,1.5,0.1,2.8,2.3,2.5c0.9-1.5,0.3-2.8-0.6-4.1c-0.5-0.3-1-0.5-1.6-0.8C516.8,292.6,516.8,293.4,516.8,294.2z M518.7,263.2   c3.1-3.9,4.5-16.9,0.3-19.4C518.7,248,514.8,261,518.7,263.2z M521.8,313.3c1.2-5.4,1-10.7-3.5-13.5   C518.1,305,518.2,309.2,521.8,313.3z M514.5,206.6c0.9-4.9,0.9-4.9-2-6.2C512.2,202.9,511.8,205.1,514.5,206.6z M514.5,214.1   c-1.3,2.6-1,4.3,1.3,6.2C517.4,217.3,516.1,216.7,514.5,214.1z M514,288.1c3.4-0.8,1.8-3.5,0.7-5.2c-0.3,0.1-0.6,0.2-0.9,0.3   C513.9,284.7,513.9,286.4,514,288.1z M519.5,232.4c-2,2.4-1.9,3.5,0,5.4C519.5,235.8,519.5,234.6,519.5,232.4z M518.1,222.2   c-1.9,2.7-2.1,3.9,0,5.1C518.1,225.8,518.1,224.7,518.1,222.2z" />
	<path fill="#E1C7B6" d="M451.3,330.5c-0.1-1.1-0.2-2.3-0.3-3.4c1.5-0.5,2.2-1.2,0.2-2.9c-0.1,1.3-0.2,2.1-0.2,2.9   c-4.3-2.5-5.2-8.8-8.1-12.7c-4.4,1.3-4.9,5.4-7.6,7.9c9.1,68.2-11.8,137.4,2.7,204.9c-59.5-35.2-5.3-137.8-10-192.4   c0.1-61.7-5.4-125,8.1-185.9c4.2-17.2-3.9-39.1,7.1-53.6c2.8,2.8,2.9,6.6,4,10.2c-4,4.6-1.9,16.8-0.8,23.1   c-3.7,46.1-13.7,92.8-8.2,139.7c4.3,22.5,18.3,37.3,15.5,61.6C453,330.2,452.1,330.3,451.3,330.5z" />
	<path fill="#E1C7B6" d="M498.2,114.3c-2.2,0.9-1.2,3-1.8,4.6c-0.7,0-1.4,0.1-2.4,0.2c-0.3,5,1.2,9.7,1.7,14.6   c0.9,0.1,1.6,0.2,2.3,0.3c0,0.7,0,1.4,0,2.2c-3.1,3.1-3.1,3.8-0.3,5.3c1.3-1.8,0.7-3.6,0.2-5.4c4.4,2.9-1.7,9,1.6,12.7   c-0.8,0-1.6,0-2.6,0c0,2.4,0,4.5,0,7.3c1.3-0.9,2-1.3,2.6-1.8c0.5,10.8-0.2,21-1.5,31.6c-0.8,0.3-1.7,0.5-2.5,0.8   c0.4,0.7,0.8,1.4,1.2,2.1c0,2.8-0.3,5.4-3.2,6.9c-0.6-0.5-1.2-1.1-2.4-2.1c-0.1,1.6-0.1,2.5-0.2,3.6c1.1-0.7,1.9-1.2,2.6-1.6   c0.3,14.3-0.8,29.4,2.9,43.3c-2,16.3,15.4,28,12.3,43.6c-8.3-2-8.2-13.3-14.4-17.7c-5.2,14.2-2,30.1,3.1,44.2   c1.7,0.6,3.2,1.1,4.9,1.7c12.2,26.9,10.6,58.7,8.3,87.6c-3.8-2.7-1.9-6.6-5.3-9.3c1.2-4,1.2-4-0.2-9c3.3,0.6,3.2-3.3,0-2.9   c0-2.4,0-4.9,0.1-7.3c0.7,0,1.4,0,2.1,0c2.1-1.6-0.2-6.8-2.3-4.1c-3.3-12-2.2-26.2-7-38.2c-8.4,31.7,0.3,68.6,2.8,101.3   c-32.1-69.9-13.4-145.4-12.5-218.4c-3.6,1-2.1,4.4-4,6.2c-6.6-32.9-10.6-65.9-8.7-99.5c4-4.7,7.9-9.4,12.2-14.5   C490,107.6,496.3,109.6,498.2,114.3z M504.6,343.8c4.1-0.4,2-20-1.8-20.6C502,328.2,502.7,336.3,504.6,343.8z M505.7,352.5   c-1,2.7-1.4,4.8,0.2,7C506.9,356.1,506.9,356.1,505.7,352.5z M490.5,202.2c-2-0.3-2.8,3.3-0.7,3.5   C490.5,204.6,491.5,203.5,490.5,202.2z" />
	<path fill="#FF9A77" d="M534.9,510.3c3.5,8.2,11.3,10.2,19.2,12.7c2.3-1.2,4.9-2.7,8-4.3c-2.1,27.3-19,48.1-47.8,37.8   c-0.8-1.7-1.5-3-1.7-3.4c0.6-6.2,1.2-8.1,0.8-14.1c-1.5,2-2.1,2.8-2.7,3.7c-5.8,1.5-9.9,9-14.1,12.2c-18.4,6.1-66.1,5.4-59.5-22.4   c24.2,12.5,64.5,6.2,69.8-25c0.7,0,1.3,0,1.9,0c2.1,5.6,1.9,11.8,4.9,18.4c1.1-9.2-0.2-16.6-3.9-23.6c0.1-0.6,0.2-1.3,0.2-1.9   c0.9,0.3,1.7,0.5,2.4,0.7c-0.1,2.1,1,3.4,2.8,4.3c0.3,0.2-0.2,1.6,0.9,0.6c-0.4-0.2-0.7-0.3-1.1-0.5c0.1-2.1-0.8-3.6-2.8-4.4   c-0.6-1.3-1.1-2.7-1.7-4c0.5-0.5,1-1,1.4-1.6c1,1.1,1.6,2.9,3.7,2.1c0.3-2.1-1.2-4.3-3.5-3.8l0.1,0.1c-0.5-0.5-1-1-1.6-1.6l0.1,0.1   c-0.5-0.5-1-1-1.6-1.6l0.1,0.1c-0.5-0.5-1-1-1.6-1.6l0.1,0.1c-1.6-2.9-3.4-7.3-0.1-9.6C517.8,489.6,526.1,500.1,534.9,510.3z    M513.8,530.9c-2.4,2.8-3.7,4.7-0.5,5.6C513.5,534.8,513.6,533.2,513.8,530.9z" />
	<path fill="#E1C7B6" d="M283.8,401.4c-1.3-13.1,3.4-25.5,3.1-38.5l0,0c1.4-1,1.6-2.5,1.6-4.1c1.2,0.8,2.5,1.5,4.5,2.8   c-0.8-4.2,0.3-8.9-4.7-8.8c-2.7-24.6-7.9-52.5-7.2-75.6c2.1,2.3,1.9,6,4.7,8.5c0.4-4.6-2.5-12.8-8.7-13.9   c-15.9-46.8-10.9-98.5-26-146c2-6.1,0.3-12-0.8-18.3c6-1.3,11.9,1.2,17.8,1.3c0.1,3.4,2.8,6.8,1.8,9.9c-3.5,0.2-6.3-0.2-9.8-1.3   c1,5.6,9.3,5.6,6.1,12.1c-2.2,0.4-4.2,0.8-6.2,1.2c-1.7,18,9.4,33.6,9.8,51.3c4.4,22.4,1,45.8,9,67.5c1.8,13.7,15.2,23.1,13.1,37.2   c-0.4,0.2-1.5,0.7-2.2,1.1c8.4,20.4,4.7,42.4,7.9,63.3c-2.6,9.1,7.6,17.7,2.1,27.1c-1.2-0.7-2.4-1.3-3.9-2.1   c-7.6,14.3-1.9,27.7,1.9,42.5c4.1,6.8,20.4,14.4,16.6,23.5c-0.2,0.3,0.8,1.4,1.2,2.1c-2.9,2.8-6.2,5-10.5,5.9   c-3.1-4-4.2-8.8-5.9-13.4c1.1-0.8,1.8-1.3,2.8-2C290.9,426.9,286.6,414.1,283.8,401.4z M292.8,366.8c0.4,0,0.7,0,1.1,0   C293.7,364.3,292.9,364.2,292.8,366.8z" />
	<path fill="#F6EECF" d="M409.6,13c-0.5-1.8-1.1-3.6-1.7-5.8c19.5-4,43.1,3.2,57.1,17.6c6.7,7,5.6,18.6,12.3,24.8   c7.5,2.9,10.7,10.6,17.8,13.4c1,1.4,2,2.8,3,4.3c-0.1,1.2,0,2.3,1.3,2.8c0.1,0.5,0.2,0.9,0.4,1.4c-15.8,16.1-40.1-6.8-51.5-19.9   c-13.1-11.7-31.7-17.1-39.3-34c1.7,0.5,2.6,0.9,3.6,1.2c0.3,0.5,0.5,0.9,0.8,1.4c0.1-0.2,0.3-0.3,0.4-0.5c-0.4-0.2-0.9-0.5-1.3-0.7   C412.9,16.2,411,14.7,409.6,13z M482.4,60.1c-3.9-2.2-6.8-6.2-12.2-5.7c3.4,6.4,11.6,13.4,18.1,15.5c-0.7-1-1.3-1.8-1.8-2.5   c0-0.5,0-1,0-1.5c2.1,1.1,3.6,2.4,5.3,4.2C494.3,64.7,485.2,63.3,482.4,60.1C482.4,60.1,482.4,60.1,482.4,60.1z M445.6,34.7   c-4-8.2-17.4-19.5-28.7-18.7C424.9,23.2,436.4,28.3,445.6,34.7z M431.6,12.8c6.7,8.7,19.8,8.8,24.3,20.1c0.3,0.6,0.8,1.8,2.5,0.7   C454.6,21.9,444.1,16.6,431.6,12.8z" />
	<path fill="#EBDDB8" d="M448.3,51.6c1.4,1.5,2.7,2.9,4.1,4.4c-0.7,0.1-1.3,0.2-2,0.3c2.3,12.5,17.3,18.7,27.8,23.5   c0.8,12.9-7.7,24-17.2,31.6c-13.8,0.4-7.7-20.7-20.5-20.2c-10.2-17.1,0.2-33-17-49.4c0.6-0.6,1.2-1.2,1.9-1.9   c7.9,3.1,13.9,9.3,21.3,13.5C447.5,52.6,447.9,52.1,448.3,51.6z" />
	<path fill="#90A1C3" d="M298.3,103c0.6-1.3,1.1-2.6,1.9-4.4c44.7,5.8,89.1,11.8,133.7,18.4c0,1.9,0,3.2,0,4.6   C388.7,115.9,342.6,112.1,298.3,103z" />
	<path fill="#788AB1" d="M298.3,103c44.3,9.1,90.5,12.9,135.6,18.5c0,1.2,0,2.3,0,3.8c-43.2-3.8-86.4-11.1-129.5-16.2   c-3.9-1.3-11.4,1.3-12.5-3.8C294,104.5,296.1,103.8,298.3,103z" />
	<path fill="#F3EBCC" d="M512.6,74.3c4.9,1.7,9.8,3.8,15.1,1.8c0.4,3-2.1,4-3.8,5.6c-0.8-0.9-1.6-1.8-2.8-3   c-0.9,1.6-1.9,2.6-1.7,4.4l0.1-0.1c-5.8,7.7-10.2,16-11.6,25.7c-1.7,0.9-2.8,1.4-4.9,1.7c-2.9-1.2-6-3-8.1-5.8l0,0   C505.7,97.9,505.7,83.5,512.6,74.3z" />
	<path fill="#E7DAB5" d="M512.6,74.3c-6.9,9.2-6.9,23.7-17.5,30.3c-2-2.4-4-4.8-6.4-7.7c3.7-6.7,8.1-13.1,14.9-17.1   c-0.5-0.3-1-0.6-1.6-0.8c0,0,0.1,0.1,0.1,0.1c0.6-1,1.2-2,1.8-3.1c0-2.9,0-5.8,0-8.7c0,0-0.1,0.2-0.1,0.2   C506.7,69.7,509.6,72,512.6,74.3z" />
	<path fill="#F1E9CB" d="M461,111.4c9.5-7.6,18-18.8,17.2-31.6c2.9,0.4,5.8,0.3,9.2,1.4c-4.8,7.5-14,18.4-12.7,25.1   c3.7-1.9,4.5-5.6,6.5-8.9c0.8,0.5,1.7,0.9,2.5,1.4c0,0.5,0,0.9,0,1.4c-1.3,0.6-1.4,1.7-1.2,2.9C477.8,112.1,470.7,118.5,461,111.4z   " />
	<path fill="#141312" d="M292.9,111.7c-2.5,7.2-8,10.7-13.9,15.1c-0.4,17.2,6.7,32.7,10.6,49c-1.5,0.6-1.2,2-1.5,3.2   c-7.9-24.2-23.2-48.6,1.3-67.3C290.6,111.7,291.7,111.7,292.9,111.7z" />
	<path fill="#171615" d="M426.6,251.5c2.6,24.8,1.2,49.4,0,74.2c-3.6-2.6,0.9-7.5-2.7-10c0.6-18.1,1.8-36-0.1-54.3   C427.6,259.1,423,254,426.6,251.5z" />
	<path fill="#211815" d="M534.9,510.3c-8.8-10.2-17.2-20.7-26.9-30c0-0.6,0.1-1.3,0.1-1.9c12.1,6.8,20.4,19,28.6,29.9   C536.1,509.1,535.5,509.7,534.9,510.3z" />
	<path fill="#DEC4B4" d="M273.1,89.9c-0.8-2.8-1.6-5.7-2.4-8.7c5.4-2.4,8.1,7.7,11.8,10.6c-0.4,3.4-0.9,6.9-1.3,10.5   c-1.5-0.4-2.6-0.8-3.7-1.1C276,97.4,276.9,92.4,273.1,89.9z" />
	<path fill="#DAC1B1" d="M289.5,111.6c-2.4,3.2-4.5,6.7-8.3,8.4c-2.2-1.7-4.7-1.5-7.3-1.4c-0.6-2.8-1.2-5.6-1.9-8.7   C278,109.6,283.5,110.7,289.5,111.6z" />
	<path fill="#CAB2A3" d="M283.8,90.2c-1.6-2.5-3.2-5-4.9-7.7c6.2-2.6,7.8,5.8,10.7,9.4c0.1,4.7,0,9.3-1.5,13.8   C280.1,106.9,287.4,93.8,283.8,90.2z" />
	<path fill="#2D2B25" d="M448.3,51.6c-0.4,0.5-0.8,1-1.6,1.9c-7.4-4.2-13.4-10.4-21.3-13.5c-0.7-1.1-1.7-1.8-3.1-1.2l0,0   c-0.1-0.4-0.2-0.7-0.3-1.1c-0.4,0.3-0.7,0.6-1.1,1c-1.2-1.4-1.2-1.4-1.2-3.4c0.8-0.5,2.3,0.6,2.7-1   C431.5,39.4,440.3,44.8,448.3,51.6z" />
	<path fill="#D1CAAF" d="M483.7,98.7c-0.8-0.5-1.7-0.9-2.5-1.4c0.4-2.7,4.4-7,1.2-8.8c1-1.4,1.9-2.7,2.9-4.1   c0.1,0.9,0.3,1.8,0.5,3.6c3.6-4.7,6-9.6,11.9-9.6c0-0.9,0-1.6,0-2.3c1.1-0.5,2.5,1.9,3.4-0.4c0.9,0.1,1.8,0.2,2.8,0.3   c-0.6,1-1.2,2-1.8,3.1C492.6,79.3,487.6,91.5,483.7,98.7z" />
	<path fill="#271E1A" d="M506.9,507.6c-0.2,9-7.2,15.1-13,21.1c-0.6-0.6-1.3-1.2-1.9-1.8c8.8-8.1,16.2-20.5,11.8-32.7   C508.8,496.3,505.8,503.3,506.9,507.6z" />
	<path fill="#CDB5A6" d="M291,90.1c-1.5-3.2-3-6.3-4.6-9.7c0.7-0.2,1.5-0.5,2.6-0.8c3.1,6.5,13.3,17.5,3.7,22.5   C291.8,97.5,293.4,94,291,90.1z" />
	<path fill="#3D251D" d="M506.9,507.6c-0.1-1.6-0.2-3.2-0.2-4.8c1.1,0,2.3,1.9,3.1-0.3c3.7,7,5,14.4,3.9,23.6   c-3-6.6-2.8-12.8-4.9-18.4C508.2,507.6,507.6,507.6,506.9,507.6z" />
	<path fill="#342F2B" d="M278.3,109.9c-2.1,0-4.1,0-6.4,0c0.7,3.1,1.3,5.9,1.9,8.7c-1.5,2.7-1.6,5.4-5.2,6.1   c2.2-6.2,1.1-10-0.5-15.9C271.5,109.1,275.5,107.6,278.3,109.9z" />
	<path fill="#211815" d="M505.4,462.4c2.8,5.1-0.7,11.4,2.7,16.1c-0.8-0.2-1.7-0.4-2.7-0.7C505.4,472.5,505.4,467.4,505.4,462.4z" />
	
	<path fill="#BD7258" d="M512.1,495.8c-0.5,0.5-1,1-1.4,1.6c-1.7-2.1-3.4-4.2-5.5-6.8c1.5-0.3,2.2-0.4,3-0.6c0,0-0.1-0.1-0.1-0.1   c0.5,0.5,1,1,1.6,1.6l-0.1-0.1c0.5,0.5,1,1,1.6,1.6l-0.1-0.1c0.5,0.5,1,1,1.6,1.6l-0.1-0.1c0.2,0.4,0.4,0.7,0.4,1.2   C512.5,495.4,512.3,495.6,512.1,495.8z" />
	<path fill="#929292" d="M480.7,279.8c-0.1,4.3,3.2,7.1-0.2,11.2C479.1,285.9,479.2,285.5,480.7,279.8z" />
	<path fill="#989280" d="M422.4,38.8c1.4-0.6,2.3,0.1,3.1,1.2c-0.6,0.6-1.2,1.2-1.9,1.9C422.4,41.1,421.9,40.1,422.4,38.8z" />
	<path fill="#D1CAAF" d="M502,78.9c0.5,0.3,1,0.6,1.6,0.8c-0.5,0.5-1,1.1-1.5,1.6C502,80.6,502,79.8,502,78.9z" />
	<path fill="#D1CAAF" d="M482.4,103c-0.1-1.2-0.1-2.3,1.2-2.9C484,101.4,483.6,102.4,482.4,103z" />
	<path fill="#989280" d="M421,38.7c0.4-0.3,0.7-0.6,1.1-1c0.1,0.4,0.2,0.7,0.3,1.1C422,38.8,421.5,38.7,421,38.7z" />
	<path fill="#E7DAB5" d="M495,104.5c0.5,0.5,1,1.1,1.5,1.6C496,105.6,495.5,105.1,495,104.5z" />
	<path fill="#EF8A6A" d="M437.1,532.5c-6.6,27.7,41.1,28.5,59.5,22.4c4.3-3.2,8.3-10.8,14.1-12.2c0.6,1.3,1.6,1.5,2.9,1.2   c-0.3,2.8-0.6,5.5-1,9.2c0.2,0.4,0.8,1.7,1.7,3.4c12.1,4.4,24.4,1.8,35.5-3.6c-10.7,21.3-34.1,32.1-57.2,31.1   c0.2-3.7,7.3-4.4,4.6-8.3c-34.1,20-89.4,11.2-112.1-22.3c-0.4-7.4,0.2-14.7,1.8-21.9c0.7,1.5,1.6,2.8,2.9,3.9   c3.3-2.2,2.1-6.5,4.2-9.6c0.5,0,0.9,0,1.4-0.1c0.9,8.4-3.2,18.4,2.5,25.5c-0.1-9.2,0.1-17.6,0.6-26.6c0.7,0.1,1.3,0.1,1.9,0.2   c2.2,7.1,0.8,14.8,5.8,20.8c0.5-9.6-4.2-20.3-4.9-29.8c2.7-1.9,0.1-5-0.4-7.4c0.6-1.3,1.2-2.7,1.8-4c0.8,0.3,1.6,0.6,2.6,0.9   C412.8,483.6,403.3,506.9,437.1,532.5z M502,570c3.2-2,5.3-3.3,4.3-7C503.8,564.5,502.8,566.5,502,570z M509.8,548.1   c-1.4,1.3-1.9,1.6-0.6,2.9C510.7,550.2,510.9,549.8,509.8,548.1z" />
	<path fill="#B39E91" d="M512.5,134.3c-1.3-5.8-1.9-11.7-1.4-18.3c1.1,1.3,1.8,2.1,2.5,2.9c0.2,5.3,0.9,9.6,2.9,14.8   C515.1,133.9,513.8,134.1,512.5,134.3z" />
	<path fill="#321D16" d="M488,581.2c3.1-1.9,6.2-3.7,9.2-5.5c2.7,4-4.3,4.6-4.6,8.3C488.2,584.9,492.3,581,488,581.2z" />
	<path fill="#958478" d="M518.3,118.4c2,3.5,1.2,7.2,0.9,11.1c-2.9-2.2-2.5-5.2-2.9-7.9l0.6,0C517.4,120.5,517.9,119.4,518.3,118.4z   " />
	<path fill="#CFB7A8" d="M518.3,118.4c-0.5,1-1,2.1-1.4,3.1c0.1-1.5-1.7-3.5,1.2-4.3C518.2,117.6,518.3,118,518.3,118.4z" />
	<path fill="#928076" d="M523.4,129c0,1.2,0,2.4,0,3.6c-0.3,0-0.6,0-0.8,0c0-1.2,0-2.4,0-3.6C522.9,129,523.2,129,523.4,129z" />
	<path fill="#F6D9C7" d="M269.9,118.7c-0.4,1.8-0.8,3.5-1.3,6c3.6-0.7,3.7-3.5,5.2-6.1c2.6-0.1,5.1-0.2,7.3,1.4   c-19.1,25.4,26.4,92.4,27.1,124.5c2.5,42.5,8,84.5,20,125.4c-5,8.4,0.9,29.6,8.3,36.8c-4,13.4-8,30.2-21,37.6   c-0.4-0.7-1.4-1.8-1.2-2.1c3.8-9-12.5-16.6-16.6-23.5c-3.8-14.8-9.5-28.2-1.9-42.5c1.4,0.8,2.6,1.5,3.9,2.1   c5.4-9.3-4.8-18-2.2-27.1c-3.2-21,0.5-42.9-7.9-63.3c0.8-0.4,1.8-0.9,2.2-1.1c2.1-14.1-11.4-23.5-13.1-37.2   c-8-21.7-4.6-45.1-9-67.5c-0.3-17.7-11.5-33.3-9.8-51.3c2-0.4,4-0.8,6.2-1.2c3.2-6.5-5-6.5-6.1-12.1   C263.6,118.6,266.4,118.9,269.9,118.7z M304.2,283.1c3.8-2,3.9-9-0.3-11C303.9,276.9,303.1,278.9,304.2,283.1z M304.7,255.6   c-2,4.5-2,4.5,0.5,6.5C306,260.1,306.2,258.2,304.7,255.6z M272,135c0.1-1.9,0.1-3.7-2.2-4.8c0,2,0,3.7,0,5.7   C270.8,135.4,271.4,135.2,272,135z M271.9,151.5c-1.2,1.8-1.5,3.2,1,4.1C274,152.8,274,152.8,271.9,151.5z M272.2,137.3   c-1.8,2.6-1.8,2.6,0.5,4.3C272.6,140.1,272.4,138.9,272.2,137.3z M271.7,150.1c1.5-1.9,1.7-3.3,0-5.2   C270.7,147.2,271,147.8,271.7,150.1z M303.4,251c0.5-0.9,0.7-1.4-0.3-1.9C302.5,250,302.4,250.5,303.4,251z" />
	<path fill="#FFF0A7" d="M395.4,387c7.1,1.2,13.5,3.8,20,7.7c-1.2,8.9-4.1,17.8-5.8,26.6c-18.9,6.9-40.2,2.1-57.2-7.9   c-7.3-3.1-5.6,6.4-4.3,10.5c0.1,2.7,0.1,2.7,2.9,2.9c17.3,23.6,30.2,20.2,55.5,9.7c0.2,4.4,0.4,7.5,0.4,11.7   c-17,4-33.6,8.6-48.9,17.2c-11.6-6.8-20.7-18.6-28.3-29.8c7.8-16,12.8-33.5,11.3-51.4c0.6-0.5,1.1-1.1,1.7-1.6   c13.7,8.3,31,7.6,45.5,14.3c3.9,1.7,8.1,1.8,12.3,0.8c1-3.9-1.5-7.1-5-7.9c-0.5-0.5-0.9-1-1.4-1.5   C394.5,387.9,394.9,387.5,395.4,387z" />
	<path fill="#E1C7B6" d="M388.7,510.1c-5,12.4-7.7,24.9-7.6,38.4c-12.9-13-26.6-25.1-41-36.7c-16.5-12.8,2.2-36.6,18.1-40.6   c2.9,1.9,5.5,3.1,7.5,6.2c-3.1,1.2-5.7,2.1-8.2,3.1c2,5.9,9.6,1.4,11.7,7.3c-0.6,1-1.2,2-2.3,3.8   C375.1,496.5,381,504.7,388.7,510.1z" />
	<path fill="#F5D9C7" d="M388.7,510.1c-7.7-5.4-13.6-13.6-21.9-18.5c1.1-1.8,1.7-2.8,2.3-3.8c-2-5.8-9.7-1.4-11.7-7.3   c2.6-1,5.1-1.9,8.2-3.1c-2-3.1-4.6-4.3-7.5-6.2c15.3-8.3,31.3-15.1,48.2-19.3c3,13.3,0.3,27.3,0.2,40.8   C397.9,495.6,393.2,502.9,388.7,510.1z M381.8,480c1.9-3.1,12.5-8.2,9.3-11.3C387,471.4,383.1,474.4,381.8,480z M390.8,480.7   c-2.1-0.4-2.9,0.1-2,2C389.6,481.9,390.2,481.3,390.8,480.7z" />
	<path fill="#EAD98F" d="M329.7,435.7c7.6,11.2,16.8,23,28.3,29.8c-11.8,6.3-22.6,13.2-27.9,26.8c-3.4-4.1-5.3-9-6.6-14.4   c-3.6-8-13.8-13.7-15.3-22.9c4.9-2,9.4-4.9,12.9-9.2c4.2,5.4,3.8,10.7,8.7,16.1c-0.8-7.9-4-13.2-5.9-19   C325.9,440.4,327.8,438.1,329.7,435.7z M333,469.2c0.2,0,0.4,0,0.6,0c0-0.7,0-1.4,0-2.1c-0.2,0-0.4,0-0.6,0   C333,467.8,333,468.5,333,469.2z" />
	<path fill="#EBDA8F" d="M406.9,444.6c-0.1-2.5-0.2-5.1-0.4-8c-1.5,0.1-3,0.2-4.4,0.3c-0.1-3.3,8.2-6.8,3.5-9.3   c-9.7,16.5-33,15.6-46.8,4.2c-0.3,1.2-0.5,1.8-0.7,2.5c-0.9-1-1.8-2-2.7-3c0.5-0.7,1.1-1.3,1.6-2c-2-1.2-3.4-1.7-4.3,0.6   c-3.3-0.9,0-6.4-4.6-5.9c-8.4-28.8,24.8,12.9,61.4-2.6C408.6,429.1,408.7,436.9,406.9,444.6z" />
	<path fill="#F3D6C5" d="M411,358.5c5.8-6.4,7.8-12.6,12.3-20.3c1.4,17.1-0.7,32.4-5.3,47.4c-0.9,0.5-1.7,0.9-2.6,1.4   c-0.4-0.5-0.8-1-1.5-1.9c-1,1.1-1.8,2-2.4,2.7c-8.2-2.6-15.9-4.4-23.7-8C392.4,369.8,405.4,367.9,411,358.5z M413.1,378.4   c-2,1.5-1.9,2.9,0.1,4.4C415.4,381.3,414.6,379.8,413.1,378.4z" />
	<path fill="#D2BC9D" d="M298.5,494.1c-0.1-15.9-4.6-33-1.8-48.2c11.5,22.4,6.7,49.3,6.8,74.1C299.7,511,301.6,502.3,298.5,494.1z" />
	<path fill="#1C1512" d="M437.1,532.5c-10.8-10.1-23.9-20.4-27.3-35.6c1.8-2.5,1-5.5,1.2-8.4c4,27.5,31.8,50.2,59.9,45.8   C459.6,536.5,447.3,539.3,437.1,532.5z" />
	<path fill="#CCB698" d="M312.5,502.7c-1.8,0.9-1.4,2.7-1.7,4.2c-0.8,0.5-1.5,0.9-2.3,1.4c-1.8-15.6-1.9-31.2-3.1-46.9   c2.4,2.5,4.7,5,5.7,8.5l0-0.1C308.8,479.6,314.6,491.8,312.5,502.7z" />
	<path fill="#1B1916" d="M296.7,445.9c-2.9,13.8,1.7,29.5,1.4,44c-0.8-0.5-1.6-0.9-2.4-1.4c-1-4.9,0.6-9.8-1.6-14.7   c0,3.9-0.1,7.9-0.1,11.8c-0.4,0-0.8-0.1-1.2-0.1c-1.4-13,0.7-26.6-1-39.4c-0.6-0.1-1.3-0.2-2-0.3c-0.3-5.6-0.1-11.2-0.1-16.4   c2-0.9,2.4-0.2,2.7,0.8c-3,3.1-1.6,10,0.9,13.3c0.8-1,1.4-1.7,2-2.4C295.8,442.7,296.3,444.3,296.7,445.9z" />
	<path fill="#D7BEAE" d="M333.8,404.2c-1.7-2-2-4.6-2.8-7c0.8-0.1,1.5-0.3,2.9-0.5c-1-1.2-1.6-1.8-2.5-2.9c-0.2,1.6-0.3,2.5-0.4,3.4   c-1.8-2.2-2.5-4.7-2.7-7.4c0.8,0.5,1.7,1,3.2,1.9c0.8-5.6-2.9-12.8,1-16c1.5,1.3,3,2.6,4.5,3.9c2.1,6.7,1.2,13.6,1.4,20.5   C336.3,402,333.3,400.6,333.8,404.2z" />
	<path fill="#22201F" d="M411,358.5c-5.7,9.3-18.6,11.3-23.3,21.3c2.4,1,4.4,1.9,6.5,2.7c-2.6,0.9-10.2-1.9-9.5,2.4   c0,0.1-0.7,0.5-1,0.8c-0.9-0.5-1.8-1-2.7-1.5c0-1,0-2,0-3c6.9-8.8,16.3-14.3,24.3-21.7c1.2,0.2,2.4,0.7,2.8-1.2   C409.1,358.4,410.1,358.5,411,358.5z" />
	<path fill="#4A4338" d="M305.4,461.4c1.4,16.7,1.3,33.6-1.2,49.9c0.2-17.7-0.8-35.3-1.5-52.9C303.6,459.4,304.5,460.4,305.4,461.4z   " />
	<path fill="#A8634C" d="M389.9,535.3c-1.3-1.1-2.2-2.4-2.9-3.9c1.4-8.6,4.1-16.7,8.5-24.3c0.5,0.5,1,1,1.5,1.5   C393.9,517.2,388.3,526,389.9,535.3z" />
	<path fill="#95856F" d="M289.8,445.8c0.7,0.1,1.3,0.2,2,0.3c1.5,10.5,0.1,21.7,0.6,32.5c-0.5,0.5-0.9,1.1-1.4,1.6   c-1.5-1.3-1.1-3-1.1-4.6C293.6,466.3,289.3,455.2,289.8,445.8z" />
	<path fill="#E4CFB1" d="M320.9,499.7c-2.1,1.6-0.5,3.9-1.5,5.8c-0.4,0-0.8,0-1.2,0c0-8.1,0.1-16.2,0.1-24.2   c0.5-0.1,1.2,0.1,1.7-0.1C321.8,487.2,320.6,493.6,320.9,499.7z" />
	<path fill="#534B40" d="M318.3,481.3c0,8.1-0.1,16.2-0.1,24.2c-2.3-9.6-1.5-20.2-2.5-30.1c1.6,1.3,3.6,2.2,4,4.5   C318.7,479.9,318.2,480.4,318.3,481.3z" />
	<path fill="#211F1A" d="M338.4,400c0-4.8,0-9.6,0-14.4c0.5-0.6,1-1.2,1.5-1.8c0.3,0.2,0.7,0.3,1.1,0.5c-0.2,7.2,1.3,14.7-1.2,21.6   C339.8,403.8,339.9,401.7,338.4,400z" />
	<path fill="#47422C" d="M324,442.8c1.9,5.8,5.1,11.2,5.9,19c-4.9-5.4-4.5-10.7-8.7-16.1C322.1,444.8,323.1,443.8,324,442.8z" />
	<path fill="#9B5A45" d="M400.9,508.3c0.5,2.4,3,5.5,0.4,7.4c-0.3-0.3-0.6-0.6-0.9-0.9c-0.3,0.7-0.6,1.4-0.8,2.2   c0,0,0.1-0.1,0.1-0.1c-1.9,1-1.3,2.8-1.5,4.4l0-0.1c-0.9,1.4-1.8,2.9-2.7,4.3c-0.5,0-0.9,0.1-1.4,0.1   C395.4,519.5,397.5,513.7,400.9,508.3z" />
	<path fill="#342E2A" d="M383.7,385.7c2.1-1.1-0.5-3.3,3-2.9c1.4,1,2.9,1.8,4.4,2.5c-2.7,2.1,3.7,2.4,4.3,4.6   c-0.5,0.4-1,0.9-1.5,1.3C390,390.5,386.9,388,383.7,385.7z" />
	<path fill="#B4A186" d="M289.9,454.3c1.9,5.9,2.2,15.4,0,21.2C287.1,468.8,289.9,461.4,289.9,454.3z" />
	<path fill="#AC9A81" d="M295.3,441.1c-0.6,0.7-1.2,1.4-2,2.4c-2.5-3.3-3.9-10.2-0.9-13.3C293.5,433.8,295.3,437.3,295.3,441.1z" />
	<path fill="#D4C0A4" d="M315.7,475.5c-0.6,4.3,1.1,9.3-1.4,12.9c-0.9-5.7-1.8-11.3-1.7-17.1l-0.1,0   C315,471.6,315.2,473.7,315.7,475.5z" />
	<path fill="#C06F55" d="M408.1,496.9c-0.1,3-1.4,5.6-2.7,8.3c-1-0.4-1.8-0.6-2.6-0.9C403.2,500.9,405.3,498.6,408.1,496.9z" />
	<path fill="#43271E" d="M389.9,535.3c-0.2-3.3-1.2-6.7,1.1-9.8c0.4,1.4-0.7,3.4,1.4,4.3C392.5,532,391.8,534,389.9,535.3z" />
	<path fill="#5F372A" d="M397,508.6c-0.5-0.5-1-1-1.5-1.5c1.3-2.4,2.5-4.9,4.8-6.8C401.3,503.3,398,505.8,397,508.6z" />
	<path fill="#978B82" d="M394.1,388.4c-1.2-0.7-5.4-1.5-2.9-3.1c1.4,0.6,2.8,1.1,4.2,1.7C394.9,387.5,394.5,387.9,394.1,388.4z" />
	<path fill="#A18F84" d="M415.5,387c0.9-0.5,1.7-0.9,2.6-1.4c-0.5,1.7-1.1,3.4-1.6,5c-0.2,0-0.5-0.1-0.7-0.1   C415.6,389.4,415.5,388.2,415.5,387z" />
	<path fill="#F3D6C5" d="M409.3,358.4c-0.3,0-0.9,0-1.1,0c-0.1-1.2,0.1-2.3,1.6-2.6C409.6,356.7,409.4,357.6,409.3,358.4z" />
	<path fill="#4F4941" d="M320.9,484.4c-0.3-1.1-0.6-2.2-0.9-3.2C321.3,482,321.3,483.2,320.9,484.4z" />
	<path fill="#1B1916" d="M295.2,438.9c-0.3-1.1-0.6-2.2-0.9-3.3C295.7,436.4,295.4,437.7,295.2,438.9z" />
	<path fill="#F3D6C5" d="M409.7,355.8c0.3-0.5,0.6-1,0.9-1.5C410.3,354.8,410,355.3,409.7,355.8z" />
	<path fill="#D4C0A4" d="M318.3,481.3c-0.1-1,0.3-1.5,1.3-1.4c0,0.5,0,0.9,0,1.4C319.3,481.3,318.6,481.3,318.3,481.3z" />
	<path fill="#CCB698" d="M311.1,469.9c0.5,0.5,0.9,1,1.4,1.4c0,0,0.1,0,0.1,0C312.1,470.8,311.6,470.3,311.1,469.9   C311.2,469.8,311.1,469.9,311.1,469.9z" />
	<path fill="#201D1C" d="M288.5,358.8c0,1.6-0.1,3.1-1.6,4.1c0-5.4,0.1-10.7,0.1-16.1C288,350.8,288.5,354.7,288.5,358.8z" />
	<path fill="#110F0E" d="M282.6,275.7c3.3,5.4,3.3,5.4,3.2,10c-2.9-2.5-2.6-6.2-4.7-8.5C281.6,276.7,282.1,276.2,282.6,275.7z" />
	<path fill="#F6EECF" d="M530.4,72.7c-11.2,4.2-16.9-5.6-26.1-8.6c-0.2,1.1-0.4,2.2-0.6,3.3l0.1-0.2c-4.6-4-7.8-10.7-14.4-11.4   l0.2,0.2c-0.5-1-0.9-2-1.4-3c0.5-5.6-3.6-7.5-7.2-9.7c-1.2,0.4-2,0.8-2.9,1.1c-1.7-8.3-8.1-15.4-10-22.9c1.1,0.1,1.9,0.9,2.9,1.4   c0.8-0.1,1.7-0.2,3-0.3c-1.8-3.4-5.5-5.5-8.3-4.4c-0.1,0.6-0.3,1.2-0.4,1.9c-6.7-3.6-10.4-9-17.8-12.7c19.1-5.3,40.2,2.2,54.3,15.8   c0.8,5-1,12.2,4.7,14.5c0.8,1.4,1.7,2.8,2.6,4.3C518.7,47.3,541.6,60.2,530.4,72.7z M512.2,51.7c-3.2-3.5-6.5-6-11.1-3.1   c1.8,4.2,6.9,5.3,10,8.6c2.2,1.8,3.4,4.8,6.6,5.7c0.7-4.7-2.3-6.9-5.1-10.3C512.6,52.1,512.5,51.9,512.2,51.7z M475.6,11.4   c-3.1-1.5-6.1-3.9-11-1.8c9.3,6,17.1,10,26.2,16.7C489.8,18,482.2,14.5,475.6,11.4z" />
	<path fill="#444239" d="M459.8,17c1.8,1.1,3.7,2.2,5.5,3.2l-0.1-0.1c0.5,1,1,1.9,1.5,2.9c-0.6,0.6-1.2,1.2-1.7,1.8   c-2.5-1.8-3.6-5.2-7-6C458.6,18.2,459.2,17.6,459.8,17z" />
	<path fill="#A4927A" d="M291,480.1c0.5-0.5,0.9-1.1,1.4-1.6c0.4,2.7-0.1,5.6,0.9,8.1c0.2-0.4,0.5-0.7,0.7-1.1   c0.4,0,0.9,0.1,1.3,0.2c-0.1,5.8-1,13.5-4.1,18.4c-1.1,0.3-2.1,0.2-3.3,0C292.8,497,290.9,488.2,291,480.1z" />
	<path fill="#B39F85" d="M295.6,505.2c0-2.5,0-5.1,0-7.6c0.8,0.8,1.7,1.6,2.5,2.3c0.2,3.3,0.3,6.5,0.5,9.8c-0.7,1.3,0.5,3.4-1.5,4.3   C296,511.1,297.5,508,295.6,505.2z" />
	<path fill="#1B1916" d="M298.1,499.9c-0.8-0.8-1.7-1.6-2.5-2.3c0.1-2.9,0.1-2.9,2.9-3.5c1.5,1.7,1.1,3.8,1.1,5.8   C299.1,499.9,298.6,499.9,298.1,499.9z" />
	<path fill="#6A5F4F" d="M297,514c2-0.9,0.8-2.9,1.5-4.3c2,3.4,0.9,7.1,0.8,10.8C298.1,518.5,296.8,516.5,297,514z" />
	<path fill="#867864" d="M308.5,508.3c0.8-0.5,1.5-0.9,2.3-1.4c0,2.8,1.1,5.9-0.9,8.3C309.4,512.9,309,510.6,308.5,508.3z" />
	<path fill="#1B1916" d="M295.6,505.2c1.5,2.3,1,5,1,7.5C294.8,510.6,295.6,507.8,295.6,505.2z" />
	<path fill="#1B1916" d="M292.6,502.7c0.4-2,0.8-4.1,1.2-6.1C293.7,498.7,295.1,501.1,292.6,502.7z" />
	<path fill="#1B1916" d="M294.3,492.7c0.3-0.7,0.6-1.3,0.9-2C294.9,491.4,294.6,492.1,294.3,492.7z" />
	<path fill="#1B1916" d="M291.2,504.2c0.5-0.5,0.9-0.9,1.4-1.4C292.1,503.2,291.6,503.7,291.2,504.2z" />
	<path fill="#D8BFAF" d="M253.8,87.4c-2-2.5,1.5-4.7,2.4-7.1c3.2,0.2,6.3,0.3,9.7,0.5c1.4,3.2,4.5,5.5,5.3,9.3   c-2.9,0.3-5.3-0.8-7.2-2.9l0.1,0.1c-2.2-2.8-3.7-3.4-6.3-2.5c0.2,0.4,0.3,0.7,0.5,1.1C257.3,88,255.3,86.9,253.8,87.4z" />
	<path fill="#BBA598" d="M253.8,87.4c1.5-0.5,3.5,0.6,4.5-1.5c1.9,0.5,3.9,0.9,5.8,1.4l-0.1-0.1c-2,3.3-6.5,1-9.7,1.3   C254.1,88.2,253.9,87.8,253.8,87.4z" />
	<path fill="#766958" d="M287.9,504.1c0.7,0.1,1.4,0.2,2.1,0.3c-1,1.2-1.9,2.6-4.3,2.1C286.5,505.6,287.2,504.8,287.9,504.1z" />
	<path fill="#BBAA91" d="M314.3,488.4c2.1-1.6,0.5-4.1,1.3-6c2.9,7.4-0.6,16,2.5,23.2c0.4,0,0.8,0,1.2,0c0.2,4.5-1.7,8.8-2.4,13.2   c-0.2-2.7-0.3-5.4-0.5-8.1c-0.3,0-0.5,0-0.8,0c-0.2,2.7-0.4,5.4-0.6,8.2C312.6,509.2,314.8,498.4,314.3,488.4z" />
	<path fill="#3D372F" d="M314.3,488.4c-0.1,4.8-0.2,9.5-0.2,14.3c-0.5,0-1.1,0-1.6,0c2.1-10.9-3.7-23.1-1.3-32.9   c0.5,0.5,1,1,1.5,1.5C312.5,477.1,313.4,482.7,314.3,488.4z" />
	<path fill="#E8D2B4" d="M315.1,518.8c0.2-2.7,0.4-5.4,0.6-8.2c0.3,0,0.5,0,0.8,0c0.4,5.5,0.7,8.3-0.4,14.5   C315.7,521.9,315.4,520.4,315.1,518.8z" />
	<path fill="#4F4941" d="M318.6,511.4c0.2-0.6,0.5-1.3,0.7-1.9C319.1,510.1,318.9,510.7,318.6,511.4z" />
	<path fill="#A9A48F" d="M519.5,81.5c0.5-0.9,1-1.8,1.7-2.9c1.1,1.2,1.9,2.1,2.8,3c-1.2,1.3-2.3,2.6-4.1,4.6   c-0.2-1.7-0.2-2.5-0.3-3.3l-0.1,0.1C520.1,82.6,521.1,82.1,519.5,81.5z" />
	<path fill="#F6D9C7" d="M371.2,310c0.8,2.7,4.7,5.9,3.4,8.5c-0.2-0.1-0.5-0.1-0.7,0c0.1-3.8-4.9-0.6-7-0.5   c2.5,5.5,8.5,6.9,12.8,10.5l-0.1-0.1c-1,1.5-2,3-3,4.5c1.1-3.7-4.6-3.8-4.2-0.1c-1.2,0.1-2.5,0.2-4.2,0.3c0.8,1,1.2,1.5,1.8,2.3   c2.1-1.2,4.2-2.5,6.7-2.6c0.3,3.1,1.6,5.6,4.4,7.1c0.1,1,1.9,2.1-0.1,3c-6.3-0.7-10,0.4-14.6,4.5c0.6,0.4,1.2,0.7,1.7,1   c2.7-0.1,5,0.4,6.1,3.2c9.2,3.7,9.8-3.2,12.1,10.2c-1.2,0.9-1.9,1.5-2.6,2.1c-0.4,0-0.8,0.1-1.2,0.3c-17.6-0.9-35.8,1.3-52.7-0.1   c-4.8-12.6-6.2-24.8-6.5-38.3c0.9-1.1,2.1-2.5,3.2-3.9c-0.8-0.5-1.4-0.8-1.5-0.9c0.9-3.3,3.4-6.1,0.9-9.8c-0.6,0-1.3,0.1-2,0.1   c1.4-1.7,2.8-3.4,4.4-5.5c-1.3-0.2-2.1-0.3-3-0.4c0.1-0.4,0.1-0.7,0.2-1.1c3.1-0.1,3.1-2.4,1.3-4.4c4.4-2.1,16.7-0.6,17.4-5.6   c9.4,1.5,18.8,9,24.3,16.4c-0.9,0.4-1.6,0.7-2.4,1.1c0,0.3,0.1,0.5,0.1,0.8c1.6-0.1,3.2-0.2,4.7-0.2   C371.2,311.4,371.2,310.7,371.2,310z M352,311.6c2.2,1.2,4.6,1.7,8,0.9c-4.8-3.6-15.2-4.8-16.9,2.1   C345.9,312.6,348.8,312.6,352,311.6z M346.9,318.7c-1.8,0.6-3.1,1.5-2.6,4.6c1.1-1.4,1.8-2.1,2.5-2.9c3.6,0.3,5.4,3.9,9.3,3.6   c0.1-2.4,0.3-4.6,0.4-6.6C352.6,315.8,349.6,316.5,346.9,318.7z" />
	<path fill="#080707" d="M323.9,311.5c0.7,0,1.4-0.1,2-0.1c2.5,3.7-0.1,6.5-0.9,9.8c0.1,0.1,0.7,0.4,1.5,0.9   c-1.2,1.4-2.3,2.8-3.2,3.9c-0.6,7.7,2.9,16.2-0.6,22.5c-7.9-34.6-12.7-68.4-14.4-103.9c-0.6-23.5-20.2-46.8-18.6-68.7   c14.9,35.6,31.2,76.5,24.8,115.3c0.8,2.2,0.4,5,3.4,5.8c0.9,0.5,1.2,0.7,0.3,1.8c-2,2.4-1.8,3,0.3,5.4c0.9,0,1.8,0.1,2.6,0.1   c0.1,1.8-1.8,2.8-2.7,4.2c0.5,1.9,1.1,3.8,1.7,6C322.1,313.7,323.2,313.4,323.9,311.5z" />
	<path fill="#24211F" d="M382.5,364.4c0.4-0.2,0.8-0.3,1.2-0.3c0.6,0.6,1.2,1.2,1.8,1.8c-4.6,3.3-13.5,7.5-8.2,14.5   c1,1.3,2.3,1.4,3.8,0.9c0,1,0,2,0,3c-2-0.4-2,1.4-2.9,2.8c-2.3-0.4-6,1-7.7-0.9c0.4-0.5,0.8-1.1,1.2-1.7c1.1-0.1,2.2-0.3,3.8-0.5   C367.8,374,375.1,369.9,382.5,364.4z" />
	<path fill="#1F1C18" d="M318.5,304.2c-4.7-3.7,2.1-5.3-0.7-7.3c1.1-0.4,2.2-0.8,3.3-1.2c0.8,0.5,1.3,1.7,2.1,0.4   c-0.4-0.2-0.7-0.5-1.1-0.7c1.1-0.4,2.2-0.7,3.3-1.1c0,0.5,0,1,0,1.4c4.7,3.1,12.1-1.9,17.1-1.5c0,0.9,0,1.9,0,2.8   C334.9,299.8,323.9,298,318.5,304.2z" />
	<path fill="#080707" d="M342.5,294.3c-5.8-0.3-11.5,0-17.1,1.5c0-0.5,0-1,0-1.4c9-3.6,18-4.4,27,0.1c-0.5,0.5-1,0.9-1.5,1.4   C348.1,295.3,345.3,294.8,342.5,294.3z" />
	<path fill="#363432" d="M350.9,295.9c0.5-0.5,1-0.9,1.5-1.4c7.7,3.1,13.6,9.2,18.8,15.5c0,0.7-0.1,1.4-0.1,2.7   c-1.5,0.1-3.1,0.2-4.7,0.2c0-0.3-0.1-0.5-0.1-0.8c0.8-0.4,1.6-0.7,2.4-1.1C365,304.3,356.6,300.8,350.9,295.9z" />
	<path fill="#524B48" d="M385.5,365.9c-0.6-0.6-1.2-1.2-1.8-1.8c0.7-0.6,1.5-1.2,2.6-2.1c-1.2-2.7-0.5-7.9-3.8-9.3   c0.5-1,0.9-1.9,1.4-2.9c-0.5-1.3-1.1-2.6-1.6-3.9c0.7-0.7,1.3-1.4,2.1-2C384.6,350.6,392.7,361.3,385.5,365.9z" />
	<path fill="#4E4A48" d="M379.7,328.6c-2.9-1.9-5.7-3.8-8.6-5.8c1-1.4,1.9-2.8,2.8-4.3c0.2-0.1,0.5-0.1,0.7,0   c-0.3,1.1-0.5,2.1-0.9,3.4C376.4,323.9,379.5,324.9,379.7,328.6z" />
	<path fill="#3E3937" d="M381.2,339.9c-2.8-1.5-4.1-4-4.4-7.1l-0.1,0.1c1-1.5,2-3,3-4.5c1.5,0.4,1,1.7,1.2,2.7   c-3.2,3.2,0.5,5.6,1.8,8.8C382.1,339.9,381.7,339.9,381.2,339.9z" />
	<path fill="#524B48" d="M381.2,339.9c2.8-0.5,3.1,2,3.2,3.9c-0.2,0.2-0.4,0.4-0.6,0.5c-0.9-0.5-1.8-1-2.7-1.4   C383.1,342,381.2,340.9,381.2,339.9z" />
	<path fill="#F6D9C7" d="M381.1,336.9c-2.4-1.8-1.8-3.8-0.2-5.7C380.9,333.1,381,335,381.1,336.9z" />
	<path fill="#F3D6C5" d="M408.1,358.5c-0.3,1.8-1.7,1.2-2.7,1.1C406.3,359.3,407.2,358.9,408.1,358.5z" />
	<path fill="#080707" d="M322.1,295.5c0.4,0.2,0.7,0.5,1.1,0.7c-0.8,1.3-1.3,0.1-2.1-0.4C321.4,295.4,321.7,295.3,322.1,295.5z" />
	<path fill="#17110F" d="M455.3,536.9c12.1-2.8,25.7-2.3,36.7-10.1c0.6,0.6,1.3,1.2,1.9,1.8C484.5,538.8,468.2,540.3,455.3,536.9z" />
	<path fill="#4E4641" d="M458.9,383.2c-1.9-5.5-6.3-13.4-3.3-18.4C458.2,369.7,459.9,377.8,458.9,383.2z" />
	<path fill="#1B1817" d="M451.1,338.9c3.5,4.7,3.6,5.4,2.3,11.7C449.2,349,450.9,343.7,451.1,338.9z" />
	<path fill="#2E2A27" d="M465.5,253.6c-1-5.4,0-9.3,1.6-13.9C468.9,245.4,468.7,247.5,465.5,253.6z" />
	<path fill="#090808" d="M458.5,129.8c2.9,2.8,2.8,3.7-1.2,7.3C456.4,134.3,456.9,132,458.5,129.8z" />
	<path fill="#70645D" d="M460.1,388.7c3.3,0.2,3.4,7.1,0.1,6.7C459.1,393.2,459.1,390.9,460.1,388.7z" />
	<path fill="#554C46" d="M471.8,322.6c1,3,1.2,5.1-0.2,7.3C468.8,327.9,468.8,326,471.8,322.6z" />
	<path fill="#0E0C0C" d="M458.1,140.4c2.6,4.3,2.6,4.3,0,7.2C458.1,145.4,458.1,143.7,458.1,140.4z" />
	<path fill="#635952" d="M466.8,232.2c0.1-2.4,0.2-3.6,0.2-4.8C471.2,227.3,469,230,466.8,232.2z" />
	<path fill="#A69489" d="M461.5,401.7c1.7,0.6,2.9,3.5,0.5,3.5C460.7,404.3,460.9,403.2,461.5,401.7z" />
	<path fill="#282422" d="M468.9,223.6c-1.7-0.7-2.2-3.5,0.2-3.4C469.1,221.5,469.8,222.5,468.9,223.6z" />
	<path fill="#433B37" d="M451.3,330.5c0.9-0.1,1.7-0.3,2.6-0.4c0.2,1.1-0.3,1.9-0.9,2.8C452,332.2,451.2,331.7,451.3,330.5z" />
	<path fill="#262220" d="M468.1,342.3c0.1-1.5,0.2-2.9,0.3-4.8C470.6,339.4,470.1,341,468.1,342.3z" />
	<path fill="#262220" d="M468.1,209c0.8,2.2,1,2.5-1.2,4.6c-0.1-2.1-0.2-3.3-0.3-4.5C467.1,209.1,467.6,209,468.1,209z" />
	<path fill="#201D1B" d="M518.7,263.2c-3.9-2.2-0.1-15.2,0.3-19.4C523.2,246.3,521.9,259.3,518.7,263.2z" />
	<path fill="#080706" d="M497.9,134c-0.7-0.1-1.4-0.2-2.3-0.3c-0.5-4.9-2-9.6-1.7-14.6c1-0.1,1.7-0.1,2.4-0.2l0-0.1   C497.8,123.8,498.2,128.8,497.9,134z" />
	<path fill="#24201E" d="M521.8,313.3c-3.6-4.1-3.6-8.3-3.5-13.5C522.8,302.6,522.9,307.9,521.8,313.3z" />
	<path fill="#766A63" d="M514.5,206.6c-2.7-1.5-2.3-3.8-2-6.2C515.4,201.7,515.4,201.7,514.5,206.6z" />
	<path fill="#302A27" d="M499.5,154.3c-0.7,0.5-1.4,0.9-2.6,1.8c0-2.8,0-4.9,0-7.3c1,0,1.8,0,2.6,0   C499.5,150.6,499.5,152.5,499.5,154.3z" />
	<path fill="#6A5E58" d="M514.5,214.1c1.6,2.6,3,3.2,1.3,6.2C513.5,218.4,513.2,216.7,514.5,214.1z" />
	<path fill="#796B63" d="M505.1,365.7c2.1-2.7,4.4,2.5,2.3,4.1c-0.7,0-1.4,0-2.1,0C505.2,368.5,505.1,367.1,505.1,365.7z" />
	<path fill="#35312E" d="M514,288.1c-0.1-1.7-0.2-3.3-0.3-4.9c0.3-0.1,0.6-0.2,0.9-0.3C515.9,284.6,517.4,287.3,514,288.1z" />
	<path fill="#E1C7B6" d="M498,126.1c-0.5-2.4-1.1-4.8-1.6-7.2C499,120.5,497.8,123.5,498,126.1z" />
	<path fill="#73675F" d="M518.4,292.5c0.8,1.4,1.5,2.6,0.6,4.1c-2.2,0.3-2.3-1-2.3-2.5C517.3,293.7,517.9,293.1,518.4,292.5z" />
	<path fill="#9A8A7E" d="M505.2,377.1c3.2-0.4,3.2,3.5,0,2.9C505.2,379,505.2,378.1,505.2,377.1z" />
	<path fill="#24211F" d="M519.5,232.4c0,2.2,0,3.3,0,5.4C517.6,235.9,517.5,234.8,519.5,232.4z" />
	<path fill="#322D2A" d="M518.1,222.2c0,2.5,0,3.7,0,5.1C516,226.1,516.2,224.9,518.1,222.2z" />
	<path fill="#9D8B80" d="M496.7,188.8c-0.4-0.7-0.8-1.4-1.2-2.1c0.8-0.3,1.7-0.5,2.5-0.8C497.6,186.9,497.1,187.8,496.7,188.8z" />
	<path fill="#282421" d="M518.4,292.5c-0.6,0.6-1.1,1.1-1.7,1.7c0-0.8,0.1-1.6,0.1-2.5C517.4,292,517.9,292.3,518.4,292.5z" />
	<path fill="#544B44" d="M451,327.1c0.1-0.8,0.1-1.6,0.2-2.9C453.2,325.9,452.5,326.6,451,327.1L451,327.1z" />
	<path fill="#2E2926" d="M504.6,343.8c-2-7.4-2.7-15.6-1.8-20.6C506.6,323.8,508.8,343.3,504.6,343.8z" />
	<path fill="#272321" d="M497.8,136.1c0.4,1.8,1.1,3.7-0.2,5.4C494.8,140,494.8,139.2,497.8,136.1L497.8,136.1z" />
	<path fill="#2F2A27" d="M505.7,352.5c1.2,3.7,1.2,3.7,0.2,7C504.4,357.3,504.7,355.1,505.7,352.5z" />
	<path fill="#48403B" d="M490.5,202.2c1,1.2,0,2.3-0.7,3.5C487.7,205.6,488.5,202,490.5,202.2z" />
	<path fill="#322C28" d="M493.6,195.6c-0.8,0.5-1.5,0.9-2.6,1.6c0.1-1.2,0.1-2,0.2-3.6C492.3,194.6,492.9,195.1,493.6,195.6   L493.6,195.6z" />
	<path fill="#251712" d="M513.8,530.9c-0.2,2.3-0.3,3.9-0.5,5.6C510.2,535.6,511.4,533.6,513.8,530.9z" />
	<path fill="#AC6850" d="M513.7,494.2c1.9,0.5,2.1,2,2.1,3.7c-2.1,0.8-2.7-1-3.7-2.1C512.7,495.3,513.2,494.8,513.7,494.2z" />
	<path fill="#995C47" d="M513.6,543.9c-1.2,0.2-2.3,0-2.9-1.2c0.6-0.9,1.3-1.7,2.7-3.7C513.6,541.5,513.6,542.7,513.6,543.9z" />
	<path fill="#020202" d="M515.2,505.6c-1.8-0.9-2.9-2.2-2.8-4.3l-0.1,0.1c2,0.8,2.9,2.2,2.8,4.4L515.2,505.6z" />
	<path fill="#020202" d="M515.1,505.7c0.4,0.2,0.7,0.3,1.1,0.5c-1.1,1-0.6-0.4-0.9-0.6L515.1,505.7z" />
	<path fill="#020202" d="M509.6,491.4c-0.5-0.5-1-1-1.6-1.6C508.5,490.3,509.1,490.9,509.6,491.4z" />
	<path fill="#020202" d="M511,492.8c-0.5-0.5-1-1-1.6-1.6C510,491.8,510.5,492.3,511,492.8z" />
	<path fill="#020202" d="M512.4,494.2c-0.5-0.5-1-1-1.6-1.6C511.4,493.2,511.9,493.7,512.4,494.2z" />
	<path fill="#020202" d="M513.7,494.2c-0.3,0.3-0.6,0.7-1,1c0-0.4-0.2-0.8-0.4-1.2C512.8,493.9,513.2,494,513.7,494.2z" />
	<path fill="#5E534C" d="M288.5,358.8c-0.1-2-0.1-4-0.2-6c5-0.1,4,4.6,4.7,8.8C291,360.3,289.7,359.6,288.5,358.8z" />
	<path fill="#3B3530" d="M292.8,366.8c0.1-2.6,0.9-2.6,1.1,0C293.5,366.8,293.2,366.8,292.8,366.8z" />
	<path fill="#100F0D" d="M497.7,76c0,0.7,0,1.4,0,2.3c-5.9,0.1-8.4,4.9-11.9,9.6c-0.2-1.7-0.4-2.7-0.5-3.6c0.6-0.9,1.2-1.8,2.1-3.3   c-14.3-2.1-33.1-9.6-37-24.8c0.7-0.1,1.3-0.2,2-0.3C463.4,69,480.6,80.2,497.7,76z" />
	<path fill="#131210" d="M465,24.8c0.6-0.6,1.2-1.2,1.7-1.8c0.3,0.2,0.7,0.4,1.2,0.3c8,9.3,7.6,24.6,20.3,29.6c0.5,1,0.9,2,1.4,3   C471.3,52.8,473.9,37,465,24.8z" />
	<path fill="#3D3B34" d="M445.6,34.7c-9.2-6.4-20.7-11.5-28.7-18.7C428.2,15.2,441.6,26.5,445.6,34.7z" />
	<path fill="#3A3931" d="M431.6,12.8c12.5,3.8,23.1,9.1,26.7,20.8c-1.7,1.1-2.2-0.1-2.5-0.7C451.4,21.6,438.2,21.5,431.6,12.8z" />
	<path fill="#2B2A24" d="M486.6,67.3c0.5,0.7,1,1.5,1.8,2.5c-6.5-2.1-14.7-9.1-18.1-15.5c5.3-0.5,8.2,3.6,12.2,5.7l0,0   c0,0.5,0,1.1,0,1.6c-1,0-1.9-0.1-2.9-0.1c-0.3-0.2-0.6-0.4-0.9-0.6c0.3,0.2,0.7,0.4,1,0.5C481.1,64.4,484,65.7,486.6,67.3z" />
	<path fill="#13120F" d="M496.9,60c2.3,2.4,4.6,4.8,7,7.2c0,2.9,0,5.8,0,8.7c-0.9-0.1-1.8-0.2-2.8-0.3c-1.2-4.6-2.9-8.9-6-12.6   c0.1-0.4,0-0.7-0.1-1.1C495.6,61.3,496.3,60.6,496.9,60z" />
	<path fill="#3C3A33" d="M482.4,61.7c0-0.5,0-1.1,0-1.6c2.8,1.9,5.7,3.8,8.5,5.8c-0.6,0.5-1.1,1.1-1.7,1.6   C486.6,66.1,484.6,63.8,482.4,61.7z" />
	<path fill="#F6EECF" d="M495,61.9c0.1,0.4,0.1,0.7,0.1,1.1c-4.2-0.9-6.3-4.1-8.4-7.4c1,0.1,1.9,0.2,2.9,0.3l-0.2-0.2   C490.3,58.7,492.7,60.3,495,61.9z" />
	<path fill="#E7DAB5" d="M499.8,71.5c0.4,1.4,0.9,2.8,1.3,4.1c-0.9,2.3-2.3-0.1-3.4,0.4c-0.8,0-1.6-0.1-2.5-0.1   C496.2,73.8,497.6,72.3,499.8,71.5z" />
	<path fill="#747061" d="M482.4,61.7c1.4,1.4,2.9,2.7,4.3,4.1c0,0.5,0,1,0,1.5c-2.6-1.6-5.5-2.9-7-5.8l-0.1,0.1   C480.5,61.6,481.4,61.7,482.4,61.7z" />
	<path fill="#656155" d="M489.3,67.4c0.6-0.5,1.1-1.1,1.7-1.6c1.6,0.9,2.3,2,1,4.2C491,69.1,490.1,68.3,489.3,67.4z" />
	<path fill="#E7DAB5" d="M498.1,67.3c0.4,0.9,0.9,1.9,1.3,2.8C498.1,69.6,498,68.5,498.1,67.3z" />
	<path fill="#020202" d="M412.4,18.8c0.4,0.2,0.9,0.5,1.3,0.7c-0.1,0.2-0.3,0.3-0.4,0.5c-0.3-0.5-0.5-0.9-0.8-1.4L412.4,18.8z" />
	<path fill="#3C3A33" d="M482.4,60.1c-0.5-0.3-1-0.7-1.5-1C481.5,59.4,482,59.8,482.4,60.1z" />
	<path fill="#1C1B19" d="M519.5,81.5c1.7,0.6,0.6,1-0.1,1.5C519.4,82.5,519.5,82,519.5,81.5z" />
	<path fill="#292823" d="M482.4,88.5c3.4,3.6-3.9,15.2-7.7,17.7C474.2,101.6,477,95.4,482.4,88.5z" />
	<path fill="#3B221A" d="M395.4,525.6c0.9-1.5,1.8-2.9,2.7-4.3c0.6,10.1-0.7,19.6-0.2,29.9C392.2,544,396.4,534,395.4,525.6z" />
	<path fill="#6A3E2F" d="M398.5,524.5c-0.1-1.1-0.2-2.2-0.3-3.3c0,0,0,0.1,0,0.1c2.2-0.9,1.3-2.8,1.5-4.4l-0.1,0.1   c0.4,0,1.1,0,1.4,0c2.3,9,5.2,19.4,5.2,28.5c-5-6-3.7-13.6-5.8-20.8C399.8,524.7,399.1,524.6,398.5,524.5z" />
	<path fill="#4E2D23" d="M502,570c0.7-3.5,1.7-5.5,4.3-7C507.3,566.7,505.3,568,502,570z" />
	<path fill="#6C3F31" d="M509.8,548.1c1.1,1.7,0.9,2-0.6,2.9C507.9,549.7,508.4,549.4,509.8,548.1z" />
	<path fill="#3B221A" d="M401,517c-0.4,0-1.1,0-1.4,0c0.3-0.7,0.6-1.4,0.8-2.2c0.3,0.3,0.6,0.6,0.9,0.9   C401.2,516.1,401.1,516.6,401,517z" />
	<path fill="#0D0C0A" d="M326.7,355.7c3.8,23,20.2,23.4,39.7,28.7c0.6,1.2,1.2,2.4,1.6,3.2c9.6,1.6,18.7,7.8,28.3,5.9   c-0.8-0.8-1.5-1.5-2.3-2.3c0.5-0.4,1-0.9,1.5-1.3c3.5,0.8,6,4,5,7.9c-12.4,2.4-23.7-6.4-36-7.6c-8.7-2.8-18.6-2.6-24.5-10.6   c0,2.2,0,3.2,0,4.3c-0.5,0.6-1,1.2-1.5,1.8c-0.4-2-0.9-4-1.4-6.1C330.7,374.3,321.5,363.8,326.7,355.7z M363.4,386.3   c0.2,0.5,0.8,0.1,1.2,0.1C364.2,386.3,363.8,386.3,363.4,386.3z" />
	<path fill="#201D1B" d="M328.2,370c1.4,1.9,2.9,3.7,4.3,5.6c-3.9,3.2-0.2,10.4-1,16c-1.5-0.9-2.3-1.4-3.2-1.9   C326.9,381.7,324.2,376.1,328.2,370z" />
	<path fill="#332E2A" d="M326.7,355.7c-2.2,1-0.9,3.1-1.5,4.5c-0.8-3.9-1.7-7.8-2.5-11.8c2.1-1,0.8-3,1.4-4.5   C326.5,347.3,325.8,351.9,326.7,355.7z" />
	<path fill="#191715" d="M304.2,283.1c-1.1-4.2-0.4-6.2-0.3-11C308.1,274.1,308,281.1,304.2,283.1z" />
	<path fill="#0E0C0B" d="M304.7,255.6c1.5,2.5,1.3,4.4,0.5,6.5C302.7,260.2,302.7,260.2,304.7,255.6z" />
	<path fill="#131110" d="M272,135c-0.6,0.2-1.2,0.4-2.2,0.8c0-2,0-3.7,0-5.7C272.1,131.3,272.1,133.1,272,135z" />
	<path fill="#564D47" d="M271.9,151.5c2.2,1.3,2.2,1.3,1,4.1C270.4,154.8,270.7,153.3,271.9,151.5z" />
	<path fill="#393330" d="M272.2,137.3c0.2,1.7,0.3,2.8,0.5,4.3C270.4,139.9,270.4,139.9,272.2,137.3z" />
	<path fill="#2C2926" d="M271.7,150.1c-0.7-2.3-1-2.9,0-5.2C273.4,146.8,273.2,148.3,271.7,150.1z" />
	<path fill="#665B55" d="M303.4,251c-1-0.5-0.8-1.1-0.3-1.9C304.1,249.6,303.9,250.2,303.4,251z" />
	<path fill="#14130D" d="M358.1,434.2c0.2-0.7,0.4-1.3,0.7-2.5c12.8,10.2,28.3,11,42.1,2.4c0.5,0.5,1,0.9,1.5,1.4   c-0.2,0.4-0.3,0.9-0.3,1.3C387.7,448,368.3,448.2,358.1,434.2z" />
	<path fill="#332F21" d="M352.7,429.8c0.9-2.3,2.3-1.8,4.3-0.6c-0.6,0.7-1.1,1.4-1.6,2C354.5,430.8,353.6,430.3,352.7,429.8z" />
	<path fill="#6E6749" d="M348.2,424c2-0.1,3,0.9,2.9,2.9C348.3,426.7,348.3,426.7,348.2,424z" />
	<path fill="#9C9783" d="M339.9,383.8c0-1,0-2.1,0-4.3c1.4,1.6,2.1,2.4,2.7,3.1c-0.6,0.5-1.1,1.1-1.7,1.6   C340.6,384.2,340.3,384,339.9,383.8z" />
	<path fill="#342E2A" d="M398.3,391.3c-0.5-0.3-1-0.7-1.5-1C397.2,390.7,397.7,391,398.3,391.3z" />
	<path fill="#423A36" d="M381.8,480c1.3-5.5,5.2-8.6,9.3-11.3C394.3,471.8,383.7,476.8,381.8,480z" />
	<path fill="#7B6D65" d="M390.8,480.7c-0.6,0.6-1.2,1.3-2,2C387.9,480.8,388.7,480.2,390.8,480.7z" />
	<path fill="#2D2A1D" d="M333,469.2c0-0.7,0-1.4,0-2.1c0.2,0,0.4,0,0.6,0c0,0.7,0,1.4,0,2.1C333.4,469.2,333.2,469.2,333,469.2z" />
	<path fill="#4E4931" d="M402.4,435.6c-0.5-0.5-1-0.9-1.5-1.4c1.6-2.2,3.1-4.4,4.7-6.6C409.8,429.6,403.5,433.3,402.4,435.6z" />
	<path fill="#1D1A18" d="M413.1,378.4c1.5,1.5,2.3,2.9,0.1,4.4C411.2,381.3,411.1,379.9,413.1,378.4z" />
	<path fill="#574E41" d="M295.3,485.7c-0.4-0.1-0.9-0.2-1.3-0.2c0-3.9,0.1-7.9,0.1-11.8C295.8,477.7,295.4,481.8,295.3,485.7z" />
	<path fill="#574E41" d="M294,485.6c-0.2,0.4-0.5,0.7-0.7,1.1c-0.2-0.4-0.3-0.8-0.5-1.2C293.2,485.5,293.6,485.6,294,485.6z" />
	<path fill="#201C1A" d="M331,397.1c0.1-0.9,0.2-1.8,0.4-3.4c1,1.1,1.5,1.7,2.5,2.9C332.6,396.9,331.8,397,331,397.1L331,397.1z" />
	<path fill="#DDC4B4" d="M393.9,391.2c0.5,0.5,1,1,1.6,1.6c-0.3,0.4-0.5,0.8-0.6,1.2c-9.3,0.2-17.7-4.5-27-6.4c-0.4-0.8-1-2-1.6-3.2   c1.7,0,3.5,0.1,5.2,0.1c-0.4,0.6-0.8,1.1-1.2,1.7c1.7,2,5.4,0.5,7.7,0.9C381.3,379.5,388.4,391.7,393.9,391.2z" />
	<path fill="#3B221A" d="M399.6,517c-0.2,1.6,0.7,3.5-1.5,4.4C398.3,519.8,397.7,517.9,399.6,517z" />
	<path fill="#3C3A32" d="M475.6,11.4c6.6,3.1,14.2,6.6,15.2,14.9c-6.6-3.8-11-7.8-17-11.9C473.8,13,474,11.8,475.6,11.4z" />
	<path fill="#2D2C26" d="M488.2,52.9c-3.7-2.4-7.9-4.3-10.1-8.5c0.9-0.3,1.7-0.7,2.9-1.1C484.6,45.4,488.8,47.4,488.2,52.9z" />
	<path fill="#555248" d="M475.6,11.4c-1.6,0.4-1.8,1.7-1.8,3.1c-3.5-0.3-6.2-2-9.2-4.8C469.5,7.5,472.5,9.8,475.6,11.4z" />
	<path fill="#32302A" d="M512.5,52.5c2.8,3.4,5.7,5.6,5.1,10.3c-3.2-0.9-4.4-3.9-6.6-5.7C511.5,55.6,512,54.1,512.5,52.5z" />
	<path fill="#35332D" d="M465.3,20.2c0.1-0.7,0.3-1.3,0.4-1.9c2.8-1.1,6.5,1,8.3,4.4c-1.3,0.1-2.2,0.2-3,0.3c-1-0.5-1.8-1.4-2.9-1.4   c-0.6-1.3-1.6-1.7-2.9-1.4C465.2,20.1,465.3,20.2,465.3,20.2z" />
	<path fill="#6E6A5D" d="M505.3,52.7c-1.9-0.9-3.7-2-4.3-4.2c3.7-1.7,3.7-1.7,7.5-0.4c-0.2,0.2-0.4,0.4-0.5,0.7   c-0.5,0.1-1,0.1-1.5,0.2c-0.3,0.2-0.6,0.5-0.9,0.7c0.4,0.3,0.8,0.5,1.1,0.8c-0.1,0.4-0.1,0.7,0,1.1C506.2,52,505.8,52.4,505.3,52.7   z" />
	<path fill="#47453C" d="M505.3,52.7c0.4-0.4,0.9-0.8,1.3-1.1c1,0.5,1.9,1,2.9,1.5l-0.1-0.1c0.8,2.2,1.6-0.6,2.7-1.3   c1,1.5-1,3.8-1.2,5.5C509.1,55.7,507.2,54.2,505.3,52.7z" />
	<path fill="#3C3A32" d="M495,61.9c-2.3-1.7-4.7-3.2-5.5-6.2c3.1,0.2,5.5,1.9,7.5,4.2C496.3,60.6,495.6,61.3,495,61.9z" />
	<path fill="#6E6A5D" d="M512.2,51.7c-0.5,0.5-0.9,1-1.4,1.5c-0.4-0.1-0.9-0.1-1.3-0.1l0.1,0.1c-0.5-1.4-1-2.8-1.5-4.2   c0.2-0.2,0.4-0.4,0.5-0.7C509.7,49.4,511,50.5,512.2,51.7z" />
	<path fill="#B5AF98" d="M465.2,20.1c1.3-0.2,2.3,0.1,2.9,1.4c-0.1,0.6-0.2,1.2-0.2,1.8C466.2,23.4,466,21.2,465.2,20.1z" />
	<path fill="#B5AF98" d="M469.6,25.7c-0.4-0.5-0.7-0.9-1.1-1.4C468.9,24.8,469.3,25.2,469.6,25.7z" />
	<path fill="#B5AF98" d="M469.4,22c0.5,0.3,1.1,0.7,1.6,1C470.5,22.6,470,22.3,469.4,22z" />
	<path fill="#47453C" d="M515.3,55.8c-0.5-0.6-0.9-1.1-1.4-1.7C514.4,54.7,514.8,55.3,515.3,55.8z" />
	<path fill="#0A0A0B" d="M264.1,87.3c-1.9-0.5-3.9-0.9-5.8-1.4c-0.2-0.4-0.3-0.7-0.5-1.1C260.4,83.9,261.9,84.5,264.1,87.3z" />
	<path fill="#E0C6B5" d="M371.6,384.5c-12.3-1.4-40.2-5.5-41.9-20.3c10.7,1.9,21.7-0.9,32.9,0.1c-3.5,1.4-7.1,1.3-10.8,1.4   c9,3.8,18.6-3.3,27.2,1c-7.8,4.2-8.9,10.1-3.7,17.1C373.8,384.2,372.7,384.4,371.6,384.5z" />
	<path fill="#D7B2A2" d="M382.3,345.8c0.5,1.3,1.1,2.6,1.6,3.9c-3.3,0.4-7.2-0.8-9.7,2c-1.1-2.9-3.4-3.4-6.1-3.2   C372.5,345.7,377.3,345.2,382.3,345.8z" />
	<path fill="#3C3633" d="M346.9,318.7c2.7-2.2,5.7-2.9,9.6-1.5c-0.1,2.1-0.2,4.2-0.4,6.6c-3.9,0.3-5.7-3.3-9.3-3.6   C346.8,319.8,346.9,319.2,346.9,318.7z" />
	<path fill="#3E342F" d="M382.3,345.8c-5-0.6-9.8-0.2-14.1,2.7c-0.6-0.3-1.1-0.7-1.7-1c4.9-4.4,11.2-6.6,17.3-3.1   C383.3,344.9,382.8,345.4,382.3,345.8z" />
	<path fill="#51493D" d="M323.9,311.5c-0.7,1.9-1.8,2.1-3.8,3c-0.6-2.3-1.2-4.1-1.7-6c2.7,1.9,4.7-1.8,7-2.9c0.9,0.1,1.7,0.3,3,0.4   C326.7,308.1,325.3,309.8,323.9,311.5z" />
	<path fill="#6D6159" d="M366.8,365.5c-4.8,2.4-9.8,1.6-14.9,0.3c5.1,0.3,9.8-1.6,14.9-1.5C366.8,364.7,366.8,365.1,366.8,365.5z" />
	<path fill="#211F1D" d="M373.9,318.5c-0.9,1.4-1.8,2.9-2.8,4.3c-1.9-1-3.3-2.4-4.2-4.7C369,317.9,374,314.8,373.9,318.5z" />
	<path fill="#4D4640" d="M366.8,365.5c0-0.4,0-0.8,0-1.2c5.2,0,10.5,0,15.7,0C380.8,369,371.6,364.2,366.8,365.5z" />
	<path fill="#2E2724" d="M374.2,351.8c2.5-2.8,6.4-1.6,9.7-2c-0.5,1-0.9,1.9-1.4,2.9C379.7,353,376.8,353.8,374.2,351.8z" />
	<path fill="#9A8C77" d="M318.5,304.2c1.5-3.5,5.3-3.1,8.5-4c1,1.3,2.4,3.7-0.2,4.1c-1.9-2-2.7-2-5.7,0   C320.2,304.3,319.4,304.2,318.5,304.2z" />
	<path fill="#7D705E" d="M325.4,305.6c-2.3,1.1-4.3,4.7-7,2.9c0.9-1,1.7-2.1,2.6-3.1c1.5-0.3,3.1-0.6,4.6-0.9   C325.6,304.9,325.5,305.3,325.4,305.6z" />
	<path fill="#292421" d="M345.4,311.5c2.6-1.9,5.5-2.1,8.5-1.3c-2.3,2.2-5.6,2.2-8.5,3.1C345.4,312.7,345.4,312.1,345.4,311.5z" />
	<path fill="#312B28" d="M352,311.6c0.6-0.5,1.3-1,1.9-1.5c2.2-0.3,3.7,1,6.1,2.4C356.6,313.4,354.2,312.8,352,311.6z" />
	<path fill="#463E39" d="M372.5,332.8c-0.4-3.7,5.3-3.6,4.2,0.1l0.1-0.1C375.3,333,373.9,333.4,372.5,332.8z" />
	<path fill="#A99589" d="M372.5,332.8c0.5,0.1,1.1,0.3,1.6,0.4c-1.3,0.7-2.6,1.5-4,2.2c-0.6-0.8-1-1.3-1.8-2.3   C370,333,371.2,332.9,372.5,332.8z" />
	<path fill="#2C2721" d="M325.6,304.5c-1.5,0.3-3.1,0.6-4.6,0.9c0.1-0.4,0.1-0.7,0.1-1.1c3-2,3.7-2,5.7,0   C326.4,304.4,326,304.4,325.6,304.5z" />
	<path fill="#7D6F66" d="M346.9,318.7c0,0.5-0.1,1.1-0.1,1.6c-0.7,0.8-1.3,1.6-2.5,2.9C343.8,320.2,345.1,319.3,346.9,318.7z" />
	<path fill="#73655D" d="M345.4,311.5c0,0.6,0,1.2-0.1,1.8c-0.6,0.4-1.3,0.8-2.2,1.4C343,312.4,344.1,311.9,345.4,311.5z" />
	<path fill="#4A433A" d="M342.5,294.3c0.6,0.1,1.2,0.2,1.8,0.3c0,1.3,0.1,2.6-1.8,2.5C342.5,296.1,342.5,295.2,342.5,294.3z" />
	<path fill="#4A433A" d="M325.4,295.8c4.7-0.9,9.3-2.2,14.1-1.4C336,295.6,328.8,298.2,325.4,295.8z" />
	<path fill="#747061" d="M479.6,61.5c-0.3-0.2-0.7-0.4-1-0.5C478.9,61.2,479.2,61.4,479.6,61.5L479.6,61.5z" />
	<path fill="#E0C6B5" d="M363.4,386.3c0.4,0,0.8,0.1,1.2,0.1C364.2,386.4,363.6,386.8,363.4,386.3z" />
	<path fill="#342E2A" d="M394.9,394c0.1-0.4,0.3-0.8,0.6-1.2c0.2,0.2,0.5,0.5,0.7,0.7C395.8,393.7,395.4,393.8,394.9,394z" />
	<path fill="#A19C88" d="M508,48.9c0.5,1.4,1,2.8,1.5,4.2c-1-0.5-1.9-1-2.9-1.5c0-0.9,0-1.7-0.2-2.6C507,49,507.5,48.9,508,48.9z" />
	<path fill="#D9D1B7" d="M506.4,49c0.1,0.5,0.1,1,0.2,1.5c-0.4-0.3-0.8-0.5-1.1-0.8C505.8,49.5,506.1,49.2,506.4,49z" />
	<path fill="#A19C88" d="M509.4,53c0.5,0,0.9,0.1,1.3,0.1C510.1,54.8,509.8,53.5,509.4,53z" />
</g>
</svg>