<?xml version='1.0' encoding='utf-8'?>
<svg xmlns="http://www.w3.org/2000/svg" version="1.2" baseProfile="tiny" id="Layer_2_1_" x="0px" y="0px" viewBox="0 0 900 600" overflow="visible" xml:space="preserve">
<g id="a_00000085968345419817183690000017572605312932273069_">
	<path d="M363.9,560.5c4.5,3.4,9.2,4.6,14.8,3.7c2.9,3.3,4.9,8.8,4.7,13c-13.6,16-36,10.8-53.3,5.2c-12.5-1.8-26.3,0.5-38-5.4   c0.5-4.9,3.9-8.6,3.3-13.7c0.3-4.5-0.4-9.6,2.9-13c3.7-3.7-0.3-11.3,7-9c5.9-28.9-1.1-58,0.4-87.2c6.7-34.3,25-35.1,7.1-74.2   c-4.4-1.2-9-2.5-12.7-6.1c2.9-33.5-16.1-83.9,0.6-112.3c-0.1-3.2,0.1-3.8,2.4-7.6c0.6,0,1.1-0.1,1.9-0.1c7.8-29.6,1-36.6-12.5-61.5   c-7.7-18.1-7.2-38-8-57.3c2.4-14.3,15.2-22.2,25.4-31.2c6.5-22.2-7.8-41-10.7-62.1c0.8-24.5,35.3-32.4,52.5-19.3   c0.2,1.1,0.4,2.3,0.5,3.4c9,4.7,12.9,14.9,15,24.2c-0.9,5.1-0.8,6.8,3.1,10.4c0,0.6,0,1.2-0.7,1.4c-2.6-1.8-4.3-4.3-5.6-7   c-1.2,0.9,0.4,2.6-1.4,3.1c-1.9-1-3.3-1.4-5.6-1.8c1.9-2.6,5.1-2.1,6.5-4.7c0.4,0.3,0.8,0.6,1.1,0.8c0.5-0.7,0.4-1.1,0.3-1.8   c-3.7-1.9-3.8-1.9-7.6-1.7c-0.6-0.2-1.3,0-1.6-0.8c2.7-1.9,5.4-0.6,8.5-0.9c-3.3-8-7.2-21.3-17.9-19.4c-8.7,5.1,1.1,7.8-0.3,14.4   c-0.4,2.3,0.7,5-1.7,6.6c-3.4,2.9-5.8,7.5-10.8,7.7c-3.9-4.2-15.4-3.3-12.1,4c0.3-0.5,0.5-0.7,0.7-1c0.1-0.9,0.1-1.8,0.2-2.8   c1.2,1.4,0.3,3.3,0.6,5c-0.1,0.2-0.3,0.5-0.4,0.5c-1.9-0.5-0.8,2.1-1,3.2c-1.1,0.9-2.1,2.4-2.9,3.5c0.3,1,0.5,1.6,0.9,2.9   c-0.7,0.4-1.5,0.8-2.2,1.2c0.7,1.2,0.9,2.1-0.2,2.7c-0.3-0.2-0.6-0.3-1-0.5c-0.8,0.6-1.6,1.3-2.3,1.9c1.5,8.4-1,17.6-0.5,25.9   c14.8-1.9,34,18.8,37.9,13.3c14.3,17.4,39.8,39.2,24,63.8c2.4,11.4,1.3,23.4,4.4,34.8c24.1,27,26.2,67.2,67.4,75   c1.9-0.2,3.6-1.5,5.3-2.1c8,2.6,6.2,13.1,6.6,19.9c1.4,6.5-2.1,11-6.1,15.6c2.1,34.9,15.5,68.4,29.6,100.1c4.1-3,8.4-4.3,13.5-3.9   c25.7,0,51.3,0,77,0c5.8,0.1,12.2-1,17.1,2.9c28.7,56.5,16.4,40.7,12.3,94.2c2.9,19,5.4,38,9.2,56.8c0.7,8.5,10.3,19.6,2.4,26.6   c-10.5,4.8-23-52.1-25.2-61c-1.2,0-2.3,0-3.6,0c-3.1-3.1-3.4-7.4-4.8-11.2c-2.7-0.4-95.1-0.6-101.3-0.2c-1.8,3.7-2.3,16.1-8.5,12.9   c-4,10-13,62.4-25.8,58.6c-4.7-7,1.9-14.3,2.4-21.6c5.4-23,10.7-47.3,9.7-71c-1.3-26.5-14.5-50.3-21.1-75.7   c-5.5-19.4-9.7-39.1-13.6-58.9c-1.6-16.6-10.1-50.6-0.3-63.9c-21,0.5-27.2-22.5-43.6-31c3.7,29.3-2.9,58.8,0.8,88.3   c-1,0.8-2.3,1.8-3.4,2.7c-1.3,14.8,0.3,31.2-5.7,45.1c-5.4,12.7-6.2,26.7-9.5,40.1c-3.3,22-15.9,44.1-14.2,66.1   c1.7-0.7,3.4-1.4,5.4-2.2c1.1,2.5,3,4.5,2.7,7.3c4,7.5,14.4,7,19.8,12c9.9,1.7,20.7,1.7,17.2,15.1c-6.9,10.2-20.1,6.9-30.8,7.9   C362.2,560,362.8,560.7,363.9,560.5z M432.2,300.6c-0.2-0.8-0.9-0.8-1.5-0.7c-0.9-0.7-4.1-1.5-2.3-3c4.2,2.6,9.8,2.9,13.2,6.6   c1.4,2.3,4.3,8.8,7,8.3c-2.6-4-5.3-8.4-8.4-11.9c0.5-0.4,1-0.8,1.6-1.4c-0.7-0.8-1.5-1.2-1.7-2.1c-7.5-6.5-20.7-3.3-28.8-10   c-21.9-20.6-34.1-51.1-54.4-71.9c0.7,0.2,1.5,0.5,2.6,0.8c-2.7-19-9.8-37.1-22.1-51.9c-12.6-0.7-26.5,1.4-35.3,11   c2.5,6.6,4.6,13.9,10.6,18.4c0.5-0.2,1.1-0.4,1.6-0.5c4,2.4,5.4,3.7,6.4,5.8c-0.6,0.1-1.2,0.1-1.8,0.2c0-0.2,0-0.4-0.3-0.4   c8,11.6,14,25.7,25.1,34.6c0.7,0.6,1.4,1.3,1.1,2.7c-1.2-1-1.7-1.9-3.2-2c8.3,23.7,34.1,35.8,51.4,52.2c0,2.2,1.8,2.1,3.2,2.4   c1,2,2.2,3.6,4,4.9l0,0c0,1,0.6,1.7,1.5,2.1c5.8,14.7,24.7,5.8,32.9,16.5c1.9,1.9,4.8,5.9,7.1,2.4c1.5,0.1,2.8,1.4,4.6,0.1   c-3.6-4.8-6.2-11.5-12.6-12.5C433.4,300.5,432.8,300.6,432.2,300.6z M448.9,308.6c0.1,0.6,0,1.5,1.4,1.1   C449.7,309.2,449.3,308.9,448.9,308.6c0-1.8-1.4-2.5-3.1-4C446.5,307,447.6,307.8,448.9,308.6z M430.7,290.5   c12.1,0.8,12.1,9.6,19.8,16.1c0.3-0.6,0.8-1.2,1.3-1.7c0,2.2,0,4.3,0.1,6.5c-0.4,0.1-1,0.1-1,0.2c-0.3,1.9-2.4,2.1-3.3,3.5   c-1.4,1.4-3.7,0.7-5.6,0.4c-7.2,4-8.8-6.9-14.9-7.9c-0.7,1-3.2,1.8-2.2,3.2c-9.5,4.3-1.3,22.3-1.3,30.7c0.6,4.8,2.1,4.1,5.9,4.1   c0.9-0.7,1.8-1.4,2.6-2.1l0,0c0.7,0.9,0.9,0.9,1.6-0.1c5-6.6,10.4-13,15.6-19.5c3.7-4.4,8.6-8.2,8.4-14.5   c-0.8-5.3,0.9-24.3-8.6-17.7c0.9,4,3.1,7.3,5,10.7c-0.3,0.3-0.6,0.7-1,1c-3.9-3.9-5.3-9.8-8.9-13.7c-38.1-3.1-43.5-48.5-64.9-72.3   c-3.1,21.6,1.7,25.8,13.3,43.2C406.4,276.3,407.8,287.4,430.7,290.5z M311.6,259.2c-5.2-4.7-3.6-0.8-6.5,1.4l0,0   c-0.1-0.9-0.1-1.8-0.2-2.8c-0.7,0-1.1,0-1.4,0c-0.8,0.7-0.8,1.7-1.2,2.6c0.2,0.8,0.5,1.6,0.7,2.3c-16.3,33.6,2.2,72-0.7,107.4   c0.5,8.4,16.2,7.7,22.5,9.1c13.5,2.3,27.1,0.4,40-4.2c0-3.8-0.3-7.3,1.4-10.7c0.5-0.2,0.9-0.5,1.4-0.7c0,0.5,0,1,0,1.4   c-1,1.2-1,1.2,0.1,2.2c3,0.4,5.6-1.7,8.4-2.6c-1.2-30.2,4.8-60.8-0.4-90.7c-0.6-0.2-1.2-0.3-1.9-0.5c-0.3-1-0.3-2.4-2.1-2.5   c-0.1,0.9-0.3,1.7-0.4,2.5c-3.3-0.3-6.9,1.4-9.5-0.4c1.1-0.3,2.5,0.3,3.2-1.1c-0.8-1.3-1.5-2.7-2.3-4c-4.2,0.2-8.2-0.5-12.4,0.3   c0,1.6-0.1,3.1-0.1,4.6c-0.7,1-0.8,1-1.5,0.2c0-1.7,0.1-3.4,0.7-5c-1.1-1.4-2.9-0.6-4.4-0.7c-1.6,0.1-3.3-0.5-5.1,0.2   c0,1.4,0,2.7,0,4c-0.3-0.1-0.7-0.1-1.3-0.2c-0.2-1.5,0.4-3.3-0.6-4.5c-0.9,0-1.9,0-3,0c-0.2,2.1,0.2,2.6-1.6,4.3   c0.1-2,0.2-3.3,0.2-4.5c-0.9-0.9-1.9-0.8-2.8-0.5c-0.4,1.1-0.8,1.9-1.1,2.8c-0.3,0-0.5,0-0.8,0c1.4-6.8-6.7-4.8-10.8-7   c-1.1,1.1-1,3.7-2.9,3.5c0.3-1.2,2.5-3.5,0.7-4.2c-1.6,0.5-0.9,2.6-2.6,3.4c-0.1-1.7,0.1-2.8,0.5-4.4c-0.3-0.2-0.6-0.4-0.8-0.7   C312.5,259.3,312,259.2,311.6,259.2z M436,371c0-4.2-2-8-1.7-12.2c0-1,0.5-2.2-0.5-3c-1.5-2.7,0.5-7.9-2.2-9.3   c-9.4,4.7-10.5-4.7-10.6-12c-1.1-1.5,0.2-3.6-1.5-5.4c4.4,99.2,65.9,163.9,25.9,265.1c6.9,17.4,25.5-62.2,25.8-68.1   c-0.5-0.4-0.9-0.6-1.3-0.9c-0.2-0.7-0.4-1.5-0.7-2.2c1.2-0.5,0.4-1.9,0.6-2.9c3.1-1.7,4.2-40.2-0.5-37.6c-0.3-0.3-0.6-0.6-0.9-0.9   c9.1-5.7,22.5-1.3,33.1-2.8c30.3,1.1,61.3-2.4,91.2,1.4c0,0.4-0.1,0.9-0.1,1.3c-1.3,0.1-2.3,0.2-3.4,0.2c-2.9,12-1,24.1-0.9,36.2   l0,0c-37.3,2.1-75.2,0.1-112.8,0.7c-3.9-0.8-6.4,3.6-3.7,6.6c38.7,1.7,77.7-0.2,116.4,0.7c0,0.8-0.3,1.6,0.6,2.1   c4.3,23.1,11.2,45.1,19.9,66.8c1.4,0.9,1.9,2.9,3.6,3.6c7.5-6.1-3.1-17.7-3.1-25.6c-7.2-32-12.7-65.1-2.9-97.1   c-45.1-0.9-90.4,0.4-135.6,0c-7.9,0.2-5.7-9.2-5.9-14.4c1.8-1,1.9-2.9,2.4-4.5C451.2,430.3,444.2,400.4,436,371z M318.2,550.4   c0.5-0.3,1-0.7,1.6-1.1c-0.8-0.5-1.2-0.4-1.6,0.1c-3.1,0.4-6.2,0.9-9.5,1.3C310.1,555.4,315.3,551.2,318.2,550.4z M302.1,549   L302.1,549c-6.1,7.9-2.6,17.8-6.5,26.7c12.1,2.8,24.7,2.5,36.9,4.4c16.1,5.5,34.3,9.4,48.1-3.7c-0.8-3.2-1.6-6.3-2.5-9.4   c-7.5,1.9-12.3-3.5-19-5.1c-0.8,0.6-1.8,0.9-2.9,1.1c-0.8-1.2-0.3-3.3-2.6-3c-1,1.4-2.9,3.3-4.4,1.2c0.5-1.1,1-2,1.6-3.2   c-1.1-0.1-2-0.2-2.7-0.3c-2.5,3.6-6.5,3.7-3.7-1.2c-1.3-0.5-2.5-0.9-3.5-1.2c-1.6,0.4-2.7,2-4.4,0.7c-0.5-1.3-0.7-2.9-2.3-3.7   c-1.6,0.5-1.6,0.5-3,0c-0.9-3.2,3.4-4.3,4.4-7.1c-0.9-2.3-1.8-4.7-3.7-6.6c-1.7,0.7-3.2,1.3-4.6,1.9c-0.1,14-25.9,24.3-21.9,3.8   c-0.8-0.3-1.5-0.6-2.5-0.9c-0.1,1.3-0.1,2.4-0.2,3.4C302.1,547.3,302.1,548.1,302.1,549z M581,482.1c0-0.7,0-1.5-1.3-1.1   c-1.4,11.5-1.7,25.2,2.6,36c1.2,0.1,2.2,0.5,3.2-0.4c-0.3-11.9-0.1-23.9,1-35.7c-1.7-0.1-3.1-0.4-4.4,0.2c-0.2,0.7-0.3,1.3-0.4,1.9   C581.5,482.6,581.3,482.3,581,482.1z M480.1,516.3c3.5-11.6,2.4-23.6,1.8-35.6c-1.5,0-2.9-0.6-4,0.4c0,2.4,0,4.5,0,6.7   c-2.5-1.1-0.7-5-1.2-7.5c-1.1,0.6-2.3,0.8-2.8,1.5c1.3,11.8,0,23.4,0.7,35.3C476.5,516.7,478.7,517.7,480.1,516.3z M348.7,552.6   c6.7,6.7,18.4,1.7,27.1,3c5,0.3,9.4-2.5,13.6-5c0-1.1,0-2.1,0-3c1.5-2-0.4-4.8-1.6-6.5c-4.8-0.9-9.5-1.8-14.2-2.7   c-0.9,0.4-1.8,0.7-2.8,1.2c-0.3-0.5-0.6-0.9-0.7-1.3c-0.1-0.5,0.6-1.1-0.2-1.5c-1.2,0.4-1.4,3.2-3.8,1.6c0.2-1,0.4-2,0.6-3   c-0.8-0.4-1.5-0.6-2.1-0.9c-1.3,1.4-1.9,3.4-4.2,3.5c-2.3-1.7,0.5-3.1,1-4.8c-0.8-0.5-1.5-1-2.3-1.5c-1.8,1.3-2.5,3.5-4.8,4.2   c-0.4-0.5-0.9-1-1.4-1.5c1.2-1.6,2.2-3,3.2-4.4c-2.8-3.5-3.1,4.1-7.1,3c-0.1-3.2,2.4-5,3.3-7.1c-0.7-2.1-1.2-3.9-1.8-5.7   c-1.4,0.2-1.8,0.3-2,0.9c-1.2,8.8-9.2,10.1-16.5,11.9c-0.1,1.1-0.1,2.2-0.2,3.4c1.3,0.6,2.5,1.3,3.1,2.8   C337.6,545.5,342.5,549.6,348.7,552.6z M449,329.6c-1.8-0.7-3,2.7-4.4,3.6c-1.1,39.4,19.4,74.6,26.5,112.7c3.4-6,5.8-12.1,9.1-18.2   c-7.3-31.2-30-66.4-28.5-102.1C448.3,326.1,450.6,328.2,449,329.6z M310.2,541c0.3-0.2,0.7-0.5,1.2-0.9c0.8,2.6-0.5,5,0.5,7.3   c17.8,0.9,6.5-9,17.3-10.8c0.9-28.5,9.7-55.4,18.7-82.2c2.9-9.7,2.4-20.1,5.6-29.7c2.3-5.7,7.9-11.6,6.1-18.2   c-0.9,0.7-1.6,1.2-2.2,1.7c1.9-9.6,6.8-19.3,5.5-29.6c-15.1,3.8-30.1,4.8-45.3,2.3c12.8,45.3,1.5,34.9-9.1,74.3   c1.7,30.8,2.1,61.5,0.7,92.1C309.5,545.1,309.8,543.1,310.2,541z M333.3,263.7c5.4,1.2,11.4,1.8,17,1.7c-1.8-1.8-2.9-3.6-2.9-6.3   c2.5,1.8,3,4.5,4.5,6.4c3.9-0.3,8.2,0.6,11.8-0.4c-7.3-8-16.4-15.1-21.7-25c-5.4-9-9.3-18.7-16.4-26.6c-5.2-5.2-6.7-12.9-12.7-17.3   c-11.2-8.6-12.9-23-18-35l0.3,0.1c2.3-0.4,2.3,3.7,4.6,4.4c0,2.1,0.7,3.9,1.7,5.7c9.6-8.8,23-10.2,35.3-10.3   c1.6-3.7,1.3-9.3,4.7-11.7c0.2,0.5,0.3,1,0.5,1.6c-8.3,18.1,20.1,28.5,18.9,64.8c4.1,5.5,9.7,9.5,13.6,15c4.9-17.9-2.6-38-0.5-55.4   c13.7-17.9-8.7-37.3-18.6-51.2c-1.2-2.7-4.4-3.8-7-4.8c-12.2-4.8-22.5-14.8-36.3-14.6c-4,3.7-8.7,6.6-11.6,11.4   c-14.3,7.6-15.4,26.6-12,40.7c-1,12.4,1.1,24.3,6.2,35.8c17,25.6,17.3,33.1,12.6,62.6C315.7,258.9,324.4,262.2,333.3,263.7z    M604.5,458.8c-3.8-11.3-9.6-21.9-14.2-32.8c-2.2-4.6-8.3-4.6-12.7-4.7c-28.2,0.1-56.4,0.1-84.5,0.1c-12.8,0.3-21.5,29.1-23.9,39.4   c-0.7,0.3-1.3,0.6-2.1,1c0.2,3.8-0.8,7.7,1,11.5c45.7,0.6,91.4,0,137,0.2c3.3-2.7,2.3-7.6,0-10.3   C605,461.4,605.5,460.2,604.5,458.8z M482.7,516.7c32.1,0.1,64.4,0.7,96.3-0.2c-1.1-12-3.7-23.5-1.4-35.5   c-31.1-0.3-62.3-0.7-93.5-0.1C486.1,493.1,485.1,504.5,482.7,516.7z M365.2,378.3c1.4,8.9-3.5,17.3-3.3,26   c0.8,4.5-0.3,8.6-1.6,12.8c-3.7,5.7-6.5,11.9-6.7,19c-3.6,30-19.9,57.6-19.9,88.1c3.6,0.6,6.8,0.6,9.8-1.9   c4.6-51.8,28.8-100.9,30-153.2c-2.1,0.4-3.9,0.7-6.1,1.1C367.7,373,366.9,375.7,365.2,378.3z M469.9,449.4   c-8.5-37.4-26.3-73.8-28.2-111.9c-2.7,2.6-4.6,6-7.3,8.6c6.4,36.9,15.5,74.2,33.6,107.2C469.3,452.3,469.2,450.9,469.9,449.4z    M471,537.3c0.8,0.5,1.5,1,2.2,1.5c2.2-3.7,3-7.6,4.4-11.5c-1.5,0-2.7,0-3.9,0C472.4,530.5,471.8,533.8,471,537.3z M586.7,527.4   c-1.6,0-2.8,0-4.1,0c1.1,3.3,1.7,6.5,3.6,9.4c0.8-0.2,1.5-0.4,2.3-0.6C588.5,533,587.1,530.4,586.7,527.4z M333.5,526.6   c-0.4,0.8-1,1.6,0.2,2.7c2.6-0.8,6.3-0.4,8.3-2.7C339.1,526.6,336.5,526.6,333.5,526.6z M369.9,269.2c-1.1-1.1-2-2.2-3.6-2.5   c-0.6,0.3-1.1,0.7-1.8,1.1c0.9,1.2,1,2.8,2.1,3.2c0.6-0.7-0.4-2.1,1.2-2.2c0.7,0.5,0.1,1.8,1.5,2   C369.5,270.2,369.7,269.7,369.9,269.2z M337.8,547.6c-0.7,1.2-1.2,1.8-1.7,2.6c1.6,0.3,3.4,2,4-0.2   C339.6,549.4,338.9,548.7,337.8,547.6z M315.4,72.3c-0.8,0.5-1.4,0.9-2.4,1.6C314.6,74,316.3,74.6,315.4,72.3z M360.8,55.9   c0.5-0.5,1-0.9,0.4-1.4C360.3,54.7,360.3,55,360.8,55.9z" />
	<path fill="#0B0808" d="M369.7,61.6c0.7-0.2,0.7-0.8,0.7-1.4c3.3,3.1,5.8,7.5,1.1,10.7c0.9,1.6,1.8,3,2.7,4.6   c-0.2,0.8-0.5,1.6-0.8,2.5c2.7,4,0.4,5.2-2.3,8.1c2.8,10.3-8.7,12.2-16.3,10.1c-2.2,6.5-3.6,13-3.3,19.9c-0.9,1-2.4,2.3-3.6,0.8   c0.7,0,1.3-0.1,2-0.1c-1.6-7.8,2.4-14.6,2.6-22.3c25.7,2.8,10.7-4.8,20.9-13.3c-0.9-0.9-1.6-1.6-2.2-2.1c-1.5,0.3-2.6,0.5-3.7,0.7   c-0.3-2.1,3.1-3.2,3.8-5.2c-0.8-1.4-1.4-2.7-2.1-4c-1.2-0.7-2.8-0.6-3.9-2.2c0.2-0.7-0.4-3.8,1.3-2.9c-0.1,0.8-0.3,1.6-0.4,2.4   c0.5,0.4,0.9,0.6,1.3,0.9c1.6-1.1,3.1-1.8,5-1.8C372.8,64.6,370.8,63.4,369.7,61.6z M370.5,77.3c1.2-0.2,1.2-0.2,1.7-1.4   C371.5,76.5,371.1,76.8,370.5,77.3z" />
	<path fill="#A8C3C3" d="M363.9,560.5c-1,0.2-1.7-0.5-3.1-1.3c1.5,0,2.3,0,3.1,0C363.9,559.7,363.9,560.1,363.9,560.5z" />
	<polygon fill="#BDB4B4" points="482.5,567.5 482.7,567.4 482.7,567.6  " />
	<path fill="#A39893" d="M469.2,459.7c2.9-9.8,11.3-38.4,23.8-38.4c28.2,0,56.4-0.1,84.5-0.1c4.4,0.2,10.5,0.1,12.7,4.7   c4.6,11,10.5,21.5,14.2,32.8c-0.4,1.5-0.4,1.5-2.3,1.6c-1.7-0.7-3.3,0.1-5,0c-28.3-3.4-59-0.2-88.1-1.3   c-12.7,0.8-26.1-2.2-38.2,2.1C470.2,460.6,469.7,460.1,469.2,459.7z" />
	<path fill="#6D5CA9" d="M366.1,364.5c-1.8,3.4-1.4,6.9-1.4,10.7c-11.6,3.8-24.2,6.7-36.4,4.4c0.5-6-2.1-11.8-1.3-17.7   c1.7,0.5,1.1,2.2,1.9,3.1c1.7,1.8,1.8,4.5,4,5.9c0.1-5.6-3.1-11.3-4.9-16.6c-2.5-9.1-0.6-19.2-1-28.6c2.8,3.6,2.8,8.8,6.4,11.9   c1.8,5.1,0.8,10.7,3.6,15.5c-0.4-4-0.5-8.1-1.3-11.8c0.8,0.1,1.1,1.3,2.1,0.9c-4.1-14.1-6.1-27.8-4.9-42.5c0.2-3.7,2-12.7-1.7-14.4   c0.1-3.6-0.6-7.1,1.2-10.5c1.9,4.2,1,19.8,5,20.4c2-7.1-0.2-14.1,0.6-21.3c7.1,0.6,14.3,0.6,21.5,0.7c2.1,5.7,2,12.3,4.8,17.9   c1.1-0.2,1.1-0.9,0.9-1.4c-1-5.6-0.6-11.7-1.2-17.3c2.3-0.1,4.7-0.2,7.3-0.4c0.1-0.7,0.2-1.6,0.4-2.5c1.8,0.1,1.7,1.6,2.1,2.5   c0.7,0.2,1.3,0.4,1.9,0.5c5.2,29.9-0.8,60.5,0.4,90.7c-2.8,0.9-5.4,3-8.4,2.6c-2-17.6,7.5-33.9,6.4-51.4c-1.2-3.2,2.9-12,0.3-12.9   c-3,9.2-0.5,19.2-3.1,28.5C369,342.4,364.5,353.3,366.1,364.5z M336.2,362.2c-0.8,4.8-1,9.6-1.3,14.4c2.6-3.1,2.5-11.5,1.6-15.3   C336.4,361.6,336.3,361.9,336.2,362.2z M367.2,331.6c-2.3,2.3-6.9,3.7-6.4,6.9C363.4,336.5,367.4,335,367.2,331.6z M353.9,363.6   c3.5-0.2,6.3-3.1,9.9-5.3C359.7,358,356.6,361.1,353.9,363.6z M372.7,362.6c-0.7-3-2.3-4.5-3.8-6.2   C367.5,358.8,370.7,360.8,372.7,362.6z M370.5,278.4c-0.2,2.4-0.2,2.4,0.1,4.7C371.8,281.5,372.2,280.3,370.5,278.4z M357,375.8   c0.6,0.7,2.2,0,1.4-0.9C357.7,374.6,357,375.2,357,375.8z" />
	<path fill="#E0DEE5" d="M342.1,150.9c-0.2-0.5-0.4-1.1-0.5-1.6c-3.3,2.4-3.1,7.9-4.7,11.7c-7.3-0.1-14.7,1.3-21.9,2.1   c0.1-1.3,0.2-2.6,0.2-3.6c-23.5-16.9-28-36.5-3-54.9c13.9-0.2,24.1,9.8,36.3,14.6c2.6,1,5.8,2,7,4.8c9.9,13.9,32.4,33.4,18.7,51.2   c-2.2,17.4,5.4,37.6,0.5,55.4c-4-5.5-9.5-9.5-13.6-15c0.4-15.1-5.6-29.3-13.1-42.1c0.1-0.4,0.2-0.8,0.4-1.4   c3.8,2.5,8.3,0.9,12.1,2.7c6,1.2,15-6.3,11.2-13.1C366.6,184.6,348.1,160,342.1,150.9z M328.2,128.5c-1.2-1.7-1.8-4.5-4.4-4   c1.5,2.2,2.3,3.9,4.2,5.2C328,129.2,328.5,128.9,328.2,128.5z M359.6,191c3.6-2.9,6.5-6.3,7.6-8.7   C363.3,182.4,360.1,188.9,359.6,191z M370.6,157.9c0.2,0,0.5,0,0.7,0c0.1-1.7,0.6-2.6-1.5-3.4C369.9,156.1,369.8,156.8,370.6,157.9   z M321.5,123.8c0.5-1.8,0.3-2.1-2-2.6C319.6,122.6,320.2,123.4,321.5,123.8z M341,144.3c-1.1,0.6-1.3,2.4,0.2,2.6   C341.6,146,341.7,145.1,341,144.3z M368.3,149.5c-0.5,0.5-0.9,0.9-0.3,1.4C368.9,150.6,368.9,150.4,368.3,149.5z M341.2,141.7   c-0.2-0.2-0.3-0.1-0.4,0.1c0.1,0,0.3,0.1,0.4,0.1C341.2,141.9,341.2,141.8,341.2,141.7z" />
	<path fill="#B28C7D" d="M357.4,408.2c0.7-0.5,1.3-1,2.2-1.7c1.8,6.6-3.8,12.4-6.1,18.2c-3.2,9.6-2.7,20-5.6,29.7   c-9,26.8-17.8,53.7-18.7,82.2c-1.1,1.1-2.6,0.4-4.1,1c-2.3,4.7-1.6,10.7-9.5,8.9c-0.8-19.6,7.5-37.8,7.8-57   c-3.5,4.4-4,9.3-6.4,14.2c-3.4-28.4-6.5-59.6,10.6-84.7c0.2,5.5,0.2,10.1,1.3,15.3c8.8-8.9,2.4-23.6,5.1-34.9   c0.3-4.1-0.6-8.4-2-12.2c10.6-1.9,20.4-6.8,30.9-8.7c0.6,9.6-2.1,19.2-5.7,28C356.5,406.9,356.2,408.6,357.4,408.2z M353.1,408.9   c-1.1,0.3-0.7,1.2-0.7,2c-3.7,3.3-4.1,7.9-3.8,12.6c-1.8-0.5-1.2,2.9,0.1,1.4c4.6-1.9,7.6-8.5,4.5-12.6c0.3-1.7,1.8-2.3,1.4-4.3   C354.1,408.3,353.6,408.6,353.1,408.9z M347.6,432.9c-0.5,4.2-0.3,5.6,1.1,7.6C350.9,436.7,350.5,433.6,347.6,432.9z M329,438   c-0.1,3-1.7,6.3,0.1,8.6C330.6,444.6,331.6,439.4,329,438z M325.4,460c2.2,0.3,2.3,0.1,2.8-2.8c-0.6-0.4-0.9-0.7-1.7-0.4   C326.1,457.8,325.8,458.7,325.4,460z M328.7,449.5c-1.3,2.1-1.3,3.3-0.1,3.6c0.4-0.7,0.8-1.4,1.2-2.2   C329.4,450.4,329.1,450.1,328.7,449.5z M347.7,426.4c-0.3,1.8-0.8,2.8,0.9,3.6C349,428.1,349.4,428,347.7,426.4z M324.5,472.4   c-0.7-1.1-2-0.7-1.8,0.5C323.4,473.8,323.9,473,324.5,472.4z M324.7,467.9c0.2,0,0.3,0.1,0.5,0.1c0-0.5,0.5-1.2-0.3-1.2   C324.8,467.1,324.7,467.5,324.7,467.9z" />
	<path fill="#544492" d="M333.4,337.6c-3.6-3-3.6-8.3-6.4-11.9c0.4,9.4-1.5,19.5,1,28.6c1.8,5.3,5,11,4.9,16.6   c-2.2-1.4-2.3-4.1-4-5.9c-0.8-0.9-0.1-2.5-1.9-3.1c-0.8,6,1.8,11.8,1.3,17.7c-34.2-2.9-23.6-5.2-27.2-33.3   c0.4-27.1-13.8-60.5,3.2-84.3c8,5.5,17.7,9.7,27.6,9.4c0.1,0.4,0.2,0.9,0.3,1.4c1.6,0,3,0,4.4,0c0-0.1,0-0.2,0.1-0.4   c-1.6-0.3-3.2-0.6-4.8-1c-2.3-2.2-2.5-2.6-1-5.7c0.9-0.3,1.9-0.3,2.8,0.5c-0.1,1.3-0.1,2.5-0.2,4.5c1.8-1.7,1.4-2.2,1.6-4.3   c1.1,0,2.1,0,3,0c0.9,1.3,0.3,3,0.6,4.5c0.6,0.1,0.9,0.1,1.3,0.2c0.1,0.8,0,1.5,0.1,2.3c-0.6,0.1-1.2,0.1-1.9,0.2   c-0.8,7.2,1.4,14.3-0.6,21.3c-4-0.5-3.1-16.2-5-20.4c-1.5,2.7-1.2,5.5-1.2,8.3c-1.9,2.5,0.2,6.8-0.9,9.8c-1.3,5.4,0.6,11.4-2,16.4   c1.2,2.8,1,5.8,2.8,8.8c0.5-6.2-1-12.6,0.6-18.3C331.7,312.5,332.2,325.1,333.4,337.6z M315.2,321.6c1.4,1.5,1.4,1.5,3.7,2.4   c-6.2-7.3-13.6-13.4-18.1-22.1C301.7,310.2,310.4,315.5,315.2,321.6z M324.4,346.9c-0.8-9.8-14.9-28.2-24-31.7   C310.9,324.5,318.2,334.5,324.4,346.9z M303.5,336c-1.4,4.6,5.7,15.3,7.8,20.2C310.9,349,305.9,343.2,303.5,336z" />
	<path fill="#B28C7D" d="M441.6,303.5c-3.4-3.7-9-4-13.2-6.6c-1.8,1.6,1.3,2.3,2.3,3c0.2,0.5,0.1,1,0.1,1.5c-2.3,0-6.5-3.4-7.9-1.1   c1.2,1.5,3,2,4.7,2.3c7.2,0.6,7.8,7.6,12.4,11.7c-0.8,0.1-1.3,0.1-1.9,0.2c-3.7-2.9-6.2-7.2-10.9-8.7c-6.5-7.1-19.4-2.7-25.4-10.9   c0.1-1.1-0.4-1.8-1.5-2.1l0,0c-0.4-8.5-12.4-11.2-13.6-20c-15.1-8.8-27-22.1-39.3-33.9c0.2-0.5,0.4-1,0.6-1.4   c-0.2-0.7-0.5-1.4-0.7-2.1c0.1-0.9-1.8-0.6-0.9-2.1c1.3,0.4,2.6,0.9,3.9,1.3c1.4,2.4,1.2,6.3,4.5,7c0-3.1-1.8-5.5-2.8-8.5   c1.1,0,1.9,0,2.7,0c0.4,0.2,0.9,0.8,1.2,0.7c1.9-0.9,2.8,1.1,4.5,0.6c-3.3-4.7-7.6-8.6-12.9-10.6c-0.8-1.1-2.2-0.8-3.1-1.4   c-0.7,0.4-1.3,0.8-1.8,1.1c-4-4.3-16.6-18.5-15.6-23.7c2.2-0.3,5,0.5,6.6-2.1c-3.6-7.3-10.4-10.6-17.1-14.8   c-2.2-4.6-4.7-9.3-6.1-14.4c8.5-4.4,17.6-5.7,27.2-5c12.3,14.8,19.5,32.9,22.1,51.9c-1.1-0.3-1.8-0.6-2.6-0.8   c-0.6,0.7-0.2,1.2,0.2,1.6c11.8,10,19.9,23.3,27.5,36.5c11.4,16.7,22.4,37.6,44.6,39.9c1.9,4.9,11,5.2,13.1,10.1   C442.2,303,441.9,303.2,441.6,303.5z M426.5,295.5c-1.5-2.3-3.1-2.4-5.5-2C422.8,294.5,424.2,295.3,426.5,295.5z M358.1,246.8   c0-1.9-0.5-2.9-2-3.6C355.6,244.9,356.4,245.8,358.1,246.8z M354.4,214c-0.1-1.5-0.8-2.1-1.9-2.6c-0.3,0.3-0.5,0.6-0.7,0.8   C352.4,213.2,352.8,214.1,354.4,214z M421.1,297.8c-1.3-1.8-2.4-2.5-4.3-2C417.9,296.9,418.9,297.6,421.1,297.8z M361.8,249.8   c-0.9-1.4-1-3.6-2.7-2.6C359.5,248.2,359.8,249.4,361.8,249.8z M363.5,250.4c-0.8,2.1,0.5,2.9,1.9,2.3   C364.9,252,364.3,251.3,363.5,250.4z M350.2,210.5c-0.5,0.5-0.9,0.9-0.3,1.3C350.7,211.6,350.7,211.3,350.2,210.5z M411.8,292.6   c-0.1,1,0.2,1.7,1.3,1.1C412.6,293.2,412.2,292.9,411.8,292.6z" />
	<path fill="#8F8580" d="M422.7,344.9c1.3,3.5,4.3,2.6,7.3,3.1c1,11.4,4.2,22.7,6.8,34.1c0.5-2.3-0.1-4.4-0.2-6.7c0.1,0,0.4,0,0.5,0   c0.8,2.9,1.5,5.8,2.3,8.7c-0.5,0.6-0.9,1.3-1.4,1.8c0.5,1.9,0.9,3.7,1.3,5.5c-0.7,1.1-0.7,1.1,0,2.6c0-0.9,0.1-1.4,0.1-2   c3.3,13.3,6.5,26.9,13.1,39.2c-0.2,0.2-0.5,0.4-0.6,0.5c3.3,9.5,8.2,17.9,12.3,27.1c-1.2,1.4-1.1,1.8,0.6,2.3   c0.2,5.2-1.9,14.6,5.9,14.4c45.2,0.5,90.5-0.9,135.6,0c-0.7,2.1-0.1,4.2-1.3,6c-0.2-0.5-0.4-1.1-0.6-1.6   c-34.2-2.2-68.6-1.3-103-1.4c-11.3,1.3-24.8-2.8-34.6,3.4c1.5,12.1,0.3,25,2.2,36.6c-0.3,0-0.7,0.1-1.3,0.2c0.3,2.2-1,5.3,0.6,7   c-1.9,7.6-4,15.5-4.4,23.3l0,0c-0.9,1.8-4.9,15.3-3,15.9c-0.7,1.5-1.4,3-2.1,4.5c-1.1-0.8-4.5,9.2-4.4,10.9l0,0   c-1.1,2-2.1,3.9-2.9,6.3c0.6,0.1,1.1,0.2,1.5,0.3c-1.1,3.1-1,6.9-3.4,9.3c-1.7,1.9-4.8,0.3-4.5-2c0.4-3.6,2.5-6.8,2.8-10.4   c4.7-9.5,4.8-20.8,7.2-31.1c2.6-16.6,6.6-33.4,4.2-50.2C449.8,450,423,398.8,422.7,344.9z" />
	<path fill="#D5D2DC" d="M300.6,115.9c-13.4,17.4,0.5,32.7,14.6,43.5c-0.1,1-0.1,2.3-0.2,3.6c0.3,0.1,0.6,0.2,1,0.2   c-5.6,2.5-10,3.6-14.4,8c-1-1.8-1.7-3.7-1.7-5.7c0.6-1,2.4-1.2,0.9-2.4c-0.9-1.3-1.1-3.5-3-3.5c-0.5,0.5-1,1-1.5,1.5   c-0.2-0.1-0.5-0.1-0.7-0.1c-0.8-1.7-0.8-3.4-2.9-4.2c0,2.2,0.3,3.6,2.3,4.2c5.1,12.1,6.8,26.4,18,35c7.9,8.4,13.2,19.1,20.5,28.1   c-1.2,0.8-0.9,2.8-0.6,3.9c1.7,11.6,1.9,23.7,0.5,35.5c-9-1.5-17.6-4.8-25.9-8.6c4.7-29.7,4.5-37-12.6-62.6   c-5.1-11.5-7.2-23.4-6.2-35.8C285.3,142.5,286.3,123.6,300.6,115.9z M302.7,162.4c-0.3,1.7-0.2,1.7,1.9,1.8   C303.8,163.5,303.3,163,302.7,162.4z" />
	<path fill="#8F8580" d="M469.2,459.7c0.5,0.4,1,0.9,1.7,1.5c41.5-1.9,85.8,0.2,127.8-0.7c1.2,1.7,1.2,1.7,3.9,0.9   c-0.1-0.3-0.2-0.6-0.4-1c1.9-0.1,1.9-0.1,2.3-1.6c1,1.4,0.5,2.6,0.6,4.3c2.3,2.7,3.3,7.7,0,10.3c-45.5-0.2-91.3,0.4-137-0.2   c-1.8-3.8-0.8-7.6-1-11.5c0.8-0.4,1.4-0.7,2.1-1C469.1,460.4,469.1,460,469.2,459.7z" />
	<path fill="#B1B6B7" d="M302.8,546.7c0.1-1.1,0.1-2.1,0.2-3.4c1,0.4,1.7,0.7,2.5,0.9c-4,20.5,21.8,10.1,21.9-3.8   c1.4-0.6,2.9-1.2,4.6-1.9c1.9,1.9,2.7,4.3,3.7,6.6c-1,2.7-5.3,3.9-4.4,7.1c1.4,0.5,1.4,0.5,3,0c1.6,0.7,1.8,2.4,2.3,3.7   c1.7,1.4,2.8-0.3,4.4-0.7c0.9,0.3,2.2,0.8,3.5,1.2c-2.7,4.9,1.3,4.7,3.7,1.2c0.7,0.1,1.6,0.2,2.7,0.3c-0.6,1.2-1,2.2-1.6,3.2   c1.5,2.1,3.3,0.2,4.4-1.2c2.4-0.4,1.8,1.8,2.6,3c1-0.2,2-0.5,2.9-1.1c6.7,1.6,11.5,7,19,5.1c0.8,3.1,1.6,6.2,2.5,9.4   c-11.6,7.3-27.5,7.9-40.2,1.7c-5.6-0.7-10.6-4.2-16.3-3.7c-1.5-0.4-2.4-1.9-3.7-2.9c-7.4,0.4-15.6,5.3-22.4,1   c1-7.9,4-15.6,4.1-23.6l0,0C303.3,548.5,302.8,547.6,302.8,546.7z" />
	<path fill="#B28C7D" d="M371.8,82.6c-5.6,6.9,2.1,13.1-12.2,11.8c-5.9-1.6-12.3-5.4-16.5-9.9c-5.5-1.2-7.1-7.6-7.9-12.7   c-1.2,0.2-2.2,0.4-3.6,0.7c-1-0.6-2.2-1.3-3.4-2.1c0.4-3,5.5-1.1,5.6-4.6c-0.9-1.2-1.7-2.4-2.5-3.6c1.9-3.2-0.2-6.6-3.8-7.2   c2.2-1.7,4.1,0.1,6.2,1.3c5-0.2,7.4-4.8,10.8-7.7c2.4-1.6,1.3-4.3,1.7-6.6c1.4-6.6-8.4-9.3,0.3-14.4c10.7-1.9,14.6,11.4,17.9,19.4   c-3,0.3-8.6-1.4-9.5,2.2c0.9,0.2,1.8,0.3,2.5-0.5c3.8-0.1,3.9-0.1,7.6,1.7c0.1,0.7,0.2,1.1-0.3,1.8c-0.4-0.3-0.7-0.5-1.1-0.8   c-1.5,2.5-4.7,2.1-6.5,4.7c2.4,0.4,3.7,0.8,5.6,1.8c1.8-0.4,0.2-2.2,1.4-3.1c1.4,4.9,8,7,8.4,12.3c-1.9,0-3.4,0.7-5,1.8   c-0.4-0.3-0.8-0.6-1.3-0.9c0.1-0.8,0.3-1.6,0.4-2.4c-1.7-0.9-1.1,2.2-1.3,2.9c1.1,1.6,2.7,1.5,3.9,2.2c0.7,1.3,1.4,2.6,2.1,4   C367.3,80.3,365,78,371.8,82.6z" />
	<path fill="#977264" d="M353.7,380.4c-6.1,4.7-14.9,4.1-21.7,6.8c1.4,3.9,2.3,8.2,2,12.2c-2.7,11.3,3.7,25.9-5.1,34.9   c-1.2-5.2-1.1-9.8-1.3-15.3c-17,25.1-14,56.3-10.6,84.7c2.4-4.9,2.9-9.8,6.4-14.2c-0.3,19.2-8.6,37.4-7.8,57   c0.5,0.1,1.2,0.2,1.9,0.3c-1.8,1.1-3.7,0.6-5.6,0.6c-1-2.3,0.3-4.7-0.5-7.3c-0.6,0.4-0.9,0.6-1.2,0.9c-0.2-28.3,0-57.4-1.7-85.9   c10.6-39.5,21.9-28.9,9.1-74.3C329.5,382.1,341.7,383.7,353.7,380.4z M328,404.7c-0.6,2.6-0.6,7.5,0,9.9   C330.5,413.2,330.9,405.3,328,404.7z M327.1,398.1c-0.3,1.8-0.7,3.4,0.7,4.7C329.7,401.8,329.7,398.2,327.1,398.1z M325.6,387.1   c-2.3,0.4-2.1,3.7,0.1,3.4C326.4,389.4,326.3,388.4,325.6,387.1z M311.6,531.3c-1.1,2.8-1,2.9,0.4,3.7   C312.5,533.9,312.6,532.8,311.6,531.3z M324.2,381.9c-0.4,1.4-0.8,2.4,0.7,3C325.7,383.8,325.4,383,324.2,381.9z M326.8,394   c-1.8,0.2-1.5,1.1-1,2.6C326.2,395.4,326.5,394.7,326.8,394z M311.4,526.6c0.5-0.5,0.9-0.9,0.4-1.3   C310.9,525.4,311,525.7,311.4,526.6z" />
	<path fill="#B28C7D" d="M365.2,378.3c1.6-2.6,2.5-5.3,2.2-8.3c2.2-0.4,4-0.7,6.1-1.1c-1.2,52.3-25.3,101.5-30,153.2   c-3,2.6-6.2,2.6-9.8,1.9c-0.1-30.5,16.2-58.1,19.9-88.1c0.2-7.1,3-13.3,6.7-19c1.4-4.2,2.4-8.3,1.6-12.8   C361.7,395.6,366.7,387.2,365.2,378.3z" />
	<path fill="#A39893" d="M593.5,480c3.6,0,7.3,0,11.1,0c0.2,0.5,0.4,1.1,0.6,1.6c-8.8,30.2-1.9,61.2,4.2,91.1   c0.1,8,10.6,19.5,3.1,25.6c-1.7-0.7-2.2-2.7-3.6-3.6c-0.8-4.5-2.6-8.4-4.6-12.3c0.3-0.9,0.5-1.8,0.7-2.2   c-5.3-17.3-10.1-34.3-11.6-52.3c-0.2-1.4-1.1-2.7-2.2-3.7c1.7-1.3,0.3-4.3-0.8-5.7c2.9-11.4,0.9-23.8,2.2-35.6   C593.3,482.1,593.7,481.1,593.5,480z" />
	<path fill="#8F8580" d="M480.2,427.7c-3.2,6-5.6,12.2-9.1,18.2c-7.1-38.1-27.7-73.3-26.5-112.7c1.4-0.9,2.6-4.3,4.4-3.6   c-0.2,4.8,0.5,9,2.2,11.9c-1-5.1-1-10.3-0.7-15.4c0.3-0.1,0.6-0.2,1.2-0.4c-0.5,8.1,1,15.8,2.3,23.6c-0.7,0.1-1.4,0.2-2,0.3   c0.5,3.8,0.5,3.8,2,5.7c-1,1-1,1.1,0.1,2.1c1.8,8.9,3.3,17.9,7.3,26.1c-0.2,1.9,1,3.2,1.7,4.8c0.3-0.2,0.4-0.3,0.6-0.5   c1.5,3.3,1.5,8.1,4.3,11c-1.8,0.9,0.1,3.2,0.3,4.7c0.1,0,0.2,0,0.3-0.1c0.1-0.8,0.1-1.6,0.2-2.5c0.9,1.6,0.8,4,1.4,5.9   c-1.9,1.9,2.4,7.3,3.7,9.4l0,0c0,0.7,0,1.4,0,1.7c1,1.7,1.8,3.1,2.7,4.5c0.3-0.1,0.6-0.3,0.9-0.4   C478.2,423.7,478.6,426.2,480.2,427.7z M452.2,348.7c0.6-1.9-0.2-2.7-0.9-3.8C450.8,346.5,451.7,347.3,452.2,348.7z" />
	<path fill="#B1B6B7" d="M348.7,552.6c-6.2-3-11.2-7.1-13.8-13.6c-0.6-1.5-1.8-2.2-3.1-2.8c0.1-1.2,0.1-2.3,0.2-3.4   c7.4-1.8,15.3-3.1,16.5-11.9c0.2-0.6,0.6-0.7,2-0.9c0.6,1.8,1.1,3.6,1.8,5.7c-0.9,2.1-3.4,4-3.3,7.1c4,1.2,4.2-6.4,7.1-3   c-1,1.4-2,2.8-3.2,4.4c0.5,0.6,1,1.1,1.4,1.5c2.3-0.7,3.1-2.9,4.8-4.2c0.8,0.5,1.5,1,2.3,1.5c-0.5,1.7-3.4,3.1-1,4.8   c2.3-0.2,2.9-2.1,4.2-3.5c0.7,0.3,1.3,0.6,2.1,0.9c-0.2,1-0.4,2-0.6,3c2.3,1.6,2.5-1.2,3.8-1.6c0.8,0.4,0.1,1,0.2,1.5   c0.1,0.4,0.4,0.8,0.7,1.3c1-0.4,1.9-0.8,2.8-1.2c4.7,0.9,9.4,1.8,14.2,2.7c6.5,7.3-4,8.8-8.9,12.3   C368.9,553.3,358.9,552.2,348.7,552.6z" />
	<path fill="#977264" d="M387.9,276.6c2,2.1,3.9,4.3,5.8,6.5c-1.4,0.1-1.4,0.1-1.5,1.5l0,0c-17.3-15.9-42.5-28.1-50.7-51.4   c1.4,0.1,2,1,3.2,2c0.2-1.4-0.4-2.1-1.1-2.7c-10.9-8.9-17.2-22.5-24.7-34.3l-0.1,0c0.6-0.1,1.2-0.1,1.8-0.2c-1-2.1-2.4-3.4-6.4-5.8   c-0.5,0.2-1.1,0.4-1.6,0.5c-6-4.4-8.1-11.8-10.6-18.4c2.4-2.7,4.8-5,8.1-6c1.4,5.1,3.9,9.8,6.1,14.4c6.7,4.2,13.4,7.4,17.1,14.8   c-1.6,2.7-4.4,1.9-6.6,2.1c-1,5.1,11.5,19.3,15.6,23.7c0.5-0.3,1.1-0.7,1.8-1.1c0.9,0.5,2.3,0.2,3.1,1.3c-0.4,0.1-0.9,0.2-1.6,0.3   c0.2,3.3,2.2,6.1,5,7.9c-0.2,0.9-0.3,1.9-0.5,2.8c-1.3-0.5-2.6-0.9-3.9-1.3c-0.9,1.5,1,1.2,0.9,2.1c-1.6,0.5-0.2,1.8,0.7,2.1   c-0.2,0.4-0.4,0.9-0.6,1.4c12.4,11.8,24.3,25.1,39.3,33.9C387.2,274.3,387.5,275.5,387.9,276.6c-0.4,0-0.8,0.1-1.6,0.2   c0.5,0.8,0.8,1.3,1.4,2.4C387.8,277.9,387.9,277.2,387.9,276.6z M326.9,196.7c-1.4-0.8-2.1-2.7-4.1-2.9c-1.2,1.8,2.3,5.3,4,4   C326.8,197.4,326.8,197,326.9,196.7c1.2,0.3,1.8,2.1,3.6,1.5C330.5,196.4,327.4,193.5,326.9,196.7z" />
	<path fill="#B28C7D" d="M428.5,289.8c-18.8-0.8-24.8-16.7-35.8-29c-11.6-17.3-16.4-21.6-13.3-43.1c21.4,23.8,26.9,69.2,64.9,72.3   c1.3,1,2.1,2.4,2.5,4.1c-0.2,0.3-0.5,0.5-0.7,0.8c-0.9-0.9-1.8-1.8-2.8-2.8c-1.6-0.4-3.3-0.8-4.6-1.1c-1,0.5-1.6,0.7-2.2,1   c-0.7-0.2-1.4-0.5-2.2-0.7c-0.1-2.4-2.1-1.8-3.9-2.9C430.1,289.1,429.4,289.7,428.5,289.8z" />
	<path fill="#8E847F" d="M588.4,525.8c-38.8-1-77.7,1-116.4-0.7c-0.9-1.6-1.9-2.8-0.7-4.5c38.7-1.4,78.1-1,116.9-0.1   c0.1-0.5,0.2-0.9,0.2-1.2c0.3,0.5,0.8,1,0.7,1.4c-0.3,1.2,1.2,1.4,1.2,2.1C589.6,523.9,589,524.8,588.4,525.8z" />
	<path fill="#977264" d="M342.2,84.1c6.8,5.2,14.5,11.7,23.9,10.2c-4.3,1.7-9.1,0.3-13.5,0.1c-0.1,5.4-2.2,10.7-3.1,16   c-23.7-18.2-13.6-35-25.6-36.1c0.7,9.6-3.6,18.8-4.2,28.2c0.9,0.5,1.4,0.9,2,1.2c-2.7-0.3-5.4-0.6-8.2-0.9   c-0.4-7.6,1.4-16,0.9-23.8c1.8,0,2.6-0.2,2.1-2.1c0.7-1.6,2.4-2.3,1-4.2c0.7-0.4,1.6-0.8,2.2-1.2c-0.4-1.3-0.6-1.9-0.9-2.9   c0.6-0.8,1.2-1.7,1.9-2.6c3.9,3.6,7.1,7.5,13.1,8.5c0.8,2.7,1.4,5.7,3.2,8.1c-0.3,0.5-0.7,0.9-1.1,1.5c2,3.1,3.1,6.5,5.7,10   c-0.4-3.8-1.4-6.5-3.1-9.1c1.8-0.3,2.3-0.1,4.1,0.7C342.5,84.9,342.3,84.5,342.2,84.1z M345,103c0.1,0.4,0.1,0.8,0.3,1.5   C346,103.5,345.6,103.2,345,103c0-1,0.2-2.1-1.2-2.6C343.1,101.8,343.8,102.5,345,103z M341.3,95.6c0.6,1.4,1.1,2.7,2.3,3.9   C345,98,343.2,94.1,341.3,95.6z" />
	<path fill="#A39893" d="M424.8,310.9c-1-1.4,1.5-2.2,2.2-3.2c6.1,0.9,7.7,11.8,14.9,7.9c1.8,0.2,4.2,0.9,5.6-0.4   c0.9-1.4,3-1.5,3.3-3.5c0-0.1,0.7-0.1,1-0.2c1.8-2-0.3-5.1,1.4-7.2l0,0c0,0.6,0.1,1.2,0.8,1.4c0,0,0,0,0,0c0.2,0.2,0.5,0.5,0.7,0.7   c0.5-0.1,1-0.2,1.8-0.5c-3.2-4.5-6-8.7-7.4-14c2.4-2.4,6.8-1.6,6.9,2.2c7.4,24.4-10.4,31.4-22.3,49.4c-0.5,0-1.1,0.1-1.6,0.1l0,0   c-0.4-5.7,0-13.6-2.6-18.5C431.3,320.1,429.8,313.3,424.8,310.9z" />
	<path fill="#E0DEE5" d="M333.3,263.7c1.4-11.8,1.3-23.9-0.5-35.5c-0.3-1.1-0.6-3.1,0.6-3.9c6.9,15.8,17.8,29.3,30.2,40.8   c-3.5,1-7.9,0.1-11.8,0.4c-1.5-1.9-1.9-4.6-4.5-6.4c0,2.7,1.1,4.5,2.9,6.3C344.8,265.5,338.8,264.9,333.3,263.7z M342.9,252   c-1.2-1.1-1.2-2.6-2.6-1.9C340.7,251,341.2,251.7,342.9,252z M342.8,252.5c0.3,1.7,0.7,2.5,1.9,3   C344.3,253.8,344.3,253.8,342.8,252.5z" />
	<path fill="#B28C7D" d="M321.8,103.7c-0.6-0.4-1.2-0.7-2-1.2c0.6-9.3,4.9-18.5,4.2-28.2c11.9,1,1.9,18,25.6,36.1   c0.2,2,0.3,4.1,0.5,6.3C339.9,115.3,332.3,105.6,321.8,103.7z" />
	<path fill="#9BA1A2" d="M298.5,569.3c-0.2,1-0.3,2.1-0.5,3.2c6.9,4.3,15-0.7,22.4-1c1.3,1,2.2,2.6,3.7,2.9c5.7-0.5,10.7,3,16.3,3.7   c12.4,6.4,25.5,4.9,38,0c-13.5,11.4-31,7-46,2c-12.2-1.9-24.8-1.7-36.9-4.4c0.3-2.4,1.2-4.4,2.2-6.3   C298,569.3,298.3,569.3,298.5,569.3z" />
	<path fill="#8E847F" d="M430,319.5c-0.1,1.9,0.4,3.8-0.6,5.6c0.2,1,1.7,1.2,1.2,2.4c-0.4-0.2-0.7-0.4-1.1-0.6   c0.4,5.1-0.7,9.9,1.5,14.7c0.1,0,0.2,0,0.4-0.1c0-1.3,0.1-2.6,0.1-3.9c1.3,1.7,0.4,4,0.5,6c-0.8,0.7-1.7,1.3-2.6,2.1   c-3.8,0-5.3,0.7-5.9-4.1c-0.3-8.6-6.6-22.6-0.8-29.5c1.3,0.2,2.8-0.1,3.7,1.3c0,0,0.5-0.3,0.7-0.4c0.5,0.5,0.9,1,1.4,1.5   c-1.9,0.9,0.2,3.5,0.3,5C429.4,319.5,429.7,319.5,430,319.5z" />
	<path fill="#A19691" d="M467.8,398.7c-6.1-13.8-12.4-28.1-13.9-43.5c-1.4-1.9-1.4-1.9-2-5.7c0.7-0.1,1.4-0.2,2-0.3   c6.7,26.2,15.5,52,27.7,76.2c0,1-0.5,1.8-1.5,2.2c-2.5-3.6-3.5-8.3-6.6-11.7c0,0,0,0,0,0C472.5,410.1,469.1,404.6,467.8,398.7z" />
	<path fill="#D4D1DB" d="M359.1,174.2c-0.9,0-1.7,0-2.6-0.1c0.4-0.4,0.7-0.8,1.1-1.3c-2.4-1.9-2.4-1.9-4.5-1   c0.5,0.6,0.9,1.1,1.4,1.6c-2.1,0.1-4.2,0.2-6.2-1.3c-0.1,0.6-0.3,1-0.4,1.4c-6.3-6.8-9.8-13.6-5.8-22.7c6,7.7,11.1,17.5,21.3,20.5   C361.9,172.2,359.3,172.1,359.1,174.2z M348.8,166.7c-0.4,0.6-0.6,0.9-0.8,1.2C348.9,168.8,349.8,167.7,348.8,166.7z M350.3,169.2   c0,0.2,0,0.4,0,0.5C351.6,169.8,351.6,169.3,350.3,169.2z" />
	<path fill="#A29792" d="M588.4,519.3c-0.1,0.3-0.1,0.7-0.2,1.2c-38.8-0.9-78.2-1.3-116.9,0.1c0.4-2.1,2.7-2.3,4.4-2.2   C513.1,519.2,551.2,517.1,588.4,519.3L588.4,519.3z" />
	<path fill="#9F9590" d="M442.4,402.4c-1.9-5.5-2.8-10.8-4.3-16.4c0.4-0.6,0.9-1.2,1.4-1.8c7.3,25.1,14,50,27.8,72.5   c-0.4,1.6-0.5,3.4-2.4,4.5c-3.5-0.8,0.6-2-0.4-3.8C455.9,439.3,447.9,421.1,442.4,402.4z" />
	<path fill="#A29792" d="M477.8,487.7c0-2.1,0-4.3,0-6.7c1.1-1,2.5-0.4,4-0.4c0.6,12.1,1.7,24-1.8,35.6c-1.4-0.1-2.8,0.4-4.1-0.4   C479.2,506.7,477.5,496.8,477.8,487.7z" />
	<path fill="#A19691" d="M581.8,482.9c0.1-0.6,0.3-1.2,0.4-1.9c1.3-0.7,2.7-0.4,4.4-0.2c-1.1,11.8-1.3,23.8-1,35.7   c-1,0.9-2.1,0.5-3.2,0.4c-1.5-2.2-2.8-5.3-1.3-7.8C583.6,502.6,580,490.9,581.8,482.9z" />
	<path fill="#89807B" d="M592.7,486.4c-2,9.9,1.4,21-2.1,30.6c-0.6,0-1.2,0-1.5,0.7c-0.2,0-0.5,0-0.7,0c-0.1-12.1-2-24.2,0.9-36.2   c1.1-0.1,2.1-0.1,3.4-0.2c0-0.5,0.1-0.9,0.1-1.3c0.3,0,0.5,0,0.8,0c0.2,1.1-0.2,2.1-0.8,3c-0.3,0.1-0.7,0.1-1.2,0.2   c-0.1,1.8-0.5,3.4,0.1,5.2C592,487.6,592.4,487,592.7,486.4z M591,503c0.6-4.3,0.5-8.8-0.2-12.5C591.2,495.1,588.6,499.9,591,503z    M590,505.8c-0.3,2.3-0.5,4,0.3,5.6C590.4,509.8,591.1,508.2,590,505.8z" />
	<path fill="#9B9FA0" d="M348.7,552.6c14-1.1,28.9,4.5,40.7-5c0,1,0,1.9,0,3C384.9,556.3,352.3,558.9,348.7,552.6z" />
	<path fill="#8A817C" d="M477.8,487.7c-0.8,1.8,0.3,3.4,0.1,5.4c-1.6,1.2-1.6,1.7,0,3.5c0,0.5,0,1.1,0,1.6c-1.9,1.6-2,2.6,0,4.2   c0.3,4.6-0.7,9-2,13.4c1.3,0.8,2.8,0.3,4.1,0.4c-1.3,1.4-3.6,0.4-5.6,0.7c-0.6-11.8,0.7-23.5-0.7-35.3c0.5-0.7,1.7-0.9,2.8-1.5   C477.1,482.7,475.3,486.6,477.8,487.7z" />
	<path fill="#897F7A" d="M595.6,543.1c0.5,2.9,1.2,5.9,1.5,8.8c-2.1,1.7,1.7,10.4,2.7,12.9c0.2-0.7,0.3-1,0.4-1.3   c0.9,1.7,0.8,4,1.3,5.9c-0.5,0.9-0.9,1.8-1.3,2.8c-4-11.2-5.7-23-9-34.4c-0.5-4.8-4.2-10,0.2-13.5c0.5,0.5,0.9,1,1.4,1.6   C591.1,528.8,593.3,540.8,595.6,543.1z" />
	<path fill="#A09590" d="M469.2,518.6c-0.5-11.7,1.1-23.8-1-35.3c0.5-0.4,0.8-0.7,1.2-1c0.2,0,0.4,0,0.5,0c0.5,0.3,1,0.5,1.4,0.8   c0.6,12,3.1,25.7-1.5,36.8c-0.2-0.3-0.4-0.5-0.7-0.8C469.2,519,469.2,518.8,469.2,518.6z" />
	<path fill="#0E0C15" d="M366.1,364.5c-1.7-11.3,2.9-22.1,5.1-32.9c2.6-9.4,0.1-19.3,3.1-28.5c2.6,0.8-1.5,9.9-0.3,12.9   c1.1,16.4-7.5,31.5-6.5,47.8C367,364,366.6,364.3,366.1,364.5z" />
	<path fill="#0C0812" d="M331.9,271.5c-9.9,0.4-19.7-3.9-27.6-9.4c-0.5-1.3-0.5-1.3,0.8-1.5l0,0c0.4,0.8,0.8,1.4,2.1,1.2   c-0.4-1.8,1.6-2.9,1.4-4.8c0.8,0.4,1.5,0.8,2.3,1.3c-1,0.4-1.5,1.2-1.5,2.3l0,0c-0.5,0.7-1,1.5-1.5,2.1c2.4,2.6,6.8,3.1,9.8,4.8   c0.6-1.9,1.3-3.7,1.9-5.4c0.5,0.2,0.9,0.5,1.4,0.7c-0.6,1.7-2.1,3.3-1.1,5.6c0.7,0,1.5,0.1,2.1,0.1c0.7-2.1,1.7-3.6,1.8-5.6   c0.6,0.2,1.1,0.5,1.7,0.7c-0.8,1.7-1.8,3.4-1.4,5.6c1.5,0.2,2.9,0.4,4.2,0.5c0.3-0.4,0.4-0.8,0.6-1.1c0.3,0,0.5,0,0.8,0   C329.7,270,331.3,270.4,331.9,271.5L331.9,271.5z" />
	<path fill="#977163" d="M402.2,295.6c6.5,7.2,18.5,3.3,24.9,10.1C418.1,305.7,406.7,304.7,402.2,295.6z" />
	<path fill="#140D0C" d="M327.6,55c3.5,0.6,5.7,4,3.8,7.2c0.8,1.2,1.6,2.3,2.5,3.6c-0.1,3.5-5.2,1.6-5.6,4.6   c-0.7-0.6-1.5-1.3-2.2-1.9c1.3-0.6,1.9-1.2,2.9-2.4c-1.5-0.5-2.4-0.9-3.6-1.6c-0.2-1.3-0.4-2.5-0.6-3.9c0.9-1.5,2.3-2.2,4.1-2.4   c0.3,1.7-1.7,1.9-2.7,2.6c0.3,1.1,0.5,2,0.7,2.9c1.6,0.5,2.8,1,3.5,2.5c0.2,0.6,0.9,0.8,1.4-0.2c-0.9-1.2-2-2.3-2.7-3.7   c0.6-1.4,2.9-3.8,0-4.3c-1.3-2.1-3.2-1.4-4.8-1.2c-0.4,1.1-0.7,1.9-1,2.8c0-1.4,0.1-2.8-1.4-3.6C322.5,53.2,325.6,55.8,327.6,55z" />
	<path fill="#AB8778" d="M430.7,301.4c0-0.3,0-0.6,0.1-0.9c7.8,0.5,11.6,7.4,15.5,13.3c-1.8,1.3-3.1,0-4.6-0.1   C437.6,309.8,436.6,303.2,430.7,301.4z" />
	<path fill="#0F0A08" d="M326.1,68.4c1.6,1.6,3.8,3,5.6,4c1.3-0.3,2.4-0.4,3.6-0.7c0.7,4.8,2,10.5,6.9,12.4c0.2,0.4,0.3,0.8,0.7,1.6   c-5.6-1.5-8-6-8.9-11.2c-6-0.9-9.2-4.8-13.1-8.5c0.3-0.3,0.6-0.6,1-0.9c0.5,0.3,0.9,0.5,1.4,0.8l0,0   C324.2,66.8,325.1,67.6,326.1,68.4z" />
	<path fill="#9C928D" d="M467.1,530.9c0.5-2,1.2-3.9,1.5-5.9c0.4,0,0.9,0,1.3,0c0.4,0.3,0.8,0.5,1.3,0.9c-0.9,7.3-2.7,14.5-4.9,21.5   C463.5,543.8,469.9,534.2,467.1,530.9z" />
	<path fill="#1C1412" d="M430.7,301.4c5.9,1.8,6.9,8.4,10.9,12.3c-0.9,1-2.4,2.4-3.6,0.8c0.6-0.1,1.2-0.1,1.9-0.2   c-4.6-4-5.2-11-12.4-11.7c-1.7-0.3-3.5-0.8-4.7-2.3C424.2,298,428.4,301.3,430.7,301.4z" />
	<path fill="#766E6A" d="M581.1,487.2c0,0.8,0,1.6,0,2.3c-1.9,3.3-0.1,8.6-0.6,12.6c0.8-1.8,0.3-3.7,1.2-5.5c0,2.5,0,4.9,0,7.4   c-1.5,1.9,0.1,4.6-1.4,6.5c-1.2-9.5-2.4-20.1-0.6-29.6c1.3-0.4,1.3,0.4,1.3,1.1C580.2,483.6,579.8,485.9,581.1,487.2z" />
	<path fill="#2D2B29" d="M469.4,482.3c-0.4,0.3-0.7,0.6-1.2,1c2.1,11,0.5,22.5,1,33.6c-2.4-11-0.5-23.5-2.2-34.9   c0.6-0.2,1.1-0.4,1.5-0.6C468.8,481.7,469.1,482,469.4,482.3z" />
	<path fill="#9C928D" d="M471,537.3c0.8-3.6,1.5-6.8,2.7-10c1.3,0,2.5,0,3.9,0c-1.4,3.9-2.2,7.8-4.4,11.5   C472.4,538.3,471.8,537.9,471,537.3z" />
	<path fill="#17111F" d="M340,273.7c-0.1-0.2-0.1-0.5,0-0.7c1.7,0.1,3.6,0.7,5.3,0.2c0.1-1.9,0.2-3.5,0.2-5.2   c-0.1-0.2-0.3-0.4-0.5-0.7c1.5,0.1,3.3-0.6,4.4,0.7c-0.6,0-1.3,0-2.1,0.1c0,1.9,0,3.5,0,5.3c0.5-0.1,1-0.2,1.4-0.3   c0.8,0.8,0.9,0.8,1.5-0.2c1.2,0.2,2.4,0.5,3.1-0.1c0.4-1.9,0.8-3.4,1.2-4.9c0.2,0,0.5,0,0.7,0c0.2,1.5-0.3,3.1,0.7,4.4c0,0,0,0,0,0   c0.8,1.1,2,0.4,3,0.7c-0.7,1.6-2.8-0.1-3.6,1.4C350.1,274.4,344.9,275,340,273.7z" />
	<path fill="#100C0A" d="M436.6,291.8c0.6-0.3,1.2-0.5,2.2-1c1.3,0.3,3,0.7,4.6,1.1c3.5,3.7,6.2,8.4,8.4,13   c-0.3,0.3-0.5,0.6-0.8,0.9c-3.6-1.9-7.5-15.4-11.4-12.5C438.6,292.7,437.3,293,436.6,291.8z" />
	<path fill="#919899" d="M298.5,569.3c-0.2,0-0.5,0-0.7,0c0-7.1-0.3-14.5,4.3-20.4C302.1,555.8,299.7,562.6,298.5,569.3z" />
	<path fill="#4A3D82" d="M319.6,262.1c-0.6,1.8-1.2,3.6-1.9,5.4c-3.1-1.7-7.5-2.2-9.8-4.8c0.5-0.6,1-1.4,1.5-2.1   c0.1,0.9,0.1,1.7,0.2,2.9c1.8-1.2,1.8-3,2.8-4.3c0.2,0,0.3,0,0.5,0c0.3,0.2,0.6,0.4,0.8,0.7c-0.3,1.6-0.6,2.6-0.5,4.4   c1.8-0.8,1.1-3,2.6-3.4c1.9,0.7-0.4,3-0.7,4.2c1.9,0.2,1.8-2.4,2.9-3.5C318.7,261.8,319.2,261.9,319.6,262.1z" />
	<path fill="#99908B" d="M586.7,527.4c0.5,3,1.8,5.6,1.8,8.8c-0.8,0.2-1.5,0.4-2.3,0.6c-1.9-2.9-2.6-6.1-3.6-9.4   C583.9,527.4,585.1,527.4,586.7,527.4z" />
	<path fill="#6B5BA8" d="M344.9,267.2c0.2,0.3,0.4,0.6,0.5,0.7c-0.1,1.7-0.2,3.3-0.2,5.2c-1.6,0.5-3.6-0.1-5.3-0.2   c-0.1-1.9-0.1-3.6-0.1-5.6C341.6,266.8,343.3,267.4,344.9,267.2z" />
	<path fill="#232220" d="M433.7,369.5c-0.8-7.4-3.6-14.1-3.7-21.5c-0.8-0.1-1.5-0.2-2.2-0.3c1.1-0.8,2.5-0.9,3.8-1.3   c-0.2,7.5,2.8,14.8,2.9,22.3C434.2,369,434,369.3,433.7,369.5z" />
	<path fill="#958A86" d="M459.1,569.3c0.7-1.7,1.8-3.3,2.2-5.1c0.3,0.3,0.5,0.6,0.8,1c-1.7,5.9-3.5,11.8-6.6,17.2   c-0.2,0-0.5,0-0.7,0c0-0.7,0-1.5,0-2.2l0,0C457,577.1,457.6,572.9,459.1,569.3z" />
	<path fill="#514288" d="M358.8,273c-1-0.3-2.2,0.5-3-0.7c1.2,0,2.3,0,3.5-0.2c0.1-1.1,0.2-2.1-0.1-3.1c-0.6,0.3-0.9,0.4-1.2,0.5   c0-0.5-0.1-1-0.1-1.5c1.5,0,3.1,0,4.6,0c0.8,1.4,1.5,2.7,2.3,4C363.5,273.8,360.9,272.8,358.8,273z" />
	<path fill="#4B3D82" d="M329,268.6c-0.2,0.3-0.4,0.6-0.6,1.1c-1.4-0.2-2.7-0.3-4.2-0.5c-0.5-2.2,0.5-3.9,1.4-5.6   C328.5,263.6,329.4,266,329,268.6z" />
	<path fill="#98796C" d="M439.6,293.3c3.9-2.9,7.8,10.7,11.4,12.5c-0.2,0.3-0.4,0.6-0.5,0.9C445.7,303.8,444.1,296.8,439.6,293.3z" />
	<path fill="#827975" d="M462.1,565.2c-0.3-0.3-0.5-0.6-0.8-1c1.2-5.1,2.9-10,2.8-15.3l0,0c1.5-0.8,0-2.8,1.4-3.7   c0.2,0.7-0.3,1.7,0.7,2.2C464.7,553.3,464.2,559.6,462.1,565.2z" />
	<path fill="#906A5D" d="M394.4,283.9c2.5,2.5,6.6,4.6,5.8,8.7c-1.8-1.3-3-2.9-4-4.9c-1.4-0.3-3.2-0.2-3.2-2.4l-0.1,0   C394.3,285.2,394.3,285.2,394.4,283.9z" />
	<path fill="#1E1614" d="M440.2,299.8c-3.9-1.1-6.9-3.7-10.2-5.8c3.3-2,7,4.6,10.3,2.9c0.4,0.5,0.9,0.9,1.5,1.5   C441.2,299,440.7,299.4,440.2,299.8z" />
	<path fill="#907569" d="M451.8,305c-1-3.8-4.8-6.2-5.6-10.2c0.2-0.3,0.5-0.5,0.7-0.8c1.9,3.5,4.6,6.9,6.4,10.3   c-1.6,2.1,0.5,5.2-1.4,7.2C451.8,309.3,451.8,307.1,451.8,305z" />
	<path fill="#63569E" d="M354.5,267.9c-0.4,1.5-0.7,3-1.2,4.9c-0.7,0.6-1.9,0.2-3.1,0.1c0-1.5,0.1-3.1,0.1-4.6   C351.8,267.7,353.2,268,354.5,267.9z" />
	<path fill="#866B5E" d="M329,58.1c-1.8,0.2-3.2,0.9-4.1,2.4c0.2,1.4,0.4,2.6,0.6,3.9c-0.2,0.3-0.5,0.6-0.7,0.9   c0-1.4-0.3-2.7-1.5-3.7c-0.2-1.8,0.3-3.1,1-4.9c1.6-0.2,3.5-0.8,4.8,1.2L329,58.1z" />
	<path fill="#9A7D70" d="M440.3,296.9c-3.3,1.7-7-4.9-10.3-2.9c-0.8-0.2-0.7-0.8-0.7-1.4c3.8,0.7,8.5,0.1,10.8,3.8   C440.1,296.6,440.2,296.8,440.3,296.9z" />
	<path fill="#4D3F87" d="M323.8,262.9c-0.1,2-1.1,3.5-1.8,5.6c-0.6,0-1.4-0.1-2.1-0.1c-1-2.3,0.5-3.9,1.1-5.6   C321.9,262.8,322.9,262.9,323.8,262.9z" />
	<path fill="#DDE6E6" d="M318.2,550.4c-2.9,0.8-8.1,5-9.5,0.4c3.3-0.5,6.4-0.9,9.5-1.3C318.1,549.8,318.1,550.1,318.2,550.4z" />
	<path fill="#1C1919" d="M591.3,524.3c-0.8,1.4-2.6,1.8-2.3,3.6c-0.9-0.5-0.6-1.4-0.6-2.1c0.6-1,1.2-1.9,1.9-3.1   c0-0.7-1.5-0.9-1.2-2.1c-0.2-0.8-1-1.8-0.7-2.9c0,0,0,0,0,0C591.4,517.7,592.8,522,591.3,524.3   C591.3,524.3,591.3,524.3,591.3,524.3z" />
	<path fill="#373432" d="M450.4,326c-0.2,5.2-0.3,10.3,0.7,15.4c-1.7-2.9-2.4-7.1-2.2-11.9C450.5,328.8,448.8,326.7,450.4,326z" />
	<path fill="#6A6460" d="M422.7,344.9c-1.3,0.9-0.4,3-0.7,4.4c-1.2-4.6-2.1-9.7-2.1-14.6c0.2-0.3,0.5-0.5,0.7-0.8   C421.3,337.4,421.3,341.4,422.7,344.9z" />
	<path fill="#C4CDCD" d="M333.5,526.6c3,0,5.6,0,8.5,0c-2,2.2-5.7,1.9-8.3,2.7C332.6,528.2,333.1,527.4,333.5,526.6z" />
	<path fill="#78726E" d="M433.6,360.9c-0.6-4.8-2.3-9.6-2-14.4c2.1,0.3,1.9,11.8,2.7,14.4C434,360.9,433.8,360.9,433.6,360.9z" />
	<path fill="#85695E" d="M441.6,303.5c0.3-0.3,0.5-0.6,0.8-0.8c1.7,3.3,4.6,5.8,6.2,9.1C445.9,312.4,443,305.8,441.6,303.5z" />
	<path fill="#483F74" d="M369.9,269.2c-0.2,0.5-0.4,1-0.5,1.5c-1.4-0.1-0.8-1.5-1.5-2c-1.5,0.1-0.6,1.6-1.2,2.2   c-1.2-0.4-1.3-2-2.1-3.2c0.7-0.4,1.2-0.7,1.8-1.1C367.9,267,368.8,268.1,369.9,269.2z" />
	<path fill="#3D3735" d="M602.1,570.9c0.9,3,1.8,6,2.9,9.4c-0.1,0.4-0.4,1.3-0.7,2.2c-0.4-0.8-0.9-1.5-1.3-2.3   C605.2,577.7,599.5,573.4,602.1,570.9z" />
	<path fill="#675D5A" d="M602.1,570.9c-2.6,2.5,3.1,6.8,0.9,9.3c-1-2.7-1.9-5.3-2.9-8c0.4-1,0.8-1.9,1.3-2.8   C601.7,569.9,601.9,570.4,602.1,570.9z" />
	<path fill="#63569E" d="M358.1,267.9c0.1,1.4,0,2.9,0,4.3c-0.7,0-1.4,0-2.2,0c0.3-1.7-0.3-2.9-0.7-4.4   C356.1,267.9,357.1,267.9,358.1,267.9z" />
	<path fill="#74574C" d="M309.4,536.6c0,1.5-0.3,3.1,0.8,4.4c-0.3,2.1-0.7,4.1-1,6.2C308.9,543.8,307.9,539.7,309.4,536.6z" />
	<path fill="#3E346F" d="M305.1,260.6c-1.3,0.2-1.3,0.2-0.8,1.5c-0.5,0.2-0.9,0.5-1.4,0.7c-0.2-0.8-0.5-1.5-0.7-2.3   c0.4-0.9,0.5-1.9,1.2-2.6c0.3,0,0.8,0,1.4,0C305,258.8,305,259.7,305.1,260.6z" />
	<path fill="#63559D" d="M348.7,273c-0.4,0.1-0.9,0.2-1.4,0.3c0-1.8,0-3.4,0-5.3c0.8,0,1.4-0.1,2.1-0.1   C348.8,269.6,348.6,271.3,348.7,273z" />
	<path fill="#909495" d="M337.8,547.6c1,1.1,1.7,1.8,2.3,2.4c-0.6,2.3-2.4,0.5-4,0.2C336.7,549.4,337.1,548.8,337.8,547.6z" />
	<path fill="#3B326B" d="M308.6,257.1c0.2,1.9-1.8,3-1.4,4.8c-1.3,0.2-1.8-0.5-2.1-1.2C307.1,260.1,306,256.7,308.6,257.1z" />
	<path fill="#181932" d="M358.8,273c1,0,2,0.1,3,0.1c0.5,1,1.5,0.4,2.2,0.7c-0.1,0.2-0.1,0.4-0.1,0.6c-2.9,0.2-5.8,0.2-8.7,0   C356,272.8,358.1,274.6,358.8,273z" />
	<path fill="#9C9DA4" d="M300.7,164.7c-0.3,0.3-0.6,0.6-0.8,0.9c-1.9-0.9-2.3-3-3.6-4.4c0.5-0.5,1-1,1.5-1.5c0,2.1,1.1,3.5,2.9,4.5   C300.7,164.3,300.7,164.5,300.7,164.7z" />
	<path fill="#3A3634" d="M468.6,525c-0.1,0.2-0.1,0.5-0.1,0.7c-1.6-1.7-0.4-4.8-0.6-7c0.6-0.1,0.9-0.1,1.3-0.2c0,0.2,0,0.4,0,0.5   c-0.9,1.1-0.8,1.3,0.7,2.1c0.1,0.7,0.1,1.3-0.6,1.6C468.2,521.9,468.7,524.5,468.6,525z" />
	<path fill="#817975" d="M434.4,368.8c-0.1-1.7,0.1-3.4-0.7-5c0.2-0.3,0.5-0.5,0.7-0.8c0.9,2.6,1.3,5.3,1.5,8.1c-0.2,0-0.5,0-0.7,0   C435,370.3,435.3,369.3,434.4,368.8z" />
	<path fill="#70695E" d="M327.6,55c-1.4,0-3,0.5-4.2-0.5c2.3-0.4,4.8-1.7,7.1-0.2C329.5,54.3,328.5,54.3,327.6,55z" />
	<path fill="#140D0C" d="M323.3,61.6c1.3,1,2.6,4.7-0.1,4.4l0,0c0-1.2,0.3-3.1-1.4-2.9C321.5,61.3,322.7,62.6,323.3,61.6z" />
	<path fill="#39383B" d="M295,161.1c-2-0.5-2.3-2-2.3-4.2c2.1,0.7,2.1,2.4,2.9,4.2l-0.3,0.1L295,161.1z" />
	<path fill="#151227" d="M312.4,259.3c-1,1.2-1.1,3.1-2.8,4.3c-0.1-1.2-0.1-2-0.2-2.9c0,0,0,0,0,0c0.7-0.5,1.5-1,2.2-1.5   C311.9,259.2,312.1,259.2,312.4,259.3z" />
	<path fill="#706965" d="M420.6,333.9c-0.2,0.3-0.5,0.5-0.7,0.8c-0.1-1.8-1.2-3.5-0.4-5.7C420.9,330.6,420.4,332.3,420.6,333.9z" />
	<path fill="#201C1B" d="M453.2,304.2c0-0.2,0-0.5-0.1-0.7c0.3-0.3,0.6-0.7,1-1c0.7,1,1.5,2,2.4,3.3c-0.9,0.2-1.3,0.3-1.8,0.5   c-0.2-0.2-0.5-0.5-0.7-0.7c0,0,0,0,0,0C454,305,453.9,304.5,453.2,304.2L453.2,304.2z" />
	<path fill="#1C1B1A" d="M581.1,487.2c-1.2-1.2-0.9-3.6,0-5.1c0.3,0.3,0.5,0.5,0.8,0.8C581.5,484.3,581.3,485.7,581.1,487.2z" />
	<path fill="#755C50" d="M315.3,79c-0.3,0-0.6,0-0.8,0.1c-0.1-0.7-0.3-1.4-0.4-2.1c0.8-0.6,1.6-1.3,2.3-1.9c0.4,0.2,0.7,0.3,1,0.5   c-0.3,0.5-0.5,1-0.8,1.5C315.2,76.6,315.2,77.9,315.3,79z" />
	<path fill="#8D6B60" d="M428.5,289.8c1-0.1,1.6-0.6,2.1-1.5c0.7,0.3,1.2,0.5,1.7,0.8C432.2,291.3,429.8,290.3,428.5,289.8z" />
	<path fill="#4C332D" d="M430.7,290.5c1-0.1,1.5-0.5,1.5-1.5c1.8,0.4,1.9,0.4,2.2,2.1C433.1,291.1,431.8,291.6,430.7,290.5z" />
	<path fill="#292524" d="M427.2,312.9c-0.2,0.1-0.7,0.4-0.7,0.4c-0.9-1.4-2.4-1.1-3.7-1.3c0.7-0.4,1.4-0.8,2.1-1.2   C426,311.1,426.6,312,427.2,312.9z" />
	<path fill="#817975" d="M435.2,371c0.2,0,0.5,0,0.7,0c0.9,1.3,1,2.9,1.2,4.4c-0.1,0-0.4,0-0.5,0C436.2,374,435.7,372.5,435.2,371z" />
	<path fill="#28221E" d="M448.9,308.6c-1.2-0.8-2.4-1.6-3.1-4C447.5,306.1,448.9,306.8,448.9,308.6L448.9,308.6z" />
	<path fill="#8F8580" d="M454.8,582.4c0.2,0,0.5,0,0.7,0c-0.4,1.6-1,3.1-2.2,4.4l0,0C453.1,585.1,454.1,583.8,454.8,582.4z" />
	<path fill="#4D3F38" d="M321.8,63.1c1.7-0.2,1.4,1.7,1.4,2.9c-0.5-0.3-0.9-0.5-1.4-0.8C321.8,64.5,321.8,63.8,321.8,63.1z" />
	<path fill="#645349" d="M315.4,72.3c0.9,2.3-0.8,1.7-2.4,1.6C314,73.2,314.6,72.8,315.4,72.3z" />
	<path fill="#140D0C" d="M322.4,59.3c-0.2,0.3-0.4,0.5-0.7,1c-1-1.4-1-2.6-0.1-3.8C321.7,57.6,321.7,58.5,322.4,59.3z" />
	<path fill="#2E2B26" d="M357.5,48.6c-0.7,0.8-1.6,0.8-2.5,0.5c-0.4-0.9,0.3-1.1,1-1.3C356.1,48.6,356.9,48.4,357.5,48.6z" />
	<path fill="#614D45" d="M322.4,59.3c-0.9-0.9-0.9-2.2-0.6-3.4c0.3,0.2,0.6,0.4,0.8,0.7C322.6,57.5,322.5,58.4,322.4,59.3z" />
	<path fill="#8F8580" d="M468.6,525c-0.3-3.4,0.7-2.8,1.3,0C469.5,525,469,525,468.6,525z" />
	<path fill="#4A3D82" d="M311.6,259.2c-0.7,0.5-1.5,1-2.2,1.5c0-1.1,0.5-1.9,1.5-2.3C311.1,258.6,311.3,258.9,311.6,259.2z" />
	<path fill="#232220" d="M434.3,358.8c-1-0.9-0.6-2-0.5-3C434.8,356.6,434.3,357.8,434.3,358.8z" />
	<path fill="#8F8681" d="M434.5,362.9c-0.2,0.3-0.5,0.5-0.7,0.8c-0.1-1-0.1-1.9-0.2-2.9c0.2,0,0.5,0,0.7,0   C434.3,361.6,434.4,362.2,434.5,362.9z" />
	<path fill="#444547" d="M360.8,55.9c-0.5-1-0.5-1.2,0.4-1.4C361.8,55.1,361.3,55.4,360.8,55.9z" />
	<path fill="#89807B" d="M588.4,517.7c0,0.5,0,1,0,1.5c-0.7-0.3-1.5-0.5-2.2-0.8C586.9,518.2,587.6,518,588.4,517.7z" />
	<path fill="#8F8580" d="M469.9,521.3c-1.5-0.8-1.5-1-0.7-2.1c0.2,0.3,0.4,0.5,0.7,0.8C469.9,520.4,469.9,520.8,469.9,521.3z" />
	<path fill="#906A5D" d="M400.2,292.6c1.1,0.3,1.6,1,1.5,2.1C400.8,294.4,400.2,293.7,400.2,292.6z" />
	<path fill="#453E37" d="M357.4,408.2c-1.2,0.4-0.9-1.2-0.1-1.6C357.3,407.1,357.3,407.6,357.4,408.2z" />
	<path fill="#28221E" d="M448.9,308.6c0.4,0.3,0.8,0.7,1.3,1.1C448.9,310.1,449,309.2,448.9,308.6L448.9,308.6z" />
	<path fill="#0E0C15" d="M367.5,365.2c0,0.7,0.1,1.4,0.1,2.2C366.5,366.4,366.5,366.4,367.5,365.2z" />
	<path fill="#98AAAA" d="M318.2,550.4c0-0.3,0-0.6-0.1-0.9c0.4-0.5,0.8-0.7,1.6-0.1C319.1,549.8,318.7,550.1,318.2,550.4z" />
	<path fill="#919899" d="M302.8,546.7c0,0.8,0.4,1.8-0.7,2.2C302.1,548.1,302.1,547.3,302.8,546.7z" />
	<path fill="#0C0812" d="M327.6,264.2c-0.5-0.2-1-0.4-1.5-0.6C326.7,263.5,327.3,263.5,327.6,264.2z" />
	<path fill="#1C1412" d="M433.6,301.2c-0.5-0.2-1-0.4-1.5-0.6C432.8,300.6,433.4,300.6,433.6,301.2z" />
	<path fill="#8E847F" d="M432.1,343.6c0.5,0,1.1-0.1,1.6-0.1C433,344.5,432.8,344.5,432.1,343.6z" />
	<path fill="#1C1412" d="M432.2,300.6c-0.5,0-0.9-0.1-1.4-0.1c0-0.2-0.1-0.4-0.1-0.6C431.3,299.8,431.9,299.8,432.2,300.6z" />
	<path fill="#2D2B29" d="M471.3,483.1c-0.5-0.3-1-0.5-1.4-0.8C470.6,482.1,471.3,482,471.3,483.1z" />
	<path fill="#151227" d="M313.8,259.9c-0.3-0.2-0.6-0.4-0.8-0.7C313.2,259.5,313.5,259.7,313.8,259.9z" />
	<path fill="#977264" d="M318.9,198.2c-0.1-0.1-0.3-0.2-0.4-0.4C318.8,197.8,318.8,198,318.9,198.2L318.9,198.2z" />
	<path fill="#1E1614" d="M440.1,296.4c-0.2-0.3-0.4-0.6-0.7-0.9C439.6,295.8,439.9,296.1,440.1,296.4z" />
	<path fill="#977264" d="M393,285.3c-0.2-0.2-0.5-0.5-0.7-0.7l0,0C392.5,284.9,392.7,285.1,393,285.3L393,285.3z" />
	<path fill="#876C5F" d="M371.8,82.6c-1.1-1.5-3.2-1.6-4.3-2.9c1.1-0.2,2.3-0.4,3.7-0.7c0.5,0.5,1.3,1.2,2.2,2.1   C372.8,81.7,372.3,82.2,371.8,82.6z" />
	<path fill="#B28C7D" d="M370.5,77.3c0.6-0.5,1-0.8,1.7-1.4C371.7,77.1,371.7,77.1,370.5,77.3z" />
	<path fill="#1B100F" d="M597.1,460.4c-40.8,0.4-83.6,0.1-124.1,0.1C513.5,457.7,557,458.2,597.1,460.4z" />
	<path fill="#1D1C1A" d="M602.2,460.4c0.1,0.3,0.2,0.6,0.4,1c-2.6,0.8-2.6,0.8-3.9-0.9C599.8,459.9,601,460.1,602.2,460.4z" />
	<path fill="#6B5AA7" d="M331.8,299.8c-1.6,5.7-0.1,12.1-0.6,18.3c-1.8-3-1.6-6-2.8-8.8c2.5-5,0.7-11,2-16.4c1.1-3-1-7.2,0.9-9.8   C331.6,288.7,332.2,294.2,331.8,299.8z" />
	<path fill="#554593" d="M359.5,274.5c1.4-0.1,2.9-0.1,4.3-0.2c1.1,5.4,0.1,11.3,1.4,16.7c0.3,0.5,0.2,1.2-0.9,1.4   C361.6,286.8,361.6,280.3,359.5,274.5z" />
	<path fill="#1A1629" d="M331.8,299.8c-0.1-4.6,0.6-9.2-0.6-13.7c0.4,0,0.9,0,1.3,0.1c1.6,13.6-0.9,27.5,0.9,41.2   c-0.2,0.3-0.5,0.5-0.7,0.8C331.2,318.8,332.3,309.3,331.8,299.8z" />
	<path fill="#261F3E" d="M332.7,328.2c0.2-0.3,0.5-0.5,0.7-0.8c1.5,8.3,2.6,17.3,3.5,25.7C333.7,345.2,333.6,336.5,332.7,328.2z" />
	<path fill="#554590" d="M335.6,341.3c-0.8-3.9-1.7-7.7-1.5-11.7c2.2,3.9,2.7,8.2,3.6,12.6C336.7,342.6,336.4,341.4,335.6,341.3z" />
	<path fill="#1C182B" d="M336.9,368.1c-0.5,2.7,0.2,6.8-2,8.5c0.3-4.8,0.5-9.6,1.3-14.4C336.4,364.2,335.8,366.4,336.9,368.1z" />
	<path fill="#181220" d="M367.2,331.6c0.2,3.5-3.8,5-6.4,6.9C360.3,335.3,364.9,333.8,367.2,331.6z" />
	<path fill="#20182C" d="M353.9,363.6c2.8-2.5,5.9-5.6,9.9-5.3C360.1,360.5,357.4,363.4,353.9,363.6z" />
	<path fill="#181322" d="M372.7,362.6c-2-1.8-5.2-3.9-3.8-6.2C370.4,358.1,372,359.6,372.7,362.6z" />
	<path fill="#100C16" d="M336.9,368.1c-1-2-0.9-4.7-0.4-6.8C337.8,363,336.6,365.9,336.9,368.1z" />
	<path fill="#13101C" d="M370.5,278.4c1.7,1.9,1.2,3,0.1,4.7C370.4,280.8,370.4,280.8,370.5,278.4z" />
	<path fill="#53437B" d="M357,375.8c-0.1-0.9,1.6-1.5,1.6-0.3C358.4,376.3,357.5,376.2,357,375.8z" />
	<path fill="#554590" d="M336.2,345c-0.9-0.6-0.6-1.4-0.5-2.3C336.6,343.3,336.2,344.2,336.2,345z" />
	<path fill="#544492" d="M332.6,286.2c-0.4,0-0.9,0-1.3-0.1c0-0.3,0-0.5,0-0.8C331.8,285.4,332.5,285.3,332.6,286.2z" />
	<path fill="#111010" d="M359.1,174.2c4.3-5.8,10.4,0.3,12.5-12.5C375.6,168.7,365.1,177.4,359.1,174.2z" />
	<path fill="#252122" d="M359.6,191c0.5-2.1,3.7-8.6,7.6-8.7C366.1,184.7,363.2,188.1,359.6,191z" />
	<path fill="#362F30" d="M327.5,129.2c-1.8-1-2.3-2.9-3.8-4.8c2.4-0.4,4.2,2.8,4.4,4.7C327.9,129.1,327.7,129.1,327.5,129.2z" />
	<path fill="#281F20" d="M354.5,173.4c-0.4-0.5-0.9-1-1.4-1.6c2.1-0.9,2.1-0.9,4.5,1c-0.4,0.4-0.7,0.8-1.1,1.3   C355.8,173.9,355.2,173.7,354.5,173.4z" />
	<path fill="#040202" d="M370.6,157.9c-0.9-1.1-0.7-1.8-0.8-3.4c2.1,0.8,1.6,1.7,1.5,3.4C371.1,157.9,370.9,157.9,370.6,157.9z" />
	<path fill="#231B1C" d="M321.5,123.8c-1.3-0.4-1.9-1.2-2-2.6C321.8,121.7,322,122,321.5,123.8z" />
	<path fill="#1A1617" d="M341,144.3c0.7,0.8,0.6,1.7,0.2,2.6C339.7,146.7,339.8,144.9,341,144.3z" />
	<path fill="#A8A2A7" d="M368.3,149.5c0.6,0.9,0.6,1.1-0.3,1.4C367.4,150.4,367.8,150,368.3,149.5z" />
	<path fill="#555D60" d="M328.2,128.5c-0.1-0.3-0.3-0.6-0.4-0.9C327.9,127.8,328,128.1,328.2,128.5z" />
	<path fill="#555D60" d="M327.5,129.2c0.2-0.1,0.4-0.1,0.6-0.1c-0.1,0.2-0.1,0.3-0.2,0.5C327.8,129.5,327.7,129.3,327.5,129.2z" />
	<path fill="#655B5E" d="M341.2,141.7c0,0.1,0,0.2,0,0.2c-0.1,0-0.3-0.1-0.4-0.1C340.9,141.7,341,141.5,341.2,141.7z" />
	<path fill="#967264" d="M348.6,423.4c0-3-0.2-5.9,0.8-8.8c0.4,0.2,0.8,0.3,1.1,0.5c0.5-0.8,0.1-1.1-0.5-1.3c0.8-1,1.6-2,2.4-2.9   c0.4,0.1,0.9,0.1,1.3,0.2c-0.1,0.3-0.3,0.7-0.5,1.2c3.1,4.1,0.1,10.7-4.5,12.6C348.7,424.4,348.7,423.9,348.6,423.4z" />
	<path fill="#1B1412" d="M347.6,432.9c2.9,0.8,3.3,3.9,1.1,7.6C347.3,438.4,347.1,437.1,347.6,432.9z" />
	<path fill="#010101" d="M329,438c2.5,1.3,1.6,6.5,0.1,8.6C327.3,444.4,329,441,329,438z" />
	<path fill="#281E1A" d="M325.4,460c0.4-1.3,0.7-2.3,1-3.2c0.8-0.3,1.1-0.1,1.7,0.4C327.7,460.2,327.6,460.3,325.4,460z" />
	<path fill="#493731" d="M328.7,449.5c0.5,0.6,0.7,0.9,1.1,1.4c-0.4,0.8-0.8,1.5-1.2,2.2C327.4,452.8,327.4,451.7,328.7,449.5z" />
	<path fill="#0E0907" d="M347.7,426.4c1.8,1.6,1.4,1.7,0.9,3.6C346.8,429.2,347.4,428.2,347.7,426.4z" />
	<path fill="#1E1513" d="M353.7,411c-0.4-0.1-0.9-0.1-1.3-0.2c0-0.1,0-0.3,0-0.4c0.2-0.5,0.5-1,0.7-1.6c0.5-0.3,1-0.6,1.5-0.9   C355.1,409.4,354.1,410.1,353.7,411z" />
	<path fill="#0F1311" d="M324.5,472.4c-0.6,0.6-1.1,1.4-1.8,0.5C322.5,471.6,323.8,471.3,324.5,472.4z" />
	<path fill="#6F574E" d="M348.6,423.4c0,0.5,0.1,1,0.1,1.4C347.4,426.3,346.8,422.9,348.6,423.4z" />
	<path fill="#0C0706" d="M324.7,467.9c0.1-0.4,0.1-0.7,0.2-1.1c0.8,0,0.3,0.7,0.3,1.2C325,467.9,324.8,467.9,324.7,467.9z" />
	<path fill="#503B34" d="M350.1,413.7c0.5,0.3,1,0.5,0.5,1.3c-0.4-0.2-0.8-0.3-1.1-0.5C349.6,414.3,349.8,414,350.1,413.7z" />
	<path fill="#967264" d="M353.1,408.9c-0.2,0.5-0.5,1-0.7,1.6C352.3,409.7,352.2,409.1,353.1,408.9z" />
	<path fill="#0C0913" d="M324.4,346.9c-6.2-12.5-13.5-22.4-24-31.7C309.5,318.7,323.6,337.1,324.4,346.9z" />
	<path fill="#161124" d="M303.5,336c2.4,7.2,7.4,13,7.8,20.2C309.2,351.3,302.1,340.6,303.5,336z" />
	<path fill="#211935" d="M315.2,321.6c-4.9-6.2-13.5-11.5-14.4-19.7c3.9,7.3,9.6,12.9,15.1,18.9   C315.7,321.2,315.5,321.4,315.2,321.6z" />
	<path fill="#322652" d="M331.9,271.5c1.6,0.3,3.2,0.6,4.8,1c0,0.1,0,0.2-0.1,0.4c-1.4,0-2.8,0-4.4,0   C332.1,272.4,332,271.9,331.9,271.5L331.9,271.5z" />
	<path fill="#352A5A" d="M315.2,321.6c0.2-0.2,0.5-0.5,0.7-0.7c1.2,0.7,2.2,1.7,3,3.2C316.6,323.2,316.6,323.2,315.2,321.6z" />
	<path fill="#0E0908" d="M350.6,231.7c-2.8-1.8-4.8-4.6-5-7.9c0.7-0.1,1.1-0.2,1.6-0.3c1.5,3,3.3,5.8,6,7.8c2.1-0.5,3.5,1.6,5.5,1   c0.4,0.5,0.9,1.1,1.4,1.8c-1.7,0.5-2.6-1.4-4.5-0.6C354.2,232.7,352.5,231.8,350.6,231.7z" />
	<path fill="#946D60" d="M358.8,232.4c-2,0.6-3.5-1.6-5.5-1c-2.7-2-4.5-4.8-6-7.8C351.7,225.4,355.9,228.5,358.8,232.4z" />
	<path fill="#261F1B" d="M350.6,231.7c1.3,0.4,2.9,0.2,3.8,1.3c-0.8,0-1.6,0-2.7,0c1,3,2.8,5.5,2.8,8.5c-3.3-0.7-3-4.6-4.5-7   C350.3,233.5,350.5,232.6,350.6,231.7z" />
	<path fill="#3A2622" d="M426.5,295.5c-2.3-0.2-3.6-1-5.5-2C423.4,293.1,425,293.2,426.5,295.5z" />
	<path fill="#332622" d="M358.1,246.8c-1.8-1-2.5-1.9-2-3.6C357.7,243.9,358.2,244.9,358.1,246.8z" />
	<path fill="#261F1B" d="M354.4,214c-1.6,0.1-2-0.8-2.5-1.8c0.2-0.3,0.4-0.5,0.7-0.8C353.6,211.9,354.3,212.5,354.4,214z" />
	<path fill="#291916" d="M421.1,297.8c-2.2-0.2-3.2-0.9-4.3-2C418.7,295.2,419.8,295.9,421.1,297.8z" />
	<path fill="#342521" d="M361.8,249.8c-1.9-0.5-2.3-1.6-2.7-2.6C360.8,246.2,360.8,248.4,361.8,249.8z" />
	<path fill="#52443D" d="M363.5,250.4c0.8,0.9,1.3,1.6,1.9,2.3C364.1,253.3,362.8,252.5,363.5,250.4z" />
	<path fill="#1D1412" d="M392.9,285.3c-0.2-0.2-0.5-0.5-0.7-0.7c0.1-1.4,0.1-1.4,1.5-1.5c0.2,0.3,0.4,0.5,0.7,0.8   C394.3,285.2,394.3,285.2,392.9,285.3z" />
	<path fill="#31211E" d="M347.9,237.3c-0.9-0.3-2.3-1.6-0.7-2.1C347.4,235.9,347.7,236.6,347.9,237.3z" />
	<path fill="#83675C" d="M350.2,210.5c0.6,0.9,0.6,1.1-0.3,1.3C349.3,211.4,349.7,211,350.2,210.5z" />
	<path fill="#86665C" d="M411.8,292.6c0.4,0.3,0.8,0.7,1.3,1.1C412,294.2,411.7,293.5,411.8,292.6z" />
	<path fill="#332E2D" d="M456.9,441.5c2.6,5.3,7.7,11.6,7.4,17.3c-2.7-5.8-5.6-11.5-8.1-17.3C456.3,441.5,456.7,441.5,456.9,441.5z" />
	<path fill="#2F2B2A" d="M465.5,545.3c-1.4,0.9,0.1,3-1.4,3.7c0-6.1,2.1-12.1,2.9-18.1C469.2,534.3,465.5,541,465.5,545.3z" />
	<path fill="#2F2B2A" d="M464.2,549c0.1,5.5-1.8,10.6-3,15.9C459.3,564.4,463.2,550.7,464.2,549z" />
	<path fill="#3C3836" d="M435.2,371c1.2,3.6,2.3,7.3,1.6,11.1c-1-4.2-2.1-8.4-3.1-12.6c0.2-0.3,0.5-0.5,0.7-0.8   C435.3,369.3,435,370.3,435.2,371z" />
	<path fill="#4F4946" d="M459.1,569.3c-1.5,3.6-2.2,7.7-4.4,10.9C454.7,578.6,458,568.6,459.1,569.3z" />
	<path fill="#5F5855" d="M456.9,441.5c-0.2,0-0.5,0-0.7,0c-2.2-2.8-2.8-6.3-4.2-9.7c0.1-0.1,0.3-0.3,0.6-0.5   C454.6,434.3,455.2,438.2,456.9,441.5z" />
	<path fill="#79706C" d="M445.3,411.7c1.6,2.7,2.2,6.3,2.9,9.4c-2.1-2.6-2.4-6.4-3.6-9.5C444.8,411.7,445,411.7,445.3,411.7z" />
	<path fill="#4E4745" d="M445.3,411.7c-0.2,0-0.5,0-0.7,0c-0.8-3.1-2.2-6.1-2.2-9.3C444.7,404.9,444.3,408.6,445.3,411.7z" />
	<path fill="#4F4946" d="M454.8,582.4c-0.7,1.4-1.6,2.7-1.5,4.4c-0.4-0.1-0.9-0.2-1.5-0.3c0.8-2.3,1.8-4.3,2.9-6.3   C454.7,580.9,454.7,581.7,454.8,582.4z" />
	<path fill="#5F5653" d="M439.4,391.5c0.1,0.9,0,1.5,0,2.6C438.7,392.6,438.7,392.6,439.4,391.5z" />
	<path fill="#211C1D" d="M300.7,164.1c-1.8-0.9-2.9-2.3-2.9-4.5c1.9-0.1,2.1,2.2,3,3.5C300.8,163.5,300.7,163.8,300.7,164.1z" />
	<path fill="#938A90" d="M302.7,162.4c0.6,0.6,1.2,1.1,1.9,1.8C302.5,164.1,302.4,164.1,302.7,162.4z" />
	<path fill="#4F4E51" d="M300.7,164.1c0.1-0.3,0.1-0.7,0.2-1c0.8,0.9,0.8,1-0.1,1.6C300.7,164.5,300.7,164.3,300.7,164.1z" />
	<path fill="#0F0B0A" d="M328,404.7c2.9,0.7,2.4,8.5,0,9.9C327.4,412.2,327.5,407.2,328,404.7z" />
	<path fill="#291E1A" d="M327.1,398.1c2.6,0.1,2.7,3.8,0.7,4.7C326.4,401.4,326.8,399.8,327.1,398.1z" />
	<path fill="#382924" d="M325.6,387.1c0.7,1.3,0.8,2.4,0.1,3.4C323.5,390.8,323.4,387.5,325.6,387.1z" />
	<path fill="#291D19" d="M311.6,531.3c1,1.5,0.9,2.6,0.4,3.7C310.6,534.3,310.5,534.1,311.6,531.3z" />
	<path fill="#1F1513" d="M324.2,381.9c1.2,1.1,1.5,1.9,0.7,3C323.5,384.3,323.9,383.2,324.2,381.9z" />
	<path fill="#32231F" d="M326.8,394c-0.3,0.7-0.5,1.4-1,2.6C325.2,395.1,324.9,394.2,326.8,394z" />
	<path d="M311.4,526.6c-0.4-0.9-0.5-1.2,0.4-1.3C312.3,525.7,311.9,526.1,311.4,526.6z" />
	<path fill="#524D4A" d="M595.6,543.1c-3-3.2-2.1-8.9-3.5-13.1c0.9-1,0.7-2.4,0.8-3.6C593.9,531.8,594.3,537.6,595.6,543.1z" />
	<path fill="#4A4542" d="M600.2,563.5c-0.1,0.3-0.2,0.7-0.4,1.3c-1-2.5-4.8-11.1-2.7-12.9C598.1,555.8,599.2,559.6,600.2,563.5z" />
	<path fill="#302C2A" d="M592.7,486.4c-0.3,0.6-0.7,1.2-1.1,2c-0.6-1.9-0.2-3.4-0.1-5.2c0.5-0.1,0.8-0.1,1.2-0.2   C592.7,484.2,592.7,485.3,592.7,486.4z" />
	<path fill="#221D1B" d="M592.8,526.4c-0.1,1.3,0.2,2.6-0.8,3.6c-0.1-1.5-0.4-2.9,0.6-4.2C592.7,526,592.8,526.2,592.8,526.4z" />
	<path fill="#A29792" d="M589.7,517.9c-0.2,0-0.4,0-0.5-0.1c0.2-0.8,0.9-0.7,1.5-0.7c0,0.2,0,0.5,0,0.7   C590.3,517.8,590,517.9,589.7,517.9z" />
	<path fill="#897F7A" d="M591.3,524.3c0.2-0.5,0.4-1.1,0.6-1.6C592,523.4,592.1,524,591.3,524.3z" />
	<path fill="#89807B" d="M589.7,517.9c0.3,0,0.6-0.1,0.9-0.1c0,0.3,0,0.5,0,0.8C590.2,518.3,589.9,518.1,589.7,517.9z" />
	<path fill="#615956" d="M470,406.7c1.3,3.1,3.9,5.9,3.7,9.4C472.4,414,468.1,408.6,470,406.7z" />
	<path fill="#615956" d="M477.2,421.2c0,0.2,0,0.4,0,0.6c-0.3,0.1-0.6,0.3-0.9,0.4c-0.8-1.4-1.6-2.8-2.7-4.5c0-0.3,0-1,0-1.7   C474.8,417.8,475.9,419.5,477.2,421.2z" />
	<path fill="#6E6662" d="M461.3,383.4c1.2,1.2,1.9,2.7,2.3,4.3c-0.2,0.1-0.3,0.3-0.6,0.5C462.3,386.6,461,385.3,461.3,383.4z" />
	<path fill="#47413F" d="M467.8,398.7c0.8,1.5,0.9,3,0.6,4.6c-0.1,0-0.2,0-0.3,0.1C467.9,401.9,465.9,399.6,467.8,398.7z" />
	<path fill="#363230" d="M452.2,348.7c-0.5-1.5-1.4-2.2-0.9-3.8C452.1,346.1,452.8,346.8,452.2,348.7z" />
	<path fill="#534D4A" d="M453.9,355.2c0,0.7,0.1,1.4,0.1,2.1C452.9,356.3,452.9,356.2,453.9,355.2z" />
	<path fill="#110C0B" d="M326.8,196.7c0,0.4,0,0.7,0,1.2c-1.7,1.3-5.3-2.2-4-4C324.8,194.1,325.4,196,326.8,196.7L326.8,196.7z" />
	<path fill="#261916" d="M326.9,196.7c0.5-3.3,3.6-0.3,3.6,1.5C328.7,198.9,328.1,197.1,326.9,196.7L326.9,196.7z" />
	<path fill="#2F2723" d="M387.9,276.6c0,0.6-0.1,1.3-0.2,2.6c-0.6-1.1-1-1.6-1.4-2.4C387.1,276.7,387.5,276.6,387.9,276.6   L387.9,276.6z" />
	<path fill="#1D1613" d="M337.2,82.7c1.2,0.7,2.3,1.4,3.5,2.1c-0.6,0.1-1.2,0.1-1.9,0.2c1.7,2.6,2.7,5.3,3.1,9.1   c-2.7-3.5-3.7-7-5.7-10C336.5,83.6,336.8,83.2,337.2,82.7z" />
	<path fill="#2E221E" d="M341.3,95.6c1.8-1.5,3.6,2.5,2.3,3.9C342.4,98.3,342,97,341.3,95.6z" />
	<path fill="#352722" d="M315.3,79c-0.1-1-0.1-2.4,1.3-2C316.7,78.2,317,79.1,315.3,79z" />
	<path fill="#3E2D27" d="M345,103c-1.2-0.5-1.9-1.2-1.2-2.6C345.3,100.9,345.1,102,345,103L345,103z" />
	<path fill="#3E2D27" d="M345,103c0.6,0.2,1,0.5,0.3,1.5C345.2,103.8,345.1,103.4,345,103L345,103z" />
	<path fill="#171514" d="M431.5,337.6c0,1.3-0.1,2.6-0.1,3.9c-0.1,0-0.2,0-0.4,0.1c-2.3-4.8-1.1-9.6-1.5-14.7   c0.4,0.2,0.8,0.4,1.1,0.6C431.1,330.9,431.5,334.2,431.5,337.6z" />
	<path fill="#201B1A" d="M430,319.5c-0.3,0-0.7-0.1-1.2-0.2c-0.1-1.5-2.2-4.1-0.3-5C429.5,316,430.5,317.6,430,319.5z" />
	<path fill="#907569" d="M453.2,304.3c0.7,0.2,0.8,0.8,0.8,1.4C453.3,305.5,453.3,304.9,453.2,304.3z" />
	<path fill="#907569" d="M454,305.6c0.2,0.2,0.5,0.5,0.7,0.7C454.5,306.1,454.3,305.9,454,305.6z" />
	<path fill="#4E494B" d="M342.9,252c-1.6-0.3-2.2-0.9-2.6-1.9C341.6,249.4,341.7,250.9,342.9,252z" />
	<path fill="#201E1E" d="M342.8,252.5c1.5,1.3,1.5,1.3,1.9,3C343.6,255,343.2,254.2,342.8,252.5z" />
	<path fill="#8F8580" d="M477.2,421.2c-0.2-0.3-0.4-0.5-0.6-0.8C476.8,420.7,477,421,477.2,421.2z" />
	<path fill="#53484C" d="M348.8,166.7c1,1.1,0.1,2.1-0.8,1.2C348.2,167.6,348.4,167.2,348.8,166.7z" />
	<path fill="#553C40" d="M350.3,169.2c1.3,0.1,1.3,0.5,0,0.5C350.3,169.6,350.3,169.4,350.3,169.2z" />
	<path fill="#8F8580" d="M453.2,432.1c-0.2-0.3-0.4-0.5-0.7-0.8C452.8,431.6,453,431.8,453.2,432.1z" />
	<path fill="#45403E" d="M477.9,502.4c-1.9-1.6-1.9-2.6,0-4.2C477.9,499.6,477.9,501,477.9,502.4z" />
	<path fill="#201D1C" d="M477.9,496.6c-1.6-1.8-1.6-2.3,0-3.5C477.9,494.3,477.9,495.4,477.9,496.6z" />
	<path fill="#312D2C" d="M581.8,496.6c-0.9,1.8-0.5,3.6-1.2,5.5c0.5-4-1.3-9.2,0.6-12.6C582,491.8,581.9,494.2,581.8,496.6z" />
	<path fill="#4C4744" d="M581.1,509.1c0.2-1.7-0.5-3.6,0.7-5C581.5,505,582.3,509.9,581.1,509.1z" />
	<path fill="#0A0909" d="M591,503c-2.4-3.1,0.1-7.9-0.2-12.5C591.6,494.2,591.6,498.7,591,503z" />
	<path fill="#191917" d="M590,505.8c1.1,2.3,0.4,4,0.3,5.6C589.5,509.8,589.7,508.2,590,505.8z" />
	<path fill="#A38072" d="M329.2,61.8l0,0.3c0.7,1.3,1.8,2.5,2.7,3.7c-0.5,1-1.1,0.8-1.4,0.2c-0.6-1.5-1.9-2.1-3.5-2.5   c-0.2-0.8-0.4-1.7-0.7-2.9C327.5,59.7,329.2,60.1,329.2,61.8z" />
	<path fill="#A38173" d="M323.2,65.9c1.2,0.3,1.6-0.9,2.3-1.6c1.2,0.8,2,1.1,3.6,1.6c-1,1.2-1.6,1.8-2.9,2.4   C325.1,67.6,324.2,66.8,323.2,65.9z" />
	<path fill="#866B5E" d="M329.2,61.8c-0.1-1.1-0.6-1.7-1.7-1.7c0.5-0.7,1.9-0.7,1.5-2l0.2-0.1C331.7,58.2,330.2,60.7,329.2,61.8z" />
	<path fill="#866B5E" d="M329.7,63.1c-0.2-0.3-0.3-0.6-0.5-0.9C329.3,62.5,329.5,62.8,329.7,63.1z" />
	<path fill="#866B5E" d="M326.9,65.2c-0.3-0.2-0.5-0.3-0.8-0.5C326.4,64.9,326.6,65,326.9,65.2z" />
	<path fill="#514288" d="M355.2,268.6c0.9,1,0.6,2.4,0.6,3.7C355,271.2,355.3,269.9,355.2,268.6z" />
	<path fill="#1B152A" d="M358,272.3c0-0.9,0.1-1.9,0.1-2.8c0.3-0.1,0.6-0.3,1.2-0.5c0.3,1.1,0.2,2,0.1,3.1   C358.9,272.1,358.5,272.2,358,272.3z" />
</g>
</svg>