<?xml version='1.0' encoding='utf-8'?>
<svg xmlns="http://www.w3.org/2000/svg" version="1.2" baseProfile="tiny" id="Layer_1" x="0px" y="0px" viewBox="0 0 900 600" overflow="visible" xml:space="preserve">
<g id="b_00000114052657837362955530000000127149418640501676_">
	<path display="inline" fill="#020101" d="M473.1,441.4c5.7,6,5.8,14,3.7,21.6c-2,9.7,2.7,20.2,0.5,30.2   c-1.6,12.4-3.3,24.8-3.4,37.3c8.3,3.5,20.3-1.3,28.1,4.6c-0.5,0.2-1,0.5-1.5,0.7c-3.4-0.5-6.3-2-10-1.8c-3,8.2-0.6,17-2.3,25.3   c-0.7,6.2,5.2,8.8,9.7,11.6c20.7-8,37.1,12.4,57.8,10.6c0.7,0.5,1.4,1,2.2,1.4c-20.5,4.8-36.7-17.8-57.1-10.6   c4.1,5.6,10.8,6.1,17.2,7.4c4.1,4.2,3.1,9.2,0.6,14c-0.5,0.1-1,0.2-1.5,0.3c1.3-3.9,2.1-8.5,0.1-12.3c-5.1-0.7-10-2.3-14.7-3   c0-0.7,0.1-1.3,0.1-2.3c-1.4-0.8-2.8-1.7-4.1-2.5c-1.8,0.8-3.1,2.5-5.1,1.7c0-0.2,0-0.5-0.1-0.7c0.5-0.9,3.7-2.9,1.3-3.4   c-0.7,0.8-1.4,1.7-2.2,2.6c-1.3,0.3-2.5,1.4-4.1,0.7c0.7-2,2.4-3.2,3.8-5c-0.6-0.5-1.1-0.9-1.7-1.3c-2.2,2.3-4.5,3.7-7.7,4.6   c0.7-3.3,3.4-4.5,5.3-6.4c-0.4-0.3-0.6-0.6-0.9-0.8c-2.7,1.7-5.2,3.4-8.7,4c1.4-3.5,3.9-5.3,7.1-6.7c-0.3-0.5-0.5-0.8-0.8-1.3   c-3.6,2.3-6.6,4.3-10.3,6.7c0.1-5.2,5.2-6.9,9.3-8.7c-1.8-4-3.2-7.9-6.6-10.4c-3.4,1.7-6.6,3.4-9.9,5.1c-0.5,2.4,0,4.6,1.4,6.8   c-0.6,0.9-1.1,1.8-1.6,2.7c-0.5-0.2-0.9-0.3-1.5-0.6c-2.8,1.9-5.7,3.9-8.9,6.1c-1.6-1.3-3.4-2.7-5.2-4.1c-1.4-1.7-0.9-4.2-2.5-5.7   c-3.5,0.4-3.2,4.9-3.4,7.6c1,8.7-2.8,16.5-3.5,24.9c10.7,4.3,21.4-2.9,31.8,0.2c13.8,6.4,29.5,5.3,43.5,1.5   c0.1,0.2,0.2,0.5,0.3,0.7c-12,8.4-28.3,5.2-41.7,2.1c-3.3-1.1-5.8-4.5-9.6-3c-2.9,2.6-33.9,2.6-26.3-3.1c1.1-5,2.8-10,3.2-15.4   c-22.7-0.3-48.8,10.7-69.7-0.8c-0.3,0-0.4-0.1-0.5-0.3c-0.5-0.4-1-0.9-1.4-1.4c0-0.5,0-1,0-1.6c21,13.6,48.6,1.4,71.7,1.5   c0.2-4.7-0.3-9.4,2.8-13.5c1.3-0.5,2.9-1.1,4.5-1.8c0.7-7.5-3.3-14.5-3-22c0.3-0.3,0.5-0.6,0.8-0.9c2.1,7.9,4.3,15.9,3.9,24.1   c3.1,2.9,8.5,3.6,12,2c-0.1-5.7,2.5-9.4,8-11.3c-1.7-28.3,4.9-56.1,2.2-84.3c2.3-7.5,3-16.1-2.3-22.4   C472.5,442,472.8,441.7,473.1,441.4z M461.3,564.1c1-0.5,2.1-0.6,2.9-2.2c-1.4,0.4-2.3,0.5-2.9,1.5c-3.9,1.9-6.9-0.7-10.4-0.9   c1.7,1.8,3.7,2.8,5.4,4.6C458.2,565.9,459.5,564.9,461.3,564.1z M475.3,546.1c4.9,1.8,7.1,8.1,10.5,11.9c0.8-7.6-0.4-15.7,2.3-23.5   c-4.7-0.6-9.3-1.3-13.9-1.4c-0.6,4.9,0.7,10.3,0.3,15.1C475.7,547.8,475,546.7,475.3,546.1z" />
	<path display="inline" d="M331.4,338.3c0.2-0.1,0.3-0.3,0.7-0.6c0.2,0.7,0.4,1.3,0.7,1.9c1.8-0.5,1.8-3.4,3.6-4.1   c1.2,1.4,0,2.8,0.4,4.4c0.6-0.4,1.2-0.7,2-1.2c1,1.4,0.7,2.7,0.7,4.5c1.9-1.5,2.2-3.6,3-5.5c3.8,0.6-1,6.5,0.4,9   c-0.3,0-0.6,0-0.9,0c-1.9,3.8-0.9,8.4-3.1,12.1c-1-0.9-0.7-2.5-0.7-3.7c-0.6-0.5-1-0.9-1.4-1.3c1.1-2.1,1-4.4,1.4-6.5   c-0.4-0.8-0.8-1.4-1.2-2.1c-1.1,1.6-2.6,1-4,1.2c-3.7,4.2-5.8,3.1-6.2,9.7c0.3,0.5,0.6,1.1,0.7,1.2c-0.1,4.2-1.3,8.4,1.7,11.7   c0.5,1.7,0.1,3.5,1.4,5c3.1-2.5,5.1-5.9,8.2-8c-0.1,0.8,0,2-0.4,2.4c-4.5,4.4-7.4,9.8-10.6,15.2c-3.3,4.8,0.5,10.2,0.7,14.9   c-0.7,2.9,1.9,5.7,0.9,8.8c-0.2,0.1-0.4,0.1-0.7,0.1c-0.4-0.6-0.3-1.6-1.3-1.8c-3.4,12.4,2,18.5,2.8,28.7c-1.7-2.4-2.8-5.1-3.8-7.8   c0-0.8,0.5-1.8-0.7-2.2c-1.9-5.9,0.3-12.1-0.1-18.3c-4.5,4.4-3.3,11.5-6.4,16.8c-0.3-0.5-0.5-1-0.8-1.6c1.3-6.7,0.6-13.6,6-18.8   c-5.1-8.8-18.5-11.6-20.5-23.1c-0.6,0.2-0.9,0.4-1.6,0.6c-0.3-0.8-0.5-1.6-0.8-2.5c-0.8,0.4-1.6,0.8-2.3,1.1c-3-1.8,1.7-4,3.5-5   c-0.9-0.5-1.6-1-2.3-1.4c2.2-2.9,4.4-5.4,4.4-8.9c5-1.2,4.5-10.9,9.8-9.4c2.6-1.3,2.2-4.7,4.6-6.3c2.1-1.9,5.3-1.6,7-4   c0.8,0,1-0.5,1-1.2c0,0,0.1-0.1,0.1-0.1c0.7-0.7,1.3-1.5,2-2.2c0.3,0.2,0.6,0.3,0.9,0.5c-1.3,1.9-3.1,3.1-3.1,5.3   c-1-0.1-1.5,0.4-1.5,1.4c-0.1,0.2-0.2,0.3-0.3,0.5C327.7,344.8,331.5,342.4,331.4,338.3z M321.5,377.8c1.5-0.3,3.1-0.5,4.5,0.3   c0.3,0.9,0.5,1.6,0.7,2.4c1.5-0.8,1.7-2.6,2.6-3.9c-3-2.4-5.4,0-8.6,0.5c-0.7-0.3-1.4-0.7-2.1-1c-2.2,2.3-2.1,4.3,0.3,9   c1.7,0.3,3.7,0.7,5.8,1.2c0.4-1,0.7-1.7,0.9-2.2c-0.3-1.9-0.6-3.6-0.9-5.4C323.4,378.6,322.4,378.4,321.5,377.8z M314.4,385.4   c0.1-0.1,0.3-0.3,0.4-0.4c-0.7-1-0.6-3.1-2-3.3c-0.2,0.5-0.5,1-0.8,1.6C312.9,384,313.6,384.7,314.4,385.4z M323.9,350.3   c-1,0.6-1.7,1.3-2.4,2.6C324.2,351.9,324.2,351.9,323.9,350.3z M309.4,385.8c0.1,1.5,0.7,2.4,2.5,2.7   C311,387.1,310.5,386.8,309.4,385.8z M325,387.6c-1-0.4-1.1-0.6-1.8-0.2C323.7,388,323.9,387.6,325,387.6z" />
	<path display="inline" fill="#050404" d="M557.9,582.9c-0.8-0.4-1.5-0.9-2.2-1.4c17.6-0.4,34.4-7,51.9-8.3c5.5-1.9,16.7,3.7,17.9-4   c2-0.4,1.8-2.4,2.6-3.2c0-4.7,0-9,0-13.4c-19.8,4.3-41.3,2.4-61.5-2.4c17.4-1.7,36,6.6,53.9,1.9c0-0.9,0-1.5,0-2.2   c4-4.4,11.1-3.1,15.9-6.2c4.4-2.8,6-8.3,10.6-10.7c9.6-6.1,10.4-23.9,24.3-21.2c0,0.4,0,0.7,0.1,1.3c4.2,3.7,10.2,10.3,6.9,16.2   c-2.3-7.8-5.3-18.3-15.6-15c-3.9,8.2-8.4,16.4-16.4,21.1c-5.3,7.1-11.1,13.9-20.7,14.4c0,0.1,0,0.3,0.1,0.4c1.3,0,2.6,0.1,3.9,0.1   c4.7,4.5,9.6,10.9,3.8,16.7c-0.4-0.4-0.8-0.9-1.4-1.5c-1.8,3.3-10.6,9.2-6.1,12.8c10.7-1.2,17.7,9.6,28.5,8.2l0,0   c-0.1,0.2-0.2,0.4-0.1,0.6c-9.9,4.6-18.9-8.9-29.1-6.3c-1.7-1.6-2.2-3.8-3.2-5.7C600.4,573.2,579.4,582.8,557.9,582.9z M629.9,565   c1.5-0.1,2.3-1.8,3.5-2.6c0.9-3.8,0.2-5.5-2.9-8.2C629.8,557.8,629.4,561.3,629.9,565z" />
	<path display="inline" fill="#050404" d="M367.9,365.5c0.1,2.6-1.1,4.9-2,7.4c3.9,4.2,2.9,8.6-2.5,10.8c-0.3,1.3-0.7,2.7-1.1,4.2   c13.5,11.9,33.6,34.8,30.1,53.7c-2.4-16.5-11.7-32.3-23.4-44.3c1.9,7.6-0.6,14.8,1.8,21.9c-1.1,1-1.8,2-1.6,3.5   c0.3,4.7-2.2,9.1-2.8,13.7c-2.3,2.8-4.9,13.6-9.6,10.2c11.8-7.3,7-23.1,9.4-34.1c0.7-0.1,1.3-0.1,2.1-0.2   c0.1-5.7-0.4-11.2-0.6-16.9c-2.1-1.9-4.1-3.7-6-5.4c-0.6,0.5-1.1,0.9-1.7,1.3c-1.5-12.3,6.5-21.8,7-33.9   C368.5,359.8,367.6,362.8,367.9,365.5z M365.2,374.7c-1.5,2.3-1.5,2.5-1.4,7.2c1.4-1.3,2.9-2,3-4.2   C366.4,376.9,365.9,375.8,365.2,374.7z" />
	<path display="inline" fill="#050404" d="M343.9,338.7c-0.2-0.8-0.9-0.9-1.6-0.9c0-0.7,0-1.4-0.1-2.1c1.2-1.1,1.2-5.5,0-6.6   c-6.1-18.8,2.9-36.9,6.1-55.5c-11.7,12.1-31.4,5.6-30.2-11.9c2-9.8,14.8-20.6,25.3-16.6c1.3-1,2.6-2,3.9-3.1   c0.3,0.3,0.5,0.5,0.8,0.8c-1.5,1.8-3.1,3.6-4.8,4.8c-5.6-4.9-12.7-0.6-16.4,4.9c-5.6,4.4-8.9,8.2-5,15.4c-0.3,0.8-0.5,1.3-0.7,1.9   c10,12.1,17.1,8.6,28.3,0.8c0.7-1.9,0.9-4.4,2.2-6.1l0,0c0.2,0.2,0.4,0.5,0.7,0.7c-3.6,20.6-14.3,41.5-9.1,62.6   c1.3,3.3-0.5,6.8,1,9.9C344.4,337.9,344.1,338.3,343.9,338.7z" />
	<path display="inline" fill="#060505" d="M342.2,496c-3.4-3.9-7.1-7.7-10.4-11.8c-1,0.1-0.9,0.9-1.1,1.4c-2,6-6.6,10.2-10.7,14.7   c-0.3-0.3-0.6-0.6-0.9-0.9c4.1-5.9,9.1-10.7,11.4-17.8c-14.2-24.3-32.6-26.1-11.4-56c0.4,1.1,0.8,2.2,1.1,3.2   c-1.4,2.7-2.6,5.3-3.9,7.7c0.7,1.8,1.4,3.4-0.6,4.5c-0.1,1.2-0.2,2.2-0.3,3.3c-1.5-2.3-0.2-5-0.8-7.6c-1,0.7-1.4,1.6-1.4,2.6   c-4,2.3-0.3,21.4,3,21.2c-1.6-2.6-2.4-6.1-0.9-8.8c-0.3,7.8,5.7,13.1,10.4,18.6c6.2,8.1,10.7,17,17.4,24.7   C342.9,495.3,342.5,495.7,342.2,496z" />
	<path display="inline" fill="#080607" d="M417,459.5c9.4-12.4,22.8-24.7,37.7-29.4c2.8-0.4,5.7-1.1,8.4,0.7   c0.4,0.6-1.2,0.7-0.3,1.4c-0.2,0.2-0.5,0.4-0.7,0.7c-0.8-0.5-1.6-1-2.6-1.5c-16.5,3.2-30.5,16.4-41.3,28.9   c3.5,9.6,11.5,17.3,19,23.8c1.1-3.6,2.2-7,3.2-10.5c0.3,0.5,0.5,1,0.8,1.6c-1.7,6.2-2.7,12.3-2.4,18.7c-0.2,0-0.4,0-0.7,0   c-1.4-2.4-1.6-5-1.1-7.7C428.1,480.1,417.5,470.9,417,459.5z" />
	<path display="inline" fill="#050507" d="M368.6,569.2c-13-19.5-13.3-43.2-21.3-64.3c0.2-0.6,0-1.4,0.9-1.7   c2.2,5.5,5.2,10.6,7,16.6c2.5-2.8,4.5-5.8,8.3-6.6c0.4,0.2,0.9,0.1,1.4,0.2c0.1,0.8-0.3,1.7,0.6,2.2c-0.1,0.7,1.2,1.1,0.3,2   c-1.6,0.3-2.3-2.9-3.7-1.6c0.2,1.3,0.8,2.6,0.6,3.9c-1.1,0.3-1.3-1-2.2-1.4c-0.1-0.4-0.1-0.8-0.2-1.2c-0.4,0.5-0.7,1,0.2,1.2   c-0.1,0.9-0.1,1.9-0.2,3.1c-0.9-0.6-1.6-1.1-2.3-1.6c-1.1,2,0.6,3.7,0.1,5.6c-0.7-0.3-1.3-0.6-1.8-0.9   c-1.4,15.3,7.4,31.9,15.9,44.6c-0.6,0-1-0.1-1.3-0.1c-0.3-0.2-0.6-0.4-0.9-0.6l0,0c-0.1-0.2-0.2-0.4-0.3-0.6   C369.4,568.4,369,568.8,368.6,569.2z" />
	<path display="inline" fill="#060506" d="M399.2,453c2.4,6.3,3.5,14,3.8,20.9c1,0.5,1.4-0.2,1.5-0.6c0.6-3.5,3.1-5.5,5.4-7.8   c0.3,0.3,0.5,0.5,0.8,0.8c-0.7,0.9-1.5,1.9-2.3,2.9c0,0.6,0,1.3,0,2c-2.6,4.2-6.1,7.1-6.8,12.2c-2.2,1.7-4.4,2.8-4.9,6   c-1.5,6.1-9.3,2.4-13.5,4.5c-0.2,3.5-0.5,6.8-0.7,9.9c-0.9,0.9-1.6,1.6-2.4,2.3c-0.7-0.7-1.5-1.4-2.2-2.2c0.9-0.6,1.8-1.1,2.9-1.8   c1.3-3.3-1.3-9,2.7-10.7c1.1,0.1,0.9-1.3,1.8-1.5c12.7,5.3,5.7-4.3,14.8-7.6C403.8,473,396.3,461.7,399.2,453z" />
	<path display="inline" fill="#050505" d="M678.3,529.3c1-0.9,0.8-2.1,0.9-3.3c0.2,1.3,0.4,2.6,0.6,3.9c-0.3,1-1.5,2.6,0,3.1   c6.1,10.4-7.7,23.1-14.3,30.8c-3.4,6.8-1,17.3-8.9,22.1c-0.6-0.1-1.1,0-1.4,0.7l-0.1,0c-0.2-0.1-0.4-0.1-0.7,0l0,0   c1.5-5.4,6.5-9.3,6.5-15.3c0.1-3,1.2-5.9,2.3-8.7C671.9,553.8,681.7,542.8,678.3,529.3z" />
	<path display="inline" fill="#110F0F" d="M367.1,242.9c-0.8,1-0.9,2.3-0.7,3.4c-3.9,11.1-1.1,22.6,0.5,34.1c-0.7,0.3-0.6,1-0.7,1.6   c-3.4-10.8-6.8-23.1-1.5-34.1c-0.2-0.5-0.5-1-0.7-1.5c0.2-0.7,0.4-1.4,0.6-2.1c-3.8,2.4-6,7.8-9.4,11.3c-1.9,0.7-1.7,3-2.1,4.6   c-1.3,1.1-0.2,2.9-0.7,4.3c-0.2,0-0.4,0-0.7,0l0,0c0-2-0.2-4,0.5-5.9c-0.5-0.6-0.9-1.1-1.2-1.5c4.3-5.2,9-9.4,12.2-15.1   c0.4-0.2,0.9-0.5,1.3-0.7C365.7,241.6,366.5,242.1,367.1,242.9z" />
	<path display="inline" fill="#151211" d="M282.7,524.6c7.9-25.9,18.5-18,19.8-50.5c0.3,0.3,0.5,0.6,0.8,0.8c0.1,5.5,0.2,11-1,16.5   c0.7,0.5,1.5,1.1,2.2,1.7c0,0.4,0,0.7,0,1.1c-0.9-0.2-1.8-0.4-3-0.7c-5.4,11.3-14.3,20.5-18.1,32.7   C283.2,525.8,283,525.2,282.7,524.6z" />
	<path display="inline" fill="#090808" d="M366.3,282c0.1-0.6,0-1.3,0.7-1.6c4.1,8.8,5,18.7,3.1,28.5c-2,5.6,1,14.3-4.4,17.9   C367.8,312.5,370.2,296.6,366.3,282z" />
	<path display="inline" fill="#1F1716" d="M367.1,242.9c-0.3-0.3-0.6-0.6-0.9-1c0.5-0.6,1-1.3,1.4-1.8c-1.4-10.1-2-11.3-12-7.7   c0-0.3-0.1-0.7-0.1-0.9c2-0.9,3.9-1.7,5.8-2.5c1.1,0,2.5,0.9,3.4,0c-0.3-0.5-0.6-1-1-1.7c-3.2,1.2-6.6,1.2-9.1,3.7   c-4.1,0.5-6.1,2.1-5.1,6.5c-1.1,1.5-0.5,3.4-0.7,5.1c-0.2,0-0.4,0-0.6,0c-0.3-0.3-0.5-0.5-0.8-0.8c2-2.3,0-6.1,0.6-9   c2.9-3.1,7-4.3,10-7.1c2.9,1.7,5.8-0.3,8.9,0.6c2.7,0.7,4.1,4.6,1.3,6.1C366.7,236.2,371.8,240.6,367.1,242.9z M367.5,230.9   c-0.1-1.7-0.1-1.7-1.6-2.5C366.3,229.4,366.2,230.6,367.5,230.9z M357.9,227.9c0.3,0.1,0.6,0.4,0.8,0   C358.4,227.5,358.2,227.5,357.9,227.9z" />
	<path display="inline" fill="#181211" d="M500.4,535.9c11.9-2.9,25,4.2,35.1,10c-0.5,0.2-1.1,0.4-1.6,0.6c-7.5-2.6-14.4-8.3-22.6-8   c-1.7,1.9-4.9,0-7.2,0.2l0.1,0.1c0-0.5-0.1-1-0.1-1.5c1.8,0.4,3.5,1.2,5.6,0.5c-2.1-0.4-3.7-1.6-5.5-0.4   C502.9,536.8,501.7,536.4,500.4,535.9z" />
	<path display="inline" fill="#0D0909" d="M534,546.5c11.6-3.5,23.8,0.3,35.1,3c-0.8,0.3-1.9-0.3-2.4,0.7   C555.8,548.2,544.6,548.8,534,546.5z" />
	<path display="inline" fill="#1B1717" d="M314.1,509.8c-5.7,10.1-10.6,20.7-18.2,29.7c-0.3-0.3-0.5-0.5-0.8-0.8   c6.9-9.6,11.3-20.3,18.3-29.6C313.7,509.3,313.9,509.5,314.1,509.8z" />
	<path display="inline" fill="#272322" d="M282.7,524.6c0.2,0.6,0.5,1.2,0.7,1.7c-1.5,8.8-4,18.1-9.4,25.3c-0.7,0.2-1.1-0.5-1.6-0.8   C278.9,544.1,279.8,533.3,282.7,524.6z" />
	<path display="inline" fill="#2A2726" d="M367.9,365.5c0.2-5.9-1.2-10.3-1.3-16.5c1.9-2.9,1-7.6,1.3-11.3c0.4,0.2,0.8,0.5,1.2,0.7   c1.6,4.9,1,9.6-1.4,13.9C369,356.9,369,361.2,367.9,365.5z" />
	<path display="inline" fill="#241E1E" d="M289.4,547.4c-6.3,10.8-3.5,18.2-19,15.9c0-0.2,0.1-0.3,0.1-0.5   c5.5,0.4,12.6-0.8,13.1-7.5l0,0.1c2-2.7,2.8-6.2,5.1-8.7C288.9,546.9,289.2,547.2,289.4,547.4z" />
	<path display="inline" fill="#52403D" d="M244.4,560.4c-0.9,0-1.8,0-2.9,0c-0.2-0.9-0.5-1.8-0.7-2.8c1.8-1,4.1-3.3,6-1.4   c-0.7,0.4-1.3,0.7-2.7,1.5c5.4-0.9,9.1-2,14.2-0.9c-0.1,0.7-0.6,0.9-1.2,0.9c-4.7-0.8-8.9,1-13.5,1.8c0.3,0.1,0.6,0.2,0.9,0.3   C244.4,560,244.4,560.2,244.4,560.4z" />
	<path display="inline" fill="#25211F" d="M310.3,452.1c0.3,1,0.6,2.1,0.8,3.1c-3.2,5.3-5.8,11.4-7.3,17.4c-0.2-0.5-0.5-1.1-0.7-1.6   C304.5,464.4,307.5,458.3,310.3,452.1z" />
	<path display="inline" fill="#232224" d="M399.2,453c-0.8,0.2-0.9,0.9-0.9,1.6c-2.1-4.2-5-8.1-5.8-13c0.9-0.8,0.8-1.9,0.8-3.1   c1,2.4,0.3,5.2,2.6,7.1C397.2,447.7,397.3,450.9,399.2,453z" />
	<path display="inline" fill="#252627" d="M348.2,503.2c-0.9,0.3-0.7,1.1-0.9,1.7c-1.5-3.1-2.5-6.4-5.1-8.9c0.4-0.4,0.7-0.7,1.1-1.1   C346.1,497,346.9,500.2,348.2,503.2z" />
	<path display="inline" fill="#5C3B3A" d="M261.7,552.4c3-1.9,7.1,0.3,10.3-1.3c0.2,0.3,0.5,0.5,0.7,0.8c-0.9,0.8-1.5,2.2-2.7,2.4   c-0.2-0.4-0.4-0.8-0.5-1.1c-2.5-0.2-4.7-0.6-7-0.2C262.2,552.8,262,552.6,261.7,552.4z" />
	<path display="inline" fill="#402E2D" d="M252.4,554c2.9-0.4,5.7-1.6,8.7-1.4c0,0.2,0,0.5,0,0.7c-0.7,0.6-1.4,1.2-2.2,1.9   c-2-0.9-3.8,0.3-5.7,0.2C252.9,554.9,252.7,554.5,252.4,554z" />
	<path display="inline" fill="#1B141C" d="M410.6,466.2c-0.3-0.3-0.5-0.5-0.8-0.8c1.9-2.7,3.8-5.3,7.2-6c0,0.6,0,1.2-0.1,1.9   C414.3,461.5,412.8,464.7,410.6,466.2z" />
	<path display="inline" fill="#382F2E" d="M473.1,441.4c-0.3,0.3-0.6,0.6-0.9,0.9c-2-1.3-3.6-2.8-4.3-5.1c0.3-0.3,0.5-0.5,0.8-0.8   C469.9,438.3,471.7,439.6,473.1,441.4z" />
	<path display="inline" fill="#624542" d="M263.3,562.6c-3.2-0.4-6.5-0.6-9.5-2c0-0.2-0.1-0.4,0-0.6c1.7-0.2,3.3,0.3,4.8,1.1   c1.5,0.8,3.3-0.4,4.7,0.8C263.3,562.1,263.3,562.3,263.3,562.6z" />
	<path display="inline" fill="#493E3C" d="M468.6,436.4c-0.3,0.3-0.5,0.5-0.8,0.8c-1.9-1.5-3.9-2.9-5.8-4.4c0.2-0.2,0.5-0.4,0.7-0.7   C464.7,433.6,466.7,435,468.6,436.4z" />
	<path display="inline" fill="#2D2A29" d="M365.7,326.8c0.5-0.2,0.9-0.5,1.4-0.7c0.5,1.9,0.9,3.9,1.4,5.8c-0.3,0.6-0.5,1.1-0.8,1.7   C367,331.4,366.3,329.1,365.7,326.8z" />
	<path display="inline" fill="#231C1C" d="M331.4,338.3c0,3-2.1,5.7-4.3,7.5l0,0c0-2.2,1.8-3.4,3.1-5.3c-0.3-0.2-0.6-0.3-0.9-0.5   C330,339.4,330.7,338.8,331.4,338.3z" />
	<path display="inline" fill="#555251" d="M314.1,509.8c-0.2-0.3-0.4-0.5-0.7-0.8c0.8-1.6,1.5-3.2,2.8-4.4c0.2,0,0.5,0,0.7,0   c0,0.2,0,0.4,0.1,0.7C316.1,506.8,315.1,508.3,314.1,509.8z" />
	<path display="inline" fill="#342D2C" d="M317,504.6c-0.2,0-0.5,0-0.7,0c0.3-2.1,1.7-3.6,2.8-5.2c0.3,0.3,0.6,0.6,0.9,0.9   c-0.8,1.4-1.6,2.8-2.4,4.2C317.4,504.5,317.2,504.6,317,504.6z" />
	<path display="inline" fill="#240E0E" d="M253.8,559.9c0,0.2,0,0.4,0,0.6c-3.1,0-6.3,0-9.4-0.1c0-0.2,0-0.4,0-0.6   C247.5,559.8,250.7,559.9,253.8,559.9z" />
	<path display="inline" fill="#343537" d="M319.1,425.6c-0.3,0.6-0.5,1.1-0.8,1.7c-1-2.1-0.9-4.1,0.1-6.1   C319.3,422.4,319.1,424,319.1,425.6z" />
	<path display="inline" fill="#686966" d="M252.4,554c0.3,0.4,0.5,0.9,0.8,1.3c-1.7,0.2-3.5,0.5-5.2,0.7c0-0.2,0-0.5,0.1-0.7   C249.5,554.9,250.9,554.5,252.4,554z" />
	<path display="inline" fill="#132525" d="M270.5,563.3c2.3,0,4.6,0.1,7,0.1c-3,1-5.6,1-8.6,0.1   C269.4,563.4,269.9,563.4,270.5,563.3z" />
	<path display="inline" fill="#2D2A29" d="M369.1,338.5c-0.4-0.2-0.8-0.5-1.2-0.7c0-0.7,0-1.5,0-2.2c1-0.6,0.5-1.6,0.8-2.4   C369.6,334.8,369.2,336.7,369.1,338.5z" />
	<path display="inline" d="M342.3,329c1.1,1.1,1.1,5.5,0,6.6C341.9,333.4,342,331.2,342.3,329z" />
	<path display="inline" fill="#695F5D" d="M289.4,547.4c-0.3-0.3-0.5-0.5-0.8-0.8c0.9-1.4,1.6-2.9,3.6-2.8l0,0   C291.3,545,290.4,546.2,289.4,547.4z" />
	<path display="inline" fill="#191E24" d="M368.6,569.2c0.2-0.2,0.4-0.4,0.6-0.6c0.3,0,0.5,0,0.8-0.1l0,0c-0.2,0.7,0,1.2,0.7,1.4   c0.6,0.9,0.9,1.8,0.8,2.9C370.3,571.7,369.1,570.7,368.6,569.2z" />
	<path display="inline" fill="#321313" d="M263.3,562.6c0-0.2,0-0.4,0-0.7c1.8,0,3.6-0.2,5.3,0.7c-0.5,0.2-1.1,0.5-1.6,0.7   C265.7,563,264.5,562.8,263.3,562.6z" />
	<path display="inline" fill="#433E3B" d="M303.1,471c0.6,1.2,1.4,2.8,0.2,4c-0.3-0.3-0.5-0.6-0.8-0.8   C302.7,473.1,302.9,472.1,303.1,471z" />
	<path display="inline" fill="#45403E" d="M295.2,538.6c0.3,0.3,0.5,0.5,0.8,0.8c-0.5,0.7-1,1.4-1.5,2.1c-0.3-0.3-0.5-0.5-0.8-0.8   C294.1,540.1,294.6,539.4,295.2,538.6z" />
	<path display="inline" fill="#9A9896" d="M293.6,540.8c0.3,0.3,0.5,0.5,0.8,0.8c-0.5,1-1,1.9-2.2,2.2l0,0   C292.3,542.6,292.8,541.7,293.6,540.8z" />
	<path display="inline" fill="#2A2726" d="M368.6,333.1c-0.3,0.8,0.2,1.9-0.8,2.4c-0.1-0.6-0.2-1.3-0.2-1.9c0.3-0.6,0.5-1.1,0.8-1.7   C368.5,332.3,368.6,332.7,368.6,333.1z" />
	<path display="inline" fill="#190A0A" d="M266.9,563.2c0.5-0.2,1.1-0.5,1.6-0.7c0.7,0.1,1.3,0.2,2,0.3c0,0.2,0,0.3-0.1,0.5   C269.3,563.5,268.1,563.5,266.9,563.2z" />
	<path display="inline" fill="#CFCFDD" d="M679.7,533c-1.5-0.5-0.3-2.2,0-3.1C679.7,530.9,679.7,532,679.7,533z" />
	<path display="inline" fill="#462726" d="M248,555.3c0,0.2,0,0.5-0.1,0.7c-0.4,0.1-0.8,0.1-1.2,0.2c-0.3-0.2-0.6-0.4-0.9-0.7   C246.6,555.5,247.3,555.4,248,555.3z" />
	<path display="inline" fill="#CFCFDD" d="M517.1,594c0.5-0.1,1-0.2,1.5-0.3c0,0.8-0.5,1-1.1,1C517.4,594.4,517.3,594.1,517.1,594   L517.1,594z" />
	<path display="inline" fill="#231C1C" d="M327.2,342.2c0,0.7-0.2,1.2-1,1.2C326.5,343.1,326.9,342.6,327.2,342.2z" />
	<path display="inline" fill="#100A0A" d="M272.7,551.9c-0.2-0.3-0.5-0.5-0.7-0.8c0.5-0.6,1,0.4,1.4,0.6   C273.2,551.9,273,551.9,272.7,551.9z" />
	<path display="inline" fill="#434447" d="M655.1,586.6c0.2-0.7,0.8-0.8,1.4-0.7C656.1,586.1,655.6,586.3,655.1,586.6z" />
	<path display="inline" fill="#251B1A" d="M261.1,553.3c0-0.2,0-0.5,0-0.7c0.5-0.5,1,0.2,1.4,0.5   C262.1,553.1,261.6,553.2,261.1,553.3z" />
	<path display="inline" fill="#E8C5B6" d="M256.1,561.4c0.5,0.1,0.9,0.3,1.4,0.4C256.9,562,256.4,562,256.1,561.4z" />
	<path display="inline" fill="#FBDFD3" d="M317,504.6c0.2-0.1,0.4-0.1,0.6-0.1c-0.2,0.3-0.3,0.5-0.5,0.8   C317,505.1,317,504.9,317,504.6z" />
	<path display="inline" fill="#231C1C" d="M327.9,341.5c-0.2,0.2-0.4,0.5-0.6,0.7C327.5,341.9,327.7,341.7,327.9,341.5z" />
	<path display="inline" fill="#231C1C" d="M328.6,340.7c-0.2,0.2-0.4,0.5-0.6,0.7C328.2,341.2,328.4,340.9,328.6,340.7z" />
	<path display="inline" fill="#231C1C" d="M329.3,339.9c-0.2,0.2-0.5,0.5-0.7,0.7C328.8,340.4,329.1,340.2,329.3,339.9z" />
	<path display="inline" fill="#191E24" d="M371.5,572.8c0.2,0.2,0.4,0.4,0.6,0.6C371.9,573.2,371.7,573,371.5,572.8z" />
	<path display="inline" fill="#191E24" d="M372.3,573.5c0.2,0.2,0.4,0.4,0.6,0.5C372.7,573.9,372.5,573.7,372.3,573.5z" />
	<path display="inline" fill="#191E24" d="M373.3,574.4c0.3,0.2,0.6,0.5,0.9,0.7C374,574.8,373.7,574.6,373.3,574.4z" />
	<path display="inline" fill="#493E3C" d="M469.3,437.1c-0.2-0.2-0.4-0.5-0.7-0.7C468.9,436.7,469.1,436.9,469.3,437.1z" />
	<path display="inline" fill="#434447" d="M654.4,586.6c0.2-0.2,0.4-0.2,0.7,0c-0.2,0.2-0.5,0.4-0.7,0.6   C654.3,587,654.3,586.8,654.4,586.6z" />
	<path display="inline" fill="#4B65C5" d="M371.4,571.1c-0.2-0.4-0.5-0.9-0.7-1.3c0-0.2,0.1-0.5,0.1-0.7c0.3,0,0.7,0,1.3,0.1   c-8.4-12.6-17.3-29.3-15.9-44.6c0.5,0.3,1.1,0.6,1.8,0.9c0.5-1.9-1.3-3.6-0.1-5.6c0.7,0.5,1.4,1,2.3,1.6c0.1-1.2,0.1-2.1,0.2-3.1   l0,0c1,0.8,1.5,1.7,2.9,1.5l-0.1,0c-1.9,2.9-8.5,8.9-2.8,11.2c-0.3-4.6,2.1-8.8,6.5-10.4c0,0.6,0,1.1,0.1,1.7c0.1,0,0.3,0,0.4,0   c0.8-2.3,1.6-4.6,2.4-6.9l0,0c0.5-0.5,1-1,1.4-1.5c4.8-0.4,8.6-3.3,12.9-5.2c-0.3-0.4-0.5-0.6-0.9-1c-3.8,0.9-12.5,9.1-14.7,3.6   c1.1-1.4,2.8-2,4.3-3c0.3,0.4,0.7,0.7,1.1,1.2c0.5-0.9,0-1.2-0.6-1.4c1.4-1.3,2.9-0.1,4.4,1.5c1.4-2.2,2.6-4.1,4.7-5.8   c0.2-3.1,0.4-6.4,0.7-9.9c4.2-2.1,11.9,1.6,13.5-4.5c0.5-3.2,2.8-4.2,4.9-6c0.7-5,4.2-8,6.8-12.2c0-0.7,0-1.4,0-2   c2.5-2.8,5-7,8.6-7.8c-0.1,2.6,1.4,4.7,2.4,7c-2,2.2-3.4,4.9-4,7.7c-1.7,0.8-3,2.2-3.9,4c-0.8-2.3-0.3-4.9-2.4-7.5   c0.2,3.9,0.9,7.1,1.4,10.4c-4.8,1.6-1.3,18.7-2.1,23.5c1.6,0,1.3-2.1,3-2.1c-1,2.2-2,4.2-2.9,6.2c-0.1-0.4-0.2-0.8-0.4-1.4   c-1.6,2.1-1,4.3-1.1,6.4l0,0c-3.8-8.7-3.1-19-3.3-28.2c-2.4,1.6-0.5,6-1.2,8.6c-1.8,0.1-2.5,1.6-3.5,2.7c0,5,0,9.8,0,14.7   c-0.2,0-0.5,0-0.7,0l0,0c0-0.6,0-1.3-0.8-1.4c-5.1-4.9-2.5-11.4-3.4-17.4c-1.4,4-0.8,7.6-1,11.6c-0.4-0.9-0.8-1.9-1.2-2.9   c-0.5,0.1-0.9,0.2-1.4,0.3c-0.4,13,5,26.1,2.4,38.9c-0.9-0.4-1.6-0.5-2.3-1c4.6,6.2,13,12.1,21.5,11.2c0.2,0.3,0.4,0.5,0.6,0.8   c0.1,1.4,0,2.9,1.3,3.9c1.1-1.7-0.4-3.2-0.2-4.8c2.5,0.3,4.6-0.4,6.4-2.2c0.7,2,1.4,3.9,2.1,5.9c-2.8,3.8-5.9,7.1-9.1,10.5   c0.2,0.2,0.3,0.4,0.5,0.6c6.1-4.8,11.2-10.9,15.1-17.7c1.8,1.4,4.3,0.4,6.2,2.1c1.6-1.5,3.1-2.8,4.6-4.2c0.3,2.8,2.6,4.8,3.1,7.5   c0,0.1,0.4,0.1,0.8,0.3c0-0.7,0-1.4,0-2c2.7,0.2,4.8-0.9,6.4-3c1.1,2.3,0.5,4.7,0.6,7.1c-1.7,0.7-3.2,1.3-4.5,1.8   c-3.1,4.2-2.6,8.8-2.8,13.5C420,572.5,392.4,584.7,371.4,571.1z M380.1,572.1c1.3,0,2.6,0.3,3.8-0.6c-4,0.7-7-1.6-11.1-1.7   C375,571.7,376.4,572.1,380.1,572.1z M380,528.7c0.4,1.8,0.8,3.6,1.2,5.6c-8.3,1.3-9.5-6.9-11.4-12.9c-1.5,7.5,3.5,15.1,12,13.9   c1.8,2.2,2.1,5,4.9,6.3c-0.9-2.6-2.2-4.5-2.9-7.1c1-0.9,4.2-1.3,3.8-2.8c-1.6,0.5-3.1,1-4.6,1.4c-3.9-6.4-1.7-14.1-0.5-20.4   C379.1,517.1,378.6,523.7,380,528.7z M389,524.8c0.3-3.2,2-18.2-1.3-18.6C386.7,512.6,387.1,520.1,389,524.8z M371.3,544.3   c0.5-0.9,0.8-1.2,0.8-1.5c-1-3-0.1-6.1-1-9c-0.3,0-0.5,0.1-0.8,0.1C369.4,537.1,370,540.3,371.3,544.3z M365.5,539.7   c1.3,0.4,2.3,0.8,3.3,1.1c0.1-0.1,0.1-0.3,0.2-0.4c-0.6-0.5-1.1-1-1.7-1.6c1.1-2.7,1.5-5.5,0.7-8.4   C367.9,533.7,367.1,536.7,365.5,539.7z M377.5,558c1.3-1.2,1.2-2.8,2.1-4.6C377.8,554.6,377.5,555.5,377.5,558z M401,570   c0.9,0.6,1.8,0.9,3.2,0C402.8,570,401.9,570,401,570z" />
	<path display="inline" fill="#FBDFD3" d="M462.1,432.8c11.4,8.8,17.3,16.6,12.4,32c-1.1-0.8-1.3-1.6-2-2.9   c7.2,28.2-2.8,58.1-0.2,87.3c-5.6,1.9-8.1,5.6-8,11.3c-2.3-0.1-4.7,0.4-7.1-0.1c0-3.5,0.5-6.8-1-10c-0.4-4.2,1.8-17.1-1.7-18.7   c-0.3,0.5-0.5,1-1,1.9c1.1-11-6-24.7,0.5-34.2c0-0.9,0.1-1.9,0.1-2.8c-0.5-0.5-1.1-1.1-1.6-1.6c0.5-1.6,2.2-2.6,1.5-4.3   c1.2-3.1-0.1-6.4,0.8-9.2c1.5-1.1,0.4-3,0.6-4.5c-0.4-2.5,3-13.5,0.2-13.4c-0.7,11.8-4.8,23-8.5,34.2c-1.7-0.9-0.9-2.6-1.1-4   c-8.6-10.7,3.6-24.2-0.2-29.1c0.5-1.6,1.6-2.8,2.6-4.1c0.5,0.2,0.9,0.4,1.5,0.6c0.4-2.1,2.1-2.8,2.1-4.7c-2.7,2.1-5.5,3.9-7.3,6.8   c-3.3,0.8-4.8,3.5-6.7,6.8c0-1.6,0-2.4,0-3.3c1.1-0.5,2-1.2,2.1-2.7c-3.4,1.3-3,5.4-5.2,8c2.5,0.8,1,3.9,0.7,5.7   c-0.6,1.2,0.1,2.8-1.3,3.5c-4.7-4.1-9-8.6-12.2-13.9c7.9-13.4,22.3-21.7,30.4-34.8c2.3-0.5,4.6-1,6.9-1.5   C460.5,431.9,461.3,432.3,462.1,432.8z M451.9,449.5L451.9,449.5c-0.8,0.2-1.8,0.1-1.9,1.6c2.8-1.9,5.6,0.1,8.6-2.1   C456.4,447.1,454,448,451.9,449.5z M454.1,504c-0.3-0.2-0.6-0.5-0.9-0.7c-0.2,0.3-0.3,0.5-0.5,0.8c0,0.7-0.3,1.6,0.6,2   c0.2-0.1,0.3-0.1,0.6-0.1C454,505.3,454.1,504.6,454.1,504z M444,456c1.7-2,4.6-3,5.2-5.7C446.1,450.8,444.3,453.3,444,456   c-0.1,0.1-0.3,0.2-0.5,0.2c0.1,0.1,0.2,0.2,0.3,0.3C443.8,456.3,443.9,456.2,444,456z M467.9,452.4c1.6,2.6,3.2,5.2,4.9,7.8   c0.6-4-2-5.8-4.1-8.6c-1.2-1.1-0.1-3.3-2-4.2C466.6,449.4,466.7,449.8,467.9,452.4z M449.2,473.7c1.6-3.9,3.6-7.2,4.5-11   C451.3,461.2,447.8,472.2,449.2,473.7z M473.1,471.7c-0.3-2.6-0.7-5.1-2.8-6.8C469.7,467.2,472.3,469.4,473.1,471.7z M448.4,475.2   c-2.1,1.9-2.4,3.9-2.1,6.4C448,479.7,448.2,477.7,448.4,475.2z M459.2,436.3c-2.1-0.4-3.2,0.3-2.6,2.5   C457.7,437.7,458.4,437,459.2,436.3z M445.6,487.6c1.3,0,2.5-2.8,0.8-2.9C446.1,485.6,445.1,486.4,445.6,487.6z M468.6,441.1   c-1.7-0.2-1.7-0.2-2.7,1.2C467,442.1,468.2,442.6,468.6,441.1z M454,510.9c-0.2,0-0.4,0-0.7,0c0.1,0.8,0.1,1.5,0.2,2.3   c0.2,0,0.3,0,0.5,0C454,512.4,454,511.6,454,510.9z M455.1,529.7c0.2,0,0.3,0,0.5-0.1c-0.1-0.5-0.1-0.9-0.2-1.4   c-0.2,0-0.3,0-0.5,0.1C454.9,528.7,455,529.2,455.1,529.7z M460.2,449c-0.3,1.3-0.3,1.3,1.2,0.9C461,449.5,460.6,449.3,460.2,449z    M453.5,455.6c1.2,0.6,1.3,0.1,1.2-1.1C454.2,455,453.9,455.3,453.5,455.6z M441.4,461.6c0.4-0.3,0.7-0.6,1.1-1.1   C441.4,460.4,441,460.5,441.4,461.6z" />
	<path display="inline" fill="#FBDFD3" d="M534,546.5c28.7,3.1,57.6,9.4,86.3,8.9c0,0,0,0.1,0,0.1c-0.6,0.4-1.3,0.7-2.1,1.2   c1.3,0.5,2.2,0.4,3-0.3c1.3-0.1,2.5-0.3,3.6-1.4c-0.5-0.5-1-1-1.5-1.5c1.4-0.9,2.9-1.7,4.8-0.7c0,4.4,0,8.7,0,13.4   c-0.8,0.8-0.6,2.8-2.6,3.2c-0.5,0.4-1.1,0.9-1.7,1.4c-9.7-2.9-19.6-0.5-29.4-0.1c-0.2-1.3-0.3-2.3-0.4-3.3   c-3.1-2.6-6.3-1.9-9.4-0.2c-0.2-0.6-0.3-1-0.4-1.4c-6.9-0.7-15.3,2.4-19.7,7.4c-20.3,5.8-27.9-5.7-46.3-9.1   c-0.1-0.6-0.2-0.9-0.2-1.3c0.2-0.3,0.5-0.5,0.7-0.8c4.9-0.8,12.9-2.5,14.1-8.4c-19.2-8.9-27.2,13.8-44.5,6.2   c1.4-8.4-0.7-17.3,2.2-25.7c4.8,0.1,9.2,1.7,13.7,3.2l0-0.1c0,0.5,0.1,1,0.1,1.5c-1.1-0.5-2.3-1-3.4-1.4c-1.1,2,2.3,2.4,3.6,2.7   c-0.1-0.5-0.2-0.9-0.3-1.3c2.3-0.1,5.5,1.8,7.2-0.2C519.6,538.2,526.4,543.9,534,546.5z M569.5,556.1c-0.2-0.1-0.4-0.1-0.5-0.1   c-6.7-3.7-15.3-7.1-22.9-4.4c-2.8,0.8-6.7-0.4-8.6,2c3.5,0.8,6.1-1.2,9.5-1.2c6.4-2,12,1.8,18.2,2.3c2.2,0.5,3.5,3.4,5.8,2.8   c0,0.2,0.1,0.4,0.3,0.4C570.7,557.4,570.1,556.7,569.5,556.1z M518.8,544.3c-0.1-4.7-6.5-2.6-9.4-4.1c-0.1,0.6-0.1,1-0.2,1.5   c5.1,1.5,10.8,8,15.6,3.1C522.2,544.2,520.9,546.1,518.8,544.3z M614.5,557.3c-2.1-0.9-2.1-0.9-4.1,0.2   C611.9,557.7,613.1,557.9,614.5,557.3z M605.3,558.4c1.4,0.7,1.4,0.7,2.7-0.3C606.8,558.2,606,558.3,605.3,558.4z M576.3,560   c0.7,1.1,0.7,1.1,2,0.6C577.4,560.4,577.2,559.5,576.3,560z M602.8,560.4c0-0.2,0-0.3,0-0.5c-0.6,0-1.2,0.1-1.8,0.1   c0,0.1,0,0.3,0,0.4C601.6,560.4,602.2,560.4,602.8,560.4z M581.9,563c0.3,0.4,0.6,0.4,1.1,0.1C582.6,562.8,582.4,562.5,581.9,563z" />
	<path display="inline" fill="#E4E4EB" d="M493.3,574.9c0,0.2,0,0.4,0.1,0.7c2,0.8,3.3-0.9,5.1-1.7c1.3,0.8,2.7,1.6,4.1,2.5   c0,0.9-0.1,1.6-0.1,2.3c4.7,0.7,9.6,2.3,14.7,3c1.8,3.3,1.9,7-0.6,10c-8.5,0.3-17.2,2.4-25.6,1.3c-1.9-1.1-3.7-0.3-5.4,0.2   c-4.7-1.9-9.9-2.7-12.6-7.3c-4.9-6.6-17.7,6.1-24.9,3.4c-3.7-8.4,0.1-16.2,3.3-23.7c1.8,1.4,3.5,2.8,5.2,4.1   c3.2-2.2,6.2-4.2,8.9-6.1c0.7,0.2,1,0.4,1.5,0.6c0.5-0.9,1-1.7,1.6-2.7c-1.4-2.1-1.9-4.4-1.4-6.8c3.3-1.7,6.5-3.3,9.9-5.1   c3.4,2.4,4.8,6.4,6.6,10.4c-4.1,1.8-9.2,3.5-9.3,8.7c2.6-1.7,4.8-3.2,7.1-4.6c0.3,0.3,0.6,0.5,0.9,0.8c-1.6,1.4-3.1,2.8-4,5.1   c3.4-0.7,6-2.4,8.7-4c0.3,0.2,0.5,0.5,0.9,0.8c-1.8,1.9-4.5,3.1-5.3,6.4c3.2-0.8,5.5-2.3,7.7-4.6c0.6,0.4,1,0.8,1.7,1.3   c-1.4,1.7-3.1,3-3.8,5c1.6,0.7,2.8-0.4,4.1-0.7C492.7,574.4,493,574.6,493.3,574.9z M500.7,576.1c-1.8-0.7-3.3-0.1-3.7,1.8   C498.6,578.1,499.7,578,500.7,576.1z" />
	<path display="inline" fill="#EECABA" d="M488.3,559.8c17.3,7.6,25.3-15.1,44.5-6.2c-0.9,4.8-6.3,6.7-10.6,7.6   c0.2-0.4,0.5-0.8,0.7-1.2c-1.2-0.5-2.1-0.1-2.8,1.1c0.6,0.1,1.1,0.2,1.5,0.3c-3.7,1.4-8.4,0.8-11.6,4.2c3.3,0.5,5.2-1.9,8-2.8   c0.1,0.4,0.1,0.7,0.2,1.3c18.4,3.4,26,14.9,46.3,9.1c4.4-5,12.7-8.1,19.7-7.4c0.1,0.4,0.2,0.8,0.4,1.4c3.1-1.7,6.2-2.4,9.4,0.2   c0.1,1,0.3,2,0.4,3.3c9.8-0.3,19.7-2.8,29.4,0.1c0.6-0.5,1.2-1,1.7-1.4c-1.2,7.7-12.4,2.1-17.9,4c-17.6,1.2-34.4,7.9-51.9,8.3   c-20.7,1.9-37.1-18.6-57.8-10.6C493.7,568.3,487.5,565.8,488.3,559.8z M535.3,573.7c1.3,0.8,2.6,1.3,4.8,1.2   c-3.3-1.4-4.8-3.3-8.3-3.1C532.6,572.8,532.6,572.8,535.3,573.7z M550.5,577c-1-1.8-2.7-1.2-4-1.4c-2.8-0.5-2.8-0.5-4.2,0   C545,576.5,547.6,577,550.5,577z M506.7,561.6c0.9,0.6,2.8,0.6,4.9,0.2C509.9,560.6,508.3,561.4,506.7,561.6z M524.6,557.7   c0.2,0.2,0.3,0.5,0.5,0.7c0.9-0.6,1.9-1.2,3.2-2.1C526.4,556.1,525.2,556.4,524.6,557.7z M566.5,575.4c-1.2-0.7-2-0.5-2.6,0.7   C565,576.5,566,577,566.5,575.4z" />
	<path display="inline" fill="#EECABA" d="M454.9,481.4c-0.9,1-0.5,2-0.1,3c-2.1,1.2-2.4,4.6-1.8,6.9c0.4-0.3,0.7-0.5,1-0.7   c0.7,1.7-1,2.7-1.5,4.3c0.5,0.5,1.1,1.1,1.6,1.6c-1.6,0.5-1.6,1.6-1.2,2.9c0.5,0,0.8-0.1,1.1-0.1c-6.5,9.5,0.6,23.2-0.5,34.2   c0.5-1,0.8-1.4,1-1.9c0.6-0.2,0.9,0.1,1,0.7c-1.1,1.1-1.1,1.1,0.1,2.8c0-1,0.1-1.6,0.1-2.3c1.2,1.5,0.4,3.5,0.5,5.3   c-0.3-0.5-0.7-0.9-1.3-1.8c-0.1,1.8-0.3,3,0.2,4.6c0.5-0.8,0.8-1.3,1.1-1.8c0,1.3,0.1,2.6,0.1,3.8c-0.4-0.1-0.8-0.3-1.4-0.5   c-0.3,6.3,0.3,11.8,0.5,17.7c-1.3-0.2-1.9-1.1-3.1-1.9c0.9-9.8-3.7-18.9-4.2-28.7l0.1-0.1l-0.2-0.1c-0.2-27.1-19.1-36.3-2-64.9   c3.7,4.7-8.5,18.5,0.2,29.1c-1.3,0-1.6,0.6-1.3,1.9c0.4-0.2,0.8-0.4,1.2-0.5c0.1,0.9-0.2,2,1.1,2.6c2.7-6.7,3.9-14.1,6.8-20.7   C454.1,478.6,453.8,480.2,454.9,481.4z" />
	<path display="inline" fill="#CFCFDD" d="M451.3,565.5c-3.2,7.5-6.9,15.3-3.3,23.7c7.2,2.7,19.9-10,24.9-3.4   c2.7,4.6,7.9,5.4,12.6,7.3c1.6-0.5,3.4-1.3,5.4-0.2c8.5,1.1,17.1-1,25.6-1.3c0.5-0.8,0.9-1.5,1.3-2.2c0.1,1.5,0,3.1-0.8,4.5   l0.1-0.1c-14,3.8-29.7,4.9-43.5-1.5c-10.3-3.1-21.1,4.1-31.8-0.2c0.6-8.4,4.5-16.2,3.5-24.9c0.2-2.6-0.1-7.2,3.4-7.6   C450.4,561.3,450,563.8,451.3,565.5z" />
	<path display="inline" fill="#5775E6" d="M449.9,550.2c-1.6,2.1-3.7,3.2-6.4,3c-0.3-0.7-0.6-1.4-0.9-2.1c1-2.9,3.2-4.5,5.1-7.2   c-2.4-0.7-3.9,2-5.8,0.6c0-2.4,4-3.5,3.1-5.6c-2.9,2.1-4.9,4.8-5.4,8.5c-1.5,1.4-3,2.7-4.6,4.2c-1.9-1.6-4.4-0.7-6.2-2.1   c1.9-6.3,6-12,8.7-18.1c2.8-0.9,6.1,0.8,9.2-0.2C447.8,537.5,448.3,543.9,449.9,550.2z M436.7,539c1.8-2.3,4.4-2.8,4.4-6.2   c-2.2,1.9-3.3,3.6-4.5,5.1c-0.7,0.5-1.5,1-1.2,2.4C436,539.8,436.4,539.4,436.7,539z" />
	<path display="inline" fill="#5775E6" d="M474.6,545.9c0-4.3-1.1-8.7-0.4-12.9c4.7,0.1,9.3,0.8,13.9,1.4   c-2.7,7.8-1.5,15.9-2.3,23.5C482.2,554,480,547.1,474.6,545.9z" />
	<path display="inline" fill="#070607" d="M447.5,535.3c-0.3-1.4-0.6-2.7-1-4.1c-3.1,1-6.4-0.7-9.2,0.2c-0.3-0.3-0.5-0.6-0.8-0.8   c0.5-1.2,1.1-2.3,1.6-3.5c0.5,0.5,1,1,1.5,1.4c2.2,0.2,4.1,0.7,6.4,0.3c-1.1-4.3-0.3-8.8-2.2-12.5c-0.2,0.2-0.5,0.4-0.7,0.6   c-0.2-0.3-0.5-0.6-0.7-0.8c1.1-5.3-1.2-10.1-2.9-15c0.1-0.6,0.1-1.2-0.5-1.5c-0.1-0.7-0.2-1.4-0.2-2.2c0.3,0,0.5,0,0.8,0   c5.3,10,8.2,20.9,8.4,32.2l-0.1,0.1l0.2,0.1c0.1,1.5,0.2,3.1,0.3,4.6C448,534.7,447.8,535,447.5,535.3z" />
	<path display="inline" fill="#241F1D" d="M455.4,560.4c0.5-3.3-0.5-6.9,0.8-10c1.5,3.1,1,6.5,1,10c2.4,0.6,4.7,0,7.1,0.1   C462.1,561.6,457.8,561.5,455.4,560.4z" />
	<path display="inline" fill="#EBE8E8" d="M459.9,564.8c-1.1,0.7-2.2,1.4-3.5,2.3c-0.8-0.7-1.6-1.4-2.3-2.2   C455.3,563.3,458.3,563.9,459.9,564.8z" />
	<path display="inline" fill="#9BA7AC" d="M482.4,564.7c-0.3-0.3-0.6-0.5-0.9-0.8c1.1-0.7,2.1-1.4,3.2-2.1c0.3,0.5,0.5,0.8,0.8,1.3   C484.4,563.7,483.4,564.2,482.4,564.7z" />
	<path display="inline" fill="#C3D4D4" d="M455.8,564c-0.7,0.2-1.5,0-1.8,0.9c-1.1-0.7-2.1-1.4-3-2.5   C452.8,561.8,454.2,563.5,455.8,564z" />
	<path display="inline" fill="#99A5AA" d="M493.3,574.9c-0.3-0.3-0.6-0.5-0.9-0.8c0.8-0.9,1.5-1.8,2.2-2.6   C496.9,572,493.8,574,493.3,574.9z" />
	<path display="inline" fill="#433734" d="M474.4,468.5c-0.5-1.2-1-2.5-1.5-3.7c0.3-0.2,0.6-0.5,0.8-0.7c0.3,0.2,0.5,0.5,0.8,0.7   C474.4,466,474.4,467.2,474.4,468.5z" />
	<path display="inline" fill="#394040" d="M461.4,563.4c0.6-0.9,1.5-1.1,2.9-1.5c-0.8,1.6-2,1.7-2.9,2.2   C461.4,563.8,461.4,563.6,461.4,563.4z" />
	<path display="inline" fill="#8E9D9D" d="M461.4,563.4c0,0.2,0,0.5,0,0.7c-0.5,0.2-0.9,0.5-1.4,0.7c-0.5-0.3-1-0.5-1.6-0.8   C459.4,563.8,460.4,563.6,461.4,563.4z" />
	<path display="inline" fill="#364A92" d="M474.6,545.9c0.2,0,0.5,0,0.7,0.1c-0.2,0.7,0.4,1.7-0.9,2.1   C473.7,547.3,474.6,546.6,474.6,545.9z" />
	<path display="inline" fill="#191E24" d="M372.1,571.6c0.2,0.2,0.4,0.4,0.6,0.6C372.5,571.9,372.3,571.8,372.1,571.6z" />
	<path display="inline" fill="#191E24" d="M373.6,572.9c0.3,0.2,0.6,0.4,0.8,0.6C374.1,573.3,373.8,573.1,373.6,572.9z" />
	<path display="inline" fill="#191E24" d="M375,573.7c0.3,0.2,0.5,0.3,0.8,0.5C375.6,574.1,375.3,573.9,375,573.7z" />
	<path display="inline" fill="#191E24" d="M372.8,572.2c0.2,0.2,0.5,0.4,0.7,0.6C373.3,572.6,373,572.4,372.8,572.2z" />
	<path display="inline" fill="#241F1D" d="M454.1,559.9c0.3,0.2,0.6,0.3,1,0.5C454.8,560.2,454.4,560,454.1,559.9z" />
	<path display="inline" fill="#B7BDD5" d="M319.1,425.6c1.4-6.5,2.2-14.4,6.4-19.8c0.4,6.2-1.8,12.4,0.1,18.3   c-0.5,1.3-1.2,2,0.7,2.2c3.6,11.9,14,21.2,26.3,21.6c-2.3,0.3-4.8-0.3-7.3,0.4c1.5,10.2,13.7,16.1,12.7,26.3   c-3.6,0.2-6.4-1.8-9.7-3.8c2.2,5.2,1.3,10.5,4.4,15.1c5.6,7.2,7.8,17,14.1,23.4c1.8-0.8,3.2-2.7,5.4-2.7c-5.1,5.5-12.7,6.6-17,12.9   c-3.9-9.8-7.1-19.3-13.5-27.4c0.1-0.2,0.1-0.4,0-0.7c0.3-0.2,0.5-0.4,0.9-0.7c-0.8-1.1-1-2.5-2.8-3.1c0.2,0.9,0.3,1.6,0.4,2.2   c-0.2-0.1-0.4-0.1-0.6-0.1c-6-5.6-8-13.9-13.7-19.8c-8.8-7.6-12.2-17.8-10.1-29.2c2-1.1,1.3-2.7,0.6-4.5c1.2-2.4,2.5-5,3.9-7.7   C319.9,427.8,319.5,426.7,319.1,425.6z M318.3,457.1c1.3,2.4,3.9,3.4,5.9,6c0.4-3.7-3.7-4.8-5.7-7.3c0.9-2.3,1.7-7.4,0.2-9.2   C318.6,449.9,315.2,454.8,318.3,457.1z M333.6,472.1c1.6,5.2,2.2,10.9,6.2,14.9c-1.9-6.3-4.2-11.8-6.1-18.1   c-0.2-0.7-0.9-0.6-1.4-0.7c-7.1-11.2-8-25.2-11-38C316.1,433,329.2,468,333.6,472.1z M326,430.6c-0.6,2.8-0.8,5.2-0.1,8   C327.9,436.8,327.9,432.9,326,430.6z M318.1,444.4c0.6-1.1,0.3-1.9-0.8-2.6C316.9,443.7,316.9,443.7,318.1,444.4z M327.1,439.5   c-0.7,1.3-0.9,2.4,0.8,3.4C327.5,441.5,327.3,440.5,327.1,439.5z" />
	<path display="inline" fill="#EECABA" d="M353.1,260.1c0.4-1.6,0.3-3.9,2.1-4.6c0.2,9.3-2.1,18.5-1.3,27.8c1.7,1.9,1.7,1.9,0.8,3.7   c-0.1-0.6-0.1-1.3-0.3-2.4c-0.9,1.3-1.1,2.1-0.5,3c-0.6,3.1,0.4,6.1-1.4,8.9c-0.1-0.7-0.2-1.3-0.3-2.1c-0.7,0.3-1.2,0.5-1.6,0.7   c-0.6,1.2-0.5,2.7-1.8,3.4c-0.3-1.3,0.7-3.3-0.6-4.1c-0.2,0-0.3,0.1-0.6,0.1c-0.2,1.7-0.1,2.9-0.1,4.8c0.6-0.4,1-0.6,1.4-0.9   c-1.4,3.5,0.4,7.9-1.4,10.9c0.4-1.8,0.1-3.5-0.4-5.2c-0.1,1.7-1.2,3.9,0.4,5.2c0,0.5,0,1,0,1.6c-1.2,1.2-1.2,1.2,0.3,2.1   c-0.1-0.8-0.2-1.5-0.3-2.1c1.9,0.8,0.3,2.9,0.1,4.3c-2.4,0.2-1.3,1.6-0.7,2.9c-0.8,2,1.4,2.5,1.9,3.9c0,1.7-0.8,3.6,1.1,4.6   c-2.3,2.8,0.3,6.8-0.1,10c0,5.2,0,10.4,0,15.5c1.6,2.4,1.9,5.2,0.7,7.9c-1.3-1.5-2.9-5.9-5.3-4.3c-0.4-0.2-0.8-0.3-1.3-0.6   c-4.4,8.6-0.6,8.6-0.9,15.9c-6.1,3.9-8.1,11.9-7.7,18.8c-0.7,5.6,4.8,8.9,4.4,14.5c-0.1,6.9,3.4,13.8,0,20.4   c-0.5,1.2-1.2,2.5,0,3.5c0,0.4-0.1,0.9-0.1,1.3c-0.7,0.8-1.2,1.6-1.2,2.9c0.5-0.3,0.9-0.5,1.3-0.7c0,1.6,0,3.1,0,4.5   c1.8,2.3,3.8,4.2,4.4,7.1c-4.7-2.5-9.6-4.7-12.2-9.4c0.2-1,0.4-1.8,0.6-2.5c-0.9-0.1-1.5-0.3-2.1-0.4c-1.3-4.6-3.5-9-2.9-13.8   l-0.1,0.1c1.2,1.6,1.6,3.7,3.6,5.3c0.1-4-1.5-6.8-1.4-10.7c0-0.2-0.5-0.4-0.8-0.6c0-1.4,0-2.8,0.1-4.2c0.2,0,0.5,0,0.7-0.1   c0.4,0.5,0.8,0.9,1.7,2c-0.3-4.4-3.3-6.8-2.6-10.8c-0.2-4.7-4-10.1-0.7-14.9c3.2-5.4,6.1-10.8,10.6-15.2c0.8-7.1,1.1-14.7,3.6-21.7   c0.3,0,0.6,0,0.9,0c1.4-10.5,1.6-21.4-1.5-32C342.9,296.5,351.2,278.1,353.1,260.1z M348.9,285.8c-0.9,1.9-0.9,3.2-0.4,5.2   C349.3,289.1,349.8,287.9,348.9,285.8z M331.3,426.4c-1.6,0.8-1.6,0.9,0.2,2.6C331.4,428,331.3,427.3,331.3,426.4z M344.1,354.3   c0.9-1,0.2-2.3-0.8-1.4C343.5,353.3,343.8,353.7,344.1,354.3z M341.9,349.1c1.1,0.9,1,1.3,1.8,0.5   C343.2,348.8,342.9,348.5,341.9,349.1z M334.9,437.5c1.6-0.7,1.7-0.4,1.9-1.6C335.6,435.7,335.8,436,334.9,437.5z" />
	<path display="inline" fill="#F9DED2" d="M329.1,369c-3-3.3-1.8-7.5-1.7-11.7c-0.1-0.1-0.4-0.7-0.7-1.2c0.4-6.6,2.5-5.5,6.2-9.7   c1.3-0.1,2.9,0.5,4-1.2c0.4,0.8,0.8,1.4,1.2,2.1c-0.4,2.1-0.3,4.4-1.4,6.5c-1.9,1-3.8,2.8-3.4,5.2c2.2-0.3,2.4-2.5,3.9-3.3   c0.4,3.4-1.8,6.4-1.4,9.9c-1.8,1.6-3.6,3-5.2,4.4C330,369.7,329.5,369.4,329.1,369z" />
	<path display="inline" fill="#E5CDC2" d="M322.8,378.5c0.6,0,1.1,0.1,1.7,0.1c0.3,1.8,0.6,3.4,0.9,5.4c-0.2,0.5-0.5,1.2-0.9,2.2   c-2.1-0.4-4.1-0.8-5.8-1.2c-2.5-4.7-2.5-6.7-0.3-9c0.7,0.4,1.4,0.7,2.1,1c0,0.2,0,0.4,0,0.5c-3.4,2.2-0.7,8.1,3.5,6.6   c-1-0.5-2.1-0.9-3.1-1.4c-0.3-1.2-0.7-2.3-1-3.4C321.1,379,322,378.8,322.8,378.5z" />
	<path display="inline" fill="#E3C0B1" d="M329.1,369c0.5,0.3,0.9,0.6,1.4,1c1.6-1.4,3.4-2.9,5.2-4.4c0.1-1.3,0.2-2.8,0.3-4.2   c2.1,0.6,0.9,3.7,1.4,5.3c-1.9,2.7-4.4,4.8-6.9,7.3C329.2,372.6,329.6,370.8,329.1,369z" />
	<path display="inline" fill="#1A1614" d="M337.4,366.8c-0.4-1.7,0.7-4.7-1.4-5.3c0.2-2.1,1.8-3.5,1.1-5.7c-1.5,0.8-1.7,3-3.9,3.3   c-0.4-2.3,1.4-4.1,3.4-5.2c0.4,0.4,0.8,0.7,1.4,1.3c0,1.2-0.3,2.7,0.7,3.7c0,2.4,0,4.8,0,7.3C338.2,366.3,337.8,366.5,337.4,366.8z   " />
	<path display="inline" fill="#342B2C" d="M330,431.3c0.6,0.1,1.3,0.2,2.1,0.4c-0.2,0.7-0.4,1.5-0.6,2.5c2.1,2.9,4.3,5.9,8.1,7.1   c-0.8,0.4-1.9-0.2-2.4,0.9c-3-2.1-5.6-4.6-7.2-8C331.3,433.6,330,432.3,330,431.3z" />
	<path display="inline" fill="#D0B6AA" d="M320.6,377.6c0-0.2,0-0.4,0-0.5c3.2-0.5,5.5-2.9,8.6-0.5c-0.9,1.3-1.1,3.1-2.6,3.9   c-0.2-0.8-0.4-1.5-0.7-2.4C324.2,377,322.3,378.1,320.6,377.6z" />
	<path display="inline" fill="#EAD1C5" d="M328.6,407.4c0.8,3.7-1.9,6.5-1.5,10.2l0.1-0.1c-0.2,0-0.5,0-0.7-0.2   c0.1-3.9-0.3-7.9,0.8-11.8C328.3,405.8,328.2,406.7,328.6,407.4z" />
	<path display="inline" fill="#645550" d="M320.6,377.6c0.8,0.2,1.5,0.6,2.3,0.9c-0.9,0.3-1.8,0.5-2.9,0.8c0.3,1.1,0.6,2.2,1,3.4   c1,0.5,2.1,0.9,3.1,1.4C319.8,385.6,317.1,379.8,320.6,377.6z" />
	<path display="inline" fill="#272727" d="M314.4,385.4c-0.7-0.7-1.5-1.4-2.3-2.2c0.3-0.6,0.5-1.1,0.8-1.6c1.3,0.2,1.3,2.3,2,3.3   C314.6,385.1,314.5,385.3,314.4,385.4z" />
	<path display="inline" fill="#292C2C" d="M323.9,350.3c0.3,1.6,0.3,1.6-2.4,2.6C322.1,351.6,322.9,350.9,323.9,350.3z" />
	<path display="inline" fill="#222424" d="M309.4,385.8c1.1,1,1.6,1.3,2.5,2.7C310.1,388.3,309.5,387.3,309.4,385.8z" />
	<path display="inline" fill="#38322F" d="M329.4,404.3c0.7,1.3,1.2,2.7,1.5,5c-0.9-1.1-1.3-1.5-1.7-2   C329.3,406.3,329.4,405.3,329.4,404.3z" />
	<path display="inline" fill="#191513" d="M326.5,417.4c0.2,0.1,0.4,0.2,0.7,0.2c0,1.5,0,2.9-0.1,4.4   C325.9,420.7,326.6,418.9,326.5,417.4z" />
	<path display="inline" fill="#414349" d="M326.3,426.4c-1.9-0.3-1.2-1-0.7-2.2C326.8,424.6,326.3,425.6,326.3,426.4z" />
	<path display="inline" fill="#231C1C" d="M325.7,347.2c-0.1-1,0.4-1.5,1.5-1.4l0,0C326.6,346.2,326.2,346.7,325.7,347.2   L325.7,347.2z" />
	<path display="inline" fill="#292C2A" d="M325,387.6c-1,0.1-1.3,0.5-1.8-0.2C323.9,386.9,324,387.2,325,387.6z" />
	<path display="inline" fill="#231C1C" d="M325.7,347.2c-0.1,0.2-0.2,0.3-0.3,0.5C325.5,347.5,325.6,347.3,325.7,347.2L325.7,347.2z   " />
	<path display="inline" fill="#E4E4EB" d="M633.4,567.1c5.8-5.8,0.9-12.3-3.8-16.7c0.1-0.5,0.1-0.9,0.2-1.4   c7.7-1.2,11.8-8.1,16.5-13.6c8-4.7,12.6-12.9,16.4-21.1c1.3-0.1,2.6-0.2,4-0.3c-18.2,32.7,5.3,27.3-15,50.4   c-0.8-2.9,2.8-4.5,2.1-7.5c-6.3,7-6.1,15.3-5.6,23.9c-11.7-1.6-7.8-8.4-23.6-4.3c0.3-3.3,3.3-6.5,5.8-8.7   C632.3,568.6,632.3,568.6,633.4,567.1z" />
	<path display="inline" fill="#CFCFDD" d="M664.5,519c0.5-1.8,2.4-3,2.2-5.1c6.3-1.1,9,6.8,10.4,11.6c4.4,10.2,0.2,21.1-6.4,29.4   c-11.6,7.3-7.7,19.8-15.7,29.3c-7.8-3-7.3-14.8-3.5-20.9c0.1,0.3,0.1,0.7,0.2,1c1.4,0.1,1.3-1.6,1.8-2.5c0.6,1.6,1.8,0.1,2.3-0.7   c4.7-4.9,8.3-11.7,6-18.4c-4.9-8,1-16.9,4.3-24.5C665.4,518.6,665,518.8,664.5,519z" />
	<path display="inline" fill="#CECDDB" d="M624.7,576.4c15.8-4,11.8,2.7,23.6,4.3c0.1-0.6,0.3-1,0.4-1.4c1,2.9,3.4,4.8,5,7.2   c-10.4,1-17.2-9.4-27.7-8.2C625.2,577.9,624.5,577.5,624.7,576.4z" />
	<path display="inline" fill="#EFF0F0" d="M629.9,565c-0.5-3.7-0.1-7.3,0.6-10.8c3.2,2.7,3.8,4.4,2.9,8.2   C632.2,563.2,631.4,564.9,629.9,565z" />
	<path display="inline" fill="#434447" d="M653.7,586.6c-2.8-3.4-5.8-6.8-5.6-11.6c0.2-0.3,0.4-0.5,0.7-0.8   c1.5,3.5,1.4,9.3,6.4,10.1c-0.2,0.8-0.4,1.5-0.6,2.3C654.2,586.6,653.9,586.6,653.7,586.6z" />
	<path display="inline" fill="#A7A198" d="M623.3,553.4c0.2,0.2,0.4,0.4,0.6,0.6c-1.2,0.4-2.4,0.9-3.7,1.3c-0.5-0.2-1-0.5-1.5-0.7   C620.3,554.2,621.8,553.8,623.3,553.4z" />
	<path display="inline" fill="#6D7E82" d="M633.4,567.1c-1.2,1.5-1.2,1.5-2.9,0.7c0.5-0.7,1-1.4,1.5-2.2   C632.6,566.2,633,566.7,633.4,567.1z" />
	<path display="inline" fill="#798F93" d="M629.8,549c-0.1,0.5-0.1,0.9-0.2,1.4c-1.3,0-2.6-0.1-3.9-0.1c0-0.1,0-0.3-0.1-0.4   C627.1,549.5,628.4,549.2,629.8,549z" />
	<path display="inline" fill="#FBDFD3" d="M343.8,443.7c-0.6-2.9-2.6-4.8-4.4-7.1c-1.8-5.6,4.8-10.4,2.3-11.7   c-0.5,0.7-1,1.4-1.5,2.1c-0.7,0.3-0.7,0.9-0.7,1.5l0,0c-1.1-1-0.4-2.3,0-3.5c3.4-6.6-0.1-13.5,0-20.4c0.4-5.5-5.1-8.9-4.4-14.5   c-0.4-6.9,1.7-14.9,7.7-18.8c0.3-7.3-3.5-7.2,0.9-15.9c4.1,2.3,5.6,7.2,7.3,12c2.4-2.4,0.2-4.7-0.7-7.1c1.2-2.7,0.9-5.5-0.7-7.9   c0.3-8.3-0.3-16.5-0.6-24.8c8.2-5.3-4.4-8.6-0.9-14.5c0.1-0.8,0.4-1.7-0.8-2l0,0c0-0.5,0-1,0-1.6c1.9-2.9,0-7.5,1.4-10.9l0,0   c1.3-0.7,1.2-2.1,1.8-3.4c0.4-0.2,0.9-0.4,1.6-0.7c0.6,1.9-0.2,3,0.6,5c1.5-1.8,2.9-4.2,1-5.9l0,0.1c-0.3-2-0.3-4,0.1-6   c1.6-1.5,1.9-2.4,0-4.4c-0.8-9.3,1.5-18.5,1.3-27.8c2.5-3.3,5.1-6.5,7.6-9.8c0.4,0.2,0.8,0.4,1.2,0.6c0.3,0.5,0.5,1.1,0.7,1.5   c-9.2,21.8,10.2,40.1,1.5,75.3c-2,2.9,0.9,7.2,1.4,10.5c0.1,4.8,1.1,11.2-1,15.4c3.2,15.5-7.9,27.3-6.6,42.3   c0.6-0.4,1.1-0.8,1.7-1.3c1.9,1.7,3.9,3.5,6,5.4c0.2,4.2,0.4,8.4,0.6,12.6c-1.2,0.6-1.5-0.6-2-1.5c0.4-3.1-1.6-15.6-6.1-13.1   c1.7,6.3,7.7,13.8,5.3,20.3C366.1,428.2,365.8,456.1,343.8,443.7z M356.9,355.9c-0.5,0.6-0.7,1.1-0.3,1.8c0.6-0.2,1.1-0.3,1.1-1   C359.1,355.8,357.2,354.1,356.9,355.9z M360.4,255.6c-1.2,2.1-0.2,4.3-0.7,6.8c1.7-0.9,0.7-1.9,0.8-2.6c0.4-2.3,1.6-4.4,0.1-6.5   C360.3,254.3,360.4,255,360.4,255.6z M354.6,401.6c1.9-2.6,3.6-5.2,3.8-8.6c-0.6,0-0.9,0-1.3,0c-1.7,3.9-2.8,8-5.9,11.1   c-0.2,0.3,0,0.4,0.3,0.6C353,404,353.9,402.9,354.6,401.6z M355.8,322c2.6,0.8,4.4,1.3,6.2,1.8C363.2,320.4,358.4,321.7,355.8,322z    M365.6,318.6c-2.1,2.1-2.1,2.1-2,3.6C365.1,321.6,365.8,320.6,365.6,318.6z M345.3,411c1.5-0.3,2.1-0.7,2-1.8   C345.9,408.9,345.9,410,345.3,411z M360.6,252.4c1.4-0.6,1.4-0.6,1-1.7C361.2,251.3,361,251.7,360.6,252.4z M361.2,264.7   c-1.1,1.8-1.1,1.8,0,2.4C361.2,266.5,361.2,266,361.2,264.7z M344.7,413.4c-1.6-0.1-1.6-0.1-1.9,1.4   C343.5,414.3,344,414,344.7,413.4z" />
	<path display="inline" fill="#CCD2E9" d="M372.1,506.8c-2.1,0-3.6,1.8-5.4,2.7c-6.3-6.4-8.5-16.2-14.1-23.4   c-3.1-4.6-2.2-9.9-4.4-15.1c3.3,2,6,3.9,9.7,3.8c1-10.2-11.2-16.1-12.7-26.3c21.8,1.4,18.9-9.6,25.3-25.7c1.8,0.8,1.5,3.6,3.6,3.4   c0-0.6,0-1.1-0.5-1.4c0.7-0.4,1.4-0.8,2-1.1c-0.4-4.9-1.1-10.3-4.9-13.8c0.1-4.5-1.4-7.7-1.6-12.6c9.3,8.4,14.6,20.5,20.7,31.4   c2.2,6.3,1.6,13.9,4.9,19.9c2.3,1.4,2,4.2,3.5,6c0.3,9.3,4.5,18.7,1.8,27.9c-11.1,5.7-0.3,13.5-18.5,6.3c-3-1.2-5.6-1-9.1-0.3   c3.3,1.6,6.3,2,9.8,1.1c0.6,0.7,1.9,0.9,1.3,2c-4,1.7-1.4,7.4-2.7,10.7C377.9,504,375.2,505.3,372.1,506.8z M380.8,446.6   c2.4,2.3,8.9,3.9,11,0.5c-1.9-1.4-3.3,0.8-5-0.1c-1.3-0.9-2.5-0.1-3.7,0.1c-0.3-0.4-0.5-0.9-0.8-1.3c3-4.5-2.9-7.6-6.6-8   C371.3,441.1,378.5,444.5,380.8,446.6z M380.9,451.5c-1.2-4.2-4.8-7.2-8.9-7.9c-0.7,0.8-1.4,1.5-1.9,2c0,1.3,0,2.4,0,3.6   c5.1,5.5,7,7.7,14.5,4.8C383.7,452.7,382,452.4,380.9,451.5z M385.6,454.2c1.4-0.4,2.3-1.2,1.6-3C386.2,452,385.7,453,385.6,454.2z    M375.4,457.3c-0.4,0.4-0.7,0.7-1,1.1c1,1,2.1,1,3.9,0.9C377,458.4,376.2,457.9,375.4,457.3z M367.7,445c-1.7,1.6-1.7,1.7,0.1,2.5   C367.8,446.8,367.8,446.2,367.7,445z M384.5,460.7c-1.2,1.1,0.7,2.8,1.9,2.3C385.8,462.2,385.3,461.6,384.5,460.7z M364.3,487.4   c0.3,1,0.9,1.3,2.1,1.1C366,487.2,365.4,486.9,364.3,487.4z M366.6,440.6c-0.7,0.8-0.7,0.8,0.3,2.4   C367.7,442,367.4,441.3,366.6,440.6z M390.1,463.7c-1-1-1.7-0.7-2.5,0C388.8,464.1,388.9,464.1,390.1,463.7z M369.4,488.6   c-0.1,0.1-0.1,0.3-0.2,0.4c0.4,0.2,0.8,0.3,1.2,0.5C370.8,488.7,369.9,488.9,369.4,488.6z M360.2,483.6c-0.8,0.8-0.1,1.5,0.6,1.1   C360.7,484.4,360.5,484,360.2,483.6z" />
	<path display="inline" fill="#B4BAD1" d="M370,405.2c1.1,1.3,0.6,2.9,0.7,4.6c3.8,3.5,4.5,8.8,4.9,13.8c-1,0.5-2.2,1.1-3,2   c-0.9-1.4,0.2-3.3-1.7-4.2c-0.3,1.3-0.9,2.3-1.6,3.4c0-2.1-0.5-4.2,1.6-5.7C368.8,414.9,370.4,409.8,370,405.2z" />
	<path display="inline" fill="#120C0D" d="M358.4,447.4c-0.6,0.8-1.4,0.7-2.3,0.6c-0.5-0.8-0.9-0.8-1.4,0c-0.7,0-1.4,0-2.1,0   c-1.1-1-2.5-0.7-3.8-0.6c-4.7,0.7-7.9-2.7-11.5-5.1c0.5-1.1,1.6-0.5,2.4-0.9c5.3,3,11,6.2,17.2,5.2   C357.1,447.4,357.8,447.3,358.4,447.4z" />
	<path display="inline" fill="#DAC4B9" d="M365.2,374.7c0.6,1.1,1.2,2.1,1.6,2.9c-0.1,2.3-1.7,3-3,4.2   C363.8,377.2,363.8,377,365.2,374.7z" />
	<path display="inline" fill="#342D2B" d="M366.5,406.5c0.4,0.9,0.7,2.1,2,1.5c0,1.4,0,2.7,0,4.3c-0.8,0.1-1.5,0.1-2.1,0.2   c0.7-1.7-0.2-3.4-0.6-5.1C365.9,407.1,366.2,406.8,366.5,406.5z" />
	<path display="inline" fill="#4C505E" d="M348.2,242.8c0.2,0,0.4,0,0.6,0c0.3,3.7-4.3,4.6-5.8,8c5.3-2.4,9.9-7.4,13-12.3   c2.1-0.8,4.1-1.7,6.6-1.4c0.6,0,0.4,1.7,1.4,0.6c1.2,1.1,0.5,2.4,0.5,3.7c-0.4,0.2-0.9,0.5-1.3,0.7c-1.9-0.2-2.4,2.4-4.2,2.2   c0.7-1.2,3.2-2.8,1.5-4.2c-2.6,1.3-4.6,4.3-5.2,7.1c-3.1,3.1-5.4,7-10.4,5.8c-0.6,0.6-1.1,1.2-1.7,1.8c-0.7-0.7,0.3-2.1-1.1-2.4   c-1.2,0.7-0.5,1.9-0.6,2.8c-0.1,2.3,2.1,3.1,3.7,4.3c0,0,0,0,0,0c-2.1,12.7-20.3,10-24.7,0c4.8-6.1,14.2-18.9,22.8-11.8   C345.1,246.3,346.7,244.6,348.2,242.8z" />
	<path display="inline" fill="#373A46" d="M355.4,247c0.4-1.3,0.5-2.6,1.5-3.6c0,0.8,0,1.6,0,2.4c1.5,0.1,2.1-0.5,2.2-1.7   c1.9,0.2,2.3-2.4,4.2-2.2c-3.2,5.8-7.9,9.9-12.2,15.1c0.3,0.4,0.7,0.9,1.2,1.5c-0.8,1.8-0.6,3.9-0.5,5.9c-1.3,1.8-1.5,4.2-2.2,6.1   c-11.2,7.8-18.3,11.4-28.3-0.8c0.2-0.6,0.4-1.2,0.7-1.9c-1.9-2.5-1.4-5.5-1.4-8.5c4.2,8.4,16.7,12.1,23.2,4.3   c0,4.5-6.2,4.7-5.6,9.3c5.6,0.2,8.3-5.8,9.2-10.3c-0.8-0.7-1.8-0.5-2.7-0.4c0.2-1,0.5-2,0.7-3c0.4-0.3,0.8-0.6,1.4-1.1   c-1.5-0.3-2.6-1.6-3.6-0.4c-1.1-0.6-1.4-1.7-1.5-2.9c1.3-0.7,0.5-1.9,0.6-2.8c1.4,0.3,0.4,1.7,1.1,2.4c0.5-0.6,1.1-1.1,1.7-1.8   c3.5,0.5,6.3-0.4,8.1-3.6c0.1,1.2,0.5,1.9,2,1.2c0.4-0.9,0.9-1.9,1.5-3.1C356.1,247.2,355.8,247.1,355.4,247z M331.6,275.6   c0.5-1.2,0.8-1.3,0.2-2.1C330.9,273.9,330.6,274.4,331.6,275.6z" />
	<path display="inline" fill="#373A46" d="M352.5,265.9c0.2,0.9,0,1.6-0.6,2.3C351.7,267.3,351.5,266.5,352.5,265.9z" />
	<path display="inline" fill="#373A46" d="M352.4,264.4c0,0.3,0,0.5,0,0.8c-0.2-0.2-0.4-0.5-0.7-0.7   C352,264.5,352.2,264.5,352.4,264.4z" />
	<path display="inline" fill="#FBDFD3" d="M261.1,553.3c2.9-0.7,5.5-0.3,8.4,0c0.1,0.2,0.3,0.6,0.5,1.1c1.2-0.2,1.8-1.7,2.7-2.4   c0.3,0.1,0.5,0,0.7-0.2c10.6-3.2,9.9-19.2,13.9-28c1.5-5,7.2-8.3,7.5-13.7c5.1-4.3,10.8-9.7,9.8-16.8c0.9-4.2,4-7.9,3-12.6   c-1.3-7.5,7.6-10.5,6.5-17.7c0.7,0.1,1.2,0.2,1.6,0.3c3.2,3,6.5,6,9.2,9.5c-1.1,1.8-1,3.9-1.5,5.8c-0.6,1.5-0.6,1.5-0.1,2.8   c1.3-2.3,1.2-5.3,3-7c1.3,2.4,2.7,4.8,4.1,7.4c-2.7,9.1-11,14.4-14.2,23.1c-8.6,12.6-16.3,26.2-24,39.2c-5,1.2-5.9,8-8.7,11.6   c-0.3-0.4-0.5-0.8-1.3-2c0,1.4,0,2,0,2.7c0.6-0.4,0.9-0.6,1.3-0.8c-0.4,1.9-0.8,3.7-2.3,5.1c-13,0.5-24.4-6.3-37.3-2.7   c4.5-2.4,10-2.9,14.9-2.6C259.7,554.5,260.4,553.9,261.1,553.3z M307.7,512.8c2.4-1.2,2.4-1.2,2.9-3.3c-2.1,1-3.1,2.6-4.9,3.5   c0.1,0.2,0.1,0.3,0.2,0.5C306.5,513.2,307.1,513,307.7,512.8z M291.9,520.7c0.7-0.3,1.1-0.4,1.2-0.6c1.7-4.2,5.8-2.8,8.8-5.4   C297.6,515.4,292.6,515.8,291.9,520.7z M321.2,486.7c1.8-2.4,1.8-2.4,1.1-3.8C321.9,484.1,321.6,485,321.2,486.7z M265.2,556   c1.6,0,3.9,0.4,2.7-1.4C267.2,555,266.5,555.3,265.2,556z M284.7,550c-1.3,1.1-1.3,1.1-0.5,2.5C284.4,551.4,284.5,550.7,284.7,550z    M284.4,548.5c1.8-0.7,1.4-1.4,1.1-2.7C285,546.9,284.8,547.4,284.4,548.5z M314.3,494.6c1.2,0.3,1.2,0.3,1.5-1   C315.1,494,314.7,494.3,314.3,494.6z M306.4,505.9c0.8,0,1.5,0,2.4,0C307.9,504.9,307.2,505.2,306.4,505.9z" />
	<path display="inline" fill="#EDC9B9" d="M315.7,463.2c-0.5-0.1-0.9-0.2-1.6-0.3c1,7.2-7.9,10.2-6.5,17.7c1.1,4.7-2.1,8.4-3,12.6   c-0.8-0.6-1.5-1.2-2.2-1.7c1.3-12.6,1-25.3,8.8-36.2C312.7,457.9,314.2,460.5,315.7,463.2z" />
	<path display="inline" fill="#E0BEAF" d="M313.5,455.9c-1.2-5.5-4.1-11.6-0.2-16.6c2.3,4.4,0.3,10.8,0.9,15.9   C314,455.4,313.7,455.7,313.5,455.9z" />
	<path display="inline" fill="#342C29" d="M314.2,455.2c0-4.5,0-9,0-13.6c0.2-0.1,0.4-0.1,0.5-0.2c1.2,4.6,0.6,9.2,0,13.9   C314.6,455.3,314.4,455.2,314.2,455.2z" />
	<path display="inline" fill="#4F4946" d="M323.4,478.4c0.5-1.9,0.4-4,1.5-5.8c0.5,0.5,1,1,1.5,1.6c-1.5,1.1-1.4,3.4-2.2,5   C323.9,478.9,323.7,478.7,323.4,478.4z" />
	<path display="inline" fill="#907F75" d="M314.8,441.4c-0.2,0.1-0.4,0.1-0.5,0.2c-0.3-0.8,0.3-1.9-0.9-2.3c0-1,0.4-1.8,1.4-2.6   C315,438.4,314.7,439.9,314.8,441.4z" />
	<path display="inline" fill="#504340" d="M314.8,457.5c0.5,1,1,2,1.5,3c-2,0.4-1.6-1.9-2.3-3C314.3,457.5,314.6,457.5,314.8,457.5z   " />
	<path display="inline" fill="#6C646A" d="M341.7,491.6c0.1,0.2,0,0.4,0,0.7c-0.7-0.8-1.4-1.5-2-2.3   C340.5,490,341,491.1,341.7,491.6z" />
	<path display="inline" fill="#90786E" d="M314.8,457.5c-0.2,0-0.5,0-0.7,0c-0.2-0.5-0.4-1-0.6-1.5c0.2-0.2,0.5-0.5,0.7-0.7   c0.2,0,0.4,0.1,0.6,0.1C314.8,456,314.8,456.7,314.8,457.5z" />
	<path display="inline" fill="#5876E8" d="M439.5,501.1c0.5,1.6,1.1,3.3,1.6,4.9c-0.5,0.5-1,0.9-1.7,1.6c2.4,5.6,1.3,11.8-0.7,17.4   c-2.2,0.1-3.1,2.9-4.1,4.3c0.5,4.1-1.6,7.3-3,10.9c-1.1,0.4-0.4,2-1.9,2.3c-2,2.2-4.8,4.4-7.8,5.4c-0.4-0.2-0.7-0.3-1-0.5   c-2-5.4-1.6-11.7-4.9-16.5c1,6.9,2.7,12.7,4.2,19.4c-1.8,1.8-3.9,2.5-6.4,2.2c-0.3-2.3-0.2-3.5-1.6-6c0,2.6,0,4.3,0,6.1   c-8,0.8-17-4.4-21-10.9l0,0c0.5,0.2,1.1,0.4,1.8,0.7c2.7-12.8-2.8-25.9-2.4-38.9c0.5-0.1,1-0.2,1.4-0.3c4.2,6.7-0.3,19,7.5,22.9   c2.4-3.4,0.1-8,0.1-11.8c-1.2-4.9-0.1-10.4-0.5-15.7c1-1.1,1.7-2.6,3.5-2.7c0.7,7,0.3,21.1,6.3,24.9c-0.9-1.7-1.5-3.5-1.8-5.3l0,0   c0.4,0.1,0.8,0.2,1.5,0.4c-1.7-4.4,1.4-7.7,3-11.6c-1.7,0-1.4,2.1-3,2.1c0.8-4.7-2.7-21.9,2.1-23.5c1.2,3.6,0.5,7.7,3,10.7   c0-1.5,0.4-2.6-0.6-3.6c-0.1-5.1-3.5-11.5,2.5-14c0.6-2.8,2-5.5,4-7.7c4.7,7,10.2,13.6,17.7,17.8c-0.5,2.7-0.3,5.3,1.1,7.7   c0,1.2-0.5,2.6,0.6,3.6C439.2,498.6,438.5,500.2,439.5,501.1z M423.6,520.6c1.1,6.3,2.3,13.1,5,19   C427.9,532.7,426.7,526.6,423.6,520.6c0.2-1.7-0.3-3.2-1.2-4.9C421.9,517.7,422.6,519.2,423.6,520.6z M428,515.6   c0.4,0.9,1,1.5,2.1,1.9c-4.7-5.9-10.2-11.2-13.7-18.2C417.7,506,422.5,511.7,428,515.6z M435.6,520.2c0.3-5.2-2.6-11.3-5.3-15.8   C431.9,509.7,433.4,515.1,435.6,520.2z M420.5,487c-2.8,2.8-4.5,6.1-5.1,9.4C417.3,493.4,419,490.2,420.5,487z" />
	<path display="inline" fill="#EDCABA" d="M452.7,432.8c-8.1,13.1-22.6,21.4-30.4,34.8c-1.9-2-3.3-4.4-4-7.4   C427.3,448.9,439.8,438.8,452.7,432.8z" />
	<path display="inline" fill="#EAC7B7" d="M438.2,466.9c0,0.8,0,1.6,0,3.3c1.9-3.3,3.5-6,6.7-6.8c-3.9,6.4-5.4,13.4-7.7,20.6   c-1.1-0.7-2.3-1.1-2.8-2.5c1.5-0.7,0.7-2.4,1.3-3.5c0.3-1.6,1.4-3.8,0.3-5.2c0.3-1,2.4-2.9,0.7-3.5c0.4-1,0.8-2,1.2-3   C438.1,466.4,438.1,466.6,438.2,466.9z" />
	<path display="inline" fill="#463B37" d="M440.4,473.5c1.6-6.4,5.2-12.5,10.8-16.2c0.3,1.5-0.7,2.6-1.1,4c-0.6-0.3-1-0.4-1.5-0.6   c-3.4,4.2-5.8,9.3-7.4,14.4C440.9,474.5,440.7,474,440.4,473.5z" />
	<path display="inline" fill="#3B384B" d="M438.8,497.4c-1.1-1.1-0.6-2.4-0.6-3.6c0.2,0,0.4,0,0.7,0c0.3,1.2,0.5,2.4,0.8,3.6   C439.3,497.4,439.1,497.4,438.8,497.4z" />
	<path display="inline" fill="#111325" d="M372.1,506.8c1.9-1,3.9-1.9,5.8-2.9c0.7,0.7,1.5,1.4,2.2,2.2c-0.8,1.2-1.5,2.3-2.3,3.5   c-3-4-6.5-0.4-9.2,1.8c0.4,1.5,1.2,2.3,2.8,2c0,0.2,0,0.4-0.1,0.6c-0.4,0.5-0.9,1.1-1.4,1.5l0,0c-1.2-0.7-2.4-1.4-3.6-2.2   c-0.7,0.1-1.4,0-2.2,0c0-0.1,0-0.3,0-0.4C367,511.2,369.6,509,372.1,506.8z M377.3,507.5c1-0.7,1.6-1.1,0.7-2.2   c-0.5,0.4-0.9,0.7-1.7,1.2C376.7,506.9,377,507.2,377.3,507.5z" />
	<path display="inline" fill="#394E98" d="M366.3,513.3c1.2,0.7,2.4,1.4,3.6,2.2c-0.8,2.3-1.6,4.6-2.4,6.9c-0.1,0-0.3,0-0.4,0   c0.3-3.2-1-3.6-3.7-2.5l0.1,0c-1-1-1-2.6-1.4-4c1.4-1.3,2.1,1.9,3.7,1.6c0.9-0.9-0.3-1.3-0.3-2   C366.7,515.1,366.2,514.1,366.3,513.3z" />
	<path display="inline" fill="#435AB1" d="M366.3,513.3c-0.1,0.8,0.3,1.8-0.8,2.2c-1-0.5-0.7-1.6,0.1-2.2   C365.8,513.4,366.1,513.3,366.3,513.3z" />
	<path display="inline" fill="#4B65C5" d="M360.5,518.4c-0.9-0.1-0.5-0.7-0.2-1.2C360.4,517.6,360.4,518,360.5,518.4L360.5,518.4z" />
	<path display="inline" fill="#A39FA5" d="M370.8,569.1c0,0.2-0.1,0.5-0.1,0.7c-0.7-0.2-1-0.7-0.7-1.4   C370.2,568.6,370.5,568.8,370.8,569.1z" />
	<path display="inline" fill="#0A0D19" d="M362.8,519c0.2,0.3,0.5,0.6,0.7,0.9c-0.2,0-0.5,0-0.7,0   C362.7,519.6,362.7,519.3,362.8,519z" />
	<path display="inline" fill="#94B0B0" d="M370,568.5c-0.3,0-0.5,0-0.8,0.1c0.2-0.2,0.3-0.4,0.5-0.6   C369.8,568.1,369.9,568.3,370,568.5z" />
	<path display="inline" fill="#394E98" d="M365.6,513.4c-0.2,0.2-0.4,0.4-0.6,0.7c0-0.2-0.1-0.5-0.1-0.7   C365.1,513.4,365.4,513.4,365.6,513.4z" />
	<path display="inline" fill="#394E98" d="M364.1,512.9c0,0.1,0,0.3,0,0.4c-0.2,0-0.5,0-0.7-0.1C363.7,513.1,363.9,513,364.1,512.9z   " />
	<path display="inline" fill="#493C42" d="M383.6,491.5c0.5-1.1-0.7-1.3-1.3-2c0-0.2,0-0.5,0-0.7c1,0.4,2,0.8,3.1,1.2   C384.5,490.2,384.7,491.6,383.6,491.5z" />
	<path display="inline" fill="#F3D9CE" d="M364.7,241.3c0-1.2,0.6-2.6-0.5-3.7c-0.4-1.1,1.5-2,0.5-3c-3.8-0.3-5.9,0.6-8.5,3.3   c-0.7,0-2.2-0.5-2,0.7c-1.4-1.8-3.5-3.2-3.9-5.5c0.8-2,2.8-1.3,4.5-2c0.2,3.2,5.5-0.7,7.6-0.5c5.4-1.1,4.1,6.2,5.4,9.6   c-0.4,0.5-0.9,1.1-1.4,1.8C365.7,241.7,365.2,241.5,364.7,241.3z M352.1,233.7c1,0.5,1.4-0.1,1.7-0.8   C352.8,232.2,352.5,232.9,352.1,233.7z" />
	<path display="inline" fill="#BDB7AD" d="M364,246.3c-0.4-0.2-0.8-0.4-1.2-0.6c0.3-0.8,0.5-1.5,1.8-1.5   C364.5,244.9,364.2,245.6,364,246.3z" />
	<path display="inline" fill="#373A46" d="M353.1,260.1c0.2,0.9,0.1,1.6-0.5,2.3C352.5,261.6,352.2,260.7,353.1,260.1z" />
	<path display="inline" fill="#ECC9B9" d="M304.6,494.3c0.7,6.6-5.2,11.6-9.8,15.7c-0.3,5.4-6,8.7-7.5,13.7   c-3.8,9.1-3.3,23.5-13.2,28.1c7.3-8.6,7.1-20.8,11.7-30.6c3.6-10.3,11.6-17.7,15.8-27.5C302.7,493.9,303.6,494.1,304.6,494.3z" />
	<path display="inline" fill="#2D2A29" d="M365.7,324.7c-0.1-0.6-0.1-1.2,0.6-1.5C366.3,323.8,366.4,324.4,365.7,324.7z" />
	<path display="inline" fill="#050404" d="M356.1,238.4c-3.1,4.9-7.7,10-13,12.3c1.4-3.3,6.1-4.3,5.8-8c0.2-1.7-0.4-3.6,0.7-5.1   c0.5,1.4,1.1,2.8,1.7,4.4c1.4-0.9,2.4-1.9,2.9-3.4c0.2,0,0.5-0.1,0.7-0.2C355.3,238.4,355.7,238.4,356.1,238.4L356.1,238.4z" />
	<path display="inline" fill="#E5C2B3" d="M354.2,238.6c-0.5,1.5-1.5,2.5-2.9,3.4c-0.8-2.8-3.4-6.4-1-8.9   C350.6,235.4,352.8,236.8,354.2,238.6z" />
	<path display="inline" fill="#BAB3AA" d="M355.7,232.4c-1.1,0.1-1-0.6-1-1.3c1.6-1.7,3.8-2.2,5.9-2.7c0.3,0.2,0.5,0.4,0.8,0.7   c-1.9,0.8-3.8,1.6-5.8,2.5C355.6,231.7,355.6,232.1,355.7,232.4z" />
	<path display="inline" fill="#E2D5CA" d="M361.4,229c-0.3-0.2-0.5-0.4-0.8-0.7c1-0.3,2-0.6,3.2-1c0.4,0.7,0.7,1.2,1,1.7   C363.8,229.9,362.5,229,361.4,229z" />
	<path display="inline" fill="#CFB8AE" d="M367.5,230.9c-1.2-0.4-1.2-1.5-1.6-2.5C367.4,229.3,367.4,229.3,367.5,230.9z" />
	<path display="inline" fill="#6F5C57" d="M357.9,227.9c0.3-0.4,0.5-0.3,0.8,0C358.5,228.2,358.2,228,357.9,227.9z" />
	<path display="inline" fill="#A69B93" d="M504.2,537.3c1.8-1.2,3.5,0,5.5,0.4C507.6,538.5,505.9,537.7,504.2,537.3L504.2,537.3z" />
	<path display="inline" fill="#E8C5B6" d="M258.3,556.8c7.3,3.6,15.4,2.5,23.1,3.6c-5.4,4.2-12.1,1.6-18.1,1.4   c-1.4-1.3-3.2,0-4.7-0.8c-4.5-2.5-10.2-0.3-15-1.5c4.6-0.8,8.8-2.5,13.5-1.8C257.7,557.8,258.2,557.6,258.3,556.8z" />
	<path display="inline" fill="#4B65C4" d="M399,513.3c0.8,3.9,2.6,9.2,0.3,12.8c-5.3-1.9-5.3-11.6-5.3-16.6c1.2,1.7,2.4,3.4,4,5.1   c0.1-0.7,0.2-1,0.3-1.3C398.5,513.3,398.7,513.3,399,513.3z" />
	<path display="inline" fill="#1A213D" d="M406.9,515.5c0.4,1.9,1,3.6,1.8,5.3c-5.3-0.8-8.4-30.2-5.1-33.5   C403.8,496.5,403.1,506.8,406.9,515.5z" />
	<path display="inline" fill="#040509" d="M389,524.8c-1.9-4.7-2.4-12.2-1.3-18.6C391.1,506.5,389.4,521.6,389,524.8z" />
	<path display="inline" fill="#090B14" d="M428.8,548.3c-1.9,5.9-6.8,10.6-11,15c-0.3-0.3-0.5-0.5-0.8-0.8c1.7-2.2,3.4-4.3,5.1-6.5   c0.8-0.2,0.8-0.9,0.8-1.5c2.2-2,3.6-4.7,5.2-7.1C428.3,547.8,428.6,548,428.8,548.3z" />
	<path display="inline" fill="#0A0D19" d="M363.4,519.8c1.3-0.3,3.9-1.5,3.7,0.8c-4.4,1.7-6.8,5.9-6.5,10.4   C354.9,528.7,361.5,522.7,363.4,519.8z" />
	<path display="inline" fill="#0A0C16" d="M379.5,526.4c0-1.9,0-3.8,0-5.7c1.6,1.3-0.4,3.7,1.2,5c0.3,4.7,3.2,8.5,4.6,12.9   c-0.3,0.3-0.6,0.6-0.9,0.9c-0.9-1.4-1.8-2.7-2.7-4.2c-1.3-0.1-2.6-0.2-3.8-0.3c0-0.2,0-0.5,0-0.7c1,0,2.1,0,3.2,0   C380.1,531.5,380.7,528.7,379.5,526.4z" />
	<path display="inline" fill="#1F2748" d="M442.5,551.1c0.7,1.4,1.1,2.5,0.9,4.1c-4.8-5.3-5.2-11.7,1.5-16.2   C445.9,541.2,437.5,545.1,442.5,551.1z" />
	<path display="inline" fill="#232D53" d="M411.4,480c0.1,1-0.5,2.2,0.6,2.9c0.3,2.4,0.6,4.8,0.8,7.1c-0.3,0.3-0.5,0.5-0.8,0.8   c-1.2-6.3-2.5-11.5-3-18.3C411.1,475.1,410.7,477.7,411.4,480z" />
	<path display="inline" fill="#25305B" d="M422.9,554.6c0,0.6,0,1.3-0.8,1.5c-2-5.4-3.5-11-4.4-16.6c0.2-0.5,0.5-0.9,0.7-1.4   C419.9,543.6,421.3,549.2,422.9,554.6z" />
	<path display="inline" fill="#1E2648" d="M377.9,534.3c0,0.2,0,0.5,0,0.7c-6.3,0.2-9.4-8.7-8.2-13.6   C371.7,526.4,371.6,532.9,377.9,534.3z" />
	<path display="inline" fill="#0E1323" d="M398.3,513.3c-0.1,0.3-0.1,0.7-0.3,1.3c-5.4-4.6-5.2-10.8-4.8-17.2c0.3,0.5,0.5,1,0.8,1.5   C393.4,504.2,394.9,509.3,398.3,513.3z" />
	<path display="inline" fill="#1C2546" d="M371.3,544.3c-1.3-3.9-1.9-7.1-1-10.4c0.3,0,0.5-0.1,0.8-0.1c0.9,2.9,0,6.1,1,9   C372.1,543,371.8,543.4,371.3,544.3z" />
	<path display="inline" fill="#161D37" d="M380.7,525.7c-1.7-1.3,0.4-3.7-1.2-5c0.1-3,1.2-5.6,3-8   C382.1,516.6,380.1,521.1,380.7,525.7z" />
	<path display="inline" fill="#2E3C73" d="M365.5,539.7c1.6-3,2.4-6.1,2.6-9.3c0.8,2.9,0.4,5.7-0.7,8.4c0.6,0.5,1.1,1.1,1.7,1.6   c-0.1,0.1-0.1,0.3-0.2,0.4C367.8,540.5,366.8,540.1,365.5,539.7z" />
	<path display="inline" fill="#131425" d="M380.1,572.1c-3.7,0.1-5.1-0.4-7.2-2.4c2.7-0.2,4.8,1.3,7.2,1.7   C380.1,571.6,380.1,571.8,380.1,572.1z" />
	<path display="inline" fill="#13162B" d="M377.9,510.4c1.8-0.9,3.6-1.8,5.4-2.7c0.4,0.4,0.6,0.7,0.9,1c-1.7,1.3-3.7,1.7-5.5,2.5   C378.5,511,378.2,510.7,377.9,510.4z" />
	<path display="inline" fill="#2A366A" d="M377.9,510.4c0.3,0.3,0.5,0.5,0.8,0.8c-2.2,1.6-4.6,2.7-7.4,2.7c0-0.2,0-0.4,0.1-0.6   C373.6,512.5,375.8,511.5,377.9,510.4z" />
	<path display="inline" fill="#2A355E" d="M408.5,510.5c-0.2,1.7-1.2,3.5,0,5.4c-0.7-0.2-1.1-0.3-1.5-0.4c0.1-2.1-0.5-4.3,1.1-6.4   C408.2,509.6,408.4,510,408.5,510.5z" />
	<path display="inline" fill="#25315D" d="M413.4,550.4c-0.1,2.3,1.5,4.5,0.5,6.8C412.3,555.5,412.2,552.3,413.4,550.4z" />
	<path display="inline" fill="#1F2647" d="M417,562.6c0.3,0.3,0.5,0.5,0.8,0.8c-1,1.8-3,2.4-4.3,3.8c-0.2-0.2-0.3-0.4-0.5-0.6   C414.2,565.2,415.6,563.8,417,562.6z" />
	<path display="inline" fill="#394A90" d="M413.4,550.4c-0.7,0.8-0.7,1.8-0.7,2.9c-0.2-0.3-0.4-0.5-0.6-0.8c0-1.7,0-3.5,0-6.1   C412.8,548.2,413.5,549.2,413.4,550.4z" />
	<path display="inline" fill="#262E59" d="M383.8,534.4c-0.3-0.5-0.6-0.9-0.8-1.4c1.5-0.5,3.1-0.9,4.6-1.4   C388,533.1,384.8,533.5,383.8,534.4z" />
	<path display="inline" fill="#31407A" d="M377.5,558c0-2.4,0.4-3.3,2.1-4.6C378.7,555.1,378.8,556.8,377.5,558z" />
	<path display="inline" fill="#283260" d="M394,498.9c-0.3-0.5-0.5-1-0.8-1.5c0.2-0.8,0.5-1.7,0.8-3C394.7,497,394.7,497,394,498.9z   " />
	<path display="inline" fill="#30315B" d="M380.1,572.1c0-0.2,0-0.4,0-0.6c1.3,0,2.6,0,3.8,0C382.7,572.4,381.4,572,380.1,572.1z" />
	<path display="inline" fill="#1A2242" d="M384.5,539.4c0.3-0.3,0.6-0.6,0.9-0.9c0.8,0.8,1,1.8,1.4,3   C385.4,541.1,384.8,540.3,384.5,539.4z" />
	<path display="inline" fill="#20203B" d="M401,570c0.9,0,1.8,0,3.2,0C402.8,570.9,401.9,570.6,401,570z" />
	<path display="inline" fill="#161D37" d="M379.5,526.4c1,0.6,0.6,1.5,0.5,2.4C379.3,528.1,379.3,527.2,379.5,526.4z" />
	<path display="inline" fill="#4C69CF" d="M372.9,508.4c0.6-0.6,1.7,0.1,1.1,1.2C373.6,509.1,373.2,508.7,372.9,508.4z" />
	<path display="inline" fill="#4B65C4" d="M398.3,513.3c-0.3-0.5-0.5-0.9-0.8-1.4C398.3,512.1,398.2,512.7,398.3,513.3z" />
	<path display="inline" fill="#5876E8" d="M391,541.6c-0.2-0.1-0.3-0.2-0.5-0.3C390.7,541.4,390.8,541.5,391,541.6L391,541.6z" />
	<path display="inline" fill="#394E98" d="M369.9,515.5c0.2-0.2,0.5-0.5,0.7-0.7C370.4,515,370.2,515.2,369.9,515.5z" />
	<path display="inline" fill="#241F1E" d="M449.2,473.7c-1.4-1.5,2.1-12.5,4.5-11C452.8,466.5,450.8,469.8,449.2,473.7z" />
	<path display="inline" fill="#282120" d="M456.2,550.4c-1.1,2.1-0.5,4.6-0.7,6.9c-1.3-4.7-0.3-9.5-0.6-14.6c0.6,0.2,1,0.3,1.4,0.5   c0,1.7,0,3.4,0,5.1c-0.9,0.7-0.9,0.7-0.1,1.5C456.3,549.9,456.2,550.1,456.2,550.4z" />
	<path display="inline" fill="#302B29" d="M454.7,472.6c0.2-3.1,0.7-6.1,1-9.1c2.7,0.1-0.6,10.8-0.2,13.4   C454.5,475.7,454.9,474.1,454.7,472.6z" />
	<path display="inline" fill="#413936" d="M468.7,451.6c2.1,2.8,4.7,4.6,4.1,8.6c-1.6-2.6-3.3-5.2-4.9-7.8   C468.2,452.1,468.4,451.9,468.7,451.6z" />
	<path display="inline" fill="#403835" d="M452.7,449c2-1.2,4-1.6,5.9,0c-2.3,1.7-4.6,0.9-6.7,1.2c0-0.2,0-0.5,0-0.7c0,0,0,0,0,0   C452.2,449.3,452.4,449.1,452.7,449z" />
	<path display="inline" fill="#4F423E" d="M454,490.7c-0.3,0.2-0.6,0.4-1,0.7c-0.6-2.2-0.3-5.7,1.8-6.9   C454.8,486.6,454.4,488.6,454,490.7z" />
	<path display="inline" fill="#695A55" d="M473.1,471.7c-0.7-2.3-3.4-4.5-2.8-6.8C472.4,466.6,472.8,469.1,473.1,471.7z" />
	<path display="inline" fill="#958680" d="M454.7,472.6c-0.2,2.1,0.7,3.8,0.8,5.9c-1.1,0.8-0.4,2-0.7,3   C453.4,478.9,453.8,475.3,454.7,472.6z" />
	<path display="inline" fill="#342D2B" d="M448.4,475.2c-0.2,2.5-0.5,4.5-2.1,6.4C446,479,446.3,477.1,448.4,475.2z" />
	<path display="inline" fill="#291F1D" d="M445.2,453c0.8-1.3,1.8-2.4,3.9-2.7c-0.3,1.9-1.7,2.4-2.9,3.7   C445.9,453.6,445.6,453.3,445.2,453z" />
	<path display="inline" fill="#96847E" d="M468.7,451.6c-0.3,0.3-0.5,0.5-0.8,0.8c-1.2-2.6-1.3-3-1.2-5   C468.6,448.3,467.5,450.5,468.7,451.6z" />
	<path display="inline" fill="#4A2E2C" d="M459.2,436.3c-0.7,0.7-1.5,1.4-2.6,2.5C456,436.6,457.1,435.9,459.2,436.3z" />
	<path display="inline" fill="#796C67" d="M445.6,487.6c-0.6-1.2,0.5-2,0.8-2.9C448.1,484.8,446.9,487.6,445.6,487.6z" />
	<path display="inline" fill="#1E1A19" d="M456.2,539.2c-0.3,0.5-0.6,0.9-1.1,1.8c-0.5-1.6-0.3-2.8-0.2-4.6c0.6,0.9,1,1.3,1.3,1.8   C456.2,538.6,456.2,538.9,456.2,539.2z" />
	<path display="inline" fill="#766762" d="M454,499.4c-0.3,0-0.7,0.1-1.1,0.1c-0.3-1.3-0.3-2.4,1.2-2.9   C454.1,497.5,454.1,498.5,454,499.4z" />
	<path display="inline" fill="#87726C" d="M468.6,441.1c-0.4,1.4-1.6,1-2.7,1.2C466.9,440.9,466.9,440.9,468.6,441.1z" />
	<path display="inline" fill="#7B6762" d="M436.8,469.2c1.7,0.6-0.4,2.5-0.7,3.5c-0.3-0.1-0.6-0.3-0.9-0.5   C435.7,471.1,436.2,470.2,436.8,469.2z" />
	<path display="inline" fill="#9D8C86" d="M438.2,466.9c-0.1-0.3-0.1-0.5-0.2-0.8c0.4-0.9,1-1.6,2.3-1.9   C440.1,465.7,439.2,466.3,438.2,466.9z" />
	<path display="inline" fill="#696560" d="M445.2,453c0.3,0.3,0.7,0.6,1,0.9c-0.8,0.7-1.5,1.4-2.3,2.1l0,0   C444,454.8,444.4,453.8,445.2,453z" />
	<path display="inline" fill="#917F79" d="M454.1,504c0,0.7-0.1,1.3-0.1,1.9c-0.3,0.1-0.4,0.1-0.6,0.1c-1-0.4-0.6-1.2-0.6-2   C453.2,504,453.6,504,454.1,504z" />
	<path display="inline" fill="#BBA195" d="M446.1,495.1c-0.4,0.2-0.8,0.4-1.2,0.5c-0.4-1.3,0-2,1.3-1.9   C446.1,494.2,446.1,494.7,446.1,495.1z" />
	<path display="inline" fill="#A8908A" d="M473.7,464.1c-0.3,0.2-0.6,0.5-0.8,0.7c-0.8-0.8-0.7-1.6-0.3-2.9   C473,462.8,473.3,463.4,473.7,464.1z" />
	<path display="inline" fill="#EECABA" d="M454.9,481.4c0.2-1-0.4-2.2,0.7-2.9C455.4,479.5,456.2,480.7,454.9,481.4z" />
	<path display="inline" fill="#635753" d="M454,510.9c0,0.8,0,1.5,0,2.3c-0.2,0-0.3,0-0.5,0c-0.1-0.8-0.1-1.5-0.2-2.3   C453.5,510.9,453.8,510.9,454,510.9z" />
	<path display="inline" fill="#2E2322" d="M455.7,532.9c0,0.7-0.1,1.3-0.1,2.3c-1.1-1.7-1.1-1.7-0.1-2.8   C455.5,532.6,455.6,532.7,455.7,532.9z" />
	<path display="inline" fill="#654C49" d="M451.9,449.5c0,0.2,0,0.5,0,0.7c-0.6,0.3-1.2,0.5-1.9,0.8   C450.1,449.6,451.1,449.6,451.9,449.5z" />
	<path display="inline" fill="#BFADA4" d="M455.1,529.7c-0.1-0.5-0.1-0.9-0.2-1.4c0.2,0,0.3,0,0.5-0.1c0.1,0.5,0.1,0.9,0.2,1.4   C455.4,529.6,455.2,529.6,455.1,529.7z" />
	<path display="inline" fill="#6A4E4A" d="M460.2,449c0.4,0.3,0.7,0.5,1.2,0.9C460,450.3,460,450.3,460.2,449z" />
	<path display="inline" fill="#93867F" d="M453.5,455.6c0.4-0.3,0.7-0.6,1.2-1.1C454.8,455.7,454.7,456.2,453.5,455.6z" />
	<path display="inline" fill="#79726D" d="M451.3,458.3c0-0.4-0.1-0.7-0.1-1.1c0.3-0.2,0.6-0.4,1-0.7   C452.5,457.6,451.8,457.9,451.3,458.3z" />
	<path display="inline" fill="#B8A098" d="M441.4,461.6c-0.4-1.1,0-1.3,1.1-1.1C442.1,461,441.8,461.3,441.4,461.6z" />
	<path display="inline" fill="#EECABA" d="M454.1,504c-0.5,0-0.9,0-1.4,0.1c0.2-0.3,0.3-0.5,0.5-0.8   C453.5,503.5,453.8,503.7,454.1,504z" />
	<path display="inline" fill="#EECABA" d="M456.3,549.7c-0.8-0.8-0.8-0.8,0.1-1.5C456.3,548.7,456.3,549.2,456.3,549.7z" />
	<path display="inline" fill="#654C49" d="M452.7,449c-0.3,0.2-0.5,0.3-0.8,0.5C452.2,449.3,452.4,449.1,452.7,449z" />
	<path display="inline" fill="#8F7A74" d="M444,456c-0.1,0.2-0.1,0.3-0.2,0.5c-0.1-0.1-0.2-0.2-0.3-0.3   C443.6,456.2,443.8,456.1,444,456C444,456,444,456,444,456z" />
	<path display="inline" fill="#413330" d="M518.8,544.3c2.1,1.7,3.5-0.1,6,0.5c-4.8,4.8-10.5-1.6-15.6-3.1c0.1-0.4,0.1-0.9,0.2-1.5   C512.8,541.2,515.2,543.7,518.8,544.3z" />
	<path display="inline" fill="#3F2E2B" d="M546.1,551.6c5.7-2.3,11.4-0.4,16.9,1.6c0.4,1.1,1.5,0.3,2.2,0.7c0,0.2,0,0.5,0,0.7   c-6.2-0.5-11.8-4.3-18.2-2.3C546.7,552.2,546.4,551.9,546.1,551.6z" />
	<path display="inline" fill="#E9C2B3" d="M518.8,544.3c-2.6-0.7-5.1-1.7-7.3-3.5C514,541,519,540.7,518.8,544.3z" />
	<path display="inline" fill="#331413" d="M546.1,551.6c0.3,0.3,0.6,0.5,0.9,0.8c-1.5,0.5-3.2-0.6-4.3,0.7c-1.6,0.4-3.2,1-5.2,0.5   C539.4,551.3,543.3,552.4,546.1,551.6z" />
	<path display="inline" fill="#463431" d="M504.2,538.7c0.1,0.4,0.2,0.8,0.3,1.3c-1.3-0.3-4.8-0.7-3.6-2.7   C502,537.8,503.1,538.3,504.2,538.7C504.2,538.8,504.2,538.7,504.2,538.7z" />
	<path display="inline" fill="#413330" d="M620.3,555.3c1.2-0.4,2.4-0.9,3.7-1.3c0.3,0.3,0.5,0.6,0.8,0.9c-1.1,1.1-2.3,1.4-3.6,1.4   C620.9,556,620.6,555.7,620.3,555.3L620.3,555.3z" />
	<path display="inline" fill="#AC8C82" d="M514.3,563.2c1.4-0.8,2.8-1.4,4.4-1.3c-0.9,1.2-2.4,1.5-3.6,2.2   C514.8,563.8,514.5,563.5,514.3,563.2z" />
	<path display="inline" fill="#57322F" d="M565.2,554.7c0-0.2,0-0.5,0-0.7c1.2,0.8,3,0.5,3.9,2c-0.4,0.1-0.8,0.1-1.1,0.2   C567,555.7,566.1,555.2,565.2,554.7z" />
	<path display="inline" fill="#2F1B1A" d="M614.5,557.3c-1.4,0.6-2.6,0.4-4.1,0.2C612.4,556.4,612.4,556.4,614.5,557.3z" />
	<path display="inline" fill="#5C4D47" d="M521.6,561.3c-0.4-0.1-0.9-0.2-1.5-0.3c0.8-1.3,1.6-1.6,2.8-1.1c-0.3,0.4-0.5,0.8-0.7,1.2   C522,561.1,521.8,561.2,521.6,561.3z" />
	<path display="inline" fill="#6E645F" d="M620.3,555.4c0.3,0.3,0.6,0.6,0.9,0.9c-0.8,0.7-1.7,0.8-3,0.3   C619,556.1,619.7,555.8,620.3,555.4z" />
	<path display="inline" fill="#9D958E" d="M571,557.6c-0.8,0.1-1.7,0.3-2.3-0.6c0.3-0.3,0.6-0.6,0.8-0.9   C570,556.6,570.5,557.1,571,557.6L571,557.6z" />
	<path display="inline" fill="#382422" d="M605.3,558.4c0.7-0.1,1.5-0.1,2.7-0.3C606.7,559,606.7,559,605.3,558.4z" />
	<path display="inline" fill="#9D807A" d="M576.3,560c0.9-0.5,1.1,0.4,2,0.6C577,561.1,577,561.1,576.3,560z" />
	<path display="inline" fill="#2C2523" d="M542.6,553.1c0.6-1,1.6-0.6,2.5-0.5C544.3,552.8,543.5,553,542.6,553.1z" />
	<path display="inline" fill="#724643" d="M602.8,560.4c-0.6,0-1.2,0-1.8,0c0-0.1,0-0.3,0-0.4c0.6,0,1.2-0.1,1.8-0.1   C602.8,560,602.8,560.2,602.8,560.4z" />
	<path display="inline" fill="#57322F" d="M564.6,553.9c-0.7,0.1-1.3,0.2-1.6-0.6C563.5,553.5,564.1,553.7,564.6,553.9z" />
	<path display="inline" fill="#31201E" d="M569.5,556.1c-0.3,0.3-0.6,0.6-0.8,0.9c-0.3-0.3-0.6-0.5-0.8-0.8   C568.4,556.1,569,555.9,569.5,556.1z" />
	<path display="inline" fill="#764A47" d="M581.9,563c0.4-0.5,0.7-0.3,1.1,0.1C582.6,563.5,582.3,563.4,581.9,563z" />
	<path display="inline" fill="#9D958E" d="M570.9,557.6c0.1,0.1,0.2,0.2,0.4,0.3C571.1,558,571,557.8,570.9,557.6   C571,557.6,570.9,557.6,570.9,557.6z" />
	<path display="inline" fill="#281F20" d="M500.7,576.1c-1,1.9-2.2,2-3.7,1.8C497.4,575.9,498.9,575.4,500.7,576.1z" />
	<path display="inline" fill="#6E4742" d="M550.5,577c-2.9,0.1-5.5-0.4-8.1-1.4c1.4-0.5,1.4-0.5,4.2,0   C547.8,575.8,549.5,575.2,550.5,577z" />
	<path display="inline" fill="#4C3733" d="M514.3,563.2c0.3,0.3,0.5,0.6,0.8,0.9c-1.6,0.6-2.9,2-5.1,1.4   C511.1,563.8,512.9,563.9,514.3,563.2z" />
	<path display="inline" fill="#786059" d="M535.3,573.7c-2.7-0.9-2.7-0.9-3.4-2c1.7-0.3,2.9,0.6,4.2,1.1   C535.9,573.1,535.6,573.4,535.3,573.7z" />
	<path display="inline" fill="#6A3D39" d="M506.7,561.6c1.6-0.3,3.2-1.1,4.9,0.2C509.6,562.2,507.6,562.2,506.7,561.6z" />
	<path display="inline" fill="#8E786F" d="M524.6,557.7c0.6-1.3,1.8-1.6,3.7-1.4c-1.3,0.9-2.3,1.5-3.2,2.1   C524.9,558.2,524.8,557.9,524.6,557.7z" />
	<path display="inline" fill="#9F887E" d="M535.3,573.7c0.3-0.3,0.6-0.6,0.8-0.9c1.1,0.6,2.2,1.1,4,2   C537.9,574.9,536.6,574.5,535.3,573.7z" />
	<path display="inline" fill="#B5998D" d="M566.5,575.4c-0.5,1.5-1.5,1-2.6,0.7C564.6,574.9,565.3,574.7,566.5,575.4z" />
	<polygon display="inline" fill="#5775E6" points="448,529.8 447.9,529.7 448,529.6 448.1,529.6  " />
	<path display="inline" fill="#3B384B" d="M440.3,498.8c-0.2-0.3-0.3-0.6-0.5-0.9C439.9,498.2,440.1,498.5,440.3,498.8z" />
	<path display="inline" fill="#4B64C2" d="M422.9,554.6c-0.7-2.4-1.4-4.8-2.1-7.2c0.3,0.2,0.6,0.3,1,0.5c3-1,5.8-3.2,7.8-5.4   c1.5-0.3,0.8-1.9,1.9-2.3c0.1,0.5-0.1,1.1,0.7,1.3c-0.4,0.8-0.8,1.6-1.3,2.4c-0.3-0.3-0.6-0.6-1.1-1   C428.3,547.3,426.4,551.3,422.9,554.6z" />
	<path display="inline" fill="#4B65C5" d="M442.5,551.1c-1.7-2-2-4.2-0.7-6.6c2,1.4,3.5-1.2,5.8-0.6   C445.7,546.5,443.5,548.2,442.5,551.1z" />
	<path display="inline" fill="#181E39" d="M432.3,541.5c-0.8-0.2-0.6-0.8-0.7-1.3c1.5-3.3,2.4-6.9,5-9.6c0.3,0.3,0.5,0.6,0.8,0.8   C435.7,534.8,434,538.1,432.3,541.5z" />
	<path display="inline" fill="#11101D" d="M436.6,537.9c1.2-1.5,2.3-3.2,4.5-5.1c0,3.4-2.6,3.9-4.4,6.2   C436.7,538.7,436.7,538.3,436.6,537.9z" />
	<path display="inline" fill="#1A1F36" d="M428.1,547.5c0.6-1.5,1.2-2.9,1.9-4.7c0.5,0.4,0.8,0.7,1.1,1c-0.7,1.5-1.4,3-2.2,4.5   C428.6,548,428.3,547.8,428.1,547.5z" />
	<path display="inline" fill="#2B2F57" d="M436.6,537.9c0,0.4,0.1,0.7,0.1,1.1c-0.4,0.4-0.7,0.7-1.2,1.2   C435.2,538.9,435.9,538.4,436.6,537.9z" />
	<path display="inline" fill="#F5F6F6" d="M444.6,519.1c0.4,3.1,0.9,6.3,1.4,9.7c-2.3,0.4-4.2-0.1-6.4-0.3c0-3.7,2.7-7.2,3.7-10.8   C443.8,518.2,444.2,518.7,444.6,519.1z" />
	<path display="inline" fill="#4A63C1" d="M439.6,522.8c0.9-5.3,2.2-10.1-0.2-15.3c0.7-0.6,1.2-1.1,1.7-1.6   C444.2,511.5,442.2,517.5,439.6,522.8z" />
	<path display="inline" fill="#181C23" d="M439.6,522.8c0.9-2.2,1.8-4.5,2.8-6.7c2.6,3.7-3.5,8.3-2.8,12.4c-0.5-0.5-1-0.9-1.5-1.4   C438.4,525.6,439.1,524.2,439.6,522.8z" />
	<path display="inline" fill="#4C65C4" d="M438.7,524.9c-0.6,3-2.1,5.8-4.1,8.1c0-1.2,0-2.4,0-3.8   C435.7,527.8,436.5,525,438.7,524.9z" />
	<path display="inline" fill="#ACB7B7" d="M443.3,517.7c-0.1-0.3-0.2-0.5-0.2-0.8c0.2-0.2,0.5-0.4,0.7-0.6c0.9,0.8,1,1.8,0.8,2.8   C444.2,518.7,443.8,518.2,443.3,517.7z" />
	<path display="inline" fill="#3B384B" d="M439.5,501.1c-0.6-0.4-0.7-0.9-0.5-1.5C439.6,499.9,439.6,500.5,439.5,501.1z" />
	<path display="inline" fill="#161719" d="M324.3,450.9c-1.6-4.5-6.5-17.3-3-20.7c1.2,6.6,2.8,13.2,3.8,19.8   C324.8,450.3,324.5,450.6,324.3,450.9z" />
	<path display="inline" fill="#686B79" d="M332.1,469.2c-4.2-3.6-5.1-8.9-6.4-13.9c0.3-0.3,0.5-0.5,0.8-0.8   c1.8,4.7,2.3,9.8,5.7,13.8C332.2,468.5,332.1,468.9,332.1,469.2z" />
	<path display="inline" fill="#2D2E34" d="M337.3,483.6c-1.4-3.8-3-7.5-3.7-11.4c0.3-0.3,0.5-0.6,0.8-0.9c1.2,3.6,2.5,7.2,3.7,10.8   C337.9,482.6,338.2,483.4,337.3,483.6z" />
	<path display="inline" fill="#25252A" d="M318.3,457.1c-3.1-2.3,0.3-7.2,0.5-10.5C320.6,449.3,319,453.9,318.3,457.1z" />
	<path display="inline" fill="#323037" d="M318.3,457.1c0.1-0.4,0.2-0.9,0.3-1.3c2,2.5,6.1,3.6,5.7,7.3   C322.2,460.5,319.6,459.5,318.3,457.1z" />
	<path display="inline" fill="#121114" d="M326,430.6c1.9,2.4,1.9,6.3-0.1,8C325.2,435.7,325.4,433.3,326,430.6z" />
	<path display="inline" fill="#3D4149" d="M326.5,454.4c-0.3,0.3-0.5,0.5-0.8,0.8c-0.5-1.5-1-2.9-1.4-4.4c0.3-0.3,0.6-0.6,0.8-0.9   C325.6,451.5,326.1,453,326.5,454.4z" />
	<path display="inline" fill="#5C5F6B" d="M337.3,483.6c0.9-0.2,0.6-1,0.8-1.5c1,1.4,0.8,3.1,1.7,5   C337.9,485.4,337.9,485.4,337.3,483.6z" />
	<path display="inline" fill="#403B41" d="M341.7,491.6c-0.5-0.5-1-1-1.5-1.5c-0.1-0.6-0.2-1.3-0.4-2.2c1.8,0.6,2,2,2.8,3.1   C342.2,491.3,341.9,491.4,341.7,491.6z" />
	<path display="inline" fill="#413E46" d="M334.4,471.2c-0.3,0.3-0.5,0.6-0.8,0.9c-0.5-1-1-1.9-1.5-2.9c0.1-0.3,0.1-0.7,0.2-1   C333.9,468.1,333.9,470,334.4,471.2z" />
	<path display="inline" fill="#413E46" d="M318.1,444.4c-1.2-0.7-1.2-0.7-0.8-2.6C318.4,442.4,318.7,443.3,318.1,444.4z" />
	<path display="inline" fill="#323036" d="M327.1,439.5c0.2,1,0.4,2,0.8,3.4C326.2,441.9,326.3,440.8,327.1,439.5z" />
	<path display="inline" fill="#394E98" d="M365.6,512c-0.2,0.2-0.4,0.4-0.6,0.6C365.2,512.4,365.4,512.2,365.6,512z" />
	<path display="inline" fill="#0C0909" d="M348.2,318.1c3,1.2,5.5,7.1,1.6,8.6c-1.8-1-1.1-2.9-1.1-4.6c-0.5-1.5-2.8-2-1.9-3.9   C347.2,318.2,347.7,318.2,348.2,318.1z" />
	<path display="inline" fill="#181413" d="M350.4,360.2c0.9,2.4,3.1,4.7,0.7,7.1c-1.3-4.6-3.3-8.2-6-11.4   C347.4,354.3,349.1,358.7,350.4,360.2z" />
	<path display="inline" fill="#191513" d="M327.1,417.6c-0.5-2.2,0.6-4,1.5-5.9c0.3,0.2,0.8,0.4,0.8,0.6c-0.1,3.9,1.5,6.7,1.4,10.7   C328.7,421.2,328.3,419.1,327.1,417.6z" />
	<path display="inline" fill="#3A312F" d="M340.2,427c0.5-0.7,1-1.5,1.5-2.1c2.3,1.6-1.6,4.2-2.2,6c-0.2-0.8-0.1-1.6,0-2.4l0,0   C339.7,428,339.9,427.5,340.2,427z" />
	<path display="inline" fill="#544A46" d="M354.1,297.8c-0.3,0.5-0.7,0.9-1.2,1.6c-1.1-2.3,0.2-4,1-5.9   C354,295,354,296.4,354.1,297.8z" />
	<path display="inline" fill="#241F1C" d="M348.9,285.8c0.9,2.1,0.4,3.3-0.4,5.2C348,289,348,287.7,348.9,285.8z" />
	<path display="inline" fill="#6D5851" d="M348.2,318.1c-0.5,0-1,0-1.4,0c-0.6-1.3-1.8-2.7,0.7-2.9   C347.5,316.3,347.5,317.3,348.2,318.1z" />
	<path display="inline" fill="#1B1A18" d="M347.4,309.4c-1.5-1.3-0.5-3.5-0.4-5.2C347.5,306,347.8,307.7,347.4,309.4L347.4,309.4z" />
	<path display="inline" fill="#846C64" d="M331.3,426.4c0.1,0.9,0.1,1.6,0.2,2.6C329.7,427.3,329.7,427.2,331.3,426.4z" />
	<path display="inline" fill="#453B37" d="M348.9,296.4c0,0.7,0,1.4,0,2.1c0,0,0,0,0,0c-0.4,0.2-0.7,0.5-1.4,0.9c0-1.2,0-2.1,0-2.9   C348,296.4,348.4,296.4,348.9,296.4z" />
	<path display="inline" fill="#A58479" d="M348.9,296.4c-0.4,0-0.9,0-1.4,0c0-0.6,0.1-1.3,0.1-1.9c0.3-0.1,0.4-0.1,0.6-0.1   C349.2,294.8,348.9,295.7,348.9,296.4z" />
	<path display="inline" fill="#B69286" d="M344.1,354.3c-0.3-0.5-0.6-1-0.8-1.4C344.3,351.9,345,353.2,344.1,354.3z" />
	<path display="inline" fill="#846E67" d="M339.3,429.8c0.2,0.7,0.2,1.5,0.1,2.2c-0.4,0.2-0.8,0.4-1.3,0.7   C338.1,431.4,338.6,430.6,339.3,429.8z" />
	<path display="inline" fill="#443735" d="M354.8,287c-0.3,0.2-0.5,0.4-0.8,0.7c-0.6-0.9-0.4-1.8,0.5-3   C354.6,285.7,354.7,286.3,354.8,287z" />
	<path display="inline" fill="#58403A" d="M341.9,349.1c1-0.6,1.3-0.3,1.8,0.5C342.9,350.4,343,350.1,341.9,349.1z" />
	<path display="inline" fill="#75625B" d="M334.9,437.5c0.9-1.5,0.6-1.7,1.9-1.6C336.7,437.1,336.5,436.8,334.9,437.5z" />
	<path display="inline" fill="#2A1816" d="M347.4,311c0.1,0.6,0.2,1.3,0.3,2.1C346.2,312.2,346.2,312.2,347.4,311L347.4,311z" />
	<path display="inline" fill="#323132" d="M664.5,519c0.4-0.2,0.8-0.4,1.7-0.8c-12.6,23.4-1.3,18.2-4.5,34.3   C658.9,537,656.3,534.3,664.5,519z" />
	<path display="inline" fill="#2C2A2B" d="M661,548.9c2.5,4.4-2.7,8.9-5.2,12.3c-0.3-0.3-0.5-0.5-0.8-0.8   C657,556.6,660.4,553.2,661,548.9z" />
	<path display="inline" fill="#2E2C2D" d="M648.7,574.2c-0.2,0.3-0.4,0.5-0.7,0.8c-0.8-5.3,0.4-10.1,3.5-14.5   c0.3,0.3,0.5,0.5,0.8,0.8C650.6,565.5,648.4,569.4,648.7,574.2z" />
	<path display="inline" fill="#747073" d="M652.3,561.3c-0.3-0.3-0.5-0.5-0.8-0.8c0.8-1.2,1.5-2.4,2.3-3.6   C654.3,558.8,653.1,560,652.3,561.3z" />
	<path display="inline" fill="#5C5D62" d="M655.1,560.4c0.3,0.3,0.5,0.5,0.8,0.8c-0.5,0.8-1.7,2.3-2.3,0.7   C654.1,561.4,654.6,560.9,655.1,560.4z" />
	<path display="inline" fill="#0E0C0C" d="M366.5,406.5c-0.3,0.3-0.5,0.6-0.8,0.9c-1.7-4.7-3.3-9.4-5.3-14   C364.8,390.9,366.9,403.3,366.5,406.5z" />
	<path display="inline" fill="#332C2A" d="M353.9,400.8c1.1-2.6,2.2-5.2,3.3-7.8c0.4,0,0.7,0,1.3,0c-0.2,3.4-1.9,6.1-3.8,8.6   C354.4,401.3,354.1,401,353.9,400.8z" />
	<path display="inline" fill="#3B3532" d="M355.8,322c2.6-0.4,7.4-1.6,6.2,1.8C360.2,323.3,358.4,322.8,355.8,322z" />
	<path display="inline" fill="#635B57" d="M361.2,257.2c-0.2,0.9-0.6,1.8-0.7,2.7c-0.1,0.8,0.9,1.7-0.8,2.6c0.5-2.5-0.5-4.7,0.7-6.8   C360.7,256.1,360.9,256.7,361.2,257.2z" />
	<path display="inline" fill="#655A56" d="M353.9,400.8c0.3,0.3,0.5,0.5,0.8,0.8c-0.7,1.4-1.7,2.5-3.1,3   C350.6,403.5,353.4,401.9,353.9,400.8z" />
	<path display="inline" fill="#332826" d="M365.6,318.6c0.2,2-0.4,3-2,3.6C363.5,320.7,363.5,320.7,365.6,318.6z" />
	<path display="inline" fill="#B29E96" d="M345.3,411c0.6-1,0.6-2,2-1.8C347.4,410.3,346.8,410.7,345.3,411z" />
	<path display="inline" fill="#EECABA" d="M354.1,297.8c-0.1-1.4-0.1-2.9-0.2-4.3C355.2,294.5,355.1,296.5,354.1,297.8z" />
	<path display="inline" fill="#100D0D" d="M361.2,257.2c-0.8-1.3-1.1-2.2-0.6-3.8C361.5,255.1,361.5,255.1,361.2,257.2z" />
	<path display="inline" fill="#100909" d="M357.7,356.7c0,0.7-0.5,0.9-1.1,1c-0.4-0.7-0.3-1.2,0.3-1.8   C357.2,356.2,357.4,356.4,357.7,356.7z" />
	<path display="inline" fill="#110F0F" d="M360.6,252.4c0.4-0.7,0.6-1.1,1-1.7C362,251.9,362,251.9,360.6,252.4z" />
	<path display="inline" fill="#3D2F2E" d="M361.2,264.7c0,1.3,0,1.8,0,2.4C360.1,266.5,360.1,266.5,361.2,264.7z" />
	<path display="inline" fill="#675D59" d="M344.7,413.4c-0.7,0.5-1.2,0.9-1.9,1.4C343.1,413.3,343.1,413.3,344.7,413.4z" />
	<path display="inline" fill="#654B47" d="M357.7,356.7c-0.3-0.3-0.5-0.5-0.8-0.8C357.2,354.1,359.1,355.8,357.7,356.7z" />
	<path display="inline" fill="#EECABA" d="M340.2,427c-0.2,0.5-0.5,1-0.7,1.5C339.4,427.8,339.5,427.2,340.2,427z" />
	<path display="inline" fill="#B4BAD2" d="M381.7,454.5c-5,3-8.4-2.2-11.6-5.3c0-1.2,0-2.3,0-3.6c0.5-0.5,1.1-1.2,1.9-2   c4.2,0.8,7.7,3.8,8.9,7.9c-1.8-0.4-3.3-0.9-5-1.6c-0.6-1.1-1.2-2.2-1.8-3.3c-0.5,0.2-0.8,0.3-1.3,0.4   C374.5,450.7,377.9,453.4,381.7,454.5z" />
	<path display="inline" fill="#B7BDD4" d="M378.9,445c-2.1-0.7-3-2.6-4.4-3.8c-0.4-1.4-0.3-2.6,1.2-3.3c3.6,0.3,9.5,3.5,6.6,8   c-1.5-0.6-1.9-2.5-3.1-3.8c-0.5,0.6-0.8,0.9-1,1.2C378.4,443.9,378.6,444.5,378.9,445z" />
	<path display="inline" fill="#181719" d="M378.2,450.8c2.3,0.6,4.8,1.3,6.3,3.2c-2.3,1.8-6.2-0.6-8-2.4   C377.1,451.3,377.6,451.1,378.2,450.8z" />
	<path display="inline" fill="#2E2529" d="M383,447.2c1.2-0.3,2.4-1,3.7-0.1c1.7,0.9,3.1-1.3,5,0.1c-1.8,3.2-5.9,1.7-8.7,0.9   C383,447.7,383,447.5,383,447.2z" />
	<path display="inline" fill="#35383F" d="M382.3,488.8c0,0.2,0,0.5,0,0.7c-3.5,0.9-6.4,0.5-9.8-1.1   C376.5,486.9,378.7,488.9,382.3,488.8z" />
	<path display="inline" fill="#35353C" d="M378.9,445c-0.2-0.5-0.5-1.1-0.7-1.8c0.2-0.3,0.5-0.6,1-1.2c0.9,1.3,1.7,2.5,2.5,3.6   c-0.3,0.3-0.6,0.6-0.9,1C380.1,446.1,379.5,445.5,378.9,445z" />
	<path display="inline" fill="#383D44" d="M385.6,454.2c0.1-1.2,0.6-2.2,1.6-3C387.9,453,387,453.8,385.6,454.2z" />
	<path display="inline" fill="#47353B" d="M375.4,457.3c0.8,0.6,1.6,1.1,2.9,2c-1.8,0.1-2.9,0.1-3.9-0.9   C374.7,458,375,457.7,375.4,457.3z" />
	<path display="inline" fill="#253136" d="M367.7,445c0.1,1.1,0.1,1.8,0.1,2.5C366,446.7,366,446.6,367.7,445z" />
	<path display="inline" fill="#57535D" d="M370.5,422.7c0.1-0.4,0.2-0.8,0.4-1.3c1.4,0.6,1.3,1.7,1.2,2.7   C371.6,423.6,371.1,423.1,370.5,422.7z" />
	<path display="inline" fill="#424249" d="M380.8,446.6c0.3-0.3,0.6-0.6,0.9-1c0.2,0.1,0.4,0.2,0.6,0.2c0.3,0.4,0.5,0.9,0.8,1.3   c0,0.3,0,0.5,0,0.8C382,448,381.3,447.5,380.8,446.6z" />
	<path display="inline" fill="#4F4850" d="M384.5,460.7c0.7,0.9,1.3,1.5,1.9,2.3C385.2,463.5,383.3,461.8,384.5,460.7z" />
	<path display="inline" fill="#493C42" d="M381.6,488.6c-1.3,0-2.6,0.3-3.7-0.6C379.2,488.2,380.5,487.6,381.6,488.6z" />
	<path display="inline" fill="#494850" d="M364.3,487.4c1.1-0.6,1.7-0.2,2.1,1.1C365.2,488.7,364.6,488.4,364.3,487.4z" />
	<path display="inline" fill="#131316" d="M366.6,440.6c0.8,0.7,1.1,1.4,0.3,2.4C365.9,441.4,365.9,441.4,366.6,440.6z" />
	<path display="inline" fill="#5F5C66" d="M372.6,425.6c0.3-0.3,0.6-0.6,1-0.9c0.5,0.3,0.5,0.8,0.5,1.4   C373.5,426.1,373,426.1,372.6,425.6z" />
	<path display="inline" fill="#44353B" d="M390.1,463.7c-1.2,0.4-1.3,0.4-2.5,0C388.4,463,389,462.8,390.1,463.7z" />
	<path display="inline" fill="#46282C" d="M369.4,488.6c0.6,0.3,1.5,0.1,1,0.9c-0.4-0.2-0.8-0.3-1.2-0.5   C369.3,488.9,369.3,488.8,369.4,488.6z" />
	<path display="inline" fill="#8A8C9A" d="M360.2,483.6c0.2,0.4,0.4,0.8,0.6,1.1C360.1,485.2,359.4,484.4,360.2,483.6z" />
	<path display="inline" fill="#050404" d="M354.7,447.9c0.5-0.8,0.9-0.8,1.4,0C355.7,447.9,355.2,447.9,354.7,447.9z" />
	<path display="inline" fill="#020202" d="M344.6,262.4c0.9,0,1.9-0.3,2.7,0.4c-0.9,4.5-3.6,10.5-9.2,10.3c-0.2-2,0.6-3.3,2.1-4.3   C342.9,267.5,343.3,264.8,344.6,262.4z" />
	<path display="inline" fill="#221313" d="M359,235.4c1.4-1.3,3.8-0.4,5.7-0.8c1.1,1.1-0.8,1.9-0.5,3c-0.5,0.5-0.7,0.4-0.8,0.1   c-1.5-2.1-5.3,0.1-7.2,0.6l0,0c0.1-0.2,0.1-0.4,0-0.5C357.2,237.1,358.1,236.3,359,235.4z" />
	<path display="inline" fill="#0E0D0F" d="M359.1,244.1c-0.1,1.2-0.8,1.8-2.2,1.7c0-0.8,0-1.6,0-2.4c1.5-1,1.9-3.2,3.7-3.5   C362.3,241.3,359.8,242.9,359.1,244.1z" />
	<path display="inline" fill="#080607" d="M355.4,247c0.3,0.1,0.7,0.1,1.3,0.3c-0.6,1.1-1.1,2.2-1.5,3.1c-1.5,0.7-1.9,0-2-1.2   C353.9,248.5,354.7,247.8,355.4,247z" />
	<path display="inline" fill="#0A0607" d="M343.1,257.9c1-1.2,2.1,0.1,3.6,0.4c-0.6,0.4-1,0.7-1.4,1.1   C344.6,258.8,343.9,258.4,343.1,257.9z" />
	<path display="inline" fill="#0C090A" d="M342.3,252.2c-0.1,1,0.6,2.1-0.6,2.8C341.8,254.1,341.1,252.9,342.3,252.2z" />
	<path display="inline" fill="#373A46" d="M344.5,258.8c0.3,0.2,0.5,0.4,0.8,0.6C345,259.2,344.8,259,344.5,258.8z" />
	<path display="inline" fill="#090D0F" d="M331.6,275.6c-1-1.2-0.7-1.7,0.2-2.1C332.4,274.4,332.1,274.5,331.6,275.6z" />
	<path display="inline" fill="#745C58" d="M291.9,520.7c0.7-4.9,5.7-5.4,10.1-6c-3.1,2.6-7.2,1.2-8.8,5.4   C293,520.4,292.5,520.4,291.9,520.7z" />
	<path display="inline" fill="#584743" d="M306.6,512.6c1-1.3,2.4-2.1,4-3.1c-0.5,2-0.5,2.1-2.9,3.3   C307.3,512.7,307,512.6,306.6,512.6z" />
	<path display="inline" fill="#524340" d="M321.2,486.7c0.5-1.7,0.7-2.6,1.1-3.8C322.9,484.3,322.9,484.3,321.2,486.7z" />
	<path display="inline" fill="#857872" d="M265.2,556c1.3-0.7,2-1.1,2.7-1.4C269.1,556.5,266.8,556,265.2,556z" />
	<path display="inline" fill="#2A2E2C" d="M284.7,550c-0.1,0.7-0.3,1.5-0.5,2.5C283.4,551.1,283.4,551.1,284.7,550z" />
	<path display="inline" fill="#8E837D" d="M323.4,478.4c0.3,0.3,0.5,0.5,0.8,0.8c-0.3,0.6-0.5,1.3-0.8,2.1   C322.8,479.9,322.8,479.9,323.4,478.4z" />
	<path display="inline" fill="#856D68" d="M284.4,548.5c0.4-1.1,0.6-1.6,1.1-2.7C285.8,547.1,286.2,547.8,284.4,548.5z" />
	<path display="inline" fill="#A0837C" d="M314.3,494.6c0.4-0.3,0.9-0.6,1.5-1C315.4,494.9,315.4,494.9,314.3,494.6z" />
	<path display="inline" fill="#5D5753" d="M306.4,505.9c0.8-0.7,1.5-1,2.4,0C307.9,505.9,307.2,505.9,306.4,505.9z" />
	<path display="inline" fill="#393431" d="M283.6,555.3c-0.4,0.2-0.7,0.5-1.3,0.8c0-0.7,0-1.3,0-2.7   C283,554.6,283.3,555,283.6,555.3C283.6,555.4,283.6,555.3,283.6,555.3z" />
	<path display="inline" fill="#87807A" d="M306.6,512.6c0.4,0.1,0.7,0.1,1.1,0.2c-0.6,0.2-1.2,0.5-1.8,0.7c-0.1-0.2-0.1-0.3-0.2-0.5   C306,512.8,306.3,512.7,306.6,512.6z" />
	<path display="inline" fill="#2F3E78" d="M435.6,520.2c-2.3-5.1-3.7-10.5-5.3-15.8C433,508.9,436,515,435.6,520.2z" />
	<path display="inline" fill="#2E3C75" d="M425,522.9c1.3,5.8,3.4,10.4,3.7,16.7c-2.7-4.7-2.8-10.2-4.4-15.3   C424.5,523.8,424.8,523.3,425,522.9z" />
	<path display="inline" fill="#272E57" d="M419.2,503.9c2.1,4.3,5.7,7.3,8.8,10.8c0,0.3,0,0.5,0,0.8c-4.1-2.8-7.4-6.3-9.5-10.9   C418.7,504.4,419,504.2,419.2,503.9z" />
	<path display="inline" fill="#3E4E8E" d="M420.5,487c-1.5,3.3-3.2,6.4-5.1,9.4C416.1,493,417.8,489.8,420.5,487z" />
	<path display="inline" fill="#3E52A1" d="M418.5,538.1c-0.2,0.5-0.5,0.9-0.7,1.4c-1.4-2.4-1.1-5.6-1.9-8.6   C418.1,532.9,417.7,535.6,418.5,538.1z" />
	<path display="inline" fill="#34427A" d="M419.2,503.9c-0.2,0.3-0.5,0.5-0.7,0.8c-1.5-1.5-1.6-3.5-2-5.4   C417.9,500.6,418.5,502.3,419.2,503.9z" />
	<path display="inline" fill="#4860BD" d="M423.6,520.6c-1.1-1.4-1.8-2.9-1.2-4.9C423.3,517.4,423.8,518.9,423.6,520.6L423.6,520.6z   " />
	<path display="inline" fill="#354680" d="M412.1,490.8c0.3-0.3,0.5-0.5,0.8-0.8c1.1,0.9,0.6,2.1,0.6,3.6   C412.5,492.7,412,491.9,412.1,490.8z" />
	<path display="inline" fill="#394A90" d="M428,515.6c0-0.3,0-0.5,0-0.8c1,0.6,2,1.1,2.1,2.7C429,517,428.4,516.4,428,515.6z" />
	<path display="inline" fill="#4860BD" d="M425,522.9c-0.2,0.5-0.5,0.9-0.7,1.4c-0.7-1.1-0.7-2.4-0.6-3.6l0,0   C424.1,521.3,424.6,522.1,425,522.9z" />
	<path display="inline" fill="#4B65C5" d="M412,482.9c-0.8-0.6-0.6-1.4-0.5-2.2C412.3,481.3,412,482.1,412,482.9z" />
	<path display="inline" fill="#4C65C4" d="M439.4,523.5c-0.2,0.3-0.3,0.5-0.5,0.8C439.1,524,439.3,523.7,439.4,523.5z" />
	<path display="inline" fill="#212D57" d="M377.3,507.5c-0.2-0.2-0.5-0.6-0.9-1c0.7-0.5,1.2-0.8,1.7-1.2   C378.9,506.3,378.3,506.8,377.3,507.5z" />
	<path display="inline" fill="#846E68" d="M352.1,233.7c0.4-0.7,0.7-1.5,1.7-0.8C353.5,233.6,353.1,234.2,352.1,233.7z" />
	<path display="inline" fill="#4C505E" d="M356.2,237.8c0,0.2,0,0.4,0,0.5c-0.4,0-0.9,0-1.3,0c0-0.2,0.1-0.4,0.2-0.6   C355.4,237.8,355.8,237.8,356.2,237.8z" />
	<path display="inline" fill="#4C505E" d="M358.2,236.1c-0.2,0.2-0.5,0.4-0.7,0.6C357.8,236.6,358,236.3,358.2,236.1z" />
	<path display="inline" fill="#E5C2B3" d="M355,237.7c-0.1,0.2-0.2,0.4-0.2,0.6c-0.2,0.1-0.4,0.2-0.7,0.2   C354.1,237.9,354.4,237.7,355,237.7z" />
	<path display="inline" fill="#4C505E" d="M359,235.4c-0.2,0.2-0.4,0.5-0.7,0.7C358.5,235.8,358.7,235.6,359,235.4z" />
	<path display="inline" fill="#322C32" d="M378.2,450.8c-0.6,0.3-1.1,0.5-1.7,0.8c-1.7-1.2-2.9-2.7-3.7-4.6c0.5-0.2,0.8-0.3,1.3-0.4   c0.6,1.1,1.2,2.3,1.8,3.3C376.7,450.2,377.4,450.5,378.2,450.8z" />
</g>
</svg>