<?xml version='1.0' encoding='utf-8'?>
<svg xmlns="http://www.w3.org/2000/svg" version="1.2" baseProfile="tiny" id="Layer_2_1_" x="0px" y="0px" viewBox="0 0 900 600" overflow="visible" xml:space="preserve">
<g id="b_00000119829196461799210420000017880402305778073504_">
	<path display="inline" d="M509.9,560.1c4.9,8.6,15.6,10.5,22.4,17c11.2,24.3-34.4,24.6-48.6,21.5c-7.5-4.3-16.7-3.8-23.8-8.8   c-10.5-10.9-51.5-10-36.1-31.8c-36.4,5-72.4,29.2-109.9,17.5c-0.2-8.6,2.4-17.7,4.1-26.1c22.7-6.3,45.7-13.5,68.8-17.7   c-1-130.1,3.3-81.3-133.1-114c0-0.3,0.1-0.7,0.1-1.1c149.7,27.9,131.3-8.5,135.8,116.6c-9.2,0.8-18.4,4.1-27.3,6.8   c-0.2-0.1-0.5,0-0.7,0.1c-0.9-0.1-1.8-0.1-2.4,0.7c-12.1,3-24.4,5.9-36.4,9.7c1.4,0.5,2.6,0.9,3.8,1.3c-0.6,0.3-1.1,0.5-1.7,0.8   c-1.6-0.2-3.3-0.4-5.1-0.6c-2,6.9-2.5,14.3-3.9,21.3c21.3,7.5,37.6,1.6,58.2-4.6c16.6-5,33.8-8.6,50-14.3   c0.6-4.8,2.5-10.2,5.8-13.9c1.5-1.4,3.6-3.5,3.2-5.6c-1.1,0.1-2.2,0.3-3.2,0.4c-3.2-26,0.4-53.6-1.3-80.1   c-0.9-24.7-11.7-48.8-3.4-73.2c-27.9,10.3-55.9,2.1-84.1-1.9c-27.3-4.6-54.9-7.3-82-12.6c0-0.7,0-1,0-1.4   c32.3,3.7,65.4,9.5,97.9,14.1c23.2,5.2,47,7.9,69.6-1c1.5-3.1,3.7-5.3,3.7-8.5c0.6-0.7,1.1-1.3,1.7-2c-3.2,0-6,0-8.9,0   c-0.1,0.8-0.2,1.4-0.3,2.1c-1.2-0.6-0.2-2-1.3-2.9c-20.4,26-17.9,2.8-42.6-1.6c-0.2,1.5-0.4,2.8-0.6,4c-0.1,0-0.3,0-0.4,0   c-0.2-1.6-0.3-3.2-0.5-4.9c-14.8-5.6-29.7-9.8-44.3-16.7c-18.2-6-32.7-15.7-35.5-35.8c-6.2-12-10.2-24.9-8.1-38.6   c-0.5-7.5,4.9-12.1,7.7-18.5c8.5-30.6,16.4-61.9,27.7-92.1c-1.6,25.8-18.6,51.8-19.4,78.9c16.4,10,36,14.8,55.2,12.3   c8.6-1.8,16.4,3.8,24.8,3.4c-9.9-28.4-21-56.4-19.7-87.1c-2,0.9-5.2,5.4-6.8,2.6c1.6-2.7,5-3.8,7-6.6c1.1-3.1-1.7-17.6,0.6-17.3   c1.5,2.1,1.6,4.7,2.3,7c15.2,8.5,42,14.6,58.6,7.8c1.5-1.9,4-11.6,6.8-8.6c-10.4,14.5,2.8,28.4,1.1,44.7c6.2,2.2,10.9-2.1,16.5-3.5   c-3.3,5.6-11.1,6.1-16,8.3c1.9,12.3-9.9,33.9-5.7,42.5c8.7-16.4,19-32.3,33-44.1c-0.7,0-1.5,0-2.2,0c-0.3-0.3-0.7-0.7-1.3-1.3   c24.9-1.6,43.5-24.2,47.7-47.5c2.2,3.2-1,6.9,0.3,10c3.5-0.3,7-0.8,10.6-2.8c5.2-11.8,2.4-24.6,2-37.1c-0.5-0.7-1-1.4-1.5-2   c0.5-0.5,1-1,1.5-1.5c0.6,0,1.1,0.1,1.7,0.1c4.5,13.1,3.9,29.2-1.4,42c-1,2.3-1.2,4.3-0.2,6.6c13.7,29.1-1.8,41.2,2.5,60.3   c14.8,11.4,26.1,26.4,43.6,34.1c9.8-8.8,46-16.1,58.5-13.3c17.4-19.3,57.8-16.5,50,16.7c-5.3,17.1-35.4,26-48.4,13.2   c-13.2,23.7-21,18.4-44.5,21.5c-7.8,2.3-13.1-7.5-18.9-2.9c15.2,22.4,5.1,52.3,6.2,77.5c-0.8,23-3.7,45.5-9,67.9   c-3.4,17.1-9.9,35.3-6.4,52.7c1-0.3,1.9-0.6,2.8-0.8c4.2,3,9.2,11.4,10.8,18.7c8.2,5.5,13.8,14.1,21.9,19.7   c10.1,7,21.5,11.7,32.4,17c1.9,6,0.6,16-6.5,17.7c-14.3,3.4-29,7-43.4,1.8c-11.9-1.6-22.4-7.6-33.9-10.6   C529,559.3,519.3,562.8,509.9,560.1c-0.2-0.1-0.2-0.3-0.3-0.5c-0.1,0.1-0.2,0.2-0.3,0.2C509.5,560,509.7,560.1,509.9,560.1z    M425.1,241.9c2,3.5,5.5-16.1,6-18.2c4.7-19-0.7-38.1-4.3-56.8c-18.9,5.4-39.4,0.1-57.4-6.3c-2.6,38.8,10.8,79.9,26.4,114.8   c17.8,16,41,27.1,62.6,36.3c-3.7-11.6-0.9-24.5,10.2-30.8c-8.6-8.7-18.7-14.8-28-22.7c0.3-0.3,0.7-0.6,1-0.9   c16.1,14.1,30.4,10.7,49.5,15.7c0.5,0.7,1.2,0.9,2.2,0.3c-19.4-15.6-21.5-45.7-25.3-68.4c-15.3,12.2-27.3,29.2-35.9,46.4   c-4.4-1.9-6.4-5.7-8.7-9.3c0.3-0.3,0.6-0.6,0.9-0.9C424.7,241.4,424.9,241.7,425.1,241.9z M410.5,374.7c3.1-2.6,6.3-4.5,7.4-7.5   c-3.7-0.5-7.3-1.1-11.2-1.7c-1.9,2.5-6.5,4.8-4,8.7c-0.7-0.1-1.2-0.2-1.6-0.3c0-1.3,0.1-2.5,0.1-3.8c1-0.6,0.6-1.6,0.7-2.4   c1.7-0.8,2.8-2.2,3.7-3.6c-2.9-18.5-6.3-39.4,8.6-53.9c0.3,0.4,0.7,0.7,1,1.1c-11.6,14.4-11,34.3-7.7,51.6c1.2,1.1,2.5,0.9,3.8,0.9   c7-0.9,14.2,4.2,21,2.2c1,0.6,1.8,1,2.6,1.5c-21.6,37.5,0,80.5,2.2,120.5c3.7,4.4,1.9,11.1,3.3,16.1c0.6-0.3,1.1-0.6,1.7-0.9   c0.6,4.9,2.3,13.1-0.7,16.9c-1.7-2.7,0.2-5.9-1.5-8.7c0,5,0,10.2,0,15.2c3.5,3.4,8.1,1.8,12.3,1c2.3-9.8,13.1-11.4,21.7-12.6   c-6.5-15.6-5.3-33.8-0.7-49.7c3.5-27.3,7.3-54.7,11-81.9c0.9-9.6,4.4-19,3.9-28.9c1.5-9.8,7.7-24.3-2-31.7c-6,0.4-12,2.2-17.7-0.7   c-1.3,0.8-2.7,1.4-4.4,0.2c0.8-0.5,1.4-0.9,1.8-1.1c-3.5-6.7-10.6-4.7-14.9-9.8c-9.8-0.9-19.1-12.5-28.8-7c-0.3-0.3-0.7-0.7-1-1   c1.5-1.1,3-2.2,4.5-3.4c-8.6-5.3-15.6-12.3-24.9-16.4c-8.7-4.6-12-13.3-14.4-22.3c-12.3-1.6-18.6-8.1-31.1-0.5   c-15.7-3.8-30.5-1.7-45.5,3.7c1.7-3.3,5.4-2.5,7.8-5c-2.3-0.8-4.4-1.4-6.6-1c-2.8,3.2-6.3,5.2-10.1,7c-0.3-0.3-0.6-0.6-0.9-0.8   c1.8-3.1,5.1-4.9,7.6-7.4c-2.3-1.2-4.4-2.3-6.7-3.5c-16.2,25.6-4.9,49.3,5.7,74.3c15.4,24.1,70.7,29.9,94.4,46   C401,378.6,411.9,379.5,410.5,374.7C410.6,374.7,410.5,374.7,410.5,374.7z M539.4,280.7c-0.9,0.3-0.9,1.2-0.8,1.9   c0.4,3.5-2.2,6.4-1.5,9.7c-0.6,0.9-1.1,1.6-1.6,2.3c-1.1,0.1-2.3,0.1-3.6,0.2c-1.8,2.8-4.6,4.4-8.3,4.9c1.1,5.6,6.1,4,9.7,6.4   c3.9-1,7.5-2.6,9.9-6c0.3,0.3,0.6,0.5,0.9,0.8c-0.4,1.5-1.3,2.7-2.3,3.9c-0.9,0-1.7,0.1-2,1.2c1.6,0.3,1.6,0.3,2.8-0.4   c1.1-0.2,2.3,0.6,3.1-0.8c22.1,0.6,35.1-30,14-41.1c-7-4.6-14.9-1.7-22.6,0.3c19,1.3,27.8,30.8,9.3,39.3   c16.9-14.1,3.9-46.8-18-34.4c5.9,2.7,6.4,9.2,11.8,11.1C539.9,280.2,539.7,280.5,539.4,280.7z M623.3,279.2c0-0.5,0-1,0-1.6   c5.2-0.4,5.4-6.9,7.5-10.5c0.4-0.9,0.9-1.9-0.3-2.7c-2-3.2-2.9-7-4.2-10.4c-2.7-1.5-5.2-2.6-8.2-0.8c5.8,6.9,8,14,4.6,22.5   c0.3,0.8,0.5,1.3,0.8,1.9c-0.3,0-0.6,0.1-0.9,0.1c-5.8-3.7-7.2,2.2-7.2,7c2.7-0.1,5.3-0.2,7.5-0.3   C624.1,282.4,626.5,280.9,623.3,279.2z M485.1,521.4c-1.1,0.4-2.1,0.8-3.1,1.2c-0.7,2.3,1.5,3.3,2.5,5c1.3,1.3,1.5,3.7,3.6,4   c-1.7-4.6,0.6-14.4-7.1-12.3C481.8,521.8,483.9,519.5,485.1,521.4z M645.1,262.8c-0.4-2.4-2.2-3.1-4.4-3.9   c2.9,11.3-3.8,4.1-3.8,15.1c2.7-1.1,5-2.1,7.5-3.1C645.8,268.6,646.8,265.3,645.1,262.8z M530.2,290.9c2.3-2,0.8-4.7,2.1-7   c2.2,2.5,1.8,5.8,0.2,8.4c1.2,0.9,1.9-0.1,3.1-0.4c2.3-11.5,0-15.3-9.2-22.8c-1.2,0-2.3,0.1-3.5-0.2c8.1-5.6,17.7-7.8,27.5-9.6   c-9.4-11.5-22.3-19.4-30.9-31.4c-0.5,0.1-1,0.2-1.8,0.3c8.8-20.5,7.1-42.6-0.2-63c-3.8,0.9-7.4,1.7-11,2.6   c-8.1,23.3-22.8,21.5-19,35.1c-0.2,0.5-0.5,1-0.7,1.6c-0.9-2.4-1.9-4.8-2.9-7.4c-4.1,2.5-8.3,4.5-12.7,6.3   c1.2,18.8,8.8,61.7,27.1,70.3c6.9-2.8,12.7-5.4,20.2-4.5c-1.3,1-3,0.6-4.6,0.7c-2.9,3.6-8.9,1.3-11.9,4.8c-0.7,0.1-1.4,0.2-2.2,0.3   c0,1.5,0.9,2.2,1.9,2.9c4.2,2.4,6.8,6.3,9.2,10.4c0.6-0.5,1.1-0.9,1.6-1.3c1,1.5,1,1.8-0.1,3.1c-1.5,1-0.8,2.4-0.5,3.5   c1,2.8,0,5.3,0.2,8.1c4.9-0.5,8.1-7,12.8-4.7c1.6-0.7,3.7-0.7,5.2-2.5C530,293.4,530.1,292.1,530.2,290.9L530.2,290.9z    M635.1,262.7c-1.1-3.5-2.3-11-7.3-9.6c5.5,12.7,6.5,8.7,2.8,22.1c0.9,0.2,2,0.2,2.9-0.1C635.1,271,638,266.8,635.1,262.7z    M592.2,262.9c11.3,8.4,11,35.1-4.6,35.7c25.1-11.8,1.2-53.8-20-31.4c5.8,9.2,6.1,18.5,0.7,28c10.4,11.1,31.6,5.3,40.9-4.7   c15.5-19.5-7.7-44-27.7-30.9C585.4,259.9,588.9,261.1,592.2,262.9C592.2,262.9,592.2,262.9,592.2,262.9z M485.8,282.2   c14.2,7.3,14.1,35.4-3.1,38.1c21.5-10.2,9.6-47.3-13.7-36.9c-18.9,10-9.3,42.4,12.6,38.2c-0.4-1.2,0.3-1.3,1.2-1.3   c1.1,1.1,1.2,1.1,2.3,0c24.5,1.3,36-34.1,10.9-42.7c-2.1-1.9-18.2-0.7-16.5,3C481.7,280.2,483.6,282,485.8,282.2z M655.2,250.4   c8.5,8.6,6.5,34.1-7.7,32.7c23.8-10,4.7-51.6-17.8-33.1c0.6,1,1.5,1.5,2.4,1c1.9-1,3.8,0.8,5.6,1.1c1.7,2.5,1.9,5.8,5.4,6.3   c5.6,3.2,5.1,9.9,1.4,14.7c-3.1,1.2-7,1.4-9.7,3.7c-0.8,0.9-2.1,1-3.3,0.7c-1.6-0.7-4-1.2-4.2,1.3c4.5,5.8,12.5,8.4,19.2,5.2   c40.7,3.3,34.1-58.5-5.7-39.6C646.7,244.1,651.8,246.2,655.2,250.4z M616.3,265.2c-0.1,3-0.2,6,2.1,8.6c0.8,0.2,1.7,0.4,2.8,0.7   c3.2-8.6-0.6-15.3-6.3-21.8c-4.1,1.6-8.7,1-12.6,2.5c2.9,2.1,5.8,4.1,8.6,6.1c0.2-0.6,0.4-1.3,0.8-2.4c0.8,1.9,1.2,2.6,2.1,4.1   c-0.2,0.8-0.5,1.7-0.7,2.6c0.4,0.6,0.7,1.1,1.3,1.9c0.2-1.2,0.3-1.9,0.4-2.7c0.4-0.1,0.8-0.1,1.2-0.1   C616.2,264.8,616.3,265,616.3,265.2z M619.6,560.3c1-2,1.4-4.1,0.2-6.3c-9.7-2.8-18.8-6.9-27.1-12.8c-2.3,1.9-4.2,4-7.2,5.1   c-0.6-0.5-1.2-1.1-1.8-1.7c0.9-3.3,3.8-4.1,6.1-5.9c-1.5-1.5-2.7-2.9-4.6-3.6c-2.9,2-7.3,9.4-10.6,4.9c1.3-4.1,5.2-4.2,7.6-7.6   c-1.5-1.1-2.9-2.2-4.4-3.3c-3,1.8-10,10-12.6,5.4c1.4-3.8,6.6-4.7,9.5-7.2c-1.3-2.1-2.4-4-4.5-5.2c-2.6,1.1-16.9,14.5-15,6   c3.4-4.1,8.6-5.7,12.3-9.5c-0.7-0.8-1.3-1.5-1.9-2.2c-5.8,3.2-10.6,9.7-17.6,7.8c-2.4-0.3-2.3-4-0.1-4c5.5-1,11.2-3.4,15.3-7.2   c-0.5-5.1-2.7-9.2-4.9-13.4c-6.2-0.8-9.6,5.7-9.4,11.1c-7.7,4-14.8,12.6-24.2,11.1c-9.5,0.5-10.2-11.7-14.3-17.7   c-3.5,7.8-2.8,16.6-8.1,23.7c-2.3,2.6,0.4,6-0.9,9c-11.2,20,13.3,22,27.5,21.3c18.9,0.7,36,11.2,55.1,12.8   C593.1,570.8,620.6,573.3,619.6,560.3z M530.1,577.4c-8.5-3.2-16.5-7.3-22.4-14.2c-5.6,2.3-11.3,3.5-17,5.5   c-6.3-3.7,9.8-7.5,12.6-7.2c0.5,0,1.2,0.4,1.6-0.6c-0.9-0.8-1.9-1.7-2.7-2.4c-6.6,1.3-13,2.6-18.7,6.3c-5.7-0.6,0-5.8,2.8-6.3   c4-1.7,9-1.3,12.7-3c-1.2-1.7-2.4-3.5-3.8-4.6c-7.6,2.6-14.6,5-21.5,9.1c-3.5-8.4,15.1-8.4,19.7-12c-0.6-0.9-1.1-1.8-1.8-2.5   c-6.7-0.2-15.2,3.1-20.2,7.8c-1.1,1-2.5,3.1-4.2,1.8c-2.7-7.2,16.5-12.4,21.8-12.7c-0.3-0.5-1.1-1.8-1.3-2.1   c-14.6-0.9-14.1,4.4-24.7,8.8c-6.1-6.5,17.7-14.6,22.8-12.3c-3.3-6-4.8-12-7.9-17.9c-12.9-2.1-23.5,2.6-21.8,17.4   c-7.4,5.6-14.8,10.1-19.3-1.1c-1.1,3.4-2.9,5.7-5.2,8.2c-5.1,6.5-3.9,15.7-8,22.8c9.6,12.9,27.9,11.7,39.8,21.7   c21.2,8.6,46.1,12.7,67.5,2.3C530.2,585.9,531.9,580.9,530.1,577.4z M526.2,509.7c6.9,1.4,14.1-0.5,21-1.6c0-1.5,0-2.8,0-3.8   c1.2-1.8,2.2-3.2,3.2-4.7c1.4-43.1,16.2-85.2,16.8-128.4c-2.1-23,10-49.9-6.4-69.5c-10.6,5.8-22,6.8-33.3,6.3   c-10.8,7.6-22.6,15.1-36.3,15.7c4.3,8.1,1.8,16.6,0.7,25.3c21.4-3.5,30.9-1.3,20.6,21.9c-5.3,15.7-5.6,32.5-3.4,48.7   c14.3,26.5,9.7,59.2,7.3,87.9C519.9,507.8,522.7,509.9,526.2,509.7z M491,351.7c-4.7,28.9-4.7,58.3-12.4,87   c-2.3,25.5-8.6,51-1.8,76.5c3.6,0.9,7.4,1.8,11.2,2.7c2.8,9.1,0.8,20.3,7.4,27.7c1-4.5,4-8.5,3.4-13.1c-1-4.2,1.9-7.2,3.9-10.5   c3.4-7,0.2-20.9,11.5-20.5c0.7-21.9,3.7-44.9-2.2-66.3c-3.9-11.4-9.5-23.3-7.3-35.6c2.4-13.2,3.4-26.7,8.3-39.3   c1.3-3.5,1-6.8-1.1-9.8C505,348.4,498.5,351.1,491,351.7z M430.9,465.9c-0.5,4.7-1.4,37.8-0.2,53.1c2.4-0.7,4.6-1.3,6.9-1.9   C436.4,499.7,435.7,483,430.9,465.9z M511.5,303.5c-3,10.4-11.3,14.7-21.1,18.2c12.7-1,24.7-7.5,35-14.8c-4-2.6-4-2.7-3.4-7.2   C518.4,300.9,514.9,302.2,511.5,303.5z M542.1,511.2c-8.1-0.1-15.5,2.6-23.5-0.5C517.7,525.9,535.8,517.5,542.1,511.2z    M487.1,275.5c-7.8-3-16-3.9-24.4-4.1c2.5,3.3,6.5,6.9,8.9,8.1C476.7,277.8,481.8,276.4,487.1,275.5z M437.5,519.8   c-2.7,0.6-4.7,1.2-7.3,2c0.2,4.1-0.9,8.1,0.4,12c1.5-0.4,2.8-0.8,3.7-1.1c1.2-2,2.2-3.6,3.4-5.5C437.6,525,438,522.5,437.5,519.8z    M441.4,530.7c0.8,3-0.8,6.2,2.1,8.4c3.3-1.4,7.6-1.5,10.1-4c-0.6-1.8-1.1-3.4-1.7-5.1C448.2,530.7,445.5,530.8,441.4,530.7z    M604.8,298.7c7.2-0.6,13.2-5.8,16.1-12.2C612.3,284.7,610.4,294.5,604.8,298.7z M307.9,247.8c-1.1,0.7-1.9,1.3-2.9,2   c0,0.7,0,1.7,0,2.9c3.1,0.8,5.8,2.6,9.1,3c0-1.5,0-2.8,0-4.1c-0.8,0.7-1.5,1.3-2.4,2.1c-1.5-1.4,1.8-4.7-1.1-4.4   c-0.6,1.1,0.1,3.2-2.4,3.2C308,250.9,308,249.4,307.9,247.8z M638.6,265.9c1.6-3.9,0.8-12.1-4.5-12.4   C635,257.5,636.8,261.1,638.6,265.9z M319.1,257.4c0.7-1.3,0.6-2.5,0.2-4c-0.9-0.3-1.7-1.5-2.7-1c-0.4,1.2-0.9,2.6-1.4,4   C316.7,256.8,317.9,257.1,319.1,257.4z M304.6,243.1c-3,3.6-3.3,4.6-2.1,7.5C303.1,248,305,246.3,304.6,243.1z M323.9,255.3   c0,0.6-0.1,1.2-0.1,2.2c1.8-0.4,3.2-0.8,4.7-1.1C326.9,256.1,325.7,254.6,323.9,255.3z M615.9,273.1c-0.6,1.3-0.3,2.1,0.9,2.8   c0.3-0.3,0.6-0.7,1-1.1C617,274.2,616.5,273.7,615.9,273.1z M351.4,257.4c0.8,0.9,1.6,2.1,3.2,1.1   C353.4,258.1,352.4,257.7,351.4,257.4z M322.4,255.5c-0.9,0.7-1.4,1.1-1.8,1.5C321.4,257.1,322.6,258,322.4,255.5z" />
	<path display="inline" fill="#798BB3" d="M389.6,532.1c-5.2-123.9,14.7-87.5-135.8-115.5c3.2-16.9-0.1-34.7,5.1-51.4   c0.3,0.8,0.2,1.2,0.2,2.2c27.1,5.4,54.7,8,82,12.6c23.9,3,47.9,10.2,71.8,5.7c0,50.4,0,100.7-0.1,151   C405.2,534.5,397.3,533.7,389.6,532.1z" />
	<path display="inline" d="M455.5,58.6c4.8-20.4,8.9-37.6,25.9-50.3c5.3,0.4,7.1-6,12.7-5.4C515.2-6,542.1,6.7,549.8,28   c2.7,4.5,3.9,9.7,1.6,14.8c1.8,6.6,2.7,13.8,1,20.5c-2.2-3.4,0.8-9-1.4-12.4c-0.3-2.1,0.4-6.9-2.7-6.6c-3.9,2.8-7.6-0.9-11.6-0.4   c-6.8-0.1-13.1-1.6-19.8-2c-11.6-3.3-11.4,11.6-18.8,16.2c-3.5,2.6-8.3,2.7-11.5,5.8c-1.5-0.2-2.9-0.4-4.4-0.5   c-1.2-2.1-2.3-4.1-3.5-6.1c0-1.4,0.3-2.9-2-2.7c-2.3-3-6.2-1.8-9.5-2c-0.9,1.2-1,2.9-2.3,3.3c-0.1-0.8-0.2-1.5-0.4-2.7   c-2.6,2.7-3.8,6.9-8.2,6.4C456.1,59.2,455.8,58.9,455.5,58.6z M466.2,45.3c0.9,0,2.8-1.4,1.7-2.1c-0.7,0.4-1.5,0.8-2.3,1.3   C466,44.9,466.1,45.1,466.2,45.3z M491.9,28.5c0-1.3,0.4-1.9-0.9-2.1C490.3,27.4,491,27.5,491.9,28.5z M475.1,26.1   c-0.7-0.4-1.1-0.8-1.5-0.1C473.9,26.9,474.2,26.7,475.1,26.1z" />
	<path display="inline" fill="#35A65F" d="M259.1,366c-0.4-7.9-0.6-18,7.7-21.5c2.8,2.2,6.9,1.6,10.3,2.6c4.9,0.3,9.7,3,14.5,1.4   c-8.2-1.5-15.9-2.7-24-4.3c14-7.9,31.8-2.3,46.6-5.1c14.9,9,32.2,15.5,48.9,20.9c0.3,2.5-3,9.8,0,10.4c0.4-3.2,0.5-6.6,1.6-9.6   c4.3,1.2,8.5,2.9,12.8,4.6c0.2,1.7,0.3,3.3,0.5,4.9c0.1,0,0.3,0,0.4,0c0.2-1.3,0.4-2.5,0.6-4c22.9,3.7,24.2,27.5,41.6,2.2   c2.2,2.7-0.2,5.6,0.3,8.8c2.5-3,1.8-5.3,2.2-8.5c2.9,0,5.7,0,8.9,0c-0.6,0.7-1.1,1.3-1.7,2c0,3.2-2.2,5.3-3.7,8.5   c-22.7,8.9-46.4,6.2-69.6,1C324.4,375.5,291.3,369.7,259.1,366z M301.8,349.8c6.3,0.5,12.2,3.4,18.5,1.7c-6.6-1.1-12.2-2-18.6-2.6   c-0.8-0.9-1.7-1.1-2.8,0C300,349.2,300.9,349.5,301.8,349.8z M327.8,352.7c6,1.3,11.5,3.5,17.8,3   C339.2,354.2,333.6,353.1,327.8,352.7z" />
	<path display="inline" fill="#040303" d="M329.6,152.5c7.8-13.8,7.3-31,18.6-42.8c11.8-12,24.6-22.8,39.3-31   c15.9-10.4,37.1-0.8,53.8-7.6c0.3,0.2,0.6,0.4,0.9,0.7c-0.6,0.8-1.2,1.6-1.7,2.2c-3.6,1.1-6.4,0.9-10,1.7   c7.2,12.3,19.4,71.4,42.1,52.3l0,0c1.5-1,3-2.1,3-4.3c-1,0.1-1.7,0.2-2.4,0.3l0,0c2.5-2.3,12.4-8.9,15.5-7.2   c-3.3,1.8-6.5,3.6-10.1,5.6c-8.6,20-25.9,10.6-33.4-4.8c-9.4-12.6-9.2-29.6-17.4-42.4c-11.4,3.3-24.5-2.7-34.6,3.5   c-11.8,4.4-23.3,12.3-31.2,22.4c-19.1,12-21.1,35.1-31.6,53C329.6,153.9,329.8,153.1,329.6,152.5z" />
	<path display="inline" fill="#16100F" d="M542.7,82c-0.1,0.6-0.1,1.3-0.2,2.2c-1.2,0.6-1.7,2.4-3.5,2.7c-1.6,4.7-0.7,9.4,0.2,14.1   c-0.8,1.5-1.5,3-2.5,4.8c-1.4,0.5-3.6,1-5,1.9c-3-2-6.3-2.4-9.7-3.1c-4.4-0.6-2.9-7.8,1-7.1c-0.7,0.9-1.5,1.7-2.2,2.6   c0.4,1.1,0.8,2,1.2,3c17,4,15.4,3.2,15-13.2c0.3-7.4,4.2-16,12.5-16.5c0.8,0.2,0.9,0.9,0.9,1.6c-5.2,3.1-9.5,1.6-11.1,9.4   c1.5-0.8,2.2-0.8,2.7-2.2C542.2,82.1,542.4,82.1,542.7,82z" />
	<path display="inline" fill="#4CB979" d="M314.1,339.1c-11,1.9-23.5-0.2-35,1.4c8.8-2.3,18-3.3,26.9-5.7c0.1-0.4,0.2-0.7,0.3-1.1   C308.4,336.2,311,338,314.1,339.1z" />
	<path display="inline" fill="#2E1F1C" d="M522.3,121.6c-0.6,0-1.1-0.1-1.7-0.1c0.2-0.4,0.3-0.8,0.5-1.4c-1-0.3-1.8-0.6-2.6-0.9   c3.2-1.6,8.8,0.7,8.1-5.3c-3.9-0.4-7.9,2-11.4-0.8c0.3-0.2,0.6-0.5,0.9-0.7c4.1,1,8.4,1.1,12.4-0.2c0.6,4.1-1.4,8.1-5.9,8.2   C522.5,120.9,522.4,121.2,522.3,121.6z" />
	<path display="inline" fill="#17100F" d="M442.3,71.7c-0.3-0.2-0.6-0.4-0.9-0.7c4.1-4.9,9-8.7,14.1-12.5c0.3,0.3,0.7,0.7,1,1   C451.8,63.7,447.4,68.2,442.3,71.7z" />
	<path display="inline" fill="#3C2C28" d="M528.7,114.1c-0.1-0.7-0.1-1.3-0.2-2c0.5-0.8,1-1.6,1.6-2.6c-4.1,1-7.4-1.4-10.9,0.8   c-1.2,0.7-2.4,1.5-4,1.1l0,0c0-0.3,0-0.5,0-0.8c4.8-3.3,10.2-1.1,14.7-3.9c0.5,0.3,1.1,0.5,1.6,0.8   C532.2,110.4,530.3,112.2,528.7,114.1z" />
	<path display="inline" fill="#1B492A" d="M267.5,344.2c8.1,1.7,15.8,2.8,24,4.3c-4.8,1.6-9.6-1.1-14.5-1.4c-3.3-1-7.4-0.4-10.3-2.6   C267,344.4,267.3,344.3,267.5,344.2z" />
	<path display="inline" fill="#3D3532" d="M550.3,75c0-0.7-0.1-1.4-0.9-1.6c2.3-6.9,1.5-15.1,1.8-22.4c2.1,3.5-0.9,9,1.4,12.4   C551.6,67,552.3,71.8,550.3,75z" />
	<path display="inline" fill="#191717" d="M329.6,152.5c0.1,0.7,0,1.5,0.9,1.7c-1.5,3.7-3.1,7.3-4.6,11c-0.2-0.7,0-1.5-0.9-1.7   C326,159.6,327.7,156,329.6,152.5z" />
	<path display="inline" fill="#4A4543" d="M544,77.4c0.8-0.3,1.6-0.5,2.4-0.8c-1.2,1.9-2.5,3.6-3.8,5.4c-0.2,0.1-0.5,0.1-0.7,0.1   C542.6,80.5,544,79.2,544,77.4z" />
	<path display="inline" fill="#353944" d="M590.7,255.2c-0.9,1.2-2.1,0.7-3.2,0.5C588.4,254.9,589.6,255.2,590.7,255.2z" />
	<path display="inline" fill="#967264" d="M443,69.5c-0.3,0.2-0.6,0.5-0.8,0.7C442.5,70,442.7,69.7,443,69.5z" />
	<path display="inline" fill="#E0DEE5" d="M393.3,78.7c10.1-6.2,23.2-0.2,34.6-3.5c8.2,12.8,8,29.8,17.4,42.4   c7.5,15.4,24.9,24.7,33.4,4.8c3.6-2,6.8-3.8,10.1-5.6c6,3,10.2,11,17.8,11c3.8-0.2,8.4,0.8,11.5-2c0.6-0.7,1.5-1.1,2.4-0.8   c0.3,12.5,3.1,25.4-2,37.1c-3.6,2-7.1,2.5-10.6,2.8c-1.3-4.3,2.6-8.5,0.8-13.3c-4,14.7-9.4,31.7-24.3,40.1c-0.2-0.3-0.5-0.6-0.7-1   c-2.5-0.7-4.7,0.4-7.1,0.9c-6.2,1.9-12-1.3-18.1-1.1c-0.8-0.8-1.5-1.6-2-2.2c-7.4,0.3-13.6,4.3-21.3,3c-1.5-12.2-9.7-24.3-0.8-35.6   c-2.8-3-5.2,6.6-6.8,8.6c-16.6,6.8-43.4,0.7-58.6-7.8c-0.8-2.3-0.9-4.9-2.3-7c-2.3-0.4,0.5,14.3-0.6,17.3c-2,2.8-5.4,3.9-7,6.6   c1.6,2.8,4.7-1.7,6.8-2.6c-1.3,30.7,9.8,58.7,19.7,87.1c-6.9,0.5-13.2-3.7-20.2-3.6c-11.5,1.1-22.9,1.3-34.2-1.6   c0.2-16,4.2-32.5,8.3-47.7c5.5,4.8,9.8-0.1,8.8-6.6c-1.1-1.5-0.5-3.4-0.9-5.3c-2.6-0.1-2.8-2.6-4.3-3.7c1.4-3.4,2.5-6.4,3.7-9.7   c2-0.7,3.9-2.3,6.2-1.6c0.8-0.9,2.7-2.1,2.3-3.9c-0.8,0.3-1.5,0.6-2.1,0.9c-1.2-12.8-2-27.4-0.9-40.9   C359.7,112.5,374.5,92.2,393.3,78.7z M359.4,204.7c0.4,0.2,0.9,0.4,1.4,0.7c4.7-4.3,0.9-17.8-5.9-17c-1,0.9-1.9,1.7-2.5,2.3   C352.2,196.3,353.7,203.5,359.4,204.7L359.4,204.7z M369.6,111.4c-2.2,3-3.4,10-0.6,12.6c0.5-4.1,1-8,1.5-12   C370.2,111.8,369.9,111.6,369.6,111.4z M419.4,97.4c-2.5-2.9-6.9-6.7-10.3-4.3C413.3,94.3,415.2,96.8,419.4,97.4z M370.7,124   c-0.6,2.1-2.6,11,1.4,9.6C371.2,130.5,372.2,127.2,370.7,124z M476.3,135c-2.3,0.5-5,1-5.1,3.8C473.4,137.6,475.4,137,476.3,135z    M375.1,140.6c0.3-0.2,0.6-0.3,0.9-0.5c-0.2-1.8-0.4-3.5-0.7-5.8C373.4,136.2,373.6,138.6,375.1,140.6z M365.1,149   c1.4-1.9,0.9-3.6-1.1-4.7C362.8,146.2,364.4,147.2,365.1,149z M437.3,148.6c-2,1.3-2,1.3-2,3.7   C437.2,151.9,437.1,150.5,437.3,148.6z M484.1,132c-1.6-1-2.3-0.8-3.4,1.1C482.1,133.7,483,132.7,484.1,132z M437.3,145.7   c1.4-0.5,1.3-1.3,0.6-2.4C436.6,144,436.7,144.8,437.3,145.7z M380.5,146.7c-0.7-1.5-1.1-2.3-1.7-3.6   C378.4,144.8,378.2,145.8,380.5,146.7z M398.6,91.4c1.7,1.2,1.7,1.2,3-0.2C400.6,91.2,399.9,91.3,398.6,91.4z M461.7,187.2   c-0.8-0.6-2,0.4-1.4,1.4C461.2,188.5,461.5,188,461.7,187.2z M382.1,150.2c0.4-1.7,0.3-1.9-1.4-1.8   C381.2,149,381.6,149.5,382.1,150.2z M488.7,129.2c-1.7-0.8-1.7-0.8-1.8,0.5C487.5,129.6,488.1,129.4,488.7,129.2z M362.6,140.4   c0,1.2,0,1.2,1.2,1C363.3,141,363,140.8,362.6,140.4z M507.5,136.9c-0.9,0.6-1,1.4-0.1,1.4C507.4,138,507.4,137.6,507.5,136.9z    M508.4,147.6c-0.1-0.2-0.2-0.4-0.3-0.7c-0.4,0.1-0.3,0.5-0.3,0.8C508,147.7,508.2,147.6,508.4,147.6z" />
	<path display="inline" fill="#B28C7D" d="M422.3,304.1c9.7-5.4,19.1,6.1,28.8,7c4.3,5.1,11.4,3.1,14.9,9.8c-0.4,0.2-1,0.6-1.8,1.1   c1.7,1.3,3.1,0.6,4.4-0.2c5.7,2.9,11.8,1,17.7,0.7c9.7,7.3,3.4,21.9,2,31.7c0.5,10-3.1,19.3-3.9,28.9c-3.7,27.2-7.5,54.6-11,81.9   c-4.6,15.9-5.8,34.2,0.7,49.7c-8.6,1.2-19.4,2.8-21.7,12.6c-0.7,0.1-1.5,0.2-2.2,0.3c-0.6-0.2-1.1-0.4-1.8-0.7   c-3.9-26.5,1.2-52-1.5-78.6c-4.2,6.4-2.7,15.4-5.7,22.4c-0.1-30-18.3-64-2.5-92.8c0.7,0.1,1.3,0.2,2.1,0.2   c4.1-4.2,3.2-9.2,4.4-14.6c5.7,3.7,8.4,10.9,15.8,11.6c1.1-28.9-36.5-21.5-54.5-31.4C404.6,328.4,410.3,314.1,422.3,304.1z    M466.5,337.5c-2,2.3-0.3,5.9-0.8,8.9c0.6,0.1,1,0.2,1.5,0.3c-0.3,1.4,0.5,2.2,1.6,3.1c0.1,0.8-0.4,1.8,0.8,2.3   c0.4,1.2,0.8,2.4,1.2,3.5c1.4,0.6,2.8,1.2,4.3,1.8c6.8-2.8,2-19.1-2.9-22.3c-1.3,0-2.5,0-3.9,0   C467.6,335.9,467.1,336.7,466.5,337.5L466.5,337.5z M448,416.9c1.6,0.3,2.5-11.2,0.9-11C447.5,409.7,447.3,412.6,448,416.9z    M438.2,382.3c-1.6,2.4-3.5,5.3-0.8,7.4C437.6,387,439,385,438.2,382.3z M464.9,491.3c-0.1,2.2-0.1,6,2.2,6.7   C466.9,495.6,466.5,493.3,464.9,491.3z M465.3,485.9c0.2-1.7,1-3.5-1.1-4.8C464,483,463.7,484.7,465.3,485.9z M437.3,393.9   c-1.9,1.7-1.5,3.7-0.5,5.8C437,397.8,437.1,395.8,437.3,393.9z M437.4,402.8c-1.6,2-1.6,2-0.2,3.6   C438,405.3,437.8,404.3,437.4,402.8z M449.1,427.2c-0.1-1.2,1-3.6-0.7-3.5C447.6,425.8,447.6,425.8,449.1,427.2z M457,318.3   c-1.1-1.4-1.1-1.4-3.1-0.3C455,318.8,455.9,319,457,318.3z M449.6,431.3c-1.4,0.5-1.2,1.3-0.6,2.3   C450.4,433.1,450.2,432.3,449.6,431.3z M461.8,320.7c-0.8-2.1-0.8-2.1-2.3-1.3C460.2,319.8,460.7,320,461.8,320.7z M438,412.3   c-0.7,0.3-1.4,1.5-0.1,1.8C438.1,413.4,438.7,412.8,438,412.3z M449.4,442.6c0.2,0.1,0.3,0.1,0.5,0.2c0.2-0.4,0.4-0.7,0.6-1.1   C449.6,441.2,449.7,442,449.4,442.6z" />
	<path display="inline" fill="#B28C7D" d="M493.6,329.6c-0.8-1.9-1.5-3.8-2.4-6c13.7-0.7,25.5-8.1,36.3-15.7   c11.3,0.5,22.7-0.5,33.3-6.3c16.4,19.6,4.2,46.5,6.4,69.5c-0.5,43.2-15.3,85.3-16.8,128.4c-1,1.5-2,3-3.2,4.7c0,1,0,2.3,0,3.8   c-6.8,1.1-14.1,3-21,1.6c3.3-16.4,3.1-33.6,4.5-50.4c-1.9,2.4-1.7,5.4-3.3,7.4c-2.7-11.1-0.9-23.8-3.6-35.2   c-3.3-7.8-8.5-15.7-5.4-24.4c1.7-7.9-0.1-16.4,2.6-24.1c0.5-0.1,0.9-0.1,1.1-0.2c0.6-1.8,1.1-3.5,1.6-5.1c-0.5-0.5-0.9-0.8-1.3-1.2   c3.2-8.1,1.4-18,8.7-23.9c2.8,0.7,5.7,1,8.1-1.4c-1.4-11.5-17.5-14.5-27.1-16c-6.2-0.8-11.3,4.3-17.6,2   C493.9,334.5,495.1,331.9,493.6,329.6z M554.1,327.3c1,1.7,1.5,3.6,3,5.3c0.4-0.6,0.7-1,1-1.4c0.6-0.1,1.2-0.1,1.9-0.2   C567.6,314.9,540.1,313.9,554.1,327.3z M543.7,388.4c4,0.4,1.5-9.3-0.3-10.6C539.9,379.6,543.1,385.4,543.7,388.4z M542,399.6   c2.4-1.5,1.6-8.1-1-9C540.9,393.6,540.8,396.5,542,399.6z M543.6,312.7c-0.2,3.9-0.6,5.2-2.8,7.9   C544,321.8,547.6,314.6,543.6,312.7z M564.8,352.9c0.6-4.4,0.3-5.7-1.9-7C562.8,348.2,562.8,352,564.8,352.9z M537.3,324.6   c2.4-0.8,3-2.1,2.4-5C537.7,320,536.7,322.6,537.3,324.6z M538.9,409.8c1-2.8,1-4.3,0.1-6.9C537.9,404.5,537.1,407.6,538.9,409.8z    M543.7,369.8c-0.4,2.6,0,3.7,1.6,5.4C546.5,373.1,545.3,371.4,543.7,369.8z M552.2,312.5c-2.2,1.3-2.3,1.5-1.3,5   C551,315.8,552.6,314.7,552.2,312.5z M532.4,326.5c1.3,1.6,3.2-1.1,2-2.2C533.1,324.4,532.9,325.4,532.4,326.5z M542.5,503   c-1.1,1.8-1.1,2.8-0.4,4.2C543.6,505.9,543.4,504.8,542.5,503z M542.5,362c0.2,1.9,0.9,2.7,2.4,3.4   C544.8,363.8,544.3,362.8,542.5,362z M533.9,419.4c-1,1.3-1.1,2.2,0,3.6C533.9,421.6,533.9,420.7,533.9,419.4z M536.1,413.5   c-0.9,1.1-1,1.8,0.2,3.2C536.2,415.3,536.2,414.5,536.1,413.5z M530.8,327.6c-1.2,0-1.2,0-1.1,1.2   C530.1,328.4,530.4,328,530.8,327.6z M561,341.4c-0.2,0-0.4,0-0.5,0c0,0.6,0,1.3,0,1.9c0.2,0,0.4,0,0.5,0   C561,342.6,561,342,561,341.4z M544,498.3c-0.1-0.2-0.2-0.4-0.3-0.7c-0.4,0.1-0.2,0.5-0.3,0.8C543.7,498.5,543.8,498.4,544,498.3z" />
	<path display="inline" fill="#544492" d="M401.2,370.1c0,0.7,0,1.5,0,2.2c-25.1-12.3-79.8-22.3-94.4-44.5   c-6.7-18.4-18.9-38.7-12.1-58.8c5.7-3.1,11.8-6,16.4-10.8c2.1-0.4,4.2,0.2,6.6,1c-2.4,2.5-6.1,1.7-7.8,5c6.3-0.3,11.3-4.6,17.4-5.2   c0.9,2.5,0.8,7.1,4,7.8c-4.8,2.6-11.2,4.4-15.8,0.7c-4.9,2.4-15.9,4.4-15.9,10.6c5.1-2.5,9.5-6.5,15.4-7.5c4.3,5.8,14.7,2,16.7-3.8   c0.9-0.3,0.9-1.1,1.1-1.8c1.3-0.1,2.4,1.4,3.3,0.3c-0.4-0.1-0.7-0.1-1.1-0.2c0.6-1,1.5-0.7,2.4-0.7c2.4,1.7,5.8,0.1,8.5,0   c3.8,2.8,9.3,0.5,12.9,3.3c-3.9,1.4-29.7,3.2-27.3,8.8c0.4,0.1,0.7,0.1,1.1,0.2c-9.8,4.3-20.2,8.6-23.2,19.7c-0.7,2.9-4,6.1-1.7,9   c4.8-11,10.3-22.8,23.3-25.6c0.1,1.2-0.5,2.6,1.1,3.5c9.1-4.1,19.2-6.2,29.3-5.9c-11.9,5.2-30.1,10.8-35.3,23.1   c3-2.7,5.9-5.7,9.6-7.7c1.8,3.4,2.7,8,6.1,10.1c3.8-1.7,6.6-4.3,9.3-7c0.3,0.3,0.7,0.6,1,0.9c-0.2,0.4-0.3,0.9-0.6,1.6   c4.8-0.9,9.3-2.2,14.4-1.4c-7.3,3-13.7,6.8-20.1,11.3c24.2,17.3,17.9,5.5,42.9,6.4c-6.8,3.1-12.6,4.4-19.2,7.3   c10.4,5.9,22.7,7.6,33.1,13.7c-0.8,9.6,2.4,18.7,2.8,28.2C404.8,366.6,400.5,367.2,401.2,370.1z M337.5,336.6   c2.8-2,6.8-0.8,8.4-4.7c-6.4,2.9-16.4,5.1-21,8.8C329.8,340.2,334,339.5,337.5,336.6z M369.3,327.3c-7.8,3.7-13,11.6-20.3,16.2   C355.5,342.4,363.7,331.8,369.3,327.3c1,0.1,1.7-0.2,2.1-1.2C370.1,325.7,369.6,326.4,369.3,327.3z M298.7,289.6   c2.8-3.5,7.3-4,10.9-6.6c0-1.2,1.1-3.3,0-4.5c-1.8,0.3-1.3,1.9-2.1,2.7c-3.9,0.6-7.8,1.5-11.4,4.3c2,3.5-1.7,8.4,1.3,11.8   C298.4,294.6,298.5,292.2,298.7,289.6z M319.5,335.2c5.1-7.8,19.7-9.4,22.7-17.1c-7.2,6.1-19.4,8-23.8,16.6   C318.7,334.8,319,335,319.5,335.2z M327.6,294.7c3.4-1.8,4.6-6.7,7.4-10.1C331.8,286.3,327.4,290.2,327.6,294.7z M360.3,348.9   c2.7-1.1,10.4-5.8,12.9-8c-5.4,1.4-8,5-12.9,7C360.2,347.9,360.3,348.4,360.3,348.9z M402.5,363.1c-1.7-0.4-5.5-0.4-8.1,1.9   C396.6,366.8,399.7,364.6,402.5,363.1z M377.1,356.3c-0.6-1.5-4.9-1.8-4.3,0.3C374.1,356.7,375.4,357.1,377.1,356.3z M383.5,358.1   c0,1.3,1.8,1.4,2.6,0.6C385.4,357.5,385.4,357.5,383.5,358.1z M389.2,361c1.5,0.6,3,0.8,5,0.1C392.3,360.2,390.8,360.6,389.2,361z" />
	<path display="inline" fill="#B28C7D" d="M440.7,258.3c9.3,7.9,19.4,14,28,22.7c-8.2,4.9-12.5,13.5-12.5,22.9   c-17.8-11.2-38.7-16.1-54.1-30.6c0-0.8,0-1.5,0-2.3c0.5-0.1,0.8-0.2,1.2-0.3c1.1,0.6,2.7,3.9,3.9,2.5c-1.8-3.3-5-6.1-4.7-10.1   c5.1-1.9,6.7,5.1,11.3,4.3c-1.6-1.5-2.8-2.6-4-3.8c2.1-1.2,4.4-0.3,6.7-0.9c0-0.6,0.1-1.1,0.1-1.3c-5.7-7.4-16-8.5-21.8-15.1   c-4.9-9.1-7-19.6-6.5-29.9c0.8,0.3,1.4,0.5,2,0.7c0.4,1.6-0.8,3.6,1,4.5c0.9-1.1,2.4-1.3,3.7-2c-1.8-9.8-8.8-16.8-10-25.5   c-1.3-9.3-3.7-19.4-0.1-28.3c14.1,2,28,6.1,42,1.2c6.3,24.8,8.8,50.2-0.2,74.7c-0.5,0.1-1,0.2-1.5,0.3c-1.4-1.1-1.6-3.5-3.8-3.3   C425.2,247.4,433.2,252.8,440.7,258.3z M420.5,269.2c-0.6,1.7-0.5,1.7,2.4,2.4C422.7,270.1,421.6,269.7,420.5,269.2z M418.7,232.6   c0.9,1.4,1,3.8,2.5,2.6C420.9,234.2,420.9,233,418.7,232.6z M421.1,282c-0.3,1.7-0.3,1.7,1.7,1.5C422.2,283,421.7,282.5,421.1,282z    M409.8,275.2c0.2,2.1,0.2,2.1,2.1,2C411.2,276.5,410.6,276,409.8,275.2z M417.6,226.6c-1,0.2-0.7,0.6-0.4,1.3   c0.3-0.1,0.6-0.3,0.9-0.4C417.9,227.2,417.8,226.9,417.6,226.6z M415.1,268.5c0.7-0.9,0.7-1.2-0.2-1.5   C414.2,267.4,414.7,267.8,415.1,268.5z M417,281.1c0.3-1,0.3-1-0.9-1.3C415.8,280.7,416.5,280.8,417,281.1z M428.4,286.1   c-0.2,0.2-0.4,0.4-0.5,0.5c0.3,0.2,0.5,0.4,0.8,0.7C429.2,286.8,428.8,286.5,428.4,286.1z" />
	<path display="inline" fill="#B28C7D" d="M551.1,50.9c-0.3,7.4,0.6,15.5-1.8,22.4c-13.4,1.4-13.2,17.9-12,27.9   c-2.8,7.8-9.7,1.9-15.5,1.8c-0.4-1-0.8-1.9-1.2-3c0.8-0.9,1.5-1.7,2.2-2.6c-3.8-0.6-5.4,6.5-1,7.1c2.7,0.8,5.7,0.6,8.1,2.3   c-4.7,2.9-11.2,0.3-15.5,4.7c0,0,0,0,0,0c-0.9,0-1.8-0.4-2.4,0.7c-2,2,3.4,3.9,4.7,5.5c-0.7,0.2-0.7,0.5,0,0.8   c0.9,1.3,2.8,0.7,4.3,1.6c-6.4,12.4-22.6,4.7-29.1-4c-10.6-9.9-24.7-23-16.3-38.4c-1.9-1.1-3,1-4.7,0.7c-3.3-4.8-7.3-11.1-6.9-17.3   c0.4-0.2,0.9-0.5,1.3-0.7c0.3,1.8,0,3.5,1.7,4.6c2.1,1.5,1.6,9.8,4.9,8.2c-0.4-0.7-0.7-1.3-1.1-2c0.5-1.2,1.6-0.7,2.4-0.8   c0.2,0.7,0.4,1.5,0.7,2.4c2.1-1.5,0.1-3.6,1.1-5.5c1.7-0.3,2.9-1.6,3.5-3.3c-0.2-1,0.6-2.4-0.6-3c-0.6-1.5-1.1-3.1-1.7-4.6   c2-2.2,4.4,5.4,5.8,6.9c1.5,0.2,2.9,0.4,4.4,0.5c3.2-3.1,8-3.2,11.5-5.8c7.4-4.5,7.2-19.5,18.8-16.2c6.7,0.5,13,2,19.8,2   c4-0.5,7.7,3.2,11.6,0.4C551.6,44,550.8,48.8,551.1,50.9z M520,75.8c4.8-2.2,9.4,0.5,13.9,2.4c0.5-6.8-12-6.3-15.5-3.3   c-0.8,0.1-1.8-0.2-2.2,1.2C517.6,76.5,518.8,77.1,520,75.8z M526.6,87.1c-2.3-2.2-5.4-0.4-8-2c-1.1-0.4-2.3-1.3-3.7-0.4   c1,0.9,2.1,1.8,3.2,2.9C520.8,87.9,523.8,89.1,526.6,87.1z M526.3,84.7c2.2-1.6,2.7-3.7,2-6.8C527.5,80.5,526.9,82.6,526.3,84.7z    M545.7,60.7c2.2,0.4,2.3,0.3,2-1.8C547,59.5,546.4,60,545.7,60.7z M542.3,61.9c0.7-0.4,1.4-0.8,2.4-1.3   C543.2,60,542.5,60.5,542.3,61.9z M539.2,61.6c-0.6-0.2-1.2-1.2-1.8,0.2C538.1,61.7,538.6,61.7,539.2,61.6z M536,61.4   c-0.3-0.1-0.6-0.4-0.9,0C535.4,61.8,535.6,61.7,536,61.4z" />
	<path display="inline" fill="#92A3C5" d="M413.7,384.8c3.7-0.9,7.5-1.8,11.5-2.8c-8.3,24.5,2.6,48.5,3.4,73.2   c1.7,26.5-1.9,54.1,1.3,80.1c1-0.1,2.1-0.3,3.2-0.4c0.4,2.1-1.7,4.2-3.2,5.6c-3.3,3.6-5.2,9.1-5.8,13.9c-26.6,8.5-54,15.3-81,22.8   c0.8-7.2,3.7-14.5,3.3-21.6c-7.8-2.1-15.9-2.3-23.7-5.1c24.1-8.8,48.7-11.7,73.7-8.2c-15.4,4.4-31.1,7.7-46.5,11.9   c-0.9,0.2-2.1,0.2-2.4,1.9c18.2-3.3,36.2-9.1,54.3-13.3c3.4-1.7,9.9-1,11.7-4.2l0,0c0.2-0.3,0.4-0.5,0.6-0.8   C414.3,486.9,415.7,435.4,413.7,384.8z" />
	<path display="inline" fill="#6D5CA9" d="M331.4,266.9c-3.2-0.7-3.1-5.3-4-7.8c9.3-1.5,18.7,0.1,28,1.5c12.6-7.5,18.8-1.1,31.1,0.5   c2.4,8.9,5.7,17.7,14.4,22.3c9.3,4.1,16.3,11.1,24.9,16.4c-12.2,8.6-21.7,21-23,36.1c-10.4-6.1-22.8-7.8-33.1-13.7   c6.6-2.9,12.4-4.2,19.2-7.3c-25.2-0.8-18.5,11.1-42.9-6.4c6.4-4.5,12.9-8.3,20.1-11.3c-5.1-0.8-9.6,0.5-14.4,1.4   c5.3-8.6,15.2-13.2,24.7-16.7c-14.6-0.1-22.6,14.6-34.4,21.2c-3.5-2.1-4.3-6.7-6.1-10.1c0,0,0,0,0,0c13.8-11.6,32.6-15.4,49.2-19.7   c-3.3-0.6-6.6,0.2-9.6,1.1c-14.2,4-29.6,2.5-43.1,9.1c-1.5-0.9-1-2.3-1.1-3.5c9.1-6.4,21-6.7,30.2-10.4c-9.9,0-19.7,2.9-28.6,7.3   c-0.4-0.1-0.8-0.1-1.1-0.2c-2.5-5.6,23.3-7.4,27.3-8.8c-3.6-2.8-9.2-0.5-12.9-3.3c0.3-0.3,0.5-0.7,0.9-1.1   c-4.4-2.5-10.2-1.9-13.8,1.3C332.7,265.5,332.8,267,331.4,266.9z M384.2,268.9c-4.1-1.3-7.6-3.5-11.8-0.7c3.8,0.2,7.2-0.4,10.2,1.5   c1.7,0.4,3.3,1.5,5.2,0.6C387.1,268.7,385.4,269.3,384.2,268.9z M362.7,268.7c2.4,0.2,8,1.4,8.3-1.9   C368.3,267.3,365.3,267.3,362.7,268.7z" />
	<path display="inline" fill="#B1B6B7" d="M435.2,539c0.5-1.2,1-2.4,1.5-3.8c4.4,11.1,11.9,6.7,19.3,1.1   c-1.7-14.7,8.9-19.5,21.8-17.4c3.1,5.9,4.6,11.9,7.9,17.9c-5-2.4-28.9,5.8-22.8,12.3c10.6-4.4,10.1-9.6,24.7-8.8   c0.2,0.3,1,1.6,1.3,2.1c-5.2,0.3-24.5,5.6-21.8,12.7c1.7,1.3,3-0.7,4.2-1.8c5-4.7,13.5-7.9,20.2-7.8c0.7,0.7,1.2,1.6,1.8,2.5   c-4.6,3.6-23.1,3.5-19.7,12c6.8-4.1,13.9-6.5,21.5-9.1c1.4,1.2,2.6,2.9,3.8,4.6c-3.7,1.8-8.6,1.3-12.7,3c-2.9,0.5-8.5,5.7-2.8,6.3   c5.7-3.7,12-5,18.7-6.3c0.8,0.7,1.7,1.5,2.7,2.4c-0.4,1-1.1,0.6-1.6,0.6c-2.8-0.3-18.9,3.5-12.6,7.2c5.7-2,11.4-3.2,17-5.5   c5.9,6.8,13.9,11,22.4,14.2c-0.1,2.9,0.2,5.9-0.1,9c-12.7-2.1-21.5,8-33.7,8c-14-1.6-25.6-9.7-37.9-15.8c-4.8-0.7-5.8-6.5-10.2-7.6   c-6.2,2.8-13,2-18.3-2.3C427.5,557.6,435.7,549.5,435.2,539z" />
	<path display="inline" fill="#B1B6B7" d="M507.5,515.8c1.1-4,0.9-8,3.1-11.7c4,6,4.8,18.3,14.3,17.7c9.4,1.6,16.4-7,24.2-11.1   c-0.2-5.4,3.2-11.9,9.4-11.1c2.1,4.1,4.4,8.3,4.9,13.4c-4.1,3.9-9.8,6.3-15.3,7.2c-2.2,0-2.3,3.7,0.1,4c7,1.9,11.8-4.6,17.6-7.8   c0.6,0.7,1.2,1.4,1.9,2.2c-3.7,3.8-8.9,5.3-12.3,9.5c-1.9,8.5,12.3-4.9,15-6c2.1,1.2,3.2,3.1,4.5,5.2c-3,2.4-8.2,3.3-9.5,7.2   c2.6,4.6,9.6-3.6,12.6-5.4c1.5,1.1,2.9,2.2,4.4,3.3c-2.5,3.4-6.4,3.5-7.6,7.6c3.2,4.4,7.7-2.9,10.6-4.9c1.9,0.7,3.1,2.2,4.6,3.6   c-2.3,1.7-5.2,2.6-6.1,5.9c0.6,0.6,1.2,1.1,1.8,1.7c3-1,4.9-3.2,7.2-5.1c8.3,5.9,17.4,10,27.1,12.8c1.3,2.2,0.8,4.3-0.2,6.3   c-25.4,5.7-54.1,9.7-76.5-7.8c-11.6-9.6-13.9,9.3-39.2-5C506.4,536.9,506.9,526.5,507.5,515.8z" />
	<path display="inline" fill="#D5D2DC" d="M348.3,200c0.9,6.2-4.5,9-8.8,5.1c-4.1,15.3-8.1,31.7-8.3,47.7   c-9.5-0.8-17.3-6.2-25.6-10.4c1.3-17.3,7-33.8,12.6-50.1c5.6-16.4,8.3-33.8,18.2-48.5c6.6-29.2,30.1-53.5,57-65   c-18.8,13.5-33.6,33.7-41,55.6c-1.1,13.5-0.4,28,0.9,40.9c-0.9,1.2-1.8,2.6,0.6,2.3c-0.3,0.2-0.6,0.7-0.8,0.7   c-1.9-0.9-3.1,0.7-4.7,0.8c-0.2-1.7-2.8-0.3-1.5,0.8c-1.2,3.4-2.3,6.3-3.7,9.7c1.5,1.1,1.7,3.6,4.3,3.7c0.4,1.8-0.2,3.7,0.9,5.3   C347.1,198.6,347.2,199.7,348.3,200z M346.5,197.7c0.5-1.3,0.5-2.6,0.1-4C344.9,194.6,344.5,197.5,346.5,197.7z" />
	<path display="inline" fill="#B28C7D" d="M488.2,193.8c8.1-7.2,14.4-15.8,18.3-25.9c3.5-0.8,7.1-1.7,11-2.6c7.4,20.4,9,42.5,0.2,63   c0.8-0.1,1.3-0.2,1.8-0.3c8.5,12,21.5,19.9,30.9,31.4c-9.8,1.7-19.4,4-27.5,9.6c-3.2,0.2-6.2-1.1-9.4-0.8c-2-7.6-20.5-14-26.1-23.6   c-3.2-4.5-9.1-23.8-5.1-27.9c3.5,6.5,12.1,15.5,19,9.6c-1.1-3.1,0-6.5-3.1-9C493,210.4,490.9,201.7,488.2,193.8z M516,229.2   c-0.4-0.1-0.8-0.2-1.1-0.3c-0.6,0.9-0.7,1.8,0,2.9C515.6,230.8,515.7,230.3,516,229.2z" />
	<path display="inline" fill="#977264" d="M493.6,329.6c1.4,2.3,0.3,4.9,0.9,7.5c6.3,2.4,11.4-2.8,17.6-2c9.6,1.5,25.8,4.4,27.1,16   c-2.3,2.4-5.2,2.1-8.1,1.4c-7.3,5.9-5.5,15.7-8.7,23.9c0.4,0.4,0.8,0.8,1.3,1.2c-0.5,1.6-1,3.3-1.6,5.1c-0.3,0-0.6,0.1-1.1,0.2   c-2.7,7.8-0.8,16.2-2.6,24.1c-3.2,8.7,2.1,16.6,5.4,24.4c2.7,11.4,0.9,24.1,3.6,35.2c1.7-2,1.5-4.9,3.3-7.4   c-0.4,14.4-2.3,28.4-3,42.8c-0.5-0.5-1-1-1.6-1.7c-2.3,2.4-1.2,5.1-1.3,7.7c0.8,0,1.4,0,2.1,0c-0.2,0.6-0.4,1.1-0.6,1.7   c-3.5,0.2-6.4-1.8-9.9-2.2c2.4-28.7,7.1-61.5-7.3-87.9c-2.2-16.2-1.9-33,3.4-48.7c10.3-23.1,0.8-25.4-20.6-21.9   C493.1,342.3,493.8,336.3,493.6,329.6z M515.8,346c-3.8-2-4.4-2.1-6.2,0.3C511.9,345.3,513.3,347.4,515.8,346z M524.6,491.4   c0.2,1.8-0.6,3.4,1.4,4.5C526.3,493.9,526.9,492.3,524.6,491.4z M519.9,344.7c-0.8-1.4-0.8-1.4-2.1-0.4   C518.4,345.3,519,345.4,519.9,344.7z M524.9,485.5c0.1,0,0.2,0,0.3,0c0-0.4,0-0.8,0-1.2c-0.1,0-0.2,0-0.3,0   C524.9,484.7,524.9,485.1,524.9,485.5z M525.3,479.8c-0.2,0-0.3,0-0.5,0c0.1,0.1,0.1,0.2,0.2,0.3   C525.1,480,525.2,479.9,525.3,479.8z" />
	<path display="inline" fill="#977264" d="M406.5,331c0,4.3,0,8.5,0,12.9c17.9,9.9,55.6,2.5,54.5,31.4c-7.4-0.7-10.1-7.9-15.8-11.6   c-1.1,5.3-0.3,10.4-4.4,14.6c-0.8-0.1-1.4-0.2-2.1-0.2c-15.8,28.8,2.4,62.8,2.5,92.8c2.9-7.1,1.5-16.1,5.7-22.4   c2.7,26.6-2.3,52.1,1.5,78.6c0.6,0.3,1.2,0.5,1.8,0.7c-2.3,0.9-4.7,0.7-7.2,0.6c-1-0.6-1.9-1.3-3-2c0-2.1,0-4.3,0-6.4   c5.2,0.5,2.6-13.4,2.1-17c-0.6,0.3-1.1,0.6-1.7,0.9c-1.4-4.9,0.4-11.6-3.3-16.1c-2.3-39.9-23.9-83-2.2-120.5   c-0.8-0.5-1.6-0.9-2.6-1.5c-6.8,2-14-3.1-21-2.2c-1.3,0-2.6,0.3-3.8-0.9C405.3,352.7,405.1,341.1,406.5,331z M438.1,365.6   c1.9-5.4-5.7-10.4-10.2-9.4C427.5,361.6,436.3,360.5,438.1,365.6z M425.6,356.7c1.8-2.7-2.8-4.4-4.1-2   C422.8,355.4,424.2,356,425.6,356.7z M442.4,500.2c1.5-1.2,2.2-4.3,0-4.9C442,496.9,442.1,498.5,442.4,500.2z M409.3,350.4   c1.6,0.2,3.2,0.5,4.9-0.1C412.4,348.8,410.2,348.3,409.3,350.4z M443.8,479.9c0.1-1.5,0.4-2.8-0.3-4.1   C441.8,477,441.9,478.4,443.8,479.9z M444.4,469.1c0-1.7,0.7-2.6-1.1-3.9C443.2,466.9,442.7,468.1,444.4,469.1z M443.5,490.9   c0.6-1.2,0.6-2.4,0-3.6C441.8,488.4,441.8,489.7,443.5,490.9z M420.3,352.9c-1.5-1-2.4-1.2-2.9,0.2   C418.7,353.9,418.7,353.6,420.3,352.9z" />
	<path display="inline" fill="#977264" d="M384.9,165.8c-3.7,8.9-1.2,19,0.1,28.3c1.1,8.7,8.1,15.7,10,25.5   c-1.1,0.5-2.1,0.9-3.1,1.4c-0.3-1.6,0.7-4-0.7-5.1c-0.3,0.4-0.6,0.8-0.9,1.2c-0.6-0.2-1.2-0.4-2-0.7c-0.6,10.3,1.5,20.8,6.5,29.9   c5.8,6.6,16.1,7.7,21.8,15.1c0,0.2-0.1,0.7-0.1,1.3c-2.3,0.6-4.6-0.3-6.7,0.9c-3.9-2.1-8.5-4.6-9.5-9.3c0-0.2-0.6-0.3-0.9-0.4   c-1.8,5,0.8,6.6,4.3,9c-0.3,0.1-0.7,0.1-1.1,0.2c0.1,1,0.1,2,0.2,3c-0.8-0.4-1.6-1.1-2,0.3c0.9,1.4,1.7,2.9,2.6,4.3   c-0.4,0.1-0.7,0.2-1.2,0.3c0,0.8,0,1.5,0,2.3c15.5,14.5,36.3,19.4,54.1,30.6c0.1-2.4-0.3-4.2,0.8-6.1c-0.2,4.9,0.3,9.1,1.5,13.9   c-21.6-9.2-44.8-20.3-62.6-36.3c-15.6-34.9-29-75.9-26.4-114.8C374.5,163,379.8,164.3,384.9,165.8z M380.1,208.7   c0.3-2.3-1-3.5-1.5-4.9c-1.5-3.2-0.9-6.1-2.3-9.4C373.1,198.7,374.5,207.4,380.1,208.7z M385.4,212.5c-0.1-3-0.9-5.4-2.5-7.6   C380.3,205.6,383,212.1,385.4,212.5z M389.5,215.2c-0.9-1.9-0.3-3.1-1.9-3.5C387.2,213.1,387.8,213.9,389.5,215.2z" />
	<path display="inline" fill="#977264" d="M488.2,193.8c2.7,7.9,4.8,16.6,9.9,23.3c2.3,2.2,2.7,4.8,2.5,7.7c-0.7-0.1-1.4-1.4-2.4,0   c0.8,0.8,1.6,1.6,2.4,2.3c-8.8,2.9-14.3-3.8-18.4-10.6c-4,4.2,1.9,23.5,5.1,27.9c5.7,9.7,24.1,16,26.1,23.6   c1.9,0.1,4.1-0.2,5.8,0.8c-7.7-0.2-13.9,1.5-21.1,4.8c-18.3-8.6-25.9-51.5-27.1-70.3c4.4-1.8,8.6-3.8,12.7-6.3   c3.4,4.8,2.2,15.3,7.9,17.1C490.5,209.9,483.6,197,488.2,193.8z M487,255.7c0.2-2,0.2-2-2.1-4.4C484.4,253.5,485.5,254.7,487,255.7   z M489.8,253.9c-1.7,2.2-1,3.6,1.5,3.4C490.8,256.1,490.4,255.2,489.8,253.9z M494.8,217.3c-0.7-0.2-1-0.3-1.6,0.1   c0.8,2.2,0.8,2.2,2.7,3.1C495.5,219.3,495.1,218.3,494.8,217.3z M493.9,258.6c-0.1,0.4-0.3,0.7,0.1,0.9   C494.2,259.1,494.4,258.9,493.9,258.6z" />
	<path display="inline" fill="#373A46" d="M482.7,320.3c-0.9,0-1.6,0.2-1.2,1.3c-21.8,4.2-31.5-28.2-12.6-38.2   C492.4,273,504.2,310.1,482.7,320.3L482.7,320.3z" />
	<path display="inline" fill="#373A46" d="M585.2,300.8c-6.4,0.6-12.7-0.5-16.9-5.7c5.4-9.5,5.1-18.8-0.7-28   c23.4-22.9,45.4,22.1,17.6,32.9C585.2,300.3,585.2,300.6,585.2,300.8z" />
	<path display="inline" fill="#9BA1A2" d="M507.5,515.8c-0.6,10.6-1.2,21.1-3.7,31.6c25.3,14.4,27.6-4.5,39.2,5   c22.4,17.5,51.1,13.5,76.5,7.8c1.1,13-26.7,10.5-35.5,10.6c-18.7-1.6-35.5-11.5-53.9-12.7c-14.3,0.5-40.1-0.7-28.6-21.3   c1.3-3-1.3-6.4,0.9-9C505.5,524.3,505.7,519.6,507.5,515.8z" />
	<path display="inline" fill="#9BA1A2" d="M435.2,539c0.4,10.5-7.8,18.6-5.3,29.8c5.3,4.3,12.1,5.1,18.3,2.3c4.3,1,5.4,6.9,10.2,7.6   c12.3,6.1,23.8,14.2,37.9,15.8c12.1,0,21-10,33.7-8c0.3-3.1,0.1-6,0.1-9c1.8,3.4,0.2,8.4,0.7,12.7c-21.4,10.4-46.3,6.3-67.5-2.3   c-11.9-10-30.1-8.8-39.8-21.7C427.9,557.1,427,546,435.2,539z" />
	<path display="inline" fill="#373A46" d="M646.6,283.9c-6.7,3.2-14.7,0.6-19.2-5.2c0.2-2.4,2.7-1.9,4.2-1.3   c1.2,0.3,2.5,0.3,3.3-0.7c2.7-2.3,6.6-2.5,9.7-3.7c3.6-4.8,4.1-11.4-1.4-14.7c-3.5-0.4-3.8-3.8-5.4-6.3c-1.8-0.3-3.7-2.1-5.6-1.1   c-0.9,0.5-1.7,0-2.4-1C652.8,231.4,671.3,274.1,646.6,283.9z" />
	<path display="inline" fill="#798BB3" d="M343.6,554.8c0.5,0.2,1.1,0.5,1.6,0.7c-1.2,7.5-2.5,15-4.1,22.4   c-8.3-1.8-17.1-2.1-25.2-4.6c1.4-7.1,1.9-14.4,3.9-21.3c8,1,15.5,3.8,23.7,3.9C343.5,555.3,343.6,555,343.6,554.8z" />
	<path display="inline" fill="#E0DEE5" d="M461.2,203.8c0.7,0,1.5,0,2.2,0c-14,11.8-24.3,27.7-33,44.1c-4.2-8.5,7.6-30.2,5.7-42.5   c7.6,2.2,14.1,0.1,18.1-6.9C456.8,200.2,458.3,203.5,461.2,203.8z" />
	<path display="inline" fill="#D5D2DC" d="M461.2,203.8c-2.9-0.3-4.4-3.6-7-5.3c-4,7-10.5,9.1-18.1,6.9c4.9-2.2,12.7-2.7,16-8.3   c-5.6,1.3-10.3,5.6-16.5,3.5c-0.3-3-0.4-6.1-0.3-9.1c7.6,1.3,13.9-2.6,21.3-3c0.6,0.6,1.2,1.3,2,2.2c6.1-0.2,11.9,3.1,18.1,1.1   c2.3-0.5,4.6-1.7,7.1-0.9c0.3,0.4,0.5,0.7,0.7,1c0.8-0.3,1.6-0.7,2.4-1c-6.5,8.4-16.9,10.1-27,11.7   C460.5,203.1,460.9,203.4,461.2,203.8z M458.7,191.6c-2.7,0.3-3.9,1.4-4.2,3.6C456.3,194.7,457.5,193.6,458.7,191.6z" />
	<path display="inline" fill="#373A46" d="M541.8,304.8c1-1.1,1.9-2.4,2.3-3.9c0.9-0.5,0.9-1.1,0-1.6c-0.7-2.4-3.2-4.2-4.7-6.2   c6.9-4.1,4.1-13-2.9-15.3c-2-3.1-3.9-6.9-8.2-9c21.9-12.3,35,20.2,18,34.4l0,0c-1.1,0-1.9,0.6-3.3,1.6c1.3,0,1.9,0,2.5,0l0,0   c-0.8,1.4-2.1,0.6-3.1,0.8l0,0C542.3,305.3,542,305,541.8,304.8L541.8,304.8z" />
	<path display="inline" fill="#4C505E" d="M506.8,286.1c4.6,6.5,4.3,15.9,0,22.5c-4.2,1-7.9,4.4-12.2,4.5c1-7.7,2.7-15.6-1-23.1   C498,288.7,502.4,287.4,506.8,286.1z" />
	<path display="inline" fill="#4C505E" d="M554,296.9c3-7.1,2.9-14.7,0.1-21.6c4.7-0.2,8.6-3.6,13.3-3.9c4.2,7.2,3.8,15.7-0.9,22.5   C562.6,294.3,557.3,299.1,554,296.9z" />
	<path display="inline" fill="#4C505E" d="M611.6,266.8c4,6.1,3.4,18.4-3,24.1c-3.5-0.4-8.2,3.6-11,1.5c3.1-6.6,3.2-14,0.9-20.9   C602.9,270,607.5,269.1,611.6,266.8z" />
	<path display="inline" fill="#4C505E" d="M673.7,255.9c2,7.1-0.1,15-5.4,20.2c-3.7,0.3-7.1,1.9-10.9,1.6c3.2-6.5,3.8-13.9,1.6-20.9   C663.4,255,669.1,254.3,673.7,255.9z" />
	<path display="inline" fill="#788BB2" d="M396.5,542.2c-10.8-1.9-23.1,0.3-34.3-2.3c15.8-6.1,33.3-8.9,49-1.5   C406.3,539.7,401.4,540.9,396.5,542.2z" />
	<path display="inline" fill="#12151A" d="M413.7,384.8c2.1,50.1,0.4,101,0.6,151.3c-0.5,0.3-1,0.5-1.5,0.8c0,0-0.1-0.1-0.1-0.1   c0-50.4,0.1-100.7,0.1-151c-0.6-0.1-1.1-0.2-1.5-0.4C411.9,384.4,412.8,384.8,413.7,384.8z" />
	<path display="inline" fill="#957163" d="M511.5,303.5c3.4-1.3,6.8-2.5,10.4-3.9c-0.6,4.5-0.6,4.6,3.4,7.2   c-10.3,7.3-22.3,13.9-35,14.8C500.2,318.2,508.5,313.9,511.5,303.5z" />
	<path display="inline" fill="#B18B7C" d="M531.6,285.4c0.3,2,0.1,3.8-1.4,5.5l0,0c-1.5,0.6-3.1,1.3-4.8,0.1   c0.4-8-7.3-13.1-10.8-19.6c2-1.7,5.2-0.4,7.5-0.7C525.9,275.2,528.8,280.3,531.6,285.4z" />
	<path display="inline" fill="#AF8A7C" d="M613.9,262.9c-1-1.5-1.4-2.2-2.1-4.1c-0.4,1.1-0.6,1.7-0.8,2.4c-2.8-2-5.7-4-8.6-6.1   c3.9-1.5,8.5-0.9,12.6-2.5c2.8,4.3,7.3,8.1,7.5,13.3c-1.6,0.5-3.2,1-4.8,1.5C616.4,265.6,616.2,263.4,613.9,262.9z" />
	<path display="inline" fill="#FBFCFC" d="M542.1,511.2c-6.3,6.3-24.4,14.8-23.5-0.5C526.6,513.8,534,511.1,542.1,511.2z" />
	<path display="inline" fill="#AF8A7C" d="M504,273.1c2.8-0.6,5.5-1.1,8.3-1.7c4.2,4.5,7,8.9,10,14.5c-0.3,1.6,0.8,3.8-0.6,5.8   c-1.8-0.7-3.5-1.3-5.4-2c-0.3-4.7-1.6-12.3-6.8-13.5c-0.1,1,0.8,1.7-0.2,2.3C507.8,276.2,504.9,275.4,504,273.1z" />
	<path display="inline" fill="#51428E" d="M408.9,377.7c-3.3,0.4-7.1,0.2-7.7-3.8l-0.1,0c0.5,0.1,0.9,0.2,1.6,0.3   c-2.5-3.9,2.1-6.2,4-8.7c3.9,0.6,7.5,1.1,11.2,1.7c-1.1,3.1-4.3,4.9-7.4,7.5c0,0,0,0,0,0c-1,0.4-2.1,0.8-3.3,1.2   C407.9,376.7,408.4,377.2,408.9,377.7z" />
	<path display="inline" fill="#363A45" d="M654.2,248.9c-4.3-2.6-7.7-5.1-13.4-4.7c8.2-4.7,19.7-5.5,26.8,1.5   C663,245.7,658.9,248.4,654.2,248.9z" />
	<path display="inline" fill="#AE897B" d="M487.1,275.5c-5.3,0.9-10.4,2.2-15.5,4c-2.3-1.2-6.4-4.8-8.9-8.1   C471.1,271.7,479.2,272.5,487.1,275.5z" />
	<path display="inline" fill="#AF8A7B" d="M543.2,300.1c-0.5,0.5-0.9,1-1.4,1.6c-5.7,0.5-11.2,1-17,0.7c-0.3-0.8-0.7-1.5-1.2-2.6   c3.7-0.6,6.5-2.1,8.3-4.9C536.9,293.8,540.5,296.1,543.2,300.1z" />
	<path display="inline" fill="#373A46" d="M567.4,271.4c-4.7,0.3-8.5,3.7-13.3,3.9c-1.6-2.1-3.1-4.1-4.7-6.2   c4.1-0.4,8.9-1.6,11.7-4.7C563.9,265.9,566.6,268.2,567.4,271.4z" />
	<path display="inline" fill="#373A46" d="M506.8,286.1c-4.4,1.3-8.8,2.6-13.3,3.9c-1.3-1.8-2.6-3.5-3.9-5.3   c3.1-3.2,8.1-2.2,11.6-4.7C503.8,281.5,505.6,283.5,506.8,286.1z" />
	<path display="inline" fill="#373A46" d="M673.7,255.9c-4.6-1.6-10.3-0.9-14.7,0.8c-1.3-2.1-2.5-4.2-3.8-6.2   c4.3,0.1,8.4-1.7,12.8-1.5c0.8,0,1.6,0.1,2-0.8C671.7,250.4,673,253,673.7,255.9z" />
	<path display="inline" fill="#373A46" d="M611.6,266.8c-4.1,2.3-8.7,3.2-13.1,4.6c-1.3-2.1-2.7-4.1-4-6.2c4.3-0.7,9.5-2.1,13.2-3.9   C609.6,262.7,610.4,264.9,611.6,266.8z" />
	<path display="inline" fill="#353944" d="M592.2,262.9c-3.3-1.8-6.7-3-10.6-3.4c6.1-4.1,16.1-5.1,22.4-0.6c-3.7,1.1-6.9,3.6-11,3.3   C592.7,262.2,592.4,262.7,592.2,262.9z" />
	<path display="inline" fill="#8E9FC0" d="M437.5,519.8c0.5,2.7,0.1,5.3,0.2,7.5c-1.2,1.9-2.2,3.5-3.4,5.5c-0.9,0.3-2.2,0.7-3.7,1.1   c-1.3-3.9-0.2-7.9-0.4-12C432.8,520.9,434.8,520.4,437.5,519.8z" />
	<path display="inline" fill="#AD887A" d="M533.9,289.2c-0.6-7.5-7.2-13.4-9.9-20c0.8,0,1.5,0,2.3,0c6.9,5.4,13.9,13.5,7.9,22.1   C534.1,290.4,534,289.8,533.9,289.2z" />
	<path display="inline" fill="#967063" d="M509.3,278.4c1.1-0.6,0.2-1.3,0.2-2.3c5.2,1.3,6.5,8.9,6.8,13.5c1.8,0.7,3.6,1.4,5.4,2   c0,1.5,0,3.1,0,4.6c-0.8,0.5-1.6,1-2.4,1.5c-0.8,0-1.6,0-2.3,0c-3.9-3.4-2.9-8.8-3.1-13.5C512.4,282.4,510.8,280.4,509.3,278.4z" />
	<path display="inline" fill="#F9F9F9" d="M441.4,530.7c4.1,0.1,6.8,0,10.5-0.6c0.6,1.7,1.1,3.3,1.7,5.1c-2.5,2.5-6.8,2.6-10.1,4   C440.6,536.9,442.2,533.7,441.4,530.7z" />
	<path display="inline" fill="#AD897A" d="M630.1,263.6c0.1,0.2,0.2,0.5,0.4,0.7c-1.8,1.1-3.7,0.8-5.6,0.8c-1.3-4.5-4.5-8-6.8-12   c3-1.8,5.6-0.7,8.2,0.8C627.6,257.1,628.3,260.7,630.1,263.6z" />
	<path display="inline" fill="#181110" d="M481.3,105.1c9.5,9.3,23.5,29.9,37.8,17.9c0.6,0.6,1,1.3,1.5,2c-17.6,8-20.1-1.1-33.4-8.9   c0.5-0.4,0.9-0.7,1.4-1.1c-2.9-3.1-5.7-6-8.4-8.9C480.6,105.8,481,105.4,481.3,105.1z" />
	<path display="inline" fill="#916E61" d="M604.8,298.7c5.6-4.2,7.5-14,16.1-12.2C618,292.9,611.9,298.1,604.8,298.7z" />
	<path display="inline" fill="#363945" d="M494.3,311.7c0.1,0.4,0.1,0.8,0.3,1.4c4.3-0.1,8-3.5,12.2-4.5   c-4.2,7.7-13.3,11.3-21.7,11.6c0,0,0,0,0,0C488.4,317.7,492.2,315.7,494.3,311.7z" />
	<path display="inline" fill="#363945" d="M545.7,266.7c-3-1.4-5.7-1-8.6-2.7c7.6-2,15.5-4.9,22.6-0.3   C555.3,266.1,549.7,264.7,545.7,266.7z" />
	<path display="inline" fill="#373945" d="M554,296.9c3.3,2.2,8.6-2.6,12.5-3c-4.7,7.2-12.8,10-20.9,10.9l0,0   c0.3-0.5,0.5-1.1,0.8-1.6l0,0C549.9,301.9,552.3,299.9,554,296.9z" />
	<path display="inline" fill="#51428E" d="M296.4,268.3c-0.6,0.3-1.1,0.5-1.7,0.8c0.2-6,4.7-10,6.4-15.6c2.3,1.2,4.4,2.3,6.7,3.5   c-3.9,2.9-6.6,6.9-10.8,9.3C296.4,266.8,296.2,267.5,296.4,268.3z" />
	<path display="inline" fill="#363945" d="M597.6,292.3c2.8,2.1,7.5-1.9,11-1.5c-5.2,7.3-15.1,8.9-23.3,10c0-0.3,0-0.5,0-0.8   c1.2,0.3,1.6-0.9,2.3-1.5C589.5,301,596.3,294.4,597.6,292.3z" />
	<path display="inline" fill="#947062" d="M624.8,265.2c1.9,0,3.9,0.3,5.6-0.8c2,1.7-3.7,14.3-7.2,13.2l0.1,0   c-0.2-0.6-0.5-1.2-0.8-1.9C623.3,272.3,624.1,268.8,624.8,265.2z" />
	<path display="inline" fill="#363944" d="M657.4,277.6c3.7,0.4,7.2-1.3,10.9-1.6c-4.4,5.1-15.3,10.1-21.7,7.8   c0.3-0.3,0.6-0.5,0.9-0.8C649.4,285.9,656,279.4,657.4,277.6z" />
	<path display="inline" fill="#353945" d="M485.8,282.2c-2.2-0.2-4.1-2.1-6.4-1.6c-1.8-3.8,14.4-4.8,16.5-3   C492.7,279.2,488.8,280.3,485.8,282.2z" />
	<path display="inline" fill="#150F0E" d="M521.6,296.3c0-1.5,0-3.1,0-4.6c1.4-2,0.3-4.2,0.6-5.8c-3-5.6-5.8-10-10-14.5   c0.5-0.5,1-1,1.6-1.5c0,0.7,0,1.3,0.8,1.5c5.9,7.7,12.1,14.6,8.5,24.8C522.6,296.2,522.1,296.3,521.6,296.3z" />
	<path display="inline" fill="#4B4F5D" d="M485.8,282.2c2.9-2,6.8-3,10.1-4.6c1.8,0.8,3.6,1.6,5.3,2.4c-3.5,2.5-8.5,1.5-11.6,4.7   C488.4,283.9,487.1,283.1,485.8,282.2z" />
	<path display="inline" fill="#120E0D" d="M516.9,297.8c0.8,0,1.6,0,2.3,0c-0.5,0.5-1.1,1-1.6,1.5c-0.4-1.2-1.5-0.8-2.3-1.1   c-3.1-1.4-2.4-5.4-3.2-8.2c1.1-1.3,1.1-1.6,0.1-3.1c0.1-0.4,0.2-0.7,0.4-1.2c-2-4-6.3-6.2-8.1-10c-1.1-0.5-1.9-0.8-2.7-1.2   c0.6-0.6,1.3-1.2,2-1.6C520,286.9,509.2,286.3,516.9,297.8z" />
	<path display="inline" fill="#A68375" d="M501.9,274.6c0.8,0.4,1.6,0.7,2.7,1.2c1.8,3.8,6.1,6,8.1,10c-0.1,0.4-0.2,0.8-0.4,1.2   c-0.5,0.4-0.9,0.8-1.6,1.3c-2.4-4.1-5-8-9.2-10.4c-1-0.6-1.8-1.3-1.9-2.9C500.5,274.9,501.2,274.7,501.9,274.6z" />
	<path display="inline" fill="#4A4F5D" d="M592.2,262.9c3-1.5,7-1.2,10-3.4c2.2-1.4,4,0.5,5.5,1.9c-3.7,1.8-8.9,3.2-13.2,3.9   C593.7,264.5,592.9,263.7,592.2,262.9C592.2,262.9,592.2,262.9,592.2,262.9z" />
	<path display="inline" fill="#8E6C5E" d="M635.1,262.7c2.9,4.2,0,8.3-1.6,12.4c-0.9,0.3-2,0.3-2.9,0.1c-0.5-3.5,2.8-7,2.7-10.7   C634.6,264.5,635,263.8,635.1,262.7z" />
	<path display="inline" fill="#906B5E" d="M523.1,296.2c0.3-4.1,1.7-8.1,0.7-12.4c1.1,1.7,1.9,4.9,1.6,7.1c1.7,1.2,3.3,0.5,4.8-0.1   c-0.1,1.3-0.2,2.5-0.3,3.5c-1.6,1.8-3.6,1.8-5.2,2.5C524,296.7,523.6,296.4,523.1,296.2z" />
	<path display="inline" fill="#211714" d="M514.6,271.4c-0.9-0.2-0.8-0.9-0.8-1.5c3.5,0.3,6.6-1.6,10.2-0.7c2.2,5,6.2,9.5,8.3,14.7   c-0.2,0.5-0.4,1-0.7,1.5c-2.8-5.2-5.7-10.2-9.5-14.8C519.8,271,516.6,269.7,514.6,271.4z" />
	<path display="inline" fill="#906C5F" d="M616.3,265.2c0.4,0.7,0.8,1.4,1.3,2.2c1.6-0.5,3.2-1,4.8-1.5c0.2,2.9-0.8,5.5-1.2,8.5   c-1.1-0.3-2-0.5-2.8-0.7C616.1,271.1,616.3,268.2,616.3,265.2z" />
	<path display="inline" fill="#A58375" d="M635.1,262.7c-0.1,1.1-0.5,1.9-1.8,1.8c-2-3.8-4-7.4-5.5-11.4   C632.8,251.7,633.9,259.2,635.1,262.7z" />
	<path display="inline" fill="#4A4E5C" d="M545.7,266.7c2.3-1.5,5.9-0.8,8.7-1.5c1.9,0.2,5.3-2.6,6.8-0.8c-2.8,3.1-7.6,4.3-11.7,4.7   C548.2,268.3,546.9,267.5,545.7,266.7z" />
	<path display="inline" fill="#956D60" d="M524.8,302.4c5.8,0.3,11.3-0.2,17-0.7c-2.2,2.6-5.4,3.5-8.5,4.4   C531,304,526.5,305.4,524.8,302.4z" />
	<path display="inline" fill="#363944" d="M645.1,262.8c1.7,2.5,0.8,5.8-0.7,8.1c-2.5,1-4.8,2-7.5,3.1c0.7-2.3-0.3-4.1,1.1-5.8   c1.8,1,4.7-1,7.1-1.2C645.1,265.6,645.1,264.2,645.1,262.8z" />
	<path display="inline" fill="#4A4F5D" d="M669.9,248.1c-0.4,0.9-1.2,0.8-2,0.8c-4.4-0.2-8.4,1.7-12.8,1.5c-0.3-0.5-0.6-1-0.9-1.5   c4.6-0.5,8.8-3.2,13.4-3.2C668.4,246.5,669.2,247.3,669.9,248.1z" />
	<path display="inline" fill="#17191F" d="M341.1,577.9c1.6-7.4,3-14.9,4.1-22.4c0.4,0,0.8,0,1.2,0.1c0.4,7.1-2.5,14.4-3.3,21.6   C342.4,577.4,341.8,577.6,341.1,577.9z" />
	<path display="inline" fill="#484D5A" d="M645.1,262.8c0,1.4,0,2.8,0,4.2c-2.4,0.2-5.3,2.2-7.1,1.2c4.3-2.9,3.7-4.5,2.7-9.3   C642.9,259.7,644.6,260.5,645.1,262.8z" />
	<path display="inline" fill="#463A7D" d="M307.9,247.8c0.1,1.6,0.1,3.1,0.2,4.7c2.6,0,1.8-2.2,2.4-3.2c2.9-0.3-0.4,3,1.1,4.4   c0.9-0.8,1.6-1.4,2.4-2.1c0,1.3,0,2.6,0,4.1c-3.3-0.5-6-2.2-9.1-3c0-1.2,0-2.2,0-2.9C306,249.1,306.8,248.5,307.9,247.8z" />
	<path display="inline" fill="#8493B2" d="M486.5,522.9c0.5,2.9,1.1,5.8,1.6,8.7c-2.1-0.3-2.3-2.7-3.6-4c-0.9-1.8-3.2-2.8-2.5-5   c1-0.4,2-0.8,3.1-1.2C485.6,521.9,486,522.4,486.5,522.9z" />
	<path display="inline" fill="#AE8A7C" d="M616.2,279c-0.2-2.9,4.6-2.8,6.2-1.3c-0.6,1.3-1.4,2.5,0,3.8c-1.3,1.3-3.9,0.2-5.9,0.6   C616.4,281,616.3,280,616.2,279z" />
	<path display="inline" fill="#98796E" d="M638.6,265.9c-1.8-4.7-3.6-8.3-4.5-12.4C639.4,253.7,640.1,262,638.6,265.9z" />
	<path display="inline" fill="#89685C" d="M616.2,279c0.1,1,0.2,2,0.3,3.1c2.8-0.1,7.4,1,6.8-3l0,0c3.3,1.8,0.8,3.2-0.5,5.2   c-2.3,0.1-4.8,0.2-7.5,0.3C615.4,282.5,615.6,281,616.2,279z" />
	<path display="inline" fill="#1B1317" d="M343.6,554.8c0,0.3-0.1,0.5-0.1,1c-6.2-0.5-12.7-1.1-18.6-3.3c0.6-0.3,1.1-0.5,1.7-0.8   C332.2,553.1,337.9,553.7,343.6,554.8z" />
	<path display="inline" fill="#101011" d="M543.2,300.1c-2.1-2.4-4.1-5.6-7.7-5.5c2.2-1.8,0.8-4.8,2.3-7c0.5,1.7-1.1,5.5,1.6,5.4   l0,0c1.6,1.8,3.2,3.6,4.6,5.5c-1.5,0.7,2.4,1,0.1,2.3C543.8,300.7,543.5,300.4,543.2,300.1z" />
	<path display="inline" fill="#4A4E5B" d="M537.9,289.2c-0.3-2.3,1.1-4.3,0.7-6.6c-0.1-0.7-0.1-1.5,0.8-1.9c1.9,2.2,2.8,4.8,2.2,7.7   C540.4,288.7,539.2,289,537.9,289.2z" />
	<path display="inline" fill="#454853" d="M512.2,290.1c0.7,2.8,0,6.7,3.2,8.2c0.8,0.4,1.9-0.1,2.3,1.1c-1.9,0.8-3.7,1.5-5.8,2.3   c-0.2-2.9,0.9-5.3-0.2-8.1C511.4,292.4,510.7,291,512.2,290.1z" />
	<path display="inline" fill="#241B18" d="M487.5,203c1.2,3.9,3,7.4,4.2,11.3c-3.9-0.5-4.1-6.4-4.9-9.7   C487,204,487.2,203.5,487.5,203z" />
	<path display="inline" fill="#101011" d="M541.6,288.4c0.6-3-0.3-5.5-2.2-7.7c0.3-0.3,0.5-0.5,0.8-0.8c3.9,2.8,4.6,10,0,12.4l0,0   C540.7,291.1,541.2,289.7,541.6,288.4z" />
	<path display="inline" fill="#4A3D82" d="M319.1,257.4c-1.2-0.3-2.4-0.6-3.9-1c0.5-1.5,1-2.8,1.4-4c1-0.4,1.8,0.7,2.7,1   C319.8,254.9,319.8,256.1,319.1,257.4z" />
	<path display="inline" fill="#110D0F" d="M414.2,310.1c2.4-2.3,4.7-4.7,7.1-7c0.3,0.3,0.7,0.7,1,1c-2.4,2.4-4.7,4.7-7.1,7.1   C414.9,310.8,414.6,310.5,414.2,310.1z" />
	<path display="inline" fill="#362624" d="M432.3,250.3c3.2,2.3,6.2,4.7,9.4,7c-0.3,0.3-0.7,0.6-1,0.9c-2.9-2.2-6.3-3.9-8.5-6.9   C432.2,251,432.3,250.7,432.3,250.3z" />
	<path display="inline" fill="#0A2013" d="M364.7,360.7c-1.2,3.1-1.2,6.4-1.6,9.6c-3-0.6,0.3-7.9,0-10.4   C363.7,359.9,364.4,359.9,364.7,360.7z" />
	<path display="inline" fill="#281D26" d="M400.4,535.3c-3.5-0.8-7.7-0.6-10.9-2.1c0-0.4,0-0.7,0.1-1.1c3.9,0.8,7.9,1.3,11.8,2.3   C401.1,534.7,400.7,535,400.4,535.3z" />
	<path display="inline" fill="#164B2B" d="M422.8,370.7c0.3,2.3-0.3,4.2-2,6.5c-0.5-3.1,1.9-6.1-0.3-8.8c0.4-0.2,0.7-0.4,1-0.6   C422.6,368.7,421.6,370.1,422.8,370.7z" />
	<path display="inline" fill="#453978" d="M304.6,243.1c0.4,3.2-1.5,4.9-2.1,7.5C301.3,247.7,301.6,246.7,304.6,243.1z" />
	<path display="inline" fill="#788FAD" d="M486.5,522.9c-2.5-4-4.2-0.9-5.5-3.7C483.9,518.4,487.2,519.6,486.5,522.9z" />
	<path display="inline" fill="#5A4E90" d="M323.9,255.3c1.9-0.8,3,0.7,4.5,1c-1.4,0.4-2.9,0.7-4.7,1.1   C323.8,256.6,323.8,255.9,323.9,255.3z" />
	<path display="inline" fill="#130D1C" d="M296.4,268.3c-0.5-2.2,2.5-2.7,3.8-3.8c0.3,0.3,0.6,0.6,0.9,0.8   C299.9,267,298,267.3,296.4,268.3z" />
	<path display="inline" fill="#5B463E" d="M441.6,519.8c-0.5,0-1,0-1.5,0.1c0-2.9,0-5.9,0-8.8C441.7,513.9,439.9,517.1,441.6,519.8z   " />
	<path display="inline" fill="#322E2F" d="M507.7,155c0-1.1-0.6-2.5,1.2-3.3c0.5,2.6,0.7,5-0.4,7.3   C508.4,157.6,508.4,156.3,507.7,155z" />
	<path display="inline" fill="#78584E" d="M533.9,289.2c0.1,0.6,0.2,1.2,0.3,2c0.5-1,0.9-1.9,1.3-2.8c0,1.1,0,2.2,0,3.5   c-1.2,0.3-1.8,1.3-3.1,0.4C532.9,291.4,533.4,290.3,533.9,289.2z" />
	<path display="inline" fill="#342958" d="M408.9,377.7c-0.5-0.5-1-1-1.6-1.7c1.3-0.5,2.3-0.9,3.3-1.2   C411,376.4,411,376.6,408.9,377.7z" />
	<path display="inline" fill="#474146" d="M613.9,262.9c0.7,0.6,2,0.4,2.2,1.6c-0.4,0-0.7,0.1-1.2,0.1c-0.1,0.8-0.2,1.5-0.4,2.7   c-0.5-0.8-0.9-1.4-1.3-1.9C613.5,264.6,613.7,263.8,613.9,262.9z" />
	<path display="inline" fill="#1E1715" d="M423.5,242.1c-1-0.8-2-1.6-2.1-3.3c1.8-0.2,2.1,1.2,3,2.4   C424.1,241.5,423.8,241.8,423.5,242.1z" />
	<path display="inline" fill="#242529" d="M615.9,273.1c0.6,0.6,1.2,1.1,1.8,1.7c-0.4,0.4-0.7,0.8-1,1.1   C615.6,275.2,615.2,274.4,615.9,273.1z" />
	<path display="inline" fill="#89685C" d="M622.4,281.6c-1.4-1.3-0.5-2.6,0-3.8c0.3,0,0.6-0.1,0.9-0.1c0,0-0.1,0-0.1,0   c0,0.5,0,1,0,1.6l0,0c-1.2,0.4-0.7,1.5-0.8,2.3L622.4,281.6z" />
	<path display="inline" fill="#564680" d="M351.4,257.4c1,0.3,2,0.7,3.2,1.1C353,259.5,352.1,258.4,351.4,257.4z" />
	<path display="inline" fill="#36373D" d="M542.5,305.5c-1.1,0.7-1.1,0.7-2.8,0.4c0.3-1.1,1.1-1.2,2-1.2l0,0   C542,305,542.3,305.3,542.5,305.5L542.5,305.5z" />
	<path display="inline" fill="#312A5A" d="M322.4,255.5c0.1,2.5-1,1.6-1.8,1.5C321.1,256.6,321.5,256.2,322.4,255.5z" />
	<path display="inline" fill="#7F7071" d="M491.2,273c0.3-0.3,0.6-0.6,1-0.9c0.4,0.4,0.8,0.8,1.2,1.2   C492.3,274,491.7,273.8,491.2,273z" />
	<path display="inline" fill="#51428E" d="M399.6,372.3c0.5,0,1,0,1.5,0c0,0.5,0,1.1,0,1.6c0,0,0.1,0,0.1,0   C400.7,373.3,400.1,372.8,399.6,372.3z" />
	<path display="inline" fill="#788BB2" d="M361.5,540c-0.6,1.1-1.6,0.7-2.4,0.7C359.8,540,360.6,539.9,361.5,540z" />
	<path display="inline" fill="#51428E" d="M401.2,370.1c0.1-0.9-0.4-1.9,0.7-2.4C401.8,368.5,402.2,369.5,401.2,370.1z" />
	<path display="inline" fill="#363945" d="M482.7,320.3c0.8,0,1.6,0,2.4,0l0,0C483.9,321.4,483.8,321.4,482.7,320.3L482.7,320.3z" />
	<path display="inline" fill="#1E1715" d="M425.2,242c0.5-0.1,1-0.2,1.5-0.3C426.3,242.9,426.1,242.9,425.2,242z" />
	<path display="inline" fill="#1E1715" d="M425.3,245c-0.2-0.5-0.5-1-0.7-1.5C425.3,243.7,425.3,244.4,425.3,245z" />
	<path display="inline" fill="#342958" d="M410.5,374.7c0.3-0.3,0.5-0.5,0.8-0.8C411,374.2,410.8,374.4,410.5,374.7z" />
	<path display="inline" fill="#1E1715" d="M424.4,241.2c0.2,0.3,0.5,0.5,0.7,0.8C424.9,241.7,424.7,241.4,424.4,241.2z" />
	<path display="inline" fill="#906B5E" d="M530.2,290.9c0.2-0.3,0.4-0.6,0.6-0.9C530.6,290.3,530.4,290.6,530.2,290.9z" />
	<path display="inline" fill="#363945" d="M561.2,264.4c-0.3-0.2-0.5-0.4-0.8-0.7C560.6,264,560.9,264.2,561.2,264.4z" />
	<path display="inline" fill="#947062" d="M630.1,263.6c-0.2-0.3-0.4-0.5-0.6-0.8C629.7,263.1,629.9,263.4,630.1,263.6z" />
	<path display="inline" fill="#353944" d="M592.2,262.9c0.3,0.3,0.5,0.5,0.8,0.8C592.7,263.4,592.4,263.2,592.2,262.9z" />
	<path display="inline" fill="#373A46" d="M554.2,276c0.2,0.3,0.4,0.6,0.6,0.9C554.7,276.6,554.5,276.3,554.2,276z" />
	<path display="inline" fill="#363944" d="M658.2,276c-0.2,0.3-0.4,0.6-0.6,0.8C657.8,276.6,658,276.3,658.2,276z" />
	<path display="inline" fill="#164B2B" d="M420.5,368.4c-0.2,0.3-0.4,0.6-0.6,0.9C420.1,369,420.3,368.7,420.5,368.4z" />
	<path display="inline" fill="#12151A" d="M400.4,535.3c0.3-0.3,0.7-0.6,1-0.9c4-0.1,7.5,1.6,11.3,2.4c0,0,0.1,0.1,0.1,0.1   c-0.5,0.5-1.1,1-1.6,1.5C408.2,536.5,404,536.1,400.4,535.3z" />
	<path display="inline" fill="#967264" d="M442.3,71.7c5.1-3.5,9.5-8,14.2-12.1c3.4,0.4,5.2-2.3,6.8-4.8c1.5,4.1-3,9.6,0.4,13.8   c3,4.2,3.1,11.2,8.8,12.6c-0.2,0.4-0.4,0.7-0.6,1c-0.3-0.3-0.6-0.6-0.9-0.9c-6.9-0.4-11.6-5.5-15.2-11c-7.3,3.4-16.1,13.2-23.7,5.7   c-0.1,0.1-0.4,0.4-0.7,0.6c-0.2-0.3-0.4-0.5-0.8-1c3.6-0.7,6.4-0.6,10-1.7C441.1,73.3,441.7,72.5,442.3,71.7z M445.2,73.3   c-1.1-0.3-2.2-0.3-2.8,1.2C443.8,75.3,444.5,74.2,445.2,73.3z M451.3,71.1c-0.1-0.2-0.1-0.5-0.2-0.7c-0.5,0.1-1.1,0.1-1.8,0.2   c0.2,0.5,0.3,0.9,0.4,1.4C450.4,71.6,450.9,71.3,451.3,71.1z" />
	<path display="inline" fill="#1B1412" d="M471.9,82.2c0.2-0.3,0.4-0.6,0.6-1c-5.8-1.4-5.8-8.4-8.8-12.6c-3.4-4.2,1.1-9.7-0.4-13.8   c0.4-0.4,0.8-0.9,1.4-1.5c0.2,1.2,0.3,1.9,0.4,2.7c1.3-0.5,1.4-2.1,2.3-3.3c6.7-0.7,11.2,5.1,11.5,11.5c-0.3,0.5-0.7,1-0.8,1.6   c-0.2,0.1-0.5,0.1-0.7,0.1l0,0c0.3-2.8-0.4-5.9-2.9-7.4c-0.3-1-0.6-2.1-0.9-3.2c-0.8,0.3-1.2,0.4-1.7,0.6c-1.1-1.3-2.2-0.8-3.7-0.1   c-0.2,1.5-1.7,3.4-0.2,4.6c0.1,1.7-1.1,3-0.8,4.9c-0.3-0.3-0.5-0.5-0.8-0.8c0.1-0.6,0-1.2-0.6-1.6c-0.2-1.4-0.3-2.8-0.3-4.2   c-0.2,0-0.4-0.1-0.5-0.1c-2.7,7,2.3,14.6,6.1,20.1c1.8,0.4,2.9-1.7,4.7-0.7c-1.7,3.1-2.5,6.3-2.4,9.7c-0.4-0.1-0.9-0.2-1.5-0.3   C471.9,85.4,471.9,83.8,471.9,82.2z" />
	<path display="inline" fill="#675950" d="M476.5,56.4c-1.3-2.6-4.1-2.2-6.1-3.8c2.5-0.3,4.9,0,6.5,2c2.3-0.2,2,1.3,2,2.7   C478,56.5,477.4,54.8,476.5,56.4z" />
	<path display="inline" fill="#1B1D1D" d="M466.2,45.3c-0.1-0.2-0.3-0.4-0.6-0.8c0.8-0.4,1.6-0.9,2.3-1.3   C469,43.9,467.1,45.3,466.2,45.3z" />
	<path display="inline" fill="#1F2222" d="M491.9,28.5c-0.9-0.9-1.6-1-0.9-2.1C492.3,26.6,491.9,27.1,491.9,28.5z" />
	<path display="inline" fill="#2D3232" d="M475.1,26.1c-0.8,0.7-1.1,0.8-1.5-0.1C474,25.2,474.4,25.7,475.1,26.1z" />
	<path display="inline" fill="#112B18" d="M301.7,348.9c6.4,0.5,12,1.4,18.6,2.6c-6.3,1.7-12.2-1.2-18.5-1.7   C301.8,349.5,301.7,349.2,301.7,348.9z" />
	<path display="inline" fill="#226138" d="M327.8,352.7c5.8,0.3,11.3,1.4,17.8,3C339.3,356.2,333.9,354,327.8,352.7z" />
	<path display="inline" fill="#215B34" d="M301.7,348.9c0,0.3,0,0.5,0,0.8c-0.9-0.3-1.8-0.5-2.9-0.8   C300.1,347.8,300.9,348,301.7,348.9z" />
	<path display="inline" fill="#B28C7D" d="M431.4,76.6c0.3-0.2,0.5-0.5,0.7-0.6c7.6,7.5,16.4-2.3,23.7-5.7c3.6,5.5,8.3,10.5,15.2,11   c-0.8,1.7-0.9,3.9-2.2,5.2c-0.2,0-0.5,0.1-0.7,0.1c-2.3-1.2-3.1,6.7-3.3,8.5c1.6,1.2,1,2.8,0.5,4.5c-2.7-0.8-3.9,6.8-1.8,4.9   c1.9,5.1-1,25.4,8.6,22.6c0.2,0.2,0.4,0.5,0.7,0.8l0,0C450.3,146.6,437.9,89.7,431.4,76.6z M460.7,109.7c0-0.9,0-1.8,0-2.9   C459.2,107.9,459.2,107.9,460.7,109.7z M457.9,114.9c-0.3,0-0.5,0-0.8,0c0.1,0.5,0.2,1.1,0.3,1.6c0.2,0,0.3,0,0.5,0   C457.8,116,457.8,115.5,457.9,114.9z" />
	<path display="inline" fill="#977264" d="M468.1,86.6c0.2,0,0.5-0.1,0.7-0.1c1.3-1.3,1.4-3.6,2.2-5.2c0.3,0.3,0.6,0.6,0.9,0.9   c0,1.6,0,3.2,0,5c0.6,0.1,1,0.2,1.5,0.3c0,0.5,0,1.1,0,1.6c-2.5-0.4-1.1,3.8,0.2,1.4c0.3,12.9,6.8,14.8,15.1,24.6   c-4.6,3.2-11.3,4.8-15.3,8.9c-0.4,0.1-0.8,0.1-1.5,0.2c0.8,0.7,1.2,0.5,1.4-0.2c0.7-0.1,1.4-0.2,2.4-0.3c0,2.2-1.5,3.3-3,4.3   c-0.2-0.3-0.5-0.5-0.7-0.8c-1.2,0-2.3,1.6-3.4-0.1c0.6-0.3,1.3-0.5,1.1-1.4c-1.3-0.2-1,0.7-1.1,1.4c-6.2-5.5-3.2-15.5-5.2-22.5   c0.7-1.5,0.8-3.1,0.6-4.7c0.4-0.1,0.7-0.1,1.2-0.2c0.2-1.3,1.3-2.7,0.2-3.8C466.7,92.9,468.4,89.9,468.1,86.6z" />
	<path display="inline" fill="#977264" d="M471.9,128.7c0.3-0.3,0.5-0.5,0.8-0.8C472.4,128.2,472.2,128.4,471.9,128.7z" />
	<path display="inline" fill="#977A6E" d="M544,77.4c-0.6,2.8-1.9,5.7-4.8,6.9C540.4,81.2,540.9,78.4,544,77.4z" />
	<path display="inline" fill="#4A4543" d="M540.9,83.5c0.3-0.2,0.5-0.5,0.8-0.7C541.4,83,541.2,83.2,540.9,83.5z" />
	<path display="inline" fill="#937163" d="M518.5,119.2c-0.7,0.1-1.4,0.1-1.6-0.7c1.2-0.9-3.9-3.2-4.7-4.5c1-0.3,2-0.6,3-0.9   c3.5,2.8,7.6,0.4,11.4,0.8C527.4,120,521.7,117.6,518.5,119.2z" />
	<path display="inline" fill="#906E61" d="M515.3,111.5c1.5,0.3,2.7-0.5,4-1.1c3.5-2.2,6.8,0.2,10.9-0.8c-0.6,0.9-1.1,1.7-1.6,2.6   c-4,1.3-8.4,1.2-12.4,0.2C515.8,112.1,515.6,111.8,515.3,111.5z" />
	<path display="inline" fill="#2E1412" d="M515.3,111.5c0.3,0.3,0.5,0.6,0.8,0.9c-1,1.1-2.6,1.2-3.9,1.6c-0.9-0.8-0.9-0.8,0-1.8   c0.8-0.1,1.8,0.4,2.4-0.7l0,0C514.8,111.5,515.2,111.5,515.3,111.5C515.3,111.5,515.3,111.5,515.3,111.5z" />
	<path display="inline" fill="#906E61" d="M515.3,111.5c-0.2,0-0.6,0-0.8,0c0.3-0.3,0.5-0.5,0.8-0.8   C515.3,111,515.3,111.3,515.3,111.5z" />
	<path display="inline" fill="#D3D0DA" d="M359.5,204.6c-5.8-1.1-7.3-8.3-7.1-13.9c0.6-0.6,1.6-1.4,2.5-2.3   c6.8-0.9,10.7,12.7,5.9,17C360.3,205.1,359.9,204.9,359.5,204.6c0.4,0,0.8,0,1.5-0.1c-0.2-0.8-0.3-1.4-0.4-1.9   C359.3,202.8,359.4,203.7,359.5,204.6z M355.9,188.7c-0.9,3-1.8,6,0.9,7.3C357,193.5,357.5,191.4,355.9,188.7z M360.2,201.6   c-0.6-1.5-0.5-2.8-2-3.1C358,200.6,358,200.6,360.2,201.6z" />
	<path display="inline" fill="#101010" d="M369.6,111.4c0.3,0.2,0.7,0.4,0.9,0.5c-0.5,4-1,7.9-1.5,12   C366.1,121.4,367.4,114.5,369.6,111.4z" />
	<path display="inline" fill="#271F20" d="M419.4,97.4c-4.2-0.6-6.1-3.1-10.3-4.3C412.5,90.7,416.9,94.5,419.4,97.4z" />
	<path display="inline" fill="#161617" d="M370.7,124c1.4,3.2,0.5,6.5,1.4,9.6C368.2,135,370.1,126.2,370.7,124z" />
	<path display="inline" fill="#423C3E" d="M476.3,135c-1,2-2.9,2.5-5.1,3.8C471.3,136,474.1,135.6,476.3,135z" />
	<path display="inline" fill="#0D0808" d="M375.1,140.6c-1.5-2-1.7-4.4,0.2-6.2c0.3,2.2,0.5,4,0.7,5.8   C375.7,140.3,375.4,140.5,375.1,140.6z" />
	<path display="inline" fill="#636063" d="M365.1,149c-0.7-1.8-2.2-2.8-1.1-4.7C366,145.3,366.5,147.1,365.1,149z" />
	<path display="inline" fill="#362829" d="M353.8,177.5c-3.5,0.2-0.2-3,1.5-3.2C355.9,176.1,354.1,176.5,353.8,177.5z" />
	<path display="inline" fill="#251D1E" d="M437.3,148.6c-0.3,1.8-0.1,3.3-2,3.7C435.3,149.9,435.3,149.9,437.3,148.6z" />
	<path display="inline" fill="#201C1D" d="M484.1,132c-1.1,0.7-1.9,1.6-3.4,1.1C481.8,131.3,482.5,131,484.1,132z" />
	<path display="inline" fill="#291B1C" d="M359.5,204.6c-0.1-0.9-0.2-1.8,1.1-2c0.1,0.6,0.2,1.1,0.4,1.9   C360.3,204.6,359.9,204.6,359.5,204.6L359.5,204.6z" />
	<path display="inline" fill="#756A6C" d="M437.3,145.7c-0.6-1-0.7-1.7,0.6-2.4C438.6,144.4,438.7,145.2,437.3,145.7z" />
	<path display="inline" fill="#5D5F62" d="M380.5,146.7c-2.3-0.9-2.1-1.9-1.7-3.6C379.4,144.4,379.8,145.2,380.5,146.7z" />
	<path display="inline" fill="#35191A" d="M398.6,91.4c1.4-0.1,2.1-0.1,3-0.2C400.3,92.6,400.3,92.6,398.6,91.4z" />
	<path display="inline" fill="#5A4F52" d="M461.7,187.2c-0.2,0.8-0.5,1.3-1.4,1.4C459.7,187.6,460.9,186.6,461.7,187.2z" />
	<path display="inline" fill="#4E5355" d="M382.1,150.2c-0.5-0.6-0.9-1.2-1.4-1.8C382.4,148.3,382.5,148.4,382.1,150.2z" />
	<path display="inline" fill="#49292C" d="M346.8,179.8c-1.3-1.1,1.3-2.4,1.5-0.8C347.8,179.3,347.3,179.5,346.8,179.8z" />
	<path display="inline" fill="#2E1A1A" d="M488.7,129.2c-0.6,0.2-1.2,0.4-1.8,0.5C486.9,128.5,486.9,128.5,488.7,129.2z" />
	<path display="inline" fill="#9A9196" d="M362.6,140.4c0.4,0.4,0.7,0.6,1.2,1C362.6,141.5,362.6,141.5,362.6,140.4z" />
	<path display="inline" fill="#453A3B" d="M507.5,136.9c-0.1,0.7-0.1,1.1-0.1,1.4C506.5,138.4,506.6,137.6,507.5,136.9z" />
	<path display="inline" fill="#4E4B4D" d="M508.4,147.6c-0.2,0.1-0.4,0.1-0.6,0.1c0-0.3-0.1-0.7,0.3-0.8   C508.2,147.1,508.3,147.3,508.4,147.6z" />
	<path display="inline" fill="#433435" d="M348.3,200c-1.1-0.2-1.2-1.4,0-1.5C348.3,199,348.3,199.5,348.3,200z" />
	<path display="inline" fill="#967264" d="M467.2,346.7c-0.4-0.1-0.9-0.2-1.5-0.3c0-1.6,0-3,0-4.5c0.4,1.2,0.7,2.4,1.1,3.7   c1.3-1.5,1.7-6.8-0.3-8.1c0.5-0.8,1.1-1.6,1.6-2.4c1.4,0,2.6,0,3.9,0c4.9,3.2,9.8,19.5,2.9,22.3c-1.4-0.6-2.8-1.2-4.3-1.8   c-0.4-1.1-0.8-2.3-1.2-3.5c1.2-0.7,0.8-1.7,0.6-2.8c-0.5,0.2-0.9,0.4-1.4,0.5c-0.3-0.3-0.6-0.6-0.8-0.8   C468.9,347.1,468.9,347.1,467.2,346.7z M471.3,354.9c0.1,0,0.2,0,0.4,0c0-0.5,0-1.1,0-1.6c-0.1,0-0.2,0-0.4,0   C471.3,353.8,471.3,354.4,471.3,354.9z" />
	<path display="inline" fill="#372C27" d="M448,416.9c-0.8-4.3-0.5-7.2,0.9-11C450.5,405.6,449.7,417.2,448,416.9z" />
	<path display="inline" fill="#060505" d="M466.5,337.5c2,1.3,1.6,6.6,0.3,8.1c-0.4-1.7-1.2-3.2-1.1-5   C466.7,339.8,466.2,338.5,466.5,337.5L466.5,337.5z" />
	<path display="inline" fill="#241C19" d="M438.2,382.3c0.8,2.7-0.6,4.7-0.8,7.4C434.7,387.6,436.6,384.7,438.2,382.3z" />
	<path display="inline" fill="#251C19" d="M464.9,491.3c1.6,2,2,4.2,2.2,6.7C464.8,497.3,464.8,493.5,464.9,491.3z" />
	<path display="inline" fill="#443631" d="M465.3,485.9c-1.6-1.3-1.3-2.9-1.1-4.8C466.3,482.5,465.5,484.2,465.3,485.9z" />
	<path display="inline" fill="#12110F" d="M437.3,393.9c-0.2,1.9-0.3,3.9-0.5,5.8C435.8,397.6,435.4,395.6,437.3,393.9z" />
	<path display="inline" fill="#58453D" d="M437.4,402.8c0.4,1.5,0.6,2.5-0.2,3.6C435.8,404.8,435.8,404.8,437.4,402.8z" />
	<path display="inline" fill="#41352F" d="M449.1,427.2c-1.6-1.4-1.6-1.4-0.7-3.5C450.1,423.7,449,426,449.1,427.2z" />
	<path display="inline" fill="#4F3D37" d="M457,318.3c-1.1,0.6-2,0.5-3.1-0.3C455.9,316.9,455.9,316.9,457,318.3z" />
	<path display="inline" fill="#6B5349" d="M468.7,349.8c0.4-0.2,0.9-0.3,1.4-0.5c0.2,1.2,0.6,2.2-0.6,2.8   C468.4,351.7,468.8,350.6,468.7,349.8z" />
	<path display="inline" fill="#483631" d="M449.6,431.3c0.6,1,0.8,1.8-0.6,2.3C448.4,432.6,448.2,431.8,449.6,431.3z" />
	<path display="inline" fill="#3D2D28" d="M461.8,320.7c-1.2-0.7-1.7-1-2.3-1.3C461.1,318.6,461.1,318.6,461.8,320.7z" />
	<path display="inline" fill="#796056" d="M438,412.3c0.7,0.5,0.1,1.1-0.1,1.8C436.6,413.8,437.3,412.6,438,412.3z" />
	<path display="inline" fill="#5D4C43" d="M467.2,346.7c1.7,0.4,1.7,0.4,0.7,2.3C466.8,348.5,467.3,347.5,467.2,346.7z" />
	<path display="inline" fill="#967264" d="M466.5,337.5c-0.3,1.1,0.1,2.3-0.8,3.2C465.7,339.4,465.3,338.2,466.5,337.5z" />
	<path display="inline" fill="#463832" d="M449.4,442.6c0.3-0.6,0.2-1.4,1.1-0.8c-0.2,0.4-0.4,0.7-0.6,1.1   C449.7,442.7,449.5,442.7,449.4,442.6z" />
	<path display="inline" fill="#977164" d="M550.3,319.7c6.8-6.3,13.8,5.1,9.7,11.3c-0.6,0.1-1.2,0.1-1.9,0.2   C557.4,326.8,553.5,322.8,550.3,319.7z" />
	<path display="inline" fill="#0E0B0A" d="M543.7,388.4c-0.6-3-3.8-8.7-0.3-10.6C545.2,379.1,547.7,388.8,543.7,388.4z" />
	<path display="inline" fill="#0E0908" d="M550.3,319.7c2.1,2,5.1,4.9,6.1,7.6c-0.8,0-1.5,0-2.3,0   C551.4,325.5,549.8,323.1,550.3,319.7z" />
	<path display="inline" fill="#1A1412" d="M526.9,508c-0.6,0-1.2,0-2.1,0c0.1-2.6-1.1-5.2,1.3-7.7c0.6,0.7,1.1,1.2,1.6,1.7   C527.7,504.1,527.9,506.1,526.9,508z" />
	<path display="inline" fill="#080605" d="M542,399.6c-1.2-3.1-1-6-1-9C543.6,391.5,544.4,398.1,542,399.6z" />
	<path display="inline" fill="#181110" d="M543.6,312.7c4,1.8,0.4,9.1-2.8,7.9C543,317.9,543.5,316.7,543.6,312.7z" />
	<path display="inline" fill="#1A1311" d="M564.8,352.9c-2.1-1-2-4.7-1.9-7C565.1,347.2,565.4,348.5,564.8,352.9z" />
	<path display="inline" fill="#1E1916" d="M537.3,324.6c-0.6-2,0.4-4.6,2.4-5C540.4,322.5,539.7,323.8,537.3,324.6z" />
	<path display="inline" fill="#2B2522" d="M554.1,327.3c0.8,0,1.5,0,2.3,0c1.2,1.6,2.8,3.5,0.7,5.3C555.7,331,555.1,329,554.1,327.3   z" />
	<path display="inline" fill="#020100" d="M538.9,409.8c-1.8-2.2-1-5.2,0.1-6.9C539.9,405.5,539.9,407,538.9,409.8z" />
	<path display="inline" fill="#221916" d="M543.7,369.8c1.5,1.6,2.7,3.3,1.6,5.4C543.7,373.5,543.4,372.4,543.7,369.8z" />
	<path display="inline" fill="#443630" d="M552.2,312.5c0.4,2.2-1.2,3.3-1.3,5C549.9,314,550,313.9,552.2,312.5z" />
	<path display="inline" fill="#322723" d="M532.4,326.5c0.5-1.1,0.7-2.1,2-2.2C535.6,325.5,533.6,328.1,532.4,326.5z" />
	<path display="inline" fill="#2E231F" d="M542.5,503c0.9,1.9,1.1,3-0.4,4.2C541.4,505.8,541.4,504.7,542.5,503z" />
	<path display="inline" fill="#30221E" d="M542.5,362c1.8,0.8,2.3,1.8,2.4,3.4C543.4,364.7,542.7,363.9,542.5,362z" />
	<path display="inline" fill="#0B0606" d="M533.9,419.4c0,1.3,0,2.2,0,3.6C532.8,421.7,532.9,420.8,533.9,419.4z" />
	<path display="inline" fill="#231311" d="M536.1,413.5c0.1,1,0.1,1.8,0.2,3.2C535.2,415.3,535.2,414.6,536.1,413.5z" />
	<path display="inline" fill="#5E4740" d="M530.8,327.6c-0.4,0.4-0.7,0.8-1.1,1.2C529.6,327.6,529.6,327.6,530.8,327.6z" />
	<path display="inline" fill="#181715" d="M561,341.4c0,0.6,0,1.3,0,1.9c-0.2,0-0.4,0-0.5,0c0-0.6,0-1.3,0-1.9   C560.7,341.4,560.9,341.4,561,341.4z" />
	<path display="inline" fill="#5C3E37" d="M544,498.3c-0.2,0.1-0.3,0.1-0.5,0.2c0-0.3-0.2-0.7,0.3-0.8   C543.8,497.9,543.9,498.1,544,498.3z" />
	<path display="inline" fill="#060408" d="M359.1,270.5c-21.3,4.5-44.6,12-51.1,35c-2.6-5,3.8-10.2,4.2-15.3   c11.5-12.2,29.7-18.6,46.2-20.5C358.6,270,358.9,270.3,359.1,270.5z" />
	<path display="inline" fill="#030204" d="M331.4,266.9c0.2,0,0.3,0,0.5,0c-2,5.8-12.4,9.6-16.7,3.8c-5.9,1-10.3,4.9-15.4,7.5   c0-6.2,11-8.3,15.9-10.6C320.2,271.3,326.7,269.5,331.4,266.9z" />
	<path display="inline" fill="#09060B" d="M377,275.2c-14.5,3.7-29.5,8.5-41.2,17.9l0,0c-3.7,1.9-6.5,4.9-9.6,7.7   c7.1-14.6,33.4-23.2,49.2-26.3C375.9,274.6,376.5,274.9,377,275.2z" />
	<path display="inline" fill="#040307" d="M298.7,289.6c-0.2,2.6-0.3,5-1.4,7.6c-3-3.4,0.7-8.2-1.3-11.8c3.6-2.7,7.4-3.6,11.4-4.3   c0.8-0.7,0.3-2.4,2.1-2.7c1.1,1.2,0.1,3.3,0,4.5C306,285.6,301.6,286,298.7,289.6z" />
	<path display="inline" fill="#0A060D" d="M319.5,335.2c-0.5-0.3-0.8-0.4-1.1-0.6c4.4-8.6,16.6-10.5,23.8-16.6   C339.2,325.8,324.6,327.4,319.5,335.2z" />
	<path display="inline" fill="#21182C" d="M351.3,296.2c6.3-7.1,15.6-14,25.1-14.2c-9.4,3-17.3,8-24.1,15.1   C351.9,296.8,351.6,296.5,351.3,296.2z" />
	<path display="inline" fill="#201832" d="M369.4,327.3c-5.7,4.5-13.8,15.1-20.4,16.1C356.3,338.8,361.4,331,369.4,327.3   L369.4,327.3z" />
	<path display="inline" fill="#130E1A" d="M332.9,265c3.2-3.7,9.6-4.1,14-1.6c-0.3,0.4-0.6,0.8-0.9,1.1c-3.5,0.5-7.9-1.1-10.9,0.7   c-0.2,0-0.5,0-0.7,0.1C333.9,265.2,333.4,265.1,332.9,265z" />
	<path display="inline" fill="#0D0812" d="M337.5,336.6c-3.5,2.9-7.6,3.6-12.6,4.1c2.1-2,6.7-3.9,11.6-5   C336.9,336,337.2,336.3,337.5,336.6z" />
	<path display="inline" fill="#120D1C" d="M327.6,294.7c-0.2-4.5,4.2-8.3,7.4-10.1C332.2,288,331,292.8,327.6,294.7z" />
	<path display="inline" fill="#271D3E" d="M360.3,348.9c0-0.6-0.1-1,0-1c4.8-2.1,7.4-5.6,12.9-7C370.7,343.1,363,347.9,360.3,348.9z   " />
	<path display="inline" fill="#0F0812" d="M402.5,363.1c-2.8,1.5-5.8,3.8-8.1,1.9C396.9,362.7,400.7,362.7,402.5,363.1z" />
	<path display="inline" fill="#241832" d="M337.5,336.6c-0.3-0.3-0.6-0.6-0.9-0.9c2.7-1.8,6-2.4,9.3-3.8   C344.3,335.8,340.3,334.6,337.5,336.6z" />
	<path display="inline" fill="#201A38" d="M377.1,356.3c-1.6,0.7-3,0.4-4.3,0.3C372.2,354.5,376.4,354.8,377.1,356.3z" />
	<path display="inline" fill="#6D5CA9" d="M337.5,264.5c2.3,0,4.6,0,6.9,0C342.4,265.7,339.2,265.6,337.5,264.5z" />
	<path display="inline" fill="#372D60" d="M383.5,358.1c1.9-0.6,1.9-0.6,2.6,0.6C385.3,359.4,383.5,359.4,383.5,358.1z" />
	<path display="inline" fill="#090306" d="M389.2,361c1.6-0.4,3.1-0.8,5,0.1C392.3,361.8,390.7,361.6,389.2,361z" />
	<path display="inline" fill="#201832" d="M369.3,327.3c0.4-0.8,0.8-1.5,2.1-1.2C371,327,370.3,327.3,369.3,327.3L369.3,327.3z" />
	<path display="inline" fill="#6D5CA9" d="M334.4,265.3c0.6-0.3,1.2,0,1.8,0.1C335.4,266,335.4,266,334.4,265.3z" />
	<path display="inline" fill="#0B0606" d="M403.6,262.8c-3.5-2.4-6.1-4-4.3-9c0.3,0.1,0.9,0.2,0.9,0.4c0.5,4,3.9,5.4,6.4,7.8   c-0.3,0.3-0.7,0.7-1,1C405,262.9,404.3,262.9,403.6,262.8z" />
	<path display="inline" fill="#271C19" d="M403.2,270.7c-0.8-1.4-1.7-2.8-2.6-4.3c2.1-3.1,4.9,5.3,6.5,6.7   C405.9,274.5,404.4,271.3,403.2,270.7z" />
	<path display="inline" fill="#221513" d="M405.7,263c0.3-0.3,0.7-0.7,1-1c3,1.2,4.5,2.8,7,5.3C409.9,268.2,409,263.6,405.7,263z" />
	<path display="inline" fill="#191614" d="M390.3,217.1c0.3-0.4,0.6-0.8,0.9-1.2c1.4,1,0.4,3.5,0.7,5.1c-0.2,0.2-0.4,0.4-0.6,0.7   c-0.2-1.3-0.4-2.6-0.9-3.9C390.4,217.5,390.4,217.3,390.3,217.1z" />
	<path display="inline" fill="#3B2622" d="M420.5,269.2c1.1,0.5,2.2,0.9,2.4,2.4C419.9,270.9,419.9,270.9,420.5,269.2z" />
	<path display="inline" fill="#42302B" d="M418.7,232.6c2.2,0.4,2.2,1.6,2.5,2.6C419.7,236.4,419.6,234,418.7,232.6z" />
	<path display="inline" fill="#977264" d="M390.3,217.7c0.5,1.2,0.8,2.5,0.9,3.9C389.7,220.8,390.4,219.2,390.3,217.7z" />
	<path display="inline" fill="#533C35" d="M421.1,282c0.6,0.5,1.1,0.9,1.7,1.5C420.8,283.7,420.8,283.7,421.1,282z" />
	<path display="inline" fill="#382723" d="M409.8,275.2c0.8,0.8,1.4,1.3,2.1,2C410.1,277.3,410.1,277.3,409.8,275.2z" />
	<path display="inline" fill="#523530" d="M417.6,226.6c0.2,0.3,0.3,0.6,0.5,0.9c-0.3,0.1-0.6,0.3-0.9,0.4   C417,227.2,416.6,226.8,417.6,226.6z" />
	<path display="inline" fill="#654B43" d="M415.1,268.5c-0.4-0.7-0.9-1.1-0.2-1.5C415.8,267.3,415.8,267.5,415.1,268.5z" />
	<path display="inline" fill="#1B1210" d="M417,281.1c-0.6-0.3-1.2-0.4-0.9-1.3C417.3,280.1,417.3,280.1,417,281.1z" />
	<path display="inline" fill="#2F1A18" d="M428.4,286.1c0.4,0.4,0.9,0.7,0.3,1.2c-0.3-0.2-0.5-0.4-0.8-0.7   C428,286.5,428.1,286.3,428.4,286.1z" />
	<path display="inline" fill="#090605" d="M518.3,75c3.5-3,16-3.5,15.5,3.3c-4.5-2-9.1-4.6-13.9-2.4C519.4,75.7,518.6,75.9,518.3,75   z" />
	<path display="inline" fill="#85675A" d="M475.8,59.3c1.3,1.9,1.7,4.1,1.5,6.3c-4.1-0.2-4,1-3.9,4.7c-0.9,0.1-1.9-0.3-2.4,0.8   c-1-1.5-1-1.8,0.1-3.1c0.1,0.7,0.1,1.6,1.5,1.2c-0.6-0.5-1-0.9-1.5-1.2c0.4-3.8-0.9-4.2,3.7-5C475.1,61.8,475.8,60.6,475.8,59.3z" />
	<path display="inline" fill="#1C1412" d="M526.6,87.1c-2.9,2-5.8,0.8-8.5,0.4c-1.1-1-2.2-1.9-3.2-2.9c1.5-0.9,2.6,0,3.7,0.4   C521.2,86.7,524.4,84.9,526.6,87.1z" />
	<path display="inline" fill="#503B34" d="M480.3,106.1c-2.3-3-8.3-8.8-6.1-12.5c1.4,4.4,3.5,8.4,7.2,11.4   C481,105.4,480.6,105.8,480.3,106.1z" />
	<path display="inline" fill="#4C3B35" d="M471,65.7c0.6,0.7,0.3,1.5,0.1,2.3c-1.9,1.7,0.2,3.3,1,5.2c-3.2,1.6-2.8-6.7-4.9-8.2   c0-0.3,0-0.6,0.1-0.9c1.3,0.8,2,1.5,2.8,3c0.2-0.7,0.2-1,0.3-1.4C470.6,65.7,470.8,65.7,471,65.7z" />
	<path display="inline" fill="#2B1F1C" d="M473.4,70.3c-0.1-3.6-0.2-4.8,3.9-4.7l0,0c0.1,0.3,0.1,0.5,0,0.8   c-0.8,0.3-1.6,0.6-2.1,0.8c-1,1.9,1,4-1.1,5.5C473.8,71.8,473.6,71.1,473.4,70.3z" />
	<path display="inline" fill="#3F302A" d="M526.3,84.7c0.6-2.1,1.2-4.2,2-6.8C529,80.9,528.4,83.1,526.3,84.7z" />
	<path display="inline" fill="#856D61" d="M518.3,75c0.2,0.9,1,0.7,1.6,0.8c-1.2,1.2-2.4,0.7-3.8,0.4   C516.5,74.7,517.6,75.1,518.3,75z" />
	<path display="inline" fill="#2E2521" d="M545.7,60.7c0.7-0.7,1.3-1.2,2-1.8C548,61,547.9,61.1,545.7,60.7z" />
	<path display="inline" fill="#513D35" d="M473.6,90.5c-1.4,2.4-2.8-1.9-0.2-1.4C473.4,89.5,473.5,90,473.6,90.5z" />
	<path display="inline" fill="#4E3832" d="M542.3,61.9c0.2-1.4,0.9-1.9,2.4-1.3C543.7,61.1,543,61.5,542.3,61.9z" />
	<path display="inline" fill="#735D52" d="M464.2,61.1c0.3-0.9,0.5-1.9,0.8-2.8c0.2,0,0.4,0.1,0.5,0.1c0,0.7,0,1.4,0,2   C465,60.6,464.6,60.9,464.2,61.1z" />
	<path display="inline" fill="#42332E" d="M539.2,61.6c-0.5,0.1-1.1,0.1-1.8,0.2C538,60.4,538.6,61.4,539.2,61.6z" />
	<path display="inline" fill="#906E61" d="M514.6,111.5c-0.5,1.1-1.5,0.6-2.4,0.7C512.7,111.1,513.7,111.6,514.6,111.5z" />
	<path display="inline" fill="#724C44" d="M536,61.4c-0.3,0.3-0.6,0.4-0.9,0C535.4,61,535.7,61.3,536,61.4z" />
	<path display="inline" fill="#85675A" d="M478.7,62.7c-0.2-0.6-0.4-1.1-0.6-1.7C478.9,61.4,478.9,62,478.7,62.7z" />
	<path display="inline" fill="#2E1F1C" d="M516.9,117.7c0.6,0.3,0.6,0.5,0,0.8C516.2,118.2,516.2,118,516.9,117.7z" />
	<path display="inline" fill="#4C3B35" d="M465.8,62.6c0.7,0.3,0.7,1,0.6,1.6C465.7,63.8,465.6,63.2,465.8,62.6z" />
	<path display="inline" fill="#85675A" d="M477.3,66.5c0.1-0.3,0.1-0.5,0-0.8c0.2,0,0.5,0,0.7-0.1C477.8,65.9,477.5,66.2,477.3,66.5   z" />
	<path display="inline" fill="#85675A" d="M478.2,65c0.2-0.3,0.4-0.6,0.6-0.9C478.6,64.4,478.4,64.7,478.2,65z" />
	<path display="inline" fill="#100C0F" d="M411.2,538.4c0.9-0.9,1.9-1.8,3.1-2.3c-0.1,0.5-0.1,1-0.2,1.6c-0.2,0.3-0.4,0.5-0.6,0.8   l0,0c-20.6,8.1-44.2,12.4-66,17.5c0.2-1.6,1.5-1.6,2.4-1.9C370.4,548.9,390.9,543.8,411.2,538.4z" />
	<path display="inline" fill="#12151A" d="M412,540c0.5-0.5,1.1-1,1.6-1.5C413.6,539.5,413.1,540.1,412,540z" />
	<path display="inline" fill="#12151A" d="M413.6,538.5c0.2-0.3,0.4-0.5,0.6-0.8C414,537.9,413.8,538.2,413.6,538.5z" />
	<path display="inline" fill="#3F335D" d="M382.6,269.7c-3-1.9-6.4-1.3-10.2-1.5c4.2-2.8,7.7-0.6,11.8,0.7   C383.7,269.2,383.1,269.5,382.6,269.7z" />
	<path display="inline" fill="#2A203B" d="M377,275.2c-0.5-0.3-1.1-0.5-1.6-0.8c3-0.8,6.4-1.7,9.6-1.1   C382.9,275.5,379.7,274.5,377,275.2z" />
	<path display="inline" fill="#251E37" d="M362.7,268.7c2.6-1.4,5.5-1.4,8.3-1.9C370.7,270.1,365.2,268.9,362.7,268.7z" />
	<path display="inline" fill="#1F1221" d="M382.6,269.7c0.5-0.3,1-0.5,1.6-0.8c1.2,0.3,2.9-0.3,3.6,1.5   C385.9,271.3,384.3,270.1,382.6,269.7z" />
	<path display="inline" fill="#382B4F" d="M359.1,270.5c-0.2-0.3-0.5-0.5-0.7-0.8c1.4-0.6,1.4-0.6,3.1-0.2   C361.2,271.1,360,270.5,359.1,270.5z" />
	<path display="inline" fill="#544492" d="M335.8,293.1c0.3-0.3,0.5-0.6,0.8-0.8C336.4,292.5,336.1,292.8,335.8,293.1z" />
	<path display="inline" fill="#312D2F" d="M346.5,197.7c-2.1-0.2-1.7-3.1,0.1-4C347,195.1,347.1,196.4,346.5,197.7z" />
	<path display="inline" fill="#2C201C" d="M500.6,227.2c-0.8-0.8-1.6-1.5-2.4-2.3c1-1.4,1.7-0.1,2.4,0   C500.9,225.5,501.8,226.9,500.6,227.2z" />
	<path display="inline" fill="#16110F" d="M516,229.2c-0.3,1.1-0.4,1.6-1.1,2.6c-0.6-1.1-0.5-2,0-2.9   C515.2,228.9,515.6,229,516,229.2z" />
	<path display="inline" fill="#2F1D1A" d="M515.8,346c-2.4,1.4-3.9-0.7-6.2,0.3C511.4,343.9,512,343.9,515.8,346z" />
	<path display="inline" fill="#1F1815" d="M524.6,491.4c2.3,0.9,1.7,2.5,1.4,4.5C524.1,494.8,524.9,493.2,524.6,491.4z" />
	<path display="inline" fill="#281D1A" d="M519.9,344.7c-0.8,0.7-1.5,0.6-2.1-0.4C519.1,343.3,519.1,343.3,519.9,344.7z" />
	<path display="inline" fill="#1D110F" d="M524.9,485.5c0-0.4,0-0.8,0-1.2c0.1,0,0.2,0,0.3,0c0,0.4,0,0.8,0,1.2   C525.1,485.5,525,485.5,524.9,485.5z" />
	<path display="inline" fill="#2A231E" d="M525.3,479.8c-0.1,0.1-0.2,0.2-0.3,0.3c-0.1-0.1-0.1-0.2-0.2-0.3   C525,479.8,525.1,479.8,525.3,479.8z" />
	<path display="inline" fill="#0A0807" d="M438.1,365.6c-1.8-5.1-10.6-4-10.2-9.4C432.4,355.2,440,360.2,438.1,365.6z" />
	<path display="inline" fill="#140F0D" d="M425.6,356.7c-1.4-0.7-2.8-1.3-4.1-2C422.8,352.3,427.4,354,425.6,356.7z" />
	<path display="inline" fill="#0C0706" d="M442.4,500.2c-0.3-1.7-0.4-3.3,0-4.9C444.7,495.9,444,498.9,442.4,500.2z" />
	<path display="inline" fill="#0D100E" d="M409.3,350.4c0.9-2.1,3.1-1.6,4.9-0.1C412.5,350.9,410.9,350.6,409.3,350.4z" />
	<path display="inline" fill="#59433B" d="M443.8,479.9c-1.9-1.5-2-2.8-0.3-4.1C444.2,477.1,443.9,478.4,443.8,479.9z" />
	<path display="inline" fill="#775A4F" d="M444.4,469.1c-1.8-1-1.2-2.1-1.1-3.9C445.1,466.5,444.5,467.4,444.4,469.1z" />
	<path display="inline" fill="#45342D" d="M443.5,490.9c-1.6-1.2-1.7-2.5,0-3.6C444.1,488.6,444.1,489.7,443.5,490.9z" />
	<path display="inline" fill="#181512" d="M420.3,352.9c-1.6,0.6-1.6,1-2.9,0.2C417.9,351.7,418.8,351.9,420.3,352.9z" />
	<path display="inline" fill="#0B0707" d="M380.1,208.7c-5.7-1.2-7-10-3.8-14.3c1.4,3.3,0.8,6.2,2.3,9.4   C379.1,205.2,380.4,206.3,380.1,208.7z" />
	<path display="inline" fill="#1C1311" d="M385.4,212.5c-2.4-0.4-5.1-6.9-2.5-7.6C384.5,207.1,385.3,209.5,385.4,212.5z" />
	<path display="inline" fill="#674D44" d="M389.5,215.2c-1.7-1.3-2.2-2.1-1.9-3.5C389.2,212.1,388.6,213.2,389.5,215.2z" />
	<path display="inline" fill="#1A1411" d="M487,255.7c-1.5-1.1-2.7-2.2-2.1-4.4C487.3,253.7,487.3,253.7,487,255.7z" />
	<path display="inline" fill="#221714" d="M489.8,253.9c0.6,1.3,1,2.2,1.5,3.4C488.8,257.5,488.1,256.1,489.8,253.9z" />
	<path display="inline" fill="#322420" d="M494.8,217.3c0.3,1,0.7,2,1.1,3.2c-1.9-1-1.9-1-2.7-3.1C493.8,217,494.1,217,494.8,217.3z   " />
	<path display="inline" fill="#48312B" d="M493.9,258.6c0.6,0.3,0.4,0.5,0.1,0.9C493.6,259.3,493.8,259,493.9,258.6z" />
	<path display="inline" d="M586.8,299.4c-0.3,0.7-0.9,0.7-1.5,0.7C585.8,299.8,586.3,299.6,586.8,299.4z" />
	<path display="inline" fill="#464043" d="M458.7,191.6c-1.1,2-2.4,3.1-4.2,3.6C454.7,193,455.9,191.9,458.7,191.6z" />
	<path display="inline" d="M546.4,303.2c-0.3,0.5-0.5,1.1-0.8,1.6c-0.6,0-1.2,0-2.5,0C544.5,303.8,545.3,303.2,546.4,303.2z" />
	<path display="inline" fill="#101011" d="M540.2,292.4c-0.3,0.3-0.5,0.5-0.8,0.8l0,0C539.7,292.9,539.9,292.6,540.2,292.4   L540.2,292.4z" />
	<path display="inline" d="M542.5,305.6c-0.3-0.3-0.5-0.5-0.8-0.8C542,305,542.3,305.3,542.5,305.6z" />
	<path display="inline" d="M544.1,299.3c-0.5-0.2-0.9-0.4-0.1-0.7C544.1,298.9,544.1,299.1,544.1,299.3z" />
	<path display="inline" fill="#454853" d="M516.9,297.8c-0.3-0.2-0.5-0.5-0.8-0.7C516.4,297.3,516.6,297.5,516.9,297.8z" />
	<path display="inline" fill="#1D1311" d="M622.6,281.4c0-0.8-0.5-1.9,0.8-2.3C623.1,279.9,623.8,281,622.6,281.4z" />
	<path display="inline" fill="#363843" d="M540.2,292.4c-0.3,0.3-0.5,0.5-0.8,0.8c-2.2,0.2-1.4-2.5-1.5-3.9c1.2-0.3,2.5-0.5,3.7-0.8   C541.2,289.7,540.7,291.1,540.2,292.4z" />
	<path display="inline" fill="#503A33" d="M445.2,73.3c-0.7,0.9-1.4,2-2.8,1.2C443,73,444.1,73,445.2,73.3z" />
	<path display="inline" fill="#49342D" d="M451.3,71.1c-0.5,0.3-0.9,0.5-1.5,0.9c-0.2-0.5-0.3-0.9-0.4-1.4c0.7-0.1,1.2-0.1,1.8-0.2   C451.2,70.6,451.3,70.8,451.3,71.1z" />
	<path display="inline" fill="#AD8879" d="M470.4,65.7c-0.1,0.3-0.2,0.7-0.3,1.4c-0.8-1.5-1.6-2.1-2.8-3c-0.8-2.9,2.8-3.6,3.2-6.1   c0.2-0.2,0.5-0.5,0.7-0.7c1.5,1.2,1.5,2.8,1.4,4.5c-0.9,0.9-4.2,1.8-2.4,3.2C470.2,65.2,470.3,65.4,470.4,65.7z" />
	<path display="inline" fill="#8D6D60" d="M472.6,61.8c0.1-1.8,0-3.4-1.6-4.7c0-0.3,0-0.5,0-0.8c0,0,0,0.1,0,0.1   c0.3-0.3,0.6-0.6,0.8-0.8l0,0c0.5-0.2,0.9-0.3,1.7-0.6c0.3,1.2,0.6,2.2,0.9,3.2c0.5,0.4,0.9,0.7,1.4,1.1c0,0.3,0,0.6-0.1,0.9   C474.7,60.8,473.6,61.3,472.6,61.8z" />
	<path display="inline" fill="#A07C6F" d="M467.9,60.1c-1.5-1.3,0-3.1,0.2-4.6c1.5-0.7,2.6-1.2,3.7,0.1l0,0   c-0.3,0.3-0.6,0.6-0.8,0.8c0,0,0-0.1,0-0.1c-0.3,0.3-0.5,0.5-0.8,0.8c0,0,0,0,0,0C468.8,57.6,468.7,59.1,467.9,60.1z" />
	<path display="inline" fill="#453832" d="M467.9,60.1c0.8-1,0.9-2.5,2.3-3c0.6,1.8-1,3.1-2.3,4C468,60.8,468,60.4,467.9,60.1z" />
	<path display="inline" fill="#271E1A" d="M468.1,86.6c0.3,3.3-1.4,6.3-2.6,9.3C463.7,95.4,466.4,84.7,468.1,86.6z" />
	<path display="inline" fill="#40302B" d="M464.1,99.9c0.2,1.6,0.1,3.4-0.7,4.8c-0.3,0-0.6,0-0.8-0.1   C462.4,102.8,462.5,101.1,464.1,99.9z" />
	<path display="inline" fill="#52413A" d="M460.7,109.7c-1.5-1.8-1.5-1.8,0-2.9C460.7,107.9,460.7,108.8,460.7,109.7z" />
	<path display="inline" fill="#302723" d="M457.9,114.9c0,0.5,0,1.1-0.1,1.6c-0.2,0-0.3,0-0.5,0c-0.1-0.5-0.2-1.1-0.3-1.6   C457.3,114.9,457.6,114.9,457.9,114.9z" />
	<path display="inline" fill="#977264" d="M462.5,104.6c0.3,0,0.6,0,0.8,0.1C463,105.3,462.7,105.2,462.5,104.6z" />
	<path display="inline" fill="#533731" d="M468.7,127c0.1-0.6-0.1-1.6,1.1-1.4C470,126.6,469.3,126.8,468.7,127L468.7,127z" />
	<path display="inline" fill="#040303" d="M473.4,123.9c-0.2,0.7-0.6,0.9-1.4,0.2C472.6,124,473,124,473.4,123.9L473.4,123.9z" />
	<path display="inline" fill="#161112" d="M355.9,188.7c1.6,2.7,1.1,4.8,0.9,7.3C354.1,194.6,355,191.7,355.9,188.7z" />
	<path display="inline" fill="#474144" d="M360.2,201.6c-2.2-0.9-2.3-1-2-3.1C359.7,198.8,359.6,200.1,360.2,201.6z" />
	<path display="inline" fill="#5A4139" d="M471.3,354.9c0-0.5,0-1.1,0-1.6c0.1,0,0.2,0,0.4,0c0,0.5,0,1.1,0,1.6   C471.5,354.9,471.4,354.9,471.3,354.9z" />
	<path display="inline" fill="#1F1310" d="M472.6,61.8c1-0.5,2.1-1,3.1-1.6c-0.3,0.9-0.6,1.9-0.9,2.8c-1.7,0.5-3.8,0.2-3.8,2.7   c-0.2,0-0.4,0-0.7,0c-0.3-0.7-0.1-1.5-0.1-2.3C471.1,62.8,471.8,62.3,472.6,61.8z" />
	<path display="inline" fill="#4C3B35" d="M471.1,68c0.4,0.4,0.9,0.7,1.5,1.2C471.1,69.6,471.1,68.8,471.1,68L471.1,68z" />
	<path display="inline" fill="#4C3B35" d="M470.3,63.4c0,0.5,0,1.1-0.1,1.6C469.5,64.4,469.4,63.9,470.3,63.4z" />
	<path display="inline" fill="#8D6D60" d="M470.4,58c-0.1-0.3-0.1-0.6-0.2-0.8c0.2,0.1,0.5,0,0.8,0l0.1,0.1   C470.9,57.5,470.7,57.7,470.4,58z" />
	<path display="inline" fill="#1B1412" d="M471.1,57.1c-0.3,0-0.5,0-0.8,0c0.3-0.3,0.5-0.5,0.8-0.8   C471.1,56.6,471.1,56.9,471.1,57.1z" />
	<path display="inline" fill="#1B1412" d="M471,56.4c0.3-0.3,0.6-0.6,0.8-0.8C471.6,55.8,471.3,56.1,471,56.4z" />
</g>
</svg>