<?xml version='1.0' encoding='utf-8'?>
<svg xmlns="http://www.w3.org/2000/svg" version="1.2" baseProfile="tiny" id="Layer_1" x="0px" y="0px" viewBox="0 0 900 600" overflow="visible" xml:space="preserve">
<g id="b">
	<path display="inline" fill="#030303" d="M478.8,549.4c5.1,6.6,9.2,18.8,19.5,16.2c17.1-2.2,34-4.2,51.2-6.5   c3.5-118.8-0.7-239.2,1.5-358.4c7.1,113.9,0,239.1,2.4,356.7c21.8,3.7,43.8,6.4,65.7,9.7c3.7,1.5,17.8,0.3,17.6,4.5   c-27-1.3-54.7-8.3-81.9-10.9c-0.4,0.4-0.7,0.9-0.9,1.1c-19,1.9-37.2,4.5-56.1,6.8c1.6,3,3.4,4.2,1,7.5c0.2,2.3,2.6,3.9,2.7,6.4   c-7.8,3.7-21.6,8-29.2,2.8c0.3-0.2,0.5-0.5,0.8-0.7c4.1,1,9.5,2.8,13.1-0.1c3.8-2,8.3-0.4,12.4-2.7c-0.7-2.5-1.9-5.1-0.9-7.7   c-1.5-6.2-10.3-6.8-12.7-12.7c-1.1-2.1-3.1-0.4-4.7-0.1c-1,0-2.1-0.5-2.9,0.6c-2.1,0.1-4.2,0.5-6.6-0.2c0.4-0.8,0.7-1.4,0.9-2   c3.4-1,7-1,11-0.9c-0.8-0.9-1.2-1.4-1.5-1.7c-4.9,0.5-9.2,1.6-14,2c-0.6-5.8,8.9-3.7,12.9-4.1c-0.6-1.1-1-1.9-1.4-2.7   c-4.3,0.6-8.3,2.1-12.5,2.2C465.5,547.1,474.9,551.8,478.8,549.4z" />
	<path display="inline" fill="#FBDFD3" d="M460.3,139.3c0.4,0.7,0.9,1.3,0.6,2.2c-0.3-0.3-0.6-0.6-1.1-1c-1,10.4-0.8,21.2-5.3,30.9   c-1.5,0.7-2.5,1.2-4,1.6c-3.7-3.4-10.5-0.7-13.3-4.7c-3.3-2.1-6.4-4.5-9.9-6.9c-1.1-2.9-2.1-6.3-1.7-9.6c-0.5-0.4-1-0.9-1.3-1.2   c0-1,0-1.8,0-2.5c0.6-0.8,1.8-0.3,1.9-1.4c0.3-0.9,0.6-1.8,0.9-2.6c2.9-2.9,0.9-7.7,4.3-10.5l0,0c1-1.3,1.4-2.9,2.1-4.3l0,0   c0.4-0.5,0.9-1,1.3-1.5c0.7,0,1.4,0.1,2.1,0.1c1.5-2.2,4-3.3,5.2-5.7c5.2-1.1,10.5,1.1,15.6-0.8c0.3,4,1.1,7.6,2.7,11.3   c-0.3,0.5-0.5,1-0.8,1.5c-4.6,1.3-8.4,4.4-5.7,9.1c0.7-1.1-0.4-2.5,1-3.3C456.8,141.1,458.4,139.5,460.3,139.3z M453.9,161.7   c-0.4-0.4-0.7-0.8-1.2-1.4c2.1,0.2,3.2,0.1,4.1-1.9c-3.6-1-8.3,0.3-11.9,1c0.4,2.1,2.2,1.5,3.6,1.9c-1.6,4.4,3.7,3.8,6.3,2.4   c-0.1-0.5-0.2-0.9-0.2-1.4C454.4,162.1,454.2,161.9,453.9,161.7z M441.2,138.4c-1.2,0.5-4,0-3.7,2c2.8,0,5.6,0,8.3,0   c0.2-0.8,0.4-1.3,0.6-1.9c0.9-0.1,1.8-0.2,2.7-0.4c0.3-5-11.5-4.1-13.3-0.5c2,0.7,3.4-2.6,5.3-0.6   C441.2,137.5,441.2,138,441.2,138.4z M455.9,152.2c-0.7-2.5-7.5-1-5,1.6C452.4,152.4,454.3,153.7,455.9,152.2z" />
	<path display="inline" fill="#020101" d="M447.3,579.2c-1.9-0.6-1.6-2.2-1.7-3.9c-1.3,0.1-2.6,0.2-4.1,0.4   c4.3,7.7,9.4,7.2,5.7,18.1c-13,3.3-36.2,9.9-42.9-5.9c-1.8-0.7-3.7-1-5.6-1.1c-1.8-1.5-2.9-3.2-3.2-5.4   c-44.1,4.9-88.1,12.1-132.1,15.8c-2-5.3,25.4-4.5,30-6.3c34.6-4.4,69.1-8.6,103.7-12.9c2.4-8.4,1.1-16.8,3.2-25.3   c0.2-0.2,0.8-0.7,1.5-1.3c0.1-8.4-3.1-17.9-0.9-26c1.2,9.7,4.5,18.9,4.6,28.5c1,0.8,2,1.3,3.3,1.1c0.5,0.2,1.1,0.4,1.7,0.7   c1.4-1.9,2.8-3.7,3.8-5.1c2-0.5,3.5-0.9,4.9-1.3c0.8,0,1.8,0.5,2.3-0.6c-0.6-11.7-2.2-23.4-1.3-35.2c1.4,11.8,0.4,24.1,4.4,35.7   c4,0.5,2.5,6.2,2.8,9c3.9,5.1,7.4,10.1,12,14.6c2.8-0.4,5.3-0.7,8.1-1c0.5-5.7,0.6-11.3,2.3-16.7c1.7,4.5,0.3,17.9-2.1,22.1   c0.2,0.3,0.5,0.7,0.7,1.1C447.9,578.6,447.6,578.9,447.3,579.2z M420,568.6L420,568.6c-0.5,0.4-1,0.8-1.4,1.2   c-0.1,0.2-0.2,0.3-0.4,0.3c-3.7,2.6-3.3-2.5-0.6-3.5c3.2-2.7,7.2-2.5,10.8-3.4c-0.5-0.9-1.1-1.7-1.7-2.7c-4.9,0.5-9.1,1.7-12.7,5   c-4.9-6,7.7-7.2,11.3-7.2c0.2-4.7,0.2-4.7-1-7c-7.3-1.9-11.9,3.3-14.8,9.4c-1.3,0.5-2.7,1-4.2,1.4c-1.7-1.1-2.8-2.7-4.3-4.2   c-2,8.1,2.2,18.2-3.8,24.9c1.2,1,2.3,1.9,3.2,2.6c5.1-0.7,6.6,3.1,8.9,6.9c10.4,5.5,26.6,3.9,36.6-1.7c2-7.6-7.9-15.2-12.4-20.7   C432.2,563.2,424.1,566.6,420,568.6z M406.1,560.7c1.6-0.5,3-1,3-3.1c-1.5-0.4-3-0.8-4.6-1.1C404.5,559.1,404.5,559.1,406.1,560.7z   " />
	<path display="inline" fill="#010101" d="M374,125.7c11.5,6.5,13.2,21.8,15.4,33.6c7.4,6.9,19.4,5.5,25.2,14.6   c4.3-5.8,2.6-14.6,6.5-19.9c1.5,6.5-2.5,11.7-2.7,18c-0.2,1.7-2.6,2.4-1.8,4.8c2.4,1.5,5.1,3.4,6.6,5.7c-0.6,1.2-1.2,0.6-1.8,0.4   c-1.4-1.8-1.4-1.8-2.9-2.4c0.5,1.2,1,2.1,2.2,2.5c5.6,8,10.4,16.8,19.1,21.8c-0.3,0.3-0.5,0.6-0.8,0.8   c-13.5-4.8-17.6-19.9-26.2-29.5c10.4,20.2,14.9,60.3-14.1,65.9c0,1.3,0.7,2.9-0.6,3.7c-21.5-21.3-10.9-32.2-27.1-50.1   c-15.8-13.6-17.2-35.9-20-55.2c-2.5-11.9-9-23.3-6.6-35.9c0.3,0,0.5,0,0.8,0c-0.4,8.8,1.9,17.1,5.6,25c4,11.7,4.1,24.5,6.6,36.6   c2.7,16.7,16.6,28.4,25.2,41.6c1.9,12,4.6,24,14.1,32.2c15.9-0.8,24.1-18.4,19.9-32.5c-3.4-25.4,0.5-33.5-25.1-44.5   c-0.5,0.7-0.9,1.2-1.4,1.9c-4.9-13-8-27.5-17.4-38.6C373.1,126.1,373.6,125.9,374,125.7z" />
	<path display="inline" fill="#010101" d="M432.8,130.8c0.1,0.2,0,0.4-0.2,0.5c-1,0.4-0.4,1.6-1.2,2.2l0,0c-0.6-0.3-1.2-0.5-1.9-0.8   c-0.3,0.7-0.6,1.2-0.8,1.7c0.4,0.4,0.8,0.8,1.1,1.2c-1.6,2.7-0.2,6.3-2.8,8.5c-0.6-1.2-1.7-1.3-2.9-1.5c-0.4-0.7,0.4-1.7-0.6-2.1   c-0.9-3.6-4.7-1.7-5.7,0.8c-1.8,2,0.7,3.7,1.3,5.7c-1.1,0.2-2,0.4-3,0.6c-1.8-1.9,0.6-4.7-1.5-6.7c-3.6-5.2-0.7-10.5,0.3-15.9   c0.1-2.9,4-3.5,5.9-5.1c1.3,0.3,2.7,1.7,3.7-0.2c-0.6-1.8-1.8,0-3-0.7c-0.7-0.9-2.1-1.3-3.7-1.1l0,0c0.1-0.2,0.1-0.4,0-0.6   c0.3-1,0.6-2.1,1.2-3c1,0.4,1.4-0.5,2-1c0.6,0.4,1.1,0.7,1.9,1.2c0.7-3.5,6.4-3,7.8-6.5c1.5,0.3,0.9,1.2,0.9,1.9   c1.5,1,2.2-1.3,3-2.1c6.6-0.1,12.8-0.6,19.6-1.9c0.3,0.4,0.5,0.8,0.8,1.4c1.1-1,2-1.9,3.1-2.8c2,0.5,0.6,3.9,1,5.5   c1.6-0.5,4.3-3.3,5-0.5c-0.8,0.7-1.7,1.4-2.9,2.3c1.6,0,2.7,0,4,0c0,1.1,0,2.1,0,3.5c-1.4,2.1-4.9,2.5-6.3,5.3   c0.4,3.1,0.8,6.2,1.3,9.3c-0.2,0.3-0.5,0.5-0.7,0.8c-1.8-2.8-1.4-6-2-9.1c-4,2.7-16.8-2.4-17.1,2.8l0,0c-1.3-2.3-1.3-2.3-5.2-4.1   c-0.8,0.4-1.2,1-1.1,1.9c-0.2,0.1-0.7,0.1-0.3,0.5c0.1-0.2,0.2-0.3,0.3-0.5c1,0.2,1.9,0.3,2.9,0.5c0.8,1.1,1.4,2.2,1.3,3.7   c-0.5,0.5-0.9,1-1.4,1.6c-1.2-0.1-2.3-0.1-3.5-0.1c0.2-2-2.6-1.8-2.2,0.7c-1,0.7-0.7,1.6-0.4,2.6c1.2-0.4,1.1-1.5,1.2-2.5   c0.4-0.4,0.7-0.8,1.4-0.7c0,0.5,0.1,1,0.1,1.5l0,0C432.6,129.5,432.7,130.1,432.8,130.8z M427.1,119.4c1.3,0,1.6-0.6,1.2-1.8   C427.2,117.8,427.1,118.5,427.1,119.4c-0.6,0.1-1.5,0-1.1,1.4C426.4,120.2,426.7,119.8,427.1,119.4z M450.9,120.7   c-1.4-1.9-3.8-1.7-5-3.1c0-0.6-0.1-1.1-0.1-2c-1.3,0.9-2.4,1.6-3.2,2.5c1.5,1.7,5.7,2.6,7,1.4c0.7-0.1,1.3-0.2,2.5-0.4   c-1-0.6-1.4-0.8-2-1.2C449.9,118.5,449.7,118.9,450.9,120.7z M428,127.9c-0.9,1.2-1.7,2.2-2.3,3.1c-1.1,0-2.1,0-2.8-0.7   c-1.4,1-0.7,2.6,0.6,3.2c0.7-0.4,1.3-0.7,1.9-1.1c0.2,0.8,0.4,1.5,0.6,2.6c1-1.2,1.8-2,2.7-3.1c-0.5-0.4-0.9-0.7-1.3-1   C427.7,130.1,429,129.5,428,127.9z M427.5,122.4c2.5-1,3.5-2.3,4.5-4C430.3,118.2,429.3,119.1,427.5,122.4z M420.7,134.6   c0.9-1.5,0.9-2.9,0-4.4C419.8,131.6,419.8,133.1,420.7,134.6z M445,111.4c-2.5-0.6-3.4,0.3-3.3,2.7   C442.7,113.3,443.6,112.5,445,111.4z M461.5,116.3c0.9-1.3,1.4-2.1,2.1-3.1c-1.3-0.2-2.3-0.4-3.1,0.8   C460.7,114.5,461,115.1,461.5,116.3z M430.3,112.3c-1.2,0.9-4.5,1.1-3.4,2.6C430,114.1,430,114.1,430.3,112.3z M456.8,107.7   c-0.9,1.3-1.6,2-1.2,3C457.6,110.7,457.6,109.2,456.8,107.7z M448.7,114.1c-0.8,0.1-1.5,0.2-1.7,1.2   C448.3,115.7,448.3,115.7,448.7,114.1z" />
	<path display="inline" fill="#020202" d="M393.1,464c2.9-11.9,10.6-22.6,10-35c-26.8-9.7-18.6-13.8-15.2-36.6   c0-15.8,4.5-31.1,4.5-46.9c2.2-21.9,1.5-21.8,11.4-41.1c1,1.3,0.5,3,1.4,4.3c-11.6,12.3-9.6,31.1-11.8,46.9c0,1.3-0.4,2.7,0.7,4   c-3.7,17.7-4.2,36.8-8.7,54.6c1.6,8.4,11.8,8.1,17,12.5c12.4,4.7,27.3,2.1,40,2c0.8,0.2,0.8,0.9,0.9,1.5l0,0   c-0.6,0-1.2-0.1-1.5,0.7c-0.9,0.1-1.8,0.3-2.5,0.4c-2,2.7-2.7,5.9-5.1,8.1c-0.3,10-10,17.2-9,27.3c3.7,15-2.5,30.1-4,44.7   c-2.2-10.8,2.3-22.8,3.4-34c-0.8-6.5-2.8-13-2-19.5c0.7-0.1,1.2-0.2,1.7-0.3c1.7-5.2,6-9.2,6.1-14.8c0-1.5,1-2.3,2.2-3   c-0.4-3.6,2.6-5.7,3.6-9.2c-3.6,0.2-6.8,0.2-9.9,1.1c-0.6,0.7-1.1,1.4-1.7,2c-0.3-0.3-0.5-0.6-0.8-0.8c0-0.3-0.1-0.7-0.2-1.3   c-6.4,0.4-12.6-0.2-18.9-1.8c-0.8,13.8-7.5,27.1-11.3,40.6C392.7,468.4,393.1,466.1,393.1,464z" />
	<path display="inline" fill="#EECABA" d="M478.7,137.7c0-0.5,0.1-1,0.1-1.5c0.4,0.2,0.8,0.4,1.3,0.6c2.7-3.1,0.7-7.1,0.7-10.8   c-0.5-2.6,0.7-6-0.6-8.2c-0.5-9.1,2.7-18.1,4.3-27c0.5-7.4-1.5-15.2,0.5-22.3c-0.9-3.2-1.2-6.6-2.6-9.5c-3.8-5.7-2.9-12.2-2.9-18.8   c1.4,13.5,0.6,11.2,9.7,22c-1.2-0.8-2.5-1.6-4-2.5c-0.9,2.5,1.7,3.7,3.8,3.7c0.1-0.5,0.1-0.8,0.1-1.2c1.3-0.6,2.3-2.3,4.3-1.2   c0.8,1.2,4.2,2.8,2.3,4.5c-1.6-0.6-3.2-1.2-5-1.8c-0.8,1.7-2.6,0.9-4.2,1.5c2.8,22.6-3.7,45,1.3,67.7c-5.6,9-11.5,18.4-13.1,29.1   c-0.8,4,2.1,8.6-0.4,12.1c-0.6-0.3-1-0.4-1.5-0.6c-0.2-0.5-0.2-1.1-1.1-1.2c0,0.4,0,0.8-0.1,1.3c-0.7-0.2-0.7-0.8-0.8-1.3   c-0.6-3.1-0.7-3.2-2.8-5c0.4,0,0.9-0.1,1.5-0.1c-1.8-14,5.6-19,10-29.4C479.3,137.8,479,137.8,478.7,137.7z M486.5,132.2   c-2-0.8-4.9,1.6-2.3,3.4C485,134.5,486.2,133.8,486.5,132.2z" />
	<path display="inline" fill="#030203" d="M443.4,430.2c-0.1-0.6-0.1-1.3-0.9-1.5c0.1-1.7,0-3.4,0.9-4.9c0.8,0.7,1.4,1.7,2.7,1.4   c8.7,2.9,29.1,4.4,37.2-0.2c8.3-24.2-1.1-51,7.4-75.4c0.3,0.5,0.5,1,0.8,1.6c-4.9,24.8,1.3,50.6-5.8,74.7c-1.8,0.9-3.6,1.9-5.4,2.9   c-0.9,2-1.9,4-2.8,6c0.7,4.6,0.6,9.4-1.5,13.7c-2.3-5.6,2-11.9-1.1-18c-2,0-3.8,0-5.8,0c-1.2,2.3-3.4,7.8-6.5,6   c0.1-0.2,0.2-0.4,0.2-0.6c1.2-2,2.9-3.8,3.7-6.5c-6.8,0.1-12.7,0.3-19.1-1.9c-0.1,5.4,0,10.4,2.9,15.2c1,2.3,2.7,4,1.6,6.7   c-1-1-1.7-1.7-2.4-2.5c-0.4,11.2-5.1,23.1-1.7,34c2,4.1,5.8,8,4.4,12.9c0.1,5.5,2.7,11.7,0.6,17c-1.7-6-1.2-12.4-2.3-18.5   c-1.9-5.4-6.3-10.3-5.3-16.4c-0.6-10.8,0.6-21.9,3.3-32.4c-2.2-5.2-2.1-10.7-3.7-15.9c-0.1,0-0.3,0-0.4,0   C444.1,428.4,443.7,429.3,443.4,430.2z" />
	<path display="inline" fill="#030202" d="M499.9,162.4c4.9,15.4-10,25.5-15.5,37.8c-0.2,11.9,1.4,24.2-1.5,35.7   c0.6-24.5-9.6-38-27.6-53.7c2.8-2.3,6.2,2.5,8.7,3.9c8.7,6.5,11.9,17.7,18,25.6c2.2-11.1-3.7-20.8-5.4-31.4   c4.4,4.1,4.3,10.8,6.9,15.6c2.5-4.2,5.1-8.3,7.9-12.4c0.4,0,0.8-0.1,1.4-0.2c5.8-10.2,6-21.4,5.7-32.8   C500.8,153.5,497.5,159.4,499.9,162.4z" />
	<path display="inline" fill="#050404" d="M452.5,510.6c1.1-1.5,0.6-3.3,0.8-5.1c1.5,13.6,3.1,27.5,5.1,41.1c3.1,2,5.1-3,5.7-5.5   c1.9-0.3,3.7-0.6,5.4-0.9c5.2-21.7,6.7-43.7,9.9-65.7c1.5-0.7-0.1-2.7,1.3-3.5c1.3,23.3-6.5,45.7-8.4,68.6c4.2,2.2,4.3,1.4,5,7.8   c0.6,0.7,1.1,1.3,1.6,1.9c-2.4,1.4-5.4,0.6-8.1,0.7c1.7-0.4,3.4-0.7,5.2-1.1c-0.5-2-0.9-4-1.3-5.9c-5.2-3.5-11.8,0.9-11.8,6.8   c-0.7,2-2.7,3.6-4.5,4.6c-2-1.5-2.1-3.7-2.8-5.7c-1.3,0.1-2.4,0-2.3-1.4c0.4-0.3,0.9-0.7,1.4-1   C455.6,534.4,451.7,522.6,452.5,510.6z M459.9,549.5c-0.9,0-1.3-0.1-1.8-0.1c-0.1,1.2-0.2,2.2,1.3,2.6   C459.6,551.3,459.7,550.6,459.9,549.5z" />
	<path display="inline" fill="#060406" d="M484.3,289.6c0.6,6.2-1.4,12-2.7,18c1.4,1.5,2.1,3.3,1.4,5.4c5.4,8.2,11.5,18,8.4,28.1   c-1.4-5.8-0.9-16.7-5.7-19.9c-0.5,3.4,1,7.8-0.6,10.7c0-4.2,0-8.4,0-13c-1.1-1.5-2.6-3.4-3.7-5.2c-0.1-1.5,0.8-2.8-0.3-4.3   c-0.8,1-1.5,1.8-2.1,2.7c-0.6-0.1-1-0.2-1.5-0.2c-0.1,0.3-0.2,0.6-0.4,0.9c-0.5,0.3-0.9,0.5-1.4,0.8c0.1-1-0.3-2-1.3-0.8   c-1.1,0.1-1.6,0.7-1.4,1.7c-2.3-1.3-2.5-1.3-3.9,0.4c-0.9-0.7-3.5-2.2-3.1,0.1c-0.2,0.2-0.4,0.4-0.8,0.8c-0.7-2.3-5.4-1.8-7-0.9   c-0.1,0.6-0.2,1.2-0.3,1.9c-0.9-1.8-2.5-2.7-3.8-0.9c-2.3-2.3-6.4-0.1-9.4-1.4c-5.6,1.9-12.5-2.2-17.7-0.3c-2-1.8-4.7-1.5-6.7-2.3   c-1.6-0.1-4.1-2.7-5.3-1.2c-1.1-0.6-1-2.4-2.8-2.3c0.1,0.8,0.1,1.6,0.2,2.4c-0.3-0.2-0.6-0.4-0.9-0.7c-0.3-1.3-0.5-2.6-1.4-3.7   c0.3-0.2,0.5-0.4,0.8-0.6c21.1,7.9,45.7,11,67.4,3.5c2.9-9,3.6-18.3,3.9-27.5C483.8,283.9,482.2,287.3,484.3,289.6z" />
	<path display="inline" fill="#060606" d="M499.1,73.5c2.3,12.1,8.4,24,5.8,36.7c-1.6,6.3,1.7,12.6-0.4,18.8   c-1.8,4.5-1.4,12.4-5.4,15l0.1,0.1c-1.3-3.2,1.3-6.8,1.7-10.1c3.2-13.7,1.7-28.4,0.8-42.4c-1.8-8-6.6-16.1-4-24.5   C499.5,68.7,497.3,71.9,499.1,73.5z" />
	<path display="inline" fill="#060607" d="M410.9,305.8c-1.6,0.8-1.8,2.1-1.5,3.6c-0.8-0.2-1.5-0.6-2.1,0c-0.7-0.2-1.4-0.4-2.1-0.7   c-0.9-1.3-0.4-3-1.4-4.3c0.2-0.5,0.5-0.9,0.7-1.4c0.2,0.2,0.5,0.5,0.7,0.7c0,1.1,0,2.3,0,3.4c0.5,0.2,0.8,0.3,1.3,0.5   c-0.1-1.4,0.5-2.8-0.3-3.8c-0.3,0-0.7,0-1-0.1c-0.2-0.2-0.5-0.5-0.7-0.7c12.7-4.5-4.1-40.6-1.4-48.8c5.1,12.8,8,26.9,8.2,40.7   C411.8,298.6,408.4,302.3,410.9,305.8z" />
	<path display="inline" fill="#090707" d="M456.8,181.5c-0.6,0-1.2,0-1.4,0.7c-1-0.3-3-2.4-3.3-0.4c0.6,0.4,1.2,0.9,1.9,1.4   c-1.1,0.7-1.7,1.4-2.9,2.3c-0.8-3.9-2.6-9.1-0.5-12.5c1.5-0.4,2.5-0.8,4-1.6c0.5-1.3,1.1-2.6,1.7-4c1.7,0.8,1.7,0.8,2.7-0.7   c2.3-1.9,4.8-3.6,8.1-3.8c0.6-4.5,1.9-8.5,4-12.5c0.2,0.5,0.5,1,0.7,1.5c-2,4.8-2.4,9.9-2.1,15.3c-0.7,0.1-1.1,0.1-1.5,0.1   c-1.2-1.7-2.8-0.4-4.4-0.1c-6,0.1-8.6,5.8-11.5,10.2C450.4,180.3,455.4,180.4,456.8,181.5z M452.4,174.6c-0.1-0.2-0.2-0.4-0.2-0.5   c-0.4,0.2-0.2,0.5-0.2,0.8C452.1,174.7,452.3,174.7,452.4,174.6z" />
	<path display="inline" fill="#0B0A09" d="M482.8,60c3.1,15.3,2.1,31.8-2.1,47.3c-2.2-6.5,2.3-13.8,1.2-20.7   c-1.8-9.2,2-18.6-0.5-27.2c0.2-0.3,0.5-0.5,0.7-0.8c0.2,0.1,0.2,0.3,0.2,0.4C482.5,59.4,482.6,59.7,482.8,60z" />
	<path display="inline" fill="#09090A" d="M484.3,289.6c-2.1-2.3-0.5-5.7-2.1-7.8c-1.1-9.1,3.8-18,2.1-26.8   c0.1-7.6-2.2-15.2-0.7-22.7C489.9,251.1,483.1,270.7,484.3,289.6z" />
	<path display="inline" fill="#090808" d="M374,125.7c-0.4,0.2-0.9,0.4-1.3,0.6c-0.5-0.4-1.1-0.9-1.5-1.2c-0.7,0.1-0.7,1.1-1.8,0.7   c-0.3-10.7-1.4-21.7-2.5-32.4c0.4-0.7-0.3-1.9,0.9-2.3C374,99.3,368.3,120.8,374,125.7z" />
	<path display="inline" fill="#1D1A19" d="M362.1,0.5c0.3,0.7,0.6,1.5,0.9,2.4c0.8,0,1.8,0,3,0c2.1,8.4,2,17.9,2.4,26.8   c-0.2,0-0.4,0-0.7,0c-0.5-1.2,0.7-2.6-0.7-3.5c-1.8-6.9-0.3-14.3-2-21.1c-4.5,0.1,0.8,13.6-2.6,15.5   C361.4,13.9,360.6,6.8,362.1,0.5z" />
	<path display="inline" fill="#161413" d="M499.1,73.5c-1.8-1.5,0.4-4.7-1.4-6.4c3.1-4.2,4.2-41.9-1-42.1c-0.4,0.9-0.7,1.7-1,2.6   c0-0.9-0.1-1.8-0.1-2.7c0.3-0.3,0.7-0.6,1-0.9c0.9,0,1.8,0,2.6,0c3.5,9.1,1.9,19.4,3.1,29C502.1,60,498.1,66.3,499.1,73.5z" />
	<path display="inline" fill="#0E0B0C" d="M447.3,579.2c0.3-0.3,0.7-0.6,1-0.9c5.6,0,11.3,1.8,16.5-0.7c2.2,2,5.6,2.7,7,6   c0.2,0.5,0.9,0.7,1.3,1.1c-0.3,0.2-0.5,0.5-0.8,0.7c-3-1.1-5.5-2.7-7.8-4.9C458.5,582.1,452.8,581.4,447.3,579.2z" />
	<path display="inline" fill="#272221" d="M496.5,23.9c-0.3,0.3-0.7,0.6-1,0.9c-2.3-1-0.5-3.6-2.8-4.7c-1,2-0.1,4.3-1.1,6.4   c-1.3-3.3,1-6.5-1.6-9c-1.9,0-2,1-2.9,2.3c-0.6,0-1.3,0-2,0c-1.2,5.8-2,11.1-2.9,16.9c-0.7-0.5-1.4-0.9-2.1-1.4   c1.7-0.8,1.7-3.5,1.8-5.3c-0.5-3.9,1.3-7.4,2-11.3c2.7-0.9,4.7-3.8,8-2.6c0.3,0.8,0.5,1.5,0.7,2.2C496.1,18.4,494.9,22,496.5,23.9z   " />
	<path display="inline" fill="#292725" d="M349.9,16.6c0.1-1.3,0.1-2.6,0.2-3.9c1.2-0.7,0.2-2,0.6-2.8c1.6-0.9,0.1-2.5,0.8-3.5   c0.3,0.3,0.5,0.6,0.8,0.9c-0.1,1.1-0.1,2.2-0.2,3.3c-1.6,1.4,0.4,4.2-1.3,5.7c-1,15.5,0.8,31.3-2.1,46.6c0.6-13.7,0.6-27.2,0.6-41   l0,0c0.2-0.2,0.5-0.5,0.7-0.7C350,19.7,350,18.1,349.9,16.6z" />
	<path display="inline" fill="#161514" d="M345.2,104.5c-0.3,0-0.5,0-0.8,0c-0.4-10.3,1.5-20.3,3.6-30.4   C350,83.9,346,94.6,345.2,104.5z" />
	<path display="inline" fill="#201E1D" d="M393,466.6c1.7,11-0.2,23.8,3.6,34.1c0.5,1.2-0.6,2.6,0.7,3.5c0,1.4,0.8,3.2-0.6,4.2   c-0.5-1.2,0.6-2.6-0.7-3.5c-0.5-1.2,0.6-2.7-0.7-3.5c-0.4-1,0.4-2.2-0.6-2.8c-2.6-10.4-2.7-21-2.2-31.7   C392.7,466.8,392.9,466.7,393,466.6z" />
	<path display="inline" fill="#191514" d="M362.1,0.5c-0.2,0.5-0.5,1.1-0.7,1.6c-0.5-0.9-0.7-2-2.3-2C355,3,360.4,18.8,357,20.9   c-1.4-6.1,0.3-11.8-1.3-18.1c-0.7,0.7-1,1.1-1.4,1.5c-0.2-0.3-0.5-0.6-0.7-0.8c0.5-1.3,1.5-2,2.8-2.2   C357.1-2.3,361.1-3.5,362.1,0.5z" />
	<path display="inline" fill="#1E1816" d="M416.3,147.7c1-0.2,1.9-0.4,3-0.6c-0.2-0.5-0.5-1-0.7-1.5c1.3-0.4,1-1.9,1.9-2.5   c-1.2-1.3-1.2-1.3-2.5-1.7c0.4-1.4,1.9-2,2.8-2.9c-0.1,4.2,4.2,2.9,2.1,9c-0.7,0.2-1.4,0.3-2.1,0.5c0.4,1.4,1.1,2.3,2.1,3.2   c-1.4,0.8-2.7,0.4-4.1,0c0.1-0.9,0.1-1.6,0.2-2.5c-0.9-0.1-1.6-0.2-2.4-0.4C416.4,148.1,416.3,147.9,416.3,147.7z M421.6,146.3   c0.3-0.5,0.6-0.8,0-1.1c-0.2,0.2-0.4,0.5-0.6,0.7C421.2,146,421.3,146.1,421.6,146.3z M422,143.6c-0.1-0.2-0.2-0.4-0.2-0.6   c-0.4,0.2-0.1,0.5,0,0.8C421.8,143.8,421.9,143.7,422,143.6z" />
	<path display="inline" fill="#141211" d="M480.1,117.9c1.3,2.2,0.1,5.6,0.6,8.2c0,3.6,2,7.6-0.7,10.8c-0.5-0.2-0.9-0.4-1.3-0.6   c1.3-6.8-0.9-13.7-0.1-20.4C479.1,116.6,479.5,117.3,480.1,117.9z" />
	<path display="inline" fill="#232222" d="M365,73.1c-0.4,1.9,0.8,4.7-0.9,6c-1.5-8-0.2-16.5-0.6-24.6c0.5-0.6,1.1-1.2,2-1   c0.1,0.3,0.1,0.7,0.2,1l0,0C363.5,59.6,365.6,67.2,365,73.1z" />
	<path display="inline" fill="#141212" d="M374.2,37c0,2.9,0,5.9,0,8.7c-1.8,2.6-3.9,4.8-6.4,6.6c-0.3-0.3-0.6-0.6-0.9-0.9   c1.6-2.2,3.2-4.3,4.8-6.5c0.1-2.3-0.2-4.7,1.1-6.8c1.1-0.7,0.2-1.8,0.7-2.8C373.7,35.9,373.9,36.4,374.2,37z" />
	<path display="inline" fill="#191716" d="M480.1,35.3c0.6,0.7,2.1,1,2.2,1.9c-0.3,0.7,0.2,1.8-0.8,2.3c-0.7-1-0.8-2.7-2.6-2.6   c-0.2,3.2,1.4,6.4,0.4,9.7c-1.5,1.8,0.2,4.4-1.3,6.3c-0.4-5.6-0.7-11.6-0.5-17.1C478.3,34.7,479.1,34.6,480.1,35.3z" />
	<path display="inline" fill="#2A2626" d="M374.2,37c-2.1-4.4,1-10.6-1-14.7c-0.4,0.3-0.8,0.7-1.3,1.1c-0.8-0.2-0.7-0.9-0.7-1.5   c1.4-1.1,1.4-1.1,3.4-1C375.8,25.8,376.2,32.3,374.2,37z" />
	<path display="inline" fill="#282625" d="M458.8,150.9c0.9-3.5,0.7-6.8,1-10.4c0.5,0.5,0.8,0.7,1.1,1c1.8,6.4-1.3,12.3-1.3,18.9   c-0.4-0.2-0.9-0.5-1.3-0.7C459.2,156.9,458.8,153.8,458.8,150.9z" />
	<path display="inline" fill="#271F1D" d="M459.6,139.3c-1.6,0.7-3.1,1.6-4.9,0.9c-1.4,0.8-0.3,2.2-1,3.3c-3.7-8.1,4.6-6.5,6.5-10.6   c0.2,0.5,0.5,1.1,0.7,1.6c-0.1,0.4-0.2,0.8-0.3,1.2C459.5,136.6,461,138.2,459.6,139.3z M459.5,137.2c0-0.5-0.1-1-0.6-0.3   c-0.8,0.3-1.9,0-2.5,1.3C457.6,138,458.9,138.9,459.5,137.2z" />
	<path display="inline" fill="#252221" d="M396.7,508.5c1-0.5,0.5-1.6,0.8-2.4c1.8,6.2,2.2,12.9,3.4,19.3c-0.7,0.9-0.7,1.9-0.7,3   C399,521.8,397.5,515.2,396.7,508.5z" />
	<path display="inline" fill="#1F1C1C" d="M348.8,78.7c-1.5-8.1-0.2-16.3,1.2-24.3C350.5,62.4,350,70.8,348.8,78.7z" />
	<path display="inline" fill="#341D1C" d="M416.5,148.3c0.7,0.1,1.5,0.2,2.4,0.4c-0.1,0.9-0.1,1.6-0.2,2.5c1.5,0.5,2.8,0.8,4.1,0   c-0.5,1.6-0.4,3.5-1.4,5c-0.1-0.7-0.2-1.3-0.4-2.2c-1.8,0.6-1.3,2.8-1.9,4.3C417.5,155.4,417.6,151.5,416.5,148.3z" />
	<path display="inline" fill="#302927" d="M471.7,152c-0.2-0.5-0.5-1-0.7-1.5c2-4.6,5.1-8.5,7.7-12.7c0.3,0,0.7,0.1,1,0.1   C478.9,142.8,473.2,146.8,471.7,152z" />
	<path display="inline" fill="#363332" d="M364.1,79.1c1.2-0.5,0.6-1.6,0.9-2.3c1.4,4.7,1.9,9.5,2.8,14.3c-1.2,0.4-0.5,1.6-0.9,2.3   C365.5,88.8,365.1,83.9,364.1,79.1z" />
	<path display="inline" fill="#212224" d="M403.1,254.2c-0.8,0.2-0.7,1-0.8,1.6c-1.8-3.2-3.2-6.5-4.2-10c1.1-0.4,0.5-1.5,0.8-2.2   C400.2,247.1,402,250.6,403.1,254.2z" />
	<path display="inline" fill="#393838" d="M417.9,117.9c1.6-0.2,3,0.2,3.7,1.1c1.2,0.7,2.5-1.1,3,0.7c-1.1,1.9-2.4,0.5-3.7,0.2   c-1.5,0.9-3.1,1.9-4.6,2.8c-0.2-1.4,1-2.6,0.3-4C417,118.5,417.5,118.2,417.9,117.9z" />
	<path display="inline" fill="#1E212C" d="M491.4,341.1c1.1-1.7,0.6-3.9,0.7-5.8c1.1,5.2,1.6,11-0.7,15.9c-0.3-0.5-0.5-1-0.8-1.6   C490.9,346.8,491.2,343.9,491.4,341.1z" />
	<path display="inline" fill="#050404" d="M477.2,449.2c0.2,0.2,0.2,0.3,0.1,0.5c0,1-0.6,2.2,0.6,3c0.5,1.5-0.8,3.1,0.7,4.2   c0,2.2,0.2,4.1,0.9,6.1c0,1.1-0.6,2.2,0.5,3.1c0.2,1.4,0.4,3.1-0.6,4.2c-0.2-0.2-0.2-0.4-0.1-0.6c0-1,0.6-2.2-0.6-3   c-0.5-1.5,0.8-3.1-0.7-4.2c-0.5-1.5,0.8-3.1-0.7-4.2c0.1-2.5-0.4-4.5-0.9-6.8C476.7,450.8,476.2,449.7,477.2,449.2z" />
	<path display="inline" fill="#060606" d="M499.9,162.4c-2.4-3.1,0.9-8.9-1.5-12c0.2-2.1-0.6-4.5,0.8-6.3l-0.1-0.1   C500.9,149.8,499.4,156.4,499.9,162.4z" />
	<path display="inline" fill="#292624" d="M480.1,117.9c-0.6-0.6-1.1-1.3-1.5-2.1c0.5-4,0.1-8.3,1.3-12.2   C481.4,108.5,479.8,113,480.1,117.9z" />
	<path display="inline" fill="#2C2424" d="M424.2,112.4c-0.9,0.6-1.2,1-1.3,2.1c-0.7-0.5-1.3-0.8-1.9-1.2c-0.6,0.5-0.9,1.4-2,1   c0.2-0.3,0.4-0.6,0.5-0.9c-0.6-0.9-1.3-1.7-1.9-2.5c0.8-1.4,1.8-0.1,2.4-0.7C421.7,111.1,422.5,112.7,424.2,112.4z" />
	<path display="inline" fill="#342F2F" d="M458.2,159.6c0.4,0.2,0.9,0.5,1.3,0.7c0,1.8-2.7,5.3-0.7,6.3c-1,1.5-1,1.5-2.7,0.7   C456.8,164.8,457.5,162.2,458.2,159.6z" />
	<path display="inline" fill="#24211F" d="M478,53c1.4-1.9-0.2-4.5,1.3-6.3c-0.4,4.5,0.7,8.2,2.8,12c-0.2,0.3-0.5,0.5-0.7,0.8   C480.1,57.3,478.4,55.4,478,53z" />
	<path display="inline" fill="#373231" d="M365,73.1c0.7-5.9-1.5-13.5,0.7-18.6C364.8,60.6,365.9,66.9,365,73.1z" />
	<path display="inline" fill="#332F2D" d="M371.2,21.9c0.1,0.6,0,1.2,0.7,1.5c-0.9,2.5-2.3,5.2-0.8,7.8c-1.5,0.3-1-1.4-1.7-1.8   c-0.4,0.2-0.7,0.3-1,0.4l0,0c0-0.6,0.1-1.2,0.1-1.7C370.1,26.2,369.7,23.7,371.2,21.9z" />
	<path display="inline" fill="#EDCABA" d="M392.3,473.9c0,4,0,8,0,12C391.3,482.5,391.3,477.3,392.3,473.9z" />
	<path display="inline" fill="#363130" d="M353.5,3.4c0.2,0.3,0.5,0.6,0.7,0.8c0,0.7,0,1.4,0.1,2.1c-0.3,0.3-0.6,0.6-0.8,0.9   c-0.4,0-0.8,0-1.2,0.1c-0.3-0.3-0.5-0.6-0.8-0.9C352.2,5.4,352.8,4.4,353.5,3.4z" />
	<path display="inline" fill="#181616" d="M479.4,470.4c0.8-0.8,0.7-1.9,0.8-3c0.2,1.2,0.4,2.5,0.6,3.7c-1.5,0.8,0.2,2.8-1.3,3.5   C479.4,473.2,479.4,471.8,479.4,470.4z" />
	<path display="inline" fill="#3B3736" d="M461.1,134.4c-0.6-1.2-1-2.5-1.4-3.8c0.2-0.3,0.5-0.5,0.7-0.8   C461.9,131.1,462.1,132.7,461.1,134.4z" />
	<path display="inline" fill="#393532" d="M349.3,21.8c0,2.3,0,4.5-0.1,6.8C348.6,26.5,348,23.8,349.3,21.8z" />
	<path display="inline" fill="#373231" d="M366.9,51.4c0.3,0.3,0.6,0.6,0.9,0.9c-0.7,0.7-1.4,1.4-2.1,2.1c-0.1-0.5-0.2-1-0.2-1.6   C365.9,52.4,366.4,51.9,366.9,51.4z" />
	<path display="inline" fill="#181616" d="M477.2,449.2c-1,0.5-0.5,1.6-0.8,2.3c-0.2-1-0.4-2-0.5-3.1c0.3-0.5,0.5-1.1,0.8-1.6   C476.8,447.6,477,448.4,477.2,449.2z" />
	<path display="inline" fill="#393532" d="M349.9,16.6c0,1.5,0,3.1,0.1,4.6c-0.2,0-0.4,0-0.6,0C349.6,19.7,349.8,18.1,349.9,16.6z" />
	<path display="inline" fill="#181616" d="M479.3,461.9c-1.1-1-0.6-2.4-0.6-3.8C479.4,459.3,479.4,460.6,479.3,461.9z" />
	<path display="inline" fill="#363130" d="M351.3,6.7c0,1.1,0.7,2.3-0.6,3.2C350.9,8.8,351.1,7.8,351.3,6.7z" />
	<path display="inline" fill="#EDCABA" d="M393,466.6c-0.2,0.1-0.3,0.2-0.5,0.3c0-1-0.5-2.1,0.6-2.9   C393.1,464.9,393,465.8,393,466.6z" />
	<path display="inline" fill="#181616" d="M477.9,452.7c-1.2-0.8-0.6-1.9-0.6-3C478,450.6,478,451.6,477.9,452.7z" />
	<path display="inline" fill="#24211F" d="M481.5,60.7c1.1,0.8,0.6,2,0.6,3C481.4,62.8,481.4,61.8,481.5,60.7z" />
	<path display="inline" fill="#181616" d="M478.6,456.9c-1.2-0.9-0.6-2-0.5-3.1C478.7,454.8,478.7,455.8,478.6,456.9z" />
	<path display="inline" fill="#181616" d="M480,466.1c-1.2-0.9-0.5-2-0.5-3.1C480.1,464,480.1,465,480,466.1z" />
	<path display="inline" fill="#363130" d="M350.6,10.3c0,0.8,0.5,1.8-0.5,2.4C350.3,11.9,350.5,11.1,350.6,10.3z" />
	<path display="inline" fill="#3B3736" d="M460.3,137.8c0-0.8-0.4-1.6,0.5-2.2C460.7,136.3,460.5,137.1,460.3,137.8z" />
	<path display="inline" fill="#252221" d="M395.3,501.4c1.1,0.6,0.6,1.5,0.6,2.4C395.7,503,395.5,502.2,395.3,501.4z" />
	<path display="inline" fill="#252221" d="M396,505c1,0.6,0.5,1.6,0.5,2.4C396.4,506.6,396.2,505.8,396,505z" />
	<path display="inline" fill="#252221" d="M394.7,498.6c0.8,0.4,0.6,1.1,0.5,1.8C395,499.8,394.8,499.2,394.7,498.6z" />
	<path display="inline" fill="#363130" d="M349.4,21.2c0.2,0,0.4,0,0.6,0c-0.2,0.2-0.5,0.5-0.7,0.7   C349.2,21.6,349.3,21.4,349.4,21.2z" />
	<path display="inline" fill="#393838" d="M417.9,117.3c0.1,0.2,0.1,0.4,0,0.6c-0.1-0.1-0.3-0.2-0.4-0.3   C417.6,117.5,417.8,117.4,417.9,117.3z" />
	<path display="inline" fill="#3B3736" d="M459.6,139.3c0.2-0.3,0.4-0.6,0.6-0.9c0,0.3,0,0.6,0,0.8   C460.1,139.3,459.8,139.3,459.6,139.3z" />
	<path display="inline" fill="#E4E4EB" d="M454,548.8c0.5,0,0.9,0,1.5,0c0.8,2,0.8,4.2,2.8,5.7c1.9-1,3.8-2.6,4.5-4.6   c0-5.9,6.6-10.3,11.8-6.8c0.4,1.9,0.9,3.9,1.3,5.9c-3.7,1.4-10.7-0.2-10,5.7c4.2-0.1,8.2-1.6,12.5-2.2c0.4,0.8,0.8,1.5,1.4,2.7   c-4,0.4-13.4-1.7-12.9,4.1c1.6,0.2,3.2-0.4,4.5,0.6c-0.3,0.6-0.5,1.2-0.9,2c2.4,0.8,4.5,0.4,6.6,0.2c1,0.9-1.8,1-1.4,2.7   c2.7,1.3,6.4,0.3,9.2-0.9c0-0.4,0-0.8,0-1.1l-0.1,0.1c0.2,0,0.5,0,0.7,0c2.9,5,10.6,5.6,11.9,11.4c-1.2,2.4,0.9,4.5-0.3,6.9   c-8.1-0.7-16.7,4.1-24.1-0.1c-3.1-2-6.7-3.4-8.6-6.9c-1.4-2.4-4.6-1.2-4.8,1.4c-2.5,0.3-4.6,0.1-6.5-1.1   C452.7,565.8,454,557.4,454,548.8z M487.3,566.1c-2.5,0.6-5.3-0.3-6.7,1.9C482.2,570.4,486.4,568.7,487.3,566.1z" />
	<path display="inline" fill="#CECEDC" d="M453.9,550.1c0.1,8.1-1.2,16.1-0.6,24.3c1.9,1.2,4.1,1.4,6.5,1.1c0.3-2.6,3.4-3.8,4.8-1.4   c1.9,3.5,5.5,5,8.6,6.9c7.4,4.2,16-0.5,24.1,0.1c0.2-0.5,0.3-1,0.4-1.4c0.2,0.7,0.5,1.4,0.8,2.3c-3.6,1.7-7.1,1.3-10.8,2   c-3.9,2.7-8.8,2.7-13.3,1.1c-0.9-0.2-2.2-0.6-2.7-1.5c-1.3-3.3-4.8-3.9-7-6c-5.2,2.5-10.9,0.7-16.5,0.7c-0.3-0.4-0.5-0.8-0.7-1.1   C451.6,568.9,448.6,558.4,453.9,550.1z" />
	<path display="inline" fill="#232223" d="M485,562.9c0,0.3,0,0.7,0,1.1c-2.8,1.2-6.5,2.2-9.2,0.9c-0.4-1.7,2.4-1.8,1.4-2.7   c0.8-1.1,1.9-0.6,2.9-0.6C481.5,562.6,483.4,562.5,485,562.9z" />
	<path display="inline" fill="#C0DBE1" d="M471.6,559.9c-0.6-0.8-1.6-0.3-2.3-0.6c3.8-1.4,7.7-1.2,11.8-2c0.4,0.4,0.8,0.9,1.5,1.7   C478.6,558.9,475,558.9,471.6,559.9z" />
	<path display="inline" fill="#B7CED4" d="M485,562.9c-1.6-0.4-3.5-0.2-4.9-1.3c2-0.5,4.1-1.9,5.1,0.6   C485.1,562.4,485,562.7,485,562.9L485,562.9z" />
	<path display="inline" fill="#232223" d="M484.9,561.6c-0.2-0.3-0.5-0.6-0.7-0.8C484.5,561.1,484.7,561.4,484.9,561.6z" />
	<path display="inline" fill="#232223" d="M486.4,563.6c-0.2-0.2-0.5-0.5-0.7-0.7C485.9,563.1,486.2,563.4,486.4,563.6z" />
	<path display="inline" fill="#232223" d="M487.1,564.3c-0.2-0.2-0.5-0.5-0.7-0.7C486.6,563.9,486.9,564.1,487.1,564.3z" />
	<path display="inline" fill="#232223" d="M485,562.9c0.1-0.3,0.2-0.5,0.3-0.8c0.2,0.2,0.3,0.5,0.5,0.7   C485.5,562.9,485.2,562.9,485,562.9z" />
	<path display="inline" fill="#EDCABA" d="M449.6,175.2c0,0.9,0,1.8,0,2.7c-4.6,2.2-10.2,11.6-15.3,4.7c-0.2,0.8-0.3,1.2-0.3,1.6   c-0.4-1-0.8-1.9-1.2-2.9c1.9-1.6-0.6-3.8-0.7-1.3c-4.4-5.2-6.3-11.7-7.2-18.2c0.1-0.1,0.2-0.2,0.3-0.3c3.4,2.8,7.3,5,11.1,7.5   c0.3-0.4,0.5-0.7,0.7-0.9c1.2,1.4,2.1,2.6,4.2,2.1c0,0.4,0,0.8,0,1.3c2.7,0.8,5.2,1.5,7.6,2.1C449.1,174.2,449.4,174.7,449.6,175.2   z M428.4,165.6c0.1,4,2,7.5,4.1,11.1C432.7,174.1,432.6,173.9,428.4,165.6z" />
	<path display="inline" fill="#EBC8B8" d="M421.5,156.2c1-1.4,0.9-3.3,1.4-5l0,0c0.2-0.3,0.4-0.7,0.6-1c-0.6-0.5-1.3-0.5-2.1-0.5   c-0.2-0.5-0.4-1.1-0.6-1.7c0.7-0.2,1.4-0.3,2.1-0.5c0.2-1.2,0.4-2.3,0.6-3.4c0.3,0,0.5,0,0.8,0c0.4,0.9,0.7,1.9,1.1,2.8   c0.3,0,0.6-0.1,1-0.1c-0.1,1.1-1.3,0.6-1.9,1.4c0,0.6,0,1.4,0,2.5c0.3,0.3,0.8,0.7,1.3,1.2c-0.4,0.1-0.8,0.2-1.4,0.4   c0.3,2.5-0.7,5.3,0.6,7.4c0.4,0.6,0.6,1.2,0.3,1.9c-1.2,0.7-1,1.7-0.9,2.8c-0.1,5.2-2.2,9.9-5.7,13.6c-0.7-0.4-1.4-0.8-2-1.2   c-0.8-2.4,1.6-3.1,1.8-4.8c-0.6-4.4,3-7.8,2.6-12.1C420.7,158.8,421.3,157.4,421.5,156.2z" />
	<path display="inline" fill="#281E1D" d="M441.2,137c-2-2-3.3,1.4-5.3,0.6c1.8-3.6,13.5-4.6,13.3,0.5c-1.3,0.1-2.5,0.5-3.8,0.2   C444.9,136.4,442.6,137.1,441.2,137z" />
	<path display="inline" fill="#2C221F" d="M425.1,161.6c0.3-0.7,0.2-1.3-0.3-1.9c0.1-1.3-0.2-2.6,0.8-3.5c0.6,1.9,1.2,3.7,1.7,5.3   c3.3,2.3,6.5,4.5,9.6,6.7c-0.2,0.3-0.4,0.5-0.7,0.9C432.4,166.6,428.6,164.4,425.1,161.6z" />
	<path display="inline" fill="#251B1A" d="M445.4,160.5c-0.2-0.4-0.3-0.8-0.5-1.1c3.6-0.7,8.3-2,11.9-1c-0.3,0.5-0.6,0.9-0.8,1.3   C452.5,159.6,449,160,445.4,160.5z" />
	<path display="inline" fill="#261615" d="M445.3,138.3c0.4,0.1,0.7,0.1,1.1,0.2c-0.2,0.5-0.3,1.1-0.6,1.9c-2.8,0-5.5,0-8.3,0   C437.3,138.2,443.7,137.8,445.3,138.3z" />
	<path display="inline" fill="#121110" d="M454.7,162.3c0.1,0.4,0.1,0.8,0.2,1.4c-1.9,0.8-6.1,2.2-6.6-0.5   C449.8,161.3,452.7,160.9,454.7,162.3z" />
	<path display="inline" fill="#2F3231" d="M438.3,126.3c0.1-1.4-0.4-2.6-1.3-3.7c-1-0.2-2-0.3-2.9-0.5l0,0c0-0.9,0.4-1.5,1.1-1.9   c3.9,1.8,3.9,1.8,5.2,4.1C439.8,125,439,125.7,438.3,126.3z" />
	<path display="inline" fill="#372926" d="M449.6,175.2c-0.3-0.5-0.5-1-0.8-1.6c-2.4-0.7-4.9-1.4-7.6-2.1c0-0.4,0-0.9,0-1.3   c3.2,0.8,6.6,0.8,9.3,2.8C449.4,173.4,449.9,174.5,449.6,175.2z" />
	<path display="inline" fill="#D1B9AB" d="M453.9,161.7c-2.2-0.3-4.1-0.4-5.6,1.5c0.1-0.6,0.2-1.3,0.2-1.9c-0.9-0.6-2.3,0.4-3.1-0.8   c3.5-0.4,7-0.8,10.6-0.8c-0.8,1.1-2,0.5-3.3,0.7C453.2,160.9,453.6,161.3,453.9,161.7z" />
	<path display="inline" fill="#302D2B" d="M455.9,152.2c-1.6,1.6-3.5,0.2-5,1.6C448.4,151.2,455.2,149.6,455.9,152.2z" />
	<path display="inline" fill="#A48A7F" d="M425.6,156.1c-0.9,1-0.7,2.3-0.8,3.5c-1.3-2.1-0.4-4.9-0.6-7.4c0.6-0.2,1-0.3,1.4-0.4   C425.7,153.2,425.6,154.7,425.6,156.1z" />
	<path display="inline" fill="#262826" d="M426.3,146.8c-0.3,0-0.7,0.1-1,0.1c-0.5-1.4-1.3-2.7-1-4.2c1.2,0.2,2.2,0.2,2.9,1.5   C426.8,145,426.6,145.9,426.3,146.8z" />
	<path display="inline" fill="#342F2F" d="M458.8,150.9c-0.3,2.6,0.8,5.7-0.5,8C458.3,156.2,457.8,153.5,458.8,150.9z" />
	<path display="inline" fill="#161918" d="M429.9,135.6c-0.4-0.4-0.8-0.8-1.1-1.2c0.2-0.5,0.5-1,0.8-1.7c0.7,0.3,1.3,0.6,1.9,0.8   C430.9,134.3,430.4,135,429.9,135.6z" />
	<path display="inline" fill="#C3C1B7" d="M445.3,138.3c-1.4-0.6-2.7-0.2-4,0.1c0-0.5,0-0.9-0.1-1.4   C442.6,137.1,444.9,136.4,445.3,138.3z" />
	<path display="inline" fill="#2F3231" d="M440.5,124.3c0.1-1.9,0.1-1.9,1.6-2C441.6,123.1,441.4,123.9,440.5,124.3z" />
	<path display="inline" fill="#161918" d="M433.4,127.8c0.5,0,1,0,1.4,0c-0.4,0.5-0.9,1-1.3,1.5   C433.5,128.8,433.5,128.3,433.4,127.8L433.4,127.8z" />
	<path display="inline" fill="#161918" d="M432.8,130.8c-0.1-0.7-0.2-1.3,0.7-1.5C433.3,129.8,433,130.3,432.8,130.8z" />
	<path display="inline" fill="#3B3736" d="M459.5,134.3c-0.3,0.6-0.8,0.6-1.4,0.6C458.6,134.7,459.1,134.5,459.5,134.3z" />
	<path display="inline" fill="#161918" d="M432,132.7c0-0.6,0-1.1,0.6-1.4C432.4,131.8,432.2,132.3,432,132.7z" />
	<path display="inline" fill="#D1B9AB" d="M454.7,162.3c-0.2-0.2-0.5-0.4-0.7-0.6C454.2,161.9,454.4,162.1,454.7,162.3z" />
	<path display="inline" fill="#161918" d="M431.4,133.6c0.2-0.3,0.4-0.6,0.6-0.8C431.8,133,431.6,133.3,431.4,133.6z" />
	<path display="inline" fill="#FBDFD3" d="M420.8,505c-2.1,11.8,0.3,24.4-1.3,35.9c-0.6-0.9-0.3-3.1-2.1-2.4   c0.4,3.6,2.2,7.2,1.8,10.9c-1.4,0.4-2.9,0.8-4.9,1.3c-1,1.4-2.4,3.2-3.8,5.1c-0.6-0.2-1.2-0.5-1.7-0.7c-0.5-12.7,1.1-26.9-3.2-38.5   c-0.5,1.3-0.9,2.4-1.4,3.8c-1.7-13.8-9.1-30.4-4.7-43.6c1.1,1.6,1.4,0.4,1.7-0.7c-0.7-10.8,1.1-23.7,6.3-34.3c2,2,2.9,9,6.3,6.9   c-0.7-2.7-1.3-5.5-2.1-8.5c0.8-0.3,1.5-0.6,2.5-0.9c1.9,3.9,2.3,15.9,8.4,11.5c0.5-1.9,1.8-3.7,0.4-5.7c0.2-2.4-0.8-4.5-1.4-6.9   c4.2-1.2,8.3-2.4,12.3-3.6c0.2,0.4,0.4,0.6,0.5,0.8c-0.6,1.5-2.2,2.6-1.4,4.5c-1.2,0.7-2.2,1.5-2.2,3c0,5.6-4.4,9.6-6.1,14.8   c-0.5,0.1-1.1,0.2-1.7,0.3c-0.8,6.6,1.2,13.1,2,19.5C424,486.5,420.3,495.7,420.8,505z M413.7,449.9c-0.9,0.7-0.9,0.7,0,1.4   C414.6,450.7,414.6,450.5,413.7,449.9z M419.3,461.2c-0.8-1.4-1.5-2.7-2.6-4.7c0.3,4.8,2.2,9,3.6,13.8   C422.8,467.8,419.5,464.1,419.3,461.2z M414,515.9c0.1,1.2,0.3,2.3,1.6,2.7C415,517.7,415.5,516.3,414,515.9z M399.9,482.3   c1.3-0.5,1.2-1.4,0.7-2.5C399.4,480.8,399.4,480.8,399.9,482.3z M415.9,524.2c0.2,0,0.3,0,0.5,0c0-0.9,0.4-3.6-1.3-2.5   C415.4,522.6,415.7,523.4,415.9,524.2z M416,529.1c-0.2,1-0.6,2,0.8,2.6C417,530.6,416.7,529.8,416,529.1z M400.5,486.3   c-0.6,0-0.5,0.9-0.7,1.3c0.3,0.1,0.6,0.1,0.9,0.2C400.6,487.3,401,486.6,400.5,486.3z M415.3,453.6c0.1,0.9,0.1,0.9,0.9,0.8   C416,453.9,415.8,453.6,415.3,453.6z" />
	<path display="inline" fill="#E4E4EB" d="M405.3,562.1c1.4-0.5,2.9-1,4.2-1.4c2.9-6.1,7.5-11.3,14.8-9.4c1.2,2.3,1.2,2.3,1,7   c-3.6-0.1-16.2,1.1-11.3,7.2c3.6-3.3,7.8-4.5,12.7-5c0.6,1,1.2,1.9,1.7,2.7c-3.6,0.9-7.6,0.7-10.8,3.4c-2.8,1-3.1,6.1,0.6,3.5   c0.2,0.1,0.4,0,0.4-0.3c0.1,0.7,0.3,1.5,0.4,2.3c1.4,0.7,2.9,0.1,4.4-0.1c0.3,0.2,0.5,0.3,0.8,0.5c-1.2,0.6-2.6,1.1-2.7,3   c2.2,0.9,10-1.4,11.1-3.5c-0.5-0.6-0.9-1.3-1.2-1.9c0.6-0.4,1.4-0.1,2.1-0.2c4.7,3.8,7.2,9.6,11.8,13.5c0.6,1.8,0.1,3.9,0.3,6   c-10,1.7-27.9,9.8-35.1,0c-1.3-2.7-1.3-6.5-4.1-7.9c-1.4,0.7-0.8,2-1.3,2.9c-1.5-0.2-2.5-1.1-3.3-2.5c1.1-6,3.4-12.9,2.2-19   c-0.3-0.6-0.1-1.1,0.6-1.5C404.7,561.7,405,561.9,405.3,562.1z M434.8,575.9c-4.4-0.7-5.5-0.5-7.2,1.5   C429.7,578.7,432.9,578.2,434.8,575.9z" />
	<path display="inline" fill="#EDCABA" d="M417.1,448.5c-1.7-3-1.7-6.1-3-9.3c-1,0.4-1.6,0.6-2.5,0.9c0.7,3,1.4,5.7,2.1,8.5   c-3.4,2.1-4.3-4.8-6.3-6.9c-3,4.9-3.8,10.8-4.9,16c0-0.8-0.1-1.6-0.1-2.4c-2.3,1.8-3,6.8-2.4,9.9c0.4,0.1,0.7,0.1,1,0.2   c-0.3,1.6-1.2,2.8,0,4.3c-2.2-0.2-1,2.2-0.6,3.4c-1.4,1.1-2,1.4-0.9,2.9c0,0.3,0,0.5,0,0.8c-4.4,13.3,3,29.7,4.7,43.6   c0.5-1.4,0.9-2.5,1.4-3.8c4.4,11.6,2.8,25.8,3.2,38.5c-1.3,0.2-2.3-0.3-3.3-1.1c-2.3-27.8-12.6-55.3-11.7-83.6   c3.8-13.5,10.5-26.8,11.3-40.6c6.3,1.6,12.4,2.1,18.9,1.8c0.1,0.6,0.1,0.9,0.2,1.3c-1.1,0.9-1.9,1.9-2,3.6c6-6.1,5-5.5,14.3-5.8   c-0.8,1.8-1.5,3.2-2.2,4.7c-0.1-0.2-0.3-0.4-0.5-0.8c-4,1.2-8,2.3-12.3,3.6c0.6,2.4,1.7,4.6,1.4,6.9c1.4,2,0.1,3.8-0.4,5.7   c-1.1,0.4-3.1,2.4-3.8,0.5c0.4,0,0.8,0.1,1.3,0.1c-1.9-4.8-1.5-8.7-0.8-13.8C415.8,439.8,417,444.9,417.1,448.5z M404.7,536   c-0.4,1.7-0.8,3,0.9,4.2C405.8,538.6,405.5,537.5,404.7,536z M403.8,444.3c1.2-0.9,1.2-0.9,0.2-2.1   C403.9,443,403.9,443.6,403.8,444.3z M404.6,528.8c-0.5,1.3-0.5,2.4,0.4,4C405.2,531.1,405.6,530.1,404.6,528.8z M405.5,522.1   c-0.3,0.8-0.6,1.1-0.1,1.6C406,523.2,405.9,522.9,405.5,522.1z" />
	<path display="inline" fill="#CECEDC" d="M404.4,561.5c-0.6,0.3-0.8,0.9-0.6,1.5c1.1,6.1-1.1,13-2.2,19c0.8,1.4,1.8,2.3,3.3,2.5   c0.5-0.9-0.1-2.2,1.3-2.9c4.2,2.4,2.3,9.4,7.4,11.2c10.5,3.3,21.4-1,31.8-3.3c0-1.9,0-3.7,0-5.4c1.1,2.1,0.6,4.3,0.4,6.6   c-9.9,5.7-26.2,7.3-36.6,1.7c-2.4-3.7-3.8-7.6-8.9-6.9c-0.9-0.8-2-1.6-3.2-2.6c6-6.7,1.9-16.8,3.8-24.9   C402.2,559.2,403.3,560.3,404.4,561.5z" />
	<path display="inline" fill="#131111" d="M423.4,572c-1.5,0.2-3,0.8-4.4,0.1c-0.1-0.8-0.3-1.6-0.4-2.3c0.5-0.4,1-0.8,1.4-1.2   c3.5,1.1,8-2.3,11.7,0.3c0,0.4,0,0.7,0.1,1c-0.2,0-0.4,0.1-0.5,0.2C428.5,570.4,425.9,570.7,423.4,572z" />
	<path display="inline" fill="#C9D2D9" d="M431.9,569.9c0-0.3,0-0.7-0.1-1c-3.7-2.5-8.2,0.8-11.7-0.3c4-2,12.1-5.3,13.4,1.4   C432.9,569.9,432.4,569.9,431.9,569.9z" />
	<path display="inline" fill="#282220" d="M419.1,549.4c0.4-3.7-1.4-7.3-1.8-10.9c3.5-0.1,1.8,8.4,4,10.2   C420.9,549.9,419.9,549.3,419.1,549.4z" />
	<path display="inline" fill="#353231" d="M420.1,513.5c-0.2-1.7-0.2-3.5,0.5-5.2c0.1,1.1,0.1,2.1,0.8,3c-0.2,6.1-0.1,12.3,0,18.4   C419,525.1,422.2,518.1,420.1,513.5z" />
	<path display="inline" fill="#353334" d="M449.7,555.1c0-0.2-0.1-0.6,0-0.7c2.3-1.9,1.9-4.9,3.5-7.1c0.1,0.6,0,1.2,0.8,1.4   c-0.2,3.9-3.2,6.8-3.5,10.7C450.1,558.1,451,556,449.7,555.1z" />
	<path display="inline" fill="#E0E3E3" d="M406.1,560.7c-1.6-1.6-1.6-1.6-1.5-4.2c1.5,0.4,3,0.8,4.6,1.1   C409.1,559.7,407.7,560.2,406.1,560.7z" />
	<path display="inline" fill="#B39B93" d="M420.1,544.4c-0.2-1.2-0.5-2.4-0.7-3.6c1.3-3,0.2-7.1,0.6-10.5c1.6,4.3,0.3,9.5,0.7,14.1   C420.5,544.5,420.3,544.5,420.1,544.4z" />
	<path display="inline" fill="#6F6560" d="M420.1,544.4c0.2,0.1,0.4,0.1,0.6,0.1c0.9,1.2,0.5,2.8,0.6,4.2   C420.2,547.9,420.6,545.8,420.1,544.4z" />
	<path display="inline" fill="#131111" d="M418.1,570.1c-0.3,0.2-0.6,0.4-1,0.6C417.5,570.5,417.8,570.3,418.1,570.1z" />
	<path display="inline" fill="#131111" d="M421,568c-0.3,0.2-0.6,0.4-1,0.6C420.3,568.4,420.7,568.2,421,568z" />
	<path display="inline" fill="#CECEDC" d="M405.3,562.1c-0.3-0.2-0.6-0.4-0.9-0.6C404.7,561.7,405,561.9,405.3,562.1z" />
	<path display="inline" fill="#CCD2E9" d="M482.9,235.9c-0.2,5.4,1.8,11.1,0.1,16.2c-1.8-4.5-3.1-8.7-8.5-9.5   c0.1,1.2,0.9,1.8,1.6,2.3c0.4-0.2,0.7-0.3,1-0.4c3.2,3.9,4.2,7.9,5.5,13c0.5-1.3,0.8-1.9,1-2.5c0.2,0,0.4,0,0.7,0   c1.8,8.8-3.2,17.8-2.1,26.8c-0.2,9.2-1,18.5-3.9,27.5c-10,4.4-21.6,4.2-32.3,3.7c0.7-0.6,1.3-1.2,2.3-2.1   c-0.7-5.6-2.8-11.1-3.8-16.9c-0.9-0.7-1.7-1.3-2.3-1.7c-0.6-2.5-1.2-4.7-1.7-7c1.1-1.2,0.9-2.5,0.4-4.2c-2.9,1.5-4.4,4.9-4,7.9   c-0.8,1.1-1.5,2-2.3,3c1.7,2.7,2.4,6.2,4.6,8.1c2.4,3,0.1,7.9,2.5,10.5c1.5,0.2,2.4,1,3,2.3c-0.5,0-1-0.1-1.4-0.1   c-1.3-0.9-1.7-0.9-2.8,0.1c-4.7,0.4-10.2-1.8-14.9-2.9c-0.2-16.8-6.5-33-9.7-49.2c3.6,0.4,7.1,1.5,10.2-1.2   c-2.2-3.1-5.3-4.2-9.4-4.1c-0.8-0.9-1.5-2.3-2.7-3c-4.2-2.8-2.9-9.1-7.4-11.8c0.2-0.6,0.3-1,0.4-1.5c6.1-4.8,10.8-10.7,12.7-18.3   c5.6,1.6,10.6,4.4,16.6,4.2c-4.9-4.2-11.9-4.8-15.7-10.3c-0.4-10-1.1-20-3.8-29.7c0.2-0.6,0-1.4,0.9-1.6   c17.1,32.1,37.3,20.1,38.9,32.7c-1.2,4.1,4.6,6.2,7.8,5.9c-1.3-3.2-3.3-5.3-6.2-6.5c-0.5-0.7,0.2-1.9-1-2.4   c-0.5-0.9-0.9-1.9-1.4-2.8l0,0c1-0.1,2.1,0.2,3-0.6c9.1-1.3,9.4-11.2,3.9-16.9c-1.5-1.6-2.9-3.5-2.7-6   C476.9,201.8,482.9,214,482.9,235.9z M425,245.8c-2.7-4-7.1-4.6-11.6-4.7c-6.2,5.3,4.8,7.8,9.2,6.9c0.6-0.7,1.1-1.5,1.6-2.2l0,0   C424.4,245.8,424.7,245.8,425,245.8c1.2,1.8,7.9,1.7,6.7-1c-1.9,0.5-4.7-0.5-6,1C425.4,245.7,425.2,245.7,425,245.8z M465.1,248.7   c-0.3-2.1-0.6-4.3-1.9-7c1.3,9.2,0.6,17.9-0.6,26.9C466.7,263.8,466.3,255.1,465.1,248.7z M426.3,254.1c2.8,3.5,5,3.9,9.2,1.5   C433.7,252.8,427.5,248.8,426.3,254.1z M443,266.1c1-4.8,1.8-9,4.4-13.2C443.1,253.3,440.6,263.3,443,266.1z M427.6,270.5   c-0.3-2.7-4.5-5.1-6-2.3C421,270.9,425.3,272,427.6,270.5z M441.7,279.5c0.3,0,0.5,0,0.8,0c0.1-2.7,1.2-5.3,0.7-8.6   C441.4,273.8,441.3,276.6,441.7,279.5z M464.2,278.7c0.5-3.4,0.5-3.8-0.3-6.2C462.7,273.4,462.6,278.2,464.2,278.7z M425.4,236.9   c3.7,0.8,4.6,0.7,5.5-0.8C428.9,235.8,427.2,236.3,425.4,236.9z M425.9,277c-1.6,1.2-1.5,1.5,0.2,2.6   C427,278.6,426.7,277.8,425.9,277z M463.7,280.3c-1.2,2.2-1.2,2.2,0,3.4C463.7,282.5,463.7,281.5,463.7,280.3z M418.3,236.9   c0.6,1,2,0.2,1.5-0.7C418.9,235.6,418.5,236.1,418.3,236.9z M469.6,237.5c-0.5-0.5-0.8-1-1.3-0.5   C468.5,237.9,468.7,238,469.6,237.5z M416.4,237.2c-0.6,0.8-0.7,1,0.1,1.4C417.2,238.1,417.2,237.9,416.4,237.2z M462.3,295.2   c-0.5,1.1-0.7,1.2,0,1.9C463.3,296.5,463,296.6,462.3,295.2z M430.5,282.2c-1,0.7-1,0.7,0,1.7C430.5,283.2,430.5,282.7,430.5,282.2   z M421.6,225.4c0-0.3,0-0.5,0-0.8c-0.7,0.1-1.4,0.1-2.1,0.2c0,0.2,0,0.3,0,0.5C420.2,225.3,420.9,225.3,421.6,225.4z M424.1,236   c-1.2,0-1.8,0-2.5,0C422.1,236.9,422.7,236.8,424.1,236z M433.9,286.7c-0.8,0.8-0.2,1.6,0.6,1.1   C434.3,287.5,434.1,287.2,433.9,286.7z M462.5,293.5c0.2,0,0.4-0.1,0.7-0.1c-0.1-0.5-0.1-1.1-0.2-1.6c-0.1,0-0.3,0-0.4,0   C462.5,292.4,462.5,292.9,462.5,293.5z M472,239.9c-0.5,0.2-0.4,0.4-0.1,0.8C472.4,240.5,472.2,240.3,472,239.9z" />
	<path display="inline" fill="#FBDFD3" d="M366.9,51.4c-0.5,0.5-1,1-1.5,1.5c-0.7-3.2-1.8-5.8-4.7-7.7c-1.7-2.9,0.6-6.9-2.3-9.1   c-0.9-1.8-0.8-4.1-2.6-5.9c0,4.9,3.8,8,2.7,12.9c-0.7,6,0.7,7.9,5,11.4c-1.7,24.1,6.1,47.4,5.9,71.3c1.1,0.4,1.1-0.6,1.8-0.7   c8.5,8.9,13.6,21.7,16.4,33.6c-0.1,5.7,2.7,11.2,6.2,15.6c-0.2,0.6-0.4,1.2-0.5,1.6c5.1,7,5.8,16.5,11.9,22.9   c4.9,6.6,6.1,14.7,12,21.1c0.9,7.1-5.7,13-10.9,16.8c-7.2-7.5-12-17.5-17.1-26.6c-2.4-7.7,0.7-16.6-3-24c-5.7-2.1-3.9,4.4-4.3,7.9   c-22.4-23.9-27-43.3-25.6-75.3c-0.6-0.5-1.3-1-2.1-1.6c-0.7,0.7-1.2,1.3-1.9,2.1c-4.5-17-0.3-35.1,2-52.2   c1.5-20.1-5.2-39.8-1.9-59.7c0.4,0,0.8,0,1.2-0.1c0.1,6-0.4,11.9,0.2,18.3c4.3-2.3,0.4-8.7,2.6-12.1c0.3,2.5,0,5,0.7,7.4   c3.5-2.1-1.9-17.9,2.1-20.8c5.1,1.8,0.7,15.2,3.4,20.5c3.4-1.9-1.9-15.4,2.6-15.5c1.7,8.8,0.4,18.2,3.2,26.9   c-0.1,0.2,0,0.4,0.1,0.6c0,2.8-2.7,3.1-2.8,5.9c2-1.9,4-3.1,3.6-5.8c0.6-0.3,3.2-0.7,1.9-1.5c-1.4-2.8-0.2-7,2.1-8.9   c2.2,7-1.3,15.4-1.5,22.7C370.1,47.1,368.5,49.3,366.9,51.4z M365.6,158.8c5.8,8.4,12,20.8,23.3,22.3c-5.1-9.8-14.9-16-19.1-26.3   c-0.5-1.1-1.2-2-2.8-2.3c-0.6,0.5-1.4,1.2-2.1,1.7c0,1.2,0.9,2,0.1,2.9C365,157.4,365.9,158.3,365.6,158.8z M359.5,25.8   c2.3-0.3,3-0.2,4.6-0.6C362.8,23.7,362.5,23.7,359.5,25.8z M357.2,57c1.5-2,1.5-2.6,0-3.9C357.2,54.4,357.2,55.6,357.2,57z    M394.6,192.2c-0.1-1.6-0.1-1.6-1.3-2.9C392.7,190.7,393.5,191.4,394.6,192.2z M392.2,184.3c-0.4,0.2-0.7,0.4-1,0.5   c0.1,1.1,0.5,1.8,2,2.4C392.8,186,392.5,185.2,392.2,184.3z M397.7,202c1.1-0.8,0-2.6-1-1.6C396.4,201.2,396.8,201.8,397.7,202z    M357.5,65.7c0.3-2.1,0.3-2.1-0.5-3.4C356.9,63.5,356.6,64.5,357.5,65.7z M357.4,70.2c-0.6,1.3-0.8,2.2,0.2,3.2   C357.9,72.3,358.3,71.4,357.4,70.2z M395.5,194.8c-0.6,1.1-0.2,1.5,0.8,1.9C396.9,195.7,396.7,195.1,395.5,194.8z" />
	<path display="inline" fill="#EECABA" d="M350.7,23.2c3.7,14.2,3.2,29.3,3.5,43.8c-2.4,17.1-6.5,35.2-2,52.2   c0.7-0.8,1.2-1.3,1.9-2.1c0.8,0.6,1.5,1.1,2.1,1.6c-1.4,32,3.2,51.4,25.6,75.3c0.4-3.5-1.4-10,4.3-7.9c3.7,7.4,0.6,16.3,3,24   c5.1,9.1,9.9,19.2,17.1,26.6c-2.6,2.5-5.8,3.5-9.5,3.3c-9.5-8.2-12.2-20.2-14.1-32.2c-28.9-34-22.9-37.5-31.8-78.2   C338,105,353,78,350,51.9c0.2,0,0.4,0.1,0.9,0.1c0.2-9.5-0.2-19.1-0.8-28.5C350.3,23.4,350.5,23.3,350.7,23.2z M382.9,199.3   c-1.9,1.3-2,5.8,0.7,6.1C384.3,203.1,383.9,201.2,382.9,199.3z M355.5,128.6c-1.4,1.7-1.6,2.5-1.4,4.8   C355.8,132.7,355.9,132.5,355.5,128.6z M382.8,190.6c-0.5,1.3-0.6,2.2,0.7,2.8C384.3,192.4,384,191.6,382.8,190.6z M383.3,197.5   c0.2,0,0.4,0,0.6-0.1c-0.1-0.5-0.2-1-0.3-1.5c-0.1,0-0.2,0-0.3,0C383.3,196.5,383.3,197,383.3,197.5z" />
	<path display="inline" fill="#B7BDD5" d="M407.2,239.3c-0.1,0.4-0.2,0.9-0.4,1.5c4.5,2.7,3.2,9,7.4,11.8c1.2,0.7,1.9,2.1,2.7,3   c4-0.1,7.1,1,9.4,4.1c-3.1,2.7-6.6,1.6-10.2,1.2c3.2,16.2,9.4,32.4,9.7,49.2c-5.2-0.5-10-2.4-14.7-4.3c-2.5-3.4,0.9-7.1,0.4-10.8   c0.3-18.5-6.4-35.9-12.6-52.9C401.9,241.8,404.5,240.9,407.2,239.3z M420.2,259c1.5,1.2,2.2,1.2,3.4,0.3   C422.4,259.2,421.7,259.1,420.2,259z" />
	<path display="inline" fill="#FBDFD3" d="M418.6,178c3.4-3.8,5.6-8.4,5.7-13.6c0.1-0.8-0.5-1.9,0.6-2.5c0.8,8.6,5.2,16.2,10,23.2   c0.2-0.3,0.4-0.5,0.6-0.8l0,0c6.3,3.2,9.4-4.1,14.2-6.3c0.4,2.6,0.5,4.9,1.4,7.5c0.9-0.7,1.5-1.2,2.1-1.8   c34.6,35.9-19.1,31-32.4-0.8c1-0.4,1.7,1.2,2.5-0.4C422.2,180.6,420.1,179.6,418.6,178z M446.5,197.8c3.6,2.6,5.6,6.3,8,9.9   c2.1-6.5-6.1-10.5-11.1-12.7C444.1,196.7,445.4,197.3,446.5,197.8z M443,188.7c0.4,2.8,8.7,4.7,8,0.5   C447.8,191,446.1,188.4,443,188.7z M428.5,186.4c-2.4-2.1-2.4-2.1-3.9-1.6C425.7,185.5,426.5,186.5,428.5,186.4z M455,200.5   c0.4-0.6,0.8-1.1,1.2-1.7C454.5,198.6,454.5,198.7,455,200.5z M435,190.1c0.8,1.3,0.8,1.3,1.8,0.9   C436.3,190.3,435.9,190.1,435,190.1z M430.6,187.2c-0.1,0.1-0.2,0.3-0.3,0.4c0.4,0.2,0.7,0.4,0.9-0.2   C431,187.4,430.8,187.3,430.6,187.2z" />
	<path display="inline" fill="#EDCABA" d="M417.2,222.6c-0.1-1.1-0.1-2.1-0.2-2.7c-5.9-6.4-7.1-14.6-12-21.1   c-6-6.4-6.7-15.9-11.9-22.9c0.1-0.4,0.3-1,0.5-1.6c-3.5-4.4-6.3-9.9-6.2-15.6c0.8,2.2,0.9,4.3,2.5,6.2c0.5-0.8,0.9-1.3,1.4-1.9   c0.7,0.5,1.3,1,1.9,1.4c-0.2,0.1-0.4,0.3-0.6,0.5c0.4,2.1,2.2,3.1,3.5,4.6c0.9,0.1,1.9,0.1,2.8,0.2c9.5,10.5,11.3,25.7,17,38.4   c0.2-0.2,0.4-0.3,0.5-0.5C417,212.3,418.1,217.9,417.2,222.6z M404.5,192.1c0.7,1,0.3,2.7,1.8,2.7c-0.7-1.4,0-2.9-1.1-4.1   c-0.8-3.5-5.9-18.2-9.8-16.3C398.6,180.2,401.7,186,404.5,192.1z M406.8,196c-1.1,1,0.3,4.1,1.8,2.6   C408.1,197.7,408.4,196.3,406.8,196z M411.9,209c-0.2-1.8-0.2-1.8-1.1-3.1C410.3,207.2,410.6,208.2,411.9,209z M409,201.2   c-0.3,1.4-0.3,1.4,1.2,2C410.1,202.3,409.7,201.9,409,201.2z M392.7,169.7c-0.1,1.9-0.1,1.9,1.1,1.4   C393.5,170.7,393.2,170.4,392.7,169.7z" />
	<path display="inline" fill="#FADED2" d="M416.6,207.5c-0.2,0.1-0.3,0.3-0.5,0.5c-5.7-12.7-7.4-27.8-17-38.4   c-0.9-0.1-1.8-0.1-2.8-0.2c-1.4-1.4-3.2-2.4-3.5-4.6c0.2-0.2,0.4-0.3,0.6-0.5C415.8,171.1,414.2,187.7,416.6,207.5z" />
	<path display="inline" fill="#B8BED6" d="M420.6,211c0.1,1.3,0.1,2.6,0.2,3.9c3.7,5.6,10.8,6.1,15.7,10.3c-6,0.1-10.9-2.6-16.6-4.2   C420.2,217.7,419.7,214.2,420.6,211z" />
	<path display="inline" fill="#392A2B" d="M439.8,204.8c3.2,1.5,6.6,2.5,10,3.5c-3.6,1.7-7.6-1.1-10.7-2.7   C439.3,205.3,439.5,205,439.8,204.8z" />
	<path display="inline" fill="#97A0B2" d="M417.9,183.6c-0.9,0.2-0.7,1-0.9,1.6c-0.7-1.7-1.4-3.3-2.1-5c0.2-0.3,0.5-0.5,0.7-0.8   C416.4,180.8,417.2,182.2,417.9,183.6z" />
	<path display="inline" fill="#656C79" d="M415.7,179.4c-0.2,0.3-0.5,0.5-0.7,0.8c-1-1.1-1.4-2.5-2.1-4.1   C414.6,177.2,414.5,177.2,415.7,179.4z" />
	<path display="inline" fill="#615D59" d="M421.4,182.9c-1.5,0.3-2.3-1.1-2.9-2.4C420,181.1,420,181.1,421.4,182.9z" />
	<path display="inline" fill="#1D1E1E" d="M428,127.9c1,1.6-0.3,2.1-0.6,3c0.4,0.3,0.7,0.6,1.3,1c-0.9,1-1.6,1.9-2.7,3.1   c-0.3-1.1-0.4-1.8-0.6-2.6c-0.6,0.3-1.2,0.7-1.9,1.1c-1.3-0.6-2-2.2-0.6-3.2c0.7,0.8,1.7,0.8,2.8,0.7   C426.4,130.1,427.1,129.2,428,127.9z" />
	<path display="inline" fill="#1A1C1C" d="M450.9,120.7c-3-0.3-6.2-0.8-8.3-2.7c0.9-0.9,1.9-1.5,3.2-2.5c0,0.9,0.1,1.4,0.1,2   C447.1,119.1,449.5,118.8,450.9,120.7z" />
	<path display="inline" fill="#BCA498" d="M424.3,142.7c0,0.5,0,1-0.1,1.4c-0.3,0-0.5,0-0.8,0c0.1-2.4-3.4-3-2.7-5.6   c2.4-0.5,2.8,2,3.4,3.6C424.1,142.3,424.1,142.5,424.3,142.7z" />
	<path display="inline" fill="#C2A99C" d="M417.9,141.4c1.3,0.4,1.3,0.4,2.5,1.7c-0.9,0.7-0.6,2.1-1.9,2.5   C417.6,144.2,416.6,142.9,417.9,141.4z" />
	<path display="inline" fill="#2D2E2E" d="M427.5,122.4c1.8-3.4,2.8-4.2,4.5-4C431.1,120.1,430,121.4,427.5,122.4z" />
	<path display="inline" fill="#1D1E1E" d="M420.7,134.6c-0.9-1.5-0.9-3,0-4.4C421.6,131.7,421.6,133.2,420.7,134.6z" />
	<path display="inline" fill="#2A2D2D" d="M445,111.4c-1.3,1.1-2.3,1.9-3.3,2.7C441.5,111.7,442.4,110.8,445,111.4z" />
	<path display="inline" fill="#2A2B2B" d="M461.5,116.3c-0.5-1.2-0.8-1.8-1-2.3c0.8-1.2,1.8-1,3.1-0.8   C463,114.1,462.4,114.9,461.5,116.3z" />
	<path display="inline" fill="#212222" d="M430.3,112.3c-0.3,1.8-0.3,1.8-3.4,2.6C425.8,113.4,429.1,113.2,430.3,112.3z" />
	<path display="inline" fill="#282929" d="M456.8,107.7c0.8,1.6,0.8,3.1-1.2,3C455.2,109.6,456,109,456.8,107.7z" />
	<path display="inline" fill="#313131" d="M432,128.6c0,0.2,0,0.4-0.1,0.6c-0.2-0.2-0.5-0.5-0.7-0.7c0.1-1.9,0.1-1.9,1.5-2.1   c0,0.5,0,1,0,1.4l0,0C432.5,128.1,432.3,128.3,432,128.6z" />
	<path display="inline" fill="#161918" d="M431.3,128.5c0.2,0.2,0.5,0.5,0.7,0.7c-0.1,0.9-0.2,1.5-1.1,1.9   C430.5,130.1,430.3,129.2,431.3,128.5z" />
	<path display="inline" fill="#1D1F1F" d="M448.7,114.1c-0.5,1.6-0.5,1.6-1.7,1.2C447.2,114.3,447.9,114.2,448.7,114.1z" />
	<path display="inline" fill="#1A1D1D" d="M427.1,119.4c0-0.8,0.1-1.6,1.2-1.8C428.7,118.8,428.3,119.4,427.1,119.4L427.1,119.4z" />
	<path display="inline" fill="#1A1C1C" d="M449.6,119.4c0.2-0.5,0.3-0.9,0.5-1.6c0.6,0.3,1,0.6,2,1.2   C450.9,119.2,450.3,119.3,449.6,119.4z" />
	<path display="inline" fill="#1A1D1D" d="M427.1,119.4c-0.3,0.4-0.6,0.8-1.1,1.4C425.6,119.3,426.4,119.4,427.1,119.4L427.1,119.4z   " />
	<path display="inline" fill="#161918" d="M432.7,127.9c0-0.5,0-1,0-1.4c0.7,0.2,0.7,0.8,0.7,1.4l0,0   C433.2,127.8,433,127.8,432.7,127.9z" />
	<path display="inline" fill="#1E1816" d="M424.1,142.1c-0.2-0.5-0.3-1-0.5-1.6C424.3,140.9,424.3,141.5,424.1,142.1z" />
	<path display="inline" fill="#161918" d="M432,128.6c0.2-0.2,0.5-0.5,0.7-0.7C432.5,128.1,432.3,128.3,432,128.6z" />
	<path display="inline" fill="#2F3231" d="M434.1,122.2c-0.1,0.2-0.2,0.3-0.3,0.5C433.4,122.2,433.9,122.3,434.1,122.2L434.1,122.2z   " />
	<path display="inline" fill="#5876E8" d="M491.4,341.1c-2,14.5-5.7,28.8-4.5,43.7c-0.6,13.5,1.3,27.3-3.6,40.2   c-5,2-12.1,5.5-16.9,1.3c-1.1-8.9-7.4-17.1-6.9-25.7c0.6,0.2,1.1,0.4,1.6,0.6c3.9,5,7.5,12.2,13,15.2c-3.6-4.2-3.5-9.7-6.5-14.5   c-2.2-5.4-7.3-9.7-6.6-15.9c-0.7-0.5-1.3-1.5-2.1-1.6c-1.6-0.5-2.6-3-3.5-0.2c-5.9,14.4-10.3,29.3-12.9,44.5   c-1.4,0.8-2.8,1.1-4.3,0.4c-5.4-1.1-11.2,0.6-16.7,0.3c-1.1-38.7-20-65.9-4.3-106.7c-0.7,0.3-1.1,0.5-1.5,0.7   c-1.3-2.3-1-5.6,0.6-7.6c3.2-0.3,6.3,1.4,9.4,2.1c0,3.6,0,7.2,0,11c1.2,0.1,6.9-5.2,4.4-5.8c-0.8,0.8-1.6,1.6-2.4,2.4   c-0.2-0.4-0.6-0.9-0.4-1.2c0.9-2,0.2-4.1,1.4-6c1.8,0.1,3.9,0.1,5.3,1.2c-0.4,11.1-1.7,23.3,2.3,33.6c1.2-11.5,2.8-22.3,2.3-33.9   c0.8-0.1,1.7-0.2,2.5-0.2c0-0.1,0-0.3,0-0.4c-0.4-0.1-0.8-0.1-1.2-0.2l0,0c-0.2-0.8-0.8-0.8-1.5-0.7l0,0c-1.2-1.8-1.3-1.9-3.6-0.7   c-3.9-0.6-8.2-0.1-11.9-1.6c1-0.4,1.8-0.9,2.5-1.6c0.9,1,0.9,1,1.6,0.2c5.1-1.9,12.1,2.2,17.7,0.3c3,1.3,7.1-0.9,9.4,1.4   c0.7-0.8,1.5-1.3,2.6-0.8c0,0.8,0,1.7,0,2.5c-2.7,0.4-5.4-0.2-8.3,0.4c5.7,2.8,12.1,0.7,18.1-0.4c-0.3-0.4-0.4-0.6-0.5-0.7   c0.1-0.7,1.3-1.3,0.1-2c-0.5-2.3,2.2-0.8,3.1-0.1c1.2-2.1,2.6-1.5,4.5,0.2c0,0.3-0.1,0.7-0.1,1c-1.1,0.4-1.3,0.4-2.8,0.7   c4.5,0.4,6.2,0.9,7.4-2.4c1.1-0.2,2.2-0.4,3.3-0.7c1.1,1.7,2.6,3.7,3.7,5.2c0.6,10.2-1.8,21.2,3.4,30.1c-0.4-9.3-3.6-18.1-1.4-26.7   C490.2,328,490.3,334.8,491.4,341.1z M481.4,399.8c0.2-1.1-0.3-1.9-1.4-2.9c0.3,1.8-0.2,3.2,0.7,4.4c0.1,1.9-0.2,3.9,0.6,5.8   C481.7,404.6,481.6,402.2,481.4,399.8z M463.1,343.2c-1.1-2-0.7-4.6-3-5.6c1.9,4.4,4.3,15.8,7.1,15.7   C466.4,349.8,464.4,346.7,463.1,343.2z M456,360.2c-1.6-0.2-3-1.3-4.9-0.4c2.3,0.8,4.3,1.5,6.3,2.2c1.3,5.9-3.7,10-2.5,15.7   c2.1-1.8,1.3-4.7,2.6-7c5.3,2.8,8.5,8.4,14.6,10.8c-2.9-7-8.6-11.1-13-16c-0.1-1.1-0.4-2.1,0.8-2.6c0.8,0.3,1.6,0.5,3.2,1   c-1.4-2-2.3-2-4.1-3c0-0.2,0-0.4,0.1-0.7c0.4-0.4,0.8-0.8,1.2-1.4c3.9,1.1,8.1,4.7,12.2,3.2c-4.1-3.9-8.3-6.8-13.5-8.2   c-0.4-9.7,0.6-19.1,0.4-28.8c-2.9,8.4-1.4,19.1-1.9,28.3C456.6,355.6,460.2,360.7,456,360.2z M443.4,330c0.8-3.1,0.9-6.8,0.4-9.9   c-3.5,8.1-2.5,25.5-2.1,29.6C443.6,343,443.4,336.8,443.4,330z M480.1,318.1c-3.9,3.3-3.4,21.5,1.7,23.5   C479.1,333.8,479.1,326.4,480.1,318.1z M434.6,371.3c3.2,0.3,14.1-0.3,15.7-2.5C444.8,368.4,440,369.2,434.6,371.3z M452.2,378.7   c-4.7,0.4-9.6,1.9-14,4C441.8,382.6,450.3,381.7,452.2,378.7z M461.8,376.8c-0.2,3.1-0.7,5.5,1.2,8.3   C463,382.1,463.8,379.6,461.8,376.8z M465.5,330.7c1.2-2.5,1.1-5,0-8.3C464.9,325.6,465.1,328.1,465.5,330.7z M455,328.4   c-2.3,1.3-0.5,4.3,0.9,4.7C455.6,331.5,455.3,330,455,328.4z" />
	<path display="inline" fill="#4B65C5" d="M415,326.9c-11.5,48.1,4.8,59.1,6.4,102.4c-0.9,0-1.9,0-2.8,0   c-1.5-17.7-5.9-35.7-9.9-52.8c-0.7,1.4-1.4,6.3-1.5,9.8c-1.8-1.4-0.7-8.8-3.3-8.1c1.5,4.4,1,10,4,13.5c-0.4,0.5-0.9,1-1.4,1.6   c1,10.2,4.2,19.7,2.3,29.9c1.9-0.9,0.7-2.7,1.9-4c1.8,3.1-0.4,7.4,2.9,9.8c-8.9-0.7-16.3-5.2-24.2-9.1c-7.6-5-1.6-14.1-0.4-21   c1.5-6.5,0.3-13.3,1.4-20c-0.2-6.7,4.6-13.3,3.7-19.7c-1.1-1.3-0.7-2.6-0.7-4c2.1-15.8,0.2-34.6,11.8-46.9c4.6,1.6,8.8,4.1,12.7,7   c-0.6,0-1.2,0.1-1.7,0.1c-1.6,2.1-1.8,5.4-0.6,7.6c-0.6,1.6-3.7,3.6-2.8,5C413.6,328,414.3,327.4,415,326.9z M400.3,403.4   c-0.3,1.8-0.6,3.6-0.9,5.5c-0.3,0.2-0.6,0.3-1.1,0.6c-1.9-3.6-2.1-10-5.2-12.1c1,4.7,2.5,9.5,4.9,13.7c1.4,3.7-2.5,10.1,1.2,12.2   c0.5-5.6,1-10.8,1.7-16.3c1.1-6.2,1.5-13.1,1-19.7C400.1,392.7,401.2,397.8,400.3,403.4z M407.2,339c-1.5,6.2-2,13.5-2.7,20.1   c3.9-15.2,4.4-30.7,8-45.9C408.5,321.1,408.2,330.3,407.2,339z" />
	<path display="inline" fill="#5876E7" d="M407.2,386.4c0.1-3.5,0.9-8.5,1.5-9.8c3.9,17.1,8.4,35.2,9.9,52.8c-1.6,0-3.3-0.1-4.9-0.1   c-3.3-2.5-1.1-6.7-2.9-9.8c-0.4-3.7,0.9-6.4-0.7-10.4c-0.3,0.7-0.5,1-0.6,1.3l0,0c-2.3-4.9-1.6-11.4-2.9-16.8   c0.5-0.6,0.9-1.1,1.4-1.6C407.7,390,407.4,388.2,407.2,386.4z" />
	<path display="inline" fill="#312A27" d="M424.9,433.6c-0.5,1.2-1.2,2.1-2.7,2.8c0-1.8,0.9-2.8,2-3.6   C424.4,433.1,424.6,433.3,424.9,433.6z" />
	<path display="inline" fill="#353231" d="M420.8,505c-0.2-2.2-0.4-4.4,0.5-6.5C421,500.6,422,503.2,420.8,505z" />
	<path display="inline" fill="#353231" d="M422.1,505.7c0.1,1.5,0.1,3-0.6,4.4C421.6,508.5,420.9,506.8,422.1,505.7z" />
	<path display="inline" fill="#030203" d="M443.4,430.1c-0.2,0.9-0.9,0.7-1.5,0.7C442.1,430,442.8,430.1,443.4,430.1z" />
	<path display="inline" fill="#FBDFD3" d="M499.2,144.1c-2.2,13,1.3,27.1-6.4,39.2c-0.6,0.1-1,0.1-1.4,0.2   c-2.8,4.1-5.3,8.2-7.9,12.4c-2.7-4.8-2.5-11.5-6.9-15.6c1.7,10.6,7.6,20.4,5.4,31.4c-7.1-10.2-12-23.5-23.9-30   c0.5-5.2,4.1-9.7,5.6-14.4c3.8-2,6.6,1.1,7.1,5.1c0,2,2.1,0.9,3.4,1.9c1.6-2.4,1-5.9,0.4-8.7c-0.4-12,7.3-22.8,13.1-32.6   c-5-22.6,1.5-45.1-1.3-67.7c1.6-0.6,3.4,0.2,4.2-1.5c1.8,0.6,3.4,1.2,5,1.8c1.9-1.8-1.5-3.4-2.3-4.5c-2-1.1-3,0.6-4.3,1.2l0,0   c-11.6-13.5-7.6-9.1-10.2-25.3c1.8-0.1,1.9,1.6,2.6,2.6c0,1.7,0,3.5,0,5.2c1.2,1,2,1.6,3.2,2.7c0.5-2.1-1.4-2.5-2-3.8   c0.2-2.1,0.3-4.3-0.5-6.4c0.1-0.2,0-0.4-0.2-0.5c0.9-5.7,1.7-11.1,2.9-16.9c0.7,0,1.4,0,2,0c0.8,6.4-1.2,14.6,1,20.3   c1.2-7.4-0.1-14.9,0.6-22.4c0.5-0.1,0.9-0.2,1.3-0.3c2.6,2.5,0.3,5.8,1.6,9c1-2.2,0.1-4.5,1.1-6.4c2.3,1.1,0.6,3.7,2.8,4.7   c0.1,4.7,1.5,9.4,0.1,14.1c-0.1,0.5,0.5,1.2,0.8,1.9c2.8-4.8-0.3-10.2,0.6-15.3c0.5,0.1,0.8,0.1,1.2,0.2c2.5,9,0.6,19.2,2.7,28.1   c-1.2,7-4.5,13.1-3.9,19.9C504,96.8,504.3,120.9,499.2,144.1z M491.5,33.2c0.2,2,0.5,4,0.7,6.1c2.8-0.8,0.3-4.6,2-6.5   c-0.6-0.6-1.2,0-1.9,0.2c-0.1-1.7-0.1-3.4-0.5-5.1c-0.1,0-0.2,0-0.3,0C491.5,29.7,491.5,31.5,491.5,33.2z M485.8,184   c1.6-3.2,3.7-9.8,2.9-11.9C487.5,174.3,483.9,179.8,485.8,184z M492.8,55.8c2-1.1,2.9-2.1,2.7-4.1   C493.9,52.7,492.5,53.4,492.8,55.8z M491.8,69.9c1.4-2.4,1.4-2.6,0.1-3.9C491,67.4,491,67.4,491.8,69.9z M495.6,42.2   c-1.7,0.1-3.2,0.2-4.8,0.3C493,43.9,493.1,43.9,495.6,42.2z M475.8,178.7c0.1-1.9-0.7-2.6-2.2-3.1   C473.5,177.3,474.2,178,475.8,178.7z M489.1,161.2c-1,1.5-1,1.5-0.1,2.6C489.4,163.1,490.1,162.4,489.1,161.2z M489.9,43.8   c-1.2-1.2-1.2-1.2-3-1.5C487.7,43.5,488.5,44.1,489.9,43.8z M489.7,166.9c-1.6,1.4-1.6,1.7,0,2.4   C489.7,168.5,489.7,167.8,489.7,166.9z M492.2,73.6c0.6-1.1,0.9-1.8-0.3-2.3C491.2,72.1,491.1,72.7,492.2,73.6z M489.1,50.9   c-0.4-2-0.4-2-2.1-2.6C487.3,49.5,487.9,50.3,489.1,50.9z M490.9,156.4c-1.9-1-2.5,1.8-0.6,1.5C490.5,157.5,490.7,157,490.9,156.4z    M489.2,127.1c1.1,0.4,1.4,0.5,1.6,0.6C491.5,126.4,490.5,126.5,489.2,127.1z M492.8,79.5c-0.1-1.4-0.1-2.1-0.2-3   C491.8,77.4,491.6,78.1,492.8,79.5z M491.7,124.3c0.4-0.3,0.7-0.6,1-0.9C491.5,123,491.5,123,491.7,124.3z M485,28.3   c-0.1,0.1-0.2,0.3-0.4,0.4c0.4,0.2,0.7,0.3,0.9-0.2C485.3,28.4,485.1,28.3,485,28.3z M485.4,32.7c-0.4-0.1-0.7-0.3-0.9,0.1   C484.9,33.1,485.1,33.2,485.4,32.7z M489.3,130.2c0.2,0,0.3,0,0.5,0C489.8,129,489.4,129,489.3,130.2z M492.8,120.5   c0.2,0,0.3,0,0.5,0C493.3,119.3,492.9,119.2,492.8,120.5z M489.8,51.8c-0.2-0.2-0.3-0.1-0.4,0.1c0.1,0,0.3,0.1,0.4,0.1   C489.8,51.9,489.8,51.9,489.8,51.8z" />
	<path display="inline" fill="#332926" d="M489.1,62.3c0,0.3-0.1,0.7-0.1,1.2c-2.1,0-4.7-1.1-3.8-3.7   C486.6,60.7,487.9,61.5,489.1,62.3L489.1,62.3z" />
	<path display="inline" fill="#3C332F" d="M486.5,132.2c-0.2,1.5-1.5,2.2-2.3,3.4C481.5,133.8,484.5,131.4,486.5,132.2z" />
	<path display="inline" fill="#392B29" d="M472.8,173.6c-0.4,0-0.8,0.1-1.1,0.1c0-0.4,0-0.8,0.1-1.3   C472.6,172.5,472.6,173.1,472.8,173.6z" />
	<path display="inline" fill="#24211F" d="M482.8,60c-0.2-0.3-0.3-0.6-0.5-1C482.5,59.4,482.6,59.7,482.8,60z" />
	<path display="inline" fill="#FBDFD3" d="M475.8,448.5c1.2,7.2,1.5,14.5,3.4,21.3c-0.1,0.2-0.1,0.4,0.1,0.6   c-2,23.5-4.8,46.8-9.9,69.9c-1.7,0.3-3.4,0.6-5.4,0.9c-0.3,2.2-1.6,3.9-3,5.5c-0.4-0.1-0.9-0.2-1.2-0.3   c-1.5-12.8,6.6-26.4,3.1-38.6c-1.3,2.4-1.3,5-2.7,7.1c-1.3,0.6-0.5,2.3-0.6,3.5c-0.3,0.2-0.5,0.5-0.8,0.7c0,1.1,0,2.3,0.1,3.4   c-0.4,0.6-0.8,1.2-1.5,2.3c0-9.2-0.1-17-1.3-25.8c-0.1-4.2,1.7-8.3-1-12.2c-7-10.4-4.8-23.8-2.1-35.4c3.2,5.1,3.5,11.1,6.3,16   c0.8-10.3-2.7-19.6-4.6-29.3c1.5-0.4,2.6-1.2,4.1-1.1c0.1,1.7,0.5,2.5,2.1,1.4c2.8,2.4,2.6,7.1,6.6,8.5c4.1-3.9-0.2-7.7-0.9-12   c0.8-1.5,1.6-3.1,2.4-4.6c1.9,0,3.8,0,5.8,0C477.8,436.6,473.6,442.9,475.8,448.5z M469,453.7c0.3,0.2,0.6,0.3,0.9,0.5   c1.3-1.1,4.9-5.7,1.8-6C470.6,449.8,469.5,451.6,469,453.7z M461.4,474.6c0.9-1.6,0.6-3.1-1-3.8   C460.1,472.5,460.3,473.6,461.4,474.6z M463,492.1c0-1.1,0-2.1,0-3.3C461.7,489.4,461.4,492,463,492.1z M462.1,484   c-0.6,1-0.5,1.7,0,2.8C462.9,485.6,463.1,484.8,462.1,484z M463,477.8c-1.1,1.2-0.9,1.7,0,2.8C463,479.5,463,478.9,463,477.8z    M458,439c-0.2-0.5-0.5-0.4-0.9-0.2C457.3,439.3,457.5,439.3,458,439z M469.5,457.5c0.2,0,0.3,0,0.5,0   C470,456.2,469.6,456.2,469.5,457.5z" />
	<path display="inline" fill="#EECABA" d="M458.9,519.1c1.5-1,1.7-2.6,1.4-4.2c1.4-2.1,1.4-4.7,2.7-7.1c3.5,12.1-4.5,25.7-3.1,38.6   c0.4,0.1,0.8,0.2,1.2,0.3c-0.7,1.2-1.7,0.2-2.7,0c-2.5-17.8-4.6-35.7-6.4-53.7c1-2.2-0.1-4.1-1-6c-8.8-11.9-2.3-26.7-1.7-40.1   c0.8,0.8,1.4,1.5,2.4,2.5c1-2.7-0.6-4.4-1.6-6.7c-2.8-4.8-3-9.8-2.9-15.2c6.4,2.2,12.3,2,19.1,1.9c-0.8,2.7-2.5,4.4-3.7,6.5   c-1.5-0.2-2.8,0.1-3.8,1.3l0,0c-1.5-0.1-2.6,0.6-4.1,1.1c0.6,6.7,4.6,13.3,4,20.3c-0.8-1.8-1.2-3.8-2.9-5c-1.1,0.9-0.4,1.8-0.5,2.7   c-1.2-1.4-1.5-2.9-2.4-4.7c-2.7,11.6-4.9,25,2.1,35.4c2.7,3.9,0.9,8,1,12.2c1.2,8.8,1.3,16.6,1.3,25.8c0.7-1.1,1.1-1.7,1.5-2.3   c0.3,0,0.7-0.1,1-0.1c0.4-1.1,0.5-2.1,0-3.2C459.5,519.1,459.2,519.1,458.9,519.1z M459.4,525.1c-2.1,0.1-1.8,3.4-0.4,4.6   C459.8,527.9,459.7,526.5,459.4,525.1z M458.8,532c-1.5,1.8-1.5,2.4,0,4.1C458.8,534.7,458.8,533.4,458.8,532z" />
	<path display="inline" fill="#4B65C5" d="M461,401.1c-0.5-0.2-1.1-0.4-1.6-0.6c-0.5,8.6,5.9,16.8,6.9,25.7c0.1,0.1,0.6,0.5,1,0.9   c-1.9,0-3.8,0-5.7,0c-2.3-4.1-2.7-8-5.5-12c0,2,0,3.5,0,5l-0.1,0.1c-9.3-12.3-7.4-16.8-0.7-29.7c0.2,0,0.4,0,0.7,0   c0.3,0.7-0.4,1.8,0.8,2.1C458.6,395.2,459.8,398.2,461,401.1z" />
	<path display="inline" fill="#4A64C3" d="M455.3,427.2c-3.7,0.2-7.7-0.8-10.5-3.2c1-4.7,2.7-8.7,3.2-13.6c1.9,1.6,5.5,12.3,8,9.7   c0.7,0.5,0.8,1.1,0.4,1.8c-0.4,0.1-0.8,0.2-1.2,0.3C455.3,424,455.3,425.6,455.3,427.2z" />
	<path display="inline" fill="#080A14" d="M453.9,419.5c-2.6-2.6-3.5-6.2-5.8-9c-0.6,4.9-2.3,8.9-3.2,13.6c0.4,0.4,0.8,0.7,1.2,1.1   c-1.3,0.3-1.9-0.7-2.7-1.4c3.6-13.7,6-29.1,13.4-41c-0.6,16.3-14.5,18.4-2,35.9C454.5,419,454.2,419.2,453.9,419.5z" />
	<path display="inline" fill="#EDCABA" d="M459,438.1c0-0.3-0.1-0.6-0.1-0.9l0,0c1.2,0,2.5,0,3.6-0.7c1.3,1.5,2.9-0.9,4.2-1.4   c0.8,4.3,5,8.1,0.9,12C463.1,446.1,463,436.7,459,438.1z" />
	<path display="inline" fill="#5775E7" d="M455.3,427.2c0-1.6,0-3.3,0-5c0.4-0.1,0.8-0.2,1.2-0.3c0.4-0.7,0.3-1.3-0.4-1.8   c0-1.5,0-3,0-5c2.9,4,3.3,8,5.5,12C459.5,427.2,457.4,427.2,455.3,427.2z" />
	<path display="inline" fill="#FBDFD3" d="M462.4,436.5c-1.1,0.7-2.4,0.7-3.6,0.7c1-1.3,2.3-1.5,3.8-1.3   C462.6,436.1,462.6,436.3,462.4,436.5z" />
	<path display="inline" fill="#A0B1B1" d="M444.7,428.7c-0.2,0-0.5,0-0.7-0.1c0-0.4,0-0.8,0.1-1.2c0.1,0,0.3,0,0.4,0   C444.5,427.9,444.6,428.3,444.7,428.7z" />
	<path display="inline" fill="#EAC8B8" d="M463.7,167.3c-1.6,4.7-5.1,9.2-5.6,14.4c-1.8-0.6-7.6-1.2-5.8-4.2   C455.1,173.1,457.7,167.4,463.7,167.3z" />
	<path display="inline" fill="#8D99AA" d="M460.3,187c0,0.3,0,0.6,0,0.8c-2.6-2.3-5.4-4.2-8.3-6C452.9,178.9,459.4,185.5,460.3,187z   " />
	<path display="inline" fill="#D8DBDB" d="M459.9,549.5c-0.2,1.1-0.4,1.8-0.5,2.5c-1.4-0.5-1.4-1.4-1.3-2.6   C458.7,549.5,459.1,549.5,459.9,549.5z" />
	<path display="inline" fill="#B7BDD5" d="M439.2,300.1c-2.2-1.9-2.9-5.5-4.6-8.1c0.7-1,1.4-1.9,2.3-3c-0.4-2.7,0.9-5.1,2.8-7.2   c0.2,3.6,1.9,6.6,2.5,10.5c0.6,0.5,1.4,1.1,2.3,1.7c1,5.7,3.1,11.3,3.8,16.9c-1,0.9-1.6,1.5-2.3,2.1c-0.4,0-0.9-0.1-1.3-0.1   c-0.6-1.3-1.6-2.1-3-2.3c2.1-5.2,0.5-13-4.3-16.2C438.1,296.6,438.7,298.4,439.2,300.1z M437.1,293.4c0.4-1.2,0.4-1.2-0.6-1.5   C436.7,292.5,436.9,293,437.1,293.4z" />
	<path display="inline" fill="#111629" d="M487,322.2c-2.2,8.6,1,17.5,1.4,26.7c-3.3-4.8-3.2-11.4-3.4-17.1   c1.6-2.9,0.2-7.3,0.6-10.7C486.8,320.9,486.9,321.5,487,322.2z" />
	<path display="inline" fill="#4761BD" d="M427,314.2c-0.7,0.8-0.7,0.8-1.6-0.2c-0.7,0.7-1.6,1.2-2.5,1.6c-2.3-0.7-4.6-1.4-6.9-2   c-0.3-1-0.8-1.9-0.9-2.9c1.2-1.6,3.7,1.1,5.3,1.2C422.3,312.7,425,312.4,427,314.2z" />
	<path display="inline" fill="#4965C7" d="M466,315c1.2,0.7,0.1,1.3-0.1,2c-3.1-0.2-6.1,0.6-9.2,0.7c0-0.8,0-1.7,0-2.5   c0.4,0.5,0.7,1,1.2,1.7c0.1-0.7,0.2-1.3,0.3-1.9c0.8-0.8,1.7-0.5,2.6-0.5c0.2,0.7,0,1.8,1.5,1.9c0-0.7,0-1.4,0-2   c1.4-0.6,2.2,0.5,2.9,1.5C465.6,315.4,465.8,315.2,466,315z" />
	<path display="inline" fill="#020202" d="M415.1,311.4c0.3,0.7,0.6,1.4,0.8,2.2c-0.3,0-0.6,0-0.9,0c-2.6-1.4-5.2-2.8-7.8-4.2   C409.8,308.3,412.4,311.2,415.1,311.4z" />
	<path display="inline" fill="#1B2447" d="M481.4,313.7c-2.6,0.5-5.2,0.9-7.8,1.3c-0.2-0.2-0.4-0.4-0.6-0.6c0-0.6-0.2-1.4,0.8-1.6   c0,2.6,2.1,0.3,3.3-0.1c1.4,2.2,2.7-0.9,4.4-0.7C481.4,312.7,481.4,313.2,481.4,313.7z" />
	<path display="inline" fill="#3C54A5" d="M481.4,312.1c-1.7-0.3-3,2.9-4.4,0.7c0.1-0.3,0.2-0.6,0.4-0.9c0.5,0.1,0.9,0.1,1.5,0.2   c0.7-0.8,1.4-1.7,2.1-2.7C481.8,310.4,481.7,311.3,481.4,312.1z" />
	<path display="inline" fill="#3C53A3" d="M415.1,311.4c-0.9-0.2-1.8-0.5-2.7-0.7c-0.1-0.8-0.1-1.6-0.2-2.4c1.9-0.1,1.8,1.8,2.8,2.3   C415.1,310.9,415.1,311.1,415.1,311.4z" />
	<path display="inline" fill="#324586" d="M411.5,310c-0.7-0.2-1.4-0.5-2.1-0.7c0.1-1-0.5-2.2,0.7-3   C411,307.4,411.2,308.7,411.5,310z" />
	<path display="inline" fill="#1C2951" d="M462.4,314.3c0,0.6,0,1.3,0,2c-1.6-0.1-1.3-1.1-1.5-1.9   C461.3,314.4,461.9,314.3,462.4,314.3z" />
	<path display="inline" fill="#4D6FDA" d="M475.7,313.6c-1.1,0.6-1.9,1.2-2-0.7c0.2,0,0.4-0.1,0.6-0.2c0.5,0.1,0.9,0.1,1.4,0.2   C475.7,313.2,475.7,313.4,475.7,313.6z" />
	<path display="inline" fill="#B7BDD5" d="M440.5,312.9c1.1-1,1.5-1,2.8-0.1C442.4,312.8,441.4,312.9,440.5,312.9z" />
	<path display="inline" fill="#1B2447" d="M475.8,313c-0.5-0.1-0.9-0.1-1.4-0.2C475.2,311.9,475.4,312,475.8,313z" />
	<path display="inline" fill="#4059AE" d="M405.2,303.7c0.3,0,0.7,0,1,0.1c0.8,1.1,0.2,2.5,0.3,3.8c-0.5-0.2-0.8-0.3-1.3-0.5   C405.2,306,405.2,304.9,405.2,303.7L405.2,303.7z" />
	<path display="inline" fill="#020202" d="M404.5,303c0.2,0.2,0.5,0.5,0.7,0.7l0,0C405,303.5,404.7,303.3,404.5,303L404.5,303z" />
	<path display="inline" fill="#100C0D" d="M453.9,183.1c2.6,1,4.3,3.1,6.4,4.7c1.1,5.9,9.9,11.4,5.4,17.9c-1.8,2.1-3.8,3.8-6.7,4.2   c-1,0-2.3-0.7-3,0.6l0,0c-0.4,0.2-0.9,0.4-1.3,0.6c-1.4-1.8-4.4-1.4-6.5-2.2c26.1,0,16.7-11.5,4.8-25.2   C453.3,183.5,453.6,183.3,453.9,183.1z" />
	<path display="inline" fill="#4B4F4F" d="M452.4,174.6c-0.1,0.1-0.3,0.2-0.4,0.2c0-0.3-0.2-0.6,0.2-0.8   C452.2,174.2,452.3,174.4,452.4,174.6z" />
	<path display="inline" fill="#B3B7CB" d="M484.3,255c-0.2,0-0.4,0-0.7,0c-0.2-1-0.4-1.9-0.6-2.9c0.8-1.4,0.6-2.9,0.7-4.4   C484.4,250.1,484.4,252.5,484.3,255z" />
	<path display="inline" fill="#332F2D" d="M367.6,28.5c-0.2-0.8-0.3-1.6-0.5-2.4C368.1,26.8,367.7,27.7,367.6,28.5z" />
	<path display="inline" fill="#332F2D" d="M368.3,31.9c-0.2-0.8-0.4-1.5-0.6-2.3c0.2,0,0.4,0,0.7,0l0,0   C368.4,30.4,368.3,31.2,368.3,31.9z" />
	<path display="inline" fill="#312D2B" d="M498.3,25.7c-0.3,0-0.7-0.1-1.2-0.2c-1,5.1,2.2,10.5-0.6,15.3c-0.3-0.7-0.9-1.4-0.8-1.9   c1.8-4.7-1.1-9.6,1-14C497.4,24.6,498.1,24.5,498.3,25.7z" />
	<path display="inline" fill="#70645E" d="M487.2,36.8c0-0.3,0-0.5,0-0.8c0.9-1.1,0.9-2.3,0-3.4c-0.1-4.2-0.1-8.5-0.2-12.7   c0.8-0.6,0.5-1.9,1.6-2.1c-0.2,6.6-0.3,13-0.1,19.7C488.1,37.2,487.6,37,487.2,36.8z" />
	<path display="inline" fill="#020202" d="M350.7,43.1c0.6,3,0.2,6,0.2,9c-0.5-0.1-0.7-0.1-0.9-0.1C350.3,49,349.5,45.8,350.7,43.1z   " />
	<path display="inline" fill="#393532" d="M350.2,26.5c0.8,1.7,0.4,3.5,0.5,5.2C349.5,30.3,350.3,28.3,350.2,26.5z" />
	<path display="inline" fill="#393532" d="M351.3,16.2c-0.2,1.3-0.3,2.6-0.5,3.9c0-1.3-0.1-2.6-0.1-3.9   C351,16.2,351.2,16.2,351.3,16.2z" />
	<path display="inline" fill="#363130" d="M352.1,10.6c-0.2,0.8-0.4,1.6-0.5,2.4C351.5,12.2,351.1,11.2,352.1,10.6z" />
	<path display="inline" fill="#393532" d="M350.7,23.2c-0.2,0.1-0.4,0.2-0.6,0.3c0.1-0.3,0.3-0.6,0.4-0.9   C350.6,22.8,350.7,23,350.7,23.2z" />
	<path display="inline" fill="#363130" d="M351.3,16.2c-0.2,0-0.4,0-0.6,0c0.2-0.2,0.4-0.5,0.6-0.7C351.3,15.8,351.3,16,351.3,16.2z   " />
	<path display="inline" fill="#252221" d="M395.3,495.6c0.2,0.8,0.4,1.5,0.6,2.3C394.9,497.3,395.3,496.4,395.3,495.6z" />
	<path display="inline" fill="#252221" d="M396.8,501.9c0.2,0.8,0.3,1.6,0.5,2.4C396.3,503.6,396.8,502.7,396.8,501.9z" />
	<path display="inline" fill="#252221" d="M396.1,499c0.2,0.6,0.3,1.2,0.5,1.8C395.8,500.3,396,499.6,396.1,499z" />
	<path display="inline" fill="#D1BDB3" d="M356.3,13.5c-1.8,3.2,0.6,7.9-1.3,11.3c0.1-6.9,0.8-14.1-0.8-20.5   c0.4-0.4,0.8-0.8,1.4-1.5C356.6,6.6,356.6,10,356.3,13.5z" />
	<path display="inline" fill="#341D1C" d="M421.4,149.7c0.7,0.1,1.5,0.1,2.1,0.5c-0.2,0.3-0.4,0.7-0.6,1   C422.4,150.7,421.9,150.2,421.4,149.7z" />
	<path display="inline" fill="#9E8D81" d="M421.6,146.3c-0.3-0.2-0.5-0.3-0.6-0.4c0.2-0.2,0.4-0.5,0.6-0.7   C422.2,145.5,421.9,145.8,421.6,146.3z" />
	<path display="inline" fill="#4E4A44" d="M422,143.6c-0.1,0.1-0.2,0.2-0.3,0.2c-0.1-0.3-0.4-0.6,0-0.8   C421.9,143.2,421.9,143.4,422,143.6z" />
	<path display="inline" fill="#EDC9BA" d="M360.7,45.2c3,2,4.3,4.9,4.8,8.3c-0.9-0.1-1.5,0.4-2,1c-4.3-3.5-5.7-5.6-5-11.4   c0.3,1.2,0.7,2.3,1,3.5C360.6,46.7,360.6,45.8,360.7,45.2z" />
	<path display="inline" fill="#2A2626" d="M372.8,38.1c0.1-0.6,0.3-1.1,0.4-1.7C373.4,37.1,373.5,37.7,372.8,38.1z" />
	<path display="inline" fill="#3B3532" d="M482.3,37.2c0.8,2.1,0.7,4.3,0.5,6.4c0.6,1.3,2.5,1.7,2,3.8c-1.2-1.1-2-1.7-3.2-2.7   c0-1.7,0-3.5,0-5.2C482.5,39,482,38,482.3,37.2z" />
	<path display="inline" fill="#ABB9AF" d="M459.5,137.2c-0.6,1.8-1.9,0.9-3.2,1c0.6-1.3,1.7-1,2.5-1.3   C459.1,137,459.3,137.1,459.5,137.2z" />
	<path display="inline" fill="#3B3736" d="M459.5,137.2c-0.2-0.1-0.4-0.2-0.6-0.3C459.4,136.2,459.5,136.6,459.5,137.2z" />
	<path display="inline" fill="#181616" d="M477.2,457.1c-0.7-1.2-0.7-2.4-0.6-3.7C477.6,454.4,477.1,455.8,477.2,457.1z" />
	<path display="inline" fill="#181616" d="M479.3,469.8c-0.7-0.9-0.7-1.9-0.6-3C479.9,467.6,479.3,468.8,479.3,469.8z" />
	<path display="inline" fill="#181616" d="M478.5,465.7c-0.7-0.9-0.6-2-0.6-3.1C479.2,463.4,478.5,464.6,478.5,465.7z" />
	<path display="inline" fill="#181616" d="M477.8,461.5c-0.7-0.9-0.6-2-0.5-3.1C478.5,459.2,477.8,460.4,477.8,461.5z" />
	<path display="inline" fill="#080606" d="M368.3,31.9c0-0.8,0.1-1.5,0.1-2.3c0.3-0.1,0.6-0.2,1-0.4c0.7,0.5,0.2,2.1,1.7,1.8   c1.4,0.9-2,1.7-2.7,1.4C368.3,32.3,368.2,32.1,368.3,31.9z" />
	<path display="inline" fill="#292423" d="M354.3,6.3c2.3,5.4,0.3,12.4,0.7,18.4c-0.3,0.2-0.7,0.4-1.3,0.8   c-0.6-6.4-0.1-12.3-0.2-18.3C353.7,7,354,6.7,354.3,6.3z" />
	<path display="inline" fill="#2A2627" d="M487.3,566.1c-0.9,2.6-5.2,4.3-6.7,1.9C482.1,565.8,484.8,566.7,487.3,566.1z" />
	<path display="inline" fill="#3E332F" d="M428.4,165.6c4.2,8.4,4.2,8.5,4.1,11.1C430.4,173.1,428.5,169.6,428.4,165.6z" />
	<path display="inline" fill="#2A2A27" d="M432.7,181.4c-0.2-0.4-0.5-0.9-0.7-1.3C432.2,177.6,434.7,179.8,432.7,181.4z" />
	<path display="inline" fill="#4D3F3C" d="M434.8,185c-0.3-0.2-0.6-0.4-0.9-0.7c0.1-0.4,0.2-0.8,0.3-1.6c0.5,0.7,0.8,1.1,1.1,1.5   l0,0C435.3,184.5,435.1,184.8,434.8,185z" />
	<path display="inline" fill="#39302D" d="M417.1,448.5c0-3.6-1.2-8.7,2.1-10.9c-0.7,5-1.1,9,0.8,13.8c-0.4,0-0.9-0.1-1.3-0.1   C418.1,450.3,417.6,449.4,417.1,448.5z" />
	<path display="inline" fill="#39322E" d="M400.9,465.4c-0.3-0.1-0.7-0.1-1-0.2c-0.6-3.1,0.1-8.1,2.4-9.9   C402.7,458.7,401.4,462,400.9,465.4z" />
	<path display="inline" fill="#322E2C" d="M419.3,461.2c0.2,2.9,3.5,6.6,1,9.1c-1.1-3-2.2-5.9-2.3-9.1   C418.4,461.2,418.8,461.2,419.3,461.2z" />
	<path display="inline" fill="#99827C" d="M419.3,461.2c-0.4,0-0.9,0-1.3,0c-0.9-1.8-1.8-2.4-1.2-4.8   C417.8,458.4,418.5,459.8,419.3,461.2z" />
	<path display="inline" fill="#7F6D66" d="M400.3,473.1c-0.4-1.2-1.6-3.6,0.6-3.4c0,1.1-0.1,2.2-0.1,3.3   C400.6,473.1,400.5,473.1,400.3,473.1z" />
	<path display="inline" fill="#D0B9AF" d="M414,515.9c1.5,0.4,1,1.8,1.6,2.7C414.2,518.2,414,517.1,414,515.9z" />
	<path display="inline" fill="#786964" d="M399.9,482.3c-0.5-1.5-0.5-1.5,0.7-2.5C401.1,480.9,401.2,481.8,399.9,482.3z" />
	<path display="inline" fill="#564946" d="M399.4,476.7c-0.1-0.8,0.4-1.4,0.8-2.1C401.9,474.8,400.7,479.2,399.4,476.7z" />
	<path display="inline" fill="#96837D" d="M415.9,524.2c-0.3-0.8-0.5-1.7-0.8-2.5c1.8-1.1,1.3,1.5,1.3,2.5   C416.3,524.2,416.1,524.2,415.9,524.2z" />
	<path display="inline" fill="#726661" d="M416,529.1c0.7,0.7,1,1.5,0.8,2.6C415.4,531.1,415.7,530.1,416,529.1z" />
	<path display="inline" fill="#EDCABA" d="M401.1,476c-0.1-0.6,0.1-1.3-0.9-1.4c0-0.4,0-0.9-0.1-1.3l0.1-0.2c0.2,0,0.4,0,0.5,0   C401.3,473.9,402.2,475.2,401.1,476z" />
	<path display="inline" fill="#5E524E" d="M400.5,486.3c0.5,0.3,0.1,1,0.2,1.5c-0.3-0.1-0.6-0.1-0.9-0.2   C400,487.2,399.9,486.4,400.5,486.3z" />
	<path display="inline" fill="#5A3E3C" d="M415.3,453.6c0.5,0.1,0.7,0.4,0.9,0.8C415.4,454.4,415.4,454.4,415.3,453.6z" />
	<path display="inline" fill="#7A6763" d="M413.7,449.9c1,0.6,1,0.8,0,1.4C413.7,450.8,413.7,450.3,413.7,449.9z" />
	<path display="inline" fill="#EDCABA" d="M413.7,449.9c0,0.5,0,0.9,0,1.4C412.8,450.6,412.8,450.6,413.7,449.9z" />
	<path display="inline" fill="#161415" d="M432,571.3c0.2,0.3,0.4,0.5,0.6,0.8c-1.1,2.1-8.9,4.4-11.1,3.5   C422.6,571,428.5,572.1,432,571.3z" />
	<path display="inline" fill="#1D1415" d="M434.8,575.9c-1.9,2.3-5.1,2.8-7.2,1.5C429.4,575.4,430.4,575.2,434.8,575.9z" />
	<path display="inline" fill="#AAB5BB" d="M432,571.3c-1.9,0.2-3.8,0.4-5.7,0.7c0-0.2,0-0.4,0-0.6c1.3-1.2,3.4-0.9,5-1.3   C431.6,570.5,431.8,570.9,432,571.3z" />
	<path display="inline" fill="#A5CFD5" d="M426.3,571.4c0,0.2,0,0.4,0,0.6c-0.7,0.2-1.4,0.4-2.1,0.6c-0.3-0.2-0.5-0.3-0.8-0.5   c0.7-0.3,1.5-0.6,2.2-0.8C425.9,571.2,426.1,571.3,426.3,571.4z" />
	<path display="inline" fill="#412E2B" d="M404.7,536c0.8,1.5,1.1,2.6,0.9,4.2C403.9,539,404.3,537.7,404.7,536z" />
	<path display="inline" fill="#FBDFD3" d="M400.1,473.3c0,0.4,0,0.9,0.1,1.3c-0.3,0.5-0.5,0.9-0.8,1.4   C398.5,474.6,398.6,474.3,400.1,473.3z" />
	<path display="inline" fill="#382F2B" d="M403.8,444.3c0.1-0.7,0.1-1.3,0.2-2.1C405.1,443.5,405.1,443.5,403.8,444.3z" />
	<path display="inline" fill="#302926" d="M404.6,528.8c1,1.3,0.5,2.3,0.4,4C404.1,531.2,404.1,530.1,404.6,528.8z" />
	<path display="inline" fill="#4F4742" d="M405.5,522.1c0.4,0.8,0.6,1.1-0.1,1.6C404.9,523.2,405.2,522.9,405.5,522.1z" />
	<path display="inline" fill="#161415" d="M426.3,571.4c-0.2-0.1-0.5-0.1-0.7-0.2c0.4-0.6,1-0.5,1.5-0.5   C426.9,570.9,426.6,571.1,426.3,571.4z" />
	<path display="inline" fill="#B7BDD4" d="M424.2,245.7c-0.5,0.7-1.1,1.4-1.6,2.2c-4.4,0.9-15.5-1.6-9.2-6.9   c3.6,0.4,7.8,0.1,10.2,3.2c-0.6,0.1-1.4,0.1-1.2,1.3C422.9,245.6,423.6,245.7,424.2,245.7z M416.5,244.4c-0.4,1.1-0.5,1.3-0.6,1.6   C417.2,246.6,417.1,245.6,416.5,244.4z M419.5,244.7c-0.3-0.1-0.7-0.4-0.8,0C419,245.2,419.2,245,419.5,244.7z" />
	<path display="inline" fill="#B8BED6" d="M426.3,254.1c1.3-5.3,7.4-1.4,9.2,1.5C431.3,258,429.1,257.6,426.3,254.1z" />
	<path display="inline" fill="#222327" d="M439.2,300.1c-0.5-1.7-1.1-3.5-1.8-5.7c4.8,3.2,6.4,11.1,4.3,16.2   C439.3,308,441.7,303.1,439.2,300.1z" />
	<path display="inline" fill="#141516" d="M463,264.7c1-5.4,1.2-10.7,2.1-16c1.5,6.4,0.9,12.7-1.4,18.9   C463.1,266.7,463,265.7,463,264.7z" />
	<path display="inline" fill="#B6BCD4" d="M456.8,216.3c0-0.3,0-0.7,0-1c1.1-0.4,0.5-1.3,0.6-2c1.2,0.5,0.4,1.7,1,2.4   c2.9,1.2,4.9,3.3,6.2,6.5c-2.5,0.6-4.3-1.1-6.6-1.9C458,218.9,458.7,216.7,456.8,216.3z" />
	<path display="inline" fill="#26272B" d="M483,252.1c0.2,1,0.4,1.9,0.6,2.9c-0.2,0.6-0.5,1.2-1,2.5c-1.3-5-2.2-9.1-5.5-13   c0-0.3,0.1-0.5,0.1-0.8C481,244.2,481.2,249.4,483,252.1z" />
	<path display="inline" fill="#2F2F34" d="M443,266.1c-2.3-2.8,0.1-12.8,4.4-13.2C444.7,257.1,444,261.3,443,266.1z" />
	<path display="inline" fill="#B9BED6" d="M427.6,270.5c-2.2,1.6-6.5,0.4-6-2.3C423.1,265.4,427.2,267.8,427.6,270.5z" />
	<path display="inline" fill="#505058" d="M465.1,248.7c-1.3,2.9,0.3,6.3-1.2,9.1c0.5-5.7-0.5-10.4-0.8-16.1   C464.5,244.4,464.8,246.5,465.1,248.7z" />
	<path display="inline" fill="#27282B" d="M441.7,279.5c-0.4-2.9-0.2-5.6,1.5-8.6c0.5,3.3-0.6,5.9-0.7,8.6   C442.2,279.5,441.9,279.5,441.7,279.5z" />
	<path display="inline" fill="#29181B" d="M427.1,245.1c1.5-0.1,3-0.2,4.5-0.4c1.2,2.6-4.4,2.4-6,1.7c-0.1-0.2-0.1-0.5,0-0.7   C426.1,245.5,426.6,245.3,427.1,245.1z" />
	<path display="inline" fill="#28282D" d="M464.2,278.7c-1.6-0.5-1.5-5.3-0.3-6.2C464.7,274.8,464.7,275.3,464.2,278.7z" />
	<path display="inline" fill="#283034" d="M457.4,213.3c-0.1,0.7,0.4,1.6-0.6,2c-0.7-1.4-1.4-2.8-2.1-4.1c0.4-0.2,0.9-0.4,1.3-0.6   C456.5,211.4,457,212.4,457.4,213.3z" />
	<path display="inline" fill="#140E0F" d="M425.4,236.9c1.8-0.6,3.6-1.1,5.5-0.8C430,237.6,429,237.7,425.4,236.9z" />
	<path display="inline" fill="#4C4D55" d="M440.5,285.3c-0.8-1-0.9-2.2-0.8-3.5c0.4-0.2,0.7-0.4,1.2-0.7   C441.3,282.7,441.5,284.1,440.5,285.3z" />
	<path display="inline" fill="#54535C" d="M456.8,216.3c1.8,0.4,1.1,2.6,1.2,4C456.8,219.2,456.4,217.8,456.8,216.3z" />
	<path display="inline" fill="#322F34" d="M425.9,277c0.8,0.8,1.1,1.6,0.2,2.6C424.3,278.6,424.3,278.2,425.9,277z" />
	<path display="inline" fill="#505A63" d="M463,264.7c0,1,0.1,2,0.7,2.8c-0.2,0.7-0.3,1.1-1.2,1.1C462.3,267.3,462.2,266,463,264.7z   " />
	<path display="inline" fill="#2F2D32" d="M463.7,280.3c0,1.3,0,2.3,0,3.4C462.5,282.5,462.5,282.5,463.7,280.3z" />
	<path display="inline" fill="#898896" d="M477.2,243.7c0,0.3-0.1,0.5-0.1,0.8c-0.3,0.1-0.6,0.2-1,0.4c-0.8-0.5-1.5-1-1.6-2.3   C475.5,243,476.4,243.3,477.2,243.7z" />
	<path display="inline" fill="#676673" d="M424.2,245.7c-0.6-0.1-1.2-0.1-1.8-0.2c-0.2-1.2,0.6-1.2,1.2-1.3c0.3,0.3,0.5,0.5,0.8,0.8   C424.2,245.3,424.2,245.5,424.2,245.7L424.2,245.7z" />
	<path display="inline" fill="#544F59" d="M418.3,236.9c0.1-1.1,1.7-1.3,1.6-0.1C419.4,237.5,418.9,237.6,418.3,236.9z" />
	<path display="inline" fill="#9D9CAC" d="M469.6,237.5c-0.9,0.5-1.1,0.4-1.3-0.5C468.8,236.5,469.1,237,469.6,237.5z" />
	<path display="inline" fill="#75717C" d="M416.4,237.2c0.7,0.6,0.7,0.8,0.1,1.4C415.7,238.2,415.9,238,416.4,237.2z" />
	<path display="inline" fill="#707884" d="M462.3,295.2c0.7,1.4,1,1.3,0,1.9C461.6,296.4,461.9,296.3,462.3,295.2z" />
	<path display="inline" fill="#2A353B" d="M430.5,282.2c0,0.6,0,1,0,1.7C429.5,282.8,429.5,282.8,430.5,282.2z" />
	<path display="inline" fill="#283034" d="M456.1,210.5c0.8-1.3,2-0.6,3-0.6C458.2,210.7,457.1,210.4,456.1,210.5z" />
	<path display="inline" fill="#2F1517" d="M421.6,225.4c-0.7,0-1.4-0.1-2.1-0.1c0-0.2,0-0.3,0-0.5c0.7-0.1,1.4-0.1,2.1-0.2   C421.6,224.8,421.6,225.1,421.6,225.4z" />
	<path display="inline" fill="#412F34" d="M424.1,236c-1.4,0.9-1.9,1-2.5,0C422.3,236,422.8,236,424.1,236z" />
	<path display="inline" fill="#827F8C" d="M433.9,286.7c0.2,0.4,0.4,0.8,0.6,1.1C433.7,288.3,433.1,287.5,433.9,286.7z" />
	<path display="inline" fill="#3D3B41" d="M462.5,293.5c0-0.6,0-1.1,0-1.7c0.1,0,0.3,0,0.4,0c0.1,0.5,0.1,1.1,0.2,1.6   C462.9,293.4,462.7,293.5,462.5,293.5z" />
	<path display="inline" fill="#353A3F" d="M472,239.9c0.3,0.4,0.4,0.6-0.1,0.8C471.6,240.3,471.5,240.1,472,239.9z" />
	<path display="inline" fill="#B7BDD4" d="M427.1,245.1c-0.5,0.2-1,0.4-1.5,0.7C425.9,245,426.5,245,427.1,245.1z" />
	<path display="inline" fill="#B7BDD4" d="M425.6,245.8c-0.1,0.2,0,0.5,0,0.7c-0.3-0.2-0.5-0.4-0.8-0.7l0,0   C425.2,245.7,425.4,245.7,425.6,245.8z" />
	<path display="inline" fill="#B7BDD4" d="M424.2,245.7c0-0.2,0-0.5,0.1-0.7c0.2,0.2,0.4,0.5,0.7,0.7l0,0   C424.7,245.8,424.4,245.8,424.2,245.7z" />
	<path display="inline" fill="#898896" d="M477.2,244.5c0.2,0.2,0.4,0.4,0.6,0.7C477.6,244.9,477.4,244.7,477.2,244.5z" />
	<path display="inline" fill="#EDCABA" d="M367.7,161.8c-0.2-0.4-0.5-0.9-0.7-1.3c0.6-1.2,0.2-1.8-1.3-2.1c-0.2-0.4-0.6-1.1-0.5-1.2   c0.8-1-0.2-1.8-0.1-2.9c0.6-0.5,1.4-1.2,2.1-1.7c1.6,0.4,2.3,1.2,2.8,2.3c4.2,10.4,14,16.5,19.1,26.3c-3.4,0.3-6.6-2.6-9.2-4.6   c0.5-0.1,1.2-0.1,1.2-0.9c-2.8-3.3-4.8-4.9-6.9-5.3c0,0.5,0,0.9,0,1.4c-0.7-1.2-1.3-2.4-2-3.7c1.8-0.6-0.4-3.1-0.9-1.3   c-0.7-0.9-1.3-1.8-2-2.7C370.2,163.2,369,161.6,367.7,161.8z" />
	<path display="inline" fill="#221C1A" d="M374,171.6c0-0.4,0-0.9,0-1.4c2.1,0.5,4.1,2,6.9,5.3c0,0.8-0.7,0.8-1.2,0.9   C377.6,175.2,375.6,173.6,374,171.6z" />
	<path display="inline" fill="#4C433F" d="M360.7,45.2c-0.2,0.6-0.1,1.5-1.2,1.3c-1.6-3.2-0.3-6.6-1.8-9.8c0.2-0.2,0.4-0.5,0.6-0.7   C361.3,38.3,359.1,42.3,360.7,45.2z" />
	<path display="inline" fill="#584B47" d="M358.4,36c-0.2,0.2-0.4,0.5-0.6,0.7c-0.8-2-2.3-3.8-2-6.6C357.6,32,357.5,34.2,358.4,36z" />
	<path display="inline" fill="#5B524E" d="M368.4,32.5c0.3,0,0.6,0.1,0.9,0.1c0.4,2.7-1.6,3.9-3.6,5.8   C365.7,35.6,368.4,35.3,368.4,32.5z" />
	<path display="inline" fill="#222927" d="M359.5,25.8c3.1-2.1,3.4-2.1,4.6-0.6C362.4,25.6,361.8,25.5,359.5,25.8z" />
	<path display="inline" fill="#292322" d="M357.2,57c0-1.4,0-2.6,0-3.9C358.7,54.4,358.7,55,357.2,57z" />
	<path display="inline" fill="#736762" d="M394.6,192.2c-1.1-0.8-1.9-1.5-1.3-2.9C394.5,190.5,394.5,190.5,394.6,192.2z" />
	<path display="inline" fill="#201211" d="M392.2,184.3c0.3,0.9,0.6,1.7,0.9,3c-1.4-0.6-1.8-1.3-2-2.4   C391.5,184.7,391.8,184.5,392.2,184.3z" />
	<path display="inline" fill="#796862" d="M367.7,161.8c1.2-0.2,2.4,1.4,1.4,2.2C368.3,163.5,367.6,162.9,367.7,161.8z" />
	<path display="inline" fill="#4B3E3B" d="M397.7,202c-1.4,0-1.6-2-0.2-1.9C398.3,200.6,398.4,201.2,397.7,202z" />
	<path display="inline" fill="#756A66" d="M365.7,158.3c1.5,0.3,1.9,0.9,1.3,2.1c-0.5-0.5-1.1-1-1.3-1.7   C365.7,158.6,365.7,158.5,365.7,158.3z" />
	<path display="inline" fill="#3B3330" d="M357.5,65.7c-0.9-1.2-0.7-2.2-0.5-3.4C357.8,63.5,357.8,63.5,357.5,65.7z" />
	<path display="inline" fill="#463B38" d="M357.4,70.2c0.9,1.2,0.6,2.1,0.2,3.2C356.6,72.4,356.8,71.4,357.4,70.2z" />
	<path display="inline" fill="#5A534F" d="M395.5,194.8c1.1,0.3,1.4,0.8,0.8,1.9C395.4,196.4,394.9,195.9,395.5,194.8z" />
	<path display="inline" fill="#72645C" d="M371.1,166.7c0.6-1.9,2.8,0.7,0.9,1.3C371.7,167.5,371.4,167.1,371.1,166.7z" />
	<path display="inline" fill="#EDCABA" d="M365.6,158.8c0.1,0.3,0.3,0.5,0.4,0.8C365.9,159.3,365.8,159.1,365.6,158.8z" />
	<path display="inline" fill="#26211E" d="M382.9,199.3c1,1.9,1.4,3.8,0.7,6.1C381,205.1,381.1,200.6,382.9,199.3z" />
	<path display="inline" fill="#443733" d="M355.5,128.6c0.4,3.9,0.3,4.1-1.4,4.8C353.9,131.2,354.1,130.3,355.5,128.6z" />
	<path display="inline" fill="#594C47" d="M382.8,190.6c1.2,1,1.4,1.8,0.7,2.8C382.2,192.9,382.3,192,382.8,190.6z" />
	<path display="inline" fill="#62514B" d="M383.3,197.5c0-0.5,0-1,0-1.5c0.1,0,0.2,0,0.3,0c0.1,0.5,0.2,1,0.3,1.5   C383.8,197.4,383.5,197.5,383.3,197.5z" />
	<path display="inline" fill="#2C252A" d="M420.2,259c1.5,0.1,2.2,0.2,3.4,0.3C422.4,260.2,421.7,260.2,420.2,259z" />
	<path display="inline" fill="#1C1918" d="M448.5,197.6c3.5,2.1,7.8,5.4,6.1,10.1c-2.4-3.6-4.4-7.3-8-9.9   C447.2,197.8,447.9,197.7,448.5,197.6z" />
	<path display="inline" fill="#221817" d="M443,188.7c3.1-0.2,4.8,2.3,8,0.5C451.7,193.4,443.5,191.5,443,188.7z" />
	<path display="inline" fill="#453634" d="M448.5,197.6c-0.7,0.1-1.3,0.2-2,0.2c-1.2-0.6-2.4-1.1-3-2.9   C445.7,195.3,446.9,197,448.5,197.6z" />
	<path display="inline" fill="#816B65" d="M428.5,186.4c-2,0.2-2.8-0.9-3.9-1.6C426.1,184.3,426.1,184.3,428.5,186.4z" />
	<path display="inline" fill="#70625E" d="M455,200.5c-0.5-1.8-0.4-1.9,1.2-1.7C455.8,199.4,455.4,199.9,455,200.5z" />
	<path display="inline" fill="#7C5C58" d="M435,190.1c0.9,0,1.3,0.2,1.8,0.9C435.8,191.3,435.8,191.3,435,190.1z" />
	<path display="inline" fill="#84615D" d="M430.6,187.2c0.2,0.1,0.4,0.2,0.6,0.2c-0.2,0.5-0.5,0.4-0.9,0.2   C430.3,187.5,430.5,187.4,430.6,187.2z" />
	<path display="inline" fill="#EDCABA" d="M434.8,185c0.2-0.3,0.4-0.5,0.6-0.8C435.3,184.5,435.1,184.8,434.8,185z" />
	<path display="inline" fill="#120E0D" d="M404.5,192.1c-2.8-6-5.9-11.9-9-17.8c3.8-1.8,8.9,12.8,9.8,16.3   C405,191.1,404.7,191.6,404.5,192.1z" />
	<path display="inline" fill="#5B4B44" d="M406.8,196c1.6,0.3,1.3,1.7,1.8,2.6C407.2,200.1,405.8,197,406.8,196z" />
	<path display="inline" fill="#4F4741" d="M404.5,192.1c0.2-0.5,0.5-1,0.7-1.5c1.1,1.2,0.4,2.7,1.1,4.1   C404.8,194.7,405.2,193.1,404.5,192.1z" />
	<path display="inline" fill="#241F1D" d="M411.9,209c-1.3-0.8-1.6-1.7-1.1-3.1C411.7,207.2,411.7,207.2,411.9,209z" />
	<path display="inline" fill="#332421" d="M409,201.2c0.7,0.7,1.2,1.1,1.2,2C408.7,202.6,408.7,202.6,409,201.2z" />
	<path display="inline" fill="#7A6059" d="M392.7,169.7c0.5,0.7,0.8,1,1.1,1.4C392.6,171.6,392.6,171.6,392.7,169.7z" />
	<path display="inline" fill="#4B65C5" d="M438.4,319.3c0.5,11.6-1.1,22.4-2.3,33.9c-3.9-10.3-2.7-22.5-2.3-33.6   c-0.5-0.2-1.1-0.6-1.8-1C434.2,318.3,436.3,318.9,438.4,319.3z" />
	<path display="inline" fill="#4B64C3" d="M455.3,390.6c0.8-2.6,2-5,1.4-7.8c1.2,1.2,2.9,1.7,4.2,3.2c0,9.7,9.7,16.8,10.6,26.5   c-6.1-6.6-10.7-14.3-14.8-22.3C456.5,390.3,455.8,390.7,455.3,390.6z" />
	<path display="inline" fill="#4B65C6" d="M459.7,362.9c-1.2,0.5-0.9,1.5-0.8,2.6c4.4,5,10.1,9.1,13,16c-6.2-2.4-9.3-8-14.6-10.8   c1.8-2.7,0.1-5.4,1.1-8.5C459,362.5,459.4,362.7,459.7,362.9z" />
	<path display="inline" fill="#4B65C6" d="M458.2,359.5c0-0.2,0-0.5,0-0.7c1.5-1,0.5-3.4,0.8-5c5.1,1.5,9.4,4.3,13.5,8.2   c-4.2,1.5-8.3-2-12.2-3.2c-0.5,0.5-0.9,1-1.2,1.4C458.7,360,458.4,359.7,458.2,359.5z" />
	<path display="inline" fill="#354582" d="M458.9,353.8c-0.3,1.6,0.7,4-0.8,5c-1.2-10.8-1.5-23.7,1.2-33.8   C459.5,334.7,458.5,344.1,458.9,353.8z" />
	<path display="inline" fill="#0B0F1C" d="M443.4,330c0,6.8,0.2,13-1.7,19.6c-1-4.1-0.4-17.4,1-26.9   C443.9,324.9,443.2,327.6,443.4,330z" />
	<path display="inline" fill="#080A13" d="M480.1,318.1c-1,8.3-1,15.8,1.7,23.5C476.7,339.6,476.2,321.4,480.1,318.1z" />
	<path display="inline" fill="#14182F" d="M456,390.6c1.1-0.9,1.4,1,2,1.7c3.4,7.5,8.2,14,13.6,20.2c0,0.2,0.1,0.4,0.1,0.6   c-0.3,0.3-0.5,0.5-0.8,0.8c-6.5-6.6-10.8-14.6-14.8-22.7C456.1,390.9,456.1,390.7,456,390.6z" />
	<path display="inline" fill="#171B34" d="M459.7,362.9c-0.4-0.2-0.7-0.4-1.3-0.6c-0.3,4.7-0.5,8.4-2.5,12.7   c-1.1-0.4-0.5-1.5-0.7-2.2c1.2-3.6,2.8-6.7,2.1-10.8c-1.9-0.7-4-1.4-6.3-2.2c1.9-0.9,3.4,0.2,4.9,0.4c0.7,1.2,1.9,0.5,2.9,0.7   c1.8,1,2.7,1,4.1,3C461.4,363.4,460.6,363.1,459.7,362.9z" />
	<path display="inline" fill="#141529" d="M456.7,317.7c3.1-0.1,6.1-0.8,9.2-0.7c0.1,0.2,0.3,0.3,0.5,0.7c-6,1.1-12.4,3.2-18.1,0.4   C451.3,317.5,454,318,456.7,317.7z" />
	<path display="inline" fill="#4D67C9" d="M434.6,371.3c5.4-2.1,10.2-2.9,15.7-2.5C448.6,371,437.8,371.5,434.6,371.3z" />
	<path display="inline" fill="#110D19" d="M438.4,319.3c-5.2-1.2-10.5-0.4-15.5-2.3c3.6-1.6,8,0.2,11.9,0.2c1.1,0.9,2.4,0.5,3.6,0.7   l0,0c0.3,0.7,0.8,0.7,1.5,0.7l0,0c0.1,0.2,0,0.4-0.1,0.6C439.2,319.2,438.8,319.2,438.4,319.3z" />
	<path display="inline" fill="#4660BC" d="M425.6,317.9c1,0.1,2-0.3,2.9,0.5c-1.1,1.9-0.4,4-1.4,6c-0.1,0.3,0.3,0.8,0.4,1.2   c-0.4,0.6-0.7,1.3-1.2,2.1c0.6,0,1,0.1,1.3,0.1c-0.4,1-1.3,0.8-2.1,1.2C425.6,325,425.6,321.5,425.6,317.9z" />
	<path display="inline" fill="#4E69CD" d="M452.2,378.7c-1.9,3-10.3,3.8-14,4C442.5,380.6,447.5,379.1,452.2,378.7z" />
	<path display="inline" fill="#1B223F" d="M463.1,343.2c1.3,3.4,3.4,6.6,4.1,10.2c-1.9,0.3-3-4.3-4.9-9.4   C462.6,343.8,462.8,343.5,463.1,343.2z" />
	<path display="inline" fill="#17172E" d="M424.5,316.3c-0.5,0.3-1.1,0.5-1.6,0.8c-2.9-0.7-5.6-1.4-7.8-3.5   C418.2,313.9,421.5,315.1,424.5,316.3z" />
	<path display="inline" fill="#273466" d="M461.8,376.8c2,2.8,1.2,5.3,1.2,8.3C461.2,382.3,461.7,379.8,461.8,376.8z" />
	<path display="inline" fill="#30407D" d="M476.4,314.4c0.5,0,1.1,0,1.6,0c-1.2,3.3-2.8,2.8-7.4,2.4c1.5-0.3,1.7-0.3,2.8-0.7   c0-0.4,0.1-0.7,0.1-1c0.3,0,0.6,0,0.9,0C475.7,316,476.1,315.8,476.4,314.4z" />
	<path display="inline" fill="#161A2F" d="M443.4,330c-0.2-2.4,0.5-5.1-0.7-7.2c-0.1-1-0.1-2,1.1-2.7   C444.3,323.2,444.2,327,443.4,330z" />
	<path display="inline" fill="#0E111E" d="M465.5,330.7c-0.4-2.5-0.6-5,0-8.3C466.6,325.6,466.7,328.2,465.5,330.7z" />
	<path display="inline" fill="#131425" d="M427.8,327.7c-0.3,0-0.7,0-1.3-0.1c0.8-1.9,2.1-3.1,3.5-4.5   C432.1,324.3,428.4,326.4,427.8,327.7z" />
	<path display="inline" fill="#191F3A" d="M415,326.9c-0.7,0.5-1.4,1-2.1,1.5c-1-1,2.8-5.3,4.3-5.7C417,324.6,415.5,325.5,415,326.9   z" />
	<path display="inline" fill="#2D3867" d="M463.1,343.2c-0.3,0.3-0.5,0.5-0.8,0.8c-0.7-1.9-1.3-3.9-2.2-6.4   C462.4,338.6,462,341.3,463.1,343.2z" />
	<path display="inline" fill="#324077" d="M455,328.4c0.3,1.6,0.6,3.1,0.9,4.7C454.5,332.7,452.7,329.7,455,328.4z" />
	<path display="inline" fill="#192243" d="M481.4,399.8c0.2,2.4,0.3,4.8-0.1,7.3c-0.8-1.9-0.4-3.9-0.6-5.8   C480.9,400.8,481.1,400.3,481.4,399.8z" />
	<path display="inline" fill="#27366B" d="M455.2,372.8c0.3,0.7-0.3,1.7,0.7,2.2c0,1,0.1,2-1.2,2.7   C454.5,375.9,454.3,374.3,455.2,372.8z" />
	<path display="inline" fill="#4B65C5" d="M438.3,317.9c-1.2-0.2-2.5,0.1-3.6-0.7C437,316,437.1,316.1,438.3,317.9z" />
	<path display="inline" fill="#2B3765" d="M470.9,413.8c0.3-0.3,0.5-0.5,0.8-0.8c0.7,1,1.5,2,2.4,3.2   C472.3,415.8,472.3,415.8,470.9,413.8z" />
	<path display="inline" fill="#2E3D78" d="M481.4,399.8c-0.2,0.5-0.5,1-0.7,1.4c-0.9-1.1-0.4-2.6-0.7-4.4   C481.1,397.9,481.6,398.7,481.4,399.8z" />
	<path display="inline" fill="#354582" d="M458.9,360.9c-1-0.2-2.1,0.5-2.9-0.7c0.7-0.2,1.7,0.4,2.1-0.7c0.3,0.2,0.5,0.5,0.8,0.7   C458.9,360.4,458.9,360.7,458.9,360.9z" />
	<path display="inline" fill="#4B65C5" d="M439.8,318.6c-0.6,0.1-1.2,0-1.5-0.7C438.9,317.8,439.5,317.7,439.8,318.6z" />
	<path display="inline" fill="#4B65C5" d="M439.7,319.2c0.1-0.2,0.1-0.4,0.1-0.6c0.4,0.1,0.8,0.1,1.2,0.2c0,0.1,0,0.3,0,0.4   C440.5,319.1,440.1,319.1,439.7,319.2z" />
	<path display="inline" fill="#2A376B" d="M407.2,339c1-8.7,1.3-17.9,5.3-25.8c-1.7,9-3.4,17.5-4.6,26.5   C407.7,339.4,407.5,339.2,407.2,339z" />
	<path display="inline" fill="#090C17" d="M398.1,411.7c0-0.2-0.1-0.5-0.1-0.7c2.5-0.3,1.4-5.5,2.3-7.7c1.8,6.3-1.2,13.2-1,19.8   C394.8,421,400.7,415.1,398.1,411.7z" />
	<path display="inline" fill="#36498D" d="M407.2,339c0.2,0.2,0.5,0.5,0.7,0.7c-0.7,6.5-1.5,13.1-3.4,19.4   C405.3,352.5,405.7,345.2,407.2,339z" />
	<path display="inline" fill="#2D3D76" d="M401,406.8c-0.1-1.2,0.1-2.5-0.7-3.5c0.9-5.6-0.2-10.7,1.8-16.2   C402.5,393.7,402.1,400.7,401,406.8z" />
	<path display="inline" fill="#212C55" d="M399.4,408.8c0,1.8,0,1.8-1.4,2.2c-2.3-4.2-3.8-9-4.9-13.7c3.1,2.1,3.2,8.5,5.2,12.1   C398.8,409.2,399.1,409,399.4,408.8z" />
	<path display="inline" fill="#2B396E" d="M407.2,386.4c0.2,1.8,0.5,3.7,0.7,5.5c-3-3.6-2.5-9.2-4-13.5   C406.5,377.6,405.5,385,407.2,386.4z" />
	<path display="inline" fill="#222D58" d="M410.8,415.3c0,1.4,0,2.7,0,4.1c-1.2,1.2,0,3-1.9,4c0.8-4.4,0.5-8.7,0.5-13.1l0,0   C411.2,411.5,409.1,414,410.8,415.3z" />
	<path display="inline" fill="#212C55" d="M398.1,411.7c0.9,1.7,0.9,3,0,5C398.1,415,398.1,413.4,398.1,411.7z" />
	<path display="inline" fill="#4B65C5" d="M410.8,415.3c-1.6-1.4,0.4-3.9-1.4-5c0.1-0.3,0.3-0.6,0.6-1.3   C411.3,411.5,410.7,413.5,410.8,415.3z" />
	<path display="inline" fill="#292321" d="M485.8,184c-1.9-4.2,1.7-9.8,2.9-11.9C489.5,174.2,487.4,180.8,485.8,184z" />
	<path display="inline" fill="#332B29" d="M492.3,33c0.7-0.2,1.2-0.8,1.9-0.2c-1.7,1.9,0.8,5.7-2,6.5c-0.2-2.1-0.5-4.1-0.7-6.1   C491.7,33.2,492,33.1,492.3,33z" />
	<path display="inline" fill="#36322F" d="M492.8,55.8c-0.3-2.3,1.1-3.1,2.7-4.1C495.7,53.7,494.8,54.7,492.8,55.8z" />
	<path display="inline" fill="#393734" d="M491.8,69.9c-0.8-2.5-0.8-2.5,0.1-3.9C493.2,67.4,493.2,67.5,491.8,69.9z" />
	<path display="inline" fill="#381312" d="M495.6,42.2c-2.5,1.7-2.6,1.7-4.8,0.3C492.4,42.4,493.9,42.3,495.6,42.2z" />
	<path display="inline" fill="#261F1D" d="M487.2,36.8c0.5,0.2,0.9,0.4,1.4,0.7c0.3,1-0.2,1.8-0.5,2.7C487.1,39,487.1,39,487.2,36.8   z" />
	<path display="inline" fill="#3D3936" d="M475.8,178.7c-1.6-0.8-2.3-1.5-2.2-3.1C475.1,176.2,475.9,176.8,475.8,178.7z" />
	<path display="inline" fill="#584D49" d="M492.3,33c-0.3,0.1-0.6,0.1-0.9,0.2c0-1.7,0-3.5,0-5.2c0.1,0,0.2,0,0.3,0   C492.2,29.6,492.2,31.3,492.3,33z" />
	<path display="inline" fill="#0E1010" d="M489.1,161.2c1.1,1.2,0.3,1.9-0.1,2.6C488,162.6,488,162.6,489.1,161.2z" />
	<path display="inline" fill="#534441" d="M489.9,43.8c-1.4,0.3-2.2-0.3-3-1.5C488.7,42.6,488.7,42.6,489.9,43.8z" />
	<path display="inline" fill="#968A83" d="M489.7,166.9c0,0.9,0,1.6,0,2.4C488.1,168.7,488.2,168.3,489.7,166.9z" />
	<path display="inline" fill="#98857E" d="M492.2,73.6c-1.1-0.9-1.1-1.5-0.3-2.3C493.1,71.9,492.8,72.6,492.2,73.6z" />
	<path display="inline" fill="#584945" d="M489.1,50.9c-1.2-0.6-1.8-1.4-2.1-2.6C488.7,48.9,488.7,48.9,489.1,50.9z" />
	<path display="inline" fill="#5E514D" d="M490.9,156.4c-0.3,0.6-0.5,1.1-0.6,1.5C488.4,158.2,489,155.4,490.9,156.4z" />
	<path display="inline" fill="#3A3431" d="M487.2,32.6c0.9,1.1,0.9,2.3,0,3.4C487.2,34.8,487.2,33.7,487.2,32.6z" />
	<path display="inline" fill="#D4BCB1" d="M489.2,127.1c1.3-0.5,2.3-0.7,1.6,0.6C490.6,127.6,490.3,127.5,489.2,127.1z" />
	<path display="inline" fill="#292826" d="M492.8,79.5c-1.3-1.4-1.1-2.1-0.2-3C492.7,77.4,492.8,78.1,492.8,79.5z" />
	<path display="inline" fill="#90706A" d="M491.7,124.3c-0.2-1.3-0.2-1.3,1-0.9C492.3,123.7,492,123.9,491.7,124.3z" />
	<path display="inline" fill="#6B5F5A" d="M485,28.3c0.2,0.1,0.4,0.1,0.6,0.2c-0.2,0.5-0.5,0.4-0.9,0.2   C484.7,28.5,484.8,28.4,485,28.3z" />
	<path display="inline" fill="#9B8F88" d="M485.4,32.7c-0.3,0.5-0.5,0.3-0.9,0.1C484.7,32.4,485,32.6,485.4,32.7z" />
	<path display="inline" fill="#130606" d="M489.3,130.2c0.1-1.2,0.5-1.2,0.5,0C489.7,130.2,489.5,130.2,489.3,130.2z" />
	<path display="inline" fill="#59504D" d="M492.8,120.5c0-1.3,0.5-1.2,0.5,0C493.2,120.5,493,120.5,492.8,120.5z" />
	<path display="inline" fill="#7B5E59" d="M489.8,51.8c0,0.1,0,0.1,0,0.2c-0.1,0-0.3-0.1-0.4-0.1C489.5,51.7,489.6,51.6,489.8,51.8z   " />
	<path display="inline" fill="#1F1A19" d="M455.4,456.2c0.1-0.8-0.6-1.8,0.5-2.7c3.6,3.5,3.7,9,3.4,14   C456.8,464.4,457.2,459.8,455.4,456.2z" />
	<path display="inline" fill="#292120" d="M469,453.7c0.4-2.2,1.5-3.9,2.6-5.5c3.2,0.3-0.5,4.9-1.8,6   C469.6,454,469.3,453.9,469,453.7z" />
	<path display="inline" fill="#8B766E" d="M458.9,519.1c0.3,0,0.7,0.1,1.1,0.1c0.6,1.1,0.5,2.1,0,3.2c-0.4,0-0.7,0.1-1,0.1   C458.9,521.4,458.9,520.2,458.9,519.1z" />
	<path display="inline" fill="#393431" d="M461.4,474.6c-1.1-1-1.3-2.2-1-3.8C462.1,471.5,462.3,473.1,461.4,474.6z" />
	<path display="inline" fill="#221C1A" d="M463,492.1c-1.7-0.1-1.3-2.6,0-3.3C463,489.9,463,491,463,492.1z" />
	<path display="inline" fill="#373432" d="M462.1,484c1,0.8,0.8,1.6,0,2.8C461.6,485.7,461.4,484.9,462.1,484z" />
	<path display="inline" fill="#191514" d="M459,438.1c1.4-0.6,1.4-0.6,2,0.5C459.9,439,459.2,439.7,459,438.1z" />
	<path display="inline" fill="#6D5A55" d="M460.2,514.9c0.1,1.2,0.5,2.5-0.6,3.5C459.7,517.2,458.9,515.5,460.2,514.9z" />
	<path display="inline" fill="#1F1917" d="M463,477.8c0,1.1,0,1.7,0,2.8C462.1,479.6,461.9,479,463,477.8z" />
	<path display="inline" fill="#83605B" d="M458,439c-0.4,0.2-0.7,0.3-0.9-0.2C457.5,438.6,457.7,438.5,458,439z" />
	<path display="inline" fill="#55403D" d="M469.5,457.5c0.1-1.3,0.5-1.3,0.5,0C469.8,457.5,469.7,457.5,469.5,457.5z" />
	<path display="inline" fill="#5E4F48" d="M459.4,525.1c0.3,1.5,0.4,2.9-0.4,4.6C457.7,528.5,457.3,525.2,459.4,525.1z" />
	<path display="inline" fill="#39312D" d="M458.8,532c0,1.4,0,2.7,0,4.1C457.4,534.4,457.3,533.8,458.8,532z" />
	<path display="inline" fill="#1A2445" d="M453.9,419.5c0.3-0.3,0.5-0.5,0.8-0.8c0.4,0.5,0.8,1,1.3,1.6   C455.5,421.8,454.3,420.2,453.9,419.5z" />
	<path display="inline" fill="#4B64C3" d="M456.1,391.1c0.2,0.5,0.4,1,0.7,1.5C455.9,392.4,456,391.8,456.1,391.1z" />
	<path display="inline" fill="#7E8192" d="M437.1,293.4c-0.2-0.5-0.4-0.9-0.6-1.5C437.5,292.2,437.5,292.2,437.1,293.4z" />
	<path display="inline" fill="#5876E8" d="M476.4,314.4c-0.3,1.4-0.7,1.6-1.9,0.7C475.1,314.8,475.8,314.6,476.4,314.4z" />
	<path display="inline" fill="#9597AA" d="M416.5,244.4c0.6,1.2,0.7,2.2-0.6,1.6C416,245.7,416.1,245.5,416.5,244.4z" />
	<path display="inline" fill="#3C1B1F" d="M419.5,244.7c-0.3,0.3-0.6,0.5-0.8,0C418.9,244.3,419.3,244.6,419.5,244.7z" />
</g>
</svg>