<?xml version='1.0' encoding='utf-8'?>
<svg xmlns="http://www.w3.org/2000/svg" version="1.2" baseProfile="tiny" id="Layer_2_1_" x="0px" y="0px" viewBox="0 0 900 600" overflow="visible" xml:space="preserve">
<g id="a_00000056408194365699981900000004985739072974397109_">
	<path d="M86,223.9c-16.6-6.1-38-10.1-52.4,2.4c-5.4,9.3-26.5,6.5-24.9-5.6c-15.9-10.8-6.4-16.3,0.1-28.9   c14.6-20.1,35.7-21.8,57.1-29.7c12.5-7.5,24.8-14.1,39.8-14.8c6.1,0.5,18.7-5.3,20,3.3c7.3,4.2,9.3,12.8,9.3,20.8   c2.1,7.9,6.3,16,7.6,24.2c-1.1,2.5-4.3,2.1-5.1,4.6c16.9,28.2,40,52.9,60.6,78.7c11.8,21.7,11.5,48,12.5,72.1   c35.7-12.8,72-34.3,110.3-44.1c11.5-4.9,9-24,26.7-32.1c16.6-10.9,37.8-12.7,57.2-10.6c17,6.3,34,6.8,51.3,1.2   c88.6-36.2,169.4-84.7,265.5-42.6c-1.9-0.8-3.7-1.5-5.5-2.2c-0.3-1.1-0.6-2.1-1-3.3c-1.4-0.5-3.3,1.4-4.8-1.1   c2.4-2.1,3.7-5,3.9-8.2c1.1-0.9,2.1-1.6,3-2.4c-1.3-2.4-4.4-0.7-7.2-2.2c3.6-2.1,4.6-3.4,5.6-7.2c1-0.3,2.2-0.8,3.4-1.2   c-0.8-2,0.3-4.5-1.6-6.3c-0.5-4.3,1.8-7.7,5.8-9.3c-1.1-0.7-2-1.2-3-1.9c1.7-2.8,4.9-2.3,6.7-4c1.1-1.9,2.2-3.7,3.4-5.7   c-0.2-0.8-0.5-1.9-0.8-3c1.1-2,3.4-2.2,5.6-3.4c2.5-8.7,8.8-5.1,15.4-5.5c-1.1-2.4-1.8-4.3-4-5.2c-0.7-0.5-1-1.3-0.9-2.3   c1.6-0.6,3.3-1.8,4.9-1.6c3.4,0.3,5.7-2.5,9-1.2c2.2,0.6,4.1,2.2,6.4,1.3c-0.7-3.9-5.6-3.7-6.6-7c2.7-5,10.7-4.5,14.9-2.2   c2.3-0.4,4.4-0.7,6.4-1c-0.3-0.8-0.6-1.7-0.9-2.7c2.2-1,3.6,0.6,5,0.9c10.8-2.2,16.6,6.4,26.8,5.9c0.1-0.1,0.5-0.5,1.3-1.1   c-3.1-0.8-5.4-2.8-8.6-2.6c-1.2,0.1-1.4-0.4-2.7-2.7c5.6-2.4,16.2-4.8,17.8,3.4c3.9,2.1,7.9,0,12.1,1.5c0.8,1,1.7,1.4,3.3,0.5   c-0.9-0.6-1.7-1-2.4-1.5c-0.3-0.7-0.6-1.4-0.9-2.2c4.2-4.3,9.1,0.4,12.6,2.9c3.9,0.6,5.4,3.4,6.6,6.6c2.6,4.9,9.7,5.2,13.8,8.8   c3.5,2.6,8.1,0.2,11.6,2.1c3.1,6.3,7.9,11.6,6.9,19.8c3.8,1.2,8.3,3.4,7.4,8.3c1.3,1,2.4,1.9,3.6,2.9c-0.7,2.7-3.4,2.5-5.5,3.5   c0.8,0.8,1.7,1.5,2.7,2.4c-2,7.8,11.8,14.3,3.9,20.5c4.6,4.2,7.6,15.1-2.1,13.4c0.2,0.7,0.3,1.1,0.4,1.5c9.4,0.3,9.1,11.8,0.3,10.6   c-1.5,1.6-2.5,3.4-2.6,6c5,2.5,0.7,8.1-2.3,10.7c-4.7-1.9-5.7-0.2-7.6,3.8c-1.8,0.3-3.7,1.2-5.7-0.4c0.3-1.1,0.7-2.3,1.2-4.1   c-0.3-0.2-0.7-0.7-1.1-1c-3.4,1.1-1.5,5.9-5.2,7.1c-2.2,0-3.9-0.9-4.4-3.2c-3.2,0.1-4.8,2-6.1,4c-2.4,1-4.7,1.7-7.4-0.1   c0.3-0.8,0.6-1.7,1-2.8c-0.8-0.4-1.7-1-2.9-1.6c-1.2,1.4-2.2,2.6-3.3,3.9c-1-0.1-1.9-0.2-2.8-0.3c-2.3,21.6-22.3,49-45.6,44.2   c13-2.8,25.3-8.3,32.4-20.1c-0.7-16.8-9.5-22.3-24.8-24.6c-0.2,0.7-0.4,1.2-0.7,2c-1.5-1.1-2.9-2-4.4-3c-3,0.2-6.6,0.1-8.3-2.7   c-3.2-4.5-9-2.5-13.2-5.2c-0.6-1.8,2.8-2.7,1.2-4.1c-0.6-1.5,1.7-2.8,0.3-4.5c-3.2,6.5-4.9,6.9-11.8,6.7c-2.1,2.6-6.8,6.4-8.6,1   c0.6-1.6-1.5-2.5-1.7-4c0.5-4,6.4-4.9,4.2-9c-3.6,4.7-9.2,9.2-9.3,15.2c1.1,1.3,3.9,0.5,3.9,3.4c-9.6,4.5-12.8,3.5-17.9,13.2   c-6-5.5,5.8-12.1,10.6-13.8c-0.6-1.5-1-2.7-1.5-3.9c1.5-5.9,7.2-9.9,8.6-15.4c-0.9-0.5-1.8-1.1-2.5-1.5c-6,2.8-13.8,6.2-18.8,0.3   c-2.8,1.6-5,0.3-7.2-1.4c-1.2-2,0.5-4.8-1.8-6.8c-1.6-0.1-3.3-0.2-5.1-0.3l0,0c-16-3.7-30.2-12.1-46.4-15.7   c-3.1,6.3-0.2,11.8,1.2,17.6c9.5,7.3,18,14.2,20.8,26.4c1.1-2.4,2-4.3,2.9-6.4c1,0.6,1.8,1,2.6,1.4c-0.8,8.8-6.8,15.1-5.7,24   c33.9,2.3,26.7,4.5,29.4,32.3c0.4,8.6,9,4.3,14.9,4.5c0.5-0.6,1.3-1.6,2.2-2.6c0.8,0,1.6,0,2.9,0c-1.8,3.4-4.9,5.8-1.4,9.1   c1.1-0.2,2.2-0.4,3.2-0.6c-0.2-5.2-1.2-9.4-0.2-14.4c1.3,0.1,2.3,0.3,3.4,0.4c0,1,0,1.8,0,2.5c-2.3,2.4-0.2,8.7,0.9,11.5   c1.5,1.7,4.6,1.3,3.9-1.5c1.9-2.2,4.9-2.3,7.6-2.7c-0.2-0.5-0.4-1-0.5-1.5c0.6-1.4,2-0.7,3-1c2.2,1.8,2.1,4.1,1.2,6.5   c11.5,2.2,7.2-16.6,27.8-10.7c-18.6-1-20.4,24.7-32.6,9.4c-4.7,4.5-7.3,4.5-13.5,4.2c-5.4,1.5-7.6-1.5-9.9-6   c-25.3,5.7-14.1-16.8-18.3-31.5c-6.8-4.8-22.8-6-26.7-4.3c-4.3,8.1-1.6,18.3-7.1,26.3c-3.6,9.4-10,17.6-12.1,27.5   c1.8,14.5,1.5,28.8,0.3,43.6c25.5,3.3,50.2,15.5,76.4,12.2c8.5-1.6,13.1-9.9,22.4-8.8c4.6-0.8,8.5-1.9,11.2,2.9   c4.9,0.8,21.2,3,13.9,10.3c1.8,1.1,3.1,2.6,3.5,4.7c1.4,0.8,2.6,1.6,3.7,2.3c1.5,3.2-1.5,4.6-2.2,7.3c4.4,6,1.8,8.2-3.4,12.3   c-1.6,19.4-19.8,14.1-33.8,16.7c-18.7,3.5-37.6,6.8-56.5,9.8c-24.1,4.1-48.8,3-73.2,3.8c-19.6,0.7-18-30.2-19-44.2   c-8.5-15.6-7.7-36.1-5.5-53.6c-17.7-0.1-33.2-1.7-43.7-17.2c-30.7,12.3-65.4,14.3-97.8,21c-10.9,1-20.8,4.5-30.2,10   c-12.9,6.2-27.6,6.4-40.4,13c-62.5,46.8-144.9,40.3-218.8,46.1c-2.9,0.2-5.9,0.3-9.7,0.5c-2.3-0.8-4.7-4.2-8.8-3.1   c-16.2-38-34.4-76.1-43-116.8c-2.5-19.6-13.8-65.3-27.5-78.5C91.7,227.1,87.2,227.1,86,223.9z M51.4,209.9c1.7-2.8,3.1-6.4,7.2-6.9   c0.2,1,0.4,1.9,0.6,2.8c-1.3,2.4-2.7,4.7-3.1,7.5c2.4,0.7,4.7,1.4,7.4,2.3c0.6-4.1,2.4-19.1,8.9-13.9c-1.2,5-3.3,9.8-3,15   c1.7,0.3,3,1,4.5,0.9c0.5-2.4,0.9-4.4,1.3-6.5l0,0c1.6-3.5,3.5-13.2,8.7-10.4c0.3,6.4-3.2,12.2-5.2,18.2c3.9,1.1,8.1,5.7,12,4.4   c0.5-2.4,1-4.8,1.4-7.2c8.3-7,5.1-21.4,14.7-27.8c5-5.3,22.6,5.6,25.6,10.6c2.2-1.6,4.2-3,6.1-4.3c0-11.7-11.3-20.8-12.1-32.5   c-3.4-3.2-3.7-7.7-5.8-11.5c-3.8-0.7-7.9,0.8-11.5-1c-9.1,3.5-19.7,2.9-27.4,9.3c-2.8,2.2-5.9,3.6-9.3,4.5   c-12.8,4.6-27.4,6.6-39.1,13.5C7,197-17.9,225.3,37.2,212.3c0.1-1.4,0.3-2.9,0.4-4.3c1.3-1.8,2.7-0.8,4.4-0.7c1.1-2,2.4-3.9,5-4.3   c0.1,1.3,0.2,2.6,0.4,3.8c-0.2,0.3-0.2,0.6-0.1,0.9c-1.2,1.3-1.1,2.9-0.9,4.5c1.6,0.6,3.1,0.7,4.8-0.1   C51.2,211.4,51.3,210.6,51.4,209.9L51.4,209.9z M201.1,361.5c-1.7,1.3-2.1,3.3-2.9,5.1c-0.5-0.6-0.7-1.4-1.1-2.1   c12.6-56-32.4-92.6-53.7-137.6c0.4-0.4,0.8-0.8,1.2-1.2c37.2,55.4,54.3,58,58.2,130.8c2.3-0.2,4.3,0.5,6.2-0.5   c-8.1-24.5-1.5-54.6-16.6-77.3c-12.4-13.5-27.2-25.6-34.6-42.9c-6.6-9.1-13-18.1-18-28.3c-0.8-1-1.6-2.2-3.3-1.7   c-13.1,4.2-28.6,9.5-37.1,20.9c22,31.5,21.2,69.6,32.1,104.7c4.2,11.3,6.9,23.1,12.4,33.9c3.3,10.5,15.4,23.6,13.5,34.1   c2.9,6.7,6.4,12.2,9.4,18.6c0.5-1,0.9-1.9,1.2-2.6c0.6,0,0.9,0,1.2,0c4.4,10.4,16.3,6.7,25.3,6.7c-0.3-0.7-0.4-1.2-0.6-1.6   c56.4-2.4,113.6-5,167.9-22.4c17.5-8.1,31.6-22,50.2-28.1c-19.2-28-23.6-64.2-19.8-97.3c-37.5-4.1-46.3,17-67.9,39.3   c-17.3,11-39,15.1-57.3,24.9C245.4,346,224.1,357.6,201.1,361.5z M129.7,162.2c-0.7,3,0.4,5.5,2,7.9c-0.1,1.2,0.5,2.1,1.7,2.8   c0.3-1.1,0.8-2.1-0.6-2.8c-0.1-2.8,0.3-5.8-2.1-8c-0.5-2.5-0.2-5.4-3.7-6.5C127,158.3,128.3,160,129.7,162.2z M756.8,406.2   c-26.1,15.1-58.2,3.6-86.3,3c-1.8,1.7-0.3,4.4-2.5,5.6c-2.2-1.6-2.3-5.1-1.2-7.6c2.7-26.1,4.4-52.5,4.7-78.6   c5.2-22.9,23.5-39.4,11.3-64.1c0.9,0.1,1.8,0.2,2.6,0.3c8.1-11.8-15.7-15.1-23.1-17.5c-35.4-9.4-77.9,39-37.8,60.7   c1.9-6.2,3.1-12.3,3.4-18.3c-4.8-3.7-4.8-3.7-6.6-8.3c3-0.6,4,2.6,6.4,3.1c1.3-4.5-3-10.2,0.5-13.9c0.6,0.2,1.4,0.5,2.2,0.9   c11.9,25.2-19.3,74.1-7.7,80.8c0.2,2.7,0.5,5.1,2.2,7.2c-0.3,0.3-0.7,0.7-1,1c-1.1-0.3-2.1-0.6-3.3-0.9c0.4,15.6,4.1,30.7,4.2,46.3   c-0.1,14.1,0.1,28.2,9,40c42.4-0.2,84.7-2.4,125.9-13c8.2-2.7,29.4,0.3,33.6-5.7c0.2-2.2,2.2-2.7,3.1-4.2c1.4-2.6,1.4-5.5,3.3-7.9   c1-1,5.1-2.4,2.8-4c-0.7-2-1.5-3.9-2.2-5.7c1.1-1.6,1.9-2.7,2.7-3.8c-1.9-1.9-3.6-3.6-5.5-5.5c-4.5-0.5-11.4,2-13.6-3.7   c1.5-0.6,2.9-1.2,4.5-1.8c1.4,0.9,2.9,2.1,4.9,1.6c-1.3-2.1-2.3-3.9-3.5-5.9c-5,0.3-9.3,3.1-14.4,2.9c-1.5,0-2.8,0.9-3.7,2.1   C767.9,397.4,761.2,400.6,756.8,406.2z M771.8,237.5c0.3,2,1.5,3.9,1,6c-2.1-0.6-3.1-2.5-4.7-4.1c-1.1,2.2-2,4-2.8,5.7   c2.9,1,5.6,3.2,8.6,3.2c1.4-0.8,2.1-1.9,2.4-3.4c-1.5-0.5-2.8,1.8-4.1-0.1c0.5-2.8,3.2-1.9,5.3-1.4c0.4-0.6,0.8-1.3,1.2-1.8   C776.1,240.1,773.9,238.9,771.8,237.5c-0.1-0.5-0.2-1.1-0.3-1.8c3.2,0.2,4.5,4.1,8,3.2c3.7-4.7-12.4-7.7-13.7-2.5   C768,236.8,769.9,237.2,771.8,237.5z M338.8,287c-1.4,1-2.1,2.2-2.3,4.1c13.7-14.9,32.6-23.3,53.2-21.8c1.9-0.2,5.9,0.9,5.4-2.4   C374.9,265.2,351.9,270.6,338.8,287z M230.9,346.8c-5.4,2-10.7,4.1-15.9,6.1c-0.2,1.1-1,1.8-0.2,2.6c21.5-8.5,43-18.2,64.4-27.5   c8.1-4.4,38.7-11.2,40.4-18C288.8,318.8,260.2,333.6,230.9,346.8z M807.5,238.5c-2.1,0.4-4.5,0.2-6.2,1.2c-2.2,1.4-4.2-0.4-6.2,0.4   c-1.3,0.5-2.5-0.3-3.4-1.3c-0.1-1-0.2-1.9-0.4-3c-1.9,0-3.5,0-4.9,0c-0.5,3.3-1,6.4-1.5,9.4c9.4,6.8,39.8,15.9,51.9,27.2   c1.7-9.1,6.5-18.1,4.2-27.4c-4.1-0.4-4.1-0.4-7.5-4.4c-3.2,1.5-6.2,0.3-9.2-1c-3.3,1.7-6.6,0.8-9.8,0.8c-0.3-0.9-0.6-1.7-1-2.8   C811.6,237.7,809.1,237,807.5,238.5z M105.9,215.8c5.5-3,11-5.9,16.6-8.9c0.2-0.9,0.4-1.8,0.7-3c1,0.8,1.9,1.4,2.6,1.9   c2.9-0.7,5.3-0.6,7.7-2.2c-4.1-7.6-12.3-9.3-19.5-13c-4.8-2.6-11,7.9-12.1,11.6c-1.1,5.4-2.2,10.8-6,15.3c-1.9,2.2-1.3,3.4,1.4,5.5   C100.2,220.5,102.9,218,105.9,215.8z M679.3,405.4c27.9,3.9,65.5,13,85.1-13.1c3.8-6.6,9.6-8,16.8-8.1c-0.2-0.5-0.4-1-0.5-1.3   c-9.8-1-16.6,3.7-24.3,9c-26.4,6.5-54-8.2-80.2-12.5c-1.6,8.2-4.9,17.1-4.2,25.5C674.4,405.6,676.9,405.3,679.3,405.4z M610,303   c-20.8-24.5,9.4-60.7,36.9-60.5c20.3-0.8,47.3,4.1,46.9,29.1c11.9-26.1-30.5-34.7-22.5-59.8c-104.4-20.8-184,78-272.5,55.2   c-10.9,31-2,75.5,16.5,102.3c51.2-17.5,105.5-25.2,158-37.1c9,14.1,27,17.2,42.6,14.7c2.1-11.1,4.6-21.7,8.5-32.4   C619.2,310.8,614.7,307.2,610,303z M14.4,226.4c11.2,4.3,20.8-3.9,29.5-10.2c-11.2-0.2-20.7,4.3-31.8,4.7   C12.2,223.3,12.7,225.1,14.4,226.4z M749.1,169.9c-2.4-2.8-4.6-0.8-7.5-0.4c0,0.1,0,0.3,0.1,0.4   C743.9,169.9,746.1,169.9,749.1,169.9z M742.7,231.3c1.1,0,2.4,0.8,3.2-1C744.4,229.2,743.6,230.5,742.7,231.3z M687.8,267.7   c-0.9,1.5-0.4,2.4,1.1,3.2C689.7,269.5,689.3,268.5,687.8,267.7z M756.6,231c-0.7,0-1.5,0-2.4,0C755,232.4,755.7,232.8,756.6,231z    M795.6,388.3c0.5,0.6,0.9,1.2,1.4,1.9C798,388.6,797,388.3,795.6,388.3z M725.6,180c0,0.2,0,0.4,0,0.7c0.7,0,1.4,0,2.1,0   c0-0.2,0-0.4,0-0.6C727,180.1,726.3,180.1,725.6,180z M323.7,309.8c0.4-0.5,0.8-0.9,1.8-1.8C323.7,308.3,323,308.3,323.7,309.8z    M726.1,220.2c-0.6-0.7-1-0.4-1.6,0.2C725.2,220.8,725.6,220.8,726.1,220.2z M817.6,143.8l0.3,0.2l0-0.3L817.6,143.8z M718.5,214   c-0.3,0.3-0.1,0.4,0.1,0.6c0.1-0.2,0.1-0.4,0.2-0.6C718.7,214.1,718.6,214,718.5,214z" />
	<path fill="#050403" d="M789.7,308c2-0.4,4-0.9,6.2-1.4c-3.7-1.6-8.1-0.2-12.2-0.6c3.5-2.2,7.4-0.5,12.1-1   c-5.3-7.2-20.2-3-18.1-10.8c2.1-0.1,4.2,2.3,6.3,0.1c3.3-0.1,2.4-3.7-0.3-4.2c-0.1-2.2,0.8-4.1,1.5-6.1c0.8,0.1,1.4,0.2,2.1,0.3   c0.3,1.2,0.6,2.3,0.9,3.5c4.6,0.2,8.1,4.6,9.2,8.9c-1.1,0.9-2.3,1.9-3.5,2.9c1,2.7,3.6,3.6,4.6,6.2c1.3,2,4.4,0.7,6.4,1.2   c-3.6,1.9-8,0.6-11.9,0.9c-0.2,0.5-0.4,1-0.7,1.4C791.2,309.4,790.1,309.4,789.7,308z M794.8,294.9c-2.1-2.4-3.2-3.6-5.1-5.5   c0.7,2.6,0.8,5.3,2.9,6.8C793,295.9,793.7,295.5,794.8,294.9z" />
	<path fill="#556D6D" d="M716,220.8c1.8,0.7,3.6,1.5,5.5,2.2c-1.8,1.4-5.9-0.3-8.2-1.1C714.2,221.5,715.6,222.4,716,220.8z" />
	<path fill="#949898" d="M832.2,138.5c0.7,0.5,1.5,0.9,2.4,1.5c-1.6,0.8-2.5,0.5-3.3-0.5C831.5,139.1,831.9,138.8,832.2,138.5z" />
	<path fill="#E3D4B1" d="M86,223.9c0.3,0.5,0.7,1.1,1,1.6C86,225.4,85.9,224.7,86,223.9z" />
	<path fill="#EAA388" d="M104.9,220.9c9.1-6.1,18.6-12.5,29.6-14c17.4,53.1,76.8,96.6,62.5,157.6c-1.2,1.1-1.2,2.3-0.4,4.3   c0.7-1.2,1-1.8,1.4-2.4c2.8,1.3-0.7,5.1,2.4,5.9c0.7-2.7,4.2-7.7,0.8-9.5c-0.1-0.4-0.1-0.9-0.2-1.3c22.9-3.4,44.4-15.9,66.1-24.5   c18.3-9.8,40-14,57.3-24.9c21.4-22.3,30.6-43.5,67.9-39.3c-4,29.2,0.8,58.7,12.3,85.8c-8.8,6.1-21.8,5.2-31.4,11   c-14.6,4.4-26.3,14.6-40.4,19.8c-48.1,15.6-98.3,25.6-148.3,16.1c-0.6,3.4,2.8,5.1,3.6,8.2c-10.8,2.1-22.9,3.2-25.4-10.6   c16.2,6,4.8-11.7-0.2-17C129.5,336.3,139,269.2,104.9,220.9z M154.5,319.9c-0.3-0.6-0.5-1.2-0.8-1.7c0.2-1.9,1.6-3.9-0.4-5.2   c-5.9,4.6,1.8,42,10.4,45.6c2-0.4,2.9-1.6,3.7-3.3c-3.5-9.3-9.1-17.8-11.1-27.7c-1.3-1.3-0.1-3.7-1.9-4.8   C154.5,321.9,154.5,320.9,154.5,319.9z M356.1,312.9c10.2,2,16.5-6.3,26-4c2.4-1.8,4.1-3.7,4.7-6.9   C378.2,284.3,347,299.5,356.1,312.9z M177.7,408.7c-1.2-0.5-1.7-0.7-2.2-0.9C174.9,408.9,175.7,409.4,177.7,408.7z M180.9,411.4   c0,0.2,0,0.5,0,0.7c0.6-0.1,1.3-0.2,1.9-0.2C182.7,411.1,181.4,411.6,180.9,411.4z" />
	<path fill="#F5DDCE" d="M409.6,360.6c-13-28-21.4-63.8-10.7-93.6c88,22.9,168.6-76.1,272.5-55.2c-8.1,22.4,24.3,28.4,22.5,47.6   c-1-0.4-1.7-0.7-2.4-1c-8.7-14.5-29.1-15.9-44.5-15.9c-27.5-0.2-57.7,36-36.9,60.5c-0.6,1.3-1.1,2.7-2,4.7   c0.4,13.5-23,19.6-30.9,9.2c-1.5,0.2-3,0.4-4.7,0.7c0.7-7.8,0.6-14.5,1.6-22.6c-8.3,5.8-13.9,13.1-16.6,22.7   c-12.9,30.4-58.1,1.4-83.9,8.5C450.6,333.9,436.4,361.5,409.6,360.6z" />
	<path fill="#B28C7D" d="M799.7,415.2c-2,2.4-1.9,5.3-3.3,7.9c-43.3,1.1-84.4,18.8-127.8,18.8c1.8-2.1,3.2-3.7,5.3-6.2   c-9.6,3.4-18.3,6-27.4,6.3c-9.8-8.9-12.7-15.2-13.6-28.3c-0.7-13.9-4.9-28.3-2.3-42c1.6,0.4,3.3,0.9,4.9,1.3   c5.3-5.1-3-12.2-1.7-18.5c1.2-7.5-3.3-14.9-1.5-22.4c3.5-8,2.2-17.5,5.6-25.3c1.2,2.2,2.1,3.6,3.9,5.1c-0.7,2.7,8.3,7.8,9.8,6   c-1.4-2.4-1.2-4.8,1.1-6.8c-4-13.8-13-26.6-10.9-41.9c-2.1-2.3-3.8-4.2-5.4-6c-8.9,1.9-16.9,7.1-25.6,10   c14.9-41.4,87.8-25.1,74.7-8.4c-0.8-0.1-1.7-0.2-2.6-0.3c12.2,24.7-6.1,41.1-11.3,64.1c-0.3,26.1-2,52.6-4.7,78.6   c-1.1,2.5-1,5.9,1.2,7.6c2.3-1.2,0.7-3.9,2.5-5.6c28.2,0.7,60.2,12.2,86.3-3c0.2,0.1,0.7,0.1,1,0c3.5,6.8,10.4-5.4,12.8-8.6   c-1.3-0.3-1.9-1.2-1.9-2.4c2-2.1,3.5-6,6.8-6c5.1,0.2,9.4-2.6,14.4-2.9c1.2,2,2.3,3.8,3.5,5.9c-2,0.5-3.5-0.6-4.9-1.6   c-1.6,0.7-3,1.2-4.5,1.8c2.2,5.7,9.1,3.2,13.6,3.7c1.9,1.9,3.6,3.6,5.5,5.5c-0.7,1.1-1.6,2.3-2.7,3.8c0.7,1.7,1.4,3.7,2.2,5.7   c-2.7,1.9-6.2,0.8-9.3,1C779.9,415.6,793.9,418.7,799.7,415.2z M792.6,405.3c1.9,1.5,8,1.9,6.6-2c-4.4,0.2-9.4-0.2-13.5,1   c-2.5-1.8-4,0-5.9,1.4c0.7,0.6,1.1,1,1.8,1.6c1.4-0.8,2.8-1.5,4.1-2.3C788,405.2,790.3,405.3,792.6,405.3z M666,416.5   c-0.9,2.2,1.4,3.2,2.8,1.2C667.6,417.2,666.9,416.9,666,416.5z M786.6,416.8c-1.1-1-2.2-0.8-3.4-0.3   C785.5,418.2,785.5,418.2,786.6,416.8z M781.8,416.6c-1-0.4-1.8-0.7-3.3-1.3C779.4,417.4,780.2,417.5,781.8,416.6z" />
	<path fill="#F7EFD0" d="M59.2,205.7c-0.2-0.9-0.4-1.8-0.6-2.8c-3.5,0.1-4.4,3.1-6.2,4.9c-1.2,0.3-1.2,1.1-1,2l0,0   c-1.5,0.8-2.1,2.8-3.9,1.2c0-1.4-0.5-2.9-0.1-4.2c1.4-1.9,1.4-2.8-0.4-3.8c-2.6,0.4-3.8,2.3-5,4.3c-1.6-0.1-3-1.1-4.4,0.7   c-8.1,0.7-15.7,2.5-23.8,2.8c-2.4-2.6-4.8-5.2-7.2-7.8c14.9-22.9,40-33.7,65.9-39.7c3.4-0.9,6.5-2.3,9.3-4.5   c7.7-6.4,18.3-5.8,27.4-9.3c3.7,1.8,7.7,0.3,11.5,1c2.1,3.7,2.4,8.3,5.8,11.5c0.8,11.6,12.1,20.7,12.1,32.5   c-1.9,1.3-3.9,2.7-6.1,4.3c-36.8-32-27.2,7.8-42,18.5c-2.8-1.4-5.6-2.9-8.3-4.3c-1.2-4.4,2.7-8.1,1.7-12.4   c-4.4-2.7-6.6,5.3-7.9,8.3c-1,0.4-1,1.2-0.7,2.1l0,0c-1.3-0.6-2.6-1.2-3.9-1.7c-0.7-2.7,0.4-5,1-7.6c-3.6-4.3-7.5,4.1-8.2,7.2   c-1.6-0.2-3.2,0.5-4.7-0.6C59.3,207.4,59.2,206.6,59.2,205.7z" />
	<path fill="#B28C7D" d="M798.6,306c-1-2.6-3.7-3.6-4.6-6.2c1.3-1,2.4-2,3.5-2.9c-1.1-4.3-4.6-8.7-9.2-8.9c-0.3-1.3-0.6-2.4-0.9-3.5   c-0.7-0.1-1.3-0.2-2.1-0.3c-1.5,3.3-1.3,6.5-3.2,9.7c0.8,0.2,1.4,0.4,2,0.6c-2.1,2.2-4.2-0.2-6.3-0.1c-2.1,7.8,12.8,3.7,18.1,10.8   c-20.6-3.5-15.7,14-27.7,12.3c1.7-3.5-0.4-6.3-3.4-8.3c1.4-5.5,3.5-1,5.9-2.8c-1.6-1.8-3.8-1.7-5.8-2.2c-1.9,1.1-3.8,2.1-4,5   c1.2,1.3,3.2,2.3,3.6,4.3c-2.2,0.2-4.3,0.6-6.3,1.4c-2.8-3.3-7-6.2-6.2-11.3c-1.2-0.1-2.2-0.2-3.4-0.4c-0.2,1.5-0.4,2.7-0.5,3.9   c-2.8-0.2-4.6,2.9-6.1,4.6c-5.6-0.4-12.7,4.1-14.8-3c3.5-19.7,8.7-45.4,30.7-51.5c-0.4-4.2-7.8-1.3-1.9-8.6c1.3,0.7,2.5,1.3,4,1   l0,0c-0.1,0.8,0,1.6,0.8,2c1.8,5.5,6.5,1.7,8.6-1c2.9-0.9,5.9,1.1,8.3-1.1c1.5,4.1,5.7,4.6,9.5,5c5.5,0.7,7.6,7.6,14,5.9   c1.5,1.1,2.8,2,4.4,3c0.3-0.8,0.4-1.3,0.7-2c15.3,2.3,24.1,7.8,24.8,24.6C823.8,297.7,811.6,303.2,798.6,306z M803.1,302.4   c6.5-8.5,1.6-20-8.6-21.1c8.3,8.1,4.9,11.2,5.5,20C800.9,301.5,801.8,301.9,803.1,302.4z" />
	<path fill="#E6CCBB" d="M409.6,360.6c26.8,0.9,41-26.7,63.9-34.4c25.8-7,70.9,22,83.9-8.4c2.8-9.6,8.4-16.9,16.6-22.7   c-1,8.2-1,14.8-1.6,22.6c1.7-0.3,3.2-0.5,4.7-0.7c7.9,10.4,31.3,4.2,30.9-9.2c0.9-2,1.4-3.4,2-4.7c4.6,4.2,9.2,7.8,14.4,11.5   c-3.9,10.7-6.5,21.3-8.5,32.4c-39.2,6-37-20-49.8-14.2c-49.9,14.4-101.9,18.4-150.7,36.6C412.9,366.6,410.7,363.9,409.6,360.6z    M516.7,335.8c2.4,2.5,5.2,2.8,11.1,1.3C523.9,335.2,520.4,335.7,516.7,335.8z M453.4,350.8c-5,2.3-5.2,2.5-5.9,5.1   C451,355.1,451.1,355.1,453.4,350.8z M506.7,333.4c2.5,1.6,2.5,1.6,4.9,0.7c-1.1-1.4-2.5-1.8-4.2-2   C507.1,332.6,506.9,333,506.7,333.4z M574.5,329.7c-1-1.7-1.8-2.4-3.3-1.5C571.8,330.4,571.8,330.4,574.5,329.7z M571.4,324.5   c0.1,1.4,0.9,1.6,2,1.3C574.8,324.5,572.5,322.8,571.4,324.5z M458.1,344.6c-1.3,0-2.3,0.2-1.4,2.1   C457.2,345.8,457.6,345.2,458.1,344.6z M500.8,332.6c0.7,0.2,1.2,0.3,1.7,0.4C502.7,332.1,501.8,331.5,500.8,332.6z" />
	<path fill="#D69479" d="M169.4,414.2c6.3,1.4,12.5,0.3,18.7-0.5c-0.8-3.1-4.2-4.8-3.6-8.2c50.1,9.5,100.2-0.5,148.3-16.1   c14.1-5.1,25.9-15.4,40.4-19.8c9.6-5.8,22.6-4.9,31.4-11c2.4,3.9,4.9,7.7,7.5,11.5c-18.6,6.1-32.7,20-50.2,28.1   c-54.3,17.4-111.5,19.9-167.9,22.4c0.1,0.4,0.3,0.8,0.6,1.6C185.8,422.1,171.4,425.9,169.4,414.2z M201.7,417.6   c-3-2.1-8.9-5.2-11.6-2.9C193.7,416.8,197.6,417.5,201.7,417.6z" />
	<path fill="#977264" d="M641.7,312c-1.7-1.5-2.7-2.9-3.9-5.1c-3.5,7.7-2.1,17.3-5.6,25.3c-1.8,7.4,2.7,14.9,1.5,22.4   c-1.3,6.3,7,13.4,1.7,18.5c-1.6-0.4-3.3-0.9-4.9-1.3c-2.5,13.7,1.6,28.1,2.3,42c0.8,13.1,3.8,19.4,13.6,28.3   c9.1-0.3,17.8-2.9,27.4-6.3c-2.1,2.5-3.5,4.1-5.3,6.2c43.4,0,84.5-17.7,127.8-18.8c-0.9,1.5-2.9,2-3.1,4.2   c-0.2,1.8-1.8,2.6-3.6,2.8c-52.1,5.7-103,18.5-155.9,16c-8.8-11.7-9.1-25.8-9-40c-0.2-15.6-3.8-30.7-4.2-46.3   c1.2,0.3,2.3,0.6,3.3,0.9c1.3,3.4,4.2,5.1,7.5,7.3c1-3.4-2.5-2.6-2.6-5.4c-3.9-2.2-6.1-5.4-6-10c-11.6-6.4,19.6-56.2,7.7-80.8   c-0.9-0.3-1.6-0.6-2.2-0.9c-3.5,3.6,0.8,9.4-0.5,13.9c-2.4-0.5-3.4-3.7-6.4-3.1c1.8,4.6,1.8,4.6,6.6,8.3c-0.3,6-1.5,12.1-3.4,18.3   c-13.8-3.9-19.1-22.7-13.7-34.8c1.1-0.3,2.1-0.7,3.2-1c0.6,2.5,3.4,6.4,6,5.3c-1.2-2.7-2.5-6.1-6-5.3c7.3-3.4,14.6-7.1,22.3-9   c1.6,1.8,3.4,3.7,5.4,6c-2.1,15.3,6.9,28.1,10.9,41.9c-2.3,2-2.5,4.4-1.1,6.8C650,319.8,641.1,314.7,641.7,312   c0.9-0.1,1.8-0.2,2.6-0.2c0.1-2.8,0.1-2.8-2.6-2C641.7,310.4,641.7,311.2,641.7,312z M636.2,293.3c-1.6,4.2,0.5,7.4,1,10.8   c1.5,0.9,2.8,1.6,4.6,2.7c-0.9-2.8-1.6-5.1-2.5-7.7c0.4-1.5,1-3.5-0.2-5.8C638.2,293.3,637.3,293.3,636.2,293.3z M644.2,442   c-3.2-2.1-5.9-3.3-9.4-3.8C637.4,441.1,640.8,443.9,644.2,442z" />
	<path fill="#B28C7D" d="M699.2,264.1c1.8-4.1,3.8-8.2,4.2-13.2c-0.8-0.4-1.5-0.9-2.6-1.4c-1,2.1-1.8,4-2.9,6.4   c-2.9-12.2-11.3-19.2-20.8-26.4c-1.4-5.8-4.3-11.3-1.2-17.6c16.2,3.6,30.4,12,46.4,15.7c0,0,0,0,0,0c6.4,10.8,15.5,15,27.4,17.4   c-0.3,1.7-0.5,3.1-0.7,4.5c-5.4,11.6-30,11.8-41.6,17.9c-2.7-0.6-5.1,1.2-7.8,1.4C699.4,267,699.3,265.6,699.2,264.1z M700.4,241.6   c0,0.9,0,1.8,0,2.7c1,0.3,1.8,0.5,2.5,0.7c1-1.5,0.5-3,0.3-4.4C702.6,238.6,699.8,239.8,700.4,241.6z" />
	<path fill="#D69479" d="M169.4,414.2c0,0.4,0,0.8-0.1,1.2c-0.3,0-0.7,0-1.2,0c-0.3,0.7-0.7,1.5-1.2,2.6c-3.1-6.4-6.6-11.9-9.4-18.6   c1.9-10.4-10.2-23.6-13.5-34.1c-5.5-10.7-8.2-22.6-12.4-33.9c-10.9-35.2-10.1-73.2-32.1-104.7c1.4-2.2,2.8-4.7,5.5-5.8   c34.1,48.4,24.6,115.5,57.6,165.3c4.9,5.2,16.4,23,0.2,17C164.5,407.6,165.6,411.6,169.4,414.2z" />
	<path fill="#B28C7D" d="M679.3,405.4c-2.4,0-4.9,0.3-7.3-0.3c-0.7-8.4,2.7-17.3,4.2-25.5c26.2,4.2,53.8,18.9,80.2,12.5   c7.6-5.4,14.5-10,24.3-9c0.1,0.3,0.3,0.7,0.5,1.3c-14.7-1.6-19.5,14.2-30.2,21c-2.8-9.2-23.1-1.4-30.9-2   c-5.6,3.2-11.5-0.7-17.4,0.1C694.8,402.8,687.1,404.6,679.3,405.4z M753.5,400.3c1.3-0.8,1.5-2,1-3.4c-1.1-0.9-2.2-1.2-3.4-0.3   C751,399.3,751,399.3,753.5,400.3z" />
	<path fill="#E9A287" d="M136.5,205.8c6.4,1.3,11.7,21.3,19.2,26.6c8.3,18.3,22.8,32.1,36.6,46.3c15.1,22.6,8.5,52.8,16.6,77.3   c-1.9,1-3.9,0.3-6.2,0.5C202.4,275,161.8,268.6,136.5,205.8z" />
	<path fill="#9592A1" d="M814.5,240.4c3.3,0,6.6,0.9,9.8-0.8c3,1.3,6.1,2.5,9.2,1c3.4,4,3.4,4,7.5,4.4c2.2,9.3-2.5,18.2-4.2,27.4   c-8.9-6.4-17.6-11.5-27.3-16.2c0.6-5.4,2.6-10.4,4-15.6C813.8,240.5,814.2,240.4,814.5,240.4z" />
	<path fill="#977264" d="M707.3,267.4c11.6-6.1,36.2-6.4,41.6-17.9c-0.2,2.6,0.4,4.4,1.6,7c-8.3,2.5-14.4,10.1-14.8,18.6   c0.8,0.1,1.6,0.2,2.4,0.2c-8,9.2-7.9,21-11.1,31.8c-3.7-17,6.7-28.4-18.1-31.7c4.1-1.3,4.1-1.3,6.4-4c-5.8,1.1-11.7,2.3-17.9,1.8   c0.6-3,0.3-6.4,1.7-9.2c0.1,1.4,0.2,2.9,0.3,4.6C702.2,268.6,704.6,266.8,707.3,267.4c-0.3,0.6-0.5,1.1-0.7,1.6   c3.6,2.4,6.8,0.7,11.1-0.4C713.7,266.6,711.3,267.4,707.3,267.4z M727.1,266.9c-1.6-3-4.8-3.1-6.7-0.7   C722.4,268,724.5,267.7,727.1,266.9z M729.8,263.4c1.8,2.5,4,2.6,4.8,0C733.1,263.4,731.8,263.4,729.8,263.4z" />
	<path fill="#B18B7C" d="M103.9,198c2.8-2.9,5-9.8,10.1-7.4c7.1,3.7,15.3,5.4,19.5,13c-2.4,1.6-4.8,1.5-7.7,2.2   c-0.7-0.5-1.6-1.2-2.6-1.9c-0.3,1.2-0.5,2.1-0.7,3c-5.6,3-11.1,6-16.6,8.9C99.6,211.6,104.5,203.8,103.9,198z M124.7,201.7   c-3.6-6.6-7.6-8.7-12.7-7.1c0,0.6,0,1.2,0,2C116.1,198,119.6,201,124.7,201.7z" />
	<path fill="#908993" d="M813.4,240.6c-1.4,5.2-3.3,10.3-4,15.6c-13.9-4.6-21-7.8-24.5-10.9c0.5-3,1-6.2,1.5-9.4c1.4,0,3,0,4.9,0   c0.1,1.1,0.2,2,0.4,3c0.9,0.9,2,1.8,3.4,1.3c2-0.8,4,1,6.2-0.4c1.7-1,4.1-0.8,6.2-1.2C809.4,239.4,811.1,241,813.4,240.6z" />
	<path fill="#977264" d="M723.2,403.2c6.9-1.8,13.8-2.3,20.9-1.9c-1.8,2.4-13.1-0.6-11.6,2.6c5.8,1.3,11.8,1.8,17.4-0.7   c0.3,0.7,0.7,1.3,1,2c-23.6,7.1-48,4.7-71.6,0.1c7.8-0.7,15.5-2.6,23.4-2.1c5.8-0.8,11.8,3.1,17.4-0.1   C720.8,405,722.7,406.3,723.2,403.2z M726.6,403.7c2.1,2,2.1,2,4.2,0C729.3,403.1,728,402.9,726.6,403.7z" />
	<path fill="#DF9D83" d="M251.6,337.6c20.3-10.7,41.3-19.8,63.4-25.8c0.8,0.2,1.8,0,2.2,1.1c-20.6,9.7-42.7,16.1-63.3,25.9   C253,338.7,252,338.8,251.6,337.6z" />
	<path fill="#EADBB7" d="M6.6,202.9c2.4,2.6,4.9,5.3,7.2,7.8c8.1-0.3,15.7-2.1,23.8-2.8c-0.1,1.5-0.3,2.9-0.4,4.3   c-10.3,0.9-26.7,9.6-33.1-2.4C3.6,207.4,4.4,204.4,6.6,202.9z" />
	<path fill="#E7DAB6" d="M14.4,226.4c-1.8-1.3-2.2-3.2-2.3-5.5c11-0.4,20.5-4.9,31.8-4.7C35.3,222.5,25.6,230.7,14.4,226.4z" />
	<path fill="#947163" d="M749,252.6c-0.2-2.7,0.2-4.9,0.6-7.7c-7.3-2.6-17.2-3.1-21.5-10.3c0.3,0,0.7,0,1,0c2.1,1.7,4.4,3.1,7.2,1.4   c5,5.9,12.8,2.5,18.8-0.3c0.7,0.4,1.6,1,2.5,1.5C756.2,242.8,750.5,246.7,749,252.6z" />
	<path fill="#C18A73" d="M357,273.5c0.2-0.2,0.4-0.3,0.7-0.3c10.4-7.1,25.4-6.5,37.5-6.2c0.5,3.2-3.4,2.2-5.4,2.4   c-10.5-0.3-21.1,1.2-30.8,5C358.3,274,357.7,273.8,357,273.5z" />
	<path fill="#926E61" d="M103.9,198c0.6,5.9-4.3,13.7,2,17.8c-3,2.2-5.7,4.7-8.6,7.2c-2.8-2.1-3.3-3.3-1.4-5.5   C101.5,212.1,99.8,203.6,103.9,198z" />
	<path fill="#E3D4B1" d="M81.8,210.4c0.1,0.8,0.2,1.6,0.3,2.4c2.8,1.4,5.5,2.8,8.3,4.3c0.5-0.4,1.1-0.8,1.7-1.3   c-0.5,2.4-1,4.8-1.4,7.2c-3.9,1.3-8.1-3.3-12-4.4C79.8,215.8,80.8,213.1,81.8,210.4z" />
	<path fill="#C28973" d="M251.6,337.6c0.3,1.2,1.4,1.1,2.3,1.3c-6.1,2.2-17.4,10.1-23,7.9C237.8,343.7,244.7,340.7,251.6,337.6z" />
	<path fill="#E1D2AF" d="M59.2,205.7c0.1,0.8,0.2,1.6,0.3,2.4c1.5,1.1,3.2,0.4,4.7,0.6c0.1,2.3,0,4.5-0.8,6.7   c-2.7-0.8-4.9-1.5-7.4-2.3C56.4,210.5,57.8,208.1,59.2,205.7z" />
	<path fill="#896B5E" d="M772.7,243.5c-0.2,0.5-0.4,0.9-0.5,1.3c1.4,1.9,2.6-0.4,4.1,0.1c-0.3,1.5-1,2.6-2.4,3.4   c-3,0-5.7-2.2-8.6-3.2c0.8-1.7,1.7-3.5,2.8-5.7C769.7,241.1,770.7,243,772.7,243.5C772.8,243.6,772.7,243.5,772.7,243.5z" />
	<path fill="#291B17" d="M136.5,205.8c2.5,6.7,5,13.4,8.1,19.9c-0.4,0.4-0.8,0.8-1.2,1.2c-3.5-6.4-6.4-13.1-8.9-20   C135.2,206.5,135.8,206.1,136.5,205.8z" />
	<path fill="#AE7D68" d="M357,273.5c0.7,0.3,1.3,0.6,2,0.8c-7.1,3.5-13.8,7.7-18.9,13.9c-0.4-0.4-0.9-0.8-1.3-1.2   C342.9,280.3,350.4,277.2,357,273.5z" />
	<path fill="#B27F6A" d="M230.9,346.8c0.4,1,1.2,0.9,2,1c-6,2.4-11.9,6.1-18.1,7.7c-0.8-0.8,0-1.5,0.2-2.6   C220.2,350.9,225.5,348.8,230.9,346.8z" />
	<path fill="#998073" d="M771.8,237.5c-1.9-0.4-3.8-0.7-5.9-1.1c1.3-5.2,17.4-2.2,13.7,2.5c-3.5,0.9-4.9-3-8-3.2   C771.6,236.5,771.7,237,771.8,237.5L771.8,237.5z" />
	<path fill="#E0D1AE" d="M71,206.6c0.1,0.8,0.2,1.6,0.3,2.6c1.3,0.6,2.6,1.1,3.9,1.7c-0.4,2.1-0.9,4.2-1.3,6.5   c-1.5,0.2-2.8-0.6-4.5-0.9C69.4,213.2,69.6,209.8,71,206.6z" />
	<path fill="#8F695C" d="M788.6,416.2c-3.5-5.9,11.6-2.6,13.9-5c2.4,2.5-4.2,4.5-6.1,4.9C793.8,413.2,791.2,414.5,788.6,416.2z" />
	<path fill="#A0796B" d="M697.4,273.3c6.1,0.5,12-0.7,17.9-1.8c-3.7,5.8-11.7,3.5-17.7,3.4C697.6,274.2,697.5,273.8,697.4,273.3z" />
	<path fill="#8B695C" d="M744,309.1c0.9-1.6,2.4-1.9,4-2c0.2,3.4,0.5,6.8,0.8,10.5c-1.1,0.2-2.1,0.4-3.2,0.6   c-3.5-3.3-0.4-5.7,1.4-9.1C745.6,309.1,744.8,309.1,744,309.1z" />
	<path fill="#D4BBAC" d="M691.5,258.4c0.7,0.3,1.4,0.6,2.4,1c0.3-0.9,0.5-1.6,0.7-2.3c1.8,4.8,1.5,9.4-0.7,14.5   C692.1,266.9,692.6,263,691.5,258.4z" />
	<path fill="#786157" d="M768.7,395.3c0,1.2,0.6,2.1,1.9,2.4c-1,1.4-1.9,2.5-2.7,3.7c-0.5-0.6-1-1.2-1.5-1.8c-2.9,2.5-5.7,6-9.6,6.7   C760.2,402,764.7,398.9,768.7,395.3z" />
	<path fill="#352723" d="M763.9,311.9c-1.1-1-2.1-1.9-3-2.8c0.1-2.9,2-3.9,4-5c2,0.5,4.2,0.4,5.8,2.2c-2.4,1.8-4.4-2.6-5.9,2.8   c0.7,0.6,1.4,1.2,2.2,1.8C765.9,311.2,764.5,310.5,763.9,311.9z" />
	<path fill="#83675B" d="M759.9,249.4c-1.5,0.3-2.8-0.3-4-1c1.7-3.8,4.6-6.7,7.4-9.9c2.2,4.1-3.8,5-4.2,9   C759.2,248,759.5,248.7,759.9,249.4z" />
	<path fill="#846357" d="M756.8,316c0.7,2.8-2.4,3.2-3.9,1.5c-1.4-2-1.2-4.9-1.8-7.3C753,312.1,755,314,756.8,316z" />
	<path fill="#856A5D" d="M729.1,234.6c-0.3,0-0.7,0-1,0c-2.1-2.3-4.2-4.5-5.9-7.1c1.7,0.1,3.5,0.2,5.1,0.3   C729.6,229.8,728,232.5,729.1,234.6z" />
	<path fill="#1B1210" d="M624.9,359.6c1.3,1,2.6,1.9,3.9,2.9c0.1,2.9,3.6,2.1,2.6,5.4c-3.3-2.2-6.2-3.9-7.5-7.3   C624.2,360.3,624.6,359.9,624.9,359.6z" />
	<path fill="#251D1A" d="M738,275.3c-0.8-0.1-1.6-0.2-2.4-0.2c0.3-3.8,0.3-3.8,2.4-7.8c0,1.4,0.5,2.4,1.9,2.9   C739.3,271.9,738.7,273.6,738,275.3z" />
	<path fill="#87695D" d="M771.7,237.6c2.2,1.3,4.4,2.5,6.9,4c-0.4,0.6-0.8,1.2-1.2,1.8c-1.7-0.2-3.3-1.3-4.7,0.1l0.1,0.1   C773.3,241.4,772,239.6,771.7,237.6L771.7,237.6z" />
	<path fill="#291D1A" d="M756.8,316c-1.8-2-3.8-3.9-5.8-5.8c0.1-1.4-0.9-3.1,0.9-4.2c0.6,3.9,4,5.9,6.2,8.7   C757.7,315.2,757.2,315.6,756.8,316z" />
	<path fill="#CFCAB0" d="M130.7,162.1c2.4,2.2,2,5.2,2.1,8c-0.4,0-0.7,0-1.1,0c-1.6-2.4-2.7-4.9-2-7.9   C130,162.2,130.4,162.1,130.7,162.1z" />
	<path fill="#3A4247" d="M813.4,240.6c-2.4,0.4-4.1-1.2-6-2.1c1.6-1.5,4.2-0.8,6-0.9c0.4,1.1,0.7,1.9,1,2.8   C814.2,240.4,813.8,240.5,813.4,240.6z" />
	<path fill="#C18871" d="M200.9,371.2c-0.2,0.4-0.4,0.8-0.6,1.1c-3-0.8,0.3-4.4-2.2-5.8c0.8-1.8,1.2-3.8,2.8-5.1   C201.9,364.7,198.6,368.5,200.9,371.2z" />
	<path fill="#B9B9A1" d="M130.7,162.1c-0.3,0-0.7,0-1,0c-1.4-2.1-2.7-3.9-2.7-6.6C130.5,156.7,130.2,159.7,130.7,162.1z" />
	<path fill="#D6C5A5" d="M47.2,207.7c0.1,1.1,0.2,2.2,0.3,3.3c1.7,1.7,2.4-0.3,3.9-1.2c-0.1,0.8-0.2,1.6-0.3,2.3   c-1.6,0.8-3.2,0.6-4.8,0.1C46.1,210.6,46,209,47.2,207.7z" />
	<path fill="#272F2F" d="M749.1,169.9c-3,0-5.2,0-7.4,0c0-0.1,0-0.3-0.1-0.4C744.5,169.2,746.6,167.1,749.1,169.9z" />
	<path fill="#8C7467" d="M779.7,252.5c-0.8-1-1.4-2-2-3.1c0.4-0.6,0.8-1.2,1.2-1.8C783.6,248.9,779.8,249.6,779.7,252.5z" />
	<path fill="#654338" d="M338.8,287c0.4,0.4,0.9,0.8,1.3,1.2c-0.8,1.3-1.7,2.4-3.5,2.9C336.7,289.3,337.5,288,338.8,287z" />
	<path fill="#A17965" d="M317.3,313c-0.3-1.1-1.4-0.9-2.2-1.1c1.4-1.2,3.1-1.3,4.6-1.9C321.2,311.9,318.4,312.3,317.3,313z" />
	<path fill="#5A4B43" d="M780.9,248.4c-0.7-0.3-1.4-0.5-2.1-0.8c0.8-1.2,1.5-2.4,2.3-3.7C782.5,245.6,780.3,246.9,780.9,248.4z" />
	<path fill="#251E1A" d="M742.7,231.3c0.9-0.9,1.7-2.2,3.2-1C745.1,232.1,743.8,231.4,742.7,231.3z" />
	<path fill="#2D2521" d="M687.8,267.7c1.5,0.7,1.9,1.7,1.1,3.2C687.5,270.2,686.9,269.2,687.8,267.7z" />
	<path fill="#4F3D33" d="M198,366.4c-0.4,0.6-0.7,1.2-1.4,2.4c-0.8-2-0.8-3.3,0.4-4.3C197.4,365.1,197.7,365.8,198,366.4z" />
	<path fill="#222828" d="M756.6,231c-1,1.9-1.7,1.5-2.4,0C755.1,231,755.9,231,756.6,231z" />
	<path fill="#C18871" d="M206.1,360.7c-1.4,1.4-3.2,0.9-5,0.8C202.5,360.4,204.3,360.7,206.1,360.7z" />
	<path fill="#60564B" d="M131.7,170.1c2-0.3,2.4,1.4,1.7,2.8C132.1,172.2,131.5,171.3,131.7,170.1z" />
	<path fill="#453D37" d="M795.6,388.3c1.4,0,2.4,0.4,1.4,1.9C796.5,389.5,796.1,388.9,795.6,388.3z" />
	<path fill="#D6C5A5" d="M47,203c1.7,1,1.8,1.9,0.4,3.8C47.2,205.5,47.1,204.3,47,203z" />
	<path fill="#758989" d="M725.6,180c0.7,0,1.4,0.1,2,0.1c0,0.2,0,0.4,0,0.6c-0.7,0-1.4,0-2.1,0C725.6,180.5,725.6,180.3,725.6,180z" />
	<path fill="#382B24" d="M323.7,309.8c-0.7-1.5,0.1-1.6,1.8-1.8C324.5,309,324.1,309.4,323.7,309.8z" />
	<path fill="#A6C3C3" d="M726.1,220.2c-0.5,0.6-0.9,0.6-1.6,0.2C725.2,219.8,725.5,219.4,726.1,220.2z" />
	<path fill="#83675B" d="M760.7,251.5c-0.9-0.4-0.9-1.2-0.8-2C761,249.8,760.9,250.6,760.7,251.5z" />
	<path fill="#D6C5A5" d="M51.4,209.9c-0.2-1-0.2-1.8,1-2C52,208.5,51.7,209.2,51.4,209.9z" />
	<path fill="#E0D1AE" d="M75.2,210.9c-0.2-0.9-0.2-1.7,0.7-2.1C75.7,209.5,75.4,210.2,75.2,210.9z" />
	<path fill="#856A5D" d="M722.3,227.5c-0.4-0.2-0.8-0.4-1.1-0.6C721.5,227.1,721.9,227.3,722.3,227.5z" />
	<path fill="#EADBB7" d="M7.4,201.5c-0.3,0.4-0.5,0.9-0.8,1.3C6.9,202.4,7.2,202,7.4,201.5z" />
	<polygon fill="#4F4E4E" points="817.6,143.8 818,143.6 818,144  " />
	<path fill="#786157" d="M756.8,406.2c-0.4,0.3-0.7,0.6-1.1,0.9C756.1,406.8,756.5,406.5,756.8,406.2z" />
	<path fill="#83A2A2" d="M718.5,214c0.1,0,0.2,0,0.3,0c-0.1,0.2-0.1,0.4-0.2,0.6C718.4,214.4,718.2,214.3,718.5,214z" />
	<path fill="#8F695C" d="M798.5,417.1c0.3-0.3,0.6-0.6,0.8-0.9C799.1,416.5,798.8,416.8,798.5,417.1z" />
	<path fill="#AE7D68" d="M358.9,272.3c-0.4,0.3-0.8,0.6-1.2,0.8C358.1,272.9,358.5,272.6,358.9,272.3z" />
	<path fill="#947568" d="M794.8,294.9c-1.1,0.6-1.7,1-2.3,1.3c-2.1-1.6-2.2-4.3-2.9-6.8C791.6,291.4,792.7,292.6,794.8,294.9z" />
	<path fill="#CDCCCC" d="M784,294.4c-0.6-0.2-1.2-0.4-2-0.6c0.6-1.3,1.1-2.5,1.7-3.6C786.4,290.6,787.3,294.2,784,294.4z" />
	<path fill="#D69479" d="M356.1,312.9c-9.1-13.3,22.1-28.5,30.7-10.9c-0.6,3.2-2.3,5.1-4.7,6.9C372.6,306.6,366.3,314.9,356.1,312.9   z" />
	<path fill="#D49378" d="M153.3,313.1c2,1.3,0.6,3.2,0.4,5.2c0.2,0.5,0.5,1.1,0.8,1.7c-2.5-0.4-2.5,3.4,0,3c1.7,1.2,0.6,3.5,1.9,4.8   c2,9.8,7.6,18.4,11.1,27.7c-0.8,1.6-1.7,2.9-3.7,3.3c-9.7-6.4-14.9-36.5-11-45.6c0,0.9,0,1.7,0,2.6c0.2,0,0.4,0,0.6,0   C153.3,314.8,153.3,314,153.3,313.1z M160.8,354.5c0.4,0,0.8,0,1.2-0.1c0.4-1.5,0-3.1-0.9-4.7c-0.5,0.2-0.9,0.4-1.4,0.7   C160,351.8,160.4,353.1,160.8,354.5z M158.2,338.3c-0.2,0-0.5,0-0.7,0c0.1,0.9,0.1,1.9,0.2,2.8c0.2,0,0.5,0,0.7,0   C158.3,340.2,158.2,339.3,158.2,338.3z M154.8,331.3c0.2,0,0.5-0.1,0.7-0.1c-0.1-0.6-0.2-1.3-0.3-1.9c-0.2,0-0.5,0.1-0.7,0.1   C154.6,330,154.7,330.7,154.8,331.3z" />
	<path fill="#271915" d="M200.9,371.2c-2-2.3,0.2-5.6,0.2-8.3C204.5,364.4,201.2,368.7,200.9,371.2z" />
	<path fill="#895D4C" d="M154.5,322.9c-2.5,0.4-2.5-3.4,0-3C154.5,320.9,154.5,321.9,154.5,322.9z" />
	<path fill="#53322B" d="M153.3,313.1c0,0.9,0,1.7,0,2.6c-0.2,0-0.4,0-0.6,0c0-0.9,0-1.7,0-2.6C152.9,313.1,153.1,313.1,153.3,313.1   z" />
	<path fill="#965F4F" d="M177.7,408.7c-2.1,0.7-2.8,0.2-2.2-0.9C176,408,176.5,408.2,177.7,408.7z" />
	<path fill="#754D41" d="M180.9,411.4c0.6,0.2,1.8-0.2,1.9,0.5c-0.6,0.1-1.3,0.2-1.9,0.2C180.9,411.8,180.9,411.6,180.9,411.4z" />
	<path fill="#0D0A09" d="M757.8,406.2c3.4-2,5.9-4,8.6-6.7c0.5,0.6,1,1.2,1.5,1.8C766.8,404.5,759.6,411.7,757.8,406.2z" />
	<path fill="#060302" d="M788.6,416.2c2.6-1.7,5.2-3,7.8-0.1C793.9,416.8,791.3,417.8,788.6,416.2z" />
	<path fill="#191714" d="M785.7,404.3c3.3-1.2,7.3-0.6,10.9-1c-0.8,1.8-3.3,0-4,2c-2.3-0.1-4.6-0.2-6.9-0.2   C785.6,404.8,785.6,404.6,785.7,404.3z" />
	<path fill="#130E0D" d="M792.6,405.3c0.6-2,3.2-0.2,4-2c0.9,0,1.9,0,2.6,0C800.6,407.2,794.5,406.8,792.6,405.3z" />
	<path fill="#130B0A" d="M785.7,404.3c0,0.2,0,0.5,0,0.7c-1.4,0.8-2.7,1.5-4.1,2.3c-0.7-0.6-1.1-1-1.8-1.6   C781.7,404.3,783.2,402.6,785.7,404.3z" />
	<path fill="#6E534A" d="M666,416.5c0.9,0.4,1.6,0.7,2.8,1.2C667.4,419.7,665.1,418.7,666,416.5z" />
	<path fill="#3A1715" d="M786.6,416.8c-1.1,1.4-1.1,1.4-3.4-0.3C784.3,416,785.5,415.8,786.6,416.8z" />
	<path fill="#503832" d="M781.8,416.6c-1.5,0.9-2.4,0.8-3.3-1.3C780,415.9,780.7,416.2,781.8,416.6z" />
	<path fill="#060404" d="M803.1,302.4c-1.3-0.5-2.2-0.8-3-1.2c-0.6-8.8,2.8-11.9-5.5-20C804.6,282.4,809.6,293.9,803.1,302.4z" />
	<path fill="#271614" d="M516.7,335.8c3.7-0.1,7.2-0.6,11.1,1.3C522,338.7,519.2,338.3,516.7,335.8z" />
	<path fill="#352623" d="M453.4,350.8c-2.4,4.3-2.4,4.4-5.9,5.1C448.3,353.2,448.4,353.1,453.4,350.8z" />
	<path fill="#483531" d="M506.7,333.4c0.2-0.4,0.4-0.8,0.7-1.3c1.7,0.1,3.1,0.5,4.2,2C509.1,335,509.1,335,506.7,333.4z" />
	<path fill="#2D1917" d="M574.5,329.7c-2.7,0.7-2.7,0.7-3.3-1.5C572.7,327.2,573.6,327.9,574.5,329.7z" />
	<path fill="#695C54" d="M571.4,324.5c1-1.6,3.3,0,2,1.3C572.4,326.1,571.5,325.8,571.4,324.5z" />
	<path fill="#91766D" d="M458.1,344.6c-0.4,0.6-0.8,1.2-1.4,2.1C455.7,344.8,456.8,344.6,458.1,344.6z" />
	<path fill="#A47D73" d="M500.8,332.6c1-1.1,1.9-0.6,1.7,0.4C502,332.9,501.5,332.8,500.8,332.6z" />
	<path fill="#2C211B" d="M201.7,417.6c-4.1-0.1-8-0.9-11.6-2.9C192.8,412.4,198.7,415.6,201.7,417.6z" />
	<path fill="#0C0908" d="M636.2,293.3c1,0,2,0,2.9,0c1.2,2.2,0.6,4.3,0.2,5.8c0.9,2.7,1.6,4.9,2.5,7.7c-1.8-1.1-3.1-1.8-4.6-2.7   C636.8,300.7,634.6,297.5,636.2,293.3z" />
	<path fill="#1C1412" d="M614,272.3c3.6-0.8,4.8,2.6,6,5.3C617.4,278.7,614.6,274.8,614,272.3L614,272.3z" />
	<path fill="#322420" d="M644.2,442c-3.4,1.9-6.8-0.9-9.4-3.8C638.3,438.6,641,439.8,644.2,442z" />
	<path fill="#4E3831" d="M641.7,312c0-0.8,0-1.6,0-2.3c2.7-0.7,2.7-0.7,2.6,2C643.5,311.8,642.6,311.9,641.7,312   C641.8,312,641.7,312,641.7,312z" />
	<path fill="#1B1816" d="M703.2,240.7c0.1,1.4,0.6,2.9-0.3,4.4c-0.7-0.2-1.5-0.4-2.5-0.7c0-0.9,0-1.8,0-2.7   C701.3,241.3,702.3,241,703.2,240.7z" />
	<path fill="#6F4C44" d="M703.2,240.7c-0.9,0.3-1.9,0.6-2.8,0.9C699.8,239.8,702.6,238.6,703.2,240.7z" />
	<path fill="#291D1A" d="M749.9,403.3c-5.6,2.5-11.6,2-17.4,0.7c-0.4-1.4,0.4-1.8,1.2-1.6c3.1,0.8,6.1-0.3,9.1-0.3   C744.6,401.2,750.1,400,749.9,403.3z" />
	<path fill="#1D1614" d="M753.5,400.3c-2.5-0.9-2.5-0.9-2.3-3.7c1.2-0.9,2.3-0.6,3.4,0.3C754.9,398.3,754.7,399.5,753.5,400.3z" />
	<path fill="#4C3932" d="M723.2,403.2c-0.4,3-2.4,1.7-3.1,0C721.1,403.2,722.1,403.2,723.2,403.2z" />
	<path fill="#18120F" d="M707.3,267.4c4,0,6.4-0.9,10.4,1.2c-4.3,1.2-7.5,2.8-11.1,0.4C706.8,268.5,707.1,268,707.3,267.4   L707.3,267.4z" />
	<path fill="#241715" d="M727.1,266.9c-2.6,0.9-4.7,1.1-6.7-0.7C722.3,263.7,725.5,263.8,727.1,266.9z" />
	<path fill="#1B1412" d="M729.8,263.4c2,0,3.3,0,4.8,0C733.8,266,731.6,265.9,729.8,263.4z" />
	<path fill="#0E0A09" d="M124.7,201.7c-5.1-0.7-8.5-3.7-12.7-5.1c0-0.8,0-1.5,0-2C117.1,192.9,121.1,195.1,124.7,201.7z" />
	<path fill="#291D1A" d="M726.6,403.7c1.4-0.8,2.7-0.5,4.2,0C728.6,405.6,728.6,405.6,726.6,403.7z" />
	<path fill="#0B0504" d="M160.8,354.5c-0.4-1.3-0.8-2.7-1.2-4.1c0.6-0.3,1-0.5,1.4-0.7c0.9,1.7,1.3,3.2,0.9,4.7   C161.6,354.4,161.2,354.5,160.8,354.5z" />
	<path fill="#523E33" d="M158.2,338.3c0.1,0.9,0.1,1.9,0.2,2.8c-0.2,0-0.5,0-0.7,0c-0.1-0.9-0.1-1.9-0.2-2.8   C157.7,338.4,157.9,338.4,158.2,338.3z" />
	<path fill="#6A3E33" d="M154.8,331.3c-0.1-0.6-0.2-1.3-0.3-1.9c0.2,0,0.5-0.1,0.7-0.1c0.1,0.6,0.2,1.3,0.3,1.9   C155.2,331.2,155,331.3,154.8,331.3z" />
</g>
</svg>