<?xml version='1.0' encoding='utf-8'?>
<svg xmlns="http://www.w3.org/2000/svg" version="1.2" baseProfile="tiny" id="Layer_1" x="0px" y="0px" viewBox="0 0 900 600" overflow="visible" xml:space="preserve">
<g id="b_00000091000136953032332800000018390273228332996502_">
	<path display="inline" fill="#010101" d="M112.9,408.5c5.7-33.4,9.3-67.6,19-100c3.4-22.9-1.4-48.6,9.9-69.5   c3.4-32.9-6.4-33.6-21.2-58.1c-6.5,25.1,7.6,52.2-1.6,77.5c-3.6-6.6,1-16.4-2.1-23.7c-1-15.4-6.6-30.1-5.7-45.7   c5.1-13.4,7.6-27.5,8.1-41.8c3,12.3,3.6,26,9,37.9c2.1,7.9,9.5,12.6,14.1,19c3.4,14.2,5.8,30.4,0.9,44.4c-1.2,0.5-2,0.8-2.7,1.1   c0,1.9,0,3.5,0,5.1c11.8,0,23.4,0,35,0c3.6,4.9,11.7,4.2,16.9,7.1c17.1,5.6,27.5,23.2,47,22.8c0.5,1.1,1.2,1.1,2.3,0.1   c-13.5-5.3-26.6-12.8-36.7-23.9c0.5-0.5,1-1,1.5-1.5c28.6,21.3,91.8,37.6,65.8,84.3c-0.7-0.2-1.6,0.4-2.1-1.3   c5.1-10.5,1-26.2-0.4-37.7c-22-21.7-25.6-12.8-49-20.6c-15-12.6-34.1-17.5-50.8-26.8c-10.5,0.1-20.9-0.2-31.1,1.6   c-0.4,3.2-1.8,6.3-0.9,9.6c39.9-15.5,92.9,19.8,84.6,64.4c-5.9,21.1-28.7,42.8-52.6,37.7c-1.3,3.2-2.8,6-3.3,9.3   c13,14.2,22.1,31.1,40.6,39.6c11.3-7.3,19.2-19.7,30.8-25.5c1.1-1.9,1.7-3,2.4-4.1c2.1-0.1,5.2-0.5,4.8,2.5   c-10.9,10.2-22.9,19.1-33.4,29.6c9.8,7.1,20.6,11.9,28.8,21c0.2,2.9,0.5,3.2,3.4,3.8c2.8,2.2,5.2,5.3,9.2,5.5   c11.8,7.8,21,22.3,34.2,26.7c-6.6-12.5,14.7-53.6,22.9-65.4c0.6,0.1,1.3,0.3,2,0.5c-8.8,20.9-20.9,43.9-21.8,67.2   c14.3,4.7,29.1,9.4,43.9,5c21.4-5.2,44.3-6.5,64.2-16.6c2.5-4.5,4.2-9.2,5.3-14.1c-4.9-2.5-9.9,0.1-14.8-1c0.4-0.8,0.6-1.2,0.8-1.7   c5.8,0.5,11.3-0.8,16.8-2.6c14-70,33.7-145,70.1-207.3c65.2-23.1,65.9-86.7,112.7-127.5c0,0.8,0.1,1.4,0.1,2.1   c-1.4,0.9-1,2.3-1,3.6c-1.4,0.6-2.5,1.6-3,3.2c2.2-0.5,2.2-0.5,3.1-3.1c4,0.1,1.9-6.2,2.4-8.8c-0.4-2.9-4.1-5.1-2-8.3   c0.6-0.8-0.5-1.7-1.6-1.9c-2.9-2.3-5.7-4.7-8.2-6.7c-3.1,0-5.6,0-8,0c-31.6,40.6-74.8,72-113.5,106.2c-15.1,10.6-30.8,13-37.5,33   c-1.5,2.1-3.4,3.5-5.7,4.8c0-0.7,0-1.4,0-2c0.4-0.4,0.7-0.9,1.1-1.3c1.4-0.3,1.3-1.4,1.2-2.4l0,0c5.1-15.9,17.4-26.8,33.5-30.2   c37.6-31.4,75.9-62.7,106.5-101.1c4,0,7.4-4.8,9.3-7.9c-0.4-0.8-1.8-1.4-0.9-3c5.4,0.7,12.1,1.6,17.5,1.2   c15.2,7.2,15.3,21.3,7.9,34.4c6.9,1.3,13.6-1.2,19.9,1.2c7.1-2.6,8.3-2.8,14.4-1.6c1.1-1.5,2.5-2.9,3.8-4.2c1.9,2.5,0,4.9,0,7.1   c-4,4.6-9.6-1.3-14.6,1.9c-5.3,1.7-10.9-1.1-16.3-0.5c-5.2-0.7-11.2,1.3-15.3-2.9c-54.1,60.3-23.3,82.6-105.3,120.4   c-33.1,62.3-52.2,131.6-65.5,201c29.6,3.5,57.6,21.2,72.7,47c-0.4,0.4-0.7,0.8-1.1,1.2c-18.9-21.3-42.3-45.1-72.9-43.3   c-1.9,4.2-3.6,8.1-5.7,12.5c4.5-1,8.4-1.7,12.9-0.7c-51.4,19.9-107.8,46.3-155.6,1.4c-14.7,10-23.3,24.4-32.2,39.7   c-0.5-0.5-1-1-1.5-1.5c6.1-17,17.7-30.9,30.9-42.6c-21.3-20.2-48.3-35.3-71.8-52.4c-7-7.5-13.1-15.7-19.4-23.8   c-0.7-0.9-1.3-2.1-3-1.4c-4.6,15.1,0,30.1-0.7,45.5c-3.8,13-4.1,27.2-8.2,40.6c-3.4-12.2,2.8-26.7,3.7-39.5   c3.8-13.4-1.4-25.8,0.9-39.4c-8.7,13.1-12.2,29.3-15.2,44.5c-9.1-18.1,22.6-70.9,32.1-89.9c0.4,0.9,0.9,1.8,1.3,2.6   c-0.9,6.6-5.9,10.9-7.2,17.3c29,1.5,52-25.7,43.9-53.5c-4-11.5-10.2-33.9-23.9-34.4c4.4,2.9,8.8,6.2,6.9,12.2c-0.6,0-1.3,0-1.9,0   c-1.5-5.7-6.3-13.1-12.5-14.2c-2.4-5.5-13.1-4.3-18.5-7c-8-3-19.1-1.4-26,3.7c-1.2-1.4-0.1-1.9,0.8-3.4c-1.3-0.1-2.2-0.1-3.4-0.2   c1.4,23.7-4.7,46-10.2,68.9c2.7,3.2,2.3,6.5,1.8,10.2c-1-1.1-1.9-2-3.1-3.2c-1.5,23.5-6.9,45.8-12.1,68.5   C112.6,413.1,113.1,410.7,112.9,408.5z M118.2,172.4c0,1,0,1.9,0,3.1C120.3,174.3,120.3,174.3,118.2,172.4z" />
	<path display="inline" fill="#EBDA8F" d="M241,389.8c-0.6,1.1-1.3,2.2-2.4,4.1c-11.6,5.8-19.5,18.2-30.8,25.5   c-22-11.2-25.5-23.5-40.6-39.6c0.5-3.3,2-6.1,3.3-9.3c24,5.1,46.7-16.6,52.6-37.7c0.1,1,0.2,1.9,0.3,3c12,8,27.6,12.3,37.8,0.8   c0.2,3.8-1.7,7.3-2.9,10.6c-2.7,2.1-7.4,4.3-8.3,6.7c0.1-0.3,0.3-0.6,0.4-0.9c3.5,1,5.8-1.9,8.9-3.2c2.5-6.2,5.9-11.9,7.5-18.4   c0.4,0.5,0.7,0.9,1.2,1.5c1.2-0.6,2.4-1.2,3.9-2c0-3.4,0-6.8,0-10.1c0.8,6.5,2.7,16-1.3,21.5c0.5,1.7,1.4,1.1,2.1,1.3   c0.2,0.3,0.2,0.7,0.2,1c-2.2,0.1-2.2,0.1-2.5,2.5c-0.5-0.6-1-1.1-1.7-2c-10,7.8-20.2,16.4-33.9,15.1   C225.5,364.1,236.1,383.7,241,389.8z M196.2,372c-0.5-1.2-0.7-2.6-2.4-2.9c-1.3,3.3,2.5,5.8,4.4,9   C198.3,375.1,197.5,373.5,196.2,372z M215.4,393.6c-1.4-2.8-1.4-2.8-4-3.1C211.6,392.4,212.7,393.3,215.4,393.6z M203.9,382   c1.4,2.6,1.4,2.6,3.9,3.8C207.3,383.9,206.6,382.6,203.9,382z M234.6,355.8c-0.9,0.6-1.7,1.1-3,1.9   C234.7,357.9,234.7,357.9,234.6,355.8z M223.1,357.3c0.7,0.9,1.2,1.9,2.1,1.1C225.2,356.7,224.5,356.8,223.1,357.3z" />
	<path display="inline" fill="#020101" d="M270.3,347.2c0.3-2.4,0.3-2.4,2.5-2.5c17.1,14.2,28,33.6,48.3,44.2   c7.3-18,21.8-73.7,35.6-81.5c0.1,0.7,0.2,1.4,0.4,2c-3.1,5.4-6.9,10-8.7,16.3c1,0.2,1.9,0.4,3,0.6c7.5-13.4,14.2-26.9,24.4-38.3   c1.6,0.4,1.6,2.4,1,3.5c-9.9,14-18,29.1-25.8,44.4c-13.6,22.8-21.6,48.6-33.2,72.3c1.5,0.8,2.9,1.5,4.3,2.2   c9.5,26.3,41.8,34,65.6,42.4c-23.1,4-61.6-18.4-71.3-40.5c-1.4,1.2-1.6,2-2,3.6c-1.1,0.4-2.3,0.9-3.4,1.3c0.6-1,1.2-1.9,1.9-3.2   c-0.7-0.2-1.4-0.3-2-0.5c4.5-2.8,3.1-8.7,6.1-13c1.5-0.9,1.1-2.3,1-3.6c0.8-1.3,1.9-2.5,1.2-4.2c-6.5-4.8-13.6-8.7-20.1-13.7   l0.1,0.1c-0.4-0.4-0.9-0.8-1.3-1.3l0.1,0.1c-6.6-8.7-13.5-16.5-21.5-24.2c-1.7,2.9-3.2,5.4-4.5,7.8c1.8,4.3,3.4,8.3,2.3,12.8   c-0.4,0-0.9,0-1.3,0c-1.2-2.6-2.4-5.2-3.8-8.2c-2.8,3-5.3,5.7-7.8,8.3c-0.5-0.6-1-1.1-1.6-1.7c4.8-7.1,10.8-13.9,13.8-22   C272.3,349.6,271.3,348.4,270.3,347.2z" />
	<path display="inline" fill="#020101" d="M495.8,564c-35.4,53.3-281,49.2-290.1-24.3c33.1,72.1,232.9,68.8,288.6,24.2   C494.8,563.9,495.3,564,495.8,564z" />
	<path display="inline" fill="#040303" d="M106,247.8c-17-24.4-17.6-50.8-18.3-79.4c-3.5-23.2,5.8-48.4,33.6-37.9   c1.3,1.4,2.5,3.1,2.6,5c-1.3,2.3-2.6,4.6-4,7.2c-4.5-1-7.6,0.3-12.2-1c2.4-0.9,3.9-1.4,5.4-2c2.3,0.8,0.9-1.6,1.8-2.1   c10.1-0.8-9.8-4.2-11.7-1.5c-8.5,1-9.5,10.9-9.2,17.7c-0.6,18.9-6.4,41.7,1.2,59c0.2-2.4,0.3-4.2,0.4-6.1c3.1,1.6,1,4.5,3.1,6.5   c1.3,9,3,18.9,7,26.8c-4.7-25.6-5.6-53,1.4-78.9c1.4,1.8,2.8,4.8,2.4,7.1c-3.3,17.2-0.6,36.7,3.1,54.2c6.4,18.3-5,35.8-0.6,53.6   c-0.8,1.1-0.7,3.5-2.6,2.5c0-5.6,1-11.3-1.1-16.8c4.3-19.7,2.3-41.6-4.6-60.4c-0.5,17.4,7,33.4,4.7,51   C106.6,251.6,107.3,249.3,106,247.8z" />
	<path display="inline" fill="#030202" d="M559.3,89.2c-1.7-1.5-4.8-0.7-6-3.8c4.4-4.6,5.6-10.9,8-16.6   c4.1-11.9,13.6-20.9,17.9-32.4c1.5-8,5.1-16.1,3.1-24.3c-0.7-2.6-0.4-5.1,1.5-7.8c9.4-4.1,19.2-3.9,28.7,0.4   c-2,6.4,5,11.8,4.7,19.1c1.2,8.4,10.1,17.7,4.9,26.2c-7.6-13.9-6.1-31.7-18.2-42.9c-4.3,0.6-8.9,1.2-13.4,1.8   c-0.9,7.2-1.4,14-1.4,20.8c2.2,0,4.1,0,6,0c0,0.5,0,1,0.1,1.5c-1.6,2.7-4.4,3.5-6.5,4c-1.2,4.5-2.2,8.5-3.2,12.4   c-1.2,0.6-1.1,1.6-0.9,2.7c0,1.3-2,1.7-1.2,3.4l0,0c-3.2,1.7-0.5,6.3-3.3,9c14,1.9,14,1.9,16.7,6.1c-6.6,2.4-13-0.2-19.8-0.4   c-0.5,1.2-1.1,2.5-1.9,4.2c5.4,0,10.3,0,14.9,0c1.5,1,2.4,2,2.1,4.3c-6.4,1.4-12.8,1-19.2-0.5c-2.8,3.7-4.8,8-8.2,11   C562.1,85.8,561.2,88.9,559.3,89.2z M580.8,44.1c-1,1.9-6.2,6-1.1,5.9c2.9,1.5,3.1-3.7,3.7-5.4c1.4-8.1,3.7-15.9,1.6-24.2   C583.3,28.9,583.2,35.9,580.8,44.1L580.8,44.1z M579.6,52.7c-1.3-0.5-2.5-1-4-1.6c-1.6,2.3-3.2,4.3-4.3,7.1   c1.6,0.5,2.9,0.9,4.5,1.4c1.7-2.2,2.8-4.7,4.7-6.5C580.1,52.9,579.8,52.8,579.6,52.7z M560.6,86c3.1-4.5,6.5-7.9,6.5-13.5   c-1.9,0.5-3.5,0.9-5,1.3c-1.5,3.6-2.9,6.9-4.4,10.3C558.7,84.7,559.5,85.2,560.6,86z M573.4,63.3c-2.3,0-4,0-5.8,0   c-0.8,1.8-1.4,3.4-2.3,5.3c1.8,0.2,3.3,0.4,4.7,0.6C571.1,67.3,572.1,65.6,573.4,63.3z M586.6,17.7c-0.2-1.7,0.9-4-0.4-5.3   C583.8,12.8,585.1,16,586.6,17.7z" />
	<path display="inline" fill="#020101" d="M199.6,541.5c-6.6,3-15.6,1.2-22.8,0.4c-13.3,4.7-29.2,3.2-40.6-5.5   c-3.7-8.8-3.2-18.8-7.1-27.9c-7.8,13.3-5.2,30.7-7.6,45.7c12.4,7.3,27.9,3.9,40.2,10.7c0,0.5-0.1,1-0.1,1.5   c-14.4-3.4-29.7-3.4-43.4-9.9c-2.1-35,15.3-68,23.4-101.5c1.7,0.8,0.7,2.5,1.2,3.7c-2.9,14.4-4.7,30.2-11.2,43.4   c3.1,11.3,5.4,21.6,7.3,32.6c8.5,7.4,22.3,8.6,32.8,6c7.9-4.3,16.8,1.2,25.7-0.7c0.6-1.3,1.3-2.6,2-4.1c-1.9-0.2-3.2-0.4-4.6-0.6   c1.3-1.9,3.4-0.6,5-1.3c1.3,0.8,2.2,1.8,2.3,3.5C205.9,542.5,200.7,538.4,199.6,541.5z" />
	<path display="inline" fill="#030202" d="M559.3,89.2c1.9-0.4,2.8-3.4,5.3-1.8c0.7-0.6,1.3-1.2,2-1.9c-0.1,1.1-0.2,2.1-0.3,3.2   c-34.2,39.7-79.7,72.9-120.3,108.3c-0.5-0.5-1-0.9-1.5-1.4c13-15.3,29.1-27.5,44.3-40.5c-0.3-0.3-0.6-0.6-0.9-0.9   C510.3,132.2,540.2,114.8,559.3,89.2z" />
	<path display="inline" fill="#0A090A" d="M199.6,541.5c0.2-2.3,5.7-0.3,3.4-2.6c1.1-0.5,2.1-0.9,3.5-1.5c0.3-1.1,0.7-2.3,1.1-3.7   c-9.8-3.2-20.8-6.2-30.8-3.1c-7.4-2.6-14.8-5-23-4.9c-1.2,1.9-1.7,4.4-4.1,5.1l0.1,0.1c5.1-21-1-43.3,5.8-64.2c0,1.8-0.1,3.6,1.3,5   c-1.5,16.8-3.5,34.2-0.4,50.9c18.5,2.8,35.8,6.4,54.7,6.8c3-6.3,12.9-7.8,14.7-14.3c1-0.2,0.9-0.8,0.6-1.5c0.8-2.6,1.7-5.2,2.5-7.8   c0.5,0.5,1,1,1.5,1.5c-1.5,4.4-3.4,8.5-2.6,13.3c-0.6,0-1.2,0-2.1,0c-11.6,24,17,36.1,35.2,42.4c-0.4,0.4-0.8,0.7-1.1,1.1   c-19.4-4.1-44.6-17.1-38.2-40.5c-6,3.3-9.9,9-13.9,14.4c0,3.6,0,7.1,0,10.7c-2.4-2.1-0.4-6-2.1-8.8c-0.1,2.7-0.3,5.4-0.4,8   c-0.3-2-0.7-4-1.1-6.3C202.8,541.5,201.2,541.5,199.6,541.5z" />
	<path display="inline" fill="#0C0A09" d="M357,309.4c-0.1-0.7-0.2-1.3-0.4-2c-0.9,0.3-1.5,0.5-2.2,0.7   c15.6-22.4,32.8-43.7,49.8-65.1c3.1-2.2,3.1-2.2,1.1-6.2c4.2-8.3,9.7-16.2,16.6-22.3c0.5,0.5,1.1,1.1,1.6,1.6   c-3.3,4.7-6.3,7.2-7.2,13.6c0.5,0.6,1.4,0.1,2.2,0.2c-0.1,1.3,0.7,2.9-1.2,3.6c-2.3-1.8-3.7,3.7-5.5,5.1c0.3,0.2,0.6,0.4,0.8,0.5   c0.1,0.6,0.1,1.2,0.2,1.8c-12.5,16-23.9,32.9-35.7,49.5c0-1.1-0.1-2.1-1.4-2.4c2.9-5.7,7.6-9.2,9.6-15.5   C374.5,283.7,367.2,297.6,357,309.4z M400.9,250.2c-4.6,5.6-4.8,5.9-5.6,9.5c4.3-4.4,6.7-8.9,10.7-13.2c0.4-0.5,0.1-0.6-0.5-1.1   C403.5,246.6,402,248.2,400.9,250.2z" />
	<path display="inline" fill="#040404" d="M97.7,563.9c-3.8-40.6-1.4-87.3,9.4-126.7c2.2,1.1,1.1,4.2,1,6.1   c-4.4,18-1.8,37.7-5.4,55.3c-0.2-1-0.4-2-0.6-3c-0.2,0-0.4,0-0.6,0.1C97.7,518,103.5,542.6,97.7,563.9z" />
	<path display="inline" fill="#060404" d="M97.7,563.9c1.8-0.8,1-2.6,1.4-3.9c1.5,23.8,30.7,19,47.9,19.9c8.5,0.6,16.8,4.9,25.2,2.3   c-9.9-4.8-19.8-7.4-30.5-7.8c7.9-7.2,26.1,0.9,34.3,6.1c-0.5,3.1-2.5,5.2-4.6,7.4c-13,0.7-25.3-7.3-37.8-3.8   C120.7,586.5,93.6,581.3,97.7,563.9z" />
	<path display="inline" fill="#080707" d="M201,106.8c21.2,8.1,32.1,35,27.3,56c1.8,6.8,6.5,12.3,9.4,18.7c-0.6,0.1-1.3,0.2-1.9,0.3   c-6.2-7.2-14.4-17.3-9.2-27c-3.6-9.7-4.5-20.9-9.4-28.8l0,0.1c-0.3-3.2-2.2-5.4-4.7-7.2c-0.4,0-0.8,0-1.2-0.1l0.1,0.1   c-0.4-0.4-0.8-0.8-1.2-1.2l0.1,0.1c-1.2-5.1-7.4-7.7-11.8-9.8C199.3,107.5,200.2,107.1,201,106.8z" />
	<path display="inline" fill="#080606" d="M123.7,134.2c-0.4-0.8-0.8-1.5-1.2-2.3c0.4-0.5,0.7-0.9,1.1-1.4c0,0,0,0,0,0   c1.3-0.3,1.4-1.2,1.3-2.3c15-19.6,45-30.5,68.6-23.6c-0.4,0.4-0.9,0.9-1.3,1.3c-18.7-1-39,4.8-54.5,15l0.1-0.1   c-0.5,0.4-1,0.8-1.6,1.2c-2.4,2.3-11.9,5.8-8.4,9.8c-0.2,0.3-0.4,0.7-0.5,1.1c-1-0.2-1.6,0.8-2.2,1.4   C124.6,134.3,124.2,134.3,123.7,134.2z" />
	<path display="inline" fill="#080808" d="M622.2,50.1c1.5-1.3,1.3-3.2,1.4-5c4,13.7,4.8,25.9,0.1,40.1c3.1,11.8,6.4,24.2,5.7,37.1   c-0.8,0.8-1.6,1.6-2.4,2.4c-0.1-12.8-3.2-25.7-7.1-37.9C620.9,74.5,624.4,62.5,622.2,50.1z" />
	<path display="inline" fill="#130D0C" d="M174.7,584.1c0.4-1.2,0.8-2.4,1.1-3.6c3,1.9,6.2,1.2,9.6,0.9c0.1-1.1,0.1-2,0.2-2.8   c-12.2-4.3-23.3-7.7-36-8.6c-0.8-0.6-2.4-0.8-1.4-2.6c4.7-0.6,9.3,2,14.2,0.6c-0.4-0.7-0.6-1.1-0.9-1.6c0-0.5,0.1-1,0.1-1.5   c4.3,1.3,8.6,2.6,12.9,3.9c-0.4,2.8,1.4,3.9,3.6,4.7c1.1,1.7,2.6,1.4,4.1,0.9c0.1-0.9-0.5-2,0.9-2.3   C201.2,577.6,186.2,586.7,174.7,584.1z" />
	<path display="inline" fill="#09090A" d="M495.8,564c-0.5,0-0.9-0.1-1.4-0.1c7.1-12.2,11.1-25.3,9.4-39.6c-3-2.2-6.2-3.9-8.9-6.2   c-1.3,2.1,0.8,4.9-1.5,6.7c-1-5.6-1.8-11.1-3.8-16.5c0.3-1.2,0.7-2.3,1-3.5c1.2,3.1,2.5,6.1,3.9,9.7   C515.1,519.8,508.1,552.9,495.8,564z" />
	<path display="inline" fill="#0E0D0C" d="M204.2,225.4c-1,0-1.9-0.1-3.2-0.2c-0.9,9.3,0.6,18.9,2.2,28.2c-0.6,1.2,0.4,3-1.3,3.9   c-4.9-6.4-4.1-15-6-22.5c1.5-4-1.5-7.6,1-11.8c8.7-0.6,17.5,0.1,26.3-0.1c0.4,0.4,0.9,0.9,1.3,1.3c-1.4,1.7-3.6,1.2-5,0.1   C214.5,224.8,208.4,222.6,204.2,225.4z" />
	<path display="inline" fill="#1A1514" d="M224.4,224.2c-0.4-0.4-0.9-0.9-1.3-1.3c0.7-0.6,1.5-1.2,2.2-1.7c1.7-4.5-1.7-9.4,1.5-13.4   c1.7-1.9,1.4-3.8,0.1-6c-2.9,0.4-5.5,2.3-8.3,0.7c2.1-4.3,7.9-1.1,10.6-5.8c-0.5-1.7-1.1-3.7-1.3-4.7c-2.1-1.4-3.3-2.2-4.9-3.2   c5.3-1.3,10.4-1.4,14.4-4.8c-0.7-1-1.2-1.6-1.6-2.2c0.6-0.1,1.3-0.2,1.9-0.3c6.1,4.1-2.2,7.9-6.1,9c-2.2,3.9,2.8,6.4-2.3,10.7   c2.4,3.2,2.1,6.3-0.8,9.3c0.3,3.7,1.7,7.3,0.2,11.4C227.5,222.5,225.9,223.4,224.4,224.2z" />
	<path display="inline" fill="#3D3933" d="M111.9,276.3c-1.7-5.6-2.2-12.7-0.2-17.9c0,4.2,0.1,8.3,0.1,13.3   c6.7-11.8,5.2-24.1,4.5-36.9l0.5,0c3,7.3-1.5,17.1,2.1,23.7C118.2,265,115.5,270.8,111.9,276.3z" />
	<path display="inline" fill="#292625" d="M108.4,439.8c-0.3-0.9,0-2.2-1.3-2.6c1.4-9.6,3.2-19.3,5.8-28.7c0.2,2.2-0.3,4.5,1.3,6.2   c-0.1,1.1-0.3,2.2-0.4,3.3c0.6,0.5,1.1,1,1.7,1.5C112,425.3,110.6,432.9,108.4,439.8z" />
	<path display="inline" fill="#382D2B" d="M423.6,216.2c-0.5-0.5-1.1-1.1-1.6-1.6c0.1-0.4,0.1-0.8,0.1-1.2   c8.5-4.9,15.6-11.1,22.5-17.7c0.5,0.5,1,0.9,1.5,1.4c-2.4,3.1-4.9,6.2-7.3,9.3c-4.1,0.4-6.5,3.7-9.5,5.9   C426.1,211.8,424.7,213.8,423.6,216.2z" />
	<path display="inline" fill="#2F2E2C" d="M106,247.8c1.4,1.5,0.5,5.3,3.4,4.7c0,0.5,0,0.9,0,1.4c-2.7,0.5-3.6,6.7-1.1,8.1   c2.1,5.5,1.2,11.2,1.1,16.8c-2.4-2-0.6-6.1-1.1-9c-1.4,0.6-0.9,2.9-3.3,2.6C104.7,264.3,106.3,256,106,247.8z" />
	<path display="inline" fill="#010101" d="M204.2,225.4c3.6-2.2,12.9-2,16.6-0.2C215.5,226.4,209.1,227.2,204.2,225.4z" />
	<path display="inline" fill="#4E3C39" d="M178.1,573.4c-2.2-0.7-3.9-1.9-3.5-4.6c3.4-0.2,6.3,0.7,8.6,3.3c-1.4,0.3-0.8,1.4-0.9,2.3   C180.7,574.8,179.3,575.1,178.1,573.4c0.7,0,1.4,0,2.5-0.1C179.3,571.9,178.5,571.7,178.1,573.4z" />
	<path display="inline" fill="#333B43" d="M490.5,504.9c-0.3,1.2-0.7,2.3-1,3.5c-1.9-1.2-0.5-3.6-1.8-5.1c-1.3-1.7-2.9-3.6-3.7-5.7   c0.4-0.4,0.7-0.8,1.1-1.2C486.8,499.1,488.7,502,490.5,504.9z" />
	<path display="inline" fill="#332722" d="M192.2,105.9c0.4-0.4,0.9-0.9,1.3-1.3c2.7,0.1,5.2,0.7,7.5,2.1c-0.9,0.4-1.8,0.7-2.7,1.1   C196.4,107,193.9,107.7,192.2,105.9z" />
	<path display="inline" fill="#3A3734" d="M405.4,236.9c2,4,2,4-1.1,6.2C403.2,240.7,403.4,238.6,405.4,236.9z" />
	<path display="inline" fill="#302927" d="M201.9,257.3c1.8-0.8,0.8-2.6,1.3-3.9c0.5,2.5,1.8,4.4,3.7,6.1c-0.5,0.5-1,1-1.5,1.5   C203.8,260.1,202.5,259.1,201.9,257.3z" />
	<path display="inline" fill="#C2AB9D" d="M422.1,213.4c0,0.4,0,0.8-0.1,1.2c-0.7,0.5-1.4,1-2,1.5   C419.6,214.4,420.1,213.3,422.1,213.4z" />
	<path display="inline" fill="#3B312A" d="M123.7,130.5c-0.4,0.5-0.7,0.9-1.1,1.4c-0.4-0.4-0.8-0.9-1.2-1.3   C122.1,130.6,122.9,130.5,123.7,130.5z" />
	<path display="inline" fill="#3B312A" d="M124.9,128.2c0.1,1.1,0,2-1.3,2.3C124.1,129.8,124.5,129,124.9,128.2z" />
	<path display="inline" fill="#C2AB9D" d="M423.5,212.5c-0.5,0.3-0.9,0.6-1.4,0.9C422.6,213.1,423,212.8,423.5,212.5z" />
	<path display="inline" fill="#F6D9C7" d="M377.1,290.4c11.8-16.6,23.1-33.4,35.7-49.5c0.4,0,0.8,0,1.3,0c0,0.9,0,1.8,0,3.2   c5-0.4,18.2-15.6,6.9-8c3.9-20.9,22.6-23.9,37.3-34.6c38.7-34.2,81.9-65.6,113.5-106.2c2.4,0,4.9,0,8,0c2.5,2,5.4,4.4,8.2,6.7   c1.1,3.4-13.5,17.9-17,18.9c-9.4,9.4-20.7,20.4-25.2,32.8c1-0.2,2.2-1.1,3.1,0.7c-18.1,35.9-28.9,69.7-73.2,77   c0.2-9.7,12.7-12.1,14.3-20.3c-3.7,3.5-6.2,5.4-9.9,8.2c-2.1-0.9-0.3-3.5-1.9-4.4c-10.9,0-14.2,18-13.5,26.9   c-23.6,28.7-37.6,62-50.1,96.6c-15,35.6-32.6,70.5-39.4,109c-0.6,0.1-1.1,0.3-1.7,0.4c-19.5-7.6-44.5-15.5-51.5-37.5   c-1.4-0.7-2.7-1.4-4.3-2.2C335.1,367.9,352.5,327.1,377.1,290.4z M453.1,211.3c0.6-1.1,1.2-2.2,2.1-3.8c-3,0.3-3.3,2-3.7,3.7   c-1.4,0.9-1.2,1.9-0.1,3.6C452.1,213.2,452.6,212.3,453.1,211.3z M443.4,222.9c1.5-2.1,3.8-3.7,4.7-6c-6.7-7-16.6,3.5-20,9.7   c0.4,1.5,0.8,3,1.2,4.5c-0.3,0.6-0.7,1.3-1.1,2C435,234.2,438.1,225.2,443.4,222.9L443.4,222.9z M498.7,204.8   c-5.8,4.1-5.8,4.1-6.5,7.3C495.5,210.3,497.3,207.7,498.7,204.8z M508.9,195.4c-3.1-0.5-3.6,0-2.8,2.9   C507.1,197.3,507.9,196.5,508.9,195.4z" />
	<path display="inline" fill="#F6D9C7" d="M161.6,566.4c0.3,0.5,0.5,1,0.9,1.6c-4.9,1.4-9.5-1.2-14.2-0.6c-1,1.8,0.6,1.9,1.4,2.6   c-2.6,1.7-6.8,1.4-8.1,4.5c-0.6,1.4-1.8,1.3-3,1.3c-10.2-1-27.6,4.1-31.4-8.8c0.4-44.9-2-90.2,10.3-134.2c2.3,3.2,4.1,6.3,3.9,10.3   c0.5,0.8,1.7,2.9,3,2c4-8.2,2.8-15.9-0.7-24c3.9-19.1,5.8-38.8,6.1-58.9c0.3,0,0.5-0.1,0.8-0.1c1.2,2.6,2.3,5.2,3.5,7.9   c1.6,0.5,3.1,0.9,4.7,1.4c-0.1-17.4-2-31.9,0.6-49.2c4.1,3.8,5.5,9.3,11.6,9.6c-2.2-17-4.7-33.6-1.2-50.5c1.8-3.2,10.8-4.3,8.7-8.4   c-3.8,2.1-7.3,0.4-10-2.6c11.4,0.3,28.7-1.2,36.4,7c6.1,1.1,11,8.5,12.5,14.2c-0.2,1.4-0.8,2.9,1,3.7c2.9-4.8,1.2-11.4-3.7-14.3   c0.5-0.5,1-0.9,1.5-1.4c13.5,9.7,21.4,29.2,19.7,45.7c-5.2-1.1-7.5-6-12.7-7.1c-3.3-2-5.6-7-10.2-6.1c-0.6,1.2-1.2,2.3-1.7,3.3   c0.4,2.2,0.8,4.1,1.2,6c-0.3,0.4-0.6,0.9-0.9,1.3c-1.4,0-2.5,0.9-2.5,2c0,2.8-2,5-2.2,7.6c-0.9-0.2-1.4,0.4-1.4,1.3   c-21.1,38.5-43.1,76.9-43.9,121.6c-8.1,33.5-25.4,66.5-23.4,101.5C131.9,563,147.2,563,161.6,566.4z M139.2,421.7   c0.3,0.2,0.7,0.4,1,0.6c1.9-2.2,2.2-3.6-1-5.6C139.2,418.4,139.2,420,139.2,421.7z M138.2,410.3c2.7-0.5,2.6-2,1.7-4.4   C139.1,407.8,138.7,409,138.2,410.3z" />
	<path display="inline" fill="#E1C7B6" d="M373.5,447.9c0.6-0.1,1.1-0.3,1.7-0.4c6.8-38.5,24.4-73.3,39.4-109   c12.5-34.6,26.5-68,50.1-96.6c-0.7-8.9,2.6-27,13.5-26.9c1.6,0.9-0.2,3.5,1.9,4.4c-2,2-4.9,3.4-6,6.1c1.2,0.9,2.2-0.3,3.4-0.6   c-0.7,2.2-1.3,4.4-2,6.5c44.3-7.3,55.1-41.1,73.2-77c-0.9-1.8-2.1-0.9-3.1-0.7c4.5-12.5,15.8-23.4,25.2-32.8c4-0.9,5.6-4.5,8.1-7.1   c2.9-3.8,9.1-6.6,8.9-11.9c3.8,0.8-1,4,2.3,7.3c-0.3,0.7-0.6,1.4-0.9,2.1c-1.7-1.3-1.3,0.5-1.8,1.1c-1.8,1.4-0.1,2.5,0.3,3.7   c-28,26.8-41,63.8-62.9,94.6c-11.6,15.7-31.5,22.1-47.6,32c-17.8,25.3-26.4,58.2-38.5,86.8c-0.2-0.7-0.3-1.4-0.6-2.4   c-9.2,16.4-14.2,29.5-14.2,37c1.7-1.7,3.4-3.5,5.1-5.3c-10.3,29.9-15.6,61.3-22,91.2C396.2,454.3,383.8,453.8,373.5,447.9z    M577.6,124c2.2-1.8,9.5-5.8,6.1-8.8C581,117.4,579.3,120.6,577.6,124z M470.5,232.6c0.8-0.8,1.6-1.6,2.6-2.6   C470.7,229.2,470.7,229.2,470.5,232.6z M567.8,134.7c2.3-2.4,3.7-2.3,3.3-5.2C569,130.5,568,131.6,567.8,134.7z M564.4,138.7   c-2.4,0-2.4,0-2.7,3C562.9,140.5,563.6,139.6,564.4,138.7z M559.6,144.7c-2.1,0.7-2.1,0.7-1.4,2.2   C558.7,146.1,559.1,145.4,559.6,144.7z" />
	<path display="inline" fill="#2D8FB9" d="M484,497.5c0.8,2,2.3,3.9,3.7,5.7c1.4,1.5-0.1,3.9,1.8,5.1c1.9,6.1,4,12.5,3.6,18.9   c-1.5-4-5.2-7.1-9.3-8.3c0-0.4,0.1-0.8,0.1-1.2c3-1.3,3-1.3,3.5-5.2c-1.5,2-2.6,3.4-3.7,4.9c-0.4,0-0.8,0-1.2,0   c-3.6-7.5-12.2-12.3-17.6-18.8c0.4-0.8,0.7-1.6,1.1-2.4c0.3-0.2,1.2-0.1,0.5-0.9c-0.2,0.3-0.4,0.5-0.6,0.8   c-1.1,0.4-2.3,0.9-3.4,1.3c-3.9-3.4-8.5-4.9-13.5-6.1c-0.1,1.5,2.3,1.6,0.7,3.3c-1.9-1.1-4.7-0.2-6.3-1.9c0.6-0.2,1.2-0.5,2.7-1   c-6.5-0.4-13.8-5.8-18.3-2.7c-0.9-1.2-1.9-2.4-2.8-3.6c-10.1-0.2-21.6,0.1-29.9,4.7c-16.7-2.9-34.3,4.4-51.3,5   c-28.2,2.2-64.7,13-80.2,38.8c-13-1.4-25.8-6.3-35.5-15.3c2.7-20.7,18.8-38.9,34.8-51.5c47.8,44.9,104.2,18.5,155.6-1.4   c-4.4-0.9-8.4-0.2-12.9,0.7c2-4.5,3.8-8.4,5.7-12.5C441.7,452.4,465.1,476.2,484,497.5z M258,508.8c-4.9-1.8-9.5-4.4-14.7-8.3   C246.8,506.1,250.1,507.9,258,508.8z M281.2,482.7c-4.7-2.9-9.4-1.7-14.5-0.9C271.1,481.6,275.3,484.3,281.2,482.7z M431.1,479   c3.9,0.7,7.7,1.3,11.5,0C438.8,478.8,434.8,478.1,431.1,479z" />
	<path display="inline" fill="#F7EFD0" d="M619.9,86.8c3.6,10.7,6.5,22.6,5.7,33.8c-6.4,4.9-13.6-2.1-20.9,1.5   c-20.5,4.3,3.6-18-21.4-29.5c-5.3-0.4-13.3,1.8-16.9-3.8c-0.1-4.9,4.2-8.2,6.5-12.4c6.4,1.5,12.8,1.9,19.2,0.5   c0.2-2.3-0.6-3.3-2.1-4.3c-4.6,0-9.4,0-14.9,0c0.8-1.7,1.3-3,1.9-4.2c6.8,0.2,13.2,2.8,19.8,0.4c-2.7-4.2-2.7-4.2-16.7-6.1   c2.4-3,0.8-6.3,3.3-9l0,0c0.4,0,0.7-0.1,1.1-0.2c0.5,1.2,0.9,2.4,1.5,3.9c4.5-0.8,9.2,1,13-3.5c-4.3-3.8-10.1-3.5-14.6-0.2   c0-0.8,0-1.6,0-2.5c0.3-0.2,0.3-0.5,0.2-0.9c2.1-4.4,2.2-9.7,4.1-15.1c2.1-0.5,4.9-1.3,6.5-4c0.7,0,1.4-0.1,1.9-0.6   c-1.9-2-5.1-0.4-8-0.9c0-6.9,0.5-13.6,1.4-20.8c4.5-0.6,9.1-1.2,13.4-1.8c12.8,9.5,21.7,65,7.6,75c1.3,2.8,1.3,2.8,3.8,4.6   C616.8,86.8,618.4,86.8,619.9,86.8z M589.7,47.9c2.5-1.2,4.5-2.1,6.7-3.2c-4.3-2.8-6-2.6-8.5,1.1C588.4,46.4,588.9,47,589.7,47.9z" />
	<path display="inline" fill="#E1C7B6" d="M241.1,442.9c-8.2-9.1-19-13.8-28.8-21c10.5-10.5,22.5-19.5,33.4-29.6   c1-0.1,2-0.2,3.3-0.3c-0.9-0.8-1.3-1.2-2-1.8c0.7-0.6,1.2-1.1,1.7-1.6c1,0.1,1.9,0.1,2.9,0.2c1.6,2.8,1.6,2.7,4.1,1.6   c-0.3-0.5-0.6-1-0.8-1.5c2.7-0.3,5.3-0.2,7.4,2.4c-3.6,4.6-8.8,6-14.1,7.6c1.4,1.2,2.4,2.1,3.3,2.9c-2,0.9-4.8-0.7-6.5,1.8   c1.3,2,7,0.6,7.5-1.6c1.5-0.5,2.5,0.5,3.7,1c1.1,2.5,3,1.4,4.7,1c0.7,2.2,4.5,0.7,4.5,3.8c-0.6,0.9-1.2,1.7-1.8,2.5   c10.8,9.8,22.2,18.4,33.9,27c-2.6,12.3-15.6,30.1-9.7,41.7c-16-6.9-27.6-24.2-43.4-32.2C244.6,444.3,242.7,443.8,241.1,442.9z" />
	<path display="inline" fill="#FFF0A7" d="M271.9,321c0,3.3,0,6.7,0,10.1c-1.5,0.8-2.7,1.3-3.9,2c-3.9-3.3,3.6-17.5-4.2-16.3   c2.5,28.1-19,33.7-40.4,19.1c8.4-45.8-42.8-83.3-84.9-67.3c-0.9-3.3,0.5-6.4,0.9-9.6c10.2-1.8,20.5-1.5,31.1-1.6   c16.7,9.4,35.7,14.2,50.8,26.8c8.7,5.4,19.1,1.8,27.9,5.3C261.6,296.6,275.2,304.4,271.9,321z" />
	<path display="inline" fill="#EF8A6A" d="M387.6,452.8c1,0,1.9,0,2.9,0.1c-0.2,0.5-0.5,1-0.8,1.7c4.9,1.2,9.9-1.4,14.8,1   c-1.1,4.9-2.8,9.6-5.3,14.1c-19.9,10.1-42.8,11.4-64.2,16.6c-14.9,4.4-29.6-0.3-43.9-5c0.9-21.6,11.2-43.1,20.1-62.6   c5-0.1,1.9-4.1,5.2-6.3c1,1.7,1.9,3.3,2.9,4.8c-2.6,3.9-0.6,10.1-1.2,14.1c7.6,9,10.3,18.9,15.6,29.2c-2.1-0.8-3.6-1.3-5.1-1.9   c-0.7-1.7-2.2-1-3.4-1.3c1.1-0.6,2.2-1.3,3.5-2c-2.8-4.3-5.6-8.6-8.7-13.4c-0.8,4.2,0.7,13.2,4.4,15.7c-0.9,1.3-3.9,1.4-2.3,4.2   c0.7-0.3,1.4-0.5,2-0.8c10.7,7.3,24.5,6.8,37.1,9.3c6.7-4.3,12.2-10.2,17.5-16.5C381.2,453.3,385.9,455.6,387.6,452.8z    M303.6,465.5c2,0.8,3.6,2.1,4.9,5.2c0-5.1,0.5-8.9-3.1-12.9c0.2,2.8,0.3,4.6,0.5,6.3c-1,0.2-1.5,0.3-2.1,0.4   c-1.9-1.4-5.7-6.5-7.2-1.9C298.2,465,300.8,465.4,303.6,465.5z M306.4,433.9c-2.2,7.6-4.6,13.8-3.3,22.7c2.5-8.3,4.2-16.7,5.1-24.8   C306.7,432,306.3,432.8,306.4,433.9z M311.6,454.8c-0.2-12,0.3-23.5,1.8-34.9C307.7,429.2,308.2,443.8,311.6,454.8z M318.1,462.7   c-3.1-1.8-3.1-1.8-6.1,0.8C314.2,464.7,315.7,463.1,318.1,462.7z" />
	<path display="inline" fill="#F6D9C7" d="M251.7,388.7c-1-0.1-1.9-0.1-2.9-0.2c6.5-8,13.2-14.6,20.2-22.3c3,5,3.5,8.8,4.4,14   c1.9-6.2,1.2-12.6-1.7-18.6c1.4-2.4,2.8-4.9,4.5-7.8c6.8,7.2,14.1,13.2,19.2,21.7c-0.5,2.9,1,6.8,4.1,7c-0.2-1.3-0.5-2.4-0.7-3.4   c2.3,1.7,4.7,3.4,7,5.1c0,0.3,0,0.5,0,0.8c-4.3,1.8,11.8,10.7,10.9,15.6c-0.6,2.7-3,4.6-2.8,7.4c0.1,4.4-5,6.5-6.6,10.4   c-5.9-0.8-11.2-2.7-16.9,1c1.1,1.2,2,2.2,3,3.2c-0.8,0.7-2.6,0.1-2.5,1.9c1.1,0.4,2.2,0.8,3.3,1.2c1.9,2,4.8-0.1,6.8,1.6   c0.1,0.5,0.2,1.1,0.3,1.6c-1.2,2.8-2.5,5.5-3.7,8.3c-11.7-8.6-23.1-17.2-33.9-27c0.5-0.8,1.2-1.6,1.8-2.5c0-3-3.8-1.6-4.5-3.8   c0.6-0.6,1.2-1.2,2.1-2.1c-2.8-1.5-4.7,0.2-6.8,1.1c-1.2-0.5-2.2-1.6-3.7-1c-1.7,0.1-2.5-1.9-4.3-3.1c5.3-1.6,10.5-3,14.1-7.6   C259.5,387.5,255.5,389.1,251.7,388.7z M276.8,392.1c-0.3-1.5-0.4-3.1-2.4-4c-1.7,1.3,1.1,8.1,3.5,7.2   C277.5,394.1,277.1,393.1,276.8,392.1z M280.3,395.8c-1.3,2.6,0.4,4,1.9,6.3C282.4,399.3,282.8,397.3,280.3,395.8z M287.5,426   c0,0.1,0.1,0.3,0.1,0.4c0.5,0,1-0.1,1.5-0.1c-0.1-0.3-0.2-0.5-0.3-0.8C288.4,425.6,288,425.8,287.5,426z" />
	<path display="inline" fill="#F6D9C7" d="M155.6,466.6c-6.7,20.9-0.7,43.3-5.8,64.2c-0.3,0.1-0.6,0.2-0.8,0.3   c0.2,0.2,0.4,0.3,0.5,0.5c0.1-0.3,0.1-0.6,0.2-0.9c2.4-0.7,2.9-3.2,4.1-5.1c8.7-0.2,16.2,3,24.2,5.1c0.2,0.7,0.3,1.4,0.6,2.5   c4.6-0.6,8.5,0.4,12.6,2.4c-58.6,3.9-40.5,7.4-55.8-42c10.4-33.3,7.7-70.9,26-101C162.5,418.5,159.5,441.1,155.6,466.6z" />
	<path display="inline" fill="#E1C7B6" d="M122.4,444.4c-1.9-2.7-1-6.7-3.5-9.5c0.5-0.1,1-0.2,1.5-0.2c1.8-1.7,0.6-3.7,0.8-5.6   c-1-1-2.3-1.8-3.5-2.5c-0.3-3.3-1.1-6.5-4.1-8.5c4.7-24,11.2-47.1,12.5-71.8c1.2,1.3,2,2.2,3.1,3.2c0.5-3.7,0.9-7-1.8-10.2   c5.2-21.3,10.6-42.1,10.5-64.1c3.7-1.2,6.4-5.6,10.4-4.9c1.8,1.7,3.6,3.5,6.3,3.8c-3.5,2.5-5,5.5-7.4,9.1c1.2,0,1.7,0,2.2,0   c0.3,2.2,0.2,4.4-1.2,6.3c-0.6-0.1-1.1-0.2-1.8-0.3c-1.3,1.2-1.3,1.7-1.4,3.8c1.4-1.3,2.3-2,3.2-2.8c-2.5,14.2,1.6,27.5,2.5,41.6   c-6-0.3-7.5-5.8-11.6-9.6c-2.6,17.3-0.7,31.8-0.6,49.2c-1.6-0.5-3.1-0.9-4.7-1.4c-1.2-2.6-2.3-5.2-3.5-7.9c-0.3,0-0.5,0.1-0.8,0.1   c-0.3,20.1-2.2,39.7-6.1,58.9c3.5,8.1,4.7,15.8,0.7,24C123.5,445.6,122.9,445.3,122.4,444.4c2.4-1.6,1.5-3.5,0.7-5.9   C121.6,440.6,122.4,442.5,122.4,444.4z M131.2,354.4c-0.3,2-0.3,2,1.8,4.2C133.3,356.7,133.1,355.2,131.2,354.4z M134.6,367.9   c0.2,0,0.4,0,0.7,0c0-0.8,0-1.6,0-2.4c-0.2,0-0.4,0-0.7,0C134.6,366.3,134.6,367.1,134.6,367.9z" />
	<path display="inline" fill="#F6D9C7" d="M201.9,257.3c9.2,11.6,22.4,19.3,35.5,26c0,0.3,0,0.6,0.1,1   c-18.6,0.2-28.2-17.5-44.8-22.4c-5.2-2.9-13.3-2.2-16.9-7.1c-6.7-3.2-16,0.4-23.5-1.7c-0.6-16.5,3.8-31.5,6.3-47.7   c6,0.8,8.2,6.8,12.3,10.5c0.9,5.8,6.6,9.9,10.4,14.3c3.9,4.9,9.9,1.9,14.6,4.5C197.8,242.3,197,250.9,201.9,257.3z M161.1,230.9   c0.8-1.9,0.3-3.1-1.6-4.1C159.5,229.2,159.5,229.2,161.1,230.9z" />
	<path display="inline" fill="#E0C7B6" d="M195.9,234.8c-12.5-1.7-19.2-5.7-24.8-17.7c1.5,0.4,2.2,2.6,4.5,2c-1.4-3.8-4.6-6-6.7-9.4   c-0.2-2.3-0.5-4.5-3.4-5.3c0.3,2.4,0.5,4.5,0.7,6.7c-1.9-2.7-3.8-5.4-7.6-5.6c-2.5,16.2-6.9,31.1-6.3,47.7c7.5,2,16.8-1.5,23.5,1.7   c-11.6,0-23.2,0-35,0c0-1.7,0-3.2,0-5.1c0.6-0.3,1.5-0.6,2.7-1.1c4.9-14,2.5-30.2-0.9-44.4c0.8-1.9,2.2-3.2,4-4   c1.9,1.2,3.4,2.6,4.2,4.8c2.5-2.8-1-4.5-2.3-6.7c1.2-1.4,2.4-2.7,3.8-4.3c-1.8-2.7-1.2-5.8-1.3-8.8c7.2,1.5,5.8,20.4,14,9.4   c2.9,0.1,4.5,2.8,7.1,3.1c0.2,1.9,0.2,2.8-0.1,4.5c-0.5-1.1-1.1-2.3-1.9-4.1c-2.3,11.7,10.9,21.8,20.9,19.1c6.2,4,12.3,4,19.1,5.8   c-4.4-0.1-8.9-0.3-13.3,0.1C194.3,227.1,197.4,230.8,195.9,234.8z M178.7,220.7c-1,2.6,0.2,5,2.7,3.9   C180.6,223.3,179.8,222.1,178.7,220.7z M187.2,230.3c-0.8,1.7-0.2,2,1.7,1.9C188.1,231.3,187.7,230.8,187.2,230.3z" />
	<path display="inline" fill="#E1C7B6" d="M186.8,332.2c0.3-2.7,2.3-4.8,2.2-7.6c0-1.1,1.1-2,2.5-2c-0.6,1.7-3.5,4.3-0.6,5.4   c3.2-2.8,5.7-7.1,7.1-11.1c-3.4-0.4-3.2,3-5.6,4.4c-0.4-1.9-0.7-3.8-1.2-6c0.5-0.9,1.1-2.1,1.7-3.3c4.6-0.9,6.9,4.1,10.2,6.1   c5.2,1.1,7.5,6.1,12.7,7.1c0.1-3.9,0.2-7.7,0.3-11.5c4.3,16.3-1.6,38.7-17.8,46.7c-7.7-7.5-17.1-18-9.8-28.1   C187.9,332.3,187.4,332.2,186.8,332.2z" />
	<path display="inline" fill="#F4D8C6" d="M438.7,206.4c33.6-36.9,76.9-64.3,112.4-99.5c0.5,0.5,1,1,1.5,1.5   c-20,23.2-41.7,44.5-65.3,63.9c-15.7,11.5-28.2,30.3-47.4,34.3C439.5,206.5,439.1,206.4,438.7,206.4L438.7,206.4z" />
	<path display="inline" fill="#FFF0A7" d="M270.3,347.2c1,1.2,2,2.4,3.2,3.7c-6.3,14.9-18.3,26.8-29.1,38.8c-1.1,0-2.3,0-3.4,0   c-4.9-6.1-15.5-25.7-6.3-29.4c13.7,1.3,23.9-7.3,33.9-15.1C269.3,346.1,269.8,346.7,270.3,347.2z" />
	<path display="inline" fill="#F4D7C6" d="M185.4,339c0.6,7.9,7.2,16,13.1,21.5c-8.1,4-16.6,6.9-26.1,6.8   C176.6,357.7,179.8,347.8,185.4,339z" />
	<path display="inline" fill="#D1BB9D" d="M109.4,168.5c0.2-0.3,0.3-0.7,0.2-1c1.5-1.4,1.3-3.4,2.1-5.2c-0.9-0.2-1.4-0.3-2.4-0.4   c1.2-2.4,0.5-5.3,2.6-7.5c0,0.9,0,1.9,0,4c2.2-3.2,3.1-4.1,5.5-6.2c0.8-1.4-0.7-4.9,1.9-4.9c1.1,20.4-11.1,38.8-7.4,58.9   c-0.5,1.3,0.5,3.1-1.5,3.9C106.1,197.3,108.3,181.8,109.4,168.5z" />
	<path display="inline" fill="#CFBA9B" d="M151,185.1c0.1,3-0.5,6.1,1.3,8.8c-1.4,1.6-2.6,2.9-3.8,4.3c-1.3-1.6-2.6-3.2-3.9-4.8   c1.9-0.9,3,1.6,4.6,0.3c-6.2-9.3-15-15.8-22-24.1c-1.2-2.3-2.3-0.1-3.5,0c-0.6-6.9-4-13.1-3.5-19.9c1-1.3,2-1.1,3-0.1   c0.7,10.7,8.9,17.2,16.9,22.8c-0.7,1-1.4,2.1-2.1,3.2c1.1,3.9,3.7,6.3,7.9,7.1c0.8,0.8,1.6,1.7,2.4,2.5c0.2,1,0.4,2,0.6,3.2   C150.4,187.5,149.1,185.5,151,185.1z" />
	<path display="inline" fill="#EADBB7" d="M595,118.9c2.7,8.6,16.8-0.9,23.5,3.2c2.1,0.6,4.7,1,7-1.5c0.1-2.7,0.1-5.8,0.2-8.9   c1.7,4.1,0.8,8.7,1.2,13c-0.5,0.6-1,1.2-1.4,1.8c-6.1-1.1-7.3-1-14.4,1.6c-6.2-2.4-13,0.1-19.9-1.2   C592.6,124.1,593,121.1,595,118.9z" />
	<path display="inline" fill="#EED1C0" d="M429.2,359.1c-1.7,1.8-3.4,3.5-5.1,5.3c-0.1-7.5,4.9-20.6,14.2-37c0.2,1,0.4,1.7,0.6,2.4   C435.6,339.6,432.1,349.3,429.2,359.1z" />
	<path display="inline" fill="#C2AE91" d="M146.3,193.3c-0.6,0.1-1.1,0.1-1.7,0.2c-0.9-0.7-1.8-1.4-2.4-2c-1,0.2-1.8,0.3-2.8,0.5   c-3.5-3.8-7-7.6-10.4-11.4c-0.2,0.1-0.4,0.2-0.6,0.4c0.4,1,0.8,2,1.2,3c-0.4,0.4-0.8,0.8-1.2,1.3c-2.9-4.7-3.4-10.2-4.6-15.5   c1.2-0.1,2.3-2.4,3.5,0c-0.4,0.3-0.9,0.6-1.5,1C131.7,179.1,140.1,185.1,146.3,193.3z" />
	<path display="inline" fill="#CFBA9B" d="M128.4,185.2c0.4-0.4,0.8-0.8,1.2-1.3c3.9,3.5,6.6,10.6,12.8,9.6c1.5,2.4,2.9,4.5,4.2,6.7   c-1.9,0.8-3.2,2.1-4,4C137.9,197.8,130.5,193.1,128.4,185.2z" />
	<path display="inline" fill="#DDC1B0" d="M301.3,428.9c-0.1-0.5-0.2-1.1-0.3-1.6c-2-1.7-4.9,0.4-6.8-1.6l0-0.5   c5.3,0.5,5.3,0.5,7.7-0.8c-3.6-2.1-7.3,0.4-11.1,0.1c0-1.8,1.7-1.1,2.5-1.9c-0.9-1-1.8-2-3-3.2c5.7-3.7,11-1.8,16.9-1   C305.4,421.9,303.4,425.4,301.3,428.9z" />
	<path display="inline" fill="#B19E84" d="M110.6,210c1.9-0.8,0.9-2.6,1.5-3.9c2.9,9.4,3.6,19,4.9,28.7c0,0-0.5,0-0.5,0   c-2.2,3.7,0.4,8.2-2,11.8C115.1,234.2,112.3,222.2,110.6,210z" />
	<path display="inline" fill="#DDC3B3" d="M566.4,88.8c0.9,0.9,1.7,1.7,2.6,2.6c-1.1,0-2.2,0-3.2,0c-0.9,1.7,0.5,2.2,0.9,3   c-2.2,3.6-6.3,9.2-11.2,7.6C560.2,95.5,557.4,92.2,566.4,88.8z" />
	<path display="inline" fill="#C2AB9D" d="M423.6,216.2c1.2-2.4,2.6-4.3,5.7-3.9c0,0,0,0,0,0c0.1,0.4,0.2,0.8,0.3,1.2   c-5,4.5-7.8,10.6-11,16.4c-0.7,0-1.6,0.5-2.2-0.2C417.2,223.4,420.3,220.8,423.6,216.2z" />
	<path display="inline" fill="#292522" d="M146.2,437.2c-0.7,7.2-0.8,14.8-3.4,21.5c-0.5-1.2,0.5-2.9-1.2-3.7   c0.5-7.3,1.2-14.5,3.4-21.5C145.5,434.7,144.4,436.4,146.2,437.2z" />
	<path display="inline" fill="#2D211C" d="M244.3,389.8c5.1-5.6,10.2-11.2,15.3-16.8c0.5,0.6,1,1.1,1.6,1.7c-5,5-9.3,10.5-14.2,15.6   c0.6,0.6,1.1,1,2,1.8c-1.3,0.1-2.3,0.2-3.3,0.3C245.7,391.2,245.6,390.2,244.3,389.8z" />
	<path display="inline" fill="#312724" d="M185.4,339c-2.6,3.3-4.2,7.1-5.8,11c-0.4-0.9-0.9-1.8-1.3-2.6c1.4-5.8,4.8-10.7,8.5-15.2   c0.6,0.2,1.1,0.2,1.9,0.3C188.4,335.1,186.3,336.8,185.4,339z" />
	<path display="inline" fill="#322D29" d="M424.6,236c-2.7,3.5-5.9,6.3-10.6,8.1c0-1.3,0-2.3,0-3.2c-0.5,0-0.9,0-1.3,0   c-0.1-0.6-0.1-1.2-0.2-1.8c0.4-0.3,0.8-0.7,1.1-1c0.5,0.4,0.9,0.7,1.4,1.1c1.1-0.7,2.3-1.4,3.4-2.1c1.1,0.9,1.4,0.7,2.4-1   c0.8-0.4,1.6-0.9,2.4-1.4C423.8,235.2,424.2,235.6,424.6,236z" />
	<path display="inline" fill="#8A796F" d="M589.3,111.5c0.3-0.7,0.6-1.4,0.9-2.1c2.2,3.1,1.1,6.9,1.1,10.5c-1.8-0.7-1-2.8-1.4-4.4   c-0.9,0.4-1.5,0.6-2.2,0.9c-0.5-1.2-2.2-2.3-0.3-3.7C588.5,114.4,589.3,112.9,589.3,111.5z" />
	<path display="inline" fill="#E1C7B6" d="M166.4,270.3c-6,0-11.9,0-17.9,0C154.2,269,161.3,267.6,166.4,270.3z" />
	<path display="inline" fill="#B6A597" d="M429.2,212.3c3-2.2,5.4-5.5,9.5-5.9l-0.1-0.1c0.1,0.4,0.1,0.9,0.2,1.3   c-2.6,1.9-5.6,3.3-8.4,4.9C430.1,212.5,429.7,212.4,429.2,212.3L429.2,212.3z" />
	<path display="inline" fill="#C6B1A2" d="M555.4,102.1c0.7,0.1,1.3,0.2,2,0.3c-1.6,2-3.2,4.1-4.8,6.1c-0.5-0.5-1-1-1.5-1.5   C552.5,105.3,554,103.7,555.4,102.1z" />
	<path display="inline" fill="#A59386" d="M413.7,238.2c-0.4,0.3-0.8,0.7-1.1,1c-0.3-0.2-0.6-0.4-0.8-0.5c1.8-1.4,3.2-6.9,5.5-5.1   l0,0C416.5,235.4,415.5,237.2,413.7,238.2z" />
	<path display="inline" fill="#77766C" d="M140.4,274c-0.8,0.4-1.5,0.8-2.3,1.2c-0.1-1.5-0.2-3-0.3-4.8c1.2,0.1,2.1,0.1,3.4,0.2   C140.3,272.1,139.2,272.6,140.4,274z" />
	<path display="inline" fill="#483B32" d="M123.4,149.6c-1.1-1-2.1-1.2-3,0.1c-0.3-0.8-0.6-1.6-1-2.5c-0.2,0-0.5,0-0.7,0   c0.8-0.4,1.7-0.8,2.5-1.2c1.3,1.1,2.6,2.2,3.9,3.3C124.6,149.4,124,149.5,123.4,149.6z" />
	<path display="inline" fill="#292520" d="M118.2,172.4c2.1,1.9,2.1,1.9,0,3.1C118.2,174.3,118.2,173.3,118.2,172.4z" />
	<path display="inline" fill="#3B2C2A" d="M241.1,442.9c1.6,0.9,3.5,1.4,3.4,3.8C241.6,446.1,241.3,445.8,241.1,442.9z" />
	<path display="inline" fill="#605A54" d="M199.3,291.5c0.2,1.3,0.7,2.6-0.9,3.7c-1.8-0.8-1.2-2.3-1-3.7   C198,291.5,198.6,291.5,199.3,291.5z" />
	<path display="inline" fill="#3C332F" d="M589.1,121.2c-0.9,2.6-0.9,2.6-3.1,3.1C586.5,122.7,587.6,121.8,589.1,121.2L589.1,121.2z   " />
	<path display="inline" fill="#AFA193" d="M421,236.2c-1,1.7-1.4,1.9-2.4,1c0.7-0.9,1.5-1.7,2.2-2.6   C420.8,235.1,420.9,235.6,421,236.2z" />
	<path display="inline" fill="#503026" d="M314.3,415.9c-0.2,2.2-0.2,2.2-3.2,2.7c-0.1-0.5-0.1-0.9-0.2-1.4   C312,416.8,313.1,416.3,314.3,415.9z" />
	<path display="inline" fill="#A1A396" d="M196.2,279.6c-0.5,0.5-1,0.9-1.5,1.4c-0.7-0.5-1.4-1-2.3-1.7   C194.1,278,195.2,278.5,196.2,279.6z" />
	<path display="inline" fill="#3C332F" d="M590.1,117.5c0.3,0.8-0.1,2,1.3,2.3c-0.2,1.3-1.2,1.4-2.2,1.4l-0.1-0.1   C589.1,119.8,588.8,118.4,590.1,117.5z" />
	<path display="inline" fill="#707070" d="M239.7,283.5c0.7,0.4,1.5,0.9,2.3,1.4C240.5,286.5,239.5,285,239.7,283.5z" />
	<path display="inline" fill="#C1E4E3" d="M239.7,283.5c0,0.4,0,0.8,0,1.3c-0.8-0.1-1.5-0.3-2.3-0.4c-0.1-0.3-0.1-0.6-0.1-1   C238.2,283.4,238.9,283.4,239.7,283.5z" />
	<path display="inline" fill="#0C0A09" d="M416.1,235.9c0.4-0.8,0.8-1.6,1.2-2.4C417.4,234.6,417.5,235.6,416.1,235.9z" />
	<path display="inline" fill="#0C0A09" d="M413.7,238.2c0.4-0.3,0.9-0.6,1.3-1c0,0.7,0,1.4,0,2C414.6,238.9,414.2,238.6,413.7,238.2   z" />
	<path display="inline" fill="#503026" d="M310.7,419.4c-0.3,0.5-0.6,1-0.9,1.4C310.1,420.4,310.4,419.9,310.7,419.4z" />
	<path display="inline" fill="#382D2B" d="M437.4,208.7c0.4-0.3,0.9-0.7,1.3-1C438.3,208,437.9,208.3,437.4,208.7z" />
	<path display="inline" fill="#AFA193" d="M421.9,232.2c-0.3,0.5-0.5,1-0.8,1.5C421.4,233.2,421.7,232.7,421.9,232.2z" />
	<path display="inline" fill="#382D2B" d="M429.2,212.3c0.4,0.1,0.8,0.2,1.2,0.2c-0.3,0.3-0.7,0.7-1,1   C429.4,213.1,429.3,212.7,429.2,212.3z" />
	<path display="inline" fill="#382D2B" d="M438.9,207.6c-0.1-0.4-0.1-0.9-0.2-1.3c0.4,0.1,0.8,0.2,1.2,0.3   C439.6,207,439.2,207.3,438.9,207.6z" />
	<path display="inline" fill="#0E0E0A" d="M261.2,336.6c1.8-6.4,1.9-13.3,2.6-19.8c8.1-1.4,1.6,22.9-1.8,26.8   C260.1,341.8,261.3,338.9,261.2,336.6z" />
	<path display="inline" fill="#393121" d="M261,340c0.4,1.2-0.5,2.7,1,3.6c-0.9,2.1-1.8,4.2-2.6,6.4c-1.4,0.7-2.8,1.4-4.1,2.1   c-0.9-0.2-2,0.2-2.3-1.2c1.7-1.2,3.5-2.4,5.4-3.6C259.1,344.9,260.1,342.5,261,340z" />
	<path display="inline" fill="#453826" d="M215.4,393.6c-2.7-0.2-3.8-1.1-4-3.1C213.9,390.8,213.9,390.8,215.4,393.6z" />
	<path display="inline" fill="#B2A76F" d="M196.2,372c1.3,1.5,2.1,3.1,2,6.1c-1.5-2.1-2.8-3.2-3.4-4.9   C195.3,372.8,195.8,372.4,196.2,372z" />
	<path display="inline" fill="#5C573B" d="M196.2,372c-0.5,0.4-0.9,0.8-1.4,1.2c-0.5-1.3-2.3-2.3-1-4.1   C195.6,369.4,195.8,370.8,196.2,372z" />
	<path display="inline" fill="#625036" d="M203.9,382c2.7,0.5,3.4,1.9,3.9,3.8C205.2,384.6,205.2,384.6,203.9,382z" />
	<path display="inline" fill="#989161" d="M252.9,350.9c0.3,1.4,1.4,1,2.3,1.2c-1.3,1.8-3.1,1.1-4.8,1.1l0,0   C251.3,352.4,252.1,351.7,252.9,350.9z" />
	<path display="inline" fill="#4E3525" d="M234.6,355.8c0.1,2.1,0.1,2.1-3,1.9C232.9,356.9,233.7,356.4,234.6,355.8z" />
	<path display="inline" fill="#8E8558" d="M223.1,357.3c1.5-0.5,2.2-0.6,2.1,1.1C224.2,359.3,223.7,358.2,223.1,357.3z" />
	<path display="inline" fill="#989161" d="M250.4,353.2c-0.1,0.3-0.3,0.6-0.4,0.9C249.2,353.2,250.2,353.4,250.4,353.2L250.4,353.2z   " />
	<path display="inline" fill="#FF9A77" d="M328.4,458.5c1.5,0.6,3,1.1,5.1,1.9c-5.3-10.3-8-20.2-15.6-29.2c0.6-4-1.4-10.2,1.2-14.1   c5.3,8.7,12.4,16.3,21.2,21.4c-0.3,1.3-0.6,2.6-0.9,4c0.6,0.1,1.1,0.3,2,0.5c0.1-1.3,0.1-2.4,0.2-3.6c11.6,6.4,24.1,10.7,36.8,14.3   c-5.3,6.3-10.8,12.3-17.5,16.5c-12.6-2.6-26.4-2-37.1-9.3C325.3,460.1,326.9,459.3,328.4,458.5z M333.5,450.3   c-2,0.9-1.3,2.5-1.1,4.6c2-1.8,2.9-3.3,4.1-5.4C335,448.4,334.5,450,333.5,450.3z" />
	<path display="inline" fill="#D9C2B2" d="M357,309.4c1.6-2,3.1-4,4.7-6c0.5,0.5,0.9,1,1.4,1.6c-3.9,7-7.8,14.1-11.8,21.3   c-1.1-0.2-1.9-0.4-3-0.6C350.1,319.5,353.9,314.9,357,309.4z" />
	<path display="inline" fill="#C8B8A9" d="M306.1,384.9c-0.1-0.3-0.1-0.5,0-0.8c4.5,2.6,8.8,5.6,13.1,8.6c0.7,1.7-0.3,2.9-1.2,4.2   C314.7,392.2,309.8,389.2,306.1,384.9z" />
	<path display="inline" fill="#B8A597" d="M363.2,305c-0.5-0.5-0.9-1-1.4-1.6c3.2-4.3,6.3-8.7,9.5-13c0.4,0.4,0.8,0.8,1.2,1.2   C369.3,296.1,366.3,300.6,363.2,305z" />
	<path display="inline" fill="#A09085" d="M372.4,291.7c-0.4-0.4-0.8-0.8-1.2-1.2c3.2-4.3,6.4-8.6,9.6-12.9c0.4,0.4,0.7,0.7,1.1,1.1   C378.9,283.1,376.3,287.9,372.4,291.7z" />
	<path display="inline" fill="#40332F" d="M309.6,388.7c3.5,2,5.8,5.2,8.3,8.3c0.1,1.3,0.5,2.7-1,3.6c-0.8-4.8-6.1-7.9-8.8-11.9   C308.7,388.7,309.1,388.7,309.6,388.7z" />
	<path display="inline" fill="#716860" d="M299,379.1c0.2,1.1,0.4,2.1,0.7,3.4c-3.1-0.1-4.6-4.1-4.1-7c0.7,0.9,1.5,1.7,2.3,2.5   l-0.1-0.1c0.4,0.4,0.9,0.8,1.3,1.3L299,379.1z" />
	<path display="inline" fill="#8A5B48" d="M341.6,439.4c-0.1,1.1-0.1,2.3-0.2,3.6c-0.9-0.2-1.4-0.3-2-0.5c0.3-1.4,0.6-2.7,0.9-4   C340.8,438.8,341.2,439.1,341.6,439.4z" />
	<path display="inline" fill="#3A3935" d="M274.2,374.5c0.1,1.9,0.4,3.9-0.7,5.8c-1.2-1.9-0.5-3.9-0.6-5.8   C273.3,374.5,273.7,374.5,274.2,374.5z" />
	<path display="inline" fill="#F6D9C7" d="M299.1,379.2c-0.4-0.4-0.9-0.8-1.3-1.3C298.2,378.4,298.7,378.8,299.1,379.2z" />
	<path display="inline" fill="#F6D9C7" d="M297.9,378.1c-0.4-0.4-0.8-0.9-1.3-1.3C297,377.2,297.5,377.7,297.9,378.1z" />
	<path display="inline" fill="#4C505E" d="M249.3,561.5c71.3,23.8,153.1,23.3,223.7-1.1c1.7,0.8,0,1.6,0,2.4   c-2.7,1.2-5.5,2.4-8.2,3.6c-2.3,0.4-2.2,3-3.3,3.8c-2.3,1-4.2,1.9-6.1,2.7c0,3.6,0,6.9,0,10.1c-55.4,17.4-116.6,14.9-172.9,4.5   c-1.6-2.5-1.4-5.1-0.8-7.8c21.4,4.4,43.3,3.5,65,2.8c-17.2-2.2-35.2,0.6-52.4-2c-16.4-3.7-31.8-12.2-48.5-16.6   C246.9,563.1,248.1,562.3,249.3,561.5z M382.3,582c18.4,2.6,52.6-1.9,69-10.2C428.4,576.3,405.7,581.9,382.3,582z" />
	<path display="inline" fill="#373A46" d="M252.7,566.4c14.6,3.1,27.3,11.6,41.5,14.1c-0.9,0.1-2,0-2.3,1.2   c-3.4-0.6-6.7-1.3-10.3-1.9c-0.6,2.7-0.8,5.3,0.8,7.8c-26.2-9.4-57.2-15.9-74.7-39c0-3.5,0-7.1,0-10.7c4-5.4,7.9-11.1,13.9-14.4   c-5.7,20,11.8,30.8,27.7,37.9c-1.2,0.8-2.4,1.6-3.6,2.4c-8.6-1.9-15-8.4-22.5-11.8c-6.2-4.4-5.5-11.8-8.8-17.7   c-2.3,8.1,1.5,15.9,8.9,17.6C229.3,559.7,243.3,567.9,252.7,566.4z" />
	<path display="inline" fill="#373A46" d="M455.4,583c0-3.3,0-6.5,0-10.1c1.9-0.8,3.8-1.7,6.1-2.7c1.1-0.8,1.1-3.4,3.3-3.8   c8.2,3.4,28.4-14.8,29.6-23.6c1.7-1.8,6.1-4.6,3.5-7.2c2.5-2.3,3.7-5.6,5.8-8.3C508.4,557.5,482.4,578.1,455.4,583z" />
	<path display="inline" fill="#D3BD9E" d="M104.8,168.5c-0.1,7.2-0.8,14.3-2.4,21.3c-1,0.5-2,1.1-3.1,1.7c-0.9,2.1-1,4.7-2.7,6.6   c-1.4-10.7,1.7-23.2-1.1-33c-5.8-11.4,1.3-39.6,17.6-25.2c-1.5,0.5-3,1.1-5.4,2c1.7,0.4,2.3,0.5,3,0.7c-10.2,4.5-11.1,18.7-10.4,29   C102.6,171.1,103.3,169.9,104.8,168.5z M102.4,143.7c1.9-1.4,3.7-2.7,6.4-4.7C104.6,138.8,103.1,140.8,102.4,143.7z" />
	<path display="inline" fill="#F6E0C0" d="M104.8,168.5c-1.5,1.4-2.2,2.6-4.5,3c-1.5-13.2,2.5-33.6,19.6-28.8c1.9-3,2.9-6,5.2-8.4   c0.7,0,1.4-0.3,2.2-0.1c0.4,0.7,0.8,1.4,1.1,2.1c-0.3,0.2-0.6,0.2-1,0.3c-0.4,0.4-0.8,0.8-1.2,1.2c0,0,0,0,0,0   c-3.5,0.8-2.3,5.2-2.9,7.8c-4.6,0.7-5.9,2.3-5.9,6.6c-2.5,2.1-3.3,3-5.5,6.2c-0.7-5.8,2.1-8.3,4.6-13   C107.6,146.4,108,161.7,104.8,168.5z" />
	<path display="inline" fill="#BDA88C" d="M96.5,198.1c1.7-1.9,1.8-4.4,2.7-6.6c1.1-0.6,2.1-1.1,3.1-1.7   c-0.4,12.2-2.5,24.6,1.4,36.5c-0.5,1.2,0.4,3-1.3,3.7c-4-8.6-4-18.3-3.8-27.5c-0.8-0.1-1.3-0.2-2.1-0.3   C96.5,200.8,96.5,199.4,96.5,198.1z" />
	<path display="inline" fill="#251F1A" d="M96.5,198.1c0,1.3,0,2.7,0,4.1c0.8,0.1,1.3,0.2,2.1,0.3c0,3.6,0,7.3,0,11   c-2.1-1.9,0-4.9-3.1-6.5c-0.1,1.9-0.3,3.7-0.4,6.1c-1.5-1.4-2.4-2.7-2.2-4.5c2.1-13.7,0.9-29.2,2.5-43.6   C98.3,174.9,95.1,187.4,96.5,198.1z" />
	<path display="inline" fill="#C5B194" d="M114.4,246.6c2.4-3.6-0.2-8.2,2-11.8c0.6,12.7,2.2,25-4.5,36.9   C111.4,262.4,111.9,255.2,114.4,246.6z" />
	<path display="inline" fill="#B29F85" d="M105.8,207.6c1.5,9.4,6,20.2,2.7,29.4C108.8,227.3,102,216.8,105.8,207.6z" />
	<path display="inline" fill="#AB9980" d="M95.5,165.1c0.5,7.4-1.5,14.7-1.5,22.1c-3.7-9.9-0.8-22.6,0.1-33.1   C94.7,157.5,92.7,162.6,95.5,165.1z" />
	<path display="inline" fill="#544B3F" d="M91.8,182.7c4.2,7.4,1.6,16.1,0.9,23.9C90.2,199.3,92.6,190.4,91.8,182.7z" />
	<path display="inline" fill="#383129" d="M107.1,161.4c0.4-4.2,1.8-8.1,3.7-11.7c2,1,0.9,3.2,1.1,4.8c-2.1,2.1-1.4,5-2.6,7.5   c1,0.2,1.5,0.3,2.4,0.4c-0.8,1.7-0.6,3.7-2.1,5.2C109,165.3,108.7,163,107.1,161.4z" />
	<path display="inline" fill="#726656" d="M108.5,237c1-1.4,1.2-3.1,1.2-4.8c1.9,6.4,1.4,13.8-0.3,20.2c-0.4,0-0.7,0.1-1.1,0.1   C108.4,247.4,108.4,242.2,108.5,237z" />
	<path display="inline" fill="#87A38C" d="M113.1,139.9c-2.2-3.4-6.2-3.6-9.9-3.5c3.7-1.9,9.1-1.1,13.4,0.1c0,0.4,0,0.7-0.1,1.1   C113.2,137.1,115.8,140.6,113.1,139.9z" />
	<path display="inline" fill="#A19279" d="M105.8,207.6c-1.6,1.8-1.1,4.1-1.2,6.3c-1.7-3.8-1-7.8-0.9-12.4   C105.6,203.6,106,205.5,105.8,207.6z" />
	<path display="inline" fill="#877965" d="M102.5,230c1.7-0.8,0.8-2.5,1.3-3.7c1.6,2.6,0.8,5.6,1.2,8.4c-0.5,0.4-0.9,0.9-1.4,1.3   C103.2,234,102.8,232,102.5,230z" />
	<path display="inline" fill="#726656" d="M108.3,262c-2.5-1.4-1.6-7.6,1.1-8.1C109.9,256.7,109,259.3,108.3,262z" />
	<path display="inline" fill="#51463B" d="M103.6,236c0.5-0.4,0.9-0.9,1.4-1.3c1.5,1.7,1,3.5,0.7,5.6   C104.2,239,103.5,237.7,103.6,236z" />
	<path display="inline" fill="#958671" d="M92.8,206.5c0.1-2-0.2-4.1,1.2-5.8c-0.2,2.7,1.2,5.8-0.9,7.9   C92.9,207.9,92.8,207.2,92.8,206.5z" />
	<path display="inline" fill="#383129" d="M109.4,168.5c-0.3,1.3-0.6,2.5-0.9,3.8C108.3,170.9,107.8,169.4,109.4,168.5z" />
	<path display="inline" fill="#D1C5A9" d="M116.6,137.6c0.1-0.4,0.1-0.7,0.1-1.1C118.7,136.5,118.2,138.2,116.6,137.6z" />
	<path display="inline" fill="#3B312A" d="M125.1,134.4c-0.4,0.4-0.8,0.8-1.1,1.3c-0.1-0.5-0.1-1-0.2-1.4   C124.2,134.3,124.6,134.3,125.1,134.4z" />
	<path display="inline" fill="#E7DAB6" d="M619.9,86.8c-1.6,0-3.1,0-4.6,0c-2.5-1.8-2.5-1.8-3.8-4.6c13.5-12.4,4.1-31,4.9-46.4   C626.2,51.6,622.1,69.6,619.9,86.8z" />
	<path display="inline" fill="#E1DBBF" d="M560.6,86c-1.2-0.8-2-1.3-2.9-2c1.5-3.4,2.9-6.7,4.4-10.3c1.5-0.4,3.1-0.8,5-1.3   C567.1,78.1,563.7,81.6,560.6,86z" />
	<path display="inline" fill="#B7B49C" d="M578.3,47.5c0.8-1.1,1.6-2.3,2.5-3.3l0,0c2.1-1.5,0.7-3.9,1.3-5.9c1.7-1,0.9-2.6,0.9-4   c-0.3-3.3,2.1-5.8,0.8-9.2c-0.4-1,0.5-2.5,1.1-4.7c1.9,4.6,0.2,7.6,0.5,11.9c-2.4,2.6-0.3,6.3-1.3,9.5c-1.7,0.8-0.4,2.4-1,3.5   c-2.5,1,0.4,6.3-3.5,4.7C579.2,49.2,578.7,48.3,578.3,47.5z" />
	<path display="inline" fill="#DEDABE" d="M579.6,53.7c-1.3,1.9-2.6,3.9-4,5.9c-1.6-0.5-2.8-0.9-4.5-1.4c1.1-2.8,2.8-4.8,4.3-7.1   c1.5,0.6,2.8,1.1,4,1.6C579.5,53,579.5,53.4,579.6,53.7z" />
	<path display="inline" fill="#DDDABE" d="M573.4,63.3c-1.3,2.3-2.3,4-3.3,5.9c-1.5-0.2-2.9-0.4-4.7-0.6c0.8-1.9,1.5-3.5,2.3-5.3   C569.3,63.3,571,63.3,573.4,63.3z" />
	<path display="inline" fill="#CFCAB0" d="M586.6,17.7c-1.5-1.7-2.8-4.8-0.4-5.3C587.4,13.7,586.4,15.9,586.6,17.7z" />
	<path display="inline" fill="#B6B099" d="M581.9,39.2c0.1,1.8,0.4,3.6-1.2,4.9C581.1,42.5,581.5,40.9,581.9,39.2z" />
	<path display="inline" fill="#B6B099" d="M584.5,37.7c0.2-1.8-1.1-3.8,0.9-5.3C585.1,34.1,584.8,35.9,584.5,37.7z" />
	<path display="inline" fill="#B6B099" d="M583,34.3c0,1.4,0.8,3-0.9,4C582.4,36.9,582.7,35.6,583,34.3z" />
	<path display="inline" fill="#B6B099" d="M582.1,49.1c0.1-1.3-0.6-2.9,1.1-3.7C582.8,46.6,582.4,47.8,582.1,49.1z" />
	<path display="inline" fill="#B6B099" d="M578.3,47.5c0.4,0.9,0.9,1.7,1.3,2.6C576.9,49.7,576.8,49.5,578.3,47.5z" />
	<path display="inline" fill="#221D1A" d="M583.3,53.8c-0.5,0.7-0.9,1.4-1.4,2.1C581.9,54.9,582.1,54,583.3,53.8z" />
	<path display="inline" fill="#221D1A" d="M584.3,51.3c0,0.8,0,1.6,0,2.5c0,0,0.1-0.1,0.1-0.1c-0.4,0.1-0.7,0.1-1.1,0.2   C583.1,52.8,583.1,51.8,584.3,51.3z" />
	<path display="inline" fill="#221D1A" d="M585.4,47.7c0.2,1.1,0.2,2-0.9,2.7C584.3,49.4,584.2,48.3,585.4,47.7z" />
	<path display="inline" fill="#B6B099" d="M583.3,44.6c-0.1-1-0.4-2.1,0.9-2.7C583.9,42.8,583.6,43.7,583.3,44.6z" />
	<path display="inline" fill="#3B322B" d="M595.1,29.8c0.9-0.3,1.5,0.2,2,0.9c-0.6,0.5-1.2,0.7-1.9,0.6   C595.1,30.8,595.1,30.3,595.1,29.8z" />
	<path display="inline" fill="#B6B099" d="M579.6,53.7c-0.1-0.3-0.1-0.7-0.1-1c0.3,0.1,0.5,0.3,0.8,0.4   C580.1,53.3,579.9,53.5,579.6,53.7z" />
	<path display="inline" fill="#B6B099" d="M580.8,44.1c-0.3,0.4-0.6,0.8-1,1.2C580.1,44.9,580.4,44.5,580.8,44.1z" />
	<path display="inline" fill="#E0C6B5" d="M135.4,493.7c13.2,30.3-5.2,47.3,38.6,43.8c4.3-0.2,8.6-3.5,13-1.2c1.4,0.6,3,1,4.3-0.6   c3-0.5,5-0.3,8.2,0.2c-0.8,1.6-1.4,2.8-2,4.1c-8.8,1.9-17.8-3.6-25.7,0.7c-10.6,2.6-24.3,1.3-32.8-6c-1.9-11-4.2-21.3-7.3-32.6   C132.7,499.8,134,496.7,135.4,493.7z" />
	<path display="inline" fill="#D3BDAD" d="M192.6,529.8c5.5,0,9.6,2.8,15,3.9c-0.4,1.4-0.8,2.7-1.1,3.7c-1.4,0.6-2.5,1-3.5,1.5   c-2.4-8.8-7.9-3.6-13.8-7.5C190.3,530.8,191.5,530.3,192.6,529.8z" />
	<path display="inline" fill="#2F2623" d="M192.6,529.8c-1.1,0.5-2.3,1.1-3.5,1.6c3.2,3,7.7,0.4,10.7,2.7c-1.6,0.6-3.7-0.6-5,1.3   c-5.7,1-10.3-3.5-16.2-2.1c-0.3-1.1-0.4-1.8-0.6-2.5c3-0.4,7,1.2,9.3-1C189.1,529.8,190.9,529.8,192.6,529.8z" />
	<path display="inline" fill="#40A6CA" d="M263.4,534.3c16.8-27,52.8-36.7,82.6-39.1c14.6-1.7,28.8-4.7,43.4-5.8   c6.8-0.7,11.1,5.5,19.4,2.8c-4.2-2-6.2-2.2-10.3-3.2c8.3-3.5,17.4-3.6,26.5-3.4c3.7,6.8,12.1,5.5,18.4,7.3c1.5,1.7,4.4,0.8,6.3,1.9   c1.6-1.7-0.8-1.9-0.7-3.3c4.9,1.2,9.6,2.6,13.5,6.1c-4.4,4.8-11.4,5.7-15.1,10.8c6.4-3,11.8-5.8,17.5-9.7   c5.5,6.4,14,11.3,17.6,18.8c-13.4,11.5-30.1,12.1-46.5,17.3c1.5,0.3,2.1,0.6,2.6,0.5c4.1-1.9,9.7-0.8,13.2-3.5   c11.7-0.8,22.8-5.8,32-12.9c8.2,2.1,13.5,13,8.4,20.2c-1.2,2.1-5.7,2.8-3.8,5.7l0.1,0c-58.6,41.7-171,38.7-236.7,14.2   c2.3-7.9,6.4-14.9,9.5-22.3c8.6,0.2,16.8,4.1,25.3,3.1c0-0.2,0-0.4,0-0.7C278.8,537.5,270.6,537.7,263.4,534.3z" />
	<path display="inline" fill="#2D8FB9" d="M261.1,536.7c-3,7.5-7.2,14.5-9.5,22.3c-16.4-5.2-35.7-19.6-25.8-38.6c0.9,0,1.5,0,2.1,0   c7.7,10.3,21.1,13.3,33.1,15.3C261,536,261.1,536.4,261.1,536.7z" />
	<path display="inline" fill="#0F2631" d="M260.9,535.7c-12-2-25.4-4.9-33.1-15.3c0-0.5,0-1,0-1.4c9.5,9.2,21.6,12.9,34.2,15.5   C261.7,534.9,261.3,535.3,260.9,535.7z" />
	<path display="inline" fill="#20343E" d="M261,562.9c3.2,0.8,6.3,1.6,9.5,2.4c0.1,0.7,0,1.4,0.1,2.1c-3.6-1-7.3-1.7-10.7-3.5   C260.3,563.6,260.6,563.2,261,562.9z" />
	<path display="inline" fill="#A0A89B" d="M187.3,529.8c-2.7,2.1-7.2,0.7-10.6,0.8C179.9,528.4,183.8,529.8,187.3,529.8z" />
	<path display="inline" fill="#2D8FB9" d="M225.9,515c0.2-0.5,0.4-1,0.6-1.5C226.8,514.2,226.9,514.8,225.9,515z" />
	<path display="inline" fill="#534943" d="M402,251.3c-2,2.7-3.8,5.7-6.7,8.4c0.8-3.6,1-4,5.6-9.5C401.3,250.6,401.6,251,402,251.3z   " />
	<path display="inline" fill="#42413C" d="M402,251.3c-0.4-0.4-0.7-0.7-1.1-1.1c1.1-2.1,2.6-3.7,4.6-4.7   C407.1,247.2,402.8,249.6,402,251.3z" />
	<path display="inline" fill="#655C55" d="M381.9,278.6c-0.4-0.4-0.7-0.7-1.1-1.1c0.7-2,2.3-3.3,4.5-5   C385.1,275.6,383.1,276.9,381.9,278.6z" />
	<path display="inline" fill="#E0C6B6" d="M120.5,434.6c-0.5,0.1-1,0.2-1.5,0.2c-0.4-0.6-0.9-1.2-1.5-2.1   c-11.1,40.9-10.7,83.2-9.9,124.8c-6.2,20.9,21.3,20.5,34,16.9c10.7,0.4,20.6,3,30.5,7.8c-89-4.6-72.4,1.7-70.8-83.4   c0.5-0.1,0.9-0.1,1.4-0.2c4.5-24.3-0.1-52.4,11.5-75.5c0.8,1.9,1.7,3.6,3.6,4.6C118.7,430,119.6,432.3,120.5,434.6z" />
	<path display="inline" fill="#939087" d="M102.7,498.6c-0.5,0.1-0.9,0.1-1.4,0.2c0.1-1.1,0.1-2.1,0.2-3.2c0.2,0,0.4,0,0.6-0.1   C102.3,496.6,102.5,497.6,102.7,498.6z" />
	<path display="inline" fill="#E8D1BF" d="M164.2,572.1c7.5,1.4,13.9,4.4,21.4,6.5c-0.1,0.8-0.1,1.7-0.2,2.8   c-9.3,2.1-16.3-5.9-25.1-8C161.2,571.5,163,572.6,164.2,572.1z" />
	<path display="inline" fill="#99A395" d="M164.2,572.1c-1.3,0.5-3-0.5-3.8,1.3c-4.9-1.8-10.2-1.1-15.3-1.4c1.5-0.7,3-1.3,4.6-1.9   C154.4,571.5,159.9,570.2,164.2,572.1z" />
	<path display="inline" fill="#F6D9C7" d="M172,202c0.2-1.7,0.3-2.6,0.1-4.5c-2.6-0.2-4.2-3-7.1-3.1c-0.2-1.2,0.9-2.8-1.2-3.4   c-1.9,0.1-1.5,2.8-3.5,3.5c-0.6-3.3-1.1-6.2-3.2-8.4c0.3-0.3,0.7-0.7,1-1c1.1,1.1,2.1,2.1,3.3,3.3c1.1-1.6,3.4-2.1,3.7-4.3   c-0.6-1.1-1.2-2.1-1.5-2.6c0.8-1.7,1.4-3,2.1-4.2c-1.2-1.5-2.1-2.7-3.1-4c2.9-0.2,4.5,1.6,7.9,2.8c6.7-9,9.9-19.4,13.3-29.6   c-0.9-0.2-1.4-0.3-2-0.4c-0.9-2.9,2.3-3.6,3.6-6.2c-2.4,0.6-4.2,2-5.9,0.4c0-0.4,0-0.7,0-1.1c0.8-0.7,1.6-1.4,2.5-2.2   c-3.3-1.8-1.9,2.3-7.2-1.3l0-0.5c3.4,0.4,6-0.1,9.1-1.8c-2.2-0.6-4-1.1-5.7-1.6c3.2-0.2,6.7,0.6,9.6-1c1.8,0.1,5.1,2.4,5.8-0.2   c2.1-0.5,4.5-0.4,4.8-3.4c0.7,0.3,1.4,0.5,2.4,0.9c0-0.9,0-1.6,0-2.3c2.9-0.5,5.9,1.7,8.3-1.2c1.5,0.8,2.8,0.4,4.1-0.5   c0.8,0.8,1.6,1.5,2.3,2.2c0.7-0.1,1.2-0.2,1.8-0.3l0-0.1c4.9,8.8,6,18.7,9.4,28.8c-5.7,10.9,4.6,21,10.8,29.2   c-4,3.4-9.1,3.5-14.4,4.8c1.6,1,2.8,1.8,4.9,3.2c0.3,1,0.8,3,1.3,4.7c-2.7,4.7-8.6,1.5-10.6,5.8c1.7,3.4,8.1,0.1,8.2,5.3   c-3.3,4,0.2,8.9-1.5,13.4c-0.7,0.6-1.5,1.2-2.2,1.7C208.4,224,176.8,217.5,172,202z M209.1,169.5c0.3,1.5,1.4,1.4,2.5,1.3   c1.8,0.2,3.3,2.2,4.9,1.3c0.6-3.6,1.3-6.8,3.1-9.7c2-0.4,2.7-1.9,3.6-4.3C219.9,159.9,195,170.2,209.1,169.5L209.1,169.5z    M224.1,152.3c-5.1-3.9-12-1.2-17.8,1.9C212.8,155.4,218.2,152.1,224.1,152.3z" />
	<path display="inline" fill="#1B1713" d="M217.2,126c-0.6,0.1-1.1,0.2-1.8,0.3c-0.7-0.7-1.5-1.5-2.3-2.2c-1.3,0.9-2.6,1.4-4.1,0.5   l0.1,0.1c-3.9-8.5-16.3-11.1-24.9-13.3c6.7-5.6,16.5,6.7,20.4,2.4c2.1,0.7,3.8,2.6,5.7,3.8l-0.1-0.1c0.4,0.4,0.8,0.8,1.2,1.2   l-0.1-0.1c0.4,0.9,0.7,1.3,1.2,0.1C215,120.6,216.8,122.8,217.2,126z" />
	<path display="inline" fill="#B1AC93" d="M205.4,114.1c-0.3-0.2-0.6-0.3-0.9-0.3c0,0-0.1,0.1-0.1,0.1c-1.1-0.9-2.2-2.2-3.6-2.6   c-1.2-1.7-2.9-2.3-4.9-2.1l0.1,0.1c-0.2-0.3-0.5-0.6-0.7-0.9c-0.2,0.4-0.4,0.8-0.8,1.1c-5.2-4.1-12.1-2.6-18.9-2.8   c10.1-3.1,22.8-0.9,31,6.1C206.2,113.3,205.8,113.7,205.4,114.1z" />
	<path display="inline" fill="#515347" d="M205.4,114.1c0.4-0.4,0.8-0.8,1.2-1.3c2,1,3.4,2.4,3.6,4.8   C208.6,116.4,207,115.3,205.4,114.1z" />
	<path display="inline" fill="#1B1713" d="M218.4,128.3c-0.4-0.8-0.9-1.5-1.3-2.3C218.5,126.2,218.5,127.2,218.4,128.3z" />
	<path display="inline" fill="#515347" d="M211.4,118.8c-0.4-0.4-0.8-0.8-1.2-1.2C210.6,118,211,118.4,211.4,118.8z" />
	<path display="inline" fill="#515347" d="M212.5,118.8c-0.5,1.3-0.8,0.9-1.2-0.1C211.7,118.7,212.1,118.8,212.5,118.8z" />
	<path display="inline" fill="#EBDABA" d="M175.6,106.8c6.8,0.2,13.7-1.3,18.9,2.8c-0.7,0.4-1.5,0.7-2.2,1.1c-6-0.7-14-3.7-18.8,1.1   l0.1-0.1c-3,0-6,0.2-8.4,2.4l0.1,0c-6.9-0.7-13.6,6.9-20.2,2.3C154.3,111.5,165.4,109.3,175.6,106.8z" />
	<path display="inline" fill="#3B312A" d="M127.8,131.9c-2.6-1.6,1-5.3,3.1-6c0.6,2.8,3.6-0.5,4.9-1.1c2.5-1,4.9-2.3,7.4-3.5   c0.3,0.1,0.5,0,0.7-0.3c1.5-0.4,2.9-0.8,4.4-1.3c0.5,0.4,1,0.8,1.5,1.2c-6.9,3.2-14.3,5.7-20.2,10.8l0-0.1   C128.9,131.7,128.4,131.8,127.8,131.9z" />
	<path display="inline" fill="#EBDABA" d="M141.5,122.2c-0.2,0.3-0.5,0.4-0.9,0.3c-1.6,0.8-3.2,1.8-4.8,2.4   c-0.5-0.4-0.9-0.9-1.4-1.3c0.4-0.3,0.8-0.6,1.2-0.9c0.5-1,2.3,0,2.2-1.7l-0.1,0.1c1.6-1.4,3.3-2.3,5-3.4c1.6,0.7,1,2.2,1.1,3.4   c-0.2,0.3-0.4,0.4-0.7,0.3C142.6,121.6,142.1,121.9,141.5,122.2z" />
	<path display="inline" fill="#E3D5B6" d="M143.9,121c-0.1-1.2,0.5-2.7-1.1-3.4c0.8-0.4,1.5-0.8,2.3-1.3c2,1.8,4.7,1.2,7.2,1.3   C149.6,119.2,146.8,120.3,143.9,121z" />
	<path display="inline" fill="#E3D5B6" d="M134.4,123.5c0.5,0.4,0.9,0.9,1.4,1.3c-1.3,0.6-4.3,3.9-4.9,1.1   C132,125.1,133.2,124.3,134.4,123.5z" />
	<path display="inline" fill="#D1C0A2" d="M127.8,131.9c0.6-0.1,1.1-0.2,1.7-0.3c-0.1,1.3-1.2,1.3-2.1,1.5l-0.1-0.1   C127.4,132.6,127.6,132.3,127.8,131.9z" />
	<path display="inline" fill="#D1C0A2" d="M127.3,134.2c-0.4,0-0.7,0-1.1,0c0-0.4,0.1-0.7,0.1-1.1c0.3-0.1,0.6-0.2,1-0.1   c0,0,0.1,0.1,0.1,0.1C127.3,133.5,127.3,133.8,127.3,134.2z" />
	<path display="inline" fill="#E3D5B6" d="M135.5,122.6c-0.4,0.3-0.8,0.6-1.1,0.9C134.8,123.2,135.2,122.9,135.5,122.6z" />
	<path display="inline" fill="#E3D5B6" d="M142.7,117.6c-0.5,0.3-1,0.7-1.5,1C141.6,118.3,142.2,118,142.7,117.6z" />
	<path display="inline" fill="#E3D5B6" d="M140.3,119.1c-0.4,0.3-0.8,0.6-1.2,0.8C139.5,119.6,139.9,119.3,140.3,119.1z" />
	<path display="inline" fill="#E3D5B6" d="M139.1,119.9c-0.5,0.4-0.9,0.7-1.4,1.1C138.2,120.6,138.6,120.3,139.1,119.9z" />
	<path display="inline" fill="#E3D5B6" d="M137.8,120.9c-0.1,0.9-0.7,1.3-1.6,1.2C136.7,121.7,137.3,121.3,137.8,120.9z" />
	<path display="inline" fill="#3B312A" d="M126.3,133.1c0,0.4-0.1,0.7-0.1,1.1c-0.4,0.2-0.7,0.2-1.1,0.2   C125.5,133.9,125.9,133.5,126.3,133.1z" />
	<path display="inline" fill="#4A4F5D" d="M494.5,534.4c0-0.4,0-0.8-0.1-1.3c2-3.5,1.7-9.5,0-13.1c0-0.3,0-0.6,0-0.9   c0.4-0.1,0.7-0.2,1.1-0.3c2.7,1.8,5.4,3.6,8.2,5.5c0,1,0,1.9,0,2.9C501.2,529.9,498.9,539,494.5,534.4z" />
	<path display="inline" fill="#191A1F" d="M494.5,520c1.7,3.6,1.9,9.6,0,13.1c-0.5-2.8-1.7-5.5-1.1-8.3   C495.3,523.6,493.9,521.6,494.5,520z" />
	<path display="inline" fill="#191A1F" d="M495.6,518.8c-0.4,0.1-0.8,0.2-1.1,0.3c0.1-0.3,0.3-0.6,0.4-1   C495.1,518.3,495.3,518.6,495.6,518.8z" />
	<path display="inline" fill="#C2AA9B" d="M226.9,207.8c-0.1-5.2-6.5-1.9-8.2-5.3c2.8,1.5,5.4-0.4,8.3-0.7   C228.2,204,228.6,205.9,226.9,207.8z" />
	<path display="inline" fill="#231F1D" d="M117.8,427.7c-1.9-1-2.8-2.7-3.6-4.6c0.2-1.3-0.5-2.9,1.2-3.7   C117.6,421.7,117.8,424.9,117.8,427.7z" />
	<path display="inline" fill="#D8D1C0" d="M178.1,573.4c0.4-1.7,1.1-1.5,2.5-0.1C179.5,573.4,178.8,573.5,178.1,573.4z" />
	<path display="inline" fill="#E1C7B6" d="M429.2,231.1c-0.4-1.5-0.8-2.9-1.2-4.5c3.4-6.2,13.4-16.7,20-9.7c-0.9,2.3-3.1,3.9-4.7,6   c-0.4-0.9-0.9-1.5-2.1-0.3c0.9,0.1,1.5,0.2,2.2,0.3c-0.2,0.3-0.4,0.9-0.6,0.9c-2,0-2.8,1.6-3.9,2.8c-1-2.5-3.8,0.4-1.3,1.4   c-1.6,1.5-3.2,3-4.7,4.5C433.3,229.6,430.9,231.1,429.2,231.1z" />
	<path display="inline" fill="#51443E" d="M477.6,225c-1.3,0.2-2.2,1.5-3.4,0.6c1.9-3.8,6.2-6.1,9.5-8.6c0.4,0.4,0.9,0.9,1.3,1.3   C482.5,220.5,480,222.7,477.6,225z" />
	<path display="inline" fill="#746760" d="M498.7,204.8c-1.4,3-3.2,5.5-6.5,7.3C492.9,208.9,492.9,208.9,498.7,204.8z" />
	<path display="inline" fill="#AA958A" d="M484.9,218.2c-0.4-0.4-0.9-0.9-1.3-1.3c1.4-2.5,4.2-2.8,6.3-5.7   C490.5,215.3,487,215.6,484.9,218.2z" />
	<path display="inline" fill="#655A53" d="M429.2,231.1c1.7-0.1,4.1-1.5,3.6,1.3c-2.3,1-2.3,1-4.7,0.7   C428.5,232.4,428.9,231.7,429.2,231.1z" />
	<path display="inline" fill="#A59186" d="M508.9,195.4c-1,1-1.8,1.9-2.8,2.9C505.3,195.4,505.8,194.9,508.9,195.4z" />
	<path display="inline" fill="#60504A" d="M451.5,211.1c0.4-1.7,0.7-3.4,3.7-3.7c-0.9,1.6-1.5,2.7-2.1,3.8   C452.5,211.2,452,211.2,451.5,211.1z" />
	<path display="inline" fill="#A1968A" d="M451.5,211.1c0.5,0,1.1,0.1,1.6,0.1c-0.5,1-0.9,1.9-1.7,3.4   C450.3,213,450.1,212.1,451.5,211.1z" />
	<path display="inline" fill="#A28C81" d="M437.6,227.9c-2.5-0.9,0.3-3.8,1.3-1.4C438.4,227,438,227.4,437.6,227.9z" />
	<path display="inline" fill="#AFA193" d="M424.6,236c-0.4-0.4-0.9-0.9-1.3-1.3C424.4,232.6,426.3,234.3,424.6,236z" />
	<path display="inline" fill="#AFA193" d="M423.2,234.8c-0.4,0.3-0.8,0.5-1.2,0.8C422.4,235.3,422.8,235,423.2,234.8z" />
	<path display="inline" fill="#332421" d="M149.6,279.8c1.5-3.6,5.1-6.2,8.9-7c2.2,3.5-5.4,4.9-7.3,7.1c-0.4-0.1-0.7-0.2-1.1-0.3   L149.6,279.8z" />
	<path display="inline" fill="#26201D" d="M192.4,321.3c0.8-0.8,1.6-1.6,2.4-2.4c1.4,0.3,1,1.4,1.2,2.3c-1.6,2.3-2.6,5.2-5,6.7   C187.9,326.6,191.6,323.2,192.4,321.3z" />
	<path display="inline" fill="#372A27" d="M139.2,421.7c0-1.7,0-3.3,0-5c3.2,2,3,3.4,1,5.6C139.9,422.1,139.5,421.9,139.2,421.7z" />
	<path display="inline" fill="#2B221F" d="M138.2,410.3c0.5-1.3,1-2.6,1.7-4.4C140.7,408.3,140.9,409.9,138.2,410.3z" />
	<path display="inline" fill="#584D46" d="M148.4,290.2c-0.9,0.8-1.7,1.5-3.2,2.8c0.1-2.1,0.1-2.7,1.4-3.8c0.6,0.1,1.2,0.2,1.8,0.3   C148.4,289.7,148.4,289.9,148.4,290.2z" />
	<path display="inline" fill="#9B887D" d="M149.6,283.2c-0.5,0-1.1,0-2.2,0c0.9-1.4,1.6-2.3,2.2-3.3l0.5-0.2   C149.8,280.8,149.7,282,149.6,283.2z" />
	<path display="inline" fill="#E1C7B6" d="M186.8,332.1c-0.4,0.4-0.9,0.9-1.3,1.3C185.4,332.6,185.8,332.1,186.8,332.1z" />
	<path display="inline" fill="#534D46" d="M149.8,281.3c0.1-0.5,0.2-1.1,0.3-1.6c0.4,0.1,0.7,0.1,1.1,0.3   C150.7,280.4,150.3,280.8,149.8,281.3z" />
	<path display="inline" fill="#010101" d="M577.6,124c1.6-3.4,3.4-6.5,6.1-8.8C587.1,118.2,579.8,122.2,577.6,124z" />
	<path display="inline" fill="#998479" d="M470.5,232.6c0.2-3.4,0.2-3.4,2.6-2.6C472.2,230.9,471.4,231.7,470.5,232.6z" />
	<path display="inline" fill="#4B3E39" d="M567.8,134.7c0.2-3.1,1.2-4.3,3.3-5.2C571.5,132.4,570.1,132.3,567.8,134.7z" />
	<path display="inline" fill="#85756C" d="M564.4,138.7c-0.8,0.9-1.5,1.8-2.7,3C562,138.7,562,138.7,564.4,138.7z" />
	<path display="inline" fill="#B19B8E" d="M559.6,144.7c-0.4,0.7-0.9,1.4-1.4,2.2C557.4,145.4,557.4,145.4,559.6,144.7z" />
	<path display="inline" fill="#4C3D38" d="M589.3,111.5c0,1.4-0.8,2.9-1.8,1.1C588,112,587.7,110.2,589.3,111.5z" />
	<path display="inline" fill="#1E4352" d="M451.9,530.9c10.9-2.4,21.9-6,30.6-13.3c0.4,0,0.8,0,1.2,0l0.2,0.2c0,0.4-0.1,0.8-0.1,1.2   c-9.3,7.1-20.4,12.2-32,12.9C451.8,531.5,451.8,531.2,451.9,530.9z" />
	<path display="inline" fill="#162E38" d="M443.4,493.1c-5.2-1.4-10.7-1.2-15.6-3.7c4.5-3.2,11.9,2.2,18.3,2.7   C444.6,492.6,444,492.9,443.4,493.1z" />
	<path display="inline" fill="#102129" d="M398.5,489.1c4,1,6,1.2,10.3,3.2c-5.8,1.4-9.7-0.3-13.7-1.9   C395.6,488.4,397.3,489.5,398.5,489.1z" />
	<path display="inline" fill="#174153" d="M258,508.8c-7.9-0.9-11.2-2.8-14.7-8.3C248.5,504.4,253.1,507,258,508.8z" />
	<path display="inline" fill="#16323F" d="M281.2,482.7c-6,1.6-10.1-1.2-14.5-0.9C271.8,481,276.5,479.8,281.2,482.7z" />
	<path display="inline" fill="#1D485A" d="M456.5,502.4c3-2.3,5.7-5,9.4-6l0.1,0.1c-0.4,0.8-0.7,1.6-1.1,2.4   c-2.9,1.4-5.1,4.2-8.4,4.8C456.5,503.3,456.5,502.8,456.5,502.4z" />
	<path display="inline" fill="#143949" d="M431.1,479c3.7-1,7.7-0.3,11.5,0C438.8,480.3,435,479.8,431.1,479z" />
	<path display="inline" fill="#205467" d="M260.9,535.7c0.4-0.4,0.8-0.8,1.2-1.2c0.4-0.1,0.9-0.1,1.3-0.2c2.6,1.2,5.3,2.3,8.2,2.4   c0.1,0.4,0.1,0.7,0,1.1c-3.5-0.3-7.1-0.7-10.6-1.1C261.1,536.4,261,536,260.9,535.7z" />
	<path display="inline" fill="#1E5E79" d="M483.7,517.6c1.1-1.5,2.2-3,3.7-4.9c-0.5,3.9-0.5,3.9-3.5,5.2L483.7,517.6z" />
	<path display="inline" fill="#1D485A" d="M465.9,496.4c0.2-0.3,0.4-0.5,0.6-0.8C467.2,496.4,466.3,496.3,465.9,496.4L465.9,496.4z" />
	<path display="inline" fill="#221D1A" d="M584.3,53.8c4.5-3.3,10.3-3.6,14.6,0.2c-3.8,4.5-8.6,2.7-13,3.5c-0.5-1.4-1-2.7-1.5-3.9   L584.3,53.8z" />
	<path display="inline" fill="#2C2520" d="M589.7,47.9c-0.8-0.9-1.3-1.5-1.8-2c2.5-3.7,4.2-4,8.5-1.1   C594.2,45.8,592.2,46.8,589.7,47.9z" />
	<path display="inline" fill="#030504" d="M251.6,401.7c0.3,0.2,0.6,0.3,1,0.1c-0.4,2.2-6.2,3.7-7.5,1.6   C246.9,401.1,249.6,402.6,251.6,401.7z" />
	<path display="inline" fill="#422C29" d="M256.3,402.9c2-0.9,3.9-2.5,6.8-1.1c-0.8,0.8-1.5,1.5-2.1,2.1   C259.3,404.3,257.4,405.4,256.3,402.9z" />
	<path display="inline" fill="#5D4741" d="M251.7,388.7c1.1,0,2.2,0.1,3.2,0.1c0.3,0.5,0.6,1,0.8,1.5   C253.3,391.5,253.3,391.5,251.7,388.7z" />
	<path display="inline" fill="#503026" d="M311.6,454.8c-3.4-11-3.8-25.6,1.8-34.9C311.9,431.3,311.4,442.8,311.6,454.8z" />
	<path display="inline" fill="#FD9876" d="M324.1,457.5c-3.6-2.5-5.2-11.4-4.4-15.7c3.1,4.8,5.9,9,8.7,13.4   C326.9,456,325.7,457.1,324.1,457.5z" />
	<path display="inline" fill="#2C1A14" d="M307.5,436.4c-2.2,7-1.4,13.3-4.5,20.2c-1.3-8.9,1.1-15,3.3-22.7   C306.7,434.7,307.1,435.5,307.5,436.4z" />
	<path display="inline" fill="#B3674F" d="M303.7,464.5c0.6-0.1,1.1-0.2,2.1-0.4c-0.1-1.7-0.3-3.4-0.5-6.3c3.7,4,3.1,7.8,3.1,12.9   c-1.3-3.1-2.9-4.4-4.9-5.2C303.6,465.2,303.7,464.9,303.7,464.5z" />
	<path display="inline" fill="#301B15" d="M303.7,464.5c0,0.3,0,0.7-0.1,1c-2.8-0.1-5.4-0.6-7.1-3   C297.9,458,301.7,463.1,303.7,464.5z" />
	<path display="inline" fill="#60372B" d="M324.1,457.5c0.3,0,0.6-0.1,0.9-0.3c1.2,0.2,2.7-0.4,3.4,1.3c-2.2,1.1-4.3,2.4-6.6,3.2   C320.3,459,323.3,458.9,324.1,457.5z" />
	<path display="inline" fill="#4E3629" d="M318.1,462.7c-2.4,0.4-3.9,2-6.1,0.8C315,460.9,315,460.9,318.1,462.7z" />
	<path display="inline" fill="#5E362A" d="M307.5,436.4c-0.8-1.7-2.3-4.1,0.7-4.7C308.7,433.4,308.9,434.9,307.5,436.4z" />
	<path display="inline" fill="#2E2623" d="M275.3,393.4c-0.8-1.8-2.6-3.5-0.9-5.4c2,1,2.1,2.5,2.4,4   C276.3,392.5,275.8,393,275.3,393.4z" />
	<path display="inline" fill="#4A3E3A" d="M280.3,395.8c2.5,1.4,2.1,3.4,1.9,6.3C280.7,399.8,279,398.5,280.3,395.8z" />
	<path display="inline" fill="#988277" d="M309.6,388.7c-1.9,0.4-6.7-1.9-3.6-3.8C307.3,386.2,308.4,387.5,309.6,388.7z" />
	<path display="inline" fill="#7E776E" d="M275.3,393.4c0.5-0.4,1-0.9,1.5-1.3c0.3,1,0.7,2,1.1,3.1   C276,395.6,275.7,394.4,275.3,393.4z" />
	<path display="inline" fill="#73655E" d="M290.9,424.5c1.1-0.1,2.3-0.1,3.4-0.2c-0.1,0.5,0,1-0.1,1.4   C293.1,425.3,292,424.9,290.9,424.5z" />
	<path display="inline" fill="#744D48" d="M287.5,426c0.4-0.2,0.9-0.3,1.3-0.5c0.1,0.3,0.2,0.5,0.3,0.8c-0.5,0-1,0.1-1.5,0.1   C287.6,426.2,287.6,426.1,287.5,426z" />
	<path display="inline" fill="#0A090A" d="M149.7,530.7c-0.1,0.3-0.1,0.6-0.2,0.9c-0.2-0.2-0.4-0.3-0.5-0.5   C149.3,531,149.5,530.9,149.7,530.7L149.7,530.7z" />
	<path display="inline" fill="#34302C" d="M117.8,427.7c0-0.4,0-0.9,0.1-1.3c1.2,0.8,2.4,1.5,3.5,2.5c-0.2,1.9,0.9,4-0.8,5.6   C119.6,432.3,118.7,430,117.8,427.7z" />
	<path display="inline" fill="#28201E" d="M122.4,444.4c0-1.8-0.9-3.8,0.7-5.9C124,440.9,124.9,442.8,122.4,444.4L122.4,444.4z" />
	<path display="inline" fill="#423632" d="M131.2,354.4c1.9,0.9,2.1,2.3,1.8,4.2C131,356.3,131,356.3,131.2,354.4z" />
	<path display="inline" fill="#5D4842" d="M134.6,367.9c0-0.8,0-1.6,0-2.4c0.2,0,0.4,0,0.7,0c0,0.8,0,1.6,0,2.4   C135,367.9,134.8,367.9,134.6,367.9z" />
	<path display="inline" fill="#E0C6B6" d="M121.3,429c-0.5-0.4-0.9-0.8-1.4-1.2C120.4,428.2,120.9,428.6,121.3,429z" />
	<path display="inline" fill="#534D46" d="M150.9,277.4c-0.3,0.4-0.5,0.8-0.8,1.2C150.4,278.2,150.7,277.8,150.9,277.4z" />
	<path display="inline" fill="#2B2421" d="M168.9,209.7c1.2,1.6,2.4,3.2,3.5,4.7c-0.5,0.5-1,1-1.5,1.5c-1.1-1.3-2.2-2.5-3.3-3.8   C167.6,211.1,167.4,210,168.9,209.7z" />
	<path display="inline" fill="#827067" d="M168.9,209.7c-1.5,0.3-1.3,1.4-1.3,2.5c-0.5-0.3-0.9-0.7-1.4-1c-0.2-2.2-0.5-4.4-0.7-6.7   C168.4,205.2,168.7,207.5,168.9,209.7z" />
	<path display="inline" fill="#4B423D" d="M170.9,216c0.5-0.5,1-1,1.5-1.5c1.6,1.2,2.4,2.7,3.2,4.7c-2.3,0.6-3-1.6-4.5-2   C171,216.7,170.9,216.3,170.9,216z" />
	<path display="inline" fill="#A79185" d="M161.1,230.9c-1.6-1.7-1.6-1.7-1.6-4.1C161.4,227.8,162,229,161.1,230.9z" />
	<path display="inline" fill="#1B1614" d="M157,186.1c2.1,2.2,2.7,5.1,3.2,8.4c2-0.7,1.6-3.4,3.5-3.5c2.1,0.6,1,2.2,1.2,3.4   c-8.2,11.1-6.8-7.9-14-9.4c-1.8,0.4-0.6,2.4-2,3.3c-0.4-2-0.7-3.8-0.4-5.8c1.4-0.2,1.1-1.2,1-2.1c0.1-6.1,3.2-10.8,7.9-14.3   c1.2,0.5,2.1,0.8,2.9,1.2c0.8,1.2,1.6,2.3,2.4,3.5c-1.7-0.7-3.4-1.5-5.2-2.3c-1.8,1.6-2.9,3.5-3.2,5.9c-3.6,1-3.4,7.1,0,8.3   l-0.1-0.1C154.4,184.5,155.4,185.5,157,186.1z" />
	<path display="inline" fill="#302724" d="M172,202c1.9,10.1,11.9,10.7,19,15c-10,2.7-23.2-7.4-20.9-19.1   C171,199.7,171.5,200.9,172,202z" />
	<path display="inline" fill="#53443A" d="M146.6,200.2c-1.4-2.1-2.7-4.3-4.2-6.7c-6.6,0.6-11.3-7.5-14-12.6   c0.2-0.1,0.4-0.2,0.6-0.4c3.5,3.8,6.9,7.6,10.4,11.4c1-0.2,1.8-0.3,2.8-0.5c2.8,3.1,11.3,9.1,8.6,13.5   C150,202.8,148.5,201.4,146.6,200.2z" />
	<path display="inline" fill="#4A3E39" d="M178.7,220.7c1,1.5,1.9,2.6,2.7,3.9C178.9,225.7,177.7,223.3,178.7,220.7z" />
	<path display="inline" fill="#B0998C" d="M187.2,230.3c0.5,0.6,0.9,1,1.7,1.9C186.9,232.3,186.3,232,187.2,230.3z" />
	<path display="inline" fill="#8A7369" d="M196,321.2c-0.1-0.9,0.2-2-1.2-2.3c0.5-1.3,1.1-2.4,3.2-2   C197.2,318.3,197.8,320.2,196,321.2z" />
	<path display="inline" fill="#100D0A" d="M123.4,149.6c0.6-0.1,1.2-0.2,1.8-0.3c1.3,0.7,2.5,1.5,3.7,2.4c0.3,0,0.6,0.1,0.8,0.4   c-0.7,0.5-1.4,1-2.5,1.7c6,4.1,10.7,9,17.6,11.4c-0.7,1.5-2.2,0.6-3.3,1c-0.3-0.1-0.7-0.2-1-0.2c-1.7-1.3-3.7-1.8-6-1.5   c2.1,1.6,4.1,3.3,5.9,5.2c-0.4,0.4-0.8,0.8-1.2,1.2C130.7,166.9,124.4,159,123.4,149.6z" />
	<path display="inline" fill="#40352C" d="M146.3,193.3c-6.2-8.2-14.7-14.2-20.6-22.6c0.7-0.4,1.1-0.7,1.5-1   c7,8.3,15.8,14.8,22,24.1C148.1,195.1,147.3,193.4,146.3,193.3z" />
	<path display="inline" fill="#C6B295" d="M149.6,180.5c0.1,0.9,0.4,1.9-1,2.1c-1.7-2.3-3-5-5.3-6.7c-0.4,0.4-0.7,0.7-1,0.9   c-0.3,0-0.6,0-0.9-0.1c-0.1-0.4-0.2-0.6-0.7-0.6c2.1,1.9,3.6,4.3,5.2,6.6c-4.1-0.8-6.8-3.2-7.9-7.1c0.8-1.2,1.4-2.2,2.1-3.2   c2.7,1.2,5.5,2.4,8,3.5C148.7,177.7,148.1,179.5,149.6,180.5z" />
	<path display="inline" fill="#574C40" d="M149.6,180.5c-1.6-1-0.9-2.7-1.4-4.5c-2.8-1.6-7.1-2.2-9.2-5c0.4-0.4,0.8-0.8,1.2-1.2   c3.4,1.7,6.5,4.3,10.4,4.3C150.3,176.2,150,178.3,149.6,180.5z" />
	<path display="inline" fill="#5A4B3F" d="M142.4,176.8c0.3-0.2,0.5-0.5,1-0.9c2.3,1.7,3.5,4.4,5.3,6.7c-0.1,0.9-0.1,1.8-0.2,2.7   C146.1,182.8,143.5,180,142.4,176.8z" />
	<path display="inline" fill="#15100E" d="M294.3,425.2c0-0.3,0-0.6,0-0.9c2.6-0.3,5.1-1.6,7.7,0.1   C299.6,425.7,299.6,425.7,294.3,425.2z" />
	<path display="inline" fill="#D7C0A0" d="M150.7,174.1c-4.8-0.4-9.4-3.4-12.8-6.7c3-3.5,8.3,1.8,12.9-0.1   c-5.6-2.5-11.8-3.6-16.4-8.1c0.5-0.5,0.9-0.9,1.4-1.4c6.6,1.7,12.6,7.4,19.3,6.3c-12-5.4-23.8-9.5-33.8-18c0.6-0.1,1.1-0.3,2.1-0.5   c0.6-2.6-0.7-7,2.9-7.8c4.2,2.7,10.9-3.1,16.3-1.3c1.7,0.2,2.6-0.6,2.5-2.3c9.4,4.3,19.7,4.4,29.8,4.9c-0.7,0.6-1.3,1.1-2.4,2   c2.7,0.3,4.4-0.5,5.7-2c0.4,0,0.8,0,1.2,0c0,0.4,0,0.7,0,1.1c-0.9,1-1.8,2.1-2.6,3.1c-2.6,0-5.3,0-7.9,0.1c-2.2-1.7-4.8-0.7-7.2-1   c-1.3-2.5-4.7,0.2-5.9-2.3c-5.3-3.2-13.1-2.7-19.5-1.6c5,0.9,9.7,1.8,14.7,2.7c0.7-0.3,1.6-0.7,2.4-1.1c0.1,0.7,0.3,1.4,0.4,2.1   c6,1,11.5,2.1,17.2,3.9c0,0.4,0.1,0.8,0.1,1.1c-5.7,1.7-9.1-2.3-14.9-0.5c4.6,0.8,11.8,5.8,14.9,0.4c0.7,0.1,1.4,0.3,2.2,0.4   c-10.1,16.2-32,2.2-44.6-0.4c13.9,8,28,12.2,43.7,10.7l-0.1-0.1c0,0.4,0,0.8,0,1.2c-3.8,2.8-8.5,4.8-11.7,8.3   c-0.9-0.4-1.7-0.7-2.9-1.2C155,168.5,152.2,170.7,150.7,174.1z" />
	<path display="inline" fill="#EF8A6A" d="M334.5,452.8c-0.6,0.6-1.2,1.3-2.1,2.2c-0.3-2.1-1-3.7,1.1-4.6   C333.3,451.4,332.9,452.5,334.5,452.8z" />
	<path display="inline" fill="#56362C" d="M334.5,452.8c-1.7-0.2-1.2-1.4-1.1-2.4c1-0.3,1.5-1.9,3.1-0.8   C335.9,450.6,335.2,451.7,334.5,452.8z" />
	<path display="inline" fill="#040405" d="M431.7,570c18.7-5.3,38.2-9.4,53.2-22.6c1.8,0.1,3-0.6,3.5-2.5l-0.1,0   c3.6-0.7,3.9-1.1,2.7-4.4c0.4-0.4,0.8-0.9,1.2-1.3c1.1,0.8,2.3,1.5,3.4,2.3c-0.4,0.4-0.7,0.8-1.1,1.3c0,0.4-0.1,0.7-0.1,1.1   c-1.6,1.2-3.1,2.4-4.7,3.6c-0.1,0.4-0.1,0.8,0,1.2l0,0C473.7,560.4,452.1,573.4,431.7,570z" />
	<path display="inline" fill="#080709" d="M334.7,576.8c28.3,3,57.2-7.2,84.9-3.5c-28.9,1.4-57.3,9.4-86.3,4.8   C333.8,577.7,334.3,577.2,334.7,576.8z" />
	<path display="inline" fill="#131A1F" d="M334.7,576.8c-0.5,0.4-0.9,0.8-1.4,1.3c-20.9-2.4-43.1-2.5-62.8-10.6c0-0.4,0-0.8,0-1.2   c0.4-0.1,0.9-0.1,1.3-0.2C291.8,573.8,314.1,571.8,334.7,576.8z" />
	<path display="inline" fill="#141114" d="M382.3,582c23.4-0.1,46.1-5.7,69-10.2C434.9,580.1,400.7,584.5,382.3,582z" />
	<path display="inline" fill="#2A282F" d="M291.9,581.6c2.3-2.4,7.3-1,10.5-0.2c14.5,1.3,29.9-1.2,44.3,1   C328.5,583.3,310,583.4,291.9,581.6z" />
	<path display="inline" fill="#191A1F" d="M489.6,547.4c1.6-1.2,3.1-2.4,4.7-3.6c-2.8,8.7-20.6,25.7-29.5,22.5   c10-3.5,18.6-9,24.8-17.8l0,0c0.3-0.2,0.6-0.4,0.9-0.6C490.2,547.8,489.9,547.6,489.6,547.4z" />
	<path display="inline" fill="#19181D" d="M223.2,552.1c9.4,5.3,18.6,11.5,29.5,14.2C243.3,567.9,229.3,559.7,223.2,552.1   L223.2,552.1z" />
	<path display="inline" fill="#313843" d="M489.6,548.5c-4.6,5.4-9.6,12-16.6,14.2c-0.1-0.8,1.7-1.6,0-2.4   C478.7,556.6,483.7,551.7,489.6,548.5z" />
	<path display="inline" fill="#172127" d="M419.7,573.3c-2.2-1.5-4.8-1.1-7.3-1.2c6.2-2,12.9-0.3,19.3-2.1c0.8,1.7,2.4,0.8,3.6,1.2   C430.9,573.3,424.7,572.3,419.7,573.3z" />
	<path display="inline" fill="#080809" d="M218.5,549.7c-4-4.5-6.2-8-4.2-15.3c2.9,4.4,2.1,9.7,5.3,14.1   C219.3,548.9,218.9,549.3,218.5,549.7z" />
	<path display="inline" fill="#19181D" d="M218.5,549.7c0.4-0.4,0.8-0.8,1.2-1.2c1.2,1.2,2.3,2.4,3.5,3.6l0,0   C221.3,551.9,219.6,551.4,218.5,549.7z" />
	<path display="inline" fill="#191A1F" d="M495.6,541.4c-1.1-0.8-2.3-1.5-3.4-2.3c0.8-1.6,1.6-3.2,2.3-4.8c1.2,0.7,2.1,2.2,3.5,1.1   C499.9,537.1,497.6,540.6,495.6,541.4z" />
	<path display="inline" fill="#191A1F" d="M494.5,542.7c0.4-0.4,0.7-0.8,1.1-1.3C495.2,541.9,494.8,542.3,494.5,542.7z" />
	<path display="inline" fill="#725D4E" d="M102.4,143.7c0.7-2.9,2.2-4.9,6.4-4.7C106.1,141,104.3,142.3,102.4,143.7z" />
	<path display="inline" fill="#D7C0A0" d="M127.3,134.2c0-0.4,0.1-0.7,0.2-1.1c0.9-0.2,2-0.2,2.1-1.5l0,0.1c0.4-0.4,0.9-0.8,1.3-1.1   c2-0.2,2.5,1.4,3,3c0.3-0.3,0.5-0.8,1-0.9c1.9,0.7,4.4-0.7,5.6,1.5c-0.4,0.3-0.8,0.6-1.2,0.8c-3.7,0.1-7.3,0.1-10.8,1.3   C128,135.6,127.6,134.9,127.3,134.2z" />
	<path display="inline" fill="#826E5D" d="M128.4,136.3c3.4-1.1,7.1-1.2,10.8-1.3c0.4-0.3,0.8-0.6,1.2-0.8l0,0   c1.1,0,2.2,0.1,3.4,0.1c-0.4,0.7-0.8,1.5-1.2,2.2c-5.5-1.8-12.2,4-16.4,1.3c0.4-0.4,0.8-0.8,1.2-1.2   C127.7,136.6,128.1,136.5,128.4,136.3z" />
	<path display="inline" fill="#6D5E50" d="M112,153.3c-0.4-1.2,0.7-2.9-1.2-3.7c2.2-1.9,1.7-5,5.7-4.2   C115,148.1,113.5,150.7,112,153.3z" />
	<path display="inline" fill="#D7C0A0" d="M127.4,136.6c-0.4,0.4-0.8,0.8-1.2,1.2C126.6,137.4,127,137,127.4,136.6z" />
	<path display="inline" fill="#3588A5" d="M451.9,530.9c-0.1,0.3-0.1,0.7-0.1,1c-3.5,2.7-9.1,1.6-13.2,3.5c-0.5,0.1-1.1-0.2-2.6-0.5   C441.7,532.6,446.9,532.2,451.9,530.9z" />
	<path display="inline" fill="#32819E" d="M271.7,537.8c0-0.4,0-0.7,0-1.1c4.9,0.8,9.8,1.6,14.7,2.4c0,0.2,0,0.4,0,0.7   C281.7,540.4,276.1,539.6,271.7,537.8z" />
	<path display="inline" fill="#2A687E" d="M456.5,502.4c0,0.4,0,0.9,0,1.3c-3.1,2-5.4,3.2-9.1,4.8   C449.4,504.9,453.1,504.3,456.5,502.4z" />
	<path display="inline" fill="#191A1F" d="M491,540.5c1.2,3.3,1,3.7-2.7,4.4C486.8,542.7,489.4,541.6,491,540.5z" />
	<path display="inline" fill="#191A1F" d="M488.4,544.9c-0.5,1.8-1.7,2.6-3.5,2.5C485.6,545.8,486.8,545,488.4,544.9z" />
	<path display="inline" fill="#191A1F" d="M492.1,539.2c-0.3,0.4-0.6,0.7-1,1.1C491.4,540,491.7,539.6,492.1,539.2z" />
	<path display="inline" fill="#4C505E" d="M271.9,566.1c-0.4,0.1-0.9,0.1-1.3,0.2c0-0.3,0-0.6,0-1   C271,565.6,271.4,565.8,271.9,566.1z" />
	<path display="inline" fill="#F8E2C2" d="M184.2,111.5c8,1.7,16.3,4.1,22.4,9.8c-0.4,0.4-0.9,0.7-1.3,1.1   c-4.6-0.4-8.7-1.9-13.6-1.2c1.1,1.3,2.1,2.4,3,3.5c-2-0.5-4-1-5.9-1.5c-0.8-1.6-2.3-0.8-3.5-1c-2.4-2.2-5.1-0.7-7.7-0.7   c6,2.1,12.3,2.7,17.8,6.1c1.3-1.5-0.6-2-0.8-3c1.8,0.1,2.8,1.2,3.6,2.6c-0.3,2.9-2.7,2.9-4.8,3.4c-8.8-4.3-18.7-6.9-28.3-7.1   c-1.8-1.3,1.5-0.9,2.2-1.3c0.8-0.3,1.4-1,2.6-2.1c-5.4-1.4-11.9,3.9-15.4-1.1c3.4-2.1,7.7-2,10.5-5l-0.1,0c3.1,0.1,6-0.2,8.4-2.4   l-0.1,0.1C177,111.6,180.6,111.5,184.2,111.5z" />
	<path display="inline" fill="#F7E2C1" d="M143.7,134.3c-1.1,0-2.2-0.1-3.4-0.1c-0.7-1.7-2.3-1.1-3.6-1.2c0-0.4,0-0.8,0-1.2   c15.6-10.8,34.3-7.5,50.9-1c-8.1,3.6-15.6-1-23-3.6c-0.1,0.2-0.2,0.4-0.3,0.6c1.3,1.1,2.6,2.3,3.8,3.4c-8.6-0.2-15.7-1.3-24.5-0.2   c12,4.4,23.5,0.4,34.5,6.5l0.1,0.3C167.1,141.2,154.6,136.8,143.7,134.3z" />
	<path display="inline" fill="#D7C0A0" d="M181.6,150.5c0.4,5.8-2.7,10.8-5.4,15.7c-0.2-0.7-0.4-1.4-0.6-2.2   c-3.8,2.6-8.8,5.4-12.8,2.1c5-0.7,9.2-2.6,12.2-7.2c-1.1-0.6-1.7-0.9-2.8-1.1c0,0,0.1,0.1,0.1,0.1   C175.2,155.2,178.7,153.3,181.6,150.5z" />
	<path display="inline" fill="#2F2623" d="M162.5,173.2c0.9,1.2,1.9,2.4,3.1,4c-0.6,1.3-1.3,2.6-2.1,4.2c0.3,0.5,0.9,1.5,1.5,2.6   c-0.3,2.2-2.6,2.8-3.7,4.3c-2.1-2.3-4.2-4.1-6.8-5.7l0.1,0.1c-0.1-0.8-0.1-1.5-0.2-2.3c0.3-0.4,0.7-0.8,1-1.1   c0.8,2.1,2.3,3.4,4.7,4c0-0.9,0-1.8,0-2.9c1-0.8,2.2-1.8,3.7-2.9c-0.8-0.8-1.4-1.4-2-1.9c-1.3,0.3-2.2,0.6-3.5,0.9   c0.9-1.4,1.5-2.3,2.1-3.3C161,173.3,161.8,173.2,162.5,173.2z" />
	<path display="inline" fill="#1A1413" d="M211.2,163.6c1.6-0.8,3.1-1.5,4.7-2.3c1.2,0.5,2.8-0.5,3.7,1.1c-1.8,2.9-2.5,6.1-3.1,9.7   c-2.3,0.7-5.1-1.8-7.4-2.6c0,0,0.1,0,0.1,0c0-0.4,0-0.7-0.1-1l-0.1,0.1c1.1,0,2.1,0,3,0c0.6-1.6,1.4-2.8-0.7-3.3   C211.3,164.7,211.3,164.2,211.2,163.6z" />
	<path display="inline" fill="#57453B" d="M187.7,130.8c-5.5-1.7-10.9-3.5-16.4-5.2c0.8-0.4,1.5-0.8,2.3-1.1   c6.8,1.4,13.8,2.5,19.9,6.1C192.7,133.3,189.5,130.9,187.7,130.8z" />
	<path display="inline" fill="#332623" d="M224.1,152.3c-5.9-0.1-11.2,3.1-17.8,1.9C212.1,151,218.9,148.3,224.1,152.3z" />
	<path display="inline" fill="#B0B399" d="M162.8,166.1c1.3,1.5,3.1,1.3,4.9,1.4c-1,0.5-2.1,1.1-3.5,1.8c4,1.2,7.2,0.3,10.3-1.1   c-0.8,1.6-0.4,3.8-2.3,5c-0.1-0.5-0.2-1.1-0.4-1.9c-3.1,0.4-6,0-9-0.5c0,0,0.1,0.1,0.1,0.1c-0.8-1.2-1.6-2.3-2.4-3.5   c0.4-0.5,0.9-1,1.3-1.5C162.2,165.8,162.5,165.9,162.8,166.1z" />
	<path display="inline" fill="#5C4A3F" d="M198.3,127.3c-0.8-1.4-1.8-2.5-3.6-2.6l0.1,0.1c-0.9-1.1-1.9-2.2-3-3.5   c3.6,0,7.1-0.7,10.3,1c-1.2,0.4-2.5,0.8-3.7,1.1c0.8,0.8,1.6,1.7,2.4,2.5c0,0.7,0,1.4,0,2.3C199.7,127.8,199,127.5,198.3,127.3z" />
	<path display="inline" fill="#43362F" d="M163.9,171c2.6,0.5,5.2,0.7,7.9,0.4c0.1,0.8,0.2,1.3,0.4,1.9c-0.6,1-1.2,1.9-1.8,2.9   c-2.7-1.2-4.5-2-6.4-2.9C163.9,172.4,164,171.7,163.9,171z" />
	<path display="inline" fill="#2E241E" d="M174.5,168.2c-3.1,1.4-6.2,2.3-10.3,1.1c4.1-2.3,7.6-2.3,11.4-5.3   c0.2,0.8,0.4,1.5,0.6,2.2C175.6,166.8,175,167.5,174.5,168.2z" />
	<path display="inline" fill="#55443A" d="M174.8,131.7c3.2,0,5.6,0.8,8.9,1.8c-1.6,0.7-3,1.3-4.4,1.9c-2-1.6-2.5-1.7-4.7-0.1l0,0.5   c-1.9-0.6-3.8-1.1-5.8-1.7C170.1,131.8,173,133.3,174.8,131.7z" />
	<path display="inline" fill="#201613" d="M198.3,123.3c3.8-1.7,7.6-1.3,10.7,1.4l-0.1-0.1C205.7,128.1,201.4,125.4,198.3,123.3z" />
	<path display="inline" fill="#80766C" d="M164,172.1c0,0.3,0,0.7,0.1,1c-1.3,0-2.5,0.1-3.8,0.1c0,0,0.1,0.1,0.1,0.1   c-0.2-1.5-0.9-2.4-2.3-2.3c-1.3,1.2-2.5,2.3-3.7,3.4l0.1,0c0.3-2.4,1.4-4.3,3.2-5.9c1.8,0.8,3.5,1.5,5.2,2.3c0,0-0.1-0.1-0.1-0.1   C163.2,171.2,163.6,171.7,164,172.1z" />
	<path display="inline" fill="#66544A" d="M176.8,143.3c0.9-1,1.8-2.1,2.6-3.1c1.7,1.5,3.5,0.1,5.9-0.4c-1.3,2.6-4.5,3.3-3.6,6.2   l0.1-0.1C179.9,145.8,178.4,144.3,176.8,143.3z" />
	<path display="inline" fill="#605346" d="M181.6,150.5c-1.5,1.3-3,2.6-4.5,3.8c-0.4-0.9-0.8-1.7-1.1-2.6c3.3,0.4,4.3-3.6,5.9-5.8   c0,0-0.1,0.1-0.1,0.1c0.5,0.1,1.1,0.2,2,0.4C182.6,147.7,182,148.9,181.6,150.5z" />
	<path display="inline" fill="#4B3A35" d="M219.6,162.4c-0.8-1.6-2.5-0.6-3.7-1.1c2.8-0.9,4.4-1.5,7.3-3.2   C222.3,160.6,221.6,162,219.6,162.4z" />
	<path display="inline" fill="#5D5450" d="M205.2,167.3c1.2-0.5,2.4-1,3.5-1.5c0.2,0.2,0.4,0.4,0.5,0.5c-0.1,0.7-0.2,1.4-0.3,2.1   c0,0,0.1-0.1,0.1-0.1C207.7,168.3,206,169.5,205.2,167.3z" />
	<path display="inline" fill="#85776E" d="M154.5,182.7c1.2,0.8,2.4,1.6,3.6,2.4c-0.3,0.3-0.7,0.7-1,1   C155.4,185.5,154.4,184.5,154.5,182.7z" />
	<path display="inline" fill="#C3C5C5" d="M205.2,167.3c0.8,2.1,2.5,1,3.9,1.2c0.1,0.3,0.1,0.7,0.1,1   C207.6,169.7,202.5,169.9,205.2,167.3z" />
	<path display="inline" fill="#514239" d="M179.4,139.2c-0.4,0-0.8,0-1.2,0c0-0.5,0.2-1.1-0.1-1.6c1.2,0,2-2.1,3.8-0.5   C181.1,137.7,180.2,138.4,179.4,139.2z" />
	<path display="inline" fill="#1D1411" d="M174.7,135.2c2.2-1.5,2.7-1.5,4.7,0.1C177.8,135.3,176.2,135.3,174.7,135.2z" />
	<path display="inline" fill="#96A18A" d="M198.3,123.3c1.3,0.8,2.5,1.6,3.8,2.3c-0.5,0.1-1,0.1-1.5,0.2   C199.9,125,199.1,124.2,198.3,123.3z" />
	<path display="inline" fill="#5D5450" d="M211.2,163.6c0.1,0.6,0.1,1.1,0.2,1.7c-0.7,0.4-1.4,0.8-2.1,1.1c-0.2-0.2-0.4-0.4-0.5-0.5   C209.6,165.1,210.4,164.4,211.2,163.6z" />
	<path display="inline" fill="#C3C5C5" d="M209.1,169.5c0.8,0.4,1.7,0.9,2.5,1.3C210.5,170.9,209.4,171,209.1,169.5z" />
	<path display="inline" fill="#332722" d="M195.9,109.3c2-0.2,3.7,0.4,4.9,2.1c0.1,0.6,0,1.7,1,0.5c0.9,0.6,1.8,1.3,2.6,2.1   c0,0,0.1-0.1,0.1-0.1c-1.5,3-4.4,0.4-6.2-0.7c0.4-0.3,0.7-0.6,1.1-0.9C198.2,111.1,197,110.2,195.9,109.3z" />
	<path display="inline" fill="#68493F" d="M184.2,111.5c-0.8,0-1.6,0-2.3,0c-0.7-0.7-1.5-1.3-2.2-2c3.2-0.2,6.5-1,9.5,0.8   C187.3,110.3,185.6,110.3,184.2,111.5z" />
	<path display="inline" fill="#C0B99F" d="M195.9,109.3c1.1,0.9,2.3,1.9,3.5,2.9c-0.4,0.3-0.8,0.6-1.1,0.9c-2-0.8-4-1.6-6-2.5   c0.9-0.5,1.9-0.7,2.6-1.4C195.2,109.2,195.6,109.3,195.9,109.3L195.9,109.3z" />
	<path display="inline" fill="#F6D9C7" d="M209.1,124.8c-1.2-0.8-2.5-1.6-3.7-2.4c0.4-0.4,0.9-0.7,1.3-1.1   C208.1,121.9,209.1,123,209.1,124.8z" />
	<path display="inline" fill="#332722" d="M196,109.3c-0.4-0.1-0.8-0.1-1.1-0.1c0.1-0.2,0.3-0.5,0.4-0.7   C195.5,108.8,195.8,109.1,196,109.3z" />
	<path display="inline" fill="#1B1713" d="M201.8,111.9c-1,1.2-0.9,0.1-1-0.5C201.2,111.4,201.5,111.6,201.8,111.9z" />
	<path display="inline" fill="#1B1713" d="M204.4,113.9c-0.4-0.4-0.9-0.8-1.3-1.2C203.5,113.2,204,113.6,204.4,113.9z" />
	<path display="inline" fill="#5F4A3E" d="M158,117.5c-2.7,1.3-5.5,2.4-8.3,3.4c-0.5-0.4-1-0.8-1.5-1.2c2.7-1.6,5.5-2.7,8.5-3.5   C157.2,116.7,157.6,117.1,158,117.5z" />
	<path display="inline" fill="#A08F7A" d="M179.6,109.5c0.7,0.7,1.5,1.3,2.2,2c-2.8,0.1-5.6,0.1-8.4,0.2   C175,109.7,177.1,109,179.6,109.5z" />
	<path display="inline" fill="#AF9680" d="M158,117.5c-0.4-0.4-0.8-0.8-1.2-1.3c2.5-1.8,5.4-2.4,8.4-2.2   C163.4,116.3,160.5,116.5,158,117.5z" />
	<path display="inline" fill="#AF9680" d="M173.5,111.7c-2.4,2.2-5.3,2.5-8.4,2.4C167.5,111.9,170.5,111.7,173.5,111.7z" />
	<path display="inline" fill="#D1C0A2" d="M149.8,120.9c1.6-0.6,3.3-1.3,4.9-1.9c3.5,5,10-0.3,15.4,1.1c-1.3,1-1.9,1.8-2.6,2.1   c-0.7,0.5-4,0.1-2.2,1.3c0,0.4,0,0.7,0,1.1c-3.2,0-6.3,0-9.5,0c1-0.6,1.9-1.3,3.2-2.1c-2.3-0.2-4.2-0.9-5.7,0.9   c-7.2,1.3-14.6,3.5-19.8,8.8c-0.3-1.4-1.4-1.6-2.6-1.7C136.6,126.4,143.3,123.8,149.8,120.9z" />
	<path display="inline" fill="#D1C0A2" d="M130.8,130.6c-0.4,0.4-0.8,0.7-1.3,1.1C129.9,131.3,130.4,131,130.8,130.6z" />
	<path display="inline" fill="#E3D5B6" d="M136.8,124.4c0.5-0.3,0.9-0.5,1.4-0.8C137.7,123.9,137.2,124.1,136.8,124.4z" />
	<path display="inline" fill="#E3D5B6" d="M139.2,123.2c0.5-0.3,1-0.5,1.5-0.8C140.1,122.7,139.6,123,139.2,123.2z" />
	<path display="inline" fill="#E3D5B6" d="M141.5,122.2c0.5-0.3,1.1-0.6,1.6-0.8C142.6,121.6,142.1,121.9,141.5,122.2z" />
	<path display="inline" fill="#A88B81" d="M443.4,222.9c-0.6-0.1-1.3-0.2-2.2-0.3C442.5,221.5,443,222,443.4,222.9L443.4,222.9z" />
	<path display="inline" fill="#A08F83" d="M154.4,180.5c0.1,0.8,0.1,1.5,0.2,2.3c-3.4-1.3-3.6-7.3,0-8.3l-0.1,0   c-0.1,0.8-0.2,1.6-0.3,2.3C153,178,153.1,179.3,154.4,180.5z" />
	<path display="inline" fill="#3B2C25" d="M129.6,152.1c5.5,2.8,10.9,5.7,16.5,8.2c-0.4,0.4-0.7,0.8-1.1,1.2   c-5.1-1.1-11.1-6.3-15.4-6c-0.6-0.4-1.2-0.9-2.5-1.7C128.1,153.1,128.8,152.6,129.6,152.1z" />
	<path display="inline" fill="#887E69" d="M144.7,165.2c2.1,0.5,4.2,0.8,6,2.1c-3.1,0.6-6.9,0-9.2-1   C142.5,165.8,144,166.7,144.7,165.2z" />
	<path display="inline" fill="#958C75" d="M129.6,155.5c1.5-1.6,4.2,1.7,6.1,2.2c-0.5,0.5-0.9,0.9-1.4,1.4   C132.7,157.9,131.1,156.7,129.6,155.5z" />
	<path display="inline" fill="#A29E83" d="M140.4,166.1c-1,0.2-2.2,0-2.6,1.3c-1.2-0.9-2.3-1.9-3.5-2.8   C136.7,164.3,138.7,164.7,140.4,166.1z" />
	<path display="inline" fill="#3B2C25" d="M127.3,150.7c0.5,0.4,1,0.7,1.5,1.1C128.3,151.4,127.8,151,127.3,150.7z" />
	<path display="inline" fill="#CFBA9B" d="M142.4,176.8c0.1,0.4,0.2,0.8,0.3,1.2c-0.4-0.4-0.8-0.8-1.2-1.2l0-0.1   C141.8,176.8,142.1,176.8,142.4,176.8z" />
	<path display="inline" fill="#CFBA9B" d="M141.5,176.8c-0.2-0.2-0.4-0.4-0.6-0.7C141.3,176.1,141.4,176.4,141.5,176.8L141.5,176.8z   " />
	<path display="inline" fill="#3F3930" d="M175.9,151.8c0.4,0.9,0.8,1.7,1.1,2.6c-5.5,5.3-13.7,4.8-20.4,2.5   c2.6-0.1,5.2-0.2,7.9-0.4c0-0.2,0-0.4,0-0.6c-1.4-0.2-2.9-0.4-4.3-0.6c3.7-0.4,7-2.9,10.7-1.7c-1.6,1-2.8,1.7-4.7,2.9   c6.2,0,5.6-2.3,8.5-5.9C175.1,151,175.5,151.4,175.9,151.8z" />
	<path display="inline" fill="#7B705D" d="M173.5,152c-1.6,3.7-2.2,4.1-7.3,4.5c1.9-1.2,3.1-1.9,4.7-2.9c-1-0.2-1.6-0.4-2.3-0.5   c1.5-1.7,2.9-3.5,4.6-5.4c-0.8-0.2-1.5-0.3-2.2-0.4l0.1,0.1c-0.1-0.4-0.1-0.8-0.1-1.1c1.4,0,2.8,0,4.4,0c-0.8,2.3,0.5,2.1,1.6,2.2   C175.8,149.5,174.6,150.7,173.5,152c-0.2-0.2-0.4-0.4,0.3,0.2C173.1,151.6,173.3,151.8,173.5,152z" />
	<path display="inline" fill="#F2DDBC" d="M153.3,140.1c-0.9,0.4-1.8,0.8-2.4,1.1c-5-0.9-9.7-1.8-14.7-2.7   c6.4-1.1,14.2-1.6,19.5,1.6C154.9,140.1,154.1,140.1,153.3,140.1z" />
	<path display="inline" fill="#32241F" d="M177,148.3c-1.1-0.1-2.4,0.1-1.6-2.2c-3.2,0.2-6-0.3-8.9-1.3c3-2.2,6.8-1.1,10.3-1.4   c1.2,0.8,2.5,1.6,3.7,2.4C179.3,146.6,178.1,147.5,177,148.3z" />
	<path display="inline" fill="#352922" d="M162.8,166.1c-0.3-0.2-0.6-0.3-1-0.2c3.9-2.6,7.9-5,11.6-7.8c0.4,0.2,0.9,0.4,1.6,0.8   C172,163.5,167.8,165.4,162.8,166.1z" />
	<path display="inline" fill="#54463A" d="M152.2,156.5c-4.3,0-8.1-1.8-11.9-3.5c0-0.4,0-0.9-0.1-1.3c5.2,1.2,10.4,2.4,15.6,3.6   C154.8,155.9,153.1,154.9,152.2,156.5z" />
	<path display="inline" fill="#94806A" d="M140.3,151.7c0,0.4,0,0.9,0.1,1.3c-3.7-1.5-7.1-3.6-11.7-5.9   C133,147.4,134.3,148,140.3,151.7z" />
	<path display="inline" fill="#665748" d="M162.9,147.1c2.7,0,5.5,1.1,8.2,0.2l-0.1-0.1c-2,4.4-7,1.6-10.4,1   C161.4,147.8,162.1,147.4,162.9,147.1z" />
	<path display="inline" fill="#AF9881" d="M153.3,140.1c0.8,0,1.6,0,2.4,0c1.2,2.6,6.4-0.6,5.9,3.5c-2.5-0.5-5.1-0.9-7.8-1.4   C153.6,141.5,153.5,140.8,153.3,140.1z" />
	<path display="inline" fill="#180B09" d="M152.2,156.5c3.3-2.4,8.4-1,12.3-0.6c0,0.2,0,0.4,0,0.6   C160.4,156.7,156.3,157,152.2,156.5z" />
	<path display="inline" fill="#9F8F77" d="M145,161.5c0.4-0.4,0.7-0.8,1.1-1.2c2.8,1.1,5.5,2.3,8.9,3.8   C151.5,165.1,148.1,163.1,145,161.5z" />
	<path display="inline" fill="#8E7765" d="M161.6,143.6c0-0.4,0-0.8,0-1.2c2.4,0.3,5-0.7,7.2,1c-0.8,0.4-1.6,0.9-2.4,1.3   C164.8,144.4,163.2,144,161.6,143.6z" />
	<path display="inline" fill="#99806A" d="M162.9,147.1c-0.8,0.4-1.5,0.7-2.3,1.1c-1.4-0.5-2.8-0.9-4.4-1.4   C160,145.8,160,145.8,162.9,147.1z" />
	<path display="inline" fill="#897361" d="M178.2,137.8c0,0.4,0,0.9-0.1,1.3c-1.4,1.5-3,2.3-5.7,2   C174.4,139.2,175.9,138.6,178.2,137.8z" />
	<path display="inline" fill="#D1C0A2" d="M143.7,134.3c0.4,0,0.9-0.1,1.3-0.1c0.1,1.8-0.8,2.5-2.5,2.3   C142.9,135.7,143.3,135,143.7,134.3z" />
	<path display="inline" fill="#3F3930" d="M173.4,158.1c-0.4,0.3-0.8,0.6-1.2,0.9c0-0.4,0-0.8,0-1.2   C172.6,157.9,173,158,173.4,158.1z" />
	<path display="inline" fill="#313843" d="M489.6,547.4c0.3,0.2,0.6,0.4,0.8,0.6c-0.3,0.2-0.6,0.4-0.9,0.6   C489.5,548.1,489.5,547.7,489.6,547.4z" />
	<path display="inline" fill="#403129" d="M133.4,132.2c5.3-5.4,12.7-7.6,19.8-8.8c0.4,0.4,0.8,0.7,1.2,1.1   c-6.7,2.3-13.5,4.2-19.3,8.3l-0.4-0.1l-0.4,0.1c-0.3-0.2-0.7-0.3-1-0.4L133.4,132.2z" />
	<path display="inline" fill="#D1C0A2" d="M133.4,132.5c0.4,0.1,0.7,0.3,1,0.4c-0.2,0.2-0.4,0.5-0.6,0.7   C133.7,133.2,133.5,132.8,133.4,132.5z" />
	<path display="inline" fill="#D1C0A2" d="M140.4,134.2c-0.4,0.3-0.8,0.6-1.2,0.8C139.6,134.8,140,134.5,140.4,134.2z" />
	<path display="inline" fill="#D1C0A2" d="M131,135.4c-0.4,0.3-0.9,0.5-1.3,0.8C130.2,136,130.6,135.7,131,135.4z" />
	<path display="inline" fill="#D1C0A2" d="M135.2,132.8c0.5-0.3,1.1-0.7,1.6-1c0,0.4,0,0.8,0,1.2   C136.2,132.9,135.7,132.9,135.2,132.8z" />
	<path display="inline" fill="#A58771" d="M165.2,124.7c0-0.4,0-0.7,0-1.1c2.9,0,5.8-0.6,8.4,1c-0.8,0.4-1.5,0.8-2.3,1.1   C169.3,125.2,167.2,124.9,165.2,124.7z" />
	<path display="inline" fill="#655145" d="M188.8,123.3c2,0.5,4,1,5.9,1.5l-0.1-0.1c0.2,1,2.1,1.5,0.8,3c-2.2-1-4.4-2.1-6.6-3.1   C188.9,124.1,188.9,123.7,188.8,123.3z" />
	<path display="inline" fill="#D0B69C" d="M184.3,123.4c-2.2-0.1-4.4-1.1-6.6-1.8c2.6-0.1,5.3-1.5,7.7,0.7   C185,122.6,184.6,123,184.3,123.4z" />
	<path display="inline" fill="#9F8471" d="M184.3,123.4c0.4-0.4,0.7-0.8,1.1-1.1c1.6,0,3.9-0.2,3.6,2.3   C187.4,124.2,185.8,123.8,184.3,123.4z" />
	<path display="inline" fill="#D5BEA0" d="M172,132.9c-1.2,0.1-2.6-0.5-3.1,1.2c-8.9,0-16-0.6-25.2-3.1c8.8-1,15.9,0,24.5,0.2   c-1.3-1.1-2.6-2.3-3.8-3.4c0.1-0.2,0.2-0.4,0.3-0.6c2.8,0.6,5.3,1.8,7.7,3.2C170.3,131,172.3,132.1,172,132.9z" />
	<path display="inline" fill="#816455" d="M154.5,124.5c-0.4-0.4-0.8-0.7-1.2-1.1c1.5-1.8,3.4-1.1,5.7-0.9c-1.3,0.9-2.3,1.5-3.2,2.1   C155.3,124.6,154.9,124.6,154.5,124.5z" />
	<path display="inline" fill="#725246" d="M172,132.9c0.2-0.8-1.7-1.9,0.3-2.5c0.8,0.4,1.7,0.9,2.5,1.3   C173.9,132.1,172.9,132.5,172,132.9z" />
	<path display="inline" fill="#CAB6A7" d="M160.3,173.3c-0.6,1-1.2,1.9-2.1,3.3c1.3-0.3,2.3-0.6,3.5-0.9c0.5,0.5,1.2,1.1,2,1.9   c-1.4,1.1-2.6,2.1-3.7,2.9c0,1.1,0,2,0,2.9c-6.3-0.9-5.7-9.6,0.4-10L160.3,173.3z" />
	<path display="inline" fill="#594F48" d="M155.6,176.7c-0.1,0.9-0.2,1.7-0.3,2.6c-0.3,0.4-0.7,0.8-1,1.1c-1.3-1.2-1.4-2.4-0.2-3.7   C154.7,176.7,155.1,176.7,155.6,176.7z" />
	<path display="inline" fill="#C3C5C5" d="M209.3,166.4c0.7-0.4,1.4-0.8,2.1-1.1c2.1,0.4,1.3,1.7,0.7,3.3c-0.9,0-2,0-3,0   C209.1,167.9,209.2,167.1,209.3,166.4z" />
	<path display="inline" fill="#1B1614" d="M164,172.1c-0.4-0.4-0.8-0.9-1.2-1.3c0.4,0.1,0.8,0.1,1.1,0.2   C164,171.3,164,171.7,164,172.1z" />
	<path display="inline" fill="#2F2623" d="M155.6,176.7c-0.5,0-0.9,0-1.4,0c0.1-0.8,0.2-1.6,0.3-2.3c1.2-1.1,2.4-2.2,3.7-3.4   c1.4-0.1,2.1,0.8,2.3,2.3C157.9,173.1,157,175.3,155.6,176.7z" />
	<path display="inline" fill="#F6D9C7" d="M177,148.3c1.2-0.9,2.4-1.7,3.5-2.6c0.4,0.1,0.9,0.2,1.3,0.2c-1.5,2.3-4,8.3-7.1,4.7   C175.4,149.9,176.2,149.1,177,148.3z" />
	<path display="inline" fill="#F6D9C7" d="M173.5,152c-0.2-0.2-0.4-0.3,0.3,0.2C173.1,151.6,173.3,151.8,173.5,152L173.5,152z" />
</g>
</svg>