<?xml version='1.0' encoding='utf-8'?>
<svg xmlns="http://www.w3.org/2000/svg" version="1.2" baseProfile="tiny" id="Layer_1" x="0px" y="0px" viewBox="0 0 900 600" overflow="visible" xml:space="preserve">
<g id="b_00000009570369824458100660000003902000293661119108_">
	<path display="inline" d="M442,338.4c7.5-4.7,16.5-1.1,24.3,1.2c5.3,0.2,10.5,0.5,15.8,2c2.6-5.4,3.5-12,8.9-15.6   c1.1-0.8,2.2-1.6,1.9-3.3c3.3-5.9,11.2-8,16.1-12.6c1,0.6,1.9,1.2,2.8,1.8c0.3-0.4,0.6-0.7,1-1.1c0.5,0.1,1.1,0.2,1.6,0.4   c0.5-0.8,0.2-2,0.3-2.9c2.3-0.2,1.2,2.2,2.4,2.9c1.9-4.4,5.9-5.2,4.5,0.6c0.9,0.3,1.7,0.5,2.8,0.8c-0.2,0.8-0.4,1.4-0.6,2.2   c2.8,1.6,5.7,3.3,8.7,5.1c0.4,6.2,3.1,11.9,6.3,17.2c-0.3,0.6-0.5,1.2-0.8,1.8c3.6,9.2-3.6,17.1-2.3,26.2c0,3.1-2.6,3.5-4,0.6   c-0.5,0.7-0.9,1.3-1.4,1.9c-0.3-0.1-0.6-0.1-1-0.2c-0.5-1.3-1-2.7-1.4-4c0.4,0.1,0.8,0.3,1.1,0.4c0.4-0.9-0.2-1.2-0.9-1.6   c-0.1,0.4-0.2,0.8-0.2,1.2c-1.6,1.2,0.4,3.3,0.8,4.6c0,0.6,0.3,0.9,0.9,0.9c8.1,7.5,2.5,19-3.8,25.7c-1-0.5-0.5-1.4-0.7-2.1   c3.7-6.4,9.2-15.3,2.7-21.7c-2.2,0.8-4.5,0.3-6.8,1.1c-0.8-1.4-2.2-1.9-3.5-2.7c1.7-0.8-3.4-5.6-3.9-7.3c-0.7-0.2-1.2-0.3-1.9-0.5   c-0.2-1.9-0.3-3.7-0.5-5.6c-2.7-3.4-6.2-7.6-11.1-6.6c-2.3,0.3-4.2-1.8-6.5-0.4c-0.7,1-1.2,2.3-2.9,2.1c0.1-4.6,3.9-7.5,2-12.3   c-0.3,1.1-0.7,2.3-1,3.4l0,0.1c-0.9-2.6-0.7-6.4-4.6-5.4c-2.3,2.2-1.5,7.5-2.2,10.5c0.8,1.2,2,1.7,1.9,3c-0.8,0.1-1.5,0.1-2.2,0.2   c-0.5-0.7-0.9-1.3-1.5-2c-3.5,2.4-4,5.7-6.8,8.8c0.4-2.3,0.7-3.9,1-5.5c-1-0.3-1.6-0.5-2.2-1.2c0.8-1.6,2.9-1.4,4.2-3.4   c0.3-0.7,1-2,1.8-3.3c-5.1-3.2-12.6,0.4-17-2.9c-6.1-2.1-14.4-2.4-21.3-1.4C442.5,338.9,442.3,338.6,442,338.4z M514,326.7   c-0.2-0.1-0.3-0.2-0.5-0.3C513.6,326.5,513.8,326.6,514,326.7c0.6,2.2,0.6,2.2,2.2,3.1C515.4,328.5,515.3,327.2,514,326.7z    M523,361.8c-0.3,0.6-0.5,1.1-0.8,1.7c0.3,0.4,0.6,0.7,1,1.2c0.4-0.5,0.8-0.8,1.2-1.3c-0.6-0.6-1-1-1.5-1.4   c-0.1-1.1,0.3-2.2-0.4-3.2c-1,1.3-1,1.3-0.6,3C522.3,361.9,522.6,361.9,523,361.8z M499.4,326.7c2.2-0.8,3.1-1.6,4.5-4.4   c-2.2,1.4-3.7,2.9-4.8,4.8C499.2,327,499.3,326.8,499.4,326.7z M506.3,337.1c1.7-1.6,3.8-3.2,3.1-5.8   C508.2,333.5,506.5,334.8,506.3,337.1c-0.2,0.1-0.7,0-0.3,0.5C506.2,337.4,506.2,337.2,506.3,337.1z M499.4,319.1   c1.9-0.5,6.6-2.8,6.5-4.6C503.6,315.9,501.2,316.9,499.4,319.1c-0.4,0.1-0.7,0.1-1.3,0.3C499,319.8,499.3,319.5,499.4,319.1z    M530.6,336.4c-0.2,0.7-0.4,1.5-0.6,2.4c0.3,0.3,0.7,0.6,1.1,1C532.3,337.8,532.3,337.7,530.6,336.4c0-1.6-0.3-2.9-2.2-4   c0.2,1.8-0.2,3.2,0.5,4.7C529.6,336.8,530.1,336.6,530.6,336.4z M527.1,342.6c-1.3,2.3-0.6,4.8-0.5,7.2   C527.1,347.6,528.9,344.5,527.1,342.6c0.2-0.6,0.5-1.2,0.7-1.8c-0.7-1.4-1-2.9-2.7-3.5c0,1.2,0,2.3,0,3.3   C525.9,341.3,526.5,341.8,527.1,342.6z M515.3,317.7c0.5,1.2,1.4,1.9,2.5,2.6C518.7,318.2,516.8,317.6,515.3,317.7   c0.3-0.4,0.7-0.8,1.1-1.2c-1.7-1.6-4-0.2-5.8-1.3c-0.3,0.4-0.5,0.7-0.8,1.1c1.1,0.5,2,1,3,1.4c0,0.8,0,1.4,0,2   C514.6,319.6,513.6,317.3,515.3,317.7z M524.1,317.9c3,1.7,4.3,3.5,6.4,5c-0.1-0.8-0.1-1.6-0.2-2.4   C528.3,319.3,526.5,318.1,524.1,317.9z M513.8,324.7c0.6,0.5,0.9,0.8,1.3,1.2c0.5-0.6,0.9-1.2,1.3-1.7c0.5,0,1,0.7,1.4-0.1   c-0.6-0.9-1.2-1.8-2-3C515.3,322.9,514.9,323.3,513.8,324.7z M507.6,323.6c-1.7,1-2.6,1.9-3.2,3c0.7,0.9,1.2,1.7,1.8,2.5   C506.5,327.5,507,325.9,507.6,323.6z M529.2,348.8c0.4,2.4-1,4.9,0.9,6.2C530.8,352.8,530.9,350.9,529.2,348.8z M516.9,363.7   c0.7-3.5,0.7-3.5-1.2-4.4C515,360.9,515.6,362.1,516.9,363.7z M494.9,325.6c1.7-0.7,3.5-1.1,4.4-2.9c-0.8,0-1.5,0-2.1,0   C496.4,323.7,495.6,324.6,494.9,325.6z M531,355.7c-1.3,2.1-1.4,3.1-0.6,4.1c0.4-0.1,0.9-0.2,1.6-0.4   C531.7,358.3,531.4,357.2,531,355.7z M514.1,332.5c0.5-2.4,0.3-3-1.4-4C512.3,330,512.9,331.1,514.1,332.5z M523.3,346.7   c0.4-1.5,1.8-2.9,0.4-4c-0.8-0.1-1.2,0.4-1.4,1.3C522.6,344.8,522.9,345.6,523.3,346.7z M500.8,341.7c-1.6,0.7-2.4,3.8-0.5,3.7   C500.3,344,500.4,343,500.8,341.7z M493,327.6c-1.4,1.3-1.4,1.3-1.5,3.1C492.4,329.8,493.7,329.3,493,327.6z M509.9,338.4   c0.8-1.1,1.8-1.7,1.8-3.3C510.3,335.9,509.6,336.9,509.9,338.4z M534.9,346.3c0,0.2-0.1,0.5-0.1,0.7c0.6,0.3,1.1,0.6,2,1   c0-0.8-0.1-1.3-0.1-2C535.9,346.2,535.4,346.2,534.9,346.3z M531.5,331c0,0.6,0,1.1,0,1.8C532.7,332.2,532.7,332.2,531.5,331z    M522.6,319.9c0.6-1.3-0.6-2.1-1.5-0.9C521.6,319.3,522,319.5,522.6,319.9z M521.3,364c-1.4,0.3-1.2,1.8,0.3,1.7   C521.5,365.2,521.4,364.7,521.3,364z M528.8,329c0.4,0.5,0.4,1.4,1.7,1.4C530.4,329.5,530,329,528.8,329z M521.1,354.8   c0.1,0,0.2,0,0.3,0C521.4,353.8,521,353.9,521.1,354.8z M508.1,346.3c-0.3-0.1-0.6-0.3-0.8,0.1   C507.7,346.6,507.9,346.8,508.1,346.3z" />
	<path display="inline" fill="#010101" d="M392.1,535.7c-0.5-0.6-1-1.1-1.7-1.9c-0.9,6.9-2.1,13.6-1.7,20.3   c6.8,7.5,9,17.5,14.6,25.8c3.5,9.8,11,2.1,9.4,16.8c-9,5.5-21.6,2.5-31.9,2c-5.1-0.1-7.4-6-12.6-5.6c-0.6-0.1-0.9-0.2-1.4-0.6   c-2.7-5.5,2-10.6,2.1-16.2c-1.2-4.9-0.1-9.4,0-14.6c1.3-0.2,2.6-0.9,3.4-2.1c-3.4-33.9-17.6-71.7,1.2-103.2   c-1.6-4.2,1.3-7.5-0.8-11.4c-4-0.9-7.3-2.7-8.3-7.4c-5.8-4.4-4.5-14.4-4.7-21.1c0-4.8-7-8.6-4.2-13.8c2.4,2.9,3.3,6.8,5.6,9.7l0,0   c0.1,1.2-0.4,2.5,0.6,3.5c0,1,0.3,1.9,0.8,2.8c-1.9,1.9,0.5,11.4,3.4,8.2c0,0,0,0,0,0c0.2-0.2,0.5-0.5,0.7-0.7   c1.7,1,0.2,3.1,0.1,4.7c10.9,18.1,7.4,5.8,9.2,25.6c-17.5,29-7.7,65.6-1.6,96.5l-0.1-0.1c0,2.9,0.8,5.6,1.6,8.4   c5.6-5.8-2.4-6.7,10.4-9.9c1.6-11.8,1.4-23.9,5.2-35.3c4.6-14.1,9.8-28.2,8-43.3c-0.5-8.7,7.6-15.2,5.4-24.4   c10.9-15.1-2.8-16.6-2.6-31c-8.2-1.9-18.3-5.9-25.7,0c-0.3-0.3-0.6-0.5-0.9-0.8c6.6-9,18.3-2.2,27.2-1.4c0.9-1.8-0.5-3.4-0.2-5.3   c2.8-2.6,1.5-7.4,3.6-10.6c1.2-1.2,0.3-1.5-0.3-2.7c2.1,0.3,1.4-2.4,2.1-3.6c2.6-5.8,6.7-10.7,10.2-16c0.4-0.5,0.5-1-0.2-1.4   c-1.6-23.2,22.7-30.2,38.6-16.4c-0.3,0.3-0.6,0.6-0.9,0.9c-14.2-10.8-36.7-6.8-35.6,13.9c0.2-0.3,0.4-0.5,0.6-0.8c0,0,0,0,0,0   c0.2-0.3,0.4-0.5,0.6-0.8l0,0c0.4,0.1,0.8,0.2,1.5,0.4c-4.2,9.9-13.6,17.5-14.7,28.7c1.6,2.6,1.5,5.3,0.5,8.4   c-0.8-1.6-1.2-2.3-1.3-3.9c-0.8,4.3-2.4,8.5-1.4,12.9c-1.1,1.1-1.5,2.5-1.7,4.1c5.7,7.3,11.3,18,3,25.8c1.7,8.1-6.3,16.8-5.7,25.1   c3.3,19.4-8.3,36.8-10.7,55.5c1.3,2.1,1.5,4.2,3.6,5.5C393.9,536,392.9,535.5,392.1,535.7z M394.2,565.6c-1.9-4.4-5.9-7.9-9.2-11.3   c-1.8,0.1-3.1,1.3-4.5,1.9c-1.2,4.9-3.2,15.8-10.2,11.8c-0.2,5.4,0.9,10.3-1,15.5c-0.7,0.5-0.8,1.3-0.7,2.1l0,0   c-1,1.8-0.6,3.7-0.6,5.5c2.8,0.2,5,0,7.1,2.3c8.5,6.3,23.7,4.2,33.7,2.7c0.2-2.2,1.7-4.5,0.9-6.7c-7.5-2.4-9.5-9.8-13.5-15.6   c-3.6,0.6-7.4,0-10.5,2c-0.4-0.2-0.8-0.4-1.2-0.6c0.1-5.8,8.4-2.2,11.8-3.2c-0.2-0.7-0.3-1.4-0.5-2.2c-6.5-0.7-9.1-0.4-13.4,4   c-0.2-0.2-0.5-0.4-0.7-0.7c-0.4-6.6,8.4-5.7,12.9-5.4C394.5,566.8,394.4,566.2,394.2,565.6z M373.4,566.8c1.7-0.6,2.6-1.8,3-3.9   c-1.8,0.2-3.4-0.4-5,0.4C372.2,564.5,372.7,565.6,373.4,566.8z M371.7,442.3c-3.5-6.3-3.5-6.3-5.4-6.8   C367.6,439.2,368.3,440.1,371.7,442.3z M363.6,432.8c-0.1,0-0.2,0-0.3,0c0.1,0.3-0.2,0.8,0.2,0.8   C363.6,433.3,363.6,433.1,363.6,432.8z" />
	<path display="inline" fill="#010101" d="M519.5,401.9c-5.1,3.4-7.1,9.4-10.7,14.7c8,5.3,14.2,12.7,22.2,17.9   c3.7,9.6,1,20.6-2.9,29.6c0.3,28.6-13.8,54.7-18.7,82.4c10.1-0.1,7.3,4.5,8.8,12.3c2.1,3.7,7.5,4.1,9,8.1c4.1,4,9.9,5.7,15.4,6.2   c1.9,2.8,3,6.6,2.9,9.8c-6.7,10-27.2,5.8-36.8,2.8c-9.1-1.1-20.5,2.6-28.1-4.2c3.6-9.7,4.2-20.2,5.9-30.3c1.3-0.5,2.4-1,3.9-1.6   c3.3-22.7,1.9-45.1,0.5-67.8c0.9-9.3,8.1-16.8,8.8-26.3c-0.5-0.7-0.9-1.3-1.2-1.7c-2.9-0.5-5.5-0.9-8.4-1.3   c-10.1,11.8-17.9,26.2-27.9,38.3c-1,8.1-2.7,14.9-1.9,23.2c-1,2.8-4.8,4.2-5.4,7.1c-1-1.6-2.1-2.2-2.8,0c-0.6-0.9-0.6-2.3-2-2.1   c-1.1-1-0.4-2.8-0.6-4.1c1-0.9,1.8-1.7,2.7-2.5c-0.2-1.4-0.5-2.7-0.7-4.2c-1,1.2-1.8,2.3-2.6,3.3c-0.3-0.3-0.6-0.6-0.9-1   c0.5-1.5,1.7-2.9,1.7-4.6c1.3,0.3,1.8-0.8,2.6-1.4c2.1,2.2,2.4,5.7,1.7,8.8c-7.7,5.8,2.4,5.3,4.3,0c-2.1-7.7,3.3-13.8,0.8-21.1   c11.5-16.5,23.1-33.5,34.4-50.2c1.1-10.9,8.1-18.2,13.7-27.1c2.3-6.1,5.6-11.6,11.4-14.3l0,0c0.5,0,0.7-0.2,0.8-0.7l0,0   c0.2-0.2,0.5-0.5,0.7-0.7l0,0c0.2-0.2,0.5-0.5,0.7-0.7l0,0c0.7,0.2,0.8,0.8,0.7,1.4C520.9,400.6,520.2,401.2,519.5,401.9z    M518.2,560.6c-0.5-0.3-0.9-0.6-1.7-1.1c-2.4,1.3-5.1,2.3-7.6,3.8c-1,0-2,0.8-3,0c-0.8-4.2,7-4.2,10-6.2c-1-2.6,0-5.4-1.4-8.2   c-2.2,0-4.5,0-6.7-0.2c-1.5,1.9-1.5,1.9-1.6,4c-3,1.9-6,8.6-10.1,7c-2.6-2.2-7-3.5-7.4-7.4c-2.4,2.5-0.5,6.7-1.1,9.8   c-0.2,0.1-0.2,0.3-0.1,0.5c-2.1,6-1.3,12.7-4.1,18.7c6.3,2.6,15.1,3.5,21.6,1.2c5.4,0.4,9.6,3.9,15,3c2.4-0.8,4.3,1.1,6.6,1.3   c4.5,0.5,19.2-0.4,15.7-7.6c0-1.4-0.4-2.7-1.1-3.9c-3.2-1-7-0.7-9.7-2.6c-2,0.3-5.4,3.4-6.2,0.7c0.7-1.3,2.4-1.2,3.6-2.1   c-0.8-0.6-1.5-1.1-2.2-1.6c-1.7,0.7-3.3,1.4-4.7,2.1c-2.7-2.5,1.7-2.9,2.6-4.5c-0.3-0.4-0.6-0.7-0.9-1c-3.1,0.2-4.8,2.4-7.3,3.8   c-0.5-0.5-0.9-1-1.3-1.4c0.9-2.8,3.5-3.3,5.3-4.7C520,562.4,519.6,561.2,518.2,560.6z M497.3,553.6c2,0,4.1,0.7,5.9-0.6   c0.3-2.2,0.3-2.2,1.7-4.1c4.7-7.4,4-17.2,7.4-25.3c6.1-20,14-39.5,13.6-60.7c11.6-28.1,0.3-27.8-18.3-44.9   c-3.4,4.3-5.4,9.4-9.5,13.1c-1.2,6.9-3.2,13.5-6.6,19.7c21.9-0.4,2.6,19.3,1.6,29.9c0.9,23.2,3.7,47.1-1.4,69.9c-1.2,1-0.7,2-0.1,3   C493.7,553.6,495.5,553.6,497.3,553.6z M497.7,558.3c0.7-0.9,1.1-1.4,1.8-2.2c-2.1,0-2.7-0.4-4.8,0   C495.8,556.9,496.6,557.5,497.7,558.3z" />
	<path display="inline" fill="#040405" d="M356.9,404.9c-0.5-0.7-0.9-1.4-1.4-2.1c0-3.1,3.6-4.6,3.4-7.8c-0.7-5.8,1.2-11.4,0.9-17.1   c2.6-4.8,9.2,0.7,11.8-8.9c2.6-0.9,5.4,0.7,7.7-1.1c0.4-0.3,1.1-0.3,1.6-0.5c3.3-0.8,5.5-4.4,9.3-3.9c11.6-0.8,19.6-13.4,31.7-12.6   c0.3,0.2,0.6,0.4,0.9,0.7c-11.9,3.2-21.9,10.3-32.4,16.7c-0.6,1.5-1.2,3-1.7,4.2c0.6,2.3,2.1,3.6,3.1,5.3c-0.3,0.3-0.6,0.6-0.9,1   c-0.3-0.1-0.6,0-0.9-0.2c0.1,0,0.2,0.1,0.3,0.1c-0.3,0.4-0.6,0.9-0.9,1.3c-1.2-0.5-2.3-0.9-3.3-1.3c1.1-0.5,1-2.1,0-2.8   c-0.2-0.6-0.5-1.3-0.7-1.9c0.6-1.3,0.6-1.4-1.2-1.6c0-0.2-0.1-0.3-0.1-0.5c0.6-0.3,0.4-0.6-0.1-0.7c0-0.2,0-0.4,0.1-0.7   c0.4,0,0.9-0.1,1.3,0c0.2-0.3,0.4-0.5,0.7-0.8c0.1-0.6,0.2-1.3,0.3-2c0.7,0.1,1.2,0.3,1.8,0.4c0.4-0.8,0.8-1.5,1.4-2.5   c-2.9,0.3-4.9,1.4-6.3,3.5c-0.7-0.1-1.3-1.3-2,0c-2.3,2-5.2,0.8-7.7,2l0,0c-1.7,2.1-3,4.6-5.2,6.4c-2.1-0.2-4.2,0.2-6.3,1   c0.1,1.3,0.5,2.7,0.2,3.7c-2.1,5.7,0,12.1-1.7,17.6c-0.9,0.2-1.8,0.4-2.5,0.6C356.5,401.6,357.1,403.3,356.9,404.9z" />
	<path display="inline" fill="#101416" d="M450.3,519.1c2.4-0.2,1.1,4.6,4.2,1.3c0.2,0.2,0.4,0.5,0.7,0.7   c-12.1,23.6-33,31.8-55.3,20.1c1.2,0,2.5,0.2,3.5-0.6C420.3,552.1,450.6,540.3,450.3,519.1z" />
	<path display="inline" fill="#010101" d="M403.3,540.6c-1,0.8-2.3,0.6-3.5,0.6c-1.6-1.6-3.2-3.1-4.9-4.7c0.5-0.5,0.9-1,1.4-1.6   c1.6,2.6,1.6,2.6,3.7,3.1c-1.7-4.8-3.2-13.7,1.2-16.9c0.2,0.2,0.4,0.4,0.6,0.7c-2.8,2.8-2.3,6.9-0.1,9.9c-0.5,0.1-0.8,0.1-1.3,0.1   C400.7,534.8,401,538.4,403.3,540.6z" />
	<path display="inline" fill="#0E0E0F" d="M422.6,351.5c-0.3-0.2-0.6-0.4-0.9-0.7c0.1-0.2,0.1-0.4,0.2-0.6l0,0c2,0,1.2-3.3,3.3-3.8   c5.6-2.4,10.8-6.9,16.7-8c0.3,0.3,0.6,0.5,0.8,0.8C435.7,342.8,428.9,346.8,422.6,351.5z" />
	<path display="inline" fill="#020202" d="M396.3,535c-0.5,0.5-0.9,1-1.4,1.6c-0.9-0.2-2.4,0.3-2.8-0.8c0.8-0.2,1.8,0.3,2.2-0.9   c1.7-0.6-3-10.1,0.4-10.8C395.2,527.7,395.8,531.3,396.3,535z" />
	<path display="inline" fill="#1C1B1B" d="M521.5,399.9c0-0.6-0.1-1.1-0.7-1.4c1.3-2.1,3.3-3.8,4.2-6.2c0.2,0.7-0.3,1.6,0.7,2.1   C524.7,396.6,523.3,398.4,521.5,399.9z" />
	<path display="inline" fill="#1B1B1B" d="M528.6,367.5c-1.1-1-2.1-3.2-0.8-4.2c0.4,1.4,0.9,2.7,1.4,4l-0.3,0.2L528.6,367.5z" />
	<path display="inline" fill="#CCD2E9" d="M418,351c-1,0.2-2,0.4-2.9,0.6C415.8,350.4,416.9,350.9,418,351z" />
	<path display="inline" fill="#CCD2E9" d="M422,350.2c-0.1,0.2-0.2,0.4-0.2,0.6c-0.6,0-1.3,0-1.9,0   C420.4,349.9,421.2,350.2,422,350.2z" />
	<path display="inline" fill="#CCD2E9" d="M423.2,349.5c-0.2,0.7-0.7,0.8-1.2,0.8C422.2,349.6,422.6,349.5,423.2,349.5z" />
	<path display="inline" fill="#4B65C5" d="M356.8,399.4c-0.1,0.2-0.2,0.3-0.4,0.5C356.6,399.8,356.7,399.6,356.8,399.4z" />
	<path display="inline" fill="#1C1B1B" d="M519.5,401.9c0.2-0.2,0.4-0.4,0.6-0.5C519.9,401.5,519.7,401.7,519.5,401.9z" />
	<path display="inline" fill="#1C1B1B" d="M520.1,401.3c0.2-0.2,0.4-0.4,0.6-0.6C520.5,400.9,520.3,401.1,520.1,401.3z" />
	<path display="inline" fill="#1B1B1B" d="M529.5,368.8c-0.6,0-0.9-0.3-0.9-0.9C528.9,368.2,529.2,368.5,529.5,368.8z" />
	<path display="inline" fill="#4B65C5" d="M356,400.8c-0.1,0.2-0.2,0.3-0.3,0.5C355.8,401.1,355.9,401,356,400.8z" />
	<path display="inline" fill="#1C1B1B" d="M520.8,400.6c0.2-0.2,0.4-0.4,0.6-0.6C521.2,400.2,521,400.4,520.8,400.6z" />
	<path display="inline" fill="#4B65C5" d="M357.4,398.7c-0.1,0.2-0.3,0.3-0.4,0.5C357.1,399,357.2,398.8,357.4,398.7z" />
	<path display="inline" fill="#FBDFD3" d="M525,392.4c-0.9,2.4-2.9,4-4.2,6.2l0,0c-0.2,0.2-0.5,0.5-0.7,0.7l0,0   c-0.2,0.2-0.5,0.5-0.7,0.7c0,0,0,0,0,0c-0.3,0.2-0.5,0.5-0.8,0.7c0,0,0,0,0,0c-6.1,2.9-9,8.3-11.4,14.3   c-5.6,8.9-12.6,16.2-13.7,27.1c-11.3,16.7-22.9,33.6-34.4,50.2c2.4,7.3-2.9,13.5-0.8,21.1c-1.6,5.1-11.9,5.9-4.3,0   c0.6-3.1,0.4-6.6-1.7-8.8c-0.3-3.2-2.3-6-3.4-9.1c3.8-7.8,11.8-13.7,13.2-22.8c2.2-7.4,9-36.8,15-38.8c-1.5,1-2.4,4.4,0.2,2.9   c0.8,0,1.6,0,2.2,0c5-3.6,3.8-9.5,4.8-14.6c1.7-5.4,4.3-10.5,6.1-15.9c1.5-0.9,3.1-1.9,4.6-2.8c2.1,0.9,2.2,4.3,5.2,3.5   c1.1,0.5,1.7-0.6,2.7-0.7c1.4,0,2.8,0.2,3.5-1.2c-1.2-1.1-2.8,0.5-4.2-0.1c1.1-2.7,0.6-5.6,0.7-8.4l0,0c0.5,0,0.7-0.2,0.6-0.7   c0.2-0.2,0.2-0.4,0-0.6c0-0.5,0-1,0-1.5c1.4-1.8,1.7-4.4,4-5.3c0.6-2.9,0.8-5.8,2.2-8.5c0.7,0,1.4,0,2.3,0c1-1.3,2-2.7,3.1-4.1   c2.3-0.9,4.6-1.9,6-4.2c2.2-0.7,4.5-0.3,6.8-1.1C534.2,377.1,528.7,386,525,392.4z M483.6,437.5c1.6-1.8-3.8,0-3.1,1.8   C481.9,439.2,481.9,439.2,483.6,437.5z M459.8,485.7c-0.4-0.3-0.7-0.5-0.9-0.6c-1.6,0.4-3.7,3.8-1.1,4.1   C458.9,488.5,459.4,487.3,459.8,485.7z M511.7,402.6c-1.4,1-3,1.2-3.9,2.9C510,405.9,512.4,405,511.7,402.6z M469.6,453.1   c1.2-0.7,2.3-1.5,2-3.7C470.5,450.7,469.5,451.5,469.6,453.1z M487.7,434.1c-1.3-0.1-2.5,1-1.7,1.9   C487,435.9,487.7,435.5,487.7,434.1z M460.4,482.8c0.2-0.5,0.4-0.9,0.7-1.3C460.2,481,459.4,482,460.4,482.8z M461.4,480.2   c1.6,0.3,1.1,0,1.4-1.6C462.1,479.4,461.8,479.7,461.4,480.2z M468.3,456.9c-0.2-0.2-0.4-0.4-0.5-0.5c-0.2,0.2-0.4,0.4-0.6,0.7   C467.7,457.6,467.9,457.2,468.3,456.9z M506.6,390.5c-0.7,0.7-0.7,1.3,0.1,1.8C507.5,391.7,507.4,391.1,506.6,390.5z M464.1,475   c-0.2,0-0.3,0-0.5,0C463.6,476.2,464,476.2,464.1,475z" />
	<path display="inline" fill="#CCD2E9" d="M422.6,351.5c11.4-9,24.4-16.1,39.3-11.6c-0.8,0.3-1.7,0.7-2.9,1.2c2.6,0.7,2.9-0.4,5-0.5   c4.4,3.2,12-0.4,17,2.9c-0.7,1.4-1.4,2.7-1.8,3.3c-1.3,2-3.4,1.8-4.2,3.4c-5.5,4.6-6.8,11.8-9,18c-0.6,8.3,1.1,16.5,1.4,24.7   c0.2,3.2,4.3,3.3,6.5,4.6c-1.4,1.9-4.3,0.8-6.2,1.6c-5.7,1.8-12.2,5.1-17.6,0.9c3.7-4.9,10.1-8.5,11.2-14.8c0.7-6.9,2.6-14.3,0-21   c-13.8-18.7-45.3-15.9-43.6,11.3c-5.6,4-12.4,5.7-18.7,8.5c-1.4-0.8-2-2-2.5-3.2c-4-1.3-6.8-4.3-8.3-8.4c0.5-1.3,1.1-2.8,1.7-4.2   C400.7,361.8,410.7,354.7,422.6,351.5z M397.1,378.1c1.6,1.5,3.7-1.4,3.2-3.1C398.8,375.7,397.7,376.5,397.1,378.1z M440.6,350.4   c1.4-1.2,2.5-1.8,3.2-3.2C441.5,347,439.1,347.8,440.6,350.4z M405.7,365.7c-1,0.4-1.4,0.9-0.6,1.8   C405.9,367.3,406.3,366.8,405.7,365.7z M403.8,369.4c-2,0.7-2,0.7-1.4,2.2C402.8,371,403.1,370.5,403.8,369.4z M401.3,374.4   c0.4-1.1,0.7-1.3,0-2C400.3,373.1,400.6,373,401.3,374.4z M451.6,344.9c-1.3-0.2-1.3-0.2-0.9,1C451,345.6,451.3,345.3,451.6,344.9z    M456.3,341.5c-0.4-0.3-0.7-0.3-0.9,0.2C455.8,341.9,456,342,456.3,341.5z M446.2,346.4c-0.2-0.4-0.4-0.1-0.7,0   C445.7,346.7,445.9,346.5,446.2,346.4z M447.8,345.5c-0.2,0.2-0.1,0.3,0.1,0.5c0-0.2,0.1-0.3,0.1-0.5   C448,345.5,447.9,345.5,447.8,345.5z" />
	<path display="inline" fill="#FBDFD3" d="M486.8,349.9c0.1-1.3-1.1-1.9-1.9-3c0.2-2.1,0.5-4.4,0.7-6.8c0.4-0.6,0.8-1.1,1.3-1.7   c2.1,2.1-0.1,6.7,0.5,9.1c1.2,0.1,1-0.7,1-1.4c1.4-1.3,2.5-2.7,3.3-4.4c0,0,0-0.1,0-0.1c0.9,1.2,1.3,3,0.3,4.2   c-1.5,1.1-0.5,3.1-1.2,4.7c1.7,0.3,2.1-1.1,2.9-2.1c2.3-1.4,4.2,0.7,6.5,0.4c4.9-0.9,8.4,3.2,11.1,6.6c0.2,1.8,0.3,3.6,0.5,5.6   c0.7,0.2,1.2,0.3,1.9,0.5c1.2,2.3,3.8,4.5,3.9,7.3c-3.6,1.7-3.1,9.3-7.7,9.6c-2.1-1.1-2.4-3.1-4.7-4.1c-0.3,1.8,1.2,2.6,1.8,4.3   c-2,1.9-3.8-1.7-6-1.4c-0.6,2,2,1.5,2,3c-0.3,0.2-0.7,0.4-0.9,0.5c-12.7-2.4-14-19.2-13.1-29.8c-0.5-0.1-0.8-0.2-1.1-0.2   C487.4,350.6,487.1,350.3,486.8,349.9z M501.3,361.5c0.2,2.6,2.7,3.1,3.8,4.7c0,0.5-0.1,1.1-0.1,1.7c2.2,1.5,6.8,2.8,8.2,0.3   C508,367.8,506.3,363,501.3,361.5z" />
	<path display="inline" fill="#EDC9B9" d="M486.8,349.9c0.3,0.3,0.6,0.7,0.9,1c-4.9,12.3,6.4,25.1,0.6,26.7c1.1,0.6,1.7,0.4,2.2-0.3   c1,0,1.8,0.5,2.3,1.2c1.5,2.5,4.4,1.9,6.5,3.5c-4.3,1-8.6,0.6-12.6,0.6c-1.1-0.8-1.9-1.5-2.7-2.1c0.1-1.3,0.1-1.3-1.3-1.2   c-2.9-7.5-0.7-14.9,1.3-22.4c-0.5-0.5-1.1-1.2-1.8-1.9c-1.7,2-3.9,3.3-5.1,5.5c-0.2-0.8,0.6-2.1-1-2.2c-0.9,0.9-0.5,1.9-0.3,2.9   c-1.8-0.5-3.7,0.3-5.5-0.6c0.8-3.7,3.5-6.6,5.6-9.6c0.4,0.1,0.8,0.3,1.4,0.4c-0.3,1.7-0.6,3.2-1,5.5c2.8-3.2,3.2-6.4,6.8-8.8   c0.6,0.7,1,1.3,1.5,2C485.3,350,486.1,350,486.8,349.9z M485.1,378.2c0.5,0.6,0.9,0.5,1.4,0.1C486.4,377.5,485.4,377.6,485.1,378.2   z" />
	<path display="inline" fill="#201F20" d="M476,351c-9.6,10.3-7.9,24.1-8.5,36.8c-2.6-12.8-2.2-28,7.7-37.6   C475.5,350.4,475.7,350.7,476,351z" />
	<path display="inline" fill="#24201F" d="M509.8,378.6c2.9,0.2,3.4-3.7,4.9-5.5c0.7,0.6,1.3,2.1,2,0.7c0.9-1,3.4-1.7,2.7-3.4   l0.3-0.1c0.4,0.5,0.8,1,1.1,1.5c-1.4,2.4-3.7,3.3-6,4.2c-1.1,1.4-2.1,2.8-3.1,4.1c-0.9,0-1.6,0-2.3,0c-0.5,0.9-0.8,1.8-1.1,2.8   c0-1,0-2,0-2.7C509.1,379.4,509.4,379,509.8,378.6z" />
	<path display="inline" fill="#2D2D2D" d="M515.3,317.7c-1.8-0.3-0.8,1.9-2.5,1.9c0-0.6,0-1.2,0-2c-0.9-0.4-1.9-0.9-3-1.4   c0.3-0.4,0.5-0.7,0.8-1.1c1.7,1.2,4.1-0.3,5.8,1.3C516.1,316.9,515.7,317.3,515.3,317.7L515.3,317.7z" />
	<path display="inline" fill="#877872" d="M487.7,345.4c-0.4-2.1,0.9-5.4-0.7-7c0.1-0.7,0.2-1.3,0.2-2c1,0.1,2.7-0.6,3.1,0.7   c-1.7,1.6,0.6,4.8-1.2,6.1c-0.2-1.9,0.3-3.9-0.6-5.8c0,2.6,0.1,5.3-0.1,7.9C488.1,345.3,487.9,345.3,487.7,345.4z" />
	<path display="inline" fill="#2C2C2C" d="M524.1,317.9c2.3,0.2,4.2,1.4,6.2,2.6c0.1,0.8,0.1,1.6,0.2,2.4   C528.4,321.4,527.1,319.5,524.1,317.9z" />
	<path display="inline" fill="#1F1F1F" d="M527.1,342.6c-0.6-0.8-1.2-1.3-2-1.9c0-1,0-2.1,0-3.3c1.8,0.6,2.1,2.1,2.7,3.5   C527.6,341.4,527.3,342,527.1,342.6L527.1,342.6z" />
	<path display="inline" fill="#202020" d="M513.8,324.7c1.1-1.5,1.5-1.9,2-3.6c0.8,1.2,1.4,2.1,2,3c-0.4,0.8-1,0.1-1.4,0.1   c-0.4,0.5-0.8,1-1.3,1.7C514.7,325.5,514.3,325.2,513.8,324.7z" />
	<path display="inline" fill="#D7BFB5" d="M489.7,341.8c0.1-1.6-0.5-3.4,0.6-4.7c1.1,1.4,0.6,3.2,1.5,4.7c-0.4,0.7-0.8,1.5-1.2,2.2   C490.4,343.2,490.8,342.3,489.7,341.8z" />
	<path display="inline" fill="#2B2B2B" d="M507.6,323.6c-0.6,2.3-1,3.9-1.5,5.5c-0.5-0.8-1.1-1.5-1.8-2.5   C505,325.5,505.9,324.6,507.6,323.6z" />
	<path display="inline" fill="#4A423E" d="M516.7,373.7c-0.8,1.4-1.3,0-2-0.7c0.9-1.4,1-3.6,2.8-4.1c0.7,0.5,1.5,0.9,2.3,1.3   c-0.6,0.2-1.6,0-1.9,0.3C517.3,371.3,515.3,373,516.7,373.7z" />
	<path display="inline" fill="#2E2E2E" d="M530.6,336.4c-0.5,0.2-1,0.4-1.7,0.7c-0.7-1.5-0.2-2.9-0.5-4.7   C530.2,333.4,530.6,334.8,530.6,336.4L530.6,336.4z" />
	<path display="inline" fill="#1E1E1E" d="M499.4,319.1c1.8-2.1,4.2-3.2,6.5-4.6C506,316.3,501.4,318.6,499.4,319.1L499.4,319.1z" />
	<path display="inline" fill="#252525" d="M529.2,348.8c1.7,2.1,1.6,4,0.9,6.2C528.2,353.7,529.6,351.2,529.2,348.8z" />
	<path display="inline" fill="#1F1F1F" d="M527.1,342.6c1.8,1.9,0,5-0.5,7.2C526.5,347.4,525.8,344.9,527.1,342.6L527.1,342.6z" />
	<path display="inline" fill="#333333" d="M516.9,363.7c-1.3-1.6-1.9-2.8-1.2-4.4C517.6,360.2,517.6,360.2,516.9,363.7z" />
	<path display="inline" fill="#323232" d="M494.9,325.6c0.8-1,1.5-1.9,2.3-2.9c0.6,0,1.3,0,2.1,0   C498.3,324.5,496.5,324.9,494.9,325.6z" />
	<path display="inline" fill="#2E2E2E" d="M531,355.7c0.4,1.5,0.7,2.5,1,3.8c-0.7,0.1-1.2,0.3-1.6,0.4   C529.5,358.9,529.7,357.8,531,355.7z" />
	<path display="inline" fill="#282828" d="M506.3,337.1c0.2-2.2,1.9-3.5,3.1-5.8C510.2,333.8,508,335.4,506.3,337.1L506.3,337.1z" />
	<path display="inline" fill="#292929" d="M514.1,332.5c-1.2-1.5-1.8-2.5-1.4-4C514.4,329.5,514.6,330.2,514.1,332.5z" />
	<path display="inline" fill="#242424" d="M499.4,326.7c1.1-1.7,2.5-3.1,4.5-4.4C502.5,325.1,501.6,325.9,499.4,326.7L499.4,326.7z" />
	<path display="inline" fill="#2E2E2E" d="M523.3,346.7c-0.4-1.2-0.7-2-1-2.7c0.2-0.8,0.5-1.3,1.4-1.3   C525.1,343.9,523.8,345.2,523.3,346.7z" />
	<path display="inline" fill="#AE9D95" d="M492.6,344.8c0.1-1.1-0.2-2.1-0.9-3c0.3-1.1,0.7-2.3,1-3.4   C493.5,341,493.5,342.2,492.6,344.8z" />
	<path display="inline" fill="#313131" d="M530.5,336.4c1.7,1.4,1.7,1.4,0.5,3.3c-0.4-0.4-0.8-0.7-1.1-1   C530.2,337.8,530.4,337.1,530.5,336.4L530.5,336.4z" />
	<path display="inline" fill="#1B1B1B" d="M500.8,341.7c-0.4,1.2-0.6,2.3-0.5,3.7C498.4,345.5,499.2,342.4,500.8,341.7z" />
	<path display="inline" fill="#2A2A2A" d="M515.3,317.7c1.5-0.1,3.4,0.6,2.5,2.5C516.8,319.6,515.9,318.8,515.3,317.7L515.3,317.7z" />
	<path display="inline" fill="#393B41" d="M464.1,340.6c-2.2,0.1-2.4,1.2-5,0.5C460.9,340.6,462.9,338.6,464.1,340.6z" />
	<path display="inline" fill="#1F1F1F" d="M523,362c-0.4-0.1-0.7-0.1-1-0.2c-0.4-1.7-0.4-1.7,0.6-3C523.2,359.8,522.9,360.9,523,362   z" />
	<path display="inline" fill="#2A2A2A" d="M493,327.6c0.8,1.6-0.6,2.1-1.5,3.1C491.6,329,491.6,329,493,327.6z" />
	<path display="inline" fill="#191919" d="M509.9,338.4c-0.2-1.5,0.4-2.4,1.8-3.3C511.7,336.7,510.7,337.3,509.9,338.4z" />
	<path display="inline" fill="#1F1F1F" d="M523,361.8c0.5,0.5,0.9,1,1.5,1.5c-0.5,0.5-0.8,0.9-1.2,1.3c-0.4-0.5-0.7-0.8-1-1.2   C522.5,363,522.7,362.5,523,361.8z" />
	<path display="inline" fill="#202020" d="M514,326.7c1.4,0.5,1.5,1.8,2.2,3.1C514.6,328.9,514.5,328.9,514,326.7L514,326.7z" />
	<path display="inline" fill="#292929" d="M534.9,346.3c0.5-0.1,1-0.1,1.7-0.3c0,0.7,0.1,1.2,0.1,2c-0.9-0.4-1.4-0.7-2-1   C534.8,346.8,534.8,346.6,534.9,346.3z" />
	<path display="inline" fill="#2A2A2A" d="M531.5,331c1.3,1.2,1.3,1.2,0,1.8C531.5,332.1,531.5,331.6,531.5,331z" />
	<path display="inline" fill="#080707" d="M487.2,336.4c-0.1,0.7-0.2,1.3-0.2,2c-0.4,0.6-0.8,1.1-1.3,1.7   C485.8,338.3,486.3,337.1,487.2,336.4z" />
	<path display="inline" fill="#252525" d="M522.6,319.9c-0.6-0.3-1-0.6-1.5-0.9C522,317.7,523.1,318.6,522.6,319.9z" />
	<path display="inline" fill="#252525" d="M521.3,364c0.1,0.6,0.2,1.1,0.3,1.7C520,365.8,519.9,364.3,521.3,364z" />
	<path display="inline" fill="#282828" d="M528.8,329c1.2,0,1.5,0.5,1.7,1.4C529.2,330.4,529.2,329.6,528.8,329z" />
	<path display="inline" fill="#1B1B1B" d="M527.8,363.3c0.1-0.4,0.1-0.8,0.2-1.2c0.7,0.4,1.3,0.8,0.9,1.6   C528.6,363.6,528.2,363.5,527.8,363.3z" />
	<path display="inline" fill="#1E1E1E" d="M499.4,319.1c-0.2,0.5-0.4,0.8-1.3,0.3C498.7,319.2,499.1,319.1,499.4,319.1   C499.4,319.1,499.4,319.1,499.4,319.1z" />
	<path display="inline" fill="#333333" d="M521.1,354.8c0-0.9,0.4-0.9,0.3,0C521.3,354.8,521.2,354.8,521.1,354.8z" />
	<path display="inline" fill="#4A423E" d="M517.5,368.9c0-0.5-0.1-1-0.1-1.4C518.4,368.2,518.4,368.3,517.5,368.9z" />
	<path display="inline" fill="#343434" d="M508.1,346.3c-0.2,0.5-0.4,0.3-0.8,0.1C507.5,346,507.8,346.2,508.1,346.3z" />
	<path display="inline" fill="#202020" d="M513.9,326.7c-0.2-0.1-0.3-0.2-0.5-0.3C513.6,326.5,513.8,326.6,513.9,326.7   C514,326.7,513.9,326.7,513.9,326.7z" />
	<path display="inline" fill="#242424" d="M499.4,326.7c-0.1,0.2-0.2,0.3-0.3,0.5C499.2,327,499.3,326.8,499.4,326.7   C499.4,326.7,499.4,326.7,499.4,326.7z" />
	<path display="inline" fill="#282828" d="M506.3,337.1c-0.1,0.2-0.2,0.3-0.3,0.5C505.6,337.1,506.2,337.2,506.3,337.1   C506.3,337.1,506.3,337.1,506.3,337.1z" />
	<path display="inline" fill="#FBDFD3" d="M376.5,417.4c7.4-5.9,17.5-2,25.7,0c-0.2,14.4,13.4,15.9,2.6,31   c2.1,9.3-5.9,15.7-5.4,24.4c1.9,15.1-3.3,29.2-8,43.3c-3.8,11.4-3.6,23.5-5.2,35.3c-2.4,0.8-4.7,1.6-7,2.3   c-6.1-12,1.5-27.6-4.5-39.4c-0.7,2.7-1.4,5.2-2.2,8.1c-3.4-20.1-2.6-40.8,4.3-60c1.5,0.1,1.8,2.1,3.5,1.7c1.7-4.4-3.2-9.1,0-12.7   c0.1,0.2,0.1,0.4,0.2,0.6c2.1,1.8,3.3,4.3,5.9,5.6c4.8-2.4,1.8-12.7-3.1-13.3c-0.7,0.4-1.3,0.8-2,1.3   C380.8,435.9,369.3,427.3,376.5,417.4z M397.7,469.1c-3.4,4.8-3.6,5.3-3.8,8.1C396.2,475.1,397.9,472.7,397.7,469.1z M394.8,453.6   c0.5-1.7,2.3-9.5-0.6-8.9C394,447.7,393.9,450.7,394.8,453.6z M391.7,429.7c-0.5,1.8-0.3,4.2,1.7,4.9   C393.3,431.4,393,430.4,391.7,429.7z M398.7,439.8c1.1-1.3,1.1-1.3-0.2-2.3C397.8,438.7,397.8,438.7,398.7,439.8z M393.3,481.2   c-1.4,0.7-1.3,1.7-0.9,3C393.3,483.4,393.6,482.5,393.3,481.2z M396.1,435.7c-0.4-0.9-0.7-1.5-1.6-0.7   C394.8,435.5,394.9,436.4,396.1,435.7z M390.2,490.5c-0.5,0.5-0.9,0.9-0.3,1.3C390.7,491.7,390.7,491.4,390.2,490.5z M391.3,487.7   c0.2-0.3,0.4-0.5,0.6-0.8C391.4,486.3,390.5,487.3,391.3,487.7z" />
	<path display="inline" fill="#FBDFD3" d="M419.9,373c1.5-24.3,26.9-23.3,40.6-8.3c3,24.6-6.9,28.4-22.5,43.6   c-1.2,15.2-8.5,25.7-21.5,33.2c-0.2-2.2-0.2-2.2-1-3.2c-1.2,2.3-1.3,3.2-0.8,5.7c0.4,0.1,0.8,0.1,1.3,0.2   c-0.8,14.8-8.3,27.8-12.7,41.7c-5.5-14.5,3.8-24.7,3.6-37.2c6.7-6.7,4.6-13.9,0.3-21c2.3-3.4,0.8-7.7,2.3-11.5   c0.6,0.2,0.9,0.3,1.2,0.4l0,0c-0.3,1.3,0.9,1.5,1.9,1.3c5.2-8-2.4-20.3,5.4-28.1c0.3,2.1,0.6,4,0.9,5.9c-1.5,1.4,1.9,3,1.5,4.9   c-2.2,2.5,2,3.1,3.7,3.4c1.7-3.1,2.5-6.9,1.3-10.5c-0.3-6.9,1.3-13.9,2.6-20.7c-0.9-1.1-1.8-2.1-2.6-2.9c-0.1-1.4-0.2-2.5-0.3-3.5   c-1.2,0-1.2,0-1.8,0.7c0,1.1-0.1,2.2-0.1,3.3c-0.7,0.7-1.4,1.3-2.1,2.1l0,0c-0.2,0.3-0.4,0.5-0.6,0.8l0,0   C420.4,373.1,420.2,373.1,419.9,373z M454.4,370.7c-0.2-1.2-0.4-3.1-2-3.1c-0.7,1.4,0.1,2.4,1,3.5C453.7,371,454,370.9,454.4,370.7   z M428.1,406.3c2.1,2,2.9,2,4.4,0.4C431.1,406.6,430,406.5,428.1,406.3z M449.4,366.8c-0.6-1.5-0.6-1.5-1.9-1.8   C447.7,366,448.1,366.7,449.4,366.8z M414.8,429.5c0.6-0.6,0.1-2.2-0.8-1.3C414.1,428.7,414,429.5,414.8,429.5z M415.3,433   c1.2-0.8,1.6-2.3-0.2-2.2C415.1,431.4,415.1,432,415.3,433z M427.1,362.6c-0.5,1.2-1,1.9,0,2.7   C427.8,364.6,427.9,363.9,427.1,362.6z M415.9,435.8c0.2,0,0.3,0,0.5,0C416.3,434.5,415.9,434.5,415.9,435.8z" />
	<path display="inline" fill="#EDCABA" d="M380.3,451.4c-3.2,3.7,1.7,8.3,0,12.7c-1.7,0.4-2-1.6-3.5-1.7c-1.9,4.1-1.9,9.3-3.9,13   c-0.1-0.7,0.1-1.7-1.2-1.8c-1.5,2.3-2.1,4.8-1.3,7.9c1.2-0.8,1.4-1.6,1.7-2.8c-1.8,14.3-2.2,29.3,0.4,43.7c0.8-2.9,1.5-5.4,2.2-8.1   c6,11.8-1.6,27.4,4.5,39.4c-2.4,2.4-0.1,6-3.4,7.6c-0.8-2.8-1.5-5.5-1.6-8.4c0.5,0,1.1,0,1.7,0c0.6-2.4,0.4-4.6-0.7-7   c-1.5,2.3-0.8,4.6-0.9,7.1c-6.1-31-16-67.4,1.6-96.5c-1.9-19.8,1.6-7.5-9.2-25.6c0.7-5.5,5-9,9-12.2c-5.3,9.9,5.2,17.4,5.6,26.8   l-0.2,0.2c-0.4,0-0.8,0-1.3,0c-0.3,2-0.4,3.8,0.7,5.4L380.3,451.4z M375.2,435.3c0.4,2.7,0.4,2.7,1.4,3.4   C377,436.6,377,436.6,375.2,435.3z M370.1,484.7c-1.5,1.1-1.5,1.1-0.1,2.2C370,486.2,370.1,485.5,370.1,484.7z M374.8,531   c-0.7,0.4-1.1,0.7-0.9,1.5C374.7,533.2,375.2,531.8,374.8,531z M370.5,494.5c-2.1,1-2.1,1-1.2,2.5   C369.6,496.3,369.9,495.7,370.5,494.5z M369.7,488.9c-1.1,0.1-1.5,1.8-0.2,1.6C370.2,490.2,370.2,489.4,369.7,488.9z M374.5,542.1   c0.2,0,0.3,0,0.5,0c0-0.5-0.1-0.9-0.1-1.4c-0.2,0-0.3,0-0.5,0C374.4,541.2,374.4,541.6,374.5,542.1z M374.2,536.4   c-0.2,0-0.3,0-0.5,0C373.8,537.6,374.1,537.6,374.2,536.4z" />
	<path display="inline" fill="#E4E4EB" d="M397.8,576.5c4,4.6,5.2,11,12.1,12.8c0.3,1.3,0.5,2.6-0.4,3.8c-3.9-1.7-12.1-4.2-12.9,2   c-24.9,0.8-12.2-8.7-27.6-8.5c-0.1-0.5-0.2-0.8-0.3-1.1l0,0c2.7-5.1,1.5-11.6,1.7-17.6c7,4.1,9-6.8,10.2-11.8   c1.4-0.7,2.7-1.8,4.5-1.9c1.7,0.9,2.6,2.6,3.6,4.1c1.1,1.8,3.8,2.6,3.5,5c-12.6-2.2-16.9,6.7-5.5,13.2c0.1,0.6,0.2,1.2,0.3,1.8   C390.7,577.6,395,579,397.8,576.5z M398.8,580.6c-3.3-0.8-8.1-2.9-8.6,0.3C392.5,583,396.1,582.3,398.8,580.6z" />
	<path display="inline" fill="#5876E8" d="M405.4,400.8c-1,2.9-0.4,6.9-2.8,9.1c-0.3,1.9,1.1,3.5,0.2,5.3   c-10.4-1.4-20.4-7.2-28.5,2.2c-3.1-4.5-3.5-10.5-5.5-15.6c5.5-8,13.8-9.2,22.2-4.4c-1.1-2.2-3-2.4-4.8-3.6c0.1-0.2,0.1-0.4,0.2-0.6   c5.2,0.3,11.4,0.3,15.6,4c0.4,1.8,2,2.1,3.3,2.7C405.3,400.2,405.3,400.5,405.4,400.8z M392.2,399.3c-0.7-0.9-1.5-1-2.5-0.1   c4.5,1.4,8.6,2.5,11.9,6.8C402.4,401.3,395.7,400.1,392.2,399.3z M398.7,406.9c-1.9-1.8-7.1-3.8-8.3-2.1   C392.3,406.1,395.6,406,398.7,406.9z" />
	<path display="inline" fill="#4B65C5" d="M381.2,394.4c-1.4,0-2.8,0-4,0c-3.4,2-5.9,4.6-8.5,7.3c2,5.1,2.4,11.1,5.5,15.6   c-3.3,2.3-6,5.2-7.6,9l-0.1-0.1c-0.2,0.2-0.5,0.5-0.7,0.7l0,0c-0.6,0-1.1,0.1-1.4,0.7c-2.5-1.8-3.5-6.1-2-8.9   c1.8-2.5,1.8-2.5,1.6-3.8c-0.8,0.8-1.5,1.6-2.3,2.4c-0.2-1.6,0-3.2,0-4.8c4-4.1-0.7-11.8,1.2-17c-0.3-2.1,3.5-8.7,1.1-9   c-3.6,8.2-2.1,17.3-2.3,26c-0.2,0-0.5,0-0.7,0c0,0,0,0,0,0c-1.8-2.2-2.7-5.1-4.2-7.6c0.1-1.6-0.4-3.3,1-4.8   c0.7-0.2,1.5-0.4,2.5-0.6c1.7-5.5-0.4-11.9,1.7-17.6c0.4-1.1-0.1-2.4-0.2-3.7c2-0.8,4.1-1.1,6.3-1c2.3-1.8,3.5-4.3,5.2-6.4   c0.5,2.4,1.5,2.1,3.5,2.1c1.2,1.2,2.8,1.9,4.2,2.8c-1.5,1.5-3.4,1.8-5.1,2.4c0.4,0.4,0.7,0.6,1,0.9c-2.9-0.8-17.2,1.9-11.8,6.1   c0.7-0.4,1.4-0.7,2.1-1.1c0.1,1.1-0.4,2.2,0.5,3.4c4.7-3.4,10.5-1.9,15.4-3.4c2.7,1,5.4,2.1,7.6,4.1c-0.3,0.1-0.6,0.2-1.1,0.4   c1.7,0.6,3.2,1.2,4.6,1.7c-7,1.5-13.7-4.4-21-1.2c-2.3,1-7.9,0.8-5.3,4.8c-0.8,1-3.7,3.5-1.1,4.1c1.7-3.6,4.9-2.9,7.8-5.4   c1,0,2,0,3,0c-0.4,0.3-0.9,0.6-1.3,0.8C378.4,394.2,379.6,393.6,381.2,394.4z" />
	<path display="inline" fill="#EDCABA" d="M421.3,372.4c0.6-0.7,1.4-1.4,2.1-2.1c0.3,0,0.7-0.1,1.2-0.1c0-1.1,0-2.2,0-3.3   c-0.4,0.1-0.8,0.1-1.1,0.1c0.6-0.7,0.6-0.7,1.8-0.7c0.1,1.1,0.2,2.2,0.3,3.5c0.7,0.8,1.6,1.9,2.6,2.9c-1.3,6.8-2.9,13.9-2.6,20.7   c1.3,3.6,0.4,7.4-1.3,10.5c-0.7-0.2-1.5-0.3-2.2-0.5c0.1-1.2,0.5-3.4-1.4-2.8c0-1.3-0.8-2.3-1.4-3.3l0.2-0.2c0.3,0,0.7,0.1,1.1,0.1   c0.2-0.7,0.4-1.4,0.6-2.1c-0.4-0.1-0.6-0.2-0.8-0.3c-0.3,0.3-0.6,0.7-0.9,1c0,0-0.2-0.1-0.2-0.1c-0.3-1.9-0.6-3.8-0.9-5.9   c-7.8,7.8-0.2,20-5.4,28.1c0.1-1.2,0-2.4-0.9-3.3c-1.2,0.4-0.8,1.3-1,2c-0.3-0.1-0.6-0.2-1.2-0.4c-1.5,3.8,0,8-2.3,11.5   c-1.1-1.6-2.2-3.2-3.3-4.8c0.2-1.6,0.6-3,1.7-4.1c-1-4.4,0.6-8.6,1.4-12.9c0.2,1.6,0.5,2.3,1.3,3.9c1-3.2,1.2-5.8-0.5-8.4   c1-11.2,10.5-18.7,14.7-28.7C422.1,372.6,421.7,372.5,421.3,372.4z M421.1,380.6c-2.1,2.6-2.1,4.2-1.7,7.5   C420.5,385.2,422.5,382.6,421.1,380.6z M410,410.9c-0.5,1.6-0.5,2.5,0.8,2.6C411.1,412.6,411.1,411.8,410,410.9z M419.5,392   c0.2,0.8,1,0.7,1.2,0C420.5,391.4,419.7,391.3,419.5,392z" />
	<path display="inline" fill="#5775E7" d="M390.8,388.2c-1.1-1.4-3-1.7-4.2-2.8l0,0c2.6-2.9-9-5.5-10.6-7.2c1.8-0.6,3.7-0.9,5.1-2.4   c2.5,2.1,5.2,2.8,8.2,4c0.3-0.4,0.6-0.9,0.9-1.3c0,0,0,0.1,0,0.1c0.2,0,0.4,0,0.6,0.1c5.6,5.9,17.2,13,14.7,22.2   c-0.1-0.3-0.1-0.6-0.2-1.1c-1.3-0.6-2.9-0.9-3.3-2.7c1.5,0.9,1.6,1.5,3.8,1.4c-4.2-4.3-8.9-6.1-14.7-6.2c-1.2-0.9-2.6-0.5-3.9-0.3   c-1.1,0-0.6,1.1-0.9,1.8c-5.7-2-12.4-2.1-18.2,0c-3.5-6.1,15.1-6.4,18.4-4.3c2.6,1.1,5.1,1.8,7.9,0.8c1.6-0.2,3,1.2,4.6,0.4   C399.7,386.7,393.3,389,390.8,388.2z" />
	<path display="inline" fill="#F8DDD1" d="M401.9,468.5c0.4,5.3-0.3,12.9,1.6,17.3c-1.6,8.4-3.9,16.9,3.9,22.7   c0.4,3.1,0,6.7,3.5,8.2c2,2.8,4.5,5.4,6.9,7.8c-0.6,0.6-1.2,1.4-1.8,2c-1.6,0.1-2.4-0.6-3.7-1.2c-0.9-3.2-1.7-5.8-4.8-7.7   c-1.3,1.3-2.9,1.6-4.6,1.5c-1.5,2-4.3,3.5-3.9,6.4c0,0.6-0.3,1.2-0.5,1.9c-5-5.4,5.7-13.3,0-24.8c0.5-4.8,2.3-9.5,3.3-14.3   C402.8,481.8,400.1,474.7,401.9,468.5z" />
	<path display="inline" fill="#EAC7B7" d="M398.3,502.2c5.9,11.8-4.9,19.5,0.1,25.2c0.5,3.6-0.3,7.2,1.6,10.7c-5.6-1-4.1-9.7-5.4-14   c-3.3,0.7,1.4,10.2-0.4,10.8c-2.1-1.3-2.3-3.4-3.6-5.5C391.6,520.1,395.4,511,398.3,502.2z" />
	<path display="inline" fill="#CDCDDB" d="M368.7,585.4c0.1,0.3,0.2,0.7,0.3,1.1c15.7,0,2.2,9,28.6,8.7c3.2-4.4,7.8-0.6,9.9-2.9   c0.7,0.2,1.3,0.5,2,0.7c-0.2,1-0.4,2-0.6,2.9c-9.9,1.4-25.2,3.6-33.7-2.7c-2.1-2.3-4.4-2.1-7.1-2.3   C368,589.1,367.7,587.2,368.7,585.4z" />
	<path display="inline" fill="#B6BCD4" d="M399.3,384.1c6.2-2.8,13.1-4.6,18.7-8.5c-0.9,6.5-9.9,12.4-10.6,20   C404.3,392,402.8,387.4,399.3,384.1z" />
	<path display="inline" fill="#0D0D0D" d="M380.5,569.5c-2.6-6.5,7.5-6.8,11.7-6.2c0-0.5-0.1-0.9-0.1-1.4c1.3,0.8,1.6,2.3,2.1,3.6   C387.6,565.5,385.4,565.3,380.5,569.5z" />
	<path display="inline" fill="#141828" d="M399.3,384.1c3.5,3.3,5,8,8,11.5c0,1.1-0.8,0.9-1.5,1c-3.1-7.7-9.1-12.7-15.1-18   c0.3-0.3,0.6-0.6,0.9-1c1.6,1.3,3.1,2.6,5.2,3.2C397.3,382.1,397.9,383.3,399.3,384.1z" />
	<path display="inline" fill="#C6C6CC" d="M380.5,569.5c5-4.3,7.1-4,13.7-4c0.2,0.6,0.3,1.3,0.5,2c-4.5-0.3-13.2-1.1-12.9,5.4   C380.9,572.1,380.8,570.7,380.5,569.5z" />
	<path display="inline" fill="#CDCDD3" d="M384.6,575.1c-0.7-0.5-1.4-0.9-2.1-1.4c4.3-4.4,6.9-4.7,13.4-4c0.2,0.8,0.4,1.5,0.5,2.2   C393,572.9,384.7,569.3,384.6,575.1z" />
	<path display="inline" fill="#101014" d="M366.6,426.3c1.9-4.1,5-7.5,9-9.7c0.3,0.3,0.6,0.5,0.9,0.8c-2.8,3.7-7.1,6-9.1,10.4   C367.3,427.2,367.4,426.6,366.6,426.3z" />
	<path display="inline" fill="#BEBEC4" d="M397.8,576.5c-0.5,0.5-1,0.9-1.6,1.2c0-0.3,0.1-0.7,0.1-1c-3-1.4-6.6-1.4-9.5-0.2   c-0.3-0.3-0.6-0.6-0.9-0.9c3.1-2,6.9-1.4,10.5-2C396.9,574.7,397.3,575.6,397.8,576.5z" />
	<path display="inline" fill="#2A2828" d="M460.8,375.8c-0.1-3.8-0.1-7.6-0.2-11.1c-1.8-1.7-3.4-3.2-4.9-4.7   c0.3-0.3,0.6-0.6,0.9-0.9c2.1,1.8,4.6,3.7,5.4,6.3C460.2,368.6,462.6,373,460.8,375.8z" />
	<path display="inline" fill="#CFCFCF" d="M373.4,566.8c-0.7-1.2-1.3-2.3-2-3.5c1.6-0.8,3.2-0.2,5-0.4   C376,565,375.1,566.2,373.4,566.8z" />
	<path display="inline" fill="#4861BE" d="M371.7,442.3c-3.4-2.2-4.2-3.2-5.4-6.8C368.2,436,368.2,436,371.7,442.3z" />
	<path display="inline" fill="#1C2548" d="M361.8,417.3c0.8-0.8,1.5-1.6,2.3-2.4c0.2,1.3,0.2,1.3-1.6,3.8   C362.3,418.3,362,417.8,361.8,417.3z" />
	<path display="inline" fill="#1C2548" d="M361.1,412.5c0.2,0,0.5,0,0.7,0l0,0c0,1.2,0,2.3-0.1,3.5   C360.7,414.9,361.2,413.6,361.1,412.5z" />
	<path display="inline" fill="#CDCDDB" d="M369.4,583.4c0,0.8,0.3,1.7-0.7,2.1C368.6,584.7,368.7,583.9,369.4,583.4z" />
	<path display="inline" fill="#EDCABA" d="M420.5,368.7c0.1,0.8,0.5,1.7-0.5,2.3C419.8,370.1,419.8,369.3,420.5,368.7z" />
	<path display="inline" fill="#141828" d="M406.1,399.3c0-0.7,0-1.4,0-2.1C407,398.3,407,398.3,406.1,399.3z" />
	<path display="inline" fill="#232E57" d="M363.6,432.8c0,0.3,0,0.5,0,0.8c-0.4,0.1-0.2-0.5-0.2-0.8   C363.5,432.8,363.6,432.8,363.6,432.8z" />
	<path display="inline" fill="#EDCABA" d="M419.9,373c0.2,0,0.5,0,0.7,0.1c-0.2,0.3-0.4,0.5-0.6,0.8C420,373.6,420,373.3,419.9,373z   " />
	<path display="inline" fill="#212C53" d="M364.5,427.7c0.2-0.6,0.8-0.7,1.4-0.7C365.7,427.7,365.1,427.7,364.5,427.7z" />
	<path display="inline" fill="#1C2548" d="M360.4,411.7c0.2,0.2,0.4,0.5,0.7,0.7C360.9,412.2,360.7,412,360.4,411.7z" />
	<path display="inline" fill="#1C2548" d="M362.3,419.3c-0.2,0.3-0.3,0.5-0.5,0.8C362,419.9,362.2,419.6,362.3,419.3z" />
	<path display="inline" fill="#EDCABA" d="M420.6,373.1c0.2-0.3,0.4-0.5,0.6-0.8C421.1,372.6,420.8,372.9,420.6,373.1z" />
	<path display="inline" fill="#212C53" d="M365.9,427c0.2-0.2,0.5-0.5,0.7-0.7C366.3,426.5,366.1,426.7,365.9,427z" />
	<path display="inline" fill="#FBDFD3" d="M495.9,441.5c0.8-3.5,1.5-6.9,2.3-10.3c4.1-3.7,6-8.8,9.5-13.1   c18.7,17.2,29.9,16.7,18.3,44.9c0.4,21.2-7.5,40.7-13.6,60.7c-3.5,8.1-2.8,17.8-7.4,25.3c-1.3,2-1.3,2-1.7,4.1   c-1.8,1.3-3.9,0.5-5.9,0.6c-0.5-0.4-1-0.7-1.5-1.1c1.8-2.5,1.7-4.7,0.2-7.2c0.4-0.5,0.8-0.9,1.3-1.4c0.1-0.8,0-1.7-0.3-2.4   c0.4-0.4,0.7-0.8,1-1.2c0.1-0.8,0.2-1.5-0.6-2c3.8-9.2,2.7-20.1,0.7-29.8c-2.2-19.4,0-38.3,8.7-55.9c1.7-0.1,3.3-0.2,4.8-0.3   C512.2,443.4,500.5,446.2,495.9,441.5z M522.4,442c-1.1,2.2-5.2-1.6-7.6,1.1c1.3,4.9,6.9,5.6,10.5,3.4c0.8,0.4,1.5,0.7,2.2,1.1   c0.4-0.9,0.8-1.6,1.1-2.4c-0.8-1.8-1.7-4.2-4.1-3.8C523.7,439.7,521.8,439.9,522.4,442z M514.9,484c1.7-1.3,1.6-12.3-0.2-13.5   C514.2,474,514.3,481.4,514.9,484z M523.5,439.6c0.6-2.6,0.3-4.5-1.6-5.9c-0.4,0.3-0.7,0.5-1.2,0.9   C521.4,436.3,521.7,438,523.5,439.6z M512.1,492.7c0.4-1.6,2.2-3.5,0.2-3.9C511.4,490.8,511.4,490.8,512.1,492.7z M520.3,431.8   c-0.6-0.7-0.8-0.8-1.4-0.2C519.3,432.4,519.5,432.4,520.3,431.8z M512.6,466.1c0.2,0,0.3,0,0.5,0c0-0.7-0.1-1.3-0.1-2   c-0.2,0-0.3,0-0.5,0C512.6,464.7,512.6,465.4,512.6,466.1z M511.1,496c-1.2,0.1-1.7,0.6-0.9,1.7C510.5,497.1,510.8,496.6,511.1,496   z M507.4,501.2c-0.4,0.6-0.9,1.1,0,1.7C508,502.4,508.2,501.9,507.4,501.2z" />
	<path display="inline" fill="#40A6CA" d="M450.3,519.1c2.9,9.9-26.8,19.7-34.5,15.4c0.6-0.4,1-0.9,0.1-1.4c-4.2,1.9-8.3-2.1-12-3.3   c-0.7-1.1-1.2-2-1.8-3.2c4,0,7.2,3.7,11,1.4c1.4,0,2.7,0,4.1,0c2.9-1.7,3.4-5.3,0.2-6.7c-3.1-1.5-3.8-5.7-6.9-7.2   c-1.7-5.2-1.4-8.7-6.3-11.8c-6.7-34.9,42.5-23.2,46.7,2.5c-0.5,0.5-0.8,0.9-1.1,1.2c-0.6,5-4.6,7.9-7.7,11.5c4-1.5,6.8-5.8,9.6-9.2   c0.3,1.5,0.5,2.8,0.7,4.2c-0.9,0.9-1.7,1.6-2.7,2.5C449.8,516.3,449.1,518.1,450.3,519.1z M436.5,525.3c0.2-0.3,0.5-0.6,0.7-0.9   c-1.1-1.2-1.7,0.2-2.4,0.9c-0.7,0.2-2,0.4-1.2,1.5C434.6,526.3,435.5,525.8,436.5,525.3z M422.9,530.3c-1.1,0.8-2.8,0-3.5,1.7   C421.1,532.4,422.4,532.1,422.9,530.3z M425.8,491c-1.1-0.8-4.7,0.2-3.3,1.8C423.5,492,425.1,492.4,425.8,491z M414,495.9   c1.2,0,2.2-0.3,3.1-1.9C415.6,494.5,414.6,494.8,414,495.9z M408.6,499.4c-1-0.3-1.5-0.1-1.5,1.1   C407.7,500.1,408.2,499.8,408.6,499.4z" />
	<path display="inline" fill="#E4E4EB" d="M520.1,562.8c0.2,0.3,0.3,0.6,0.6,1.1c-1.8,1.4-4.4,1.9-5.3,4.7c0.4,0.4,0.8,0.9,1.3,1.4   c2.4-1.3,4.2-3.6,7.3-3.8c0.2,0.3,0.6,0.7,0.9,1c-0.9,1.6-5.4,2-2.6,4.5c1.5-0.6,3-1.3,4.7-2.1c0.7,0.5,1.4,1,2.2,1.6   c-1.3,0.9-2.9,0.8-3.6,2.1c0.8,2.7,4.2-0.4,6.2-0.7c2.6,1.9,6.5,1.5,9.7,2.6c7,12-34.1,9.1-36.6,2.1c-1.3,0-2.4,0-3.5,0   c-1.7,1.6-3.7,2.7-5.7,3.9c-1.4,0.8-2.6-0.5-4-0.6c-1.4,0-3.3-0.6-4.3-1.6c0.6-5.8,1.2-10.8,0.3-16.5c1.7-2.5-0.3-6.4,1.4-8.8   c8.2,9.4,9.7,6.7,17.2-1.1c0-2.1,0-2.1,1.6-4c2.2,0.2,4.5,0.3,6.7,0.2c1.3,2.8,0.4,5.7,1.4,8.2c-2.9,2-10.7,1.9-10,6.2   c1,0.8,2,0,3,0c0.3,0.3,0.6,0.6,0.9,0.9c-0.9,1.9-0.9,1.9,0.7,3.1c2.9-1.5,6.2-2.4,8.8-4.6C519.7,562.7,519.9,562.7,520.1,562.8z" />
	<path display="inline" fill="#EDCABA" d="M496.7,551c-0.2,0.4-0.4,0.8-0.8,1.5c0.5,0.3,1,0.7,1.5,1.1c-1.8,0-3.7,0-5.6,0   c-0.6-1-1.1-2,0.1-3c5.1-22.8,2.3-46.7,1.4-69.9c1-10.6,20.2-30.3-1.6-29.9c1.3-3.4,3.2-6,4.3-9.4c4.6,4.7,16.3,2,15.7,11   c-1.5,0.1-3.1,0.2-4.8,0.3c-15.7,28.4-5.5,53.2-8.1,82.2c-1.4-0.6-2,1.5-0.7,2.1c-0.2,0.4-0.5,0.9-0.7,1.3c-1.3,0.5-0.8,2.6,0.6,2   c-0.3,0.4-0.6,0.7-1,1.2c0.1,0.3,0.2,0.6,0.4,1c-1.5-0.5-1.6,1.8,0,1.4c-0.4,0.5-0.8,0.9-1.3,1.4c0.2,0.5,0.4,1,0.6,1.5   c-1.8,0.9-1.4,2.5-1.3,4.1C495.9,550.9,496.3,551,496.7,551z M501.3,450.9c0.7,1.8,2.8,2,4.2,0.5   C504.3,450.1,503,449.9,501.3,450.9z M509,451.1c-1-0.6-1.5-0.9-2.1-1.2c-0.2,0.4-0.4,0.7-0.5,1C507,451.5,507.6,452.1,509,451.1z" />
	<path display="inline" fill="#CECEDC" d="M487.6,562.5c0.8,5.7,0.2,10.7-0.3,16.5c0.9,0.9,2.9,1.5,4.3,1.6c1.4,0,2.6,1.3,4,0.6   c2-1.2,4-2.3,5.7-3.9c1.1,0,2.2,0,3.5,0c4.6,7,32,8.5,37.7,1.8c3.5,7.2-11.2,8.1-15.7,7.6c-2.3-0.2-4.2-2.1-6.6-1.3   c-5.3,0.9-9.5-2.6-15-3c-6.5,2.3-15.3,1.4-21.6-1.2C486.3,575.2,485.5,568.5,487.6,562.5z" />
	<path display="inline" fill="#0D0D0D" d="M520.1,562.8c-0.2,0-0.5-0.1-0.9-0.2c-2.5,2.2-5.9,3-8.8,4.6c-1.6-1.2-1.6-1.2-0.7-3.1   c2.5-1.3,6.8-1.1,8.3-3.5C519.1,561.1,519.9,561.7,520.1,562.8z" />
	<path display="inline" fill="#181D1F" d="M449.8,505.9c0.3-0.3,0.6-0.6,1.1-1.2c-0.6-3.6-2.8-7.3-4.6-10.6c0.7-0.2,0.6-0.8,0.6-1.3   c2.8,3.3,4.7,7.6,5.5,11.7C451.6,505.2,451.1,506.3,449.8,505.9z" />
	<path display="inline" fill="#C0C0C6" d="M518.2,560.6c-1.5,2.4-5.8,2.2-8.3,3.5c-0.3-0.3-0.6-0.6-0.9-0.9c2.5-1.5,5.2-2.4,7.6-3.8   C517.2,559.9,517.7,560.2,518.2,560.6z" />
	<path display="inline" fill="#E7E7E7" d="M497.7,558.3c-1.1-0.8-1.9-1.4-3-2.2c2.1-0.5,2.7-0.1,4.8,0   C498.9,556.8,498.4,557.4,497.7,558.3z" />
	<path display="inline" fill="#CECEDC" d="M489,553.6c-1.9,2.1,0.5,6-1.4,8.3c0.6-3.2-1.3-7.4,1.1-9.8   C488.9,552.7,489,553.2,489,553.6z" />
	<path display="inline" fill="#0E181B" d="M445.4,514.1c0.9-1.2,1.8-2.4,2.7-3.6c0.3,0.3,0.6,0.6,0.9,1c-0.8,1.5-2.1,2.6-3.6,3.5   C445.4,514.7,445.4,514.4,445.4,514.1z" />
	<path display="inline" fill="#A39189" d="M454.4,520.4c-0.6,0.4-1.7,2-2.2,0.7C452.5,520,453.9,518.7,454.4,520.4z" />
	<path display="inline" fill="#1C1B1B" d="M517.8,401.3c0.3-0.2,0.6-0.5,0.9-0.7C518.7,401.1,518.3,401.3,517.8,401.3z" />
	<path display="inline" fill="#1C1B1B" d="M518.6,400.6c0.3-0.2,0.5-0.5,0.8-0.7C519.4,400.4,519.1,400.6,518.6,400.6z" />
	<path display="inline" fill="#1C1B1B" d="M519.4,399.9c0.2-0.2,0.5-0.5,0.7-0.7C519.9,399.5,519.6,399.7,519.4,399.9z" />
	<path display="inline" fill="#1C1B1B" d="M520.1,399.2c0.2-0.2,0.5-0.5,0.7-0.7C520.5,398.8,520.3,399,520.1,399.2z" />
	<path display="inline" fill="#141A34" d="M386,378.5c-3.3-1-6.2-3.5-9.1-5.5c1.7-0.4,3.1,0.6,4.6,1.1c-0.1-1.9,0.8-3.8-0.5-5.3   c0.7-1.3,1.3-0.2,2,0c-0.6,2-0.7,3.7,0.3,5.6c0.7-0.2,1.3-0.5,1.8-0.7c0.2,0.6,0.5,1.3,0.7,1.9c-0.6-0.2-1.1-0.3-2.2-0.7   c1,1.3,1.6,2.1,2.9,2.1C387.2,377.9,386.5,378.1,386,378.5z" />
	<path display="inline" fill="#5470DD" d="M381.1,368.9c1.3,1.5,0.4,3.4,0.5,5.3c-2.8-2.3-7.5,0.6-8.1-3.3l0,0   C376.4,371.4,378.7,370.4,381.1,368.9z" />
	<path display="inline" fill="#475FBB" d="M383.1,373.2c-1.8-4,2.1-7.6,6.4-7.9c-0.6,1-1,1.8-1.4,2.5c-0.6-0.1-1.1-0.2-1.8-0.4   c-0.1,0.7-0.2,1.4-0.3,2c-0.2,0.3-0.4,0.5-0.7,0.8c-0.2,0-0.5,0-0.7,0c-0.1-0.1-0.3-0.3-0.4-0.4c-0.2,0.4-0.4,0.7-0.3,1.1   c-0.8,0.4-0.4,0.6,0.1,0.7c0,0.2,0.1,0.3,0.1,0.5C383.8,372.5,383.4,372.9,383.1,373.2z" />
	<path display="inline" fill="#4963C2" d="M383.1,373.2c0.4-0.3,0.7-0.7,1.1-1c1.7,0.2,1.8,0.3,1.2,1.6c-0.6,0.2-1.1,0.4-1.8,0.7   C383.3,374,383.2,373.6,383.1,373.2z" />
	<path display="inline" fill="#4B65C5" d="M378.4,370.3c-1.4,1.2-3.2,0.5-4.9,0.6C374.9,369.9,376.7,370.4,378.4,370.3z" />
	<path display="inline" fill="#344689" d="M386.7,377.2c-1.2,0-1.9-0.8-2.9-2.1C385.4,375.6,386.9,375.4,386.7,377.2z" />
	<path display="inline" fill="#4963C2" d="M384,371.7c-0.5-0.2-0.9-0.4-0.1-0.7C384.4,371.1,384.6,371.4,384,371.7z" />
	<path display="inline" fill="#141A34" d="M385.3,370.3c0.2-0.3,0.4-0.5,0.7-0.8C385.7,369.7,385.5,370,385.3,370.3z" />
	<path display="inline" fill="#141A34" d="M384,370.3c0.1-0.2,0.1-0.3,0.2-0.5c0.1,0.1,0.3,0.3,0.4,0.4   C384.4,370.3,384.2,370.3,384,370.3z" />
	<path display="inline" fill="#5775E7" d="M390.2,378.5c-0.1,0-0.2-0.1-0.3-0.1C390,378.5,390,378.5,390.2,378.5L390.2,378.5z" />
	<path display="inline" fill="#2D8FB9" d="M415.8,534.4c12.2,3.7,25.3-3.1,34.5-11.2c-5.1,17.5-26.5,27-42.9,19.3   c-5.1-1.2-6.9-5.8-6.8-10.7c0.4,0,0.8-0.1,1.3-0.1c-2.7-3.1-2.6-10.7,2.6-10.6c3.6,1.2,5,5.4,8.6,6.9c-3.8,2.4-7-1.4-11-1.4   c0.7,1.2,1.2,2,1.8,3.2c3.1,1.1,6.4,3.5,9.9,3.9C414.1,534.6,415.1,534.2,415.8,534.4z M403.2,535.3c0.9,2.5,0,3.6,2,4.6   C405.4,538.1,404.8,536.9,403.2,535.3z" />
	<path display="inline" fill="#060708" d="M413.1,528c-4.2-1.3-6.5-9.2-11.2-6.2c-0.2-0.2-0.4-0.4-0.6-0.7c0.2-0.4,0.5-0.8,0.7-1.2   c7.2-1.9,7.1,6.6,14,6.6c0.6-0.7,1.3-1.4,1.8-2c-2.4-2.4-4.9-5-6.9-7.8c-3.5-1.4-3.1-5-3.5-8.2c-9-6.8-5.4-19.5-1.4-28.4   c0.3,0.5,1,0.8,0.8,1.5c0.4,0.5,0.9,0.9,1.3,1.4c-4.9,3.7-2.6,11.2-4.6,16.3c-0.7,1.1-0.3,2.2,0.7,3.1c4.9,3.2,4.5,6.6,6.3,11.8   c3.1,1.5,3.8,5.7,6.9,7.2c3.2,1.4,2.7,5-0.2,6.7C415.8,528,414.4,528,413.1,528z" />
	<path display="inline" fill="#020202" d="M406.7,481c-0.3-0.3-0.5-0.6-0.8-0.9c2.5-12.4,10.3-22.9,10.2-35.9   c-0.5-0.1-0.9-0.1-1.3-0.2c-0.5-2.5-0.4-3.4,0.8-5.7c0.8,1,0.8,1,1,3.2c13-7.5,20.4-18,21.5-33.2c19.2-20,21.8-13,23.9-42.8   c2.9,14.7-0.5,24.8-11.7,34.5c-3.5,0.6-4.9,3.6-6.7,5.9c6.4,5.1,14.7-2.2,21.9-1.5c0.7,0.7,1.4,1.3,1.6,1.5   c17.7,5.7,35.3-6.2,39.7-23.8c-0.4-0.2-0.9-0.5-1.4-0.8c-0.9,0.6-1.8,1.2-2.2,1.5c-4.2,11-16.5,17.8-27.5,15   c-0.8,0.6-1.3,1-1.9,1.4c0-0.4,0-0.8-0.1-1.2c0.1-0.2,0.2-0.3,0.3-0.5c-2.2-1.3-6.3-1.4-6.5-4.6c0.2-3.3-0.8-7.1,0.6-10.1   c1.2,3.6,0.7,7.2,1.4,11c2.1,0.8,4,1.5,5.7,2.2c1.1-0.4,1.3-2,2.7-1.1c-0.3,0.6-0.6,1.1-0.8,1.5c8.6,3.3,20.4-5.1,23.8-13.2   c-2.4-2.5-6.2-1.6-8.1-4.5c-0.5-0.7-1.3-1.2-2.3-1.2c-0.3-0.2-0.5-0.5-0.8-0.7c0.8-0.4,1-1.1,0.6-1.7c-3.1-7.4-5.1-16.3-2.7-24   c0.3,0.1,0.7,0.1,1.1,0.2c-0.9,10.6,0.4,27.4,13.1,29.8c0.2-0.1,0.6-0.4,0.9-0.5c0-1.6-2.6-1-2-3c2.2-0.3,4,3.3,6,1.4   c0.2-0.6,0.1-1.4,1-1.7c0.6,0.5,1.3,1,1.9,1.5c-0.4,0.4-0.7,0.8-1.4,1.5c0.2,2.6-0.6,5.7-1.1,8.4c-2.3,0.9-2.6,3.6-4,5.3   c-0.8,0.5-0.8,1,0,1.5c0.4,0.5-0.3,0.9-0.6,1.3c-0.2,0-0.5,0.1-0.7,0.1l0,0c-0.1-0.2-0.2-0.3-0.3-0.5   c-13.7,18.8-18.9,1.5-23.6,33.3c-0.7-0.6-1.3-1-2-1.5c-17.9,17.3-9,49.5-29.4,64.9c0,0.5,0,1.1-0.6,1.3c-0.5-0.7-1-1.3-1.5-2   c12.3-9.7,16.3-31.4,18.6-46.4c-5.4,2.7-10.4,4.2-16.3,5c-6.9-4.5-12.7-10.8-20.8-12.9c-2.8,1.9-5.6,3.9-8.4,5.9   C417.4,457.2,413,469.2,406.7,481z M462,415.9c0.5,0.1,1.2,0,1.4,0.7c-9.5,3.6-18.8,11.4-17,22.5c5.9,3,12.2,1.2,18.4,3.3   c1.5-3.1,3.5-5.8,4-9.2c6.9-6.2,9.6-11.4,11.1-20.5c-1.4,0-2.7-0.1-3.9-0.1c-0.3-0.3-0.6-0.5-0.9-0.8c2-0.4,4.5,0.6,5.9-1.2   c-7.4,0-15.1-4.8-22.3-2.4c-6.2,2.6-12.5,2.5-18.9,0.4c-1.2,10.1-3.8,20.4-11.6,27.6c7.6,2.2,13,7.6,19.4,11.8   c1.9-0.3,3.9-0.7,6.5-1.2c-3.8-1.8-8.7-1.1-9.3-5.7C442.4,429.7,450.4,417.6,462,415.9z M460,443.9c-5.1-0.5-8.2-1.1-13.4-2.6   C448.6,444.2,457.7,446.1,460,443.9z" />
	<path display="inline" fill="#EDC9BA" d="M446.8,492.8c20.4-15.3,11.5-47.5,29.4-64.9c0.7,0.5,1.2,1,2,1.5   c2.9-8.4,1.1-21,12.2-23.3c-1.9,5.3-4.4,10.5-6.1,15.9c-1,5.2,0.2,11.1-4.8,14.6c-0.6,0-1.4,0-2.2,0c0-0.9-0.4-1.5-1.4-1.4   c0.3-0.4,0.7-0.8,1.3-1.4c-6,1.9-10.2,25.1-13.2,31.6c-1.4,12.1-8.7,20.4-15,30.1C448.3,494.6,447.5,493.7,446.8,492.8z    M477.1,429.9c-1.9,0.3-2.1,1.1-0.5,3.4C477.7,432.2,477.5,431.1,477.1,429.9z" />
	<path display="inline" fill="#EAC7B7" d="M495,403.4c2.4-2.1,5.3-3.5,6.6-6.6l0.3,0l0.2-0.1l0,0c0.2,0.2,0.5,0.3,0.7,0.5   c0,2.6,0.4,5.3-0.6,7.8c-0.9,0.4-1.8,0.9-2,2C497.3,407.7,497.1,404.2,495,403.4z" />
	<path display="inline" fill="#242120" d="M459.8,485.7c-0.4,1.6-0.9,2.8-2,3.5c-2.6-0.3-0.5-3.7,1.1-4.1   C459.1,485.2,459.4,485.4,459.8,485.7z" />
	<path display="inline" fill="#352F2D" d="M511.7,402.6c0.8,2.4-1.7,3.3-3.9,2.9C508.7,403.8,510.3,403.6,511.7,402.6z" />
	<path display="inline" fill="#443D3A" d="M482.8,436.8c0.2,0,0.5,0,0.7,0c0,0.2,0,0.5,0.1,0.7c-1.6,1.7-1.6,1.7-3.1,1.8   C480.3,437.8,481.8,437.4,482.8,436.8z" />
	<path display="inline" fill="#403936" d="M469.6,453.1c-0.1-1.6,0.9-2.4,2-3.7C471.9,451.5,470.9,452.4,469.6,453.1z" />
	<path display="inline" fill="#4B4441" d="M504.3,404.9c0.7,0,1.4-0.8,2.1,0.1c-0.6,1.1-1.6,1.3-2.8,1.2   C503.9,405.8,504.1,405.3,504.3,404.9z" />
	<path display="inline" fill="#473D39" d="M500.2,406.9c0.2-1.1,1.1-1.6,2-2c0.1,0.1,0.3,0.1,0.5,0.1c0.1,0.4,0.2,0.8,0.2,1.3   C501.9,406.3,501.3,407.4,500.2,406.9z" />
	<path display="inline" fill="#564D4A" d="M487.7,434.1c-0.1,1.4-0.7,1.8-1.7,1.9C485.2,435.1,486.4,433.9,487.7,434.1z" />
	<path display="inline" fill="#47403C" d="M475.9,435.3c1.1-0.1,1.4,0.5,1.4,1.4C475.7,437.9,475.5,436.4,475.9,435.3z" />
	<path display="inline" fill="#0A0909" d="M460.4,482.8c-1-0.9-0.2-1.8,0.7-1.3C460.9,481.9,460.7,482.3,460.4,482.8z" />
	<path display="inline" fill="#EAC7B7" d="M502.9,406.3c-0.1-0.4-0.2-0.8-0.2-1.3c0.6,0,1.1-0.1,1.7-0.1c-0.2,0.4-0.4,0.9-0.6,1.3   C503.4,406.2,503.1,406.2,502.9,406.3z" />
	<path display="inline" fill="#645A56" d="M461.4,480.2c0.4-0.5,0.7-0.8,1.4-1.6C462.5,480.2,463,480.4,461.4,480.2z" />
	<path display="inline" fill="#9D8D86" d="M468.3,456.9c-0.4,0.3-0.7,0.7-1.1,0.2c0.2-0.2,0.4-0.4,0.6-0.7   C468,456.5,468.1,456.7,468.3,456.9z" />
	<path display="inline" fill="#1F1C1B" d="M506.6,390.5c0.7,0.6,0.8,1.2,0.1,1.8C505.9,391.8,505.9,391.2,506.6,390.5z" />
	<path display="inline" fill="#635A56" d="M464.1,475c0,1.2-0.5,1.2-0.5,0C463.8,475,463.9,475,464.1,475z" />
	<path display="inline" fill="#49423E" d="M503.4,395.2c-0.8-0.5-0.8-1,0-1.5C503.4,394.2,503.4,394.7,503.4,395.2z" />
	<path display="inline" fill="#514845" d="M483.6,437.5c0-0.2,0-0.5-0.1-0.7C484.4,437,483.9,437.2,483.6,437.5z" />
	<path display="inline" fill="#514845" d="M482.8,436.8c-0.3,0.2-0.6,0.4-1,0.5C482.2,437.1,482.5,436.9,482.8,436.8z" />
	<path display="inline" fill="#49423E" d="M502.9,396.5c0.2-0.2,0.4-0.5,0.6-0.7C503.5,396.3,503.3,396.5,502.9,396.5z" />
	<path display="inline" fill="#49423E" d="M502.8,397.1c-0.2-0.2-0.5-0.3-0.7-0.5c0.2,0,0.5-0.1,0.7-0.1   C502.9,396.7,502.9,396.9,502.8,397.1z" />
	<path display="inline" fill="#B6BCD4" d="M473.8,397.9c0.2,1.6,0.1,3.3-1.1,4.5c6.7,4.7,15.3-1.1,22.6-1.7   c-8.7,5.4-18.1,8.6-28.2,5.1c-0.3-0.3-0.9-0.9-1.6-1.5c-7.2-0.6-15.5,6.7-21.9,1.5c1.8-2.3,3.2-5.2,6.7-5.9   C457.6,405.2,466.1,398.7,473.8,397.9z M472.6,400c-2.7,0.2-4.5,0.5-5.6,2.7C469.2,402.8,469.9,402.4,472.6,400z" />
	<path display="inline" fill="#2E2F34" d="M397.1,378.1c0.5-1.6,1.7-2.4,3.2-3.1C400.8,376.7,398.7,379.6,397.1,378.1z" />
	<path display="inline" fill="#383A40" d="M440.6,350.4c-1.5-2.6,0.9-3.3,3.2-3.2C443.1,348.6,442,349.2,440.6,350.4z" />
	<path display="inline" fill="#3B3D43" d="M405.7,365.7c0.7,1.1,0.2,1.5-0.6,1.8C404.3,366.7,404.6,366.2,405.7,365.7z" />
	<path display="inline" fill="#3A3B41" d="M403.8,369.4c-0.7,1.1-1,1.6-1.4,2.2C401.8,370.1,401.8,370.1,403.8,369.4z" />
	<path display="inline" fill="#61646E" d="M401.3,374.4c-0.7-1.5-1-1.4,0-2C402,373.2,401.7,373.3,401.3,374.4z" />
	<path display="inline" fill="#676974" d="M451.6,344.9c-0.3,0.4-0.6,0.6-0.9,1C450.3,344.8,450.3,344.8,451.6,344.9z" />
	<path display="inline" fill="#575A63" d="M456.3,341.5c-0.3,0.5-0.5,0.4-0.9,0.2C455.6,341.2,455.8,341.3,456.3,341.5z" />
	<path display="inline" fill="#1F2023" d="M446.2,346.4c-0.3,0.1-0.5,0.3-0.7,0C445.7,346.2,446,346,446.2,346.4z" />
	<path display="inline" fill="#333439" d="M447.8,345.5c0.1,0,0.2,0,0.2,0c0,0.2-0.1,0.3-0.1,0.5   C447.7,345.9,447.6,345.8,447.8,345.5z" />
	<path display="inline" fill="#B6BCD4" d="M399.2,384c-0.2-0.2-0.4-0.4-0.7-0.6C398.7,383.6,398.9,383.8,399.2,384z" />
	<path display="inline" fill="#181514" d="M501.3,361.5c4.9,1.5,6.7,6.3,11.9,6.7c-1.5,2.5-6,1.2-8.2-0.3c0-0.7,0.1-1.2,0.1-1.7   C504,364.6,501.5,364.1,501.3,361.5z" />
	<path display="inline" fill="#3D3734" d="M507.9,377.1c-0.9,0.2-0.7,1.1-1,1.7c-0.6-1.7-2.1-2.5-1.8-4.3   C506.6,375,507.2,376.1,507.9,377.1z" />
	<path display="inline" fill="#4F4643" d="M489.7,341.8c1.1,0.4,0.6,1.4,0.8,2.2c-0.7,0.7-1.4,1.4-2.1,2.2c-0.1-0.8,0-1.5,0-2.3   C489.1,343.2,490,342.9,489.7,341.8z" />
	<path display="inline" fill="#221E1C" d="M488.4,345.4c0,0.8,0.6,2.3-0.9,2.2c-0.7-0.8,0.1-1.4,0.2-2.2   C487.9,345.3,488.1,345.3,488.4,345.4z" />
	<path display="inline" fill="#FBDFD3" d="M499.4,382c0.7,0.2,0.9,0.5,1.6,1.1c-3.4,8-15.2,16.4-23.8,13.2c0.3-0.5,0.5-1,0.8-1.5   c-1.4-0.9-1.6,0.7-2.7,1.1c-1.7-0.7-3.6-1.4-5.7-2.2c-0.7-11.1-4.4-22.6,0.8-33.1c1.9,0.9,3.7,0.1,5.5,0.6c0.4-0.2,0.9-0.4,1.3-0.6   c1.2-2.2,3.4-3.5,5.1-5.5c0.7,0.7,1.3,1.3,1.8,1.9c-2,7.5-4.2,14.9-1.3,22.4c-1.4,1.6,0.1,3.5,1.3,1.2c0,0,0,0,0,0   c0.8,0.6,1.6,1.3,2.7,2.1C490.8,382.7,495.1,383.1,499.4,382z M484.8,384c-1.8-0.9-3.6-1.5-5.4-1.6   C478.2,385.1,483.2,385.5,484.8,384z M475.2,366.2c1-2.2,1-2.2-0.3-2.9C474.2,364.2,474.2,365,475.2,366.2z" />
	<path display="inline" fill="#2F2A28" d="M483.6,381.3c-1.4,1.2-1.6-1.2-0.8-2c1.4-0.1,1.4-0.1,1.3,1.2c0,0,0,0,0,0   C484,380.8,483.8,381.1,483.6,381.3z" />
	<path display="inline" fill="#2B2724" d="M477.3,360.6c-0.4,0.2-0.9,0.4-1.3,0.6c-0.2-1-0.6-1.9,0.3-2.9   C477.9,358.5,477.1,359.8,477.3,360.6z" />
	<path display="inline" fill="#453A35" d="M489.8,376.6c0.3,0.2,0.5,0.5,0.8,0.7c-0.5,0.7-1.2,0.9-2.2,0.3   C488.9,377.2,489.4,376.9,489.8,376.6z" />
	<path display="inline" fill="#352D2A" d="M485.1,378.2c0.3-0.6,1.3-0.7,1.4,0.1C486,378.8,485.6,378.8,485.1,378.2z" />
	<path display="inline" fill="#DDC4BA" d="M516.7,373.7c-1.5-0.9,1.3-3.9,2.7-3.4C520.1,372,517.7,372.7,516.7,373.7z" />
	<path display="inline" fill="#080707" d="M489.1,343.3c-0.2,0.2-0.4,0.4-0.6,0.6c0-2.1,0-4.3,0-6.4   C489.4,339.3,488.9,341.3,489.1,343.3z" />
	<path display="inline" fill="#EDCABA" d="M381.2,445.6c0.7-0.4,1.3-0.8,2-1.3c4.9,0.6,7.9,10.9,3.1,13.3c-2.2-0.9-3-3-4.7-4.4   c0.2-1.3,0.2-1.3-1.1-1.2c0-0.2-0.1-0.4-0.2-0.6c2-1,0.5-3.8,0.7-5.5L381.2,445.6z" />
	<path display="inline" fill="#413733" d="M372.1,478.7c-0.4,1.2-0.5,2.1-1.7,2.8c-0.8-3.1-0.1-5.6,1.3-7.9   C374,474.3,372.1,477.2,372.1,478.7z" />
	<path display="inline" fill="#2D2826" d="M397.7,469.1c0.1,3.7-1.6,6.1-3.8,8.1C394.1,474.3,394.3,473.9,397.7,469.1z" />
	<path display="inline" fill="#0E0C0C" d="M394.8,453.6c-0.8-2.9-0.8-5.9-0.6-8.9C397.1,444.1,395.3,451.9,394.8,453.6z" />
	<path display="inline" fill="#2F2927" d="M391.7,429.7c1.4,0.7,1.7,1.7,1.7,4.9C391.4,433.9,391.2,431.6,391.7,429.7z" />
	<path display="inline" fill="#2D2826" d="M398.7,439.8c-0.9-1.2-0.9-1.2-0.2-2.3C399.8,438.5,399.8,438.5,398.7,439.8z" />
	<path display="inline" fill="#6C605B" d="M393.3,481.2c0.3,1.3,0,2.1-0.9,3C392,482.9,391.9,482,393.3,481.2z" />
	<path display="inline" fill="#746762" d="M396.1,435.7c-1.1,0.7-1.3-0.2-1.6-0.7C395.4,434.2,395.7,434.9,396.1,435.7z" />
	<path display="inline" fill="#A4928A" d="M390.2,490.5c0.6,0.9,0.6,1.1-0.3,1.3C389.3,491.5,389.7,491.1,390.2,490.5z" />
	<path display="inline" fill="#5B514C" d="M380.5,452c1.3-0.2,1.3-0.2,1.1,1.2C381.2,452.7,380.8,452.4,380.5,452z" />
	<path display="inline" fill="#AE9A92" d="M391.3,487.7c-0.8-0.4,0.1-1.4,0.6-0.8C391.7,487.2,391.5,487.4,391.3,487.7z" />
	<path display="inline" fill="#534A46" d="M454.4,370.7c-0.4,0.1-0.7,0.3-1,0.4c-0.9-1.1-1.6-2.1-1-3.5   C454,367.6,454.1,369.5,454.4,370.7z" />
	<path display="inline" fill="#090707" d="M410.9,416.6c0.2-0.7-0.2-1.6,1-2c0.9,0.9,0.9,2.1,0.9,3.3c-0.4,0-0.7,0-1.1,0   C411.5,417.5,411.2,417,410.9,416.6L410.9,416.6z" />
	<path display="inline" fill="#1C1918" d="M428.1,406.3c1.8,0.2,3,0.3,4.4,0.4C431.1,408.3,430.3,408.3,428.1,406.3z" />
	<path display="inline" fill="#2C2725" d="M423.4,367c0.3,0,0.7-0.1,1.1-0.1c0,1.1,0,2.2,0,3.3c-0.5,0-0.9,0.1-1.2,0.1   C423.4,369.2,423.4,368.1,423.4,367z" />
	<path display="inline" fill="#282321" d="M420.5,400.7c1.9-0.6,1.5,1.7,1.4,2.8c-0.7,0.3-1.2-0.2-1.5-0.7   C420.5,402.1,420.5,401.4,420.5,400.7C420.5,400.7,420.5,400.7,420.5,400.7z" />
	<path display="inline" fill="#6B605A" d="M449.4,366.8c-1.3,0-1.7-0.7-1.9-1.8C448.7,365.2,448.7,365.2,449.4,366.8z" />
	<path display="inline" fill="#72655F" d="M414.8,429.5c-0.8,0-0.7-0.8-0.8-1.3C414.9,427.3,415.4,428.9,414.8,429.5z" />
	<path display="inline" fill="#615752" d="M415.3,433c-0.1-1-0.2-1.6-0.2-2.2C416.9,430.7,416.5,432.2,415.3,433z" />
	<path display="inline" fill="#2E2927" d="M427.1,362.6c0.8,1.3,0.6,2,0,2.7C426.1,364.5,426.6,363.8,427.1,362.6z" />
	<path display="inline" fill="#EDCABA" d="M420.5,400.7c0,0.7,0,1.4,0,2.1C419.6,401.7,419.6,401.7,420.5,400.7z" />
	<path display="inline" fill="#EDCABA" d="M410.9,416.6c0.3,0.4,0.6,0.9,0.8,1.3C410.9,417.9,410.9,417.3,410.9,416.6z" />
	<path display="inline" fill="#EDCABA" d="M419.1,397.3c-0.7-0.5-0.7-1,0-1.5l0.2,0.1c0,0.4,0,0.8,0,1.2L419.1,397.3z" />
	<path display="inline" fill="#48403D" d="M415.9,435.8c0-1.3,0.4-1.3,0.5,0C416.2,435.8,416,435.8,415.9,435.8z" />
	<path display="inline" fill="#020101" d="M374.3,553c0.1-2.5-0.6-4.8,0.9-7.1c1.1,2.4,1.4,4.6,0.7,7   C375.3,552.9,374.8,552.9,374.3,553L374.3,553z" />
	<path display="inline" fill="#201B19" d="M381,445.8c-0.2,1.7,1.2,4.5-0.6,5.4c-1.1-1.6-1-3.4-0.7-5.4   C380.2,445.8,380.6,445.8,381,445.8z" />
	<path display="inline" fill="#65564F" d="M375.2,435.3c1.8,1.3,1.8,1.3,1.4,3.4C375.6,437.9,375.6,438,375.2,435.3z" />
	<path display="inline" fill="#524640" d="M370.1,484.7c-0.1,0.8-0.1,1.4-0.1,2.2C368.6,485.8,368.6,485.8,370.1,484.7z" />
	<path display="inline" fill="#8A756C" d="M374.8,531c0.4,0.8,0,2.2-0.9,1.5C373.7,531.7,374,531.4,374.8,531z" />
	<path display="inline" fill="#372F2B" d="M370.5,494.5c-0.6,1.2-0.9,1.8-1.2,2.5C368.4,495.5,368.4,495.5,370.5,494.5z" />
	<path display="inline" fill="#66564F" d="M369.7,488.9c0.5,0.5,0.5,1.3-0.2,1.6C368.2,490.7,368.6,489,369.7,488.9z" />
	<path display="inline" fill="#554842" d="M374.5,542.1c0-0.5-0.1-0.9-0.1-1.4c0.2,0,0.3,0,0.5,0c0,0.5,0.1,0.9,0.1,1.4   C374.8,542.1,374.6,542.1,374.5,542.1z" />
	<path display="inline" fill="#594B45" d="M374.2,536.4c0,1.2-0.4,1.2-0.5,0C373.8,536.4,374,536.4,374.2,536.4z" />
	<path display="inline" fill="#111111" d="M386.7,576.5c2.9-1.3,6.6-1.2,9.5,0.2c0,0.3-0.1,0.7-0.1,1c-3,0.2-5.9,0.4-9.1,0.7   C386.9,577.8,386.8,577.2,386.7,576.5z" />
	<path display="inline" fill="#1E1E1F" d="M407.5,592.4c-2.1,2.4-6.7-1.5-9.9,2.9c-0.3-0.1-0.7-0.1-1-0.2   C396.9,590,404.1,590.6,407.5,592.4z" />
	<path display="inline" fill="#202021" d="M398.8,580.6c-2.7,1.7-6.3,2.4-8.6,0.3C390.7,577.7,395.5,579.7,398.8,580.6z" />
	<path display="inline" fill="#151C37" d="M391,392.3c5.8,0.1,10.5,1.9,14.7,6.2c-2.1,0.1-2.3-0.5-3.8-1.4c-4-3.4-9.5-3.9-14.6-4   C388.4,392.1,389.8,392.4,391,392.3z" />
	<path display="inline" fill="#202C56" d="M377.8,392.5c2.8,0.2,5.6,0.5,8.5,1.3l0,0c1.8,1.2,3.7,1.4,4.8,3.6c-5.2-2.4-9.1-3-14.5-4   C376.9,393,377.3,392.8,377.8,392.5z" />
	<path display="inline" fill="#1F2A52" d="M392.2,399.3c3.5,0.8,10.2,2,9.4,6.8c-2.6-3.5-6-4.8-9.4-6.1   C392.2,399.8,392.2,399.5,392.2,399.3z" />
	<path display="inline" fill="#30407E" d="M398.7,406.9c-3.2-0.9-6.4-0.8-8.3-2.1C391.6,403.1,396.9,405.1,398.7,406.9z" />
	<path display="inline" fill="#202C56" d="M391,392.3c-1.7-0.2-3.1,0.6-4.6,0.8l0.1,0C386.1,391.2,389.9,391.6,391,392.3z" />
	<path display="inline" fill="#3F54A6" d="M392.2,399.3c0,0.2,0,0.5,0,0.7c-0.8-0.2-1.6-0.5-2.5-0.8   C390.7,398.3,391.5,398.4,392.2,399.3z" />
	<path display="inline" fill="#202C56" d="M390.7,393.2c1,0,2.1-0.6,2.9,0.5C392.6,393.8,391.5,394,390.7,393.2z" />
	<path display="inline" fill="#151C37" d="M386.4,393.1L386.4,393.1c-0.1,0.2-0.1,0.4-0.2,0.6l0,0   C386.3,393.6,386.4,393.4,386.4,393.1z" />
	<path display="inline" fill="#0A0D1A" d="M377,379.2c3.7,0.8,7,2.4,9.8,4.9c-0.1,0.4-0.2,0.9-0.2,1.3l0,0c-2.7-1.1-5.4-1.9-8.2-2.8   c0.8-0.3,1.5-0.6,2.3-0.9c-2-1.6-10.8-1.7-12.6,0.3c2.5,0.2,4.7-0.6,6.7,0.7c-3.4,0-6.7,0.8-9.6,2.6   C359.9,381.1,374,378.4,377,379.2z" />
	<path display="inline" fill="#5673E2" d="M367.3,384.2c5-2.4,10.9-2,15.9-0.1c-4.9,1.5-10.7,0-15.4,3.4   C367,386.4,367.4,385.3,367.3,384.2z" />
	<path display="inline" fill="#1C2548" d="M361.8,412.5c0.2-8.7-1.3-17.8,2.3-26c2.4,0.1-1.5,6.9-1.1,9   C361.1,400.7,365.8,408.4,361.8,412.5L361.8,412.5z" />
	<path display="inline" fill="#141B36" d="M368.1,393.8c2.2-0.7,4.3-1.7,6.7-1.4c-2.9,2.5-6.1,1.9-7.8,5.4   C364.4,397.3,367.3,394.9,368.1,393.8z" />
	<path display="inline" fill="#121830" d="M390.8,388.2c2,0.1,3.7,1.6,5.7,0.1c0.1,0,0.2,0,0.4,0c1,0.4,2.9,0.8,2,2.3   c-3.2,0.6-6-1.2-9.2-2.1C390.2,388.4,390.5,388.3,390.8,388.2z" />
	<path display="inline" fill="#3F3531" d="M421.1,380.6c1.4,2-0.5,4.6-1.7,7.5C419,384.8,419,383.1,421.1,380.6z" />
	<path display="inline" fill="#110E0D" d="M419.3,397.2c0-0.4,0-0.8,0-1.2c0.3-0.3,0.6-0.7,0.9-1c0.2,0.1,0.4,0.1,0.8,0.3   c-0.2,0.7-0.4,1.4-0.6,2.1C419.9,397.2,419.6,397.2,419.3,397.2z" />
	<path display="inline" fill="#433934" d="M410,410.9c1.1,0.9,1.2,1.7,0.8,2.6C409.4,413.3,409.5,412.5,410,410.9z" />
	<path display="inline" fill="#5C4E48" d="M419.5,392c0.3-0.8,1-0.7,1.2,0C420.5,392.7,419.7,392.8,419.5,392z" />
	<path display="inline" fill="#4B65C5" d="M396.5,388.4c-1.5,1-3,0.8-4.4,0C393.6,388.3,395,388.4,396.5,388.4z" />
	<path display="inline" fill="#4B65C5" d="M383.2,393c-1.2,0-2.5,0.3-3.5-0.5C380.9,392.5,382.2,392,383.2,393z" />
	<path display="inline" fill="#4B65C5" d="M386.6,385.5c0.1-0.4,0.2-0.9,0.2-1.3C387.6,384.7,387.5,385.1,386.6,385.5z" />
	<path display="inline" fill="#4B65C5" d="M398.4,388.9c-0.5-0.2-1-0.4-1.5-0.6C397.5,388.2,398.1,388.2,398.4,388.9z" />
	<path display="inline" fill="#E7C5B6" d="M412.3,525.3c-4.3-1.4-3.5-6.9-10.3-5.3c1.3-1.8,4-0.3,5.5-2.4   C410.6,519.5,411.3,522.1,412.3,525.3z" />
	<path display="inline" fill="#EECABB" d="M524.4,441.5c2.4-0.4,3.3,2,4.1,3.8c-0.4,0.8-0.7,1.5-1.1,2.4c-0.8-0.4-1.4-0.7-2.2-1.1   c-3.6,2.2-9.2,1.4-10.5-3.4c2.5-2.7,6.5,1.1,7.6-1.1c0.6,0.4,0.7,1.6,1.9,1.1C524.3,442.6,524.4,442.1,524.4,441.5z M521.9,446.1   c0.3,0.1,0.6,0.4,0.8,0C522.4,445.7,522.2,445.7,521.9,446.1z" />
	<path display="inline" fill="#0C0B0A" d="M514.9,484c-0.6-2.6-0.7-10-0.2-13.5C516.5,471.7,516.6,482.7,514.9,484z" />
	<path display="inline" fill="#262220" d="M523.5,439.6c-1.9-1.6-2.1-3.4-2.8-5.1c0.5-0.3,0.8-0.6,1.2-0.9   C523.9,435.2,524.1,437,523.5,439.6z" />
	<path display="inline" fill="#312C29" d="M496.7,551c-0.4,0-0.8-0.1-1.4-0.1c-0.1-1.6-0.5-3.2,1.3-4.1   C497.7,548.2,497.3,549.6,496.7,551z" />
	<path display="inline" fill="#4D4440" d="M524.4,441.5c0,0.6-0.1,1.1-0.1,1.6c-1.3,0.5-1.3-0.7-1.9-1.1   C521.8,439.9,523.7,439.7,524.4,441.5z" />
	<path display="inline" fill="#0C0B0B" d="M512.1,492.7c-0.7-1.9-0.7-1.9,0.2-3.9C514.3,489.2,512.5,491.1,512.1,492.7z" />
	<path display="inline" fill="#746661" d="M498,540.4c-1.4,0.7-1.9-1.5-0.6-2C498.2,538.8,498.1,539.6,498,540.4z" />
	<path display="inline" fill="#6C5F5A" d="M498,537c-1.3-0.6-0.7-2.7,0.7-2.1C498.8,535.7,498.9,536.6,498,537z" />
	<path display="inline" fill="#847670" d="M520.3,431.8c-0.8,0.6-1,0.6-1.4-0.2C519.5,431,519.7,431.1,520.3,431.8z" />
	<path display="inline" fill="#1D1B19" d="M512.6,466.1c0-0.7-0.1-1.3-0.1-2c0.2,0,0.3,0,0.5,0c0,0.7,0.1,1.3,0.1,2   C513,466,512.8,466.1,512.6,466.1z" />
	<path display="inline" fill="#463F3C" d="M511.1,496c-0.3,0.5-0.6,1-0.9,1.7C509.4,496.6,509.9,496.2,511.1,496z" />
	<path display="inline" fill="#695C56" d="M497.3,543.9c-1.6,0.4-1.5-1.8,0-1.4C497.4,543,497.3,543.5,497.3,543.9z" />
	<path display="inline" fill="#49413E" d="M507.4,501.2c0.8,0.7,0.6,1.2,0,1.7C506.5,502.4,507,501.9,507.4,501.2z" />
	<path display="inline" fill="#151A1C" d="M446.2,490.7c-0.5,0.5-1,1-1.4,1.4c-9.2-10.2-23.7-14.2-36.7-9.2   c-0.4-0.5-0.9-0.9-1.3-1.4C420.9,476.3,435.6,480.8,446.2,490.7z" />
	<path display="inline" fill="#2B515E" d="M422.9,530.3c-0.6,1.8-1.8,2.1-3.5,1.7C420.1,530.4,421.9,531.1,422.9,530.3z" />
	<path display="inline" fill="#294C58" d="M425.8,491c-0.7,1.5-2.3,1.1-3.3,1.8C421.1,491.2,424.7,490.2,425.8,491z" />
	<path display="inline" fill="#2D505D" d="M445.4,514.1c0,0.3,0.1,0.6,0.1,0.9c-1.6,1.9-1.6,1.9-3.5,2.5   C443.1,516.1,444.2,515,445.4,514.1z" />
	<path display="inline" fill="#3B7082" d="M414,495.9c0.6-1.1,1.5-1.4,3.1-1.9C416.2,495.6,415.2,495.9,414,495.9z" />
	<path display="inline" fill="#294954" d="M415.8,534.4c-0.7-0.2-1.6,0.2-2-0.8c0.7-0.2,1.4-0.4,2.1-0.6   C416.8,533.6,416.3,534,415.8,534.4z" />
	<path display="inline" fill="#2D515F" d="M436.5,525.3c-1,0.5-1.9,1-2.8,1.5C432.6,525,435.5,525.3,436.5,525.3z" />
	<path display="inline" fill="#142429" d="M436.5,525.3c-0.5,0-1.1,0-1.6,0c0.6-0.7,1.2-2.1,2.4-0.9   C437,524.6,436.7,525,436.5,525.3z" />
	<path display="inline" fill="#427C90" d="M408.6,499.4c-0.4,0.3-0.9,0.6-1.5,1.1C407.1,499.4,407.6,499.2,408.6,499.4z" />
	<path display="inline" fill="#201B19" d="M501.3,450.9c1.7-1,2.9-0.8,4.2,0.5C504.2,452.9,502.1,452.7,501.3,450.9z" />
	<path display="inline" fill="#564944" d="M509,451.1c-1.4,1-2,0.4-2.7-0.2c0.1-0.3,0.3-0.5,0.5-1C507.5,450.2,508,450.5,509,451.1z   " />
	<path display="inline" fill="#27647D" d="M403.2,535.3c1.6,1.6,2.2,2.8,2,4.6C403.2,538.9,404.1,537.8,403.2,535.3z" />
	<path display="inline" fill="#4B65C5" d="M448.9,423.5c-4,5.3-4.9,11.3-3.9,17.6c0.6,4.6,5.5,3.9,9.3,5.7c-2.7,0.5-4.6,0.9-6.5,1.2   c-6.4-4.2-11.8-9.6-19.4-11.8c6.5-5.6,8.4-13.3,10.8-21c3.1-0.8,6.2-1.5,10.1-1.9c-3.8,3-7.1,4.3-10.7,6.4c1.4,0.7,2.5,1.2,3.3,1.5   c3.7-2.1,7.8-5.4,11.8-4c-2,2.5-4.8,2.9-6.1,5.9C448,423.3,448.5,423.4,448.9,423.5z" />
	<path display="inline" fill="#FBDFD3" d="M476.1,412.6c1.2,0,2.5,0.1,3.9,0.1c-1.5,9.1-4.2,14.3-11.1,20.5   c-5.7-3.4-12.2-4.8-18.4-7.4c0-0.2-0.1-0.5-0.2-0.8C457.4,418,466.8,415.3,476.1,412.6z" />
	<path display="inline" fill="#5875E7" d="M448.9,423.5c-0.4-0.1-0.8-0.2-1.2-0.3c1.2-2.9,4.1-3.3,6.1-5.9c-4-1.4-8.1,2-11.8,4   c-0.8-0.4-1.9-0.9-3.3-1.5c3.6-2.2,6.9-3.4,10.7-6.4c-3.9,0.4-7,1.1-10.1,1.9c0.3-2.2,0.5-4.3,0.8-6.6c6.4,2.1,12.6,2.2,18.9-0.4   c7.2-2.4,14.9,2.5,22.3,2.4C470.5,413.7,457.1,414.5,448.9,423.5z" />
	<path display="inline" fill="#EDC9BA" d="M450.3,425c0.1,0.3,0.1,0.7,0.2,0.8c6.2,2.6,12.7,4,18.4,7.4c-0.5,3.4-2.6,6.1-4,9.2   c-6.2-2.1-12.5-0.3-18.4-3.3C446.2,434,446.7,429.1,450.3,425z" />
	<path display="inline" fill="#CBD1E8" d="M495.3,400.7c-7.3,0.6-15.9,6.4-22.6,1.7c0.8-0.9,1.4-1.9,1.2-3.3   c0.5-0.4,1.1-0.8,1.9-1.4c11,2.9,23.3-4,27.5-15c0.5-0.3,1.3-0.9,2.2-1.5c0.5,0.3,1,0.5,1.4,0.8   C504.1,388.7,501.3,397.1,495.3,400.7z" />
	<path display="inline" fill="#17181E" d="M462,415.9c4.4-1.2,8.7-3.9,13.2-4.1c0.3,0.3,0.6,0.5,0.9,0.8c-4.2,1.3-8.4,2.7-12.7,4   C463.2,415.9,462.5,416,462,415.9z" />
	<path display="inline" fill="#30417F" d="M460,443.9c-2.3,2.2-11.3,0.3-13.4-2.6C451.8,442.8,454.8,443.5,460,443.9z" />
	<path display="inline" fill="#49423E" d="M502.1,396.6l-0.2,0.1l-0.3,0c0-0.2,0.1-0.4,0.1-0.6C501.9,396.3,502,396.5,502.1,396.6z" />
	<path display="inline" fill="#1C1816" d="M477.1,429.9c0.4,1.2,0.6,2.3-0.5,3.4C475,431,475.2,430.2,477.1,429.9z" />
	<path display="inline" fill="#1B1C1F" d="M472.6,400c-2.7,2.4-3.4,2.8-5.6,2.7C468.1,400.5,469.9,400.2,472.6,400z" />
	<path display="inline" fill="#151312" d="M484.8,384c-1.7,1.5-6.6,1.1-5.4-1.6C481.2,382.6,483,383.2,484.8,384z" />
	<path display="inline" fill="#3F3936" d="M475.2,366.2c-1-1.2-1-2-0.3-2.9C476.2,364,476.2,364,475.2,366.2z" />
	<path display="inline" fill="#EDC9B9" d="M483.6,381.3c0.2-0.3,0.4-0.5,0.5-0.8C484,380.8,483.8,381.1,483.6,381.3z" />
	<path display="inline" fill="#1B2548" d="M378.4,382.6c-2.5,0.4-4.6-0.8-7-0.7c0.1-0.2,0.1-0.3,0.1-0.5c2.2-0.3,4.8,0.5,6.7-0.7   c1.1-0.2,1.8,0.4,2.5,1C379.9,382,379.2,382.3,378.4,382.6z" />
	<path display="inline" fill="#516CD5" d="M378.2,380.7c-1.9,1.2-4.5,0.4-6.7,0.7c-0.2-0.2-0.5-0.5-0.7-0.7   C373.3,380.7,375.8,380.7,378.2,380.7z" />
	<path display="inline" fill="#36498F" d="M370.8,380.7c0.2,0.2,0.5,0.5,0.7,0.7c0,0.2-0.1,0.4-0.1,0.5c-1,0-2,0-3.3,0   C369,381.1,369.7,380.6,370.8,380.7z" />
	<path display="inline" fill="#917B72" d="M521.9,446.1c0.3-0.4,0.5-0.4,0.8,0C522.5,446.5,522.2,446.2,521.9,446.1z" />
</g>
</svg>