<?xml version='1.0' encoding='utf-8'?>
<svg xmlns="http://www.w3.org/2000/svg" version="1.2" baseProfile="tiny" id="Layer_2_1_" x="0px" y="0px" viewBox="0 0 900 600" overflow="visible" xml:space="preserve">
<g id="b_00000127036108520078264770000004353211999487773103_">
	<path d="M518.8,160.8c-1.4,2.8-5.2,2.1-7.8,2.9c6.6,12.6-2.6,25.5-2.9,38.3c0.7,20.5-0.9,40.8-3.2,61.1c-0.8,4.8,3.9,7.9,7.7,9.7   c8.3,3.9,14.1,10.4,20.6,16.7c4.5-0.7,9.3-1.6,13.6,1.3c7.5-1.7,15.7-5.2,23.2-2.2c1.2,0.5,2.4,1,3.7,0.4l0.3,0.2l0.3-0.1   c0,0,0,0,0,0c-0.2,0.4-0.4,0.8-0.7,1.4c4.7,3.3,8.7,9.3,7.8,15.4c-6.2-15.5-14.4-20.6-31.1-14.5c19.3,0.9,24.5,32.8,5.1,37.1   c15.1-7.6,13.5-32.5-4.4-35.2c8,9.2,8.2,18.6,2.5,28.4c0.6,0.8,1.1,1.6,1.8,2.6c-1.7,0-3.1,0-3.9,0c-2.4,1.5-4.3,2.7-6.5,4.1   c3.1,1.6,6.4,0.9,9.5,1.5c-0.4-1.2,0.2-1.5,1-1.4c2.8,1.9,7.2-1.3,10.6-1.4c0.2,0.2,0.5,0.5,0.7,0.7c-3.3,1.2-6.6,2.4-10.1,3   c3.8,11.8,1.9,24.3,0.1,36.3c-0.9,17.4-1.2,34.7-1.9,52c-3.2,29.2-15.2,58.3-14.2,87.7c14.6-5.2,6.9,31.2,59.4,47.4   c6.5,1.2,3.2,9.9,3.3,14.4c-8.9,17.4-60.7,11.7-72.6-2.5c-8,2.5-16.5,1.8-24.8,0.8c-0.8-0.7-1.7-0.8-3.1-0.4   c13.1,12.6,18.6,4.4,14.6,27.4c-10.3,7.4-22.6,6.2-34.5,5.5c-11.3-0.5-26,0.2-32.4-10.9c-7.8-10.8-25.3-2-31.8-15.4   c0.9-2.4,1.9-4.7,4.3-6.2c0.4-1.7,0.8-3.4,1.2-5.1c-34.1,4-67.1,27.7-102.1,15.7c0-0.9,0.1-1.8,0.1-2.7c0.3-0.1,0.7-0.2,1.1-0.3   c0.5-2.3,1.8-4.7,0.2-6.9c0.5-3,1-6.1,1.5-9.1c0.4-0.1,0.8-0.2,1.3-0.3c-1.3-3-0.6-5,2.7-5.4c17.3-4.6,34.6-9.2,51.9-13.8   c2.4-0.4,5.3-0.9,7.5,0.3c-18.6,5.7-37.6,9.8-56.3,15.2c4.8,2.8,11.6,3.1,17.3,4c0.2,0.4,0.8,0.6,0.5,1.2c-7.4,0.2-14-2.8-21.4-3.3   c-1.4,6.5-2.3,12.9-3.4,19.5c7.7,0.7,15.9,3.6,23.1,3.1c1.2-6.5,2.4-13.1,3.7-19.8c0.4,0.1,0.8,0.1,1.3,0.2   c-0.4,6.9-2.6,12.6-3.3,19.7c25.6-7.1,50.7-14,75.8-21c0.4-6.1,5.1-10.9,4.9-16.8c-0.7,0-1.3,0-1.9,0c-3.8-25.8,0.5-53.5-1.6-79.8   c-8-25.6-5.6-35-0.7-60.1c-19.2,7-38.8,5.9-58.5,1.7c-31.1-4.9-62.4-8.9-93.4-14c-0.1-0.6-0.2-0.9-0.3-1.3l0.2-0.1   c30.5,3.1,60.8,9,91.3,12.9c22.6,5.1,40.1,6.6,62.2-2.2c0.3-2.3,1.9-4.2,1.6-6.7c-1.5-1.3-3.2-1.6-4.9-1.9   c-1.2-0.9-1.2-0.9-2.2,0.1l0,0c-13-1.5-26.9-3.2-40.1-3.2c-0.1,1.5-0.2,2.9-0.3,4.2c-0.1,0-0.3,0-0.4,0c-0.1-1.5-0.3-3-0.4-4.4   c-3.6-1.3-8.9-2.5-12.5-1.6c-0.8-0.3-0.9-1.8-2.1-1.3c-25.9-4.7-36.6-10.2-53.7-29.6c-35-51.1,21.8-103.5,37-151.6   c7.3-32.2,20.5-71.2,58.2-76.4c13.5-2.2,27.6-1.4,39.9-8.2c-0.7-0.4-1.2-0.7-1.8-1.1c-1,0.4-2,0.9-3,1.3c-1.1-0.3-2.2-0.5-3.4-0.8   c0.1-1.3,0.2-2.5,0.3-3.8c0.5-0.6,0.8-1.3,0.3-2.4c-0.9,1.4-1.6,1.9-3.2,2.4c-1.8-2.2-3.2-4.2-4.3-6.7c0.2-0.3,0.4-0.5,0.6-0.8   c-0.5-0.4-1.1-0.9-1.8-1.4c-0.1-0.8-0.3-1.7-0.4-2.6c-6.1-0.4-4.4-5.4-0.9-9.3c-0.2-0.5-0.4-1-0.6-1.6c-0.8,0.9-1.6,1.3-2.6,0.3   c0-1.9-0.5-4,1.2-5.7c-0.3-0.7-0.6-1-1.5-0.9c-5.4-0.1-2.6-5.3,0.2-7.5c0-1.1,0.2-2.9,1.4-3.6c-1-1.3-1.9-2.6-2.9-4   c-0.1-3.6,3.9-4.3,4.3-8c-10.8,2.1,2-6.3-0.4-10.2c2.6-2.9,4.5,2.5,7.6-0.2c-0.7-1.3-0.5-2.5,0.2-3.8c-0.9-0.8-2.5-0.9-2.7-2.5   c1.5-2.5,1.9-2.5,5.5-0.8c1.1-0.8,2.2-1.6,3.3-2.4c0-0.5-0.1-0.9-0.1-1.4c-1.1-0.1-2.1-0.2-2.9-0.3c-2.2-4.9,11.8-6.1,15.1-5.8   c0.2,0.7,0.6,1,1.4,0.2c-0.6-0.1-1-0.1-1.4-0.2c-0.3-0.5-0.6-0.9-0.8-1.3c-1,0-1.8-0.1-2.6-0.1c-0.2-0.4-0.4-0.8-0.6-1.4   c1.9-2.7,5.2-4.2,5.5-8c2.8-1.9,5.8-1.2,8.9-0.7c0.2-0.5,0.5-1,0.8-1.6c-0.6-0.7-1.3-1.5-2-2.3c1.8-4.6,5-5.7,9.7-4.6   c1.1-2.1,0.6-5.7,3.5-6c3.1-0.6,6.7-1.5,9.3,0.7c1.4-0.6,2.7-1.1,4-1.6c0.3-0.6,0.7-1.2,1.1-2c2.8,0.1,9.9-4.6,10.5-0.3   c-1.1,1-5.9,1.6-3.5,3.9c1.1-1.1,2.9-1.2,3.7-2.9c1.6-0.4,3.1-0.7,4.8-1.2c0.5-0.7,1-1.6,1.6-2.5c-0.5-0.7-0.9-1.3-1.4-1.9   c2.5-1.2,3.2-0.8,4.4,2.4c2.8,0.9,2.8,0.9,3.4,3.6c3.2,0.2,5.1,2.3,6.8,4.9c2.5,0.6,3.1-1.6,3.9-3.3c2.6-1,2.6-1,5.5,0.5   c-0.3,0.6-0.5,1.1-0.8,1.7c-0.7,0-1.4,0.1-1.4,1.1c0.9,0.4,1.6,0.2,2.2-0.5c2.8-0.3,7.4-2.5,8.9,1.3c-0.3,0.6-0.6,1.3-0.9,2.1   c1,0.1,2,0.2,2.8,0.3c1.3,2-0.4,2.8-1.2,4c3.8,1.3,8.4-2.4,10.6,2.2c-0.4,0.5-0.7,1-1.1,1.5c-1.4,0-2.8-0.1-4.1,0   c0,0.1,0,0.3,0,0.4c3,0.5,7-0.9,8.8,2.6c3.3,1.2,3.9,4.9,4.6,7.9c2.1,1.4,2.5,4.1,4.7,5.9c1.9,1,5.2,0.5,6,4.1   c2.1,1,4.7,1.4,4.7,4.4c1.6,3,2.9,4.1-1.4,5.2c2.7,2.8,2.7,2.8,3.4,5.8c2.3,1.5,4.4,3.7,3.7,6.8c-0.8,2.8,0.4,6-1.1,8.6   c-2.1,0.7-2.1,0.7-3.4-1c0.2-0.7,0.3-1.4-0.4-2.3c-0.8,1.1-1.5,2-0.3,3.1c0.9,4.9-1.2,9.5-6.9,8.4c-0.9,1.3-2,2.4-3.5,2.2   c-1.5,1.4-2.9,2.7-4.3,4c1.7,4.7-3.6,4-6.6,4.8c-4.8,9.1-4.8,25.5-15.1,29.5c-0.1,0.3-0.2,0.7-0.3,1c-1-0.7-2.1-1-3.4-0.6   c-0.3-0.3-0.5-0.6-0.8-0.8c4.4-2,9.1-3,10.1-8.5c1-5.7,4.8-11.6,1.7-17.2c-3.2-2.7-5.1,1.8-11.9-3c-3.1,1.1-3.1,1.1-6.3-1.1   c-4.9-0.8-11.4-0.9-15.6-2.1c-1.9,1.8-3.1,1.6-5.5,1.1c-0.1,4.1-5.1,4.8-8.2,6.5c0,0.5,0,0.8,0,1.4c-2.1,0.3-4.1,0-5.8,1.5   c1.4,0.9,2.7-0.3,4.1,0.4c-4.3,2.1-9.8,0.6-14.5,2.2c-1.8,0.6-2.7-1.6-3.2-2.9c0.3-0.7,0.5-1.3,0.8-2c-7.5-12-17.9-0.7-14.8,9.9   c0.9,3.7,0.4,8.6,5.8,7.4c-11.3,15.6,21.8,67.4,36,46.2c3.2-0.5,7.3,1,9.5-2.1C518.3,160.2,518.5,160.5,518.8,160.8z M489.2,557   c-5.1-1.5-10.4,3.5-15.3,5c-6.2-2.8,10.1-8.1,13.1-7.8c-0.9-1.6-1.8-2.8-2.8-4c-6.6,1.4-11.8,5.2-17.6,8.4   c-0.5-0.7-0.9-1.2-1.2-1.6c3.3-4.7,11.7-8.9,17.7-8.2c-0.4-1.5-1.1-2.5-1.9-3.6c-6.8,1.7-12.9,3.9-19.3,7c-4.4-5.2,16-8.8,19.3-9.4   c-1.5-5.3-2.3-11-3.1-16.1c-6.7-2.3-12.9-0.8-20.6-0.1c-3.1,8.5-7.3,19.9-18.7,16.7c-0.9-2.4-1.7-4.4-2.5-6.6   c0.1-0.2,0-0.4-0.1-0.5c-0.1-0.4-0.2-0.8-0.3-1.5c-1.5,1.2-1.7,2.5-1.8,3.9c0.3,5.9-2.9,10.6-4.8,16c-2,5.6-0.3,13.9-6.2,17.1   c-0.1,0.8-0.2,1.5-0.4,2.2c7.9,9.4,23.1,2.6,30.6,12.6c6.2,14.7,50.5,13.2,62.4,6.2c1-4.6,0.6-9.5,0-14.2   c-9.3-4.1-16.2-11.1-23.4-18.2c-16.4,11.6-21.4,2.8-1.4-1.1C490.1,558,489.8,557.7,489.2,557z M496.9,311.6c-5.1-8.6-18-8.7-26-4.1   c17.7-0.7,24.5,28.5,8.3,35.2c18.5-15.4-2.7-48.2-21.1-27.2c-9.9,13.6,1.5,33.5,17.6,29.3l0,0c2,0.1,0.1-1.6,2.1-1.4   C493.5,346.4,508.5,324.9,496.9,311.6z M551.2,296.7c-5.8-8-16.8-7.2-25.1-3.9c8.4,1.8,14.5,7,16.5,15.4c0.4,7,0.3,17-7.7,19.7   c-0.2-0.2-0.5-0.4-0.7-0.7c20.3-15.4-8.4-48.6-22-24.1c3.8-0.5,3.9,1.1,6.6,2.8c1.1,5.6,3.8,13.5,0.4,18.5   c-0.3-5.5-1-10.5-1.3-16.2c-0.3-4.8-6.7-3.9-10.4-3.1c-0.3,0.8-1,0.8-1.7,0.9c-3.4-0.6-6.7,0.3-10.1,0.7c8.4,8.4,8.2,20.2,3.2,30.3   c-3.2,1.5-5.7,3.7-8.7,5.7c6.5-1.4,12.7-4.9,19.6-5.1c0.7-0.7,1.3-1.4,1.9-2c1.1,0.3,1.9,0.5,2.4,0.6c5.4-1.7,9.9-3.5,15-4.9   c0.8,0.2,1.8-0.3,2.3,0.8c-11.3,6.3-25,6.9-37.1,11.2c-4.8,1.3-9.1,3.9-14.1,2.4c0.5,7.4,0.6,14.7,0.5,22.2   c9,4.2,33.8-9.1,34.4,4.9c-5.8,4.9-7.1,12.2-9.7,19c0.1,0.3,0.4,0.7,0.6,1.1c-8.3,15.2-1.9,33.1,1.4,49.1c2.9,23.5,3.2,47.4,2,71   c7.5,4.2,17.1,2.1,25.3,1.6c1.3-1.7,2.4-3.1,3.3-4.4c-1.8-40.4,18.6-78.5,13-118.7c2.8-19.6,7.1-40.6,3.2-60.3   c-4.1-0.1-8.3,0.8-12-1.8c-3.1,0.6-7.4,3.2-10.2,1.2C548.8,329.6,563.3,311.6,551.2,296.7z M509.6,88.7c14.3-1,32.4-3.7,43.3,7   c6.2-25-72.8-18.3-76.4-3.7c3.4,0.2,4.7,3.6,6.8,6C491.6,93.4,500.4,90.1,509.6,88.7z M477.7,251.6   C477.7,251.6,477.7,251.5,477.7,251.6c-2.7,0.6-5.4,1.3-8.3,2c-2.4,20.7,4.7,42.6,24.4,52.1c5.2-2.1,10.5-0.7,15.8-2.8   c4.2-7.8,11.8-10.6,20.1-12.6c-6.8-9.3-17.4-14.5-26.6-20.9c-1.7-21.8,4.5-43.5,2.3-65.4c-0.1-12.4,9.3-26.7,3.1-38.4   c-3.3,2.6-6.6,3.7-10.7,3.9C495.8,196.7,505.4,234.5,477.7,251.6z M482.8,300.9c-13.8-12.2-17.4-29.4-16.7-47   c-3.9-0.9-7.7-1.7-11.1-2.4c-5.4,2.5-8.9,4.8-11.2,9.9c-4.1,6.5-10.8,10.6-15.6,16.5c17.8,17.6,31.7,22.3,56.3,24.8   C483.7,301.8,483.3,301.3,482.8,300.9z M374,298.8c6.8,1.6,13,3,20,4.7c-10.7-28.8-18.2-59-18.1-89.7   c-13.7-3.7-16.1-18.7-16.7-30.5c-6.9,24.4-16.3,48.4-30.1,69.9c-9.2,19.3-23.6,39.3-21.7,61.4C325.9,299.9,351.2,296.5,374,298.8z    M439.6,127.5c17.1,23.4,2.3,75.5,21,86.9c2.4-4.8,1.3-10.8,2.6-15.8c0.6,0.7,1.1,1.4,1.7,2.1c-1.2,4.2-1.2,9-1.1,13.3   c14.6-2.1,19.9-22.5,20.3-35.4c-0.1-7.4,3.1-17.8-3.5-23c-6.8,2.7-12.3,9-19.5,10.5c0.2-0.6,0.3-0.9,0.4-1.3   c5.7-3.8,11.3-7.6,17.3-11c-7.6-10.2-13.6-23.5-8.5-36.1c-0.8-0.2-1.6-0.4-2.3-0.6c-0.4,0.9-0.8,1.7-1.3,2.7   c-3.4-0.5-1.7-4.3-3.6-6.2c-1.9,1.2-0.5,3.7-2.1,5c-0.4-0.1-0.9-0.2-1.3-0.3c-1.5,1-2.3,2.9-4.3,3.4c-1.1-1.9,1.2-2.6,1.5-4.4   c-6.3,3.2-12.1,5.2-18.6,7.7C438.8,125.8,438.9,127,439.6,127.5z M491.6,553.6c3.2,12.3,22.1,10.8,32.8,10.8   c3.1-0.1,6.4-2.6,8.9,0.4c18.7,13.7,46.5,15.9,67,5.1c0.2-4.2,1.7-7.5,0.2-11.4c-9.1-3-15.4-9.5-24.8-12.1c-1.2,1.8-5.9,6.3-7.5,3   c0.6-2.5,3.4-2.7,4.8-4.6c-1.4-1.2-2.6-2.6-4.1-3.7c-1.7,2.2-5.3,7.5-7.4,3.3c1.1-2.2,3.7-3.2,4.3-5.7c-0.6-0.5-1.2-1-1.8-1.6   c-2.2,1.9-6.8,8.9-9.3,4.9c1.7-3,5.3-4.3,6.8-7.5c-1-0.8-1.6-2-3-2.4c-1.5,2.3-12.7,11.4-11.4,4.4c3.2-2.4,7.4-3.4,9.7-7   c-0.9-1.4-1.9-2.5-3.1-3.7c-3.1,3.3-8.1,6.5-13.8,8.9c-0.5-0.7-1-1.4-1.6-2.3c4.4-3.4,9.9-4.8,13.6-8.6   c-4.5-12.3-6.4-22.1-16.3-5.9c-13.5,14.6-26,16.8-32-4.9c-1.2,0.8-2.1,1.4-3.1,2.1C498,527.9,494.3,540.5,491.6,553.6z M425.6,241   c-0.2,4.7,0.3,9.3,0.7,14.1c11.6,1.6,22.2-2.1,32-8.1c-0.5,1-0.7,1.6-1,2.2c46,14.1,37.2-53.7,38.2-81.1c-3.5-1.9-6-3.8-9-6.6   c0.2,12.6,2.2,25.9-4.3,37.4c-4.9,13.2-21.6,28.8-30.1,9.4c-7.8-27,0-58.1-15.6-83.2c-4.7,0.8-9.7,0.9-13.9,2.1   c25.6,13.8,16.6,58.2,2.4,77.9C419.9,216.2,426,229.2,425.6,241z M494.2,369.3c-4.6,1.4-9.3,0.9-13.7,1c-4,16.6-3.2,33.9-2.2,51.1   c-2.1,33.4-11.8,66.8-6.6,100.1c3-0.4,5.6,1.1,8.2,2c4.2,5.9,4.5,14.6,4.3,21.7c1.4,1.7,2.2,4.3,4.8,5.9   c1.4-10.9,5.8-21.1,7.2-31.9c-0.3-4.8,3.9-11.1,9.3-7.6c2.9-22.2,0.1-44.8-0.9-67.1c-4.6-14.8-9.3-30.9-3.3-46.1   c4.2-24.1,25.4-33.1-6-29.5C494.7,368.7,494.4,368.8,494.2,369.3z M423.3,129.6c-38.6-13.3-87.8,57.7-47.2,81.8   c-0.5-6.4-2.1-11.9-3.5-18c10.5,13.3,4.3,31,7.1,46.5c12.7,63.4,12.2,70.1,73.8,94.5c-2.8-9.8,0.6-19.2,8.4-25.6   c-12.7-12.4-28.6-21.5-40-35.1c0.3-0.3,0.5-0.5,0.8-0.8c0.4,0.2,0.7,0.4,1.3,0.7c-0.3-15.4-1.2-30.8-2-46.2   c-1.4-10.9-2.9-21.9,4.4-31.1c0.4,0.4,0.7,0.6,1,0.9C435.9,177.2,443.4,144.5,423.3,129.6z M342.3,302.5   c-12.5,2.6-27.9,5-35.1,16.8c-3.3,63.8,77.1,64.5,122.4,68.4c-0.4-0.7-0.7-1.3-1.1-2c3.9-2,3.6,3.8,4.6,6   c-21.6,45.4,9,92.3,8.3,139.9c22.2,2.4,1.6-7,26.8-10c-4.7-39.4,9.8-79.2,6.3-117.7c-0.1-19.3,6-38.2,3.2-57.9   c-7.2,1.6-14.3,1.3-19.5-4.4c-7.2-6.8-17.3-9.4-25.9-13.9c-12-4.2-22-11.8-32.1-19.2C382.1,300.6,361.5,298.1,342.3,302.5z    M437.4,524.1c0.3-6.6-5.3-41.8-7.7-48.1c-1,17.4-0.3,46.8,0.1,50.2C432.4,525.6,434.8,525,437.4,524.1z M426.3,274.1   c8.3-5.6,15.8-12.9,18-17.6c-6,1.5-11.9,1.8-18,1.3C426.9,263.4,424.1,268.7,426.3,274.1z M516.3,527.1c6.3-0.3,12.7-3.9,16.5-8.8   c-8.2,0-16.1,0.5-23.9-2.6c-0.5,2.8,0.1,6.5,2.4,8c0.2-0.6,0.4-1.1,0.6-1.8C514.2,522.8,514.7,525.1,516.3,527.1z M464.3,307.7   c4.1-1.7,8.4-2.5,12.5-4c-6.7-1.1-13-3.7-19.7-3.2C458.7,303.1,461.8,305,464.3,307.7z M429.7,539.1c2.7,1.5,2.4-6.4,6.1-7.5   c0.9,1.1,1.7,2,2.6,3.1c0.3-3.1,1.1-5,0.1-8c-3,0.5-6,1.1-8.7,2.4C429.7,532.7,429.7,536,429.7,539.1z M451,534.5   c-3.5,0.1-6.5,0.1-9.8,0.2c0.3,2.2-1.5,3.8-0.6,6.1c3.4,0.7,5.9-1.3,9.1-2.3C450.4,537.4,451.2,536.1,451,534.5z M459.5,36.1   c3.4,2.4,3.6-0.9,3.4-3.1c-0.9-0.7-1.5-2.7-2.7-1.6c0.6,1.1,1.2,2.3,1.9,3.6C461.2,35.4,460.5,35.7,459.5,36.1z M483.3,17.7   c-0.9-0.2-1.4-1.3-2.3-0.7c0.2,1.1,0.4,2.1,0.6,3.4c0.7,0.5,1.3,1.6,2.4,1.6C483.4,20.4,483.3,19.4,483.3,17.7z M524,18.3   c-0.7,0-1.4,0-2.2,0c0.9,1.5,1.6,2.8,2.3,4c0.5-0.1,0.8-0.1,1.2-0.1C524.9,20.9,524.4,19.6,524,18.3z M551.3,33.3   c1.1,1.7,2.8,2.2,4.7,3c0-0.7,0-1.1,0-1.3c-1.4-0.9-2.6-1.7-3.9-2.5C551.8,32.7,551.6,32.9,551.3,33.3z M558,80.5   c-0.9,0.8-1.8,1.6-2.8,2.5c0.6,0.6,1,1,1.6,1.6C557.8,83.2,558.6,82.2,558,80.5z M520.4,42.5c0.7-3.1,0.6-3.7-0.6-4.4   C519.1,41.2,519.2,41.8,520.4,42.5z M505.7,13.1c1.3,2.3,3.2,1.9,3.4,4.4c0.1,0,0.2,0,0.3-0.1c0-0.9,0-1.8,0-2.6   C508.5,13.9,507.6,13.5,505.7,13.1z M457.1,111.4c-1.9,1.1-1.9,1.1-2.7,3.3C456.6,114.2,457,113.8,457.1,111.4z M459,26.5   c1.8,0.5,2.9-0.3,4-2.1C461.3,24.9,459.6,24.2,459,26.5z M438.7,92.3c-2,0.3-2.2,1.5-1.4,2.7c0.5-0.1,1.1-0.3,1.6-0.4   C438.9,93.8,438.8,93.1,438.7,92.3z M494.6,25.4c0.2,0.7,0.3,1.2,0.5,2.2c0.9-0.9,1.5-1.4,2.3-2.2C496,25.1,496.2,25.1,494.6,25.4z    M547.7,56c-1.6,1.5-1.6,1.5-0.4,2.7C548.5,58.1,548.6,57.3,547.7,56z M495,40.9c-0.3,0.4-0.7,0.8-1,1.1c0.4,1,0.8,1.6,1.9,1.2   C496.3,42.2,496,41.5,495,40.9z M507.9,19.2c-1.4-0.8-2.1,0.2-3.3,0.8c0.6,0.4,1,0.7,1.5,1C506.8,20.3,507.4,19.8,507.9,19.2z    M506,56.5c2.3,0.3,2.6,0,2.2-1.9C507.5,55.3,506.8,55.9,506,56.5z M456.1,105.2c-2.2,0.2-2.6,0.5-2.7,2.6   C454.4,106.9,455.1,106.2,456.1,105.2z M512.6,50.5c-0.4,0.7-0.7,1.2-1.2,2.2c1.1-0.2,1.6-0.2,2.6-0.4   C513.4,51.5,513.1,51.1,512.6,50.5z M485,49.4c0.8,0.5,1.5,0.6,2.4,0.1C485.8,48.1,485.8,48.1,485,49.4z M517,40.4   c0.2-1,0.8-1.9-0.7-2.5C515.5,39.1,515.8,39.9,517,40.4z M522.5,39.7c0.9-0.8,1.2-1.1,1.8-1.5c-0.6-0.4-1.1-0.7-2-1.3   C522.4,38,522.5,38.5,522.5,39.7z M552,48.6c1.7,1.6,2,1.6,2.4,0C553.7,48.6,553,48.6,552,48.6z M442,98.5c1.5-0.9,1.5-1.1,0-2   C442,97.2,442,97.8,442,98.5z M481.6,12.3c2.1-0.1,2.1-0.1,1.3-1.7C482.5,11,482.2,11.4,481.6,12.3z M433.1,99.3c0-0.7,0-1.3,0-2.1   C431.9,98.6,431.9,98.6,433.1,99.3z M536.9,16.1c-1-0.2-1.4,0.2-1.7,1.1C536.1,17.5,536.6,17.2,536.9,16.1z M445.9,114.2   c-0.1,0-0.3,0-0.4,0c0,0.3,0,0.7,0,1c0.1,0,0.3,0,0.4,0C445.8,114.9,445.8,114.6,445.9,114.2z M448.6,46.2c0-0.2,0-0.3,0-0.5   C447.4,45.8,447.4,46.2,448.6,46.2z M533.1,15.8c0.1-0.1,0.2-0.1,0.2-0.2c-0.2-0.2-0.3-0.2-0.5,0C533,15.7,533.1,15.7,533.1,15.8z" />
	<path fill="#798BB3" d="M274.4,387.8c0.1,0.3,0.2,0.7,0.3,1.3c25.6,4.2,51.4,7.7,77.1,11.5c20,2.3,40.1,9,60.2,4.8   c2.8,10.2-1,23,1.4,33.2c-0.1,34.6,0.9,69.5-0.3,104c-6.5-3.3-14.1-1.7-20.6-4.7c-7-110.8,19.7-78-124.2-105   c-1.7-12.2,3.7-23.9,3.8-35.8C270.9,393.8,272.9,390.7,274.4,387.8z" />
	<path fill="#35A65F" d="M317.5,358.3c11.6,16,30.7,22.1,49.4,25.4c2.2,2.5-1.7,6.3,1.3,8.2c0.2-2.4,1.1-4.5,0.8-6.9   c3.6-0.8,8.9,0.4,12.5,1.6c0.1,1.4,0.3,2.9,0.4,4.4c0.1,0,0.3,0,0.4,0c0.1-1.3,0.2-2.7,0.3-4.2c12.6,0.2,26.4,0.8,38.7,3.6   c0.6,1.4-1.4,6.8,0.3,6.3c1.2-2.1,1.3-4.4,1.1-6.8l0,0c2.5-0.2,5,0,7.1,1.8c0.3,2.5-1.3,4.4-1.6,6.7c-22.2,8.8-39.6,7.3-62.2,2.2   c-30.5-3.9-60.8-9.8-91.3-12.9c-0.4-0.7-0.9-1.3-1.5-2.2c-0.3-5.9,0.3-11.9,0.7-17.7c1.8-0.4,3.5-2,5-0.6c-0.6,0.1-1.2,0.3-2.4,0.5   c9.2,1.4,17.8,3.7,26.7,4.2c-0.9-0.9-2-1-3.2-1.2C303,363.1,312.2,363,317.5,358.3z M311,371.5c0,0.2,0,0.5,0,0.7   c6.3,0.6,12.1,3,18.5,2.5C324.1,372.2,317,372.5,311,371.5z M399.4,394.5c0.2,0,0.5,0,0.7,0.1c0-0.5-0.1-0.9-0.1-1.4   c-0.1,0-0.3,0-0.4,0C399.5,393.6,399.5,394,399.4,394.5z" />
	<path fill="#B28C7D" d="M581.4,305.9c0.9-6-3-12-7.8-15.4c0.3-0.6,0.5-1,0.7-1.4c0.5-0.3,0.9-0.6,1.4-0.8c0.8,1.3,2.3,0.3,3.5,0.2   c5.1,3.9,6.7,11,11,15.5c-1-6.7-6.5-9.9-8.4-16.2c2.6-0.4,5.1-0.1,7.7,0c4.1,3,4.7,14.3,8.7,15c-1.5-5.4-4.2-11.9-8-16.4   c2-0.2,4.1-0.3,6.5-0.5c0.8,0.4,2,1.1,3.1,1.8c0.3,4.7,1.8,12.5,5.5,15.4c-0.2-1.8-0.2-1.8-1.3-3.5c-1.5-3.8-1.3-9.2-4.3-11.9   c-0.1-0.6-0.3-1.3-0.5-2c8.1-2.2,5.9,14.3,11,19.1c-0.2,0.6-0.4,1.3-0.7,1.9c-2,1.5-3.4-1.5-4.9,1.4l0,0c-7.6,2-15.7,2.4-23.3,4.2   C581.5,310.2,581.4,308.1,581.4,305.9z" />
	<path fill="#030203" d="M268.3,433c143.9,26.9,117.2-5.9,124.2,105c1.2,1.4,3.3,0.8,4.8,1.6c-0.2,0.2-0.5,0.4-0.7,0.7   c-4.5-0.1-8.5-1.6-12.9-1.5c1.9-0.7,3.5-0.7,5.5-0.8c-0.4-6.2-0.5-12.1-0.4-18.2c0.4-0.1,0.8-0.2,1.2-0.3c0-1.3,0-2.5,0-3.6   c-0.5-0.2-0.8-0.3-1.1-0.4c-0.8-3.4,1.5-7,0.2-10.1c-0.3,0.1-0.7,0.2-1,0.3c-2.9-15.4,5-43.3-10.9-51.2   c-35.2-10.5-73.7-11.6-109.7-20C267.9,433.8,268.1,433.4,268.3,433z" />
	<path fill="#4ABA79" d="M317.5,358.3c-5.3,4.7-14.6,4.9-17.6,12.5c-7.1-0.8-14-2.7-21.1-3.6c-1.5-1.5-3.2,0.2-5,0.6   c-0.1,1.8,0.4,3.7-0.7,5.2c0.1-5.4-1.1-14.1,5.7-15.7c11.2-3.2,23-2,34.4-3.3C315.3,354.8,316.4,356.6,317.5,358.3z" />
	<path fill="#050404" d="M581.4,305.9c1.1,8.4-2.5,15.6-9.8,20.1c14.4,1.4,23.7-12.5,36.7-15.4c0.2,0.2,0.3,0.5,0.6,0.8   c-2.4,1.3-5.4,1-7.4,3.1c3.9,1.9,7.9-1.1,11.8-1.7c-0.1,0.4-0.3,0.9-0.4,1.3c8.1-0.6,17.7-4.8,20.2-13.3c0,0,0,0,0,0   c8.6-16.9-11.5-33.1-27-23.5c16.7,1.4,23.3,28.7,7.2,35.5c17.1-15.3,0.2-45.6-20.5-28.9c-0.3-0.4-0.5-0.6-0.7-0.9   c48.1-36.9,66.9,39.3,8,33.3c-9.8,6.4-21,13.6-33.2,11.2c-0.2-0.2-0.5-0.5-0.7-0.7c9.1-3.9,15.5-12.4,14.2-22.6   C580.6,305,581,305.5,581.4,305.9z" />
	<path fill="#373A46" d="M613.3,313c-3.8,0.6-7.9,3.6-11.8,1.7c2-2.1,5-1.8,7.4-3.1c-0.3-0.4-0.4-0.6-0.6-0.8c0.5-0.6,1-1.3,1.4-1.9   c4.9-1.7-0.2-6.8,0.8-10.2c0.7-3.8-2.6-5.9-3.6-9.1c-1.4-8.6-9.6-4.5-15.5-4.8c0-0.5,0-0.9,0.1-1.4c0.2-0.1,0.3-0.2,0.6-0.1   c0.2,0.3,0.4,0.5,0.7,0.9C613.5,267.4,630.3,297.8,613.3,313L613.3,313z" />
	<path fill="#1A1211" d="M518.8,160.8c-0.3-0.3-0.5-0.6-0.8-0.9c0.1-0.8,0.2-1.5,0.3-2.5c-5.5,1-10.1-1.1-15.2-1.7   c-0.2-0.4-0.3-0.8-0.5-1.2c2.4-2.4,2.5,0.4,4.7,0.5c4.7,1.7,15.2,3.4,14.8-4.5c-0.5-2-4-1.6-5.8-2c-5,0.1-6.6-8.4-1.3-8.5   c0.2,0.2,0.5,0.5,0.7,0.7c-1.8,0-2.4,2.1-2.5,3.6c1.4,4.4,8.7,2.7,12.3,5c1.5-0.4,2.8-1.5,4.3-1.4c-1.1,2.6-4.1,2.2-6.6,3   c-0.3,1.9-0.3,4.2-1.9,6c-0.5,0.1-1,0.3-1.6,0.5C519.5,158.5,520.2,160,518.8,160.8z" />
	<path fill="#141110" d="M529.8,147.9c-0.3,0-0.5,0-0.8-0.1c0-6.6-1.5-13.5,1.6-19.7c1.3,2.4,3.6,0.1,5.3-0.5c2.3,1.9,0.3,4-1,5.9   c-1.3,0.2-2.6,0.5-4.2,0.8C529.1,138.6,531.7,143.9,529.8,147.9z" />
	<path fill="#1C1514" d="M579.2,288.4c-1.2,0.1-2.7,1.2-3.5-0.2c1.4-1.5,3.6-0.8,4.6-3c0.2-0.2,0.8-0.3,0.8-0.6   c0.8-2.9,3.8-3.1,5.7-4.8c1.8,0.6,2.8,2.1,3.8,3.4c-0.2,0.3-0.4,0.5-0.7,1c-1-0.8-1.8-1.5-2.7-2.1c-2.9,1.5-7.2,4.2-3.1,5.4   C582.5,287.6,580.9,287.9,579.2,288.4z" />
	<path fill="#8B7166" d="M537,128.9c-0.3-0.3-0.6-0.7-1-1.2c-1.3,0.2-3.4,2.5-4.6,1.2c2.5-2.1,4.5-7.9,8.3-5.1   C538.8,125.5,537.7,127.1,537,128.9z" />
	<path fill="#A48678" d="M583,285.5c1.4-1.8,1.4-1.8,4.4-3.4c0.8,0.7,1.7,1.4,2.7,2.1c0.3-0.4,0.5-0.7,0.7-1c0.2,0,0.4,0,0.7,0.1   c0,0.5,0,0.9-0.1,1.4C588.4,284,585.6,288,583,285.5z" />
	<path fill="#272A30" d="M388.2,505.6c0.3-0.1,0.6-0.2,1-0.3c0.7,1,0.4,2.8,0.3,4c-1.2,2.8-0.1,5.7-0.7,8.6   C387.8,513.9,388.5,509.7,388.2,505.6z" />
	<path fill="#4C505F" d="M323.9,567.7c1.6,2.1,0.3,4.6-0.2,6.9c-0.4,0.1-0.7,0.2-1.1,0.3C323.4,572.5,322.7,569.8,323.9,567.7z" />
	<path fill="#DADEDE" d="M503.2,6.2c-0.7,1.7-2.5,1.9-3.7,2.9c-2.4-2.3,2.5-2.9,3.5-3.9C503.1,5.6,503.2,5.9,503.2,6.2z" />
	<path fill="#CBE6E6" d="M455.9,34.2c-2.1,0-4.2,0-6.3,0c0.9-0.7,2.3-0.3,2.8-1.4c0.8,0,1.6,0.1,2.6,0.1   C455.2,33.3,455.5,33.8,455.9,34.2L455.9,34.2z" />
	<path fill="#161A21" d="M388.7,517.8c0.1-0.8,0.2-1.6,0.2-2.4c0.3,0.1,0.6,0.2,1.1,0.4c0,1.1,0,2.3,0,3.6c-0.4,0.1-0.8,0.2-1.2,0.3   C388.8,519.1,388.8,518.5,388.7,517.8z" />
	<path fill="#989B9B" d="M576.5,73.9c-1.2-1.1-0.5-1.9,0.3-3.1c0.7,0.9,0.6,1.6,0.4,2.3C576.9,73.4,576.7,73.7,576.5,73.9z" />
	<path fill="#2B292D" d="M326,555.6c0.2,0.8,0.4,1.6,0.7,2.7c-0.5,0.1-0.9,0.2-1.3,0.3C325.3,557.5,325.3,556.5,326,555.6z" />
	<path fill="#93A1A1" d="M504.6,567.7c-0.4-0.3-0.8-0.6-1.6-1.1c1.4-0.5,2.3-0.4,3.1,0.4C505.6,567.2,505.1,567.4,504.6,567.7z" />
	<path fill="#B0B9D1" d="M263.8,415.1c0,0.9,0,1.8,0,3.2C263,416.9,263.3,416,263.8,415.1z" />
	<path fill="#ACB6B6" d="M439.6,112.6c0.4-0.5,0.7-1,1.2-1.6c0.5,1.1,0.2,1.8-0.3,2.4C440.2,113.1,439.9,112.9,439.6,112.6z" />
	<path fill="#F1E6E6" d="M532.2,11.1c-0.6,0.7-1.3,0.9-2.2,0.5c0-1,0.7-1,1.4-1.1C531.7,10.7,531.9,10.9,532.2,11.1z" />
	<path fill="#437E7E" d="M548.3,22.4c1,0,2,0,3,0c0,0.2,0,0.3-0.1,0.5c-0.9,0-1.9,0.1-2.8,0.1C548.4,22.8,548.3,22.6,548.3,22.4z" />
	<path fill="#B28C7D" d="M574.4,289.1l-0.3,0.1c0,0-0.3-0.2-0.3-0.2c0.1-0.1,0.3-0.3,0.4-0.4C574.2,288.8,574.3,288.9,574.4,289.1z" />
	<path fill="#EAA388" d="M342.3,302.5c19.2-4.4,39.8-1.9,57.8,6.1c10.1,7.4,20.1,15,32.1,19.2c8.7,4.5,18.7,7,25.9,13.9   c5.2,5.7,12.3,6,19.5,4.4c1.5,15.1,0.4,30-3,44.7c-1.1,4.5,1.4,8.7-0.1,13.1c-0.3,1-0.5,2.3,0.7,3.2c1.1,38.2-11.2,75.9-7,114.4   c-2.6,1.3-6,1.2-8.9,1.7c-5.9-0.2-4.1,9-9.8,8.4c-2.6-21.8-4.5-43.9-9.4-65.3c-4.5-13.3-9.6-27.1-8.2-41.4   c2.1-9.5-0.8-22.3,6.1-29.9c0.4-10.1,2-20.7-4.4-29.4c-0.5,1.3-0.9,2.2-1.4,3.3c-2.8-5.5-6-9.9-12.2-11.7c-0.2,0.3-0.6,0.7-1,1.2   c1.4,2.6,1.5,5.2,2.1,8.1c-30.4-8.2-85.6-22.6-80.7-62.8C341.2,303.3,341.7,302.9,342.3,302.5z M457.3,353.9   c-0.1,5,5.2,8.3,8.8,11.1c2.9-4-0.5-12.2-3.8-15.3C458.7,349.4,456.5,349.7,457.3,353.9z M435,419c1.7-0.4,4.4-12,2.7-12.4   C435.3,409.1,434.1,414.4,435,419z M437.4,419.8c-1.9,1.7-3.3,6.2-1.6,7.8C437.5,426,437.5,423,437.4,419.8z M471.2,386   c-1.3,2.1-1.3,3.2,0,5.8C472.4,389.8,472.4,387.7,471.2,386z M437.2,440.6c1.1-1.8,1.1-3.5,0.1-5.3   C435.8,437.1,435.8,438.6,437.2,440.6z M438.1,450.3c0.2-1.8,0.5-3.5-0.3-5.5C436.3,446,436.2,449.9,438.1,450.3z M465.8,375.2   c0.5,1.8,0.2,2.6,1.6,3.6C467.2,375.7,467.2,375.7,465.8,375.2z M468.9,380.9c-0.8,0.9-0.6,1.6,0,2.5   C469.5,382.5,469.7,381.7,468.9,380.9z" />
	<path fill="#B28C7D" d="M421.9,273.6c11.4,13.7,27.3,22.7,40,35.1c-5.6,4.9-9.3,10.8-9.6,18.3c-14.8-10.2-37.7-11.6-47.1-28.2   c5.1,1.8,9.8,3.7,14.6,0.3c-2.1-6.2-10.2-7.8-15.5-10.8c-1.1-3-3.3-1.4-5.1-2.8c-2.8-11.3-7.4-22.3-8-33.9   c13.4,2.8-2.5-14-3.5-18.8c-2-7.4-0.6-15.6-0.8-23.3c21.1,11.6-4.7-26.8-6.4-33.3c-1.9-5.3,0.8-4.7-5.7-7.1   c0.5-9.3,5.5-18.1,13.4-23.1c2-1.2,3.6-2.6,3.7-4.9c9.9-6.1,21.4-6.5,31.5-11.6c20.1,14.9,12.6,47.6,4,67.4c-0.3-0.3-0.6-0.5-1-0.9   c-7.3,9.3-5.8,20.3-4.4,31.1c0.7,15.4,1.7,30.8,2,46.2c-2-0.4-1.1-2.5-3.2-2.7C420.2,272.2,420.9,272.9,421.9,273.6z M414.6,142.7   c1.3,0.9,2.6,1.9,4.5,1.5C417.1,142.1,417.1,142.1,414.6,142.7z M412.1,144.1c-1.7-1.2-1.7-1.2-3.4-0.9   C410.1,144.1,410.1,144.1,412.1,144.1z" />
	<path fill="#EAA388" d="M480.6,349.7c-0.5-1.2-0.9-2.4-0.5-4c5.1,1.4,9.3-1.1,14.1-2.4c12.2-4.4,25.8-4.9,37.1-11.2   c1.1,0,2.2,0.2,3.1-0.6c2.7-0.4,5.3-1.1,7.8-2c3.6,2.6,7.9,1.8,12,1.8c3.8,19.7-0.5,40.6-3.2,60.3c5.6,40.2-14.8,78.2-13,118.7   c-1,1.3-2.1,2.8-3.3,4.4c-5.4,0.4-10.9,0-16.5,0c-2-20.5-0.5-41-2.9-61.3c-3.4-26.7-11.4-52.9,2.5-78.2c2,0.9,3.5,2.5,5.7,2.6   c0-3.1-3.3-3.9-4-6.8c3.9,0.1,7.2,2.3,11,1.9c-0.5-0.8-0.8-1.4-1.2-2l0,0c0.9-0.1,1.8-0.2,2.7-0.2c-0.6-5.3-5.2-6.4-9.8-7.7   c1.1-0.7,1.8-1.1,2.7-1.7c-8.1-1.9-18.4-0.3-26.4-3.6c-6,1.9-11.1-1.6-17.2,0.5C480.9,355.2,482.2,351.9,480.6,349.7z M549.9,342.3   c0.1-6.5-9.7-11.9-8.6-2.3C543.4,343.5,546.4,347.1,549.9,342.3z M532.4,407.6c-0.6-3.2,0.3-7.3-2.2-9.6   C528,399.3,529.2,408.3,532.4,407.6z M529.4,409.8c-0.2,2.6,0.3,5.1,0.8,7.7C532.5,417.6,532.1,409.2,529.4,409.8z M550.7,373.4   c1.6-1.8,1.5-6.8-1.1-7.2C549.9,368.5,549.4,370.8,550.7,373.4z M527.6,426.5c1-1.9,1.2-3.6-0.1-5.5   C526.2,423.2,526.2,424.7,527.6,426.5z M538.2,346.6c2.5-1.8,2.8-3.1,1.2-4C539.1,343.7,538.8,344.8,538.2,346.6z M524.7,434   c0.7-1.1,1.3-2.3,0.7-3.8C523.9,431.4,524.2,432.7,524.7,434z M548,363.7c0.9-1.1,0.8-4-1.1-3.5C546.8,361.5,547.1,362.6,548,363.7   z M534.4,348.8c1.2-0.5,2.1-1.1,2-2.4C534.4,346.6,534.3,346.6,534.4,348.8z M529.2,349.7c-0.1,0.1-0.2,0.3-0.3,0.4   c0.4,0.2,0.7,0.3,0.9-0.2C529.6,349.9,529.4,349.8,529.2,349.7z" />
	<path fill="#D69479" d="M342.3,302.5c-0.5,0.4-1.1,0.8-1.8,1.4c-4.8,40.3,50.3,54.6,80.7,62.8c-0.6-2.9-0.8-5.5-2.1-8.1   c0.4-0.5,0.7-0.9,1-1.2c6.2,1.9,9.4,6.3,12.2,11.7c0.4-1,0.8-2,1.4-3.3c6.4,8.7,4.8,19.3,4.4,29.4c-6.8,7.6-3.9,20.4-6.1,29.9   c-1.4,14.2,3.7,28,8.2,41.4c4.9,21.4,6.8,43.5,9.4,65.3c-2.6,0.2-5.3,0.8-8.1-0.1c0.7-47.6-29.9-94.5-8.3-139.9   c-1-2.3-0.7-7.9-4.6-6c0.4,0.7,0.7,1.3,1.1,2c-45.3-3.9-125.7-4.6-122.4-68.4C314.4,307.5,329.8,305.1,342.3,302.5z M431.8,383.8   c2.4,2.1,4.7-1.4,4.6-3C434.6,381.4,433.6,382.9,431.8,383.8z M436.8,387.6c-2-1-2.1-1-3.2,0.3   C435.7,388.9,435.8,388.9,436.8,387.6z" />
	<path fill="#B28C7D" d="M530.7,128.2c-3.1,6.2-1.6,13.1-1.6,19.7c-1.2,0.5-2.3,1-3.5,1.4c-3.6-2.3-10.8-0.5-12.3-5   c-0.1-4.2,3.5-3.7,6.8-3.6c-1.9-1.3-3.3-2-5-0.7c-2.4-0.3-3.8,2.6-3.3,4.7c0.8,4.3,5.8,3.5,9,4.7c0.2,0.7,0.5,1.4,0.7,2.1   c-2.1,0.3-4.1,0.2-6.1-0.6c-2.3,1.5-7.4,1.2-8,4c-2.2-0.2-2.3-2.9-4.7-0.5c0.2,0.4,0.3,0.8,0.5,1.2c0.7,0.4,1.3,0.8,1.9,1.1   c0.3,0.9,0.6,1.6,0.9,2.3c-0.8,1.3,1.4,2.6,2.6,2.9c-14.2,21.1-47.3-30.6-36-46.2c-6.5,1.3-5.8-7.2-6-11.6c0.6-0.1,1.1-0.1,1.7-0.1   c0.7-1.4,2-2.6,1.9-4.3c1.9-4.2-0.8-3.3,5-4.1c2.6,1.6,3.1,4.1,3.9,6.2c-0.4,1.1-0.7,2.1-1,3c-1.7,1.1-3.6,0.1-5.3,1   c-0.6,1.2-1.3,2.6-0.1,4c0.2,2.1-1.4,1.7-2.6,1.9c0.1,1.1,0.7,1.5,1.9,1.4c0.6-0.7,1.4-1.5,2-2.2c-0.8-1.4-0.4-2.4-0.3-3.9   c3.7-0.1,6-1.2,6.8-5c0.3,0,0.5,0,0.8,0c0.6,1,1.4,1.8,2.5,1.4c4.7-1.6,10.2,0,14.5-2.2c-1.4-0.7-2.7,0.5-4.1-0.4   c1.7-1.5,3.7-1.2,5.8-1.5c0-0.6,0-0.9,0-1.4c3.1-1.6,8-2.3,8.2-6.5c2.4,0.5,3.6,0.7,5.5-1.1c4.2,1.2,10.7,1.3,15.6,2.1   c3.2,2.3,3.2,2.3,6.3,1.1c2.5,0.9,4.9,3.4,7.7,2.4c9.8-1.6,3.5,12.8,2.4,17.9C544.2,122.2,533.2,120.4,530.7,128.2z M470.1,104.4   c0.8-0.5,1.6-1,2.2-1.3c1.7,0.3,3.2,1,4.8,0c-3.7-3.5-11.3,0.8-7.2,6.3C470,107.3,470,105.9,470.1,104.4z M511.6,128.2   c-2.3-0.5-4.3-1.6-6.1-3c-2.7,1.4,1.3,5.7,2.6,6.7c2.3,0.9,10.7,1.2,10.4-2.4c0.4-1.9,2.2-3.8,1.6-5.7c-1.5,1.1-1.1,2.9-2.4,4.2   C515.8,128.2,513.7,128.2,511.6,128.2z M525,122c1.7-8.1-15.3-6-20.3-4.7C511.8,118.6,519.4,115.6,525,122z M476,98.6   c-1.1,0.8-2.6,0-3.8,1.1C475.3,100.1,475.3,100.1,476,98.6z" />
	<path fill="#F5DDCE" d="M425.6,241c0.4-11.8-5.7-24.9-0.8-36c14.2-19.7,23.2-64.1-2.4-77.9c4.3-1.2,9.3-1.4,13.9-2.1   c15.7,25.1,7.8,56.1,15.6,83.2c8.5,19.3,25.2,3.8,30.1-9.4c6.5-11.5,4.5-24.8,4.3-37.4c3,2.8,5.5,4.7,9,6.6   c-2.3,24.1,5.7,52.1-9.1,73c-7.8,1.7-19.8,10-26,1.5c-1.2-4.3,3.3-8.6,0.4-12.7c-5.5,1.9-6.3,8.4-10.7,11.5   c-5.1,2.2-10.3,6.2-16.1,5.1c-2.5-0.8-5-1.9-7-2.6C425.9,242.8,426.7,241.6,425.6,241z" />
	<path fill="#F7EFD0" d="M491.6,553.6c2.7-13.1,6.4-25.7,9-38.7c1-0.7,1.9-1.3,3.1-2.1c6,21.7,18.6,19.5,32,4.9   c9.9-16.2,11.8-6.3,16.3,5.9c-3.8,3.8-9.3,5.1-13.6,8.6c0.6,0.8,1.1,1.6,1.6,2.3c5.7-2.4,10.7-5.6,13.8-8.9   c1.2,1.1,2.1,2.3,3.1,3.7c-2.3,3.6-6.5,4.6-9.7,7c-1.3,6.9,9.9-2.1,11.4-4.4c1.4,0.4,2,1.6,3,2.4c-1.6,3.1-5.2,4.5-6.8,7.5   c2.5,4,7.1-2.9,9.3-4.9c0.7,0.6,1.2,1.1,1.8,1.6c-0.7,2.5-3.2,3.5-4.3,5.7c2.2,4.3,5.8-1,7.4-3.3c1.5,1.2,2.7,2.6,4.1,3.7   c-1.3,1.9-4.2,2.1-4.8,4.6c1.6,3.3,6.3-1.2,7.5-3c9.4,2.7,15.7,9.1,24.8,12.1c-0.1,2.1-0.2,4.2-0.3,6.2   c-17.2,7.1-34.5,10.8-52.3,3.7c-1.8-0.2-4-0.6-5-2.2c-2.6-4.5-7.9-5.5-9.6-10.3c-1.5,0-2.9,0-4.4,0   C517.3,563.8,503.8,556,491.6,553.6z" />
	<path fill="#E6CCBB" d="M356.4,298.1c-2.8,0.6-5.9-0.6-8.5,0.7c-1.4,0.5-3.2-0.5-4.2,0.7c-13.1,2.7-26,6.3-36.3,15.1   c-1.8-22.1,12.6-42.1,21.7-61.4c13.9-21.6,23.2-45.5,30.1-69.9c0.6,11.8,3,26.8,16.7,30.5c1.5,4.8,0.2,10.2,0.2,15.2   c-5.9,6.8-11.2,14.2-17,21.3c2.9,2.2,5.9,1.8,8.6,4.7c-4,0.2-7.2-1.2-10.6-2.5c-0.7,0.6-1.4,1.3-2.3,2.2c6.2,4.5,13,4.8,19.5,8.9   c-8.1,0.6-14.7-2.7-21.8-5.5c-1.1,4.2-2.1,8.1-3.2,11.9c0.6,0.6,1.2,1.1,2.2,1.9c-1.4,0.2-2.4,0.3-3.3,0.4   c-3.5,7-6.3,14.6-5.6,22.4c5.7,0.5,12-1,17.3,0.6c-10.1,0.1-19.7,0-29.9,1.1c3.4,3,7.9,0.4,11.9,1.1c7.9-1.7,16.8-0.5,25.1-0.6   C363.7,298.5,359.7,296.5,356.4,298.1z" />
	<path fill="#F7EFD0" d="M436.7,538.1c0.6,1.6,1.2,3.3,1.9,5.1c11.4,3.3,15.6-8.2,18.7-16.7c7.7-0.7,13.9-2.2,20.6,0.1   c0.9,5.1,1.6,10.8,3.1,16.1c-3.3,0.6-23.7,4.2-19.3,9.4c6.4-3.1,12.4-5.3,19.3-7c0.8,1.1,1.6,2.1,1.9,3.6c-6-0.6-14.4,3.5-17.7,8.2   c0.3,0.4,0.7,1,1.2,1.6c5.8-3.2,11-7,17.6-8.4c1,1.2,1.8,2.5,2.8,4c-2.9-0.3-19.3,5-13.1,7.8c5-1.9,9.5-5.8,15.3-5l0,0   c-0.1,0.5,0.2,0.7,0.7,0.7c0,0,0,0,0,0c-3.2,3.1-8.3,3-11.7,6.1c-3,6.5,12.3-2.5,14-3.7c7.2,7.1,14.1,14.1,23.4,18.2   c0.5,2.7,0.6,5.5,0,8.3c-11.4,0.1-21.8,7.1-33.2,4.4c-12.1,2.2-23-2.4-31.4-10.9c0-1.2,0-2.3,0-3.7c-0.6-0.6-1.1-1.2-1.7-1.7   c-4.2-1.1-8-0.3-11.9,0.9c-15.5-4.5-0.1-17.7-2-28.1c-0.1-3.2,1.6-6.1,0.1-9.3c-0.2-0.7-0.4-1.6,0.5-2.2   C436.5,536.6,435.6,537.7,436.7,538.1z M484.6,570.4c3.9-1.4,8.4-1.6,11.8-4.1C495.3,563.5,478.8,566.4,484.6,570.4z" />
	<path fill="#977264" d="M379,171.2c-0.7,6.9,30.4,51.3,7.8,38.5c0.3,7.7-1.2,15.9,0.8,23.3c1,4.7,16.9,21.5,3.5,18.8   c0,4.4,6.1,35.9,10.5,34.6c-0.2,0.4-0.4,0.8-0.6,1.3c0.8,2.2,2.7,6.8,5.7,5.5c-0.9-1.7-1.7-3.2-2.5-4.7c4.7,2.6,10.9,4.1,14.2,8.4   c-0.4,0.1-0.8,0.2-1.6,0.3c0.5,0.5,0.8,0.8,1.3,1.3c0.1-0.8,0.2-1.2,0.3-1.6c0.9,0.5,1.1,1.4,1.3,2.4c-4.7,3.4-9.5,1.5-14.6-0.3   c9.4,16.6,32.3,18,47.1,28.2c0.4,2.4,0.8,4.8,1.2,7.3c-61.8-24.5-61.1-31.1-73.8-94.5c-2.8-15.4,3.4-33.2-7.1-46.5   c1.4,6.1,3.1,11.6,3.5,18c-40.6-24.2,8.6-95.1,47.2-81.8c-10.1,5.1-21.6,5.6-31.5,11.6c-0.2,2.3-1.8,3.7-3.7,4.9   c-7.9,5-12.9,13.8-13.4,23.1C376.3,169.9,377.7,170.5,379,171.2c-0.4,0.1-0.7,0.1-1.3,0.3c-0.1,2.3-3.5,6.6-0.3,7.9   C378,176.5,379.3,174,379,171.2z M379.3,182.5c-1.5,2.3-1.5,3.8,0,5.3C380.6,185.2,380.6,185,379.3,182.5z M383,239.6   c-1.9,1.6-0.6,3.6,1.2,5.5C384.1,243.1,383.8,241.5,383,239.6z M408.4,293.2c1.6,3.1,2.7,4,4.7,3.8   C411.7,295.4,410.9,293.9,408.4,293.2z M383.1,194.5c1.2-1,1.1-2.5-0.2-2.8C382.6,193.1,382.6,193.1,383.1,194.5z M386.4,243.8   c-0.8,1.2-0.8,4.3,0.9,3.1C387,246,386.8,245.1,386.4,243.8z" />
	<path fill="#92A3C5" d="M422,437.9c10.9,33.5,2.4,69.6,7.1,103.4c0.6,0,1.2,0,1.9,0c0.2,6-4.5,10.7-4.9,16.8   c-25.1,7-50.2,13.9-75.8,21c0.9-5.9,1.9-10.8,3.2-16.5c18.3-9.3,40.5-10.9,60.2-17.3c5.7-36.2,0.2-76.5,2.1-114   c1.6-1.6,3.6-1.3,5.4-2C421.9,432.4,420.3,435.6,422,437.9z" />
	<path fill="#B28C7D" d="M478.5,251c26.9-17.3,17.3-54.6,19.4-81.7c4.1-0.2,7.4-1.3,10.7-3.9c6.2,11.7-3.2,26-3.1,38.4   c2.1,21.9-4.1,43.6-2.3,65.4l0,0c-1.3-0.6-2-1.2-3.6-1.2c0.9,2,2.3,2.5,3.9,3.3c0.2-0.6,0.3-1.1,0.4-1.5l-0.1,0.1   c9.3,5.7,19.1,11.4,25.9,20.2c-8.3,2-15.9,4.8-20.1,12.6c-16.3,6.3-31.5-21.6-32.3-34.7c2.8,2.4,8.4,6.7,11,1.9   c0.2-7.7-8.8-11.2-10.7-18.4c0,0,0,0,0,0C477.9,251.4,478.2,251.2,478.5,251z M495.1,268.9c1.3,1.3,1.3,1.3,3,1.4   C497.2,268.8,496.9,268.7,495.1,268.9z" />
	<path fill="#B28C7D" d="M461.6,164.9c-0.1,0.3-0.2,0.6-0.4,1.3c7.1-1.5,12.7-7.8,19.5-10.5c6.7,5.1,3.4,15.6,3.5,23   c-0.4,12.8-5.6,33.2-20.3,35.4c-0.1-4.3,0-9.1,1.1-13.3c-0.6-0.7-1.2-1.4-1.7-2.1c-1.3,4.9-0.2,11-2.6,15.8   c-18.7-11.1-4-63.8-21-86.9c1.7-1.7,4.7-0.3,7-1.3c5.6-1.1,10.9-4.3,16.3-5.2c-1.4,4.3-1.6,8.4-1.3,12.8l0,0   c-1.3,1.5-1,3.8-1.5,5.6c-1.4,0.9,0.2,2.9-1.4,3.6c-1,1.2-0.6,2.8-0.6,4.2C459.9,153.1,455.7,159.4,461.6,164.9z M456.4,150.1   c-1.9,0.2-1.2,1.3,0,2.5C456.4,151.4,456.4,150.8,456.4,150.1z M452.1,157.7c2.2-0.4,1.5-0.3,1.4-2.4   C452.9,156.3,452.6,156.8,452.1,157.7z" />
	<path fill="#F5DDCE" d="M359.9,295.3c-5.3-1.6-11.5-0.1-17.3-0.6c-0.7-7.8,2.1-15.4,5.6-22.4c0.9-0.1,1.8-0.2,3.3-0.4   c-0.9-0.8-1.5-1.3-2.2-1.9c1-3.9,2.1-7.8,3.2-11.9c7.1,2.8,13.7,6.2,21.8,5.5c-6.5-4.1-13.3-4.4-19.5-8.9c0.9-0.8,1.6-1.5,2.3-2.2   c3.4,1.3,6.5,2.7,10.6,2.5c-2.7-2.9-5.7-2.5-8.6-4.7c5.8-7.1,11.1-14.5,17-21.3c2.1,25.6,9.3,50.4,17.9,74.5   c-6.9-1.7-13.2-3.2-20-4.7c0.5-0.7,1-1.4,1.5-2.1c0.5,0.1,1,0,1.5,0.2l0.2-0.1c2.1,0.5,3.9,2.2,5.8,0.8c-1.2-0.5-2.1-0.8-3.3-1   c0,0,0,0,0,0c-11-3.2-23-7.2-34.5-5.1c8.4,1.3,16.6,0.1,24.6,3.2C366.8,296.2,363.2,295.1,359.9,295.3z" />
	<path fill="#D69479" d="M529.3,370.9c0.4,0.6,0.7,1.2,1.2,2c-3.9,0.4-7.2-1.8-11-1.9c0.7,2.8,4,3.7,4,6.8c-2.2-0.1-3.7-1.7-5.7-2.6   c-13.9,25.4-5.9,51.6-2.5,78.2c2.3,20.3,0.9,40.8,2.9,61.3c4.6,0.1,9,0.1,13.5,0.2c-7.1,0.7-15.8,1.8-22.2-1.8   c1.2-23.6,0.9-47.5-2-71c-3.3-16-9.7-33.9-1.4-49.1c-0.3-0.5-0.5-0.9-0.6-1.1c2.6-6.8,3.9-14.1,9.7-19c-0.6-14-25.4-0.7-34.4-4.9   c0-6.1,0-12.1,0-18.2c1.6,2.2,0.3,5.5,0.7,8.4c6.1-2.1,11.2,1.4,17.2-0.5c8,3.3,18.4,1.7,26.4,3.6c-0.9,0.6-1.7,1-2.7,1.7   c4.6,1.2,9.1,2.4,9.8,7.7C531.1,370.7,530.2,370.8,529.3,370.9c-0.2-0.1-0.3-0.2-0.5-0.3C529,370.7,529.1,370.8,529.3,370.9z" />
	<path fill="#373A46" d="M475.7,344.8c-16.2,4.1-27.5-15.8-17.6-29.3c18.4-20.9,39.6,11.8,21.1,27.2l0,0c-0.6,0-1.2,0-1.4,0.7l0,0   C475.7,343.1,477.6,344.9,475.7,344.8c-0.3-0.5-0.5-0.9-1.1-0.1C475,344.7,475.3,344.7,475.7,344.8z" />
	<path fill="#EBDDB8" d="M436.1,536c-0.9,0.5-0.8,1.5-0.5,2.2c1.5,3.2-0.2,6.1-0.1,9.3c1.9,10.4-13.5,23.6,2,28.1   c3.9-1.1,7.7-2,11.9-0.9c0.6,0.6,1.1,1.2,1.7,1.7c0,1.3,0,2.5,0,3.7c8.5,8.5,19.3,13.1,31.4,10.9c11.4,2.7,21.8-4.3,33.2-4.4   c0.1-0.8,0.2-1.5,0.4-2.2c0.8,2.7,0,5.3-0.4,8c-11.8,7-56.2,8.5-62.4-6.2c-7.5-10-22.7-3.2-30.6-12.6c0.1-0.7,0.2-1.4,0.4-2.2   c5.9-3.2,4.2-11.5,6.2-17.1c1.9-5.3,5.1-10.1,4.8-16c0-1.4,0.3-2.7,1.8-3.9C435.9,535.2,436,535.6,436.1,536z" />
	<path fill="#B28C7D" d="M501,332c3.5-9,1-18.5-5.3-25.3c4.1-0.3,8.9-2.3,12.3,0.9c0.6,4.7-1.5,15.2,2,17.9   c-0.5-4.3,1.1-18.9-2.6-20.4c3.7-0.8,10.1-1.8,10.4,3.1c0.3,5.6,1,10.6,1.3,16.2c3.8-5.4,0.1-13.5-0.4-19.7c1.5-0.3,3-0.4,4.5-0.1   c4.3,5-2.9,15,1.6,20.6c0.3-4.7,0.6-8.7,0.9-12.8c1.1-1.6,0.2-3.3,0.6-5c0.2,0,0.4,0,0.6,0c2.9,6.2,3.4,13.4,2.6,20.1   c-9.4,3.6-18.8,4.4-28.4,5.8C501.2,332.7,501.1,332.4,501,332z" />
	<path fill="#977264" d="M461.5,133.8c-0.3-4.4,0-8.6,1.3-12.8c-5.4,0.9-10.7,4.1-16.3,5.2c-2.3,1-5.2-0.4-7,1.3   c-0.8-0.5-0.8-1.7-1.1-2.4c6.5-2.5,12.2-4.5,18.6-7.7c-0.3,1.8-2.6,2.5-1.5,4.4c2-0.5,2.8-2.4,4.3-3.4c0.4,0.1,0.9,0.2,1.3,0.3   c1.6-1.3,0.2-3.8,2.1-5c1.9,1.9,0.2,5.7,3.6,6.2c0.5-1,0.9-1.8,1.3-2.7c0.7,0.2,1.4,0.4,2.3,0.6c-5.1,12.6,0.8,25.9,8.5,36.1   c-6,3.4-11.6,7.2-17.3,11c-5.9-5.5-1.6-11.8-3.6-17.7c1.8-1.4,1.9-1.9,0.6-4.2c1.6-0.7,0-2.7,1.4-3.6c0.1,0.4,0.3,0.8,0.6,1.5   C461.8,138.7,463.3,135.7,461.5,133.8z" />
	<path fill="#EBDDB8" d="M491.6,553.6c12.2,2.5,25.6,10.3,37.4,2.3c1.4,0,2.8,0,4.4,0c1.7,4.8,7.1,5.8,9.6,10.3c1,1.6,3.2,2,5,2.2   c17.9,7,35.2,3.4,52.3-3.7c0.1-2.1,0.2-4.1,0.3-6.2c1.4,3.9,0,7.2-0.2,11.4c-20.5,10.8-48.4,8.6-67-5.1c-2.5-2.9-5.8-0.5-8.9-0.4   C513.8,564.3,494.8,565.9,491.6,553.6z" />
	<path fill="#977264" d="M477.7,251.5c1.9,7.2,10.9,10.7,10.7,18.4c-2.7,4.8-8.2,0.5-11-1.9c-0.6,8.7,6.2,15.7,9.5,23.4   c2.8,6,9.7,8.7,14.5,12.5c-2.3,1-5,0.4-7.4,1.6c-8-3.3-23-18.7-22.2-27.6c0.9,2.6,1.6,4.4,3.3,5.9c0-2.6-2-4.3-2.2-6.5   c-0.7,0.1-1.3,0.2-1.9,0.2c-1.3-8-1.9-16.1-1.4-24.1C472.3,252.8,475,252.2,477.7,251.5z" />
	<path fill="#92A3C5" d="M357.8,559.9c-1.2,1.3-2.7,2.3-4.4,2.8c0.1-1,0.1-2,0.2-3.2c-6.6-2-15-1.4-21-4.9   c15-3.9,29.7-8.3,44.8-11.7c9.9,2.3,20.9,0.4,30.5,2.1c-16.5,4.7-33.4,8.4-50,12.8c-1.2,0.4-5,0.7-3.2,2.5   C355.7,560.2,356.7,560.1,357.8,559.9z" />
	<path fill="#E6CCBB" d="M425.6,241c1.1,0.5,0.3,1.8,1.3,2.9c2,0.8,4.5,1.8,7,2.6c5.8,1.1,11-2.9,16.1-5.1   c4.4-3.1,5.2-9.6,10.7-11.5c2.9,4.1-1.6,8.4-0.4,12.7c6.3,8.4,18.2,0.2,26-1.5c-5.4,9.2-20,13.9-29.1,8.1c0.3-0.6,0.6-1.2,1-2.2   c-9.7,6.1-20.4,9.7-32,8.1C425.9,250.3,425.4,245.7,425.6,241z" />
	<path fill="#798BB3" d="M349.9,558.7c1-0.3,1.6,0.4,2.4,0.7c-1.2,6.6-2.5,13.3-3.7,19.8c-7.2,0.6-15.4-2.4-23.1-3.1   c1.1-6.6,2-13.1,3.4-19.5c7.4,0.6,14,3.5,21.4,3.3C350.7,559.2,350.1,559,349.9,558.7z" />
	<path fill="#9492A1" d="M505.3,80.3c9.9-3.1,53.8-2,47.6,15.4c-11.3-11.3-29.7-7.4-44.4-7.2C506.8,86,506.1,83.1,505.3,80.3z" />
	<path fill="#373A46" d="M527.1,307.4c-3.5-1.4,0.4-9-10.6-3.6c-1.3-1-2.9-0.6-4.4-0.8c14.8-25.2,43.3,10.5,20.5,25.5   c-0.4-0.3-0.7-0.6-1.2-1c2.9-3.7-1-7.7-0.1-11.7c0.1-4-1-8.7-4.3-11.3C525.8,305.7,527,306.5,527.1,307.4z" />
	<path fill="#788AB2" d="M422,437.9c-1.7-2.3-0.1-5.5-0.8-8.4c-1.9,0.7-3.8,0.4-5.4,2c-0.7,37.2,1.3,75.4-0.7,112.2   c-0.2-46,0.7-92.3-0.3-138.2c-0.3,0-0.5,0-0.8,0c-1.1,10.8,0,22.1-0.5,33.1c-2.5-10.2,1.4-23-1.4-33.2c4.8-1.6,9.8-2.6,14.7-4   C425.2,413.5,421,425.5,422,437.9z" />
	<path fill="#918A94" d="M505.3,80.3c0.8,2.8,1.6,5.7,3.2,8.2c0.4,0.1,0.7,0.1,1.1,0.2c-9.2,1.4-18,4.7-26.4,9.3   c-2-2.3-3.4-5.7-6.8-6C472.8,86.9,501.3,80.2,505.3,80.3z" />
	<path fill="#373A46" d="M555.4,328.5c-0.8,0-1.4,0.2-1,1.4c-3.1-0.6-6.4,0.1-9.5-1.5c2.2-1.4,4.1-2.6,6.5-4.1c0.8,0,2.2,0,3.9,0   c-0.7-1-1.2-1.8-1.8-2.6c5.7-9.8,5.5-19.2-2.5-28.4C568.9,296,570.4,321,555.4,328.5L555.4,328.5z" />
	<path fill="#4C505E" d="M499.7,317.2c2,4.5,1.6,9.9-0.8,14.1c-3.9-0.3-7.3,1.7-11,2.6c0.3-4.7,0-9.6,0-14.2   C492,318.9,495.6,317.5,499.7,317.2z" />
	<path fill="#4C505E" d="M554.6,303.1c1.2,4.5,1.4,9-0.7,13.4c-4,1.2-8,2.4-12,3.5C544.7,307.7,537.5,305.5,554.6,303.1z" />
	<path fill="#F4DCCD" d="M426.3,274.1c-2.2-5.3,0.6-10.6,0-16.2c6.1,0.4,12,0.2,18-1.3C442.1,261.2,434.6,268.5,426.3,274.1z" />
	<path fill="#967163" d="M501,332c0.1,0.3,0.1,0.7,0.2,1.3c9.6-1.4,19.1-2.2,28.4-5.8c0.6-2.2,0.1-4.5,0.3-6.8   c1.5,3.1,0.9,8.1-1,10.6c-5.1,1.4-9.6,3.2-15,4.9c-0.4-0.1-1.3-0.3-2.4-0.6c-0.6,0.6-1.2,1.2-1.9,2c-5.3,0.2-10.2,2.2-15.1,3.8   c-0.3-0.3-0.5-0.6-0.8-0.8c1.6-1.3,2.9-3,5.1-3.5c1.3-0.1,2.6,0.5,4.4-0.6c-1.8-0.1-3.1-0.1-4.4-0.2   C499.2,334.6,500.1,333.3,501,332z" />
	<path fill="#B18B7C" d="M516.3,527.1c-1.7-2-2.1-4.3-4.4-5.2c-0.2,0.7-0.4,1.2-0.6,1.8c-2.3-1.5-2.9-5.2-2.4-8   c7.8,3.1,15.6,2.6,23.9,2.6C529,523.2,522.6,526.8,516.3,527.1z M511.7,521.1c0.9-1,0.9-1.7-0.2-3   C511.7,519.5,511.7,520.2,511.7,521.1z" />
	<path fill="#4C505E" d="M580.1,304.5c-0.2,3.3,0.6,7-1.4,9.9c-3.7,0.7-7.4,2.7-11.1,2.5c-0.7-3.3-0.1-6.9-0.3-10.3   c3.5-1.9,8.2-2.1,12.1-3.6C579.7,303.6,579.9,304.1,580.1,304.5z" />
	<path fill="#373A45" d="M567.3,315.8c0.1,0.4,0.2,0.9,0.3,1.2c3.7,0.1,7.4-1.9,11.1-2.5c-2.2,8.4-15.6,16.1-23.4,14.1l0,0   C562,327.8,565.9,321.8,567.3,315.8z" />
	<path fill="#778AB2" d="M407.9,545.1c-9.6-1.7-20.6,0.2-30.5-2.1c6.6-1.9,13.4-5.1,20.1-2.2c4.7,0.8,10.8,0.6,14.5,3.6   C410.6,544.6,409.2,544.8,407.9,545.1z" />
	<path fill="#373945" d="M542,320.1c4-1.2,8-2.4,12-3.5c-3.3,9.3-13.2,12.2-21.8,14.1c-1.3-1,2.8-1.3,2.8-2.8   C538.9,326.9,540.3,323.3,542,320.1z" />
	<path fill="#373A45" d="M487.6,332.7c0.1,0.3,0.1,0.7,0.3,1.2c3.7-0.9,7.1-2.9,11-2.6c-3.3,7.9-13.3,13.6-21.1,12l0,0   c0.6,0,1.2,0.1,1.4-0.7l0,0C484.3,341.1,485.9,337.2,487.6,332.7z" />
	<path fill="#4B505D" d="M571.7,291.8c2.8,0.8,4.1,3.5,5.6,5.7c-3.6,2-8.1,2.3-12,3.6c-1.8-1.7-2.7-4.3-4.9-5.7   C563.1,292.5,568.1,293.1,571.7,291.8z" />
	<path fill="#4C505E" d="M539.8,301.1c-2-1.8-3.4-4.1-5.6-5.7c-0.2,0-0.4,0-0.6-0.1c3.1-1.7,7.5-1.5,10.6-3.5   c2.8,0.8,5.5,2.3,7.1,4.9C548.5,299.6,543.7,300.6,539.8,301.1z" />
	<path fill="#4B4F5D" d="M484.7,314.5c-2-1.7-3.7-4-6.2-5.1c3.5-1.8,7.3-2.9,11.2-3.5c2.7,1.4,6,2.4,7.1,5.6   C492.9,312.9,488.8,313.7,484.7,314.5z" />
	<path fill="#373A46" d="M484.7,314.5c4.1-0.8,8.2-1.6,12.2-2.9c1.8,1.5,2.6,3.4,2.8,5.6c-4.1,0.3-7.7,1.7-11.8,2.5   c-0.1,0.3-0.2,0.7-0.3,1.1C486.6,318.7,485.7,316.6,484.7,314.5z" />
	<path fill="#373A46" d="M539.8,301.1c3.9-0.5,8.7-1.5,11.4-4.4c1.5,1.9,3,3.9,3.4,6.4c-1.7-0.8-12.6,2.6-12,5   C541.7,306.7,541,303.4,539.8,301.1z" />
	<path fill="#373A46" d="M565.2,301c3.9-1.3,8.5-1.6,12-3.6c1.5,1.6,1.9,3.6,2.2,5.6c-3.9,1.6-8.6,1.7-12.1,3.6   C566.4,304.9,566,302.9,565.2,301z" />
	<path fill="#363945" d="M571.7,291.8c-3.6,1.3-8.6,0.7-11.3,3.6c-2.9-1.8-6.2-3-10.1-3.9C557.6,289.3,565.2,287,571.7,291.8z" />
	<path fill="#E4A085" d="M464.3,307.7c-2.5-2.7-5.6-4.6-7.2-7.2c6.8-0.5,13,2.1,19.7,3.2C472.7,305.2,468.4,305.9,464.3,307.7z" />
	<path fill="#8FA0C2" d="M429.7,539.1c0-3.2,0-6.4,0-10c2.7-1.3,5.7-1.9,8.7-2.4c1,3,0.2,4.9-0.1,8c-0.9-1.1-1.7-2-2.6-3.1   C432,532.8,432.4,540.6,429.7,539.1z" />
	<path fill="#070707" d="M534.9,327.8c-0.1,1.5-4.1,1.8-2.8,2.8c0.5,1.1,1.6,0.5,2.4,0.8c-0.9,0.8-2,0.6-3.1,0.6   c-0.5-1.1-1.5-0.5-2.3-0.8c3.7-6.9,0.5-16.8-2-23.9c-0.2-0.9-1.3-1.8,0-2.9c3.3,2.6,4.4,7.2,4.3,11.3c-0.8,4.1,3.1,8,0.1,11.7   c0.4,0.4,0.8,0.7,1.2,1c0.6-0.5,1.1-0.9,1.6-1.4C534.5,327.4,534.7,327.6,534.9,327.8z" />
	<path fill="#AC8879" d="M451,534.5c0.3,1.6-0.6,2.9-1.3,3.9c-3.2,1-5.7,3-9.1,2.3c-1-2.3,0.9-3.9,0.6-6.1   C444.4,534.6,447.5,534.6,451,534.5z" />
	<path fill="#947062" d="M506,159.2c-0.3-0.7-0.6-1.5-0.9-2.3c-0.5-0.3-1.2-0.7-1.9-1.1c5.1,0.6,9.7,2.7,15.2,1.7   C518.3,164.2,509.3,162.4,506,159.2z" />
	<path fill="#353A45" d="M544.1,291.9c-3.1,2-7.5,1.7-10.6,3.5c-2.6-0.5-4.9-1.7-7.4-2.5C531.7,291.2,538.7,288.5,544.1,291.9z" />
	<path fill="#0F0D0C" d="M516.6,303.8c6.2-3.2,8.1-2.5,9.9,3.5c-1.4,5.8-0.7,11.3-1.6,17.8c-4.5-5.6,2.7-15.5-1.6-20.6   c-1.6-0.2-3.1-0.2-4.5,0.1c0,0.5,0,0.8,0,1.2C517.7,305.6,517.1,304.8,516.6,303.8z" />
	<path fill="#343844" d="M489.7,306c-3.9,0.6-7.7,1.7-11.2,3.5c-2.4-0.9-4.6-2.3-7.7-2C476.5,304.6,484,302.9,489.7,306z" />
	<path fill="#161210" d="M507.5,305.2c3.7,1.4,2.1,16.1,2.6,20.4c-3.6-2.7-1.4-13.2-2-17.9c-0.7-0.5-1.5-1-2.2-1.6   C506.4,305.9,507.2,306,507.5,305.2z" />
	<path fill="#CEC2B5" d="M366.1,295.5c1.3-0.1,2.6,0,3.7-0.7c0,0,0-0.3,0-0.3c1.2,0.3,2,1.4,3.4,1c0.8,0.4,1.6,0.8,2.4,1.3   c-0.5,0.7-1,1.4-1.5,2.1c-5.9-0.7-11.7-0.6-17.6-0.8c6-0.8,11.5-1.6,17.7-0.7c-2.8-1.8-4.7-1.2-7.8-1.3   C366.3,295.9,366.3,295.7,366.1,295.5z" />
	<path fill="#97786B" d="M481.3,102c-0.3,0-0.5,0-0.8,0c-1.8-4.4-3.6-9-9.2-7.8c4.1-2.3,8.2,0.6,10.2,4.3c-0.3,0.7-0.6,1.4-0.8,2   C480.9,101,481.1,101.5,481.3,102z" />
	<path fill="#164A2A" d="M422.7,389.9c0.1,2.3,0.1,4.7-1.1,6.8c-1.6,0.5,0.3-4.9-0.3-6.3c-0.8-0.4-1.5-0.8-2.2-1.1   C420.4,389,421.6,389.2,422.7,389.9z" />
	<path fill="#2B2D2D" d="M459.5,36.1c1-0.4,1.7-0.7,2.6-1.1c-0.7-1.3-1.3-2.5-1.9-3.6c1.2-1.1,1.8,0.9,2.7,1.6   C463.1,35.3,462.9,38.5,459.5,36.1z" />
	<path fill="#113921" d="M369,384.9c0.3,2.4-0.6,4.5-0.8,6.9c-3.1-1.9,0.9-5.6-1.3-8.2C368.2,383.1,368.2,384.6,369,384.9z" />
	<path fill="#715C52" d="M467.2,104.1c-0.2,0-0.4,0.1-0.7,0.1c-0.5-3.6,0.7-8.2,4.2-9.8c0,0.4,0,0.9-0.1,1.3   C468.2,97.6,467.3,101,467.2,104.1z" />
	<path fill="#281E1A" d="M530.7,128.2c0.9-2.6,2.9-4.1,4.9-5.7c0.3,0.3,0.5,0.6,0.8,0.8c-1.6,1.9-3.3,3.8-4.9,5.7   C531.2,128.7,530.9,128.4,530.7,128.2z" />
	<path fill="#352621" d="M470.8,277.6c0.6-0.1,1.1-0.1,1.9-0.2c0.3,2.2,2.2,3.9,2.2,6.5c-1.7-1.5-2.5-3.3-3.3-5.9   c-0.1,1.7-0.2,2.5-0.3,3.3C470.2,280.2,470.8,278.9,470.8,277.6z" />
	<path fill="#2D2F2F" d="M483.3,17.7c0,1.7,0.2,2.7,0.7,4.3c-1.1,0-1.7-1.1-2.4-1.6c-0.2-1.3-0.4-2.3-0.6-3.4   C481.9,16.4,482.3,17.4,483.3,17.7z" />
	<path fill="#373838" d="M524,18.3c0.4,1.3,0.9,2.6,1.3,3.9c-0.3,0-0.7,0.1-1.2,0.1c-0.7-1.3-1.5-2.5-2.3-4   C522.6,18.3,523.3,18.3,524,18.3z" />
	<path fill="#303131" d="M551.3,33.3c0.3-0.3,0.5-0.6,0.8-0.8c1.3,0.8,2.5,1.6,3.9,2.5c0,0.2,0,0.6,0,1.3   C554.1,35.5,552.4,35,551.3,33.3z" />
	<path fill="#333535" d="M558,80.5c0.6,1.7-0.2,2.7-1.2,4c-0.6-0.6-1-1-1.6-1.6C556.2,82.1,557.1,81.3,558,80.5z" />
	<path fill="#141414" d="M520.4,42.5c-1.2-0.8-1.3-1.3-0.6-4.4C521,38.9,521.1,39.4,520.4,42.5z" />
	<path fill="#2C2E2E" d="M505.7,13.1c1.8,0.3,2.8,0.8,3.6,1.8c0,0.8,0,1.7,0,2.6c-0.1,0-0.2,0-0.3,0.1C509,15,507.1,15.5,505.7,13.1   z" />
	<path fill="#2A2C2C" d="M457.1,111.4c-0.2,2.4-0.5,2.8-2.7,3.3C455.2,112.5,455.2,112.5,457.1,111.4z" />
	<path fill="#DCD9D9" d="M459,26.5c0.6-2.2,2.3-1.6,4-2.1C461.9,26.2,460.8,27,459,26.5z" />
	<path fill="#46302A" d="M506,159.2c1.4,0.9,2.9,1.8,4.3,2.8C508.6,162.4,505.2,161.2,506,159.2z" />
	<path fill="#313232" d="M438.7,92.3c0.1,0.8,0.1,1.5,0.2,2.3c-0.6,0.1-1.1,0.3-1.6,0.4C436.5,93.8,436.8,92.6,438.7,92.3z" />
	<path fill="#27262B" d="M493.9,340.5c0.3,0.3,0.5,0.6,0.8,0.8c-1.3,1.2-3,0.6-4.4,1.3C491.3,341.5,492.5,340.8,493.9,340.5z" />
	<path fill="#222424" d="M494.6,25.4c1.5-0.3,1.4-0.3,2.9,0c-0.8,0.8-1.4,1.3-2.3,2.2C494.9,26.6,494.8,26.2,494.6,25.4z" />
	<path fill="#343838" d="M547.7,56c0.9,1.3,0.8,2.1-0.4,2.7C546.1,57.6,546.1,57.6,547.7,56z" />
	<path fill="#292727" d="M495,40.9c1,0.6,1.3,1.3,0.9,2.3c-1.1,0.4-1.5-0.2-1.9-1.2C494.3,41.6,494.6,41.2,495,40.9z" />
	<path fill="#272929" d="M507.9,19.2c-0.6,0.6-1.1,1.1-1.7,1.8c-0.5-0.3-0.9-0.6-1.5-1C505.8,19.3,506.5,18.3,507.9,19.2z" />
	<path fill="#33231F" d="M421.9,273.6c-1-0.7-1.6-1.5-1.2-2.8c1.5,0,1.4,1.3,1.9,2.1C422.4,273.1,422.1,273.4,421.9,273.6z" />
	<path fill="#252727" d="M506,56.5c0.8-0.7,1.5-1.2,2.2-1.9C508.6,56.6,508.3,56.8,506,56.5z" />
	<path fill="#222525" d="M456.1,105.2c-1,1-1.7,1.7-2.7,2.6C453.5,105.7,453.9,105.4,456.1,105.2z" />
	<path fill="#282B2B" d="M512.6,50.5c0.5,0.6,0.8,1,1.4,1.8c-0.9,0.1-1.5,0.2-2.6,0.4C512,51.7,512.2,51.2,512.6,50.5z" />
	<path fill="#2D3030" d="M485,49.4c0.7-1.3,0.8-1.3,2.4,0.1C486.5,50,485.8,50,485,49.4z" />
	<path fill="#2F3232" d="M517,40.4c-1.2-0.6-1.5-1.3-0.7-2.5C517.8,38.5,517.2,39.5,517,40.4z" />
	<path fill="#1D1E1E" d="M522.5,39.7c-0.1-1.2-0.1-1.8-0.2-2.8c0.9,0.6,1.3,0.9,2,1.3C523.8,38.6,523.4,38.9,522.5,39.7z" />
	<path fill="#2E3030" d="M552,48.6c0.9,0,1.7,0,2.4,0C554,50.2,553.7,50.2,552,48.6z" />
	<path fill="#D7D7D7" d="M480.4,301.8c0.8-0.4,1.9,0.3,2.3-0.9c0.5,0.4,0.9,0.8,1.8,1.6C482.8,302.6,481.5,302.6,480.4,301.8z" />
	<path fill="#2E2F2F" d="M442,98.5c0-0.7,0-1.3,0-2C443.5,97.3,443.5,97.6,442,98.5z" />
	<path fill="#A57F71" d="M470.7,95c0-0.2,0-0.4,0-0.6c1.3-0.4,2.8,0,4.2-0.1C473.8,95.4,472.2,94.9,470.7,95z" />
	<path fill="#2A1816" d="M499,336.2c1.3,0.1,2.5,0.1,4.4,0.2c-1.8,1.1-3.2,0.4-4.4,0.6C498.9,336.7,499,336.5,499,336.2z" />
	<path fill="#CEC2B5" d="M347.9,298.8c1.1-1.1,2.4-0.4,3.6-0.5C350.4,299,349.2,298.8,347.9,298.8z" />
	<path fill="#949A9A" d="M481.6,12.3c0.6-0.8,0.9-1.2,1.3-1.7C483.7,12.2,483.7,12.2,481.6,12.3z" />
	<path fill="#7C8686" d="M433.1,99.3c-1.2-0.7-1.2-0.7,0-2.1C433.1,98,433.1,98.6,433.1,99.3z" />
	<path fill="#CBBC9E" d="M488.3,559.1c0.5-0.5,1-0.9,1.5-1.4c0.2,0.3,0.5,0.6,0.9,1.2C489.7,559.1,489,559.1,488.3,559.1z" />
	<path fill="#515757" d="M536.9,16.1c-0.3,1-0.7,1.3-1.7,1.1C535.5,16.4,535.9,15.9,536.9,16.1z" />
	<path fill="#CBBC9E" d="M489.1,557c-0.8,0-1.5,0-2.3,0C487.6,556.7,488.4,556,489.1,557z" />
	<path fill="#164A2A" d="M424.9,389.8c-0.7,0-1.4,0.1-2.2,0.1C423.7,388.9,423.7,388.9,424.9,389.8z" />
	<path fill="#CEC2B5" d="M343.7,299.5c0.6-0.9,1.5-0.5,2.2-0.5C345.2,299.2,344.4,299.3,343.7,299.5z" />
	<path fill="#666262" d="M455.8,34.3c0.4,0.1,0.8,0.1,1.4,0.2C456.4,35.2,456.1,35,455.8,34.3C455.9,34.2,455.8,34.3,455.8,34.3z" />
	<path fill="#95CACA" d="M548.3,22.4c0.1,0.2,0.1,0.4,0.1,0.7c-0.4-0.1-0.9-0.1-1.3-0.2c0-0.1,0-0.3,0-0.4   C547.5,22.4,547.9,22.4,548.3,22.4z" />
	<path fill="#EBDDB8" d="M436.7,538.1c-0.7-0.3-0.7-0.9-0.6-1.6C436.4,537.1,436.6,537.6,436.7,538.1z" />
	<path fill="#5E5858" d="M445.9,114.2c0,0.3,0,0.7-0.1,1c-0.1,0-0.3,0-0.4,0c0-0.3,0-0.7,0-1C445.6,114.2,445.7,114.2,445.9,114.2z" />
	<path fill="#849797" d="M448.6,46.2c-1.3,0-1.3-0.4,0-0.5C448.6,45.9,448.6,46,448.6,46.2z" />
	<path fill="#D69479" d="M495.2,369c-0.2,0.6-0.6,0.6-1,0.3C494.4,368.8,494.7,368.7,495.2,369z" />
	<path fill="#CBBC9E" d="M489.8,557.8c-0.5,0-0.7-0.2-0.7-0.7C489.4,557.3,489.6,557.5,489.8,557.8z" />
	<path fill="#556E6E" d="M533.1,15.8c-0.1-0.1-0.1-0.1-0.2-0.2c0.2-0.2,0.3-0.2,0.5,0C533.3,15.7,533.2,15.8,533.1,15.8z" />
	<path fill="#B28C7D" d="M503.1,269.3c0.2,0.2,0.5,0.5,0.7,0.7l0.1-0.1C503.7,269.7,503.4,269.5,503.1,269.3   C503.2,269.2,503.1,269.3,503.1,269.3z" />
	<path fill="#353A45" d="M534.1,295.4c0.3,0.2,0.5,0.4,0.8,0.7C534.6,295.9,534.4,295.7,534.1,295.4z" />
	<path fill="#977264" d="M478.5,251c-0.3,0.2-0.5,0.4-0.8,0.5C477.9,251.4,478.2,251.2,478.5,251z" />
	<path fill="#353A45" d="M545.6,292.5c-0.3-0.2-0.5-0.4-0.8-0.6C545.1,292.1,545.3,292.3,545.6,292.5z" />
	<path fill="#0A0A0D" d="M413.5,438.6c0.5-11-0.6-22.2,0.5-33.1c0.3,0,0.5,0,0.8,0c0.8,44.9,0.2,90.3,0.2,135.4c-0.4,0-0.8,0-1.3,0   C413.4,506.8,413.8,472.7,413.5,438.6z" />
	<path fill="#1A141A" d="M407.9,542.2c-3.7-0.3-7.8-1-11.3-2c0.2-0.2,0.5-0.4,0.7-0.7c2.6,0.2,5.1,0.5,7.7,0.7c1.2,1,3,0.5,4.5,1.3   C409,541.8,408.4,542,407.9,542.2z" />
	<path fill="#130F14" d="M407.9,542.2c0.5-0.2,1-0.4,1.6-0.7c1.1,0.4,2.3,0.7,3.6,1.1c0.2-0.7,0.3-1.2,0.5-1.7c0.4,0,0.8,0,1.3,0   c0,0.5,0,1,0,1.4c-1,0.7-2,1.4-3,2C411.2,543,409.2,543,407.9,542.2z" />
	<path fill="#778AB2" d="M407.2,540.8c-0.8,0-1.6,0.2-2.2-0.6C405.8,540.3,406.6,539.9,407.2,540.8z" />
	<path fill="#14331D" d="M311,371.5c6,1,13.1,0.7,18.4,3.2c-6.3,0.5-12.2-1.9-18.5-2.5C311,372,311,371.8,311,371.5z" />
	<path fill="#1A301E" d="M278.8,367.2c4.7,0.6,9.3,1.7,14,2.3c0.5,0.9,1.4,0.3,2.2,0.7c0,0.2,0,0.5,0,0.7c-6.5-1-12-2-18.6-3.2   C277.6,367.5,278.2,367.3,278.8,367.2z" />
	<path fill="#1D301F" d="M295,370.9c0-0.2,0-0.5,0-0.7c2.7,0.6,5.9-0.1,8.1,1.7C300.6,371.8,297.5,371.9,295,370.9z" />
	<path fill="#091F12" d="M399.4,394.5c0.1-0.5,0.1-0.9,0.2-1.4c0.1,0,0.3,0,0.4,0c0,0.5,0.1,0.9,0.1,1.4   C399.9,394.5,399.6,394.5,399.4,394.5z" />
	<path fill="#967164" d="M609.7,308.8c-0.5,0.6-1,1.3-1.4,1.9c-12.9,2.8-22.3,16.8-36.7,15.4c5.1-3.5,8.9-7.7,9.9-13.8   c7.6-1.8,15.7-2.2,23.3-4.2c0.8,1.5,2.5-0.3,2.1-1.5c0.9,0.8,1.9,0.7,2.8,0C609.6,307.4,609.3,308.1,609.7,308.8z M588.9,318   c3.4-2.2,5-3.9,5.5-5.9C592.6,314.2,588.8,315.5,588.9,318z M598.8,312.7c-0.2-0.2-0.3-0.3-0.5-0.5c-0.9,1.3-3.1,2-2.9,3.8   C596.7,314.8,597.7,313.7,598.8,312.7z M603.9,309c-0.9-0.2-1.4-0.1-1.6,1C603.1,310.2,603.5,309.8,603.9,309z" />
	<path fill="#070707" d="M609.7,308.8c-0.6-1.3,0.3-2.8,0.7-4.1c-5.4-6.3-2.4-17.3-10.5-20.6c3.8-0.8,6.4,1.7,7,5.4   c1,3.2,4.3,5.3,3.6,9.1C609.5,302,614.6,307.1,609.7,308.8z" />
	<path fill="#352925" d="M579.2,288.4c0.9-0.2,1.7-0.5,2.6-0.7c2,6.3,7.4,9.5,8.4,16.2C586,299.4,584.3,292.4,579.2,288.4z" />
	<path fill="#1C1615" d="M599.9,284.1c0.7,0.5,1.3,0.9,2.1,1.2c-0.8,0.1-1.6,0.2-2.6,0.3c0.2,0.7,0.3,1.4,0.5,2c0,0,0.1,0,0.1,0   c-1.2-0.7-2.4-1.4-3.1-1.8c-3,0.3-5.3,0.1-7.8,0.9c-1.1,0.2-2.2,0.7-3.2-0.4C590,283.6,595.4,285.2,599.9,284.1z" />
	<path fill="#1D1714" d="M603.4,301c-1.3-4.5-3.9-8.7-3.5-13.4l-0.1,0C601.5,288.2,605.3,300.2,603.4,301z" />
	<path fill="#100C0B" d="M594.1,292.6c1.1,3.3,3.9,6.8,4.1,10.1c-2.3-1.1-2.9-2.2-4.8-7.9C593.7,294.1,593.1,293.1,594.1,292.6z" />
	<path fill="#28201D" d="M594.1,292.6c-1,0.5-0.4,1.5-0.7,2.2c-1.2-2.4-1.6-5.5-3.9-7.1c-1.5-0.2-8.6,0.4-6.5-2.2   c0.7,0.9,1.8,0.8,2.8,0.8c1.3,1.4,3,0.4,4.5,0C592,288.1,593.3,290.2,594.1,292.6z" />
	<path fill="#3D2F2A" d="M603.4,301c0.8-0.2,0.6-0.9,0.7-1.5c1.1,1.6,1.1,1.6,1.3,3.5C604.3,302.7,603.7,302,603.4,301z" />
	<path fill="#523D36" d="M606.9,306.6c0.4,1.1-1.4,3-2.1,1.5l0,0C605.4,307.5,605.9,306.4,606.9,306.6z" />
	<path fill="#967164" d="M605.5,307.4c-0.2,0.2-0.4,0.5-0.7,0.7C605,307.9,605.2,307.6,605.5,307.4z" />
	<path fill="#35A65F" d="M294.3,370c-0.6,0.1-1.1,0.1-1.5-0.5C293.3,369.7,293.8,369.8,294.3,370z" />
	<path fill="#4C505E" d="M634.5,291.1c1.4,2.9,0.3,7.3-1.4,9.9h0c-3.9,0-7.1,3.3-11,3.5c-0.9-3.2,1-6.4,0.4-9.8   C625.9,292.8,630.6,292.6,634.5,291.1z" />
	<path fill="#4C505E" d="M626,277.7c3.8,1.3,5.9,4.1,7,7.8c-4.2,0.9-8.3,3.1-12.7,2.8c-1.1-2.4-2.6-4.4-4.3-6.3   C618.3,279.3,623.1,280,626,277.7z" />
	<path fill="#373945" d="M621.7,303.1c0.1,0.4,0.2,0.8,0.3,1.4c3.9-0.2,7.1-3.4,11-3.5c-2.5,8.5-12,12.7-20.2,13.3   c0.1-0.5,0.3-0.9,0.4-1.3c0,0,0,0,0,0C618.4,311.5,620,307.6,621.7,303.1z" />
	<path fill="#363A46" d="M626,277.7c-2.9,2.4-7.7,1.6-10,4.3c-2.9-2.6-6.4-3.6-10-4.5C611.4,274.4,620.6,273.1,626,277.7z" />
	<path fill="#373A46" d="M620.4,288.3c4.4,0.3,8.4-1.9,12.7-2.8c1.4,1.6,1.4,3.6,1.4,5.6c-3.9,1.5-8.6,1.7-12.1,3.6   C621.3,292.8,621.5,290.3,620.4,288.3z" />
	<path fill="#373945" d="M633,301c0.2-0.2,0.4-0.5,0.6-0.7C633.5,300.5,633.2,300.8,633,301z" />
	<path fill="#906C5F" d="M521.5,151.5c-0.2-0.7-0.5-1.4-0.7-2.1c4,1.2-0.7,7.8-4,6.9c-2.6,0.1-7.1-0.2-9.4-1.3   c0-0.6-0.1-1.2,0.7-1.5c1.6,1.9,5.9-1.3,7.6-1.3C518.1,152.4,520.4,153.9,521.5,151.5z" />
	<path fill="#5C463F" d="M515.1,140c1.7-1.3,3.1-0.6,5,0.7c-1.8,0-3.1,0-4.3,0C515.5,140.5,515.3,140.3,515.1,140z" />
	<path fill="#2B1E1A" d="M521.6,153.6c0.2-0.3,0.3-0.6,0.5-0.9C521.9,153,521.8,153.3,521.6,153.6z" />
	<path fill="#D69479" d="M457.9,356.8c-1.2-0.7-0.5-1.9-0.6-2.9c1.5-1.1,1.6-2.6,1.3-4.2c1.2,0,2.3,0,3.7,0   c3.3,3.1,6.6,11.3,3.8,15.3C462.9,362.7,459.8,360.6,457.9,356.8c1-0.1,1.2-0.8,1.2-1.7c-0.3-0.1-0.6-0.2-1-0.3   C458.1,355.5,458,356.1,457.9,356.8z" />
	<path fill="#110C0A" d="M435,419c-0.9-4.5,0.3-9.8,2.7-12.4C439.4,407,436.8,418.5,435,419z" />
	<path fill="#1D1210" d="M437.4,419.8c0,3.1,0.1,6.1-1.6,7.8C434.1,426.1,435.5,421.5,437.4,419.8z" />
	<path fill="#050605" d="M471.2,386c1.3,1.7,1.3,3.8,0,5.8C469.9,389.1,469.9,388,471.2,386z" />
	<path fill="#140C0A" d="M437.2,440.6c-1.4-2-1.4-3.6,0.1-5.3C438.3,437.2,438.3,438.9,437.2,440.6z" />
	<path fill="#5C3F35" d="M438.1,450.3c-1.9-0.4-1.8-4.4-0.3-5.5C438.6,446.8,438.3,448.6,438.1,450.3z" />
	<path fill="#3B2A23" d="M458.6,349.7c0.2,1.6,0.1,3.1-1.3,4.2C457.4,352.5,456.6,350.1,458.6,349.7z" />
	<path fill="#33211C" d="M465.8,375.2c1.4,0.5,1.4,0.5,1.6,3.6C466,377.8,466.3,377,465.8,375.2z" />
	<path fill="#2B1E1B" d="M468.9,380.9c0.8,0.8,0.6,1.6,0,2.5C468.4,382.5,468.2,381.8,468.9,380.9z" />
	<path fill="#0D0807" d="M404.2,288.4c0.8,1.5,1.6,3,2.5,4.7c-3.1,1.3-4.9-3.3-5.7-5.5c0.2-0.5,0.4-0.9,0.6-1.3   C403.1,286,403.5,287.5,404.2,288.4z" />
	<path fill="#241917" d="M414.6,142.7c2.5-0.6,2.5-0.6,4.5,1.5C417.2,144.6,415.9,143.6,414.6,142.7z" />
	<path fill="#372723" d="M412.1,144.1c-2,0-2,0-3.4-0.9C410.5,143,410.5,143,412.1,144.1z" />
	<path fill="#D69479" d="M549.9,342.3c-3.5,4.8-6.5,1.2-8.6-2.3C540.2,330.4,550,335.8,549.9,342.3z M542.2,339.6   c0.9-0.2,1.6-1.6,0.4-1.7C541.8,338.3,541.9,338.8,542.2,339.6z" />
	<path fill="#1C1310" d="M532.4,407.6c-3.2,0.7-4.4-8.3-2.2-9.6C532.7,400.3,531.8,404.4,532.4,407.6z" />
	<path fill="#160E0C" d="M529.4,409.8c2.7-0.6,3.1,7.8,0.8,7.7C529.7,414.9,529.2,412.4,529.4,409.8z" />
	<path fill="#241C18" d="M550.7,373.4c-1.4-2.5-0.8-4.8-1.1-7.2C552.2,366.5,552.4,371.6,550.7,373.4z" />
	<path fill="#070101" d="M527.6,426.5c-1.4-1.7-1.4-3.3-0.1-5.5C528.8,422.8,528.6,424.6,527.6,426.5z" />
	<path fill="#4C342C" d="M538.2,346.6c0.6-1.8,0.9-2.9,1.2-4C541,343.5,540.7,344.8,538.2,346.6z" />
	<path fill="#171310" d="M524.7,434c-0.5-1.3-0.7-2.6,0.7-3.8C526,431.8,525.4,432.9,524.7,434z" />
	<path fill="#4E372F" d="M548,363.7c-0.9-1.1-1.2-2.2-1.1-3.5C548.8,359.7,548.9,362.5,548,363.7z" />
	<path fill="#382721" d="M534.4,348.8c-0.1-2.2-0.1-2.2,2-2.4C536.5,347.8,535.7,348.3,534.4,348.8z" />
	<path fill="#544239" d="M529.2,349.7c0.2,0.1,0.4,0.1,0.6,0.2c-0.2,0.5-0.5,0.4-0.9,0.2C529,350,529.1,349.8,529.2,349.7z" />
	<path fill="#3C2A22" d="M431.8,383.8c1.8-0.9,2.8-2.5,4.6-3C436.5,382.5,434.2,386,431.8,383.8z" />
	<path fill="#201511" d="M436.8,387.6c-1,1.3-1.1,1.3-3.2,0.3C434.7,386.6,434.8,386.6,436.8,387.6z" />
	<path fill="#0A0706" d="M518.6,129.6c0.3,3.5-8.1,3.2-10.4,2.4c-1.3-1.1-5.3-5.3-2.6-6.7c1.8,1.4,3.8,2.5,6.1,3   C513.5,130,516.5,127.8,518.6,129.6z" />
	<path fill="#120B0A" d="M525,122c-5.6-6.4-13.1-3.4-20.3-4.7C509.6,116,526.7,113.9,525,122z" />
	<path fill="#33231F" d="M470.7,95c1.5-0.1,3.1,0.3,4.2-0.7c3.6,0.9,3.9,5,5.6,7.8c-0.8,3.9-3.1,5-6.8,5c-0.1,0.9-0.2,1.8-0.2,2.7   c-0.3,0-0.5,0.1-0.8,0.1c-1.2-1.4-0.6-2.7,0.1-4c1.7-0.9,3.6,0.1,5.3-1c0.3-0.9,0.6-1.9,1-3c-0.8-2.1-1.3-4.6-3.9-6.2   c-1,0.2-2.4,0.4-3.7,0.6c-0.2-0.2-0.5-0.4-0.7-0.6C470.7,95.5,470.7,95.2,470.7,95z" />
	<path fill="#0E0908" d="M470.7,95.7c0.2,0.2,0.5,0.4,0.7,0.6c-1.3,0.9,0.1,2.7-1.2,3.5c0.1,1.7-1.2,2.9-1.9,4.3c-0.3,0-0.7,0-1,0   C467.3,101,468.2,97.6,470.7,95.7z" />
	<path fill="#2B1E1A" d="M521.5,151.5c-1.1,2.4-3.3,0.8-5.7,0.7c-1.8,0-6,3.2-7.6,1.3c2.4-0.9,4.8-1.7,7.2-2.6   C517.4,151.8,519.4,151.9,521.5,151.5z" />
	<path fill="#251D1A" d="M518.6,129.6c-2.1-1.7-5,0.4-6.9-1.3c2.1,0,4.2-0.1,6.1-0.1c1.3-1.3,0.9-3.1,2.4-4.2   C520.7,125.7,519,127.7,518.6,129.6z" />
	<path fill="#362420" d="M470,103.4c1.1-2.2,5.8-1.8,7.1-0.3c-1.5,1-3,0.3-4.8,0c-0.6,0.4-1.4,0.9-2.2,1.3   C470.1,104.1,470,103.7,470,103.4z" />
	<path fill="#382D28" d="M470,103.4c0.3,2-0.1,3.5-0.1,6C468.4,106.9,468.2,105.1,470,103.4z" />
	<path fill="#4A3630" d="M472.7,109.9c0.3,0,0.5-0.1,0.8-0.1c0.1,0.3,0.3,0.6,0.5,1.2c-0.7,0.7-1.4,1.5-2,2.2   c-1.2,0.1-1.8-0.3-1.9-1.4C471.3,111.6,472.9,112,472.7,109.9z" />
	<path fill="#231815" d="M476,98.6c-0.8,1.5-0.8,1.5-3.8,1.1C473.4,98.6,474.9,99.4,476,98.6z" />
	<path fill="#281917" d="M366.2,296.1c0.9,0,1.9,0,2.8,0c0,0.2,0,0.4,0,0.6c-10.1,0.6-20.6-1-30.6,0.7c-3-0.2-6,1.5-8.5-1.1   C342.2,295.3,354,296.5,366.2,296.1z" />
	<path fill="#3B0908" d="M366.2,296.1c-9.1-0.2-18.3,0.5-27.4-0.3c9.1-0.7,18.2-0.5,27.3-0.3C366.3,295.7,366.3,295.9,366.2,296.1z" />
	<path fill="#CEC2B5" d="M338.5,297.4c1.4-0.8,2.9-0.6,4.4-0.5C341.7,297.9,340,297.3,338.5,297.4z" />
	<path fill="#0C0B09" d="M484.6,570.4c-5.8-4,10.6-6.9,11.8-4.1C493,568.9,488.5,569,484.6,570.4z" />
	<path fill="#1A1412" d="M379,171.2c0.2,2.8-1,5.4-1.6,8.2c-3.2-1.3,0.2-5.6,0.3-7.9C378.3,171.3,378.7,171.2,379,171.2L379,171.2z" />
	<path fill="#291E1A" d="M379.3,182.5c1.3,2.5,1.3,2.7,0,5.3C377.8,186.2,377.8,184.8,379.3,182.5z" />
	<path fill="#191210" d="M383,239.6c0.9,1.9,1.1,3.6,1.2,5.5C382.3,243.1,381.1,241.2,383,239.6z" />
	<path fill="#281D19" d="M408.4,293.2c2.5,0.7,3.4,2.3,4.7,3.8C411,297.1,410,296.3,408.4,293.2z" />
	<path fill="#2E231F" d="M383.1,194.5c-0.5-1.4-0.5-1.4-0.2-2.8C384.2,192,384.3,193.5,383.1,194.5z" />
	<path fill="#291C18" d="M386.4,243.8c0.4,1.2,0.7,2.2,0.9,3.1C385.6,248.2,385.6,245.1,386.4,243.8z" />
	<path fill="#61483F" d="M418.4,296.8c-0.1,0.4-0.2,0.8-0.3,1.6c-0.5-0.5-0.8-0.8-1.3-1.3C417.6,297,418,296.9,418.4,296.8   L418.4,296.8z" />
	<path fill="#0A0A0D" d="M411.9,544.4c1-0.7,2-1.4,3-2c0,0.5,0,0.9,0.1,1.4c-0.4,0.5-0.8,1.1-1.3,1.7c-19.5,5-39.4,10.2-58.9,14.9   c-1.8-1.8,2.1-2.1,3.2-2.5C375.9,553.5,393.9,548.6,411.9,544.4z" />
	<path fill="#312723" d="M503.2,269.2c0.2,0.2,0.5,0.5,0.7,0.7c-0.1,0.4-0.2,0.8-0.4,1.5c-1.6-0.9-3.1-1.4-3.9-3.3   C501.2,268,501.9,268.6,503.2,269.2z" />
	<path fill="#412D28" d="M495.1,268.9c1.9-0.2,2.2-0.1,3,1.4C496.3,270.3,496.3,270.3,495.1,268.9z" />
	<path fill="#322520" d="M461.5,133.8c1.8,1.8,0.3,4.8-1,7.1c-0.3-0.7-0.4-1.1-0.6-1.5C460.6,137.6,460.3,135.3,461.5,133.8   C461.6,133.8,461.5,133.8,461.5,133.8z" />
	<path fill="#392D28" d="M458.6,143c1.2,2.3,1.1,2.8-0.6,4.2C458.1,145.8,457.6,144.2,458.6,143z" />
	<path fill="#56423A" d="M456.4,150.1c0,0.6,0,1.2,0,2.5C455.2,151.5,454.5,150.4,456.4,150.1z" />
	<path fill="#6C564D" d="M452.1,157.7c0.5-0.9,0.8-1.4,1.4-2.4C453.6,157.4,454.2,157.3,452.1,157.7z" />
	<path fill="#977264" d="M461.6,133.8c-0.2,0.3-0.4,0.5-0.6,0.8C461.1,134.4,461.3,134.1,461.6,133.8z" />
	<path fill="#4D1D1B" d="M357.1,292.4c-3.9,0.2-7.8-0.2-11.9-0.8c4.1-1.1,9.1-0.5,13.4,0.1C358.1,292,357.6,292.2,357.1,292.4z" />
	<path fill="#4D2522" d="M362,292c1.4,0.2,2.8,0.5,4.2,0.7c-0.2,0.2-0.5,0.5-0.7,0.7c-1.1-0.2-2.3-0.5-3.4-0.7   C362,292.4,362,292.2,362,292z" />
	<path fill="#857D74" d="M365.4,293.4c0.2-0.2,0.5-0.5,0.7-0.7c1.2,0.5,2.5,0.9,3.7,1.4c0,0.2-0.1,0.5-0.1,0.7   C368.3,294.4,366.7,294.4,365.4,293.4z" />
	<path fill="#443E3A" d="M375.5,296.7c-0.8-0.4-1.6-0.8-2.4-1.3c0.3-0.2,0.5-0.3,0.8-0.5c1,0.3,2,0.6,2.9,0.9c0,0.3,0,0.6,0,0.9   C376.4,296.8,376,296.8,375.5,296.7z" />
	<path fill="#2F1817" d="M362,292c0,0.2,0,0.5,0,0.7c-1.6-0.1-3.3-0.2-4.9-0.3C358.6,291.5,360.3,291.9,362,292z" />
	<path fill="#4A2A28" d="M374,295c-1.4,1.3-2.7-0.1-4.1-0.5c0-0.1,0.1-0.2,0-0.4C371.4,293.7,372.6,294.6,374,295z" />
	<path fill="#706660" d="M381,296.9c0.6,0.2,1.2,0.5,2,0.8c-1.6,0.8-1.6,0.8-3.4,0l0.1-0.2C380.2,297.5,380.8,297.6,381,296.9z" />
	<path fill="#55332F" d="M376.9,296.8c0-0.3,0-0.6,0-0.9c1,0.3,1.9,0.5,2.9,0.8c-0.9,0.1-1.8,0-2.7,0.2L376.9,296.8z" />
	<path fill="#443E3A" d="M377.2,296.9c0.8-0.1,1.7-0.1,2.5-0.2l0,0c0,0.3,0,0.6-0.1,0.9C378.8,297.4,378,297.1,377.2,296.9z" />
	<path fill="#55332F" d="M379.7,297.4c0-0.2,0-0.5,0-0.7c0.4,0.1,0.9,0.1,1.3,0.2C380.8,297.6,380.2,297.5,379.7,297.4z" />
	<path fill="#EAA388" d="M529.3,370.9c-0.2-0.1-0.3-0.2-0.5-0.3C529,370.7,529.1,370.8,529.3,370.9L529.3,370.9z" />
	<path d="M479.2,342.6c-0.2,0.8-0.8,0.7-1.4,0.7C478,342.6,478.6,342.6,479.2,342.6z" />
	<path d="M475.7,344.8c-0.3,0-0.7-0.1-1.1-0.1C475.2,343.8,475.4,344.3,475.7,344.8L475.7,344.8z" />
	<path fill="#373A46" d="M525.9,312.4c0-1.5-0.5-3.1,0.5-4.3C526.3,309.5,526.8,311,525.9,312.4z" />
	<path fill="#291E1B" d="M511.7,521.1c0-0.9-0.1-1.6-0.2-3C512.7,519.4,512.7,520.1,511.7,521.1z" />
	<path fill="#2B1614" d="M369.1,296.7c0-0.2,0-0.4,0-0.6c2.6,0,2.6,0,5,1.3C372,297.1,370.6,296.9,369.1,296.7z" />
	<path fill="#42302A" d="M588.9,318c-0.1-2.5,3.7-3.7,5.5-5.9C593.8,314.1,592.3,315.8,588.9,318z" />
	<path fill="#050404" d="M598.8,312.7c-1,1-2.1,2-3.4,3.3c-0.3-1.8,1.9-2.5,2.9-3.8C598.5,312.4,598.6,312.6,598.8,312.7z" />
	<path fill="#563C36" d="M603.9,309c-0.4,0.8-0.8,1.2-1.6,1C602.5,309,603,308.8,603.9,309z" />
	<path fill="#33201B" d="M457.9,356.8c0.1-0.7,0.1-1.3,0.2-2.1c0.4,0.1,0.7,0.2,1,0.3C459.2,356,458.9,356.7,457.9,356.8   L457.9,356.8z" />
	<path fill="#684A3D" d="M542.2,339.6c-0.5-0.8,0.1-2.2,1-1.5C543.3,338.9,542.9,339.2,542.2,339.6z" />
</g>
</svg>