<?xml version='1.0' encoding='utf-8'?>
<svg xmlns="http://www.w3.org/2000/svg" version="1.2" baseProfile="tiny" id="Layer_1" x="0px" y="0px" viewBox="0 0 900 600" overflow="visible" xml:space="preserve">
<g id="b">
	<path d="M160.2,210.9c1.7-2.9,4.6-2.5,7.3-2.7c9.6-0.9,19.2-1.2,28.9-1.2c19,0.1,38,0.1,57,0.3c6.3,0.1,12.7-0.1,19,0.5   c0.9,0.1,1.7,0.2,2.5,0.8c-0.4,2.7-48,1.1-53.4,1.2c-18.4,0.2-36.6-0.5-54.9,1.2c0.8,0.8,4.9,8.6,1.8,7.3c-2.5-2.5-1.9-5-5.6-6.8   c-3.2,4.1-0.5,13.2,0.2,18.2c0.4,2.6,0.6,7.5,2.4,9.5c1.8,2,4.1,0.9,6.2,0.6c0.7,0.7,1.3,0.6,2.1,0.1c3-0.3,5.9-1.3,9-1   c11.2,1.2,22.5,0.9,33.7,0c7.5-0.6,15-1.8,22.5-2.2c8.3-0.5,16.7-0.5,25-1.7c3.4-0.5,7,0.2,10.5-1.1c-0.5-8.3-0.2-16.6,1.2-24.9   c1.7-11-0.6-24.1,3.8-34.4c4.6-10.8,13.7-16.9,22.3-24.2c7.2-6.1,16.4-14.3,18.7-23.9c0.6-2.3,3.1-12.6-2-11.1   c-1.7,0.5-0.2,2.7-2.7,1.3c-2-1.2-0.7-3.7-3.3-4.2c-0.2-0.3-0.3-0.7-0.8-0.5c0.1,0.6,0.4,1.1,0.8,1.5c0.6,2.9-1.9,0.8-2.5,0.4   c-2-1.4-3-2.1-5.6-2.9c1.2,2.6-0.9,1.4-1.9,1c-0.3-0.6-0.8-1.1-1.4-1.5c-0.5-0.3-1-0.3-1.6,0c-0.7,0.3-1.4,0.3-2.1,0   c-0.8-0.6-1.5-1.5-1.9-2.4c-1.2-1.6-2-3.1-4-3.9c-0.9,0.9,1.7,1.9,0.1,2.7c-1.6,0.8-3.3-2.4-4-3.1c-1.6-1.6-3.1-2.1-3.8-4.3   c-0.7-2.1-0.3-4.4-1.2-6.6c0-0.9-0.3-1.8-0.9-3c-0.1,1.4,0,2.3,0.6,3c-0.2,0.9,0.9,1.7-0.1,2.7c-2.3-2-4.6-3.6-5.5-6.6   c-0.9-3.1,0.7-6.4-0.2-9.5c-0.3-0.8-1.2-0.7-1.8-1c-0.7-0.8-0.6-4.6-0.7-5.6c-0.2-2.1,0.1-4.2-0.8-6.3c-1-2.2-1.7-3-1.5-5.7   c0.3-2.8,1.7-5.8,1.3-8.7c0.5-0.1,0.4-0.4,0.2-0.7c-0.3,0.1-0.5,0.4-0.6,0.7c-3.6-0.6,2.9-10.3,3.3-11.7c0.5-0.4,0.8-0.9,0.5-1.8   c-0.5,0.7-1,1.3-1.4,1.8c-6-0.9,5-12.2,5.1-14.9c-2.2,0.5-3.3-1-2-2.9c1.4-2.1,5.5-0.2,6.2-2.4c-1.8-0.6-1.3-2.4-0.5-3.6   c1.4-2.1,3.2-1.1,5.2-1.6c1.7-0.4,2.7-1.8,4.4-2.3c0.9-0.2,3.2,1.2,3-1c-4.4-1.2-1.5-3.2,0.9-3.8c2.8-0.7,5.8-2.9,8.9-2.7   c0.9-3,1.5-3.2,5.1-1.5c-0.9-5.3,6-1.5,8.8-3.6c1.8-0.3,3.3,0.7,4.9,1.5c0.2-0.7-0.1-1.4,0.4-2c1.3,0,2.7,0,4,0   c1.4,0.8,2.2,2.2,3.4,3.2c1.4-1.4,3.1-2,4.7-2.8c1.4,0,2.7,0,4.1-0.1c2.3,0.8,5.5,1.2,3.9,4.4c1.4,0.5,2.4-1.1,3.5-1.6   c1.9-1,3.7-1.3,5.8-1.5c2.9-0.3,6.7-0.3,4.2,3.5c2.9-1.3,12.6,2.6,8.1,5.3c2.4,2.4,5,4.1,7.7,6.1c0.7,0.5,2.7,0.8,2.4,2.1   c-0.2,0.9-1,0.5-1.3,1.2c2.2,0.6,4.7,4.2,5.2,6.4c0.7,3.2-0.5,1.7-2.4,1.9c0.8,1.5,3.9,5.6,0.6,6.2c-0.1-0.6,0.2-1.3-0.8-1.6   c0,0.9,0.3,1.6,0.8,2.3c3.3,1.5,3.5,6.1,2.3,9.2c-0.4,1-1.5,1.3-1.8,2.4c-0.5,1.7,0.8,3.3-0.3,5.1c3.5,4.4,5.7,9.6,7.4,14.9   c1.9,5.9,1.3,12,2.8,17.9c-0.7,0.8-1.9,1.3-3.4,0.6c-0.3,1-0.6,1.9-0.9,2.9c0.7,0.3,1.5,0.7,1.7,1.6c-0.6,0.7-1.5,0.3-2.3,0.7   c2.4,4.2,2.2,8.9,1.4,13.2c-0.5,2.8,0.1,9.9-2.6,11.4c1.6,4-0.6,4.1-2.3,6.8c-1.4,2.2-0.8,5.1-3,7.2c-2.2,2.1-5.5,2.7-8.4,3   c-1.9,0.1-3.8,0.2-5.6-0.3c-1.2-0.3-3.6-2.1-4.8-1.6c-0.3,4.7,0.3,9.4,1.5,13.8c7,2.4,13.4,6.1,20.7,7.4   c7.2,1.4,12.8,4.1,16.8,10.4c2.4,3.7,3.1,7.6,3.3,12c0.2,5,0.3,6.7,3.5,10.6c5.2,6.2,11.7,13,15,20.5c3,6.8,3.3,14.9,1.3,22   c-0.9,3.2-2.4,6.3-4.5,8.8c-2.2,2.6-4.8,3.4-7.2,5.4c-2.4,2-2,4.9-2,7.6c0,4.4-0.5,8.7,0,13c0.8,8,5.2,15.2,6.8,23.1   c2,9.6,2.6,18.7,3.4,28.4c0.8,9.6,2.8,19.3,4.6,28.8c3.3,0.1,6.5,1.4,9.8,1.8c3.8,0.4,7.6,0.5,11.4,1c7.3,1,14.4,2.8,21.5,4.9   c13.6,4,27.6,8.3,40.2,14.9c5.3,2.8,12.2,8.2,14.8,13.7c2.6,5.7,1.9,13.6,1.6,19.7c-0.4,7.6,0.9,15-0.1,22.7   c-0.9,7.3-2.8,15.4-5.9,22.1c-0.3-0.8-1.9-0.4-1.7-1.7c1.9-8.2,4.6-16.4,5.2-24.9c0.5-7.6,0.1-15.6-0.2-23.2   c-0.1-3.8,0.6-8.4-0.4-12c-0.9-3.4-3.8-5.8-6.3-8.1c-2.9-2.6-5.8-4.1-9.1-6c-3.3-1.9-5.9-4.2-9.5-5.5   c-15.3-5.8-31.5-10.6-47.6-13.6c-8.5-1.5-17-2.5-25.5-3.9c-8.4-1.5-13.6-4.1-20.6-8.9c-0.5,6.3-0.9,12.4-3,18.3   c18.2,2.2,37.5,4.7,54.7,11c-0.4,0.6-0.4,1.3-0.4,2c-31.4-8.7-63.6-11.7-96-13.7c-2.1-1-4.3-0.3-6.4-0.4c-2.1-0.1-4.2-0.1-6.2-0.9   c3.5-1.3,9.6-0.3,13.3-0.3c4.3,0,8.6,0.2,13,0.4c8.9,0.4,17.7,1.1,26.5,1.8c0.2-4,1.5-7.8,1.4-12.1c-5.5,3.1-11.1,6.5-17.4,7.5   c-6.1,1-12.7,0.8-18.8,0.5c-6.6-0.3-13.2-1.2-19.7-2.1c-6.3-0.9-13.1-2.4-19.4-1.6c-0.8,6.1,0,11.9,1.4,17.8   c1.6,11.2,2.8,23.3,6.5,34c0.6,7.7,9.2,15.6,16.2,17.3c10.9,2.7,22,4.8,33.2,5.3c0.3,0.2,0.6,0.4,0.9,0.7c-1.2,0.2-2.8-0.4-2.5,1.7   c-1.1,0-2,0-2.9,0c-4.6,0.1-9.2-0.9-13.7-1.7c-6.2-1.1-12.3-2.4-18.3-4.4c-0.2-0.4-0.4-0.9-1-0.6c0,0.4,0.1,0.8,0.5,1   c1.9,7.7,4.5,14.1,13.3,11.4c7.2-2.2,14.8-2.9,22-5c1.2-0.2,2.3-0.3,2.9,1.1c-0.6,0.6-1.8,0.2-2.4,1c-9.2,2.9-18.8,4-28.1,6.6   c0.5,1.3,1.7,2.1,3.2,2.4c8.4,1.8,16.7,3.7,25.1,5.4c4.7,1,9.5,1.7,14.3,2.5c0.8,0.9,1.9,0.2,2.8,0.6c-0.6,1.5-1.8,1.6-3.2,1.5   c-10.4-1.3-20.6-3.5-30.8-5.8c-2-0.5-5-1.7-7.1-1.6c-1.6,0.1-2.7,1.1-4.4,1.2c-3.5,0.2-8-1.4-8.8-5.1c-0.5,0.7-0.4,1.1-0.3,1.6   c-0.3,2,0.6,4-0.3,6c6.9,2.8,14.8,4,22,5.8c7.5,1.8,14.9,3.5,22.4,5.3c-0.5,0.9-1.2,1.5-2.1,2c-14-2.5-27.7-6.5-41.5-10.2   c0,43-0.5,86.7,7,129.2c0.7,3.9,0.9,7.7-3,9.9c-3.3,1.9-6.9,1-8.8-2.2c-2.2-3.7-2.8-9.5-4-13.6c-1.5-5.5-3.1-10.9-4.5-16.5   c-2.6-10.3-5-20.7-6.5-31.3c-1.5-10.1-0.7-20-1.4-30.1c0-0.5,0-1.1,0-1.6c-0.4,0.6-1,1-0.7,1.7c-2,6.5-15.3,54.5-24.7,49.3   c-3.7-2.1-2.1-7.5-1.1-10.5c1.6-5.1,2.6-10.3,3.7-15.5c1-5,2.1-9.9,3.2-14.8c1.2-4.9,2.9-9.7,2.5-14.8   c-28.3-4.2-55.3-12.7-83.2-18.7c1.3,2.5-0.6,7.4-1.1,10c-0.7,3.6-1.5,7.1-2.3,10.7c-1.7,7.1-3.6,14.1-5.4,21.2   c-3.5,13.7-7,27.4-12.5,40.5c-1.6,3.8-5.4,7.8-10.1,5.7c-5.1-2.3-1.2-10.2-0.2-14.1c3.6-13.4,6.9-26.9,9-40.6   c2.1-14.3,4.9-28.1,5.8-42.6c0.9-14.1,1.3-28-0.9-42c-2-13-7.8-25.1-9.8-38c-1-6.2-3.9-12.3-5.7-18.3c-2.1-6.9-3.7-13.9-4.9-21   c-2.6-15.6-4.9-31.1-7.6-46.7c-1.4-8-2.8-15.9-3.9-23.9c-0.9-7.1-2.9-14.8-2.6-21.8c-5.9-2.7-6-5.9-7.5-12.1   c-1.3-5.7-3.7-13-0.5-18.4C159.7,211.5,160,211.2,160.2,210.9z M325.2,81.3c0.5,0.3,1,0.6,1.5,0.9l0,0c0.5,0.5,0.9,1.1,1.5,1.6   c2.1,1.7,2.8,3.8,2,6.4c-0.6,0.7-1.2,1.4-1.8,2.1c0.3,0.7,1.1,1.1,1,1.9c-0.3,0.6-0.8,0.8-1.5,0.9c-2.1-1.6-5.2-1.5-6.5-4   c0.2,4.4,2.6,7.2,6,9.3l0,0c1.1,1,1.8-0.7,2.8-0.4c0,0.1,0.1,0.2,0,0.3c-0.1,0.7-0.3,1.4-0.4,2.2c0,0,0,0,0,0   c-0.9,0.1-1.7,0.3-2.6,0.4c-0.7-0.2-1.4-0.3-2.1-0.5c-0.6,0.8-0.3,1.6-0.4,2.4c-0.3,4.6,0.1,9.1-0.6,13.7c-1.1,7.2-1.2,14.7-7.2,20   c0.2,0.7,0.6,0.8,1,0.8c8.6,6.6,15,15,20.4,24.4c1.9-2.2,7.1,9.2,7.8,10.4c3.2,4.8,7.2,8.9,11.6,12.7c4.2,3.7,8.8,7.9,13.9,10.2   c5.9,2.7,10.9,2.9,17.2,3c-0.9-2.5-2.5-4.3-4.1-6c0.1-0.2,0.2-0.5,0.3-0.7c2.7,1.9,5.5,3.7,6.1,7.3c4.2,0.1,7.5-3.5,7-7.8   c-0.5-4.3-5-8.2-7.6-11.4c-6.1-7.6-11.2-16-17.3-23.6c-0.5-0.6-1.1-1.2-1.6-1.8c-2.7-2.9-5.8-5.4-9.6-7.5c0.3,2.3,1.6,4.1,0.9,6.2   c-2.6-2-3.5-6.3-4.6-9.2c-0.7-3.8-2.2-7.6-1.6-11.5c0.5-3.7-0.7-6-4.1-7.4c-0.6-0.2-1.7-0.5-1.2-1.7c6.9,1.6,27.1,11.6,27.4-3   c-3.1-0.8-5.8-2.4-8-4.7c0.5-0.8,9.2,4.7,11.4,1.9c4.1-5.1-9.5-4.1-10.9-4.4c2.1-0.9,4.4-0.1,6.5-0.4c1.6,0.8,3.1-1.5,4.7-0.2   c2.3-3.6-2.7-5-5.6-3.8c-0.3-0.1-0.7-0.1-0.9-0.5c4.6-1.8,8.4,2,7.6-5.6c-2.7-0.5-2,1.6-2.3,3.1c-2.9-4,3.3-3.8,3.5-7.2   c0.2-2.9-4.1-7.2-4.8-10.1c-1-3.7-0.5-8.3,2.5-10.9c1.3-1.1,2.8-1.1,3.4-2.6c0.5-1.3-0.5-4.4-0.8-5.7c-1.2-4.7-3.2-9.2-5.7-13.3   c-1-1.6-2.3-5-4.3-5.5c-0.9-0.2-2.6,0.3-3.6,0.3c-0.1,0-3.1-0.3-2.9-0.2c-2.2-0.3-4.1-0.8-6.3-0.4c-2.5,0.4-4.5,1.8-7.2,1.2   c-1,1.6-2.6,1-4.1,1.2c0.3,0.9-4.7,3.9-5.7,4.9c-1.9,1.9-5.6,4.6-6.4,6.9c0.4,0.3,1-0.5,1.3-0.1c-0.1,2.2-2.6,3.5-1.8,6.4   c-0.9,1.8-1.3,2.5-1.4,4.5c-0.2,1.8,0.6,3.3-1,4.8c-0.6,0.1-1.5-0.4-1.9,0.9c0.8-0.2,1.3-0.3,1.9-0.4c-0.3,1.2-1.5,1.4-2.3,2   c-0.7,0.2-1.3,0.8-2.1,0.4c-1.2-1.3-2.9-1.6-4.3-2.5c-0.7-0.3-1.4-0.6-2.1-0.8c-0.8-0.7-1.6-0.2-2.4-0.1   C323.8,81,324.5,81.2,325.2,81.3z M399.1,322.3c0.2,0.7,0.3,1.4,0.5,2.1c0.4,3.6-0.4,7.5,3.5,8.8c-1.1-3.5-1-7.3-3.1-10.4   c-0.1-0.5-0.3-1-0.4-1.6c-0.2-0.8-0.3-1.6-1.3-2.5C398.7,320.2,398.5,321.4,399.1,322.3z M338.9,497.6L338.9,497.6   c0-1.2,0-2.5,0-3.8c-0.2-2.3,0.4-4.5-0.4-6.8c-0.3-14.9,0-29.9-0.9-44.7c-1.2,0.1-2.4,0.1-3.4,0.6c-2.3-1.3-1.9-4.1-3.2-6.2   c0.3,6,0.2,6.8-5.7,7.4c-2-1.5-3.2-3.6-4.6-1.1c-1.1,1.9,0.2,8,0.2,10.3c0,4-0.3,8-0.1,12c0.1,2,2,5.6,0.5,6.8c-0.4,0-0.8,0-1.1,0   c-0.5-0.3-1.1-0.3-1.7-0.3c-19-2.5-38-4.7-56.8-9c-9.5-2.2-19.4-3.3-28.8-5.9c-4.9-1.3-17.4-7.9-20.2-1.8c-3,6.4,13.7,7.2,17.9,8.2   c9.4,2.1,18.7,4.7,28,7.1c18.6,4.9,37.8,7.4,56.7,10.8c1.2,0.2,4.8,0,5.6,0.4c1.6,0.8,1,1.2,1.4,2.8c1.1,4.1,0.1,9.4,0.2,13.7   c0.2,9.7,1.1,19.4,3.1,29c1.6,8,3.3,16,6.2,23.6c1.3,3.3,1.2,7.5,1.9,11c0.9,4.4,2.1,8.8,3.7,13c0.8,2.5,1,5.1,4,5.4   c3.8,0.3,4.8-3,4.6-6c-0.7-7.6-2.9-15.1-3.7-22.8c-1.8-16.1-3.6-32.5-3.2-48.7l0,0C339.5,500.9,339.4,499.3,338.9,497.6z    M312.1,297.6c0,0.4,0,0.9,0.6,0.3c0.3-0.4,0.3-1,0.2-1.5c0.2-1.1,0.3-2.3,0.5-3.4c0.4-1.7,0.7-3.3,0.6-5.1c-0.7,1-0.9,2.1-1,3.2   C312.6,293.3,311.4,295.3,312.1,297.6z M308.9,430.8c-2.7,2-1.1,8.3,2.8,7.2c0.7-1.4-0.3-3.1,0.8-4.3c0.9,0.1,1.1-0.9,1.7-1.3   c0.8,1.4,0.7,4.9,1.7,6c1.2,1.3,4.1,1.3,5.8,1.6c0.4-1.7-1.4-5.9,1.6-2.5c2.1,2.4,1.4,5.7,5.9,4.5c-0.7-1.8-0.8-7.7,1.6-8.3   c3.7,0.2,1.3,8.3,6.2,6.6c2.7-1,1.7-8.5,1.5-11.1c0.4-2,0.5-4,0.5-6.1c0-1.7-0.6-3.4-0.5-5.1c3.3-1,1.6,8.8,1.9,10   c0.9,4.1,4.5,8,9,6.8c-4.1-5.6-7.1-11.2-9.6-17.9c-2.3-4.2-6.6-8.2-9.6-11.8c-0.5-0.6-1.2-0.7-1.6-1.3c-0.7-1-0.8-3.2-1.1-4.5   c-0.7-3-1.4-6-2.1-9c-2.4-11.8-6.2-24.5-6.6-36.5c-0.4-12.1,0.6-25.4-3.3-37c-1.6-4.9-2.3-10.5-4.1-15.2c-0.2-0.6-1.3-0.8-1.5-1.4   c-0.2-0.5,0-1.7-0.1-2.3c-0.7-2.7-1.5-5-0.2-7.7c0.3,0.9,0.5,1.9,0.8,2.8c2.3-7,3.7-15.1,4.2-22.5c0.6-7.7-0.5-15.3-0.2-23   c0.3-7.6-0.6-14.8-1.1-22.4c-0.4-5.5-2.6-14.6,2.5-18.6c0.4,0,0.8-0.1,1.5-0.2c-1.9,4.6-2.1,9.2-1.7,13.9   c6.6,1.1,11.2-4.1,14.4-9.3c7.7-8.9,10.6-18.8,7.1-30.3c-1.8-5.8-5.2-10.7-8.9-15.5c-1.4-1.9-2.8-3.9-5-4.9c-2.1-1-5.1-0.4-6.7-2.4   c1.4-0.8,3-0.2,4.6-0.5c-3.7-3.9-7.8-6.8-12.1-9.7c-4,3.3-7.9,6.7-11.9,10c-3.2,2.7-7.5,5.4-9.7,9.1c-4.6,5.1-7.5,11-8.1,17.9   c-0.4,0.4-0.4,0.8-0.4,1.3c0,4.8,0,9.7,0.1,14.5c-0.9,15-3.1,29.8-0.4,44.8c2.6,14.5,7.4,28.5,10,43.1c1,2.9,1.9,5.8,2.9,8.7   c-2.6-0.8-2.9-3.2-4.1-5.7c-0.7,9-0.5,17.8,1.4,26.7c1.9,8.9,5.1,17.5,7,26.4c1.9,8.7,5,16.9,7.3,25.5c2.4,8.9,4.2,18,6.3,26.9   c0.6,0.2,0.9-0.8,1.6-0.3c0.3,1.6,2.5,7-0.5,6.8c0.5,2.3-1.7,3.8-1.2,5.9l0,0c-1.1,2.3-1.9,4.7-2.2,7.2c-0.5,3.7,0.8,7.1,1.5,10.5   C308.6,428.4,308.8,429.6,308.9,430.8z M326.6,86.2c-1.8,1.5-4.2,0.8-4.2,3.4c0,3.1,3.4,2.6,5.1,4c-0.5-3.6,2.8-4.4,0.6-8.2   c-1.4-1.9-3.2-3.5-5.3-2.6c-2.3,1-2.9,3.9-1.8,5.8C321,87,327.2,82.9,326.6,86.2z M289.5,363.2c-0.9,1.6-0.3,3.3-0.4,4.9   c-0.5,12.1,3.4,35.9,17.8,39.7c0.6-9.7-2.3-19.2-4.6-28.6c-2.4-9.9-5.6-19.4-8.7-29c-0.2-0.7-1.4-0.1-1.4-1   c0.2-2.5,1.8-4.8,1.5-7.6c-1,0.4-1.5,0.6-2.1,0.9c-7.7-16.3-12.8-34.4-17-51.9c-2.2-8.9-4.2-17.8-5.8-26.8   c-1.5-8.6-1.9-17.8-4.3-26.3c-13.2,2-26.8,1.6-40.1,3c-13.3,1.4-27.1,2.6-40.5,0.9c5.7,25.3,4.7,52.7,14,77.2   c4.6,11.9,8.5,24.1,12.8,36.1c2.2,6,4.4,12,7,17.8c1.2,2.7,2.8,5.3,3.5,8.2c0.7,2.8,0.4,5.2,2.3,7.7c21.3-2.1,42.2-5,63-8.8   c-1-9.3-0.3-19.6,2.6-28.5c0.1,0.2,0.4,0.5,0.3,0.7C288.7,355.6,289,359.4,289.5,363.2L289.5,363.2z M317.5,441.3   c-1.7-0.3-3.2-0.9-3.8-2.7c-0.1-1.1,1-2.3-0.1-3.6c-0.4,1.3-0.2,2.5-0.2,3.7c-3.6,4.3-2.5,13.5-3.2,18.8c-0.2,1.8-2.3,7.7-1.5,9.3   c0.9,1.7,2.8,1.6,4.7,1.9c1.7,0.5,3.4,0.6,5.1,0.8c-0.6-4.9-0.6-9.6-0.6-14.5C317.8,452.1,319.3,443.2,317.5,441.3z M370.8,46.5   c0.8,0.6,1.6,0.8,3,1.1c-0.9-0.9-1.4-1.4-2.2-1.4c-6.8-4.7-12.9-7-21.1-4.3c-6.9,2.3-13.7,6.6-18.6,11.9c-1.7,1.2-4.1,3.5-5,5.4   c-0.9,2-0.1,4.3-2.2,5.7c1.2,5.5,0.6,6.1-3.2,5.8c-0.5,1.8,1.8,4.6-2,5.3c2.3,2.8,4.5,2.4,7.8,3.9c1.3-7.1,5.9-12.5,9.8-18.1   c0.1-0.1,0.3-0.3,0.4-0.4c3.2-5.8,8.5-9.5,14.1-12.2c5-2.4,10.7-3.2,16.3-2.7C369,46.7,369.9,46.7,370.8,46.5z M309.7,483.9   c-1.5-0.2-3.1-0.5-4.7-0.7c0.8,8.8-3.3,19.2-5.2,27.7c-1.1,5.1-2.3,10.3-3.9,15.3c-0.4,1.4-3.1,11.5,1.3,9.2c0.9-0.4,1.4-1.2,1.9-2   c4.7-7.6,7.1-16.2,10.4-24.3c2.2-5.5,3.8-11.3,5.5-17.1c0.7-2.4,1.9-4.7,1.5-7.4C314.3,484,312,484.1,309.7,483.9z M273.6,236.9   c-2,0.4-3.9,0.5-6.1,0.5c5.5,27,8,54.1,17.8,80.1c0.1,0.8,0.3,1.6,1,2.1c-0.3-1,0.1-2-0.6-2.9c0-0.3-0.1-0.5-0.1-0.8   c0.1-0.5,0.1-0.9-0.3-1.3c-1.5-8.8-1.7-17.7-0.3-26.6c1-1.6,1-3.2,0.4-5c-1.6-5.1-3.1-10.2-4.6-15.3c-2.3-8.7-4.6-17.5-6-26.4   c-0.1-1.3-0.2-2.5-0.3-3.8C274.5,236.9,274.4,236.4,273.6,236.9z M397.9,293.5c-0.5,4.5-0.9,9-0.7,13.4c0.2,4.1,1.8,6.5,3.4,10.2   c1.6,3.6,2.6,7.4,3.5,11.3c0.6,2.6,0.6,7.4,3.6,8.6c3.3,3.1,7.2,4.8,12,4.4c-1.8-12.4-3.4-24.5-4.5-37c-1.1-12.7-3.4-24.6-8.4-36.3   c-0.8,1.3-0.3,2.9-1.8,3.7c-1.3-4.4,0.7-8.8,0.5-13.2c-0.2-5-0.3-9.8-0.2-14.8c-3-0.2-1.6,19.6-2,22.6   C402.3,275.6,398.3,284,397.9,293.5z M174.2,242.2c-0.5,0.2-1,0.3-1.3,0.8c-1,0.8-2.1-0.3-3.1,0.2c-0.4,4.9,1.9,11.2,2.6,16.2   c0.9,5.9,1.7,11.8,2.7,17.7c1.9,11.6,3.9,23.2,5.8,34.8c1.7,10.4,3.1,20.8,5.3,31.1c2.1,9.8,5.5,19.1,8.2,28.7   c5.5,19.7,12.4,37.7,12.3,58.5c0,21.4-2.8,41.8-6.2,62.8c-1.7,10.2-3.4,20.3-6,30.3c-0.7,2.6-7.4,25.1-5.1,25.1   c2.4,1.2,5,0.2,5.8-2.2c1.7-4.7,3.4-9.5,5.1-14.2c3.5-9.2,5.3-18.8,7.5-28.3c2.7-11.7,6.2-23.3,8.4-35.1c0.3-1.8,0.3-3.8,2.1-5.1   c-2.7-0.7-5.3-1.5-7.8-2.6c-1-1-2.4-1.9-1.9-3.5c0.8-2.7,1.7-5.4,3.9-7.3c2.9-1.2,5.6,0.9,8.5,1c2-12.1,3.7-24,2.1-36.2   c-2.9-1.2-5.8-2.3-8.7-3.5c-1-0.6-2.1-1.2-3.1-1.8c0.2-2.8-0.2-5.7-0.3-8.6c0-1.6,1-7.9-0.3-8.9c-0.1-0.1-0.2-0.1-0.3-0.1   c-2-3-2.7-6.6-3.8-10c-0.4-1.3-0.2-2.2,0.9-2.9c3.3,5.3,3.8,16.5,12.6,10.2c-1.8-3.1-1.7-6.6-3.1-9.8c-1.2-2.9-2.7-5.7-3.9-8.5   c-2.7-6.4-4.9-13-7.3-19.6c-4.4-12-9.5-24-13-36.3c-3.7-13-5.8-26.5-7.9-39.9c-1.1-7.2-2.4-14.4-3-21.7c-0.2-2.5,0.4-8.8-1.1-10.8   C179.7,241.1,176.4,241.2,174.2,242.2z M215.7,394c-2.1,2.2-1.9,10.7-0.6,13.5c1.4,3.1,4.8,3.4,7.9,4.5c8.9,3.1,17.9,5.9,27.1,8.2   c18.2,4.5,36.8,8.6,55.3,12c2.3-4.7-1.5-8.8-0.9-13.4c-7.5-1.3-14.9-2.1-22.4-3.8c-7.5-1.7-14.9-3.7-22.3-5.5   c-7.7-1.9-15.4-3.6-23-5.9c-2.3-0.7-19.9-5.6-19.3-8.3c1.4-1,2.8-0.4,4.2,0.2c3.1,1.3,6,3,9.3,3.9c8.5,2.3,17,4.4,25.3,6.9   c10.9,3.3,22.1,4.9,32.9,8.5c3.7,1.2,7.7,1.2,11.6,1.6c4,0.4,4.8,1.2,5-4.3c0.1-1.7-0.7-2.4-1.8-2.5c-2.1-0.1-3.5-1.3-4.8-2.7   c-4.1-4.1-6.8-9.1-9.2-14.4c-1.5-3.2-2.4-6.7-3.3-10.1c-3.7-0.3-7,0.5-10.4,1.2c-12.9,2.7-25.8,4.7-38.9,5.9   C230,390.4,222.7,391.5,215.7,394z M401.3,242.3c2.6-1.1,5.3-2.2,7.9-3.4c3.4-1.6,6.4-3.7,7.5-7.6c8.7-18.3-2.1-32.7-13.8-46.4   c-5.6-6.5-10.9-13.1-16.8-19.4c-5.8-6.2-10.7-13.9-18.5-17.7c-1.9-1.2-3.9-1.7-6-2c-0.1,0.2-0.1,0.4-0.2,0.5   c1.8,0.6,3.6,1.3,5.4,1.9c12.1,8.6,18.6,23.5,27.7,34.9c3.9,4.8,8.9,12.1,3,17.6c-4.8,4.5-13.4,2.5-19,1.1   c-12.7-3.2-25.8-13.9-32.7-24.9c-8.3-13.2-17.4-26.9-29.8-36.5c-1.7,1.9-3.4,3.7-5.3,5.7c10.8,4.4,20.5,16.2,25.8,26.2   c3.3,6.3,5.3,13.7,4.5,20.8c-0.8,7.9-4.9,13.9-9.4,20.1c-4.3,4.7-8.8,10.3-15.9,9.3c0,5.1,1.2,10.2,1.5,15.4   c0.3,5.5,0.4,11,0.4,16.5c0,10.6-1,21.1-1.1,31.6c0,5.2-1.8,9.9-2.2,14.9c-0.4,4.7,2.4,8.8,3.9,13.1c1.5,4.6,2.3,9.4,2.7,14.3   c0.2,2.8,0.3,5.5,0.4,8.3c0,1.5-0.7,5,0.2,6.3c2.8-0.2,5.7-0.1,8.5,0c5.6,0.7,11.3,1.3,16.9,2c3.9,0.7,7.9,1.3,11.8,2   c11.7,1,22.9-0.4,33.3-5.7c2.2-1.2,4.8-1.9,5.7-4.2c0.8-2.1,0.5-5.7,0.2-7.8c-0.8-5.5-2.6-10.7-2.9-16.3   C393.5,289,402,266.2,401.3,242.3z M226.1,415.5c1.7,11.1-0.8,21.1-1.6,32.1c-0.6,7.9,11.4,7.6,17.2,8.6   c21.7,3.8,42.6,9.2,64.6,10.7c1.1-5.4,1.5-10.8,2.2-16.2c0.4-3,2.5-8.6,0.7-11.1c-0.7-0.3-1.4-0.6-2.1-0.9c-0.5-0.4-0.8-1-0.8-1.6   c-1.4-1.6-0.2-1.1-2.2-2.3c-2-1.2-6.1-1.2-8.4-1.7c-2.5-0.5-4.9-1-7.3-1.6C267.4,426.9,246.1,422.9,226.1,415.5z M376.5,152.2   c4.1,4.5,8.1,9.4,12.5,13.6c2,1.9,4.2,3.6,5.9,5.7c1.4,1.7,2.3,3.7,4.2,5c-0.5-6.8-0.9-12.1-5.9-17.2   C388.6,154.6,382.6,153.8,376.5,152.2z M381.8,82.7c1.1-1,3.3,2,2.9-1.5c0.7,0.1,0.7,1,1.5,0.8c-0.1-0.7,0.5-1.3,0.1-2.1   C384.6,80.1,382.9,80.5,381.8,82.7z M381.8,89.3c0.3,2.2,1.1,3.9,2.4,5.6C384.1,89.7,384,89.4,381.8,89.3z M335,40   c1.1-0.2,2.1-0.3,3.2-0.5C336.6,38.5,335.9,38.6,335,40z M308.4,32.8c-0.7-0.7-1.3-1-2,0C307.2,33.4,307.8,33.3,308.4,32.8z    M321.8,31.9c-0.6-0.6-0.9-1.4-1.9-0.6C320.4,32,320.7,32.6,321.8,31.9z M367.8,29.5c-1.1-0.4-1.1,0.4-1.4,1   C367.1,30.4,367.6,30.3,367.8,29.5z M351,19.8c0.5,0.9,0.9,1.4,1.7,1.2C352.5,20.2,351.9,20.1,351,19.8z M323.2,22.2   c1.4,0-0.4-1.6-0.4-0.6C322.9,21.8,323,22,323.2,22.2z M382.1,87.3c-0.1-0.7-0.3-1.4-0.5-2.6C381.1,86,380.9,86.8,382.1,87.3z    M298,18.1c0.5-0.4-0.3-1.2-0.8-0.8C297.3,17.8,297.4,18.1,298,18.1z M304.5,59.2c-0.4,0.3-0.5,0.6-0.2,1   C305.2,60.4,304.5,59.2,304.5,59.2z M378.5,41.2c0-0.5-0.2-0.6-0.6-0.3C377.9,41.4,378.1,41.5,378.5,41.2z M336,79.4   c-0.6-0.3-0.9-0.3-0.5,0.3C335.6,79.6,335.8,79.5,336,79.4z M358.7,24c-0.3,0.1-0.4,0.3-0.2,0.6C359,24.4,359,24.2,358.7,24z" />
	<path fill="#EBEBEB" d="M325.1,0c-0.5,0.5-0.2,1.2-0.4,2c-1.6-0.9-3-1.9-4.9-1.5c0-0.1,0-0.3,0-0.4C321.6,0,323.3,0,325.1,0z" />
	<path fill="#CECECE" d="M337.2,0.4c0-0.1,0-0.3,0-0.4c1.3,0,2.7,0,4,0c0,0.1,0,0.2,0,0.3C339.9,0.4,338.6,0.4,337.2,0.4z" />
	<path fill="#4AB979" d="M619.1,552.7c-0.2,11.7-1.3,27.7-17.4,24.3c1-0.3,2.2,0.6,3.3-0.4c-0.8-2.1-7.1-1.8-9-2   c-4.4-0.6-8.8-1.2-13.3-1.8c-8.1-1.1-16.2-2.1-24.3-3.2c-17-2.2-33.9-4.5-50.8-6.8c-29.4-4-58.8-7.9-88.2-11.8   c-8.1-1.1-16.1-2.1-24.2-3.2c-3-0.4-6.5-0.4-9.4-1.4c-3.1-1-3.2-1.7-2.1-4.5c0.6-1.6,1.6-2.9,2.1-4.6c0.2-0.7-0.1-1.5,0.2-2.2   c1.5-2.7,4.1-1.8,6.7-1.4c7.4,0.9,15,1.3,22.4,2c60.3,5.6,120.7,10.6,181,16.4c1.3,1.8,9.1,0.6,11.5,0.7   C610.2,553.1,617,555,619.1,552.7z" />
	<path d="M596,552.3c-60.3-5.8-120.7-10.9-181-16.4c-7.5-0.7-15-1.1-22.4-2c-2.6-0.3-5.2-1.3-6.7,1.4c-0.4,0.7,0,1.5-0.2,2.2   c-0.5,1.7-1.5,3-2.1,4.6c-1.1,2.8-1,3.4,2.1,4.5c2.9,1,6.4,1,9.4,1.4c8.1,1.1,16.1,2.1,24.2,3.2c29.4,3.9,58.8,7.8,88.2,11.8   c16.9,2.3,33.9,4.5,50.8,6.8c8.1,1.1,16.2,2.1,24.3,3.2c4.4,0.6,8.8,1.2,13.3,1.8c1.9,0.3,8.2,0,9,2c-1.1,0.9-2.3,0-3.3,0.4   c-20.6-2.8-41.3-5.3-61.8-8.6c1.3,3.8,7.8,2.3,10.1,5.3c1.9,2.6,1.1,5.9-0.8,8c-3.2,3.7-8.1,5.1-12.5,6.8c-4.6,1.8-9,3.4-13.9,3.9   c-4.4,0.5-9.4,0.3-13.8,0.3c-4.7,0-10.1-2-14.4-3.8c-4.3-1.9-7.4-4.7-12.4-4.4c-4.7,0.3-9.2,2-13.9,2.1c0.7,7.4-8.9,10-14.4,11.6   c-7.7,2.3-15.3,1.8-23.1,1.1c-7.9-0.7-16.7-1.5-23.8-5.4c-3.1-1.7-5.4-5-8.6-6.5c-3.3-1.6-7.5-0.4-11-0.3c-6,0.3-16.9,1.4-21.7-3.2   c-3.1-3-1.8-4.8,0.1-7.8c1.8-2.8,2.7-5.8,3.5-9c1.7-7.1,2.1-14.4,3.6-21.5c0.5-2.6,1.3-6.6,4-7.9c2.8-1.3,4.2,1.3,6.3,0.7   c-0.5-6.2,3.9-13.2,4.6-19.5c0.8-6.9,3.1-14,4.6-20.9c1.4-6.6,3-13,4.6-19.5c1.7-6.7,1.8-14.1,3.1-21c1.9-1.6,2-2.2,0.8-4.5   c0.3-1.3,0.5-2.7,0.8-4c0.3-1.2,0.5-2.4,0.8-3.5c0.8-0.9,2.4-1.7,0.4-3c0.6-1.8,1.1-3.6,1.7-5.4c2-6,5.2-11.3,9.7-15.7   c0.9-0.3,1-1.1,1.3-1.9c-0.7,0.4-1.3,0.8-2,1.2c-0.4,0.2-0.7,0.3-1.1,0.5c-0.8-2.6-1.2-2.9-3.8-2.3c-0.8,0.2-1.6,0.4-2.3,0.6   c-2.3,0.2-4.6,1.3-7,0.3c1.3-0.3,2.6-0.6,3.9-0.9c5-1.4,10.1-2.8,15.1-4.2c0.4,1.1,1.2,0.6,1.8,0.4c1.9-0.6,3.9-1.2,5.5-2.5   c0.5,0,1.1,0,1.6,0.1c0.4,0.5,1,0.7,1.6,0.8c0.4,0.4-9,4.3-10,5.3c-1.6,1.4-2.7,4.5-4.2,6.2c-1.5,1.8-3.2,3.5-4.5,5.5   c-3,4.7-4.2,10.4-5.5,15.7c-1.4,5.6-2.9,11.2-3.7,17c-0.8,6.2-1.2,12.4-2.4,18.6c-1.1,5.8-3.1,11.3-4.2,17.1   c-1.1,5.6-1.4,11-3,16.5c-1.4,4.8-0.6,12.2-3.5,16.3c1.7,0.5,3.4,0.4,5,0.5c3.7,0.4,6,1,9.2-0.6c3.3-1.5,6.8-3.3,10.3-1.4   c3.1-12.9,8.9-24.1,14.7-35.8c3.2-6.3,6.8-11.5,11.2-17c4.5-5.7,7.8-12.5,12-18.4c8.7-12.3,13.3-26.4,21.2-39   c3.8-6.1,4.5-12.5,7-19.1c1-2.8,2.6-5.3,2.7-8.4c0.1-3.9-2-7-2.8-10.7c0.4-0.4,0.6,0,0.7,0.2c0.6,1.2,1.4,1.5,2.4,0.6   c1.7,3.3,2.3,6.8,2.1,10.5c-0.7,2.3-7.2,19.2-4.9,19c0.6,0.4,1.1,0.8,1.7,1.2c2.4,1.3-6.5,14.7-7.3,17.7c-2.2,8.4-4.4,17.3-4,26   c-0.6,2.4-0.8,4.7,0.3,7.1c0.3,0.6,0.3,1.4-0.7,1.5c-2.4-3.1-1.7-9.5-1.6-13.2c0-4.8,0.7-9.4,2.1-14c1.4-4.7,1.9-9.3,4-13.8   c0.8-1.7,6-9.1,4.3-10.2c-1.3,0.1-4.8,7.4-5.6,8.6c-2.3,3.3-3.9,6.4-5.2,10.2c-2.5,7.4-5.7,14.3-9.9,20.8c-1.9,2.9-4.2,5.4-6.3,8.1   c-2.2,2.9-3.7,6.4-5.7,9.5c-2.2,3.4-4.3,5.2-4.3,9.4c-0.1,3.9-0.5,7.9-0.6,11.8c-0.1,7.7,1.8,16.2,2.6,23.9   c0.3,2.6-0.1,9.4,1.4,11.5c1.5,2.1,9.2,1.6,11.6,1.8c3.9,0.3,6.5,1.8,8-2c1.5-3.8,1.4-8.5,2-12.5c0.7-4.4,2-8.6,2.8-13   c0.6-3.3-0.3-8.5,1.4-11.4c0.8-0.8,0.1-1.9,0.5-2.9c0.6,0.1,1.3,0.6,1.9,0.1c0,14.3-4,28.3-6.4,42.3c4.1,1.1,8.1,0.9,12.1,1.1   c2.8,0.5,8.8,1.9,11.5,0.5c2.6-1.3,2.4-4.9,2.7-7.4c0.2-1.8,2.9-1.9,2.6-4c0.1,0.8,0.1,1.7,0.2,2.5c0,0.8,0,1.6,0,2.6   c2.1,0.5,3.2,2.5,5.2,3.2c1,0.4,0.6,1.4,0.3,2.3c-0.6,1.5-0.3,2.4,1.6,2.5c17.3,1.4,34.5,2.9,51.8,4.3c16.9,1.4,33.9,2.9,50.8,4.3   c4.9,0.4,9.8,0.8,14.7,1.2c0.6,0.1,1.3,0,1.5,0.8c0.2,0.6-0.4,0.8-0.8,1c-34.7-3.9-69.8-6-104.7-8.9c-18.1-1.5-36.3-3-54.4-4.6   c-9-0.8-17.9-1.5-26.9-2.3c-2.8-0.2-18-3.5-18.5,0.7c2.9,0,3.5,3.5,5.9,4.4c3.5,1.3,8.6,0.7,12.3,1.1c8,0.7,16.1,1.4,24.1,2.1   c16.6,1.5,33.1,3,49.7,4.5c16.9,1.5,33.9,3,50.8,4.6c8.3,0.8,16.5,1.5,24.8,2.2c2.8,0.2,21.1,0.2,21.8,2.7   C603.4,553.8,597.5,552.2,596,552.3z M413.3,418.3c1.3-0.3,2.4-0.9,3.7-1.9C415.2,416.3,414.2,417.2,413.3,418.3   c-0.3,0-0.6,0.1-0.9,0.1C412.8,418.7,413.1,418.7,413.3,418.3z M429.6,494c-1.9,3.5-4.4,6.3-3.9,10.3c0.4,3.7,1.6,7.7,2.5,11.3   c0.7,3,1.4,7.5,2.7,10.3c1.4,3.1,4.2,2.7,7.3,2.6c0.9,0.3,1.8,0.3,3,0.2c-2-15.4-3.3-30.7-3.9-46.5C434,486.1,431,489.5,429.6,494z    M469.6,583.1c-1,1,0,0.8,0.5,0.8c2.9-0.1,5.7-0.5,8.4-1.6c4.8-0.1,8.4-0.5,12.6,2.2c3.6,2.3,7.2,3.3,11.4,4.4   c8,2.2,19.6,2.4,27.5-0.5c4.1-0.7,23.8-7.4,18-13.6c-1.3-1.4-4.9-1.8-6.5-2.7c-2-1-3.7-2.3-5.7-3.3c-4.2-2.1-9.4-2.1-14-2.8   c-2.3-0.3-5.3,0.5-7.4,0.1c-0.5-0.1-0.7-1.1-1.1-1.2c-1-0.2-2.2-0.2-3.2-0.4c-6-0.7-11.9-1.3-17.9-2.1c-12-1.5-23.9-3.2-35.8-4.8   c-3.2,0.2-3.2,2-4.1,5.1c-0.6,1.9-2.3,6.8,0.8,7.5c1.8,2.9,4.9,2.5,7.9,3.3c2.7,0.8,3.7,3,6.2,3.9   C468.3,579.2,469.8,580.8,469.6,583.1z M455.1,588.4c2.2-3.5,5.5-5.3,9.2-6.5c0.8,0,1.6,0,2.4,0c0-2.3-1.8-3-3.2-4.1   c-2.1-3.5-6.9-1.7-9.9-3.6c-1.7-1.1-2.9-2.6-4.8-3.6c-2.1-1-4.2-1.6-6.2-2.8c-1.9-1.1-3.7-2.5-5.4-3.9c-1.2-1.1-2.9-3.7-4.5-4.1   c-2.8-0.8-8.8,4-10.3,6c-2.8-4.4,5.7-7.1,8.6-8c-1.6-2.1-2.2-3.7-4.8-3.5c-2.5,0.2-4.8,2.9-6.9,4c-1.2,0.6-3.1,2.3-2.4-0.6   c0.4-1.7,4-3.4,5.3-4.3c-3.7-1.1-6.4-1.1-9.6,1c-0.5,0.3-1.3,2.2-2.3,1.6c-1.4-0.9,1.1-3.5,1.6-4.2c-6-0.8-11.9-1.7-17.9-2.4   c-4.7-0.6-9.5,1.3-13-2.7c-0.9-2.2-0.7-4.4,0.4-6.5c-2.4-1.4-4.8-0.4-5.7,2.5c-0.6,1.9-0.8,4-1.4,5.9c-1.5,5.8-1.1,11.8-2.8,17.5   c-1.2,4.1-2,8.4-4.7,11.9c-2,2.6-0.9,5.3,2.3,6c8.2,1.8,16.5,1.6,24.8,0.7c3.1-0.3,5.2,0.4,7.1,2.6c4,4.7,9.4,6.6,15.1,8   c5.8,1.4,11.7,1.7,17.6,2.5c9.8,1.2,18.9-0.4,27.6-4.9c2.4-1.2,4.3-2.5,4.4-5.5c0-1.2,0.5-2.4,0.8-3.8c-4.9,0.3-8,3.7-11.4,6.6   C454.8,589.3,455.2,588.9,455.1,588.4z M428.6,527.8c-1.8-7.4-3.5-14.4-5.4-22c-3.5,6.9-5.1,13.9-6.9,20.9   C420.4,527.1,424.3,527.4,428.6,527.8z M451.7,557c-6.7-0.9-13.1-1.7-20-2.7c5,6.1,9.8,11.7,17.3,14.1   C448.9,564.4,450.7,561,451.7,557z M416.6,534.4c-0.9-1.9-2.8-1.7-4.6-2.2c-2.6-0.8-4.3-1.6-6.3,1.2   C409.3,533.7,412.7,534.1,416.6,534.4z M495.1,528.9c-1.5,0.5-1.4,4.1,0.1,4.5C499.2,534.4,495.1,529.7,495.1,528.9z" />
	<path fill="#A29792" d="M168.4,218.3c3.1,1.2-1-6.6-1.8-7.3c18.3-1.8,36.5-1.1,54.9-1.2c5.4,0,53,1.5,53.4-1.2   c0.2,0.1,0.5,0.2,0.7,0.3c-1.4,8.3-1.7,16.6-1.2,24.9c-3.6,1.3-7.1,0.6-10.5,1.1c-8.3,1.2-16.7,1.2-25,1.7   c-7.5,0.5-15,1.6-22.5,2.2c-11.2,0.9-22.5,1.2-33.7,0c-3.1-0.3-6,0.6-9,1c-0.4-0.2-1,0.1-1.4-0.4c0.8-1,0.8-2,0.6-3.2   c-0.3-0.8-0.7-0.7-1.2-0.1c-0.1,0.1-0.2,0.1-0.3,0.1c-0.4-0.7-1.6-1.4-0.1-2.1c1.5-1.6,1.1-2.8-1.2-4c-1.3-1.2-1.5-3-0.4-4.1   c0.3,0.1,0.6,0.5,0.9,0.2c1.3-1.3,0.2-5.2-1.6-5.8C168,219.8,167.5,219.2,168.4,218.3z" />
	<path fill="#35A55F" d="M596,552.3c1.5-0.1,7.4,1.5,8.4-0.2c-0.7-2.5-19.1-2.4-21.8-2.7c-8.3-0.7-16.5-1.5-24.8-2.2   c-16.9-1.6-33.8-3.1-50.8-4.6c-16.6-1.5-33.1-3.1-49.7-4.5c-8-0.7-16.1-1.4-24.1-2.1c-3.7-0.3-8.9,0.2-12.3-1.1   c-2.4-0.9-3-4.4-5.9-4.4c0.5-4.3,15.7-0.9,18.5-0.7c9,0.8,17.9,1.5,26.9,2.3c18.1,1.6,36.3,3,54.4,4.6c34.8,2.9,69.9,5,104.7,8.9   c0.1,1.9-0.2,3.8,0.3,5.7c0.2,0.6-0.1,1.2-0.6,1.5c-2.1,2.2-8.9,0.3-11.7,0.2C605.1,552.9,597.3,554.1,596,552.3z" />
	<path fill="#1C1B1B" d="M494.4,523.3c-0.1-0.8-0.1-1.7-0.2-2.5c0.3,2.1-2.4,2.2-2.6,4c-0.3-6.8,2.6-14.8,4.4-21.3   c1.9-6.7,4.4-13.1,6.2-19.8c3.9-14.3,7.5-28.6,12-42.8c-0.2,1.4,1.4,0.9,1.7,1.7c0.1,1-0.3,2-0.7,2.9c-3.5,8.7-5.9,17.7-7.6,26.9   c-1.3,6.9-3.7,13.5-5.4,20.3c-1.7,6.8-4.1,13.4-5.9,20.1C495.4,516.3,494.5,519.7,494.4,523.3z" />
	<path fill="#1C1C1B" d="M400.8,453.1c1.2,2.3,1.1,2.9-0.8,4.5c-0.4-0.6-1.1-0.7-1.8-0.8c-5.2-1.2-10.6-2-15.7-3.6   c0.9-0.5,1.6-1.2,2.1-2C388.5,450.7,397.5,456.4,400.8,453.1z" />
	<path fill="#545454" d="M274.6,78.5c0.6,0.3,1.5,0.1,1.8,1C274.2,81.5,275,80.5,274.6,78.5z" />
	<path fill="#8A8A8A" d="M282.2,92.8c-0.6-0.8-0.7-1.6-0.6-3c0.7,1.2,0.9,2.1,0.9,3l-0.2,0L282.2,92.8z" />
	<path fill="#49494A" d="M378.9,34.8c-0.5-0.7-0.8-1.4-0.8-2.3c1,0.3,0.8,1,0.8,1.6C379,34.4,378.9,34.6,378.9,34.8z" />
	<path fill="#848484" d="M274.9,40.5c0.4-0.5,0.8-1.1,1.4-1.8c0.3,0.9,0,1.4-0.5,1.8C275.5,40.5,275.2,40.5,274.9,40.5z" />
	<path fill="#535353" d="M319.1,488.4c-0.3-0.7,0.3-1.1,0.7-1.7c0,0.5,0,1.1,0,1.6C319.5,488.4,319.3,488.4,319.1,488.4z" />
	<path fill="#B3B3B3" d="M160.2,210.9c-0.2,0.3-0.5,0.6-0.7,0.9c-0.1-0.3-0.4-0.7-0.3-0.8C159.4,210.6,159.9,211,160.2,210.9z" />
	<path fill="#AEAEAE" d="M312.5,113.4c-0.4-0.4-0.7-0.9-0.8-1.5c0.5-0.2,0.7,0.2,0.8,0.5C312.5,112.8,312.5,113.1,312.5,113.4z" />
	<path fill="#727272" d="M272.4,52.2c0.1-0.3,0.3-0.6,0.6-0.7c0.2,0.3,0.3,0.6-0.2,0.7C272.7,52.2,272.6,52.2,272.4,52.2z" />
	<path fill="#E9A287" d="M478.1,381.9c0.8,3.7,3,6.8,2.8,10.7c-0.1,3.1-1.7,5.6-2.7,8.4c-2.4,6.6-3.1,12.9-7,19.1   c-7.9,12.6-12.5,26.8-21.2,39c-4.2,6-7.5,12.8-12,18.4c-4.4,5.5-8,10.7-11.2,17c-5.9,11.6-11.7,22.9-14.7,35.8   c-3.4-2-7-0.2-10.3,1.4c-3.2,1.5-5.5,0.9-9.2,0.6c0.8-10.4,6.2-19.9,7.4-30.3c0.6-5.6,3.3-10.7,3.8-16.5c0.4-5.6,0.8-10.8,1.9-16.3   c2.1-10.4,4-22.3,9-31.8c4.2-7.9,14.2-11.4,19.2-18.6c1,0.1,2.1,0.1,3.1,0.2c0.1-0.7-0.6-0.5-0.7-0.9c4.3-2.2,9.5-1.6,13.7-4.2   c-0.9-1.9-9.4,0.6-11.6-0.3c1.2-0.6,2.4-1.1,3.6-1.7c0.4-0.1,0.9-0.2,1-0.8c-0.5,0-0.9,0-1.3,0.1c-0.5-0.1-1.1,0.1-1.5-0.4   c0.2-0.8,0.3-1.7,0.2-2.6c0.4-0.3,0.8-0.5,1.2-0.8c0.9-0.2,1.6-0.7,2.6-1.7c-1.5,0.4-2.5,0.6-3.4,1.3c-0.2,0-0.5,0.1-0.7,0.1   c-1.5-0.4,3.7-3.2,4.1-3.9c-2.4-0.8-4.3,0.7-7.1,1.5c2.2-2-0.1-2.9-0.2-4.1c1.8-2,3.7-3.8,4.8-6.3c-2.9,1-4.3,3.9-7.1,4.9   c-2.8,1-6.7,0.5-9.6,0.7c-7.8,0.5-15.4,1.3-23.1,2.2c0.8,0.8,1.5,0.2,2,0.9c-25.1,1.2-50.7,3.5-74.6-6c-3.7-10.7-4.9-22.8-6.5-34   c-0.1-0.9,0.3-1.6,0.8-2.2c4.6-3.5,9.8-5.7,15.3-7.4c5.4-1.7,10.7-1.1,16.4-0.9c32.4,2,64.6,5,96,13.7c4,1.5,8,2.8,11.9,4.4   C469.2,372.9,474.7,376.1,478.1,381.9z M424.7,438.6c-1.9,1.7-3.1,6.1-4.2,8.3c-1.5,3.1-2.8,6.3-3.9,9.6   c-1.6,4.5-7.3,14.5-2.1,18.2c5.4-14.9,13.7-28.3,19.8-42.8c-1.1-0.8-1.8,0.9-3,0.8c-0.3-2.3-1.6-4-3.6-2.1   C425.9,432.3,426.8,436.5,424.7,438.6L424.7,438.6z M464.6,420.5c-1.4,1.4-1.5,2.5-0.5,4.3C464.7,423.4,464.8,422,464.6,420.5z    M464.2,414.5c-0.6,0.9-0.8,1.6,0.1,2.2C465,416.1,464.8,415.4,464.2,414.5z" />
	<path fill="#F4DCCD" d="M331.5,213.3c4.5-6.2,8.6-12.2,9.4-20.1c0.7-7.1-1.2-14.5-4.5-20.8c-5.3-10-15-21.8-25.8-26.2   c1.9-2,3.6-3.9,5.3-5.7c12.5,9.6,21.6,23.3,29.8,36.5c6.9,11,20,21.7,32.7,24.9c5.7,1.4,14.2,3.4,19-1.1c5.9-5.5,0.9-12.7-3-17.6   c-9.1-11.4-15.5-26.3-27.7-34.9c0.1-0.4,0.5-0.3,0.8-0.4c7.8,3.8,12.7,11.5,18.5,17.7c5.9,6.3,11.2,12.8,16.8,19.4   c11.7,13.7,22.5,28,13.8,46.4c-2.9,0.1-5.1,1-8.1,0.1c-2.5-0.7-4.8-3.1-7.5-3c-8.7,0.4-2.3,10.7,0.2,13.9   c0.7,23.9-7.8,46.7-6.3,70.6c0.3,5.7,2.1,10.8,2.9,16.3c0.3,2.2,0.6,5.7-0.2,7.8c-0.9,2.3-3.4,3-5.7,4.2   c-10.4,5.4-21.6,6.8-33.3,5.7c-5.5-2.4-6.2-11.9-12.1-13.3c-1.2,4.2,1.1,7.5,2,11.2c-0.5,0-1.1,0.1-1.7,0.1   c-5.6-0.7-11.3-1.3-16.9-2c-1.8-3.6,2.7-10.3,3.2-14.1c0.6-4.8,2.6-9,4.3-13.5c0.9-2.2,1.7-4.4,2.6-6.6c0.7-1.6,1.2-5.3,2.4-6.7   c2.5-2.9,10.1,0.6,14.1-0.4c-4-1.9-8.6-1.9-12.6-3.8c3.3-0.3,6.5,1,9.9,0.8c-0.6-2.6-6.7-1.9-8-3.8c-1.6-2.3,0.2-6.7,0.5-9.5   c1-8.5-0.9-16.1-3.4-24.2C338,245.6,332.5,229.8,331.5,213.3z M390.3,236.9c1.9-2.5-5.4-1.3-6.5-1.2c-3.7,0.4-7.1,1.1-10.8,0.8   c-8-0.6-13.3-2.1-19.2-7.7c-4.4-4.1-8.5-11.5-13.5-3.2c-2.2,3.6-1,3.7,1.1,6.2c1.9,2.2,2.8,4.8,5.8,5.9c5.1,6.8,15,9.6,23.2,9.4   c4.5-0.1,8.9-1.3,12.9-3.3c2-1,7.3-2.8,4.3-4.8c0.5-0.8,1.6,0,2-0.8C389.7,237.7,390,237.3,390.3,236.9z M385.6,314.5   c-1.4,4.4,0.6,8.5-0.8,12.8C388.1,325.6,388.4,318.7,385.6,314.5z M348.6,310.7c-2.3-1.3-4.6-3-7.5-2   C343.2,310.9,346,310.7,348.6,310.7z M385.6,311.2c1.5-1.4,1.3-4.5-0.1-6.2C384,306.3,384,308.6,385.6,311.2z M386.7,299.9   c-1,1.3-1.1,2.1-0.2,3.2C387.2,302.1,387.1,301.3,386.7,299.9z M387.9,285.4c-0.3,1.3-0.2,2,0.9,2.5   C389.3,286.9,388.8,286.3,387.9,285.4z M388,294.7c0-1.1,0.1-1.8-0.8-2.2C386.5,293.5,387.1,293.9,388,294.7z" />
	<path fill="#B18B7D" d="M315.7,206.5c-5.1,4-2.9,13.1-2.5,18.6c0.6,7.6,1.5,14.8,1.1,22.4c-0.3,7.7,0.7,15.4,0.2,23   c-0.5,7.4-1.9,15.5-4.2,22.5c-0.3-0.9-0.5-1.9-0.8-2.8c-1.4,2.8-0.5,5,0.2,7.7c0.2,0.6-0.1,1.8,0.1,2.3c0.2,0.6,1.3,0.8,1.5,1.4   c1.8,4.7,2.4,10.3,4.1,15.2c3.9,11.6,3,25,3.3,37c0.4,12,4.1,24.7,6.6,36.5c0.6,3,1.3,6,2.1,9c0.3,1.3,0.4,3.5,1.1,4.5   c0.5,0.7,1.1,0.7,1.6,1.3c3.1,3.6,7.4,7.6,9.6,11.8c-0.4,0.3-0.8,0.7-1.3,1c-0.1,1.7,0.5,3.4,0.5,5.1c0,2.1-0.1,4.1-0.5,6.1   c-1,1.6,0,3.4-0.7,5.2c-2.2-1.2-4.7-0.4-7-1.1c-1.6,0.6-3.1,0.8-4.5-0.3c-1.4-0.5-2.7-0.8-4,0.3c-0.6,0-1.2,0.2-1.6-0.4   c0.4-0.8-0.2-0.9-0.7-0.9c-0.7-0.1-1.4-0.2-2.1-0.3c-1-1-2-0.2-2.9,0.2c-0.3-0.4-0.6-0.7-0.8-1c-0.8-0.4-1.6-0.8-2.4-1.2   c-1.8-1.8-2.2-7.5-2.6-9.9c-0.5-3.5,0.7-7,0.1-10.4c0,0,0,0,0,0c0.7-0.2,0.2-1.2,0.9-1.4c1.3,1.5,1.5,3.9,4.1,4.5   c3.1-7-3.1-14-3.6-20.9c-0.1-0.1-0.1-0.2-0.1-0.3c-0.2-0.8-0.8-1.6-0.4-2.5c0-0.5,0-1,0-1.5c-0.2-0.6-1-0.9-1-1.7   c0.5-0.5,1.7-0.9,0.7-2c-0.2-0.2-0.3-0.4-0.5-0.7c-2.8-5.9-3.8-13.1-5.2-19.6c-1.5-6.8-3.9-12.6-6.1-19.1c-2.3-6.7-3-14-3.8-21   c-0.5-3.9-0.8-7.8-1.2-11.7c-0.2-1.8-1.8-8.3-0.3-9.7c0.5,0.3,1,0.5,1.5,0c0.9-0.4,2.3,1.2,2.8-0.4c0.5-1.3,0.8-2.8,0-4.3   c-1-1.8-1.8-3.7-3.1-5.4c-1-1.4-2-2.8-2.4-4.5c-3.3-6-3.8-13.4-4.8-20.2c-0.9-6.2-3.8-14.9-2.6-21.1c0.2,0.3,0.4,0.5,0.5,0.8   c0.4,0.8,1.4,1,2,1.7c0.3,0.3,0.6,0.3,1,0c2.9-0.5-4.2-17.1-4.5-19.7c-0.4-4.4,0.3-8.9,0.7-13.3c0.3-3-0.5-8.6,0.8-11.2   c2.1,3,4.4,5.4,7.4,7.3c-0.3-7.7-3.2-14.6-5.6-21.8c-2.8-8.1-1.1-14.8,1.1-22.8c2.2-3.7,6.5-6.3,9.7-9.1c4-3.3,7.9-6.7,11.9-10   c4.2,2.9,8.4,5.8,12.1,9.7c-1.6,0.3-3.1-0.2-4.6,0.5c1.6,2,4.6,1.4,6.7,2.4c2.2,1,3.6,3.1,5,4.9c3.7,4.7,7.1,9.7,8.9,15.5   c3.5,11.5,0.5,21.4-7.1,30.3c-1.5-2.7-5.4-9.7-9.2-9.7C319.1,201.3,313.6,204.7,315.7,206.5z M307.5,282.4   c-1.2,1.5-0.9,2.8,0.9,3.8C308.6,284.8,308.7,283.5,307.5,282.4z M308.7,158.2c1.6,1.4,3,1.3,5.1,1   C312.1,157.8,310.7,157.6,308.7,158.2z M323.3,200.5c-0.2-1.2-1.1-0.3-1.3-0.3C321.7,200.2,323.2,202.5,323.3,200.5z" />
	<path fill="#E9A287" d="M514.1,440.9c-4.5,14.2-8.1,28.4-12,42.8c-1.8,6.7-4.4,13.1-6.2,19.8c-1.8,6.5-4.6,14.5-4.4,21.3   c-0.3,2.5-0.1,6.1-2.7,7.4c-2.8,1.4-8.7,0-11.5-0.5c-1.4-1.1-3.3,0.1-4.8-0.8c1.4-5.2,2.2-10.5,3.3-15.8c1-4.7,2.7-9.8,2.6-14.6   c0-1.6-0.9-2.2-1.1-3.6c-0.3-2.2,0.9-5.2,1.1-7.5c0.4-5.3,0-10.5-0.6-15.8c-0.5-5-1.7-9.9-1.8-14.9c-0.2-5,1.2-10,1.9-14.9   c0.6-4.3,2.1-23.8,8.8-22.7c0.9-0.1,1.8-0.2,2.7-0.4c3.2-0.2,6.6,0,9.3-2.3c0-0.2,0-0.4,0-0.7c-3.8-0.5-7.6-1-11.4-1.4   c0.5-1.6,1.8-1.5,2.6-2.1c3.6-0.8,7.2-1.4,10.4-3.3c0.6,0.1,1.3,0.1,1.5-0.7c0,0-3.5-1.5-3.6-1.5c-1.4-0.4-4.3,0.6-5.5-0.3   c0.3-0.2,0.6-0.5,0.9-0.7c1.4,0.6,2.8,0.1,4.5,0.3c-1.7-4.2,4.4-1.9,5.1-5c-1.8-1.4-4-0.1-5.6-1c-1.4-0.8-2.2-2.7-3.4-3.8   c-3-2.8-6.9-4.1-10.8-5.1c0.2-3.7-0.4-7.2-2.1-10.5c-2.1-5.5-6.4-8.9-11.3-11.8c-5.7-3.3-12-4.9-18.2-6.8   c-17.3-6.3-36.6-8.8-54.7-11c2.1-5.9,2.6-12,3-18.3c7,4.8,12.1,7.4,20.6,8.9c8.5,1.5,17,2.4,25.5,3.9c16.1,3,32.3,7.8,47.6,13.6   c3.6,1.4,6.2,3.7,9.5,5.5c3.4,1.9,6.3,3.3,9.1,6c2.5,2.3,5.3,4.7,6.3,8.1c1,3.7,0.3,8.3,0.4,12c0.3,7.6,0.7,15.6,0.2,23.2   C518.8,424.5,516,432.7,514.1,440.9z M512.6,389.1c-1-2.4-3.5-9.8-7.5-5.7c-3.4,3.6,2.7,5.2,3.8,7.3c0,1.2-0.5,2.3-0.2,3.6   c1-0.4,1-1.3,1.4-2c0.5-0.4,0.9-1,1.5,0c0.2,0.4,0.6,0.5,0.9,0c1.3-2.1,2.5-4.3,2.9-6.8C513.8,386.3,513.5,387.9,512.6,389.1z    M496.4,451c4.4-1.1,8-21.8,3.5-22.8c-3.8-0.9-2.4,7.8-2.6,10C496.9,442.1,494.6,447.4,496.4,451z M493.6,460.2   c2.5-2.2,3.2-4.7,2.2-7C494.2,455.3,493.9,457.5,493.6,460.2z M492.3,463.1c-1.6,0.4-2,1.2-1.9,2.5   C491.8,465.4,492,464.5,492.3,463.1z M488.1,470.5c-1.2,0.7-1.9,1.2-1.4,2.4C487.9,472.7,487.9,471.9,488.1,470.5z" />
	<path fill="#B18B7D" d="M328,95.1c0.6-0.1,1.1-0.3,1.5-0.9c0-0.8-0.8-1.2-1-1.9c0.6-0.7,1.2-1.4,1.8-2.1c1.4-0.7,1.5-1.9,1.1-3.2   c-0.7-2.4-2.1-4.2-4.6-4.8c0,0,0,0,0,0c0.2-0.4,0.6-0.4,0.9-0.5c1.4,0.9,3.1,1.3,4.3,2.5c1,1.6,2.3,0.7,3.8,0.5   c-0.6-0.7-1.3-0.3-1.6-0.9c0.8-0.6,2-0.8,2.3-2c0-0.2,0-0.3,0-0.5c1.6-1.5,0.9-3,1-4.8c0.2-2,0.6-2.7,1.4-4.5   c-0.8-2.9,1.7-4.2,1.8-6.4c-0.2-0.5-0.8,0.4-1.3,0.1c0.8-2.2,4.5-4.9,6.4-6.9c1-1,6-4.1,5.7-4.9c1.5-0.2,3.2,0.5,4.1-1.2   c2.7,0.6,4.7-0.8,7.2-1.2c2.2-0.3,4.1,0.2,6.3,0.4c-0.3,0,2.7,0.2,2.9,0.2c1,0,2.7-0.5,3.6-0.3c2,0.5,3.4,3.8,4.3,5.5   c2.4,4.1,4.5,8.6,5.7,13.3c0.3,1.3,1.3,4.5,0.8,5.7c-0.6,1.5-2.1,1.5-3.4,2.6c-3.1,2.6-3.5,7.2-2.5,10.9c0.7,2.9,5,7.1,4.8,10.1   c-0.3,3.4-6.4,3.2-3.5,7.2c0.3-1.5-0.4-3.6,2.3-3.1c0.9,7.6-3,3.8-7.6,5.6c-1.9,0.1-3.4,0.8-4.9,1.9c-0.8,0.6-1.6,1.4-2.7,1.4   c-1-1.3-2-1-3.6,1c0.7,1.2,1.5,1,2.4,0.2c0.5,0,1.1,0,1.6,0.1c0.1,1.3,0.5,2.4,1.9,2.9c2.3,2.2,4.9,3.9,8,4.7   c-0.3,14.7-20.5,4.6-27.4,3c-0.4-0.6-1.2-0.9-1.8-1.1c-2.8-1.2-5.5-2.4-8-4.1c-0.5-0.4-1-0.9-1.5-1.3c-4.5-4.3-7.8-9.2-8.1-15.6   c-0.1-1.3-0.9-1.9-2.1-2.2c0-0.1,0-0.2,0-0.3c0-0.4,0.2-1-0.5-1.1c-0.8,0.4-1.2,1.4-2.3,1.5c0,0,0,0,0,0c0-1.3,0.1-2.5-0.3-3.8   C327,96,327,95.3,328,95.1z M366.4,80.6c-1.7-0.2-3.3,0.5-4.9,0.9c-1,0.2-1.9,1-2.1,2.2c-0.8,0.2-1.7,0-2.5,0.5   c3.9,4.3,8.7,5,14.2,3.7c-0.8-1.4-0.1-2.8-0.6-4.1c1.3-0.4,2.9,0.3,3.4-1.4c-0.3-0.7-0.8,0-1.2-0.2c-0.2-0.5,0.8-0.9-0.1-1.4   C370.5,82.2,368.5,80.6,366.4,80.6z M355.2,78.4c1.8,0.5,4.9-1.6,6.7-1.9c1.9-0.3,3.9-0.3,5.8,0c1,0.1,8.9,3.9,8.2,0.7   c-0.6-2.5-9.2-3-10.9-2.9C363.2,74.3,353.7,76,355.2,78.4z M374.1,104c-1.5-0.5-2.7-1.8-2.5-3.5c0.2-1.9,1.9-1.9,2.8-3.4   C368.2,97.9,371.4,106.1,374.1,104z M380.3,102.9c-0.4-0.3-6.5-2.4-5.4,0.5C375.5,104.8,379.2,103.1,380.3,102.9z" />
	<path fill="#E5CBBA" d="M331.5,213.3c1,16.5,6.5,32.3,11.3,47.9c2.5,8.1,4.4,15.7,3.4,24.2c-0.3,2.8-2.1,7.2-0.5,9.5   c1.3,1.9,7.4,1.2,8,3.8c-3.4,0.2-6.6-1.1-9.9-0.8c4,1.9,8.6,1.9,12.6,3.8c-3.9,1-11.5-2.5-14.1,0.4c-1.1,1.3-1.7,5-2.4,6.7   c-0.9,2.2-1.8,4.4-2.6,6.6c-1.8,4.6-3.7,8.7-4.3,13.5c-0.5,3.8-4.9,10.5-3.2,14.1c-2.8-0.1-5.6-0.2-8.5,0c-1-1.3-0.2-4.9-0.2-6.3   c0-2.8-0.1-5.5-0.4-8.3c-0.4-4.8-1.2-9.6-2.7-14.3c-1.4-4.3-4.2-8.4-3.9-13.1c0.4-5,2.2-9.8,2.2-14.9c0-10.5,1.1-21,1.1-31.6   c0-5.5-0.1-11-0.4-16.5c-0.3-5.1-1.4-10.2-1.5-15.4C322.7,223.6,327.2,218,331.5,213.3z M340.4,295.6c-0.4-0.6-1.1-0.5-1.7-0.4   c-3.6-0.1-14.5-4.4-17.2-1.6c6.2,1.8,12.2,3.2,18.5,2.7c0.8,0,1.5,0.1,2.5-0.4C341.7,295.6,341.1,295.6,340.4,295.6L340.4,295.6z    M331.9,309.4c1.7,0.4,3.3,0.4,5.3,0.3c-0.7-0.7-1.3-0.9-2-0.8c-5.9-2-12-2.6-18.7-3.2C320.9,309.1,326.5,308.8,331.9,309.4z    M317.6,302.1c2.6,1.7,18.8,3.7,22.5,2.7C332.5,303.4,325.3,301.9,317.6,302.1z" />
	<path fill="#B18B7D" d="M385,193.9c1.6,1.7,3.1,3.4,4.1,6c-6.3-0.1-11.3-0.3-17.2-3c-5.2-2.3-9.7-6.5-13.9-10.2   c-4.3-3.8-8.4-7.9-11.6-12.7c-0.8-1.1-5.9-12.6-7.8-10.4c-5.4-9.4-11.8-17.8-20.4-24.4c8.2-3.9,9.7-12.1,12.5-19.8   c3.1,7,6.3,13.3,11.5,19.1c-0.1,0.6,0.3,0.9,0.7,1.2c2.9,0.5,4.7,3,7.4,4c2.7,1,5.7,0.8,8.5,1.5c1.1,2.9,2,7.2,4.6,9.2   c0.7-2.2-0.6-3.9-0.9-6.2c3.8,2.1,6.9,4.6,9.6,7.5c-0.6,2.4-4.8,1.9-5.2,4.9c1.1-0.2,6.3-3.4,6.8-3.1c6.1,7.7,11.2,16,17.3,23.6   c2.5,3.2,7.1,7.2,7.6,11.4c0.5,4.2-2.8,7.9-7,7.8c-0.6-3.7-3.4-5.5-6.1-7.3c-0.2-0.7-0.8-1-1.5-1C384,193.1,384.5,193.5,385,193.9z    M344.4,143c-0.4,0.9-0.1,1.3,0.7,1.4C345.4,143.7,345.2,143.3,344.4,143z M364.7,156.1c0-0.7-0.3-0.9-0.7-0.4   C364,156.3,364.2,156.4,364.7,156.1z" />
	<path fill="#8E847F" d="M207.6,379c-1.1,0.7-1.3,1.5-0.9,2.9c1.1,3.4,1.8,7,3.8,10c-1,1.5-0.6,3,0.3,4.5c0-1.5,0-2.9,0-4.4   c1.4,1.1,0.3,7.3,0.3,8.9c0.1,2.9,0.5,5.7,0.3,8.6c1,0.6,2.1,1.2,3.1,1.8c0,0.6-0.1,1.3-0.1,1.9c-3.8-0.2-2.1,15.6,0.4,15.4   c0.4-1.5-0.2-2.9,0.4-4.3c0,2.1,0,4.1,0,6.2c-1.5-1.5-4.2,2.8-0.4,2.3c-0.3,0.9-1.4,0.2-1.9,1c0.2,1.4-0.5,2.9,0.4,4.3   c0,0.3,0,0.5,0,0.8c-0.8,1.6-1.4,3.2-0.4,4.9c0,0.2,0.1,0.5,0.1,0.7c-1,1.8-1.5,3.5-0.4,5.5c-2.3,1.9-3.1,4.6-3.9,7.3   c-0.5,1.6,0.9,2.5,1.9,3.5c-1.9,1.7-1.7,8.4-2.2,10.9c-0.8,4.2-1.9,8.4-2.7,12.6c-1.5,8-2.9,16-4.2,24c-1.3,8.2-4,16-6.4,23.9   c-1,3.5-1.8,7.4-3.2,10.7c-1,2.2-3.5,3.3-2.5,5.5c-2.3,0,4.5-22.6,5.1-25.1c2.6-10,4.3-20.1,6-30.3c3.4-21,6.2-41.4,6.2-62.8   c0-20.8-6.9-38.8-12.3-58.5c-2.7-9.6-6.1-18.9-8.2-28.7c-2.2-10.3-3.7-20.7-5.3-31.1c-1.8-11.6-3.8-23.2-5.8-34.8   c-1-5.9-1.8-11.8-2.7-17.7c-0.8-4.9-3.1-11.3-2.6-16.2c1-0.5,2.1,0.6,3.1-0.2c3.2,0.3,1.1,12.2,5.7,12.6c-0.2-1.7-0.4-3.3-0.5-4.9   c1.1,2,1,4,0.7,6c-0.8,0.3-0.8-0.7-1.3-0.4c0.1,1.2,0.1,1.2,1.1,2.1c-0.8,0.3-1.9,0.4-1.4,1.7c0.4,1,0.2,2.7,2.2,2.3   c-1.4,2.4-1.1,5.5,0.8,7.1c-2.5-0.1-1.6,3.5,0.3,3.8c0.4-1,0.1-1.8,0.1-2.7c1.4,1.9-0.6,4.5,0.2,6.7c0.1,0.4,1.9,1.5,1.6,2.3   c-0.2,0.5-0.5,1-1,0.3c0.7-0.5,0.6-0.9-0.1-1.2c-0.7,0.5-0.1,0.9,0.1,1.2c-0.3,2.5,0.2,4.9,2,6.8c-0.5-0.2-0.9-0.2-1.1,0.4   c-0.4,1.1,1,0.9,1.1,1.6c-0.6,0.4-0.5,1-0.3,1.6c0.6,2.5,1.2,4.9,1.8,7.4c2.5,11.1,5.2,22.3,7.4,33.5c0.5,2.6,0.7,5.4,2.3,7.8   c-0.7-0.2-1.4-0.3-1.8,0.6c1.3,0.7,1.3,0.7,1.8-0.6c0.6,5.6,1.2,11.1,2.2,16.6c0.4-0.4,0.1-1,0.7-1.2c-0.2,1.2,0.3,2.1,1.1,2.8   c-2.6,1,3.3,5.7,3.2,6.1c-0.3-0.1-0.7-0.4-0.8,0.1c-0.1,0.6-0.3,1.4,0.8,1.5c-0.6,1.1,0.5,1.6,0.8,2.5c-2.1,1.3-0.6,5.6,1.8,5.9   c0.4-0.9,0.1-1.8,0.1-2.7C205.4,373.5,205.7,376.5,207.6,379z M195.3,348c0.8,0.7,1.2-0.4,0.8-0.5   C195.7,347.4,195.4,347.6,195.3,348z" />
	<path fill="#D59379" d="M329.5,396.8c23.9,9.6,49.5,7.3,74.6,6c-0.5-0.7-1.2-0.1-2-0.9c7.7-0.9,15.3-1.7,23.1-2.2   c2.9-0.2,6.8,0.3,9.6-0.7c2.8-1,4.2-3.9,7.1-4.9c-1.1,2.5-3,4.3-4.8,6.3c0.1,1.3,2.3,2.1,0.2,4.1c2.7-0.9,4.6-2.3,7.1-1.5   c-0.4,0.7-5.7,3.5-4.1,3.9c-3.3,1.8-6.6,3.6-10.2,4.8c-0.6-0.6-1.4-0.4-2-0.4c-1.5,0.2-3,0.5-4.5,0.4c2.4-1.9,4.7-3.8,7.1-5.7   c-1.2,0.6-9.8,5.1-9.1,7c-0.7,1.4-1,0.3-1.4-0.4c-0.6,0.7-2.2,0.5-1.9,2.1c-5,1.4-10.1,2.8-15.1,4.2c-1.3,0.4-2.6,0.6-3.9,0.9   c-4.5,0.7-9,0.9-13.5,0.6c-2.3-0.2-4.4-1.4-6.7-0.9c-11.2-0.5-22.3-2.6-33.2-5.3C338.7,412.5,330.1,404.5,329.5,396.8z    M405.8,408.9c0.9,0,1.4-0.2,1.9-1.1C406.7,407.9,406.2,408.1,405.8,408.9z M411.6,407.1c-0.2-0.5-0.5-0.6-0.9-0.3   C410.8,407.4,411.1,407.5,411.6,407.1z" />
	<path fill="#A29792" d="M215.7,394c7-2.5,14.3-3.6,21.6-4.3c13.1-1.3,26.1-3.2,38.9-5.9c3.4-0.7,6.7-1.6,10.4-1.2   c0.9,3.4,1.9,6.8,3.3,10.1c2.4,5.2,5.1,10.3,9.2,14.4c1.3,1.3,2.7,2.6,4.8,2.7c1.2,0.1,1.9,0.8,1.8,2.5c-0.2,5.5-1.1,4.7-5,4.3   c-3.9-0.4-7.9-0.4-11.6-1.6c-10.8-3.5-22.1-5.1-32.9-8.5c-8.4-2.6-16.9-4.7-25.3-6.9c-3.3-0.9-6.2-2.6-9.3-3.9   c-1.4-0.6-2.8-1.1-4.2-0.2C216.9,394.8,216.3,394.4,215.7,394z" />
	<path fill="#8E847F" d="M337.2,574.6c-1.7-4.2-2.8-8.6-3.7-13c-0.7-3.5-0.6-7.7-1.9-11c-2.9-7.6-4.6-15.5-6.2-23.6   c-1.9-9.5-2.9-19.2-3.1-29c-0.1-4.2,0.9-9.6-0.2-13.7c-0.4-1.5,0.1-2-1.4-2.8c-0.8-0.4-4.3-0.1-5.6-0.4   c-18.9-3.5-38.1-5.9-56.7-10.8c-9.3-2.5-18.6-5-28-7.1c-4.2-0.9-20.9-1.8-17.9-8.2c8.9,4.4,20,4.3,29.5,6.3   c9.6,2,18.9,5.4,28.4,7.8c9.9,2.5,20.4,4.9,30.7,5.1c4.2,0.1,17-1.1,18.4,4.7c1.8,0.1,2.2-2,0.9-3.3c-0.4,0.4-0.6,0.7-0.9,0.9   c-0.9-1.2-0.4-2.5-0.4-3.7c0.6-0.6,1.5-0.1,1.9-0.8c1.5-1.3-0.4-4.8-0.5-6.8c-0.1-4,0.2-8,0.1-12c0-2.3-1.3-8.4-0.2-10.3   c1.4-2.5,2.6-0.4,4.6,1.1c-0.2,0.3,2.7,0.8,3.2,1.7c-0.2,1.4,0.2,14.1,1.9,12.8c-0.9,1.7-1,3.4,0,5c-1.5-1.1-1.4,0.7-1.4,1.1   c-0.1,1-0.6,2.5,1.4,2.4c-0.3,2.9-0.7,5.8,0,8.7c-3.6-1.8-1.8,9.9,0,8.4c-0.4,1.8-0.6,4-0.4,5.8c0.1,1.1,1.1,3,1.1,3.7   c0,0.9-0.7,1.4-0.8,1.9c-0.1,1-0.3,2.6-0.4,3.9c-0.5,8.5,0.2,16.9,0.4,25.3c0.2,8.2,2.6,16.4,3.8,24.5   C335.3,557.8,336.3,566.2,337.2,574.6z M330.6,494.6c0-0.3,0-0.6,0-0.8C329.9,493.9,329.9,494.1,330.6,494.6z M329.2,473.9   c-0.2-0.4-0.5-0.5-0.8-0.2C328.5,474.2,328.7,474.3,329.2,473.9z" />
	<path fill="#8E847F" d="M215.7,394c0.6,0.4,1.1,0.9,1.7,1.3c-0.6,2.7,17,7.6,19.3,8.3c7.6,2.2,15.3,3.9,23,5.9   c7.4,1.9,14.8,3.8,22.3,5.5c7.5,1.7,14.9,2.5,22.4,3.8c-0.6,4.6,3.2,8.7,0.9,13.4c-18.5-3.3-37-7.4-55.3-12   c-9.2-2.3-18.2-5.1-27.1-8.2c-3.1-1.1-6.5-1.5-7.9-4.5C213.8,404.6,213.6,396.2,215.7,394z" />
	<path fill="#A29792" d="M328.3,445.8c-0.5-0.9-3.4-1.4-3.2-1.7c5.9-0.6,6-1.4,5.7-7.4c1.3,2.1,0.9,4.9,3.2,6.2   c-0.4,0-0.6,0.2-0.4,0.4c1.1,0,2.1,0,3.2,0c-0.7,4.8,0.5,10.3,0.5,15.2c0,5.2,0.1,10.4,0.2,15.6c0.2,5.1,0.3,10.1,0.4,15.2   c0.1,4.3-0.4,9.1,0.9,13.2c-0.4,16.2,1.4,32.6,3.2,48.7c0.8,7.6,3,15.2,3.7,22.8c0.3,3-0.7,6.3-4.6,6c-2.9-0.3-3.2-2.9-4-5.4   c-0.9-8.4-1.9-16.8-3.1-25.2c-1.2-8.1-3.5-16.3-3.8-24.5c-0.2-8.5-0.9-16.9-0.4-25.3c0.1-1.3,0.3-2.9,0.4-3.9c0-0.5,0.8-1,0.8-1.9   c0-0.7-1-2.6-1.1-3.7c-0.2-1.8,0-4,0.4-5.8c0.2-2.8,0.7-5.6,0-8.4c-0.7-2.9-0.3-5.8,0-8.7c0.1-1.2,0.3-2.3,0-3.5   c-1-1.7-0.9-3.3,0-5c0.3-3.9,0.1-7.8,0.1-11.7C330.4,445.5,329.9,444.6,328.3,445.8z" />
	<path fill="#A29792" d="M202.8,367.3c-0.3-0.8-1.4-1.4-0.8-2.5c0-0.5,0-1.1,0-1.6c0-0.4-5.8-5.1-3.2-6.1c1.7-0.5,1-1.8,0.7-2.7   c-0.4-1.2-1.2-0.3-1.8-0.1c-0.6,0.2-0.3,0.8-0.7,1.2c-1-5.5-1.6-11-2.2-16.6l0,0c-1.6-2.4-1.7-5.2-2.3-7.8   c-2.3-11.2-4.9-22.3-7.4-33.5c-0.6-2.5-1.2-4.9-1.8-7.4c-0.2-0.6-0.3-1.2,0.3-1.6c1.5-0.7,0-1.4-0.1-2.1c-1.8-1.9-2.3-4.3-2-6.8   l0,0c0.5,0.7,0.8,0.2,1-0.3c0.3-0.8-1.4-1.9-1.6-2.3c-0.8-2.2,1.2-4.8-0.2-6.7c-0.2-0.4-0.3-0.7-0.5-1.1c-1.9-1.6-2.2-4.7-0.8-7.1   c0.3-1.4,0-2.7-0.8-3.9c-1-0.9-1-0.9-1.1-2.1c0.6-0.3,0.6,0.7,1.3,0.4c0.2-2,0.4-4.1-0.7-6c-0.4-1.8-0.9-3.6-1.2-5.5   c-0.3-1.6-0.9-2.7-2.6-3c2.2-1,5.5-1.1,6.7,0.5c1.5,1.9,0.9,8.3,1.1,10.8c0.6,7.3,1.9,14.5,3,21.7c2.1,13.4,4.2,26.9,7.9,39.9   c3.5,12.3,8.6,24.3,13,36.3c2.4,6.5,4.6,13.1,7.3,19.6c1.2,2.9,2.7,5.7,3.9,8.5c1.3,3.2,1.3,6.7,3.1,9.8   c-8.7,6.3-9.2-4.9-12.6-10.2c-2-2.5-2.2-5.6-2.9-8.5C204,369.5,204,368,202.8,367.3z" />
	<path fill="#B18B7C" d="M397.9,293.5c0.4-9.5,4.4-18,5.4-27.3c0.3-3-1-22.8,2-22.6c-0.1,5,0,9.8,0.2,14.8c0.2,4.4-1.8,8.9-0.5,13.2   c1.5-0.8,1-2.4,1.8-3.7c5,11.7,7.3,23.7,8.4,36.3c1,12.5,2.7,24.6,4.5,37c-4.8,0.4-8.7-1.2-12-4.4c0.6-7.3-1.5-15.6-3.6-22.6   C402.1,308.2,397.6,300.2,397.9,293.5z M404.6,277.2c1.3-1.5,1.4-2.8,0.1-4.2C403.4,274.2,403.3,275.7,404.6,277.2z" />
	<path fill="#967264" d="M287.4,166.7c-2.2,8-3.9,14.7-1.1,22.8c2.5,7.2,5.3,14.1,5.6,21.8c-2.9-1.9-5.2-4.3-7.4-7.3   c-1.4,2.6-0.6,8.2-0.8,11.2c-0.4,4.4-1.1,8.9-0.7,13.3c0.2,2.7,7.4,19.2,4.5,19.7c-0.1-0.3-0.1-0.7-0.5-0.7c-0.4,0-0.4,0.4-0.5,0.7   c-0.6-0.6-1.6-0.8-2-1.7c3.6,0.6-2.4-7.2-0.5-0.8c-1.2,6.2,1.6,14.9,2.6,21.1c1,6.7,1.5,14.1,4.8,20.2c-1.4-0.2-1.1,1-1.3,1.7   c-0.5-0.2-1-0.3-1.5-0.5c-2.6-14.5-7.4-28.6-10-43.1c-2.7-15-0.5-29.8,0.4-44.8c0.7-1.4,0.1-3,0.5-4.5c0.6-0.3,0.6,0.7,1.3,0.4   c1-2-0.9-2.8-1.4-4.4c-0.6-2-0.1-5.2,0-7.3C279.8,177.7,282.8,171.8,287.4,166.7z M281.6,243.1c0.4-3.1-1.4-8.7-3-9.4   C277.9,236.1,279.8,242.1,281.6,243.1z M283.1,200.1c0.2-1.1-0.1-1.9-0.3-2.7C281.5,198.7,281.5,198.7,283.1,200.1z M286,203.1   c0.2-0.7,0.4-1.3-0.3-1.7C285.2,202,285.3,202.5,286,203.1z" />
	<path fill="#967264" d="M358.7,145.4c-2.8-0.8-5.8-0.5-8.5-1.5c-2.7-1-4.5-3.6-7.4-4c1-1.2,0.3-1.3-0.7-1.2   c-5.2-5.7-8.4-12-11.5-19.1c-2.7,7.7-4.3,15.9-12.5,19.8c-0.4,0-0.8-0.1-1-0.8c6.1-5.2,6.1-12.8,7.2-20c0.7-4.5,0.3-9.1,0.6-13.7   c0.1-0.8-0.2-1.6,0.4-2.4c0.7,0.1,1.4,0.3,2.1,0.5c1,0.5,1.8,0.5,2.6-0.4c0,0,0,0,0,0c0.4,0,0.4,0.1,0.5,0.6   c1.1,6.4,2.5,12.8,9.5,15.6c0.6,0.5,1,1.3,2,0.8c2.5,1.7,5.2,3,8,4.1c0.7,0.3,1.4,0.5,1.8,1.1c-0.5,1.2,0.6,1.5,1.2,1.7   c3.4,1.4,4.5,3.7,4.1,7.4C356.6,137.8,358.1,141.5,358.7,145.4z M338.3,128.5c0-3.8-1.2-6.2-3.4-6.8   C336,124,336.2,126.4,338.3,128.5z M341.2,135c0.3-2-0.4-3.1-1.9-4.6C339.3,132.5,339.8,133.8,341.2,135z" />
	<path fill="#D59379" d="M293.5,350.3c3.1,9.7,6.3,19.2,8.7,29c2.3,9.4,5.2,18.9,4.6,28.6c-14.4-3.9-18.2-27.7-17.8-39.7   c0.6-1.6,0.3-3.3,0.4-4.9c0,0,0,0,0,0c1-3.6,1.4-7.3,1.9-11C291.6,350.8,292,350.1,293.5,350.3z" />
	<path fill="#A29792" d="M189.4,548.4c-0.9-2.1,1.6-3.3,2.5-5.5c1.5-3.3,2.2-7.2,3.2-10.7c2.4-7.9,5.1-15.8,6.4-23.9   c1.3-8,2.7-16,4.2-24c0.8-4.2,1.8-8.4,2.7-12.6c0.5-2.5,0.3-9.2,2.2-10.9c2.4,1.1,5,1.9,7.8,2.6c-1.8,1.3-1.8,3.4-2.1,5.1   c-2.2,11.9-5.6,23.4-8.4,35.1c-2.2,9.5-4,19.1-7.5,28.3c-1.8,4.7-3.4,9.5-5.1,14.2C194.3,548.6,191.8,549.6,189.4,548.4z    M211.4,466.5c-0.9,0.6-3.6,5.6-1.1,5.9C212.4,472.7,212.1,467.6,211.4,466.5z M209.5,477c-0.2,1.4-1.4,1.7-0.8,2.8   c0.2,0.4,0.7,0.4,1.1,0.1C210.7,479.2,210.3,478.4,209.5,477z" />
	<path fill="#8E847F" d="M285.4,317.4c-9.8-26-12.3-53.1-17.8-80.1c2.1,0,4.1-0.1,6.1-0.5c-1.3,0.9,0.7,4.8,1,5.9   c0.1-0.7,0.2-1.1,0.2-1.6c1.4,8.9,3.8,17.7,6,26.4c-1.3,1.1,1.2,7.2,1.5,8.8c0.8,3.9,1.7,7.7,2.6,11.5c-1.4,8.9-1.2,17.8,0.3,26.6   c-0.1,0.5-0.1,0.9,0.3,1.3c0,0.3,0.1,0.5,0.1,0.8C285.7,316.9,285.6,317.2,285.4,317.4z" />
	<path fill="#A29792" d="M321,472.1c-0.4,0.8-1.3,0.2-1.9,0.8c0,1.2-0.6,2.5,0.4,3.7c0,0.8,0,1.6,0,2.4c-1.4-5.8-14.2-4.6-18.4-4.7   c-10.2-0.2-20.8-2.6-30.7-5.1c-9.5-2.4-18.8-5.8-28.4-7.8c-9.6-2-20.6-1.9-29.5-6.3c2.8-6.1,15.3,0.4,20.2,1.8   c9.4,2.6,19.3,3.7,28.8,5.9c18.7,4.3,37.8,6.5,56.8,9c0.5,0.6,1.1,0.4,1.7,0.3C320.3,472.1,320.6,472.1,321,472.1z" />
	<path fill="#967164" d="M288.6,288.3c0.5,0.1,1,0.3,1.5,0.5c0.3-0.7-0.1-1.9,1.3-1.7c0.4,1.7,1.5,3.1,2.4,4.5   c-1.2,1.7-1.4-1-2.4-0.4c0.2,1.4-0.4,3.2,1.5,4.2c0.6,0.3,0.6,1,0.5,1.6c-0.4-0.1-0.8-0.1-1.1-0.2c0-0.2,0.4-0.6,0-0.6   c-0.4,0-0.3,0.5-0.3,0.8c-0.4,1.7,0,3.2,0.8,4.7c-1.6,1.4,0.1,7.9,0.3,9.7c0.4,3.9,0.7,7.8,1.2,11.7c0.8,7,1.5,14.3,3.8,21   c2.2,6.5,4.6,12.3,6.1,19.1c1.4,6.5,2.4,13.7,5.2,19.6c-0.7,0.7-0.5,1.2,0.4,1.8c0-0.5,0.1-0.8,0.1-1.2c1,1.1-0.2,1.5-0.7,2   c0,0.8,0.7,1.1,1,1.7c-0.5,0-0.7,0.1-0.7,0.6c0,0.5,0.2,0.9,0.8,0.9c-0.4,0.9,0.2,1.7,0.4,2.5c-1.5-0.1-1.6,2.5-0.2,2.2   c0.6-0.6,0.2-1.3,0.4-1.9c0.5,6.9,6.7,13.9,3.6,20.9c-2.5-0.6-2.8-3-4.1-4.5c-0.7,0.2-0.2,1.2-0.9,1.4c-0.5-2.1,1.7-3.7,1.2-5.9   c3,0.2,0.8-5.2,0.5-6.8c-0.8-0.4-1,0.5-1.6,0.3c-2.1-9-3.9-18-6.3-26.9c-2.3-8.6-5.4-16.8-7.3-25.5c-1.9-8.9-5.1-17.5-7-26.4   c-1.9-8.9-2.1-17.7-1.4-26.7c1.2,2.4,1.4,4.9,4.1,5.7C290.5,294.1,289.5,291.2,288.6,288.3z" />
	<path fill="#E9A287" d="M323.8,360.7c-0.5,0.6-0.9,1.3-0.8,2.2c-1.4-5.8-2.2-11.7-1.4-17.8c6.4-0.8,13.1,0.7,19.4,1.6   c6.6,0.9,13.1,1.8,19.7,2.1c6.2,0.3,12.7,0.5,18.8-0.5c6.3-1.1,11.9-4.5,17.4-7.5c0.1,4.3-1.2,8.1-1.4,12.1   c-8.8-0.7-17.7-1.4-26.5-1.8c-4.3-0.2-8.6-0.3-13-0.4c-3.8,0-9.9-1-13.3,0.3c-1.7-0.1-3,1.2-4.7,0.9c-0.3-0.1-0.6-0.3-0.9-0.4   c1.3-0.5,2.6-1,3.8-1.5c0-0.2-0.1-0.4-0.1-0.6c-5,0-10-0.3-15.1,1.7c1.5,0.6,2.7,0,4.3,0.1c-2.5,1.2-4.2,2.6-6,4.4   c3-0.2,5.3-1.5,7.9-2.1c0.3,0.1,0.5,0.3,0.8,0.4c-0.8,0.4-10.8,5.7-9.6,6.7C323.4,360.6,323.6,360.6,323.8,360.7z" />
	<path fill="#A29792" d="M215.3,430.5c0-2.1,0-4.1,0-6.2c0-2.1,0-4.2,0-6.2c0-1.7,0.1-3.4-0.8-4.9c0-0.6,0.1-1.3,0.1-1.9   c2.9,1.2,5.8,2.3,8.7,3.5c1.5,12.2-0.1,24.1-2.1,36.2c-3-0.1-5.6-2.2-8.5-1c-1.1-1.9-0.5-3.7,0.4-5.5c0.4-0.3,1.3,0.1,1.4-0.9   c-0.6-0.8-1,0-1.4,0.3c-1-1.7-0.3-3.3,0.4-4.9c1.9-0.1,1.5-1.5,0-0.8c-0.9-1.4-0.2-3-0.4-4.3c0.5-0.9,1.6-0.2,1.9-1   C215.2,432.1,215.4,431.3,215.3,430.5z" />
	<path fill="#A29792" d="M309.7,483.9c2.3,0.2,4.6,0.2,6.9,0.7c0.4,2.7-0.8,5-1.5,7.4c-1.7,5.7-3.3,11.5-5.5,17.1   c-3.3,8.2-5.7,16.8-10.4,24.3c-0.5,0.8-1,1.6-1.9,2c-2.1-2.1,1.7-10.8,2.4-13.4c1.3-4.8,2.8-9.6,4.1-14.4c0.8-3,7.5-22.4,3.5-23.7   C308.1,483.9,308.9,483.9,309.7,483.9z" />
	<path fill="#9491A0" d="M331.9,53.8c4.9-5.4,11.7-9.7,18.6-11.9c8.2-2.7,14.3-0.4,21.1,4.3c-0.1,0.4-0.5,0.3-0.8,0.4   c-0.9,0.2-1.8,0.1-2.8,0c-5.7-0.5-11.4,0.3-16.3,2.7c-5.6,2.7-10.9,6.4-14.1,12.2c-0.1,0.2-0.3,0.3-0.4,0.4c0.4-2.3-0.6-4-2.4-5.4   C333.8,55.7,332.9,54.7,331.9,53.8z" />
	<path fill="#A29893" d="M402.3,445.5c-0.3,1.2-0.5,2.4-0.8,3.5c-1.3,1.9-12.5-1.8-15-2.1c-5.9-0.7-11.5-1.7-17.3-2.9   c-6.5-1.4-12.9-2.6-19.3-4.3c-2.2-0.6-5.2-0.9-7.2-2.1c-1.6-1-1.3-2.6-2.2-3.5c-0.1-0.5-0.2-0.9,0.3-1.6c0.8,3.7,5.3,5.3,8.8,5.1   c1.7-0.1,2.8-1,4.4-1.2c2.1-0.2,5.1,1.1,7.1,1.6c10.3,2.3,20.4,4.5,30.8,5.8c0.6,0.5,1.3,0.3,1.9,0.4   C396.6,444.7,399.6,444.6,402.3,445.5z" />
	<path fill="#8E847F" d="M340.4,434.1c1,0.9,0.6,2.5,2.2,3.5c2,1.2,5,1.6,7.2,2.1c6.4,1.7,12.9,3,19.3,4.3   c5.8,1.2,11.5,2.2,17.3,2.9c2.6,0.3,13.7,4,15,2.1c-0.3,1.3-0.5,2.7-0.8,4c-3.2,3.4-12.3-2.3-16.2-1.9c-7.5-1.8-15-3.5-22.4-5.3   c-7.2-1.8-15.2-3-22-5.8C341,438.1,340.1,436.1,340.4,434.1z" />
	<path fill="#8E847F" d="M377.2,422.7c-7.2,2.1-14.8,2.8-22,5c-8.7,2.7-11.4-3.7-13.3-11.4c0.2-0.2,0.3-0.3,0.5-0.5   c6,1.9,12.1,3.3,18.3,4.4c4.5,0.8,9,1.8,13.7,1.7C375.3,422.6,376.5,421.9,377.2,422.7z" />
	<path fill="#908993" d="M331.9,53.8c1,0.9,1.9,1.9,2.9,2.7c1.8,1.4,2.8,3.1,2.4,5.4c-3.9,5.7-8.5,11-9.8,18.1   c-3.3-1.6-5.5-1.1-7.8-3.9c3.8-0.8,1.4-3.5,2-5.3c3.8,0.2,4.4-0.4,3.2-5.8c2-1.4,1.3-3.8,2.2-5.7C327.8,57.3,330.2,55,331.9,53.8z" />
	<path fill="#967164" d="M315.7,206.5c-2.1-1.8,3.3-5.2,5-5.2c3.8,0,7.6,7,9.2,9.7c-3.2,5.1-7.8,10.4-14.4,9.3   c-0.3-4.7-0.2-9.3,1.7-13.9C316.5,206.4,316.1,206.4,315.7,206.5z" />
	<path fill="#8E847F" d="M168.4,218.3c-0.9,1-0.3,1.6,0.5,2.1c-1.1,2-0.1,3.8,0.7,5.6c-1.1,1-0.9,2.8,0.4,4.1   c-0.3,0.4-0.9,0.4-0.6,1.2c0.4,1.1,0.9,2,1.8,2.8c-1.5,0.8-0.3,1.4,0.1,2.1c-0.3,1.2-1.9,2.5,0.2,3.5c-2.2,0.3-4.5,1.4-6.2-0.6   c-1.8-2-2-6.9-2.4-9.5c-0.7-4.9-3.4-14-0.2-18.2C166.5,213.3,165.9,215.7,168.4,218.3z" />
	<path fill="#E5CBBA" d="M401.3,242.3c-2.4-3.2-8.9-13.5-0.2-13.9c2.7-0.1,5,2.2,7.5,3c3,0.9,5.2,0,8.1-0.1c-1.2,3.9-4.1,6-7.5,7.6   C406.6,240.1,403.9,241.2,401.3,242.3z" />
	<path fill="#B18B7C" d="M376.5,152.2c6.1,1.6,12.1,2.4,16.7,7.1c5,5.1,5.4,10.4,5.9,17.2c-1.9-1.3-2.8-3.3-4.2-5   c-1.7-2.2-3.9-3.8-5.9-5.7C384.6,161.6,380.6,156.7,376.5,152.2z" />
	<path fill="#8E847F" d="M309.7,483.9c-0.8,0-1.6,0-2.4,0c4,1.2-2.7,20.7-3.5,23.7c-1.4,4.8-2.8,9.6-4.1,14.4   c-0.7,2.6-4.6,11.2-2.4,13.4c-4.4,2.3-1.8-7.8-1.3-9.2c1.6-5,2.8-10.2,3.9-15.3c1.9-8.5,6-18.9,5.2-27.7   C306.6,483.4,308.2,483.6,309.7,483.9z" />
	<path fill="#967163" d="M397.9,293.5c-0.4,6.7,4.2,14.6,6.1,20.9c2.1,6.9,4.2,15.3,3.6,22.6c-3-1.1-3-5.9-3.6-8.6   c-0.9-3.9-1.9-7.6-3.5-11.3c-1.6-3.7-3.2-6.1-3.4-10.2C397,302.5,397.4,298,397.9,293.5z" />
	<path fill="#8E847F" d="M313.7,438.6c0.6,1.8,2.1,2.4,3.8,2.7c-0.4,0.1-0.8,0-1.1,0.4c1.2,2.7,0.4,5.4-0.3,8   c-1.5,6.2-2.8,12.4-2.8,18.8c-1.8-0.3-3.8-0.2-4.7-1.9c-0.8-1.6,1.3-7.5,1.5-9.3c0.7-5.3-0.4-14.5,3.2-18.8   C313.5,438.6,313.6,438.6,313.7,438.6z" />
	<path fill="#1C1C1C" d="M377.2,422.7c-0.8-0.9-2-0.1-2.8-0.8c0.9,0,1.8,0,2.9,0c-0.3-2.1,1.3-1.5,2.5-1.7c-0.4-0.3-0.7-0.5-0.9-0.7   c2.3-0.4,4.5,0.8,6.7,0.9c4.5,0.3,9,0.1,13.5-0.6c2.4,0.9,4.7-0.2,7-0.3c1.1,0.6,2.1,0.6,3.2,0c0.3-0.1,0.8,0.1,1-0.4   c-0.6-0.4-1.2-0.2-1.8,0c0.1-0.1,0.1-0.1,0-0.2c2.5-0.7,3-0.4,3.8,2.3c-1.2,1-2.6,0.6-4,0.8c-8.6,1.5-17.2,1.7-25.8,2   c-1.6,0.1-3.2,0.5-4.7,0.8c0.6-0.8,1.8-0.4,2.4-1C379.6,422.4,378.4,422.5,377.2,422.7z" />
	<path fill="#967163" d="M320.6,432.9c0.4,0.6,1,0.3,1.6,0.4c1.7,1.4,3.3,1.3,4-0.3c1.4,1.1,3,0.9,4.5,0.3c0,0.2,0,0.3,0,0.5   c-2.4,0.6-2.4,6.5-1.6,8.3c-4.5,1.2-3.8-2.1-5.9-4.5c-3-3.4-1.2,0.8-1.6,2.5c-1.7-0.3-4.6-0.3-5.8-1.6c-1-1.1-0.9-4.6-1.7-6   c0-0.5-0.1-1-0.1-1.6c0.2,0.3,0.5,0.6,0.8,1c0.9-0.5,1.9-1.2,2.9-0.2c-0.6,0.1-1.3-0.4-1.8,0.3C317,433.7,318,433.8,320.6,432.9z" />
	<path fill="#1C1C1C" d="M451.8,364.1c6.2,1.9,12.5,3.5,18.2,6.8c4.9,2.8,9.2,6.2,11.3,11.8c-1.1,0.9-1.8,0.7-2.4-0.6   c-0.1-0.3-0.4-0.6-0.7-0.2c-3.4-5.8-8.9-9-14.9-11.4c-3.9-1.6-7.9-2.9-11.9-4.4C451.4,365.4,451.4,364.7,451.8,364.1z" />
	<path fill="#A39893" d="M313.3,468.5c0-6.4,1.3-12.6,2.8-18.8c0.7-2.6,1.4-5.3,0.3-8c0.3-0.4,0.8-0.3,1.1-0.4   c1.8,1.9,0.3,10.8,0.3,13.4c0,4.9,0.1,9.7,0.6,14.5C316.7,469.1,315,469,313.3,468.5z" />
	<path fill="#E5CBBA" d="M346.9,345c0.6,0,1.2-0.1,1.7-0.1c-0.9-3.7-3.1-7-2-11.2c6,1.4,6.6,10.9,12.1,13.3   C354.7,346.4,350.8,345.7,346.9,345z" />
	<path fill="#AE897A" d="M338.5,418c0.4-0.3,0.8-0.7,1.3-1c2.5,6.6,5.5,12.2,9.6,17.9c-4.5,1.2-8.1-2.7-9-6.8   C340.1,426.7,341.8,416.9,338.5,418z" />
	<path fill="#947062" d="M371.1,117c-1.4-0.4-1.8-1.5-1.9-2.9c0.8,0.1,1.6,0.3,2.4,0.4c1.4,0.3,15-0.7,10.9,4.4   C380.3,121.8,371.6,116.2,371.1,117z" />
	<path fill="#A79C97" d="M338.9,502.5c-1.3-4.1-0.8-8.9-0.9-13.2c-0.1-5.1-0.2-10.1-0.4-15.2c-0.2-5.2-0.2-10.4-0.2-15.6   c0-4.9-1.2-10.4-0.5-15.2c-1.1,0-2.1,0-3.2,0c-0.2-0.2,0-0.4,0.4-0.4c1.1-0.5,2.2-0.5,3.4-0.6c1,14.8,0.7,29.8,0.9,44.7   c0,2.7-0.1,5.4,0,8.2c0,0.8-0.4,1.7,0.4,2.4c0,0,0,0,0,0C338.9,499.3,338.9,500.9,338.9,502.5L338.9,502.5z" />
	<path fill="#1C1B1B" d="M293.5,350.3c-1.4-0.2-1.9,0.5-2.1,1.9c-0.5,3.7-0.9,7.4-1.9,11c-0.5-3.8-0.8-7.7-0.1-11.5   c0-0.2-0.2-0.5-0.3-0.7c0.4-3,1.9-5.6,2.5-8.5c0.5-0.2,1.1-0.4,2.1-0.9c0.3,2.8-1.3,5.1-1.5,7.6   C292.1,350.2,293.2,349.6,293.5,350.3z" />
	<path fill="#050403" d="M340,118.7c-7-2.8-8.4-9.2-9.5-15.6c-0.1-0.4-0.1-0.6-0.5-0.6c0.1-0.7,0.3-1.4,0.4-2.2   c1.2,0.3,2,0.9,2.1,2.2c0.3,6.5,3.6,11.3,8.1,15.6C340.4,118.4,340.2,118.5,340,118.7z" />
	<path fill="#957063" d="M330.8,433.7c0-0.2,0-0.3,0-0.5c2.3,0.7,4.8,0,7,1.1c0.7-1.8-0.3-3.6,0.7-5.2c0.2,2.5,1.2,10.1-1.5,11.1   C332.1,442.1,334.4,434,330.8,433.7z" />
	<path fill="#947062" d="M377.4,110.2c2.8-1.1,7.8,0.2,5.6,3.8c-1.6-1.3-3.1,0.9-4.7,0.2c-2.5-0.7-5.2-0.1-8.3-0.7   C372.9,112.7,374.8,110.7,377.4,110.2z" />
	<path fill="#967164" d="M309.2,409.3c0.6,3.4-0.6,6.9-0.1,10.4c0.4,2.5,0.8,8.1,2.6,9.9c-1.6-0.2-2.4-1.4-3.2-2.6   c-0.7-3.5-2-6.8-1.5-10.5C307.3,414,308.1,411.6,309.2,409.3z" />
	<path fill="#947062" d="M328,85.4c2.2,3.9-1.1,4.7-0.6,8.2c-1.7-1.3-5.1-0.9-5.1-4c0-2.7,2.5-1.9,4.2-3.4   C327.1,85.9,327.5,85.7,328,85.4z" />
	<path fill="#0C0807" d="M338.1,352c1.7,0.2,3.1-1.1,4.7-0.9c2,0.8,4.1,0.8,6.2,0.9c2.1,0.1,4.3-0.6,6.4,0.4   c-5.6-0.2-10.9-0.8-16.4,0.9c-5.5,1.8-10.7,4-15.3,7.4c-0.2,0-0.5,0-0.7-0.1c-1.2-1,8.8-6.3,9.6-6.7   C334.5,353.2,336.3,352.6,338.1,352z" />
	<path fill="#947062" d="M312.5,433.7c-1.1,1.3-0.1,2.9-0.8,4.3c-3.9,1.2-5.6-5.1-2.8-7.2c0.6-0.3,0.1-1,0.7-1.3   C311.2,430.2,314,431.9,312.5,433.7z" />
	<path fill="#040403" d="M174.2,242.2c1.7,0.3,2.4,1.4,2.6,3c0.3,1.8,0.8,3.7,1.2,5.5c0.2,1.6,0.3,3.2,0.5,4.9   c-4.6-0.4-2.4-12.4-5.7-12.6C173.1,242.5,173.6,242.3,174.2,242.2z" />
	<path fill="#1E1D1D" d="M402.3,445.5c-2.8-0.9-5.7-0.8-8.6-1.3c-0.6-0.1-1.3,0.1-1.9-0.4c1.4,0.1,2.6,0,3.2-1.5   c-0.9-0.4-2,0.3-2.8-0.6c2.7-0.2,5.2,0.7,7.8,0.9c0.9,0.1,1.7-0.1,2.6-0.1C404.7,443.8,403.2,444.6,402.3,445.5z" />
	<path fill="#926E61" d="M328,95.1c-1,0.1-1,0.9-0.8,1.5c0.4,1.3,0.3,2.5,0.3,3.8c-3.5-2.1-5.9-5-6-9.3   C322.8,93.7,325.9,93.6,328,95.1z M324.3,95.2c0.1,1.4,1.1,2.2,2.2,2.9C326.3,96.8,325.5,95.8,324.3,95.2z" />
	<path fill="#A29793" d="M285.1,288c-0.9-3.8-1.8-7.7-2.6-11.5c-0.3-1.6-2.8-7.7-1.5-8.8c1.5,5.1,3,10.2,4.6,15.3   C286.1,284.8,286.1,286.4,285.1,288z" />
	<path fill="#906D5F" d="M328,85.4c-0.5,0.3-0.9,0.6-1.4,0.8c0.6-3.3-5.6,0.8-5.6,2.4c-1.1-1.9-0.5-4.9,1.8-5.8   C324.8,81.9,326.6,83.5,328,85.4z" />
	<path fill="#ECECEC" d="M399.9,322.8c2.1,3.1,2,6.9,3.1,10.4c-3.9-1.2-3.1-5.2-3.5-8.8C399.8,323.9,399.4,323.2,399.9,322.8z" />
	<path fill="#15100E" d="M377.4,110.2c-2.5,0.6-4.4,2.6-7.5,3.3c3.1,0.6,5.8,0,8.3,0.7c-2.2,0.4-4.4-0.5-6.5,0.4   c-0.8-0.1-1.6-0.3-2.4-0.4c-0.5,0-1.1,0-1.6-0.1c0.4-0.6,1.2-0.1,1.7-0.6c-0.2-0.2-0.3-0.5-0.4-0.7c1.1,0,1.9-0.8,2.7-1.4   c1.5-1.1,3.1-1.8,4.9-1.9C376.7,110.1,377,110.1,377.4,110.2z" />
	<path fill="#0C0A09" d="M373.6,157.7c-0.6-0.3-5.7,2.9-6.8,3.1c0.4-3,4.6-2.5,5.2-4.9C372.6,156.5,373.1,157.1,373.6,157.7z" />
	<path fill="#29201C" d="M279.3,184.6c0,2.1-0.6,5.3,0,7.3c0.5,1.6,2.4,2.4,1.4,4.4c-0.7,0.4-0.7-0.7-1.3-0.4   c-0.4,1.5,0.3,3.1-0.5,4.5c0-4.8,0-9.7-0.1-14.5C278.9,185.5,278.9,185,279.3,184.6z" />
	<path fill="#937164" d="M326.7,82.2c2.5,0.6,4,2.4,4.6,4.8c0.4,1.3,0.3,2.5-1.1,3.2c0.7-2.6,0.1-4.7-2-6.4   C327.6,83.4,327.2,82.8,326.7,82.2z" />
	<path fill="#1F1815" d="M312.5,433.7c1.5-1.7-1.3-3.5-3-4.2c-0.6,0.3-0.1,1.1-0.7,1.3c-0.1-1.2-0.2-2.5-0.3-3.7   c0.8,1.2,1.5,2.4,3.2,2.6c0.8,0.4,1.6,0.8,2.4,1.2c0,0.5,0.1,1,0.1,1.6C313.6,432.8,313.5,433.8,312.5,433.7z" />
	<path fill="#161514" d="M171.6,239.7c-2.1-1-0.6-2.3-0.2-3.5c0.1,0,0.2,0,0.3-0.1c0.4,0,0.8,0.1,1.2,0.1c0.2,1.1,0.2,2.2-0.6,3.2   c0.4,0.5,1,0.1,1.4,0.4C172.9,240.3,172.2,240.3,171.6,239.7z" />
	<path fill="#927367" d="M381.8,82.7c1.1-2.2,2.7-2.6,4.5-2.8c0.3,0.8-0.2,1.4-0.1,2.1c-0.8,0.1-0.8-0.7-1.5-0.8   C385.2,84.7,382.9,81.7,381.8,82.7z" />
	<path fill="#9C7C70" d="M381.8,89.3c2.1,0.2,2.3,0.5,2.4,5.6C382.9,93.1,382.1,91.4,381.8,89.3z" />
	<path fill="#9F9590" d="M274.9,241.3c-0.1,0.4-0.1,0.9-0.2,1.6c-0.4-1.1-2.3-5-1-5.9c0.8-0.5,0.9,0,0.9,0.6   C274.7,238.8,274.8,240,274.9,241.3z" />
	<path fill="#B6B6B6" d="M313.4,293c-0.2,1.1-0.3,2.3-0.5,3.4c-0.4,0.3-0.2,1-0.7,1.2c-0.8-2.3,0.4-4.3,0.8-6.4   C313.5,291.7,313.3,292.4,313.4,293z" />
	<path fill="#A29389" d="M367.6,147.8c-0.3,0.1-0.7,0-0.8,0.4c-1.8-0.6-3.6-1.3-5.4-1.9c0.1-0.2,0.1-0.4,0.2-0.5   C363.6,146.1,365.7,146.6,367.6,147.8z" />
	<path fill="#A29792" d="M338.9,497.6c-0.8-0.7-0.4-1.6-0.4-2.4c0-2.7,0-5.4,0-8.2c0.7,2.2,0.2,4.5,0.4,6.8   C338.9,495.1,338.9,496.4,338.9,497.6z" />
	<path fill="#A49994" d="M210.9,392c0,1.5,0,2.9,0,4.4c-0.8-1.5-1.3-3-0.3-4.5C210.7,391.9,210.8,391.9,210.9,392z" />
	<path fill="#ACACAC" d="M313.4,293c-0.1-0.6,0.2-1.3-0.4-1.8c0.1-1.1,0.3-2.2,1-3.2C314.1,289.7,313.8,291.3,313.4,293z" />
	<path fill="#262626" d="M335,40c0.8-1.4,1.5-1.5,3.2-0.5C337.1,39.7,336.1,39.9,335,40z" />
	<path fill="#251D1A" d="M334,83.8c0.3,0.6,1,0.2,1.6,0.9c-1.5,0.2-2.7,1.1-3.8-0.5C332.7,84.7,333.4,84.1,334,83.8z" />
	<path fill="#8B695C" d="M327.5,100.4c1.1-0.1,1.5-1.1,2.3-1.5c0.7,0.1,0.5,0.7,0.5,1.1C329.3,99.7,328.6,101.5,327.5,100.4z" />
	<path fill="#2D231F" d="M313.7,438.6c-0.1,0-0.2,0-0.3,0c0-1.1-0.2-2.3,0.2-3.7C314.7,436.3,313.6,437.4,313.7,438.6z" />
	<path fill="#5D5754" d="M285.4,317.4c0.1-0.3,0.2-0.5,0.4-0.8c0.7,0.8,0.3,1.9,0.6,2.9C285.7,319,285.5,318.2,285.4,317.4z" />
	<path fill="#2A2A2A" d="M308.4,32.8c-0.7,0.5-1.2,0.5-2,0C307.1,31.8,307.7,32.1,308.4,32.8z" />
	<path fill="#4E4C54" d="M370.8,46.5c0.3-0.1,0.6,0,0.8-0.4c0.8,0,1.3,0.5,2.2,1.4C372.5,47.3,371.6,47.2,370.8,46.5z" />
	<path fill="#363636" d="M399.1,322.3c-0.6-1-0.4-2.2-0.9-3.7c1,0.9,1.1,1.8,1.3,2.5C398.9,321.4,399.2,322,399.1,322.3z" />
	<path fill="#1C1B1B" d="M289.5,363.2c-0.1,1.6,0.2,3.3-0.4,4.9C289.2,366.5,288.6,364.8,289.5,363.2z" />
	<path fill="#A29792" d="M338.9,502.5c0-1.6,0-3.3,0-4.9C339.4,499.3,339.5,500.9,338.9,502.5z" />
	<path fill="#2E2E2E" d="M321.8,31.9c-1.2,0.7-1.5,0.1-1.9-0.6C320.9,30.5,321.2,31.3,321.8,31.9z" />
	<path fill="#322824" d="M385,193.9c-0.5-0.5-1-0.9-1.2-1.7c0.8,0,1.3,0.2,1.5,1C385.2,193.4,385.1,193.7,385,193.9z" />
	<path fill="#212121" d="M367.8,29.5c-0.2,0.9-0.7,1-1.4,1C366.7,29.8,366.7,29,367.8,29.5z" />
	<path fill="#C1C1C1" d="M399.1,322.3c0.1-0.4-0.2-0.9,0.4-1.1c0.1,0.5,0.3,1,0.4,1.6c-0.5,0.5-0.2,1.1-0.4,1.6   C399.4,323.7,399.2,323,399.1,322.3z" />
	<path fill="#937164" d="M327.6,81.7c-0.4,0.1-0.7,0.1-0.9,0.5c-0.5-0.3-1-0.6-1.5-0.9c0.1-0.1,0.2-0.3,0.4-0.4   C326.2,81.2,326.9,81.5,327.6,81.7z" />
	<path fill="#2C2C2C" d="M351,19.8c0.9,0.3,1.5,0.4,1.7,1.2C351.9,21.1,351.5,20.7,351,19.8z" />
	<path fill="#513E37" d="M325.5,80.9c-0.1,0.1-0.3,0.3-0.4,0.4c-0.7-0.2-1.4-0.3-2.1-0.5C323.9,80.7,324.7,80.2,325.5,80.9z" />
	<path fill="#272727" d="M323.2,22.2c-0.1-0.2-0.3-0.4-0.4-0.6C322.7,20.6,324.6,22.2,323.2,22.2z" />
	<path fill="#C9C9C9" d="M382.1,87.3c-1.2-0.5-1-1.3-0.5-2.6C381.8,85.9,382,86.6,382.1,87.3z" />
	<path fill="#050403" d="M330,102.5c-0.7,0.9-1.6,0.9-2.6,0.4C328.3,102.8,329.1,102.6,330,102.5z" />
	<path fill="#7E6358" d="M336.4,81.4c0,0.2,0,0.3,0,0.5c-0.5,0.1-1.1,0.2-1.9,0.4C334.9,81,335.8,81.4,336.4,81.4z" />
	<path fill="#2C2C2C" d="M298,18.1c-0.6,0-0.7-0.3-0.8-0.8C297.8,16.9,298.6,17.6,298,18.1z" />
	<path fill="#2A2A2A" d="M304.5,59.2c0,0.1,0.7,1.2-0.2,1C304,59.8,304.1,59.4,304.5,59.2z" />
	<path fill="#525252" d="M312.1,297.6c0.6-0.2,0.4-0.9,0.7-1.2c0.1,0.5,0.2,1.1-0.2,1.5C312.2,298.5,312.1,298,312.1,297.6z" />
	<path fill="#4B403A" d="M342.5,415.9c-0.2,0.2-0.3,0.3-0.5,0.5c-0.4-0.3-0.5-0.6-0.5-1C342.1,415,342.3,415.5,342.5,415.9z" />
	<path fill="#27262A" d="M378.5,41.2c-0.4,0.3-0.6,0.2-0.6-0.3C378.3,40.6,378.5,40.7,378.5,41.2z" />
	<path fill="#634E45" d="M336,79.4c-0.2,0.2-0.4,0.3-0.5,0.3C335.1,79.1,335.4,79,336,79.4z" />
	<path fill="#323232" d="M358.7,24c0.3,0.2,0.3,0.4-0.2,0.6C358.3,24.3,358.4,24.1,358.7,24z" />
	<path fill="#8E847F" d="M319.9,472.1c-0.6,0.1-1.2,0.2-1.7-0.3C318.8,471.8,319.4,471.8,319.9,472.1z" />
	<path fill="#5D5754" d="M285.7,315.9c-0.4-0.3-0.4-0.8-0.3-1.3C285.8,315,285.8,315.4,285.7,315.9z" />
	<path fill="#F6EECF" d="M464.4,581.9c-3.7,1.3-7.1,3.1-9.2,6.5c-1.1,1-1,2.1-2.3,3.1c-0.9,0.7-3.3,0.8-4.2,1   c-4.1,0.7-8.2,0.7-12.3,0.4c-8.7-0.5-16.6-1.9-25.1-4.1c-4.1-1.1-6.6-0.8-8.2-4.7c-1.1-2.8-1.9-4.6-5.5-4.6c-2,0-3.6,1.1-5.5,1.6   c-2.2,0.5-4.4,0.6-6.6,0.9c-4.2,0.7-8.1,1.6-12.4,0.9c1.1-3.3-0.1-6.5,0.6-9.7c0.7-3.1,2.9-5.3,4-8.3c1.1-3.3,1.8-6.9,2.2-10.4   c0.2-1.7-0.8-7.1,1.1-7.9c3.5,4.1,8.4,2.1,13,2.7c6,0.7,11.9,1.6,17.9,2.4c-0.4,0.6-3,3.3-1.6,4.2c1,0.6,1.8-1.2,2.3-1.6   c3.2-2.1,5.9-2.1,9.6-1c-1.3,0.9-4.9,2.6-5.3,4.3c-0.7,2.9,1.2,1.2,2.4,0.6c2.2-1.1,4.4-3.8,6.9-4c2.6-0.2,3.2,1.5,4.8,3.5   c-2.9,0.9-11.3,3.6-8.6,8c1.5-2,7.5-6.9,10.3-6c1.6,0.5,3.2,3.1,4.5,4.1c1.7,1.5,3.4,2.8,5.4,3.9c2,1.2,4.2,1.8,6.2,2.8   c1.9,0.9,3,2.5,4.8,3.6c3,1.9,7.8,0.1,9.9,3.6c0,0.9,0.8,1.5,1.2,2.2C465.2,580.9,465,581.4,464.4,581.9z M427.6,567.9   c1.2,0.1,10.7-1.8,8.7-3.7C434.7,562.8,427.6,565.5,427.6,567.9z" />
	<path fill="#F6EECF" d="M467.1,577.5c-2.5-1-3.5-3.2-6.2-3.9c-3-0.8-6.1-0.4-7.9-3.3c1.2-4.2,2.5-8.4,3.3-12.7   c11.9,1.6,23.9,3.3,35.8,4.8c5.9,0.8,11.9,1.4,17.9,2.1c1.1,0.1,2.2,0.1,3.2,0.4c0.4,0.1,0.6,1.1,1.1,1.2c2.1,0.5,5.1-0.4,7.4-0.1   c4.6,0.7,9.8,0.6,14,2.8c2,1,3.7,2.4,5.7,3.3c1.6,0.8,5.2,1.3,6.5,2.7c5.8,6.2-14,12.9-18,13.6c-3.6-0.1-5.7-2.7-9.4-2.8   c-3.7-0.1-7.4-0.4-11.1-0.9c-7.9-1.2-14.4-6.1-22.5-5.6c0.4-4.1-1-5.3-5.2-4.6C477,575.1,471.8,576.2,467.1,577.5z M546.8,575.4   c-2.8-1.3-7.5,2.6-7.3,5.9C541.9,579.1,544.2,577.3,546.8,575.4z" />
	<path fill="#D59379" d="M492.7,408.5c1.2,0.9,4-0.1,5.5,0.3c0.1,0,3.6,1.5,3.6,1.5c-0.2,0.8-0.8,0.7-1.5,0.7   c-1-1.3-14.6,1.7-16.2,2.6c2,1.3,4,0.5,5.8,0.7c-0.8,0.6-2.1,0.5-2.6,2.1c3.8,0.5,7.6,1,11.4,1.4c0,0.2,0,0.4,0,0.7   c-2.7,2.2-6,2.1-9.3,2.3c0.7-1.2-6.5-2.8-7-1.3c1,1.7,2.9,1.1,4.3,1.7c-6.7-1.1-8.2,18.4-8.8,22.7c-0.7,4.9-2.1,9.9-1.9,14.9   c0.2,5,1.3,10,1.8,14.9c0.5,5.2,1,10.5,0.6,15.8c-0.2,2.3-1.3,5.2-1.1,7.5c0.2,1.4,1,2,1.1,3.6c0.1,4.8-1.6,10-2.6,14.6   c-1.1,5.3-1.9,10.6-3.3,15.8c1.5,0.9,3.4-0.2,4.8,0.8c-4-0.2-8,0-12.1-1.1c2.5-14,6.4-28,6.4-42.3c0.5-2.2,0.7-4.5,0.8-6.7   c0.3-8.4-1.9-16.4-3.6-24.5c-0.3-8.7,1.9-17.6,4-26c0.8-2.9,9.7-16.4,7.3-17.7c-0.1-0.6,0.3-0.8,0.9-0.8   C485.2,412.2,489.1,410.8,492.7,408.5z" />
	<path fill="#D59379" d="M434,418.7c-5,7.2-15,10.7-19.2,18.6c-5,9.5-6.9,21.4-9,31.8c-1.1,5.5-1.5,10.7-1.9,16.3   c-0.5,5.8-3.2,10.9-3.8,16.5c-1.2,10.3-6.5,19.9-7.4,30.3c-1.6-0.1-3.2-0.1-5-0.5c2.9-4.1,2.1-11.5,3.5-16.3   c1.6-5.5,1.9-10.9,3-16.5c1.2-5.7,3.1-11.3,4.2-17.1c1.2-6.2,1.6-12.4,2.4-18.6c0.7-5.8,2.3-11.4,3.7-17c1.3-5.3,2.5-11,5.5-15.7   c1.3-2,3-3.7,4.5-5.5c1.5-1.7,2.6-4.8,4.2-6.2c1.1-1,10.4-4.9,10-5.3c0.6-0.4,1.3-0.9,2.1-0.4c-0.2,0.7,0.3,0.8,0.8,0.8   c0.9,0,1.9,0,2.8,0c1,0.1,2,0.2,2.9-0.3c0.4,0,0.8,0,1.2,0c2.2,1,10.7-1.6,11.6,0.3c-4.2,2.6-9.4,2-13.7,4.2   c-2.5-0.4-4.9-1.3-7.4-1C430.4,418.2,432.4,417.9,434,418.7z" />
	<path fill="#EADCB7" d="M381,546.6c-1.8,0.7-0.9,6.1-1.1,7.9c-0.4,3.5-1.1,7.1-2.2,10.4c-1,2.9-3.3,5.2-4,8.3   c-0.7,3.3,0.5,6.4-0.6,9.7c4.3,0.7,8.2-0.2,12.4-0.9c2.2-0.4,4.4-0.4,6.6-0.9c1.9-0.5,3.5-1.6,5.5-1.6c3.6,0,4.3,1.8,5.5,4.6   c1.6,3.9,4.1,3.6,8.2,4.7c8.5,2.2,16.4,3.7,25.1,4.1c4.1,0.2,8.2,0.2,12.3-0.4c0.9-0.2,3.3-0.3,4.2-1c1.3-1,1.2-2,2.3-3.1   c0.1,0.5-0.4,0.9,0.1,1.6c3.4-2.9,6.5-6.2,11.4-6.6c-0.3,1.4-0.8,2.6-0.8,3.8c-0.1,3-1.9,4.3-4.4,5.5c-8.7,4.4-17.8,6.1-27.6,4.9   c-5.9-0.7-11.8-1.1-17.6-2.5c-5.7-1.4-11.1-3.3-15.1-8c-1.9-2.2-4-2.9-7.1-2.6c-8.2,0.9-16.5,1.1-24.8-0.7c-3.2-0.7-4.3-3.4-2.3-6   c2.7-3.5,3.5-7.8,4.7-11.9c1.7-5.7,1.3-11.8,2.8-17.5c0.5-2,0.8-4,1.4-5.9c0.9-2.8,3.2-3.8,5.7-2.5   C380.3,542.2,380.2,544.4,381,546.6z" />
	<path fill="#EADCB7" d="M467.1,577.5c4.7-1.3,9.9-2.4,14.7-3.1c4.1-0.6,5.6,0.5,5.2,4.6c8.2-0.5,14.7,4.5,22.5,5.6   c3.7,0.6,7.4,0.8,11.1,0.9c3.7,0.1,5.8,2.7,9.4,2.8c-7.9,2.9-19.4,2.6-27.5,0.5c-4.2-1.1-7.8-2.1-11.4-4.4   c-4.1-2.6-7.8-2.3-12.6-2.2c-0.5-0.6-1.2-0.4-1.9-0.4c-2.4-0.1-4.7,0.9-7,1.2C469.8,580.8,468.3,579.2,467.1,577.5z" />
	<path fill="#A29792" d="M429.6,494c1.5-4.5,4.5-8,7.6-11.9c0.7,15.8,2,31.1,3.9,46.5c-1.2,0.2-2.1,0.2-3-0.2   c-3.7-0.5-3.3-10.2-3.9-13.1C432.6,508.3,430.7,501.2,429.6,494z" />
	<path fill="#D59379" d="M483.4,393.2c3.9,1,7.8,2.3,10.8,5.1c1.2,1.1,2,3,3.4,3.8c1.6,0.9,3.8-0.4,5.6,1c-0.7,3.2-6.9,0.9-5.1,5   c-1.6-0.2-3.1,0.3-4.5-0.3c0.1-0.5,0.9-0.7,0.5-1.5c-2.8,0.5-5.5,2.1-8.3,3c-1.7,0.5-6.7,0.8-7.2,2.9   C476.2,412.3,482.7,395.5,483.4,393.2z" />
	<path fill="#8E847F" d="M429.6,494c1.1,7.2,3.1,14.2,4.6,21.3c0.6,2.9,0.1,12.6,3.9,13.1c-3.1,0.2-5.8,0.5-7.3-2.6   c-1.3-2.8-1.9-7.3-2.7-10.3c-0.9-3.6-2-7.6-2.5-11.3C425.2,500.3,427.6,497.5,429.6,494z" />
	<path fill="#1C1C1B" d="M468.9,457.1c1.7,8.1,3.9,16.1,3.6,24.5c-0.1,2.3-0.3,4.5-0.8,6.7c-0.6,0.5-1.3,0.1-1.9-0.1   c-0.4,1,0.3,2.1-0.5,2.9c0-5.3,0-10.6-0.1-15.9c0-3.2-1.1-6.4-0.8-9.6c1-0.1,1-1,0.7-1.5C468.1,461.8,468.3,459.5,468.9,457.1z" />
	<path fill="#1F1D1D" d="M478.5,412.2c0.6-2.1,5.5-2.4,7.2-2.9c2.8-0.9,5.5-2.4,8.3-3c0.4,0.8-0.4,1-0.5,1.5   c-0.3,0.2-0.6,0.5-0.9,0.7c-3.6,2.3-7.4,3.7-11.7,4.1c-0.5,0-0.9,0.2-0.9,0.8C479.6,413,479,412.6,478.5,412.2z" />
	<path fill="#E8DAB6" d="M456.3,557.6c-0.8,4.3-2.1,8.5-3.3,12.7c-3.1-0.8-1.3-5.6-0.8-7.5C453.1,559.6,453.1,557.8,456.3,557.6z" />
	<path fill="#E8E1C4" d="M416.6,534.4c-3.8-0.4-7.3-0.7-10.9-1c2-2.9,3.6-2,6.3-1.2C413.7,532.7,415.7,532.5,416.6,534.4z" />
	<path fill="#DC9A80" d="M418.2,414.7c-0.3-1.6,1.3-1.4,1.9-2.1c0.4,0.6,0.6,1.8,1.4,0.4c0.7-0.4,1.3-0.8,2-1.2   c1.5,0.1,3-0.1,4.5-0.4c0.7-0.1,1.5-0.3,2,0.4c-0.1,0.1-0.2,0.1-0.3,0.1c-0.6,0-1.3-0.3-1.7,0.4l0,0c-0.8,0.1-1.7-0.3-2.5,0.4   c-1.6,1.3-3.6,1.9-5.5,2.5C419.4,415.3,418.6,415.8,418.2,414.7z" />
	<path fill="#544139" d="M429.6,411.8c0.1,0,0.2,0,0.3-0.1c3.6-1.2,6.9-3,10.2-4.8c0.2,0,0.5-0.1,0.7-0.1c0.3,0.1,0.5,0.3,0.8,0.4   c-0.4,0.3-0.8,0.5-1.2,0.8c-3,1.4-6.1,2.7-8.9,4.5c-0.2,0.3-0.4,0.4-0.7,0.4c-0.8-0.6-1.4,0-2.1,0.4c-0.6-0.1-1.2-0.3-1.6-0.8   c0.3-0.1,0.7,0,0.9-0.4c0,0,0,0,0,0C428.5,412.1,429.1,412.3,429.6,411.8z" />
	<path fill="#ECE4C6" d="M469.6,583.1c2.4-0.3,4.6-1.3,7-1.2c0.6,0,1.4-0.2,1.9,0.4c-2.7,1.1-5.5,1.5-8.4,1.6   C469.6,583.9,468.7,584.1,469.6,583.1z" />
	<path fill="#DFD7BC" d="M495.1,528.9c-0.1,0.8,4.1,5.5,0.1,4.5C493.8,533,493.7,529.3,495.1,528.9z" />
	<path fill="#D9CDAB" d="M464.4,581.9c0.6-0.5,0.8-1,0.4-1.8c-0.4-0.7-1.2-1.3-1.2-2.2c1.4,1.1,3.3,1.8,3.2,4.1   C466,581.9,465.2,581.9,464.4,581.9z" />
	<path fill="#443F3D" d="M413.4,418.3c0.9-1.1,1.9-1.9,3.7-1.9C415.8,417.4,414.6,418,413.4,418.3L413.4,418.3z" />
	<path fill="#777777" d="M409.3,419.6c-1.1,0.5-2.1,0.6-3.2,0c0.8-0.2,1.6-0.4,2.3-0.6c0.1,0.1,0.1,0.1,0,0.2   C408.6,419.6,409,419.5,409.3,419.6z" />
	<path fill="#4E4946" d="M414.1,421.5c0.3-0.8-0.2-0.8-0.7-0.7c0.7-0.4,1.3-0.8,2-1.2C415.1,420.4,414.9,421.2,414.1,421.5z" />
	<path fill="#D59379" d="M428,412.2c-0.2,0.4-0.5,0.4-0.9,0.4c-0.5,0-1.1,0-1.6-0.1C426.2,411.9,427.1,412.3,428,412.2z" />
	<path fill="#443F3D" d="M413.3,418.3c-0.2,0.4-0.5,0.4-0.9,0.1C412.8,418.3,413.1,418.3,413.3,418.3   C413.4,418.3,413.3,418.3,413.3,418.3z" />
	<path fill="#0B0A0A" d="M169.6,226c-0.8-1.8-1.8-3.6-0.7-5.6c1.8,0.6,2.9,4.5,1.6,5.8C170.1,226.4,169.9,226.1,169.6,226z" />
	<path fill="#0F0E0E" d="M171.2,234c-0.9-0.8-1.4-1.7-1.8-2.8c-0.3-0.8,0.3-0.9,0.6-1.2C172.4,231.2,172.7,232.4,171.2,234z" />
	<path fill="#8E847F" d="M172.8,236.2c-0.4,0-0.8-0.1-1.2-0.1C172.1,235.6,172.5,235.5,172.8,236.2z" />
	<path fill="#D59378" d="M424.7,438.6c2.1-2.1,1.2-6.3,2.9-8c2-2,3.3-0.3,3.6,2.1c1.2,0.2,1.9-1.6,3-0.8   c-6.1,14.5-14.4,27.9-19.8,42.8c-5.3-3.7,0.4-13.7,2.1-18.2c1.2-3.2,2.4-6.5,3.9-9.6C421.6,444.6,422.9,440.3,424.7,438.6   c-0.7,2.5-0.7,5-0.1,7.5C425.1,445.2,427.4,438.5,424.7,438.6z M421.4,452.5c1.1-1.6,1.2-3.3,0.4-5   C420.7,449.1,421,450.8,421.4,452.5z M418.7,460.6c0.5-1.7,0.6-2.9,0-4.6C417.9,457.7,417.9,459,418.7,460.6z M428.5,433.5   c-0.3,1.1-0.4,1.8,0.4,2.4C429.5,435,429.6,434.4,428.5,433.5z M416.5,463.9c-0.3,0.8,0.1,1.1,0.8,1.2   C417.4,464.4,417.3,463.9,416.5,463.9z" />
	<path fill="#D29277" d="M431.6,412.6c2.8-1.9,5.9-3.1,8.9-4.5c0.1,0.9,0,1.7-0.2,2.6c0.4,0.5,1,0.3,1.5,0.4c0,0.1-0.1,0.2-0.1,0.3   C438.3,411.8,434.9,412.2,431.6,412.6z" />
	<path fill="#23201F" d="M431.6,412.6c3.4-0.4,6.7-0.9,10.1-1.3c0.2,0.2,0.3,0.3,0.5,0.5c-1.2,0.6-2.4,1.1-3.6,1.7   c-0.4,0-0.8,0-1.2,0c-1,0-2-0.3-2.9,0.3c-0.9,0-1.9,0-2.8,0c-0.5,0-0.9-0.1-0.8-0.8C431.2,413,431.4,412.9,431.6,412.6z" />
	<path fill="#59433A" d="M434,418.7c-1.6-0.8-3.6-0.5-5.1-1.7c2.6-0.3,5,0.6,7.4,1c0.2,0.3,0.9,0.2,0.7,0.9   C436.1,418.8,435,418.7,434,418.7z" />
	<path fill="#242120" d="M464.6,420.5c0.2,1.5,0.2,2.8-0.5,4.3C463,423.1,463.2,421.9,464.6,420.5z" />
	<path fill="#886355" d="M441.6,407.3c-0.3-0.1-0.5-0.2-0.8-0.4c0.8-0.7,1.8-0.9,3.4-1.3C443.2,406.6,442.5,407,441.6,407.3z" />
	<path fill="#58433B" d="M464.2,414.5c0.7,0.9,0.8,1.5,0.1,2.2C463.4,416.1,463.6,415.5,464.2,414.5z" />
	<path fill="#5E473E" d="M442.1,411.8c-0.2-0.2-0.3-0.3-0.5-0.5c0-0.1,0.1-0.2,0.1-0.3c0.4,0,0.9,0,1.3-0.1   C443,411.6,442.5,411.7,442.1,411.8z" />
	<path fill="#E5CBBA" d="M347,237.7c-2.9-1.2-3.9-3.7-5.8-5.9c-2.1-2.5-3.3-2.6-1.1-6.2c5.1-8.3,9.1-0.9,13.5,3.2   c5.9,5.6,11.3,7.1,19.2,7.7c3.7,0.3,7.1-0.4,10.8-0.8c1.1-0.1,8.4-1.3,6.5,1.2c-0.8-3.2-2.6,1.6-0.8,1.2c-0.4,0.8-1.5,0-2,0.8   c-1.2,0.1-2.2,0.6-3.2,1.2c-11,6.3-25.6,5.1-35.6-2.8c-0.5-0.4-0.8-0.9-1.5-0.8C346.7,236.9,347,237.3,347,237.7z M342.9,231.1   c0.2,1.6,1,2.4,2.5,3C344.9,232.6,344.5,231.6,342.9,231.1z" />
	<path fill="#010101" d="M347,237.7c0-0.4-0.3-0.8,0.1-1.1c0.7-0.1,1.1,0.4,1.5,0.8c10,7.9,24.6,9,35.6,2.8c1-0.6,2-1.1,3.2-1.2   c3,2-2.3,3.8-4.3,4.8c-4,2-8.4,3.2-12.9,3.3C362,247.3,352.1,244.5,347,237.7z" />
	<path fill="#0B0A09" d="M385.6,314.5c2.7,4.2,2.5,11.1-0.8,12.8C386.3,323,384.2,318.8,385.6,314.5z" />
	<path fill="#E6CCBB" d="M348.6,310.7c-2.6,0-5.4,0.2-7.5-2C344,307.7,346.3,309.4,348.6,310.7z" />
	<path fill="#11100F" d="M385.6,311.2c-1.6-2.6-1.6-4.8-0.1-6.2C386.9,306.6,387,309.7,385.6,311.2z" />
	<path fill="#2D2926" d="M389.5,238.1c-1.8,0.3,0-4.4,0.8-1.2C390,237.3,389.7,237.7,389.5,238.1z" />
	<path fill="#191716" d="M386.7,299.9c0.4,1.4,0.5,2.2-0.2,3.2C385.5,302.1,385.7,301.3,386.7,299.9z" />
	<path fill="#655D57" d="M387.9,285.4c0.9,0.8,1.4,1.4,0.9,2.5C387.7,287.5,387.6,286.7,387.9,285.4z" />
	<path fill="#706761" d="M388,294.7c-0.9-0.8-1.5-1.3-0.8-2.2C388,292.9,388,293.6,388,294.7z" />
	<path fill="#967264" d="M293.4,297c0.1-0.6,0.1-1.3-0.5-1.6c-1.9-1-1.2-2.7-1.5-4.2c1-0.6,1.2,2.1,2.4,0.4c1.3,1.6,2.1,3.5,3.1,5.4   c0.8,1.5,0.5,3,0,4.3c-0.5,1.6-1.9,0-2.8,0.4C294.5,300,294,298.5,293.4,297z" />
	<path fill="#110D0C" d="M293.4,297c0.6,1.5,1.1,3,0.8,4.7c-0.5,0.5-1,0.3-1.5,0c-0.7-1.5-1.2-3-0.8-4.7c0.1-0.1,0.2-0.1,0.4-0.2   C292.7,296.8,293,296.9,293.4,297z" />
	<path fill="#100C0B" d="M320.6,432.9c-2.7,1-3.6,0.8-4.7-1c0.5-0.7,1.2-0.1,1.8-0.3c0.7,0.1,1.4,0.2,2.1,0.3   C320.4,432,321,432.1,320.6,432.9z" />
	<path fill="#171210" d="M284.1,245.8c-1.9-6.4,4.1,1.4,0.5,0.8C284.4,246.3,284.2,246.1,284.1,245.8z" />
	<path fill="#1D1714" d="M326.2,432.9c-0.7,1.7-2.3,1.8-4,0.3C323.5,432.1,324.8,432.5,326.2,432.9z" />
	<path fill="#201917" d="M307.5,282.4c1.2,1.2,1.1,2.4,0.9,3.8C306.6,285.2,306.3,283.9,307.5,282.4z" />
	<path fill="#211A18" d="M308.7,158.2c2-0.6,3.4-0.4,5.1,1C311.8,159.6,310.3,159.6,308.7,158.2z" />
	<path fill="#2F2521" d="M310.6,391.5c-0.1,0.6,0.2,1.4-0.4,1.9c-1.4,0.3-1.2-2.3,0.2-2.2C310.5,391.3,310.5,391.4,310.6,391.5z" />
	<path fill="#3F322D" d="M323.3,200.5c-0.1,2-1.6-0.3-1.3-0.3C322.2,200.3,323.2,199.3,323.3,200.5z" />
	<path fill="#5D4941" d="M310.1,388.7c-0.6,0-0.8-0.3-0.8-0.9c0-0.5,0.3-0.7,0.7-0.6C310,387.7,310.1,388.2,310.1,388.7z" />
	<path fill="#463832" d="M309.7,383.5c0,0.3-0.1,0.6-0.1,1.2c-0.9-0.6-1.1-1.2-0.4-1.8C309.4,383,309.6,383.2,309.7,383.5z" />
	<path fill="#57433C" d="M286.5,248.2c0.1-0.3,0.1-0.7,0.5-0.7c0.4,0,0.4,0.4,0.5,0.7C287.2,248.6,286.9,248.6,286.5,248.2z" />
	<path fill="#D49378" d="M496.4,451c-1.8-3.7,0.5-9,0.9-12.8c0.2-2.2-1.1-10.9,2.6-10C504.4,429.3,500.8,450,496.4,451z M497,448.8   c2.2-0.5,2.7-6.6,3-8.4c0.6-3.4,1.5-6.3-1-9C498.3,437.3,497.7,443,497,448.8z" />
	<path fill="#D59378" d="M512.5,392.3c-0.3,0.5-0.7,0.4-0.9,0c-0.6-1-1-0.4-1.5,0c-0.2-0.7,0.3-1.9-1.2-1.6   c-1.1-2.1-7.3-3.7-3.8-7.3c3.9-4.1,6.5,3.3,7.5,5.7C512.8,390.2,511.3,391.2,512.5,392.3z" />
	<path fill="#23201F" d="M489.9,414.2c-1.8-0.2-3.8,0.7-5.8-0.7c1.6-0.9,15.3-3.9,16.2-2.6C497.1,412.8,493.4,413.4,489.9,414.2z" />
	<path fill="#120D0B" d="M493.6,460.2c0.3-2.8,0.6-5,2.2-7C496.8,455.6,496.1,458,493.6,460.2z" />
	<path fill="#2C2623" d="M486.7,421.1c-1.4-0.6-3.4,0-4.3-1.7c0.6-1.5,7.7,0.2,7,1.3C488.5,420.8,487.6,420.9,486.7,421.1z" />
	<path fill="#2A2523" d="M512.5,392.3c-1.2-1.1,0.3-2.1,0-3.2c0.9-1.2,1.3-2.8,2.8-3.6C515.1,388,513.8,390.2,512.5,392.3z" />
	<path fill="#42342F" d="M508.9,390.8c1.5-0.3,1,0.9,1.2,1.6c-0.4,0.6-0.3,1.6-1.4,2C508.5,393.1,509,391.9,508.9,390.8z" />
	<path fill="#36261F" d="M492.3,463.1c-0.2,1.4-0.5,2.3-1.9,2.5C490.3,464.3,490.6,463.5,492.3,463.1z" />
	<path fill="#4D352D" d="M488.1,470.5c-0.1,1.4-0.2,2.2-1.4,2.4C486.2,471.7,486.8,471.2,488.1,470.5z" />
	<path fill="#020202" d="M366.4,80.6c2.1-0.1,4.1,1.5,6.1,0.3c0.9,0.5-0.1,1,0.1,1.4c0.4,0.3,0.9-0.5,1.2,0.2   c-0.5,1.7-2.1,1-3.4,1.4c0.6,1.3-0.1,2.6,0.6,4.1c-5.5,1.3-10.3,0.5-14.2-3.7c0.8-0.6,1.7-0.4,2.5-0.5c0.6,0,1.2,0.2,1.7-0.3   c0.9-0.3,1.9-0.6,2.8-0.9c0.8-0.1,1.7,0.3,2.4-0.4c0.3-0.3,0.5-0.5,0.8-0.8C366.9,81.2,366.6,80.9,366.4,80.6z M361.5,85.2   c1,1.3,2,2.4,4,2.3c-0.8-1-0.8-2.1-0.8-3.2C363.4,84.1,362.6,84.8,361.5,85.2z" />
	<path fill="#050404" d="M355.2,78.4c-1.4-2.5,8-4.1,9.8-4.2c1.7-0.1,10.3,0.4,10.9,2.9c0.7,3.3-7.2-0.5-8.2-0.7   c-1.9-0.3-3.9-0.3-5.8,0C360,76.8,356.9,78.9,355.2,78.4z" />
	<path fill="#140F0E" d="M374.1,104c-2.7,2.1-6-6.1,0.3-6.9c-0.9,1.4-2.6,1.4-2.8,3.4C371.4,102.1,372.6,103.5,374.1,104z" />
	<path fill="#130F0D" d="M380.3,102.9c-1.1,0.3-4.8,1.9-5.4,0.5C373.8,100.5,379.9,102.6,380.3,102.9z" />
	<path fill="#171210" d="M366.4,82.2c-0.7,0.7-1.6,0.3-2.4,0.4c0.3-0.2,0.6-0.4,1.1-0.8c-0.4,0-5.7,1.1-3.9,1.7   c-0.5,0.5-1.1,0.3-1.7,0.3c0.1-1.3,1.1-2,2.1-2.2c1.6-0.4,3.2-1.1,4.9-0.9c0.3,0.3,0.5,0.5,0.8,0.8c-0.5,0-1.1-0.3-1.4,0.3   C365.6,82.1,366.1,82.1,366.4,82.2z" />
	<path fill="#090706" d="M368.8,112.9c0.1,0.2,0.3,0.4,0.4,0.7c-0.5,0.5-1.3-0.1-1.7,0.6c-0.9,0.8-1.7,1-2.4-0.2   C366.8,111.9,367.8,111.7,368.8,112.9z" />
	<path fill="#4B3A34" d="M340,118.7c0.2-0.2,0.3-0.4,0.5-0.5c0.5,0.4,1,0.9,1.5,1.3C341,120.1,340.6,119.2,340,118.7z" />
	<path fill="#110F0E" d="M317.6,302.1c7.8-0.2,14.9,1.4,22.5,2.7C336.4,305.7,320.2,303.8,317.6,302.1z" />
	<path fill="#070605" d="M331.9,309.4c-5.4-0.6-11-0.3-15.4-3.6c6.7,0.5,12.8,1.1,18.7,3.2C334.2,309.9,333,309,331.9,309.4z" />
	<path fill="#0C0B0A" d="M340,296.4c-6.3,0.5-12.2-0.9-18.5-2.7c2.7-2.8,13.6,1.5,17.2,1.6c0.5,0.3,1.1,0.4,1.7,0.4c0,0,0,0,0,0   C340.3,295.9,340.2,296.1,340,296.4z" />
	<path fill="#443E39" d="M331.9,309.4c1.1-0.4,2.3,0.4,3.3-0.5c0.7-0.1,1.3,0.1,2,0.8C335.2,309.9,333.6,309.8,331.9,309.4z" />
	<path fill="#A79488" d="M340,296.4c0.1-0.3,0.3-0.5,0.4-0.8c0.6-0.1,1.3-0.1,2.1,0.4C341.6,296.5,340.8,296.4,340,296.4z" />
	<path fill="#A79488" d="M340.4,295.6c-0.6,0.1-1.2-0.1-1.7-0.4C339.4,295.1,340,295,340.4,295.6z" />
	<path fill="#917266" d="M344.4,143c0.8,0.3,1.1,0.7,0.7,1.4C344.3,144.2,344,143.9,344.4,143z" />
	<path fill="#392D28" d="M342.1,138.6c1-0.1,1.8,0.1,0.7,1.2C342.4,139.5,342,139.2,342.1,138.6z" />
	<path fill="#362B26" d="M364.7,156.1c-0.4,0.3-0.7,0.2-0.7-0.4C364.4,155.2,364.6,155.4,364.7,156.1z" />
	<path fill="#040404" d="M214.5,413.2c0.9,1.5,0.8,3.2,0.8,4.9c0,2.1,0,4.2,0,6.2c-0.6,1.3,0,2.8-0.4,4.3   C212.3,428.7,210.6,413,214.5,413.2z" />
	<path fill="#090808" d="M202.8,367.3c1.2,0.7,1.3,2.2,2,3.2c0,0.9,0.2,1.7-0.1,2.7C202.2,373,200.7,368.6,202.8,367.3z" />
	<path fill="#161414" d="M178.5,258.4c0.8,1.2,1,2.5,0.8,3.9c-2,0.5-1.7-1.3-2.2-2.3C176.6,258.8,177.7,258.6,178.5,258.4z" />
	<path fill="#0F0E0D" d="M180,269.4c0.2,0.4,0.3,0.7,0.5,1.1c0,0.9,0.3,1.7-0.1,2.7C178.4,272.9,177.6,269.3,180,269.4z" />
	<path fill="#11100F" d="M215.3,430.5c0.1,0.8-0.1,1.5-0.4,2.3C211.1,433.3,213.8,429,215.3,430.5z" />
	<path fill="#0D0C0C" d="M197.6,354.3c0.6-0.2,1.4-1.1,1.8,0.1c0.3,0.9,1,2.2-0.7,2.7C197.8,356.4,197.4,355.5,197.6,354.3z" />
	<path fill="#353130" d="M183.4,286.6c0.1,0.7,1.6,1.3,0.1,2.1c-0.1-0.7-1.5-0.6-1.1-1.6C182.5,286.4,182.9,286.4,183.4,286.6z" />
	<path fill="#282524" d="M194.6,339c-0.5,1.3-0.5,1.3-1.8,0.6C193.2,338.7,193.9,338.8,194.6,339C194.6,339,194.6,339,194.6,339z" />
	<path fill="#534E4C" d="M213.3,438.1c1.5-0.7,1.9,0.7,0,0.8C213.4,438.7,213.4,438.4,213.3,438.1z" />
	<path fill="#514C49" d="M201.9,363.3c0,0.5,0,1.1,0,1.6c-1.1-0.1-0.9-0.9-0.8-1.5C201.3,362.8,201.7,363.2,201.9,363.3z" />
	<path fill="#211F1F" d="M213,443.8c0.4-0.3,0.8-1,1.4-0.3c0,1-0.9,0.6-1.4,0.9C213,444.3,213,444,213,443.8z" />
	<path fill="#3A3635" d="M195.3,348c0.1-0.4,0.4-0.6,0.8-0.5C196.4,347.6,196,348.7,195.3,348z" />
	<path fill="#201E1D" d="M181.3,279.8c-0.1-0.4-0.7-0.7-0.1-1.2C182,278.9,182,279.3,181.3,279.8   C181.3,279.8,181.3,279.8,181.3,279.8z" />
	<path fill="#745548" d="M423.4,411.8c-0.7,0.4-1.3,0.8-2,1.2c-0.7-1.8,7.9-6.3,9.1-7C428.2,408,425.8,409.9,423.4,411.8z" />
	<path fill="#6A4C3F" d="M405.8,408.9c0.4-0.8,0.9-1,1.9-1.1C407.2,408.7,406.7,409,405.8,408.9z" />
	<path fill="#513930" d="M411.6,407.1c-0.4,0.4-0.7,0.3-0.9-0.3C411.1,406.5,411.4,406.6,411.6,407.1z" />
	<path fill="#040303" d="M328.3,445.8c1.6-1.2,2.1-0.3,2.1,1.1c0,3.9,0.2,7.8-0.1,11.7C328.6,459.9,328.1,447.2,328.3,445.8z" />
	<path fill="#0D0C0C" d="M330.3,475.9c0.7,2.8,0.3,5.6,0,8.4C328.5,485.8,326.6,474.1,330.3,475.9z" />
	<path fill="#100F0E" d="M330.3,463.7c0.2,1.2,0.1,2.3,0,3.5c-2,0.1-1.4-1.4-1.4-2.4C328.9,464.4,328.8,462.6,330.3,463.7z" />
	<path fill="#020202" d="M319.5,479c0-0.8,0-1.6,0-2.4c0.3-0.3,0.5-0.6,0.9-0.9C321.7,477.1,321.3,479.1,319.5,479z" />
	<path fill="#4F4A48" d="M330.6,494.6c-0.7-0.5-0.7-0.7,0-0.8C330.5,494,330.6,494.3,330.6,494.6z" />
	<path fill="#2F2C2A" d="M329.2,473.9c-0.5,0.4-0.7,0.3-0.8-0.2C328.7,473.4,329,473.5,329.2,473.9z" />
	<path fill="#201A17" d="M404.6,277.2c-1.2-1.5-1.2-3,0.1-4.2C406,274.4,405.9,275.7,404.6,277.2z" />
	<path fill="#080605" d="M281.6,243.1c-1.8-1-3.7-7-3-9.4C280.2,234.5,282,240,281.6,243.1z" />
	<path fill="#322824" d="M283.1,200.1c-1.6-1.4-1.6-1.4-0.3-2.7C283.1,198.2,283.3,199,283.1,200.1z" />
	<path fill="#5C463D" d="M286,203.1c-0.8-0.6-0.8-1.1-0.3-1.7C286.5,201.8,286.2,202.4,286,203.1z" />
	<path fill="#0A0706" d="M338.3,128.5c-2.1-2.1-2.3-4.5-3.4-6.8C337.1,122.3,338.3,124.7,338.3,128.5z" />
	<path fill="#0F0C0A" d="M341.2,135c-1.4-1.2-1.9-2.5-1.9-4.6C340.8,131.8,341.5,133,341.2,135z" />
	<path fill="#0E0E0D" d="M211.4,466.5c0.7,1.1,1,6.2-1.1,5.9C207.8,472.1,210.5,467.1,211.4,466.5z" />
	<path fill="#2A2826" d="M209.5,477c0.7,1.4,1.2,2.1,0.3,2.9c-0.3,0.3-0.9,0.3-1.1-0.1C208.2,478.8,209.4,478.4,209.5,477z" />
	<path fill="#967264" d="M292.3,296.8c-0.1,0.1-0.2,0.1-0.4,0.2c0-0.3-0.1-0.8,0.3-0.8C292.6,296.2,292.3,296.6,292.3,296.8z" />
	<path fill="#0C0807" d="M331.9,353.5c-2.5,0.6-4.8,1.9-7.9,2.1c1.8-1.8,3.6-3.2,6-4.4c-1.6-0.2-2.8,0.5-4.3-0.1   c5.2-2,10.2-1.7,15.1-1.7c0,0.2,0.1,0.4,0.1,0.6c-1.3,0.5-2.6,1-3.8,1.5C335.4,352,333.6,352.6,331.9,353.5z" />
	<path fill="#B8806B" d="M331.9,353.5c1.7-0.9,3.5-1.5,5.3-2c0.3,0.1,0.6,0.3,0.9,0.4c-1.8,0.6-3.6,1.3-5.4,1.9   C332.5,353.8,332.2,353.6,331.9,353.5z" />
	<path fill="#D7D7D7" d="M409.3,419.6c-0.3-0.1-0.7,0-0.8-0.4c0.6-0.2,1.2-0.4,1.8,0C410.1,419.7,409.7,419.5,409.3,419.6z" />
	<path fill="#291F1B" d="M324.3,95.2c1.2,0.6,2,1.6,2.2,2.9C325.4,97.4,324.4,96.6,324.3,95.2z" />
	<path fill="#0C0C0A" d="M427.6,567.9c0-2.4,7.1-5.1,8.7-3.7C438.3,566.1,428.8,568,427.6,567.9z" />
	<path fill="#0F0E0C" d="M546.8,575.4c-2.6,1.8-4.9,3.7-7.3,5.9C539.4,578,544,574.1,546.8,575.4z" />
	<path fill="#544139" d="M434.4,413.8c0.9-0.6,1.9-0.3,2.9-0.3C436.4,414,435.4,413.9,434.4,413.8z" />
	<path fill="#D59379" d="M429.6,411.8c-0.5,0.4-1.1,0.2-1.7,0.4C428.4,411.6,429,411.9,429.6,411.8z" />
	<path fill="#2C2623" d="M424.7,438.6c2.7-0.1,0.4,6.6-0.1,7.5C424.1,443.6,424.1,441.1,424.7,438.6   C424.7,438.6,424.7,438.6,424.7,438.6z" />
	<path fill="#2F2825" d="M421.4,452.5c-0.4-1.7-0.7-3.4,0.4-5C422.6,449.2,422.5,450.9,421.4,452.5z" />
	<path fill="#2D2624" d="M418.7,460.6c-0.8-1.7-0.8-2.9,0-4.6C419.3,457.7,419.3,459,418.7,460.6z" />
	<path fill="#40332D" d="M428.5,433.5c1.1,0.9,1,1.6,0.4,2.4C428.1,435.3,428.2,434.5,428.5,433.5z" />
	<path fill="#896252" d="M416.5,463.9c0.8,0.1,0.9,0.5,0.8,1.2C416.6,464.9,416.3,464.7,416.5,463.9z" />
	<path fill="#413A35" d="M342.9,231.1c1.6,0.5,2.1,1.5,2.5,3C343.9,233.5,343.1,232.7,342.9,231.1z" />
	<path fill="#070504" d="M497,448.8c0.7-5.8,1.4-11.5,2.1-17.4c2.4,2.7,1.6,5.7,1,9C499.7,442.1,499.2,448.3,497,448.8z" />
	<path fill="#EDEDED" d="M361.5,85.2c1.1-0.4,1.9-1.1,3.1-0.9c0.1,1,0,2.1,0.8,3.2C363.4,87.5,362.5,86.5,361.5,85.2z" />
	<path fill="#745A50" d="M361.1,83.5c-1.7-0.5,3.5-1.7,3.9-1.7c-0.5,0.4-0.8,0.6-1.1,0.8C363,82.9,362.1,83.2,361.1,83.5z" />
	<path fill="#745A50" d="M366.4,82.2c-0.3-0.1-0.8-0.1-0.6-0.5c0.3-0.6,0.9-0.3,1.4-0.3C366.9,81.7,366.6,82,366.4,82.2z" />
</g>
</svg>