<?xml version='1.0' encoding='utf-8'?>
<svg xmlns="http://www.w3.org/2000/svg" version="1.2" baseProfile="tiny" id="Layer_1" x="0px" y="0px" viewBox="0 0 900 600" overflow="visible" xml:space="preserve">
<g id="a_00000147183875121388219350000006951610892088432573_">
	<path d="M582.7,348.3c0.9,0.5,1.7,1.1,2.9,1.8c1.5-10,5.1-19.4,10.9-27.6c5.1-1.3,9.6-2.1,13.4,2.3c1.2-0.5,2.4-0.9,3.7-1.4   c9.2-104.8,11.8-214.1,24.5-317.5c-1.6,103.3-15.2,212.2-20.7,317.3c15.5,21.7,14.2,57.9-3.8,78.1c6.7,2.9,35.4,6,36.8,10.8   c-0.5,0.5-1,1-1.5,1.5c-13.5-2.3-26.7-7.4-40.2-9c-2.8,1-5.3,0.4-7.5-1.6c-1.9-1.9-4.6-1.8-7-0.8c-61.5-23.6-42.7,11.7-41.8-72.3   c-2.4-1.8-4.6-3.9-7.3-5.4c-1.2,1.8-0.6,3.8-1,5.6c-1.1-1.2-0.6-3.6-0.9-5c-2.5-3-3.8-6.5-7.5-8c-0.5-0.5,0.3-1.9-1.3-1.6   c-2.3,27.3-1.8,55-4.1,82.4c39.2,11.5,80,19.8,118.5,32.7c0,3.4-2.5,2.4-4.5,1.9c-38.1-10.2-76.1-20.4-114.2-30.7   c-1.7-0.4-4.8-1.2-3.9-3.5c2.4-27.9,2.6-56.6,3.9-84.7c-5.7-2.7-11.7-8.2-18-8.2c-1.2-0.7-2.5-1.5-3.8-2.3c-0.3-1.2-0.7-2.3-1-3.4   c-1.4-1.3-3-2.7-5-2.8c-0.4-0.5-0.9-1-1.3-1.5c2.4-2.1,5.7,1.8,8,3c0.7-1.9,5.9-3.9,4-5.1c5.6-1.6-2.9-7.7,0-10.6   c2.4,3,4.1,6.8,3.8,10.7c0.9,0.6,1.7,1.1,2.8,1.8c2.4,4.8,7.2,8.4,10.8,12.5c6.1-101.2,7.6-203.5,14-304.5c0.8,0,1.6,0,2.3,0   c-1.7,102.2-9.1,205.6-12,308.2c1.3,0.9,2.5,1.8,3.8,2.6c2.3-0.9,4.3-0.5,6.6-0.2c0.6,3.7,3.6,6.1,6.2,8.5   c-0.2,0.4-0.4,0.8-0.6,1.1c0.6,0.6,1,1.2,2,1.3c8-106,7.3-216.5,18.5-321C571,109.8,560,220.3,556.4,327.9   c8.1,6.3,16.1,12,24.1,18.5c0.2-1,0.4-1.6,0.5-2.3C582.7,345.2,580.5,347.8,582.7,348.3z M525.8,307.4c0.3,0.5,0.5,1,1.1,0.2   C526.5,307.5,526.2,307.4,525.8,307.4c-0.6-1.3-1.6-2.1-2.7-2.8C521,305.8,524.6,307.4,525.8,307.4z M604.4,330   C604.4,330,604.4,330,604.4,330c0.8-0.7,1.5-1.3,2.3-2c0.3,0.3,0.5,0.5,0.7,0.8c-0.5,0-0.8,0.3-0.8,0.8   c-12.1,20.7-15.8,48.6-4.8,70.4c5,7,13-3.7,15.1-8.5c11.1-19.3,11.5-48.1-1.5-66.2c-2.2,0.7-4.8,0.3-6.6,2.1   c-13.6-13.3-19.7,15-20.9,24.7c2,1.8,5.9,3.9,2.4,6.2c-1.2-0.6-2.3-1.1-3.4-1.7c-2.2,14.1-4.9,34.6,7.6,44.3   c1.4-0.8,3.2-1.2,3.6-3.3C590,376.8,589.9,348,604.4,330z M582.5,352.6c-9-6.4-17-13.8-26.3-19.7c-0.7,18.2-2.4,35.8-2.6,53.7   c10.4,3.1,21.7,6.1,32.5,7.7c-5.9-12.5-3.8-26.7-1.5-39.8C583.9,353.8,583.2,353.2,582.5,352.6z M513.4,296c-1.2,1.6-3,2.4-3.1,4.3   c0.6,0.5,1.3,1,1.6,1.3c0.2,0.8,0.4,1.4,0.6,2.3c2.3-2.3,5.6-4.6,5.3-7.6C516.3,295.7,515.1,296.1,513.4,296z M519.5,300.2   c-1,0.6-1.6,1-1.1,2C520.1,301.7,520.1,301.7,519.5,300.2z M521.7,302.4c-1.5,1.5-1.5,1.5-0.2,2.7   C521.5,304.3,521.6,303.6,521.7,302.4z M542.3,319.4c0.8-1.1,0.3-1.6-0.7-1.9c-0.2,0.3-0.5,0.6-0.9,1.1   C541.4,318.9,541.9,319.1,542.3,319.4z" />
	<path fill="#798BB3" d="M544.1,313.7c-2-0.5-3.6-0.4-5.6,0.3c-1.2-0.9-2.5-1.7-3.8-2.6c2.9-102.6,10.3-206,12-308.2   c-0.7,0-1.5,0-2.3,0c4.6-5.7,12.9-2.4,17.6,1.3c-0.3,0.1-0.7,0.1-1.2,0.2C557.9,107.5,548.9,210.6,544.1,313.7z" />
	<path fill="#010000" d="M502.5,294.6c-0.7-0.1-1.3,0.2-1.6,0.9c-1-0.5-2.1-1-3.1-1.5c-0.6,0.2-1.1,0.4-1.7,0.6   c-0.2-0.2-0.5-0.4-0.7-0.6c0.2-0.4,0.5-0.8,0.6-1.1c-0.8-1.3-1.8-1.1-2.8-0.5c-0.2-0.2-0.5-0.4-0.7-0.5c1.5-2.2-3.1-1.7-2.7,0.5   c-0.3,0-0.7,0.1-1,0.1c-0.8-1.2,0.2-2.2,0.6-3.5c-3.3-3-6.9-6.1-11.6-7.1c-7.3-6.4,9.4-3.8-10.3-12.7   c-11.2-5.2-21.7-13.2-27.1-24.6c-9.6-8.3-22.3-12.9-29.4-24.1c-5,4.8-11.2,8.2-18.2,7.7c-0.7,5.8,11.6,21.5,8.4,24.7   c-5.1-7.8-7.1-17.9-11.7-25.4c-4.3,5.4-6.5,12.1-11.6,16.9c4.1,7,9.1,12.9,13.6,19.6c-0.3,0.3-0.7,0.7-1,1c-2-2.4-4-4.7-6.1-7.2   c-2.8,1.2-4.2,3.6-7.2,4.3c-0.2-0.2-0.4-0.4-0.7-0.6c2.1-1.9,4.2-3.7,6.3-5.5c-1.5-4-4.6-6.4-7.4-9.1c-10,8.5-24.1,19.2-37,20.9   c-22.2-0.8-70.5-3.1-57.3-36.3c-25.3,18.3-26.7,57.9-8.3,81.4c9.7-22.6,42.4-25.3,60.3-10.7c-1.6-4.7,2.7-8.5,0.1-13.2   c0.5-0.5,1-1,1.5-1.5c1.5,2-0.6,6.8,2.3,7c-0.8,1.1-1.2,2.2-1.1,3.7c1.5,1.1,3.1,2.2,4.8,3.5c7.9-14.4,19-26.5,31.6-37   c0.3,0.3,0.6,0.6,0.9,0.9c-9.9,12.9-23.6,23.2-30.8,37.9c8.9,8.4,19.5,14.7,29.3,22c-0.3,0.3-0.6,0.6-0.8,0.9   c-13.5-6.2-25.1-15.2-35.3-25.8c1.4,17.8,6,35.6,13.5,51.8c3.4,9.9,10.3,22.5,8.5,32.6c-5.6-16.5-11.9-32.7-17.3-49.2   c-4.7-10.2-3.4-22.8-8.9-32.3c-17.1-15-47.3-8.8-57.5,11.7c12.2,32.3,42,61.1,44.7,96c-12.5-40.1-39.2-73.2-55.9-111.4   c-12.6-21.9-5-58.6,17.4-70.6c46.3-28.6,46.2-69.8,76-112.4c4.7-10,14.7-14.3,24.5-17.5c4.2-1.8,8.5-3.5,13-4.5   c1.5,0.2,0,1.6,1.1,2.2c3.3-3.2,3.7-7.5,3.6-11.9c2.4-3.4,0.5-8.7,3.4-12.1c1.6-0.8,3-1.7,4.3-2.9l-0.1,0.1   c3.8-0.7,5.9,3.8,7.8,6.4c-0.2,0.5-0.4,0.9-0.6,1.4c-1.9-1.7-3.7-3.4-5.6-5.1c-1.7,1.3-5.2,2.3-5,4.6c-1.2,1.9-0.7,3-1.6,5.7   c3.6,3.6,5.4,10.8,11.5,9.9c-1.3,2.8-2.2,4.7-2.4,8c-1.4-1.6-0.9-3.2-1.3-4.7c-3.1-1.8-3.7-5.9-6.7-7.7c-0.6,4.9-3.1,8.6-6.2,12.3   c-2.1,0.1-2.6,2.1-4,3.3c-0.4,0-0.9,0-1.4,0c-0.9-1.1,1-1.5,0.7-2.8c0.5-1.4,2.4-1.9,2.1-4c-13.5,4.7-29.6,8.8-35.8,23.2   c-13.1,20.2-22.4,42.1-32.7,63.7c1.4,28.5,34.9,52.2,61.4,40.1c8.4,2.4,17.6-0.8,23.8-6.5c-1.8-3.2-3.5-6.1-5.3-9.1   c0-0.6,0-1.2-0.8-1.3l0,0c-0.2-0.5-0.8-0.8-0.8-1.3c0.3-0.3,0.6-0.7,0.9-1l0,0c0.8,1,1.4,1.9,2,3c0,0.6,0,1.2,0.8,1.3   c8.2,16.6,25.9,23.4,38.1,36.1c-1,1.4-0.7,1.6,0.4,2.3l0.3-0.1l-0.1,0c5.6,11.2,17.3,16.2,28.3,20.6c-0.1,0.5-0.2,0.8-0.4,1.3   c10.1,4.1,17.5,13.6,27.4,17.1c3.5,0.1,7.2,0.2,10,2.6c-1.8,2.4-6.7-1.6-9.7-0.4c-5.1,0.8-7.1-4.8-11.6-5.8c-1.3-2-3.6-2.6-5.5-4   c-0.1,2.3,2.7,2.5,3.9,4c-0.6,0.1-1.2,0.2-2.2,0.3C490.8,288.2,496.7,290.8,502.5,294.6z M352.5,225.2c-1.3-0.4-2.6-0.7-3.9-1.1   c-0.3,0.6-0.5,1-0.9,1.8c-0.9-2.5-2.8-3.4-4.7-4.4c-11.9-7-18.7-20.3-20.6-33.7c-15.9,37.2-34.7,30.6-40.8,48.2   c-9.3,28,46.6,31.4,64,26.6c15.8-3.1,33.6-20.6,40.3-35.3C374.9,232,363.2,229.3,352.5,225.2z" />
	<path fill="#92A3C5" d="M562,4.4c-2.4-1-3.9-3-6.4-4c5.4,0.3,11.7-1.6,15.5,3.3c-11.2,104.1-10.4,214.3-18.4,320   c-3.1-3.1-8.8-6.7-7.1-11.8c1.3-5.5,0-11.6,1.5-16.9C550.1,198.4,560.2,100.9,562,4.4z" />
	<path fill="#798BB3" d="M649,430.4c-38.5-12.9-79.3-21.1-118.5-32.7c2.3-27.4,1.8-55,4.1-82.4c1.5-0.3,0.8,1.1,1.3,1.6   c3.6,1.5,4.9,5,7.5,8c-1.1,22.2-3,44.8-3.8,67.2c38.1,9.2,77.1,22.3,115.2,28.4c0.2,0.2,0.4,0.4,0.8,0.9c-1.2,0.3-2,0.6-3,0.7   c-1.1,1.4-0.5,2.9-1,4.5C650.6,427.7,649.2,428.9,649,430.4z" />
	<path fill="#92A3C5" d="M544.2,330c0.4-1.8-0.2-3.8,1-5.6c2.6,1.5,4.9,3.6,7.3,5.4c-0.9,84.1-19.7,48.7,41.8,72.3   c2.4-0.9,5-1,7,0.8c2.2,2.1,4.7,2.6,7.5,1.6c13.5,1.6,26.7,6.7,40.2,8.9c0.5-0.5,1-1,1.5-1.5c0.4,2.8,2.9,4.7,2.2,7.7   c-37.3-9.4-74.6-18.6-111.7-28.6C542.3,370.5,543.7,350.7,544.2,330z" />
	<path fill="#020101" d="M356.8,423.6c-7.1,13.2-12.1,26.8-14.9,41.6c-3.9,20.2-27,49.2-10.1,67.5c6.3,10.3,7.5,23.4,18,30.8   c5,3,7.3,8.5,11,12.7c3.5,3.4,2.2,8.5-0.7,11.7c-11.9,17.8-55.4,17.1-51.7-10c-1-0.9,0-2.5-1.3-3l0,0c0.1-0.6,0.1-1.2-0.7-1.4l0,0   c-0.4-0.6-0.8-1.1-1.3-1.5c0.3-0.3,0.6-0.5,0.9-0.8c0.8,0.4,1.7,1.3,2,2.1c1.1,0.9,0.1,2.3,1.3,3c-0.8,6.2,2.9,11.3,5.6,16.7   c3.2,1.8,3.2,1.8,5.3,1.1c15.5,6.6,28.6,1.2,40.2-9.4c0.4-3.8,0.2-7.2-3.6-8.7c-4.7-9.7-14.3-15.1-19.8-24.4   c-2.3-16.5-15-9.1-23.4-1.5c-0.3-0.3-0.5-0.6-0.8-0.8c3.4-7,11.8-11.4,19.5-10c-1.4-4.3-3.1-7.7-8.9-11.5   c-21,9.4-9.6,4.4-18.8,17.7c-1.6-2.2-4.1-2.2-6-3.7c0.1-0.5-1-1.3,0.3-1.7c10.3,5.6,4.6-6.8,12.1-8.9c4.4-1.5,8-4.7,12.2-6.6   c0.1-24,13.1-44.6,18.5-67.4c1.5-12.8,8.4-22.8,13.4-34.5C355.8,422.7,356.5,422.7,356.8,423.6z" />
	<path fill="#050303" d="M430.3,317.2c12.6,15.5,21.4,18.2,18.4,40.8c6.7,24.6-1.5,50.3,2.2,75.3c2.5-0.9,4.9-1.3,7.5,0.1   c0.4,18.1,58.5,35.5,30,50.6c-12.8,3-29.6,1.1-35.7-12c-0.1-1.2-1.2-1.7-2.3-1.8c-9.4,1.4-22.1,2.3-29.4-4.7   c0.2-0.8-0.3-1.9,0.8-2.4c7.2,12,30.5,0.4,33,7.9c3.2,7.1,10.3,12.3,18.2,11.5c7.5,1.3,22.6,0.8,21.6-9.6   c-5.6-9.1-16.1-12.7-23.1-20.3c-3.9,1.4-6.2,3.1-9,6.2c0.3-4.7,3-6.6,6.5-7.9c-2.1-3.2-3.8-4.9-7.7-5.8c-2.9,1.8-5.9,4.4-8.3,6.8   c-0.2-0.2-0.5-0.5-0.7-0.7c1.3-4,4.6-6.1,8-8.1c-1.3-2.6-2.6-5-3.9-7.7c-2.9-1.6-4.9,0-7,2.4c0,1.9,0,4,0,5.9   c-2.4,2.4-6.1,4.2-9.9,4.7c0-0.2,0-0.5,0-0.7c2.4-1.9,5.6-2.2,7.9-4.6c-1.2-3.3-0.1-6.2,1.4-8.6c-1.9-32.1,1.9-64-3.3-95.7   c-4.4-7.3-11.9-12.7-16.1-20.4C429.7,317.9,430,317.6,430.3,317.2z" />
	<path fill="#030302" d="M390.7,101.5c0.3,1.3-1.6,1.7-0.7,2.8c-0.9,0.5-1.9,0.9-2.8,1.4c-3.7-2.5-8.9,5.1-10,8.4   c2.1,2.5,2.9,6.3,5.6,7.5c7.3,3.2,14.3,8.4,21.3,11.4c-0.3-1.7-1.2-3.3-0.7-5.2c1.5,2.5,2.8,5,3.1,7.7c2.6,2.6,4.6,5.3,7.8,7.1   c2.1-6.1,1.7-12.5,4.7-18.1c-1.4-2.4-3.7-4.1-4.3-6.8c0.2-0.6,0-1.4,0.8-1.5c6.5,6.9,12.7,15.8,22.9,16.9c5.2,0.3,8,0.3,9.3-5.4   c-1.7-1.7-5.2-0.8-6-3.5c2.5-0.1,4.9,1.1,7.2,1.9c2.4-1.6,2.4-1.6,1.6-3.8c-3.2-0.5-6.3-1.8-9.6-1.6c-0.7-0.5-1.3-1-1.1-2.1   c0.2-0.2,0.6-0.5,1.2-1c3.8,3.4,9.2-0.1,12.8,3.9c-0.2,0.2-0.5,0.5-0.9,0.9c0.8,3.1-1.7,4.2-4,5.7c0.4,14.3-18.5,6-24.7,0.8   c-0.3,2.1-0.6,4.1-1,6c-2-1.9,0.4-5.6-1.2-7.8c-3.2,2.5-3.7,6.8-4,10.4c-0.4-0.3-0.7-0.5-1.3-0.9c0.1,4,0.4,7.6-0.8,11.6   c8.9,6.5,21.3,12.2,23.6,24.1c-0.3,0.3-0.6,0.6-0.9,0.9c-8.3-12.3-20.3-21.7-33.2-28.4c0.4-0.2,0.9-0.4,1.3-0.6   c2.4,1,5.3,0.2,6.8,2.7c-7.8-15.7-30.5-16.3-38.7-31.4c0.4-5.3,6.9-15.1,12.9-11.3C388.9,103,389.8,102.3,390.7,101.5z" />
	<path fill="#030302" d="M422.5,22.9c1.1,0.8,2.2,1.7,3.4,2.6c33.2-5.2,59.6,29.4,47,60.4c-3.5-9.2,5.2-20.9-2.3-30.5l0,0   c-0.5-2.3-3.1-3.5-3-6.2c-1.6-4.9-6.1-7.8-8.6-12.1c-4.2-5.8-12.6-6.9-18.9-9.3c-0.5,0.5-0.8,0.9-1.2,1.3c-2.2-1.2-4.8-1.6-7.5-1.2   c4.8,2.7,9.3,5,13.6,8.4c0.1,0.4,0.2,0.7,0.4,1.2c-6.3-2.2-12.2-4.5-17.9-7.8c-0.4-0.7-0.7-1.4-1.1-2c-7.2,1.8-13.4,5.8-16.9,12.6   c2.5,3.3,4.9,6.6,7.4,9.8c-0.3,0.3-0.5,0.5-0.8,0.8c-3.4-2.2-5.6-5.4-8.2-8.6c-0.8,0.9-2.3,3.9-3.3,2.1c1.2-4.8,5.4-8.3,7.9-12.5   l0,0.1c2.5-0.9,4.2-3.1,6.6-4.3c1.7-0.2,3.3-0.3,4.8-1.8c-1-0.9-2-1.7-2.9-2.5C421.3,22.8,422,23,422.5,22.9z" />
	<path fill="#030202" d="M298.9,540.1c-1.3,0.4-0.2,1.1-0.3,1.7c-0.4-0.1-0.8-0.2-1.1-0.3c-1.4-6-2.3-12.3,0.9-18.2   c-3-0.2-3.7,2.4-5.4,4.1c-1-0.4-0.6-1.4-0.9-2.1c1.5-2.2,3.6-3.7,6.2-4.3c0.1-1.1,0.2-2.1,0.3-3c0.4-0.4,0.9-0.7,1.1-0.9   c0.4-23.2-5.5-47.2,1.7-69.7c5.3-11.8,19.9-21.6,17-35.9c0.9-0.8,0.8-1.9,0.8-3c8,33.4-29.5,17.7-16.6,104.4c-0.3,0.6-0.6,1.3-1,2   c1.5,2.4-0.2,4.7-0.2,7.2c-0.4,4.6-0.2,10.2-3.2,13.8C298.4,537.3,298.7,538.7,298.9,540.1z" />
	<path fill="#050404" d="M438.7,172.9c0.3-0.3,0.6-0.6,0.9-0.9c4.4,18.5,8.9,36.9,22.5,51.3c7.2,3.2,13.4,8.4,17.1,15.4   c5.2,9.1,11.2,17.7,17.6,25.9c2.1,5,7.1,5.2,11.2,7.3c0.2,0.8,0.3,1.7,0.5,2.6c5.6,1.3,3.1,4,4.6,8c-0.8,0.3-0.7,0.9-0.8,1.5   c-0.7-2.2-1.5-4.4-2.2-6.6c-2.3-1-3.2-2.7-4.4-4.9c-0.9,0.2-1.6,0.5-2.6,0.7c-13.2-9.2-19.1-26.2-29.5-38.1   C452.8,220.8,440.3,198.5,438.7,172.9z" />
	<path fill="#060505" d="M421.8,463c-1.1,0.5-0.6,1.6-0.8,2.4c-1-0.8-0.7-2-0.7-3.1c1-1.1,1-1.7,0.1-2.9c4.3-8.6-0.7-20.5,8.4-26.3   c-0.1-9.9-5.7-19.1-8.3-28.6c-2-7.6-8.9-14.5-7.8-22.5c-0.8-8.9,1.4-18.1,0.7-26.9c-3.3-2.9-6.3-5.6-9.3-8.3c0-0.4-0.1-0.8-0.1-1.1   c0.3-0.3,0.6-0.6,0.8-0.9c1.6,1,3.3,1.8,3.7,3.9c2.1,2.7,5.8,4.5,7.6,7.4c-1.9,20.2-4.6,28,5.4,46.6c3.5,8.7,6.3,17.7,9.2,26.6   c1.5,6.3,0.4,12.9,3.7,18.6c1.3,0.3,3.2-0.2,4.2,0.8c-8.7,4.6-8.2-8.2-9.9-13.4c-1.3,1.4-2.4,2.6-3.3,3.5c-0.3,3.2-1,5.7-0.7,8.7   C426.8,453.7,421.2,457.4,421.8,463z" />
	<path fill="#060505" d="M395.6,95.7c-0.4,0.5-0.8,1-1.2,1.5c-1-0.6,0.4-2-1.1-2.2c2.7-26.8-13.7-61.5,17-77.9c2.2,1,4.4,2,6.5,3   c-0.3,0.3-0.6,0.6-0.9,0.9c-8-4.8-13.3,5.2-15.4,11.8c-0.4-0.3-0.8-0.7-1.2-1.1c-0.4,1.2-0.8,2.1-0.9,3.3l0-0.1   C390.8,53.7,396.9,76.2,395.6,95.7z M395,40c0.8-1.4,0.8-1.4,0.2-2.8c-3,4.7-3.2,9-2.1,14.9C393.8,47.6,394.4,43.8,395,40z" />
	<path fill="#090807" d="M292.2,525.9c0.1,0.6,0,1.3,0.7,1.6c-4,7.2,4.1,14.4,1.9,21.6c-6.2,8.7,1.3,12.6,6.6,18.8   c-0.3,0.2-0.5,0.5-0.8,0.7c-6.8-4.9-13.8-6.8-9.7-16.2c-0.5-3.8,1.5-7.4,1.3-11.1c-2.4-5.2-2.1-10-0.6-15.3c0,0,0,0,0,0   C291.8,526,292,525.9,292.2,525.9z" />
	<path fill="#13100F" d="M428.4,310.2c-1,1.5-0.2,2.9,0.5,4.2c-0.2,0.5-0.4,0.9-0.6,1.4c-1.6-2.7-3.1-5.5-4.7-8.2   c-5.3-2.9-4.8-11.9-10.3-15.1c-0.1-0.3-0.1-0.6,0-0.2c1.6,3.9-1.2,9-4.9,12.2c-0.8-1-1.4-1.8-1.7-2.2c-0.2-2.3-0.3-4.2-0.5-6.1   c0.3-0.3,0.5-0.6,0.8-1c1.7,1.7,0.3,4.7,1.6,6.1c7.6-4.5-0.8-14.7,2.3-16.5c2.3,1.2,4.1,3,5.4,5.3c-0.5,0.3-0.9,0.6-1.5,0.9   c0.8,1.1,1.5,2.2,2.3,3.3c0.5-0.2,0.9-0.4,1.3-0.6c0,0,0,0,0,0c3.7,4.3,1.9,10.8,6.9,14.2C425.6,309.9,426.6,310.3,428.4,310.2z" />
	<path fill="#13100F" d="M472,82.9c0.2,1-0.3,2.6,1,3.1c0.1,0.8-0.7,1.9,0.8,2.3c-1.1,2.5-6,3.1-2.9,6.2c-0.9,1.6-2.8,1.5-4.3,2.3   c0.4,3.7-2,6.4-3.7,9.4c-0.4,1.7,0.7,4.1-0.8,5.3c-2.6-8.6-0.5-20.2,9.2-23.1C471.5,86.3,471.7,84.6,472,82.9z M463.7,101.5   c1.2-1.5,1.6-2.9,1-4.9C463.6,98.2,462.9,99.5,463.7,101.5z M468.6,93.2c-1.6-0.2-1.6-0.2-2,1C467.2,93.8,467.7,93.6,468.6,93.2z" />
	<path fill="#0C0B0B" d="M356.8,423.6c-0.2-0.9-1-0.9-1.7-0.9c0.6-0.4,1.3-0.8,2.1-1.3c5-12,1.9-23.7,0.3-36.1   c1-0.6,0.5-1.6,0.8-2.4c1.7,5.3,1.7,11,2.9,16.3C366,403.2,361.4,419.7,356.8,423.6z" />
	<path fill="#090807" d="M404.8,344.9c-0.3,0.3-0.6,0.6-0.8,0.9c-8.2-7.2-20-9.4-28.2-16.6c0.5-0.2,0.9-0.4,1.4-0.6   C386.5,333.7,398,336.2,404.8,344.9z" />
	<path fill="#211D1C" d="M401.3,252.9c0.8-0.3,0.6-1,0.8-1.6c3.8,7.3,7.8,14.3,13.2,20.5c2.7,3.8,7.5,6.8,7.3,11.9   c0,0.9,0.3,1.6,0.8,2.2c-0.3,1.2-0.9,0.3-1.4,0.2c-0.3-0.2-0.5-0.5-0.8-0.7l0,0c0-0.6,0-1.2-0.7-1.4c-0.7-1.4-0.8-2.8-0.5-4.4   C413.6,270.7,404.7,263.5,401.3,252.9z" />
	<path fill="#141311" d="M422.5,129c0.3,1.8-0.8,4.4,0.7,5.7c-0.3,5.3,1.1,10.1,3.6,14.6c-3,0.9-8.1-6.6-8.8-9.7   c-0.4,0.1-0.7,0.2-1.1,0.3c0-1.1-0.1-2.2-0.2-3.6c0.5,0.4,0.8,0.6,1.3,0.9c0.1-0.5,0.2-0.9,0.3-1.3c1.6,2.7,1.4,5.9,4.1,7.9   c-1.3-4.4-1.9-8-2.5-12.4c-0.3,0-0.6,0-0.9-0.1c0.6-1.2,1.3-2.5,1.9-3.7c0.1,1.3,0.2,2.5,0.3,4.1   C421.8,130.6,422.1,129.8,422.5,129z" />
	<path fill="#191418" d="M613.6,410.1c13.7,3.7,27.6,6.3,41.1,10.6c-13.8-0.1-28.9-6.6-42.7-9.9C612.5,410.6,613,410.3,613.6,410.1z   " />
	<path fill="#292120" d="M462.1,111.4c1.9-1.5-0.4-4.7,1.4-6.4c-0.1,3.3,0.4,6.9-0.4,10.1c-1.7,1.3-3.4,1-5.2,1.2   c-1.3,1.7-2,4.3-4.2,5.1c-0.8-0.5-1.5-1-2.2-1.6c2.7,0,3.4-1.9,4.1-3.8c-1.9-1.9-4.9-1.8-6.2-4.2c0-0.8,0.4-1.2,1.1-1.8   c1.3,2.6,4.3,2.7,6.4,4.4c1.7-0.4,3.5,0,5.2-0.9C462.1,112.7,462.1,112,462.1,111.4z" />
	<path fill="#181413" d="M488.9,292.6c0.3,0,0.7-0.1,1-0.1c1,0.5,1.8-0.2,2.7-0.5c0.2,0.2,0.5,0.4,0.7,0.5c-0.2,0.5-0.5,0.9-0.6,1.3   c1,1.4,1.9,0.5,2.8,0.2c0.2,0.2,0.5,0.4,0.7,0.6c-0.2,0.6-0.5,1.1-0.8,1.8c2-0.2,3.7-0.3,5.4-0.5c0-0.1,0.1-0.6,0.2-0.8   c0.4,0.5,0.9,1,1.3,1.5c-0.1,0.4-0.2,0.8-0.3,1.1c1.4,0.3,2.7,1.5,3.9,0.3c0.5,0.5,1,0.9,1.4,1.4   C500.7,301.4,493.6,297.2,488.9,292.6z" />
	<path fill="#242120" d="M421.9,286.1c0.5,0.1,1.1,1,1.4-0.2c4,7,6.7,16.5,5.1,24.3c-0.3,0-0.7-0.1-1-0.1c0.8-1.7,0.8-1.7,0-3.4   c0.2-2.2,0.1-4.4-1-6.5c-1.5-2.6,0.2-7.1-2.4-8.9c-0.3-0.8,0.2-2-0.8-2.4l0,0c-0.1-0.4-0.3-0.8-0.4-1.2c-0.2,0.1-0.3,0.3-0.5,0.4   C422,287.6,421.7,286.9,421.9,286.1z" />
	<path fill="#2C2C2C" d="M598.7,73.5c0.2-7,0.1-14.2,1.3-21.1c0.1,1.5,0.1,3,0.2,4.5c0.2,0.2,0.4,0.5,0.6,0.7   c-0.3,9.5-0.7,19.1-1.9,28.5C598.5,81.6,598.6,77.9,598.7,73.5z" />
	<path fill="#262727" d="M584.7,288.3c0.3-5.8,0.3-11.6,1.2-17.3c0.9,7.4,0.8,15-0.4,22.6C585.3,291.7,585.7,289.8,584.7,288.3z" />
	<path fill="#202121" d="M595.1,144.6c-0.3,5.8-0.3,11.6-1.2,17.3c-1.1-7.2-0.5-14.5,0.4-21.9C594.4,141.6,594.3,143.2,595.1,144.6z   " />
	<path fill="#292929" d="M582.7,348.3c-2.2-0.4,0-3.1-1.6-4.1c0.3-4.2,0.5-8.5,0.8-12.7c0.2,0,0.4,0,0.6,0   C582.7,337,582.1,342.7,582.7,348.3z" />
	<path fill="#1E1F1F" d="M601.6,27.1c0.3-4.2,0.5-8.5,0.8-12.7c1.5,5.1,0.8,11.1,0,16.5C602.4,29.6,602.4,28.3,601.6,27.1z" />
	<path fill="#1C1C1C" d="M587.5,245.8c0.2-4,0.5-8,0.7-12c1.5,4.9,0.8,10.7,0,15.8C588.2,248.2,588.2,246.9,587.5,245.8z" />
	<path fill="#1D1C1C" d="M588.1,252.9c-0.2,4-0.5,8-0.7,12c-1.5-4.9-0.8-10.7,0-15.8C587.3,250.4,587.3,251.7,588.1,252.9z" />
	<path fill="#292929" d="M583.3,326.8c-0.1,1.5-0.1,3.1-0.2,4.6c-0.2,0-0.4,0-0.6,0c-0.4-7.5,0.9-14.5,0.8-21.9c0.2,0,0.4,0,0.6,0   l0,0C584.4,315.4,583.2,321,583.3,326.8z" />
	<path fill="#1C1B1B" d="M600.8,41c0-3.5-0.2-7,0.7-10.5c1,5.2,0.4,10.4,0,15.8C600.5,44.6,600.9,42.8,600.8,41z" />
	<path fill="#212020" d="M586.6,259.6c0.6,5.5,0.6,10.9,0,16.6C585.1,271,585.8,265,586.6,259.6z" />
	<path fill="#1F1E1E" d="M595.1,144.6c-1.6-4.9-0.8-10.7,0-15.8C596.1,134,595.5,139.2,595.1,144.6z" />
	<path fill="#0E0E0E" d="M597.4,107.4c0,3.5,0.1,7.1-0.7,10.6c-0.3-0.8,0.3-1.9-0.8-2.4c0.2-4,0.5-8,0.7-12   C597.6,104.6,597.3,106,597.4,107.4z" />
	<path fill="#1C1B1B" d="M593.1,157.3c1.6,4.9,0.7,10.7,0.1,15.8C592.4,167.9,592.6,162.7,593.1,157.3z" />
	<path fill="#0E0E0E" d="M595.9,132.6c-1.6-4.4-0.8-9.7-0.1-14.4c0.3,0.8-0.3,1.8,0.8,2.3C596.4,124.5,596.1,128.6,595.9,132.6z" />
	<path fill="#212020" d="M590.2,205.1c-0.1-3.5-0.1-7.1,0.7-10.6c0.8,5.3,0.6,10.4,0.1,15.8C589.9,208.8,590.3,206.9,590.2,205.1z" />
	<path fill="#1A1B1B" d="M592.4,168.7c1.6,4.7,0.8,10.3,0.1,15.1C591.8,178.8,591.9,173.8,592.4,168.7z" />
	<path fill="#302D2D" d="M603.1,20.4c-0.1-3.9-0.4-7.5-1.7-11.3c0.7-0.1,1.3-0.2,2.2-0.4C603.9,12.7,604,16.6,603.1,20.4z" />
	<path fill="#1A1B1B" d="M591,190.6c0-2.5-0.2-4.9,0.5-7.3c0.1,4,1.7,7.8,0.2,11.8C591.7,193.5,591.9,191.9,591,190.6z" />
	<path fill="#1E1F1F" d="M597.4,107.4c-0.3-3.7-1.6-7.3-0.2-11.2C597.2,100,598.9,103.6,597.4,107.4z" />
	<path fill="#1E1F1F" d="M598.7,89.4c0,2.2,0.2,4.5-0.5,6.7c-0.1-1.3,0.2-2.8-0.8-3.9c0-2.5-0.2-4.9,0.6-7.3   C598,86.5,597.8,88.1,598.7,89.4z" />
	<path fill="#2B2B2B" d="M590.2,205.1c-0.2,4.1,1.7,7.9,0.2,12C590.5,213,588.5,209.2,590.2,205.1z" />
	<path fill="#352624" d="M415.9,21c0.3-0.3,0.6-0.6,0.9-0.9c2.1,0.6,4,1.4,5.7,2.8c-0.5,0.1-1.2,0-1.5,0.7c-1.8-0.6-3.3-2-5.4-2.1   C415.9,21.3,416,21.2,415.9,21z" />
	<path fill="#2D2D2D" d="M585.2,298.1c-0.2,2.2-0.3,4.4-0.5,6.7c-0.1-4.3-1.1-8.2-0.3-12.6C584.6,294.2,584.1,296.4,585.2,298.1z" />
	<path fill="#282828" d="M600.8,41c-0.2,4.1,1.7,7.9,0.2,11.9C601.1,48.8,599.2,45,600.8,41z" />
	<path fill="#2B2B2B" d="M588.9,239c0.1-4.1-1.7-7.9-0.3-12C588.4,231.1,590.5,235,588.9,239z" />
	<path fill="#2B2B2B" d="M588.9,222.4c0.2-2.2,0.3-4.4,0.5-6.6c-0.3,4.1,1.8,7.9,0.3,11.9C589.6,225.9,589.9,224,588.9,222.4z" />
	<path fill="#24211F" d="M300.7,568.6c0.3-0.2,0.5-0.5,0.8-0.7c1.6,1,3.4,1.7,4.5,3.3c-0.3,0.3-0.6,0.5-0.9,0.8   C303.4,571,301.8,570.1,300.7,568.6z" />
	<path fill="#574B48" d="M377.2,328.6c-0.5,0.2-0.9,0.4-1.4,0.6c-1.7-0.9-3.3-1.8-5-2.7c0.3-0.3,0.6-0.6,0.8-0.9   C373.5,326.6,375.4,327.6,377.2,328.6z" />
	<path fill="#2B2B2B" d="M588.9,222.4c1.5,3.2,0.5,7.1,0.6,10.6C588,229.8,588.9,225.9,588.9,222.4z" />
	<path fill="#272626" d="M584,298.9c1.5,3.2,0.5,7.1,0.5,10.6c-0.2,0-0.4,0-0.6,0l0,0C583.8,305.9,583.8,302.4,584,298.9z" />
	<path fill="#272626" d="M585.2,298.1c-1.4-3-0.6-6.6-0.6-9.9C586.1,291.3,585.2,294.9,585.2,298.1z" />
	<path fill="#212020" d="M590.2,221.7c-1.4-3-0.5-6.6-0.6-9.9C591.1,214.8,590.1,218.5,590.2,221.7z" />
	<path fill="#1C1B1B" d="M600.2,47.7c1.4,2.8,0.6,6.2,0.6,9.2c-0.2,0-0.4,0-0.7,0C600,53.8,600,50.7,600.2,47.7z" />
	<path fill="#1C1C1C" d="M598.7,89.4c-1.5-2.8-0.5-6.2-0.6-9.2C599.4,83,598.7,86.4,598.7,89.4z" />
	<path fill="#1B1A1A" d="M591,190.6c1.4,2.5,0.5,5.7,0.6,8.5C590.2,196.5,591,193.4,591,190.6z" />
	<path fill="#1B1A1A" d="M592.3,187.8c-1.4-2.5-0.5-5.7-0.6-8.5C593.1,181.8,592.3,185,592.3,187.8z" />
	<path fill="#1C1C1C" d="M597.4,92.2c1.6,2.4,0.5,5.7,0.6,8.5C596.6,98.1,597.4,95,597.4,92.2z" />
	<path fill="#0C0C0C" d="M602.2,34.2c-1.3-2.1-0.6-4.7-0.6-7.1C602.9,29.2,602.2,31.8,602.2,34.2z" />
	<path fill="#0D0D0D" d="M588.1,252.9c-1.3-2.1-0.6-4.7-0.6-7.1C588.7,247.9,588.1,250.5,588.1,252.9z" />
	<path fill="#050303" d="M420.4,459.5c1,1.2,1,1.8-0.1,2.9C419.8,461.4,419.6,460.4,420.4,459.5z" />
	<path fill="#362F2E" d="M428.3,315.8c0.2-0.5,0.4-0.9,0.6-1.4c0.5,0.9,1,1.9,1.4,2.8c-0.3,0.3-0.6,0.6-0.9,0.9   C429,317.4,428.7,316.6,428.3,315.8z" />
	<path fill="#2D2D2D" d="M583.9,309.5c0.2,0,0.4,0,0.6,0c0.1,2,0.3,4.1-0.5,6.1C583.9,313.5,583.9,311.5,583.9,309.5z" />
	<path fill="#2F2F2F" d="M582.5,331.4c0.2,0,0.4,0,0.6,0c0.1,2,0.2,4.1-0.5,6C582.5,335.5,582.5,333.4,582.5,331.4z" />
	<path fill="#302F2F" d="M598.7,73.5c-0.2,2,0.6,4.3-0.5,6C598,77.4,597.9,75.4,598.7,73.5z" />
	<path fill="#2D2D2D" d="M583.8,303.4c0,2,0.1,4,0.1,6c-0.2,0-0.4,0-0.6,0C583.2,307.4,583,305.4,583.8,303.4z" />
	<path fill="#2F2F2F" d="M583.3,326.8c0.2-2-0.7-4.3,0.5-6C583.9,322.9,584,324.9,583.3,326.8z" />
	<path fill="#2F2F2F" d="M583.1,314.1c-0.2,2,0.7,4.3-0.5,6C582.4,318,582.4,316,583.1,314.1z" />
	<path fill="#2F2F2F" d="M582.4,325.4c0,2,0.1,4,0.1,6.1c-0.2,0-0.4,0-0.6,0C581.8,329.4,581.5,327.3,582.4,325.4z" />
	<path fill="#0D0D0D" d="M596.6,120.5c-1.5-1.1-0.5-3.3-0.7-5C597.4,116.7,596.5,118.9,596.6,120.5z" />
	<path fill="#DFDFDF" d="M579.1,186.7c0-1.1,0-2.2,0-3.3C579.8,184.4,579.8,185.5,579.1,186.7z" />
	<path fill="#EADCB8" d="M291.6,526.1c-0.2,1,0.2,2.1-0.7,2.9C290.9,528,290.3,526.8,291.6,526.1z" />
	<path fill="#E1C7B6" d="M403.5,345.5c0.2,0.1,0.4,0.1,0.5,0.3c0,0.4,0.1,0.8,0.1,1.1C403.3,346.7,403.3,346.2,403.5,345.5z" />
	<path fill="#24211F" d="M306.4,573.5c0.8,0.2,0.8,0.8,0.7,1.4C306.9,574.4,306.6,573.9,306.4,573.5z" />
	<path fill="#24211F" d="M307.1,574.9c0.8,0.3,0.8,0.9,0.7,1.5C307.5,575.9,307.3,575.4,307.1,574.9z" />
	<path fill="#F6D9C7" d="M358.3,422c0.1-0.2,0.3-0.4,0.4-0.7C358.6,421.5,358.4,421.7,358.3,422z" />
	<path fill="#282828" d="M600.2,56.8c0.2,0,0.4,0,0.7,0c0,0.2,0,0.5,0,0.7C600.6,57.3,600.4,57.1,600.2,56.8z" />
	<path fill="#EADCB8" d="M292.2,525.9c-0.2,0.1-0.4,0.1-0.6,0.2c0.2-0.3,0.3-0.5,0.5-0.8C292.1,525.5,292.2,525.7,292.2,525.9z" />
	<path fill="#24211F" d="M305.1,572c0.2,0.2,0.4,0.4,0.6,0.6C305.5,572.4,305.3,572.2,305.1,572z" />
	<path fill="#24211F" d="M305.8,572.7c0.2,0.3,0.4,0.5,0.6,0.8C306.2,573.2,306,573,305.8,572.7z" />
	<path fill="#24211F" d="M308,577c0.2,0.3,0.3,0.6,0.5,0.9C308.3,577.6,308.1,577.3,308,577z" />
	<path fill="#F6D9C7" d="M438.7,172.9c1.6,25.6,14.1,47.8,35,62.3c10.4,12,16.3,29,29.5,38.2c1-0.3,1.7-0.5,2.6-0.7   c1.2,2.2,2.1,3.9,4.4,4.9c1.4,4.8,3.6,9.3,5,14.1c-2.6,1-4.8-1.8-4.1-4.1c-2.2-3.1-4.7-4.4-7.8-3c-4.3-5.4-11.5-7.8-15.5-13.3   c-0.6-2.2-2.3-3.2-4.1-4c-10.8-5-22.8-9.2-29.5-19.8c2.9,0.1,5.6,1.3,7.9-0.8c-0.4-1-0.8-2.1-1.3-3.3c2.9-0.5,5.6,1.4,8.6-0.1   c-0.7-0.7-0.5-1.9-1.7-2.2l0,0c-0.2-2.6-3.2-3.5-4.8-5.1c-3.9-0.2-5.4,0.2-5.2,4.6c-9.9-1.9-18.1-7.6-25.1-14.3   c0.8,0,1.3-0.1,1.9-0.1l0,0c1.2,2,4.7-1.4,7.1,0.7c2.3,0.2,0.6-2.5,0.3-3.5c-7.8-4.7-16.3-7.7-24.8-10.9c-3.1-4.4-5.6-9.2-8-14.6   c6.6,0.6,18.4,8.4,23.9,4.6c-5.4-7-13.5-10.3-21.1-14.4c-6.4-3.7-12.2-8.1-17.7-13.1c-5.7-5-10,1.4-6.4,6.3   c-2.1,3.4-0.8,7.4-2.1,10.8c-2.9,4.9-4.9,10.4-8.2,14.9c-13.5,2.5-26.8-7.5-31.5-19.7c3.2-5.4,2.4-12.2,5.3-17.5   c2.1,6.2,4.1,12.5,10.5,15.4c-0.3-21.9-9.7-23.1,3.3-46.9C388.2,125.2,425.6,154.4,438.7,172.9z" />
	<path fill="#92A3C5" d="M608.9,327.3c1.8-1.8,4.3-1.5,6.6-2.1c13,18.1,12.6,46.9,1.5,66.2c-2.1,4.9-10.2,15.6-15.1,8.5   c-10.9-21.9-7.5-50.8,5.6-71.2c0,0,0,0,0,0C607.9,328.2,608.4,327.8,608.9,327.3z M612.9,360.4c-3.6,2-5.5,9.9-1.6,12.9   c5.8-2.3,7.3-8.4,5.5-14C614.8,358.3,614.8,358.3,612.9,360.4z" />
	<path fill="#798BB3" d="M596.7,342.9c-5.1,17.6-5.9,38,1.4,54.7c-0.3,2.1-2.2,2.5-3.6,3.3c-12.5-9.7-9.7-30.2-7.6-44.3   c1.2,0.6,2.2,1.1,3.4,1.7c3.6-2.4-0.4-4.5-2.4-6.2c1.3-8.8,6.6-36.8,19.9-25.7c-5.2,1.2-12.7,6.9-9.8,12.9l0,0   c-0.4,0.1-0.8,0.1-1.4,0.3C596.7,340.7,596.7,341.8,596.7,342.9z" />
	<path fill="#34A45E" d="M489.1,283.2c1.8,0.3,3.2,1.4,4.4,2.7c3.9,4.9,10.4,1.8,15.3,4.5c0.3,2-2.4,1.1-3.6,2.5   c2.5,0.9,4.1,2.6,6.5,2.5c-0.8,0.9-1.7,1.9-2.6,2.9c-7.9-5.3-16.3-8.4-23.7-14.7C486.9,283.3,487.7,283.2,489.1,283.2z" />
	<path fill="#0B0B0C" d="M546.4,296c-0.7,5.9-0.2,11.9-1.4,17.7c-0.3,0-0.6-0.1-1-0.1c0.7-7.8,0.1-15.8,1.5-23.4   c0.2,0.8-0.3,1.8,0.7,2.3C546.3,293.7,546.4,294.9,546.4,296z" />
	<path fill="#16181B" d="M544.2,330c-0.3,6.8-0.5,13.6-0.8,20.4c-0.2,0.1-0.4,0.2-0.5,0.3c-0.8-7.6-0.8-16.1,0.6-23.6   C543.5,328.1,543.4,329.2,544.2,330z" />
	<path fill="#444954" d="M513.4,296c1.7,0.1,3-0.3,4.4,0.3c0.3,3.1-3,5.3-5.3,7.6c-0.2-0.9-0.4-1.5-0.6-2.3c-0.4-0.3-1-0.8-1.6-1.3   C510.4,298.5,512.2,297.6,513.4,296z M516,297.5c-2.6,0-2.8,1.7-3.6,2.9c0.4,0.4,0.7,0.8,1.1,1.2C515,300.4,514.4,299,516,297.5z" />
	<path fill="#1D1E1E" d="M579.7,366.1c0.2-5,0.5-9.9,0.7-14.9c0.7,0.5,1.4,0.9,2.1,1.4c-2.1,5-0.4,11.8-2,17.2   C580.4,368.5,580.4,367.2,579.7,366.1z" />
	<path fill="#46B475" d="M511.7,295.3c-2.4,0.1-4-1.6-6.5-2.5c1.4-1.3,2.7-0.6,3.7-1.9C510.7,291.9,516.3,293.9,511.7,295.3z" />
	<path fill="#596785" d="M598.1,339.2c-1.4-2.3-0.9-4.4,0.7-6.4c0.1,0.4,0.1,0.8,0.2,1.6c1.4-1.3,3.8-6.2,5.4-4.5l0,0   C601.6,332.6,600,336,598.1,339.2z" />
	<path fill="#141318" d="M604.4,330c-1.6-1.7-4,3.2-5.4,4.5c-0.1-0.8-0.2-1.2-0.2-1.6c2.8-4.4,4.5-5.1,9.1-6.6c0.3,0.3,0.7,0.7,1,1   c-0.5,0.5-1,0.9-1.5,1.4c-0.2-0.2-0.4-0.5-0.7-0.8C605.9,328.6,605.1,329.3,604.4,330z" />
	<path fill="#222219" d="M513.1,293.2c-1.5-0.6-2.7-1.8-4.2-2.2c0-0.2,0-0.4-0.1-0.6c0.7-0.1,1.4-0.2,1.6-1c0.2,0,0.4,0.1,0.6,0.1   c0.3,1.5,2.7,2.7,4.1,2C515.1,292.8,513.7,292.4,513.1,293.2z" />
	<path fill="#30363E" d="M525.8,307.4c-1.2,0-4.9-1.6-2.7-2.8C524.2,305.3,525.2,306.1,525.8,307.4L525.8,307.4z" />
	<path fill="#6B635A" d="M506,298.2c-1.2,1.2-2.5-0.1-3.9-0.3c0.1-0.3,0.2-0.7,0.3-1.1C503.8,296.6,504.8,297.7,506,298.2z" />
	<path fill="#596785" d="M596.7,342.9c0-1.1,0-2.2,0-3.4c0.6-0.1,1-0.2,1.4-0.3C598.2,340.7,597.5,341.8,596.7,342.9z" />
	<path fill="#353941" d="M519.5,300.2c0.6,1.5,0.7,1.5-1.1,2C517.9,301.2,518.5,300.8,519.5,300.2z" />
	<path fill="#798299" d="M551.2,322.3c0.5,0.4,1,0.9,1.4,1.3c0,0.3,0,0.6-0.1,1.1c-0.9-0.1-1.4-0.7-2-1.3   C550.8,323,551,322.7,551.2,322.3z" />
	<path fill="#464D58" d="M521.7,302.4c-0.1,1.2-0.1,1.9-0.2,2.7C520.1,303.9,520.1,303.9,521.7,302.4z" />
	<path fill="#333C4E" d="M542.3,319.4c-0.5-0.3-1-0.5-1.6-0.9c0.4-0.5,0.6-0.8,0.9-1.1C542.6,317.9,543.2,318.3,542.3,319.4z" />
	<path fill="#30363E" d="M525.9,307.3c0.3,0.1,0.7,0.1,1.1,0.2C526.3,308.3,526.1,307.8,525.9,307.3L525.9,307.3z" />
	<path fill="#141318" d="M607.4,328.7c-0.2,0.3-0.5,0.6-0.7,0.8C606.6,329,606.8,328.7,607.4,328.7z" />
	<path fill="#141318" d="M603.7,330.7c0.2-0.3,0.4-0.5,0.6-0.8C604.2,330.2,603.9,330.5,603.7,330.7z" />
	<path fill="#161718" d="M556.4,123.4c-0.9,10.2-0.6,20.6-2.1,30.6c-0.1-1.3,0.2-2.7-0.7-3.7c0.9-10.6,0.4-21.5,2-32   c0.4,1-0.4,2.2,0.7,3C556.2,121.9,556.3,122.6,556.4,123.4z" />
	<path fill="#17181C" d="M562,4.4c2,8.1-0.1,17.9-0.6,26.5c-0.1-1.3,0.2-2.6-0.7-3.7c0-7.5,1.5-15.2,0.2-22.6   C561.3,4.5,561.6,4.4,562,4.4z" />
	<path fill="#0C0C0D" d="M550.7,221.7c-0.3,5.6-0.6,11.2-0.9,16.9c-0.2,0.1-0.4,0.2-0.5,0.3c-0.3-0.3-0.5-0.6-0.8-0.9   c0.8-7.1-0.1-14.5,1.3-21.4c0.2,0.8-0.3,1.7,0.7,2.3C550.6,219.8,550.6,220.8,550.7,221.7z" />
	<path fill="#0C0D0E" d="M548.5,255.7c-0.4,6.8-0.6,13.6-0.8,20.3c-0.2,0.1-0.4,0.2-0.5,0.3c-0.2-0.8,0.3-1.8-0.7-2.3   c0.8-6.8-0.1-14.1,1.3-20.7C547.9,254.2,547.4,255.2,548.5,255.7z" />
	<path fill="#0B0B0B" d="M552.7,181.4c0,6.8-0.8,13.5-0.8,20.4c-0.2,0.1-0.4,0.2-0.5,0.3c-0.1-0.6,0-1.3-0.7-1.6   c0.8-6.8-0.1-14.1,1.3-20.7C552.1,180.4,551.9,181.1,552.7,181.4z" />
	<path fill="#0C0C0D" d="M559.9,61.8c-0.8,5.9-0.2,12-1.4,17.9c-0.2-0.8,0.3-1.8-0.7-2.3c0.7-6.7,0.1-13.4,1.3-20   C559.8,58.7,559.8,60.2,559.9,61.8z" />
	<path fill="#0C0D0D" d="M557.7,95.8c0.1,6.6-0.8,13.1-0.7,19.7c-0.2,0.1-0.4,0.2-0.5,0.3c-0.1-0.6,0-1.3-0.7-1.6   c0.7-6.7,0.1-13.4,1.3-20C557,94.8,556.9,95.5,557.7,95.8z" />
	<path fill="#0B0B0C" d="M553.5,150.3c1.5,4.7,0.7,10.8,0,15.7c-0.2-0.8,0.3-1.8-0.8-2.3C553,159.2,553.3,154.8,553.5,150.3z" />
	<path fill="#0B0C0C" d="M548.5,255.7c-1.1-0.5-0.5-1.5-0.8-2.3c0.3-4-0.4-8.2,0.7-12c0.2,0.8-0.3,1.8,0.7,2.3   C549.5,247.7,548.7,251.7,548.5,255.7z" />
	<path fill="#0B0B0C" d="M546.4,274.1c1.9,4,0.3,9.5,0.6,14c-0.2,0.1-0.4,0.2-0.5,0.3c-0.1-0.6,0-1.3-0.8-1.6   C545.4,282.6,546,278.3,546.4,274.1z" />
	<path fill="#0B0B0B" d="M550.5,218.9c-1.5-4-0.7-10,0-14.3c0.1,0.6,0,1.3,0.7,1.6C551.8,210.5,550.9,214.6,550.5,218.9z" />
	<path fill="#0C0C0C" d="M557.7,95.8c-1.6-3.4-0.6-9.7-0.1-13.6c0.3,0.3,0.5,0.6,0.8,0.9C558.6,87.3,558.1,91.5,557.7,95.8z" />
	<path fill="#0C0C0D" d="M561.2,34.2c-0.2,4.2-0.5,8.5-0.7,12.7c-1-0.5-0.5-1.5-0.7-2.3c0.4-4-0.5-8.3,0.7-12   C560.6,33.2,560.4,33.9,561.2,34.2z" />
	<path fill="#0A0A0A" d="M552.7,181.4c-0.8-0.3-0.7-1-0.8-1.6c0.3-4-0.4-8.2,0.7-12.1c0.1,0.6,0,1.3,0.8,1.6   C553.6,173.4,553.2,177.4,552.7,181.4z" />
	<path fill="#0C0C0D" d="M559.8,44.7c0.2,0.8-0.3,1.8,0.7,2.3c0.2,4.1-0.4,8-0.7,12C558.4,54.6,559,49.1,559.8,44.7z" />
	<path fill="#0B0B0C" d="M561.2,34.2c-1.7-1.7-0.3-4.8-0.6-7C561.9,29.2,561.1,31.9,561.2,34.2z" />
	<path fill="#0B0C0C" d="M555.6,114.2c1.6,1.7,0.2,4.8,0.6,7.1C554.8,119.3,555.8,116.5,555.6,114.2z" />
	<path fill="#09090A" d="M545.7,286.8c1.6,1.2,0.4,3.9,0.6,5.7C544.9,291.1,545.9,288.7,545.7,286.8z" />
	<path fill="#0B0B0C" d="M549.1,243.7c-1.4-1.4-0.4-3.8-0.6-5.7c0.3,0.3,0.5,0.6,0.8,0.9C549.2,240.5,549.2,242.1,549.1,243.7z" />
	<path fill="#0A0A0A" d="M553.4,169.4c-1.6-1.2-0.4-3.9-0.6-5.6C554.3,165.1,553.2,167.5,553.4,169.4z" />
	<path fill="#0B0B0C" d="M558.4,83c-0.3-0.3-0.5-0.6-0.8-0.9c0.1-1.6,0.1-3.2,0.2-4.8C559.2,78.8,558.1,81.2,558.4,83z" />
	<path fill="#0A0A0A" d="M551.3,206.2c-1.5-1.3-0.3-3.9-0.6-5.7C552.2,201.8,551,204.4,551.3,206.2z" />
	<path fill="#F6D9C7" d="M357.4,385.2c1.6,12.4,4.7,24.1-0.3,36.1c-6.3,4.6-5.9,14.9-11.6,20.2c-1.4,2.3-1.3,5.6-3.4,7.7   c-2.4-4.3,0.2-9.9-2.7-14.2c-0.7-0.9,0.2-2.7-1.3-3l0,0c-1-2.8-5.5-12.6-7.7-5.8c1.2,6.3,5.9,11.2,8.5,17c0.7,2.5-2,12.6,2.3,11.3   c0.2,0.3,0.4,0.5,0.7,0.8c-4.7,23.6-18.8,44.5-18.8,69.2c-8.2,5.5-16,5.4-18.2,16.3c-0.7-0.1-1.3-0.2-2.1-0.4   c0-20.9,9.5-42.5,7.7-62.7c-2.3,4.3-3.3,8.7-4.7,13c-0.1-9.1-0.8-18.5,1.2-27.1c-2.4-3.3,2-2.3,1-5.1c-0.5,0.3-0.8,0.5-1.1,0.8   c-1.1-1-0.6-1.8,0.3-2.5c0.4,0.3,0.7,0.6,1,0.9c0.8-0.5,1-1.2,0.8-2c1-1.5,1.1-2.7,0.1-4.4c1.2-0.9,3.2-0.6,2.9-2.5   c1-1.8,1.1-4.1,2.8-5.6c3.9-4.1,2.1-10.4,6.3-14.4c3.9-4.6,5.3-11.9,4.1-17.8c-3.9-17.3-4.3-35.5-12.9-51.4   c-10.3-18.8-14.5-40.3-17.2-61.3c12.9-6.4,25.4-2.5,36.1,5.4c5.6,9.5,4.2,22.1,8.9,32.3C345.6,352.5,351.8,368.7,357.4,385.2z    M337.4,409.3c-2.9,2.3-2.2,3.9-0.4,6.2c2.1,2.7,3.2,7.2,7,7.9c3-4.5,1-10.8-2.8-14C339.9,409.3,338.7,409.3,337.4,409.3z    M347.9,397.6c0.2,0.1,0.4,0.3,0.7,0.4c1.7-1.4,1.4-3.1-0.4-4.6C348.1,394.9,348,396.3,347.9,397.6z M347.2,384.1   c-0.7-1.4-1-2.1-1.5-3.1C345.2,382.3,344.9,383.3,347.2,384.1z M346.9,387.6c0.2,0,0.3,0,0.5,0c0-0.5,0-1,0-1.6c-0.2,0-0.3,0-0.5,0   C346.9,386.6,346.9,387.1,346.9,387.6z M347.9,390.4c-0.1,0-0.2,0-0.3,0.1c0,0.3,0,0.6,0.1,0.8c0.2-0.1,0.3-0.1,0.5-0.2   C348.1,390.9,348,390.6,347.9,390.4z" />
	<path fill="#F6D9C7" d="M428.3,315.8c3.8,8.9,12.4,14.7,17.2,22.7c5.2,31.8,1.4,63.6,3.3,95.7c-1.5,2.5-2.6,5.3-1.4,8.6   c-2.3,2.4-5.5,2.6-7.9,4.6c-0.2-0.1-0.5-0.1-0.7-0.2c0.5-29.9-27.5-53.9-18-83.9c1.5,0.1,1.9,1.8,3.2,2.5l-0.1,0.2l0.1-0.2   c1.1,1.8,3.1,2.6,4.5,3.9c-0.4,0.5-0.8,1-1.1,1.4c0.6,4.1,2.5,7,4,10.9c0.6-4.3-1.5-7-2-11.1c0.5-0.5,0.9-1,1.3-1.4   c-5.7-18.2-22.2-32.2-33.6-47.5c-13.4-12.4-29.8-23.4-39.3-39.2c8.4-9,15.5-19.5,26.5-25.2c3.7,4.4,6.8,8,10.5,12.6   c0.6,2-0.4,6.1,2,7.3c4.7,9.4,9.9,12.8,9.6,24.6c0.3,0.4,0.9,1.2,1.7,2.2c3.6-3.5,6.3-7,5-12.1l-0.1,0.1c5.6,3.2,5,12.2,10.3,15.1   C425.1,310.4,426.7,313.1,428.3,315.8z M437.9,347.6c0.6,0.3,1.2,0.5,2,0.8C442.8,337.3,429.2,341.5,437.9,347.6z M431,342.9   c-2.9-3.6-8-7.9-12.9-6.8c-0.4,0.8-0.9,1.7-1.3,2.5C419,343.2,427,347.3,431,342.9z M432.1,330.9c-0.3,2.6-0.3,2.6,0.8,4.5   C433,333.8,434.8,330.9,432.1,330.9z M430.7,395.8c1.9-0.7,1.9-0.7,1.2-2C431.5,394.4,431.3,394.8,430.7,395.8z M432.3,339.2   c-0.5-0.4-0.6-0.5-0.8-0.6C430.6,339.5,431.4,339.9,432.3,339.2z M432.5,384.7c-0.3,0-0.5,0-0.8,0c0.1,0.5,0.1,1,0.2,1.5   c0.1,0,0.2,0,0.3,0C432.3,385.7,432.4,385.2,432.5,384.7z M431.7,390.3c0.2,0,0.3,0.1,0.5,0.1c0-0.5,0-1,0-1.4c-0.1,0-0.2,0-0.4,0   C431.8,389.4,431.8,389.9,431.7,390.3z M432.4,400.8c-0.2-0.2-0.4-0.3-0.5-0.5c-0.2,0.2-0.4,0.5-0.7,0.7   C431.8,401.6,432,401.1,432.4,400.8z" />
	<path fill="#F6D9C7" d="M462.1,111.4c0,0.7,0,1.4,0,2.2c-1.6,0.9-3.4,0.5-5.2,0.9c-2.1-1.7-5-1.8-6.4-4.4c-0.8,0.6-1.1,0.9-1.1,1.8   c1.4,2.4,4.3,2.3,6.2,4.2c-0.7,1.9-1.4,3.8-4.1,3.8c-3.3-1.7-7.6,0.8-10.6-2.3c-0.6,0.5-0.9,0.8-1.2,1c0,2,2.1,2.8,2.9,4.4   c-0.4,0.4-0.7,0.8-1.1,1.3c0.9,2.7,4.4,1.8,6,3.5c-1.3,5.7-4.1,5.7-9.3,5.4c-12.2-2-21.3-13.5-25.8-23.9c-0.4-1.2-0.5-2.6-1.4-3.6   l0,0c0-2.4,1.3-4.8,0.3-7.2c-0.6-1.2-0.5-2.2,0.5-3.2c0.8-0.9,0.8-1.8,0.2-2.9c-1.1-0.1-2.3-0.8-3.1,0.6c-1.2,0.2-1.6-0.6-2.2-1.4   c0.2-0.3,0.5-0.5,0.7-0.8c1.5-0.1,2.8-0.9,4-1.5c1.2-2.9-2-4.2-1-6.9c1.2,0,2.3-0.2,3.4-0.8c2.1,2.3,5.4,5.4,7.9,1.6   c1.8-3.5,6.1-3.9,7.7-7.4c2-3.5,3.8,1.1,6.4-0.9c-0.6-0.5-1-0.8-1.4-1.1c-0.3-5.3,5,1.6,6.3-1.5c-0.9-0.5-1.9-1-2.8-1.6   c0.1-0.7,0.2-1.2,0.4-1.8c-0.6-0.7-1.2-1.4-1.9-2.1c0.8-0.8,1.5-1.6,2.3-2.4c0.4,0,0.9,0,1.9,0c-7.6-5.9-12.5-14.6-21.1-19l0,0   c-0.2-0.2-0.5-0.5-0.7-0.7l0,0c-0.2-0.2-0.5-0.5-0.7-0.7l0,0c-0.7-0.7-1.4-1.4-2.1-2.1c8.2,0.3,20.2,18.1,25.3,18.2   c1-2.6,3.8-0.3,5.7-0.4c0.8,0.8,1.4,1.8,2.9,1.2c-1-1.2-0.9-2.8,0.9-2.8c3.4,2.5,5.9,5.3,10.5,4.3c0.5,0.6,1.2,2.6,2.1,1.4   c1.3,0.6,2.3,2.1,3.6,0.7c2.5-0.2,0.4-3.1,1.9-4.2c0.3,6,1.3,1.9,4.3,3.5c1.2,8-2.1,16.1-2.2,24.3   C461.6,91.2,459.5,102.7,462.1,111.4z M439.2,88.5c3.4,0.9,6.7-0.7,10-0.4c6.4,4.2,6.9,4.4,8.7,3.8   C454.2,85.5,445.2,84.3,439.2,88.5z M442.1,93.6c3.2,1.8,5.4,4.7,9.4,3.9c0.9-1,2.7-1,3.5-3C450.4,94.4,446.6,93.6,442.1,93.6z" />
	<path fill="#F6D9C7" d="M352.5,225.2c10.7,4,22.4,6.8,33.4,2.2c-16.2,36.9-63.8,47.5-97.3,27.8c6-13.4,20.1-21.2,32.5-26.6   c-0.1,2.3,0.1,5.3,3.3,4.4c3-1.8,3-5.2,5.6-7.1c1.4,5.2,4.7,12.8,10.6,7.4c-0.6-0.5-0.9-0.7-1.1-1c1.6-3.4-3-7.2-0.8-11.1   c3.6,2,9.1,13,13.7,7.7c0.2,0,0.5,0.1,0.7,0.1c0.3,0.6,0.6,0.5,1.1,0.2C353.4,228.2,350.6,226.4,352.5,225.2z M361,239.5   c4.4-2.3,9.5-3.6,12.7-7.6c-6,1.8-11.3,6.5-17.8,8.8C358.1,240.9,359.6,240.4,361,239.5z M348.1,234.2c-1.6-3.4-5.8-1.4-4.7,2.1   c1.2,1.1,2.1,3.3,4.7,1.9C348.1,236.9,348.1,235.6,348.1,234.2z M342,248.3c1.2,0.6,1.3-0.2,1.9-0.8   C342.6,246.9,342.3,247.5,342,248.3z M347.1,244.5c0,0.1,0,0.3,0,0.4c0.6,0,1.2,0,1.7,0c0-0.1,0-0.3,0-0.4   C348.2,244.5,347.6,244.5,347.1,244.5z M352.7,242.4c0,0.2,0,0.3,0,0.5c0.5,0,1-0.1,1.4-0.1c0-0.2,0-0.3,0-0.5   C353.7,242.3,353.2,242.3,352.7,242.4z" />
	<path fill="#E1C7B6" d="M306.4,465.8c-0.5,8.1-1,16.6-0.5,25c1.4-4.3,2.4-8.7,4.7-13c1.8,20.1-7.7,41.8-7.7,62.7   c0.8,0.1,1.4,0.2,2.1,0.4c-1.7,1.8-4.2-0.4-6.1-0.8c-0.2-1.4-0.4-2.7-0.7-4.3c3.1-3.6,2.8-9.2,3.2-13.8c0.1-2.5,1.7-4.7,0.2-7.2   c0.3-0.7,0.7-1.4,1-2c-0.1-1.2-1.6-1.7-1.1-3c0.4,0.1,0.8,0.1,1.3,0.2c0-0.6,0-1,0-1.5c-0.6,0.2-0.9,0.3-1.3,0.5   c-11.1-98.4,39.6-58.2,8.5-126.6c1.6-1.5-2.6-10.7-3.9-12.5c-1.3,0.5-1,1.7-1.2,2.7c-10.1-19.2-22.8-37.2-31.2-57.2   c4.5-8.8,11.4-15,21.4-17.2c1.6,15,5.4,30,9.2,44.5c8.2,16.7,16.9,33.6,17.7,52.6c2.2,10.9,7.1,23.9-0.9,33.5   c-4.2,4-2.4,10.3-6.3,14.4c0.1-0.9,0.1-1.8,0.2-3.1c-2.6,0.4-4.8,7.3-3,8.7c0.3,2-1.6,1.6-2.9,2.5c0.3,0.7,0.5,1.2,0.7,1.8   c-1.6,0.5-1.7,0.6-1.5,2.7c0.2,0,0.5,0,0.7,0c0.2,0.9,0,1.6-0.8,2c-0.3-0.3-0.6-0.6-1-0.9c-0.9,0.8-1.4,1.5-0.3,2.5   c0,0.5,0.1,0.9,0.1,1.4c-1.4,0.6-0.5,2-0.1,2.9C305.5,464.2,305.3,464.5,306.4,465.8z M302.5,505.6c1.4-0.7,1.3-1.8,0.8-3   C301.9,503.4,302,504.4,302.5,505.6z" />
	<path fill="#E1C7B6" d="M427.5,371.2c0.3-0.4,0.7-0.9,1.1-1.4c-1.4-1.3-3.4-2.1-4.5-3.9c0.3-0.1,0.6-0.1,0.9-0.2   c-0.2-0.6-0.3-1.2-1.1-0.8c0.1,0.4,0.1,0.7,0.2,1c-1.3-0.7-1.7-2.4-3.2-2.5c-9.5,30,18.4,54,18,83.9c-1.3,0.6-2.8,0.9-4.2,0.6   c-3.4-5.7-2.3-12.3-3.7-18.6c-2.9-8.9-5.7-17.9-9.2-26.6c-10-18.7-7.3-26.3-5.4-46.6c-9.4-10.4-19.4-20.3-33.3-24.8   c-14.8-7-28.1-17.1-40.5-27.7c3.6-7.8,9.6-14.5,15.6-20.7c9.5,15.7,25.9,26.7,39.3,39.2c11.4,15.3,27.9,29.2,33.6,47.5   c-0.4,0.4-0.9,0.9-1.3,1.4C428.9,371.1,428.2,371.1,427.5,371.2z M419,359.1c-1,0.2-0.6,0.5-0.4,1.2c0.3-0.1,0.5-0.3,0.8-0.4   C419.3,359.6,419.2,359.4,419,359.1z M420.7,362.6c0.6-1-0.1-1.6-0.8-1.2C420.2,361.7,420.4,362.1,420.7,362.6z" />
	<path fill="#E1C7B6" d="M511,289.6c-0.2-0.1-0.4-0.1-0.6-0.1c-2.8-2.4-6.5-2.4-10-2.6c-9.9-3.5-17.3-13-27.4-17.1   c0.2-0.5,0.3-0.9,0.4-1.3c-11-4.4-22.8-9.4-28.3-20.6c1.6-0.4,2.6,0.9,4.2,0.5c-0.5-1.2-1.4-2.1-2.1-1.8c-4.3-0.3-6.8-5.7-10.4-8.1   c-5.6-3.2-10.1-8.3-16-11.4c-8.1-5.1-11.8-14.3-17.4-21.8l0,0c-1-2-2.2-3.8-4.2-5.1c-0.3,0.4-0.6,0.8-0.8,1.1   c-2.2-0.4-3.6,1.7-5.3,2.8c-6.4,3.7-14.6,3.8-21.8,2.9c2.1-0.1,4.2-0.2,6.2-0.3c3.3-4.5,5.3-10,8.2-14.9c1.3-3.5,0-7.5,2.1-10.8   c-3.6-4.8,0.7-11.3,6.4-6.3c5.4,5,11.3,9.4,17.7,13.1c7.6,4.1,15.7,7.4,21.1,14.4c-5.5,3.7-17.2-4-23.9-4.6   c2.4,5.4,4.9,10.2,8,14.6c8.4,3.2,17,6.2,24.8,10.9c0.2,1.1,1.7,2.6,0.4,3.5c-0.1-0.2-0.1-0.3-0.2-0.5c-0.1,0.2-0.3,0.3-0.4,0.5   c-2.4-2.1-5.9,1.2-7.1-0.7c0.4,0,0.8-0.1,1.3-0.1c-0.7-0.7-1.1-0.5-1.3,0.2c-0.6,0-1.1,0.1-1.9,0.1c7,6.8,15.1,12.4,25.1,14.3   c-0.2-4.3,1.3-4.8,5.2-4.6c1.6,1.7,4.6,2.5,4.8,5.1c-1.3-0.9-7.7-2.2-6,1.2c1.2,0.5,2.2-0.3,3.2-0.7c0.9,0,2,0.6,2.7-0.6   c1.2,0.3,0.9,1.4,1.7,2.2c-3,1.5-5.7-0.4-8.6,0.1c0.5,1.2,0.9,2.3,1.3,3.3c-2.2,2.1-4.9,1-7.9,0.8c6.7,10.5,18.7,14.8,29.5,19.8   c1.8,0.9,3.5,1.8,4.1,4c3.9,5.6,11.1,7.9,15.5,13.3c3.1-1.4,5.6-0.1,7.8,3C511,288,511,288.8,511,289.6z M409.1,195.7   c0.3,0.6,0.8,0.8,1.4,0.1c-3.5-2.1-6.6-4.6-9.7-7.2C399.6,192.2,405.9,195.3,409.1,195.7z M431.4,224.3c-2.9-0.5-4-4.9-7-3.6   C426.2,223.4,428,225.4,431.4,224.3z M411.9,195.9c0.7,1.1,0.7,1.1,1.8,0.6C413.3,195.7,412.8,195.1,411.9,195.9z M416.9,198.3   c0.7,0,1.3,0.1,2.1,0.1C417.6,196.8,417.5,196.8,416.9,198.3z M453.7,248.7c0.1-0.2,0.1-0.3,0.2-0.5c-0.6-0.2-1-0.7-1.2,0.1   C453,248.4,453.3,248.5,453.7,248.7z M421.5,198.5c0,0.2,0,0.3,0,0.5c0.5,0,1.1,0.1,1.6,0.1c0-0.2,0-0.4,0-0.5   C422.6,198.5,422,198.5,421.5,198.5z" />
	<path fill="#EBDA8F" d="M390.7,101.5c-0.9,0.8-1.8,1.5-2.8,2.4c-5.9-3.8-12.5,6-12.9,11.3c3.1,4.5,5.6,8.8,10.8,10.9   c-2.8,0.3-3.9,3.5-5.4,5.4c0.4,0.4,0.8,0.7,1.1,1c-31.3-1.9-52.2,36.7-34.5,62.3c-0.5-0.1-0.9-0.2-1.4-0.2   c-1.1,7.2-2.1,14.3-6.7,20.3c-8.3-8.2-13.6-18.7-14.6-30.4c10.3-21.6,19.6-43.5,32.7-63.7c6.2-14.3,22.3-18.4,35.8-23.2   C393.1,99.6,391.1,100.1,390.7,101.5z" />
	<path fill="#EF8A6A" d="M295.2,294.8c-9.7,2.7-18.9,8.3-22.4,18.2c-18.5-23.6-17.1-63.2,8.3-81.4c-4.5,11.2-2.7,21.8,9.2,27.7   c-1.4,1.5-1,3.9-2.2,5.7c-3.4-0.3-6.7-1.9-9.9-3.2c0.1-2.3,2.2-3.9,2.1-6.3c-2.9,0.4-2.2,4.8-4.6,6.2c-0.7,2.4-1.9,3.8-3.8,4.6   c0.6,0.9,1.2,1.7,1.9,2.8c2.8-2.9,7.3-0.4,10.8-0.4c3.3,1.2,7.2,0,10.5,2c0,0.2,0,0.4,0,0.6c-0.5,0.1-0.9,0.1-1.4,0.2   c-0.4-0.8-0.9-0.9-2-0.4C295,278.1,294.9,286.9,295.2,294.8z M278.2,291.7c1.3,1.9,1.3,1.9,2.9,2.4c-1.5-3-3.5-4.3-4.2-8   C276.5,289.5,276.5,289.5,278.2,291.7z M275,272.2c-0.4,0-0.7,0-1.1,0.1c1.2,3-0.4,6.6,2.5,9.3C276.1,278.4,275.3,275.4,275,272.2z   " />
	<path fill="#E1C7B6" d="M339.8,231.5c-0.6,0.9-0.1,0.9,0.8,1.7c-5.9,5.4-9.2-2.2-10.6-7.4c-2.6,1.9-2.6,5.2-5.6,7.1   c-3.1,0.9-3.4-2.2-3.3-4.4c-12.5,5.4-26.6,13.3-32.5,26.6c-8.7-4-9.9-15-5.7-22.7c3.3-7.8,13.2-9.4,18.8-15.3   c9.9-7.7,14.8-18.4,20.6-29.2c1.9,13.3,8.7,26.7,20.6,33.7c1.9,1,3.8,1.9,4.7,4.4c0.4-0.8,0.6-1.2,0.9-1.8c1.3,0.3,2.6,0.7,3.9,1.1   c-1.4,0.7-0.3,1.4,0,2.1c-1,0.5,0,1,0,1.5c-4.8,5.1-10-5.6-13.7-7.7c-0.7,1.4-0.3,2.8-0.4,4.1c-0.4-0.1-0.8-0.2-1.4-0.4   C337,227.6,338.6,229.3,339.8,231.5z" />
	<path fill="#F6D9C7" d="M401.3,252.9c3.5,10.7,12.4,17.8,18.6,26.8c-0.2,1.5-0.2,3,0.5,4.4c-0.5,0-0.9-0.1-1.4-0.1   c-1.1-0.9-1.8-4.5-3.5-2.9c6.6,7.8,8.6,14.8,9.5,24.9c-0.7,0-1.3,0.1-1.8,0.1c-2.8-3.4-1.6-8.8-4.9-12.2l0,0   c-2-3.4-3.9-7.1-7.6-8.9c-3.1,1.7,5.3,12-2.3,16.5c-1.3-1.4,0.1-4.4-1.6-6.1c2-9.5-9.7-14.2-10.3-22.6c-0.2-2.7,0.7-9.9-2.6-10.2   c0.5,1.1,0.9,2.1,1.4,3.2c-0.2,0.5-0.5,0.9-0.7,1.5c-6.6-6.9-11.5-14.8-16.8-22.8c5.1-4.8,7.3-11.5,11.6-16.9   C394.1,235,396.1,245,401.3,252.9z M392.8,257.8c0,0.6,0.1,1.3,0.1,2c0.5-0.1,0.8-0.1,1.1-0.2C394.1,258.6,393.5,258.1,392.8,257.8   c-0.1-0.6-0.1-1.3-0.2-2c-0.5,0.1-0.8,0.1-1.1,0.2C391.3,257.1,392,257.4,392.8,257.8z" />
	<path fill="#FFF0A7" d="M338.9,214.8c4.6-6,5.6-13.2,6.7-20.3c0.5,0.1,0.9,0.2,1.4,0.2c11.2,17.2,31.1,18.5,48.5,10.6   c0.2,0.1,0.3,0.3,0.5,0.4c-2.1,4.5-4.9,8.7-6.7,13.2c-2.1,1.3-3.2,2.1-1.4,4.4C373,232.9,351.3,225.9,338.9,214.8z" />
	<path fill="#FF9A77" d="M288,264.9c1.2-1.8,0.8-4.2,2.2-5.7c30.8,12.7,60.6,12.6,85.2-12.3c2.8,2.7,6,5.1,7.4,9.1   c-9.4,8.2-19.3,15.9-27.7,25.2c-1.1-0.6-1.1-0.6-2.3-2.7c1.7-1.9,4-3.4,4-6.3c1.3-2.7,4.4-5,4.7-8.2c-5.2,2-9.9,7.8-15.4,10.8   c-3.3,0.3-4.3,0.7-7,2.9c-0.1-0.7-0.1-1.3-0.2-2c-1.5,0.5-1.3,1.6-1.2,2.6c0.5,0.6,0.9,1.2,1.5,1.9c-0.6,0.9-1.6,1.5-1.5,2.6l0,0   c-1.8,0.2-1.8,2.8-3.5,2.7c-0.4-0.6-0.8-1.2-1.2-1.7c-0.1,0.1-0.2,0.1-0.4,0.2c0.2,1,0.5,2,0.7,2.9l0,0c-1.7-0.5-2.8-2.6-4.2-3.7   c0-0.2,0.1-0.4,0-0.6c0.4-0.4,0.7-0.8,1.1-1.2c-1-0.8-2.1-1.7-3.2-2.5c0.4-0.3,0.6-0.5,0.7-0.6c0.2,0,0.4,0,0.6,0.1   c0.3,0.7,0.9,0.7,1.5,0.6c1.3,0.6,2.1,1.4,3.2-0.2c-0.8-3.2-5.8-6.7-8.3-3.3c-0.3,0.1-0.5,0.1-0.8,0.2l0.1-0.2   C312.4,272.4,300.7,265,288,264.9z" />
	<path fill="#FF9A77" d="M295.2,294.8c-0.2-7.9-0.2-16.7-3.5-23.9c8.1,2.6,18.1,4.9,26.7,8.3c1.3,1.3,1.3-0.7,2.4-0.8   c1.1,0.5,2.4,1.5,4,1.3c4.2,4.7,11.1,9.4,8.7,16.6c-0.4,1.9-1.8,3.6-0.5,5.9C321.8,293.9,308.6,290.8,295.2,294.8z" />
	<path fill="#E1C7B6" d="M411.2,105.7c1.8,1.5,0.6,4.3,2.1,5.7c0.1,0.9-0.5,2.1,0.7,2.8c0.2,1.2-0.4,2.6,0.7,3.6   c0.7,2.7,2.9,4.5,4.3,6.8c-3,5.5-2.5,12-4.7,18.1c-0.5-0.3-0.8-0.6-1.1-0.8c0.2-0.1,0.3-0.3,0.6-0.5c-8.2-9.3-12.1-23.1-10.5-35.3   c-8.8-0.7-14.4,6.1-24.2,4.5c1.2-2.2,2.9-3.9,5.1-5c2,2.5,4.5-2,7.1-1.3c1.4-1.1,1.9-3.1,4-3.3c3.1-3.6,5.6-7.3,6.2-12.3   c3,1.7,3.6,5.9,6.7,7.7c0.4,1.5-0.1,3.2,1.3,4.7c0.2-3.3,1.1-5.2,2.4-8c-1.1-0.1-2-0.1-2.9-0.1c0.8-1.4,2-0.7,3.1-0.6   c0.6,1.1,0.6,2.1-0.2,2.9c-0.9,1-1,2.1-0.5,3.2C412.5,100.8,411.2,103.3,411.2,105.7c-0.4-0.2-0.8-0.4-1.1-0.6   c-0.7,3.6,0.2,8.9,1.1,12.8C411.1,113.4,411.8,110,411.2,105.7z M412.6,129.3c-0.2,0-0.4,0-0.6-0.1c-0.4,0.7-1.1,2.4,0.5,2.1   C412.6,130.7,412.6,130,412.6,129.3z M411.3,121.8c0.2-0.1,0.3-0.1,0.5-0.2c0.1-0.8,0.2-1.5-0.8-1.7   C410.4,120.7,410.8,121.2,411.3,121.8z M412.3,126.5c0.7-0.6,0.1-2.2-0.9-1.4C411.6,125.7,411.5,126.5,412.3,126.5z" />
	<path fill="#EE896A" d="M334.1,285.4c1.7,0,1.7-2.5,3.5-2.7c0,1.6-2.3,4.4-0.4,5.4c1.4-1.8,1.5-2.1,1.3-5.2c-0.3-0.1-0.7-0.1-1-0.2   c-0.1-1.1,0.9-1.6,1.5-2.6c-0.5-0.7-1-1.3-1.5-1.9c0.6,0.1,1.2,0,1.5-0.6c2.7-2.2,3.7-2.6,7-2.9c5.5-3,10.2-8.8,15.4-10.8   c-0.3,3.2-3.4,5.5-4.7,8.2c0,2.9-2.3,4.4-4,6.3c1.2,2,1.2,2,2.3,2.7c-5.6,6.4-10.1,13.4-14.5,20.7c-1.7-1.2-3.3-2.4-4.8-3.5   c2.5-9.8,12.7-15.8,17.4-24.4c-6.8,6.2-12.1,12-16.7,19.7c-0.7-0.8,0.2-2.1-1-2.6C335,289.1,334.7,287.2,334.1,285.4z M342.7,279.8   c0.9-0.7,2.3-0.9,2.6-2.5c-1.8,0.1-5.3,3.2-5.1,4.6C341.5,281.7,342,280.7,342.7,279.8z" />
	<path fill="#EBDA8F" d="M385.7,224.5c0.6-0.4,1.3-0.8,2.1-1.2c-0.2-0.4-0.5-0.9-0.7-1.4c1.3,0.1,3.8-2.1,2.1-3   c0.4-1,0.5-2.2,1.4-2.8c0.1,0.2,0,0.8,0.5,0.3c-0.2-0.1-0.4-0.2-0.5-0.3c1.8-3.4,3.5-6.9,5.3-10.3c-0.2-0.1-0.3-0.3-0.5-0.4   c0.5-0.4,1-0.8,1.6-1.2c6.2,1.9,2.2,4.1,2.9,8.3c2.6,2.3,3.5,5.3,5.3,7.7c0.3,0.1,0.7,0.1,1,0.2   C400.3,224.8,392.9,226.5,385.7,224.5z" />
	<path fill="#120F0D" d="M404.7,44.6c0.3,1.2,0.9,0.4,1.4,0.2c-0.5,2.1-2.2,4.4-3,6.6c2.7,5.2,9.8,7.4,11.7,12.5   c-4.7-2.6-8.7-6-12.7-10.1c0.2,2.5-2.2,3.4-1.6,5.9c-2.8,3.8,3.1,7.5,4.9,10.7l0.1-0.1c-1.1-0.4-2.2-0.7-3.3-1.1   c-0.5,0.8-0.2,2.3-1.7,2.6c0.4-1.6,0.2-2-1.3-3.2c0.5,3-0.9,6,0.6,8.1c-0.9,2.5,0,5.8-1.4,7.9c-0.4-13.2-3.5-26.4-1.3-39.6   c1.7,6-0.2,12.5,0.8,18.8c2.1-2.1,0.8-4.3,1.4-6.8C400.3,52.8,402.7,48.7,404.7,44.6z" />
	<path fill="#CAB597" d="M397.1,44.8c-3.8,16.8,5.7,35.1-1.5,50.9c-1.4-1-0.6-2.7-0.5-4.1c2.7-17-3.4-34.1,1.4-50.9   C397.6,41.7,396.9,43.5,397.1,44.8z" />
	<path fill="#FCEEA6" d="M406.3,220.3c-0.3-0.1-0.7-0.1-1-0.2c-1.8-2.4-2.8-5.4-5.3-7.7c-0.7-4.2,3.3-6.5-2.9-8.3   c0.5-0.5,0.9-1,1.4-1.5c0.4,0,0.9,0,1.3,0c1,1.2,1.9,2.5,2.9,3.7c0,0.5,0.6,0.8,0.8,1.3l0,0c2.1,3.5,4,6.7,6.1,10.4   C408.8,219.2,407.6,219.8,406.3,220.3z" />
	<path fill="#181512" d="M428.2,78.1c-2.4,1.5-4.8,2.7-6.3,5.2c-3.5,4.9-8.4-1.5-9.2-5.2c0.2-0.5,0.4-0.9,0.6-1.4   c3.7,2,8.4,1.5,12.4,0.8C426.5,77.2,427.6,76.9,428.2,78.1z M421,82.4c-1.2,0-2.2,0-3.3,0C419.2,83.6,419.2,83.6,421,82.4z" />
	<path fill="#CEB7A7" d="M407.6,90.8c-0.2,0.3-0.5,0.5-0.7,0.8c-2.2-2.8-4.3-5.6-6.4-8.4c0.3-1.4,0.6-2.5,0.9-3.6   c0.7-0.3,0.8-0.9,0.6-1.6c0.1-0.1,0.2-0.3,0.1-0.5c0.2-0.1,0.4-0.1,0.6-0.2l-0.1,0c-0.2,1.5-0.6,3,0.9,4.3c0.8-1.4,1.4-2.7,2.2-4.2   c0.3,0.7,0.5,1.2,0.6,1.6c1.4,0.4,3.7,0.4,3.2,2.4c-2.7,2-0.2,4.9-2.9,7.4C407,89.6,407.3,90.2,407.6,90.8z" />
	<path fill="#CDB899" d="M405.5,70.3c-1.8-2.9-5.2-4.9-5.6-8.5c0.4-0.2,0.7-0.5,1-0.7c5.4,4.4,10.5,10.1,17.4,11.8   c0.6,0.3,1.5,0.3,1.7,1.3c-3.3,0-5.9-1.4-9-1.1C409.3,71.9,408,69.6,405.5,70.3z" />
	<path fill="#B7A78B" d="M411,73.2c1.3,0,2.7-0.5,3.8,0.5c-0.4,3.8,11.9,2.8,14.8,2.1c-0.5,0.7-0.9,1.5-1.4,2.2   C424.7,75.5,414.8,82.1,411,73.2z" />
	<path fill="#282422" d="M396.3,265.6c0.8,3.8-0.6,7.9,1.4,11.4c-0.2,0.3-0.4,0.5-0.7,0.8c-3.8-3.9,0.7-6.3-6.5-12.7   c0.3-0.3,0.7-0.7,1-1c1,1,2,2,3.2,3.2c0.3-0.5,0.5-1,0.7-1.5C395.7,265.6,396,265.6,396.3,265.6z" />
	<path fill="#F0D2C1" d="M304.9,372.6c0.2-1-0.2-2.2,1.2-2.7c1.3,1.8,5.5,10.9,3.9,12.5C308.1,379.2,306.1,376.1,304.9,372.6z" />
	<path fill="#4C2E24" d="M335.5,291c1.1,0.5,0.3,1.8,1,2.6c2.4-4.3,5.5-8.1,8.9-11.6c0.2,0.2,0.5,0.4,0.7,0.7   c-3.5,3.7-5.8,8.3-9.1,12C334.8,294.8,335.5,292.4,335.5,291z" />
	<path fill="#C3B2A3" d="M412.7,78.1c0.4,1.2,0.9,2.4,1.3,3.6c-0.5,0.2-1,0.4-1.5,0.6c0.2-2.8-4.4-7-7-7.8c0,0,0.1,0.1,0.1,0.1   c0-0.2,0-0.5-0.1-0.7c0.5-0.3,1-0.5,1.6-0.9C409,74.7,410.8,76.4,412.7,78.1z" />
	<path fill="#201C16" d="M402.6,206.3c-1.5-1.3-2.2-4.3-4.2-4.5c-0.1-0.7,0.5-1,0.9-1.7c2.1,1.4,3.3,3.1,4.2,5.1   C403.2,205.7,402.9,206,402.6,206.3z" />
	<path fill="#BCA78B" d="M400.6,71.7c1.4-0.3,1.2-1.8,1.7-2.6c1.2,0.4,2.3,0.8,3.3,1.1c-1.2,1.3-2.7,2.2-4.3,2.9   C401.1,72.7,400.8,72.2,400.6,71.7z" />
	<path fill="#ACA193" d="M500.9,295.5c0,0.2-0.1,0.4-0.1,0.5c-1.8,0.1-3.5,0.3-5.4,0.5c0.3-0.7,0.5-1.3,0.8-1.8   c0.5-0.2,1.1-0.4,1.7-0.6C498.9,294.5,499.9,295,500.9,295.5z" />
	<path fill="#4A3027" d="M334.6,286.9c0,0.2,0,0.5,0.1,0.7c-0.5,0.5-1,1-1.5,1.5c-1.4-1.7-2.8-3.4-4.2-5.1c0-0.3,0.1-0.6,0.1-0.9   c1.2,1.4,3,2.5,3.9,4.2c0.1-0.2,0.2-0.3,0.4-0.5C333.7,286.8,334.2,286.9,334.6,286.9z" />
	<path fill="#4B3E39" d="M444.5,245.8c2.2,2.2,3.4-0.7,4.8,2.7c-1.6,0.4-2.6-0.9-4.2-0.5l0.1,0c0-0.2-0.1-0.4-0.1-0.6   c-0.2,0.1-0.4,0.3-0.5,0.4C443.6,247.1,443.6,247.1,444.5,245.8z" />
	<path fill="#B1A496" d="M495.4,294.1c-0.9,0.3-1.8,1.2-2.8-0.2c0.2-0.4,0.4-0.9,0.6-1.3c1-0.6,1.9-0.9,2.8,0.5   C495.9,293.3,495.7,293.7,495.4,294.1z" />
	<path fill="#35211D" d="M372.2,264.9c1.4-1.1,2.9-2.3,4.3-3.4c0.2,0.2,0.4,0.4,0.7,0.6c-1.4,1.2-2.7,2.5-4.1,3.7   C372.8,265.5,372.5,265.2,372.2,264.9z" />
	<path fill="#938B80" d="M492.6,292c-0.9,0.3-1.7,1-2.7,0.5C489.5,290.3,494.1,289.8,492.6,292z" />
	<path fill="#6D6B62" d="M489.1,283.2c-0.5,0-1,0-1.6,0c-0.9-0.7-1.8-1.4-2.7-2.1c0.2-0.2,0.5-0.5,0.7-0.7   C486.9,281.2,488.3,281.8,489.1,283.2z" />
	<path fill="#C9B496" d="M400.6,71.7c0.3,0.5,0.5,1,0.8,1.5c-0.4,0.7-0.8,1.5-1.3,2.2l0,0c-0.2-0.1-0.5-0.1-0.7-0.2   c0-0.7,0-1.4,0-2.1C399.7,72.7,400.1,72.2,400.6,71.7C400.6,71.7,400.6,71.7,400.6,71.7z" />
	<path fill="#A8998D" d="M404.3,74.7c0.2,0,0.4-0.1,0.5-0.3c0.3,0.1,0.5,0.1,0.8,0.2l-0.1-0.1c-0.6,1.3-1.5,2.3-2.9,2.9   c0,0,0.1,0,0.1,0c0-0.5,0-1,0-1.4C403.2,75.4,403.7,75,404.3,74.7z" />
	<path fill="#3C3C37" d="M485.5,280.4c-0.2,0.2-0.5,0.5-0.7,0.7c-0.7-0.3-1.5-0.6-1.2-1.9C484.3,279.7,484.9,280,485.5,280.4z" />
	<path fill="#201C16" d="M405.5,208.3c0.3,0.4,0.6,0.9,0.8,1.3C405.5,209.5,405.5,208.9,405.5,208.3z" />
	<path fill="#958670" d="M399.3,75.2c0.2,0.1,0.5,0.1,0.7,0.2c0,0.4-0.1,0.8-0.1,1.2C399.1,76.4,399.1,75.8,399.3,75.2z" />
	<path fill="#201C16" d="M404.1,208.9c-0.3-0.4-0.5-0.9-0.8-1.3C404.1,207.8,404.1,208.3,404.1,208.9z" />
	<path fill="#1E1A18" d="M402.7,76c0,0.5,0,1,0,1.4c-0.2,0.1-0.4,0.1-0.6,0.2C402,76.9,401.9,76.3,402.7,76z" />
	<path fill="#1E1A18" d="M402,78.1c0.2,0.7,0.1,1.3-0.6,1.6C401.2,79,401.2,78.4,402,78.1z" />
	<path fill="#201C16" d="M403.5,205.3c0.2,0.3,0.4,0.5,0.6,0.8C403.9,205.9,403.7,205.6,403.5,205.3z" />
	<path fill="#1E1A18" d="M405.6,74.6c-0.3-0.1-0.5-0.1-0.8-0.2c0.2-0.2,0.5-0.4,0.7-0.6C405.5,74.1,405.5,74.3,405.6,74.6z" />
	<path fill="#201C16" d="M405.5,211.2c-0.2-0.3-0.3-0.5-0.5-0.8C405.1,210.7,405.3,210.9,405.5,211.2z" />
	<path fill="#201C16" d="M404.7,209.9c-0.2-0.3-0.4-0.6-0.6-0.9C404.3,209.3,404.5,209.6,404.7,209.9z" />
	<path fill="#E1C7B6" d="M444.5,247.9c0.2-0.1,0.4-0.3,0.5-0.4c0,0.2,0.1,0.4,0.1,0.6l-0.3,0.1L444.5,247.9z" />
	<path fill="#201C16" d="M403.4,207.6c-0.2-0.3-0.3-0.5-0.5-0.8C403,207.1,403.2,207.4,403.4,207.6z" />
	<path fill="#201C16" d="M404.9,207.4c0.2,0.3,0.4,0.6,0.6,0.9C405.3,208,405.1,207.7,404.9,207.4z" />
	<path fill="#201C16" d="M404.1,206.2c0.2,0.2,0.3,0.5,0.5,0.7C404.5,206.6,404.3,206.4,404.1,206.2z" />
	<path fill="#1E1A18" d="M404.3,74.7c-0.3,0.2-0.6,0.4-0.9,0.6C403.7,75.1,404,74.9,404.3,74.7z" />
	<path fill="#958670" d="M400,75.3c0.2-0.3,0.4-0.5,0.6-0.8C400.4,74.8,400.2,75.1,400,75.3z" />
	<path fill="#798BB3" d="M550.5,218.9c0.1-1.7,0.1-3.4,0.7-5.1c-0.2,2.6,0.7,5.5-0.6,7.9C550.6,220.8,550.6,219.8,550.5,218.9z" />
	<path fill="#798BB3" d="M559.7,59c0.1-1.7,0.1-3.5,0.7-5.1c-0.3,2.6,0.8,5.7-0.6,7.9C559.8,60.9,559.8,59.9,559.7,59z" />
	<path fill="#798BB3" d="M551.3,206.2c0-1.4,0.1-2.7,0.1-4.1c0.2-0.1,0.4-0.2,0.5-0.3c-0.3,2.6,0.8,5.7-0.5,7.9   C551.4,208.5,551.3,207.3,551.3,206.2z" />
	<path fill="#798BB3" d="M546.3,292.5c0-1.4,0.1-2.7,0.1-4.1c0.2-0.1,0.4-0.2,0.5-0.3c-0.3,2.6,0.8,5.7-0.5,7.9   C546.4,294.9,546.3,293.7,546.3,292.5z" />
	<path fill="#798BB3" d="M552.1,197c0.2-2.6-0.5-5.5,0.6-7.9C552.4,191.7,553.4,194.7,552.1,197z" />
	<path fill="#798BB3" d="M545.7,308.1c0.2-2.6-0.5-5.5,0.6-7.9C546.1,302.8,547,305.7,545.7,308.1z" />
	<path fill="#798BB3" d="M549.1,243.7c0.1-1.6,0.1-3.2,0.2-4.8c0.2-0.1,0.4-0.2,0.5-0.3c-0.3,2.6,0.8,5.6-0.5,7.9   C549.2,245.6,549.2,244.6,549.1,243.7z" />
	<path fill="#798BB3" d="M559.2,73.8c0.2-2.6-0.5-5.5,0.6-7.9C559.5,68.5,560.5,71.5,559.2,73.8z" />
	<path fill="#798BB3" d="M556.2,121.2c0.1-1.8,0.1-3.7,0.2-5.5c0.2-0.1,0.4-0.2,0.5-0.3c-0.3,2.6,0.8,5.6-0.5,7.9   C556.3,122.6,556.2,121.9,556.2,121.2z" />
	<path fill="#798BB3" d="M547.2,283.3c0-2.3,0-4.6,0-6.9c0.2-0.1,0.4-0.2,0.5-0.3C547.5,278.4,548.5,281.2,547.2,283.3z" />
	<path fill="#798BB3" d="M557.1,110.6c0-2.4-0.4-4.9,0.5-7.2C557.4,105.8,558.4,108.6,557.1,110.6z" />
	<path fill="#161214" d="M613.6,410.1c-0.5,0.2-1.1,0.5-1.6,0.7c-24.2-5.8-48.5-11.8-72.5-18.6c0.4-9.4,0.4-19.2,1.8-28.4   c1.7,9-0.2,18.1-0.5,27.4c23.1,6.7,46.8,11.6,69.9,18.2C611.4,410.4,612.6,409.7,613.6,410.1z" />
	<path fill="#090A0B" d="M542.2,347c1.7,4.5,0.4,9.9,0.6,14.7c-0.2,0.1-0.4,0.2-0.5,0.3c-0.1-0.6,0-1.3-0.8-1.6   C541.2,355.9,541.9,351.5,542.2,347z" />
	<path fill="#080909" d="M541.4,360.4c1.7,1.6,0.3,4.8,0.6,7.1C540.8,365.4,541.5,362.8,541.4,360.4z" />
	<path fill="#798BB3" d="M542,367.5c0.1-1.8,0.1-3.6,0.2-5.5c0.2-0.1,0.4-0.2,0.5-0.3c-0.3,2.6,0.8,5.6-0.5,7.9   C542.2,368.9,542.1,368.2,542,367.5z" />
	<path fill="#798BB3" d="M542.9,357.6c0-2.3,0-4.6,0-6.9c0.2-0.1,0.4-0.2,0.5-0.3C543.2,352.7,544.2,355.5,542.9,357.6z" />
	<path fill="#191418" d="M612.4,409.9c-0.6,0.1-1.2,0.2-1.6-0.5C611.3,409.6,611.9,409.7,612.4,409.9z" />
	<path fill="#F7EFD0" d="M297.5,541.5c2.5,1,5.1,1.8,7.1,4c9.2-13.4-2.2-8.4,18.8-17.7c5.8,3.8,7.4,7.2,8.9,11.5   c-8.5-1.6-19.3,4.7-20.7,13.2c5-5.2,15.3-15.3,22.5-8.6c-0.1,0.3-0.1,0.7-0.1,0.9c-7.3,0.8-18.9,3.6-16.6,13.5   c2.6-7.7,10.7-8.9,17.4-11.1c0.2,0.1,0.5,0.3,0.7,0.5c-0.1,0.2-0.1,0.4,0.1,0.5c0,0.7,0,1.3,0,2.1c-5.5,0.5-16.5,4-13.8,11.2   c0.5-1,0.8-1.8,1.3-2.8c4.4-2.3,9.3-4.8,13.8-6.9c5.5,9.3,15.2,14.6,19.8,24.4c3.8,1.6,4,4.9,3.6,8.7   c-21.1,10.9-53.1,14.6-48.9-18.6c-1.6-2.2-4.1-2.4-5.5,0c-2.7-2.4-5.2-4.6-7.7-6.7C301.3,553.2,292.6,544.2,297.5,541.5z    M326.3,565.3c1.9-2.1,13.9-6,10.4-8.7C332.6,556.9,326,560.6,326.3,565.3z M338.7,563.9c-0.4-0.3-0.8-0.7-1.3-1.1   c-3.6,1-6.7,3.2-7.5,6.9C332.8,567.4,337.6,567.6,338.7,563.9z M336,569.7c2.2,0.8,3.8,0.4,5-1.5C339,567.1,338.5,567.2,336,569.7z   " />
	<path fill="#EADCB8" d="M297.5,541.5c-4.8,2.7,3.8,11.8,0.8,17.9c2.4,2.1,5,4.3,7.7,6.7c1.4-2.4,3.9-2.2,5.5,0   c-2.8,33.2,23.5,29,46.1,20.2c-9.1,11.1-24.6,13.2-37.4,7.9c-8.1,2-9.9-12-10.9-17.8c0.1-0.6,0-1.2-0.6-1.6   c-4.5-8.4-22.5-13.8-13.8-25.7c2.3-7.2-5.9-14.4-1.9-21.6c1.7-1.7,2.4-4.4,5.4-4.1C295.1,529.2,296.1,535.4,297.5,541.5z" />
	<path fill="#080706" d="M335.4,547.5c-0.3-0.2-0.6-0.4-0.7-0.5c-6.7,2.2-14.8,3.4-17.4,11.1c-2.2-9.9,9.3-12.6,16.6-13.5   c0-0.2,0.1-0.5,0.1-0.9C335,544.8,335.4,546.1,335.4,547.5z" />
	<path fill="#0B0908" d="M336.8,551.5c-4.6,2.2-9.5,4.6-13.8,6.9c-0.5,1-0.8,1.8-1.3,2.8c-2.7-7.2,8.2-10.6,13.8-11.2   c0-0.8,0-1.5,0-2.1C336.4,549,336.7,550.2,336.8,551.5z" />
	<path fill="#C1C2C2" d="M341.9,455.4c-0.2-0.3-0.4-0.5-0.7-0.8c0.9-2.3,0.1-4.7,0-7.1c0.3,0.6,0.6,1.2,0.9,1.7   c0.5-0.8,1.1-1.6,1.7-2.4C343,449.6,343.3,452.7,341.9,455.4z" />
	<path fill="#24211F" d="M309.3,576.9c1,2.1,0.7,4.3,0.6,6.5C308.6,581.6,309.5,579,309.3,576.9z" />
	<path fill="#3C3A32" d="M313.4,550.1c-0.7,1.4-0.7,1.4-1.9,2.3c-0.5-1.5,0.2-2.3,1.2-3.1C312.9,549.5,313.2,549.8,313.4,550.1z" />
	<path fill="#24211F" d="M308.6,574.7c0.6,0.4,0.7,0.9,0.6,1.6C308.5,576,308.5,575.4,308.6,574.7z" />
	<path fill="#24211F" d="M306.4,571.5c0.2,0.2,0.4,0.4,0.6,0.6C306.8,571.9,306.6,571.7,306.4,571.5z" />
	<path fill="#24211F" d="M307.1,572.1c0.2,0.2,0.3,0.4,0.5,0.6C307.5,572.5,307.3,572.3,307.1,572.1z" />
	<path fill="#24211F" d="M307.9,573.3c0.2,0.3,0.3,0.6,0.5,0.9C308.3,573.9,308.1,573.6,307.9,573.3z" />
	<path fill="#F7EFD0" d="M429.6,441.1c2.2,4.4,2.5,11.5,9.2,7.7c3.6-1.4,8.1-2.3,10.6-5.2c0-1.9,0-4,0-5.9c2.1-2.4,4.1-4,7-2.4   c1.4,2.6,2.6,5.1,3.9,7.7c-3.5,2-6.8,4.1-8,8.1c-0.7,0.5-1,1.2-0.9,2.1c3.2-2,6.1-6.4,9.9-8.2c1.4,0.5,2.4,0.9,3.5,1.3   c0,0.7-0.6,0.9-1.1,1.1c-4,1.5-6.3,4.3-7,8.4c-0.1,0.7,0.1,1.1,1,1c1.9-3.7,5.6-7.2,9.4-8.5c0.6,0.8,1.3,1.6,2,2.4   c-3.5,1.4-6.2,3.2-6.5,7.9c2.8-3.1,5.1-4.8,9-6.2c0.7,0.6,1.4,1.4,2.2,2.1c-1.2,1.9-6.6,2.8-4.9,6.3c3.6-1.7,3.7-1.7,6.1-5.1   c6.7,5.4,15,9.4,19.7,17c-9,6.4-23.7,8.2-32.7,0.1c-3.5-2.5-8.2-4-7.9-9c-2.1-1-2.5-1-4.1-0.4c-3.3,1.8-7.7,0.7-11.2,1   C425.5,457,423.9,469.4,429.6,441.1z M473.4,464.4c1.9-1.2,4-1.5,4.5-3.8C475.4,459,472.8,461.8,473.4,464.4z" />
	<path fill="#EBDCB8" d="M429.6,441.1c-5.6,28.2-4.2,15.9,9.2,23.4c3.5-0.3,7.9,0.8,11.2-1c1.6-0.7,1.9-0.6,4.1,0.4   c-0.3,5.1,4.3,6.6,7.9,9c7.2,7,18.2,5.7,27.2,3.6c0.2,0.2,0.4,0.5,0.6,0.7c1.7-0.9,3-2.4,4.9-2.7c0,0.2,0,0.3,0,0.5   c-0.6,0.6-0.7,1.4-0.6,2.2c-7.3,8.7-28.8,7.7-35.8-1.1c-3.2-3.3-3.8-9.6-9.9-8.1c-7.2,1.5-28,2.7-26.4-8.5   c5.1-6.2,2.2-13.3,3.8-20.7c0.9-0.9,2-2.1,3.3-3.5C430,437.5,429.5,439.1,429.6,441.1z" />
	<path fill="#161311" d="M467,448.3c-3.7,1.3-7.5,4.8-9.4,8.5c-1,0.1-1.1-0.3-1-1c0.7-4.1,3-7,7-8.4c0.6-0.2,1.1-0.4,1.1-1.1   C466,446.3,466.7,447.1,467,448.3z" />
	<path fill="#1F1C19" d="M474.9,455.8c-2.4,3.4-2.5,3.5-6.1,5.1c-1.7-3.5,3.7-4.5,4.9-6.3C474.1,455,474.5,455.4,474.9,455.8z" />
	<path fill="#473F38" d="M494.6,474.5c-1.9,0.3-3.2,1.8-4.9,2.7c-0.2-0.2-0.4-0.5-0.6-0.7c1.7-1.5,3.1-3.3,5.4-3.7   C494.6,473.4,494.6,473.9,494.6,474.5z" />
	<path fill="#6B6A5D" d="M452.9,451.7c-0.2,0.8-0.4,1.5-1.6,1.3c-0.1-0.9,0.2-1.5,0.9-2.1C452.4,451.2,452.7,451.5,452.9,451.7z" />
	<path fill="#694740" d="M439.5,448.2c-0.2,0.2-0.5,0.3-0.7,0.5c-0.5-0.9-1.5-0.3-2.2-0.7c0.8-0.3,1.5-0.5,2.3-0.8   c0.2,0.1,0.5,0.1,0.7,0.2C439.5,447.7,439.5,448,439.5,448.2z" />
	<path fill="#473F38" d="M494,477.2c-0.1-0.8,0-1.6,0.6-2.2C494.8,475.8,494.9,476.7,494,477.2z" />
	<path fill="#694740" d="M439.5,447.5c0.3-0.2,0.5-0.4,0.8-0.6C440,447.1,439.8,447.3,439.5,447.5z" />
	<path fill="#F6D9C7" d="M379.1,110.6c9.8,1.6,15.4-5.2,24.2-4.5c-1.6,12.2,2.3,26,10.5,35.3c-0.3,0.2-0.4,0.4-0.6,0.5   c-2.8-1.3-4.4-4.2-6.7-6.2c-0.3-2.8-1.6-5.3-3.1-7.7c-0.5,1.9,0.4,3.5,0.7,5.2c-7-3-14-8.2-21.3-11.4c-2.7-1.2-3.5-5-5.6-7.5   C377.5,112.5,378.1,111.4,379.1,110.6z M401.4,118.9c0.1,0,0.3,0,0.4,0c0-0.5,0-1,0-1.5c-0.2,0-0.3,0-0.5,0   C401.3,117.9,401.3,118.4,401.4,118.9z M401.6,120.5c-0.1,1.1-0.1,1.1,0.9,1.1C402.2,121.3,401.9,120.9,401.6,120.5z" />
	<path fill="#FDEFA6" d="M381.5,132.5c-0.3-0.3-0.7-0.6-1.1-1c1.6-1.9,2.6-5.1,5.4-5.4c10.2,3.9,19.7,10.1,26.8,18.5   c0,0.3,0,0.5,0,0.8C401.6,142.8,393.3,133.6,381.5,132.5z" />
	<path fill="#D2AFA0" d="M441.7,124.2c0.3-0.4,0.7-0.8,1.1-1.3c-0.6-0.7-1.2-1.5-1.8-2.3c3.3-0.3,6.4,1.1,9.6,1.6   c0.7,2.2,0.7,2.2-1.6,3.8C446.6,125.3,444.2,124.1,441.7,124.2z" />
	<path fill="#D0BEA3" d="M420.5,141c-1.3-3.4-3.3-5.9-1.4-9.7c0.3,0,0.7,0,0.9,0.1C419.9,134.4,422.3,138.6,420.5,141z" />
	<path fill="#2F241F" d="M402,141c1.6,1,3.3,1.9,4.9,2.9c-0.4,0.2-0.9,0.4-1.3,0.6c-1.5-0.9-3-1.7-4.4-2.6   C401.4,141.6,401.7,141.3,402,141z" />
	<path fill="#B4A48C" d="M422.5,129c-0.4,0.8-0.8,1.6-1.2,2.6c-0.1-1.5-0.2-2.8-0.3-4.1c0.3-0.2,0.7-0.5,1-0.7   C422.5,127.6,422.7,128.2,422.5,129z" />
	<path fill="#6D5C55" d="M414.6,117.8c-1.1-1-0.5-2.4-0.7-3.6c0.2,0,0.5,0,0.7,0c0.3,0.7,0.6,1.4,0.8,2   C414.6,116.4,414.8,117.2,414.6,117.8z" />
	<path fill="#797E74" d="M387.1,105.7c-1.3,1-1.8,1-2.9-0.1C385.3,104.3,386.2,105.1,387.1,105.7z" />
	<path fill="#494E4B" d="M412.6,145.4c0-0.3,0-0.5,0-0.8c0.8,0.3,1.5,0.7,1.1,2C413.2,146.1,412.9,145.8,412.6,145.4z" />
	<path fill="#D3BD9E" d="M408.3,56.9c-2-1.5-3.8-3.2-5.2-5.5c0.6-1.2,1.1-2.5,1.7-3.8c0.4-0.2,0.8-0.4,1.2-0.6   c4.7,4.5,9.1,10.2,15.1,12.6c-4.2-5.2-12.1-9.1-14.3-15.6c0.3-0.5,0.7-0.9,1.2-1.6c3.5,5,7.9,8.4,12.4,12.3c0.9,0.8,0,1.7,0.3,2.7   c5,4.8,9.5,10.2,15.3,14.2c-1.4,0.3-1.4,0.3-1.4,2.1c-5.4-1.6-8.5-7.9-13.2-10.2c-0.2,0.8,0.9,1.4,0.6,2.6   c-6.4-5.1-10.8-11.1-16.7-16.6c0.9,3.1,2.6,3.9,3.9,6.4C408.9,56.3,408.6,56.6,408.3,56.9z" />
	<path fill="#D3BD9D" d="M404.7,44.6c-1.4,2.9-2.8,5.7-4.2,8.6c-1.4-9.5,2.4-19.1,8.2-26.8c-5.2,2.7-6.5,7.8-8.2,12.7   c-1.7-4.4,1.4-10.1,3.7-14c1,1.5,2.1-0.1,3.1,0.1c2.6,1.2,5.6,1.6,7.1,4.5c0.2,0.3,0.8,0.3,1.3,0.4c-0.9,0.9-1.8,1.8-3,2   c-1.4-2.7-4.4-1.1-6.8,0.7c1.6-0.3,2.6-0.5,3.7-0.7c-0.1,0.7-0.1,1.2-0.3,2.2c1.2-1.1,1.9-2.5,3.5-2.2   C410.1,36.3,405.9,39.8,404.7,44.6z M407.5,37.1c-0.1-0.1-0.2-0.3-0.3-0.4c-0.4,0.2-0.1,0.5,0,0.8   C407.3,37.3,407.4,37.2,407.5,37.1z" />
	<path fill="#D5BE9F" d="M438.8,64.6c-0.8,0.8-1.5,1.6-2.3,2.4c-10.2-7.5-19.9-15.8-27-26.5c0.4-0.8,0.7-1.4,1-2   c3.4,1.6,4.9,6.2,8.6,7.6c0.2-0.2,0.3-0.4,0.5-0.6c5.4,2.5,9.8,7.6,13.4,12.2c-3.5-1.9-7.3-6.4-10.6-7.5   C427.2,55.7,432.9,60.4,438.8,64.6z" />
	<path fill="#F5E0C0" d="M419.7,30.7c0.5-0.2,1-0.5,1.4-0.7c9.2,4.4,19.1,8.7,26.2,16.2c-0.3,0.3-0.5,0.5-0.8,0.8   c-9.2-4.6-18.2-9.7-26.9-15.3C419.7,31.4,419.7,31,419.7,30.7z" />
	<path fill="#DAC8AB" d="M437.5,34.8c2.6,0.9,5.2,1.9,7.9,2.9c-0.2-0.5-0.3-0.9-0.4-1.2c0,0,0.2-0.2,0.2-0.2c0.2,0,0.4,0.1,0.7,0   c3.7,4.2,8.3,8.2,11.4,13.3c-0.3,0.3-0.6,0.6-0.9,0.9c-3-2.5-5.7-7.3-9.2-8.2c1.1,2.3,3.3,3.2,4.4,5.3c-0.5,0.2-1,0.5-1.5,0.7   c-2.7-5.3-9-9.4-14-12.8C436.5,35.3,437,35,437.5,34.8z" />
	<path fill="#181613" d="M438.9,29.2c0.4-0.4,0.8-0.8,1.2-1.3c6.1,3.8,14.6,5.5,17.9,13.1c-0.3,0.3-0.6,0.7-0.8,1   c-0.2-0.1-0.4-0.1-0.6-0.1c-3.5-4.1-7.2-7.6-12.2-9.7c-0.4-1.1-1.3-0.8-2.1-0.7C441.1,30.7,440,30,438.9,29.2z" />
	<path fill="#E3D0B2" d="M415.6,30.1c-0.4-0.1-1.1-0.1-1.3-0.4c-1.6-2.9-4.5-3.3-7.1-4.5c-1-0.2-2.1,1.5-3.1-0.1c1.8-3,4.5-5,8-2.9   c-0.9,0.5-1.5,0.8-2.2,1.2c2.7,1.8,6.4,2.1,7,5.9C416.5,29.6,416.1,29.8,415.6,30.1z" />
	<path fill="#EAD6B7" d="M458,41c-1.4-3.1-4-5.3-6.5-7.5c4.5-2.9,7.9,5.1,10.6,7.9c-0.2,1.2-0.9,2.3-0.1,3.6c0,0.1-0.4,0.4-0.7,0.6   C460.2,44.1,459.1,42.5,458,41z" />
	<path fill="#231D19" d="M436,35.5c2.7,1.8,5.5,3.4,7.7,5.7c-0.3,0.3-0.6,0.6-0.9,0.8c-6.8-4.9-14.1-8.8-21.8-12.1   c0.7-1.1,2-0.8,2.9-1.4c0,0.3,0,0.6-0.1,1.2C428.1,31.3,432,33.5,436,35.5z" />
	<path fill="#D4BF9F" d="M421.8,44.1c-1.9-0.5-3.9-2.8-5.7-2.1c-2-1.4-3.4-3.2-3.6-5.7c0.7-0.9,1.5-1.8,2.2-2.7   c0.5,0.5,0.9,0.9,1.4,1.4C415.3,38.3,422.2,40.3,421.8,44.1z" />
	<path fill="#DCC9AC" d="M461.3,45.6c0.2-0.2,0.7-0.6,0.7-0.6c-0.7-1.2,0-2.4,0.1-3.6c2.5,2.8,5.5,5.6,5.8,9.6   c0,1.3-0.6,2.6,0.5,3.7c0.1,1.6,0.6,3.5-0.5,4.9c-0.5-1.4,0.6-3.1-0.7-4.2c-1.4-3.3-1.7-7.7-4.2-10.2c-0.1,0.3-0.1,0.7-0.2,1   c-0.2,0.2-0.4,0.4-0.6,0.7C461.9,46.5,461.6,46,461.3,45.6z" />
	<path fill="#D9C9AC" d="M438.9,29.2c2.8,1.4,4.6,3.7,6.3,6.4c-0.4,0.1-0.7,0.1-1.1,0.2c-4-3-8.1-5.2-12.7-7.7   C434.1,27.6,436.7,28.1,438.9,29.2z" />
	<path fill="#5A5042" d="M406.8,44c1.5,5.4,7.9,8.5,11.3,12.9c-0.2,0.2-0.4,0.4-0.6,0.6c-4.3-3-7.9-6.7-11.5-10.5   c-0.4,0.2-0.8,0.4-1.2,0.6c0.2-1.2,1.5-1.7,1.3-2.9C406.3,44.5,406.6,44.3,406.8,44z" />
	<path fill="#51453B" d="M419.7,30.7c0,0.3,0,0.7,0,1c4,2.5,8,5,12.1,7.5c-0.3,0.3-0.5,0.5-0.8,0.8c-4.7-2.7-9.3-5.6-14.1-7.9   C417.6,31.2,418.5,30.7,419.7,30.7z" />
	<path fill="#ECDBBB" d="M416.8,32c1.2,0.6,2.3,1.2,3.5,1.8c0,1.1,0.4,2.2-0.4,3.2c-2.3-0.3-3.6-1.8-5.2-3.4   C415.4,33,416.1,32.5,416.8,32z" />
	<path fill="#BBAE96" d="M473.4,63.9c-1.6-1.7-3.9,1.8-4.1-1.5c0.4,0.1,0.6,0.8,1.4,0.4c0.6-2.3-1-5.2-0.1-7.3l0,0   C472.2,57.9,473.2,61,473.4,63.9z" />
	<path fill="#D1BFA4" d="M415.7,21.5c3.3,0.4,5.9,2.4,8.3,4.6c-1.1,1.4-2.5,1.1-3.6,1.7c-0.8-1.8-0.6-3.7-2.6-4.7   C417.2,22.5,416.1,22.4,415.7,21.5L415.7,21.5z" />
	<path fill="#39362E" d="M470.6,55.5c-0.9,2.1,0.7,5,0.1,7.3c-0.8,0.4-1-0.3-1.4-0.4c0.1-3.4-1.1-6.5-0.7-9.8   C469.5,53.4,470.5,54.2,470.6,55.5z" />
	<path fill="#6E6253" d="M412.6,36.3c0.1,3.7,3.5,5.3,5.7,7.8l0,0c0.2,0.2,0.5,0.5,0.7,0.7l0,0c0.2,0.2,0.5,0.5,0.7,0.7c0,0,0,0,0,0   c-0.1,0.2-0.3,0.3-0.5,0.6c-3.6-1.4-5.2-6-8.6-7.6C411.2,37.8,411.9,37,412.6,36.3z" />
	<path fill="#271F1A" d="M415.8,21.4c0.3,1,1.4,1.1,2.1,1.6c1.9,1,1.8,3,2.6,4.7c-0.5,0-1.1,0.1-1.6,0c-0.2-3.7-3.1-4.3-6.1-6.2   C414.3,21.5,415,21.5,415.8,21.4z" />
	<path fill="#62564A" d="M417,29.3c-0.3-2.2-1.9-3.2-3.6-4.3c1.7-2.1,3.8,2.8,5.8,2.9C418.4,28.3,417.7,28.8,417,29.3z" />
	<path fill="#9B8F78" d="M426.6,30.8c-0.9-0.4-1.8-0.7-2.7-1.1c0-0.5,0.1-0.8,0.1-1.2c0.8-0.2,1.5-0.4,2.5-0.7   c0.3,0.7,0.7,1.3,1.1,2C427.2,30.2,426.9,30.5,426.6,30.8z" />
	<path fill="#8A826D" d="M426.6,30.8c0.3-0.3,0.6-0.6,0.9-0.9c1.7,0.9,3.4,1.8,5.1,2.7c-0.3,0.2-0.5,0.4-0.8,0.7   C430,32.5,428.3,31.6,426.6,30.8z" />
	<path fill="#A39A84" d="M431.8,33.3c0.3-0.2,0.5-0.4,0.8-0.7c1.6,0.7,3.3,1.4,4.9,2.2c-0.5,0.2-1,0.5-1.5,0.7   C434.6,34.8,433.2,34,431.8,33.3z" />
	<path fill="#4D4136" d="M417,50.3c1.4,1.2,2.8,2.4,4.1,3.7c-0.3,0.3-0.5,0.5-0.8,0.8c-1.4-1.2-2.8-2.4-4.1-3.6   C416.5,50.9,416.7,50.6,417,50.3z" />
	<path fill="#D0C2A6" d="M453.1,32.7c-0.6,0.1-1.3,0-1.6,0.8c-0.9-0.5-1.9-1-2.8-1.5c0.3-0.3,0.6-0.5,0.9-0.8   C450.8,31.7,451.9,32.2,453.1,32.7z" />
	<path fill="#484E42" d="M445.2,30.6c-1.3-0.6-3.1-0.5-3.6-2c1.6,0,3,0.4,4.3,1.2C445.7,30,445.5,30.3,445.2,30.6z" />
	<path fill="#9D9C86" d="M445.2,30.6c0.2-0.3,0.5-0.5,0.7-0.8c1.2,0.5,2.4,1,3.6,1.5c-0.3,0.3-0.6,0.5-0.9,0.8   C447.6,31.5,446.4,31.1,445.2,30.6z" />
	<path fill="#BDAC93" d="M468.6,52.6c-0.1,0.7-0.1,1.4-0.2,2.2c-1.1-1.1-0.5-2.5-0.5-3.7C468.1,51.5,468.4,52,468.6,52.6z" />
	<path fill="#39362E" d="M471.2,56.3c-0.2-0.3-0.4-0.5-0.7-0.8C470.8,55.8,471,56,471.2,56.3z" />
	<path fill="#4D4136" d="M416.2,51.1c-0.3-0.2-0.5-0.4-0.8-0.6C415.7,50.7,415.9,50.9,416.2,51.1z" />
	<path fill="#DAC8AB" d="M444.1,35.7c0.4-0.1,0.7-0.1,1.1-0.2l0,0c0,0.2,0,0.5,0,0.7l-0.2,0.2C444.7,36.2,444.4,36,444.1,35.7z" />
	<path fill="#4D4136" d="M415.4,50.5c-0.3-0.2-0.5-0.4-0.8-0.6C414.9,50.1,415.1,50.3,415.4,50.5z" />
	<path fill="#181613" d="M438.8,29.2c-0.3-0.2-0.6-0.3-0.9-0.5C438.2,28.8,438.5,29,438.8,29.2z" />
	<path fill="#4D4136" d="M416.1,49.2c0.2,0.2,0.4,0.4,0.6,0.6C416.4,49.6,416.3,49.4,416.1,49.2z" />
	<path fill="#4D4136" d="M415.4,48.4c0.2,0.2,0.4,0.5,0.6,0.7C415.8,48.9,415.6,48.6,415.4,48.4z" />
	<path fill="#493633" d="M301.5,509c0.4-0.1,0.8-0.3,1.3-0.5c0,0.5,0,1,0,1.5c-0.5-0.1-0.9-0.1-1.3-0.2   C301.5,509.6,301.5,509.3,301.5,509z" />
	<path fill="#CDC1A5" d="M418.9,27.8c-1.7-0.4-3.9-4.8-5.5-2.8c-1.1-0.6-2.5-0.5-3.5-1.6c0.7-0.4,1.3-0.7,2.2-1.2   c-1.6-1-2.9-0.6-4.6-0.7c0.5-0.4,1-0.8,1.6-1.2c1.4,0.9,2.8,0.9,4.2,0c0.9,0.3,1.8,0.5,2.6,0.8c0,0.2,0,0.4-0.2,0.5   c0,0,0.1,0,0.1,0c-0.7,0-1.5,0.1-3,0.2C415.7,23.6,418.7,24.1,418.9,27.8z" />
	<path fill="#1D1A16" d="M400.5,32.8c-0.7,4.5-2.2,8.8-2.2,13.4c-0.2,0-0.4,0.1-0.5,0.2c-2-3.6,1.3-7.6,0.6-11.5l0,0.1   c0.7-0.3,1-0.7,0.1-1.2c0.2-0.6,0.5-1.3,0.7-2C399.8,32.1,400.1,32.4,400.5,32.8z" />
	<path fill="#91826C" d="M395,40c-0.6,3.8-1.2,7.6-1.9,12.1c-0.8-5.4-1.4-9.8,1.7-13.9C394.9,38.8,394.9,39.4,395,40z" />
	<path fill="#7C715E" d="M398.5,34.9c0.1,2.7-0.6,5.3-1.3,7.9c-0.3-0.7,0.3-1.6-0.7-2.1C396.8,38.6,397.2,36.6,398.5,34.9z" />
	<path fill="#E3D0B2" d="M413.3,20.2c-1.4,1-2.8,0.9-4.2,0C410.5,18.7,411.9,19.4,413.3,20.2z" />
	<path fill="#756B5A" d="M395,40c-0.1-1-0.3-1.8,0.2-2.8C395.8,38.6,395.8,38.6,395,40z" />
	<path fill="#7C715E" d="M398.6,33.7c0.8,0.5,0.5,0.9-0.1,1.2C398.5,34.5,398.5,34.1,398.6,33.7z" />
	<path fill="#D3BD9D" d="M404.8,24.4c-0.2,0.2-0.4,0.4-0.6,0.7C404.4,24.8,404.6,24.6,404.8,24.4z" />
	<path fill="#211E1B" d="M423.2,306c0.5,0,1.1-0.1,1.8-0.1c-1-10-2.9-17.1-9.5-24.9c2.3-1.8,3,4.3,5.6,4.4l0,0   c-0.1,0.7,0.2,1.2,0.7,1.6c0.3,0.8,0.7,1.5,1.4,1.9l0,0c1.6,1.7-0.1,4.1,1.3,5.6c0.6,4.2,3,9.6,0.7,13.5   C424.5,307.4,423.9,306.7,423.2,306z" />
	<path fill="#151110" d="M397,277.7c0.2-0.3,0.4-0.5,0.7-0.8c3.8,5.5,12,12.2,8.5,19.3C405.5,288.8,399.7,284.4,397,277.7z" />
	<path fill="#312724" d="M416.2,290.3c0.7,1.2,1.4,2.4,2.1,3.6c-0.4,0.2-0.8,0.4-1.3,0.6c-0.8-1.1-1.5-2.2-2.3-3.3   C415.3,290.8,415.7,290.6,416.2,290.3z" />
	<path fill="#DEC2B2" d="M425.2,308.1c0.2-0.3,0.4-0.6,0.7-0.8c0.5-0.2,1-0.4,1.5-0.5c0.8,1.7,0.8,1.7,0,3.4   C425.9,310.6,425.7,309.1,425.2,308.1z" />
	<path fill="#F6D9C7" d="M413.3,292.5c-0.2-0.2-0.4-0.5-0.1-0.1C413.2,291.9,413.2,292.2,413.3,292.5L413.3,292.5z" />
	<path fill="#312724" d="M418.3,293.8c0.2,0.3,0.3,0.5,0.5,0.8C418.7,294.4,418.5,294.1,418.3,293.8z" />
	<path fill="#BEA99B" d="M463.7,101.5c-0.8-1.9-0.1-3.3,1-4.9C465.3,98.5,465,100,463.7,101.5z" />
	<path fill="#A5B1A2" d="M468.6,93.2c-0.8,0.4-1.3,0.6-2,1C466.9,93,466.9,93,468.6,93.2z" />
	<path fill="#7A6159" d="M421.1,285.4c-0.8-0.4-1.7-0.6-2.1-1.5C420.1,283.9,421.4,284.1,421.1,285.4z" />
	<path fill="#7A6159" d="M421.8,287c-0.6-0.4-0.8-0.9-0.7-1.6c0.3,0.2,0.5,0.5,0.8,0.7C421.9,286.4,421.8,286.7,421.8,287z" />
	<path fill="#958874" d="M420.5,141c0.8-0.2,0.6-1,0.8-1.5c0.7,1.2,0.7,2.6,1.2,4.3C421,143.1,420.8,142,420.5,141z" />
	<path fill="#A69488" d="M427.4,306.7c-0.5,0.2-1,0.4-1.5,0.5c0.8-3-0.5-6-0.5-9.1c0.2,0,0.3,0,0.5,0   C426.6,301,428,303.7,427.4,306.7z" />
	<path fill="#98867B" d="M425.9,298.2c-0.2,0-0.3,0-0.5,0c-0.9-1.9-0.3-4.2-1.4-5.9c0-0.3,0-0.6,0-1   C426.3,292.6,425.2,296,425.9,298.2z" />
	<path fill="#64554E" d="M423.9,290.3c-0.2-0.5-0.5-0.9-0.7-1.4C423.9,289.2,423.8,289.8,423.9,290.3z" />
	<path fill="#64554E" d="M423.2,289c-0.3-0.2-0.6-0.5-0.9-0.7c0.2-0.1,0.3-0.3,0.5-0.4C423,288.2,423.1,288.6,423.2,289z" />
	<path fill="#E1C7B6" d="M365.1,138c-12.9,23.6-3.6,25.2-3.3,46.9c-6.4-2.9-8.4-9.2-10.5-15.4c-2.9,5.3-2,12.1-5.3,17.5   C337.1,171.9,348.8,144.2,365.1,138z" />
	<path fill="#030202" d="M365.1,138c-45,23.9-13.6,90.9,33.4,63.3c-0.1,0.4,0,0.9,0,1.3c-7.9,8.1-21.1,7.1-31.6,6.8   c-14.6-3.1-24-18.6-26.6-32.3c-2.7-32.7,34.5-58.3,61.7-36.1c-0.3,0.3-0.6,0.6-0.9,0.9C390.6,135,376.6,131.7,365.1,138z" />
	<path fill="#6D756C" d="M441.6,226.7c0.1-0.2,0.3-0.3,0.4-0.5c0.1,0.2,0.1,0.3,0.2,0.5C442.1,226.7,441.8,226.7,441.6,226.7z" />
	<path fill="#040304" d="M612.9,360.4c1.9-2.1,1.9-2.1,4-1.1c1.7,5.6,0.2,11.7-5.5,14c-3.5-2.4-2.4-10.6,0.9-12.1   c0.2,0.8,0.4,1.5,0.5,2.3c-2.2,1.8-0.2,2-0.3,4.2C616,366.3,613.4,362.9,612.9,360.4z" />
	<path fill="#2E353F" d="M612.9,360.4c0.3,2.1,2.5,4.6,0.8,6.4c-0.1-0.6,0-1.3-0.9-1.5c-0.2,0.2-0.4,0.5-0.6,0.7l0.1,0   c-0.9-1.3-0.9-1.3,0.5-2.6c-0.2-0.8-0.4-1.5-0.5-2.3C612.4,360.9,612.7,360.7,612.9,360.4z" />
	<path fill="#0D0F0F" d="M579.7,366.1c1,1.8,1.2,4.3,0.2,6.2C578.6,371,579.9,368,579.7,366.1z" />
	<path fill="#0C0B0C" d="M516,297.5c-1.5,1.5-0.9,2.9-2.6,4.2c-0.4-0.5-0.7-0.8-1.1-1.2C513.1,299.1,513.3,297.4,516,297.5z" />
	<path fill="#34A45E" d="M509.6,291.1c0.3,0.2,0.6,0.4,0.8,0.6C510.1,291.5,509.8,291.3,509.6,291.1z" />
	<path fill="#DFC5B4" d="M336.8,439c-9.2-10.7-6.3-24.3,1.4-6.9c-1.6,2.1-1.6,2.1-0.3,3.2c0.8-1,0.6-2.1,0.3-3.3   c2.1,1.8,3.6,11.1,2.8,14.3c-0.3-0.2-0.7-0.4-1.2-0.7c0,3.2,0,6.1,0,8.9c-1.8-3-0.2-7.7-0.7-11.3c0.4,0,0.8-0.1,1.5-0.2   c-0.5-0.7-0.8-1.2-1.5-2.2c0,1.3,0,1.8,0,2.4c-0.7-1.3-1.3-2.5-2-3.8c0.3,0,0.7,0.1,1,0.1c0.3-1.5,0.3-1.5-0.4-2.6   C336.5,437.3,337,438.3,336.8,439z" />
	<path fill="#DEC4B3" d="M337.4,409.3c1.2,0,2.5,0,3.8,0c3.9,3.2,5.8,9.5,2.8,14c-3.8-0.6-4.9-5.1-7-7.9   C335.2,413.3,334.5,411.6,337.4,409.3z M341.7,420.2c-0.1-3,0.2-5.3-1-7.6C339.1,414.7,339.4,417.3,341.7,420.2z" />
	<path fill="#1F1B1A" d="M339.7,454.5c0-2.9,0-5.7,0-8.9c0.6,0.3,0.9,0.5,1.2,0.7C341.1,448.3,343.3,455.7,339.7,454.5z" />
	<path fill="#25201D" d="M312.1,448.8c-1.8-1.4,0.4-8.3,3-8.7c-0.1,1.3-0.1,2.2-0.2,3.1C313.2,444.7,313.1,447,312.1,448.8z" />
	<path fill="#332D29" d="M347.9,397.6c0.1-1.4,0.2-2.7,0.2-4.2c1.8,1.5,2.1,3.2,0.4,4.6C348.4,397.9,348.2,397.7,347.9,397.6z" />
	<path fill="#453B36" d="M336.8,439c0.2-0.7-0.3-1.7,0.8-2c0.7,1.1,0.7,1.1,0.4,2.6c-0.3,0-0.7-0.1-1-0.1   C337,439.3,336.9,439.1,336.8,439z" />
	<path fill="#332422" d="M309.1,455.8c-0.2,0-0.5,0-0.7,0c-0.2-2.1-0.1-2.2,1.5-2.7C310.3,454.2,309.4,454.9,309.1,455.8z" />
	<path fill="#8D7B71" d="M347.2,384.1c-2.2-0.8-1.9-1.7-1.5-3.1C346.1,382,346.5,382.7,347.2,384.1z" />
	<path fill="#AA968A" d="M306.4,465.8c-1.1-1.2-0.9-1.6,0.7-2C306.9,464.4,306.6,465.1,306.4,465.8z" />
	<path fill="#A58F84" d="M307.2,460.9c0-0.5-0.1-0.9-0.1-1.4c0.3-0.2,0.7-0.4,1.1-0.8C308.7,460,308.1,460.5,307.2,460.9z" />
	<path fill="#655B54" d="M346.9,387.6c0-0.5,0-1,0-1.6c0.2,0,0.3,0,0.5,0c0,0.5,0,1,0,1.6C347.2,387.6,347,387.6,346.9,387.6z" />
	<path fill="#7F6E66" d="M347.9,390.4c0.1,0.2,0.2,0.5,0.3,0.7c-0.2,0.1-0.3,0.1-0.5,0.2c0-0.3,0-0.6-0.1-0.8   C347.7,390.4,347.8,390.4,347.9,390.4z" />
	<path fill="#E1C7B6" d="M431,342.9c-4,4.4-12,0.3-14.2-4.4c0.4-0.8,0.9-1.7,1.3-2.5C423,335,428.2,339.2,431,342.9z" />
	<path fill="#DFC4B4" d="M435.2,342.7c3.3-4.3,6.1,2.4,4.7,5.7c-0.8-0.3-1.4-0.6-2-0.8C437.4,345.9,437.9,342.4,435.2,342.7z" />
	<path fill="#211D1A" d="M427.5,371.2c0.7,0,1.4-0.1,2-0.1c0.5,2.3,1,4.6,1.6,6.8c-0.2,0.5-0.5,1-0.7,1.6   C429.4,376.7,427.8,374.1,427.5,371.2z" />
	<path fill="#2D2623" d="M435.2,342.7c2.6-0.3,2.1,3.2,2.7,4.9C436.1,346.5,434.4,345.2,435.2,342.7z" />
	<path fill="#191311" d="M432.1,330.9c2.7,0,0.8,2.9,0.8,4.5C431.9,333.5,431.9,333.5,432.1,330.9z" />
	<path fill="#494640" d="M430.4,379.5c0.2-0.5,0.5-1,0.7-1.6c0.8,1.1,0.7,2.3,0.4,4.2C431,380.8,430.7,380.2,430.4,379.5z" />
	<path fill="#B19D91" d="M430.7,395.8c0.6-1,0.9-1.5,1.2-2C432.6,395.1,432.5,395.1,430.7,395.8z" />
	<path fill="#6B5D56" d="M432.3,339.2c-0.9,0.7-1.8,0.4-0.8-0.6C431.7,338.7,431.9,338.8,432.3,339.2z" />
	<path fill="#4C4641" d="M432.5,384.7c-0.1,0.5-0.2,1-0.2,1.5c-0.1,0-0.2,0-0.3,0c-0.1-0.5-0.1-1-0.2-1.5   C431.9,384.7,432.2,384.7,432.5,384.7z" />
	<path fill="#A08F85" d="M431.7,390.3c0.1-0.5,0.1-0.9,0.2-1.4c0.1,0,0.2,0,0.4,0c0,0.5,0,1,0,1.4   C432.1,390.4,431.9,390.3,431.7,390.3z" />
	<path fill="#95857B" d="M432.4,400.8c-0.4,0.4-0.7,0.9-1.2,0.3c0.2-0.2,0.4-0.5,0.7-0.7C432.1,400.4,432.2,400.5,432.4,400.8z" />
	<path fill="#231F1A" d="M467.7,57.7c0.2,2.1,1,9.4-2.8,6.9c-0.4-3.7-1.6-7.1-3.1-10.7c-1.8,0.3-2.6-1.1-2-2.6   c-0.8-1.6-1.7-3.2-2.5-4.7c1.4-2.1,1.9,0.7,3.4,2.1c-0.2-3.3-2.2-4.2-3.5-6.8c0.3-0.3,0.6-0.7,0.8-1c1.4,2,2.9,3.8,4.1,5.9   l-0.1,0.1c1.4,2.8,1.4,5.7,3.5,8.2c0.3-2.5-1.2-4-1.4-6.1c0.2-0.2,0.5-0.4,0.7-0.7C466.1,51.5,466.7,54.8,467.7,57.7z" />
	<path fill="#0A0907" d="M426.2,58.9c4,3.5,8.7,6.2,12.2,10.2c-0.1,0.6-0.2,1.1-0.4,1.8c0.9,0.5,1.9,1.1,2.8,1.6   c-3.6,3.1-13.6-8.1-16.3-11.2C425.2,60.5,425.1,59.3,426.2,58.9z" />
	<path fill="#28201B" d="M410.5,55.4c3.9,3.7,7.3,7.3,11.4,10.8c0.3-1.2-0.8-1.8-0.6-2.6c5,3.1,8.9,8.7,14.7,11.3   c-3.8,2.3-7.9-5.3-12-5.4c-0.6-0.8-1.5-1.4-2.3-2c-0.5,0-0.9-0.5-1.3-0.8c0,0,0,0,0,0c-1-1-2.1-1.6-3.3-2.6   c-0.1,0.5-0.2,0.8-0.2,1.2c-0.7-0.5-1.4-1-2-1.5c-0.6-2.7-3.2-5.4-5-7.8C410,55.9,410.3,55.6,410.5,55.4z" />
	<path fill="#CCB89A" d="M451,58.2c-1,0.1-1.7,0.4-1.6,1.5c-7.6-4.3-14.2-10.3-20.4-16.3c3-0.4,5.3,2,7.8,3.4   c-0.2,0.2-0.4,0.4-0.7,0.6C440.7,51.3,446.4,54,451,58.2z" />
	<path fill="#2B261F" d="M429.4,72.5c0.8,1,2.2,1.1,3,2.2c-1.4-0.6-2.1,0.4-2.8,1.2c-2.9,0.6-15.3,1.7-14.8-2.1   c1.7,0.2,3.4,0.4,5.2,0.6c-0.2-1-1.1-1-1.7-1.3c0.5-0.2,1-0.4,1.5-0.7c1.6,0.2,3.3,0.4,5,0.6c-0.1-0.5-0.1-0.9-0.2-1.3   c1.6,0.7,3.1,1.3,4.8,2C429.4,73.1,429.4,72.8,429.4,72.5z" />
	<path fill="#A3927A" d="M416.1,34.9c3.8,4,7.3,8.2,12.1,11.4c0.3-0.3,0.5-0.6,0.7-0.8c1.8,1.5,3.8,2.7,5.3,4.6   c-0.4,0.4-0.7,0.7-1,1.1c-0.7-0.1-1.9-1.6-2.3-0.5c-0.8-0.4-2.2-2.3-2.8-0.8c-2.4-1.6-3.7-4.3-6.3-5.7   C422.2,40.3,415.3,38.3,416.1,34.9z" />
	<path fill="#C9B597" d="M459.2,62.5c-1.1-0.2-2.9,0.5-3.4-0.8c0.3-0.1,0.7-0.1,1.3-0.2c-3.3-4.5-7.7-7.1-12-10.3   c0.7-0.5,1.5-1,2.2-1.5c0.2,0,0.4,0,0.7,0c4.3,3.5,8.5,7.1,11.3,12.1C459.3,62.1,459.3,62.3,459.2,62.5z" />
	<path fill="#17110F" d="M439.2,88.5c6-4.1,15.1-2.9,18.7,3.4c-1.9,0.5-2.4,0.3-8.7-3.8C445.9,87.7,442.6,89.4,439.2,88.5z" />
	<path fill="#1B1512" d="M445.1,51.2c4.2,3.2,8.7,5.8,12,10.3c-0.6,0.1-0.9,0.2-1.3,0.2c-5.8-4.4-11.6-8.8-17.7-12.7   c0.3-0.3,0.6-0.5,0.9-0.8C441,49.2,443.1,50.2,445.1,51.2z" />
	<path fill="#1E1A18" d="M402.7,77.4c1.3-0.6,2.3-1.5,2.9-2.9c2.6,0.7,7.2,4.9,7,7.8c-0.6,0-1.3,0.1-1.9,0.1c-0.3-0.3-0.7-0.6-1-0.9   c0.6-2-1.8-2-3.2-2.4c-0.2-0.4-0.3-0.9-0.6-1.6c-0.8,1.5-1.5,2.8-2.2,4.2C402.1,80.3,402.5,78.8,402.7,77.4z" />
	<path fill="#1C1613" d="M451.6,45.5c5.4,5.1,9.6,11.4,12,18.4c-2.6,1.1-1.9-4.4-4.3-5l0,0c-1.1-5.1-6.2-8.2-8.6-12.7   C451,46,451.3,45.8,451.6,45.5z" />
	<path fill="#1D1514" d="M442.1,93.6c4.5-0.1,8.3,0.7,13,0.9c-0.8,1.9-2.6,2-3.5,3C447.5,98.4,445.3,95.4,442.1,93.6z" />
	<path fill="#C5B496" d="M431,50.5c5.1,0.5,10.5,6.5,15.5,9.2c-1.6,0-3.6-1.6-4.8-0.1C438.1,56.6,434.5,53.6,431,50.5z" />
	<path fill="#B4A288" d="M463.6,63.9c-1.5-4.9-4.4-9.2-7.2-13.4c0.3-0.3,0.6-0.6,0.9-0.9c1.6,1.4,2,4.8,4.5,4.4   c1.5,3.5,2.7,7,3.1,10.7C464.5,64.4,464,64.2,463.6,63.9z" />
	<path fill="#151211" d="M409.6,81.5c0.3,0.3,0.7,0.6,1,0.9l0,0c-0.3,0.2-0.5,0.5-0.8,0.7c0,0.6-0.1,1.1,0.6,1.4   c0.8,1.4,1.9,2.7,1.1,4.8c-1.2,0.6-2.4,1.4-4,1.5c-0.3-0.6-0.6-1.2-0.9-1.9C409.3,86.4,406.9,83.5,409.6,81.5z" />
	<path fill="#302721" d="M427.5,53.9c4.8,3.3,9.2,6.3,13.2,10.6c-1,0-1.5,0-1.9,0c-4.2-3-8.5-6.1-12-9.9   C427.1,54.4,427.3,54.2,427.5,53.9z" />
	<path fill="#352D26" d="M431,50.5c3.5,3.1,7.1,6.1,10.7,9c-0.1,0.2-0.2,0.4-0.3,0.6c-2.6-0.7-6.4-3.7-13.2-10.4   C428.7,48.2,430.1,50.2,431,50.5z" />
	<path fill="#2B221C" d="M446.5,59.7c-3.5-2.4-7.1-4.7-10.5-7.1c0.5-0.5,0.9-0.9,1.4-1.4c3.4,2.8,7.1,5.2,10.7,7.8   c-0.3,0.3-0.6,0.5-0.9,0.8C446.9,59.8,446.7,59.7,446.5,59.7z" />
	<path fill="#BDAC93" d="M467.2,64.7c1.1-1.6,0.5-3.4,0.7-5c0.7-0.8,0.7-1.9,0.7-3c0.7,1.2,0.5,2.5,0.5,3.8   C467.6,61.6,469.7,64.5,467.2,64.7z" />
	<path fill="#79705E" d="M459.3,59c1.5,0.7,1.8,2.1,2.1,3.5c-0.7,0-1.5,0-2.2,0C459.5,61.2,460,60.3,459.3,59z" />
	<path fill="#473F3A" d="M447.1,59.8c0.3-0.3,0.6-0.5,0.9-0.8c0.5,0.2,0.9,0.5,1.4,0.7c0.2,0.4,0.4,0.8,0.7,1.3   C448.5,61.6,447.9,60.6,447.1,59.8z" />
	<path fill="#9E8980" d="M414.7,114.2c-2.1,0.1-1.2-2.4-1.3-3.7C414.2,111.6,414.4,112.9,414.7,114.2z" />
	<path fill="#968179" d="M413.4,110.5c0,0.3,0,0.6-0.1,0.8c-1-0.5-0.6-1.4-0.7-2.1C413.2,109.4,413.3,110,413.4,110.5z" />
	<path fill="#CEB7A7" d="M410.4,84.5c-0.7-0.3-0.6-0.9-0.6-1.4c0.2-0.1,0.4-0.1,0.7-0.1C410.4,83.5,410.4,84,410.4,84.5z" />
	<path fill="#D5BE9F" d="M419.7,45.5c-0.2-0.2-0.5-0.5-0.7-0.7C419.2,45.1,419.4,45.3,419.7,45.5z" />
	<path fill="#D5BE9F" d="M419,44.8c-0.2-0.2-0.5-0.5-0.7-0.7C418.5,44.4,418.7,44.6,419,44.8z" />
	<path fill="#D5BE9F" d="M418.2,44.1c-0.2-0.2-0.5-0.5-0.7-0.7C417.8,43.7,418,43.9,418.2,44.1z" />
	<path fill="#A3927A" d="M428.2,49.8c0.2,0.2,0.5,0.5,0.7,0.7C428.6,50.2,428.4,50,428.2,49.8z" />
	<path fill="#1E1A18" d="M410.5,83c-0.2,0-0.4,0-0.7,0.1c0.3-0.2,0.5-0.5,0.8-0.7C410.6,82.6,410.5,82.8,410.5,83z" />
	<path fill="#E2C8B7" d="M348.1,234.2c0,1.4,0,2.7,0,4c-2.6,1.4-3.5-0.8-4.7-1.9C342.3,232.8,346.5,230.8,348.1,234.2z" />
	<path fill="#322623" d="M363.1,237.3c3.5-1.5,7.1-5,10.6-5.4c-2.5,3-6.2,4.8-9.8,6.2C363.6,237.8,363.3,237.6,363.1,237.3z" />
	<path fill="#38322E" d="M338.2,228.8c-0.7-1.2-1.4-2.3-1.4-4c0.6,0.2,1,0.3,1.4,0.4c0.3,0.9,0.6,1.8,0.9,2.7   C338.9,228.2,338.6,228.5,338.2,228.8z" />
	<path fill="#C1AD9F" d="M361,239.5c-1.4,0.9-2.8,1.4-5.1,1.2c1.8-0.9,3.1-1.5,4.3-2.1C360.5,239,360.7,239.3,361,239.5z" />
	<path fill="#6E675F" d="M338.2,228.8c0.3-0.3,0.6-0.6,1-0.9c0.1,1.1,1.5,2.7,0.7,3.6C339.3,230.6,338.8,229.7,338.2,228.8z" />
	<path fill="#5F4F49" d="M361,239.5c-0.3-0.3-0.5-0.6-0.8-0.8c1-0.5,1.9-0.9,2.9-1.4c0.3,0.3,0.5,0.5,0.8,0.8   C362.9,238.6,361.9,239.1,361,239.5z" />
	<path fill="#9A8278" d="M352.4,228.8c0-0.5-0.9-1,0-1.5c0.4,0.5,0.9,1,1.3,1.5c-0.2,0-0.4,0.1-0.7,0.1   C352.9,228.9,352.7,228.8,352.4,228.8z" />
	<path fill="#695A54" d="M342,248.3c0.3-0.8,0.6-1.4,1.9-0.8C343.4,248,343.2,248.9,342,248.3z" />
	<path fill="#735F58" d="M347.1,244.5c0.6,0,1.2,0,1.7,0c0,0.1,0,0.3,0,0.4c-0.6,0-1.2,0-1.7,0C347.1,244.8,347.1,244.7,347.1,244.5   z" />
	<path fill="#8C7C73" d="M352.7,242.4c0.5-0.1,1-0.1,1.4-0.2c0,0.2,0,0.3,0,0.5c-0.5,0-1,0.1-1.4,0.1   C352.7,242.7,352.7,242.5,352.7,242.4z" />
	<path fill="#E1C7B6" d="M353.1,228.9c0.2-0.1,0.4-0.1,0.7-0.1c0.1,0.1,0.3,0.2,0.4,0.4C353.7,229.4,353.4,229.5,353.1,228.9z" />
	<path fill="#4B3F3A" d="M302.5,505.6c-0.5-1.3-0.6-2.3,0.8-3C303.8,503.9,303.9,504.9,302.5,505.6z" />
	<path fill="#87746A" d="M419,359.1c0.1,0.3,0.3,0.5,0.4,0.8c-0.3,0.1-0.5,0.3-0.8,0.4C418.5,359.7,418.1,359.3,419,359.1z" />
	<path fill="#6C5850" d="M420.7,362.6c-0.3-0.5-0.5-0.9-0.8-1.2C420.6,360.9,421.4,361.6,420.7,362.6z" />
	<path fill="#220D0C" d="M424.1,365.9c-0.1-0.3-0.1-0.6-0.2-1c0.8-0.3,0.9,0.2,1.1,0.8C424.7,365.8,424.4,365.9,424.1,365.9   l-0.1,0.2C424,366.1,424.1,365.9,424.1,365.9z" />
	<path fill="#1F1715" d="M409.1,195.7c-3.1-0.4-9.4-3.5-8.3-7.2c2.7,2.3,5.4,4.4,8.3,6.4C409,195.2,409,195.4,409.1,195.7z" />
	<path fill="#281B19" d="M431.4,224.3c-3.4,1-5.2-0.9-7-3.6C427.4,219.4,428.5,223.8,431.4,224.3z" />
	<path fill="#161210" d="M465,241.5c-1,0.4-2,1.2-3.2,0.7c-1.3-3,1.6-1.9,3.2-1.9C464.9,240.6,464.9,241,465,241.5z" />
	<path fill="#5E4D47" d="M465,241.5c0-0.4,0-0.9,0-1.3c1-0.2,1.9,0.1,2.8,0.7l0,0C467,242.1,465.9,241.5,465,241.5z" />
	<path fill="#4E3F3B" d="M411.9,195.9c0.9-0.8,1.4-0.2,1.8,0.6C412.7,197,412.7,197,411.9,195.9z" />
	<path fill="#6A5049" d="M416.9,198.3c0.6-1.4,0.7-1.4,2.1,0.1C418.1,198.3,417.5,198.3,416.9,198.3z" />
	<path fill="#68524B" d="M409.1,195.7c0-0.3,0-0.5,0-0.8c0.5,0.3,0.9,0.6,1.5,0.9C409.8,196.5,409.4,196.3,409.1,195.7z" />
	<path fill="#151110" d="M453.7,248.7c-0.3-0.1-0.7-0.2-1-0.3c0.2-0.9,0.7-0.3,1.2-0.1C453.8,248.3,453.7,248.5,453.7,248.7z" />
	<path fill="#523833" d="M421.5,198.5c0.5,0,1.1,0,1.6,0c0,0.2,0,0.4,0,0.5c-0.5,0-1.1-0.1-1.6-0.1   C421.5,198.8,421.5,198.7,421.5,198.5z" />
	<path fill="#93776D" d="M434.6,225.9c0.3-0.6,0.6-0.9,1.3-0.2C435.4,225.8,435,225.9,434.6,225.9L434.6,225.9z" />
	<path fill="#ED8969" d="M324.8,279.8c-1.6,0.2-2.8-0.8-4-1.3c-1.1,0.1-1.1,2.1-2.4,0.8c0.2-0.2,0.4-0.5,0.5-0.7   c-2.8-1.8-9.9-4.1-13.9-4.5c-1.1-1.1-2.4-0.5-3.6-0.6c-1.6-1.2-3.8-1.5-5.7-2.2c0-0.2,0-0.4,0-0.5c4,0.9,7.4,1.6,11.5,2.7   c-5.6-4.3-27.9-8.8-33.5-4.4c-0.7-1-1.3-1.9-1.9-2.8c1.9-1,1.9-1,3.4-3.4c0,0.7,0,1.3,0,2.4c0.9-1.1,1.5-1.7,2.1-2.5   c2.6,0.5,8,4.2,9.9,2.3c12.7-1,22.5,7.6,34,11.3c0.5,0.7,1,0.8,1.4,0c0.5,0,0.9,0,1.4,0c0.8,1.5,2.6,1,3.7,2.1   c-0.2,0.1-0.3,0.3-0.7,0.6c1.1,0.9,2.1,1.7,3.2,2.5c-0.4,0.4-0.8,0.8-1.1,1.2c-1.2-1.2-2.4-2.3-3.6-3.5   C325.2,279.3,325,279.6,324.8,279.8z" />
	<path fill="#42261E" d="M287.3,264.9c-1.8,1.9-7.2-1.8-9.9-2.3c-0.7,0.8-1.2,1.5-2.1,2.5c0.1-1.5-0.2-2.5,0.3-3.6   c2.4-1.4,1.7-5.8,4.6-6.2c0.1,2.3-2,3.9-2.1,6.3C281.1,263,284.2,264,287.3,264.9z" />
	<path fill="#3E211B" d="M288.7,267.8c6.1,1.8,13.6,1.3,18.6,5.5c-6.6-1.4-12.5-3.6-19.1-4.3c-0.1-0.2-0.2-0.4-0.3-0.5   C288.2,268.3,288.4,268.1,288.7,267.8z" />
	<path fill="#744537" d="M275,272.2c0.3,3.2,1,6.2,1.5,9.4c-2.9-2.7-1.3-6.3-2.5-9.3C274.3,272.2,274.7,272.2,275,272.2z" />
	<path fill="#7A4233" d="M278.2,267.7c2.1-1.2,6.2-0.7,8.5-0.1c-0.7,0.3-1.7-0.2-2.2,0.7l0,0.3C282.5,268.3,280.4,268,278.2,267.7z" />
	<path fill="#AE6D57" d="M295.8,271.2c1.9,0.7,4.1,1,5.7,2.2c0,0.2,0,0.4,0.1,0.6c-2.5-1-5.7-1-7.8-2.7   C294.4,271.2,295.1,271.2,295.8,271.2z" />
	<path fill="#40271F" d="M278.2,291.7c-1.7-2.2-1.7-2.2-1.3-5.6c0.6,2,1.1,3.6,2,4.9C278.7,291.3,278.4,291.5,278.2,291.7z" />
	<path fill="#945A46" d="M278.2,291.7c0.2-0.2,0.5-0.5,0.7-0.7c1.2,0.6,1.5,1.9,2.2,3.1C279.5,293.6,279.5,293.6,278.2,291.7z" />
	<path fill="#ED8969" d="M287.9,268.5c0.1,0.2,0.2,0.4,0.3,0.5c-1.2-0.1-2.5,0.5-3.6-0.5l0-0.3C285.6,268.4,286.8,268.5,287.9,268.5   z" />
	<path fill="#FF9A77" d="M295.8,271.2c-0.2,0-0.5,0-0.7,0c0-0.2,0-0.4,0-0.6c0.2,0,0.5,0.1,0.7,0.1   C295.8,270.8,295.8,271,295.8,271.2z" />
	<path fill="#88786F" d="M392.8,257.8c-0.7-0.4-1.5-0.7-1.3-1.8c0.3,0,0.6-0.1,1.1-0.2C392.7,256.5,392.7,257.2,392.8,257.8   L392.8,257.8z" />
	<path fill="#2A2623" d="M396.3,265.6c-0.3,0-0.5,0-0.8,0c-0.2-0.5-0.4-0.9-0.6-1.4c0.3-0.2,0.5-0.5,0.8-0.7   C395.8,264.2,396.1,264.9,396.3,265.6z" />
	<path fill="#B19B8F" d="M392.7,257.8c0.8,0.3,1.4,0.8,1.2,1.8c-0.3,0.1-0.6,0.1-1.1,0.2C392.9,259.1,392.8,258.4,392.7,257.8   L392.7,257.8z" />
	<path fill="#7B665F" d="M395.6,263.5c-0.3,0.2-0.5,0.5-0.8,0.7c-0.3-0.6-0.5-1.1-0.8-1.8C395.2,262.2,395.4,262.8,395.6,263.5z" />
	<path fill="#433627" d="M389.2,218.9c1.6,0.8-0.8,3.1-2.1,3C385.9,220.5,388.5,219.7,389.2,218.9z" />
	<path fill="#EB8869" d="M324.8,275.5c2.5-3.4,7.4,0.1,8.3,3.3c-0.8,1-1.6,1.5-2.6,0.3c0.4-0.1,0.8-0.1,1.6-0.2   C329.8,276.3,327.1,277.5,324.8,275.5z" />
	<path fill="#492A22" d="M324.1,276.2c-3.6,0.5-6.6-1.7-9.9-2.8c0.3-0.3,0.5-0.6,0.8-0.9c3.4,0.1,6.1,2.8,9.1,3   C324,275.7,324.1,276,324.1,276.2z" />
	<path fill="#B56F57" d="M324.8,279.8c0.2-0.2,0.4-0.5,0.7-0.8c1.2,1.2,2.4,2.4,3.6,3.5c0.1,0.5-0.1,1-0.2,1.5   C327.6,282.6,326.2,281.2,324.8,279.8z" />
	<path fill="#5B352A" d="M327,276.8c1.8,0.2,3.5,0.4,5.1,2.2c-2,0.4-3.5-0.3-5.1-1.3C327,277.3,327,277.1,327,276.8z" />
	<path fill="#AA5F4B" d="M315,272.5c-0.3,0.3-0.5,0.6-0.8,0.9c-2-0.8-4.3-1-5.7-2.8C310.7,271.1,312.9,271.7,315,272.5z" />
	<path fill="#7D5347" d="M334.6,286.9c-0.4,0-0.9-0.1-1.3-0.1c-0.2-1-0.5-2-0.7-2.9c0.1-0.1,0.2-0.1,0.4-0.2   C333.7,284.7,334.4,285.7,334.6,286.9z" />
	<path fill="#875343" d="M327,276.8c0,0.3,0,0.6,0,0.9c-1.2-0.1-2.8-0.5-2.9-2c0.3-0.1,0.5-0.1,0.8-0.2   C325.5,276,326.2,276.4,327,276.8z" />
	<path fill="#8F5B49" d="M339.1,277.6c-0.3,0.6-0.8,0.7-1.5,0.6c-0.1-1-0.2-2.1,1.2-2.6C338.9,276.3,339,277,339.1,277.6z" />
	<path fill="#EB8869" d="M324.1,275.5c-0.8,0-1.7,0.2-2.2-0.6C322.7,274.9,323.6,274.5,324.1,275.5z" />
	<path fill="#ED8969" d="M328.4,278.4c0.5,0.2,1,0.4,1.5,0.6C329.3,279.1,328.7,279.1,328.4,278.4z" />
	<path fill="#7D5347" d="M333.3,286.8c-0.1,0.2-0.2,0.3-0.3,0.5c-0.1-0.2-0.2-0.4-0.2-0.6C332.9,286.8,333.1,286.8,333.3,286.8z" />
	<path fill="#4E2F26" d="M305.1,274c4,0.4,11.1,2.7,13.9,4.5c-0.2,0.2-0.4,0.5-0.5,0.7c-4.5-2-9.3-3.3-14-4.6   C304.6,274.5,304.9,274.2,305.1,274z" />
	<path fill="#7D5343" d="M305.1,274c-0.2,0.2-0.5,0.4-0.7,0.7c-1-0.2-1.9-0.5-2.9-0.7c0-0.2,0-0.4-0.1-0.6   C302.7,273.5,304,272.9,305.1,274z" />
	<path fill="#241F1D" d="M411.2,105.7c0.3,3,0.4,6.1,0,9.1c-0.2,0.1-0.4,0.1-0.6,0c0.1-3.1-1.6-7-0.5-9.8   C410.4,105.3,410.8,105.5,411.2,105.7L411.2,105.7z" />
	<path fill="#5E524C" d="M412.6,129.3c0,0.7-0.1,1.3-0.1,2c-1.6,0.4-0.8-1.3-0.5-2.1C412.2,129.3,412.4,129.3,412.6,129.3z" />
	<path fill="#6D5C55" d="M411.3,121.8c-0.5-0.6-1-1.2-0.3-1.9c1,0.2,0.9,0.9,0.8,1.7C411.7,121.7,411.5,121.8,411.3,121.8z" />
	<path fill="#948278" d="M412.3,126.5c-0.8-0.1-0.7-0.8-0.9-1.4C412.4,124.3,413,125.9,412.3,126.5z" />
	<path fill="#8E8379" d="M410.5,114.8c0.2,0,0.4,0,0.6,0c0,0.8,0,1.6,0,3.1C410.3,116.5,410.4,115.7,410.5,114.8z" />
	<path fill="#9D5A46" d="M346.1,282.6c-0.2-0.2-0.5-0.4-0.7-0.7c2-2.9,4.7-5.2,7.8-8C351.7,277.5,348.8,280,346.1,282.6z" />
	<path fill="#130D0A" d="M337.6,282.7c0.3,0.1,0.7,0.1,1,0.2c0.1,3.1,0.1,3.4-1.3,5.2C335.4,287.1,337.6,284.3,337.6,282.7   L337.6,282.7z" />
	<path fill="#8B4C3B" d="M341.7,279.7c0.9-1.2,1.8-2.2,3.6-2.4c-0.3,1.6-1.7,1.8-2.6,2.5C342.4,279.7,342,279.7,341.7,279.7z" />
	<path fill="#4A2B21" d="M341.7,279.7c0.3,0,0.6,0.1,1,0.1c-0.7,0.9-1.2,1.9-2.5,2.2C339.6,280.9,341.2,280.4,341.7,279.7z" />
	<path fill="#8F714D" d="M390.7,216.1c0.2,0.1,0.4,0.2,0.5,0.3C390.7,216.9,390.8,216.3,390.7,216.1L390.7,216.1z" />
	<path fill="#D0BA9B" d="M424.6,71.7c0.1,0.4,0.1,0.8,0.2,1.3c-9.3-0.6-17-7.1-23.5-13.3c0.1-0.6,0.1-1.2,0.2-2   c3.7,2.7,6.2,6.3,10.4,7.6c0.1,0.2,0.1,0.4,0.4,0.4c-3.1-3.8-7.3-6.4-10.3-10.3c0-0.4,0.1-0.8,0.2-1.6   C409.2,60.8,417.2,65.9,424.6,71.7L424.6,71.7z" />
	<path fill="#A4927A" d="M402,55.4c2.8,3.8,7,6.2,9.9,9.9c0,0,0,0,0,0c-4.2-1.3-6.7-4.9-10.4-7.6c-0.1,0.8-0.2,1.4-0.2,2   c-0.2,0-0.4,0-0.7,0C400.1,58,401.1,56.7,402,55.4z" />
	<path fill="#6A5C4C" d="M397.8,46.4c0.2-0.1,0.4-0.1,0.5-0.2c0.6,4.3-1,9.6,0.7,13.4c0.2,1.4,0.2,2.8-1.2,4.1   C397.5,57.7,397.7,52.2,397.8,46.4z" />
	<path fill="#CAB597" d="M399,59.6c-1.6-4.5-0.3-10.5-0.5-15.4c0.2,0,0.4,0,0.6,0c0.1,3.8-0.5,7.6,0.5,11.2   C398.8,56.4,399.5,58.2,399,59.6z" />
	<path fill="#56493D" d="M400.6,59.7c0.2,0,0.4,0,0.7,0c1.7,1.6,3.4,3.2,5.1,4.9c-0.3,0.3-0.5,0.5-0.8,0.8c-1.5-1.3-3-2.7-4.6-4.1   c-0.3,0.2-0.6,0.4-1,0.7C399.9,61.1,399.6,60.2,400.6,59.7z" />
	<path fill="#695D4E" d="M399.7,54.8c-1.2-3.4-0.3-7.2-0.5-10.7c0.2,0,0.4,0,0.6-0.1c1.8,2.7-0.9,6.3,0.7,9.1   C400.2,53.7,399.9,54.3,399.7,54.8z" />
	<path fill="#A28E77" d="M409.8,56.1c1.3,1.6,3,3.1,3.6,5.1c-1.8-1.3-3.5-2.7-5-4.4c0.3-0.3,0.6-0.6,0.9-0.9   C409.4,56.1,409.6,56.1,409.8,56.1z" />
	<path fill="#958670" d="M400.6,71.7c-0.5,0.5-0.9,1-1.4,1.5c0-1.3,0-2.7,0-4.6C400.7,69.8,400.9,70.1,400.6,71.7z" />
	<path fill="#695D4E" d="M399.3,56.9c-0.2-0.6-0.2-1.2,0.4-1.6C399.9,56,399.9,56.5,399.3,56.9z" />
	<path fill="#28201B" d="M410.5,59.1c0.2,0.2,0.5,0.4,0.7,0.6C410.9,59.5,410.7,59.3,410.5,59.1z" />
	<path fill="#E1C7B6" d="M398.4,202.6c0-0.2,0-0.5,0-0.7c0.6-0.1,1.1,0.1,1.3,0.8C399.3,202.6,398.9,202.6,398.4,202.6z" />
	<path fill="#A7A589" d="M421,82.4c-1.7,1.3-1.7,1.3-3.3,0C418.7,82.4,419.7,82.4,421,82.4z" />
	<path fill="#1E1A18" d="M408.9,82c-0.2,0.3-0.4,0.7-0.7,1C408.5,82.7,408.7,82.4,408.9,82z" />
	<path fill="#352C25" d="M405.5,65.3c0.3-0.3,0.5-0.5,0.8-0.8c4.4,2.8,8.6,6,13.5,7.8C414.4,74.4,409.9,67.7,405.5,65.3z" />
	<path fill="#0D0A09" d="M326.3,565.3c-1-3.8,8.1-10.4,11.1-8.1C336.3,561.3,329.6,562.2,326.3,565.3z" />
	<path fill="#1A1613" d="M338.7,563.9c-1.2,3.7-5.9,3.5-8.7,5.8c0.7-3.7,3.9-5.8,7.5-6.9C337.9,563.2,338.4,563.6,338.7,563.9z" />
	<path fill="#251F1C" d="M336,569.7c2.5-2.5,3-2.6,5-1.5C339.8,570,338.2,570.4,336,569.7z" />
	<path fill="#241E1B" d="M473.4,464.4c-0.7-2.6,2-5.4,4.5-3.8C477.5,463,475.3,463.3,473.4,464.4z" />
	<path fill="#736C65" d="M401.4,118.9c0-0.5-0.1-1-0.1-1.5c0.2,0,0.3,0,0.5,0c0,0.5,0,1,0,1.5C401.6,118.9,401.5,118.9,401.4,118.9z   " />
	<path fill="#968178" d="M401.6,120.5c0.3,0.4,0.6,0.7,0.9,1.1C401.5,121.7,401.5,121.7,401.6,120.5z" />
	<path fill="#8E7E69" d="M420.4,54.8c0.3-0.3,0.5-0.5,0.8-0.8c1.2,1.1,2.4,2.3,3.6,3.4c-1.2,0.4-0.9,1.7-1.6,2.4   c-0.9-0.8-1.7-1.6-2.4-2.2C420.3,56.5,421.3,55.5,420.4,54.8z" />
	<path fill="#3B3028" d="M423.1,59.7c0.7-0.7,0.4-2,1.6-2.4c0.5,0.5,1,1,1.5,1.5c-1.1,0.4-1,1.6-1.6,2.3   C424.1,60.7,423.6,60.2,423.1,59.7z" />
	<path fill="#9E8D75" d="M417.6,57.6c0.2-0.2,0.4-0.4,0.6-0.6c1.5,0.4,2,1.8,3,2.7C419.1,59.1,419.1,59.1,417.6,57.6z" />
	<path fill="#877663" d="M407.5,53.4c-1.2-0.7-1.5-1.9-2.3-3.8c1.7,1.1,2.6,1.8,3.1,3C408.1,52.9,407.8,53.1,407.5,53.4z" />
	<path fill="#4B4035" d="M407.5,53.4c0.3-0.3,0.5-0.5,0.8-0.8c0.7,0.9,1.5,1.8,2.2,2.8c-0.3,0.2-0.5,0.5-0.8,0.7   c-0.2,0-0.4-0.1-0.6-0.1C408.6,55.2,408.1,54.3,407.5,53.4z" />
	<path fill="#332D26" d="M400.5,45.5c-0.2-0.5-0.4-0.9-0.7-1.4c0.4-4.8,1.5-9.4,4.4-13.4c0.3,0.3,0.5,0.5,0.8,0.8   C402.8,35.9,401.1,40.5,400.5,45.5z" />
	<path fill="#3A342B" d="M412.6,32c-1.6-0.3-2.3,1.1-3.5,2.2c0.1-1,0.2-1.5,0.3-2.2c-1.1,0.2-2,0.4-3.7,0.7   C408.1,31,411.1,29.4,412.6,32C412.6,32.1,412.6,32,412.6,32z" />
	<path fill="#998A73" d="M400.4,39c-0.2,1.7-0.4,3.3-0.6,5c-0.4,0.1-0.8,0-1.2,0.1c0-2.5,0.3-4.9,1.3-7.2   C400.1,37.7,399.5,38.6,400.4,39z" />
	<path fill="#584C40" d="M404.9,31.5c-0.3-0.3-0.5-0.5-0.8-0.8c1-1.6,1.9-3.3,4.5-4.3C407.4,28.6,406,30,404.9,31.5z" />
	<path fill="#807262" d="M407.5,37.1c-0.1,0.1-0.2,0.3-0.3,0.4c-0.1-0.3-0.3-0.6,0-0.8C407.3,36.8,407.4,36.9,407.5,37.1z" />
	<path fill="#837360" d="M427.5,53.9c-0.2,0.2-0.5,0.5-0.7,0.7c-1.5-1.5-3.4-2.4-4.5-4.3C424.1,50.8,425.6,51.9,427.5,53.9z" />
	<path fill="#837360" d="M426.8,54.7c0.2,0.2,0.4,0.5,0.7,0.7C427.3,55.2,427,54.9,426.8,54.7z" />
	<path fill="#938370" d="M431,39.9c0.3-0.3,0.5-0.5,0.8-0.8c3.5,1.9,7.1,3.8,10.6,5.6c-0.2,0.2-0.5,0.4-0.7,0.6   c-0.7-0.4-1.5-1.2-2.1-1c-3.2-0.1-5.6-2.8-8.5-3.8C431,40.3,431,40.1,431,39.9z" />
	<path fill="#DFCCAF" d="M451.6,47.6c1.1,1.5,2.5,2.8,3.4,4.3c-0.4,0.2-0.8,0.4-1.2,0.6c-2.4-1.9-5.1-3.4-7.2-5.6   c0.3-0.3,0.5-0.5,0.8-0.8c0.9,0.7,1.8,1.4,2.7,2.2C450.6,48.1,451.1,47.9,451.6,47.6z" />
	<path fill="#504239" d="M446.5,47c0.8,0.7,1.5,1.3,2.3,2c-0.3,0.3-0.6,0.5-0.8,0.8c-0.2,0-0.4,0-0.7,0c-1.2-1-2.4-1.9-3.5-2.9   c0.3-0.3,0.5-0.5,0.8-0.8C445.2,46.4,445.9,46.7,446.5,47z" />
	<path fill="#6E6658" d="M450.1,48.3c-1.6-1.2-3.2-2.5-4.4-4.1c0.3,0,0.6-0.1,1-0.1C447.8,45.5,450.1,46.3,450.1,48.3z" />
	<path fill="#463C34" d="M446.7,44.1c-0.3,0-0.6,0.1-1,0.1c-0.9-0.7-1.9-1.4-2.8-2.2c0.3-0.3,0.6-0.6,0.9-0.8   C444.7,42.2,445.7,43.1,446.7,44.1z" />
	<path fill="#8B7766" d="M444.6,46c-0.3,0.3-0.5,0.5-0.8,0.8c-0.7-0.5-1.4-0.9-2.2-1.4c0.2-0.2,0.5-0.4,0.7-0.6   C443.1,45.2,443.9,45.6,444.6,46z" />
	<path fill="#1A1713" d="M459.5,52.6c-3.1-5.5-8.4-9.7-11.6-14.6c0.3-0.3,0.6-0.6,0.9-0.9C452.8,41.3,459.2,46.5,459.5,52.6z" />
	<path fill="#4D4238" d="M448.7,37c-0.3,0.3-0.6,0.6-0.9,0.9c-0.9-0.8-1.9-1.4-2.6-2.4c0,0,0,0,0,0c-1-1.4-2-2.8-2.9-4.1   c0.8-0.1,1.7-0.4,2.1,0.7C444.3,33.7,447.8,35.3,448.7,37z" />
	<path fill="#574A3F" d="M451.6,45.5c-0.3,0.3-0.5,0.5-0.8,0.8c-1.4-1.1-2.6-2.3-3.6-3.9C449.4,43.1,449.4,43.1,451.6,45.5z" />
	<path fill="#D9C9AC" d="M445.2,35.6c0.2,0.2,0.5,0.5,0.7,0.7c-0.2,0-0.4,0-0.7,0C445.2,36,445.2,35.8,445.2,35.6z" />
	<path fill="#E0CFB1" d="M448.7,37c-0.9-1-1.9-2-2.8-3c0.2-0.2,0.5-0.4,0.7-0.6c4.3,1.4,6.9,5.4,10,8.4c-0.7,1.4-1.6-1.1-2.8,0   C452.1,40.3,450.4,38.6,448.7,37z" />
	<path fill="#9B8C78" d="M453.8,41.9c1.2-1.1,2.2,1.4,2.8,0c0.2,0,0.4,0,0.6,0.1c0.7,1.2,1.4,2.3,2.2,3.5c-0.2,0.2-0.5,0.5-0.7,0.7   c-0.4-0.9-1,0.1-1.4,0.5C456.1,45.1,454.9,43.5,453.8,41.9z" />
	<path fill="#D9C9AC" d="M446.6,33.5c-0.2,0.2-0.5,0.4-0.7,0.6c-0.5-0.6-2.3-1-1.5-1.9C445.1,32.6,445.9,33,446.6,33.5z" />
	<path fill="#766758" d="M464.9,48.4c-0.2,0.2-0.5,0.4-0.7,0.7c-0.7-1.2-1.8-2.4-1.2-3.8C464.2,46.5,464.2,46.5,464.9,48.4z" />
	<path fill="#BDAC93" d="M467.7,57.7c-0.6-0.7-0.6-1.5-0.5-2.3C468.1,56,467.8,56.9,467.7,57.7z" />
	<path fill="#EAD6B7" d="M462.8,46.3c0.1,0.2,0.1,0.5,0.2,0.7c-0.3,0-0.6,0-0.9,0C462.3,46.7,462.6,46.5,462.8,46.3z" />
	<path fill="#D1BE9E" d="M431,39.9c0,0.2,0.1,0.4,0.1,0.6c-2.2,0.8-4.7-2.1-6.3-0.8c-1.4-0.2-2.4-3-3.6-2c2.2,2.9,5.5,4.9,7.9,7.7   c-0.2,0.2-0.4,0.5-0.7,0.8c-4-2.9-7.6-6.1-10.6-10c0.7,0.2,1.5,0.4,2.3,0.6c0.8-1,0.4-2.1,0.4-3.2C423.9,35.8,427.4,37.9,431,39.9z   " />
	<path fill="#242120" d="M424,292.3c0.8,0.6,0.6,1.5,0.5,2.3C423.6,294,424,293.1,424,292.3z" />
	<path fill="#5C667B" d="M612.8,365.4c0.9,0.1,0.8,0.9,0.9,1.5c-0.4,0.2-0.7,0.5-1.3,0.8c-0.1-0.7-0.1-1.1-0.2-1.6c0,0-0.1,0-0.1,0   C612.4,365.9,612.6,365.6,612.8,365.4z" />
	<path fill="#040304" d="M612.8,365.4c-0.2,0.2-0.4,0.5-0.6,0.7C612.4,365.9,612.6,365.6,612.8,365.4z" />
	<path fill="#191513" d="M338.2,432.1c0.3,1.1,0.5,2.2-0.3,3.3C336.6,434.2,336.6,434.2,338.2,432.1L338.2,432.1z" />
	<path fill="#66554E" d="M339,443.2c0-0.6,0-1.1,0-2.4c0.7,1.1,1,1.5,1.5,2.2C339.8,443.2,339.4,443.2,339,443.2L339,443.2z" />
	<path fill="#120E0D" d="M341.7,420.2c-2.3-2.9-2.6-5.6-1-7.6C341.9,414.9,341.6,417.3,341.7,420.2z" />
	<path fill="#6D6354" d="M464.4,50.4c0.8,1.4,1.3,2.9,1.2,4.8c-1.3-1.2-1.4-2.8-2-4.1C463.9,50.9,464.1,50.6,464.4,50.4z" />
	<path fill="#AC9A83" d="M464.4,50.4c-0.3,0.2-0.5,0.5-0.8,0.7c-0.5-1.4-1-2.7-1.5-4.1c0.3,0,0.6,0,0.9,0   C463.6,48.1,464.4,49.1,464.4,50.4z" />
	<path fill="#7B7362" d="M458.7,46.2c0.2-0.2,0.5-0.5,0.7-0.7c0.7,0.7,1.2,1.5,1.3,3.4C459.7,47.6,459.2,46.9,458.7,46.2z" />
	<path fill="#9F987F" d="M422.5,70.3c-1.9-1.6-3.8-3.2-5.6-4.9c0.1-0.3,0.1-0.7,0.2-1.2c1.2,0.9,2.3,1.5,3.3,2.6c0,0,0,0,0,0   c0.4,0.3,0.7,0.8,1.3,0.8c0.8,0.6,1.7,1.2,2.3,2c0,0.3,0,0.6-0.1,0.9C423.4,70.5,423,69.3,422.5,70.3z" />
	<path fill="#B2A489" d="M423.9,70.4c0-0.3,0-0.6,0.1-0.9c2.3,0.1,3.6,2.1,5.5,3c0,0.3,0,0.6,0,1.2c-1.7-0.7-3.3-1.4-4.8-2   c0,0,0,0.1,0,0.1C424.4,71.3,424.1,70.8,423.9,70.4z" />
	<path fill="#2B261F" d="M423.2,68.7c-0.2-0.2-0.5-0.3-0.7-0.5C422.7,68.3,423,68.5,423.2,68.7z" />
	<path fill="#2B261F" d="M422.5,68.2c-0.3-0.2-0.6-0.4-0.9-0.6C421.9,67.7,422.2,68,422.5,68.2z" />
	<path fill="#2B261F" d="M421.1,67.4c-0.2-0.2-0.5-0.4-0.7-0.6C420.6,67,420.8,67.2,421.1,67.4z" />
	<path fill="#2B261F" d="M420.4,66.8c-0.2-0.2-0.5-0.5-0.7-0.7C419.9,66.3,420.1,66.5,420.4,66.8z" />
	<path fill="#F5DFBF" d="M424.7,39.7c1.6-1.3,4.1,1.6,6.3,0.8c5.6,3.2,11.6,4.4,16.3,9.2c-0.7,0.5-1.5,1-2.2,1.5   c-5.8-1.8-10.2-7.3-16.2-7.8C427.5,42.2,425.8,41.2,424.7,39.7z" />
	<path fill="#504338" d="M425.4,40.5c4.3,3.2,8,7.1,12,10.7c-0.5,0.5-0.9,0.9-1.4,1.4c-0.9-0.5-1.8-1-2.7-1.5c0.3-0.3,0.6-0.6,1-1.1   c-3-3.1-6.7-5.4-9.6-8.8C424.9,41,425.1,40.8,425.4,40.5z" />
	<path fill="#554239" d="M436.7,46.8c0.8,0.5,1.5,0.9,2.3,1.4c-0.3,0.3-0.6,0.5-0.9,0.8c-0.9-0.4-1.4-0.8-2.1-1.6   C436.3,47.2,436.5,47,436.7,46.8z" />
	<path fill="#504338" d="M438.9,52.5c-0.3-0.2-0.5-0.4-0.8-0.7C438.4,52.1,438.6,52.3,438.9,52.5z" />
	<path fill="#504338" d="M438.1,51.9c-0.2-0.2-0.5-0.4-0.7-0.6C437.6,51.5,437.8,51.7,438.1,51.9z" />
	<path fill="#2A241E" d="M448,49.8c0.3-0.3,0.6-0.5,0.8-0.8c4.5,2.4,7.2,6.4,10.5,10l0,0c0.3,1,0.8,2,0,2.9   C456.5,56.9,452.3,53.3,448,49.8z" />
	<path fill="#79705E" d="M459.3,59c-1.5-1.1-2.4-2.8-3.5-4.3c0.3-0.3,0.5-0.5,0.8-0.8C458,55.3,459,57,459.3,59z" />
	<path fill="#AD9A81" d="M456.6,53.9c-0.3,0.3-0.5,0.5-0.8,0.8c-0.7-0.7-1.4-1.4-2-2.2c0.4-0.2,0.8-0.4,1.2-0.6   C455.5,52.6,456.1,53.3,456.6,53.9z" />
	<path fill="#AD9A81" d="M455,51.9c-0.2-0.3-0.4-0.6-0.5-0.8C454.6,51.4,454.8,51.7,455,51.9z" />
	<path fill="#504338" d="M436,52.6c0.2,0.2,0.5,0.3,0.7,0.5C436.4,52.9,436.2,52.8,436,52.6z" />
	<path fill="#2C1913" d="M287.9,268.5c-1.1-0.1-2.2-0.1-3.4-0.2c0.5-0.9,1.5-0.4,2.2-0.7c0.7,0.1,1.3,0.1,2,0.2   C288.4,268.1,288.2,268.3,287.9,268.5z" />
	<path fill="#875343" d="M321.3,276.2c0.5,0,1,0,1.4,0C322.2,277,321.8,277,321.3,276.2z" />
	<path fill="#2B261F" d="M423.9,70.4c0.3,0.5,0.5,0.9,0.8,1.4c-1.1,0.1-1.6-0.8-2.2-1.4C423,69.3,423.4,70.5,423.9,70.4z" />
	<path fill="#A4927A" d="M411.9,65.3c0.1,0.1,0.3,0.2,0.4,0.4C412,65.7,412,65.5,411.9,65.3C411.9,65.3,411.9,65.3,411.9,65.3z" />
	<path fill="#CDB899" d="M403.4,61.7c-0.2-0.2-0.5-0.4-0.7-0.6C403,61.3,403.2,61.5,403.4,61.7z" />
	<path fill="#AD9A81" d="M453.7,52.5c-0.2-0.2-0.5-0.4-0.7-0.6C453.2,52.1,453.5,52.3,453.7,52.5z" />
	<path fill="#AC9980" d="M425.4,40.5c-0.2,0.2-0.4,0.5-0.6,0.7c-1.6-0.7-2.6-2.1-3.6-3.5c0.6-0.7,0.9-0.1,1.2,0.1   C423.2,39,424.5,39.4,425.4,40.5z" />
	<path fill="#A3927A" d="M428.2,44.8c0.2,0.2,0.5,0.5,0.7,0.7C428.7,45.2,428.4,45,428.2,44.8z" />
</g>
</svg>