<?xml version='1.0' encoding='utf-8'?>
<svg xmlns="http://www.w3.org/2000/svg" version="1.2" baseProfile="tiny" id="Layer_1" x="0px" y="0px" viewBox="0 0 900 600" overflow="visible" xml:space="preserve">
<g id="b_00000016764895798225518100000004741968208408288942_">
	<path display="inline" fill="#373A46" d="M551.5,215.9c-1.6-0.4-3.4-0.3-4.8-1.5c-1.4-5.6,3.1-11.5,2.4-17.4   c0.4-0.7,0.8-1.5,1.4-2.3c11.9,3.6,16.8-16.7,3.7-18.2c-2.8,0.6-5.8,1.9-5,5.4c-0.6-0.3-1.3-1.1-1.7-0.9c-1.9,1.2-2.8-1.7-4.1-0.4   c-0.5-0.2-1-1.6-1.6-0.1c-1.2-1,0.1-1.4,0.7-2.2c-1.9-0.3-3.1-2-5-2.2c-0.8-0.1-1-1.1-0.9-1.9c6.1-11.2,18.4-19.4,30.8-12.6l0,0   C586,177.7,576,212.8,551.5,215.9z" />
	<path display="inline" fill="#0F0C0C" d="M466.8,536.2c0.5-2.1,3.8-1.8,5.3-0.8c13.6-22.1,12.4-51.1,30.4-71.1   c-1.6-1.6-3.5-2.1-5.6-2.9c0.3-0.3,0.7-0.6,1-0.9c2.2,0.4,4.3,0.9,6.6,1.4c-2.6,8.5-8.7,15.8-12.9,23.7   c-5.1,17.8-10.6,36.2-18.3,53c5.7,5.1,13.4-3.7,18.1-7.2c2.6-13.6,13.6-23.7,21.5-34.5c6.3-10.4,11.3-21.5,17.2-32.2   c0.3,0.6,0.5,1.1,0.8,1.7c-6.7,24.8-30.4,41.3-37.2,65.4c1.2,1.7,2.6,3.6,4,5.5c0,0.3,0,0.6,0,0.8c-2.5,1.9-4.4,4.6-7.5,5.7   c-1.6-3.3,3.2-4.6,4.8-6.7c-1.1-1.4-2.1-2.6-3.2-4c-6.1,5.7-15.1,14.5-21.7,4.2c-0.9-1.1-1.7-0.6-2.5,0.1   C467.5,536.8,467.2,536.5,466.8,536.2z" />
	<path display="inline" fill="#16161A" d="M396.6,189.2c-16.8-3.7-21.4-21.8-19.5-36.9c-5.7-1.4-11.5-2.5-17.3-3.7   c-0.2-0.7-0.2-1.5-0.2-2.3l0,0c8.6,3.8,19.5,3.8,28.7,7c-0.7,0.1-1.5,0-1.8,0.9c-1.5,0.2-2.9-1.5-4.7-0.1   c-0.7,10.2,1.6,21.2,9.4,28.5l0,0c-9.5-3.7-10.8-17.5-11.1-26.5c-0.1-1.2,0.5-2.9-1-3.3c-6.5,39.2,32.7,46.6,43.6,8.7   c9.4-24.1-11.3-58.8-34.7-31.8c-0.3-0.3-0.5-0.5-0.8-0.8c6.1-9.2,18.2-12.6,28.4-8.6c-0.2,0.5-0.3,0.9-0.5,1.4c2,1.9,4.1,3.7,6,5.6   c0,0,0,0,0,0c11.5,21.8,2.1,55.1-22.9,61.6l0,0C397.7,189.1,397.2,189.2,396.6,189.2z" />
	<path display="inline" fill="#131114" d="M359.6,146.4c0,0.6,0,1.1,0.1,1.7c-2.4,0.7-3.7-1.3-3.9-3.3c3.2-6.9,16.3,1,22.7,1   c2.3-6,4.3-12,8.8-16.6c0.3,0.3,0.5,0.5,0.8,0.8c-3.4,4.9-6.4,10.1-8,16c1.1,0.4,1.2,0.7,2.2,0.2c2.5-12.3,20.7-32.7,32-20.2   c-14.2-8.4-28,7.8-30.7,20.9c5.6,1.2,11,2.3,16.5,3.5c0.7-0.5,1.4-1,2.3-1.5c1.2,0,2.9,0,4,0c3.2,3.1,3.3,3.2,2.9,8.2   c-2.2,2.6-2.2,2.6-5.3,3.7c-0.4-0.8-0.7-0.6-0.9,0.1c-0.4-1-0.8-2-1.2-3.1c-0.6,1.6,0.2,3.3-1,4.6c-0.3-0.3-0.6-0.6-0.9-0.9   c-0.2-0.1-0.4-0.1-0.7-0.2c0,0.3-0.1,0.7-0.1,1l0,0c-2.5,2.4-2.6,6.4-5.2,8.6c-3.5-0.5-4.6-2.8-4-7.9c2.3-2.4,4.8-3.9,6.7-6.5   c-3.6-0.8-6.6-2-10.1-2.1c4.9-2.5,11.7,2.8,17.1,1.3c5.6-5.4-37.3-9.7-42.3-12c0,0.9,0,1.5,0,2.1c-0.3,0.3-0.6,0.5-0.8,0.8   C360.1,146.5,359.8,146.4,359.6,146.4c0.1-1,0.5-2-0.4-2.9c-2.1,0.6-2.1,0.6-1.4,2.9C358.3,146.4,359,146.4,359.6,146.4z    M393,168.9c2.4-3.9,4.8-7.9,7.2-11.9C396.3,158,387.3,164.6,393,168.9z M402.6,150.4c0.2,0.3,0.3,0.7,0.5,0.7c4.3,1,2,5.4-0.5,7.4   C409.6,161.3,409.8,147.1,402.6,150.4z" />
	<path display="inline" fill="#070504" d="M393.3,456.8c-26-20.2-24.1-50.5,8.8-61c0.3,0.3,0.6,0.6,0.9,0.8   c-16.8,10-32.4,18.7-22.6,41c5.5-11.8,19.4-21.9,32.7-21.2c0.3,0.2,0.7,0.5,1,0.7c-13.3,1.9-27.1,9.4-31.6,23.4   c2.3,5.9,7.8,10.4,11.9,15.1C394.1,456.1,393.7,456.5,393.3,456.8z" />
	<path display="inline" fill="#0B0908" d="M487.6,315.8c-0.8,11,8.9,19.6,11.8,30c2.8,10.3-5.9,23.3-17.2,22.4   c-1.2,1.9-2.7,4.1-4.2,6.4c-1.8-1.9-2-2-3.9-0.9c-6.8,0.2-13.4-1.6-19.7-4c0.6-0.3,1.2-0.5,1.7-0.8c7.2,0.8,14.5,4.4,21.8,2.3   c0.3-1,0.6-1.9,1-2.9c3.8-2.6,8.1-2.4,11.8-3.7c4.8-5.5,10-12.6,6.4-20.1c-2.5-3.2-1.9-10.2-6.5-10.9c-4.4-9.2-9.9-17.7-13.6-27.4   c-0.6,1.1-1,1.9-1.6,3.2c-0.2-3.3-0.7-5.3,0.4-8.1c1.5-1.1,0.2-2.7,0.7-3.9c2.3,6.7,5.4,13.8,9.2,20.3c0.4-2.2,0.8-4.1,1.1-6   C487.9,312.7,487.5,314.3,487.6,315.8z" />
	<path display="inline" fill="#100C0B" d="M440.4,565.5c5.2,2.4,9.4,6.1,15.1,7.5c4.3,21.4-28.6,13.7-40.5,10.6   c-7.6-3-18.5,0.8-24-6.2c-2-2.5,0.1-4.9,1.3-7.2c0.7-1.6,2-3.1,0.9-5.1c0.9-3.3,2.1-7,2.8-10.5c2.5,5.9-1.5,14.5-4.1,20.2   c1.2,1.9,2.8,3,3.9,3.7c12.5-0.4,60.7,18.5,58.2-4.2c-5-1.5-8.9-4.5-13.3-6.9c-1.4,0.7-2.7,2.1-4.5,1.4c0-0.6,0-1.1-0.1-1.7   c0.7,0.1,1.3,0.1,1.6-0.7l0.3-0.2c0,0,0.3,0,0.3,0C439,566,439.7,565.7,440.4,565.5z" />
	<path display="inline" fill="#0B0A0A" d="M421.2,339.9c3.2-30.4-5.3-62.5,0-92.4l0,0c0.3,0,0.6,0,0.9,0c-1.1,19.3,0.6,39.1,1,58.5   c1,8.6,2,17.2,0.4,25.8c-0.3,2,0.2,3.6,1.7,4.9c-0.3,0.3-0.6,0.6-0.9,1c-0.4,0-0.8-0.1-1.3-0.1C422.2,338.2,421.7,339,421.2,339.9z   " />
	<path display="inline" fill="#0A0807" d="M399,547.3c3.6-0.5,5.9-0.5,8-3.8c1.4,0.7,0.6,2.1,0.8,3.2c-1.2,0.2-1.7,1.1-2.2,2.3   c0.9,10,12.9-3.6,17.5-5c3.3-16.5,15.4-29.4,23.3-43.8c0.3,0.4,0.6,0.7,1,1.1c-6.5,14.8-18.5,27.8-22.5,43.5   c0.3,0.5,0.7,1.2,1.1,1.9c-0.3,0.3-0.6,0.6-1,1c-0.6-0.4-1.3-0.8-1.8-1c-5.4,3.2-18.8,14.8-19.2,2.2c-1.5-0.1-2.8-0.2-4.1-0.4   C399.7,548,399.3,547.7,399,547.3z" />
	<path display="inline" fill="#0B0708" d="M445.1,159.8c26.6,4.4,54.5,12.8,80.4,16c0.5,0.6,0.9,1.2,1.4,1.8c-2.7,1.5-5.6,0-8.4-0.3   c-23.8-4.8-49.9-12-73.6-14.9c0.3,0.9,0.7,1.9,1.1,3c-0.4,0.4-0.8,0.8-1.2,1.2c-0.8-2.4-1-4.6-0.7-6.6   C444.4,159.8,444.7,159.8,445.1,159.8z" />
	<path display="inline" fill="#110D0C" d="M421.2,339.9c0.5-0.9,1-1.7,1.7-2.3c-0.4,8-1.7,15.6-1.5,23.6c10.3,0.9,19.9,3.4,29.7,6.4   c-0.8,0.3-1.6,0.5-2.4,0.8c-9.1-2.6-17.8-4.8-27.4-5c-1.2,11.8-3.4,23.4-14.3,30.2c-0.3-0.3-0.5-0.5-0.8-0.8   C422.3,379.7,418.3,358.4,421.2,339.9z" />
	<path display="inline" fill="#140D0C" d="M530.2,559.3c0.8,1.3,0.9,2.7,0.6,4.4c-15.5,12.6-47.5,4.5-66.3,2.2   c-8.3-1.3-4.4-6.7-2.9-12c1.1,0.6,0.4,1.7,0.8,2.5c-0.5,1.9-1,3.7-1.6,5.8c7.8,4.8,17.4,3.9,26.2,4.7c14,1.7,29.8,4.6,42.1-4   C529.4,561.5,528.8,560,530.2,559.3z" />
	<path display="inline" fill="#0C0B0A" d="M420.5,239.6c0-22.8,11-44.4,11.6-67.1c3,24.1-10.4,46.8-10.2,71   C420.4,242.6,422.1,240.5,420.5,239.6z" />
	<path display="inline" fill="#120E0E" d="M487.6,315.8c0.4-3-2.1-5.5,0-8.3c16.3-6.5,27.7-21.4,37-35.5c0.3,0.3,0.6,0.7,0.9,1   c-8.6,15.3-21,29.2-36.9,37C488.3,312,488,313.9,487.6,315.8z" />
	<path display="inline" fill="#140F0E" d="M471.1,389.8c-6.5,7.7-12.2,15.4-13.3,26.1c0.2,0.2,0.8,0.6,1.5,1.1   c-0.3,0.6-0.5,1.3-0.8,1.9l0,0c-1.7,0.8-1.6,0.3-1.8-1.6c-5.6,4.6-9.3,5.3-15.6,3.9c0.3-0.3,0.7-0.6,1-0.9   c20.9,2.1,12.6-24.2,28.9-31.6C471,389,471,389.4,471.1,389.8z" />
	<path display="inline" fill="#110F0F" d="M409.3,536.3c4.8-14.2,5.2-29.6,11.1-43.3c0.5,0,1,0,1.5,0c-4,15.2-6.6,30.8-11.7,45.8   C408.9,538.3,409.7,537.1,409.3,536.3z" />
	<path display="inline" fill="#252427" d="M576.6,166.2c5.5,6.4,6.7,14.4,6.4,22.6c2.9,0.6,5.6,1.2,8.6,1.9c0.5,0.7,1.1,1.6,1.6,2.3   c-0.1,1.8-1.2,2.8-2.5,4c-2.7-0.5-5.7-1-8.8-1.6c-1.9,4.9-3.7,9.7-7.5,13.5c0,0,0,0,0,0c-0.3-0.3-0.6-0.6-0.8-0.8   c0.7-1.6,2.5-2.2,2.4-3.9c6.6-7.5,6.5-19.5,4.2-28.7C580.2,172.3,575.2,168.4,576.6,166.2z M592.1,193c-3.1-1.8-5.9-2.5-9.5-2.1   c-0.1,0.9-0.2,1.7-0.3,2.8c2.8,0.6,5.5,1.2,8.2,1.8C591,194.6,591.4,194,592.1,193z" />
	<path display="inline" fill="#231E20" d="M420.5,122.7c10.2,5.4,12.8,18,12.9,28.7c3.6,0.8,7.2,0.5,10.1,2.8   c-0.3,0.6-0.5,1.2-0.8,1.7c-2.1-2.2-4.8-2.7-7.4-3.1c-0.8,2.4-4.6,5.1-1.6,6.9c0.5-0.5,1.1-1,1.6-1.5c0.4-0.5-0.2-1.5,0.8-1.9   c0.8,0.6,1.6,1.1,2.4,1.7c-0.8,1-1.5,1.9-2.3,2.8c-0.9,0-2.6-0.3-1.7,0.9c-0.3,0.3-0.6,0.5-0.9,0.8c-5.3-0.9-1.7-6.5-1.7-10   c0.4-10.6-2.6-22.9-12.1-29C420.1,123.1,420.3,122.9,420.5,122.7z" />
	<path display="inline" fill="#221F1F" d="M557,193.8c-1.9,2.1-4.1,0.8-6.5,0.9c-0.5,0.9-0.9,1.6-1.4,2.3c-0.3-0.3-0.6-0.6-1-0.9   c0.4-2.9,1.9-8.6-2.7-8.6c-0.9-5.1-6.7-4.4-9.8-7.2c0-0.3,0-0.6,0-1c0.5,0,0.9,0.6,1.4,0c0.1-2-1.9-3.1-3-4.5   c0.3-0.3,0.7-0.6,1-0.9c0.4,0,0.9,0.1,1.3,0.1c0,0.8,0.2,1.8,0.9,1.9c2,0.2,3.1,1.9,5,2.2c-0.6,0.8-1.8,1.2-0.7,2.2   c0.5,1.3,0.5,1.3,1.7,0.6c0.3,1.1,1.7,0.9,2.5,1.6c-0.4,0.1-0.7,0.2-1.4,0.5c3.1,1.7,6.5,5.9,9.9,3.6c0.3,0,0.7,0,1,0.1   c-0.5,0.6-1,1.1-1.6,1.7c-1.5-0.2-2.7,0.2-3.8,1.2C549,195.3,553.3,193.3,557,193.8L557,193.8z M540.8,181.5   c-1-1.8-0.7-4.9-2.7-3.6C538.6,179,538.2,180.6,540.8,181.5z" />
	<path display="inline" fill="#110F0F" d="M548.2,196.1c0.3,0.3,0.6,0.6,1,0.9c0.7,5.9-3.8,11.7-2.4,17.4   c-3.5,6.7-3.4,15.4-5.6,22.8C539.3,223.9,545.6,209.4,548.2,196.1z" />
	<path display="inline" fill="#201817" d="M393.3,456.8c0.4-0.4,0.8-0.7,1.1-1.1c11.1,9.5,26,9,39.6,11.1   C420.2,467.8,403.8,467,393.3,456.8z" />
	<path display="inline" fill="#130F0D" d="M428.1,551.5c2.9,3.7,6.2,7.2,8.8,11.1c-0.2,0.2-0.4,0.4-0.6,0.6c-3.9-2.5-6.2,2.6-10.3,2   c-0.6-3.3,4.2-3.6,6.3-5.2c-0.7-1-1.2-1.7-1.7-2.5c0-0.7-0.2-1.3-1.1-1.3c-0.6-0.5-1.1-1-1.7-1.5c-3.6,0.4-6.2,3.2-9.7,4.3   C419.1,555.2,425.1,553.8,428.1,551.5z" />
	<path display="inline" fill="#201411" d="M406.2,392.8c0.3,0.3,0.5,0.5,0.8,0.8c-0.4,0.6-0.9,1.2-1.5,2c10.9,5,19.6,13,29,20.2   c-0.3,0.3-0.6,0.6-0.9,0.9c-10.7-6.8-19.9-15.9-31.5-20.7C403.5,394.8,404.9,393.8,406.2,392.8z" />
	<path display="inline" fill="#373A46" d="M576,204.1c0.1,1.8-1.7,2.3-2.4,3.9c0.2,0.2,0.5,0.5,0.8,0.8c-0.8,0.8-1.6,1.6-2.3,2.4   c-0.3-0.3-0.7-0.6-1-0.9c-6,5.1-8.9,6.1-14.4,5.2c0.7-0.9,2.2,0.1,2.6-1.2c6.3-1.5,10.8-6.7,14.2-11.9   C574.4,203,575.2,203.6,576,204.1z" />
	<path display="inline" fill="#1E1716" d="M484.3,460.5c-4.6,0.2-9.1,0.3-14,0.5c-2.1,2.4-1.4,6.5-3.2,9.2c-0.8,0.2-1,0.7-0.9,1.5   l0,0c-0.3,0-0.7,0-1,0c1.4-4.6,1.6-9.4,3.8-14.1c-0.4-1.4-0.9-3-1.3-4.6c0.3-0.3,0.6-0.6,0.8-0.9c1.7,2,1.5,4.6,2.2,7   c6.7,1.2,13.7-0.8,20.2,0.7c-1.1,0.4-2.5-0.5-3.4,0.8c-0.3,0-0.6,0-0.8,0C485.8,459.5,485.8,459.5,484.3,460.5z" />
	<path display="inline" fill="#393A45" d="M576.6,166.2c-0.8,0.4-0.7,0.9-0.2,1.6c2.4,3.2,3.9,7,4.3,11c-1.3,0-2.5-1.1-2.4,0.9   c-1.7-6.5-4-15.6-11-18.2l0,0c0.5-0.5,1-1,1.5-1.3C572.1,161.3,574.7,163.3,576.6,166.2z" />
	<path display="inline" fill="#221817" d="M467.8,417.9c10.2,1.6,20.5,3.7,29.9,8.1c-0.5,0.3-1.1,0.5-1.6,0.8   c-10.6-3.4-21.4-6.4-32.5-7.8c0.8-0.4,2,0.2,2.6-0.8C466.7,418,467.3,418,467.8,417.9z" />
	<path display="inline" fill="#171412" d="M508.3,547.3c5.2,0.8,9.4,4.1,13.9,6.6c-0.5,0.2-1,0.5-1.6,0.7c-2.2-0.7-4.4-1.4-6.8-2.2   c-0.6,0.3-1.4,0.8-2.4,1.3c-0.1-1.2-0.3-2-0.4-2.8c-0.8-0.4-1.5-0.7-2-0.9c-1.6,1.3-2,2.4-4.2,2   C505.2,549.6,506.7,548.8,508.3,547.3z" />
	<path display="inline" fill="#211D1C" d="M447.4,501.2c-0.3-0.4-0.6-0.7-1-1.1c3.7-9.1,9.3-17.2,15.9-24.4c0.3,0.3,0.6,0.6,0.8,0.9   C458.1,485,451.3,492,447.4,501.2z" />
	<path display="inline" fill="#2C2023" d="M568,160.7c-0.3,0.3-0.5,0.5-0.8,0.8c-12.4-6.8-24.7,1.4-30.8,12.6   c-0.4,0-0.7-0.1-1.1-0.1c5.1-11.6,16.1-18.1,28.7-15.5c0.3,0.7,1,0.7,1.6,0.7c0.4,1.4,1.6,0.3,2.3,0.9   C568,160.2,568,160.4,568,160.7z" />
	<path display="inline" fill="#171211" d="M423.4,486.4c2.4-6.6,8.7-10.1,13.6-14.7c0.3,0,0.6,0,0.9,0.1   c-2.5,6.9-10.2,9.4-13.6,15.7C424,487.1,423.7,486.7,423.4,486.4z" />
	<path display="inline" fill="#23282A" d="M423.6,178.9c-5.4,8.1-15.4,13.8-25.3,10.9c0-0.2,0-0.5,0-0.7l0,0   c9.9,1.3,18.8-2.9,24.5-11.1C423,178.3,423.3,178.6,423.6,178.9z" />
	<path display="inline" fill="#252221" d="M540.3,233.9c0.1,1.2,0,2.4,0.9,3.4c-0.9,7.1-2.6,14.3-6.3,20.5c-0.3-0.4-0.6-0.7-0.9-1.1   C536.9,249.2,539.2,241.7,540.3,233.9z" />
	<path display="inline" fill="#33312C" d="M462.3,556.3c-0.3-0.8,0.3-1.9-0.8-2.5c-0.6-6.4,3-11.9,5.3-17.6c0.3,0.3,0.6,0.7,0.9,1   c-0.6,4.8-4.2,8.7-4.3,13.5C463.6,552.6,463.3,554.5,462.3,556.3z" />
	<path display="inline" fill="#261D1C" d="M502.6,428.2c5.4,2.6,10.5,5.8,15.7,8.8c-0.3,0.3-0.7,0.6-1,1c-5.5-2.3-10.4-5.9-15.7-8.8   C502,428.8,502.3,428.5,502.6,428.2z" />
	<path display="inline" fill="#251F1C" d="M508.3,547.3c-0.6,0.6-1.2,1.1-1.8,1.7c-0.6-4.4-4.2,1.7-6.6,1.4   c-1.6-2.9,1.7-3.7,2.4-5.7c-0.8-0.5-1.4-0.8-2.1-1.2c0.3-0.5,0.6-1.1,0.8-1.6C503.2,544,505.6,545.8,508.3,547.3z" />
	<path display="inline" fill="#222426" d="M559.4,214.4c-0.4,1.3-2,0.3-2.6,1.2c5.5,0.9,8.4-0.1,14.4-5.2c0.3,0.3,0.6,0.6,1,0.9l0,0   c-5.8,5.7-12.9,7.1-20.6,4.6c2-1.7,5.5-0.8,7.9-2.3C559.4,213.8,559.4,214.1,559.4,214.4z" />
	<path display="inline" fill="#2F2C2A" d="M471.1,389.8c-0.1-0.4-0.1-0.8-0.2-1.2c2.5-4.6,3.8-9.6,5.6-14.6c-1-0.1-1.7-0.2-2.4-0.3   c1.9-1.1,2.2-1,3.9,0.9C477,378.1,474.1,387.8,471.1,389.8z" />
	<path display="inline" fill="#474854" d="M420.5,122.7c-0.2,0.2-0.3,0.4-0.6,0.7c1.9,1.5,4.1,2.7,5.3,4.9c-1.3-0.3-2.6-0.5-3.9-0.8   l0,0c-2-1.9-4-3.7-6-5.6c0.2-0.5,0.3-1,0.5-1.4C417.5,120.7,419,121.6,420.5,122.7z" />
	<path display="inline" fill="#3C3735" d="M533.9,256.7c0.3,0.4,0.6,0.7,0.9,1.1c-3.2,5.1-6.4,10-9.2,15.2c-0.3-0.3-0.6-0.7-0.9-1   C527.3,266.6,530.1,261.3,533.9,256.7z" />
	<path display="inline" fill="#231E20" d="M432.1,172.5c-1.8,3.6,0.7,8.6-1.4,11.8c0-3.7,0-7.4,0-11.3c-0.7-0.6-1.4-1.3-2.2-2   c-0.4,0-0.7-0.1-1.1-0.1c1.3-2.7,1.3-6.6,3.3-8.6c-0.5,2.3-1,4.7-1.5,7.2c0.6,0.5,1.3,1,2.1,1.5C431.7,171.5,431.9,172,432.1,172.5   z" />
	<path display="inline" fill="#120F0E" d="M501,541.8c-1.1,2.4-3.4,4.2-6,4.8c-1.8-2.8,2.1-3.8,3.8-5.7c-1.1-0.6-1.9-1-2.6-1.4   c0.5-0.5,1-0.9,1.6-1.4c0.2,0.1,0.4,0.2,0.7,0.2c0,0.2,0,0.4,0.3,0.5c0.2,0.3,0.4,0.6,0.6,0.8l0,0C499.9,540.3,500.5,541,501,541.8   z" />
	<path display="inline" fill="#1C1918" d="M437.9,471.7c-0.3,0-0.6,0-0.9-0.1c0-0.2,0-0.4,0.1-0.7c1.1-0.9-4.2-3.5-5.5-3.8   c1.4-0.2,2.9-0.5,4.3-0.5c0.3-0.4,0.5-0.8,0.8-1.4c0.6,1.1,1.1,2,1.6,2.8c0.6,0.1,1,0.1,1.6,0.2C439.8,470,439.6,471.2,437.9,471.7   z" />
	<path display="inline" fill="#403D3B" d="M530.3,444.8c3,3.9,3,8.9,2.1,13.5c-0.3,0-0.5,0-0.8,0c-0.1-2.9,0.3-5.8-0.9-8.6   c0.1-0.7,0.1-1.3-0.6-1.8c-0.3-0.8-0.6-1.5-0.9-2.3C529.7,445.4,530,445.1,530.3,444.8z" />
	<path display="inline" fill="#483A37" d="M535.1,174c-1.7,2.6-9.5-1.5-8.1,3.2c0,0-0.2,0.3-0.2,0.3c-0.5-0.6-0.9-1.2-1.4-1.8   c-0.1-2.4,1.5-2.7,3.9-2.4c0.4,1,1.1,0.8,1.9,0.6c-0.3-0.5-0.3-1.1-0.2-1.7C532.4,172.8,533.7,173.4,535.1,174z" />
	<path display="inline" fill="#151411" d="M436.3,563.2c0.2-0.2,0.4-0.4,0.6-0.6c0.6,0.3,1.1,0.7,0.8,1.5l0.1-0.1   c-1.8,1.3-3.2,3.4-5.7,3.7c-1.7-1.1-0.4-2,0.2-2.9C433.6,564.3,435.2,564.2,436.3,563.2z" />
	<path display="inline" fill="#44403A" d="M399,547.3c0.3,0.3,0.7,0.7,1,1c-1.5,2.7-2.4,5.6-3.2,8.7c-0.4-0.8,0.3-1.9-0.8-2.4   C397,552.3,396.5,548.6,399,547.3z" />
	<path display="inline" fill="#584644" d="M530.3,444.8c-0.3,0.3-0.6,0.6-1,0.9c-1.4-3.2-5.8-2.3-7-5.6l0,0c2.9,0.4,5.9,1.8,7.9,4   C530.2,444.3,530.2,444.5,530.3,444.8z" />
	<path display="inline" fill="#3D3936" d="M409.3,536.3c0.4,0.8-0.4,2,0.8,2.5c-0.3,1.3-0.6,2.5-0.9,3.8c-1.1,0.9-0.6,2.2-0.6,3.3   c-0.3,0-0.6,0-0.8-0.1c-0.1-0.8,0.4-1.9-0.8-2.4C407.7,541.1,408.5,538.7,409.3,536.3z" />
	<path display="inline" fill="#4D423E" d="M520.6,554.6c0.5-0.2,1-0.5,1.6-0.7c1.8,1.9,4.4,1.8,6.6,2.9c-0.3,0.3-0.6,0.6-1,0.8   C525,557.7,522.7,556.4,520.6,554.6z" />
	<path display="inline" fill="#262B2D" d="M427.5,170.9c0.4,0,0.7,0.1,1.1,0.1c-1.4,2.8-3.2,5.3-5,7.8c-0.3-0.3-0.6-0.6-0.8-0.8   c0-0.2,0-0.5,0-0.7C424.9,175.6,426,173.1,427.5,170.9z" />
	<path display="inline" fill="#1B1717" d="M487.5,460.5c3-1.6,7.3-1.1,10.5-0.1c-0.3,0.3-0.7,0.6-1,0.9   C493.8,461.1,490.7,460.8,487.5,460.5z" />
	<path display="inline" fill="#36302F" d="M423.4,486.4c0.3,0.4,0.6,0.7,1,1.1c-0.8,1.8-1.7,3.7-2.5,5.5c-0.5,0-1,0-1.5,0   C421.4,490.8,422.4,488.6,423.4,486.4z" />
	<path display="inline" fill="#45403E" d="M531.7,458.3c0.3,0,0.5,0,0.8,0c0.2,2.8-0.8,5.4-1.4,8c-0.3-0.6-0.5-1.1-0.8-1.7   C530.7,462.5,531.2,460.4,531.7,458.3z" />
	<path display="inline" fill="#2B2826" d="M420.5,239.6c1.6,0.9-0.1,3,1.4,3.9c0,1.3,0.1,2.6,0.1,4c-0.3,0-0.6,0-0.9,0   C420.9,244.9,420.7,242.2,420.5,239.6z" />
	<path display="inline" fill="#464140" d="M442.6,155.9c0.3-0.6,0.5-1.2,0.8-1.7c1.1,1.7,1,3.7,1.7,5.6c-0.4,0-0.7,0.1-1.1,0.1   C443.4,158.6,442.3,157.5,442.6,155.9z" />
	<path display="inline" fill="#685E5A" d="M502.6,428.2c-0.3,0.3-0.6,0.7-1,1c-1.8-0.8-3.8-1.3-5.5-2.4c0.5-0.3,1.1-0.5,1.6-0.8   C499.3,426.7,501,427.4,502.6,428.2z" />
	<path display="inline" fill="#4B4945" d="M428.1,551.5c-0.5,0.2-0.9,0.5-1.4,0.7c-0.4-1.6-0.9-3.2-1.7-4.7c0.3-0.3,0.6-0.6,1-1   C427.4,547.9,427.6,549.8,428.1,551.5z" />
	<path display="inline" fill="#4D4846" d="M463.2,476.6c-0.3-0.3-0.6-0.6-0.8-0.9c0.9-1.3,1.9-2.7,2.8-4c0.3,0,0.7,0,1,0   C465.2,473.3,464.2,474.9,463.2,476.6z" />
	<path display="inline" fill="#322427" d="M562.1,158.2c-2.8,0-5.6,0-8.5,0C556.5,157.2,559.3,157.5,562.1,158.2z" />
	<path display="inline" fill="#F6D9C7" d="M467.8,417.9c-2,0.4-4.1,0-6.1,0c-0.1-0.2-0.3-0.3-0.4-0.5   C463.4,417.5,465.9,416.6,467.8,417.9z" />
	<path display="inline" fill="#322B28" d="M527.8,557.7c0.3-0.3,0.6-0.6,1-0.8c1.1,0.5,1.5,1.3,1.4,2.5c-0.9,0.3-0.7,1.1-0.9,1.8   c-0.2-0.1-0.4-0.2-0.6-0.3C528.4,559.7,528.9,558.4,527.8,557.7z" />
	<path display="inline" fill="#473E3C" d="M517.3,437.9c0.3-0.3,0.7-0.6,1-1c0.8,0.5,1.6,1,2.4,1.5c0,0.4,0,0.7-0.1,1.1   C519.5,439,518.4,438.5,517.3,437.9z" />
	<path display="inline" fill="#675B58" d="M531,172.2c0,0.4,0,0.7,0,1.1c-0.9,0-1.7,0.1-2.6-0.1C529.1,171.4,529.2,171.3,531,172.2z   " />
	<path display="inline" fill="#2B2826" d="M421.2,247.5c0,1.4,0.4,2.9-0.7,4C420.3,250,420.2,248.7,421.2,247.5z" />
	<path display="inline" fill="#452626" d="M461.3,417.3c0.1,0.2,0.3,0.4,0.4,0.5c-1,0.5-2.1,1-3.3,1c0.3-0.6,0.5-1.3,0.8-1.9   C459.9,417.1,460.6,417.2,461.3,417.3z" />
	<path display="inline" fill="#786866" d="M520.6,439.6c0-0.4,0-0.7,0.1-1.1c0.8,0.3,1.5,0.7,1.5,1.6l0,0   C521.6,440.2,521,440.2,520.6,439.6z" />
	<path display="inline" fill="#E1C7B6" d="M484.3,460.5c1.5-1,1.5-1,2.4,0.1C485.9,460.5,485.1,460.5,484.3,460.5z" />
	<path display="inline" fill="#151411" d="M440.4,565.5c-0.7,0.3-1.4,0.5-2.1,0.8c0.1-0.5,0.2-1,0.3-1.5l-0.1,0.1   C439.3,564.7,440,564.8,440.4,565.5z" />
	<path display="inline" fill="#322427" d="M565.7,159.1c-0.6,0-1.3,0.1-1.6-0.6C564.6,158.7,565.2,158.9,565.7,159.1z" />
	<path display="inline" fill="#484E5B" d="M398.3,189.1c0,0.2,0,0.5,0,0.7c-0.7,0.2-1.3,0.1-1.8-0.6   C397.2,189.2,397.7,189.1,398.3,189.1z" />
	<path display="inline" fill="#322427" d="M567.5,159.8c-0.7,0.1-1.5,0.2-1.8-0.7C566.3,159.3,566.9,159.6,567.5,159.8z" />
	<path display="inline" fill="#4D4846" d="M466.2,471.6c-0.1-0.7,0.1-1.3,0.9-1.5C466.8,470.6,466.5,471.1,466.2,471.6z" />
	<path display="inline" fill="#F7EFD0" d="M507.3,546.5c-0.5-0.2-1.1-0.4-1.6-0.7C506.3,545.8,506.9,545.8,507.3,546.5z" />
	<path display="inline" fill="#E1C7B6" d="M437,470.2c0.7,0.3,0.7,0.3,0.1,0.8C437,470.8,436.9,470.5,437,470.2z" />
	<path display="inline" fill="#322427" d="M568,160.7c0-0.2,0-0.5,0-0.7c0.3,0.1,0.5,0.1,0.8,0.2C568.5,160.3,568.3,160.5,568,160.7   z" />
	<path display="inline" fill="#322427" d="M552.2,158.5c-0.4,0.2-0.8,0.3-1.2,0.5C551.4,158.8,551.8,158.6,552.2,158.5z" />
	<path display="inline" fill="#7787AD" d="M358.7,148.2c0.3,0,0.6-0.1,0.9-0.1c0.1,0.2,0.1,0.4,0.2,0.6   C359.4,148.5,359.1,148.4,358.7,148.2z" />
	<path display="inline" fill="#F7EFD0" d="M498.4,538.3c-0.2-0.1-0.5-0.1-0.7-0.2c0-0.3,0-0.6,0-0.8   C498,537.5,498.2,537.9,498.4,538.3z" />
	<path display="inline" fill="#F7EFD0" d="M499.3,539.6c-0.2-0.3-0.4-0.6-0.6-0.8C498.9,539,499.1,539.3,499.3,539.6z" />
	<path display="inline" fill="#F7EFD0" d="M500.1,540.5c-0.3-0.3-0.5-0.6-0.8-0.9C499.6,539.9,499.8,540.2,500.1,540.5z" />
	<path display="inline" fill="#F7EFD0" d="M505.7,545.9c-0.3-0.2-0.6-0.5-0.9-0.7C505,545.4,505.3,545.6,505.7,545.9z" />
	<path display="inline" fill="#373A46" d="M571.2,212c0.3-0.2,0.6-0.5,0.8-0.7C571.8,211.5,571.5,211.8,571.2,212z" />
	<path display="inline" fill="#373A46" d="M574.4,208.9c0.2-0.3,0.5-0.6,0.7-0.8C574.9,208.3,574.7,208.6,574.4,208.9z" />
	<path display="inline" fill="#F6D9C7" d="M529.4,443.2c-0.3-0.2-0.6-0.5-0.9-0.7C528.8,442.8,529.1,443,529.4,443.2z" />
	<path display="inline" fill="#F6D9C7" d="M530.1,444.1c-0.3-0.3-0.5-0.5-0.8-0.8C529.6,443.5,529.9,443.8,530.1,444.1z" />
	<path display="inline" fill="#151411" d="M437.7,564c0.3,0.2,0.6,0.8,0.9,0.7C438.4,564.5,438.1,564.2,437.7,564L437.7,564z" />
	<path display="inline" fill="#16161B" d="M559.4,214.4c0-0.3,0-0.5,0-0.8c19.4-8.4,23.9-38.3,7.9-52.1   C585.9,172.4,579.8,208.1,559.4,214.4z" />
	<path display="inline" fill="#1C1E24" d="M549.2,180c6.5-10.7,18.5,5.6,10.2,12.3l0,0c-0.1-0.5,0-1.1-0.1-1.6   c2.5-2.1,1.6-4.8,0.9-7.4c0,1.5-0.1,3-0.1,4.6c-0.4-0.2-0.6-0.3-0.8-0.4C560.5,180.9,555.2,174.8,549.2,180z" />
	<path display="inline" fill="#7A8DB2" d="M549.2,180c2.6-1.9,6.8-3.5,8.6,0.4c-1.3,0.7-2.4,1.6-2.4,3.2c-1.8-1.4-3.9-1.9-6.1-1.8   C549.2,181.2,549.2,180.6,549.2,180z" />
	<path display="inline" fill="#131013" d="M549.2,181.9c2.2-0.1,4.3,0.4,6.1,1.8c0.2,1,1.5,2.1,0,3.1c-0.3,0-0.7,0-1-0.1   c-0.2-5-9.6-1.8-11-6.1c1.3-1.3,2.2,1.6,4.1,0.4C547.9,180.8,548.7,181.5,549.2,181.9z" />
	<path display="inline" fill="#B69E91" d="M543.4,180.6c0,0.1,0,0.3,0,0.4c-1.2,0.8-1.2,0.8-1.7-0.6   C542.4,179,542.9,180.4,543.4,180.6z" />
	<path display="inline" fill="#1C1E24" d="M558.6,193c-0.3,0.8-0.9,0.8-1.6,0.8l0,0C557.3,193.1,557.9,193.1,558.6,193L558.6,193z" />
	<path display="inline" fill="#1C1E24" d="M559.4,192.3c-0.3,0.3-0.5,0.5-0.8,0.8l0,0C558.8,192.8,559.1,192.5,559.4,192.3   L559.4,192.3z" />
	<path display="inline" fill="#F6D9C7" d="M520.6,439.6c0.4,0.7,1,0.6,1.6,0.5c2,3.6,7.4,2.9,7.9,7.9c-0.6,0.6-1.1,1.1-1.6,1.7   c0.4,0.7,0.5,0.9,0.9,1.4c0.6-0.3,0.9-0.8,1.3-1.3c4.1,15-8.7,27.8-14.1,41c-7.3,14.1-22.1,24.5-25.1,40.6   c-3.8,3.6-7.8,6.6-12.7,8.5c0-0.4-0.1-0.8-0.1-1.1l0,0c2-7.6,16.8-26.1,14.2-32.2c-2.6,1-2.8,4.3-5.7,6.4c5.7-16.9,9.2-34,20-48.4   c2.2,1,5,1.6,5.6-1.6c-9.5-13-30.3-7-41.9-15.8c-4.4,1.5-7.6-1.6-10.3-4.7c-3.7-4.2-9-6.5-12.9-10.4c4.1-4.2,8.8-7.5,10.6-13.2l0,0   C480.9,419.1,501.5,428.8,520.6,439.6z M512.1,451.7c0,0.8,0,1.5,0,2.7c1.6,1.1,3.1,3.5,5.4,3.1c1.2,2.2,3.9-0.8,3.1-2.5   c-0.7-3.1-5.8-6.4-8.6-4.6C512,450.8,512.1,451.3,512.1,451.7z M512.5,475.8c-1.6,1.6-1.1,3.3-1,5.4   C512.8,479.3,513.4,477.8,512.5,475.8z M506.1,493.1c-2.2,0.9-2.5,1.3-3.5,3.9C504.4,496.1,505.9,495.3,506.1,493.1z M509.2,487.2   c0.5-0.2,1.5-1.6,0.5-1.7C509.3,486.1,508.5,486.5,509.2,487.2z M506,491.4c2.1-0.5,2.1-0.5,2.1-1.9   C507.5,490,507.1,490.4,506,491.4z" />
	<path display="inline" fill="#F7EFD0" d="M527.8,557.7c1.1,0.8,0.7,2,0.9,3.1c-20.5,9.1-24.6,5.9-44.4,0.9c-1.2,1-2.2,1.7-2.8,2.3   c-6.3,0.8-11.7-1.6-17.5-2.6c0.3-7,6.6-12.7,5.4-20.2c-0.1-1.4-0.3-2.9,0.9-4c6.6,10.3,15.6,1.5,21.7-4.2c1.1,1.4,2.1,2.6,3.2,4   c-1.7,2.1-6.5,3.4-4.8,6.7c2.5-0.7,3.8-3,5.9-4.3c0.8,0.4,1.5,0.8,2.6,1.4c-1.7,2-5.6,3-3.8,5.7c2.1-0.4,3.6-1.8,5.1-3.2   c0.7,0.4,1.3,0.8,2.1,1.2c-0.7,2-4,2.8-2.4,5.7c2.3,0.3,6-5.7,6.6-1.4c-1.1,0.6-1.1,1.7-1.6,3c2.1,0.4,2.6-0.6,4.2-2   c0.6,0.3,1.3,0.6,2,0.9c0.1,0.8,0.2,1.7,0.4,2.8c1-0.6,1.8-1,2.4-1.3C519.1,553.2,522.6,557.2,527.8,557.7z" />
	<path display="inline" fill="#E1C7B6" d="M478.8,538.7c0,0.4,0.1,0.8,0.1,1.1c-2.3,1.3-3.9-0.1-5.4-1.3c7.7-16.8,13.2-35.2,18.3-53   c4.1-7.9,10.3-15.2,12.9-23.7c-11.3-3.4-22.4-2.1-33.9-2.8c-0.4-4.4-2.6-7.9-4.6-11.8c1.6,0.5,3.3,0.1,4.9-0.1   c11.7,8.8,32.4,2.8,41.9,15.8c-0.5,1.8-1.6,2.8-3.5,2.3c0-1.6-1.4-2.1-2.3-3c-0.4,0.1-0.8,0.1-1.7,0.3c0.9,0.6,1.4,0.9,1.8,1.2   c0,0.2,0,0.5,0.1,0.7c-10.8,14.4-14.3,31.5-20,48.4c2.8-2,3.1-5.3,5.7-6.4C494.7,514.9,481.2,529.7,478.8,538.7   c0-1.2,0.7-2.5-0.3-4.1c-1.1,1.3-1.7,2.5-1,4.1C478,538.7,478.4,538.7,478.8,538.7z M481.4,528c0.2,0,0.4,0,0.6-0.1   c-0.1-0.5-0.1-1-0.2-1.5c-0.2,0-0.4,0-0.5,0.1C481.3,527.1,481.3,527.5,481.4,528z M479.6,532.2c0.2,0.1,0.4,0.1,0.5,0.2   c0.2-0.4,0.4-0.9,0.6-1.3C479.7,530.6,479.9,531.6,479.6,532.2z M482.4,524.7c-0.1,0.1-0.2,0.2-0.3,0.2c0.2,0,0.3,0,0.5,0   C482.6,524.9,482.5,524.8,482.4,524.7z" />
	<path display="inline" fill="#EADCB7" d="M470.2,537.1c-1.2,1-0.9,2.5-0.9,4c1.1,7.5-5.1,13.2-5.5,20.2c5.7,1,11.2,3.4,17.5,2.6   c0.7-0.5,1.6-1.3,2.8-2.3c19.8,5,24,8.1,44.4-0.9c0.2,0.1,0.4,0.2,0.6,0.3c0,0.5-0.1,1-0.1,1.8c-12.4,8.6-28.1,5.6-42.1,4   c-8.8-0.8-18.5,0-26.2-4.7c2.3-8.7,3.9-16.7,7-24.9C468.6,536.5,469.4,536,470.2,537.1z" />
	<path display="inline" fill="#373A46" d="M386.5,154.3c3.5,0.1,6.5,1.3,10.1,2.1c-1.9,2.6-4.4,4.1-6.7,6.5c-0.6,5.2,0.5,7.4,4,7.9   c2.6-2.2,2.8-6.2,5.2-8.6c0.3,3-1.1,5.8-1.6,8.7c0.9,1.4,1.9,2.5,3.4,3.2c5.4-1.9,4.1-9.1,3-13.4c3.1-1.1,3.1-1.1,5.3-3.7   c0.4-5,0.4-5.1-2.9-8.2c-1.1,0-2.8,0-4,0c-0.8,0.6-1.6,1.1-2.3,1.5c-5.5-1.2-11-2.3-16.5-3.5c2.7-13,16.5-29.3,30.7-20.9   c-11.2-12.5-29.5,7.8-32,20.2c-1,0.5-1.1,0.2-2.2-0.2c13.6-44.4,55.3-24.7,42.7,15.8c-10.9,37.9-50.2,30.5-43.6-8.7   c2.8,8.9,0.5,25.7,12.1,29.8c0.3,0.6,0.6,1,1.4,0.2c-0.6-0.1-1-0.2-1.4-0.2c-7.8-7.3-10.1-18.3-9.4-28.5   C383.6,152.8,385,154.5,386.5,154.3z M396.1,184.2c0-0.2,0-0.4,0-0.6c-0.7,0.1-1.4,0.1-2.1,0.2c0,0.1,0,0.3,0,0.4   C394.8,184.2,395.4,184.2,396.1,184.2z" />
	<path display="inline" fill="#4C505E" d="M427.5,170.9c-1.6,2.1-2.6,4.7-4.7,6.3c-1.9,0.1-3.7-0.2-5.5-0.8   c14.3-19,3.3-41.3,13.4-36.3c0.9,4,1.8,8.2,1.4,12.2c0.2,2.8-2.6,7-0.4,9.1C429,163.8,428.9,167.8,427.5,170.9z" />
	<path display="inline" fill="#7787AD" d="M360.4,146.5c0.3-0.3,0.6-0.5,0.8-0.8c14.3,2.6,28.5,5.7,42.7,8.8   c-0.1,0.4-0.2,0.7-0.4,1.2C389.5,154.2,373.7,150.8,360.4,146.5z" />
	<path display="inline" fill="#363A46" d="M417.3,176.5c1.8,0.6,3.6,0.9,5.5,0.8c0,0.2,0,0.5,0,0.7c-3.5,4.3-7.3,8.2-12.7,10.2   c-1.2-1.6-3-1.5-4.7-1.5C409.9,184,414,180.7,417.3,176.5z" />
	<path display="inline" fill="#373A46" d="M430.6,140.2c-1.9-0.1-4-2.2-4.7,0.8c-1.2-4.5-2.6-9.1-4.7-13.4c1.3,0.3,2.6,0.5,3.9,0.8   C428.1,131.8,430.1,135.6,430.6,140.2z" />
	<path display="inline" fill="#484E5B" d="M405.4,186.7c1.7,0,3.5-0.1,4.7,1.5c-3.7,1.5-7.9,0.6-11.8,0.9   C400,187.4,403,187.4,405.4,186.7z" />
	<path display="inline" fill="#373A46" d="M420.4,126.8c0.3,0.3,0.5,0.5,0.8,0.8C420.9,127.3,420.7,127,420.4,126.8z" />
	<path display="inline" fill="#8A9FC0" d="M404,154.4c-14.2-3.1-28.4-6.1-42.7-8.8c0-0.6,0-1.2,0-2.1c13.6,2.7,26.7,5.6,40.3,8.4   C402.8,152.2,404.7,152.8,404,154.4z" />
	<path display="inline" fill="#09090B" d="M403.9,160.7c1.1,4.3,2.4,11.6-3,13.4c-1.5-0.7-2.5-1.8-3.4-3.2c0.5-2.9,1.9-5.7,1.6-8.7   l0,0c0.3-0.3,0.5-0.5,0.8-0.8c0.3,0.3,0.6,0.6,0.9,0.9c0.2,3-1.4,6-0.7,8.9C404.6,173,401.6,158.5,403.9,160.7z" />
	<path display="inline" fill="#7789AD" d="M393,168.9c-5.7-4.3,3.2-10.9,7.2-11.9C397.8,161,395.4,165,393,168.9z" />
	<path display="inline" fill="#6B7A96" d="M402.6,150.4c7.3-3.3,7,10.9,0.1,8.1c2.5-2,4.8-6.4,0.5-7.4   C402.9,151.1,402.8,150.7,402.6,150.4z" />
	<path display="inline" fill="#8697B6" d="M402.3,169.4c0.1,0.6-0.5,1.1-0.8,1.6c-1.6-2.5-0.7-5.8-0.8-8.6c1.2-1.3,0.4-3,1-4.6   c1.7,3.2,1.1,6.5,1.2,10C402.2,168.1,402.2,168.8,402.3,169.4z" />
	<path display="inline" fill="#6D7DA0" d="M359.6,146.4c-0.6,0-1.2,0-1.8,0c-0.6-2.3-0.6-2.3,1.4-2.9   C360,144.4,359.7,145.4,359.6,146.4L359.6,146.4z" />
	<path display="inline" fill="#373A46" d="M399.9,161.5c-0.3,0.3-0.5,0.5-0.8,0.8c0-0.3,0.1-0.7,0.1-1   C399.4,161.3,399.7,161.4,399.9,161.5z" />
	<path display="inline" fill="#F6D9C7" d="M465.1,471.6c-6.8,9.1-14.6,17.6-18.7,28.4c-7.9,14.5-20,27.3-23.3,43.8   c-4.6,1.7-11.9,10-16.3,8.4c5.1-6.6,6.8-14.3,10.3-21.4c1.9-4.6,4.6-8.9,4.8-14.1c-1.1,0.8-1.9,1.4-2.8,2.1   c1.1-7.8,4.5-15.7,6-23.6c3.6-10.7,13.5-10.9,16.3-27.5c3.3,1.6,5.9,4.3,9.2,5.6c3.6-15.8-45-19.4-58.7-46.6   c24.3-21.2,51.6,5.4,71.9,19.9C471.4,458.8,467.8,458.4,465.1,471.6z M450.4,481.2c0.1,0.2,0.3,0.4,0.4,0.6c0.8-1.6-0.1-2.9-1.3-5   C449.6,478.9,449.3,480.1,450.4,481.2z M429.9,496.2c-0.7,0.9-3.3,2.7-1.1,3.4C429.8,498.7,430.1,497.5,429.9,496.2   c1.6-0.6,1.6-0.6,1.2-2.1C430.1,494.4,429.9,495.2,429.9,496.2z M427.4,501.7c-1.9,1.4-2.5,2.9-1.9,5.1   C426.8,505,427.4,503.6,427.4,501.7z M456.1,463.6c-0.2,1.7,0.6,2.5,1.2,3.7C457.9,464.7,457.9,464.7,456.1,463.6z M450.3,489.8   c0-1,0-1.9,0-2.7c-0.2,0-0.3-0.1-0.5-0.1c-0.3,0.8-0.6,1.6-0.9,2.4C449.4,489.5,449.7,489.6,450.3,489.8z M449.7,484.1   c0.8,0.6,2-0.2,1.2-1.1C450,482.7,449.8,483.3,449.7,484.1z M446.6,453.9c-0.1,0.9,0.2,1.4,1.3,1.6   C448,454.6,447.7,454.1,446.6,453.9z M434.7,489.8c-0.7-0.4-1.1-0.9-1.5-0.1C433.6,490.7,433.9,490.5,434.7,489.8z M450.3,459   c0.1,1.1,0.4,2,1.5,1.1C451.3,459.7,450.8,459.4,450.3,459z M454.1,461.4c-1,1-0.2,1.9,0.8,1.4   C454.7,462.4,454.4,461.9,454.1,461.4z" />
	<path display="inline" fill="#E1C7B6" d="M413.3,539.7c-0.1,1.7-0.5,3.3-1.6,4.6c-0.1-0.5-0.1-0.9-0.2-1.4   c-0.5,0.3-0.9,0.5-1.3,0.7c-0.3-0.3-0.6-0.6-1-1c6.3-18.1,8.1-37.4,15.1-55.1c3.4-6.4,11-8.8,13.6-15.7c1.7-0.6,1.8-1.7,2-3.4   c-0.5-0.1-1-0.1-1.6-0.2c-0.5-0.8-1-1.7-1.6-2.8c-0.4,0.6-0.6,0.9-0.8,1.4c-14.1-1.3-29.9-1.4-41.5-11   c-11.9-12.4-16.7-15.4-2.5-29.1c13.9,27.3,62.2,30.5,58.7,46.6c-3.3-1.3-5.9-3.9-9.2-5.6c-3.6,18.4-12.3,15.9-16.3,27.5   c-1.5,8-4.9,15.9-6,23.6c0.8-0.6,1.6-1.2,2.8-2.1c-0.3,4.8-2.3,9.2-4.6,13.4c-1.7-1.5-2.1,1-0.1,0.7c-0.3,0.3-0.5,0.6-0.8,0.8   c-1.6-0.3-3.1,3.2-1.6,4c-0.1,0.8,0.3,1.8-0.7,2.3c-0.2-0.4-0.3-0.9-0.5-1.4C412.4,537.6,412,538.5,413.3,539.7z M433.5,462.4   c-0.1,1.5,0.4,2.4,2,1.9C434.7,463.6,434.1,463,433.5,462.4z M432.4,462.4c-1.2-1.4-1.2-1.4-2.3-1.5   C430.6,462.2,430.7,461.8,432.4,462.4z" />
	<path display="inline" fill="#FD9976" d="M403.1,396.7c18.2,4,34.3,36.3,53.5,20.5c0.1,0.6,0.1,1.1,0.2,1.5c-2,2.2-6.1,2.3-6.2,5.9   c1.3-0.8,2.2-1.4,3.1-1.9l-0.1-0.1c-1.2,3.4-5.1,5.8-7.5,8.7c-8.3-5.1-15.5-9.6-23.2-15.2c0.8,1.3,1.2,2,1.6,2.7   c-7.6-3.6-14.2-9.5-22.2-12.6c0.1-1.9,2.5-2.2,4.3-4c-3.9-0.7-5.2,3.4-9,2.3c0-1.3,0-2.7,0-4C399.3,399.3,401.2,398,403.1,396.7z    M441.7,426.7c-0.2,0.1-0.4,0.1-0.4,0.4c1-1.5,3.7-1.8,2.5-4.1c-1.5,0.6-1.3,1.8-1.3,2.9C442.3,426.2,442,426.4,441.7,426.7z" />
	<path display="inline" fill="#EE8A6A" d="M397.5,400.6c0,1.3,0,2.7,0,4c-0.7,0.1-1.3,0.2-1.9,0.3c1.2,0.8,2.3,1.6,3.4,2.3   c0.7-0.1,1.6-0.1,2.5-0.2c2.3,1.4,4.7,2.5,7.1,3.8c-2.7-0.6-5.5-1.3-8.2-1.9c0,0.1-0.1,0.2-0.1,0.3c1.3,0.7,2.7,1.4,4,2   c0,0.1-0.1,0.3-0.1,0.4c-2.9-0.4-5.8-0.9-8.8-1.3c-0.2,0.4-0.4,0.7-0.7,1.3c3.6-0.1,6.8,0.6,10,1.8c0,0.6,0,1.3-0.9,1.4   c-3.2-2-8.2-0.2-12.1-0.8c0.1,0.2,1.1,3.9,1.1,3.9c0.3,0,0.5,0,0.8,0c0.1,1.5-0.4,3.3,1.6,4c-5.9,4.5-12.1,8.4-14.7,15.8   C372.4,421.3,381.9,406.8,397.5,400.6z M381.1,416.1c1.1,1.6,1.6,1.6,4.4-0.5C383.9,415.6,382.5,415.4,381.1,416.1z" />
	<path display="inline" fill="#1A100E" d="M428.3,420.4c5.8,3.6,11.6,7.3,17.7,11c2.4-2.9,6.3-5.3,7.5-8.7c0.2-0.1,0.3-0.1,0.3-0.1   c-1,0.7-1.9,1.2-3.4,2.1c0.1-3.5,4.3-3.7,6.2-5.9c0.5,1.2,1.1-0.1,1.7,0.1c-1.8,5.7-6.5,9-10.6,13.2c3.9,3.9,9.2,6.2,12.9,10.4   c-0.3,0.3-0.6,0.6-0.9,0.9c-16-10.7-32.2-27-52.8-24.6c2.1-1.6,5.1,0.2,7.1-1.5c1.2-0.2,2.4,0.6,3.7-0.3c-1.3-1-2.4-1.6-3.8-1.2   c-1.8-0.6-3.6-1.2-5.5-1.8c-0.2-0.5-0.4-0.7-0.8-0.2c-0.8-0.2-1.5-0.4-2.3-0.5c7.9-5.7,14.8,6.8,22,6.5   C427.8,419.9,428,420.1,428.3,420.4z" />
	<path display="inline" fill="#FA9875" d="M408.6,413.9c1.8,0.6,3.6,1.2,5.5,1.8c-0.3,0.3-0.6,0.6-0.9,0.9c-6.7-1.1-12.4,2-18,5.4   c-2.4-1-2.2-5.5-0.2-7.1c2.4-0.7,8.9,1.7,9.7-1.4C405.9,412.9,407.3,413.7,408.6,413.9z" />
	<path display="inline" fill="#D38A6A" d="M413.1,416.6c1.3-1.7,3.2-0.9,4.7,0.4c-1.3,0.9-2.6,0.1-3.7,0.3   C413.8,417,413.4,416.8,413.1,416.6z" />
	<path display="inline" fill="#F6D9C7" d="M533.9,256.7c-12.3,19-23.4,41-45.3,50.7c-0.3-0.9,0.8-2-0.2-2.9   c-1.9,3.9-1.6,8.5-2.7,13.1c-5.8-9.7-10.5-19-5.8-30.2c3.5,0.2,6.3,0.3,9.5,0.6c-6.7,33.4,18.8-21.5,25.8-26.3c0-0.8,0-1.6,0-2.3   c0.2-0.3,0.4-0.5,0.6-0.8c3.2,0.1,4.6-4.2,6.5-6.2c2.6,0.4,3-1.9,1-3c4.6-18.3,16.3-35.5,17.5-55c0.6-0.3,1.3-0.7,1.8-0.9   c0.5-3.3-4.3-3.9-6.2-5.8c-1-0.6-1.6-1.8-3-1.6c0-0.7,0-1.5-0.9-1.6c-1.6-2.6-2.8-5.7-2.1-8.7c3.5-0.1,4.2,4.8,7.3,6   c3.3,1,7.2,1.9,7.9,5.8c6.8,1.4,1,11.2,1,15.7C540.8,220.8,541.4,239.6,533.9,256.7z M505,286.2c-1.8,0.3-4.9,1.7-3.4,3.3   C503,289.1,504.2,288.3,505,286.2z M545.5,198.1c0.8-0.1,1.4-0.8,1.1-1.6C545.6,195.5,544.6,197.2,545.5,198.1z M506.6,283   c-0.5,0.6-1,1-0.4,1.5C507.1,284.2,507.2,284,506.6,283z M546,201c-0.9-1.1-1.9-0.6-1.1,0.5C545.2,201.4,545.5,201.3,546,201z    M544.3,204.3c0.7-0.9,0.8-1.2-0.2-1.5C543.4,203.2,543.9,203.6,544.3,204.3z M526.1,249.2c-0.1-0.2-0.2-0.4-0.2-0.6   c-0.4,0.1-0.2,0.5-0.2,0.8C525.8,249.3,525.9,249.3,526.1,249.2z" />
	<path display="inline" fill="#F6D9C7" d="M474.1,373.7c0.7,0.1,1.5,0.2,2.4,0.3c-2.8,5.9-2.8,14.9-9.8,17.1   c-5.1,5.7-8.3,13.1-10,20.5c-4,13.6-19.8,8.2-26.9,0.2c-2.8-6.1-2.3-13.4-3.1-19.9c1.6-1.9,1-4.6,2.4-6.3c0.3,0.3,0.5,0.5,0.8,0.8   c0.1,2.8,4.5,9.6,6.3,4.4c-1.1-3.1-3.1-6.3-2.2-10.2c1.5,1.3,2.9,2.5,4.6,3.5c-0.3,0.2-0.5,0.5-0.8,0.7c0.2,0.3,0.5,0.5,0.9,0.9   c0.9-1.3,1.6-2.5,2.5-3.7c-2.7-4.9-5.3-9.8-3.8-15.8C449.6,366.6,461.4,374.2,474.1,373.7z M463.1,388.1c0.5-0.5,1.5-0.5,1.2-1.9   c-1.4,1-3.7,0.8-3.3,3.1C461.7,388.9,462.4,388.5,463.1,388.1z M453.6,392.1c-2.2,0.6-4.2,0.6-6.1,2.1c4.3,0.1,8-0.8,11.5-3.9   C456.7,390.4,455.3,391.7,453.6,392.1z M445.9,394.8c-2.8-0.9-3.3,0.2-4.7,3.5C443.1,397.6,444.6,396.8,445.9,394.8z M439.4,401   c-2-0.5-2.6,1.6-3.9,2.8C437.1,404.4,437.2,404.3,439.4,401z M447.4,413.2c1.5-0.3,2.7-0.2,3.8-1.2c-0.2-0.4-0.4-0.7-0.7-1.2   C449.6,411.5,448.1,411.4,447.4,413.2z M465.7,385.5c1.3-0.9,1.3-0.9,1.3-2.3C466,383.7,465.1,384.1,465.7,385.5z" />
	<path display="inline" fill="#FFF0A7" d="M451.1,367.6c-4.2-1.2-8.7-2-12.6-4c-0.3-7.2,1.4-14.4,3.2-21.2c1.6-0.8,3.1-1.6,4-3.2   c9.2-5.5,9-17.6,10.8-26.9c4,13,8.8,28.6,23.1,33.4c6.1,3,15.3,0.9,14.2-7.4c0.1,0.1,0.4,0.1,0.6,0.1c3.8,7,5.8,15.9-0.6,22   c-5.3-0.4-10.3,0-15,2.3c-1.8-6.7-15.4-0.6-22.1-8.9c-4.8-3.1-2.3-10.8-7.4-13c-0.9,0.6-1.6,1.3-2.1,2.2c0.5,3-1.1,7.2,0.8,9.5l0,0   c2,13.4,19.4,18.9,30,11.8c1.6,2.1,0.7,4.8-0.1,7C469,373.2,459.8,369.2,451.1,367.6z" />
	<path display="inline" fill="#F6D9C7" d="M481.6,346.1c-0.7-0.1-1.3-0.3-2-0.4c0.3-0.2,0.7-0.3,1.1-0.5c-15.7-7-19-24.2-23.9-39.1   c1.2,0.8,2.1,1.5,3,2.1c0.1,0.2,0.2,0.4,0.2,0.6c0.1-0.1,0.2-0.2,0.2-0.3c-0.2,0-0.4-0.1-0.5-0.1c-0.1-3.4-4.6-4.3-4.7-7.9   c0.9-1.2,1.9-2.5,2.8-3.6c0.7,0,1.3,0.6,1.9-0.4c-1.8-3,0.2-6,0.3-10c8.8,18.4,15.8,10.4,15.3,22.8c0.7-1.3,1.1-2.1,1.6-3.2   c1.7,11,26,34.5,8.1,39.8c-0.9-2.9-2.9-5.5-2.1-9.1c-0.8,0.6-1.3,0.9-1.8,1.3c-1.5-1.7-1.5-1.7-3-1.8c2.1,2.8,4.3,5.6,4.5,9.3   C482.3,345.8,482,346,481.6,346.1z M473.8,316.5c0.7-2.3-0.3-3.5-1-4.8C472.4,313.3,471.7,314.8,473.8,316.5z M467.6,312.7   c-0.9-1-1.8-2.4-3.8-1.9C465.3,312.4,465.3,312.4,467.6,312.7z" />
	<path display="inline" fill="#E0C6B6" d="M475,303.8c0-1.3-0.7-1.9-1.8-2.3c-6.7-3-9.5-8.9-13.1-15c-0.1,4-2.1,7-0.3,10   c-0.6,1-1.2,0.4-1.9,0.4c-0.9,1.1-1.8,2.4-2.8,3.6c-1-1.9-2-3.8-3-5.6c2.5-5.6,2.1-11.3,0.6-17.2c0.3-0.6,0.6-1.1,0.9-1.7   c0,0-0.1-0.2-0.1-0.2c1.1-0.7,0.7-1.9,0.8-3c0.5,0.6,1,1.1,1.5,1.7c1.2-0.1,2.4,0.4,3.4-0.7c0.3,0,0.5,0,0.7-0.1l-0.1-0.1   c0,3.6,1.8,5.6,4.8,7.1c-1.8,0.9-0.2,3.4,1.4,3.9c0.4-1.7-1.1-2.6-1.5-3.9c2.4,0.1,5.3,2.5,7.2,1.6c1.9,1.5,4,2,6.3,2.4   c-1.7,3.9-1,8.4-1.7,12.6c-0.2,0.1-0.2,0.3-0.1,0.5C475,299.6,476.1,301.8,475,303.8z M469.9,294.6c0.5-1.5,0-2.2-1.3-2.7   C468.2,293.2,468.7,293.9,469.9,294.6z M456.1,286.2c-0.1,1.9-0.1,1.9,1.1,2.2C456.9,287.7,456.6,287.1,456.1,286.2z M467.4,288.6   c-0.3,1.6-0.3,1.6,1.3,1.6C468.2,289.6,467.9,289.2,467.4,288.6z M458.2,292.7c-0.1-0.2-0.2-0.5-0.3-0.7c-0.4,0.1-0.3,0.5-0.3,0.8   C457.9,292.9,458.1,292.8,458.2,292.7z" />
	<path display="inline" fill="#221C19" d="M476.4,297.2c0.6-4.2-0.1-8.7,1.7-12.6c4.5,1.6,14.8,2.9,11.6-4.6   c0.6-0.9,1.1-1.6,1.5-2.2c-1.3-2.4-4.4-0.1-5.6-2.7c2.7-0.2,5.2,0.3,7.4-1.6c0.3,1.6-1.6,2.7-0.6,4.6c0.2,0.6-0.5,1.6-0.8,2.4   c1.2,2.3,2.8-1.5,4.6-0.7c-3.1,6.7-9.5,8.7-16.4,7.4c-1.6,3.6-1,8-2.5,11.7C477.2,298.4,477.3,297.5,476.4,297.2z" />
	<path display="inline" fill="#EAD78E" d="M478.9,368.4c0-1.5,0.1-2.9-0.8-4.1c2.9-4.8,10.7-3.9,15.9-3.9c-1.1,1.4-2.2,2.9-3.3,4.2   C487,366,482.6,365.7,478.9,368.4z" />
	<path display="inline" fill="#1F1915" d="M487.5,345.4c4.8-2.4,5-7.3,3.1-11.8c1.8-0.1,2.7,1,3.1,2.6c-0.9,1-0.9,1.1,0.2,2.1   C494.6,341.6,491.2,348.6,487.5,345.4z" />
	<path display="inline" fill="#4A332B" d="M451.1,367.6c1.7,0.4,3.3,0.9,5,1.3c-0.6,0.3-1.2,0.5-1.7,0.8c-1.9-0.4-3.8-0.9-5.7-1.3   C449.5,368.2,450.3,367.9,451.1,367.6z" />
	<path display="inline" fill="#221C19" d="M475.8,301.2c-0.2-1.2-0.3-2.4,0.6-3.4C476.3,298.9,477,300.2,475.8,301.2z" />
	<path display="inline" fill="#858A7D" d="M493.9,338.3c-1.1-1-1.1-1.1-0.2-2.1c0.3,0.7,0.5,1.5,0.8,2.2   C494.3,338.4,494,338.4,493.9,338.3z" />
	<path display="inline" fill="#F7EFD0" d="M437.8,564c0.3,0.3,0.5,0.5,0.8,0.8c-0.1,0.5-0.2,1-0.3,1.5l-0.3,0l-0.3,0.2   c-0.7-0.1-1.3-0.1-1.6,0.7c0,0,0,0,0,0c-1.1,0.8-1.1,1.1,0.1,1.7c1.9,0.7,3.1-0.7,4.5-1.4c4.4,2.4,8.3,5.4,13.3,6.9   c0.1,2.6,1,6-1.2,7.9c-19.1,0.4-38.6-2.4-56.8-7.7c1.6-8.9,2.8-17.4,4-26.1c1.3,0.1,2.6,0.2,4.1,0.4c0.4,12.6,13.8,1,19.2-2.2   c2.3,0.8,3,3.5,3.5,5.7c-2.6,2.2-8,3.3-8.5,6.8c3.5-1.1,6-3.9,9.7-4.3c0.5,0.5,1.1,1,1.7,1.5c-3.1,1.6-7.5,2.1-8.9,5.8   c3.4,1.1,6.7-3.4,10-4.5c0.5,0.7,1,1.5,1.7,2.5c-2.1,1.6-7,1.9-6.3,5.2c2,0.5,3.1-1,4.6-1.2c0.5,0.2,1.1,0.5,1.6,0.7   c-0.6,0.9-1.8,1.8-0.2,2.9C434.6,567.3,436,565.3,437.8,564z" />
	<path display="inline" fill="#EADBB7" d="M399.8,548.9c-0.9,8.6-2.4,16.9-3.8,25.5c18.2,5.3,37.7,8.1,56.8,7.7   c-18.5,8.3-38.1-2.5-57-3.7c-1.1-0.7-2.7-1.8-3.9-3.7C397.1,566.9,395.3,556.9,399.8,548.9z" />
	<path display="inline" fill="#151411" d="M436.1,567.1c0.3-0.7,1-0.7,1.6-0.7C437.5,567.2,436.8,567.2,436.1,567.1z" />
	<path display="inline" fill="#151411" d="M436.2,568.8c-1.1-0.6-1.1-0.9-0.1-1.7C436.2,567.7,436.2,568.2,436.2,568.8z" />
	<path display="inline" fill="#E1C7B6" d="M422,247.5c-2.1-26,14.7-51,9.4-76.5c1.5-0.2,2.7,0.8,3.9,0c0.4,27.9-12.4,56.5-6.4,84.9   c-0.8,0.7-1.6,1.4-2.3,2c0,8.9-1.6,17.6-0.5,26.4c0.6,7.9,11.2,24.1,6.8,29.8c-1.3-0.6-2.4-1.1-3.7-1.7c-0.7,9.1,0.1,17.9,1.4,26.8   c-9.3-2-7-8.2-6.3-15.5c-1.7-24.4-2.6-48.9-2.2-73.4c1.1,1.2,1.7,1.8,3,2.9c0-1.9,0.3-3.3-0.5-4.7c-0.8-0.1-1.7-0.2-2.5-0.3   C422.2,247.9,422.1,247.7,422,247.5z" />
	<path display="inline" fill="#EAD98F" d="M441.7,342.4c-1.8,6.8-3.5,14-3.2,21.2c-5.7-0.8-11.4-1.6-17.1-2.4   c-0.2-8,1.1-15.7,1.5-23.6C429.2,339.2,434.7,344.3,441.7,342.4z M429.3,344.1c-1.8,2.4-1.8,6-2.2,9   C429.6,351.6,428.5,347,429.3,344.1z M427.4,357c-0.2,0-0.3,0-0.5,0c0,1.2-1.7,3.9,0.5,3.8C427.4,359.5,427.4,358.3,427.4,357z" />
	<path display="inline" fill="#2B2826" d="M421.9,253.8c0.3,5.5,0.1,11.1,0,16.6C420.7,265.5,420.7,258.6,421.9,253.8z" />
	<path display="inline" fill="#2B2826" d="M422.1,248.1c0.9,0.1,1.7,0.2,2.5,0.3c0.8,1.5,0.5,2.9,0.5,4.7c-1.3-1.1-2-1.8-3-2.9   C422.1,249.5,422.1,248.8,422.1,248.1z" />
	<path display="inline" fill="#4E4634" d="M430,340.5c-1.9-0.9-3.9-1.9-5.8-2.8c0.3-0.3,0.6-0.6,0.9-1c1.8,0.8,3.7,1.6,5.5,2.4   c0.1,0.2,0.2,0.4,0.2,0.6C430.6,340,430.3,340.2,430,340.5z" />
	<path display="inline" fill="#D4BFAF" d="M409.3,548.2c-0.8,1.4-1.6,2.7-2.5,4.1c-1.2-0.9-0.7-2.4-1.3-3.3c0.5-1.2,1-2.1,2.2-2.3   l-0.1,0C407.9,548.2,407.9,548.2,409.3,548.2z" />
	<path display="inline" fill="#A99E90" d="M407.8,545.8c0.3,0,0.6,0,0.8,0.1l0-0.1c-0.3,0.3-0.5,0.5-0.8,0.8l0.1,0   C407.8,546.4,407.8,546.1,407.8,545.8z" />
	<path display="inline" fill="#D4BFAF" d="M406.9,552.3c0.3,0.2,0.6,0.4,0.9,0.6C407.5,552.7,407.2,552.5,406.9,552.3z" />
	<path display="inline" fill="#F6D9C7" d="M430.8,339.7c-1.6-9.1-2.3-18.2-1.6-27.4c1.4,0.6,2.5,1.1,3.7,1.7   c4.3-5.8-6.2-21.8-6.8-29.8c-1-8.8,0.5-17.5,0.5-26.4c0.7-0.6,1.5-1.3,2.3-2c-5.9-27.8,6.3-56,6.4-83.3c2.9,11.9,3.6,0.3,0-1.6   c-1.2,0.8-2.5-0.2-3.9,0c-0.7-0.5-1.4-1-2.1-1.5c0.9-2.7,0.6-5.8,2.2-7.9c4.4,1,5.6,3.2,8.4,6.7c0.9-3.9-2.6-4.7-3.7-7.5   c0.7-0.9,1.5-1.8,2.3-2.8c-0.8-0.6-1.6-1.1-2.4-1.7c-1,0.4-0.4,1.4-0.8,1.9c-0.5,0.6-1.1,1-1.6,1.5c-3-1.8,0.8-4.5,1.6-6.9   c2.6,0.4,5.3,0.9,7.4,3.1c-0.3,1.6,0.7,2.7,1.4,3.9c-0.3,2-0.1,4.2,0.7,6.6c-0.1,0.2-0.1,0.4,0.1,0.6c-4.9,38.8-9.6,79-1.6,117.4   c8.6,12.6,13.9,28.6,7.9,43.6c-0.5-0.5-1-1-1.5-1.5c0.6-6-1.6-11.5-1.6-17c-2.7-3.5-1.9-8.8-5-12.2c-2.9,12.4,2.1,26.3,4.3,38.9   C443.9,341.5,436.6,341.1,430.8,339.7z M443.1,294.4c0.5-0.4-0.1-1.1-0.2-1.6c-0.3,0.1-0.6,0.2-1,0.3   C442.2,293.7,442.2,294.6,443.1,294.4z M436,183.7c1.9-0.7,2.1-1.4,1.4-2.6C437,181.9,436.7,182.4,436,183.7z" />
	<path display="inline" fill="#080607" d="M444.8,167c-0.5-0.7,0.8-1.2,1.1-1.7c27.9,4.9,55.8,11.5,83.5,17.2c0.7-0.6,1-0.9,1.4-1.3   c0.3,1.2,1,2.2,1.6,3.2c-0.1,0.3-0.2,0.7-0.2,0.9c-27.8-7-57.3-11.7-85.7-18.4c-0.2-0.2-0.3-0.3-0.5-0.5c-0.1,0.2-0.1,0.4-0.2,0.6   c0,0,0,0,0,0C445.5,167.1,445.1,167,444.8,167z" />
	<path display="inline" fill="#7C8BB1" d="M530.8,181.2c-0.4,0.3-0.7,0.7-1.4,1.3c-27.7-5.7-55.6-12.3-83.5-17.2   c-0.4-1-0.7-2.1-1.1-3c1-1.1,1.8-0.7,2.5-0.1c-0.5,0.1-0.9,0.3-1.9,0.5c26.9,7.6,56,11.1,82.9,18c0.1-0.4,0.1-0.7,0.2-1.1   c0.4-0.3,0.7-0.5,1.1-0.8c0.1,0,0.4,0,0.5,0C530.4,179.7,530.6,180.4,530.8,181.2z" />
	<path display="inline" fill="#889EC0" d="M528.6,179.7c-0.1,0.4-0.1,0.8-0.2,1.1c-26.9-6.9-55.9-10.4-82.9-18   c22.1,1.8,44.5,8.9,66.5,13.1c1,1.3,2.6,0.3,3.9,0.8c1,1.4,2.6,0.3,4,0.8c0.7,1.2,2.1,0.3,3.1,0.7   C524.4,179.7,526.9,178.2,528.6,179.7z" />
	<path display="inline" fill="#201A1D" d="M527,179c-0.5-0.1-1-0.1-1.4-0.2c-0.1-0.2-0.2-0.4-0.3-0.6c0.5-0.2,1.1-0.4,1.6-0.7   c0,0,0.2-0.3,0.2-0.3c0.5,0,1,0,1.5-0.1c0.4,0.6,0.7,1.2,1.1,1.7c-0.4,0.3-0.7,0.5-1.1,0.8C528.3,178.9,527.7,178.9,527,179z" />
	<path display="inline" fill="#7C8BB1" d="M514.5,176.4c-0.9,0-1.8,0.4-2.4-0.6C512.9,175.7,513.8,175.7,514.5,176.4z" />
	<path display="inline" fill="#7C8BB1" d="M518.4,177.2c-0.9,0-1.9,0.4-2.5-0.6C516.9,176.5,517.7,176.5,518.4,177.2z" />
	<path display="inline" fill="#7C8BB1" d="M525.3,178.2c0.1,0.2,0.2,0.4,0.3,0.6c-0.9,0-1.9,0.5-2.5-0.6   C523.8,178.1,524.5,178.1,525.3,178.2z" />
	<path display="inline" fill="#7C8BB1" d="M521.7,177.9c-0.7,0.1-1.4,0.3-1.8-0.5C520.5,177.6,521.1,177.7,521.7,177.9z" />
	<path display="inline" fill="#E1C7B6" d="M438.6,384.1c-0.8-0.5-1.6-1.1-2.3-1.6c0.4-0.1,0.8-0.2,1.4-0.3c-1.4-1.3-1.4-1.3-2.2-0.4   c-0.5-0.4-0.9-0.8-1.4-1.2c-0.9,3.9,1.1,7.1,2.2,10.2c-1.8,5.2-6.2-1.6-6.3-4.4c0.5,0,0.9,0,2.1,0c-1.1-0.9-1.8-1.5-2.4-2   c-0.4,0.6-0.3,0.7-0.4,1.3c-1.4,1.7-0.8,4.4-2.4,6.3c0.8,6.5,0.3,13.9,3.1,19.9c-8-5.7-15.1-12.3-24.2-16.3   c12-10.6,14.3-16.4,15.8-32.2c5.8,0.9,12,0.1,17.3,2.4c-0.5,0.1-1,0.3-1.4,0.4c-1.5,6,1.1,10.9,3.8,15.8c-0.8,1.3-1.6,2.4-2.5,3.7   c-0.4-0.4-0.7-0.7-0.9-0.9C438.1,384.6,438.3,384.3,438.6,384.1z M433.5,375.6c-0.4-2.2-0.6-5.7-2.6-6.1   C430.8,372.2,431.1,372.9,433.5,375.6z M434.3,379.1c0.6-1.3,0.2-2-1-2.7C432.6,377.8,433.2,378.5,434.3,379.1z M422.1,403   c-1-1-2-0.3-1,0.7C421.4,403.4,421.7,403.3,422.1,403z M427.9,380.2c0.4-1.6,0.4-1.6-0.9-1.3C427.3,379.3,427.6,379.7,427.9,380.2z    M421.7,399.3c-0.5,0.3-0.4,0.5-0.2,1C422,400,421.9,399.8,421.7,399.3z M428.9,382.8c-0.1-0.1-0.2-0.2-0.2-0.3   c-0.1,0.3-0.4,0.5,0,0.7C428.8,383.1,428.9,382.9,428.9,382.8z" />
	<path display="inline" fill="#453B37" d="M487.6,307.5c-0.1-1.9-0.1-1.9,0.7-3.1c0.9,0.9-0.1,2,0.2,2.9   C488.2,307.4,487.9,307.5,487.6,307.5z" />
	<path display="inline" fill="#4F362D" d="M434.6,415.7c2.4,1.6,4.9,3,7.4,4.5c-0.3,0.3-0.7,0.6-1,0.9c-2.8-0.3-4.9-3.2-7.3-4.6   C434,416.3,434.3,416,434.6,415.7z" />
	<path display="inline" fill="#4B4F5D" d="M573.6,202.5c3.5-7.2,5.4-14.8,4.7-22.8c0-1.9,1.1-0.9,2.4-0.9c2.1,8,0.8,18.9-4.7,25.3   C575.2,203.6,574.4,203,573.6,202.5z" />
	<path display="inline" fill="#7C8EB1" d="M592.1,193c-0.7,1-1.1,1.6-1.6,2.4c-2.7-0.6-5.3-1.1-8.2-1.8c0.1-1.1,0.2-1.9,0.3-2.8   C586.2,190.6,589,191.3,592.1,193z" />
	<path display="inline" fill="#49413C" d="M436.3,160.7c1.1,2.9,4.6,3.6,3.7,7.5c-2.7-2.4-2.7-5.3-6.3-5.9c0.6-0.5,1.2-1.1,1.8-1.7   C435.7,160.7,436,160.7,436.3,160.7z" />
	<path display="inline" fill="#989F92" d="M435.4,160.7c-0.3,0.3-0.6,0.6-0.9,0.9C434.2,160.7,434.2,160.7,435.4,160.7z" />
	<path display="inline" fill="#8FA0C1" d="M555.4,186.7c2.2-1.9-2.5-4,2.4-6.3c2.9,3.3,1.2,7.6-0.1,11l0.1,0   c-1.6,1.2-3.5,2.3-5.5,2.3c0-1.4,0-2.7,0-3.9C553.6,188.7,554.3,187.9,555.4,186.7z" />
	<path display="inline" fill="#7689AD" d="M545.9,182.6c2.6,1.3,8.5,0.3,8.4,4c-3.4,2.4-6.8-1.9-9.9-3.6   C545.2,182.9,545.6,182.8,545.9,182.6z" />
	<path display="inline" fill="#6F81A4" d="M553.8,188.4c-0.5,0.4-0.9,0.8-1.6,1.4c0,1.2,0,2.5,0,3.9c-2.6,0.6-2.4-2.4-2.3-4.1   C551.1,188.6,552.4,188.2,553.8,188.4z" />
	<path display="inline" fill="#A9A598" d="M529.6,178.9c-0.4-0.6-0.7-1.2-1.1-1.7c0-0.7,0-1.5,0-2.2c1.9,0,3.7-0.1,5.6-0.1   c0.2,0.3,0.5,0.5,0.7,0.8c-1.1,0.1-1.6,0.6-1.6,1.7c-0.8-1.3-2.1-2.2-3.6-1.4c0.2,0.1,0.3,0.3,0.5,0.4c0,0.8,0.1,1.7,0.1,2.5   C530,178.9,529.8,178.9,529.6,178.9z" />
	<path display="inline" fill="#433D37" d="M533.2,177.3c0-1.1,0.6-1.7,1.6-1.7c0.3,0.4,0.7,0.7,1,1.1c-1.4,1.1,0.3,2.3-0.1,3.7   C534.9,179.3,534,178.3,533.2,177.3z" />
	<path display="inline" fill="#AF9F92" d="M540.8,181.5c-2.6-0.9-2.2-2.5-2.7-3.6C540.1,176.6,539.8,179.7,540.8,181.5z" />
	<path display="inline" fill="#373A46" d="M554.7,193.1c1.1-0.5,2.2-0.9,3.1-1.7l-0.1,0c0.5,0,1.1,0.1,1.6,0c0,0.3,0,0.6,0.1,0.9   c-0.3,0.3-0.5,0.5-0.8,0.8c-0.7,0-1.3,0-1.6,0.8c-0.8,0-1.7-0.1-2.5-0.1C554.6,193.5,554.6,193.3,554.7,193.1z" />
	<path display="inline" fill="#BCA699" d="M535.7,179.4c0-0.9-1.1-1.8,0.1-2.7c0.8,0.7,1.3,1.6,1.3,2.7   C536.7,180,536.2,179.4,535.7,179.4z" />
	<path display="inline" fill="#6F81A4" d="M554.7,193.1c0,0.2-0.1,0.4-0.2,0.6c-0.2,0-0.5,0-0.7-0.1   C554.1,193.5,554.4,193.3,554.7,193.1z" />
	<path display="inline" fill="#201916" d="M430.7,557.5c-3.3,1.1-6.6,5.6-10,4.5C420.8,559.8,430.9,554.1,430.7,557.5z" />
	<path display="inline" fill="#AEC6AC" d="M432.3,564.8c-0.5-0.2-1.1-0.5-1.6-0.7c1.8-1.2,3.5-2.3,5.7-0.8   C435.2,564.2,433.6,564.3,432.3,564.8z" />
	<path display="inline" fill="#49413C" d="M467.6,452.9c-1.7-2.2-4-4.3-3.8-7.3c2.6,1.3,3.4,4,4.6,6.4   C468.2,452.3,467.9,452.6,467.6,452.9z" />
	<path display="inline" fill="#4D4846" d="M465.6,469.3c0.2-0.6,0.3-1.1,0.5-1.7C466.3,468.3,466.3,468.9,465.6,469.3z" />
	<path display="inline" fill="#140F0E" d="M463.6,418.9c-1.2-0.1-2.5-0.2-3.7-0.2c1.9-1.3,4.1-0.6,6.3-0.6   C465.6,419.2,464.4,418.6,463.6,418.9z" />
	<path display="inline" fill="#A59387" d="M530.8,449.7c-0.4,0.5-0.6,1-1.3,1.3c-0.4-0.5-0.6-0.7-0.9-1.4c0.5-0.5,1.1-1.1,1.6-1.7   C530.9,448.4,530.9,449,530.8,449.7z" />
	<path display="inline" fill="#EFD0BF" d="M528.5,174.9c0,0.7,0,1.5,0,2.2c-0.5,0-1,0-1.5,0.1C526.8,175.9,526.4,174.7,528.5,174.9z   " />
	<path display="inline" fill="#A59185" d="M529.4,173.3c0.5,0,1.1,0,1.6-0.1c0.1,0.2,0.2,0.4,0.3,0.6   C530.5,174.1,529.7,174.3,529.4,173.3z" />
	<path display="inline" fill="#C0A798" d="M409.2,542.6c0.3,0.3,0.6,0.6,1,1c-0.5,0.8-1.1,1.5-1.6,2.3l0,0.1   C408.6,544.7,408.1,543.5,409.2,542.6z" />
	<path display="inline" fill="#4F5666" d="M557.8,190.7c0.3-0.5,0.7-1,1.3-1.2c-0.1-0.1-0.3-0.2-0.4-0.4c0.2-0.6,0.4-1.1,0.7-1.7   c0.2,0.1,0.4,0.2,0.8,0.4c0-1.6,0.1-3.1,0.1-4.6c0.7,2.6,1.6,5.2-0.9,7.4C558.8,190.7,558.3,190.7,557.8,190.7z" />
	<path display="inline" fill="#5D6E82" d="M558.7,190.7c0.2,0,0.4,0,0.6,0c0,0.2,0,0.5,0,0.7c-0.3,0-0.5,0.1-0.8,0.1   C558.6,191.2,558.6,190.9,558.7,190.7z" />
	<path display="inline" fill="#DEC6B5" d="M517.5,457.5c-2.3,0.4-3.8-2-5.4-3.1c0-1.1,0-1.9,0-2.7c0.6,0.6,1.2,1.1,2,1.8   c0.6-1.5-0.1-2.4-1-3.3c-0.4,0.1-0.8,0.1-1.1,0.2c2.8-1.8,7.8,1.5,8.6,4.6C521.4,456.7,518.8,459.7,517.5,457.5   c1.8,0.2,1.8-1.8,0-1.6c-0.3-0.5-0.7-0.9-1.1-1.5c-0.9,1.5,0.2,1.5,1.1,1.5C517.5,456.4,517.5,456.9,517.5,457.5z" />
	<path display="inline" fill="#2D1E1C" d="M512.5,475.8c1,2.1,0.3,3.5-1,5.4C511.3,479,510.8,477.4,512.5,475.8z" />
	<path display="inline" fill="#75625B" d="M506.1,493.1c-0.3,2.1-1.7,3-3.5,3.9C503.6,494.4,503.9,494.1,506.1,493.1z" />
	<path display="inline" fill="#403531" d="M463.9,445.6c0,0.3,0,0.6,0,0.9c-1.3-1-2.7-2.1-4-3.1c0.3-0.3,0.6-0.6,0.9-0.9   C461.8,443.5,462.8,444.5,463.9,445.6z" />
	<path display="inline" fill="#39332F" d="M512,450.4c0.4-0.1,0.7-0.1,1.1-0.2c0.8,0.9,1.5,1.7,1,3.3c-0.7-0.6-1.3-1.2-2-1.8   C512.1,451.3,512,450.8,512,450.4z" />
	<path display="inline" fill="#928378" d="M507.2,462.3c0.9,0.9,2.4,1.3,2.3,3c-0.7-0.3-1.5-0.5-2.2-0.8   C507.2,463.8,507.2,463.1,507.2,462.3z" />
	<path display="inline" fill="#5C5B54" d="M509.2,487.2c-0.7-0.7,0-1.1,0.5-1.7C510.7,485.6,509.8,487,509.2,487.2z" />
	<path display="inline" fill="#7A6F66" d="M506,491.4c1.1-1,1.5-1.4,2.1-1.9C508.1,490.9,508.1,490.9,506,491.4z" />
	<path display="inline" fill="#2D2421" d="M478.8,538.7c-0.4,0-0.8,0-1.3,0c-0.7-1.6-0.1-2.7,1-4.1   C479.5,536.2,478.7,537.5,478.8,538.7L478.8,538.7z" />
	<path display="inline" fill="#7E635B" d="M481.4,528c-0.1-0.5-0.1-1-0.2-1.5c0.2,0,0.4,0,0.5-0.1c0.1,0.5,0.1,1,0.2,1.5   C481.8,528,481.6,528,481.4,528z" />
	<path display="inline" fill="#3F302C" d="M479.6,532.2c0.3-0.6,0.1-1.6,1.1-1.1c-0.2,0.4-0.4,0.9-0.6,1.3   C479.9,532.3,479.8,532.3,479.6,532.2z" />
	<path display="inline" fill="#372825" d="M507.2,462.3c0,0.5,0.1,1,0.1,1.5c-0.5-0.3-0.9-0.6-1.8-1.2   C506.4,462.4,506.8,462.4,507.2,462.3z" />
	<path display="inline" fill="#79645B" d="M482.4,524.7c0.1,0.1,0.1,0.2,0.2,0.3c-0.2,0-0.3,0-0.5,0   C482.2,524.9,482.3,524.8,482.4,524.7z" />
	<path display="inline" fill="#16161A" d="M396.1,184.2c-0.7,0-1.4,0-2.1,0c0-0.1,0-0.3,0-0.4c0.7-0.1,1.4-0.1,2.1-0.2   C396.2,183.8,396.1,184,396.1,184.2z" />
	<path display="inline" fill="#16161A" d="M391.2,182.8c0.4,0.1,0.8,0.1,1.4,0.2C391.8,183.8,391.5,183.4,391.2,182.8L391.2,182.8z" />
	<path display="inline" fill="#697697" d="M400.6,166.1c0.1,1.7-0.2,3.5,0.9,4.9c-0.2,0.5-0.6,0.8-1.4,0.3   C399.8,169.6,399.7,167.8,400.6,166.1z" />
	<path display="inline" fill="#697697" d="M402.3,169.4c-0.1-0.7-0.1-1.3,0.6-1.7C402.7,168.3,402.5,168.9,402.3,169.4z" />
	<path display="inline" fill="#697697" d="M401.5,171c0.2-0.3,0.4-0.6,0.6-0.9C401.9,170.4,401.7,170.7,401.5,171z" />
	<path display="inline" fill="#372D29" d="M408.6,545.8c0.9-1.2,1.4-2.5,3-3c0.1,0.5,0.1,1,0.2,1.4c-0.8,1.3-1.6,2.6-2.4,3.9   c-1.5,0-1.5,0-1.6-1.6C408,546.4,408.3,546.1,408.6,545.8z" />
	<path display="inline" fill="#6C6059" d="M427.4,501.7c0.1,1.9-0.6,3.3-1.9,5.1C424.8,504.6,425.5,503.1,427.4,501.7z" />
	<path display="inline" fill="#948277" d="M414.9,535.7c-1.6-0.8-0.1-4.3,1.6-4C415.9,533,415.4,534.3,414.9,535.7z" />
	<path display="inline" fill="#624E48" d="M429.8,496.1c0.2,1.3,0,2.5-1.1,3.5C426.6,498.9,429.2,497.1,429.8,496.1L429.8,496.1z" />
	<path display="inline" fill="#685650" d="M450.4,481.2c-1-1-0.7-2.3-0.8-4.4c1.2,1.9,1.6,3.1,1.6,4.4   C450.8,481.1,450.6,481.1,450.4,481.2z" />
	<path display="inline" fill="#443A35" d="M456.1,463.6c1.8,1.1,1.8,1.1,1.2,3.7C456.6,466.1,455.8,465.3,456.1,463.6z" />
	<path display="inline" fill="#534A44" d="M450.3,489.8c-0.5-0.2-0.9-0.3-1.3-0.4c0.3-0.8,0.6-1.6,0.9-2.4c0.2,0,0.3,0.1,0.5,0.1   C450.3,487.9,450.3,488.8,450.3,489.8z" />
	<path display="inline" fill="#736058" d="M413.3,539.7c-1.3-1.2-0.9-2.1,0.4-3.1c0.2,0.5,0.3,1,0.5,1.4   C413.9,538.6,413.6,539.1,413.3,539.7z" />
	<path display="inline" fill="#98877C" d="M429.9,496.2c0-0.9,0.2-1.8,1.2-2.1C431.5,495.6,431.5,495.6,429.9,496.2L429.9,496.2z" />
	<path display="inline" fill="#765C55" d="M449.7,484.1c0.2-0.8,0.3-1.5,1.2-1.1C451.6,483.9,450.4,484.7,449.7,484.1z" />
	<path display="inline" fill="#CAB3A4" d="M446.6,453.9c1.1,0.2,1.4,0.7,1.3,1.6C446.8,455.3,446.5,454.8,446.6,453.9z" />
	<path display="inline" fill="#A79286" d="M417.2,530.8c-2,0.3-1.6-2.2,0.1-0.7C417.3,530.3,417.2,530.6,417.2,530.8z" />
	<path display="inline" fill="#CAAEA0" d="M434.7,489.8c-0.8,0.7-1.1,0.8-1.5-0.1C433.6,489,434.1,489.4,434.7,489.8z" />
	<path display="inline" fill="#9D897E" d="M450.3,459c0.5,0.3,1,0.7,1.5,1.1C450.7,461,450.4,460.1,450.3,459z" />
	<path display="inline" fill="#66544D" d="M454.1,461.4c0.3,0.5,0.5,1,0.8,1.4C453.9,463.3,453.1,462.4,454.1,461.4z" />
	<path display="inline" fill="#62615A" d="M450.4,481.2c0.2,0,0.5,0,0.7,0c-0.1,0.2-0.2,0.4-0.3,0.6   C450.6,481.5,450.5,481.4,450.4,481.2z" />
	<path display="inline" fill="#79655C" d="M433.5,462.4c0.6,0.6,1.2,1.1,2,1.9C433.9,464.8,433.4,463.9,433.5,462.4z" />
	<path display="inline" fill="#897168" d="M432.4,462.4c-1.7-0.6-1.8-0.2-2.3-1.5C431.2,461,431.2,461,432.4,462.4z" />
	<path display="inline" fill="#452A20" d="M401.4,407c-0.9,0.1-1.8,0.1-2.5,0.2c-1.1-0.8-2.2-1.5-3.4-2.3c0.6-0.1,1.3-0.2,1.9-0.3   c0.2,0.1,0.3,0.2,0.6,0.1c3.2,1.9,4.5-3.6,8.5-2.4c-1.9,1.8-4.2,2.1-4.3,4C401.9,406.5,401.7,406.7,401.4,407z" />
	<path display="inline" fill="#6F3E30" d="M401.4,407c0.2-0.2,0.5-0.5,0.7-0.7c3.4,1.4,6.9,2.7,9.6,5.4c-1.1,0-2.1,0-3.2,0   c0-0.3,0-0.6-0.1-0.9C406.2,409.5,403.7,408.4,401.4,407z" />
	<path display="inline" fill="#622E24" d="M427.5,419.6c-2.7,1.3-3.3-1.3-4.7-3.5C424.9,417.3,426.2,418.3,427.5,419.6z" />
	<path display="inline" fill="#CB7B5F" d="M442.5,425.9c0-1.1-0.2-2.3,1.3-2.9C444.5,424.5,443.8,425.3,442.5,425.9L442.5,425.9z" />
	<path display="inline" fill="#EE8A6A" d="M400.6,404.6c-1.2,1-1.2,1-2.5,0.1C398.9,404.6,399.8,404.6,400.6,404.6z" />
	<path display="inline" fill="#622E24" d="M428.3,420.4c-0.3-0.2-0.6-0.5-0.8-0.7C427.8,419.9,428,420.1,428.3,420.4z" />
	<path display="inline" fill="#CB7B5F" d="M441.7,426.7c-0.1,0.1-0.3,0.3-0.4,0.4C441.3,426.8,441.5,426.8,441.7,426.7   C441.7,426.7,441.7,426.7,441.7,426.7z" />
	<path display="inline" fill="#CB7B5F" d="M441.7,426.7c0.3-0.3,0.5-0.5,0.8-0.8l0,0C442.3,426.2,442,426.4,441.7,426.7L441.7,426.7   z" />
	<path display="inline" fill="#5F3529" d="M408.5,410.8c0,0.3,0,0.6,0.1,0.9c-1.3,0.6-2.5,1.4-4,1.8c-3.2-1.2-6.4-1.8-10-1.8   c0.3-0.6,0.5-0.9,0.7-1.3c2.9,0.4,5.8,0.9,8.8,1.3c0-0.1,0.1-0.3,0.1-0.4c-1.3-0.7-2.7-1.4-4-2c0-0.1,0.1-0.2,0.1-0.3   C403,409.5,405.8,410.1,408.5,410.8z" />
	<path display="inline" fill="#6E4132" d="M403.8,414.8c-3.1,0-6.2,0-8.9,0c-1.3,1-1.3,2.1-1.4,3.1c-0.3,0-0.5,0-0.8,0   c0,0-1-3.6-1.1-3.9C395.6,414.6,400.6,412.8,403.8,414.8z" />
	<path display="inline" fill="#603529" d="M381.1,416.1c1.4-0.7,2.7-0.5,4.4-0.5C382.7,417.7,382.2,417.7,381.1,416.1z" />
	<path display="inline" fill="#FD9976" d="M453.6,422.7c0.1-0.1,0.3-0.2,0.3-0.2C453.8,422.5,453.7,422.6,453.6,422.7L453.6,422.7z" />
	<path display="inline" fill="#5F3529" d="M408.6,413.9c-0.3-0.1-0.6-0.1-0.8-0.2C408.2,413.2,408.4,413.4,408.6,413.9z" />
	<path display="inline" fill="#DFC6B5" d="M529.4,184.2c0.9,0.3,1.8,0.7,2.8,1.1c0.1-0.2,0.1-0.6,0.2-0.9c1,0.1,0.9,0.9,0.9,1.6   c0.4,1.6,2.1,3,3,1.6c2,1.9,6.7,2.4,6.2,5.8c-0.5,0.3-1.2,0.6-1.8,0.9c-1.2,19.5-12.9,36.7-17.5,55c0.9,0.5,2.4,2.4,0.5,2.9   c0-0.5,0-0.9,0-1.4c-0.2,0-0.3,0-0.5,0c0,0.5,0,1-0.1,1.4c-2.1,0.1-3.8,0.5-3.6,2.5c0.4-0.1,0.8-0.1,1.1-0.2   c-1.5,1.4-2.5,4.4-4.9,3.9c1.9-19.6,36.6-56.2,14.7-71.1C529.1,186.8,527.6,185.8,529.4,184.2z M538.9,194.7c1.1-0.8,1.1-1.4,0-2.2   C538.9,193.2,538.9,193.8,538.9,194.7z" />
	<path display="inline" fill="#DFC6B5" d="M486.7,287.7c6.7-1.4,9.2-7.6,13.1-12.4c4.4-5.9,10.6-10.3,15.3-16c0,0.8,0,1.6,0,2.3   c-9.7,11.4-16.2,26.1-25.1,37.2c-0.3-0.8-0.9-0.9-1.7-0.8c-0.4-3.4,1.2-6.6,1-10.1C488.5,287.9,487.6,287.8,486.7,287.7z" />
	<path display="inline" fill="#120F0E" d="M515.1,259.3c-6.3,7-13.6,12.8-18.9,20.6c-0.3,0-0.6,0-0.9,0c-0.1-0.3-0.1-0.5-0.2-0.8   c3.8-10.8,17.2-15.3,20.8-26c0.3,0.3,0.6,0.7,0.9,1C517.1,256,516.2,257.8,515.1,259.3z" />
	<path display="inline" fill="#483935" d="M505,286.2c-0.7,2.2-2,2.9-3.4,3.3C500,287.9,503.2,286.5,505,286.2z" />
	<path display="inline" fill="#8D7269" d="M536.3,187.6c-0.9,1.4-2.6,0.1-3-1.6C534.7,185.8,535.4,187,536.3,187.6z" />
	<path display="inline" fill="#3D322E" d="M520.6,254.5c-0.4,0.1-0.8,0.1-1.1,0.2c0.1-1.7,0.5-2.1,2.7-2.5   C521.7,253,521.2,253.8,520.6,254.5z" />
	<path display="inline" fill="#594B46" d="M545.5,198.1c-0.9-0.9,0.1-2.6,1.1-1.6C546.9,197.3,546.3,198,545.5,198.1z" />
	<path display="inline" fill="#C2A79A" d="M506.6,283c0.6,1,0.6,1.2-0.4,1.5C505.6,284,506,283.6,506.6,283z" />
	<path display="inline" fill="#BEA698" d="M546,201c-0.5,0.2-0.8,0.4-1.1,0.5C544.1,200.4,545.1,199.9,546,201z" />
	<path display="inline" fill="#BEA698" d="M544.3,204.3c-0.4-0.7-0.9-1.1-0.2-1.5C545.1,203.1,545,203.4,544.3,204.3z" />
	<path display="inline" fill="#867B72" d="M488.3,298c0.7-0.1,1.4,0,1.7,0.8C488.6,299.9,488.6,299.9,488.3,298z" />
	<path display="inline" fill="#635E57" d="M523.1,252.2c0-0.5,0-1,0.1-1.4c0.2,0,0.3,0,0.5,0c0,0.5,0,0.9,0,1.4   C523.5,252.2,523.3,252.2,523.1,252.2z" />
	<path display="inline" fill="#AE9B8F" d="M526.1,249.2c-0.2,0.1-0.3,0.1-0.5,0.2c0-0.3-0.2-0.7,0.2-0.8   C525.9,248.8,526,249,526.1,249.2z" />
	<path display="inline" fill="#7C8BB1" d="M531.5,182.9c-0.1-0.3-0.3-0.5-0.4-0.8C531.2,182.3,531.3,182.6,531.5,182.9z" />
	<path display="inline" fill="#69534D" d="M530.1,176.4c-0.2-0.1-0.3-0.3-0.5-0.4c0.2-0.1,0.4-0.2,0.7-0.2   C530.2,175.9,530.2,176.2,530.1,176.4z" />
	<path display="inline" fill="#483632" d="M445.9,394.8c-1.3,2-2.9,2.8-4.7,3.5C442.6,395.1,443.1,393.9,445.9,394.8z" />
	<path display="inline" fill="#6A5650" d="M454.5,392.8c-3.2,1.4-3.8,1.5-7,1.3c1.9-1.5,3.9-1.5,6.1-2.1   C453.9,392.3,454.2,392.6,454.5,392.8z" />
	<path display="inline" fill="#AD9A8E" d="M439.4,401c-2.1,3.3-2.2,3.4-3.9,2.8C436.8,402.6,437.3,400.5,439.4,401z" />
	<path display="inline" fill="#5D423E" d="M454.5,392.8c-0.3-0.3-0.6-0.5-0.9-0.8c1.7-0.3,3.1-1.7,5.5-1.8   C457.5,391.9,456.1,392.6,454.5,392.8z" />
	<path display="inline" fill="#361D1B" d="M447.4,413.2c0.7-1.8,2.1-1.7,3.1-2.4c0.3,0.5,0.5,0.8,0.7,1.2   C450.2,412.9,448.9,412.9,447.4,413.2z" />
	<path display="inline" fill="#BAAB9D" d="M463.1,388.1c-0.7,0.4-1.4,0.8-2.2,1.3c-0.3-1.4,0.5-1.8,1.3-2.2   C462.6,387.5,462.8,387.8,463.1,388.1z" />
	<path display="inline" fill="#433B37" d="M429.1,385.6c0-0.6,0-0.7,0.4-1.3c0.7,0.6,1.3,1.1,2.4,2c-1.2,0-1.6,0-2.1,0   C429.7,386.1,429.4,385.9,429.1,385.6z" />
	<path display="inline" fill="#675851" d="M465.7,385.5c-0.6-1.3,0.3-1.8,1.3-2.3C467,384.5,467,384.5,465.7,385.5z" />
	<path display="inline" fill="#54423E" d="M463.1,388.1c-0.3-0.3-0.5-0.6-0.8-0.9c0.6-0.3,1.3-0.6,2-1   C464.6,387.6,463.6,387.7,463.1,388.1z" />
	<path display="inline" fill="#806C64" d="M435.4,381.7c0.9-0.9,0.9-0.9,2.2,0.4c-0.6,0.1-1,0.2-1.4,0.3   C435.9,382.2,435.7,381.9,435.4,381.7z" />
	<path display="inline" fill="#BA887D" d="M438.6,384.1c-0.3,0.2-0.5,0.5-0.8,0.7C438.1,384.6,438.3,384.3,438.6,384.1z" />
	<path display="inline" fill="#070605" d="M451.2,298.8c-13.6-21.5-14.1-48.5-11-73.4c0.3,0,0.6,0,0.9,0c0.5,2.5-0.7,5.2,0.4,7.6   c2.1,0.4,4,0.7,5.6,1c6.9-6.5,15.2-9.8,24.6-7c-0.5,4.1-7.9-0.7-10.8,0.9c-0.1,0.5-0.2,0.9-0.3,1.3c-2.2-0.1-4.5-0.1-6.1,2.4   c1.9,0.4,3.6,0.5,5.3,1.1c-0.5,1-1.6,0.3-2.3,0.7c-3.8-1.4-9.9,1.5-10.2,5.4c-1,0.3,0.2,1.1-0.1,1.8c-0.7-0.2-1.3-0.4-1.7,0.5   c-0.6,0.3-0.6,0.6,0,0.9l0,0c-0.1,0.3-0.1,0.5,0.1,0.7c-1.6,1.1-1.4,2.8-1.6,4.4c0.8,0.7,1.6,1.3,2.3,2c-0.3,0.2-0.5,0.5-0.8,0.7   c-0.6-0.2-1.3-0.3-2.1-0.5c0.3,1.5,1.1,2.3,2,3c-0.2,0.2-0.4,0.4-0.6,0.6c-0.5,0-0.9-1-1.6-0.3c0,1.6,2.2,2.2,1.6,3.6   c-0.4-0.2-0.8-0.4-1.4-0.7c0.2,2.2,1.1,3.9,2.2,5.4c-0.2,0.5-0.4,0.9-0.7,1.5c0.9,1.5,1.2,4.2,3.1,4.8c0.4,0.5,0.8,0.9,0.9,1.5   c-2.6,1.2,0.7,4.5,1.7,6.1c0.8-0.9,1.4-1.9,2.7-0.9c0.1,0.5,0,1.3,0.2,1.9c-2.6-0.4-0.4,2.6-3.3,2.4c0.3-1.6-1.2-1.5-2.4-1.7   c-0.7-1.9,0.4-4.1-1.4-5.5l0.1,0.1c-0.1-0.4-0.2-0.8-0.4-1.8c-0.4,3.4-1.3,6.8,0.4,9.8c0,2,0,4.1-0.1,6.1c0.3,0.5,0.6,1,0.9,1.6   c0.5-0.6,0.9-1.1,1.3-1.5c0,0.8,0,1.5,0,2.3c-0.6,0.3-0.5,0.6,0.1,0.8c3.3,5.4,5.1,11.8,9.2,16.6c0.9,0.7,2.2,1.5,1.8,3.1l0.1-0.1   c-0.9-0.7-1.9-1.3-3-2.1c3,9.9,6.3,19.6,11,28.8c-0.3,0.3-0.6,0.6-0.8,0.9c-8.1-9.9-9.8-23.4-13.5-35.4   C453.2,299.4,452,299.4,451.2,298.8z M444,237.9c-0.9-0.1-1.7-0.1-2.7-0.2c-0.7,1.4-0.6,2.7-0.3,4.6c1.1-1.5,2.7-1.7,3.2-3.2   c1.1-1,1.7-2.1,2-3.5c-1.8-0.9-3.3-0.9-5.1-0.5c1,1.1,2.8,0.6,3.2,2.1C444.2,237.4,444.1,237.6,444,237.9z M443.3,272.8   c0,2.3-0.2,4.6,1.3,6.7c0.9-2.2-0.4-4.4-0.5-6.7c0-1.9,1.8-4,0.2-5.6c-1.4-6.9-3-13.2-2.7-20.4C439.1,255.2,442,264.4,443.3,272.8z   " />
	<path display="inline" fill="#EBDA8F" d="M475.7,365c-0.8,0.5-1.6,1.1-2.4,1.6c0-0.4-0.1-0.8-0.1-1.4c-9.1,2.2-17.5-0.9-22.6-8.7   c0.1,1,0.1,1.6,0.1,2.2c-1.6-1.2-2.2-4.4-2.6-6.3c0.6-0.3,1-0.6,0.2-1.5c-0.1,0.6-0.2,1-0.2,1.5c-1.9-2.4-0.3-6.5-0.8-9.5   c0.6-0.9,1.2-1.6,2.1-2.2c5,2.2,2.6,10,7.4,13c6.8,8.4,20.2,2.1,22.1,8.9l-0.2,0.2C477.1,362.8,476,363.3,475.7,365z" />
	<path display="inline" fill="#11100C" d="M451.1,328c1.2-5,4.1-10.8,2.5-15.8c0.1-1.8-0.7-4,0.5-5.5c0.5,1.6-0.5,3.5,0.9,4.7   c1.6,7.6,0.1,16.6-4.5,23c-0.3-0.4-0.7-0.7-1-1.1C450,331.5,450.6,329.8,451.1,328z" />
	<path display="inline" fill="#1C100C" d="M430.8,339.7c5.3,1.4,10.1,1.3,14.8-1.4c0,0.3,0.1,0.6,0.1,0.9c-3.5,5.1-11,3.9-15.8,1.2   C430.3,340.2,430.6,340,430.8,339.7z" />
	<path display="inline" fill="#342A22" d="M467,335.9c0.3-0.3,0.6-0.6,0.8-0.9c3.2,4.9,8.2,6.9,12.9,10.2c-0.4,0.2-0.8,0.4-1.1,0.5   C474.4,343.9,469.9,340.7,467,335.9z" />
	<path display="inline" fill="#35312B" d="M487.5,345.4c0.3,0.9,1.2,0.7,1.8,0.9c-2.6,1.1-5.2,1.2-7.7-0.2c0.3-0.2,0.7-0.3,1.1-0.5   c0-2.5-1.4-4.4-2.4-6.5c0.9-1,1.4-1.3,2.7-2.2c-0.8,3.6,1.2,6.2,2.1,9.1C486.1,345.7,486.8,345.6,487.5,345.4z" />
	<path display="inline" fill="#362C20" d="M460.8,365c4.1,1.1,8.2,1.1,12.4,0.2c0.1,0.7,0.1,1,0.1,1.4c-4.8,1.3-9.5,1.3-14.1-0.9   C459.4,365,460.2,365.2,460.8,365z" />
	<path display="inline" fill="#382E1F" d="M450.6,358.7c0-0.6-0.1-1.2-0.1-2.2c1.8,2,3.2,3.7,4.7,5.4c-0.3,0.3-0.7,0.7-1,1   C452.4,362.1,451.6,360.3,450.6,358.7z" />
	<path display="inline" fill="#706245" d="M454.2,362.9c0.3-0.3,0.7-0.7,1-1c1.5,1.7,3.7,2.1,5.6,3.1c-0.6,0.2-1.4,0-1.6,0.8   C457.5,364.8,455.9,363.9,454.2,362.9z" />
	<path display="inline" fill="#2D251F" d="M445.8,339.2c0-0.3-0.1-0.6-0.1-0.9c1.2-1.7,2.5-3.4,3.8-5c0.3,0.4,0.7,0.7,1,1.1   C449,336,448,338.6,445.8,339.2z" />
	<path display="inline" fill="#B3AA76" d="M455.8,315.5c-0.4-2.1-1-4.2-0.9-6.4c0.3,0,0.6,0,0.9,0c0.2,1.1,0.5,2.1,0.7,3.2   C456,313.3,455.9,314.4,455.8,315.5z" />
	<path display="inline" fill="#5A4431" d="M475.7,365c0.3-1.7,1.4-2.2,3-2.2c-0.2,0.5-0.4,0.9-0.6,1.4c-0.6,0.2-1.2,0.4-1.7,0.7   C476.2,365,475.9,365,475.7,365z" />
	<path display="inline" fill="#EBDA8F" d="M476.3,365c0.3-0.1,0.6-0.3,0.9-0.4C476.9,364.7,476.6,364.9,476.3,365z" />
	<path display="inline" fill="#F6D9C7" d="M446.6,339.1c0.2-0.2,0.5-0.5,0.7-0.7C447,338.6,446.8,338.8,446.6,339.1z" />
	<path display="inline" fill="#F6D9C7" d="M447.4,338.3c0.2-0.2,0.5-0.5,0.7-0.7C447.8,337.8,447.6,338,447.4,338.3z" />
	<path display="inline" fill="#3B3532" d="M473.8,316.5c-2.1-1.6-1.4-3.2-1-4.8C473.5,313,474.5,314.2,473.8,316.5z" />
	<path display="inline" fill="#B2988C" d="M481.3,338.1c-0.3,0.3-0.6,0.6-0.9,1c-0.7-0.9-1.3-1.8-2.1-2.8   C479.8,336.5,479.8,336.4,481.3,338.1z" />
	<path display="inline" fill="#4C3834" d="M467.6,312.7c-2.2-0.3-2.2-0.3-3.8-1.9C465.7,310.4,466.6,311.7,467.6,312.7z" />
	<path display="inline" fill="#070605" d="M459.8,308.3c0.2,0,0.4,0.1,0.5,0.1c-0.1,0.1-0.2,0.2-0.2,0.3   C460.1,308.6,460,308.4,459.8,308.3L459.8,308.3z" />
	<path display="inline" fill="#F6D9C7" d="M491.6,274.4c-1.9,1.2-3.9,0.4-6,0.8c1.2,2.6,4.3,0.4,5.6,2.7c-0.4,0.6-0.9,1.3-1.5,2.2   c5.3,13.7-29.3,0.4-28.5-7c-0.6,0.2-0.9,0.3-1.3,0.4l0.1,0.1c0.2-0.9,0.3-1.8-0.8-2.3c-0.5-1.5-2.1-0.2-3.2-0.1c-1-1.2-2-2.4-2.4-4   c1.2,0,2.2,1.1,3.2,0c2.6,0.5,4.9-2.6,1.8-3.2c-0.7-1.7,0.8-3.2,1.4-4.7c1.8,0.5,2.3,1.5,3.9,0c1.5-0.4,0.7-1.5,0.7-2.4   c2.3-1.6,4.7-3.1,6.6-4.4c0.6-1.4,1-2.4,1.4-3.4c1.8,0.1,1.6-1.8,1.6-3.1c1.2-1.4,0.8-3,0.5-4.6c-0.8-0.3-2-0.2-2.8-0.4   c1-0.5,2-1,3.1-1.5c1.3,0.3,2.7-0.2,4,0.8c2.3-1.1,3.4-1.3,5.7,0.2c1.3-0.3,2.7,0.2,3.9-0.8c0.2,0,0.5,0,0.6-0.1   c4,3,3,9.3,4.6,13.8c-6.8,4,1.2,10.4,0.5,15.3c-1.8-0.1-4.2-1.2-4.9,1.2c0.6,0.2,1.1,0.5,1.6,0.7   C491.2,271.9,491.4,273.1,491.6,274.4z M488.4,256.2c-2.9-0.2-5.7,0.5-7.7,2.7c2.6,0.2,3,2.4,5.5,1.8   C485.5,258.6,487.5,257.8,488.4,256.2c0.4-0.4,1.3-0.2,1.4-1.3c-1.6-1.8-3.9-2.1-6.4-2.6c-1.1,0.8-3,0.3-3.8,2.5   c1.7-0.3,3-0.6,4.5-0.9C485.4,254.8,487.3,254.9,488.4,256.2z" />
	<path display="inline" fill="#161412" d="M452.1,294.8c-1.3-0.7-1-2.2-1.6-3.3c1.5-3.5,2.4-9.2,0-12.6c0-0.3,0-0.5,0.1-0.8   c0.7,0.1,1.2-0.1,1.5-0.8c0.2,0.1,0.4,0.2,0.6,0.3C454.2,283.5,454.5,289.2,452.1,294.8z" />
	<path display="inline" fill="#3F332F" d="M459.9,273.5c0.4-0.1,0.7-0.2,1.3-0.4c0.5,4.8,4.5,5.9,8.2,7.7c-0.3,0.3-0.6,0.6-0.9,0.9   c-1.3-0.3-2.6-0.7-3.9-1l0.1,0C461.6,279.1,459.9,277.1,459.9,273.5z" />
	<path display="inline" fill="#261E1B" d="M454.1,268.8c1.4,1.3,1.8,4,4,3.8c0.3,0.3,0.7,0.7,1,1c-0.9,1.1-2.1,0.6-3.4,0.7   c-0.5-0.5-1-1.1-1.5-1.7l0.1,0.1c0.1-1.8-1.3-1.5-2.3-1.8c0.5-0.7,1.8-0.9,1.6-2.2C453.8,268.8,454,268.8,454.1,268.8z" />
	<path display="inline" fill="#261E1B" d="M453.5,275.7c0-0.6-0.1-1.2-0.1-1.7c-1.4-1-1.9-0.1-2.7,0.9c-0.4-0.5-0.7-1-1-1.4   c1.4-1.1,3.1-0.4,4.7-0.7l-0.1-0.1C454.2,273.8,454.6,275,453.5,275.7z" />
	<path display="inline" fill="#64554F" d="M464.6,280.6c0.3,1.3,1.9,2.2,1.5,3.9C464.5,284,462.8,281.6,464.6,280.6L464.6,280.6z" />
	<path display="inline" fill="#6C5F58" d="M469.9,294.6c-1.2-0.7-1.7-1.4-1.3-2.7C469.9,292.4,470.4,293.1,469.9,294.6z" />
	<path display="inline" fill="#7E6E65" d="M468.5,281.6c0.3-0.3,0.6-0.6,0.9-0.9c0.8,0.5,1.7,1,2.5,1.5   C471,283.3,469.5,281.8,468.5,281.6z" />
	<path display="inline" fill="#523A36" d="M459.2,273.7c-0.3-0.3-0.7-0.7-1-1c0.3-0.5,0.6-0.9,1-1.4c1.1,0.5,1,1.4,0.8,2.3   C459.7,273.6,459.4,273.7,459.2,273.7z" />
	<path display="inline" fill="#49453F" d="M456.1,286.2c0.5,0.9,0.8,1.5,1.1,2.2C456,288.1,456,288.1,456.1,286.2z" />
	<path display="inline" fill="#8F766C" d="M467.4,288.6c0.4,0.5,0.8,1,1.3,1.6C467.1,290.2,467.1,290.2,467.4,288.6z" />
	<path display="inline" fill="#B7AA91" d="M452.7,277.7c-0.2-0.1-0.4-0.2-0.6-0.3c0.1-1.5,0.1-1.5,1.5-1.5   C453.3,276.5,453,277.1,452.7,277.7z" />
	<path display="inline" fill="#897066" d="M458.2,292.7c-0.2,0.1-0.4,0.1-0.5,0.2c0-0.3-0.2-0.7,0.3-0.8   C458,292.3,458.1,292.5,458.2,292.7z" />
	<path display="inline" fill="#36302D" d="M495.4,268.8c-0.7,0.6-1.4,1.3-2.4,2.2c0,0.6,0,1.6,0,2.6c-0.5,0.3-0.9,0.5-1.4,0.8   c-0.2-1.2-0.4-2.5-0.6-3.8c-0.5-0.2-1-0.4-1.6-0.7C490.2,267.1,493.3,268.9,495.4,268.8z" />
	<path display="inline" fill="#DFC6B5" d="M491.6,280.6c0.8,0,1.6,0,2.3,0.1C492.7,281.7,492.2,281.7,491.6,280.6z" />
	<path display="inline" fill="#DFC6B5" d="M494.7,280c0.2-0.3,0.3-0.6,0.5-0.9c0.1,0.3,0.1,0.5,0.2,0.8   C495.1,279.9,494.9,279.9,494.7,280z" />
	<path display="inline" fill="#4F413C" d="M435.4,170.9c2.2,0.5,1.7,3.2,2.2,4.8c-0.2,0.5-0.5,1.1-0.7,1.6c-0.8-1.6-0.3-3.8-1.5-4.9   C435.4,172,435.4,171.5,435.4,170.9z" />
	<path display="inline" fill="#9F9564" d="M429.3,344.1c-0.8,3,0.3,7.6-2.2,9C427.5,350,427.5,346.5,429.3,344.1z" />
	<path display="inline" fill="#545037" d="M427.4,357c0,1.3,0,2.5,0,3.8c-2.2,0.1-0.5-2.6-0.5-3.8C427.1,357,427.3,357,427.4,357z" />
	<path display="inline" fill="#DDC4B3" d="M449.5,333.3c-0.7,0.9-1.4,1.8-2.2,2.7c-2.4-12-6.2-25.2-4.9-37.3   c3.1,4.7,1.3,12.6,5.1,16.5c0.1-0.8,0.3-1.5,0.4-2.2c1.7,3.7,1.6,9.1,1.6,13.4c-1.5-0.4-2.3,2.1-0.5,2.2c0.7-0.5,0.5-1.4,0.5-2.2   c0.5,0.5,1,1,1.5,1.5C450.6,329.8,450,331.5,449.5,333.3z M447.7,320.1c0.4-2,0.4-2-1-2.2C447.1,318.6,447.3,319.2,447.7,320.1z    M448.1,324c0.2,0,0.4,0,0.6,0C448.6,322.6,448.2,322.6,448.1,324z" />
	<path display="inline" fill="#121111" d="M445,177.6c-2,15.9-2.9,31.9-3.9,47.9c-0.3,0-0.6,0-0.9,0c0-1.3,0-2.6,0-4   c1.2-1.6,1.1-3.1,0-4.7c0.1-14.5,1.2-29.1,3.9-43.4C445.2,174.5,444.9,176.1,445,177.6z" />
	<path display="inline" fill="#2E2926" d="M448,313c-0.1,0.7-0.3,1.5-0.4,2.2c-3.3-3.4-2.7-10.2-4.2-14.8c0.5,0,0.9,0,1.4,0   c1.2,3.9,2.5,7.8,3.2,11.9C447.8,312.6,447.8,312.8,448,313z" />
	<path display="inline" fill="#1D1B17" d="M454.2,306.7c-1,0.7-0.4,1.8-0.7,2.6c-1-3.5-1.8-7-2.2-10.6c0.8,0.6,2,0.5,2.3,1.7   C451.6,301.8,454.1,304.9,454.2,306.7z" />
	<path display="inline" fill="#272625" d="M445,177.6c-0.1-1.5,0.2-3-0.8-4.2c0.2-2.1,0.4-4.2,0.7-6.3c0.3,0,0.6,0,0.9,0.1   C445.5,170.6,446.1,174.2,445,177.6z" />
	<path display="inline" fill="#A98F83" d="M444.8,300.5c-0.5,0-0.9,0-1.4,0c-0.3-0.6-0.7-1.1-1-1.7c0.2-0.5,0.4-0.9,0.6-1.6   C444.5,298,444.3,299.5,444.8,300.5z" />
	<path display="inline" fill="#1D1B17" d="M453.6,312.2c1,2,1,3.6,0,5.5C453.6,315.9,453.6,314.1,453.6,312.2z" />
	<path display="inline" fill="#070605" d="M440.2,216.7c1.1,1.6,1.1,3.1,0,4.7C440.2,219.9,440.2,218.3,440.2,216.7z" />
	<path display="inline" fill="#AC988C" d="M443.1,294.4c-0.9,0.2-0.8-0.7-1.1-1.3c0.3-0.1,0.6-0.2,1-0.3   C443,293.3,443.5,294,443.1,294.4z" />
	<path display="inline" fill="#DDC4B3" d="M448,312.4c-0.3-1.4-0.5-2.7-0.8-4.1C448.5,309.3,447.9,311,448,312.4z" />
	<path display="inline" fill="#4B3531" d="M436,183.7c0.7-1.3,1-1.8,1.4-2.6C438.1,182.4,437.9,183,436,183.7z" />
	<path display="inline" fill="#221918" d="M436.9,177.4c0.2-0.5,0.5-1.1,0.7-1.6C437.9,176.5,438,178.9,436.9,177.4z" />
	<path display="inline" fill="#E1C7B6" d="M435.4,172.5c0.7,0.3,0.7,0.9,0.6,1.6C435.8,173.6,435.6,173.1,435.4,172.5z" />
	<path display="inline" fill="#231F21" d="M534.2,200.9c-1.8-3.5-1.8-7.5-2.4-11.2c-1.7-0.9-3.1-1.6-4.7-2.5   c-0.2-1.2-0.3-2.3-0.4-3.5c0.9,0,2-0.6,2.7,0.5c-2.9,3.3,4.8,3.4,5.5,6.5C532.4,194.1,536.3,197.8,534.2,200.9z" />
	<path display="inline" fill="#272625" d="M446.5,166.9c-0.2,0.2-0.4,0.2-0.7,0.2c0.1-0.2,0.1-0.4,0.2-0.6   C446.1,166.6,446.3,166.8,446.5,166.9z" />
	<path display="inline" fill="#7C8BB1" d="M527,179c0.6-0.1,1.3-0.1,1.5,0.7C528,179.4,527.5,179.2,527,179z" />
	<path display="inline" fill="#4C403B" d="M433.5,375.6c-2.4-2.7-2.6-3.4-2.6-6.1C432.9,369.9,433.1,373.3,433.5,375.6z" />
	<path display="inline" fill="#615850" d="M434.3,379.1c-1.1-0.6-1.7-1.3-1-2.7C434.5,377,434.9,377.8,434.3,379.1z" />
	<path display="inline" fill="#96857A" d="M422.1,403c-0.5,0.3-0.7,0.5-1,0.7C420.2,402.6,421.1,402,422.1,403z" />
	<path display="inline" fill="#382E2A" d="M427.9,380.2c-0.3-0.5-0.6-0.9-0.9-1.3C428.3,378.7,428.3,378.7,427.9,380.2z" />
	<path display="inline" fill="#71665D" d="M421.7,399.3c0.2,0.4,0.3,0.7-0.2,1C421.3,399.9,421.2,399.6,421.7,399.3z" />
	<path display="inline" fill="#332A27" d="M428.9,382.8c-0.1,0.2-0.2,0.3-0.2,0.5c-0.4-0.2-0.1-0.5,0-0.7   C428.8,382.6,428.9,382.7,428.9,382.8z" />
	<path display="inline" fill="#1C1E24" d="M558.7,190.7c-0.1,0.3-0.1,0.5-0.2,0.8c-0.3,0-0.6,0-0.8-0.1c-0.1-0.3,0-0.5,0.1-0.7   C558.1,190.7,558.4,190.7,558.7,190.7z" />
	<path display="inline" fill="#1C1E24" d="M558.6,189.1c0.1,0.1,0.3,0.2,0.4,0.4c-0.2,0.1-0.5,0.3-0.7,0.4   C558.4,189.6,558.5,189.4,558.6,189.1z" />
	<path display="inline" fill="#1C1E24" d="M557.8,191.4c-0.4,0.3-0.7,0.6-1.1,0.8C557.1,191.9,557.4,191.7,557.8,191.4z" />
	<path display="inline" fill="#A99589" d="M517.5,455.9c1.8-0.2,1.8,1.8,0,1.6l0,0C517.5,456.9,517.5,456.4,517.5,455.9L517.5,455.9   z" />
	<path display="inline" fill="#8D786E" d="M517.5,455.9c-0.9,0-2,0.1-1.1-1.5C516.8,455,517.2,455.4,517.5,455.9   C517.5,455.9,517.5,455.9,517.5,455.9z" />
	<path display="inline" fill="#100E0E" d="M519,243.3c3.1-10.4,18.3-31.4,15.7-41.6c0.6-0.2,1.2-0.4,1.8-0.6   c0.2-2.1-0.6-4.1,0.7-5.8c1.8,17.7-10,34.3-17.4,49.7C518.9,244.8,519.2,244,519,243.3z" />
	<path display="inline" fill="#32323B" d="M537.2,195.4c-1.3,1.6-0.6,3.6-0.7,5.8c-0.6,0.2-1.2,0.4-1.8,0.6   c-0.1-0.3-0.3-0.6-0.4-0.9c2-3.1-1.8-6.8,0.7-10.2C536.2,192,537.5,193.3,537.2,195.4z" />
	<path display="inline" fill="#373332" d="M519,243.3c0.2,0.6,0,1.5,0.8,1.8c-1,3-2,6-2.9,8.9c-0.3-0.3-0.6-0.7-0.9-1   C516.5,249.7,517.8,246.5,519,243.3z" />
	<path display="inline" fill="#19201E" d="M538.9,194.7c0-0.8,0-1.4,0-2.2C540,193.3,540,193.9,538.9,194.7z" />
	<path display="inline" fill="#DFC6B5" d="M495.4,278.3c-0.1-0.7,0-1.3,0.8-1.6C495.9,277.3,495.7,277.8,495.4,278.3z" />
	<path display="inline" fill="#CDBA9D" d="M447.3,238.8c0.2-0.7-0.4-1.8,0.8-2.2c0,2.6,4.4,0.2,5.5,2.1c-1.1,0.7,0.4,1.1,0.8,1.3   c0.5,0.5,1.2,0.5,1.5-0.4c2.3,1.8,5.2,1.8,7.6,2.9c0.7-0.4,1.3-0.7,1.8-1c0-0.7,0-1.2,0-1.7c0.6,0.3,1.8,0.4,1.9,1   c-0.4,0.6-0.7,1.1-1.2,1.9c3,0.1,5.6,0.6,8-0.8c-2.3,5.4-18.6,1.4-22.9-1.5l0,0c-0.3-0.3-0.6-0.6-0.8-0.8l0.1,0   C449.9,238.3,448.4,238.9,447.3,238.8z" />
	<path display="inline" fill="#CDB89A" d="M446.4,249.2c-0.8-0.6-1.5-1.3-2.3-2c0.2-1.6,0-3.3,1.6-4.4c2.7,3.2,6.2,5.2,10.2,6.3l0,0   c0.2,0.9,1,0.7,1.6,0.9c0.1,0.4,0.3,0.8,0.3,1C453.6,251.5,450.5,248.9,446.4,249.2z" />
	<path display="inline" fill="#CDB597" d="M451.1,279.9c0.2,3.5,1.1,8.5-0.6,11.7c-3.1-4-1.3-9.3-1.5-14c0.5,0.3,0.9,0.5,1.4,0.8   l0.3-0.1c-0.1,0.2-0.1,0.5-0.1,0.8C450.7,279.3,450.9,279.6,451.1,279.9z" />
	<path display="inline" fill="#C9B798" d="M445.5,252.4c-0.9-0.7-1.7-1.5-2-3c3.4,0.9,6.5,2.2,10,3c0.3,0.4,0.5,0.8,0.8,1.2   C451.4,256,448.4,253.9,445.5,252.4z" />
	<path display="inline" fill="#E6DABB" d="M452,233.4c4.4-0.8,9.3,0.6,13.4,2.2C464.1,239.8,455.2,234.1,452,233.4z" />
	<path display="inline" fill="#D1BA9C" d="M445.7,261c-1.1-1.5-2-3.2-2.2-5.4c2.1,1.3,3.5,2.4,6.1,2.5c0,1.1,0.1,2,0.1,2.9l0,0   c-1.2,0.5-0.7,1.6-0.9,2.5C447.7,262.6,446.7,261.8,445.7,261z" />
	<path display="inline" fill="#B5A58B" d="M449.6,260.9c0-0.9-0.1-1.8-0.1-2.9c-1.7-0.4-3.5-0.3-4.6-1.8c0.6-1.4-1.6-2-1.6-3.6   c0.7-0.7,1.1,0.3,1.6,0.3c2,2.7,4.5,2,7.2,1.7C450.2,256.4,450.8,258.9,449.6,260.9z" />
	<path display="inline" fill="#443D33" d="M448.9,277.5c-0.1,2.6-0.1,5.3-0.2,7.9c-0.4,0.4-0.8,0.9-1.3,1.5   c-0.4-0.6-0.6-1.1-0.9-1.6c2.5-3.8-2.3-9.4-0.7-14.3c0.2,0.1,0.5,0.1,0.7,0.2c0,0-0.1-0.1-0.1-0.1c0.2,2.3-0.9,5.1,1.1,6.7   c0.1-0.4,0.3-0.8,0.4-1.2c0,0-0.1,0-0.1,0c0.4,0,0.7,0.1,1.1,0.1C448.9,277.1,448.9,277.3,448.9,277.5z" />
	<path display="inline" fill="#5C4A3E" d="M455.9,249.1c-3.8-1.3-8.8-3.2-10.3-7.1c3.1,2.3,6.2,4.5,10.2,4.7c0.4,0.7,1,0.7,1.7,0.6   c0.8,0.3,1.6,0.6,2.4,0.9c-0.2,0.2-0.5,0.4-0.7,0.6C458.1,248.6,456.4,247.6,455.9,249.1z" />
	<path display="inline" fill="#CAB99B" d="M455.2,246.6c-2.2,0.6-13.7-5.7-7.9-6c2.1,3.1,5.8,3.4,8.8,5.2   C455.8,246.1,455.5,246.4,455.2,246.6z" />
	<path display="inline" fill="#3C3028" d="M453.5,252.4c-2.6-0.8-5.5-1.1-7.9-2.5c0.3-0.2,0.5-0.5,0.8-0.7c4.8-0.3,8.9,2.9,13.5,3.8   c-0.5,0.6-1,1.2-1.5,1.7C458.4,252.4,455.2,253.1,453.5,252.4z" />
	<path display="inline" fill="#5E6052" d="M460.6,229.2c0.1-0.4,0.2-0.7,0.3-1.3c2.1-0.1,4.2-0.7,6.2,0.5c-0.3,0.3-0.6,0.6-0.8,0.8   c-0.7,0.1-1.3,0.2-2.2,0.4c1,0.8,2.4,0,2.9,1.3c-2.1,0-4.2,0-6.3,0C460.7,230.4,461.7,229.7,460.6,229.2z" />
	<path display="inline" fill="#A7967D" d="M441.6,262.7c-1.2-4.9-1.7-11.1-0.1-15.9c0.6,4.3-0.2,8.5,0.9,12.6   C441.6,260.3,441.6,261.5,441.6,262.7z" />
	<path display="inline" fill="#D7CDAF" d="M459.8,232.7c-0.2-0.1-0.4-0.2-0.6-0.2c0.3-0.3,0.6-0.5,0.9-0.8c1.2,0.1,2.4,0.1,3.7,0.2   c2.1,1.5,4.6-0.2,6.6,1.3c-0.1,0.3-0.1,0.6-0.2,0.9C466.6,234.1,463.2,233.7,459.8,232.7z" />
	<path display="inline" fill="#988F7A" d="M460,231.6c-0.3,0.3-0.6,0.5-0.9,0.8c-1.5-0.3-3-0.5-4.6-0.8   C455.8,228.6,463.7,228.1,460,231.6z" />
	<path display="inline" fill="#B6A388" d="M441.6,262.7c0-1.2,0-2.4,0.8-3.3c0.6,1.5,3.7,11.1,0.1,7.1   C442.2,265.2,441.9,264,441.6,262.7z" />
	<path display="inline" fill="#B2A288" d="M454.4,272.8c-1.6,0.3-3.4-0.4-4.7,0.7c-0.3-0.5-0.6-1-0.9-1.5c0.1-0.7,0.1-1.3-0.5-1.7   c0-0.2-0.1-0.4-0.1-0.6C449.9,270.9,454.3,270.3,454.4,272.8z" />
	<path display="inline" fill="#4E4438" d="M442.5,266.5c0.6,0.4,1.2,1.9,1.7,0.7c1.6,1.6-0.2,3.7-0.2,5.6c-0.3,0-0.5,0-0.8,0   C442,270.8,442.6,268.6,442.5,266.5z" />
	<path display="inline" fill="#6B6354" d="M470.1,228.8c0.7-0.3,1.6,0.4,2.1,0.3c1.1-0.7,2.2-0.4,3.4-0.5c0.6,0.5,1.1,1,1.7,1.4   c0,0.3,0,0.5,0,0.8c-1.1-0.6-2.1,0.2-3.2,0.1c-0.8-1.2-2.6-0.4-3.9-0.9C470.2,229.6,470.1,229.2,470.1,228.8z" />
	<path display="inline" fill="#D4BD9F" d="M444.3,239.1c-0.4,1.6-2.1,1.7-3.2,3.2c-0.4-1.9-0.4-3.2,0.3-4.6c0.9,0.1,1.8,0.1,2.7,0.2   C444.1,238.3,444.2,238.7,444.3,239.1z" />
	<path display="inline" fill="#706C4B" d="M454.2,306.7c-0.1-1.9-2.6-4.9-0.7-6.2c0.8,2.9,1.6,5.7,2.4,8.6c-0.5-0.1-1,0.1-1.5-0.1   C454.3,308.3,454.2,307.5,454.2,306.7z" />
	<path display="inline" fill="#3F322A" d="M445.7,261c1,0.8,2.1,1.6,3.1,2.5c-0.8,0.8-1.6,1.5-2.4,2.3c-0.5-1.1-1-2.2-1.5-3.2   C445.2,261.9,445.4,261.4,445.7,261z" />
	<path display="inline" fill="#ABA68E" d="M444.3,239.1c-0.1-0.4-0.1-0.8-0.2-1.2c0.1-0.2,0.2-0.5,0.3-0.7c-0.4-1.6-2.2-1-3.2-2.1   c1.8-0.4,3.3-0.4,5.1,0.5C445.9,236.9,445.3,238.1,444.3,239.1z" />
	<path display="inline" fill="#4B342C" d="M453.4,244.5c-2.3-0.9-5.8-1.9-6.2-4.7c1.3,0.7,2.7,1.5,4,2.2l0,0c0.3,0.8,1,0.8,1.6,0.8   l-0.1,0c0.5,0.3,1.1,0.6,1.6,0.9C454.1,244,453.7,244.2,453.4,244.5z" />
	<path display="inline" fill="#3D302A" d="M475.5,228.6c-1.7-0.4-3.1,0.9-4.6,0.1c0.7-0.3,0.8-0.9,0.8-1.6c2-0.1,3.9,0.5,5.6,1.5   C476.7,228.5,476.1,228.6,475.5,228.6z" />
	<path display="inline" fill="#29241E" d="M443.3,272.8c0.3,0,0.5,0,0.8,0c0,2.3,1.3,4.5,0.5,6.7   C443.1,277.4,443.3,275.1,443.3,272.8z" />
	<path display="inline" fill="#C9C0A4" d="M451.2,242c-1.2-0.7-6.8-3.1-2.7-3.2c0.5,0.7,1.2,0.9,1.9,0.8l-0.1,0   c0.3,0.3,0.6,0.6,0.8,0.8l0,0C451.2,240.9,451.2,241.5,451.2,242z" />
	<path display="inline" fill="#CDBA9D" d="M452,233.4c1.1,0.4,2.1,0.9,3.2,1.4c-1.5,0-4.3-0.7-4,1.7c-0.6-0.3-1.1-0.6-1.7-0.9   C450.3,234.8,451.2,234.1,452,233.4z" />
	<path display="inline" fill="#58473B" d="M450.2,254.7c-1.7,1.3-4-0.4-5.3-1.7c0.2-0.2,0.4-0.4,0.6-0.6   C447.1,253.2,448.6,254,450.2,254.7z" />
	<path display="inline" fill="#C6B395" d="M447.1,277.3c-1.4-1.7-0.5-4.1-0.6-6.2c1.8,1.4,0.7,3.6,1.4,5.5l0.1,0   C447.7,276.9,447.4,277.1,447.1,277.3z" />
	<path display="inline" fill="#48473B" d="M452.1,271c-1.3-0.4-2.6-0.9-4-1.3c0.2-2.6,4.2,1.5,4.5-0.9c0.3-0.1,0.7,0,1,0   C453.9,270.1,452.6,270.3,452.1,271z" />
	<path display="inline" fill="#817A68" d="M451.4,269.5c-0.8-0.2-1.6-0.4-2.4-0.6c-0.1-0.2-0.2-0.5-0.3-0.7c0.6-1.5,2.8,1.1,2.6-1.8   c0.6,0.8,1.1,1.6,1.7,2.5C452.4,269,451.6,268.5,451.4,269.5z" />
	<path display="inline" fill="#4E3B32" d="M459.8,232.7c1.1,0.2,2.1,0.5,3.2,0.7c-0.3,0.3-0.6,0.6-0.9,0.8c-1.6-0.1-3.2,0.1-4.6-0.9   C458.2,233,459.3,233.7,459.8,232.7z" />
	<path display="inline" fill="#EBDABB" d="M449.5,235.6c0.6,0.3,1.2,0.6,1.7,1c0,0.5,0,1,0,1.4c-1.2-0.5-3.2,0.6-3.1-1.3   C448.5,236.3,449,235.9,449.5,235.6z" />
	<path display="inline" fill="#AD9C82" d="M446.6,279.2c0.7,1.9,1.3,4.9-0.1,6.1C446.5,283.3,446.6,281.3,446.6,279.2z" />
	<path display="inline" fill="#573E34" d="M451.2,267.3c-0.5,1.5-2.1-0.7-2.5,0.8c-0.2-0.3-0.4-0.6-0.7-0.8c0-0.3,0.1-0.6,0.1-0.9   C449.2,266.3,450.2,267,451.2,267.3z" />
	<path display="inline" fill="#9A9D86" d="M470.1,228.8c0,0.2,0,0.3,0.1,0.5c-1.3,0-2.6,0-3.9,0.1c0.3-0.3,0.6-0.6,0.8-0.8   C468.1,228.6,469.1,228.7,470.1,228.8z" />
	<path display="inline" fill="#817A68" d="M448.1,266.4c0,0.3-0.1,0.6-0.1,0.9c-0.8-0.3-1.4-0.7-1.6-1.6c0.3-0.3,0.6-0.6,0.9-0.8   l0,0c0.3,0.3,0.6,0.6,0.8,0.8l0-0.1C448.1,265.9,448.1,266.1,448.1,266.4z" />
	<path display="inline" fill="#B7AA91" d="M448.9,277.5c0-0.2,0-0.5,0-0.7c1.1-0.1,1.4,0.5,1.4,1.5   C449.9,278.1,449.4,277.8,448.9,277.5z" />
	<path display="inline" fill="#48473B" d="M448.2,270.3c0.7,0.4,0.6,1.1,0.5,1.7C448,271.6,448,271,448.2,270.3z" />
	<path display="inline" fill="#C6B395" d="M446.5,271.2c-0.2,0-0.5-0.1-0.7-0.2c0.1-0.3,0.1-0.7,0.3-1.6   C446.3,270.4,446.4,270.8,446.5,271.2z" />
	<path display="inline" fill="#5C4A3E" d="M445.6,241.2c0,0.3,0,0.6,0,0.9C445,241.8,445,241.5,445.6,241.2z" />
	<path display="inline" fill="#443D33" d="M448.7,287.7c0,0.3,0,0.6,0.1,0.8C448.2,288.3,448.1,288.1,448.7,287.7z" />
	<path display="inline" fill="#9F9162" d="M448.1,352.5c0.1-0.4,0.1-0.9,0.2-1.5C449.1,351.9,448.7,352.2,448.1,352.5L448.1,352.5z" />
	<path display="inline" fill="#1D1B17" d="M454.4,309c0.2,0.1,0.4,0.1,0.6,0.1c0,0.8,0,1.6,0.1,2.3C454,310.8,454.4,309.9,454.4,309   z" />
	<path display="inline" fill="#130E0C" d="M458.4,254.8c2.2-3.8,8.3-1.8,10.8-5c-1.4,0.3-2.7-0.1-3.8,0.8c-1,0-2,0-3.1,0   c-0.6-1.4-1.8-1.6-3-1.7c0.2-0.2,0.5-0.4,0.7-0.6c1.6-0.2,2.9,0,4.4,0.8c0.7-0.9,1.3-1.6,1.9-2.4c6.6-0.1,8.7-1.7,5,5.8   c-2.9,1.9-6.5,5-10.5,5.2c-0.1-0.2-0.1-0.8-0.6-0.3c0.2,0.1,0.4,0.2,0.5,0.3c0.6,1.2,2.2,0.8,3.2,1.5l0,0c-1.3,0-2.6,0.2-3.9,0   c-0.6-0.9-1.2-1.9-1.8-2.8C458.2,255.9,458.3,255.3,458.4,254.8z M460.3,255.6c0,0.1,0,0.3,0,0.4c1.7,0.3,1.9,0.3,4-0.2   C462.2,255.4,462,255.3,460.3,255.6z" />
	<path display="inline" fill="#2D2927" d="M495.4,268.8c-0.4,0-0.8-0.1-1.2-0.1c0.6-4.8-7.3-11.3-0.5-15.3   c-0.6-4.1-2.3-8.2-2.2-12.2c0,0,0,0,0,0c0.2,0,0.6,0,0.8,0c1.7,5.4,5.3,9.7,1,15.4c0.3,0.2,0.6,0.5,1,0.8c-0.4,0.4-0.8,0.9-1.2,1.4   c-0.1,1.5,0.4,3,1,4.3c0.5,0.9,1,1.7,1.6,2.4C495.5,266.6,495.4,267.7,495.4,268.8L495.4,268.8z" />
	<path display="inline" fill="#2C1F1D" d="M475.5,228.6c6.9,0.1,16.1,4.8,15.9,12.6l0,0c-0.2,0-0.4,0-0.6,0   c-0.5-0.6-1.1-1.1-1.7-1.5l0,0c0-0.3,0-0.6,0-0.8l0,0c0.2-0.1,0.4-0.3,0.6-0.4c-0.2-0.1-0.4-0.3-0.6-0.4l0,0c0-1.6-0.8-2.4-2.4-2.4   l0,0c-0.3-0.3-0.5-0.5-0.8-0.8l0,0c-0.1-0.2-0.2-0.4-0.3-0.6c-0.1,0.2-0.3,0.3-0.4,0.5c-1.4-0.7-2.7-1.4-4.1-2.1   c1.4-1.6-2.7-2.6-3.9-2.7C476.7,229.5,476.1,229.1,475.5,228.6z" />
	<path display="inline" fill="#231B19" d="M456.7,267.2c-1,1.1-2,0-3.2,0c0,0,0.1,0.1,0.1,0.1c0-0.7-0.1-1.4-0.9-1.7l0.1,0.1   c0.5-2.1-1.4-3.5-0.8-5.5c0.7-1.5,1-3.2,3.1-3.5c1.5,1.3,3.2,2.4,3.8,4.4c-0.2,1-1.1,1.8-0.5,2.9c-0.4,0.1-0.8,0.2-1.2,0.3l0.1,0   c0-1.7,0-2.5-0.2-4.6c-1.1,1.1-1.8,1.8-2.7,2.7C455.2,264,455.9,265.6,456.7,267.2z M456.2,258.6c-2,0.4-2,0.4-2.3,2.2   C455.1,260.2,455.1,259.9,456.2,258.6z" />
	<path display="inline" fill="#786C5D" d="M462.1,234.2c0.3-0.3,0.6-0.6,0.9-0.8c2.4,0.9,4.7,0.3,7.1,0.6c0.3-0.2,0.6-0.5,0.8-0.7   c0.3,0,0.6,0.1,0.9,0.1c0.3,0.2,0.5,0.4,0.8,0.6c0,0,0,0,0,0c0,0.3,0,0.6-0.1,0.9c-0.5,0.4-0.9,0.7-1.7,1.3   c0.9,0.1,1.4,0.2,1.8,0.2c-0.1,0.2-0.2,0.5-0.2,0.7c-1.4,0.9,1.8,1.1,2.4,1.7c0,0.2,0.1,0.4,0.1,0.7c-1,0.5-2,1-3.1,1.5   c-0.6-0.2-1.2-0.3-1.9-0.5c0.3-0.3,0.6-0.7,0.9-1c-0.3-1.2-1.2-1.4-2.2-1.5c-0.3-0.2-0.6-0.5-0.9-0.7   C469.4,236.1,463.1,235,462.1,234.2z" />
	<path display="inline" fill="#4F4B41" d="M483.4,239.8c-1-0.1-2-0.9-3-0.1c-0.8-0.8-1.6-1.5-2.4-2.3c1.2-0.5-0.1-1-0.8-0.9   c-0.2-0.9-1-0.7-1.6-0.8l0,0c-0.3-0.4-0.6-0.8-0.8-1.2c0.3-0.7,0.5-1.3,0.8-2c1.5,0,3,0.3,4,1.6c-0.1,0.2-0.2,0.5-0.2,0.7   c0.3,0,0.7,0.1,1,0.1l-0.1,0c1.1,1.5,3.2,2.8,3.2,4.8L483.4,239.8z" />
	<path display="inline" fill="#322822" d="M470,240.6c1.3,0.4,2.7,0.6,4,0.7c0,0.2,0,0.4,0.1,0.6c-2.4,1.4-5,0.9-8,0.8   c0.5-0.8,0.8-1.3,1.2-1.9c-0.7-1-2.6-1.1-3.6-1.9c0.8-0.3,1.6-0.8,2.5-0.9c1.1,1,1.1,1,2.5,0.1c1,0,2,0.3,2.2,1.5   c-0.6,0.1-1.3,0.1-2.6,0.3C469.4,240.3,469.7,240.4,470,240.6z" />
	<path display="inline" fill="#2F2523" d="M488.3,256.2c-0.8,1.6-2.9,2.4-2.2,4.5c-2.5,0.6-2.9-1.6-5.5-1.8   C482.7,256.8,485.5,256,488.3,256.2L488.3,256.2z" />
	<path display="inline" fill="#493631" d="M488.4,256.2c-1.1-1.4-3-1.4-4.3-2.3c-1.5,0.3-2.8,0.6-4.5,0.9c0.8-2.2,2.7-1.7,3.8-2.5   c2.4,0.5,4.7,0.8,6.4,2.6C489.7,256,488.8,255.9,488.4,256.2L488.4,256.2z" />
	<path display="inline" fill="#BAB0A2" d="M459,261.1c-1-2.4-3.1-4.4-5.6-4.9c0.7-0.5,1.4-1,2.1-1.6c2.1,1.3,3.3,2.6,4.4,4.7   C459.6,259.9,459.3,260.5,459,261.1z" />
	<path display="inline" fill="#C1AFA1" d="M456.7,267.2c-0.7-1.6-1.4-3.2-2.2-4.9c0.9-0.9,1.6-1.6,2.7-2.7c0.1,1.2,0.1,1.9,0.2,2.6   c-1,1-1,1.1,0,2l-0.1,0c0.1,1,0.2,2,0.3,2.9C457.3,267.2,457,267.2,456.7,267.2z" />
	<path display="inline" fill="#342F28" d="M478,237.4c0.8,0.8,1.6,1.5,2.4,2.3c-0.5,0.2-1.3,0.8-1.5,0.7c-1.2-0.9-2.7-0.5-4-0.8   c0-0.2-0.1-0.4-0.1-0.7c0.7,0,1.4-0.1,2.1-0.3c0-0.1,0-0.2,0-0.3c-0.4-0.1-0.9-0.2-1.3-0.2c0,0,0,0,0,0c0-0.5,0-1.1,0-1.6   C476.6,236.5,477.2,237.2,478,237.4z" />
	<path display="inline" fill="#6B5E51" d="M474.1,241.9c0-0.2-0.1-0.4-0.1-0.6c1.5,0.4,1.2,3.5,0.2,4.7c-0.6-1.1-1.6-0.9-2.5-0.9   c0-0.5,0-0.9,0-1.4C473.2,243.6,474.1,243.9,474.1,241.9z" />
	<path display="inline" fill="#1F1917" d="M457.6,267.2c-0.1-1-0.2-2-0.3-2.9C460.2,263.1,461.2,267,457.6,267.2z" />
	<path display="inline" fill="#322623" d="M453,268.8c-1.1-1.4-2-2.9-2.7-4.6l0.3-0.2c1-0.1,1.5,1.2,2.3,1.7l-0.1-0.1   c0.3,0.6,0.6,1.1,0.9,1.7l-0.1-0.1c0.2,0.5,0.4,1.1,0.6,1.6C453.8,268.8,453.4,268.8,453,268.8z" />
	<path display="inline" fill="#4F4B41" d="M488.4,239.7c-1.5,0.9-3.7,1.3-5,0.1l0.1-0.1c1,0,1.7-0.4,1.6-1.6c0.5,0.2,1,0.5,1.6,0.7   C487,239.6,487.8,239.6,488.4,239.7z" />
	<path display="inline" fill="#4D4D43" d="M460.7,257.8c1.3-0.3,2.6-0.5,3.9-0.8c-0.1,0.9,0.8,2-0.7,2.4   C462.8,258.5,461.2,259,460.7,257.8C460.7,257.8,460.7,257.8,460.7,257.8z" />
	<path display="inline" fill="#DDBDAD" d="M459.1,271.3c-0.3,0.5-0.6,0.9-1,1.4c-1.1,0-1.9-0.4-2.2-1.5   C457,271.1,458.6,269.7,459.1,271.3z" />
	<path display="inline" fill="#6B5E51" d="M472.6,249.1c0.2-0.9,1.5-1.8-0.1-2.6c0.6-0.2,1.1-0.4,1.7-0.6c0,0,0.1,0.1,0.1,0.1   C474.2,247.3,474.4,249.2,472.6,249.1z" />
	<path display="inline" fill="#3D3D36" d="M488.4,239.7c-0.7-0.1-1.5,0-1.7-1c0.8-0.4,1.6-0.1,2.4,0.1c0,0.3,0,0.6,0,0.8   C488.9,239.7,488.6,239.7,488.4,239.7z" />
	<path display="inline" fill="#4D4D43" d="M460.6,259.4c1.1,0,2.2-0.1,3.2-0.1C462.4,260.4,462.2,260.4,460.6,259.4z" />
	<path display="inline" fill="#3D3D36" d="M490.8,241.2c0.2,0,0.4,0,0.6,0c-0.1,0.4-0.1,0.7-0.2,1.1   C491.1,241.9,491,241.5,490.8,241.2z" />
	<path display="inline" fill="#36302D" d="M493.3,264.9c0.2,0.3,0.4,0.6,0.5,0.9C493.6,265.5,493.4,265.2,493.3,264.9z" />
	<path display="inline" fill="#36302D" d="M492.5,263.3c0.2,0.3,0.3,0.6,0.5,0.9C492.8,263.9,492.7,263.6,492.5,263.3z" />
	<path display="inline" fill="#3D3D36" d="M489.1,239.6c0.3,0.2,0.5,0.4,0.8,0.6C489.6,240,489.3,239.8,489.1,239.6z" />
	<path display="inline" fill="#B7AA91" d="M451.3,288c0-2.5,0-5.1,0-7.6C452.2,283.3,452.2,285,451.3,288z" />
	<path display="inline" fill="#B7AA91" d="M451.1,279.9c-0.2-0.3-0.4-0.6-0.6-0.9C450.7,279.3,450.9,279.6,451.1,279.9z" />
	<path display="inline" fill="#32323B" d="M534.9,202.5c1.1,1.6,1.1,2.3,0,4C534.9,205.1,534.9,203.8,534.9,202.5z" />
	<path display="inline" fill="#36302D" d="M495.4,268.8c0-1.1,0.1-2.2,0.1-3.3C496.7,266.6,496.5,267.7,495.4,268.8z" />
	<path display="inline" fill="#3D3D36" d="M491.5,241.2c0-0.5,0-1.1,0-1.6c0.2,0.5,0.5,1.1,0.7,1.6   C492,241.2,491.6,241.2,491.5,241.2z" />
	<path display="inline" fill="#36302D" d="M494.6,264.1c-0.2-0.4-0.4-0.7-0.6-1.1C494.1,263.4,494.3,263.7,494.6,264.1z" />
	<path display="inline" fill="#3D3D36" d="M491.3,238.8c-0.2-0.3-0.3-0.7-0.5-1C491,238.1,491.1,238.5,491.3,238.8z" />
	<path display="inline" fill="#36302D" d="M493.8,262.5c-0.2-0.4-0.4-0.8-0.6-1.2C493.4,261.7,493.6,262.1,493.8,262.5z" />
	<path display="inline" fill="#3D3D36" d="M490.6,237.2c-0.2-0.4-0.4-0.7-0.6-1.1C490.2,236.5,490.4,236.9,490.6,237.2z" />
	<path display="inline" fill="#817369" d="M449.6,326.4c0,0.8,0.2,1.6-0.5,2.2C447.3,328.6,448.1,326,449.6,326.4   C449.6,326.4,449.6,326.4,449.6,326.4z" />
	<path display="inline" fill="#1E1715" d="M447.7,320.1c-0.4-0.9-0.6-1.5-1-2.2C448.1,318.1,448.1,318.1,447.7,320.1z" />
	<path display="inline" fill="#533B37" d="M448.1,324c0.1-1.4,0.5-1.4,0.6,0C448.5,324,448.3,324,448.1,324z" />
	<path display="inline" fill="#EDDCBC" d="M463.7,238.9c0.6,0.3,1.2,0.6,1.7,0.9c0,0.5,0,1,0,1.7c-0.6,0.3-1.1,0.6-1.8,1   c-3.3-0.9-6.7-2.2-9.9-3.8c-0.6-1-1.6-0.6-2.4-0.8c0-0.2,0-0.4,0-0.7C455.5,236.8,459.5,238.1,463.7,238.9z" />
	<path display="inline" fill="#453C33" d="M467.8,246.7c-3.9,0.2-8.3-0.2-11.1-3.1c2.8-1,5.5,3,7.9,0.9c0.5,0,1.1,0,1.6,0   c0,0.2,0,0.4,0,0.6C465,245.9,467.3,246.2,467.8,246.7z" />
	<path display="inline" fill="#6E6253" d="M456.7,243.6c0.6,0.5,1.1,0.9,1.7,1.4c-0.8,0.3-1.5,0.6-2.3,0.8c-0.9-0.4-1.8-0.9-2.6-1.3   c0.3-0.3,0.6-0.5,1-0.8c-0.1-1-1-0.9-1.6-0.9l0.1,0c-0.2-0.9-0.9-0.8-1.6-0.8l0,0c0-0.5,0-1.1,0-1.6c1.9,0.2,3.4,1.3,4.9,2.2   c-0.2,0.1-0.4,0.3-0.6,0.4C455.9,243.2,456.3,243.4,456.7,243.6z" />
	<path display="inline" fill="#2A1613" d="M466.2,245.1c0-0.2,0-0.4,0-0.6c1.8-0.4,3.6-1,5.4-0.8c0,0.5,0,0.9,0,1.4   c-1,0.3-2,0.7-3,1C468.2,244.9,467.2,245.2,466.2,245.1z" />
	<path display="inline" fill="#987D6B" d="M453.6,238.7c0.8,0.3,1.5,0.6,2.3,0.9c-0.3,0.9-0.9,0.8-1.5,0.4   C454,239.8,452.5,239.4,453.6,238.7z" />
	<path display="inline" fill="#4E483D" d="M464.6,244.5c-1,0.9-2,0.9-3.1,0C462.5,244.5,463.6,244.5,464.6,244.5z" />
	<path display="inline" fill="#4E483D" d="M456.7,243.6c-0.4-0.2-0.8-0.4-1.1-0.5c0.2-0.1,0.4-0.3,0.6-0.4c0.6,0.3,1.1,0.5,1.7,0.8   C457.4,243.5,457,243.5,456.7,243.6z" />
	<path display="inline" fill="#836758" d="M450.4,239.6c-0.8,0-1.5-0.2-1.9-0.8C449.3,238.8,450.1,238.7,450.4,239.6z" />
	<path display="inline" fill="#4E483D" d="M460.1,244.2c-0.3-0.2-0.7-0.3-1-0.5C459.5,243.9,459.8,244.1,460.1,244.2z" />
	<path display="inline" fill="#776456" d="M451.2,240.4c-0.3-0.3-0.6-0.6-0.8-0.8C450.7,239.9,450.9,240.2,451.2,240.4z" />
	<path display="inline" fill="#988872" d="M464.8,251.6c-1.6,0.7-3.2,1-4.9,1.5c-2.1-0.7-4.4-1.1-6.4-2.3c1.4,0.1,2.8,0.2,4.4,0.3   c-0.2-1-0.7-2.3-2-2l0,0c0.7-1.8,5.8-0.1,6.3,1.4C462.7,251.9,463.9,251.2,464.8,251.6z" />
	<path display="inline" fill="#675547" d="M455.9,249.1c0.7,0,1.5,0,1.6,0.9C456.9,249.8,456.1,250,455.9,249.1z" />
	<path display="inline" fill="#231A18" d="M458.2,256.5c-0.8-0.6-1.7-1.2-2.7-1.9c-4.6,2.4-4.2,5-4.9,9.4l-0.3,0.2   c-1.2-0.9-0.7-2.1-0.6-3.3l0,0c1.1-3.5,2.1-8.5,7-7c0.4,0.7,1,0.7,1.6,0.6C458.5,255.1,458.2,255.8,458.2,256.5z" />
	<path display="inline" fill="#9A9C82" d="M456.6,253.9c-0.8-0.1-1.5-0.2-2.3-0.2c-0.3-0.4-0.5-0.8-0.8-1.2c1.3,0.3,2.6,0.5,3.9,0.8   C457.2,253.4,456.9,253.7,456.6,253.9z" />
	<path display="inline" fill="#291A16" d="M463.7,238.9c-2.8-0.6-5.6-1.2-8.4-1.8c-1.2-1.1-2.7-0.6-4.1-0.7l0,0   c1.4-4.6,10.9,0.8,14.3,1.7C464.8,238.4,464.2,238.7,463.7,238.9z" />
	<path display="inline" fill="#CBBEA2" d="M465.4,238.2c-0.6-0.3-1.1-0.6-1.7-0.8c1.1,0,1.8-0.5,1.7-1.7c0.7,0.4,3.8,0.7,2.4,1.8   c-0.7-0.2-1.3-0.2-1.6,0.6C465.9,238.1,465.7,238.1,465.4,238.2z" />
	<path display="inline" fill="#A79880" d="M449.6,260.9c-0.9,2.4,1.8,4,1.5,6.4c-1.1-0.5-2.3-0.8-3.2-1.7l0,0.1   c-0.3-0.3-0.6-0.6-0.8-0.8l0,0c0.5-0.5,1-1,1.5-1.5C448.9,262.5,448.4,261.4,449.6,260.9z" />
	<path display="inline" fill="#070605" d="M447.1,277.3c0.3-0.2,0.6-0.5,0.9-0.7c-0.1,0.4-0.3,0.8-0.4,1.2   C447.4,277.7,447.3,277.5,447.1,277.3z" />
	<path display="inline" fill="#DAC4A7" d="M456,245.9c0.8-0.3,1.5-0.6,2.3-0.8c1.8,1.1,4,1.3,6.1,1.8c-1.5,2.2-4.8,1.6-6.9,0.5   c-0.5-1-1.6-0.3-2.3-0.7C455.5,246.4,455.8,246.1,456,245.9z" />
	<path display="inline" fill="#CAB99B" d="M455.8,246.8c0.6-0.1,1.3-0.2,1.7,0.6C456.8,247.5,456.2,247.5,455.8,246.8z" />
	<path display="inline" fill="#988872" d="M456.6,253.9c0.3-0.2,0.6-0.4,0.8-0.7c0.9,0,0.7,0.7,0.8,1.3   C457.6,254.6,457,254.6,456.6,253.9z" />
	<path display="inline" fill="#3D302A" d="M466.3,229.3c1.3,0,2.6,0,3.9-0.1c0,0.3,0.1,0.6,0.1,0.8c-0.3,0.3-0.5,0.5-0.8,0.8   c-0.8,0-1.6,0.1-2.5,0.1l0,0c-0.5-1.3-1.9-0.5-2.9-1.3C465,229.5,465.6,229.4,466.3,229.3z" />
	<path display="inline" fill="#40201C" d="M460,231.6c0.2-0.2,0.4-0.4,0.7-0.7c2.1,0,4.2,0,6.3,0c0,0,0,0,0,0   C465.1,232.5,462.3,231.6,460,231.6z" />
	<path display="inline" fill="#28221E" d="M475.7,232.5c-0.3,0.7-0.5,1.3-0.8,2c-0.8-0.1-1.5-0.3-2.3-0.4l0,0   c-0.3-0.2-0.5-0.4-0.8-0.6c-1.1-0.1-2.1-0.6-3.1-1c1.1-1,4.1,0,3.8-2.1c0.7-0.1,1.3-0.1,1.6,0.6C472.9,231.6,475.2,232,475.7,232.5   z" />
	<path display="inline" fill="#5E6052" d="M472.5,231.1c-2.5,1.2-6.1,2.2-8.8,0.8c1.2-0.1,2.4,0,3.3-0.9   C468.8,230.8,470.6,230.9,472.5,231.1z" />
	<path display="inline" fill="#A1A58D" d="M470.3,233.1c0.2,0,0.4,0.1,0.7,0.2c-0.3,0.2-0.6,0.5-0.8,0.7   C470.2,233.7,470.2,233.4,470.3,233.1z" />
	<path display="inline" fill="#130D0B" d="M475.7,232.5c-0.4-0.5-2.8-0.8-1.5-1.6c4.4-1.2,7.8,3.1,11.8,4l0,0   c0.3,0.3,0.5,0.5,0.8,0.8l0,0c0.8,0.8,1.6,1.6,2.4,2.4l0,0c0,0.3,0,0.5,0,0.8l0,0c-0.8-0.2-1.6-0.5-2.4-0.1   c-0.5-0.2-1.1-0.5-1.6-0.7c0-0.6-0.1-1.2-0.1-1.8c-1.4-1.5-2.9-1.4-4.6-1.5l0.1,0C479.2,233.3,477.7,232.3,475.7,232.5z" />
	<path display="inline" fill="#8F8B77" d="M481.2,232.7c-1.3-0.6-2.6-1.3-3.9-1.9c0-0.3,0-0.5,0-0.8   C478.5,230.1,482.6,231.1,481.2,232.7z" />
	<path display="inline" fill="#130D0B" d="M472.5,231.1c-1-0.1-2-0.2-3-0.2c0.3-0.3,0.5-0.5,0.8-0.8c0.7,0.1,1.5,0.2,2.2,0.3   C472.5,230.6,472.5,230.8,472.5,231.1z" />
	<path display="inline" fill="#B3B097" d="M452.7,242.8c0.7,0.1,1.5-0.1,1.6,0.9C453.8,243.4,453.3,243.1,452.7,242.8z" />
	<path display="inline" fill="#9FA48C" d="M451.2,242c0.7,0,1.4-0.1,1.6,0.8C452.1,242.8,451.4,242.8,451.2,242z" />
	<path display="inline" fill="#DCC6B3" d="M451.4,269.5c0.2-0.8,0.8-0.6,1.3-0.6C452.6,270,451.9,269.5,451.4,269.5z" />
	<path display="inline" fill="#CDBA9D" d="M451.2,236.5c1.4,0.1,2.9-0.5,4.1,0.7c-1.3,0-2.7,0.1-4,0.1   C451.2,237,451.2,236.8,451.2,236.5z" />
	<path display="inline" fill="#35211B" d="M448,265.6c0.3,0.3,0.6,0.5,0.9,0.8c-0.3,0-0.6,0-0.8,0   C448.1,266.1,448.1,265.9,448,265.6z" />
	<path display="inline" fill="#371D18" d="M447.2,264.8c0.3,0.3,0.6,0.6,0.8,0.8C447.8,265.4,447.5,265.1,447.2,264.8z" />
	<path display="inline" fill="#C2BCA0" d="M468.7,246.1c1.7-0.4,4.1-2.1,5.5-0.2c-1.7,0.9-3.6,0.6-5.4,0.7   C468.7,246.4,468.7,246.3,468.7,246.1z" />
	<path display="inline" fill="#8E8A76" d="M465.3,250.5c1.1-0.9,2.4-0.5,3.8-0.8c-1.1,1.4-1.1,1.4-3,1.6   C465.9,251.1,465.6,250.8,465.3,250.5z" />
	<path display="inline" fill="#46463B" d="M462.2,248.2c0.8-0.4,1.8-0.6,2.2-1.4c0.6,0,1.2-0.1,1.8-0.1c-0.6,0.8-1.2,1.5-1.9,2.4   C463.5,248.8,462.9,248.5,462.2,248.2z" />
	<path display="inline" fill="#586756" d="M460.3,255.6c1.7-0.3,1.9-0.2,4,0.2c-2.1,0.5-2.3,0.5-4,0.2   C460.3,255.8,460.3,255.7,460.3,255.6z" />
	<path display="inline" fill="#D7D8B8" d="M465.3,250.5c0.3,0.3,0.6,0.6,0.8,0.8c-0.5,0.1-0.9,0.1-1.4,0.2c-0.8-0.4-2,0.3-2.5-1   C463.3,250.6,464.3,250.6,465.3,250.5z" />
	<path display="inline" fill="#46463B" d="M468.7,246.1c0.1,0.2,0.1,0.3,0.1,0.5c-0.3,0-0.6,0.1-0.9,0.1c-0.4-0.5-2.8-0.8-1.6-1.6   C467.2,245.2,468.2,244.9,468.7,246.1z" />
	<path display="inline" fill="#4D4D43" d="M460.7,257.8c-0.2-0.1-0.4-0.2-0.5-0.3C460.6,257,460.6,257.5,460.7,257.8L460.7,257.8z" />
	<path display="inline" fill="#3D3D36" d="M489.1,238.1c-0.8-0.8-1.6-1.6-2.4-2.4C488.3,235.7,489.1,236.5,489.1,238.1z" />
	<path display="inline" fill="#3D3D36" d="M486.7,235.7c-0.3-0.3-0.5-0.5-0.8-0.8C486.2,235.2,486.5,235.4,486.7,235.7z" />
	<path display="inline" fill="#615D4F" d="M486,234.9c-0.2,0-0.5,0-0.7-0.1c0.1-0.2,0.3-0.3,0.4-0.5   C485.7,234.5,485.8,234.7,486,234.9z" />
	<path display="inline" fill="#3D3D36" d="M489.1,238.8c0-0.3,0-0.5,0-0.8c0.2,0.1,0.4,0.3,0.6,0.4   C489.5,238.6,489.3,238.7,489.1,238.8z" />
	<path display="inline" fill="#9F8A7E" d="M450.5,264c0.9-2.6-0.1-6.2,2.8-7.8c0.6,0.2,1.2,0.4,1.8,0.5c-2.8,0.6-4.2,4.5-2.4,6.6   c-0.7,0-1.3-0.1-1.6,0.8C451.1,264,450.7,264,450.5,264z" />
	<path display="inline" fill="#DEBCAD" d="M451.2,264.1c0.2-0.8,0.9-0.8,1.6-0.8c0,0.8,0,1.6,0,2.4   C452.3,265.2,451.8,264.6,451.2,264.1z" />
	<path display="inline" fill="#B4A99A" d="M456.2,258.6c-1.1,1.3-1.1,1.6-2.3,2.2C454.1,259,454.1,259,456.2,258.6z" />
	<path display="inline" fill="#120E0D" d="M457.4,264.2c-1-0.9-1-1,0-2C457.4,262.9,457.4,263.5,457.4,264.2z" />
	<path display="inline" fill="#F6D9C7" d="M453.6,267.3c-0.3-0.6-0.6-1.1-0.9-1.7C453.5,265.9,453.6,266.6,453.6,267.3z" />
	<path display="inline" fill="#4D4D43" d="M457.5,258.7c0.2,0.2,0.4,0.5,0.7,0.7C457.9,259.2,457.7,258.9,457.5,258.7z" />
	<path display="inline" fill="#58483E" d="M475.7,236.4c0,0.5,0,1.1,0,1.6c-1.6-1.2-2.6-1.8-4.9-1.8c0.8-0.6,1.2-1,1.7-1.3   c1.1,0.3,2.1,0.5,3.2,0.8l0,0C475.7,235.9,475.7,236.2,475.7,236.4z" />
	<path display="inline" fill="#30241F" d="M472.6,236.5c1.4-0.3,1.9,1.3,3.1,1.6l0,0c0,0.3,0,0.5,0,0.8c-1.1,0.2-2.1-0.5-3.1-0.9   C472.5,237.5,472.3,236.9,472.6,236.5z" />
	<path display="inline" fill="#7A5C4F" d="M466.2,238c0.5-1.3,1.8-0.6,2.5,0.1C467.3,239,467.3,239,466.2,238z" />
	<path display="inline" fill="#A1A58D" d="M475.7,235.7c-1.1-0.3-2.1-0.5-3.2-0.8c0-0.3,0-0.6,0.1-0.9c0.8,0.1,1.5,0.3,2.3,0.4   C475.1,234.9,475.4,235.3,475.7,235.7z" />
	<path display="inline" fill="#8DA28A" d="M470,240.6c-0.3-0.1-0.6-0.3-1.6-0.7c1.3-0.1,1.9-0.2,2.6-0.3   C470.6,239.9,470.3,240.3,470,240.6z" />
	<path display="inline" fill="#A1A58D" d="M471.8,233.4c0.3,0.2,0.5,0.4,0.8,0.6C472.3,233.9,472.1,233.6,471.8,233.4z" />
	<path display="inline" fill="#58483E" d="M472.4,237.2c0.1,0.3,0.1,0.5,0.2,0.8C471.8,237.9,471.7,237.6,472.4,237.2z" />
	<path display="inline" fill="#8C816E" d="M485.1,238c0.1,1.1-0.6,1.6-1.6,1.6c0.2-1.7-1.5-2.7-2.3-4l0,0   C482.9,235.5,483.8,237.3,485.1,238z" />
	<path display="inline" fill="#B0AD93" d="M475.7,236.4c0-0.3,0-0.5,0-0.8c0.6,0.1,1.4-0.1,1.6,0.8c0,0,0-0.1,0-0.1   c-0.3,0.1-0.6,0.1-0.8,0.2C476.2,236.5,476,236.4,475.7,236.4z" />
	<path display="inline" fill="#807F6D" d="M479.7,234c0.3,0.3,0.5,0.6,0.8,0.8c-0.3,0-0.7-0.1-1-0.1   C479.5,234.5,479.6,234.3,479.7,234z" />
	<path display="inline" fill="#A9A88F" d="M478,237.4c-0.2-0.1-0.4-0.2-0.6-0.2c-0.1-0.2-0.1-0.5-0.1-0.7c0,0,0,0.1,0,0.1   C477.9,236.4,479.2,236.8,478,237.4z" />
	<path display="inline" fill="#8E9983" d="M480.4,234.8c0.3,0,0.5,0,0.8,0.1c0,0.3,0,0.5,0,0.8l0,0   C480.9,235.4,480.7,235.1,480.4,234.8z" />
	<path display="inline" fill="#58483E" d="M475.7,238.8c0-0.3,0-0.5,0-0.8c0.4,0.1,0.9,0.2,1.3,0.2c0,0.1,0,0.2,0,0.3   C476.5,238.7,476.1,238.8,475.7,238.8z" />
	<path display="inline" fill="#58483E" d="M477.3,236.4c0,0.3,0,0.5,0.1,0.7c-0.3-0.2-0.6-0.4-0.9-0.6   C476.7,236.5,477,236.5,477.3,236.4z" />
	<path display="inline" fill="#4E483D" d="M459.9,245.8c-0.3-0.2-0.7-0.4-1-0.5C459.2,245.4,459.5,245.6,459.9,245.8z" />
	<path display="inline" fill="#4F4B41" d="M481.2,235.7c0-0.3,0-0.5,0-0.8c1.5-0.2,2.7,0.2,3.9,1.4c0,0.5,0.1,1.1,0.1,1.8   C483.8,237.3,482.9,235.5,481.2,235.7z" />
</g>
</svg>