<?xml version='1.0' encoding='utf-8'?>
<svg xmlns="http://www.w3.org/2000/svg" version="1.2" baseProfile="tiny" id="Layer_2_00000127014892309758398080000008861774417534134701_" x="0px" y="0px" viewBox="0 0 900 600" overflow="visible" xml:space="preserve">
<g id="a">
	<path d="M429.7,162.2c0.5-3.9-1.1-3.1-4.1-3.1c-0.2,0.5-0.4,1-0.8,1.9c-1-0.9-1.8-1.7-2.7-2.5c-0.6,0-1.2-0.1-2-0.1   c-0.3,0.3-0.6,0.7-0.8,1c-2.4-0.1-2.1-4.8-4.3-4.1c0.3,0.7,0.7,1.5,1,2.3c-2.2,2-3.1-2.7-5.1-3.2c-0.2,0.4-0.3,0.7-0.6,1.3   c-2.3,0.1-2.6-2.6-4.7-3.1c-1.1-1.6-2.1-3.8-2.5-5.8c0.3-0.6,0.3-0.6-0.5-1.4c-0.1,0.5-0.2,0.8-0.3,1.2c-3.8-0.4-3.5-4.5-4-7.3   c1-0.4,1.3-4.6,0.1-4.5c-0.1,0.3-0.2,0.6-0.3,0.9c-0.4,0-0.9,0.1-1.3,0.1c-1-3.4-0.1-6,0-9.6c-0.7,0.4-1.2,0.7-1.9,1.1   c-1.9-2.9,0-6.2-0.1-9.3c0.9-0.6,1.2-1.5,1.3-3.1c-0.9,1.1-1.4,1.7-1.9,2.4c-1.4-3.9,1.6-6.7,3.1-10.2c0-0.1-0.1-0.5-0.2-1   c0.5-0.8,1-1.7,1.5-2.6c-0.5-0.4-0.9-0.8-1.5-1.4c0.7-1.4,1.4-2.8,2.1-4.2c1.2-0.4,2.4-0.8,3.6-1.2c-0.6-0.4-1.1-0.7-1.6-1.1   c0.1-1.1,1-1.2,1.7-1.5c1.6,0.6,2.4-0.5,3.5-1.3c-0.3-0.4-0.5-0.6-0.7-0.8c-0.1-0.4-0.1-0.9-0.2-1.3c2.3-3.1,2.9-0.3,3.9-2.1   c-0.5-0.4-1.1-0.8-1.8-1.3c0.3-0.6,0.6-1.2,0.8-1.5c2.7-0.5,5.1-1,7.3-1.4c1.7-1.5,0.6-4.4,4-2.5c0.8,0.3,1.6,0,2.2-0.7   c2.1-1.9,4.6-2.2,7.5-1.8c0.1-0.1,0.3-0.4,0.6-0.7c2-0.6,3.6-0.1,4.8,1.6c3.5-0.3,7.4-3.8,10.8-1.7c-0.1,0.3-0.1,0.6-0.2,1.1   c-0.7,0.2-1.5,0.4-2.4,0.6c2.2,2.6,6.2-3.6,11.5-1.4c-0.9,1.6-2.3,0.7-3.3,2.4c4.3,1.5,9.7-0.4,13.1,3.4c-0.2,0.5-0.3,0.9-0.5,1.3   c-0.8-0.1-1.7-0.2-2.6-0.3c0,0.4,0,0.7,0,1.2c0.9,0,1.8,0,2.6,0c2.2,1.4,4.4,2.8,7.1,4.6c-0.5,2.2,3.3,4,3.3,6.7   c-0.5,0.2-0.9,0.4-1.4,0.7c0.4,0.9,0.8,1.8,1.3,2.7c-0.3,0.4-0.6,0.9-1,1.5c0.5,0.4,1,0.9,1.7,1.6c0,1.6,0,3.3,0,4.9   c-2.5,1.9,1.1,6.3-3.3,6.4c1.2,2.3-0.6,4.2-0.7,6.5c-1.2,0-1.9,0.2-2.9,0.7c-4.6-7.8-3.5-7.4-12-6.8c-6.7-1.7-15,2.5-18.2,8.7   c-1.4,0.5-1.4,0.5-0.6,2.1c-0.5,3.2-0.6,6.6-2.9,9.3c-0.2,0.6,1.1,1.1,0.2,1.8c-0.6-0.1-1.2-0.2-1.5,0.6c-0.5,0-1,0.1-1.5,0.1l0,0   c-0.5-1-0.9-2-1.4-3c2-14.3,14.2-24.8,28.9-23.1c-14.7-9.5-30.8,6.8-31.4,21.8c0.2,0.3,0.4,0.5,0.6,0.8c-2.6,2.4-2,5.1-1.4,8.2   l0-0.1c-1.6,2.5,2.8,4.4,4.1,6.3c0.3,5.7-1,11.2-0.7,17C429.2,165.6,430,163.6,429.7,162.2z M398.8,106.6c1.2-0.4,1.7-0.6,1.3-1.4   C399.3,105.3,399.5,105.6,398.8,106.6z" />
	<path fill="#020101" d="M454.6,182.2c45.5,16.3,39,22.3,39.3,67.7c6,26.5,10.6,54.5,6.3,81.4c-2.4-15.3,0.4-30.8-1.5-46.1   c-2.2-13.8-7.2-27.1-6.7-41.3c-2,0.9-2.7,3.1-4.6,3.7c-1.7,0.3-2.8,1.3-4.3,2.3c0,11.5-6.7,22.7-4.8,34.1   c1.3,14.4,8.8,26.8,12.2,40.6c1.3,2.7,0.2,8.1,3.6,8.9c0.9,8.9-4.2,16.5,0.2,24.3c-0.5,1.3-0.9-0.6-1.4-0.1c0,0.8-0.4,1.8,0.7,2.3   c4,31.7,0.7,63.9,0,95.7c-3.7-17.5-0.6-36.5,0.1-54.6c-0.1-23.4-2.2-47.2-8-69.8c-28.3,10.7-58.3-1.9-87.3,0.8   c-2.7,6.4-1.1,12,3.6,16.8c-0.2,0.3-0.5,0.5-0.7,0.8c-2.7-3.1-9.5-9.3-9.5-13.2c0.7-1-0.5-1.4-0.5-2.2c0.3-0.4,0.7-0.7,1-1.1   c1.6-24.4,5.9-48.6,7.9-73.7c3.4-10.9,4.4-22.4,4.9-33.8c0.1-2.7-0.4-5.8,2.3-7.5c0.3,0.4,0.6,0.8,0.9,1.3   c7.5-10.2,10.6-24.2,5.2-36.1c-8.5,5.7-20.4,5.6-25.5,15.5c-6.2,9.4,0.7,21.3-3.3,31.3c-1.2,11-3.8,21.9-3.6,33.1   c-1.3,13.1-7.4,25.7-3.7,39.2c2,13.7,6.8,28.1,5.9,41.8c-6-16.2-5.3-34.6-8.7-51.6c-0.9-7.5,1.8-14.6,3.7-21.7   c1.7-13.3,1.3-26.8,4.7-39.9c2.3-14.8-3.8-37.2,15.2-42.7c9.4-1.1,15.1-9.6,24-11.6c0.3,0.2,0.6,0.5,0.9,0.7   c-0.5,0.4-1,0.9-1.6,1.5c3.9,17.2,16.1,32.7,35,32.6c0.5-0.4,1-0.8,1.5-1.2c0.2,0.4,0.3,0.8,0.5,1.3c3.3,0,6.6,0,9.9,0   c-0.2,0.1-0.2,0.3-0.2,0.5c-23.8,7.6-43.6-10.3-48.5-32.8c-1.8,0.7-3.2,1.6-4.2,3.2c6.5,13.5,2.6,31-8.3,41.1   c-1.8,57,23.8,34.7-7.7,106c28.5-1.1,58.7,9.8,86.1-1c-16.1-52-12.8-30.9-4.1-80.4c14.9-5.7,11.7-19.6,6-31.1   c0.2-0.4,0.4-0.9,0.6-1.3c1.2,2,2.4,4,3.6,6c-0.1,1-0.2,2.1,1.1,2.4c-0.1-13.4-4.1-29.5-19.7-31.7c3.5,3.3,5.4,6.7,7.7,10.8   c-0.3,0.3-0.5,0.5-0.8,0.8c-4.6-5.2-7.8-11.3-13.8-15.3c1.8,7,11.6,17.1,2.9,22.9c-0.2-0.1-0.4-0.1-0.7-0.1   c-0.2-1.8,1.6-2.3,2.5-3.3c-0.9-7.3-3.8-14.4-8.1-20.4c-3.7-0.8-6.7-2.5-9.6-5.2C453.6,182.5,454.1,182.3,454.6,182.2z    M478.3,294.4c-1.1-4.4-0.6-8.2-2.6-12.6c1,22.3,13.4,41.8,15.3,64.5C494.6,328.8,481.9,311.3,478.3,294.4z M394.3,336.9   c12.3-33.8,27.5-52,11.2-88.9c-4.7,12.3-5.4,24.9-5.6,37.9C398.5,303.1,393,319.4,394.3,336.9z" />
	<path fill="#020101" d="M430.6,444.9c-2.8,8.2-4.1,18-9.4,24.9c-3.5,9-0.9,19.2-4.7,28.4c-2.9,6.6-16.4,57.2-7.2,57.6   c1.7,8.8,7.3,16,11.1,24c5.1,6.1,8.6,8.8,5.2,17.4c-11.2,3.5-23.7,3.8-35.1,0.8c-0.4-1.1-0.7-2.3-1.2-3.7c-2-0.4-4.2-0.9-6.2-1.3   c-2.1-4.5,2.3-9.7,1.7-14.6c0.5-4.7-2.8-11.5,2.8-13.8c4.7-27.2-4.1-54.7-0.5-82.1c19.2-58.8,13.3-36.9,8.5-98.3   c-0.4-0.5-0.8-1-1.3-1.5c0.3-0.4,0.7-0.8,1.1-1.3c-0.1-0.3-0.7-0.9,0.2-1.4c1,1.1,1.7,2.5,3.2,3.2c0.5-0.5,0.2-1.1,0.3-1.7   c0.2-0.3,0.5-0.5,0.7-0.8c0.4,0,0.8-0.1,1.3-0.1c0.4-4.5-2-8.3-2.5-12.7c-1.5-3.7-0.1-7.8-1.5-11.1c0.2-0.4,0.5-0.9,0.7-1.3l0,0   c0,0.6,0,1.2,0.7,1.4l0,0c0.1,0.7-0.1,1.5,0.7,2.1c1,2.7,0.1,5.7,2.2,8c-2.8,5.9,5.6,15.2-2.9,18.9c-0.4,24.4,9.7,49.6-1,72.9   c-3.8,7.9-6.7,16.2-7.8,24.9c-3.7,17.5,0.1,35.4,1.4,53c0.2,6.8-0.1,13.7-0.5,20.5c0,0.7,0.3,0.7,0.9,0.7c0.6-2.1,1.2-4.3,1.7-6.5   c2.5-1.9,5.3-2.2,8.3-3c0.5,0.6,1,1.2,1.6,1.8c1.7-17.5,5.5-34.4,11.3-51.1c3.6-9,1.4-18.8,3.9-27.8c4.6-9.1,8-18.7,11.7-28.2   c0.2,0,0.5,0,0.7,0l0,0C430.5,443.5,430.5,444.2,430.6,444.9z M412,597.2c4.2-0.5,7.7,0.2,11.7-2c-3.2-0.3-5.8-0.5-8.2-0.8   c-1.4,0.9-4.4,3.1-4.1,0.1c0.9-0.5,1.7-1.1,2.9-1.8c3.1,0.2,6.4,0.4,9.8,0.6c0.8-3,1.2-5.6-1.5-7.7c-6.8-7.9-11.9-18.3-14.9-28.3   c-3-1.6-4.7-4.6-7-6.9c-2.1,0.2-3.9,1-5.6,1.7c-0.8,5.5-2.2,10.7-5.1,15.3c-1.5,0.3-2.2-0.1-3.6-1.1c-0.2,8.4,0.7,16.2-2.3,24.3   c1.5,0.3,2.9,0.5,4.2,0.8c0.9-0.8-0.1-2.3,1.6-2.7c1.3,2.2,0.8,5,1.9,7.4C398.2,598,405.6,598.8,412,597.2z M390.9,559.3   c-1.8,1.9-1.8,3.2-1.1,5.1C391.1,562.9,391.1,561.5,390.9,559.3z" />
	<path fill="#020101" d="M492.6,445.3c5.1,32.8,4.4,66,2.9,99.3c1,0.2,1.9,0.4,2.7,0.5c2,2.6,1.9,5.6,2.3,8.8   c5.5,6.1,9.8,15.2,17.4,18.8c2.8,1.2,6.2,2.1,6.5,5.7c8.6,16.2-30,14.6-36.9,7.4c-4,2.2-16.3,1.5-18-3.4c3.6-5.1,3-11.1,2.6-17   c-0.2-4.4,2.9-8.4,2.1-12.8c2-1.3,2-1.3,4.5-0.8c-1.4-12.9-1.8-27-6.4-39.5c-3.6-9.6-7.2-19.6-7.8-29.9c-0.1-8.7,1.3-17.2,1.4-25.8   c-0.3-7.8-6.2-16.5-3.9-24.1c1.8,10,6.9,19.9,5.9,30.1c-1.5,8.2-1.7,16.4-0.6,24.7c1.5,13.2,8.6,24.8,10.4,38   c1.1,8,1.9,16.2,3.4,24.2c1.9,0.6,3.7,1,5.6,0c1.9-4,2.9-3.5,6.5-5.4c-1-14.6,2.2-29.1,1.5-43.8   C495.7,481.9,490.4,463.5,492.6,445.3z M500.3,559c0.6,0.2,0.9-0.1,1.1-0.6c-4.5-0.1-9.7,1-13.5,3.5c-3.2-4.9,8.3-4.5,11.1-5.5   c-0.8-2.9-0.7-5.8-1.9-8.5c-11.8-5.4-6.5,14-17,11c-1.6-1.9-1.3-4.8-3.6-5.9c-3.7,10.1-0.6,20.3-4.9,30c4.1,0.8,8.5,2.7,12.7,1.7   c2.2-0.8,4.1-0.4,6.2,0.6c9.9,4.9,24.4,5.4,33.3-1.1c-2.5-13.6-8.7-5-20.3-23.2c-4.1,0.4-8,1.3-11.4,4.2   C489.1,560.7,497.8,560.6,500.3,559z M481.1,551.8c0,1.8-1.1,3.6,0.8,5.1c2.3-0.1,3.8-2.5,4.3-4.7   C484.5,552,482.9,551.9,481.1,551.8z" />
	<path fill="#030302" d="M462,432.5c-0.7,0.8-0.9,1.8-0.8,2.8c-5.2-17.5-11.3-34.9-15.3-52.8c-4.3,18.3-7,37.4-12.7,55.5   c-0.8,0.3-0.8,0.9-0.6,1.6c0,0.7-1.2,0.9-0.8,1.8l0,0c-0.7,0.2-0.8,0.7-0.7,1.3l0,0c-0.2,0-0.5,0-0.7,0l0,0   c-0.6-1.7,1.1-2.6,0.7-4.1l0,0c0.7-0.2,0.8-0.7,0.7-1.3c3.6-14.5,6.8-30.3,10-45.3c3.3-13,2.4-27.7,9.2-39.4   C442.6,380.7,455.4,404.8,462,432.5z" />
	<path fill="#110E0D" d="M500.2,331.3c1.9-4.6,0-10.9,0.8-16c0.6,13.8,0.6,27.2,8,39.5c-1.4,4-2,9-1.5,11.6   c-2.4,5.4-10.5,18.8-12.1,5.2l0,0c0.2,0,0.5,0,0.7,0l0,0c-0.1,1,0.4,1.4,1.3,1.4c0.2,0.2,0.4,0.5,0.7,0.7c-0.3,1.1-1,1.9,0.2,2.7   c0.9-3.2,0.9-6.4,3.7-9c1,2.9-2.2,3.7-1.6,7c5.3-5.9,5.8-13.2,6.3-20.6C503,346.7,500.2,339.5,500.2,331.3z" />
	<path fill="#1A1514" d="M468.1,122.8c0.5-0.2,1-0.4,1.5-0.6c1.5,5.2,2.2,10.9,3,16c-0.3,0.2-0.8,0.4-1.2,0.7   c0.1,0.3,0.3,0.5,0.5,0.9c-0.3,0.3-0.7,0.6-1,0.9c-1.6,0.2-3-0.2-4.1-1.4c-0.2-0.5,0-1.2-0.7-1.3c-0.2-0.3-0.5-0.5-0.7-0.8   c0.7-2.1,3.4-1.2,5.1-1.5c1-3.7-3.3-0.8-5.1-1.5c0.7-2.5,3.2-1.8,4.6-2.9C470.4,128.3,468.7,125.6,468.1,122.8z" />
	<path fill="#0F0D0C" d="M391.4,379.9c-5.7-3.1-7.7-10.3-8.9-16.2c0.3-0.7-0.3-1.8,0.8-2.3c0.4,0.5,0.9,1,1.3,1.5   c0,0.4,0.1,0.8,0.1,1.2c0.2,0.2,0.4,0.5,0.7,0.7c0,0.2,0,0.5,0,0.7c-1.6,1.7,0,3.7,1.2,5.7c0.4-2.5-1.1-3.9-1.2-5.7   c0.2,0,0.5,0,0.7,0c2.8,4.7,1.2,10.3,6.1,13.7C391.9,379.4,391.7,379.7,391.4,379.9z" />
	<path fill="#463733" d="M470.3,151.5c-0.7,4.6-1.9,9-4.3,13c-0.3,0-0.5,0-0.8,0c0.2-0.6,0.3-1.2,0.5-1.7c-3.7,0.8-7.1,0-10-2.3   c2.7-0.7,5.7,2.5,8.8,1.1c0.6-0.8,1.1-1.6,1.6-2.3c0.5,0,1,0.6,1.1-0.4c-0.9-0.9-2.1-1.3-3.4-1.2c0.6-0.3,1.3-0.6,1.9-0.9   c-0.3-0.7-0.5-1.1-0.4-1.8c0.8,0.8,1.6,1.6,2.5,2.5c0.5-3.2,1-5.9,2.2-8.8C470.2,149.6,470.2,150.5,470.3,151.5z" />
	<path fill="#25201F" d="M383.3,361.4c-1.1,0.5-0.5,1.5-0.8,2.3c-2.3-7-0.6-14.3-0.5-21.4C384.8,347.8,382.2,355.1,383.3,361.4z" />
	<path fill="#251D1B" d="M391.4,379.9c0.3-0.2,0.5-0.5,0.8-0.7c0.6,0.4,1.2,0.7,2.3,1.4c-3-6.3-4-11.6-7-17.5   c6.7,3.8,3.8,11.5,8.1,16.8c-0.9,0.5-0.3,1.1-0.2,1.4c-0.4,0.5-0.7,0.9-1.1,1.3C393.3,381.7,392.4,380.8,391.4,379.9z" />
	<path fill="#1E1A18" d="M423,177.4c-0.3-0.2-0.6-0.5-0.9-0.7c5.6-2.5,6.4-9.2,7.6-14.5c0.3,1.4-0.5,3.4,0.7,4.3   C429.4,170.5,427.7,176.8,423,177.4z" />
	<path fill="#494341" d="M465.2,164.4c0.3,0,0.5,0,0.8,0c-2.1,5-6.5,6.2-11.5,6.2c0.2-0.4,0.4-0.9,0.6-1.3   C459.4,169.7,462.9,168.3,465.2,164.4z" />
	<path fill="#3F3A37" d="M470.2,149.4c-0.2-3,0.4-6-0.8-8.8c0.5,0,1,0,1.5,0c0.9,3,0.9,5.9-0.1,8.9   C470.6,149.5,470.4,149.5,470.2,149.4z" />
	<path fill="#28211F" d="M454.6,182.2c-0.5,0.2-0.9,0.3-1.6,0.6c0.9,0.7,1.5,1.2,2.1,1.7c-1-0.4-1.1,0.6-1.8,1   c-0.5-1.3-1.2-2.5-0.8-3.9c1.8-1.9-0.4-5.4,1.3-7.5C454.1,176.7,452.8,180,454.6,182.2z" />
	<path fill="#28211F" d="M455.1,169.4c-0.7,1.3-0.9,2.7-1.3,4.1c0.5-3.1-2.8-4-4.8-5.6c0.2-0.2,0.5-0.4,0.7-0.7   c0.7,0.2,1.4,0.5,2,0.7C452.4,169,454,168.7,455.1,169.4z" />
	<path fill="#020101" d="M453.1,170.6c1.3,1.4,0.7,3.4,0,4.8c-0.4,1.9,0.7,4.7-0.7,6.1c0-2.7,0.1-5.5,0.1-8.2   C453.6,172.7,452.7,171.6,453.1,170.6z" />
	<path fill="#483C3A" d="M495.4,371.6c0.2,0.9,0.5,1.9,0.7,2.8c-1.5,1.2-0.3,4.3-0.7,6.1c-1.3-2.7-0.3-6-0.6-9   C495,371.6,495.3,371.6,495.4,371.6z" />
	<path fill="#3C4040" d="M405.7,90.5c0.1,0.4,0.1,0.9,0.2,1.3c-0.9,0.6-1.9,1.1-2.8,1.7C401.6,91.9,404.8,91.2,405.7,90.5z" />
	<path fill="#B0BABA" d="M446.2,79.9c-1.7,1.3-1.7,1.3-3.2,0.1c0.9-0.2,1.7-0.4,2.4-0.6c0.1-0.4,0.2-0.7,0.2-1.1   C446.4,78.6,446.3,79.3,446.2,79.9z" />
	<path fill="#BDC7C7" d="M403.1,93.5c0.9-0.6,1.9-1.1,2.8-1.7c0.2,0.2,0.4,0.5,0.7,0.8c-1.1,0.9-1.9,2-3.5,1.3   C403.1,93.8,403.1,93.7,403.1,93.5z" />
	<path fill="#D3D8D8" d="M398.2,135.7c0.1-0.3,0.2-0.6,0.3-0.9c1.2,0,0.9,4.1-0.1,4.5C398.3,138,398.3,136.9,398.2,135.7z" />
	<path fill="#545C5C" d="M416.1,157.6c-0.3-0.8-0.7-1.5-1-2.3c1.4-0.9,1.6,1.7,2.4,2.5C417,157.7,416.5,157.6,416.1,157.6z" />
	<path fill="#D1DDDD" d="M464,86.5c-0.9,0-1.7,0-2.6,0c0-0.4,0-0.7,0-1.2c0.9,0.1,1.8,0.2,2.6,0.3C463.9,86,464,86.3,464,86.5z" />
	<path fill="#3D3D3D" d="M394.3,117.3c0.5-0.6,1-1.3,1.9-2.4c0,1.6-0.4,2.5-1.3,3.1C394.7,117.8,394.5,117.5,394.3,117.3z" />
	<path fill="#6B7474" d="M398.2,135.7c0,0.6,0,1.3,0.1,1.9c-1.8,0.6-1.3-0.7-1.4-1.8C397.4,135.8,397.8,135.7,398.2,135.7z" />
	<path fill="#F7EFD0" d="M409.2,555.7c-0.9-0.2-2,0-2.6-0.9C407.5,554.9,409.1,554.4,409.2,555.7z" />
	<path fill="#B28C7D" d="M470.2,149.4c0.2,0.1,0.4,0.1,0.6,0c0.1,0.7,0.1,1.5-0.5,2C470.2,150.8,470.2,150.1,470.2,149.4z" />
	<path fill="#768282" d="M402.3,146.6c0.1-0.4,0.2-0.8,0.3-1.2c0.8,0.8,0.8,0.8,0.5,1.4C402.9,146.7,402.6,146.6,402.3,146.6z" />
	<path fill="#302826" d="M430.5,442.7c0.2,0,0.5,0,0.7,0c-0.2,0.7-0.4,1.4-0.6,2.2C430.5,444.2,430.5,443.5,430.5,442.7z" />
	<path fill="#302826" d="M432.7,439.5c-0.2-0.7-0.2-1.3,0.6-1.6C433.1,438.5,432.9,439,432.7,439.5z" />
	<path fill="#302826" d="M431.9,441.4c-0.1-0.6,0-1.1,0.6-1.4C432.3,440.5,432.1,440.9,431.9,441.4z" />
	<path fill="#302826" d="M431.2,442.7c-0.1-0.6,0-1.1,0.7-1.3C431.6,441.8,431.4,442.3,431.2,442.7z" />
	<path fill="#1E1A18" d="M428.2,159.1c0.7-0.2,1.4-0.2,1.5,0.8C429.2,159.7,428.7,159.4,428.2,159.1z" />
	<path fill="#B0BABA" d="M447.6,79.1c-0.2,0.1-0.5,0.3-0.7,0.4C447.1,79.4,447.4,79.2,447.6,79.1z" />
	<path fill="#B28C7D" d="M455.1,169.4c-0.7-0.3-1.4-0.5-2-0.8c-0.2-0.7-0.8-0.7-1.3-0.7c-1.6-2.1-3.6-3.5-6.2-4l0,0   c-1.8-2.5-5.2-2.9-7.5-4.9l0,0c-2.6-2.4-4.2-5.9-4.2-9.6c-0.9-1.1-1.5-2.5-1.2-4c0.6-0.5,0.3-1,0-1.4c-1.3-1.2-0.1-3.1-1.3-4.2   c-0.5-1.1-0.5-1.1,0.5-1.2c0.6,0.8,1,0.7,1.5-0.1l0,0c0.6,0.1,1.2,0.1,1.5-0.6c0.8-0.7-0.4-1.1-0.2-1.8c2.3-2.7,2.4-6,2.9-9.3   c1.5-6.5,9.1-11,15.6-11.4c2,0.3,4.6,1.2,6.5,0.4c7-2.2,10.1,10,10.7,15.3c-1.4,1.1-3.9,0.5-4.6,2.9c1.8,0.7,6.1-2.2,5.1,1.5   c-1.7,0.3-4.4-0.6-5.1,1.5c-0.2,0.1-0.4,0.2-0.5,0.3c-0.1-0.5-0.3-0.9-0.5-1.6c-2.3,3.1-2.4,4.5-0.6,6.6c0.2-0.8,0.4-1.6,0.5-2.4   c1,0.2,1.8,0.8,2.4-0.2c0-0.2,0-0.4,0-0.7c0.8,0.6,1.5,1.5,2.6,1.4c2.2,5.8-0.8,11-1.5,16.8c-2.7-4.4-9-3.2-12.2,0.1   c-1.6-0.7-1.6-0.7-2.6,0.7c0.4,1.2,1.3,0.6,2.1,0.7c0.8,3.8,7.1,4.5,10.5,3.8C464.5,167.6,459.8,169.8,455.1,169.4z M446.2,139.8   c2.7,2,6.8,0.6,10,0.6c0.1-6.2-7.7-5-11.3-3.3C445.3,138,445.8,138.9,446.2,139.8z M456.5,151.5c1,1.6,4.3,0.2,4.8-1.1   c-0.5-0.2-1.1-0.5-1.5-0.7c-1,0.4-1.8,0.7-2.6,1.1c-0.1-0.9-0.2-1.8-0.4-2.7C455.3,149,455.6,150.4,456.5,151.5z M447.7,132.7   c3.2,0.3,6.3,0.4,9.1,1.7c0.4,0.2,1.1,0.3,1.3-0.5c-3.9-3.3-10.3-3.4-14.7-0.2C445.3,134.1,446.5,133,447.7,132.7z M466.3,151.5   c2.8-2.1-0.3-4.3-1.7-6.2c-0.5,1.8,1.2,2.5,1.4,3.8c-1.1,0.9-2.2,1.3-2.7,2.8C464.5,151.7,465.5,151.6,466.3,151.5z" />
	<path fill="#977264" d="M440.1,160.4c1.9,1.1,4.1,1.6,5.4,3.5c-0.3,0.1-0.6,0.1-1.2,0.2c2.4,2.8,5.9,4.3,8.8,6.6   c-1.4,3.7-0.2,8.3-0.8,12.3c-7.2-4.1-12-10.7-17-17.1c0,2,0,3.5,0,5.1c-4.1,3.9-4.2,10.2-9.5,13.1c-1.2,0.6-1.6,1.8-1.5,3.2   c-1.5-2.6-1.9-5.5-3-8.2c10.7-4.7,9.8-17.8,10-27.9c0.3,0,0.6,0.1,1,0.1c0.6,3.2,2.3,7.2,5.8,7.9l0,0   C437.7,160.1,439.6,162,440.1,160.4z" />
	<path fill="#92909F" d="M433.8,118.5c5.1-7.6,17.6-11.8,25.4-6c-8.4-0.2-17.7,1.5-22.7,8.8C435.6,120.4,434.7,119.5,433.8,118.5z" />
	<path fill="#8C868F" d="M433.8,118.5c0.9,1,1.8,1.9,2.7,2.9c-2.7,4.5-5.6,8.9-6.2,14.3c-1-0.3-2.1-0.3-2.5-1.3   C428.9,128.8,430.1,123,433.8,118.5z" />
	<path fill="#362622" d="M431.8,141.3c-0.7,1.6,1.8,2.8,0.8,4.2c-0.8-0.2-1.6-0.4-2.2-0.6c0,1.4,0,2.7,0,3.9   c-0.4-0.5-0.8-0.9-1.3-1.4c0.8-1.4-1.5-2.8-2-4.2l0,0.1c1.3-0.9,0.6-3.5,2.8-3.4l0,0c-0.3,1-1.2,1.8-0.9,2.9   c0.3,0.2,0.7,0.4,1.1,0.6c0.3-0.8,0.5-1.4,0.8-2C431.2,141.4,431.5,141.3,431.8,141.3z" />
	<path fill="#281D19" d="M435.2,157c-2-1.5-2.4-3.7-2.9-6c-0.3,0-0.7-0.1-1-0.1c-0.1-0.5-0.1-0.9-0.2-1.4c0.7-0.3,1.4-0.6,2.1-0.8   c1.1,2.5,1.2,5.7,2.8,8.2C435.8,157,435.5,157,435.2,157z" />
	<path fill="#3D352F" d="M428.4,135.1c0.7,0.2,1.3,0.4,2,0.5c0.5,1,0.9,2,1.4,3c-1,0.1-1,0.1-0.5,1.2c-0.5,1-1,0.1-1.5,0l0,0   c0.1-1.6-1.6-2.1-2.8-2.8C427.5,136.4,428,135.7,428.4,135.1z" />
	<path fill="#7E6054" d="M427,137c1.2,0.7,2.9,1.2,2.8,2.8c-2.2-0.1-1.5,2.6-2.8,3.4C427.1,141.2,425.5,138.9,427,137z M427.4,139.4   l-0.1,0.2l0.2,0L427.4,139.4z" />
	<path fill="#8C6A5D" d="M433.2,148.7c-0.7,0.3-1.4,0.6-2.1,0.8c-0.3-0.2-0.5-0.5-0.8-0.7c0-1.3,0-2.5,0-3.9   c0.6,0.2,1.4,0.4,2.2,0.6C432.4,146.6,432.5,147.7,433.2,148.7z" />
	<path fill="#634B41" d="M427.1,143.2c0.6,1.4,2.8,2.7,2,4.2C427.9,146.5,425.7,144.7,427.1,143.2z" />
	<path fill="#1E1A18" d="M431.1,155.6c-0.2,2.8,0.5,5.7-0.6,8.3C430.8,161.1,429.8,158,431.1,155.6z" />
	<path fill="#67574E" d="M437.9,124.7c0,0.8,0.4,1.6-0.6,2.1C436.6,125.3,436.6,125.3,437.9,124.7z" />
	<path fill="#707878" d="M398.8,106.6c0.7-1,0.5-1.3,1.3-1.4C400.5,106,400,106.2,398.8,106.6z" />
	<path fill="#3D352F" d="M434.7,137.9c-0.3,0.7-0.9,0.7-1.5,0.6C433.5,137.7,434.1,137.8,434.7,137.9z" />
	<path fill="#3D352F" d="M433.2,138.5c-0.4,0.7-0.9,0.9-1.5,0.1C432.3,138.6,432.8,138.6,433.2,138.5z" />
	<path fill="#3D352F" d="M427.8,134.3c0.2,0.3,0.4,0.5,0.6,0.8C428.2,134.8,428,134.6,427.8,134.3z" />
	<path fill="#EAA388" d="M451,352.6c-5.2,6.9-4.4,15.9-6.4,24c-3.7,20.3-8,40.6-12.8,60.7c-0.6,0.3-0.8,0.7-0.7,1.3l0,0   c-3.7,10.7-7.8,21.9-13,32.3c-2.4,9.1-0.3,18.9-3.9,27.8c-5.8,16.6-9.6,33.6-11.3,51.1c-0.6-0.7-1.1-1.2-1.6-1.8   c-2.5,0.4-4.7,1.9-7.1,1.1c0.6-11.2,3.2-21.9,3.3-33.3c-1,1.1-1.7,1.8-2.7,2.9c-1.2-21.7-0.5-42.1,9-62.3c2.9,3,0.7,7.4,4.6,9.5   c3-6.7,0.9-14.7-0.3-21.8c2-15,2.8-30.1,3.2-45.2c2-22.3-1.2-44.9,4.8-66.8c22.3,2.3,47.3,7.4,69.4-0.6c5.8,22.6,7.9,46.4,8,69.8   c0.2,14.8-4.2,29.4-0.9,44.1c-2.3,18.2,3,36.6,2.1,55c0.6,14.7-2.5,29.2-1.5,43.8c-3.7,1.9-4.7,1.4-6.5,5.4   c-1.1-0.1-2.2-0.2-3.5-0.3c-1.6-14,3.5-34.6-4.2-46.2c-0.5,3.9,1,9-0.5,11.7c-3.6-16.3-11.4-33.5-5.2-50c2,1.8,2.9,4.1,4.3,5.9   c-1.5,2.6,0.2,4.5,2,6.4c0-1.3,0-2,0-2.8c2.1,0.8,1.5,2.9,3.5,4c0.8-12.1-10.1-20.1-13-31.1c-5.5-24.8-4.4-49.8-4-74.7   c-2.5,1.1-2.8,3.8-3.9,6c-4-7.9-0.4-21.5-7.1-27.9c0.2-0.8,1.3-1.4,0.5-2.4c-1.4,0.2-1.6,1.7-2.6,2.5   C452.1,350.9,451.3,351.5,451,352.6z M439.4,348.4c0.1,0.1,0.3,0.2,0.4,0.3c-3.2-2.4-6.9-6.1-11.2-6.5   C432.2,344.1,435.4,347.4,439.4,348.4z M418.2,429.7c-1.3-2.4-2.3-4.2-4.8-0.8c-0.9,5.1,4.3,6.5,6,10.4c0.4,0.2,0.8,0.5,1.6,0.9   C420.6,436.3,420.7,432.8,418.2,429.7z M480.3,442.8c1.1,1.7,2.5-1.5,0.8-2.1c-0.8-0.3-0.7-1.1-0.7-1.7c-0.1-2.4-1.4-4-3.6-4.9   C469,433.1,474.9,444,480.3,442.8z M415.6,474c-2.2,2.4-3.4,5.5-3.3,9.2C414.3,480.7,416.8,476.8,415.6,474z M484.2,437.5   c2.7-2.2,3.4-4.3,2.8-7.6C485.4,432.3,484.8,434.9,484.2,437.5z M410.9,489c1.4-2.1,1.5-2.4,0.2-4   C409.9,486.3,410.3,487.6,410.9,489z M481.5,484.8c0.3-2.5-0.1-3.2-2.2-3.7C479.9,482.6,480,484,481.5,484.8z M408.9,494.2   c-1.4,1.2-1.4,1.4-0.3,3.3C409.6,496.4,409.5,495.4,408.9,494.2z M440.3,353.8c0.1-0.2,0.2-0.4,0.3-0.7c-1.8-0.8-2.8-2.1-5-1.8   C437.4,352.6,438.7,353.4,440.3,353.8z M481.7,489.4c0.2-1,0.2-1.7-1-1.9C480.7,488.5,480.9,488.7,481.7,489.4z M481.8,492.5   c-0.5,0.5-0.9,0.9-0.3,1.3C482.4,493.6,482.4,493.4,481.8,492.5z" />
	<path fill="#F5DDCE" d="M468.8,211.7c8.7-5.8-1.1-15.9-2.9-22.9c11.4,10,25.3,28.8,25.4,44.4c-6.7,9.8-18.3,1.9-27.6,3.2   c-0.7,2,1,3,1.4,4.4c-0.5,0.2-1,0.4-1.5,0.6c0.1,2.3,4.4-0.4,4.7,2.2c3.5,2.9,9.6,1.8,14.1,2.1c0.9-0.2,2.2-1.2,2.9,0   c-1.2,0.8-2.5,1.6-4,2.5c-8.7,49.6-11.9,28.4,4.1,80.4c-21.4,8.5-46.1,3.7-68.5,1.3c2.2-6.2,1.5-14.6,6.7-19.1   c3.8,4.4,4.5,11.6,9.4,15.5c0.3-13.2-10.3-25.9-9.4-39.5c-1.5-11.7-1.2-38.8,14.2-40.4c3.8-4.7,10.9-2.5,15.3-6.2   c2.4,0,5.1-3.4,4.7-5.8c-12.3,2.2-30.6,2.5-37.5-9.7c-3.3,0.1-6-1.1-8.1-3.4c-1.3,0.5-1.3,0.5-2.1-0.2c7.9-11.3,11.6-25.7,5.3-38.5   c1-1.7,2.4-2.5,4.2-3.2c3.3,7.7,4.7,16.4,10.7,22.6C439.9,211.2,455.8,217.5,468.8,211.7z M455.4,276.9c-2.6,7.8-2.2,18.2,0.3,26.3   C455.1,294.3,458.4,285.2,455.4,276.9z M473,321.5c2.4-2.5,3.6-6.2,3-9.1C474.2,314.1,473.1,318.8,473,321.5z M470.1,293.8   c0.6-2.1,0.3-4.1-1.3-6.4C468.6,290,469.7,291.8,470.1,293.8z M468.5,281.8c-2,0.6-1.3,2.6,0.2,3.6   C468.9,283.9,469.3,282.8,468.5,281.8z M471.4,324.6c-1,0.6-1.4,1.1-1,2C471.5,326.3,471.7,325.7,471.4,324.6z M469.2,328.9   c-0.9,0.3-1.5,0.8-1.2,1.9C469.1,330.4,469.6,329.9,469.2,328.9z M468.6,274.4c-1,1,0,2,0.7,1C469.1,275.1,468.8,274.8,468.6,274.4   z M468.8,271.2c-0.1-0.2-0.2-0.4-0.2-0.6c-0.5,0.2-0.4,0.5-0.2,0.9C468.5,271.5,468.6,271.3,468.8,271.2z M468.7,280   c-0.1-0.1-0.2-0.3-0.3-0.4c-0.4,0.2-0.1,0.5,0,0.8C468.5,280.3,468.6,280.1,468.7,280z" />
	<path fill="#B28C7D" d="M393,374.3c-0.9-4.5-0.9-8.6-5.5-11.3c1.2,4.2,5.1,7.8,3.8,12.5c-2.7-3.7-3.5-8.2-6.5-11.5   c-0.7-13.9,1.7-27.8-0.7-41.5c-1.3-16.6-8.2-37.8,1.2-52.7c2,2.6,3.5,7.1,6.8,7.8c0.3-1.8-0.1-4.3-1.8-5.1   c-0.2-0.7-0.5-1.4-0.7-2.1l0,0c1.9-1.2-0.7-2.7-1.4-4c0.1-0.6,0.1-1.2-0.7-1.4l0,0c-4.4-12-0.9-25.7,2-37.8l0,0   c1.1-0.2,2,1.3,3.4,0.3c0.3-4.1-2.7-7.7-2-12c-3.2-8.1-0.8-16,3.4-23.3c6-3.7,13.2-4.7,19.4-8.8c5.4,11.9,2.3,25.9-5.2,36.1   c-0.3-0.5-0.6-0.8-0.9-1.3c-2.7,1.7-2.2,4.8-2.3,7.5c-0.5,11.4-1.5,22.8-4.9,33.8c-2.1,25.1-6.3,49.3-7.9,73.7   c-0.3,0.4-0.7,0.8-1,1.1c0,0.8,1.2,1.1,0.5,2.2c0,3.9,6.7,10.1,9.5,13.2c1.8,5.1,0,11,2.3,15.9c0.5,0.8,0,1.3-0.7,1.6   c-4.2-0.8-2.2-5.7-3.7-8c-0.4-1,0.6-2.2-0.8-2.7l0,0c0.1-0.6,0.1-1.2-0.7-1.4l0,0c-0.2-0.2-0.4-0.5-0.6-0.7c-0.9,0.4-1.1,1.5-0.1,2   c0.3,1-0.5,2.1,0.7,2.7c-0.4,5.1,1.5,10,2.2,15c-2.9,0.5-3.5-3.5-3-5.3c-0.9-1.8-1.6-3.3-2.3-5c-0.5,0.1-1,0.1-1.7,0.2   c1.9,3.6,2.8,6.8,1.9,10.8C393.9,374.8,393.4,374.6,393,374.3z M390.1,331.5c0.4,0.2,0.7,0.3,1,0.4   C391.7,330.8,390.8,330.4,390.1,331.5z M391.4,360.1c-0.2,0-0.3,0-0.5,0C391,361.4,391.4,361.4,391.4,360.1z" />
	<path fill="#D69479" d="M416.1,332c-6,21.9-2.8,44.5-4.8,66.8c-0.4,15.1-1.1,30.2-3.2,45.2c1.2,7,3.2,15.1,0.3,21.8   c-3.8-2.1-1.6-6.5-4.6-9.5c-9.5,20.2-10.1,40.7-9,62.3c1-1,1.7-1.8,2.7-2.9c-0.1,11.3-2.7,22-3.3,33.3c0.6,0.2,1,0.3,1.4,0.4   c-0.9,0.5-1.7,1-2.6,1.6c-0.6,2.2-1.2,4.3-1.7,6.5c0.1-27.8-8-60.1,1.4-88.5c16-27.6,6.3-53.9,5.5-83.5c7.4-3.2,2-11.5,2.2-17.2   c1.7-0.1,3.3,0,4.7-1.2c-0.6-25.9-11.9-18.8-6.9-35C404.2,331.8,410.2,331.1,416.1,332z" />
	<path fill="#E6CCBB" d="M409.9,221.1c0.8,0.6,0.8,0.6,2.1,0.2c2.1,2.3,4.7,3.5,8.1,3.4c6.9,12.2,25.2,11.8,37.5,9.7   c0.4,2.5-2.2,5.8-4.7,5.8c0-0.4,0.1-0.8,0.1-1.2c-1.2-0.2-1.8,0.1-2.2,1.4c0.9-0.1,1.5-0.1,2.1-0.2c-0.8,1.1-2.1,1.1-3.3,1.5   c-9.3-1.7-22.2,3-29.2-6.5c-2.1-2.4-2.3-5.3-5.9-7.4c4.5,12.6,14.2,16.8,26.9,16c-1.4,0.6-2.6,0.9-3.8,2.6   c-15.3,1.6-15.7,28.7-14.2,40.4c-0.9,13.6,9.8,26.3,9.4,39.5c-1-0.9-2.1-1.4-2.3-2.8c0.3,0,0.6,0.1,1.2,0.2c-0.4-1.2-0.6-2.1-2-2.8   c0,0.6,0,1,0,1.4c-1.7-2-3-4.7-3.4-7c0.4-0.2,0.7-0.4,1-0.6c-0.3-1-0.2-2-1.8-1.9c0,0.5,0,0.9,0,1.3c-1.1-1-0.9-2.7-2.2-3.3   c-5.2,4.6-4.5,13-6.7,19.1c-5.8-0.1-11.6-0.2-17.6-0.3c31.4-71.3,5.9-49,7.7-106C407.9,222.9,408.9,222,409.9,221.1z M413.5,223.7   c-1.1,1.5-0.2,2.6,1.1,2.2C414.6,224.7,414.3,224.6,413.5,223.7z M424.9,308.2c-0.1,0-0.3,0-0.4,0c0,0.5,0,1.1,0,1.6   c0.1,0,0.3,0,0.4,0C424.9,309.3,424.9,308.8,424.9,308.2z M455,238c-0.1-0.2-0.2-0.2-0.4,0C454.7,238.2,454.8,238.2,455,238z" />
	<path fill="#B28C7D" d="M500.2,331.3c0,8.2,2.8,15.4,6.6,22.6c-0.8,5.7-0.1,12.1-4,16.9c-0.2-0.4-0.4-0.9-0.6-1.3   c0-0.2,0.1-0.4,0.1-0.6c0.9-0.5,0.7-1.3,0.6-2.1l0,0c1.9-2.9-0.7-7.3-0.8-10.5c-1-1.1-1.8-2.1-2.6-3c-5.8,2.3,1.2,7.4-2.9,10.9   c-9.2-14.4,2.2-29.7-4.4-44.4c-0.5,0.1-0.9,0.1-1.3,0.2c-3.2-16.6-12.9-31.9-8.1-49.3c1.2,1.3,2.8,1.2,4.4,1.2   c1.1,1,2.1-1.7,0.1-1.4c-3.9-5.9-3.6-13.7-4.2-20.6c1.4-1,2.6-2,4.3-2.3c1.9-0.6,2.6-2.8,4.6-3.7c-0.5,14.2,4.6,27.5,6.7,41.3   C500.6,300.5,497.8,316,500.2,331.3z M490.8,265.8c1.7-2.2,1.8-3.7,0.5-5.4C490.5,262.4,490.4,262.5,490.8,265.8z M489.6,266.2   c-0.6,1.5-1.4,2.5,0,3.8C490.3,268.7,490.9,267.8,489.6,266.2z" />
	<path fill="#B28C7D" d="M424.3,187.1c-0.1-1.4,0.3-2.5,1.5-3.2c5.2-2.8,5.4-9.2,9.5-13.1c0-1.5,0-3.1,0-5.1c4.9,6.4,9.8,13,17,17.1   c0.3,0.8,0.6,1.6,0.9,2.5c0.7-0.4,0.9-1.4,1.8-1c2.1,2.1,4.9,2.7,7.5,3.5c4.2,6,7.1,13.1,8.1,20.4c-0.9,1.1-2.7,1.5-2.5,3.3l0.1,0   c-3.3,0-6.5,0-9.9,0c-0.8-2.1-0.7-4-3-5.4c0.4,2,0.7,3.7,1.1,5.3C441.5,211.2,428.3,201.5,424.3,187.1z M427.6,187.2   c2.8,1.4,3.7,1.5,5.9,0.8C431.5,186.6,429.4,185.5,427.6,187.2z M439.2,189.3c-0.9-1.2-0.9-1.2-2.6-0.2   C437.5,189.9,438.3,190.1,439.2,189.3z M441.6,189.1c0.8,1.1,0.8,1.1,2,0.1C442.8,189.1,442.3,189.1,441.6,189.1z" />
	<path fill="#977264" d="M390.1,276.6c-2.2-1.8-3.4-4.4-5-6.7c-8.8,13.7-3.2,32.5-1.8,47.7c2.9,15,1.2,30,1.3,45.3   c-0.4-0.5-0.9-1-1.3-1.5c0.8-20.1-1.4-39.1-5.9-58.9c-3.9-17.4,5.1-33.6,4.4-51.1c0.9-11.1,4.9-22.2,4-33.2   c-1.2-9.3-0.5-20.6,8.4-25.9c-4.2,7.3-6.7,15.2-3.4,23.3c-0.7,4.3,2.3,7.9,2,12c-1.4,1-2.3-0.5-3.4-0.3c0-1.2,0-2.4,0-3.5   c-0.5-0.5-0.9-0.8-1.3-1.2c-0.1-0.7,0.2-2.4-1-1.8c-0.5,0.9-0.7,2.1,0.1,2.7c1.4,1.2,0.6,2.8,2.2,3.8c-3,12.2-6.4,25.8-2,37.8   C385.2,268.1,391.7,270.3,390.1,276.6z" />
	<path fill="#977264" d="M487.2,271.9c-1.6,0-3.2,0.1-4.4-1.2c-4.8,17.5,4.9,32.8,8.1,49.3c0.4-0.1,0.7-0.1,1.3-0.2   c2.8,2.9,1.7,7.2,1.9,10.9c-0.4-0.2-0.8-0.3-1.2-0.5c-0.3,0.8-0.2,1.1,0.1,1.8c0.4,0,0.7,0,1.1,0c0,0.5,0,1.1-0.1,1.6   c-3.3-0.7-2.3-6.2-3.6-8.9c-3.4-13.8-10.9-26.3-12.2-40.6c-1.9-5.4,0.8-10.4,1.5-15.7c2-4.9,1.1-10.4,3.2-15.1   c1.4,5.7,0.4,12.3,4.2,17.2C487.2,270.9,487.2,271.4,487.2,271.9z" />
	<path fill="#E6CCBB" d="M472.5,245.1c-1-0.1-2.2,0.5-3.1-0.5c0.5-0.1,1.1-0.2,1.6-0.3c0-0.1,0-0.3,0-0.4c-0.7-0.1-1.4-0.3-2.1-0.4   c0,0.5,0,0.7,0,0.9c-1.1-0.6-0.8-2.2-2.3-2c-1-1-1.3-1-2.4-0.1c-0.5,0-0.8-0.2-0.7-0.9c0.5-0.2,1-0.4,1.5-0.6   c-0.4-1.4-2.1-2.4-1.4-4.4c9.3-1.2,20.9,6.6,27.6-3.2c0.1-1.2,0.1-2.6,0.2-3.9c2,6.2,0.3,13.8-6.3,16.5c-0.7-1.2-1.9-0.3-2.9,0   c-0.1-0.3-0.2-0.6-0.4-1C478.9,244.7,475,243.5,472.5,245.1z" />
	<path fill="#B08B7C" d="M480.5,203.4c-2.2-4.1-4.1-7.5-7.7-10.8c13.6,1.8,20.9,17,18.6,29.3C487.6,215.8,484.4,209.4,480.5,203.4z" />
	<path fill="#140F0D" d="M494.2,357.8c0.8,2.2,1.7,4.1,2.4,6.4c4.1-3.5-2.9-8.6,2.9-10.9c3.9,3.1,3.6,8.8,3.5,13.6   c-3.5-2.6,1.1-10.5-4.5-11.2c3.6,6.3,3.8,10.7-1.1,15.9c-0.4,0-0.9,0-1.3,0l0,0c-0.5-4.2,5.2-5.9,3-10.3c-0.3,1.3-0.6,2.7-0.9,4.1   c-0.9,0.3-1.7,1.4-2.7,0.7c0.1-2.3-0.5-4.3-2-6.1c-1.1-0.5-0.7-1.4-0.7-2.3C493.3,357.2,493.6,359.2,494.2,357.8z" />
	<path fill="#EEEEEE" d="M487.2,320.4c1.7,8.4,7.3,17.4,3.9,25.9c-1.6-8.5-3.1-16.1-4.6-24.3C486.7,321.5,486.9,320.9,487.2,320.4z" />
	<path fill="#201713" d="M401.8,348.9c3.2,5.4,1.5,12,3.3,18.2c-1.3,1.2-3,1.1-4.7,1.2c0.2-0.6,0.5-1.1,0.7-1.7   c0.5,0.2,1,0.4,1.6,0.6c0.7-0.4,1.1-0.8,0.7-1.6c-2.3-5-0.5-10.8-2.3-15.9C401.4,349.5,401.6,349.2,401.8,348.9z" />
	<path fill="#D6D8D8" d="M487.2,320.4c-0.2,0.5-0.5,1.1-0.7,1.6c-2-5.7-4.8-11.2-6.2-17.1c0.3-0.3,0.5-0.6,0.8-1   C483.3,309.3,485.6,314.7,487.2,320.4z" />
	<path fill="#2C2623" d="M480.5,203.4c2.5,4.1,5.2,8.1,7.3,12.5c-0.2,0.4-0.4,0.9-0.6,1.3c-2.5-4.3-5.6-8.4-7.5-13   C479.9,203.9,480.2,203.6,480.5,203.4z" />
	<path fill="#BDBDBD" d="M481.1,304c-0.3,0.3-0.5,0.6-0.8,1c-1.4-2.9-2.1-6-2.4-9.2c0.2,0,0.5,0,0.7,0   C479.8,298.3,480.6,301.1,481.1,304z" />
	<path fill="#D8DADA" d="M495.5,366.1c1,0.7,1.8-0.4,2.7-0.7c0,0.3,0.1,0.5,0.1,0.8c-1,1.8-2,3.5-2.9,5.4c0,0,0,0,0,0   c-0.2,0-0.4,0-0.6,0c-0.1-1.1-0.1-2.1-0.2-3.2C495,367.6,494.4,366.6,495.5,366.1z" />
	<path fill="#979999" d="M477.5,294.4c-1.1-2.4-1.3-4.9-1.3-7.5c0.2-0.2,0.5-0.5,0.7-0.7c0.5,2.7,0.9,5.4,1.4,8.2   C478,294.4,477.8,294.4,477.5,294.4z" />
	<path fill="#949595" d="M495.5,366.1c-1.1,0.4-0.5,1.5-0.8,2.2c-1-2.6-0.7-5.5-1.2-8.3C495,361.8,495.5,363.9,495.5,366.1z" />
	<path fill="#342723" d="M456.3,211.6c-0.3-1.7-0.7-3.4-1.1-5.3c1.6,1.1,2.4,2.4,2.5,4.1C457.3,210.8,456.8,211.2,456.3,211.6z" />
	<path fill="#5C6060" d="M476.9,286.2c-0.2,0.2-0.5,0.5-0.7,0.7c-1.1-1.4-0.5-3-0.4-5.1C476.5,283.6,477.2,284.8,476.9,286.2z" />
	<path fill="#342622" d="M491.4,221.9c0.2-0.4,0.5-0.9,0.7-1.3c0.7,1.4,0.7,1.4,0.4,3.8C491.1,223.9,491.3,222.8,491.4,221.9z" />
	<path fill="#D69479" d="M419,332.6c-0.8,0-1.7,0.4-2.2-0.5C417.6,331.9,418.4,331.9,419,332.6z" />
	<path fill="#BEC2C2" d="M477.5,294.4c0.3,0,0.6,0,0.8,0c0.1,0.4,0.1,0.9,0.2,1.3c-0.2,0-0.5,0-0.7,0   C477.7,295.3,477.6,294.9,477.5,294.4z" />
	<path fill="#B28C7D" d="M468.8,211.7c-0.3,0.1-0.5,0.3-0.8,0.4c0-0.2,0-0.4,0.2-0.5l-0.1,0C468.3,211.6,468.5,211.6,468.8,211.7z" />
	<path fill="#F7EFD0" d="M390,567.7c2.9-4.6,4.4-9.8,5.1-15.3c1.7-0.8,3.5-1.5,5.6-1.7c2.4,2.3,4,5.3,7,6.9c3,10,8.1,20.4,14.9,28.3   c2.1,1.8,2.7,4.1,1.6,6.7c-4.8,0.3-9.4-1.9-14,0.5c-4.3,1.8-8.9,0.4-13.4,0.1c-1.1-0.9-3-0.1-3.8-1.5c-0.4-2.9-0.5-5.7-3.7-6.5   C389.2,579.1,389.7,573.4,390,567.7z M397.5,567.9c3-4.6,9.6-3.4,10.4-6.5C405,559.8,393,564.2,397.5,567.9z M409.9,569.1   c-3-0.3-12.1,2.2-9.7,5.6c3.1-1.4,6.2-2.9,9.6-3.9C409.9,570.4,409.9,570,409.9,569.1z M409.1,566.6c-3-4.1-13.9,0.4-9.9,5.2   C401.3,567.2,404.6,567.7,409.1,566.6z M402.3,578.9c6.7-2.3,7.5-2.8,8.5-4.7C409.4,572.7,401,576.3,402.3,578.9z M412.8,579.4   c-1.4-2.9-7.3,0.3-8.8,1.8c0.3,0.4,0.6,0.7,1,1.1C407.7,581.4,410.6,581.3,412.8,579.4z" />
	<path fill="#EADCB7" d="M390,567.7c-0.4,5.7-0.8,11.4-0.6,17.4c3.1,0.8,3.2,3.6,3.7,6.5c0.8,1.4,2.7,0.6,3.8,1.5   c4.4,0.2,9.1,1.7,13.4-0.1c4.6-2.4,9.2-0.2,14-0.5c0,0.3-0.1,0.7-0.1,1c-3.4-0.2-6.8-0.4-9.8-0.6c-2,1.2-5.5,2.7-2.3,4.4   c-6.5,1.6-13.8,0.7-20.1-0.9c-1.1-2.3-0.6-5.1-1.9-7.4c-1.7,0.5-0.7,2-1.6,2.7c-1.3-0.2-2.8-0.5-4.2-0.8c3-8.2,2.1-16,2.3-24.3   C387.8,567.5,388.5,567.9,390,567.7z" />
	<path fill="#181210" d="M395,372.2c0.2-2.8-1-5.2-2.3-7.9c0.7-0.1,1.2-0.1,1.7-0.2c0.8,1.6,1.5,3.1,2.3,5   c-0.6,3.8,1.1,8.1,2.8,11.5c-0.2,0.3-0.5,0.5-0.7,0.8C396,379.1,396.3,375.3,395,372.2z" />
	<path fill="#D3D1AE" d="M412,597.2c-1-0.8-2.2-1.5-0.6-2.6c-0.3,3,2.7,0.8,4.1-0.1c2.3,0.2,5,0.5,8.2,0.8   C419.8,597.5,416.2,596.7,412,597.2z" />
	<path fill="#89685B" d="M395,372.2c1.3,3.1,0.9,6.8,3.9,9.1c-0.1,0.6,0.3,1.2-0.3,1.7c-2.8-2-4.9-5.4-5.7-8.7   c0.5,0.2,0.9,0.5,1.7,0.8C394.8,374,394.9,373.1,395,372.2z" />
	<path fill="#8B695D" d="M399.6,380.6c-1-2.5-2.8-4.7-2.6-7.6c0.7,0.8,1.4,1.7,2.7,1.4c0.8,1.9,1.7,3.8,1.2,6.1   C400.4,380.5,400,380.5,399.6,380.6z" />
	<path fill="#7C5D51" d="M390.9,559.3c0.2,2.2,0.2,3.6-1.1,5.1C389.1,562.6,389.1,561.2,390.9,559.3z" />
	<path fill="#75564C" d="M396.9,356.6c-1-0.5-0.8-1.6,0.1-2c0.2,0.2,0.4,0.5,0.6,0.7C397.4,355.7,397.2,356.2,396.9,356.6z" />
	<path fill="#75564C" d="M398.3,356.6c1.1,0.4,0.8,1.3,0.7,2.1C398.2,358.2,398.4,357.4,398.3,356.6z" />
	<path fill="#75564C" d="M397.6,359.4c-0.8-0.5-0.7-1.3-0.6-2.1C397.8,357.8,397.7,358.6,397.6,359.4z" />
	<path fill="#302826" d="M429.8,442.7c0.2-0.5,0.4-1,0.6-1.5c0,0.5,0.1,1,0.1,1.5C430.3,442.7,430,442.7,429.8,442.7z" />
	<path fill="#75564C" d="M397.6,355.3c0.8,0.2,0.8,0.7,0.7,1.4C397.6,356.4,397.6,355.9,397.6,355.3z" />
	<path fill="#75564C" d="M399.1,359.3c0.7,0.3,0.7,0.9,0.5,1.5C399.4,360.3,399.3,359.8,399.1,359.3z" />
	<path fill="#D69479" d="M451,352.6c0.3-1.1,1.1-1.7,2-2.2c0.1,0.4,0.2,0.7,0.3,1.3c0.7-0.5,1.2-0.9,1.8-1.3   c6.7,6.4,3.1,20,7.1,27.9c1.2-2.1,1.4-4.8,3.9-6c-0.4,24.9-1.5,49.9,4,74.7c2.9,11,13.8,19,13,31.1c-2-1-1.4-3.2-3.5-4   c-0.5-0.6-1-1.3-1.7-2.1c-0.3,0.9-0.4,1.2-0.3,2.1c-1.4-1.1-0.4-2.2,0-3.6c-1.4-1.8-2.4-4.1-4.3-5.9c-6.2,16.5,1.6,33.7,5.2,50   c1.5-2.7,0.1-7.8,0.5-11.7c7.7,11.6,2.6,32.2,4.2,46.2c1.3,0.1,2.4,0.2,3.5,0.3c-1.9,1-3.7,0.5-5.6,0c-1.5-8-2.3-16.2-3.4-24.2   c-1.9-13.1-8.9-24.7-10.4-38c-2.6-11.5,2.4-22.9,0.1-34.2c-5.9-26.9-16.7-53.4-20-80.7c1.4-5.7,1.6-11.7,3.7-17.2   C451.3,354.2,452.2,353.2,451,352.6z" />
	<path fill="#F7EFD0" d="M505.7,563.8c9.4,14.1,18.3,9.8,16.2,16.9c-7.9-1.2-14.9,4.9-22.6,2.1c-3.9-1.6-8.5,0.8-11.5-2.9   c-3.3,1.1-7.3,2.5-10-0.5c-0.4-7.9-1.8-16.6,0.6-24c0.6,1.1,1.2,2.2,1.8,3.3c10.5,2.9,5.2-16.5,17-11c1.2,2.7,1.1,5.6,1.9,8.5   c-2.8,1-14.4,0.6-11.1,5.5c2.4-1.2,5.2-3.5,8.1-1.6c-1.9,1-6.6,2.3-3.9,5c3.4-2.8,7.3-3.7,11.4-4.2c0.1,0.4,0.1,0.8,0.2,1.4   c-2.4,0.9-10.9,3.2-7.4,6.5C499,566.5,502.6,565.7,505.7,563.8z M500.8,572.2c2.5-0.9,5-2,7.2-4.4c-0.6-0.4-1.2-1-1.4-0.9   C504.9,568.3,498.1,569.2,500.8,572.2z M509.9,570.8c-2.8-0.6-4.1-0.3-5,2C507,573.7,510,573,509.9,570.8z" />
	<path fill="#EADCB7" d="M478.4,555.5c-2.4,7.4-1,16.1-0.6,24c2.8,2.9,6.7,1.6,10,0.5c3,3.7,7.6,1.3,11.5,2.9   c7.7,2.7,14.7-3.3,22.6-2.1c0.1-0.9,0.2-1.5,0.3-2.2c0.6,1.9,1.2,3.9,1.7,5.6c-9,6.5-23.5,6-33.3,1.1c-2.1-1-4-1.4-6.2-0.6   c-4.2,1-8.5-0.9-12.7-1.7c4.4-9.7,1.2-19.9,4.9-30C477.8,553.4,478.4,554.3,478.4,555.5z M511.6,586.3c3.2-2.4,6.7-2.5,10.5-2.8   C522.5,579.9,508.7,582.1,511.6,586.3z" />
	<path fill="#16110F" d="M505.7,563.8c-3,1.9-6.6,2.6-9.3,5.1c-3.4-3.3,5.1-5.5,7.4-6.5c-0.1-0.5-0.1-1-0.2-1.4   C504.3,562,505,562.9,505.7,563.8z" />
	<path fill="#9A7568" d="M481.1,551.8c1.9,0.1,3.4,0.2,5.1,0.3c-0.5,2.3-2,4.7-4.3,4.7C479.9,555.4,481.1,553.7,481.1,551.8z" />
	<path fill="#C2C6AD" d="M496.1,560.2c-0.9-0.6-1.8-0.6-2.8-0.6c2.2-1,4.6-0.8,6.9-1.2c0,0.2,0,0.4,0,0.7   C499,559.9,497.5,559.9,496.1,560.2z" />
	<path fill="#C4D4B9" d="M500.3,559c0-0.2,0-0.4,0-0.7c0.4-0.3,0.8-0.3,1.2,0C501.1,558.9,500.9,559.2,500.3,559z" />
	<path fill="#302826" d="M431.9,437.3c0.2-0.7,0.4-1.4,0.6-2.1C432.5,435.9,432.9,436.8,431.9,437.3z" />
	<path fill="#302826" d="M430.5,440.7c-0.1-0.8-0.1-1.5,0.6-2.1C431.2,439.4,431.4,440.2,430.5,440.7z" />
	<path fill="#302826" d="M431.2,438.6c-0.1-0.6,0.1-1.1,0.7-1.3C431.9,437.9,431.8,438.4,431.2,438.6z" />
	<path fill="#5E4940" d="M499.6,368.9c2.7-5.8,1.8-7.4-1.1-13.3c5.5,0.7,1,8.6,4.4,11.2c0.1,0.8,0.3,1.6-0.6,2.1   c-0.1-0.4-0.2-0.8-0.3-1.5c-0.7,0.9-1.3,1.5-1.8,2.1C500,369.4,499.8,369.2,499.6,368.9z" />
	<path fill="#856559" d="M499.6,368.9c0.2,0.2,0.4,0.4,0.6,0.7c-0.5,1.3-1,2.7-1.5,4c-0.2,0-0.4,0.1-0.7,0.1   c-0.2-0.2-0.4-0.5-0.7-0.7c0-0.5,0-1,0-1.5C498.2,370.7,498.9,369.8,499.6,368.9z" />
	<path fill="#775A4F" d="M502.2,369.5c0.2,0.4,0.4,0.9,0.6,1.3c-0.5,1.3-1.2,2.3-2.3,3.7C500.3,372.2,501.2,370.8,502.2,369.5z" />
	<path fill="#533E36" d="M498.1,373.7c0.2,0,0.4-0.1,0.7-0.1c-0.1,1.1,0.3,1.8-0.4,2.8C497.1,375.7,497.8,374.8,498.1,373.7z" />
	<path fill="#483C3A" d="M497.4,371.6c0,0.5,0,1,0,1.5c-0.9,0-1.4-0.4-1.3-1.4C496.6,371.6,497,371.6,497.4,371.6z" />
	<path fill="#483C3A" d="M495.4,371.6c0.2-0.5,0.5-0.9,0.7-1.4c0,0.5,0,1,0.1,1.4C495.9,371.6,495.7,371.6,495.4,371.6z" />
	<path fill="#4F3F39" d="M466.7,139.9c-0.7,0.9-1.5,0.4-2.4,0.2c-0.2,0.8-0.4,1.6-0.5,2.4c-1.8-2-1.7-3.5,0.6-6.6   c0.2,0.6,0.3,1.1,0.5,1.6c0.2-0.1,0.4-0.2,0.5-0.3c0.2,0.3,0.5,0.5,0.7,0.8c-0.2,0.3-0.4,0.7-0.7,1.2   C465.9,139.4,466.3,139.6,466.7,139.9z" />
	<path fill="#B8C5C5" d="M466.7,139.9c-0.4-0.2-0.9-0.5-1.4-0.7c0.3-0.5,0.5-0.8,0.7-1.2c0.8,0.1,0.6,0.8,0.7,1.3   C466.7,139.4,466.7,139.6,466.7,139.9z" />
	<path fill="#8C695C" d="M388.2,370.3c1,1.7,2,3.4,3.1,5.3c0.2-0.5,0.3-0.9,0.4-1.3c0.9,1.9,1.7,3.8,2.8,6.3   C390.4,378.2,387.5,375,388.2,370.3z" />
	<path fill="#49352F" d="M385.4,365.5c0.1,1.8,1.6,3.2,1.2,5.7C385.4,369.2,383.8,367.2,385.4,365.5   C385.4,365.5,385.4,365.5,385.4,365.5z" />
	<path fill="#49352F" d="M384.7,364.1c0.2,0.2,0.4,0.5,0.7,0.7C385.1,364.6,384.9,364.3,384.7,364.1z" />
	<path fill="#49352F" d="M385.4,364.8c0.2,0.2,0.5,0.4,0.7,0.7c-0.2,0-0.5,0-0.7,0c0,0,0,0,0,0C385.4,365.3,385.4,365,385.4,364.8z" />
	<path fill="#8D6D60" d="M455.7,160.4c-0.6-0.3-0.6-0.9-0.5-1.4c4,0.3,7.7-0.2,11.5-0.7c0.2,0.2,0.5,0.4,0.7,0.5   c-0.1,1-0.6,0.5-1.1,0.4c-0.5,0.7-1.1,1.5-1.6,2.3C461.4,162.9,458.4,159.7,455.7,160.4z" />
	<path fill="#8C6F61" d="M465.4,155.6c0.1,0.3,0.3,0.6,0.4,1c-2.2,1.9-5.1,0.2-7.3,1.7c-0.2,0-0.4,0-0.6,0c-0.1-0.3-0.3-0.6-0.4-0.9   C459.7,154.9,462.5,156,465.4,155.6z" />
	<path fill="#251714" d="M465.4,155.6c-1.8,0.4-3.7-0.2-5.5,0.1c0-0.2,0-0.5,0.1-0.7c1.7,0.1,4-1,5.4-0.1   C465.4,155.1,465.4,155.4,465.4,155.6z" />
	<path fill="#150D0B" d="M463.4,157.7c1.1-0.3,2.3-0.2,3.3,0.5c-1.1,0-2.2,0.2-3.2,0.1C463.3,158.1,463.3,157.9,463.4,157.7z" />
	<path fill="#47322C" d="M449,167.9c-1.6-1.3-3.5-2-4.7-3.8c0.6-0.1,0.9-0.2,1.2-0.2c1.1,1.4,2.8,2.3,4.2,3.3   C449.4,167.4,449.2,167.6,449,167.9z" />
	<path fill="#977264" d="M449.7,167.2c-1.4-1.1-3.1-1.9-4.2-3.3c2.6,0.5,4.6,1.9,6.2,4C451,167.6,450.4,167.4,449.7,167.2z" />
	<path fill="#977264" d="M451.7,167.9c0.6,0,1.1,0,1.3,0.7C452.5,168.6,451.9,168.5,451.7,167.9z" />
	<path fill="#28211F" d="M452.5,173.4c-0.1-0.8-0.3-1.6,0.5-2.2C453,172,453.4,172.8,452.5,173.4z" />
	<path fill="#170F0E" d="M447.6,136.5c3.9,0.5,8.7-1.9,8.7,3.9c-1.8,0.3-3.6,0.4-5.3,0.3c-0.6-0.6-0.3-4.1-1.3-3   c-0.4,0.1-0.8,0.1-1.3,0.2c-0.3,0.2-0.5,0.4-0.8,0.7l0,0c-0.2,0.1-0.3,0.2-0.5,0.4c0.2,0.1,0.4,0.2,0.5,0.3l0,0   c-0.2,0.7-0.8,0.8-1.4,0.8l0,0c-0.1-0.7,0.4-1.8-1-1.9c-0.1-0.3-0.2-0.5-0.4-0.8C445.8,136.9,446.9,137.6,447.6,136.5z M453.4,138   c0,0.2,0,0.3,0,0.4C453.6,138.2,453.6,138.1,453.4,138z" />
	<path fill="#1A0D0B" d="M447.7,132.7c-1.2,0.3-2.5,1.3-4.3,1.1c4.4-3.2,10.8-3.1,14.7,0.2C457.7,135.4,450.5,132.2,447.7,132.7z" />
	<path fill="#48342F" d="M466.3,151.5c-0.8,0.1-1.8,0.2-3.1,0.3c0.5-1.5,1.6-1.9,2.7-2.8c-0.1-1.3-1.8-2-1.4-3.8   C466,147.1,469.2,149.4,466.3,151.5z" />
	<path fill="#322B26" d="M463.4,158.3c0.2,0,0.4,0,0.7,0.1c-2.7,1.2-6,0.3-8.9,0.6c-0.5-0.9-1.4-0.4-2-0.7c1-1.4,1-1.4,2.6-0.7   C458.1,158.6,460.8,158.2,463.4,158.3z" />
	<path fill="#53413A" d="M457.2,150.8c0.8-0.3,1.6-0.7,2.6-1.1c0.4,0.2,1,0.4,1.5,0.7c-0.4,1.3-3.7,2.7-4.8,1.1   C456.7,151.3,456.9,151,457.2,150.8z" />
	<path fill="#85665A" d="M429.8,139.9c0.5,0.1,1,0.9,1.5,0c0.6,0.3,0.6,0.9,0.5,1.5c-0.3,0-0.7,0.1-1,0.1c-0.3,0.6-0.5,1.2-0.8,2   c-0.5-0.3-0.9-0.5-1.1-0.6C428.6,141.6,429.5,140.9,429.8,139.9z" />
	<path fill="#1E1513" d="M450.5,139.2c0.1,0.5,0.3,1,0.4,1.5c-1.6-0.2-3.5,0.7-4.7-0.8c0.6,0,1.2,0,1.4-0.8   C448.6,139.4,450.1,140.7,450.5,139.2z" />
	<path fill="#59362F" d="M457.9,158.3c-0.7-0.2-1.5-0.5-2.2-0.7c1-1.5,2.7-2,4.3-2.6c0,0.2,0,0.5-0.1,0.7c-0.8,0.6-1.6,1.1-2.4,1.7   C457.6,157.7,457.8,158,457.9,158.3z" />
	<path fill="#1E1513" d="M453.9,136.4c-1.9,0.5-3.8,0.1-5.7,0C450.1,135.4,452,135.4,453.9,136.4z" />
	<path fill="#2A1F1C" d="M457.2,150.8c-0.2,0.2-0.5,0.5-0.7,0.7c-0.9-1.1-1.2-2.5,0.3-3.4C456.9,149,457,149.9,457.2,150.8z" />
	<path fill="#4C3A34" d="M435.2,157c0.3,0,0.6-0.1,0.9-0.1c0.7,0.7,1.3,1.4,2,2.1C436.6,159.1,435.9,158,435.2,157z" />
	<path fill="#4C3A34" d="M440.1,160.4c-0.5,1.6-2.4-0.3-2.1-1.4C438.7,159.4,439.4,159.9,440.1,160.4z" />
	<path fill="#1E1513" d="M447.6,136.5c-0.7,1.1-1.8,0.4-2.7,0.6C445.6,136.1,446.7,136.6,447.6,136.5z" />
	<path fill="#1E1513" d="M445.3,137.9c1.3,0.1,0.8,1.2,1,1.9C445.9,139.2,445.6,138.5,445.3,137.9z" />
	<path fill="#8D6D60" d="M453.1,158.3c0.7,0.3,1.6-0.2,2,0.7C454.4,158.9,453.5,159.4,453.1,158.3z" />
	<polygon points="427.4,139.4 427.4,139.6 427.3,139.6  " />
	<path fill="#D69479" d="M480.3,442.8c-5.3,1.2-11.3-9.7-3.5-8.7c2.2,0.9,3.5,2.4,3.6,4.9c0,0.7-0.1,1.4,0.7,1.7   C480.8,441.4,480.6,442.1,480.3,442.8z" />
	<path fill="#CA8C72" d="M417.5,436.6c-2.9-1.8-4.3-4.3-4.1-7.6c2.2-2.5,2.3-2.5,4.1-0.6C414.8,429.6,417.3,434.4,417.5,436.6z" />
	<path fill="#261B17" d="M415.6,474c1.3,2.8-1.2,6.7-3.3,9.2C412.1,479.5,413.4,476.4,415.6,474z" />
	<path fill="#CA8B72" d="M417.5,436.6c0-0.2,0-0.4,0-0.6c1.6-1.3,0.4-4.3,0.8-6.2c1.9,1.9,1.9,4.6,2.5,7.1c-0.4,0-0.8-0.1-1.3-0.1   c0,1,0,1.9,0,2.7C418.7,438.4,418.9,437,417.5,436.6z" />
	<path fill="#271B17" d="M484.2,437.5c0.6-2.6,1.2-5.1,2.8-7.6C487.6,433.2,486.8,435.3,484.2,437.5z" />
	<path fill="#130C0A" d="M418.2,429.7c-0.4,1.9,0.9,4.9-0.8,6.2c-0.7-1.8-2.3-6.9,0-7.6C417.7,428.8,418,429.3,418.2,429.7z" />
	<path fill="#B17D6A" d="M432.6,343.6c2.2,1.7,5.2,2.6,6.8,4.8l0,0c-2.9-0.4-5-2.9-7.5-4.1C432.1,344,432.3,343.8,432.6,343.6z" />
	<path fill="#1D100D" d="M477.6,474.2c-0.1-0.8,0-1.2,0.3-2.1c0.7,0.8,1.2,1.5,1.7,2.1c0,0.8,0,1.6,0,2.8   C478.5,476,478.2,475.5,477.6,474.2z" />
	<path fill="#151310" d="M410.9,489c-0.7-1.4-1-2.7,0.2-4C412.4,486.5,412.4,486.9,410.9,489z" />
	<path fill="#382823" d="M481.5,484.8c-1.5-0.8-1.6-2.3-2.2-3.7C481.4,481.6,481.8,482.3,481.5,484.8z" />
	<path fill="#3D2923" d="M455.1,350.4c-0.5,0.4-1,0.8-1.8,1.3c-0.1-0.5-0.2-0.9-0.3-1.3c0.9-0.7,1.2-2.2,2.6-2.5   C456.4,349,455.3,349.6,455.1,350.4z" />
	<path fill="#3D2923" d="M408.9,494.2c0.6,1.2,0.7,2.2-0.3,3.3C407.5,495.6,407.6,495.4,408.9,494.2z" />
	<path fill="#65463C" d="M440.3,353.8c-1.5-0.4-2.9-1.2-4.7-2.5c2.2-0.3,3.2,1.1,5,1.8C440.5,353.4,440.4,353.6,440.3,353.8z" />
	<path fill="#201713" d="M419.5,439.3c0-0.8,0-1.7,0-2.7c0.6,0.1,0.9,0.1,1.3,0.1c0.1,1,0.2,2,0.3,3.4   C420.3,439.8,419.9,439.6,419.5,439.3z" />
	<path fill="#C28671" d="M432.6,343.6c-0.2,0.2-0.5,0.5-0.7,0.7c-1.1-0.7-2.1-1.4-3.2-2.1C430.3,341.9,431.5,342.6,432.6,343.6z" />
	<path fill="#543C33" d="M480.3,442.8c0.3-0.7,0.6-1.4,0.8-2.1C482.8,441.2,481.4,444.5,480.3,442.8z" />
	<path fill="#251815" d="M481.7,489.4c-0.8-0.8-1-0.9-1-1.9C481.9,487.7,481.9,488.4,481.7,489.4z" />
	<path fill="#886556" d="M481.8,492.5c0.6,0.9,0.6,1.1-0.3,1.3C481,493.4,481.3,493,481.8,492.5z" />
	<path fill="#B17D6A" d="M439.4,348.4c0.2,0.1,0.3,0.2,0.5,0.3C439.7,348.6,439.5,348.5,439.4,348.4L439.4,348.4z" />
	<path fill="#0D0909" d="M441.4,243.9c-8.1-0.3-18.8-0.2-22.7-8.7c0.3-0.3,0.6-0.6,0.9-0.9c6.8,10.5,20.2,5.9,30.1,7.5   C447.1,243.2,444.2,243.1,441.4,243.9z" />
	<path fill="#E7CDBC" d="M455.4,276.9c3,8.3-0.3,17.4,0.3,26.3C453.2,295.1,452.8,284.7,455.4,276.9z" />
	<path fill="#443D39" d="M473,321.5c-0.3-3,1.7-6,2.3-9c0.1-0.1,0.4-0.1,0.6-0.1C476.6,315.3,475.4,319,473,321.5z" />
	<path fill="#4C1A18" d="M472.5,245.1c2.5-1.6,6.4-0.4,9.4-0.4c0.2,0.4,0.3,0.7,0.4,1C479,245.9,475.7,245.7,472.5,245.1z" />
	<path fill="#443D39" d="M470.1,293.8c-0.4-2-1.4-3.9-1.3-6.4C470.4,289.8,470.7,291.8,470.1,293.8z" />
	<path fill="#231F1D" d="M468.5,281.8c0.8,1,0.4,2.1,0.2,3.6C467.2,284.4,466.5,282.4,468.5,281.8z" />
	<path fill="#4A413B" d="M429.9,322.4c0-0.4,0-0.8,0-1.4c1.3,0.6,1.6,1.6,2,2.8c-0.6-0.1-0.9-0.1-1.2-0.2   C430.4,323.2,430.1,322.8,429.9,322.4z" />
	<path fill="#372D29" d="M425.8,314.2c0-0.4,0-0.8,0-1.3c1.5-0.1,1.5,1,1.8,1.9c-0.3,0.2-0.7,0.4-1,0.6   C426.2,315,426,314.6,425.8,314.2z" />
	<path fill="#613E3A" d="M468.9,244.4c0-0.2,0-0.4,0-0.9c0.7,0.2,1.4,0.3,2.1,0.4c0,0.1,0,0.3,0,0.4c-0.5,0.1-1.1,0.2-1.6,0.3   C469.3,244.4,469.1,244.4,468.9,244.4z" />
	<path fill="#4F3E3A" d="M471.4,324.6c0.3,1.1,0.2,1.8-1,2C469.9,325.6,470.4,325.1,471.4,324.6z" />
	<path fill="#58423E" d="M469.2,328.9c0.4,1.1-0.1,1.6-1.2,1.9C467.7,329.6,468.3,329.1,469.2,328.9z" />
	<path fill="#79655F" d="M468.6,274.4c0.3,0.4,0.5,0.6,0.7,1C468.6,276.4,467.6,275.4,468.6,274.4z" />
	<path fill="#554A45" d="M464.2,242.3c1.1-0.9,1.4-0.9,2.4,0.1C465.8,242.3,465,242.3,464.2,242.3z" />
	<path fill="#655953" d="M468.8,271.2c-0.1,0.1-0.3,0.2-0.4,0.3c-0.2-0.4-0.3-0.7,0.2-0.9C468.6,270.8,468.7,271,468.8,271.2z" />
	<path fill="#AA998F" d="M468.7,280c-0.1,0.1-0.2,0.2-0.3,0.3c-0.1-0.3-0.3-0.6,0-0.8C468.5,279.7,468.6,279.9,468.7,280z" />
	<path fill="#2C221F" d="M390.1,276.6c0-1.4,0-2.7,0-4.1c1.7,0.8,2.2,3.4,1.8,5.1C390.8,278.1,390.6,277.2,390.1,276.6z" />
	<path fill="#372A25" d="M389.4,270.4c-1.2-0.9-3.7-4.1-2.1-5.3c0,0,0,0,0,0c0.5,1.3,1.4,2.3,2.2,3.4   C389.5,269.1,389.5,269.7,389.4,270.4L389.4,270.4z" />
	<path fill="#60473F" d="M390.1,331.5c0.7-1.1,1.6-0.7,1,0.4C390.8,331.8,390.5,331.7,390.1,331.5z" />
	<path fill="#977264" d="M389.4,270.4c0.1-0.7,0.1-1.4,0.2-2C390.4,269.5,390.4,269.5,389.4,270.4z" />
	<path fill="#221B18" d="M391.4,360.1c0,1.2-0.4,1.2-0.5,0C391.1,360.1,391.2,360.1,391.4,360.1z" />
	<path fill="#977264" d="M388,266.4c-0.2-0.5-0.5-0.9-0.7-1.4C388.2,265.2,388.1,265.8,388,266.4z" />
	<path fill="#3C312D" d="M419.6,234.2c-0.3,0.3-0.6,0.6-0.9,0.9c-1.5-2-2.7-4.3-4.2-7.2C417.5,229.6,418.5,232,419.6,234.2z" />
	<path fill="#5C4B45" d="M413.5,223.7c0.8,0.9,1.1,1.1,1.1,2.2C413.3,226.3,412.4,225.1,413.5,223.7z" />
	<path fill="#473934" d="M452.9,240.2c-0.6,0.1-1.2,0.1-2.1,0.2c0.4-1.3,1-1.6,2.2-1.4C453,239.5,453,239.9,452.9,240.2   C452.9,240.2,452.9,240.2,452.9,240.2z" />
	<ellipse fill="#5A5049" cx="424.7" cy="309" rx="0.3" ry="1.1" />
	<path fill="#7B7268" d="M455,238c-0.2,0.2-0.3,0.2-0.4,0C454.8,237.7,454.9,237.7,455,238z" />
	<path fill="#1F1815" d="M490.8,265.8c-0.4-3.3-0.4-3.4,0.5-5.4C492.6,262.2,492.5,263.7,490.8,265.8z" />
	<path fill="#100909" d="M489.6,266.2c1.4,1.6,0.7,2.5,0,3.8C488.2,268.7,489,267.6,489.6,266.2z" />
	<path fill="#5E4940" d="M503,366.8c0-1.8,0-3.7,0.1-5.5C504,363.6,503.9,365.1,503,366.8z" />
	<path fill="#372622" d="M494,331.9c-0.3,0-0.7,0-1.1,0c-0.3-0.7-0.4-1-0.1-1.8c0.4,0.2,0.8,0.3,1.2,0.5   C494,331.1,494,331.5,494,331.9z" />
	<path fill="#6E584F" d="M487.2,271.9c0-0.5,0.1-0.9,0.1-1.4C489.3,270.1,488.3,272.9,487.2,271.9z" />
	<path fill="#3E2D28" d="M427.6,187.2c1.8-1.7,3.9-0.6,5.9,0.8C431.3,188.7,430.4,188.6,427.6,187.2z" />
	<path fill="#382924" d="M439.2,189.3c-0.9,0.7-1.7,0.6-2.6-0.2C438.3,188.1,438.3,188.1,439.2,189.3z" />
	<path fill="#1E0C0B" d="M441.6,189.1c0.7,0,1.2,0.1,2,0.1C442.4,190.2,442.4,190.2,441.6,189.1z" />
	<path fill="#140D0B" d="M389.4,227.3c-1.6-0.9-0.9-2.6-2.2-3.8c-0.7-0.6-0.5-1.8-0.1-2.7c0.6-0.3,0.9,0,1,0.5   c-1.6,0.9,0.7,1.6,1.3,2.5C389.4,224.9,389.4,226.1,389.4,227.3L389.4,227.3z" />
	<path fill="#0F0A09" d="M388.1,222.6c-0.8-0.4-0.9-0.9,0-1.4C388.1,221.7,388.1,222.1,388.1,222.6z" />
	<path fill="#7A5E53" d="M498.3,366.2c-0.2-1.7,0.6-3.3,0.8-4.9C500,364,499.9,364.5,498.3,366.2z" />
	<path fill="#16110F" d="M397.5,567.9c-4.6-3.6,7.4-8,10.4-6.5C407.1,564.4,400.5,563.3,397.5,567.9z" />
	<path fill="#181411" d="M409.9,569.1c0,0.8-0.1,1.3-0.1,1.6c-3.4,1-6.5,2.5-9.6,3.9C397.8,571.4,406.9,568.8,409.9,569.1z" />
	<path fill="#14100E" d="M409.1,566.6c-4.6,1.1-7.9,0.6-9.9,5.2C395.2,567,406.2,562.5,409.1,566.6z" />
	<path fill="#171512" d="M402.3,578.9c-1.3-2.6,7.1-6.2,8.5-4.7C409.8,576.1,408.9,576.6,402.3,578.9z" />
	<path fill="#201A16" d="M412.8,579.4c-2.3,1.8-5.1,2-7.8,2.9c-0.4-0.4-0.6-0.7-1-1.1C405.6,579.7,411.5,576.6,412.8,579.4z" />
	<path fill="#13100E" d="M500.8,572.2c-2.8-3,4-3.9,5.7-5.2c0.2-0.1,0.8,0.5,1.4,0.9C505.9,570.2,503.3,571.2,500.8,572.2z" />
	<path fill="#211D1A" d="M509.9,570.8c0.1,2.2-2.9,2.9-5,2C505.8,570.5,507.1,570.2,509.9,570.8z" />
	<path fill="#13110E" d="M511.6,586.3c-2.9-4.2,10.9-6.4,10.5-2.8C518.3,583.7,514.8,583.9,511.6,586.3z" />
	<path fill="#59362F" d="M463.4,158.3c-1.6,0-3.3,0-4.9,0c1.4-1.1,3.2-0.5,4.9-0.6C463.3,157.9,463.3,158.1,463.4,158.3z" />
	<path fill="#B9C8C8" d="M450.5,139.2c-0.4,1.5-1.9,0.3-2.8-0.1l0,0c0-0.2-0.1-0.4-0.1-0.6l0,0c0.7-0.7,1.7-1,2.7-0.7   C450.4,138.3,450.4,138.7,450.5,139.2z" />
	<path fill="#1E1513" d="M450.3,137.9c-0.2,0-0.4-0.1-0.6-0.2C450.1,137,450.2,137.4,450.3,137.9z" />
	<path fill="#638686" d="M453.4,138c0.2,0.2,0.3,0.3,0,0.4C453.4,138.2,453.4,138.1,453.4,138z" />
	<path fill="#1E1513" d="M448.4,137.9c-0.3,0.2-0.5,0.4-0.8,0.7C447.9,138.3,448.1,138.1,448.4,137.9z" />
	<path fill="#1E1513" d="M447.6,138.5c0,0.2,0,0.4,0.1,0.6c-0.2-0.1-0.4-0.2-0.5-0.3C447.3,138.7,447.5,138.6,447.6,138.5z" />
</g>
</svg>