<?xml version='1.0' encoding='utf-8'?>
<svg xmlns="http://www.w3.org/2000/svg" version="1.2" baseProfile="tiny" id="Layer_1" x="0px" y="0px" viewBox="0 0 900 600" overflow="visible" xml:space="preserve">
<g id="a_00000055708418519367392370000011242981774563259546_">
	<path fill="#010101" d="M388.8,512.9c-0.6-11-0.4-21.7,0-32.7l0,0.1c0.3-1.4,0.6-2.7,0.8-4.1c0,0,0,0,0,0c0.3-0.8,0.5-1.7,0.8-2.5   c0,0,0,0,0,0c0.3-0.8,0.7-1.5,1-2.3l-0.1,0.1c0.2-0.3,0.4-0.7,0.6-1c0.2-0.1,0.3-0.3,0.2-0.5c0.2-0.6,0.5-1.3,0.7-1.9c0,0,0,0,0,0   c0.3-0.5,0.5-1.1,0.8-1.6c0,0,0,0,0,0c0.3-0.5,0.6-1.1,0.9-1.6c0,0,0,0,0,0c0.3-0.5,0.6-1.1,0.9-1.6c0,0,0,0,0,0   c0.8-1.4,1.6-2.7,2.3-4.2c0,0,0,0,0,0c0.3-0.5,0.5-1.1,0.8-1.6c0,0,0,0,0,0c0.8-0.6,0.9-1.5,0.9-2.4c0,0,0,0.1,0,0.1   c0.3-0.6,0.6-1.1,0.8-1.7l0,0c0.3-0.3,0.6-0.6,0.9-0.8c0,0,0,0,0,0c0.8-0.4,0.8-1,0.7-1.7c0.2-0.1,0.2-0.3,0.1-0.4   c0.2-0.7,0.5-1.3,0.7-2c0.2-0.1,0.2-0.2,0.1-0.4c0.3-0.6,0.6-1.3,0.9-1.9l-0.1,0.1c0.5-0.8,1-1.7,1.6-2.6c0,0,0,0,0,0   c1-0.9,0.7-2.1,0.9-3.3l0,0.1c1.3-2.8,0.6-6,0.9-9l0,0.1c0.6-1.2,0.7-2.3,0-3.5l0,0.1c-0.1-2.6,0.1-5.1-0.5-7.8c-2.2-0.1-4,0-5.2-2   c0,0,0,0.1,0,0.1c-0.5-3.9,0.4-7.8,0.8-11.7c0.6-0.8,0.5-1.5,0-2.3c2.4-18.9,1-39.1,4.7-57.8c0.3,0,0.7,0,1,0   c0.1,23.3-3.9,47.3-3.3,70.2c71.3,3.4,44,19,66.3-40.1c2.1,2.5-0.3,7.8-1,10.9c-0.7,0.4-0.8,1.1-0.7,1.8c-0.2,0.2-0.2,0.5-0.2,0.8   c-1,1.1-1.5,2.5-1.6,4l0,0c-1.6,2.8-2.5,6.5-3.2,9.8c-1.3,0.9-0.6,2.1-0.7,3.3c-0.2,4.9-2.7,8.9-3.8,13.8c13,1.6,25.2-0.2,38-2   c-6.1-35.6,5.1-76.5-11.7-109.5c0.1-0.2,0.1-0.4,0.1-0.7c0.2,0,0.5-0.1,0.7-0.3c0.3,0,0.5,0.1,0.8,0.1c0,0,0,0,0,0   c0.3,0.3,0.6,0.6,0.8,0.8c0,0,0,0,0,0c0.5,0.8,1.1,1.7,1.6,2.5l0,0c0.5,0.8,1.1,1.7,1.6,2.5l0-0.1c0.3,0.5,0.6,1,0.9,1.6l0,0   c0.6,1.1,1.1,2.2,1.6,3.3l0,0c0.3,2.8,0.5,5.5,0.8,8.3c-0.2,0.2-0.2,0.4,0,0.5c0,2.5-0.1,5.1,0.8,7.5c-0.2,0.2-0.1,0.4,0.1,0.6   c1,3.5-0.4,7.5,1.5,10.6c0,0,0-0.1,0-0.1c1.8,13.4,0,27.1,1.7,40.4l0-0.1c0,3.2,0,6.4,0,9.7c-0.1,0.1-0.1,0.3,0,0.4   c-0.9,2.8-1,5.7,0,8.5l0,0c-0.2,2.2,0.2,4.1,1.6,5.9c-0.1,0.2-0.1,0.4,0.1,0.5c0,2.4,0.1,4.9,0.7,7.2l0,0c-0.5,0.6-1,1.1-1.7,1.6   c0,0,0,0,0,0c-2.9,1.4-6.4,0.4-5.6,4.9c0,0,0,0,0,0c-0.3,1.4-0.6,2.7-0.9,4.1c0,0,0-0.1,0-0.1c-1.3,2.3-1.8,4.6-1.8,7.2   c0,0,0.1-0.1,0.1-0.1c-1.3,2.3-0.4,5.5-0.7,8.2l0-0.1c-0.4,1.1-1,2.2-1.6,3.3l0,0c-0.3,0.3-0.5,0.6-0.8,0.9   c-0.9-0.3-0.7-1.1-0.9-1.7c1.9-8,2.4-17,3.6-24.9c-12.4,2-24.2,2.5-36.8,1.1c0.1,4.2,2.2,7.4,3.9,10.8c-1.4,4.2,2.7,8.9,3.6,13.2   c-0.3,0.5,0.3,1.4-0.8,1.4c-5.8-7.3-6.5-17.1-10.3-25.5c-2.1-0.2-3.8-1-5.8-0.6c0.9,4.3-0.3,7.9-3.2,11.1c-3-3.1,2-7.4,0.8-11.5   c-10.9-2.1-22-1-33.2-1.3c4.9,20-10,36-16.1,53.9c-6.8,26.7,4.5,53.8-0.2,80.7c2.4-0.2,4.4,0.6,6.6,1.2c1.8-3,5.1-1.1,6.9-3   c1.4-27.9,13.4-53.1,16.7-80.5c0.4-7.4,3.3-15.1,7.9-21c1.1,0.5,0.6,1.5,0.7,2.3c-5,9.1-5.6,19-6.4,29c-5.1,23-16.7,46-15.2,69.9   c1,0.5,2.1,1,3.1,1.5c3.2,14.2,13,25.2,27.5,28.1c0.8,1.1,1.6,2.2,2.3,3.3l0,0c0,1.3-0.1,2.6-0.1,4l0-0.1c-0.3,0.3-0.5,0.6-0.8,0.9   c-0.1,1.7-0.4,3.6-1.6,4.8c-1.9,0.3-3.8,0.5-5.7,0.8c0,0,0,0,0,0c-4.6-0.3-9.1,0.2-13.6,0.8l0,0c-3.4-0.9-6.9-1-10.5-0.9l0,0   c-1.2-0.9-2.7-0.7-4.1-0.8l0,0c-2.7-1.4-5.9-1.4-8.9-1.6c0,0,0,0,0,0c-4.9-2.7-9.8-2.2-15.3-2.4l0,0c-1.7-0.4-3.4-0.6-4.8-1.8   l0.1,0.1c-0.1-1.3-0.1-2.6-0.2-3.9c0.2-0.1,0.2-0.3,0.1-0.5c0.2-0.6,0.5-1.3,0.7-1.9l0,0c0.8-0.6,0.9-1.5,0.8-2.4c0,0,0,0,0,0   c0.5-1.1,1-2.2,1.7-3.2l0,0c0.8-0.3,0.9-0.9,0.8-1.7l0,0c1.1-2.8,0.5-6,0.8-8.9c0.2-0.2,0.2-0.3,0.1-0.5c0.3-0.9,0.5-1.8,0.8-2.7   l0,0c0.9-0.6,0.9-1.5,0.9-2.4l0,0.1c0.3-0.8,0.6-1.6,0.9-2.5l0,0.1c0.3-0.6,0.5-1.1,0.8-1.7l0,0c0.6-0.8,1.2-1.6,1.8-2.3l0,0.1   c2.7-1.5,3.4-1.6,3.2-5l0,0.1c1-2.1,0.6-4.4,0.8-6.5l0,0c1-3.6,0.7-7.1,0-10.7l0,0.1c-0.3-1.9-0.5-3.8-0.8-5.7c0,0,0,0.1,0,0.1   c-0.3-2.2-0.6-4.3-0.8-6.5c0,0,0,0.1,0,0.1C389.4,519.1,389.1,516,388.8,512.9z M419.5,573.9L419.5,573.9c0.2-2-1.7-2.4-3.1-3.4   c-2.5,0.5-11.6,4.6-12,1c2.7-3.1,7-1.7,10.3-3.4c-0.2-1-0.5-1.5-1.3-2.1c-4.7,0.3-8.7,2.4-12.9,4.7c-0.5-0.7-0.9-1.3-1.2-1.8   c3.2-4.2,8.9-4,13.6-5.3c-0.6-2.5-1.1-4.7-1.7-7.1c-2.9-1.2-5.6,0.2-8.5,0.7c-1.2,2.3-3,5.1-5.6,5.8c-2.6-0.3-4,2.2-6,3.4   c-4.8-0.3-3-3.7-3.3-7.2c-4.8,6.2-1.6,14.4-5.4,21.1c-1,2.5-2.7,5.7-2,8.4c19.1,2.3,39.1,8.3,58.4,5.3c3.4-10.6-3-8.8-9.9-12.2   c-1.7-1.1-3.4-1.9-5.2-1.9c-0.5-0.9-0.9-1.5-1.2-2c-2.3,0.4-4.2,2.4-6.4,0.4c0.8-2.1,3.4-1,4.3-2.6c-0.1-0.4-0.2-0.8-0.3-1.2   C420,574.4,419.7,574.1,419.5,573.9z M390.5,564.7c2.7-2.5,5.3-2.7,7.1-5.4c-2.4,0-4.6,0-7,0C389.9,561.1,390.5,562.3,390.5,564.7z   " />
	<path fill="#010101" d="M468.2,105.6c0.7,0,1.3,0,2,0c1.2,1.1,1.2,1.1,2.6,0c1.2,0,2.3-0.3,3.3-0.8c0.3,0.1,0.5,0.1,0.7-0.1   c0.8,0,1.6,0,2.4,0c0.1,0.2,0.3,0.2,0.5,0.2c1.1,2.1,2.1-0.9,3.2-1.6c1.8,1.4,1.1,3.2,1.2,5.5c1.6-0.8,2.4-1.6,4-1.4   c0.3,0.2,0.6,0.5,0.8,0.7l0,0c-0.3,1.8-2.2,2.3-3.7,2.7c0,0.2,0,0.3,0.1,0.5c1.8,0.3,3.8-1.2,5.1,0.8l0.1-0.1   c-0.5,0.8-1,1.7-1.4,2.6c-0.2,0.1-0.3,0.3-0.1,0.5c-0.3,0.4-0.5,0.7-0.8,1.1c0,0,0,0,0,0c-0.3,0.2-0.6,0.5-1,0.7l0.2,0.1   c0,0-0.1-0.2-0.1-0.2c-0.5,0.3-1,0.6-1.5,0.9l0,0c-0.3,0.3-0.6,0.5-0.9,0.8l0,0c-0.3,0.3-0.5,0.6-0.8,0.9l0,0c-1,0.9-0.3,1.9,0,2.8   c-0.2,0.2-0.2,0.4,0.1,0.6c-0.1,2-0.2,4.1,0.7,6c1.3,1.8,0.7,4,0,6.1c-0.2,0.2-0.2,0.3,0,0.5c-0.3,0.9-0.6,1.8-0.8,2.7l0-0.1   c-1.9,0.3-3.9,0.7-6,1c-0.2,0.5-0.5,1.2-0.9,2.3c-1.2-6.3,2.4-6.6,6.8-8.8c0-0.9,0.2-1.9-0.2-2.6c-1.8-2.7-1-6.5-2-9.2   c-6.3,0.8-11.5-0.9-17.8-0.2c-1.1-0.7-2.3-1.9-4.3-1.9c-0.4,0.5-1,1-1.6,1.7c1.5,0.4,2.7,0.6,3.8,0.9c0.5,0.8,0.8,1.5,1.2,2.2   c-0.3,0.3-0.5,0.5-0.8,0.8c-2.1-0.6-2.9,1-4.1,2.4c-0.9,0.3-0.9,0.9-0.7,1.7l0,0c-1.4,1.2-1.6,3.2-3.4,4c0,0,0.1,0,0.2-0.1   c-0.1-0.4-0.2-0.8-0.4-1.2c-0.2,0.1-0.3,0.1-0.5,0.2c0.2,0.4,0.4,0.7,0.7,1.1c-1.5,3.9-1.3,8.3-4.5,11.5c-2.2-1.8,0-4.3-1.7-6   c-0.3-1.3-0.9-2.3-2.6-2.2c-0.4,1.7,0.5,2.6,1.5,3.3c-0.4,2.8-2.9-0.2-3.9-1c-1,0.7-1.2,0.9-1.5,2c1.7,2.3,2.7,5.7,5.5,6.8   c-0.4,0.7-0.9,1.3-1.1,1.6c0.6,8.1,2,15.7-2.5,22.9c3.3,5.6,9.7,8,14.7,11.9c-1.1,1.3-1.8-0.8-3.2,0.5c8.5,6.8,10.8,17.7,20.4,23.5   c0.1-0.9,0.1-1.7,0.2-2.6c0.5,0.3,0.8,0.5,1.3,0.8c2.5-4.1,0.5-8.6,2.4-12.6c1.5,6.2,1.7,12.7-3.2,17.2c-5.5-0.9-8.7-6.7-11.6-11   c-6.3-8.6-13.4-17.3-21.3-24.3c4.4,13.2,4.2,29.4-4.1,39.9c-0.3-0.3-0.6-0.6-0.9-0.9c0.7-1.5,0.9-3.1,0.8-4.8   c7.5-14.1,5.4-34.6-8.4-44.4c-0.4,0.1-0.8,0.2-1.4,0.4c-0.5-13.1-5.6-25.7-8-38.3c-9.6-8.2-2.4-22.5-7.1-33   c-6.5-15-7.1-30.9-5.9-47c-0.2-6.6,6.1-9.1,10.4-13.2c0.9-3.5,2.6-6.9,4.9-9.9c-0.8-1.9-0.9-4.2-2.6-5.8c-2.9,2.3-0.2,6.6-3.8,8.6   c-0.2-0.3-0.5-0.6-0.7-0.8c0.1-0.5,0.2-0.9,0.2-1.4c0,0,0,0,0,0c1.2-2.5,1.2-5.5,2.5-8.2c0.5-0.3,1-0.6,1.5-0.9   c4,0.4,2.8,6.3,4.7,9c1.1,1.4,4.5-2.5,5-3.4c0.7-1.6,2.7-1.5,3.2-3.1c0.3,0.3,0.5,0.5,0.8,0.8c0,0.3,0,0.5,0,0.8   c-0.3,0.5-0.7,1-1,1.5l0,0c-0.3,0.3-0.5,0.6-0.8,0.9l0,0c-0.3,0.3-0.5,0.6-0.8,0.8l0,0c-0.3,0.3-0.6,0.5-0.9,0.8c0,0,0,0,0,0   c-0.3,0.3-0.6,0.5-0.9,0.8l0,0c-0.3,0.3-0.5,0.6-0.8,0.9l0,0c-0.4,0.3-0.8,0.5-1.1,0.8l-0.3,0c-1.1,0.7-2.4,1-3.5,1.6l0,0   c-1,0-1.6,0.6-1.7,1.6l0.1,0.2l0-0.2c-0.9,1.3-0.7,2.7-0.7,4.2c0,0,0,0,0,0c-0.5,1.1-1.1,2.1-1.8,3.1l0.1-0.1c-0.5,0.3-1,0.7-1.5,1   c0,0,0,0,0,0c-0.9,0.5-1.8,0.9-2.6,1.5c0,0,0.2,0.1,0.2,0.1l-0.1-0.2c-1.5,0.7-2.6,1.7-3.3,3.2l0.2,0.2l-0.2-0.2   c-0.2,0.3-0.5,0.6-0.7,1l0,0c-0.8,0.3-0.9,0.9-0.8,1.7l0,0c-1.9,9.6-2,20.5,0,30l0-0.1c0,1.2-0.1,2.4,0.8,3.3l0-0.1   c0,1.2,0,2.3,0.9,3.3l0-0.1c0,1.2-0.1,2.3,0.8,3.3l0-0.1c0,1,0,2,0.8,2.7c-0.1,0.2-0.1,0.4,0.2,0.5c0.5,1.1,1,2.2,1.5,3.3l0-0.1   c0.3,0.8,0.6,1.6,0.9,2.4l0,0c0.3,1.1,0.6,2.2,0.9,3.2c0,0,0,0,0,0c0.3,2,0.5,3.9,0.8,5.9c-0.2,0.2-0.1,0.4,0,0.5   c0,1.9,0,3.7,0,5.6l0-0.1c-0.5,3.4-1.5,7.7,0,10.7l0-0.1c0.3,0.6,0.6,1.1,0.8,1.7l0,0c0,1.2,0.5,1.8,1.7,1.6l0,0   c0.3,0.3,0.6,0.5,0.8,0.8l0,0c0.3,0.6,0.5,1.1,0.8,1.7l0,0c0.5,1.2,0.9,2.5,1.6,3.5c-0.1,0.2,0,0.4,0.2,0.5c0.5,1.1,1,2.2,1.5,3.3   l0,0c0.3,0.6,0.5,1.3,0.8,1.9c-0.1,0.2,0,0.3,0.1,0.4c-0.1,0.9-0.1,1.8,0.7,2.5l0-0.1c0.1,1.1,0,2.3,0.9,3.2l0,0   c0.3,1.1,0.5,2.2,0.8,3.3l0,0c0.3,1.2,0.5,2.3,0.8,3.5c-0.1,0.2-0.1,0.4,0.1,0.5c0.1,1.7-0.2,3.4,0.7,5l0-0.1c0,1.3,0.1,2.7,0.1,4   c-0.2,0.2-0.2,0.3,0,0.5c-0.4,0.7-0.7,1.3,0,2l0,0c0.3,0.6,0.5,1.1,0.8,1.7l0-0.1c-0.3,1.7,1.2,2.5,2.4,3.3l0,0   c0.8,0.6,1.6,1.1,2.4,1.7l0,0c1.1,0.8,2.2,1.7,3.3,2.4l0,0c1.6,1.8,2.5,1.7,2.5-0.9c0.2-0.1,0.3-0.3,0.1-0.6   c0.3-0.9,0.5-1.8,0.8-2.6l0,0c0.6-1.7,1.6-4.1,0.8-5.8l0,0c-0.6-1.1-1.2-2.2-1.6-3.3l0,0.1c0.1-1.7,0.4-3.5-0.8-4.9l0,0.1   c-0.1-1.1,0.1-2.3-0.9-3.2l0,0c-0.3-0.5-0.6-1.1-0.8-1.6l0,0c0.1-2.9,0-5.6-1.6-8.1l0,0c-2.2-5.2,1.4-9.6,1.5-14.5   c0.2-0.1,0.2-0.3,0.1-0.5c0.3-0.4,0.5-0.7,0.8-1.1l0,0c2-0.4,3.8-1.7,5.5-2.3c1.2,0.2,2.4,1.5,3.3-0.6c-2.3-0.3-4.1-1.5-5.7-2.9   c0-0.8,0.1-1.5,0.1-2.3c1.4-0.8,1.5-0.9,0.2-1.8l-0.2,0.2l0.2-0.1c-0.3-0.6-0.6-1.2-0.9-1.8l0-0.1c1-0.1,2.1-0.2,3.1-0.4v0   c1.2,0.6,2.2,3.4,3.6,1.7c1.7-0.1,2.8-0.3,3.8-1.7c0,0,0,0,0,0c1.1,0.1,1.7-0.4,1.8-1.5l-0.1,0.1c0.7-0.3,1.4-0.3,2.1,0l-0.1-0.1   c-0.5,2.1,1.8,1.6,1.9-0.1l0,0c2.3-0.2,4.5-1.1,6.9-0.8C466.7,106.2,467.5,106.2,468.2,105.6z M451,128.1c-1.2-0.2-2.3-0.4-3.6-0.6   c-0.2,0.3-0.5,0.7-0.8,1.1c-0.6-0.7-0.7-0.7-1.8-1.1c-0.4,1.4-0.4,2.7,0,4.6c0.9-1,1.4-1.7,1.9-2.1c1.2,0,2.2,0,3.2,0   c0.3,0.6,0.5,1.2,0.9,2c0.7-0.9,1.3-1.7,1.9-2.4C451.9,129,451.4,128.5,451,128.1c1.6-0.5,1.6-0.5,1.1-2.1   C451.6,126.8,451.3,127.5,451,128.1z M456.4,115c-1.4,1.7-3,2.6-3.9,4.7C454.8,119.9,456.7,118.1,456.4,115z M485.7,115.1   c1.4-0.6,1.7-1.7,2-3C485.9,111.4,483.6,113.8,485.7,115.1z M466.4,112.9c1.5-1.4,1.9-1.6,2.9-3   C466.8,109.7,466.8,109.7,466.4,112.9z M451.9,112.5c3.3,0.2,3.5,0.1,3.4-2.2C454.1,111,453.1,111.7,451.9,112.5z M457.4,124.6   c-2,0.2-1.6,1.2-1.2,3C456.7,126.1,457.1,125.3,457.4,124.6z M480.4,135.5c0.8,0.7,1.7,1.3,2.8,0   C482.1,135.5,481.2,135.5,480.4,135.5z M480.3,109.1c0.2,0.1,0.4,0.2,0.6,0.3c1-0.8,0.6-1,0.4-2.6   C480.8,108.1,480.6,108.6,480.3,109.1z" />
	<path fill="#FBDFD3" d="M448.5,140.3c0,1.2,0.1,2.3,1.1,3.4c2.8-2.8,3-6.4,3.9-9.7c2.3-1.3,4.1-3,4-5.9l0,0   c0.4-0.9,0.7-1.9,1.5-2.5c2.1,0.6,2.8-1.1,4-2.4c0.6-0.9,2.2-0.4,2.5-1.6c0.3-1.4,2-0.6,2.4-1.6c4.8,0.4,8.8,1,13.7,0.5   c1.1,2.6,0.2,6.5,2,9.2c0.4,0.7,0.1,1.7,0.2,2.6c-4.4,2.2-8,2.5-6.8,8.8c0.4-1.1,0.7-1.8,0.9-2.3c2.1-0.4,4-0.7,6-1   c0,0.3,0.1,0.7,0.1,1c-3.8,5.9-0.4,30.1-11.2,30.1c-9.8,1.8-14.1-5.8-21.6-10.1c-1.4-3.1-1.6-6.8-2.5-9.8c-0.5,0.2-1.1,0.5-2,0.9   c1.3-2.4,0.9-2.9-1.4-3.9c0.1-0.3,0.1-0.6,0.2-0.7C447.5,144.2,446.9,141.8,448.5,140.3z M468.6,156.3c-0.2,0.2-0.4,0.4-0.6,0.7   c1.4,1.4,3.2,0.7,4.7,1.8c-0.6,0.5-1.1,1-1.6,1.7c0.7,2.6,4.7,1.4,6.5,0.5c0-1.3-0.2-2.5-1.7-2.2c0.3-0.5,0.6-1,0.9-1.6   c1.2-0.1,3.1,0.1,2.1-1.8c-2.3,0.5-5.1-0.5-7.1,0.8c-0.2,0-0.3-0.1-0.5,0C470.4,155.6,469.5,155.4,468.6,156.3z M463.1,133   c-2.1,0.7-2.1,0.7-3,2.3c1.3,0.2,2.2-0.5,3-1.4c1.6,0.3,3.1,0.5,4.7,0.8c-1.4,2.4-5.7,0.2-6,3.1c2.7,0.3,5.2,0.8,7.8,0   c0.5-0.6,1.1-1.1,1.6-1.7c0.5,0,1,0,1.5,0C472.2,131.2,466.4,132.8,463.1,133z M473.6,150.7c3,0.2,3.8,0.1,5.3-1.1   C478.4,147.7,472.7,148.8,473.6,150.7z" />
	<path fill="#030202" d="M508.8,588.3l-0.3,0l-0.2,0.2c-3.2,0-6.4-0.1-9.6-0.1c0,0,0,0,0,0c-3.1-1.3-6.4-0.7-9.7-0.9l0,0   c-1.5-0.9-3.2-0.8-4.9-0.8c0,0,0,0,0,0c-1.1-0.3-2.1-0.6-3.2-0.9l0,0c-1.9-1.7-4-3.7-6.7-4l0,0c-0.7-0.1-1.5-0.1-1.5,0.8   c0,1.3-1.2,1.6-1.7,2.5l0,0c-4.8,0-9.6,0-14.5,0c-1.2-0.9-2.6-0.8-4-0.8l0,0c-0.9-0.9-2.1-0.8-3.2-0.8l0,0c-1.4-0.4-2.8-0.9-4-1.6   l0,0c-3.5-4.8,3.4-8.6,2-13.9c0.3-3.6,2.7-7,2.4-10.7c6.2-7.2,3.9-16.4,5.9-24.6c0.3,0,0.7,0.1,1,0.1c1,6,0,11.5,0.2,17.6   c1.6,0.4,2.7,0.9,4.4,0.9c0.4-2.4,0.8-4.8,1.1-7.1c1.7,2.3,1.3,4.9,0.9,7.6c1.8,1.2,3.7,1.2,5.8,0.9c1.3-1.8,2.5-3.5,3.7-5.1   c1.2-29.4,10.6-60.3,12.3-89.9c1.6,0.9-0.2,3.1,1.4,4c0.3,0.9,0.6,1.8,0.8,2.7c-0.2,0.2-0.2,0.3,0,0.5c0,1.1,0,2.1-0.1,3.2l0.1-0.1   c-0.3,2.7-0.6,5.4-0.8,8.1l0-0.1c-0.9,1.8-0.7,3.8-0.8,5.7l0-0.1c-0.6,2.7-1.1,5.4-1.7,8.1l0-0.1c-0.3,1.4-0.6,2.7-0.8,4.1l0-0.1   c-0.9,0.9-0.8,2.1-0.8,3.3l0-0.1c-0.9,1-0.8,2.2-0.8,3.4c-0.1,0.1-0.2,0.3-0.1,0.4c-1,1.6-0.7,3.5-0.7,5.2   c-0.2,0.2-0.3,0.4-0.1,0.6c-0.2,3.4-1.7,6.5-1.5,9.9c-0.2,0.2-0.3,0.4-0.1,0.6c-0.3,1.7-0.6,3.3-0.9,5c0,0,0-0.1,0-0.1   c-1.1,0.9-0.8,2.1-0.8,3.3l0-0.1c-0.9,2.1-0.8,4.3-0.8,6.6c-0.1,0.1-0.1,0.3,0,0.4c-0.2,1.7-0.5,3.5-0.7,5.2   c-0.2,0.2-0.2,0.3-0.1,0.5c-0.3,0.9-0.6,1.7-0.9,2.6l0-0.1c-1.2,1.2-0.3,2.6-0.3,3.9c0.5,0.2,0.8,0.3,1.2,0.4c0,0,0,0,0,0   c0.3,0.3,0.6,0.6,0.8,0.9c0,0,0,0,0,0c0.1,1,0.6,1.6,1.6,1.7l0,0c0.6,0.5,1.2,1,1.7,1.5l0,0c0.3,0.3,0.5,0.6,0.8,0.9l0,0   c0.2,0.3,0.5,0.6,0.8,0.9l0,0c1.1,1.3,2.2,2.7,3.4,4l0,0c0.3,0.3,0.5,0.6,0.8,0.9c0,0,0-0.1,0-0.1c0.6,1.1,1.2,2.1,1.7,3.2   c0,0,0,0,0,0c0.2,0.3,0.4,0.7,0.6,1l0,0c0.6,0.8,1.2,1.6,1.8,2.3c0,0,0,0,0,0c0.3,0.3,0.5,0.6,0.8,0.9l-0.1-0.1   c0.5,0.8,1.1,1.7,1.7,2.4l0,0c0.3,0.9,1,0.7,1.7,0.7c0.8,0.2,1.5,1,2.2,0.9c1.2,0.8,2.2,1.7,3.4,2.4l0,0c1.3,0.9,2.7,1.6,4.1,2.4   l0,0c0.5,0.3,1.1,0.6,1.6,0.9l0,0c0.3,0.2,0.6,0.4,0.9,0.6c0.1,0.2,0.2,0.3,0.5,0.2c1.9,0.9,4.1,0.9,6,1.5c0.8,1.1,2.1,0.5,3.2,0.8   l0,0c0.2,0.3,0.5,0.6,0.7,1l-0.1-0.1c0.3,0.5,0.6,1.1,0.9,1.6l0,0c0.3,0.8,0.5,1.7,0.8,2.5l0-0.1c-0.2,0.2-0.2,0.5,0,0.7l0,0   c-0.3,1.3-0.6,2.7-0.9,4c0,0,0.1-0.1,0.1-0.1c-0.2,0.3-0.5,0.6-0.7,1c0,0,0,0,0,0c-0.6,0.3-1.1,0.5-1.7,0.8c0,0,0,0,0,0   c-0.8,0.3-1.7,0.5-2.5,0.8l0,0C511.1,587.7,509.9,588,508.8,588.3z M455.2,559.2c-0.2-2,0.2-3.9-1.1-5.7   c-4.6,7.7-3.2,16.9-7.2,24.8c7.3,2.8,14.5,5.3,22.2,3.9c5.8-7,12.7,0.2,18.8,2c8.9,0.3,18.6,2.9,26.9-1.1c0.1-2.1,0-4.1-0.5-6.2   c-6-0.4-11.7-1.9-16.3-5.6c-0.9,0.4-1.4,0.6-2,0.9c-1.4-0.6-2.6-1.1-3.6-1.6c-0.7-1.2-1.4-2.2-1.9-3.1c-1.1,0-2,0-3.1,0   c0.2-1.1,0.3-2,0.4-3c-0.6-0.7-1.3-1.5-2-2.2c-1.4,0.2-2.7,0.4-4,0.6c-0.3-1.7-0.3-1.7,1.9-3.6c-0.3-0.4-0.7-0.8-1.1-1.2   c-1.3,0.7-2.6,1.4-4,2.2c-1.3-2.7,1.3-3.6,2.2-5.1c-0.7-1.3-1.3-2.5-1.9-3.6c-1.3-0.6-2.5-1.1-3.9-1.7   C470.2,555.4,462.8,567,455.2,559.2z M456.9,553.4c-1.5,3.9,1.3,7,5.2,6.4c1.9-2,4.3-2.8,5.3-5.6   C463.7,554.8,460.4,554.9,456.9,553.4z" />
	<path fill="#030303" d="M394.5,158c0.2-0.2,0.2-0.3,0-0.5c1.1-6.8,2.5-16.1-0.8-22.2l0,0c-3.1-4.2,1.2-9.7-1.6-14.1   c0.1-0.2,0-0.3-0.1-0.4c-0.2-0.6-0.5-1.2-0.7-1.8c0,0,0,0.1,0,0.1c0-2-0.2-4-0.9-5.9c0.1-0.2,0.1-0.3-0.1-0.5   c-0.1-1.7,0.3-3.4-0.8-4.9l0,0c0-1.2,0-2.3-0.8-3.3c0,0,0,0,0,0c-0.7-4.3-1-8.5-0.8-12.8l0,0.1c1.7-10.7,1.7-21.6,2.5-32.3   l-0.1,0.1c0.9-1.5,0.8-3.2,0.9-4.9l-0.1,0.1c1.1-5.6,1.9-11.6,1.2-17.4c-1.4,1.1-2.4,1.3-3.9,1.9l-0.3-0.1c-1.9,0.6-4-0.4-5.9-0.7   l0,0c-1.1-0.5-2.2-1.1-3.2-1.7l0,0c-1.2-0.9-2.4-1.9-3.3-3.2l0,0c-0.3-0.6-0.5-1.1-0.8-1.7l0,0c-0.1-0.5-0.2-0.9-0.2-1.4   c0.4-0.4,0.7-0.7,1.1-1.1c4.5,7.9,13.3,8.4,20.6,4.8c0.3,0.2,0.6,0.5,1,0.7c-0.8,0.5-1.5,1-2.5,1.6c1.2,24.1-6.6,47.5-3.1,71.7   c0.5,7.9,6.2,15.1,2.6,23c0.8,0.5,1.4,0.9,2.3,1.4c4,19.4-3.8,43,10.4,59.4c0,11.7-0.7,23.3,3.4,34.5c7.3,1.5,7.7,3.1,14.2-0.8   c0.2,0.5,0.4,1,0.7,1.5c5-1.1,7.9-5.2,10.2-9.5c1.2,0.5,0.5,1.6,0.8,2.4c-3.9,10-15.9,11.8-25,8.9c8.8,14.8,8.6,34.1,12.1,50.3   c-0.1-0.5-0.2-1-0.3-1.5c-0.6,0.5-1.1,0.9-1.5,1.2c-0.1-1.4,0.6-3.1-0.6-4.1l0,0c-0.3-0.8-0.6-1.6-0.9-2.4l0,0   c-0.3-0.9-0.5-1.9-0.8-2.8c0.1-0.2,0.1-0.3-0.1-0.4c0.1-1.5,0-2.9-0.8-4.2c0.2-0.2,0.2-0.5-0.1-0.7c0.1-0.9,0.1-1.9-0.7-2.5l0,0.1   c-0.3-1.1-0.6-2.2-0.9-3.2l0,0c-1.4-4.3,0.1-8.8-1.7-12.9l0,0c0-0.9,0-1.8-0.8-2.5l0,0c-0.3-0.8-0.6-1.6-0.8-2.5c0,0,0,0,0,0   c-0.3-0.8-0.5-1.7-0.8-2.5l0,0.1c0.1-1.4-0.5-2.5-1.7-3.2l0,0c-0.3-1.5,0.2-3.2-1.6-4.1l0,0c-0.6-1-1.2-2.1-1.7-3.2l0,0   c-0.3-0.6-0.5-1.2-0.8-1.8c0.1-0.2,0.1-0.4-0.2-0.6c-0.2-0.6-0.4-1.3-0.6-1.9c0.1-0.2,0.1-0.4-0.1-0.5c-0.2-0.9-0.5-1.8-0.7-2.7   c0.1-0.2,0.1-0.4-0.1-0.5c0-1.4,0.1-2.9-0.7-4.2c0.2-0.2,0.1-0.5-0.1-0.7c-1.8-6.9,0.7-14.7-0.7-21.1l0,0c-0.3-0.5-0.6-1-0.9-1.6   l0,0c-0.3-0.5-0.6-1.1-0.8-1.6l0,0c-1.1-2.1-2.2-4.3-3.2-6.5l0,0c-0.2-0.6-0.5-1.2-0.7-1.7l0,0.1c-0.3-0.8-0.6-1.6-0.9-2.4l0,0   c-0.3-0.8-0.5-1.6-0.8-2.5l0,0c-0.3-1.1-0.5-2.2-0.8-3.4c0.2-0.2,0.1-0.5-0.1-0.6c0-2,0.3-4-0.7-5.9c0.2-0.2,0.1-0.4-0.1-0.5   C394.7,164.5,394.3,161.2,394.5,158z" />
	<path fill="#030203" d="M421.8,279.1c0.5-0.4,1-0.8,1.5-1.2c0.4,6.3-0.3,12.6,0.6,19c19.2,0.2,37.8,14.6,56.8,7.7   c6.7-36.1,15.2-71.5,10.5-108.6c0.3,0,0.6,0,0.8,0c0.7,1.5,1.3,3.1,2.1,4.9c2.2-6.9,4.3-14.7,9.8-19.6c0.4,0.4,0.8,0.8,1.2,1.2   c-0.1,0.4-0.2,0.8-0.4,1.2c0,0,0,0,0,0c-0.3,0.3-0.5,0.6-0.8,0.9l0,0c-0.7,0.8-1.1,1.6-1.6,2.5c0,0,0,0,0,0   c-0.3,0.6-0.6,1.1-0.8,1.7l0,0c-0.3,0.6-0.5,1.1-0.8,1.7l0,0c-0.9,0.6-0.8,1.6-0.8,2.5l0,0c-0.3,0.8-0.6,1.6-1,2.3l0-0.1   c-0.2,0.6-0.5,1.2-0.7,1.7l0,0c-0.3,0.8-0.6,1.6-0.9,2.4l0-0.1c-0.8,0.7-0.8,1.6-0.7,2.5c-0.2,0.1-0.2,0.3-0.1,0.5   c-0.3,0.9-0.5,1.8-0.8,2.7c0,0,0,0,0,0c-0.3,0.6-0.5,1.1-0.8,1.7c0,0,0,0,0,0c-1.1,0.9-0.8,2.1-0.8,3.3c-0.1,0.1-0.2,0.3,0,0.4   c-0.9,2.8-1.2,5.7,0,8.5l0-0.1c0,0.5,0,1.1,0,1.6c-0.2,0.1-0.2,0.3-0.1,0.5c-1.1,5.4-1.2,11.9,0.1,17.3c0,0,0,0,0,0   c0.3,1.1,0.5,2.2,0.8,3.3l0-0.1c0,1.3,0,2.6,0,3.9l0-0.1c-0.3,1.6-0.6,3.3-0.9,4.9l0.1-0.1c-0.3,1.1-0.6,2.2-0.9,3.3l0.1-0.1   c-0.9,1-0.8,2.2-0.8,3.3l0-0.1c-0.8,1-0.8,2.2-0.8,3.3l0,0c-0.9,1.2-0.8,2.6-0.9,4.1l0,0c-0.8,1-0.8,2.1-0.8,3.3l0,0   c-1.1,1.5-0.8,3.2-0.9,4.9l0-0.1c-0.3,0.6-0.5,1.1-0.8,1.7l0,0c-1.2,3.6-1.3,7.6-1.7,11.3c0,0,0-0.1,0-0.1   c-0.3,0.8-0.5,1.7-0.8,2.5c-1.1,0.5-1,1.5-0.8,2.4c-0.2,0.2-0.2,0.3-0.1,0.5c-0.3,2-0.5,3.9-0.8,5.9l0,0c-0.7,2.4-1.4,4.7-1.4,7.2   c0.9,0.1,1.6,0.2,2.2,0.2l0,0c0.3,0.5,0.6,1,0.9,1.6l0,0c0,0.5-0.1,1.1-0.1,1.6c-0.5,0.3-1,0.5-1.5,0.8c-0.1-1-0.3-1.9-1.6-1.5   c-0.2,0.2-0.5,0.5-0.7,0.7c0.1,0.6,0,1.1-0.2,1.6c-4.2-0.2-7.9,1.9-12,2.4c0,0,0,0.1,0,0.1c0.4-0.4,0.8-0.9,1.2-1.4   c-2.2-0.1-4.1-0.2-6.1-0.3c-8-1.4-16.2-3.5-24.2-6.5c-0.4-0.8-1.1-0.7-1.8-0.6c-2.3-0.7-4.2-1.8-6.3-0.1c-1.4,0.2-1.9-1-3.1-1.6   c-0.5,0.1-1,0.2-1.4,0.3c-0.9-1.2-0.9-1.2-2.8-1.1c-0.6,0-1.3-0.1-1.5,0.7c-0.3,1.5,1.3,1.6,2.4,1.5c0.1,1.2,3.1,0.7,1.5,1.8   c-10.4-1.2-7.5-3.2-14.9,5.8c1.6,3.5,0.1,7.4-1.4,10.7c-4.5,8.4-2.1,18.2-4.5,27c-0.3,0-0.7,0-1,0c0-1.9,0-3.8,0.1-5.7   c2.2-4-1.2-10.4,0.8-15.3c0.2-0.2,0.3-0.4,0.1-0.6c0.3-1.1,0.6-2.3,0.8-3.4l0,0.1c0.2-1.8,2.2-2.3,2.4-4.1c0,0,0,0,0,0   c0.3-1.1,0.6-2.2,0.9-3.2l0,0.1c1.8-2.4-0.7-4.6,0.1-7.3l-0.1,0.1c0.3-0.3,0.5-0.6,0.8-0.9l0,0c0.3-0.3,0.6-0.6,0.8-0.8l0,0   c0.3-0.3,0.6-0.5,0.9-0.8l0,0c0.3-0.3,0.6-0.5,0.9-0.8c0,0,0,0,0,0c0.3-0.3,0.6-0.6,0.9-0.8c0,0,0,0,0,0c0.6-0.8,1.1-1.7,1.6-2.5   l0,0c1.3-0.9,0.4-2.8,0.8-4.1l0,0.1c0.3-0.3,0.6-0.6,0.9-0.8c0.2,0.1,0.4,0.1,0.6,0c0.3,0.2,0.6,0.3,0.9,0.4c0-2.9,0-5.8,0-8.6   c0.2-0.2,0.3-0.4,0.1-0.6c0.3-2.5,0.5-5,0.8-7.5c0.1-0.1,0.2-0.3,0-0.4C421.4,279.3,421.6,279.2,421.8,279.1z" />
	<path fill="#080707" d="M456.7,532.7c-0.3,0-0.7-0.1-1-0.1c-0.8-12.3,4-32.3-1.4-42.7c-5-14.5-1.4-29.3,4.6-42.8   c0.6,0.7,1.1,1.4,1.7,2.1c-0.1,0.2-0.1,0.4-0.1,0.5c-4.9,13.2-9,30.1-2.1,42.9C459.6,505.9,458.5,519.7,456.7,532.7z" />
	<path fill="#181515" d="M531.8,53.8c-0.2,0.1-0.3,0.3-0.2,0.5c-0.9,1.6-2.2,2.8-3.4,4.2l0.2,0.1l-0.1-0.2c-0.3,0.3-0.5,0.6-0.8,0.9   l0.1,0c-0.6,0.3-1.2,0.6-1.8,0.9l-0.3,0c-0.8,0.5-1.8,0.6-2.7,0.9l0,0c-1.6,0-3.2,0-4.8,0c-1.6-1.1-1.8-1-2.4,0.8   c-0.2,0.1-0.3,0.3-0.2,0.6c-0.2,0.6-0.5,1.2-0.7,1.8c-0.2,0.1-0.2,0.3-0.2,0.5c-0.5,0.7-1.1,1.3-1.6,2c-2.2-1.3,0.9-3.2-0.7-4.8   c0-0.4,0-0.7,0-1.1c0.4,0.1,0.7,0.2,1.2,0.3c0.3-0.7,0.5-1.4,0.8-2.2c-0.8-0.4-1.5-0.8-2.2-1.2c0.3-0.2,0.6-0.5,0.8-0.7   c3.7-0.2,6.9,4.3,10.5,1.7c7.6-0.3,10.4-18.5,1.6-16.3c-0.1-1-0.9-1.2-1.6-2.4c-0.3,1.9,0.7,3.1-0.8,4.1c-0.6-2.6-1.1-5.7-4-6.3   c-0.5-1.2-1.9-0.8-2.4-2c1.5-0.7,1-1.6,0-3.2c0,1.5,0,2.4,0,3.3c-2.3,1.2-4.4,0.7-5.7-1.4c-0.7-1.4-2.3-0.3-3.5-1.6   c-0.3-0.4-0.8-1.2-1.4-2.1c-1.2,0.1-2.1,0.8-3.1,0.4c0-0.3,0-0.7,0-1c2.1,0,1.4-1.2,1.5-2.9c-2.1,0.1-4.5,3.1-4.7,0.1   c0.3-0.3,0.7-0.6,1-0.8c0.3,0.1,0.5,0,0.6-0.2c1-0.2,1.9-0.5,2.9-0.6c0.7,0.5,1.4,0.9,2,1.5c0.2,0.8,0.6,0.6,1,0.1   c2.7-0.2,5.1,1,7.7,1.6l0,0c0.3,0.3,0.5,0.6,0.8,0.8l0,0c0,1.1,0.5,1.7,1.7,1.5c0.1,0.2,0.3,0.2,0.4,0.2c0.4,0.3,0.7,0.6,1.1,0.8   l-0.1-0.1c-0.5,5.2,5.6,5.7,9,8l0,0c0.5,0.3,1.1,0.6,1.6,0.9l0,0c0.3,0.3,0.6,0.5,0.9,0.8l0,0c0.3,0.3,0.5,0.6,0.8,0.9l-0.1-0.1   c0.7,1,1.3,2.1,1.8,3.2c-0.1,0.3-0.1,0.5,0.1,0.8c-0.1,1.6-0.1,3.2-0.2,4.8l0-0.1C531.4,51.9,531.9,52.9,531.8,53.8z M514.8,34.2   c-0.6-1.6-0.7-4.8-2.8-3.5C512.4,34.5,512.4,34.5,514.8,34.2z M507.7,29.5c-0.1,3.1,0.6,3.5,3,2.8C510,30.8,509.7,29.2,507.7,29.5z   " />
	<path fill="#161111" d="M400.1,6.2c0.7-0.1,1.2-0.4,1.7-0.8c0.6,0.1,1.1-0.6,1.7-0.8c0.2,0.1,0.4,0.1,0.5-0.2   c1.1-0.1,2.3,0.4,3.1-0.8c1.7-0.2,3.5-1.2,4.9-0.1c0.5,0.9,1,0.7,1.6,0.1c0.9-0.2,1.7-0.5,2.6-0.7c0.2,0.1,0.4,0.1,0.6-0.2   c0.6-0.2,1.2-0.4,1.7-0.7c0.3,0.1,0.5,0.1,0.7-0.2c2.2,0.1,4.3-0.2,6.5,0.1c0.3,0.3,0.5,0.5,0.8,0.8c0,0.3,0,0.6,0,0.9   c-2.2-0.1-4.6-1.6-6.6-0.2c-1.5,0-2.7,0.8-3.9,1.7c-2.2-0.5-4.8,1-3.9,3.4c0.6,3.8-4,2.6-6,4.3c-1.8,0.7-4-0.2-5.5-1.3   c-0.2-0.5-0.3-0.5-0.5,0c-0.4,0.3-0.7,0.5-1.3,0.9c1,0.9,1.8,1.7,2.6,2.5c-0.3,0.3-0.6,0.5-0.9,0.8c-2.5-1.4-7-5-9.6-2.5   c-2.9,0.4-5.2,1.9-8,2.4c-0.5-0.2-1.1-0.4-1.6-0.7l-0.1-0.3c1.7-0.8,3.4-1.4,5.1-2.2c1.3-0.9,4.5-0.4,4.6-2.5l0,0   c0.6-0.9,1.5-1.2,2.5-1.6c0,0,0,0,0,0c1.3-1.3,3.1-0.3,4.3-1.6c0.2,0.1,0.4,0,0.5-0.2C399,6.7,399.6,6.4,400.1,6.2z M399.2,8.9   c1.6,1.8,6.6,4.7,7.2,1.1c-0.8-1.2-2.2-1.7-3.6-2.2C401.7,8.1,400.6,8.5,399.2,8.9z M404.6,6.3c1.4,1.3,2.7,2.6,4.1,3.9   c0.9-0.1,1.8-0.3,1.9-1.8C409,6.7,407.1,5.7,404.6,6.3z M393.8,10.6c2.3,1.7,2.3,1.7,4.6-0.1C396.9,8.5,395.4,9.9,393.8,10.6z    M410.8,6.2c0-0.3,0.1-0.6,0.1-0.8c-0.6,0-1.1,0.1-1.7,0.1c0,0.2,0,0.3,0,0.5C409.7,6,410.3,6.1,410.8,6.2z" />
	<path fill="#111010" d="M519.5,119.6c-0.1,1.2-0.4,2.4-0.6,3.6c-0.2,0.2-0.3,0.4-0.1,0.7c-0.3,1.1-0.5,2.3-0.8,3.4   c-0.2,0.1-0.2,0.3-0.1,0.4c-0.3,0.9-0.5,1.8-0.8,2.8l0,0c-1.8,5.1-0.4,10.9-0.8,16.2c-0.2,0.2-0.2,0.4-0.1,0.6   c-1,1.6-0.8,3.3-0.8,5l0-0.1c-0.9,1.3-0.8,2.7-0.8,4.1c-0.2,0.2-0.2,0.3-0.1,0.5c-0.3,1.7-0.5,3.4-0.8,5.1   c-0.2,0.1-0.2,0.3-0.1,0.5c-0.3,1.4-0.6,2.9-0.8,4.3l0-0.1c-0.5,1.9-1.1,3.8-1.7,5.7c0,0,0.1-0.1,0.1-0.1c-0.4,0.7-0.9,1.3-1.5,1.8   c-0.3-0.4-0.6-0.7-0.9-1.1c1.5-10.9,7.1-22.1,4.9-33.1c-1.4-7.4,3.2-14.9,4.3-22.3c0.3,0,0.6,0,0.8,0   C519.1,118.3,519.3,119,519.5,119.6z" />
	<path fill="#141212" d="M517.9,93.6c-0.1,0.3-0.1,0.5,0.2,0.6c0.2,0.8,0.5,1.6,0.7,2.5l0,0c0.2,1.5,0.5,2.9,0.7,4.4   c-0.1,0.1-0.1,0.3,0,0.4c0.3,4.6,0.1,9.1,0,13.7c-4.3-9.6-2.1-22.4-5.6-31.5c-0.6-2.2,0.9-5.3-0.8-7.3c-0.5-1.1,0.5-2.5-0.8-3.2   c-0.4-1.5-0.2-3.5,0.8-4.9c0,0,0,0,0,0c0,0.7-0.1,1.3,0.7,1.7c0.7,1.7-0.9,3.5,0.9,4.8c0.5,1.4-0.7,3,0.7,4   c0.7,2.3-0.8,5.3,0.9,7.3C516.7,88.8,515.6,91.7,517.9,93.6z" />
	<path fill="#10100F" d="M431.5,455c-0.1-0.8,0.4-1.8-0.7-2.3c4.8-6,5.6-14.1,7.4-21.2c0.9,0.1,1.5,0.1,2.2,0.1   c0.2,0.9-0.3,2.1,1,2.6c-0.8,1.2-1.7,2.2-1.8,3.9c0,5.9-4.8,9.8-5.8,15.3C433.1,454,432.3,454.5,431.5,455z" />
	<path fill="#1A1717" d="M493.8,52c0.1-0.3,0.1-0.5-0.2-0.6c0.2-1.2-0.7-1.4-1.5-1.8c0.3-0.3,0.6-0.5,0.9-0.8   c2.3,0.1,4.2,1.7,6.3,2.4c0,0.3,0,0.6-0.1,1c-1-0.2-1.9-0.5-3.5-0.8c5.2,8.4,6.9,16.7,7.5,25.8c-1.6,2-0.2,4.9-0.9,7.3   c-1.7-4.3-0.2-9.3-1.5-13.8l0,0c-0.2-0.6-0.5-1.2-0.7-1.8l0.1,0.1c-0.7-1.8,0-3.9-0.9-5.7c0,0,0.1,0.1,0.1,0.1   c-0.3-0.6-0.6-1.1-0.8-1.7c0,0,0,0.1,0,0.1c-0.3-0.5-0.6-1-0.9-1.6l0,0c-0.6-1.1-1.1-2.2-1.6-3.3l0,0c-0.3-0.5-0.6-1.1-0.9-1.6   c0,0,0,0,0,0c-0.3-0.5-0.6-1.1-0.9-1.6c0,0,0,0,0,0C494.3,53.2,494.1,52.6,493.8,52z" />
	<path fill="#201E1D" d="M478.4,165.3c3.6-8.3,2.7-19,5.6-26.6c0.3,0.9,0.5,1.8,0.8,2.6c-0.2,0.2-0.1,0.4,0.1,0.6   c1.4,4.2-3.6,8.2-0.9,11.9c0.5,1.9-0.9,3.5-0.8,5.3c-1.6,1.2-4.1,5-2.3,6.3c-0.4,0.4-0.7,0.9-1.1,1.3   C479.2,166.1,478.8,165.7,478.4,165.3z" />
	<path fill="#282324" d="M475.3,37.4c0.8-1.9-0.3-4.1-2.4-4l0,0c-0.3-0.3-0.6-0.5-0.9-0.8l0,0c-0.6-1.9-0.4-3.7,0-5.6c0,0,0,0,0,0   c0.3-0.3,0.6-0.6,0.8-0.8l0,0c2.7-0.4,5.8,0.5,8.1-0.8l0,0c0.9-0.2,1.8-0.2,2.7,0.1c-0.8,1.1-1.9,2.1-2.8,3.1   c-6.6-4.8-10.6,2.6-5.6,3.2c1.5,2.3,4.6,1.7,6.4,3.1c-1.4,1-2.3,0.9-4,0.3c0,2.3,0.1,4,1.7,5.6c-0.3,0.2-0.5,0.4-0.8,0.6   C476.5,40.8,475.5,39.6,475.3,37.4z" />
	<path fill="#252020" d="M426.7,3.9c0-0.3,0-0.6,0-0.9c0.3,0,0.5-0.1,0.8-0.1c0.2,0.2,0.4,0.3,0.6,0.2c0.6,0.3,1.2,0.5,1.8,0.8   c0,0,0,0,0,0c0.7,0.5,1.3,1,1.9,1.5c0.2,0.5,0.4,0.6,0.7,0.1l0,0c1.4-1,3.1-0.8,4.8-0.8c0.3,0.2,0.5,0.4,0.8,0.5   c0.1,0.3,0.3,0.4,0.6,0.3c0.3,0.4,0.6,0.7,0.9,1.1c-0.1,0.2,0,0.3,0.2,0.4c-0.1,1.6-0.2,3.1-0.3,4.7c0,0,0.1-0.1,0.1-0.1   c-2.7,0.2-3.8,2.5-4.6,4.7c0,0.2,0,0.3-0.1,0.4c-1.9-1.7-0.5-4.9-0.7-7.3c0.3,0,0.5,0,0.8,0l0,0c-0.1,0.7,0,1.3,0.7,1.7   c0.3,1.1,1.7-0.6,2.3-0.7c0.4-1.7,0.1-3-1.2-4.1c-0.8,0.3-1.7,0.5-2.6,0.8c-1.5-0.6-2.8,0.2-4.2,0.7C428.9,6.5,427.8,5.2,426.7,3.9   z" />
	<path fill="#1D1A18" d="M501.7,80.2c0,1.5,0,3,0.8,4.3c-1.3,6.2-2.4,12.6-4.9,18.6c-0.7-1.3-0.8-2.6-0.7-4c0.2-0.1,0.2-0.3,0.1-0.5   c0.2-0.9,0.4-1.8,0.7-2.8c0.2-0.2,0.3-0.3,0.1-0.6c0.3-1.1,0.5-2.3,0.8-3.4l0,0c0.3-1.1,0.6-2.2,0.8-3.3c0,0,0,0,0,0   c0.2-0.8,0.5-1.7,0.7-2.5c0.2-0.2,0.3-0.3,0.1-0.6c1.1-1.6,0.6-3.3,0.8-5l0,0C501.3,80.5,501.5,80.3,501.7,80.2z" />
	<path fill="#35312F" d="M496.9,101.3c0.2,0.6,0.5,1.1,0.7,1.7c-1.6,6.9,0.7,14.4-1.3,21c-0.3-0.5-0.6-1.1-1-1.6l0,0   c0-5.4,0-10.8,0-16.1c0.2-0.2,0.2-0.3,0.1-0.6c0.2-1.2,0.5-2.3,0.7-3.5c0.2-0.1,0.2-0.3,0.1-0.5   C496.5,101.7,496.7,101.5,496.9,101.3z" />
	<path fill="#252425" d="M381.5,15.2c0.5,0.2,1.1,0.4,1.6,0.7c-6.1,1.7-7.9,7.9-7.1,13.6c-0.4,0.4-0.7,0.7-1.1,1.1   c-0.2-0.1-0.4-0.2-0.6-0.3c-0.7-2.5-1.4-5.3-0.2-7.9c0.2-0.2,0.3-0.4,0.2-0.6c0.3-0.6,0.6-1.2,0.9-1.7l0,0.1   c0.5-0.8,1.1-1.6,1.7-2.4l-0.1,0.1c0.3-0.3,0.6-0.6,0.8-0.9l-0.1,0.1c0.9-0.8,2-1.3,3.1-1.8C381,15.1,381.3,15.2,381.5,15.2z" />
	<path fill="#C6C3C2" d="M483.9,153.7c-2.6-3.3,1.7-6.7,1-10.3c0.2,0,0.5,0.1,0.7,0.1c-0.1,1.1,0.2,2.1,0.7,3.1   C485.5,149,484.8,151.4,483.9,153.7z" />
	<path fill="#242728" d="M433.8,13.9c0.3,0.9-0.3,2.2,1,2.7c0,0.3,0.1,0.5,0.1,0.8c-0.2,0.1-0.3,0.3-0.2,0.6   c-0.2,0.1-0.5,0.2-0.7,0.2C432.3,17.7,431.2,11.1,433.8,13.9z" />
	<path fill="#574E4A" d="M493.6,132.2c0.2-0.1,0.3-0.3,0.2-0.6c0.2-0.1,0.4-0.3,0.6-0.4c0.2,0.7,0,1.6,1,1.8c0,0.2-0.1,0.5-0.1,0.7   c-0.7,0.9-1.4,1.9-2.1,2.8c-0.3-0.4-0.6-0.7-0.9-1.1c0-0.3,0-0.5,0-0.8l0,0C492.8,133.9,493.2,133,493.6,132.2z" />
	<path fill="#475797" d="M484.9,307.4c0.5-0.3,1-0.5,1.5-0.8c0.1,0.3,0.2,0.5,0.2,0.8c-0.1,0.3-0.3,0.5-0.1,0.8   c-0.1,0.2-0.1,0.5-0.1,0.8c-1.3,0.7-2.9-0.1-4.1-0.8c0.1-0.3,0.2-0.5,0.3-0.8C483.4,307.7,484.1,308.9,484.9,307.4z" />
	<path fill="#32302E" d="M519.5,115.2c0.1,0.5,0.1,1.1,0.2,1.6c-0.2,0.2-0.2,0.5-0.1,0.7c-0.4,0.3-1,0.1-1.5,0.1   c0-1.6,0-3.3-0.1-4.9C518.5,113.6,519,114.4,519.5,115.2z" />
	<path fill="#191817" d="M516.5,82.9c0,1.1-0.1,2.2-0.1,3.2c-1.5-1.8-0.5-4.4-0.7-6.6c0.2,0.1,0.4,0.2,0.7,0.2l0-0.1   c-0.1,0.3,0,0.5,0.2,0.7C516.4,81.3,516.4,82.1,516.5,82.9z" />
	<path fill="#3C3031" d="M489.7,23.9c0.5,0.1,0.9,0.1,1.4,0.2c0.1,0.2,0.2,0.4,0.4,0.6c-2,0-4,0-6.1,0c0.1-0.2,0.2-0.4,0.4-0.6   C487.1,24,488.4,24.1,489.7,23.9z" />
	<path fill="#D7D4D4" d="M476.8,42.6c0,0.5,0,1.1,0.1,1.6l0,0c-0.3,0-0.5,0-0.8,0c-0.3-0.3-0.5-0.6-0.8-0.9c0.3-0.3,0.5-0.5,0.8-0.8   C476.3,42.5,476.5,42.5,476.8,42.6z" />
	<path fill="#191817" d="M514.8,76.2c0.2,0.2,0.4,0.4,0.6,0.5c-0.2,0.2-0.1,0.4,0.1,0.6c0,0.5-0.1,1.1-0.1,1.6   C514.3,78.2,514.8,77.1,514.8,76.2z" />
	<path fill="#191817" d="M516.5,90.6c0.2,0.1,0.4,0.3,0.7,0.4c0.2,0.5,0.2,1,0,1.5C516.2,92.2,516.4,91.4,516.5,90.6z" />
	<path fill="#191817" d="M514,69.2c-0.1,0.3-0.1,0.5-0.2,0.8c-0.8-0.3-0.7-1-0.7-1.7c0.2,0.1,0.4,0.2,0.7,0.3   C513.7,68.8,513.8,69,514,69.2z" />
	<path fill="#3C3031" d="M482.2,25.5c0.1-0.2,0.2-0.4,0.3-0.7c0.3,0.1,0.5,0,0.7-0.2c0.3,0.1,0.6,0.1,0.8,0.2c0,0.3,0,0.6,0,0.8   C483.6,26,482.8,25.5,482.2,25.5z" />
	<path fill="#3C3031" d="M492.1,24.8c0.3,0,0.5-0.1,0.8-0.1c0.1,0.2,0.3,0.3,0.6,0.2c0.1,0.2,0.2,0.5,0.4,0.6   C493.2,25.6,492.5,25.7,492.1,24.8z" />
	<path fill="#3C3031" d="M496.2,26.3c0.3,0,0.6-0.1,0.8-0.1c0.2,0.2,0.5,0.3,0.7,0.2c0.1,0.2,0.2,0.4,0.3,0.7   c-0.6,0.2-1.2,0.2-1.8,0.1C496.2,26.9,496.2,26.6,496.2,26.3z" />
	<path fill="#4B65C5" d="M406.7,340c0.2-0.1,0.4-0.1,0.5-0.1c0.2,0.6,0.2,1-0.5,1.3C406.7,340.8,406.7,340.4,406.7,340z" />
	<path fill="#3C3031" d="M495.4,25.6c0.1,0.2,0.2,0.4,0.4,0.6c-0.4-0.2-0.8-0.4-1.2-0.5c0,0-0.1-0.3-0.1-0.3   C494.8,25.4,495.1,25.5,495.4,25.6z" />
	<path fill="#5876E8" d="M470.3,310.6c3.9-0.4,7.4-2.5,11.3-2.4c-0.1,0.5-0.2,1-0.4,1.7c1.6,0,3,0,4.4,0   c16.8,33,5.6,73.9,11.7,109.5c-9.2,1.2-18.7,2.6-27.8,2.7c0.2-2.6-1.1-5-1.4-7.6c0.9,0.1,1.7,0.2,2.6,0.2c0.7-0.9,1.4-1.6,2.1-2.4   c1.2,0.2,2.5,0.4,3.9,0.6c-2-2.4-4.8-2-7.2-3.8c0.3-3.6-1.8-6.1-3.9-8.5c-0.3-1.6,0.1-2.9,0.7-4.4c0.9-0.3,0.9-1,0.7-1.7   c1.1,0.5,1.8,1.3,1.8,2.6c0.7,1,1.4,1.8,2.5,2.3c2.5,5.3,6.2,9.1,10.3,10.7c-1.5-4.6-1.7-5.1-4.5-8.2c-3.1-3.5-4.8-8.5-8.4-11.3   c0-0.3,0-0.5,0.2-0.8c0.9-0.4,0.8-1.1,0.7-1.8c0.3-0.8,0.6-1.5,0.9-2.3c5.1,4,7.8,10.8,14.9,11.4c-3.8-4.8-6.8-8-10.9-12.1l0,0   c-0.8-0.8-1.5-1.7-2.4-2.6c-0.2-2.8,0.4-5.6-0.3-8.4c-24.9,60.8,6.8,47.4-67.6,43.2c2-1.9,5.4,0.5,7.2-1.7c3.6-5.1,2-10.8,4.5-16.2   c2,5.2,5,8.8,4.6,14.4c2.9-1.9,2.2,2.7,4.7,3.2c0.1-6-2.5-12.3-5.5-17.4l0,0c-0.1-0.9,0.4-1.9-0.8-2.4l0,0c0.1-1.6-0.2-3.1-1.6-4   l0,0c-1.3-7.2-0.2-14.4,1.2-21.6c3.1,1.5,7.7,8.4,10.8,6.3c-0.4-1.4-2.1-2.4-1.6-4.2c-1.2-2.3-3.1-3.6-5.6-4l0,0   c-1.6-1.5-2.9-2.9-4-4.8c1.8-2.1-0.4-5.5,1.5-7.1c2.2,0.3,4.6,4.9,6.5,3.7c-1.3-2.9-7.5-5.2-5.9-8.5c1,0.7,1.9,1.9,3.7,1.5   c-1.5-1.8-2.9-3.3-4.2-4.8c0.9-3.3,0.3-5.8,1.2-9.1c5.3,2,8.9,7.1,14.9,7.3c0.5,0.9,0.5,0.6,1.9,0.3c-1.1-0.2-1.5-0.2-1.9-0.3   c-4-4.5-9.9-7-14.6-10.9c0.5-9.3,2.1-18.1,2.8-27.5c3.3-3.9-0.5-3.5-2.6-6.1c0.3-0.3,0.6-0.6,0.9-0.9c8.8,2.6,18.8,1.8,27.1,5.4   C453.6,311.4,465.4,312.6,470.3,310.6z M449.4,313.7c-0.3-1,0.5-2.4-1.4-3.1c0,5.7,2.2,15.4,6.8,17.6   C452,323.3,450.7,319.1,449.4,313.7z M430.8,315.6c1.7-1.2,6.5-7.1,2.6-7.9c-1.4,3.8-4.3,6.3-5,10.4   C429.5,317,430.2,316.3,430.8,315.6z M471.1,372.4c2-3.9,0.2-9.4,3.3-13.2c1.4-2.5,2.7-4.8,2.1-7.6   C473.2,357.9,469.6,364.8,471.1,372.4z M477.7,332.7c0.2,0,0.4-0.1,0.6-0.1c0.1-5.6-2-11-1.6-16.7c-0.1-0.9,0-1.7-1.2-1.9   C475.3,320.1,476,326.7,477.7,332.7z M478,336.8c-0.7,5.2-0.6,10.3,0.4,13.2C479.7,345.9,479.7,341.2,478,336.8z M427.2,327.6   c1.6,3.1,3.9,4.3,6.7,5.8C432.4,330.5,431.1,328.2,427.2,327.6z M459.9,325.6c3-2.3,6.8-8.3,1.8-9.2c0.4,0.8,0.7,1.3,1.1,2.1   C461.9,320.5,461.1,322.7,459.9,325.6z M470.7,330.3c2-2.4,1-5.2,1.2-8.4C469.5,324.8,470.6,327.6,470.7,330.3z M436.8,356.2   c-1.7,3.2-2.4,5.9-2.7,9.4C436.1,361.8,437,359.1,436.8,356.2z M483.6,346.1c1,2.6,1,2.7,3.1,3.6   C485.8,348.3,485.7,346.7,483.6,346.1z" />
	<path fill="#FBDFD3" d="M440.4,431.6c-0.7,0-1.3-0.1-2.2-0.1c-0.7,12.2-8.8,21-12.7,31.9c-5.7,30.2-16.2,59.9-19.3,90.8   c-1.9,1.9-5.2,0-6.9,3c-1.3-0.4-2.7-0.8-4.1-1.2c0-1.7,0-3.4,0-4.7c0.7-0.8,1.1-1.3,1.5-1.8c0-2.9,0.1-5.9-0.7-8.7   c3.4-1.1-0.5-4.5,1.6-6.5c1.3-8.1-3.6-16.9-0.9-24.3c0.3-0.8,0.2-2.9-0.9-1.5c-0.4-0.1-0.8-0.2-1.3-0.3c-1.4-16.7,1-34.6,9.2-49.2   c0.2,0.6,0.5,1.1,0.8,1.8c1.1-1.9,1.1-1.9,1.1-4.8l0,0c1.8-2.4,2.9-5.2,4.4-7.7c0.5,0.2,0.9,0.3,1.3,0.6c0.4,4.8,3.4,8.8,5.6,12.9   c1.2,3,0.5,7.5,3.2,9.5c2-3.6-2.4-10.9-4.7-15.2c1.2-9.3-8.8-24,3-28.6c5.4-2.1,6.7-7.3,14-3.8c-1.9,1.7-4.5,2.5-5.9,4.8   c-1,0-2,0-2.9,0c-1.4,0.9-1,2.2-0.9,3.3c-1.8,0.3-1.7,1.6-1.5,2.9c2.1-0.2,1.7-3.1,2.7-4.4c5.3-2,11-3.8,12.5-8.3   c1.9,0.2,3.9,0.5,5.8,0.7C442.6,426.1,441.1,428.8,440.4,431.6z M403.3,468c0.2-1.7,1.7-3.3,0.5-5.4c-1.7,2.9-2.6,7.5-2.4,10.1   C402.6,471.3,403,469.7,403.3,468z M396.9,500.4c0.1,1,0.1,1.9,0.2,3c2.1-0.9,1-2,0.6-3c0.4-3.1,0.9-6.2,1.3-9.3   c-0.4,0-0.7,0-1.1-0.1C397.5,494.1,396.4,497.2,396.9,500.4z M430.2,447c-2.6-2.7-3.7-5.9-6.3-7C422.3,443.4,426.3,446.2,430.2,447   z M437.5,426.9c-0.1,2.2-0.1,2.2,1.7,3C439.5,427.8,439.5,427.8,437.5,426.9z M398.7,483.8c0.2,0.2,0.5,0.3,0.7,0.5   c0.8-0.8,2.4-4.1,0.2-3.8C399.2,481.6,398.9,482.7,398.7,483.8z M422.2,448.5c1.2,1.6,1.3,4.4,3.1,2.9   C424.9,450.3,424.7,449,422.2,448.5z M420.6,452.7c-0.2,2.8,0,3.2,1.9,3.9C421.8,455.2,421.3,454.1,420.6,452.7z M419.8,448.2   c1.2-0.8,1.2-0.8,0.6-2C420.2,447,420,447.6,419.8,448.2z M401.3,476.9c0.4-0.4,0.5-0.8,0.1-1.3C401,476,400.7,476.4,401.3,476.9z" />
	<path fill="#FBDFD3" d="M462.4,544.1c-0.4,2.4-0.8,4.7-1.1,7.1c-0.6,0-1-0.1-1.4-0.1c-0.2-0.4-0.3-0.7-0.5-1.1   c0.4-1.1,0.9-2.2,1.3-3.1c-2.5-15.7,1-31.9,1.1-47.6c0.6-0.5,1.2-1,1.7-1.3c0.5-1.5,0.8-2.7,1.2-4c0.1-0.7,1.2-1.2,0.4-2.3   c-2.2,1.7-1.4,4.3-3.6,6c-0.7-12.9-6.8-30.8,2.3-41.6c1.5,3.3,2.1,4.1,3.8,5.4c2.5-10.7-4.5-19.9-3.8-30.5c8.6-4.4,17.1-8.5,27-8.1   c0.2,3.3-0.4,6.2-1.9,9.7c-0.7,0.1-1.4,0.1-2.2,0.2c-1.1,2.3-2.3,4.5-3.3,6.6c-7.8,4.6-9.1-8-15.2-8.2c-2.1,11,16.4,16.2,19.1,4.7   c-0.8,36.6-12.8,75-14.7,111.7c-1.2,1.6-2.4,3.4-3.7,5.1c-2,0.3-4,0.2-5.8-0.9c-0.2-3.3,2.2-6.5-0.8-9.4   C462.4,543.2,462.4,543.7,462.4,544.1z M469.4,481.7c-0.9,1.8-0.9,1.8-0.1,3.9c0.9-1.8,1.1-2.6,1.2-4.8   C469.9,481.3,469.6,481.5,469.4,481.7z M480.1,443.8c-3.3,0.6,0.1,7.7,2,8.8c1.1-2.1,0.3-3.5-1.3-4.6   C480.6,446.4,481.3,444.8,480.1,443.8z M472.9,474.7c1.1-3.9,1.2-11.8-1.4-14.6c-1.2,2.7,0.2,5.3,0.5,8c-0.6,2.8-1.9,7.3-0.2,9.5   C472.6,476.8,472.8,475.8,472.9,474.7z M467,515.2c-2,1.4-2,1.7-0.2,2.9C466.9,517,467,516.2,467,515.2z M464.4,536.5   c-1,2.4-1,2.4-0.7,3.7C464.8,539.3,464.9,538.2,464.4,536.5z M465.3,529.8c-1.7,1.2-1.7,1.2,0,2.7   C465.3,531.5,465.3,530.7,465.3,529.8z" />
	<path fill="#4B65C5" d="M417,393c1.5,1,1.7,2.4,1.6,4c-0.5-0.4-0.9-0.8-1.7-1.5c0.5,4,2.2,7.2,2.4,11.2c-1.6-2.5-2.3-4.5-3.6-7.5   c-2.7,5.1-0.3,11-4.4,15.6c-1.1-1.3-0.6-2.7-0.4-4.1c2.6-13.7-1.4-27.7,1.8-41.4c-5.8,14.5-1.9,30.8-2.8,46   c0.5,0.1,0.9,0.1,1.3,0.2c-1.8,2.2-5.2-0.2-7.2,1.7c-0.6-22.9,3.5-46.9,3.3-70.2c1.9-10.9,1-22.1,6.4-32.3c0.7,0,1.3-0.1,1.8-0.1   c0.9-1.3,1.8-2.4,3-4c0.1,4.9-0.3,8.1,0.2,12.7c0.8-6.3,1.6-13.3,2.2-19.9l0.1-0.1c2,2.6,5.9,2.2,2.6,6.1   c-0.7,9.5-2.2,18.2-2.8,27.5c4.7,3.9,10.7,6.4,14.6,10.9l0,0c-5.9-0.1-9.6-5.3-14.9-7.3c-0.9,3.3-0.3,5.8-1.2,9.1   c1.3,1.4,2.6,3,4.2,4.8c-1.9,0.4-2.7-0.8-3.7-1.5c-1.6,3.3,4.6,5.6,5.9,8.5c-1.9,1.1-4.3-3.4-6.5-3.7c-1.9,1.6,0.2,5-1.5,7.1   c0.6,0.9,1.1,1.6,1.6,2.4c-1.1,1,1.2,2.6,2.5,2.4l0,0c1.8,2.3,3.3,3.3,5.6,4c-0.5,1.8,1.2,2.9,1.6,4.2c-3.1,2-7.8-4.8-10.8-6.3   C416.8,378.6,415.7,385.8,417,393c-0.5,0.3-1.1,0.6-0.2,1.2C416.9,393.7,417,393.4,417,393z M413.8,354.5c0.2,0,0.3,0,0.5,0   c1.1-8.6,4.2-17.1,4.1-25.7C416.7,337.4,414,345.9,413.8,354.5z" />
	<path fill="#E4E4EB" d="M391.2,566.6c1.9-1.2,3.4-3.7,6-3.4c2.6-0.7,4.4-3.6,5.6-5.8c2.9-0.5,5.6-1.9,8.5-0.7   c0.6,2.4,1.1,4.6,1.7,7.1c-4.7,1.2-10.4,1.1-13.6,5.3c0.3,0.5,0.7,1.1,1.2,1.8c4.1-2.4,8.2-4.4,12.9-4.7c0.8,0.6,1,1.1,1.3,2.1   c-3.3,1.7-7.6,0.3-10.3,3.4c0.3,2,1.7,1.5,2.8,1.5c0.9,0.1,1.9,0.4,2.5-0.6c0.5-0.1,1-0.1,1.5-0.2c0.6,0.3,1.1,0.5,1.7,0.8   c-0.9,0.1-1.7,0.3-2.4,0.8c-0.2,0.7-0.5,1.4-0.7,2.1c3.4,0.5,7.2,0.3,9.6-2c0.3,0.3,0.5,0.6,0.8,0.8c0.1,0.4,0.2,0.8,0.3,1.2   c-0.9,1.6-3.5,0.5-4.3,2.6c2.2,2,4.1,0,6.4-0.4c0.3,0.5,0.7,1.1,1.2,2c4,0.2,7.4,3.7,11.5,4.2c1.3,0.4,2.6,0.4,3.5,1.6   c0,1.6,0.1,3.1-1,4.3c-3.4-0.4-6.5,0.5-9.4,2.4c-8.4-1.4-17.4-0.7-25.3-4c-4.9-2.7-10.1-2.9-15.4-1.1c-0.6-0.3-1.3-0.7-2.2-1.2   c0.3-6.2,2.8-11.9,3.5-17.8C389.8,567.8,390.5,567.2,391.2,566.6z" />
	<path fill="#EDC9B9" d="M397.6,534.3c-1.1,1.4-0.8,2.8-0.1,4.2c-3.1-0.5-0.9,4.1-0.8,5.7c-1.9,0.9-1.8,3.5-1.3,5.3   c0.5,0,0.9,0,1.3,0c-0.4,0.5-0.8,1-1.5,1.8c0,1.3,0,3,0,4.7c-0.8,0-1.5,0-2.5-0.1c4.7-27-6.6-54,0.2-80.7c6-17.8,21-33.8,16.1-53.9   c8.6,0,16.5-0.2,25.2,1c-0.9,0.6-1.4,0.9-1.9,1.3c-7.2-3.4-8.7,1.7-14,3.8c-11.7,4.6-1.7,19.3-3,28.6c-0.9-0.5-0.9-2.1-2.4-1.7   c-0.3-0.8-0.5-1.5-0.8-2.3c1.2-0.9,0.6-2-0.7-1.6c0-0.5-0.1-1.1-0.1-1.6c0.7-0.3,1.1-0.7,0.2-1.6c-0.1,0.6-0.2,1.1-0.3,1.5   c-0.4-0.2-0.7-0.3-1.2-0.5c-1.5,2.5-2.6,5.3-4.4,7.7c0-0.7-0.1-1.4-0.1-2.9c-0.8,1.8-0.8,1.7,0.1,2.8c0,2.9,0,2.9-1.1,4.8   c-0.3-0.7-0.5-1.2-0.8-1.8c-8.2,14.6-10.6,32.5-9.2,49.2c0.5,0.1,0.9,0.2,1.3,0.3c0.3,0.5,0.6,1,0.9,1.5c-0.6,1.4-1.7,2-0.8,3.6   c-1.1,1.1-1.1,1.2,0.1,2.2c0.5,5.4,1.9,10.7,1.6,16.1C396.5,532.9,396.5,533.3,397.6,534.3z" />
	<path fill="#CECEDC" d="M391.2,566.6c-0.7,0.6-1.4,1.2-2.2,1.8c-0.6,6-3.2,11.6-3.5,17.8c0.9,0.5,1.6,0.8,2.2,1.2   c5.3-1.9,10.5-1.7,15.4,1.1c8,3.3,17,2.6,25.3,4c0.1,0.5,0.2,0.9,0.2,1.4c-16.1,3-32.4-3.7-48.2-4.9c-1-5.8,5-10.9,4-16.9   c0-4.5,0.9-8.9,3.3-12.6C388.2,563,386.4,566.4,391.2,566.6z" />
	<path fill="#ECC9B9" d="M475.2,425.3c-3.9,2.5-8.4,4.4-12.7,6c-0.2,1.4-0.5,2.7,0.2,4c0.8-0.9-0.1-2.3,1.2-2.8   c-0.1,10,6.2,18.7,3.8,28.9c-1.8-1.2-2.4-2-3.8-5.4c2.8-4.4-8.4-15.8-5.9-21.4c-1.7-3.3-3.7-6.5-3.9-10.8   C461.2,423.3,468,425.8,475.2,425.3z M463.4,442.8c0.4-1.5,0.4-1.5-0.2-2.7C462,441.1,462.9,441.9,463.4,442.8z" />
	<path fill="#4A64C4" d="M472.8,412.3c-0.7,0.8-1.3,1.5-2.1,2.4c-0.9-0.1-1.7-0.2-2.6-0.2c0.3,2.6,1.6,4.9,1.4,7.6   c-3.3-0.2-6.6-0.5-10.2-0.8c1.2-4.3,2.7-8,3.8-12.2c0.5-0.3,1-0.5,1.5-0.8c2.7,1.3,5.1,3.2,8.1,3.4   C472.7,411.9,472.7,412.1,472.8,412.3z" />
	<path fill="#4B65C6" d="M474.3,384.9c4,4.2,7,7.4,10.9,12.1c-7.1-0.6-9.9-7.4-14.9-11.4c-0.2-2.6,2.3-6.8,0.2-8.6   c-0.1-1.1-0.5-2.4,1.3-3.1c0.7,2.8,0.1,5.6,0.3,8.4C472.8,383.2,473.6,384.1,474.3,384.9c-0.6,0.1-1.3,0.1-2.2,0.3   C473.3,385.9,473.9,385.8,474.3,384.9z" />
	<path fill="#4760BA" d="M465.5,398.6c0,0.6,0.1,1.3,0.2,2c2.1,2.4,4.2,5,3.9,8.5c-1.9-0.9-3.8-1.8-5.5-2.6   C463.7,403.7,464.1,401,465.5,398.6z" />
	<path fill="#4A63C2" d="M468.5,390.5c2.7,2.2,4.9,5.8,6.6,9c-2.1-1-3.9-2.8-6.4-2.5c0-1.3-0.6-2.1-1.8-2.6   C467,393,467.5,391.6,468.5,390.5z" />
	<path fill="#1F1917" d="M432.4,423.6c0.5-0.3,1-0.6,1.9-1.3c-2.7-0.4-4.8-0.7-6.9-1c2.9,0.3,6.5-0.9,9,0.6   c-1.5,3.2-4.6,6.5-9.9,6.4C427.9,426.2,430.5,425.4,432.4,423.6z" />
	<path fill="#2F2627" d="M425.8,594.8c0.9-0.3,1.9-0.6,2.9-0.9c-0.1-0.4-0.1-0.9-0.2-1.4c2.9-1.9,6-2.8,9.4-2.4   c0,0.4,0.1,0.8,0.1,1.3c-2.6,0.5-5.4,0.5-8.2,2.7c3.5,0,6.3,0,9.1,0C435,595.9,430.1,594.4,425.8,594.8z" />
	<path fill="#171718" d="M419.4,573.8c-2.4,2.3-6.2,2.5-9.6,2c0.1-5,6.8-1.2,8-4.4C419,571.9,419.5,572.6,419.4,573.8z" />
	<path fill="#C4CDD8" d="M438.9,594.2c-2.8,0-5.6,0-9.1,0c2.8-2.2,5.6-2.2,8.2-2.7c0-0.5-0.1-0.9-0.1-1.3c1.2-1.2,1.1-2.7,1-4.3   C440.1,587.2,439.6,592.4,438.9,594.2z" />
	<path fill="#E0E7E7" d="M390.5,564.7c0-2.4-0.6-3.6,0.1-5.4c2.3,0,4.6,0,7,0C395.7,562,393.2,562.2,390.5,564.7z" />
	<path fill="#292726" d="M485,457.6c-0.2-3.5,0.8-6.7,2.2-9.9c0.2,0.6,0,1.4,0.9,1.7c0,0.5,0,1.1,0,1.6c-1.4,3.1-1.1,7-1.7,10.5   C484.8,460.7,486.6,458.6,485,457.6z" />
	<path fill="#1A1C33" d="M463.8,404.3c0.1,0.7,0.1,1.3,0.2,2.2c2.8,1.3,5.9,2.8,8.8,4.3c0,0.3,0,0.6,0,0.9c-3.1-0.2-5.5-2-8.1-3.4   c-0.2-0.8-0.8-0.9-1.5-0.8C463.2,406.4,462.5,405.1,463.8,404.3z" />
	<path fill="#B6BDC2" d="M417.9,571.4c-0.6,2.3-5,1.6-6.6,0.7c1.8-0.6,3.5-1.1,5.2-1.7C417,570.8,417.4,571.1,417.9,571.4z" />
	<path fill="#4D413D" d="M461.5,447.8c0.5,0.8,1,1.7,1.5,2.5c0,1.6,0,3.1,0,5.6c-1.6-2.6-2.3-4-2.3-6.6   C461.7,449.3,461.2,448.3,461.5,447.8z" />
	<path fill="#CDBCB5" d="M488.1,443.9c0.4-3.9-1.1-7.6-0.2-11.3c0.3,0,0.6,0,0.9-0.1C488.6,436.3,489.5,440.4,488.1,443.9z" />
	<path fill="#151932" d="M485.6,309.9c-1.4,0-2.9,0-4.4,0c0.2-0.7,0.3-1.2,0.4-1.7c1.4,0,2.6,1.2,4.1,1   C485.7,309.4,485.7,309.7,485.6,309.9z" />
	<path fill="#4760BA" d="M463.1,407.5c0.7-0.1,1.3,0,1.5,0.8c-0.5,0.3-1,0.5-1.5,0.8C463.1,408.6,463.1,408.1,463.1,407.5z" />
	<path fill="#B6BDC2" d="M409.8,572.4c-0.6,1-1.6,0.7-2.5,0.6C407.9,572.2,408.8,572.2,409.8,572.4z" />
	<path fill="#4A63C2" d="M469.4,387.9c0.1,0.7,0.2,1.5-0.7,1.8C468.6,389,468.7,388.4,469.4,387.9z" />
	<path fill="#4A63C2" d="M467,394.5c0.1,0.7,0.1,1.4-0.7,1.7C466.2,395.5,466.2,394.8,467,394.5z" />
	<path fill="#171718" d="M420.2,574.7c-0.3-0.3-0.5-0.5-0.8-0.8C419.7,574.1,420,574.4,420.2,574.7z" />
	<path fill="#CCD2E9" d="M491.2,196c4.7,37-3.8,72.5-10.5,108.6c-16.1,5.6-34.4-3.3-49.6-8.1c-2.7-7.1-1.2-14.2-2.6-21.4   c-1.4-10.3-6.9-23.6-1.3-32.9c3.4,3.9,8.8,7.7,12.8,4c-0.3-0.5-0.7-0.8-1.2-0.9l0,0c-3.7-2.2-7.5-5.6-9.5-9.2   c0.5-0.8,1-1.1,1.9-1.4c1.8,0.6,4.5,3.1,6,0.9c2.6,0.4,5.5,3.2,8,2.2c-0.8-1.5-1.4-2.5-3.2-2.1c-0.3-0.9-1-0.9-1.7-0.8   c-0.8-0.5-1.7-0.9-2.5-1.4c-0.8-2.8-3.5-3.8-5.4-5.5c0.3-3.2,3.3-4.6,4-7.6c1-1.6,1-3.6,2.5-4.9c2.3,1.1,4.3,3.6,6.9,3.7   c0.1-0.8,0.1-1.7,0.2-3.1c-0.7-0.5-1.4-1.3-2.4-1.8c-1.2-0.6-0.2-2.5-1.8-2.9c3.6-11.8,5.9-24.2,1-36.7c8,7,15,15.7,21.3,24.3   c3,4.2,6.1,10.1,11.6,11c0.1,1.1-0.5,2.4,0.8,3.5c0.1-1.6,0.1-3.1,0.1-4.5c7.9-10.3-0.5-23.8-2.5-34.8c0.8,0.4,1.3,0.6,1.7,0.8   C480.3,182.5,487.6,187.9,491.2,196z M471.2,243c3.3-3.3,7.3-7.7,6.7-11.7c-3.7,3.7-4.5,9.4-9,12.7   C470.3,244.5,470.7,243.8,471.2,243z M468.7,268.7c1.5-0.1,3.2,0.2,4.6-0.5c0.9-2.5-6.8-0.2-7.6,0.9   C467,269.6,467.9,269.7,468.7,268.7z M472.8,292.8c-0.2,1-0.5,1.9-0.8,3.3c2.3-1.4,3.2-8.6,1.4-10.5   C471.3,286.9,473.2,290.6,472.8,292.8z M453.6,277.4c1,1.6-1.9,5.2,1.3,5c-0.5-4.2,1-8.8-0.3-12.6C453.1,272,453,272.8,453.6,277.4   z M435.6,256.5c-0.3-2.6-2.5-3.5-4-4.9C425.2,253.3,433.4,259.2,435.6,256.5z M458.9,257.2c0.9-3.4,8-7.9,7-10.3   c-5.2,2.9-8.6,7.9-9.3,13.9C458.6,259.8,458.3,258.3,458.9,257.2z M473.7,279.9c0,0.9,0,1.9,0,2.8c0.2,0,0.3,0,0.5,0.1   c1.1-5.6,4.8-12.7,1.4-17.9C473.3,269.5,474.8,274.9,473.7,279.9z M476.1,263.1c2.2-6.5,5.3-15.9,1.8-21.7   C477.2,248.8,476.5,255.8,476.1,263.1z M470.6,284.3c-2.2,0.7-3.9,1.3-5.5,1.8C467.1,286.4,469.1,287.3,470.6,284.3z M472.4,300.2   c-1.5,1.7-1.5,1.7-0.7,3.7C472.3,302.6,473.4,301.6,472.4,300.2z M449.4,238.7c-0.2-1.7-1-2.1-2.6-1.1   C447.8,238,448.6,238.3,449.4,238.7z M444.7,247.7c-0.2-1.7-1-2.1-2.6-1.2C443.2,247,443.9,247.3,444.7,247.7z M439.8,259.8   c-0.8-1.2-1.3-2-2.4-1.2C438.2,259.6,438.2,259.6,439.8,259.8z M453.2,236.3c0.5,1.8,0.5,1.8,1.9,1.2   C454.6,237.1,454.2,236.9,453.2,236.3z" />
	<path fill="#FBDFD3" d="M435.7,217.8c-2.2,4.3-5.2,8.4-10.2,9.5c-0.2-0.5-0.4-1-0.7-1.5c-1.7-0.1-2.4,1.5-3.9,2.3   c-1.7,0.1-3.7,0.5-5.6-0.6c0.3-0.7,0.6-1.4,0.9-2c-5.9-11.8-10.9-26.8-2.4-38.3c-0.6-7.2-8.1-11.1-9.2-18.4   c-4.3-11.1-7.6-25-2.1-36.1c-4.5-22.1-10.6-44.9-7.3-67.5c1.8-2.2,0.3-6.1,0.8-8.8c0.2-4,1.6-7.7,0.2-11.7c1.3-2,4.6-2.1,6.8-2.1   c1.6-1.7,3.1-3.2,3.6-5.4c1.5-0.6,1.6-1.9,0.2-2.9c-0.2,0.8-0.3,1.2-0.4,1.7c-2.6,2-4.2,6.4-8,5.9c-0.3-1.1-1.5-1.9-1.1-3.4   c6.6-6.3,20.4-6.8,21.9-17.3c0-1.2-0.2-2.5,1.4-3.4c1.7,1.5,1.8,3.8,2.6,5.8c-2.3,3-4,6.4-4.9,9.9c-4.3,4-10.6,6.5-10.4,13.2   c-1.2,16.1-0.6,32,5.9,47c4.7,10.5-2.5,24.8,7.1,33c2.4,12.6,7.6,25.3,8,38.3c0.6-0.2,1-0.3,1.4-0.4c13.8,9.7,15.9,30.3,8.4,44.4   l0.1,0.1c-0.3-2,0.4-3.7-1-5.5c-3.6-4.1-1-13.5-7.9-14c-0.1-0.9-0.3-1.8-1.4-2c-0.5,0.9-0.5,1.6,0.5,2.1c1.5,2.1,1.3,4.4,2.3,6.5   c4.5,6.4-0.8,13.6,0.3,20.7c2.2-1.7,1.5-5.2,2.5-7.8c0.3-0.2,0.7-0.3,1-0.5c0.8,1.9,0.8,1.9,2.9,3.8c0,0.3,0,0.5,0.1,0.8   c-0.2,0.2-0.3,0.5-0.2,0.7C437.2,215,436.4,216.4,435.7,217.8z M407.4,115.3c0.1,1-0.8,2.2,0.6,2.9c1.9-1.8,0.6-5,0.9-7.3   C407.9,112.3,407.2,113.7,407.4,115.3z M407.3,154.8c1.5,2.4,1.3,4.9,4.4,6.3c-2.1-4.9-4.2-7.6-4.7-12.9c-0.5,0.4-1.1,0.8-1.1,0.9   C406.6,151,406,153.1,407.3,154.8z M417.6,187.8c0.4-1.3,1.6-2.4,0.9-3.9c-3.2,3.2-7.4,13.6-3.2,17   C415.9,196.2,415.2,191.8,417.6,187.8z M413.9,165.2c-0.4-0.7-0.8-1.3-1.3-2.2c-0.2,3.6,1.5,7.1,2.9,10.6c0.5-0.2,0.9-0.4,1.4-0.7   C416.2,170.2,415.7,167.5,413.9,165.2z M404.4,42.5c-0.6,2.4-0.4,4.3-0.1,6.3C406.3,44.3,406.4,44,404.4,42.5z M426.4,224.6   c2.9-1.3,4.6-2.4,4.2-5.6C428.9,221.2,427.6,222.9,426.4,224.6z M403.8,64.6c-1.9,1-1.1,2.7-1.2,4.4   C403.9,67.5,404.6,66.3,403.8,64.6z M407.6,100.5c1.3-1.3,2.2-2.7,0-2.8C407.6,98.4,407.6,99,407.6,100.5z M405.6,58.3   c-0.5-0.2-0.8-0.3-1.4-0.5c0,1,0,1.9,0,2.8c0.2,0,0.3,0.1,0.5,0.1C405,59.9,405.3,59.1,405.6,58.3z M408.8,104.3   c-0.2,0-0.3-0.1-0.5-0.1c-0.5,0.9-1.2,2.5,0.5,2.6C408.8,105.9,408.8,105.1,408.8,104.3z M419.9,171.5c0.8-2.2,0.7-2.2-0.3-3.7   C419.1,169.1,419,170.3,419.9,171.5z M406.3,143.5c0-0.8,0.1-1.5,0.1-2.5C404.7,142.5,404.7,142.7,406.3,143.5z M404.7,54.6   c0.4-0.9,0.2-2.4-0.7-1.7C403.4,53.7,403.9,54.1,404.7,54.6z M420.3,180.9c0.9-1.3,1.1-1.9,0-2.7   C420.3,179.1,420.3,179.6,420.3,180.9z" />
	<path fill="#FADED2" d="M458,183.1c-3.7-2.5-7.4-5-11.1-7.6c1.2-3.4,0-8.1,2.2-10.7c1.7,1.5,2.7,4.7,5.2,4.3c0.6,0.7,1.2,1.5,1.7,2   c0.8,0,1.4,0,2,0c0.6,0.9,1.3,1.9,1.9,2.8c0,0.5,0,1,0.1,1.6c0.8-0.5,1.3-0.8,2-1.2c2.8,2.4,4.9,5.9,8.8,6.6c0.8,1.8-0.5,3.8,1.4,5   c1.8-0.4,1.2-2.3,1.4-3.6c0.5,0,0.9,0,1.4,0l0.1-0.1c1.5,7.6,5,15.6,1.6,23.1c-0.5-0.3-0.8-0.5-1.3-0.8c-0.1,0.9-0.1,1.7-0.2,2.6   c-7.8-3.8-9.6-12.2-14.8-17.5c0.2-0.3,0.5-0.5,0.9-1c1,0.8,1.9,1.5,2.8,2.2c0.9-0.7-0.8-1.9,0.7-2.3c2,0.7,2.9,1.4,5.2,0.8   C466,185.9,461.9,185.9,458,183.1z M463.5,180.4c1.1,1.4,1.6,2,2.2,2.8C466.1,181.3,466.1,181.3,463.5,180.4z M461.8,176.1   c-0.7,1.2-0.3,2,0.9,2.6C463.4,177.5,463,176.7,461.8,176.1z M473.3,195.7c-0.6,1.4-0.6,2.3,1,2.3C474.6,197,474,196.4,473.3,195.7   z" />
	<path fill="#ECC9B9" d="M454.4,169.2c-2.6,0.5-3.6-2.8-5.2-4.3c-2.3,2.5-1.1,7.3-2.2,10.7c-1.8-0.9-2.2-2.8-3.6-4.3   c3.4-5.4,2.9-11.4,3.8-17.5c0,1.2,1.5,1.9,1,3.3c-0.4,1.2,0.7,1.5,1.6,1.8c3.4,2,6.1,5.8,10.1,6.3c1.7,1.5,3.4,3,5.8,3.3   c0,0.4,0.1,0.8,0.1,1.4c1.9,0.4,3.9,0.7,5.8,1.1c0.4,4.3-0.2,9.5,1,13.4c0.3-0.2,0.7-0.4,1-0.6c0.1,1-0.2,1.8-1.3,2.1   c-1.9-1.2-0.6-3.2-1.4-5c-3.9-0.7-6-4.1-8.8-6.6c-0.7,0.4-1.2,0.7-2,1.2c-0.2-1,0-1.8,0.3-2.5c-1.1-1.7-1.7-5.6-4.3-4.1   c-1.9-2.3-2-5.3-5.1-6.7C451.5,165.1,453.4,166.9,454.4,169.2z" />
	<path fill="#C1EFF9" d="M401.6,15.2c-0.8-0.8-1.6-1.5-2.6-2.5c0.5-0.4,0.9-0.7,1.3-0.9c0,0,0.2,0.1,0.2,0.1l0.2-0.1   c1.6,1,3.8,2,5.5,1.3c2-1.6,6.6-0.5,6-4.3c6.1-0.1,7.5,8.3,4.7,12.7c-1.1,0.6-0.7,1.6-0.6,2.5l0,0c-3.9-0.5-7.6,0.2-10.8,2.3   c-0.3-0.4-0.5-0.6-0.6-0.8C405.4,21.6,404.4,18.1,401.6,15.2z" />
	<path fill="#AADDE7" d="M404.9,25.5c0.2,0.2,0.3,0.4,0.6,0.8c3.3-2,7-2.8,10.8-2.3c-0.1,0.5-0.2,0.9-0.2,1.4   c-4.8,4.3-11.4,6.9-17.7,7.4c0.8-1.9,1.6-3.8,2.3-5.7c0.6,0,1.2,0,1.8,0c0.3,1.3-1.8,2.1-0.5,3.8C403.6,29.3,404.1,27.5,404.9,25.5   z" />
	<path fill="#AFDBE4" d="M432.3,13.5c0.2,1.4-0.3,3,0.9,4c-0.5,1.6-2.5,1.5-3.2,3.1c-0.5,1.2-2,2-3.1,3c2.7-5.1,4.1-12.4-1-16.7   l0,0.1c0-0.6-0.2-1-0.9-0.9l0.1,0.1c0-0.6-0.2-1-0.9-0.9l0.1,0.1c0.1-0.7-0.3-0.9-0.9-0.9l0.1,0.1c-0.1-0.2-0.2-0.4-0.3-0.7   c-0.1,0.2-0.3,0.4-0.4,0.5c-0.9-0.3-1.8-0.5-2.7-0.8c2-1.4,4.4,0.1,6.6,0.2C429.6,6.5,430.9,10.2,432.3,13.5z" />
	<path fill="#B9E7F0" d="M412.9,6.2c1-0.9,2.1-1,3.3-0.8l0,0c0.6,0.3,1.1,0.7,1.7,1c0.4,0.7,1.1,0.6,1.7,0.6   c3.7,2.4,6.3,7.6,4.9,11.9c-0.4,0.1-0.7,0.1-1,0.1c-0.7-1.6-1-4.2-3.2-4C419.5,10.6,416,8.7,412.9,6.2z" />
	<path fill="#E4C4B5" d="M438.1,212.2c-2.1-1.8-2.1-1.8-2.9-3.8c-0.3,0.2-0.7,0.3-1,0.5c-0.1-1.3-0.1-2.6-0.2-4   c-0.6,0.1-1,0.1-1.4,0.1c0.2-0.4,0.4-0.9,0.9-1.8c-0.2-0.8-0.3-2.9-0.3-4c2.2,1.5,2.2,4.5,4.5,5.9c0.1-0.5,0.3-0.8,0.4-1.2   c1.4,0.9,0.6,2.3,0.7,3.5c-0.9,0.8-0.9,0.9,0.2,1.4l-0.1-0.1c0,1,0,2.1,0,3.1C438.5,212,438.3,212.1,438.1,212.2z" />
	<path fill="#2E2B2A" d="M398.4,32.9c6.3-0.5,12.9-3.1,17.7-7.4c0.2,0.3,0.5,0.6,0.7,0.8c-4.5,5.6-12.6,7.1-19.3,8.7   c-0.3-0.2-0.6-0.5-1-0.7c0.1-0.2,0.1-0.4,0.2-0.7C397.4,33.4,397.9,33.1,398.4,32.9L398.4,32.9z" />
	<path fill="#534540" d="M449.7,158.9c-0.9-0.3-1.9-0.6-1.6-1.8c0.5-1.4-1-2.1-1-3.3c-0.1,0.9-0.2,1.8-0.3,2.6c-1.1-2.6-0.7-5-1-8.1   c0.2-0.3,0.6-1,1.1-1.6c1.4,0.8,0.1,1.6-0.3,3c1-0.5,1.5-0.7,2-0.9c0.9,3,1.1,6.7,2.5,9.8C450.7,158.7,450.2,158.8,449.7,158.9z" />
	<path fill="#B5BCD4" d="M441.9,211.3c1.5,0.3,0.6,2.2,1.8,2.9c0.9,0.5,1.7,1.3,2.4,1.8c-0.1,1.4-0.1,2.3-0.2,3.1   c-2.6-0.1-4.6-2.6-6.9-3.7c0-0.3,0-0.5-0.1-0.8C439.7,213.3,440.9,212.4,441.9,211.3z" />
	<path fill="#CCB8AE" d="M464.9,188.5c-1.5,0.4,0.3,1.6-0.7,2.3c-0.9-0.7-1.8-1.5-2.8-2.2c-0.4,0.4-0.6,0.7-0.9,1   c-1.9-2-3.8-4-5.6-6c1.4-1.3,2.1,0.8,3.2-0.5c1.2,1.4,3,1.1,4.3,2.2c-0.7,0.2-1.7-0.4-2.3,0.6C461.7,186.9,463.3,187.7,464.9,188.5   z" />
	<path fill="#232122" d="M478.3,197.8c-1-5.1-1.5-10.5-3.1-15.6c0.9-0.3,0.7-1.1,0.8-1.7C479.3,186,479.2,191.9,478.3,197.8z" />
	<path fill="#24282A" d="M423.5,19c0.3,0,0.5-0.1,1-0.1c1.9-5.6-2.7-9.8-6-13.6c8.6,3.3,8.3,11.5,6.5,18.7   C424.1,22.5,424,20.7,423.5,19z" />
	<path fill="#1B1C1C" d="M450.9,128.1c0.5,0.4,0.9,0.9,1.6,1.5c-0.6,0.7-1.2,1.5-1.9,2.4c-0.4-0.9-0.6-1.4-0.9-2c-1,0-2,0-3.2,0   c-0.4,0.5-1,1.1-1.9,2.1c-0.4-1.8-0.4-3.2,0-4.6c1.1,0.4,1.2,0.4,1.8,1.1c0.3-0.4,0.6-0.8,0.8-1.1   C448.6,127.8,449.8,127.9,450.9,128.1L450.9,128.1z" />
	<path fill="#303333" d="M442.1,117.6c-0.2-0.3-0.5-0.6-0.7-0.9c0-0.2,0-0.4,0-0.6c0.8-0.5,1.2-1.9,2.2-1.8c1.6,1.5,3.4,2.6,5.7,2.9   c-0.9,2.1-2.1,0.8-3.3,0.6c-1.5,0.7-3.2,1.5-4.9,2.2c0.1-0.8,0.1-1.5,0.2-2.3C441.6,117.7,441.8,117.7,442.1,117.6   c0.1,0.2,0.3,0.3-0.2-0.2C442.4,117.9,442.2,117.8,442.1,117.6z" />
	<path fill="#425457" d="M425,24c3.5-5.6,4.2-11,0.9-17c5.2,4.3,3.7,11.6,1,16.7C426.3,24,425.9,25,425,24z" />
	<path fill="#483F3B" d="M448.5,140.3c-1.5,1.4-0.9,3.8-3,4.8c-0.2,0.1-0.1,0.5-0.2,0.7c-0.8-1.1-1.5-2.2-2.3-3.4   c0.5-1.1,1.1-2.1,1.6-3.2c2.3,1.6,1.8-0.3,3.3-1.6C448.8,138.4,448.6,139.4,448.5,140.3z M446,142.5c-0.1-0.1-0.2-0.2-0.3-0.3   c-0.1,0.4-0.5,0.7,0,1C445.8,142.9,445.9,142.7,446,142.5z" />
	<path fill="#292C2C" d="M468,120.1c-0.4,1.1-2.1,0.2-2.4,1.6c-0.3,1.2-1.9,0.7-2.5,1.6c-0.4-0.7-0.8-1.4-1.2-2.2   c-1.1-0.3-2.3-0.6-3.8-0.9c0.7-0.7,1.2-1.2,1.6-1.7c1.9,0,3.1,1.2,4.3,1.9C465.4,120.2,466.7,120.1,468,120.1z" />
	<path fill="#2F3436" d="M412.9,6.2c3.1,2.5,6.6,4.4,7.4,8.9c-0.5,0.3-1,0.6-1.5,0.9c-0.7-2.9-3.1-7.9-6.5-7.1   C412.2,7.9,411.8,6.8,412.9,6.2z" />
	<path fill="#A89388" d="M444.5,139.4c-0.5,1.1-1.1,2.1-1.6,3.2c-0.5-0.9-1.1-1.8-1.6-2.7c0.3-1.1,0.5-1.4,1.5-2   C443.5,138.4,444,138.9,444.5,139.4z" />
	<path fill="#272828" d="M456.4,115c0.4,3.1-1.6,4.8-3.9,4.7C453.4,117.6,454.9,116.7,456.4,115z" />
	<path fill="#383537" d="M438.9,214.6c0,0.3,0.1,0.5,0.1,0.8c-1.5,1.3-1.5,3.3-2.5,4.9c-0.3-0.8,0.4-1.9-0.8-2.4   c0.8-1.4,1.5-2.8,2.3-4.1C438.3,214,438.6,214.3,438.9,214.6z" />
	<path fill="#171A1A" d="M457.5,128.2c0.1,2.9-1.7,4.6-4,5.9c0.2-0.6,0.5-1.3,0.7-1.9C455.9,131.4,456.1,129.3,457.5,128.2z" />
	<path fill="#222222" d="M485.7,115.1c-2.1-1.3,0.2-3.7,2-3C487.5,113.4,487.1,114.5,485.7,115.1z" />
	<path fill="#C3B6AC" d="M447.9,137.7c-0.3,0.4-0.7,0.7-1,1.1c-1-0.8-2-1.6-1.5-3.3C447,135.4,447.5,136.4,447.9,137.7z" />
	<path fill="#282B2B" d="M466.4,112.9c0.3-3.2,0.4-3.2,2.9-3C468.3,111.3,467.9,111.5,466.4,112.9z" />
	<path fill="#202121" d="M451.9,112.5c1.2-0.8,2.2-1.5,3.4-2.2C455.4,112.6,455.2,112.7,451.9,112.5z" />
	<path fill="#363B41" d="M476.9,208.9c0,1.4-0.1,2.9-0.1,4.5c-1.4-1.1-0.7-2.4-0.8-3.5C476.2,209.6,476.6,209.2,476.9,208.9z" />
	<path fill="#171A1A" d="M457.4,124.6c-0.3,0.8-0.6,1.5-1.2,3C455.7,125.8,455.3,124.8,457.4,124.6z" />
	<path fill="#171A1A" d="M462.3,124.1c-0.7,1.4-1.8,1.9-3.3,1.6C459.6,124.1,460.8,123.9,462.3,124.1z" />
	<path fill="#8A9A91" d="M480.4,135.5c0.8,0,1.6,0,2.8,0C482.1,136.8,481.2,136.2,480.4,135.5z" />
	<path fill="#1B1C1C" d="M451,128.1c0.3-0.7,0.7-1.3,1.1-2.1C452.6,127.6,452.6,127.6,451,128.1L451,128.1z" />
	<path fill="#2B2D2D" d="M480.3,109.1c0.2-0.5,0.4-1,1-2.3c0.3,1.6,0.6,1.7-0.4,2.6C480.7,109.3,480.5,109.2,480.3,109.1z" />
	<path fill="#AADDE7" d="M416.4,24.1c-0.1-0.9-0.5-1.9,0.6-2.5C417,22.4,417.3,23.4,416.4,24.1z" />
	<path fill="#171A1A" d="M454,132.2c-0.2-0.4-0.4-0.7-0.6-1.1c0.2-0.1,0.3-0.1,0.5-0.2c0.1,0.4,0.2,0.8,0.4,1.2   C454.2,132.2,454.1,132.2,454,132.2z" />
	<path fill="#171A1A" d="M458.2,126.5c-0.2,0.6-0.5,1.1-0.7,1.7C457.3,127.5,457.3,126.8,458.2,126.5z" />
	<path fill="#222222" d="M486.4,110.3c0.1,0.3,0.1,0.5,0.2,0.8c-0.5,0-0.9,0-1.4,0c0-0.2,0-0.3-0.1-0.5   C485.6,110.5,486,110.4,486.4,110.3z" />
	<path fill="#CCB8AE" d="M461.7,191.1c0.2,0.2,0.4,0.4,0.6,0.7C462.1,191.5,461.9,191.3,461.7,191.1z" />
	<path fill="#383537" d="M438.1,212.2c0.2-0.1,0.4-0.2,0.7-0.2c-0.2,0.3-0.4,0.6-0.5,1C438.1,212.7,438,212.4,438.1,212.2z" />
	<path fill="#383537" d="M439.5,213.7c-0.2,0.3-0.4,0.6-0.6,0.9C439.1,214.3,439.3,214,439.5,213.7z" />
	<path fill="#CCB8AE" d="M460.5,189.6c0.6,0,0.8,0.3,0.8,0.9C461,190.2,460.8,189.9,460.5,189.6z" />
	<path fill="#171A1A" d="M459,125.7c-0.3,0.3-0.5,0.5-0.8,0.8C458.5,126.2,458.7,126,459,125.7z" />
	<path fill="#0C0A0A" d="M476,180.5c-0.1,0.7,0,1.5-1,1.8c0.2-1-0.2-1.7-1.4-2.1c0,1.4,0,2.4-0.1,3.7c-0.3,0.2-0.7,0.4-1,0.6   c-1.2-3.9-0.6-9.1-1-13.4c-2-0.4-3.9-0.7-5.8-1.1c0-0.6-0.1-1-0.1-1.4c4.4-0.3,10.7,2,12.8-3.3c0.4,0.4,0.8,0.8,1.3,1.4   c0.8-1.2,2.1-2,3.2-2.8c0.1-8.3,2.3-16.2,6.2-23.4c0.2,0,0.4-0.1,0.6-0.2c0.9,0.2,0.7,1.1,0.9,1.7c-10.3,20.9,2,17.3-14,30.6   c0.1,0.8,0.2,1.2,0.2,1.6c-0.2,0.3-0.5,0.6-0.7,0.8c-0.5-0.2-0.9-0.4-1.7-0.8C474.3,176.6,475.1,178.3,476,180.5z" />
	<path fill="#41322F" d="M471.1,136.1c-0.5,0.6-1.1,1.1-1.6,1.7c-2.6,0.7-5.2,0.2-7.8,0c0.3-2.9,4.6-0.7,6-3.1   C468.9,135.1,470.2,135.1,471.1,136.1z" />
	<path fill="#130B0B" d="M471.1,136.1c-2.2-1.9-5.4-1.5-8.1-2.2c0-0.3,0-0.6,0-0.9c3.3-0.2,9.1-1.8,9.5,3.1   C472.1,136.1,471.6,136.1,471.1,136.1z" />
	<path fill="#221816" d="M477.5,159.7c0,0.4,0.1,0.8,0.1,1.3c-1.8,0.9-5.7,2.1-6.5-0.5c0.4-0.7,0.9-1.2,1.6-1.7   C474.4,158.8,476.1,158.5,477.5,159.7z" />
	<path fill="#392A28" d="M449.7,158.9c0.5-0.1,0.9-0.1,1.4-0.2c2.9,2.2,6.6,3.5,8.6,6.6C455.9,164.6,453.1,160.8,449.7,158.9z" />
	<path fill="#441412" d="M475.2,155.7c1.3-0.1,2.6-0.2,3.8-0.3c0.8,3.5-8,1.3-10.3,1.8c0-0.3,0-0.7,0-1   C470.8,155.7,473.3,157.3,475.2,155.7z" />
	<path fill="#363734" d="M473.6,150.7c-0.9-2,4.9-3.1,5.3-1.1C477.4,150.8,476.6,150.9,473.6,150.7z" />
	<path fill="#BDAB9E" d="M471.3,157.3c1.8,0,3.7-0.1,5.5-0.1c-0.3,0.5-0.6,1-0.9,1.6c-1.7,0-3.4,0.2-4.9-0.9   C471.1,157.7,471.2,157.5,471.3,157.3z" />
	<path fill="#5B4643" d="M463.1,133c0,0.3,0,0.6,0,0.9c-0.8,0.9-1.7,1.6-3,1.4C461,133.7,461,133.7,463.1,133z" />
	<path fill="#614F4A" d="M475.2,155.7c-1,1.2-2.2,0.6-3.4,0.5C472.8,155.4,474,155.5,475.2,155.7z" />
	<path fill="#614F4A" d="M471.3,157.3c-0.1,0.2-0.2,0.4-0.2,0.6c-0.8-0.2-1.8,0.4-2.4-0.6C469.5,157.3,470.4,157.3,471.3,157.3z" />
	<path fill="#614F4A" d="M471.3,156.2c-0.9,0-1.8,0-2.7,0C469.5,155.4,470.4,155.6,471.3,156.2z" />
	<path fill="#BDAB9E" d="M477.5,159.7c-0.5-0.3-1-0.6-1.5-0.9C476.8,158.7,477.4,158.8,477.5,159.7z" />
	<path fill="#BDAB9E" d="M471.8,159.6c-0.2,0.3-0.4,0.6-0.6,0.9C471.4,160.2,471.6,159.9,471.8,159.6z" />
	<path fill="#614F4A" d="M468.6,156.3c0,0.3,0,0.7,0,1c-0.2-0.1-0.4-0.2-0.6-0.3C468.2,156.7,468.4,156.5,468.6,156.3z" />
	<path fill="#E4E4EB" d="M455.2,559.2c7.7,7.7,15-3.8,19.9-9.3c1.4,0.6,2.6,1.1,3.9,1.7c0.6,1.1,1.2,2.3,1.9,3.6   c-0.9,1.6-3.5,2.4-2.2,5.1c1.4-0.7,2.6-1.4,4-2.2c0.4,0.5,0.7,0.9,1.1,1.2c-2.1,1.9-2.1,1.9-1.9,3.6c1.3-0.2,2.5-0.4,4-0.6   c0.7,0.7,1.3,1.5,2,2.2c-0.1,1-0.3,1.9-0.4,3c1.1,0,2,0,3.1,0c0.6,0.9,1.2,1.9,1.9,3.1c1,0.5,2.3,1,3.6,1.6c0.5-0.2,1.1-0.5,2-0.9   c4.7,3.6,10.3,5.1,16.3,5.6c0.6,2.1,0.6,4,0.5,6.2c-0.6,0.2-1.1,0.3-1.5,0.5c-11-2.9-24.9,1-33.9-7.4c-8.7-0.7-18.7,6.1-26.4-0.1   C453.9,570.5,452.2,564.2,455.2,559.2z" />
	<path fill="#EBC8B8" d="M460.6,449.8c0.6,2.6,0.7,3.6,2.4,6.1c0-2.5,0-4,0-5.6c1.4,0.9,1,3.4,1.5,4.9c-10.3,10.8-3.9,29-3.1,42.5   c1.8-1.3,1.4-3,2.3-4.6c0.3,0.3,0.6,0.6,0.9,0.9c-0.4,1.3-0.8,2.5-1.2,4c-0.5,0.4-1.1,0.9-1.7,1.3c-0.1,15.8-3.6,31.9-1.1,47.6   c-0.4,1-0.8,2-1.3,3.1c0.2,0.4,0.3,0.8,0.5,1.1c-1-0.3-2-0.5-3-0.8c-0.4-18.9,2.7-37.5,1.9-56.5   C451.9,480.5,455.2,463.6,460.6,449.8z" />
	<path fill="#CECDDB" d="M455.2,559.2c-3,5-1.2,11.3-2.2,16.9c7.8,6.2,17.7-0.5,26.4,0.1c9.1,8.4,23,4.5,33.9,7.4   c-21.2,8.3-36.9-10.6-44.2-1.4c-7.7,1.4-14.9-1.1-22.2-3.9c3.9-8,2.5-17.2,7.2-24.8C455.3,555.4,455,557.2,455.2,559.2z" />
	<path fill="#F0F2F2" d="M456.9,553.4c3.4,1.4,6.8,1.3,10.4,0.8c-1,2.8-3.3,3.6-5.3,5.6C458.2,560.5,455.5,557.3,456.9,553.4z" />
	<path fill="#AF938C" d="M462.4,544.1c0-0.5,0-1,0.1-1.8c2,1.6,1.5,3.3,1.3,5C463.4,546.2,463,545.2,462.4,544.1z" />
	<path fill="#B7BDD5" d="M438.8,245.2c0.5,0.1,0.9,0.4,1.2,0.9c-4,3.7-9.4-0.2-12.8-4c-5.6,9.4-0.1,22.6,1.3,32.9   c1.9,7.4-1.2,16.4,3.9,22.6c-2.8,0.2-5.5-0.2-8.5-0.8c0.5-18.2-3.9-35-6-53.1c1.8-2.6,1.8-2.6,2-5c-2.2,0.3-1.4,2.3-2.8,3.3   c0.3-5.3-4.5-8.1-5.6-12.8c7.6,2.2,15.2,2,21.6-3.6c-0.2,0.7-0.4,1.5-0.6,2.3c1.9,1.8,4.6,2.8,5.4,5.5c-1.9-1.2-3.8-2.4-5.8-3.7   c-0.4,0.4-0.8,0.7-1.1,1c1,2.9,4,3.4,6.2,4.8c-1.6,2.2-4.2-0.2-6-0.9c-0.9,0.3-1.5,0.6-1.9,1.4   C431.3,239.6,435.1,243.1,438.8,245.2c-0.5,0-0.9,0-1.7-0.1C438,246.4,438.5,246.3,438.8,245.2z M430.1,240.9   c-0.6,2.8,2.1,4.1,4.7,3.4C433.2,243.1,431.8,242.1,430.1,240.9z M419.6,236.6c0.6-1.3,0.9-1.4,0.3-2.4   C418.9,234.7,418.4,235.3,419.6,236.6z" />
	<path fill="#EDCABA" d="M399.4,119.1c1.8,4.4,0.5,9.3,3.1,13.6c-5.5,11.2-2.2,25.1,2.1,36.1c1.1,7.3,8.6,11.2,9.2,18.4   c-8.5,11.6-3.5,26.5,2.4,38.3c-0.3,0.6-0.6,1.3-0.9,2c-1.5-0.3-3.1-0.6-4.7-0.9c-4.1-11.2-3.5-22.8-3.4-34.5   c-14.1-16.4-6.4-40-10.4-59.4c-0.8-0.5-1.5-0.9-2.3-1.4c1.6-3.7,1.3-7.4,0.6-11.1c0.4-0.3,0.8-0.7,1.1-1c2.9,2-0.5,5.5,1.8,8   c1.9-2.7,1.1-5.4,1.2-7.9L399.4,119.1z" />
	<path fill="#ECC8B9" d="M396.3,119.1c-0.4,0.3-0.8,0.7-1.1,1c-7.2-18.3-3-38.8-1.7-57.5c0.6,0.9,1.1,1.7,1.8,2.5   c-3.8,18.4,2.3,35.6,4.2,54l-0.2,0.1c-1.9-2-2.6-4.3-4-6.5C393.2,115.7,395.5,116.6,396.3,119.1z" />
	<path fill="#B9E6F0" d="M396.8,33.7c-0.1,0.2-0.2,0.4-0.2,0.7c-1.1,0.2-2,0.7-3,0.9c3.8-7.3,0.8-17-7.3-20.3c0,0,0.1,0.1,0.1,0.1   c1.4-1.1,3.1-1.1,4.8-1.6c0.6,1.1,1,2.7,2.5,2.3C401.8,20.7,398.5,26.6,396.8,33.7z" />
	<path fill="#E7C6B7" d="M395.2,65.1c-0.6-0.8-1.2-1.6-1.8-2.5c2.3-8.6,1.8-17.2,1.6-26c2.4-2,5.2-2.1,8.1-2.8   c-1.6,1.9-3.6,3.6-5.9,4.5c-0.4,2.1,1.6,3,1.1,5c-1,0.1-1.8,0.3-2.3,1.4c1.4,3.9,0,7.7-0.2,11.7C395.5,59.1,397.1,62.9,395.2,65.1z   " />
	<path fill="#A8DBE5" d="M376,29.5c0.2-2.4-0.8-5.1,0.6-7.3c0.3,1.7-0.5,4,0.5,5.3c0.4-0.1,0.8-0.2,1.1-0.3   c-0.1,0.7-0.3,1.4,0.8,1.5c-0.2,0.5-0.3,0.9-0.6,1.6c0.9,0.6,1.9,1.1,3,0.9c0.1,0.4,0.1,0.8,0.2,1.3c1.4,0,3.1,0.7,4.2,1.5   c0.5-0.5,0.9-0.8,1.2-1.2c0.2,1.4,1.5,0.5,2.1-0.1c1,0.1,1.9,0.1,2.9,0.2c-0.3,1-1,2-0.3,3.1C385.1,38,379.7,35.1,376,29.5z" />
	<path fill="#334043" d="M391.9,36c-0.7-1.1,0-2.1,0.3-3.1c2.4-2.4,0.7-5.8,2.4-8.4c1.3,3.5,1.2,6.8-1.1,9.9   C393.7,35.4,393.1,36.4,391.9,36z" />
	<path fill="#4D4B53" d="M417.1,241.9c1.4-1,0.7-2.9,2.8-3.3c-0.2,2.4-0.2,2.4-2,5C417.6,243.1,417.4,242.5,417.1,241.9z" />
	<path fill="#334043" d="M394.3,35.1c0.3-0.2,0.7-0.3,1-0.5C394.9,34.8,394.6,35,394.3,35.1z" />
	<path fill="#FBDFD3" d="M518.1,112.8c-3.9,19.4-3.3,38.5-8.7,57.9c-3.5,10.8-13.4,18.2-15.1,30.2c-7.9-17.1,6.4-16.4,6.4-24.9   c-3.2,2.5-6.1,4.9-7.9,8.5c-0.7-0.4-0.9-0.5-1.6-0.2c-0.9,1.4,0.3,3.9-2,4.7c-0.2-0.1-0.5-0.3-0.7-0.4c-1-5.5-5.6-8.9-9.1-12.8   c1.3-3,2.2-6.2,4-9c1.3,0.5,2.4,1.9,3.8,2c0.1,0.3,0.3,0.5,0.2,0.6c-0.5,1.1,1.3,2.1,0,3.2c-1,0.2-0.8,0.9-0.7,1.6   c0.4,0.3,0.7,0.5,1.1,0.8c3.8-3.3,1.2-8.3,2.4-12.4c2.5-10.9,2.2-23.1,7.6-32.9c1.4,0,0.7-1.5,1.2-1.8c1.8-0.5,6.3,1.6,5.4-1.2   c-12-20.5,2.1-45.8,0-68c0.8,0.8,1.7,1.5,2.6,2.4c3.2-2.2,0.8-7.2-1.1-9.7c3.3-2.8,1.9-9.4,6.7-10.4c0.9,1.5,0.7,2.8,0.4,4.3   c-4.5,4.5-3.5,12.1-0.8,17.2c0.1-0.2,0.2-0.3,0.3-0.5l0,0c1.2,1.1-0.1,2-0.1,3c-1.2,1.4-0.5,5.6,0,7.7c1.4,3.3,0.5,7,1.6,10.4   c-0.1,0.2-0.1,0.4,0.1,0.6c0.2,0.9,0.5,1.7,0.7,2.6c-0.1,0.2-0.1,0.5,0.1,0.7C515.7,95.6,517.6,104.1,518.1,112.8z M504.3,129.7   c0.2,0.9,0.9,0.8,1.5,0.9c-0.3,0.8,0.9,2,1.4,1c-0.2-0.7-0.6-1.1-1.3-1C506.3,129.4,504.4,127.9,504.3,129.7z M509.9,70   c0.1-0.8,0-1.5-1.3-1.4c-0.4,0.8-0.4,1.6,0.4,2.3c0.2,0.9-0.1,2.1,1.4,2.3C511,72,510.3,71,509.9,70z M487.3,177.4   c0.3,1.3-0.6,4,1.7,3.7c-0.4-1.7-0.8-3.3-1.1-5c-0.1,0-0.3,0-0.4,0C487.4,176.5,487.3,176.9,487.3,177.4z M508.2,132.6   c-0.2,0.2-0.4,0.4-0.7,0.6c0.8,1.4,0.4,3.3,1.9,4.7C510.6,135.1,510.5,133.7,508.2,132.6z M510.6,86.8c1-0.3,1.3-1.3,0.6-2   C510,84.2,509.5,86.2,510.6,86.8z M503.9,169.3c-0.4,0.5-0.7,0.8-1.1,1.2C504,170.6,504,170.6,503.9,169.3z M502.3,172.5   c-0.3,0.6-0.5,1.1-0.7,1.5C502.7,174.6,503.2,173.5,502.3,172.5z M510.9,81.7c0.2-0.1,0.3-0.1,0.5-0.2c-0.1-0.4-0.2-0.8-0.3-1.2   c-0.2,0.1-0.4,0.2-0.7,0.2C510.6,81,510.8,81.4,510.9,81.7z M510.6,76.6c-0.1-0.1-0.3-0.3-0.4-0.4c-0.3,0.5-0.3,0.7,0.2,1   C510.5,77,510.5,76.8,510.6,76.6z" />
	<path fill="#1F1A19" d="M500.3,178.3c-2.3,3.4-5.5,6-7.9,9.3c-0.1,2.9-0.2,5.6-0.3,8.4c-0.3,0-0.6,0-0.8,0c-1.8-2.2-2.8-4.8-4-7.2   c0.4,0,0.7-0.1,1.1-0.1c0.2,0.1,0.5,0.3,0.7,0.4c2.4-0.8,1.1-3.2,2-4.7c0.7-0.3,0.9-0.2,1.6,0.2c1.7-2.8,3.5-5.7,6.6-7.3   C499.6,177.6,500,177.9,500.3,178.3z" />
	<path fill="#181E3B" d="M443.5,305.9c-5.1-0.8-10.4-1.3-15.3-2.4c1.6-1.1-1.5-0.6-1.5-1.8l0,0.1c0.7-0.2,0.6-0.6,0.4-1.2   c-0.2,0.2-0.3,0.3-0.5,0.5c-0.3-0.5-0.5-1.1-0.8-1.6c1.9-0.1,1.9-0.1,2.8,1.1c0.5-0.1,1-0.2,1.4-0.3c-0.1,1-0.5,2.1,0.7,3.1   c0.6-0.1,1.4-0.1,2.1-0.2c0.1-0.5,0.2-0.9,0.2-1.3c1.6-1,3.2-1.5,4.9-0.2c-0.5,0.1-0.9,0.3-1.4,0.4c0.3,1.1,0.9,1.7,1.9,1.7   c0.3-0.7,0.6-1.2,0.8-1.8c0.7-0.2,1.4-0.2,1.8,0.6c-0.3,0.4-0.5,0.7-1,1.4c1.9,0.5,3.4,0.9,5,1.2   C444.6,305.3,444.1,305.6,443.5,305.9z" />
	<path fill="#4964C2" d="M422.1,302.4c-3.2,1.7-2.6,4.1-2.7,7.3c-0.6-0.2-1.2-0.4-1.9-0.7c-0.8,1.6-1.6,3-2.4,4.6   c-0.8-1,0.1-2.4-1.2-3c-0.2-0.4-0.3-0.7-0.6-1.3C415.6,307,418.4,301,422.1,302.4z" />
	<path fill="#35478A" d="M413.8,310.6c1.3,0.6,0.4,2,1.2,3c0.8-1.5,1.6-3,2.4-4.6c1.2,0.4,2,0.6,2.8,1.5c-1.2,4.1,0,8.8-1.3,12.7   c-0.6-4.6-0.1-7.8-0.2-12.7c-1.2,1.6-2,2.7-3,4c-0.5,0-1.2,0.1-1.8,0.1C413.8,313.3,413.8,312,413.8,310.6z" />
	<path fill="#161B34" d="M470.3,310.6c-4,2-9.9,0.6-14.5-0.1c0.3-0.4,0.5-0.9,0.8-1.3c1.2,0.9,5.2,0.5,5.5-0.9   c1.1,0.1,2.4-0.6,3.3,0.7c-0.4,0.2-0.9,0.4-1.8,0.8C466.1,311.1,467.9,310.6,470.3,310.6L470.3,310.6z" />
	<path fill="#4968CC" d="M462.2,308.2c-0.3,1.4-4.3,1.8-5.5,0.9c-1.8,0.2-2.6-1.3-4.9-1.7c0-0.5,0-1,0-1.5   C455.1,306.8,458.6,308,462.2,308.2z" />
	<path fill="#262322" d="M504,181.2c1.6-2.7,3.3-5.5,4.9-8.2c0.3,0.4,0.6,0.7,0.9,1.1c0,0.3,0,0.6,0.1,0.8c-1.5,2.4-2.4,6-4.7,7.5   C504.8,182.1,504.4,181.6,504,181.2z" />
	<path fill="#5876E8" d="M470.4,310.6c-2.5-0.1-4.2,0.5-6.6-0.9c2.7-1.5,4.8-0.4,7.9-0.5C471.1,309.7,470.7,310.2,470.4,310.6z" />
	<path fill="#3F60BC" d="M445.2,305.1c-1.5-0.4-3.1-0.8-5-1.2c0.5-0.7,0.8-1,1-1.4c1.6,0.6,3.2,1.1,4.9,1.7   C445.9,304.4,445.5,304.7,445.2,305.1z" />
	<path fill="#5876E8" d="M433.1,301.8c-0.1,0.4-0.1,0.8-0.2,1.3c-0.7,0.1-1.5,0.1-2.1,0.2c-1.2-0.9-0.8-2-0.7-3.1   C431.2,300.7,431.8,302,433.1,301.8z" />
	<path fill="#1E2D58" d="M445.2,305.1c0.3-0.3,0.6-0.6,0.9-1c0.9,0,1.8-0.2,2.4,0.7c-0.5,0.1-0.9,0.2-1.5,0.4c0.7,0.6,1.1,1,1.6,1.4   c-1.8,0.1-3.7,0.5-5.3-0.6C444.1,305.6,444.6,305.3,445.2,305.1z" />
	<path fill="#4D6DD6" d="M448.7,306.5c-0.5-0.4-1-0.8-1.6-1.4c0.6-0.1,1-0.3,1.5-0.4c1,0.4,2.1,0.7,3.1,1.1   C452.3,308.9,450.3,307.4,448.7,306.5z" />
	<path fill="#4A69CE" d="M484.9,307.4c-0.7,1.5-1.5,0.3-2.3,0c0-0.3-0.1-0.5-0.1-0.8c0.2-0.2,0.5-0.5,0.7-0.7   C484.6,305.5,484.8,306.3,484.9,307.4z" />
	<path fill="#476AD0" d="M439.5,301.8c-0.3,0.6-0.5,1.2-0.8,1.8c-1.1,0-1.6-0.6-1.9-1.7c0.5-0.1,0.9-0.3,1.4-0.4   C438.5,301.6,439,301.7,439.5,301.8z" />
	<path fill="#39509E" d="M425.8,299.4c0.3,0.8,1,1.5,0.9,2.3l0-0.1C424.5,302.4,423,299.1,425.8,299.4z" />
	<path fill="#475797" d="M483.2,305.9c-0.2,0.2-0.5,0.5-0.7,0.7C482.8,306.3,483,306.1,483.2,305.9z" />
	<path fill="#304180" d="M453.5,306.5c-0.3-0.2-0.6-0.3-1-0.5C452.8,306.1,453.1,306.3,453.5,306.5z" />
	<path fill="#BCE9F3" d="M510.7,34.4c1.1,1.5,2.4,2.6,4.5,1.8c6,4.5,2.9,13.4-3.5,15.7c-0.3-4.8,6.1-7.7,1.5-12.5   c-5.5,0-5.1,4.5-7.2,8c-4.6-1.5,3-8.2,1.7-13.1C508.8,34.4,509.8,34.4,510.7,34.4z" />
	<path fill="#BDEBF5" d="M502.7,31.1c0.2,0.1,0.5,0.2,0.7,0.1c5.5,5.9,0.5,17-7,14.7c0.5-0.3,0.9-0.7,1.4-1l0,0   c2.9-3.4,4.9-7.8,4.1-12.3C501.8,31.9,501.9,31.3,502.7,31.1z" />
	<path fill="#B7E5EE" d="M518.9,37.8c6.9,3,4.2,13.7-1.6,16.1l0,0c-1.1,0-1.8-0.5-1.7-1.7l0,0C519.3,48.1,520.9,43.1,518.9,37.8z" />
	<path fill="#B3E1EB" d="M517,58c-0.8-0.3-1.6-0.6-2.4-0.9c6-2.6,11.3-7.2,9.7-14.5c0.3-0.3,0.6-0.6,0.9-0.9   c0.1,0.2,0.2,0.4,0.1,0.6c1.1,1,0.2,2.6,1.4,3.4C527.8,52.5,522.9,56.3,517,58z" />
	<path fill="#A9D2DB" d="M522.9,59.1c-1.3,0.7-2.7,0.5-4,0c0.9-0.2,1.6-0.6,2.3-1.3l0,0c0.7,0,1.4,0.1,1.6-0.8l0,0   c0.7,0,1.4,0,1.6-0.9c0,0,0,0,0,0c3-3.6,6.5-10.1,1.7-13.7c0,0,0.1,0.1,0.1,0.1c8.2-2,4.4,16.4-2.4,16.1   C523.4,58.8,523.2,59,522.9,59.1z" />
	<path fill="#323C3F" d="M500.3,45.8c6-2.2,7-9.9,3.1-14.6c0.8-0.2,1.5-0.3,2.4-0.5c0.6,0.8,1.1,1.7,1.4,2.1   c1.2,1.3,2.8,0.2,3.5,1.6c-0.9,0-1.9,0-2.9,0c0.4,7.8-4.9,13.2-12.1,15.2c-0.4-0.2-0.7-0.4-1.1-0.6   C495.4,46.8,498.5,46.9,500.3,45.8z" />
	<path fill="#283335" d="M518.9,37.8c2,5.3,0.4,10.3-3.3,14.4l0,0c-1.9,0.6-4.7,2.2-2.4,4.2c0,0.2,0,0.5,0,0.7   c-0.3,0.2-0.6,0.5-0.8,0.7c0,0.3-0.1,0.6-0.1,0.9c-1.3-1.9-0.3-4.5-0.5-6.7c6.4-2.3,9.5-11.2,3.5-15.7c0.4-0.1,0.8-0.3,1.2-0.4l0,0   C516.9,37.1,518.4,36.6,518.9,37.8z" />
	<path fill="#354042" d="M502.7,31.1c-2.1,2,0.5,6.3-1.8,8.9c-0.3-0.3-0.5-0.6-0.8-0.9c0.3-3.9,0.8-8.1-2.3-11.1   c0.3-0.3,0.6-0.5,0.9-0.8c0.3,0,0.5,0,0.8,0.1c0.5,1.8,0.5,1.8,2.3,0.6c-0.2,0.9,0.4,1.5,1,2.1C502.7,30.4,502.7,30.8,502.7,31.1z" />
	<path fill="#161819" d="M524.3,42.6c0.1,3.3,0.6,7.1-2.3,9.5c-0.3-0.3-0.6-0.7-0.9-1c1.3-2.1,2.1-4.5,1.9-7c0.8-0.3,0.7-1,0.8-1.7   C523.9,42.5,524,42.6,524.3,42.6z" />
	<path fill="#3C4548" d="M521,51.1c0.3,0.3,0.6,0.7,0.9,1c-1.9,2.5-4.9,3.3-7.4,4.9c-0.5,0-1,0-1.4-0.1c0-0.2,0-0.5,0-0.7   c1.4-0.8,2.8-1.6,4.1-2.5c0,0,0,0,0,0C518.6,53.1,519.8,52.1,521,51.1z" />
	<path fill="#D4C1B7" d="M514.8,34.2c-2.4,0.3-2.4,0.3-2.8-3.5C514.2,29.4,514.2,32.6,514.8,34.2z" />
	<path fill="#C9B1A9" d="M507.7,29.5c2-0.2,2.2,1.3,3,2.8C508.4,33,507.6,32.6,507.7,29.5z" />
	<path fill="#C3B1A8" d="M502.7,30.1c-0.6-0.6-1.1-1.2-1-2.1c0.7-0.2,1.4-0.4,2.4-0.7C504.1,28.9,504.7,30.1,502.7,30.1z" />
	<path fill="#191817" d="M512.2,72.6c-0.5-2.1-1.2-6.2,0-7.7c0.1,0.7,0,1.4,0.8,1.8c0,0.5,0.1,1.1,0.1,1.6   C512.2,69.6,512.2,71.1,512.2,72.6z" />
	<path fill="#B6A79E" d="M512.2,58.7c0-0.3,0.1-0.6,0.1-0.9c0.7,0.4,1.3,0.7,2.2,1.2c-0.3,0.8-0.6,1.5-0.8,2.2   c-0.5-0.1-0.8-0.2-1.2-0.3C512.3,60.2,512.2,59.4,512.2,58.7z" />
	<path fill="#9FD1DB" d="M521.2,57.8c-0.6,0.7-1.4,1.1-2.3,1.3c-0.6-0.4-1.3-0.7-1.9-1.1c0.6-0.3,1.3-0.6,1.9-0.9   C519.3,58.5,520.4,57.7,521.2,57.8z" />
	<path fill="#CDC3B9" d="M516.4,35.8c0-0.9,0-1.7,0-3.3C517.4,34.1,517.9,35,516.4,35.8L516.4,35.8z" />
	<path fill="#66858A" d="M524.3,42.6c-0.2,0-0.4-0.1-0.6-0.2c0-0.6,0-1.2,0-2.4c0.7,0.9,1.1,1.3,1.5,1.8   C524.9,42.1,524.6,42.4,524.3,42.6z" />
	<path fill="#090605" d="M512.2,59.5c0.1,0.8,0.2,1.6,0.2,2.5l0,0c-0.2-0.1-0.5-0.1-0.8-0.1c-0.1-0.5-0.1-1-0.2-1.4   C511.7,60.1,512,59.8,512.2,59.5z" />
	<path fill="#9FD1DB" d="M524.5,58.6c0.3-0.7,1-0.7,1.6-0.7C525.5,58.1,525,58.3,524.5,58.6z" />
	<path fill="#A9D2DB" d="M525.9,43.3c-0.2-0.3-0.4-0.7-0.6-1c0.3,0.1,0.5,0.1,0.8,0.2l-0.1-0.1C526,42.8,525.9,43.1,525.9,43.3z" />
	<path fill="#9FD1DB" d="M522.9,59.1c0.3-0.1,0.5-0.3,0.8-0.4C523.4,58.8,523.2,59,522.9,59.1z" />
	<path fill="#BFEDF7" d="M393.8,26.3c-0.3,2.3,0.2,4.7-1.6,6.6c-1-0.1-1.9-0.1-2.9-0.2c2.1-4.4-0.9-15.5-6.9-12   c-8.4,1.2,1.9,2.9,3.2,6.3c-0.3,2,0.6,4,1.7,5.8c-0.4,0.3-0.7,0.7-1.3,1.2c-1.1-0.8-2.7-1.4-4.2-1.5c-0.1-1.2-0.7-3-1.7-1.4   c-0.5-0.3-1-0.6-1.5-0.9c0.8-1.7,1.2-3.9-1.4-2.8c-2.8-6.3,3-11.9,9.3-12.5l-0.1-0.1C387.6,19.4,393.6,20.9,393.8,26.3z    M378.4,23.9c-0.2,0.7-0.6,1.2,0.3,1.4C379,24.6,379.5,24.2,378.4,23.9z" />
	<path fill="#B5E2EB" d="M425.9,7c2.6,5.4,3.6,11.2-0.7,16c1.7-7,1.4-14.5-6.7-17.7c0.5,0.8,0.8,1.2,1.1,1.6   c-0.7,0.1-1.3,0.2-1.7-0.6c0.6-1.2-0.9-1.1-1.7-1l0,0c2.2-2.2,4.7-1.6,7.3-0.8c0,0-0.1-0.1-0.1-0.1c0.3,0.3,0.6,0.6,0.9,0.9   c0,0-0.1-0.1-0.1-0.1c0.3,0.3,0.6,0.6,0.9,0.9c0,0-0.1-0.1-0.1-0.1C425.1,6.7,425.3,7.1,425.9,7L425.9,7z" />
	<path fill="#B5E2EB" d="M393.6,15.9c-0.7,0-1.3,0-1.6-0.7c1.6,0,0.6-1.4,1.1-2.4c7.1,0.1,12.9,7.9,9.5,14.5c-0.6,0-1.2,0-1.8,0   c-0.5-5-1.3-11.8-7.5-12.8C393.4,15.1,393.5,15.5,393.6,15.9z" />
	<path fill="#333C3E" d="M402.6,27.2c1.9-3.5,0.7-8.4-1.9-11.2c0.3-0.3,0.6-0.5,0.9-0.8c4.3,4.3,4.4,11.2,0.5,15.8   C400.8,29.3,402.9,28.5,402.6,27.2z" />
	<path fill="#C6B2A9" d="M399.2,8.9c1.4-0.4,2.5-0.8,3.6-1.2c1.4,0.6,2.8,1.1,3.6,2.2C405.7,13.6,400.8,10.7,399.2,8.9z" />
	<path fill="#CEBDB3" d="M404.6,6.3c2.6-0.6,4.5,0.4,6,2.1c-0.1,1.4-1,1.7-1.9,1.8C407.3,8.9,405.9,7.6,404.6,6.3z" />
	<path fill="#B9ABA2" d="M393.8,10.6c1.5-0.7,3-2.1,4.6-0.1C396.2,12.3,396.1,12.3,393.8,10.6z" />
	<path fill="#1E2223" d="M393,12.8c-0.5,1,0.5,2.4-1.1,2.4c-0.3-0.5-0.6-1.1-0.8-1.6C391.5,12.5,392.3,12.6,393,12.8z" />
	<path fill="#9F9991" d="M410.8,6.2c-0.5-0.1-1.1-0.2-1.6-0.3c0-0.2,0-0.3,0-0.5c0.6,0,1.1-0.1,1.7-0.1   C410.9,5.7,410.8,5.9,410.8,6.2z" />
	<path fill="#C6B2A9" d="M400.7,11.8l-0.2,0.1l-0.2-0.1C400.4,11.3,400.6,11.3,400.7,11.8z" />
	<path fill="#191817" d="M513.9,83.1c-0.9-2.1-0.5-4.4-0.7-6.6C514.6,78.3,513.7,80.9,513.9,83.1z" />
	<path fill="#191817" d="M515.5,90.5c-0.2-1.2-0.4-2.4-0.7-3.5C516.2,87.9,515.4,89.3,515.5,90.5z" />
	<path fill="#191817" d="M514.1,71.2c0.2,0.2,0.4,0.3,0.6,0.5c0,1.1,0,2.1,0,3.2C513.3,73.8,514.1,72.4,514.1,71.2z" />
	<path fill="#191817" d="M514.7,86.3c-0.2-0.9-0.5-1.7-0.7-2.6C515.2,84.3,514.7,85.4,514.7,86.3z" />
	<path fill="#191817" d="M513,75.2c-0.2-0.7-0.4-1.4-0.6-2C513.3,73.6,513.1,74.5,513,75.2z" />
	<path fill="#E9C8B9" d="M504.2,58.6c-0.2,0.6-0.7,1.3-0.6,1.8c1.4,3.6,0.3,6.9-0.3,10.5c-0.2-0.1-0.5-0.2-0.6-0.4   c-0.4-7.3-3.4-12.5-6.8-19.2c3.1,0.6,4.8,1.3,7.5,2.5c0.1,0.4,0.3,0.8,0.5,1.2c1.7-0.5,0.2-3,1.9-3.8c1.9,2.4,4.3,7.5,1.1,9.7   C505.9,60.1,505,59.4,504.2,58.6c0-0.9-0.2-1.4-1.2-1.3C502.9,58.3,502.9,58.9,504.2,58.6z" />
	<path fill="#181515" d="M505.8,51.3c-1.7,0.8-0.3,3.3-1.9,3.8c-0.2-0.4-0.3-0.9-0.5-1.2c-1.4-0.6-2.7-1.1-4-1.7c0-0.3,0-0.6,0.1-1   c1.1,0,2.3,0,3.6,0c5.1-3.1,2.9-11.6,10.2-11.8c5.1,6-4.9,9.7-1,20.1c-0.3,0.3-0.5,0.6-0.8,1c-2.4-4.7-2.3-11.4,1.5-15.2   c0.2-1.5,0.5-2.8-0.4-4.3C507.7,41.9,509,48.6,505.8,51.3z" />
	<path fill="#A6D9E3" d="M506,47.5c-0.5,1.8-1.9,2.7-3,3.8c-2.8,0.3-5-0.4-7.3-1.7c3-1.3,6.1-2.3,8.6-4.6   C504.2,46.3,504.9,47.1,506,47.5z" />
	<path fill="#343637" d="M481.7,44.8c-0.8-0.6-1.6-1.1-2.4-1.6c-0.3-0.5-0.6-1-0.9-1.5c0.3-0.2,0.5-0.4,0.8-0.6   c3.7,1.9,6.8,5.9,11.3,5.4c0.8,0.8,1.7,1.6,2.6,2.4c-0.3,0.3-0.6,0.5-0.9,0.8C488.3,49.7,485.1,46.4,481.7,44.8z" />
	<path fill="#9AC9D3" d="M493.1,48.9c-0.5-0.5-1-0.9-1.5-1.4c1.8,0.1,3.1-1.2,4.6-1.8c0.5,0.5,1.2,0.6,1.8,0.9   c-1.2,0.8-3,0.6-3.4,2.3C494.1,49,493.6,48.9,493.1,48.9z" />
	<path fill="#1D1A18" d="M503.4,77.2c0.2,2,0.3,4-0.7,5.9C502.9,81.1,502,78.9,503.4,77.2z" />
	<path fill="#1D1A18" d="M502.7,70.6c0.2,0.2,0.4,0.3,0.6,0.4c0,1.6,0,3.1,0,4.7C502.1,74.2,502.8,72.3,502.7,70.6z" />
	<path fill="#E0E2E2" d="M483.1,161.5c-0.1,0.8-0.1,1.5-0.2,2.4c-0.7,0.5-1.4,1-2.1,1.5c-1.8-1.4,0.7-5.1,2.3-6.3c0,0.4,0,0.8,0,1.1   C482.7,160.6,482.7,161,483.1,161.5z" />
	<path fill="#C0EFF9" d="M483.6,25.7c0.2,0.1,0.3,0,0.4-0.1c10.7-1,14.2,5.6,9,14.6c0,0.3-0.1,0.5-0.4,0.6   c-3.9-1.2-8.4-3.4-12.5-2.8c-1.1,0.6-1.8-0.1-2.6-0.4c0-0.6-0.1-1.2-0.1-2.2c4.8,2.6,9.5-6,4.9-8.3   C482.8,26.7,483.2,26.2,483.6,25.7z" />
	<path fill="#A9DCE7" d="M477.6,37.7c0.8,0.3,1.5,1,2.6,0.4c4-0.6,8.5,1.7,12.5,2.8c-1.2,2.6-4.3,1.9-6.9,3.7c3.7,0.7,6.3-0.5,8.7-3   c0.6,0.6,1.1,1.2,1.7,1.8c-0.1,0.2-0.1,0.4-0.2,0.6c-4.1,2.4-8.3,3.8-12.1,0.1C481.6,42.4,477.6,41.2,477.6,37.7z" />
	<path fill="#E6EBEB" d="M477.6,33.8c-0.5-0.3-1.1-0.7-1.6-1c0.9-1.3,2-2.4,1.7-4.2c0-0.2,0.4-0.6,0.7-0.9c0.8,0.3,1.6,0.7,2.4,1   c0,1.3,0.2,2.7-0.1,4C479.7,33.1,478.6,33.5,477.6,33.8z" />
	<path fill="#71878B" d="M480.9,32c0-1.1,0-2.2-0.1-3.3c0.5-0.6,1.1-1.1,1.6-1.6c1,0.1,1.4,0.8,1.5,1.7c-1.3,1.2-0.5,3-1.3,4.3   c0,0,0.4,0.3,0.5,0.4c-0.2,0.9-0.8,1.4-1.7,1.5c-0.9-1.3-2.7-0.6-3.9-1.3c1-0.4,2.1-0.7,3.1-1.1c0.2,0.2,0.3,0.3,0.5,0.5   C481.4,32.7,481.6,32.3,480.9,32z" />
	<path fill="#BDC3C3" d="M475.2,32c-3.5,0.4-2.3-5.2,0.7-4.8C477.4,29.1,476.1,30.5,475.2,32z" />
	<path fill="#3C3939" d="M475.2,32c1-1.5,2.2-2.9,0.7-4.8c0.9,0,1.8-0.4,2.5,0.6c-0.2,0.3-0.7,0.6-0.7,0.9c0.3,1.8-0.8,2.9-1.7,4.2   C475.7,32.6,475.4,32.3,475.2,32z" />
	<path fill="#76959A" d="M432.3,13.5c-1.2-1.5-1.2-3.9-2.4-5.7c1.3-0.5,2.6-1.3,4.2-0.7c-0.2,2.3-0.1,4.5-0.3,6.8   C433.2,13.6,432.7,12.4,432.3,13.5z" />
	<path fill="#DCE1E1" d="M434,8.3c0-0.4,0.1-0.8,0.1-1.1c0.9-0.3,1.7-0.5,2.6-0.8c1.3,1.1,1.6,2.4,1.2,4.1c-0.5,0.3-1,0.6-1.6,0.9   c-0.2-0.1-0.5-0.2-0.8-0.2C435.1,10.1,434.8,9.1,434,8.3z" />
	<path fill="#242728" d="M434.8,9.4c0.2,0.6,0.5,1.1,0.7,1.7C434.8,10.7,434.8,10,434.8,9.4z" />
	<path fill="#242728" d="M436.2,14.9c-0.2,0-0.4,0.1-0.6,0.1c0-0.6,0-1.3,0.8-1.6C436.3,13.9,436.3,14.4,436.2,14.9z" />
	<path fill="#242728" d="M434,8.3c0.3,0.4,0.6,0.7,0.8,1.1c-0.3,0-0.5,0-0.8,0C434,9,434,8.7,434,8.3z" />
	<path fill="#242728" d="M435.6,11.1c0.3,0.1,0.5,0.1,0.8,0.2C435.9,11.8,435.7,11.5,435.6,11.1z" />
	<path fill="#242728" d="M438.2,11.9c-0.1,0.2-0.2,0.4-0.3,0.6c-0.2,0-0.5,0-0.7,0C437.5,12.3,437.9,12.1,438.2,11.9z" />
	<path fill="#242728" d="M435.6,15.1c0,0.3,0,0.5,0,0.8c-0.2,0.1-0.5,0.3-0.7,0.4C435.1,15.9,435.4,15.5,435.6,15.1z" />
	<path fill="#ECC8B9" d="M503.4,128.1c-1.6-0.4-2.8-0.3-4.6-0.3c-0.5,0.3,0.1,1.8-1.2,1.8c0.9-10.2-2.9-21.1,1.7-30.8   c0.3,9.3-0.8,20.1,4.9,27.8C503.2,126.7,503.4,127.5,503.4,128.1z" />
	<path fill="#373433" d="M497.1,118.8c0.8,4.8,1.8,10.2-1.7,14.2c-3.4-2.1,2.4-6.3,0.8-8.1C497,122.9,497.2,121,497.1,118.8z" />
	<path fill="#ECC9B9" d="M495.3,133.7c-2,9.5-3.8,19.1-5.3,28.8c-1.3,4.1,1.4,9.1-2.4,12.4c-0.4-0.3-0.7-0.5-1.1-0.8   c0.9-0.2,0.8-0.9,0.7-1.6c1.3-1.1-0.6-2.1,0-3.2c0-0.1-0.1-0.2-0.2-0.6c-0.3-0.1-0.8-0.2-1.3-0.3c-0.1-0.4-0.3-0.9-0.4-1.3   c-0.2,0.2-0.3,0.3-0.5,0.5c-0.5-0.3-1-0.6-1.5-0.9c1.4-1.3,2.4-2.8,2.3-4.9C485.3,151.8,489.8,141.9,495.3,133.7z" />
	<path fill="#3B3330" d="M493.2,136.5c-0.9,1.8-1.7,3.6-2.6,5.4c-0.1-0.6,0-1.5-0.9-1.7c0.3-1.8,1.2-3.6,2.5-4.8   C492.6,135.8,492.9,136.1,493.2,136.5z" />
	<path fill="#2A3133" d="M494.3,28.2c-2.7-2.7-6.8-2.4-10.3-2.6c0-0.3,0-0.6,0-0.8c4.2-0.4,8.1-0.3,11.7,1.4c0.2-0.1,0.3,0,0.4,0.1   c0,0.3,0,0.6,0,0.8l0,0c-0.6,0-1.3-0.1-1.5,0.7L494.3,28.2z" />
	<path fill="#181515" d="M498.6,27.2c-0.3,0.3-0.6,0.5-0.9,0.8c-0.3,0-0.5,0-0.7-0.2c0-0.2,0-0.4,0-0.6   C497.6,27.2,498.2,26.8,498.6,27.2z" />
	<path fill="#2A3133" d="M497.1,27.2c0,0.2,0,0.4,0,0.6c-0.3-0.1-0.6-0.2-0.9-0.3l0-0.3l0,0C496.5,27.2,496.8,27.2,497.1,27.2z" />
	<path fill="#13182E" d="M411.3,415.5c-0.4-0.1-0.8-0.1-1.3-0.2c0.8-15.2-3.1-31.5,2.8-46c-3.2,13.7,0.8,27.7-1.8,41.4   c-0.3,1.4-0.8,2.8,0.4,4.1C411.3,415,411.3,415.2,411.3,415.5z" />
	<path fill="#4B65C6" d="M419.5,399.4c3.1,5.1,5.6,11.4,5.5,17.4c-2.4-0.5-1.5-3.7-3.9-3.6C421.7,408.4,419.7,404,419.5,399.4z" />
	<path fill="#4B65C5" d="M477,401.8c2.8,3.2,3,3.6,4.5,8.2c-4.1-1.6-7.7-5.4-10.3-10.7C473.2,399.7,475.3,403.2,477,401.8z" />
	<path fill="#2C3A72" d="M471.1,372.4c-1.5-7.6,2.1-14.5,5.4-20.8c0.5,2.8-0.8,5.1-2.1,7.6C471.3,363,473.1,368.4,471.1,372.4z" />
	<path fill="#3D51A0" d="M477.7,332.7c-1.7-6-2.4-12.6-2.2-18.7c1.2,0.2,1.1,1,1.2,1.9c-0.4,5.7,1.7,11.1,1.6,16.7   C478.1,332.6,477.9,332.7,477.7,332.7z" />
	<path fill="#3B4F98" d="M419.5,399.4c0.3,4.6,2.3,9,1.7,13.8c-0.2,0.1-0.4,0.2-0.8,0.5c0-6.3-2.2-11.9-3.4-18.1   c0.8,0.7,1.2,1.1,1.7,1.5l0,0C418.7,397.9,418.3,398.9,419.5,399.4L419.5,399.4z" />
	<path fill="#253160" d="M478,336.8c1.7,4.4,1.7,9,0.4,13.2C477.4,347.2,477.2,342,478,336.8z" />
	<path fill="#101323" d="M429.9,314.6c1.2-2.3,2.4-4.7,3.5-6.9c3.9,0.7-0.9,6.6-2.6,7.9C430.5,315.2,430.2,314.9,429.9,314.6z" />
	<path fill="#4D67CA" d="M427.2,327.6c4,0.6,5.2,2.9,6.7,5.8C431,331.9,428.8,330.7,427.2,327.6z" />
	<path fill="#304180" d="M448.7,306.5c1,0.2,2.3,2,3.1,0.9c2.3,0.4,3.1,1.9,4.9,1.7c-0.3,0.4-0.5,0.9-0.8,1.3   c-3.7,0.1-5.9-2.5-9.1-3.8C447.4,306.6,448.1,306.6,448.7,306.5z" />
	<path fill="#37498F" d="M459.9,325.6c1.2-3,2.1-5.1,2.9-7.2c-0.4-0.7-0.7-1.3-1.1-2.1C466.6,317.3,462.9,323.3,459.9,325.6z" />
	<path fill="#202646" d="M477,401.8c-0.8,1.5-7.5-3.5-8.2-4.8C472,396.9,475.1,399.3,477,401.8z" />
	<path fill="#2E3D78" d="M470.7,330.3c-0.1-2.7-1.2-5.5,1.2-8.4C471.8,325.1,472.7,327.9,470.7,330.3z" />
	<path fill="#4157AC" d="M451,321c1.6,2.1,2.5,4.5,3.8,7.2c-2.2-1.3-2.4-1.6-4.7-6.4C450.5,321.6,450.7,321.3,451,321z" />
	<path fill="#394A8E" d="M436.8,356.2c0.1,2.9-0.7,5.6-2.7,9.4C434.4,362.1,435.1,359.4,436.8,356.2z" />
	<path fill="#29376D" d="M451,321c-0.3,0.3-0.6,0.6-0.9,0.8c-0.7-1.8-1.8-3.6-1.6-5.7c1.2-0.5,0.5-1.7,0.8-2.5   C450.5,316,450.5,318.6,451,321z" />
	<path fill="#323B6B" d="M427.4,373.5c-2.3-0.7-3.8-1.7-5.6-4C424.4,369.9,426.2,371.3,427.4,373.5z" />
	<path fill="#12172E" d="M449.4,313.7c-0.3,0.8,0.3,2-0.8,2.5c-0.2-1.8-0.3-3.5-0.5-5.5C449.9,311.4,449.1,312.8,449.4,313.7z" />
	<path fill="#4157AC" d="M483.6,346.1c2.2,0.6,2.2,2.2,3.1,3.6C484.5,348.8,484.5,348.8,483.6,346.1z" />
	<path fill="#343F74" d="M472.7,411.7c0-0.3,0-0.6,0-0.9c1.2,0.8,3,0.3,4,2.2c-1.5-0.2-2.7-0.4-3.9-0.6   C472.7,412.1,472.7,411.9,472.7,411.7z" />
	<path fill="#2D3D71" d="M429.9,314.6c0.3,0.3,0.6,0.6,0.9,0.9c-0.7,0.7-1.3,1.4-2.4,2.6C428.4,316.2,429.1,315.4,429.9,314.6z" />
	<path fill="#323B6B" d="M421.9,369.5c-1.2,0.2-3.6-1.4-2.5-2.4C420.3,367.9,421.1,368.7,421.9,369.5z" />
	<path fill="#4B65C6" d="M419.5,399.4c-1.2-0.5-0.7-1.5-0.8-2.4C419.8,397.5,419.4,398.6,419.5,399.4z" />
	<path fill="#4B65C5" d="M435.6,347.8c0.4,0.1,0.8,0.1,1.9,0.3C436.1,348.4,436.1,348.7,435.6,347.8L435.6,347.8z" />
	<path fill="#282523" d="M417.9,460.8c2.4,4.1,3.3,8.1,2.2,10.5c-2.7-2-1.9-6.6-3.2-9.5C417.3,461.4,417.6,461.1,417.9,460.8z" />
	<path fill="#312623" d="M430.2,447c-3.9-0.8-7.9-3.6-6.3-7C426.5,441.1,427.6,444.3,430.2,447z" />
	<path fill="#CBB4AB" d="M396.9,500.4c-0.4-3.2,0.6-6.3,1.1-9.4c0.4,0,0.7,0,1.1,0.1c-0.4,3.1-0.9,6.2-1.3,9.3   C397.4,500.4,397.1,500.4,396.9,500.4z" />
	<path fill="#413835" d="M396.8,549.5c-0.4,0-0.8,0-1.3,0c-0.6-1.8-0.7-4.4,1.3-5.3C396.7,546,396.7,547.7,396.8,549.5z" />
	<path fill="#4B403D" d="M426.4,428.4c0.6,0,1.3,0.1,1.9,0.1c-1.4,0.5-2.8,1.1-4.5,1.7c-0.3,0.7-0.7,1.6-1.1,2.5   c0-1.5-0.9-3.1,0.8-4.4C424.4,428.4,425.4,428.4,426.4,428.4z" />
	<path fill="#B19D95" d="M413,454.3c1.5-0.4,1.5,1.2,2.4,1.7c0.5,1.1,1.1,2.1,1.6,3.2c-0.3,0.3-0.6,0.6-0.9,0.9   C415.1,458.1,413.4,456.5,413,454.3z" />
	<path fill="#B2A29A" d="M403.3,468c-0.3,1.6-0.7,3.3-1.9,4.8c-0.3-1.7,0-3,0.9-5.6C402.6,467.5,402.9,467.8,403.3,468z" />
	<path fill="#332A28" d="M437.5,426.9c2,1,2,1,1.7,3C437.4,429.1,437.4,429.1,437.5,426.9z" />
	<path fill="#524C48" d="M403.3,468c-0.3-0.3-0.6-0.6-1-0.9c0.2-1.5,0.3-3.1,1.5-4.5C405,464.8,403.5,466.3,403.3,468z" />
	<path fill="#1B1716" d="M398.7,483.8c0.3-1.1,0.6-2.2,0.9-3.3c2.2-0.3,0.6,3-0.2,3.8C399.1,484.2,398.9,484,398.7,483.8z" />
	<path fill="#38302E" d="M422.2,448.5c2.6,0.5,2.7,1.8,3.1,2.9C423.5,452.9,423.3,450.1,422.2,448.5z" />
	<path fill="#A38F89" d="M420.6,452.7c0.7,1.4,1.2,2.6,1.9,3.9C420.6,455.9,420.4,455.4,420.6,452.7z" />
	<path fill="#A4928B" d="M396.9,500.4c0.3,0,0.5,0,0.8,0c0.3,1,1.5,2.1-0.6,3C397,502.3,396.9,501.4,396.9,500.4z" />
	<path fill="#463E3B" d="M422.7,431.7c0.2,1.2,0.3,2.8-1.5,2.9C421,433.3,420.9,432.1,422.7,431.7z" />
	<path fill="#81726C" d="M396,540.8c-0.3-1.2-0.1-2.8,1.5-2.3C397.5,539.6,397.2,540.5,396,540.8z" />
	<path fill="#6A5B57" d="M416.1,460.1c0.3-0.3,0.6-0.6,0.9-0.9c0.3,0.5,0.6,1,0.9,1.6c-0.3,0.3-0.6,0.6-0.9,0.9   C416.7,461.2,416.4,460.6,416.1,460.1z" />
	<path fill="#665E5A" d="M419.8,448.2c0.2-0.6,0.4-1.2,0.6-2C421,447.4,421,447.4,419.8,448.2z" />
	<path fill="#98837B" d="M411.4,450.4c1.4-0.4,1.9,0.7,0.7,1.6C411.9,451.5,411.7,451,411.4,450.4z" />
	<path fill="#8A766F" d="M397.6,534.3c-1.1-1-1.1-1.4,0-2.4C397.6,532.7,397.6,533.5,397.6,534.3z" />
	<path fill="#897B74" d="M396,515.7c-1.2-1-1.2-1.1-0.1-2.2C396,514.2,396,515,396,515.7z" />
	<path fill="#92847F" d="M396.7,509.9c-0.3-0.5-0.6-1-0.9-1.5C396.9,507,397,509.2,396.7,509.9z" />
	<path fill="#564A47" d="M401.3,476.9c-0.6-0.5-0.3-0.8,0.1-1.3C401.7,476.1,401.7,476.4,401.3,476.9z" />
	<path fill="#ECC9B9" d="M474.6,441.2c-4.5-0.9-7.2-5.6-6.3-10.1c4-0.2,5.7,5.5,8.5,7.9C474.1,439.1,474,439.1,474.6,441.2z    M472.8,438c0.4-1.3,0.4-1.3-1.2-1.9C472.1,437,472.5,437.5,472.8,438z" />
	<path fill="#1F1716" d="M474.6,441.2c-1.5-5.2,6.1,1,8.8-1.9c1-2.1,2.1-4.3,3.3-6.6c0.5,0,0.9-0.1,1.2-0.1   C487.5,439.9,481.7,444.7,474.6,441.2z" />
	<path fill="#574C48" d="M471.9,468.1c-0.2-2.7-1.6-5.3-0.5-8c2.6,2.8,2.5,10.7,1.4,14.6C472.4,472.6,473.7,469.5,471.9,468.1z" />
	<path fill="#2B2624" d="M471.9,468.1c1.6,2.2,1.4,7.2-0.2,9.5C470,475.4,471.3,470.9,471.9,468.1z" />
	<path fill="#584F4B" d="M480.1,443.8c1.3,1,0.5,2.6,0.7,4.2c1.6,1,2.4,2.4,1.3,4.6c-1.9-1-2.1-3-2.9-4.7   C480.3,446.7,480,445.2,480.1,443.8z" />
	<path fill="#020202" d="M480.1,443.8c-0.1,1.4,0.2,2.9-0.8,4.1C478.6,446.7,478.1,443.7,480.1,443.8z" />
	<path fill="#BDA093" d="M463.8,432.5c-1.3,0.5-0.4,1.9-1.2,2.8c-0.7-1.3-0.4-2.6-0.2-4c0.5-0.1,1-0.3,1.4-0.4   C463.8,431.5,463.8,432,463.8,432.5z" />
	<path fill="#BAA9A1" d="M467,515.2c-0.1,1.1-0.2,1.9-0.2,2.9C465.1,516.8,465.1,516.6,467,515.2z" />
	<path fill="#413836" d="M464.4,536.5c0.5,1.7,0.4,2.8-0.7,3.7C463.4,538.9,463.4,538.9,464.4,536.5z" />
	<path fill="#75706B" d="M470.2,483.3c-0.3,0.7-0.6,1.4-0.9,2.2c-0.8-2-0.7-2,0.1-3.9C469.7,482.2,469.9,482.8,470.2,483.3z" />
	<path fill="#CAB4AB" d="M465.3,529.8c0,0.9,0,1.7,0,2.7C463.7,531,463.7,531,465.3,529.8z" />
	<path fill="#A08881" d="M464.7,494c-0.3-0.3-0.6-0.6-0.9-0.9c0.4-0.5,0.8-0.9,1.3-1.4C465.9,492.8,464.8,493.2,464.7,494z" />
	<path fill="#282321" d="M470.2,483.3c-0.3-0.5-0.5-1.1-0.8-1.6c0.2-0.2,0.5-0.4,1.1-0.9C470.4,481.9,470.3,482.6,470.2,483.3z" />
	<path fill="#334586" d="M413.8,354.5c0.1-8.7,2.9-17.1,4.6-25.6c0.1,8.6-3,17.1-4.1,25.7C414.2,354.6,414,354.6,413.8,354.5z" />
	<path fill="#24305E" d="M420.2,310.6c-0.3-0.3-0.6-0.5-0.8-0.8c0.4-2.1-1-5.6,1.7-6.4C421.6,305.9,420.4,308.2,420.2,310.6z" />
	<path fill="#3B4F98" d="M417,393c-0.1,0.4-0.1,0.8-0.2,1.2C415.9,393.5,416.5,393.3,417,393L417,393z" />
	<path fill="#B6BDC2" d="M411.5,573.2c-0.3,0.2-0.7,0.4-1,0.6C410.9,573.6,411.2,573.4,411.5,573.2z" />
	<path fill="#816E68" d="M405.7,455.9c-1-1.1-1-1.1-0.1-2.8C405.6,454.5,405.6,455.2,405.7,455.9L405.7,455.9z" />
	<path fill="#866C65" d="M411.3,448.7c0.1-0.5,0.2-0.9,0.3-1.5C412.4,448.1,412,448.5,411.3,448.7L411.3,448.7z" />
	<path fill="#453732" d="M463.4,442.8c-0.5-0.9-1.4-1.7-0.2-2.7C463.8,441.3,463.8,441.3,463.4,442.8z" />
	<path fill="#354176" d="M474.3,384.9c-0.4,0.9-1.1,1-2.2,0.3C473.1,385.1,473.7,385,474.3,384.9L474.3,384.9z" />
	<path fill="#0F0D0E" d="M488.3,188.6c-0.4,0-0.7,0.1-1.1,0.1c-3.7-4.6-8.6-8.4-11.1-13.8c0.2-0.3,0.5-0.6,0.7-0.8   C481.5,177.9,486.9,182.4,488.3,188.6z" />
	<path fill="#202023" d="M476.1,263.1c0.5-7.2,1.2-14.2,1.8-21.7C481.3,247.2,478.3,256.6,476.1,263.1z" />
	<path fill="#141416" d="M474.3,274.8c0.4-3.5-0.6-6.9,1.3-10c3.1,4.2,0.3,10.3-0.6,15c-0.4,0-0.9,0-1.3,0c0-0.3,0-0.5,0-0.8   C474.9,277.8,474.3,276.3,474.3,274.8z" />
	<path fill="#211E20" d="M458.1,255.6c1.7-3.7,4.2-6.8,7.8-8.7c1,2.4-6.1,7-7,10.3C458.1,257,458.3,256.2,458.1,255.6z" />
	<path fill="#1A1517" d="M437.2,235.5c-2.3-1.4-5.3-1.9-6.2-4.8c0.3-0.3,0.7-0.6,1.1-1c2.8,1.8,5.4,3.6,8.3,5.1   c-0.4,1.4-1.6,0.5-2.3,0.9C437.8,235.6,437.5,235.5,437.2,235.5z" />
	<path fill="#B7BDD4" d="M431.5,256.5c-2.2-1.4-3.9-3.6,0.1-4.9c1.5,1.4,3.7,2.3,4,4.9c-1.3-0.3-2.3-1.8-3.9-1.4   C431.6,255.7,431.6,256.1,431.5,256.5z" />
	<path fill="#37363B" d="M473.5,238.6c1.5-2.4,2-5.6,4.4-7.3c0,3.3-0.4,4.4-3.5,8.3C474.1,239.2,473.8,238.9,473.5,238.6z" />
	<path fill="#545961" d="M454.9,273.4c0,3,0,6,0,9c-3.2,0.2-0.3-3.4-1.3-5C454.4,276.1,453.7,274.4,454.9,273.4z" />
	<path fill="#35363C" d="M472.8,292.8c0.4-2.2-1.5-5.9,0.5-7.2c1.8,2.1,1,4.9,0.2,7.2C473.3,292.9,473,292.9,472.8,292.8z" />
	<path fill="#2B292D" d="M454.9,273.4c-1.2,1-0.5,2.7-1.3,3.9c-0.6-4.5-0.5-5.3,1-7.6C455.8,271,455,272.3,454.9,273.4z" />
	<path fill="#352C30" d="M468.8,267.9c1.3,0,4.9-2.2,4.5,0.4c-1.4,0.7-3,0.4-4.6,0.5C468.7,268.5,468.7,268.2,468.8,267.9z" />
	<path fill="#4D5058" d="M473.5,238.6c0.3,0.3,0.6,0.7,0.9,1c-1.1,1.1-2.2,2.3-3.2,3.4c0-0.4-0.1-0.8-0.1-1.1   C471.8,240.8,472.6,239.7,473.5,238.6z" />
	<path fill="#6A6672" d="M431.5,256.5c0-0.4,0.1-0.8,0.1-1.3c1.6-0.4,2.6,1,3.9,1.4C434.9,258.2,432.8,256.7,431.5,256.5z" />
	<path fill="#646772" d="M458.1,255.6c0.2,0.6,0,1.4,0.8,1.6c-0.6,1.1-0.3,2.6-2.2,3.6C457.1,258.7,456.9,257,458.1,255.6z" />
	<path fill="#6E5B64" d="M470.6,284.3c-1.5,3-3.5,2.2-5.5,1.8C466.8,285.5,468.4,285,470.6,284.3z" />
	<path fill="#B7BDD5" d="M438,235.6c0.8-0.4,2,0.5,2.3-0.9c1.6-0.4,1.9,1.1,1.7,2.4C440.6,236.7,439.2,236.5,438,235.6z" />
	<path fill="#60626B" d="M472.4,300.2c0.9,1.5-0.1,2.5-0.7,3.7C470.9,301.9,470.9,301.9,472.4,300.2z" />
	<path fill="#21181A" d="M442,237.1c0-0.5,0-1,0.1-1.6c0.2,0.1,0.4,0.1,0.7,0c1.1,0.5,2,1,2.5,2.1C443.9,238.7,443,237.6,442,237.1z   " />
	<path fill="#7B717D" d="M468.8,267.9c0,0.3,0,0.6-0.1,0.9c-0.8,1-1.7,0.9-3,0.4C466.7,268.2,467.5,267.6,468.8,267.9z" />
	<path fill="#2A2D31" d="M474.3,274.8c0,1.5,0.7,3-0.6,4.3C473.9,277.7,474.1,276.3,474.3,274.8z" />
	<path fill="#2E1D1F" d="M449.4,238.7c-0.8-0.3-1.5-0.7-2.6-1.1C448.4,236.5,449.2,236.9,449.4,238.7z" />
	<path fill="#645B64" d="M444.7,247.7c-0.8-0.4-1.5-0.7-2.6-1.2C443.7,245.6,444.5,246,444.7,247.7z" />
	<path fill="#7E8390" d="M472.8,292.8c0.2,0.1,0.5,0.1,0.7,0c0.2,1.2,0.1,2.3-1.6,3.3C472.3,294.7,472.6,293.8,472.8,292.8z" />
	<path fill="#787480" d="M471,241.8c0,0.4,0.1,0.8,0.1,1.1c-0.4,0.8-0.9,1.6-2.3,1.1C469.7,243.2,470.3,242.5,471,241.8z" />
	<path fill="#2A2D31" d="M473.7,279.9c0.4,0,0.9,0,1.3,0c-0.3,1-0.5,1.9-0.8,2.9c-0.2,0-0.3,0-0.5-0.1   C473.7,281.8,473.7,280.8,473.7,279.9z" />
	<path fill="#665B64" d="M439.8,259.8c-1.6-0.2-1.6-0.1-2.4-1.2C438.5,257.8,439,258.6,439.8,259.8z" />
	<path fill="#1A1416" d="M453.2,236.3c1,0.6,1.4,0.9,1.9,1.2C453.8,238.1,453.8,238.1,453.2,236.3z" />
	<path fill="#B7BDD5" d="M444.4,236.4c-0.6-0.3-1.1-0.6-1.7-0.8C443.5,235.5,444.2,235.4,444.4,236.4z" />
	<path fill="#E4C1B3" d="M430,189.4c5.7,0.1,4.9,7.4,6.4,11.3c-0.5-0.3-1-0.6-1.6-0.8c-0.6-2-1.4-3.9-3-5.6   c-0.2,0.7-0.4,1.2-0.5,1.7c-1-0.7-0.5-1.7-0.5-2.7C432.7,192.4,430.6,190.6,430,189.4z" />
	<path fill="#413A37" d="M413.9,165.2c1.8,2.3,2.3,5,3,7.7c-0.5,0.3-0.9,0.4-1.4,0.7c-1.4-2.7-2-5.5-2.8-8.3   C413.1,165.3,413.5,165.3,413.9,165.2z" />
	<path fill="#261C1B" d="M406.6,37.1c-0.5,2.2-2,3.7-3.6,5.4c-0.9,0-1.9,0-2.9,0c0-0.3,0-0.5,0-0.8c2.8-1.2,4-4,6.3-5.9   C406.5,36.3,406.6,36.7,406.6,37.1z" />
	<path fill="#1D1C1B" d="M415.6,194.4c-0.2,2,0.2,4.1-0.3,6.4c-3-1.9-1.3-6.8-0.7-9.8C415.6,192,415.5,193.2,415.6,194.4z" />
	<path fill="#49413D" d="M432.5,205.1c0.4,0,0.8-0.1,1.4-0.1c0.4,3,0,5.8-0.8,8.7C431.3,211.2,432.6,207.9,432.5,205.1z" />
	<path fill="#7F716B" d="M415.6,194.4c-0.1-1.2,0-2.5-1-3.3c0.2-1.8,1.6-3.3,2.3-5c0.2,0.6,0.5,1.1,0.7,1.7   C416.2,189.8,416.4,192.2,415.6,194.4z" />
	<path fill="#493F3C" d="M404.4,42.5c2,1.5,2,1.8-0.1,6.3C404,46.8,403.7,44.8,404.4,42.5z" />
	<path fill="#4A3D39" d="M431.4,196c0.2-0.5,0.3-1,0.5-1.7c1.6,1.8,2.4,3.6,3,5.6l-0.1,0.1C432.8,200,432.4,197.3,431.4,196z" />
	<path fill="#AF9A92" d="M407.3,154.8c-1.2-1.7-0.7-3.8-1.4-5.6c0-0.1,0.6-0.5,1.1-0.9c0.4,2.1,0.8,3.9,1.2,5.7   C407.8,154.3,407.6,154.5,407.3,154.8z" />
	<path fill="#605551" d="M407.3,154.8c0.3-0.3,0.6-0.6,0.9-0.8c1,2.3,2.6,4.2,3.5,7.2C408.6,159.7,408.8,157.2,407.3,154.8z" />
	<path fill="#BDA69D" d="M407.4,115.3c-0.2-1.6,0.5-3,1.5-4.4c-0.4,2.4,1,5.6-0.9,7.3C408,117.2,408.8,116,407.4,115.3z" />
	<path fill="#4C3D39" d="M434.9,199.9c0.5,0.3,1,0.6,1.6,0.8c0.5,0.9,0.9,1.8,1.5,2.7c0,0.2,0,0.4,0.2,0.6c-0.1,0.4-0.2,0.7-0.4,1.2   c-1.9-1-2-3.1-3.2-4.4C434.6,200.4,434.6,200.1,434.9,199.9z" />
	<path fill="#695A56" d="M426.4,224.6c1.3-1.7,2.5-3.4,4.2-5.6C431,222.2,429.2,223.3,426.4,224.6z" />
	<path fill="#BBA9A0" d="M432.2,210.4c0,1.2,0.1,2.3,0.9,3.2c-0.1,1.9-0.1,1.9-1.5,3C431.7,214.5,431,212.4,432.2,210.4z" />
	<path fill="#CBB6AD" d="M403.8,64.6c0.8,1.7,0.1,3-1.2,4.4C402.6,67.2,401.8,65.6,403.8,64.6z" />
	<path fill="#60544F" d="M417.6,187.8c-0.2-0.6-0.5-1.1-0.7-1.7c0.2-0.9,0.4-1.8,1.6-2.2C419.2,185.4,418,186.5,417.6,187.8z" />
	<path fill="#7B6861" d="M430,189.4c0.6,1.1,2.7,2.9,0.9,3.9c-0.6-1.3-1.2-2.6-1.8-3.8C429.4,189.4,429.7,189.4,430,189.4L430,189.4   z" />
	<path fill="#BEA59D" d="M407.6,100.5c0-1.5,0-2.1,0-2.8C409.8,97.8,408.9,99.2,407.6,100.5z" />
	<path fill="#6A5C58" d="M405.6,58.3c-0.3,0.9-0.6,1.7-0.9,2.5c-0.2,0-0.3-0.1-0.5-0.1c0-0.9,0-1.8,0-2.8   C404.9,58,405.2,58.1,405.6,58.3z" />
	<path fill="#1D1110" d="M406.6,37.1c-0.3-1.1-0.1-1.7,0.2-2.9C408.2,35.2,408.1,36.5,406.6,37.1z" />
	<path fill="#86756F" d="M408.8,104.3c0,0.8,0,1.6,0,2.5c-1.7-0.1-1-1.6-0.5-2.6C408.5,104.2,408.6,104.3,408.8,104.3z" />
	<path fill="#282523" d="M419.9,171.5c-0.9-1.2-0.8-2.4-0.3-3.7C420.7,169.3,420.7,169.3,419.9,171.5z" />
	<path fill="#E4C1B3" d="M430,189.4c-0.3,0-0.6,0-0.9,0.1c-0.9-0.5-0.9-1.1-0.5-2.1C429.7,187.7,429.9,188.5,430,189.4z" />
	<path fill="#80706B" d="M406.3,143.5c-1.7-0.8-1.6-0.9,0.1-2.5C406.4,142,406.4,142.7,406.3,143.5z" />
	<path fill="#41403E" d="M404.7,54.6c-0.8-0.5-1.3-0.9-0.7-1.7C404.9,52.2,405.2,53.7,404.7,54.6z" />
	<path fill="#664947" d="M400.1,41.8c0,0.3,0,0.5,0,0.8c-0.5,0.3-1.1,0.5-1.6,0.8c0-0.5,0-1,0-1.6C399,41.7,399.5,41.7,400.1,41.8z" />
	<path fill="#5F4C48" d="M413.9,165.2c-0.4,0-0.8,0.1-1.2,0.1c-0.4-1-0.4-1-0.1-2.2C413.1,163.9,413.5,164.6,413.9,165.2z" />
	<path fill="#706763" d="M407.4,115.3c1.4,0.7,0.6,1.9,0.6,2.9C406.7,117.5,407.5,116.3,407.4,115.3z" />
	<path fill="#665A56" d="M420.3,180.9c0-1.2,0-1.8,0-2.7C421.3,178.9,421.2,179.6,420.3,180.9z" />
	<path fill="#010101" d="M438.9,208.9c-1-0.5-1.1-0.6-0.2-1.4C438.8,208,438.8,208.4,438.9,208.9z" />
	<path fill="#E4C4B5" d="M437.9,203.4c-0.2-0.4-0.4-0.7-0.6-1.1C437.5,202.7,437.7,203.1,437.9,203.4z" />
	<path fill="#67534D" d="M454.4,169.2c-0.9-2.3-2.9-4-3.6-7c3.1,1.4,3.3,4.4,5.1,6.7c0.9,0,1.8-1,2.4,0.3c-1.1,0.2-0.4,1.2-0.3,1.9   c-0.6,0-1.2,0-2,0C455.6,170.6,455,169.9,454.4,169.2z" />
	<path fill="#322624" d="M464.9,188.5c-1.6-0.8-3.1-1.7-4.9-2.6c0.5-1.1,1.5-0.4,2.3-0.6c2.5,1.1,5.2,1.8,7.8,4   C467.8,189.9,466.8,189.2,464.9,188.5z" />
	<path fill="#332825" d="M458,171.1c-0.1-0.7-0.8-1.8,0.3-1.9c0.5,1.6,2.5,3.1,1.6,4.7C459.3,173,458.7,172.1,458,171.1z" />
	<path fill="#7C6E69" d="M463.5,180.4c2.6,0.9,2.6,0.9,2.2,2.8C465.1,182.4,464.6,181.7,463.5,180.4z" />
	<path fill="#C4AEA5" d="M461.8,176.1c1.2,0.6,1.6,1.4,0.9,2.6C461.5,178.1,461.1,177.3,461.8,176.1z" />
	<path fill="#71726C" d="M473.7,182.3c0-0.6,0-1.3,0-2.1c1.2,0.4,1.6,1.1,1.4,2.1C474.6,182.3,474.1,182.3,473.7,182.3z" />
	<path fill="#443835" d="M473.3,195.7c0.7,0.7,1.3,1.2,1,2.3C472.8,198,472.7,197.1,473.3,195.7z" />
	<path fill="#1E2223" d="M393.6,15.9c-0.1-0.4-0.2-0.7-0.4-1.4c8,1.7,8.8,12.6,5.2,18.5l0.1-0.1c-0.5,0-1.1,0-1.6,0   C399.3,26,401.1,20.4,393.6,15.9z" />
	<path fill="#161111" d="M423.5,4.6c-0.2-0.1-0.5-0.1-0.7-0.1c0.1-0.2,0.3-0.4,0.4-0.5C423.3,4.2,423.4,4.4,423.5,4.6z" />
	<path fill="#161111" d="M424.3,5.4c-0.3-0.3-0.6-0.6-0.9-0.9C424,4.5,424.4,4.7,424.3,5.4z" />
	<path fill="#161111" d="M425.1,6.2c-0.3-0.3-0.6-0.6-0.9-0.9C424.9,5.2,425.1,5.6,425.1,6.2z" />
	<path fill="#2E2B2E" d="M425.9,7c-0.6,0.1-0.9-0.3-0.9-0.9C425.7,6.1,425.9,6.5,425.9,7z" />
	<path fill="#24282A" d="M416.2,5.4c0.8-0.1,2.3-0.2,1.7,1C417.3,6,416.7,5.7,416.2,5.4z" />
	<path fill="#E4C1B3" d="M434.7,200c-0.1,0.2-0.2,0.5-0.2,0.7c-0.2-0.3-0.4-0.5-0.5-0.8C434.2,200.1,434.5,200.1,434.7,200z" />
	<path fill="#AADDE7" d="M396.9,32.8c0.5,0,1.1,0,1.6,0c-0.6,0.3-1.1,0.6-1.7,0.9C396.8,33.4,396.9,33.1,396.9,32.8z" />
	<path fill="#010101" d="M442.1,117.6c0.1,0.1,0.3,0.3-0.2-0.2C442.4,117.9,442.2,117.8,442.1,117.6L442.1,117.6z" />
	<path fill="#89766D" d="M446,142.5c-0.1,0.2-0.2,0.4-0.3,0.7c-0.4-0.3-0.1-0.6,0-1C445.8,142.3,445.9,142.4,446,142.5z" />
	<path fill="#E0C3B4" d="M479.2,175.8c-0.8-0.6-1.6-1.2-2.4-1.7c-0.1-0.4-0.1-0.8-0.2-1.6c2.1-1.6,3.9-4.8,6.6-5.7   C481.4,169.6,480.5,172.8,479.2,175.8z" />
	<path fill="#201E1D" d="M483.1,161.5c-0.4-0.4-0.4-0.9,0-1.3C483.1,160.6,483.1,161,483.1,161.5z" />
	<path fill="#3A2F35" d="M430.1,240.9c1.7,1.3,3.1,2.3,4.7,3.4C432.2,245,429.5,243.7,430.1,240.9z" />
	<path fill="#8B8D9E" d="M419.6,236.6c-1.2-1.3-0.7-1.9,0.3-2.4C420.5,235.2,420.2,235.3,419.6,236.6z" />
	<path fill="#433237" d="M438.8,245.2c-0.3,1-0.8,1.2-1.7-0.1C437.9,245.2,438.3,245.2,438.8,245.2L438.8,245.2z" />
	<path fill="#302927" d="M396.3,119.1c-0.8-2.6-3.1-3.5-1-6.4c1.4,2.2,2.1,4.6,4,6.5c0,2.6,0.7,5.2-1.2,7.9   C395.7,124.6,399.1,121.1,396.3,119.1z" />
	<path fill="#1D1E1F" d="M393.8,26.3c-0.2-5.4-6.1-6.9-7.5-11.3C390.1,16.8,396.4,21.6,393.8,26.3z" />
	<path fill="#414B4D" d="M388.8,23.9c1.6,1.3,1.7,12.1-1.7,8.9c2.5-1.9,1.1-5.4,0.9-8.1C388.3,24.5,388.5,24.2,388.8,23.9z" />
	<path fill="#231819" d="M378.3,27.2c1.2,0,0.9,0.8,0.8,1.5C378,28.6,378.2,27.9,378.3,27.2z" />
	<path fill="#8B868A" d="M380,31.2c0.7-0.9,0.8-0.9,1.5,0C381,31.2,380.5,31.2,380,31.2z" />
	<path fill="#504643" d="M508.2,132.6c2.3,1.1,2.4,2.5,1.2,5.2c-1.5-1.3-1.1-3.2-1.9-4.7C507.8,133,508,132.8,508.2,132.6z" />
	<path fill="#84726C" d="M488.2,177.4c0.3,1.2,0.5,2.4,0.8,3.7c-2.3,0.4-1.4-2.3-1.7-3.7C487.6,177.4,487.9,177.4,488.2,177.4z" />
	<path fill="#1E1B19" d="M509.9,70c0.4,1,1.2,2,0.4,3.2c-1.5-0.2-1.1-1.4-1.4-2.3C509.2,70.6,509.6,70.3,509.9,70z" />
	<path fill="#8C7C76" d="M510.6,86.8c-1.1-0.6-0.7-2.6,0.6-2C511.9,85.5,511.6,86.6,510.6,86.8z" />
	<path fill="#816560" d="M509.9,70c-0.3,0.3-0.6,0.6-0.9,0.9c-0.8-0.7-0.7-1.5-0.4-2.3C509.8,68.5,509.9,69.2,509.9,70z" />
	<path fill="#735A56" d="M500.3,178.3c-0.4-0.4-0.7-0.7-1.1-1.1c0.4-0.4,0.9-0.8,1.3-1.3C501.5,177,501.1,177.7,500.3,178.3z" />
	<path fill="#B6A69E" d="M505.9,130.5c0.8-0.2,1.9,1.1,0.8,1.4C506.1,131.7,505.7,131.3,505.9,130.5L505.9,130.5z" />
	<path fill="#B59D96" d="M503.9,169.3c0.1,1.3,0.1,1.3-1.1,1.2C503.2,170.1,503.5,169.8,503.9,169.3z" />
	<path fill="#351B19" d="M502.3,172.5c0.9,1.1,0.4,2.2-0.7,1.5C501.8,173.5,502,173.1,502.3,172.5z" />
	<path fill="#4A3D3A" d="M510.9,81.7c-0.2-0.4-0.3-0.7-0.5-1.1c0.2-0.1,0.4-0.2,0.7-0.2c0.1,0.4,0.2,0.8,0.3,1.2   C511.2,81.6,511.1,81.7,510.9,81.7z" />
	<path fill="#B6A69E" d="M505.9,130.5c-0.7-0.1-1.4,0-1.5-0.9c0.3-0.3,0.5-0.5,0.8-0.8C506,129.2,505.8,129.9,505.9,130.5   L505.9,130.5z" />
	<path fill="#3B3230" d="M510.6,76.6c-0.1,0.2-0.1,0.4-0.2,0.6c-0.6-0.2-0.5-0.5-0.2-1C510.3,76.3,510.5,76.4,510.6,76.6z" />
	<path fill="#55423F" d="M503.4,128.1c0-0.7-0.2-1.4,0.8-1.5C504.3,127.3,504.7,128.2,503.4,128.1z" />
	<path fill="#826F69" d="M488.2,177.4c-0.3,0-0.6,0-0.9,0c0.1-0.5,0.1-0.9,0.2-1.4c0.1,0,0.3,0,0.4,0   C488,176.5,488.1,176.9,488.2,177.4z" />
	<path fill="#978079" d="M487.2,172.6c0,0.7,0.1,1.3-0.7,1.6C486.4,173.5,486.3,172.8,487.2,172.6z" />
	<path fill="#8E857F" d="M484.8,167.7c0.2-0.2,0.3-0.3,0.5-0.5c0.1,0.4,0.3,0.9,0.4,1.3C485.4,168.2,485.1,168,484.8,167.7z" />
	<path fill="#52413F" d="M505.1,128.9c-0.3,0.3-0.5,0.5-0.8,0.8C504.3,129.1,504.5,128.8,505.1,128.9z" />
	<path fill="#181515" d="M511.6,61.9c0.3,0,0.5,0,0.8,0.1c-0.1,0.2-0.2,0.3-0.3,0.5C512,62.3,511.8,62.1,511.6,61.9z" />
	<path fill="#E9C8B9" d="M505.8,51.3c0.3-0.3,0.5-0.6,0.8-0.9C506.3,50.7,506.1,51,505.8,51.3z" />
	<path fill="#030203" d="M426.7,301.7c0-0.2,0-0.5,0-0.7c0.2-0.2,0.3-0.3,0.5-0.5C427.3,301.1,427.4,301.5,426.7,301.7z" />
	<path fill="#4D5E62" d="M496,44c0.1-0.2,0.2-0.4,0.2-0.6c2.2-0.2,2.8-2.6,3.9-4.3c0.3,0.3,0.5,0.6,0.8,0.9c-1,1.6-1.7,3.5-3.1,4.9   l0,0c-0.3,0-0.5,0-0.8,0C496.7,44.6,496.3,44.3,496,44z" />
	<path fill="#9AC9D3" d="M497,44.9c0.3,0,0.5,0,0.8,0c-0.5,0.3-0.9,0.7-1.4,1l-0.2-0.2C496.4,45.5,496.7,45.2,497,44.9z" />
	<path fill="#9AC9D3" d="M500.3,45.8c-0.6,0.2-1.1,0.5-1.7,0.7C498.9,45.7,499.6,45.7,500.3,45.8z" />
	<path fill="#9AC9D3" d="M501.9,45c-0.3,0.2-0.6,0.4-0.9,0.6C501.3,45.4,501.6,45.2,501.9,45z" />
	<path fill="#9AC9D3" d="M497.7,44.9c0.3-0.3,0.5-0.6,0.8-0.8C498.3,44.3,498,44.6,497.7,44.9z" />
	<path fill="#A5D7E1" d="M517.2,53.9c-1.4,0.8-2.8,1.6-4.1,2.5c-2.3-2,0.5-3.5,2.4-4.2C515.5,53.4,516.1,53.9,517.2,53.9z" />
	<path fill="#A5D7E1" d="M518.7,53c-0.5,0.3-1,0.6-1.5,0.9C517.4,53,518,53,518.7,53z" />
	<path fill="#A5D7E1" d="M519.6,52.2c-0.3,0.2-0.6,0.5-0.9,0.7C519.1,52.7,519.3,52.5,519.6,52.2z" />
	<path fill="#A5D7E1" d="M515.5,52.2c0.3-0.3,0.5-0.6,0.8-0.9C516,51.6,515.8,51.9,515.5,52.2z" />
	<path fill="#546165" d="M521.2,57.8c-0.8-0.1-1.9,0.6-2.3-0.7c4-0.7,6.3-3.2,7.8-6.7c0.3,0.3,0.6,0.7,0.9,1c-1,1.6-1.8,3.4-3.2,4.9   c0,0,0,0,0,0C523.4,56.8,522.3,57.3,521.2,57.8L521.2,57.8z" />
	<path fill="#344245" d="M527.5,51.3c-0.3-0.3-0.6-0.7-0.9-1c0-2.4,0.4-4.9-0.8-7c0.1-0.3,0.1-0.6,0.2-0.9   C529.1,44.5,528.8,48.4,527.5,51.3z" />
	<path fill="#A9D2DB" d="M526.1,44c0.2,0.6,0.4,1.2,0.6,1.7C526,45.4,526.1,44.7,526.1,44z" />
	<path fill="#9FD1DB" d="M522.8,57c0.5-0.3,1-0.6,1.6-0.9C524.2,57.1,523.5,57,522.8,57z" />
	<path fill="#9FD1DB" d="M521.2,57.8c0.5-0.3,1.1-0.5,1.6-0.8C522.5,57.9,521.9,57.9,521.2,57.8z" />
	<path fill="#9FD1DB" d="M524.4,56.2c0.3-0.3,0.5-0.6,0.8-0.9C524.9,55.6,524.6,55.9,524.4,56.2z" />
	<path fill="#BCEAF3" d="M500.1,39.1c-1,1.6-1.6,4-3.9,4.3c-0.6-0.6-1.1-1.2-1.7-1.8c1.6-4,4.4-8.7,1.4-12.8   c0.1-0.4,0.1-0.8,0.2-1.2c0.6,0.1,1,0.5,1.6,0.5C500.9,30.9,500.4,35.2,500.1,39.1z" />
	<path fill="#A8DBE5" d="M388,24.7c0.2,2.7,1.6,6.2-0.9,8.1c-1.1-1.9-1.9-3.8-1.7-5.8c-1.6-2.1-3.2-3.6-5.7-3.9   c0.5-0.7,1.4-1.2,0.7-2.3c0.6,0,1.2-0.1,1.8-0.1C384.3,21.9,386.4,23,388,24.7z" />
	<path fill="#2F3032" d="M388,24.7c-1.6-1.7-3.7-2.8-5.7-4c2.1-2.4,5.8,0.8,6.5,3.2C388.5,24.2,388.3,24.5,388,24.7z" />
	<path fill="#412E30" d="M380.5,20.8c0.6,1-0.2,1.6-0.7,2.3C378.2,22.4,379.5,21.2,380.5,20.8z" />
	<path fill="#131A1A" d="M378.4,23.9c1.1,0.4,0.6,0.7,0.3,1.4C377.8,25,378.2,24.5,378.4,23.9z" />
	<path fill="#59423F" d="M504.2,58.6c-1.3,0.2-1.3-0.3-1.2-1.3C504,57.3,504.2,57.7,504.2,58.6L504.2,58.6z" />
	<path fill="#303638" d="M497,44.9c-1.5,1.3-3.3,2.5-5.4,2.6c-0.4-0.3-0.7-0.7-1.1-1c1.8-0.8,3.7-1.7,5.5-2.5   C496.3,44.3,496.7,44.6,497,44.9z" />
	<path fill="#2A3133" d="M496,28.8c3.7,6.4-1.9,17.9-10.2,15.8c2.6-1.8,5.7-1.1,6.9-3.7c2-3.7,4.1-8.7,1.7-12.7l0.3-0.2   C495.1,28.2,495.5,28.5,496,28.8z" />
	<path fill="#3A464A" d="M483.2,33.6c-0.2-0.2-0.6-0.4-0.5-0.4c0.8-1.3,0-3.1,1.3-4.3C484.5,30.6,484.2,32.2,483.2,33.6z" />
	<path fill="#A9DCE7" d="M493.6,39.3c-0.2,0.3-0.4,0.6-0.6,0.9C493.2,39.9,493.4,39.6,493.6,39.3z" />
	<path fill="#3C3031" d="M488,25.7c0.3,0.1,0.5,0.2,0.8,0.2C488.5,25.8,488.2,25.7,488,25.7z" />
	<path fill="#3A4A4D" d="M480.9,32c0.7,0.2,0.5,0.6,0.3,1.2c-0.2-0.2-0.3-0.3-0.5-0.5C480.7,32.5,480.8,32.3,480.9,32z" />
	<path fill="#3C3031" d="M496,28.8c-0.4-0.3-0.9-0.5-1.3-0.8c0.2-0.8,0.9-0.7,1.5-0.7C496.1,27.7,496,28.2,496,28.8z" />
	<path fill="#7A6962" d="M472.8,438c-0.3-0.5-0.7-1.1-1.2-1.9C473.2,436.7,473.2,436.7,472.8,438z" />
</g>
</svg>