<?xml version='1.0' encoding='utf-8'?>
<svg xmlns="http://www.w3.org/2000/svg" version="1.2" baseProfile="tiny" id="Layer_1" x="0px" y="0px" viewBox="0 0 900 600" overflow="visible" xml:space="preserve">
<g id="a">
	<path fill="#010000" d="M775.8,225.1c-35.7,4.8-73.4,4.5-108.9,9.9c-13,6.7-27.7,9.3-41.3,14.3c-11,3.9-21-2.8-31.8-5   c19.6,27.4,34.9,56.1,42.8,88.9c3.7,0.4,7.6,0.7,11.5,1.1c2.1,3.5,2,8,1.6,11.8c-0.7,14.5,4.3,30.1-2.1,44.2   c-9.7,14.1-5.8,30.9-10.5,46.9c1,2.3,2,4.8,3.2,7.6c-0.4,0.6-1,1.3-1.7,2.3c19.4,62.1-43.5,107-99.6,106.4   c-24.1,3.8-48.7-4.3-72.9-3.5c-6.5-3.3-10.6-6.7-14.7-12.7c-40.6,9.2-82.7-10.3-122.1,7.3c-34.1,7-69.9,9-104.7,7   c-13-4.4-25.5,3.9-38.2,4.4c0.1-0.4,0.1-0.7,0-1.1c19.4-8.1,42.2-10.7,58.3-25.8c1,0.1,2.1,0,2.6,1.3c-2.9,3.6-6.1,6.7-9.9,9.2   c12.7,4.3,28,2.5,41.3,0c0.5,0.4,1,0.9,1.5,1.3c-3.8,2.1-8.2,2.1-12.3,3.2c31.7,2.2,62.2-8.8,93.3-11.8c28.7-4.3,59.6,2.7,87.9,0.3   c0.7-7.2,1.4-13.9,2.1-20.7c0.8-0.4,1.6-0.9,2.4-1.3c3,0.3,3,0.3,3.3-2.1c0.1-1.4,0.5-2.9-1.1-3.8c0.3-1.9,0.3-1.9,2.3-1   c6.6,15.4-10.4,17.8,3.6,37.6c3,1.3,4.8,3.6,7.8,3.4c19.1-0.9,36.9,5.4,56,4.8c-9.6-8.9-22.8-10.9-33.4-17.7c-1-0.6-0.7-1,0.2-1.3   c15,4,28.8,10.7,41.2,20.1c20.4,1.7,39.5-5.6,57.9-13.1c17.8-4.6,29.1-23.5,39.9-37.3c-1.3-3.2-1.3-3.2,2.1-6.9   c-0.1-1-0.1-2.1-0.2-3.4c7.7-11.2,7.2-30.4,0.5-42.6c0.4-1,0.8-2,1.5-3.5c-1.8-2.2-0.9-5.5-2.6-8.2c-5.5,3.5-11.4,4.2-17.5,3.5   c-1.2-1.6-3.1-0.8-4.7-1.3c12.4-3,24.2,0.4,24.8-16.7c-1,1-2.1,1.9-3.3,3.1c-2.4-7-7.1-4.4-12.1-8.1c4.1-0.2,6.7-0.6,10.3-0.2   c2.4-5.1,4.7-9.9,7.3-15.3c-7.3-11.3-17.8-22.4-31.2-26.6c7.7-8.9,28.6,16.5,34,22.9c5.6-8.8,10.9-18.6,7.2-28.8   c-15.8-1.6-36-10.4-43.4-26.2c-11.3-6.5-23.7-11.7-36.8-12.9c10.4-6.5,24.1,3.9,34.3,7.6c8.1,4.6,14.1,15.2,22.3,18   c-10.3-24.1-17.1-50-29.7-73c-7.1-18.4-32.8-41-30.2-60c21.7,22.1,60.7,32.2,87.8,13.5c44.5-18.3,96.3-6.5,142.9-16   c1.6-2.8,5.4-9.4,1.7-10.2c-8,0.7-15.6-1.3-23.4-2.4c7.7-4,17.7,0.3,26.1-2.5c4.8-16.3-6.9-22.2-12.1-34.1   c-0.8-1.4-3.6-3.4-4.4-4.2c-68.1,6-133.5-24.1-201.2-19.2c-27.9-8.3-60.1-10.3-85.5,7.3c-2.2-0.5-3,2.5-4.5,3.6   c-0.5-0.5-1-1.1-1.6-1.6c2.6-20.5,16.5-38.3,34.8-48c12.5-10.4,27.3,0.4,41.1-1.5c71.2-7.2,138.6,34.5,209.5,19.5   c0.6-1.9,1.2-3.9,1.8-6c-1.5-0.7-2.6-1.2-4.1-1.9c13.3-16.2,38.9-18.2,54.1-33.2c0.9,2.7-2.5,5-3.6,7.6c5.9,0.7,6-12.3,9.3-17   c3.6,2.8-0.6,8.5-0.7,12.2c1.2,0.4,2.2,0.7,3.4,1.1c-1.6,2.6-4.4,3.1-6.9,4.6c-1.6,1.3-0.8,3.8-2.9,5.2c-1.6,1.1-2.6,3.6-3,6   c4.4,1.5,8.5,1,11.7,4.2c-5.3,4.2-10.3,1.9-15.4,0.7c-1.2,1.5-2.2,2.8-3.5,4.4c4.8,1.4,9.9,0.5,13.8,4.2   c-5.6,4.8-11.9-0.3-17.4,3.6c4.9,2.5,10.8,2,13.7,7.3c-5.5,4-13.4-1.4-19.4-1.8c-5.1,5.3-10.8,8.7-14.1,15.2   c10.3,0.6,21.7,2,29.5,9.2c-15.9,2-34.5-12.3-45.3,3.9c7.2,5.1,12.2,13.3,20.9,14.8c6,0.1,9,3.9,11.7,7.2   c11.4,9.9,12,27.9,0.1,37.6C805,224,785.1,223.5,775.8,225.1z M569.3,230.8c-0.9-1.2-1.3-3-3.9-2.4c22.8,32.7,43.7,66.3,54.6,104.9   c3.9-0.3,7.5-0.6,11.3-0.9C618.8,294.9,604.6,252,569.3,230.8z M502.5,145.7c68.5-26.1,194.6,18.9,274.4,15.7   c-2.6-5.4-6.9-6.9-12.2-6.9c0-0.3,0-0.6,0-1c3.2-0.7,6.4-1.3,10.1-2.1c0.7-6.1-0.7-13.5-3-19.2c-45.4,2.7-91.5-0.8-134.6-16.2   c-29.4-6.2-59.2-5.6-88.6-8.1c-19.2-6-33.3,10-46.2,21.9C499.9,133.4,493,150.7,502.5,145.7z M796.7,105.7   c-6.3,2.3-11.4,6-16.6,9.6c5.7,6.7,7.3,14.4,8.1,23c7-6.8,13.4-12.8,20-19.6C804.2,114.2,800.5,110,796.7,105.7z M800.5,218.3   c19.1-16.2,17.5-28.5-0.6-44.8c-2.4,0-4.7,0-7.7,0c12.2,10.9,16.2,32.4,4.6,45.1C798.8,218.4,799.8,218.3,800.5,218.3z    M646.4,358.2c1.1-1.4,0.4-2.7-0.3-3.2c-4.8-4.8-0.2-11.8-1.3-17.7c-4.3-1.1-19.9-1.8-24.1-1C627.8,344.5,639.3,349,646.4,358.2z    M810.9,98.5c-2.8,1.9-6.2,2.5-8.8,4.9c3.6,3.6,5.9,6.3,8.9,10.4c2.4-3.2,4.5-5.9,6.6-8.7C815.8,102.5,814.3,100,810.9,98.5z    M266.5,544.6c-13.7,1.3-30.4-7.3-41.7,1.5C235.2,547.3,255.8,546.6,266.5,544.6z M784.5,142.3c-1.5-6-0.8-12.3-4.1-17.7   c-2.2,0.9-1.3,3-2.1,4.1c-0.9,1.1-2.1,2-3,2.8c2.2,5.2,3.3,8.9,4.3,14.4C781.5,144.5,783,143.4,784.5,142.3z M629.2,356.8   c8.2,4.5,9.6,4.9,13.2,4.6c-4.5-5.8-9.6-12.2-16.7-14.7C627,350.3,628.1,353.6,629.2,356.8z M587.6,143.6c-5.2-1-5.8-1-10,0.5   C581.3,144.1,584.2,144.8,587.6,143.6z M636.8,419.1c0-2,0-3.6,0-6.4c-1.4,2.7-1.6,2.6-2.1,4.8C635.3,418,635.9,418.5,636.8,419.1z    M821.1,99c0.4-0.7,0.8-1.5,1.2-2.1c-2.5-2.1-2.7-2.1-3.8-1.1C818.4,97.2,819,98.3,821.1,99z M453.9,512.2c-0.9,0.1-1,1.3-1.5,2   c0.4,0.2,0.8,0.4,1.3,0.7C454,513.9,455,513,453.9,512.2z" />
	<path fill="#010101" d="M458,503.4c-2.2-1.1-2.1-0.6-2.3,1.3c-2.2-1,0.1-7.6-2.4-6c-7.1-27.8-3.1-59.5-5.1-88.3   c-8.5-1.1-16.9-2-25.4-3c0.1-0.3,0.2-0.6,0.1-0.9c8.4-0.5,17-0.8,25.3,0.3c1.1-5.4,1.6-11.2,0.5-16.9c-12.4,0.5-34-19.2-44-8.2   c-11.5-5.7-24.2-8.6-37.7-6.6c-8.8,3.3-15-7.3-23.8-4.7c-8.6,2.1-18.4,1-25.5,7c-5.8,2.7-11.2,4.8-17.8,3   c-32.7-5.3-78.8-8.5-106.1,14c23.7-0.1,45.5-7.9,68.4-11.6c1.5,0.7,3.5-0.7,4.7,1c-12.8,5.5-27,8.1-40.1,12.1   c-12.7,18.5-40.1,18.4-53.8,36.2c0.3,0.6,0.7,1.5,1,2.3c1.1-0.2,1.9-0.3,2.6-0.4c0.5,0.5,1,0.9,1.5,1.4c-0.8,0.8-1.7,1.6-2.6,2.4   c0,3,3.1,7.3,0.2,9.4c-9.8-14.7-18.5-30.2-31.8-42.3c-17.4-15.7-27-41.2-52.4-45.6c0.4-0.4,0.8-0.7,1.2-1.1   c26.6-0.2,41.3,37.2,64.3,51.5c0.4,1.5,1.6,1.2,2.7,1.3c2.3,6.3,7.4,11.6,11.4,17.1c13-12.8,25-24.8,42.4-32.4   c-8.9-0.5-16.2,1.3-23.3,3.9c0.1,0.9,0.2,1.3,0.3,2.1c-3.5-0.6-7.1-2.5-10-0.1c-1.4-1.6-2.8-2.7-5-2.2c-0.4-0.4-0.8-0.8-1.1-1.2   c0.4-1.5-0.7-3.5,1.1-4.7c3.3,2.2,7.8,2.8,11.5,4.1c6.2-9.6,18-13.9,28.2-19.5c-1.8-24.5-17.4-45.9-30.4-66.1   c-2.7-5.3-9.6-11-8.2-17.2c-0.8-1.4-1.6-2.7-2.3-4.1c0.5-0.5,1-1,1.6-1.6c17,27.1,37.9,55.3,43.3,87.8c29.2-5.2,59.8-4.5,89.3-0.2   c16.2-7.4,37.6-16.1,53.5-4c13.6-6,27.2-1.6,40.2,3.7c10.8-4.7,26.5-2,34.6,7.3c4.3,0.4,8.5,0.5,12.8,0.4   c4.6-7.3,11.6-10,20.1-11.7c9.7-16.9,1.2-39.9,2.1-59c0.7-49.4-7.9-103,12.6-149.3c1.3,0.4,1,1.7,1.4,2.6   c-14.7,60.8-14,125.6-5.8,186.7c-4.7,6.7,4.1,14.2,2.3,21c-2.3-1.7-3.2-4.4-6.4-4.8c-0.7,2-1.5,4.1-2.2,6.2   c-1.4-0.9-2.8-1.5-3.7,0.7c-6.6,2.4-13.1,4.3-16.3,11.6c3.2,11.5,9.8,21.8,13.3,33.2c-0.4,0.8-0.8,1.7-1.1,2.5   c-2-2.3-1-6.5-4.8-7.2c0.4-3.6-2.9-5.2-6-4.4c-0.7-0.5-1.5-1-2.2-1.4c1.5-1.4,3.2-1.1,5.1-1.1c-0.4-3.8-3.7-3.4-6.5-3.5   c-2.5,4.1-0.6,9.6-1.1,14.3c0.1,2.3,3.2,2.9,4.6,4.6c-0.4,0.4-0.8,0.7-1.1,1.1c-0.7-0.2-1.4-0.4-2.5-0.7c0.4,7.1,0.3,13,0.3,20.1   c1.5,1,2.9,2,4.3,2.9c-1.1,0.6-2.1,1.2-3.2,1.8c-0.5,2.1,0.4,3.2,2.1,4.1c3.1-3.7,3.3-8,6.2-11.7c1.3,0.4,1,1.7,1.3,2.6   c-3.6,11.7-10,23-3.7,35c-2.3-1.4-2.6-1.6-4.7-3.3c-0.6,8.2,6.5,13.3,4.6,21.7C457.6,500,457.9,501.8,458,503.4z M218.7,399.2   c-11.3,3.4-22.8,8.4-30.8,16.9c0.2,0.2,0.4,0.4,0.6,0.6c9.5-7.6,25.8-7.7,32.5-18.3C220.2,398.6,219.4,398.9,218.7,399.2z M455,404   c1.4-3.1-1.3-6.6-3.5-9.1c0.3,2.6,0.5,5.1,0.8,7.8C453.1,403.2,454,403.6,455,404z M454.7,455.8c-1.6,2.2-1.6,3.1-0.3,4.4   C454.5,458.8,454.5,457.9,454.7,455.8z" />
	<path d="M27.1,469.6c-0.6,0-1.2,0-1.7,0c-1.7,1.1-1.4,4-4.4,4.1c-1.7-2-3.9-3.9-3.1-7.1c-1.3-1.3-2.5-2.3-3.8-3.6   c0.8-0.9,1.5-1.8,2.3-2.8c-1.2-2-4.6-1.6-5.3-4.7c0.9-1.1,2-2.3,3.3-3.8c-7.1-6.9-7.5-16.9-7-26.1c-1.8-2.3-3.2-4.1-4.5-5.7   c0.7-3.3,2.8-1.6,4.9-0.7c1.7-7-1.8-13.4,1.9-20.2c1.4-3.5,2.7-6.9,1.6-10.9c-0.2-5.5-4.3-9.8-1-15.2c1.5,0.6,3,1.2,4.8,1.9   c1.4-5.6-2.2-14.4,3.9-17.1c0-1.3,0-2.6,0-3.7c1.9-3,5.1-2.1,7.9-3.3c-2.4-3.1-5.9-3.9-7.5-8.1c1.6-0.8,2.9-1.4,4.4-2.2   c2.4-8.1,2.6-1.7,6.5-3.6c-0.3-2.1-0.6-4.4-1-6.9c1.1-1.2,2.3-2.4,3.3-3.5c3.6-0.6,6.4,1.2,9.6,2.1c0.6-0.4,1.4-0.9,2.5-1.6   c2,2.1,2.9,5,6.1,4.2c0.9,8.8,5.1,18.3,2.2,27c-3.3-8.2-1.6-24.6-13.5-26.3c8.2,9.1,10.8,24.2,11.2,36.7c1.3,1.5,3.7,1.2,3.5,3.6   C48,385.5,47,400,44.2,414c3,47.1-4.6,25.4-14.8,58.9C28.5,471.9,29,469.7,27.1,469.6z M14.5,443.8c0.9,2.9,1.1,3,3.4,1   c-0.4-0.6-0.8-1.2-1.3-1.8C15.9,443.3,15.2,443.6,14.5,443.8c-0.1-4.7-0.6-6-3-8C10.5,438.8,10.2,444,14.5,443.8z M26.2,367.1   c1.1-4.2,3.4-6.6,7.8-6.8c0.4,0,0.8-0.8,1.3-1.3c-0.8-1.3-1.5-2.6-2.4-4.1c-2,0.3-4.5-0.7-6,0.6c0.9,0.8,1.7,1.5,2.8,2.6   c-2.1,1.1-3.9,2.1-6,3.1c0.6,3.7,1.1,7.2,1.7,11.2C28.4,371.1,26.5,369.4,26.2,367.1z M34.6,446.2c1.2-2.3,2.2-4.3,3.3-6.4   c-0.7-0.6-1.3-1.2-2.1-1.9c-1.9,2.5-4.6,2.2-5.9,5.1C31.4,444,32.9,445,34.6,446.2z M45.3,379.3c2.4-3.6,3.4-9.4,0.4-11.2   c-0.6,1-1.2,2-1.6,2.6C44.5,373.6,44.9,376,45.3,379.3z M42.6,428.8c-0.9-1.2-1.7-2.3-2.7-3.6c-1.2,0.7-2.2,1.2-3.4,1.8   c1,2,2,3.5,4.2,3.8C41.4,430.2,41.9,429.6,42.6,428.8z M23.9,448.8c-1.3,1.8-1.9,2.6-2.5,3.6c1,0.8,1.6,1.4,2.6,2.2   c0.9-1,1.6-1.8,2.8-3C25.8,450.6,25.2,450,23.9,448.8z M39.3,410c2.3-3.3,2.6-4.6,1.2-5.6c-0.9,0.5-1.8,1.1-2.9,1.8   C38.1,407.4,38.6,408.4,39.3,410z M26.2,341.3c-2.1,3.7,0.4,6.8,2.3,4C27.9,344.4,27.3,343.3,26.2,341.3z M17.7,386.7   c1.9-1.2,2.8-1.8,4.1-2.6c-1.2-1-2-1.7-3.3-2.9C18.3,383.2,18.1,384.4,17.7,386.7z" />
	<path fill="#020202" d="M833.8,78c-0.2-1.1-0.1-2.4-1.5-2.8c1.3-3.5,5-6.5,4-10.4c-0.4-1.2-0.2-3.2,0.3-4.5   c2.8-16.4,21.8-7.2,28.2-18.8c6.2-1.3,11.3,4.7,17.7,4.6c1.3,0.1,2.6,1,3.6,1.8c11.1,7,16.1,27.7,4.8,36.2   c8.8,21,7.7,42.5,4.5,64.5c-0.3,11.8-13.9,17.2-19.4,26.8c3.3,6,5.2,12.3,2.9,18.9c-1.7,2-1.2,3.9-0.3,6   c3.9,10.7,5.3,23.1-3.2,31.4c-3.2,5.8-14.3,33.1-21.5,28.9c-10.9-3.7-25.7-5.9-34.6-13.6c-15.7-4.8-34.6-7-43.6-21.6   c1.5,0,2.9,0,4.4,0.1c-0.2,1.3-0.4,2.6-0.6,4.2c14.1,6.6,29.4,9.8,42.8,16.3c2.5,3.8,7.9,2.7,11.5,4.6c7.3,0.6,14.8,7.5,21.6,6   c9.3-17.2,28-34.5,19-55.3c-1.9-4.2,0.1-8.4,1.2-12.3c-1.6-3.4-1.2-8.3-4.4-10.4c-1.2-9.3,11.7-14.3,17.3-20.9   c9.8-39.7,5-73.7-22.5-105.3c-22.1-0.4-23.9,2.4-28.5,23.3c-1-0.3-1.7-0.6-2.4-0.8C834.8,75.5,834.3,76.7,833.8,78z M889.8,74.1   c0.8,0,1.2-0.4,1-1.2c0.3-0.2,0.4-0.5,0.2-0.9c3.7-10.1-5-21.2-14.9-23.2c-2.3-1.8-9.8-6.3-11-2.2c1.8,1.5,3.6,3.1,5.7,4.9   c2.3,8.4,12,12.9,15.3,20.7c-0.1,0.3-0.1,0.6,0.2,0.8C887.1,75.6,887.6,75.7,889.8,74.1z" />
	<path fill="#010101" d="M180.7,557.1c-18.7,5.1-55.8,1.5-60.4-21.1c-13.1-12.8-23-31.9-14.1-49.9c-3.6-0.9-6.4,1.1-9.7,0   c-1.7-2-3.6-1.1-5.2-0.8c-1.1,1.6,0,3.6-1.9,4.3c-2-5.4-3.3-11.2-6-16.2c0.4-0.5,0.9-0.9,1.3-1.4c0.3,1,0.7,1.9,2.6,1.6   c-3.7-4.2-1.9-11.4-4.8-15.6c-1.9-4.6-3.2-9.1-4.1-13.9c-0.9,0.5-1.3,0.8-1.8,1.1c-1.4-0.3-1-1.6-1.3-2.5c1-1.2,2-2.3,3.3-3.8   c0.1-1.1,0.2-2.7,0.4-4.2c1.6-2.1,2.2-4.5,2.6-7l0.3,0.1l0.3-0.1l0.1,0.1c0,1.3-0.4,2.7,1.3,3.3c1.5,4.6-1.8,10.6,1.7,14.3   c0.8-0.4,0.9-0.9,1.8-0.4c1.4,20.2,22.4,32.3,37.3,42.4c-0.4,0.4-0.9,0.9-1.3,1.3c-3.9-1.1-7.6-2.9-11.2-4.7   c-0.8,0.5-1.4,0.9-2.1,1.3c-4.8,22.4,5.4,41.9,20.2,58.3c14.4,11.5,32.1,9.7,49.3,11.6C179.8,555.8,180.2,556.4,180.7,557.1z    M91.8,473.6c1,2.6,2.6,1.8,4.2,1.4C95.2,473.2,94,472.7,91.8,473.6z" />
	<path fill="#151211" d="M54.5,354c-0.3-6.2-2.7-12-2.4-18.1c1.5,4.9,2.6,10,3.3,15c6.6,1.1,12.4-0.4,18.6-2   c3.9-11.3,7.8-22.8,10.5-34.2c3.8,10.8-5.3,21.9-6.7,32.7c5.4,0.6,13.3-0.9,13.4,6.7c7.4-1.4,12.9-5.6,20.3-6.4   c0.4,1.3,1.6,1.1,2.6,1.3c-10.8,5.1-20.9,10.4-31.2,2.1C73.5,351.2,64,357.4,54.5,354z" />
	<path fill="#0A0808" d="M85.7,317.4c-3.3-20.7,22.2-32.5,28.3-50.7c5.8-11,20.2-7.2,30.4-6.5c-7.5,2.9-16.9-1.2-23.4,4.7   c-1-0.1-1.9,0-2.1,1.2c-1.9,0.8-1.3,3.1-2.6,4.6l0,0c-1,0.5-1.3,1.3-1.2,2.4l0,0c-0.4,1.2-0.8,2.4-1.2,3.6l0,0   C104.1,289.9,91.7,301.4,85.7,317.4z" />
	<path fill="#0D0B0A" d="M89.4,489.4c1.9-0.8,0.8-2.8,1.9-4.3c1.6-0.3,3.5-1.2,5.2,0.8c-1.3,0.1-2.7,0.2-4.1,0.3   c-0.6,2.8-0.8,5.4,0.5,8.3c-5.5,8.1-16.4,27.9-27.1,15.1c-6.8-3.2-16,3.8-19.8-5.9c0.5-0.5,0.9-1,1.4-1.5c2.1,2.4,9.2,7.6,10.5,2.3   c0.5-0.5,1-0.9,1.5-1.4c3.4,1.5,7.9,2,9.9,5.3c0.9,1.8,2.3,2.5,4.3,3c7.4-3.6,10.4-12.1,15.8-18.1   C89.4,492.1,89.4,490.7,89.4,489.4z" />
	<path fill="#241C1B" d="M130.2,261.4c9.4,1,20.3-5,26.8,4.5c5.8,8.5,15.6,13.3,19.3,23.4c-0.5,0.5-1,1-1.6,1.6   c-6.3-10.9-16.4-19.1-25.1-28.2C142.7,262.2,136.5,262.9,130.2,261.4z" />
	<path fill="#271F1D" d="M59.3,503.2c-0.5,0.5-1,0.9-1.5,1.4c-1.6-0.2-3.3-0.3-4.9-0.7c-1.8-0.5-2.4-3.1-4.9-2.9   c-0.5,1-1.3,2-2.2,2.8c-1.3-1.8-3.2-2.6-5.1-3c-2.2-8.1-7.3-7.3-13.6-11.1c0.3-1.3-0.4-2.8,1.2-3.7c0.4,2,1.8,2.9,3.6,3.4   c7.5,1.3,11,9.3,18.8,8.9C53.2,501.6,56,502.4,59.3,503.2z" />
	<path fill="#2A2726" d="M28.4,485.9c-1.6,0.9-0.9,2.5-1.2,3.7c-3.5-6,0.8-13.5-0.1-19.9c1.9,0,1.4,2.3,2.5,3.4   C29.3,477.4,27.3,481.6,28.4,485.9z" />
	<path fill="#393231" d="M486.2,166.7c-0.4-0.9,0-2.2-1.4-2.6c0.4-3.4,2.2-6.1,4.6-8.5c0.5,0.5,1,1.1,1.6,1.6   C489.4,160.3,487.8,163.5,486.2,166.7z" />
	<path fill="#95979C" d="M828.9,83.3c-0.9,6.4-2.4,8.9-5.8,8.9c1.1-2.6,4.5-4.9,3.6-7.6C826.9,83.3,827.9,83.4,828.9,83.3z" />
	<path fill="#502D2C" d="M180.7,557.1c-0.4-0.6-0.9-1.3-1.3-1.9c2.4-0.1,4.7-0.2,7.1-0.3c0.1,0.4,0.1,0.7,0,1.1   C184.6,556.3,182.6,556.7,180.7,557.1z" />
	<path fill="#775F5F" d="M50.9,331.3c-1.2-0.3-3,0.9-3.6-1.2C49.1,329.4,50.6,328.2,50.9,331.3z" />
	<path fill="#FBDFD3" d="M495.5,153.6c25.3-17.5,57.6-15.5,85.5-7.3c67.7-4.9,133,25.2,201.2,19.2c0.7,0.8,3.6,2.8,4.4,4.2   c5.3,11.8,16.9,17.8,12.1,34.1c-1.1,0.1-2.2,0.2-3.4,0.3c-0.1-1.1-0.2-2.3-0.3-3.3c-2.1-2-4.4-2.9-7.1-2.8   c-22.3,0.7-45.6-2.2-67.3,4.2c6.5,5.4,17.5,0.7,24.2,6.4c0,0.4,0,0.8,0,1.2c-1.3,0-2.7,0-3.4,0c-1.2-1.1-1.9-1.7-2.5-2.3   c-2.7-0.4-4.9,0.6-7,2.3c-21.3,0.1-45.1-4.1-64.8,6.6c-32,21.2-78,21.4-102.5-11c-26.6-5.6,24.8,66.1,29.1,76.1   c12.3,22.9,19.6,48.2,29.2,72.3c-6.8-1.4-11.6-9.9-17.6-14c-23.6-18.1-55.4-10.7-81.8-21.4c-3.2-6.1-3.5-12.8-8.3-16.8   c1.7,5.8,2.7,9.7,3.7,15.7c-10.1-4-20.7-7.9-28.4-15.8c-0.3-44.2-13.4-90.8,9.6-130.8c-3.3,3.4-4.1,6.1-6.2,9.9   C491.7,172.3,497.2,162.6,495.5,153.6z M516.4,291.7c0-1.4-0.5-2.4-2.2-2.9c-0.5,2.5-0.1,4.8,2,6.5   C517.4,294.2,516.9,293,516.4,291.7z M571.4,150c-1.1,0.6-2.2,1.2-3.5,2c2.1,1.5,8.2-1.6,7.3-4.5   C573.8,148.4,572.6,149.2,571.4,150z M506.1,158.5c-2,1.1-6.6,0.3-6.2,3.2c2.7-2.4,5.9,0.3,8.6-2.1   C510.6,158,507.1,158.1,506.1,158.5z M559.6,158c1.6-0.4,3-1,3.6-3.1c-2.2,0-3.5,0.8-4.7,2.1c-3.6,0.5-16.6,6.4-12,10.3   C550.2,163.4,555.1,160.8,559.6,158z M684,186.5c-31.9-0.3-64.9-14.8-96.5-3.1c37.8,6.9,76.9,4,114.8,5.8   C702.7,184.2,687.8,186.4,684,186.5z M528.5,161c1.8-2.2,3.7-4.2,5.6-6.3c2.7,0.4,2.8-2.5,2-4.1c-2.8-6-18.6,3.9-20.9,7.7   c-1.1,0-2.1-1-3.3,0.2C513.5,162.7,528.8,169.3,528.5,161z M594.8,201.8c4.2,1.1,12.7,1.4,16.2,0.1c-10.5-0.4-43.1-9.5-49.1-2.8   C572.8,200.3,583.8,200.3,594.8,201.8z M540.1,236.7c0.6-11.3,3.8-20.7,8.2-31.4c-13.4-12.6-14.6,32.4-9.2,37   C540.6,240.7,539.2,238.4,540.1,236.7z M621.4,203.6c-3.2-0.7-6.3-1.6-9.7-0.6C615.5,204.7,617.6,204.9,621.4,203.6z M593.1,218.8   c-3.9-2.8-4.6-2.8-7.3-0.4C588.3,219.6,590.6,219.3,593.1,218.8z M539.1,247.4c-0.5,4.4-0.5,4.4,0.8,7.7   C541.5,252.2,541.1,250,539.1,247.4z M667.5,202.4c-3.6-0.8-3.6-0.8-5,1.5C664.4,204.1,666.3,204.7,667.5,202.4z M558.2,198.2   c-1.6,0.9-2.5,2.1-1.7,4.1C559,201.5,559,201.4,558.2,198.2z M607.2,216.6c-1.4,3,1.8,2.9,4,1.9   C609.8,217.9,608.7,217.4,607.2,216.6z M651.5,203c2.4,1.8,3.7,2.1,5.6,0C655.1,203,653.8,203,651.5,203z M514.6,284.9   c1.1-2.4,1.4-4,0.2-5.7C513.3,280.8,513.8,282.4,514.6,284.9z M542.4,150.7c3.7,0.5,3.9,0.5,3.8-1.9   C545,149.4,543.9,150,542.4,150.7z M634.9,204.4c2.3,0.8,3.6,1.3,4.7-0.1C638.4,203.7,637.2,203,634.9,204.4z M515.2,269.3   c-0.4,0-0.8,0-1.2,0c0.1,1.2,0.1,2.4,0.2,3.6c0.3,0,0.6,0,0.9,0C515.1,271.5,515.2,270.5,515.2,269.3z M514.3,257.5   c0.3,0,0.5,0,0.8,0c0-1,0-2,0-2.9c-0.3,0-0.5,0-0.8,0C514.3,255.5,514.3,256.5,514.3,257.5z M533.1,199.8c0.6,0.6,1.1,0.7,1.8,0.2   C534.2,199.4,533.8,199,533.1,199.8z" />
	<path fill="#5876E8" d="M467.5,421.3c-3.5-11.4-10-21.7-13.3-33.2c3.2-6.6,8.7-9.6,15.3-10.9c4.6,3.9,5.3-4.8,6.8-7.6   c3.2,0.4,4.2,3.1,6.4,4.8c0,0.9,0.7,1.7,1.3,1.3c1.6-1,2.9,0.4,4.3,0.3c23,13.3,33.6,38.7,56.5,51.8c-1.3-3.4,1-4.8,2-6.8   c-18-18.3-32-42.8-49.9-62.3c-0.7-17.7-2.9-35.1-6-52.3c33.2,25.3,78,14.1,112.9,35.3c4.3,10.9,15.2,16.2,25,21.4   c-1,2-6.2-0.2-3.3,3.3c3.7,0.5,6,3.6,9.3,4.9c0.7,1.7,2.3,0.5,3.5,1.1c-1,5.4-1.8,11.8-4.7,16.3c-5.4-4.3-21.8-22.9-27.7-14.8   c1.5,0.4,2.8,0.7,4.2,1.1c-0.2,0.5-0.1,1.4-0.5,1.6c-4.4,2.4-4.5,6.3-4,10.3c7.5,9.2,17.7,16.7,20.8,28.7c-2.1,0.1-4.2,0.3-7,0.4   c5.1,3.7,9.7,1.1,12.1,8.1c1.3-1.2,2.3-2.1,3.3-3.1c1,2-1.2,4.3-1.6,6.5c-0.5,0.2-1.1,0.5-1.4,0.6c-12.5-4.1-39.2-10-45.8,4.9   c-8.3,0.9-15.9-5.7-24.1-5.1c15.7,9.2,37.7,14.2,55.6,17.4c-3.1-3.7-10.3-2.5-14.6-5.2c10.4-4.8,20.3,4.6,30.6,1.2   c0.5,1,1,2,1.2,2.4c-0.3,27.5-27,45.4-52.7,48c-9.6-13.9-21-25.3-34.5-36.1c0.9-9.7,6.8-18.9,5.1-28.8c-2.8,8.5-2.9,19.7-8.4,26.5   c-10.4-8.2-23.5-11.3-34.7-17.3c2.6-2.3,1.9-5.4,2-8.5c0.9-0.1,1.9-0.2,3.9-0.3c-2.4-1-3.8-1.6-5.1-2.2c-1.8-4.1-5.4-7.7-5.8-12.1   c9.5,6.6,21.9,20.8,31.4,24.6c-16.3-19.5-42-31.6-54.9-53.1c-1.1-3.2-2.7-5.6-6.3-5.9c-1.1,0.8-2.2,1.5-3.4,2.3   c-3.8-1-4.1,1.9-0.9,3.3c0,1.3,0,2.7,0,3.5c-1.9,1.6-3.3,2.9-4.4,3.9c-1.4,9.8,5.7,17,9.1,25.5c-2.2,3.5-1.8,7.8-4,11.2   C469.3,426.1,468.8,423.9,467.5,421.3z M582,457.9c-5.2-3.1-9.9-8.8-16.1-9c5.5,5.9,14.2,8.8,20.5,14.1c4,3,4,3,6.5,2.9   C589,463.1,585.5,460.5,582,457.9z M537.4,394.7c4.3,3.1,8.1,10.2,12.7,10.9c-8.5-8.8-15.9-18.4-26.3-24.9c-0.9,0.6-1.5,1-2,1.4   C528.2,385.4,532.5,390.5,537.4,394.7z M549.5,375.8c-0.8-8.5-1.8-16.8-4.5-25c-0.1,14.8,3.8,29.5,5.2,44.2   C550.1,388,551.8,381.3,549.5,375.8z" />
	<path fill="#E4E4EB" d="M833.8,78c0.5-1.2,1-2.5,1.5-3.6c0.7,0.2,1.4,0.5,2.4,0.8c4.5-20.9,6.4-23.7,28.5-23.3   c29,33.1,46.4,96.6-4.3,117.3c0,2.4,0,4.4,0,6.4c1.5,1.4,2.9,2.7,4.6,4.2c1.7-0.6,3.3-1.1,4.9-1.7c3.2,2.2,2.8,7.1,4.4,10.4   c-5.2,24.1,11.1,23.4-11.9,54c-16.2,2.6-31.7,1.5-46-7.9c-10.6-6.4-24.6-4.3-34.8-10c8.4-4.1,21.3,0.2,25.9-10   c11.8-9.7,11.3-27.7-0.1-37.6c-2.8-3.3-5.8-7.1-11.7-7.2c-8.7-1.5-13.7-9.8-20.9-14.8c10.7-16.2,29.3-1.9,45.3-3.9   c-8-7.2-19.2-8.6-29.5-9.2c0.9-3.2,3.7-4.7,5.5-7.1c0.4,0,0.9,0,1.3,0c-0.1,1.3-0.2,2.5-0.3,3.6c7.5,2.5,16.4,0.9,24.5,1.9   c-3.1-8.3-16.8-7.5-24.3-5.3c0-0.4-0.1-0.8-0.1-1.2c2.4-2.2,4.8-4.5,7.6-7.1c6.1,0.4,13.9,5.8,19.4,1.8c-2.9-5.3-8.9-4.7-13.7-7.3   c5.4-3.9,11.8,1.2,17.4-3.6c-3.9-3.7-9.1-2.8-13.8-4.2c1.3-1.6,2.3-3,3.5-4.4c5.1,1.2,10.1,3.4,15.4-0.7c-3.3-3.2-7.4-2.7-11.7-4.2   c0.4-2.4,1.4-4.9,3-6c2.2-1.4,1.3-3.9,2.9-5.2c2.4-1.6,5.3-2.1,6.9-4.6c-1.2-0.4-2.3-0.7-3.4-1.1C832.4,84.2,833.1,81.1,833.8,78z    M825.9,102.2c2.2-1.5,2.2-1.5,2.9-3.4C825.6,99.3,825.6,99.3,825.9,102.2z" />
	<path fill="#4B65C5" d="M582.3,491.7c22.4-2.6,53.4-18.6,51.3-44.6c6.6,12.1,7.1,31.3-0.5,42.6c0.1,1.3,0.1,2.4,0.2,3.4   c-3.4,3.7-3.4,3.7-2.1,6.9c-10.7,13.8-22.2,32.7-39.9,37.3c-18.4,7.5-37.6,14.8-57.9,13c-12.3-9.4-26.2-16.1-41.2-20.1   c-1.5-1.8-3.2-0.5-4.9-0.1c-8.1-4.1-14.3-9.5-23.1-13c-1.7,7.1,19.8,17.7,25.8,19.5c0.6-1.2,1.2-2.6,1.9-4   c11.6,3.9,23.7,8.7,33.5,16.5c-19.1,0.6-37-5.7-56-4.8c-3,0.1-4.9-2.2-7.8-3.4c-14-19.9,3-22.5-3.6-37.6c-0.1-1.7-0.4-3.5,1.2-4.8   c0.2,0.7,0.3,1.3,0.4,1.7c8.8-5.7,31.3-16.2,31.1,2.1c-1.2,1.7-1.2,1.7,0.8,1.9c-0.3-0.7-0.6-1.3-0.8-2c11.7-0.5,25.8-0.9,36.6-5.2   c6,0.1,12.8,0.2,18.4-2c0.3,1.2,0.2,2.7,1.9,2.9c-0.1-1.8-0.3-3.5-0.4-5.3c0.6,0.7,1.2,1.5,1.8,2.3c9.7-1.5,20.4-0.6,29.4-4.4   c4.2,3.4,7.5,9,12,10.8C588.1,497.4,584.3,495.9,582.3,491.7z M532.9,501.1c-5.4,0.6-11.9-1.9-16.1,2.3c-5.6,0.7-11.8-1.4-16.8,1   c-12.4,6.3-28.3-8.7-39.1,1.7c6,4.5,16.3,0.7,23.9,2c10.7,1.6,22-4.2,33.2-2.6c1-1.1,1.8-2.2,2.9-3.4c7.6,1,15.7-1.9,22.8,0.1   c0.6,0.3,1.2,1.1,2.4-0.3C541.6,499.1,537.3,499.3,532.9,501.1z M551.7,521.1c-12.7-0.8-24.1-2.6-35.8-8.2   C513.7,522.1,550.3,531.1,551.7,521.1z" />
	<path fill="#FBDFD3" d="M764.7,154.7c5.4,0,9.6,1.5,12.2,6.9c-79.9,3.2-205.6-41.9-274.4-15.7c-0.5-3.8,2.2-6.8,2.5-10.1   c1.2-0.5,2.1-0.9,3.3-1.4c-2.3-3.6,0.5-7.2,1.2-10.7c25.1-27,41.5-10.9,73.2-13.8c63.8,4.1,124.3,31.3,189.1,22.8   c2.3,5.6,3.6,13.1,3,19.2c-5,0.9-8.8,2.1-13.3,2.4c0,0.2,0,0.5,0,0.7C762.6,154.7,763.6,154.7,764.7,154.7z M589,123   c1.7,0,3.1-0.5,5-2.7c-3.2,0.7-5.5-0.3-7.4,1.6C584.6,123.5,588,123.4,589,123z M565.7,129c3.6-1.9,8.2-1.9,11.6-5.4   c-3.4,0.8-26.2,7-23.7,10.6C558,133.5,561.8,131.1,565.7,129z M596.9,124.7c3.6,1.5,6.3-0.3,9-0.9C603,123.4,600,122,596.9,124.7z    M743.6,154.4c2.2,0.8,5.4,3.3,4.1-0.9C746,153.4,745.4,153.4,743.6,154.4z M531.5,125.8c3.2-2.8,3.2-2.8,4-5.1   C533.6,121.6,532.3,122.7,531.5,125.8z" />
	<path fill="#B7BDD5" d="M451.1,511.6c-0.7,6.8-1.4,13.5-2.1,20.7c-28.4,2.5-59.2-4.6-87.9-0.3c-31.1,3.1-61.7,14-93.3,11.8   c10.7-3.3,24.1-4.1,33-10.6c-1.7,1.4-4.1-0.4-5.6,1.5c-18.6,4.7-39,11.1-57.8,4.7c6.5-4.3,11.3-10.5,16.8-15.3   c0.2,0.3,0.4,0.6,0.8,1c18.8-7.3,39.3-8.9,58.8-12.8c20.8-3.2,36.6-24,57.6-22.4c-2.5,8.6-12.2,12.4-17.4,19.3   c22.4,1.6,42.2-2.4,63-8.8c-3.6-2.1-7-3.1-9.3-6.5c7,0.2,22.1,13.7,28.1,8.4c-8.3-3.5-17.2-5.9-25.7-8.4c-0.8-1.5-1.6-1.4-2.4,0   c-3.8-0.3-5.8-4.6-8.7-6.8c-0.4,0.5-0.6,0.8-0.9,1.1c-1.2-0.8-2.3-1.7-3.5-2.5c0.7-0.2,1.3-0.3,2.1-0.5c-0.7-1.1-1.2-1.9-1.9-3.1   c15.7-0.7,32.1,8,46.9,12.9c2.4-2,5.2-1,7.9-1.3C451.5,499.8,450.6,505.7,451.1,511.6z M339.5,516.6c-4.9,0-5.2,0.3-4.5,3.3   C336.3,519,337.4,518.2,339.5,516.6z M305.4,530.5c1.2-0.6,2.4-1.2,4-2C307.1,527.5,305.7,528,305.4,530.5z M322.5,522.7   c2.8,1.6,2.8,1.6,4-0.7C325.2,522.2,324.5,522.4,322.5,522.7z M345.7,513.5c-0.1-0.2-0.2-0.4-0.3-0.7c-0.6,0.1-1.2,0.3-1.8,0.4   c0.2,0.4,0.3,0.9,0.5,1.3C344.7,514.2,345.2,513.9,345.7,513.5z" />
	<path fill="#EECABA" d="M558.5,215.6c-2.5-2,0.2-5.8-2.3-8.1c1.3-0.3,1.2-1.3,1-2.3c2.5,0,5.1,0,7.3,0   c24.6,32.4,70.4,32.2,102.5,11c19.7-10.6,43.5-6.5,64.8-6.6c1.9,2.3,4.6-0.1,6.9-0.4c0.2-0.7,0.1-1.2,0.1-1.8   c0.7,0.6,1.4,1.2,2.5,2.3c18.6,0,37.4,0,56,0c-0.3,3.1-1,6.1-3.2,9.2c-24.2,4.1-49.1,5.6-73.7,3.8c-9.2-2.9-38.4-2-45.7,4.4   c2.5,0.1,4.2,0.2,5.9,0.3c-9.6,2.8-21.5,0.6-29.3,7.5c-9.6,7.4-22.7,9.1-34.6,10.1c-21.4-2.7-52.1-10.8-56.3-34.8   c-0.4,0.7-0.9,1.3-1.5,1.9C558.8,213.3,558.9,214.4,558.5,215.6z" />
	<path fill="#EECABA" d="M186.5,554.9c-19.4-0.6-40.2,0.9-56.5-11.3c-14.8-16.3-25-35.9-20.2-58.3c0.7-0.4,1.3-0.8,2.1-1.3   c2.3,1.1,4.5,2.1,6.8,3.2c-0.5,0.2-1.1,0.3-1.6,0.5c-1.9,21.1,14.1,34.1,28.4,46.9c12.8,9.6,33.1,6.5,47.1,0.9   c1.8-0.1,2.8,2.4,5.4,1.7c-0.9-1.2-1.5-2.1-2.1-2.9c7.7,0.6,14.8-5.1,22.3-4.2c11.8,3.3,23-6.1,34.3-8.7   C238.3,542,208.7,545.6,186.5,554.9z" />
	<path fill="#EECABA" d="M488.5,199.3c-5.5,34.1,2.2,67.8,2.2,102.1c-6.3-5.1-9.8-12.5-14.8-18.2c-2.2-27.1-0.6-112.9,19.7-129.5   c2.3,8.6-5.8,22.8,0,28.3C491.2,187,490.9,193.4,488.5,199.3c-0.1-1-0.2-2-0.3-3.5C486.9,197.6,486.9,198.6,488.5,199.3z    M484.7,204.8c-0.9,1.9-1.8,3.1-0.2,4.3C485.6,206.8,485.6,206.8,484.7,204.8z" />
	<path fill="#FADED2" d="M569.3,230.8c35.4,21.3,49.5,64.2,62.1,101.6c-3.9,0.3-7.5,0.6-11.3,0.9c-10.5-37.2-30.2-69.6-52-101.2   C568.4,231.7,568.8,231.2,569.3,230.8z" />
	<path fill="#CFCEDC" d="M783.2,224.6c10.2,5.8,24.1,3.7,34.8,10c14.1,9.3,29.6,10.4,46,7.9c-10.8,21.5-10.6,12.4-29.9,7.8   c-3.7-1.9-9.1-0.9-11.5-4.6c-13.3-6.6-28.7-9.8-42.8-16.3c0.2-1.6,0.4-2.9,0.6-4.2C781.2,225,782.2,224.8,783.2,224.6z" />
	<path fill="#4B65C5" d="M626.5,415.6c-3.1-11.9-13.4-19.5-20.8-28.7c-0.5-4.1-0.5-8,4-10.3c0.3-0.2,0.3-1,0.5-1.6   c11.1,6.5,20.6,14.6,27.1,25.5c-2.6,5.4-4.9,10.2-7.3,15.3C628.7,415.7,627.6,415.6,626.5,415.6z" />
	<path fill="#4B65C5" d="M614.9,439c-3.9,0.3-8.2-0.8-11.7,1.1c-6.3-2.2-12.6-4.3-18.8-6.9c0.6-0.1,1.1-0.2,1.9-0.4   c6.6-14.9,33.2-9,45.8-4.9c0.4-0.2,0.9-0.4,1.4-0.6c-0.3,8.9-14,9.4-20.8,9.3c-1.6-1.4-3.6-1.3-5.7-2.1   C607.3,438.7,612.6,436.9,614.9,439z" />
	<path fill="#EECABA" d="M744.7,208.6c-6.7-5.8-17.7-1-24.2-6.4c18.6-4.4,56.9-7.7,74.2-1.4c0.1,1,0.2,2.2,0.3,3.3   c-7.2,2.9-16.2-2.1-22.8,2.2c-1.6-1.7-3.5-1.5-5.4-1c-6.4,2.1-14.6-1.5-19.7,3.3C746.4,208.6,745.6,208.6,744.7,208.6z" />
	<path fill="#E2E2E9" d="M796.7,105.7c3.8,4.3,7.5,8.5,11.5,13c-6.7,6.9-13,12.9-20,19.6c-0.9-8.6-2.4-16.3-8.1-23   C785.3,111.7,790.4,108,796.7,105.7z" />
	<path fill="#FCFDFD" d="M800.5,218.3c-0.6,0.1-1.7,0.1-3.7,0.3c11.6-12.6,7.7-34.1-4.6-45.1c3,0,5.3,0,7.7,0   C818,190,819.6,202,800.5,218.3z" />
	<path fill="#4A64C4" d="M633.5,388.8c3-4.5,3.7-10.9,4.7-16.3c0.3-0.3,0.5-0.5,0.9-0.9c-3.3-2.5-10.1-8.7-13.7-5.1   c-2.8-3.5,2.4-1.3,3.3-3.3c9,3.3,10.1,4.4,18.4,4.8c3.8,10.1-1.7,20-7.2,28.8C637.2,394.1,635.3,391.5,633.5,388.8z" />
	<path fill="#5674E4" d="M646.4,358.2c-7.1-9.2-18.6-13.7-25.7-22c4.2-0.7,19.9-0.1,24.1,1c1,5.9-3.5,12.9,1.3,17.7   C646.9,355.5,647.5,356.9,646.4,358.2z" />
	<path fill="#030205" d="M493.1,532.6c-0.4,0-0.8,0.1-1.2,0.1c-0.6,1.4-1.3,2.8-1.9,4c-6.1-1.8-27.5-12.4-25.8-19.5   c8.7,3.6,15,8.9,23.1,13c1.7-0.4,3.3-1.7,4.9,0.1C490.2,530.9,492.6,531.7,493.1,532.6z" />
	<path fill="#DBDBE2" d="M810.9,98.5c3.4,1.5,4.9,4,6.8,6.7c-2.1,2.8-4.2,5.6-6.6,8.7c-3-4.2-5.3-6.9-8.9-10.4   C804.9,101,808.1,100.4,810.9,98.5z" />
	<path fill="#F0D0C5" d="M680.6,227.5c-1.7-0.1-3.5-0.2-5.9-0.3c7.2-6.4,36.6-7.3,45.7-4.4C707.1,222.5,694,226.5,680.6,227.5z" />
	<path fill="#AAB3CA" d="M266.5,544.6c-10.6,2.1-31.1,2.7-41.7,1.5C235.9,537.3,252.7,545.9,266.5,544.6z" />
	<path fill="#E7C6B7" d="M509.5,123.4c-0.8,3.6-3.6,7.2-1.2,10.7c-1.2,0.5-2.1,0.9-3.3,1.4c-0.4,3.4-3,6.4-2.5,10.1   C489.9,150.9,504,125,509.5,123.4z" />
	<path fill="#F0F1F1" d="M784.5,142.3c-1.5,1.1-3,2.2-4.9,3.6c-1-5.7-2.1-9.3-4.3-14.4c0.9-0.8,2.1-1.6,3-2.8   c0.9-1.1-0.1-3.2,2.1-4.1C783.8,130,783,136.2,784.5,142.3z" />
	<path fill="#E0D2C5" d="M772.2,206.3c7.8,2.4,18.6,1.2,25.1,3.5c-17.5,0-35.1,0-52.6,0c0-0.4,0-0.8,0-1.2   C753.6,207.9,764.3,209,772.2,206.3z" />
	<path fill="#526FDB" d="M629.2,356.8c-1.1-3.2-2.2-6.4-3.5-10.1c7.1,2.6,12.2,9.1,16.7,14.7C638.7,361.7,637.4,361.2,629.2,356.8z" />
	<path fill="#161A2D" d="M451.1,511.6c0.3-10.3-2.8-20.5-0.3-30.6c1,5.8-1.8,13.1,2.5,17.8c0.1,2.6,0.1,5.2,0.2,7.8   c2.3,0.6,2.1-0.7,2.2-2c1.6,0.9,1.2,2.4,1.1,3.8c-3-0.1-3-0.1-3.3,2.1C452.7,510.7,451.9,511.2,451.1,511.6z" />
	<path fill="#435FBA" d="M633.8,441.3c-6.5,2.4-11.6-0.4-17.8-2.1c5.8,0.5,11.3-0.4,16.5-3.6C633.8,437.5,633.5,439.5,633.8,441.3z" />
	<path fill="#2B252A" d="M296.6,536.2c-5.5,1.6-10.9,3.1-16.5,4.6c-0.5-0.4-1-0.9-1.5-1.3c5.1-2.8,11-3.4,16.6-4.7   C295.7,535.3,296.1,535.8,296.6,536.2z" />
	<path fill="#382F2C" d="M560.6,211c0.9,3.5,1.9,7,2.8,10.4c-1.4,0.4-1.1,1.6-1.4,2.6c-2.8-2.7-1.3-7-3.3-9.5c0-0.8,0.1-1.6,0.1-2.4   c0.3-0.4,0.6-0.8,1-1.1C560.1,211,560.4,211,560.6,211z" />
	<path fill="#2A1F2E" d="M566.9,329c-4.1-0.2-8.2-0.6-12-2c0.9-0.4,1.7-0.8,2.6-1.3c3.6,0.7,7.2,1.4,10.7,2   C567.8,328.2,567.3,328.6,566.9,329z" />
	<path fill="#2F2526" d="M244.9,529c0.2-0.3,0.4-0.9,0.6-0.9c3.2-0.2,4.3-3.2,6.4-5.2c0.5,0.5,0.9,1,1.4,1.5   c-1.3,2.6-3.4,4.4-5.8,5.8C247,529.1,245.9,529.2,244.9,529z" />
	<path fill="#EECABA" d="M709.6,223.7c3-2.1,7.1-0.6,10.6-1C716.7,224,713.1,223.8,709.6,223.7z" />
	<path fill="#766C66" d="M587.6,143.6c-3.3,1.2-6.3,0.5-10,0.5C581.8,142.7,582.4,142.7,587.6,143.6z" />
	<path fill="#232545" d="M610.3,437.7c-2.7-1-2.7-1-3.4-3.2c2.1,0.7,4.1,0.7,5.7,2.1C611.9,437,611.1,437.4,610.3,437.7z" />
	<path fill="#33468A" d="M636.8,419.1c-0.9-0.7-1.5-1.1-2.1-1.5c0.5-2.3,0.7-2.2,2.1-4.8C636.8,415.6,636.8,417.2,636.8,419.1z" />
	<path fill="#BBC0C6" d="M821.1,99c-2.1-0.7-2.7-1.8-2.6-3.3c1.1-1,1.2-0.9,3.8,1.1C821.9,97.6,821.5,98.2,821.1,99z" />
	<path fill="#2F4280" d="M453.5,510.3c0.3-2.2,0.3-2.2,3.3-2.1C456.5,510.5,456.5,510.5,453.5,510.3z" />
	<path fill="#7A7670" d="M569.3,230.8c-0.4,0.4-0.9,0.8-1.3,1.3c-0.8-1.2-1.6-2.4-2.5-3.7C568,227.8,568.4,229.6,569.3,230.8z" />
	<path fill="#1D2646" d="M453.9,512.2c1.1,0.8,0.1,1.7-0.2,2.7c-0.4-0.2-0.8-0.4-1.3-0.7C452.9,513.5,453,512.3,453.9,512.2z" />
	<path fill="#896661" d="M764.7,154.7c-1.1,0-2.2,0-3.2,0c0-0.2,0-0.5,0-0.7c1.1-0.1,2.1-0.2,3.2-0.3   C764.8,154,764.8,154.3,764.7,154.7z" />
	<path fill="#AC968E" d="M621.6,353.9c0.5-0.1,0.9-0.1,1.4-0.2c0.2,0.3,0.4,0.5,0.5,0.8C622.6,355.2,622.2,354.5,621.6,353.9z" />
	<path fill="#0E0C0C" d="M798.4,133.7c0,0.4,0.1,0.8,0.1,1.2l0.2-0.2c-0.4,0-0.9,0-1.3,0C797.7,134.5,798.1,134.1,798.4,133.7z" />
	<path fill="#AC968E" d="M619.5,352.5c0.4,0.3,0.8,0.6,1.2,0.9C620.3,353.1,619.9,352.8,619.5,352.5z" />
	<path fill="#0E0C0C" d="M797.3,134.9c-0.4,0.3-0.7,0.7-1.1,1C796.5,135.6,796.9,135.3,797.3,134.9z" />
	<path fill="#AC968E" d="M622.7,352.6c-0.2-0.5-0.5-1-0.7-1.5C622.3,351.6,622.5,352.1,622.7,352.6z" />
	<path fill="#CCD2E9" d="M450.8,481c-1,4.3-1,8.8-1.2,13.1c-2.7,0.3-5.5-0.8-7.9,1.3c-14.7-4.9-31.1-13.6-46.9-12.9   c0.7,1.2,1.2,1.9,1.9,3.1c-1.9,0.5-3.1,0.6-5.2,0.7c2.4,1.9,3.4,4.6,6.5,4.3c0-0.9,0.1-1.4,0.1-2c0.2-0.3,0.4-0.6,0.9-1.1   c2.9,2.1,4.9,6.5,8.7,6.8c2.3,3.4,5.8,4.4,9.3,6.5c-20.8,6.4-40.6,10.3-63,8.8c5.2-7,14.9-10.8,17.4-19.3   c-21-1.5-36.8,19.2-57.6,22.4c-19.5,4-40.1,5.6-58.8,12.8c-0.3-0.4-0.5-0.7-0.8-1c20.5-23.2,8-57.9-15.8-73.5   c-0.4-1.8,0.6-2.7,2-3.3c4.9-0.9,7.7-6.1,12.2-7.4c0.2,0,0.4-0.6,0.6-0.9c-0.2-4.5,5.1-2.5,7.1-5.1c3.4-3.1,8.1-4.3,7.5-9.6   c-4.1,0-4.1,0-7.3,3c-9.1,1-17,6.8-26,9c-4.2,0.6-5.3,4.2-8.4,6.6c-16.1-7.3-34.4-13.4-51.9-8.1c-0.4-0.9-0.8-1.7-1-2.3   c13.7-17.8,41.1-17.7,53.8-36.2c17.7-4.1,35.1-11.8,52.9-14.4c1.5,0.2,3.1,0.6,3.4-1.6c-30.2,1.6-58.8,14.4-89.4,14.5   c28.4-22.7,68.5-18.4,102.5-14.9c0,0.4,0.1,0.8,0.1,1.1c-1.4-0.1-3-0.5-3.3,2.1c2.9-0.2,6.9,1.5,6.9-2.3c6.7,1.8,12-0.3,17.8-3   c7.1-6,17-5,25.5-7c8.7-2.6,15,8.1,23.8,4.7c14.3-1.9,25.5,0.7,37.7,6.6c9.8-11,31.5,8.6,44,8.2c1.1,5.7,0.6,11.5-0.5,16.9   c-17.2-3.1-35.8-4.2-53.7-1.5c-9.3,3.7-21.5-1.1-29.1,5.6c11.2,10.3,22.7,7.8,35.3,3.7c5.9-1.1,13.8-0.6,16.7-7   c10.2-0.6,20.5,1.7,30.7,2.7C449.4,433.8,447.5,457.5,450.8,481z M352.3,442.5c1.5-0.9,2.8-2.1,4.1-3.3c0.9-0.2,2-0.2,1.7-2   c-6.9-3-17.1-0.7-7.7,6.8c0.6-0.7,0.9-1.2,1.2-1.6C351.8,442.3,352.1,442.4,352.3,442.5z M361.1,380.5c-4-1.9-8.2-0.8-12.3-0.7   c4.4,1.9,8.9,2.9,13.9,2C361.9,381.1,361.5,380.8,361.1,380.5z M309.4,445.1c5.2-1.9,8.2-6.2,13.1-8.3c5.5,9.5,21.2,1.3,26.7-4.9   c-2.4-2.7-2.4-2.7-7.4-4.8c0.4-1.8,0.8-3.5,1.3-5.5c-2.6,0.8-3,2.7-3.6,4.4c-6.4,3-10.9-0.9-17.1,5.5c-1-3.6,1-7.1-1-9.9   c-1.3,1.2-2.1,3.8-2.9,9.2c-8.2,0.9-23.3,1.7-22.1,13c1.8,2.8,4.1,4.1,7.1,4.7C305.5,447.4,307.4,446.2,309.4,445.1z M403.9,395.5   c2.2-5.3-13.9-6.5-17.6-9.2c-6.2-0.8-17.2-11.1-21.3-3.8C378.8,383.7,390.3,393.1,403.9,395.5z M433.2,395.4   c-5.6-5-16.9-2.6-24.5-0.3c2.5,1.3,4.7,1,6.8,0.5C421.5,393.9,426.7,396.1,433.2,395.4z M267.7,463.4c0-0.2,0-0.5-0.1-0.7   c-3.9,1-11.1-2.5-12.6,2.4C259.5,464.3,263.7,463.9,267.7,463.4z M291.4,465.5c2.6,0.6,2.6,0.6,5.1-0.1   C295.6,463.1,294.2,463.1,291.4,465.5z M282.8,464.3c-3.8-1.2-3.8-1.2-5.7,0.6C279.3,466.4,281,464.6,282.8,464.3z M381.5,480.2   c1.8,2.4,3,3.6,5.4,3.2C385.9,481,384.4,480.2,381.5,480.2z M321.6,419.3c2-1.8,1.2-4.5-0.8-4.7   C319.7,416.2,320.8,417.5,321.6,419.3z M368.5,471.8c0.2-0.7,0.3-1.2,0.5-1.7c-1.3-1.1-2.6-1.1-4.6-0.1   C366.1,470.8,367.2,471.3,368.5,471.8z M374.3,475.6c2,3.6,2,3.5,3.9,2.5C377.4,476.6,376.4,475.4,374.3,475.6z M348.8,411.5   c-1.4,0.5-2.2,1.3-1.7,2.9C349.4,414.2,349.4,414.2,348.8,411.5z M360.8,435.5c2.5,0.9,3.7-0.5,2.9-2.9   C362.7,433.5,361.9,434.3,360.8,435.5z M366.1,430.7c1-0.2,1.9-0.6,1.4-1.8C366.3,427.9,364.8,429.6,366.1,430.7z M271,421.9   c0.1,0.2,0.2,0.5,0.4,0.7c0.9-0.4,2.1-0.4,1.4-1.7C272.2,421.3,271.6,421.6,271,421.9z M341.5,377.4c0,0.2,0,0.3,0,0.5   C343,378.1,343,377.4,341.5,377.4z M345,420.4c0.8-0.5,1.3-2.2-0.2-2.2C344.1,419,344.1,419.7,345,420.4z M281.1,416.3   c-0.1-0.1-0.2-0.3-0.3-0.4c0,0.2,0,0.5-0.1,0.7C280.8,416.5,281,416.4,281.1,416.3z" />
	<path fill="#FBDFD3" d="M192.3,535.2c-13.9,5.6-34.2,8.7-47.1-0.9c-14.1-12.7-30.2-25.8-28.4-46.9c0.6-0.2,1.1-0.3,1.6-0.5   c6.8,1.8,11.6,7.4,19.1,5.9c0.4,1.2-1.2,2.9,0.8,3.5c0.8,0,1.3-0.3,1.2-1.2c2.3-2.1,5.3-0.6,8.4-0.7c0.3-0.5,0.7-1.1,1-1.7   c-13.3-20.6-41.1-24.1-52-47c-2.2-17.1-7-24.6-18-37.4c2.6,0.1,5.3,0.9,7.1,2.8c0.5,2.8,0.5,2.8,3.2,3.8c0-0.6,0-1.1,0-1.6   c4,0.1,6.2,5.1,9.2,7.3c-3.5,7.8,6.9,13.7,13.1,14.8c1.6,1.7,2.5,2.4,4.6,4.1c0-2.6,0.4-3.4,1.3-5.4c-0.9-6.4-44.3-43-49.9-40.2   c0,1.2,0,2.5,0,4c2.1,1.7,4.2,3.5,6.4,5.4c-0.6,0.4-0.9,0.6-1.2,0.9c-2.7-0.8-5.3-1.6-8.4-2.5c-1.2,5.5,6.1,6.1,9.9,7   c-0.7,4.3,1.3,8.2,1.4,12.2c1.1,1.3,2,2.5,2.9,3.6c-2.2,4.7,1.5,9.6,0.1,14.3c-2.5,2.9-4.7,4.6-5.2,8.3c2,0.3,2.8-0.7,3.2-2.1   c0.5-0.3,0.9-0.6,1.8-1.1c0.4,5.7,4.2,10.6,3.8,16.1l-0.1-0.1c-0.5,0.2-1,0.3-1.9,0.6c0.2,11.7,9.6,21,9.3,32.9   c-3.1,4.1-6.2,8.3-9.3,12.3c-0.9,0.4-1.7,0.7-2.6,1.1c-7.1-2.6-11.3-6.8-13.1-14.3c-1.7,3-1.7,3-1.8,6.2   c-8.8-3.4-16.8-7.5-25.5-11.3c-9.9-20.5,8.9-19.9,14-39.8c5.2-10.2,0.2-23.1,3.2-34.2c-0.9-14.4,5.6-29.3,2.4-43.4   c13.3-18.7,39.9-13.2,56.1-0.7c12.4,9.9,19.2,25.6,31.5,35.8c19.6,21,41.3,46.8,38.3,77.2c-0.2,1.6,0,4.6,2.4,3.1   c1.6-4.9,0.5-10,0.9-15.7c11.7,6.4,22.1,17.6,34.3,20.7c-0.5-1.7-1.6-2.7-3-3.4c-4.3-7.2-12.6-10.6-18.3-15.8   c11.7-5.5,24.1-10,33.4-19.2c5.1,3,9.6,6.8,13.8,10.8l-0.1-0.1c-9.5,3.7-22.2-0.3-31,7.1c-2.1,1.6-6.4,5.2-2.9,7.5   c10.2-7.7,23.2-9,35.4-12.3c13.3,15.5,18.6,39.1,5,56.2c-12.4,3.4-24.1,12.1-37.1,8.4c-7.5,1.5-14.6,5.5-22.3,4.2   C191.9,533.8,191.7,534.4,192.3,535.2z M227.4,503.5L227.4,503.5c0.7,0.8,1.4,1.5,2.2,2.5c0.7-1.8,0.6-3-0.6-4   c-1.2-2-0.4-4.5-3.6-6c-0.3,0.3-0.8,0.9-1.3,1.3c1.1,1.6,1.8,2.7,2.6,3.8C226.1,502.1,227.1,502.7,227.4,503.5z M122.2,405.2   c0.6,1,1.1,2,2,3.5c0.3-2.4-0.2-7.5-2.8-6.4C121.6,403.2,121.9,404.2,122.2,405.2z M65.1,478.7c-0.2-0.9-0.4-1.8-0.7-3.5   c-1.2,2-1.3,3.1,0.3,3.9c0,1.4-0.2,2.9,0.7,4.3C66.9,480.9,66.9,480.9,65.1,478.7z M77.6,371.4c2.1,1.3,4.4,1,6.8,0.9   c-0.6-2.4-6.6-3.8-7.9-2C76.9,370.6,77.2,371,77.6,371.4z M93.2,376.9c-0.9-2.5-2.8-5-5.7-4.4c1.3,3.8,4.3,4.8,5.9,8.1   C94.8,378.9,94.2,377.8,93.2,376.9z M201.7,517.5c-7.5-2.5-12.4-9.6-20.2-10.7c6.8,8.7,17.5,14.5,28.8,13.8   C207,519.4,204.4,518.4,201.7,517.5z M141.3,460.9c3-13.9-12.3-20.5-23.3-22.3c4.6,6.9,13.4,8,17,15.4   C136.9,456.4,137.3,463,141.3,460.9z M102.1,380.6c6.1,5.1,10.7,14.8,16.8,16.6C114.1,391.4,110.1,381.5,102.1,380.6z M74.7,370.5   c-3.9-4.5-6.3,3.7-3.7,6C72,373.6,72.6,372.3,74.7,370.5z M227.1,522.8c0-4.4-5.2-1.5-8.4-1.6C223.6,523,224.8,523.2,227.1,522.8z    M48.1,485.2c-0.6,1.7-2.3,3.4-0.1,5.5C49.1,488.7,49.4,487,48.1,485.2z M152.9,502.4c-1.8-2.4-1.9-3.4-4.8-3.3   C149.2,501.1,150.2,502.3,152.9,502.4z M128.6,422.1c-0.8,0.9-0.5,3,1.2,2.5C129.7,423.6,129.9,422.4,128.6,422.1z M65.1,491.8   c2.6-2.4,2.7-2.7,0.5-3.7C64.7,489.3,64.9,490.3,65.1,491.8z M66,456c-0.2-0.1-0.4-0.2-0.7-0.3c-0.4,0.5-0.8,1-1.2,1.5   c0.4,0.2,0.9,0.4,1.3,0.6C65.6,457.1,65.8,456.6,66,456z M131.1,431.6c-0.2-0.8-0.6-1.3-1.4-1.6   C129.2,431.9,129.2,431.9,131.1,431.6z M128.5,415.2c-0.3-0.7-0.6-1.2-1.4-0.8c0.2,0.4,0.3,0.9,0.5,1.3   C127.9,415.5,128.2,415.4,128.5,415.2z M91.2,419.3c0.2-1.1,0.3-1.6,0.4-2c-0.3,0-0.6,0-0.9,0C90.8,417.7,90.9,418.1,91.2,419.3z    M69.4,450.9c-0.2-0.3-0.3-0.6-0.5-1c-0.6,0.3-0.3,0.8-0.3,1.4C68.9,451.2,69.2,451,69.4,450.9z" />
	<path fill="#FBDFD3" d="M130.2,261.4c6.4,1.5,12.6,0.8,19.4,1.2c9.8,10.1,21.1,19.4,27.4,32.2c-1.5,6.2,5.5,11.9,8.2,17.2   c13,20.2,28.7,41.6,30.4,66.1c-10.1,5.5-22,9.7-28.2,19.5c-3.7-1.3-8.2-2-11.5-4.1c0.2-2.7-1.4-4.6-1.1-7.1c3-3.4,2.5-7.5,2.4-11.7   l0,0c0.5,0,0.9-0.1,1.4-0.1c3.1,5.1,6.4-8.4,2.7-10.1c-0.7,2-1.3,3.8-1.9,5.6c-0.7,0-1.3,0-2,0c-3.4-8.7-12.1-14.5-21.2-10   c-2.4-1.7-4.7-3.3-7.1-5c-1.3-7.4,0-15.5-2.5-22.6c3.6-6.9,7.6-14.3,5-22.5c2.5-1.9,3.6-4.8,4.8-7.6c1.3-0.8,2.2-1.8,1.8-3.6   c-3.2,0.4-3.7,3.7-6.3,5.2c-0.7-2.4-1.2-4.4-1.8-6.4c-2.2,0.1-2.2,1.4-1.9,2.5c1.4,5.8,0.4,11.6-0.2,17.3   c0.9,8.3-12.8,27.6-21.6,25.6c-3.3-9.9-11.8-2.7-16,1.4c-3.3-2-6.8,1.6-9.7-0.3c0.1-1,0.2-2,0.3-3c-0.3-0.1-0.5-0.2-0.8-0.3   c-2.4,4.4-5.6,7.3-7.3,12.2c-0.7-0.9-1-1.3-1.3-1.7c0.6-2.1-1.6-3-2-4.3c2.8-11.4,8-22,8-33.7c-0.2-13.9,14.4-23.6,16.3-37l0,0   c1.8-0.7,1.3-2.2,1.2-3.6l0,0c1.3-0.3,1.4-1.3,1.2-2.4l0,0c1.3-0.3,1.4-1.2,1.2-2.3l0,0c1.1-0.3,1.3-1.2,1.3-2.1   c3-1.8,5.7-3.1,9.1-5C128.3,261.2,129.2,261.3,130.2,261.4z M137.1,298.6c-0.9,2.6-0.9,2.6,0.1,5.9   C137.6,302.2,140.6,293.9,137.1,298.6z M132.6,311.4c-3.6,5.3-3.6,5.3-3.8,8.7c3.9-3.2,5.8-7.5,6.9-11.9   C133.5,308.7,133.2,310.1,132.6,311.4z M180.9,354.4c-2.1,3.2-1.2,5.3,0.2,7.6C183.8,359.3,183.8,359,180.9,354.4z M181.2,353.8   c0.8-3.4,0.8-3.4-2-5.9C179.5,350.2,178.7,352.4,181.2,353.8z M102.4,335.3c3.3-1.1,3.9-2.2,4-5.3   C104.8,332,103.6,333.7,102.4,335.3z M178.1,346.1c0.8-3.4,0.4-5.1-1.9-6.5C175.2,342.1,176.5,343.5,178.1,346.1z M142.6,289.3   c-3.1,0.9-3.4,1.9-2.4,3.8C140.8,292,141.3,291.1,142.6,289.3z" />
	<path fill="#5876E8" d="M527.3,497.2c-10.8,4.3-24.9,4.6-36.6,5.2l0,0c0.1-18.3-22.4-7.7-31.1-2.1c-0.7-5.6,0.1-11.3-3.8-16.1   c-1.5-2.1-1.1-4.4-1.2-7.4c2.1,1.6,2.4,1.9,4.7,3.3c-7.6-16.9,4.6-35,9.7-50.9c1,0.6,2,1.1,3.1,1.7c-1,6.4,1.1,11.9,4.3,17.3   c0.7,0,1.3,0,1.8,0c4.8-5.7,2.5-14.4,6.8-19.8c2.6,1,5,2.8,7.1,4.7c-4.1,4.9-11.7,37.2-2.3,38.7c-5.4-10-1.5-23.6,2.5-33.3   c0.3,0,0.6,0,0.9,0c0,1.5,0,3,0,4.1C510.9,455.6,521.9,475.7,527.3,497.2z M497.9,495.3c-1.5,1.3-3.2,2.3-4.1,4.3   c6.6-2.2,13.9-7.9,8.5-14.7c-0.7-1-1.9-3.6-3.3-1.8C501.4,487.7,502.4,491.6,497.9,495.3z M515,482.2c-5.8-2.4-6-7.8-9.6-10.1   c-0.4,0.5-0.8,1-1.2,1.5C507.4,479,509.1,483.4,515,482.2z" />
	<path fill="#FBDFD3" d="M97.6,356c10.6-3.9,31.3-17.5,25.7,4.8c-0.9,0.8-1.8,1.4-2.6,2.1c3.4,5.2,9.7-0.9,9-5.5c1.4,0,2.5,0,3.5,0   c2.8,4.9,3.4,11.8,9.9,12.2c2.8-3.4-1.2-5.5-1.2-8.6c1-0.8,2.2-1.7,3.6-2.9c11,9.3,14.9,1,24.1,6.5c3.4,2.7,2.8,13,0,16.1   c-5.1,9.1-4,22.6-12.2,28.9c-9.7-9.3-20.7-17.1-29.1-27.6c-6.6-11.1-17.3-21.4-30.4-24.1C97.6,357.5,97.6,356.8,97.6,356z" />
	<path fill="#4B65C5" d="M490.9,306.6c3.1,17.2,5.3,34.5,6,52.3c14.8,18.9,31.9,37.5,44.3,58.1c-8-6-15.3-12.7-22.3-19.8   c0.4-0.4,0.8-0.8,1.2-1.2c1.6,0.2,2.2,2.6,5,1.7c-54.3-45.5-47.2-43.9-49.2-111.4C480.3,293.2,484.5,300.6,490.9,306.6z" />
	<path fill="#FADED2" d="M177.2,444.8c-0.5-2.3-0.9-4.5-1.4-6.9c12.8-9.2,32.2,0.3,44.9,6.7c-11.2,7.1-26.2,5.5-38.9,8.5   C180.2,450.4,178.7,447.6,177.2,444.8z" />
	<path fill="#040303" d="M177.2,444.8c4.5,6.7,6.1,13.6,7.7,21.5c16.2-0.7,29.8-8.1,44.5-14.1c0.2,1,0.3,1.5,0.4,2   c-9.4,7.6-20.1,11.9-31,16.9c5.7,5.2,14,8.7,18.3,15.8c-0.5,0.5-1,1-1.5,1.4c-11.1-4.4-19.4-12.9-29.8-18.8   c-0.4,5.7,0.7,10.8-0.9,15.7c-1.3,0.8-2,0.4-2.3-0.8c0.7-12.7-0.6-25.9-6.6-37.2C177.2,446.8,177.1,445.8,177.2,444.8z" />
	<path fill="#B6BCD4" d="M417.5,407.7c-2.9,6.4-10.8,5.9-16.7,7l-0.3-0.4c3.6-1.2,7.2-2.5,11.4-3.9c-2.9-2.9-5.1-0.9-8.1,0.1   c-5.8,3.9-12.6,1.9-18.1,6.2c2.2,0.1,3.9,0.3,5.6,0.4c-9.2,4-18.4,0.1-25.9-6.1c7.6-6.7,19.8-1.9,29.1-5.6   c15.7-2.1,33.1-2.5,48.2,0.8C434.9,407,423.9,404.4,417.5,407.7z" />
	<path fill="#EBC8B8" d="M163.1,401.6c1.1-10.8,8.7-19.9,8.4-30.5c3.6,6.5-2.1,13.4,1,20.2c-0.2,6.1-5,9.5-5.3,15.3   c2.6-3.3,5.6-5,5.4-9.3c4.5,1.1,3.8,5.4,5.2,9.6c-0.9,2.9-3.3,6-2.8,9.6c1.4-0.9,2.3-1.4,3.3-2c-0.3,2.8-2,4.2-3.9,6.5   c0.8,0.8,1.4,1.5,2,2.1c-0.9,2.3-2.9,3.5-5,5.3c-4.1-5.5-9.2-10.7-11.4-17.1c3.4-2.6,5.1-6.1,5.6-10.6   C164.4,400.9,163.7,401.3,163.1,401.6z" />
	<path fill="#F6DBCF" d="M176.4,423c-0.6-0.6-1.2-1.3-2-2.1c3-2.8,8.3-15.1,4.9-17.9v0.1c1.6-1.6,3.4-3.3,5.8-2.3   c-1.4,2.5-1,5.3-1.1,8c-0.9,2.3-0.9,2.3-0.2,4.2c1.8-3.8,3.1-8,2.9-12.2c1.3,0.3,2.5,0.6,4.2,1c-0.1-0.8-0.2-1.3-0.3-2.1   c7.1-2.6,14.4-4.4,23.3-3.9C198.7,402.4,188.2,412.2,176.4,423z" />
	<path fill="#445EB8" d="M519.9,395.8c-0.4,0.4-0.8,0.8-1.2,1.2c-10.2-8.5-20.6-16.8-30.9-25.1c-0.8-0.6-1.5-1.2-2.6-0.1   c1,1.4,2,2.7,3,4.1c-1.4,0.1-2.7-1.3-4.3-0.3c-0.7,0.4-1.3-0.4-1.3-1.3c1.2-5.7-4.1-10.8-2.3-17.2   C491.4,373.1,506.3,383.3,519.9,395.8z" />
	<path fill="#191211" d="M91.8,359.4c-13.8-6-28.9,1.3-37.5,13c0.3-2.4-2.2-2.1-3.5-3.6c2.6,0.4,4-1.5,5.3-3.2   c4.8-5.8,11.6-7.6,18-10.9c4.9-3.6,12.4,3.2,15.3,0.2c0.8,0.4,1.7,0.8,2.5,1.3c0.4,0.7,0.7,1.5,1.1,2.2   C92.6,358.7,92.2,359,91.8,359.4z" />
	<path fill="#0A0C17" d="M510.6,387.6c-11-8.9-21.5-18.3-30.2-30.4c-0.1,2-0.2,3.3-0.3,4.7c-2.2-2.9-1.1-5.7,0.3-8.5   c9.6,11.8,20.2,22.7,31.3,33.2C511.4,387,511,387.2,510.6,387.6z" />
	<path fill="#E5CFC4" d="M188.8,415.5c7.9-8.6,20.4-14.4,31.8-16.2c-7.6,9.1-21.6,10.4-31.5,16.5L188.8,415.5z" />
	<path fill="#4A64C4" d="M452.3,432c-0.1-2.1-0.2-4.1-0.3-6.5c2.9,0.3,6.1,4.3,8.5,1.8c1.3,1.4,2.6,2.8,4.4,3.5   c-0.7,3.3-0.7,6.8-3.4,9.4l0.1,0.1c-0.4-0.4-0.8-0.8-1.2-1.2l0.1,0.1c-2.1-1.9-5.2-2.9-5.9-6C454.1,432.1,453.2,432.1,452.3,432z" />
	<path fill="#5573E2" d="M464.8,430.8c-4-3.3-8.4-5.2-12.4-8.3c-0.1-1.5-0.9-3.2,0.7-4.4c3.6,2.6,8.1,1.6,11.9,3.3   c0.4,0.8,0.9,1.5,1.3,2.3C465.8,426.1,465.3,428.5,464.8,430.8z" />
	<path fill="#465EB7" d="M461.5,442.7c-1.1,2-2.2,4-3.3,5.9c-0.6,0-1.2,0-1.8,0c-1.4-0.9-2.8-1.9-4.3-2.9c0-3.5,0-6.7,0-9.8   c2.5,1.6,4.6,4.2,8.1,3.4l-0.1-0.1c0.4,0.4,0.8,0.8,1.2,1.2l-0.1-0.1C461.5,441.1,461.5,441.9,461.5,442.7z" />
	<path fill="#131931" d="M461.5,442.7c0-0.8-0.1-1.6-0.1-2.4c4.5-5.4,2.7-13,6.1-18.9c0.8,1.6,1.5,3.3,2.3,4.9   c-1.3,1.3-3.2,2.3-2.3,4.7c-1.7,4.7-2.2,9.9-4.7,14.3C462.6,444.3,462.9,443.1,461.5,442.7z" />
	<path fill="#2A2321" d="M179.6,408.6c-0.5,1.9-0.9,3.8-1.4,5.7c-0.9,0.6-1.9,1.1-3.3,2c-0.4-3.7,1.9-6.8,2.8-9.6   c-0.7-2.9-1.3-5.2-1.9-7.4c1.3,0.1,2.8-0.6,3.6,1c-1.8,1-1.8,1.3-0.2,2.7v-0.1C179.4,404.9,179.5,406.7,179.6,408.6z" />
	<path fill="#0B0E1B" d="M465,421.5c-3.9-1.7-8.4-0.7-11.9-3.3c-1.6,1.3-0.8,2.9-0.7,4.4c-2.6-1-1-4.8-1.4-7c2.3,1.1,5,1.1,7.3,2.1   c1.6-0.3,2.7,2.1,4.5,0.8c0-0.6-0.1-1.2-0.1-1.7C464.4,417.9,464.8,419.7,465,421.5z" />
	<path fill="#372B28" d="M163.1,401.6c0.7-0.3,1.3-0.6,2.5-1.1c-0.5,4.7-2.1,8.1-5.6,10.6c-1.1-0.1-2.3,0.2-2.7-1.3   C160.7,408.6,161.1,404.3,163.1,401.6z" />
	<path fill="#352825" d="M174.7,398.2c-1.4-0.5-2.6-1.1-3.3-2.4c0.4-1.6,0.7-3.2,1.1-4.7c1.6-1,0.9-3.3,2.3-4.7   c-0.3,2.5,1.3,4.4,1.1,7.1C174.1,394.7,175.2,396.6,174.7,398.2z" />
	<path fill="#33302F" d="M189,434.3c-3.6,0.3-7.2-0.1-10.5,1.3c-0.5-0.5-1-0.9-1.5-1.4c4.8-1.6,9.6-2.9,14.5-1.2   C190.6,433.4,189.8,433.9,189,434.3z" />
	<path fill="#4967CA" d="M452.1,406.2c2.7,0.1,6.1-0.3,6.5,3.5c-1.9,0-3.6-0.3-5.1,1.1c-0.1,0.4-0.2,0.8-0.3,1.3   C451.7,410.4,452.2,408.3,452.1,406.2z" />
	<path fill="#435CB4" d="M455,404c-1-0.5-1.8-0.9-2.8-1.3c-0.3-2.7-0.5-5.2-0.8-7.8C453.7,397.4,456.4,400.9,455,404z" />
	<path fill="#3D3338" d="M275.5,382c-2.6,1.6-5.7,0.9-8.4,1.9c-1.3-1.7-3.2-0.3-4.7-1c4-1.4,8.8-1.3,13-2.1   C275.5,381.1,275.5,381.5,275.5,382z" />
	<path fill="#171C38" d="M460.3,439.1c-3.5,0.8-5.6-1.7-8.1-3.4c0-0.9-0.1-1.7-0.1-2.6c0.8,0,1.6,0,2.3,0   C455.3,436.2,458.3,437.2,460.3,439.1z" />
	<path fill="#2E2126" d="M480.1,292.8c-1.5-2.3-2.9-4.6-4.5-6.9c0-1,0.1-2,0.1-2.9c3.1,1.7,3.8,5.7,5.7,8.6   C481,292,480.5,292.4,480.1,292.8z" />
	<path fill="#435EB7" d="M456.6,448.5c0.6,0,1.2,0,1.8,0c-0.6,2-0.8,4.2-2.8,5.9c-1.6-0.8-2.6-2-2.1-4.1   C454.4,449.7,455.5,449.1,456.6,448.5z" />
	<path fill="#1F305F" d="M458.3,417.8c-1.9-1.3-4.5-0.3-6.3-2c0.4-0.4,0.9-0.9,1.3-1.3c2.1,1.2,5.4,2.1,7.1,0.1   c0.1-0.5,0.1-0.9,0.2-1.4c1.4,0.8,0.8,2.3,1.1,3.5C460.5,417.1,459,416.2,458.3,417.8z" />
	<path fill="#3F3B39" d="M186.7,400.6c0.2,2.8-0.4,5.5-1.4,8.1c-0.4,0-0.9,0-1.3,0c0.1-2.7-0.3-5.5,1.1-8   C185.6,400.7,186.2,400.7,186.7,400.6z" />
	<path fill="#34498F" d="M455.7,504.7c0,1.2-0.1,2.4-2.1,1.8c-0.1-2.5-0.1-5.2-0.2-7.8C455.7,497.2,453.5,503.7,455.7,504.7z" />
	<path fill="#35488E" d="M453.3,414.6c-0.4,0.4-0.9,0.9-1.3,1.3c-0.3-0.1-0.7-0.2-1-0.2c0.3-3.2-0.9-6.9,1.1-9.5   c0,2.1-0.5,4.2,1.1,5.8l0.3,0.4C453.1,413.1,451.7,413.7,453.3,414.6z" />
	<path fill="#6B5E59" d="M93,358.3c-0.4-0.7-0.7-1.5-1.1-2.2c1.9,0,3.8,0,5.7,0c0,0.7,0,1.5,0.1,2.2C96.1,358.3,94.5,358.3,93,358.3   z" />
	<path fill="#8A9BAC" d="M300.1,380.5c-0.5,2.5-0.5,2.5-3.7,2.4c0-1.1,0.1-2.2,0-3.3C297.8,379.4,299.1,379.2,300.1,380.5z" />
	<path fill="#0F1A33" d="M474.2,375.8c-1.5,2.9-2.1,3-4.6,1.4C471.4,375.7,471.8,374,474.2,375.8z" />
	<path fill="#1A1A34" d="M455.6,425.2c1.7,0.6,3.5,0.9,4.9,2.2c-1.2,1.8-4.5,0.1-6-1.1C454.8,425.9,455.2,425.5,455.6,425.2z" />
	<path fill="#4862C0" d="M458.3,417.8c0.7-1.6,2.3-0.7,3.4-1.2c0.3,0.1,0.6,0.2,0.9,0.2c0,0.5,0.1,1.1,0.1,1.7   C460.9,420,459.9,417.6,458.3,417.8z" />
	<path fill="#56353B" d="M417.5,407.7c0.5-2.4,3.8-0.9,5.6-1.2c0,0.3,0,0.6-0.1,0.9C421.1,407.5,419.3,407.6,417.5,407.7z" />
	<path fill="#3B5CB7" d="M460.5,413.2c-0.1,0.5-0.1,0.9-0.2,1.4c-1.5-0.5-3.1-1-4.6-1.5c0-0.3,0-0.6-0.1-0.9   C457.4,412.3,459.2,411.5,460.5,413.2z" />
	<path fill="#35488E" d="M455.7,412.2c0,0.3,0.1,0.6,0.1,0.9c-0.7-0.2-1.5-0.5-2.2-0.7l-0.3-0.4c0.1-0.4,0.2-0.8,0.3-1.3   C454.2,411.3,455,411.7,455.7,412.2z" />
	<path fill="#EBC8B8" d="M179.3,403c-1.6-1.4-1.5-1.6,0.2-2.7c0.4,0.4,0.9,0.8,1.3,1.2C180.3,402,179.8,402.5,179.3,403z" />
	<path fill="#445CB6" d="M454.7,455.8c-0.1,2.1-0.2,3-0.3,4.4C453,458.8,453,458,454.7,455.8z" />
	<path fill="#CCD2E9" d="M220.5,399.3c-0.6,0-1.2-0.1-1.9-0.1c0.8-0.3,1.5-0.6,2.3-0.8C220.8,398.7,220.7,399,220.5,399.3z" />
	<path fill="#465EB7" d="M454.5,433.2c-0.8,0-1.6,0-2.3,0c0-0.4,0-0.8,0.1-1.2C453.2,432.1,454.1,432.1,454.5,433.2z" />
	<path fill="#E5CFC4" d="M189,415.8c-0.2,0.3-0.4,0.5-0.6,0.8c-0.2-0.2-0.4-0.4-0.6-0.6c0.3-0.2,0.6-0.3,0.9-0.5L189,415.8z" />
	<path fill="#EDCABA" d="M54.3,372.4c0.7-0.8,1.5-1.7,2.2-2.5c3.2,14-3.3,29-2.4,43.4c-2.9,11.1,2.1,24.1-3.2,34.2   c-5.2,19.9-24,19.3-14,39.8c8.8,3.9,16.8,8.1,25.5,11.3c0.9,2.5,1.1,4.3,4.2,5c0.2-1.6,0.4-2.7,0.5-3.8c2.3,3.9,6.6,4.9,10.2,7   c0.9-0.4,1.7-0.7,2.6-1.1c-0.9,3.1-4.3,4.1-6.6,5.7c-3.8-0.4-4.1-4.3-7.2-5.7c-5.4-3-11.5-2.2-15.5-7.8c-7.8,0.4-11.3-7.6-18.8-8.9   c-1.8-0.5-3.2-1.4-3.6-3.4c-0.1-10.8,1.9-24.1,10.3-31.7c8.8-9.1,5.8-22.4,5.5-33.6C45.4,404.3,48,387.5,54.3,372.4z" />
	<path fill="#F0D7CB" d="M74.2,354.7c-6.4,3.4-13.2,5.2-18,10.9c-1.2,1.1-1.8,3.1-4,3.1c-0.8-5.1,0.5-9.9,2.3-14.7   c5.9,2.3,12.2-0.3,18.3-0.5C73.2,353.9,73.7,354.3,74.2,354.7z" />
	<path fill="#323232" d="M53.1,358.3c-1.5,3.4-1.1,6.9-0.9,10.4c-0.4,0-0.9,0-1.3,0.1c-0.4-12.5-3-27.6-11.2-36.7   C51.5,333.7,49.8,350.1,53.1,358.3z" />
	<path fill="#272727" d="M26.2,367.1c0.3,2.4,2.2,4.2-0.7,5.3c-0.6-4.1-1.1-7.6-1.7-11.2c2.1-1.1,3.9-2,6-3.1   c-1.1-1-1.9-1.8-2.8-2.6c1.5-1.3,3.9-0.3,6-0.6c0.9,1.5,1.6,2.8,2.4,4.1c-0.5,0.6-0.9,1.3-1.3,1.3   C29.7,360.4,27.3,362.8,26.2,367.1z" />
	<path fill="#313333" d="M34.6,446.2c-1.7-1.2-3.2-2.3-4.6-3.3c1.3-2.9,3.9-2.6,5.9-5.1c0.7,0.7,1.4,1.3,2.1,1.9   C36.7,442,35.6,444,34.6,446.2z" />
	<path fill="#303131" d="M45.3,379.3c-0.4-3.2-0.7-5.7-1.1-8.8c0.3-0.5,1-1.6,1.6-2.6C48.7,369.9,47.6,375.7,45.3,379.3z" />
	<path fill="#1B1B1B" d="M14.5,443.8c-4.3,0.2-4.1-5-3-8C13.9,437.8,14.4,439.1,14.5,443.8L14.5,443.8z" />
	<path fill="#333535" d="M42.6,428.8c-0.8,0.8-1.3,1.4-1.9,2c-2.3-0.3-3.3-1.8-4.2-3.8c1.2-0.6,2.2-1.2,3.4-1.8   C40.9,426.4,41.8,427.6,42.6,428.8z" />
	<path fill="#212121" d="M23.9,448.8c1.3,1.2,1.9,1.9,2.8,2.7c-1.2,1.3-1.8,2-2.8,3c-0.9-0.8-1.6-1.4-2.6-2.2   C22.1,451.4,22.7,450.5,23.9,448.8z" />
	<path fill="#232323" d="M39.3,410c-0.7-1.6-1.2-2.6-1.7-3.8c1.2-0.7,2.1-1.3,2.9-1.8C41.9,405.5,41.6,406.7,39.3,410z" />
	<path fill="#2B2D2D" d="M26.2,341.3c1.1,1.9,1.8,3.1,2.3,4C26.6,348.1,24.1,345.1,26.2,341.3z" />
	<path fill="#303131" d="M17.7,386.7c0.3-2.3,0.5-3.5,0.8-5.5c1.3,1.2,2.1,1.8,3.3,2.9C20.6,385,19.7,385.5,17.7,386.7z" />
	<path fill="#1B1B1B" d="M14.5,443.8c0.7-0.3,1.4-0.5,2.2-0.8c0.4,0.6,0.9,1.2,1.3,1.8C15.6,446.7,15.5,446.6,14.5,443.8L14.5,443.8   z" />
	<path fill="#E0E1E8" d="M885,69.4c-4.8-5.6-11.8-10.9-14.2-18c-2-1.7-3.9-3.3-5.7-4.9c1.1-4.1,8.9,0.5,11,2.2   c11.2,2,18.9,15.1,13.6,25.3C883.7,73,888.1,71.3,885,69.4z" />
	<path fill="#CECDDB" d="M871.3,178c-1.6,0.5-3.2,1.1-4.9,1.7c-1.7-1.6-3.1-2.9-4.6-4.2c0-2,0-3.9,0-6.4c9.2-7.3,21-11.4,27.9-21.4   c-0.4,3.2-0.8,6.5-1.1,9.4C883.1,163.7,870.1,168.8,871.3,178z" />
	<path fill="#C1BECA" d="M891.1,72c0-2.6,0-5.1,0.1-7.7C892.6,66.9,892.6,69.4,891.1,72z" />
	<path fill="#C1BECA" d="M886.3,72.9c1.2,0.4,2.4,0.8,3.5,1.2C887.5,75.7,887.1,75.6,886.3,72.9z" />
	<path fill="#C1BECA" d="M885,69.4c1.5,0.4,1.4,1.5,1.1,2.7C885.7,71.2,885.3,70.3,885,69.4z" />
	<path fill="#C1BECA" d="M889.8,74.1c0.3-0.4,0.7-0.8,1-1.2C891,73.7,890.7,74.1,889.8,74.1z" />
	<path fill="#EECABA" d="M78.9,408.4c11.1,12.9,15.8,20.2,18,37.4c10.9,22.9,38.8,26.4,52.1,47c-0.4,0.6-0.7,1.2-1,1.7   c-3.7-0.1-7.2-1.4-9.6,1.9c-2-0.7-0.3-2.3-0.8-3.5c-3-0.2-6,0.7-8.6-0.9c0.4-0.3,0.7-0.7,1.3-1.2c-17.1-10.9-41.2-23.3-43.4-46   c-0.9-0.5-1,0-1.8,0.4c-4.3-5,1.3-13.6-3.4-18.5c-0.8,2.7-1,5.5-2.9,7.8c-0.4-3.5-2.2-6.7-0.5-10.1c-0.9-1.1-1.9-2.3-2.9-3.6   c-0.1-4.1-2.1-8-1.4-12.2c0.9-0.6,1.8-1.2,3.1-2.2c-1.9-0.9-3.3-1.6-4.7-2.3c0.3-0.2,0.6-0.5,1.2-0.9c-2.2-1.8-4.3-3.6-6.4-5.4   c0-1.5,0-2.8,0-4c5.5-2.8,48.8,33.6,49.9,40.2c-0.4,0.9-0.8,1.8-1.1,2.6c-1.1-0.6-2.3-1-3.3,0.2c-0.5-0.5-1-1.1-1.6-1.6   c0-2.3-0.9-4.1-3.3-5.5c-0.8,2.6,0.9,3.7,2.2,5.5c-5.9-2.5-15.4-7.1-11.9-14.9c-4.7-5.5-10.6-9.1-17.1-11.9c-0.3-1.1-0.6-2-2.1-1.8   C79,407.4,78.9,407.9,78.9,408.4z" />
	<path fill="#252220" d="M83.4,473.2c-3-3.6-2.5-8.4-3.4-12.7c0.9-0.3,1.4-0.4,1.9-0.6c0.1,4.2,2.1,7.9,2.7,11.9   C84.3,472.3,83.8,472.8,83.4,473.2z" />
	<path fill="#52403C" d="M124.4,487.2c2,1.2,3.9,2.3,6.1,3.6c-0.6,0.5-0.9,0.9-1.3,1.2c-2-1.2-4.1-2.3-6.1-3.5   C123.5,488.1,124,487.6,124.4,487.2z" />
	<path fill="#2D3131" d="M91.8,473.6c2.3-0.9,3.5-0.4,4.2,1.4C94.3,475.4,92.8,476.2,91.8,473.6z" />
	<path fill="#57514D" d="M83.4,466c-1.1-1.9-1.2-4-1.4-6.1c0.4,0.3,1,0.2,1.4,0.4c0.4,1.9,0.9,3.9,1.3,5.8   C84.3,466,83.8,466,83.4,466z" />
	<path fill="#5C534F" d="M76.5,444.9c-0.4,1.4-1.1,2.3-3.2,2.1c0.7-1.6,0.2-3.4,1.9-4.5C75.4,443.5,75.1,444.7,76.5,444.9z" />
	<path fill="#978881" d="M83.4,466c0.4,0,0.9,0,1.3,0c0.4,2,0.8,3.9,1.3,5.9c-0.4,0-0.8,0-1.2,0C84.3,469.9,83.8,467.9,83.4,466z" />
	<path fill="#56433E" d="M82.2,427.6c1.7,0.6,1.1,2.1,1.3,3.3C81.8,430.3,82.1,428.9,82.2,427.6z" />
	<path fill="#252220" d="M84.7,471.8c0.4,0,0.8,0,1.2,0c0.4,0.4,0.7,0.9,1.3,1.6C85.4,473.8,85,472.9,84.7,471.8z" />
	<path fill="#252220" d="M83.4,460.3c-0.4-0.1-0.9-0.2-1.3-0.3c0.1-0.7,0.2-1.5,0.3-2.2C83.6,458.3,83.6,459.3,83.4,460.3z" />
	<path fill="#252220" d="M84.7,475.4c-0.3-0.4-0.6-0.8-0.8-1.2C84.1,474.6,84.4,475,84.7,475.4z" />
	<path fill="#56433E" d="M81.5,427.5c0.1-0.3,0.2-0.5,0.3-0.8c0.1,0.3,0.2,0.5,0.3,0.8l-0.3,0.1L81.5,427.5z" />
	<path fill="#090707" d="M174.7,386.5c-1.4,1.4-0.6,3.7-2.3,4.7c-3.1-6.8,2.5-13.7-1-20.2c1.5-7.5-7.4-9.6-13-7.9   c-5.3,1.4-8.6-2.9-13-4.9c-1.4,1.2-2.6,2.1-3.6,2.9c0,3.1,3.9,5.1,1.2,8.6c-0.9-0.3-2-0.6-3-0.9c-0.9-9.1-1.9-15.1-13-12.6   c1.7,2.4,1.3,4.6,0.7,6.8c-2.2,1.9-5,3.5-7,0c0.8-0.7,1.6-1.3,2.6-2.1c3-20.8-4.5-8.5-11.6-12.9c4.5-3.2,9.1-4.7,14.3-1.6   c1.1-1,2.2-2,3.3-3.1c6.3-0.7,9.2-8.2,13.4-12.1c4.9-4.9,5.5-11.1,5.9-17.7c1.8-3.8-2.6-15.8,1.6-15.8c0.6,2,1.1,4,1.8,6.4   c1.1-0.9,2.1-1.9,3.1-2.8c0.4,0.4,0.9,0.8,1.3,1.2c-1.2,2.9-2.3,5.7-4.8,7.6c4.2,14-7.3,24.9-16.1,33.4c0,5.7,1.3,9.4,4.7,13.5   c1.4-0.8,2.5-1.5,3.3-1.9c2.2,0,4,0,5.7,0c2.3,1.7,4.7,3.3,7.1,5c9.9-5.3,22.7,4,21.1,14.8l0,0c-1.5,3-1.2,6.2-1,9.5   C175.6,384.9,175.2,385.7,174.7,386.5z M132.3,346.6c-1.9,1.3-3.2,2.3-4.7,3.3c1.2,2.6,2.9,2.3,4.9,1.5   C132.9,349.4,132.6,348.8,132.3,346.6z" />
	<path fill="#EDC9BA" d="M113.9,278.8c-4.5,11.9-15.9,21.6-16.3,34.6c0,11.7-5.2,22.3-8,33.7c0.4,1.4,2.6,2.2,2,4.3   c-0.3-0.1-0.7-0.2-1-0.4c-2.4-4.6-8.5-2.9-12.8-3.6c6.1-26,14.6-50,34.7-68.7C113,278.7,113.4,278.7,113.9,278.8z" />
	<path fill="#FBDFD3" d="M129.3,343.2c-1.1,1-2.2,2.1-3.3,3.1c-9.8-5.5-19.2,6.1-29.1,4.8c1.1-2.6,2.3-4.3,3.2-6.7   c1.5-0.6,2.4,1.3,4.1,0.4c2.1-1.1,4.4-1.2,6.5-0.3c4.2-4.1,12.7-11.4,16-1.4C127.4,343.1,128.3,343.1,129.3,343.2z" />
	<path fill="#E6CABF" d="M74.2,354.7c-0.5-0.4-0.9-0.8-1.4-1.2c4.3-2.1,10.9-4.3,14.5,0.1c-0.5,0.5-1,1-1.5,1.5   C81.9,354.4,77.8,352.6,74.2,354.7z" />
	<path fill="#342B28" d="M98.8,346.8c-0.6,1.3-1.3,2.6-2.1,4.3c1.2,0.1,2.2,0.2,3.2,0.4c-2.5,1.9-5.5,1.7-8.7,2.8   c-0.3-1.4-0.5-2.2-0.6-3.1c0.3,0.2,0.6,0.3,1,0.4c0.3,0.4,0.6,0.8,1.3,1.7c1.6-4,3.3-6.8,6-9.8c0.3,0.3,0.6,0.7,1,1   C99.6,345.2,99.2,346,98.8,346.8z" />
	<path fill="#6B5E59" d="M85.8,355.1c0.5-0.5,1-1,1.5-1.5c0.7,0.4,1.4,0.9,2.1,1.3C87.9,356.4,87.9,356.4,85.8,355.1z" />
	<path fill="#CEB7A9" d="M115,272.8c0.1,1.4,0.7,2.9-1.2,3.6C114.2,275.2,114.6,274,115,272.8z" />
	<path fill="#CEB7A9" d="M117.4,268.3c0.1,1.1,0,2-1.2,2.3C116.6,269.9,117,269.1,117.4,268.3z" />
	<path fill="#CEB7A9" d="M113.9,278.8c-0.4,0-0.8,0-1.3,0c0.4-0.8,0.8-1.6,1.3-2.3C113.9,277.2,113.9,278,113.9,278.8z" />
	<path fill="#CEB7A9" d="M116.2,270.6c0.2,1.1,0.1,2-1.2,2.4C114.9,271.8,115.2,271.1,116.2,270.6z" />
	<path fill="#CEB7A9" d="M121,264.9c-0.7,0.4-1.4,0.8-2.1,1.2C119.1,264.9,120,264.8,121,264.9z" />
	<path fill="#CEB7A9" d="M118.7,266.2c0,1-0.1,1.8-1.3,2.1C117.4,267.3,117.6,266.5,118.7,266.2z" />
	<path fill="#B8968A" d="M47.3,502.3c0.3-0.5,0.5-0.9,0.8-1.3c2.5-0.2,3.1,2.4,4.9,2.9c1.6,0.5,3.3,0.5,4.9,0.7   C56.4,509.8,49.5,504.6,47.3,502.3z" />
	<path fill="#EECABA" d="M658.9,183.1c1.6-0.6,2.7,0.6,4.1,1.1c0.8,3.8,5.1,0.9,6.9,3.4c-27.5,3.6-55.3-0.8-82.4-4.1   c18.3-6.6,41.2-6.1,59.7-0.2c3.9,2.3,7.4-1.3,11.2-0.2c-0.4,0.5-0.8,1.1-1.4,2c1.4,0,2.3,0,3.6,0   C659.9,184.1,659.4,183.6,658.9,183.1z M630.8,183.2c0,0.3,0.1,0.5,0.1,0.8c0.8-0.1,1.5-0.2,2.3-0.3c0-0.3-0.1-0.5-0.1-0.8   C632.3,183,631.5,183.1,630.8,183.2z" />
	<path fill="#0C070A" d="M480.1,292.8c0.4-0.4,0.8-0.8,1.3-1.2c9.8,12.2,22.6,20.8,37.5,25.6c-0.6-3-1-5.4-1.5-7.8   c0.4-0.9,0-2.2,1.4-2.6c1.5,3.6,2.9,7.2,4.7,11.4c8.5,3.5,19.1,4.3,28.2,6.4c1.5,2.1,3.8,0.2,5.8,1.1c-0.9,0.4-1.7,0.8-2.6,1.3   C528.6,323.7,494.7,318.6,480.1,292.8z" />
	<path fill="#ECC8B8" d="M539.8,237.7c-0.2,1.6,0.5,3.3-0.8,4.6c-5.4-4.6-4.3-49.6,9.2-37c-2.3,5.1-3.5,11.6-6.2,16.2   c-0.1-5,2-10,0.5-11.4c-2.3,3.1-4.4,14.9-1.5,17.4c-1.3,2.4,1,6.5-1,9.4c-0.2-0.8-0.4-1.5-0.7-2.7   C538.3,235.8,537.9,237,539.8,237.7z" />
	<path fill="#EDC9B9" d="M534.1,154.8c-1.1,1.2-2.2,2.4-3.3,3.6c-0.3-0.4-0.6-0.9-1.1-1.6c-2.1,1.8-3.8,3.5-5.6,5.4   c-3.3-1-6.5-1.6-9.1-3.7c3.5-4.9,9.6-6.8,14.7-9.4c4-1.3,9.5,2.2,5.4,5.8c-0.2-0.3-0.4-0.6-0.6-0.9   C534.5,154.2,534.3,154.5,534.1,154.8z" />
	<path fill="#251413" d="M594.8,201.8c-10.9-1.5-22-1.4-32.9-2.7c7.3-6.5,29.6,1.3,40,1.4C599.6,201.8,597.2,201.7,594.8,201.8z" />
	<path fill="#2A2220" d="M515.1,158.4c2.6,2.1,5.8,2.7,9.1,3.7c0.9-0.9,1.8-1.9,2.7-2.8c0.6,0.6,1.1,1.1,1.7,1.7   c0.3,8.2-15,1.7-16.6-2.4C513,157.4,514.1,158.4,515.1,158.4z" />
	<path fill="#AD867E" d="M669.9,187.5c-1.8-2.4-6.1,0.5-6.9-3.4c7,1.5,13.9,2.6,21,2.3c3,2.9,8.1-0.5,11.6,2   C687,188.6,678.3,189.4,669.9,187.5z" />
	<path fill="#29201F" d="M559.6,158c-4.6,2.8-9.5,5.4-13.1,9.4c-4.6-4,8.4-9.8,12-10.3C558.9,157.3,559.2,157.6,559.6,158z" />
	<path fill="#2D2220" d="M695.6,188.4c-3.6-2.5-8.6,0.9-11.6-2c3.8,0,18.6-2.3,18.3,2.8C700.2,190.1,697.9,188.4,695.6,188.4z" />
	<path fill="#6E5753" d="M594.8,201.8c6.1-0.7,9.6-1.6,16.2,0.1C607.5,203.2,598.9,202.9,594.8,201.8z" />
	<path fill="#352C2A" d="M495.5,181.8c-0.5-0.4-0.9-0.9-1.4-1.3c2-3.9,2.8-6.5,6.2-9.9C500.8,175.5,497.4,177.8,495.5,181.8z" />
	<path fill="#280707" d="M621.4,203.6c-3.8,1.4-5.9,1.2-9.7-0.6C615.1,201.9,618.3,202.9,621.4,203.6z" />
	<path fill="#877771" d="M593.1,218.8c-2.4,0.5-4.8,0.7-7.3-0.4C588.5,216,589.2,216,593.1,218.8z" />
	<path fill="#62514C" d="M738.7,207.5c0,0.7,0.1,1.1-0.1,1.8c-2.3,0.4-5,2.7-6.9,0.4C733.8,208.1,736,207.1,738.7,207.5z" />
	<path fill="#6E5F5B" d="M539.1,247.4c2,2.6,2.4,4.8,0.8,7.7C538.6,251.8,538.6,251.8,539.1,247.4z" />
	<path fill="#584F4A" d="M542,219c0,0.8,0.1,1.6,0.1,2.4c-1.5,1.8-0.7,4-1.1,6c-2.4-2.3-1.5-7.8-0.3-10.9   C541.2,217.2,541.6,218.1,542,219z" />
	<path fill="#54423F" d="M518.8,306.9c-1.4,0.3-1,1.7-1.4,2.6c-0.7-2.6-1.4-5.1-2.3-8.1C517.8,303.4,517.8,303.4,518.8,306.9z" />
	<path fill="#2B2927" d="M667.5,202.4c-1.2,2.3-3.1,1.8-5,1.5C663.9,201.6,663.9,201.6,667.5,202.4z" />
	<path fill="#79706A" d="M508.6,159.6c-1.8,1.8-4,0.9-6,0.8c-0.1-0.3-0.1-0.6,0-0.9c1.2-0.3,2.4-0.7,3.5-1   C506.9,158.9,507.8,159.3,508.6,159.6z" />
	<path fill="#58514D" d="M558.2,198.2c0.8,3.2,0.8,3.2-1.7,4.1C555.8,200.3,556.6,199.2,558.2,198.2z" />
	<path fill="#8B7973" d="M607.2,216.6c1.5,0.7,2.6,1.2,4,1.9C609.1,219.6,605.9,219.7,607.2,216.6z" />
	<path fill="#A8948D" d="M571.4,150c1.2-0.8,2.4-1.6,3.8-2.5c0.5,2.6-1.3,2.9-2.6,3.7C572.2,150.8,571.8,150.4,571.4,150z" />
	<path fill="#6A312F" d="M651.5,203c2.4,0,3.7,0,5.6,0C655.1,205.1,653.8,204.8,651.5,203z" />
	<path fill="#65514C" d="M515.2,294.2c-1.5-1.6-1.1-3.4-1-5.4C517.3,289.8,516.5,292.2,515.2,294.2z" />
	<path fill="#866A65" d="M559.6,158c-0.4-0.3-0.8-0.7-1.1-1c1.2-1.2,2.5-2,4.7-2.1C562.6,157,561.2,157.5,559.6,158z" />
	<path fill="#523E3A" d="M528.5,161c-0.6-0.6-1.1-1.1-1.7-1.7c0.9-0.8,1.9-1.7,2.9-2.6c0.5,0.7,0.8,1.2,1.1,1.6   C530.1,159.2,529.3,160.1,528.5,161z" />
	<path fill="#5B4D49" d="M514.6,284.9c-0.8-2.5-1.2-4.1,0.2-5.7C516,280.9,515.7,282.5,514.6,284.9z" />
	<path fill="#725F5A" d="M571.4,150c0.4,0.4,0.8,0.8,1.2,1.2c-1.3,0.6-2.5,2.1-4.6,0.8C569.3,151.2,570.4,150.6,571.4,150z" />
	<path fill="#66504C" d="M542.4,150.7c1.5-0.8,2.6-1.3,3.8-1.9C546.3,151.2,546.1,151.3,542.4,150.7z" />
	<path fill="#3A3A37" d="M634.9,204.4c2.2-1.4,3.5-0.7,4.7-0.1C638.6,205.7,637.3,205.2,634.9,204.4z" />
	<path fill="#2E2B28" d="M658.9,183.1c0.5,0.5,1,1.1,1.8,2c-1.3,0-2.2,0-3.6,0c0.6-0.9,1-1.4,1.4-2   C658.4,183.1,658.9,183.1,658.9,183.1z" />
	<path fill="#161211" d="M515.2,294.2c0.4-0.8,0.8-1.6,1.2-2.5c0.4,1.3,1,2.5-0.2,3.6C515.9,294.9,515.6,294.5,515.2,294.2z" />
	<path fill="#BFABA2" d="M502.6,159.6c0,0.3,0,0.6,0,0.9c-0.9,0.4-1.7,0.8-2.6,1.3C500.1,159.9,500.1,159.9,502.6,159.6z" />
	<path fill="#473D3A" d="M515.2,269.3c-0.1,1.2-0.1,2.4-0.2,3.5c-0.3,0-0.6,0-0.9,0c-0.1-1.2-0.1-2.4-0.2-3.6   C514.4,269.2,514.8,269.3,515.2,269.3z" />
	<path fill="#2A1F2E" d="M555.5,325.4c-1.3,0.2-2.8,0.8-3.8-0.8C552.9,324.9,554.2,325.2,555.5,325.4z" />
	<ellipse fill="#5C504C" cx="514.7" cy="256" rx="0.6" ry="2.1" />
	<path fill="#494441" d="M539.8,237.7c-1.8-0.7-1.5-1.9-0.4-3.7c0.3,1.2,0.5,1.9,0.7,2.7C539.8,237,539.7,237.3,539.8,237.7z" />
	<path fill="#522523" d="M508.6,159.6c-0.8-0.4-1.6-0.7-2.5-1.1C507.1,158.1,510.6,158,508.6,159.6z" />
	<path fill="#A2837D" d="M557.2,205.3c0.2,1,0.3,2-1,2.3C556.1,206.6,556.3,205.7,557.2,205.3z" />
	<path fill="#4B3732" d="M558.8,214.4c1.2,0.7,1,1.8,0.8,2.8c-0.4-0.6-0.7-1.1-1.1-1.7C558.6,215.2,558.7,214.8,558.8,214.4z" />
	<path fill="#6C413E" d="M533.1,199.8c0.7-0.8,1.2-0.4,1.8,0.2C534.2,200.5,533.7,200.4,533.1,199.8z" />
	<path fill="#8F7972" d="M534.1,154.8c0.2-0.3,0.4-0.6,0.6-0.9c0.2,0.3,0.4,0.6,0.6,0.9C534.9,154.8,534.4,154.8,534.1,154.8z" />
	<path fill="#4B65C5" d="M467.5,430.9c-0.9-2.4,1-3.4,2.3-4.7c0.5,0.5,1,1.1,1.8,1.9c2.2-3.5,1.8-7.7,4-11.2   c-3.4-8.5-10.4-15.6-9.1-25.5c1.1-1,2.5-2.2,4.4-3.9c0-0.9,0-2.2,0-3.5c23.6,21.4-0.4,27.3,7.6,41.3c2.1-6.7,2.9-13.1,5.9-18.7   c1-0.4,1.7-0.8,2.6-1.3c-0.7-3.5-0.7-3.5,0.4-6.1c0.6-0.1,1.2-0.2,1.8-0.3c5.3,4.6,10.5,9.3,15.8,13.8c0.4,4.5,4,8.1,5.8,12.1   c-6.1,0.8-21.3-8.3-24.1-2.6c8.2,1.8,16.9,2.5,25.3,5.1c-0.2,3.1,0.6,6.2-2,8.5c0.7,0.6,1.3,1.2,2,1.8c-4.7-0.8-9.4-1.5-14-2.3   c-0.6-1.7-1.8-2.4-3.6-2.4c-0.7-1.3-2.6-3.5-3.5-1.1c-1.6-1.1-3.2-2.1-4.8-3.2c1.6-1.3-0.4-3.2-2.1-2.4c0.3,0.7,0.7,1.3,1,2   c-4.3,5.3-2,14-6.8,19.8c-0.5,0-1.1,0-1.8,0c-3.3-5.4-5.3-10.9-4.3-17.3c-1.1-0.6-2.1-1.1-3.1-1.7   C468.5,429.7,468,430.3,467.5,430.9z" />
	<path fill="#040407" d="M497.8,435.6c18.4,1.7,35.2,9.4,50,20c2.1,3.8,30.1,21.4,20.1,22.2c-20.6-18.5-46-40.9-75.7-39.2   c0.1-0.3,0.1-0.5-0.1-0.8c0.1-0.3,0.1-0.5-0.1-0.8C493.7,435.8,495.8,435.8,497.8,435.6z" />
	<path fill="#4A64C4" d="M542.1,418.1c1.5,0.9,2.9,1.9,4.7,3c-1,2-3.3,3.4-2,6.8c-14.1-7-22.3-19.6-31.6-31.1   C521.2,400.6,535.5,419,542.1,418.1z" />
	<path fill="#080911" d="M535.2,414.6c-16.2-14.6-34.9-27.1-49.8-42.8c18.2,8.8,34.7,28,51,41.5C536,413.8,535.6,414.2,535.2,414.6z   " />
	<path fill="#08080F" d="M504.9,412.9c-3.5-5.1-17.7-10.9-15.2-17c13.1,10.1,25.2,21.6,37.3,32.8c-0.4,0.4-0.8,0.8-1.2,1.3   C518.2,425,512.1,418.3,504.9,412.9z" />
	<path fill="#0A0A13" d="M584.3,433.3c7.3,3.1,14.9,5.2,22.3,8.3c-0.5,0.4-0.9,0.9-1.4,1.3c-14.1-4.8-31.2-6.5-43.2-14.9   C569.7,427.6,576.7,432.1,584.3,433.3z" />
	<path fill="#4860BA" d="M489.6,395.8c-0.6,1-1.3,2-0.6,3.2c-0.6,0.1-1.2,0.2-1.8,0.3c0.8-2-1.6-6.3-3.5-3.6c-0.6,0-1.1,0-1.9,0   c-2.6-5.5-5.5-10.7-10-14.9c1.1-0.8,2.2-1.5,3.4-2.3C483.6,380.1,481.6,392.4,489.6,395.8z" />
	<path fill="#212A4D" d="M548.2,379.3c-0.7-9.5-4.3-19-3.2-28.5C546.9,359.7,551.4,371,548.2,379.3z" />
	<path fill="#111326" d="M471.8,380.8c4.6,4.2,7.6,9.4,10,14.9c0.7,0,1.3,0,1.9,0c-0.4,1.3-0.9,2.6-1.3,3.9c-0.3-0.1-0.7-0.2-1-0.3   c-1.9-5.6-5.8-11.4-10.5-15.1C467.7,382.7,468,379.9,471.8,380.8z" />
	<path fill="#171E39" d="M567.9,477.8c1-0.1,2.2-0.1,2.6-1.4c4.6,6.4,9.7,12.2,14,18.8c0,0.5-0.1,1-0.1,1.5   C577.6,491.4,574.5,483.1,567.9,477.8z" />
	<path fill="#1C2140" d="M537.4,394.7c-5-4.2-9.3-9.4-15.5-12.5c0.5-0.3,1-0.7,2-1.4c5.4,3.6,10.5,7.6,14.8,12.6   C538.3,393.9,537.8,394.3,537.4,394.7z" />
	<path fill="#191B36" d="M580.8,459.1c-4.8-3.6-11.2-5.7-14.9-10.2c6.3,0.3,10.9,5.9,16.1,9C581.6,458.3,581.2,458.7,580.8,459.1z" />
	<path fill="#232D54" d="M547.8,455.6c-1.1-0.7-2.2-1.5-3.3-2.2c4.3-3.7,3.7-11.3,6.1-16.5c0.4,0.4,0.8,0.8,1.2,1.2   C550.4,443.9,549,449.7,547.8,455.6z" />
	<path fill="#0C0C18" d="M625.5,366.5c3.6-3.7,10.3,2.5,13.7,5.1c-0.4,0.4-0.7,0.7-0.9,0.9C633.4,371.8,630.2,367.6,625.5,366.5z" />
	<path fill="#30407D" d="M537.4,394.7c0.4-0.4,0.9-0.9,1.3-1.3c3.8,4.1,7.7,8.2,11.4,12.2C545.5,405.1,541.7,397.8,537.4,394.7z" />
	<path fill="#43569E" d="M548.2,379.3c1.7-0.7,0.7-2.3,1.2-3.5c2.3,5.5,0.6,12.1,0.7,19.2C548.9,389.5,548.8,384.9,548.2,379.3z" />
	<path fill="#232849" d="M605.2,442.9c0.5-0.4,0.9-0.9,1.4-1.3c3.4,1.4,9.2,0.8,11.1,3.8C613.9,445.8,609.1,444.4,605.2,442.9z" />
	<path fill="#2A315B" d="M525.7,429.9c0.4-0.4,0.8-0.8,1.2-1.3c3.6,2.3,6.1,5.7,9.4,8.9C533.3,437,530.8,435.1,525.7,429.9z" />
	<path fill="#303D74" d="M580.8,459.1c0.4-0.4,0.8-0.8,1.2-1.2c3.5,2.6,7,5.2,10.8,8.1C589.7,466.7,584.3,461.1,580.8,459.1z" />
	<path fill="#344076" d="M511.9,427.5c-3.1-1.5-6.7-0.6-9.6-2.3c0.8-0.4,1.5-0.7,2.3-1.1c4.4,0.6,6.7,1,11.1,3.1   C513.8,427.3,512.8,427.4,511.9,427.5z" />
	<path fill="#2F3F7B" d="M551.8,438.1c-0.4-0.4-0.8-0.8-1.2-1.2c0.8-3.4,1.6-6.7,2.3-10C554.2,430.8,553.2,434.5,551.8,438.1z" />
	<path fill="#222C56" d="M535.2,414.6c0.4-0.4,0.8-0.8,1.2-1.2c1.9,1.6,4.2,2.8,5.8,4.7C540.1,420,536.7,416.4,535.2,414.6z" />
	<path fill="#2A1F2E" d="M546.8,325.8c1.3-0.1,2.7-0.7,3.6,0.8C549.1,326.9,547.8,326.9,546.8,325.8z" />
	<path fill="#4A64C4" d="M634.7,371.3c0.9,0.3,1.7,0.6,2.6,0.9C636.2,372.4,635.2,372.5,634.7,371.3z" />
	<path fill="#4B65C5" d="M582.1,491.5c-0.3-0.3-0.6-0.6-0.9-0.9C581.5,490.8,581.8,491.2,582.1,491.5z" />
	<path fill="#0E0C0C" d="M798.5,135c7.5-2.2,21.2-2.9,24.3,5.3c-8.1-1-17,0.7-24.5-1.9c0.1-1,0.2-2.3,0.3-3.6L798.5,135z" />
	<path fill="#434547" d="M825.9,102.2c-0.4-2.9-0.4-2.9,2.9-3.4C828.1,100.7,828.1,100.7,825.9,102.2z" />
	<path fill="#5876E8" d="M526.2,447c6.8,2.5,12.6,6.5,18.4,10.7c-1.9,12.3-1.8,25.3,1.1,37.4c-4.7,2.3-10.3,1.4-15.4,2.3   c-2.1-18.5-12-35.2-24.5-48.6c0.3-0.4,0.7-0.9,0.9-1.1c6.4,0.7,12.4,1.4,18.1,2C525.4,448.5,525.8,447.8,526.2,447z" />
	<path fill="#5876E7" d="M567.9,477.8c4.6,3.3,7.1,8.7,10.5,13c-9.1,3.8-19.7,2.9-29.4,4.4c-5.4-10-5-23.2-2.6-34.4   c0.5-0.1,1.1-0.2,1.6-0.3C555,465.7,561,472.6,567.9,477.8z" />
	<path fill="#05050A" d="M505.7,448.8c12.5,13.5,22.4,30.1,24.5,48.6c-1-0.1-2-0.2-3-0.3c-4.8-18.8-13.7-36.7-28.1-50   c0.1-1.4-2.1-2.4-0.7-4.1C501.3,444.2,503.2,447,505.7,448.8z" />
	<path fill="#04050A" d="M551.7,521.1c-1.3,10-37.9,1.1-35.8-8.2C527.6,518.5,538.8,520.3,551.7,521.1z" />
	<path fill="#07080F" d="M461.4,507c0.4-8.2,21.3-3.3,27-1C480.2,508.6,470.1,506.2,461.4,507z" />
	<path fill="#0A0F1C" d="M461.4,507c8.8-0.8,18.9,1.6,27-1c7.1,1.6,15.1-4.4,22.2-0.4c-6,0.1-12.6,0.8-18,3.4   C482,506.6,471.2,510,461.4,507z" />
	<path fill="#272B4D" d="M510.5,505.6c-3.1-1.9-7.1-0.7-10.5-1.1c4.9-2.4,11.2-0.4,16.8-1c4.2-4.2,10.8-1.7,16.1-2.3   c0,0.4,0,0.7,0,1.1c-4.1,0-8.1,0-12,0c-1.1,1.3-1.9,2.3-2.9,3.4C515.5,505.6,513,505.6,510.5,505.6z" />
	<path fill="#293563" d="M544.7,481.1c2.3,5.3,2.2,11.4,2.9,17.1C544.5,495.9,542.7,484.5,544.7,481.1z" />
	<path fill="#334178" d="M532.9,502.2c0-0.4,0.1-0.7,0-1.1c4.5-1.9,8.8-2.1,13,0.9c-1.2,1.4-1.8,0.6-2.4,0.3   C540.1,500.1,536.6,502.5,532.9,502.2z" />
	<path fill="#344079" d="M584.4,496.6c0-0.5,0.1-1,0.1-1.5c2.2,1.7,4.3,3.6,6,6.5C587.3,500.1,587.3,500.1,584.4,496.6z" />
	<path fill="#293059" d="M490.7,502.4c0.3,0.6,0.5,1.3,0.8,2C489.5,504,489.5,504,490.7,502.4L490.7,502.4z" />
	<path fill="#463835" d="M565.7,129c-3.9,2.1-7.6,4.5-12,5.3c-0.6-4.5,7.8-4.5,10.7-6.7C564.8,128.1,565.2,128.6,565.7,129z" />
	<path fill="#BB9E95" d="M565.7,129c-0.4-0.5-0.8-0.9-1.3-1.4c2.1-1.7,4.7-1.3,7.1-2.2c1.7-0.6,3.2-2.1,5.9-1.9   C573.8,127.2,569.3,127.2,565.7,129z" />
	<path fill="#6C3A36" d="M596.9,124.7c3.2-2.6,6.2-1.3,9-0.9C603.1,124.3,600.5,126.1,596.9,124.7z" />
	<path fill="#8F6C66" d="M586.6,121.9c1.9-1.9,4.2-0.8,7.4-1.6c-1.9,2.2-3.3,2.7-5,2.7C588.6,121.8,587.5,122.1,586.6,121.9z" />
	<path fill="#302422" d="M743.6,154.4c1.8-1.1,2.4-1,4.1-0.9C749,157.6,745.8,155.3,743.6,154.4z" />
	<path fill="#CFB7AD" d="M531.5,125.8c0.8-3.1,2-4.3,4-5.1C534.7,123,534.8,123.1,531.5,125.8z" />
	<path fill="#3A2A29" d="M586.6,121.9c0.9,0.2,2-0.1,2.4,1.1C588,123.4,584.6,123.5,586.6,121.9z" />
	<path fill="#040404" d="M189,434.3c42.9-5.4,99.4,48.8,65.3,89.8c-0.4,0-0.7,0.2-1,0.4c-0.5-0.5-0.9-1-1.4-1.5   c12.8-18.2,10.1-41.6-4.5-58.2c0-1.1,0.1-2.2-1.5-2.2l0.1,0.1c0-0.9-0.4-1.3-1.3-1.3C229.1,447.4,210,436.6,189,434.3z" />
	<path fill="#1E181B" d="M423.1,498.5c4.4,0.7,8.8,1.4,12.5,3.9c-3.5,4.4-10.3-2.2-15-2.7C421.5,499.3,422.3,498.9,423.1,498.5z" />
	<path fill="#1F1B1E" d="M398.2,488.5c0,0.6-0.1,1.1-0.1,2c-3.1,0.4-4.1-2.4-6.5-4.3c1.3-0.1,2.2-0.2,3.1-0.2   C395.9,486.8,397,487.6,398.2,488.5z" />
	<path fill="#9D9FB2" d="M415.9,497.6c-2-1.2-3.9-2.4-5.9-3.5l0,0c2.6-0.1,5,0.7,7.1,2.3C416.7,496.8,416.3,497.2,415.9,497.6z" />
	<path fill="#26171A" d="M339.5,516.6c-2.1,1.6-3.3,2.4-4.5,3.3C334.3,516.9,334.6,516.6,339.5,516.6z" />
	<path fill="#5D505A" d="M415.9,497.6c0.4-0.4,0.8-0.9,1.2-1.3c2,0.7,4.1,1.4,6.1,2.2c-0.8,0.4-1.6,0.8-2.5,1.2   C419.1,499,417.5,498.3,415.9,497.6z" />
	<path fill="#77707D" d="M296.6,536.2c-0.5-0.5-0.9-1-1.4-1.5c1.5-1.9,3.9-0.1,5.6-1.5C300.1,535.5,298,535.3,296.6,536.2z" />
	<path fill="#534B54" d="M305.4,530.5c0.4-2.5,1.8-2.9,4-2C307.8,529.3,306.6,529.9,305.4,530.5z" />
	<path fill="#696773" d="M322.5,522.7c2-0.4,2.8-0.5,4-0.7C325.2,524.4,325.2,524.4,322.5,522.7z" />
	<path fill="#402428" d="M345.7,513.5c-0.5,0.3-1.1,0.7-1.6,1c-0.2-0.4-0.3-0.9-0.5-1.3c0.6-0.1,1.2-0.3,1.8-0.4   C345.6,513.1,345.7,513.3,345.7,513.5z" />
	<path fill="#9D9FB2" d="M410,494.1c-0.8,0-1.6,0-2.3,0C408.4,492.7,409.2,492.6,410,494.1L410,494.1z" />
	<path fill="#4B3732" d="M560.6,211c-0.2,0-0.6,0-0.8,0c0.2-0.2,0.3-0.5,0.5-0.7C560.4,210.5,560.5,210.8,560.6,211z" />
	<path fill="#4B3732" d="M559.8,211.1c-0.3,0.4-0.6,0.7-0.9,1.1C559.2,211.8,559.5,211.4,559.8,211.1z" />
	<path fill="#372724" d="M192.3,535.2c-1.4-2.3,2.2-1.4,3.3-1.3c0.6,0.9,1.2,1.7,2.1,2.9C195.1,537.6,194.1,535.1,192.3,535.2z" />
	<path fill="#A58D83" d="M484.7,204.8c0.9,2,0.9,2-0.2,4.3C482.9,207.9,483.7,206.7,484.7,204.8z" />
	<path fill="#A58B81" d="M488.5,199.3c-1.6-0.7-1.6-1.8-0.3-3.5C488.3,197.3,488.4,198.3,488.5,199.3L488.5,199.3z" />
	<path fill="#4D3B37" d="M764.7,207.3c-5.8,0.5-11.6,1.7-17.4,1.3c5.1-4.8,13.4-1.2,19.7-3.3C766.2,205.9,765.5,206.6,764.7,207.3z" />
	<path fill="#211110" d="M764.7,207.3c0.8-0.7,1.5-1.3,2.3-2c1.9-0.4,3.8-0.7,5.3,1C770.4,208.7,767.3,207.4,764.7,207.3z" />
	<path fill="#B6BCD4" d="M233.4,447.1c-2.4-1.5-4.8-3-7.2-4.5c3-2.4,4.1-6,8.4-6.6c9-2.2,16.9-8,26-9c3.2-3,3.2-3,7.3-3   c-0.7,1.8,0.3,4.7-1.8,5.5c-0.1-0.6-0.2-1.3-0.3-2.4c-1.3,1.7-3.9,2.2-1.9,3.7c-2.6,1.5-4.3,4.7-7.6,4.6c-1.5-0.1-2.4,1-3,2.3   c-0.7,0.1-1.4,0.2-2.1,0.2c0,0.2,0,0.5,0,0.7c0.7,0,1.4,0.1,2.1,0.1c-0.2,0.3-0.4,0.9-0.6,0.9c-2.1-0.1-2.7,2-4.2,2.7   c-1.1-2.9-3.1-0.4-5.1,1c1.5,0.2,2.2,0.3,2.9,0.4c-2,1.1-3.3,3.4-5.9,3.4C239.5,444.3,235.8,449,233.4,447.1z" />
	<path fill="#B6BCD4" d="M341.9,427.2c5,2.1,5,2.1,7.4,4.8c-5.4,6.1-21.1,14.3-26.7,4.9c-1.5,0.8-2.9,1.4-4.2,2.1   c0.1-2.3,0.5-4.6,0.3-6.9c3.2-0.1,2.5-4,3.4-6.2c0.1,1.8,0.3,3.7,0.4,5.8c6.2-6.4,10.6-2.5,17.1-5.5c0.1,0.4,0.3,0.8,0.4,1.1   c-0.9,4.2-13.6,8.6-7.9,11.6c3.7-2.9,8.2-6.8,9-11.5C341.3,427.2,341.6,427.2,341.9,427.2z" />
	<path fill="#B7BCD4" d="M318.8,432.1c0,0.3,0,0.5,0.1,0.8c-2.9,3.4-5.5,6.9-9.9,8.4c-2.1,0.6-2.5,1.5-3.4,3.6   c1.7,0.1,2.8,0.2,3.9,0.3c-2,1.2-3.9,2.3-5.8,3.4c-3.1-0.5-5.4-1.8-7.1-4.7c-1.2-11.3,13.9-12.1,22.1-13   C318.7,431.3,318.7,431.7,318.8,432.1z" />
	<path fill="#181314" d="M403.9,395.5c-13.6-2.4-25.2-11.8-38.9-12.9c4.1-7.4,15.1,3,21.3,3.8C390.1,389,406,390.2,403.9,395.5z" />
	<path fill="#161316" d="M309.4,445.1c-1.1-0.1-2.2-0.2-3.9-0.3c0.9-2.2,1.4-3.1,3.4-3.6c4.5-1.5,7-5.1,9.9-8.4   c-0.1,2-0.3,4.1-0.4,6.1C316,441.9,312.7,443.5,309.4,445.1z" />
	<path fill="#342C31" d="M433.2,395.4c-6.4,0.7-11.6-1.5-17.7,0.2c-2.1,0.5-4.2,0.8-6.8-0.5C416.2,392.8,427.6,390.4,433.2,395.4z" />
	<path fill="#B0B7CE" d="M351.6,442.4c-0.3,0.4-0.7,0.9-1.2,1.6c-9.5-7.5,0.8-9.8,7.7-6.8c0.3,1.8-0.7,1.9-1.7,2   c-1.8-2.1-4.8-0.8-5.6,1.6C351.1,441.3,351.3,441.9,351.6,442.4z" />
	<path fill="#262124" d="M318.8,432.1c-0.1-4.7,1.7-9.5,2.8-10.3C323.5,423.4,321.8,432.4,318.8,432.1z" />
	<path fill="#5B3B40" d="M267.7,463.4c-4.2,0.5-8.3,1.1-12.7,1.7c1.5-4.9,8.8-1.4,12.6-2.4C267.7,462.9,267.7,463.1,267.7,463.4z" />
	<path fill="#614850" d="M355.1,381.6c-2.4,0.2-4.4-0.9-6.4-1.8c4.2-0.1,8.4-1.2,12.3,0.7C359,380.4,357,380.6,355.1,381.6z" />
	<path fill="#23272B" d="M391.3,417c-1.7-0.1-3.3-0.2-5.6-0.4c3-2.9,5.8-2.3,9.3-2c0.1,0.4,0,0.8-0.2,1.1   C393.7,416.2,392.5,416.6,391.3,417z" />
	<path fill="#281C1F" d="M351.6,442.4c-0.2-0.5-0.5-1-0.7-1.6c0.8-2.4,3.8-3.8,5.6-1.6c-1.3,1.2-2.5,2.4-4.1,3.3   C352.1,442.4,351.8,442.3,351.6,442.4z" />
	<path fill="#323237" d="M341.9,427.2c-0.3,0-0.6,0-0.8,0.1c-0.4,0-0.7-0.1-1.1-0.1c-0.1-0.4-0.3-0.8-0.4-1.1c0.5-1.8,1-3.6,3.6-4.4   C342.7,423.8,342.3,425.5,341.9,427.2z" />
	<path fill="#352E33" d="M233.4,447.1c2.4,1.9,6.1-2.9,7,0.1c-1.4,0.6-2.4,1.5-2,3.3C237,449,234.6,448.9,233.4,447.1z" />
	<path fill="#3F2D32" d="M291.4,465.5c2.8-2.5,4.2-2.5,5.1-0.1C293.9,466.1,293.9,466.1,291.4,465.5z" />
	<path fill="#290B0C" d="M282.8,464.3c-1.8,0.3-3.5,2.1-5.7,0.6C279,463.3,279,463.3,282.8,464.3z" />
	<path fill="#695E68" d="M277.6,380.4c2.8-1.1,2.8-1.1,5.8-0.4C282.8,383.4,279.4,381.3,277.6,380.4z" />
	<path fill="#0C0B0C" d="M355.1,381.6c1.9-1,3.9-1.1,6-1.1c0.4,0.3,0.8,0.7,1.6,1.3C359.8,382.9,357.5,381.6,355.1,381.6z" />
	<path fill="#473A3F" d="M381.5,480.2c3,0,4.5,0.8,5.4,3.2C384.4,483.7,383.2,482.6,381.5,480.2z" />
	<path fill="#0C0F10" d="M321.6,419.3c-0.9-1.8-1.9-3.1-0.8-4.7C322.8,414.8,323.6,417.5,321.6,419.3z" />
	<path fill="#635C66" d="M296.5,380.7c0,0.7-0.1,1.4-0.1,2.2c-1,0-2.1-0.1-3.2-0.1C293.5,380.2,295.1,380.6,296.5,380.7z" />
	<path fill="#494B52" d="M368.5,471.8c-1.3-0.5-2.4-1-4.1-1.7c2-1,3.3-1.1,4.6,0.1C368.8,470.6,368.7,471.1,368.5,471.8z" />
	<path fill="#3C3237" d="M374.3,475.6c2.1-0.2,3.1,1,3.9,2.5C376.3,479.2,376.3,479.2,374.3,475.6z" />
	<path fill="#423E45" d="M246.3,444c-0.7-0.1-1.4-0.2-2.9-0.4c2-1.4,4-3.9,5.1-1C247.7,443,247,443.5,246.3,444z" />
	<path fill="#52525A" d="M263.8,431c-2-1.5,0.6-2.1,1.9-3.7c0.2,1.1,0.3,1.7,0.3,2.4C265.3,430.1,264.5,430.6,263.8,431z" />
	<path fill="#3F3338" d="M348.8,411.5c0.6,2.7,0.6,2.7-1.7,2.9C346.6,412.8,347.5,412,348.8,411.5z" />
	<path fill="#38272B" d="M360.8,435.5c1.1-1.2,1.9-2,2.9-2.9C364.4,434.9,363.3,436.4,360.8,435.5z" />
	<path fill="#B6BCD4" d="M394.9,415.7c0.2-0.3,0.2-0.7,0.2-1.1c1.8-0.1,3.6-0.2,5.4-0.3l0.3,0.4   C399.1,416.5,396.9,415.4,394.9,415.7z" />
	<path fill="#575962" d="M366.1,430.7c-1.3-1.1,0.2-2.9,1.4-1.8C368,430.2,367.1,430.5,366.1,430.7z" />
	<path fill="#2C1D20" d="M277.6,380.4c0.8,0.4,1.6,0.8,2.5,1.3c-1.5,0.1-3,0.2-4.5,0.3c0-0.4,0-0.8-0.1-1.3   C276.2,380.6,276.9,380.5,277.6,380.4z" />
	<path fill="#686671" d="M271,421.9c0.6-0.3,1.2-0.6,1.8-1c0.6,1.3-0.6,1.3-1.4,1.7C271.2,422.4,271.1,422.2,271,421.9z" />
	<path fill="#A79BAA" d="M341.5,377.4c1.6-0.1,1.6,0.6,0,0.5C341.5,377.7,341.5,377.6,341.5,377.4z" />
	<path fill="#100F11" d="M345,420.4c-1.2-0.5-1-2.2,0.2-2.2C346.3,419,345.6,419.7,345,420.4z" />
	<path fill="#4E4148" d="M253.1,439c-0.7,0-1.4-0.1-2.1-0.1c0-0.2,0-0.5,0-0.7c0.7-0.1,1.4-0.2,2.1-0.2   C253.2,438.3,253.2,438.6,253.1,439z" />
	<path fill="#B0B7CE" d="M352.3,442.5c0.5-0.3,1-0.7,1.5-1C353.3,441.8,352.8,442.1,352.3,442.5z" />
	<path fill="#686E79" d="M281.1,416.3c-0.1,0.1-0.3,0.2-0.4,0.3c0-0.2,0-0.5,0.1-0.7C280.9,416,281,416.1,281.1,416.3z" />
	<path fill="#EDC9B9" d="M220.6,444.7c4.2,1.8,8.5,3.7,11.5,7.3c-0.8,0.8-1.6,1.6-2.4,2.4c-0.1-0.5-0.2-1.1-0.4-2   c-14.6,6.1-28.4,13.4-44.5,14.1c-1.1-4.6-2.1-8.9-3.2-13.1C194.4,450.1,209.3,451.7,220.6,444.7z" />
	<path fill="#0F0A0A" d="M245.9,462.7c1.6,0,1.5,1.1,1.5,2.2c-12.2,3.4-25.2,4.7-35.4,12.3c-3.5-2.3,0.8-6,2.9-7.5   C223.7,462.5,236.4,466.4,245.9,462.7z" />
	<path fill="#0D0909" d="M141.3,460.9c-4,2.1-4.4-4.6-6.2-6.8c-3.6-7.5-12.4-8.7-17-15.4C129,440.5,144.4,446.9,141.3,460.9z" />
	<path fill="#1E1615" d="M200.4,518.9c-7.6-1.1-14.2-6.1-18.8-12.1c7.8,1.1,12.6,8.3,20.2,10.7C201.3,518,200.8,518.4,200.4,518.9z" />
	<path fill="#463B38" d="M102.1,380.6c7.9,1,12,10.8,16.8,16.6C112.8,395.4,108.2,385.7,102.1,380.6z" />
	<path fill="#221C1B" d="M72.7,404.2c1.4,0.7,2.8,1.3,4.7,2.3c-1.4,1-2.3,1.6-3.1,2.2c-3.8-0.9-11.1-1.4-9.9-7   C67.3,402.6,70,403.4,72.7,404.2z" />
	<path fill="#231F1D" d="M67.2,500c-0.2,1.1-0.3,2.2-0.5,3.8c-5.2-1.4-4.9-7.2-2.4-11.1C65.4,495.3,66.3,497.6,67.2,500z" />
	<path fill="#3C3330" d="M74.7,370.5c-2.2,1.8-2.8,3-3.7,6C68.5,374.2,70.8,366.2,74.7,370.5z" />
	<path fill="#392927" d="M91.8,378.2c-1.5-1.7-3.6-2.9-4.4-5.7c2.9-0.6,4.8,1.9,5.7,4.4C92.8,377.3,92.3,377.7,91.8,378.2z" />
	<path fill="#5C4441" d="M200.4,518.9c0.4-0.5,0.9-0.9,1.3-1.4c2.6,1,5.3,1.9,8.6,3.1C206.1,521.9,203.3,520.2,200.4,518.9z" />
	<path fill="#614643" d="M227.1,522.8c-2.2,0.4-3.5,0.2-8.4-1.6C221.8,521.3,227,518.5,227.1,522.8z" />
	<path fill="#5F504D" d="M226.6,501.3c-0.7-1.1-1.5-2.2-2.6-3.8c0.5-0.5,0.9-1,1.3-1.3c3,1.2,2.3,3.6,3.3,5.1   C227.9,501.2,227.3,501.3,226.6,501.3z" />
	<path fill="#75534F" d="M81.1,370.1c1.5-0.2,2.5,0.4,3.3,2.2c-2.5,0.1-4.7,0.5-6.8-0.9C78.7,370.8,80.4,371.8,81.1,370.1z" />
	<path fill="#281C1B" d="M110.4,435.6c-1.3-1.8-3-3-2.2-5.5c2.4,1.4,3.3,3.2,3.3,5.5C111.1,435.5,110.8,435.5,110.4,435.6z" />
	<path fill="#3C312F" d="M215.5,488.4c0.5-0.5,1-1,1.5-1.4c1.4,0.7,2.5,1.6,3,3.4C217.7,491.5,216.7,489.7,215.5,488.4z" />
	<path fill="#382E2C" d="M48.1,485.2c1.3,1.8,1,3.4-0.1,5.5C45.8,488.7,47.5,486.9,48.1,485.2z" />
	<path fill="#4A4C49" d="M113,437.1c1-1.2,2.1-0.8,3.3-0.2c-0.1,0.7-0.1,1.4-0.2,2.8C114.7,438.5,113.8,437.8,113,437.1z" />
	<path fill="#3A3532" d="M65.1,478.7c1.8,2.2,1.8,2.2,0.3,4.7C64.7,482,64,479.6,65.1,478.7z" />
	<path fill="#8C766F" d="M86,411.2c1.1,0.7,2.2,1.4,3.2,2.1c0,0.5,0,1.1,0,1.6C86.5,414,86.5,414,86,411.2z" />
	<path fill="#57423F" d="M152.9,502.4c-2.8-0.1-3.8-1.3-4.8-3.3C151.1,499,151.1,500.1,152.9,502.4z" />
	<path fill="#200B0B" d="M81.1,370.1c-0.7,1.8-2.4,0.7-3.6,1.3c-0.3-0.4-0.7-0.8-1-1.1C77.7,368.4,79.5,369.8,81.1,370.1z" />
	<path fill="#7F7670" d="M123.6,403.9c0.9,1.8,0.9,1.8,0.6,4.8c-0.9-1.5-1.4-2.5-2-3.5C122.6,404.7,123.1,404.3,123.6,403.9z" />
	<path fill="#AF9890" d="M128.6,422.1c1.3,0.3,1.1,1.5,1.2,2.5C128.1,425.1,127.8,423,128.6,422.1z" />
	<path fill="#413936" d="M65.1,491.8c-0.2-1.5-0.4-2.5,0.5-3.7C67.8,489.1,67.7,489.4,65.1,491.8z" />
	<path fill="#241D1C" d="M123.6,403.9c-0.5,0.4-0.9,0.9-1.4,1.3c-0.3-1-0.6-2-0.8-3C123.3,401.5,123.2,403,123.6,403.9z" />
	<path fill="#6E6964" d="M91.8,378.2c0.5-0.4,0.9-0.9,1.4-1.3c1.1,1,1.7,2.1,0.2,3.7C92.8,379.7,92.3,378.9,91.8,378.2z" />
	<path fill="#484541" d="M228.8,502.1c1.2,1,1.3,2.2,0.6,4c-0.8-0.9-1.5-1.7-2.1-2.5C227.9,503,228.4,502.6,228.8,502.1z" />
	<path fill="#A58E87" d="M66,456c-0.2,0.6-0.4,1.1-0.5,1.7c-0.4-0.2-0.9-0.4-1.3-0.6c0.4-0.5,0.8-1,1.2-1.5   C65.5,455.8,65.8,455.9,66,456z" />
	<path fill="#765E5A" d="M131.1,431.6c-1.9,0.3-1.9,0.3-1.4-1.6C130.4,430.3,130.9,430.8,131.1,431.6z" />
	<path fill="#806E68" d="M78.9,408.4c0.1-0.5,0.1-1,0.2-1.6c1.5-0.2,1.9,0.7,2.1,1.8C80.4,408.6,79.7,408.5,78.9,408.4z" />
	<path fill="#2A2624" d="M64.7,479.1c-1.6-0.8-1.5-1.8-0.3-3.9c0.4,1.7,0.6,2.6,0.7,3.5C64.9,478.8,64.7,478.9,64.7,479.1z" />
	<path fill="#565450" d="M128.5,415.2c-0.3,0.2-0.6,0.3-0.9,0.5c-0.2-0.4-0.3-0.9-0.5-1.3C128,414,128.2,414.5,128.5,415.2z" />
	<path fill="#0D0404" d="M228.8,502.1c-0.5,0.5-1,1-1.5,1.5h-0.1c-0.3-0.7-1.3-1.5-0.8-2.3c0.6,0,1.3,0,1.9-0.1   C228.7,501.5,228.8,501.7,228.8,502.1z" />
	<path fill="#62312F" d="M91.2,419.3c-0.3-1.1-0.4-1.6-0.5-2c0.3,0,0.6,0,0.9,0C91.5,417.7,91.4,418.2,91.2,419.3z" />
	<path fill="#9B8881" d="M69.4,450.9c-0.2,0.1-0.5,0.3-0.7,0.4c-0.1-0.5-0.4-1.1,0.3-1.4C69.1,450.3,69.3,450.6,69.4,450.9z" />
	<path fill="#0F0A0A" d="M244.7,461.5c0.9,0,1.3,0.4,1.3,1.3C245.6,462.4,245.1,462,244.7,461.5z" />
	<path fill="#5F504D" d="M226.6,502.2c0.3,0.5,0.5,0.9,0.8,1.4C227.1,503,226.8,502.7,226.6,502.2z" />
	<path fill="#754F4B" d="M138.5,496.4c0.4-0.4,0.8-0.8,1.2-1.2C139.8,496.1,139.3,496.4,138.5,496.4z" />
	<path fill="#EDC9B9" d="M149.1,354.9c-1.7,0-3.5,0-5.7,0c-0.7,0.4-1.9,1.1-3.3,1.9c-3.4-4.2-4.8-7.9-4.7-13.5   c3.2-3.7,7.1-7.5,11.1-10.9C149,339.4,147.7,347.6,149.1,354.9z" />
	<path fill="#0E0B0B" d="M179.3,369.9c0.6-1.8,1.2-3.6,1.9-5.6c2.8,2.8,2.1,9.8-1.6,11.4c-0.4-0.4-0.8-0.8-1.1-1.2   C178.7,373,179,371.5,179.3,369.9z" />
	<path fill="#39312E" d="M180.9,354.4c2.9,4.7,2.9,4.9,0.2,7.6C179.8,359.7,178.9,357.5,180.9,354.4z" />
	<path fill="#332C2A" d="M133.9,312.8c-1.4,2.6-2.2,5.6-5.2,7.4c0.2-3.4,0.2-3.4,3.8-8.7C133,311.9,133.5,312.3,133.9,312.8z" />
	<path fill="#473C39" d="M181.2,353.8c-2.5-1.3-1.7-3.5-2-5.9C182,350.4,182,350.4,181.2,353.8z" />
	<path fill="#9C847D" d="M102.4,335.3c1.2-1.6,2.5-3.3,4-5.3C106.3,333.1,105.7,334.2,102.4,335.3z" />
	<path fill="#AD9991" d="M176.1,384.2c-0.2-3.3-0.5-6.5,1-9.5C176.8,377.9,178.2,381.5,176.1,384.2z" />
	<path fill="#38302E" d="M178.1,346.1c-1.6-2.7-2.9-4.1-1.9-6.5C178.5,341,178.9,342.7,178.1,346.1z" />
	<path fill="#AFA098" d="M138.3,299.7c-0.3,1.4-0.7,2.8-1.2,4.7c-1-3.3-1-3.3-0.1-5.9C137.5,298.9,137.9,299.3,138.3,299.7z" />
	<path fill="#87726D" d="M133.9,312.8c-0.4-0.4-0.9-0.9-1.3-1.3c0.6-1.3,1-2.9,3.1-3.3C135.4,310,135.1,311.4,133.9,312.8z" />
	<path fill="#8C7771" d="M156.3,302.3c-0.4-0.4-0.9-0.8-1.3-1.2c0.5-1.3,1.3-2.3,3.2-2.3C158.5,300.5,157.6,301.5,156.3,302.3z" />
	<path fill="#AD9991" d="M179.3,369.9c-0.3,1.5-0.5,3.1-0.8,4.6c-0.5,0-0.9,0.1-1.4,0.1c0.1-1.6,0.1-3.2,0.2-4.7   C177.9,369.9,178.6,369.9,179.3,369.9z" />
	<path fill="#2A2725" d="M142.6,289.3c-1.2,1.9-1.8,2.8-2.4,3.8C139.2,291.1,139.5,290.2,142.6,289.3z" />
	<path fill="#6D5D59" d="M99.9,344.3c-0.3-0.3-0.6-0.7-1-1c0.4-0.8,0.8-1.6,1.3-2.3c0.3,0.1,0.5,0.2,0.8,0.3c-0.1,1-0.2,2-0.3,3   C100.4,344.2,100.2,344.3,99.9,344.3z" />
	<path fill="#4F4F4C" d="M138.3,299.7c-0.4-0.4-0.9-0.7-1.3-1.1C138.6,295.6,139.6,298,138.3,299.7z" />
	<path fill="#AD9991" d="M178.5,374.6c0.4,0.4,0.8,0.8,1.1,1.2C178.8,375.8,178.3,375.5,178.5,374.6z" />
	<path fill="#4A64C4" d="M505.7,448.8c-2.5-1.8-4.4-4.6-7.3-5.7c-1.4,1.6,0.8,2.7,0.7,4.1c-2.4-0.7-4.5-1.9-6.2-4.6   c0-1.1,0-2.6,0-4.1c10.9-1.7,23.3,3.9,33.1,8.6c-0.4,0.7-0.8,1.5-1.5,2.6c-5.8-0.6-11.8-1.3-18.1-2   C506.4,447.9,506.1,448.3,505.7,448.8z" />
	<path fill="#0E1121" d="M497.9,495.3c4.6-3.8,3.6-7.7,1.1-12.2c1.5-1.8,2.6,0.8,3.3,1.8c3.4,5.4,2.6,8.4-3.1,11.8   C498.7,496.3,498.3,495.8,497.9,495.3z" />
	<path fill="#222B4F" d="M485.1,464.6c-0.9-6,0.6-11.6,2.3-17.2c0.4,0.4,0.7,0.7,1.1,1.1C487.4,453.9,488.5,460.1,485.1,464.6z" />
	<path fill="#10101E" d="M515,482.2c-5.8,1.2-7.5-3.2-10.8-8.7c0.4-0.5,0.8-1,1.2-1.5C509,474.4,509.1,479.8,515,482.2z" />
	<path fill="#3B4A85" d="M488.5,448.5c-0.4-0.4-0.7-0.7-1.1-1.1c0.4-4,2.7-7.6,2.4-11.7c-0.1-0.7,1.4-1.6,2.2-2.4h-0.1   c0,1.3,0,2.5,0.1,3.8C490.4,440,490.8,444.9,488.5,448.5z" />
	<path fill="#3B4E93" d="M485.1,464.6c0.7-1.1,1.4-2.2,2-3.4c0.2,3.8,0.2,7.6,2.6,10.6C486.6,473.4,486.4,466.4,485.1,464.6z" />
	<path fill="#2F3D72" d="M497.9,495.3c0.4,0.5,0.9,0.9,1.3,1.4c-1.3,1.8-3.2,2.4-5.3,3C494.7,497.7,496.4,496.6,497.9,495.3z" />
	<path fill="#191628" d="M484.9,428.5c-0.3-0.7-0.7-1.3-1-2c1.7-0.9,3.7,1,2.1,2.4C485.7,428.7,485.3,428.5,484.9,428.5z" />
	<path fill="#3E4C8C" d="M490.8,432c0.9-2.4,2.8-0.1,3.5,1.1c-0.8,0-1.6,0-2.3,0h0.1C491.6,432.9,491.2,432.4,490.8,432z" />
	<path fill="#4A64C4" d="M490.9,440.3c-0.2-1.1-0.1-2.1,1.2-2.6C492.6,438.7,491.3,439.5,490.9,440.3z" />
	<path fill="#DCC2B4" d="M127.6,362.9c0.6-2.2,1-4.4-0.7-6.8c11.1-2.5,12.1,3.6,13,12.6c-4.2-1.6-4.5-7.8-6.9-11.3c-1,0-2.1,0-3.5,0   C129.3,359.7,129.8,361.7,127.6,362.9z" />
	<path fill="#212951" d="M510.6,387.6c0.4-0.3,0.7-0.7,1.1-1c2.4,1.9,4.7,3.9,7.1,5.8c-0.4,0.4-0.7,0.8-1.1,1.1   C515.4,391.5,513,389.5,510.6,387.6z" />
	<path fill="#334280" d="M517.7,393.5c0.4-0.4,0.7-0.8,1.1-1.1c1.9,1.6,3.8,3.2,6.1,5.2c-2.7,0.9-3.4-1.5-5-1.7   C519.2,395,518.4,394.2,517.7,393.5z" />
	<path fill="#2E282C" d="M400.5,414.3c-3.2,0.3-6.5,0.4-9.6,0.1c6.6,0.3,16.6-8.1,21.2-4C407.6,411.8,404,413.1,400.5,414.3z" />
	<path fill="#292320" d="M171.4,395.8c0.4,0.5,0.8,0.9,1.2,1.4c0.1,2.3-0.7,4.2-2.4,5.8c-0.5-0.5-0.9-0.9-1.4-1.4   C169.8,399.7,170.6,397.8,171.4,395.8z" />
	<path fill="#68554E" d="M168.9,401.6c0.5,0.5,0.9,0.9,1.4,1.4c-0.9,1-1.7,2-3,3.5C166.8,403.9,167.9,402.8,168.9,401.6z" />
	<path fill="#6E6560" d="M184,408.6c0.4,0,0.9,0,1.3,0c0,1.6-0.8,2.8-1.5,4.2C183.1,410.9,183.1,410.9,184,408.6z" />
	<path fill="#EBC8B8" d="M179.6,408.6c-0.1-1.9-0.2-3.8-0.4-5.7C181.1,404.7,181.2,406,179.6,408.6z" />
	<path fill="#131931" d="M461.5,440.3c-0.4-0.4-0.8-0.8-1.2-1.2C460.7,439.5,461.1,439.9,461.5,440.3z" />
	<path fill="#4A64C4" d="M460.3,427.3c-0.5-0.3-0.9-0.7-1.4-1C459.5,426.6,460,427,460.3,427.3z" />
	<path fill="#1F305F" d="M453.1,418.2c0.5,0.3,1,0.6,1.4,0.9C454.1,418.8,453.6,418.5,453.1,418.2z" />
	<path fill="#0B060C" d="M453.5,412.4c2.3,0.7,4.6,1.5,6.9,2.2C459,417.1,450.3,415.3,453.5,412.4z" />
	<path fill="#D2DEDE" d="M132.3,346.6c0.4,2.4,0.6,2.9,0.2,4.8c-2,0.8-3.7,1.1-4.9-1.5C129.2,348.7,130.5,347.9,132.3,346.6z" />
	<path fill="#6D5D59" d="M98.8,346.8c0.2-0.4,0.5-0.9,0.7-1.3C99.3,345.9,99,346.4,98.8,346.8z" />
	<path fill="#93706A" d="M630.8,183.2c0.8-0.1,1.5-0.2,2.3-0.3c0,0.3,0.1,0.5,0.1,0.8c-0.8,0.1-1.5,0.2-2.3,0.3   C630.8,183.8,630.8,183.5,630.8,183.2z" />
	<path fill="#413733" d="M542,219c-0.4-0.9-0.8-1.8-1.3-2.7c0.2-2.2-0.2-4.7,1.8-6.5C543.5,212.4,543.5,212.4,542,219z" />
	<path fill="#070910" d="M482.4,399.6c0.6-5.5,5.2-6.5,4.8-0.3c-1.1,2.6-1.1,2.6-0.4,6.1c-0.9,0.5-1.6,0.8-2.6,1.3   c-3,5.6-3.8,11.9-5.9,18.7C472.2,416.9,483.7,408,482.4,399.6z" />
	<path fill="#1C1D33" d="M504.6,424.1c-0.8,0.4-1.5,0.7-2.3,1.1c-4.4-0.3-8.5-2.7-12.8-1.6c-0.6,0.3-2-0.7-2.9-1.1   C488.7,417.1,499.9,424.1,504.6,424.1z" />
	<path fill="#5876E8" d="M491.9,433.2c2.3-0.1,5.1-0.4,5.9,2.3c-2,0.3-4.1,0.2-5.8,1.5C492,435.8,491.9,434.5,491.9,433.2z" />
	<path fill="#4860BA" d="M482.4,399.6c0.1,2,1,4.1-1,5.7c0-2,0-4,0-6C481.7,399.3,482.1,399.4,482.4,399.6z" />
	<path fill="#4860BA" d="M477.9,392.4c0.4,0.7,0.9,1.5,1.3,2.2C478,394.3,477.9,393.3,477.9,392.4z" />
	<path fill="#151C31" d="M544.7,481.1c-0.4,0.8-0.8,1.6-1.1,2.4c0-8.6-0.8-17.2,1-25.6c1.2,0.8,2.9,0.8,3.5,2.5   c-0.6,0.1-1.1,0.2-1.6,0.3C544.6,467.3,544.7,474.2,544.7,481.1z" />
	<path fill="#1F1E22" d="M337.7,433.4c-1.7,2.1-3.2,4.4-5.6,5.6c-5-2.5,2.2-5.4,4.2-7C336.8,432.5,337.2,432.9,337.7,433.4z" />
	<path fill="#666773" d="M337.7,433.4c-0.5-0.5-1-0.9-1.4-1.4c1.2-1.6,2.5-3.2,3.7-4.7c0.4,0,0.7,0.1,1.1,0.1   C340.8,429.9,339.9,432,337.7,433.4z" />
</g>
</svg>