<?xml version='1.0' encoding='utf-8'?>
<svg xmlns="http://www.w3.org/2000/svg" version="1.2" baseProfile="tiny" id="Layer_1" x="0px" y="0px" viewBox="0 0 900 600" overflow="visible" xml:space="preserve">
<g id="a_00000022559615594463901520000001208296295703776434_">
	<path fill="#373A46" d="M366.8,59.7c-0.5-0.5-1.1-1-1.6-1.6c0.3-0.2,0.5-0.5,0.9-0.8c-10.8-12.1-8.1-32.3-1.8-44.8   c0.2,0.2,0.3,0.4,0.5,0.6c21.4-27.7,38.1,6.5,30.7,28.3c-4.3,9.8-13.1,24.6-25.8,18.6C368.8,59.6,367.7,58.4,366.8,59.7z    M365.2,17.4c-0.8,0.3-0.8,0.9-0.8,1.6c-0.8,0.3-0.8,0.9-0.8,1.6c-0.1,0.2-0.2,0.4-0.3,0.5c0.1-0.2,0.2-0.4,0.3-0.5   c0.8-0.2,0.8-0.9,0.8-1.6C365.2,18.7,365.2,18,365.2,17.4c0.5-0.3,1.1-0.6,0.2-1.3C365.3,16.6,365.3,17,365.2,17.4z M370.8,23   c-0.2-0.1-0.4-0.2-0.5-0.3C370.4,22.7,370.6,22.8,370.8,23c-4,2.4-3.2,7.4-3.2,11.4c1.5,2,3.1,3.7,5.8,3.8c0.1-0.6,0.3-1,0.4-1.5   c0.7,0.2,1.3,0.4,2,0.7c1.6-1,0.5-2.7,1.8-3.9C381,28.3,377.8,17.4,370.8,23z M382,56.5c-5.1,2.9-8.7,2.6-14.1,0.1   c9.9,9.4,21.5-3.4,24.6-13c8.7-19.8-6.9-59.5-26.5-28.9C393.9-17.2,402.9,43.1,382,56.5z M361.1,33.1c-0.7,1-1,2,0,3.4   C361.2,34.9,361.3,34.5,361.1,33.1z M367.1,56.1l0.2,0.1l0-0.2L367.1,56.1z" />
	<path fill="#010101" d="M447.5,118c1.9-0.9,3.7-2,5-3.6c1.3,0.1,0.8,1.2,1.1,1.8c1.7,0.6,1.7-1.3,2.7-1.8c3.7-0.4,7.6-0.6,11.4,0.1   c3.3,0,5.6-2.8,9.1-0.5c0.8-0.7,1.7-1.5,2.7-2.4c1.1,1.7,0.4,3.4,0.7,5.1c1.5-0.2,2.8-1.9,4.3-0.6c0.3,1.5-1.4,1.4-1.7,2.7   c1,0.1,2,0.3,3.2,0.5c-0.6,1.5-1.1,2.7-1.7,4c-1.9,1.2-3.4,2.9-5.4,3.8c0.2,0.2,0.3,0.3,0.5,0.5c0.1,1.9,0.6,4-0.7,5.6   c-0.4-1.6,0.8-3.6-0.9-4.7c-0.2-0.8-0.4-0.7-0.8-0.1c-2.1,1-4.2,0.8-6.3,0c0.4-0.3,0.8-0.7,1.2-1c-0.1-0.7-0.1-1.3-0.2-2   c-0.8,0.3-1.4,0.5-2.1,0.7c-0.9-0.6-1.9-1.2-2.7-1.7c-0.2-1,0.3-1.3,0.6-2.2c1.7-0.1,1.7-0.1,2.3-1.6c-1,0.7-1.7,1.1-2.3,1.6   c-1.8,0.1-2.8,1.4-4.2,2.8c2.3,0.9,4.3,1.6,6,2.3c-0.4,0.5-0.7,0.8-1,1.2c-5.1-2.5-3.2,2.6-11.8-2.1c-0.5,0.6-1,1.2-1.7,1.9   c1.5,0.2,2.6,0.4,3.6,0.6c0.3,1.1,0.5,1.9,0.7,2.8c-1.3,1.2-2.8,1.6-4.5,1.7c-0.4-0.9-0.8-1.7-2.2-1.3c-0.3,1.3-0.7,2.6-1.1,4.1   c1.5-0.5,1.7,0.2,1.7,1.1l0,0c-0.8,0.2-0.9,0.9-0.8,1.6c-0.2,0.3-0.5,0.6-0.7,0.9c0,0,0,0,0,0c-0.5-0.4-1-0.8-1.7-1.4   c0.3,3.8-0.8,6.6-1.6,10.1c-0.9,0.3-0.8,1-0.7,1.7l0,0c-0.3,0.3-0.5,0.6-0.8,0.8c-1.6-0.8,0.3-2-0.3-2.9c-0.4,0.1-0.9,0.3-1.3,0.4   c0.1-1.9-0.4-3.2-1.6-4.8c-1.9-1.9-3.4,0.7-1.6,1.6c0.4,0.6,1,1.2,1.6,1.6c-0.5,1.2-1.6,0.3-2.5,0l0,0c-0.3-0.3-0.5-0.5-0.8-0.8   l0,0c0-0.4-0.1-0.9-0.2-1.9c-1.2,1.9-2.8,3.1-1.2,5c1.3,1.5,1.4,3.6,3.2,4.8c1,0.3,3,0.4,1.5,1.7c-1.5,1.1-1,4.6-0.1,6.4   c-0.3,3.9-0.6,7.9-1,12c-7.2,8.2,7.9,11.4,11.4,16.7l0.1-0.1c-0.7,0-1.4,0-2.5,0c8,7.5,11.1,17.4,20,23.9c0.1-1.4,0.2-2.3,0.3-3.4   c0.4,0.4,0.7,0.7,1.1,1.1c2.7-4,0.7-8.5,2.5-12.8c1.3,5.9,1.8,12-2.3,16.7c-1.1,0-2.1,0-3.2,0c-10.9-9-16.6-23-28.1-31.8   c-0.3-1.1-0.9-1.9-2.2-2.5c4.8,13.4,2.7,23.8-0.9,36.5c-0.8,0.6-1.5,1.2-2.3,1.8c-0.9-0.2-0.7-1-0.9-1.7c0.7-1.4-0.7-2.5-0.7-3.9   c0.5,0.3,0.9,0.5,1.2,0.7c6.1-14,5.4-36.1-10.2-43.5c-0.7-12.6-5.5-25.2-7.9-37.4c-2.1-1.9-5.7-5.5-3-7.7   c16.9,17.1,4.2,41,23.3,49.4c6.3-10.7-1.8-18.3-1.2-28.7c-4.6-6.7-2.4-24.3,8.8-21c0-0.6,0.1-1.2,0.1-1.6c-1-0.7-1.9,0.4-2.8-0.5   c-0.6-0.6-1.6-0.8-2.4-1.2c0.4-1.2,0.8-2.4,1.2-3.7l0,0c0.5-0.4,0.9-0.8,1.4-1.1c0.4,0.5,0.8,1.1,1.2,1.7   C445.5,119.3,446.5,118.6,447.5,118z M448.9,137.6c-0.1-0.7-0.2-1.3-0.3-1.9c0-0.5,1-1.2-0.3-1.3c-0.6,0.7-1.2,1.4-1.7,2   c-2.2-0.6-1.8-2.4-3.6,0.4c-0.3-0.6-0.5-1.2-0.8-1.8c-1.8,1.4-1.2,2.8-0.8,4.4c1-0.5,2-1.3,2.4-1.1c1.2,0.6,1.6-0.8,2.5-0.7   c0.2,0.6,0.5,1.1,0.9,2.1C447.9,138.8,448.4,138.2,448.9,137.6z M463.1,118.1c-0.5,0.7-0.5,1.3-0.2,2.1c1.4,0.1,2-0.8,2.6-2.1   C464.7,118.1,464,118.1,463.1,118.1z M481.2,122.6c2.1-0.7,2.7-1.3,2.3-2.2c-0.7,0-1.4,0.1-2.4,0.2   C481.1,121.3,481.2,121.9,481.2,122.6z M449.3,126.8c2.6-0.5,2.9-0.8,3.5-3.3C451.4,124.8,450.4,125.8,449.3,126.8z M451.5,118.8   c-0.9,0.4-1.9,0.7-3.4,1.4C450.7,120.2,450.7,120.2,451.5,118.8z M462.2,124.8c0.5-0.2,0.1-0.6,0-0.9   C461.7,124.1,462.1,124.4,462.2,124.8z" />
	<path fill="#FBDFD3" d="M462.7,128.4c5.1-0.9,10.1,1.1,15,0c1.3,2.9-0.3,6.6,2.2,8.9c0,0.7,0.1,1.4,0.1,2.2   c-0.2,0.3-0.4,0.6-0.6,0.9c-4.5,1.4-7.9,3.8-6.3,9.1c0.6-1.6,1-2.6,1.5-3.6c2,0.6,3.8,0,5.5-0.9c0,0.6,0.1,1.2,0.1,1.8   c-1.5,0.5-1.1,1.9-1,2.9c-0.7,8.5-2.7,17-5.3,25l0-0.1c-4.1,2-8.7-0.2-13,1.3c-2-0.7-4.2-0.7-5.4-2.9c0.2-0.4,0.5-0.7,0.8-1.1   c-2.6-2.1-4.9-4.1-7.8-5.4c-2-3.2-3-6.3-3.2-10.2c-0.4,0.3-0.7,0.5-1,0.7c-0.9-0.2-0.7-1-0.8-1.6c1.5-1.3-0.6-1.4-1.5-1.7   c0-0.4,0-0.8,0-1.2c0.5-0.3,1.1-0.6,1.5-0.8c0.5-1.5,0.1-3.1,1.5-4.1c-0.1,0.2,0,0.4,0.2,0.6c0.2,1.1-0.1,2.3,1.3,3.8   c0.2-1,0.4-1.5,1.2-2.1l0,0c1.9-2.9,1.1-7.6,4-10.3c0,0,0,0,0,0c0.6-0.7,1.1-1.6,1.5-2.5c0,0,0,0,0,0c0.5-1.1,1.1-2.1,1.6-3.2   c1.4,0,2.8,0,4.3,0C460,131.7,461.6,130.3,462.7,128.4z M468.2,166.7c-0.2,0.3-0.5,0.6-0.7,1c0.1,0.4,0.1,0.7,0.2,1.2   c2,0.6,4,0.4,5.9-0.2c0.1-0.5,0.1-0.9,0.1-1.3c-0.8-0.8-1.7-1.5-2.5-2.3c1.4,0,2.9,0.6,4.1-0.7c0.4-1.4-0.5-1.6-1.5-1.5   c-3.2,0.5-6.7-0.2-9.5,1.2c0.2,0.4,0.5,0.8,0.7,1.2C466.1,165.6,467.2,166.1,468.2,166.7L468.2,166.7z M462.6,142.7   c0,0.2,0,0.5,0,0.7c-1.4,0.7-4.7,0-4.4,2.3c2.4,0,4.9,0,7.1,0c1.5-1,2.7-1.7,3.9-2.5c-0.3-4.2-12.6-3.8-12.3-0.2   c1-0.4,2.1-0.8,3.2-1.2C460.9,142.1,461.7,142.4,462.6,142.7z M474.6,156.5c-4.2-0.2-4.2-0.2-4.6,2.1c1.6-0.3,3.2-0.6,4.7-0.9   C474.7,157.2,474.6,157,474.6,156.5z" />
	<path fill="#020202" d="M404.2,345.6c0.1-0.4,0.2-0.8,0.3-1.1c0.2,0.1,0.4,0.2,0.7,0.1l-0.1,0c-0.9,25.8-3.5,51.4-4.4,77.2   c17.6,0.8,35.6,3.2,52.9,3.7c5-15.3,6.6-31.7,14.5-46.1c-2.1,16.4-9.5,29.9-12.2,46.2c12.5,2.2,24.3-0.8,37-1.7   c-5.1-34.8,4.6-74.6-10.5-107.2c0.3-0.3,0.7-0.7,1-1c15.7,26.1,7.3,74.8,11.7,105.4c0.6,0.7,1.1,1.2,1.6,1.7   c-1.5,2.3-1.5,2.3-6.8,3.9c-0.8,4.8-2.4,9.8-3.4,14.3c-1.2,1.1-1.2,1.1-0.1,2.4c0,0.8,0,1.6,0.1,2.4c-1.7,1.1-0.2,2.8-0.8,4   c-3.4-7.1,1.6-15.7,1.1-22.7c-12.3,1.8-23.8,2.6-36.2,1.1c0,4.2,2.3,7.4,3.6,10c-0.5,5.2,2.5,9,3.8,13.8c-5,10.4-7.6,23.8-6.4,35.8   c6.5,12.4,3.2,26.9,2.3,40.2c-2.4-9.2-0.2-20.4-1-30.2c-6.9-14.7-4.6-31.7,2.6-46.3c-3.9-7.4-5-16-8.7-23.7   c-1.5-0.2-2.9-0.4-4.5-0.5c-1.1,4.2-1.2,8.9-5,11.7c-0.9-4.1,1.9-7.7,1.9-11.7c-10.2-3-22.3-0.8-33-1.8c1,7.9,2,16.5-2.5,23.6   c-0.3-0.3-0.6-0.7-1-1c1.8-7.6,1.6-15.2,0.7-22.9c-1.3-0.3-2.6-0.6-4.1-0.9c-0.8-25.1,2.6-51.3,4.6-76.6   C404.7,347.2,404.4,346.4,404.2,345.6z" />
	<path fill="#030202" d="M422.8,472.6c-0.2,28.5-17.3,55.2-16.4,84.2c1,0.4,2,0.9,3.4,1.5c9.3,36.2,35.2,17.5,28,39.5   c-15.7,4.4-33.5,1.7-49-3.1c-4.1,0.8-9.8,0.2-13.6-1.8c-0.8-6.2,4.3-10.5,4.4-16.3c0.5-6,1.3-16.2,8-18.1   c5-38.4-12.9-68.2,12.1-104.4c1.3,0.5,0.5,1.7,0.9,2.5c-23,36.1-5.4,63.9-10.5,102.2c2.4,0.3,4.4,0.6,6.5,1.4c2-2.5,4.2-1.8,6.7-3   c1.7-28.5,14.2-54.8,17.1-82.6c-0.1-0.2-0.1-0.4,0.1-0.6c1.2-1.1,0.7-2.6,0.8-4l0,0c0.8-0.2,0.9-0.8,0.9-1.5l0-0.1   c1.4,0.1,1.2-0.7,1.5-1.6c1.2,0.5,0.6,1.6,0.8,2.4l0,0c-0.9,0.2-0.9,0.9-0.8,1.6l0,0C422.6,471,422.7,471.8,422.8,472.6z    M393.9,563.2c0.5-0.4,1-0.8,1.7-1.2c-1.2-0.6-1.9-0.4-2.6,0.3c-1.8,0-3.5-0.1-5.5-0.1c-0.1,1.8,0.1,3.2,0.4,5   C390.1,565.7,392,564.5,393.9,563.2z M414.6,573.8c-0.3-0.2-0.7-0.4-1.2-0.7c-3.6,1.1-7.1,2.3-11,2.7c-0.5-0.6-1.1-0.7-1-1.8   c2.7-2.8,6.9-1.6,10.3-3.2c-0.4-0.7-0.7-1.3-1.1-2c-4.9,0-8.8,2.4-12.8,4.4c-0.5-0.3-0.9-0.6-1.2-0.8c1.2-5.6,9.4-4,13.2-6.2   c-0.6-2.3-1.1-4.5-1.6-6.8c-2.9-1.2-5.3,0.1-8.4,0.8c-1.2,2.3-2.9,4.4-5.3,5.9c-2.4-0.6-3.6,0.9-4.7,2.6c-5.2,1.9-5-1.9-4.9-6   c-4.8,5.6-1.4,14-5.2,20.2c-1,2.7-3,5.8-1.9,8.7c19.1,1.9,38.1,7.5,57.8,4.8c0.8-4.8,1.8-8.9-4.1-9.7c-4.3-0.7-7.4-3.9-11.6-4.5   c-0.1-0.4-0.1-0.8-0.2-1.3c-2.2-0.5-4.4,2-6.6,0.4c-0.2-2.2,2.9-1.4,3.9-2.7C417.1,576.7,416.2,574.9,414.6,573.8z" />
	<path fill="#030202" d="M452.9,522.2c0.4,1.9-0.8,4.7,0.9,6c-0.2,8.4-0.6,16.6-0.5,25.1c1.6,0.4,2.7,0.6,4.2,1.1   c0.6-3.2,0.9-4.6,1.5-8c1.5,3.2,0.9,5.8,0.5,8.4c2,1,3.9,0.8,5.8,0.7c1.3-1.8,2.4-3.4,3.6-5c1.5-30.5,10.7-62.4,12.8-93.3   c4.1,29.8-9.5,60.3-10.9,90.2c7,5.6,12.2,13.2,16.7,20.7c8,3.5,14.3,9.3,23.3,10.2c3.5,3.4,2.5,8.7-0.7,12   c-9.5,2.1-20.1-1-29.9-1.5c-4.2,0.1-6.3-5.6-10.8-4.6c-3,7-22.6,3.2-28-0.5c-0.2-0.7-0.5-1.6-0.8-2.7c4-6.5,3.9-14.5,5.8-21.8   c0.9-0.5,1.1-1.3,1-2.2c0,0,0,0,0,0c0.3-0.5,0.5-1.1,0.8-1.6c0,0,0,0,0,0c0.7-0.4,0.8-1,0.7-1.7   C453.8,544.5,450.5,532.4,452.9,522.2z M460.9,557.6c-2.5-0.3-5-0.6-7.4-0.9c-0.7,4.7,0.4,5.9,5.6,5.7c1.4-1.5,2.9-3.1,4.5-4.7   c0.1-0.2,0.1-0.5,0.2-0.7C462.6,556.8,461.7,556.9,460.9,557.6z M466.6,583.3c6.6-3.4,9.8-0.2,15.8,3.3c7.1-0.6,32.9,6.8,27.5-7.3   c-5.6,0.2-11.4-2-16-5.3c-0.6,0.3-1,0.6-1.6,0.9c-1.2-0.5-2.6-1-3.8-1.5c-0.8-1.2-1.5-2.3-2-3c-1.3-0.1-2.2-0.1-3.1-0.2   c0.2-1.1,0.4-1.8,0.5-2.7c-0.6-0.8-1.3-1.6-1.9-2.3c-3.5,0.7-3.5,0.7-4.7-0.6c0.8-0.8,1.7-1.5,2.5-2.3c-1.2-2.9-3.3-5.2-4.8-7.9   c-1.2-0.5-2.5-0.9-3.9-1.4c-5.4,8-18.1,20.2-20.6,3.6c-4.7,7.5-3.1,16.6-6.9,24.4c8.5,3.9,14.4,4.9,22.2,3.7   C466,584.2,466.3,583.7,466.6,583.3z" />
	<path fill="#040303" d="M483.5,315.8c-0.3,0.3-0.7,0.7-1,1c-0.4-0.5-0.8-1-1.1-1.3c-1.2,0-2.2,0-3.2,0c-0.2-0.5-0.4-1-0.5-1.5   c-12.6,2.8-25.6-1.1-38.2-5.5c-0.7-1.2-2.1-0.3-3.2-0.7l0,0c-0.5-1.4-2.1-0.6-3.2-0.8c-1.3-1.4-3.1-0.2-4.7,0   c-0.8-2-1.1-2.1-2.8-0.4c-0.4-1.8-6.1-1.8-3.6,0.5c4.4,1.6-0.3,2.1-2.2,1.4c-1-1.3-5.4-1.3-4.9,0.9l0,0c-0.3,0.3-0.5,0.6-0.8,0.9   l0,0c-0.3,0.3-0.6,0.5-0.8,0.8c0,0,0,0,0,0c-0.3,0.3-0.6,0.5-0.8,0.8l0,0c-0.9-0.3-0.8-1.1-1-1.8l0,0c0.9-0.1,0.9-0.8,1-1.4   c0.5-0.6,1-1.2,1.5-1.8l0,0c2.3-0.5,1.5-2.7,1.4-4.5c0.9-0.1,1.5-0.2,2.3-0.3c-0.1-6.2-1.1-14.3,2.9-19.1   c0.9,5.9-1.4,13.6,0.7,19.8c19.1-0.4,37.1,14.5,56.1,7.3c0.8-21.3,10-41.8,10.8-63.3c-1.9-7.6,7.2-11.4,6.6-18.9   c-0.8-7,0.3-14.5-4.9-19.8c0.1-0.2,0.1-0.5,0-0.7c0.5,0.2,0.9,0.3,1.4,0.5c0.7-9.4-8.8-16.7-16.7-18.8c-0.1-1.7-1.7-2.2-3-2.7   c0,1.3-1.4,0.1-1.7,1.1c0.1,1.6,0.5,3.9-1.6,4.7c-0.2-4.7-0.3-9.4-0.5-14.1c-2.7-0.5-4.3,0.4-6.3-2c3.7,0,6.8,0,9.8,0   c0.2,0.2,0.4,0.5,0.7,0.7c-0.4,0.3-0.8,0.6-1.3,1c0,1.3,0,2.6,0,4.3c5.8,7,18.6,8.3,21.1,17.7c3.2,11.9,9.6,24.7,2.3,36.6   c3.6,7.1,3.9,16.1,2.2,23.6c-2.6-6.8,0-14.3-2.9-21c-6.4,3.4-0.5,11.8-3.4,17.4c-0.9,10.3-7.3,20.4-4.9,30.6   C479.3,294.9,479.2,307,483.5,315.8z M479.9,311.6c-1.6,0.6-1.3,1.5-0.7,2.6c0.4,0,0.9-0.1,1.5-0.1   C480.4,313.2,480.1,312.6,479.9,311.6z" />
	<path fill="#040303" d="M420.4,283.1c-1.1,0.4-0.8,1.8-1.8,2.4c-0.7-9.8-5.1-19.3-5.4-29.2c-4.6-18.6-15.1-34.5-11.3-54.8   c-12.3-17-8.9-37.6-9.8-57.2c-4.3-4.2-0.8-10.1-2.6-15.1c-0.9-3.5-2.6-8.3-0.5-11.3c1.7,7.1,5.2,13.9,2.9,21.3   c0.5,0.3,1.1,0.7,1.8,1.1c4.4,19.1-3.8,42.7,10.4,58.9c-0.1,11.1-0.7,22.7,3,33.2c4.8,2.7,10.2,3.7,14.2-0.2c0.3,0.6,0.6,1,1,1.7   c5.9-1.4,7.5-6.2,10.7-10.5c0.3,0.3,0.5,0.5,0.8,0.8c-1.7,12.2-16.2,14.4-25.4,11.8C417.4,249.8,415.8,267.4,420.4,283.1z" />
	<path fill="#050404" d="M414.8,126.7c-1.3,0.5-0.8,1.6-0.9,2.4c1.9-21.4-25.7-79.9,3.1-87.9c0.3-3,2-7-1.5-8.7   c-0.5-2-2.7-3.6-4.4-3.7c-0.1,0.4-0.3,0.9-0.4,1.2c0.7,1.2,1.8,1.6,2.9,2c1.2,1.8,0.1,3.9-0.4,6.1c-6.4-3.8-12.4,8.4-11.2-5.6   c0.6,0.4,1.1,0.9,1.7,1.3c0.1,0,0.4,0,0.6,0c0,0.3,0,0.6,0,0.9c-0.5,0.2-0.9,0.3-1.9,0.7c2.7,2,5.9-0.1,8.9-0.1   c0-2-0.4-2.6-1.7-2.7c-0.3,0.4-0.7,1-1.1,1.6c-0.5-0.5-0.8-0.7-1.1-0.9c1.7-2.8,0.2-4.9-1.6-7.1c2-0.7,2.5,0.9,3.8,1.8   c0.6-0.4,1.1-0.8,1.8-1.2c1.3,1,2.5,2,4.2,1.8c4.9,1.4,4.1,9.7,2,14.1c-2.4,3.2-9.4,3.6-10.7,8.7c1.6,3.9-1.3,7.4-0.1,11.5   c1.5,0.8,3,1.6,4.5,2.4c0,0.3-0.1,0.6-0.1,0.9c-1.5-0.4-3-0.9-4.6-1.4C405.1,86.3,418.3,105.1,414.8,126.7z" />
	<path fill="#080707" d="M389.2,117.9c-1.3,0.6-0.6,1.8-0.9,2.8c-6.1-19.5,0.6-40.7,0.1-60.2c1.1-0.8,2.1-1.6,3.2-2.5   c3.3,6.4-4.6,15.6-1.1,22.1C388.4,92.7,387.6,105.3,389.2,117.9z" />
	<path fill="#191416" d="M405.9,26.3c0.3,0.4,0.6,0.8,0.8,1.2c-2,0.9-0.5,4.1-0.8,5.8c-0.5,0.5-1.1,1-1.6,1.5c0-0.3,0-0.6,0-0.9   c0.5-0.7,0.6-1.4,0-2.2c-0.3-2.1,1-6.2-2.3-5.7c0-0.8,0-1.6,0-2.3c0.3,0,0.6,0,0.8,0c0.5,0.4,1,0.8,1.6,1.3   c3.9-12.4,17.1-22.6,28.7-12.4c-1.2,0.7-1.8-0.2-3.2-0.7c1.6,3.8,5.9,6.6,5.7,11c-0.3,0-0.6,0-0.8,0   C428.2,2.9,411.1,9.4,405.9,26.3z" />
	<path fill="#1B1716" d="M484.1,288c0.3-0.4,0.7-0.7,1-1.1c4.1,16.5,15.6,30.2,19.1,46.5c-1.4,0.4-0.3,1.7-0.9,2.4   c-2.8-7.1-5.9-14.8-8.3-22.4C488,306.9,487.4,296.5,484.1,288z" />
	<path fill="#0F0D0D" d="M507.2,309.5c3.1,13.8,15.8,35.3,9.6,47.8c-0.3-0.6-0.5-1.1-0.8-1.7c2.7-7.1-0.5-13.3-2.7-20.1   c-3-5.6-2.6-13.1-6.7-17.8C506.7,315,505.6,311.9,507.2,309.5z" />
	<path fill="#1D1918" d="M502.4,334.8c0.3,0.3,0.6,0.7,0.9,1c-2.9,6.6,2.6,11.3,3.2,17.4c0.1,2.7,0.4,5.6,1.5,8   c3.8-2.2,0.7-8.1,1.7-11.8c0.6-0.2,0.8-0.4,0.1-0.8c0-0.3,0-0.5,0-0.8c0.5,0,1-0.1,1.5,0c0.1,1.1,0.2,2.1,0,3.2l0,0   c-2.3,2.8,3.2,6.5-1.7,16.7c-0.5,0-1,0-1.6,0c0,0,0,0,0,0c0.8-1.6,1.2-3.4,1.4-5.4c-1,0.4-1.7,0.6-2.5,0.9c-0.5,1.3-1,2.5-1.5,3.7   c-0.5,0.1-0.9,0.1-1.4,0c-1.1-2.4,0.6-4,1.7-6.1c-1.2-4.4-0.5-9.7-3.4-13.5C499.9,343.7,501,338.7,502.4,334.8z" />
	<path fill="#19191C" d="M434.7,22.9c0.3,0,0.6,0,0.8,0c5.3,16.1-1.2,36.7-16.6,44.4c6.7,0.3,10.8-3.5,14.9-8.4   c0.3,0.3,0.5,0.5,0.8,0.8c-4.4,7.1-13.7,11.6-21.6,7.1c-0.4-0.8-1-0.8-1.7-0.6c0.1-0.3,0.1-0.6,0.1-1   C432.3,68.7,439.6,38.7,434.7,22.9z" />
	<path fill="#0A0A09" d="M496.2,260c0.3-0.6,0.5-1.2,0.8-1.8c8.5,10.5,11,23.7,9.4,36.9c-0.5,0.3-1,0.5-1.5,0.8   C503.2,283.6,504.5,270,496.2,260z" />
	<path fill="#1D171A" d="M397.2,21.4c-4.7-19.5-19.4-25.9-32.3-8.3c-0.2-0.2-0.3-0.4-0.5-0.6C370.7-0.7,390.2-3,398,10.1   c-0.2,0.2-0.3,0.4-0.6,0.6c-2-1.3-3.9-5.3-6.1-5C394.2,10.6,397.6,15.5,397.2,21.4C397.1,21.4,397.2,21.4,397.2,21.4z" />
	<path fill="#110D0E" d="M424.3,469.2c-0.2-0.8,0.3-1.9-0.8-2.4c3.5-10.2,10.2-19.3,11.1-30.4c1.2,0.2,0.7,1.4,1.1,2   c0.4-0.4,0.9-0.8,1.3-1.2C436.2,448.8,428.8,458.6,424.3,469.2z" />
	<path fill="#151516" d="M388.4,60.5c0.2,0.6,0.5,1.2,0.7,1.8c-7.2,2.4-15.9,2.8-22.3-2.6c0.9-1.3,1.9-0.1,3,0.3   c12.7,6,21.5-8.9,25.8-18.6l0,0c-1.1,9.5-8.6,19-18.1,21.3C381.7,63.4,385.1,62.2,388.4,60.5z" />
	<path fill="#0E0C10" d="M411.4,310.2c0.1,0.7,0.1,1.5,1,1.8c-0.7,0.9-1.4,1.8-2.2,2.8c1.9,4.9-0.7,9.5-2.6,13.9   c-2.9,4.9-0.4,11.4-2.6,16l0.1,0c-5.5-12.1,6.2-20.3,3.1-30.5C409.3,312.8,410.4,311.5,411.4,310.2z" />
	<path fill="#33323A" d="M435.4,20.6c-1.7-3.1-4-5.5-5.6-8.6c1.4,0.5,2,1.4,3.2,0.7c4.9,3.5,8.2,9.1,8,15.1c0.2,0.3,0.5,0.6,0.7,0.8   c0.2,4.5,0.2,9.1,0,13.6c-1.1,0.6-0.6,1.7-0.6,2.6c0.1,0.2,0.1,0.4-0.1,0.6c-0.3,0-0.6,0-0.8,0c0.5-7.9,2.8-18.1-3-24.7   C436.7,20.6,436.1,20.6,435.4,20.6z" />
	<path fill="#302B2A" d="M504.8,367c0.3,0,0.5-0.1,0.8-0.1c-0.4,2.1-1.9,4.6,0.6,6.2c1.5-1.6-0.3-3.7,2-5.3l0,0   c-0.6,14.9,6.7-8.8,7.9-12.1c1.9,6.7-4.3,13.6-6.2,20.1c-0.9-0.4-1.6-0.8-2.6-1.2c-0.5,0.1-1.2,0.3-2.1,0.5c-0.6-1.4-1.6-2.5-1.7-4   C504.8,370.1,503.4,368.1,504.8,367z" />
	<path fill="#222225" d="M361.4,18.2c-1.9,12.5-6,27.9,4.7,39.1c-0.4,0.3-0.6,0.6-0.9,0.8C355.1,47.9,356.2,30.6,361.4,18.2z" />
	<path fill="#33353E" d="M396.3,15c-1.5-3.3-3.2-6.1-5.1-9.3c2.2-0.2,4.1,3.7,6.1,5c0.2-0.3,0.4-0.5,0.6-0.6   c2.5,2.4,3.1,5.9,3.9,8.8c-0.2,0-0.5,0-0.7,0C399.4,17.5,399.7,12.5,396.3,15z" />
	<path fill="#373231" d="M474.5,172.1c2.9-5.7,2.5-11.8,4-17.6c0.4,1.1-0.5,2.5,0.8,3.3c0.2,5.6-1.2,11.8-4.7,16   C474.6,173.3,474.5,172.7,474.5,172.1z" />
	<path fill="#222020" d="M505,295.9c0.5-0.3,1-0.5,1.5-0.8c0.3,4.8,0.5,9.6,0.8,14.4c-0.8,1-0.8,2.2-0.9,3.4   C504.9,307.5,504.7,301.6,505,295.9z" />
	<path fill="#201A19" d="M473.8,143.6c1.1-2.5,4.2-1.8,5.7-3.3c0.2-0.3,0.4-0.6,0.6-0.9c0-0.7-0.1-1.4-0.1-2.2   c0.3-0.2,0.6,0,0.9-0.1c0.7,1.1,0.2,2.7,0,3.9c-1.5,0.9-0.3,2.5-0.8,3.9c-1.7,1-3.5,1.5-5.5,0.9   C474.3,145.1,474.1,144.4,473.8,143.6z M475.8,144c1.8,0.1,4.1,0.8,3-1.3C478,143.1,477.3,143.4,475.8,144z" />
	<path fill="#323131" d="M441.8,119.4c-0.4,1.2-0.8,2.5-1.2,3.7c0.8,0.4,1.8,0.6,2.4,1.2c0.9,0.9,1.8-0.2,2.8,0.5   c0,0.4-0.1,1-0.1,1.6c-4.4-1-5.1-0.2-8.1,1.7C439,125.4,438.8,120.7,441.8,119.4z" />
	<path fill="#333637" d="M440.2,45.3c0.3,0,0.6,0,0.8,0c-1,5.3-2.8,10.2-6.3,14.4c-0.3-0.3-0.5-0.5-0.8-0.8   C436.9,54.8,438.4,49.8,440.2,45.3z" />
	<path fill="#1E1E1E" d="M482.6,460.5c0-1.2,0-2.4-0.9-3.4c0.9-3.4,1.9-6.7,2.5-10.1c0.2-0.1,0.4-0.3,0.6-0.4c0,1.2-0.1,2.4,0.9,3.3   C483.9,453.4,483.5,456.9,482.6,460.5z" />
	<path fill="#232221" d="M479.3,157.8c-1.3-0.9-0.4-2.3-0.8-3.3c1.5-2.4-0.8-6,1.6-7.7C481,150.6,481.5,154.3,479.3,157.8z" />
	<path fill="#352F2F" d="M447.5,118c-1,0.6-2,1.3-3.1,2c-0.4-0.5-0.8-1.1-1.2-1.7c-0.4,0.4-0.9,0.8-1.4,1.1   c-0.6-0.9-1.3-1.9-1.9-2.8c2.3-1.5,3.4,0.5,4.7,1.3C445.6,118,446.5,118,447.5,118z" />
	<path fill="#302A29" d="M400.4,456.5c-0.3-0.8,0.4-2-0.9-2.5c0.4-2.3,1.4-4.2,3-5.8c0.3,0.3,0.6,0.7,1,1   C402.5,451.6,401.5,454.1,400.4,456.5z" />
	<path fill="#393736" d="M479.9,137.2c-2.8-2.1-0.4-4.9-0.4-7.5c1,2.3,0.9,5,0.7,7.4L479.9,137.2z" />
	<path fill="#110D0E" d="M422,482.3c0.3-3-1-6.6,0.7-9.1C422.7,476.2,422.8,479.3,422,482.3z" />
	<path fill="#333637" d="M441.9,37.7c0-2.1,0-4.3,0-6.4C442.7,33.4,442.7,35.6,441.9,37.7z" />
	<path fill="#1A1A1C" d="M401.1,19c0.2,0,0.5,0,0.7,0c0.5,0.8-0.5,1.9,0.7,2.4c0.1,0.8,0.2,1.6,0.2,2.3c-0.3,0-0.6,0-0.8,0   C401.8,22.2,400.8,20.7,401.1,19z" />
	<path fill="#6B7171" d="M472,176.8c-0.2-0.2-0.4-0.5-0.7-0.7c0-0.2,0-0.4,0.1-0.6c0.8-0.3,1.6-0.6,2.4-0.9   C473.9,175.9,473.2,176.5,472,176.8z" />
	<path fill="#0E0C10" d="M415.4,304.4c0.3,1.4-0.2,2.3-1.6,2.7C413.7,305.8,414.8,305.3,415.4,304.4z" />
	<path fill="#1E1E1E" d="M485.9,449.4c0-1.2-0.7-2.5,0.7-3.5C486.7,447.2,486.8,448.4,485.9,449.4z" />
	<path fill="#7F7976" d="M474.5,172.1c0,0.6,0.1,1.2,0.1,1.7c-0.3,0.3-0.5,0.5-0.8,0.8C473.7,173.7,473.7,172.8,474.5,172.1z" />
	<path fill="#4B65C5" d="M404.2,345.6c0.1,0.7,0.4,1.5-0.5,2C403.5,346.9,403.4,346.1,404.2,345.6z" />
	<path fill="#1E1E1E" d="M486.5,443.6c-1.1-1.3-1.1-1.3,0.1-2.4C486.6,442,486.5,442.8,486.5,443.6z" />
	<path fill="#C9C8D6" d="M447.6,557c0.1,0.9,0,1.7-1,2.2C446.7,558.4,446.3,557.3,447.6,557z" />
	<path fill="#333637" d="M441.1,44.7c0-0.9-0.5-2,0.6-2.6C441.6,43,441.3,43.9,441.1,44.7z" />
	<path fill="#544D4D" d="M480.2,143.5c-0.1-0.9-0.4-1.9,0.7-2.4C480.6,141.9,480.4,142.7,480.2,143.5z" />
	<path fill="#0E0C10" d="M412.3,308.8c0,0.7-0.1,1.3-1,1.4C411.7,309.7,412,309.3,412.3,308.8z" />
	<path fill="#C2B0A7" d="M504,369.3c0.3,0.7,0.2,1.3-0.5,1.8C503.2,370.4,503.3,369.7,504,369.3z" />
	<path fill="#544D4D" d="M481.1,139.7c0-0.7,0-1.3,0-2C481.9,138.4,481.7,139,481.1,139.7z" />
	<path fill="#373A46" d="M411.4,66.3c0.7-0.3,1.4-0.3,1.7,0.6C412.5,66.6,412,66.5,411.4,66.3z" />
	<path fill="#110D0E" d="M423.5,470.8c-0.1-0.7-0.1-1.4,0.8-1.6C424.1,469.7,423.8,470.2,423.5,470.8z" />
	<path fill="#110D0E" d="M422.8,472.6c-0.1-0.8-0.2-1.5,0.8-1.8C423.3,471.4,423,472,422.8,472.6z" />
	<path fill="#4B4F5C" d="M441.1,27.7c0-0.6,0.1-1.2,0.1-1.8c0.2,0.6,0.4,1.2,0.5,1.8C441.5,27.7,441.3,27.7,441.1,27.7z" />
	<path fill="#4B4F5C" d="M402.6,21.4c-0.8-0.4-0.7-1.1-0.5-1.7C402.2,20.2,402.4,20.8,402.6,21.4z" />
	<path fill="#C9C8D6" d="M449,553.7c0.1,0.7,0,1.3-0.7,1.7C448.2,554.7,448.2,554.1,449,553.7z" />
	<path fill="#C9C8D6" d="M448.4,555.4c-0.3,0.5-0.5,1.1-0.8,1.6C447.4,556.3,447.4,555.6,448.4,555.4z" />
	<path fill="#4B4F5C" d="M401.8,18.2c-0.8-0.4-0.7-1.1-0.5-1.8C401.4,17,401.6,17.6,401.8,18.2z" />
	<path fill="#4B65C5" d="M404.5,343.9c0.2,0.2,0.4,0.5,0.7,0.7C404.8,344.7,404,344.4,404.5,343.9z" />
	<path fill="#333637" d="M441.1,27.7c0.2,0,0.4,0,0.7,0.1c0,0.3,0,0.5,0.1,0.8C441.6,28.3,441.3,28,441.1,27.7z" />
	<path fill="#373A46" d="M366,10.2c-0.2,0.3-0.4,0.5-0.6,0.8C365.6,10.7,365.8,10.4,366,10.2z" />
	<path fill="#C2B0A7" d="M503.5,371.6c0.1,0.3,0.3,0.7,0.4,1C503.7,372.3,503.6,371.9,503.5,371.6z" />
	<path fill="#C2B0A7" d="M504.8,367c-0.2,0.3-0.4,0.5-0.6,0.8c0-0.3,0-0.6,0-0.9C504.4,366.9,504.6,367,504.8,367z" />
	<path fill="#544D4D" d="M480.2,137.1c0.1-0.4,0.1-0.8,0.2-1.2c0.2,0.4,0.3,0.8,0.5,1.2C480.7,137.2,480.4,137.2,480.2,137.1z" />
	<path fill="#0E0C10" d="M413.9,307c-0.2,0.3-0.5,0.6-0.7,0.9C413.4,307.6,413.6,307.3,413.9,307z" />
	<path fill="#393736" d="M479.3,127.5c-0.2-0.2-0.3-0.3-0.5-0.5c0.2-0.1,0.4-0.2,0.7-0.2C479.6,127.1,479.5,127.3,479.3,127.5z" />
	<path fill="#0E0C10" d="M413.1,307.9c-0.2,0.3-0.5,0.5-0.7,0.8C412.6,308.5,412.9,308.2,413.1,307.9z" />
	<path fill="#151519" d="M382,56.5c21-13.5,11.9-73.7-15.9-41.8c25.8-37.7,40.8,31,15.9,42.6C382,57,382,56.8,382,56.5z" />
	<path fill="#121215" d="M370.8,23c7-5.5,10.2,5.3,6.8,10.4c-1.3,1.2-0.2,2.9-1.8,3.9c-0.8-0.2-1.4-0.4-2-0.7   c-0.1,0.5-0.2,0.9-0.4,1.5c-2.7-0.1-4.2-1.8-5.8-3.8C367.6,30.4,366.8,25.3,370.8,23C370.8,22.9,370.8,23,370.8,23z M377.2,25.3   c-2.8-3.3-2.3-2.5-5-1.2c4.9,0.7,5.7,5.5,1,7.9c0.5-1.6,1-3.1,1.5-4.6c-0.5-0.4-0.9-0.8-1.7-1.5c-0.4,0.6-0.7,1.1-1,1.6   c-0.3-0.6-0.6-1.2-0.9-1.7C366.2,38,379.5,37.4,377.2,25.3z" />
	<path fill="#131416" d="M395.6,41.3c0.6-6.7,2.3-13.1,1.6-20l0,0c0.3,0,0.5,0,0.8,0c0.3,6.7,0.1,13.3-1.6,19.9   C396.1,41.3,395.8,41.3,395.6,41.3L395.6,41.3z" />
	<path fill="#1F1E23" d="M382,56.5c0,0.3,0,0.5,0,0.8c-4.1,3.6-10,3.5-14.1-0.7C373.3,59.1,376.9,59.4,382,56.5z" />
	<path fill="#18181C" d="M361.1,33.1c0.2,1.4,0.1,1.8,0,3.4C360.1,35.1,360.4,34.1,361.1,33.1z" />
	<path fill="#151519" d="M363.6,20.6c0-0.7,0-1.3,0.8-1.6l0,0C364.4,19.6,364.4,20.3,363.6,20.6L363.6,20.6z" />
	<path fill="#151519" d="M364.4,19c0-0.7,0-1.3,0.8-1.6l0,0C365.2,18,365.2,18.7,364.4,19L364.4,19z" />
	<path fill="#151519" d="M365.2,17.4c0-0.4,0.1-0.8,0.2-1.3C366.3,16.8,365.7,17.1,365.2,17.4C365.2,17.4,365.2,17.4,365.2,17.4z" />
	<path fill="#121215" d="M370.8,22.9c-0.2-0.1-0.4-0.2-0.5-0.3C370.4,22.7,370.6,22.9,370.8,22.9C370.8,23,370.8,22.9,370.8,22.9z" />
	<polygon fill="#1F1E23" points="367.1,56.1 367.3,56 367.3,56.2  " />
	<path fill="#151519" d="M363.6,20.5c-0.1,0.2-0.2,0.4-0.3,0.5C363.4,20.9,363.5,20.7,363.6,20.5L363.6,20.5z" />
	<path fill="#CCD2E9" d="M425.8,235.1c3-1.8,5.2-4.3,7.2-7c4,4.9,8.9,13.5,16.5,9.9c1.8,0.6,3,1.3,4.9,1.1   c-27.4-20.1-7.3-26.9-13.5-53.1c0.2-0.5,0.5-1.1,0.7-1.6c12.3,9.2,17.7,24.8,30.2,33.2c0.1,1,0.2,2,0.3,3c0.9-1.4,0.9-2.9,0.7-4.4   c7-7.7,0.2-18.9,1.5-27l0.2-0.1c0,0.3,0,0.5,0,0.8c9.6,14,29.2,28.4,16.5,47.2c-2.7,3-3.3,6.3-3,9.9c0.2,8.9-3.4,17.4-4,26.3   c-1.7,12.6-7.3,24.3-6.8,37.1c-7.8,2.7-18,3.3-25.1-1.3c-0.6-4.7,1.6-15.5-2.7-17.5c-3.5,5.2-0.6,11.6-3,16.6   c-4.8-1.3-9.5-2.7-14.2-4.1c2.6-12.6,3.7-24.7,1.9-37.5c1.5,0.3,2.7,0.5,4,0.7c0.4-0.7,0.7-1.3,1-1.8c-1.4-2.9-3.3-5.1-6.4-5.5   c-1.2-1.7-1.6-3.2-1-5c4.1,1.7,8.2,3.4,10.9-1.3c-2.4-1.8-5.1-1.1-7.1-3.7c2.2-0.1,4.1-0.2,6.2-0.4c0.7-2.4-2.2-2.8-1.5-4.6   c0.5-0.1,1.1-0.2,2.1-0.3c-2-2.1-3.4-3.4-6.1-3.6c-0.2-0.8-0.9-0.9-1.5-0.8c-2-1.3-4-2.8-6.1-3.8c-0.8,0.7-0.8,1-0.9,1.9   c-0.2,0.2-0.4,0.5-1,1C426.4,237.6,426.1,236.3,425.8,235.1z M470.7,287.2c3.1-6.1,1.8-13.5,3-20.1c0.7-5.8,3.6-14.1,0.6-19   c-0.9,7.6-1.8,15.5-2,23.2c-2.6,0.7-2.1,14.7-2.2,17.8c0.1,0,0.3,0,0.4,0C470.5,288.5,470.6,287.9,470.7,287.2L470.7,287.2z    M451.4,284c-0.6-2.7,1-5.5-0.4-8c-1.4,2.3-1.4,2.3-1.2,7.2c0.5,1.8-1.3,5,1.6,5.1C451.4,286.8,451.4,285.4,451.4,284z    M469.1,274.4c2.2-2.5-5.3-0.2-6.2,0.5C465,275.2,467.1,275.5,469.1,274.4z M469,299.1c-0.4,0.9-1.3,1.7-0.4,3   c1.3-0.7,1.3-1.8,1.1-3c0.8-2.6,1.7-5.5-0.3-7.9C467.7,293.5,469.2,296.4,469,299.1z M469,248c1.8-2,7.2-7.9,4.6-10   c-2.5,4.6-5.1,8.1-7.9,12.5C467.6,250.2,468.3,249.2,469,248z M455.4,263.2c1.1-3.2,7.4-7.2,6.9-9.7c-5.3,2.1-8.3,7.9-9.1,13.4   C455,266,454.7,264.3,455.4,263.2z M466.2,290.4c-1.6,0.6-3.2,1.3-5,1.9C464.7,293,464.7,293,466.2,290.4z M467.5,310.3   c1.2-1.8,2-2.9,1.1-4.7C467.2,306.8,467.3,308.2,467.5,310.3z M443.5,243.7c1.3,1.3,1.3,1.3,2.9,0.6   C445.6,243.5,444.8,242.7,443.5,243.7z M452.1,244.5c-0.6-1.3-1.5-1.8-2.8-1C449.9,244.7,450.7,245.3,452.1,244.5z M476.6,224.1   c-0.1,0.2-0.2,0.3-0.3,0.5c0.4,0.3,0.7,0.3,1-0.2C477,224.3,476.8,224.2,476.6,224.1z" />
	<path fill="#FBDFD3" d="M415.5,32.5c3.5,1.7,1.8,5.7,1.5,8.7c-16.3,2.8-11.4,20.6-12.7,32.7c-0.2,12.8,7.2,24.2,8.1,36.7   c1.4,8.1-2.1,17.9,5.5,23.7c2.4,12.1,7.3,24.7,7.9,37.4c14.5,6.9,16.1,26.5,11.2,40.4c-8.4-10.6-5.8-25.3-11.5-36.5   c-8.5,8.3,3.7,36.7,2.7,47.9c0.5,0.1,0.8,0.1,1.5,0.2c0.3,0.8,0.6,1.8,0.9,2.8c-0.8,3.4-3.1,5.4-6.3,6.5c-1-2.4,3.7-3.6,2.8-6.8   c-1.9,1.7-2.5,4.1-5.2,4.1c-6.4-9.7-12.1-20.6-8.9-32.5c0.8-0.3,0.8-1,0.7-1.7c0.9-1.6,1.9-3.2,2-5.7c-1.9,1-1.9,2.5-2.7,4.2   c-13-18.4-15.5-41-11.4-62.8c-16-20-9.7-68.8,0.2-90.9c4.1-1.4,6.6-5.3,11.2-2.7c0.7-2,0.8-3,1-4.8   C414.6,33.1,415.1,32.8,415.5,32.5z M405.8,122.1c0.1-1.2,0.3-2.5-0.3-4.2c-1,3-1.9,5.1-0.7,8C406,124.7,405.7,123.4,405.8,122.1z    M404.5,161c-0.5,1.2,2.3,8.4,3.9,6.8c-1.6-3.8-4.3-7-4.4-11.4c-0.3,0.1-0.6,0.2-1.3,0.3C403.7,158.1,403.2,159.9,404.5,161z    M401.2,55.6c0,0.7,0,1.5,0,2.2c0.2,0,0.3,0,0.5,0c0-3.3,2.1-5.4,1.5-9.2C400.8,50.4,400.8,53,401.2,55.6z M410.7,172.3   c-0.4-0.5-0.8-1.1-1.3-1.7c-0.6,1.2-0.4,1.9,0.4,2.6c1.2,2.3,1.2,6.2,3.2,7.6C414.6,178.4,411.8,174.6,410.7,172.3z M401.4,69.9   c1.6-3.1,1.6-3.1,0.1-3.7C400.9,67.3,400.9,68.4,401.4,69.9z M402.4,151.5c1.7-0.7,1.2-1.8,0.8-2.9   C402.1,149,401.7,149.8,402.4,151.5z M399.8,76.1c1.4-0.6,1.6-1.5,0.9-2.8C399,73.9,399.6,75,399.8,76.1z M405.6,106.1   c-1.9-0.1-1.4,1.5-0.4,2.2C406.1,107.5,405.8,107.1,405.6,106.1z M417.9,185.6c-1.2,1.3-1.2,1.3-0.2,2.3   C417.8,187,417.9,186.3,417.9,185.6z M416.8,179c0.7-1.8,0.8-2.9-0.1-4.2C415.9,176.2,416,177.3,416.8,179z M401.7,63.4   c0.5-0.9,0.3-2.5-0.9-1.9C400.7,62.4,401.1,62.8,401.7,63.4z M405.1,114.5c0.3,0,0.6-0.1,0.8-0.1c-0.1-0.6-0.2-1.2-0.3-1.9   c-0.1,0-0.3,0-0.4,0C405.2,113.2,405.1,113.9,405.1,114.5z" />
	<path fill="#FADED2" d="M468.3,192.1c1.8-0.6,1.5-2.3,1.7-3.7c3.8,3.4,5.9,19.2,2.9,23.7c-0.4-0.4-0.7-0.7-1.1-1.1   c-0.1,1-0.2,2-0.3,3.4c-8.9-6.5-12-16.5-20-23.9c1,0,1.8,0,2.5,0c0.1,0.2,0.2,0.4,0.2,0.6c0.1-0.1,0.2-0.2,0.3-0.4   c-0.2-0.1-0.4-0.1-0.6-0.2c-2.3-3.8-7.8-4.7-10.4-7.9c1.4-2.1,1.4-4.4,3.1-6.3c3.9,5.5,8.5,10.6,14.6,13.3l0,0   c1.2,1.7,3.9,0.7,5.4,0.9C467.3,191.3,467.8,191.7,468.3,192.1z M457.1,192.3c-0.5,0-0.9,0-1.3,0.1c-0.7,1.6,9.5,5,10.9,4.3   C463.6,194,460.4,193.1,457.1,192.3z M470.4,205.4c0.5-1.5,0-2.2-1.4-2.9C468.6,204.1,469.1,204.8,470.4,205.4z" />
	<path fill="#EDC9B9" d="M461.2,189.6c-6.1-2.6-10.7-7.8-14.6-13.3c-1.8,2-1.7,4.3-3.1,6.3c-3.4-2-3.9-6.3-1-8.8   c0.3-4.1,0.7-8.1,1-12c0.3-0.3,0.5-0.5,0.8-0.8c0.3,0.8,0.6,1.5,0.9,2.3c-0.2,0.5-0.3,0.9-0.6,1.7c5.6,3.3,10.1,9.1,16.3,10.8   c3.5-1.1,7.1-0.3,10.7-0.4c-0.1,0.2-0.1,0.4-0.1,0.6c-3,0-6.1,0-9.8,0c1.9,2.4,3.5,1.5,6.3,2c0.1,4.7,0.3,9.4,0.5,14.1   c-0.5-0.4-0.9-0.9-1.7-1.6C465,190.3,462.4,191.3,461.2,189.6c0.3,0,0.7,0,1.4-0.1c-0.5-0.6-0.8-1-1.6-2   C461.1,188.7,461.1,189.2,461.2,189.6z M454.7,179.4L454.7,179.4c0.4,0.3,1,0.5,1.6,0.7c0.1-2.7-1.5-4.3-4-4   c-1.5-1.3-2.7-7.2-5-5.7c1.3,2.1,2.7,4.3,4.1,6.6c0.1,2,0.1,2,1.5,2.4C453.8,180.6,454,180.6,454.7,179.4z M458.2,183.6   c-0.6,1.1,0.1,1.4,0.8,1.9C459.7,184.4,458.9,184.1,458.2,183.6z" />
	<path fill="#EDC9B9" d="M430.7,226.5c-0.3-1-0.7-1.9-0.9-2.8c-0.6-0.1-1-0.1-1.5-0.2c1-11.2-11.2-39.6-2.7-47.9   c3.1,3.9,3.5,10.4,3.5,15.3c-0.4,7.1,10.1,20.7,6.9,24.3c-0.3-0.2-0.7-0.4-1.2-0.7C436.8,219,433.3,223,430.7,226.5z M432.3,207.3   c-1.2-2-2.4-4-3.7-6.2c-1.4,3.2,1.4,4.9,3,7c1.1,2.6,1.1,2.6,3,3.7C434.3,210,433.5,208.5,432.3,207.3z M430.1,211.7   c-1.3,2.8-1.3,5.8-0.7,8.9C430.5,217.7,431.4,214.8,430.1,211.7z M428.1,200.1c0.4-1.8-0.7-2.7-1.9-3.6   C426.3,197.9,426.6,199.2,428.1,200.1z" />
	<path fill="#B7BDD5" d="M438.6,218.3c1.5,9.6,9.6,14.4,15.9,20.7c-1.9,0.2-3.2-0.4-4.9-1.1c-7.6,3.6-12.5-5-16.5-9.9   C433.6,224.2,435.3,220.5,438.6,218.3z" />
	<path fill="#272526" d="M474.5,205.1c-1.5-5.3-0.5-12.9-4.5-16.7c-0.7-2.4,1.3-0.7,1.5-2.1c0.2,0.1,0.5,0.2,0.7,0.3   c1.8,4,2.7,8.3,3.1,12.7C474.2,201.1,474.6,203.2,474.5,205.1z" />
	<path fill="#2F3232" d="M461.8,129.9c-1.3,1-1.9,2.5-2.8,4c-1.5,0-2.9,0-4.3,0l-0.3-0.2c0.2-0.2,0.2-0.4,0.3-0.6l0,0   c1.6-0.1,3.1-0.5,4.5-1.7c-0.2-0.9-0.4-1.7-0.7-2.8c-1.1-0.2-2.2-0.3-3.6-0.6c0.6-0.7,1.1-1.3,1.7-1.9c2.2,0.6,4,2.4,6.3,2.2   C462.4,128.9,462.1,129.4,461.8,129.9C461.7,129.8,461.5,129.6,461.8,129.9C461.5,129.6,461.7,129.8,461.8,129.9z" />
	<path fill="#191A1A" d="M448.9,137.6c-0.5,0.6-1,1.2-1.7,2c-0.4-1-0.7-1.6-0.9-2.1c-0.9-0.1-1.3,1.3-2.5,0.7   c-0.5-0.2-1.5,0.6-2.4,1.1c-0.4-1.6-0.9-3,0.8-4.4c0.3,0.7,0.5,1.2,0.8,1.8c1.8-2.8,1.3-1,3.6-0.4c0.6-0.7,1.1-1.3,1.7-2   c1.3,0.1,0.3,0.8,0.3,1.3C448.7,136.3,448.8,136.9,448.9,137.6z" />
	<path fill="#322B28" d="M444.9,147.7c-1.4,1-1,2.5-1.5,4.1c-0.4,0.2-0.9,0.5-1.5,0.8c0,0.4,0,0.8,0,1.2c-1.4-0.9-1.6-2.6-2.5-3.8   c1.1-0.8,1.6-1.9,1.6-3.2c0.9,0.3,2,1.2,2.5,0c1-0.2,0.7-1,0.9-1.6C445.4,145.7,445.1,146.7,444.9,147.7z M442.5,150.3   c-0.1-0.1-0.1-0.2-0.2-0.3c-0.3,0.2-0.3,0.3,0,0.5C442.3,150.4,442.4,150.3,442.5,150.3z" />
	<path fill="#151717" d="M470.6,128.2c-0.8,0-1.6,0-2.4,0c0.3-0.4,0.6-0.8,1-1.2c-1.8-0.7-3.7-1.4-6-2.3c1.4-1.4,2.4-2.7,4.2-2.8   l0,0c-0.3,0.8-0.8,1.1-0.6,2.2c0.8,0.5,1.7,1.1,2.7,1.7c0.7-0.2,1.3-0.4,2.1-0.7c0.1,0.7,0.1,1.4,0.2,2   C471.4,127.5,471,127.9,470.6,128.2z" />
	<path fill="#181A1A" d="M454.7,133.9c-0.5,1.1-1.1,2.1-1.6,3.2c0-0.9-0.2-1.6-1.7-1.1c0.4-1.5,0.8-2.9,1.1-4.1   c1.4-0.4,1.8,0.4,2.2,1.3l0,0c-0.2,0.1-0.4,0.3-0.5,0.4C454.3,133.7,454.5,133.8,454.7,133.9z" />
	<path fill="#887872" d="M444.1,161.1c-0.3,0.3-0.5,0.5-0.8,0.8c-0.8-1.8-1.4-5.3,0.1-6.4c0.1,0.6-0.1,1.4,0.8,1.6   C444.2,158.4,444.2,159.8,444.1,161.1z" />
	<path fill="#B39D91" d="M441,146.7c0,1.3-0.5,2.4-1.6,3.2c-0.9-1.3-2-2.6-0.7-4.1c0.5,0,1,0,1.5,0l0,0   C440.5,146.2,440.7,146.5,441,146.7L441,146.7z" />
	<path fill="#393232" d="M436.3,220.1c-0.8,1.3-1.6,2.6-2.4,4c-0.3-0.3-0.5-0.5-0.8-0.8c0.8-1.6,1.5-3.2,2.3-4.9   C435.6,219.1,435.4,219.9,436.3,220.1z" />
	<path fill="#3A4B53" d="M473,216.1c0.2,1.5,0.2,2.9-0.7,4.4c-0.1-1-0.2-1.9-0.3-3c-0.7-0.4-1.4-0.9-2.1-1.4   C470.9,216.1,471.9,216.1,473,216.1z" />
	<path fill="#242626" d="M463.1,118.1c0.8,0,1.5,0,2.4,0c-0.6,1.2-1.1,2.1-2.6,2.1C462.6,119.3,462.6,118.7,463.1,118.1z" />
	<path fill="#2A2C2C" d="M481.2,122.6c0-0.7-0.1-1.3-0.1-2.1c1-0.1,1.7-0.1,2.4-0.2C483.9,121.3,483.3,121.8,481.2,122.6z" />
	<path fill="#303333" d="M449.3,126.8c1.1-1,2.2-2.1,3.5-3.3C452.2,126,451.8,126.4,449.3,126.8z" />
	<path fill="#D9C3B8" d="M444.3,145c-0.2,0.6,0.1,1.5-0.9,1.6c-0.6-0.5-1.1-1-1.6-1.6c0-1.6,0-1.6,1.6-1.6   C443.7,144,444,144.5,444.3,145z" />
	<path fill="#2B2E2C" d="M446.7,150.8c-0.1,0.4-0.2,0.7-0.3,1.3c-1.4-1.6-1.1-2.7-1.3-3.8c0.4-0.1,0.9-0.3,1.3-0.4   C447,148.8,445.1,150,446.7,150.8z" />
	<path fill="#8390A1" d="M441.7,184.3c-0.2,0.5-0.5,1.1-0.7,1.6c-0.9-1.2-1.2-2.5-1.4-4.1C440.8,182.4,441.4,183.3,441.7,184.3z" />
	<path fill="#181A1A" d="M451.5,139.6c-0.6,0.8-1.1,1.5-1.7,2.3c0-1.1,0-2.2,0-3.7C450.6,138.8,451,139.2,451.5,139.6z" />
	<path fill="#222525" d="M451.5,118.8c-0.9,1.4-0.9,1.4-3.4,1.4C449.7,119.5,450.6,119.1,451.5,118.8z" />
	<path fill="#151717" d="M467.4,128.2c-1.3,0-2.7,0-4,0C464.7,127,466.1,127.1,467.4,128.2z" />
	<path fill="#322B28" d="M443.4,143.5c-1.6,0-1.6,0-1.6,1.6C440,144.2,441.5,141.5,443.4,143.5z" />
	<path fill="#393736" d="M478.5,131.6c-0.2-1.1-0.5-2.2-0.7-3.3C479,129.2,478.6,130.4,478.5,131.6z" />
	<path fill="#151717" d="M467.4,121.9c0.6-0.4,1.3-0.9,2.3-1.6C469.1,121.8,469.1,121.8,467.4,121.9L467.4,121.9z" />
	<path fill="#322B28" d="M440.2,145.9c-0.5,0-1,0-1.5,0c0.3-0.5,0.7-0.9,1.3-1.9C440.1,145,440.2,145.5,440.2,145.9z" />
	<path fill="#181A1A" d="M453.1,137.1c-0.3,0.5-0.6,1-0.8,1.6C452.2,138,452.2,137.3,453.1,137.1z" />
	<path fill="#151717" d="M462.2,124.8c-0.1-0.4-0.5-0.7,0-0.9C462.3,124.2,462.7,124.5,462.2,124.8z" />
	<path fill="#2B2E2C" d="M448.2,148.3c0.1,0.7,0.1,1.3-0.7,1.7C447.4,149.2,447.4,148.6,448.2,148.3z" />
	<path fill="#322B28" d="M441,146.7c-0.3-0.3-0.5-0.5-0.8-0.8C440.5,146.2,440.7,146.5,441,146.7z" />
	<path fill="#322B28" d="M442.6,146c0.3,0.2,0.5,0.5,0.8,0.7C443.2,146.4,442.9,146.2,442.6,146z" />
	<path fill="#2B2E2C" d="M447.5,149.9c-0.3,0.3-0.5,0.6-0.8,0.8C447,150.5,447.3,150.2,447.5,149.9z" />
	<path fill="#181A1A" d="M452.2,138.7c-0.2,0.3-0.5,0.6-0.7,0.9C451.8,139.3,452,139,452.2,138.7z" />
	<path fill="#393736" d="M477.7,128.3c-0.3,0-0.5-0.1-0.8-0.1C477.3,127.6,477.6,127.6,477.7,128.3z" />
	<path fill="#322B28" d="M441.9,145.1c0.2,0.3,0.4,0.6,0.7,0.8C442.3,145.6,442.1,145.3,441.9,145.1z" />
	<path fill="#322624" d="M462.6,142.7c-0.9-0.3-1.7-0.6-2.6-0.9c-1.1,0.4-2.2,0.8-3.2,1.2c-0.3-3.6,12-4,12.3,0.2   c-1.2,0.7-2.4,1.5-3.9,2.5c-2.2,0-4.6,0-7.1,0c0.1-2.7,4.7-2,6.6-2.4c0-0.2,0-0.4,0-0.5C464,142.7,463.3,142.7,462.6,142.7z" />
	<path fill="#3F2B28" d="M465,165.2c-0.2-0.4-0.5-0.8-0.7-1.2c1.4-0.7,12.3-2.6,11.1,0.3c-1.3,0.2-2.8-0.4-4,0.6   C469.2,165,467.1,165.1,465,165.2z" />
	<path fill="#3E2F2D" d="M455.4,173c-2.6-1.9-5.3-3.8-7.9-5.7c0.3-0.3,0.6-0.5,0.9-0.8c2.9,1.2,5.2,3.3,7.8,5.4   C455.9,172.3,455.7,172.7,455.4,173z" />
	<path fill="#120F0E" d="M473.8,167.3c0,0.4-0.1,0.7-0.1,1.3c-2,0.6-3.9,0.9-5.9,0.2c-0.1-0.5-0.2-0.8-0.2-1.2   C468.6,165.6,472.4,166,473.8,167.3z" />
	<path fill="#544642" d="M448.4,166.5c-0.3,0.3-0.6,0.5-0.9,0.8c-1-0.7-2-1.5-3-2.2c0.3-0.7,0.4-1.2,0.6-1.7   c0.9-0.2,0.7-1.1,0.9-1.7C446.7,163.3,447.6,164.9,448.4,166.5z" />
	<path fill="#1E1C1B" d="M445.9,161.7c-0.2,0.6,0.1,1.5-0.9,1.7c-1.2-2-0.9-4.2-0.8-6.4c0.3-0.2,0.6-0.4,1-0.7   C445.5,158.3,445.7,160,445.9,161.7z" />
	<path fill="#D2B9AB" d="M473,166.5c-1.6,0-3.2-0.6-4.8,0.1c-1.1-0.6-2.1-1-3.2-1.5c2.1-0.1,4.2-0.1,6.3-0.2   C471.9,165.5,472.4,166,473,166.5z" />
	<path fill="#181B19" d="M474.6,156.5c0.1,0.5,0.1,0.7,0.1,1.2c-1.5,0.3-3.1,0.6-4.7,0.9C470.3,156.3,470.4,156.3,474.6,156.5z" />
	<path fill="#463E3A" d="M473.8,143.6c0.3,0.8,0.5,1.5,0.8,2.3c-0.4,1-0.8,2-1.5,3.6C473,147,472.1,145.2,473.8,143.6z" />
	<path fill="#D2B9AB" d="M471.4,165c1.2-1.1,2.7-0.4,4-0.6C474.2,165.6,472.7,165,471.4,165z" />
	<path fill="#A6A59C" d="M462.6,142.7c0.7,0,1.4,0,2.2,0c0,0.2,0,0.4,0,0.5c-0.7,0-1.5,0.1-2.2,0.1   C462.6,143.2,462.6,142.9,462.6,142.7z" />
	<path fill="#544D4D" d="M479.4,140.4c-0.3,0.8-0.9,0.8-1.6,0.7C478.3,140.8,478.8,140.6,479.4,140.4z" />
	<path fill="#D2B9AB" d="M468.2,166.7c-0.2,0.3-0.5,0.6-0.7,1C467.7,167.3,468,167,468.2,166.7z" />
	<path fill="#D2B9AB" d="M473.8,167.3c-0.2-0.2-0.5-0.5-0.7-0.7C473.3,166.8,473.6,167.1,473.8,167.3z" />
	<path fill="#544D4D" d="M480.1,139.4c-0.2,0.3-0.4,0.6-0.6,0.9C479.7,140,479.9,139.7,480.1,139.4z" />
	<path fill="#5876E8" d="M460.4,314.4c3.1,0.3,6.3,0.6,9.2,1.3c2.9,0,5.1-2.6,8-1.6c0.2,0.5,0.3,0.9,0.5,1.5c1,0,2,0,3.2,0   c16.6,27.6,6.4,76.5,11.6,108.4c-6.2,1-12.3,1.2-18.4,1.3c-0.7-2.2-1.1-4.5-0.6-7.1c1.8,0.9,1.8,3.6,4.2,3.6c0.3-0.3,0.7-0.7,1-1.1   c-1.7-9.3-8.7-19.5-5.1-28.7c2.4,6.4,4.8,18.5,9.4,21.7c-3.3-19.2-12-36.9-10.8-57.7c-9.6,22.6-13.3,46-19.1,69.5   c-8.7,0.1-18-1.4-27-1.9c-0.1-14.1-6.4-28.4-1.8-42.3c1.5,7.6,1.9,14.2,5,21.9c0.4-23.4-8.2-45.7,2.9-67.8c2.5,2.2,0.8,6.1,2.5,8.6   c2.7-10.5,2.7-21.5,2.4-31.9c2.4-0.6,5,0.5,7.5,0.7c0.9,1.9,2.8,2.3,4.8,2.3l0,0c3.1,2.1,8.5,2.2,12.2,1.4   C461.4,315.8,460.9,315.1,460.4,314.4z M481.8,354.2c0.1,0.2,0,0.8,0.5,0.3C482.1,354.4,481.9,354.3,481.8,354.2   c0-1.3-0.5-2.1-2.1-2.3C480.1,353.2,480.8,353.8,481.8,354.2z M446.8,327.7c1.4,1.5,1.9,6,4.3,5.3c-4.7-5.3-3.2-12-6.7-17.6   C444.5,320.3,445.2,324.1,446.8,327.7z M466.5,335.1c0.2,0.4,0.3,0.9,0.6,1.5c1.3-2.4,1.3-2.4,1-8.6c-2.9-2.4-1.7-6.2-5.5-8.1   C463.5,325.2,464.5,330.1,466.5,335.1z M457.7,327.8c-0.4,0.4-0.9,0.8-1.5,1.4c-0.6-4.3,1.6-8.6-1.9-11.9c-2,1.1-4.9,47.1-1.4,37.4   c1.8-8,0.7-17.5,4.8-24.6c1.2-2.3,3.3-4.7,2-7.7c-0.5,0-1,0-1.6,0c0.4,0.5,0.7,1,1.1,1.5C458.8,325.1,458.2,326.5,457.7,327.8z    M474.5,359.6c-1,1.3-0.6,2.1-0.1,2.9c3.2,3.9,2.8,9.9,6.6,13.1C480.6,369.5,480.4,363.2,474.5,359.6z M484,342.2   c-0.3-5.9-0.6-12.8-4.4-17.3C479.3,331.2,481.1,336.6,484,342.2z M471.7,318.8c0.7,6.7-0.4,13.5,2.8,19.7c0.2-5.6-1.8-10-1.5-15.5   C473,321.1,473.1,320.6,471.7,318.8z M474.1,342.8c-0.2,4.1-0.6,8.3-0.2,12.7C476.4,352.3,475.5,346.5,474.1,342.8z M430.7,370.2   c1.5-1.8,2.5-5,2.7-7.9C431.3,364.5,431.2,367.1,430.7,370.2z M466.1,316.1c0,0,0,0.1,0,0.1c0.3,0.1,0.7,0.3,1,0   C466.8,316.2,466.4,316.2,466.1,316.1z" />
	<path fill="#4B65C5" d="M438.7,311.8c-0.4,0.1-0.8,0.2-1.2,0.3c0.3,10.4,0.4,21.3-2.4,31.9c-1.6-2.5,0-6.4-2.5-8.6   c-11.1,22.1-2.5,44.4-2.9,67.8c-3.2-7.7-3.6-14.3-5-21.9c-4.5,13.9,1.7,28.2,1.8,42.3c-8.7,0.1-17.2-1.7-25.9-1.8   c0.9-25.8,3.5-51.4,4.4-77.2c1.5-7.5,1.1-16,5.6-23.2c1.4-0.7,3.5-1.2,3.2-3.2c0.3-0.5,0.6-1,0.9-1.5c1.9,3.9-0.2,8.2,1,12.7   c1.3-6.7-0.2-14.9,3.8-20.8C426,309.6,432.6,309.8,438.7,311.8z M415.5,355.8c-0.2-0.1-0.4-0.2-0.5-0.3c1.9,1,2.6,3.9,4.9,4.1   C418.6,358,417.8,355.9,415.5,355.8z M426.6,320.6c-0.7,0.5-1.7,0.9-1.2,2.5c1.6-2,9-7.7,4.9-9.5C429,315.8,427.5,318,426.6,320.6z    M411.5,353.4c-1.6,2.3-0.1,5.3-1.5,7.9c-0.1,0.3,0.1,0.8,0.2,1.2c0.1,0,0.3,0,0.4,0c1.8-8.2,4.2-16.1,3.8-24.5   C413.1,343.9,412.3,347.8,411.5,353.4z M407.4,380.4c-2.2,9.6,0.3,20.1-0.4,29.9c0.6,3.3-2.5,8.3,1.7,9.9   c-2.4-5.5,1.6-10.8,0.3-16.6c0-5.7-1.9-11.7,0-17.2c0.3,2.5,0.8,4.6,2.4,7c0.1-5.9-3.9-10.5-1.7-16.5c0.1-1.6,0.9-4.1-0.9-5.1   C408.3,374.8,407.9,377.6,407.4,380.4z M416.9,419.1c2-3.3,0.8-11.7-2.2-16.7C415,408.1,417.7,412.8,416.9,419.1z M417.8,373.3   c-0.2,0.2-0.4,0.4-0.6,0.7c2.3,1.2,4.5,4.9,7,4.4C423.1,375.3,419.7,375.2,417.8,373.3z" />
	<path fill="#FBDFD3" d="M434.6,436.4c-0.9,11.1-7.6,20.2-11.1,30.4c-0.2,0.1-0.2,0.3-0.2,0.5c-1,0.7-1.8,1.6-2.3,2.7c0,0,0,0,0,0   c-0.9,1.2-0.8,2.6-0.8,4c-0.2,0.2-0.2,0.4-0.1,0.6c-3.5,27.8-14.9,54.1-17.1,82.6c-2.5,1.2-4.7,0.5-6.7,3c-1-0.3-2.9-0.9-3.6-1.7   c2.2-14.3,10.4-30.2,4.7-44.2c-1.7,1-1,2.5-1.3,3.8c-0.1,0.4-1.4,3.3-1.6,3.6c-2.2-18.1-4.2-40.7,6.1-57.5c0.6,0.1,1,0.1,1.5,0.2   c0.9-1.2,0.3-2.6,0.4-4l0,0c2.5-1.9,3.3-4.8,4.5-7.5c1.1,0.2,1.2,0.2,2-0.4c2.1,1.4-2.4,1.9-0.2,4.1c0.5-0.4,0.7-0.7,1-0.9   c1.1,0.5,0.7,1.5,0.8,2.4c-0.3,0.3-0.5,0.5-0.8,0.8c3.7,2.3,5.3,19,7.8,15.4c-0.5-3.4-0.9-6.8-3-9.7c0.2-2.3,1.4-4.3,2.3-6.4   c0.2,1.1,0.7,2.1,1.4,2.9c0.3-0.3,0.5-0.5,0.7-0.7c-0.7-1.8-1.2-3.4-2.7-4.7c2.2-1.6,1.3-3.3,1.9-5.9c-1.2,1-1.4,1-2,2l0,0   c-2.4-4.7-0.5-11.4-4.6-15.7c-1.7-4.8,4.8-2.9,7.3-4.2c0.3-0.1,0.8,0.5,1.2,0.7c-1.2,1-1.2,2.6-1.7,4c-0.9,0.6-1,1.4-0.5,2.4   c1.1-0.4,1.3-1.1,1.8-2.1c-1.3-2.3,13.4-8.1,14-5.8l0,0c-1.1,0.4-1.1,0.9-0.2,1.5c0.6,1,1.5,2.7,2.6,0.9c-0.5-0.7-1.1-1.6-1.7-2.4   c0.7-1.1,1.6-1.4,3-1.4c0.4,2.2,0.1,4.1-0.6,6.1C436.2,435.7,434.8,435.2,434.6,436.4z M398,478.8c-0.8,4.2,3.1-0.1,0.7-1.7   c0.2-2.7,4.3-8.7,1.6-10.2c-0.4,3.3-3.2,7.4-1.6,10.2C398.5,477.7,398.3,478.3,398,478.8z M397,488.1c0-1.3,1.1-2.4,0.4-4.5   c-1.7,1.8-2.9,5.6-0.9,7C397.2,489.7,397.1,489.1,397,488.1z M424.1,450.1c0.6,0.9,1.4,1,2.5,0.2c-3.1-1.6-3.7-8-7.5-7.3   c-2.7,1.9-0.7,6.2,1.8,7.7c0.4-0.7,0.7-1.2,1-1.8C422.7,449.3,423.4,449.7,424.1,450.1z M395.8,494.8c-1.4,3.9-2.6,8-1.3,12.1   c1.1-0.5,1.3-1.4,0.8-2.3C394,501.6,396,498.2,395.8,494.8z M422,456.3c-0.1-1.9-0.5-3.1-2.3-4.1   C419.3,454.3,419.9,455.4,422,456.3z" />
	<path fill="#EECABA" d="M410.7,457.9c-0.1-0.9,0.4-1.9-0.8-2.4c-0.1-0.2-0.3-0.4-0.4-0.6c-0.1,0.1-0.2,0.3-0.3,0.4   c0.2,0.1,0.5,0.2,0.7,0.3c-0.3,0.2-0.5,0.5-1,0.9c-2.2-2.7,2.6-2.2-0.2-4.7c-0.1,0.1-0.2,0.2-0.3,0.4c0.2,0.1,0.4,0.2,0.6,0.2   c-0.9,0.6-0.9,0.6-2,0.4c-1.2,2.7-2,5.6-4.5,7.5c0-0.7,0-1.4,0-2.3c-1,1-0.9,1.7,0,2.3c-0.1,1.4,0.5,2.8-0.4,4   c-0.4-0.1-0.9-0.1-1.5-0.2c-8.6,13.7-8.8,31.2-6.9,46.8c-1.1,1.2-1.1,1.2,0.1,2.3c-0.3,0.7-0.9,1.7-0.7,2.2c1.3,2-0.2,4.8,1.4,6.3   c0.3-0.4,1.5-3.2,1.6-3.6c0.3-1.2-0.4-2.7,1.3-3.8c4.8,11.6-0.5,26.4-3.6,38.1c-0.1-2.1-0.1-4.1-0.3-6.2c-2.5,1.3-0.9,4.2-1.5,6.7   c0.8-0.2,1.3-0.3,1.7-0.4c-0.3,1.9-0.7,3.8-1.1,6.1c0.1,0.1,0.6,0.5,1.1,0.9c-1.3-0.2-2.6-0.4-4.1-0.6c4.9-26.5-6.6-53.3,0.3-79.7   c6.1-17.6,20.7-33.5,15.9-53.3c8.2-0.2,16.3,0.7,24.5,0.5c-0.6,3.2-5.4,3.4-7,6.3c-1.1,1-2.1-0.1-3.2,0c-0.4-0.3-1-0.8-1.2-0.7   c-4.4,1-11.3,0.5-5.5,6.5c1.3,2.6,1.2,16,4.3,14.1c0.4,1.4-0.5,2.3-1.5,3.2c0.6,0.6,1,1.1,1.5,1.6c-1.9,1.6-2.4,4.3-3.3,6.5   c-0.5-0.3-1-0.6-1.5-0.9C412.8,460.9,412,459.3,410.7,457.9z M394.6,535.6c-0.2,0-0.3,0-0.5,0c0,0.5,0.1,1.1,0.1,1.6   c0.2,0,0.3,0,0.5,0C394.7,536.7,394.7,536.1,394.6,535.6z M392.5,519c0.1,0,0.3,0,0.4,0c0-0.5,0-1.1,0-1.6c-0.1,0-0.3,0-0.4,0   C392.5,517.9,392.5,518.4,392.5,519z M393.6,541.9c-0.4,0.4-0.5,0.8-0.1,1.3C393.9,542.7,394.2,542.3,393.6,541.9z" />
	<path fill="#4B65C5" d="M473,359c-1.5,19.8,7.8,36.5,10.5,54.8c-4.6-3.3-7-15.3-9.4-21.7c-3.6,9.2,3.4,19.4,5.1,28.7   c-0.4,0.4-0.7,0.8-1,1.1c-2.4,0.1-2.4-2.6-4.2-3.6c-0.5,2.6-0.1,4.8,0.6,7.1c-5.8,3.1-12.4,0.7-18.6,0.4c1.2-4.6,2.3-9.2,3.5-13.9   c0.2-0.1,0.5-0.1,0.7-0.2c2.7,3.1,6.2,4.7,10.4,4.8c0.5,0.8,1.1,0.9,1.9,0.5c0-0.2,0-0.3-0.1-0.5c-0.6,0-1.3,0-1.9,0   c-2.9-1.9-6.9-4.1-10.4-4.8c0.1-11.6,8.1-20.2,8-32.2c-6.3,11.4-8.5,24.1-11.9,36.3c0.8-15.7,8.6-30.4,11-45.7   c-0.1,2.3-1.4,4.8-0.2,7c2.4-1.8,1-6.2,2-9c0.3-2,1.3-4,2.6-5.6C472.6,361.5,471.7,359.8,473,359z M465.4,402.1   c0,0.2-0.1,0.3-0.1,0.5c3.4,0.9,5.1,4.2,8.5,4.9C471.5,404.5,469.1,401.8,465.4,402.1z M468.6,389.8c0.1,0.6,1.8,1.3,1.8,0.3   C469.7,389.7,469.1,389,468.6,389.8z" />
	<path fill="#EDCABA" d="M455.4,553.7c-0.6-0.1-1.2-0.3-2.1-0.5c-0.7-18.6,2.6-37,1.8-55.6c-6.6-13.8-3.6-30.1,1.8-43.6   c0.8,1.7,0.2,5.1,2.7,5.2c-0.2-6.4-4-11.7-5.6-17.9c0.8-4.3-3.5-7.6-3.5-13c5.4-0.2,10.3,0.6,15.6,1.3c6.7,0.4,12.8-3.1,19.6-2.2   c-4.8,3.8-11.5,3.9-17.5,5.3c1.2,3.3,2.4,6.5,3.5,9.4c0.9,0.6,1.5,1,2.1,1.4c-1.7,0-3.4-1.1-3.2,1.6c-4.1-3.3-6.8-6.8-8.6-11.9   c-1.6,0.1-3.5-0.5-4.7,1.1c1,0.9,2.4-0.1,2.9,1.4c-0.5,0.1-1,0.2-1.4,0.3c0,1.5,0,2.7,0,4c0.8-1.2,0.4-2.5,1.4-3.5   c1.5,1.1,0.5,3.1,1.6,4.3c0.9,6.1,2.6,12,4,18.1c-0.4,0.7-0.9,1.5-1.3,2.3c-1.9,0-3.6-1.5-5.7-0.2c-1.1,13-5.8,24.5,2.2,36.9   C460.2,516.5,455.5,534.9,455.4,553.7z M459.8,447.7c0.7-1.8,0.6-2.8,0-4.1C458.4,445.1,459.1,446.1,459.8,447.7z M469.7,441.6   c-0.2-0.7-0.4-1.3-1.3-1C467.8,441.4,468.9,442.5,469.7,441.6z" />
	<path fill="#FADED2" d="M473.8,443.6c-0.6-0.4-1.3-0.8-2.1-1.4c-1.1-2.9-2.2-6-3.5-9.4c6.6-1.1,13.1-2.2,18.6-5.6   c0.4,6.1-3.2,12.7-1.9,19.3c-0.2,0.1-0.4,0.3-0.6,0.4c-0.4-1.9,0.8-5-1.2-6c0.1-1.4,1.6-2.5,0.7-4.3c-2.6,1.5-2.4,5.2-4.9,7   c-0.9-0.6-1.9-1.2-2.7-1.7C475.2,442.6,474.5,443.1,473.8,443.6L473.8,443.6z" />
	<path fill="#251E1C" d="M423.5,432.4c1.6-2.9,6.5-3.1,7-6.3c2.4,0.2,5.3-0.8,7.3,0.6c-1.7,0-3.4,0-5.4,0c0.3,2.1-1.7,2.7-2.7,4   c-2.1,0.9-4.1,1.8-6.2,2.7C423.5,433.1,423.5,432.7,423.5,432.4z" />
	<path fill="#E5C8B9" d="M429.7,430.7c1-1.3,3-1.9,2.7-4c2.6,0.2,4.6-0.6,6.6,0.7c-0.4,1.7,0,3.6-1.2,5.1c-0.1-1-0.2-2-0.3-3.1   c-1.4-0.1-2.4,0.3-3,1.4c-0.2,0.1-0.5,0.1-0.7,0C433.2,429.4,431.1,430.9,429.7,430.7z" />
	<path fill="#453C37" d="M457.9,452.2c1.8,1.9,1.3,4.6,1.7,7c-2.5-0.1-1.9-3.5-2.7-5.2C457.9,453.7,457.8,452.9,457.9,452.2z" />
	<path fill="#6C5551" d="M434.6,436.4c0.1-1.2,1.6-0.6,2.4-0.8c0,0.5,0,1.1,0,1.6c-0.4,0.4-0.9,0.8-1.3,1.2   C435.3,437.7,435.8,436.6,434.6,436.4z" />
	<path fill="#1D2240" d="M460.2,411.6c-0.2,0-0.5,0.1-0.7,0.2c-0.1-0.9-0.5-1.9,0.6-2.6C460.2,410.1,460.2,410.9,460.2,411.6   L460.2,411.6z" />
	<path fill="#E4E4EB" d="M389.9,568.7c1.1-1.7,2.3-3.2,4.7-2.6c2.4-1.5,4.1-3.7,5.3-5.9c3.1-0.6,5.4-2,8.4-0.8   c0.6,2.3,1.1,4.5,1.6,6.8c-3.9,2.3-12.1,0.7-13.2,6.2c0.3,0.2,0.7,0.5,1.2,0.8c4-2,7.9-4.4,12.8-4.4c0.4,0.7,0.7,1.3,1.1,2   c-3.4,1.6-7.6,0.4-10.3,3.2c-0.2,1,0.5,1.2,1,1.8c1.5-0.2,2.8-0.4,4.1-0.6c0.6,0.3,1.2,0.6,1.8,0.8c-0.8,0.6-1.8,1.1-1.2,2.6   c3-0.1,6.1,0.5,8.8-1.7c0.2-0.2,0.7,0.1,1.1,0.2c0.1,0.5,0.2,1,0.3,1.6c-1.1,1.2-4.1,0.4-3.9,2.7c2.2,1.6,4.4-0.9,6.6-0.4   c0.1,0.5,0.1,0.9,0.2,1.3c4.2,0.6,7.3,3.8,11.6,4.5c3.3,0.9,6.2,1.7,3.1,5.3c-15.1,3-29.7,4-42.9-4.7c-1.3,0-2.4,0-3.8,0   c-2.5,2.5-5,1.5-7.8,0c3.5-6.1,3.2-13.1,4.8-19.2c0.2,0.5,0.3,1,0.5,1.6C387.3,569.6,388.9,570.3,389.9,568.7z" />
	<path fill="#CECDDB" d="M385.1,568.1c-1.7,6.1-1.4,13.1-4.8,19.2c2.8,1.6,5.4,2.6,7.8,0c1.3,0,2.5,0,3.8,0c1,0.9,1.9,1.8,3.1,2.9   c10.2,2.1,21.3,5.9,31.8,3.5c-8.2,7.7-25.3,0.7-35.3-0.8c-4.3-1.4-9,0.4-13.6-1.3c-1.5-5.8,4.8-10.8,3.9-16.7c0-4.2,0.7-9,3.2-12.2   C385,564.7,385.1,566.4,385.1,568.1z" />
	<path fill="#BFC4D1" d="M422.7,596.8c0.8-0.5,1.6-1,2.5-1.5c0.3,0.3,0.7,0.7,1,1.1c3.3-2.4,6.2-0.9,9.2-3.6c-2.4,0-4,0-5.5,0   c1.3-1.2,3.3-0.6,4.9-0.7c0.5-0.9,1-1.7,1.4-2.4c-0.1,2.2,0.4,4.5-0.4,6.7C431.4,597.4,427.1,596.3,422.7,596.8z" />
	<path fill="#151314" d="M417,577.1c-0.4-0.1-0.9-0.3-1.1-0.2c-2.7,2.2-5.8,1.5-8.8,1.7c-0.9-4,5.2-2.6,7.6-3.5   c-0.1-0.6-0.1-1-0.1-1.4C415.7,574.6,416.5,575.7,417,577.1z" />
	<path fill="#E7EBEB" d="M393.9,563.2c-1.9,1.2-3.9,2.5-6.1,3.9c-0.3-1.8-0.5-3.2-0.4-5c2,0.1,3.8,0.1,5.5,0.1   C393.3,562.6,393.6,562.9,393.9,563.2z" />
	<path fill="#ACB7BC" d="M414.6,573.8c0,0.4,0.1,0.8,0.1,1.4c-2.2,0.3-4.3,0.6-6.4,0.8c-0.6-0.3-1.2-0.6-1.8-0.8   c2.3-0.7,4.7-1.4,6.9-2C413.9,573.4,414.2,573.6,414.6,573.8z" />
	<path fill="#110D0E" d="M419.6,481.1c-0.1-2.2-0.7-4.5,0.7-6.6C420,476.7,421,479.3,419.6,481.1z" />
	<path fill="#CECDDB" d="M389.9,568.7c-1,1.6-2.6,0.9-4.3,1c-0.2-0.6-0.3-1-0.5-1.5C386.6,569.6,388.2,569.1,389.9,568.7z" />
	<path fill="#110D0E" d="M420.3,473.9c0-1.4-0.2-2.8,0.8-4C421,471.3,421.5,472.9,420.3,473.9z" />
	<path fill="#889B9B" d="M393.9,563.2c-0.3-0.3-0.6-0.6-1-0.9c0.7-0.7,1.4-0.9,2.6-0.3C395,562.5,394.5,562.9,393.9,563.2z" />
	<path fill="#110D0E" d="M422,468.4c0.5-0.4,0.9-0.8,1.4-1.2C423.4,468.2,422.7,468.3,422,468.4z" />
	<path fill="#110D0E" d="M421,469.9c0.3-0.5,0.6-1,0.9-1.5C421.9,469.1,421.9,469.7,421,469.9z" />
	<path fill="#FBDFD3" d="M483.1,441.1c4.6,7.2-4.3,17.7-2.4,25.6c-1.4,28.1-11.2,56.4-11.6,83.8c-1.2,1.6-2.4,3.2-3.6,5   c-1.8,0.1-3.8,0.3-5.8-0.7c0.4-2.6,1-5.2-0.5-8.4c-0.6,3.4-0.9,4.8-1.5,8c-0.7-0.2-1.4-0.4-2.1-0.6c0.4-19.4,4.4-39,6.1-58.1   c-0.4,0.2-0.9,0.4-1.3,0.6c-7.2-12.6-2.2-22.7-1.4-35.4c2.1-1.3,3.8,0.2,5.7,0.2c0.4-0.8,0.9-1.6,1.3-2.3c-1.4-6.1-3.1-12-4-18.1   c-1.1-1.2-0.1-3.2-1.6-4.3c0.3-2.1-1.7-1.2-2.9-2.1c1.2-1.6,3.1-1,4.7-1.1c2.2,5.6,5.3,10.7,11,12.9c0.4,0.8,1,0.7,1.7,0.6   c-0.8,3.4,0.6,6,2.1,8.9c0.5,0.3,0.9,0.6,1.6,1c-0.2-1.7,0.9-4.5-1.5-4.2c-0.2-1.9-0.1-3.7,0-5.6c0.8-0.4,2,0.5,2.4-0.8   C481.4,444.9,481.8,442.8,483.1,441.1z M465.6,485.7c-0.9,0.9-0.8,2-0.3,3.4c0.9-1.7,1.4-2.7,1.2-4.5c-0.2,0-0.3-0.1-0.5-0.1   C466,484.9,465.8,485.3,465.6,485.7z M468.3,471.6c-1,2.9-1.2,6.8-0.6,10c3.1-3.4,2.9-14.7,0-17.8   C466.9,466.5,468,468.9,468.3,471.6z M460.3,539.8c-0.4,1.2-1,2.1-0.6,3.5C461.3,542.3,461.2,541.1,460.3,539.8z M463.1,518.8   c-2.1,0.1-1.3,1.4,0,2.7C463.1,520.1,463.1,519.5,463.1,518.8z M461.6,533.3c-0.1,0-0.3,0-0.4,0   C460.6,535.5,462.2,535.4,461.6,533.3z" />
	<path fill="#E4E4EB" d="M479.3,561.1c0.1,0.4,0.3,0.7,0.5,1.2c-0.8,0.7-1.6,1.5-2.5,2.3c1.2,1.3,1.2,1.3,4.7,0.6   c0.6,0.8,1.3,1.6,1.9,2.3c-0.2,0.9-0.3,1.6-0.5,2.7c1,0.1,1.8,0.1,3.1,0.2c0.5,0.7,1.2,1.8,2,3c1.2,0.5,2.5,1,3.8,1.5   c0.6-0.3,1-0.6,1.6-0.9c3.7,2.9,8.1,4.3,12.6,5.3c9.7,3.3-6.7,6.6-10.2,6.3c-5.8-1.2-12.1-1.6-17.5-3.8c-3.6-2.3-7.5-3.4-11.5-1.3   c-0.5,0.9-1.1,1.8-1.6,2.7c-6.3,2.1-13-0.8-18.9-2.7c-0.7-5.2,3.6-9.3,4.1-14.4c0.2-1,0.1-2.5,1.6-3c7.8,5.2,14.1-5,18.5-10.3   c1.5,0.5,2.7,1,3.9,1.4c0.7,1.1,1.4,2.3,2.1,3.4c-1.2,1.5-3.9,3.4-2.2,5.4C476.5,562.4,477.9,561.7,479.3,561.1z" />
	<path fill="#CDCCD9" d="M465.7,583.2c0.5-0.9,1.1-1.8,1.6-2.7c4-2.1,7.9-1,11.5,1.3c5.4,2.3,11.7,2.7,17.5,3.8   c3.4,0.3,19.9-3,10.2-6.3c1.2,0,2.3,0,3.3,0c5.4,14.1-20.4,6.7-27.5,7.3C476.1,582.4,472.8,580.5,465.7,583.2z" />
	<path fill="#C9C8D6" d="M465.7,583.2c0.3,0,0.6,0,0.8,0.1c-0.3,0.4-0.6,0.9-0.8,1.3c-7.9,1.1-13.7,0.2-22.2-3.7   c3.9-7.7,2.3-16.9,6.9-24.4c1.5,2.3,0.2,4.6,2.1,6.7c-1.5,0.5-1.4,2-1.6,3c-0.5,5.1-4.7,9.2-4.1,14.4   C452.8,582.5,459.5,585.3,465.7,583.2z" />
	<path fill="#F2F2F2" d="M463.4,557.7c-1.5,1.6-3.1,3.2-4.5,4.7c-5.2,0.2-6.2-0.9-5.6-5.7C456.8,557.1,460.1,557.7,463.4,557.7z" />
	<path fill="#202122" d="M479.3,561.1c-1.4,0.7-2.8,1.3-4.4,2.1c-1.8-2,1-3.9,2.2-5.4C477.8,558.8,478.6,560,479.3,561.1z" />
	<path fill="#93B5B5" d="M463.4,557.7c-0.9,0-1.7-0.1-2.6-0.1c0.8-0.7,1.7-0.8,2.8-0.6C463.6,557.3,463.5,557.5,463.4,557.7z" />
	<path fill="#B7BDD5" d="M425.8,235.1c0.3,1.2,0.6,2.5,0.9,4.1c0.5-0.5,0.7-0.8,1-1c3.9,3.2,5.2,3.7,9,3.8c-0.2-0.3-0.3-0.7-0.5-1   c1.4,0.2,2.9,0.4,4,1.6c-0.5,0.1-1.1,0.1-2.1,0.3c0.9,0.9,1.5,1.5,2.1,2.1c-0.7,1.8,2.1,2.2,1.5,4.6c-2.1,0.1-3.9,0.2-6.2,0.4   c1.6,2.3,3.6,1.8,5.5,2.9c-0.5,0.1-0.9,0.1-1.9,0.2c1.2,0.7,1.9,1.2,2.4,0c0.3,0.2,0.6,0.3,1,0.6c-2.7,4.7-6.8,3-10.9,1.3   c-0.6,1.8-0.2,3.3,1,5c3.2,0.4,5,2.6,6.4,5.5c-0.3,0.6-0.6,1.1-1,1.8c-1.3-0.2-2.6-0.5-4-0.7c1.8,12.8,0.7,24.9-1.9,37.5   c-3.7-0.3-7.4-0.7-11.1-1c-2.1-6.1,0.2-13.9-0.7-19.8c-2.6-10.8-4.4-21.7-5.7-32.7c0.4-1.5,4.1-4.7,1.2-5.4   c-0.6,1.1-1.2,2.3-1.9,3.5c0.3-5.2-4.5-8.1-5.6-12.7C414,236.7,419.7,238.1,425.8,235.1z M429.9,249.7c-0.9-0.7-1.9-1.4-3.2-2.4   c-0.5,2.7,3.3,4.8,5.8,3.6C431.3,250.3,430.6,250,429.9,249.7z M436.2,252.6c-0.9-1.1-1.6-1.9-2.8-1.1   C433.9,252.7,434.6,253.1,436.2,252.6z M431.5,262.8c-1.3-0.5-1.9-1.7-3.2-0.8C429.1,263.1,430,263.5,431.5,262.8z M417.3,241.6   c-1.1-0.9-2-0.3-1,0.7C416.6,242.1,416.8,241.9,417.3,241.6z M434.9,265c-0.2,0.2-0.1,0.3,0.1,0.5c0.1-0.2,0.1-0.3,0.2-0.5   C435.1,265,435,265,434.9,265z" />
	<path fill="#EDC9B9" d="M503.3,329.4c-5.2-18.6-24.1-36.7-16.9-56.7l0.2,0.2c0.8,15.7,7.2,31.5,15.8,44.6c-3-0.4-0.2,2.4,0.7,3.3   c-0.4,0-0.8,0-1.1,0c-1.7,1.8,1.4,3.2,1.3,0.6c0.9,1.6,1.1,3.3,1.3,5.1c-0.4-0.2-0.8-0.4-1.5-0.7c0,1.4,0,2.6,0,3.7L503.3,329.4z" />
	<path fill="#F5DACE" d="M496.2,260c0.2,0.5,0.4,1.1,0.7,1.6l0.1,0c-0.7,0-1.5,0-2.3,0c-0.2,1.7-0.4,3.3-0.6,4.8   c0.5,0.2,0.8,0.4,1.1,0.6c-0.1,1.2,0.7,2.5-0.7,3.4c0.2-0.8,0-1.6-0.5-2.3c-0.4,0.2-0.8,0.5-1.2,0.7c-7.8-6.2,0-15.8-2.5-23.8   c-0.5-2.6,0.5-4.8,3-6C496.3,245.7,493.7,253.2,496.2,260z" />
	<path fill="#B7BDD5" d="M446.5,308c2.4-5-0.5-11.5,3-16.6c4.3,2,2.1,12.8,2.7,17.5c0.4,0.3,1,0.8,1.6,1.3   C451.2,309.9,448.8,309.2,446.5,308z" />
	<path fill="#F0D7CC" d="M477.9,190.3c4.7,3.3,12.3,6.5,12.7,13.1c-0.5,0.3-1.1,0.5-1.6,0.8c-3.9-4.1-8.5-7.7-11.3-12.6   C477.7,191.1,477.8,190.7,477.9,190.3z" />
	<path fill="#161A32" d="M438.7,311.8c-4.9-1.9-10.5-1.5-15.4-3c1.4-0.7-0.8-1.2-1.5-1.6c0.9-0.3,0.9-1,0.8-1.7   c1.1,0,2.3-0.3,2.8,1.2c1.8-1.7,2.1-1.6,2.8,0.3c-0.5-0.2-0.9-0.3-1.6-0.6c0,0.8,0.1,1.4,0.1,2.1c1,0,1.9,0,2.9,0   c-0.6-0.6-1-1.1-1.4-1.5c1.6-0.2,3.4-1.4,4.7,0c0.1,2.2,2.2,3.3,3.2,0.8c0.3,0,0.6,0.1,1,0.1c0.2,0.7,0.4,1.4,0.5,1.7   c2.7,0.8,5,1.5,7.3,2.2c0,0.3,0,0.6,0.1,0.9C443,312.5,440.9,312.2,438.7,311.8z M423.7,306.7l0.2,0.1l0-0.2L423.7,306.7z" />
	<path fill="#465FB9" d="M419.6,308.6c-1.3,0.6-0.8,2.3-1.6,3.3c-0.2-0.9,0.3-2-0.8-3.1c-1.3,2-0.8,4-1,6.3   c-2.3,0.1-4.1,1.2-2.3,3.2c0.2,2-1.8,2.5-3.2,3.2c0.1-2.2,0.5-4.5-0.4-6.7c0.7-0.9,1.4-1.8,2.2-2.8l0,0c0.3-0.3,0.6-0.5,0.8-0.8   c0,0,0,0,0,0c0.3-0.3,0.6-0.5,0.8-0.8l0,0c0.3-0.3,0.5-0.6,0.8-0.9l0,0c0.5-0.5,1-1.1,1.6-1.6C417.5,308,418.7,307.4,419.6,308.6z" />
	<path fill="#E9C7B7" d="M488.8,262.2c0.8,2.4,2.5,5.2,4.1,6.6c0.1,0.8,0.1,1.5,0.2,2.3c-0.7,0.7-1.2,1.6-1.7,2.5   c-1.5-0.2-3.3-2-4.6-0.7l-0.2-0.2C487.3,269.2,488.1,265.7,488.8,262.2z" />
	<path fill="#272021" d="M480.2,195.3c2.9,2.9,5.9,5.9,8.8,8.8c0.2,1.3,0.9,2.6,0.8,3.9c-3.5-3.9-7.4-7.5-10.5-11.8   C479.6,196,479.9,195.7,480.2,195.3z" />
	<path fill="#4866C9" d="M445,311.9c-2.3-0.7-4.6-1.4-7.3-2.2c-0.1-0.3-0.3-1-0.5-1.7c4.2,1,8.4,2.8,12.6,4c0,0.2,0,0.4,0,0.7l0,0   c-0.9,0.2-1.7,0.5-2.6,0.7C446.5,312.9,445.8,312.4,445,311.9z" />
	<path fill="#4663C2" d="M451.5,312.6c1.8,0.3,3.6,0.6,5.4,0.9c0.1,0.2,0.1,0.5,0.1,0.8c-0.8,0.5-1.6,1.1-2.4,1.6   c-1.4-1.3-3.1-0.8-4.8-0.8l0,0c-0.1-0.8,0-1.6,0-2.4c0,0,0,0,0,0C450.4,312.7,451,312.6,451.5,312.6z" />
	<path fill="#151B35" d="M454.6,315.9c0.8-0.5,1.6-1.1,2.4-1.6l0,0c0.9,1.3,1.3,0.9,2.5-0.1c0.3,0.1,0.6,0.1,1,0.2   c0.5,0.7,1,1.4,1.5,2.1c-2.3,0.9-4.8,0.3-7.3,0C454.6,316.3,454.6,316.1,454.6,315.9z" />
	<path fill="#39373B" d="M480.2,195.3c-0.3,0.3-0.6,0.6-0.9,1c-1.6-2.2-3.2-4.3-4.7-6.5c0-0.3,0-0.5,0-0.8c0.8,0.1,1.8-0.3,2.4,0.7   C475.7,190.6,479.7,193.7,480.2,195.3z" />
	<path fill="#816C66" d="M489.7,207.4c-0.3-1.1-0.5-2.2-0.8-3.3c0.5-0.3,1.1-0.5,1.6-0.8c0.2,1.5,0.4,3,0.6,4.5   C490.7,207.7,490.2,207.6,489.7,207.4z" />
	<path fill="#3E59AE" d="M436.3,307.9c-1,2.5-3.1,1.3-3.2-0.8C434.2,307,435.3,307.3,436.3,307.9   C436.3,307.9,436.3,307.9,436.3,307.9z" />
	<path fill="#4C6AD0" d="M479.9,311.6c0.3,0.9,0.5,1.6,0.8,2.5c-0.6,0-1.1,0.1-1.5,0.1C478.6,313.2,478.3,312.3,479.9,311.6z" />
	<path fill="#9FAABC" d="M473.7,190.6c-0.5-1.3-1-2.7-1.5-4C474.1,187.2,475,188.9,473.7,190.6z" />
	<path fill="#4057A9" d="M422.6,305.5c0.1,0.7,0.1,1.4-0.8,1.7C420.8,306.2,421.3,305.2,422.6,305.5z" />
	<path fill="#0E0C10" d="M416.3,307.9c-0.5,0.5-1,1.1-1.6,1.6C414.6,308.4,415.1,307.8,416.3,307.9z" />
	<path fill="#151B35" d="M457,314.3c0-0.3,0-0.5-0.1-0.8c0.9-0.1,1.9-0.4,2.6,0.7l-0.3,0.2C458.5,314.4,457.7,314.3,457,314.3   L457,314.3z" />
	<path fill="#ACA9A9" d="M477.6,191.5c-0.5-0.5-1.6-0.9-0.6-1.9c0.3,0.2,0.5,0.5,0.8,0.7C477.8,190.7,477.7,191.1,477.6,191.5z" />
	<path fill="#161A32" d="M439.5,308.6c-0.6-0.2-1.2-0.4-1.8-0.6C438.4,307.9,439.1,307.8,439.5,308.6z" />
	<path fill="#161A32" d="M436.3,307.9c-0.5-0.3-1.1-0.5-1.6-0.8C435.3,307.1,436,307,436.3,307.9z" />
	<path fill="#33488C" d="M451.5,312.6c-0.6,0-1.1,0.1-1.7,0.1c0-0.2,0-0.4,0-0.7C450.4,312.2,451,312.4,451.5,312.6z" />
	<path fill="#0E0C10" d="M413.2,311.2c-0.3,0.3-0.6,0.5-0.8,0.8C412.6,311.7,412.9,311.4,413.2,311.2z" />
	<path fill="#0E0C10" d="M414,310.4c-0.3,0.3-0.6,0.5-0.8,0.8C413.5,310.9,413.7,310.6,414,310.4z" />
	<path fill="#0E0C10" d="M414.8,309.5c-0.3,0.3-0.5,0.6-0.8,0.9C414.2,310.1,414.5,309.8,414.8,309.5z" />
	<path fill="#EECABA" d="M425.9,229.8c-0.6,1-2.6,2-1.5,3.1c-0.7,0.3-1.3,0.6-2,0.9c-0.4-0.7-0.6-1.1-1-1.7c-4,3.9-9.4,2.9-14.2,0.2   c-3.7-10.6-3.1-22.1-3-33.2c-14.3-16.2-6.1-39.7-10.4-58.9c-0.7-0.4-1.3-0.8-1.8-1.1c1-4.5,1.1-8.7-0.6-13.2   c0.3-0.3,0.5-0.6,0.8-0.9c0.8,1.1,1.6,2.1,2.4,3.2c0,2.3-1.2,4.4,0.5,6.4c1.8-2.4,1.1-4.8,1.2-7.2c-1.6-2.2-2.8-4.3-3.8-6.9   c-0.4,0.2-0.7,0.3-1.1,0.4c-0.5-0.3-1.1-0.5-1.6-0.8c-3.2-13.1-1.4-26.9,0.4-40.2c-0.3-0.6-0.6-1.3-1-2.1   c1.9-7.7,0.8-17.6,6.8-23.4c-2.3,22.6-10.2,58.1,5.5,77.1c-4.1,21.7-1.6,44.4,11.4,62.8c0,0.5,0,1.1,0,1.6   c-3.1,2.6-2.8,7.4-2.1,11.1c0.6,0.1,1,0.1,1.3,0.2c0.1,8.1,5.8,15.8,9.7,22.8c1.5,0.4,1.9-1,2.8-1.4   C424.9,229.5,425.3,229.8,425.9,229.8z" />
	<path fill="#46434B" d="M414.1,248.6c0.6-1.2,1.3-2.4,1.9-3.5c2.9,0.6-0.8,3.8-1.2,5.4C414.5,249.8,414.3,249.2,414.1,248.6z" />
	<path fill="#B4998E" d="M390,120.3c0.5,0.3,1.1,0.5,1.6,0.8c0.2,1.3,0.5,2.7,0.7,4c-0.3,0.3-0.5,0.6-0.8,0.9   C390.5,124.2,390,122.4,390,120.3z" />
	<path fill="#373A46" d="M434.7,22.9c6.1,16.5-5.8,52.7-27.8,39.9c-1.2-4.1,1.7-7.6,0.1-11.5c1.3-5.1,8.3-5.4,10.7-8.7   c2.1-4.5,2.9-12.7-2-14.1c-1.8,0.2-3-0.8-4.2-1.8c-0.7,0.5-1.2,0.8-1.8,1.2c-1.3-0.9-1.8-2.5-3.8-1.8C411.1,9.4,428.2,3,434.7,22.9   z" />
	<path fill="#4B4F5C" d="M398,33.3c0.1-6.4,0.1-12.4-1.7-18.3c3.3-2.5,3,2.5,4.8,4c0.7,4.8,1.2,9.5,0.8,14.4   C400.6,33.3,399.3,33.3,398,33.3z" />
	<path fill="#34363F" d="M398,33.3c1.3,0,2.6,0,4,0c0.2,2.3-1.1,6.4,2.4,6.4c-0.7,0.3-1.3,0.6-2.4,1.1c-0.2,0.4-0.5,1.2-0.9,2   c-0.4-0.7-0.8-1.4-1.4-2.3c-1,0-2.2,0-3.3,0C396.9,38.1,397.5,35.7,398,33.3z" />
	<path fill="#494C57" d="M404.3,34.8c0.5-0.5,1.1-1,1.6-1.5c0.5,0,1.1,0,1.6,0c0.3,0.2,0.5,0.5,1.1,0.9c0.4-0.6,0.8-1.1,1.1-1.6   c1.3,0.1,1.7,0.7,1.7,2.7c-3,0-6.2,2.1-8.9,0.1C403.4,35.2,403.8,35,404.3,34.8z" />
	<path fill="#34363F" d="M402,32.6c0-2.2,0-4.4,0-6.5c0.8,0.2,2-0.4,2.2,1c-1.3,1.9-0.4,4.6-0.5,6.8C403.1,33.5,402.6,33.1,402,32.6   z" />
	<path fill="#CAB7AD" d="M407.5,33.4c-0.5,0-1.1,0-1.6,0c0.3-1.8-1.2-4.9,0.8-5.8C408.7,29.2,408.6,31.2,407.5,33.4z" />
	<path fill="#CDBFB5" d="M415.5,32.5c-0.5,0.3-0.9,0.5-1.4,0.8c-0.3-2.1-2.6-1.3-3.4-3.3c0.1-0.4,0.3-0.8,0.4-1.2   C412.8,29,415,30.5,415.5,32.5z" />
	<path fill="#C5A79E" d="M403.7,33.9c0-0.7-0.1-1.5-0.1-2.2c0.2,0,0.5,0,0.7,0c0.6,0.7,0.5,1.5,0,2.2C404.1,34,403.8,34,403.7,33.9z   " />
	<path fill="#363945" d="M388.4,60.5c-3.3,1.7-6.7,2.9-11,2.1c5.2-1.3,9.4-4.1,12.6-8.5c0.7,1.1,2.1,1.1,3.2,1.6   C392,57.8,390.3,59.1,388.4,60.5z" />
	<path fill="#252424" d="M391.5,58c1.2-2,2.7-3.6,4.4-5.3c0.2,0.2,0.4,0.4,0.5,0.6c-0.1,0.4-0.1,0.9-0.2,1.3   c-1.6,1.5-2.9,3.1-3.8,5.1C392.3,59.1,392.4,58.3,391.5,58z" />
	<path fill="#4B4F5C" d="M435.4,20.6c0.7,0,1.3,0,1.7,0c4.2,4.3,3.8,11.1,3.8,16.7c-1.4,0.1-2.7,0.1-3.9-0.8   C437.6,31,436.5,25.8,435.4,20.6z" />
	<path fill="#7F736D" d="M404.3,31.8c-0.2,0-0.5,0-0.7,0c0.1-1.6-0.5-3.3,0.6-4.6C404.2,28.7,404.3,30.2,404.3,31.8z" />
	<path fill="#FBDFD3" d="M486.7,272.9c1.8-1.9,4.6,2.1,6.4,0.7c0.9-1,0.8-1.1-0.5-1.4c-0.1,0.1-0.3,0.1-0.4,0c1.8-2,4-1.9,3.1-5.2   c1.7-1.4,1.7-3.4,1.7-5.4l-0.1,0c11.3,15.7,5.8,38,9.7,56.1c5.1,8.1,6.1,19,10.1,28c1.6,6.2-1.5,13-3.9,18.7c-1.6,1.8-2,8.1-4,8.2   c-0.2-6.1,4.8-11.6,2.5-17.7c1.5-1,0.3-2.7,0-3.9l0,0c0.7-0.3,0.4-0.7,0.1-1c-1-2,2.1-6.5-0.6-6.8c-1.1,2.2-0.3,5.3-1.9,7   c-4.5-1.5-5.7-14.6-1.2-17.2c-1-0.7-1.4-0.1-2.3,0.2c-0.4,0.1-0.6,1.1-1.2,0.3c0.7-1.5-0.7-2.7-0.8-4l0,0.1c0.5,0.1,1,0.1,1.7,0.2   c-0.3-3.8-0.3-7.9-3.3-10.6c0.7-0.3,0.8-0.9,0.8-1.6C493.9,304.4,487.6,288.6,486.7,272.9z" />
	<path fill="#E7C6B8" d="M505.7,335.2c-1.8,3.5-0.9,13.6,3.2,15c0.5,3.2,2.6,9-0.9,11c-1.2-2.3-1.5-5.3-1.5-8   c-0.7-6.1-6.1-10.8-3.2-17.4c0.2-0.1,0.2-0.3,0.2-0.5C504.2,335.3,505,335.2,505.7,335.2z" />
	<path fill="#382B29" d="M505.7,335.2c-0.8,0.1-1.5,0.1-2.3,0.2c-0.2-0.8-0.3-1.5,0.7-1.9c0.6,0.8,0.8-0.1,1.2-0.3   c0.9-0.3,1.3-0.9,2.3-0.2C507,333.7,506.4,334.4,505.7,335.2z" />
	<path fill="#C2B0A7" d="M508.1,367.7c-2.2,1.7-0.5,3.7-2,5.3c-3.3-2.5,0-6.8,0.9-9.8c0.7-0.3,1.4-0.5,2.5-0.9   C509.3,364.4,509,366.1,508.1,367.7z" />
	<path fill="#8B7973" d="M509.8,347.1c0.3-1.3,0.7-2.7,1-3.9c2.4-0.1,0.3,3.3,0.5,4.7c-0.2,0-0.4-0.1-0.7-0.1   C510.3,347.5,510.1,347.3,509.8,347.1z" />
	<path fill="#C2B0A7" d="M509.7,367.7c-1,1.6-0.7,3.3-0.8,5c-1.3-1.3-0.6-3.3-0.7-5C508.6,367.7,509.1,367.7,509.7,367.7z" />
	<path fill="#2D2422" d="M511.3,351c0.2,1.3,1.4,3,0,3.9C511,353.7,509.6,351.7,511.3,351z" />
	<path fill="#2D2422" d="M509.6,352.8c-0.2-0.9-0.5-1.7-0.7-2.6c0.3-0.3,0.5-0.5,0.8-0.8C509.7,350.5,509.7,351.7,509.6,352.8z" />
	<path fill="#2D2422" d="M511.4,350c0.3,0.4,0.6,0.7-0.1,1C511.3,350.7,511.4,350.3,511.4,350z" />
	<path fill="#2D2422" d="M509.7,349.4c0-0.3,0.1-0.5,0.1-0.8C510.5,349,510.3,349.2,509.7,349.4z" />
	<path fill="#2D2422" d="M509.8,347.1c0.3,0.2,0.5,0.4,0.8,0.7c-0.3,0-0.5,0-0.8,0.1C509.7,347.6,509.7,347.3,509.8,347.1z" />
	<path fill="#4B4F5D" d="M440.2,45.3c-2.2,5.4-3.9,11.9-8.7,16c-0.7-1.5-2.1-0.6-3.1-0.8c3.8-4.7,6.1-10.2,7.9-15.9   c1.3,0,2.6,0,3.9,0.1C440.2,44.8,440.2,45,440.2,45.3z" />
	<path fill="#353944" d="M428.3,60.5c1,0.3,2.4-0.6,3.1,0.8c-2.9,4.6-7.4,5.8-12.5,6C422.1,65.1,425.5,63.3,428.3,60.5z" />
	<path fill="#373A46" d="M440.2,44.6c-1.3,0-2.6,0-3.9-0.1c0.5-2.6,1-5.3,0.8-8c1.2,0.9,2.5,0.9,3.9,0.8   C441.2,39.9,440,42,440.2,44.6z" />
	<path fill="#373A46" d="M397.2,19.7c0.7,0.3,0.7,1,0.7,1.7c-0.3,0-0.5-0.1-0.8,0C397.2,20.8,397.2,20.3,397.2,19.7z" />
	<path fill="#4C505D" d="M396.5,53.4c-0.2-0.2-0.3-0.4-0.5-0.6c-0.9,1-1.9,1.9-2.8,2.9c-1.1-0.4-2.4-0.5-3.2-1.6   c2.3-3.5,4.4-7.1,5.7-11.2c1-0.5,0.5-1.5,0.7-2.4c1.1,0,2.3,0,3.3,0C403.5,45,397.1,48.9,396.5,53.4z" />
	<path fill="#373A46" d="M396.3,41.3c0,0.7,0.1,1.3-0.7,1.7c0-0.5-0.1-1.1-0.1-1.6C395.8,41.3,396.1,41.3,396.3,41.3z" />
	<path fill="#9E746E" d="M475.8,144c1.5-0.6,2.2-0.9,3-1.3C479.9,144.8,477.5,144.1,475.8,144z" />
	<path fill="#343843" d="M377.2,25.3c2.3,12.2-11,12.8-6.1,0.4c0.3,0.6,0.6,1.1,0.9,1.7c0.3-0.5,0.6-0.9,1-1.6   c0.8,0.7,1.2,1.1,1.7,1.5c-0.5,1.6-1,3-1.5,4.6c4.6-2.4,3.9-7.2-1-7.9C374.9,22.8,374.4,22,377.2,25.3z M371,28.9l0.2,0.1l0-0.2   L371,28.9z" />
	<path fill="#202023" d="M472.9,263.1c0.6-5,0.3-10.2,1.4-15c3,4.9,0.1,13.2-0.6,19C472.7,265.9,472.9,264.5,472.9,263.1z" />
	<path fill="#121314" d="M469.9,287.1c0-0.8,0-1.6,0-2.4c2.5-3.5-1.5-11.1,2.3-13.5c2.8,4.2-0.1,9.7-0.9,14.2   c-0.8,0.3-0.9,1-0.7,1.7l0,0C470.4,287.1,470.2,287.1,469.9,287.1z" />
	<path fill="#232125" d="M454.5,262.2c1.4-3.6,4.1-7.4,7.9-8.7c0.5,2.5-5.8,6.6-6.9,9.7C455.1,262.9,454.8,262.5,454.5,262.2z" />
	<path fill="#1D181B" d="M436.2,240.9c0.2,0.3,0.3,0.7,0.5,1c-3.9-0.1-5.1-0.6-9-3.8c0.1-0.9,0.1-1.2,0.9-1.9   C431.3,237.5,433.6,239.5,436.2,240.9z" />
	<path fill="#36343A" d="M468.1,247.2c1.8-3,3.6-6.1,5.4-9.2c2.6,2.1-2.8,8-4.6,10C468.7,247.7,468.4,247.5,468.1,247.2z" />
	<path fill="#393C42" d="M469,299.1c0.2-2.7-1.4-5.6,0.3-7.9c2.1,2.4,1.1,5.2,0.3,7.9C469.5,299.1,469.3,299.1,469,299.1z" />
	<path fill="#2D2B30" d="M449.9,283.1c-0.3-4.8-0.3-4.8,1.2-7.2C452.5,278.3,451.2,281.2,449.9,283.1z" />
	<path fill="#656770" d="M472.8,272.1c-0.2-0.3-0.4-0.5-0.7-0.8c0.2-2.7-0.5-5.6,0.7-8.2c0.1,1.4-0.1,2.8,0.8,4   C473.4,268.7,473.1,270.4,472.8,272.1z" />
	<path fill="#63616A" d="M466.2,290.4c-1.4,2.5-1.4,2.5-5,1.9C462.9,291.7,464.5,291.1,466.2,290.4z" />
	<path fill="#5B4F57" d="M469.1,274.4c-2,1-4.1,0.8-6.2,0.5c1.2-0.6,2.5-1.2,3.8-1.2C467.2,274.7,468.3,274.1,469.1,274.4z" />
	<path fill="#7B808E" d="M449.9,283.1c0.8-0.9,1.2-2.1,1.5-3.2c0,1.3,0,2.7,0.1,4c-0.6,0.8-1.1,1.6-1.5,2.4   C449.9,285.3,449.9,284.2,449.9,283.1z" />
	<path fill="#60636D" d="M467.5,310.3c-0.3-2.1-0.4-3.5,1.1-4.7C469.5,307.4,468.7,308.6,467.5,310.3z" />
	<path fill="#727784" d="M468.1,247.2c0.3,0.3,0.6,0.6,0.8,0.8c-0.6,1.1-1.4,2.2-3.3,2.5C466.4,249,467,247.9,468.1,247.2z" />
	<path fill="#535860" d="M449.9,286.4c0.5-0.8,1-1.6,1.5-2.4c0,1.4,0,2.9,0,4.3C449.7,288.3,449.7,287.4,449.9,286.4z" />
	<path fill="#2F2A2E" d="M440.2,244.8c-0.6-0.6-1.2-1.2-2.1-2.1c1-0.1,1.6-0.2,2.1-0.3c0.6,0.6,1.2,1.1,2.1,2   C441.3,244.7,440.8,244.7,440.2,244.8z" />
	<path fill="#494C53" d="M454.5,262.2c0.3,0.3,0.6,0.7,0.9,1c-0.8,1.1-0.4,2.8-2.2,3.7C453.7,265.1,453.5,263.5,454.5,262.2z" />
	<path fill="#4D3F46" d="M443.5,243.7c1.3-1,2-0.2,2.9,0.6C444.8,245.1,444.8,245.1,443.5,243.7z" />
	<path fill="#453C42" d="M452.1,244.5c-1.3,0.8-2.1,0.1-2.8-1C450.6,242.7,451.4,243.3,452.1,244.5z" />
	<path fill="#89909E" d="M469,299.1c0.2,0,0.5,0,0.7,0c0.2,1.2,0.2,2.3-1.1,3C467.7,300.8,468.7,300,469,299.1z" />
	<path fill="#3A3F45" d="M470.5,280.6c0.1,1.4,0.6,2.9-0.6,4.2C469.8,283.3,469.7,281.9,470.5,280.6z" />
	<path fill="#210F11" d="M469.1,274.4c-0.8-0.3-1.9,0.3-2.4-0.8C467.5,273.3,470.9,272.9,469.1,274.4z" />
	<path fill="#3A3F45" d="M469.9,287.1c0.3,0,0.5,0,0.8,0.1c-0.1,0.6-0.2,1.3-0.2,1.9c-0.1,0-0.3,0-0.4,0   C470,288.4,469.9,287.8,469.9,287.1z" />
	<path fill="#37363C" d="M441.6,252.9c-0.5,1.2-1.2,0.7-2.4,0c0.9-0.1,1.4-0.2,1.9-0.2C441.2,252.8,441.4,252.9,441.6,252.9z" />
	<path fill="#B7BDD5" d="M436.2,240.9c-0.5-0.3-1-0.6-1.5-0.8C435.4,240,436,240.1,436.2,240.9z" />
	<path fill="#1E0A0B" d="M476.6,224.1c0.2,0.1,0.4,0.2,0.6,0.3c-0.3,0.5-0.5,0.4-1,0.2C476.4,224.4,476.5,224.3,476.6,224.1z" />
	<path fill="#3A3F45" d="M470.7,287.2c-0.2-0.7-0.1-1.3,0.7-1.7C471.4,286.2,471.4,286.9,470.7,287.2z" />
	<path fill="#9FAABC" d="M474.5,193.1c-0.2-0.6-0.4-1.2-0.5-1.8C474.7,191.8,474.6,192.4,474.5,193.1z" />
	<path fill="#9FAABC" d="M474.6,189.8c0.2,0.3,0.4,0.6,0.6,0.9C475,190.3,474.8,190,474.6,189.8z" />
	<path fill="#231D1C" d="M412.3,207.4c-0.4,0-0.8-0.1-1.3-0.2c-0.6-3.7-1-8.4,2.1-11.1l-0.1-0.1   C413.2,199.9,412.1,203.6,412.3,207.4z" />
	<path fill="#221D1C" d="M410.7,172.3c1.2,2.4,3.9,6.1,2.3,8.5c-2-1.4-2-5.3-3.2-7.6C410.1,172.8,410.4,172.6,410.7,172.3z" />
	<path fill="#272322" d="M401.2,55.6c-0.4-2.6-0.4-5.3,2-7c0.4,2.8-0.5,4.9-1.3,7C401.7,55.7,401.5,55.6,401.2,55.6z" />
	<path fill="#6A5E59" d="M404.9,161.1c1.1,2.3,2.8,4.3,3.5,6.7c-1.6,1.7-4.4-5.5-3.9-6.8L404.9,161.1z" />
	<path fill="#514441" d="M413.1,196.2c0-2.3,0.6-4.6,2.7-5.9c-0.1,2.5-1.1,4.1-2,5.7C413.6,196.1,413.3,196.1,413.1,196.2   L413.1,196.2z" />
	<path fill="#776965" d="M404.9,161.1l-0.4,0c-1.3-1.2-0.7-2.9-1.7-4.3c0.6-0.2,1-0.2,1.3-0.3C404.3,158,404.6,159.5,404.9,161.1z" />
	<path fill="#DBC2B8" d="M404.4,122.9c-0.3-1.8,0.6-2.8,1.1-4.9c0.6,1.7,0.4,2.9,0.3,4.2C405.3,122.4,404.9,122.6,404.4,122.9z" />
	<path fill="#8A7C77" d="M401.4,69.9c-0.5-1.5-0.5-2.6,0.1-3.7C403,66.8,403,66.8,401.4,69.9z" />
	<path fill="#5B514D" d="M404.4,122.9c0.5-0.2,0.9-0.5,1.4-0.7c-0.1,1.3,0.2,2.6-1,3.8C404,124.8,404.5,123.8,404.4,122.9z" />
	<path fill="#81746E" d="M402.4,151.5c-0.7-1.7-0.4-2.4,0.8-2.9C403.6,149.6,404.2,150.7,402.4,151.5z" />
	<path fill="#C4AFA7" d="M399.8,76.1c-0.3-1.1-0.9-2.2,0.9-2.8C401.4,74.6,401.2,75.5,399.8,76.1z" />
	<path fill="#AD9C95" d="M405.6,106.1c0.2,0.9,0.5,1.4-0.4,2.2C404.3,107.6,403.8,106.1,405.6,106.1z" />
	<path fill="#554946" d="M425.9,229.8c-0.6,0-1-0.3-1.1-1c0.7-0.8,1.4-1.6,2.4-2.7C427.8,228,426.3,228.7,425.9,229.8z" />
	<path fill="#745F5A" d="M417.9,185.6c-0.1,0.7-0.1,1.4-0.2,2.3C416.7,186.9,416.7,186.9,417.9,185.6z" />
	<path fill="#1B1A19" d="M416.8,179c-0.8-1.8-0.9-2.9-0.1-4.2C417.6,176.1,417.5,177.3,416.8,179z" />
	<path fill="#564E4B" d="M401.7,63.4c-0.6-0.6-1-1.1-0.9-1.9C402,60.9,402.3,62.6,401.7,63.4z" />
	<path fill="#6F5C58" d="M410.7,172.3c-0.3,0.3-0.6,0.6-0.9,0.9c-0.7-0.6-1-1.4-0.4-2.6C409.9,171.2,410.3,171.7,410.7,172.3z" />
	<path fill="#5E524F" d="M405.1,114.5c0-0.7,0.1-1.3,0.1-2c0.1,0,0.3,0,0.4,0c0.1,0.6,0.2,1.2,0.3,1.9   C405.6,114.4,405.4,114.5,405.1,114.5z" />
	<path fill="#5B5957" d="M401.2,55.6c0.2,0,0.5,0,0.7,0c-0.1,0.7-0.1,1.4-0.2,2.2c-0.2,0-0.3,0-0.5,0   C401.2,57.1,401.2,56.4,401.2,55.6z" />
	<path fill="#EECABA" d="M413.1,196.1c0.3,0,0.5-0.1,0.8-0.1c0.1,0.7,0.2,1.4-0.7,1.7C413.1,197.2,413.1,196.7,413.1,196.1z" />
	<path fill="#3B312E" d="M458.9,192.8c2.7,0.7,5.2,1.6,7.7,3.8c-3.6,0.6-6.3-1.9-9.6-2.9c0-0.5,0-1,0.1-1.5   C457.7,192,458.3,192.7,458.9,192.8z" />
	<path fill="#4D4642" d="M470.4,205.4c-1.3-0.6-1.8-1.4-1.4-2.9C470.4,203.2,470.9,204,470.4,205.4z" />
	<path fill="#5F4440" d="M457.1,192.3c0,0.5,0,1-0.1,1.5c-0.8,0-1.4-0.3-1.3-1.4C456.1,192.3,456.6,192.3,457.1,192.3z" />
	<path fill="#010101" d="M453.8,190.6c0.2,0.1,0.4,0.1,0.6,0.2c-0.1,0.1-0.2,0.2-0.3,0.4C454,190.9,453.9,190.7,453.8,190.6   L453.8,190.6z" />
	<path fill="#5F4440" d="M458.9,192.8c-0.4-0.2-0.7-0.3-1.1-0.5C458.2,192.5,458.6,192.7,458.9,192.8z" />
	<path fill="#5B4A44" d="M451.4,177c-1.4-2.2-2.8-4.4-4.1-6.6c2.3-1.6,3.5,4.3,5,5.7C452,176.4,451.7,176.7,451.4,177z" />
	<path fill="#A38F84" d="M451.4,177c0.3-0.3,0.6-0.6,0.9-0.9c0.2,0,0.5,0.1,0.7,0.1c0.3,1.2,1.8,1.8,1.5,3.2l0.1,0   C452.8,179.3,451.3,179.8,451.4,177z" />
	<path fill="#372C29" d="M454.6,179.4c0.3-1.4-1.2-2-1.5-3.2c2.1-0.4,3.3,1.8,3.2,3.9C455.6,179.9,455.1,179.7,454.6,179.4z" />
	<path fill="#B4978C" d="M458.2,183.6c0.7,0.4,1.5,0.8,0.8,1.9C458.3,185.1,457.6,184.7,458.2,183.6z" />
	<path fill="#3E2F2C" d="M461.2,189.6c0-0.5-0.1-0.9-0.2-2.1c0.8,1,1.1,1.4,1.6,2C461.8,189.6,461.5,189.6,461.2,189.6   C461.2,189.6,461.2,189.6,461.2,189.6z" />
	<path fill="#673F3A" d="M453,179.4c0.6,0,1.1,0,1.7,0C454,180.6,453.8,180.6,453,179.4z" />
	<path fill="#433834" d="M430.1,211.7c1.3,3.1,0.4,6-0.7,8.9C428.8,217.5,428.8,214.5,430.1,211.7z" />
	<path fill="#443A35" d="M431.7,208.1c-1.6-2.1-4.4-3.8-3-7c1.3,2.2,2.5,4.2,3.7,6.2C432.1,207.5,431.9,207.8,431.7,208.1z" />
	<path fill="#493F3A" d="M431.7,208.1c0.2-0.3,0.4-0.5,0.6-0.8c1.2,1.2,2,2.7,2.4,4.5C432.8,210.7,432.8,210.7,431.7,208.1z" />
	<path fill="#78645C" d="M428.1,200.1c-1.5-0.9-1.8-2.2-1.9-3.6C427.4,197.4,428.4,198.3,428.1,200.1z" />
	<path fill="#010101" d="M461.8,129.9C461.7,129.8,461.5,129.6,461.8,129.9C461.5,129.6,461.7,129.8,461.8,129.9L461.8,129.9z" />
	<path fill="#010101" d="M454.4,133.7c-0.1-0.1-0.2-0.2-0.3-0.2c0.2-0.1,0.4-0.3,0.5-0.4C454.6,133.3,454.5,133.6,454.4,133.7z" />
	<path fill="#A8988C" d="M442.5,150.3c-0.1,0.1-0.2,0.2-0.3,0.2c-0.3-0.2-0.2-0.3,0-0.5C442.3,150.1,442.4,150.2,442.5,150.3z" />
	<path fill="#4B66C6" d="M458.7,328.7c-5.7,7.7-2.9,19.2-6.4,27.5c-2.3-11.8-0.5-26.6,2.1-39c3.4,3.3,1.3,7.5,1.9,11.9   c0.6-0.6,1-1,1.5-1.4C458,328.1,458.3,328.4,458.7,328.7z" />
	<path fill="#4C66C8" d="M474.5,359.6c5.9,3.6,6.1,9.9,6.4,16c-3.8-3.1-3.3-9.2-6.6-13.1C473.9,361.7,473.5,360.9,474.5,359.6z" />
	<path fill="#4D68CB" d="M484,342.2c-2.9-5.6-4.7-11-4.4-17.3C483.4,329.4,483.7,336.3,484,342.2z" />
	<path fill="#4C66C7" d="M466.5,335.1c-2-4.9-3-9.9-3.9-15.2c3.9,1.9,2.7,5.7,5.5,8.1C465.8,329.5,466.8,332.7,466.5,335.1z" />
	<path fill="#293565" d="M473,359c-1.3,0.8-0.4,2.5-1.3,3.6c-1.3,1.6-2.3,3.6-2.6,5.6c-1,2.8,0.4,7.1-2,9c-1.6-7.5,2.7-13.6,5.6-21   C472.9,357.7,472.9,358.3,473,359z" />
	<path fill="#3E4E8D" d="M471.7,318.8c1.4,1.8,1.4,2.3,1.3,4.2c-0.3,5.5,1.7,9.9,1.5,15.5C471.3,332.3,472.3,325.5,471.7,318.8z" />
	<path fill="#222A4B" d="M474.1,342.8c1.4,3.7,2.3,9.5-0.2,12.7C473.5,351.1,473.9,346.9,474.1,342.8z" />
	<path fill="#252F56" d="M446.8,327.7c-1.6-3.6-2.3-7.4-2.4-12.3c2.8,3.6,2,7.4,3.1,11.6C447.3,327.2,447,327.5,446.8,327.7z" />
	<path fill="#28335F" d="M466.5,335.1c0.3-2.4-0.7-5.5,1.6-7.1c0.2,6.2,0.2,6.2-1,8.6C466.9,335.9,466.7,335.5,466.5,335.1z" />
	<path fill="#3C4C8C" d="M430.7,370.2c0.5-3.1,0.5-5.7,2.7-7.9C433.3,365.2,432.3,368.4,430.7,370.2z" />
	<path fill="#313D71" d="M458.7,328.7c-0.3-0.3-0.6-0.6-0.9-0.9c0.5-1.3,1.1-2.7,1.6-3.9c-0.4-0.6-0.7-1-1.1-1.5c0.6,0,1.1,0,1.6,0   C461.1,324.9,459.5,326.7,458.7,328.7z" />
	<path fill="#42559D" d="M446.8,327.7c0.3-0.2,0.5-0.5,0.8-0.7c1.2,2,2.4,4,3.5,6C448.6,333.7,448.2,329.2,446.8,327.7z" />
	<path fill="#33488C" d="M449.8,312.7c0,0.5,0,1.1,0,1.6c-0.8,0.1-1.7-0.4-2.2,0.6c-1.3-0.2-1.9-1.2-2.5-2.1c0-0.3,0-0.6-0.1-0.9   c0.8,0.5,1.5,1,2.3,1.4C448.1,313.1,449,312.9,449.8,312.7z" />
	<path fill="#222448" d="M454.6,315.9c0,0.2,0,0.4,0,0.7c-0.9,0.1-1.7,0.1-2.4-0.5c-0.8-0.4-2,0.2-2.4-1   C451.5,315.1,453.3,314.6,454.6,315.9z" />
	<path fill="#42549B" d="M481.8,354.2c-1-0.4-1.7-1-2.1-2.3C481.3,352,481.8,352.9,481.8,354.2L481.8,354.2z" />
	<path fill="#222448" d="M447.6,314.9c0.5-1,1.4-0.5,2.2-0.6c0,0.3,0,0.5,0,0.8C449.1,315.1,448.3,315,447.6,314.9z" />
	<path fill="#040303" d="M466.1,316.1c0.3,0.1,0.6,0.1,1,0.2c-0.3,0.3-0.6,0.1-1,0C466.1,316.2,466.1,316.2,466.1,316.1z" />
	<path fill="#4663C2" d="M452.2,316.1c0.3,0.2,0.6,0.3,1,0.5C452.9,316.4,452.5,316.2,452.2,316.1z" />
	<path fill="#42549B" d="M481.8,354.2c0.2,0.1,0.4,0.2,0.6,0.3C481.8,355,481.9,354.4,481.8,354.2L481.8,354.2z" />
	<path fill="#141A32" d="M408.2,393.3c0.5,7,1.5,14.1,0,21c-0.3,1.9-1.1,3.7,0.5,6c-4.2-1.6-1.1-6.6-1.7-9.9   c0.4-8.6-0.9-17.2-0.2-25.8c0.5-0.1,1,0,1.4-0.1C407.3,387.3,406.9,390.7,408.2,393.3z" />
	<path fill="#2C3B73" d="M408.2,393.3c-2.6-3.9,1.8-9.2-0.8-12.9c0.5-2.8,0.9-5.6,1.4-8.6c1.8,0.9,0.9,3.4,0.9,5.1   c-2.2,6,1.8,10.6,1.7,16.5c-1.6-2.3-2.1-4.4-2.4-7C407.6,388.8,408.6,390.9,408.2,393.3z" />
	<path fill="#3A4C91" d="M416.9,419.1c0.8-6.2-1.9-10.9-2.2-16.7C417.7,407.3,418.9,415.7,416.9,419.1z" />
	<path fill="#32417B" d="M411.5,353.4c0.8-5.5,1.6-9.5,2.9-15.4c0.7,6.3-1.5,11.6-2.1,17.8C411.1,355.2,411.7,354.2,411.5,353.4z" />
	<path fill="#0C0F1D" d="M426.6,320.6c0.9-2.6,2.4-4.8,3.6-7c3.7,1.4-1.8,6.6-3.6,8.1C426.7,321.3,426.6,320.9,426.6,320.6z" />
	<path fill="#394C92" d="M415.4,315.2c0.3,0,0.5-0.1,0.8-0.1c0.3,0.3,0.6,0.5,0.9,0.8c-1,4.5-0.3,9-1.3,13.5   c-1.2-4.4,0.9-8.7-1-12.7C415,316.2,415.2,315.7,415.4,315.2z" />
	<path fill="#2A3667" d="M417.8,373.3c1.9,1.9,5.2,2,6.4,5c-2.4,0.5-4.7-3.2-7-4.4C417.4,373.8,417.6,373.5,417.8,373.3z" />
	<path fill="#3D529E" d="M411.5,353.4c0.2,0.8-0.4,1.9,0.8,2.4c-0.6,2.2-1.1,4.5-1.7,6.7c-0.1,0-0.3,0-0.4,0   c-0.1-0.4-0.3-0.9-0.2-1.2C411.3,358.7,409.9,355.6,411.5,353.4z" />
	<path fill="#232D56" d="M417.1,315.9c-0.3-0.3-0.6-0.5-0.9-0.8c0.1-2.2-0.3-4.2,1-6.3C418.9,311.1,417.4,313.4,417.1,315.9z" />
	<path fill="#3B4D93" d="M415.5,355.8c2.3,0.1,3.1,2.2,4.4,3.8C417.8,359.4,417,357.1,415.5,355.8L415.5,355.8z" />
	<path fill="#27315E" d="M415.4,315.2c-0.4,1.1-0.9,2.1-1.5,3.1C412.6,316.6,413.1,315.6,415.4,315.2z" />
	<path fill="#2C3B73" d="M407.5,384.5c-0.2,0-0.5,0-0.7,0.1c0.1-1.4-0.5-2.9,0.6-4.2l0.2,0.2C407.6,381.9,407.6,383.2,407.5,384.5z" />
	<path fill="#29315D" d="M426.6,320.6c0,0.4,0.1,0.7,0.1,1.1c-0.4,0.4-0.8,0.8-1.3,1.4C425,321.5,425.9,321.1,426.6,320.6z" />
	<path fill="#3B4D93" d="M415.5,355.8c-0.2-0.1-0.4-0.2-0.5-0.3C415.1,355.6,415.3,355.7,415.5,355.8L415.5,355.8z" />
	<path fill="#E9C6B7" d="M422,448.9c-0.3,0.5-0.6,1.1-1,1.8c-4.6-1.7-3.3-11.8,1-6.3c-0.5,0-0.9,0-1.3,0   C419.8,446.5,421.4,447.5,422,448.9z" />
	<path fill="#2E2826" d="M414.6,464.4c2.1,2.9,2.5,6.3,3,9.7c-2.9,2.6-2.9-7.1-4-8.8C414,465,414.3,464.7,414.6,464.4z" />
	<path fill="#AF9E96" d="M395.8,494.8c0.2,3.4-1.8,6.7-0.5,9.9c0.4,0.9,0.3,1.8-0.8,2.3C393.2,502.8,394.4,498.7,395.8,494.8z" />
	<path fill="#221C1A" d="M422,448.9c-0.5-1.4-2.2-2.4-1.4-4.5c0.4,0,0.9,0,1.3,0c1.1,1.6,2.2,3.1,3.3,4.7c-0.4,0.4-0.7,0.7-1.1,1.1   C423.4,449.7,422.7,449.3,422,448.9z" />
	<path fill="#544744" d="M423.5,432.4c0,0.3,0,0.7,0,1c-0.2,0.2-0.4,0.5-0.5,0.5c-2.4-0.1-2.7,1.6-3.4,3.5c-0.3-0.3-0.6-0.6-0.9-1   c0.5-1.4,0.5-3,1.7-4C421.4,432.3,422.4,433.4,423.5,432.4z" />
	<path fill="#AA9086" d="M410.7,457.9c1.4,1.6,2.7,3.6,2.2,5.8c-1-1.6-2-3.3-3-5C410.2,458.4,410.4,458.2,410.7,457.9z" />
	<path fill="#C5B0A7" d="M400.3,472.2c-0.5,1.6-1,3.3-1.5,4.9l0,0c-1.3-0.9,0-5,0.6-6.4C399.6,471.2,399.4,472,400.3,472.2z" />
	<path fill="#4A3F3C" d="M422,456.3c-2.1-0.9-2.7-2-2.3-4.1C421.5,453.3,422,454.5,422,456.3z" />
	<path fill="#3B3432" d="M395.7,488.1c0-1.5,0.2-2.9,1.7-4.4c0.7,2.1-0.4,3.2-0.4,4.5C396.6,488.1,396.1,488.1,395.7,488.1z" />
	<path fill="#5C514E" d="M400.3,472.2c-0.9-0.2-0.7-1-0.9-1.6c0.3-1.2,0.6-2.5,1-3.7C402.7,467.8,400.3,470.5,400.3,472.2z" />
	<path fill="#3D302E" d="M433.9,430.9c0.2,0,0.5,0,0.7,0c0.6,0.8,1.2,1.7,1.7,2.4c-1,1.9-2,0.1-2.6-0.9   C433.8,431.9,433.9,431.4,433.9,430.9L433.9,430.9z" />
	<path fill="#A79790" d="M417,458c0.3-0.3,0.6-0.6,1-0.9c0.4,1,0.8,2.1,1.2,3.1c-0.2,0.2-0.4,0.4-0.7,0.7   C417.6,460.1,417.2,459.1,417,458z" />
	<path fill="#8B7872" d="M417.9,452.3c-1.3,0.6-1.3,0.6-1.5-0.7l0,0c0.5-1,0.8-1.1,2-2C418.1,450.9,418,451.6,417.9,452.3z" />
	<path fill="#4D4643" d="M418.6,436.4c0.3,0.3,0.6,0.6,0.9,1c-0.5,1-0.5,1-1.4,1.4C417.7,437.8,417.8,437,418.6,436.4z" />
	<path fill="#C5B7AE" d="M395.7,488.1c0.4,0,0.9,0,1.3,0c0.1,1,0.2,1.6-0.5,2.5C395.2,490,395.6,489,395.7,488.1z" />
	<path fill="#C5B0A7" d="M398.7,477.1c1.1,1.3,1.1,1.6,0.1,3.3c-0.1-0.6,0-1.3-0.8-1.5C398.3,478.3,398.5,477.7,398.7,477.1   L398.7,477.1z" />
	<path fill="#49423E" d="M424.1,450.1c0.4-0.4,0.7-0.7,1.1-1.1c0.4,0.4,0.9,0.8,1.4,1.3C425.5,451.1,424.7,451,424.1,450.1z" />
	<path fill="#7E655D" d="M412.9,463.7c0.1-0.3,0.1-0.6,0.2-0.9c0.5,0.3,1,0.6,1.5,0.9c0,0.3,0,0.5,0,0.7c-0.3,0.3-0.6,0.6-0.9,0.9   C413.4,464.8,413.2,464.2,412.9,463.7z" />
	<path fill="#97817B" d="M394,513c-1.2-1-1.2-1.1-0.1-2.3C393.9,511.5,393.9,512.3,394,513z" />
	<path fill="#6E6560" d="M398,478.8c0.8,0.2,0.7,0.9,0.8,1.5C397.8,481.6,397.8,479.5,398,478.8z" />
	<path fill="#E5C8B9" d="M434,430.9c-0.1,0.5-0.1,1-0.2,1.5C432.9,431.8,432.8,431.3,434,430.9z" />
	<path fill="#EECABA" d="M420.3,432.4c-0.3,0.3-0.5,0.6-0.8,0.8C419.8,433,420,432.7,420.3,432.4z" />
	<path fill="#EECABA" d="M416.9,450.8c-0.2,0.3-0.3,0.6-0.5,0.8C416.5,451.3,416.7,451,416.9,450.8z" />
	<path fill="#433C37" d="M393.8,547.5c0,1.6,0.2,3.2,0.1,4.7c-0.5,0.1-0.9,0.2-1.7,0.4c0.1-1.6,0.2-3,0.2-4.4   C392.9,548,393.4,547.8,393.8,547.5z" />
	<path fill="#B9988D" d="M393.8,547.5c-0.5,0.3-0.9,0.5-1.4,0.8c-0.2-1,0-1.8,1.3-2.3C393.8,546.5,393.8,547,393.8,547.5z" />
	<path fill="#76625B" d="M394.6,535.6c0,0.5,0.1,1.1,0.1,1.6c-0.2,0-0.3,0-0.5,0c0-0.5-0.1-1.1-0.1-1.6   C394.3,535.6,394.5,535.6,394.6,535.6z" />
	<path fill="#8C786F" d="M392.5,519c0-0.5,0-1.1,0-1.6c0.1,0,0.3,0,0.4,0c0,0.5,0,1.1,0,1.6C392.8,519,392.6,519,392.5,519z" />
	<path fill="#62544E" d="M402.6,460.2c-0.9-0.6-1.1-1.3,0-2.3C402.6,458.8,402.6,459.5,402.6,460.2L402.6,460.2z" />
	<path fill="#4A3C37" d="M393.6,541.9c0.6,0.5,0.3,0.8-0.1,1.3C393.1,542.6,393.2,542.3,393.6,541.9z" />
	<path fill="#523C3A" d="M409.9,455.6c-0.2-0.1-0.5-0.2-0.7-0.3c0.1-0.1,0.2-0.3,0.3-0.4C409.7,455.1,409.8,455.3,409.9,455.6   L409.9,455.6z" />
	<path fill="#5F3633" d="M409.1,452.4c-0.2-0.1-0.4-0.2-0.6-0.2c0.1-0.1,0.2-0.2,0.3-0.4C408.9,452,409,452.2,409.1,452.4   L409.1,452.4z" />
	<path fill="#1D2240" d="M470.6,416.4c-4.2,0-7.6-1.7-10.4-4.8l0,0C463.7,412.4,467.6,414.5,470.6,416.4L470.6,416.4z" />
	<path fill="#191E39" d="M465.4,402.1c3.7-0.2,6.1,2.4,8.3,5.4c-3.4-0.6-5.1-4-8.5-4.9C465.3,402.4,465.3,402.2,465.4,402.1z" />
	<path fill="#3A4C93" d="M468.6,389.8c0.5-0.8,1.2-0.1,1.8,0.3C470.4,391.1,468.7,390.4,468.6,389.8z" />
	<path fill="#1D2240" d="M470.6,416.5c0.6,0,1.3,0,1.9,0c0,0.2,0,0.3,0.1,0.5C471.7,417.3,471.1,417.2,470.6,416.5L470.6,416.5z" />
	<path fill="#1B1615" d="M473,446.1c-0.8-0.3-1.6-0.6-2.4-0.9c-0.2-2.7,1.5-1.6,3.2-1.6l0,0c5.8,3.8,6.8-4.2,9.9-6.8   C484.5,442.3,478.8,449,473,446.1z" />
	<path fill="#3A3633" d="M459.8,447.7c-0.7-1.6-1.4-2.7,0-4.1C460.3,445,460.5,446,459.8,447.7z" />
	<path fill="#BCA195" d="M460.2,435.7c-0.3,1.5-0.8,2.7-1.4,4.2c0-1.2,0-2.5,0-4C459.2,435.9,459.7,435.8,460.2,435.7z" />
	<path fill="#65504A" d="M469.7,441.6c-0.8,1-1.9-0.2-1.3-1C469.3,440.3,469.5,440.9,469.7,441.6z" />
	<path fill="#998C85" d="M460.2,496.3c0.4-0.2,0.9-0.4,1.3-0.6c0.6,1-0.4,1.4-0.6,2.1C460.1,497.5,460.2,496.9,460.2,496.3z" />
	<path fill="#E3B9AB" d="M478.9,443.7c-1.7,1.1-3.4,0.9-5.1-0.2c0.7-0.5,1.5-1,2.3-1.6C477,442.6,477.9,443.2,478.9,443.7z" />
	<path fill="#292123" d="M429.9,592.8c1.5,0,3.1,0,5.5,0c-3,2.6-5.9,1.1-9.2,3.6c-0.4-0.4-0.7-0.7-1-1.1   C426.4,593.8,428.1,593.2,429.9,592.8z" />
	<path fill="#584E4A" d="M468.3,471.6c-0.3-2.7-1.4-5.1-0.6-7.8c2.7,2.8,2.5,10.5,1.5,14.4C469,475.9,469.5,473.5,468.3,471.6z" />
	<path fill="#2F2C2A" d="M468.3,471.6c1.1,2.9,1.8,7.6-0.6,10C467.1,478.4,467.3,474.4,468.3,471.6z" />
	<path fill="#CCB0A4" d="M474.7,446.7c0.8,0,1.5,0.1,2.3,0.1c0,0.6,0,1.1-0.1,1.7c-0.4-0.3-0.8-0.5-1.5-1c-0.3,2-0.4,3.1-0.1,4.9   C473.9,450.8,474.7,448.6,474.7,446.7z" />
	<path fill="#0D0707" d="M475.4,452.4c-0.3-1.8-0.3-2.9,0.1-4.9c0.7,0.5,1.1,0.7,1.5,1c-0.1,0.2-0.1,0.4,0,0.6   c-0.6,0.6-0.6,1.2,0,1.8c0,0.5,0.1,1,0.1,1.5C476.5,452.4,475.9,452.4,475.4,452.4L475.4,452.4z" />
	<path fill="#3A3735" d="M478.5,453.3c0,1,0,1.9,0,3.3c-0.7-0.5-1.2-0.8-1.6-1C476.7,454.3,476.7,452.6,478.5,453.3z" />
	<path fill="#CCB0A4" d="M478.5,453.3c-1.7-0.7-1.7,0.9-1.6,2.2c-0.5-1.1-1-2.1-1.5-3.2C476.4,452.6,478.3,451.7,478.5,453.3z" />
	<path fill="#523F3D" d="M460.3,539.8c0.9,1.4,0.9,2.5-0.6,3.5C459.3,541.9,459.9,541,460.3,539.8z" />
	<path fill="#B9A39B" d="M463.1,518.8c0,0.6,0,1.3,0,2.7C461.9,520.3,461,518.9,463.1,518.8z" />
	<path fill="#6C645F" d="M466.6,486.7c-0.4,0.7-0.7,1.5-1.2,2.5c-0.5-1.4-0.6-2.5,0.3-3.4C465.9,486,466.3,486.4,466.6,486.7z" />
	<path fill="#A6948D" d="M461.6,533.3c0.6,2.1-1,2.2-0.4,0C461.3,533.3,461.4,533.3,461.6,533.3z" />
	<path fill="#382624" d="M466.6,486.7c-0.3-0.3-0.6-0.6-1-1c0.2-0.4,0.3-0.8,0.5-1.2c0.2,0,0.3,0.1,0.5,0.1   C466.6,485.3,466.6,486,466.6,486.7z" />
	<path fill="#CCB0A4" d="M477.6,446.7c0.6-0.2,1.1-0.5,1.7-0.7C479,446.8,478.4,446.9,477.6,446.7z" />
	<path fill="#CCB0A4" d="M476.9,450.9c-0.6-0.6-0.6-1.2,0-1.8C476.9,449.7,476.9,450.3,476.9,450.9z" />
	<path fill="#CCB0A4" d="M473,446.1c0.6,0.2,1.1,0.4,1.7,0.6C474,446.9,473.4,446.8,473,446.1z" />
	<path fill="#2E282C" d="M428.9,250.6c-1.4-1-2.7-1.1-2.2-3.3c1.3,1,2.3,1.7,3.2,2.4C429.6,250,429.2,250.3,428.9,250.6z" />
	<path fill="#615D69" d="M436.2,252.6c-1.5,0.5-2.3,0.1-2.8-1.1C434.6,250.7,435.3,251.5,436.2,252.6z" />
	<path fill="#48414A" d="M431.5,262.8c-1.6,0.6-2.4,0.2-3.2-0.8C429.6,261.1,430.3,262.4,431.5,262.8z" />
	<path fill="#4A4B54" d="M428.9,250.6c0.3-0.3,0.6-0.6,1-0.9c0.7,0.3,1.4,0.6,2.6,1.2C430.8,251.5,429.8,251.5,428.9,250.6z" />
	<path fill="#848697" d="M417.3,241.6c-0.5,0.3-0.7,0.5-1,0.7C415.3,241.3,416.2,240.6,417.3,241.6z" />
	<path fill="#443339" d="M434.9,265c0.1,0,0.2,0,0.3,0c-0.1,0.2-0.1,0.3-0.2,0.5C434.9,265.3,434.7,265.2,434.9,265z" />
	<path fill="#1B1716" d="M504.8,326.5c0.1,1,0.2,2,0.2,3.2c-0.7-0.1-1.2-0.2-1.7-0.2c0-1.1,0-2.3,0-3.7   C503.9,326.1,504.3,326.3,504.8,326.5z" />
	<path fill="#614F49" d="M503.3,320.8c0,0.2,0.1,0.4,0.2,0.6c0.1,2.6-3,1.1-1.3-0.6C502.5,320.8,502.9,320.8,503.3,320.8z" />
	<path fill="#7F7771" d="M502.5,317.5c0,0.7-0.1,1.3-0.8,1.6C500.6,318.1,501.2,317.1,502.5,317.5z" />
	<path fill="#231F1D" d="M497,261.6c0,2-0.1,3.9-1.7,5.4c-0.3-0.2-0.7-0.3-1.1-0.6c0.2-1.5,0.4-3.1,0.6-4.8   C495.5,261.6,496.2,261.6,497,261.6z" />
	<path fill="#34302D" d="M494.6,270.4c-0.5,0.2-1,0.5-1.5,0.7c-0.1-0.8-0.1-1.5-0.2-2.3c0.4-0.2,0.8-0.5,1.2-0.7   C494.5,268.8,494.8,269.5,494.6,270.4z" />
	<path fill="#4461BD" d="M428.3,307.1c0.4,0.4,0.8,0.9,1.4,1.5c-1,0-1.9,0-2.9,0c0-0.7-0.1-1.3-0.1-2.1   C427.4,306.7,427.8,306.9,428.3,307.1L428.3,307.1z" />
	<polygon fill="#040303" points="423.7,306.7 424,306.6 423.9,306.8  " />
	<path fill="#2A211F" d="M493.1,273.6c-0.6,0.7-1.2,0.4-1.7,0c0.3-0.5,0.6-1,0.9-1.4c0.1,0.1,0.3,0.1,0.4,0   C492.8,272.6,492.9,273.1,493.1,273.6z" />
	<path fill="#475FBB" d="M457,314.3c0.7,0.1,1.5,0.1,2.2,0.2C457.9,315.3,457.9,315.3,457,314.3z" />
	<path fill="#201A18" d="M392.3,125.1c-0.2-1.3-0.5-2.7-0.7-4c0.3-0.1,0.7-0.3,1.1-0.4c1,2.6,2.1,4.7,3.8,6.9   c-0.1,2.3,0.6,4.8-1.2,7.2c-1.7-2-0.5-4.2-0.5-6.4C393.9,127.2,393.1,126.2,392.3,125.1z" />
	<path fill="#E9C7B7" d="M493.1,273.6c-0.2-0.5-0.3-1-0.5-1.4C493.9,272.4,494,272.6,493.1,273.6z" />
	<polygon fill="#121215" points="371,28.9 371.3,28.8 371.3,29.1  " />
	<path fill="#0D1121" d="M407.5,384.5c0-1.3,0.1-2.6,0.1-3.9c1,1.1,0.7,2.5,0.6,3.9C408,384.5,407.8,384.5,407.5,384.5z" />
</g>
</svg>