<?xml version='1.0' encoding='utf-8'?>
<svg xmlns="http://www.w3.org/2000/svg" version="1.2" baseProfile="tiny" id="Layer_1" x="0px" y="0px" viewBox="0 0 900 600" overflow="visible" xml:space="preserve">
<g id="a_00000157302721983618582690000009838595984153120178_">
	<path d="M300.1,560c-13.9-1.1-27.8-0.2-38.8-10.5c-14.2-1.2-27.9-7-42.4-6.7c-10.4-0.7-12.6-12.5-13.4-20.9   c-19-2.5-35.8,10.5-53.5,14.5c-2.8,3.1-27.1,3.8-27.8-1.2c-1.1,1.4-1.9,2.3-2.8,3.5c-3.6-2.5-4.8-6.5-8.2-8.7   c0.4-0.8,0.7-1.5,1.2-2.3c-1.1-1.2-2.3-2.6-3.5-3.9c0.4-1.1,1.3-1.2,2.3-1.2c0.8,1.3,0.7,0.8,2.7,0.4c-1.6-0.2-2.1-0.3-2.7-0.4   c0-1.9-0.8-3.3-2.2-4.4c-0.9,0.4-1.5,0.7-2.2,1c-1.4-2.4-1-5.7-3.9-7.1c-0.4-0.2-0.5-0.9-0.8-1.5c0.7-0.3,1.4-0.5,2.4-0.8   c-0.6-4-2.9-7.5-1.7-11.7c0.9-5.2-2.5-8.9-4.5-13.6c1.6-0.2,2.6-0.3,3.7-0.5c-1-4.4-1.3-8.1-0.2-12.6c0.9-0.6,1.9-1.3,3.1-2.1   c-0.9-1.7-3.7-1.3-4.5-3.2c0.9-1.6,1.7-3.2,2.6-4.8c0.6,0.1,1.3,0.3,2.5,0.5c-0.6-1.6-1-2.9-1.6-4.4c0.8-2.8,3.6-3.4,6.1-2.4   c-1.7,3.2,5.1,6.1,6.8,9l0,0c0.6,3.5,2.6,7.6,4.8,10c4.5,1.4,4.3,5.5,4.8,8.4c10.2,6.1,22.4,24.4,34.6,14.6c0.9,1.5-1.2,2.7,0,4.3   c0.6,0,1.3-0.1,2-0.1c-0.3,3.6-5,5.1-7.7,6.8c-5,0.6-2.3,2.2-2.4,5.5c-2.4,0.2-3.8,1.5-4.4,4.2c5.5,0.3,10.4,3.8,14.8,7   c0.9-0.5,1.5-0.9,1.8-1.1c-0.5-1.2-0.7-1.7-0.9-2.2c3.9-1.1,3.2-6.2,6.6-8c1.8,2.3,4.4,2.2,7,3.4c3.9-2.3,6.6,0.8,9.7,2.3   c3.4-1.3,7.2-0.7,10.4-2.3c0.5-2.4,0.9-4.6,1.3-6.7c2.9,1.8-1,6.4,3.3,7c0.8,1.4,1.8,2.2,3.5,2c6.3,19.5,4,21.9,26.1,22.1   c0.7-0.8,1.1-1.4,1.7-2.1c6.6,5.7,14.8,5.7,22.7,7.5c-0.2-1.4-0.4-2.3-0.6-3.7c11.3,13.9,29.1,12,44.8,15.8   C301.8,559.1,300.9,559.6,300.1,560z M109.8,474.1c1-0.2,2-0.3,3.6-0.6c-1.2-2.9-2.6-2.7-5.1-2.6c0.1,0.3,0.3,0.5,0.4,0.8   c-1.3,3.6-2.1,6.4,1.7,9.6C109.7,478.2,109.6,477,109.8,474.1z M131.3,488.6c1.9,4.7,3,5.5,6.2,5.3   C134.8,490.5,134.8,490.5,131.3,488.6z M121.8,500.9c1.6-2.4,2.5-3.7,3.5-5.2c-1-0.5-1.7-0.9-2.7-1.3   C122.3,496.4,121.1,497.8,121.8,500.9z M120.4,475.8c-1,1.7-0.3,3.1,0.4,4.6c0.4,0.8-0.2,2.4,1.9,2.3   C122,480.3,122.6,477.7,120.4,475.8z M139.3,525.2c2.8-0.8,6.6-5.5,2.7-5.6C141.2,521.2,140.4,522.8,139.3,525.2z M125.1,485.8   c2.6,3.5,2.6,3.5,5.1,4.4C128.9,487.9,127.6,486.2,125.1,485.8z M122.9,510.1c2,1.7,2.7,2.9,4.6,0.6   C126.4,509.1,125.2,508.5,122.9,510.1z M124.9,521.5c0.5-1.9,1.5-3.4-0.9-4.6c-0.6,1.1-1.1,2-1.8,3.2   C123.2,520.6,124,521,124.9,521.5z M146.9,532.4c-0.3-2.1-1.1-2.8-3-2.8C143.8,531.6,144.6,532.4,146.9,532.4z M123.9,487.7   c-2.3,1.2-2.3,1.2-2.2,2.8C122.6,489.9,124.4,490.1,123.9,487.7z M125,527.5c1.5,2,1.5,2,3.3,1C127.5,527.1,126.5,526.7,125,527.5z    M150.6,533.5c0.9,0,1.7,0,2.7,0C152.5,531.8,151.7,531.3,150.6,533.5z M142.5,497.8c0.1-1.5-0.3-2.6-2.1-1.7   C141.3,496.7,141.9,497.3,142.5,497.8z M117.6,525.9c1.8,0.7,2.2,0.8,2.6,1C121.2,524.8,119.6,525,117.6,525.9z M108.8,488.9   c-1.2-1.6-2.6-1-1.5,0.6C107.7,489.4,108.1,489.2,108.8,488.9z M163.3,529c0-0.3-0.1-0.5-0.1-0.8c-0.7,0.1-1.4,0.2-2.1,0.3   c0,0.3,0.1,0.5,0.1,0.8C161.9,529.2,162.6,529.1,163.3,529z M149.6,523.5c0-0.3,0-0.6-0.1-0.9c-0.6,0.1-1.3,0.2-1.9,0.4   c0,0.2,0,0.4,0.1,0.6C148.3,523.5,149,523.5,149.6,523.5z" />
	<path fill="#060405" d="M440.3,371.4c2.9-5.2,6.8-9.6,11.2-13.6c0.5,0.5,1,0.9,1.4,1.4c-2.9,4.6-7.7,7.8-9.9,12.8   c21,9,41.7,16.6,58.8,32.2c1.6-16.2-1.7-31.4,0.6-47.4c0.3,0,0.7,0,1,0c0.3,1.9,0.7,3.8,1,5.8c0,0,0-0.1,0-0.1   c-1.4,8.1,0.9,15.9,1.7,24c11.7,13.7,29.1,17.8,45,22.9c13.7,12.8,30.6,20.3,46.8,29.6c4.2-6.7,7.4-13.4,9.2-21   c-15.9-13.7-36-22.2-48.6-39.4c0.5-0.5,1-1,1.5-1.5c16.5,16.3,35.9,29.4,55.2,42.1c1.3-1,2.3-1.7,3.3-2.5c0.4,0.5,0.9,1,1.3,1.6   c-4.5,8.4-2,22-12.1,26.4c-5.6-1-11.7-2.9-17.1-2.8c-1.7,12.2,13.4,20.9,13.5,33.5c8.5-1.8,12.6-9.3,20.6-11.5   c1.8-0.4,3.4-1.5,4.4-3.3c0.2,0.1,0.5,0.2,0.7,0.1l-0.1,0c-1.8,7.1-11.8,7.7-16.2,13.4c-2.5,1.4-4.7,4.4-7.5,4.8   c-0.4-0.5-0.7-1.3-1.1,0c-9.6,1.5-15.9,12.5-22.4,19.2l-0.2-0.1c-0.4,0.4-0.7,0.7-1.1,1.1c-0.1,0.4-0.1,0.7,0,1.1l-0.2-0.1   c-1.8-9.1,13.5-19.3,19.8-24.3c0.8-12.9-17.6-22.9-12.1-35.7c-1.6-3.2-4.6-4.5-7.5-5.5c-13.1-5.5-22-16.8-33.8-24.5   c-12.7-0.1-23.1-7.6-34.4-11.4c-10.1-13-7.1-1.6-9.1,6.9c2.8,6.7,14.2,8.9,12.1,16.8c-4.5,14.4-14.5,26-22.8,38.4   c-0.5-0.5-0.9-1-1.4-1.5c7-13.5,17.2-25.2,21.6-39.8c-19.1-20.9-44.3-35-71-44.7C441.9,373.5,439.8,373.3,440.3,371.4z M600,440.1   c3,0.7,5.2,1.2,7.4,1.7c6-5,7.8-13.2,6.4-20.6c-1.2-0.5-2.4-0.9-3.9-1.5C608.1,427.1,606.4,434.5,600,440.1z" />
	<path fill="#030202" d="M795.5,510.2c0.3,1.3,0.5,2.6,0.8,3.8c7.6,3.5,9.1,12.1,6.2,19.5c-25,18.1-248.3,32.2-233.8-17   c4-2.8,4.9-7.2,7.1-10.8c0.4,0.4,0.8,0.9,1.2,1.3c-0.1,1.8-0.2,3.6-0.3,5.4c-6.8,4.4-6.1,11.4-3.8,18.3   c31.7,20.5,194.8,19.7,227.3,0.2c0-2.9,0.5-6.1-0.3-8.9c-4.2-1.9-6.5,3-10.7,1c3.6-1.6,6.9-1.8,9-5.3c-1.3-0.6-2.1-1-2.9-1.4   c-11.2,11.9-50.5,16.4-66.1,13.1C747.2,524.9,788.4,530.1,795.5,510.2z" />
	<path fill="#080609" d="M311.6,452.5c7-2.2,12.9-0.1,19.7,2.5c7.5-1.7,15.8-3.1,24.4-0.7c9.8-4.7,20.8,1.3,30.5-1.8   c1.7-0.1,4-0.5,5.5,0.2c0,0.4,0,0.7,0,1.1c-2.6,0.1-5.4-0.6-7.7,0.9c-0.6,7.1-0.6,8.5,6.2,11.3c-1.8-0.1-3.3-0.2-5.5-0.3   c1.1,1.2,1.8,2,2.5,2.7l0.1-0.1c-1.2,0.5-1.4,1.6-1.3,2.7c2.7,8.4-3,22.6,6.6,26.5c-1.3,0.1-2.5,0.2-4.2,0.3c0,8.1,2.6,16,0.4,23.8   c1.6,0.4,3.1,0.7,4.6,1.1c-0.7,2.3-0.2,3.9,1.7,5.3c0.6-0.2,1.7-0.3,2.1-0.9c0.8-1.2,1.6-0.1,2.4-0.3c17.9,1.8,36.3,2.7,53.8-2.1   c21.1-3,22.8-25.5,28.7-41.7c5.8,61.8-75.3,47.4-114.1,45.1c6.6-0.4,13-0.2,18.8-3.5c0.4-12.6-0.9-24.6-2.7-36.9   c-2.5-0.4-5.4,0.8-7.1-1.2c2.4-0.8,5.1-1.2,7.1-4c-1.5-7.4-1.3-16.5-2.6-23.8c-7.9-2-14.6-3.5-22.6-2.1c-8.5,1.5-17.1-3-25.4,0.7   c-4.1,1.9-7.3-0.5-10.7-2.4C320.4,451.6,314.1,455.9,311.6,452.5z" />
	<path fill="#090707" d="M571.2,212.4c-1.3,3.6-5.3,3.7-8,5.6c-2.5-1.2,0.4-5.4-3.2-5.7c-8.8-3.1-15.3-8.2-25.4-6   c-1.4,8.1-0.8,17-5.2,24.1c-3.6-8.4,2.2-18.7,2.5-27.8c-1.1-0.2-2-0.4-3.3-0.7c-6.1-10.8-0.6-22.9-4.9-34.3c0.4-0.5,0.8-1,1.2-1.5   c2.5,0.9,3-4.6,5.2-1.5c-0.9,1.5-1.8,3-2.7,4.5c1.8,1.1,3.8-1.1,5.3,0.8c0.3,1.7-1,2.3-2,3c-2.5,0.8-2.5,0.8-2,2.9   c2.1-0.1,5.7-2.5,6.6,0.4c-2.3,1.6-4.5,3.2-6.7,4.7c-1.3,8.8-0.8,12.5,2,17.3c6.5-3.9,13.5-6.6,18.5-7.3c5.2,5.9,14,8.5,18.8,14.6   c-0.6,2.4-1.5,4.7-0.5,7.5c1.2-0.7,2.1-1.2,3-1.8C570.6,211.7,570.9,212,571.2,212.4z M535.6,203c10.1-0.7,18.6,3.4,27.3,6.6   c0.7-1.2,1.3-2.5,2.1-3.8c-1.7-2.8-4.1-3.9-7.1-4.3c-6.2-0.3-6.4-7.1-11.8-8.1c-3.7,1.8-7.7,3.7-11.8,5.7   C534.7,200.5,535,201.5,535.6,203z" />
	<path fill="#070505" d="M686.4,439.3c-1.7,1-3.3,1.9-5.7,3.3c34.7,2.2,73.8,7.8,96.4,37c-0.6,0.1-1.2,0.1-1.8,0.2   c-17.1-17.1-39.3-27.9-63.5-30.1c-11.9-0.4-26.6-7.7-37.4-3.2c1.6,0.2,3,0.4,5.4,0.8c-17.7,0.9-34.5,4.1-50,13.1l0.1,0   c-0.1-0.3-0.2-0.6-0.4-0.8c10.8-11.6,28.2-13.6,43.4-15.8c3.6-2.9,8.2-5.1,13.4-6.2C686.3,438.3,686.3,438.8,686.4,439.3z" />
	<path fill="#130F0F" d="M524.9,166.1c-0.4,0.5-0.8,1-1.2,1.5c-5.8-14.9-33.8-30-13.7-44.8c14.8,7.7,32.6,11.9,44.7,23.8   c3.6,6.4,6.2,12.9,13.4,16.8c3.2-0.9,6.3,2.5,9.8,1.6c3.5,4.4,6.8,8.4,10.1,12.5c-0.4,0.4-0.8,0.8-1.2,1.2   c-4.7-2.6-7.4-7.1-10.3-11.3c-28.1,0.6-6.4-22.8-66.5-41c-1.6,4-4.7,7-4.9,11.8c4.3,5.5,8.9,11.4,13.4,17.3   c0.9,0.2,1.7,0.4,2.4,0.5c0.4,2.8,1.5,4.4,3.8,5.5C524.9,163.2,524.9,164.7,524.9,166.1z" />
	<path fill="#0D0A0A" d="M543,300.3c-0.5,1.7-2.1,3.2-0.6,5.2c-3.6,12.9-16.3,21.6-24.4,32.1c11.1,10.7,26.7,17.7,35.4,31.2   c-0.5,0.5-0.9,1-1.4,1.5c-11.7-10.4-22.7-23.5-37.3-29.5c-2,3.1-3.6,6.8-6.6,9.2c-0.4-0.5-0.9-0.9-1.3-1.4   c10.7-19.3,32.1-31.5,35.2-55.1C543.6,295.4,542.8,298,543,300.3z" />
	<path fill="#080606" d="M619.9,418.1c-0.4-0.5-0.9-1-1.3-1.6c0.8-1.5,1.5-2.9,2.4-4.5c5.7-0.5,10.5,1.7,14.5,5   c6.7,5.3,15.2,5.5,23.2,8.1c5.9-3.4,14.3-2.5,20.9-3.5c6.6-1.6,9.6-2.2,12.4,5.8c1.1,1.4,1.2,2.6,0,3.9c0,0.8-0.9,1.3-1.3,2   c-0.4-0.4-0.8-0.9-1.3-1.3c0-0.9,0.8-1.5,1.1-2.3c-0.1-0.3,0-0.6,0-0.8c-0.3-0.4-0.5-0.8-0.8-1.2c-2.2-7-27.4-2-31.2,2.6   c-1.5-3.2-4.3-2.8-7-2.6c-1.1,1-2.1,2-3,2.9c-2.6-0.9-0.9-5.4-4.8-4.9c-1.5,1.4-3.1,2.8-5.3,4.8c0.2-2.8,0.3-4.8,0.4-6.9   c-0.7-0.4-1.3-0.7-2.1-1.1c-1.9,2.3-2.8,4.8-5.5,5.9c-1.2-3.2,0.2-5.9,0.7-8.8c-3.3-2.1-6.9-3.6-10.4-5.1   C621,415.8,620.4,417,619.9,418.1z" />
	<path fill="#0F0B0B" d="M368.1,528.2c3.2,2.6,8.8,0.5,12.9,1.3c-23.5,4.2-48.3,1-72.3,4.6c5,4.4,11.1,5,15.4,9.8   c0,0.7,0,1.4-0.1,2.2c-0.7,0-1.5,0.1-2.2,0.1c-1.8-0.9-2.3-3.9-4.6-3.3c-13.1-6.5-22.5-18.1-36-23.7c1.1-0.7,2.2-1.5,3.3-2.2   c0.3,2,1.8,2.7,3.5,3.2c6.9,2,11.4,7.4,17,11.7C326,529.3,347,528,368.1,528.2z" />
	<path fill="#131110" d="M528.2,226.7c0.4,1.2-0.4,2.9,1.2,3.7c-13.8,23.2-28.4,45.6-38.4,71c-0.4-0.5-0.8-1-1.2-1.4   C496.4,272.1,516.2,252.1,528.2,226.7z" />
	<path fill="#1C1314" d="M311.6,452.5c2.5,3.4,8.8-0.9,11.3,2.4c-29.3,2-52.6-12.1-80.8,3.7c-0.5-0.1-1-0.2-1.5-0.3   c0,0-0.3-0.4-0.3-0.4c17.3-11.1,38.9-13.2,57.9-5.2c1.6,1.4,9.6,1.4,11.2,0C310.1,452.6,310.9,452.6,311.6,452.5z" />
	<path fill="#201918" d="M202.7,470.5c0.8-0.2,1.5,0.8,2.3,1.1c0.3-0.1,0.5,0,0.6,0.2c-0.7,1.8-2.3,0.8-3.5,1.2   c-2.2-1.3-4.6-1.6-7.2-2c-0.8,0.5-1.7,1-2.5,1.4c-1-7.8-1.3-21.2-12.3-14.2c-2.6-0.8-6.5-2.9-7.1,1c0.4,0.4,0.7,0.8,1.1,1.2   c-0.1,0.9,0.1,1.9-1.1,2.2c-0.8-1.5-1.6-3-2.3-4.5c1.7-5,6-3.2,10.5-2.7c9.1-6,13.3,4.8,13.9,12.5c1.4,0.5,3.1,1,4.9,1.5   C200.6,470.9,201.6,470.7,202.7,470.5z" />
	<path fill="#0D0A0A" d="M545.3,282.7c-1,3.2-1.4,6.4-1.2,9.8c-3.7-6.8,1.1-15.9,0.1-23.7c2.2-1.9,0.2-4.5,1.1-6.8   c2.1-1.1,0.3-3.1,1.1-4.5c2.1-1.1,0.3-3.2,1.2-4.5c1.8-0.7,0.3-2.4,1.1-3.4c2.5-2.2-1.1-3.4,4.4-4.5c0.1,0.8,0.1,1.6,0.2,2.4   l-0.1-0.1c-2,0.6-0.4,2.4-1.2,3.4c-1.8,0.7-0.3,2.5-1.1,3.4c-1.1,0.4-1,1.3-1.1,2.2c-1.7,0.9-0.9,2.5-1,3.8c-1.1,2-1.6,4.1-1.2,6.6   c0.2,0.3,0.2,0.6-0.1,0.8c-1.8,1.6-1,4-1,6.1C545.8,276.8,544.8,279.4,545.3,282.7z" />
	<path fill="#2F2322" d="M124.4,465.1c6.9-2.2,12.9-8.4,20.4-4.6c1.7-0.9,4.1-2.2,6.5-3.5c0.5,0.4,0.9,0.8,1.4,1.3   c-2.8,1.9-5.8,5.9-9.6,4.8c-6.6-4.5-11.8,4.2-18.6,4.1C124.4,466.5,124.4,465.8,124.4,465.1z" />
	<path fill="#29201E" d="M300.1,560c0.9-0.4,1.7-0.9,2.6-1.3c2.1,0.3,4.3,0.6,6.3,0.9c-0.5-7.1-2.4-11.3,6.9-12.4   c0.5,0.4,0.9,0.8,1.4,1.1c-0.3,0.2-0.6,0.3-0.9,0.3c-1.8,1.4-4.1,1.2-5.3,3.9c0.5,4,1.4,8.3,4.2,11.8c-0.5,0-1,0.1-1.5,0.1   C310.2,561.2,304.5,561.8,300.1,560z" />
	<path fill="#242021" d="M591.6,181.8c3.4,2.5,5.3,6,7.4,9.9c-4.9,3.2-9.6,6.7-15.4,8.3c-0.4-0.4-0.8-0.8-1.2-1.2   c4-3.4,9.4-4.3,13-8.3c-2.1-3-4.1-5.3-5.5-8.6C590.5,181.9,591.1,181.9,591.6,181.8z" />
	<path fill="#1A141B" d="M391.8,453.8c0-0.4,0-0.7,0-1.1c0.4,0.1,0.8,0.2,1.2,0.3c0.3,0.7,0.6,0.7,0.9,0c2.1-1.1,4.2-2.3,6.4-3.4   c-0.2-0.9-0.3-1.8-0.6-2.8c2.4-2.7,5.6-2.3,8.8-2.3c0.8-1.1,1.6-2.1,2.4-3.1c0.4,0.5,0.8,0.9,1.3,1.4c-0.4,1.4-0.8,2.7-1.2,4.3   c-2.7,0.1-7.1-1.5-8,2.2c-1.6,1-0.6,3-1,4.6c-0.8,0.4-1.6,0.9-2.4,1.3c-1.5-0.5-2.9-2.3-4.6-0.2c-1.1,0-2.2,0.1-3.3,0   C391.8,454.5,391.8,454.2,391.8,453.8z" />
	<path fill="#171B24" d="M483.3,486.7c-0.4-1.2,0.5-2.8-1.1-3.6c2.4-8.5,3.4-17.5,9.8-24c0.5,0.5,0.9,1,1.4,1.5   C488,468.5,486,477.6,483.3,486.7z" />
	<path fill="#322928" d="M171.8,456.1c-0.4,0.7-0.8,1.4-1.1,2.1c-1.8-1.4-3.7-1.6-5.6-0.2c0.2,4.7-0.1,5.1-3.3,5   c0.4-3.5,0.2-4.6-1.4-8.3c-1,0.1-2,0.2-3.1,0.4c-0.5-0.4-0.9-0.9-1.4-1.3c4.2-2.2,4.2-2.2,8.6,1.4c1.3-0.3,2.6-0.7,4-1   C169.7,454.8,170.7,455.5,171.8,456.1z" />
	<path fill="#221E26" d="M419.6,411.2c3.2-7.4,5.8-15.1,10.6-21.8c0.4,0.4,0.8,0.8,1.2,1.2c-3.7,8-7,16.1-11.4,23.7   c-0.3-0.4-0.6-0.8-1-1.2c0.1-0.5,0.2-1,0.3-1.4l0.3-0.2L419.6,411.2z" />
	<path fill="#E0CABF" d="M352.4,564.3c1.1-0.7,2.3-1.4,3.4-2.2c0.3,2,1.8,2,3.3,2.1c1.2,0.9,1.7,2.2,2.2,3.5   c-0.6,0.8-1.2,1.6-1.7,2.4c-1.8,0.7-3.5,1.3-5.4,2c-0.9-1-1.3-2.2-1.7-3.4C353.2,567.2,354.1,565.7,352.4,564.3z" />
	<path fill="#34302F" d="M351.2,578.7c-7.9,0.8-16.6,2.4-23.7-2.1c0.4-0.4,0.9-0.8,1.3-1.1c5.3,1.8,18.4,4.4,21.5-0.9   c0.3,0.4,0.7,0.8,1,1.2C351.3,576.7,351.2,577.7,351.2,578.7z" />
	<path fill="#16151F" d="M419.1,413.2c2.3,2.3,0.7,5.7-1,7.9c-3.3,3.7-2.5,8.9-4,13.5c-1.5-3.6-1.6-8.8-0.4-12.4   C416.8,419.9,417.1,416,419.1,413.2z" />
	<path fill="#211A1A" d="M113.2,458.2c-2-1.2-2-1.2-1.2-3.3c0.6-0.4,1.2-0.8,1.8-1.2c1.2,0.3,2.3,0.5,4.1,0.9   c2.6,3.3,4.2,8.3,5.5,12.7c0,0,0,0,0,0c-2.1,0-3-2.4-4.6-3.4l0,0c-0.3-3-1.8-5.2-4.9-7.2C113.6,457.3,113.4,457.8,113.2,458.2z" />
	<path fill="#282524" d="M562,215.6c0.2,0.9,0,2,1.2,2.4c-1.9,6-3.8,12-5.7,18.1c-1.8,0.6-0.4,2.3-1.2,3.3c-0.4-0.8-0.7-1.6-1.1-2.4   C557.1,229.7,559,222.5,562,215.6z" />
	<path fill="#241E1D" d="M473.2,323c3.5-4.8,7.4-9,11.3-13.6c0.4,0.4,0.7,0.8,1.1,1.2c-3.1,5.6-7.5,10.4-11.5,15.5   c-0.7,0-1.4,0.1-2.1,0.1l0,0c0-0.4-0.1-0.7-0.1-1.1c0.2-0.2,0.3-0.5,0.3-0.8C472.5,323.9,472.8,323.4,473.2,323z" />
	<path fill="#3D2F2D" d="M359.6,570.1c0.6-0.8,1.2-1.6,1.7-2.4c1-0.1,2.2,0.1,1.9-1.9c-0.9-0.1-1.9-0.3-2.9-0.4   c-0.4-0.4-0.8-0.8-1.2-1.2c0.4-0.4,0.9-0.7,1.3-1.1c2,0,4.1-0.1,4.9,2.3c2,0.2,4-0.8,5,1.2c-0.7,0.8-1.4,1.5-2.1,2.3   c-1-5.7-4.5,3.4-7.5,3.7c0.2,0.2,0.4,0.5,0.6,0.7c-0.7,1.5-2,1-3.2,1.1C358.6,573,359.1,571.5,359.6,570.1z" />
	<path fill="#1E1A19" d="M226.2,467.4c0.3,0,0.6,0,0.9,0c0,0.5,0.1,1,0.1,1.5c-1.2,1.4-3.8,1.1-4.3,3.1c-1.3,4.1-5.6,3.4-9.1,5.1   c-0.8-0.5-1.8-1.1-2.9-1.8c4.7,0,7.9-4.8,12-6.8c0.3,0.1,0.6,0,0.8-0.3C224.6,468.3,225.6,468.4,226.2,467.4z" />
	<path fill="#1C1314" d="M227.2,468.9c-0.1-0.6-0.1-1.3-0.3-1.9c4.2-3.3,8.7-6.3,13.3-9l0.3,0.4c0.1,0.4,0.1,0.9,0.2,1.3   c-1.5,0.8-2.1,1.4-3.7,2.7c1.1,0.2,1.7,0.3,2.3,0.4c0,0.3,0,0.7,0,1C235.4,465.5,231.6,468,227.2,468.9z" />
	<path fill="#423A38" d="M352.4,564.3c1.7,1.4,0.9,3.5-0.3,4.7c-3.7-4.9-3.6-15.4-11.9-14.3c-0.1-0.5-0.1-1.1-0.2-1.6   c0.4-0.4,0.7-0.8,1.1-1.2c0.3,0.1,0.8,0.1,1.1,0.1l0,0C347.9,553.8,351,558.7,352.4,564.3z" />
	<path fill="#121416" d="M784.6,486.3c3.2,3.4,4.5,7.8,5.7,12.1c-0.4,0.5-0.9,1-1.3,1.5c0-0.9,0-1.8-1.1-2.3   c-2.1-3.7-4-7.5-5.9-11.3C782.8,486.4,783.7,486.4,784.6,486.3z" />
	<path fill="#483D3A" d="M313.9,564.4c4.5,0.6,8.9,2.1,13.6,2.2c0.4,2.1-3,2-2.1,4.2c-0.3,0.5-0.7,0.9-1,1.4   c-0.7-1.3-1.4-2.5-2.3-4.1C319.1,567.9,315.6,568,313.9,564.4z" />
	<path fill="#403E53" d="M431.4,390.7c-0.4-0.4-0.8-0.8-1.2-1.2c2.8-6.2,6.8-12,10-18.1c-0.4,1.9,1.6,2.1,2.3,3.2   C436.6,376.7,435.4,385.9,431.4,390.7z" />
	<path fill="#261F1E" d="M458.1,339.6c2.1-4.4,4.4-8.8,9-11.3c0.7,0.1,1.3,0.2,2,0.3c-3.6,4.2-6.9,8.7-10,13.3   C458.8,341.2,458.5,340.4,458.1,339.6z" />
	<path fill="#303653" d="M413,428.7c-0.1,5.2,2.6,9.9,3.7,14.9c-0.4,0.3-0.8,0.7-1.2,1c-0.5-1.3-1-2.7-1.5-4.2   c-0.7,0.8-1.2,1.5-1.8,2.2c-0.4-0.5-0.8-0.9-1.3-1.4C411.6,437.1,412.3,432.9,413,428.7z" />
	<path fill="#1E1817" d="M358.2,574.5c1.1-0.1,2.5,0.3,3.2-1.1c1.5-0.2,3-0.5,3.4-2.3c2.1-1.2,4.1-2.5,5.6-4.5   c0.8,5.6-7.4,9.5-12.3,10.2c-0.4-0.3-0.7-0.7-1.1-1C357.3,575.4,357.8,574.9,358.2,574.5z" />
	<path fill="#2E383E" d="M789,500c0.4-0.5,0.9-1,1.3-1.5c2.2,3.7,4.6,7.3,5.2,11.7c-0.6,1.2-1.2,2.3-1.8,3.4   C793.6,508.6,791.1,504.4,789,500z" />
	<path fill="#5E5655" d="M452.9,359.2c-0.5-0.5-1-0.9-1.4-1.4c3.4-3.4,3.5-7.9,4.8-12.3c0.2,0,0.8,0,1,0   C457.8,350.7,456.9,355.4,452.9,359.2z" />
	<path fill="#343032" d="M571.2,212.4c-0.3-0.4-0.6-0.7-0.9-1.1c1.1-3.6,3.8-5.8,6.5-8c0.4,0.4,0.8,0.8,1.2,1.3   C575.7,207.2,573.5,209.8,571.2,212.4z" />
	<path fill="#292423" d="M551.9,370.3c0.5-0.5,0.9-1,1.4-1.5c2.3,2.7,4.5,5.4,6.8,8.1c-0.5,0.5-1,1-1.5,1.5   C556.4,375.7,554.1,373,551.9,370.3z" />
	<path fill="#2F2827" d="M341.1,551.8c-0.4,0.4-0.7,0.8-1.1,1.2c-2.1-3-4.5-5.6-8-7c0.5-0.4,1.1-0.7,1.6-1.1c3.9,0.1,5.7,3,7.4,5.9   C340.9,551.1,340.9,551.5,341.1,551.8z" />
	<path fill="#474240" d="M485.5,310.6c-0.4-0.4-0.7-0.8-1.1-1.2c1.8-3.1,3.5-6.3,5.3-9.4c0.4,0.5,0.8,1,1.2,1.4   C490,305,487.3,307.5,485.5,310.6z" />
	<path fill="#080609" d="M309.4,452.7c-1.6,1.4-9.6,1.4-11.2,0C301.9,451.1,305.7,451.3,309.4,452.7z" />
	<path fill="#3A3E43" d="M784.6,486.3c-0.9,0-1.7,0.1-2.6,0.1c-2.2-2.2-4.5-4.4-6.7-6.6c0.6-0.1,1.2-0.1,1.8-0.2   C779.5,482.1,782.9,483.2,784.6,486.3z" />
	<path fill="#564442" d="M214.7,474.1c-3.5,3-8.6-0.3-12.6-1.1c1.1-0.4,2.8,0.6,3.5-1.2C208.7,472.5,211.5,474.4,214.7,474.1z" />
	<path fill="#1F2023" d="M577,507c-0.4-0.4-0.8-0.9-1.2-1.3c1.4-2.7,2.9-5.4,4.3-8.1c0.3,0.8,0.7,1.6,1,2.4   C579.8,502.3,578.4,504.6,577,507z" />
	<path fill="#191D1D" d="M113.1,522.6c-1,0-1.9,0.1-2.3,1.2c-1.5-1.2-2.1-2.7-2.1-4.6c0.6-0.3,1.3-0.6,2.2-1   C112.3,519.2,113.2,520.6,113.1,522.6L113.1,522.6z" />
	<path fill="#4E3938" d="M333.6,544.9c-0.5,0.4-1.1,0.7-1.6,1.1c-3.9-0.8-3.9-0.8-7.9,0c0-0.7,0-1.4,0.1-2.2   C327.3,544.2,330.6,542.7,333.6,544.9z" />
	<path fill="#0E0D0D" d="M542.8,288.7c0.4,1.3-0.4,3,1.3,3.7c-0.3,2.6,0.4,5.6-1.2,7.8c-0.1-2.3,0.7-4.9-1.1-6.7   C542.2,292,542.5,290.3,542.8,288.7z" />
	<path fill="#292728" d="M689.5,432.1c0.4,0.4,0.8,0.9,1.3,1.3c-0.9,2.4-1.9,4.7-4.4,5.8c-0.1-0.5-0.1-1-0.2-1.5   C687.3,435.9,688.4,434,689.5,432.1z" />
	<path fill="#484547" d="M578,204.6c-0.4-0.4-0.8-0.8-1.2-1.3c1.9-1.5,3.8-3,5.7-4.5c0.4,0.4,0.8,0.8,1.2,1.2   C581.8,201.6,579.9,203.1,578,204.6z" />
	<path fill="#41413F" d="M555.2,237c0.4,0.8,0.7,1.6,1.1,2.4c-0.6,1.6-1.2,3.2-1.9,4.9c-0.4-0.5-0.8-0.9-1.3-1.4   C553.9,240.9,554.6,238.9,555.2,237z" />
	<path fill="#544340" d="M356.9,575.8c0.4,0.3,0.7,0.7,1.1,1c-2,1.8-4.5,1.3-6.8,1.9c0-0.7,0.1-1.4,0.1-2.1   C353.1,576.3,355,576.1,356.9,575.8z" />
	<path fill="#4C4644" d="M324.4,572.1c0.3-0.5,0.7-0.9,1-1.4c0.3,0.2,0.5,0.3,0.8,0.4c0.9,1.4,1.7,2.9,2.6,4.3   c-0.4,0.4-0.9,0.8-1.3,1.1C325.5,575.7,325.2,573.7,324.4,572.1z" />
	<path fill="#4E4240" d="M156,453.7c0.5,0.4,0.9,0.9,1.4,1.3c-1.6,1.1-3.2,2.1-4.7,3.2c-0.5-0.4-0.9-0.8-1.4-1.3   C152.8,455.9,154.4,454.8,156,453.7z" />
	<path fill="#575052" d="M591.6,181.8c-0.6,0.1-1.1,0.1-1.7,0.2c-1-1.1-2.1-2.2-3.1-3.3c0.4-0.4,0.8-0.8,1.2-1.2   C589.2,178.9,590.4,180.4,591.6,181.8z" />
	<path fill="#6C6B69" d="M457.3,345.5c-0.2,0-0.8,0-1,0c-0.5-2,1.2-4,1.9-5.9c0.3,0.8,0.7,1.5,1,2.3   C458.5,343.1,457.9,344.3,457.3,345.5z" />
	<path fill="#0E0D0D" d="M553.2,242.8c0.4,0.5,0.8,0.9,1.3,1.4c0.1,0.3,0,0.6-0.3,0.8c-1.5-0.2-2.9,0.7-4.3,1.1   C550.7,244.8,551.9,243.7,553.2,242.8z" />
	<path fill="#0E0D0D" d="M545.3,282.7c0.2-2.4-0.9-5.2,1-7.1C546.5,278,546.6,280.4,545.3,282.7z" />
	<path fill="#0E0D0D" d="M544.2,291.8c0.1-2.5-0.9-5.2,0.9-7.2C545.3,287,545.4,289.5,544.2,291.8z" />
	<path fill="#725C5A" d="M469.1,328.6c-0.7-0.1-1.3-0.2-2-0.3c0.8-0.7,1.7-1.4,2.5-2.2c0.8,0,1.6,0,2.4,0.1c0,0,0,0,0,0   C471,327,470.1,327.8,469.1,328.6z" />
	<path fill="#76504F" d="M360.4,563c-0.4,0.4-0.9,0.7-1.3,1.1c-1.5-0.1-3-0.1-3.3-2.1C357.4,561.9,359.1,561.7,360.4,563z" />
	<path fill="#0E0D0D" d="M547.6,266.8c0-2.1-0.7-4.4,1-6C548.3,262.9,547.9,264.9,547.6,266.8z" />
	<path fill="#0E0D0D" d="M546.5,273.8c0-2.2-0.8-4.5,1-6.1C547.2,269.7,546.8,271.7,546.5,273.8z" />
	<path fill="#302F2E" d="M123.4,467.4c-0.3-1-0.6-1.9-1-2.9c0.7,0.2,1.3,0.4,2,0.7c0,0.7,0,1.3,0,2   C124.1,467.3,123.7,467.3,123.4,467.4z" />
	<path fill="#0E0D0D" d="M548.8,260.2c0-1.4-0.8-2.9,1-3.8C549.4,257.6,549.1,258.9,548.8,260.2z" />
	<path fill="#262949" d="M390.9,452.4c-1.3,0-2.6,0-3.9,0C388.7,451.2,389,451.2,390.9,452.4z" />
	<path fill="#41413F" d="M556.6,238.5c-0.2-1-0.2-1.9,0.9-2.4C557.2,236.9,556.9,237.7,556.6,238.5z" />
	<path fill="#41413F" d="M553.1,245.1c0.4,0,0.8,0,1.2,0c-0.3,0.8-0.7,1.6-1,2.4C553.2,246.6,553.1,245.9,553.1,245.1z" />
	<path fill="#0E0D0D" d="M552.1,249.9c-0.1-1-0.3-2.1,1-2.6C552.8,248.2,552.5,249.1,552.1,249.9z" />
	<path fill="#0E0D0D" d="M551,253.3c-0.1-1-0.3-2,0.9-2.6C551.6,251.6,551.3,252.4,551,253.3z" />
	<path fill="#0E0D0D" d="M549.7,256.3c0-0.9,0-1.8,1-2.2C550.4,254.9,550.1,255.6,549.7,256.3z" />
	<path fill="#FADED2" d="M226.2,467.4c-0.6,1.1-1.5,0.9-2.5,0.8C224.2,467.1,225.2,467.2,226.2,467.4z" />
	<path fill="#322121" d="M202.7,470.5c-1,0.2-2.1,0.4-2.7-0.9C200.9,469.9,201.8,470.2,202.7,470.5z" />
	<path fill="#262949" d="M386.3,452.5c-0.8,0-1.6,0-2.5,0C384.6,451.7,385.4,451.7,386.3,452.5z" />
	<path fill="#E6C5B6" d="M472,326.3c-0.8,0-1.6,0-2.4-0.1c0.7-0.3,1.5-0.7,2.2-1C471.9,325.5,471.9,325.9,472,326.3z" />
	<path fill="#F6DBCF" d="M344.4,552.8c-0.8-0.3-1.5-0.6-2.3-0.9C342.9,552.2,343.7,552.5,344.4,552.8z" />
	<path fill="#FBDFD3" d="M457,342.1c-0.3,0.8-0.6,1.5-0.9,2.3C456.4,343.6,456.7,342.9,457,342.1z" />
	<path fill="#E6C5B6" d="M473.2,323c-0.4,0.5-0.7,0.9-1.1,1.4C472.5,323.9,472.8,323.4,473.2,323z" />
	<polygon fill="#5876E8" points="419.6,411.2 419.7,411.6 419.4,411.8 419.2,411.4  " />
	<path fill="#292728" d="M690.8,433.5c0.3-0.4,0.5-0.8,0.8-1.2C691.3,432.7,691.1,433.1,690.8,433.5z" />
	<path fill="#292728" d="M692,431.5c0.3-0.5,0.6-0.9,0.9-1.4C692.6,430.5,692.3,431,692,431.5z" />
	<path fill="#292728" d="M690.6,424.4c-0.3-0.5-0.5-0.9-0.8-1.4C690,423.5,690.3,424,690.6,424.4z" />
	<path fill="#292728" d="M691.7,426.7c-0.3-0.5-0.5-1-0.8-1.4C691.2,425.7,691.5,426.2,691.7,426.7z" />
	<path fill="#F6DBCF" d="M341.1,551.8c-0.1-0.3-0.2-0.7,0-1.1c0.4,0.4,0.7,0.8,1.1,1.1C341.9,552,341.3,551.9,341.1,551.8z" />
	<path fill="#322121" d="M205,471.6c-0.5-0.3-1.1-0.6-1.6-0.9C203.9,471,204.5,471.3,205,471.6z" />
	<path fill="#262949" d="M393.9,453c-0.3,0.7-0.6,0.7-0.9,0C393.3,452.8,393.6,452.9,393.9,453z" />
	<path fill="#FADED2" d="M227.9,466.1c-0.3,0.3-0.6,0.6-1,0.9C227.3,466.7,227.6,466.4,227.9,466.1z" />
	<path fill="#1F2023" d="M581.3,495.4c-0.3,0.4-0.5,0.8-0.8,1.2C580.7,496.2,581,495.8,581.3,495.4z" />
	<path fill="#FADED2" d="M222.8,468.5c-0.5,0.3-1,0.6-1.4,0.9C221.9,469.1,222.4,468.8,222.8,468.5z" />
	<path fill="#292728" d="M692.8,429c-0.3-0.5-0.5-1-0.8-1.4C692.3,428,692.6,428.5,692.8,429z" />
	<path fill="#FBDFD3" d="M123.4,467.4c7.7,0,13.3-8.9,20.7-4c6.4-1.1,9.7-8.7,16.4-8.7c1.6,3.8,1.7,4.9,1.4,8.3   c3.2,0.2,3.4-0.2,3.3-5c4-3.1,6.6,1.4,7.9,4.6c0.5,0.2,1.1,0.5,1.6,0.7c1.4-1.7-0.7-2.9-1.7-4.2c0.7-3.9,4.5-1.8,7.1-1   c18-9.4,9.5,24.8,6.4,32.7c-1.3,0.3-1.3,1.3-1.1,2.3l0,0c-3.9,1.9-5.7,5.7-8,8.9c-1.3-0.2-2.4,0.3-3.5,1.1c-2.4,0-4.8,0-6.6,0   c-1.1-1-1.8-1.6-2.5-2.2c-0.7,0-1.4,0.1-2,0.1c-1.2-1.6,0.9-2.8,0-4.3c-12.2,9.8-24.3-8.6-34.6-14.6c-0.5-2.9-0.3-7-4.8-8.4   C123.5,471.7,123.4,469.5,123.4,467.4L123.4,467.4z M138.5,466.6c-1.4,5.7-0.4,14.9,5.8,17.4c0.7-1.3,0.4-2.6-0.5-3.6   c-4.1-3.8-0.7-9.3-2.9-13.7C139.9,466.1,139.6,466.2,138.5,466.6z M143.8,468.7c1.2,5.7,1.7,6.4,5.1,8.3c-0.2-6.2-0.2-6.2-2-8.6   C145.9,468.4,144.9,468.6,143.8,468.7z M167.3,490c2.4-0.7,2.6-1.6,1.7-3.3C167.5,488,167.5,488,167.3,490z M166.7,491.6   c-1.2,0.2-2.3,2.8-0.3,2.7C167.7,493.9,167.9,492,166.7,491.6z" />
	<path fill="#EEC9B9" d="M308.2,555.3c0.5,1.3,1.8,2.5,0.8,4.4c-17.6-4.2-38.3-1.6-51.2-16.7c0.2,1.4,0.4,2.3,0.6,3.7   c-7.9-1.8-16.1-1.8-22.7-7.5c-0.6,0.7-1,1.3-1.7,2.1c-24.7,0.4-20.5-6.2-27.1-26.7c9.4-4.7,11.8,16.4,19.1,17.1   c-1-2.6-3.9-5.7-1.3-8.1c0.2,0.6,0.3,1.3,0.5,2.1c1.6-1.6,1.6-1.6-0.4-2.2c8.6-5,14.4,20.7,27.1,15.4c0-2.8,0-5.3,0-7.5   c3.7-3.9,4.2-4,7.7-1.6C258,553.8,292.8,548.1,308.2,555.3z M255.7,533.9c-0.1,3.9,0.3,4.8,2.1,6.3   C257.3,536.4,257.3,536.4,255.7,533.9z M227.4,530.5c-0.6,1.8,0.4,2.6,1.5,3.5c0.4-0.2,0.9-0.3,1.4-0.5   C229.9,531.8,228.9,531,227.4,530.5z" />
	<path fill="#ECC8B8" d="M201.2,510.2c-0.4,2.2-0.8,4.4-1.3,6.7c-3.3,1.6-7,0.9-10.4,2.3c-3-1.5-5.8-4.6-9.7-2.3   c0-2.5-2.8-2.3-4.6-2.7c1-3,2-5.8,2.8-8.1c1.8-0.6,3.3-1.1,4.8-1.7c4.8,2.7,11.1,4.6,16.3,6.6c1.5-1.8-0.2-4.1,1.7-5.4   C201.1,507.1,201.2,508.6,201.2,510.2z" />
	<path fill="#161212" d="M201.2,510.2c0-0.7,0-1.5,0-2.2c0.5-0.1,0.9-0.2,1.4-0.2c0.5,0.3,0.9,0.5,1.7,0.9   c3.7-11.2,17.2-17.8,28.5-18.8c0,0.3,0,0.7,0,1c-11.9,5.8-33.2,11.9-24.8,28.4c-1.6,0.2-2.7-0.6-3.5-2c0.9-0.4,1.5-0.9,0.6-2.2   c-0.6,0.7-1,1.3-1.5,1.9C200.5,515.6,204,511.7,201.2,510.2z" />
	<path fill="#E6C8BA" d="M164.9,501.2c0.7,0.6,1.3,1.2,2.5,2.2c1.8,0,4.2,0,6.6,0c-0.7,1.6,1.3,2.5,1.2,4.6   c-0.6,1.5-1.5,3.5-2.3,5.5c-1.8,1-2.5,2.8-3.3,4.5c-0.7-0.5-1.3-1-2-1.5c-1.3,0.3-2.2,2.6-4.2,1c0.6-2.7,3.2-2.4,4.9-3.5   c0.8-4,3-5.7-1.5-8.4c-2,1.3-2,7.5-5.1,4.7c0.7-2-1.5-2.2-2.1-3.3C161.3,505.1,165,504.2,164.9,501.2z" />
	<path fill="#3C302D" d="M161.6,510.2c3.1,2.8,3.2-3.4,5.1-4.7c3.4,2.5,3.6,3.4,1.7,6.9c-1.4-1.3-2.6,0.5-4.1,0.3   c-1.4-0.3-2.9-0.1-4.6-0.1c-0.5,0.7-1.6,1.5-1.3,2.6c3.5,2.2,6-3.7,9.8-1.2c-1.7,1.1-4.3,0.9-4.9,3.5c2,1.6,2.9-0.7,4.2-1   c0.7,0.5,1.4,1,2,1.5c-0.5,1.7-1.6,2.9-3.3,3.5c-3.2-3.2-9-2.4-11.4-5.6c2-2,2.8-5,5.2-6.6C160.7,509.6,161.1,509.9,161.6,510.2z" />
	<path fill="#211816" d="M172.8,513.5c0.8-2,1.7-4,2.3-5.5c0.1-2.1-1.8-3-1.2-4.6c1-0.8,2.1-1.3,3.5-1.1c2.9,0.8,4.6-2,6.7-3.5   c0.5,0,1.1,0.1,1.6,0.1c-0.5,1.5-1,2.9-1.6,4.4l0,0c-1.6,1.7-3.8,1.8-6.1,2.8c-0.8,2.4-1.8,5.1-2.8,8.1c1.8,0.4,4.6,0.2,4.6,2.7   C177.2,515.7,174.6,515.8,172.8,513.5z" />
	<path fill="#C8B7AD" d="M154.8,515.8c2.3,3.3,8.2,2.4,11.4,5.6c0,0,0,0.1,0,0.1c-1.9,0-3.8,0.1-5.7,0.1c-2.2-1.2-4.4-2.4-6.7-3.7   C154.2,517.3,154.5,516.6,154.8,515.8C154.9,515.9,154.8,515.8,154.8,515.8z" />
	<path fill="#B0988C" d="M161.6,510.2c-0.5-0.3-0.9-0.6-1.6-1c-2.4,1.6-3.2,4.6-5.2,6.6l0.1,0c-0.5-2.9,1.2-5.3,2.3-7.9   c0.7-0.4,1.5-0.8,2.2-1.1C160.1,508,162.3,508.2,161.6,510.2z" />
	<path fill="#302F2E" d="M123.4,467.4c0,2.2,0.1,4.4,0.1,6.6c-2.3-1.2-2-5-4.2-6.8c-0.6-0.7-0.4-2.1-0.6-3.2   C120.4,465,121.3,467.4,123.4,467.4z" />
	<path fill="#1E2020" d="M131.3,488.6c3.6,1.9,3.6,1.9,6.2,5.3C134.2,494.2,133.1,493.3,131.3,488.6z" />
	<path fill="#232424" d="M109.8,474.1c-0.1,2.8,0,4,0.6,7.3c-3.8-3.2-3-6-1.7-9.6C109.8,472.2,109.7,473.2,109.8,474.1z" />
	<path fill="#272828" d="M121.8,500.9c-0.8-3.1,0.5-4.5,0.9-6.6c0.9,0.5,1.7,0.8,2.7,1.3C124.3,497.2,123.4,498.5,121.8,500.9z" />
	<path fill="#3C302D" d="M154.8,513.5c0.2,1.6-0.1,3.1-1,4.5c-1-0.1-2.1-0.1-3.4-0.2C151,515,152.4,513.8,154.8,513.5z" />
	<path fill="#323333" d="M120.4,475.8c2.2,1.9,1.6,4.6,2.4,6.9c-2.1,0-1.5-1.5-1.9-2.3C120,478.9,119.4,477.5,120.4,475.8z" />
	<path fill="#262020" d="M160.5,521.6c1.9,0,3.8-0.1,5.7-0.1c0.2,0.5,0.4,1,0.9,2.2c-0.4,0.2-1,0.6-1.8,1.1   C163.9,523.4,162.3,522.3,160.5,521.6z" />
	<path fill="#302F2E" d="M113.2,458.2c0.2-0.5,0.4-1,0.7-1.5c3.2,2,4.7,4.2,4.9,7.2C116.9,462,115,460.1,113.2,458.2z" />
	<path fill="#232626" d="M139.3,525.2c1.2-2.4,1.9-4,2.7-5.6C145.9,519.8,142.1,524.5,139.3,525.2z" />
	<path fill="#2B2F2F" d="M109.8,474.1c0-0.9,0.1-2-1.1-2.4c-0.1-0.3-0.3-0.5-0.4-0.8c2.5-0.1,3.9-0.3,5.1,2.6   C111.8,473.8,110.8,474,109.8,474.1z" />
	<path fill="#1E2020" d="M125.1,485.8c2.5,0.4,3.7,2.2,5.1,4.4C127.7,489.3,127.7,489.3,125.1,485.8z" />
	<path fill="#2E2E2E" d="M122.9,510.1c2.4-1.6,3.5-1.1,4.6,0.6C125.6,513,124.9,511.8,122.9,510.1z" />
	<path fill="#343535" d="M124.9,521.5c-1-0.5-1.7-0.9-2.7-1.4c0.7-1.2,1.2-2.1,1.8-3.2C126.4,518.1,125.4,519.6,124.9,521.5z" />
	<path fill="#282C2C" d="M146.9,532.4c-2.3,0-3.1-0.8-3-2.8C145.8,529.6,146.6,530.3,146.9,532.4z" />
	<path fill="#3C302D" d="M157.2,508c-0.7,1.5-1.4,3-2.2,4.6C153.4,509.3,153.6,508.7,157.2,508z" />
	<path fill="#232626" d="M123.9,487.7c0.5,2.4-1.3,2.2-2.2,2.8C121.6,488.8,121.6,488.8,123.9,487.7z" />
	<path fill="#202323" d="M125,527.5c1.4-0.7,2.5-0.4,3.3,1C126.6,529.4,126.6,529.4,125,527.5z" />
	<path fill="#242828" d="M150.6,533.5c1.1-2.1,1.9-1.6,2.7,0C152.3,533.5,151.5,533.5,150.6,533.5z" />
	<path fill="#232828" d="M142.5,497.8c-0.6-0.5-1.3-1.1-2.1-1.7C142.2,495.2,142.6,496.3,142.5,497.8z" />
	<path fill="#232727" d="M117.6,525.9c2-0.9,3.6-1.1,2.6,1C119.8,526.7,119.4,526.5,117.6,525.9z" />
	<path fill="#282929" d="M108.8,488.9c-0.7,0.3-1.1,0.5-1.5,0.6C106.2,487.9,107.6,487.3,108.8,488.9z" />
	<path fill="#615E5A" d="M203.5,516.8c0.5-0.6,0.9-1.2,1.5-1.9c0.9,1.3,0.3,1.9-0.6,2.2C204.2,517,203.9,516.9,203.5,516.8z" />
	<path fill="#2D3131" d="M163.3,529c-0.7,0.1-1.4,0.2-2.1,0.3c0-0.3-0.1-0.5-0.1-0.8c0.7-0.1,1.4-0.2,2.1-0.3   C163.3,528.5,163.3,528.7,163.3,529z" />
	<path fill="#2D3838" d="M149.6,523.5c-0.6,0-1.3,0-1.9,0c0-0.2,0-0.4-0.1-0.6c0.6-0.1,1.3-0.2,1.9-0.4   C149.6,522.9,149.6,523.2,149.6,523.5z" />
	<path fill="#191D1D" d="M113.2,522.5c0.5,0.1,1.1,0.2,2.7,0.4C113.8,523.4,113.9,523.9,113.2,522.5   C113.1,522.6,113.2,522.5,113.2,522.5z" />
	<path fill="#4B65C5" d="M492,459.1c-11.2,15-11.2,35.8-19.3,52.6c-15.6,22-49.3,16.4-73,15.2c0-1.1-0.4-2.2-0.1-3.2   c3.4-2.9-1.9-6.3,6.2-6.1c-2.2-1.3-3.6-2.1-5-2.9c0.5-7.9-6.6-13.7-4.3-22c3.5-1,6.6-1.9,9.8-2.9c0.8,0.8,1.6,1.6,2.4,2.4   c1.1,6.4,0.9,14,5.3,19.1c0.4-7.6-2.7-14.9-4.9-22c1.2-1.1,2.4-2.3,3.7-3.7c-1.8-1.6-3.5-3.2-5.2-4.8c1,0.1,1.9,0,2.3-1.1   c0.8,0.2,1.7,1.6,2.3-0.2c4.9,10.6,7.5,20.9,11.4,31.9c2.3-12.8-7.6-24.1-9.4-36.1c1-0.9,2-1.8,3.4-3.1c1.2,3.4,2.3,6.6,3.4,9.8   c-0.2,0.6-0.4,1.3-0.9,2.5c2.7-1.1,4.3-2.7,5.4-4.9c3.3,2.9,7.4,5.7,9.5,9.6c1.6-2.9-0.2-4.7-1.4-7.2c6.3-1.9,1.9-5.6-1.3-7.8   c0-0.8,0-1.6,0-2.4l0,0.1c0.3-0.2,0.6-0.4,0.9-0.6c-0.3-0.2-0.6-0.4-0.9-0.6c2.9-3.4,3.9-6.9,3.4-11.3c0.7,0.7,1.5,1.4,2.1,2.2   c-0.7,1.2-1.1,3.4-0.9,4.5c7.8,3.6,13.1,11.7,19.9,14.1c-2.8-4.1-7.3-6.5-9.8-10.7c13.8-12.4,6.3-36.2,13.3-52.6   c-1,0.4-1.5,0.6-2,0.8c0.3-2-1.1-5.8,1.8-6.2c3.9,11.2,0.2,24.3,1.7,36.2c9.8-11.2,7.4-37.6,13.9-51.5c1.9,7.6-3.3,14.1-0.9,21.9   c5.1-4.4,8.2-11.1,15.2-13.5c1.4-0.6,2.8-1.1,3.3-2.8c8.1,4.8,13.7,10.9,20.3,17.5C509.1,433.9,499,445.6,492,459.1z M422.9,489   c0.2,2.3,3.4,8.7,5.8,11.2C429,495.6,427.2,491.2,422.9,489z M488.1,446.2c-3.9,0.7-7.9,1.3-11.1,3.8   C481,449.9,484.7,448.3,488.1,446.2z M445,484.2c-0.2-1.9-0.9-2.7-2.8-1.6C443.4,483.3,444.2,483.8,445,484.2z" />
	<path fill="#FBDFD3" d="M457.3,345.5c2-4.3,4.9-8,7.7-11.8c-0.2,2-0.5,4-0.8,6.5c0.4,0.7,1,1.8,1.6,2.9c1.1,0.1,2,0.1,3,0.2   c-0.4,1.8-0.8,3.6-1.2,5.4c0.2,0.1,0.5,0.2,0.7,0.2c0.5-1.1,1-2.2,1.5-3.3c4.4-2.3,4.9-7.9,7.7-11.6l0,0c2.7-0.9-0.4-3.2,2.7-4.7   c-2.3-1.2-4.8-1.1-6-3.2c16.6-18.3,24.4-41.9,35.1-63.7c11.8-17.3,25.8-34.1,25.5-56.1c5.1-0.9,6.9-0.8,10.6,0.5   c0.4,6.5-0.2,11.5-3.6,16.9c-1.1,0.9-1.3,1.7,0.4,2.1l0,0c0,0.4-0.1,0.9-0.1,1.3c-2.9,0.9-2.3,4-3.2,6.7c3-1.2,4.6-3.7,3.2-6.7   c7.2-2,8.3-11.5,12.4-16.9c1.9,0.7,3.9,1.5,5.8,2.2c-21,31.2-20,71.4-37,104c-12.5,15.7-31,28.5-30.7,50.5c6.4,6,2.2,15.9,2.1,23.5   c-1.6,1.7-0.1,4.5-2.2,5.9c-3.7-2.3-7.5-4.6-11.2-6.9c-0.6-14.1,6.8-27.7,1.6-41.4c-0.3,1.5-0.6,2.5-0.9,3.6   c-0.2,0-0.4-0.1-0.5-0.1c-0.4-3.2,0.3-5-1.3-8.1c-3.5,12-1.8,23.2-3.3,34.9c0,0,0,0,0,0c-2,1.3-1.5,4.6-2.4,6.7   c-10.6-3.9-20.5-8.4-31.1-13C447.6,363,459.5,357,457.3,345.5z M499,301.6c-3.1,2.2-3.8,5.4-3.5,9   C497.8,308.1,498.4,304.9,499,301.6z M488.2,348.1c2.6-0.9,3.4-3.1,4.2-5.6c-0.8-0.1-1.5-0.3-2.2-0.4   C489.4,344.3,488.8,346.2,488.2,348.1z M493.6,341.7c1.7-2.5,2.8-4,2.8-6.3c-0.9-0.1-1.6-0.1-2.2-0.2   C493.1,337.9,493.1,337.9,493.6,341.7z M480.1,327.3c2.2-2.9,2.2-2.9,2.1-6C480.5,323,479.5,324.4,480.1,327.3z M460.2,367.8   c-0.5,1.5-2,2.7-1.3,4.8C461.3,371.2,460.5,369.4,460.2,367.8z M502.4,295.2c-2.1,2.4-2.1,2.4-2.4,4.8   C501.5,299.1,502.4,297.9,502.4,295.2z M464.3,357.3c2.3-2.9,2.3-2.9,0.2-3.8C463.5,354.7,464.2,355.2,464.3,357.3z M494.6,313.6   c-1.8,1.9-3.1,4.8-0.3,5.3C494.4,317.2,494.5,315.7,494.6,313.6z M462.2,361.9c1.7-0.9,2.1-2,1.4-3.8   C461.7,359.1,461.4,360.2,462.2,361.9z M510,280.5c-1.1,1.7-1.5,2.3-2,3.1C510.1,284.2,510.1,284.2,510,280.5z M512.1,280   c0.4-1.1,2.2-1.4,0.8-3.2C512.1,277.7,510.6,278.1,512.1,280z M498.9,334.2c-0.1,1.5,0.3,2.6,2.1,1.7   C500.2,335.2,499.5,334.7,498.9,334.2z M495.3,325.9c-0.3,0-0.5,0-0.8,0c0,0.8,0.1,1.6,0.1,2.4c0.3,0,0.5,0,0.8,0   C495.4,327.5,495.3,326.7,495.3,325.9z M514.9,274.1c1.8-0.3,1.8-0.3,1.4-1.8C515.8,272.8,515.4,273.3,514.9,274.1z M508,287.9   c-2.4,0.4-2.4,1-1.7,2.2C506.7,289.5,507.1,289,508,287.9z M461.3,349.8c0.1-0.1,0.3-0.2,0.4-0.4c-0.1-0.1-0.3-0.2-0.4-0.4   c-0.1,0.2-0.3,0.4-0.4,0.5C461,349.7,461.2,349.7,461.3,349.8z" />
	<path fill="#5876E8" d="M457.2,427.7c-1,13.5,0.6,32.7-10.1,41.8c-2.4-2.4-6.3-4.2-7.5-7.4c1.1-2.3,2.1-4.4,3.4-7.2   c-1.5,0.6-2.1,0.8-2.7,1.1c-6-5.8-10.2,0.9,0,0c-0.1,1.8-0.7,3.4-2.2,4.5c-0.4,0-0.8,0-1.1,0c-0.4-0.4-0.8-0.7-1.1-1.1   c-2.5,3.4,0.3,8.2-3.4,11.3c0,0.4,0,0.8,0,1.1l0-0.1c-7.1-1.7-11.3-7.9-18.7-9c5.3,5.6,10.6,6.5,16.2,10.5c-0.8,1.2-1.4,2.1-2.1,3   c-7.2-2.9-0.6,3.4-6.8,5.7c-1.1-3.2-2.2-6.5-3.4-9.8c-1.4,1.2-2.4,2.1-3.4,3.1c-4.1-2.7,0.1,7.9-4.4,4.5c-0.8-1.1-1.6-4.5-3.3-2.5   c0.3,1.2,0.7,2.4,1,3.5c1.7,1.6,3.5,3.2,5.2,4.8c-0.7,0.8-1.3,1.4-1.9,2.1c-0.7,0-1.5-0.1-2.2-0.1c-2.1-3.9-2.7-8.8-6.8-11.2   c0-0.4,0-0.8,0-1.1c-0.4-0.4-0.7-0.8-1.1-1.1c-2.6,0-4.1,1.5-6.3,3c0.6-7.6,0.6-14.6,0.5-22.1c1.6-2.1,3.1-0.3,4.6,0.2   c2.3,5.6,4.5,11.6,9.3,15.4c4.5-5.9-1.9-13-6.9-16.8c-0.5-5.9,3.8-8.1,9-6.7c0.7-2.7,1-4.6,3-6.5c1.1,2.8,1.8,5.1,2.4,8   c-1.3,0-2.7,0-4,0c-0.4,1.4-0.5,2.5,0.9,3c0.9,1.6,1,3.8,3.3,4.3c2.8,3.9,5.8,7.6,10.5,9.2c1.8-2.1,1.8-2.1,1.6-4.5   c-10.1-8.4-15.6-19.6-13.4-31.8c-0.5-5.6,5.8-8.7,4.8-14.2c8.2-12.3,11.1-30.9,22.5-39.8c17.7,7.5,36.5,13.7,50.8,27.2   c-0.5,1.7-1.9,2.2-3.3,2.8c-7,2.4-10.1,9.1-15.2,13.5c-2.4-7.8,2.8-14.4,0.9-21.9c-6.4,13.8-4.1,40.5-13.9,51.5   c-1.5-11.9,2.2-25-1.7-36.2c-2.9,0.4-1.5,4.2-1.8,6.2C458.1,420.8,454.1,425.5,457.2,427.7z M468.5,392.9c-2.8,2.3-2.6,5.2-2,8.7   c3.3-3,1.1-6.5,2.4-9.5C468.8,392.3,468.7,392.6,468.5,392.9z M435.8,431.1c-2.9-5.3-5.4-10.9-9.8-16.1c1.4,6.2,9.8,22.3,16.2,26.9   C440.7,438,438,434.7,435.8,431.1z M447.7,408.2c-2.7-3.2-5.3-12.6-9.5-12.1C445,407.3,445.1,407.3,447.7,408.2z M446.2,415.4   c-0.6,2.6,1.1,10.7,3.6,9.6C449.1,421.8,448.4,418.7,446.2,415.4z M447.2,445.1c2.3-3.4,2.3-3.4,2.7-6.9   C448.1,439.9,446.9,441.6,447.2,445.1z M400.8,462.9c-1.1-2.3-2.5-2.7-4.5-3C397,462.2,398.6,462.3,400.8,462.9z" />
	<path fill="#FBDFD3" d="M551.9,370.3c14,20.9,36,32.4,55.3,47.6c-1.4,5-2.8,10-5.6,14.4c-3.3-0.4-5.6-3.4-8.7-4.7   c-3.4-5.8-11.2-7.5-15.9-12.2c-9.7-7-18.1-16.8-30.7-18.3c-17.5-4.1-38-16.3-41.8-34.8l0,0.1c-1.7-9,6.5-14.4,10.1-21.7   C529.2,346.8,540.2,359.9,551.9,370.3z M521.5,368.1c0.8,1.1,0.9,2.8,2.9,3c0.5-1.8-0.4-2.6-1.8-3.2c-0.6-3.2-8.7-10.6-9.5-4.6   C515.8,364.9,518.7,366.5,521.5,368.1z M525.6,372.8c1.2,2,2.2,2.7,3.8,1.5C528.9,372.5,527.9,372,525.6,372.8z M510.8,359.8   c-1.1-1.8-1.1-1.8-3.2-1.2C508.6,359.1,509.2,360.7,510.8,359.8z M538.1,386.6c0.7-2.5-0.2-3.1-1.5-3.5   C535.6,384.7,537.1,385,538.1,386.6z M532.1,378.4c0,0.2,0,0.3,0,0.5c0.6,0.1,1.1,0.1,1.7,0.2c0-0.2,0-0.5,0-0.7   C533.3,378.4,532.7,378.4,532.1,378.4z" />
	<path fill="#E4E4EB" d="M690.7,429c-0.1,0.3-0.1,0.6,0,0.8c-17,11.9-36.4,20.7-57.6,17.3c-5.9,9.1-13.5,16.3-24.2,20.2   c-5.2-7.8-9.9-15.3-13.7-24c25,5.1,17.8-13.4,26.5-29c3.5,1.5,7.1,3.1,10.4,5.1c-0.5,2.9-1.9,5.6-0.7,8.8c2.8-1.1,3.7-3.6,5.5-5.9   c0.7,0.4,1.3,0.7,2.1,1.1c-0.1,2-0.2,4-0.4,6.9c2.1-1.9,3.7-3.4,5.3-4.8c3.8-0.5,2.1,4,4.8,4.9c0.9-0.9,1.9-1.8,3-2.9   c2.7-0.2,5.6-0.6,7,2.6c3.7-4.5,29-9.6,31.2-2.6C690.2,428.2,690.4,428.6,690.7,429z" />
	<path fill="#2D8FB9" d="M577,507c1.4-2.3,2.8-4.7,4.2-7c0,0,0.2,0.1,0.2,0.1c0.4,0,0.7,0,1.1,0c2.4,4,6.2,5.3,10.9,5.6   c-4-1.9-6.9-4.9-10.9-5.6c-0.1-0.7,0-1.5,0-2.2l0.2,0.1c6.5-6.7,12.8-17.8,22.4-19.2c0,0-0.1-0.1-0.1-0.1c0.3,0.3,0.6,0.5,0.9,0.8   c0.1-0.3,0.2-0.5,0.4-0.8l-0.1,0.1c2.9-0.4,5.1-3.3,7.5-4.8c4.4-5.6,14.3-6.2,16.2-13.4c14.2-7.5,29.9-13.2,46.3-12.3   c-36.1,6.2-70,37.8-70,76.7c-3.3-0.1-6.5-0.2-9.8-0.3c1.1-0.5,2.3-1.1,3.7-1.8c-6-0.9-11.1-1.2-16.4-3.8l0.1,0   c-1.2-2.5-2.6-4.9-5.1-6.2c-0.6,0.2-1.2,0.3-1.7,0.4c0.1-0.3,0-0.6-0.2-0.9C576.8,510.6,576.9,508.8,577,507z M594.7,490.9   c-0.4,1.3-1.5,2.5,0.3,3.2c0.3-0.4,0.6-0.8,0.8-1.2c0-1.3,2-2.2,0.6-4.1C595.8,489.6,595.2,490.2,594.7,490.9z" />
	<path fill="#EECABA" d="M492.2,396.2c2.1-1.5,0.6-4.3,2.2-5.9c0.1-7.6,4.3-17.5-2.1-23.5c0.5,0,1.1,0,1.6,0c1.5-5,2.7-9.9,5.2-14.5   c2.9-2.3,2.9-2.3,2.6-4.6c-1.9,1-2.8,2.4-2.8,4.4c-1.4,1.3-2.8,2.5-4.2,3.8c1.3-17,19.9-26.3,28.4-39.7c17-32.5,16-72.8,37-104   c5.7,0.2-6.4,25.4-6.8,30.5c-2.6,1.5-3.7,4-4.5,6.7c-0.3,0.2-0.4,0.5-0.2,0.8c-1,2.4-1.4,4.6-2,7.1c-0.3,0.3-0.3,0.6-0.2,1   c-5.7,21.4-0.7,47.3-18.8,64.3c-32.9,30.9-24.6,41.1-25.6,81.4C498.1,401.6,495.4,398.6,492.2,396.2z" />
	<path fill="#EECABA" d="M504.5,362.4c3.8,18.4,24.3,30.6,41.8,34.8c18.2,3.9,31.2,19.9,46.3,29.6c-1,0-1.9,0-4,0   c3.6,2.3,4.1,4.8,8.6,5.6c-0.1-1-0.1-1.6-0.1-2.3c1.7,0.3,2.4,2.7,4.5,2.2c-0.5,2.5-2.3,4.2-3.6,6.6c-16.2-9.2-33.1-16.8-46.8-29.6   c-16-5.2-33.3-9.2-45-22.9C505.3,378.3,503.1,370.5,504.5,362.4z M577.2,419.6c0.2-2.2-0.6-3.2-3.1-2.4   C575.5,418.3,576.4,419,577.2,419.6z M586.3,426.3c0.9-1.7,0.4-2-1.5-1.6C585.5,425.4,585.9,425.8,586.3,426.3z M581.9,421.4   c-0.6-0.1-1-0.5-1.4,0.1C581.1,422,581.5,422.3,581.9,421.4z" />
	<path fill="#CECEDB" d="M603,443.5c-2.4,0-4.8,0-7.8,0c3.9,8.6,8.5,16.1,13.7,24c10.7-4,18.3-11.1,24.2-20.2c5.8-0.8,10.8,1.8,16,1   c-6.9,3.6-15.3,5.4-20.1,11.7l0.1,0.5c-0.9,1.8-2.5,2.9-4.4,3.3c-8,2.1-12.1,9.7-20.6,11.5c-0.1-12.6-15.2-21.3-13.5-33.5   C594.5,441.6,599.1,442.5,603,443.5z" />
	<path fill="#E7C5B6" d="M476.5,378.3c0.1-2.4-0.7-4.9,0.9-6.9c6.5,10.5,0-19.5,3.5-22.6c0.1,0.9,0.1,1.8,0.2,2.7   c0.2,0,0.4,0.1,0.5,0.1c0.3-1.1,0.5-2.2,0.9-3.6c5.2,13.8-2.1,27.3-1.6,41.4c-2.3-1.5-4.6-2.9-6.8-4.4   C475,382.9,474.6,379.5,476.5,378.3c0.2,1,0.4,2,0.7,3.6c1.9-2,1.5-3.8,1.1-6.3C477.5,376.9,477,377.6,476.5,378.3z M476.1,384.2   c-0.3-0.3-0.4-0.1-0.6,0.2c0.2,0.1,0.4,0.2,0.6,0.2C476.1,384.5,476.1,384.3,476.1,384.2z" />
	<path fill="#F8F9F9" d="M600,440.1c6.5-5.7,8.1-13,9.9-20.4c1.5,0.6,2.7,1,3.9,1.5c1.4,7.4-0.5,15.7-6.4,20.6   C605.2,441.3,602.9,440.8,600,440.1z" />
	<path fill="#4A3D39" d="M502.5,356.8c0.2-3.4,2.4-5.7,4.2-8.2c0.4,0.5,0.9,0.9,1.3,1.4C506.2,352.1,505.8,357,502.5,356.8z" />
	<path fill="#EECABA" d="M503.5,356.8c0.3,0,0.6-0.1,0.9-0.3c0,2,0,4.1,0.1,6.1C504.2,360.6,503.8,358.7,503.5,356.8z" />
	<path fill="#1C556D" d="M582.4,498.8c0,0.4,0.1,0.8,0.1,1.2l0,0c-0.4,0-0.7,0-1.1,0c0-0.4,0-0.7,0-1.1   C581.7,498.9,582,498.8,582.4,498.8z" />
	<path fill="#2D8FB9" d="M629.1,460.4l-0.1-0.5l0.4-0.2c0.2,0.2,0.3,0.5,0.4,0.8C629.7,460.6,629.3,460.5,629.1,460.4z" />
	<path fill="#1F2023" d="M582.4,498.8c-0.3,0-0.7,0.1-1,0.1c0.4-0.4,0.7-0.7,1.1-1.1C582.5,498.1,582.5,498.5,582.4,498.8z" />
	<path fill="#2D8FB9" d="M605,478.6c0.4-1.3,0.7-0.5,1.1,0l0.1-0.1C605.8,478.5,605.4,478.5,605,478.6L605,478.6z" />
	<path fill="#1C556D" d="M583.6,496.7c-0.3,0.4-0.6,0.8-1,1.2C583,497.5,583.3,497.1,583.6,496.7z" />
	<path fill="#40A6CA" d="M606.1,524.9c0.1-40.6,36.1-72.1,73.8-77.5c-2.4-0.4-3.8-0.6-5.4-0.8c40.4-2.4,93.8,11.4,113.5,51.2   c-8.7,6.9-19.4,6.5-29.3,10.8c10.3-0.2,21.2-3.9,30.4-8.6C822.8,545.2,627.7,526.2,606.1,524.9L606.1,524.9z M757.4,485.4   c4.3,0.2,8.1-1.7,12.1-2.7c0-0.2,0-0.4-0.1-0.7c-7.2,1.2-14.7,1.2-20.9,5.5C752,487.6,754.8,486.8,757.4,485.4z" />
	<path fill="#414242" d="M734.9,530.5c18.3,0.4,36.5-4.4,54.5-5.4c-4.1,3-8.3,3.7-12.8,1.9c-0.4,0.3-0.8,0.7-1.2,1   c-5,0.9-10,1.8-15,2.7c0,0.3,0,0.5,0,0.8c2,0,4,0,6,0c0.8,2.6,1.5,5.3,2.3,7.9c-36.2,9.8-75.4,4.2-112.9,4.5   c-0.5-3.6-1-7.3-1.5-10.7c-0.9-0.4-1.7-0.8-2.6-1.2C679.1,530.5,708,534.1,734.9,530.5z M735.1,534.7c5.1,0.3,5.1,0.3,7.2-1.6   C739.7,532.3,737.5,532.6,735.1,534.7z" />
	<path fill="#313131" d="M667.1,531.5c-5.1,0.3-10.5-0.6-15.4,0.5c1,0.5,1.7,0.8,2.6,1.2c0.5,3.5,1,7.1,1.5,10.7   c-28-0.6-57.7,0.9-83-13.3c-1.1-5.3-3.9-12.6,1.7-16.1c4.1,7,11.6,9.4,19.2,10.2c32.4,12.5,70.2,1.4,104.1,5.4   C687.9,531.7,676.3,528.7,667.1,531.5z" />
	<path fill="#313131" d="M768.6,539.5c-0.8-2.6-1.5-5.3-2.3-7.9c3.5-0.5,10.6-0.2,11.3-4.5c3.9,2.4,8.2,0.3,11.8-2   c-4,0-7.7,1.9-11.8,0.7c6-3.9,13.4-3.3,17.7-9.6c0.8,0.4,1.6,0.8,2.9,1.4c-2.1,3.5-5.4,3.7-9,5.3c4.1,2,6.4-2.9,10.7-1   c0.8,2.9,0.3,6,0.3,8.9C794.9,534.9,778.4,539.4,768.6,539.5z" />
	<path fill="#090303" d="M667.1,531.5c21.5-2,46.1-1.9,67.7-1C713,532.9,689.4,532.3,667.1,531.5z" />
	<path fill="#3E3F3F" d="M593.7,524.8c-7.6-0.8-15.1-3.1-19.2-10.2c0.7-0.7,1.4-1.5,2.1-2.2c0.2,0.3,0.2,0.6,0.2,0.9   c1.3,2.6,3.8,5.7,6.8,5.8l-0.1,0c0.6,1.3,2.2,3.5,3.3,1.4c0.8,0.3,1.6,0.6,2.3,0.9c-0.2,0.3-0.4,0.5-0.6,0.9   C590.7,522.5,592.2,523.5,593.7,524.8z" />
	<path fill="#CCD2E9" d="M232.7,489.8c-6.2-0.3-11.6,3.2-17,5.7c-2.2-1,1.2-3.7-2.5-3.4c7.9-9.6,18.7-16.1,28.5-23.6   c2.5-4.3,2.5-4.3,7.9-5.5c5.3-0.7,10.4-2.7,15.9-2.4c1.6-0.2,3.4,0.9,5.4-1.1c-2.2,0-3.8,0-5.4,0c-2-1.8-6.5-0.1-9,1   c-1.9,0.4-4.1-0.6-5.6,1.2c-1.2-0.1-2.4-0.1-3.8-0.2c0.8-1.1,2.5-0.9,1.9-3.1c-2.5,0-4.8,1.4-7.2,2.1c-0.3-0.2-0.6-0.2-0.9,0   c0-0.3,0-0.6,0-0.9c24.9-15.1,43.2-6.5,68.8-4.7c6.1,0.2,12.6-1.4,17.8,2.4c2.1,1,3.9,0.9,6.3,0c8.2-3.6,16.9,0.8,25.4-0.7   c4.7-0.2,10.5-1.4,14.8,0.4c-1.6,2.7-4.8,2.4-5.7,5.5c-1.4,0.9-1.4,0.9-0.2,2.3c4.7,1.8,9.3-3.3,13.4,0.6c1.3,5.6,2,11.2,1.2,17.2   c-9.6,3.7-21.4,5.7-28,14c0.7,0.7,1.2,1.3,1.6,1.7c-5.9,2.8-12.7,3.5-17.3,8.7c-2.6-0.6-5-1.2-7.5-1.8c2.1-7.1-5.5-5.8-9.2-3.7   c-0.8,0.5-1.6,1-2.3-0.1c0.4-5.1,8.4-7.3,7.5-12.5c-1.7,1-2.1,3.5-4.5,3.2c-0.5,0.9-1,1.8-1.6,2.8c-5.9-1.5-10.8,0.7-15.2,4.1   c-2.3-0.6-4.4-1.2-6.8-1.8c0.9-2.1,1.6-3.9,2.4-5.9c-0.8-1.3-1.5-2.5-2.4-4c-6.9,3.4-12.7,7.8-20.5,8.4c-2,0.4-4.4-0.5-5.6,2   c-0.5-0.5-1.1-0.9-1.6-1.4c6.2-8.2,12.2-15,17.7-23.3c0-1.5,0-3,0-4.5c1.9-0.9-2.3-3.1-3.3-4.8c-5.5,7.8-13.6,14.5-22.1,18.6   c-3.7,0.7-5.9,3.6-7.5,6.5C248.3,487.6,240.2,485.8,232.7,489.8z M362.3,465.2c0.2,0.2,0.4,0.5,0.7,0.7c-1.8-7.6-12.2-5.3-17.8-4.7   c-4.1-2.4-8.5-1.8-13.9-1.8c4.2,4.4,9.7,1.8,14.2,4.7c0.2,1.2,0.4,2.4,2.2,2.7c0.1-0.9,0.2-1.8,0.3-2.7   C352.7,463.4,358,463,362.3,465.2z M368,467.4c-0.3,0.3-0.7,0.7-1,1C367.6,472.3,371,468.9,368,467.4z M315,483   c0.3-1.3,1.5-2.8-0.7-4c-0.8,2.1-1.7,3.8-2.2,5.9C314.2,485.4,314.7,484.4,315,483z M307.2,490.9c-2.2-1.6-4.4,2.5-2.8,4.3   C305.4,493.5,306.3,492.2,307.2,490.9z M310.4,485.7c-1.3,1.3-2.6,2.1-1.5,4C310.3,488.7,311.3,487.8,310.4,485.7z M322.3,458.3   c1.1,1.4,2.3,1.7,3.9,0.3C324.6,458.4,323.5,458.4,322.3,458.3z M281.3,463.9c0.2-0.3,0.5-0.6,0.7-0.9   C280.3,462,279.8,462.5,281.3,463.9z" />
	<path fill="#B7BDD5" d="M278.7,495.7c7.8-0.7,13.6-5.1,20.5-8.4c0.9,1.5,1.7,2.7,2.4,4c-0.8,2-1.6,3.8-2.4,5.9   c2.4,0.6,4.4,1.2,6.8,1.8c4.4-3.4,9.4-5.6,15.2-4.1c0.5-0.9,1-1.8,1.6-2.8c0.2,1.1-0.7,2.7,1.2,3.2c-1.5,1.9-4,3.2-4.2,6.1   c0.7,1.1,1.5,0.6,2.3,0.1c3.7-2,11.3-3.3,9.2,3.7c2.4,0.6,4.9,1.2,7.5,1.8c3.4-4.1,8.2-5,12.6-6.8c-0.1,0.6-0.7,1.3,0.1,1.9   c1.2-0.5,2.5-0.9,0.7-2.3c1.3-0.5,2.6-1,3.9-1.5c-0.4-0.4-0.9-1-1.6-1.7c6.6-8.3,18.4-10.3,28-14c0.1-3,0.2-5.9,0.4-8.9   c0.5,3.1,0.9,6.2,1.3,8.8c-2.9,4.9-8.3,1.8-10.3,6.4c2.6-0.4,4.9,0.3,6.8-1.2c1.1,0,2.2,0,3.6,0c1.8,12.4,3,24.3,2.7,36.9   c-26,7.5-55,1.7-81.9,7.1c-5.6-4.3-10.1-9.7-17-11.7c-6-1.6-2.4-13.9-13.6-22.3c3.7-0.1,7.3-0.2,11-0.2c0-0.2,0-0.5,0-0.7   C283.1,496.9,280.9,496.4,278.7,495.7z M344.4,521.2c-0.5-1-1.2-1.2-2.3-0.1c2.7,1.2,4.2,4.1,7,4.8   C351.7,523.2,346.6,521.1,344.4,521.2z M371.9,489c-3.2-0.7-4.4,0.7-5.8,2.8C369.9,491,369.9,491,371.9,489z M291.2,499.1   c1.6,2.2,3.3,2.5,5.9,1.6C295.3,498.9,293.6,498.4,291.2,499.1z M299.5,502.7c0.9,1.5,1.7,1.9,3,1.1   C301.9,502.2,300.9,502.1,299.5,502.7z M305.7,504.4c-0.3,0.7-0.4,1.2-0.6,1.6C306.9,507,307.5,505.4,305.7,504.4z M359.8,496.5   c-0.5-1.5-2-0.6-1.4,0.6C358.8,496.9,359.3,496.7,359.8,496.5z" />
	<path fill="#4760BC" d="M399.5,524.5c0.1,0.8,0.1,1.6,0.2,2.4c-0.8,0.2-1.6-0.9-2.4,0.3c-0.4,0.6-1.5,0.6-2.1,0.9   c-1.9-1.5-2.4-3.1-1.7-5.3c-1.5-0.4-3-0.7-4.6-1.1c2.2-7.8-0.4-15.7-0.4-23.8c2.3-0.1,3.6-0.4,5.6-0.1c2,4.6,3.5,9.9,5.6,14.6   c-0.4,0.9-0.8,1.5-1.1,2.2c1,1.4,2,2.7,3.7,3.3c-2.8,1,0.1,4.7-2.6,5.8c0.1-1.6,0.1-3.2-0.3-4.8   C399.3,520.8,397.4,522.8,399.5,524.5z M395,519.9c-2.4-2.1-3.3-1.5-4.1,0.2C392,520,392.9,520,395,519.9z M390.6,502.8   c0.6,3.1,1.6,3.2,3.3,2.3C393,504.4,392.2,503.9,390.6,502.8z M393.4,510.1c0-0.3,0-0.5,0-0.8c-0.8,0-1.6-0.1-2.4-0.1   c0,0.3,0,0.5,0,0.8C391.8,510,392.6,510,393.4,510.1z" />
	<path fill="#5573E3" d="M395.1,461.6c0,2.3,0,4.7,0,7c-0.6-0.6-1.2-1.2-1.9-1.9c-0.7,8.3-1.6,16-1.4,24.2c-0.9,0-1.9,0-2.2,1.1   c-0.4,0-0.7,0-1.1-0.1c-0.4-1.5,0.6-3.3-1.1-4.4c0.5-6-3.4-14.2-0.1-19.2c0.1,0.4,0.1,0.6,0.5,0.6c-1.2-0.9-1.7-1.7-3.1-3.2   c2.2,0.1,3.7,0.2,5.5,0.3c-1.7-1.7-4.4-1-5.3-3.2c0.2-1.3,0.3-2.6-1-3.4c0-1.1,0.1-2.1,0.1-3.2c0.8-0.4,0.9-0.9,0.1-1.4   c0.7-0.3,1.4-0.6,2.1-0.9c0,1.1,0,2.1,0,2.8c1.7,2,3.4,1.9,4.8,1.7c0.4-1.4,0.6-2.4,0.9-3.3c0.3,0,0.7,0,1,0   c0.1,2.5-0.1,6.4,0.3,8.1C394,462.4,394.6,462,395.1,461.6z M391,461.6c0-0.4,0-0.7,0-1.1c-1.1,0.1-2.2,0.1-3.3,0.2   c0,0.2,0,0.5,0,0.7C388.8,461.5,389.9,461.5,391,461.6z M387.6,470.8c0.1,1.7,0.1,1.7,1.7,1.6C388.7,471.8,388.3,471.4,387.6,470.8   z M390.1,477.7l-0.2,0.4l0.3,0L390.1,477.7z" />
	<path fill="#B3BCD4" d="M382.7,470.7c-1.3-1.4-1.3-3.7-1.4-5.3c-4.1-3.9-8.7,1.2-13.4-0.6c1.7-0.5,3.4-1,6.2-1.7   c-2.7-0.2-4.3-0.4-5.9-0.5c0.9-3.1,4.1-2.8,5.7-5.5c2.4,0.5,4.9,1.1,7.9,1.7C382,462.4,383,466.5,382.7,470.7z" />
	<path fill="#262949" d="M391.8,454.9c-0.3,1-0.5,1.9-0.9,3.3c-1.4,0.3-3.1,0.3-4.8-1.7c0-0.7,0-1.7,0-2.8c1.9,0,3.8,0,5.6,0   C391.8,454.2,391.8,454.5,391.8,454.9z" />
	<path fill="#4760BC" d="M388.5,492c1.1,0.2,2.3,0,3.5,0c0.4,0.7,0.7,1.4,1.1,2.1c-1,2.2-2.9,1.1-4.5,1.4   C387.9,494.5,388.6,493.1,388.5,492z" />
	<path fill="#3D434C" d="M380.7,487.8c-1.9,1.5-4.2,0.8-6.8,1.2c0.7-2,1.7-2.6,3.3-2.5C377.9,488.3,379.6,487.2,380.7,487.8z" />
	<path fill="#435AB0" d="M388.6,495.5c1.6-0.3,3.5,0.8,4.5-1.4c0.4,1.2,1.3,2.3,0.9,3.7C391.9,497.7,390.3,496.4,388.6,495.5z" />
	<path fill="#435AB0" d="M388.5,492c-0.1,0.9-0.1,1.7-0.2,2.6c-1.4-2.2-1-4.6-0.9-7C389.1,488.7,388.1,490.5,388.5,492z" />
	<path fill="#262949" d="M383.9,459.4c1.3,0.9,1.2,2.1,1,3.4C383.5,462,383.9,460.6,383.9,459.4z" />
	<path fill="#262949" d="M384.1,454.7c0.9,0.5,0.8,1-0.1,1.4C384,455.7,384,455.2,384.1,454.7z" />
	<path fill="#E4E4EB" d="M561,162.7c9.6,7.2,23.9,14.3,26.8,26.6c-8.2,3.4-13.4,10.8-20.1,16.3c-4.8-6.1-13.6-8.7-18.8-14.6   c-5,0.7-12,3.4-18.5,7.3c-2.8-4.9-3.2-8.6-2-17.3c1.4-1.8,9.8-4.5,6.4-6.9c-1.4-0.7-3.2,0.8-4.3-1c1-0.8,2.3-1.3,2-3   c-1.4-1.9-3.5,0.2-5.3-0.8c0.9-1.5,1.8-3,2.7-4.5c-2.2-3.1-2.7,2.4-5.2,1.5c0-1.5,0-3,0-4.7c-2.3-1.1-3.4-2.7-3.8-5.5   c-0.7-0.1-1.6-0.3-2.4-0.5c-4.6-5.9-9.1-11.7-13.4-17.3c0.2-4.8,3.3-7.9,4.9-11.8C565,143.2,539.8,156.6,561,162.7z" />
	<path fill="#CDCEDC" d="M567.7,205.6c6.7-5.5,12-12.9,20.1-16.3c-1.6-10.9-14.2-16-21.2-23.2c3.3,0.4,6.5,0.8,9.9,1.2   c5.5,8.8,14,13.9,18.9,23.3c-8.1,6.9-20.6,10.2-25.2,20.7c-0.9,0.6-1.9,1.1-3,1.8C566.2,210.3,567.1,208,567.7,205.6z" />
	<path fill="#FAFBFB" d="M535.6,203c-0.6-1.5-0.9-2.6-1.4-3.8c4.1-2,8.2-4,11.8-5.7c5.5,0.9,5.6,7.8,11.8,8.1c3,0.4,5.4,1.5,7.1,4.3   c-0.7,1.3-1.4,2.6-2.1,3.8C554.2,206.4,545.7,202.3,535.6,203z" />
	<path fill="#E6C7B8" d="M545.2,208.9c0-0.7,0-1.4,0-2.1c3.3,0.4,6.2,1.7,9,3.3c-4.1,5.4-5.2,14.9-12.4,16.9c0,0,0,0,0,0   c0-0.4,0.1-0.9,0.1-1.3c4.1-4,6.6-11,5.1-16.7C546.3,209,545.7,208.9,545.2,208.9z" />
	<path fill="#AFB6BB" d="M530.6,173c0.4,1.8,7.9-0.1,4.6,3.3c-0.9-2.9-4.5-0.6-6.6-0.4C528.1,173.8,528.1,173.8,530.6,173z" />
	<path fill="#CAC5D1" d="M659.2,445.8c10.7-4.4,21.6-7.9,30.6-15.7c0,0.4,0,0.7,0.1,1.1c-0.3,0.2-0.4,0.6-0.4,0.9   c-1.1,1.9-2.2,3.7-3.3,5.6c-5.2,1.1-9.8,3.3-13.4,6.2C667.7,444.6,663.9,445.2,659.2,445.8z" />
	<path fill="#C8CBD9" d="M561,162.7c-9.9,0.4-11.3-13.7-15.8-20.3C554.5,144.9,554,157.5,561,162.7z" />
	<path fill="#292728" d="M689.9,431.2c-0.1-0.3-0.1-0.7-0.1-1.1c0.3-0.1,0.6-0.2,0.9-0.3C690.4,430.3,690.2,430.8,689.9,431.2z" />
	<path fill="#292728" d="M690.7,429c-0.3-0.4-0.5-0.8-0.8-1.2C690.2,428.2,690.4,428.6,690.7,429z" />
	<path fill="#292728" d="M689.4,427.1c-0.3-0.5-0.6-1-1-1.5C688.7,426.1,689.1,426.6,689.4,427.1z" />
	<path fill="#FBDFD3" d="M206.9,514.6c-2.1-1.8-1.2-3.7-0.1-5.6c4.1,0.4,5.2-3.9,7.6-6.3c-0.3-0.1-0.6-0.3-0.9-0.4c0,0,0,0,0,0   c0.4-0.8,0.8-1.6,1.1-2.4c10.7-5.8,22.6-13.7,35-9.9c-0.3,2.8-3.2,2.7-4.3,4.3c-1.8-0.7-4.8-3-4.6,0c0.8,0.6,1.7,1.2,2.8,2   c-3.7,11.6,13.4,4,18.5,8.3c17.9,13.8,36.7,25.7,55.3,38.2c-1.1,0.5-2.1,1-3.3,1.5c0.7,0.9,2.6,1,2,2.8c-2.5,0.6-5,1-7.2,3   c-0.1,1.5-0.3,3.3-0.5,5c-15.4-7.2-50.2-1.5-48.7-25.4c-3.4-2.5-3.9-2.4-7.7,1.6c0,2.2,0,4.8,0,7.5c-13,4-15.6-14.9-25.8-16.3   c-4.4,1.8-1.7,6.2-0.1,9.2C218.7,531,216.4,509.9,206.9,514.6z M278,527.6c1.7-0.8,1.6-2.1,1.6-3.5c-0.5-0.1-1-0.2-1.9-0.4   C277.9,525.1,278,526.3,278,527.6z M309.7,542.1c-0.9-0.8-1.4-1.6-2.2-0.8C307.7,542.8,308.1,542.9,309.7,542.1z M283.6,534   c-0.8-0.7-1.4-1.4-2.1-0.5C281.9,534.8,282.3,534.8,283.6,534z M303.8,539.8c-0.5-0.7-1.1-1.7-1.9-0.9   C301.3,540.1,303,540.9,303.8,539.8z M224,521c0.2,0,0.5,0,0.7,0c0-0.9,0-1.8,0-2.7c-0.2,0-0.5,0-0.7,0   C224,519.2,224,520.1,224,521z M280.5,529.9c-0.1,0.5-0.4,0.9,0.1,1.3C281,530.6,281.3,530.3,280.5,529.9z" />
	<path fill="#F6DBCF" d="M324.1,546.1c6.6-2.2,14.6,1.9,16.1,8.5c7.5-1.1,8.4,7.8,10.9,12.8c-2.1,0.9-2.9-1.5-4.4-1.9   c-1.2,0.8-2.3,1.5-3.4,2.2c-4.2-1.5-8.4-2.9-12.6-4.4c-0.5-0.8-1-1.5-1.2-2.4c1.2-0.3,2.5-0.7,3.7-1c2.4,1.9,4.4,2.3,7.7,2.3   c-0.6-0.8-0.8-1.2-1.1-1.5c-1.3-0.5-2.7-1-4-1.5c0.1-0.6,0.3-1.4,0.4-2.1c-3.8-5-9.1-2.6-13.6-0.6c-2.4-1.3-3.2-2.9-6.4-1.7   c1.9,1.7,4.5,1.7,3.3,3.9c-2.5-0.5-4.6,0.9-7,1.2c-1.7-2.4-0.5-5.2-1.6-7.4C313.9,548.8,319.7,546.8,324.1,546.1z M324.8,553.4   c-1-0.8-1.9-0.9-2.5,0.4C323.3,554.6,324.2,554.7,324.8,553.4z" />
	<path fill="#312827" d="M281.2,519.2c-1.9-1.5-3.8-2.9-5.7-4.4c0.4-0.4,0.8-0.8,1.2-1.2c2,0.5,2.9,3.1,5.7,3.1   c-0.5-2-0.8-3.7-1.2-5.4c1.3-0.4,1-1.5,1.3-2.5c1.5,2.5,1.9,5.3,2.1,8.1C283.4,517.7,282.3,518.4,281.2,519.2z" />
	<path fill="#37302E" d="M321.9,546.2c-1.5,0.7-3,1.4-4.6,2.1c-0.5-0.4-0.9-0.8-1.4-1.1c0.7-1.8-1.3-1.9-2-2.8   c1.9-0.6,4.4-2.9,5.7-0.5c-0.2,0.2-0.5,0.4-0.7,0.6C320.1,544.8,321,545.4,321.9,546.2z" />
	<path fill="#6A716B" d="M320.5,545.1c-0.5-0.2-1.1-0.4-1.6-0.6c0.2-0.2,0.5-0.4,0.7-0.6C319.9,544.3,320.2,544.7,320.5,545.1z" />
	<path fill="#3B3538" d="M242.1,458.5c-0.4,0.3-0.9,0.7-1.3,1c-0.1-0.4-0.1-0.9-0.2-1.3C241.1,458.4,241.6,458.4,242.1,458.5z" />
	<path fill="#ECC9B9" d="M184.1,503.3c2.1-6.3,5.3-11.8,6.5-18.5c-0.8,0.3-1.3,0.5-1.8,0.7c-0.5-3.6,0.3-5.8,3.7-7.7   c-1.4-0.2-2-0.3-2.7-0.4c1.4-4.5,1-9.1,1.3-13.7c0.4,2.9,0.9,5.8,1.3,8.8c0.8-0.5,1.7-1,2.5-1.4c4.7,0.4,8.7,2.6,13.2,3.9   c-0.8,0.5-1.7,0.9-2.5,1.4c-0.1-0.3-0.3-0.6-0.4-0.8c-0.3,0.3-0.5,0.6-0.8,0.9l0.1-0.1c-0.3,0.1-0.5,0.2-0.8,0.3   c0.2,0.3,0.5,0.5,0.7,0.8c-4.6,4.7-6.1,11.7-10.9,16.2c0.3,0.8,0.5,1.3,0.7,1.8c-2.3,0.1-6.2,1.7-5.6,4.4   C187.2,501,185.7,502.2,184.1,503.3z M199.7,481.5c-1.8-0.6-2.5,0-2.8,2C198.3,482.6,199,482.1,199.7,481.5z" />
	<path fill="#4C4A46" d="M174.1,460.5c0.9,1,1.5,1.7,0.5,2.9c-0.5-0.2-1.1-0.5-1.6-0.7C174.2,462.4,174,461.4,174.1,460.5z" />
	<path fill="#322121" d="M201.1,472.6c-0.4-0.3-0.8-0.5-1.2-0.8C200.3,472.1,200.7,472.4,201.1,472.6z" />
	<path fill="#4C4A46" d="M173,459.3c0.3,0.4,0.7,0.8,1,1.2C173.7,460.1,173.4,459.7,173,459.3z" />
	<path fill="#0E0D0D" d="M543.1,281.2c0-3.5-0.5-7.1,0.9-10.5C543.7,274.2,545,278,543.1,281.2z" />
	<path fill="#0E0D0D" d="M544.2,268.7c-0.1-1.7-0.3-3.5,0.9-5C545,265.4,546.1,267.3,544.2,268.7z" />
	<path fill="#0E0D0D" d="M546.5,257.5c0.3-1.2,0.6-2.4,1-3.6C547.3,255.2,548,256.6,546.5,257.5z" />
	<path fill="#0E0D0D" d="M545.3,262c0.3-1.2,0.6-2.4,1-3.5C546.2,259.7,546.9,261.1,545.3,262z" />
	<path fill="#0E0D0D" d="M548.7,249.6c0.3-0.8,0.6-1.7,0.9-2.5C549.7,248.1,549.9,249.1,548.7,249.6z" />
	<path fill="#0E0D0D" d="M547.6,253c0.3-0.8,0.6-1.7,0.9-2.5C548.6,251.4,548.8,252.4,547.6,253z" />
	<path fill="#E1BFB0" d="M312.7,559.8c2.3-0.3,4.5-1.7,7-1.2c2.6,3.6,8.2-3.9,7.8,7.9l0.1-0.1c-4.1-0.6-8.4-0.4-12.2-2.3   C314.5,562.8,313.6,561.3,312.7,559.8z" />
	<path fill="#37302E" d="M316.4,548.6c-0.4,0.2-0.9,0.5-1.3,0.7C315.5,549.1,316,548.8,316.4,548.6z" />
	<path fill="#4A64C4" d="M402.1,453.7c3.8,3.1,11,9.6,7.7,14.7c-0.8-0.1-1.7-1.9-2.4,0c-4.5-3.3-5.3-8.8-7.6-13.4   C400.5,454.6,401.3,454.2,402.1,453.7z" />
	<path fill="#262949" d="M395.1,461.6c-0.6,0.4-1.1,0.9-2,1.5c-0.4-1.7-0.2-5.6-0.3-8.1c0.8,0,1.5,0,2.3-0.1   C395.1,457.1,395.1,459.3,395.1,461.6z" />
	<path fill="#4A64C4" d="M403,449.2c-0.3,0.8-0.6,1.5-0.9,2.3C402,450.5,402.1,449.7,403,449.2z" />
	<path fill="#E7C2B3" d="M356.9,575.8c-1.9,0.2-3.8,0.5-5.6,0.7c0-0.3,0-0.5,0-0.8c1.9-1.2,0.7-3.1,1.2-4.6c0.3-0.1,0.6-0.2,0.8-0.4   c0.3,0.4,0.6,0.8,0.9,1.3c1.8-0.7,3.6-1.3,5.4-2C358.8,572.1,358.7,574.4,356.9,575.8z" />
	<path fill="#6D6560" d="M360.3,565.4c1,0.1,2,0.3,2.9,0.4c0.4,2-0.9,1.8-1.9,1.9C361,566.9,360.6,566.1,360.3,565.4z" />
	<path fill="#423A38" d="M353.3,570.8c-0.6,0.5-1.3,0.3-2,0.3c-0.2-0.3-0.3-0.6-0.3-1c0.5-0.5,0.9-1,1.5-1.4   C352.8,569.4,353,570.1,353.3,570.8z" />
	<path fill="#E6C4B5" d="M351,570.1c0,0.4,0.1,0.7,0.3,1c-0.4,1.2-0.7,2.3-1.1,3.5c-0.2,0.2-0.3,0.4-0.3,0.7   c-6.6,3.9-14.3,2.3-21.1,0.2c-0.9-1.4-1.7-2.9-2.6-4.3c3.5-0.5,6.5,1.3,10.1,1c0.3,0.4,0.8,1.2,0.8,1.2c2.1-1.2,4.2,0.2,6,0.5   C346.6,569.1,346.6,569.1,351,570.1z" />
	<path fill="#544340" d="M350.3,574.5c0.4-1.2,0.7-2.3,1.1-3.5c0.4,0,0.8,0.1,1.2,0.1c-0.5,1.5,0.7,3.4-1.2,4.6   C350.9,575.3,350.6,574.9,350.3,574.5z" />
	<path fill="#544340" d="M347.5,576.6c0.8-0.4,1.6-0.9,2.4-1.3C349.7,576.8,348.6,576.7,347.5,576.6z" />
	<path fill="#E6C5B6" d="M468.7,343.3c-0.9-0.1-1.8-0.1-3-0.2c-0.6-1.1-1.2-2.2-1.6-2.9c0.3-2.5,0.6-4.5,0.8-6.5   c2.2-2.6,4.2-5.4,7-7.5c0.7,0,1.4-0.1,2.1-0.1c1.2,2.1,3.7,2.1,6,3.2c-5.2,3.7-9.2,7.2-10.5,13.7   C469.3,343.2,469,343.3,468.7,343.3z" />
	<path fill="#DBC2B7" d="M368.2,568.9c-1.2,0.7-2.4,1.4-3.5,2.2C364.2,569,367.6,564.1,368.2,568.9z" />
	<path fill="#81756C" d="M364.6,569.9c0.5,2.2-1.4,3.4-3.3,3.5c-0.2-0.2-0.4-0.5-0.6-0.7C362,571.7,363.3,570.8,364.6,569.9z" />
	<path fill="#FADED2" d="M205.7,476.3c2.5-2.3,5.9-1,8.1,0.8c3.5-1.7,7.8-1,9.2-5.1c0.5-2.1,3.1-1.8,4.3-3.1   c4.4-0.9,8.1-3.4,12.2-5.1c1.2,0.4,1,1.5,1.1,2.4c-15.7,12.3-35.8,24.8-41.3,44.9c-5.3-2-11.6-3.9-16.3-6.6l0,0   c0.4-0.4,0.8-0.7,1.2-1.1l0,0c3.4-2.7,7.4-4.5,10.2-7.8c-0.2-0.5-0.4-1-0.7-1.8c4.8-4.5,6.3-11.6,10.9-16.2c0-0.4,0.1-0.8,0.1-1.1   c0,0-0.1,0.1-0.1,0.1C204.9,476.3,205.3,476.3,205.7,476.3z" />
	<path fill="#3B3538" d="M240.5,466.1c-0.1-0.9,0.1-2-1.1-2.4c0-0.3,0-0.7,0-1l0,0.1c1.5,0.1,2.6-0.6,2.3-2.3   c2.4-0.8,4.7-2.1,7.2-2.1c0.6,2.2-1.1,2-1.9,3.1c1.4,0.1,2.6,0.1,3.8,0.2c0,0.4,0,0.7,0,1.1c-5.4,1-6.6,1.2-9,5.7   C241.7,467.4,241.8,466.4,240.5,466.1z" />
	<path fill="#686570" d="M241.7,460.5c0,0.3,0,0.7,0,1c-0.9,0.3-2,0-2.3,1.3l0-0.1c-0.6-0.1-1.2-0.2-2.3-0.4c1-0.9,1.7-1.4,2.3-1.9   c0.5,0,0.9,0.1,1.4,0.1C241.1,460.3,241.4,460.3,241.7,460.5z" />
	<path fill="#3B3538" d="M240.8,460.5c-0.5,0-0.9-0.1-1.4-0.1c0.5-0.3,0.9-0.5,1.4-0.8C240.8,459.9,240.8,460.2,240.8,460.5z" />
	<path fill="#1A1513" d="M351,570.1c-4.3-1-4.3-1-7.8,3.7c-1.8-0.3-3.9-1.6-6-0.5c0,0-0.5-0.8-0.8-1.2c1.3-1.8-0.9-1.9-2.3-3.3   c1.6-0.1,2.6-0.2,3.7-0.2c1.5,1.7,5.8,2.5,5.7-0.9c1.1-0.7,2.2-1.4,3.4-2.2c1.5,0.5,2.3,2.8,4.4,1.9c0.3,0.5,0.7,1,1,1.5   C351.7,569.3,351.4,569.7,351,570.1z" />
	<path fill="#19343E" d="M788.9,499.9c-4.9,2.8-10.1,5-15.8,5.7c-0.3-0.3-0.6-0.7-0.9-1c5.5-1.6,11-3.5,15.7-6.9   C788.9,498.1,789,499,788.9,499.9z" />
	<path fill="#E1CABF" d="M337.7,568.6c-1,0.1-2.1,0.1-3.7,0.2c1.4,1.4,3.6,1.5,2.3,3.3c-3.8-0.2-7.3-1-10.9-1.4   c-0.9-2.2,2.5-2.1,2.1-4.2l-0.1,0.1c3.2-2.1,7.1-0.6,10.2,1.2C337.7,568.1,337.7,568.4,337.7,568.6z" />
	<path fill="#E6C5B6" d="M463.9,335.2c-0.3,0.4-0.6,0.8-0.9,1.3C463.3,336,463.6,335.6,463.9,335.2z" />
	<path fill="#4B65C5" d="M413.3,451.5c-1.4-0.6-1.2-1.6-0.9-3c1.3,0,2.7,0,4,0c-0.3-1.4-0.6-2.6-0.9-3.8c0.4-0.3,0.8-0.7,1.2-1   c1.8,6.6,5.3,11.5,11.9,16.8c0.2,2.4,0.2,2.4-1.6,4.5c-6.1-2.3-10.8-7.7-11.9-14.2C414.3,451.1,413.8,451.3,413.3,451.5z" />
	<path fill="#201C1B" d="M138.5,466.6c1.2-0.4,1.4-0.5,2.5,0.1c2.1,4.3-1.2,9.9,2.9,13.7c0.9,1,1.2,2.3,0.5,3.6   C138.1,481.5,137.1,472.3,138.5,466.6z" />
	<path fill="#362E2B" d="M143.8,468.7c1.1-0.1,2.2-0.3,3.1-0.4c1.8,2.4,1.8,2.4,2,8.6C145.4,475.1,145,474.4,143.8,468.7z" />
	<path fill="#EAC5B6" d="M184.1,498.8c-2.1,1.5-3.8,4.3-6.7,3.5c2.3-3.3,4.1-7,8-8.9C185.4,495.2,185.2,497.1,184.1,498.8z" />
	<path fill="#5C4D47" d="M184.1,498.8c1.1-1.7,1.3-3.5,1.3-5.5l0,0c1.3-2.5,2.3-5.2,3.4-7.8c0.5-0.2,1-0.4,1.8-0.7   c-0.9,5.1-2.8,9.6-4.9,14.1C185.1,498.8,184.6,498.8,184.1,498.8z" />
	<path fill="#74615C" d="M167.3,490c0.2-2,0.2-2.1,1.7-3.3C170,488.4,169.7,489.4,167.3,490z" />
	<path fill="#665854" d="M166.7,491.6c1.2,0.5,0.9,2.3-0.3,2.7C164.4,494.4,165.5,491.8,166.7,491.6z" />
	<path fill="#A49086" d="M189.8,477.4c0.6,0.1,1.3,0.2,2.7,0.4c-1.2,0.9-1.9,1.4-2.5,1.9C189.9,478.9,189.9,478.1,189.8,477.4z" />
	<path fill="#EAC5B6" d="M186.6,491c-0.4,0.8-0.8,1.5-1.1,2.3C185.3,492.3,185.3,491.3,186.6,491z" />
	<path fill="#987F76" d="M255.7,533.9c1.6,2.5,1.6,2.5,2.1,6.3C256,538.7,255.6,537.8,255.7,533.9z" />
	<path fill="#281E1C" d="M227.4,530.5c1.5,0.5,2.6,1.3,2.9,3c-0.5,0.2-1,0.4-1.4,0.5C227.8,533.1,226.7,532.3,227.4,530.5z" />
	<path fill="#A99286" d="M224.8,523.5c2,0.6,2,0.6,0.4,2.2C225,524.9,224.8,524.3,224.8,523.5L224.8,523.5z" />
	<path fill="#3E383C" d="M200.9,505.6c3.5-7.5,8.4-13.9,14.9-19.1c0.4,0.4,0.8,0.7,1.2,1.1c-3.2,4.3-7.7,6.8-10,12   c0.8,0.2,1.5,0.4,2.1,0.6c-0.7,0.7-1.4,1.3-2.2,2c-2.7-0.6-4.6,2.9-4.4,5.4c-0.5,0.1-0.9,0.2-1.4,0.2   C201.1,507.1,201,506.4,200.9,505.6z" />
	<path fill="#ABB1C3" d="M209.1,500.3c-0.7-0.2-1.3-0.4-2.1-0.6c1.6-3.2,3.6-5.6,6.2-7.6c3.7-0.3,0.3,2.4,2.5,3.4   C213.5,497.1,211.3,498.7,209.1,500.3z" />
	<path fill="#CDC0B6" d="M209.3,508.8c-0.9,0.1-1.7,0.2-2.6,0.3c0.6-4.8,3.4-7.7,7.9-9.1C214.1,503.6,207.7,504.8,209.3,508.8z" />
	<path fill="#A6AABD" d="M202.6,507.7c-0.2-2.5,1.6-6.1,4.4-5.4c-0.9,2.1-1.8,4.2-2.7,6.3C203.5,508.2,203,507.9,202.6,507.7z" />
	<path fill="#503033" d="M239.6,488.9c-2,1.7-4.6,1.3-6.9,1.9c-0.1-0.3-0.1-0.7,0-1c1.9-0.7,3.8-1.4,5.7-2.1   C238.8,488.1,239.2,488.5,239.6,488.9z" />
	<path fill="#D4B5A7" d="M168.2,514c-3.8-2.5-6.3,3.4-9.8,1.2c-0.3-1.1,0.7-1.9,1.3-2.6c1.7,0,3.2-0.2,4.6,0.1   c1.4,0.3,2.7-1.6,4.1-0.3C168.3,512.9,168.3,513.4,168.2,514z" />
	<path fill="#ECC8B8" d="M184.1,503.3c-0.4,0.4-0.8,0.7-1.2,1.1C183.3,504,183.7,503.6,184.1,503.3z" />
	<path fill="#0C0F1C" d="M412.3,479.4c0-1.4-0.7-6.3,2-4.2c1.8,12,11.7,23.3,9.4,36.1C419.7,500.4,417.1,490,412.3,479.4z" />
	<path fill="#21284D" d="M394,497.8c0.7-2.3,1.7-4.2,1.2-6.8c2.5-1.1,6.1-0.4,7.9-2.2l0,0c1.1,0,2.2,0,3.3,0c0,0.3,0,0.7-0.1,1   c-3.2,0.9-6.4,1.9-9.8,2.9c-2.3,8.3,4.9,14.1,4.3,22c-0.8,0-1.6,0-2.4,0c0.3-0.7,0.7-1.3,1.1-2.2C397.5,507.7,396,502.3,394,497.8z   " />
	<path fill="#0B0C17" d="M424.3,477.6c-0.4-7.1,13,5.8,10.3,10.2c-2.9-2.9-5.7-5.8-9-8.3C425.6,478.7,425.5,477.8,424.3,477.6z" />
	<path fill="#0C101E" d="M410.9,493.3c0.8,6,3.8,11.8,3.2,17.9c-4.5-5.1-4.2-12.6-5.3-19.1c0.4-0.1,0.8-0.1,1.2-0.2   C410.2,492.4,410.6,492.9,410.9,493.3z" />
	<path fill="#08070E" d="M440.4,463.8c2.7,2.6,6.3,4.4,8.1,7.8c-0.4,0.4-0.9,0.9-1.3,1.3c-3.2-2.2-6.4-4.3-10.1-6.8   c0-0.3,0-1.2,0-2.1C438.1,463.9,439.2,463.9,440.4,463.8z" />
	<path fill="#5674E4" d="M433.7,481.9c-1.5-1.5-3-3-4.5-4.6c0.7-1.5,1.6-2.8,3.3-3.2C435.6,476.3,440,480,433.7,481.9z" />
	<path fill="#0E1222" d="M422.9,489c4.3,2.2,6.1,6.6,5.8,11.2C426.4,497.7,423.2,491.3,422.9,489z" />
	<path fill="#2B345E" d="M432.4,474.1c-1.7,0.4-2.6,1.7-3.3,3.2c-0.4-0.4-0.8-0.7-1.3-1.1c0.6-0.9,1.2-1.7,2.1-3   c-1.9-1.2-3.8-2.4-5.7-3.6c0.4-0.4,0.8-0.8,1.3-1.1c2.1,1.4,4.5,2.3,6.9,3.1C432.4,472.6,432.4,473.4,432.4,474.1z" />
	<path fill="#354686" d="M457.2,427.7c-3.1-2.2,0.9-7,1.2-10c0.5-0.2,1-0.4,2-0.8C459.3,420.7,458.7,424.3,457.2,427.7z" />
	<path fill="#212B52" d="M447.1,472.9c0.4-0.4,0.9-0.9,1.3-1.3c3,2.7,6,5.3,8.5,8.6C453.2,480.5,450.4,474.9,447.1,472.9z" />
	<path fill="#282F58" d="M488.1,446.2c-3.4,2.1-7,3.6-11.1,3.8C480.2,447.6,484.1,446.9,488.1,446.2z" />
	<path fill="#394680" d="M440.4,463.8c-1.1,0.1-2.2,0.1-3.4,0.2c0.4-1.1,1.1-2.2,1.1-3.5c1.5-1.1,2.2-2.7,2.2-4.5l0,0   c0.6-0.3,1.3-0.5,2.7-1.1c-1.3,2.8-2.3,4.9-3.4,7.2C439.8,462.6,440.1,463.2,440.4,463.8z" />
	<path fill="#080609" d="M398.5,514.6c3.1-0.3,4.2,1.3,7.4,3C402,518.4,400.5,517.5,398.5,514.6z" />
	<path fill="#31417A" d="M424.3,477.6c1.2,0.2,1.3,1,1.3,2c-1.1,2.1-2.7,3.8-5.4,4.9c0.4-1.2,0.6-1.8,0.9-2.5   C422.8,481,424.4,479.9,424.3,477.6z" />
	<path fill="#3D4E98" d="M409.9,492c-0.4,0.1-0.8,0.1-1.2,0.2c-0.8-0.8-1.6-1.6-2.4-2.4c-0.2-2.8,2.8-2.2,4.6-2.1   c-0.6,0.6-1.3,1.2-1.7,1.6C409.5,490.3,409.7,491.1,409.9,492z" />
	<path fill="#2B3769" d="M407.7,480.7c-0.3-1.2-0.7-2.4-1-3.5c1.6-2,2.5,1.4,3.3,2.5C409.5,480.7,408.6,480.8,407.7,480.7z" />
	<path fill="#4D67CA" d="M434.7,467.3c0.3-2.7-0.8-5.8,1.1-7.9C435.5,462.1,436.6,465.2,434.7,467.3z" />
	<path fill="#080609" d="M399.5,524.5c-2.2-1.7-0.2-3.7-0.2-5.6C399.8,520.7,399.6,522.7,399.5,524.5z" />
	<path fill="#1C284C" d="M434.6,487.8c0-1.2,0-2.4,0.1-3.7c1.9,1.4,0.9,3.2,0.4,5C435,488.7,434.8,488.3,434.6,487.8z" />
	<path fill="#16172D" d="M445,484.2c-0.8-0.5-1.6-0.9-2.8-1.6C444.1,481.5,444.9,482.4,445,484.2z" />
	<path fill="#293157" d="M432.4,471.8c0-0.4,0-0.8,0-1.1c0.3,0.2,0.6,0.4,0.9,0.6C433,471.4,432.7,471.6,432.4,471.8z" />
	<path fill="#4D67CA" d="M438.1,460.5c0,0.4-0.1,0.7-0.2,1.1c-0.3-0.4-0.6-0.7-1-1.1C437.3,460.5,437.7,460.5,438.1,460.5z" />
	<path fill="#3D4E98" d="M410.9,493.3c-0.3-0.4-0.7-0.8-1-1.3C410.3,492.5,410.6,492.9,410.9,493.3z" />
	<path fill="#1E1917" d="M469.5,343.1c1.5-5.2,3.8-9.7,8.9-12.2c-0.1,0.2-0.1,0.4,0.1,0.7c-0.4,0.8-0.7,1.7-1.1,2.5l0,0   c-2.8,3.7-3.3,9.3-7.7,11.6C469.6,344.8,469.6,343.9,469.5,343.1z" />
	<path fill="#5D514D" d="M480.9,348.8c-1.8,4.7-0.9,9.9-1.3,14.8c-0.6,0.7-1.3,1.5-1.9,2.2c-0.7-7.4-0.1-14.7,2.1-22.5   C481,346.1,481,346.1,480.9,348.8z" />
	<path fill="#6A5A54" d="M494.6,355.9c1.4-1.3,2.8-2.5,4.2-3.8l0.2,0.2c-2.5,4.6-3.8,9.4-5.2,14.5c-0.5,0-1,0-1.6,0   C492.3,363,493.3,359.4,494.6,355.9z" />
	<path fill="#111110" d="M477.7,365.8c0.6-0.7,1.3-1.5,1.9-2.2c0.3,2.5,2.9,10.4-0.9,10C479,370.8,478.2,368.3,477.7,365.8z" />
	<path fill="#1C1917" d="M545.2,208.9c0.5,0,1.1,0.1,1.9,0.1c1.2,3.5,0.2,6.8-1,10c-0.4-0.4-0.7-0.8-1.1-1.2   C545.1,214.8,545.2,211.9,545.2,208.9z" />
	<path fill="#413836" d="M499,301.6c-0.6,3.2-1.2,6.5-3.5,9C495.2,307,495.9,303.9,499,301.6z" />
	<path fill="#4C433F" d="M545.1,217.8c0.4,0.4,0.7,0.8,1.1,1.2c-1.7,2.1-1.4,5.3-4.2,6.7l0,0C540.7,222.5,543.5,220.2,545.1,217.8z" />
	<path fill="#655854" d="M488.2,348.1c0.6-1.9,1.2-3.8,1.9-6c0.8,0.1,1.4,0.2,2.2,0.4C491.6,345,490.8,347.2,488.2,348.1z" />
	<path fill="#2C2624" d="M493.6,341.7c-0.5-3.8-0.5-3.8,0.6-6.5c0.6,0.1,1.3,0.1,2.2,0.2C496.4,337.7,495.3,339.2,493.6,341.7z" />
	<path fill="#635C57" d="M480.1,327.3c-0.6-2.9,0.5-4.3,2.1-6C482.2,324.4,482.2,324.4,480.1,327.3z" />
	<path fill="#E6C7B8" d="M541.8,227c0.9,2.1,0.5,4-1.2,5.6c0-1.2,0.8-3.3-1.1-3.3C539.8,228.1,540.7,227.4,541.8,227L541.8,227z" />
	<path fill="#B6A39B" d="M460.2,367.8c0.3,1.6,1.1,3.5-1.3,4.8C458.1,370.5,459.7,369.2,460.2,367.8z" />
	<path fill="#3F3532" d="M502.4,295.2c-0.1,2.7-1,3.9-2.4,4.8C500.3,297.6,500.3,297.6,502.4,295.2z" />
	<path fill="#5F4542" d="M469.5,343.1c0.5,2.2-0.4,4-1.3,5.8c-0.2-0.1-0.5-0.2-0.7-0.2c0.4-1.8,0.8-3.6,1.2-5.4   C469,343.3,469.3,343.2,469.5,343.1z" />
	<path fill="#766863" d="M464.3,357.3c-0.2-2-0.8-2.6,0.2-3.8C466.6,354.4,466.6,354.4,464.3,357.3z" />
	<path fill="#392F2D" d="M494.6,313.6c-0.1,2.1-0.2,3.7-0.3,5.3C491.6,318.3,492.8,315.4,494.6,313.6z" />
	<path fill="#B9A69D" d="M462.2,361.9c-0.8-1.7-0.5-2.9,1.4-3.8C464.4,359.9,463.9,361,462.2,361.9z" />
	<path fill="#5D514D" d="M477.7,366.9c1.4,2,0.8,4.5,1,6.8c-0.4-0.7-0.9-1.5-1.3-2.2C477.5,369.9,477.6,368.4,477.7,366.9z" />
	<path fill="#3E3633" d="M539.6,229.3c1.8,0,1.1,2.1,1.1,3.3c-0.6,0.3-1.2,0.6-2.1,1.1C539,232,539.3,230.7,539.6,229.3z" />
	<path fill="#A08D86" d="M510,280.5c0.1,3.7,0.1,3.7-2,3.1C508.5,282.8,508.9,282.2,510,280.5z" />
	<path fill="#8B7C76" d="M512.1,280c-1.5-1.9,0.1-2.3,0.8-3.2C514.3,278.6,512.5,278.9,512.1,280z" />
	<path fill="#D0B5AC" d="M498.9,334.2c0.7,0.5,1.3,1.1,2.1,1.7C499.2,336.7,498.8,335.6,498.9,334.2z" />
	<path fill="#8E7872" d="M495.3,325.9c0.1,0.8,0.1,1.6,0.2,2.4c-0.3,0-0.5,0-0.8,0c0-0.8-0.1-1.6-0.1-2.4   C494.8,325.9,495,325.9,495.3,325.9z" />
	<path fill="#A1958D" d="M514.9,274.1c0.6-0.7,0.9-1.2,1.4-1.8C516.7,273.8,516.7,273.8,514.9,274.1z" />
	<path fill="#71645F" d="M508,287.9c-0.9,1.1-1.3,1.6-1.7,2.2C505.5,288.9,505.6,288.3,508,287.9z" />
	<path fill="#E6C5B6" d="M477.4,334.1c0.4-0.8,0.7-1.7,1.1-2.5C478.7,332.6,478.9,333.8,477.4,334.1z" />
	<path fill="#E6C7B8" d="M541.6,223.6c0.1,0.7,0.2,1.4,0.4,2.1C540.4,225.3,540.5,224.6,541.6,223.6z" />
	<path fill="#5E3C39" d="M461.3,349.8c-0.1-0.1-0.3-0.1-0.4-0.2c0.1-0.2,0.3-0.4,0.4-0.5c0.1,0.1,0.3,0.2,0.4,0.4   C461.6,349.6,461.4,349.7,461.3,349.8z" />
	<path fill="#E6C5B6" d="M476.5,335.3c0.3-0.4,0.6-0.9,0.9-1.3C477.1,334.5,476.8,334.9,476.5,335.3z" />
	<path fill="#101427" d="M395.2,491c0,2,0.5,4.1-1.1,5.6c-4.9-9.2-1-19.8-0.9-29.8c0.7,0.7,1.3,1.3,1.9,1.9   c-0.2,2.7-0.3,5.4-0.5,8.4c2.1-1.5,3.7-2.9,6.3-3c0,0.4,0.1,0.8,0.1,1.2c-0.2,0.3-0.2,0.6-0.2,1c-1.6,2.2-4.4,3.9-6.1,5.6   C394,485.2,394.4,488.1,395.2,491z" />
	<path fill="#5370DC" d="M400.8,476.2c0-0.3,0.1-0.7,0.2-1c0.3,0,0.6,0,0.9,0c-1,4.8-1.5,9.1,1.2,13.6l0,0c-2.5,1.1-5.3,1.5-7.9,2.2   c-0.8-2.9-1.2-5.8-0.5-9.2C396.4,480.1,399.1,478.4,400.8,476.2z" />
	<path fill="#4C66C6" d="M403.1,488.8c-2.1-4.1-2.9-8.2-1.2-12.5c4.1,2.4,4.8,7.3,6.8,11.2c-0.9,0.1-2,0-2.3,1.3   C405.3,488.8,404.2,488.8,403.1,488.8z" />
	<path fill="#1F2646" d="M434.7,432.3c-5.1-7.1-7.9-12.5-8.7-17.3c4.4,5.2,7,10.8,9.8,16.1C435.5,431.5,435.1,431.9,434.7,432.3z" />
	<path fill="#485EB0" d="M447.7,408.2c-2.6-0.9-2.6-0.9-9.5-12.1C442.4,395.7,445,405,447.7,408.2z" />
	<path fill="#1B1D36" d="M425.5,468.6c-0.4,0.4-0.8,0.8-1.3,1.1c-3.7-1.3-6.9-3.4-10.5-7C418.8,463.2,421.3,466.4,425.5,468.6z" />
	<path fill="#334178" d="M434.7,432.3c0.4-0.4,0.8-0.8,1.1-1.2c2.1,3.6,4.8,6.8,6.4,10.8C438.6,441.5,437.3,435,434.7,432.3z" />
	<path fill="#475BA8" d="M446.2,415.4c2.2,3.3,2.9,6.4,3.6,9.6C447.4,426.1,445.6,418,446.2,415.4z" />
	<path fill="#3F5298" d="M468.5,392.8c-0.1,2.9,0.8,6-2,8.7C466,398.1,465.7,395.2,468.5,392.8L468.5,392.8z" />
	<path fill="#405298" d="M447.2,445.1c-0.3-3.4,0.9-5.2,2.7-6.9C449.5,441.7,449.5,441.7,447.2,445.1z" />
	<path fill="#253464" d="M413.3,451.5c0.5-0.2,1-0.4,1.9-0.7c0.5,1.7,0.9,3.3,1.4,5C414.3,455.3,414.2,453.1,413.3,451.5z" />
	<path fill="#364279" d="M440.3,456c-1.9-0.2-4.1,0.8-5.7-1c0.4-0.4,0.8-0.8,1.2-1.2C437.6,453.9,439.2,454.4,440.3,456L440.3,456z" />
	<path fill="#2C3565" d="M400.8,462.9c-2.2-0.6-3.8-0.7-4.5-3C398.3,460.2,399.7,460.5,400.8,462.9z" />
	<path fill="#1B2240" d="M407.3,468.5c0.8-2,1.6-0.2,2.4,0c0,0.3,0,0.6,0,0.9c-0.7,0-1.4,0.1-2.1,0.1   C407.6,469.1,407.5,468.8,407.3,468.5z" />
	<path fill="#4A64C4" d="M407.6,469.4c0.7,0,1.4-0.1,2.1-0.1c-0.2,0.4-0.5,0.8-0.7,1.2C408.5,470.2,408.1,469.8,407.6,469.4z" />
	<path fill="#1D0F19" d="M435.7,453.8c-0.4,0.4-0.8,0.8-1.2,1.2C432.8,454.2,434.7,453.5,435.7,453.8z" />
	<path fill="#3F5298" d="M468.5,392.9c0.1-0.3,0.3-0.5,0.4-0.8C468.8,392.3,468.6,392.6,468.5,392.9   C468.5,392.8,468.5,392.9,468.5,392.9z" />
	<path fill="#4C66C6" d="M401.9,475.2c-0.3,0-0.6,0-0.9,0c0-0.4-0.1-0.8-0.1-1.2C401.2,474.4,401.6,474.8,401.9,475.2z" />
	<path fill="#322826" d="M521.5,368.1c-2.9-1.6-5.7-3.2-8.4-4.7c0.8-6.1,8.8,1.4,9.5,4.6C522.2,367.9,521.9,368,521.5,368.1z" />
	<path fill="#302220" d="M597,430.1c0,0.7,0.1,1.4,0.1,2.3c-2.9-0.1-4.1-2.3-5.9-3.4c0.5-0.5,1-0.9,1.5-1.4   C594.2,428.4,595.6,429.3,597,430.1z" />
	<path fill="#C2B2A9" d="M521.5,368.1c1.7-0.6,3.7,1.1,2.9,3C522.4,370.9,522.3,369.2,521.5,368.1z" />
	<path fill="#493D3B" d="M525.6,372.8c2.3-0.8,3.3-0.2,3.8,1.5C527.7,375.5,526.7,374.8,525.6,372.8z" />
	<path fill="#A1877F" d="M510.8,359.8c-1.6,0.9-2.2-0.7-3.2-1.2C509.7,357.9,509.7,357.9,510.8,359.8z" />
	<path fill="#7A5750" d="M592.8,427.6c-0.5,0.5-1,0.9-1.5,1.4c-0.6-0.5-1.3-1-2.7-2.2c2,0,3,0,4,0   C592.6,427.1,592.7,427.4,592.8,427.6z" />
	<path fill="#523E3B" d="M538.1,386.6c-1-1.5-2.5-1.9-1.5-3.5C537.8,383.5,538.8,384,538.1,386.6z" />
	<path fill="#716A66" d="M532.1,378.4c0.6,0,1.1,0,1.7,0c0,0.2,0,0.5,0,0.7c-0.6-0.1-1.1-0.1-1.7-0.2   C532.1,378.8,532.1,378.6,532.1,378.4z" />
	<path fill="#050405" d="M662.5,529.5c-21.5,3.2-46.5,1.6-67.5-3.6c0.5-0.4,0.9-0.8,1.4-1.3c3.3,0.1,6.5,0.2,9.8,0.3l0,0   C624.3,528.3,643.8,526.2,662.5,529.5z" />
	<path fill="#1B2B31" d="M596.3,524.7c-0.5,0.4-0.9,0.8-1.4,1.3c-1.8-1.7-3.7-3.3-6.3-3.7c0.2-0.3,0.4-0.6,0.6-0.9   c3.4,0.5,6.9,1,10.7,1.5C598.6,523.6,597.4,524.1,596.3,524.7z" />
	<path fill="#1C556D" d="M582.5,500c4,0.7,6.9,3.7,10.9,5.6C588.6,505.3,584.9,504,582.5,500L582.5,500z" />
	<path fill="#1B2B31" d="M583.7,519.1c-3-0.1-5.5-3.2-6.8-5.8c0.5-0.1,1.1-0.3,1.7-0.4C581,514.3,582.4,516.6,583.7,519.1z" />
	<path fill="#0E242F" d="M594.7,490.9c0.5-0.7,1.1-1.3,1.7-2.1c1.4,1.9-0.6,2.8-0.6,4.1C595.4,492.3,595.1,491.6,594.7,490.9z" />
	<path fill="#1B2B31" d="M586.9,520.4c-1.1,2.1-2.7-0.1-3.3-1.4C584.7,519.5,585.8,520,586.9,520.4z" />
	<path fill="#1C5E79" d="M594.7,490.9c0.4,0.7,0.7,1.4,1.1,2.1c-0.3,0.4-0.6,0.8-0.8,1.2C593.2,493.4,594.3,492.2,594.7,490.9z" />
	<path fill="#060405" d="M605,478.5c0.4,0,0.8,0,1.2,0c-0.1,0.3-0.2,0.5-0.4,0.8C605.5,479.1,605.3,478.8,605,478.5z" />
	<path fill="#6A5A54" d="M498.9,352.1c0-2,1-3.5,2.8-4.4c0.3,2.4,0.3,2.4-2.6,4.6L498.9,352.1z" />
	<path fill="#967B71" d="M577.2,419.6c-0.9-0.7-1.7-1.4-3.1-2.4C576.7,416.5,577.4,417.4,577.2,419.6z" />
	<path fill="#745952" d="M586.3,426.3c-0.5-0.5-0.9-1-1.5-1.6C586.7,424.3,587.3,424.6,586.3,426.3z" />
	<path fill="#9C7C73" d="M581.9,421.4c-0.4,0.9-0.8,0.5-1.4,0.1C580.9,421,581.3,421.3,581.9,421.4z" />
	<path fill="#3B2F2B" d="M476.5,378.3c0.5-0.7,1-1.4,1.9-2.7c0.3,2.5,0.8,4.2-1.1,6.3C476.9,380.3,476.7,379.3,476.5,378.3   C476.5,378.3,476.5,378.3,476.5,378.3z" />
	<path fill="#060405" d="M476.1,384.2c0,0.1,0,0.3,0,0.4c-0.2-0.1-0.4-0.2-0.6-0.2C475.7,384.1,475.8,383.9,476.1,384.2z" />
	<path fill="#327993" d="M772.2,504.7c0.3,0.3,0.6,0.7,0.9,1c-4.3,1.5-9.9,3.6-14.6,2.8C763,505.8,767.9,506.2,772.2,504.7z" />
	<path fill="#414242" d="M720.1,529.5c-6.4,2.2-13.7,0.3-20.5,0.8C706,528.2,713.4,530,720.1,529.5z" />
	<path fill="#182C35" d="M767.5,483.2c-3.2,1.4-6.6,2.2-10.1,2.2c-0.4-0.3-0.7-0.7-1.1-1c3.7-0.8,7.4-1.5,11.1-2.3   C767.5,482.5,767.5,482.8,767.5,483.2z" />
	<path fill="#265869" d="M756.3,484.4c0.4,0.3,0.7,0.7,1.1,1c-2.6,1.4-5.4,2.1-8.9,2.2C750.9,484.8,753.9,485.4,756.3,484.4z" />
	<path fill="#2D8FB9" d="M612.9,525.8c-2.3,0-4.7,0.7-6.8-0.9C608.4,525,610.9,524.2,612.9,525.8z" />
	<path fill="#1C272E" d="M767.5,483.2c0-0.4,0-0.8,0-1.1c0.7,0,1.3,0,2,0c0,0.2,0,0.4,0.1,0.7C768.8,482.9,768.2,483.1,767.5,483.2z   " />
	<path fill="#1B1A1A" d="M777.6,527.1c-2,5.8-12,4.1-17.2,4.5c0-0.3,0-0.5,0-0.8c5-0.9,10-1.8,15-2.7c0.4-0.3,0.8-0.7,1.2-1   C776.9,527.1,777.2,527.1,777.6,527.1z" />
	<path fill="#2B2B2B" d="M735.1,534.7c2.4-2.1,4.6-2.4,7.2-1.6C740.2,535,740.2,535,735.1,534.7z" />
	<path fill="#313131" d="M776.5,527.1c-0.4,0.3-0.8,0.7-1.2,1C775.7,527.8,776.1,527.4,776.5,527.1z" />
	<path fill="#B7BDD4" d="M289.2,468.5c0,1.5,0,3,0,4.5c-1.2,1.6-2.3,3-3.4,4.5c-3.6-4.6-2.7,6.3-4.6,6.7c-1.3-1.2-1.3-1.2-3.1,0.7   c0.8,0.2,1.4,0.4,2,0.6c-0.8,1.1-1.5,2.2-2.3,3.2c-0.1-0.6-0.3-1.3-0.5-2.3c-3.6,3-7.2,4.4-11.2,6.7c-3.3-1.4-6.6-2.8-9.9-4.2   c1.7-3,3.8-5.8,7.5-6.5c8.5-4.1,16.6-10.8,22.1-18.6c1.4,1.5,2.3,2.5,3.3,3.6l-0.2,0.2c-1-0.2-1.9-0.4-2.9-0.7   c0.6,2.3,1.4,1.6,2.9,1.6L289.2,468.5z M285.3,475.1c0.6-0.5,1.1-0.8,2.3-1.8C285,473,284.4,473.3,285.3,475.1z" />
	<path fill="#090707" d="M256.3,488.8c3.3,1.4,6.6,2.8,9.9,4.2c2.8-1.5,5.5-2.9,8.3-4.4c0.5,0.5,0.9,0.9,1.4,1.4   c-1.4,2-2.8,4.1-4.3,6.2c0.5,0.5,1.1,0.9,1.6,1.4c0.5,0,0.9,0.1,1.4,0.1c2.4,3.6,10.9,9.1,6.7,13.5c-3.3-5.2-7.4-10-13-12.7   c-1.8,0.9-3.2,2.1-4.3,3.9c5,3.1,9.6,6.4,12.8,11.1c-0.4,0.4-0.8,0.8-1.2,1.2c-5.4-2-8.6-7.1-13.5-10.1c-5.4-2.6-11.7-2.9-17-6.2   c0.2-1.1,0.3-1.9,0.5-3.5c4,4.3,9.1,4.6,13.8,6.2c1.4-1.9,2.7-3.6,4.4-5.7c-4.8-3.3-9.6-4.9-15-6   C250.8,487.9,253.7,488.9,256.3,488.8z" />
	<path fill="#1E181B" d="M360.1,464.1c-4.9-1.1-9.7-0.2-14.7-0.1c-4.5-2.9-10-0.3-14.2-4.7c5.5,0,9.9-0.7,13.9,1.8   c5.5-0.6,11.1-2.1,16.2,1.6C361,463.2,360.5,463.7,360.1,464.1z" />
	<path fill="#2A2122" d="M217,487.7c-0.4-0.4-0.8-0.7-1.2-1.1c7.3-8,16.2-14,24.7-20.4c1.2,0.3,1.2,1.3,1.2,2.3   C233.4,474.7,224.7,480.5,217,487.7z" />
	<path fill="#1F0405" d="M253.4,488.6c-1.6,0.5-3.5-0.6-4.9,0.9c-3-0.2-6-0.4-8.9-0.6c-0.4-0.4-0.8-0.8-1.2-1.2   C243.1,486.7,248.7,487.3,253.4,488.6z" />
	<path fill="#9D9FAF" d="M265.5,460.4c-3.1,0-6.2,0.2-9.1,1.2c0-0.4,0-0.9,0-1.3C258.7,459.4,265.4,456.7,265.5,460.4z" />
	<path fill="#080708" d="M274.5,497.8c-0.5,0-0.9-0.1-1.4-0.1c2.1-3.2,6.3-1.7,9.2-1c0,0.3,0,0.6,0,0.9   C279.7,497.6,277.1,497.7,274.5,497.8z" />
	<path fill="#41474D" d="M324,495.3c-1.9-0.5-1-2.1-1.2-3.2c1.8,0.2,2.6-1.1,3.4-2.4c0.3,0.4,0.7,0.8,1,1.2   C326.4,492.5,325.2,493.9,324,495.3z" />
	<path fill="#736873" d="M256.4,460.3c0,0.4,0,0.9,0,1.3c-1.9,0.4-3.8,0.7-5.7,1.1c0-0.4,0.1-0.7,0-1.1   C252.3,459.8,254.5,460.8,256.4,460.3z" />
	<path fill="#8C8F9F" d="M282.4,479.8c0.6-1.5,2-5.3,3.4-2.3c-0.8,1.1-1.6,2.2-2.4,3.4C283.1,480.5,282.8,480.1,282.4,479.8z" />
	<path fill="#353136" d="M307.2,490.9c-0.9,1.3-1.7,2.7-2.8,4.3C302.8,493.4,305,489.3,307.2,490.9z" />
	<path fill="#4A282C" d="M368.1,462.5c1.6,0.1,3.2,0.3,5.9,0.5c-2.8,0.8-4.5,1.3-6.2,1.7C366.6,463.5,366.6,463.5,368.1,462.5z" />
	<path fill="#4A4E56" d="M315,483c-0.3,1.4-0.8,2.4-2.8,2c0.4-1.6,0.9-3,1.6-4.5C314.1,481.4,313.7,482.7,315,483z" />
	<path fill="#73646D" d="M265.5,460.4c0-0.4-0.1-0.7-0.1-1.1c1.6,0,3.3,0,5.4,0C268.9,461.4,267.1,460.3,265.5,460.4z" />
	<path fill="#A9B2C5" d="M368,467.4c3.1,1.5-0.4,5-1,1C367.3,468,367.7,467.7,368,467.4z" />
	<path fill="#584E57" d="M275.8,490c-0.5-0.5-0.9-0.9-1.4-1.4c0.9-0.7,1.7-1.3,3-2.3c0.2,1,0.4,1.7,0.5,2.3   C277.2,489.2,276.5,489.6,275.8,490z" />
	<path fill="#313338" d="M310.4,485.7c0.9,2.1-0.1,3.1-1.5,4C307.8,487.8,309.1,487,310.4,485.7z" />
	<path fill="#2D2327" d="M315,483c-1.3-0.4-0.9-1.6-1.3-2.5c0.2-0.5,0.4-0.9,0.6-1.5C316.5,480.2,315.3,481.7,315,483z" />
	<path fill="#7B8C9A" d="M345.4,464.1c0.8,0,1.7,0,2.5,0c-0.1,0.9-0.2,1.7-0.3,2.7C345.8,466.5,345.6,465.3,345.4,464.1z" />
	<path fill="#574952" d="M280.2,485.5c-0.6-0.2-1.2-0.4-2-0.6c1.8-1.9,1.8-1.9,3.1-0.7C280.9,484.6,280.5,485.1,280.2,485.5z" />
	<path fill="#663E43" d="M322.3,458.3c1.2,0.1,2.4,0.2,3.9,0.3C324.6,460,323.4,459.6,322.3,458.3z" />
	<path fill="#53444C" d="M352.3,499.8c1.8,1.4,0.5,1.8-0.7,2.3c-0.8-0.6-0.2-1.3-0.1-1.9C351.8,500.1,352,500,352.3,499.8z" />
	<path fill="#767D8A" d="M360.1,464.1c0.4-0.5,0.9-0.9,1.3-1.4c1.1,0.3,1.3,1.1,1.3,2.1l-0.3,0.3   C361.6,464.8,360.8,464.5,360.1,464.1z" />
	<path fill="#A2A3B5" d="M281.3,463.9c-1.6-1.4-1.1-1.9,0.7-0.9C281.8,463.3,281.6,463.6,281.3,463.9z" />
	<path fill="#1D1C1F" d="M327.3,490.9c-0.3-0.4-0.7-0.8-1-1.2c0.4-0.3,0.7-0.6,1.1-0.8C327.7,489.6,327.6,490.2,327.3,490.9z" />
	<path fill="#3B2F34" d="M282.4,479.8c0.4,0.4,0.7,0.7,1.1,1.1c-0.4,0.3-0.7,0.7-1.1,1C282.4,481.1,282.4,480.5,282.4,479.8z" />
	<path fill="#767D8A" d="M362.7,464.9c0.1,0.3,0.2,0.7,0.3,1c-0.2-0.2-0.4-0.5-0.7-0.7L362.7,464.9z" />
	<path fill="#B7BDD4" d="M289.2,467.2c1,0.4,1,0.8,0,1.3l-0.2-0.2c0.1-0.3,0.1-0.6,0-0.9L289.2,467.2z" />
	<path fill="#745F69" d="M368,467.4c-0.3,0.3-0.7,0.7-1,1C367.3,468,367.7,467.7,368,467.4z" />
	<path fill="#231C1F" d="M344.4,521.2c2.2-0.1,7.2,2,4.8,4.6c-2.1-0.2-3.2-2.2-4.8-3.3C344.4,522.1,344.4,521.7,344.4,521.2z" />
	<path fill="#473F47" d="M371.9,489c-2,2-2,2-5.8,2.8C367.5,489.7,368.7,488.3,371.9,489z" />
	<path fill="#413E46" d="M291.2,499.1c2.3-0.7,4.1-0.2,5.9,1.6C294.6,501.6,292.8,501.3,291.2,499.1z" />
	<path fill="#5C393F" d="M299.5,502.7c1.5-0.6,2.5-0.5,3,1.1C301.2,504.6,300.3,504.1,299.5,502.7z" />
	<path fill="#6F7280" d="M305.7,504.4c1.9,1,1.2,2.6-0.6,1.6C305.2,505.5,305.4,505.1,305.7,504.4z" />
	<path fill="#918494" d="M359.8,496.5c-0.5,0.2-0.9,0.4-1.4,0.6C357.8,495.9,359.3,495,359.8,496.5z" />
	<path fill="#564C56" d="M344.4,521.2c0,0.4,0,0.9,0,1.3c-0.7-0.5-1.5-0.9-2.3-1.4C343.2,520,343.9,520.3,344.4,521.2z" />
	<path fill="#41383E" d="M282.3,497.5c0-0.3,0-0.6,0-0.9c1,0.1,2.1,0.1,3.1,0.2c0,0.2,0,0.5,0,0.7   C284.4,497.5,283.3,497.5,282.3,497.5z" />
	<path fill="#132243" d="M395,519.9c-2.1,0.1-3,0.2-4.1,0.2C391.7,518.4,392.6,517.8,395,519.9z" />
	<path fill="#262F5C" d="M390.6,502.8c1.7,1.1,2.4,1.7,3.3,2.3C392.2,506,391.2,505.9,390.6,502.8z" />
	<path fill="#18172C" d="M393.4,510.1c-0.8,0-1.6-0.1-2.4-0.1c0-0.3,0-0.5,0-0.8c0.8,0,1.6,0.1,2.4,0.1   C393.4,509.6,393.4,509.8,393.4,510.1z" />
	<path fill="#222243" d="M391,461.6c-1.1-0.1-2.2-0.1-3.3-0.2c0-0.2,0-0.5,0-0.7c1.1-0.1,2.2-0.1,3.3-0.2   C391.1,460.9,391,461.2,391,461.6z" />
	<path fill="#2E386D" d="M387.6,470.8c0.7,0.6,1.1,1,1.7,1.6C387.7,472.5,387.7,472.5,387.6,470.8z" />
	<path fill="#435AB0" d="M391.8,491c0,0.4,0.1,0.7,0.2,1.1c-0.8,0-1.6,0.1-2.4,0.1C389.9,491,390.8,490.9,391.8,491z" />
	<polygon fill="#101427" points="390.1,477.7 390.2,478.1 389.9,478.1  " />
	<path fill="#080609" d="M387.2,468.4c0.2,0.2,0.4,0.3,0.6,0.5C387.4,469,387.4,468.7,387.2,468.4L387.2,468.4z" />
	<path fill="#E8C6B7" d="M249.6,490c5.3,0,9.4,2.8,14,5.4c-1.6,2.1-2.9,3.8-4.4,5.7c-4.7-1.6-9.8-1.8-13.8-6.2   c-0.2,1.6-0.4,2.4-0.5,3.5c3.6,2.6,8.2,2.5,11.8,4.7c-4.9-0.1-16.9,1.7-13.3-6.8c-1.1-0.8-2-1.4-2.8-2c1,0.2,2.2,0.7,2.3-1.1   c0.7,0.3,1.3,0.6,2.4,1.1C246.5,492.8,249.4,492.9,249.6,490z" />
	<path fill="#504642" d="M209.3,508.8c-1.5-3,2.5-4.6,4.2-6.5l0,0c0,0.4,0.1,0.7,0.1,1.1C212.5,505.4,211.2,507.3,209.3,508.8z" />
	<path fill="#231D1B" d="M278,527.6c-0.1-1.3-0.1-2.5-0.2-3.9c0.9,0.2,1.4,0.3,1.9,0.4C279.7,525.5,279.7,526.8,278,527.6z" />
	<path fill="#9E8982" d="M309.7,542.1c-1.5,0.8-1.9,0.7-2.2-0.8C308.2,540.5,308.8,541.3,309.7,542.1z" />
	<path fill="#C8B1A7" d="M283.6,534c-1.4,0.9-1.7,0.8-2.1-0.5C282.2,532.6,282.8,533.2,283.6,534z" />
	<path fill="#A18A83" d="M303.8,539.8c-0.9,1.1-2.6,0.3-1.9-0.9C302.7,538.1,303.3,539.1,303.8,539.8z" />
	<path fill="#5B4E4B" d="M224,521c0-0.9,0-1.8,0-2.7c0.2,0,0.5,0,0.7,0c0,0.9,0,1.8,0,2.7C224.4,521,224.2,521,224,521z" />
	<path fill="#251716" d="M242.9,493.2c0,1.8-1.3,1.3-2.3,1.1C240.8,492.6,240.8,492.6,242.9,493.2z" />
	<path fill="#C3ACA3" d="M280.5,529.9c0.8,0.4,0.5,0.7,0.1,1.3C280.1,530.8,280.4,530.4,280.5,529.9z" />
	<path fill="#CDC0B6" d="M213.6,503.4c0-0.4-0.1-0.7-0.1-1.1c0.3,0.1,0.6,0.3,0.9,0.4C214.1,503,213.9,503.2,213.6,503.4z" />
	<path fill="#EDC8B9" d="M337.6,562c-2,0.5-2.8-1.6-4.3-2c-1.3,0.3-2.5,0.7-3.7,1c-2.3-1.5-4.6-3-6.9-4.5c4.5-2,9.8-4.4,13.6,0.6   c-0.1,0.7-0.3,1.4-0.4,2.1c1.3,0.5,2.7,1,4,1.5C339,560.9,337.8,560.4,337.6,562z" />
	<path fill="#544440" d="M322.7,556.5c0.9,0.6,1.7,1.1,2.6,1.7c0,0.5,0,1,0,1.4c-1.9-1.2-4.8,1.8-5.6-0.9c1.1-2.2-1.4-2.1-3.3-3.9   C319.6,553.6,320.3,555.2,322.7,556.5z" />
	<path fill="#896C66" d="M337.6,567.8c-2.4-1.5-5-2.2-7.8-2.3c0-0.8,0.1-1.6,0.1-2.4c4.4,1.6,9,3.1,13.4,4.7c0.1,1-0.3,1.8-1.3,2.1   C341.1,568,339.3,568,337.6,567.8z" />
	<path fill="#2E2321" d="M329.9,563c0,0.8-0.1,1.6-0.1,2.4c-0.8,0.4-1.6,0.8-2.4,1.1c-0.1-2.5,0.5-5.3-2.2-7c0-0.5,0-1,0-1.4   c1.4,0.9,2.9,1.9,4.3,2.8c0.1,0.4,0.2,0.7,0.3,1.1C329.8,562.4,329.8,562.7,329.9,563z" />
	<path fill="#6A4946" d="M324.8,553.4c-0.6,1.3-1.4,1.2-2.5,0.4C322.9,552.5,323.8,552.7,324.8,553.4z" />
	<path fill="#5A3E3B" d="M337.6,562c0.1-1.5,1.4-1.1,2.3-1.3c0.3,0.4,0.5,0.8,1.1,1.5C339.6,562.1,338.6,562.1,337.6,562z" />
	<path fill="#E1CABF" d="M329.9,563c-0.1-0.3-0.1-0.7,0-1c0.3,0.4,0.5,0.9,0.8,1.3C330.5,563.3,330.2,563.2,329.9,563z" />
	<path fill="#E5C4B4" d="M276.7,513.6c-3.2-4.8-7.7-8-12.8-11.1c1.1-1.8,2.5-3,4.3-3.9c7,3.8,13.1,10,14.2,18.2   C279.6,516.7,278.7,514.1,276.7,513.6z" />
	<path fill="#8C756E" d="M194.4,495.5c-1.1,1.1-2.3,2.2-3.4,3.3c-0.4-0.4-0.8-0.8-1.2-1.2C191,496.3,192.5,495.5,194.4,495.5z" />
	<path fill="#89736B" d="M199.7,481.5c-0.7,0.5-1.4,1-2.8,2C197.3,481.5,198,481,199.7,481.5z" />
	<path fill="#413935" d="M189.7,497.6c0.4,0.4,0.8,0.8,1.2,1.2c-0.7,0.4-1.4,0.8-2.1,1.1C188.6,499,188.6,498,189.7,497.6z" />
	<path fill="#51302E" d="M205.7,476.3c-0.4,0-0.8,0-1.2,0.1c0.3-0.3,0.5-0.6,0.8-0.9C205.4,475.7,205.5,476,205.7,476.3z" />
	<path fill="#7B6E68" d="M204.6,476.3c0,0.4-0.1,0.8-0.1,1.1c-0.2-0.3-0.5-0.5-0.7-0.8C204,476.5,204.3,476.4,204.6,476.3z" />
	<path fill="#190D0D" d="M239.4,462.8c0.3-1.2,1.5-1,2.3-1.3C241.4,462.8,240.4,462.7,239.4,462.8z" />
	<path fill="#F6DBCF" d="M337.6,567.8c1.7,0.2,3.5,0.2,4.4,2c-1.9,1.2-3-0.5-4.4-1.2C337.7,568.4,337.7,568.1,337.6,567.8z" />
	<path fill="#4C66C6" d="M400.8,489.6c0.8-0.3,1.5-0.6,2.3-0.9C402.7,489.9,401.8,489.8,400.8,489.6z" />
	<path fill="#4C66C6" d="M400.8,476.2c-0.3,0.4-0.7,0.8-1,1.3C400.1,477,400.4,476.6,400.8,476.2z" />
	<path fill="#787B8A" d="M289,467.4c0.1,0.3,0.1,0.6,0,0.9c-1.6,0-2.3,0.7-2.9-1.6C287.1,466.9,288.1,467.2,289,467.4z" />
	<path fill="#8C8F9F" d="M285.3,475.1c-0.9-1.9-0.3-2.1,2.3-1.8C286.4,474.3,285.9,474.7,285.3,475.1z" />
</g>
</svg>