<?xml version='1.0' encoding='utf-8'?>
<svg xmlns="http://www.w3.org/2000/svg" version="1.2" baseProfile="tiny" id="Layer_1" x="0px" y="0px" viewBox="0 0 900 600" overflow="visible" xml:space="preserve">
<g id="b_00000158008886670474289330000014728251142559371393_">
	<path display="inline" d="M820.7,467.6c-2.4,4.1-8.2,4.3-12.1,6.6c-2.9,1.3-5.1-1.2-7.5-2.6c-0.6,0.5-1.1,0.9-1.6,1.4   c8.6,8.7,22.4,1.9,28.4,13.5c-7.5,16.9-29.6,4.5-43.1,2.9c-5.8,3.4-12.2,5.3-18.8,7.1c-0.2,0.6-0.4,1.6-0.8,2.7   c-1.3,0.5-2.6,1.1-4.1,1.7c-9.7-3-17.1-12.2-28.4-9c-12-4.8-15.3-19.6-14.7-30.9c-9.7,13.7-20.7,27.9-39,29.7   c-14.1,0.5-26.1,10.1-40.9,7.9c0.4,6,5,12.9,0.6,17.9c9.8,7.5,21.2,10.2,31.5,16.4c-2.7,9.4-13.7,16.5-23.3,11.1   c-8.5,2.5-18.9,0.1-27-3.3c-31.1,7.2-29.3,6.1-57.5-2.4c-9.2-17.6-14.7-36.3-27.9-51.6c-17.7-1.1-35-6.7-49.3-17.4   c-17.6-2.3-34.5-12.5-52.1-13.9c-20.2-0.6-39.3,7.7-59.3,6.6c-0.1,0.5-0.3,1-0.4,1.5c-3.5,0.6-6.6,0-8.8-2.5   c-27.4-1.3-54-6.2-78.4-18.8c-8.3-4.9-19.2-2-26.7-8.6c-43.2-17.9-91-20.5-136.8-29.5c-1.3,13.4-10,16-6.8,33.1   c-0.3,0.5-0.8,1.4-1.3,2.3c12.1,14.2-7.8,26-20.9,18.5c-26.4,32.2-94.1-12-64.4-47.5c2.1-16.4-14.3-11.8-14.1-39.5   c-0.6-12.8,9.2-24.4,19.3-31.2c11.3-2.4,21.3,6.2,31.8,7.8c3.3-0.2,6.3,1.1,9,2.4c6.2-17.3,11.3-17.7,27.9-13.1   c11.6,3.9,34.5-0.2,39.2,13.2c6,2.3,12.7-1.5,17.7,2.8c20.9,2.7,41,0.6,61.8-0.4c20.9,0.3,39.7,8.7,59.9,13.4   c27.2-10.6,59.7-2.7,86.4-14.6c46.8-38.3,126.4-36.6,168.1,8.9c31.6-7.9,64.4-6.2,96.6-4.6c24.8-4.7,49.9-7,74.8-10.9   c1.4-4.8-1.2-12.6,5-14.8c0,0,0,0,0,0c0.3-0.3,0.7-0.7,1-1c0,0,0,0,0,0c22.1-5.4,48.8,9.5,65.9,23.6c16.2-43.6,99.6-71,83.6-24.7   c-2.5-4.2-0.1-10.3-1-14.9c-8.4-9.1-17.4-1.8-23.3,5.3c-0.5-0.5-0.9-0.9-1.4-1.4c1.7-1.9,3.3-3.8,5-5.8c1.2-0.3,2-0.9,1.9-2.4   c-1.3-0.4-2.5-0.9-3.8-1.3c-1.3,0.7-2.9,0.9-3,2.7c-5.6,1.6-10.5,4.1-15.4,7.2c-0.9-0.4-1.7-0.8-2.6-1.2   c-32.7,14.3-33.8,52.7-45.1,82.5c-1.1,1-1.6,2.2-1.7,3.9c10.7-10.1,14.6-25.4,18.6-39.2c3.2,22.6-16.5,45.4-34.8,57.7   c-0.8-0.4-0.8-0.6-1.1-1.3c18.3-13,19.8-42.6,25.8-63.2c-3.5,8.3-7.8,14.2-12.7,21.4c-0.7-1.2-0.8-3.4-2.7-2.6   c-6.5,1.5-12.8,0.7-18.8-2.4c0.7-0.3,1.3-0.7,2-1c7.2,0.7,15.4,3,21.7-1.6c-9.1-0.3-17.6-1.2-24.8-7.1c0.4-0.4,0.8-0.8,1.2-1.2   c9.4,5.4,20.4-2.2,28.3-7.2c-12-6.2-39.2-8.7-51.2-1.7c38.3,44.2-42.1,105.6-14,105.1c5.7-7.2,16.1-7.7,23-13.5   c12-11.5,33.7-12.5,45.2-0.2c-0.1,8.9,4,17.7,7.8,25.4c7.2,3,12.6-4.1,18.8,0.6c0.8,1.1,1.8,1.5,3.5,1.1c-0.8-1.7-1.3-3.1-3.1-3.4   l-0.2,0.2l0.2-0.2c0-0.9,0-1.8-0.1-2.7c3,1.4,5.7,3.5,9.1,3.7c1.6-1,3.1-1.9,4.6-2.8C819.5,466.6,820.4,466.5,820.7,467.6z    M435.9,443.9L435.9,443.9c-0.4-0.4-0.8-0.8-1.1-1.2c-0.6-36.8,60.8-78.7,94.7-83.6c-13.1-13.2-31.5-21-49.2-25.6   c-0.5-0.8-1.1-1.6-1.6-2.3c-3.8-0.3-7.2-1.3-10.9-1c3.3,4.6,9.8,3.3,13.4,8.7c-2.6,0-4.1-1.1-6.2-0.9c-7.6,0.9-13.4-7-21.3-6.1   c-23.2-2.9-45.6,2.8-66.7,12.3c-5.5,6.8-13.3,9.6-21.6,11.7c-14.2,33.2-24.4,61-2.3,93.8c-1,2.9,0.7,4.5,2.3,6.2   c22.5,2.9,44.5-3.7,66.8-5c0.6-1.9,1.1-3.4,1.6-4.9c7.2,13.2,24.1,10.7,37.3,11.1c-0.3,0.5-0.6,1.1-0.9,1.6   c-0.8,0.2-1.6,0.4-3.1,0.8c22,7.4,41.4,21.3,64.8,23.8c-20.4-30.3-30.4-63.5-36.6-99c3.6-6,6.4-11.6,13-14.4   c-4.8-1.1-7.2,2.9-9.7,6.2C475.8,386.6,440.5,418.7,435.9,443.9z M817.7,485.3c-3.1-2.5-7.4-2.1-10.9-3.7c-4.9-3-10-8.4-16-5.2   c-4-1.4-7.2-4.2-11.4-2.2c-9.8-6.5-9.5-0.7-8.1,7.9c14.9,2.6,29.2,8.5,44.6,10.4c2.9,0.8,3.8-2.1,5.4-4c0.9-0.8,2.8,0.7,3.1-1.7   C822.2,485.8,820.1,485.3,817.7,485.3z M760.6,366.3c4.1,1.2,10.5,2.7,12.9-1.5c-4.5,1.6-8.2,2-11.9,0.6c-1-0.3-1.9-0.5-3.5,0.7   C759.4,366.1,760,366.2,760.6,366.3z M770.6,363.4c2.1-0.8,6-0.9,5.2-4.2c-4.7,1.9-7.2,2.8-12,5.1   C767,364.2,768.9,364.7,770.6,363.4z M651.1,357.5c-38.4,7.1-129.3-10-153.1,29.9c7.4,18.2,10.3,37.8,16.9,56.1   c9.3,21.3,23.4,39.6,35.2,59.3c-0.4,0.9-0.8,1.7-1.3,2.8c6,8.8,11.9,17.2,13.6,28.1c4.7,2.9,5.2,3,9.3,1.5   c22.9-50-14.9-44.5-8.7-118.6c16,0,31.9,0.7,47.6,1.5c2.7,0.2,9.5-2.9,8.1,2.1c-1.3,0.4-2.8-0.6-3.8,0.9c-1.9,0.4-3.7,0.7-5.5,1   c-1.5,9.3,1,11.9,3.6,18.8c-0.4,1.6-0.8,3.2-1.1,4.8c-0.3,0.1-0.5,0.1-0.8,0.1c-5.1-6.7-9.1-14.4-5.9-23.2   c-9.2-0.2-17.6,2.5-26.2-1.4c-1.1,22.6-2.6,46.4,12.5,65c-3.1,12.8-11.9,25.1-12.3,38c-6.4,7.3-6.3,15.9,5.1,17   c5.3-4.4,1.2-10.8-4-12.5c0.1-0.8,0.2-1.4,0.3-2.1c1.4-0.1,2.9-0.3,4.4-0.4c6-11.2,8.2-24.1,13.3-35.1c0.7,0.6,1.3,1.2,2,1.8   c6.4,0.5,12.1,3.8,18.2,0.3c-5.7-4.3-13.4-8.2-14.3-16c0.7-0.7,1.3-1.3,2-2c0.9,6.3,7.9,11.7,13.3,13.2   c-3.3-4.5-3.6-19.7-11.4-16.2c-2.2-1,0.5-3.6,2.1-2.9c8.5,1.1,18.5,35.6,18.9,44c2.6,1.3,2.7,1.4,6.5,1.5   c-1.1-11.7-5.2-22.6-8.8-33.7c0-0.8,0-1.6,1-2c2.4,3.9,3.5,8.7,5.8,12.6c14.8,4.7,28.2,1.3,39.2-8.8c0.5,0.4,0.9,0.9,1.4,1.3   c-0.6,0.8-1.2,1.7-2,2.7c14.4,1.1,32.8-7.5,37.1-21.3c-1-0.5-1.6,1.7-2.8,0.3c1-1.3,1.9-2.5,3.2-4.2c-16.7,2-7.4-18.1-1-24.8   c7.7-13.4,16.2-27.2,21.2-41.9c3.8-20-2.4-27.8-9-44.3c-1.4-0.7-2.9,0.1-3.6-1.4c0.4-0.2,0.8-0.3,2.2-0.9   c-12.8-0.2-26.3-0.8-37.9,3.1C672.9,356.5,661.1,356.5,651.1,357.5z M251.7,375.2c-23.1,2.1-41.7-17.2-65.2-16   c-36-4.9-74.1,10.4-108.8,0.2c-2.6,1.3-5-0.6-7.4-1c-5.7,4.6-8.3,11.5-13.1,16.2c-2.5,6.4,9.9,29.3,16.6,28.7   c0.1-1.1,0.2-1.9,0.4-2.8c30.9-5.9,62.5,0.6,92.6,7.6c24.6,1.1,47.7,5.1,70,15.8c3.7-1.7,8.2,1.1,12.1,1.5c0.7,0.9,1.5,1.2,2.8,0.3   c-0.9-0.9-1.8-1.7-2.6-2.6c0.4-0.4,0.8-0.7,1.2-1.1c33.7,18.6,71.3,32.4,110.1,33.4c-17.7-29.8-16.5-64.9-2-95.6   c-18.3,1.8-37.2,3.9-55.8,5.8C285.3,367.6,269,375.5,251.7,375.2z M73.7,423.2c-4.7,0.2-13.1,3.9-15.5-1.6   c6.2-2.4,15.7-0.7,18.6-4.2c-5-0.3-18,5.7-17.4-2.9c7.4,0.3,14.4-2.3,21.8-2.6c1.9-1.2,3.9-2.6,5.9-3.9c0.4-1.8,2.3-3,0.6-4.8   c-5.6,2.3-11.3,5.1-17.5,5.3c-2.6-4.2-8.4-7.2-8.4-12.1c-4.1-6.2-10.8-13.2-7.3-20.8c5.1-6.1,5.7-16.4,14.3-20c1,0.3,1.9,0.5,3,0.7   c0.6-1.1,1.1-2,1.5-2.9c-3.2-2-3.2-2-5.7-1.8c-10.9,0.4-19.2-10-30.7-8.1c-8.2,9.8-20.8,18.6-16.4,32.9c1.4,5.5,0.5,12.4,5.3,16.4   c5.1,4.2,9.3,10,7.8,16.9c-2.8,9.6-4.6,19.1-5.7,29.4c6.3,19.3,51.4,39.7,59.8,13.9c-0.9-1.6-2.5-3.2-2.4-4.7   c-0.5-5.5-6.6-7.6-7.3-13c-4.8,0-10.2,2.6-14-0.9c3.6-3.3,8.1-2.2,12.7-2.4c-0.1-2.1,2.2-3.6,0.9-5.8   C78.2,423.3,76.2,421.8,73.7,423.2z M636.7,522.7c-2.9-2.1-7.1-1.4-10.5-2.2c-0.1-0.7-0.2-1.2-0.3-1.7c1.6,0,3.2-0.1,4.8-0.1   c1.8,1.1,3.7,1.2,6,0.6c-5.3-4.4-14,0-17.6-7.5c-8.3,0-15.7-0.9-23.7-0.8c-2.3,5.2-4.4,10.1-6.7,15.3c20.6-1.9,35.3,22.9,56.6,12.9   c-14.7,0-22.7-11.1-35.3-15.9c0.1-0.8,0.2-1.3,0.2-1.8c11.8,0.1,18.9,12.3,30.1,14.2c4.1,0.3,8,1.6,8.9,6.1   c3.9,1.6,7.5,1.3,11.4-1.3c-9.8-4.7-17.6-12.8-28.2-15.2c-4.6-1-11.9-0.7-14.3-5.1c1.7-1.4,3.2,0.4,4.8,0.5   C627,523.4,632.1,522.5,636.7,522.7c8.5,5.2,15.9,11.1,25.5,14.7c1.7-0.5,2.9-1.9,4.1-3.5C655.8,531.2,648,522,636.7,522.7z    M758.7,495.1L758.7,495.1c0.8,1.2,1.7,2.5,3.3,2.8c4.9-5.8-2-10.3-7.6-11.5c1.6-2.6,2-11.9,0.3-13.9c-15.8-1.4-12.7-18-13.9-29.2   c-4.2,1.1-6.2,5.1-9.8,7.2c-3.4,2.5-7.6,3.6-10.6,6.5c2,7.1,2.4,14.8,2.1,21.7c7.2,6.2,6.7,10.5,18.3,9.4   C747.8,488.3,751.8,495.8,758.7,495.1z M578.8,471.4c-5.3-16.6-7.6-33.9-3.2-51c-3.8,0.5-7-1.6-10.9-1.1   c0.9,31.9,1.3,44.5,16.8,73.7c1.8,0,3.4,0,5.1,0c0.7-1.6,1.4-3.1,2.1-4.6C584.5,483.1,581.7,477.3,578.8,471.4z M265.7,366.2   c-14.9-8.6-39.6-10.8-58.3-8.6c24.1,11.8,40.7,20.4,67.9,9.8c-4.6-1.3-5.9,1-9.5-0.4C265.8,366.7,265.8,366.5,265.7,366.2z    M89.4,445c1.1,1.4,2.2,2.7,3.4,4.2c-0.1,1.1-0.2,2.2-0.3,3.4c0.8,1,1.5,2,2.3,3c7.9,1.9,26.7-1.2,17.9-11.8   c-2.8-7.3-0.6-16-0.1-24.1c-1.3-0.8-3.5-1.3-1.8-3.9c1.3-0.2,2.7-0.3,4.2-0.5c0.1-0.7,0.2-1.1,0.2-1.8c-2.4-0.8-7.6-1.2-5.9-4.9   c3.2-0.2,4.8,0.1,8.3,1c-2.1-4-7.1-1.7-9.6-6c-5.1-0.3-10.4-2.2-15.9,0.1c-0.1,6.4-3.4,9.3-9,11.4C87.1,427.3,75.3,433.7,89.4,445z    M136,345.9c-13.3-3.3-26.9-2.8-39.7-6.9c-3.5-2-6.8-1.8-10.4,0.3c-2.8,5.7-7.1,11-7.9,18.3c14.9,2.7,30.3,0.8,45.2-0.4   C126.5,351.4,130.6,349.3,136,345.9z M710.5,343.6c18.9,1.4,37.4,1.2,56.1,4.2c-12-8.2-38.3-20.9-53-16.8c-1.1,1.5-2,2.8-3,4.2   C710.5,337.8,710.5,340.6,710.5,343.6z M760.5,440.5c-3.8-0.6-7.4-1.2-11.1-1.8c-2.2,1-4.3,2.1-6.4,3.2c0.6,7.3,3.5,13.6,4.7,20.7   c0.1,6.1,2.8,5.9,7.9,6C757.1,459,759.9,449.8,760.5,440.5z M767.5,480.9c-0.6-13.5,1-27.5,0.4-40.6c-1.3-0.3-1.7-0.2-3.3,0.1   c-3.1,13.7-5.7,26.8-6.5,41.3C761.2,479,764,481.9,767.5,480.9z M596.5,507.6c9.1,2.9,20.5-2.1,28.1,4.9c0-4.1-1.3-9.2-3.6-14.1   c-7.1-0.2-14.2-0.4-21.4-0.6C598.2,501.2,597.2,504.4,596.5,507.6z M589.4,542c7.9,0.6,16.1-2.1,24.2-2.8   c-6.6-6.8-15.3-9.8-25.1-9.6C591.2,533.8,590.8,537.8,589.4,542z M770.8,442.5c-0.7,8.1-0.1,16.2-0.2,24.7   c4.9-1.4,7.2,3.8,11.8,3.4C776.3,462.1,780,447.9,770.8,442.5z M767.1,485.1c-2.3-2.7-5.6-1.6-8.3-3c-0.4,1-0.7,1.7-1.1,2.6   c3.3,1.8,7.4,2.6,8.1,7.6c1.6-1.8,4.6-2.5,4.3-4.6c-0.7,0-1.5,0-2.3,0C767.6,486.7,767.3,485.8,767.1,485.1z M137.5,356.4   c1.1-1,2-1.7,3-2.7c-2-0.6-3.5-1.7-4.8-3.2c-3.9,0.5-6.3,2.4-7.9,5.9C131.3,356.4,134.5,356.4,137.5,356.4z M774.5,490.1   c2.2-1,3.9-1.8,5.8-2.6c-2.4-2-2.4-2-5.4-2.1C774.2,486.9,774.5,488,774.5,490.1z M80,422c0.8-1,0.8-2.1,0.2-3.3   C78.3,420.9,78.3,421,80,422z M117.2,403.9c0,0.1,0,0.3,0,0.4c0.5,0,0.9,0,1.4,0c0-0.1,0-0.3,0-0.4   C118.1,403.9,117.6,403.9,117.2,403.9z M711.7,458.8c-0.3,0.3-0.1,0.4,0.1,0.6c0.1-0.2,0.1-0.4,0.2-0.6   C711.9,458.8,711.8,458.8,711.7,458.8z" />
	<path display="inline" fill="#030303" d="M820.7,467.6c-0.3-1-1.2-1-2-1c1.4-0.9,2.8-1.8,3.3-3.5c11.3,16.6,12.6-4.7,22.3-10   c37.9-3.4,62.8-47.8,46.3-82.9l0,0c-2.1-8.9-6.9-16.5-12.9-23.5c0.4-0.4,0.9-0.8,1.3-1.2c16.5,10.5,17.9,35,21,52.7   c0.2,23.5-25.6,55.8-50,56.7c-11.7,0.3-16.2,29.9-27.6,12.2C821.8,467.2,821.2,467.4,820.7,467.6z" />
	<path display="inline" fill="#050404" d="M879,345.4c-0.4,0.4-0.9,0.8-1.3,1.2c-1.2-0.3-1.7-2.3-3.6-1.8c1,1.4,1.8,2.5,2.7,3.7   c-0.4,0.4-0.8,0.8-1.2,1.2c-2-0.9-2.2-3.2-4.8-3.1c0.2,1.5,0.8,2.4,1.9,3.1c2.3,4.6,3.9,9.4,4.2,14.5c-0.4,0.7-0.7,1.3-1.1,2   c-2.7-5.5-4-11.5-9.2-15.5c-0.2-1.5-0.6-2.8-1.9-3.6c-0.2,0.1-0.4,0.2-0.6,0.4c8.3,23.2,6.5,48.8-8.3,69c-0.3,0-0.6,0-0.9,0   c19.8-37.3,2.3-57,6.9-92.8c-0.3,2.5,1.1,4.3,2.2,6.3c-0.3,2.6-0.6,5.1-0.9,7.8C869,339.6,874.2,342.1,879,345.4z M864.1,342.3   c-0.1,0.6-0.2,1.2-0.3,2.2c1.2-0.6,1.9-0.9,3.1-1.6C865.6,342.7,865,342.5,864.1,342.3z" />
	<path display="inline" fill="#F5D8C6" d="M712.5,329.8c-0.7,0.3-1.3,0.7-2,1C710.8,329.7,711.6,329.7,712.5,329.8z" />
	<path display="inline" fill="#F5D8C6" d="M713.5,328.9c-0.3,0.3-0.7,0.7-1,1C712.8,329.5,713.1,329.2,713.5,328.9z" />
	<path display="inline" fill="#F5D8C6" d="M714.6,327.9c-0.4,0.3-0.8,0.7-1.1,1C713.8,328.6,714.2,328.2,714.6,327.9z" />
	<path display="inline" fill="#F6D9C7" d="M260.9,375.2c31.5-9.8,64.8-12.1,97.3-15.4c-9.4,22-15.2,46.6-8.7,70.1   c-16.3,4.7-34.3-3.4-51-4.6c-7.3-0.2-14.7-0.1-21.8-2.1c-4.4-1.1-9.7-4.4-13.9-2.2c-15.4-8.6-31.9-14.5-49.4-16.5   c-11.5,0.1-23,0.9-34-2.3c-32-3.4-83.9-20.4-111.6-2.6c-5.3-7.1-12.1-15.4-10.7-25c4.8-4.7,7.4-11.6,13.1-16.2   c2.5,0.4,4.8,2.3,7.4,1c10.2,6.2,22,2.6,33.2,2.2c11.6,1.7,23.1-1.4,34.7-1.4c31.7-5.8,64,0.3,92.6,14.7c0,0.4,0,0.7,0,1.1   c-3.9-0.3-3.9-0.3-6.3,0.6c2.4,0.8,4.5,0.9,6.4,2.1l0,0c4.5,2.5,12.9,1.1,18.4,0.1C259,378.8,258.7,376.2,260.9,375.2z M64.9,385.9   c0.8,1.1,1.7,1.2,2.7,0.5c0.3-1.4-0.7-1.5-1.6-1.5c-1.1-1.1-1.5-2.4-1-3.9c15.6-3.2,32.9-1.1,48-7.1c-9.3-3.5-19.6-4-29.5-3.6   c-5.4,2.7-11.6-2-16.9,1.3C60.8,375.7,59.5,380.9,64.9,385.9z M226.6,374.1c-2.2-2.1-2.2-2.1-4.3-0.3   C223.6,374,224.6,374,226.6,374.1z M214.3,369.4c1,1.4,1.7,1.1,2.8,0C216,369.4,215.3,369.4,214.3,369.4z" />
	<path display="inline" fill="#FF9A77" d="M355.3,433.1c-12.7-26.1,0.4-52.5,10.2-77.3c8.3-2.1,16.1-4.9,21.6-11.7   c21.1-9.5,43.5-15.2,66.7-12.3c7.9-0.8,13.7,7,21.3,6.1c2.1-0.2,3.6,0.9,6.2,0.9c-3.7-5.4-10.1-4.1-13.4-8.7   c3.8-0.3,7.1,0.7,10.9,1c0.5,0.8,1.1,1.6,1.6,2.3c17.7,4.7,36.1,12.4,49.2,25.6c-35.1,6.1-86.2,41.2-94.6,76.9   c-10.2-0.3-20.8-2.4-31.2-2.4c-0.5-7,0.1-13.8-0.4-21.3c-3.9,7.8,0.7,14.8-3.3,22.1c-1.4-9.8,1-18.8-1-28.2   c0.2,7.7-2.6,15.2-0.5,22.7c0.2,1.6,0.5,3.5-0.5,4.9c-1.4-0.2-3,0.6-4.2-0.8c-0.1-4.5,0.3-8.7-0.3-13.6c-2.9,4.8-0.9,9.7-2.1,14.3   C379.4,433.6,367.2,430.5,355.3,433.1z M424.2,385.9c8.1-5.6-3.3-14.3-7.5-18.7c-10.2-0.5-18.1,3.6-24.9,10.1   c-0.5,2.8,0.5,4.7,2.3,6.5C404.2,384,413.9,386.8,424.2,385.9z M487.7,345.4c0.2-2.5,0.2-2.5-3.2-4.2   C482.9,343.3,486.6,344,487.7,345.4z M498.9,350.9c-1-1.1-1.8-2.3-3.6-1C496.3,351.1,497.1,352.1,498.9,350.9z" />
	<path display="inline" fill="#F6D9C7" d="M504.7,376.9c40.8-22,90.6-16.6,134-17.5c1.7,0.4,3.6,0.8,4.9,2.1   c-1.4,0.5-2.5,1.4-3.1,2.8l0,0c-1.4,0-2.3,0.8-3,2l0.1,0c-2,0.6-4,1.3-4,4c0,0,0,0,0,0c-8,11.4-8,25.6-13,38.4   c-14.4,4.4-29.6-0.2-44.4,1.1c-5.1,1-9.9-3.9-14.6-1c-2-1.7-2-3.8-5.1-4.6c11.3,20.4,1.2,44.6,10.5,65.6   c3.9,12.4,14.8,24.4,12.8,37.8c-3.4,7.6-2.5,17.7-9.5,23.2c-0.9-0.6-1.8-1.2-2.5-1.6c-2.8-15.5-10.9-28.5-19-41.6   c-0.3-0.1-0.6-0.2-0.9-0.1l0.1,0.1c-1.1-3.6-3.7-6.8-6-9.8l0,0.1c-0.7-1.5-1-3.4-2.9-4.1c-2.7-4.7-6.4-9.3-6.1-15.1   c-1.4-1.1-0.8-3.8-3-4.4c-0.5,0.4-0.9,0.8-1.3,1.2c-9.3-16.3-14.4-34.9-19.6-52.7c-2.5-7.4,4.6-13.8,5.3-20.9   c-4.5-3-4.8,6.2-8.3,5.6c0.4-2.5,3.9-4.7,1.8-7.2c-0.5,0.7-1,1.2-1.4,1.8C505.9,380.2,505.3,378.5,504.7,376.9z M514.9,409.3   c-0.1-1.1-0.2-2.3-2.1-2.3c-0.5,1.9,0.1,3.4,1.8,4.5c0.2,0.5,0.3,1,0.6,2.1C515.7,411.6,515.9,410.4,514.9,409.3z M601.3,384   c-1.5-0.2-2.7,0.4-3.9,1.7c2,0.4,3.6,0.5,4.9-0.8c1.8,0.1,7.4-0.4,5.2-3.2C605.2,381.7,603.4,383.5,601.3,384z M551.6,399.9   c1.8,2.1,1.6,3.9,4,3.5C555.2,401.4,554.2,400.5,551.6,399.9z M590.8,387.7c0.5-3.5-2.5-1.1-4.7,0   C588.4,387.7,589.7,387.7,590.8,387.7z M583.3,387.3c-1.4-0.7-2.4-0.6-3.6,0C581.1,388.9,582.1,388.8,583.3,387.3z M548.8,398.5   c-0.1-2.4-0.1-2.4-2.6-2.3C547.1,397,547.8,397.7,548.8,398.5z M517.4,420.4c0.5-1.2,0.6-2-0.5-2.4   C515.7,419,516.4,419.6,517.4,420.4z M529.3,449c-0.1-0.3-0.2-0.5-0.3-0.8c-0.6,0.3-0.5,0.7-0.2,1.2   C529,449.3,529.1,449.1,529.3,449z" />
	<path display="inline" fill="#FFF0A7" d="M629.9,483.2c-5-7.8-5.5-21.5-17.6-20.8c0.1-4.6,2.3-9,3.1-13.7   c54.7,29,157.9-69,87.2-94.5c-0.3-0.6-0.6-1.2-0.9-1.8c6.1-1,12.2-1.6,18-1.1c41.3,49.9-48.3,109.7-10,110.4   c-1.3,1.7-2.2,2.9-3.2,4.2c1.2,1.4,1.8-0.8,2.8-0.3c-1.2,7.3-8.6,12.8-15.2,15.7c-3.7-1.4-14.5,0.8-11.6-5.8   c-1.6-1.1-2.3,1.1-3.6,1.7C657.7,479.2,656.1,489.4,629.9,483.2z M685.2,473.7c0.2,0.3,0.5,0.5,0.7,0.8c1.2-0.8,1.5-0.8,1.5-2.7   C686.4,472.7,685.8,473.2,685.2,473.7z" />
	<path display="inline" fill="#F6D9C7" d="M745.8,363.3c7.2,5.9,15.7,6.8,24.8,7.1c-8.6,6-20.1,1.1-28.7-0.8   c5.9,6,15.7,7.5,23.8,5.8c0.8-0.2,1.6-0.4,1.8,0.8c-1,1.3-2,2.6-3,3.8c-4.9,0.4-9.1,4-14.5,2.9c-0.3,0-0.7,0.3-1.7,0.9   c4.2,0.6,7.7,0.7,11.3,0.1c1.3,2.7-4.7,3.8-3.9,7l0,0c-0.9-0.1-1.6,0-2,0.9c-4.8,1.4-9.6,1-14.5,0.5c1.3,1.6,2.8,2.4,4.7,2.4   l-0.1,0.2c0.3,0.6,0.7,1.2,1,1.8c-0.1,0.5-0.3,1-0.5,1.9c12.2,2.6,21.2-2.8,28-12.6c-1.3,13-5.5,26.5-17.1,33.8   c0.4,0.7,0.3,0.9,1.1,1.3c13.5-9,25.4-21.9,32-37c1.3,0.7,0.5,2,0.9,2.9c-1.7,9.1-3.6,18.3-5,27.5c-0.5,0.6-1.1,1.1-1.9,2   c-1.3,0-2.9,0-4.3,0c-7.7,5.2-13.3,12.6-21.8,16.5c-7.8,4-16.7,5.4-23.2,11.8c-6.8,5.8-17.2,6.3-23,13.5   c-28.1,0.6,52.3-61,14-105.1c11.9-6.9,39.2-4.4,51.2,1.7c-10.5,7.5-25.6,14.9-34.1,1.2C741.5,358.7,743.2,362,745.8,363.3z    M776.3,406.5c-2.3,2.3-5.2,3.8-6.2,7c5.4-4.2,12.1-9.4,14.3-15.6C781.4,399.9,779.1,403.8,776.3,406.5z M761,427.1   c-1.9-1.5-1.9-1.5-2.7,0C759,427.1,759.6,427.1,761,427.1z M752.5,425.8c0.3-0.3,0.6-0.7,0.8-1c-0.7-0.7-1-0.2-1.5,0.4   C752,425.3,752.2,425.5,752.5,425.8z" />
	<path display="inline" fill="#F7EFD0" d="M69.8,432c-1.9,0.6-4.2,0.6-5.7,2.4c1.8,2.1,4.7,1.5,6.7,3.5c-0.4,0.2-0.8,0.3-1.1,0.5   c2.4,0,4.7,2.1,7,0.1c-0.4-2.4,0.4-2.6,2-1.5c1.1,4.7,6.5,6.2,6.7,11.3c-0.1,1.5,1.5,3.1,2.4,4.7c-1.7,3.8-2.1,8.4-7.3,9.5   c-9.5-7.4-24.6-2.1-33.3-10.5c-0.1-1.1-0.2-2.4-0.3-3.7c-3.6-3.8-7.4-7.4-9.5-11.9c3-9.2,0.3-18.3,3.1-27.4   c1.4-4.7-0.3-8.3-3.1-11.6c-16.7-14.3-17.3-39.5-0.6-53.9c11.5-1.9,19.8,8.5,30.7,8.1c2.5-0.3,2.5-0.3,5.7,1.7   c-0.5,0.9-1,1.9-1.5,2.9c-1-0.3-1.9-0.5-3-0.7c-8.6,3.6-9.2,13.9-14.3,20c-3.5,7.7,3.2,14.6,7.3,20.8c0,4.8,5.8,7.9,8.4,12.1   c6.2-0.1,11.9-3,17.5-5.3c1.7,1.9-0.2,3.1-0.6,4.8c-2,1.3-4.1,2.7-5.9,3.9c-7.4,0.3-14.4,2.9-21.8,2.6c-1.6,2.8,1.8,3.7,3.6,4.7   c-0.1,0.3-0.1,0.7-0.2,1c-1.5,0.5-3,0.9-4.7,1.4c1,3.8,4.7,2.2,7.4,4c-1.5,0.8-2.7,1.4-3.8,2c0,1.8,1.3,1.9,2.1,2.5   c0.7,1.3,1.9,0.9,2.9,1C67.9,431.3,69.1,430.7,69.8,432z" />
	<path display="inline" fill="#E1C7B6" d="M67.8,399.7c27.5-17.8,79.7-0.8,111.6,2.5c11,3.2,22.5,2.4,34,2.3   c17.5,2,34,7.8,49.4,16.5c4.3-2.2,9.5,1.1,13.9,2.2c7.1,2,14.5,1.9,21.8,2.1c16.7,1.2,34.8,9.3,51,4.6c3.5,8.8,6.2,17.1,10.7,25.6   c-41.1,0.7-80.3-19.9-115.9-34.7c1.7,1.7,4.2,1.6,5.7,3.4c-0.4,0.4-0.8,0.8-1.2,1.2c-3.9-0.4-8.4-3.2-12.1-1.5   c-22.4-10.7-45.4-14.6-70-15.8c-30.1-6.9-61.7-13.4-92.6-7.6c-0.1,0.9-0.2,1.7-0.4,2.8C70.7,404.1,69.5,401.5,67.8,399.7z    M228.5,413.3c-2.3-1.5-4.1-3.3-5.9-5.4c-1.9,1-3.8,1.9-5.9,2.9c4.6,2.3,14.2,8,18.4,5.6c1.9,0.9,3,2.5,5.4,1.5   c-1.5-1.7-4.3-3.3-5.5-1.5c-1.1-1.1-2-2.5-3.8-2c0-0.5,0.1-0.9,0.1-1.6c-0.9-0.5-1.8-1-2.9-0.7C228.5,412.7,228.5,413,228.5,413.3z   " />
	<path display="inline" fill="#F6D9C7" d="M878,435.1c-8.9,14.6-20.1,13.9-33.7,17.9c-9.6,5.3-11,26.7-22.3,10   c-1.4,3.4-5.1,4.3-7.9,6.3c-3.4-0.1-6.1-2.2-9.1-3.7c-1.6,1-1.6,1.7,0.1,2.7l-0.2,0.2l0.2-0.2c0.6,2.4-0.2,2.9-2.3,1.2   c-6-2.5-10.3,3.3-16.9,0.5c-6.9-12.7-7.6-32.6,2-44c1.2,0.7,3.4,2.2,4.2,0.1c5.9-6.3,13.4-11.1,17-19.2c1.4,0.9,0.3,2.4,0.8,3.5   c-2.6,12.3,3.1,22.7,8.5,33.5c0.6-3.4-0.1-5.6-0.9-8.7c0.6-2.3,2.9-1.7,4.1-3.2c2.4-5.6,6.7-9.5,10.9-13.7c0.3,0,0.5-0.1,0.7-0.2   c0.4,0.4,0.9,0.8,1.3,1.3c-2.5,8.1-7.9,14.3-11.7,21.4c1.7-1.1,1.7-1.1,2.6-2.7c9.4-2.4,17.1-9.9,23.6-16.8c0.3,0.3,0.7,0.7,1,1   c-1.6,2.8-3.8,4.1-4.1,7.6c4.4-3,5.9-7.5,9.1-11.5c0.6,0,1.2-0.1,1.8-0.1l0,0c-0.7,3.5,1,6.1,4,8c0.4,2.6,0.4,3.7-0.9,6   c1.9-0.5,3-0.9,4.2-1.2c1.4,0.4,2.8,0.8,4.1,1.2c0.3,0.4,0.6,0.9,1,1.4c-1,0.1-1.8,0.1-3.3,0.2c1.8,2.1,3.6,2.4,5.5,2.1   c1.9,1,3.1-0.7,4.6-1.2C877,434.9,877.5,435,878,435.1z M836.5,453.1c-4.1-3.2-8.4-3.5-11.5-7.8c-1.3,3.5,1.5,5.4,2.7,8   C830.4,453.9,833.1,456.5,836.5,453.1z M843.1,449.2c-0.8-4.9-5.7-7.5-10.6-7.9c3.4,3.2,6.3,6,9.2,8.8   C842.2,449.7,842.6,449.5,843.1,449.2z" />
	<path display="inline" fill="#F6D9C7" d="M437.7,438.6c4.5-20.3,42.6-57.4,62.4-62.6c-1.7,2.9-2.8,4.8-4.8,8   c5.8,25.6,10.2,53.2,23.3,76.5c-0.1,0.6-0.3,1.2-0.5,2.2c-6.5-3.8-12.8-6.2-19.1-10c3.1-2.1,4.7-5.5,8.5-6.4   c0.5-0.1,0.8-1.2,1.2-1.9c-6.5-4.1-13.8-2.1-20.9-2.6c-5.2-0.8-10.3-1.2-15.4,0c-11.5,0.9-23.6,6.4-34.3-0.4   C437.9,440.3,437.8,439.5,437.7,438.6z" />
	<path display="inline" fill="#E1C7B6" d="M437.7,438.6c0.1,0.8,0.2,1.6,0.3,2.8c10.8,6.8,22.8,1.3,34.3,0.4   c5.1-1.2,10.2-0.8,15.4,0c7.1,0.5,14.4-1.5,20.9,2.6c-0.4,0.7-0.7,1.8-1.2,1.9c-3.8,0.8-5.4,4.3-8.5,6.4c6.3,3.8,12.6,6.2,19.1,10   c0.2-1,0.4-1.6,0.5-2.2c4.9,7.1,9.2,14.5,13.3,22.5c-23.4-2.5-42.8-16.4-64.8-23.8c3.4-1.2,5.8,0.2,8.1-2.7   c2.7,1.5,5.2,1.7,8.4-0.9c-3.4,0.4-6.3-1-8.3,0.9c-11.7-0.8-39.5,4.6-39.4-12.8c0,0,0,0,0,0c1.1-1.1,1.1-2.5,0.9-4   C437.1,439.5,437.4,439.1,437.7,438.6z M486.2,454.2c1.6,1,2.1-0.2,0.5-0.9C486.5,453.5,486.4,453.8,486.2,454.2z" />
	<path display="inline" fill="#EF8A6A" d="M355.3,433.1c11.9-2.6,24.1,0.5,35.9,0.7c1.2-4.6-0.8-9.5,2.1-14.3   c0.6,4.8,0.1,9,0.3,13.6c1.2,1.4,2.7,0.6,4.2,0.8c1-1.4,0.8-3.3,0.5-4.9c-2.1-7.5,0.7-15,0.5-22.7c2,9.4-0.4,18.4,1,28.2   c4-7.3-0.6-14.3,3.3-22.1c0.6,7.4-0.1,14.2,0.4,21.3c10.5,0,21.1,2,31.2,2.4c0.7,5.3-0.8,9.7-2.6,14.7c-22.3,1.4-44.4,7.9-66.8,5   c-1.6-1.7-3.4-3.3-2.3-6.2C359,444.9,356.5,439.3,355.3,433.1z" />
	<path display="inline" fill="#E1C7B6" d="M549,487.2c3.4,5.9,8.9,11.7,9.9,18.6c-3.1-3.6-4.8-8.5-8.5-11.4   c0.9,4.2,6.6,13.9,9.2,14.8c0.1-0.5,0.2-0.9,0.4-1.4c3.9,6.4,7.4,13,8,21c0.6,0.4,1.5,1,2.5,1.6c0.9-0.7,1.6-1.3,2.3-1.9   c-0.3,2.2-0.7,4.5-1,6.6c-4.1,1.5-4.7,1.5-9.3-1.5c-2.1-8.3-4.2-16.7-10.5-22.9c0.4-1,0.7-2,1.2-3.3c-12.7-21.3-28-41.1-38.2-64   c-6.6-18.3-9.5-37.9-16.9-56.1c1.8-3.9,3-8,6.7-10.5c1.3,2.1,1.1,5.6,3,7c-0.5,1.2-1,2.3-1.5,3.4c3.5,0.6,3.8-8.7,8.3-5.6   c-0.7,7.1-7.8,13.5-5.3,20.9c5.2,17.8,10.3,36.4,19.6,52.7c0.4-0.4,0.9-0.8,1.3-1.2c1.5,0.4,1.7,1.7,2.1,2.9   c-1.3,1.4-1.3,1.4,0.1,4.1c0.1-1.4,0.1-2.4,0.1-3.3c1.1,3.5,1.4,7.6,3.7,10.9c-3.3,3.7,5.9,4.6,5.8,8.9c-0.3,0.3-0.6,0.6-1.1,1.1   c2.4,2.9,3.6,7.2,7.2,8.7l-0.1-0.1c0.1,0.3,0.3,0.5,0.4,0.8C548.6,487.7,548.8,487.5,549,487.2z M506,388c-1.1,3.7-1.8,7,1.6,8.9   C507.6,393.9,508.2,391.4,506,388z" />
	<path display="inline" fill="#F7EFD0" d="M109.3,408.6c-1.7,3.7,3.4,4.1,5.9,4.9c-0.1,0.7-0.2,1.1-0.2,1.8   c-1.4,0.2-2.8,0.4-4.2,0.5c-1.6,2.6,0.6,3.2,1.8,3.9c-5.6,24.2,8.8,29.9-2.3,34.1c-6.4-3.6-13.5-7.9-20.9-8.8   c-14.1-11.3-2.3-17.6-6.3-29.8c5.6-2.1,8.9-5.1,9-11.4c5.4-2.2,10.7-0.4,15.9-0.1c1.1,1,2.1,2,3.2,2.9   C110.5,407.2,109.9,407.9,109.3,408.6z" />
	<path display="inline" fill="#FFF0A7" d="M583.6,471.4c-8.8-15.1-4-33.4-4.6-50.1c5,1.9,9.7,3.1,14.7,3c3.1,3.9,6.9,4.8,10.4,7.8   c4.5,15.3,11.1,10.4,1.1,29.5c-1.4-0.6-2.8-1.2-4.4-1.8C600.4,472.7,591.5,467.3,583.6,471.4z M596.2,463.5   c1.7-0.6,1.5-1.6,1.6-2.7c-0.7,0-1-0.1-1.5-0.1C596.3,461.6,596.3,462.5,596.2,463.5z" />
	<path display="inline" fill="#FAE3C2" d="M861.8,323.6c-3.7,6.3-0.3,14.6-2.7,20.9c-3-9.9-7-19.5-2.4-29.2   c-6.8,3.8-11.4,12.9-13.1,19.6c3.8-5,4.8-10.3,9.5-14c-1,3.9-0.5,7.8,0.1,11.7c-0.7,0.3-1.3,0.6-2.2,1c3.4,14-0.2,27.5-3.2,40.8   c-5.4-7.9,7.2-31.9,1.6-33.4c-3.8,6.8-2.3,19-9.9,22.7c-0.6,1.6-0.8,3.6-1.2,5.3c-1.1,0-0.8,2.5-2.7,1.3   c2.4-11.4,5.8-21.9,12.4-31.4c-11.8,10.5-13.6,26.4-19.4,39.9c-1.5,0.4-2,1.5-2.2,2.8c-1.2,1.1-2.4,2.3-3.9,3.8   c2.6-17.9,10.6-34.2,15.7-51.1c-10.9,11.4-12.6,28.2-19.5,41.5l0,0c1.2-16.9,12-30.9,17.7-46.2c1-0.3,1-1.1,1-1.9   c4.3-4.8,10.2-19,17.8-14c2.7-4-4.5-4.4-6.8-2.6c-0.4-0.4-0.8-0.7-1.1-1.1c4.3-2.9,10.7-1.6,14.7,2.7   C862.1,316.2,862.1,320.1,861.8,323.6z" />
	<path display="inline" fill="#EBDDB8" d="M28.5,353.4c-16.2,45.6,23,25.2,9.1,83.1c2.1,4.5,5.9,8.1,9.5,11.9   c0.1,1.3,0.2,2.6,0.3,3.7c8.6,8.4,23.8,3.1,33.3,10.5c-18.9,7.3-44.2-4.8-52.5-23.4c1.1-10.3,2.9-19.8,5.7-29.4   c2.9-10.4-8.6-14.5-11.3-22.7C19.8,375.2,17.1,361.7,28.5,353.4z" />
	<path display="inline" fill="#4C505E" d="M578.6,525.6c2.5-15.2,10-31,16-45.8c7-13.3,6.5-16.8,23-15.2   c10.6,14.3,15.2,33.1,18,50.5c-3.7-0.1-3.9-0.2-6.5-1.5c-0.4-8.4-10.3-42.9-18.9-44c-1.6-0.6-4.3,1.9-2.1,3   c-11.9,15.7-14.1,36.1-23,53.8c-1.6,0.1-3,0.3-4.4,0.4C580.4,525.5,579.5,525.6,578.6,525.6z" />
	<path display="inline" fill="#F7EFD0" d="M136,345.9c-5.4,3.4-9.5,5.5-12.9,11.2c-14.9,1.2-30.4,3.1-45.2,0.4   c0.8-7.2,5.1-12.5,7.9-18.3c3.6-2.1,6.9-2.3,10.4-0.3C109.1,343.1,122.7,342.7,136,345.9z" />
	<path display="inline" fill="#F6D9C7" d="M726.1,453.5c5.8-2.3,9.1-7.9,14.8-10.2c1.2,11.2-1.9,27.8,13.9,29.2   c-0.7,4.4,1.7,10.2-1.9,13.5c-8.2-3.5-20-0.7-23.6-11C725.5,468.7,723.8,460.6,726.1,453.5z" />
	<path display="inline" fill="#F4D8C6" d="M630.7,518.8c-1.6,0-3.2,0.1-4.8,0.1c-3.7,4.4-4.2-0.4-7.9,1.5c2.4,4.4,9.7,4.2,14.3,5.1   c10.6,2.3,18.3,10.5,28.2,15.2c-4,2.6-7.5,2.8-11.4,1.3c-0.9-4.5-4.8-5.8-8.9-6.1c-7.9-0.4-11.8-7.7-18.5-10.3   c-4.3-2.1-9.4-3-12.2-7.2c-0.6-0.6-1.3-0.9-2.3-0.1c1,1.2,2,2.3,3,3.5c-0.1,0.5-0.1,0.9-0.2,1.8c5,2.5,10.2,5,14.9,8   c-7.5,1.1-16-5.1-23.7-7.1c-0.7,0.9-1.3,1.6-1.9,2.3c-3.4,0.4-6.8,0.3-10.5-0.3c2.3-5.2,4.4-10.1,6.7-15.3c8,0,15.5,0.8,23.7,0.8   c2.8,5.5,8.6,4.5,13.5,5.8C632,518.1,631.3,518.5,630.7,518.8z" />
	<path display="inline" fill="#F5D8C6" d="M710.5,343.6c0-3,0-5.7,0-8.5c1-1.4,2-2.7,3-4.2c14.6-4.1,41.1,8.6,53,16.8   C747.9,344.8,729.4,344.9,710.5,343.6z" />
	<path display="inline" fill="#F4D8C6" d="M265.7,367c3.6,1.4,4.9-0.9,9.5,0.4c-27.2,10.5-43.8,1.9-67.9-9.8   c18.7-2.1,43.4,0,58.3,8.6c-1.2-0.2-2.5-0.6-4,0.8C263.3,367,264.5,367,265.7,367z M253,364.3c3.6,1.7,3.6,1.7,5.5,1.3   C257.2,363.5,255.3,364.2,253,364.3z M246,363.1c-0.6,0.7-1.2,1.2-0.4,1.8C246.8,364.6,246.8,364.3,246,363.1z" />
	<path display="inline" fill="#F9E3C2" d="M837.4,327.8c0,0.8,0,1.6-1,1.9c-4-1-8.1,15.2-14,15.7c0.3-1.2,0.7-2.3,1.1-3.9   c-5,4.2-5.6,11.2-8.8,16.7c-3.7-6,11-24.3,11.4-31c-9.5,8-13.9,20.5-20,30.8c-3.8-16.2,19.2-32.7,26.3-46.3   c3.2-1.2,6.6-2.9,9.8-0.8c-2.7,3.3-15.4,16.8-11.1,19.5c2.5-4.7,4.9-10.2,9.2-13.5c0.4,0.4,0.8,0.8,1.2,1.2   C840.8,320.9,835.2,325.9,837.4,327.8z" />
	<path display="inline" fill="#D6C0A0" d="M791.2,363.3c-3.6,12.8-7.2,25.9-15.9,36.3c-0.3-0.3-0.7-0.7-1-1   c6.7-22.4,13.9-44.4,22.2-66.1c1.5-1.2,3.5-2.8,5.5-4.5c0.6,0.6,1.2,1.2,2,2c2-1.9,3.3-3.4,5.8-4.2c-10,12.2-13.2,27.2-15.9,42.3   c-2.4-3.8,0.7-7.3-0.2-11.4c-1.4,1.1-1.3,2-1.6,3.5C791.2,361.1,791.1,362.1,791.2,363.3z" />
	<path display="inline" fill="#E0C6B5" d="M782.3,434.1c-0.2,8.2-1.6,16.3-1,24.5c-2.5-4.4-2.9-9.2-3.1-14.1   c-7.3-8.6-17.8-8.8-28.4-8.6c11.2-4.2,18.9-12.6,28.2-19.6c1.4,0,3,0,4.3,0c0.8-0.9,1.4-1.4,1.9-2c-1.1,5.8,0.7,12.9-3.5,17.5   c-0.7-0.1-1.5-0.1-2.3-0.2c0,1.1,0,2.1,0,2.8C780,435.5,781.1,434.6,782.3,434.1z M767,428.6c1.8,1.4,3.4,3.3,6.7,2.2   C771.7,428.6,769.7,427.9,767,428.6z M778.1,438.5c-0.2,0-0.4,0-0.6,0c0,0.7,0.1,1.3,0.1,2c0.2,0,0.5,0,0.7-0.1   C778.2,439.9,778.2,439.2,778.1,438.5z" />
	<path display="inline" fill="#E1C6B5" d="M561.7,408.5c4.7-2.9,9.4,1.9,14.6,1c14.8-1.3,30,3.3,44.4-1.1c-0.9,2.9-1.8,5.9-2.7,8.8   c-16,1.1-32,0.1-48-1.1c-2-1.8-4.8-0.2-6.7-1.4C562.8,412.6,562.2,410.6,561.7,408.5z" />
	<path display="inline" fill="#F5D8C6" d="M572.5,472.6c-9.3-16.6-5.7-35.1-7.8-53.3c3.9-0.5,7.1,1.6,10.9,1.1   c-4.4,17.2-2.1,34.4,3.2,51C576.6,471.5,574.4,471.1,572.5,472.6z" />
	<path display="inline" fill="#DFC5B5" d="M726.1,453.5c-2.3,7.1-0.6,15.1,3.1,21.4c3.7,10.3,15.5,7.5,23.6,11   c3.6-3.3,1.3-9.1,1.9-13.5c1.7,2,1.3,11.2-0.3,13.9c5.6,1.2,12.5,5.7,7.6,11.5c-1.6-0.3-2.5-1.5-3.4-2.9c3.5,0.4,4-5,0.1-4.3   c0,1.5,0,2.9,0,4.3c-6.9,0.6-10.9-6.9-17.8-6.9c-11.6,1.1-11.1-3.3-18.3-9.4c0.3-6.9-0.1-14.6-2.1-21.7   C722.2,455.7,723.7,454,726.1,453.5z" />
	<path display="inline" fill="#050504" d="M721.1,353.7c-0.4-0.6-0.8-1.3-1.5-2.2c-8.4-0.1-17.9-0.1-26.1,2.8   c25.4-1.1,40.8,19.8,28.4,43.3c-2.6-10.7,2-24.5-7.1-33.2c-12.5-8.7-28.1-9.7-42.8-5.9c-0.7-0.3-1.3-0.6-2-0.9   c3.6-1.4,7.6-2.1,11.7-3.7c-1.1-0.3-1.5-0.5-1.9-0.6c1.8-1.1,2.6-3.4,5-2.7c0,0.8,0,1.5,0,2.7c10.8-2.4,21.4-3.3,32.4-3.6   c0.7,1.5,2.2,0.6,3.6,1.4C721,351.7,721.1,352.7,721.1,353.7z" />
	<path display="inline" fill="#EAD98E" d="M629.9,483.2c26,6.2,27.9-4,49-5.9c-11.9,13-27.6,20.7-45.4,14.5   C632.2,489.2,630.6,486.4,629.9,483.2z" />
	<path display="inline" fill="#FEFEFE" d="M760.5,440.5c-0.6,9.3-3.4,18.5-4.9,28.1c-5.1-0.1-7.8,0.1-7.9-6   c-1.2-7.1-4.1-13.4-4.7-20.7c2.1-1.1,4.3-2.2,6.4-3.2C753.1,439.3,756.8,439.9,760.5,440.5z" />
	<path display="inline" fill="#4AB778" d="M629.7,377.5c0.9-1.8,1.7-3.6,2.6-5.4c1.2-0.2,1.4-1,1.3-2l0,0c1.9-0.8,3.1-2.2,4-4   l-0.1,0c1.5,0.1,2.5-0.5,3-2l0,0c1.6,0,2.9-0.7,4-1.8c0.6-0.1,1.3-0.1,1.9-0.2c0,0.3,0,0.7,0,1c-7.8,5.9-12.7,13.6-14.6,22.7   c-0.2-0.1-0.5-0.3-0.7-0.4c-6.3,25.1-13.8,49.1-20.1,74.2c-1.6,1.3-1.6,1.2-2.9,0C615.5,432.8,624.4,405.1,629.7,377.5z" />
	<path display="inline" fill="#4C505D" d="M767.5,480.9c-3.5,1-6.3-2-9.4,0.8c0.7-14.4,3.3-27.6,6.5-41.3c1.6-0.3,2-0.4,3.3-0.1   C768.5,453.4,766.9,467.4,767.5,480.9z" />
	<path display="inline" fill="#FBFCFC" d="M596.5,507.6c0.8-3.2,1.7-6.4,3.1-9.7c7.2,0.2,14.3,0.4,21.4,0.6c2.2,4.9,3.5,10,3.6,14.1   C617,505.6,605.5,510.5,596.5,507.6z" />
	<path display="inline" fill="#DFC5B4" d="M599.2,526.7c0.6-0.7,1.2-1.4,1.9-2.3c7.7,2,16.2,8.3,23.7,7.1c5.5,4.9,12,7.6,20.4,7.9   C629.1,547.2,613.3,533,599.2,526.7z" />
	<path display="inline" fill="#4AB978" d="M589.4,542c1.5-4.2,1.9-8.2-0.9-12.4c9.8-0.2,18.6,2.8,25.1,9.6   C605.5,539.9,597.2,542.6,589.4,542z" />
	<path display="inline" fill="#F5F5F5" d="M770.8,442.5c9.1,5.4,5.5,19.6,11.6,28c-4.6,0.5-6.9-4.7-11.8-3.4   C770.7,458.7,770.1,450.6,770.8,442.5z" />
	<path display="inline" fill="#DCC2B1" d="M819.8,490.3c-2,7.3-42.8-9.2-48.6-8.3c-1.2-1.7-0.4-3.6-0.3-5.3c0.1-1.7-0.8-3.6,0.6-5.1   c0.1,2.1,0.1,4.2,0.2,6.1c8.5,2.2,20.1,10,28.4,6.4c5.7,3,12.2,3.4,18.4,4.8C818.9,489.4,819.3,489.8,819.8,490.3z" />
	<path display="inline" fill="#DEC4B3" d="M572.5,472.6c1.9-1.4,4.2-1,6.3-1.1c3,5.9,5.7,11.7,9.8,16.9c-0.7,1.5-1.3,3-2.1,4.6   c-1.7,0-3.2,0-5.1,0C578.5,486.2,574.7,479.6,572.5,472.6z" />
	<path display="inline" fill="#0A0706" d="M747.9,392.9c2.4-1,6.2-0.2,7.8-2.1c7.9-1.5,14.7-4.6,18.2-12.4c0.5,0.2,0.9,0.3,1.4,0.5   c-0.2,3.5-0.9,8.2-3,10.9c0-1.1,0-2.2,0-3.8c-6.8,9.8-15.7,15.1-28,12.6c0.2-0.9,0.4-1.4,0.5-1.9c5.6,0.9,12.2-0.2,16.7-3.8   c1.3,0.3,1.8-0.6,2.4-1.6c-0.1,0.2-0.2,0.4-0.4,0.7c-1.1,0-2.3-0.4-3,0.9c-5.4,2.2-11,2.7-16.7,2.1l0.1-0.2   C745.2,394,746.6,393.4,747.9,392.9z" />
	<path display="inline" fill="#F0D6C4" d="M800,484.2c-8.3,3.5-19.9-4.2-28.4-6.4c0-2-0.1-4-0.2-6.1c2.1-2.1,5.3,1.8,7.8,2.4   c3.1-1.3,6.1-0.6,8.9,1.3c0,0.4,0,0.8-0.1,1.2c-1.7,0.3-5.6-1.6-5.5,1.3C788.1,480.7,795.8,479.5,800,484.2z" />
	<path display="inline" fill="#C7B395" d="M775.3,378.9c-0.4-0.1-0.9-0.3-1.4-0.5c-3.6,7.8-10.3,10.9-18.2,12.4   c-0.8-3.1,5.2-4.2,3.9-7c1.3-1,2.7-2,4-2.9c0,0.6,0.1,1.2,0.1,2.2c6.4-5.8,10.1-13.6,14.6-20.8c1.1,0.3,0.8,1.3,1,2   C778,369.1,776.7,374,775.3,378.9z" />
	<path display="inline" fill="#130F0D" d="M608.2,459.7c1.3,1.3,1.4,1.3,2.9,0c0.3,0.4,0.7,0.7,1,1.1c0.1,0.5,0.1,1,0.2,1.7   c10-0.7,12.4,9.4,15.4,16.9c-1,0.3-0.9,1.2-1,2c-3.3-5.5-4.3-12.3-9.2-16.7c-19.6-2.6-17.9,7.5-26.1,21.7c-0.7-0.7-1.3-1.5-2-2.2   c6.3-8,7.4-19.2,17.5-24.6C607.4,459.5,607.8,459.6,608.2,459.7z" />
	<path display="inline" fill="#E5D58C" d="M605.1,481.5c3.5,5,8.4,8.5,13.4,11.9c-6.1,3.5-11.8,0.2-18.2-0.3   C601,489,601.9,484,605.1,481.5z" />
	<path display="inline" fill="#49B677" d="M578.6,525.6c2.1-0.3,2.2,1.4,1.7,3.2c5.1,1.7,9.3,8.2,4,12.5   C575.1,541.2,571.6,531.6,578.6,525.6z" />
	<path display="inline" fill="#EAD1BF" d="M636.7,522.7c11.3-0.8,19.1,8.4,29.6,11.1c-1.2,1.7-2.5,3-4.1,3.5   C652.6,533.9,645.2,528,636.7,522.7L636.7,522.7z" />
	<path display="inline" fill="#EADBB6" d="M89.4,445c7.4,0.9,14.5,5.2,20.9,8.8c-4.4,4.1-10,1.7-15.5,1.8c-0.8-1-1.5-2-2.3-3   c0.1-1.2,0.2-2.3,0.3-3.4C91.6,447.7,90.5,446.3,89.4,445z" />
	<path display="inline" fill="#E8D68D" d="M597.1,468.5c-2,5.2-3.6,11.9-7.7,15.6c-2.1-4.2-4.4-8.2-5.9-12.6   C587.6,468.1,592.9,470.9,597.1,468.5z" />
	<path display="inline" fill="#171411" d="M796.1,357.3c2.2-14.4,9.1-28.1,19.9-37.9c-0.6-0.3-0.9-0.5-1.2-0.7   c1.5-0.9,3-1.8,4.6-2.8c0.9,0.4,1.7,0.8,2.6,1.2c-12.4,11.1-21.7,24.9-24.8,41.4C796.8,358.2,796.5,357.8,796.1,357.3z" />
	<path display="inline" fill="#E4D48B" d="M606.2,475.4c0.6-1,1.2-2,1.9-2.9c7.8-3.6,8.1,11.7,11.4,16.2   C614.1,487.1,607.1,481.7,606.2,475.4z" />
	<path display="inline" fill="#E7D68D" d="M681.9,477.4c-0.1,4.5,8.9,2.9,12.2,4.1c-6.6,4.2-13.6,6.8-21.9,5.6   C674.8,483.2,678.7,480.8,681.9,477.4z" />
	<path display="inline" fill="#DCC3B2" d="M612.1,438c-3-5.3-3.5-7.9-2.6-15.8c2.5-0.3,4.9-1.5,7.5-0.5   C615.1,427.1,614.8,433.5,612.1,438z" />
	<path display="inline" fill="#F3DDBD" d="M816.6,322.6c2.9-3.1,5.7-6.1,9.7-7.8c0.4,0.4,0.9,0.8,1.3,1.2   c-5.5,7-11.2,13.7-16.8,20.6C807.9,331.5,817,327.9,816.6,322.6z" />
	<path display="inline" fill="#11110F" d="M63.9,430.2c-0.9-0.6-2.2-0.7-2.1-2.5c1.1-0.6,2.3-1.2,3.8-2c-1.4-0.5-2.6-0.9-3.7-1.4   c4,0.1,7.9-0.2,11.9-1.1c0.3,1.4,1.7,1.3,2.8,1.9c0.1-0.7,0.2-1.3,0.4-1.9c1.2,0.7,0.8,1.9,0.8,3C74.6,430.8,68.7,429.8,63.9,430.2   z" />
	<path display="inline" fill="#E4D78D" d="M604.1,432.1c-3.5-3-7.3-3.9-10.4-7.8c-1.9-0.1-4.5,0.6-6.2-0.9   c5.8-0.2,11.5-0.5,17.7-0.7C604.4,425.9,604.1,428.9,604.1,432.1z" />
	<path display="inline" fill="#42A26C" d="M717.3,349.5c-11,0.3-21.6,1.2-32.4,3.6c0-1.2,0-1.9,0-2.7c11.8-1.4,22.6-2.7,34.6-1.9   C718.1,349.2,717.7,349.4,717.3,349.5z" />
	<path display="inline" fill="#47AD72" d="M767.1,485.1c0.2,0.7,0.4,1.6,0.7,2.6c0.8,0,1.6,0,2.3,0c0.2,2.1-2.8,2.8-4.3,4.6   c-0.7-4.9-4.8-5.7-8.1-7.6c0.4-0.9,0.7-1.6,1.1-2.6C761.5,483.5,764.8,482.4,767.1,485.1z" />
	<path display="inline" fill="#372E2A" d="M260.9,375.2c-5,6.8-14,4.6-21.7,4.6c-0.4-0.3-0.7-0.6-1.1-0.9c0.1-0.3,0-0.6-0.2-0.8   c0.6,0,1.2,0,1.8,0c4.6,2.6,11.2-1.4,16.5-1.4c-1.6-0.5-3.1-0.9-4.6-1.4C254.8,375.2,257.9,375.2,260.9,375.2z" />
	<path display="inline" fill="#425844" d="M628.7,384.8c-3.5,11.3-5.5,23.6-9.7,34.5c-0.2-0.8-0.1-1.7-1.1-2.1   c3.8-11.1,6.5-22.5,9.6-33.7C627.9,384,628.3,384.4,628.7,384.8z" />
	<path display="inline" fill="#D9C4B3" d="M137.5,356.4c-3,0-6.2,0-9.6,0c1.5-3.5,4-5.4,7.9-5.9c1.2,1.5,2.8,2.6,4.8,3.2   C139.5,354.6,138.6,355.4,137.5,356.4z" />
	<path display="inline" fill="#B5AB9D" d="M251.7,375.2c1.5,0.4,3,0.9,4.6,1.4c-6-0.1-14.2,5.6-18.2-0.5c0-0.4,0-0.7,0-1.1   C242.6,375.9,247.2,374.9,251.7,375.2z" />
	<path display="inline" fill="#D3C3B3" d="M788.1,476.6c0-0.4,0-0.8,0.1-1.2c0.8,0.3,1.5,0.6,2.5,0.9c6.1-3.2,11.1,2.2,16,5.2   c-3.4,2.5-5.9-1.5-8.7-3.1C794.8,478,791.4,477.3,788.1,476.6z" />
	<path display="inline" fill="#231816" d="M561.7,408.5c0.5,2,1,4,1.6,6.3c1.9,1.1,4.7-0.4,6.7,1.4c-2.2,0.1-4.5,0.2-6.9,0.4   c-0.1,3.5-0.2,6.7-0.4,9.9c-0.5-6.1-1.8-12.1-3.9-17.9c0.2-0.8-0.2-1.9,1.1-2.1C560.5,407.2,561.1,407.9,561.7,408.5z" />
	<path display="inline" fill="#161A14" d="M646.5,362.2c-0.6,0.1-1.3,0.1-1.9,0.2c-0.3-0.4-0.8-0.7-1.1-1.2c2.9-1.3,6.2-2.1,8.9-3.9   c1.3,0,2.7,0,4,0c0.3,0.6,0.6,1.3,1,1.9c-1.9,1.7-4.7,2-7,3C649.3,361.1,647.4,360.7,646.5,362.2z" />
	<path display="inline" fill="#E1D3B4" d="M814.3,321c-2.9,4-6.8,5.5-10.3,9c-0.8-0.8-1.4-1.4-2-2c3.2-2.9,6.7-5.3,10.5-7.2   C813.1,320.8,813.7,320.9,814.3,321z" />
	<path display="inline" fill="#253227" d="M612.1,438c2.8-4.5,3-10.9,4.9-16.3c-0.8-0.2-1.4-0.4-2-0.5c1-1.5,2.6-0.5,3.8-0.9   c-2.2,6.8-2.9,14.4-5.7,20.8C612.7,440,612.4,439,612.1,438z" />
	<path display="inline" fill="#B7A78F" d="M793,366c0.3,0.7,0.6,1.4,0.9,2.1c-1.6,6.3-2.5,12.7-4.7,18.8c-0.4-0.9,0.4-2.3-0.9-2.9   c1.2-3.9,2.1-7.8,2.8-11.8c1.5-1.7,0.5-3.8,1.1-5.7C792.5,366.3,792.8,366.2,793,366z" />
	<path display="inline" fill="#CED2B6" d="M63.9,430.2c4.8-0.4,10.6,0.6,13.8-4c1.3,2.2-1,3.7-0.9,5.8c-2.5,0-4.7,0-7,0   C68.4,429.8,65.3,432.5,63.9,430.2z" />
	<path display="inline" fill="#3A342D" d="M838.6,318.2c-2.9,3.8-5.6,8-7.6,12.3c-3.8-0.9,4.3-11.6,6.2-13.7   C837.7,317.2,838.1,317.7,838.6,318.2z" />
	<path display="inline" fill="#3E9968" d="M679.9,353.2c0.4,0.1,0.9,0.3,1.9,0.6c-5.7,1-12,5.9-16.8,2.5   C670.1,355.3,675,354.2,679.9,353.2z" />
	<path display="inline" fill="#BEAD9F" d="M651.1,358.2c-2.5,1-5.1,2-7.6,3c-1.4-1-3.1-1.5-4.8-1.9c4-1.8,8-2.8,12.4-1.9   C651.2,357.7,651.2,358,651.1,358.2z" />
	<path display="inline" fill="#1F2019" d="M605.1,481.5c-3.2,2.6-4.1,7.6-4.8,11.6c-0.7-0.6-1.3-1.2-2-1.8c2.1-4.5,3.7-9.6,5.9-13.8   C604.5,478.8,604.8,480.1,605.1,481.5z" />
	<path display="inline" fill="#283A2F" d="M665.1,356.3c0.9,1.9,2.7,0.8,4,1.2c-3.4,1.7-8,0.3-11.8,1.8c-0.3-0.6-0.6-1.3-1-1.9   C659.3,357.3,662.1,355.7,665.1,356.3z" />
	<path display="inline" fill="#419866" d="M774.5,490.1c0.1-2.1-0.3-3.1,0.4-4.7c3,0.1,3,0.1,5.4,2.1   C778.4,488.3,776.7,489,774.5,490.1z" />
	<path display="inline" fill="#4E6446" d="M608.2,459.7c-0.4-0.1-0.8-0.1-1.2-0.2c1.4-4.5,2.1-9.3,4.1-13.6c0.3,0,0.6,0,0.8-0.1   C611.6,450.3,610.3,455.7,608.2,459.7z" />
	<path display="inline" fill="#2A1F15" d="M681.9,477.4c-2.5,2.4-5,4.9-7.7,7c-0.5-0.4-0.9-0.9-1.4-1.3c3.3-1.8,6.1-7.8,9.7-7.4   C682.3,476.2,682.1,476.8,681.9,477.4z" />
	<path display="inline" fill="#53564A" d="M62.9,420.3c0.1-0.3,0.1-0.7,0.2-1c4.8,0.1,8.9-1.6,13.7-1.8   C73.9,419.8,70.3,420.4,62.9,420.3z" />
	<path display="inline" fill="#555049" d="M622.8,520.9c1.8,0.1,1.7-1.2,3.1-2c0.1,0.5,0.2,0.9,0.3,1.7c3.4,0.8,7.6,0.1,10.5,2.2   l0,0C632.1,522.5,627,523.4,622.8,520.9z" />
	<path display="inline" fill="#474A3F" d="M842.1,311c-1.5-0.9-3.1-1-4.8-1c0-1.9,1.7-2,3-2.7c1.2,0.4,2.5,0.9,3.8,1.3   C844.1,310.1,843.3,310.7,842.1,311z" />
	<path display="inline" fill="#A89C82" d="M767.7,362.5c2.6-1.1,5.3-2.2,8.2-3.3c0.8,3.3-3.1,3.4-5.2,4.2   C769.7,363,768.4,363.8,767.7,362.5z" />
	<path display="inline" fill="#CDC3A7" d="M841.4,318.1c-0.4-0.4-0.8-0.8-1.2-1.2c1.8-2.8,4.2-5,7-6.8c0.4,0.4,0.8,0.7,1.1,1.1   C845.8,313.3,843.9,316.1,841.4,318.1z" />
	<path display="inline" fill="#35302F" d="M550.1,502.8c1,1.6,2.1,3.2,3,4.7c-0.5,1.3-0.9,2.3-1.2,3.3c-1-1.8-2-3.5-3-5.2   C549.3,504.5,549.7,503.7,550.1,502.8z" />
	<path display="inline" fill="#98A791" d="M70.8,437.9c-1-0.6-2-1.2-3-1.8c3.5,0.1,6.5-0.4,10.3-0.8c0.1,0.4,0.4,1,0.6,1.7   c-0.7,0-1.5-1.6-2.1,0.1C74.7,437.4,72.7,437.6,70.8,437.9z" />
	<path display="inline" fill="#A39588" d="M819.8,490.3c-0.4-0.4-0.9-0.9-1.3-1.3c0.7-0.9,1.7-1.7,0.4-2.9c0-0.2,0-0.5,0-0.7   c2.1-0.4,3.7,0.8,5.5,1.2C823.8,489.4,821.2,486.8,819.8,490.3z" />
	<path display="inline" fill="#7B7768" d="M761.6,365.3c3.7,1.4,7.4,1,11.9-0.6c-2.5,4.2-8.9,2.8-12.9,1.5   C760.9,365.9,761.2,365.6,761.6,365.3z" />
	<path display="inline" fill="#B6B59A" d="M827.6,316.1c-0.4-0.4-0.9-0.8-1.3-1.2c1.6-1.9,3.8-2.4,6.1-3c-0.5,1.7-1,3.3-2.6,4.3   C829,314.3,828.3,316.1,827.6,316.1z" />
	<path display="inline" fill="#8F8977" d="M109.3,408.6c0.6-0.7,1.3-1.3,1.9-2c2.6,0.9,5.1-0.2,6.4,3   C114.1,408.6,112.4,408.4,109.3,408.6z" />
	<path display="inline" fill="#2F2821" d="M768.4,377.9c-0.9,2.1-2.5,3.6-4.6,5.2c-0.1-1-0.1-1.6-0.1-2.2l-0.1,0.1   c1.5-1.5,2.7-3.3,4-4.9C767.8,376.7,768.1,377.3,768.4,377.9z" />
	<path display="inline" fill="#5C4D47" d="M747,372.9c-2-0.7-3.9-1.4-5-3.4c2.3-0.8,4.7,1.8,7,2.4   C748.3,372.3,747.6,372.6,747,372.9z" />
	<path display="inline" fill="#B7A99B" d="M500.1,376.1c-0.5-0.1-1-0.1-1.5-0.2c1.3-1.7,2.6-3.3,4-5c0.4,0.4,0.9,0.9,1.3,1.3   C502.7,373.5,501.4,374.8,500.1,376.1z" />
	<path display="inline" fill="#91847A" d="M804.8,482.4c0.6-0.3,1.3-0.6,1.9-0.9c2,0.6,4,1.2,5.9,1.9c-0.3,0.3-0.6,0.7-0.9,1   C809.3,484.2,807,483.5,804.8,482.4z" />
	<path display="inline" fill="#513C36" d="M248.9,423.2c-1.7-0.6-3.3-1.2-4.7-2.4c1.6-1.2,1.6-1.2,5.8,1.3   C249.7,422.4,249.3,422.8,248.9,423.2z" />
	<path display="inline" fill="#877B67" d="M779.4,364.3c-0.2-0.7,0.1-1.7-1-2c0.7-1.6,1.5-3.1,2.7-5.8   C781.4,360.1,780.5,362.2,779.4,364.3z" />
	<path display="inline" fill="#9A9085" d="M630.7,518.8c2.1-1.4,4.1-1.7,6,0.6C634.4,520,632.5,519.9,630.7,518.8z" />
	<path display="inline" fill="#2F2422" d="M610.2,521.7c-1-1.2-2-2.3-3-3.5c2.4-1.6,3.5,2.1,5.1,3.3   C611.6,521.5,610.9,521.6,610.2,521.7z" />
	<path display="inline" fill="#57433D" d="M745.8,363.3c-1.5-0.5-2.2-1.7-2.9-3c0.3-0.3,0.6-0.6,0.9-0.9c1.1,0.9,2.1,1.8,3.2,2.7   C746.6,362.5,746.2,362.9,745.8,363.3z" />
	<path display="inline" fill="#77766D" d="M503.9,372.2c-0.4-0.4-0.9-0.9-1.3-1.3c1.7-1.2,3.6-1.5,5.8-1.2   C506.9,370.5,505.4,371.4,503.9,372.2z" />
	<path display="inline" fill="#453F39" d="M811.8,484.4c0.3-0.3,0.6-0.7,0.9-1c1.8,0.2,3.6,0.5,5,1.9l0,0   C815.6,485.3,813.6,485.5,811.8,484.4z" />
	<path display="inline" fill="#78645C" d="M471.1,456.9c1.4-0.1,2.8-0.1,4.2-0.2l-0.1-0.1c-1.3,1.5-2.9,2.3-5,1.9   C470.6,458,470.8,457.4,471.1,456.9z" />
	<path display="inline" fill="#0E0C0A" d="M793,366c-0.2,0.2-0.5,0.3-0.7,0.5c-0.4-1.1,0.4-2.5-1.1-3.2c-0.1-1.1,0-2.2,0.9-3   c0.1,0.8,0,1.7,1,2C793,363.5,793,364.7,793,366z" />
	<path display="inline" fill="#837A65" d="M767.7,362.5c0.7,1.3,2,0.5,3,0.9c-1.7,1.3-3.7,0.9-6.8,0.9   C765.8,363.3,766.7,362.9,767.7,362.5z" />
	<path display="inline" fill="#2C2C26" d="M80,422c-1.8-1-1.8-1,0.2-3.3C80.8,419.9,80.9,420.9,80,422z" />
	<path display="inline" fill="#BA978A" d="M804.7,470.6c1.5-0.5,0.1-1.6,0.4-2.3c1.8,0.3,2.3,1.7,3.1,3.4   C806.5,472.1,805.5,471.7,804.7,470.6z" />
	<path display="inline" fill="#1E1613" d="M433.9,445.8c0.3-1,0.6-2.1,0.9-3.1c0.4,0.4,0.8,0.8,1.1,1.2c0,1.3,0,2.6,0.1,3.9   C435.3,447.2,434.6,446.5,433.9,445.8z" />
	<path display="inline" fill="#889582" d="M76.9,423.2c-0.1,0.6-0.2,1.2-0.4,1.9c-1.1-0.6-2.5-0.4-2.8-1.9   C74.8,423.2,75.8,421.7,76.9,423.2z" />
	<path display="inline" fill="#1E1613" d="M435,439c-0.3-2.1,0-4,0.9-5.9C435.8,435.1,436.5,437.3,435,439z" />
	<path display="inline" fill="#756857" d="M774.3,398.6c0.3,0.3,0.7,0.7,1,1c-0.3,1.4-1.2,2.2-2.7,2.9   C772.6,400.8,773.1,399.6,774.3,398.6z" />
	<path display="inline" fill="#9AA990" d="M814.3,321c-0.6-0.1-1.2-0.1-1.8-0.2c0.7-0.6,1.5-1.3,2.2-1.9c0.3,0.2,0.7,0.4,1.2,0.7   C815.3,320.1,814.8,320.5,814.3,321z" />
	<path display="inline" fill="#1E1613" d="M436.8,440c0.2,1.4,0.2,2.8-0.9,4C436.1,442.6,435.2,441,436.8,440z" />
	<path display="inline" fill="#0E0C0A" d="M792,368.2c0,1.4,0.3,2.8-0.8,4C791.4,370.8,790.4,369.2,792,368.2z" />
	<path display="inline" fill="#675B53" d="M265.7,367c-1.2,0-2.4,0-4.1,0c1.5-1.4,2.8-1,4-0.8C265.8,366.5,265.8,366.7,265.7,367z" />
	<path display="inline" fill="#7B6D65" d="M248.8,425.4c0.4-0.4,0.8-0.8,1.2-1.2c0.5,0.5,1,1,1.6,1.5   C250.3,426.6,249.5,426.3,248.8,425.4z" />
	<path display="inline" fill="#A5AA91" d="M761.6,365.3c-0.3,0.3-0.7,0.6-1,0.9c-0.6-0.1-1.1-0.1-2.5-0.3   C759.7,364.8,760.6,365,761.6,365.3z" />
	<path display="inline" fill="#BA978A" d="M805.1,468.3c-1.7-0.9-1.7-1.7-0.1-2.7C805.1,466.5,805.1,467.4,805.1,468.3z" />
	<path display="inline" fill="#576355" d="M117.2,403.9c0.5,0,0.9,0,1.4,0c0,0.1,0,0.3,0,0.4c-0.5,0-0.9,0-1.4,0   C117.2,404.1,117.2,404,117.2,403.9z" />
	<path display="inline" fill="#9B8383" d="M711.7,458.8c0.1,0,0.2,0,0.3,0c-0.1,0.2-0.1,0.4-0.2,0.6   C711.6,459.2,711.5,459.1,711.7,458.8z" />
	<path display="inline" fill="#283A2F" d="M651.1,358.2c0.1-0.2,0.1-0.5,0-0.7c0.4-0.1,0.8-0.1,1.2-0.2   C652,357.6,651.6,357.9,651.1,358.2z" />
	<path display="inline" fill="#453F39" d="M818.9,485.4c0,0.2,0,0.5,0,0.7c-0.4-0.3-0.7-0.6-1.1-0.9l0,0   C818.1,485.3,818.5,485.4,818.9,485.4z" />
	<path display="inline" fill="#BA978A" d="M802.9,469.5c0.4,0.2,0.8,0.5,1.1,0.7C803.6,470,803.2,469.8,802.9,469.5z" />
	<path display="inline" fill="#4E6446" d="M611,445c-0.3-0.4-0.6-0.8-0.9-1.1C610.4,444.2,610.7,444.6,611,445z" />
	<path display="inline" fill="#F9E2C1" d="M873.9,348.4c4.2,2.2,4.9,8.6,9.5,9.9c-0.4-1.2-0.7-2-0.9-2.7c0.4-0.4,0.8-0.8,1.2-1.2   c2.3,3.4,7.2,10.3,3.2,13.5c3.7,15.5,0.2,32.2-6.4,46.5c-0.5-15,9.6-32.4,1.3-47.5c1.4,9.5,3,19.6-0.1,28.9c-1.4,0.7-1,1.9-0.9,3   l0,0c-0.6,0.4-1.2,0.8-2.1,1.4c0-2.8,0-5.3,0-8.3c-2.8,2.8-2.2,6.7-4.6,9.4c1.2-17.4,8.2-35-1.5-51.8   C873.1,349.2,873.5,348.8,873.9,348.4z" />
	<path display="inline" fill="#F6E0BF" d="M891.4,372.1c3.7,9.4,4.3,19.5,4,29.5c-5.4,1.8-3.7,10.9-8,14.6c-0.3-0.3-0.6-0.7-0.9-1   c0.1-0.3,0.1-0.6-0.1-0.9c0.9-3,2.9-5.6,2.2-8.8l0,0.1c1.3-0.6,0.8-1.9,1.1-2.9c1.8-2.2-0.1-2.5-1.2-4.2c1.6-9.4,3.4-19.3,0.8-28.3   c0.4,0,0.9,0,1.3,0l0,0C890.4,370.9,890.5,371.7,891.4,372.1z" />
	<path display="inline" fill="#BFAC8F" d="M894.4,401.7c0.3,0,0.7-0.1,1-0.1c-0.2,13.4-7.8,24.8-17.4,33.5c-0.5-0.1-1-0.2-1.5-0.3   C885.4,425.6,892,414.2,894.4,401.7z" />
	<path display="inline" fill="#CABFA3" d="M883.7,354.4c-0.4,0.4-0.8,0.8-1.2,1.2c-1.3-1.7-2.5-3.4-3.8-5.1c0.4-0.3,0.7-0.7,1.1-1   C881.1,351.1,882.4,352.7,883.7,354.4z" />
	<path display="inline" fill="#7E7C6A" d="M879.7,349.4c-0.4,0.3-0.7,0.7-1.1,1c-1.8-1.8-3-3.5-4.6-5.7c1.9-0.4,2.4,1.5,3.6,1.8   C878.4,347.6,879.1,348.5,879.7,349.4z" />
	<path display="inline" fill="#BEB197" d="M890.6,370.1c-0.4,0-0.9,0-1.3,0c-0.6-1-1.2-1.9-1.7-2.9c1-0.3,0.9-1.3,1.1-2.1   C889.8,366.6,890.4,368.3,890.6,370.1z" />
	<path display="inline" fill="#BEB197" d="M891.4,372.1c-0.9-0.4-1-1.2-0.8-2C890.8,370.8,891.1,371.4,891.4,372.1z" />
	<path display="inline" fill="#CFB99A" d="M827.7,433.3c18-20.6,36.9-49.4,33.2-79.8c0.3-0.4,0.6-0.7,0.9-1.1   c0.6,1.6-0.6,3.7,0.9,4.9c4,15.4,3,31.3-2.8,46.2c-0.3-0.3-0.7-0.7-1-1c0.2-5,0.2-8.4-4.8-4.1C854.5,414,840.4,426.8,827.7,433.3z" />
	<path display="inline" fill="#F5DFBF" d="M867.7,390.6c3.2-12.7,1-25.5-2-38c0.3-0.7,0.6-1.4,0.9-2.1c10,7.7,8.3,19.8,6.9,30.8   c-1.5-0.6,0.1-3.3-2.6-2.9c-0.4,5.4-0.3,11.4-3.1,16.3c-0.4,0-0.8,0-1.2-0.1c0.1-0.6,0.2-1.3,0.3-1.9   C868,392.3,868,391.5,867.7,390.6z" />
	<path display="inline" fill="#D6C0A1" d="M869.9,388.9c1.4-3.3,0.6-7,1.2-10.4c2.7-0.4,1,2.3,2.6,2.9c0-5.8,1.7-11.4,1.2-17.2   c2.7,3.4,0.3,8.7,3,11.9c-1.7,4.3-0.9,9.3-2.1,13.9c-0.5,0-0.9,0-1.4,0c-1.2,6.2-3.8,11.4-7.4,16.5c-0.4-0.4-0.7-0.8-1.1-1.1   c1.6-4.2,3.6-8.2,4.1-12.7C871.2,391,871.2,390.5,869.9,388.9z" />
	<path display="inline" fill="#A69781" d="M861.8,352.5c-0.3,0.4-0.6,0.7-0.9,1.1c-1.2-2.9-1.4-6-1.8-9c2.8-4.9-1.2-12.7,1.8-17.7   C860.7,335.4,860.5,344,861.8,352.5z" />
	<path display="inline" fill="#332B27" d="M855.2,418.4c-3.2,4-4.6,8.5-9.1,11.5c1-5.4,5.5-8.8,8-13.5c0.7-0.2,1.4,0,2.1,0   C856,417.1,855.6,417.7,855.2,418.4z" />
	<path display="inline" fill="#665E50" d="M877.7,376.1c-2.1-2.6-1.1-6.8-1.9-10c0.4-0.7,0.7-1.3,1.1-2   C877.7,367.8,879.9,372.8,877.7,376.1z" />
	<path display="inline" fill="#958872" d="M855.9,416.4c2.3-4,4.7-8,7-12c0.1,0.5,0.1,1,0.2,1.4c-1.4,3.2-2.7,6.3-4.1,9.5   c-0.9,0.4-0.9,1.2-0.9,2c-0.3,0.3-0.7,0.7-1,1l0,0c-0.2-0.6-0.5-1.3-0.7-1.9L855.9,416.4z" />
	<path display="inline" fill="#B5A489" d="M863,405.8c-0.2-3.8,2.7-7.4,3.7-11.1c0.4,0,0.8,0,1.2,0.1   C867.2,398.9,865.3,402.4,863,405.8z" />
	<path display="inline" fill="#3E372F" d="M876.8,348.5c2.7,3.1,5.4,5.7,6.6,9.8c-3.9-1-5.1-5.9-7.8-8.7   C876,349.2,876.4,348.8,876.8,348.5z" />
	<path display="inline" fill="#716859" d="M855,416.4c-0.2,0-0.6,0-0.8,0.1c-0.3-0.3-0.6-0.6-1-1c1.3-2,2.5-4,3.8-6   c0,0,0.2,0.2,0.2,0.2C856.7,411.9,855.9,414.2,855,416.4z" />
	<path display="inline" fill="#716859" d="M858.9,402.5c0.3,0.3,0.7,0.7,1,1c-0.3,2.3-1.3,4.3-2.7,6.1l-0.2-0.2   C857,407,857.9,404.7,858.9,402.5z" />
	<path display="inline" fill="#BBAB92" d="M866.7,350.6c-0.3,0.7-0.6,1.4-0.9,2.1c-0.5-1.8-1-3.5-1.6-5.3c0.2-0.1,0.4-0.2,0.6-0.4   C866.1,347.8,866.5,349.1,866.7,350.6z" />
	<path display="inline" fill="#948E7A" d="M873.9,348.4c-0.4,0.4-0.8,0.8-1.2,1.1c-1.1-0.7-1.7-1.6-1.9-3.1   C872.5,346.5,873.3,347.2,873.9,348.4z" />
	<path display="inline" fill="#BFB79C" d="M864.1,342.3c0.9,0.2,1.5,0.3,2.8,0.6c-1.2,0.6-1.9,1-3.1,1.6   C864,343.5,864,342.9,864.1,342.3z" />
	<path display="inline" fill="#B5A489" d="M867.7,390.6c0.3,0.9,0.3,1.7-0.7,2.2C867.3,392.1,867.5,391.3,867.7,390.6z" />
	<path display="inline" fill="#B0A68E" d="M862.8,357.3c-1-0.5-0.8-1.4-0.6-2.3C862.3,355.8,862.6,356.6,862.8,357.3z" />
	<path display="inline" fill="#E0C7B6" d="M77.7,371.1c1.9-0.2,4,0.3,5.7-0.9c9.9-0.4,20.3,0.1,29.5,3.6c-15.1,5.9-32.4,3.9-48,7.1   c-0.6-5,5.3-7.1,8.8-8.7c2,0.4,3.5,2.2,5.9,1.1C78.9,372.5,78.3,371.8,77.7,371.1z M95.3,373.8c-2.5-2.3-3.5-2.4-4.7-0.1   C92.1,374.6,93.6,374.1,95.3,373.8z M84,372.7c0.6,0.6,1.3,0.4,2.1,0.2C86,371.3,84.2,371.7,84,372.7z" />
	<path display="inline" fill="#181311" d="M77.7,371.1c0.6,0.7,1.2,1.4,2,2.2c-2.4,1.1-3.9-0.7-5.9-1.1c-5.1,1.4-12.1,7-7.8,12.6   c-0.4,0.4-0.7,0.7-1.1,1.1C55.2,376.9,67.9,367.4,77.7,371.1z" />
	<path display="inline" fill="#3F2824" d="M238.1,376.1c0.6,0.6,1.1,1.3,1.7,1.9c-0.9,0.1-1.9-0.1-2.7,0.2c-1.7-0.5-3.3-0.9-5.3-1.5   C234.2,375.8,234.2,375.8,238.1,376.1z" />
	<path display="inline" fill="#7D6A61" d="M226.6,374.1c-1.9-0.1-3-0.2-4.3-0.3C224.4,372.1,224.4,372.1,226.6,374.1z" />
	<path display="inline" fill="#9B9387" d="M64.9,385.9c0.4-0.4,0.7-0.7,1.1-1.1c1,0,1.9,0.1,1.6,1.5C66.5,387.1,65.6,387,64.9,385.9   z" />
	<path display="inline" fill="#320D0C" d="M214.3,369.4c1,0,1.7,0,2.8,0C216.1,370.5,215.3,370.8,214.3,369.4z" />
	<path display="inline" fill="#B5AB9D" d="M238.2,378.9c0.4,0.3,0.7,0.6,1.1,0.9C238.6,379.9,238.2,379.6,238.2,378.9z" />
	<path display="inline" fill="#B5AB9D" d="M237,378.2c0.3-0.1,0.6-0.2,0.9-0.2c0.2,0.2,0.3,0.5,0.2,0.8   C237.8,378.7,237.4,378.4,237,378.2z" />
	<path display="inline" fill="#EF8A6A" d="M424.2,385.9c-10.3,0.9-20-1.8-30.1-2.1c-1.8-1.8-2.9-3.7-2.3-6.5   c6.8-6.6,14.7-10.6,24.9-10.1C420.8,371.5,432.3,380.3,424.2,385.9z" />
	<path display="inline" fill="#3A241D" d="M487.7,345.4c-1.1-1.4-4.7-2.1-3.2-4.2C487.9,342.8,487.9,342.8,487.7,345.4z" />
	<path display="inline" fill="#33241C" d="M498.9,350.9c-1.8,1.1-2.6,0.2-3.6-1C497.1,348.6,497.9,349.8,498.9,350.9z" />
	<path display="inline" fill="#342D29" d="M560,507.8c-0.1,0.4-0.2,0.9-0.4,1.4c-2.7-1.6-2.8-1.8-5.9-8c0.4-0.4,0.8-0.8,1.2-1.1   C556.6,502.6,558.7,505,560,507.8z" />
	<path display="inline" fill="#78675F" d="M548.1,487.2c-3.6-1.5-4.8-5.7-7.2-8.7c0.5-0.5,0.8-0.8,1.1-1.1l0-0.1   C544.4,480.4,547,483.6,548.1,487.2z" />
	<path display="inline" fill="#2C1F1C" d="M601.3,384c2.1-0.6,3.9-2.3,6.2-2.2c2.2,2.8-3.4,3.3-5.2,3.2   C602,384.7,601.6,384.4,601.3,384z" />
	<path display="inline" fill="#816D64" d="M539.2,473.4c-2.4-0.6-5-3.4-3-4.8C537.2,470.2,538.2,471.8,539.2,473.4z" />
	<path display="inline" fill="#3D3B32" d="M628.7,384.8c-0.4-0.4-0.8-0.8-1.1-1.2c0-2.3,0.5-4.4,2.2-6.1   C630.4,380.1,628.9,382.4,628.7,384.8z" />
	<path display="inline" fill="#3F302D" d="M551.6,399.9c2.6,0.7,3.6,1.5,4,3.5C553.2,403.7,553.4,402,551.6,399.9z" />
	<path display="inline" fill="#645049" d="M590.8,387.7c-1.2,0-2.4,0-4.7,0C588.3,386.6,591.3,384.2,590.8,387.7z" />
	<path display="inline" fill="#6A5951" d="M601.3,384c0.3,0.3,0.7,0.6,1,1c-1.3,1.2-2.9,1.2-4.9,0.8   C598.6,384.4,599.8,383.8,601.3,384z" />
	<path display="inline" fill="#595848" d="M637.6,366.1c-0.9,1.7-2.2,3.2-4,4C633.6,367.4,635.6,366.8,637.6,366.1z" />
	<path display="inline" fill="#876E65" d="M559.9,406.5c-1.3,0.2-0.9,1.3-1.1,2.1c-1.3-1.2-1.2-2.8-2.1-4.7   C558.6,404.5,559.4,405.3,559.9,406.5z" />
	<path display="inline" fill="#69574F" d="M514.6,411.5c-1.7-1.1-2.2-2.6-1.8-4.5C515.6,407,514.8,409.8,514.6,411.5z" />
	<path display="inline" fill="#5D4F48" d="M507.7,383.8c-1.2-0.2-1-1.2-1.1-1.9c0.5-0.6,0.9-1.2,1.4-1.8   C509.7,381.7,508.1,382.7,507.7,383.8z" />
	<path display="inline" fill="#515142" d="M643.6,361.4c0.3,0.3,0.6,0.7,0.9,1c-1.1,1.1-2.4,1.8-4,1.8   C641.1,362.8,642.2,361.9,643.6,361.4z" />
	<path display="inline" fill="#9F655D" d="M583.3,387.3c-1.3,1.5-2.3,1.6-3.6,0C581,386.8,581.9,386.6,583.3,387.3z" />
	<path display="inline" fill="#75645C" d="M548.8,398.5c-1-0.9-1.7-1.5-2.6-2.3C548.7,396.1,548.7,396.1,548.8,398.5z" />
	<path display="inline" fill="#998B80" d="M514.6,411.5c0.1-0.7,0.2-1.5,0.3-2.2c1,1.1,0.8,2.3,0.3,4.3   C514.9,412.5,514.8,412,514.6,411.5z" />
	<path display="inline" fill="#262421" d="M517.4,420.4c-1-0.8-1.7-1.4-0.5-2.4C518,418.4,517.9,419.2,517.4,420.4z" />
	<path display="inline" fill="#817461" d="M640.5,364.2c-0.5,1.4-1.4,2.1-3,2C638.2,365,639.1,364.1,640.5,364.2z" />
	<path display="inline" fill="#3B312D" d="M532.5,457.7c0,0.9-0.1,1.8-0.1,3.3c-1.4-2.7-1.4-2.7-0.1-4.1   C532.2,457.2,532.3,457.4,532.5,457.7z" />
	<path display="inline" fill="#595848" d="M633.6,370.1c0.1,1-0.1,1.9-1.3,2C632.8,371.4,633.2,370.8,633.6,370.1z" />
	<path display="inline" fill="#8B7C72" d="M529.3,449c-0.2,0.1-0.3,0.3-0.5,0.4c-0.3-0.5-0.4-0.9,0.2-1.2   C529.1,448.4,529.2,448.7,529.3,449z" />
	<path display="inline" fill="#E1C7B6" d="M543.1,478.5c-0.3-0.4-0.7-0.7-1-1.1C542.4,477.8,542.8,478.1,543.1,478.5z" />
	<path display="inline" fill="#78675F" d="M549,487.2c-0.2,0.2-0.4,0.5-0.5,0.7c-0.1-0.3-0.3-0.5-0.4-0.8   C548.4,487.1,548.7,487.1,549,487.2z" />
	<path display="inline" fill="#030202" d="M614.8,446.8c0.1-1.4,0.5-2.7,1.1-3.9c0.2,0,0.7,0,0.9,0c35.4,23.7,79.4-14.9,101.4-41.3   c0.4,0.4,0.8,0.8,1.1,1.2C702.4,438,652.1,467.2,614.8,446.8z" />
	<path display="inline" fill="#3B553C" d="M614.8,446.8c1,0.7,2.1,1.3,3.1,2c-0.8,0-1.6,0-2.6,0c-1.1,4-1.6,8.2-3.3,12   c-0.3-0.4-0.7-0.7-1-1.1C612.5,455.5,612.6,450.6,614.8,446.8z" />
	<path display="inline" fill="#B7AF7A" d="M702.6,354.3c-3.3,0-5.7,0.8-9-0.1c3.8-1.7,3.8-1.7,8.1-1.7   C702,353.2,702.3,353.7,702.6,354.3z" />
	<path display="inline" fill="#4A4135" d="M719.5,402.8c-0.4-0.4-0.8-0.8-1.1-1.2c1-2.7,1.9-5.3,2.9-8c0,1.4,0,2.7,0.8,3.9   C721.2,399.3,720.3,401,719.5,402.8z" />
	<path display="inline" fill="#4F4632" d="M685.2,473.7c0.6-0.5,1.2-1,2.2-2c0.1,1.9-0.2,1.9-1.5,2.7   C685.7,474.3,685.5,474,685.2,473.7z" />
	<path display="inline" fill="#0E0C0A" d="M789.2,386.9c3-9.1,4.4-18.6,6.7-27.9c0,1.5-0.1,3.1,1.1,4.2c0.6,0,1.3,0,1.9,0   c0.3,1,0.6,2,0.9,3c-0.9,0.3-1.7,0.5-2.8,0.8c-0.1,1.9,0.6,4.4-0.9,6.1c-0.2-0.5-0.3-1-0.7-2.1c-2.8,18-8.9,36.5-9.4,53.9   c-0.4,1.6-0.6,3.4-3,3.3C783.7,414.2,786.6,400.6,789.2,386.9z" />
	<path display="inline" fill="#291412" d="M763.6,380.9c-4.2,4.3-9.2,3.6-15.3,2.9c1-0.6,1.3-0.9,1.7-0.9c5,0.9,9.1-1.9,13.6-2.9   C763.6,380.3,763.5,380.6,763.6,380.9C763.5,381,763.6,380.9,763.6,380.9z" />
	<path display="inline" fill="#CDB2A4" d="M776.3,406.5c2.7-2.7,5-6.6,8.1-8.6c-0.4,3.6-4.8,6.6-7,9.6   C777,407.2,776.7,406.8,776.3,406.5z" />
	<path display="inline" fill="#9B8378" d="M776.3,406.5c0.3,0.3,0.7,0.7,1,1c-2.5,1.7-4.2,4.5-7.3,6   C771.1,410.3,774,408.8,776.3,406.5z" />
	<path display="inline" fill="#5A3C38" d="M747.9,392.9c-3,1.6-6.3,2.8-8.7-0.6C742.1,392.4,745,392.7,747.9,392.9z" />
	<path display="inline" fill="#B5B6A8" d="M750.7,395c0.3,0,0.7-0.1,1-0.1c0,0.6,0,1.2,0,1.7c-2.3,0.8-4.6,0.2-6.9-0.1   c-0.3-0.6-0.7-1.2-1-1.8c0.7,0,1.4,0.1,2,0.1C747.5,396.1,749.1,396,750.7,395z" />
	<path display="inline" fill="#AC978A" d="M743.8,359.4c-0.3,0.3-0.6,0.6-0.9,0.9c-1.5-2.1-1.5-2.1-1.7-4.2   C742.7,356.9,742.7,356.9,743.8,359.4z" />
	<path display="inline" fill="#3B3C37" d="M761,427.1c-1.4,0-2,0-2.7,0C759.1,425.6,759.1,425.6,761,427.1z" />
	<path display="inline" fill="#7A4E47" d="M752.5,425.8c-0.3-0.3-0.5-0.5-0.7-0.6c0.5-0.5,0.8-1.1,1.5-0.4   C753.1,425.1,752.8,425.4,752.5,425.8z" />
	<path display="inline" fill="#C7B395" d="M755.7,390.8c-0.3,1.1-1.2,1-2,0.9C754.1,390.8,754.9,390.7,755.7,390.8z" />
	<path display="inline" fill="#C7B395" d="M763.5,381c0-0.3,0-0.7,0-1c0.3-0.1,0.6-0.1,0.9,0C764.2,380.3,763.9,380.6,763.5,381z" />
	<path display="inline" fill="#2A1C18" d="M70.8,437.9c1.9-0.3,3.8-0.6,5.8-0.8c0,0.5,0.1,0.9,0.1,1.4c-2.3,2-4.7-0.1-7-0.1   C70.1,438.3,70.4,438.1,70.8,437.9z" />
	<path display="inline" fill="#F3D8C6" d="M235.1,416.4c-4.2,2.4-13.7-3.3-18.4-5.6c2-1,3.9-2,5.9-2.9c2.4,2.8,5,5.4,8.6,6.5   C233.1,413.9,234,415.4,235.1,416.4z" />
	<path display="inline" fill="#4E3C37" d="M235.1,416.4c1.1-1.8,4-0.2,5.5,1.5C238.1,418.9,237,417.4,235.1,416.4z" />
	<path display="inline" fill="#322B28" d="M231.2,414.4c-0.9-0.4-1.8-0.7-2.7-1.1c0-0.3,0-0.6,0-1.1c1.1-0.3,1.9,0.2,2.9,0.7   C231.3,413.5,231.3,413.9,231.2,414.4z" />
	<path display="inline" fill="#CEB89A" d="M821.6,432.1c-1.3,1.5-3.5,1-4.1,3.2c-2.7-3.5-3.5-7.6-4.5-11.7c1.5-1.8,0.6-4.4,1.6-6.5   c0.3,0.3,0.5,0.6,1,1.1c1.5-1.7,2.8-3.2,4.2-4.7c0,0.8-0.3,1.8,1,2l-0.1-0.1c-0.6,1.5-1.2,2.9-1.6,4.4c5.5-4.6,7.8-10.9,10.7-17.1   c1.5-0.1,2.4,0.8,2.9,2.1c-1.7,10.3-9.5,17.6-12.3,27.1C820.8,431.9,821.2,432,821.6,432.1z" />
	<path display="inline" fill="#D4BF9F" d="M888.4,398.5c1.1,1.7,3,2,1.2,4.2c-0.2-0.5,0-1.3-1.1-1.4c0,1.5,0,2.9,0,4.4l0-0.1   c-4.6,9.4-9.5,19.3-17.7,26.5c-1.5-0.9-2.5-1.6-4.1-2.8c3.5-3.4,6.5-3.8,9.1-8.4c-4.7,2.2-7.1,4.6-11.2,6.9c-2.2-0.8-4-1.6-5.7-3.2   l0.1-0.4c7.6,1.5,19.2-10.8,21.6-17.6c0.1,2.5-2.2,5.6-0.2,7.7c0.1,0.3,0.1,0.7,0.2,1c-1.9,1.8-1.9,1.8-1.3,3.6   c0.7-1.2,1.5-2.1,1.3-3.5c4.3-3.9,5.4-11,7-16.5C887.9,398.7,888.2,398.6,888.4,398.5z" />
	<path display="inline" fill="#0C0B09" d="M783,428.1c9.9-9.1,11.3-46.6,14-61.1c1.1-0.3,1.9-0.6,2.8-0.8c0.4,8.8-1.6,17.7-0.7,26.5   c-0.3,0-0.7,0-1,0c-0.2-1.1-0.4-2.2-0.7-4c-2,10.9-3.9,20.8-6.5,31.5l0.1-0.1c-2.1,4.3-4.6,8.3-7.7,12c-1.2-0.3-0.9-1.3-1.1-2.1   C782.5,429.4,782.8,428.8,783,428.1z" />
	<path display="inline" fill="#080706" d="M809,406.9c-2.7,5.2-6.1,9.9-11.1,13.3c-0.4-7.3,9.9-13.3,10-21.6   c3.7-6.8,6.1-15.2,5.7-23.5c0.4-0.4,0.7-0.8,1.1-1.1c2.3,5.7,0.3,12,0.3,17.9c0.6-0.3,1.2-0.5,2.1-0.9c-1.5,4-2.9,7.8-4.3,11.5   c-0.5,0.1-1.1,0.2-1.6,0.3c0.6,2.1,0.8,3.5,0.4,5.5c-0.5-1.1-1-2.3-1.5-3.4C809.3,405.4,809.2,406.1,809,406.9z" />
	<path display="inline" fill="#131310" d="M858.9,402.5c-3.5,12.6-12.1,23.7-23.3,30.7c-0.3-0.3-0.6-0.6-0.9-0.9   c2-2.2,5-3.7,4.8-6.9c5.2-4.5,9.6-9.6,12.8-15.8c0.6,0.1,1.1,0.2,1.6,0.3c2.6-4.2,4-8.4,3.1-13.3l0.1-0.1c0.4,0,0.7,0.1,1.1,0.1   C859.7,398.4,858.8,400.5,858.9,402.5z" />
	<path display="inline" fill="#24201B" d="M809,406.9c0.2-0.9,0.2-1.5,1.2-1.9c2.4,3.6,0.9,6.8,2.1,10.9   c1.9-11.4,6.7-21.7,13.3-31.1c0.3,0.4,0.7,0.7,1,1.1c-7,11.7-11.4,24.5-13.6,37.6c-0.1-2.8-0.3-5.2-2.2-7.2   c-0.1-2.1,0.6-4.3-0.9-5.9C809.4,409.4,810.5,407.8,809,406.9z" />
	<path display="inline" fill="#13110F" d="M809.9,410.5c1.5,1.6,0.8,3.9,0.9,5.9c3.5,4.4,1.8,11.2,5,16.1c2.4,3.5,3.3,7.2,2.6,11.5   C812.9,433.1,807.2,422.8,809.9,410.5z" />
	<path display="inline" fill="#15120F" d="M889.7,415.5c-3.5,6.8-9.7,20.3-17.9,20.5c0-0.3,0-0.5,0-0.8c7.8-4.3,11.5-13.8,16.8-20.8   C889,414.8,889.3,415.2,889.7,415.5z" />
	<path display="inline" fill="#171413" d="M836.5,453.1c-3.3,3.4-6,0.8-8.8,0.2c-1.2-2.7-4-4.5-2.7-8   C828.1,449.7,832.3,449.9,836.5,453.1z" />
	<path display="inline" fill="#37322A" d="M844.2,411.4c-3.6,4.9-6,10.9-10.8,14.7c-0.3-0.3-0.7-0.6-1-0.9c1.1-2.7,1.9-5.7,3.9-7.9   c0.6,1.6,1.3-0.4,2-0.9c0.2,0.2,0.4,0.3,0.6,0.5c0.1-0.5,0.3-1,0.4-1.5l0,0c2.6-0.8,2-3.7,3.8-5.1   C843.4,410.6,843.8,411,844.2,411.4z" />
	<path display="inline" fill="#28201B" d="M871.8,425.2c-1.6,1.3-3.2,2.6-5.1,4.1c1.2,0.8,2.1,1.5,3.1,2.1c-0.4,0.3-0.8,0.6-1.2,0.9   c-1.4-0.4-2.8-0.8-4.1-1.2c-1.2,0.3-2.4,0.7-4.2,1.2c1.2-2.3,1.2-3.4,0.9-6c1.2,0.5,2.3,1,3.6,1.5c1.9-1.2,4-2.5,6.1-3.7   C871.1,424.4,871.4,424.8,871.8,425.2z" />
	<path display="inline" fill="#514439" d="M839.4,425.4c0.2,3.3-2.8,4.7-4.8,6.9c0.4,0.4,0.7,0.7,0.9,0.9c-1.4,0.9-2.8,1.8-4.1,2.6   c-1.1-1-2.2-1.8-3.8-1.8c0-0.3,0-0.5,0-0.8C832.4,432.3,835.5,427.8,839.4,425.4z" />
	<path display="inline" fill="#CBB799" d="M787.9,426c1-2,2-4,3.1-5.9l-0.1,0.1c3.2-2.5,3.3-5,6-8.4c-0.4,2.3-0.6,3.5-0.8,4.7l0-0.1   c-1.3,0.3-1.1,1.3-1,2.2c-0.6,3.1-4.2,4.7-4.8,7.7c0.8-0.1,1.2-0.1,1.7-0.1C791.3,428.3,789.2,426.7,787.9,426z" />
	<path display="inline" fill="#241D1B" d="M843.1,449.2c-0.4,0.3-0.8,0.5-1.4,0.9c-2.9-2.8-5.8-5.6-9.2-8.8   C837.4,441.7,842.3,444.3,843.1,449.2z" />
	<path display="inline" fill="#40362D" d="M824.6,423.3c1.3-2.3,2.6-4.7,3.9-7c0.4,1,0.8,2,1.1,3.1c-0.2,0.1-0.3,0.2-0.4,0.2   c0.5-0.6,1.4-0.9,2-1.3c0.4,0,0.9,0.1,1.3,0.1c-2.2,2.4-4.6,4.7-7,6.8C824.6,424.9,824.6,424.1,824.6,423.3z" />
	<path display="inline" fill="#302620" d="M832.6,418.4c-0.4,0-0.9-0.1-1.3-0.1c2.4-3.9,4.7-7.8,7.1-11.7c0.3,1.6,2,3.9,0,4.9   C835.8,411.1,835.2,417.7,832.6,418.4z" />
	<path display="inline" fill="#2C2520" d="M795,419.3c0.2-0.2,0.3-0.4,0.2-0.7c0.9-0.5,1.1-1.3,1-2.2l0,0.1c0.6,0.3,1.2,0.6,1.9,0.8   c-0.7,1-1,1.9-0.1,2.9c-2,2-3.9,3.9-5.9,5.9c-0.5,0-0.9,0.1-1.7,0.1C791.1,423.5,794,422.1,795,419.3z" />
	<path display="inline" fill="#6C6153" d="M824.6,423.3c0,0.8,0,1.6,1,1.9c-1.3,2.3-2.6,4.6-3.9,6.9c-0.4-0.1-0.9-0.2-1.3-0.3   C820.6,428.3,822.4,425.7,824.6,423.3z" />
	<path display="inline" fill="#3A3831" d="M827.7,434.1c1.6-0.1,2.7,0.8,3.8,1.8c-1.8,1.2-3.7,2.2-5.9,2.3c-0.1-0.4-0.2-0.8-0.2-1.3   C826.1,436,826.9,435,827.7,434.1z" />
	<path display="inline" fill="#4A413B" d="M782.2,430.1c0.2,0.8-0.1,1.8,1.1,2.1c-0.3,0.7-0.7,1.3-1,2c-1.2,0.5-2.3,1.4-3.9,0.4   c0-0.8,0-1.7,0-2.8c0.8,0.1,1.6,0.1,2.3,0.2C781.2,431.3,781.7,430.7,782.2,430.1z" />
	<path display="inline" fill="#383730" d="M868.6,432.3c0.4-0.3,0.8-0.6,1.2-0.9c0.4,0.2,0.7,0.4,1.1,0.7c0,0.8,0.1,1.5,0.1,2.3   c0.3,0.3,0.6,0.6,0.9,0.9c0,0.3,0,0.5,0,0.8c-1.9,0.3-3.7,0-5.5-2.1c1.4-0.1,2.2-0.1,3.3-0.2C869.2,433.2,868.9,432.7,868.6,432.3z   " />
	<path display="inline" fill="#BEB49A" d="M849.2,421.3c1.3-1.9,2.7-3.9,4-5.8c0.3,0.3,0.6,0.6,1,1c-1.3,2-2.6,3.9-4,5.9   C849.9,422,849.5,421.6,849.2,421.3z" />
	<path display="inline" fill="#B5A78E" d="M833.3,418.2c0.7-1.2,1.5-2.4,2.2-3.7c0.4,0.3,0.8,0.7,1.1,1c-0.1,1.6-1.1,2.7-2.1,3.9   C834.2,419,833.7,418.6,833.3,418.2z" />
	<path display="inline" fill="#8F806E" d="M832.3,425.1c0.3,0.3,0.7,0.6,1,0.9c-1.3,1.2-1.9,5-3.9,4   C830.4,428.5,831.4,426.8,832.3,425.1z" />
	<path display="inline" fill="#AD9F86" d="M857.1,418.3c0.3-0.3,0.7-0.7,1-1c0.3,0,0.6-0.1,0.9-0.3c0.1,0.8,0.2,1.5,0.1,2.3   c-1.5,1-0.8,2.4-0.9,3.7c-0.1,0.1-0.2,0.2-0.4,0.3C856.4,421.9,857.2,420.1,857.1,418.3z" />
	<path display="inline" fill="#99847A" d="M825.3,436.9c0.1,0.4,0.2,0.8,0.2,1.3c-0.9,1.7-0.9,1.6-2.6,2.7   C823.3,439,824,437.8,825.3,436.9z" />
	<path display="inline" fill="#AD9F86" d="M856.3,416.4c0.2,0.6,0.5,1.3,0.7,1.9c-0.6,0-1.2,0.1-1.8,0.1   C855.6,417.7,856,417.1,856.3,416.4z" />
	<path display="inline" fill="#AD9F86" d="M859,424.6c-0.4-0.4-0.7-0.8-1.1-1.1c0.1-0.1,0.2-0.2,0.4-0.3c0.3,0.4,0.6,0.7,0.9,1.1   L859,424.6z" />
	<path display="inline" fill="#47312D" d="M475.3,456.7c2.1-2,5-0.5,8.3-0.9C480.5,458.4,477.9,458.2,475.3,456.7L475.3,456.7z" />
	<path display="inline" fill="#494B44" d="M486.2,454.2c0.2-0.4,0.4-0.7,0.5-0.9C488.3,454,487.7,455.2,486.2,454.2z" />
	<path display="inline" fill="#352926" d="M506,388c2.2,3.4,1.6,5.9,1.6,8.9C504.2,395,504.9,391.6,506,388z" />
	<path display="inline" fill="#756259" d="M554.9,500c-0.4,0.4-0.8,0.8-1.2,1.1c-0.9-2.3-3.7-4.5-3.3-6.8   C552.7,495.6,553.5,498.1,554.9,500z" />
	<path display="inline" fill="#E8D28B" d="M605.2,461.6c-1.7,1-3.3,1.9-5,2.9c0.2-1.5-0.4-3.2,0.6-4.7   C602.4,460.5,603.8,461.1,605.2,461.6z" />
	<path display="inline" fill="#27261B" d="M596.2,463.5c0-1,0.1-1.9,0.1-2.7c0.5,0,0.8,0,1.5,0.1   C597.7,461.9,597.9,462.9,596.2,463.5z" />
	<path display="inline" fill="#D8C1A1" d="M825.6,384.9c-5.4,7.4-9.1,15.8-12,24.5c-3-6.1,1.8-12.3,3.5-18.3   c-0.9,0.4-1.5,0.6-2.1,0.9c0-5.9,2-12.2-0.3-17.9c0.4-1.7-1.6-2.2-1.7-3.4c2.2-8.7,5-17.2,9.3-25.1c5.9-0.5,10.1-16.8,14-15.7   c-5.7,15.4-16.5,29.4-17.7,46.2c-1.5,1.9-2.3,3.9-1.5,7.1c0.8-2.8,1.8-4.8,1.5-7.1c7-13.3,8.6-30.2,19.5-41.5   c-5.1,16.9-13.1,33.2-15.7,51.1c1.6-1.5,2.7-2.6,3.9-3.8c0.1,0.1,0.3,0.2,0.4,0.4C826.4,383.1,826,384,825.6,384.9z" />
	<path display="inline" fill="#D7C0A0" d="M838.4,406.5c-3.1,4.1-4.6,9.9-8.9,12.7c0,0,0.1,0.1,0.1,0.1c-0.1-0.4-0.2-0.8-0.3-1.2   c3.4-8.1,14.4-27.1,9.3-34.6c0.5,5.4-1.8,9.1-3.1,14c-2.8-8,6.4-23.5,5.7-33.4c-0.8,0-1.3,0-1.7,0c7.4-4.3,6.4-15.9,10.1-23.2   c5.7,1.3-7,25.7-1.6,33.4c0.1-4.1,1-7.9,3.2-11.3C848.1,377.9,845,392.6,838.4,406.5z" />
	<path display="inline" fill="#0A0908" d="M844.2,411.4c-0.4-0.4-0.7-0.8-1.1-1.2c20.4-38,14-51.3,10.1-89.3   C863,354.1,866.1,381.3,844.2,411.4z" />
	<path display="inline" fill="#CFB99A" d="M829.5,377.9c2.1-5.8,3.1-12.2,5.9-17.7c1.4,1.3,2.9-4.6,4-5.8   c-0.2,5.5-2.5,10.7-3.7,16.1c1.9,1.1,1.6-1.3,2.7-1.3c0.2,1.3,0.2,2.5-0.1,3.8c-0.4,0.2-0.8,0.5-1.2,0.7c-0.5-0.3-0.9-0.6-1.5-1.1   c0.9,10-2.6,19.3-7.9,27.3c-0.9-5,1.3-10.2,0.2-14.9c1-2.8,3.5-4.6,3.6-7.7C830.6,377.5,830,377.7,829.5,377.9z" />
	<path display="inline" fill="#332C25" d="M847.3,379c-0.1-1.1-0.4-2.2,0.8-3c3.4-5.8,2.5-13.9,4.2-20.5c2.7,8.4-0.9,18.3-3,26.6   C849,379.5,849,379.5,847.3,379z" />
	<path display="inline" fill="#9F8F7A" d="M839.3,354.4c-1.1,1.2-2.6,7.2-4,5.8c2.5-8,6.4-15.2,12.7-21.2   C845.7,344.3,841.5,348.9,839.3,354.4z" />
	<path display="inline" fill="#918471" d="M853.3,332.6c0.8,0.6,0.9,1.3,0.7,2.2c-2,5.1,2.4,11.4-1.7,16.6c-0.1-5.9,0.3-12-1.2-17.8   C852,333.3,852.6,333,853.3,332.6z" />
	<path display="inline" fill="#2E1F1A" d="M844.3,315.2c2.4-3.2,10.1-8.5,11.6-2.2c-5.4-2.5-8.1,4.3-13,4   C843.3,316.3,843.8,315.7,844.3,315.2z" />
	<path display="inline" fill="#706355" d="M854.2,323c-0.4-0.7-0.7-1.4-1.1-2.1c-1,1-2,1.9-3,2.9c-0.3-0.3-0.6-0.6-0.9-0.9   c2.1-2.8,3.8-6.2,7.5-7.7C856.8,318.1,854.7,320.2,854.2,323z" />
	<path display="inline" fill="#B2A18A" d="M849.2,322.9c0.3,0.3,0.6,0.6,0.9,0.9c-2.4,3.3-3.6,7.4-6.5,11   C844.3,331.2,846.4,326.8,849.2,322.9z" />
	<path display="inline" fill="#473D34" d="M842.9,316.9c0.5,0.1,1.1,0.1,1.6,0.2c-2.1,3.2-4.1,6.5-6.2,9.7c-0.4-0.3-0.8-0.7-1.2-1   C839.1,322.9,840,319,842.9,316.9z" />
	<path display="inline" fill="#594E41" d="M838.5,371.2c-0.4-2.4,0.5-4.6,0.9-6.9c0.5,0,1,0,1.7,0c-0.3,3.1-0.3,6.2-1.5,9   C839.2,372.6,838.8,371.9,838.5,371.2z" />
	<path display="inline" fill="#716656" d="M852.3,351.4c0.6-1.3,1.1-2.6,1.7-3.9c0.4,3.9,0.2,7.8,0.1,11.7l0,0   c-0.3,0-0.5,0.1-0.8,0.2C853.2,356.7,851.8,354.3,852.3,351.4z" />
	<path display="inline" fill="#786655" d="M829.5,377.9c0.6-0.2,1.1-0.4,1.9-0.7c0.1,1.7-0.7,2.8-1.6,3.9c-0.4-0.4-0.7-0.7-1.1-1.1   c0-0.3,0-0.7,0-1C828.9,378.7,829.2,378.3,829.5,377.9z" />
	<path display="inline" fill="#D8C1A1" d="M828.6,379c0,0.3,0,0.7,0,1c-0.6,0.7-1.2,1.4-1.8,2.1c-0.1-0.1-0.3-0.2-0.4-0.4   C826.6,380.5,827.1,379.4,828.6,379z" />
	<path display="inline" fill="#D8C1A1" d="M837.2,325.8c0.4,0.3,0.8,0.7,1.2,1c-0.3,0.3-0.6,0.7-1,1   C836.3,327.3,836.1,326.6,837.2,325.8z" />
	<path display="inline" fill="#6D6B5B" d="M854.3,312.9c0.5,0,1,0,1.6,0c-0.2,0.3-0.5,0.6-0.7,0.9   C854.9,313.5,854.6,313.2,854.3,312.9z" />
	<path display="inline" fill="#6D6B5B" d="M855.9,312.1c-0.2-0.3-0.5-0.7-0.7-1C855.4,311.5,855.6,311.8,855.9,312.1z" />
	<path display="inline" fill="#79685F" d="M253,364.3c2.3-0.1,4.2-0.8,5.5,1.3C256.6,366,256.6,366,253,364.3z" />
	<path display="inline" fill="#C0AB9C" d="M246,363.1c0.8,1.2,0.8,1.5-0.4,1.8C244.8,364.3,245.4,363.8,246,363.1z" />
	<path display="inline" fill="#D8C1A1" d="M799.1,392.7c-0.4-14-0.1-28.9,6.6-41.5c1.3,2.5-2.5,5.3,0.3,6.9   c6.2-10.3,10.5-22.9,20-30.8c-0.3,6.7-15.1,25-11.4,31c-3.7,13.8-6.7,28.2-12.8,41.3c-0.3,0-0.7,0-1,0.1l0,0   c-0.1-1.4,0.7-2.9-0.8-4C799.8,394.7,799.5,393.7,799.1,392.7z" />
	<path display="inline" fill="#312A23" d="M805.7,351.2c-3.2,4.9-3.6,10.8-5.6,16.2c-0.5-1.6-0.7-3.4-1.6-4.8   c-0.1,0.2-0.3,0.5-0.4,0.7c-0.3,0-0.7,0-1,0c0.1-0.7,0.1-1.5,0.2-2.2c0.8,0.1,1.6,0.1,2.5,0.2c4-15.6,13.5-28.4,24-40.2   c0.3,0.3,0.6,0.7,1,1C817.8,331.3,809.3,339.9,805.7,351.2z" />
	<path display="inline" fill="#907F6B" d="M814.8,359.4c0-0.4-0.1-0.7-0.1-1.1c3.2-5.5,3.8-12.5,8.8-16.7   c-2.2,6.6-5.1,12.3-7.6,18.8C815.5,360.1,815.2,359.7,814.8,359.4z" />
	<path display="inline" fill="#5D4E43" d="M824.7,322c-0.3-0.3-0.6-0.7-1-1c1.3-1.6,2.6-3.3,3.9-4.9c0.7,0,1.4-1.8,2.1,0   C828,318.1,826.3,320,824.7,322z" />
	<path display="inline" d="M793.1,362.2c-1.8-1.2-0.9-4.3,0.6-5.5C794.4,358.8,793.5,360.5,793.1,362.2z" />
	<path display="inline" fill="#0C0B09" d="M797.2,361c-0.1,0.7-0.1,1.5-0.2,2.2c-1.5-1.6-1.1-3.9-0.9-5.9c0.4,0.4,0.7,0.8,1.1,1.2   C797.2,359.4,797.2,360.2,797.2,361z" />
	<path display="inline" fill="#3B2623" d="M767,428.6c2.6-0.7,4.7,0,6.7,2.2C770.5,431.9,768.9,430,767,428.6z" />
	<path display="inline" fill="#524A44" d="M778.1,438.5c0.1,0.7,0.1,1.3,0.2,2c-0.2,0-0.5,0-0.7,0.1c0-0.7-0.1-1.3-0.1-2   C777.7,438.6,777.9,438.5,778.1,438.5z" />
	<path display="inline" fill="#473E38" d="M758.7,495.1c0-1.4,0-2.8,0-4.3C762.5,490,762.1,495.4,758.7,495.1L758.7,495.1z" />
	<path display="inline" fill="#F6D9C7" d="M721.2,393.6c-14.1,31.3-70.7,73.5-104.3,49.3c0.7-2.6,1.5-5.2,2.2-7.8   c6.4,0.6,12.7,1.7,19.2,2.3c0.3,1.9,0.5,3.6,0.8,5.5c5.2-0.1,7.1-4.6,10.4-7.8c-0.2-19.1-5.4-22.3-22.7-26.7c2.1-9.8,5-19.3,7.1-29   c4.9-9.1,14.1-18.3,25.7-16.2c4.1-6.6,40.6-9.1,46.8-3.8c2.2,1.6,4,3.6,7,3.8C722.7,369.7,721,383.5,721.2,393.6z" />
	<path display="inline" fill="#0C0F0D" d="M672.1,358.4c-4.1,1.8-10.3,0.5-12.6,4.8c-4.5-1-8.8,0.3-12.9,2.1   c-0.4-0.4-0.8-0.7-1.1-1.1C653.4,360.5,663.8,356.5,672.1,358.4z" />
	<path display="inline" fill="#13110F" d="M621.9,420.3c0.3-1.3,0.7-2.6,1-3.9c6-1,13.2-2.4,16,4.7c-0.1,0.5-0.2,0.9-0.3,1.4   C632.1,419.3,628.9,419.1,621.9,420.3z" />
	<path display="inline" fill="#445B49" d="M624.1,416.2c-0.4,0.1-0.8,0.2-1.2,0.2c1.9-7.6,4.6-15,5.9-22.6c0.3,0.4,0.7,0.7,1,1.1   C628.1,402,626.7,409.2,624.1,416.2z" />
	<path display="inline" fill="#476D53" d="M619.1,435.1c-0.7,2.6-1.5,5.2-2.2,7.8c-0.2,0-0.7,0-0.9,0c0-4.8,2.3-9.1,3.1-13.7   c0.3,0,0.7,0,1,0C619.7,431.1,619.4,433.1,619.1,435.1z" />
	<path display="inline" fill="#5D7962" d="M620,429.2c-0.3,0-0.7,0-1,0c1-3,1.9-5.9,2.9-8.9c0.4,0.1,0.7,0.1,1.1,0.2   C621.8,423.3,621.8,426.5,620,429.2z" />
	<path display="inline" fill="#53755C" d="M629.8,394.9c-0.3-0.4-0.7-0.7-1-1.1c0.8-2.8,1.6-5.5,2.4-8.3c0.2,0.1,0.5,0.3,0.7,0.4   C631.7,389,631,392,629.8,394.9z" />
	<path display="inline" fill="#303E35" d="M645.5,364.2c0.4,0.4,0.8,0.7,1.1,1.1c-2.3,1.7-4,4.2-7,4.9   C641.1,367.7,643,365.7,645.5,364.2z" />
	<path display="inline" fill="#5F7764" d="M636.7,374.1c-0.4,2.1-1.3,3.9-2.9,5.3C633.9,377.1,634.4,375.1,636.7,374.1z" />
	<path display="inline" fill="#3C825B" d="M650.3,362.2c-1.3,0.3-2.6,0.7-3.8,1C646.1,360.8,649.2,360.8,650.3,362.2z" />
	<path display="inline" fill="#476D53" d="M615.9,442.9c-0.3,0.7-0.6,1.4-0.9,2.1C614.9,444.1,614.9,443.3,615.9,442.9z" />
	<path display="inline" fill="#0B0908" d="M817.7,485.2c1.7,1,2.3,2.5,0.7,3.8c-12.9-1.4-23.3-8.2-35.8-11.1   c0.8-3.6,7.4-0.3,10.1-0.2C801.6,478.9,808.2,486.3,817.7,485.2z" />
	<path display="inline" fill="#7E7763" d="M761.6,392.8c-1.7,1.6-3.7,2.5-5.9,2.9c-0.4-0.3-0.7-0.7-1.1-1   C756.9,394,759.2,392.6,761.6,392.8z" />
	<path display="inline" fill="#ABA88F" d="M754.6,394.6c0.4,0.3,0.7,0.7,1.1,1c-1.3,0.3-2.6,0.7-3.9,1c0-0.6,0-1.2,0-1.7   C752.7,394.8,753.6,394.7,754.6,394.6z" />
	<path display="inline" fill="#ABA88F" d="M750.7,395c-1.6,1-3.2,1.1-4.8-0.1C747.5,394.9,749.1,395,750.7,395z" />
	<path display="inline" fill="#3A3B31" d="M761.6,392.8c-0.3,0-0.7,0-1-0.1c0.7-1.3,1.9-0.9,3-0.9l0,0   C763.2,392.8,762.5,392.8,761.6,392.8z" />
	<path display="inline" fill="#3A3B31" d="M763.6,391.8c0.1-0.2,0.2-0.4,0.4-0.7C763.8,391.3,763.7,391.5,763.6,391.8L763.6,391.8z" />
	<path display="inline" fill="#D4BE9F" d="M797.2,361c1.3-14.6,9.1-28.2,19.4-38.4c0.5,5.3-8.6,8.9-5.7,14.1   c-4.8,7.7-8.6,15.8-11.1,24.5C798.8,361.1,798,361.1,797.2,361z" />
	<path display="inline" fill="#D4BE9F" d="M811.6,335.7c-0.3,0.3-0.5,0.7-0.8,1C811.1,336.4,811.4,336,811.6,335.7z" />
	<path display="inline" fill="#473D34" d="M844.3,315.2c-0.3,0.3-0.5,0.6-0.8,0.9C843.8,315.7,844,315.4,844.3,315.2z" />
	<path display="inline" fill="#D6C0A0" d="M873.6,399.4c0.2,0.6,0.3,1.2,0.5,1.9c2.4-2.7,1.7-6.6,4.6-9.4c0,3,0,5.5,0,8.3   c0.9-0.6,1.5-1,2.1-1.4c-0.5,5-2.9,9.2-5.2,13.4c-0.7-0.1-1.2-0.1-1.5-0.2c-2.8,3.4-9.9,11.2-14.1,9.3c5.8-6.2,10.4-13.5,12.8-21.6   C873.1,399.6,873.4,399.5,873.6,399.4z" />
	<path display="inline" fill="#3F362D" d="M869.7,417.2c1.5-1.7,2.9-3.4,4.5-5.2c0.4,0,0.8,0.1,1.5,0.2c2.2-4.2,4.6-8.4,5.2-13.4   l0,0c1.5-1.6,0.7-4.1,2-6c0.3,0.5,0.7,0.9,1,1.4c-1.8,8.7-3.8,20.5-13,24.1C870.4,417.9,870,417.6,869.7,417.2z" />
	<path display="inline" fill="#332E27" d="M888.4,398.5c-0.2,0.1-0.5,0.3-0.7,0.4c-0.3-0.7-0.7-1.4-1-2.1c2-8,0.4-17.1,2.7-24.6   c0.8,1.3-0.4,2.9,0.9,4.1C891,383.8,889.7,391.1,888.4,398.5z" />
	<path display="inline" fill="#403931" d="M883.8,394.1c-0.3-0.5-0.7-0.9-1-1.4c0.3-4.6,0.6-9.2,1-13.7c0.2,0,0.6,0,0.8,0   C884.3,384.1,885.5,389.3,883.8,394.1z" />
	<path display="inline" fill="#978874" d="M884.6,379c-0.2,0-0.6,0-0.8,0c-0.9-4-1.4-8.2-1.9-12.3   C883.7,370.7,885.1,374.6,884.6,379z" />
	<path display="inline" fill="#807361" d="M885.6,406.5c-1.6,2.9-1.8,7.2-4.9,8.9l0,0c-0.1-0.3-0.1-0.7-0.2-1c1.5-3.2,2.7-6.6,4-9.9   C884.7,405.2,884.4,406.2,885.6,406.5z" />
	<path display="inline" fill="#50463A" d="M873.6,399.4c-0.2,0.1-0.5,0.2-0.7,0.3c-0.3-0.6-0.5-1.3-0.8-1.9c0.7-2.6,1.4-5.1,2.2-7.8   c0.4,0,0.9,0,1.4,0C875,393.1,874.3,396.3,873.6,399.4z" />
	<path display="inline" fill="#584F42" d="M885.6,406.5c-1.1-0.3-0.9-1.3-1.1-2.1c0.7-2.3,1.3-4.6,2-6.9c0.5,0.9-0.5,2.3,0.9,3   C886.8,402.5,886.2,404.5,885.6,406.5z" />
	<path display="inline" fill="#4D4238" d="M889.4,372.1c-1.3,0.8-0.6,2.2-1,3.3c0-2.5-2.3-6.2-0.9-8.2   C888.5,368.8,889.6,370.2,889.4,372.1z" />
	<path display="inline" fill="#161310" d="M887.4,400.5c-1.4-0.7-0.4-2.1-0.9-3c-0.1-0.3,0-0.6,0.2-0.8c0.3,0.7,0.7,1.4,1,2.1   C887.6,399.4,887.5,400,887.4,400.5z" />
	<path display="inline" fill="#D6C0A0" d="M881.7,395.7c0,1.1,0.2,2.3-0.9,3C880.7,397.6,880.2,396.4,881.7,395.7z" />
	<path display="inline" fill="#D4BF9F" d="M881.4,412.4c-0.2,0.4-0.5,0.7-0.7,1.1C881,413.1,881.2,412.7,881.4,412.4z" />
	<path display="inline" fill="#18120F" d="M870.9,434.3c0-0.8-0.1-1.5-0.1-2.3c6.2-5.9,11.2-13,15-20.5   C886.9,420.3,877.1,428.6,870.9,434.3z" />
	<path display="inline" fill="#91806C" d="M894.4,401.7c-0.9,2.9-0.8,6.2-2.8,8.7c-0.3,0-0.7,0-1,0   C891.9,407.6,891.5,403.4,894.4,401.7z" />
	<path display="inline" fill="#AF9F87" d="M883.6,420.3c0.7-1.6,1.4-3.2,2-4.8c0.2-0.1,0.5-0.2,0.8-0.2c0.3,0.3,0.6,0.7,0.9,1   c-1,1.6-2,3.3-2.9,4.9C884.2,420.9,883.9,420.6,883.6,420.3z" />
	<path display="inline" fill="#53473B" d="M890.6,410.5c0.3,0,0.7,0,1,0c0,1.9-0.5,3.6-1.8,5.1c-0.4-0.4-0.7-0.7-1.1-1.1   C889.3,413.1,889.9,411.8,890.6,410.5z" />
	<path display="inline" fill="#9C8D79" d="M886.8,408.8c0.3-1.2,0.5-2.5,1.8-3.2c-0.1,1.7,0.6,3.6-0.8,5.1   C887.5,410,887.1,409.4,886.8,408.8z" />
	<path display="inline" fill="#483F36" d="M886.8,408.8c0.3,0.6,0.6,1.2,1,1.9c-0.4,1-0.8,1.9-1.2,2.9c-0.3-0.6-0.5-1.2-0.8-1.9   C886.2,410.6,886.5,409.7,886.8,408.8z" />
	<path display="inline" fill="#9C8D79" d="M888.6,405.6c0-1.5,0-2.9,0-4.4c1.1,0.1,0.9,0.9,1.1,1.4   C889.4,403.7,889.9,405,888.6,405.6z" />
	<path display="inline" fill="#BEB197" d="M890.3,376.3c-0.9-0.9-0.8-2.1-0.6-3.2C890.9,373.9,890.5,375.1,890.3,376.3z" />
	<path display="inline" fill="#483F36" d="M886.4,415.2c-0.3,0.1-0.5,0.1-0.8,0.2c0.2-0.4,0.5-0.7,0.7-1.1   C886.5,414.7,886.5,414.9,886.4,415.2z" />
	<path display="inline" fill="#7D6C5A" d="M856.9,396.6c0.9,4.8-0.5,9.1-3.1,13.3c-0.5-0.1-1.1-0.2-1.6-0.3c0.8-3.6,2.5-7,1.9-11.1   C855,397.8,856,397.2,856.9,396.6z" />
	<path display="inline" fill="#7D6C5A" d="M858.1,396.6c-0.4,0-0.7-0.1-1.1-0.1C857.5,395.6,857.8,395.8,858.1,396.6z" />
	<path display="inline" fill="#3B342B" d="M863,405.8c3-3.9,4-8.6,6-12.9c0.3,0,0.6-0.1,0.9-0.1c-1.2,8.3-5.7,15.5-9.9,22.6   c-0.3,0.1-0.6,0.1-0.9,0.1l-0.2-0.2C860.3,412.1,861.6,408.9,863,405.8z" />
	<path display="inline" fill="#8D7C6A" d="M869.9,392.7c-0.3,0-0.6,0.1-0.9,0.1c0.3-1.3,0.6-2.6,0.9-3.9   C871.2,390.5,871.2,391,869.9,392.7z" />
	<path display="inline" fill="#B5A489" d="M868.7,393.7c-0.2,0.4-0.5,0.7-0.7,1.1C868.2,394.4,868.4,394,868.7,393.7z" />
	<path display="inline" fill="#100E0B" d="M872.1,397.8c0.3,0.9,1.1,1.8,0.6,2.8c-0.9,0.5-0.9,1.2-0.8,2.1   c-2.8,7-6.7,13.2-11.8,18.6C856.8,417.3,870.5,403.5,872.1,397.8z" />
	<path display="inline" fill="#B3A086" d="M866.9,406.5c-2,3.3-4,6.5-6,9.8c-0.3-0.3-0.6-0.6-0.8-0.9c1.9-3.3,3.9-6.7,5.8-10   C866.2,405.8,866.5,406.2,866.9,406.5z" />
	<path display="inline" fill="#50463A" d="M871.8,398.6c-0.2,0.4-0.5,0.8-0.7,1.1C871.3,399.3,871.5,399,871.8,398.6z" />
	<path display="inline" fill="#3B342B" d="M859,417.1c-0.3,0.1-0.6,0.2-0.9,0.3c0-0.8-0.1-1.6,0.9-2l0.2,0.2   C859.1,416,859,416.5,859,417.1z" />
	<path display="inline" fill="#503E39" d="M95.3,373.8c-1.6,0.4-3.2,0.9-4.7-0.1C91.7,371.4,92.7,371.4,95.3,373.8z" />
	<path display="inline" fill="#987B71" d="M84,372.7c0.2-0.9,2-1.4,2.1,0.2C85.3,373.1,84.6,373.3,84,372.7z" />
	<path display="inline" fill="#C4B093" d="M794.2,387c-0.8,10.7-3,21-6.2,31.2c-0.3-0.7-0.7-1.3-1-2c1.3-11.2,3.4-22.3,6.1-33.3   C794.1,384.2,794.2,385.6,794.2,387z" />
	<path display="inline" fill="#948871" d="M794.2,387c0-1.5-0.1-2.8-1-4c0.3-1.9,0.7-3.9,1-5.8c0.3,0.3,0.6,0.6,1,0.9   C795,381.1,795.5,384.1,794.2,387z" />
	<path display="inline" fill="#8F7E69" d="M787.1,416.2c0.3,0.7,0.7,1.3,1,2c-0.4,2.3-1.1,4.5-2,6.6   C784.5,422.6,786.3,418.8,787.1,416.2z" />
	<path display="inline" fill="#4D463B" d="M795.2,378.1c-0.3-0.3-0.6-0.6-1-0.9c0.3-1.8,0.7-3.6,1.2-6.2   C796.5,373.7,796.4,375.6,795.2,378.1z" />
	<path display="inline" fill="#0C0B09" d="M798,363.2c0.1-0.2,0.3-0.5,0.4-0.7c0.1,0.2,0.3,0.5,0.4,0.7   C798.6,363.2,798.3,363.2,798,363.2z" />
	<path display="inline" fill="#D6BFA0" d="M827.8,384.9c1.2,10-0.8,20.7-8.1,28.5l0,0c-1.3,1.5-2.7,3-4.2,4.7   c-0.4-0.5-0.7-0.8-1-1.1C816.1,405.5,821.4,394.4,827.8,384.9z" />
	<path display="inline" fill="#1E1A16" d="M823.5,408.3c6.2-11.8,12.5-23.8,15-37.1c0.4,0.7,0.7,1.4,1.1,2.1   c-0.1,0.9-0.3,1.8-0.4,2.7c-1.8,6-3.6,13.1-4.8,19.6c-0.6,0.4-1.3,0.8-1.9,1.1c0,0,0.1-0.1,0.1-0.1c-2.9,3.8-3.6,8.7-6,12.8   C825.4,409.2,824.2,409.3,823.5,408.3z" />
	<path display="inline" fill="#1C1814" d="M839.5,391c-2.5,9.5-5.5,18.7-10.3,27.3c-0.3-0.6-0.5-1.3-0.8-1.9   c3.7-9.4,7.2-18.6,10-28.3C839.9,388.6,839.1,390,839.5,391z" />
	<path display="inline" fill="#3A342B" d="M823.5,408.3c0.7,1,1.9,0.9,3,1.1c-1.5,4.1-4.3,7.3-7.5,10.3c0.7-1.9,1.2-4.5,2.8-5.6   c-0.1,0.3-0.8,0.9-1.2,1.2c-1.3-0.2-1-1.2-1-2l0,0C820.9,411.7,822.2,410,823.5,408.3z" />
	<path display="inline" fill="#B2A086" d="M835.4,397.7c-0.5,2.5-1.1,5-2.8,7.1c-0.5-1.3-1.4-2.2-2.9-2.1c0.6-2.2,1.2-4.3,2.8-6   c0.1,0.8,0.2,1.6,0.3,2.8c0.6-1.3,0.8-2.2-0.4-2.7c0.6-0.4,1.3-0.8,1.9-1.1C834.5,396.3,834.3,397.3,835.4,397.7z" />
	<path display="inline" fill="#1A1410" d="M859.1,419.4c1,6,7.5-1,10.6-2.2c0.4,0.4,0.8,0.7,1.2,1.1c-3.3,3.1-6.7,7.4-11.8,5.9   c-0.3-0.4-0.6-0.7-0.9-1.1C858.3,421.8,857.5,420.4,859.1,419.4z" />
	<path display="inline" fill="#6C594A" d="M871.8,425.2c-0.4-0.4-0.7-0.7-1.1-1.1c1.2-1.2,2.7-2,5.1-3.1   C874.5,423.3,873.4,424.5,871.8,425.2z" />
	<path display="inline" fill="#827260" d="M880.7,415.4c0.2,1.4-0.6,2.3-1.3,3.5C878.8,417.2,878.8,417.2,880.7,415.4L880.7,415.4z" />
	<path display="inline" fill="#483F36" d="M885.6,412.4c-0.2,0.4-0.4,0.7-0.6,1.1C885.1,413.1,885.3,412.7,885.6,412.4z" />
	<path display="inline" fill="#BDA98D" d="M798,417.4c-0.6-0.3-1.2-0.6-1.9-0.8c0.2-1.2,0.4-2.4,0.8-4.7c-2.7,3.3-2.8,5.9-6,8.4   c2.6-10.7,4.5-20.6,6.5-31.5c0.5,6.9,2.9,12.5,2.5,19.3c1.7-0.2,1.9-1.4,2.2-2.5c0.5,1,1.1,1.9,1.7,2.9   C801.9,411.4,799.9,414.4,798,417.4z" />
	<path display="inline" fill="#383129" d="M802.1,405.6c-0.3,1.1-0.4,2.3-2.2,2.5c0.8-5.4-1.8-10.1-1.8-15.3c0.3,0,0.7,0,1,0   c1.4,2.3,0.1,4.9,1.8,7l0,0c0.1,0.6,0.2,1.1,0.3,1.7c0.1,0,0.3,0,0.4,0c0.9-4.4,3.1-8.5,4.9-12.6c2.6,0.7,2.8,1.4,1.4,4   c-0.2-0.4-0.3-0.9-0.7-2C805.5,396.1,803.1,400.6,802.1,405.6z" />
	<path display="inline" fill="#0E0C0A" d="M786.2,424.2c0.3-0.7,0.6-1.3,0.9-2C787.2,423.1,787.2,423.9,786.2,424.2z" />
	<path display="inline" fill="#BDA98D" d="M791,420.1c-0.2,0.4-0.4,0.8-0.6,1.1C790.6,420.9,790.8,420.5,791,420.1z" />
	<path display="inline" fill="#201B17" d="M808,392.8c1.4-2.7,1.2-3.3-1.4-4c3-7,3.2-16,6.3-23.5c0.3,0.4,0.7,0.7,1,1.1   c-2.5,6.1,2.9,6.1-0.2,8.9c-0.5-0.3-1-0.6-1.8-1.1c-0.1,6.5-3.7,13-1.1,18.6c-0.2,1.9-2.6,2.9-2.2,5.3c0,0.2-0.4,0.4-0.6,0.6   C808,396.7,808,394.7,808,392.8z" />
	<path display="inline" fill="#C8B496" d="M808,392.8c0.3,5.6-0.5,11.3-4.2,15.7c-0.6-1-1.1-1.9-1.7-2.9c1-5,3.4-9.5,5.2-14.8   C807.7,391.9,807.8,392.3,808,392.8z" />
	<path display="inline" fill="#AF9E83" d="M810.8,392.8c-2.6-5.6,1-12.2,1.1-18.6c0.8,0.5,1.3,0.8,1.8,1.1   C814,381.3,812.6,387.1,810.8,392.8z" />
	<path display="inline" fill="#BAA489" d="M812.7,405.4c0,1.4,0,2.8,0.9,4c-0.4,2-0.8,4.1-1.3,6.6c-1.1-3.7-0.6-6.7-0.4-10.2   C812.2,405.7,812.5,405.5,812.7,405.4z" />
	<path display="inline" fill="#24201B" d="M812.7,405.4c-0.3,0.1-0.5,0.2-0.8,0.4c-0.2-0.9-0.4-1.7-0.7-2.9c0.5-0.1,1-0.2,1.6-0.3   C812.8,403.5,812.7,404.5,812.7,405.4z" />
	<path display="inline" fill="#42382F" d="M827.8,384.9c-0.4,0.4-0.8,0.7-1.1,1.1c-0.3-0.4-0.7-0.7-1-1.1c0.7-1.8,1.7-3.5,3-4.9   c0.4,0.4,0.7,0.7,1.1,1.1C829.1,382.4,828.4,383.6,827.8,384.9z" />
	<path display="inline" fill="#766E5C" d="M883.6,420.3c0.3,0.3,0.5,0.6,0.8,0.8c-2.2,3-4.5,6-6.7,9c-0.3-0.3-0.6-0.6-0.9-0.9   C879.1,426.2,881.4,423.3,883.6,420.3z" />
	<path display="inline" fill="#998671" d="M876.8,429.2c0.3,0.3,0.6,0.6,0.9,0.9c-1.7,2-3,4.4-5.8,5.1c-0.3-0.3-0.6-0.6-0.9-0.9   C872.9,432.6,874.9,430.9,876.8,429.2z" />
	<path display="inline" fill="#0D0B09" d="M847.3,379c6.7,1.9-7.4,31.2-8,36.4l0,0c-1,0.4-2.3,3.7-3.1,1.9c0.4-2,1.3-3.8,2.1-5.8   c2-1,0.3-3.3,0-4.9C843,397.9,845.1,388.5,847.3,379z" />
	<path display="inline" fill="#B8A489" d="M841.1,410.3c1-2.7,2-5.3,3-8c0.2,0.9,0.1,2,1.3,2.3c-1.1,2.2-1.5,4.9-3.2,6.7   C841.8,411,841.5,410.6,841.1,410.3z" />
	<path display="inline" fill="#887A66" d="M841.1,410.3c0.3,0.4,0.7,0.7,1,1.1c-0.7,1.5-0.8,3.4-2.8,4.1   C839,413.3,840.1,411.8,841.1,410.3z" />
	<path display="inline" fill="#887A66" d="M838.3,416.3c0.4-0.3,0.7-0.7,1.1-1c-0.1,0.5-0.3,1-0.4,1.5   C838.7,416.7,838.5,416.5,838.3,416.3z" />
	<path display="inline" fill="#BDA98D" d="M796.2,416.4c0.1,0.9-0.1,1.7-1,2.2C795.1,417.7,794.9,416.7,796.2,416.4z" />
	<path display="inline" fill="#BDA98D" d="M795,419.3c-0.3,0.4-0.5,0.9-0.8,1.3C794.5,420.2,794.8,419.8,795,419.3z" />
	<path display="inline" fill="#F6D9C7" d="M829.5,419.3c-0.1,0.1-0.3,0.3-0.3,0.3C829.2,419.6,829.4,419.5,829.5,419.3L829.5,419.3z   " />
	<path display="inline" fill="#6D6655" d="M838.4,411.4c-0.6,1.4-1.1,2.7-1.7,4.1c-0.4-0.3-0.8-0.7-1.1-1   C836.4,413.7,837,410.5,838.4,411.4z" />
	<path display="inline" fill="#958872" d="M859,417.1c0.1-0.5,0.1-1.1,0.2-1.6c0.3,0,0.6,0,0.9-0.1c0.3,0.3,0.6,0.6,0.8,0.9   c-0.6,0.7-1.1,1.5-1.7,2.2C859.1,418.1,859,417.6,859,417.1z" />
	<path display="inline" fill="#55483D" d="M813.9,366.3c-0.3-0.4-0.7-0.7-1-1.1c0.6-2,1.3-3.9,1.9-5.9c0.4,0.3,0.7,0.7,1.1,1   C815.4,362.5,815.2,364.6,813.9,366.3z" />
	<path display="inline" fill="#FAE3C2" d="M818.7,376c0.3,2.3-0.6,4.3-1.5,7.1C816.4,379.9,817.2,377.9,818.7,376L818.7,376z" />
	<path display="inline" fill="#5F5345" d="M839.5,391c-0.5-1,0.3-2.4-1-3c0-1.2,0-2.4,0-4.3C841.1,386.3,840.7,388.6,839.5,391z" />
	<path display="inline" fill="#594E41" d="M838.6,378.2c-0.2-0.9-0.3-1.7,0.6-2.2C839,376.7,838.8,377.5,838.6,378.2z" />
	<path display="inline" fill="#D4BE9E" d="M845.4,404.6c-1.2-0.3-1-1.4-1.3-2.3c3.5-14.2,8.5-28.2,9.2-42.9c0.2-0.1,0.5-0.2,0.8-0.2   c0,2.1,0,4.2,0,6.1c0.9,1.2,1.7,2.2,2.9,3.7c0.1-6.3,0.1-12.1,0.2-17.8C861.1,369.9,853.4,388.2,845.4,404.6z" />
	<path display="inline" fill="#ECD7B8" d="M857.2,351.3c-0.1,5.7-0.1,11.5-0.2,17.8c-1.2-1.5-2-2.5-2.9-3.7c0-1.9,0-4,0-6.1l0,0   c2.9-7.2-2.4-17.3-0.1-24.4C855.1,340.3,856.8,345.7,857.2,351.3z" />
	<path display="inline" fill="#594E41" d="M838.2,372.9c-0.3,2.9-1.3,5.5-2.7,8.1c0-2.7,0-5.4,0-8.5c0.6,0.5,1,0.8,1.5,1.1   C837.4,373.4,837.8,373.1,838.2,372.9z" />
	<path display="inline" fill="#D4BE9E" d="M854.2,351.4c1.3,3,1.2,5.5-0.2,7.9C854.1,356.7,854.2,354,854.2,351.4z" />
	<path display="inline" fill="#BDA98D" d="M800.9,399.7c-1.3-1.1-0.8-2.6-0.8-4C801.6,396.8,800.8,398.3,800.9,399.7z" />
	<path display="inline" fill="#BDA98D" d="M801.9,399.6c-0.1,0.6-0.2,1.1-0.3,1.7c-0.1,0-0.3,0-0.4,0c-0.1-0.6-0.2-1.1-0.3-1.7   C801.2,399.7,801.6,399.7,801.9,399.6z" />
	<path display="inline" fill="#383129" d="M807.8,385.7c0.1,0.9,0.2,1.7-0.9,2.1C807.2,387.1,807.5,386.4,807.8,385.7z" />
	<path display="inline" fill="#E0C7B6" d="M620,429.2c1.8-2.6,1.8-5.9,3-8.7c6-2.1,12.5-0.5,17.1,3.7c0.8-2.5-1.5-2.5-2.1-4.2   c-2.4-6.1-9-4.2-14-3.8c0.9-2.6,1.7-5.2,2.6-7.8c17.3,4.5,22.5,7.7,22.7,26.7c-3.3,3.2-5.2,7.7-10.4,7.8c-0.3-1.9-0.5-3.6-0.8-5.5   c-6.5-0.6-12.7-1.7-19.2-2.3C619.4,433.1,619.7,431.1,620,429.2z M637.5,428.2c0.9,1.8-1.7,2.3-1.3,4.1c0.9,1.2,0.9,3.4,2.9,3.6   C639.3,434.5,639.3,423.7,637.5,428.2z" />
	<path display="inline" fill="#74645B" d="M638.9,421.1c0.9,0.7,1.8,1.3,1.3,3c-0.6-0.6-1.1-1.1-1.6-1.6   C638.7,422.1,638.8,421.6,638.9,421.1z" />
	<path display="inline" fill="#50463A" d="M871.9,402.7c-0.2-0.9-0.1-1.6,0.8-2.1C872.4,401.3,872.2,402,871.9,402.7z" />
	<path display="inline" fill="#CEB89A" d="M820.4,412.5c-0.2,0.3-0.5,0.6-0.7,1C819.9,413.1,820.2,412.8,820.4,412.5z" />
	<path display="inline" fill="#CEB89A" d="M821.7,414.4c0.1-0.2,0.2-0.3,0.1-0.2C821.9,414.1,821.8,414.2,821.7,414.4   C821.6,414.4,821.7,414.4,821.7,414.4z" />
	<path display="inline" fill="#CEB89A" d="M821.6,414.4c-0.3,0.3-0.7,0.7-1,1c0,0,0.1,0.1,0.1,0.1   C821,415.1,821.4,414.8,821.6,414.4C821.7,414.4,821.6,414.4,821.6,414.4z" />
	<path display="inline" fill="#1E1A16" d="M832.4,396.7c1.2,0.5,0.9,1.4,0.4,2.7C832.7,398.2,832.6,397.4,832.4,396.7L832.4,396.7z" />
	<path display="inline" fill="#131614" d="M638.8,428.1c0.9,2.2,0.1,5.2,0.3,7.7c-1.9-0.2-2-2.4-2.9-3.6c-0.5-1.8,2.2-2.3,1.3-4.1   C638,428.2,638.4,428.1,638.8,428.1z" />
	<path display="inline" fill="#0F0C0B" d="M638.8,428.1c-0.4,0-0.8,0.1-1.3,0.1C637.3,426.7,638.8,426.8,638.8,428.1z" />
</g>
</svg>