<?xml version='1.0' encoding='utf-8'?>
<svg xmlns="http://www.w3.org/2000/svg" version="1.2" baseProfile="tiny" id="Layer_2_1_" x="0px" y="0px" viewBox="0 0 900 600" overflow="visible" xml:space="preserve">
<g id="a_00000076566222353105921850000001114949770923272361_">
	<path fill="#020101" d="M780.9,516.1c-0.2-1.4-0.4-2.9-0.6-4.6c-52.3-2.1-100.6,40-154.1,28.6c-23.4-3.1-45.3-12-68.6-15.2   c-16.5-3.7-32.3,1.5-48.1,5.7c-22.9,3.9-45.7,8.9-68.8,12c0.6,3.3,4.8,2.3,6,5.2c-46.3-0.2-161.9,14.5-195.4-12.9   c0.5-0.5,1-1,1.5-1.5c7.9,2.7,15.4,8.7,23.8,9.1c29.2,3.6,58.4,6.6,88,3.8c24.5-1.2,49,1.3,73.3-1.2c-2.1-2.5-2.9-3.7-3.8-6.7   c-3.5,0.6-6.6,1.9-10.1,1.4c0.4-0.4,0.7-0.9,1.1-1.3c14.5,0.5,18.2-25,20.4-36.4c4.6-19,10.8-39.1,9.7-59   c-24.9-6.4-50.3,0.3-75.5-4.3c9.1-2.3,18.6-1.2,27.9-2.5c6.9-0.7,15,1.8,21.2-1.1c6.1-11.1,9.6-24.3,12.7-36.4   c-18.4-20.5-38.8-38.8-54.3-61.6c0.5-0.5,1-1,1.5-1.6c14.6,16.3,28.3,33.9,44.6,48.6c6.1-18.9,8.4-39,20.8-54.9   c0.5,0.5,1,0.9,1.4,1.4c-1.2,2.2-2.3,4.4-3.4,6.5c16.8,53.3,19.4,45.7,63.5,73.9c19.1,10.8,33.3,27.8,49.9,41.7   c6.3,5.7,15.2,3.3,22.9,3.7c7.7-1.2,12.2-10.3,14-16.8c-19-18.8-36.2-38.8-48.7-62.4c0.4-0.5,0.9-0.9,1.3-1.4   c16.7,22.6,31.6,47.7,55.1,64.2c-0.5-12.9,12.8-10.4,19.2-2.1c3.9,5.9,7.6,12,11.9,17.7c7.1,6.6,19.8,3.4,28.9,6.1   c40.5,7.5,84.9,13.3,123.3-5.3c-0.3-3.7-6.6-14.9-1.2-15.3c0.2,1.8-1.1,3.9,1.1,5.3c0.3,5.8,3.6,9,9.1,10.5   c6.2,10.1,13,30.2,4.8,40.4c-5.1,7.3-14.9,6-22.1,10.9c-1,1.7-1.5,4.2-1.9,6.2C782.5,515.3,781.7,515.7,780.9,516.1z M443,526.2   L443,526.2c-2.6,3.5-4.5,7.2-4.8,11.7c21.8,1,41.8-8.7,63.4-9.2c14.3-1.5,27.8-8.7,42.2-8.6c33,2.1,64.2,14.6,97,18.3   c41.5,0,78.5-20.3,117.9-30.6c10.8-1.5,22.5,1.7,31.7-5.2c0.8-9.8,2.6-29.8-3.2-37.5c-50.8,14.9-96.5,2.7-147.1-2   c-13.6-0.1-27-4.7-40.6-2.5c-10.2-0.8-21.5,1.9-31.1-2.4c-4.8-2.6-10-4.2-15.3-5.3c-20.2-9.9-32.5,4.4-51.5,0.7   c-11.7-4.1-24.1-5.3-35.9-9c-1.6-0.6-3.6-1.2-5.3,0.1c0.8,21.4-6.3,41.8-10.7,62.6c7.6-1.6,18-8.3,24.7-6.1   c-1.9,4.8-7.5,4.1-11.2,6.5c-4.4,2.3-9,3-14.1,1.4C447,515,445.7,520.6,443,526.2z M449.1,343.5c-5.6,14.4-9.4,29.7-12.5,45   c2.9,3.3,5.8,6.6,8.8,10c-2.3,13.2-6.8,25.4-12.4,37.9c26,2.9,51.5,10.4,77,14.6c22.6-5,24.4-6.7,47-0.7   c-22.3-25.1-51.2-41.9-79.4-59.4c-15.4-11-21.4-31-27.2-48.3C449.7,343,449.4,343.3,449.1,343.5z M800.4,499.7   c4.6-3.8,8.2-8.6,7.7-14.6c-1.5-9.1-1.5-21.5-11.1-26.1c-2.8,1.4-5.1,2.7-7.7,4c7.6,10.9,6.2,24.2,4.7,36.7   C796.2,499.7,798.1,499.7,800.4,499.7z M614.9,435.8c-1.1,8-6.5,13.6-10.2,20.7c11.9-0.3,21.5,1.8,33.5,2   C631.3,451.8,626.4,434.3,614.9,435.8z M598,457.2c6.3-3.5,8.2-8.8,11-13.7c-1.2-0.7-2-1.2-2.8-1.6   C603.6,446.7,601.2,451.3,598,457.2z" />
	<path d="M192,158.1c10.9-39.3-31.9-106.6,27.3-120.4c19.9-3.4,15.8-4.3,35.4,1c10,1.5,18.7,7.2,25.5,14.8c-0.2,1.9-0.3,3.9-0.5,6   c13.9,10.2,20.5,34.4,15.4,50.4c-3.7,6.3,5.8,12.5,6.8,19.1c-0.4,0.5-0.8,1-1.2,1.5c-3.1-5.6-8-10.4-9.2-16.8   c-0.2-0.7,0.1-1.7-1.5-2c-0.6,1.3-1.3,2.6-1.9,4c-0.9-0.4-1.8-0.9-2.8-1.3c0,0,0.1-0.2,0.1-0.2c0.6-6,0.9-2.5-3.6-4.8   c3.2-0.5,6.5-1,8.7-3.8c0.8,0.8,1.4,1.3,2.3,2.2c0.2-1.6,0.3-2.7,0.4-3.7c-4.7-4.1-10.1-5.4-16.7-5c5.8-4.9,11.1-1,16.7-0.3   c-2.1-14.9-4.9-37.8-23.6-38.4c-2.1,1.3-4.5,2.9-7.2,4.6c2.9,12.3,4.5,15.6,0.1,27.9c-7.9,5.2-13.5,12-23.5,11.6   c-3.6-6.7-12.9-8.7-18.9-4.8c-1.6,1-1.5,2.7-1.7,4.3c-2.1,3.2-0.4,7.2-1.1,10.8c-0.1,3.8,4.3,5.4,6.4,8.1c3.4,4.8,6,8.9,12.7,7.8   c-0.1,1-0.1,1.6-0.2,2.2c-11.5,2.4-14.3-10.3-21.8-16.1c-3.8,1.8-3,4.8-3.8,8c-1.2,0.8-2.2,1.5-3.1,2.1c0.8,1.8,0.5,3.8-1.3,3.4   c-2.5-0.6-3.9,1.1-5.8,1.3c-0.4,1.7-0.2,3.6-1,4.4c-4,7.5-2.2,16.8-6,24.6C191.9,160.3,192.3,159.1,192,158.1z M200.7,127.3   c2.7,0.9,3.1,0,3.4-2.2C202.8,126,202,126.5,200.7,127.3z" />
	<path fill="#040303" d="M221.1,508.6c-0.1-1.2-0.3-2.4-0.5-4.3c-6.9-6.2-6-17.5-11.1-25.3c-12.4-27-38.6-44.5-47.3-73.9   c-3.6,17-8.6,32.2-16.7,47.3c-3.4,13.9-7.4,27.1-11,40.9c13.7,0.6,25.2,0.7,15.2-15.9c-0.2,2.5-0.3,3.6-0.4,4.6   c-0.6,0.3-1.2,0.6-2.2,1c-0.9-9.2,0.4-17.3,4.9-24.9c0.4,0.8,0.8,1.7,1.1,2.5c-1.3,4.6-3.7,8.6-2.4,13.6c1.8,1,3.7,2.1,5.9,3.4   c0.4,6.7,0.6,13.1-5.1,18.1c-3,0-6.2,0-9.3,0c-2.8,0-5.8-1.9-8.9,1c-12.3,21.7-12,47.2-15.4,71.1c-6.1-10.4,0-24.1,1-35.6   c0.9-12.1,4.7-23.1,10.2-33.9c6.4-21.4,10.4-43.6,20.3-63.8c10-18.2,8.3-39.6,13.1-58.8c0.5,2.2,0.8,3.6,1.2,5.3   c18.9-27.4,41.1-55.1,47.2-88.3c-35.8-9.6-95.2-27.5-66.7-75.3c0.5,0.5,1,1,1.4,1.4c-4.5,10.6-4.5,21.9-5.1,33.3   c3.1,6.6,9.3,11.9,16.2,14.6c5.9,4.3,13.2,6.1,19.6,9.7c11.5,4.6,23.1,13.5,35.8,12.3c1.2-4.9,2.8-9.6,6.5-13.3   c1.2,0,2.3,0.1,3.7,0.1c-0.5,1.6-0.9,2.7-1.1,3.6c4.8,10,12.3,17.7,19.3,25.3c-0.3,1.1-0.5,1.7-0.7,2.3   c-10.6-4.5-17.1-14.3-21.7-25C194.7,393.1,118.4,365.5,202,459c7.8,8.5,9.6,20.7,17.8,29.2c12.1,2.3,22.1-6.3,32.3-11.4   c0.6,0.5,1.1,1,1.7,1.4c-10.2,7.5-21.4,12.6-33.8,13.7c-0.8-1-1.6-1.3-2.6,0.1c1.4,2.3,1.7,5.9,4.9,6.5c6.5,4.3,13.6-2.6,20.1-4.1   c0.5,0.4,0.9,0.9,1.4,1.3c-6.5,3.5-13.2,7.6-20.8,5.7C223.8,504.2,224.4,507.6,221.1,508.6z" />
	<path fill="#0A0908" d="M137.7,253.6c0.5,1,1,2,1.4,2.9c-14.6,23-10.6,26.2-10.9,50.3c-2.7,14.7-6.8,29.3-6.3,44.4   c3.2,9.8-6.8,17.3-3.1,25c-1.5,1.9-1.1,4.2-1.2,6.4c-1.5,0.3-2,1.4-2.3,2.7c-2.5,11.6-5.7,23.1-9.4,34.4   c-7.2,31.6-6.6,64.2-9.7,96.3c-3.1,19.2-9.5,34.6-31.4,36.8c0-0.5,0-1-0.1-1.5c5.7-3.2,12.1-5.5,18.1-7.9   c9-15.8,11.7-32.8,11.9-50.7c-2.4-0.2-4.8-0.5-7.2-0.7c3.8-3.7,8.5,3.2,7.3-7c-5.8-2.1-9.4,2.9-14.8,2.2c-0.4-0.3-0.8-0.7-1.3-1   c4.3-0.8,1.4-3.6,4.8-4.5c0.5,0.5,1,1.1,1.6,1.6c1,0.1,2.1,0.3,2.4-1.2l-0.1,0.1c2.6,0,5.1,0,7.7,0c1.4-1.4,1.4-1.4-0.2-2.5l0,0   c4.6-25.8,3.4-53.3,13.2-78.3c4.2-10.1,4.6-21.3,6.8-31.8c3.8-9.5,4.8-19.9,4.3-30.1c-0.4-10.6,4.4-20.9,5.9-31.4   c1.1-16.2-2-33.2,2.4-49.1c0.6,0.1,1.3,0.2,1.9,0.2c-0.6,3.6-2.2,7-0.8,10.9c2.8-5.3,6-10.3,8.1-16   C137,254,137.4,253.8,137.7,253.6z" />
	<path fill="#0A0707" d="M129.4,259.2c-0.6-0.1-1.3-0.2-1.9-0.2c4.6-52.1,21.7-56.8,57-89.3c4.2,5,11.9,0.3,17.2,4   c14.1,6.2,27.6,12.7,38,24.4c2.6,2.5,4.9,4.7,8.6,5.8c0.2-11.5,8.3-19.1,9.7-29.7c40.7,12.4,22.3-3.8,36.1-13.5   c3.5-2.4,3.5-2.8-0.2-6.3c-1.9,0-3.9,0-6,0c0-0.6,0.1-1.2,0.1-2c1.6-0.6,3.2-1.1,4.8-1.7c0.6,2.4,5.1,1.5,4.1-1.1   c-1,0-2-0.1-2.9-0.1c0.7-1,1.3-1.9,1.9-2.7c-1.2-3.3-1.1-6.8-4.3-8.6c0.4-0.7,0.9-1.5,1.3-2.2c2.6-1.5,4.5-1.5,7.6-0.9   c0-1.6,0-3,0-4.4c0.4-0.5,0.8-1,1.2-1.5c0.7,1.5,1.3,2.9,1.9,4.1c-2.3,4.7-2.3,4.7-6.5,8.1c0.9,2.5,1.9,5,3,8   c-0.6,1.2-1.3,2.6-2.2,4.4c4,6.5-1.7,9.4-6.6,12.5c2.4,18.2-19.1,16.8-30.6,11.2c-3,8.9-9.6,16.1-9.9,25.6c1.5,2.8,3,5.3,4.4,7.9   c-0.1,0.7-0.2,1.4-0.4,2.1c-1.8-1.9-3.7-3.9-5.5-5.8c-6.7-0.9-8.5-4.7-13.3-8.6c-9.8-10.5-23.4-18.4-37.4-21.6   c-1.5-1.6-3.5-0.7-5.4-1.2c-3.1-2.1-6.5-0.5-9.1-0.8c-8.9,4.7-13.7,12-20.8,18.5c-11,8.6-21.5,17.6-25.6,31.6   c-0.3,0.2-0.4,0.4-0.3,0.8C133.7,236.3,133.9,248.5,129.4,259.2z M295.9,137.2c0,0.2,0,0.3,0,0.5c0.5-0.1,1.5,0.3,1.4-0.4   C296.9,137.3,296.4,137.2,295.9,137.2z" />
	<path fill="#050303" d="M338.4,343.7c18.7-33,51.9-53.2,79-78.5c5.2-5.9,12-12,20.2-12.4c9.4-0.4,21-4.6,26.9,5.5   c4.6,4.5,11.3,7.4,15.2,12.9c-0.1,1.1-0.2,2.2-0.3,3.3c-8.3-6.7-17.4-14.5-26.3-20c-11.1,3-22.2-1.6-28.8,9.4   c3.1-0.7,3.6-1.4,6.8,0.2c-3.3,1.9-5.7,3.3-8,4.6c-1-0.7-1.6-1.2-2.5-1.8c-28.2,25.2-57.3,49.5-81.1,79.2   C338.4,345.7,338.4,344.7,338.4,343.7z" />
	<path fill="#050505" d="M893.1,409c5.5,37,0.1,56.6-26.5,83c-5.1,6.1-2.9,15-7.1,21.8c-6.3,13-13.9,25.8-26.4,33.6   c-4.3,0-8.7,0-12.9,0c-9.8-10.3-20.2-18.9-32.9-25.2c0.9-0.4,1.9-0.9,2.8-1.3c12.5,4.6,22.6,13.1,31.5,22.7   c20.6,2.6,25.5-21.4,36.4-33.8c4.1-7.1,0.9-16.6,7.7-22.6c16.8-15.2,24.2-29.4,26.2-52.2C892.8,426.5,889.8,417,893.1,409z" />
	<path fill="#090808" d="M309.4,389.2c0.9-0.9,1.9-1.7,2.7-2.7c0.4,0.4,0.8,0.8,1.2,1.2c-1.7,5-6.6,4.3-6.4,7.5   c-2.8,2.7,1.8,7.1-1.2,10c-5.9-19.3-22.8-32.9-24.4-53.5c-0.7-9.9-1.7-20.2-5.3-29.5c-1.3-2.9-1.4-6.1-0.6-8.8   c11.9-10.2,12.4-29.3,5.2-42.2c-7.7-17.8-14.9-35.9-23.1-53.6c0.5-0.5,0.9-0.9,1.4-1.4c10.8,24.8,46.4,75.9,19.8,98   c1.5,13,5.5,26.1,5.6,39.4c0,1.9,0,3.7,1.2,5.4c3.3,12.4,11.9,20.6,18.2,31.4c1.5-0.1,2.9-0.2,4.3-0.3   C308.5,389.8,309,389.5,309.4,389.2z" />
	<path fill="#1C1110" d="M64.8,551.3c0,0.5,0,1,0.1,1.5c-4.1,2.3-8.4,3.8-12.1,6.8c3.3,1.4,5.9-1.8,9.3,0.1c-1.5,1-2.6,1.8-4,2.7   c6.2,0.4,9.9-3.2,15.5-3.2c-6.9,7.8-18.4,3.1-25.9,9.7c-7.5,4.5-16.5,7.7-25.2,8.9c-1,0.1-1.5,0.6-1.3,1.6   c9.5,1.7,20.3,0.3,29.5-2.3c5.2-2.7,11-1.6,16.6-2.7c9-1.5,17.8-4.2,26.4-7.1c0.4,0.4,0.9,0.8,1.3,1.2c-3.5,1.9-7.1,3.7-10,6.5   l-0.2-0.2c0-0.6,0.1-1.2,0.1-1.8c-7.5,2.5-15.7,3.6-23.7,4.6c-13,3.1-25.8,6.4-39.2,4.9c-0.7-1.4-2.2-1.3-3.2-0.7l-0.4,0   c-3.2-11.6,17-3,31.6-18.7c-12.1-0.2-21.4,7.9-32.4,11.6c-0.6-0.3-1.2-0.6-1.8-0.9c5.1-4.6,12.1-4.8,17.4-9.8   c-3.5-1.6-22.6,6.6-24.9,9.7c3.1,0,5.4,0,7.6,0c0,0.4,0,0.9-0.1,1.3c-4,0.9-9.5,3.6-9-3c0.4-0.7,0.6-1.7,1.2-2   c11.8-5.8,23.9-9.5,37.1-10.3C51.7,557.7,57.9,553.6,64.8,551.3z" />
	<path fill="#040303" d="M793.4,446.8c-2.2-1.4-0.9-3.5-1.1-5.3c13.5-7.7,29.3-2.5,43.2-8.9c3.3-7.6,11.7-11.4,17.4-17.2   c3.6,0.8,9.3,7.6,3.8,9.5c-1.9-0.9-3.9-1.8-6.6-3.1c-0.8,0.9-1.6,1.8-2.3,2.5c1.5,3.2,6.5,2.4,6.2,6.8c-4.4,2.7-6.2-1.5-9.1-3.9   c-0.8,0.9-1.3,1.5-2,2.2c2.2,2.6,8.7,10.4,1.4,9.6c-2.1-1.2-3-3.6-5.4-4.3c-0.9,0.8-2,1.8-3,2.7c2.4,3.4,3.8,5.9,5.6,9.6   c-1.2,0.9-2.1,1.6-3.3,2.6c-3.3-1.8-7.3-12.9-10-9.8c1.2,4.6,4.8,8.9,2.8,13.9c-6.1,3.5-5.9-11.4-10.6-14.4   c-9.1,0.9-18.3,0.6-27,4.1C793.4,444.8,793.4,445.8,793.4,446.8z" />
	<path fill="#060505" d="M555.2,376.2c-0.4,0.5-0.9,0.9-1.3,1.4c-11.1-12-16-28.3-26.6-40.8c-8.8-12.8-21-22.8-28.8-36.3   c0-1.1,0.1-2.2,1.4-2.5c19.4,22.7,41.1,44.8,52.8,73.1c-0.2,1.2,0.3,1.9,1.3,2.4C554.5,374.5,555.5,375.2,555.2,376.2z" />
	<path fill="#1B1616" d="M893.1,409c-1.5,2-1.4,4.2-1.4,6.6c-1.7-8.8-2.9-18.7-9.3-25.5c-3.8-0.9-7.1,1-10.5,1.6   c-6.1,0.7-8.8,6.3-11.6,11c-0.6,0-1.2-0.1-1.8-0.1c1.3-9.7,10.3-13.8,18.8-16C886.9,383,892.1,402.1,893.1,409z" />
	<path fill="#120D12" d="M338.4,343.7c0,1,0,2,1.2,2.3c-7.6,12.2-15.2,24.4-22.8,36.5c-0.5-0.6-1-1.1-1.4-1.7   C322,368,329.9,355.4,338.4,343.7z" />
	<path fill="#282423" d="M153.1,460.7c-0.4-0.8-0.8-1.7-1.1-2.5c5-13.8,14-26.8,15.1-41.7c1.2,2.2,2.4,4.3,3.5,6.5   c-0.4,0-0.8-0.1-1.6-0.1C164.7,435.9,159.3,448.6,153.1,460.7z" />
	<path fill="#151212" d="M116.3,565c0.2,1.1,0.1,2.4,1.5,2.8c-1.3,7.8-11.4,5.6-15.3,11.2c-5.2,3.7-13.4,9.4-18.8,3.6   c-0.2-1.4,0.9-2.9,2.5-2.3c2.2,5.3,8,0,11.8-1.2c4.6-2,6.4-7,10.1-9.9c0.9,0.9,1.8,1.7,2.5,2.4C114.4,570.5,114.1,567.2,116.3,565z   " />
	<path fill="#181211" d="M499.9,298c-1.4,0.3-1.4,1.4-1.4,2.5c-6.4-8.7-10.8-18.7-19-26c0.1-1.1,0.2-2.2,0.3-3.3   C488.1,278.6,495.3,287.7,499.9,298z" />
	<path fill="#292839" d="M221.1,508.6c1.9-0.6,2.6-2,2.6-3.8c2.5,1.3,0.3,3.3,0.5,4.8c4.5,4.8,9,9.5,13.4,14.1   c-0.5,0.5-0.9,1-1.4,1.4C230.3,520.4,225.2,514.9,221.1,508.6z" />
	<path fill="#1A1B21" d="M236.2,525.1c0.5-0.5,0.9-1,1.4-1.4c5.1,3.3,10.2,6.6,15.3,10c-0.5,0.5-1,1-1.5,1.5   C245.6,532.8,240.5,529.4,236.2,525.1z" />
	<path fill="#312522" d="M17.8,580c0.1,0.7,0.3,1.4,0.4,2.1c-3.4,2-7.1,0.9-10.5,1.2c-3.9-3.6-2.5-7.2-1.1-10.9   c0.2,2.2,0.1,4.5,3,4.4c-0.8,0.9-2,1.7-0.8,3.5C11.7,580.7,14.9,580.5,17.8,580z" />
	<path fill="#2E2B2B" d="M95,489.7c-1.6,3.1-5.6-0.5-7.5,2.3c-3.3,0.4-6.5,0.2-9.5-1.3c-0.9-1.8-1.6-3.4,0.8-4.6   c0.4,0.3,0.8,0.7,1.3,1c0.3,2.2,0.3,2.2,2.6,2.2C86.7,489.5,90.9,489.6,95,489.7z" />
	<path fill="#271F1D" d="M186,171.1c-0.5-0.5-1-1-1.5-1.5c2.5-3.8,5-7.7,7.5-11.5c0.3,1-0.1,2.2,1.3,2.6   C190.9,164.2,188.5,167.6,186,171.1z" />
	<path fill="#333232" d="M858.5,402.6c0.6,0,1.2,0.1,1.8,0.1c-1.6,4.6-3.3,9.2-4.9,13.8c-0.8-0.4-1.6-0.7-2.4-1.1   C854.8,411.1,856.7,406.9,858.5,402.6z" />
	<path fill="#39201E" d="M95.1,478.3c-0.1,0.5-0.1,0.9-0.2,1.4c-2.8,0-5.6-0.3-7.5,2.5l0.1-0.1c-1,0.1-2.1-0.1-2.4,1.2   c-0.5-0.5-1-1.1-1.6-1.6C86.8,478.4,90.7,477.7,95.1,478.3z" />
	<path fill="#1B1818" d="M790,520.9c-0.9,0.4-1.9,0.9-2.8,1.3c-3-1.1-5.3-3-6.3-6.1c0.8-0.4,1.6-0.8,2.4-1.3   C784.4,517.9,787.2,519.7,790,520.9z" />
	<path fill="#1C1110" d="M85.4,580.2c-1.4,0.3-1.7,1.3-1.6,2.5c-1.9-3.5-1.8-4.7,1-7.6l0.2,0.2C85.1,576.9,85.2,578.6,85.4,580.2z" />
	<path fill="#352734" d="M315.4,380.9c0.5,0.6,1,1.1,1.4,1.7c-1.2,1.7-2.4,3.4-3.6,5.1c-0.4-0.4-0.8-0.8-1.2-1.2   C313.2,384.6,314.3,382.7,315.4,380.9z" />
	<path fill="#3F3838" d="M258.9,216.2c-0.5,0.5-0.9,0.9-1.4,1.4c-0.8-1.6-1.7-3.1-2.5-4.7c0.1-0.7,0.2-1.4,0.4-2.1   C256.6,212.6,257.7,214.4,258.9,216.2z" />
	<path fill="#B28C7D" d="M554,373.6c-1-0.5-1.5-1.3-1.3-2.4C553.2,372,553.6,372.8,554,373.6z" />
	<path fill="#312522" d="M19,581.9c1.2-0.3,2.3-0.5,2.9,0.9C20.9,582.4,19.9,582.1,19,581.9z" />
	<path fill="#352734" d="M312,386.6c-0.3,0.4-0.6,0.7-1,1.1C311.3,387.3,311.6,386.9,312,386.6z" />
	<path fill="#352734" d="M309.4,389.2c-0.4,0.3-0.9,0.6-1.3,0.9C308.5,389.8,309,389.5,309.4,389.2z" />
	<path fill="#B28C7D" d="M555,375.1c-0.3-0.5-0.7-1-1-1.5C554.4,374.2,554.7,374.7,555,375.1z" />
	<path fill="#6D5CA9" d="M391.3,437.8c-0.8,0-1.6,0-2.5,0c-0.5-5.8-2.4-11.1-5.1-16.3c-3.4-13.4-2.7-27.4-5.6-40.8   c-1.8,9.6,0.7,18.7,0.6,28.2c-4.5,3.7,2.1,19.2-0.2,22.8c-1.3-0.5-2.7-1.1-4-1.6c-1.4-0.6-2.3-2.4-4.8-1.6   c3.1,5.6,8.9,5.3,12.7,9.3c-0.5,0.2-1,0.4-2.6,1.1c25.2,4.6,50.6-2,75.5,4.3c1.1,19.9-5.1,40-9.7,59c-12.8,0.6-24.1-1.3-36.9-1.6   c11.6-6.6,24.6-7.4,35.7-15c-21.5,1.4-39.7,16-62,13.9l0,0c-1.4-3.5-19.5,1.1-19.5-2.5c4-2.3,7.2-5.8,11.1-10.3   c-11.6,2.3-19.5,12.9-32,11.6l0,0c-0.5-1.1-1.5-1.2-2.6-1.3c-6.5,0.5-12.7-1.1-19-2.5c-8.9-1.1-16.7-6.6-25.6-6.4   c-0.6-0.1-1.2-0.7-2.3-1.4c7.5-4.2,14.6-7.4,22.1-11.3c2.4-1.6,3.7-2.9,7-2.9c-1.9-1.1-2.9-0.9-3.6,0.5c-11.4,1.4-23,6.2-32.5,12.4   c-4.1-2-9.3-2-11.6-6.1c3.3-4.4,11.6-9,12.1-13.5c-2,1.1-3.9,2.2-5.8,3.3c-1.6-3.9-1.6-3.9-5.3-4.6c2.4,1.6,2.2,4.7,5.2,4.7   c-1.8,3.6-5.5,5.5-8.4,8.4c-2.2-2.4-4.1-4.7-5.5-7.6c4.6-5.4,11.4-7.5,15.7-12.8c1.9-2.4,2.8-5.6,5.8-7c1,1.8,2,3.4,4.8,3.8   c-1.1-2.5-2.5-3.7-4.8-3.7c0.1-1.8,0.9-3.1,2.4-3.6c2.3,0.8,4.4,1.6,6.5,2.3c-0.8,3.5-3.1,6-5.5,8.4c-1.3-0.8-2.3-1.4-3.3-2   c-0.2-0.3,0-1.3-0.8-0.5c0.3,0.2,0.6,0.3,0.9,0.5c-2.1,1.6-2.1,3.9-2.4,6.2c0.8,0.6,1.5,1,2.4,1.6c4.3-3.3,7.4-7.7,11.1-11.7   c0.7,0.3,1.5,0.6,2.2,0.9c13.1-7.8,13.8-16.5,19.3-27.5c-0.2-4.3-4-5.2-7.4-4.8c0.7-2.9,1.3-5.9,1.9-8.7c-0.8-1.1-1.4-1.9-2-2.7   c1.4-1.5,3.3-1.3,5.2-1.3c2,2.2,3.9,4.5,6.1,6.5l-0.1-0.1c2.4,5.3,1.8,9.6,3.2,14.9c3.8-3.1,2.4-13-1.8-15.2   c2.9-2.8,4.9,0.4,7.6,1.3c0.8-0.8,1.6-1.5,2.5-2.3c3.4,0.6,6.6-0.8,9.9-1.2c6.4,3,12.3,6.7,16.4,12.7c0.4,0.6,1.2,1.2,2.4,0.1   c-5.6-8.6-15.2-15.6-25.7-15.7c3.1-16.5,12.9-30,20.6-44.5c4.6-11.3,11.1-21.8,16.9-32.5c1.1-2,2.8-2.3,4.8-2.1   c18,25.2,39.3,46.8,60.6,69.3c-3.2,12.1-6.7,25.3-12.7,36.4c-2.4,0-4.9,0-7.3,0c0.7-9.9,2.4-13.6-1.1-23.7c-0.2-0.9,0-2.2-1.8-2.5   c-6,6.7-3.4,17.8-5.9,26.2c-1.7,0.4-3.7-0.8-5,1.1c-0.3,0.1-0.9,0.1-1.2,0c0.1-3.7-3.6-4.8-5.2-7.5c0.4-10.9-2.3-21.8-2.5-32.6   c-3.1-6.1,1.1-13.7-2.5-19.4c-5.7,2.9-5.1,8.1-4.8,13.3c0,11.9,0,23.7,0,35.8c0.6-0.3,0.9-0.4,1.2-0.6c3.2,2.2-0.7,7.7,3.4,10.5   C394.2,436.6,392.8,437.2,391.3,437.8z M318.1,450.3c-2.9,2.5-15.1,6.4-14.1,10.3c5.6-3,11-5.9,16.5-8.9c6.3,0.1,11.1-5.4,16.9-7.4   c3.7-2.2,8.5-2.7,11-6.4c-4.3-5.6-17-1.7-22.8,0.2C320.5,440.1,317.3,444.1,318.1,450.3z M340.1,422.1c5.8,2,11.9,2,17,6.2   c4,2.3,7.7,5.9,12.1,7.1C367.1,429.4,346.6,418.9,340.1,422.1z M369.2,439.4c-8.7-0.3-17.2,3.4-25.7,5c-0.8,0.2-1.3,0.9-0.3,2   C351.9,444.9,360.6,442.8,369.2,439.4z M412.5,408c-3.3,0.5-3.9,15-4.9,23.5C411.2,430.2,412,412.4,412.5,408z" />
	<path fill="#B28C7D" d="M451.9,498.5c3.1-17.9,9.4-35.4,8.3-53.8c1.7-1.3,3.8-0.7,5.3-0.1c11.8,3.7,24.2,4.9,35.9,9   c10.8,3.1,21.4-3,32-3.9c6.8-2.2,13,1.9,19.5,3.3c8.9,1,15.9,7.5,25,7.6c28.5-1.5,56.3,2.5,84.6,4.1c41.2,9.1,83.2,11.3,124.5,0.4   c5.4,6.3,1.9,26.5,2.4,35.9c-22.5-3.6-44.7-5.1-67.3-3.5c-5.2,2.5-10.9-1-15.4,3.4c7.5,1.2,14.6,2.3,22,3.4   c-11.4,5.5-25,6.8-36.2,13.8c-6.2,3.1-12.3,5.8-19.5,5.9c-17.7,2-35.9,4.1-53.4,0.5c-24.5-8.2-49.4-10.7-74.7-16.2   c3.7-2.6,8.8-2.6,9.5-7.1c-8.5-0.4-16.3,2.9-24.6,3.8c-4.5,0.7-9.6,1-13.2,4.9c-8.6,3.7-18.2,5.6-27.3,8.2   c-9.1,2.9-18.8,2.8-28,5.3c-4.5,0.2-15.5,5.3-18.3,2.8l0,0c1.4-0.4,1.3-1.5,1.2-2.6c0.5-1.2,0.9-2.4,1.4-3.6   c23.2-11,54.1-10.8,72.5-30.3C495.3,488.3,474.2,496.3,451.9,498.5z M516.1,465.7c-0.5-1.5-1.2-2.5-3.5-2.2   C512.7,466,514.3,465.6,516.1,465.7c0,2.2,1,2.9,3.2,2.2C518.9,466,517.6,465.7,516.1,465.7z M561.5,473.2L561.5,473.2   c1.3-0.3,1.3-1.4,1.3-2.5c0.8-0.2,1.5-0.5,2.3-0.7c-2.9-10.7-9.8-4.3-16.3-8.3c0.1-1.7,0.6-3.6-1.8-4.4c-0.7,1.2-0.7,1.9-0.9,3.2   c-3.9,2-8.3-2.4-12.5-1.1c-5.7,0.5-12.5,1.7-10.9,9.2c3.6,5.1,8.2,7.4,14.1,7.1c5.2,0.8,10.1,2.3,15.2,0c2.1-0.7,4.3-1.2,6.4-1.5   C559.6,474.4,561,474.9,561.5,473.2z M583.1,495.8c5.7-0.9,11.4-1.7,17.2-2.6c2.4-2.1,4.8-3.4,7.7-1c2.8-0.1,5.6,0.3,8.4-0.5   c0.4-4.4,3.9-3.1,7.4-5.8c-8.4-2-14.8-1.4-23-1.3c-7,1.6-19.2-2.3-21.6,6.8C580.5,492.8,581.8,494.3,583.1,495.8z M633.1,489.9   c-4.8-1.2-9.1-0.1-13.3,1.5c1.4,2.6,3.8,2.3,5.5,1.7C627.8,492.3,631.2,493.4,633.1,489.9z M495.8,456.3c4.5,2.4,8.9,3.3,14.3,4.5   C506.1,457,499.8,453.1,495.8,456.3z M578.5,464.8c-4.9-2.5-8-1.9-12.1,1.4c0.2,0.5,0.5,1.1,0.9,1.8   C570.7,467.1,574.1,466.1,578.5,464.8z M645.8,493c-2.4-2.9-5.6-1.6-8.8-1.8c-0.3,0-0.6,1-1.2,2.1   C639.4,493.5,642.3,494.1,645.8,493z M487.4,453.3c2.3,3.1,4.6,2.7,6.6,0C491.3,453.3,489.6,453.3,487.4,453.3z M659.1,495.1   c1,2.1,2.3,2.6,4.4,1.3C662.6,493.8,660.9,494.5,659.1,495.1z M651.7,493.4c-0.1,0.4-0.1,0.8-0.2,1.2c1.4,0.6,4.5,2.5,4.1-0.7   C654.4,493.7,653.1,493.5,651.7,493.4z" />
	<path fill="#B28C7D" d="M479.5,274.5c8.3,7.3,12.7,17.3,19,26c7.8,13.5,20,23.5,28.8,36.3c23.8,35.5,43.2,74,75.3,103.2   c-1.6,6.2-4.6,11.9-10.6,15.7c-4.9-0.3-10,0.9-14.6-1.3c0.2-0.5,0.4-0.9,0.6-1.4c1.5,0.1,3.1,0.7,4.7-0.7c-2-1.6-5.7-3.7-7.3-1.7   c-1.2-0.9-2.4-1.9-3.6-2.8c0.9-1,1.5-1.7,2.1-2.4c-3.4-2.9-6-4.1-10.3-4.4c-6-3.5-11.8-7.4-16-12.7c-5.6-7.5-12.3-10.3-19.5-16.7   c4.5-0.1,6.1,0.7,9.6-1.2c-8.2-10.3-21.7-12.4-30.8-21.6c-6.1-4.5-22.4-10.4-24.8-16.9c-1.5-7.1-6.7-12.8-9-19.7   c-3.8-8.8-4.8-18.4-6-27.7c-0.5-3.8-0.7-7.3-3.8-10c-0.4-1.3-0.3-3-0.5-4.5c-1.9,0.7-2.3,1.9-2.1,3.4c-1.2,5.8-2.7,11.5-6.4,16.3   c-12.5,15.9-14.8,35.9-20.8,54.9c-17.9-17.3-35.2-36-49.6-56.2c0-1-0.1-2-1.4-2.3l0,0c12.8-18.3,20.5-44.4,42.1-54.1   c6.4-2.3,21.1-0.8,23.4-8.2c-3.3-3.9-8-0.7-11.9-2.6c1.1-1.5,2.2-3,3.2-4.4c4.3-0.6,8.6-1.3,14-2   C462.1,260.1,471.2,267.8,479.5,274.5z M505.8,333.6c0.8,1.3,1.8,2.5,3.9,2.2c-6.6-8.6-14.9-16.2-25.4-20.7   C487.4,319.8,489.5,321.5,505.8,333.6z M453.6,280.5c-0.5,2.4-1,4.6-1.4,6.8c-0.5,2.3-2.8,4-2.3,6.7   C453.8,293.9,458.1,282.1,453.6,280.5z M512.2,339.7c2.1,4.5,3,5.6,6.3,8.1C519.3,345.4,518.4,344.1,512.2,339.7z M526.6,359.8   c-1.4-2.3-1.1-4.1-3.2-4.6C522.1,358,522.3,358.6,526.6,359.8z M447.2,301.5c-2.7,0-2.7,0-2,2.6   C445.9,303.3,446.5,302.5,447.2,301.5z M561.6,433c-0.7,1.9-0.9,2.4-1.1,2.9C563,437.1,562.6,435.2,561.6,433z M526.7,369.8   c1.4-1.4,0.4-2.9-1.1-2C525.9,368.4,526.3,369,526.7,369.8z M442.5,307.3c-0.8,0.5-0.7,0.9-0.3,1.6   C443,308.5,442.9,308.1,442.5,307.3z M526.1,363.9c-0.2-0.3-0.3-0.7-0.5-1c-0.7,0.3-0.4,0.9-0.3,1.4   C525.6,364.2,525.9,364,526.1,363.9z" />
	<path fill="#544492" d="M318.2,473.3c-8,5.7-17,8.6-25.6,13.7c2.6,2.2,4.9,1.3,7.9,1.5c0,0.4,0,0.9,0,1.3   c-4.4,0.1-6.5,5.8-10.1,7.9c-2.3,2.5-9,7.5-8.4,10.7c2.9-2.6,5.6-5,8.1-7.2c2.2,2.1,24,7,20.9,1.4c-2.2-0.1-4.9,0.4-6.7-1.4   c1.6-1.9,3.2-3.7,3.7-6.2c0.8,0.2,1.8,0,2.3,0.5c3.6,3.1,14.7,6.5,19,5.1c6.3,2.8,6.3,2.8,10.6-1.9c0.7,0,1.5,0,2.3,0l0,0   c0.7,1.2,1.3,2.5,2.1,3.9c4.3-0.1,8.2-0.9,12-2.5c7,4.9,7.3,4.9,15.1-0.1c3.6,0,7.4,0,11.1,0l0,0c2.4,7.1,12.3,5.9,17.8,3.2   c1.6-1.1,3.6-1.1,5.2,0.3c2.8,2.6,6.2,3.1,9.8,2.8c-34.7,8.6-71.4-5.4-106.5,0.3c12.8,2.6,26.5-0.1,39.5,1.2   c4.6,1.9,9.7,0.4,14.3,1.3c4.3,2,9.3,0.3,13.6,1.3c22.6,4.3,45.2-4.8,67.9-4.4c0-0.8,0-1.4,0-2c0.5-0.1,0.9-0.1,1.4-0.2   c-1.2,6.2-6.8,36.8-15.8,32.3c1.4-1.4,4.6-2.5,2.2-4.6c-5,2.6-10.3,5-16.1,5.6c-0.5,0.1-0.9,1-1.8,2c3.6,0.1,6.5,0.5,9.2-0.8   c0.8-0.4,1.6-0.3,2,0.7c-0.4,0.4-0.7,0.9-1.1,1.3c0.8,1.9,1.7,1.2,2.7,0.1c2.4-0.5,4.9-1,7.4-1.6c0.9,2.9,1.7,4.1,3.8,6.7   c-53.7,1.4-108.1,4.8-161.4-2.6c-20.4-4.4-38.9-17.3-52.4-33.2c-0.2-1.5,2-3.4-0.5-4.8c-0.2-1-0.5-2-0.8-3.2   c16.2,2.4,30.7-14.3,46.1-17.2c4.6,3.2,7.4,8.3,13.1,9.8c-3.4-4.8-8.7-6.7-11.7-11.9c1.4-1.1,2.5-1.9,3.6-2.8   c2.3,4.1,7.5,4,11.6,6.1C295.2,479.5,306.8,474.7,318.2,473.3L318.2,473.3z M305,526.7c-9.5,3.7-18.4,8.7-28.9,8.9   C287.4,537.8,296.3,532.6,305,526.7z M308.2,534.7c5.7,0.1,10.7-3.6,15.3-7.6C318,528.5,311.8,531.6,308.2,534.7z M404.9,538.8   c2-1.6,14.6-4.4,12-7.2C406.5,535.3,406,535.6,404.9,538.8z M390.6,539.6c6.1,0.7,8.3,0.1,10.4-2.6   C397.4,537.6,393.8,537.3,390.6,539.6z M375.5,540.3c0.1,0.6,0.1,1.1,0.2,1.7c2.1-0.4,4.3-0.5,6.5-1.3   C382,537,377.6,540.2,375.5,540.3z M365.3,541.9c0.9,1.4,3.7,0.3,2.6-1.3C366.9,540.8,365.7,540.6,365.3,541.9z" />
	<path fill="#B1B6B7" d="M784.6,517.4c-0.4-0.9-0.9-1.7-1.3-2.6c0.3-2,0.9-4.5,1.9-6.2c7.3-4.9,17.1-3.5,22.1-10.9   c8.2-10.2,1.4-30.3-4.8-40.5c-7-1.6-9.8-7.1-9.1-13.9c8.7-3.5,17.9-3.2,27-4.1c4.7,3,4.5,17.9,10.6,14.4c1.9-5.1-1.7-9.3-2.8-13.9   c2.7-3,6.7,8,10,9.8c1.3-1,2.2-1.7,3.3-2.6c-1.8-3.7-3.2-6.2-5.6-9.6c1.1-1,2.1-1.9,3-2.7c2.4,0.7,3.4,3.1,5.4,4.3   c7.3,0.9,0.8-7-1.4-9.6c0.7-0.7,1.2-1.3,2-2.2c2.9,2.4,4.7,6.6,9.1,3.9c0.3-4.4-4.6-3.6-6.2-6.8c0.7-0.7,1.5-1.6,2.3-2.5   c2.7,1.2,4.7,2.2,6.6,3.1c4.7-1.2,1.2-6.8-1.4-8.4c4.7-14.6,8.7-27.7,27-26.4c6.1,4.4,1.1,12.7,4.2,18.7c0.2,0.5,0.2,1.3,0,1.8   c-1.9,3.6-1,7.4-0.9,11.1c0.3,9.7-3.5,18.6-5.3,28c-1,10.4-13.9,23.8-21.1,31.6c-8.1,7.9-0.1,20.3-11.8,33.9   c-6.5,7.5-12,16.1-18.4,23.4c-1.6-0.5-3.2-1-4.7-1.5c-7.4-14.7-22.9-12.8-34.7-21C787.8,516.5,786.2,517,784.6,517.4z" />
	<path fill="#977264" d="M443,526.2c2.7,2.5,14-2.6,18.3-2.8c9.2-2.5,18.9-2.4,28-5.3c9-2.6,18.7-4.5,27.3-8.2   c3.5-4,8.6-4.2,13.2-4.9c8.4-0.9,16.2-4.3,24.6-3.8c-0.7,4.5-5.8,4.4-9.5,7.1c25.3,5.5,50.2,7.9,74.7,16.2   c17.6,3.6,35.8,1.5,53.4-0.5c7.2-0.1,13.3-2.7,19.5-5.9c11.2-7,24.8-8.3,36.2-13.8c-7.5-1.2-14.6-2.3-22-3.4   c4.5-4.4,10.2-0.9,15.4-3.4c22.5-1.5,44.8-0.1,67.3,3.5c0.7-9.5,0-18.7,0.5-27.9c2.1,9.4,1.2,20,0.4,29.5   c-9.2,6.9-20.8,3.7-31.7,5.2c-39.4,10.4-76.4,30.7-117.9,30.6c-32.8-3.7-64-16.2-97-18.3c-14.5-0.1-28,7.2-42.2,8.6   c-21.6,0.6-41.5,10.2-63.4,9.2C438.5,533.4,440.4,529.7,443,526.2z M778,502.4c-6.8-0.6-13,0.8-19.9,1.3c4.2,2.3,4.2,2.3,5.6,2.2   C768.2,504.6,775.3,506.7,778,502.4z M745.8,505.1c2.7,0.3,5.7,2.3,8.3-1.3C750.9,503.3,748.2,503,745.8,505.1z M742.5,505.7   c-1.7-1-3.4-1.6-5.5-0.1C739.1,506.3,740.5,506.2,742.5,505.7z" />
	<path fill="#977264" d="M578,453c-0.2,0.5-0.4,0.9-0.6,1.4c4.5,2.2,9.7,1,14.6,1.3c-4.3,2.7-11.5,0.6-16.6,1.1   c-8.1,0.2-13.2-7.4-19.1-11.9c-13.2-12.9-26.5-25.6-42.5-34.9c0.8-0.8,1.6-1.6,2.4-2.3c-3.4-3.5-7.7-5.7-12.8-4.8   c-36.9-17.5-38.6-28.7-51-65.4c4.1-7.8,10.5-14.7,9.6-24.3c0.4,0,0.8,0,1.2,0c0.1,0.4,0,1,0.2,1.2c3,2.7,3.3,6.2,3.8,10   c1.2,9.4,2.2,18.9,6,27.7c2.3,6.9,7.5,12.6,9,19.7c2.4,6.5,18.7,12.4,24.8,16.9c9.1,9.2,22.7,11.3,30.8,21.6c-3.5,1.9-5,1-9.6,1.2   c7.1,6.4,13.8,9.2,19.5,16.7c5.9,7.3,13.8,12.2,22.7,14.5c-2.8,1.6,2,3.4,3.6,2.7c-0.6,0.7-1.2,1.4-2.1,2.4   C574,449.4,576.1,451.1,578,453z M519.5,405.6c0.1,2.1,0.1,2.1,2.1,2.4C520.7,407,520.1,406.3,519.5,405.6z M524,406.9   c0,0.2,0,0.3,0,0.5c0.6,0,1.2,0,1.8,0c0-0.2,0-0.3,0-0.5C525.3,406.9,524.7,406.9,524,406.9z" />
	<path fill="#967264" d="M451.9,498.5c22.4-2.2,43.4-10.2,66.1-8.9c-18.4,19.5-49.2,19.3-72.5,30.3c1.1-3.5,2.2-7.1,3.3-10.9   c5.1,1.6,9.7,0.9,14.1-1.4c3.7-2.4,9.3-1.8,11.2-6.5c-6.6-2.2-17,4.5-24.7,6.1C450.2,503.6,450.8,501.6,451.9,498.5z M486.8,500.7   c-3.5-1.6-8.1-2-9.8,2C481,504.3,483.9,502.8,486.8,500.7z M489.5,497.5c3.9,1.2,3.9,1.2,4.7-1.2   C492.6,495.5,491.2,495.5,489.5,497.5z M498.5,496.1c0.5-0.8,0.8-1.2,1-1.7C497.7,492.9,496.9,494.3,498.5,496.1z" />
	<path fill="#FCFDFD" d="M800.4,499.7c-2.3,0-4.2,0-6.3,0c1.5-12.5,2.9-25.8-4.7-36.7c2.6-1.3,4.9-2.5,7.7-4   c9.5,4.6,9.5,16.9,11.1,26.1C808.6,491.1,805,495.9,800.4,499.7z" />
	<path fill="#AFB4B5" d="M614.9,435.8c11.5-1.4,16.4,16,23.3,22.7c-12.1-0.2-21.7-2.3-33.5-2C608.4,449.4,613.9,443.8,614.9,435.8z" />
	<path fill="#53438F" d="M391.4,390.2c-0.3-5.1-0.9-10.4,4.8-13.3c3.6,5.7-0.6,13.4,2.5,19.4c0.3,10.9,3,21.8,2.5,32.6   c1.6,2.7,5.3,3.8,5.2,7.5c-5.1,0.4-10.1,0.9-15.2,1.3c1.5-0.6,2.9-1.2,4.6-1.9c-4.1-2.8-0.2-8.3-3.4-10.5c0.8-13.8,1.9-27.2,1-41.2   C391.7,386.2,393.6,388.9,391.4,390.2z" />
	<path fill="#544492" d="M415.3,506c-3.6,0.3-7-0.2-9.8-2.8c-1.6-1.5-3.6-1.4-5.2-0.3c-5.5,2.7-15.4,3.9-17.8-3.2   c22.3,2.1,40.5-12.6,62-13.9c-11.1,7.5-24.1,8.4-35.7,15c12.8,0.2,24.1,2.1,36.9,1.6c0.1,0.4,0,0.8-0.2,1.2   C435.6,506,425.3,504.1,415.3,506z" />
	<path fill="#19121A" d="M383.8,328.2c1.7,2.6,3.4,5.1,5.1,7.7c-0.5,0.5-1,1-1.5,1.6c-6.4-7.1-10.8-15.5-14.9-24   c-0.5-1.1-1.4-1.4-2.5-1.4c1.3-1.2,2.7-2.5,4-3.7c-1.2,6.6,6,11.8,8.5,17.5l0,0C382.9,326.6,383.4,327.4,383.8,328.2z" />
	<path fill="#181125" d="M425.2,538.7c-0.4-1-1.2-1.1-2-0.7c-2.8,1.3-5.6,0.9-9.2,0.8c0.9-1,1.3-1.9,1.8-2c5.9-0.6,11.1-3,16.1-5.6   c2.3,2.2-0.8,3.2-2.2,4.6c0.9,0.2,1.5,0.4,2,0.5C429.7,537.9,427.6,538.5,425.2,538.7z" />
	<path fill="#403673" d="M382.4,437.9c-0.9-0.8-1.7-1.5-2.6-2.3c0.7-0.1,1.5-0.3,2.3-0.4c-0.4-0.8-0.7-1.5-1-2.2   c1.3-0.4,1.3-1.6,1.3-2.6c0.6,1.4,1.3,2.8,1.9,4.3c0.8-4.5-0.4-8.6-0.7-13c2.7,5.1,4.6,10.5,5.1,16.3   C386.7,437.9,384.6,437.9,382.4,437.9z" />
	<path fill="#CCCFCF" d="M598,457.2c3.2-5.9,5.6-10.5,8.2-15.3c0.8,0.4,1.6,1,2.8,1.6C606.2,448.4,604.3,453.7,598,457.2z" />
	<path fill="#392A25" d="M462,313.2c-0.1,6.3-1.3,13.4-6.2,17.8c-0.5-0.5-1-0.9-1.4-1.4c3.7-4.8,5.2-10.5,6.4-16.3   C461.1,313.2,461.5,313.2,462,313.2z" />
	<path fill="#53438F" d="M407.7,436.5c1.3-1.9,3.3-0.7,5-1.1c5.4,0,10.8,0,16.2,0C422.7,438.4,414.6,435.8,407.7,436.5z" />
	<path fill="#6D554B" d="M503.3,402.9c1,0,1.9-0.1,2.9-0.1c3,2.1,5.9,5.6,9.9,4.9c-0.8,0.8-1.6,1.6-2.4,2.3   C510,408,506.3,405.9,503.3,402.9z" />
	<path fill="#977264" d="M444.2,523.5c0.1,1.1,0.2,2.2-1.2,2.6C443.4,525.3,443.8,524.4,444.2,523.5z" />
	<path fill="#181125" d="M426.8,540.2c-1,1.1-1.9,1.7-2.7-0.1C425,540.1,425.9,540.1,426.8,540.2z" />
	<path fill="#B28C7D" d="M449.1,343.5c-0.3,0.4-0.5,0.8-0.8,1.2C448.6,344.3,448.8,343.9,449.1,343.5z" />
	<path fill="#B28C7D" d="M292.9,150.6c-1.6,0.6-3.2,1.1-4.8,1.7c0,0.8-0.1,1.4-0.1,2c2.2,2.4,6.2,2.2,6.2,6.3   c-11.8,6.5,2.1,27-32.7,13.9c-3.8-8-13.1-11.9-16.2-20.1c-7.7-4.9-9.1-15.2-9-23.6c-5.3,0.4-9.4-1.2-11.3-6.5   c2.1,0.3,3.7-1.5,6-0.9c3.2,0.8,3.4,0.3,5.3-3.7c-0.9-1.9-1.9-4-2.8-6.1c5.3-8.1-1.6-11.3-7.2-15.6c5.4-0.2,9.9,1.5,12.7,6.6   c9.9,0.4,15.5-6.3,23.5-11.6c4.4-12.4,2.8-15.6-0.1-27.9c2.7-1.8,5.1-3.3,7.2-4.6c18.7,0.6,21.4,23.6,23.6,38.4   c-5.6-0.7-10.9-4.6-16.7,0.3c6.6-0.4,11.9,0.9,16.7,5c-0.1,0.9-0.2,2.1-0.4,3.7c-0.9-0.9-1.5-1.4-2.3-2.2   c-2.3,4.6-12.2,1.8-10.9,6.6c1.9,0.6,3.9,1.3,5.8,2c0,0-0.1,0.2-0.1,0.2c0.1,1,0.2,2,0.4,3.6c2.4-1.9,3.2-3.7,4.3-6.2   c1.6,0.2,1.3,1.2,1.5,2c0.9,8.1,10.2,12.8,9.2,21.2c-3.1-0.6-5-0.6-7.6,0.9c-1.1-0.4-2.1-0.9-2.9-1.2c-0.8-2.2,1.7-3.5,0.6-5.4   c-2.9,2.3-2.9,2.3-2.6,7c5,1.5,6.9,5.5,7.9,10.4c-0.6,0.8-1.2,1.8-1.9,2.7c0,0,0.1-0.1,0.1-0.1   C293.3,149.3,292.9,149.8,292.9,150.6C292.9,150.7,292.9,150.6,292.9,150.6z" />
	<path fill="#977264" d="M245.3,154.4c3.2,8.2,12.4,12.1,16.2,20.1c-1-0.1-2.1-0.3-3.4-0.4c-1.4,10.7-9.5,18.3-9.7,29.7   c-1.4-0.5-2.4-1-3.5-1.4c2-1.8-6.9-13.8-7.8-17.4c-6.8-15.9-12-34.8-8.6-51.9l0.4-0.4c1.8,0.1,3.1,1.6,4.7,2.4   c0.2,5.9,3.6,11.8,1.4,17.5c1.3,5.2,2.3,11.3,6,15.7c0.8-5.5-2.1-9.8-1.9-14.9C241.5,154.1,243.5,156.7,245.3,154.4z M242.2,177.8   c0.2-2.1,1.2-4.4-1.7-5.8C239.6,174.5,239.9,176.5,242.2,177.8z M241.8,180.2c-0.3,4.2-0.3,4.2,2.1,3.7   C243.3,183,242.9,182.2,241.8,180.2z M243.7,187.1c-0.2-0.2-0.4-0.4-0.7-0.6c-0.4,0.7-0.5,1.1,0.3,1.5   C243.5,187.8,243.6,187.5,243.7,187.1z" />
	<path fill="#957163" d="M186,171.1c6.7-7.9,10.3-17,11.1-27.3c0.4-2.7,0-5.4,2.2-7.6c0.8-0.9,0.7-2.7,1-4.4c2-0.2,3.3-1.9,5.8-1.3   c1.8,0.4,2.1-1.5,1.3-3.4c1-0.6,2-1.3,3.1-2.1c0.7-3.2,0-6.2,3.8-8c5.8,4.5,8.4,12.1,14.6,15.9l-0.4,0.4c-1.6,0.4-3.2,0.7-5,1.1   c-3-1.6-6.1-3.2-9.4-5c-2.3,7-3.7,13.6-5.3,20.6c-3,7.8-11.7,11.9-13.7,20.4c0.8,0.7,1.4,1.2,2,1.7   C193.5,171.5,189.2,173,186,171.1z M202.5,136.4c0.2,0,0.5,0,0.7,0c0-1,0-2,0-3c-0.2,0-0.5,0-0.7,0   C202.5,134.5,202.5,135.4,202.5,136.4z" />
	<path fill="#140E0C" d="M228.8,100.2c6,1.7,8.5,8.3,4.8,13.4c1,2.1,1.9,4.2,2.8,6.1c-1.9,4-2.2,4.4-5.3,3.7c-2.3-0.6-3.9,1.2-6,0.9   c-0.5-0.4-0.9-0.9-1.4-1.3c1.7-1.4,2.9-2.3,5-3.7c-2-1.5-3.6-2.7-5.1-3.9c-0.2-2.2-0.4-4.5-0.6-7c1.7-2,5.9-3.9,7.9-1.2   c-1.8,0.7-3.5,1.4-5,2c0.1,1.9,0,3.3-0.4,4.9c3.1,1.6,4.7,3.1,5.5,6.4c0.9-0.1,1.5-0.2,2.4-0.3c-1.1-2.6-2.2-5-3.2-7.2   c1.3-1.8,2.5-3.5,3.7-5.2c-2.9-3.9-5.9-6.8-10.7-6.1c-2.9,5.2-1.7,9.8-1.8,15c-4,0.4-1.2-3.8-3.8-4.9c0.1-2.7-0.8-5.5,0.9-7.8   c0.3,0.2,0.6,0.5,1,0.8c0.8-1.5,1.7-3,2.6-4.7C224.3,100.2,226.5,100.2,228.8,100.2z" />
	<path fill="#120E0D" d="M245.3,154.4c-1.7,2.3-3.8-0.4-6.3-1c-0.1,5,2.7,9.4,1.9,14.9c-3.7-4.3-4.6-10.4-6-15.6   c2.2-5.7-1.2-11.6-1.4-17.5c-1.2-0.7-2.3-1.5-3.5-2.2c2,0,4,0,6,0C236.9,140.8,238,150,245.3,154.4z" />
	<path fill="#A48274" d="M223.5,115.5c1.6,1.2,3.2,2.4,5.1,3.9c-2.1,1.4-3.2,2.2-5,3.7c-1.4-1.1-2.5-2.5-3.8-3.8   c0.4-0.8,0.8-1.7,1.2-2.5c0,0,0.2,0,0.2,0C222,116.3,222.7,115.9,223.5,115.5z" />
	<path fill="#56423B" d="M228.8,100.2c-2.2,0-4.4,0-6.8,0c-0.9,1.7-1.7,3.2-2.6,4.7c-0.4-0.4-0.7-0.6-1-0.8   C218,98.8,225.7,95.4,228.8,100.2z" />
	<path fill="#2E2320" d="M285.4,114.2c-2-0.7-3.9-1.3-5.8-2c-1-4.5,4.6-2.7,6-0.5C285.4,112.6,285.4,113.4,285.4,114.2z" />
	<path fill="#69554C" d="M221.1,116.7c-0.4,0.8-0.8,1.7-1.2,2.5c-3.2-1.1-2.7-4.6-2.4-7.3C220,112.8,217.5,117.2,221.1,116.7z" />
	<path fill="#6A6157" d="M288,115.7c-0.7,0.6-1.3,1.2-2.4,2.3c-0.2-1.6-0.3-2.6-0.4-3.6C286.2,114.8,287.1,115.3,288,115.7z" />
	<path fill="#957163" d="M200.7,127.3c1.3-0.9,2.1-1.3,3.4-2.2C203.8,127.3,203.4,128.2,200.7,127.3z" />
	<path fill="#688786" d="M285.5,111.8c-0.5-0.5-0.9-1-1.4-1.4C284.9,110.5,286.6,109.8,285.5,111.8z" />
	<path fill="#140E0C" d="M222.3,121.9c0.4,0.4,0.9,0.7,1.3,1.1C223.2,122.6,222.8,122.3,222.3,121.9z" />
	<path fill="#E0DEE5" d="M255,213c9.5,16.9,14.6,35.8,23.7,52.9c1.5,6.1,5.6,11.1,6.3,17.4c0.4,11-0.5,22.7-9.7,30.1   c-0.8,2.7-0.8,5.8,0.6,8.8c3.6,9.4,4.6,19.6,5.3,29.5c1.1,21.4,20.9,35.2,24.4,56c-1.5,4.3-0.9,8.8-3.8,12.7   c-7.4-10.6-21-13.4-30.4-20.9c-2.3-2.4-5.1-5-8.7-3.9c0.7,3.2,2.5,5.6,3.7,8.2c-3.1,4.9,4.6,0.8,5.2,4.2c8.1,7,15.8,15.2,24.8,20.9   c0.1,0.6,0.1,1,0.2,1.4c-9,16.2-19.4,31.9-36.4,40.4c-9.7-14.1-14.8-31.6-21.9-47.3c-3.7-9.4-8.2-18.6-9.9-28.7   c1.4-0.7,2.5-1.2,3.7-1.8c-6.2-12.8-8-8.4-9.6-25.6c6.3,2.1,18.2,8.6,15.4-3.3c1.6-1.6,3.5-2.6,5.4-3.8c-0.1-0.3-0.2-0.6-0.3-0.9   c-4,0.7-8,1.7-12.1,1.6c-3.1-3.4-8.9-4.7-9.6-9.7c2.5,0.1,4.7-0.8,6.7-2c2.9,0.5,5.2-1.4,7.6-2.4c3.5,0,0.8-5.6-0.8-2.4   c-4.9-1.8-17.8-9.5-18.5-15c0.6-0.4,1.3-0.9,2-1.3c4.7,5.1,13.1,12,19.9,6.7c-1.3-1.4-2.4-3-3.8-4c-1.5-1.1-1.5-3.6-3.7-3.9   c-3.7-1.7-6-6.6-9.2-9.5c8.1-19.7,10.3-16.2,26-5.8c2.6-0.2,5.6,0.9,7.5-1.4c-0.1-0.3-0.1-0.6-0.1-0.9c0.9-1,1.8-2.1,2.8-3.2   c-5.2-12-16.7-20.4-20.4-33.1c-1.7-5.7-9.2-7.7-14.7-6.4c-1.6,1.2-3,2.5-3,5c0,1.2-0.7,2.3-1.1,3.5c-3.8,3.6-5.4,8.3-6.5,13.3   c-12.7,1.2-24.3-7.7-35.8-12.3c-6.4-3.6-13.7-5.4-19.6-9.7c-0.2-1.2-0.4-2.4-0.6-4.1c14.2-22.2-5.2-30.4,22.9-67.1   c4.4-7.3,15.1-9.9,14.5-19.9c0.4,0.1,0.8,0.1,1.2,0.2c1,1.8,2.7,1,4.2,1c10.5,2.2,20.3,7.3,28.6,14c-0.5,0.5-0.9,0.9-1.4,1.4   c-5.5-1.3-9.7-4.9-16.1-3.4c14.6,5.3,24.5,8.7,27.9,25.6c4.7-2-1.8-11.4-3.1-14.6c0.5-0.5,0.9-0.9,1.4-1.4   c4.9,3.9,6.6,7.7,13.3,8.6C251.3,209.1,253.2,211,255,213z M199.6,272.8c1.6,2,8.1-1.1,5.7-3.1c-2.1,0.5-4.3,1.1-5.6,3.2   c-1.2,0-2.4,0-3.7,0c0.1,0.7,0.2,1.3,0.3,2.1C197.7,274.3,199.5,274.6,199.6,272.8z M277.7,296.8c0.5-5.3,0.5-5.3-1-8.6   c-0.9,9.9-0.6,20.1-9.9,26.3C276.3,316.7,277.2,303.5,277.7,296.8z M208.7,268.1c0.1,0.5,0.3,0.9,0.4,1.4c4.6-0.7,8.6-4.4,10.5-8.6   C216.8,260.2,211.7,266.5,208.7,268.1z M275.1,382.2c3.9-0.4,7.1-2.4,10.7-4.4C282.6,376.7,280.5,377.6,275.1,382.2z M273.4,274.7   c-0.3,3.3,0.7,6.8,3,10.2C276.7,279.7,276.2,278.1,273.4,274.7z M238.2,221.1c-1.1,2.2-0.9,4.3-0.1,6.4c2.2,0.2,2-1.3,2-2.4   C240,223.6,240.7,221.7,238.2,221.1z M271,361.8c2.9,1.1,5.3,0.5,7.7-1.4C275.6,359.1,273.4,361,271,361.8z M278,356   c-2.3,0.6-4.6,1.2-6.9,1.8C273.8,358.8,276.3,358.8,278,356z M269.1,263.9c-0.2,2.5,0,4,2.1,4.8   C271.9,266.8,271.2,265.5,269.1,263.9z M237.6,237.9c2.4-1,3-3.7,0-4C237.6,235.3,237.6,236.4,237.6,237.9z M267.1,261   c1.4-1,0.3-3.8-1.3-2.8C265.9,259.3,265.8,260.6,267.1,261z M260.9,401.2c-2.1-2.3-2.1-2.3-3.1,0   C258.9,401.2,259.8,401.2,260.9,401.2z M202.6,188.8c0,0.3,0,0.7-0.1,1c1.5-0.1,3-0.2,4.5-0.3c0-0.2,0-0.5,0-0.7   C205.5,188.8,204.1,188.8,202.6,188.8z M190.8,191.2c-0.2,0.2-0.5,0.4-0.7,0.6c0.4,0.7,0.9,0.2,1.4,0.1   C191.2,191.6,191,191.4,190.8,191.2z M198.3,189c-0.3,0-0.6,0-0.9,0C197.4,191.1,198.1,191.1,198.3,189z" />
	<path fill="#B28C7D" d="M85.4,580.2c-0.1-1.6-0.3-3.3-0.4-4.9c3.2-4.3,12.6-5.6,13.9-10.1c-0.3-5.5,4.5-5.7,6.5-9.6   c-4.7,0-6.9,2.7-8.7,6c-1.9,0-3.7,0-5.6,0c-12,11.5-29.1,8.6-43.6,14.4c-8.2,2.9-17.2,6.1-26.2,3.6c-0.2-1,0.3-1.5,1.3-1.6   c8.7-1.2,17.7-4.4,25.2-8.9c7.5-6.6,19-1.9,25.9-9.7c-5.7-0.1-9.4,3.6-15.5,3.2c1.5-1,2.6-1.7,4-2.7c-3.4-1.8-6.1,1.4-9.3-0.1   c9.9-8.4,23.8-7.2,33.7-15.8c0.8,0,1.5-0.1,2.3-0.1c1.6,3.2,6.6,2.5,9.7,3.8c0.9,0.2,1.5-0.3,1.5-1.4c-2.5-1.3-5-2.4-6.9-4.6   c4.2-3.5,3.4-8.3,3.5-12.7c0.8-1,1.5-2,2.2-2.9c0.2-2.4,0.4-4.8,0.6-7.3c1.9-1.6,0.2-4.4,1-6.6c1.9-1.4,1.7-3.7,2.3-5.7   c-0.4-1.8-0.9-3.5-1.2-5c1.1-1.3,1.9-2.1,2.6-3c-4-5.6-2.6-6.4,1.3-11.3c0.7-3-2.7-1.8-2.5-5c0.7-8.5,2.3-16.8,2.6-25.4   c1.5-5,1.3-10.2,2.5-15.3c0.9-13.3,7.4-24.4,10.6-37.3c1.2,2.5,0.5,5.4,3.2,6.9c6-7.6,4.9-20.1,1.8-28.9   c-1.6-3.5-4.4-18.5,1.6-18.2c3.3,7,3.9,15.1,9.2,21.1c-0.6,2.6-1.4,4.9-0.9,7.6c2.9-0.2,4-2,4.6-4c0.2-2.6,2.9-7,0.1-8.7   c5.5-15.3-12.2-22.9-7.8-35.2c3.4-10.4,6.1-21,9.1-31.5l0,0c0.8,0.4,1.5,0.9,2.3,1.3c1.1,1.9,1,8.2,4.2,6.3c1,2.2,1.5,4.8,3.5,6.4   c0.2,1.7-0.2,3.7,2.3,4.4c0.5-1.9,1-3.5-1.1-4.5c4.5-11.9-4.7-27.5-8.9-39.4c-3.3-6,1.2-19.8,7.9-21.1c19,11.7,39.6,22.1,61.5,26.2   c-6.1,33.2-28.3,61-47.2,88.3c-0.4-1.7-0.7-3-1.2-5.3c-0.8,1.6-1.6,2.4-1.6,3.3c0,9.5-1.9,18.7-3.2,28   c-3.5,23.7-17.8,44.2-22.1,67.8c-2.7,9-4.5,18.4-7.9,27c-5.8,9.3-7.5,19.8-8.9,30.4c-1.4,11-5.3,21.6-2.5,32.7   c-0.4,0.5-0.8,1-1.2,1.4c-13-1.2-17.8,10.1-28.9,13.9C85.9,580.3,85.6,580.2,85.4,580.2z M129.7,406.3c0.7-3.5,4.1-6.4,2.8-10.1   C129.6,398.7,129.6,398.7,129.7,406.3z M114.6,537.7c-2.3,2.5-2.3,5.5-1.1,8.7C115.6,543.3,115.6,543.3,114.6,537.7z M171.1,300.9   c1.3-4.4,1.3-4.5-2.7-7.3C168.3,296.5,168.8,298.9,171.1,300.9z M169.6,302.3c-0.5,2.3-0.5,4.4,0.4,6.7   C172.4,305.9,172.4,305.1,169.6,302.3z M161.1,369c-1,2-0.9,3.8,0,5.8C163.3,371.7,163.3,371.7,161.1,369z M109,547.3   c-3.4-1.8-3.4-1.8-6-1.7C104.3,547.8,106.1,547.9,109,547.3z M148.1,342.7c0.4,0.2,0.9,0.4,1.3,0.7c1.4-1.1,1.8-2.6,0.5-4.9   C149.2,340.1,148.7,341.4,148.1,342.7z M128.7,413.7c0-1,0-2,0-3.1C126.7,411.5,126.2,412.4,128.7,413.7z M168.7,284.5   c-0.7,1.3,1.5,2.9,2.5,1.9C170.5,285.2,170.4,284.2,168.7,284.5z M167.1,330.8c1.6-1.7,1.5-3-0.2-5.5   C167,327.8,167.1,329.1,167.1,330.8z M168.3,317.7c1.2-2.3,1.2-2.3,0-4.4C168.3,315.1,168.3,316.4,168.3,317.7z M160.6,365.3   c0.4,0,0.9,0,1.3,0c-0.1-1.2-0.1-2.5-0.2-3.7c-0.3,0-0.6,0-0.8,0C160.7,362.8,160.6,364.1,160.6,365.3z M151.4,333.8   c-0.2,0-0.4,0-0.5,0C150.7,335.8,151.5,335.9,151.4,333.8z" />
	<path fill="#D5D2DC" d="M231.1,361.2c1.2,0,2.5-0.1,3.7-0.1c0.2,0.7,0.3,1.4,0.5,2c1.8-0.2,3.3-0.3,4.7-0.5   c-0.6,0.5-1.2,1.1-1.8,1.6c2.8,11.8-9.1,5.4-15.4,3.3c1.5,17.2,3.4,12.8,9.6,25.6c-1.3,0.6-2.3,1.1-3.7,1.8   c1.7,10,6.1,19.3,9.9,28.7c7.1,15.7,12.1,33.2,21.9,47.3c-12,7.9-25.3,19.3-40.5,17.4c-8.2-8.5-10-20.7-17.8-29.2   c-83.7-93.4-7.2-66,16.1-177.2c3.2,8.6,8.7,15.1,14.5,21.3c-5.9,0.8-8.7,9.9-11,14.7c2.8,3.1,5.5,6.2,8.3,9.3c-2.9,1-6.1,2-8.8-0.1   c-1,0-2.1-0.2-2.4,1.2c-0.7,0.6-1.5,1-2.2,1.5c-0.2,4.4,14.5,14,18.4,15c-0.7,0.6-1.5,1.3-2.5,2.2c1,0.2,1.8,0.4,2.5,0.5   c-2.1,1.2-4.2,2.4-6.8,2c0.4-0.9,2.6-1.1,1.1-3.1c-3.1,0.9-7,0.3-9.6,2.8c2.8,1.6,5.3,0.5,7.7,0.6c-1.7,1.5-3.8,1.4-5.9,1.7   C222.3,356.5,228,357.9,231.1,361.2c-0.9,0.4-2.2,0.2-2.3,2c1.2,0.4,2.3,0.7,3.5-0.3C231.8,362.2,231.5,361.7,231.1,361.2z    M213.5,346c-0.5-1.5-1.3-2.6-3.2-2.3c-0.1,0.5-0.2,1.1-0.4,2C211.2,345.8,212.4,345.9,213.5,346c0.8,3.2,3.6,3.3,5.6,0.3   C216.6,346.2,215,346.1,213.5,346z M199.9,447.5c1.2,3.8,0.2,5.5,4.3,7.7c-0.7-3.7-0.3-6.4-2.4-8.5   C201.3,446.9,201,447,199.9,447.5z M201.8,441.1c1.4-1.6,0.3-4.7-1.9-3.9C199.6,439,200.3,440.2,201.8,441.1z M202.4,433.5   c-1.2-1.8-1.7-2.4-2.2-3.3C199.8,432.2,199.8,432.2,202.4,433.5z M224.6,361.6c-0.4-0.3-0.6-0.1-0.9,0.2c0.3,0.1,0.6,0.1,0.9,0.2   C224.6,361.9,224.6,361.7,224.6,361.6z" />
	<path fill="#977264" d="M105.1,487c-3.9,4.9-5.3,5.7-1.3,11.3c-0.7,0.8-1.5,1.7-2.6,3c0.4,1.5,0.8,3.3,1.2,5   c-0.6-0.1-1.2-0.1-1.9-0.2c-0.9,1.9-2.1,3.8-0.4,5.9c-0.1,1-0.2,2.1-0.3,3.1c-1-0.2-1.9-0.1-2.4,1c-0.1,0.1-0.8,0-1.2,0   c3.1-32.1,2.5-64.7,9.7-96.3c3.7-11.3,6.9-22.8,9.4-34.4c0.3-1.3,0.8-2.4,2.3-2.7c-0.2,0.7,0.3,1.4,0.5,2.1c0.3-0.3,0.6-0.6,0.9-1   c-0.1-2.5-0.2-5-0.2-7.5c-3.7-7.7,6.3-15.3,3.1-25c-0.5-15.1,3.5-29.7,6.3-44.4c0.4-24.3-3.6-27.3,10.9-50.3   c2.5,4.2,6.9,6.5,10.2,10c-23.8,12.5,8.4,40.6,1.2,56.8c-0.7-1.1-1.3-2.2-2.8-4.5c0,3.3,0,5.2,0,7c-3-4.9-2-15.3-5.8-16.3   c-0.2,1.8-0.4,3.4-0.5,5c-0.8-0.4-1.5-0.9-2.3-1.3c-0.6-2.2,1.6-10.5-1.9-9.6c-1.6,1.6,0.6,4.4-1.8,5.6c-2.1-3,0.1-9.8-2.5-10.8   c-2.1,4.1-1.9,8.6,0.7,11.8c1.9,0.5,3.8,1.7,5.5,2.9c-3,10.5-5.7,21.1-9.1,31.5c-4.4,12.2,13.3,20,7.8,35.2   c-1.1,0.1-2.3,0.3-3.4,0.4c-0.2,1.9-0.3,3.3-0.4,4.7c-5.3-6-5.9-14.1-9.2-21.1c-6-0.4-3.2,14.8-1.6,18.2c3.1,8.8,4.2,21.2-1.8,28.9   c-2.7-1.5-1.9-4.4-3.2-6.9c-3.2,12.8-9.7,24-10.6,37.3c-1.4,4.6-0.5,9.6-2.3,14.1c-0.6,5.7-0.8,11.6-1.5,17.4   c-0.1,3.6-3.2,8.9,0.1,11.8C103.9,485.6,103.7,486.7,105.1,487z M132.6,377.9c3.5,1.5,5.9-4,2-3.6   C134,375.3,133.3,376.5,132.6,377.9z M133,371.7c0.4,0,0.8,0,1.2,0c-0.1-1.1-0.3-2.3-0.4-3.4c-0.3,0-0.5,0-0.8,0.1   C133,369.4,133,370.5,133,371.7z" />
	<path fill="#D4D2DC" d="M193.4,175.8c0.6,10-10.1,12.6-14.5,19.9c-28.1,36.8-8.6,44.6-22.9,67.1c0.2,1.7,0.4,2.9,0.6,4.1   c-6.6-2.3-11.2-7-15.3-12.4c0.7-1.7-0.6-3.9,1.3-5.3c1.8,1.8,2.9,4.1,3.8,6.4c0.1,1.4,0.5,2.5,2.1,1.9c-0.5-4.3,1-9.4-0.7-13.1   c-1.4-0.1-1.3,1-1.4,2c-2.8-2.7,0.5-6.5-1.4-9.6c-0.6,0.4-0.9,0.7-1.2,0.9c-4.4-11.1,3.2-22.1,10.4-30.2c4,0.9,4.3-3.6,6.2-6.3   c-0.9-0.9-1.7-1.9-2.6-2.8c9.6-7.4,15.4-17.4,26.3-23.4C186.9,175.2,190.3,173.7,193.4,175.8z M153.8,261.7   c-0.5-2.6-0.8-4.3-1.2-6.6C150.9,259.6,151,259.7,153.8,261.7z" />
	<path fill="#D5D1DB" d="M255.1,310.6c-1.9,2.3-4.9,1.2-7.5,1.4c-2.6-1.7-5.2-3.4-7.8-5.2c0.2-0.6,0.4-1.2,0.7-2.3   c-7-7.6-14.5-15.3-19.3-25.3c0.3-0.8,0.6-2,1.1-3.6c-1.4,0-2.5-0.1-3.7-0.1c1.4-3,0.9-6.8,4.1-8.5c5.4-1.4,12.9,0.6,14.7,6.4   c3.7,12.7,15.3,21.1,20.4,33.1c-1,1.1-1.9,2.2-2.8,3.2c-0.8-0.2-1.5-0.3-2.1,0.2C253.5,310.7,254.1,311,255.1,310.6z M250.8,311   c-3.4-4.4-3.4-4.4-7-5.1C245.1,308.6,246.9,310.1,250.8,311z M226.9,269.1c-2.7,0-5,1.6-2.1,3.6   C225.4,271.8,225.9,270.8,226.9,269.1z" />
	<path fill="#B08B7C" d="M167.1,416.5c-1.7,23.7-22.8,42-20,66.5c1.8-0.8,2.8-1.3,4.5-2.1c1.4,1.4,1.9,3,1.5,4.9   c-4-0.4-14.9,1.5-15.2-3.9c3.6-11.7,4.9-24.3,10.2-35.3c7.9-13,10.4-27,14.2-41.7C164,409.3,165.5,412.9,167.1,416.5z" />
	<path fill="#4B3E85" d="M242.4,494.6c-5.4,2.4-9.1,1.5-9.8-4.7c11.3-4.2,20.8-11.7,31.1-17.5c2.3,2.4,4.3,4.5,6.5,6.9   c-1.4,1-2.6,1.9-3.7,2.7c-2.9-1.3-2.8-5-6-5.5c-0.1,0.7-0.3,1.3-0.4,1.9c0,0,0.1,0,0.1,0c-0.7-0.2-1.4-0.5-2.2-0.7   c-0.2,3.2,2.7,5.1,2.7,9.2c-2.3-2.1-4.1-8.3-6.5-6.2c0.3,1.4,0.7,2.7,1,4.1c-1.4-0.8-2.7-1.7-4.2-2.6c-0.2,2.7-0.2,2.7,2.9,4.6   c0.4-0.7,0.9-1.4,1.3-2.1c0.8,0.6,1.5,1.2,2.7,2.1C252.4,489.3,247.4,491.2,242.4,494.6z" />
	<path fill="#130D19" d="M260.1,478.3c0.1-0.6,0.2-1.2,0.4-1.9c3.1,0.5,3.1,4.2,6,5.5c1.1-0.8,2.3-1.7,3.7-2.7   c-2.2-2.4-4.2-4.5-6.5-6.9c-3.3,2-6.6,3.9-9.9,5.9c-0.6-0.5-1.1-1-1.7-1.4c5.3-4.1,10.9-7.8,16.7-11.2c0.4,0.4,0.9,0.8,1.3,1.2   c-1.2,1.1-2.4,2.2-3.9,3.5c1.4,2.8,3.3,5.2,5.5,7.6c2.4-2.1,4.7-4.1,7-6c0.5,0.5,0.9,0.9,1.4,1.4c-3.3,3.3-5.9,6.4-9.9,9.1   c1.4,1.7,2.6,3.2,3.8,4.7c-3,1.3-5.7-6.1-7.7-2.5c-7.6,3.7-15.2,7.5-22.7,11.2c-0.5-0.4-0.9-0.9-1.4-1.3c5-3.4,10-5.2,15.5-7.9   c-1.2-0.9-2-1.5-2.7-2.1l0,0.1c-0.3-1.4-0.7-2.7-1-4.1c2.4-2.1,4.2,4,6.5,6.2c0-4.1-2.9-6-2.7-9.2   C258.8,477.8,259.5,478,260.1,478.3c1.2,4.1,1.2,4.1,4.2,5.6C263,481.5,262.6,479.2,260.1,478.3z" />
	<path fill="#C6C3CD" d="M135.6,232.6c0-0.4,0-0.9,0-1.3c2-1.3-0.1-3.2,2.1-5.5c-0.1-0.3,0-0.6,0.3-0.8c0.5,0.5,0.9,1,1.4,1.5   c-0.1,0.8-0.2,1.5-0.4,2.3c-2.3,1.9,0.1,8-2.3,11.5c1.2,11.8-1.7,20-8.1,29.8c-1.7-5.8,1.2-10.9,2.6-16.2   c1.5-6.3,2.9-12.6,4.3-18.8C136.9,234.3,136.9,233.5,135.6,232.6z" />
	<path fill="#936E60" d="M140.3,484.7c3.9,2,8.5,0.9,12.7,1.2c1.6,10.4-11.9,6.9-18.5,7.4c0.9-4.1,1.4-7.9,3.4-11.3   c0.2,1,0,2.2,1.4,2.7c-0.1,1.1-1.9,1.8-0.7,3.4C140,487.4,140.5,486.2,140.3,484.7z" />
	<path fill="#C3C4CD" d="M158,206c-0.6,2.1-2.3,1.3-3.6,1.5c-2.1-1.8-4.6,3.7-6.5,4.9c-2.6,1.5-2.9,4.6-5.1,6.4   c-0.5-0.6-0.9-1.1-1.4-1.7c3.3-7.9,9.7-13.9,16.5-18.7c0.9,0.9,1.7,1.9,2.6,2.8c-3.1,0.5-3.1,0.5-4.3,4.8   C156.8,206,157.4,206,158,206z" />
	<path fill="#2B2249" d="M232.6,489.8c0.6,2.9,1.1,5.9,5,6.2c-3.3,2.7-7.1,3.9-11.4,3.7c0-0.4,0-0.7-0.1-1.1   c1.5-1.7-0.7-3.7-1.1-5.4c0.9-0.9,1.6-1.5,2.3-2.2C229.1,490.6,230.8,490.2,232.6,489.8z" />
	<path fill="#A5A2AA" d="M142.8,249c-1.9,1.4-0.7,3.6-1.3,5.3c-0.3-0.7-1-1.4-0.9-2.1c1-8.1-0.2-17,2.4-24.8c0.2,3.4-0.6,7,1.1,10.1   C142.5,241.3,143.1,245.2,142.8,249z" />
	<path fill="#463C82" d="M227.3,491c-0.7,0.6-1.4,1.3-2.3,2.2c0.5,1.7,2.7,3.7,1.1,5.4c-1.7-2.3-4.2-4.2-3.6-7.6   C224.1,491,225.7,491,227.3,491z" />
	<path fill="#B2B1B9" d="M136.7,254.2c0.5-5.5-1.3-11.5,1.1-16.5c0,5.3,0,10.7-0.1,16C137.4,253.8,137,254,136.7,254.2z" />
	<path fill="#382F64" d="M222.3,498.6c-3.1-0.6-3.5-4.2-4.9-6.5c2.7-3.2,4.1,3.5,5.4,5.1C223,497.5,222.5,498.1,222.3,498.6z" />
	<path fill="#B2B1B9" d="M141.4,217c0.5,0.6,0.9,1.1,1.4,1.7c-1.2,2.6-2.3,5.3-3.5,7.9c-0.5-0.5-0.9-1-1.4-1.5   C139.1,222.4,140.3,219.7,141.4,217z" />
	<path fill="#1E1935" d="M222.3,498.6c1.5-2.2-1.6-4.5-2.3-6.6c0.8-0.3,1.6-0.7,2.5-1c-0.6,3.4,2,5.3,3.6,7.6c0,0.4,0,0.7,0.1,1.1   C224.8,499.6,223.2,500.2,222.3,498.6z" />
	<path fill="#353032" d="M144.2,217.4c0.7-2.1,1.9-3.8,3.7-5.1c0.5,0.5,0.9,0.9,1.4,1.4c-1.2,1.7-2.5,3.4-3.7,5.2   C145.1,218.4,144.6,217.9,144.2,217.4z" />
	<path fill="#7A685D" d="M151.5,481c-0.8,0.4-1.5,0.7-2.3,1.1c0.1-1.1,0.2-2.2,0.4-4.6C150.7,479.4,151.1,480.2,151.5,481z" />
	<path fill="#B2B1B9" d="M138,232.9c-0.1-1.4-0.7-3,0.9-4.1C138.6,230.2,138.3,231.6,138,232.9z" />
	<path fill="#916F61" d="M98.6,525.9c-0.7,0.9-1.4,1.9-2.2,2.9c-0.1,4.4,0.7,9.2-3.5,12.7c0.8,0.8,1.5,1.5,2.2,2.1   c-2.9,0.1-5.8,0.1-8.7,0.2c2.8-6.8,7-12.9,8.7-20.1C96.5,524.2,96.4,527,98.6,525.9z" />
	<path fill="#8A6A5E" d="M95,489.7c-4.2-0.1-8.3-0.2-12.5-0.3c0-0.7,0-1.4-0.1-2.1c4.3-1.4,7.4-3.8,12.3-2.3   C94.9,486.5,95,488.1,95,489.7z" />
	<path fill="#312723" d="M98.6,525.9c-2.2,1.1-2.1-1.7-3.4-2.1c0.2-2.6-0.9-5.6,1.1-7.7c0.4,0,1.1,0.2,1.2,0c0.5-1.1,1.4-1.2,2.4-1   C99.4,518.7,98.6,522.3,98.6,525.9z" />
	<path fill="#75675B" d="M87.5,482.1c1.9-2.7,4.7-2.4,7.5-2.5l0,0c0.1,0.8,0.1,1.6,0.2,2.5C92.6,482.1,90,482.1,87.5,482.1z" />
	<path fill="#030202" d="M117.7,383.8c-0.2-2.5-0.5-5.3,1.1-7.5c0.1,2.5,0.2,5,0.2,7.5C118.6,383.8,118.2,383.8,117.7,383.8z" />
	<path fill="#664F45" d="M82.5,487.3c0,0.7,0,1.4,0.1,2.1c-2.3,0.1-2.3,0.1-2.6-2.2C80.8,487.3,81.7,487.3,82.5,487.3z" />
	<path fill="#39201E" d="M95.1,482.1c-0.1-0.8-0.1-1.6-0.2-2.5C96.5,480.7,96.5,480.7,95.1,482.1z" />
	<path fill="#79675C" d="M85.1,483.3c0.4-1.3,1.5-1.1,2.4-1.2C87.2,483.5,86.1,483.3,85.1,483.3z" />
	<path fill="#B28C7D" d="M197.2,171.9c-0.6-0.5-1.2-1.1-2-1.7c2-8.5,10.7-12.5,13.7-20.4c1.5-6.9,2.9-13.6,5.3-20.6   c3.4,1.8,6.5,3.4,9.4,5c1.8-0.4,3.4-0.8,5-1.1c-3.4,17.1,1.8,36,8.6,51.9c0.9,3.7,9.8,15.5,7.8,17.4   C231.3,188.6,215.6,178.1,197.2,171.9z M213.3,171c-0.4-5.1-0.6-5.4-3.6-5.9C209.9,167.3,211.1,168.9,213.3,171z M215.7,178   c0.7-2.1,0.1-3.4-1.7-4.3C212.7,175.8,213.7,176.9,215.7,178z" />
	<path fill="#A9ADB3" d="M236.2,198.6c-0.5,0.5-0.9,0.9-1.4,1.4c-2.9-2.5-5.9-5.1-8.8-7.6c0.5-0.5,0.9-0.9,1.4-1.4   C230.9,192.9,233.9,195.3,236.2,198.6z" />
	<path fill="#8B6F62" d="M294.2,160.6c0-4.2-4-3.9-6.2-6.3c2,0,4.1,0,6,0C297.6,157.8,297.6,158.2,294.2,160.6z" />
	<path fill="#412B27" d="M291.7,138c-1.2-0.6-2.5-1.2-3.5-1.8c-0.4-4.8-0.4-4.8,2.6-7c1.1,1.9-1.4,3.2-0.6,5.4   c0.7,0.3,1.8,0.7,2.9,1.2C292.6,136.5,292.2,137.3,291.7,138z" />
	<path fill="#775C51" d="M294.1,149.4c1,0,1.9,0.1,2.9,0.1c0.9,2.5-3.5,3.4-4.1,1.1l0,0.1C293.3,150.3,293.8,149.8,294.1,149.4   L294.1,149.4z" />
	<path fill="#D4D2DC" d="M198.8,177c-1.5,0.1-3.1,0.8-4.2-1C196.2,175.8,197.6,175.8,198.8,177z" />
	<path fill="#53423C" d="M295.9,137.2c0.5,0,0.9,0,1.4,0.1c0.1,0.7-0.9,0.3-1.4,0.4C295.9,137.5,295.9,137.4,295.9,137.2z" />
	<path fill="#B2B1B9" d="M135.6,232.6c1.3,0.9,1.3,1.7-0.1,2.5C135.5,234.3,135.6,233.4,135.6,232.6z" />
	<path fill="#B2B1B9" d="M136.4,228.4c0.2,1.1,0.4,2.2-0.9,2.9C135.9,230.4,136.2,229.4,136.4,228.4z" />
	<path fill="#B2B1B9" d="M137.7,225.8c-0.3,0.6-0.6,1.2-1,1.7C137,227,137.3,226.4,137.7,225.8z" />
	<path fill="#544492" d="M369.9,312.1c3.9,0.4,8.1,13.9,11.2,17.6c-2-0.2-3.7,0.1-4.8,2.1c-5.8,10.8-12.3,21.2-16.9,32.5   c-7.7,14.5-17.4,28-20.6,44.5c2.2,0.1,4,0.2,5.9,0.3c-4.4,3.5-14.7-3.1-17.7,1.7c5.6,1.6,11.1,0.3,16.4,0.9c-2.2,1.7-5.1,0.9-7.6,1   c-0.9,0.9-1.6,1.5-2.5,2.3c-2.7-1-4.7-4.2-7.6-1.3c-0.5,0.1-0.9,0.2-1.4,0.3l0.1,0.1c0.3-6.2-11.4-19.1-17.7-19l0.1,0.1   c0-1,0-2,1.3-2.4c4.4-1.6,5.7-6.9,8.7-10.2c7.6-12.2,15.2-24.4,22.8-36.5C349.6,334.6,359.7,323.3,369.9,312.1z M329.1,399.9   c0.5-3.4-8.4-7-11-9.6c-0.5-0.3-1.4,0.1-3.4,0.2C320.2,394.1,324,397.7,329.1,399.9z" />
	<path fill="#967264" d="M382.5,325.9c-2.5-5.7-9.7-10.9-8.5-17.5c15.8-13.6,31.4-27.5,46.8-41.5c0.8,0.6,1.5,1.1,2.5,1.8   c2.3-1.3,4.7-2.7,8-4.6c-3.2-1.5-3.7-0.9-6.8-0.2c3.8-5.5,8.3-8.6,14.9-7.3c-1.1,1.5-2.1,2.9-3.2,4.4c3.9,1.9,8.6-1.3,11.9,2.6   c-2.3,7.4-17,5.9-23.4,8.2C402.9,281.4,395.3,307.6,382.5,325.9z M432.7,263c1.9,1.3,2.8,1.7,3.8,0C435.3,263,434.5,263,432.7,263z   " />
	<path fill="#9BA1A2" d="M784.6,517.4c1.6-0.4,3.2-0.8,5-1.3c11.9,8.3,27.3,6.3,34.7,21c1.5,0.5,3.1,1,4.7,1.5   c6.4-7.4,11.9-16,18.4-23.4c11.7-13.5,3.7-26,11.7-33.9c7.2-7.8,20.1-21.2,21.1-31.6c1.8-9.4,5.6-18.2,5.3-28   c-0.1-3.7-0.9-7.5,0.9-11.1c0.3-0.5,0.2-1.3,0-1.8c-1.9-4.4-0.7-9.1-1-13.6c14,30.3,6.1,70.7-19.9,92.1c-6.8,6-3.6,15.5-7.7,22.6   c-10.9,12.5-15.7,36.4-36.4,33.8c-7.1-6.6-13.8-14.8-23-18.7C793.8,522.6,788.7,520.9,784.6,517.4z" />
	<path fill="#50428D" d="M305.8,407.7c0-0.8-0.1-1.7-0.1-2.5c3-2.9-1.6-7.3,1.2-10l-0.1-0.1c3.8,4.3,9.4,6.9,11.6,12.5   c-1.9,0-3.8-0.2-5.2,1.3c-1.7-0.8-3.3-1.6-5-2.4C307.4,406.9,306.6,407.3,305.8,407.7z" />
	<path fill="#352734" d="M311.8,390.1c-0.3,0.4-0.7,0.9-1,1.3C311.1,391,311.4,390.5,311.8,390.1z" />
	<path fill="#977062" d="M38.3,579.2c0.4-0.4,0.9-1.2,1.3-1.2c9.2-1.5,17.5-6.1,27-6.6c9.2-0.2,17.3-4,24.3-9.8c1.8,0,3.7,0,5.6,0   c-1,2-1.9,4-2.9,6c-8.7,2.8-17.4,5.5-26.4,7.1c-5.6,1-11.3,0-16.6,2.7C46.7,579,42.5,579.4,38.3,579.2z" />
	<path fill="#AB8779" d="M17.8,580c-2.9,0.5-6.2,0.8-9.1,0.3c-1.2-1.7,0-2.5,0.8-3.5c3.6-1,7.3-1.5,10.8-2.8   c1.1,0.2,2.2,0.3,2.8-1.1c8.3-4.7,16.9-9.4,26.6-9.5c-6.8,7.2-17.7,10.8-27.3,12.1C19.1,575.6,18.9,575.9,17.8,580z" />
	<path fill="#93786B" d="M15.7,574c-2.3,0-4.5,0-7.6,0c2.3-3.1,21.4-11.3,24.9-9.7C27.6,569.3,20.7,569.5,15.7,574L15.7,574z" />
	<path fill="#402F2A" d="M93.6,567.6c2.8-5.1,4.2-12,11.6-12c-0.5,0.9-0.7,1.6-1.1,1.9c-7.6,3.4-2.6,9.5-9.2,11.3   C94.5,568.4,94,568,93.6,567.6z" />
	<path fill="#93786B" d="M23.2,572.8c-0.5,1.4-1.6,1.3-2.8,1.1C21.3,573.6,22.3,573.2,23.2,572.8z" />
	<path fill="#93786B" d="M17.4,575c-0.6,0.1-1.2,0.2-1.8,0.4c0-0.4,0-0.9,0.1-1.3l-0.1,0.1C16.2,574.4,16.8,574.7,17.4,575z" />
	<path fill="#956E60" d="M86.2,580.4c11.1-3.8,15.9-15.1,28.9-13.9c-0.8,2.2-1.7,4.2-4.5,5.1c-0.8-0.7-1.6-1.5-2.5-2.4   c-3.7,3-5.4,7.9-10.1,9.9C94.2,580.3,88.4,585.6,86.2,580.4z" />
	<path fill="#544492" d="M342.1,498.5c-0.8,0-1.7,0-2.3,0c-4.2,4.6-4.2,4.6-10.6,1.9c-4.3,1.4-15.3-2-19-5.1   c-0.5-0.5-1.6-0.3-2.3-0.5c-4.9,0.1-4.6,6.1-9,7.5c-2.2-0.8-4.9-0.9-6.9-3c2.9-3.3,5.7-6.4,8.4-9.5c0-0.4,0-0.9,0-1.3   c12.3,5,25.7,8.9,39,8.8C340.6,497.2,341.6,497.4,342.1,498.5z" />
	<path fill="#544492" d="M318.1,450.3c-0.8-6.2,2.4-10.2,7.7-12.1c5.8-1.9,18.5-5.8,22.8-0.2c-2.5,3.7-7.4,4.2-11,6.4   c-5.8,2-10.7,7.4-16.9,7.4c2.7-3.6,18.6-8.4,16.9-11.3C330.7,443.5,324.3,446.7,318.1,450.3z" />
	<path fill="#534490" d="M313.2,420.3c3.3-0.2,6.3,0.1,7.3,4c-0.8-0.1-1.6-0.2-2.3-0.3c-5.3,6.7-6.1,8.4-5.1,11.4   c1.8-2.2,3.4-4.2,5-6.2c-2.6,10.1-6.2,16.2-16.9,23.4c-0.7-0.3-1.5-0.6-2.2-0.9c4.3-9,11.7-17.4,11.5-27.6   C311.5,422.9,312.3,421.6,313.2,420.3z" />
	<path fill="#544492" d="M382.5,499.7c-3.7,0-7.5,0-11.1,0c-7.8,5-8.1,5-15.1,0.1c-3.8,1.7-7.6,2.4-12,2.5c-0.8-1.4-1.4-2.7-2.1-3.9   c12.5,1.3,20.4-9.3,32-11.6c-3.9,4.5-7.1,7.9-11.1,10.3C362.9,500.8,381.1,496.2,382.5,499.7z" />
	<path fill="#554491" d="M421.6,435.4c-3,0-5.9,0-8.9,0c2.5-8.3,0-19.5,5.9-26.2c1.8,0.3,1.6,1.6,1.8,2.5   C424,421.8,422.3,425.6,421.6,435.4z" />
	<path fill="#201924" d="M270.2,466.8c-0.4-0.4-0.9-0.8-1.3-1.2c16.6-12.6,26.8-31.8,35.5-50.3c0.4,0.5,0.8,0.9,1.2,1.4   c-2,9.9-9,18.9-14.1,27.6c1.9,1.9,3.5,3.5,5.1,5l0.1-0.1c-2.1-0.7-4.2-1.5-6.5-2.3c-1.6,0.5-2.3,1.8-2.4,3.6l0,0   c-3,1.5-3.9,4.7-5.8,7C279.2,461.8,273.9,463.1,270.2,466.8z" />
	<path fill="#29213F" d="M310.5,427.9c-4.1,13.1-11.8,26.3-22.6,35.4c-0.9-0.6-1.6-1-2.4-1.6c0.3-2.3,0.3-4.6,2.4-6.2l-0.1,0.1   c1,0.6,2.1,1.2,3.3,2c2.4-2.4,4.8-4.8,5.5-8.4l-0.1,0.1c2.2-3.6,6.1-6.5,5.9-10.9c2-2,3.5-2.4,1.7-5.5l-0.1,0.1   c0.7-0.2,1.5-0.3,2.5-0.6c-0.2-2-0.3-3.7-0.4-4.9c0.8-1.3,1.3-2.3,1.9-3.3c0.7-0.1,1.6,0,2.3-0.1c0,0.4,0,0.8-0.1,1.2   C309.1,426.2,309.1,427,310.5,427.9z" />
	<path fill="#26203E" d="M383.8,421.6c0.4,4.4,1.5,8.5,0.7,13c-5.4-17.1-7.7-35.7-6.3-53.8C381,394.2,380.3,408.2,383.8,421.6z" />
	<path fill="#1E192E" d="M391.4,390.2c2.2-1.3,0.3-4,2.1-6c0.9,13.9-0.2,27.4-1,41.2c-0.3,0.2-0.6,0.3-1.2,0.6   C391.4,414,391.4,402.1,391.4,390.2z" />
	<path fill="#261C37" d="M318.1,450.3c6.2-3.6,12.6-6.8,19.3-9.8c0.6,1.7-0.6,2-1.3,2.4c-11.1,5.3-21,12.3-32.1,17.7   C303,456.7,315.2,452.8,318.1,450.3z" />
	<path fill="#554592" d="M378.7,409c2.1,5.8,1.6,12.3,3.6,18.2c0,1.8,1,4.8-1.2,5.7c-0.9-0.4-1.8-0.8-2.7-1.1   C380.8,428.1,374.2,412.8,378.7,409z" />
	<path fill="#322544" d="M340.1,422.1c6.5-3.2,27,7.4,29.2,13.2c-4.5-1.1-8.2-4.7-12.1-7.1C352,424,345.8,424,340.1,422.1z" />
	<path fill="#130E1D" d="M318.4,407.6c-2.2-5.7-7.8-8.2-11.6-12.5c6.3-0.2,18,12.8,17.7,19C322.3,412.1,320.3,409.9,318.4,407.6z" />
	<path fill="#352A4D" d="M369.2,439.4c-8.6,3.3-17.3,5.5-26.1,7c-1-1.1-0.5-1.8,0.3-2C352,442.9,360.5,439.1,369.2,439.4z" />
	<path fill="#292341" d="M412.5,408c-0.5,4.4-1.3,22.1-4.9,23.5C408.5,423,409.1,408.6,412.5,408z" />
	<path fill="#34284A" d="M347.2,410.3c7,3,13.5,7.5,17.4,14.2c-1.2,1.1-2,0.5-2.4-0.1c-4.1-6.1-10-9.7-16.4-12.7   C346.3,411.2,346.7,410.7,347.2,410.3z" />
	<path fill="#0D0A13" d="M324.4,414c0.5-0.1,0.9-0.2,1.4-0.3c4.2,2.2,5.7,12.1,1.8,15.2C326.3,423.6,326.8,419.3,324.4,414z" />
	<path fill="#271A35" d="M347.2,410.3c-0.5,0.4-0.9,0.9-1.4,1.3c-6.2-0.2-12.2,0.7-18.7-0.8c3-4.8,13.3,1.8,17.7-1.7   C345.6,409.5,346.4,409.9,347.2,410.3z" />
	<path fill="#140F1C" d="M310.6,424.1c-0.3,0-0.9,0-1.2,0c0.5-1.6,1-3.3,1.5-4.9c1.5-0.9,0.9-2.5,1.1-3.8c4.2-3.5-4-5.1-3.8-8.9   c2.8,1.4,5.4,2.1,7,5.1C314.1,415.9,313.7,420.7,310.6,424.1z" />
	<path fill="#1C1426" d="M378.5,431.8c0.9,0.4,1.8,0.8,2.7,1.1c0.3,0.7,0.6,1.4,1,2.2c-4.9,1-9.4-2.4-12.4-6.6   c2.4-0.8,3.4,1.1,4.8,1.6C375.8,430.8,377.2,431.3,378.5,431.8z" />
	<path fill="#120F1F" d="M318.2,429.2c-1.6,2-3.3,4-5,6.2c-1.1-2.9-0.3-4.7,5.1-11.4c0.7,0.1,1.5,0.2,2.3,0.3c0,0.3,0,0.5,0,0.8   C319.7,426.5,319,427.9,318.2,429.2z" />
	<path fill="#2D2341" d="M280.4,473.2c-0.5-0.5-0.9-0.9-1.4-1.4c1.3-3.2,4.5-4,7.2-5.7C285.3,469.5,285.3,469.5,280.4,473.2z" />
	<path fill="#2D2341" d="M280.3,469.5c-3,0-2.8-3.1-5.2-4.7C278.8,465.5,278.8,465.5,280.3,469.5L280.3,469.5z" />
	<path fill="#483C6E" d="M287.9,450.5c2.3,0,3.7,1.2,4.8,3.7C289.9,454,288.8,452.3,287.9,450.5L287.9,450.5z" />
	<path fill="#544492" d="M318.2,473.3c0.7-1.4,1.7-1.6,3.6-0.5C320.2,473,319.2,473.1,318.2,473.3L318.2,473.3z" />
	<path fill="#29213F" d="M288,455.6c-0.3-0.2-0.6-0.3-0.9-0.5C287.9,454.4,287.7,455.3,288,455.6L288,455.6z" />
	<path fill="#534490" d="M319.6,426.7c0.3-0.5,0.6-1,0.9-1.5C320.3,425.7,320,426.2,319.6,426.7z" />
	<path fill="#977264" d="M548.8,461.8c4.5,3.6,13.9-1.7,15.3,6.4c-1.4,1.5-0.6,4.2-2.6,5.1c-1.1-3.1-2.1-3.1-4.5-0.3   c0.3,0.5,0.7,1,1,1.5c-6.1,1.2-12,4.3-18.2,1.9c-6.8-0.7-13-0.9-17.1-7.6c-1.6-7.6,5.2-8.7,10.9-9.2c4.2-1.3,8.6,3.1,12.5,1.1   C546.7,462.8,546.7,462.8,548.8,461.8z" />
	<path fill="#977264" d="M608,492.2c-2.9-2.4-5.4-1.1-7.7,1c0-0.6-0.1-1.2-0.1-1.8c-7.1-0.9-10.6-0.4-17,2.6c0,0.6,0,1.2,0,1.8   c-1.3-1.5-2.7-3-3.9-4.4c2.4-9.1,14.6-5.2,21.6-6.8c8.2-0.1,14.5-0.8,23,1.3c-3.2,2.3-5.2,1.7-7,4c-2.8-0.2-5.7-0.9-8.4,0.4   C608.3,491,608.1,491.6,608,492.2z" />
	<path fill="#1C110F" d="M583.1,495.8c0-0.6,0-1.2,0-1.8c6.4-3,9.9-3.5,17-2.6c0,0.6,0.1,1.2,0.1,1.8   C594.6,494.1,588.8,494.9,583.1,495.8z" />
	<path fill="#221A17" d="M633.1,489.9c-1.8,3.5-5.3,2.4-7.8,3.2c-1.8,0.6-4.2,0.9-5.5-1.7C624,489.8,628.2,488.7,633.1,489.9z" />
	<path fill="#020101" d="M495.8,456.3c4-3.2,10.3,0.7,14.3,4.5C504.7,459.6,500.4,458.7,495.8,456.3z" />
	<path fill="#1F1A17" d="M578.5,464.8c-4.5,1.3-7.8,2.3-11.2,3.3c-0.4-0.8-0.6-1.3-0.9-1.8C570.5,462.9,573.6,462.3,578.5,464.8z" />
	<path fill="#2A1412" d="M645.8,493c-3.5,1.1-6.4,0.5-10,0.3c0.6-1,0.9-2.1,1.2-2.1C640.2,491.4,643.4,490.1,645.8,493z" />
	<path fill="#291C19" d="M608,492.2c0.1-0.6,0.2-1.2,0.4-2c2.7-1.2,5.6-0.6,8.4-0.4c-0.1,0.6-0.2,1.2-0.4,1.9   C613.7,492.6,610.8,492.1,608,492.2z" />
	<path fill="#431A17" d="M487.4,453.3c2.2,0,4,0,6.6,0C491.9,456.1,489.7,456.5,487.4,453.3z" />
	<path fill="#4E3933" d="M548.8,461.8c-3.2,2.4-3.1-2.6-1.8-4.4C549.3,458.2,548.8,460.1,548.8,461.8z" />
	<path fill="#371F1B" d="M557.9,474.3c-0.3-0.5-0.7-1-1-1.5c2.4-2.8,3.4-2.7,4.5,0.3c0,0,0,0,0,0   C560.3,473.6,559.2,474.5,557.9,474.3z" />
	<path fill="#513E38" d="M659.1,495.1c1.8-0.6,3.5-1.3,4.4,1.3C661.4,497.7,660.1,497.2,659.1,495.1z" />
	<path fill="#461C19" d="M651.7,493.4c1.3,0.1,2.7,0.3,3.9,0.4c0.4,3.2-2.7,1.3-4.1,0.7C651.6,494.2,651.7,493.8,651.7,493.4z" />
	<path fill="#6B544B" d="M516.1,465.7c1.5,0,2.8,0.3,3.2,2.2C517.1,468.7,516.1,467.9,516.1,465.7L516.1,465.7z" />
	<path fill="#6B544B" d="M516.1,465.7c-1.8-0.1-3.4,0.3-3.5-2.2C514.9,463.2,515.6,464.3,516.1,465.7L516.1,465.7z" />
	<path fill="#57433C" d="M562.8,470.8c0.4-0.9,0.8-1.7,1.3-2.6c0.3,0.6,0.7,1.3,1,1.9C564.3,470.3,563.5,470.5,562.8,470.8z" />
	<path fill="#977264" d="M558.8,474.4c0.9-0.4,1.8-0.8,2.6-1.2C561,474.7,559.9,474.6,558.8,474.4z" />
	<path fill="#17100E" d="M505.8,333.6c-16.4-12.1-18.4-13.8-21.5-18.5c9.7,3.5,15.6,10.6,22.9,17.2   C506.8,332.7,506.3,333.1,505.8,333.6z" />
	<path fill="#2E2420" d="M453.6,280.5c4.5,1.6,0.3,13.4-3.7,13.4c-0.5-2.6,1.8-4.4,2.3-6.7C452.6,285.1,453.1,282.9,453.6,280.5z" />
	<path fill="#1E1614" d="M512.2,339.7c6.1,4.4,7,5.7,6.3,8.1C515.3,345.4,514.4,344.3,512.2,339.7z" />
	<path fill="#4A342E" d="M578,453c-0.8-0.8-1.7-1.6-2.5-2.4c1.5-2,5.3,0.1,7.3,1.7C581,453.7,579.5,453.1,578,453z" />
	<path fill="#4D3B35" d="M526.6,359.8c-4.3-1.2-4.5-1.7-3.2-4.6C525.5,355.7,525.1,357.5,526.6,359.8z" />
	<path fill="#422F2A" d="M574,445.4c-1.6,0.7-6.4-1-3.6-2.7C571.6,443.6,572.8,444.5,574,445.4z" />
	<path fill="#6E544B" d="M462,313.2c-0.4,0-0.8,0-1.2,0.1c-0.2-1.5,0.1-2.7,2.1-3.4c0.1,1.2,0.2,2.2,0.3,3.3   C462.7,313.2,462.3,313.3,462,313.2z" />
	<path fill="#41342F" d="M505.8,333.6c0.5-0.4,0.9-0.9,1.4-1.3c1.3,1.1,1.9,1.7,2.5,3.5C507.6,336.1,506.7,334.9,505.8,333.6z" />
	<path fill="#4D3C36" d="M447.2,301.5c-0.7,1-1.3,1.7-2,2.6C444.5,301.6,444.5,301.5,447.2,301.5z" />
	<path fill="#765A51" d="M561.6,433c1,2.2,1.4,4.1-1.1,2.9C560.7,435.4,560.9,434.9,561.6,433z" />
	<path fill="#6A574E" d="M526.7,369.8c-0.4-0.8-0.7-1.4-1.1-2C527.1,367,528,368.4,526.7,369.8z" />
	<path fill="#967264" d="M383.8,328.2c-0.5-0.8-0.9-1.6-1.4-2.3C383.7,326.2,383.8,327.2,383.8,328.2z" />
	<path fill="#40322E" d="M442.5,307.3c0.4,0.7,0.5,1.2-0.3,1.6C441.8,308.3,441.7,307.8,442.5,307.3z" />
	<path fill="#5F4740" d="M526.1,363.9c-0.2,0.1-0.5,0.3-0.7,0.4c-0.1-0.6-0.4-1.1,0.3-1.4C525.8,363.2,525.9,363.6,526.1,363.9z" />
	<path fill="#30254E" d="M415.3,506c6.3-0.6,12.5-1.7,19-1.2c0,0.3,0,0.6,0,1c-23.9,3.2-47.9,8.1-71.8,3c-4.6-0.9-9.7,0.6-14.3-1.3   c-1.3-0.5-2.9-0.2-4.4-0.2c-11.6-0.7-23.7,1.4-35.1-1C343.9,500.6,380.6,514.6,415.3,506z" />
	<path fill="#1D162D" d="M300.5,489.7c-2.7,3.1-5.5,6.2-8.4,9.5c1.9,2.1,4.7,2.2,6.9,3c4.4-1.4,4.1-7.4,9-7.5c-1,6.6-7.9,5.8-2.4,10   c-5.4,0.6-10.2-1.4-15.4-3.7c-2.5,2.3-5.2,4.6-8.1,7.2c-0.7-3.1,6.1-8.2,8.4-10.7C294,495.5,296.1,489.8,300.5,489.7z" />
	<path fill="#221730" d="M305,526.7c-8.6,5.9-17.6,11.1-28.9,8.9C286.6,535.4,295.5,530.4,305,526.7z" />
	<path fill="#231934" d="M308.2,534.7c3.6-3.1,9.8-6.2,15.3-7.6C318.9,531.1,313.9,534.8,308.2,534.7z" />
	<path fill="#1F152E" d="M404.9,538.8c1-3.2,1.6-3.5,12-7.2C419.5,534.4,406.9,537.2,404.9,538.8z" />
	<path fill="#30244E" d="M390.6,539.6c3.2-2.3,6.9-2,10.4-2.6C398.9,539.8,396.6,540.3,390.6,539.6z" />
	<path fill="#231B3B" d="M272.7,487.2c0.5,0,1-0.1,1.5-0.1c2.7,2.3,6,3.9,7.9,7.1C278.3,492.8,275,490.7,272.7,487.2z" />
	<path fill="#30254E" d="M305.5,504.7c-0.9-1.4-3.8-2.3-1.3-3.7c1.8,1.8,4.5,1.3,6.7,1.4c1.1,2.4-0.5,2.2-1.7,2.3   c-0.8-1.5-1.6-1.5-2.5,0C306.4,504.7,306,504.7,305.5,504.7z" />
	<path fill="#2C224A" d="M375.5,540.3c2.1-0.1,6.4-3.3,6.7,0.4c-2.1,0.8-4.3,0.9-6.5,1.3C375.7,541.5,375.6,540.9,375.5,540.3z" />
	<path fill="#150912" d="M434.3,505.9c0-0.3-0.1-0.6,0-1c3.2-0.5,6.7,0.6,9.7-1.2c0,0.6,0,1.2,0,2   C440.7,506.5,437.5,506.2,434.3,505.9z" />
	<path fill="#352855" d="M365.3,541.9c0.3-1.3,1.6-1.2,2.6-1.3C369,542.2,366.2,543.4,365.3,541.9z" />
	<path fill="#1D162D" d="M306.9,504.7c0.8-1.5,1.6-1.5,2.5,0C308.5,504.7,307.7,504.7,306.9,504.7z" />
	<path fill="#231B3B" d="M266.5,484.6c0.7-1.4,1.6-1.6,2.5-0.2C268.2,484.5,267.3,484.5,266.5,484.6z" />
	<path fill="#0C0706" d="M778,502.4c-2.7,4.3-9.8,2.2-14.2,3.5c-1.4,0.1-1.4,0.1-5.6-2.2C765,503.2,771.2,501.8,778,502.4z" />
	<path fill="#1E1714" d="M745.8,505.1c2.5-2.1,5.1-1.8,8.3-1.3C751.5,507.5,748.4,505.4,745.8,505.1z" />
	<path fill="#301714" d="M742.5,505.7c-2,0.4-3.4,0.6-5.5-0.1C739.1,504.1,740.7,504.7,742.5,505.7z" />
	<path fill="#321E1A" d="M516.1,407.7c-4.1,0.7-6.9-2.8-9.9-4.9C510.4,402.6,513.2,405.2,516.1,407.7z" />
	<path fill="#57443C" d="M519.5,405.6c0.6,0.7,1.2,1.4,2.1,2.4C519.6,407.8,519.6,407.8,519.5,405.6z" />
	<ellipse fill="#251412" cx="525" cy="407.1" rx="1.3" ry="0.4" />
	<path fill="#1C1411" d="M486.8,500.7c-2.9,2.2-5.8,3.6-9.8,2C478.7,498.7,483.3,499.1,486.8,500.7z" />
	<path fill="#261E1A" d="M489.5,497.5c1.7-2,3.1-2.1,4.7-1.2C493.4,498.7,493.4,498.7,489.5,497.5z" />
	<path fill="#3D312B" d="M498.5,496.1c-1.6-1.8-0.9-3.2,1-1.7C499.3,494.9,499,495.3,498.5,496.1z" />
	<path fill="#0A0707" d="M294.2,149.4c-0.4,0.4-0.9,0.9-1.3,1.3C292.9,149.8,293.3,149.3,294.2,149.4z" />
	<path fill="#221916" d="M242.2,177.8c-2.3-1.4-2.5-3.3-1.7-5.8C243.4,173.5,242.4,175.8,242.2,177.8z" />
	<path fill="#372520" d="M241.8,180.2c1.1,2,1.6,2.8,2.1,3.7C241.5,184.4,241.5,184.4,241.8,180.2z" />
	<path fill="#301B17" d="M243.7,187.1c-0.1,0.3-0.2,0.6-0.4,0.9c-0.8-0.4-0.7-0.9-0.3-1.5C243.3,186.7,243.5,186.9,243.7,187.1z" />
	<path fill="#201A16" d="M202.5,136.4c0-1,0-2,0-3c0.2,0,0.5,0,0.7,0c0,1,0,2,0,3C203,136.4,202.7,136.4,202.5,136.4z" />
	<path fill="#9D7E70" d="M223.5,115.5c-0.7,0.4-1.5,0.8-2.2,1.3c0.1-5.3-1.1-9.8,1.8-15c4.9-0.7,7.8,2.3,10.7,6.1   c-1.2,1.7-2.4,3.4-3.7,5.2c1,2.3,2.1,4.7,3.2,7.2c-1,0.1-1.5,0.2-2.4,0.3c-0.8-3.3-2.4-4.8-5.5-6.4c0.4-1.6,0.4-3,0.4-4.9   c1.5-0.6,3.2-1.3,5-2c-2-2.7-6.2-0.8-7.9,1.2C223.1,111,223.3,113.2,223.5,115.5z" />
	<path fill="#D4D1DA" d="M301.9,420.4c-1.1,3.6-2.8,7-5.2,10c-0.1-0.4-0.1-0.8-0.2-1.4c-8.3-4.8-14.7-12.7-22.5-18.5   c1.2-0.4,2.8,0.7,3.6-1c-2.5-2-2.5-2-6-1.4c-0.4-1.4-1.5-1.5-2.7-1.5c0.4-2.1-0.9-2.6-2.6-2.7c-1.2-2.6-3-5-3.7-8.2   c3.6-1.1,6.4,1.5,8.7,3.9C281,407,294.6,409.9,301.9,420.4z M281.8,413.4c2.9,1.5,5.3,2.4,7.2,3.8c2.8,1.3,4.3,6.2,7.8,5.1   C294.9,417.4,287.3,409.8,281.8,413.4z" />
	<path fill="#D1D0DA" d="M221.2,327.1c1.5,1,3.1,1.5,4.9,1.2c1.3,2.7,3.1,1.3,5,0.9c-0.1-0.8-0.1-1.4-0.2-2c2.2,0.3,2.1,2.8,3.7,3.9   c1.5,1,2.6,2.6,3.8,4c-6.9,5.3-15.2-1.6-19.9-6.7l0.2-0.2C219.8,328.4,221,329,221.2,327.1z" />
	<path fill="#2E2A2B" d="M226.1,192.4c6.7,5.1,12.6,11.1,13.5,19.8c0.1,1.1-0.1,2.1-1.7,2.4c-2.3-11-8.4-18.8-19.2-22.5   c0.9-0.4,1.8-0.8,2.7-1.3C223,191.3,224.5,191.8,226.1,192.4z" />
	<path fill="#262122" d="M277.7,296.8c-0.5,6.6-1.4,19.8-10.9,17.7c7-4.7,8.5-11.6,9.6-19.3C276.8,295.8,277.2,296.3,277.7,296.8z" />
	<path fill="#362E4D" d="M312,415.4c-0.2,1.3,0.4,2.9-1.1,3.8c0-3-2.9-2.7-5.2-2.5c-0.4-0.5-0.8-0.9-1.2-1.4   c0.6-2.5-0.1-5.3,1.3-7.6c0.8-0.4,1.6-0.8,2.4-1.1C307.9,410.3,316.1,411.8,312,415.4c-1.1-1.7-2.7-2.1-4.5-2.3   c-0.1,0.7-0.1,1.1-0.2,1.8C308.8,415.1,310.4,415.2,312,415.4z" />
	<path fill="#3A3335" d="M208.7,268.1c3-1.6,8.1-7.9,10.9-7.3c-1.9,4.2-6,8-10.5,8.6C208.9,269,208.8,268.5,208.7,268.1z" />
	<path fill="#342425" d="M227.4,349.8c-2.4-0.1-5,1-7.7-0.6c2.6-2.5,6.5-1.9,9.6-2.8c1.6,2-0.7,2.1-1.1,3.1   C227.9,349.4,227.6,349.5,227.4,349.8z" />
	<path fill="#565153" d="M275.1,382.2c5.3-4.7,7.5-5.6,10.7-4.4C282.2,379.8,279,381.8,275.1,382.2z" />
	<path fill="#615D5F" d="M273.4,274.7c2.8,3.5,3.3,5,3,10.2C274.2,281.5,273.1,277.9,273.4,274.7z" />
	<path fill="#63585B" d="M221.4,190.8c-0.9,0.4-1.8,0.8-2.7,1.3c-2.7-0.9-5.7-0.7-8.7-3.1C214.6,187.7,217.9,189.5,221.4,190.8z" />
	<path fill="#483537" d="M240,362.6c-1.4,0.1-2.9,0.3-4.7,0.5c-0.1-0.6-0.3-1.3-0.5-2c2.8-0.5,5.6-1,8.4-1.5   c0.1,0.3,0.2,0.6,0.3,0.9C242.4,361.2,241.2,361.9,240,362.6z" />
	<path fill="#322F31" d="M238.2,221.1c2.6,0.5,1.9,2.5,1.9,3.9c0,1.2,0.2,2.6-2,2.4C237.2,225.4,237.1,223.4,238.2,221.1z" />
	<path fill="#262223" d="M199.7,273c1.3-2.1,3.4-2.7,5.6-3.2c2.4,2-4.1,5-5.7,3.1L199.7,273z" />
	<path fill="#998488" d="M271,361.8c2.4-0.9,4.6-2.7,7.7-1.4C276.3,362.4,273.9,362.9,271,361.8z" />
	<path fill="#C6BDC3" d="M278,356c-1.7,2.8-4.2,2.8-6.9,1.8C273.3,357.2,275.7,356.6,278,356z" />
	<path fill="#332C2E" d="M271.7,408c3.5-0.6,3.5-0.5,6,1.4c-0.9,1.7-2.5,0.6-3.6,1C273.3,409.6,272.5,408.8,271.7,408z" />
	<path fill="#211F1F" d="M277.7,296.8c-0.4-0.5-0.9-1.1-1.3-1.6c-0.3-2.2-0.3-4.4,0.3-7C278.1,291.5,278.1,291.5,277.7,296.8z" />
	<path fill="#594649" d="M230.9,327.3c0,0.6,0.1,1.2,0.2,2c-1.8,0.4-3.7,1.8-5-0.9c1.3-0.4,2.6-0.8,3.9-1.2   C230.2,327.3,230.5,327.3,230.9,327.3z" />
	<path fill="#767175" d="M266.5,403.8c1.7,0.1,2.9,0.6,2.6,2.7C267.1,406.7,264.4,406.6,266.5,403.8z" />
	<path fill="#8F8D91" d="M269.1,263.9c2.2,1.6,2.8,2.9,2.1,4.8C269,267.9,268.9,266.4,269.1,263.9z" />
	<path fill="#2B2527" d="M237.6,237.9c0-1.5,0-2.6,0-4C240.7,234.1,240.1,236.8,237.6,237.9z" />
	<path fill="#8F9195" d="M267.1,261c-1.4-0.4-1.2-1.6-1.3-2.8C267.4,257.2,268.6,259.9,267.1,261z" />
	<path fill="#53575A" d="M260.9,401.2c-1.1,0-2.1,0-3.1,0C258.9,398.9,258.9,398.9,260.9,401.2z" />
	<path fill="#3D2F30" d="M235,347.5c-0.7-0.2-1.5-0.3-2.5-0.5c1-0.9,1.7-1.6,2.5-2.2c1.5,0.4,1.1,1.4,0.8,2.4   C235.4,347,235.2,347.2,235,347.5z" />
	<path fill="#D5D2DC" d="M235.8,347.1c0.3-1,0.7-2-0.8-2.4C236.6,341.4,239.3,347.1,235.8,347.1z" />
	<path fill="#2F1B1B" d="M199.6,272.8c-0.1,1.7-2,1.5-3.3,2.2c-0.1-0.8-0.2-1.3-0.3-2.1c1.3,0,2.5,0,3.7,0L199.6,272.8z" />
	<path fill="#3B1718" d="M202.6,188.8c1.5,0,2.9,0,4.4,0c0,0.2,0,0.5,0,0.7c-1.5,0.1-3,0.2-4.5,0.3   C202.5,189.5,202.6,189.1,202.6,188.8z" />
	<path fill="#674547" d="M255.1,310.6c-1,0.4-1.6,0.1-2.2-0.6c0.7-0.5,1.4-0.5,2.1-0.2C255,310,255,310.3,255.1,310.6z" />
	<path fill="#A79EA3" d="M190.8,191.2c0.2,0.2,0.4,0.4,0.6,0.6c-0.5,0.2-1,0.6-1.4-0.1C190.3,191.5,190.5,191.4,190.8,191.2z" />
	<path fill="#6B6467" d="M198.3,189c-0.2,2.2-0.9,2.1-0.9,0C197.7,188.9,198,189,198.3,189z" />
	<path fill="#1C1513" d="M134,385.1c0.1-1.4,0.3-2.8,0.4-4.7c1.1-0.1,2.3-0.3,3.4-0.4c0.4,0.9,0.8,1.8,1.1,2.7   c-0.9,3.9-0.5,9.3-5.9,10C132.7,390,133.5,387.7,134,385.1z" />
	<path fill="#110D0B" d="M141.4,314.6c0.2-1.6,0.3-3.2,0.5-5c2.6,1.6,3.3,4.2,3.7,11.3C142.4,322.7,142.5,316.4,141.4,314.6z" />
	<path fill="#3B302A" d="M88.7,543.8c4.1-0.4,7.8-0.1,11.1,2.3c0.1,1.2-0.6,1.6-1.4,1.4C95.3,546.3,90.3,547,88.7,543.8z" />
	<path fill="#352A26" d="M129.7,406.3c-0.1-7.6-0.1-7.6,2.8-10.1C133.8,399.9,130.3,402.7,129.7,406.3z" />
	<path fill="#392D28" d="M114.6,537.7c1,5.6,1,5.6-1.1,8.7C112.3,543.2,112.3,540.2,114.6,537.7z" />
	<path fill="#1E1715" d="M171.1,300.9c-2.4-2-2.8-4.4-2.7-7.3C172.4,296.4,172.5,296.5,171.1,300.9z" />
	<path fill="#1F1715" d="M147.8,325.9c0-1.9,0-3.7,0-7c1.4,2.3,2.1,3.4,2.8,4.5c-0.1,1.3-0.1,2.5-0.2,3.8c-0.4-0.1-0.8,0-1.2,0.1   C148.7,326.8,148.2,326.3,147.8,325.9z" />
	<path fill="#211614" d="M169.6,302.3c2.8,2.8,2.8,3.6,0.4,6.7C169.1,306.7,169.1,304.6,169.6,302.3z" />
	<path fill="#0C0908" d="M100.1,512c-1.7-2.1-0.5-4,0.4-5.9c0.7,0.1,1.3,0.2,1.9,0.2C101.8,508.3,102.1,510.6,100.1,512z" />
	<path fill="#150E0D" d="M161.1,369c2.2,2.8,2.2,2.8,0,5.8C160.1,372.7,160.1,371,161.1,369z" />
	<path fill="#583F38" d="M109,547.3c-2.9,0.6-4.7,0.5-6-1.7C105.6,545.5,105.6,545.5,109,547.3z" />
	<path fill="#6A554C" d="M149.2,327.2c2.8-0.8,3.2,2.3,2.3,4.4C149,330.9,149.4,328.9,149.2,327.2z" />
	<path fill="#362A26" d="M148.1,342.7c0.5-1.3,1.1-2.6,1.8-4.3c1.4,2.4,1,3.8-0.5,4.9C149,343.1,148.6,342.9,148.1,342.7z" />
	<path fill="#594942" d="M128.7,413.7c-2.4-1.3-1.9-2.2,0-3.1C128.7,411.7,128.7,412.7,128.7,413.7z" />
	<path fill="#523E38" d="M168.7,284.5c1.8-0.3,1.8,0.7,2.5,1.9C170.1,287.3,168,285.8,168.7,284.5z" />
	<path fill="#312723" d="M167.1,330.8c-0.1-1.7-0.1-3-0.2-5.5C168.7,327.8,168.7,329,167.1,330.8z" />
	<path fill="#161311" d="M168.3,317.7c0-1.3,0-2.6,0-4.4C169.5,315.4,169.5,315.4,168.3,317.7z" />
	<path fill="#302522" d="M160.6,365.3c0.1-1.2,0.2-2.5,0.3-3.7c0.3,0,0.6,0,0.8,0c0.1,1.2,0.1,2.5,0.2,3.7   C161.4,365.3,161,365.3,160.6,365.3z" />
	<path fill="#977264" d="M139,382.7c-0.4-0.9-0.8-1.8-1.1-2.7C139.3,380.5,139.2,381.6,139,382.7z" />
	<path fill="#4C3732" d="M151.4,333.8c0.1,2-0.7,2-0.5,0C151.1,333.8,151.2,333.8,151.4,333.8z" />
	<path fill="#977264" d="M99.1,518.6c0.3-0.9,0.5-1.8,0.8-2.7C100.1,517,100.2,518,99.1,518.6z" />
	<path fill="#43312B" d="M105.1,487c-1.4-0.3-1.2-1.4-1.1-2.4C105.4,484.9,105.1,486,105.1,487z" />
	<path fill="#2A2728" d="M199.9,447.5c1-0.4,1.4-0.6,1.9-0.8c2.1,2.1,1.7,4.8,2.4,8.5C200.1,452.9,201.1,451.2,199.9,447.5z" />
	<path fill="#70666B" d="M213.5,346c1.5,0.1,3,0.2,5.6,0.3C217.1,349.3,214.3,349.2,213.5,346L213.5,346z" />
	<path fill="#473A3D" d="M201.8,441.1c-1.5-0.9-2.2-2.2-1.9-3.9C202.1,436.5,203.2,439.5,201.8,441.1z" />
	<path fill="#2D3B3D" d="M231.1,361.2c0.3,0.5,0.7,1,1.2,1.7c-1.2,0.9-2.2,0.6-3.5,0.3C229,361.4,230.3,361.6,231.1,361.2z" />
	<path fill="#6C686C" d="M213.6,346c-1.2-0.1-2.4-0.2-3.7-0.3c0.2-0.9,0.3-1.4,0.4-2C212.2,343.5,213,344.5,213.6,346L213.6,346z" />
	<path fill="#2E2B2D" d="M202.4,433.5c-2.7-1.3-2.7-1.3-2.2-3.3C200.8,431,201.2,431.6,202.4,433.5z" />
	<path fill="#614043" d="M221.2,327.1c-0.1,1.9-1.4,1.3-2.4,1.2C219.1,326.9,220.1,327.1,221.2,327.1z" />
	<path fill="#4E383A" d="M224.6,361.6c0,0.1,0,0.3,0,0.4c-0.3-0.1-0.6-0.1-0.9-0.2C224,361.4,224.2,361.2,224.6,361.6z" />
	<path fill="#241A17" d="M135.4,310.8c-4.8-1-4.6-8.2-2.5-12.3c1.6,0.5,1.2,1.9,1.3,3C133.8,304.7,135.4,307.7,135.4,310.8z" />
	<path fill="#342924" d="M135.4,310.8c0-0.5,0.1-1,0.1-1.5c2.4-1.3,0.2-4,1.8-5.6c3.5-0.9,1.3,7.4,1.9,9.6l0,0   C137.9,312.4,136.6,311.6,135.4,310.8z" />
	<path fill="#31231E" d="M132.6,377.9c0.7-1.3,1.4-2.6,2-3.6C138.5,373.9,136.2,379.4,132.6,377.9z" />
	<path fill="#171613" d="M133,371.7c0-1.1,0-2.2,0-3.4c0.3,0,0.5,0,0.8-0.1c0.1,1.1,0.3,2.3,0.4,3.4   C133.8,371.7,133.4,371.7,133,371.7z" />
	<path fill="#0A0908" d="M117.7,383.8c0.4,0,0.9,0,1.3,0c-0.3,0.3-0.6,0.6-0.9,1C118,384.5,117.9,384.1,117.7,383.8z" />
	<path fill="#232223" d="M142.8,249c0.3-3.8-0.3-7.8,1.2-11.5c0.3-0.2,0.6-0.4,1.2-0.9c2,3.1-1.3,6.8,1.4,9.6c0,3.1,0,6.1,0,9.2   C145.7,253.1,144.6,250.9,142.8,249z" />
	<path fill="#030303" d="M146.6,255.5c0.6-2.6-1.5-10.7,1.4-11.2c1.8,3.7,0.2,8.8,0.7,13.1C147.2,257.9,146.7,256.9,146.6,255.5z" />
	<path fill="#70686D" d="M149.3,213.7c-0.5-0.5-0.9-0.9-1.4-1.4c1.9-1.2,4.4-6.7,6.5-4.9C152.7,209.5,151,211.6,149.3,213.7z" />
	<path fill="#4A484C" d="M158,206c-0.6,0-1.2,0-1.8,0c1.2-4.3,1.2-4.3,4.3-4.8C159.7,202.8,158.9,204.4,158,206z" />
	<path fill="#2F2C2D" d="M153.8,261.7c-2.8-2-2.8-2.1-1.2-6.6C153,257.4,153.3,259.1,153.8,261.7z" />
	<path fill="#352C2E" d="M250.8,311c-3.9-0.9-5.6-2.5-7-5.1C247.4,306.6,247.4,306.6,250.8,311z" />
	<path fill="#3F3A3D" d="M226.9,269.1c-1,1.7-1.6,2.6-2.1,3.6C221.9,270.8,224.2,269.1,226.9,269.1z" />
	<path fill="#43302A" d="M140.3,484.7c0.2,1.5-0.3,2.7-1.8,3.4c-1.2-1.6,0.5-2.3,0.7-3.4C139.6,484.6,139.9,484.6,140.3,484.7z" />
	<path fill="#211936" d="M255.2,484.6c-0.4,0.7-0.9,1.4-1.3,2.1c-3.1-2-3.1-2-2.9-4.6C252.5,482.9,253.8,483.8,255.2,484.6   C255.2,484.6,255.2,484.6,255.2,484.6z" />
	<path fill="#352B5C" d="M260.1,478.3c2.5,0.9,2.8,3.2,4.2,5.6C261.3,482.4,261.3,482.4,260.1,478.3L260.1,478.3z" />
	<path fill="#2C221E" d="M213.3,171c-2.2-2.1-3.4-3.6-3.6-5.9C212.7,165.6,212.9,165.9,213.3,171z" />
	<path fill="#3A2D29" d="M215.7,178c-2-1.1-3-2.2-1.7-4.3C215.9,174.6,216.5,175.9,215.7,178z" />
	<path fill="#191125" d="M329.1,399.9c-5.1-2.2-9-5.8-14.4-9.4c2.1-0.2,3-0.5,3.4-0.2C320.7,392.8,329.7,396.6,329.1,399.9z" />
	<path fill="#19110F" d="M432.7,263c1.8,0,2.7,0,3.8,0C435.5,264.7,434.6,264.3,432.7,263z" />
	<path fill="#3A2F5A" d="M310.5,427.9c-1.4-0.9-1.4-1.7,0.1-2.6C310.6,426.2,310.5,427.1,310.5,427.9z" />
	<path fill="#3A2F5A" d="M309.4,430.5c0.4-0.5,0.7-0.9,1.1-1.4C310.2,429.6,309.8,430,309.4,430.5z" />
	<path fill="#6D5CA9" d="M308.3,424.2c-0.6,1-1.1,2-1.9,3.3c0.1,1.2,0.2,2.9,0.4,4.9c-1.1,0.2-1.8,0.4-2.5,0.6   c-0.3-0.2-0.6-0.3-0.9-0.5c0.3,0.1,0.6,0.3,0.9,0.4c1.8,3.2,0.3,3.5-1.7,5.5c0.2,4.4-3.8,7.4-5.9,10.9c-1.6-1.6-3.2-3.2-5.1-5   c4.8-7.2,9.1-14.8,12.7-22.7C307.5,421.7,307.5,421.7,308.3,424.2z" />
	<path fill="#6558A1" d="M305.7,416.7c2.7-0.5,6.1,0.2,4.9,3.6c-1.9,0.4-3.4-0.3-4.9-1.3C305.7,418.3,305.7,417.5,305.7,416.7z" />
	<path fill="#3A2F5A" d="M305.6,419c1.5,1,3.1,1.7,4.9,1.3c-0.4,1.3-0.8,2.5-1.2,3.8c-0.4,0-0.7,0-1.1,0.1c-0.8-2.5-0.8-2.5-4-2.6   C304.8,420.8,305.2,419.9,305.6,419z" />
	<path fill="#232022" d="M281.8,413.4c5.5-3.7,13.1,4,15,8.9c-3.4,1-4.9-3.8-7.8-5.1C287.1,415.8,284.7,414.9,281.8,413.4z" />
	<path fill="#564E91" d="M312,415.4c-1.6-0.2-3.1-0.3-4.7-0.5c0.1-0.7,0.1-1.1,0.2-1.8C309.3,413.3,310.9,413.7,312,415.4L312,415.4   z" />
	<path fill="#29213F" d="M304.4,432.9c-0.3-0.1-0.6-0.3-0.9-0.4C303.7,432.7,304,432.8,304.4,432.9L304.4,432.9z" />
</g>
</svg>