<?xml version='1.0' encoding='utf-8'?>
<svg xmlns="http://www.w3.org/2000/svg" version="1.2" baseProfile="tiny" id="Layer_1" x="0px" y="0px" viewBox="0 0 900 600" overflow="visible" xml:space="preserve">
<g id="a_00000116221997244060806800000008848149065666174133_">
	<path fill="#010101" d="M337.7,193.9c3.3,0.8,6.2,1.8,9.6,2.3c2.8-1.6,5.9-3.2,8.7-4.8c1.7-44.7-0.3-90,1-135c0.3,0,0.6,0,0.8,0   c0.6,44.3,0.1,88.6,0.3,132.9c1.9-0.1,2.9-1.2,4.1-2.3c-0.6-18,10.8-23.9,12.5-38.5c0.5-7.3,0.5-15.6,4.5-22c0.4,0,0.8,0.1,1.2,0.1   c-1.6,7.9-5.3,17-3.1,24.7c-0.3,0.9-0.4,1.4-0.7,2.4c6,6.7,14.4,12.3,22.7,11.8c0.4-3.9-0.4-7.9-0.4-11.8c3.2,3.2,1.9,8.6,3.1,12.7   c12.8,41.8,19,33.5,10.8,82.2c-0.9,1.1-0.9,2.4-0.8,3.8c3.2,1.9,7.8,0.2,11.5,0.9c0,0.2,0.1,0.4,0,0.6l0.1,0.2   c-4.3,0.2-8.6,0.3-13,0.5c-0.9,4.9-1.9,9.9-1.6,15.1c0.5,0.1,0.9,0.2,1.8,0.4c-8.1,32.3-11.3,66.6-10.2,100.3   c16.4,4.3,35.7,6.3,52.1,2c1.7-9.2,1.2-19.1,3.3-28c0.1,0.7,0,1.4,0.9,1.7c-0.2,23.1-7.9,45.4-4.8,68.6c0.9,8.3-3,15.5-4.5,23.2   c0.2,11.3,5.5,21.9,6.1,33.3c3.3,17.1-4.6,32.6-6.8,49.2c-0.1,10.2-1.5,20.5-1.6,30.7c1.4,0.7,2.7,1.2,3.9,1.8   c2.8,9.2,4.2,18.7,6.9,28.1c-12.3,10.3-27.5,2.2-41.1,2.6c-15.8,4.5-37.3-8-29.5-26.1c5.2-4.1,13.3-1,19.6-2.8   c6-2.4,9.3-9.9,15.8-11.7c-0.9-28.4-11-56.4-9.3-85c4.9-28.8,0.1-57.3-9-84.8c-1.5-0.2-2.8-0.4-4.2-0.6c-2.8-40,4-81.3,10.8-120.1   c4.1-25.7,9.7-50.5-6.9-74.1c-3.3,20.5-17.9,57.7-43.9,47.5c-0.6,104.3,0.1,208.6-0.1,312.9c-0.4,3.7,1.1,8.1-1.4,11.2   c-5.6,6.1-10.2,13.3-16.5,18.8c-0.4-0.4-0.7-0.7-1.1-1.1c5.6-7,11.3-13.2,17.3-20.2c-0.3-107.4,0.4-214.8-0.1-322.2   c-14.5-3.6-28.5-9.3-38.1-21.2c0.3-0.3,0.6-0.6,0.9-0.9c14.9,16.3,30.1,16.6,48.4,22.9c20.6-4.7,34.5-37.5,32.1-57.2   c-9.4-0.8-17.4-6.4-24-12.7c-8.5,11.1-10.1,23.8-13,36.8c-0.4-0.9-0.8-1.6-1.2-2.5c-10.7,6.6-14,10.1-26.3,4.1c0-0.2,0-0.5,0-0.7   C336.1,193.9,336.9,193.9,337.7,193.9z M412.7,552.3c-0.4,3.1,0.9,6.4-1.2,9.2c-0.4-0.3-0.8-0.6-1.2-0.8c-0.2-1.2,0.3-2.7-1.5-3.7   c0.7,5.9-3.4,4-2.4-0.6c-0.1,0-0.3-0.1-0.4-0.1c-0.7,1.5-1.1,4.7-3.5,3.4c-0.5-0.8-0.3-1.5-0.1-2.5c-1,0.7-1.5,0.9-2.5,1.2   c-0.5-0.6-0.9-1-1.3-1.6c-3.2,1.3-6.4,0.4-9.6,0.2c-10.2,14.4,9.6,28.6,23.7,24.2c13.4-2.1,29.6,9.7,41.3-2   c-3.9-7.8-5.2-15.7-5.6-24.2c-7-3.8-10.7,7.6-18.8,5.8c-5.2-0.4-6.2-7.8-10-10.6c1.6-1.9,1.6-1.9,1.1-4.6c-5.4,1-2.7,12-6.2,12.6   c-0.4-0.6-0.8-1.3-1.3-2c0.1-1.3,0.1-2.6,0.2-3.9c0.8-0.5,0.9-1.1,0.4-1.9C412.7,550.6,412.5,551.3,412.7,552.3z M441.8,551.3   c-5.3,2-12.3,3-17.2-0.4c-0.4,1.9,2.9,4.7,3.8,6.8c5.8,2,10.4-3.2,14.4-6.7C442.4,550.5,442.1,551.2,441.8,551.3z M411,394.7   c0,1.1-0.3,2.3,0.7,4.1c0.1-1.9,0.1-2.9,0.1-4c0.4,0,0.7,0.1,1.2,0.1c4.1,27.3,1.7,54.4,1.1,81.9c1.9,23.6,9.4,47,9.4,70.7   c3.9,3.2,8.9,3.9,13.5,3c0.6-1.5-0.4-3.2,0.7-4.8c1.9,1.2,0.5,3.3,1.6,4.8c1-0.5,2-1,2.8-1.4c-0.6-21.5,4.5-42.1,9.2-62.7   c0.4-14.6-2.8-28.8-6.4-42.8c-0.9-10,4.6-19.1,4.3-29.2c1.3-7.6-1.5-15.1-0.3-22.6c0.8-5.3,2.7-10.8,2.2-16.1   c-15.2,1.1-31,1-46.2-2.3C407,380.5,409,387.6,411,394.7z" />
	<path d="M433.5,41c-0.6-4.6,0.1-7.6,1.2-12.5c0.9-1.8,3.5-3.8,3.6-7.3c13.6-13.8,27.8-13.5,41.3,0.1c5.8,12.2,5.3,17.5,4.7,31.3   c-1-0.1-1.5,0.5-1.5,1.6c-0.9,0.5-0.7,1.5-0.9,2.3c-0.6,0.1-1.3,0.1-1.4,0.9c-1.5,2.9-4,5.7-4.8,8.8c-1.4,1-3.1,1.1-3.7,2.7   c-1,0.5-0.7,1.5-0.8,2.3c-0.9,1-1.4,1.9-1.4,3.3c-1.4-0.1-2.5-0.2-3.7-0.4c-2.1-2.8-5.5-2.4-8.1-3.5c-1.8,0.8-3.5,1.6-5.1,2.3   c0.1,0.7,0.2,1.2,0.3,1.8c-0.7,0.4-1.4,0.8-2,1.1c-0.6-0.1-1.3-0.1-1.9-0.2c-0.8-2.5-4.1-5.1-5.6-7.7c-2.3-1.9-2-5.2-4.7-6.9   c-1,0.7-1.2,1.4-1.6,2.4c-1.4-4-2.5-7.7-1.8-12c-0.7-0.5-1.4-1.2-2.2-1.8c-0.3,0-0.5,0-0.8,0.1c-0.3-0.3-0.5-0.6-0.8-0.9   c0,0,0,0,0,0c0.7,0,1.4-0.1,2.3-0.1C433.9,45.8,434.8,43.2,433.5,41z M436.9,57.5c-0.9,0.6-0.2,2.3,0.8,1.7   C437.7,58.5,437.7,57.7,436.9,57.5z M469.9,70.3c-0.9-0.6-1.1-0.7-1.4,0.2C468.8,71.2,469.2,70.7,469.9,70.3z M463.8,21.3   c0.1,0,0.2,0,0.4,0c0-0.5,0-1.1,0-1.6c-0.1,0-0.2,0-0.4,0C463.8,20.2,463.8,20.8,463.8,21.3z M450.8,70.5c-0.1,0.1-0.2,0.1-0.2,0.2   c0.1,0,0.3,0,0.4,0C451,70.6,450.9,70.6,450.8,70.5z" />
	<path fill="#010101" d="M456.6,346c-1.7-1.2-1.1-4.5-0.1-6.2c2.3-7.3-0.3-16.6,1.1-24.5c0.6-0.1,0.9-0.2,1.3-0.2   c-0.4,18.7,1.4,37.4,4.8,55.7c4.3,7.6,43.8,2.6,51.9-0.6c3.2-38.6-8.2-76-9.1-114.2c-3.3-1-5.9-2.3-9-2.8c-0.6-0.7-1.1-0.8-1.7,0   c-0.2,0-0.4,0-0.6,0c-0.6-0.8-1.1-0.9-1.7,0c-0.4,0-0.8,0-1.3,0c-0.1-1.6-1.3-3.2-0.6-5c0.9,1.1,0.5,2.9,2.3,3.5   c0.3-0.6,0.2-1.9,1-1.8c0.5,0.5-0.1,2,1.4,1.6c0.4-1,0.7-1.9,1.1-2.8c0,1.9,1,3.4,3.1,3.1c0.9,1.2,2.2,0.7,3.3,0.7   c0-0.3-0.1-0.5-0.1-0.8c2.4-3.5-1.4-8.3,1.4-11.5c1.5,1.8,5.2,2.8,5.2,5.1c-0.9-0.4-1.8-0.8-2.6-1.1c1.3,40.8,14.7,85.6,9.7,128.3   c-1.3,0.3-2.6,0.5-4.2,0.9c-10.8,29.4-12.7,60-8.6,90.9c-0.5,26.3-7.8,51.9-9.7,78.2c12.5,7.5,13.3,14.9,30.3,12.7   c1.7-0.2,2.5,0.3,5.4,2.3c7.4,18.3-14.1,30.5-30.1,25.9c-13.5,0.1-28.6,7.6-40.9-2.6c3.1-9.2,4.4-18.6,7-27.7   c2.1-1.2,5.2-1.8,4.3-5.2c-0.7-8.1-1.3-16.1-1.5-24.2c-0.3-14.4-7.9-27.5-7.6-41.9c-1.4-16.3,8.3-31.9,5.9-47.7   c-6.8-14.5-1.3-30.5-3.5-45.7c-3.4-15.3-3.2-32.2-6.7-47C457.5,343.1,457.1,344.4,456.6,346z M475.2,552.9c3.3,3,7.5,6.3,12.3,4.9   c0.7-2,4.3-4.7,3.3-6.5c-6,3.8-12.7,0.8-18.6-0.5C473.6,551.8,474.4,552.4,475.2,552.9z M526,573.8c4.4-3.8,5.1-12.9,0.5-16.9   c-3.1,0.4-6.1,0.9-9.1,0c-0.6,0.6-1.1,1.1-1.6,1.5c-0.8-0.3-1.3-0.4-1.8-0.6c-0.2,0.8-0.4,1.4-0.5,1.9c-2.2,1-2.3-1-3.4-1.8   c-0.4,1-0.8,1.9-1.2,2.8c-0.5,0-0.9,0-1.3,0c-0.4-1.1-0.8-2.3-1.2-3.4c-0.1,0-0.3,0.1-0.4,0.1c0,0.9,0,1.8,0,2.7   c-4.4,5-1-7.1-3.8-9.8c-0.6,3,1.7,8-1.9,7.7c-1-3.8-1.5-7.9-3.1-11.6c-0.7-0.3-1.4-0.5-2.4-0.9c-0.1,1.2-0.1,2.2-0.2,2.9   c0.7,0.8,1.1,1.3,1.6,2c-4.4,2.7-4.7,9.7-9.7,10.5c-7.8,2.4-13.5-11.1-19.2-5.1c0.3,8.8-2.5,16.1-5.3,24.2   c12.4,10.2,27,0.2,40.4,1.3C510.6,582.4,521.6,582.1,526,573.8z M505.1,394.5c0.7-7.1,5.6-14.3,5-21.2c-15.1,3.3-30.7,3.6-45.8,1.7   c4.4,21.2,0.1,42.7,6.6,63.7c-0.4,12.8-6.1,25.3-6.3,38.4c-2.1,10.1,2.3,19.3,4.7,28.9c2.8,14.1,4.1,28.4,4.2,42.8   c1.2,1,2.6,1.5,4,1.9c0.5-0.6,0.8-1,1.1-1.4c4.4,2.9,9.3,1,13.1-1.5c1.1-22.9,6.8-45,9.6-67.7c0.1-28.9-2.9-57.7,1.6-86.2l0,0   c0.3,0.2,0.5,0.5,0.8,0.7c0.1,1.1-0.3,2.4,0.4,3.6C505.7,397.2,505.2,395.8,505.1,394.5z" />
	<path fill="#030202" d="M479.1,72c0.3,6.6,0.8,13.3,2.5,19.7c10,2.6,16.8,11,26.9,12.7c16,1.1,27.1,13,33.3,26.9   c1.3,2.4,2.8,3.9,5.5,4.8c23.4,6.7,32,29.7,41.3,49.7c3.7,12.5-33.9,45.6-45.8,50c-9.9,3.1-26.3,21.5-35.2,12.8   c0.1-0.3,0.2-0.7,0.4-1.1c5.9,3.6,12.4,0.6,15.9-4.3c0,0-0.1,0-0.1,0c20-8.7,37.7-20.1,51.8-37.2c3.9-6.3,14.2-12.8,10.3-21   c-9.2-20.3-19.2-42.4-42.9-48.3c-4,10.5-11.1,18-19.8,25.2c-0.1,0.5-0.4,1.5-0.7,2.4c8.7,12.1,24.4,16.9,36.5,22.9   c-1.9,1-3.7-0.3-5.7-0.5c-0.7,0.4-1.5,0.8-2.3,1.2c-6.2,18.9-17.4,39.7-36.6,46.8c-0.5-0.5-1-1.1-1.5-1.6   c22.1-9.3,29.2-26.6,37.2-47.6c-11.2-3.6-20.4-10.3-28.7-18.7c-5.9,11.4-17.1,18.8-18.5,32.3c-0.3-0.3-0.6-0.6-0.8-0.9   c0.2-18.1,18.9-29.6,23-47c2.1,1.4-0.2,3.2,0.6,4.6c7-5.2,12.2-12.4,15.7-20.4c-15.2-28.1-18.9-22.6-44-32.9   c-15.1-10.2-33-19-51.6-14.5c-0.3-0.3-0.6-0.6-0.9-0.9c0.4-0.6,0.8-1.2,1.2-1.8c9.2-0.3,17.8-0.9,27.1,1.4c1.3,1.4,3.3,2.5,5.5,3.3   c-0.3-6.8-1.7-13.9-0.6-20.7C479.3,70.1,478.7,71.2,479.1,72z" />
	<path fill="#100C0C" d="M445,87.3c0.3,0.3,0.6,0.6,0.9,0.9c-10.5,7.1-22.7,11.4-33.3,18.4c-13.1,2.2-25,8.9-32.2,20.3   c-0.4,0-0.8-0.1-1.2-0.1c5.4-14.6,21.1-18.6,34.2-23.3c7.6-4.5,15.5-7.8,23.6-11.3c1.2-8.7,2.8-17.3,0.9-26c-1-0.4-1.9-0.8-2.8-1.2   c0.9-0.4,1.7-0.9,2.4-1.5c0.2-0.5,0.4-1.1,0.7-1.6c3.3,8.8,1.9,18.5,1.8,27.7C441.8,88.7,443.4,88,445,87.3z" />
	<path fill="#957062" d="M516.1,248.7c-2.6,1.8-5.5-0.5-8.2-1.2c-0.3,1-0.7,1.8-1.2,2.7c-1-1.6-0.1-4.2,1.1-6   c0.8,0.4,1.7,0.7,2.6,1.1c0-2.4-3.7-3.4-5.2-5.1c-0.5-5.7-4-11.9-10-13.2c-0.5-1-1-2.1-1.5-3.1c7.6,1.2,12.6,9.5,16,15.7   c2.5,0.9,2.5,0.9,4,3c-0.7,0.8-1.4,1.7-2,2.5C513.2,246.7,514,248.4,516.1,248.7z" />
	<path fill="#241E1D" d="M322,151.5c5.1,12.9,7.2,26.7,7.8,40.5c1.5,0.4,2.8,0.7,4.1,1c-1.4,0-2.8,0-4,0.8c-1.7-0.5-3.7,0-4.8-1.8   c0.9-0.4,1.6-0.7,2.4-1c-0.9-7,2-15.6-1.9-21.8c-3.4-5.3-3-11.8-4.2-17.8l0,0C321.6,151.5,321.9,151.5,322,151.5z" />
	<path fill="#1D1919" d="M339.1,567.5c0.4,0.4,0.7,0.7,1.1,1.1c-8.3,9.5-16.8,19.1-25.1,28.6C310.4,596.5,336.5,571.1,339.1,567.5z" />
	<path fill="#201D1B" d="M319.2,203.1c-0.3,0.3-0.6,0.6-0.9,0.9c-10.8-8.3-6.3-23.9-5.5-35.8C315.7,180.8,308.2,193.1,319.2,203.1z" />
	<path fill="#69534A" d="M437.4,63.3c-0.8,0.6-1.6,1.1-2.4,1.5c-3.6-1.5-3.3-5.9-3.8-9.2c0.8-0.3,0.7-0.9,0.8-1.5   c2.3,0,1.2-3.1,1.5-4.6c0.8,0.6,1.5,1.2,2.2,1.8C435,55.6,436.1,59.4,437.4,63.3z" />
	<path fill="#0C0C0C" d="M357.8,56.4c-0.3,0-0.6,0-0.8,0c-0.4-10-0.2-20.1,0-30.1c0.3,0,0.5,0,0.8,0   C357.9,36.3,358.2,46.4,357.8,56.4z" />
	<path fill="#1E1917" d="M479.1,72c-0.3-0.8,0.3-1.9-0.8-2.4c-0.6-4.4,3.2-8.6,2.3-12.3c0.1-0.8,0.8-0.8,1.4-0.9   c0.9,3-1.1,4.8-0.9,7.8c0.6-0.1,1.2-0.1,1.8-0.2c0,0.3,0,0.6,0,0.9C478.2,64.5,480.2,68.8,479.1,72z" />
	<path fill="#3D322E" d="M312.8,160.7c-1.2-2.7-0.5-4.9,1.4-6.9c0.1-1.6,0.3-3.1,0.4-4.6c1.7,1.5-0.5,4,1.3,5.3   c0.5,1.8,0.9,3.5,0.7,5.4c-0.3,0-0.6,0-0.9,0.1c-0.4-1.2-0.7-2.5-1.2-4c-1.6,1.6-0.5,3.1-1,4.8   C313.4,160.7,313.1,160.7,312.8,160.7z" />
	<path fill="#4D4541" d="M482.9,64.9c0-2.3,3.5-4.9,2-7.2c-1.9-1.1-0.4-3.1-1.9-4.2c0-1,0.8-0.8,1.4-0.9c0.4,1.4,0.6,2.8,1.6,3.9   c0.2,0,0.4,0,0.6,0C486.5,59.4,486,63.7,482.9,64.9z" />
	<path fill="#212121" d="M357.7,26.3c-0.3,0-0.5,0-0.8,0c-0.1-8.2-0.3-15,0.1-23.5C357.9,6.6,358.2,20.1,357.7,26.3z" />
	<path fill="#272220" d="M486.6,56.4c-0.2,0-0.4,0-0.6,0c-0.1-2.2,0.2-4.5-0.3-6.6c-0.5-0.1-0.9-0.2-1.3-0.3c0-0.5,0-1.1,0-1.6   c0.7,0.3,1.4,0.5,2,0.8C487.2,51.3,487.4,53.9,486.6,56.4z" />
	<path fill="#080606" d="M312.8,160.7c0.3,0,0.6,0,0.8,0c0,4.1,0,8.2,0,12.3C312,169.3,313.2,164.8,312.8,160.7z" />
	<path fill="#63534D" d="M319.8,143c1.2,0.5,0.7,1.5,0.7,2.3c-0.8,0.1-1.3-0.2-2.1-0.5c-0.1,1-0.1,1.9-0.2,2.9   c-0.2-0.1-0.5-0.1-0.7-0.1c-0.1-0.9,0.5-2-0.9-2.4c0.2-1,0.5-1.9,1.7-2.2C318.8,143.9,319.3,143.9,319.8,143z" />
	<path fill="#63534D" d="M316,154.5c-1.9-1.3,0.3-3.9-1.3-5.3c0.3-1.1,0.3-2.4,1.3-3.3c0.3,0.6,0.6,1.1,0.8,1.7   C315.5,149.7,316.2,152.2,316,154.5z" />
	<path fill="#69534A" d="M433.5,41c1.3,2.3,0.4,4.9,0.6,7.6c-0.9,0-1.6,0.1-2.3,0.1c0.4-0.4,0.9-0.7,1.6-1.4   C433.5,45.4,433.5,43.2,433.5,41z" />
	<path fill="#37312F" d="M319.9,145.2c0.2,0,0.5,0,0.7,0c1.6,1.6,0.8,4.2,0.8,6.2c0,0,0,0,0,0C319.9,149.6,319.8,147.5,319.9,145.2z   " />
	<path fill="#221F1D" d="M431.9,54.1c-0.1,0.6,0,1.3-0.8,1.5c-0.3-1.8-0.4-3.6,0-5.3C432,51.5,432,52.7,431.9,54.1z" />
	<path fill="#010101" d="M330,193.7c1.6-0.9,3.6-0.9,5.4-0.5c0,0.2,0,0.5,0,0.7C333.5,194.1,331.7,194,330,193.7z" />
	<path fill="#69534A" d="M432,51.8c-0.4-0.9-1.6-2.5-0.1-3.1c0.3,0.3,0.5,0.6,0.8,0.9C432.6,50.4,433,51.3,432,51.8z" />
	<path fill="#839393" d="M457.4,343c0-0.5,0.1-0.9,0.1-1.6c1.2,1,1.6,1.9,1.2,3.1C458.3,344,457.9,343.5,457.4,343z" />
	<path fill="#1F1211" d="M316.8,147.6c-0.3-0.6-0.6-1.1-0.8-1.7c0.2-0.2,0.5-0.5,0.7-0.7c1.4,0.4,0.8,1.5,0.9,2.4l0,0   C317.3,147.5,317,147.6,316.8,147.6C316.8,147.6,316.8,147.6,316.8,147.6z" />
	<path fill="#4D4541" d="M479.9,66.6c0.2-1.8,0.2-1.8,2.4-1.5C481.5,65.6,480.7,66.1,479.9,66.6z" />
	<path fill="#241E1D" d="M335.3,193.9c0-0.2,0-0.5,0-0.7c0.9-0.2,1.7,0,2.4,0.7C336.9,193.9,336.1,193.9,335.3,193.9z" />
	<path fill="#9BA0A1" d="M466.7,553c-0.3,0.5-0.5,1-0.8,1.5C465.7,553.9,465.8,553.3,466.7,553z" />
	<path fill="#1F1211" d="M319.8,143c-0.5,0.9-1,0.9-1.5,0C318.9,143,319.3,143,319.8,143z" />
	<path fill="#9E7D70" d="M321.4,151.4c0-0.6,0.1-1.1,0.1-1.7c0.6,0.4,0.7,1,0.5,1.7C321.9,151.5,321.6,151.5,321.4,151.4z" />
	<path fill="#D4D1DB" d="M380,124.4c-0.2,0.3-0.4,0.6-0.6,0.9C379.6,125,379.8,124.7,380,124.4z" />
	<path fill="#D4D1DB" d="M380.9,122.9c-0.2,0.3-0.4,0.7-0.6,1C380.5,123.5,380.7,123.2,380.9,122.9z" />
	<path fill="#D4D1DB" d="M381.5,122c-0.2,0.3-0.4,0.5-0.5,0.8C381.1,122.6,381.3,122.3,381.5,122z" />
	<path fill="#E0DEE5" d="M393.2,114.1c7-6.7,17.5-5,24.9-11c16.7-8,31.9-21.1,51.4-14.3c3.2-0.3,5.6,1.4,8,3.1   c6.5,3.8,14.1,5.8,19.9,10.9c25.1,10.3,28.8,4.8,44,32.9c-2.7,6-5.9,11.4-10.8,15.8c-0.8-0.6-1.5-1.3-2.1-1.8   c-0.1-1.5-0.2-2.8-0.2-3.8c-0.6-0.8-1.1-1.5-1.4-2c-3,3.8-6.2,6.8-3.8,11.6c-12.6,30.6-24.5,25-23.3,67.6c-3.5-1.1-5.3-4.4-7.5-7.1   c-8.4,2.9,0.5,11,4.8,13.3c4.8,2.3,5,7.9,7.3,12.1c-0.5,1.6-0.1,3.3,0,4.9c-27.5-2.9-54.9-0.9-82.5-0.7c2.9-14.4,1.4-28.9,3.3-43.4   c5.1-1.7,5.5-7.1,2.1-10.2c-0.7-8.8-9.5-14.2-13.7-21.6c-6.8-8.6-6.1-20.3-13.1-28.6c-10-1.6,1.5,18.1-1.4,24.2   c-6.9,0.1-17.6-3.7-20.9-11.4C392.8,149,381.8,127.4,393.2,114.1z M439.6,112c1.7,2.2,4.6,1.4,7.1,1.5c1,0.2,1.6,1.7,3.1,0.9   c-0.6-0.8-1.2-1.5-1.7-2.2C449,105.2,432.7,104.6,439.6,112z M475.1,111.2c1.1-0.4,1.2-1.5,1.6-2.6c-0.9-0.9-1.9-1.9-2.7-2.6   c-5.1-0.3-9.6,0-12.6,4.4c0,1,0,1.9,0,3.1c8.3,7.4,5.7,0.6,12.3-1.3C474.2,112,474.9,112,475.1,111.2L475.1,111.2z M476,150.7   c-1,1.2-1.8,2.7-1.4,3.4c1.5,5-0.6,10.3,0.7,15.5c0,1.4,1.4,0.8,1.9,1.5c1.1,4.9,1.1,4.9,4.6,8.9c3.1,6.5,7.7,11.5,15.6,9.8   c0.8-0.7,1.7-1.6,2.3-2.3c-0.2-5.8-4.8-8-6.8-13c-4.6-5.9-6.1-14.5-12.4-19c0-2.2-0.1-4.2-1.9-5.6C476.9,150,476.9,150,476,150.7   L476,150.7z M456.7,226.9L456.7,226.9c-1.1,3,1.8,13.5,5.2,7.6c-1.3-13.6-2.4-27.6-0.7-41.3c-0.7-1-1.1-1.7-1.6-2.5   c0.5-17.3,4.3-34.3,1.7-51.7c-0.8-3.1-0.6-23.7-3.4-23.1c-2.5,0-2,2.8-2.1,4.6c-0.8,18.5-4.5,37.6-0.9,56   c2.4,15.3-2.2,31.1,2.1,46.3C455.6,224.4,455.2,225.9,456.7,226.9z M445.1,161.8c1.1-2.2,0.1-8.6-2.3-9.5   C442.2,155,443.1,159.8,445.1,161.8z M444.1,165.3c-2.1,0.7-0.4,4.7,0.2,6.8C445.4,169.6,444.2,167.5,444.1,165.3z M440.6,180.8   c-0.3,1.1-0.3,1.9,0,3C442.2,182.5,442.2,182,440.6,180.8z M412.5,109.1c1.3-0.1,2.2-0.2,3.8-0.3   C414.8,107.3,413.3,106.4,412.5,109.1z M500,106.8c2,1.4,2.2,1.4,2.8-0.2C501.9,106.7,501.1,106.7,500,106.8z M478.9,109.9   c1.6,1.4,1.7,1.4,2.2-0.3C480.4,109.8,479.8,109.8,478.9,109.9z M420.3,109.5c-0.8-1-1.4-0.8-2.7,0.3   C418.9,109.7,419.5,109.6,420.3,109.5z M442.9,175.6c-0.2,0.2-0.1,0.3,0.1,0.5c0-0.2,0.1-0.3,0.1-0.5   C443.1,175.6,443,175.6,442.9,175.6z" />
	<path fill="#6D5CA9" d="M492.3,253.3c5.2-0.4,9.4,1,14.3,2.8c0.9,38.2,12.3,75.6,9.1,114.2c-12.9,4.1-27.3,4.8-40.6,3.6   c0-5.5,0-11,0-16.6c1.7,1,1.6,3.2,3.6,4.4c1.8-7.2-4.8-13.6-2.9-20.6c-0.3-7.2,1.6-14.2,3.4-21.1c2-0.3,3.9,0,5.1-1.7   c2.5-0.5,5.6,0.8,7.7-0.9c3-0.4,5.7-1,6.8-4.6c-3.2-1.7-6.5-1.7-9.7-1.6c-6.4-4.8-15.7,0.8-20.7-6.7c-1.6-2.4-3.5-5-6.2-6   c-1.4-2.7-0.9-5.8-3.1-8.1c-4.4,6.3,1.7,17.9-9.2,19.8c-5.8,1.6-12.3,2-18.2,1.8c-5.4,3.2-0.3,6.5,3.8,5.4l0,0   c6,2,14.5,0.1,20.6-2.4c0.6,8.3,0.1,16.5,0.2,24.8c-2.9,10.2-2.2,21.8-4.2,32.5c-5.2,2.6-30.5,3.7-34.9,0.3   c0.4-13.7,2.6-26.8,1.8-40.5c-2.2,2.3-1.8,5.3-3.5,7.4c-4.1-28.2,9.7-57.2,7.5-85.4c0.3,0.1,0.5,0.1,0.8,0.2   c2.3,6.4-2.1,13.4,1.5,20.1c5.2-5.5,1.5-13.3,4-19.5c1.4,0,2.4-0.6,2.8-2.3c-1.4-0.2-2.9,0.5-3.6-0.8c1.7,0,3.3-0.2,5,0   c1.6,0.1,3-1.6,4.9-0.2c-0.4,0.6-0.8,1.1-1.4,1.9c0,1.8-0.3,3.8,0.3,5.9c2.2-0.9,1.3-4.1,2-6.1c0.5-0.1,0.9-0.1,1.5-0.2   c-0.8-2.3-0.9-4.3-0.5-6.6c3.8-0.1,7.2,0,10.8,0.1c0.1,1-0.5,1.2-1.1,1.4c-0.2-0.1-0.5-0.1-0.7,0c-1.1,1.1-1.1,1.1,0,2.3   c-0.8,1.3-2.1,0.6-3.2,0.7c0.5-1.7,1.6-2.4,0.1-3.8c-1.5,1-1.7,3-1.5,4.7c-1.2-1.5-0.9-2.7-1-4.7c-2.1,1.8-1.4,3.5-1,5.3   C459.7,252.5,476,253,492.3,253.3z M453.5,320.6c-0.5,0.5-1.3,1.3-1.7,1.7C451.9,322,454,319.9,453.5,320.6z M511.8,319.2   c-1.6,1.7-1.7,9.3-0.6,10.9C512.7,326.8,512.3,323.4,511.8,319.2z M447.4,342.8c3-3.1,5.6-8.1,5.5-11   C450.8,335.9,448.5,338.3,447.4,342.8z M502.7,269c-0.1,2.9,1.3,6.2,3.3,9.4C505.7,274.6,504.3,271.9,502.7,269z M510.8,362.5   c0.3,0.2,0.6,0.4,1,0.6c0.8-2.9,2.6-5.4,1.4-8.4C512.3,357.5,511.5,360,510.8,362.5z M459.1,263c0.6-4,1.7-7.3-0.8-10   C459.1,257.2,458.7,258.8,459.1,263z M492.9,265.2c-1-3.4-1-3.4-2.9-3.9C490.7,262.7,490.9,264.1,492.9,265.2z M459.8,271.7   c-2,2.4-2,2.9-0.3,4.1C459.6,274.5,459.6,273.5,459.8,271.7z M498.5,271.4c-0.7-1.9-0.7-3.1-1.7-4.4   C496.6,270.1,496.6,270.1,498.5,271.4z M424.9,313.7c-0.2,0.1-0.3,0.2-0.5,0.4c0.2,0.4,0.5,0.1,0.8,0   C425.2,313.9,425,313.8,424.9,313.7z" />
	<path fill="#B28C7D" d="M445.8,376.2c1.7-0.3,3.3-1.6,5.4-0.6c0.4,5.4-1.5,10.8-2.2,16.1c-1.3,7.6,1.6,15.1,0.3,22.6   c0.3,10-5.2,19.1-4.3,29.2c3.6,14,6.9,28.2,6.4,42.8c-4.7,20.6-9.8,41.2-9.2,62.7c-0.8,0.4-1.8,0.9-2.8,1.4   c-1.1-1.5,0.3-3.5-1.6-4.8c-1.3,1.9,0.9,6.2-2.8,5c-2.6-5.8,1.8-19.2-4.4-22.7c-0.2,2.2-1,4-1.4,6.2c-2.3-9.9-3.2-19.1-2.7-29.2   c1.8,0.1,3.3-0.2,4.5-1.9c-3.4-20.7-14.8-42.5-8-64.3c10.5,5.4,8.2-27.4,4.5-31.4c-2.6,6.7-3,13.6-3.4,20.6l0,0   c-3.2-5.6-0.4-13.2-2.4-19.4c-0.9-8.9-5.6-17.2-4.6-26.3C425.8,378.7,437.3,379.9,445.8,376.2z M442.2,437.7   c0.9-1.4,0.4-5.6-1.5-5.8C439.9,435.2,440.2,436.5,442.2,437.7z M437.7,539.9c-1.7,1.1-1.7,2.4,0,3.6   C438.4,542.3,438.5,541.1,437.7,539.9z M442.9,438.8c-1.3,1.8-0.6,5,1.4,3.9C443.9,441.7,443.5,440.6,442.9,438.8z M440.6,488   c1.4-1.6,1.4-1.6,0-4.2C440.6,485.2,440.6,486.5,440.6,488z M436.9,535.3c-1.7,0.7-1.3,2.2,0.3,2.6   C437.3,536.8,437.5,536.2,436.9,535.3z M441.5,502.5c1.4-0.8,1.5-1.9,0.9-3.5C441.8,500.3,440.8,501.1,441.5,502.5z M444.6,500.8   c-1.2,1.2-1.2,1.2-0.6,2.5C444.8,502.7,445.3,501.9,444.6,500.8z M436.9,506.4c-1.4,0.8-2,1.3-1.7,2.5   C436.7,508.8,436.7,507.9,436.9,506.4z M439.8,425.8c0.7-1.1,0.6-1.9-0.4-2.3C438.1,423.7,439.1,425.1,439.8,425.8z M440.9,492.4   c0.4-1,0.8-2-0.1-3.1C440.1,490.3,440.3,491.3,440.9,492.4z M438.4,418.3c1.3-1.1,1.6-2.5-0.4-2.3   C438.1,416.6,438.2,417.2,438.4,418.3z M440,426.5c-0.7,1.1-0.6,2.1,0.1,3.5C440.7,428.6,440.8,427.6,440,426.5z M440.3,494.2   c-0.2,0.5-0.3,0.9-0.5,1.2C441,496.1,441.4,495,440.3,494.2z M438.1,412.6c0.6-0.9,0.7-1.1-0.2-1.6   C437.3,411.7,437.3,411.9,438.1,412.6z M439.8,500.3c0.1,0,0.3,0,0.4,0C440.8,498.2,439.3,498.3,439.8,500.3z" />
	<path fill="#B28C7D" d="M330,193.7c14.7,3.1,16.7,7.8,30.1-2.2c0.5,0.1,0.9,0.3,1.3,0.4c0.6,4.6,0.4,9.6,3.7,13.3   c8.5-13.3,4.2-32,12.5-45.9c0.4-0.1,0.8-0.1,1.2-0.2c6.3,4.6,13,9.2,21.1,9.8c2.4,19.1-8.2,37.5-20,51.7c-4.2,4.5-10.2-1.3-15,1.2   c-6.1-3.1-9.3-9.8-16-11.6c-0.5,3.2,2.1,4.6,3.6,6.7c-0.7,0.1-1,0.2-1.4,0.2c-28.6-16.1-37.6-13.1-35.6-50.9   c0.6-3.6-3.3-6.8-0.6-10.1c2.5,6.5,2.3,13.5,4.4,19.8c1.9-9.7-5.5-18.7-2.3-28.1c0.1,0.8-0.2,1.8,0.7,2.3c1.8,6.2,2.3,12,4.6,18.2   c0-2.6,0-4.2,0-5.9c0.3,0,0.5,0,0.8,0c5.7,13.4,4.9,14.2,4.7,28.7c-0.8,0.3-1.4,0.6-2.4,1C326.3,193.7,328.2,193.3,330,193.7z    M389.9,176c-1.5,3-2.6,5.6-3.6,8.5C389.2,184.5,391.9,178.2,389.9,176z M372.9,214.8c-1.3,1.1-2.8,3.1-1.2,4.8   C372.7,218,373.7,216.7,372.9,214.8z M321,179c0.5-2,0.5-2-0.8-2.8C319.6,177.4,319.9,178.3,321,179z M383.8,186.2   c-1.6,0.1-1.3,1.3-2,2.4C383.5,188.3,384,187.7,383.8,186.2z M373.6,210.6c-0.3-0.5-1.1-0.2-1.6-0.1   C371.3,212,373.4,212,373.6,210.6z M322.7,184.5c0-0.6,0-1.2,0-1.9C321.6,183.1,321.3,183.7,322.7,184.5z M375,205.1   c-0.4-0.4-0.6-0.6-0.8-0.8c-0.6,0.7-1.3,1.1-0.3,1.8C374.2,205.8,374.5,205.5,375,205.1z M378.8,190.4c0.2,0,0.4,0,0.5-0.1   c-0.1-0.5-0.1-1-0.2-1.4c-0.2,0-0.3,0-0.5,0.1C378.7,189.5,378.7,189.9,378.8,190.4z M324.2,191.1c-0.3-0.1-0.6-0.4-0.8,0   C323.6,191.6,323.8,191.5,324.2,191.1z" />
	<path fill="#544492" d="M423.4,254.2c2,28.2-11.5,57.1-7.5,85.3c1.6-2.1,1.2-5.1,3.5-7.4c0.8,13.7-1.4,26.9-1.8,40.5   c0.3,0.3,0.7,0.7,1.2,1.1c-6.2-0.8-12.7-1-18.4-3.3c-1-33.7,2.1-68,10.2-100.3c-0.9-0.2-1.3-0.3-1.8-0.4   c-0.3-5.2,0.7-10.2,1.6-15.1C414.8,254.5,419.1,254.3,423.4,254.2z M407.2,367.8c-1-5-1.9-9.4-2.8-13.9c-0.4,0.1-0.7,0.3-1,0.4   C404.3,359.2,403.6,363.7,407.2,367.8z M414.7,267.8c-3,4.6-3,4.6-2.3,7.2C413.7,272.5,414.4,270.2,414.7,267.8z" />
	<path fill="#977264" d="M445.8,376.2c-8.5,3.7-20.1,2.5-28.6,6c-1,9.1,3.6,17.4,4.6,26.3c1.8,7.3-0.3,15.9,3,22.2   c0.7-0.9,1.2-1.6,0.5-2.8c-0.4,0-0.7,0-1.1-0.1c0.4-7,0.8-13.9,3.4-20.6c3.6,3.9,5.9,36.8-4.5,31.4c-2.1,6.4-2,12.8-2,19.4   c-0.4-0.2-0.8-0.4-1.4-0.7c-0.5,3.8-3.1,8.1-0.5,11.3c2.3-2.9,0.2-6.4,1.9-9.3c2.1,10.2,3.9,20.7,6.5,30.8c2.1,4.3,7.7,15-1,14.7   c-0.4,10.1,0.4,19.2,2.7,29.2c0.3-2.2,1.2-4,1.4-6.2c6.2,3.6,1.8,16.9,4.4,22.7c-4.1,0.5-7.9-0.4-11.3-3.1   c0-23.7-7.5-47.1-9.4-70.7c0.6-27.5,2.9-54.6-1.2-81.9c-0.8-0.1-1.3-0.1-2.1-0.2c-2-7.1-4-14.2-6-21.4   C418.4,376.2,432,376.4,445.8,376.2z M424.5,432.6c-1.9,0-3.2,5.5-0.6,5C424.2,436,424.3,434.4,424.5,432.6z M414,388.4   c-1.7,2.4-1.7,2.7-0.1,4.6C414.4,391.6,414.2,390.3,414,388.4z M419.2,475.6c0.5-1.4,0.6-2.4-0.1-3.6   C417.9,473.9,417.9,473.9,419.2,475.6z M419.6,487.7c1.7-1.7,1.7-1.7,0-3.2C419.6,485.4,419.6,486.3,419.6,487.7z M418.9,481.1   c1.4-1.5,1.4-1.5,0-2.7C418.9,479.3,418.9,480,418.9,481.1z M421.7,492c-0.9,1-0.8,1.8,0.1,2.5C421.8,493.7,421.8,493,421.7,492z    M425.2,425.3c0.1,0,0.3,0,0.4,0c0-0.6,0-1.2,0-1.8c-0.1,0-0.3,0-0.4,0C425.2,424.1,425.2,424.7,425.2,425.3z M413.6,383.5   c-0.5,0.6-0.5,1.1,0.1,1.5C414.3,384.5,414.3,384,413.6,383.5z M413.8,380.5c0.1-0.3,0.4-0.6,0-0.9   C413.3,379.9,413.4,380.1,413.8,380.5z" />
	<path fill="#B1B6B7" d="M387,560.7c0-1.5,0.9-2.6,1.9-3.6c3.2,0.2,6.3,1.1,9.6-0.2c0.4,0.5,0.8,1,1.3,1.6c1-0.3,1.5-0.5,2.5-1.2   c-0.9,2.1,1.1,4,2.5,2c0.5,0,0.9,0,1.4,0c0.4,1.6,2.4,2.2,2.5,0.1c0.9,0.8,1.6,1.6,2.7,2.2c1.7-1.6,0.8-3.7,1.2-5.4   c0.1,0,0.5,0,0.6,0c0.5,0.7,0.9,1.4,1.3,2c3.5-0.6,0.8-11.6,6.2-12.6c0.5,2.7,0.5,2.7-1.1,4.6c3.9,2.8,4.9,10.2,10,10.6   c8.1,1.8,11.8-9.6,18.8-5.8c1.2,6.7-0.1,13.8,4,19.9c0.5,1.5,2.3,3.8,1,5.1c-4-3.4-9.8,0.8-14.6,0.5c-7-0.1-13.9-0.2-19.9-4.5   c-1.2,0.9-2.2,1.7-3.1,2.5C404.1,579.4,388.7,573.6,387,560.7z" />
	<path fill="#D5D2DC" d="M398.7,153.9c-0.3-0.6-0.6-1.1-0.8-1.7c1.3-1.6,1.1-2.4-0.8-3.1c-0.3-0.7-0.5-1.5-0.8-2.2   c0.4-0.1,0.8-0.2,1.8-0.3c-0.8-0.6-1.3-0.9-1.7-1.2c-0.5-3.2,1.2-4.4,4.2-3.8c6.9,8.3,6.2,20,13.1,28.6c4.2,7.4,13,12.8,13.7,21.6   c3.4,3.2,2.9,8.5-2.1,10.2c-1.9,14.5-0.4,29-3.3,43.4c2,0.1,3.8,0.2,5.5,0.3c-4.9,0.5-9.8,1-14.8,1.3c8.9-45.5,0.6-41.7-10.8-80.4   C400.7,162.4,401.9,157.1,398.7,153.9z" />
	<path fill="#977264" d="M350.8,217c0.4-0.1,0.7-0.1,1.4-0.2c-1.5-2.1-4-3.4-3.6-6.7c6.8,1.9,9.9,8.6,16,11.6   c3.6-1.6,7.3,0.4,11,0.8c-2.4,2-5,2.8-8,3.5c-19.2-6.5-37.3-7.7-50.9-26.3c-7.5-7.1-1.5-29-2.8-39.9c5.8,43.5-6.3,33.6,35.4,56.4   c0,1.3,0.5,2,2,2.2C351.1,217.9,350.9,217.5,350.8,217z M317.5,197.2c-0.1-0.2-0.2-0.4-0.3-0.6c-0.4,0.1-0.2,0.5-0.3,0.8   C317.1,197.3,317.3,197.2,317.5,197.2z" />
	<path fill="#9BA0A1" d="M387,560.7c1.6,12.9,17.1,18.8,28.7,17.8c0.9-0.8,1.9-1.5,3.1-2.5c6,4.2,12.9,4.3,19.9,4.5   c4.8,0.4,10.6-3.9,14.6-0.5c-12.5,10.2-27.3-0.8-40.7,1.2C400,584.6,382.4,575.1,387,560.7z" />
	<path fill="#D4D1DB" d="M393.2,114.1c-11.4,13.4-0.3,34.9-14.9,40.2c0.1,0.4,0.2,1,0.4,1.6c-0.7-0.7-1.4-1.4-2.1-2   C376.4,139.7,378.2,121.4,393.2,114.1z M380.9,149.5c-1.9,0.2-2.5,1.2-1.8,3.1C379.7,151.5,380.3,150.6,380.9,149.5z M384.5,147.1   c-0.1,0-0.2,0-0.3,0c0,0.4-0.1,0.7-0.1,1.1c0.1,0,0.3,0,0.4,0C384.5,147.9,384.5,147.5,384.5,147.1z" />
	<path fill="#977264" d="M378.6,159.1c-0.4,0.1-0.8,0.1-1.2,0.2c-8.3,13.9-4,32.6-12.5,45.9c-3.3-3.7-3.1-8.7-3.7-13.3   c-0.4-0.1-0.8-0.2-1.3-0.4c0.5-0.3,1-0.6,1.6-1c0.4,0.9,0.7,1.6,1.2,2.5c2.9-13,4.5-25.7,13-36.8C376.9,157,378,157.8,378.6,159.1z   " />
	<path fill="#150D15" d="M412.6,247c15.3-0.8,31.2-3.9,46.2-1.5c-6.2,0.2-12,0.6-18.2,0.9c-0.4,2.3-0.3,4.4,0.5,6.6   c-0.6,0.1-1.1,0.2-1.5,0.2c-0.2-2.2,0.1-4.5-0.4-6.9c-3.9,0.3-7.4,0.7-11.1,1.2c-0.1,1.4-0.3,2.6-0.4,4.1c-1.1-1.4,0.3-3.3-1.6-4.5   c-0.3,0.7-0.5,1.3-0.8,1.9c-0.3-0.6-0.6-1.2-1-1.9c-1.8,0.9-1.9,2.8-1.9,4.6c-0.8-1.1-0.7-2.4-0.9-3.6c-3.8-1.2-3.8,2.5-3.6,5.2   c-0.3,0-0.6,0-0.9,0c0.1-1.6,0-3.2-0.2-4.8c-0.1,0-0.3,0-0.4,0c-0.1,1.2-0.2,2.4-0.2,3.6c-0.1,0-0.3,0-0.4,0c-0.2-1-0.3-2-0.5-3   c-0.2,0-0.3,0-0.5,0c0,1.4,0,2.8,0,4.1c-1.2,0.1-2.2,0.1-3.1-0.8c0.5-0.1,0.9-0.1,1.3-0.2c0.3-1.2,1-2.8-0.5-3.6   C412.6,248.2,412.6,247.6,412.6,247z" />
	<path fill="#F6F6F6" d="M424.9,551.3c4.4,3.3,10.6,0,14.7,2.5c-3.3,2.4-6.9,5.6-11.3,3.9c-1.1-1.8-2.3-3.6-3.5-5.4   C424.9,552,424.9,551.7,424.9,551.3z" />
	<path fill="#3F3269" d="M423.3,247.9c0.3-0.2,0.6-0.4,1-0.7c0.4,0.7,0.7,1.3,1,1.9c0.2-0.6,0.5-1.2,0.8-1.9   c1.9,1.2,0.6,3.1,1.6,4.5c0.1-1.4,0.3-2.6,0.4-4.1c0.4-0.1,0.9-0.2,1.4-0.3c-0.2,1.6-2.1,5.3,0.8,5.4c-3,1.5-6.7,0.6-10,0.7   c0-1.8,0-3.6,0-5.4c0.4,0,0.7,0.1,1.3,0.2c0.1,2,0.3,3.5,2.2,4.7C424.1,250.9,424.8,248.9,423.3,247.9z" />
	<path fill="#211E3C" d="M423.3,253.4c3.3,0.3,5.9-0.6,9.1-0.8c-0.9,3.9-6.1,1.1-9.1,1.4C423.4,253.8,423.4,253.6,423.3,253.4z" />
	<path fill="#262045" d="M414.9,253.3c0-1.4,0-2.8,0-4.1c0.2,0,0.3,0,0.5,0c0.2,1,0.3,2,0.5,3c0.1,0,0.3,0,0.4,0   c0.1-1.2,0.2-2.4,0.2-3.6c0.1,0,0.3,0,0.4,0c0.2,1.6,0.3,3.2,0.2,4.8C416.4,253.3,415.7,253.3,414.9,253.3z" />
	<path fill="#3F3269" d="M418.1,253.3c0.2-1.8-0.9-4.6,1.4-5.3c0,1.8,0,3.5,0,5.3C419,253.3,418.5,253.3,418.1,253.3z" />
	<path fill="#493D84" d="M412.6,248.8c1.5,0.8,0.8,2.4,0.5,3.6c-0.3,0-0.8,0.1-1.3,0.2C411.7,251.2,411.7,249.9,412.6,248.8z" />
	<path fill="#BACECE" d="M439.7,553.8c-0.5-1.3-1.8-0.5-2.6-0.9c1.6-0.2,3.6-1.7,5-1.3C441.3,552.3,440.5,553.1,439.7,553.8z" />
	<path fill="#1A142C" d="M419.5,253.3c0-1.8,0-3.5,0-5.3c0.3,0,0.6,0,0.9,0c0,1.8,0,3.6,0,5.4C420,253.3,419.8,253.3,419.5,253.3z" />
	<path fill="#454D4E" d="M410.3,560.7c-0.5-0.5-1-0.9-1.5-1.4c0-0.7,0-1.4,0-2.3C410.6,558,410.1,559.5,410.3,560.7z" />
	<path fill="#7A8787" d="M406.3,559.2c-0.5,0-0.9,0-1.4,0c0.4-1,0.8-1.9,1.1-2.9c0.1,0,0.3,0.1,0.4,0.1   C406.4,557.3,406.3,558.3,406.3,559.2z" />
	<path fill="#6B7071" d="M413.3,556.1c-0.1,0-0.5,0-0.6,0c0-1.3,0-2.6,0-3.9c0.3,0,0.5-0.1,0.8-0.1   C413.4,553.5,413.3,554.8,413.3,556.1z" />
	<path fill="#3A4242" d="M413.4,552.2c-0.3,0-0.5,0-0.8,0.1c-0.2-1,0-1.7,1.1-2C414.3,551.1,414.3,551.7,413.4,552.2z" />
	<path fill="#513933" d="M411,394.7c0.3,0,0.6,0,0.8,0.1c0,1.1-0.1,2.2-0.1,4C410.7,397,411.1,395.8,411,394.7z" />
	<path fill="#241E1D" d="M335.3,194.6c-0.9,0.1-1.8,0.2-2.5-0.6c0.8,0,1.7-0.1,2.5-0.1C335.3,194.1,335.3,194.4,335.3,194.6z" />
	<path fill="#8D9898" d="M424.9,551.3c0,0.3-0.1,0.6-0.1,0.9c-0.3-0.5-1.1-0.9-0.3-1.4C424.7,551,424.8,551.2,424.9,551.3z" />
	<path fill="#BFE3E3" d="M441.8,551.3c0.3-0.2,0.6-0.8,0.9-0.4c-0.2,0.2-0.4,0.4-0.7,0.6C442,551.5,441.9,551.4,441.8,551.3z" />
	<path fill="#B18C7D" d="M479.1,63.4c-1.7,8.9-1.1,17.9-0.2,26.8c-2.2-0.8-4.2-1.9-5.5-3.3c-7.7-1.8-14.8-1.7-22.5-2.2   c0.6-3,0.2-6,0.3-9c0.7-0.4,1.3-0.7,2-1.1c-0.1-0.6-0.2-1.1-0.3-1.8c1.6-0.7,3.3-1.5,5.1-2.3c2.7,1.2,6.1,0.7,8.1,3.5   c1.2,0.1,2.3,0.2,3.7,0.4c-0.5-2.9,4.2-3.8,2.2-5.6c0.6-1.6,2.4-1.6,3.7-2.7c0-1.7,1.3-3,2.4-4.3C479.1,62.1,478.9,62.8,479.1,63.4   z M469.1,82.2c-0.6-0.5-0.9-1.1-1.4-0.5C467.9,82.6,468.1,82.7,469.1,82.2z M466.3,78.2c-0.1,0.1-0.1,0.1-0.2,0.2   c0.1,0,0.3,0,0.4,0C466.4,78.4,466.3,78.3,466.3,78.2z" />
	<path fill="#967163" d="M451.2,75.7c-0.1,3,0.2,6-0.3,9c0.5,0.1,0.8,0.2,1.2,0.3c-1.9,0.9-3.8,0.8-5.8,0.4   c-0.4,0.6-0.8,1.2-1.2,1.8c-1.6,0.7-3.2,1.4-5.1,2.2c0.2-9.3,1.6-19-1.8-27.7c0.3-0.2,0.5-0.5,0.9-0.8c2.6,1.7,2.4,5,4.7,6.9   c1.5,2.6,4.8,5.2,5.6,7.7C449.9,75.6,450.6,75.7,451.2,75.7z M447.2,82.3c-0.1-0.1-0.1-0.2-0.2-0.2c-0.3,0.2-0.3,0.3,0,0.4   C447,82.4,447.1,82.4,447.2,82.3z" />
	<path fill="#82675C" d="M484.5,49.5c0.4,0.1,0.7,0.1,1.3,0.3c0.5,2.2,0.1,4.4,0.3,6.6C484.4,54.5,484.2,51.9,484.5,49.5z" />
	<path fill="#A68476" d="M482.9,53.4c1.4,1.2,0,3.1,1.9,4.2c0.4,0.3,0.2,1.6,0.3,2.5c-0.3-0.6-0.7-1.2-1-1.8   c-0.3,0.3-0.8,0.7-1.2,1.1c0,0,0,0,0,0C482.9,57.5,482.7,55.4,482.9,53.4z" />
	<path fill="#756158" d="M479.1,63.4c-0.1-0.6,0-1.4-0.8-1.6c0.4-1.7,1.3-3.2,2.4-4.5C482.1,59.2,479.5,61.4,479.1,63.4z" />
	<path fill="#73574D" d="M432,51.8c1-0.5,0.6-1.4,0.7-2.2c0.3,0,0.5,0,0.8-0.1c-0.3,1.5,0.9,4.6-1.5,4.6C432,53.3,432,52.5,432,51.8   z" />
	<path fill="#7D6358" d="M482.8,54.1c0,1.8,0,3.6,0,5.4c-0.2,0-0.5,0-0.7,0C482.2,57.8,481.3,55.4,482.8,54.1z" />
	<path fill="#493831" d="M436.9,57.5c0.8,0.2,0.7,1,0.8,1.7C436.7,59.8,436,58.1,436.9,57.5z" />
	<path fill="#4E433C" d="M472.1,68.8c0.9,1.2,0.9,1.3-0.8,2.3C471.4,70.3,471,69.3,472.1,68.8z" />
	<path fill="#2C2420" d="M469.9,70.3c-0.6,0.4-1.1,0.9-1.4,0.2C468.7,69.6,469,69.7,469.9,70.3z" />
	<ellipse fill="#292B2B" cx="463.9" cy="20.5" rx="0.3" ry="1.1" />
	<path fill="#614A41" d="M450.8,70.5c0.1,0.1,0.1,0.2,0.2,0.2c-0.1,0-0.3,0-0.4,0C450.7,70.6,450.8,70.5,450.8,70.5z" />
	<path fill="#B28C7D" d="M495.2,376.1c5-1,9.9-1.9,15-2.7c0.6,6.8-4.4,14.1-5,21.2c-0.5,0.1-0.9,0.1-1.4,0.2   c-0.3-0.2-0.5-0.5-0.8-0.7c-0.2-1.7,0.8-3.6-0.6-5.5c-1.6,1.7-1.4,4.7,0.6,5.5c-4.5,28.5-1.6,57.3-1.6,86.2   c-2.7,22.7-8.5,44.8-9.6,67.7c-3.8,2.4-8.7,4.4-13.1,1.5c-0.3,0.4-0.6,0.8-1.1,1.4c-0.8-0.3-1.6-0.6-2.4-0.8   c0.6-1.5,2.2-1.6,3.3-2.4c0.4,0,0.7,0,1.1,0c0.6-1.2,0.8-2.2-0.5-2.9c0.2-1.5,1.9-3.7,0-4.6c-1.7-9.3-0.1-18.7-3.8-27.6   c1.2-0.1,2-0.1,2.9-0.2c0.7,1,0.9,1,1.6,0.1c1.3-8.5-4.6-15-6.5-23c-0.9-12,1.2-24,1.1-35.9c-0.6-5.9,3.9-10.4,4.8-16.2   c2-9.9,2.8-22.1-0.3-31.4c-2.6,3.2-2.8,7.4-4.2,11.7c-4.3-16.2,2.3-20.8,0.9-35.6C482.4,381.3,489.5,379.9,495.2,376.1z    M497.2,468.6c0.7-3.7,1-8.9-2.2-11.4C496.1,461.2,494.9,466.4,497.2,468.6z M491.7,431.9c-0.5,3.2-0.1,4.8,1.6,6   C493.4,435.7,493.4,433.7,491.7,431.9z M496.5,471.3c-0.2,2.7-1.1,2.9,0.6,4.7C497.7,474.4,497.9,473.3,496.5,471.3z M496.2,483.9   c-1.3,1.4-1.2,2.3-0.6,3.5C497.2,486.7,496.7,485.6,496.2,483.9z M494.4,491.7c-1,1.2-0.9,2.1-0.3,3.2   C495.3,493.9,495.5,493.1,494.4,491.7z M501.7,385.2c1.8,0.1,1.3-1.4,0.4-2.1C501.3,383.9,501.6,384.3,501.7,385.2z M480.4,534.1   c-0.9,1.1-1,2.1,0,3.6C480.4,536.1,480.4,535.1,480.4,534.1z M491,427.8c-0.7,1.2-0.4,2-0.1,3.2C492.3,429.6,491.5,428.8,491,427.8   z M496.2,480.8c1.4-1.1,1.4-1.1,0-1.9C496.2,479.6,496.2,480.1,496.2,480.8z M489.9,423.3c0.1,0.8,0.1,1.4,0.2,2.3   C491.2,424,491.2,424,489.9,423.3z M503,379.8c-0.5-0.2-0.8-0.3-1.1-0.4C501.3,380.6,502.3,381,503,379.8z M481.7,529.9   c0,0.2,0,0.4,0,0.5C482,530.3,481.9,530.2,481.7,529.9z" />
	<path fill="#977264" d="M495.2,376.1c-5.6,3.8-12.7,5.3-19.6,5.7c1.3,14.9-5.3,19.3-0.9,35.6c1.4-4.3,1.6-8.5,4.2-11.7   c3.1,9.3,2.2,21.5,0.3,31.4c-0.9,5.8-5.4,10.3-4.8,16.2c0.1,11.9-2,23.9-1.1,35.9c1.9,8,7.8,14.6,6.5,23c-1.6-0.2-2.7,0-4.5,0.1   c3.8,9,2.2,18.4,3.8,27.6c-0.6,1.5-0.6,1.5,0.7,2.2c-0.2,0.8-0.5,1.6-0.7,2.4c-1.2,0.8-0.8,1.9-0.6,2.9c-1.1,0.8-2.7,0.9-3.3,2.4   c-0.5-0.3-1-0.7-1.6-1.1c-0.1-14.3-1.4-28.7-4.2-42.8c-2.3-9.6-6.8-18.8-4.7-28.9c0.2-13.1,5.9-25.6,6.3-38.4   c-6.5-21-2.2-42.4-6.6-63.7C474.5,376.4,484.8,376.2,495.2,376.1z M468.8,497.9c0.9,2.8,1.1,5.4,3.6,6.9c-0.5-2.5-0.7-5.1-1.8-7.6   C470,497.4,469.6,497.6,468.8,497.9z M475.5,432c-2.1,0.9-2.4,1.9-1.6,5.9C475.5,436,476.1,434.2,475.5,432z M475.4,430.1   c1.6-2,1.6-2,0.2-3.6C474.8,427.5,475,428.6,475.4,430.1z M474.9,508.7c0.3-1.9,0.3-1.9-0.8-2.7   C473.7,507.5,473.7,507.5,474.9,508.7z M476.1,425.3c0.1,0,0.3,0,0.4,0C477.2,423.1,475.5,423.2,476.1,425.3z" />
	<path fill="#544492" d="M445.8,317.4c-3.1,0.4-7.5,2-10.1,0c2.2,0,4.5,0.3,6.8-0.3c-0.2-0.5-0.3-0.8-0.4-1.1   c-2.1,0.5-4.9-0.2-6.4,1.4c-1.9,0-3.8,0.4-5.4-0.7c0.4-0.1,0.9-0.2,1.3-0.3c0-0.2,0-0.4,0-0.5c-0.6,0-1.3,0-1.9,0   c-0.9-8.2,21.5-0.2,26.8-10.2c-0.1,1-0.3,1.9-0.4,2.9c0.4,0.3,0.7,0.5,1.1,0.8c1.2-1.7,2.3-4.6,0.2-6c0-0.5,0-1,0-1.5   c1.7-0.5,1.7-0.5,1.1-2.9c-0.3,0-0.7-0.1-1.1-0.1c-0.2-2.9-0.3-6.1,1.8-8.5c2.2,2.3,1.7,5.4,3.1,8.1c2.7,1,4.5,3.6,6.2,6   c5,7.4,14.3,1.8,20.7,6.7c3.2-0.1,6.5-0.1,9.7,1.6c-1,3.5-3.8,4.2-6.8,4.6c0.5-0.5,1-1,1.6-1.5c-1.8-0.9-1.8-0.9-3.8,1.2   c0.9,0.1,1.6,0.2,2.2,0.3c-1.4,1.5-3.6,0.6-5.4,0.8c0-0.4,0-0.7-0.1-1.1c-3.4-1.2-0.5,3.1-7.3,2.9c-1.8,6.9-3.7,13.9-3.4,21.1   c-2,6.9,4.7,13.4,2.9,20.6c-2-1.2-1.8-3.4-3.6-4.4c0,5.6,0,11.1,0,16.6c-13.5,4.1-12.6-9.7-13.8-18.8c-0.1-8-2.6-15.7-2.4-23.6   c2.1,2.3,2.4,11.8,5.4,11.7c-1.8-4.5-3.4-9-4.2-13.8c-0.5-0.1-0.8-0.2-1.2-0.3c0-4.6,0-9.2,0-13.9c0.2,0,0.5,0,0.7,0   c3.1,3,6.9,4.3,11.2,5.3c0.4-0.5,0.9-1,1.5-1.6c-3.5-2.2-7.4-2.5-11.1-4.4c-1-1.7-2.3,0.1-3.4-0.2c-0.1-0.4-0.2-0.8-0.3-1.3   c-4.2,1-7.7,3.3-12.3,3.2C445.6,316.7,445.7,317.1,445.8,317.4z M474.2,318.4c3,0.9,4.2,0.9,6.9,0.1   C478.9,317.1,476.3,317,474.2,318.4z M464.7,345.8c1.1,2.2,1.4,3.8,3,5C466.6,346.9,466.6,346.9,464.7,345.8z M470.2,325.5   c0.8-0.6,0-2.4-1-1.5C468.9,324.8,469.5,325.5,470.2,325.5z M468.4,352.7c-0.4,0.5,0.2,1.1,0.3,1.6c0.3-0.1,0.6-0.2,0.9-0.4   C469.2,353.4,469.2,352.4,468.4,352.7z M458.3,296.2c0.2,0,0.4,0,0.5-0.1c-0.1-0.5-0.1-1-0.2-1.5c-0.2,0-0.4,0-0.5,0.1   C458.2,295.2,458.3,295.7,458.3,296.2z" />
	<path fill="#B1B6B7" d="M468.2,554.6c3.6-2.2,6.3,1.4,9,3.4c11.7,7.6,12.1-0.6,19.1-7.7c-0.5-0.6-1-1.2-1.6-2   c0-0.7,0.1-1.6,0.2-2.9c0.9,0.3,1.6,0.6,2.4,0.9c1.6,3.7,2.1,7.8,3.1,11.6c1.2,0.4,1.6-0.2,1.9-0.9c1.7,1.5,0.9,6.7,3.8,3   c1,0.4,1.7,0.8,2.8,0.7c0.4-0.9,0.8-1.8,1.2-2.8c1.1,0.8,1.3,2.9,3.4,1.8c0.1-0.5,0.3-1.1,0.5-1.9c0.5,0.2,1.1,0.4,1.8,0.6   c0.5-0.4,1-0.9,1.6-1.5c3,0.9,6,0.5,9.1,0c3.3,2.2,3,6.1,2.7,9.4c0.9,9.9-11.3,9-17.8,11.5c-6,2.7-11.3-2.7-16.9-2.1   c-9.3,5.8-17.6,4.6-27.6,1.6c-0.5-1.4-0.1-2.4,0.5-3.4c1.7-2.8,1.3-6.2,2.3-9.2C468.8,561.4,469.1,557.9,468.2,554.6z" />
	<path fill="#9BA0A1" d="M468.2,554.6c0.9,3.3,0.6,6.8,1.5,10.1c-1,3-0.6,6.4-2.3,9.2c-0.6,1-1,2.1-0.5,3.4c10,3,18.3,4.2,27.6-1.6   c15.5,3.5,15.6,3.3,31.5-1.9c-4.4,8.2-15.5,8.5-23.7,7.2c-13.3-1.1-28,8.9-40.4-1.3c1.3-6.7,6-12,4.8-19.2   C467,558.6,466.5,556,468.2,554.6z" />
	<path fill="#1B121C" d="M478.2,245c8.7-0.4,17.5-0.2,26.2,1.1c0.2,1.9,0.5,3.9-0.6,5.7c-1-0.9-0.9-2.1-0.9-3.3c-0.1,0-0.3,0-0.4,0   c-0.1,1-0.3,2-0.5,3.5c-0.7-1.9-1.1-3.1-1.6-4.5c-1.2,1.6,0.5,2.9,0.3,4.4c-0.5,0-1,0-1.5-0.1c0.2-1.8,0-3.5-0.7-5.2   c-1.2,0.4-0.7,1.5-0.9,2.2c-0.3,0.9-0.7,1.8-1.1,2.8c-1.7,0.8-0.7-2.7-1.9-1.2c-1.4-0.9-0.1-2.8-1.3-3.8   c-7.5-0.3-15.3,0.8-22.6-0.9c0-0.2,0-0.4,0-0.6c1.1,0,2.1,0,3.2,0.1C475.2,246,476.7,245.9,478.2,245z" />
	<path fill="#F4F5F5" d="M476,552.1c4.9,0.8,10.4,2,14.8-0.8c1,1.8-2.6,4.5-3.3,6.5c-4.8,1.4-9-1.9-12.3-4.9   C475.5,552.6,475.7,552.4,476,552.1z" />
	<path fill="#0C0810" d="M459.7,315.1c-0.8,0-1.2,0.1-2.1,0.3c-1.3,7.9,1.3,17.2-1.1,24.5c-0.1-8.3,0.4-16.4-0.2-24.8   c-3.5,1.7-6.9,2.8-10.6,2.4c-0.1-0.3-0.3-0.7-0.5-1.3c4.5,0.1,8.1-2.2,12.3-3.2c0.1,0.5,0.2,0.9,0.3,1.3c1.1,0.3,2.3-1.5,3.4,0.2   C460.6,314.4,460,314.3,459.7,315.1z" />
	<path fill="#524986" d="M482.8,246.5c3.4,0,6.9,0,10.3,0c1.3,1-0.1,2.9,1.3,3.8c-0.1,0.4-0.3,0.9-0.4,1.5c-1.8-0.7-1.4-2.4-2.3-3.5   c-0.7,1.9,0.5,3.4,0.6,5c-0.8,0-1.7,0-2.5,0c0.4-0.4,0.8-0.8,1.2-1.3c-0.6-0.2-1.1-0.3-1.7-0.5c-0.4-1.2,0.2-2.9-1.3-3.4   c-0.2,1.2-0.5,2.4-0.7,3.6c-0.7,0-1.2-0.1-1.8-0.1c-0.4-1.4-0.9-2.7-1.3-4.1c-0.1,0-0.2,0.1-0.4,0.2c-0.1,0.3-0.2,0.7-0.3,1   C482.6,248.2,483,247.3,482.8,246.5z" />
	<path fill="#2E2625" d="M504.4,241.2c-2.3-5.2-3.4-10.9-9.2-13.4c0-0.3,0-0.5,0.1-0.7l0,0c6,1.2,9.5,7.4,10,13.2   C504.9,240.6,504.6,240.9,504.4,241.2z" />
	<path fill="#241D3D" d="M458.9,329c0.4,0.1,0.7,0.2,1.2,0.3c0.7,4.8,2.4,9.3,4.2,13.8C462.4,344.4,458.9,330.8,458.9,329z" />
	<path fill="#352D53" d="M500.6,251.8c0.3-1.5-1.5-2.8-0.3-4.4c0.5,1.3,1,2.6,1.6,4.5c0.2-1.6,0.3-2.6,0.5-3.5c0.1,0,0.3,0,0.4,0   c-0.3,1.7,0.6,2.7,1,4.1C502.7,252.6,501.5,253,500.6,251.8z" />
	<path fill="#484C4C" d="M503.6,560.1c-0.3-1.1-0.5-2.2-1.4-3.1c0-2,0-4,0-6.8C504.1,553.8,503.9,556.9,503.6,560.1z" />
	<path fill="#50437A" d="M497.4,248.8c0.2-0.7-0.3-1.8,0.9-2.2c0.7,1.7,0.9,3.4,0.7,5.2C497.5,251.3,497.6,249.9,497.4,248.8z" />
	<path fill="#3A2A25" d="M503.7,394.7c0.5-0.1,0.9-0.1,1.4-0.2c0.1,1.3,0.6,2.7-1,3.8C503.4,397.1,503.8,395.8,503.7,394.7z" />
	<path fill="#544492" d="M475.1,373.9c1.8,0.1,3.9-0.5,5.4,0.7C478.7,374.5,476.8,374.9,475.1,373.9z" />
	<path fill="#909C9C" d="M476,552.1c-0.3,0.3-0.5,0.5-0.8,0.8c-0.8-0.6-1.6-1.1-3-2.1C474.4,550.6,474.6,551.1,476,552.1z" />
	<path fill="#666F70" d="M507.7,560.7c-0.5-0.2-1.1-0.4-1.6-0.7c0-0.9,0-1.8,0-2.7c0.1,0,0.3-0.1,0.4-0.1   C506.9,558.4,507.3,559.5,507.7,560.7z" />
	<path fill="#524986" d="M495.3,253.3c-0.6,0-1.2,0-1.7,0C494.1,252.4,494.7,252.5,495.3,253.3z" />
	<path fill="#524986" d="M497.6,253.3c-0.6,0-1.1,0-1.7,0C496.5,252.6,497,252.6,497.6,253.3z" />
	<path fill="#B28C7D" d="M516.1,248.7c-2.1-0.4-2.9-2-4.4-3.5c0.6-0.8,1.3-1.6,2-2.5c-1.4-2.1-1.4-2.1-4-3   c-1.8-5.1-6.1-8.2-9.1-12.6c2.7-3.9,13.1,9.3,15.8,8.2c24.4-10.7,28.9-24.4,40-46.6c2.7,0.3,4.6,0.3,6.8,1.3   c2.3-1.3,4.1-0.6,3.6-4.5c-10.3-6.9-23.5-8.8-32.6-18.4c6.6,1.5,16.6,6.9,21.9,0.4c-4.6-3.9-12-4.1-17.6-6.9   c-14.2-8.3-1.8-5.6,4.4-23.8c23.7,5.9,33.7,28,42.9,48.3c3.9,8.2-6.4,14.7-10.3,21c-14.1,17.1-31.9,28.4-51.8,37.1   c0.1-0.4,0.3-0.9,0.6-1.7c-1.6,0.5-3.3-0.6-4.4,1.3c1.4,0.6,2.7,0.4,3.9,0.3C521.7,245.3,519.9,248.3,516.1,248.7z M580.9,184.3   c-0.9,2.5-0.9,2.5,0.5,3.3C582,186.6,582.1,185.6,580.9,184.3z M566.4,172.4c-0.7-0.6-0.9-1-1.6-0.4   C565.2,172.9,565.4,173,566.4,172.4z M559.5,170.2c-0.6-0.5-1-1.1-1.5-0.5C558.2,170.7,558.5,170.7,559.5,170.2z M531.8,237.6   c0.4,0.1,0.6,0.4,0.9,0C532.4,237.2,532.2,237.1,531.8,237.6z M528.8,239c-0.4-0.1-0.7-0.4-1,0C528.2,239.5,528.4,239.4,528.8,239z   " />
	<path fill="#977264" d="M560.9,189.2c-1.4-0.1-2.7-0.3-4.5-0.5c-7.1,12.8-11.4,27.1-23.1,36.7c-5.3,2.7-9.4,7.6-15.5,8.7   c-0.9,0.5-2.3,2.6-3.3,0.7c19.2-7.2,30.4-28,36.6-46.8c0.8-0.4,1.6-0.8,2.3-1.2c2,0.2,3.7,1.5,5.7,0.5c-12.1-6-27.8-10.8-36.5-22.9   c0.3-0.9,0.5-1.9,0.7-2.4c3.1-2.8,5.4-4.9,8.3-7.4c0.3,2.8,4.3,3.5,6.1,5.3c-1.6,1.5,2.1,6.7,4.3,6c-1.2-1.9-2.4-3.6-3.5-5.3   c5.6,2.8,13,2.9,17.6,6.9c-5.3,6.6-15.2,1.1-21.9-0.4c9.1,9.6,22.3,11.5,32.6,18.4c0.5,3.8-1.3,3.2-3.6,4.5   C563.8,188.2,560.7,186.7,560.9,189.2z M543.4,164.5c-0.6,1.5,3.2,4.5,4.1,3.4C546.6,166.3,546.6,166.3,543.4,164.5z M553,169.3   c0.1-1.2,0.1-1.8-1.3-1.4C552.1,168.4,552.4,168.7,553,169.3z" />
	<path fill="#171717" d="M503,199.3c0.5,8.3-2.5,17.8,0,25.5c-0.3,0.3-0.7,0.7-1,1c-1-0.3-1.9-0.7-2.9-1c1.9-8.5-0.6-17.9,3-26.3   C502.4,198.7,502.7,199,503,199.3z" />
	<path fill="#D2CED7" d="M523.1,155.4c-2.4-4.8,0.8-7.7,3.8-11.6c0.4,0.5,0.8,1.1,1.4,2c0.1,1,0.1,2.2,0.2,3.8   c0.6,0.5,1.4,1.2,2.1,1.8c-1.3,1.9-3,3.4-4.9,4.6c-0.9-1.5,1.5-3.2-0.6-4.6C524.4,152.8,523.7,154.1,523.1,155.4z" />
	<path fill="#352927" d="M502,225.7c0.3-0.3,0.7-0.7,1-1c4,1.9,7.7,4.6,10.9,7.7c-0.3,0.3-0.6,0.5-0.9,0.8   c-4.1-1.7-6.5-5.6-10.8-6.9C502.2,226.1,502.1,225.9,502,225.7z" />
	<path fill="#D2CED7" d="M530.7,151.3c0.2-0.2,0.4-0.5,0.7-0.7C531.2,150.8,530.9,151.1,530.7,151.3z" />
	<path fill="#251E1D" d="M499.8,223c-0.2,0.6-0.4,1.2-0.7,1.8c-2.4-1.6-4.8-3.2-6.4-5.8c-0.3-0.6-0.8-1.4-2-0.8c0,1.3,0,2.6,0,4.1   c1,0.6,2,1.2,3,1.7c0.5,1,1,2.1,1.5,3.1l0,0c-0.3,0.1-0.5,0.1-0.8,0.2c-4-2.1-9.1-9.5-2.2-11.4C494.4,218.5,496.2,221.9,499.8,223z   " />
	<path fill="#A78577" d="M493.7,224c-1-0.6-1.9-1.1-3-1.7c0-1.5,0-2.8,0-4.1c1.2-0.6,1.6,0.2,2,0.8c2.2,3.3,5.5,5.7,9.2,6.8   c0.1,0.2,0.2,0.4,0.2,0.6c-0.6,0-1.3,0-1.6,0.8C498.4,225.9,496.4,223.8,493.7,224z" />
	<path fill="#9E7D70" d="M322.9,162.2c-0.3,0-0.5,0-0.8,0c-1.5-5.7-4.1-11.5-3.6-17.5c0.6,0.2,1,0.3,1.4,0.5   c-0.1,2.2,0.1,4.4,1.6,6.2C321.1,155.2,323.6,158.5,322.9,162.2z" />
	<path fill="#A58274" d="M482.2,59.5c0.2,0,0.5,0,0.7,0l0,0c-0.2,1.2,0.2,2.1,0.8,3.1c-0.3,0.5-0.5,0.9-0.8,1.4   c-0.6,0.1-1.2,0.1-1.8,0.2C480.6,62.3,482,61.1,482.2,59.5z" />
	<path fill="#3D2F2A" d="M316.7,159.9c0.7,2.6,2.4,5.1,2.3,7.8c-1.1,1.3-0.7,3.1-0.8,4.7c-0.8-4.2-1.4-8.3-2.4-12.4   C316.1,159.9,316.4,159.9,316.7,159.9z" />
	<path fill="#7D6358" d="M483.6,62.6c-0.6-1-1-1.9-0.8-3.1c0.4-0.4,0.8-0.8,1.2-1.1c0.4,0.6,0.7,1.2,1,1.8   C484.6,61,484.1,61.8,483.6,62.6z" />
	<path fill="#2D231F" d="M318.3,147.6c1.2,7.3,4.4,12.8,3.8,20.5c-2.1-6.9-4.1-13.5-4.5-20.6c0,0,0,0,0,0   C317.8,147.5,318,147.5,318.3,147.6z" />
	<path fill="#63534D" d="M317.6,147.5c0,0.8-0.1,1.6-0.1,2.4c-0.9-0.6-0.6-1.5-0.7-2.3C317,147.6,317.3,147.5,317.6,147.5z" />
	<path fill="#D5D2DC" d="M456.7,226.9c-1.5-1.1-1.1-2.5,0.2-4.1c-4.3-15.3,0.4-31.1-2.1-46.3c-3.6-18.5,0.2-37.5,0.9-56   c0-1.7-0.4-4.6,2.1-4.6c2.8-0.8,2.7,20.1,3.4,23.1c2.6,17.4-1.2,34.3-1.7,51.7c0.5,0.8,1,1.5,1.6,2.5c-1.8,13.7-0.7,27.8,0.7,41.3   C458.5,240.4,455.6,229.9,456.7,226.9c1.5-0.8,0.9-1.8,0.3-2.8C456.5,225.5,456.5,225.5,456.7,226.9z M456.9,200.9   c0.9-1.5,3.1-15,0.6-14.6C456.7,190.8,454.5,198.5,456.9,200.9z M457.6,209.5c2.1-2.6,2.9-5.4,0.8-8.5   C457.1,204.1,457.2,206.5,457.6,209.5z M458.7,211.8c-1.1,1.5-1.8,3-0.1,4.8C459.2,214.8,459.5,213.3,458.7,211.8z M458.9,180.3   c-0.4-0.1-0.8-0.3-1.2-0.4c-0.6,1-1.1,1.9-0.8,2.9C458.5,182.7,458.5,182.7,458.9,180.3z M459,173.4c-1.1-1.3-2.5,1-1.6,2   C458.6,175.4,458.7,174.3,459,173.4z M457.4,221.6c1.3-1.6,1.3-1.6,0-2.8C457.4,219.8,457.4,220.6,457.4,221.6z M458.8,170   c-0.1,0.1-0.3,0.2-0.4,0.3c0.2,0.4,0.5,0.1,0.8,0C459.1,170.3,459,170.2,458.8,170z M458.4,164c-0.2,0.2-0.1,0.3,0.1,0.4   c0-0.1,0.1-0.3,0.1-0.4C458.5,164,458.4,164,458.4,164z" />
	<path fill="#D5D2DC" d="M475.2,158.5c0.2-3-1.8-5,0.8-7.8c0,0.7,0,1.4,0,3c1.2-1.6,2-2.8,0-3c0.9-0.8,0.9-0.8,2.6-0.7   c1.8,1.4,2,3.4,1.9,5.6c6.2,4.5,7.8,13,12.4,19c2,5,6.6,7.1,6.8,13c-0.7,0.7-1.6,1.5-2.3,2.3c-7.9,1.7-12.5-3.3-15.6-9.8   c-3.6-4.1-3.6-4.1-4.6-8.9c-0.5-0.7-1.9-0.1-1.9-1.5c0.4,0.1,0.9,0.1,1.5,0.2c-0.3-3.9,0.7-8.1-0.5-11.4   C476,158.5,475.6,158.5,475.2,158.5z M481.8,178.1c1-2.3,0.9-3.5-0.3-5.1C481,174.6,481,176,481.8,178.1z M483.8,179.3   c0,0.7,0.1,1.2,0.1,1.7C485,180.9,485.2,179.7,483.8,179.3z M488.8,185.9c-0.2-0.5-0.5-0.5-0.9-0.2   C488.1,186.2,488.4,186.1,488.8,185.9z" />
	<path fill="#D4D1DB" d="M475.1,111.2c-0.2,0.8-0.8,0.8-1.5,0.9c-6.5,1.9-4,8.6-12.3,1.3c0-1.2,0-2.1,0-3.1c3-4.3,7.5-4.6,12.6-4.4   c0.8,0.8,1.8,1.7,2.7,2.6C476.2,109.7,476.2,110.7,475.1,111.2c0-0.4,0-0.7,0-1.1c-1.1-0.6-1.7-0.2-2.2,1.3   C473.7,111.2,474.4,111.2,475.1,111.2z M469.4,111.7c-1.7-1.3-7.2,1.7-3.9,3C466.5,114,468,113.6,469.4,111.7z" />
	<path fill="#D4D1DB" d="M446.6,113.5c-2.4-0.1-5.3,0.7-7-1.5c0.4-0.1,0.8-0.2,1.4-0.3c-0.8-0.7-1.2-0.4-1.4,0.3   c-6.9-7.4,9.5-6.8,8.4,0.2C446.5,112.1,446.5,112.1,446.6,113.5z M443.8,113.3c0.3-2,0.3-2-1.3-1.5   C443,112.3,443.3,112.7,443.8,113.3z" />
	<path fill="#101010" d="M475.2,158.5c0.4,0,0.7-0.1,1.1-0.1c1.2,3.3,0.1,7.5,0.5,11.4c-0.6-0.1-1-0.1-1.5-0.2   C474.6,166,475,162.2,475.2,158.5z" />
	<path fill="#1C191A" d="M445.1,161.8c-2-1.9-2.9-6.8-2.3-9.5C445.2,153.2,446.2,159.5,445.1,161.8z" />
	<path fill="#17243E" d="M458.9,245.5c-1.2-0.8-2.6-0.8-4-0.8c4.5-0.9,8.9-0.9,13.3,0c-0.6,0.2-1.4,0.1-1.6,0.9   C464,245.7,461.5,245.6,458.9,245.5z" />
	<path fill="#19191A" d="M444.1,165.3c0.1,2.3,1.4,4.4,0.2,6.8C443.7,169.9,441.9,166,444.1,165.3z" />
	<path fill="#160B10" d="M466.6,245.7c0.7-1.5,2.6-0.7,3.9-0.7c0,0.2,0,0.4,0,0.6c-1,0.1-1.9,0.2-3,0.3c-0.3,1.9,0.9,3.5-0.9,4.8   C466.6,249,466.6,247.3,466.6,245.7z" />
	<path fill="#585457" d="M446.6,113.5c-0.1-1.5-0.1-1.5,1.4-1.3c0.6,0.7,1.1,1.4,1.7,2.2C448.2,115.2,447.6,113.8,446.6,113.5z" />
	<path fill="#393334" d="M440.6,180.8c1.6,1.1,1.6,1.7,0,3C440.3,182.7,440.3,181.9,440.6,180.8z" />
	<path fill="#362122" d="M412.5,109.1c0.7-2.7,2.3-1.8,3.8-0.3C414.7,108.9,413.8,109,412.5,109.1z" />
	<path fill="#666367" d="M397.1,149c1.9,0.7,2.1,1.5,0.8,3.1C397.2,151.2,396.9,150.2,397.1,149z" />
	<path fill="#030202" d="M500,106.8c1.1-0.1,1.9-0.2,2.8-0.2C502.1,108.2,502,108.2,500,106.8z" />
	<path fill="#6858A1" d="M478.2,245c-1.5,0.8-3,1-4.5,0C475.2,245,476.7,245,478.2,245z" />
	<path fill="#421618" d="M478.9,109.9c0.8-0.1,1.5-0.2,2.2-0.3C480.6,111.3,480.6,111.3,478.9,109.9z" />
	<path fill="#7A6E72" d="M396.4,145.3c0.4,0.3,0.9,0.6,1.7,1.2c-0.9,0.2-1.3,0.2-1.8,0.3C396.4,146.3,396.4,145.8,396.4,145.3z" />
	<path fill="#3C2527" d="M420.3,109.5c-0.8,0.1-1.4,0.1-2.7,0.3C418.8,108.7,419.4,108.5,420.3,109.5z" />
	<path fill="#957062" d="M494.4,227.2c0.3-0.1,0.5-0.1,0.8-0.2c-0.1,0.2-0.1,0.5-0.1,0.7C494.9,227.6,494.7,227.4,494.4,227.2z" />
	<path fill="#6C4C4E" d="M442.9,175.6c0.1,0,0.2,0,0.2,0c0,0.2-0.1,0.3-0.1,0.5C442.8,175.9,442.7,175.8,442.9,175.6z" />
	<path fill="#6858A1" d="M466.6,245.7c0,1.6,0,3.3,0,5c1.8-1.3,0.5-2.9,0.9-4.8c5.1-0.4,10.1,0.9,15.4,0.6c0.1,0.8-0.2,1.7,0.7,2.2   c0,0.8,0.1,1.5,0.1,2.3c-1.3,0-2.6,0-3.9,0c-0.5-0.9-0.3-2.6-1.5-2.8c-0.1,1.1-0.2,2.2-0.3,3.4c-1.2,0-2.2,0-3.3,0   c-0.2-1.2-0.3-2.2-0.5-3.2c-0.1,0-0.3,0-0.4,0c-0.2,1.1-0.3,2.2-0.5,3.3c-1.1,0.1-2.1,0.3-3.2,0.4c1.1,0.5,2,0.9,2.9,1.2   c-4.7,0.1-9.3-1.3-14.1-0.7c-1-1-2.4-0.8-3.8-0.9c0-0.2,0-0.4,0-0.6c3.6,0,6.9,1.2,10.6,0.6c0.4-2.1,0.2-4,0.2-5.9   C466.1,245.7,466.4,245.7,466.6,245.7z" />
	<path fill="#544492" d="M424.1,254.3c1.8,0.1,3.9-0.6,5.4,0.6c-2.4,6.2,1.2,14-4,19.5c-1.3-4-2.6-9.6-0.7-13.3   c0.1,0.9-0.2,1.8,0.5,3c0.4-1.4,0.7-2.3-0.5-3C424.9,258.7,425.2,256.4,424.1,254.3z" />
	<path fill="#524490" d="M428.8,251.8c0-1.4-0.4-2.8,0.7-3.9c0.2,1-0.4,2.2,0.8,2.9c1.1-0.7,0.5-2.5,0.9-3.7c2.8-0.4,5.2-0.7,8-0.9   c0.2,4.2,1.4,10.2-1.6,13c-0.6-2.1-0.3-4.1-0.3-5.9c0.5-0.7,1-1.3,1.4-1.9c-1.9-1.4-3.3,0.4-4.9,0.2   C432.2,251.7,430.5,251.8,428.8,251.8z" />
	<path fill="#1C1526" d="M472.9,253.3c-0.9-0.4-1.8-0.7-2.9-1.2c1.2-0.1,2.1-0.3,3.2-0.4c0.2-1.1,0.3-2.2,0.5-3.3c0.1,0,0.3,0,0.4,0   c0.2,1,0.3,2.1,0.5,3.2c1.1,0,2.1,0,3.3,0c0.1-1.2,0.2-2.2,0.3-3.4c1.2,0.2,1,1.8,1.5,2.8c1.4,1,2.8,1.1,4.2,0.3   c-0.1-0.1-0.2-0.2-0.3-0.3c0-1.1-0.3-2.3,0.1-3.3c0.2-0.1,0.3-0.1,0.4-0.2c0.4,1.3,0.8,2.6,1.3,4.1c0.6,0,1.1,0.1,1.8,0.1   c0.2-1.2,0.5-2.4,0.7-3.6c1.5,0.5,0.9,2.2,1.3,3.4c0.7,0.2,1.1,0.3,1.7,0.5c-0.4,0.5-0.8,0.9-1.2,1.3   C484.3,251.8,478.5,253,472.9,253.3z" />
	<path fill="#5A4A93" d="M455.1,251c0,0.2,0,0.4,0,0.6c-3.4,0-6.7,0.1-10.1,0.1c-0.1-1.4-0.1-2.7,0.7-3.9c0.3,1-0.4,2.3,0.8,3.1   c1.1-0.1,2.4,0.6,3.2-0.7c1.2-0.5,0.7-1.5,0.8-2.3c0.6-0.2,1.1-0.5,1.1-1.4c-1.7-0.1-3.3-0.1-5-0.2c3.3-1.3,7.3-0.3,10.9-0.6   c-0.9,0.3-1.7,0.7-2.5,1C454.9,248.2,455,249.6,455.1,251z" />
	<path fill="#362D53" d="M511.8,319.2c0.5,4.3,0.8,7.6-0.6,10.9C510.1,328.6,510.2,320.8,511.8,319.2z" />
	<path fill="#423866" d="M447.4,342.8c1.1-4.5,3.3-6.9,5.5-11C453,334.8,450.4,339.7,447.4,342.8z" />
	<path fill="#453A6A" d="M502.7,269c1.6,2.9,3,5.6,3.3,9.4C503.9,275.2,502.5,271.9,502.7,269z" />
	<path fill="#1F0C16" d="M445,251.8c4.5,0.4,9.8-1.2,13.8,0.7c-4.6,0-9.2,0-13.8,0c0-0.2,0-0.4,0-0.6L445,251.8z" />
	<path fill="#3E345E" d="M510.8,362.5c0.7-2.5,1.5-5,2.3-7.8c1.2,3-0.6,5.5-1.4,8.4C511.4,362.9,511.1,362.7,510.8,362.5z" />
	<path fill="#100C18" d="M457.4,303.5c2.1,1.3,1,4.3-0.2,6c-0.4-0.3-0.7-0.5-1.1-0.8C456.2,306.9,456.6,305.2,457.4,303.5z" />
	<path fill="#3D325B" d="M445.1,251.9c0,0.2,0,0.4,0,0.6c-0.6,0-1.2,0-2,0c-0.4-1.8-1.1-3.5,1-5.3   C444.2,249.2,443.9,250.5,445.1,251.9z" />
	<path fill="#1E192D" d="M459.1,263c-0.4-4.2,0-5.8-0.8-10C460.8,255.7,459.7,259,459.1,263z" />
	<path fill="#342B4E" d="M492.9,265.2c-2-1-2.2-2.5-2.9-3.9C491.9,261.7,491.9,261.7,492.9,265.2z" />
	<path fill="#4B3E72" d="M459.8,271.7c-0.1,1.8-0.2,2.9-0.3,4.1C457.8,274.5,457.8,274,459.8,271.7z" />
	<path fill="#2B2544" d="M498.5,271.4c-2-1.3-2-1.3-1.7-4.4C497.8,268.2,497.8,269.5,498.5,271.4z" />
	<path fill="#241D3C" d="M457.4,299c0.4,0,0.7,0.1,1.1,0.1c0.6,2.4,0.6,2.4-1.1,2.9C457.4,301,457.4,300,457.4,299z" />
	<path fill="#524986" d="M484.4,252.7c1.6-0.1,3.3-0.4,4.7,0.6C487.5,253.2,485.8,253.7,484.4,252.7z" />
	<path fill="#231937" d="M484.4,318.3c0.4-1.7,0.4-1.7,2.2-1.2c0,0.4,0,0.7,0.1,1.1C485.9,318.2,485.2,318.2,484.4,318.3z" />
	<path fill="#2B2340" d="M446.5,251c-1.2-0.8-0.5-2.1-0.8-3.1c0.3-0.2,0.6-0.5,0.8-0.7C446.5,248.5,446.8,249.8,446.5,251z" />
	<path fill="#5A4A93" d="M446.6,250.3c0-1-0.1-2.1-0.1-3.1C447.6,248.4,447.6,248.8,446.6,250.3z" />
	<path fill="#231223" d="M429.6,316c0.6,0,1.3,0,1.9,0c0,0.2,0,0.4,0,0.5c-0.4,0.1-0.9,0.2-1.3,0.3   C430.1,316.5,429.9,316.3,429.6,316z" />
	<path fill="#20182D" d="M450.4,248c-0.1,0.8,0.4,1.9-0.8,2.3l0,0c0-0.8,0-1.5,0.1-2.3C449.9,247.9,450.2,247.9,450.4,248z" />
	<path fill="#5A4A93" d="M449.7,248c0,0.8,0,1.5-0.1,2.3C448.6,249.1,448.6,249.1,449.7,248z" />
	<path fill="#483663" d="M424.9,313.7c0.1,0.1,0.2,0.3,0.4,0.4c-0.3,0.1-0.6,0.4-0.8,0C424.6,313.9,424.8,313.8,424.9,313.7z" />
	<path fill="#010101" d="M451.9,322.1c-0.1,0.1-0.2,0.3-0.1,0.2C451.7,322.3,451.8,322.2,451.9,322.1L451.9,322.1z" />
	<path fill="#010101" d="M452.7,321.3c-0.3,0.3-0.5,0.5-0.8,0.8c0,0,0.1,0.1,0.1,0.1C452.2,321.9,452.5,321.6,452.7,321.3   L452.7,321.3z" />
	<path fill="#010101" d="M452.8,321.3c0.3-0.3,0.5-0.5,0.8-0.8c0,0-0.1-0.1-0.1-0.1C453.2,320.8,453,321,452.8,321.3   C452.7,321.3,452.8,321.3,452.8,321.3z" />
	<path fill="#010101" d="M453.5,320.6c0.1-0.2,0.2-0.3,0.1-0.2C453.8,320.3,453.6,320.4,453.5,320.6   C453.5,320.5,453.5,320.6,453.5,320.6z" />
	<path fill="#30241F" d="M421,459.5c-1.8,3,0.3,6.4-1.9,9.3c-2.6-3.2,0.1-7.5,0.5-11.3c0.5,0.3,1,0.5,1.4,0.7   C421,458.6,421,459,421,459.5z" />
	<path fill="#241B19" d="M442.2,437.7c-2.1-1.3-2.3-2.5-1.5-5.8C442.6,432.1,443.2,436.3,442.2,437.7z" />
	<path fill="#2D2623" d="M437.7,539.9c0.7,1.2,0.7,2.4,0,3.6C436,542.3,436,541,437.7,539.9z" />
	<path fill="#1E1815" d="M442.9,438.8c0.6,1.7,1,2.8,1.4,3.9C442.2,443.8,441.5,440.6,442.9,438.8z" />
	<path fill="#392E2A" d="M440.6,488c0-1.5,0-2.8,0-4.2C441.9,486.4,441.9,486.4,440.6,488z" />
	<path fill="#372824" d="M436.9,535.3c0.6,0.9,0.4,1.5,0.3,2.6C435.6,537.5,435.2,536,436.9,535.3z" />
	<path fill="#312623" d="M441.5,502.5c-0.7-1.4,0.2-2.2,0.9-3.5C443.1,500.6,442.9,501.7,441.5,502.5z" />
	<path fill="#40332E" d="M444.6,500.8c0.7,1.1,0.2,1.8-0.6,2.5C443.4,502,443.4,502,444.6,500.8z" />
	<path fill="#41312C" d="M436.9,506.4c-0.2,1.5-0.3,2.5-1.7,2.5C434.9,507.6,435.6,507.1,436.9,506.4z" />
	<path fill="#493933" d="M439.8,425.8c-0.7-0.7-1.7-2-0.4-2.3C440.4,423.9,440.5,424.6,439.8,425.8z" />
	<path fill="#1E1916" d="M440.9,492.4c-0.6-1.1-0.8-2.1-0.1-3.1C441.7,490.3,441.2,491.4,440.9,492.4z" />
	<path fill="#58433C" d="M438.4,418.3c-0.2-1.1-0.3-1.7-0.4-2.3C440,415.8,439.7,417.2,438.4,418.3z" />
	<path fill="#2C231F" d="M440,426.5c0.8,1.1,0.7,2.1,0.1,3.5C439.4,428.7,439.3,427.7,440,426.5z" />
	<path fill="#48312D" d="M440.3,494.2c1.2,0.8,0.8,1.9-0.5,1.2C439.9,495.1,440,494.7,440.3,494.2z" />
	<path fill="#4A3530" d="M438.1,412.6c-0.8-0.7-0.8-0.9-0.2-1.6C438.8,411.5,438.7,411.8,438.1,412.6z" />
	<path fill="#201D1B" d="M439.8,500.3c-0.5-2,1-2.1,0.4,0C440.1,500.3,439.9,500.3,439.8,500.3z" />
	<path fill="#231B18" d="M389.9,176c2,2.2-0.7,8.5-3.6,8.5C387.3,181.5,388.5,179,389.9,176z" />
	<path fill="#352824" d="M372.9,214.8c0.9,1.9-0.1,3.2-1.2,4.8C370,217.8,371.6,215.9,372.9,214.8z" />
	<path fill="#1B1715" d="M318.2,172.4c0.1-1.6-0.3-3.4,0.8-4.7c0.1,2.6,0.4,5.2,0.1,8C318.2,174.4,318.2,174.4,318.2,172.4z" />
	<path fill="#382D28" d="M321,179c-1.1-0.7-1.4-1.6-0.8-2.8C321.5,177,321.5,177,321,179z" />
	<path fill="#322622" d="M383.8,186.2c0.3,1.5-0.3,2.1-2,2.4C382.5,187.5,382.1,186.3,383.8,186.2z" />
	<path fill="#46352F" d="M373.6,210.6c-0.2,1.4-2.3,1.4-1.6-0.1C372.5,210.4,373.4,210.1,373.6,210.6z" />
	<path fill="#7B6056" d="M322.7,184.5c-1.5-0.8-1.2-1.3,0-1.9C322.7,183.3,322.7,183.9,322.7,184.5z" />
	<path fill="#43312C" d="M375,205.1c-0.5,0.4-0.8,0.7-1.2,1c-1-0.7-0.2-1.1,0.3-1.8C374.4,204.5,374.6,204.7,375,205.1z" />
	<path fill="#5D463D" d="M350.8,217c0.1,0.4,0.2,0.9,0.4,1.5c-1.5-0.2-2-1-2-2.2C349.8,216.6,350.3,216.8,350.8,217z" />
	<path fill="#594B43" d="M378.8,190.4c0-0.5-0.1-1-0.1-1.4c0.2,0,0.3,0,0.5-0.1c0.1,0.5,0.1,1,0.2,1.4   C379.1,190.4,379,190.4,378.8,190.4z" />
	<path fill="#72534B" d="M324.2,191.1c-0.3,0.3-0.6,0.4-0.8,0C323.6,190.7,323.8,191,324.2,191.1z" />
	<path fill="#352B5C" d="M407.2,367.8c-3.7-4.2-2.9-8.6-3.8-13.5c0.3-0.1,0.6-0.2,1-0.4C405.3,358.5,406.2,362.8,407.2,367.8z" />
	<path fill="#201A37" d="M414.7,267.8c-0.3,2.5-1,4.8-2.3,7.2C411.7,272.4,411.7,272.4,414.7,267.8z" />
	<path fill="#1E1815" d="M424.5,432.6c-0.2,1.8-0.3,3.5-0.6,5C421.3,438,422.6,432.6,424.5,432.6z" />
	<path fill="#050404" d="M414,388.4c0.2,1.9,0.4,3.2-0.1,4.6C412.3,391.1,412.3,390.8,414,388.4z" />
	<path fill="#40302A" d="M419.2,475.6c-1.3-1.8-1.3-1.8-0.1-3.6C419.8,473.3,419.8,474.3,419.2,475.6z" />
	<path fill="#3D2C26" d="M419.6,487.7c0-1.4,0-2.2,0-3.2C421.3,486,421.3,486,419.6,487.7z" />
	<path fill="#2B211D" d="M424.2,427.9c0.4,0,0.8,0,1.1,0.1c0.7,1.1,0.2,1.9-0.5,2.8C423.7,430.1,424.3,428.9,424.2,427.9   C424.2,427.9,424.2,427.9,424.2,427.9z" />
	<path fill="#483932" d="M418.9,481.1c0-1,0-1.8,0-2.7C420.4,479.6,420.4,479.6,418.9,481.1z" />
	<path fill="#29221E" d="M421.7,492c0.1,1,0.1,1.7,0.1,2.5C420.9,493.8,420.8,493,421.7,492z" />
	<ellipse fill="#1F1714" cx="425.4" cy="424.4" rx="0.3" ry="1.3" />
	<path fill="#46342D" d="M413.6,383.5c0.7,0.4,0.6,0.9,0.1,1.5C413.1,384.6,413.1,384.1,413.6,383.5z" />
	<path fill="#4D3830" d="M413.8,380.5c-0.3-0.3-0.4-0.6,0-0.9C414.2,379.8,413.9,380.1,413.8,380.5z" />
	<path fill="#3F2B26" d="M317.5,197.2c-0.2,0.1-0.3,0.1-0.5,0.2c0-0.3-0.2-0.7,0.3-0.8C317.3,196.8,317.4,197,317.5,197.2z" />
	<path fill="#3A3537" d="M380.9,149.5c-0.6,1-1.1,2-1.8,3.1C378.4,150.7,379,149.7,380.9,149.5z" />
	<path fill="#807075" d="M384.5,147.1c0,0.4,0,0.7,0,1.1c-0.1,0-0.3,0-0.4,0c0-0.4,0.1-0.7,0.1-1.1   C384.3,147.1,384.4,147.1,384.5,147.1z" />
	<path fill="#6D5CA9" d="M455.1,251c-0.1-1.4-0.1-2.9-0.2-4.3c3.4-1.8,7.3-1,11-1c-0.1,1.9,0.2,3.8-0.2,5.9   C462,252.3,458.7,251,455.1,251z" />
	<path fill="#6556A0" d="M423.3,247.9c1.5,1.1,0.8,3,0.4,5c-0.6-0.5-1-0.8-1.3-1.1C422.4,250.3,422.5,249,423.3,247.9z" />
	<path fill="#231E40" d="M431.2,247.3c-0.4,1.2,0.2,2.9-0.9,3.7c-1.3-0.9-0.5-2.5-0.8-3.7C430.1,247.2,430.6,247.3,431.2,247.3z" />
	<path fill="#77574E" d="M469.1,82.2c-1,0.5-1.2,0.5-1.4-0.5C468.2,81.1,468.6,81.6,469.1,82.2z" />
	<path fill="#544740" d="M466.3,78.2c0.1,0.1,0.1,0.2,0.2,0.2c-0.1,0-0.3,0-0.4,0C466.1,78.3,466.2,78.3,466.3,78.2z" />
	<path fill="#2B201C" d="M447.2,82.3c-0.1,0.1-0.2,0.1-0.2,0.2c-0.2-0.2-0.2-0.3,0-0.4C447,82.1,447.1,82.2,447.2,82.3z" />
	<path fill="#221B18" d="M497.2,468.6c-2.3-2.3-1.1-7.4-2.2-11.4C498.2,459.7,497.9,465,497.2,468.6z" />
	<path fill="#312723" d="M491.7,431.9c1.7,1.8,1.7,3.8,1.6,6C491.6,436.7,491.2,435.2,491.7,431.9z" />
	<path fill="#291D1A" d="M503,393.9c-2-0.8-2.3-3.8-0.6-5.5C503.7,390.4,502.7,392.2,503,393.9L503,393.9z" />
	<path fill="#52413A" d="M496.5,471.3c1.5,2,1.2,3.1,0.6,4.7C495.4,474.2,496.2,474,496.5,471.3z" />
	<path fill="#2A1B19" d="M478.4,547.4c-0.2-1.1-0.6-2.2,0.6-2.9c1.3,0.7,1.1,1.8,0.5,2.9C479.2,547.4,478.8,547.4,478.4,547.4z" />
	<path fill="#4D3934" d="M496.2,483.9c0.6,1.7,1.1,2.8-0.6,3.5C495,486.3,494.9,485.3,496.2,483.9z" />
	<path fill="#473530" d="M494.4,491.7c1,1.4,0.8,2.2-0.3,3.2C493.5,493.8,493.4,493,494.4,491.7z" />
	<path fill="#70574E" d="M501.7,385.2c-0.1-0.9-0.4-1.3,0.4-2.1C503,383.8,503.5,385.3,501.7,385.2z" />
	<path fill="#211715" d="M480.4,534.1c0,1,0,2,0,3.6C479.4,536.2,479.5,535.1,480.4,534.1z" />
	<path fill="#15110F" d="M491,427.8c0.5,1.1,1.3,1.8-0.1,3.2C490.6,429.8,490.3,429,491,427.8z" />
	<path fill="#251917" d="M496.2,480.8c0-0.7,0-1.2,0-1.9C497.5,479.7,497.5,479.7,496.2,480.8z" />
	<path fill="#261D1A" d="M489.9,423.3c1.4,0.6,1.4,0.6,0.2,2.3C490,424.7,489.9,424.1,489.9,423.3z" />
	<path fill="#2B1D1A" d="M479.7,542.1c-1.3-0.7-1.3-0.7-0.7-2.2C480.2,540.3,479.8,541.3,479.7,542.1z" />
	<path fill="#735950" d="M503,379.8c-0.7,1.2-1.7,0.8-1.1-0.4C502.3,379.5,502.6,379.6,503,379.8z" />
	<path fill="#473A34" d="M478.1,512.1c0.5,0,1.1,0.1,1.6,0.1C478.9,513.1,478.8,513.1,478.1,512.1z" />
	<path fill="#402925" d="M481.7,529.9c0.3,0.3,0.3,0.3,0,0.5C481.7,530.3,481.7,530.1,481.7,529.9z" />
	<path fill="#231A17" d="M468.8,497.9c0.8-0.3,1.2-0.4,1.8-0.7c1.1,2.5,1.3,5.1,1.8,7.6C469.9,503.3,469.7,500.6,468.8,497.9z" />
	<path fill="#0E0A09" d="M475.5,432c0.6,2.2,0,4-1.6,5.9C473.1,433.9,473.4,432.8,475.5,432z" />
	<path fill="#45342E" d="M475.4,430.1c-0.4-1.5-0.6-2.6,0.2-3.6C477,428.1,477,428.1,475.4,430.1z" />
	<path fill="#2A1D1A" d="M474.9,508.7c-1.2-1.2-1.2-1.2-0.8-2.7C475.2,506.9,475.2,506.9,474.9,508.7z" />
	<path fill="#241A17" d="M476.1,425.3c-0.6-2.1,1.1-2.2,0.4,0C476.4,425.3,476.2,425.3,476.1,425.3z" />
	<path fill="#07040A" d="M459.7,315.1c1.2-2.1,10.4,2.7,12.7,3.6c-0.6,0.7-1.1,1.2-1.5,1.6C466.6,319.4,462.8,318.1,459.7,315.1z" />
	<path fill="#040408" d="M474.2,318.4c2-1.3,4.6-1.3,6.9,0.1C478.4,319.3,477.2,319.3,474.2,318.4z" />
	<path fill="#1C1125" d="M435.7,317.5c1.5-1.6,4.3-0.8,6.4-1.4c0.1,0.3,0.2,0.6,0.4,1.1C440.2,317.7,438,317.5,435.7,317.5   C435.7,317.5,435.7,317.5,435.7,317.5z" />
	<path fill="#2B2147" d="M492.1,317.4c-0.7-0.1-1.4-0.2-2.2-0.3c2-2.1,2-2.1,3.8-1.2C493.1,316.5,492.6,316.9,492.1,317.4   L492.1,317.4z" />
	<path fill="#302650" d="M464.7,345.8c1.9,1.1,1.9,1.1,3,5C466.1,349.6,465.8,348,464.7,345.8z" />
	<path fill="#352A5A" d="M470.2,325.5c-1,0.1-1.6-1.7-0.4-1.7C470.7,324,470.6,325,470.2,325.5z" />
	<path fill="#322856" d="M468.4,352.7c0.8-0.2,0.8,0.7,1.1,1.2c-0.3,0.1-0.6,0.2-0.9,0.4C468.6,353.8,468,353.1,468.4,352.7z" />
	<path fill="#271F43" d="M458.3,296.2c-0.1-0.5-0.1-1-0.2-1.5c0.2,0,0.4,0,0.5-0.1c0.1,0.5,0.1,1,0.2,1.5   C458.7,296.2,458.5,296.2,458.3,296.2z" />
	<path fill="#0C0810" d="M459.7,315.1c0.2,0.2,0.5,0.4,0.7,0.6C460.2,315.5,460,315.3,459.7,315.1z" />
	<path fill="#2F211D" d="M538.5,160.7c1.1,1.7,2.2,3.4,3.5,5.3c-2.2,0.7-6-4.5-4.3-6C538,160.2,538.3,160.4,538.5,160.7z" />
	<path fill="#1E2D29" d="M523.8,243.3c-1.2,0-2.5,0.2-3.9-0.3c1.1-1.9,2.8-0.7,4.4-1.3C524.1,242.4,523.9,242.9,523.8,243.3   L523.8,243.3z" />
	<path fill="#362622" d="M580.9,184.3c1.2,1.3,1.1,2.3,0.5,3.3C580.1,186.8,580,186.8,580.9,184.3z" />
	<path fill="#1A1311" d="M560.9,189.2c-0.2-2.5,2.9-1,2.4,0.8C562.5,189.8,561.7,189.5,560.9,189.2z" />
	<path fill="#4B3732" d="M566.4,172.4c-1.1,0.6-1.2,0.5-1.6-0.4C565.5,171.4,565.7,171.8,566.4,172.4z" />
	<path fill="#5F453E" d="M559.5,170.2c-1,0.5-1.3,0.5-1.5-0.5C558.6,169.1,558.9,169.7,559.5,170.2z" />
	<path fill="#6C554D" d="M531.8,237.6c0.3-0.4,0.5-0.4,0.9,0C532.5,238,532.2,237.7,531.8,237.6z" />
	<path fill="#280807" d="M528.8,239c-0.4,0.4-0.6,0.5-1,0C528.1,238.6,528.4,238.9,528.8,239z" />
	<path fill="#2D201C" d="M543.4,164.5c3.2,1.8,3.2,1.8,4.1,3.4C546.6,169,542.8,166,543.4,164.5z" />
	<path fill="#332420" d="M553,169.3c-0.6-0.6-0.9-0.9-1.3-1.4C553.1,167.5,553.1,168.1,553,169.3z" />
	<path fill="#242325" d="M456.9,200.9c-2.4-2.4-0.2-10.1,0.6-14.6C460,185.9,457.8,199.4,456.9,200.9z" />
	<path fill="#2A282A" d="M457.6,209.5c-0.4-3-0.5-5.4,0.8-8.5C460.5,204.1,459.7,206.9,457.6,209.5z" />
	<path fill="#080505" d="M458.7,211.8c0.8,1.5,0.5,3-0.1,4.8C456.9,214.7,457.6,213.2,458.7,211.8z" />
	<path fill="#302C2E" d="M458.9,180.3c-0.4,2.4-0.4,2.4-2,2.5c-0.3-1.1,0.2-1.9,0.8-2.9C458.1,180,458.5,180.2,458.9,180.3z" />
	<path fill="#372F31" d="M459,173.4c-0.3,0.9-0.4,1.9-1.6,2C456.5,174.5,457.9,172.1,459,173.4z" />
	<path fill="#151E20" d="M457.4,221.6c0-1.1,0-1.8,0-2.8C458.8,220,458.8,220,457.4,221.6z" />
	<path fill="#1A0D0E" d="M456.7,226.9c-0.2-1.4-0.2-1.4,0.3-2.8C457.7,225.2,458.3,226.1,456.7,226.9L456.7,226.9z" />
	<path fill="#726B71" d="M458.8,170c0.1,0.1,0.3,0.2,0.4,0.4c-0.3,0.1-0.6,0.4-0.8,0C458.5,170.3,458.7,170.1,458.8,170z" />
	<path fill="#6F4C50" d="M458.4,164c0.1,0,0.2,0,0.2,0c0,0.1-0.1,0.3-0.1,0.4C458.3,164.3,458.2,164.2,458.4,164z" />
	<path fill="#0C0C0C" d="M481.8,178.1c-0.8-2-0.8-3.5-0.3-5.1C482.7,174.6,482.8,175.8,481.8,178.1z" />
	<path fill="#474447" d="M476,150.8c2,0.2,1.2,1.4,0,3C476,152.2,476,151.5,476,150.8L476,150.8z" />
	<path fill="#341E20" d="M483.8,179.3c1.5,0.4,1.3,1.7,0.1,1.7C483.8,180.5,483.8,179.9,483.8,179.3z" />
	<path fill="#7A6A6F" d="M488.8,185.9c-0.4,0.2-0.7,0.3-0.9-0.2C488.3,185.4,488.6,185.3,488.8,185.9z" />
	<path fill="#211819" d="M469.4,111.7c-1.3,1.9-2.8,2.3-3.9,3C462.2,113.4,467.6,110.4,469.4,111.7z" />
	<path fill="#392C2E" d="M475.1,111.2c-0.7,0-1.4,0.1-2.2,0.1c0.5-1.4,1.1-1.9,2.2-1.3C475.1,110.4,475.1,110.8,475.1,111.2   L475.1,111.2z" />
	<path fill="#5A4648" d="M443.8,113.3c-0.6-0.6-0.9-1-1.3-1.5C444.2,111.4,444.2,111.4,443.8,113.3z" />
	<path fill="#A3979D" d="M439.6,112c0.2-0.6,0.6-1,1.4-0.3C440.4,111.9,440,112,439.6,112C439.6,112.1,439.6,112,439.6,112z" />
	<path fill="#524986" d="M483.7,251c0.1,0.1,0.2,0.2,0.3,0.3c-1.4,0.8-2.7,0.8-4.2-0.3C481.1,251,482.4,251,483.7,251z" />
	<path fill="#2D234C" d="M424.9,261.1c1.2,0.7,0.8,1.6,0.5,3C424.7,262.9,425,261.9,424.9,261.1L424.9,261.1z" />
</g>
</svg>