<?xml version='1.0' encoding='utf-8'?>
<svg xmlns="http://www.w3.org/2000/svg" version="1.2" baseProfile="tiny" id="Layer_1" x="0px" y="0px" viewBox="0 0 900 600" overflow="visible" xml:space="preserve">
<g id="b_00000109722367756250900170000011512667291960007832_">
	<path display="inline" d="M313,451c-2.7-9.1-4.1-14.6,3.3-21.6c3.7-17,20.9-29.7,36.6-35c0.2-3.3,0.9-6.4-0.2-9.4   c0.9-3.2,4.2-1.6,6.8-2.1c-1.5-16.3-12-31.6-9.3-48c2.3-5.9,4.3-12.5,3.7-18.8c-2.7-15.6,3.7-33.9,15.9-43.9c6-4.4,14.2-2.7,20-7.6   c14.5-13.5,41.1-8,32.3-34.3c0.4-0.9-0.5-2.1,1-2.9c0.4,1.6,0.9,2.4,2.5,2.8c-0.2,6.9,1.2,14.6-3.1,20.5c-3.4,0.8-6.1,4.2-9.5,5.3   c-3.5,27.2,5.9,38.6,31.7,45.3c23.8,3.9,28.9-20,24.7-38.8c-2.3-1.1-4.2-2.6-6.7-3.1c-0.6,2.3-1,4.3-1.5,6.4c-0.8,0-1-0.5-0.9-1.2   c1-4.6-0.6-9.1,0.5-13.6c2.1,0.2,4.5-1,6.1,0.4c-1.4,0.6-2.7,1-4.3,1.4c0,1.2,0,2.2,0,3.3c11,4.2,19.3,12.9,30.3,16.7   c14,3.1,18.9,8.8,25.1,21.6c6.9,10.7-1.3,22.9,2.4,34c10.9,20.1-1.3,41.8,1.9,63.1c15.5,2.7,30.1,9.8,43.8,17.3   c17.8,8.4,20.1,23.3,12.7,40.2c-4.2,9.5-2,20.6-7.8,29.6c-8.1,12.5-16.1,24-18.2,39.4c10,4.6,9,17.6,20.3,24.2   c14.1,9.7,32,1.6,26.5,25.9c-16.3,8.9-35.2,1.7-51.8-2.1c-11.9-1.8-29.5,4.3-36.7-7.9c4.3-9.8,3.9-21,10.1-30.3   c0.8-0.3,1.5-0.6,2.3-1c12.9-34.1-8.1-49.4,11.5-71.4c-3-1.4-6-0.7-8.9-0.2c-4.5,5.3-26.1,15.3-21.7,22.4   c-1.3,8.4-6.6,15.2-10.6,22.5c-9.5,6-19.2-2.8-29.1-1.6c0,14.6-2.2,29.3-1.8,43.9c8,1.7,16.4,0.5,24.2,2.4c1.5,3.4,0.7,6.7-0.1,9.8   c-8.3,2.7-17,0.9-25.4,1.3c-0.4,0.5-0.7,0.9-1,1.4c-3.4,0.4-6.6-0.5-10-0.9c-0.6-1-1.1-2-1.6-2.8c-7.5-0.2-14.8-0.4-22.3-0.6   c0.1-3.2,0.3-6.3,0.4-9.4c7.1-3.7,16.1-0.9,23.9-1.8c-0.1-14.5-0.7-28.8,0.2-43.3c-1.7-0.1-3.2-0.2-4.8-0.3   c-19.8,14.4-35-9.9-40.1-26.9c-23.8,24.2-29.2,2.6-55-5.2c3.1,17.3,3.8,27.9-6.8,42.8c0.5,11.5-2.6,22.9-3.8,34.4   c1.6,0.7,1.9,2.7,3.6,2.8c5,11,5,22.9,12,32.9c-1.1,1.7-2.2,3.3-3.3,5c-4.3,1.4-8.6,2.7-13.1,4.1c0.3,1.4,0.4,2.8,1.3,4.2   c-10.1,12.6-28.5,6.5-42,3.9c-0.6-18.4,6.9-25.4,15.9-40.5c4.2-4.1-0.9-11.8,4.2-14.4c-4.3-26.6-16.1-60.9-7.3-86.8   c2,10-3.5,21.8,0,32.4c4.2,17.9,6.7,35.6,10.3,53.7c3.7,0.9,8,0.5,11.6,2c0.2,1.8,1.2,3.4,0.7,5c0.6,1,2,0.7,2.5,1.9   c0.4,0.9,1.3,1.7,2.7,1.7c-0.1-1.2-0.2-2.3-0.4-3.4c-1.4-0.5-2.7-0.9-3.9-1.3c0.5-1.4,2.4-0.5,2.7-1.9c-0.5-0.2-1-0.3-1.7-0.5   c1-9.2,4.7-18.1,4.7-27.6c0.1-9.2,6.3-16.8,9.1-25.4c3.2-9.1-5.9-26.7-2-33.5c1.3,1.6,1.5,3.7,2.4,5.7c2.2,0.6,4,1.8,6,0.2   c9.2,2.1,18.3,3.1,27.6,0.6c-8.9-18.6-9.1-40.6-24.6-56.3c-20.7-11.3-37.3,5.6-43.3,25.1C309.4,436.8,316,445.2,313,451z    M443.6,468.7c2.5,3.1,5.3,5.9,8.9,7.6c0.2,9.9-11.8,2.2-15.3-1.2c-2.2,3-2.1,6-0.6,9.1c4.6,0.2,9.1,0.8,13.5,0.1   c0.5-0.7,1-1.3,1.5-1.9c4.4-0.6,8.6-0.3,12.7,0.8c0.4,0.6,0.7,1.2,1.2,2c3-0.1,7,0.9,9.6-0.5c-0.4-0.8-0.9-1.6-1.3-2.2   c0.2-2.7,3-3.1,3.7-5.3c-0.2-2.1,1-4,1.7-6c-14.5-8-29.1-19-46.5-16.8c-0.2-0.2-0.5-0.4-0.7-0.6c16.7-7.3,34,7.7,48.6,14.7   c0.1-7.3,1.3-11.1,7.9-15.1c0.9-3.5,1.2-6.4,0.9-9.9c-1,0.1-1.8,0.2-2.7,0.3c-0.2-0.2-0.4-0.4-0.7-0.6c6.8-1.3,3.7-10.3,3.1-15   c-6.4,1.6-12.9,3-19.4,4.4c-0.2-0.2-0.5-0.5-0.7-0.7c6.8-1.8,13.6-3.6,20.3-5.4c0.8-1.7,1.8-7.7,0-8.8c-0.1,0.1-0.3,0.2-0.4,0.1   c0-0.3,0-0.6,0-0.9c4-6.9-1.6-17.1,7.1-26.2c-2.5-1.3-4.9-4-7.8-2.6c0,0.5,0,0.8,0,1.2c-0.2,0.2-0.5,0.5-0.7,0.7   c-4.4-4.6-8.4-8.6-13-2c-13.6,11.2-30.7,22.9-49.1,18.9c-6.6-4.6-16.4-7.2-24.5-6.7c-0.3,1-1.1,1.9-0.4,3c3.4,0.6,6,2.7,8.7,4.6   c0,0.2,0,0.5,0.1,0.7c-2.4-0.7-4.8-1.3-7.5-2.1c0.9,1.9,1.7,3.6,2.4,5.1c4.7,2.5,8.8,5,12.9,8.3c-0.2,0.7-0.8,0.6-1.4,0.7   c-3.2-1.6-6.4-3.3-9.8-5c-0.3,1.8,0.8,2.9,0.9,3.9c4.4,3.2,8.7,6,12.5,9.5c-0.3,0.3-0.6,0.6-0.9,0.9c-3.9-1.6-7-4.2-10.2-6.9   c-0.6,9.8,9.7,14.2,16.7,18.9c0,0.2,0,0.5,0,0.7c-3.5-0.2-5.9-3.2-9.2-3.3c1.4,2.4,2.3,5.3,4.7,7c1.1,3.6,7.8,8.2,11.6,7.5   c-0.1,0.2,0,0.5,0.1,0.7c-0.2,1.2,0.9,1.2,1.5,1.6C438.7,458.9,439.3,465.1,443.6,468.7z M419.5,489.9c-0.8-1.3-1.1-2.6-1.6-4.1   c0.5-0.3,0.8-0.5,1.3-0.9c3,4.2,3.5,9.4,5.6,14.2c1-0.2,1.6,1.2,2.6,0.3c-3.1-6.3-0.3-13.8-4.5-19.5c1.2-1.6-1.7-2.9-0.6-4.8   c1.7,0.8,1.7,0.8,2.6,2.8c-0.2,0.4-0.4,0.7-0.5,1.1c1,0.6,1.8,1,2.8,1.6c1.6,13.3-2.5,24.4,15.9,17.5c-1.7-0.1-2.5-0.8-3.2-1.8   c-1.3,0-2.6,0-3.8,0c-1-1.7-1-1.7-1-3.3c1-0.7,0.5-1.7,0.3-2.5c-1.1-4.2-2-8.4-2.4-12.8c2.6-1.6,0.8-5.6,4.2-6.1   c3.2,4.2,7.9,8.2,13.6,6.1c-5.7-4.2-11.7-8.6-14.1-15.4c-5.8-7.4-16.5-9.1-21.7-17.6c0-0.8,0-1.6,0-2.3   c-10.4-14.3-13.8-31.7-19.7-48.1c-1.8-7.9-12.1-15.5-7.6-24.1c1.1,1.9-0.3,4.1,1.6,5.5c3.1-17.1,5.8-35.9-1.7-52.3   c0.6-1,0.4-2.4-0.2-3.7c0.2-1.2,0.5-2.4,0.7-3.6c4.7,2.1,1.3,9.6,6.1,11.6c7.2-10,9.7-23.1,11.7-35.1c-1.5-0.4-3.4,0.5-4-1   c1.5-0.1,3-0.3,4.6-0.4c0.3-5.9,0.6-11.7-0.8-17.5c-1.1-0.3-2.3-0.5-3.4-0.8c0.1-0.2,0.1-0.5,0.1-0.7c0.9-0.1,1.8-0.2,2.8-0.3   c-1.2-4.2-1.1-8-1.5-12.1c-5.7,0.2-9.2,5.1-13.8,7.7c-5.1,4.2-12.5,2.2-17.4,6.7c-14.1,9.5-17.8,29.7-15.9,45.4   c-11.8,31.8,3.8,37.1,5.2,65.9c6.7,28.8,30.2,49.5,44.5,74.2c2.9,11.7,6.4,24.2,14.6,33.5C420.3,492,419.9,491,419.5,489.9z    M479.5,480.2c-2.5,0-2.6,0.1-2.6,2.7c0.1,3.3,6.6-0.1,8.3-1c1.2-2.6,1.4-5.8,3.7-7.5c4.2,0.7-3.3,6.1-1.2,8.5   c0.7-0.4,1.2-0.7,1.6-1c0.1-1.3,0.2-2.6,0.3-3.9c1.6,1.6,1.1,4.6-0.7,5.8c1.3,5.4,3.7,5.4,0.3,10.9c-1.3,0.5-2.6,1.1-4,1.7   c-0.6-0.1-1.2-0.1-1.4,0.6c-2.3,0.5-8.3-1.8-9.2,0.4c15.6,8.6,18.5-1.8,26.2-12.5c-6.8-36.9,16.5-57.8,18.3-90.4   c-1.3,3.2-1.4,6-3.1,9.3c0.2-5.9-0.3-12.9,3.4-17.6c0-10.1-2-18.9,2.3-28.6c2.6-13.8-3.5-25.5-5.3-38.8c-1.6,1.6-2.1,5.4-4.3,4   c3.2-3.8,0-9.9,5.7-11.7c2-12.5-5.2-26.7-16.2-32.6c-7.2-2.7-14.9-3.7-21.1-8.6c-1.1-0.5-1.6-2-3-1.4c4.9,22,6.6,44.6,11.8,66.6   c7.2-8.5,15.2-18.5,14.6-30.9c0.4-0.1,0.9-0.1,1.3-0.2c3.9,5.1-7.9,29.4-13.4,32c-1-0.1-1.6,0.2-2.2,1.7c1-0.5,1.6-0.7,2.1-1   c-0.2,16.3-2,34.8,5.5,49.6c0.4-0.6,0.7-0.9,1-1.3c1.7,4-0.2,8.9-2.5,12.4c-6.1,17.1-1.1,35.6-4.4,53.2c0.6,0.2,1.1,0.4,1.7,0.7   c-2.7,4.6-9.1,7.1-9.8,12.7c0.9,5.4-4.1,8.9-3.6,14.4c0.6,0.2,1,0.3,1.5,0.4c0.3,0.4,0.6,0.8,0.9,1.2c0,0.3-0.1,0.5-0.1,0.8   c-0.2,0.1-0.5,0.1-0.7,0C480.8,480,480.2,480,479.5,480.2z M510.2,436.8c-3.3,4.9-5.5,10.7-5.2,16.6c2-2.6,2-5.7,2.5-8.6   C508.4,442.1,510.3,439.6,510.2,436.8c9.7-12.3,11.8-33.3,29.9-36.5c-5-3.9-11.7-3.9-17.5-6c-0.2,14.6-6.6,27.1-11.8,40.3   C509.9,435.2,510.2,436,510.2,436.8z M451.3,551.8c10.6,2.5,22.7,2.4,33.9,1.8c0.4-2.5,1.6-4.8,0.5-7.4c-10-0.9-19.3-0.1-29.4-0.9   c-3.2-1.6-7.7-0.1-11.3-0.7c-3.3-1.7-7.5,0.3-11-1.3c-1.5,0.1-2.9,0.7-4.5,1c0.2,2.6-1.4,4.7-0.4,7.4   C436.4,551.8,443.9,551.6,451.3,551.8z M302.9,586.6c0,1.9,0.8,4-0.5,5.7c-0.8,0.4-0.7,1.1-0.5,1.9c12.1,1.8,26,6.3,36.6-1.9   c0.2-2.9-2.8-12.8,1.3-12.7c0,1.8,0.1,3.7,0.1,5.6c4.8-1.1,10.4-2,13.9-5.9c-8.9-12.7-4-14.8-9.1-25.1c-3.6,2.4-6.3-2.6-9.5-2.7   c0.3,0.5,0.7,1.1,1.1,1.8c-2.5,2.2-18.4-0.2-18.1,2.7c24.5-0.8,18,7.4-1.7,3.1c-4.8,2.6-5.5,9.7-8.7,13.9   C305.4,577.2,300.5,581.3,302.9,586.6L302.9,586.6z M446.3,486.5c-1.6,0-3.3-0.2-4.9,0c-1.6,0.2-3.1-1.4-4.8-0.3   c1,9.5,3.1,4.4,7.4,9.3c3.7,0.4,7.8,0.1,11.6,0.2l0,0c0.5,1,1.4,0.6,2.2,0.6c4.9-0.3,9.7,1.4,14.5,0.6c0.4-0.6,0.8-1.2,1.2-1.7   c5.5-0.6,10.4,1.7,14.9-2.1c-0.2-1.8,0.2-3.7-0.3-5.8C474.2,488.1,460.2,486.6,446.3,486.5z M331.6,544.6c-3.3-1.3-6.5,0.2-9.7-1.4   c-1.9,2.8-1,5.4-1.1,8.7c3.9-1.6,8.2-0.9,12.1-0.9c-0.1-2.2-0.3-4.2-0.4-6.2C332,544.6,331.8,544.6,331.6,544.6z M360.3,394.9   c-7.1,1.1-14.8,2.4-19.6,8.2c28.4-6.4,34.1,26.1,40.7,46.5c1.3,10.5,10.1,17.5,14,26.6c3.6-2.8,7-5.4,10.6-8.2   c-0.3-3.2-1.1-6.4-3.1-9.1c-5.6,0.6-10.6-1.9-15.9-2.6c5-0.9,9.5,0.8,14.5,0.2c-0.8-3-2.3-5.3-5.4-6.5c0.4-0.3,0.7-0.4,1.2-0.7   c-3.8-4.9-8-9.2-11.9-13.9c-0.6,0.2-1,0.4-1.4,0.6c-1-1.1-1.7-2.2-1.3-3.7c-10.4-14.4-18.2-31.2-24.5-47.3   c-0.6,0.3-1.4,0.5-2.2,0.9c0.2,2.8-0.4,5-0.2,7.7c1.8-0.1,3.5-1.5,4.9,0.5C360.7,394.3,360.5,394.6,360.3,394.9z M527.3,531.8   c-0.6-0.4-1.2-0.8-2-1.2c-0.3,1.3,0.3,1.7,1.1,2c7.3,10.7,11.9,5.7,20.8-0.6C540.6,532.1,533.9,533.6,527.3,531.8z M362.6,467.4   c-0.2-0.6-0.5-0.9-1.3-0.3c8.1,3.9,16.1,8.9,23.9,13.9c11.2-1.9,7.5-8.9,1.4-14.3C378.3,468.6,370.8,469,362.6,467.4z M457,498.6   c-1.1,0-2.3-0.3-3.5,0.4c-0.2,14.5-1.5,29-0.5,43.5c2.5,0,4.7,0,7,0c2.4-14.2,2.6-29.4,2.4-43.9C460.5,498.6,458.7,498.6,457,498.6   z M487.4,354.6c0.8-2.1,1.9-3,1.3-5.5c-4.6,11.3-10.5,21.5-12.2,33.9c2.8-0.4,5.3-0.9,8.1-0.5c0.6,6.1,4.3,2.1,7.9,3.9   c0.6,0.2,1.2,1,1.9,0.2C490.8,376.3,487.6,365.6,487.4,354.6z M395.9,331.1c-0.4,0-0.9,0-1.4,0.1c1,13.4,0.7,26.8-1.5,40.1   c-3.3,8.1,2.3,16,5.9,23.3c7.3,3,14.3,6.1,22,7.4c17.8,9.9,39.6-5.1,53.7-16.2c-0.4-6.7,1.3-14,4.5-20c-0.2-0.8-0.3-1.3-0.6-2.2   c4.3-7.4,8.1-15.2,10.4-23.9c-0.4-0.6-0.9-1.3-1.4-2.1c-2.3-0.1-4.2-0.8-6.3-2c2-0.3,3.9,0.7,5.6-0.2c-0.6-10.6-3.5-20.7-6.3-30.9   c-1.4-13-2.2-25.8-5.5-38.7c-0.8-0.5-1.6-1.6-3.2-1.6c9.6,40.1-24.1,50.5-52.2,28c-9-9-9.4-23.5-9.8-35c-1.1,0.3-2.4,0.9-3.4,1.5   c5.4,25.3,2.9,47.8-10.1,70.5c0.8,0.4,1.5,0.9,2.3,1.4C397.8,331.1,396.9,331.2,395.9,331.1z M547.9,449.7c0.4,0,0.9-0.1,1.3-0.1   c0.2,0.2,0.5,0.4,0.7,0.7c-3.7,2.5-7.5,4.6-12,5c-10.7,13.3-9.9,24.5-7,40.1c-0.8,10.9-2,21.6-5.2,32.2c0.3,0.4,0.6,0.9,0.9,1.4   c1.2,0,2.4,0,3.4,0c1-2.1,0.7-3.9,2.9-5.1c0,2,0.1,3.6,0.1,5.3c5.2,0,9.8-0.3,14.9-1.7c1.6-17.9,9-33.7,18.3-48.8   c0.4,0.1,0.8,0.2,1.3,0.4c2.3-3,3.3-6.6,4.4-10.1c-0.3-0.6-0.5-1-0.7-1.3c3.6-18.6,18.8-37.8-0.2-52.8c-7.7-7.3-19.5-7.7-28.3-13.1   c-10.3,3-16.1,8.8-20.2,18.5c-5.2,10-14.2,20.8-13.6,32.4C521.9,450.3,535.7,453.7,547.9,449.7z M598.2,562.4   c-0.3-3.3-0.8-6.5-2.2-9.7c-6.2-0.5-11.7-1.6-17.1-4.8c-0.8,0.3-1.6,0.6-2.5,1c0-1.1,0-2,0-2.9c-1.2-1-2.3-2-3.7-2.4   c-1.4,0.9-2.5,2.1-4.4,1.3c0.3-1.2,0.6-2.2,0.9-3.4c-0.9-0.4-1.7-0.8-2.5-1.1c-2.4,1.1-4.1,3.7-6,0.1c0.7-1.1,2.3-2.1,2.4-3.5   c-0.2-0.2-0.5-0.4-0.7-0.6c-2.3,0.2-4,2.7-6.6,1.5c0.6-2.8,2.4-4.3,4.7-5.7c-1.8-3.4-3.5-6.6-5.2-9.8c-0.7-0.3-1.3-1-2.2-0.6   c-1.2,3.7-3,6.9-2.5,10.9c-11.6,9.4-18.5,15-28.1-0.4c-5.9,7.6-4.3,17.4-8.9,25.7c7.6,7.7,24.5,3.6,35,5.1   c15.9,3.7,33.1,9.2,49.1,3.7C598.7,565.3,599.3,563.9,598.2,562.4z M504.4,469.2c6.4-6.2,11-9.6,18.6-13.9   c-5.4-0.1-10.2-0.2-15.2,0.3C507.4,460.1,505,464.1,504.4,469.2z M454.7,484.1c2.7,0.2,5.3,1.8,8.3,0.6   C460.1,483.7,457.4,483.3,454.7,484.1z M341.6,552.3c1.9,0,2.1-0.3,1.5-3.3C342.5,550.3,342,551.3,341.6,552.3z M483.4,485.2   c0.9,0.7,1.4,0.3,1-0.4C484.1,484.9,483.8,485,483.4,485.2z" />
	<path display="inline" fill="#FBDFD3" d="M466.1,250.8l-0.2-0.1l-0.2,0.1c-4.4-1.1-9-0.1-13.3-2.1c-0.8-0.3-1.6-0.3-2.4,0.1   c-6.1-2.7-10.6-8.2-16.8-11.5c-1.5-4-2.2-8-1.9-12.5c-1.5,0-2.1,0.3-2.9,1.4c-0.8-1,0.3-2.3,0.2-3.5c-1.1-0.1-2-0.2-2.8-0.3   c-0.2-0.4-0.5-0.8-0.7-1.2c0-0.3,0-0.7,0-1.1c2.8-0.1,3.9-0.8,3.6-3.8c0.5,0.5,0.9,1,1.4,1.5c0.1,0.6,0.1,1.2,1.3,1.1   c3.5-7.9,6.2-16.2,10.7-23.9c1.2-0.1,2.2-0.2,3.2-0.2c-0.1-0.5-0.2-0.8-0.3-1c1-0.6,1.9-1.1,2.8-1.7c0.8-0.3,0.8-1.5,2-1.4   c1.3,0.1,1.2-1.3,1.4-1.9c1.3-0.8,2.4-1.2,3.9-1.7c1.7,0.4,3.5,1.2,5.4,0.4c3.6,0.5,7.3,0.7,11.1,0.5c0.8,4.2,0.6,8.6,3.3,12.1   c-0.1,1-0.3,1.9-0.4,2.7c-5.6,1.8-11.7,6.2-7.5,12c0.1-1.4,0.2-2.7,0.3-4.3c2.8,0.9,4.8-0.6,7.4-0.6c0.1,0.2,0.1,0.4,0.1,0.7   c-0.3,0.1-0.6,0.2-1.1,0.3C473.4,223.3,472.9,239.5,466.1,250.8z M459.8,239.4c-0.1,3.5,6,1.5,8.2,0.7c-0.2-0.7-0.3-1.3-0.4-1.8   c0.5-1.4,1.2-2.6,2.3-3.7c1.2-4-11.8-0.1-14.3-0.3C455,238.1,459.8,235.7,459.8,239.4z M452.7,207.5c-2.2,1.7-5.8-0.2-6.8,3.1   c3.7-0.2,7.3,0.6,10.7-0.3c0.5-0.9,0.9-1.7,1.4-2.5c0.9,0.2,1.8,0.7,2.7-0.4c-0.3-0.8-0.7-1.7-1.1-2.7c-2.8-0.9-5.1-1.3-7.9-0.6   c-2.8-1.4-5.5,1.3-7.8,2.5c0.2,0.5,0.4,0.8,0.6,1.2c1.6-0.8,3.1-1.5,4.7-2.3C450.4,206,451.4,206.9,452.7,207.5z M469.1,225.7   c-0.4-3.2-6.7-1.8-7.3,0.8c0.3,0.4,0.6,0.7,0.9,1.2C464.9,226,467,227.3,469.1,225.7z" />
	<path display="inline" d="M447.8,192c-0.9,0.5-1.8,1.1-2.8,1.7c0.1,0.2,0.1,0.5,0.3,1c-1,0.1-2,0.1-3.2,0.2   c-4.5,7.7-7.2,16-10.7,23.9c-1.2,0.1-1.2-0.5-1.3-1.1c1.1-1.3-0.8-3.4-0.9-5c0.1-0.8,0.4-1.7-0.6-2.3c-0.4-1.4-2.5-3.8-3.7-1.5   c0.2,1.8,1.5,2.8,2.9,3.9c0.1,1.1,0.2,2.2,0.1,3.4l0,0c-0.6,0-1.2,0-1.5-0.7l0,0c0.2-0.2,0.5-0.5,0.7-0.7c-0.1-2.3-1.8-0.9-1.4,0.7   c-0.7,0.5-1.4,0.9-2,1.4c0-0.5,0-0.9,0-1.4c2.3-1.6,0.7-2.2-0.8-3.6c0.1-0.6,1-1.1,0.2-1.9c-1.5,0.3-1.3,2-2.3,2.7   c-0.2,4.3,4.2,7.5,6,11.2c-1,0.5-1,0.5-3,0.2c0.3-2.2,0.2-2.2-2-4.3c-0.8,0.2-1.6,0.4-2.3,0.6c-0.5-0.9-1-1.8-1.3-2.4   c0.3-1.9,0.5-3.3,0.6-4.6c-6.8-8.6-1.8-20.5,1.9-28.8c-0.3-0.6-1.4-1.2-0.6-1.8c0.9,0.3,1.7,0.6,2.6,0.9c-0.4,1.4-1.7,2-1.4,3.3   c2.6-1.8,4.9-3,7.5-0.7c0.4-0.8,0.8-1.5,1.2-2.2c-0.4-0.4-0.7-0.7-1-1.1c-0.8,0.4-1.5,0.8-2.2,1.2c-0.7-1-1.3-1.8-1.9-2.5   c-1.5,0.1-2.6,0.8-3.6-0.5c2.3-2-0.8-3.8,3.3-4.5c-0.1-0.1-0.3-0.2-0.4-0.3c0,0,0,0,0,0c0.4-0.4,0.7-0.8,1.2-1.4   c-0.5-0.4-1.1-1-1.7-1.5c-0.6,0.3-1,0.5-1.4,0.7l-0.1-0.1c0.1-0.3,0.1-0.7,0.2-1.1c0.9-0.1,1.8-0.3,2.7-0.4c0,0.5,0.2,0.8,0.7,0.7   l-0.2,0.2l0.1-0.2c0.1,1.2,0.8,1.7,1.9,1.6l0,0c0,0.2,0,0.4,0,0.7c-0.4,0.1-0.8,0.2-1.3,0.3c0.5,1.3,0.5,1.3,1.9,1.6   c-0.2-0.7-0.4-1.3-0.6-1.9c3.4-1.3,7.5-2.7,9.8-6.1c1.8-0.7,1.7,1.4,1.6,2.5c2,0.3,2.4-1.9,3.5-3c4.8,0.4,10.3-1.8,14.3,0.2   c3.4-1.2,6.8-2.5,10.5-2.7c0.4,0.6,0.7,1.1,1.2,1.9c1.2-1.2,2.3-2.4,3.5-3.6c3.1,0.1,1.1,4.7,1.6,7.3c3.6-4.5,9.5-1.9,2.9,1.9   c1.6,0.7,3.3-0.5,4.9,0.6c-0.5,1.3-0.5,2.5,0,3.9c-2.1,2.5-5.3,3.4-7.5,5.8c-0.6-0.3-1.3-0.5-1.9-0.8c-2.3,3.2-5-0.8-6.9,1.5   c1.2,0.5,2.2,1,3.2,1.4c-0.4,0.4-0.7,0.9-1.1,1.3c-2.4,0.8-4.9-0.6-7.2-0.5c-1.9,0.8-3.6,0.1-5.4-0.4c-0.8,0.3-1.6,0.6-2.3,0.9   c-1.1-0.3-2.2-0.4-3.2,0.5c-1-0.5-1.9-1.4-3.2-1.1c-0.4-1.3-1.5-1.6-2.7-2c-1,0.9-2,1.8-2.8,3.1c2,0,3.7-0.8,5.4,0.3   C446.7,189.6,447.3,190.8,447.8,192z M432.1,198.4c2.1-0.7,2.1-0.7,2.5-3.7c-1.9,1.3-1.7,3.2-3.2,4.4c-0.9-0.2-1.8-0.3-2.7-0.5   c-0.1-0.4-0.3-0.9-0.5-1.6c-0.7,0.9-1.3,1.5-1.8,2.1c-0.5-1.5-0.5-1.5-2-0.9c-0.3,4-0.3,4,1,5.1c0.2-1.6,0.1-2.9,1-4.2   c0,1.6,1.4,1.9,2.3,3.1C430.1,200.7,430.9,199.6,432.1,198.4z M454.9,182.1c-0.4-0.2-0.9-0.3-1.4-0.5c-0.2,0.7-0.8,1-0.4,1.8   c3.2-0.1,6.1,2.4,9.3,2C459.2,182.7,457.9,183.9,454.9,182.1c1.8,0.1,2-1.1,2.2-2.8C455.6,180,454.8,180.7,454.9,182.1z    M434.8,187.5c1.9-1.1,1.9-1.1,4.2-4.7c-0.3-0.2-0.5-0.4-1-0.7C437,183.7,433.2,185.5,434.8,187.5z M455.4,173.8   c-4-0.3-4.2-0.1-3.7,3.9C453,176.3,454.4,175.4,455.4,173.8z M479.4,175.8c-1.8,0.5-2.9,0.7-3.9,1c0.1,1.8,0.1,1.8,1.2,3   C477.5,178.6,478.2,177.5,479.4,175.8z M433.6,199.1c-1.6,0.8-2.7,1.9-2,3.8C434.4,201.1,434.5,201,433.6,199.1z M437.8,175.1   c-2.2,0.7-3.5,1.5-4.8,2.9C434.9,177.8,437,178.1,437.8,175.1z M449.3,174.7c-2.6,2.5-2.6,2.5-1.8,5.5   C448.5,178.7,448.9,177.1,449.3,174.7z M438,196.7c1.9-0.3,1.6-1.7,2.8-3c-0.7-0.4-1.3-0.7-2-1.1   C438.5,194.2,438.3,195.3,438,196.7z M469.4,173.5c0.9-0.9,3.2-2.8,0.9-3.3C469.3,171.8,469.3,171.8,469.4,173.5z M432.8,184   c2.3-0.3,2.8-1.6,1.3-2.6C433.4,182.4,433.2,182.7,432.8,184z M460.4,176.8c-1.3,0.7-2,1-1.7,2.2   C459.9,179,460.4,178.5,460.4,176.8z M433.6,209.7c-1.9,1.3-1.9,1.3-1.5,2.9C432.6,211.4,433.1,210.6,433.6,209.7z M461.3,182.7   c0.8,1.4,1.5,1.7,3,0.9C463,182.8,462.9,182.9,461.3,182.7z M445.1,172.1c0.9,1.2,0.9,1.2,1.9,0.1   C446.2,172.2,445.7,172.2,445.1,172.1z" />
	<path display="inline" fill="#0F0E0D" d="M467.6,187.8c0.4-0.4,0.7-0.8,1.1-1.3c-1-0.5-2.1-0.9-3.2-1.4c1.9-2.3,4.6,1.6,6.9-1.5   c0.6,0.3,1.3,0.5,1.9,0.8c-0.2,0.4-0.4,0.8-0.7,1.2c1.2,4.7,0.2,10.2,3.3,14.2c-0.7,3.3-1.5,6.6-2.2,9.9c-2.6,0-4.6,1.5-7.4,0.6   c-0.1,1.6-0.2,2.9-0.3,4.3c-4.1-5.8,2-10.1,7.5-12c0.1-0.8,0.3-1.7,0.4-2.7c-2.7-3.5-2.5-7.9-3.3-12.1   C470.2,187.8,468.9,187.8,467.6,187.8z M474.1,206c-2.1,0.5-2.8,0.6-4.5,1.2c0,0.1,0.1,0.3,0.1,0.4c1.2,0.1,2.4,0.2,3.7,0.3   C473.6,207.4,473.7,207,474.1,206z" />
	<path display="inline" fill="#0F0E0E" d="M466.1,250.8c6.9-11.3,7.3-27.5,7.6-40.1c0.4-0.1,0.8-0.2,1.1-0.3   c3.7,13.3-1.5,26.2-5.4,39.1c-0.5,0.4-1.5,1.2-2.5,2C466.6,251.2,466.3,251,466.1,250.8z" />
	<path display="inline" fill="#2D1716" d="M419.4,220.4c0.8-0.2,1.6-0.4,2.3-0.6c2.2,2,2.3,2.1,2,4.3c2.1,0.3,2.1,0.3,3-0.2   c-0.3-0.5-0.6-1-0.9-1.6c0.9,0.1,1.7,0.2,2.8,0.3c0,1.3-1.1,2.5-0.2,3.5c-3.5,5.1-1.5,12-2,18.3c-0.6,0.1-0.9,0.2-1.2,0.3   c1-4.7,0.4-9.6,0.5-14.4c-1.6-0.4-2.1-1.2-2.5-2.8c-1.4,0.7-0.6,2-1,2.9C421.1,227.2,420.7,223.6,419.4,220.4z" />
	<path display="inline" fill="#373737" d="M421.4,181.2c1,1.3,2.1,0.7,3.6,0.5c0.5,0.7,1.2,1.5,1.9,2.5c0.8-0.4,1.5-0.8,2.2-1.2   c0.3,0.3,0.6,0.6,1,1.1c-0.4,0.7-0.8,1.4-1.2,2.2c-2.6-2.3-4.9-1.1-7.5,0.7c-0.3-1.3,1.1-1.9,1.4-3.3c-0.9-0.3-1.8-0.6-2.6-0.9   C420.5,182.3,421,181.7,421.4,181.2z" />
	<path display="inline" fill="#362E2C" d="M313,451c1.2-1.7,0.6-3.9,0.8-5.8c1.1,2.8,0.8,6.2,0.1,9.1c1.5,0.6,1.6,1.9,2,3.1   c-0.2,0.4-0.4,0.9-0.6,1.3c-0.4-0.6-0.8-1.3-1.3-2c-0.4,0.6-0.7,1.1-1,1.6c-0.3-1.2,0.5-3-0.8-3.6C312.5,453.4,312.7,452.2,313,451   z" />
	<path display="inline" fill="#282222" d="M422.3,174.2c0.4-0.2,0.8-0.4,1.4-0.7c0.6,0.5,1.2,1.1,1.7,1.5c-0.5,0.5-0.8,1-1.2,1.4   C423.6,175.7,423,174.9,422.3,174.2z" />
	<path display="inline" fill="#282222" d="M425.2,172.7c-0.9,0.1-1.8,0.3-2.7,0.4c-0.1,0.4-0.2,0.7-0.2,1.1   c-0.8-0.4-0.8-0.9-0.4-1.8C422.9,172.1,424.1,171.9,425.2,172.7z" />
	<path display="inline" fill="#282222" d="M427.8,175c-1.1,0.1-1.8-0.4-1.9-1.6C426.5,173.9,427.2,174.4,427.8,175z" />
	<path display="inline" fill="#282222" d="M427.9,175.7c0-0.2,0-0.4,0-0.7c0.5,0,0.9,0,1.4,0C429.1,175.7,428.5,175.7,427.9,175.7   L427.9,175.7z" />
	<path display="inline" fill="#282222" d="M424.3,176.4c0.1,0.1,0.3,0.2,0.4,0.3c-0.2,0.1-0.4,0.2-0.6,0.3   C424.1,176.8,424.1,176.6,424.3,176.4z" />
	<path display="inline" fill="#282222" d="M425.9,173.4c-0.5,0.1-0.8-0.2-0.7-0.7C425.4,172.9,425.7,173.1,425.9,173.4z" />
	<path display="inline" fill="#CCD2E9" d="M401.6,319c9.4-25.6,9.1-33.5,4.7-60.3c1-0.5,2.2-1.1,3.4-1.5c0.4,11.5,0.8,26,9.8,35   c28.2,22.5,61.7,12.2,52.2-28c1.6,0,2.4,1.1,3.2,1.6c3.3,12.8,4.1,25.7,5.5,38.7c2.7,10.2,5.6,20.3,6.3,30.9   c-1.7,0.9-3.6-0.2-5.6,0.2c2,1.2,4,2,6.3,2c0.5,0.8,1.1,1.5,1.4,2.1c-2.2,8.7-6,16.6-10.4,23.9c0.2,0.9,0.4,1.4,0.6,2.2   c-3.2,6-5,13.2-4.5,20c-13.9,11.2-31.9,23-50.5,18.2c-0.2-0.6-0.5-0.5-0.9-0.2c-1.3-0.4-1.5-0.5-2.3-1.7c-0.9-0.2-1.9-0.5-2.9-0.7   c-1-7.7-2.7-15-6.2-22.2c-6.9,6.2,0.6,15.9-2.4,19.4c-3.8-0.6-6.9-2.7-10.5-3.9c-3.8-6.8-8.4-14.2-2.7-21.4c6.2,1.6-1.5-6,4.4-5.4   c-1.3-0.9-2.2-1.6-3.2-2.2c0-2.8,0.4-5.5,1.6-8.5c1.6,2.9,3.6,4.5,6.4,5.1c0.6-0.3,1.2-0.7,1.6-0.9c1.5-6-4.1-9.3-5.6-14.6   c2.1-3.8,4.3-7.7,6.4-11.5c4.3-2.5,9.4-1.4,13.6-4.1c1.7-1.4,4.1,0.2,5.6-1.3c2.3-1.1,4.1-0.1,6.7-1.5   C423.4,325.2,411.8,322.8,401.6,319z M411.4,374.9c-0.3,0.6-0.6,1.3-1,2c2.6,0.4,3-4.7,1.9-6.5   C411.9,372.3,411.6,373.6,411.4,374.9z M420.8,353.8c6.3-2.7,11.1-8,17.7-10c3.8,2.3,5.6-3.5,5.7-7.1c-2,2.6-2.4,4.3-3.7,7.1   c-0.7,0-1.4,0-2.1,0c0.4-0.6,0.8-1.2,1.7-2.5c-7.5,3.6-15,7.5-19.7,12.9C420.6,354.1,420.7,354,420.8,353.8z M445.5,314.2   c0.2-0.9,0.4-1.8-0.4-2.9c-2.7,11.8-1.4,19.1,12.2,20.5c4.7-0.3,8.3,3.5,13,3.5c3.2-0.5,7.7,1.3,10.1-1.2c-1.2-1.1-2.8-1.2-4.3-1.6   c-1.7-3.3-4.7-3.6-8.1-3.7C459.8,325.5,446.9,324.8,445.5,314.2z M444.1,384.2c-1.8-10.3,7.4-22,1.7-31.4   c1.1,13.4-5.1,25.3-2.6,38.8C443.6,388.6,444.4,386.8,444.1,384.2z M455.6,350.1c-3-2.6-4.8-6.3-7-9.1c0.6,8.5,14.7,14.3,17.3,25.3   C466.7,359.3,460,354.7,455.6,350.1z M417.1,358.3c-3.1,1.6-3.4,6.2-3.1,9.8C415.8,364.8,415.5,361.3,417.1,358.3z M464.8,373.8   c0.1,2.1-0.3,3.9,0.3,6.3C465.2,377.5,467.7,375,464.8,373.8z M442.7,396c-1.2-0.3-1.2-0.3-0.9,1C442,396.6,442.3,396.3,442.7,396z    M437.2,327.6c0.8,1,1.4,0.9,2.1,0C438.6,327.6,438,327.6,437.2,327.6z" />
	<path display="inline" fill="#FBDFD3" d="M415,444.6c5.2,8.5,15.9,10.2,21.7,17.6c2.4,6.8,8.4,11.2,14.1,15.4   c-5.7,2-10.4-1.9-13.6-6.1c-0.1-2-2-2-3.1-3c-0.7,0.5-1.2,0.9-1.6,1.3c0.7,1.7,2.3,0.4,3.1,1.4c-0.6,2.1-0.5,4.8-2.6,6.4   c-0.5,5.2,7,19.6-2.5,15.1c-2.8-4.6,0.6-9.8-2.9-13.8c-3.6,0.2-2.4-3-5.3-3.8c-0.5,1.2,0,2.2,0.7,3.2c0.2,2-0.5,4.2-0.4,6.4   c-2.4-0.9-0.6-5.6-5.6-5.3c-2.9-7.9-6.8-16.7-6.3-25.6c-1.7-2.4-3.2-4.6-4.7-6.8c1.1-7-11.3-13.5-15.3-19.1c-3-2.1-4-6.3-7.1-8   c-4.1-7.8-8.6-16.9-8.2-26c2.7,1.4,3.5,7,5.9,6.5c-0.3-0.7-0.5-1.2-0.7-1.8c0.8,0.1,1.5,0.1,2.4,0.2c-3.2-9.1-8.6-17.2-14.9-24.5   c-6.8-4-5.8-12.5-7.9-19c0.1-0.3,0.1-0.7,0.2-1c1.8,0.4,3.5,0.5,5.4,0c-0.1-7-9.8-11.5-7.4-18.9c2.7-5.5-2.6-7.9,1.3-14   c23.9,5.8,2.9-14.9,5.5-29c0.9-6.6,5.3-12.1,7-18.2c4.9-4.5,12.3-2.5,17.4-6.7c4.6-2.6,8.1-7.5,13.8-7.7c0.4,4.1,0.3,7.9,1.5,12.1   c-1.7,0.2-3.1,0.4-4.7,0.5c0,0.1,0,0.3,0,0.4c1.8,0.1,3.5,0.6,5.2,1c1.4,5.9,1,11.6,0.8,17.5c-1.6,0.1-3,0.3-4.6,0.4   c0.6,1.4,2.5,0.6,4,1c-0.3,8.9-4.4,17.1-6.4,25.6c-3.1-2.2-8.4-10.1-8.6-13.7c-2.8,2.9-3.8,5.8-3.5,9.7c-0.3,0-0.7-0.1-1.3-0.2   c-1,3.4-3.5,5-4.3,8.5c2-1.6,2.8-2.8,4.4-4.4c1.5,1.2,2.5,3.6,1.5,5.1c7.5,16.4,4.8,35.2,1.7,52.3c-1.9-1.5-0.5-3.7-1.6-5.5   c-4.5,8.6,5.8,16.2,7.6,24.1c4.3,12.8,8.2,25.8,13.4,38.2c-0.1,0.6,0,1.3-0.8,1.5c-0.4-0.2-0.8-0.4-1.1-0.6   c-1.1,1.1-0.5,2.1-0.2,2.9c3.6,2.1,2.7,6.4,6,9.1c0.4-0.3,0.8-0.5,1.1-0.8C414.2,444.6,414.6,444.6,415,444.6z M369.7,287.1   c1.4-1.7,2.8-3.3,4.5-5.4c-4-0.5-6.8,6.1-6.6,9.3C368.6,289.5,369.1,288.3,369.7,287.1z M376.8,279.3c-0.8,0.5-1.4,1-1.2,2   c1.2,0.2,1.6-0.5,2-1.2c1.6-0.7,6.6-2.4,4.1-4.6C379.6,276,378,277.4,376.8,279.3z M422.3,473.9c0.5-2.5,0.4-2.8-1.6-3.8   C420.3,471.7,420.8,472.8,422.3,473.9z M386.5,365.4c-1.4,0.8-1.8,3.6,0.2,3.5C387.4,367.8,386.5,366.7,386.5,365.4z M384.8,293.6   c-0.3,3.1-0.3,3.1,0.3,4.7C386.1,296.9,386.1,296.9,384.8,293.6z M376.5,326c1.3-0.5,1.3-1.4,0.9-2.5   C375.8,323.9,375.8,323.9,376.5,326z M378.9,324.7c1.2-0.5,1.7-1.1,2.1-2C379.2,322.2,379.1,322.2,378.9,324.7z M385.6,364.2   c1-1,1-1,0.7-2.5C385.4,362.6,385.4,362.6,385.6,364.2z M392.5,272.7c1.3,0.4,2.4,0.8,3.7-0.8C394.5,272.1,393.8,271.9,392.5,272.7   z M420.5,467.6c0-1.3-1.9-1.6-1.7-0.2C419.3,468.2,419.9,468.3,420.5,467.6z M403.4,429.1c0.6-1-0.1-1.6-0.7-1.2   C402.9,428.2,403.1,428.6,403.4,429.1z M405.4,430.9c-0.6,0.5-0.3,0.9,0.2,1.2C406.2,431.6,406,431.2,405.4,430.9z M385.7,359.1   c0.1-0.3,0.4-0.6,0-0.8C385.3,358.6,385.4,358.8,385.7,359.1z" />
	<path display="inline" fill="#FBDFD3" d="M481.1,480.7c0.2,0.1,0.4,0.1,0.7,0c0.1,0.1,0.3,0.2,0.4,0.3c0.6-0.8-0.9-1.4-1.2-2.2   c0.2-2.9,2.7-4.5,2.3-7.7c4.7-0.6,3.8-6.2,2.8-10c5.5-3.8,15.8-19.7,9.9-25.1c0.3-9.8,0-19.8,2.8-29.1c-0.7-11.9,7.2-25.5,8-37.5   c-9.4,0.4-7.4-13-9.4-19c-2.4-30.8,8.7-26.4,8.4-48.2c-0.2,0-0.3,0-0.5-0.1c-0.1,0.6-0.2,1.3-0.2,1.9c-0.4,0.1-0.9,0.1-1.3,0.2   c0.6,12.4-7.5,22.4-14.6,30.9c-5.1-22-6.9-44.6-11.8-66.6c1.4-0.6,2,0.9,3,1.4c6.1,4.9,13.9,5.9,21.1,8.6   c11.1,5.9,18.2,20.1,16.2,32.6c-5.6,1.8-2.5,7.9-5.7,11.7c2.2,1.4,2.7-2.4,4.3-4c11.4,41.7,1.1,31.5,3,67.4   c-3.7,4.7-3.2,11.6-3.4,17.6c0.7-1.8,1.3-3.2,1.9-4.7c-1.1,30.6-23.4,45.1-17.1,85.7c-4.9,3.7-5.4,13.1-11.2,14.4   c-1.7-1.5-4.2-1-5.9-2.2l0,0c0.6,0.1,1.1,0.1,1.4-0.6c1.4-0.6,2.7-1.2,4-1.7c4-6.7,7.4-12.5,3.7-20.6c0.3-0.7,0.6-1.4,1.2-2.9   c-6,4-6.9,3.4-8.9,10.6c-1.7,0.9-8.3,4.3-8.3,1c0.9-0.7,1.9-1.4,2.8-2.1C480.2,480.8,480.7,480.7,481.1,480.7z M508.7,367.2   c-2.2,1.7,2.5,1.6,1.7-0.8C509.8,366.7,509.3,367,508.7,367.2z M501.6,291.4c1.2,2.2,1.1,4.1,1.8,7c2.1-2.1,0.4-6.4-1.7-7.8   c-0.3-0.7-0.7-1.4-2-1.1C500.4,290.2,501,290.8,501.6,291.4z M486.7,280c-1.2,0-3.9-2-3.9,0.3c1.2,0.3,2.6,0.4,3.9,0.3   c0.8,1,1.6,0.8,3.1,1.1C488.9,280.4,487.7,280.5,486.7,280z M509.5,321.5c-2.5-1.2-1.7,2.5-2.2,4C509,323.8,509,323.8,509.5,321.5z    M489.4,471.3c2,0.5,3.4,0.2,4.4-1.4C491.1,469.7,491.1,469.7,489.4,471.3z M502.5,328c1.5-0.4,2.5-0.9,2.7-2.2   C503.5,325.4,503.5,325.4,502.5,328z M515.5,405c-0.6,0.9-1.3,1.8,0,2.6C516.1,406.8,516.7,405.9,515.5,405z M513.4,413.7   c-0.7,0.1-0.7,0.8-1,1.3c0.3,0.1,0.6,0.2,0.8,0.3C513.4,414.7,514,414.3,513.4,413.7z M501.2,396.9c0.1,0,0.2,0,0.3,0   c0-0.4,0-0.7,0-1.1c-0.1,0-0.2,0-0.3,0C501.2,396.2,501.2,396.6,501.2,396.9z" />
	<path display="inline" fill="#FBDFD3" d="M335,546.8c-0.3-1.3-0.6-2.6-0.9-4.1c-1.7-0.5-3.8-1.3-5.3-2.1   c-1.8-5.8-2.8-11.2-2.1-17.2c-5.5-18.2-9.2-35.6-7.7-54.9c1.8,3.7,3.8,6.7,7.4,8c4.6-7.2-9.8-26-9.9-37c0.6-0.5,0.9-0.8,1.3-1.1   c3.1,0,6.3-0.1,9.5-0.1c-1.8-2.2-6.2-1.7-9-2.6c-0.8,0.4-1.6,0.9-2.4,1.3c-1.2-0.4-0.8-1.5-1-2.4c0.2-0.5,1-1.2,1.8-1.5   c19.6-50.3,56-28.6,61.5,15.4c-17.1,8.9-24.7-0.3-32.6,8.6c2.8,13.6,9.4,29.1,1.5,42.3c-7.6,13.6-6.3,30.2-10.4,44.9   c0.6,0.2,1.1,0.4,1.7,0.5c-0.3,1.4-2.2,0.5-2.7,1.9C335.5,546.7,335.2,546.7,335,546.8z M331.2,475.1c-0.7,0.6-0.8,1.3-0.2,2   c1,0,1-0.6,1-1.3c0.4-1,1.4-2,0.5-3.2C331.6,473.6,331.6,473.6,331.2,475.1z M340.6,444.6c5,2.7,3.9,7.8,1.4,12   c-3.4,1-4.6,4.8-6.2,7.6c3.4-0.8,9.7-11.4,10.5-15.3c3.7,0.4,8.6,2.2,11.5-0.9c0.7,0.1,1.5,0.4,1.9-0.5c0.9-1.3,4.2-2.3,3-4.1   c-1.4,0.7-2.9,1.4-4.3,2.1c-2.6-3.1-16.4-8.7-19.1-3.8c-0.3-0.4-0.6-0.7-1.2-0.2C338.5,442.9,339.2,443.9,340.6,444.6z M337,481.5   c0.2-3.3,3-6.6,0.8-9.5c-1.3,4.5-2.4,8.2-1.7,12.4C336.5,483.2,336.7,482.4,337,481.5z M335.1,492.5c0.9-1,0.9-1,0.3-3.3   c-0.3,0.2-0.6,0.3-1,0.5C334.7,490.7,334.9,491.6,335.1,492.5z M334.9,468.3c-0.3-0.1-0.6-0.2-1-0.3c-0.5,1.1-1.2,2.1-0.8,3.5   C334.3,470.6,334.7,469.5,334.9,468.3z M335.7,497.8c-0.3,1.2-0.1,2.1,1.4,2.9C337,499.3,337.5,498.2,335.7,497.8z M337,435.5   c-0.4,2.3-0.3,2.5,1.1,2.2C337.9,437.2,337.6,436.7,337,435.5z M338.4,531.8c-0.2,0-0.3-0.1-0.5-0.1c-0.2,0.6-0.4,1.2-0.7,2   c0.5,0.1,0.7,0.2,1.2,0.3C338.4,533.2,338.4,532.5,338.4,531.8z M338.3,524.8c-1.4,0.9-1.4,1.1,0,2.1   C338.3,526.2,338.3,525.6,338.3,524.8z M336.8,505.1c0-2.1-0.1-2.2-1.6-1.9C335.7,503.8,336.1,504.4,336.8,505.1z M335.4,431.2   c0.1,1.9,0.1,1.9,1.5,1.7C336.4,432.3,335.9,431.8,335.4,431.2z M369.5,436.8c0.4-0.3,0.9-0.8,0.4-1.2   C369.1,435.4,368.6,436.5,369.5,436.8z M331.4,444.1c1-1.4,1-2.2-0.2-3.3C331.3,442.1,331.4,442.8,331.4,444.1z M367.1,440.3   c-1.4,0.3-1.4,0.3-1.9,1.3C366.2,442.1,366.4,441.2,367.1,440.3z M339,518.1c-0.2,0-0.3,0-0.5,0.1c0.1,0.5,0.1,0.9,0.2,1.4   c0.2,0,0.3,0,0.5-0.1C339.1,519,339,518.6,339,518.1z" />
	<path display="inline" fill="#FBDFD3" d="M511.6,440.9c8.1-14.6,13.4-34.4,31.3-39.3c8.8,5.4,20.6,5.9,28.3,13.1   c5.2,6.3,12.4,12.4,9.3,21.4c-0.9-0.9-0.6-2.6-0.7-3.6c-0.9-1.2-1.6-2.1-2.3-3c0.7-1.1,1.7-2.1,0.4-3.6c-2.6,0.8-2.7,4.1-4.6,5.9   c-0.1,2.9-0.1,8.6,4,8.4c0.6-0.6,1.3-1.5,2.2-2.4c-0.8,10-6.6,19.6-8.2,29.7c0.2,0.4,0.4,0.8,0.7,1.3c-1.1,3.4-2.1,7-4.4,10.1   c-0.5-0.1-1-0.3-1.3-0.4c-9.3,15.1-16.7,30.8-18.3,48.8c-4.6,1.5-9.4,1.3-14,0.7c-0.3-2.2-0.6-4.1-0.9-6.1c0.4-0.4,0.8-0.9,1.3-1.4   c0.1-1.3,0-2.5-0.6-3.7c1.7-0.3,1.9-1,0.7-2.7c-1.6-0.5,1.5-14.8,3.4-15.8c-1.4-1.1-1.4-2.8-1.3-4.3c0.7-6.5-3-12.5-2-19.1   c3.8-6.2,5.6-13,9-19.6c6.9-1.3,12.6-6.6,16.9-12c-5.4-0.6-11.5-1.6-16.4,0.7c-10.6-0.3-21.2-2.4-32.1-1.6   C511.8,441.8,511.7,441.3,511.6,440.9z M567.7,427.6C567.7,427.6,567.7,427.6,567.7,427.6c0.3-0.5,0.5-0.9,0.8-1.4l0,0   c1.1-1,0.7-2,0-2.9c0.3-3-1.2-5.6-1.6-8.5c-0.7-0.2-1.4-0.4-2-0.6c-0.1-0.2-0.3-0.4-0.4-0.6c-0.1,0.1-0.1,0.1-0.2,0.2   c0.2,0.1,0.4,0.2,0.7,0.3c0.5,3.2,1.4,6.3,2.9,9.2c-0.1,0.7-0.1,1.4-0.2,2.1c-1.8-0.1-1,1.6-1.7,2.6c-3.3-1.3-11.4,3.7-13,6.8   c0,0,0,0,0,0c-6,0.2-11.4,1.5-17.6,1.6c1.6,1.5,3.2,1.2,4.7,0.9C549.4,435.9,564.6,440.1,567.7,427.6z M540.8,495.2   c0.4-0.2,0.7-0.3,1.6-0.7c-1.8-0.3-3.1-0.3-2.8,1.8C540,495.9,540.4,495.5,540.8,495.2z M544.2,492.8c-0.8,1-0.8,1-1,2.5   c1.4-1.6,3.8-2.1,3.3-4.6C545,490.9,544.7,491.9,544.2,492.8z M556.4,465.9c0,2.8,0,2.8,1,4.2c0.6-1.8,0.7-12.8-2.3-10.1   C555.5,461.8,556,463.9,556.4,465.9z M550.5,485.6c-0.8,1.1-1.7,2.3-2.5,3.4c0.2,0.2,0.4,0.4,0.5,0.5c4.9-4.3,9-11.9,7.3-17.2   c-0.3,0.1-0.6,0.2-1.1,0.3C554.7,477.4,552.3,481.4,550.5,485.6z M556.5,408.7c1.1,3.3,1.3,3.4,3,2.9   C559.1,410.3,558.1,409.8,556.5,408.7z M529.4,434.9c-1.3-0.2-1.9,0.2-2.6,1C528,436.2,528.9,436.4,529.4,434.9z" />
	<path display="inline" fill="#5876E8" d="M430.7,453.8c-2.5,0.5-9.7-4.8-10.1-7.5c-2.4-1.7-3.4-4.6-4.7-7c3.3,0.1,5.7,3.1,9.2,3.3   c1,0.7,1.8,1.9,4,2c-1.4-1.2-2.4-2-3.3-2.7c-0.4-5.1-9.9-7.7-14.2-9.2c-0.9-3.2-4.2-6.1-3.2-9.6c6.2,4.9,13.2,9.4,20.3,12.2   c-7.5-5.5-14.2-10.2-21.7-15.8c-0.1-1.1-1.2-2.2-0.9-3.9c6.9,2.8,12.9,7.8,19.4,10.3c-0.7-2.1-10.5-7.1-13.9-10.2   c0.9-1.1,1.8-0.3,2.7-0.2c1.8-0.7,3.1,0.1,4.4,1.2c2.9,2.2,8.7,1.7,6.8-3.2c-7.6-4.7-16.2-8.3-24.9-10.2c-0.8-1.1,0.1-2,0.4-3   c8.1-0.5,17.9,2.1,24.5,6.7c18.4,4,35.4-7.6,49.1-18.9c1.7-1.8,3.5-4.5,7.1-3.5c2.5,2.6,5.9,4.5,7.1,8.1c1.2-1.9,1.2-1.9-0.5-3.4   c0-0.3,0-0.7,0-1.2c2.9-1.4,5.3,1.3,7.8,2.6c-8.7,9.2-3.1,19.2-7.1,26.2c-15.8,3.9-33.2,9-46,18.8c14.3-7.5,30.4-12.8,46.1-17.9   c0.2,0.1,0.3,0,0.4-0.1c0.6,1.6,0.2,3.2,0.1,4.9c-1.2,0.8-0.1,2.3-0.9,3.2c-16,4.2-37.9,8-48.6,18.8c-1.8,1.7-4.8,2.3-7,3.6   c-0.5-6.1,5-12.6-1-17.7c-1,0.9-0.3,1.5,0,2c3.6,4.9-0.6,10.3,0,15.7C432.3,450.1,431.2,451.9,430.7,453.8z M483.9,395.6   c2.2-1.6,2.2-1.6,3.3-3.6c-1,0.6-1.8,1.1-2.6,1.5c-0.9-0.7-1.8-1.4-2.9-2.3c-1.3,0.1-2.9,1.2-4.2,0.1c0.1-0.7,1.1-1.2,0.1-2.1   c-1.7,2-3.4,3.8-5,5.7c-7.6,1.9-13.6,8-20.7,10.7c-5.1,2.2-22,2.8-23.3,7.7c5.6-0.8,11.1-2.2,16.8-2.9c0.2,0.2,0.4,0.4,0.7,0.7   c-1.4,0.9-2.7,1.6-3.9,2.4c0,1.4,0,2.5,0,3.7c0.9,0.5,1.6,1,2.5,1.6c-1.1,1-5.1,1.6-4,3.1C455.9,414.6,470.3,405.7,483.9,395.6z    M443.5,425.4c-0.1,0.1-0.3,0.3-0.4,0.4c0.2,0.1,0.4,0.2,0.6,0.3c13.7-5.3,36.4-11.9,44.7-23.9c-3.9,3.1-6.4,5.2-10.6,7   c-1.3-0.3,0.5-1.6-0.7-2c-13.3,3.8-25.9,10.3-37.4,18C441.2,426.1,442.1,424.3,443.5,425.4C443.5,425.4,443.5,425.4,443.5,425.4z    M432.9,421.9c-0.1,2-0.1,3.4,0.1,5.6c1.4-1.6,2.3-10.8,0.1-11.1C432.5,418.2,432.9,420.1,432.9,421.9z" />
	<path display="inline" fill="#FBDFD3" d="M461.2,265.9c0.5-2,1-4.1,1.5-6.4c2.5,0.5,4.3,2,6.7,3.1c2.3,11.9,2.6,28.1-8.2,35.8   c-5.8-0.2-11.6,1-16.5,3c-10.9-4.3-25.9-6.7-29.3-19.8c-1.7-7.1-5.3-15.1-2.4-22.3c2.5-1.1,4.9-2.1,7.7-3.3   c0.4,2.4-1.3,5.9,1.7,6.8c1.3-1,2.7-2,4-3.1c-0.5-6.8,2.7-12.2,3.9-18.9c1.4,6,3.7,10.7,6.8,15.7c1.6,6.5,3.6,13.4,6.2,19.8   c0.5-3.5-0.2-6.2-2-8.5c0.7-2.2-0.3-4.2-0.8-6.2c0.2-0.3,0.4-0.5,0.7-0.9c1.7,0.6,9,5.9,9.3,4.3l0,0c3.2,1.6,6.7,1.4,10.1,1.7   C460.9,266.5,461.1,266.2,461.2,265.9z M423.7,274.2c6.8,3,15.8,3.4,20.2,9.9c0.2-8.3-17.9-10-23.9-11.6   C421,274.1,422.4,274,423.7,274.2z M461.1,278.4c-4.6,0.5-8.9,2-13.1,3.8c-1.1,2.4,21.9-4.6,18.6-5.8   C464.7,277.1,462.9,277.8,461.1,278.4z M445.1,286.6c0,1.1,0,2.1,0,3.2C446.7,289.1,446.7,288.9,445.1,286.6z" />
	<path display="inline" fill="#E4E4EB" d="M516.5,550.9c1.6-6.6,1.5-13,6.1-18.6c9.6,15.4,16.5,9.8,28.1,0.4   c-0.6-4,1.3-7.2,2.5-10.9c0.8-0.4,1.4,0.3,2.2,0.6c1.7,3.2,3.4,6.4,5.2,9.8c-2.3,1.4-4.2,2.9-4.7,5.7c2.7,1.2,4.4-1.3,6.6-1.5   c0.2,0.2,0.5,0.4,0.7,0.6c-0.1,1.4-1.7,2.4-2.4,3.5c1.8,3.6,3.6,1,6-0.1c0.8,0.3,1.6,0.7,2.5,1.1c-0.3,1.2-0.6,2.2-0.9,3.4   c1.9,0.8,3-0.4,4.4-1.3c1.4,0.4,2.5,1.4,3.7,2.4c0,0.9,0,1.8,0,2.9c0.9-0.4,1.6-0.7,2.5-1c5.4,3.2,10.9,4.2,17.1,4.8   c1.3,3.2,1.8,6.4,2.2,9.7c-17.8,4.8-36.3,0.7-53.5-4.5c-9.3-2.3-19.6,3.5-28-2.2C516.7,554.2,516.6,552.6,516.5,550.9z" />
	<path display="inline" fill="#E4E4EB" d="M323.6,554.7c4.3-1.5,8.5,0.5,12.7-1.5c-0.4-0.7-0.8-1.2-1.1-1.8c3.2,0.1,5.9,5.1,9.5,2.7   c5.1,10.2,0.2,12.3,9.1,25.1c-2.4,2.8-6.3,4.5-9.8,4.3c-7.8-11.3-6.3,3.4-5.4,8.7c-1.7,1.5-3.7,2.3-5.7,2.9   c-3.7-2.6-8-2.3-11.5-5.5c-5,1.3-12.4-1.7-15.7,3.5c-2-2-1.2-4.6-2.7-6.6c0,0,0,0,0,0c3-6.2,5.5-13.3,10-18.5   c0.3,3.6,12.7,4.3,13.4,0.9c-3.3-3-8.3-2.6-12.5-2.2c-2.6-5.5,13.6,1.3,15.8-3.2c-4.6-3-9.8-0.9-14.7-2.8c0.1-0.5,0.2-0.9,0.2-1.2   c5.7-1.3,13.4,2.7,18.9-0.5c-0.5-4.2-7.4-2.5-10.5-3.2C323.6,555.5,323.6,555.1,323.6,554.7z M319.2,578c-0.2-0.5-0.4-0.9-0.6-1.4   c1.3-0.6,2.9-0.7,3.8-2.2c-2.3-3.1-6.2,0.5-9.1-1.5c-2.1,2.1-0.6,2.7,0.9,3.6c0,1,0.2,2.9,1.4,2.6   C316.9,578.9,318.5,579.5,319.2,578z" />
	<path display="inline" fill="#4B65C5" d="M430.7,453.8c0.4-1.2,0.7-2.4,1.2-3.5c0.1,0.6,0.2,1.3,0.4,2.1c1.2-2.3,1.2-2.3,0.6-4.2   c2.2-1.3,5.2-1.8,7-3.6c9.2,3.9,17.9,9.5,26.9,13.6c0.4,1,1.1,1.4,2.2,1.4c0.2,0.7,0.8,0.7,1.4,0.7c0.4,1,1.1,1.5,2.1,1.4   c0.5,0.8,0.4,0.5,1.7,0.2c-1-0.1-1.4-0.2-1.7-0.2c-0.4-1-1.1-1.5-2.1-1.4c-0.2-0.7-0.8-0.7-1.4-0.7c-0.3-1-1.1-1.5-2.1-1.5   c-4.4-4.2-10.6-6.4-15.7-9.9c6.3,0.4,14.1,6.1,19.8,3.6c-6-2-13.3-2.3-19.5-4.8c-0.6-0.2-1.4-0.5-1.7,0.5c-3.1-1.4-6.2-2.8-9.3-4.2   c14.3-9.7,31.4-13.6,48.1-17.5c0.8-0.9-0.3-2.4,0.9-3.2c0,1.4,0.4,2.6-0.2,3.9c-11.1,3.6-23.5,4.7-33.8,10.3   c-1.4-0.1-2.7,0.2-3.6,1.4c-0.6,0-1.2-0.1-1.4,0.7c-1-0.1-1.7,0.5-2.8,1.3c1.8-0.1,1.8-0.1,2.8-1.2c0.6,0,1.2,0,1.4-0.7   c1.4,0.1,2.7-0.2,3.5-1.4c11.2-3.3,22.3-6,33.7-8.5c0.8,1.3,0.5,2.4,0.4,3.6c-10.4,3.8-24.7,4.3-33,10.5c11.1,0.7,22-1.7,33.1-1.2   c-1.2,2.7-4.6,1.3-6.5,3.4c1.5,0.3,2.6,0.5,3.6-0.5c0.8-0.1,1.6-0.2,2.7-0.3c0.3,3.5,0,6.4-0.9,9.9c-6.6,4-7.7,7.8-7.9,15.1   c-14.6-7-31.9-22.1-48.6-14.7l0,0C431.7,453.8,431.2,453.8,430.7,453.8z" />
	<path display="inline" fill="#EECABA" d="M511.6,440.9c0.1,0.4,0.2,0.9,0.4,1.5c10.9-0.7,21.5,1.4,32.1,1.7   c4.9-2.3,11-1.4,16.4-0.7c-4.3,5.4-10.1,10.6-16.9,12c-10.6,23.3-10.2,17.4-6.3,42.4c-0.4,0.1-0.8,0.2-1.3,0.2   c0.7,1.1,1.3,0.6,1.9,0.4c-3.5,4-2.4,9.7-4,14.4c-0.3,0.6,0,1.1,0.7,1.4c-0.9,1.4-0.9,2.8-0.1,4.3c-1,0.3-1.5,0.9-1.2,2   c0.5,0,0.8,0,1.2,0c-0.4,0.5-0.9,1-1.3,1.4c0.3,2,0.6,3.9,0.9,6.1c2.2,0.6,4.7,0.3,7,0.4c-2.5,1-5.1,0.5-7.9,0.6   c0-1.7-0.1-3.3-0.1-5.3c-2.2,1.2-1.9,3-2.9,5.1c-1.1,0-2.2,0-3.4,0c-0.3-0.5-0.6-1-0.9-1.4c3.2-10.5,4.4-21.3,5.2-32.2   c-2.9-15.6-3.7-26.8,7-40.1c1.7,0.4,16.1-5.5,13.4-6.9c-13.1,6-28.2,1.9-42.2,4.2C508.8,449.3,509.7,444.7,511.6,440.9z" />
	<path display="inline" fill="#EECABA" d="M361.8,360.8c0.6,4.7,1.4,10.2,5.8,12.8c-0.4,0.5-0.9,0.6-1.5,1c-0.4,2.6,0.5,5,0.8,7.6   c-0.4-0.1-0.9-0.2-1.6-0.4c4.5,6.6,4.8,15.8,9.2,21.9c0.1-0.4,0.2-0.7,0.2-1.1c3.4,6.2,4.2,14,9.1,19.2c-0.1-0.9-0.1-1.4-0.1-1.9   c3.1,1.7,4.1,5.9,7.1,8c4,5.6,16.3,12.1,15.3,19.1c1.5,2.2,3,4.4,4.7,6.8c-0.6,6.4,2,12.5,3.5,18.6c-0.6-0.3-1-1.4-2.3-0.1   c2,1.1,0.9,4.1,3.7,4.9c0.1-0.5,0.2-0.9,0.2-1.3c0.9,0.5,0.5,1.4,0.6,2.1c-3.9,0.2,0.4,5.1,0.6,1.5c5-0.3,3.2,4.4,5.6,5.3   c0.1-1.6,0.1-3.2,0.2-4.8c4.2,5.7,1.4,13.2,4.5,19.5c-1.1,0.9-1.6-0.5-2.6-0.3c-2.1-4.8-2.6-9.9-5.6-14.2c-0.5,0.3-0.9,0.6-1.3,0.9   c0.3,1,0.6,1.9,0.8,2.7c-0.2,0.2-0.5,0.5-0.7,0.7c-10.7-13.6-8.9-32.5-21.6-45c-20.1-22.7-37.9-52-37.3-82.6   C360.2,361.8,361,361.3,361.8,360.8z M385.3,425.6c0.3,0.4,0.7,0.8,1.5,1.6c-0.3-1.7-0.4-1.7-1.3-2.6c-0.3-0.7-0.4-1.6-1.7-1.1   C383.7,424.7,384.4,425.3,385.3,425.6z M417.4,481.5c0.1,2.4,0.3,2.7,2,2.5C419.2,482.6,419.2,482.6,417.4,481.5z" />
	<path display="inline" fill="#EECABA" d="M315,434.5c0.2,0.9-0.2,1.9,1,2.4c-0.2,0.3-0.5,0.7-0.8,1.2c1.2,0.1,2,0.1,2.8,0.2   c-0.3,0.3-0.7,0.6-1.3,1.1c0.1,11,14.5,29.9,9.9,37c-3.6-1.3-5.6-4.3-7.4-8c-1.5,19.3,2.2,36.7,7.7,54.9c-0.7,6,0.3,11.4,2.1,17.2   c0.7,0.3,1.6,0.8,2.5,1.2c-3-0.2-6.1-0.5-8.9-1.1c-2.9-27.9-16.6-56.4-8.5-84.1c1.1,1,0.9,3.3,2.6,3.2c-0.1-0.9,0.1-1.8-0.7-2.5   c-0.4-1.2-0.5-2.5-2-3.1C316.6,447.8,309.9,440,315,434.5z M319,467.7c-0.6-1.6-0.4-3.6-2.3-4.8C316.1,465.3,318,466.3,319,467.7z" />
	<path display="inline" fill="#5876E8" d="M364,399.2c5.5,11.3,11.4,22.9,18.8,33.1c-0.4,1.5,0.3,2.6,1.3,3.7   c0.4-0.2,0.8-0.3,1.4-0.6c3.9,4.6,8.1,9,11.9,13.9c-0.5,0.3-0.8,0.5-1.2,0.7c3,1.1,4.5,3.5,5.4,6.5c-5,0.5-9.6-1.1-14.5-0.2   c5.3,0.6,10.3,3.2,15.9,2.6c0.3,0.6,0.6,1.3,1,1.9c-1.2,3.3-8.6,7.7-12,8.7c-18.4-18.1-10.6-61-40.7-66.6   C354.8,399.9,359.5,395.3,364,399.2z M389.5,442.8c-0.5,0.5-1.2,1.2,0,1.6C389.5,443.8,389.5,443.3,389.5,442.8z" />
	<path display="inline" fill="#EECABA" d="M372.5,274.2c-1.8,6.1-6.2,11.6-7,18.2c-3.2,10.9,16.5,33.3-1.4,29.5   c0.4,0,0.9-0.1,1.5-0.1c-2.9-3.8-4.3-6.8-7.1-10.7c-1.7,4.6,3.2,7.5,5.6,10.8c-1.3-0.1-2.5-0.3-4.1-0.4c-3.9,6.1,1.4,8.4-1.3,14   c-2.4,7.4,7.3,11.8,7.4,18.9c-1.9,0.4-3.6,0.3-5.4,0c-0.1,0.3-0.1,0.7-0.2,1c-0.2,0-0.5,0-0.7,0c-0.1-0.2-0.1-0.4-0.1-0.6   c-2.8-2.7-3.4-7.3-7.1-9c-1.6-8.7,2.4-17.3,4-26C354.6,303.9,358.4,283.7,372.5,274.2z M363.5,298.7c0.6-1.8,1.7-2.9,0.9-4.4   C362.8,295.3,363.1,296.7,363.5,298.7z M362.2,303.8c0.5-1.6,1.5-2.4,0.7-3.7C361.7,300.8,361.7,301.8,362.2,303.8z" />
	<path display="inline" fill="#B7BDD5" d="M427.2,329.8c-1.5,1.5-3.9-0.1-5.6,1.3c-4.2,2.7-9.3,1.5-13.6,4.1   c-2.2,3.9-4.3,7.7-6.4,11.5c1.4,5.4,7,8.6,5.6,14.6c-0.5,0.3-1.1,0.6-1.6,0.9c-2.8-0.6-4.8-2.3-6.4-5.1c-1.3,3.2-1.7,6-1.6,8.9   c-1.1-0.9-2-1.9-2.9-3.1c0.2-10.7,1.1-21,0-31.6c0.5,0,1-0.1,1.4-0.1c1.6,1.1,3.5,0.6,5.6,1.2c-1.5-2.1-3.4-1.8-5.2-3.2   c1.4-3.7,3.9-6.5,5.3-10.2c9.7,3.1,20.1,6.8,30.5,8.4c-4.7-0.3-14.6,1.1-17.3,3.2C418.7,331.3,423,328.7,427.2,329.8z M407.9,330.5   c-0.9,0.1-1.8,0.1-2.5,1.1c1.4,0.8,2.7,0.2,3.9,0.2c0.8,0,1.9,0.4,2-1C410.2,330.2,409,330.3,407.9,330.5z M402.3,355.9   c-1.1-0.6-2.1-1.4-3.6-1.3c1.5,3.1,4.2,2.9,7.7,4.1C404.9,356.6,404.4,356.4,402.3,355.9z" />
	<path display="inline" fill="#EECABA" d="M506.6,372.2c-2.2,11.6-8.1,23.6-7.8,34.8c-0.1-0.4-0.1-0.8-0.2-1.4c-1,1.1-1,1.1,0.2,1.4   c-0.4,1.2-0.6,2.5-1.4,3.6c-0.3-0.3-0.6-0.5-1.2-1c-0.9,2.6-1.1,4.5-2.4,6.6c-0.5,0-1,0-1.5,0c-0.5-10,4.6-18.9,6.6-28.3   c0.8-1,1.1-2.8-0.1-3.5c-0.6,0.7-0.9,1.1-1.6,1.9c-7.6-15.1-5.8-33.8-5.5-50.3c2.8-1.5,4-4.4,6.3-6.4c0.1,9.6-3.8,36.1,7.3,39.8   c-2.1,2.3-7.7,6.5-6.2,9.7C501.7,376.9,504.2,374.5,506.6,372.2z" />
	<path display="inline" fill="#EECABA" d="M347.6,463.8c-0.8-2.1-2.2-4.5-2-6.7c7.8-8.9,15.4,0.3,32.6-8.6c0-1.4,0-2.7,0-3.9   c0.9,7,2.8,13.5,6.3,19.8c-10.2,2.7-20.6,1.3-30.4-1.5c-0.8,0.5-1.2,0.8-1.6,1c-0.5-0.1-1.1-0.3-1.6-0.4c-0.9-2-1.1-4.1-2.4-5.7   C346.3,458.4,348,462,347.6,463.8z" />
	<path display="inline" fill="#CFCEDC" d="M516.5,550.9c0.1,1.6,0.1,3.3,0.2,4.8c8.4,5.7,18.6-0.1,28,2.2   c17.2,5.2,35.7,9.3,53.5,4.5c1,1.5,0.4,2.9-0.5,4.4c-16.1,5.5-33.2,0.1-49.1-3.7c-10.5-1.5-27.2,2.6-35-5.1   C514.6,555.6,515.6,553.3,516.5,550.9z" />
	<path display="inline" fill="#EDCABA" d="M461.2,265.9c-0.2,0.3-0.4,0.6-0.6,0.9c-3.4-0.4-6.9-0.1-10.1-1.7   c0.6-0.8,3.1-1.8,1.3-2.8c-0.5,0.7-3,2-1.3,2.8c-0.3,1.7-7.6-3.7-9.3-4.3c-0.3,0.4-0.5,0.6-0.7,0.9c-1.4-2.6-1.5-5.4-1.4-8.3   c-2-3.6-2.8-7.7-3.5-11.8l-0.1,0.1c3.4,0.6,5.7,4.5,9.2,4.8c0-0.6,0-0.9,0-1.3c1.4,1.6,2.7,3.5,5.1,3.6c2.1,3.1,7.4,2.1,10.5,4.4   C461,255.4,459.6,266,461.2,265.9z M455.9,255.3c-2.3,0.7-4.4,1.9-7.1,3.2C452.3,259.1,454.7,258.6,455.9,255.3z" />
	<path display="inline" fill="#EDC9B9" d="M438.6,252.3c1.2,1.7,0.4,3.9,0.5,5.8c-0.7-0.8-0.8-2-2-1.5c-3.1-5-5.4-9.7-6.8-15.7   c-1.1,6.7-4.4,12-3.9,18.9c-1.3,1-2.7,2.1-4,3.1c-3-0.9-1.2-4.4-1.7-6.8c-2.8,1.2-5.2,2.3-7.7,3.3c0-1,0-2.1,0-3.3   c3.5-1.1,6.1-4.5,9.5-5.3c1.2-1.9,2.3-3.8,2.6-6c0.3-0.1,0.7-0.2,1.2-0.3c0.8-6.4-2.9-17.8,4.9-19.6c0,2.3,0,4.4,0,6.4   c-1-1.7-0.6-3.7-0.8-5.5c-0.2,0-0.3,0-0.5,0c-0.3,4.2-0.9,8.1,1,12.3c1.5,1.1,3.3,2.3,4.6,3.8l0.1-0.1c-0.4,0.1-0.9,0.2-1.3,0.4   c0,4.7,1.8,9.9,4.3,13.8C438.6,254.3,438.6,253.3,438.6,252.3z" />
	<path display="inline" fill="#4C505E" d="M457,498.6c1.7,0,3.5,0,5.4,0c0.2,14.5,0,29.7-2.4,43.9c-1.2,0-2.5,0-3.7,0   C458,528,455.1,513.2,457,498.6z" />
	<path display="inline" fill="#5775E6" d="M510.8,434.7c5.2-13.2,11.6-25.6,11.8-40.3c5.8,2,12.5,2,17.5,6   c-17.1,3-19.8,22-28.5,34.3C511.4,434.7,511.1,434.7,510.8,434.7z" />
	<path display="inline" fill="#EBC8B9" d="M495.4,412.8c0.3-0.9,0.6-1.9,1-3.2c0.6,0.5,0.9,0.7,1.2,1c-0.3,8.5-1.7,16.8-1.4,25.5   c0.4,0.4,0.9,0.9,1.4,1.4c-1.5,0-1.5,0.9-0.4,2.1c0.2-1,0.3-1.5,0.4-2c0.6,0.3,0.8,0.9,0.5,1.5c-1.2,3,0,6.7-2.7,9.2   c0.1-1,0.2-2.1,0.3-3.4c-2.5,2.6-2.7,3-1.6,4.6c0.4-0.4,0.8-0.8,1.2-1.1c-0.7,5.3-5.3,9.6-9.2,13c1,3.8,1.9,9.4-2.8,10   c0.4,3.2-2,4.8-2.3,7.7c-0.4-0.1-0.9-0.2-1.5-0.4c-0.5-5.5,4.5-9,3.6-14.4c0.7-5.5,7.1-8,9.8-12.7c-0.6-0.3-1.1-0.5-1.7-0.7   c1.6-11.4,1.6-22.9,1.1-34.4c0.5,0,1,0,1.5,0c0.1,0.9-0.5,1.9,0.4,2.9c1.1-0.7,1.1-1.7,1.2-2.7   C496.2,415.4,496.7,413.5,495.4,412.8z M496.3,440.4c-0.6,0.8-1.5,1.1-0.6,2.1C496.6,442.2,497,441.7,496.3,440.4z" />
	<path display="inline" fill="#4C505E" d="M480.4,495.1c-2.3,0-4.6,0.1-7,0.1c-0.4,0.5-0.7,1.1-1.2,1.7c-4.8,0.8-9.6-0.9-14.5-0.6   c-0.5-0.9-1.4-0.6-2.2-0.6l0,0c1.1-2.6,0.6-5.4,0.8-8.2c8.4-0.4,17.1,0.7,25.9,0.5C481.9,490.6,482.2,493.2,480.4,495.1z" />
	<path display="inline" fill="#4B65C4" d="M362.6,467.4c8.2,1.6,15.7,1.2,24-0.6c6,5.4,9.7,12.4-1.4,14.3   C378,475.8,369.8,472.4,362.6,467.4L362.6,467.4z" />
	<path display="inline" fill="#4C505E" d="M477.6,553.8c-7.9,0.3-15.7-0.3-23.4-1.4c-0.7-1.2-1.9-0.5-2.9-0.6l0,0   c0.2-2.1-0.3-4.2,0.4-6.5c9,0,17.7,0.4,26.6,1.2C478.2,549.1,478.7,551.6,477.6,553.8z" />
	<path display="inline" fill="#5876E7" d="M489.8,441.1c-11.1-0.5-22,1.9-33.1,1.2c8.3-6.2,22.6-6.7,33-10.5   C490.6,434.9,490.7,438,489.8,441.1z" />
	<path display="inline" fill="#373A46" d="M457,498.6c-1.9,14.6,1,29.4-0.7,43.9c-1,0-2.1,0-3.3,0c-1.1-14.5,0.2-29,0.5-43.5   C454.7,498.2,455.9,498.6,457,498.6z" />
	<path display="inline" fill="#4B65C5" d="M404.3,404.3c7.4,1.2,14.7,5.4,21.2,9.1c1.9,4.9-3.9,5.3-6.8,3.2   c-1.3-1.1-2.6-1.9-4.4-1.2c-0.9-0.1-1.9-0.9-2.7,0.2c-2.5-1.4-4.6-2.6-7.2-4c-0.7-1.5-1.5-3.2-2.4-5.1c2.7,0.7,5.1,1.4,7.5,2.1   c0.8,1.1,1.9,1.4,3.5,1.3C410.2,407.4,407,406.7,404.3,404.3z" />
	<path display="inline" fill="#ECC8B9" d="M387.3,314.3c-0.1-3,0.1-5.9,2.3-8.2c0.4,0.1,0.9,0.1,1.3,0.2c2.3,4,4.6,9.1,8.5,12   c-1,3.6-2.8,6.7-5.3,9.5c-4.2-2-2.1-7.6-4.7-10.9c0.4-1.3,1.8-3.6-0.4-4.1c-0.7,2.3-1.2,4.5-1.7,6.9c-0.5-0.5-0.9-0.9-1.4-1.4   C386.5,316.9,387.8,315.9,387.3,314.3z M390.1,308.8c-0.1,0-0.3,0-0.4,0c0,0.5,0,0.9,0,1.4c0.1,0,0.3,0,0.4,0   C390.1,309.7,390.1,309.2,390.1,308.8z" />
	<path display="inline" fill="#B6BCD4" d="M409.4,398.5c3-3.4-4.5-13.3,2.4-19.4c3.5,7.1,5.2,14.5,6.2,22.2   C414.9,400.9,411.9,400.4,409.4,398.5z M412.9,397.6c-0.6-2.3-0.7-4.7-2.8-7.1C410.9,392.7,410.3,398.1,412.9,397.6z" />
	<path display="inline" fill="#CCCBD9" d="M325.5,592.3c2.6,0.4,5.1,1.2,7.3,2.8c-9.4,4.6-21.1,0.2-31-0.9c-0.8-3,2.4-0.8,2-4.9   c0.4,1.5,0.8,2.4,1.8,3.9c1.8-3.2,4.9-3.3,8.2-2.9c-1.6,0.6-6.8,0.7-5.3,3.4c3.7-1.2,7.6-1.4,11.4-1.9c2.5,0.8,4.1,3.4,7,3   C327.2,593.3,325.9,593.1,325.5,592.3z" />
	<path display="inline" fill="#363945" d="M449.2,551.7c-6.7,0-13.4,0-20.1,0c-1-2.7,0.6-4.8,0.4-7.4c1.6-0.3,3-0.9,4.5-1   c3.6,1.6,7.7-0.4,11,1.3c-1.4,0.1-2.7,0.2-4.2,0.2c-0.1,2.2-0.4,4.1,0.2,6.2C443.8,551.4,446.8,550.3,449.2,551.7z" />
	<path display="inline" fill="#4A64C2" d="M504.4,469.2c0.6-5.1,2.9-9,3.4-13.6c5-0.5,9.8-0.4,15.2-0.3   C515.4,459.6,510.8,463,504.4,469.2z" />
	<path display="inline" fill="#4B64C3" d="M391.9,469.4c3.4-1,10.8-5.3,12-8.7c1.9,1.8,1.5,5,2.1,7.2c-3.6,2.8-7,5.5-10.6,8.2   c-1.3-0.8-0.6-2.5-1.5-3.6C393.1,471.6,392.5,470.5,391.9,469.4z" />
	<path display="inline" fill="#FAFBFB" d="M527.3,531.8c6.6,1.8,13.3,0.2,19.9,0.2c-8.8,6.2-13.5,11.3-20.8,0.6   C526.7,532.4,527,532.1,527.3,531.8z" />
	<path display="inline" fill="#4A64C4" d="M364,399.2c-4.5-3.9-9.2,0.7-12.8,3.6c-3.6,0-6.7,0.1-10.4,0.3c5.3-6.1,14-7.9,21.8-8.2   C363.1,396.4,363.5,397.8,364,399.2z" />
	<path display="inline" fill="#E9C6B6" d="M425,477.9c7.2,1.8,2.5,9.4,5.5,14.7c0.7,0.2,1.6,0.6,2.7,1c0.6-0.2,1.3-0.5,1.9-0.7   c0,1.6,0,1.7,1,3.3c1.2,0,2.5,0,3.8,0c0.6,1,1.5,1.7,3.2,1.8c-3,1.5-6,1.9-8.7,0.6c0.1-0.3,0.2-0.5,0.5-1c-1.8,0.3-3.4-0.3-4.2,1.6   c-0.2-0.1-0.4-0.1-0.6,0c-3.1-5.6-1.8-12.4-2.8-18.7c-1-0.6-1.8-1-2.8-1.6C424.6,478.6,424.8,478.3,425,477.9z" />
	<path display="inline" fill="#363945" d="M477.6,553.8c1.2-2.3,0.6-4.8,0.7-7.3c-1.5-0.7-2.9-0.3-4.3-0.5c3.4-1.9,7.8,0.6,11.7,0.2   c1,2.5-0.1,4.8-0.5,7.4C482.7,554.2,480.1,553.8,477.6,553.8z" />
	<path display="inline" fill="#363945" d="M480.4,495.1c1.8-1.9,1.5-4.5,1.9-7c-6.4-0.9-13.7,1-19.6-0.8c8.5-0.6,17.1,0.8,25.3,0   c0.5,2.1,0.1,4,0.3,5.8c-1.5,0.9-2.8,1.7-4.2,2.5c-0.7,0.1-1.6-0.9-2.5-0.1C481.3,495.6,480.7,495.2,480.4,495.1z" />
	<path display="inline" fill="#EAC7B7" d="M493,474.2c1.9,5,2.9,12.9-1.9,16.5c0.3-2.6-2-3.9-2.2-6.9c1.8-1.2,2.3-4.3,0.7-5.8   c0-0.3-0.1-0.6-0.1-0.9c0.3-0.6,0.6-1.2,0.9-1.8C491.6,475.7,492.3,474.9,493,474.2z" />
	<path display="inline" fill="#DDDDE4" d="M324.3,544c2.6,1.2,5.4,0.4,8.3,0.7c0.1,1.9,0.2,4,0.4,6.2c-3.2,0-6.7-0.5-10,0.3   C323.7,548.8,323.2,546.2,324.3,544z" />
	<path display="inline" fill="#B2B9D0" d="M394.5,362.9c0.5,0.6,1,1.2,1.4,1.7c-2.1,1.1,2,2.7,2.9,3.4c-2.6,1.8,3.2,6.3-2.6,5.2   c-1.8,2.7-3,6.6-3.1,9.9c-1.4-2.3-1-5.3-0.6-7.8c0.1-1.3-0.7-2.8,0.5-4C393.4,368.5,393.6,365.6,394.5,362.9z" />
	<path display="inline" fill="#0C0B15" d="M452.7,429.7c11.5-5.5,23.7-10.2,36.2-12.7c0,0.3,0,0.6,0,0.9   c-11.9,4.2-23.9,7.8-35.5,12.6C453.2,430.2,453,429.9,452.7,429.7z" />
	<path display="inline" fill="#EECABA" d="M577.5,429.5c0.7,0.9,1.4,1.8,2.3,3c-0.6,2.2,1.7,4.6,0.1,6.6c-0.1-0.4-0.2-0.9-0.3-1.3   c-0.8,0.9-1.6,1.8-2.2,2.4c-4.1,0.2-4-5.5-4-8.4c0.6-0.9,1.3-1.9,2-2.8c0,0.4,0.1,0.8,0.1,1.4C576.4,430,576.8,429.8,577.5,429.5z" />
	<path display="inline" fill="#373A46" d="M457.7,487.2c-0.4,0.1-0.8,0.2-1.4,0.4c-0.3,2.8,0.3,5.6-0.8,8.2c-1.9,0-3.8,0-5.7-0.1   c0.1-3.1-0.5-6.4,1.4-9.1C453.4,486.8,455.9,485.9,457.7,487.2z" />
	<path display="inline" fill="#363945" d="M445,495.6c-0.3,0-0.9,0-1-0.1c-4.2-4.9-6.4,0.2-7.4-9.3c1.8-1.1,3.2,0.5,4.8,0.3   c1.6-0.2,3.3,0,4.9,0c-0.7,0.4-1.3,0.8-2.1,1.2C444.5,490.4,444.7,493,445,495.6z" />
	<path display="inline" fill="#070707" d="M315.2,559.6c-0.1,0.3-0.1,0.7-0.2,1.2c4.8,1.8,10.1-0.2,14.7,2.8   c-3.9,3.4-9.8,0.8-14.5,0.9c-0.6-0.7-1.1-1.5-2.2-1.5C313.3,561.7,314,560.6,315.2,559.6z" />
	<path display="inline" fill="#C8CAD8" d="M312.9,563c1.1-0.1,1.6,0.8,2.2,1.5c-1.3-0.1-2.5,1.5-1.3,2.3   c-4.8,5.7-7.8,12.9-10.9,19.8C300.7,577.9,310.6,571.1,312.9,563z" />
	<path display="inline" fill="#4B4F5D" d="M445,495.6c-0.2-2.6-0.5-5.3-0.7-7.8c0.7-0.4,1.4-0.8,2.1-1.2c1.6,0,3.3,0,4.9,0   c-1.9,2.7-1.3,6-1.4,9.1C448.2,495.7,446.6,495.6,445,495.6z" />
	<path display="inline" fill="#363945" d="M449.2,551.7c-1.2-1.1-2.8-0.6-4.3-0.7c-0.1-2.3,1-4.2,0.7-6.4c3.4,0.5,7.7-0.9,10.7,0.7   c-1.5,0-3,0-4.7,0c-0.6,2.3-0.2,4.4-0.4,6.5C450.6,551.8,449.9,551.7,449.2,551.7z" />
	<path display="inline" fill="#D9B9AA" d="M359.8,355.2c0.2,0,0.5,0,0.7,0c0.2,0.5,0.4,1,0.6,1.5c-2-0.7-1.4,1.6-1.3,2.7   c-0.8,0.8-1.2,1.1-2.3,1.9c0.8,0.1,1.2,0.2,1.5,0.3l0.1,0.1c-0.8,0.7-0.9,1.7-0.8,2.7c-1.7-5-5.3-9.5-5-15.1   C355.6,351.2,356.8,354.6,359.8,355.2z" />
	<path display="inline" fill="#4862BF" d="M362.6,394.9c-0.7,0-1.5,0-2.2,0c0.2-0.3,0.4-0.6,0.6-0.9c-1.4-2-3.2-0.6-4.9-0.5   c-0.2-2.7,0.5-4.9,0.2-7.7c0.8-0.3,1.5-0.6,2.2-0.9C359.7,388,361,391.6,362.6,394.9z" />
	<path display="inline" fill="#DFC0B1" d="M483.9,497.1c1.7,1.2,4.1,0.8,5.9,2.2c-4.8,1.5-10.8,1.2-15-1.9   C475.6,495.3,481.6,497.5,483.9,497.1z" />
	<path display="inline" fill="#4B4F5D" d="M445.6,544.7c0.3,2.2-0.9,4.1-0.7,6.4c-1.3,0-2.5,0-3.9,0c-0.6-2.1-0.3-4-0.2-6.2   C442.5,544.8,444,544.5,445.6,544.7z" />
	<path display="inline" fill="#4A62BF" d="M411.5,432.6c4.3,1.5,13.9,4.1,14.2,9.2c-0.2,0-0.5,0-0.7,0   C420.7,438.6,415.3,436.4,411.5,432.6z" />
	<path display="inline" fill="#251B19" d="M460.4,253.2c-3-2.3-8.4-1.3-10.5-4.4c0.8-0.4,1.6-0.4,2.4-0.1c4.3,2,9,1.1,13.3,2.1   c-1.6,0.1-3.2,0.2-4.9,0.3C460.7,251.9,460.6,252.5,460.4,253.2z" />
	<path display="inline" fill="#C6C9D5" d="M324.3,544c-1.1,2.3-0.6,4.8-1.4,7.2c-0.6,0.2-1.2,0.4-2.1,0.7c0-3.3-0.9-5.9,1.1-8.7   C322.8,543.5,323.5,543.7,324.3,544z" />
	<path display="inline" fill="#CDB8AE" d="M415,444.6c-0.4,0-0.8,0-1.2,0c-0.8-4.3-4.9-6.4-5.8-10.6c0.8-0.2,0.7-0.9,0.8-1.5   c2.1,3.2,4.1,6.5,6.3,9.8C415,443,415,443.8,415,444.6z" />
	<path display="inline" fill="#1A1312" d="M356.8,353.1c-1.2-1.3-2.3-2.5-3.5-3.8c-0.1-0.5-0.1-1-0.2-1.5c-0.1,0-0.3,0-0.4,0   c-0.1,0.6-0.2,1.2-0.3,1.8c-1.2-2.7-0.3-5.8-0.5-8.7c1,1.5,0,3.2,0.5,4.7c2.9,1.2,3.7,4.2,5.2,6.6   C357.4,352.5,357.1,352.8,356.8,353.1z" />
	<path display="inline" fill="#CDCBD8" d="M339.8,579.5c2.3,1.1,2.3,1.1,4.2,4c0.3,0.1,0.7,0.1,1,0.2c-1.8,0.5-3.2,1.5-5.1,1.3   C339.8,583.2,339.8,581.3,339.8,579.5z" />
	<path display="inline" fill="#73514D" d="M447.1,300.5c4-1.7,9.5-1.9,14.1-2.1c-1.5,1.3-3.4,1.3-5.1,2c-0.7-1.3-2-0.7-2.8-0.5   C451.3,300.7,449.2,300.6,447.1,300.5z" />
	<path display="inline" fill="#435AB1" d="M507.5,444.8c-0.5,3-0.5,6-2.5,8.6c0.4-3.2-0.6-6.6,1.6-9.5   C507,444.2,507.3,444.5,507.5,444.8z" />
	<path display="inline" fill="#191C34" d="M417.2,419.8c5.2,2.9,7.4,4.5,8.2,6c-3.2-0.5-6.4-3.8-9.5-5.3   C416.4,420.4,417,420.5,417.2,419.8z" />
	<path display="inline" fill="#B7A299" d="M447.1,300.5c2.1,0.1,4.1,0.2,6.2-0.5c0.8-0.3,2.1-0.8,2.8,0.5c-3.6,0.7-7.9,2.8-11.4,1   C445.5,301.1,446.7,301.6,447.1,300.5z" />
	<path display="inline" fill="#E8EFEF" d="M335,546.8c1.6-0.2,2.9,0.8,4.6,1.2c0.1,1.1,0.2,2.2,0.4,3.4c-1.5-0.1-2.3-0.8-2.7-1.7   c-0.5-1.2-1.9-0.9-2.5-1.9C334.8,547.4,334.9,547.1,335,546.8z" />
	<path display="inline" fill="#2E1716" d="M435.5,472.2c0-0.3,0.1-0.7,0.1-1c-0.8-1-2.5,0.4-3.1-1.4c0.5-0.4,1-0.8,1.6-1.3   c1.1,0.9,3,0.9,3.1,3C436.6,471.8,436.1,472,435.5,472.2z" />
	<path display="inline" fill="#11161A" d="M454.7,484.1c2.8-0.7,5.5-0.4,8.3,0.6C460,485.9,457.4,484.2,454.7,484.1z" />
	<path display="inline" fill="#B6B2B9" d="M323.6,554.7c0,0.4,0,0.8,0,1.2c-1.8,0-3.7,0-5.5,0C317.7,553.6,322.1,555.2,323.6,554.7z   " />
	<path display="inline" fill="#D5B7A9" d="M489.6,477.1c0.2,1.6-0.1,3.1-0.2,4.8c-0.4,0.3-0.9,0.6-1.6,1   C486.5,480.9,489,479.1,489.6,477.1z" />
	<path display="inline" fill="#314587" d="M507.5,444.8c-0.3-0.3-0.6-0.6-0.8-0.9c1.2-2.3,1.8-5.1,3.5-7.1l0,0   C510.3,439.6,508.4,442.1,507.5,444.8z" />
	<path display="inline" fill="#292422" d="M493,474.2c-0.7,0.7-1.4,1.5-2.6,1.1c-0.2-0.8-0.8-0.8-1.4-0.8c2.3-0.8,2.9-1.3,5.2-3.1   C493.6,472.8,493.3,473.5,493,474.2z" />
	<path display="inline" fill="#B1A199" d="M518.9,402.2c-0.1-1.1,0-2.2-0.8-3c-0.1-1.7,0.5-3.1,1.2-4.6   C519.7,397.2,519.9,399.7,518.9,402.2z" />
	<path display="inline" fill="#82675F" d="M430,499.2c1.5,0,3,0.2,4.3-0.6c0.8,0.6,1.8,0.7,2.8,0.7   C435.1,500.1,431.7,500.7,430,499.2z" />
	<path display="inline" fill="#714E48" d="M352.6,463.9c1-1.1,2.9-1.2,4.4-0.2C355.6,464.5,354.1,465.1,352.6,463.9z" />
	<path display="inline" fill="#0C0B15" d="M489.7,425.4c-0.5-2.6,0.5-5.2-0.3-7.7C490.8,418.3,490.5,424.3,489.7,425.4z" />
	<path display="inline" fill="#151628" d="M419.4,428.9c1.2,0.7,2.3,1.5,3.5,2.2c-0.3,0.2-0.5,0.5-0.8,0.7c-1.2-0.7-2.4-1.4-3.7-2.1   C418.8,429.5,419.1,429.2,419.4,428.9z" />
	<path display="inline" fill="#5E6774" d="M398.6,330.5c1,0.3,2,0.5,2.9,1.9c-2-0.7-3.9-0.1-5.6-1.2   C396.9,331.2,397.8,331.1,398.6,330.5z" />
	<path display="inline" fill="#604D47" d="M388.1,316.2c0.3-1.1,0.6-2.2,1-3.3c2.1,0.4,0.8,2.8,0.4,4.1   C389,316.7,388.6,316.4,388.1,316.2z" />
	<path display="inline" fill="#ACB2B2" d="M341.6,552.3c0.5-1,0.9-2,1.5-3.3C343.6,552.1,343.5,552.3,341.6,552.3z" />
	<path display="inline" fill="#D2C0B1" d="M479.7,480.8c-0.9,0.7-1.9,1.4-2.8,2.1c0-2.6,0.1-2.7,2.6-2.7   C479.6,480.4,479.6,480.6,479.7,480.8z" />
	<path display="inline" fill="#5B5D5D" d="M487.4,354.6c-0.1,0-0.4,0-0.5,0c0-1.8,0.8-3.3,1.8-5.5   C489.3,351.6,488.2,352.5,487.4,354.6z" />
	<path display="inline" fill="#40549C" d="M488.2,389.3c1.7,1.5,1.7,1.5,0.5,3.4c-0.4-1-0.8-1.8-1.2-2.7   C487.7,389.7,488,389.5,488.2,389.3z" />
	<path display="inline" fill="#C6C9D5" d="M331.6,544.6c-2.2-0.2-4.8,0.8-6.6-0.5C327.2,544.1,329.4,543.7,331.6,544.6z" />
	<path display="inline" fill="#C8CAD8" d="M303.8,589.3c-0.2,1.1,0.2,3-1.4,3c1.4-1.6,0.6-3.7,0.5-5.7   C303.7,587.3,303.8,588.2,303.8,589.3z" />
	<path display="inline" fill="#242B52" d="M409.4,407.8c1.1,0.6,2.6,0.4,3.5,1.9C411.3,409.9,409.4,409.4,409.4,407.8z" />
	<path display="inline" fill="#2D335E" d="M425,441.8c0.2,0,0.5,0,0.7,0c0.9,0.8,1.8,1.5,3.3,2.7c-2.2-0.1-2.9-1.3-4-2   C425,442.3,425,442.1,425,441.8z" />
	<path display="inline" fill="#1B1E39" d="M465.6,432.6c1.2-0.2,2.4-0.5,3.5-0.7c0.2,0.2,0.5,0.5,0.7,0.7c-1,1.1-2.3,0.5-3.5,0.8   C466.1,433.1,465.8,432.9,465.6,432.6z" />
	<path display="inline" fill="#4C3E39" d="M419.5,489.9c0.4,1,0.8,2,1.3,3.3c-1.4-1-1.4-1-2.2-2.5   C418.9,490.5,419.2,490.2,419.5,489.9z" />
	<path display="inline" fill="#1D2241" d="M486.8,443.9c-1,1-2.1,0.8-3.6,0.5c1-0.8,1.8-1.4,2.9-1.2   C486.4,443.5,486.6,443.7,486.8,443.9z" />
	<path display="inline" fill="#513531" d="M549.2,449.5c0.7-0.4,1.5-0.9,2.1-1.2c1.4,1.2-0.6,1.5-1.4,1.9   C549.7,450,549.4,449.8,549.2,449.5z" />
	<path display="inline" fill="#573C37" d="M498.3,385.1c0.2-0.2,0.4-0.4,0.6-0.6c1.2,0.7,0.9,2.5,0.1,3.5   C499,386.9,498.9,386,498.3,385.1z" />
	<path display="inline" fill="#85766D" d="M352.5,349.6c0.1-0.6,0.2-1.2,0.3-1.8c0.1,0,0.3,0,0.4,0c0.2,1.3,0.2,2.6,0.1,3.9   C353,351,352.8,350.3,352.5,349.6z" />
	<path display="inline" fill="#576363" d="M527.3,531.8c-0.3,0.3-0.5,0.5-0.8,0.8c-0.8-0.3-1.4-0.7-1.1-2   C526,531.1,526.7,531.5,527.3,531.8z" />
	<path display="inline" fill="#9E857A" d="M419.5,489.9c-0.3,0.3-0.6,0.5-0.9,0.8c-0.2-0.5-0.4-1-0.6-1.5c0.2-0.2,0.5-0.5,0.7-0.7   C419,489,419.3,489.5,419.5,489.9z" />
	<path display="inline" fill="#7B6A66" d="M505.2,304.1c0.1-0.6,0.2-1.3,0.2-1.9c0.2,0,0.3,0,0.5,0.1c-0.1,0.9-0.1,1.8-0.2,2.7   C505.6,304.6,505.4,304.4,505.2,304.1z" />
	<path display="inline" fill="#363945" d="M451.3,551.8c1,0.2,2.1-0.5,2.9,0.6C453.2,552.3,452,552.9,451.3,551.8z" />
	<path display="inline" fill="#3C4F97" d="M510.8,434.7c0.3,0,0.5,0,0.8,0c-0.3,0.8-0.5,1.7-1.4,2.1l0,0   C510.2,436,509.9,435.2,510.8,434.7z" />
	<path display="inline" fill="#615E58" d="M491.8,336.1c0,0.2,0,0.5-0.1,0.7c-0.5,0.3-1.1,0.5-2.1,1   C490.2,336.3,490.8,336,491.8,336.1z" />
	<path display="inline" fill="#6C3937" d="M402.3,272.9c-0.6-0.1-1.2-0.1-1.9-0.2c0-0.1,0-0.3,0-0.4c0.7,0,1.3-0.1,2-0.1   C402.4,272.5,402.3,272.7,402.3,272.9z" />
	<path display="inline" fill="#373A46" d="M455.5,495.7c0.8,0,1.6-0.3,2.2,0.6C456.9,496.4,456,496.7,455.5,495.7z" />
	<path display="inline" fill="#513531" d="M545.7,450.3c0.6-0.7,1.4-0.8,2.2-0.6C547.3,450.5,546.5,450.4,545.7,450.3z" />
	<path display="inline" fill="#444449" d="M483.4,485.2c0.3-0.1,0.7-0.3,1-0.4C484.9,485.4,484.3,485.9,483.4,485.2z" />
	<path display="inline" fill="#3B403D" d="M479.7,480.8c-0.1-0.2-0.1-0.4-0.2-0.5c0.7-0.2,1.2-0.2,1.6,0.5   C480.7,480.7,480.2,480.8,479.7,480.8z" />
	<path display="inline" fill="#3B403D" d="M481.9,480c0.4,0.3,0.8,0.6,0.3,1.1c-0.1-0.1-0.3-0.2-0.4-0.3   C481.9,480.5,481.9,480.2,481.9,480z" />
	<path display="inline" fill="#DFC0B1" d="M485.4,496.5c-0.3,0.7-0.8,0.7-1.4,0.6C484.2,496.4,484.8,496.4,485.4,496.5z" />
	<path display="inline" fill="#5876E8" d="M423.1,403.7c0.4-0.3,0.8-0.3,0.9,0.2C423.7,403.9,423.4,403.8,423.1,403.7z" />
	<path display="inline" fill="#1C3262" d="M362.6,467.3c-0.4-0.1-0.8-0.1-1.4-0.2C362.1,466.4,362.4,466.8,362.6,467.3L362.6,467.3z   " />
	<path display="inline" fill="#FBDFD3" d="M442.6,467.4c0.8,0.1,0.9,0.6,0.9,1.3C443.2,468.2,442.9,467.8,442.6,467.4z" />
	<path display="inline" fill="#FBDFD3" d="M443.6,468.7c0.2,0.2,0.4,0.5,0.6,0.7C444,469.2,443.8,468.9,443.6,468.7z" />
	<path display="inline" fill="#4B65C5" d="M432.8,454.4l-0.3,0.1l-0.3-0.1c-0.1-0.2-0.2-0.4-0.1-0.7l0,0   C432.4,454,432.6,454.2,432.8,454.4z" />
	<path display="inline" fill="#513531" d="M549.3,450.4c-0.3,0.2-0.5,0.3-0.8,0.5C548.8,450.7,549.1,450.6,549.3,450.4z" />
	<path display="inline" fill="#140F0E" d="M435.7,241.7c-1.3-1.4-3.2-2.7-4.6-3.8c-1.3-3.5-1.8-6.9-1-10.4c0.2,0.1,0.4,0.1,0.5,0.1   c0.2,3.3,1.9,6.6,2.6,9.7c4,2.7,7.8,5.3,11.6,7.9c0,0.3,0,0.7,0,1.3C441.3,246.2,439.1,242.2,435.7,241.7z" />
	<path display="inline" fill="#201918" d="M450.6,206.2c-1-0.5-1.7-1.1-2.1-2.1c1.5-0.8,2.4-0.5,4,0c2.5-1.4,4.7,0.1,7.2,0.5   c0.4,1,0.7,1.9,1.1,2.7c-1.4,1.6-2.8,0.1-4.4,0.4C455,205.7,452.6,206.3,450.6,206.2z" />
	<path display="inline" fill="#211918" d="M456.3,207.6c0.6,0,1.1,0.1,1.7,0.1c-0.4,0.8-0.9,1.6-1.4,2.5c-3.4,1-7,0.1-10.7,0.3   C446.4,207.8,453.9,207.5,456.3,207.6z" />
	<path display="inline" fill="#2C211F" d="M455.7,235.8c0-0.4-0.1-0.9-0.1-1.5c2.5,0.2,15.4-3.7,14.3,0.3   C465,234.9,460.4,236.3,455.7,235.8z" />
	<path display="inline" fill="#D8BDAF" d="M455.7,235.8c4.7,0.5,9.4-0.9,14.1-1.2c-1.1,1-1.7,2.3-2.3,3.7c-2.6-1.1-6-1.9-7.7,1.1   C459.8,236.2,456.6,237.6,455.7,235.8z" />
	<path display="inline" fill="#110C0C" d="M459.8,239.4c1.8-3,5.1-2.2,7.7-1.1c0.1,0.5,0.2,1.1,0.4,1.8   C465.8,240.9,459.7,242.9,459.8,239.4z" />
	<path display="inline" fill="#261F1E" d="M469.1,225.7c-2.1,1.6-4.3,0.4-6.4,2c-0.4-0.5-0.7-0.8-0.9-1.2   C462.4,223.9,468.7,222.5,469.1,225.7z" />
	<path display="inline" fill="#2B2523" d="M425.1,221c-1.1-0.9-2-1.9-2.2-3.4c0.8-0.9,1.9-1.5,2.9-2.3c0.2,0,0.5,0,0.7,0   c0.3,0.7,0.9,0.7,1.5,0.7c-0.1,1.1-0.1,2.3-0.2,3.4c-0.9,0.1-1.8,0.3-2.6,0.4C425.1,220.4,425.1,220.7,425.1,221z M426.2,217   c-0.5,0.2-0.5,0.5-0.2,0.9C426.5,217.7,426.4,217.4,426.2,217z" />
	<path display="inline" fill="#A49890" d="M447.8,192c-0.5-1.6-1.8-3.1-1.4-4.8c1.3-0.3,2.1,0.6,3.2,1.1c0.9-0.9,2.1-0.8,3.2-0.5   c-0.5,0.2-0.9,0.5-1.5,0.8c-0.2,0.7-0.1,2.1-1.4,1.9C448.5,190.4,448.5,191.7,447.8,192z" />
	<path display="inline" fill="#4C4642" d="M448.5,204.1c0.2,0.4,0.5,0.9,0.7,1.3c-1.5,0.7-3.1,1.5-4.7,2.3c-0.2-0.4-0.3-0.7-0.6-1.2   C445.6,205.9,446.5,204.1,448.5,204.1z" />
	<path display="inline" fill="#D8C3B8" d="M429.2,212.7c0.1,1.6,2,3.6,0.9,5c-0.7-0.8-1.5-1.5-2.2-2.4c0.1-0.2,0.1-0.4,0-0.6   c0.8-0.6,0.7-1.4,0.7-2.2l-0.1,0.1C428.8,212.6,429,212.7,429.2,212.7z" />
	<path display="inline" fill="#B3B0A7" d="M456.3,207.6c-2.1-0.1-4.2,0.1-5.8-1.4C452.6,206.3,455,205.7,456.3,207.6z" />
	<path display="inline" fill="#D8C3B8" d="M427.7,219.6c0.1-1.1,0.1-2.3,0.2-3.4l0,0c0.2,0,0.3-0.1,0.5-0.2c0.1,0.1,0.2,0.2,0.3,0.3   C428.4,217.3,429.2,219.2,427.7,219.6z" />
	<path display="inline" fill="#242424" d="M454.8,182c3,1.8,4.3,0.7,7.5,3.3c-3.2,0.5-6-2.1-9.3-2c-0.4-0.8,0.1-1.1,0.4-1.8   C454,181.8,454.4,181.9,454.8,182L454.8,182z" />
	<path display="inline" fill="#D7BEB3" d="M423.7,216.8c-0.3,0.3-0.6,0.6-0.9,0.8c-1.2-1.7-3.5-4-1.4-5.8c0.5,0,1,0,1.5-0.1   c0.6,0.4,1,1,1.5,1.5c0,0.5,0,1-0.1,1.5c-0.2,0.2-0.4,0.5-0.7,0.7C423.7,215.9,423.7,216.3,423.7,216.8z" />
	<path display="inline" fill="#1F1F1F" d="M426.5,199.1c0.5-0.6,1-1.2,1.8-2.1c0.2,0.7,0.4,1.1,0.5,1.6c0.9,0.2,1.8,0.3,2.7,0.5   c0,0,0,0,0,0c-0.8,0.9-1.7,1.9-2.7,3.1C427.9,200.9,426.5,200.6,426.5,199.1L426.5,199.1z" />
	<path display="inline" fill="#CEB5A8" d="M427.8,212.8c-1.3-1.1-2.7-2.1-2.9-3.9c2-2.8,4.3,1.7,3.6,3.7c0,0,0.1-0.1,0.1-0.1   C428.4,212.6,428.1,212.7,427.8,212.8z" />
	<path display="inline" fill="#303232" d="M446.4,187.2c0,0.4-0.1,0.9-0.1,1.3c-1.7-1.1-3.4-0.3-5.4-0.3c0.8-1.3,1.8-2.1,2.8-3.1   C444.8,185.6,446,185.8,446.4,187.2z" />
	<path display="inline" fill="#313232" d="M434.8,187.5c-1.6-2,2.2-3.8,3.2-5.4c0.4,0.3,0.7,0.5,1,0.7   C436.7,186.5,436.7,186.5,434.8,187.5z" />
	<path display="inline" fill="#2C2D2D" d="M455.4,173.8c-1,1.6-2.3,2.5-3.7,3.9C451.2,173.7,451.4,173.4,455.4,173.8z" />
	<path display="inline" fill="#1F1F1F" d="M426.5,199.1c-0.9,1.3-0.8,2.6-1,4.2c-1.3-1.1-1.3-1.1-1-5.1   C426,197.6,426,197.6,426.5,199.1L426.5,199.1z" />
	<path display="inline" fill="#2F2F2F" d="M479.4,175.8c-1.2,1.7-1.9,2.8-2.7,4c-1.1-1.2-1.1-1.2-1.2-3   C476.5,176.5,477.6,176.3,479.4,175.8z" />
	<path display="inline" fill="#1F1F1F" d="M433.6,199.1c0.9,1.9,0.8,2-2,3.8C431,200.9,432,199.9,433.6,199.1z" />
	<path display="inline" fill="#272A2A" d="M437.8,175.1c-0.8,2.9-2.9,2.6-4.8,2.9C434.3,176.6,435.6,175.8,437.8,175.1z" />
	<path display="inline" fill="#151515" d="M449.3,174.7c-0.5,2.4-0.8,4-1.8,5.5C446.8,177.2,446.8,177.2,449.3,174.7z" />
	<path display="inline" fill="#323232" d="M438,196.7c0.3-1.4,0.5-2.6,0.8-4c0.7,0.4,1.2,0.7,2,1.1C439.6,195,439.9,196.4,438,196.7   z" />
	<path display="inline" fill="#313030" d="M469.4,173.5c-0.1-1.7-0.1-1.7,0.9-3.3C472.5,170.6,470.3,172.6,469.4,173.5z" />
	<path display="inline" fill="#1F1F1F" d="M432.1,198.4c0.7-1.2,1-2.7,2.5-3.7C434.2,197.7,434.2,197.7,432.1,198.4L432.1,198.4z" />
	<path display="inline" fill="#1A1B1B" d="M432.8,184c0.4-1.3,0.6-1.5,1.3-2.6C435.6,182.4,435.1,183.7,432.8,184z" />
	<path display="inline" fill="#1F2020" d="M454.9,182.1c0-1.3,0.7-2,2.2-2.8C456.8,180.9,456.6,182.2,454.9,182.1L454.9,182.1z" />
	<path display="inline" fill="#232525" d="M460.4,176.8c0,1.7-0.4,2.2-1.7,2.2C458.3,177.9,459.1,177.5,460.4,176.8z" />
	<path display="inline" fill="#282222" d="M427.9,175.7c0.2,0.6,0.4,1.1,0.6,1.9c-1.4-0.3-1.4-0.3-1.9-1.6   C427.1,175.8,427.5,175.8,427.9,175.7L427.9,175.7z" />
	<path display="inline" fill="#272828" d="M433.6,209.7c-0.5,0.9-0.9,1.8-1.5,2.9C431.6,211,431.6,211,433.6,209.7z" />
	<path display="inline" fill="#2C2E2A" d="M423,211.8c-0.5,0-1,0-1.5,0.1c0.4-0.8,0.5-1.8,1.7-2C424,210.6,423,211.2,423,211.8z" />
	<path display="inline" fill="#1F2222" d="M461.3,182.7c1.7,0.2,1.7,0.1,3,0.9C462.8,184.4,462.1,184.1,461.3,182.7z" />
	<path display="inline" fill="#2B2F2F" d="M445.1,172.1c0.7,0,1.2,0.1,1.9,0.1C445.9,173.3,445.9,173.3,445.1,172.1z" />
	<path display="inline" fill="#4E443F" d="M426.5,215.4c-0.2,0-0.5,0-0.7,0c0-0.5,0-0.9,0-1.4c0.4,0,0.9,0,1.3,0   c0,0.2,0.1,0.4,0,0.7C426.9,214.9,426.7,215.2,426.5,215.4L426.5,215.4z" />
	<path display="inline" fill="#2B2523" d="M428.6,212.6c0-0.7,0-1.4,0.1-2.2c1,0.6,0.7,1.5,0.6,2.3   C429,212.7,428.8,212.6,428.6,212.6z" />
	<path display="inline" fill="#2B2523" d="M427.8,212.8c0.3-0.1,0.5-0.2,0.8-0.3c0,0.8,0.1,1.7-0.7,2.2   C427.9,214.1,427.9,213.4,427.8,212.8z" />
	<path display="inline" fill="#2B2523" d="M424.4,214.7c0-0.5,0-1,0.1-1.5C425.3,213.8,425.3,214.3,424.4,214.7z" />
	<path display="inline" fill="#2B2523" d="M427.1,214c-0.4,0-0.9,0-1.3,0C426.5,213.2,426.5,213.2,427.1,214z" />
	<path display="inline" fill="#2B2523" d="M423.8,215.4c0.2-0.2,0.4-0.4,0.6-0.7C424.2,215,424,215.2,423.8,215.4z" />
	<path display="inline" fill="#2B2523" d="M426.5,215.4c0.2-0.2,0.5-0.5,0.7-0.7C426.9,214.9,426.7,215.2,426.5,215.4z" />
	<path display="inline" fill="#1F1F1F" d="M432.1,198.4c-0.2,0.2-0.5,0.5-0.7,0.7l0,0C431.7,198.8,431.9,198.6,432.1,198.4   L432.1,198.4z" />
	<path display="inline" fill="#2B2523" d="M428.4,216c-0.2,0.1-0.3,0.2-0.5,0.2c0-0.3,0-0.5,0-0.8   C428.1,215.5,428.2,215.8,428.4,216z" />
	<path display="inline" fill="#2C2E2A" d="M421.5,211.9c-0.2,0.3-0.5,0.5-0.7,0.8C421,212.4,421.3,212.1,421.5,211.9z" />
	<path display="inline" fill="#2C2E2A" d="M423.7,212.4c-0.2-0.2-0.4-0.4-0.6-0.6C423.2,212,423.4,212.2,423.7,212.4z" />
	<path display="inline" fill="#9A9991" d="M474.1,206c-0.4,1-0.5,1.4-0.7,1.9c-1.3-0.1-2.5-0.2-3.7-0.3c0-0.1-0.1-0.3-0.1-0.4   C471.3,206.6,471.9,206.5,474.1,206z" />
	<path display="inline" fill="#796860" d="M315.8,457.3c0.8,0.7,0.6,1.6,0.7,2.5c-1.1,0.2-1.1-0.6-1.3-1.2   C315.4,458.2,315.6,457.8,315.8,457.3z" />
	<path display="inline" fill="#B7BDD5" d="M477.7,335.2c-7.4,1.5-13.5-2.5-20.4-3.4c-5.5-0.9-13-2.4-13-9.4c2.6,0.1,0.8-5.8,1.4-7.7   c1.6,10.2,14.4,10.8,22.4,14c3.4,0.1,6.4,0.4,8.1,3.7c-3.8-0.4-6.6-1.5-10.6-1.1C469.3,334.4,473.3,334.3,477.7,335.2z    M464.7,330.6c-2.7-0.4-2.7-0.4-4,0.5C462.4,331.8,462.4,331.8,464.7,330.6z M456,329.2c-0.3-0.1-0.6-0.4-0.9,0   C455.5,329.6,455.7,329.6,456,329.2z" />
	<path display="inline" fill="#202023" d="M444.8,370c1-5.8,0.9-11.3,0.9-17.1c3.8,4.5,1.2,12.6-0.1,18   C445.4,370.5,445.1,370.3,444.8,370z" />
	<path display="inline" fill="#1C191C" d="M477.7,335.2c-4.3-0.9-8.4-0.9-12.1-3.8c5.1,0,10.4,0.3,14.8,2.7   C479.8,335.5,478.6,335,477.7,335.2z" />
	<path display="inline" fill="#504C54" d="M455.6,350.1c4.3,4.5,11.1,9.2,10.4,16.2c-2.2-5.9-5.9-10.7-10.5-15.2   C455.5,350.9,455.6,350.5,455.6,350.1z" />
	<path display="inline" fill="#3A3C42" d="M444.8,370c0.3,0.3,0.5,0.6,0.8,0.8c-3.1,4.7,0.4,10.8-2.7,15.5   C442.8,380.8,441.9,375,444.8,370z" />
	<path display="inline" fill="#66636C" d="M427.2,348.9c3.8-2.9,7.8-5.3,13-7.5c-0.9,1.3-1.3,1.9-1.7,2.5c0,0,0,0,0,0   c-3.9,1.2-7.3,3.5-10.6,5.7C427.7,349.3,427.5,349.1,427.2,348.9z" />
	<path display="inline" fill="#1B0E10" d="M422.2,328.4c3.8-0.7,8-2,11.7,0C430,329.6,426,329.4,422.2,328.4z" />
	<path display="inline" fill="#2E3238" d="M422.2,328.4c2.2,1.2,4.9,0.5,7.3,0.7c-4,1.3-8.4,0-12.4,1.7c-0.8,0.3-1.6,0.6-2.3-0.1   C415.9,329.6,417.7,329.1,422.2,328.4z" />
	<path display="inline" fill="#3A353A" d="M455.6,350.1c0,0.4-0.1,0.7-0.1,1.1c-2.7-2.9-7.4-5.6-6.8-10.2   C450.8,343.8,452.6,347.5,455.6,350.1z" />
	<path display="inline" fill="#484950" d="M417.1,358.3c-1.6,2.9-1.3,6.4-3.1,9.8C413.7,364.5,414,360,417.1,358.3z" />
	<path display="inline" fill="#72717D" d="M445.6,321.8c-0.1,0.9-0.7,0.7-1.2,0.6c0.5-3.6-1.2-8.2,0.8-11.1   C446.8,314.4,443.2,319.2,445.6,321.8z" />
	<path display="inline" fill="#343236" d="M440.6,343.8c1.3-2.7,1.6-4.5,3.7-7.1c-0.2,3.3-0.8,5.5-2.8,7.2   C441.1,343.9,440.8,343.9,440.6,343.8z" />
	<path display="inline" fill="#9395A4" d="M427.2,348.9c0.2,0.2,0.5,0.5,0.7,0.7c-2.3,1.6-4.5,3.2-7.1,4.2l0,0   C422.3,351.5,425,350.4,427.2,348.9z" />
	<path display="inline" fill="#777A86" d="M464.8,373.8c2.9,1.2,0.5,3.7,0.3,6.3C464.5,377.7,464.8,375.9,464.8,373.8z" />
	<path display="inline" fill="#7A808D" d="M442.9,386.3c0.4-0.7,0.8-1.4,1.2-2.1c0.3,2.6-0.5,4.3-0.9,7.4   C442.5,389.4,442.8,387.9,442.9,386.3z" />
	<path display="inline" fill="#222326" d="M445.6,321.8c-1.3-1.6-0.7-5.2,0-7.6c0,0.2,0.1,0.4,0.2,0.6   C445.6,317.1,445.6,319.4,445.6,321.8z" />
	<path display="inline" fill="#48484F" d="M411.4,374.9c0.3-1.3,0.5-2.6,0.9-4.5c1.2,2.1,0.3,3.3,0,5.3   C412,375.5,411.7,375.2,411.4,374.9z" />
	<path display="inline" fill="#5E5760" d="M398.7,368c-0.7-0.4-1.5-0.9-2.2-1.3c0.3-0.2,0.5-0.5,0.8-0.7c-0.1-0.1-0.1-0.2,0-0.4   c0.9,0.7,1.9,1.3,3.2,2.2C399.6,367.9,399.2,367.9,398.7,368z" />
	<path display="inline" fill="#7B8390" d="M411.4,374.9c0.3,0.3,0.6,0.6,0.9,0.8c-0.2,0.8-0.6,1.4-1.9,1.2   C410.7,376.2,411,375.6,411.4,374.9z" />
	<path display="inline" fill="#66636C" d="M440.6,343.8c0.3,0,0.6,0,0.9,0.1c-1.3,0.9-1.6,0.9-2.9-0.1l0,0   C439.2,343.9,439.9,343.8,440.6,343.8z" />
	<path display="inline" fill="#686C77" d="M442.7,396c-0.3,0.3-0.6,0.6-0.9,1C441.4,395.7,441.4,395.7,442.7,396z" />
	<path display="inline" fill="#49393F" d="M437.2,327.6c0.8,0,1.3,0,2.1,0C438.6,328.5,438,328.7,437.2,327.6z" />
	<path display="inline" fill="#9395A4" d="M420.8,353.8c-0.1,0.2-0.2,0.3-0.3,0.5C420,353.8,420.6,353.9,420.8,353.8L420.8,353.8z" />
	<path display="inline" fill="#ECC8B8" d="M377.3,395.7c-0.5-0.6-1.1-1.1-1.7-1.8c-0.1,0.7-0.2,1.3-0.3,2c-0.2-0.9-0.7-1.6-1.3-2.3   c0-0.4,0-0.9,0-1.3c0.7,0,1.2,1.2,2.2,0.1c-4.4-5.1-6-11.6-7.9-17.9l0.1-0.2c6.3,7.3,11.6,15.5,14.9,24.5c-1.5-0.1-2.6-0.1-3.7-1   c0-1.3-0.6-2.3-1.8-2.8C377.5,395.3,377.4,395.5,377.3,395.7z" />
	<path display="inline" fill="#231E1D" d="M373.9,393.5c2.4,4.3,2.3,10,4.4,14.7c-0.3,0.3-0.5,0.6-0.8,0.9   C375.8,404.3,372.1,398.6,373.9,393.5z" />
	<path display="inline" fill="#141211" d="M409.4,437.7c2.1,1.9,3.7,4.1,4.4,7c-0.4,0.2-0.7,0.5-1.1,0.8c-2.3-2-2.8-4.7-3.8-7.2   C409,438,409.2,437.8,409.4,437.7z" />
	<path display="inline" fill="#1D1413" d="M376.8,279.3c1.3-1.9,2.8-3.3,4.9-3.7c2.5,2.2-2.5,3.9-4.1,4.6   C377.4,279.8,377.1,279.6,376.8,279.3z" />
	<path display="inline" fill="#322C2A" d="M368.8,286.2c1.2-2.2,2.3-5,5.4-4.5c-1.7,2.1-3.1,3.7-4.5,5.4   C369.4,286.8,369.1,286.5,368.8,286.2z" />
	<path display="inline" fill="#342A28" d="M387.3,314.3c0.3,2.2-1.3,4-2.7,5.5c-0.3-0.3-0.6-0.6-0.9-0.9c0.8-1.6,1.5-3.2,2.3-4.8   C386.7,314.2,387,314.2,387.3,314.3z" />
	<path display="inline" fill="#2D2523" d="M416,475.8c-0.1,0.4-0.1,0.9-0.2,1.3c-2.8-0.8-1.7-3.8-3.7-4.9c1.3-1.3,1.7-0.1,2.3,0.1   C414.5,473.7,415,474.9,416,475.8z" />
	<path display="inline" fill="#150D0C" d="M409.4,437.7c-0.2,0.2-0.4,0.4-0.5,0.5c-0.7-0.6-1.4-1.2-2.2-1.9   c-0.3-0.8-0.9-1.8,0.2-2.9c0.3,0.2,0.7,0.4,1.1,0.6C408.4,435.2,408.9,436.4,409.4,437.7z" />
	<path display="inline" fill="#786760" d="M380.2,416.3c-0.6-1.7-1.2-3.5-1.9-5.2c0.2-0.5,0.4-0.9,0.6-1.4c0.7,1.9,2.1,3.6,2.1,5.7   C380.8,415.8,380.5,416,380.2,416.3z" />
	<path display="inline" fill="#3C3532" d="M422.3,473.9c-1.6-1.2-2-2.3-1.6-3.8C422.7,471.1,422.9,471.4,422.3,473.9z" />
	<path display="inline" fill="#271918" d="M386.5,365.4c-0.1,1.2,0.9,2.4,0.2,3.5C384.8,369.1,385.1,366.2,386.5,365.4z" />
	<path display="inline" fill="#1B1717" d="M384.8,293.6c1.3,3.3,1.3,3.3,0.3,4.7C384.4,296.6,384.4,296.6,384.8,293.6z" />
	<path display="inline" fill="#705F59" d="M359,360.2c1.3-0.9,1.7-2.1,1.4-3.6c0.2,0,0.4,0,0.6,0.1c0.2,1.4-0.1,2.8,0.7,4.1   c-0.5,0.3-0.9,0.5-1.4,0.8c-0.2-1.2-0.2-1.2-1.3-0.6C359.1,360.7,359.1,360.5,359,360.2z" />
	<path display="inline" fill="#483C38" d="M417.2,479.4c-0.2,3.7-4.5-1.2-0.6-1.5C416.7,478.4,416.9,478.9,417.2,479.4z" />
	<path display="inline" fill="#69605C" d="M368.8,286.2c0.3,0.3,0.6,0.6,0.9,0.9c-0.6,1.2-1.1,2.4-2.1,3.9   C367.5,288.6,367.5,288.6,368.8,286.2z" />
	<path display="inline" fill="#6E645E" d="M383.8,318.9c0.3,0.3,0.6,0.6,0.9,0.9c-0.6,1.1-1.7,1.7-2.9,2.9   C381.8,320.7,382.9,319.8,383.8,318.9z" />
	<path display="inline" fill="#4A3C38" d="M380.2,416.3c0.3-0.3,0.6-0.6,0.9-0.9c0.5,0.9,1,1.8,1.5,2.8c-0.3,0.3-0.6,0.5-0.8,0.8   C381.3,418.1,380.7,417.2,380.2,416.3z" />
	<path display="inline" fill="#534643" d="M376.5,326c-0.7-2.1-0.7-2.1,0.9-2.5C377.8,324.6,377.8,325.5,376.5,326z" />
	<path display="inline" fill="#917F76" d="M381.8,419.1c0.3-0.3,0.6-0.5,0.8-0.8c0.4,0.5,0.8,1.1,1.1,1.6c0,0.5,0.1,1.1,0.1,1.9   C382.5,421.1,382.2,420,381.8,419.1z" />
	<path display="inline" fill="#2D2725" d="M378.9,324.7c0.2-2.4,0.3-2.5,2.1-2C380.6,323.5,380.1,324.2,378.9,324.7z" />
	<path display="inline" fill="#9F8C85" d="M385.6,364.2c-0.2-1.7-0.2-1.7,0.7-2.5C386.6,363.2,386.6,363.2,385.6,364.2z" />
	<path display="inline" fill="#5C504C" d="M379.6,397.8c0.4,0.2,0.8,0.5,1.2,0.7c0.2,0.5,0.4,1.1,0.7,1.8c-1.2,0.5-1.6-0.5-2.1-1.1   C379.5,398.7,379.6,398.2,379.6,397.8L379.6,397.8z" />
	<path display="inline" fill="#6D4A46" d="M392.5,272.7c1.3-0.8,1.9-0.6,3.7-0.8C395,273.4,393.9,273.1,392.5,272.7z" />
	<path display="inline" fill="#493D3A" d="M377.3,395.7c0.1-0.2,0.2-0.4,0.5-0.7c1.2,0.5,1.8,1.5,1.8,2.8l0-0.1c-0.2,0-0.5,0-0.7,0   C378.4,397,377.8,396.4,377.3,395.7z" />
	<path display="inline" fill="#5E524D" d="M376.8,279.3c0.3,0.3,0.6,0.6,0.9,0.9c-0.4,0.7-0.8,1.4-2,1.2   C375.4,280.3,376,279.7,376.8,279.3z" />
	<path display="inline" fill="#60534F" d="M420.5,467.6c-0.8,1.2-2.3-0.1-1.4-1C420,466.3,420.4,466.9,420.5,467.6z" />
	<path display="inline" fill="#3B3532" d="M379,409.7c-0.2,0.5-0.4,0.9-0.6,1.4c-0.3-0.7-0.6-1.4-0.8-2c0.3-0.3,0.5-0.6,0.8-0.9   C378.5,408.7,378.8,409.2,379,409.7z" />
	<path display="inline" fill="#584340" d="M391,306.3c-0.4-0.1-0.9-0.1-1.3-0.2c0.3-0.4,0.6-0.8,1.2-1.5   C390.9,305.5,391,305.9,391,306.3z" />
	<path display="inline" fill="#947771" d="M403.4,429.1c-0.3-0.5-0.5-0.8-0.7-1.2C403.2,427.4,404,428.1,403.4,429.1z" />
	<path display="inline" fill="#201717" d="M405.4,430.9c0.6,0.3,0.8,0.7,0.2,1.2C405.1,431.8,404.8,431.4,405.4,430.9z" />
	<path display="inline" fill="#ECC8B8" d="M379,397.7c0.2,0,0.5,0,0.7,0c-0.1,0.5-0.2,1-0.3,1.4C379.2,398.7,379.1,398.2,379,397.7z   " />
	<path display="inline" fill="#9F938C" d="M385.7,359.1c-0.3-0.3-0.4-0.6,0-0.8C386.1,358.5,385.8,358.8,385.7,359.1z" />
	<path display="inline" fill="#EECABA" d="M367.7,373.6c0.2,0.2,0.5,0.4,0.7,0.7c0,0-0.1,0.2-0.1,0.2c-0.3-0.2-0.6-0.3-0.8-0.5   C367.5,373.8,367.6,373.7,367.7,373.6z" />
	<path display="inline" fill="#100B0B" d="M506.6,372.2c-2.5,2.3-4.9,4.6-7.4,6.9c-1.5-3.2,4-7.4,6.2-9.7c0.5,0,1.1,0,1.5,0   C508.1,370.6,506.9,371.4,506.6,372.2z" />
	<path display="inline" fill="#37312F" d="M503.1,292.1c0.9,2.1,2.3,4.4,0.3,6.3c-0.4-2.2-0.8-3.8-1.1-5.5   C502.6,292.6,502.8,292.3,503.1,292.1z" />
	<path display="inline" fill="#221917" d="M509.5,321.5c-0.4,2.3-0.4,2.3-2.2,4C507.8,323.9,507,320.2,509.5,321.5z" />
	<path display="inline" fill="#222321" d="M489.4,471.3c1.7-1.6,1.7-1.6,4.4-1.4C492.7,471.6,491.4,471.8,489.4,471.3z" />
	<path display="inline" fill="#4A3936" d="M502.5,328c1-2.6,1-2.6,2.7-2.2C505,327.1,504,327.6,502.5,328z" />
	<path display="inline" fill="#62413E" d="M486.8,280.7c-1.4,0.1-2.7,0-3.9-0.3c0-2.3,2.7-0.3,3.9-0.3   C486.8,280.3,486.8,280.5,486.8,280.7z" />
	<path display="inline" fill="#1D1F1D" d="M515.5,405c1.1,0.9,0.6,1.7,0,2.6C514.3,406.8,515,406,515.5,405z" />
	<path display="inline" fill="#B6928B" d="M486.8,280.7c0-0.2,0-0.4-0.1-0.6c0.9,0.5,2.2,0.4,3.2,1.8   C488.4,281.4,487.6,281.7,486.8,280.7z" />
	<path display="inline" fill="#C3ACA4" d="M501.6,291.4c-0.6-0.6-1.2-1.2-1.9-1.9c1.3-0.4,1.7,0.3,2,1.1   C501.7,290.8,501.6,291.1,501.6,291.4z" />
	<path display="inline" fill="#9F8F87" d="M513.4,413.7c0.5,0.6,0,1-0.2,1.6c-0.3-0.1-0.6-0.2-0.8-0.3   C512.8,414.5,512.7,413.9,513.4,413.7z" />
	<path display="inline" fill="#755754" d="M501.6,291.4c0-0.3,0.1-0.6,0.1-0.8c0.7,0.2,1.3,0.7,1.4,1.5c-0.3,0.3-0.5,0.5-0.8,0.8   C502.1,292.4,501.8,291.9,501.6,291.4z" />
	<path display="inline" fill="#2B1211" d="M509.6,368c-0.7,1.2-2.2-0.4-0.8-0.8C509,367.5,509.3,367.8,509.6,368z" />
	<path display="inline" fill="#705B56" d="M509.6,368c-0.3-0.3-0.6-0.6-0.8-0.8c0.5-0.2,1.1-0.5,1.7-0.8   C510.8,367.5,510.1,367.8,509.6,368z" />
	<path display="inline" fill="#8E7770" d="M501.2,396.9c0-0.4,0-0.7,0-1.1c0.1,0,0.2,0,0.3,0c0,0.4,0,0.7,0,1.1   C501.4,396.9,501.3,396.9,501.2,396.9z" />
	<path display="inline" fill="#ECC9B9" d="M357.6,448.1c-2.8,3-7.7,1-11.3,0.7c-0.1-2.2-1.3-1.1-2.1,0.1c0.1-1.5-1.3-2-2.1-3.1   c0.9,0,2,0.7,2.6-0.6c-1.6-1.8-4.1-1.5-5.4-3.6c2.6-5,16.4,0.6,19.1,3.8c-2.8,1.4-4.8,1.5-8.2,1.1   C352.8,449.1,354.8,447.5,357.6,448.1z" />
	<path display="inline" fill="#271D1C" d="M317.9,438.3c-0.8-0.1-1.6-0.1-2.8-0.2c0.8-1.5,2-1.8,3.3-2.5c2.8,0.9,7.2,0.3,9,2.6   C324.1,438.2,321,438.3,317.9,438.3z" />
	<path display="inline" fill="#1F1211" d="M357.6,448.1c-0.9-0.1-1.9-0.2-2.8-0.2c0-0.3,0.1-0.7,0.1-1c2.7-1,5.3-2.2,7.8-3.5   C363.8,445.4,359.2,447.8,357.6,448.1z" />
	<path display="inline" fill="#26201F" d="M336.2,480.7c0.1-2.8,0.4-5.5,1.6-8.7c2.2,2.9-0.6,6.3-0.8,9.5   C336.7,481.2,336.5,480.9,336.2,480.7z" />
	<path display="inline" fill="#413633" d="M342,457.4c-1.4,1.9-2.9,3.7-4.3,5.6c-0.3-0.3-0.6-0.5-0.9-0.8c1.1-2.2,2.6-4.9,5.1-5.6   C342,456.9,342,457.2,342,457.4z" />
	<path display="inline" fill="#2C2422" d="M344.2,449c3.3-4,1.6,2.5,0.6,4.1c-0.3-0.3-0.6-0.6-0.8-0.9   C344,451.1,344.1,450.1,344.2,449z" />
	<path display="inline" fill="#39302D" d="M342.1,443.8c1,0.3,2,0.5,2.6,1.5c-0.7,1.2-1.7,0.6-2.6,0.6c-0.5-0.4-1-0.9-1.5-1.3   C340.7,443.7,341.5,443.9,342.1,443.8z" />
	<path display="inline" fill="#59504C" d="M344,452.2c0.3,0.3,0.6,0.6,0.8,0.9c-0.6,1.6-1.3,3.2-2.8,4.3   C342,455.6,343.4,454,344,452.2z" />
	<path display="inline" fill="#836F6A" d="M342.1,443.8c-0.6,0.1-1.3-0.1-1.5,0.8c-1.3-0.7-2.1-1.8-2.4-3.1   C339.7,440.9,340.4,443.6,342.1,443.8z" />
	<path display="inline" fill="#0E0E0D" d="M335.1,492.5c-0.2-0.9-0.5-1.8-0.7-2.7c0.4-0.2,0.7-0.4,1-0.5   C336,491.5,336,491.5,335.1,492.5z" />
	<path display="inline" fill="#635653" d="M331.2,475.1c0.3-1.5,0.3-1.5,1.3-2.5c0.9,1.2-0.1,2.2-0.5,3.2   C331.8,475.6,331.5,475.3,331.2,475.1z" />
	<path display="inline" fill="#736762" d="M334.9,468.3c-0.2,1.2-0.6,2.3-1.8,3.1c-0.4-1.4,0.3-2.3,0.8-3.5   C334.3,468.1,334.6,468.2,334.9,468.3z" />
	<path display="inline" fill="#554845" d="M335.7,497.8c1.8,0.5,1.3,1.6,1.4,2.9C335.6,499.8,335.4,499,335.7,497.8z" />
	<path display="inline" fill="#5D5955" d="M336.2,480.7c0.3,0.3,0.6,0.6,0.8,0.8c-0.3,0.9-0.6,1.7-0.9,2.8   C335.5,482.5,335.5,482.5,336.2,480.7z" />
	<path display="inline" fill="#4C4B48" d="M337,435.5c0.6,1.2,0.8,1.7,1.1,2.2C336.7,438,336.6,437.8,337,435.5z" />
	<path display="inline" fill="#4E4340" d="M338.4,531.8c0,0.7,0,1.3,0,2.1c-0.4-0.1-0.7-0.2-1.2-0.3c0.2-0.7,0.5-1.3,0.7-2   C338.1,531.7,338.2,531.8,338.4,531.8z" />
	<path display="inline" fill="#73625D" d="M338.3,524.8c0,0.7,0,1.4,0,2.1C336.9,525.9,336.9,525.8,338.3,524.8z" />
	<path display="inline" fill="#BEACA3" d="M331.2,475.1c0.3,0.2,0.5,0.5,0.8,0.7c0,0.7,0,1.3-1,1.3   C330.5,476.4,330.5,475.7,331.2,475.1z" />
	<path display="inline" fill="#8E847D" d="M336.9,462.2c0.3,0.3,0.6,0.5,0.9,0.8c-0.3,0.7-0.6,1.5-1.9,1.2   C336.2,463.5,336.5,462.9,336.9,462.2z" />
	<path display="inline" fill="#6D5B56" d="M336.8,505.1c-0.6-0.7-1.1-1.3-1.6-1.9C336.7,502.9,336.8,503,336.8,505.1z" />
	<path display="inline" fill="#64524F" d="M335.4,431.2c0.5,0.6,1,1.1,1.5,1.7C335.5,433.1,335.5,433.1,335.4,431.2z" />
	<path display="inline" fill="#9F8881" d="M369.5,436.8c-1-0.4-0.4-1.4,0.4-1.2C370.5,436,369.9,436.5,369.5,436.8z" />
	<path display="inline" fill="#433B38" d="M331.4,444.1c-0.1-1.3-0.1-2-0.2-3.3C332.4,441.9,332.4,442.7,331.4,444.1z" />
	<path display="inline" fill="#715753" d="M367.1,440.3c-0.7,0.9-0.9,1.8-1.9,1.3C365.7,440.7,365.7,440.7,367.1,440.3z" />
	<path display="inline" fill="#8F807A" d="M339,518.1c0.1,0.5,0.1,0.9,0.2,1.4c-0.2,0-0.3,0-0.5,0.1c-0.1-0.5-0.1-0.9-0.2-1.4   C338.6,518.2,338.8,518.1,339,518.1z" />
	<path display="inline" fill="#ECC9B9" d="M358.2,448c0.5-0.2,1-0.4,1.6-0.6C359.4,448.3,358.8,448.2,358.2,448z" />
	<path display="inline" fill="#EAC5B5" d="M552.9,434.8c1.6-3,9.6-8.1,13-6.8c0.7-0.8-0.1-2.1,1.2-2.5c0,0.7,0,1.4,0,2.1   c0.2,0.2,0.4,0.5,0.6,0.7c-1,1.6-1.4,3.8-3,4.9c0-0.7,0.8-1.6-0.4-2.1C560.7,433.8,557.2,434.9,552.9,434.8z" />
	<path display="inline" fill="#14100F" d="M552.9,434.8c4.3,0.2,7.8-0.9,11.4-3.7c1.2,0.5,0.4,1.3,0.4,2.1c-7.3,6-16.4,2.8-24.8,4.1   c-1.4,0.3-3,0.6-4.7-0.9C541.3,435.5,547.1,436.2,552.9,434.8L552.9,434.8z" />
	<path display="inline" fill="#1C1817" d="M550.5,485.6c1.8-4.2,4.1-8.3,4.3-13c0.5-0.1,0.8-0.2,1.1-0.3c1.1,4.4-0.5,9.4-4.5,14.1   C551.1,486.2,550.8,485.9,550.5,485.6z" />
	<path display="inline" fill="#2B2624" d="M567.8,423.3c-1.5-2.9-2.4-6-2.9-9.2l-0.1,0.1c0.6,0.2,1.3,0.4,2,0.6   c0.4,2.9,1.9,5.5,1.6,8.5C568.3,423.3,568,423.3,567.8,423.3z" />
	<path display="inline" fill="#191615" d="M556.4,465.9c-0.4-2-0.9-4-1.3-5.9C557.7,457.4,557.7,465.2,556.4,465.9z" />
	<path display="inline" fill="#1E1B19" d="M577.5,429.5c-0.8,0.3-1.2,0.5-2.1,0.8c-0.3-1.9,0.5-3.9,2.5-4.5   C579.2,427.5,578.2,428.5,577.5,429.5z" />
	<path display="inline" fill="#45413E" d="M556.4,465.9c1.2-0.7,0.5-2.5,0.8-3.7c1,2.5,0.8,5.1,0.3,7.9   C556.4,468.7,556.4,468.7,556.4,465.9z" />
	<path display="inline" fill="#594946" d="M556.5,408.7c1.6,1.1,2.6,1.6,3,2.9C557.8,412.1,557.6,412,556.5,408.7z" />
	<path display="inline" fill="#5D524E" d="M550.5,485.6c0.3,0.3,0.5,0.6,0.8,0.8c-0.7,1.3-1.7,2.2-2.8,3.1c-0.2-0.2-0.4-0.4-0.5-0.5   C548.9,487.9,549.7,486.8,550.5,485.6z" />
	<path display="inline" fill="#2B201F" d="M544.2,492.8c0.5-0.9,0.8-1.9,2.3-2.1c0.4,1.5-0.4,2.2-1.3,3   C544.8,493.4,544.5,493.1,544.2,492.8z" />
	<path display="inline" fill="#EAC5B5" d="M552.9,434.8c-1.6,1-3.3,0.5-5,0.5C549.3,434.2,551.2,434.9,552.9,434.8z" />
	<path display="inline" fill="#2C2A28" d="M567.8,423.3c0.2,0,0.4,0,0.7,0c0.7,1,1.2,1.9,0,2.9c-0.3-0.3-0.6-0.6-0.9-0.8   C567.7,424.7,567.7,424,567.8,423.3z" />
	<path display="inline" fill="#69625D" d="M533.7,516.8c-0.3-1,0.4-1.8,0.7-2.7C535.6,515.8,535.4,516.5,533.7,516.8z" />
	<path display="inline" fill="#8F7E78" d="M529.4,434.9c-0.5,1.5-1.4,1.3-2.6,1C527.5,435.1,528.1,434.7,529.4,434.9z" />
	<path display="inline" fill="#56504D" d="M544.2,492.8c0.3,0.3,0.6,0.6,0.9,0.9c-0.6,0.5-1.2,1-1.9,1.6   C543.4,493.8,543.4,493.8,544.2,492.8z" />
	<path display="inline" fill="#6A5955" d="M534.3,520.5c-0.3,0-0.7,0-1.2,0c-0.3-1.1,0.2-1.7,1.2-2   C534.3,519.1,534.3,519.8,534.3,520.5z" />
	<path display="inline" fill="#8D7974" d="M540.8,495.2c-0.4,0.3-0.7,0.7-1.2,1.1c-0.2-1.3,0.3-1.8,1.2-2   C540.7,494.6,540.8,494.9,540.8,495.2z" />
	<path display="inline" fill="#2B2624" d="M567.6,425.4c0.3,0.3,0.6,0.6,0.9,0.8l0,0c-0.8,0.1-0.8,0.8-0.8,1.4c0,0,0,0,0,0   c-0.2,0-0.5,0-0.7,0c0-0.7,0-1.4,0-2.1C567.2,425.4,567.4,425.4,567.6,425.4z" />
	<path display="inline" fill="#3A1A18" d="M537.8,498.3c-0.6,0.2-1.2,0.8-1.9-0.4c0.5-0.1,0.9-0.2,1.3-0.2   C537.4,497.9,537.6,498.1,537.8,498.3z" />
	<path display="inline" fill="#271514" d="M540.8,495.2c0-0.3,0-0.6,0-0.9c0.4,0,0.7,0.1,1.6,0.2C541.5,494.9,541.1,495,540.8,495.2   z" />
	<path display="inline" fill="#2C2A28" d="M567.7,427.6c0-0.6,0-1.2,0.8-1.4C568.2,426.7,568,427.1,567.7,427.6z" />
	<path display="inline" fill="#2C2A28" d="M567,427.6c0.2,0,0.5,0,0.7,0c0,0.2,0,0.5,0,0.7C567.5,428,567.3,427.8,567,427.6z" />
	<path display="inline" fill="#664542" d="M564.9,414.1c-0.2-0.1-0.4-0.2-0.7-0.3c0.1-0.1,0.1-0.1,0.2-0.2   C564.6,413.7,564.7,413.9,564.9,414.1L564.9,414.1z" />
	<path display="inline" fill="#4B65C4" d="M453.4,405.5c6.2-3.8,12.3-8.3,19.3-10.5c0,0.2-0.1,0.4-0.1,0.7   c-10.6,8.9-20.3,19.9-32,26.2c-1.1-1.6,2.9-2.2,4-3.1c-0.9-0.6-1.6-1-2.5-1.6c0-1.1,0-2.3,0-3.7c1.2-0.7,2.5-1.5,3.9-2.4   c-0.3-0.3-0.5-0.5-0.7-0.7c2.7-2.1,9.4-0.3,10.7-3.7C455.4,406.1,454.4,405.7,453.4,405.5z" />
	<path display="inline" fill="#4B65C5" d="M443.5,425.4c-1.4-1.1-2.3,0.7-4-0.2c11.5-7.7,24.2-14.2,37.4-18c1.2,0.4-0.5,1.7,0.7,2   C466.6,415.2,455,420.4,443.5,425.4z" />
	<path display="inline" fill="#4A64C3" d="M477.6,391.4c1.2,1.1,2.9,0,4.2-0.1c1.1,0.9,2,1.6,2.9,2.3c-7.6,6.3-16.4,11.3-24.8,16.5   c0-0.3,0-0.5,0.1-0.8C466.4,403.9,472.2,397.8,477.6,391.4z" />
	<path display="inline" fill="#050509" d="M453.4,405.5c1,0.3,2,0.6,2.7,1.3c0.1,1.3-0.8,1.4-1.6,1.6c-8.6,1.8-17.1,3.8-25.8,5.1   C429.7,408.6,448.3,407.3,453.4,405.5z" />
	<path display="inline" fill="#07060B" d="M449.9,422.7c10.9-5.2,21.8-10.2,32.4-15.9c0.3,0.3,0.6,0.6,0.9,0.8   c-10.1,6.6-21,12.2-32.5,15.7C450.4,423.2,450.2,422.9,449.9,422.7z" />
	<path display="inline" fill="#0F1122" d="M473.3,396.4c-5.2,6-11.5,11.1-17.5,16c0.2,0.4,0.3,0.7,0.4,1c-2.9,1.5-5.4,3.9-8.4,4.9   c6.5-8.5,17.3-14.5,24.8-22.6C472.9,395.9,473.1,396.1,473.3,396.4z" />
	<path display="inline" fill="#111224" d="M456.3,413.4c-0.1-0.3-0.3-0.6-0.4-1c0.4-0.8,1-1.5,1.9-1.8c0.1,0.6,0.5,0.8,0.9,0.5   c6.2-4.5,13.1-8.3,19.5-12.7c0.3,0.2,0.5,0.5,0.8,0.7C471.7,404.3,464.4,409.6,456.3,413.4z" />
	<path display="inline" fill="#16182E" d="M440.5,443.3c3.1,1.4,6.2,2.8,9.3,4.2l0,0c0.5,0.2,1,0.5,1.5,0.7l0,0c4,2.4,8,4.8,12,7.1   c-0.2,0.2-0.4,0.4-0.6,0.7c-7.6-3.7-15-8-22.7-11.4C439.6,443.6,439,443.2,440.5,443.3z" />
	<path display="inline" fill="#2D3969" d="M433,448.1c0.6,1.9,0.6,1.9-0.6,4.2c-2.1-6.8,3.7-13.7-0.3-19.9c-0.4-0.5-1-1.1,0-2   C437.9,435.5,432.4,442,433,448.1z" />
	<path display="inline" fill="#202547" d="M452.7,429.7c0.3,0.3,0.5,0.5,0.8,0.8c-3.5,1.5-7.1,4.6-10.6,5.3   C445.1,433.1,449.5,431.2,452.7,429.7z" />
	<path display="inline" fill="#1F2545" d="M473.3,396.4c-0.2-0.2-0.4-0.5-0.7-0.7c0.8-2.4,3.5-4.2,5-6.4c1,0.9-0.1,1.4-0.1,2.1   C476.1,393,474.7,394.7,473.3,396.4z" />
	<path display="inline" fill="#1D213F" d="M483.2,407.7c-0.3-0.3-0.6-0.6-0.9-0.8c1.8-1.4,3.6-2.8,6-4.7   C487.8,405.2,485.6,406.3,483.2,407.7z" />
	<path display="inline" fill="#1A213D" d="M432.9,421.9c0-1.8-0.5-3.7,0.2-5.5c2.2,0.9,0.9,4.8,1,6.9   C433.8,422.8,433.4,422.3,432.9,421.9z" />
	<path display="inline" fill="#14162A" d="M449.9,422.7c0.3,0.2,0.5,0.4,0.8,0.7c-2.2,1.2-4.5,2.3-7.1,2.7c0-0.2-0.1-0.5-0.1-0.7   l0,0C445.6,424.5,447.8,423.6,449.9,422.7z" />
	<path display="inline" fill="#283462" d="M422.1,431.9c0.3-0.2,0.5-0.5,0.8-0.7c1.8,1.3,4,1.9,5.7,4   C426,435.2,424.4,433,422.1,431.9z" />
	<path display="inline" fill="#1F2648" d="M478.9,399.1c-0.3-0.2-0.5-0.5-0.8-0.7c1.7-1.2,3.4-2.3,5-3.5c0.2,0.2,0.5,0.5,0.7,0.7   C482.3,396.8,480.6,397.9,478.9,399.1z" />
	<path display="inline" fill="#2D3B6D" d="M432.9,421.9c0.4,0.5,0.8,0.9,1.2,1.4c0.1,2,0.1,2-1.2,4.2   C432.8,425.3,432.8,423.9,432.9,421.9z" />
	<path display="inline" fill="#343F76" d="M483.9,395.6c-0.2-0.2-0.5-0.5-0.7-0.7c1.2-1.3,2.3-1.9,4-2.9   C486.1,394,486.1,394,483.9,395.6z" />
	<path display="inline" fill="#4B65C5" d="M443.5,425.4c0,0.2,0.1,0.5,0.1,0.7c-0.2-0.1-0.4-0.2-0.6-0.3   C443.2,425.7,443.3,425.6,443.5,425.4z" />
	<path display="inline" fill="#231D1B" d="M442,281.5c-5-3.1-10.8-4.5-16.2-6.6c0.5-0.3,1.1-0.5,1.6-0.8c5.4,1.4,11.4,2.4,15.4,6.6   C442.5,281,442.2,281.2,442,281.5z" />
	<path display="inline" fill="#241B19" d="M462.6,279.2c-3.7,0.3-12.2,5.4-14.6,3.1c4.3-1.9,8.5-3.4,13.1-3.8   C461.6,278.7,462.1,278.9,462.6,279.2z" />
	<path display="inline" fill="#221E1D" d="M438.5,257.3c1.8,3.1,3.5,7,2.8,10.7c-0.2,0-0.5,0-0.7,0c-1-2.8-1.9-5.6-2.9-8.5   C438.1,258.8,437.3,257.6,438.5,257.3z" />
	<path display="inline" fill="#3A3330" d="M440.6,267.9c0.2,0,0.5,0,0.7,0c1.8,2.4,2.5,5,2,8.5C441.4,273.6,441.5,271,440.6,267.9z" />
	<path display="inline" fill="#61514D" d="M462.6,279.2c-0.5-0.2-1-0.5-1.5-0.7c1.8-0.7,3.7-1.3,5.4-1.9   C467.8,278.3,463.7,278.4,462.6,279.2z" />
	<path display="inline" fill="#B6A39B" d="M423.7,274.2c-1.3-0.3-2.7-0.2-3.6-1.6c2,0.1,2,0.1,3.6,1   C423.6,273.8,423.7,274,423.7,274.2z" />
	<path display="inline" fill="#847771" d="M445.1,286.6c1.7,2.3,1.7,2.5,0,3.2C445.1,288.7,445.1,287.7,445.1,286.6z" />
	<path display="inline" fill="#463C39" d="M442,281.5c0.3-0.2,0.5-0.5,0.8-0.7c1.1,0.8,1.8,1.7,1.1,3.5   C443.1,283.1,442.6,282.3,442,281.5z" />
	<path display="inline" fill="#754D49" d="M423.7,274.2c0-0.2-0.1-0.4-0.1-0.6c1.3,0,2.6-0.4,3.7,0.5c-0.5,0.3-1.1,0.5-1.6,0.8   C425.1,274.7,424.4,274.5,423.7,274.2z" />
	<path display="inline" fill="#796861" d="M438.5,257.3c-1.3,0.4-0.5,1.5-0.8,2.2c-0.8-0.8-0.7-1.8-0.6-2.8   C437.8,256.5,438.4,256.3,438.5,257.3z" />
	<path display="inline" fill="#090707" d="M312.9,568.1c0.3-0.4,0.6-0.9,0.9-1.3c4.1-0.4,9.2-0.8,12.5,2.2   C325.7,572.4,313.2,571.7,312.9,568.1z" />
	<path display="inline" fill="#181415" d="M325.5,592.3c0.4,0.8,1.7,1,1.3,2.4c-2.8,0.4-4.4-2.2-7-3c-3.7,0.5-7.7,0.7-11.4,1.9   c-1.2-4.3,10.1-3.4,12.9-4C322.9,590.6,324.2,591.5,325.5,592.3z" />
	<path display="inline" fill="#0A0707" d="M314.3,576.6c-1.6-0.9-3.1-1.5-0.9-3.6c2.9,2,6.7-1.7,9.1,1.5   C320.5,577.1,317.1,576.6,314.3,576.6z" />
	<path display="inline" fill="#494042" d="M319.2,578c-0.7,1.4-4.7,2-4.9,0C315.7,576.4,317.6,577.7,319.2,578z" />
	<path display="inline" fill="#99C7CB" d="M319.2,578c-1.6-0.3-3.5-1.6-4.9,0c0-0.5-0.1-0.9-0.1-1.4c1.4,0,2.9,0,4.3,0   C318.8,577.1,319,577.6,319.2,578z" />
	<path display="inline" fill="#0E0E1B" d="M460.7,449.5c16.8,2.2,10,4.8-1.5,0.8C459.4,449.5,460.1,449.6,460.7,449.5z" />
	<path display="inline" fill="#2C3768" d="M465.6,432.6c0.2,0.3,0.5,0.5,0.7,0.8c-3.5,1.4-7,2.9-10.8,3.4l0,0   C458.5,434.7,462.3,434.1,465.6,432.6z" />
	<path display="inline" fill="#202445" d="M460.7,449.5c-0.6,0.1-1.3,0-1.5,0.8c-2.6-0.8-5.2-1.7-7.9-2.1l0,0   c-0.2-0.8-0.9-0.6-1.5-0.7l0,0c0.3-1,1.1-0.8,1.7-0.5C454.5,448.4,457.9,448.2,460.7,449.5z" />
	<path display="inline" fill="#3A4C93" d="M462.7,456c0.2-0.2,0.4-0.4,0.6-0.7c1.3,0.8,2.9,1.3,3.6,2.8l0,0.1   C465.2,457.9,463.9,457.1,462.7,456z" />
	<path display="inline" fill="#2C3768" d="M452,438.2c0.9-1.2,2.2-1.5,3.6-1.4l0,0C454.7,438,453.4,438.3,452,438.2z" />
	<path display="inline" fill="#344482" d="M450.6,439c-1,1.1-1,1.1-2.8,1.2C448.9,439.4,449.5,438.8,450.6,439L450.6,439z" />
	<path display="inline" fill="#3A4C93" d="M472.6,461.6c-1.1,0-1.8-0.4-2.1-1.4l0,0C471.5,460.2,472.2,460.6,472.6,461.6   L472.6,461.6z" />
	<path display="inline" fill="#3A4C93" d="M466.9,458.1c1,0,1.8,0.4,2.1,1.5l0,0C468,459.6,467.3,459.1,466.9,458.1L466.9,458.1z" />
	<path display="inline" fill="#303B6F" d="M452,438.2c-0.2,0.7-0.8,0.7-1.4,0.7l0,0C450.8,438.2,451.4,438.2,452,438.2z" />
	<path display="inline" fill="#3A4C93" d="M472.6,461.6c0.3,0,0.7,0.1,1.7,0.2C473,462.2,473.1,462.5,472.6,461.6L472.6,461.6z" />
	<path display="inline" fill="#3A4C93" d="M469,459.5c0.6,0,1.2,0,1.4,0.7l0,0C469.9,460.2,469.3,460.2,469,459.5L469,459.5z" />
	<path display="inline" fill="#FBDFD3" d="M373.9,393.5c-2,3.2,1.4,6.8,0.6,10.1c-4.4-6.2-4.7-15.3-9.2-21.9   c0.8,0.2,1.2,0.3,1.6,0.4C369,386,373.9,388.7,373.9,393.5z" />
	<path display="inline" fill="#0B0909" d="M371,387.2c-3.9-2.9-5.3-7.9-4.9-12.6c0.5-0.3,0.9-0.5,1.3-0.7c0.3,0.2,0.6,0.3,0.8,0.5   c1.2,3.9,2.5,7.9,3.7,11.8C371.6,386.5,371.3,386.9,371,387.2z" />
	<path display="inline" fill="#3C2E2A" d="M417.4,481.5c1.8,1.1,1.8,1.1,2,2.5C417.7,484.2,417.4,483.9,417.4,481.5z" />
	<path display="inline" fill="#302321" d="M385.3,425.6c-0.9-0.4-1.6-0.9-1.5-2.1c1.2-0.6,1.4,0.3,1.7,1.1   C385.4,425,385.4,425.3,385.3,425.6z" />
	<path display="inline" fill="#91766D" d="M385.3,425.6c0.1-0.3,0.1-0.7,0.2-1c0.9,0.9,1,0.9,1.3,2.6   C386,426.4,385.6,426,385.3,425.6z" />
	<path display="inline" fill="#D9B9AA" d="M359.1,361c1.1-0.6,1.1-0.6,1.3,0.6c-0.4,0-0.8,0.1-1.2,0.1l-0.1-0.1   C359.1,361.4,359.1,361.2,359.1,361z" />
	<path display="inline" fill="#6F5D56" d="M319,467.7c-1-1.4-2.9-2.4-2.3-4.8C318.5,464.1,318.4,466.1,319,467.7z" />
	<path display="inline" fill="#151627" d="M389.5,442.8c0,0.5,0,1,0,1.6C388.3,444,389,443.4,389.5,442.8z" />
	<path display="inline" fill="#261E1C" d="M364,321.8c-2.4-3.2-7.3-6.2-5.6-10.8c2.8,3.9,4.2,6.9,7.1,10.7   C364.9,321.8,364.5,321.8,364,321.8L364,321.8z" />
	<path display="inline" fill="#483B36" d="M356.8,353.1c0.3-0.3,0.6-0.6,0.9-0.9c0.7,0.8,1.5,1.5,2,2.4c0,0.2,0,0.4,0.1,0.6   C358.4,355.1,357.5,354.2,356.8,353.1z" />
	<path display="inline" fill="#493A35" d="M363.5,298.7c-0.4-2.1-0.7-3.4,0.9-4.4C365.2,295.9,364.1,296.9,363.5,298.7z" />
	<path display="inline" fill="#8A746C" d="M362.2,303.8c-0.6-2-0.5-2.9,0.7-3.7C363.7,301.4,362.7,302.2,362.2,303.8z" />
	<path display="inline" fill="#D9B9AA" d="M359.7,354.6c-0.2-0.3-0.3-0.5-0.5-0.8C359.4,354.1,359.5,354.3,359.7,354.6z" />
	<path display="inline" fill="#656874" d="M402.3,355.9c2.1,0.5,2.6,0.7,4.1,2.8c-2.4-0.9-4.2-0.8-5.5-2.1   C401.5,356.6,402.2,356.8,402.3,355.9z" />
	<path display="inline" fill="#30282D" d="M402.3,355.9c-0.2,0.9-0.9,0.7-1.5,0.7c-0.7-0.5-2-0.6-2.1-2.1   C400.3,354.5,401.3,355.3,402.3,355.9z" />
	<path display="inline" fill="#9092A4" d="M407.9,330.5c1.1-0.2,2.3-0.3,3.5,0.2c-0.1,1.5-1.2,1-2,1   C408.9,331.3,408.4,330.9,407.9,330.5z" />
	<path display="inline" fill="#1A171A" d="M407.9,330.5c0.5,0.4,1,0.8,1.5,1.3c-1.3,0.1-2.6,0.6-3.9-0.2   C406.1,330.6,407,330.6,407.9,330.5z" />
	<path display="inline" fill="#2E2A2F" d="M397.4,365.9c-0.3,0.2-0.5,0.5-0.8,0.7c-0.7-0.4-2.2-1.6-0.7-2   C396.4,365,396.9,365.5,397.4,365.9z" />
	<path display="inline" fill="#2B2623" d="M495.4,416.4c-0.1,1-0.1,2-1.2,2.7c-0.9-1-0.2-2-0.4-2.9c0.3-0.5,0.5-0.9,0.8-1.4   C494.9,415.4,495.2,415.9,495.4,416.4z" />
	<path display="inline" fill="#58443F" d="M495.4,416.4c-0.2-0.5-0.5-1-0.7-1.5c0.2-0.7,0.4-1.4,0.7-2.1   C496.7,413.5,496.2,415.4,495.4,416.4z" />
	<path display="inline" fill="#71605A" d="M498.9,407c-1.2-0.3-1.2-0.3-0.2-1.4C498.7,406.2,498.8,406.6,498.9,407   C498.9,407,498.9,407,498.9,407z" />
	<path display="inline" fill="#29221F" d="M437.1,253c-1-3.6-3.3-7.2-2.8-11c0.5-0.1,0.9-0.2,1.3-0.4c0.5,3.1,1.2,6.2,2.2,9.2   C437.6,251.5,438.3,252.6,437.1,253z" />
	<path display="inline" fill="#40312D" d="M455.9,255.3c-1.2,3.3-3.6,3.8-7.1,3.2C451.5,257.2,453.6,256,455.9,255.3z" />
	<path display="inline" fill="#796861" d="M437.1,253c1.2-0.4,0.4-1.5,0.8-2.2c1.1,1.6,0.7,2.8,0.7,5   C437.5,254.8,437,254.1,437.1,253z" />
	<path display="inline" fill="#7D635B" d="M450.6,265.1c-1.7-0.8,0.8-2.1,1.3-2.8C453.7,263.3,451.2,264.2,450.6,265.1L450.6,265.1z   " />
	<path display="inline" fill="#705E58" d="M430.6,227.6c-0.2,0-0.4,0-0.5-0.1c0-0.6,0-1.2,0-1.8c0.2,0,0.3,0,0.5,0   C430.6,226.3,430.6,226.9,430.6,227.6z" />
	<path display="inline" fill="#2C2421" d="M495.3,448.2c-0.4,0.4-0.8,0.7-1.2,1.1c-1.1-1.6-1-2,1.6-4.6   C495.5,446.1,495.4,447.1,495.3,448.2z" />
	<path display="inline" fill="#81675F" d="M496.3,440.4c0.7,1.3,0.3,1.8-0.6,2.1C494.8,441.6,495.7,441.2,496.3,440.4z" />
	<path display="inline" fill="#57423D" d="M497.5,437.5c-0.1,0.5-0.2,1-0.4,2C496,438.3,496,437.4,497.5,437.5   C497.5,437.4,497.5,437.5,497.5,437.5z" />
	<ellipse display="inline" fill="#977D73" cx="389.9" cy="309.5" rx="0.3" ry="1" />
	<path display="inline" fill="#36353B" d="M412.9,397.6c-2.6,0.5-2-4.9-2.8-7.1C412.2,392.8,412.3,395.3,412.9,397.6z" />
	<path display="inline" fill="#311B19" d="M434.4,498.6c-1.2,0.6-2.4,0.7-3.7,0.6c0.8-1.9,2.4-1.3,4.2-1.6   C434.6,498.1,434.5,498.4,434.4,498.6z" />
	<path display="inline" fill="#0F0D0C" d="M360.4,356.6c-0.1,1,0.4,2.1-0.6,2.8C359.9,358.6,359,356.7,360.4,356.6z" />
	<path display="inline" fill="#4E3B37" d="M359.1,361c0,0.2,0,0.4-0.1,0.6c-0.4-0.1-0.8-0.1-1.5-0.3c0.7-0.5,1.1-0.8,1.5-1.1   C359.1,360.5,359.1,360.7,359.1,361z" />
	<path display="inline" fill="#BCA094" d="M426.2,217c0.3,0.4,0.3,0.7-0.2,0.9C425.7,217.5,425.6,217.2,426.2,217z" />
	<path display="inline" fill="#523237" d="M464.7,330.6c-2.3,1.2-2.3,1.2-4,0.5C462,330.2,462,330.2,464.7,330.6z" />
	<path display="inline" fill="#6F6E7B" d="M456,329.2c-0.3,0.3-0.6,0.4-0.9,0C455.4,328.9,455.7,329.1,456,329.2z" />
	<path display="inline" fill="#2E2523" d="M371,387.2c0.3-0.3,0.6-0.6,0.9-1c1.4,2,2.8,4.1,4.2,6.1c-1,1.1-1.5-0.2-2.2-0.1   C373.1,390.4,372.4,388.6,371,387.2z" />
	<path display="inline" fill="#6E322F" d="M354.9,446.9c0,0.3-0.1,0.7-0.1,1c-1.5,0.5-2.9,0.3-4.6-1.2   C352.1,446.7,353.5,446.8,354.9,446.9z" />
	<path display="inline" fill="#2F478A" d="M459.8,410c-0.5,0.6-1.7,2-2.1,0.6c0.7-0.4,1.4-0.9,2.1-1.3   C459.9,409.5,459.8,409.7,459.8,410z" />
	<path display="inline" fill="#4B65C5" d="M449.9,447.4c0.6,0.1,1.2,0,1.5,0.7C450.8,447.9,450.4,447.7,449.9,447.4z" />
</g>
</svg>