<?xml version='1.0' encoding='utf-8'?>
<svg xmlns="http://www.w3.org/2000/svg" version="1.2" baseProfile="tiny" id="Layer_2_1_" x="0px" y="0px" viewBox="0 0 900 600" overflow="visible" xml:space="preserve">
<g id="b_00000105404821372737590190000010735134719793955483_">
	<path display="inline" d="M397.6,104.7c15,13.7,34.6,37.7,20.1,57.7c2.4,11.8,1.4,23.7,4.4,35.4c11.8,10.8,15.6,27,24.6,39.8   c7,12.2,15.8,22.9,24,34.2c0.6,0.8,1.2,2.2-0.1,2.6c-19.7-21.4-31.4-48.1-47.2-72.1c-3.2-4.3-1.9,13.5-2.8,15.5   c6.8,19.8,23,35.7,35.7,52.2c0,0.7-0.1,1.4-1,1.6c-22.2-21.5-35.7-52.5-55.8-73.9c0.6,0.2,1.3,0.3,2,0.5   c-1.7-19.4-9.7-36.8-21.4-51.1c-12-1.7-27.1,1.3-35.4,10.7c2.3,6.6,4.8,13.5,10.4,18c0.6-0.2,1-0.4,1.5-0.6c2.3,1.6,5.8,3.5,6.8,6   c-0.6,0.1-1.2,0.1-1.9,0.2c8.1,12.2,14,26.3,26,35.2l0,0c-0.1,0.4-0.2,0.9-0.2,1.4c-1.4-0.4-1.9-2.2-3.6-1.8   c9.8,24.9,36.2,35.5,53.2,54.4c0.7-0.1,1.1-0.1,1.6-0.1c1.4,3.3,4.7,4.9,5.3,8.3c1.7,9.7,13,10.7,18.4,16.8c0,0.6,0,1.2-0.8,1.4   c-6.9-4.9-17.2-7.5-19.6-16.9c-4.7-8.6-12.8-14.4-20.6-20.5c3.4,29.4-2.9,58.9,0.7,88.3c-1.1,0.8-2.3,1.8-3.5,2.6   c1.8,54.3-26,103.8-28,157.6c2.1,1.2,4,2.4,6.1,3.6c2.2,10.3-0.1,22.5,6.7,31.3c7.3,0,17.2,0,16.4,9.1c0.1,4-0.9,8-5.1,9.4   c-10.1,5.1-24.6,4-33.9-2.7c-4.1-3.8-4.5-10.1-8.2-14.2c-4.5-0.5-8.8-0.9-12.4-3.8c0.3-0.5,0.5-1,0.8-1.6   c5.9,3.2,15.6,1.2,16.6,9.9c5,13.7,25.8,18.5,37.2,9.9c4.8-4,3.5-14.2-3.8-13.5c-3,0.4-6-0.2-9.1-0.7c-1.4-1.8-2.8-3.5-4.3-5.5   c-1.1,0-2.3,1.5-3.9,0.4c0.2-2.2,2.9-1.9,3.8-3.6c-0.2-0.7-0.4-1.5-0.6-2.3c-2.2,0.8-3.5,2.4-5.9,1.7c0.8-3,4-2.6,5.4-4.6   c-0.1-0.3-0.3-0.6-0.4-1c-2,0.2-5,3.1-6.2,0.6c1.7-2,4.6-1.8,6.5-3.7c-0.2-0.4-0.3-0.6-0.6-1.1c-1.8,1.2-3.6,2.4-5.8,2.2   c-2.7-2.6,5.6-2.8,5.8-5.9c-2.2,1.2-4.2,1.6-5.9,2.9c-0.8,0-1.7,0.3-2.1-1.1c1.7-2.7,5.6-2.2,7.6-4.7c-0.4-3.5-0.4-7.9-4.7-8.6   c-11.2,9.9-13.7,6.5-21.1-4.8c-2.1-0.1-3.9,1-5.7,0.3c0-0.4,0-0.8,0.1-1.2c0.9-0.4,1.7-0.8,2.7-1.3c5.1-23.2,2.9-47.7,3.1-71.5   c-15.7,12.4-32.4,25.7-45.3,41.5c-1.8,4-12.7,11.7-10.7,14.9c2.5,4.5-1.1,9.6,0.4,14.5c1.7,5.9,2.5,12.3,5.3,17.8   c1.9,3.6,5.1,6.6,5.6,10.8c0.7,3.8,4.8,5.2,7.6,7.7c-2,30.6-40.1,2.6-45.7-12.6c-8.3-12-22.7-18.9-29.1-32.5   c6.6-4.3,12.1-9.3,17.5-15.2c4.5-2,8.9-3.1,12.3-7c1.1,0.8,2.1,1.6,3.2,2.4c16.6-18.3,25.3-42.5,39.2-62.9   c6.7-13.6,22.5-17.9,32.2-28.2c-1.9-7.4-3.7-13.7-6.3-20.7c-4.6-1.3-9.1-2.4-12.8-6.1c2.9-34.4-16.1-82.4,0.7-112.3   c-0.8-2.7,0.9-4.7,2-7c0.7-0.1,1.4-0.3,2.2-0.4c14.1-40.2-23.7-59.7-19.3-99.3c-2.6-13.2-1.9-28.4,9.4-37.4   c41.1-25.5-7.7-61.5,7.3-85.1c5.7-11.5,20-15.8,31.9-14.4c5.4-0.4,17.6,2.2,17.9,8.9c10.4,6.4,15.8,19.5,14.6,31.2   c-0.3,0.3-0.7,0.7-1,1c-0.6-0.9-1.2-1.8-1.8-2.7c-0.7,0.3-0.5,0.8-0.5,1.4c0,0.6-0.5,1.1-0.9,1.9c-0.5-0.6-0.8-1-1-1.3   c0.1-1.1,0.1-2.6-1.4-2.2c0-0.3,0-0.5,0-0.8c1-0.8,2.6-0.8,3-2.4c0-0.1,0.4-0.1,0.5-0.1c0.2,0.3,0.5,0.5,0.7,0.7   c1-0.6,0.9-1.3,0.5-2.1c-4.7-2.3-5.8-0.9-10.3-1.2c3.1-2.8,6.3-2.2,9.7-1.5c-2.7-8.1-5.6-16.4-14-20.3c-1.2,1.1-2.6,0.4-3.9,0.2   c-1.3,1.4-2.4,2.7-3.4,3.8c0,5.3,5,5.2,3.2,12.6c0.8,5.4-7.8,11.6-12.4,12.8c-3.4-3.6-9.9-3.9-12.6,0.2c0.1,1.3-0.5,2.7,1.2,3.5   c0.2-1,0.3-1.9,0.5-2.8c0.1,0,0.2,0,0.3,0c0.2,1.4,0.2,2.9,0.3,4.3c-0.3,0.3-0.6,0.6-0.9,0.9c0,0,0,0,0,0c-0.1-0.4-0.1-0.8-0.2-1.2   c-0.1,0-0.2,0-0.3,0c-0.2,1.3-0.1,2.7,0,4c-1.8-0.3-2.1,2.1-2.8,3.2c0.2,0.8,0.4,1.5,0.6,2.2c-0.7,0.8-1.3,1.5-2,2.2   c0.8,1.1,0.6,1.9-0.6,2.3c-0.3-0.2-0.6-0.4-0.8-0.6c-0.6,0.5-1.2,1.1-1.9,1.8c0.3,8.4-0.1,17.1-1.2,25.5   c17.7,0.7,35.4,19.1,38.3,14.2c0.7,1,0.8,2.4,2.1,2.9c0.2,0.3,0.4,0.6,0.7,0.9c0,0.3,0.1,0.4,0.4,0.5   C397.3,104.4,397.4,104.6,397.6,104.7z M341.1,147.7c0.2,0.3,0.5,0.5,0.7,0.8c0.1,0.7-0.3,1.6,0.6,2.1c0.5,1.3,1,2.6,1.6,4.1   c9.5-8.8,22.8-10.6,35.2-10.1c1.6-4.4,1.5-8.6,4.6-12.3c0.2,1,0.4,1.7,0.6,2.3c-8.4,15.3,21.7,33.1,18.9,64.4   c4.7,4.9,9.2,9.7,13.8,14.4c2.9-16.3,0.7-33.6-1.5-50c0-7.9,9-12.1,4.5-22.1c-5.2-14.4-15.2-27.2-26-37.4   C380.6,99,369.8,88.1,354.7,88c-7.1,7.7-17.3,13.2-22,22.9c-6.1,16.7-2,50.6,5.7,66.8c16.4,21.4,15.8,35.2,11.7,60.4   c17.8,8.5,37.5,12.1,56.7,10.1c-20.4-15-27.4-39-43.1-57.7c-2.7-6.4-7.5-10.8-12.5-15.5c-7.6-8.7-9.4-20.8-13.6-31l-0.1,0.1   C339.4,144.1,340.1,146.3,341.1,147.7z M291,482.1c2.8,3.1,5.5,6.4,9.7,7.2c2.3-1.7,4.4-3.2,6.5-4.8c1.1,0.4,2.1,0.8,3.2,1.3   c15.2-21,34.2-38,54.6-53.6c9.3-7.7,15.6-18.5,25.2-25.7c8.5-4.8,12.7-6.3,11.8-17.3c-1.4-0.1-1.3,2-3,1.3   c3.6-9.3,7.1-19.1,6.1-29.3c-15,4-30,4.1-45.2,2.5c-0.9,8.6,8.7,15.3,2.8,23.6c-9.6,9-23.9,13.6-30.6,25.2   c-13.5,22.8-25,47.3-42.6,67.2C290.1,480.8,290.2,481.5,291,482.1z M410.7,251.2c0,0.9-0.3,1.9,0.6,2.7   C412.8,253.5,412.2,250.8,410.7,251.2c-0.5-0.5-0.9-1-1.3-1.5c-1,0.4-1.9,0.7-2.8,1.1c0.8,1.1,1.5,2,2.4,3.1c0.2-1,0.4-1.7,0.5-2.5   C410,251.3,410.3,251.2,410.7,251.2z M380.9,249.8c-1.1-0.1-2.2,0-3.2-0.6c-0.8,1.4,0.2,3-1.3,4.2c-0.7-1.3-0.6-2.4-0.2-3.6   c-0.1-0.9-0.9-1.8-1.9-1.4c-2,0.1-3.7-1.2-5.7-1.6c-0.5-0.9-1.4-0.6-2.2-0.6c-2-0.2-4-1.6-6-1.4c-1,1.1-1.1,2.6-2.4,3.4   c-0.5-1.5,1.2-2.4,0.8-3.9c-2.3-0.9-1.2,2.6-3,2.5c-1.2-1.4,1.5-3.1-0.4-4.2c-0.7-1.1-1.8-0.4-2.9-1.3c-0.9,1.6-1.3,3.3-2.9,4.2   l0,0c-0.7-1.9,1.3-3.2,1.3-5c-1.3-0.2-1.7,0.6-2.1,1.3c-1.6-0.6,0.8-2-0.6-2.7c-0.4,0.3-0.8,0.6-1.2,0.9c-0.3-0.2-0.5-0.4-0.8-0.7   c-0.7,1.9-2.3,3.9-0.9,5.9c0.2,0.2,0,0.7,0,1c-9.8,16.3-6,38.2-4.9,56.2c4.7,17,3.3,36,4.5,53.8c18.9,9.3,42.4,8.7,62,1.7   c0.1-3.6-0.5-7.1,1.4-10.3c0.8,0.3,0.8,1,0.8,1.7c1.2,3.1,7.4-1.2,9.4-2.2c-2-30.2,5.1-60.9-0.9-90.4c-0.6,0.1-1.1,0.2-1.7,0.2   c-0.2-1.5-0.5-3-2.3-3c0,1.4,0,1.5,0.1,3c-2.8-1.2-5.1-0.1-7.6,0.2c-3.1,0.3-6.8-0.9-9.6,0.6c-1.9-0.2-3.7-0.4-5.6-0.6   c-0.2-0.2-0.5-0.5-0.7-0.7c1.4-1.4,0.4-3.7,1.3-5.7C387.9,250.6,384.6,249.9,380.9,249.8z M374.3,509c1.8,4.4,7.2,7.3,10.5,2.4   c-3.6-1.2-7-2.3-10.4-3.5C373.5,506.9,373.5,508.5,374.3,509z M400.5,255.5c1.8,1.9,4.6-0.1,6.9-0.3c-0.8-1.6-1.6-3.1-2.4-4.7   c-4,0.3-8.1-0.8-11.8,0.6c-1.1,1.6-0.7,3.2-0.3,4.9c1.2,0.1,2.3,0.4,3.2-0.4c0.1-1.2,0.1-2.4,0.2-3.5c0.3-0.2,0.7-0.4,1.3-0.9   c0.1,1.8-0.5,3,0.7,4.2C399.1,255.5,399.8,255.5,400.5,255.5z M327.3,545.8c0.8-1.6,1.8-3.3,2.7-4.8c-7.9-4.5-6.9-10.2-11.6-16.2   c-0.9-0.3-2.2,0.1-2.7-1.5c0.3-0.6,0.6-1.3,0.9-2.2c-0.3-0.5-0.6-0.9-0.9-1.4c-2,0.6-4.3,1.1-4.3-1.7c1.2-0.6,2.3-1.1,3.4-1.6   c0-0.8-0.3-1.6-0.7-2.3c-2.1,0.1-4.1,1.3-6,0.2c-1.3-4,4.6-1.5,5.6-4.1c-0.5-1-1.2-2.1-1.6-3c-9.4,1.1-9.5-2.6-0.5-3.8   c-0.2-0.9-0.4-1.8-0.6-2.8c-10.7,2.9-9.4-3.4,0.2-3.5c0.8-2.6,1.3-4.9,1.7-7.5c-1.6-1.5-3.5-1.2-5.1-1.6   c-9.4,10.4-34.5,2.9-19.6-11.5c-0.4-0.7-0.7-1.2-1-1.9c-2.8,3.7-7.1,4.5-10.8,6.6c-4.9,4.8-9.1,10-15.1,13.4   c6.3,11,19.2,17.5,25.3,28.8c2.5,0.8,2.5,0.8,3.4,2.5c5.9,14.4,20.4,23.6,35.8,23.8C326.3,548.5,326.8,547.2,327.3,545.8z    M380.8,419.7c-12.9,8.3-8.9,26.5-8.8,39.7c-0.1,14.5-1.3,29-3.1,43.4c1.2,0.9,2.5,1.3,4,1.1c3.8,3.6,9.3,4.2,14,5.7   c3.6-1.8,0.4-5.4,1.2-8.4c0.3-10.4,2.1-21,2.8-31c13.8-38.3,23.1-78,25.1-118.5c-2.2,0-4.1,0.3-6.1,1.1c0.1,2.9-0.7,5.5-2.2,7.8   c1.7,10.2-5.1,19.3-3.3,29.2C407.1,406,387.4,406.4,380.8,419.7z M286.2,485c0.6,4.5,6,5.4,10.3,5.5c-3.4-2.6-6.1-5.1-7.9-8.4   C287.3,482.8,286.8,484.1,286.2,485z M357.9,55.7c-0.9,0.6-1.8,0.9-2,2C358.3,57.6,358.4,57.5,357.9,55.7z" />
	<path display="inline" fill="#010000" d="M481.6,283.8c0.8,1.7,1.6,3.5,2.5,5.4c6.9-1.7,7.9,5.5,8.4,10.6c1.4,8.7,1.4,18-5.8,24   c2.4,34.4,14.8,69.1,29.9,99.5c9.7-6.9,23.2-2.1,34.4-3.5c23.7,1.7,49.1-3.6,71.9,2.4c6.2,7.9,8.6,18.9,13.3,27.9   c2.2,6.6,6.4,13.1,5.9,20.3c0.4,10.9-4.1,21.1-5.1,31.9c-3.7,23.9,5.5,48.3,8.3,72.1c1.6,7.3,11.9,25.7-1.7,25.6   c-12.4-17.5-16.6-40.1-21.7-60.8c-1.3-0.2-2.7-0.4-3.9-0.5c-2.8-3.2-3.1-7.3-4.5-10.7c-33.1-1.1-66.9,0-100.4-0.4   c-2.2,4.5-1.7,15-8.9,13.4c-5.2,19.6-9.1,41-20.6,57.7c-1.4,0.1-3.3,0.2-5.3,0.2c-4.3-6.8,1.1-14.7,2.5-21.7   c6.8-31.5,15.3-65,4.7-96.6C467.8,428,450,373.3,451.4,317.3c-0.4-7.5,9.8-10.4,14.1-15.4c3,3.3-6,6.8-8.1,9.5   c0.8,0.3,1.2,0.5,1.6,0.6c0.3,0.5,0.6,1,0.9,1.5c-13-5.1-2.4,25.2-2.7,31.6c3.5,2.1,5.2,2.1,7.4-0.4c0.6,0.3,1.3,0.8,1.8-0.1   c6.7-8.3,13.2-16.8,20.3-24.7c6.6-6,4.3-21.8,0.3-28.7c-1.4,0.3-1.4,0.3-2.5,1.2c-0.3,0-0.5,0-0.8,0c-0.3-0.2-0.5-0.5-0.8-0.7l0,0   c0-1.4-0.3-2.7-1.4-3.7c-0.3-1.2-0.6-2.4-0.8-3.6C481.1,284.3,481.3,284,481.6,283.8z M496.1,560.3c2.8-11.2,6.5-22.5,8-33.9   c-0.6-0.9-1.1-1.5-1.6-2.2c0.1-0.5,0.1-1,0.2-1.5c1.4,1.8,3.1,3.2,5.5,3c37.6-0.1,75.2,0,112.8,0c0.4-0.5,0.8-1,1.1-1.5   c0.7,0.3,0.6,0.9,0.7,1.5c-0.5,0.3-0.9,0.7-1.6,1.2c4.4,17.4,6.8,35.7,14.1,52.1c0.1,0,0.2-0.1,0.4-0.1c-0.2-1.4-0.5-2.7-0.7-4.1   c1.4,1.6,1.7,3.6,2.6,5.5c-0.4,0.3-0.8,0.5-1,0.7c2.9,5.6,3,13.4,8.4,17.2c7.7-3.4-3.8-21.3-3.8-28.9c-7.1-31-10.8-62.5-2.4-93.5   c-45.2-0.3-90.4,0-135.6,0c-7,0.2-5.4-9.8-4.9-14.6c1.9-0.8,1.5-2.8,2.2-4c-16.1-25.7-22.5-55.4-31.1-83.7l0,0.1   c-0.6-8.2-3.1-16.1-3.2-23.9c0.2-0.5-0.4-1.4-0.8-2.5c-0.5,0.5-0.8,0.7-1.2,1c-0.7-0.1-1.4-1.4-2.1,0c-9.6,2.3-6.9-12.6-9-18.6   c1.7,37.1,11.7,74.5,21.7,110.5c8.6,27,21,53.7,18.4,82.7c-3.6,19.6-4.3,40.6-11.1,59.3c-0.6,4.5-6.5,12.3-0.9,15   c2-0.7,3.4-1.8,3.7-4.3C487.5,581.8,495.3,571.8,496.1,560.3z M486.7,348.2c-1.2-7.5-2.5-14.4-2.2-22.1c-2.1,2.5-1.2,4.7-1.4,7.6   c-0.2,0-0.4,0-0.6,0c-0.2-1.1,0.5-5.5-1.5-3.5c-13.8,17.5,19.7,90.1,23.3,115.9c3.4-6.7,6.3-13.8,10.6-19.8   C502.1,401.6,493.5,375,486.7,348.2z M637.5,461.2c-2.8-11.8-10.1-23.7-14.9-35.3c-4.3-6.3-14-3.2-20.6-4c-25.8,0-51.6,0-77.4,0.1   c-14.5,3.6-16.5,27.2-23.3,38c0.5,0.4,0.8,0.6,1.2,0.9c-0.9,0.6-1.6,1.1-2.3,1.6c-0.6,5.7-0.5,6.9,1,11c45.4,0,91,0.4,136.4,0.6   c3-3.1,2.6-7.8-0.1-10.7C637.5,462.6,637.5,461.9,637.5,461.2z M501.6,453.3c-1.8-36.8-26.4-76.6-27-114.3   c-2.1,2.6-4.3,5.3-6.5,7.9C474.8,383.5,483.3,420.8,501.6,453.3z M506.5,527.7c-0.9,3.3-2.2,6.5-2.4,9.9c0.7,0.6,1.2,1,2,1.6   c2.2-3.6,3-7.5,4.4-11.4C509.1,527,507.9,527.1,506.5,527.7z M621.4,536c-0.8-2.8-0.8-6.3-2.9-8.5c-0.9,0.1-1.9,0.2-3.1,0.3   c1.1,3.3,1.4,7.3,4,9.3C620.2,536.8,620.7,536.5,621.4,536z" />
	<path display="inline" fill="#0C0908" d="M408.3,41.3c0.3-0.3,0.7-0.7,1-1c3.4,2.3,5.2,5.8,7.4,8.8c0.1,2.6-1.4,4.1-2.8,5.5   c0.9,1.5,1.8,3,2.7,4.5c-0.2,0.8-0.5,1.6-0.7,2.4c4.1,5.9-3.3,5.3-2.1,10.9c0.8,8.7-10.5,8.7-16.6,7.4c-2.1,6.5-3.6,13.2-3.2,20.1   c-1.1,0.9-1.5,2.2-2.9,0.7c0.4-0.1,0.9-0.2,1.4-0.3c-1.5-7.7,1.8-15.4,2.8-22.6c2.9,0.3,6.2,2.1,8.9,0.5   c12.1,0.5,4.1-7.9,11.2-13.5c-0.4-1.2-1-2.1-2.6-2.2c-0.4,0.3-1,0.7-1.5,1.1c-0.8,0-1.4-0.2-1.5-1.4c1.5-1,2.9-2.5,3.8-4.2   c-0.8-1.4-1.5-2.8-2.2-4.1c-0.5-0.1-1-0.3-1.5-0.4c0.8-2,2.8-3.1,5-2.7C414.5,46.4,410.5,44.7,408.3,41.3z" />
	<path display="inline" fill="#0B0909" d="M363.6,505.4c-3,6.6-9.4,10.5-14.6,15.2c0.2,7.7,5.7,14.2,11.8,18.6   c-0.3,0.5-0.5,1-0.8,1.6c-7-4.2-13.1-11.8-13-20.2c0.1-2.5,2.6-3.5,4.4-4.8c4.3-2.7,7.4-6.5,10-10.7   C362.1,505.2,362.8,505.3,363.6,505.4z" />
	<path display="inline" fill="#1A1312" d="M481.6,283.8c-0.2,0.2-0.5,0.5-0.7,0.7c-0.9-0.5-0.9-2-2.2-2c-2.7-2.7-5.3-5.4-8-8.1   c0.7-0.2,0.8-0.8,0.8-1.4C474.7,276.7,479.4,279.4,481.6,283.8z" />
	<path display="inline" fill="#23201F" d="M465.6,301.9c-0.5,0.4-1,0.9-1.5,1.3c-0.1-2.4-1.9-4.2-2.8-6.4c0.7-0.2,0.7-0.8,0.8-1.4   C464,297.2,464.5,299.7,465.6,301.9z" />
	<path display="inline" fill="#B1B6B7" d="M363.6,505.4c-0.7-0.1-1.5-0.2-2.2-0.3c0.6-1,1.5-0.3,2.3-0.4   C363.6,504.9,363.6,505.1,363.6,505.4z" />
	<path display="inline" fill="#E0DEE5" d="M397.6,104.7c-0.2-0.2-0.3-0.3-0.5-0.5C397.3,104.4,397.4,104.6,397.6,104.7z" />
	<path display="inline" fill="#E0DEE5" d="M396.7,103.8c-0.2-0.3-0.4-0.6-0.7-0.9C396.3,103.1,396.5,103.5,396.7,103.8z" />
	<path display="inline" fill="#6D5CA9" d="M391.1,257c3.7,0.6,7.6,0.5,11.2,0.9c1.6,5.8,1.2,12.9,5.3,17.2   c-0.9-6.2-0.3-12.1-1.2-18.1c2.4-0.3,4.8-1.4,7.6-0.2c-0.1-1.6-0.1-1.7-0.1-3c1.9,0,2.1,1.5,2.3,3c0.6-0.1,1-0.1,1.7-0.2   c6,29.5-1.1,60.2,0.9,90.4c-2.6,1.6-5.5,3-8.5,3.3c-2.2-17.8,7.4-34.2,6.3-51.9c-1.2-3.1,2.9-11.9,0.3-12.8   c-1.8,24.2-8.8,47.9-9.6,72.2c-11.1,3.8-23.1,6.5-34.8,4.8c-0.4-0.4-0.9-0.8-1.4-1.3c0.8-5.5-2.7-11.2-1-16.6   c2.1,1.9,2.9,8.4,5.6,8.2c-0.9-8.2-6.2-15.2-6.2-23.6c0.2-7.1,0-14.1,0-21.2c2.4,4.8,4.6,9.6,7.1,14.2c1.2,4.6,0.1,9.6,3,13.6   c0-4.6-2.3-8.5,0.7-12c-2.5-7.8-4.2-15.8-5-23.7c-1.5-8,3.4-27-1.5-31.7c1.5,10.7-0.6,20.6-0.2,31.4c-0.1,0-0.3,0-0.4,0.1   c-0.8-2.8-1.5-5.7-2.2-8.4c3.3-11,0.3-23.1,4-34.1c1.7,3.6,1.7,21.3,5,20.9c2.1-7.2-0.3-14.6,0.6-21.9   C384.1,256.7,387.8,258.9,391.1,257z M379.4,350.3c-0.2-2,0.6-4.4-0.2-6.2c-0.2,0.1-0.3,0.2-0.5,0.3c-1,4.7-1,9.6-1.3,14.5   C379.6,357.2,379,353.1,379.4,350.3z M403.1,320.5c1.8-0.2,7.5-3.8,6.4-5.6C406.5,315.7,404.9,318.2,403.1,320.5z M396.6,346.5   c3.1-1.4,6.1-3,9.4-5.5C402,340.8,399.1,343.6,396.6,346.5z M410.9,338.9c-0.2,2.3,1.3,4.5,4.2,6.1   C414.3,342.4,413,340.5,410.9,338.9z M412.9,261.3c0,1.7,0,2.9,0,4.2C414.5,264,414.6,263.6,412.9,261.3z M399.7,359.1   c0.4-0.3,0.9-0.6,1.6-1.2C400,358,400,358,399.7,359.1z" />
	<path display="inline" fill="#E0DEE5" d="M344.7,97.7c2.6-3.9,6.8-6.3,10-9.7c15.1,0.2,25.9,11.1,39.3,15.9   c10.8,10.2,20.9,23,26,37.4c4.6,10-4.5,14.2-4.5,22.1c2.2,16.4,4.5,33.7,1.5,50c-4.6-4.8-9.1-9.5-13.8-14.4   c0.7-15.3-5.6-29.5-13.1-42.4c0.2-0.3,0.4-0.6,0.8-1.2c2.9,2.6,6.8,1.5,10.3,1.6c0,0,0,0,0,0c0.2,0.3,0.4,0.6,0.6,0.8   c6.5,1.9,15.8-5.8,12-12.6c-2.3,14.6-12.9,8.2-20.2,1.6c-3.3-3.8-5-9.3-9.2-12.2c-0.2-0.6-0.3-1.3-0.6-2.3c-3.1,3.6-3,7.9-4.6,12.3   c-7.2-0.8-14.5,1.5-21.4,1.3c0-9.5-14.9-8.6-20.2-28.3c1.8-5.1-0.4-11,3.5-15.2C342.4,101,344.8,99.7,344.7,97.7z M410.2,165.5   c-3.5-1.1-8.6,7.7-8.1,8.4C405.5,172,407.4,168.7,410.2,165.5z M371,113.4c-0.8-2.8-1.7-5.9-4.3-5.3   C367.5,110.1,368.5,111.7,371,113.4z M413.4,141.4c0.7-2.4,0.7-2.4-0.8-3.3C411.9,139.3,412.2,140.3,413.4,141.4z M362.4,104.3   c-0.7,1.7,0.7,3.7,2.1,2.4C364.4,105.4,363.7,104.6,362.4,104.3z M383.7,127.4c-1.6,1-1.6,1.6,0,3   C383.7,129.3,383.7,128.4,383.7,127.4z M410.6,133.3c-0.2,0.1-0.3,0.2-0.5,0.3c0.2,0.4,0.5,0.1,0.9,0   C410.9,133.5,410.7,133.4,410.6,133.3z M383.8,125.3c-0.1-0.2-0.1-0.4-0.2-0.6c-0.5,0.2-0.4,0.5-0.2,0.9   C383.5,125.5,383.6,125.4,383.8,125.3z" />
	<path display="inline" fill="#B28C7D" d="M395.4,363.3c3.2-1.2,6.4-1.7,9.9-2.1c1,10.2-2.5,20-6.1,29.3c1.7,0.7,1.6-1.3,3-1.3   c0.9,11-3.3,12.5-11.8,17.3c-9.6,7.2-15.9,18-25.2,25.7c-20.4,15.6-39.4,32.6-54.6,53.6c-1.1-0.4-2.1-0.8-3.2-1.3   c-2.1,1.6-4.2,3.1-6.5,4.8c-3-0.7-5.7-2.2-7.6-4.9c15.8-19.7,31.5-40.1,39.6-64.6c7.7-16,24.3-23.5,37.1-34.4   c2,25.3,12-5.1,5.1-13.6c-0.4-0.8-0.9-1.5-0.2-2.3C381.6,367.5,389.5,367.5,395.4,363.3z M391,397.4c-1.5,2.3-3.4,4.5-2.5,8.1   C398.3,403.2,394.3,391.7,391,397.4z M379.7,410.8c-3.3,4.9-3.3,4.9-3.1,7.2C379.2,416.7,382.3,413.1,379.7,410.8z M362,405.8   c-2.4-0.9-3.2,3.1-4.7,4.5c-0.5,0.6-1.3,1.2-0.8,2.2C359,411.8,360.4,410.2,362,405.8z M350.3,420.4c-1.1-1.4-3.7,0.5-3.3,2.1   C349.1,422.7,349.1,422.7,350.3,420.4z M394.7,393.6c2.1-0.4,2.1-0.4,2.7-3.4C395.6,390.6,395.2,391.9,394.7,393.6z M352.1,417.7   c2.5-0.5,2.6-0.6,2.4-2.6C353.2,415.6,353.2,415.6,352.1,417.7z M383.9,406.6c-1.5-0.4-1.5-0.4-2.6,1.7c0.5,0.2,0.9,0.5,1.5,0.7   C383.1,408.1,383.5,407.4,383.9,406.6z M343.2,427.7c-0.7-1.1-2.3-0.5-1.8,0.5C342.1,428.7,342.7,428.8,343.2,427.7z M385.4,404.1   c-0.8-1.1-1.8-0.6-1,0.5C384.6,404.4,384.9,404.3,385.4,404.1z M338.2,429.9c-0.5,1.4-1.2,1.8-0.3,2.2   C339,431.4,339,431.3,338.2,429.9z" />
	<path display="inline" fill="#544492" d="M375.9,320.7c-3.1-3.7-4-8.5-6.6-12.6c0,7.1,0.2,14.2,0,21.2c0,8.3,5.3,15.4,6.2,23.6   c-2.7,0.2-3.6-6.3-5.6-8.2c-1.8,5.3,1.7,11.1,1,16.6c0.6,0.5,1,0.9,1.4,1.3c-9.2-1.2-19.1-1.2-27.2-6.5c2.6-35.7-15.5-77.7,0.4-110   c0.5-0.3,1.1-0.5,1.6-0.8c3.7,3.1,24.1,12.4,27.1,8.2c-0.5-0.4-1.1-0.8-1.6-1.2c0.2-1.3,0.4-2.6,0.6-3.9c1-0.1,1.9,0.2,2.8,0.6   c0.8,1.4-0.7,2.7,0.5,4.4c1.5-1.1,0.5-2.8,1.3-4.2c0.3,0.1,0.7,0.3,1.1,0.5c0.3,1.9,0.6,3.8,0.9,5.6c0.9,0.4,1.5,0.4,1.9-0.4   c0.2,0,0.4-0.1,0.6-0.1c0.7,0.6,1.4,1.1,2.3,1.4c-0.5,0.2-1.3,0-1.4,0.8c-0.8-0.2-1.6-0.3-2.7-0.5c-0.9,7.3,1.5,14.7-0.6,21.9   c-3.3,0.4-3.3-17.3-5-20.9c-3.6,11-0.7,23.1-4,34.1c0.7,2.8,1.5,5.6,2.2,8.4c0.1,0,0.3,0,0.4-0.1c0.8-5.8-0.9-12.3,0.7-17.7   C374.2,295.2,374.7,307.9,375.9,320.7z M366.7,329.2c0.1,0,0.3-0.1,0.4-0.1c-2.4-10.2-14.6-27.6-23.9-30.9   C352.8,307.3,361,317,366.7,329.2z M343.6,284.6c-2.2,3.5,14.4,21.5,17.4,21.9C355.2,299,347.5,293.4,343.6,284.6z M345.8,318.6   c0,7.2,5.1,14,8,20.5C353.5,331.8,348.3,325.2,345.8,318.6z M377.8,255.2c-1.1-0.5-2-0.7-3.1-0.1   C375.7,255.9,376.7,255.7,377.8,255.2z" />
	<path display="inline" fill="#B28C7D" d="M465.6,301.9c-3.2-8.9-10.7-14.8-17.3-21.4c-3-1.9-2.3-6-5.3-7.8c-3.4-2.6-5.4-7-9.2-9.2   l0,0c-1.6-1.3-2.9-3-4.3-4.5c0.7-5-4.6-5.7-7.7-8.2c-11.7-8.7-22.9-19.7-32.1-30.2c1.9-0.8,0-3.1-1.5-2.9c0-0.6,0-1.3-0.8-1.4   c0,0,0,0,0,0c0.2-0.3,0.4-0.6,0.6-0.8c1.7,0.5,2.9,1.7,4.5,1.5c1.4,2.8,1.4,6,4.6,7.6c-0.3-3.1-1.5-5.3-2.4-7.5   c1-1.9,3,0.1,4.4-0.8c1.1,0.5,2.1,0.9,3.1,1.3c0.6-0.3,1.2-0.6,2-1.1c-3.7-0.1-3.9-3.7-6.3-5.4c-2.5-1.3-4.8-3.6-7.6-4.2   c-1.7-1.6-3.4-1.6-5.6-1.2c-6.4-6-14.5-17.6-16.2-23.3c2.4-0.7,5.4,0.8,7.5-1.7c-8.6-15.5-15.3-5.7-23.3-28.1   c0.3-0.6,0.5-1,0.7-1.5c8.1-3.8,17.7-6,26.6-4.3c11.7,14.3,19.8,31.7,21.4,51.1c-0.7-0.2-1.3-0.3-2-0.5c-1.4,1.7,2.6,3,3.4,4.3   c10.3,10.3,17.6,22.8,25,35.2c11.5,18.9,27,34.8,43.6,48.6c-0.3,0.3-0.6,0.6-0.9,0.9c-0.2-0.8-0.5-1.6-1.7-1.3   c2.8,6.6,9.6,12.5,8.8,20.7c-1.3-0.7-2.4-1.3-3.3-1.8c-1.1-6.7-3.4-13.6-9.2-17.4c0.3,2.7,2.9,4.8,4.2,7.2   c2.7,3.7,2.6,8.3,4.1,12.7c-4.6,1.6-4.1-14.7-13.2-19.8c2,5.7,7,9.3,7.6,15.6c-0.3,0.5-0.5,1-0.8,1.5   C466.5,303.4,466,302.7,465.6,301.9z M457.1,281.5c-0.2-0.1-0.4-0.2-0.6-0.2c1.4,1.9,1.3,3.3,3.3,2.8   C459.4,282.6,458.7,281.6,457.1,281.5z M465.6,284.6c0.1-2.3-2.9-4.2-4.9-4.2C462.2,282.1,463.3,283.7,465.6,284.6z M404,233.2   c-0.3-2.3-0.7-3.5-2.8-3.6C401.6,231.4,402.6,232.1,404,233.2z M398.8,226.6c-0.4,1.7-0.4,1.7,1.4,2.8   C400.4,227.6,400.4,227.6,398.8,226.6z M394.2,195.1c0.6,0.8,1.3,2.7,2.4,1.5C395.7,194.8,395.7,194.8,394.2,195.1z M407.7,236   c-1-1.7-1-1.7-2-1.7C405.7,235.4,406.3,235.9,407.7,236z M392.1,194.4c0.3,0.1,0.6,0.4,0.8,0C392.6,194.1,392.5,194,392.1,194.4z" />
	<path display="inline" fill="#D5D2DC" d="M344.7,97.7c0.1,2.1-2.3,3.3-3.6,4.7c-3.9,4.2-1.7,10.1-3.5,15.2   c5.4,19.9,20.1,18.7,20.2,28.3c0.6,0.2,1.1,0.3,1.5,0.4c-5.4,2.4-11,3.8-15.3,8.4c-0.6-1.5-1.1-2.8-1.6-4.1   c0.1-0.8,0.6-1.7-0.6-2.1c-0.6-0.5-1-1.1-1.3-1.7c0-0.2-0.1-0.4-0.3-0.5c0-0.3,0.1-0.5,0.1-0.8c1.1,0.6,2.4,3.2,3.7,1.7   c-1.1-1.4-1.4-3.4-3.5-4.7c0,1.2-0.1,2.1-0.1,3.1c-0.3,0-0.5,0-0.8,0c-0.4-0.9-1.1-1.4-2.2-1.5c0.3-1.6,0-3-1.9-3.7   c-0.6,1.6,0.3,3.9,1.9,3.7c4.2,10.2,6,22.3,13.6,31c10.2,9,16.2,21.3,24.6,32.1c-1.2,1.1-0.9,2.6-0.5,3.7c1.8,11.8,1.8,24.1,0.6,36   c-8.9-2-17.6-4.6-25.8-8.6c4.1-25,4.7-39.3-11.7-60.4c-5.6-12-8.2-24.6-7.1-37.7C327.3,124.5,330,106.4,344.7,97.7z M344.5,145.3   c1.2,2.5,1.2,2.5,3.2,3.4C347.1,147.3,346.2,146.4,344.5,145.3z" />
	<path display="inline" fill="#B28C7D" d="M380.8,419.7c6.6-13.3,26.3-13.6,23.6-29.8c-1.8-9.8,5-19,3.3-29.2   c1.4-2.3,2.3-4.9,2.2-7.8c2-0.8,3.9-1.2,6.1-1.1c-2,40.5-11.3,80.2-25.1,118.5c-0.7,9.9-2.5,20.6-2.8,31c-0.8,2.9,2.5,6.5-1.2,8.4   c-4.7-1.4-10.2-2.1-14-5.7c-0.1-10,4.2-20,2.3-29.8c4.1-6.2,0.2-14.3,2.1-21.2c0.2-8.9-0.6-18.1,2.6-26.6c0.7-1.6,1.7-3.2,0.7-5.1   C380.4,420.7,380.7,420.1,380.8,419.7z M412.2,376.2c-2.1,4.2-4.1,7-4.8,11.3C410.6,384.2,413.8,380.8,412.2,376.2z M392.8,434.9   c1.6-3.7,2.5-7.8-0.7-10.2c-0.7,3.2,0.6,5.7-0.1,8.8C392,433.7,392.3,434.1,392.8,434.9z M375.9,504.1c3.1-0.6,2.6-5,1.4-7.1   C375.4,499.3,375.8,501.5,375.9,504.1z M405.2,415.4c1.9,0.2,1.7-4.4-0.2-5C404.9,412.2,404.4,413.8,405.2,415.4z M391.6,439.3   c-1.6,1.4-1.7,2.7-1.1,4.4C391.9,441.9,391.9,441.9,391.6,439.3z M382,479.9c-2.4,0.4-3.5,2-1.7,3   C380.8,482.1,381.2,481.3,382,479.9z M389.2,448.5c1.5-1.4,1.5-1.5,0-3C388.6,446.6,388.7,447.5,389.2,448.5z M377.6,492.8   c1.5-0.5,1.9-2.4,0.4-2.8C377.2,490.9,376.9,491.6,377.6,492.8z" />
	<path display="inline" fill="#B1B6B7" d="M265.7,492.1c4-3,6.7-7.5,10.6-10.7c3.7-2.1,8-2.9,10.8-6.6c0.4,0.7,0.6,1.2,1,1.9   c-14.9,14.4,10.2,21.9,19.6,11.5c1.6,0.3,3.5,0,5.1,1.6c-0.4,2.6-0.9,4.8-1.7,7.5c-9.7,0-10.9,6.3-0.2,3.5c0.2,1,0.4,1.9,0.6,2.8   c-9,1.2-8.9,4.9,0.5,3.8c0.5,0.9,1.1,2,1.6,3c-0.9,2.6-6.9,0.1-5.6,4.1c1.9,1.1,3.9-0.1,6-0.2c0.3,0.7,0.7,1.4,0.7,2.3   c-1.1,0.5-2.2,1-3.4,1.6c-0.1,2.8,2.2,2.3,4.3,1.7c0.3,0.5,0.6,0.9,0.9,1.4c-0.4,0.8-0.7,1.6-0.9,2.2c0.5,1.6,1.9,1.1,2.7,1.5   c4.7,5.9,3.8,11.7,11.6,16.2c-2.5,8.3-8.8,5.2-15.2,3.6c-12.5-4.3-22.5-17-26.8-29.3c0.5-2.3-0.6-3.6-2.5-4.5   C278.6,505.4,268.1,501.3,265.7,492.1z" />
	<path display="inline" fill="#B28C7D" d="M409.9,53.5c0.5,0.1,0.9,0.3,1.5,0.4c0.7,1.3,1.4,2.7,2.2,4.1c-0.9,1.8-2.3,3.2-3.8,4.2   c0.4,2.3,3.9,1.4,3.7,4.4c-3.2,3.5,0.3,11.7-6.8,11.6c-10.2,0.5-28.8-11.8-29.2-22.9c-4.1,0.7-4.7,0.5-7.3-2.4   c2.2-0.9,5.8-0.5,6-3.7c-0.7-1-1.6-2.2-2.4-3.3c2.6-6.1-2.9-6.4-6.5-8.1c4-0.5,5.6-0.6,8.7,2.4c4.6-1.2,13.2-7.4,12.4-12.8   c1.8-7.4-3.2-7.3-3.2-12.6c1-1.1,2.2-2.4,3.4-3.8c1.4,0.1,2.8,0.8,3.9-0.2c8.4,3.8,11.4,12.2,14,20.3c-3.5-0.7-6.7-1.3-9.7,1.5   c4.5,0.3,5.6-1.1,10.3,1.2c0.4,0.8,0.6,1.6-0.5,2.1c-0.2-0.2-0.5-0.5-0.7-0.7c-0.2,0-0.5,0-0.5,0.1c-1,2.9-4.8,1.7-5.9,4.5   c1.7,0.4,3,0.6,4.4,0.9c0.3,0.4,0.6,0.7,1,1.3c0.4-0.8,0.9-1.4,0.9-1.9c0-0.6-0.2-1.1,0.5-1.4c2.1,4.7,7.6,6.9,8.4,12.2   c-1.7-0.3-3,0.3-4.2,1.4c-0.7-0.2-1.3-0.3-1.7-0.4c-1-1.2,0.9-2.2-0.4-3.3c-1.5,1.3-1.1,2.7-0.7,4.2   C408.6,53,409.3,53.2,409.9,53.5z" />
	<path display="inline" fill="#B1B6B7" d="M351.3,518.5c5.2-3.3,8.8-7.8,12.3-12.7c1.9,0.7,3.7-0.4,5.7-0.3   c7.5,11.4,9.9,14.8,21.1,4.8c4.3,0.7,4.2,5.1,4.7,8.6c-2,2.5-5.9,2-7.6,4.7c0.4,1.3,1.3,1.1,2.1,1.1c0.3,0.2,0.5,0.5,0.8,0.7   c-2.9,1.2-0.4,2.4,0.7,3.6c-0.5,0.5-1,0.9-1.5,1.3c1.2,2.5,4.3-0.3,6.2-0.6c0.2,0.4,0.3,0.7,0.4,1c-1.4,2-4.7,1.6-5.4,4.6   c2.3,0.7,3.7-0.8,5.9-1.7c0.2,0.8,0.4,1.6,0.6,2.3c-0.9,1.7-3.6,1.4-3.8,3.6c1.5,1.1,2.8-0.4,3.9-0.4c1.5,2,2.9,3.7,4.3,5.5   c3.1,0.5,6,1.1,9.1,0.7c7.2-0.7,8.5,9.5,3.8,13.5c-15.6,6.2-33.5-2.6-36.9-19.3C366.2,537.2,353.4,531,351.3,518.5z" />
	<path display="inline" fill="#977264" d="M395.4,363.3c-5.8,4.3-13.7,4.2-20.5,6.2c-0.7,0.8-0.2,1.6,0.2,2.3   c6.9,8.5-3.2,38.9-5.1,13.6c-12.8,10.9-29.4,18.4-37.1,34.4c-8.1,24.5-23.7,44.9-39.6,64.6c-0.3-0.2-0.5-0.5-0.8-0.7   c0-0.5,0.1-1,0.1-1.5c1.5-1.5,0.7-3.2-0.8-4.4c1.9-2.4,3.9-4.8,5.8-7.2c0.5,0.2,1.1,0.5,2,0.9c0.8-1.2,1.9-2.5-0.5-3   c11.5-18.3,22.8-36.7,33.2-55.9c6.7-11.7,21-16.2,30.6-25.2c0.3,0,0.5,0,0.8,0c0.2,0.2,0.5,0.4,0.7,0.7c1.7-1.2,4.3-1.9,4.3-4.4   c-0.5-3.2,1.1-6.9-1-9.5c-1,2.8-1.2,4.7-1.3,7.4c-3.1-5.2-6.5-11.4-6.3-17.8C371.8,364.1,383.5,366.2,395.4,363.3z M367.7,370.1   c-0.6,1.5-0.6,1.5-0.1,3C368.9,371.5,368.9,371.5,367.7,370.1z M294.1,477.9c1.9-1,1.9-1,2.2-3.1   C295,475.3,294.4,476.1,294.1,477.9z" />
	<path display="inline" fill="#B28C7D" d="M470.7,274.4c2.7,2.7,5.3,5.4,8,8.1c0,0.2,0,0.4,0.1,0.6c-0.2,0-0.4,0-0.6,0   c-0.5,0.4-1,0.9-1.5,1.3c-2-1.3-0.9,1.9-2.3,2.3c-17.7-17.1-35.5-34.5-47.8-56.4c-7.3-8.5-6-18.3-4.8-28.7   C439.6,222.9,450,253.5,470.7,274.4z M471.5,279.5c-0.3-1.3-0.3-1.3-1.4-1.7C470.1,278.7,470.7,279,471.5,279.5   c1.1,0.8,2.1,4.6,3.6,2.8C474.3,280.9,473.4,279.5,471.5,279.5z" />
	<path display="inline" fill="#977264" d="M385.3,68c5.5,4.1,11.9,9.7,19,10.2c-2.8,1.5-6.1-0.3-8.9-0.5c-0.9,5.1-2.1,11.2-3.4,16.5   c-23.1-18.4-14.3-36.1-25.4-36.1c0.2,9.9-3.7,19-4.4,28.7c-2.2,0.1-4.3,0-6.5-1.1c1.1-8.4,1.6-17.1,1.2-25.5   c0.8-0.7,1.3-1.2,1.9-1.8c0.2,0.2,0.5,0.4,0.8,0.6c1.2-0.4,1.4-1.2,0.6-2.3c0.6-0.7,1.2-1.4,2-2.2c-0.2-0.7-0.3-1.4-0.6-2.2   c0.4-0.7,0.8-1.6,1.2-2.5c4.7,2.6,7.7,7.6,13.4,8.3c1.1,2.7,2.1,5.3,3.2,8c-1.8,1.7,3.1,9.2,4.6,10.3c0.2-3.1-1.8-5.5-2.9-8.3   C382.8,68.2,384.4,69.5,385.3,68z M387.5,86.1c-0.5,1.4-0.5,1.4,0.6,1.7C388.4,87.1,388.2,86.5,387.5,86.1c0-0.8,0.3-1.9-1.1-2.1   C386,85.7,386,85.7,387.5,86.1z M385.7,82.5c0.8-2.3,0.3-3.2-1.7-3.4C384.5,80.3,385.1,81.4,385.7,82.5z" />
	<path display="inline" fill="#977264" d="M396.9,216.4c-0.8,0.2-1.8-0.3-2.3,0.8c-0.6-0.4-1.2-0.9-1.9-1.5c-0.1,0.6-0.2,1-0.3,1.4   c-1.7,0.3-2.9-1-4.5-1.5c-0.2,0.2-0.4,0.5-0.6,0.8c-11.9-8.9-17.9-23-26-35.2c0.7-0.1,1.3-0.1,1.9-0.2c-1-2.5-4.5-4.3-6.8-6   c-0.5,0.2-0.9,0.4-1.5,0.6c-5.6-4.6-8.1-11.4-10.4-18c2.4-3,5-5.5,8.8-6.4c-0.2,0.4-0.4,0.9-0.7,1.5c8,22.4,14.6,12.5,23.3,28.1   c-2.2,2.5-5.1,1-7.5,1.7c1.7,5.7,9.8,17.3,16.2,23.3c1.5,0.1,3.3-0.9,4.3,0.4c-2.4,1.7,0.9,4.7,1.8,6.4   C392.1,215.3,394.7,215.3,396.9,216.4z M369.3,180.2c1.3,0.7,2.1,1.2,3.7,1.4c-0.4-2.1-1.6-2.9-3-3.5c-0.5,0.5-1,0.9-1.4,1.3   c-1.7-2-1.7-2-3.7-2.2C364.6,179,369.7,183.7,369.3,180.2z" />
	<path display="inline" fill="#B28C7D" d="M362.1,86.8c0.6-9.7,4.5-18.7,4.4-28.7c11-0.1,2.4,17.7,25.4,36.1c0.2,2,0.4,3.9,0.6,6.1   C381.8,98.7,373.5,88,362.1,86.8z" />
	<path display="inline" fill="#E0DEE5" d="M375.9,246.7c1.3-11.9,1.3-24.2-0.6-36c-0.4-1.1-0.7-2.6,0.5-3.7l0,0.1   c0,0.6,0.1,1.2,0.8,1.3c6.9,15.5,16.8,28.8,30.1,39.7c-4.4,0.2-8.4,0.9-12.7,0.1c-0.9-2.3-1.6-4.8-4.3-6.3c0.1,2.6,1.2,4.4,2.8,6.4   C386.7,248.5,381.5,247.8,375.9,246.7z M386.8,236.6c-2.1-1-1.9-3.7-4.2-4.2c0.9,2.2,0.9,2.2,2.7,2.9   C384.5,237.6,388.8,240.5,386.8,236.6z" />
	<path display="inline" fill="#967264" d="M380.8,419.7c-0.1,0.5-0.5,1.1-0.3,1.4c1,1.9,0,3.6-0.7,5.1c-3.2,8.5-2.4,17.8-2.6,26.6   c-1.9,7,2.1,15-2.1,21.2c1.9,9.8-2.4,19.8-2.3,29.8c-1.5,0.1-2.8-0.2-4-1.1c1.8-14.4,3-28.9,3.1-43.4   C371.9,446.2,367.9,427.9,380.8,419.7z" />
	<path display="inline" fill="#9BA1A2" d="M265.7,492.1c2.4,9.2,12.9,13.3,19.7,18.6c1.9,0.9,3,2.2,2.5,4.5   c1.3,5.8,5.6,10.8,8.6,15.9c6,4.6,10.4,12,18.2,13.4c4.1,0.5,8.5,3.4,12.5,1.2c-0.5,1.3-1,2.7-1.5,4.1   c-15.4-0.2-29.9-9.5-35.8-23.8c-0.9-1.7-0.9-1.7-3.4-2.5c-6.1-11.3-19-17.8-25.3-28.8C262.4,493.5,264,492.7,265.7,492.1z" />
	<path display="inline" fill="#977264" d="M389.6,220.7c9.2,10.4,20.4,21.5,32.1,30.2c3.1,2.4,8.5,3.2,7.7,8.2   c-0.8,1.1-0.8,1.1,0.7,2.1c0.1-0.5,0.1-0.9,0.2-1.3c0.7,1.6,2.3,2.5,3.4,3.7c-0.7,0-0.9,1-0.1,1c0-0.3,0.1-0.7,0.1-1   c1.4,0.6,2.2,1.7,3,2.8c-0.8,0.1-1.3-0.2-2.3-0.5c0,0.9,0,1.4,0,2l0,0c-17.4-16.8-41.5-28.2-51-51.8c1.7-0.4,2.2,1.4,3.6,1.8   c0.1-0.5,0.2-1,0.2-1.4c0.8,0.1,0.8,0.8,0.8,1.4C388,219.2,389.2,219.8,389.6,220.7z" />
	<path display="inline" fill="#9BA0A1" d="M351.3,518.5c2.1,12.4,14.9,18.7,26.3,21.2c3.4,16.7,21.3,25.5,36.9,19.3   c-12.9,9.5-35.1,2.4-38.5-13.6c-3-5.1-10.5-3.2-15.2-6.2C355.5,535.3,344.3,523.9,351.3,518.5z" />
	<path display="inline" fill="#100C0A" d="M456.3,270c10.4,8.1,18.3,15.1,23.6,27.5c0.1-4.2-3.4-8.2-4.7-12.3   c1.9-4.7,8.5,15.6,5.9,18c1.9-0.3,0.8-1.8,1.4-2.9c2.1-6.1-4.3-11.2-4.4-17.2c0.2,0,0.4,0,0.6,0c1.2,3,2.3,6.1,4.4,8.7l0,0   c0.1,0.8-0.2,1.7,0.6,3.2c0.1-1.4,0.1-1.9,0.1-2.5c0.3,0,0.5,0,0.8,0c2.4,3.7-1.6,7.3-0.9,11.4c-1.2,0.4-2.3,0.8-3.2,1.2   c-0.6,2.6-2.4,2.5-4.4,2.5c-0.4,0.5-0.8,0.9-1,1.2c-1.7,0-3.1,0-5.1,0c-1.3-0.8-3.1-3.1-5.1-3.2c0.4-0.8,1.8-0.9,1.5-2.1   c0.3,0.2,0.5,0.5,0.8,0.7c0.2,1,0.9,1.5,2.2,2.1c-0.6-1.3-0.5-2.6-1.4-3.6c-0.6-6.3-5.6-9.9-7.6-15.6c9.3,5.2,8.5,21.3,13.2,19.8   c-0.6-3-2.6-6.5-0.7-9.2c0.5,2.2,1,4.4,1.6,6.8c1,0.5,2,1.1,3.3,1.8c0.4-7.1-4.2-12.9-7.9-18.6c0.3-0.3,0.6-0.5,0.9-0.8   c1.3,2.6,3.8,4.4,4.6,7.2c0.5-0.9,0.2-1.2-0.3-1.4c0-0.8,0.2-1.7-0.7-2.2c-3.2-9-13.6-11.5-19.1-18.7   C456.2,271.4,456.3,270.7,456.3,270z M479.3,302.7c0.4-2.2,0.1-3.6-1-4.8C478,299.8,478,299.8,479.3,302.7z" />
	<path display="inline" fill="#D4D1DB" d="M384.4,134.6c6.9,6.6,11.4,19.1,22.6,19.6c-1.9,1-4.5,0.9-5.7,2.8c-0.5,0-1,0.1-1.5,0.1   c1-1.9-3.9-4.2-4.2-1.7c0.6,0.5,1.4,1.1,2.1,1.7c-2.4,0.2-4.7,0.2-6.6-1.6c-0.4,0.6-0.6,0.9-0.8,1.2   C384.3,150.5,380.5,142.8,384.4,134.6z M394.1,152.7c-0.8-0.6-1-0.7-1.4,0.1C393.3,153.5,393.5,153.5,394.1,152.7z M391.4,150.1   c-0.3,0.4-0.7,0.8-1,1.1C391.3,152,392.4,151.2,391.4,150.1z" />
	<path display="inline" fill="#967163" d="M436.1,266.4c0.2,0,0.4,0,0.7,0c2.6,1.5,3.7,4.8,6.2,6.4c3.1,1.8,2.3,5.9,5.3,7.8   c3.8,4.5,9.4,7.6,12.2,12.8c-15.4-5.8-14.1-11.2-22.3-23c-0.5,0-0.9,0.1-1.6,0.1c-0.7-0.8-1.4-1.7-2.1-2.6c0,0,0,0,0,0   c0.7,0.1,1.3,0.2,2.2,0.3C436.5,267.5,436.3,266.9,436.1,266.4z" />
	<path display="inline" fill="#0E0B15" d="M408.4,347.5c-1.4-10.4,2.2-20.3,4.5-30.3c3.3-10.3,0.6-21.2,3.8-31.6   c2.6,0.8-1.5,9.8-0.3,12.8c1.1,17.7-8.4,34.1-6.3,51.9C408.4,350.1,409.9,347.9,408.4,347.5z" />
	<path display="inline" fill="#0D0913" d="M373.1,248.4c-0.2,1.3-0.4,2.6-0.6,3.9c0.5,0.4,1.1,0.8,1.6,1.2   c-1.9,4.2-26.9-5.4-27.9-9.7c0.5-0.1,0.9-0.2,1.5-0.3c-0.1-0.8-0.2-1.5-0.3-2.3c-0.8,0-1.3,0-1.9,0c0.3-0.6,0.6-1.3,0.9-2   c0.3,0.3,0.6,0.5,0.8,0.7c0.4-0.3,0.8-0.6,1.2-0.9c1.4,0.8-1,2.1,0.6,2.7c-0.2,0.8-0.4,1.5-0.6,2.5c0.4,0.4,0.9,0.8,1.5,1.2l0,0   c2.8,2.8,6.9,3.3,10.6,5c0.2-2.1,1.5-3.7,1.7-5.7c0.5,0.3,1.1,0.5,1.6,0.8c-0.3,1.8-2.1,3.2-1.3,5.5c0.6,0.2,1.4,0.5,2.2,0.9   c0.7-2,1.3-3.9,2-5.7c0.8,0.1,1.7-0.3,2.2,0.6c-1.8,1.1-1.9,3-2.1,4.9c1.5,0.9,2.9,1.3,4.5,0.8c0.1-1.6,0.2-3.2,0.4-4.8   C372,247.9,372.5,248.1,373.1,248.4z" />
	<path display="inline" fill="#100B0A" d="M385.3,68c-0.9,1.5-2.5,0.2-4.1,0.2c1.1,2.9,3,5.2,2.9,8.3c-1.5-1.2-6.4-8.6-4.6-10.3   c-1.1-2.7-2.1-5.3-3.2-8c-5.7-0.6-8.6-5.7-13.4-8.3c0.2-0.8,0.9-0.7,1.6-0.8c1.4,0.9,2.9,1.9,4.2,2.9c0.2,0.9,1,0.7,1.6,0.8   c2.5,2.9,3.2,3.2,7.3,2.4C378.8,60.3,379.8,66,385.3,68z" />
	<path display="inline" fill="#534592" d="M406.3,257c0.9,6.1,0.3,11.9,1.2,18.1c-4-4.4-3.6-11.4-5.3-17.2c-1.7-0.6-3.7,0-5.5-0.3   C399.5,256.1,403.2,257.4,406.3,257z" />
	<path display="inline" fill="#16100E" d="M370.3,52.9c-0.6-0.1-1.4,0-1.6-0.8c0.7-0.5,1.4-0.9,2.1-1.4c1.3,0,2.7,0.3,3.6-0.7   c-0.2-0.8-0.6-1.3-1.5-1.5c0,0,0,0.1,0,0.1c-0.4-1-0.8-1.9-1.4-2.8c0.7-1,1.5-1.9,1.3-3.2c-2.6-2.6-2.9-2.8-6.2-2.4   c-0.3,0.9-0.6,1.8-0.9,2.6c-0.1-0.6-0.1-1.2-0.2-1.7c-0.1,0-0.2,0-0.3,0c-0.2,0.9-0.3,1.8-0.5,2.8c-1.7-0.8-1.1-2.2-1.2-3.5   c1.1-1.1,1.7-2.9,3.9-2.6c3.6,1.7,9.1,2,6.5,8.1c0.8,1.1,1.6,2.3,2.4,3.3C376.1,52.5,372.5,52,370.3,52.9z" />
	<path display="inline" fill="#443879" d="M362,244.7c-0.2,2-1.5,3.6-1.7,5.7c-3.7-1.7-7.8-2.2-10.6-5c1.6-0.9,2.1-2.6,2.9-4.2   c0.6,0.3,1,0.4,1.4,0.6c0,0.2,0,0.5,0,0.7c-0.8,0.8-3.6,2.7-1.4,3.5c1.1-0.9,1.5-2.1,1.4-3.4c0.5,0,1,0,1.4-0.1   c2,1.1-0.8,2.8,0.4,4.2c1.7,0.1,0.7-3.3,3-2.5c0.4,1.5-1.3,2.4-0.8,3.9c1.3-0.7,1.3-2.2,2.4-3.4C360.9,244.7,361.5,244.7,362,244.7   z" />
	<path display="inline" fill="#544590" d="M398.3,255.4c-1.1-1.2-0.6-2.4-0.7-4.2c-0.6,0.4-1,0.6-1.3,0.9c-0.7-1.4-2-0.7-3.1-0.9   c3.6-1.4,7.8-0.3,11.8-0.6c0.8,1.6,1.6,3.1,2.4,4.7c-2.4,0.2-5.1,2.1-6.9,0.3l0,0c0.4-0.1,0.9-0.2,1.3-0.3c0-1.1,0-2,0-3   c-0.5,0.2-0.8,0.4-1.2,0.5c-0.5-1.5-0.5-1.5-2.2-1.1C398.3,252.9,398.3,254.2,398.3,255.4z" />
	<path display="inline" fill="#EDEEEE" d="M286.2,485c0.6-0.9,1-2.1,2.4-2.9c1.8,3.4,4.5,5.8,7.9,8.4   C292.2,490.3,286.9,489.5,286.2,485z" />
	<path display="inline" fill="#F0F3F3" d="M374.5,508c3.4,1.1,6.8,2.3,10.4,3.5c-3.3,4.9-8.7,2-10.5-2.4   C374.4,508.7,374.4,508.3,374.5,508z" />
	<path display="inline" fill="#695AA6" d="M384.6,256.1c-0.8-0.4-1.6-0.8-2.3-1.4c0-1.6,0.1-3.3,0.1-4.9c1.9,0.2,3.8,0.5,5.7,0.7   c-0.7,2-0.7,3.5-0.2,5.7C386.7,256.1,385.6,256.1,384.6,256.1z" />
	<path display="inline" fill="#8A6E61" d="M365.8,42.8c0.3-0.9,0.6-1.7,0.9-2.6c3.3-0.4,3.7-0.3,6.2,2.4c0.1,1.3-0.6,2.2-1.3,3.2   c-0.3-0.7-0.6-1.5-0.8-2.2c0.2-0.3,0.5-0.7,0.9-1.2c-2.4-0.9-3.5,0.3-4.6,1.9c0.5,1.4,1.1,2.8,1.6,4.2c-0.5,0-0.9,0-1.4,0   c-0.1-1.2-0.4-2.3-1.4-3.1C365.8,44.5,365.8,43.7,365.8,42.8z" />
	<path display="inline" fill="#4E4089" d="M371.4,247.6c-0.1,1.6-0.2,3.2-0.4,4.8c-1.6,0.5-3,0.1-4.5-0.8c0.3-1.9,0.3-3.7,2.1-4.9   C369.6,247.1,370.5,247.3,371.4,247.6z" />
	<path display="inline" fill="#1C172A" d="M384.6,256.1c1.1,0,2.1,0,3.4,0c-0.5-2.1-0.4-3.7,0.2-5.7c0.5,0,1,0,1.5,0   c0.2,2.3-1,5.2,1.4,6.5c-2.4,1.7-5.3,0.1-8-0.1C383.3,256.2,384.1,256.3,384.6,256.1z" />
	<path display="inline" fill="#625195" d="M393.2,251.2c3.5-0.6,3.2,1.7,2.9,4.5c-0.9,0.8-1.9,0.6-3.2,0.4   C392.5,254.4,392.2,252.8,393.2,251.2z" />
	<path display="inline" fill="#4C3F88" d="M366.5,246.1c-0.6,1.9-1.3,3.7-2,5.7c-0.8-0.3-1.6-0.6-2.2-0.9c-0.7-2.3,1-3.7,1.3-5.5   C364.6,245.7,365.5,245.9,366.5,246.1z" />
	<path display="inline" fill="#2A2425" d="M388.2,248.4c1.3,0,2.6,0,4.4,0c-1.6-2-2.7-3.9-2.8-6.4c2.7,1.6,3.4,4,4.3,6.3   C392.1,249.3,390.2,249.6,388.2,248.4z" />
	<path display="inline" fill="#695AA6" d="M381.7,254.8c-0.4,0.8-1,0.8-1.9,0.4c-0.3-1.8-0.6-3.7-0.9-5.6c0.7,0,1.4,0.1,2.1,0.1   C381.1,251.4,380.1,253.7,381.7,254.8z" />
	<path display="inline" fill="#65549B" d="M390.4,256.3c-1.6-1.2-0.4-4-0.7-5.8c0.6,0,1.1,0.1,2,0.2   C390.8,252.6,391.8,254.9,390.4,256.3z" />
	<path display="inline" fill="#64549B" d="M398.3,255.4c0-1.3,0-2.5,0-3.7c2.9-1.2,2.1,2.1,2.1,3.9c0,0,0,0,0,0   C399.8,255.5,399.1,255.5,398.3,255.4z" />
	<path display="inline" fill="#7C5E52" d="M363.6,387.3c-0.3,0-0.5,0-0.8,0c0.8-2.4,2.4-4.6,2.3-7.2c0.4,0.5,0.9,1,1.3,1.4   C366.6,383.9,364.8,385.4,363.6,387.3z" />
	<path display="inline" fill="#413674" d="M345.5,241.1c0.6,0,1.1,0,1.9,0c0.1,0.8,0.2,1.5,0.3,2.3c-0.5,0.1-0.9,0.2-1.5,0.3   c0.3,0.6,0.5,1.1,0.8,1.6c-0.5,0.3-1.1,0.5-1.6,0.8c0-0.4,0.2-0.8,0-1C344.4,243.7,345.2,242.4,345.5,241.1z" />
	<path display="inline" fill="#7C8A8A" d="M391.1,529.1c-0.5-0.4-1-0.9-1.4-1.3c2.2,0.1,4-1,5.8-2.2c0.3,0.5,0.4,0.8,0.6,1.1   C394.6,528,392.8,528.6,391.1,529.1z" />
	<path display="inline" fill="#7A8182" d="M390.3,525.5c-0.3-0.2-0.5-0.5-0.8-0.7c1.6-1.3,3.7-1.7,5.9-2.9   C394.4,523.9,393.1,524.7,390.3,525.5z" />
	<path display="inline" fill="#1F1412" d="M404.1,40.6c-1.3-0.3-2.7-0.6-4.4-0.9c0.7-1.5,1.5-1.7,3-2c-0.2,1,0.4,1.7,1.4,1.4   C404.1,39.5,404.1,40,404.1,40.6z" />
	<path display="inline" fill="#524783" d="M410.7,251.2c-0.4,0.1-0.7,0.1-1.2,0.2c-0.2,0.8-0.3,1.5-0.5,2.5c-0.8-1.1-1.6-2-2.4-3.1   c0.9-0.4,1.7-0.7,2.8-1.1C409.8,250.2,410.2,250.7,410.7,251.2C410.6,251.2,410.7,251.2,410.7,251.2z" />
	<path display="inline" fill="#1E1B32" d="M381.7,254.8c-1.6-1.1-0.6-3.4-0.8-5c0.5,0,1,0,1.5,0c0,1.6-0.1,3.3-0.1,4.9   C382.1,254.8,381.9,254.8,381.7,254.8z" />
	<path display="inline" fill="#413673" d="M349.8,245.4c-0.5-0.4-1-0.8-1.5-1.2c0.6-1.7,0.4-3.9,2.7-3.8   C351.1,242.2,349.1,243.5,349.8,245.4z" />
	<path display="inline" fill="#674E45" d="M291.8,477.7c0.5,0.5,1,1.1,1.4,1.6c-1.4-0.1-1.8,1.5-2.8,2.2c-0.2-0.5-0.4-1-0.8-1.8   C290.3,479.1,291.1,478.4,291.8,477.7z" />
	<path display="inline" fill="#54433A" d="M299.1,468.4c2.4,0.5,1.3,1.8,0.5,3c-0.9-0.4-1.4-0.6-2-0.9   C298.1,469.8,298.6,469.1,299.1,468.4z" />
	<path display="inline" fill="#4F413A" d="M366.5,50.6c-0.7-0.5-1.4-0.9-2.1-1.4c0-0.9,0-1.9-0.1-2.8c0.2,0,0.4-0.1,0.7-0.1   c0.6,1,0.5,3.1,2,2.8C366.9,49.6,366.7,50.1,366.5,50.6z" />
	<path display="inline" fill="#16100E" d="M367,49.1c-1.5,0.2-1.4-1.8-2-2.8c0.3-0.3,0.6-0.6,0.9-0.9C367,46.2,367.6,47.9,367,49.1z   " />
	<path display="inline" fill="#0C0605" d="M290.4,481.5c1.1-0.7,1.5-2.4,2.8-2.2c0.4,1.1,0,2-0.7,2.8c-0.5,0-1,0-1.5,0   C290.8,481.9,290.6,481.7,290.4,481.5z" />
	<path display="inline" fill="#58453D" d="M357.9,55.7c0.5,1.8,0.3,1.9-2,2C356.1,56.6,357.1,56.4,357.9,55.7z" />
	<path display="inline" fill="#433969" d="M410.6,251.2c1.6-0.4,2.2,2.3,0.6,2.7C410.3,253.1,410.7,252.1,410.6,251.2L410.6,251.2z" />
	<path display="inline" fill="#674E45" d="M291,482.1c0.5,0,1,0,1.5,0c0,0.5-0.1,1-0.1,1.5C292,483.2,291.5,482.6,291,482.1z" />
	<path display="inline" fill="#2D2729" d="M341.8,148.4c1.2,0.4,0.7,1.3,0.6,2.1C341.5,150.1,341.9,149.2,341.8,148.4z" />
	<path display="inline" fill="#99A5A5" d="M374.5,508c0,0.3-0.1,0.7-0.1,1C373.5,508.5,373.5,506.9,374.5,508z" />
	<path display="inline" fill="#667C80" d="M404.1,39c-0.6,0-1.2,0.2-1.4-0.6C403.2,38.4,403.9,38.2,404.1,39z" />
	<path display="inline" fill="#110F20" d="M354.1,242.5c0-0.2,0-0.5,0-0.7c0.6,0,1.2-0.1,1.5,0.6   C355.1,242.5,354.6,242.5,354.1,242.5L354.1,242.5z" />
	<path display="inline" fill="#D5D2DC" d="M376.6,208.5c-0.7-0.2-0.8-0.7-0.8-1.3C376.1,207.6,376.4,208,376.6,208.5z" />
	<path display="inline" fill="#16100E" d="M365,46.3c-0.2,0-0.4,0-0.7,0.1c0-0.4,0.1-0.8,0.1-1.2c0.1,0,0.2,0,0.3,0   C364.9,45.5,364.9,45.9,365,46.3z" />
	<path display="inline" fill="#0D0913" d="M375.9,249c-0.5-0.2-1-0.4-1.6-0.6C374.9,248.3,375.6,248.2,375.9,249z" />
	<path display="inline" fill="#54433A" d="M299.8,466.9c-0.2,0.3-0.4,0.5-0.6,0.8C299.4,467.5,299.6,467.2,299.8,466.9z" />
	<path display="inline" fill="#2D2729" d="M341.1,147.7c0.2,0.2,0.5,0.5,0.7,0.7C341.5,148.2,341.3,148,341.1,147.7z" />
	<path display="inline" fill="#2D2729" d="M340.5,146.8c0.2,0.3,0.4,0.6,0.6,0.9C340.9,147.4,340.7,147.1,340.5,146.8z" />
	<path display="inline" fill="#2D2729" d="M340.3,145.4c0,0.3-0.1,0.5-0.1,0.8c-0.2-0.2-0.4-0.5-0.6-0.7   C339.9,145.5,340.1,145.5,340.3,145.4C340.4,145.5,340.3,145.4,340.3,145.4z" />
	<path display="inline" fill="#A39893" d="M502.5,458.8c4.6-11.6,8.7-33.1,22-36.8c25.8-0.1,51.6,0,77.4-0.1   c6.6,0.8,16.3-2.4,20.6,4c4.8,11.6,12.1,23.5,14.9,35.3c-2.4,0.3-4.6-1.5-7-0.4c-0.4-0.4-0.9-0.7-1.3-1   c-40.9,0.6-82.1-1.6-122.9,0.7C504.5,461.5,503.3,461.1,502.5,458.8z" />
	<path display="inline" fill="#8F8580" d="M471.5,381.5c0.7,0.6,0.7,1.4,0.7,2.2c-1.4,0.9-0.6,6.6,0,8c-1.2,1.1-0.5,2.8,0.8,3.6   c1.5,2.7,1.1,6.2,3.6,8.7c-2.1,2.4,2.7,12.9,3.8,16.3c0.2-0.1,0.4-0.2,0.5-0.3c1.6,3.5,2.5,7.9,4.3,11.6c-0.8,0.9,0.5,2.9,1.5,3.7   l0,0c0,1.4,0.1,2.8,1.5,3.7l0,0c0.2,2.8,1.1,5.8,3.6,7.3l0,0c0,0.8-0.2,1.7,0.7,2.2c0.8,3.9,3.1,7.1,4.4,10.8c-1,1-0.3,1.7,0.3,2.6   c0.5-0.2,0.8-0.3,1.1-0.4c-0.5,4.7-2,14.8,4.9,14.6c45.2,0,90.4-0.3,135.6,0c-0.1,1.8,0.4,3.5-0.6,5c-3.7,0-7.4,0-10.9,0   c-0.7,0.6-1.1,1-1.5,1.4c-0.1-3.5-5.4-2.7-7.8-3c-36.1,0.1-72.3,0.1-108.4,0.2c-3.5,0-7.2,0.8-9.4,3.7c2.3,16.1,0.3,33.2,1.1,48.5   c-0.4,0-0.7,0.1-1.1,0.1c-2.5,10.1-3.5,20.5-6,30.5c-0.1,0.6-0.4,1.4,0.6,1.7c0.3,0.3,0.5,0.6,0.8,0.9c-0.2,0.6-0.4,1.1-0.6,1.7   c-0.2-0.2-0.4-0.4-0.5-0.6c-0.6,0.9-1.2,1.7-1.8,2.5c-0.2,0-0.4-0.1-0.7-0.1c0,0.5-0.1,1.1-0.1,1.6l0,0c-2,2.8-3.1,6-3.6,9.5l0,0   c-0.8,0.2-0.7,0.9-0.8,1.5c-0.2,0.3-0.4,0.5-0.7,0.8c0,0.7-0.1,1.4-0.1,2.1c0,0,0,0,0,0c-1.2,0.8-2,2.5-0.8,3.5   c-0.5,3.5-0.9,9-4.9,10.2c-5.6-2.6,0.4-10.7,0.9-15c6.7-17.9,7.1-38,10.9-56.8c3.6-29.8-9.3-57.5-18.1-85.2   c-8.7-30.8-17.1-62-20-93.9c0.3-0.3,0.6-0.6,0.8-0.9c1.3,2.6,3.7,4.2,6.5,2.9c0.4,0.4,0.8,0.8,1.4,1.3c0.9,10.7,3.5,21.6,6.5,32   c0.1-3.1-0.3-5.2-0.6-8.1c1.5,1.9,1.3,5,2.1,7.3c-0.8,0.5-0.7,1.1-0.2,2C471.3,382.2,471.4,381.8,471.5,381.5z" />
	<path display="inline" fill="#8E8580" d="M635.2,461.1c0.8,0,1.5,0,2.3,0c0,0.7,0,1.4,0,2.2c2.6,2.9,3.1,7.5,0.1,10.7   c-45.4-0.3-91-0.6-136.4-0.6c-1.5-4-1.6-5.3-1-11c0.6-0.4,1.4-1,2.3-1.6c-0.4-0.3-0.7-0.6-1.2-0.9c0.4-0.4,0.9-0.8,1.3-1.2   c0.9,2.3,1.9,2.7,3.8,1.7c0.3,0.4,0.7,0.9,0.7,1c40.7-1.2,81.7,0.4,122.2-0.6c0-0.3,0-0.7,0-1c0.4,0.3,0.8,0.7,1.3,1   c0.3-0.1,0.8-0.2,1.2-0.3c0,0.4,0,0.8,0,1.1C632.8,462,634.4,462.7,635.2,461.1z" />
	<path display="inline" fill="#A39893" d="M625.7,482.1c0.4-0.4,0.8-0.8,1.5-1.4c3.5,0,7.2,0,10.9,0c-9.1,30.8-2.4,62.5,4.2,93.1   c0.1,7.4,10.4,19.2,2.8,24.4c-5.4-3.8-5.5-11.6-8.4-17.2c0.2-0.1,0.6-0.4,1-0.7c-0.8-1.9-1.2-3.9-2.6-5.5l0.1,0.1   c-0.5-1.4,0.8-3.5-0.8-4.3l0,0c-0.5-1.6-0.2-3.9-1.4-5.1c-2.9-13-6.4-26-7.3-39c-3-2.3,0.2-5.5-2.9-7.9c3-5.2,0.7-11.7,1.6-17.4   C625.8,495.2,624.8,488.2,625.7,482.1L625.7,482.1z" />
	<path display="inline" fill="#8F8580" d="M483,333.7c0.3-2.9-0.7-5,1.4-7.6c-0.2,7.7,1.1,14.6,2.2,22.1c-0.2,0-0.4,0-0.6,0   c-0.6-1.1-1.3-2.2-2.1-3.6c0.3,2.7,0.2,4.1,1.9,4.9c-1.4,2.1-0.3,4,0.8,5.9c-1.2,1.6-1,2.3,0.7,2.8c1.1,8.8,3.4,18,7.3,26.1   c-0.5,1.1,1.1,3.2,1.4,4.7c0.3-0.1,0.5-0.2,0.8-0.3c2.1,4.7,1.6,11.8,5,15.9c1.1,0.7,0.8,2.1,1.4,3c-2.1,3.1,3.7,6.9,3.1,10.7   c0,1.1,1,1.6,2.1,1.5l0,0c-0.1,1.3,0,2.4,1.5,2.9c1.1,1.8,1.9,3.8,3.7,5.1c-3.2,5.8-6.3,12.1-9.3,18.2   c-3.5-25.7-37.2-98.6-23.3-115.9c0.4,0.5,0.9,1,1.3,1.5c0.4,3.7-0.5,8.7,2.2,11.4C484.6,339.7,483.5,336.9,483,333.7z" />
	<path display="inline" fill="#A39893" d="M465,305.4c2,0.1,3.8,2.4,5.1,3.2c1.9,0,3.3,0,5.1,0c0.2-0.2,0.5-0.6,1-1.2   c2.1,0,3.8,0.1,4.4-2.5c0.9-0.3,2-0.7,3.2-1.2c-0.7-4.1,3.3-7.7,0.9-11.4c1-0.9,1-0.9,2.5-1.2c13.1,21.5-8.9,37.5-20.7,53.4   c-3.7-2.7,0.4-13.9-4.1-18.6c0.4-0.6,0.7-1.1,1.1-1.7c-0.2-3.4,0.9-7.3-2.3-9.4c-0.2,0-0.3,0.1-0.5,0.1c0.3-3.1-0.7-2.7-3.2-3.6   C460.1,309.3,462.5,307.4,465,305.4z" />
	<path display="inline" fill="#020101" d="M501.8,481.3c37.1-5.8,77.8-0.4,116-2.3c2.6,0.3,7.7-0.5,7.9,3l0,0   c-1.4-0.1-2.7-0.2-4.2-0.3c-1.7,12.3-0.6,24.3-0.9,36.6l0,0c-34,0.5-67.9,0-101.9,0.2c-5.2,0.6-16-2.9-14.7,5.6   c-2.6-1.9-1-5.1,0.7-6.9c0.6-11.7,0.8-23,0-34.5C503.7,481.8,502.3,482.6,501.8,481.3z M613.3,480.8c-0.6,0-1.2,0-1.8,0.2   c0.2,0.1,0.3,0.3,0.5,0.4c-0.2,5.3-2.5,39.8,6.4,35.3c-0.2-12,0.3-24,0.6-35.9C617.1,480.9,615.3,480.9,613.3,480.8z M511.2,486.3   c-0.3,0.4-0.7,0.9-1.2,1.6c-0.5-2.8-0.7-4.5-0.6-7.2c-1,0.5-2,0.9-3.1,1.4c2.7,11.4,0.9,23.1,1,34.9c2-0.2,4.1,0.7,5.9-0.4   c2.6-11.7,3.1-24,1.3-35.7c-1.2,0-2.5-0.5-3.9,0.4C510.8,483,511,484.7,511.2,486.3z M516.3,516.9c31.9-0.1,63.7,0.2,95.5-0.1   c-1.2-12.1-3.4-23.5-1.6-35.7c-30.9,0.4-61.6-0.8-92.6-0.2C519.8,493.2,518.6,504.6,516.3,516.9z" />
	<path display="inline" fill="#8F8580" d="M504.1,524.1c0-0.7,0-1.5,0-2.2c0.7-0.5,1.4-0.9,2.2-1.4c38.1,1.1,77.5-2.1,115,1.2   c0.1-0.6,0.2-1,0.2-1.3c1,2.1,1.5,3.6-0.4,5.3C582.4,524.2,541.9,528.4,504.1,524.1z" />
	<path display="inline" fill="#8E847F" d="M463.5,319.9c0,1.4,0,2.9,0,4.4c-0.3,0.5-0.7,1.1-1.1,1.7c0.4,0.5,0.7,0.9,1,1.4   c-1.6,4.4-0.9,10.2,0.5,14.8c0.4-0.2,0.7-0.4,1.1-0.6c0,1.3,0.1,2.5,1.5,3c-0.5,1-1.2,0.4-1.8,0.1c-2.2,2.5-3.9,2.5-7.4,0.4   c0.3-6.3-10.3-36.6,2.7-31.6c-0.3-0.5-0.6-1-0.9-1.5c3,0,1.1,6.3,3.1,8.5C462.7,320.3,463.1,320.1,463.5,319.9z" />
	<path display="inline" fill="#A19691" d="M503.3,407.6c-0.7-0.9-0.3-2.3-1.4-3c-0.5-2.1,0-4.5-2.1-5.7c-3.4-14-11.5-26.1-12.4-40.6   c-0.3-3.9-3.4-5.8-1.3-10.1c0.2,0,0.4,0,0.6,0c6.8,26.8,15.4,53.4,28.2,78c-0.4,0.5-0.8,1.1-1.3,1.6c-1.7-1.3-2.6-3.3-3.7-5.1   c0.1-1.3,0-2.4-1.5-2.9l0,0C507,415.7,505.1,411.7,503.3,407.6z" />
	<path display="inline" fill="#A09590" d="M485.3,431.4c-5-11.8-7.6-24.4-12.3-36.2c0.4-1.8-0.8-3.3-1.3-4.9   c0.6-2.1-1.2-5.1,0.6-6.7c7.6,25.4,14,50.7,28.2,73.5c-0.6,1.6-0.8,4-3.3,4.4c-0.6-0.9-1.3-1.7-0.3-2.6l0,0c0.3,0.2,0.7,0.4,1,0.5   c-0.4-4.2-3.5-9.8-6.1-13.6l0,0c-0.8-2.6-1.9-5.1-3.6-7.3l0,0c0.1-1.5-0.3-2.7-1.5-3.7l0,0C486.8,433.7,486.5,432.4,485.3,431.4z" />
	<path display="inline" fill="#867D78" d="M634.4,570.5c1.2,0.4,0.7,1.4,0.7,2.3c-0.9,0.7-0.6,1.4,0.1,2.1l-0.1-0.1   c0.2,1.4,0.5,2.7,0.7,4.1c-0.1,0-0.2,0.1-0.4,0.1c-7.3-16.4-9.7-34.8-14.1-52.1c1.3-0.9,2-1.6,2.8-2.9c-0.1,1.2,1,1.4,1.5,2.4   c-2.5,0.8-0.7,3.9-0.7,5.7c1.1,3.2,0.4,8.2,2.7,10.5c0.1-0.4,0.2-0.7,0.3-1.1c1.3,2.7,0.7,6.4,1.3,9.5c-1.9,3.4,1.9,9.1,2.3,13   C633.7,565.6,634.1,567.9,634.4,570.5c-0.6,0.3-0.7,0.6-0.2,1.1C634.3,571.2,634.3,570.8,634.4,570.5z" />
	<path display="inline" fill="#9C918D" d="M501.1,531.4c-0.2-0.8-0.9-1.5-0.2-2.5c0.5-1.5,0-3.7,1.6-4.7c0.5,0.7,1,1.3,1.6,2.2   c-0.9,7.5-2.8,15-5.2,22.3c-0.2-0.3-0.5-0.5-0.7-0.8C498.6,542.3,500.3,537,501.1,531.4z" />
	<path display="inline" fill="#978D88" d="M506.5,527.7c1.4-0.5,2.6-0.7,4,0.2c-1.4,3.8-2.1,7.8-4.4,11.4c-0.7-0.6-1.3-1.1-2-1.6   C504.3,534.1,505.7,531,506.5,527.7z" />
	<path display="inline" fill="#9B908C" d="M621.4,536c-0.7,0.5-1.2,0.8-1.9,1c-2.7-2-2.9-6-4-9.3c1.2-0.1,2.2-0.2,3.1-0.3   C620.6,529.7,620.6,533.2,621.4,536z" />
	<path display="inline" fill="#968D88" d="M492.5,568.3c0.6-0.8,1.1-1.6,1.8-2.5c0.1,0.2,0.3,0.4,0.5,0.6c-1.5,5.4-3.3,10.7-6,15.7   c-1.2-0.5-0.6-1.9-0.7-2.9l0,0c2.2-2.8,3.1-6.1,3.6-9.5l0,0C492,569.3,492.3,568.8,492.5,568.3z" />
	<path display="inline" fill="#4A4543" d="M502.6,524.2c-0.9,0.7-1.3,1.6-1.4,2.7c-0.9-0.4-0.8-1.2-0.7-1.8c1.4-9,1.4-17.8,1.5-27.2   C503.9,506.6,501.1,515.8,502.6,524.2z" />
	<path display="inline" fill="#1F1D1C" d="M465.8,364.8c-0.2-5.2-2.8-10.2-2.3-15.3c-0.6-0.5-1-0.9-1.4-1.3c0.7-1.4,1.4-0.1,2.1,0   c0.6,5.4,2.7,10.4,2.3,15.9C466.3,364.3,466,364.5,465.8,364.8z" />
	<path display="inline" fill="#353230" d="M465.8,364.8c0.2-0.3,0.5-0.5,0.7-0.8c0.4,0.6,0.7,1.3,1.1,2.1c0.2-0.5,0.3-0.9,0.4-1.4   c0.8,0.6,0.6,1.5,0.5,2.3c-1.5,1.6-0.4,4.7,0.8,6.5l0-0.1c0.2,1.7,0.4,3.4,0.6,5.1c-0.2,0-0.5,0-0.7,0   C467.4,374.2,466.8,369.4,465.8,364.8z" />
	<path display="inline" fill="#69625F" d="M455.6,345.3c-0.3,0.3-0.6,0.6-0.8,0.9c-1.9-5.1-2.2-11.2-1.7-16.5   C453.9,335,454.7,340.2,455.6,345.3z" />
	<path display="inline" fill="#78726E" d="M466.4,358.3c-1.1-3.1-1.7-6.8-2.2-10.2c0.3-0.3,0.6-0.5,1.2-1c0.4,1,1.1,2,0.8,2.5   c-0.9,1.9,0.4,3.4,0.4,5.1c-0.1,0.8-0.3,1.7,0.5,2.3c0,0.5,0,0.9-0.1,1.4C466.8,358.3,466.6,358.3,466.4,358.3z" />
	<path display="inline" fill="#231F1E" d="M624.2,524c-0.4,0.6-0.8,1.1-1.3,1.7c-0.1-0.6,0-1.2-0.7-1.5c0.9-1.8-1.1-3.9-1.5-5.9l0,0   c0.7,0,1.4,0,2.2,0.1C624.6,519.9,624.7,521.9,624.2,524z" />
	<path display="inline" fill="#8F8580" d="M498.2,547.9c0.2,0.3,0.5,0.5,0.7,0.8c-0.8,3.9-1.4,7.9-2.8,11.6c-0.2,0-0.4,0-0.6,0   C496.4,556.2,496.8,552,498.2,547.9z" />
	<path display="inline" fill="#413F3D" d="M483,333.7c0.5,3.2,1.6,6,1.5,9.3c-2.2-2.1-2.1-6.3-2.1-9.3   C482.6,333.7,482.8,333.7,483,333.7z" />
	<path display="inline" fill="#7A706C" d="M488.1,580.5c0.1,0.6,0,1.3,0.8,1.5c-0.9,2-1.8,4-2.8,6c-0.3-1.5,0.4-3,0.6-4.6l0,0   c1-1,1-1,0.1-2.1c0.2-0.3,0.4-0.5,0.7-0.8C487.6,580.6,487.9,580.6,488.1,580.5z" />
	<path display="inline" fill="#847B77" d="M466.4,358.3c0.2,0,0.4,0,0.6,0c0.2,2.6,1.5,5.2,0.6,7.8   C465.9,363.8,466.6,361.1,466.4,358.3z" />
	<path display="inline" fill="#7D655A" d="M481,288.7c-0.7-2.1-1.9-4.1-2.4-6.2c1.3,0.1,1.4,1.5,2.2,2c0.3,1.2,0.6,2.4,0.8,3.6   C481.5,288.3,481.2,288.5,481,288.7z" />
	<path display="inline" fill="#8F8580" d="M469.4,373.6c-1.2-1.7-2.3-4.9-0.8-6.5C468.8,369.3,469.1,371.4,469.4,373.6z" />
	<path display="inline" fill="#968D88" d="M495.5,560.3c0.2,0,0.4,0,0.6,0c0.2,1.5,0,3-0.7,4.3c-0.3-0.3-0.5-0.6-0.8-0.9   C494.9,562.6,495.2,561.5,495.5,560.3z" />
	<path display="inline" fill="#3E322C" d="M481,288.7c0.2-0.2,0.5-0.4,0.7-0.6c1.1,1,1.4,2.3,1.4,3.7   C482.4,290.7,481.7,289.7,481,288.7z" />
	<path display="inline" fill="#413F3D" d="M482.3,331.6c-0.4-0.5-0.9-1-1.3-1.5C482,328.6,482.6,330.6,482.3,331.6z" />
	<path display="inline" fill="#3E322C" d="M483.9,292.4c0,0.6-0.1,1.1-0.1,2.5c-0.8-1.5-0.6-2.4-0.6-3.2   C483.3,292,483.6,292.2,483.9,292.4z" />
	<path display="inline" fill="#A09590" d="M471.5,381.5c-0.1,0.4-0.2,0.8-0.3,1.4c-0.5-1-0.6-1.6,0.2-2   C471.5,381,471.6,381.2,471.5,381.5z" />
	<path display="inline" fill="#1F1D1C" d="M467.1,357c-0.8-0.6-0.6-1.4-0.5-2.3C467.4,355.3,467.1,356.2,467.1,357z" />
	<path display="inline" fill="#85695D" d="M413.6,66.6c0-1.6-1.1-2.3-2.3-3c0.5-0.4,1.1-0.8,1.5-1.1c1.6,0.1,2.2,1,2.6,2.2   C415.1,65.6,414.5,66.3,413.6,66.6z" />
	<path display="inline" fill="#2A1916" d="M409.9,53.5c-0.7-0.2-1.3-0.5-2-0.8c-0.4-1.5-0.9-2.9,0.7-4.2c1.3,1.1-0.6,2.1,0.4,3.3   c0.4,0.1,1,0.2,1.7,0.4C410.4,52.6,410.2,53,409.9,53.5z" />
	<path display="inline" fill="#26203E" d="M375.9,320.7c0-7-2.1-13.6-0.7-20.4c1.4,11.9,2.4,23.5,4.3,35.7   C376.2,331.5,378.1,325.6,375.9,320.7z" />
	<path display="inline" fill="#1B172A" d="M375.2,300.3c-0.1,1.5,0.2,3.1-0.7,4.4c-0.4-12.2,0.7-23.9-0.7-36.2   C378.6,273.2,373.7,292.3,375.2,300.3z" />
	<path display="inline" fill="#554590" d="M378.7,328c-1.4-5.1-2.1-10.6-2.1-16c1.9,3.7,2.3,8.2,3.6,12   C378.9,325.8,378.9,325.8,378.7,328z" />
	<path display="inline" fill="#211C32" d="M379.4,350.3c-0.5,2.7,0.2,6.8-2,8.6c0.3-4.9,0.3-9.8,1.3-14.5   C378.9,346.4,378.2,348.7,379.4,350.3z" />
	<path display="inline" fill="#16111E" d="M403.1,320.5c1.8-2.3,3.4-4.7,6.4-5.6C410.6,316.6,404.9,320.3,403.1,320.5z" />
	<path display="inline" fill="#1F172A" d="M396.6,346.5c2.5-2.9,5.4-5.7,9.4-5.5C402.7,343.4,399.7,345,396.6,346.5z" />
	<path display="inline" fill="#191526" d="M410.9,338.9c2.1,1.5,3.3,3.5,4.2,6.1C412.3,343.4,410.7,341.2,410.9,338.9z" />
	<path display="inline" fill="#191423" d="M412.9,261.3c1.6,2.3,1.6,2.7,0,4.2C412.9,264.2,412.9,263,412.9,261.3z" />
	<path display="inline" fill="#0E0B14" d="M379.4,350.3c-1.2-1.7-0.5-3.9-0.7-5.9c0.2-0.1,0.3-0.2,0.5-0.3   C380,346,379.2,348.3,379.4,350.3z" />
	<path display="inline" fill="#4D4075" d="M399.7,359.1c0.3-1.1,0.3-1.1,1.6-1.2C400.6,358.4,400.1,358.7,399.7,359.1z" />
	<path display="inline" fill="#141111" d="M401.3,157c6.1-4.4,11.2-1.7,12.5-11.8c3.9,6.8-5.5,14.5-12,12.6   C401.7,157.5,401.5,157.3,401.3,157L401.3,157z" />
	<path display="inline" fill="#262223" d="M410.2,165.5c-2.8,3.1-4.7,6.5-8.1,8.4C401.5,173.3,406.7,164.4,410.2,165.5z" />
	<path display="inline" fill="#322F31" d="M371,113.4c-2.4-1.7-3.5-3.3-4.3-5.3C369.3,107.5,370.2,110.5,371,113.4z" />
	<path display="inline" fill="#30292A" d="M397.7,157c-0.7-0.6-1.5-1.2-2.1-1.7c0.3-2.4,5.2-0.2,4.2,1.7   C399.1,157.1,398.4,157.1,397.7,157z" />
	<path display="inline" fill="#0B090A" d="M413.4,141.4c-1.2-1.1-1.5-2.1-0.8-3.3C414.1,139,414.1,139,413.4,141.4z" />
	<path display="inline" fill="#3A3334" d="M362.4,104.3c1.3,0.3,2,1.1,2.1,2.4C363.1,107.9,361.7,106,362.4,104.3z" />
	<path display="inline" fill="#181A1A" d="M383.7,127.4c0,1,0,1.9,0,3C382.1,129,382.1,128.4,383.7,127.4z" />
	<path display="inline" fill="#987C81" d="M410.6,133.3c0.1,0.1,0.3,0.2,0.4,0.4c-0.3,0.1-0.6,0.4-0.9,0   C410.3,133.5,410.5,133.4,410.6,133.3z" />
	<path display="inline" fill="#7C7A7E" d="M383.8,125.3c-0.1,0.1-0.3,0.2-0.4,0.3c-0.2-0.4-0.3-0.7,0.2-0.9   C383.6,125,383.7,125.1,383.8,125.3z" />
	<path display="inline" fill="#D4D1DB" d="M401.3,157c0.2,0.3,0.4,0.6,0.6,0.8C401.7,157.5,401.5,157.3,401.3,157z" />
	<path display="inline" fill="#987365" d="M392.4,396.1c5.6,1.1,0.2,9.2-4,9.5c-0.9-3.6,1-5.8,2.5-8.1   C392.4,397.3,392.4,397.3,392.4,396.1z" />
	<path display="inline" fill="#1A1311" d="M379.7,410.8c2.6,2.4-0.5,6-3.1,7.2C376.4,415.6,376.4,415.6,379.7,410.8z" />
	<path display="inline" fill="#201715" d="M362,405.8c-1.6,4.3-3,6-5.4,6.6c-0.5-1,0.3-1.6,0.8-2.2C358.8,409,359.6,405,362,405.8z" />
	<path display="inline" fill="#1F1614" d="M350.3,420.4c-1.2,2.2-1.2,2.2-3.3,2.1C346.6,420.9,349.2,419.1,350.3,420.4z" />
	<path display="inline" fill="#3C2D29" d="M394.7,393.6c0.6-1.7,0.9-3,2.7-3.4C396.8,393.2,396.8,393.2,394.7,393.6z" />
	<path display="inline" fill="#31231F" d="M352.1,417.7c1.1-2.1,1.1-2.1,2.4-2.6C354.8,417.1,354.6,417.2,352.1,417.7z" />
	<path display="inline" fill="#2F231F" d="M383.9,406.6c-0.4,0.8-0.7,1.5-1.2,2.4c-0.6-0.3-1-0.5-1.5-0.7   C382.4,406.3,382.4,406.3,383.9,406.6z" />
	<path display="inline" fill="#57423B" d="M343.2,427.7c-0.5,1.1-1.1,1.1-1.8,0.5C340.9,427.2,342.5,426.6,343.2,427.7z" />
	<path display="inline" fill="#5F423A" d="M392.4,396.1c-0.1,1.3-0.1,1.3-1.4,1.4C391,396.5,391.4,395.9,392.4,396.1z" />
	<path display="inline" fill="#5A3F38" d="M385.4,404.1c-0.5,0.2-0.7,0.4-1,0.5C383.6,403.5,384.5,403,385.4,404.1z" />
	<path display="inline" fill="#211B18" d="M338.2,429.9c0.7,1.4,0.8,1.5-0.3,2.2C337,431.6,337.8,431.3,338.2,429.9z" />
	<path display="inline" fill="#0D0913" d="M366.7,329.2c-5.7-12.2-13.9-21.9-23.5-31.1c9.3,3.4,21.5,20.7,23.9,30.9   C367,329.1,366.8,329.1,366.7,329.2z" />
	<path display="inline" fill="#221B39" d="M343.6,284.6c3.9,8.8,11.6,14.4,17.4,21.9C358,306.1,341.4,288.2,343.6,284.6z" />
	<path display="inline" fill="#171227" d="M345.8,318.6c2.5,6.6,7.7,13.2,8,20.5C350.9,332.6,345.8,325.8,345.8,318.6z" />
	<path display="inline" fill="#2C1936" d="M377.8,255.2c-1.1,0.4-2.1,0.6-3.1-0.1C375.7,254.6,376.7,254.7,377.8,255.2z" />
	<path display="inline" fill="#967062" d="M390.2,207.1c3.8,1.5,8.6,3.8,10.3,7.8C395.5,215.7,391.8,211.8,390.2,207.1z" />
	<path display="inline" fill="#0E0A09" d="M390.2,207.1c1.4,3.9,4,7.3,8.1,7.9c0.2,0.5,0.5,1,0.7,1.5c-1,0.7-2.1-0.2-2.9-0.7   c-3.4,0.7-10-6.9-7.2-9.5C389.4,206.6,389.8,206.8,390.2,207.1z" />
	<path display="inline" fill="#261C19" d="M472.9,297.5c-1,1-0.7,2.4-0.8,3.7c-0.3-5.7-5.3-9.4-6.9-14.4   C468.5,289.2,472,293.6,472.9,297.5z" />
	<path display="inline" fill="#1B1412" d="M392.5,217.2c0.1-0.4,0.2-0.8,0.3-1.4c0.7,0.6,1.3,1,1.9,1.5c0.9,2.3,2.1,4.4,2.4,7.5   C393.8,223.2,393.9,220,392.5,217.2z" />
	<path display="inline" fill="#453630" d="M465.6,284.6c-2.3-0.9-3.4-2.5-4.9-4.2C462.7,280.4,465.6,282.3,465.6,284.6z" />
	<path display="inline" fill="#402E29" d="M399.1,216.5c-0.2-0.5-0.5-1-0.7-1.5c0.7,0,1.5,0,2.2,0c1.2,1,1.9,1.5,3.6,1.8   c-0.8,0.4-1.3,0.7-2,1.1C401.2,217.4,400.1,216.9,399.1,216.5z" />
	<path display="inline" fill="#927367" d="M473.7,291c-1-1.4-1.9-2.9-2.9-4.3c0.3-0.3,0.6-0.6,0.8-0.9c1.5,1.1,2,2.9,2.8,4.5   C474.2,290.5,473.9,290.7,473.7,291z" />
	<path display="inline" fill="#3F2E29" d="M457.1,281.5c1.6,0.1,2.4,1.1,2.8,2.6c-1.8,0.1-1.9,0-2.9-2.5L457.1,281.5z" />
	<path display="inline" fill="#4F3B34" d="M404,233.2c-1.5-1.1-2.5-1.9-2.8-3.6C403.3,229.8,403.7,231,404,233.2z" />
	<path display="inline" fill="#2C211E" d="M398.8,226.6c1.7,1,1.7,1,1.4,2.8C398.4,228.3,398.4,228.3,398.8,226.6z" />
	<path display="inline" fill="#503C35" d="M389.6,220.7c-0.4-1-1.6-1.6-1.5-2.9C389.6,217.7,391.5,219.9,389.6,220.7z" />
	<path display="inline" fill="#231412" d="M394.2,195.1c1.5-0.3,1.5-0.3,2.4,1.5C395.5,197.8,394.8,195.9,394.2,195.1z" />
	<path display="inline" fill="#785D53" d="M468,302.5c0.8,1,0.7,2.2,1.4,3.6c-1.3-0.6-2-1.1-2.2-2.1   C467.5,303.5,467.7,303,468,302.5z" />
	<path display="inline" fill="#4C3832" d="M407.7,236c-1.5-0.1-2-0.6-2-1.7C406.8,234.3,406.8,234.3,407.7,236z" />
	<path display="inline" fill="#33211D" d="M430.4,259.8c-0.1,0.4-0.1,0.8-0.2,1.3c-1.5-1-1.5-1-0.7-2.1   C429.8,259.3,430.1,259.6,430.4,259.8z" />
	<path display="inline" fill="#59423B" d="M470.7,286.7c-0.3,0.2-0.5,0.5-0.8,0.7c-0.7-0.5-1-1.2-0.9-2.1   C470.2,285.2,470.4,285.9,470.7,286.7z" />
	<path display="inline" fill="#6E5048" d="M392.1,194.4c0.3-0.4,0.5-0.3,0.8,0C392.7,194.8,392.5,194.5,392.1,194.4z" />
	<path display="inline" fill="#3F2E29" d="M456.9,281.7c-0.1-0.1-0.3-0.2-0.4-0.4c0.2,0.1,0.4,0.2,0.6,0.2   C457.1,281.5,456.9,281.7,456.9,281.7z" />
	<path display="inline" fill="#2D2729" d="M340.4,145.5c0-0.9,0.1-1.8,0.1-3.1c2.1,1.2,2.4,3.3,3.5,4.7   C342.7,148.7,341.4,146,340.4,145.5C340.3,145.4,340.4,145.5,340.4,145.5z" />
	<path display="inline" fill="#403B3E" d="M337.5,144c-1.6,0.3-2.6-2-1.9-3.7C337.5,141.1,337.7,142.5,337.5,144   C337.5,144.1,337.5,144,337.5,144z" />
	<path display="inline" fill="#969198" d="M344.5,145.3c1.7,1.2,2.6,2,3.2,3.4C345.7,147.8,345.7,147.8,344.5,145.3z" />
	<path display="inline" fill="#1B1412" d="M412.2,376.2c1.7,4.6-1.6,8-4.8,11.3C408.1,383.2,410.1,380.4,412.2,376.2z" />
	<path display="inline" fill="#0A0807" d="M392.8,434.9c-0.5-0.9-0.9-1.2-0.8-1.4c0.7-3.2-0.6-5.6,0.1-8.8   C395.3,427.1,394.4,431.2,392.8,434.9z" />
	<path display="inline" fill="#130E0D" d="M375.9,504.1c-0.1-2.6-0.5-4.9,1.4-7.1C378.5,499.1,379,503.6,375.9,504.1z" />
	<path display="inline" fill="#231B18" d="M405.2,415.4c-0.8-1.6-0.3-3.1-0.2-5C406.8,411,407.1,415.6,405.2,415.4z" />
	<path display="inline" fill="#191311" d="M391.6,439.3c0.3,2.7,0.3,2.7-1.1,4.4C389.9,442,390.1,440.7,391.6,439.3z" />
	<path display="inline" fill="#493732" d="M382,479.9c-0.8,1.5-1.2,2.2-1.7,3C378.5,481.9,379.6,480.3,382,479.9z" />
	<path display="inline" fill="#40352F" d="M389.2,448.5c-0.5-1-0.6-2,0-3C390.7,447.1,390.7,447.2,389.2,448.5z" />
	<path display="inline" fill="#14100E" d="M377.6,492.8c-0.6-1.2-0.4-1.9,0.4-2.8C379.5,490.4,379,492.3,377.6,492.8z" />
	<path display="inline" fill="#0B0807" d="M363.6,387.3c3.9-3.7,2.2-8.5,4.1-13.2c2.1,2.6,0.5,6.3,1,9.5c0,2.5-2.6,3.2-4.3,4.4   C364.1,387.7,363.8,387.5,363.6,387.3z" />
	<path display="inline" fill="#060302" d="M367.7,370.1c1.2,1.4,1.2,1.4-0.1,3C367.1,371.5,367.1,371.5,367.7,370.1z" />
	<path display="inline" fill="#1A1310" d="M294.1,477.9c0.3-1.8,0.9-2.6,2.2-3.1C296,476.9,296,476.9,294.1,477.9z" />
	<path display="inline" fill="#83685D" d="M475.2,285.1c1.3,4.1,4.8,8.1,4.7,12.3c-2.5-3.4-4-7.1-5.5-10.8   C475.2,286.5,475,285.7,475.2,285.1z" />
	<path display="inline" fill="#8F7165" d="M478.1,283.1c-0.2,3.9,3.4,6.9,3.6,10.7c-0.2,0.2-0.4,0.5-0.6,0.7   c-1.5-3.4-2.9-6.7-4.4-10.1C477.1,284,477.6,283.5,478.1,283.1z" />
	<path display="inline" fill="#3F2F2A" d="M471.5,279.5c2,0.1,2.8,1.4,3.6,2.8C473.5,284.1,472.5,280.3,471.5,279.5L471.5,279.5z" />
	<path display="inline" fill="#523B35" d="M471.5,279.4c-0.8-0.4-1.4-0.7-1.5-1.7C471.2,278.1,471.2,278.1,471.5,279.4L471.5,279.4z   " />
	<path display="inline" fill="#201714" d="M385.7,82.5c-0.6-1.1-1.1-2.2-1.7-3.4C385.9,79.4,386.5,80.2,385.7,82.5z" />
	<path display="inline" fill="#41302A" d="M387.5,86.1c-1.5-0.5-1.5-0.5-1.1-2.1C387.8,84.2,387.5,85.3,387.5,86.1L387.5,86.1z" />
	<path display="inline" fill="#41302A" d="M387.5,86.1c0.7,0.4,1,0.9,0.6,1.7C387,87.5,387,87.5,387.5,86.1L387.5,86.1z" />
	<path display="inline" fill="#100B0A" d="M367.8,181.1c-1.3-1-2.8-1.8-2.9-3.8c2.1-0.1,2.9,1.1,4.4,3c0,0.2,0,0.5,0,0.7   C368.8,181,368.3,181,367.8,181.1z" />
	<path display="inline" fill="#31241F" d="M369.3,180.2c-0.2-0.3-0.4-0.5-0.7-0.8c0.4-0.4,0.8-0.8,1.4-1.3c1.4,0.7,2.6,1.5,3,3.5   C371.4,181.5,370.6,180.9,369.3,180.2z" />
	<path display="inline" fill="#31241F" d="M367.8,181.1c0.5,0,1-0.1,1.6-0.1C368.8,181.9,368.7,181.9,367.8,181.1z" />
	<path display="inline" fill="#7B7679" d="M385.3,235.3c-1.8-0.7-1.8-0.7-2.7-2.9C384.4,232.7,384.5,234,385.3,235.3   C385.3,235.3,385.3,235.3,385.3,235.3z" />
	<path display="inline" fill="#584E50" d="M386.6,238.2c-1.1-0.7-1.4-1.7-1.3-3c0,0,0,0,0,0c0.9,0.8,2.1,1.5,2.1,2.8   C387.1,238.2,386.8,238.2,386.6,238.2z" />
	<path display="inline" fill="#63696C" d="M386.6,238.2c0.3,0,0.5-0.1,0.8-0.1C387.2,239.1,386.9,238.7,386.6,238.2z" />
	<path display="inline" fill="#63696C" d="M387.3,237.4c-0.2-0.3-0.3-0.6-0.5-0.9C387,236.9,387.1,237.2,387.3,237.4z" />
	<path display="inline" d="M436.1,266.4c0.2,0.5,0.4,1.1,0.6,1.8c-0.9-0.1-1.5-0.2-2.2-0.3c0-0.5,0-1.1,0-2   C435.2,266.1,435.6,266.2,436.1,266.4z" />
	<path display="inline" d="M433.8,263.6c0,0.3-0.1,0.7-0.1,1C432.9,264.6,433.1,263.6,433.8,263.6L433.8,263.6z" />
	<path display="inline" fill="#6E554C" d="M481.1,294.5c0.2-0.2,0.4-0.5,0.6-0.7c1.3,2,1.9,4.1,0.8,6.4c-0.6,1.2,0.4,2.6-1.4,2.9   C481.8,300.1,482,297.3,481.1,294.5z" />
	<path display="inline" fill="#7F655A" d="M479.3,302.7c-1.3-2.9-1.3-3-1-4.8C479.4,299.2,479.8,300.6,479.3,302.7z" />
	<path display="inline" fill="#4A3B35" d="M473.7,291c0.2-0.2,0.5-0.5,0.7-0.7c0.9,0.5,0.7,1.4,0.7,2.2l0,0   C474.6,292,474.2,291.5,473.7,291z" />
	<path display="inline" fill="#4A3B35" d="M475.1,292.4c0.5,0.2,0.8,0.5,0.3,1.4C475.3,293.2,475.2,292.8,475.1,292.4L475.1,292.4z" />
	<path display="inline" fill="#6F6368" d="M394.1,152.7c-0.6,0.7-0.8,0.8-1.4,0.1C393.1,152,393.3,152.1,394.1,152.7z" />
	<path display="inline" fill="#583E41" d="M391.4,150.1c1,1.1-0.1,2-1,1.1C390.7,150.8,391.1,150.4,391.4,150.1z" />
	<path display="inline" fill="#9F7F71" d="M367,49.1c0.1-0.2,0.2-0.4,0.3-0.6c1.4-0.1,2.9,0,3.9,1.1c-0.2,0.4-0.3,0.7-0.5,1   c-0.7,0.5-1.4,0.9-2.1,1.4c-0.7-0.5-1.4-1-2.1-1.5C366.7,50.1,366.9,49.6,367,49.1z" />
	<path display="inline" fill="#221613" d="M370.8,50.7c0.1-0.3,0.3-0.6,0.5-1c-0.7-0.7-1.6-1-2.6-1.2c-0.5-1.4-1-2.8-1.6-4.2   c1.1-1.6,2.2-2.8,4.6-1.9c-0.4,0.5-0.6,0.9-0.9,1.2c-2.2-0.1-1.7,2.1-1.3,3.5c1.2,0.5,2.3,1,3.5,1.5l0-0.1c0.1,1.4,0.1,1.4,1.5,1.5   C373.4,51,372.1,50.6,370.8,50.7z" />
	<path display="inline" fill="#A98678" d="M370.1,43.6c0.2-0.1,0.5-0.1,0.7-0.1c0.5,1.8,1.5,3.3,2.2,5c-1.2-0.5-2.3-1-3.5-1.5   C369.3,45.8,368.4,44.3,370.1,43.6z" />
	<path display="inline" fill="#9B8274" d="M374.4,49.9c-1.4-0.1-1.4-0.1-1.5-1.5C373.8,48.6,374.2,49.2,374.4,49.9z" />
	<path display="inline" fill="#110F20" d="M354.2,242.5c0.1,1.4-0.3,2.5-1.4,3.4C350.5,245.2,353.3,243.3,354.2,242.5L354.2,242.5z" />
	<path display="inline" d="M400.5,255.6c0-0.9,0.1-1.9,0.1-2.8c0.3-0.1,0.6-0.3,1.2-0.5c0,1,0,1.9,0,3   C401.3,255.3,400.9,255.4,400.5,255.6z" />
	<path display="inline" fill="#1F0202" d="M629.3,459.8c0,0.4,0,0.7,0,1c-40.5,1-81.5-0.6-122.2,0.6c-0.1-0.1-0.4-0.5-0.7-1   C547.1,458.2,588.3,460.4,629.3,459.8z" />
	<path display="inline" fill="#220E0E" d="M635.2,461.1c-0.8,1.5-2.4,0.9-3.5,0.5c0-0.3,0-0.7,0-1.1   C632.9,460.2,634.1,460.5,635.2,461.1z" />
	<path display="inline" fill="#1C1B1A" d="M502,498c-0.5,5.2,0.8,11.2-0.7,15.9c-0.1-10.6,0.1-20.5-1.2-31c0.4-0.4,1.1-1,1.8-1.6   c0.5,1.3,1.9,0.5,2.9,1.4c0,0.6,0,1.5,0,2.4c-0.4-0.7-0.7-1.4-1.1-2.3c-0.8,0.1-1.5,0.3-2.3,0.4C501.9,488.2,502.2,493,502,498z" />
	<path display="inline" fill="#312E2C" d="M498.2,547.9c-1.9,2.2,0,7.5-2.8,8.1c1.5-8.1,2.7-16.4,4.6-24.5c0.4,0,0.8-0.1,1.1-0.1   C500.3,537,498.6,542.3,498.2,547.9z" />
	<path display="inline" fill="#272322" d="M493.1,447.4c1.5,3.4,3,6.7,4.5,10.1c-0.1,0.5,0,1.2-0.8,1.4l0,0c-1.3-3.7-3.6-7-4.4-10.8   C492.7,447.9,492.9,447.7,493.1,447.4z" />
	<path display="inline" fill="#746C68" d="M478.1,411.2c1.5,2.6,1.8,5.8,2.9,8.7c-0.2,0.1-0.4,0.2-0.5,0.3c-1.5-2.8-2.1-6-3.1-9   C477.6,411.2,477.8,411.2,478.1,411.2z" />
	<path display="inline" fill="#534B49" d="M491.8,569.7c-0.6,3.4-1.4,6.7-3.6,9.5C488.6,575.7,489.8,572.6,491.8,569.7z" />
	<path display="inline" fill="#4F4644" d="M488.1,438.7c1.7,2.2,2.8,4.6,3.6,7.3C489.2,444.5,488.4,441.5,488.1,438.7z" />
	<path display="inline" fill="#010000" d="M495.5,556c0.2,0,0.4,0,0.7,0c-0.3,2.6-0.8,5.2-1.5,7.8C492.8,562,495.4,558.4,495.5,556z   " />
	<path display="inline" fill="#423E3C" d="M478.1,411.2c-0.3,0-0.5,0-0.8,0c-0.1-2.2-2.8-5.6-0.7-7.2   C477.1,406.3,477.6,408.8,478.1,411.2z" />
	<path display="inline" fill="#625754" d="M485.3,431.4c1.2,0.9,1.5,2.2,1.5,3.7C485.8,434.3,484.4,432.3,485.3,431.4z" />
	<path display="inline" fill="#6D6461" d="M472.2,391.7c0.8,1.1,0.8,2.3,0.8,3.6C471.7,394.5,471,392.8,472.2,391.7z" />
	<path display="inline" fill="#3D3B39" d="M486.7,583.5c-0.3,1.2-0.5,2.3-0.8,3.5C484.7,586,485.5,584.2,486.7,583.5z" />
	<path display="inline" fill="#58504D" d="M486.7,435c1.2,0.9,1.6,2.2,1.5,3.7C486.8,437.8,486.7,436.5,486.7,435z" />
	<path display="inline" fill="#302B2A" d="M469.3,378.6c0.2,0,0.5,0,0.7,0c0,0.8,0,1.6,0,2.9C469.1,380.3,469.3,379.5,469.3,378.6z" />
	<path display="inline" fill="#4F4644" d="M493.1,447.4c-0.2,0.2-0.5,0.5-0.7,0.7c-0.9-0.5-0.7-1.4-0.7-2.2   C492.2,446.4,492.7,446.9,493.1,447.4z" />
	<path display="inline" fill="#534B49" d="M492.5,568.3c-0.3,0.5-0.5,1-0.8,1.5c0-0.5,0.1-1.1,0.1-1.6   C492.1,568.2,492.3,568.3,492.5,568.3z" />
	<path display="inline" fill="#413937" d="M486.8,581.4c0.9,1.1,0.9,1.1-0.1,2.1C486.7,582.8,486.7,582.1,486.8,581.4z" />
	<path display="inline" fill="#534B49" d="M488.1,580.5c-0.2,0-0.4,0.1-0.7,0.1c0-0.6-0.1-1.3,0.8-1.5   C488.1,579.6,488.1,580.1,488.1,580.5z" />
	<path display="inline" fill="#8C827E" d="M622.8,518.4c-0.7,0-1.4,0-2.2-0.1c0.3-12.3-0.8-24.3,0.9-36.6c1.4,0.1,2.8,0.2,4.2,0.3   c-0.1,1.7,0.5,3.7-0.6,5.1c-0.1-1.3-0.1-2.6-0.2-3.9c-1,1.8-2.1,3.6,0,5.3c-0.5,4,1,8.8-0.6,12.4c-0.1-3.2-0.1-6.5-0.2-9.7   c-2.9,3.9-1,9.7-1.3,14.4c1.1-1,0-2.6,1.3-3.3C623.8,507.7,625.7,513.6,622.8,518.4z M622.2,512.5c1.7-2,1.6-3.7,1-5.9   C621.4,508.4,622.4,510.3,622.2,512.5z" />
	<path display="inline" fill="#2B2826" d="M624.3,502.4c-1.3,0.7-0.2,2.3-1.3,3.3c0.2-4.8-1.6-10.5,1.3-14.4   C624.2,495,624.6,498.7,624.3,502.4z" />
	<path display="inline" fill="#514B48" d="M633.1,565.4c-1.7-0.9-5.6-13.5-3.7-14.5C630.6,555.8,632.3,560.5,633.1,565.4z" />
	<path display="inline" fill="#595350" d="M628,541.4c-0.1,0.3-0.2,0.7-0.3,1.1c-2.3-2.3-1.6-7.2-2.7-10.5c0.3-0.2,0.5-0.5,0.8-0.7   C626.9,534.4,627.1,538.2,628,541.4z" />
	<path display="inline" fill="#211E1D" d="M625.9,531.3c-0.3,0.2-0.5,0.5-0.8,0.7c0-1.8-1.9-4.9,0.7-5.7   C625.8,528,625.8,529.6,625.9,531.3z" />
	<path display="inline" fill="#2A2625" d="M625,488.6c-2.2-1.7-1-3.5,0-5.3C625,485.1,625.3,486.8,625,488.6z" />
	<path display="inline" fill="#010000" d="M635.2,574.8c-0.7-0.7-1-1.3-0.1-2.1C635.2,573.4,635.2,574.1,635.2,574.8z" />
	<path display="inline" fill="#615956" d="M503.3,407.6c1.8,4.1,3.7,8,5.1,12.2c-1.1,0.1-2.1-0.5-2.1-1.5   C507,414.5,501.2,410.7,503.3,407.6z" />
	<path display="inline" fill="#595350" d="M499.7,398.9c2.2,1.2,1.7,3.7,2.1,5.7C500.2,403.3,499.5,401.1,499.7,398.9z" />
	<path display="inline" fill="#756B67" d="M494.7,384.4c1.1,1.3,1.9,2.7,2.2,4.4c-0.3,0.1-0.5,0.2-0.8,0.3   C495.8,387.6,494.1,385.5,494.7,384.4z" />
	<path display="inline" fill="#4E4845" d="M486.1,348.2c-0.1,0.4-0.1,0.9-0.2,1.3c-1.7-0.8-1.6-2.3-1.9-4.9   C484.8,346,485.5,347.1,486.1,348.2z" />
	<path display="inline" fill="#716864" d="M486.7,355.5c0.6,0.9,0.9,1.8,0.7,2.8C485.7,357.8,485.5,357.1,486.7,355.5z" />
	<path display="inline" fill="#615956" d="M508.4,419.9c1.4,0.5,1.6,1.7,1.5,2.9C508.4,422.3,508.4,421.1,508.4,419.9z" />
	<path display="inline" fill="#161413" d="M464.9,341.6c-0.3,0.2-0.6,0.3-1.1,0.6c-1.3-4.6-2-10.4-0.5-14.8   C464.7,332.1,464.2,336.9,464.9,341.6z" />
	<path display="inline" fill="#211F1E" d="M463.5,319.9c-0.4,0.2-0.8,0.4-1.3,0.7c-0.8-1.8-1.4-3.6-1.5-5.5c0.2,0,0.3-0.1,0.5-0.1   C462.8,316,463.5,318.1,463.5,319.9z" />
	<path display="inline" fill="#8E847F" d="M464.9,339.6c-1-2.6-0.4-5.4-0.6-8.1C465.6,334,464.7,337,464.9,339.6z" />
	<path display="inline" fill="#8E847F" d="M463.5,318.6c-0.2-0.5-0.4-1-0.6-1.5C463.6,317.4,463.5,318,463.5,318.6z" />
	<path display="inline" fill="#8E847F" d="M462.1,315.6c-0.3-0.2-0.6-0.4-0.9-0.6C461.5,315.2,461.8,315.4,462.1,315.6z" />
	<path display="inline" fill="#8D8B86" d="M620.7,518.3c0.3,0.7,0.5,1.4,0.8,2c-0.1,0.3-0.1,0.7-0.2,1.3c-37.5-3.3-76.9-0.1-115-1.2   c-0.8,0.5-1.5,1-2.2,1.4c0.1-0.5,0.1-1,0.2-1.5c3.3-4,9.9-1.3,14.5-2C552.8,518.3,586.7,518.8,620.7,518.3z" />
	<path display="inline" fill="#A19691" d="M511.2,486.3c-0.2-1.6-0.4-3.3-0.6-5.1c1.3-0.9,2.7-0.4,3.9-0.4c1.8,11.7,1.3,24-1.3,35.7   c-1.2,0.9-2.7,0.4-4.1,0.4c1.7-7.5,2.3-15.3,2.1-23c-0.2-0.3-0.5-0.6-0.7-0.8l0,0.1C510.3,490.8,511.2,488.6,511.2,486.3z" />
	<path display="inline" fill="#A09691" d="M615.1,480.9c1.3,0,2.6,0,4,0c-0.4,11.9-0.9,23.8-0.6,35.9c-1,0.3-1.9,0.8-2.8,0.2   c0.2-0.4,0.4-0.9,0.5-1c-1.8-9.1-1.4-18.3-2.7-27.3l0,0C615,486.8,614.2,483.3,615.1,480.9z" />
	<path display="inline" fill="#9B918C" d="M502,498c0.2-5-0.1-9.8-0.7-14.7c0.8-0.1,1.5-0.3,2.3-0.4c3.6,10.9,0.9,22.9,1.1,34.4   c-1,1.3-2.1,2.7-2.1,4.6C500.6,514.4,504.2,505.7,502,498z" />
	<path display="inline" fill="#8C837E" d="M511.3,500.9c-0.4,5.5-0.9,10.8-2.1,16.1c-0.6,0-1.1,0-1.8,0c0-11.8,1.7-23.5-1-34.9   c1.2-0.5,2.1-0.9,3.1-1.4c-0.1,2.7,0,4.5,0.6,7.2c0.5-0.7,0.9-1.1,1.2-1.6c0,2.2-0.9,4.4-0.7,6.8c-1.2,1-0.7,2.1-0.4,3.3   c0.4,0,0.8,0,1.1,0c0,1.3,0,2.6,0,3.9c-0.4-0.4-0.7-0.8-1.3-1.5c0,1.3,0,2.2,0,3.4C510.5,501.7,510.9,501.3,511.3,500.9z    M509.3,507.8l0.2,0.1l0-0.3L509.3,507.8z" />
	<path display="inline" fill="#7E7571" d="M614.1,502.3c0.6,2.1,2.2,8.1-0.6,8.6c0,0.6-0.1,1.1-0.1,1.7c-1.6-10.2-2.6-21.3-1.2-31.8   c0.4,0,0.8,0,1.2-0.1c-0.5,3.4-1.2,6.4,0.7,9.5c-0.3,0-0.7,0.1-1,0.1c0.5,2.7-0.4,6,1,8.2c0,0.8,0,1.6,0,2.5   C613.3,501.5,613.4,501.9,614.1,502.3z" />
	<path display="inline" fill="#8D827D" d="M613.4,512.6c0-0.6,0.1-1.1,0.1-1.7c0.6-0.3,1.6-0.2,1.4-1.3c1.2,1.9,0.8,3.9,1.1,6.3   c-0.1,0.2-0.3,0.6-0.5,1C613.8,516.5,613.3,514.3,613.4,512.6z" />
	<path display="inline" fill="#363634" d="M613.4,488.6c-1.7-2.3-0.1-5.2,0-7.8c0.6,0,1.2,0,1.8,0.1c-0.3,1.9-0.6,3.7-1,5.6   C613.3,487,613.5,487.8,613.4,488.6L613.4,488.6z" />
	<path display="inline" fill="#363634" d="M612.2,480.9c0,0.2-0.1,0.4-0.1,0.5c-0.2-0.1-0.3-0.3-0.5-0.4   C611.8,481,612,480.9,612.2,480.9z" />
	<path display="inline" fill="#8F8580" d="M504.8,519.8c-0.2,0.2-0.4,0.4-0.5,0.6C504.5,520.3,504.6,520,504.8,519.8z" />
	<path display="inline" fill="#8F8580" d="M496.8,459c0.8-0.2,0.7-0.9,0.8-1.4c0.5,0.7,0.8,1.2,0.2,2   C497.5,459.3,497.2,459.1,496.8,459z" />
	<path display="inline" fill="#010000" d="M634.4,570.5c-0.1,0.3-0.1,0.7-0.2,1.1C633.7,571.1,633.9,570.8,634.4,570.5   C634.4,570.5,634.4,570.5,634.4,570.5z" />
	<path display="inline" fill="#8A6E61" d="M370.1,43.6c-0.3,0.2-0.5,0.4-0.8,0.5C369.6,43.9,369.8,43.8,370.1,43.6z" />
	<path display="inline" fill="#2B2826" d="M622.2,512.5c0.2-2.2-0.8-4.1,1-5.9C623.8,508.8,623.9,510.6,622.2,512.5z" />
	<path display="inline" fill="#21201F" d="M511.2,496.4c-0.3,0-0.7,0-1.1,0c-0.2-1.2-0.8-2.4,0.4-3.3l0-0.1c0.2,0.3,0.5,0.6,0.7,0.8   C511.2,494.7,511.2,495.6,511.2,496.4z" />
	<path display="inline" fill="#262322" d="M511.3,500.9c-0.4,0.4-0.7,0.8-1.3,1.5c0-1.2,0-2.2,0-3.4c0.6,0.7,0.9,1.1,1.3,1.5   C511.2,500.5,511.2,500.7,511.3,500.9z" />
	<path display="inline" fill="#8C837E" d="M511.2,493.9c-0.2-0.3-0.5-0.6-0.7-0.8C510.8,493.3,511,493.6,511.2,493.9z" />
	<path display="inline" fill="#020101" d="M614.1,498.6c-1.5-2.2-0.5-5.5-1-8.2c0.3,0,0.6-0.1,1-0.1   C614.1,493.1,614.1,495.9,614.1,498.6z" />
	<path display="inline" fill="#7E7571" d="M613.4,488.6c0.1-0.8-0.1-1.7,0.7-2.2C614.1,487.2,614.6,488.2,613.4,488.6z" />
	<path display="inline" fill="#020101" d="M614.1,502.3c-0.8-0.4-0.8-0.8,0-1.2C614.1,501.5,614.1,501.9,614.1,502.3z" />
	<polygon display="inline" fill="#403230" points="509.3,507.8 509.6,507.7 509.6,508  " />
</g>
</svg>