<?xml version='1.0' encoding='utf-8'?>
<svg xmlns="http://www.w3.org/2000/svg" version="1.2" baseProfile="tiny" id="Layer_1" x="0px" y="0px" viewBox="0 0 900 600" overflow="visible" xml:space="preserve">
<g id="a_00000006691114724850513210000003085822325898796943_">
	<path fill="#373A46" d="M383.2,598.8c-3.8-0.4-6.9-2.1-9.6-4.6c0.2-0.2,0.4-0.3,0.7-0.6c-3.6-3.2-16-17.8-10.9-21.3   c3.8,11.3,14.1,27.7,27.7,22.3c-1-0.5-1.4-0.2-1.6,0.3c-12.7,1.2-21-11.9-24.6-22.5c4.5-1.9,10.1-3.2,14.8-3.2   c-1.4,2.9-3.3,5.5-4.2,8.9c1,2.9,3.8,6.9,7.5,5.2c0-1.6,0.1-3.3,0.1-5c1.8-1.1-0.4-3.6,1.5-4.7c0.5,3.4,1,9.3,5,10.1   c5.8-2.4,1.4-10.4-1.6-13.7c4.7-3.3,3.3-10.5-1.8-12c-3.7,0.3-4.8,2.6-6.4,4.1c-5.5,1.1-10.8,2.2-16.2,3.3   c-2.6-15.4,3.9-33.2,21.2-32c-14.3-4.6-23.3,12.3-23.2,24.8c-0.5,2,1.3,7.8-1.6,7.5c-4.6-25.7,19.4-50.7,38.1-22.8   C411.1,560.4,410,597.8,383.2,598.8z" />
	<path fill="#373A46" d="M516.9,517.1c4.6-11.7,16-14.1,27-10.1c1.2,1.6,2.8,2.8,4.8,3.2l0,0c13.5,14,16.9,41.7-3.9,50.6   c1.5,0.1,2.4,0.1,3.3,0.2c-1.3,1-2.7,0.6-4.1,0.6c-1.9-1.2-5.9-1.1-7.8,0c-9.5-1-13.4-10-19.1-15.8c0.5-1.1,1.9-0.6,2.8-1.1   c-0.1-0.2-0.3-0.3-0.4-0.5c0-0.2,0.1-0.5,0-0.7c2.1-0.3,2.8-3.2,4.1-4.5c2.2-0.4,4.2-0.7,6.2-1c6.9,10.3,19.7-0.4,12.7-9.5   c-1.3-5.5-8.5-5.5-12.4-2.4c-0.6,1.5-1.2,3.2-1.9,4.8l0,0c-0.3,0.2-0.6,0.5-0.8,0.7c-1.5,0.2-3,0.4-4.7,0.6   c-1.3-4.8-5.8-8.8-4.8-13.9C517.8,518,516.9,517.6,516.9,517.1z" />
	<path fill="#0A0606" d="M501.9,543.3c-3.7,0.9-7.4,1.7-11.5,2.7c4.5,6.1,11.9,8.5,18.6,11.8c-3.5,2.3-8.4-3.4-12.5-2.6   c-0.2-0.8-0.4-1.4-0.6-1.9c-1.8-0.4-3.4,1.5-5.3,0.1c0.4-0.8,0.9-1.7,1.4-2.6c-2.5-0.7-3.8,1.9-6,1.9c-0.3-0.3-0.5-0.7-1-1.3   c1.4-1.1,2.7-2.1,4.1-3.2c-0.2-0.4-0.4-0.8-0.6-1.1c-2.5,0.1-4.1,2.2-6.4,2.9c-0.6-0.7-1-1.2-1.6-1.9c-9.1,2-18.5,3.6-27.4,6   c-1,2.5-1.9,4.8-2.8,7.1c5.9,8.6,19.7,2.2,28.6,5.3c11,1.6,21.4,5.1,32.4,1.6c0.5,0.3,1.1,0.5,1.6,0.8c-16,7.1-32.4-2.7-49-1.3   c-6.4,0.1-13.1,1.1-15.4-6.6c0.7-1.9,1.5-3.9,2.3-6.1c-9.6,1-19.2,3.1-28.4,5.8c2.2,4.6,7.5,6.1,11.2,9.2c-2.7,2.2-5-1-7.2-2.4   c-1.6,0.8-2.9,2.3-5,0.7c0.6-1.2,2.8-1.9,1.6-3.1c-1.8,0.7-3.5,1.9-5.5,0.8c-0.9-0.1-2.3,1.1-3.4,0.4c1.1-2.7,2.5-5.1,4.9-6.8   c0.3,0.5,0.5,1,0.9,1.6c0.8-1.1,1.3-1.8,1.6-2.2c-0.7-4.6-5.8-11.1-3.7-14.6c1.1,2.9,2.3,5.8,3.5,9c10.4-2,20.5-4.1,30.2-6.2   c1.9-4,4.3-6.5,4.2-10.7c2.2-1.4,4.6-1.3,6.9-1.9c1-1.8,1.9-3.6,2.8-5.3c0.3,0.3,0.6,0.7,0.9,1c-1.3,2.8-2.5,5.6-3.9,8.6   c1.7,7.7,11.3,1,14.9-2.2c8-11.8,13.2-25.8,24.6-35.3c0.2,0.3,0.5,0.5,0.7,0.8c-7.4,10.3-16.2,19.5-21,31.6c1.1,0.4,2.1,0.8,3,1.1   c0.8,1.6,1.5,3.1,2.3,4.8c4.6-0.9,8.9-1.8,13.2-2.7c0.4-0.7,0.6-1.1,0.8-1.6c0.3,0,0.6,0,0.9,0.1c0.5,0.9,1,0.6,1.6,0   c1.3-0.2,2.6-0.2,4,0c1.2,1,1.9,2.3,2.3,3.8c-0.5,1.1-1,2.2-1.5,3.3l0,0C506.2,543.1,503.6,541.7,501.9,543.3z M474.4,541.1   c-0.7,0.4-1.5,0.7-2.6,1.3c1.8,0.3,3.1,0.5,4.2-0.5c3-0.6,6.1-1.2,9.4-1.8c-0.6-1.5-1.1-2.6-1.5-3.6   C479.8,535.2,477.6,539.5,474.4,541.1z M422.9,558c22.7-4.5,45-9.3,67.6-14c4.8-2,15.2-1,17.7-5.3c-28.2,1-57.7,11.7-86.2,16.2   C422.3,555.9,422.5,556.7,422.9,558z M461.3,536.6c-1.5-0.1-2.2,0.3-3.7,0.7c1.3,3.7-4,6-2.6,9c2.9-0.6,6-1,9.3-2   C461.8,542.1,460.7,539.6,461.3,536.6z M419.4,564.2c1.6-0.7,1.8-0.3,2-1.6C420.1,562.4,420.4,562.7,419.4,564.2z" />
	<path fill="#080605" d="M468.8,310.6c3-7.2,10.2-4.2,15.9-2.5c7.9-6,17.8-7.6,26.9-3.1c0,0.2,0,0.4,0,0.6c-4.1,2-8.9-3.2-12.7-0.7   c-2.4-0.2-4.7-0.1-6.9,1.2c0.5,0.4,0.9,0.8,1.4,1.2c0.2,0,0.4,0,0.6,0.2c-0.3,0.3-0.6,0.6-0.9,0.8c-7.2-1.7-12.2,6.9-13.3,13.1   c0.7,0.6,1.5,1.3,2.3,2c-0.3,0.2-0.5,0.5-0.8,0.7c-1.1-0.1-1.3-0.8-2.4-1.6c0.1,1.2,0.1,1.7,0.2,2.3c-1.8,1.5-0.1,3.4,0.8,4.8   c-0.5,0-1,0.1-1.4,0.1c-0.7,2.1,0.4,3.9,1.3,5.5c-0.1,0.2-0.1,0.5,0,0.7c-0.2,0.2-0.8,0.2-0.3,0.6c0.1-0.2,0.3-0.3,0.4-0.5   c0.1,0,0.4,0,0.6,0c0.3,0.3,0.6,0.5,0.9,0.8c0,0.3,0,0.5-0.1,0.8c-4.1-0.2-1.2,2.9-0.1,4.8c-0.9,1.8-1.1,4.3,1,5.5   c0.1,0.4,0.1,0.7,0.2,1.1c0.9-0.1,1.7-0.1,2.6-0.2c0.4,1.2,0.8,2.2-0.3,3c0-1.4-0.5-3.3-1.3-0.8c2.6,9.9-7.5,8.4-13.1,11.2   c-1.3,0.3-3.2-0.7-4,0.7c-0.8,0.4-1.9-0.4-2.4,0.8c-14.6,6.7-30.9,14.7-31.6,32.6c-1.2-2.8-0.9-5.7-0.8-8.6   c0.7-0.7,0.8-1.4,0.4-2.6c-2.8,3.3-5.7,6.7-8.3,9.9c-1.3,8.6-0.1,13.7,4,17c1.3-2.6,2.6-5.1,4-7.7c0.3,0.3,0.6,0.7,0.9,1   c-2.7,7.7-6,15.1-8.9,22.7c-0.3-0.3-0.6-0.7-0.8-1c0.1-1.5,0.2-3,0.3-4.4c2.4-1.9,2.3-5.2,3.5-8c-2-1.4-2.2-4.4-3.8-5.4   c-0.1-0.9-0.8-0.8-1.4-1c0.2-3.4,0.3-6.9-0.3-10.3c-1,0.7-1.9,1.2-2.8,1.7c-0.3-0.3-0.7-0.7-1-1c12.9-14.8,26.8-28.5,45-36.8   c4.4-8.7,0-18.5,2.5-27.3c0.8,4.6-0.1,9.1,2.2,15.2c0.1-2.2,0.2-4.3,0.3-6.4c2.4,5.5-0.9,11.6-1.2,17.2c1.2,0,1.1-0.8,1.3-1.3   c0.3,0.4,0.6,0.8,1.1,1.4c1-1.2,1.1-2.4,1.1-3.8c1.2-1,0.6-2.8,1-4.2c0.1,0,0.3,0,0.4,0c0.1,1.6,0.3,3.3-0.1,4.9   c-2.3,2.7,1.7,2.4,3.4,1.6c0.4-13.5-3.9-25.2-0.2-38c0.2-3.6,12.9-11.3,7.3-12c-0.9-1-2-0.7-3.1-0.8c-2.5-1.9-5.8,0.5-7.5,2.5   C470.2,310.7,469.5,312,468.8,310.6z M478.3,347c-0.1,1.3-0.8,2.6,0,4c0.6-0.1,1-0.1,1.5-0.2c-1.5,2.1-3.1,4.3-2,7.1   c3.3,0.7,4.6-4.3,3.5-6.7c-0.6-0.1-1.1-0.2-1.6-0.3c-1-2.5,1.4-5.7-1.4-7.7C478.3,344.7,478.3,345.9,478.3,347z M475.7,338.5   c0.4,1.3,0.8,2.6,1.5,4.6c0.4-7.1-1.1-12.1-0.4-18.9c0.7-1.8,0.7-1.8,0.1-3.8C474.9,325.9,474.3,332.7,475.7,338.5z M476.1,355.1   c0.7-2.1,1.3-4.2-0.4-5.8C474.9,352.8,474.9,352.8,476.1,355.1z" />
	<path fill="#090605" d="M422.6,426.7c0.3,0.3,0.6,0.7,0.8,1c-0.7,6.7-3.3,13.1-4.8,19.7c-1.3-1.9-0.6-3.9-0.5-6.1   c-13.2-7.4-25.7-3.2-34.3,7.8c-0.4-6.3,12.4-13.2,19.3-13.7c-1.7-1.6-3.3-1.4-4.8-1.4c-0.3-0.3-0.6-0.5-0.9-0.8   c0.4-0.4,0.9-0.8,1.5-1.3c-2.8-1.5-4.6-4-7-6c-1.2,0.6-2.6,1.3-4.1,1.1c1.2-1,2.3-2,3.6-3c-0.6-1-0.1-2.5-1.3-3.5   c-7.6,3.8-17.7,6.7-21.1,15.2c-2.9,8.7-3.1,20.8,3.9,27.6c2.1-3.1,4.2-6.3,6.3-9.4c2.4,3.5-3.7,9-4,13.1   c7.4,10.6,21.2,15.2,33.5,12.2c1.7-9,2.6-17.9,7-26c0.3,0.3,0.6,0.6,0.9,0.9c-3.2,9.5-5.6,19.2-6.5,29.2c-0.5-0.5-1.1-1-1.6-1.5   l0,0c-0.4-1.2-0.9-1-1.5-0.2c-24.4,4-47.4-19.8-41.3-44c3.8-13.5,20.4-15.5,30.7-22.6c0.6,0.3,1.3,0.6,1.9,0.9   c-1.7,1.3-4.1,1.5-5.6,3.3c1.2,13,16.2,16.2,26.5,20.3c0.7-2.9,1.9-5.5,2.1-8.4c0.8-1,0.8-2.1,0.7-3.3c0.2-0.2,0.2-0.4,0.1-0.7   C422.2,427,422.4,426.8,422.6,426.7z" />
	<path fill="#111014" d="M360.1,565.6c2.9,0.3,1.1-5.4,1.6-7.5c-0.2-12.4,8.9-29.4,23.2-24.8c-17.3-1.2-23.8,16.6-21.2,32   c5.3-1.1,10.7-2.2,16.2-3.3c1.6-1.4,2.7-3.8,6.4-4.1c5.1,1.5,6.5,8.7,1.8,12c13,16-6.5,19-2.6,1.2c0.9,3.4,1.9,6.7,2.8,10.3   c0.7-0.1,1.2-0.1,1.9-0.2c1.1-5.2-2.3-8.4-3.8-12.5l-0.1,0.1c7.7-1,0.4-14.3-3.6-7.5c1.3,0.4,2.9-0.5,3.7,1.1   c-0.2,0.2-0.5,0.5-0.7,0.7c-9.2-0.9-19.2,3.8-28.6,4.7c0-0.2,0-0.5,0-0.7C358.2,566.9,359,565.7,360.1,565.6z" />
	<path fill="#383A46" d="M379.2,529.1c5.6-2,12.6-1,17.9,2.4c0.8,0.5,1.5,1.1,2.5,0.5c-0.3,0.6-0.7,1.2-1,1.7   c3.9,4.2,7.8,8.3,9.9,13.6c-2-0.2-4.3,0.2-4.8,2.4C398.8,538.9,391.1,530.7,379.2,529.1z" />
	<path fill="#0C0A09" d="M514.6,443.6c0.2,1.4,0.4,2.7,0.6,4.5c0.8,0.9,1.9,2.1,2.9,3.3c-0.5,0.1-0.9,0.2-1.4,0.3   c-10-8.1-23-10.7-35.4-12.9c14.8-6.1,15-9.3,18.3-24.5c1.9,3.3,0.3,8.2-0.8,11.8c-0.9,0.2-1,0.9-0.9,1.7c-0.6,1.2-1.1,2.3-1.6,3.4   c0.6,3,0.6,5.4,0.1,8.3c6.1,1.2,11.5,6.5,17.2,6.6C514.1,445.3,513.5,444.2,514.6,443.6z M495.1,439.1c0.3-4,0.3-4-0.4-5.6   c-2,1.4-4,2.9-6.3,4.5C490.8,438.4,492.8,438.7,495.1,439.1z" />
	<path fill="#131216" d="M389.5,594.9c-12.8,4.3-22.5-12.2-26.1-22.7c-4.3,2.2,2.3,9,3.2,12.4c-0.2,0.3-0.4,0.5-0.6,0.8   c-3.2-2.1-4.2-15.2-8.2-12c-0.5,0-1,0-1.5,0.1c0-0.3,0-0.5,0-0.8c8.3-2.8,17.5-3.6,26.1-5.5c0.7,0.1,1.4,0,1.6,0.9   c-3.3-0.2-3.5,4.6-5.3,6.6c-1.9,2.7-1.1,6.8,2.7,7.4c1-3.1,0.6-6.2,1.1-9.3c1.6,3.1,0.3,7.2,0.6,10.6c-3.7,1.8-6.5-2.3-7.5-5.2   c0.8-3.4,2.8-6,4.2-8.9c-4.7,0-10.3,1.3-14.8,3.2C368.4,583,376.8,596.1,389.5,594.9L389.5,594.9z" />
	<path fill="#141216" d="M379.2,529.1c32.1,2.3,41.6,70.6,4,69.7c38.6-1.3,24.9-78.8-11.8-66.5c0-0.2,0-0.4-0.1-0.5   C373.7,530.4,376.3,529.3,379.2,529.1z" />
	<path fill="#161313" d="M502.7,502.2c-0.2-0.3-0.5-0.5-0.7-0.8c5.3-9.2,9.2-19.3,14.4-28.5c3.6,12.1-0.1,25.5-0.2,38   c-3.3-9.8,1.7-22.9-1-31.9c-3.4,8.2-9.2,15.7-8.4,24.8c-0.3,0-0.5,0-0.8,0c-0.3-1.2-0.6-2.5-1-3.9   C504.1,500.8,503.4,501.5,502.7,502.2z" />
	<path fill="#363A45" d="M400.5,592.5c3.2-4.7,4.9-9.7,6.4-15.1c1.8-0.8,3.7-1.6,5.5-2.3c0,1.6,0,3.2,0,4.8   c-1.5,1.6-1.4,3.9-2.4,5.8c0.5,0.3,0.8,0.6,1.1,0.8c-2.3,3.4-4.4,7.2-8.2,9.1c-0.3-0.2-0.5-0.5-0.8-0.7c0.7-1.1,2.6-1.2,2.8-3.1   C403.4,592,402,592.3,400.5,592.5z" />
	<path fill="#161413" d="M403.8,539.4c-1.7-1.9-3.4-3.8-5.1-5.7c5.6-10.4,8.4-21.7,8.9-33.4c0.3,0.9-0.3,2.1,0.9,2.7   c-0.4,9.1-1.1,18.2-3,27.1c-0.3-0.3-0.5-0.6-0.8-1c-0.1-0.9-0.2-1.9-0.2-2.8c-0.1,0-0.3,0-0.4,0c-0.9,2.8-2.1,5.2-3.4,7.9   c0.6,0.6,1.3,1.1,2,1.8c0.4-1.2,0.7-2.2,1-3.1c0.3,0.4,0.6,0.7,0.8,1.1c0.1,1.6,0.1,3.1,0.2,4.7C404.3,538.8,404,539.1,403.8,539.4   z" />
	<path fill="#322C25" d="M507.6,364.6c-1.2,2.7-2.5,5.3-3.9,8.4c0.3,2,2,3.7,3.1,5.6c-0.3,0.3-0.5,0.6-0.8,0.9   c-1.3-1.3-2.5-2.5-4.2-4.2c0.2,10.8,0.7,20,0.8,30.3c-0.2,0.3-0.4,0.6-0.6,0.9c-0.2,0-0.4,0-0.7,0c-0.1-9.3,0.4-18.6-1.3-27.6   c-1-0.1-1.9-0.1-2.8-0.1c0.2-1,1.9-1,1.6-2.3c4.4-3.4,4.8-12.3,10.2-13.5c0.1,0.2,0.2,0.4,0.4,0.5   C508.7,363.7,507.7,363.5,507.6,364.6z" />
	<path fill="#16100F" d="M411.1,586.4c-0.3-0.2-0.6-0.4-1.1-0.8c1-1.8,0.9-4.1,2.4-5.8l0,0c0.2,1.6-0.1,2.9-0.5,4.5   c9.5,1.4,19.5,1,28.3-2.9c2-1.9-0.5-5.4,1.5-7.1c1.1,2.6,0.7,5.1,0,7.9C433,587.1,421.2,588,411.1,586.4z" />
	<path fill="#2A2422" d="M529.8,332.2c0.2,2-1.2,3-2.3,4.2c0.2,0.7,0.3,1.2,0.4,1.6c-0.4,0.2-0.7,0.4-1.2,0.6   c-0.5,4.7,5.7,10.1-1.5,12.1c-0.1,1.3-0.1,2.6-0.2,3.8c-0.5,0.5-0.9,1-1.4,1.5c0.1,1,1,2-0.2,2.9c-0.3-0.3-0.5-0.5-0.8-0.8   c0.5-3.8-4.6-0.9-5.2-3.9c2.1-1,4.5,1.7,6.3-0.6c-0.2-1.3-0.4-2.6-0.5-3.6c-0.5-0.5-1.3-0.5-1-1.2c1.6-2.1,3.8,1.4,5.2-1.1   c-7.2-16.8,4.2-11.4,0.8-17.4c-0.1-2.4-0.6-5,0.7-7.1c0.4,1.3-0.6,3.1,0.8,4C530,328.7,529.7,330.6,529.8,332.2z" />
	<path fill="#393842" d="M549.7,506.1c7.2,3.5,11.4,10.4,14,17.6c-0.2,0.3-0.5,0.5-0.7,0.8c-1.8-2.6-3.6-11.4-7.8-8   c-2.1-2-3.2-6-6.4-6.3l0,0c-1.1-1.1-2.1-2.1-3.2-3.2C547,507.1,548.4,506.9,549.7,506.1z" />
	<path fill="#1F1D1C" d="M513.2,405.9c-2.3,10.4,2.5,21.2-0.1,31.3c-0.8-10.3-4-20.7-1.5-30.9c1.1-0.7,0.3-2.1,0.7-3.1   c0.2,0,0.5,0,0.7,0C513,404.1,513.1,405,513.2,405.9z" />
	<path fill="#151312" d="M468.8,310.6c0.8,1.4,1.5,0.1,2.2,0c0.3,0.2,0.6,0.5,1,0.7c-12.5,5-6,21.5-8,32   C463.4,331.9,458,318.8,468.8,310.6z" />
	<path fill="#261E1C" d="M398.2,415.8c-0.6-0.3-1.3-0.6-1.9-0.9c8.5-3.6,14.3-10.5,20.9-16.6c0.3,0.3,0.7,0.7,1,1   C411.8,405.1,406.5,412.7,398.2,415.8z" />
	<path fill="#241A19" d="M511.4,305.6c0-0.2,0-0.4,0-0.6c7.3,2.5,19.2,7.9,16,17.4c0-1.6-1.4-2.4-2-3.7c-0.2,0.2-0.3,0.3-0.5,0.5   c-0.5,0-1,0-1.5-0.1c-0.3-1.5-1.8-2.3-1.6-3.9c1,1.1,1.8,1.1,3.1,0.8c0.1,0.4,0.2,0.8,0.2,1.2c0.9-1.1-0.6-1.2-1.1-2l0,0   c-0.3-0.3-0.5-0.5-0.8-0.8l0,0C521.9,309.7,515.1,308.7,511.4,305.6z" />
	<path fill="#1D1615" d="M519.4,543.4c0,0.2,0,0.5,0,0.7c-0.2,0.3-0.5,0.6-0.7,0.8c-0.6,0-1.3,0-1.6,0.7c-3.5,0.5-6.9,1.1-10.4,0.9   c-0.5-0.5-1.1-0.9-1.6-1.4c0-0.4,0.1-0.8,0.1-1.1c1.3,1.3,5.2,3,5.7,0.2l0,0c0.3-0.5,0.5-1.1,0.8-1.6l0,0c1-1.3,1.9-3,3.9-3   c-0.3,1.2-0.5,2.1-0.7,3c-1.4-0.2-2,0.8-2.1,2.2c1.4-0.1,1.5-1.2,2-2.2c1.7-1.5,3.1-3.2,5.5-2.3c-0.2,0.5-0.4,1-0.7,1.5   c-0.1-0.2-0.3-0.4-0.6-0.7c-0.6,0.6-1.2,1.3-1.8,1.9c0.1,0.1,0.2,0.3,0.3,0.4c0.6-0.3,1.2-0.6,1.8-0.9   C519.4,542.8,519.4,543.1,519.4,543.4z" />
	<path fill="#27272B" d="M562.9,524.4c0.2-0.3,0.5-0.5,0.7-0.8c2.3,0.4,4.4-0.5,6.7,0.1c-1.9,0.6-3.8,1.2-5.9,1.8   c0.2,1.1,0.4,2,0.7,2.9c1.5-0.1,2.7-0.1,4-0.2c0.3,0.3,0.6,0.6,1,0.8c-1.1,0.5-2.4-0.2-3.2,0.8c-0.4,0.1-0.8,0.2-1.4,0.4   c0.2,6.3,0.6,12.8-2.6,18.7c-0.2-0.3-0.5-0.5-0.7-0.8c0-0.5,0-1.1,0-1.6c0.3-0.3,0.5-0.5,0.8-0.8c0-0.5,0-1.1,0-1.6   C566.4,538.4,563.8,530.8,562.9,524.4z" />
	<path fill="#302D2B" d="M517.1,474.8c-0.3-0.6-0.5-1.2-0.8-1.8c2.7-6.7,5.5-14.9,0.4-21.2c0.5-0.1,0.9-0.2,1.4-0.3   C524.1,457.7,520.6,468,517.1,474.8z" />
	<path fill="#2B292B" d="M360.1,565.6c-0.2,0-0.4,0-0.7,0.1c-0.3-0.8,0.2-1.9-0.8-2.5c-0.7-7.5,0.1-14.9,3.7-21.6   c0.3-1.1,1.1-2,1.7-2.9c0.3,0,0.5,0,0.8,0C360.3,547,359.6,556.2,360.1,565.6z" />
	<path fill="#292625" d="M513.1,404c-0.6-6.3,1.3-13.3-2.5-18.9c0.3-0.3,0.7-0.7,1-1c5.4,5,3.6,13.6,2.1,19.9   C513.5,404,513.3,404,513.1,404z" />
	<path fill="#2F2B29" d="M522.5,358.1c0.3,0.3,0.5,0.5,0.8,0.8c-1.3,11.5-7.4,7.4-15.8,5.7c3.2-3.4,8.4,2,12.9-0.4   c0.5-1.8,0.7-3.5,0.6-5.3C521.5,358.6,522,358.4,522.5,358.1z" />
	<path fill="#484F5A" d="M400.5,592.5c1.4-0.2,2.9-0.5,4.4-0.7c-1.1,2.9-4.1,3.5-6.4,5c0.3,0.3,0.5,0.4,0.6,0.6   c-4.4,2-9,2.7-13.8,1.6C391.5,599.3,396.2,596.7,400.5,592.5z" />
	<path fill="#2F2927" d="M507.5,558.4c0.6-0.1,1.3,0,1.5-0.8c2.3,0.4,4.5,1.3,6.8,2.4c0.8,3.5,0.7,10.9-4.5,7.8c1-0.6,2-1.1,3.1-1.8   c-0.3-1.7,0.4-3.4-0.2-5C511.8,560.9,509.8,559.3,507.5,558.4z" />
	<path fill="#594F57" d="M549.7,506.1c-1.5,1-3.2,1-4.9,0.9c-3.1-2.4-6.9-2.2-10.4-3.3C539.8,502.4,544.9,503.1,549.7,506.1z" />
	<path fill="#2C2B2A" d="M408.4,481.7c0.5,0.5,1.1,1,1.6,1.5c-0.1,5.6,0.1,11.5-1.4,16.9c-0.4-0.8,0.3-2-0.9-2.6   C407.8,492.2,408.1,487,408.4,481.7z" />
	<path fill="#212125" d="M345.8,575.8c-2.4,0.1-5,1.6-7.1,0.1c0-0.3,0-0.6,0-0.9c4.2,0.3,1.8-2.6-0.1-3.9c0.3-0.3,0.6-0.6,0.9-0.8   c1.1,0.1,2.2,0.4,3-0.5c0.3,0,0.6,0,0.9,0c0.3,0.2,0.6,0.4,0.9,0.7c-0.8,0.4-1.6,0.7-2.5,1.2c0.7,1.1,0.9,2.2,1.1,3.5   c1.4-0.2,2.6-0.4,3.7-0.6c0,0.2,0,0.4,0,0.7C346.4,575.3,346.1,575.6,345.8,575.8z" />
	<path fill="#3C3330" d="M441.8,574.3c-2,1.7,0.5,5.3-1.5,7.1c0-2.6,0-5.2-0.2-7.8c-2.8-1.1-5.4-2.1-8-3.1c0.6-0.3,1.1-0.6,1.7-0.8   C436.3,571.1,441.5,570.8,441.8,574.3z" />
	<path fill="#363A45" d="M562.2,548.1c0.2,0.3,0.5,0.5,0.7,0.8c-2.1,4.6-5.5,10.1-11,10.3l0,0c0-0.3,0-0.5,0-0.8   C557.1,557.6,559.5,552.1,562.2,548.1z" />
	<path fill="#252422" d="M513.1,437.3c1.2-2,0.6-4.5,0.8-6.8c0.9,4.3,0.5,8.7,0.6,13.1c-1.1,0.6-0.5,1.7-0.8,2.5   C512.6,443.3,513.2,440.2,513.1,437.3z" />
	<path fill="#21191C" d="M534.3,503.7c3.5,1.1,7.4,0.9,10.4,3.3c-4.7-1-9.7-1.4-14.2-2.2C531.8,504.5,533.1,504.1,534.3,503.7z" />
	<path fill="#24292B" d="M365.8,585.3c0.2-0.3,0.4-0.5,0.6-0.8c2.3,3.3,4.8,6.3,7.7,9c-0.3,0.3-0.5,0.4-0.7,0.6   C370.2,591.9,367.7,588.9,365.8,585.3z" />
	<path fill="#32302F" d="M515.3,509.2c2,2.5-0.2,6.1,1.8,8.3c-1.2,1.2-0.7,2.7-1,4.1C515.1,517.6,514,513.1,515.3,509.2z" />
	<path fill="#363A45" d="M548.1,560.9c-0.9-0.1-1.8-0.1-3.3-0.2c2.4-1.5,4.4-2.7,6.3-3.8c0.3,0.3,0.5,0.5,0.8,0.8c0,0.3,0,0.5,0,0.8   c-0.7,0.3-0.7,0.5,0,0.8l0,0c0,0.2,0,0.5,0,0.7c-0.4,0.1-0.8,0.1-1.2,0.2c-1.6-0.7-1.6-0.7-2,0.5l-0.3,0.2H548.1z" />
	<path fill="#48403D" d="M511.6,384.1c-0.3,0.3-0.7,0.7-1,1c-1.8-1.7-3.8-3.2-4.6-5.7c0.3-0.3,0.5-0.6,0.8-0.9   C508,380.7,510.2,382,511.6,384.1z" />
	<path fill="#32292C" d="M364.9,538.6c-0.3,0-0.5,0-0.8,0c1.7-2.5,3.7-4.8,6.3-6.4c0.5,0,1.1,0,1.6,0.1   C369.7,534.4,367.3,536.5,364.9,538.6z" />
	<path fill="#3C292B" d="M570.4,523.7c-0.6,0-1.2-0.1-1.9-0.1c0.1-0.2,0.1-0.3,0.1-0.5c1.3-0.3,2.5-0.5,3.8-0.8   c3.1,1.5,3.1,1.5,2.4,4.5c-0.4,0-0.7-0.1-1.1-0.1C574.4,523.5,572.7,523.6,570.4,523.7z" />
	<path fill="#292022" d="M536.1,561.5c2-1.1,5.9-1.1,7.8,0C541.3,562.3,538.7,562.1,536.1,561.5z" />
	<path fill="#32393A" d="M573.8,526.6c0.4,0,0.7,0.1,1.1,0.1c0,2.3-3.2,1.7-4.7,2.3c-0.3-0.3-0.6-0.6-1-0.8   C570.7,527.6,572.2,527.1,573.8,526.6z" />
	<path fill="#545457" d="M338.7,574.9c0,0.3,0,0.6,0,0.9c-2.1-2.1-2.1-2.5,0-4.8c0.3,0.3,0.6,0.6,0.9,0.9   C338.8,572.9,338.6,573.9,338.7,574.9z" />
	<path fill="#1F1113" d="M353.8,567.4c0.5,0,1.1-0.1,1.6-0.1c0,0.2,0,0.5,0,0.7c-2,1.1-4.2,1.2-6.4,1.5c0-0.2,0-0.4,0-0.6   C350.5,567.8,352.2,567.9,353.8,567.4z" />
	<path fill="#E0C7B6" d="M406.8,505.4c0,2.5,0.4,4.9-0.6,7.3C406.6,510.4,405.4,507.4,406.8,505.4z" />
	<path fill="#2C2A29" d="M527.4,322.4c0.3-0.6,0.5-1.2,0.8-1.8c0.2,0.9,0.4,1.7,0.6,2.6c-0.9,1.3-0.9,2.8-0.9,4.3   C527.8,325.8,527.6,324.1,527.4,322.4z" />
	<path fill="#262829" d="M399.1,597.4c-0.2-0.2-0.4-0.3-0.6-0.6c1.2-0.7,2.4-1.3,3.6-1.9c0.3,0.2,0.5,0.5,0.8,0.7   C401.6,596.1,400.4,596.8,399.1,597.4z" />
	<path fill="#180F10" d="M356.2,572.6c0,0.3,0,0.5,0,0.8c-0.8,0.6-1.9-0.3-2.5,0.8c-0.5,0.1-1,0.1-1.4,0.2v-0.3c0-0.2,0-0.4-0.1-0.6   C353.4,572.4,354.8,572.7,356.2,572.6z" />
	<path fill="#0F0F0E" d="M407.8,497.5c1.5,1.3,0.6,3.7,0.7,5.5C406.9,501.7,407.8,499.3,407.8,497.5z" />
	<path fill="#2C3030" d="M505.1,544.1c0,0.4-0.1,0.8-0.1,1.1c-1.1-0.7-1.7-2-3.1-1.9c0.9-1.3,2.2-0.5,3.3-0.6   C505.2,543.1,505.2,543.6,505.1,544.1z" />
	<path fill="#210D0E" d="M344.4,570.4c-0.3-0.2-0.6-0.4-0.9-0.7c1.3-0.2,2.6-1,3.9-0.8c0,0.2,0,0.5,0,0.7   C346.6,570.7,345.5,570.3,344.4,570.4z" />
	<path fill="#1C0E0F" d="M346.7,575.1c0-0.2,0-0.4,0-0.7c1.3-0.3,2.6-0.5,4-0.8c0,0.2,0,0.4,0,0.6   C349.7,575.4,348.1,575.2,346.7,575.1z" />
	<path fill="#2C2A29" d="M529.8,332.2c0-1.5,0-3,0-4.4C530.5,329.2,530.6,330.7,529.8,332.2z" />
	<path fill="#2C3030" d="M506.6,546.6c1.2,0,2.3,0,3.5,0C508.9,547.7,507.8,547.6,506.6,546.6z" />
	<path fill="#373A46" d="M358.7,563.2c1,0.6,0.5,1.6,0.8,2.5c-0.3,0.2-0.5,0.5-0.8,0.7C358.7,565.3,358.7,564.3,358.7,563.2z" />
	<path fill="#8B9EBF" d="M342.6,569.7c-0.9,0.9-2,0.6-3,0.5C340.5,569.2,341.6,569.6,342.6,569.7z" />
	<path fill="#8B9EBF" d="M350.6,568.1c-0.5,0.3-1,0.5-1.5,0.8c-0.3-0.1-0.5-0.2-0.8-0.2C348.9,567.8,349.7,567.8,350.6,568.1z" />
	<path fill="#7888AE" d="M349.7,575c0.3-0.3,0.6-0.5,0.9-0.8c0.5,0,1.1-0.1,1.6-0.1v0.3C351.5,575.2,350.7,575.2,349.7,575z" />
	<path fill="#7888AE" d="M346.7,575.1c0.6,0,1.1,0.1,1.7,0.1c-0.7,0.8-1.6,0.8-2.5,0.6C346.1,575.6,346.4,575.3,346.7,575.1z" />
	<path fill="#373A46" d="M548.7,560.7c0.3-1.2,0.3-1.2,2-0.5C550,560.3,549.4,560.5,548.7,560.7z" />
	<path fill="#2D2927" d="M513.1,404c0.2,0,0.4,0,0.7,0c-0.2,0.7-0.4,1.3-0.5,2C513.1,405.3,513.1,404.6,513.1,404z" />
	<path fill="#2C2B2A" d="M406.9,481.5c0.6-0.8,1.2-1,1.5,0.2C407.9,481.7,407.4,481.6,406.9,481.5z" />
	<path fill="#8B9EBF" d="M353.8,567.4c-0.5,0.1-1,0.3-1.5,0.4C352.7,567.2,353.2,567.1,353.8,567.4z" />
	<path fill="#1E0707" d="M355.4,568c0-0.2,0-0.5,0-0.7c0.5-0.1,1.1-0.1,1.6-0.2c0,0.2,0,0.5,0,0.7C356.4,567.9,355.9,568,355.4,568z   " />
	<path fill="#8B9EBF" d="M346.6,568.9c-0.5,0.1-1,0.3-1.5,0.4C345.5,568.7,346,568.6,346.6,568.9z" />
	<path fill="#240708" d="M348.3,568.6c0.3,0.1,0.5,0.2,0.8,0.2c0,0.2,0,0.4,0,0.6c-0.5,0.1-1,0.1-1.5,0.2c0-0.2,0-0.5,0-0.7   C347.7,568.8,348,568.7,348.3,568.6z" />
	<path fill="#7888AE" d="M357.6,573.3c0.5-0.7,1.1-0.7,1.8-0.5C359,573.5,358.4,573.6,357.6,573.3z" />
	<path fill="#7888AE" d="M353.7,574.2c0.5-0.7,1.1-0.7,1.8-0.5C355,574.3,354.4,574.4,353.7,574.2z" />
	<path fill="#7C8CAC" d="M566.9,529.8c0.5-0.7,1.1-0.7,1.8-0.5C568.2,530,567.6,530,566.9,529.8z" />
	<path fill="#2C2A29" d="M529.7,327.2c-0.9-0.4-0.7-1.3-0.6-2C529.2,325.8,529.4,326.5,529.7,327.2z" />
	<path fill="#373A46" d="M551.9,559.9c0-0.2,0-0.5,0-0.7c0.4,0,0.8,0.1,1.2,0.1C552.7,559.6,552.3,559.7,551.9,559.9z" />
	<path fill="#7C8CAC" d="M568.6,523c0,0.2,0,0.4-0.1,0.5c-0.3,0-0.5-0.1-0.7-0.2C568,523.2,568.3,523.1,568.6,523z" />
	<path fill="#373A46" d="M371.3,532.2c-0.3,0-0.6,0-0.9,0c0.3-0.2,0.6-0.4,0.8-0.5C371.3,531.9,371.3,532.1,371.3,532.2z" />
	<path fill="#373A46" d="M368.8,533.3c-0.2,0.2-0.4,0.4-0.6,0.6C368.4,533.7,368.6,533.5,368.8,533.3z" />
	<path fill="#D4BE9F" d="M467.2,312.2c-0.2,0.3-0.5,0.6-0.7,0.9C466.7,312.8,467,312.5,467.2,312.2z" />
	<path fill="#373A46" d="M368.1,534c-0.2,0.2-0.5,0.5-0.7,0.7C367.6,534.4,367.8,534.2,368.1,534z" />
	<path fill="#373A46" d="M367.3,534.7c-0.2,0.2-0.5,0.5-0.7,0.7C366.8,535.2,367,535,367.3,534.7z" />
	<path fill="#373A46" d="M366.5,535.5c-0.2,0.2-0.4,0.5-0.6,0.7C366.1,536,366.3,535.8,366.5,535.5z" />
	<path fill="#32292C" d="M364.1,538.6c-0.2,0.2-0.4,0.5-0.5,0.7C363.7,539.1,363.9,538.9,364.1,538.6z" />
	<path fill="#373A46" d="M363.2,540.1c-0.2,0.3-0.4,0.6-0.6,0.9C362.8,540.7,363,540.4,363.2,540.1z" />
	<path fill="#373A46" d="M362.4,541.6c-0.2,0.3-0.4,0.7-0.6,1C362,542.2,362.2,541.9,362.4,541.6z" />
	<path fill="#23252C" d="M383.2,578.3c-0.2-1.9,0.5-4-0.7-5.5c0.2-1.8,3-5.7-0.2-5.6c1.9-0.7,3.7-1.5,3.3-3.9   c0.2-0.2,0.5-0.5,0.7-0.7c1.9,1.9,0,4.2,0,6.3l0.1-0.1c-0.5-0.2-0.9-0.4-1.4-0.6c0.2,1,0.4,2,0.5,3c-1.1,0.5-0.6,1.6-0.8,2.4   C382.8,574.6,385,577.2,383.2,578.3z" />
	<path fill="#131216" d="M389.5,594.9c0.2-0.6,0.5-0.8,1.6-0.3C390.2,594.7,389.9,594.8,389.5,594.9L389.5,594.9z" />
	<path fill="#0E0C0E" d="M519.4,543.4c0.8-4.1,1.3-8.3,1.5-12.6c0.3-0.3,0.6-0.6,0.8-0.9c0.3,0.7,0.5,1.4,0.8,2.1   c1.7-0.2,3.2-0.4,4.7-0.6c0.3-0.2,0.6-0.5,0.8-0.7l0,0c0.5-0.2,1,1.2,1.6,0.1c2.6-0.3,6.3-2.1,7.8,0.9c0.5,1,0.7,2.3-0.7,3   c0.1-6.7-10.3-0.3-14.4-0.5c0.1,1.1,0.2,1.9,0.3,2.9c4.9-0.7,9.3-1.6,14.2-2.5c0,0.3,0,0.5-0.1,0.8c-4.2,2.1-8.6,2.6-13.3,3.5   C522.2,540.2,521.5,543.2,519.4,543.4z" />
	<path fill="#151519" d="M551.9,557.7c-0.3-0.3-0.5-0.5-0.8-0.8c9-7,9.9-19.8,7.1-30.1c0.3,0,0.6,0,0.8,0c1.9,4.5,1.5,10.1,1.5,15.1   c-1.9,1.4,0.4,4.2-1.5,5.6c0,0.3,0,0.5-0.1,0.8c-0.2,0.3-0.5,0.5-0.7,0.8c0,0.5-0.1,1-0.1,1.6c-0.5,0.5-1,1.1-1.5,1.6   c0,0.3-0.1,0.5-0.1,0.8C555.1,554.5,553.5,556.1,551.9,557.7z" />
	<path fill="#221F24" d="M529.7,537.9c0.6-0.3,1.1-0.5,1.7-0.8c0,2.6,3,4.1,5.4,3.7c4.9-0.8,5.1-6.2,4.8-10.2l-0.1,0.1   c0.3,0,0.6,0,0.9-0.1c0,1.9,0,3.9,0,5.8c0.5-1.8,1.3-4.3-0.1-5.7c0-0.8,0-1.6,0-2.4C549.4,537.4,536.5,548.1,529.7,537.9z" />
	<path fill="#212228" d="M542.4,528.3c0,0.3,0,0.6-0.1,0.9c-0.9,0.2-0.5,1-0.8,1.5l0.1-0.1c-1.1-0.8-1.5-1.9-1.7-3.2   c0.3,0,0.6,0,0.8,0c0.5,0.6-0.2-0.2-0.4-0.4c-0.1,0.2-0.3,0.3-0.4,0.5c-3.5-3.6-10.7-3-10.3,3.2c-0.6,1.1-1-0.2-1.6-0.1   c0.7-1.7,1.3-3.3,1.9-4.8C533.9,522.8,541.1,522.8,542.4,528.3z" />
	<path fill="#141418" d="M559.1,526.7c-0.3,0-0.6,0-0.8,0c-1.4-6.5-5.7-11.4-9.5-16.6C554.4,512.8,557.9,520.8,559.1,526.7z" />
	<path fill="#1F2020" d="M521.7,529.9c-0.3,0.3-0.6,0.6-0.8,0.9c-1.8-3-3.8-5.9-4.9-9.3c0.3-1.4-0.2-2.9,1-4.1   c0.2,0.2,0.7,0.6,0.7,0.7C516.7,522.5,520.3,526,521.7,529.9z" />
	<path fill="#151519" d="M543.9,507c0.5,0,1.1,0,1.6,0c1.1,1.1,2.1,2.1,3.2,3.2C546.7,509.8,545.2,508.6,543.9,507z" />
	<path fill="#6B7676" d="M518.6,545c0.2-0.3,0.5-0.6,0.7-0.8c0.1,0.2,0.3,0.3,0.4,0.5C519.4,544.7,519,544.8,518.6,545z" />
	<path fill="#212228" d="M528.1,530.7c-0.3,0.2-0.6,0.5-0.8,0.7C527.6,531.2,527.8,531,528.1,530.7z" />
	<path fill="#F6D9C7" d="M454.5,368.6c3.1-2.4,7.1-5.1,11.1-4.9l-0.1-0.1c5.8,13.8-0.9,29.3-3.3,43.4   c-15.8,12.6-15.9,34.1-27.4,50.3c-1,0.1-1,0.9-0.9,1.6v-0.1c-2.9,0.9-1.3,4.5-1.8,6.8c-2.4,19.9-10,39-13.2,59   c-5,15.6-2.9,19.2,2.8,34.4c-0.3,0.4-0.8,1.1-1.6,2.2c-0.4-0.7-0.6-1.1-0.9-1.6c-0.7,0.6-1.3,1-1.9,1.5c-0.9-0.2-1.8-0.5-2.7-0.7   c-2.4-7.1-4.4-14.2-8.6-20.5c8.2-23.1,3.7-48.6,11.4-72.1c1.3,0.4,2,1.9,3.6,0.8c0.7-2.7-1.2-6.3-2-8.6c2.9-9.4,4.1-19.6,7.9-27.9   c0.9,1.1,1.7,2.2,2.6,3.4c2.1-4.9,0.5-10,1.1-14.3c2.3-4.5,3.1-8.6,5.9-12.7c1.2,2.3,2.3,4.5,3.5,6.7c-0.6,0.4-0.6,0.6,0.1,0.8   c6.5-14.7,0.9-32.2,14.3-45.3C454.5,370.1,454.5,369.4,454.5,368.6z" />
	<path fill="#F6D9C7" d="M516.8,451.7c8.2,12.1-3.8,25.4-8,36.8c-4.8,13.3-16.6,21.4-22.9,33.7c-4.2,8.4-10.5,22.6-21.9,19.5   c6.2-6.4,10.8-14.3,13.4-22.9c-3.1,2.6-4.5,5.9-7.1,8.6c9.2-17.3,13.8-37.4,24.1-54.3c3.5-0.5,7.1,0.9,10-1.7   c-2.5-1.2-4.2-3.1-6.8-3.2c-6.1-0.1-11.4-4.1-17.6-3.2c-6.5-0.7-13.3,1.7-19.6-0.2c-2.6-6.8-6.5-11.8-12.8-15.7   c1-1.2,1.9-2.2,2.7-3.2c5.5-1.1,9.9-4.1,14.2-7.6C482.4,437.9,502.1,440.7,516.8,451.7z M499.5,487.9c0.2-0.9,0.4-1.9,0.7-3.5   c-1.3,1-1.8,1-2.2,2.1c0.1,2.9-0.7,5.4-3,7.4c-0.1,0.1,0.1,0.6,0.2,1C498,493.4,498.7,490.6,499.5,487.9z M510.7,472.1L510.7,472.1   c0.1,0.8,0,1.7,1.5,1.1c0.5-3.1-0.2-11.4-4.1-5.2C508.9,469.4,509.8,470.7,510.7,472.1z M498,459.4c1.6,1.1,3.2,2.2,4.7,3.2   c1.4-0.2,2.7,0.4,4.1-0.6c-0.8-1.6-1.9-2.5-3.2-3.3c-1.4,0-2.7,0-4,0c-1.4-1.3-1.9-2.4-4.1-2.4C496.5,457.7,497.3,458.5,498,459.4z    M492.3,498.5c1.5,0.2,1.5,0.2,1.5-1.8C493.2,497.5,492.8,497.9,492.3,498.5z M491.8,501.9c-1.7-0.3-1.7-0.3-1.3,1.3   C491,502.7,491.3,502.4,491.8,501.9z" />
	<path fill="#F7EFD0" d="M507.5,558.4c1.8,0.8,3.7,1.7,5.5,2.5c0.1,0.4,0.3,0.7,0.4,1.2c-13.9,6.6-28.4,4.3-41.6-1.3   c-5-0.8-12.8,1.9-16.5-1.4c0.8-2.3,1.5-4.4,2.2-6.5c7.6-1.9,15.4-3.4,23.1-5c0.6,0.7,1.1,1.2,1.6,1.9c2.3-0.7,3.9-2.8,6.4-2.9   c0.2,0.4,0.3,0.7,0.6,1.1c-1.3,1-2.6,2.1-4.1,3.2c0.5,0.6,0.7,1,1,1.3c2.2-0.1,3.5-2.6,6-1.9c-0.5,0.9-0.9,1.8-1.4,2.6   c1.9,1.4,3.4-0.5,5.3-0.1c0.1,0.5,0.3,1.1,0.6,1.9C500.4,555,503.9,557.5,507.5,558.4z" />
	<path fill="#F5D8C6" d="M516,521.5c1,3.4,3.1,6.3,4.9,9.3c-0.2,3.1-0.5,6.3-0.7,9.4c-2.4-0.8-3.9,0.9-5.5,2.3l0.1,0.1   c0.2-0.9,0.4-1.9,0.7-3c-2,0-2.8,1.7-3.9,3l0,0c-1,0.2-1,0.9-0.8,1.6l0,0c-2,0.5-2.1,0.4-2.5-1.7c3.6-0.5,0.2-5.4,0.6-7.7   c0.2-1.1,0.1-1.9-1.4-2.2c0,1.1,0,1.9,0,2.8c-0.5,0-1.1-0.1-1.6-0.1c-0.6-0.9-1.1-0.8-1.6,0.1c-0.3,0-0.5,0.1-0.8,0.1   c0-0.5,0-1.1,0-1.6l0,0c7.2-11.3,8.3-27,4.7-39.7c2.3-5,4.3-10.3,6.9-15.2C517.8,491.7,512.5,508.1,516,521.5z M516.1,538.6   c0.2-1.7,0.1-2.8-1.1-3.7C513.8,536.6,515.4,537.2,516.1,538.6z M513.8,533.3c0.5,0.2,0.8,0.3,1.1,0.4   C515.6,532.5,514.6,532.1,513.8,533.3z" />
	<path fill="#E0C7B6" d="M498,472.9c-1.2,0-2.3,0.1-3.6,0.1c-10.3,16.9-14.9,37-24.1,54.3c2.6-2.7,3.9-6,7.1-8.6   c-2.6,8.6-7.2,16.4-13.4,22.9c-1.4-0.6-0.7-2.1-1.4-2.8c12.5-21.3,13.7-47.9,29.8-66.8C494.3,472.2,496.4,471.7,498,472.9z" />
	<path fill="#F6EFD0" d="M432.1,570.5c2.6,1,5.2,2,8,3.1c0.1,1.3,0.1,2.6,0.2,3.8c-2.6,0.2-5.1,0.6-7.2,2.4   c-6.6-0.4-13.6,4.2-20,1.5c1-4.9,0.8-10.4,2.5-15c0.7-0.2,1.6-0.9,2.1-0.7c2,1.1,3.7-0.1,5.5-0.8c1.3,1.2-0.9,1.9-1.6,3.1   c2.1,1.6,3.4,0.1,5-0.7C428.4,568.3,429.8,570.5,432.1,570.5z" />
	<path fill="#8B9CBF" d="M422.9,558c-0.4-1.3-0.6-2.1-0.9-3.1c28.6-4.5,58.1-15.2,86.2-16.2c-2.6,4.4-12.8,3.3-17.7,5.3   C468,548.7,445.6,553.5,422.9,558z" />
	<path fill="#EADCB7" d="M457.6,552.9c-0.7,2.1-1.4,4.2-2.2,6.5c3.8,3.3,11.5,0.6,16.5,1.4c13.2,5.7,27.7,7.9,41.6,1.3   c-0.2-0.4-0.3-0.8-0.4-1.2c0.4,0,0.8,0.1,1.2,0.1c0.5,1.7-0.2,3.3,0.2,5c-11.1,6.6-23.6,1.8-35.5,0.2c-8.9-3.1-22.7,3.3-28.6-5.3   c0.9-2.3,1.8-4.6,2.8-7.1C454.6,553.3,456,552.8,457.6,552.9z" />
	<path fill="#1B1817" d="M443.4,494.3c-5.7,17-28.2,32.1-25.4,49.9c-0.9,0.3-0.7,1-0.8,1.7c-3.1-7.3,0.3-14.3,1.7-21.5   c0.6,1.3,0.8,1.8,1,3.5c8.1-11.7,15.3-23.9,23.4-35.5C443.3,493.1,443.4,493.7,443.4,494.3z" />
	<path fill="#2D292B" d="M415.6,566.4c-1.7,3-1,6.9-1.7,10.3c-0.5,0-1,0-1.4,0c-0.1-0.9-0.1-1.8,0.7-2.5c0.9-12.4-1.6-24.9-9.4-34.8   c0.3-0.3,0.5-0.6,0.8-0.8c6.2,7.1,10.5,18.5,9.7,27.6C414.8,566.2,415.2,566.3,415.6,566.4z" />
	<path fill="#E6DCBA" d="M461.3,536.6c-0.6,3,0.5,5.4,3,7.7c-3.4,1-6.4,1.4-9.3,2c-1.4-2.9,3.9-5.3,2.6-9   C459.1,536.9,459.7,536.5,461.3,536.6z" />
	<path fill="#E7E1C4" d="M474.4,541.1c3.2-1.6,5.6-5.9,9.6-4.7c0.4,1,0.9,2.2,1.5,3.6c-3.3,0.7-6.4,1.2-9.4,1.8   C475.4,541.6,474.9,541.4,474.4,541.1z" />
	<path fill="#292624" d="M474.3,511.8c-2.4,6.2-4.8,12.5-7.8,18.5c-0.3-0.3-0.6-0.7-0.9-1c2.6-6.4,4.9-13,7.8-19.2   C473.6,510.6,473.4,511.5,474.3,511.8z" />
	<path fill="#CDB5A6" d="M508.3,542.6c0.4,2.1,0.5,2.2,2.5,1.7c-0.4,2.8-4.3,1.1-5.7-0.2c0-0.5,0-1,0-1.4   C506.2,542.6,507.3,542.6,508.3,542.6z" />
	<path fill="#D6B8A8" d="M414.8,564.7c-1.1-1.5-0.2-3.1-0.2-4.6c0.9,0.2,1.8,0.5,2.7,0.7C416.5,562.2,415.7,563.4,414.8,564.7z" />
	<path fill="#AC958B" d="M509,535.3c0,0.6,0,1.2,0.1,1.8c-0.5-0.5-1-1.1-1.5-1.6c0-0.9,0-1.7,0-2.8c1.5,0.3,1.6,1.2,1.4,2.2   c-0.1,0-0.2,0.1-0.3,0.1C508.8,535.1,508.9,535.2,509,535.3z" />
	<path fill="#373533" d="M501,535.4c0.5-1.9,1-3.8,1.6-5.8c0.4,1.1-0.4,2.5,0.8,3.4c0,0.3,0.1,0.6,0.1,0.8l0,0   c-0.5,0.5-1,1.1-1.5,1.6C501.7,535.4,501.3,535.4,501,535.4z" />
	<path fill="#968E81" d="M474.4,541.1c0.5,0.3,1.1,0.6,1.6,0.8c-1.1,1-2.4,0.8-4.2,0.5C472.9,541.8,473.6,541.5,474.4,541.1z" />
	<path fill="#CDB5A6" d="M509.8,539.3c0,1.3,0.5,3.5-1.5,3.3C508.8,541.5,509.3,540.4,509.8,539.3z" />
	<path fill="#DBC2B2" d="M502,535.4c0.5-0.5,1-1.1,1.5-1.6c0,0.5,0,1.1,0,1.6C503,536.1,502.5,536.3,502,535.4z" />
	<path fill="#777566" d="M419.4,564.2c1-1.5,0.7-1.8,2-1.6C421.2,563.8,421,563.5,419.4,564.2z" />
	<path fill="#DBC2B2" d="M504.3,535.4c0.5-0.9,1-0.9,1.6-0.1C505.4,535.3,504.9,535.4,504.3,535.4z" />
	<path fill="#E0C7B6" d="M406,539.6c-0.5-0.4-0.9-0.7-1.4-1.1c4.9-27.8,2.7-57.4,11.9-84.6c6.8-19,8.8-40.4,21.5-56.9   c-0.7-3.2,1.5-6,2-9.8c-4.4,2.5-3,6.9-4.8,10.9c-4.2-5.5-0.3-12.3,1.9-17.8c4.3-5.5,11.8-7.8,17.4-11.9c0,0.8,0,1.6,0,2.1   c-12.3,12.3-8.9,29.5-13.5,44.5c-0.3,0-0.5,0-0.8,0c-1.3-2.1-2.3-4.4-3.6-6.7c-2.8,4.1-3.7,8.2-5.9,12.7c-0.6,4.3,1,9.4-1.1,14.3   c-0.9-1.2-1.8-2.3-2.6-3.4c-3.9,8.3-5,18.5-7.9,27.9c0.8,2.3,2.8,5.9,2,8.6c-1.6,1.1-2.4-0.3-3.6-0.8c-6.6,20.3-4.2,41.9-8.8,62.4   c-0.2-0.4-0.3-0.9-0.5-1.4c-1.7,2.1-1.6,2.4,0.3,2.9c-0.3,0.9-0.6,1.8-0.8,2.7c-0.4-0.1-0.7-0.1-1-0.2c-0.6,1.2-1.4,3,0.4,3.9   C406.6,538.4,406.3,539,406,539.6z M437.6,405.3c0.5-2.2,1.6-3.9-0.2-5.5C436.6,401.5,436.8,402.9,437.6,405.3z M417.5,465.4   c-0.5-2.6-0.5-2.6-1.5-3.7c-0.3,0.2-0.7,0.3-1,0.5C415.7,463.8,415.7,463.8,417.5,465.4z M427.7,427.7c0.4-2.1,0.4-2.1-0.9-3.4   C426.4,425.7,426.4,426.8,427.7,427.7z M428.8,429.8c-0.2,0-0.4,0-0.6,0c0.1,0.6,0.1,1.1,0.2,1.7c0.2,0,0.4,0,0.5,0   C428.9,430.9,428.8,430.4,428.8,429.8z M442.3,381.2c-0.5,0-0.8-0.1-1.1-0.1c0,0.3,0,0.7,0,1.5C441.8,381.9,442,381.6,442.3,381.2z    M408.4,526.1c-0.1-0.2-0.2-0.4-0.3-0.7c-0.5,0.3-0.5,0.6-0.2,1C408.1,526.4,408.3,526.3,408.4,526.1z" />
	<path fill="#E1C7B6" d="M398.2,415.8c9.6-3.3,14.5-13,22.8-18.2c0.7,3.9,0.3,7.8,0.3,11.8c0.6-0.2,1-0.4,1.4-0.6   c0.9,0.8,1.2,2,1.7,3c-1.8,1.5,0.1,4.1-1.8,5.5c0.1-1.1,0.3-2.3-1.2-3c-0.7,1.5-0.1,2.4,1.2,3c-0.4,0.6-0.9,1.2-1.3,1.8   c-0.9-0.6-1.7-1.1-2.4-1.6c-1.8,0.9-4.4,0.8-2.5,3.2c-0.8,1.8-1.8,3.5-3.8,4.5c-0.5-1-1.1-1.9-1.6-2.8c-3.7,2.3-7.9,5.3-11.4,7.9   c-4-1.7-6.9-6.5-7-11.3C394,417.3,396.5,417.1,398.2,415.8z M418.4,415c-2.2,0.5-2.1,1.2-1.4,2.3   C417.4,416.7,417.7,416.1,418.4,415z M421.9,412c-0.1-0.2-0.2-0.4-0.3-0.6c-0.4,0.1-0.2,0.5-0.2,0.8   C421.6,412.1,421.7,412,421.9,412z" />
	<path fill="#F5D8C6" d="M422.7,417.4c1.9-1.4-0.1-4,1.8-5.5c0.6,0.8,1.3,1.5,2,2.4c-1.1,3.4-1.7,6.7-4.4,9   c-0.2,1.5,0.2,3.1-0.1,4.5c-1.3,0.8-0.6,2.1-0.7,3.3c-0.2,2.9-1.4,5.5-2.1,8.4c-7.1-2.3-13.5-4.8-19.5-9.1   c3.5-2.6,7.7-5.7,11.4-7.9c0.5,0.9,1,1.8,1.6,2.8c2-1,3-2.7,3.8-4.5c1.2-0.5,0.7-1.5,0.7-2.4c0.6-0.2,1.2-0.5,1.8-0.8   c0.7,0.5,1.5,1,2.4,1.6C421.8,418.5,422.3,417.9,422.7,417.4L422.7,417.4z" />
	<path fill="#D4BE9F" d="M464.7,334.3c-0.3-7.4-2.9-19.7,6.4-22.4c-0.8,2.1-0.8,2.1,0.6,3.3c-1.5,2.6-2.8,5.2-1.9,8.7   c1.4-4.3,1.9-8.7,6.1-10.9c-0.5,2.5-3.9,5.5-1.7,7.8c-0.6,3.1-1.1,6.2-1.7,9.4c-2.6,5.6-0.7,12.5-1.7,18.7c-0.1,0-0.2,0-0.3,0   c-0.1-1.4-0.3-2.9-0.4-4.3c-0.1,0-0.2,0-0.3,0c-0.1,1-0.2,2.1-0.4,3.1c-0.2-0.2-0.5-0.5-0.7-0.7c0.1-4.8,0.3-9.6-0.6-14.5   c-0.1,0.6-0.2,1.2-0.2,1.8c-0.4-0.1-0.9-0.2-1.4-0.3c-0.1,1.1-0.5,2.1,0.6,2.8c0.2,4.3,0.1,8.4-0.2,12.8   C464.6,343.4,465.5,338.9,464.7,334.3z" />
	<path fill="#E8D78D" d="M431.6,387.4c-0.2,2.9-0.4,5.8,0.8,8.6c-0.5,1.7,1.4,2.7,1.4,4.2c-2.3,3.8-4.3,7.5-6.2,11.4   c-4-3.3-5.2-8.4-4-17c2.2-2.6,4.6-5.4,7-8.2C430.9,386.8,431.2,387.1,431.6,387.4z M427.5,398.6c-0.2-0.3-0.3-0.4-0.4-0.6   C426,398.7,426.5,399.5,427.5,398.6z M430.8,395.8c-0.8-0.7-1.6-0.3-1.4,0.5C429.9,396.1,430.3,396,430.8,395.8z" />
	<path fill="#CFC2A3" d="M484.4,312.1c1.1-2.2,4.5-5.3,6.5-2.6c-0.9,0-2.9-0.1-2.4,1.2c5.1,2.2,10.3,3.7,15.1,6.2   c-0.3,0.5-0.6,1-0.8,1.5l0,0c-0.8,0.4-0.5,1.6,0,0.7c0.3,0.3,0.6,0.5,0.9,0.8c0,0.3,0,0.6,0,0.8c-0.8,0-1.6,0-2.4,0   c-0.7-0.6-1.4-1.2-2.2-1.9c0.8-0.3,1.4-0.5,2-0.7c-3.1-4.8-6.6-0.9-9.4-2.7c0.6-0.8,0.6-0.8-0.7-1   C489.7,311.9,486.6,314,484.4,312.1z" />
	<path fill="#E0C6B5" d="M470.3,362.1c5.1-2.9,13.9-0.8,13.6-9.5c0.2,0,0.5,0,0.6,0c0.5,3.4,0.3,6.8,0,10.1   c-0.2,0.1-0.4,0.1-0.7,0.1c-0.3-0.2-0.7-0.7-0.8-0.7c-3.3,1.2-6.7,0.5-10.1,0.4c-0.1,0.9-0.1,1.8-0.2,2.7   C472.1,364.1,472.3,361.4,470.3,362.1L470.3,362.1z" />
	<path fill="#CCB799" d="M482,323.4c-0.8-0.7-1.6-1.4-2.3-2c0.1-1.9,0.5-3.3,1.6-4.6c3.8,3.8,7.4,6.4,11.9,9.6   C488.5,326.6,486.2,323.1,482,323.4z" />
	<path fill="#1F1C18" d="M431.6,404c0.7-1.2,1.5-2.4,2.2-3.8c0-1.5-1.9-2.4-1.4-4.2c1.1-0.6,0.5-1.7,0.8-2.5c0.5,1.9,0.8,2.8,2,4.6   c1.8-4,0.4-8.4,4.8-10.9c-0.5,3.8-2.7,6.6-2,9.8c-2,2.8-3.8,5.4-5.6,7.9C432.1,404.7,431.8,404.3,431.6,404z" />
	<path fill="#CCBB9D" d="M482,315.3c0.1-0.2,0.1-0.4,0.2-0.6c0.5,0,1,0,1.5-0.1l0,0c1.2,2.7,4.8,5.6,8,5.5c0.6,1.1,0.9,1.1,1.6,0   c2.4,1.6,5.2,2.2,7.7,3.8c-1.8,0-3.5,0-5.3,0c-0.7-1.2-2.1-0.5-3.2-0.6l0,0C488.6,320.9,484.4,319.4,482,315.3z" />
	<path fill="#C4B093" d="M471,357.3c1.7-4.4,0.2-9.2,2.4-13.4c0.9,4.9,1,9.8,1,15c-1.4,0.2-2.9,1.4-4,0.1   C470.6,358.4,470.8,357.8,471,357.3z" />
	<path fill="#3A332B" d="M472,348c-0.2,2.6,0.4,5.3-0.8,7.8c-0.1-1.1-0.1-2.3-0.2-3.4c-0.1,0-0.3,0-0.4,0c-0.4,1.4,0.2,3.2-1,4.2   c-0.2-0.1-0.4-0.3-0.7-0.4c-0.1,1-0.6,2,0.5,2.7c-0.3,0.5-0.6,1-1,1.5c-0.5-0.6-0.8-1-1.1-1.4c1.2-4.7,2-9.5,2.4-14.4   c0.1,0,0.2,0,0.3,0c0.1,1.4,0.3,2.9,0.4,4.3c0.1,0,0.2,0,0.3,0c0.1-0.9,0.2-1.8,0.4-2.7C472.1,346.6,471.9,347.4,472,348z" />
	<path fill="#F2DBBB" d="M474.2,320.8c-2.5-2.6,2.1-5.8,1.7-8.7l-0.1,0.1c2.1-0.5,4.2-1.1,6.4-0.8l-0.1-0.1   C479.4,314.6,475.8,316.7,474.2,320.8z" />
	<path fill="#EBDCBC" d="M490.9,309.5c-0.5-0.4-1.1-0.8-1.6-1.3c4.2-1.2,7.8,2.5,11.8,2.4c0.5,0.5,1.1,1,1.6,1.5   c-0.6,0.6-1.1,1.2-1.7,1.7C497.7,312.4,494.3,311,490.9,309.5z" />
	<path fill="#CEC0A4" d="M484.5,358.9c0.4-1.6,0.2-3.2,0-4.8c0.4,0.7,0.8,1.4,1.5,2.7c0-3.4,0-6,0-8.5c-1.3-0.6-2.5-1-3.7-1.6   c-0.1,0.4-0.2,0.7-0.3,1.1c-0.3-0.3-0.6-0.5-0.9-0.8c0.1-0.9,0.1-1.8,0.2-2.7c1.6,0.6,3.2,1.2,4.7,1.8c0.5,1.1,1,2.2,1.5,3.3   c-1.4,2.4-0.5,5.3-0.7,7.9l0,0c-0.8,0.3-0.8,0.9-0.7,1.6C485.6,358.9,485.1,358.9,484.5,358.9z" />
	<path fill="#D1BA9B" d="M479.1,334.2c-0.4-1.4-1.4-2.8-0.7-4.5c0.5,0,0.9-0.1,1.4-0.1h-0.1c0,0.3,0,0.5,0,0.8c4,2.4,5,1.9,3,7.1   c-0.2,0-0.4,0-0.6,0.1l0,0C481,336.5,479.8,335.5,479.1,334.2z" />
	<path fill="#CEBB9C" d="M480.6,323.9c0.2,0.1,0.4,0.1,0.7,0.1c2.1,1.5,4.8,2.1,7.1,3.2c0,0.4,0,0.9,0,1.3c-0.8,0.3-1.5,0.6-2.3,1   c-1-0.5-2.1-0.9-3.3-0.9h0.1c-0.9-1.4-2.2-2.6-3.3-3.9C480,324.6,480.3,324.3,480.6,323.9z" />
	<path fill="#E7EAEA" d="M479.7,351c0.5,0.1,1,0.2,1.6,0.3c1.1,2.4-0.3,7.4-3.5,6.7C476.8,355.2,478.2,353,479.7,351   C479.8,350.9,479.7,351,479.7,351z" />
	<path fill="#93816D" d="M484.4,312.1c1.4,0.5,2.6,1.6,4.1,0.9c0.3,0.5,0.5,0.9,0.8,1.4c-0.6,1.5,1.7,2.1,2.5,3.1   c-0.3,0.3-0.6,0.6-0.9,0.8c0,0.3,0,0.6,0,0.8c-2.1-2-4.9-3-7.2-4.7l0,0c0-0.6,0-1.1-0.1-1.7C483.9,312.6,484.1,312.4,484.4,312.1z" />
	<path fill="#B3A589" d="M484.4,328.9c0.6,0.3,1.2,0.5,1.8,0.8c-1.5,1.2-1.5,3.2-2.4,4.7c0-0.6-0.1-1.3-0.1-1.8   c-1-1.4-3-0.9-3.9-2.3c0.9-0.3,0.4-0.6,0-0.8h0.1c-0.6-1.2-2-2.2-1.5-3.8c1.4,1.3,2.8,2.6,4.7,3H483   C483.6,329.7,483.7,329.7,484.4,328.9z" />
	<path fill="#58473C" d="M482,315.3c2.4,4.1,6.7,5.6,10.5,8c-0.8,0.3-1.6,0.5-2.5,0.8c-3.4-1.8-5.9-4.7-8.7-7.2   C481.5,316.3,481.8,315.8,482,315.3z" />
	<path fill="#494136" d="M467.3,343.1c-0.3-3.6,0-7.1,0.8-10.6c0.9,4.8,0.7,9.7,0.6,14.5c-0.2,0-0.5,0-0.7,0.1   C468,345.7,468.1,344.3,467.3,343.1z" />
	<path fill="#43372E" d="M486.1,346.1c-1.5-0.6-3-1.2-4.7-1.8c-0.1,0.9-0.1,1.8-0.2,2.7c-1.5-1.2-0.7-3.4-0.2-4.7   c-0.5-0.8-1-1.5-1.5-2.2c0.4-0.4,0.7-0.7,1.1-1.1h-0.1c1.1,1,2.1,2.2,3.1,3.3v-0.1c-0.5,0.1-0.9,0.1-1.7,0.2c1.3,1.3,2.4,2.1,4,2   C486,345,486.1,345.6,486.1,346.1z" />
	<path fill="#AAABAB" d="M476.8,324.1c0,3.3-0.4,6.4-0.2,9.5c-1.1,1.4-0.8,3.2-0.9,4.9c-1.5-4.9-0.5-10.2,0.3-15.2   C476.3,323.6,476.5,323.8,476.8,324.1z" />
	<path fill="#938570" d="M468,347.1c0.2-0.1,0.4-0.1,0.7-0.1c0.2,0.2,0.5,0.5,0.7,0.7c-0.8,3.5-0.4,10.8-3.4,12.6   C466.3,355.9,468.5,351.7,468,347.1z" />
	<path fill="#3A3028" d="M488.4,327.3c-2.4-1.1-5-1.7-7.1-3.2c0.3-0.2,0.5-0.5,0.8-0.7c3.5-0.4,7,2.6,9.6,4.6   C490.6,327.8,489.5,327.5,488.4,327.3z" />
	<path fill="#666354" d="M511.4,305.6c1.9,1.1,3.7,2.2,5.6,3.3c-0.2,0.2-0.5,0.5-0.7,0.7c-0.7-0.4-1.4-0.7-2.1-1.1   c-0.5,0.1-1.2,0.2-1.8,0.4c-1.1-1.1-2.6-1.4-4-1.7c-0.1-0.4-0.1-0.9-0.1-1.3C509.4,306.6,510.4,305.7,511.4,305.6z" />
	<path fill="#473F35" d="M472,348c-0.2-0.7,0-1.5-0.9-1.8c0.5-4.1-1.2-9,0.7-12.7c1.2,0.5,0.8,1.5,0.8,2.4c-1.1,2.3-1,7.2,0,9.5   C472.5,346.3,472.3,347.2,472,348z" />
	<path fill="#231C19" d="M482.1,347.8c0.1-0.4,0.2-0.7,0.3-1.1c1.2,0.5,2.3,1,3.7,1.6c0,2.5,0,5.1,0,8.5c-1.2-2.1-2.1-2.9-1.4-5   c1-0.8,0.7-1.8,0.3-3c-0.8,0.1-1.7,0.1-2.6,0.2C482.3,348.5,482.2,348.2,482.1,347.8z" />
	<path fill="#9D9A83" d="M492.6,305.9c1.9-1.2,4.1-1,6.2-0.9c-0.7,0.9-1.4,1.8-2.4,2.4c0,0.2,0,0.4,0,0.6c-1.4-0.4-3-0.4-4-1.4   C492.4,306.3,492.5,306.1,492.6,305.9z" />
	<path fill="#867A68" d="M472.7,345.4c-0.9-2.3-1-7.3,0-9.5C472.7,339.1,474.6,342.5,472.7,345.4z" />
	<path fill="#F3F3F3" d="M475.7,338.5c0.1-1.7-0.2-3.4,0.9-4.9c0.5,2.9,1.1,5.8,0.6,9.4C476.5,341.1,476.1,339.8,475.7,338.5z" />
	<path fill="#3C372F" d="M476.1,355.1c-1.2-2.3-1.2-2.3-0.4-5.8C477.3,351,476.8,353,476.1,355.1z" />
	<path fill="#2C211D" d="M494,307.4c1.7,0.3,3.3,0.8,4.8,1.6c-0.3,0.3-0.6,0.5-0.9,0.8c-1.6-0.5-3.2-1-4.8-1.6   C493.4,308,493.7,307.7,494,307.4z" />
	<path fill="#E3E3E3" d="M479.6,346.3c0.4,1.7-0.7,3.1,0.1,4.7l0.1-0.1c-0.5,0-1,0.1-1.5,0.2c-0.8-1.3-0.1-2.7,0-4   C478.8,346.8,479.2,346.5,479.6,346.3z" />
	<path fill="#8C907B" d="M478.3,308c1.1,0.1,2.3-0.2,3.1,0.8c-0.3,0.3-0.6,0.5-0.9,0.8c-1.9-0.8-3.9-0.8-5.9-0.7   c-0.2-0.3-0.3-0.5-0.5-0.8l0,0C475.7,308.1,477.1,308.1,478.3,308z" />
	<path fill="#49362D" d="M483,328.8c-1.9-0.4-3.3-1.8-4.7-3c0.2-0.3,0.5-0.6,0.7-0.9c0.2,0,0.4,0,0.6,0.1   C480.8,326.1,482,327.3,483,328.8z" />
	<path fill="#5D8C78" d="M474.3,308.2c2,2-2.2,1.2-0.7,2.4c-0.5,0.2-1.1,0.5-1.6,0.7c-0.3-0.2-0.6-0.5-1-0.7   C471.7,309.3,472.9,308.6,474.3,308.2z" />
	<path fill="#868C78" d="M508.2,305.9c0,0.2,0,0.3,0,0.5c-2-0.1-4.3-0.7-5.5-1.5l0,0C504.6,304.6,506.4,305.7,508.2,305.9z" />
	<path fill="#949A9A" d="M479.6,346.3c-0.4,0.3-0.9,0.5-1.3,0.8c0-1.2,0-2.3,0-3.8C479.4,344.2,479.9,345.1,479.6,346.3z" />
	<path fill="#636565" d="M476.8,324.1c-0.3-0.3-0.5-0.5-0.8-0.8c-0.2-1.2,0.4-1.9,0.9-3C477.5,322.3,477.5,322.3,476.8,324.1z" />
	<path fill="#3F372E" d="M480.7,339c-0.4,0.4-0.7,0.7-1.1,1.1c-1.6-2.6,0.2-2.5,2.5-2.5l0,0C481.6,338,481.2,338.5,480.7,339z" />
	<path fill="#D6CFB2" d="M480.6,309.6c0.3-0.3,0.6-0.5,0.9-0.8c2,0.6,2.1,0.8,0.7,2.5l0.1,0.1C481.6,310.8,481.1,310.2,480.6,309.6z   " />
	<path fill="#E0C7B6" d="M422,427.1c0.2-1.7-0.7-3.7,0.9-4.8c-0.1,1.5-0.2,3-0.3,4.4C422.4,426.8,422.2,427,422,427.1z" />
	<path fill="#7D8E7A" d="M498.8,305c1-1.2,2.5-0.6,3.8-0.6c0,0.2,0.1,0.4,0.1,0.6l0,0C501.4,305,500.1,305,498.8,305L498.8,305z" />
	<path fill="#5D8C78" d="M478.3,308c-1.4,0-2.8,0.1-4.1,0.1C475.7,306.8,477,307.1,478.3,308z" />
	<path fill="#D5C98E" d="M465.7,362.9c0.3,0.1,0.5,0,0.7-0.1c0.5,0,1,0,1.5,0l0.2,0.3c-0.1,0.4-0.1,0.9-0.2,1.3   c-0.8-0.2-1.6-0.5-2.4-0.7l0.1,0.1C465.6,363.4,465.6,363.2,465.7,362.9z" />
	<path fill="#857E71" d="M484.7,351.7c-0.1,0.3-0.2,0.6-0.2,0.9c-0.2,0-0.5,0-0.6,0c-0.2-0.9-0.7-1.7-0.1-2.5   c0.3,0.1,0.5,0.1,0.8,0.2C484.5,350.7,484.6,351.2,484.7,351.7z" />
	<path fill="#848670" d="M479.6,324.9c-0.2,0-0.4-0.1-0.6-0.1c0-0.6-0.1-1.2-0.2-2.3c0.9,0.7,1.3,1.1,1.8,1.5   C480.3,324.3,480,324.6,479.6,324.9z" />
	<path fill="#AAAB7D" d="M431.6,387.4c-0.3-0.3-0.7-0.6-1-1c0.4-0.5,0.9-1,1.4-1.6C432.4,386,432.3,386.7,431.6,387.4z" />
	<path fill="#73695A" d="M469.5,358.8c-1.2-0.7-0.6-1.7-0.5-2.7c0.3,0.2,0.5,0.3,0.7,0.4C469.6,357.3,469.5,358.1,469.5,358.8z" />
	<path fill="#636A61" d="M422.7,408.8c-0.4,0.2-0.8,0.3-1.4,0.6c0-0.6,0-1.1,0-1.5C421.9,408,422.6,408,422.7,408.8z" />
	<path fill="#D5C98E" d="M468.1,362.2c0.7,0,1.5,0,2.2,0v-0.1c0,0.3,0,0.6-0.1,0.8c-0.7,0.1-1.4,0.1-2.1,0.2l-0.2-0.3   C468,362.6,468.1,362.4,468.1,362.2z" />
	<path fill="#443930" d="M483.6,312.9c0,0.6,0,1.1,0.1,1.7c-0.5,0-1,0-1.5,0.1C482.7,314,483.2,313.5,483.6,312.9z" />
	<path fill="#473F35" d="M472,332c-0.2-0.7-0.1-1.3,0.5-1.8C472.8,330.9,472.8,331.5,472,332z" />
	<path fill="#1B1914" d="M465.7,362.9c0,0.3,0,0.5-0.1,0.8c-0.5,0-1.1-0.1-1.6-0.1C464.3,362.8,465,362.8,465.7,362.9z" />
	<path fill="#1B1914" d="M468.1,362.2c-0.1,0.2-0.2,0.4-0.3,0.6c-0.5,0-1,0-1.5,0C466.8,362,467.4,362,468.1,362.2z" />
	<path fill="#3A332B" d="M471,357.3c-0.2,0.6-0.4,1.1-0.5,1.7C470.3,358.3,470.3,357.7,471,357.3z" />
	<path fill="#636A61" d="M423.4,409.6c-0.2-0.3-0.5-0.5-0.7-0.8C423.3,408.8,423.5,409.1,423.4,409.6z" />
	<path fill="#B5A085" d="M482.1,337.5c-0.3,0-0.6,0-0.9,0c0.1-0.2,0.1-0.5,0.1-0.8C481.6,337,481.8,337.2,482.1,337.5z" />
	<path fill="#3F372E" d="M479.8,336c-0.1,0.2-0.3,0.3-0.4,0.5C478.9,336,479.5,336,479.8,336C479.7,335.8,479.8,336,479.8,336z" />
	<path fill="#3F372E" d="M479.7,335.1c0.2,0.3,0.4,0.5,0.7,0.8c-0.1,0-0.4,0-0.6,0l-0.1-0.1C479.7,335.6,479.7,335.4,479.7,335.1z" />
	<path fill="#3F372E" d="M479.1,334.2c0.2,0.3,0.4,0.6,0.6,1C479.5,334.8,479.3,334.5,479.1,334.2z" />
	<path fill="#30241F" d="M487.6,308.9c-0.2,0.2-0.5,0.3-0.7,0.5C487.1,309.3,487.4,309.1,487.6,308.9z" />
	<path fill="#30241F" d="M488.6,308.3c-0.3,0.2-0.6,0.4-0.9,0.7C488,308.7,488.3,308.5,488.6,308.3z" />
	<path fill="#2C211D" d="M492.4,306.6c0.3,0.2,0.6,0.5,0.9,0.7C493,307.1,492.7,306.8,492.4,306.6z" />
	<path fill="#231C19" d="M484.5,350.2c-0.3-0.1-0.5-0.1-0.8-0.2C484.1,349.3,484.3,349.6,484.5,350.2z" />
	<path fill="#2C211D" d="M492.6,305.9c-0.1,0.2-0.1,0.5-0.1,0.7c-0.2-0.2-0.3-0.3-0.5-0.5C492.1,306,492.3,305.9,492.6,305.9z" />
	<path fill="#453C34" d="M502.7,305c0-0.2-0.1-0.4-0.1-0.6c0.3,0.2,0.7,0.3,1,0.5C503.3,304.9,503,304.9,502.7,305z" />
	<path fill="#F6D9C7" d="M378.1,460.2c5.5-16.8,22.7-29.1,40-18.8c-1.5,9.1-4.3,19-9.3,26.8C398.2,467.5,387.1,466.5,378.1,460.2z" />
	<path fill="#E1C7B6" d="M378.1,460.2c8.9,6.4,20.1,7.3,30.7,7.9c0.7-0.8,1.3-1.6,2-2.3c-0.2,4.4-1.5,8.8-2.2,13.3   c-12.4,3-26.2-1.6-33.5-12.2C375.9,464.6,376.7,462.2,378.1,460.2z" />
	<path fill="#EE8969" d="M379.1,453.9c-2.1,3.1-4.2,6.3-6.3,9.4c-7.8-7.7-8.3-26.8,0.8-33.7c1.5,1.3,0.1,2.8,0.2,4.3   c1.1,0.1,2.1,0.2,3.1,0.3c0.7,1.2,1.9,0.5,2.8,0.8c0.1,0.2,0.1,0.4,0.1,0.7c-1.8,0.2-3.6-0.4-5.6,0.6c0.6,5.8,1,12.1,4.8,16.8   C379.1,453.4,379.1,453.6,379.1,453.9z" />
	<path fill="#FE9976" d="M379.1,453.1c-3.8-4.8-4.2-11-4.8-16.8c2-1,3.8-0.4,5.6-0.6c1.2,2.4-0.7,5.3,2.1,7c0.3-1.6,0.7-2.8,2.2-3.2   c0.2-0.1,0.2-0.6,0.3-0.9c-1,0.1-1.8,0.1-2.9,0.2c0-1.4,0-2.5,0-3.7c7.1,0.1,14.8-3.2,21.4,0.4c-8.5,0.9-14.3,5.4-19.2,11.4   c-0.5-0.1-0.9-0.3-1.4-0.4C382.5,449.3,380.8,451.2,379.1,453.1z" />
	<path fill="#EB8F6E" d="M377,434.2c-1-0.1-2-0.2-3.1-0.3c-0.2-1.5,1.3-3.1-0.2-4.3c4.8-4.2,10.6-6.4,16.4-9.1   c1.2,1,0.7,2.5,1.3,3.5c-1.2,1-2.4,2-3.6,3c-0.2-0.1-0.5-0.1-0.7,0c-0.3,0.3-0.5,0.5-0.8,0.8l0,0c-2.1,1-4.4,0.8-6.6,0.8   c2,1.6,5.7,0.6,6.6,3.2c-3.6,0.4-7-1.1-10.7-0.6c0,0.5,0,0.8,0,1.2c2.1,0.1,4.2,0.2,6.3,0.3C380,433.3,378.6,433.4,377,434.2z" />
	<path fill="#E38768" d="M383.9,428.6c0.8-0.3,1.6-0.5,2.4-0.8c0.5,1.2,1.5,0.7,2.4,0.8c0.5,0.9,1.1,1.1,2.1,0c-0.8,0-1.5,0-2.1,0   c0.3-0.5,0.5-1,0.8-1.6c0.8-0.4,1.7-0.8,2.4-1.1c1.8,1.7,3.6,3.4,5.4,5.1c-2.5,1.1-5.7-0.7-8.6-0.1   C387.5,429.3,385.4,429.7,383.9,428.6z" />
	<path fill="#562A21" d="M388.8,430.9c2.9-0.5,6.1,1.3,8.6,0.1c0.5,0.3,1,0.6,1.6,0.9c-0.6,0.5-1.1,0.9-1.5,1.3   c-3.5-0.4-6.9-0.7-10.3-1.5C387.4,430.9,388.1,431,388.8,430.9z" />
	<path fill="#4E3C35" d="M379.1,453.1c1.7-1.9,3.4-3.8,3.4-6.7c0.4,0.1,0.9,0.3,1.4,0.4c-0.3,0.8-1.3,1.8-0.1,2.3   c-1.3,2.1-2.6,4.2-3.9,6.3c-0.1-0.6,0.1-1.4-0.8-1.6C379.1,453.6,379.1,453.4,379.1,453.1z" />
	<path fill="#453B36" d="M415.6,453.1c1.2-2.8,1.2-6.1,2.3-8.9c0,1.2,0.1,2.3,0.8,3.2c-0.6,2.2-0.7,4.6-2.2,6.5   C416.2,453.7,415.9,453.4,415.6,453.1z" />
	<path fill="#EB8F6E" d="M391.8,432.6c1.9,0.2,3.7,0.3,5.6,0.6c0.3,0.3,0.6,0.5,0.9,0.8c-3,0-6,0-9,0c0-0.3,0.1-0.5,0.3-0.7   C390.4,433.2,391.3,433.6,391.8,432.6z" />
	<path fill="#A7634C" d="M388.7,428.5c-0.9-0.1-1.9,0.4-2.4-0.8l0,0c0.3-0.3,0.5-0.5,0.8-0.8c0.8-0.1,1.6,0.1,2.4,0   C389.2,427.5,388.9,428,388.7,428.5L388.7,428.5z" />
	<path fill="#E0C7B6" d="M421.2,431c0.1-1.1-0.6-2.4,0.7-3.3C422,428.9,422.1,430.1,421.2,431z" />
	<path fill="#8B9EBF" d="M385.6,563.2c0,0.5-0.1,1.1-0.1,1.6c-14.4,2.4-28.6,5.8-43,8c-0.2-0.4-0.4-0.8-0.7-1.2   c1.9-1.5,3.9-0.6,5.6-1.9C360.1,568.6,373.2,562.7,385.6,563.2z" />
	<path fill="#8293B4" d="M385.4,571.1c-0.2-1-0.4-2-0.5-3c0.5,0.2,1,0.4,1.4,0.6c1.5,4.1,4.9,7.3,3.8,12.5c-0.7,0.1-1.2,0.1-1.9,0.2   C387.3,577.9,386.4,574.5,385.4,571.1z" />
	<path fill="#7B8DAD" d="M386.3,568.8c0.9-3.9,1.8-7.8-3.6-7.5C386.7,554.5,393.9,567.8,386.3,568.8z" />
	<path fill="#4C505D" d="M408.5,547.3c4.7,8.3,5.1,17.6,4.7,26.9c-1.5,1.8-4.2,2.1-6.2,3.2c1-9.4-0.3-18.5-3.2-27.7   C404.2,547.5,406.5,547.1,408.5,547.3z" />
	<path fill="#FEF0A7" d="M468.1,363c0.7-0.1,1.4-0.1,2.1-0.2c0.2,7.2,1.1,14.1,1,21.4L471,384c-0.6,11-2.8,23-1.4,34.1   c4.9,14.6,26,9.2,28.5-4.7c2.4,2.8-0.8,6.9-0.1,10.3c-0.7,2.9-3.1,5.4-4.5,8c-13.3,0.8-31.1,5.2-42.3-4.9c1.2-4.7,2.6-9.2,5.2-13.4   c11.7-4.1,15.8-39.3,11.6-49.3C468,363.9,468.1,363.5,468.1,363z" />
	<path fill="#F6D9C7" d="M506,379.4c7.3,8.4,8.8,16,5.6,27c-2.4,13.1,1.5,26.7,2.1,39.8c-3.7,0.1-8.4-2.8-11.9-4.8   c0.6-1.3,1.7-2.6,0.1-4c-0.6-6.1,0.5-12.2,0.7-18.1c-2.1-1.7-2.1-4.8-0.5-7.1c0.9-0.3,1.8-0.5,2.8-0.8c-0.1-1-0.9-0.8-1.4-1.1   c-2-11.6-0.6-22.9-1.8-35C503.5,376.8,504.7,378.1,506,379.4z M503.5,384c-1.4,1.3,2.7,0.9,2.8-0.5   C504.6,383.4,504.6,383.4,503.5,384z M508,413.2c0.3-0.5,0.3-0.7-0.2-1C507.5,412.7,507.4,413,508,413.2z" />
	<path fill="#E6D48B" d="M451.2,426.9c11.2,10.1,29,5.7,42.3,4.9c-7.4,10.3-31.1,3.1-41.5,2.8c0.7,0.4,1.2,0.6,1.7,0.9   c-0.2,0.4-0.6,0.7-0.9,1C445.8,436.2,448.7,430.8,451.2,426.9z" />
	<path fill="#DCC3B2" d="M502,437.2c1.6,1.4,0.4,2.7-0.1,4c-1.7-0.6-3.4-1.1-5.3-1.7c0.4-2.9,0.4-5.3-0.1-8.3   c0.5-1.1,1.1-2.2,1.6-3.4c0.7,0.9,1.4,1.8,2.4,3.2c-0.1-2.2,0.7-4.1-1.5-4.9c1.2-3,1.5-6.1,1.6-9.2c0.2-0.1,0.4-0.2,0.6-0.3   c-0.2,1.3,1.1,1.6,1.6,2.6c-0.2,5.7-1.2,11.5-0.8,17.3c-0.4,0.1-0.9,0.1-1.3,0.2C501.1,437.1,501.1,438.5,502,437.2z M500.3,434   c0.2-0.1,0.4-0.2,0.6-0.3c-0.2-0.4-0.5-0.2-0.9-0.2C500.1,433.7,500.2,433.9,500.3,434z" />
	<path fill="#211816" d="M461.7,436.4c7.2-0.6,14.1,1.1,21.3,0.9c-0.5,0.5-1,1-1.6,1.5c-0.3,0-0.5,0-0.8,0c-1.4-1-1.7-1-3.1,0   c-4.3-0.5-8.6-1-12.8-0.5c-4.3,3.6-8.7,6.5-14.2,7.6c0-0.3,0-0.6-0.1-0.9c3.1-1.8,6.3-2.7,9-5.2c-1.9-0.4-3.4-0.7-5-1   c-0.5-1.2-1.6-0.2-2.4-0.8c0.3-0.3,0.6-0.5,0.9-0.8c3.1,0.5,6.1,1.1,9.2,1.4c0.2-0.3,0.3-0.6,0.5-1c-1-0.2-1.8-0.4-2.7-0.5   C460.7,436.8,461.2,436.6,461.7,436.4z" />
	<path fill="#CDC289" d="M498.9,416.1c-0.4-0.8,0.3-2-0.9-2.6c1.8-8.6,1.3-17.5,2.5-26.3c0.2,0.1,0.4,0.2,0.5,0.3   C501.3,397.1,502.3,407,498.9,416.1z" />
	<path fill="#DCE0E0" d="M495.1,439.1c-2.3-0.4-4.3-0.7-6.7-1.1c2.3-1.6,4.3-3.1,6.3-4.5C495.4,435.1,495.4,435.1,495.1,439.1z" />
	<path fill="#2B261F" d="M499.7,414.3c0.3-2.7,0.8-5.4,1.6-8c0.2,0,0.4,0,0.7,0c0.1,1.2,0.2,2.5,0.2,3.8c1.1,0.1,2.4-0.3,2.8,1.1   c-0.9,0.3-1.9,0.6-2.8,0.8c-1.2,1.4-1,3-1.1,4.6c-0.2,0.1-0.4,0.2-0.6,0.3C500.1,416.1,500.8,414.9,499.7,414.3z" />
	<path fill="#2D2E2B" d="M498.9,426.1c2.3,0.8,1.4,2.7,1.5,4.9c-1-1.4-1.7-2.3-2.4-3.2C498,427.1,498,426.4,498.9,426.1z" />
	<path fill="#DCC3B2" d="M501.9,441.3c0.3,0.2,0.5,0.4,0.8,0.5C502.5,441.6,502.2,441.4,501.9,441.3z" />
	<path fill="#7888AE" d="M342.5,572.8c14.4-2.2,28.6-5.6,43-8c-3.6,4.3-11.3,3-16.4,4.8c-9,1.6-17.2,4-26.2,5.4   C342.8,574.2,342.7,573.5,342.5,572.8z" />
	<path fill="#7688AB" d="M383.9,568c-2,4.6-1.4,9.2-2.5,14c-3.8-0.5-4.6-4.6-2.7-7.4C380.4,572.7,380.6,567.8,383.9,568z" />
	<path fill="#DBC2B2" d="M503.5,533.9c-0.5-2.7,0.9-5.3,1.7-7.7c6.2-9.6-1.8-22.4,3-32C511.9,506.9,510.8,522.5,503.5,533.9z" />
	<path fill="#292625" d="M506,523.9c-0.3,1.8-1.6,3.3-1.8,5.2c-0.2,0-0.5,0-0.7,0c0-0.7-0.1-1.3-0.2-2h0.1c0-1.4-0.2-2.7,0.8-3.8   c-0.1-0.6,0.6-1,0.8-1.6c-0.1-0.3,0-0.5,0.2-0.6c1.4-5.4,0.2-11.7,0.6-17.4c0.3,0,0.5,0,0.8,0C507.2,510.4,509.1,518,506,523.9z" />
	<path fill="#111314" d="M412.5,576.7c0.3,0,0.5,0,0.8,0c0.1,1.1,0.2,2.1-0.1,3.1c-0.2,0-0.5,0-0.7,0l0,0   C412.5,578.8,412.5,577.7,412.5,576.7z" />
	<path fill="#BEA99A" d="M403.6,532.8c-0.3,1-0.6,1.9-1,3.1c-0.7-0.6-1.3-1.2-2-1.8c0.8-1.8,1.6-3.4,2.4-5   C404.4,529.9,403.6,531.6,403.6,532.8z" />
	<path fill="#918277" d="M403.8,531.5c-0.2-0.8,0.4-1.9-0.7-2.4c0.3-1,0.7-1.9,1-2.9c0.1,0,0.3,0,0.4,0   C404.8,528.2,404.6,529.8,403.8,531.5z" />
	<path fill="#14100F" d="M403.8,531.5c0.3-0.8,0.6-1.6,0.9-2.4c0.3,0.3,0.5,0.6,0.8,1c0.2,1.4-0.2,2.6-1,3.8   c-0.3-0.4-0.6-0.7-0.8-1.1C403.6,532.4,403.7,531.9,403.8,531.5z" />
	<path fill="#F6D9C7" d="M472.7,365.3c0.1-0.9,0.1-1.8,0.2-2.7c3.5,0.1,6.8,0.8,10.1-0.4c0.2-0.1,0.6,0.4,0.8,0.7   c0.6,2-2.3,4.9,0.4,5.9c1.3-3.3,0.6-6.7,1.9-9.9c0.8-0.2,0.9-1,0.9-1.6l0,0c0.6-0.4,1.3-0.8,2-1.2c1.8,7.6,6.4,13.7,10,20.2   c0.3,1.3-1.4,1.3-1.6,2.3c-1.7,2.7-1.7,2.7-0.6,4.6c0.2-0.6,0.4-1,0.6-1.4c2.7,13.3,2.8,49.7-19.9,42.3c2.4-3.3,3-6.9,5.6-9.9   c-0.8-0.5-1.4-1-2-1.4c-1.7,3.4-3.4,6.8-5.2,10.2c-9.7-1.7-3.1-24.7-3.3-32.1c0.7-0.1,1.1-0.2,1.4-0.2c1,0.7,2,0.9,3.2,0.5   c-0.2-1.9-3-1.3-4.3-2.3c-0.1-2.6-0.5-5.2,0-7.9c0.1,0,0.3,0,0.4,0c2.4,0.7,3.9,2.3,6.4,1c-2.2-1-4-1.8-6.2-2.7   C473.8,374.6,473.3,370,472.7,365.3z M487.5,387.4c0.5,1.3-0.4,2.8,1.5,3.5c0.3-1.4,0.7-2.6-0.5-3.7c-0.3-2-3-2.1-4.2-3.8   c-0.4,0-0.9,0.1-1.3,0.1c0.2,0.3,0.3,0.5,0.5,0.8c1.1,0.5,2.1,1,3.2,1.5C487,386.4,487.3,386.9,487.5,387.4z M494,387.2   c-1,0.1-3-0.1-2,1.7c1.8-0.6,2.7-1.1,4.5-2.2C495.1,386.5,494.9,386.3,494,387.2z M482.4,372.9c1-0.2,1.8-1.8,0.5-1.9   C482,371.4,482.1,372,482.4,372.9z" />
	<path fill="#E0C6B5" d="M498.8,376.3c-3.6-6.6-8.2-12.6-10-20.2c-0.7,0.4-1.3,0.8-2,1.2c0.2-2.6-0.6-5.5,0.7-7.9   c1.7,0.2,3.4,0.4,4.9-0.8l-0.1-0.1c-0.6,3.5-0.1,6.4,3.6,8c-3.1,0.7,2,5.8,2.6,8.1c0.9-3.3-3.4-5.2-1.4-7.4c3.9,2.1,8,3.4,12,5.5   L509,363C503.6,364.1,503.2,372.9,498.8,376.3z M499.6,369.2c0.1,0.2,0,0.8,0.5,0.3C499.9,369.4,499.7,369.3,499.6,369.2   c-0.1-1,0.2-3.4-1.7-2.4C498.5,367.6,498.4,368.7,499.6,369.2z M500.3,371.5c-0.1-0.2-0.2-0.3-0.4-0.5c-0.4,0.2-0.1,0.6,0,0.9   C500,371.8,500.1,371.7,500.3,371.5z" />
	<path fill="#EFE19C" d="M500.5,387.2c-0.1,1.7,0,3.4-0.8,4.9c0-4.6-0.8-8.9-0.9-13.4c0.4,0,0.8,0.1,1.2,0.1   C500.5,381.5,500.6,384.3,500.5,387.2z" />
	<path fill="#1B1210" d="M498.8,378.6c0,0.3-0.1,0.5-0.1,0.8c-1.8,0.7-1.3,2.3-2.1,3.8c-1.2-1.9-1.2-1.9,0.6-4.6   C497.7,378.6,498.3,378.6,498.8,378.6z" />
	<path fill="#5F5845" d="M502.1,385.5c0.8,3.5,0.6,7,0.5,10.5C501.2,393,502.4,388.9,502.1,385.5z" />
	<path fill="#CDC289" d="M503.5,410.1c-0.4,0-0.8,0-1.3,0c-0.1-1.3-0.2-2.5-0.2-3.8c0.2-0.3,0.4-0.6,0.6-0.9   C502.6,407.1,503,408.6,503.5,410.1z" />
	<path fill="#5F5845" d="M500.5,387.2c0-1.5,0-3.1,0.1-4.6c1.2,1.5,0.5,3.3,0.5,5C500.8,387.4,500.7,387.2,500.5,387.2z" />
	<path fill="#E0C6B5" d="M511.4,363.5c-0.7,0-1.3,0-2,0c-0.2-0.2-0.3-0.3-0.4-0.5l0.1-0.2C509.9,362.9,510.9,362.5,511.4,363.5z" />
	<path fill="#E8D9B5" d="M439.2,577.6c0.4,0,0.7-0.1,1.1-0.1c0,1.3,0,2.6,0,4c-8.8,3.9-18.8,4.3-28.3,2.9c0.2-1,0.4-1.9,0.6-2.8   c6.6,2,13.7-1.7,20.5-1.7c0,0.2,0,0.5-0.1,0.7c-0.6,0.4-1.2,0.7-0.9,1.9c2.1-2.2,5.2-1.8,7.5-3.7   C439.4,578.3,439.3,578,439.2,577.6z" />
	<path fill="#363A45" d="M413.1,581.4c-0.2,0-0.4,0.1-0.6,0.2c0-0.6-0.1-1.1-0.1-1.7c0.2,0,0.5,0,0.7,0   C413.1,580.3,413.1,580.9,413.1,581.4z" />
	<path fill="#F6D9C7" d="M511.4,363.5c-2.8-1.2-5.9-2.2-8.7-3.8c-0.3-1-1-1.6-2-1.6c-3.1-2.5-7.4-3.8-7.3-8.4   c-0.1-0.4-0.7-0.7-1-1.1l0.1,0.1c-0.2-0.5-0.4-0.9-0.6-1.4c-0.9,0.2-1.6,0.4-2.2,0.6c-2-1.2-2-3.3-3.1-4.7c0.3-0.3,0.7-0.6,1-0.9   c1.9,1.2,4.8,1.1,5.7-1.4c-0.5-0.7-1.1-1.5-1.7-2.3c1-1.2,1.5-2.3,2.3-3.4c1.6,0.9,3.2,1.6,4.7-0.4c-1-0.4-2-0.7-2.9-1   c3.8,0,7.3-2.8,10.5-4.1c0.6-1.5,1-2.9,2.5-3.5c0.3-0.7,0.6-2,0.9-2.9c0.8-0.2,0.8-0.9,0.8-1.6c1.1-0.7,0.9-1.8,0.7-3   c-1-0.1-2-0.1-3-0.2l0,0c2.2-1.4,4.9-1.1,7.2,0.3c0.3-0.1,0.9-0.3,1.5-0.6c1.2-1,2.1,0.6,3.2,0.3l0,0c0.6,2.2,3.9-0.1,5.5,0.8   c1.9,1.2,4.3,14.7,1.6,15c-4.9,2.5-0.8,9.4,0.1,13.4c-1.5,2.5-3.6-1.1-5.2,1.1c-0.3,0.6,0.5,0.7,1,1.2c0.1,1.1,0.3,2.3,0.5,3.6   c-1.8,2.3-4.2-0.4-6.3,0.6c0.1,0.3,0.3,0.6,0.4,1c1.4,0.9,2.1,2.5,3.2,3.7c0.1,1.8,0,3.6-0.6,5.3   C517.2,365.1,514.3,364.9,511.4,363.5z M519.4,340.4c0.8-2.3,0.9-2.9,2.5-4.3c-2.8-1.2-4.9,0-7.2,1   C516.8,338.1,517.5,338.7,519.4,340.4z M524.2,334.9c-2.1-3.3-7.5-5.4-10.1-1.8C520.6,331.7,520.4,335.6,524.2,334.9z" />
	<path fill="#CEB5A6" d="M521,358.9c-0.8-1-1.6-2.1-2.4-3.1c1.8,0,4.3-0.1,4,2.3C522,358.4,521.5,358.6,521,358.9z" />
	<path fill="#2C2A29" d="M528.8,332.3c-0.2-0.6-0.4-1.3-0.6-1.9C529.1,330.8,528.9,331.6,528.8,332.3z" />
	<path fill="#CEB5A6" d="M518.5,355.7c-0.2-0.2-0.5-0.4-0.7-0.5C518,355.4,518.3,355.6,518.5,355.7z" />
	<path fill="#4B4F5D" d="M559.1,526.7c-0.2-3.8-2.4-7-4-10.3c7.4-4.4,11.4,21.6,8.6,26.1c-1,0.3-2.1,0.6-3.1,0.8   C560.5,537.9,561.2,531.8,559.1,526.7z" />
	<path fill="#2D2927" d="M512.4,403.2c0.2-0.9,0.4-1.8,0.6-2.7c0,0.9,0.1,1.8,0.1,2.7C512.8,403.2,512.6,403.2,512.4,403.2z" />
	<path fill="#2D2927" d="M511.6,406.3c0.2-0.6,0.4-1.2,0.5-1.8C512.3,405.2,512.4,405.9,511.6,406.3z" />
	<path fill="#E8DABA" d="M471.9,311.3c1.5-0.9,3.2-0.7,4.9-0.8c-0.3,0.6-0.6,1.1-0.9,1.7l0.1-0.1c-2,0.2-2.9,2-4.2,3.1   c-1.4-1.2-1.4-1.2-0.6-3.3C471.3,311.7,471.6,311.5,471.9,311.3z" />
	<path fill="#565347" d="M520.1,318.5c-1.1,0.3-2-1.2-3.2-0.3c-0.4-0.9-0.9-1.8-0.8-2.9c0.8-0.5,1.8-0.7,2.3-1.5   c3.4-1,3.6,3.2,4.9,5.4C522.3,319.2,520.3,320.2,520.1,318.5c0.4-0.1,0.9-0.3,1.7-0.5c-0.4-0.6-0.7-0.9-1.3-1.6   C520.3,317.6,520.2,318,520.1,318.5z" />
	<path fill="#120E0C" d="M521.8,315.3c-0.5-1-1.2-1.6-2.4-1.6c-0.4-1-1.3-0.7-2.1-0.8c-0.7-0.9-1.5-1.6-2.7-1.6   c-0.6-1.5-1.9-1.5-3.2-1.5c0-0.3,0-0.5,0-0.8c0.9,0,1.9-0.3,2.8-0.4c3.2,1.9,6.2,3.8,9.2,6l0,0c0.3,0.3,0.5,0.5,0.8,0.8l0,0   c0,0.3,0,0.5,0,0.8C523.2,316.8,522.6,315.8,521.8,315.3z" />
	<path fill="#484339" d="M523.4,314.5c-1.7-1.7-4-2.3-5.6-3.8c0.3-0.3,0.5-0.6,0.8-0.9C520.3,311.1,523.3,311.9,523.4,314.5z" />
	<path fill="#ADAA91" d="M518.5,309.8c-0.3,0.3-0.5,0.6-0.8,0.9c-0.5-0.4-1-0.7-1.5-1.1c0.2-0.2,0.5-0.5,0.7-0.7   C517.5,309.2,518,309.5,518.5,309.8z" />
	<path fill="#50493F" d="M524.9,316.1c0.6,0.2,0.7,0.6,0.2,1.2C525.1,316.9,525,316.5,524.9,316.1L524.9,316.1z" />
	<path fill="#50493F" d="M524.1,316.1c0-0.3,0-0.5,0-0.8c0.3,0.3,0.5,0.5,0.8,0.8l0,0C524.7,316.1,524.4,316.1,524.1,316.1z" />
	<path fill="#565347" d="M525.7,319.3c-0.3,0-0.5,0-0.8-0.1c0.2-0.2,0.3-0.3,0.5-0.5C525.5,318.9,525.6,319.1,525.7,319.3z" />
	<path fill="#484339" d="M524.2,315.3c-0.3-0.3-0.5-0.5-0.8-0.8C523.6,314.8,523.9,315,524.2,315.3z" />
	<path fill="#94887C" d="M519.5,541.8c-0.1,0.2-0.2,0.4-0.2,0.7c-0.6,0.3-1.2,0.6-1.8,0.9c-0.1-0.1-0.2-0.3-0.3-0.4   c0.6-0.6,1.2-1.2,1.8-1.9C519.3,541.4,519.4,541.6,519.5,541.8z" />
	<path fill="#7A645B" d="M514.4,543.2c-0.4,0.9-0.6,1.5-1.8,1.7c0.1-1.1,0.3-1.9,1.3-2.1C514.1,542.9,514.2,543.1,514.4,543.2z" />
	<path fill="#CDB5A6" d="M510.8,544.3c-0.2-0.8-0.2-1.4,0.8-1.6C511.3,543.2,511.1,543.7,510.8,544.3z" />
	<path fill="#F5D8C6" d="M514.4,543.2c-0.2-0.1-0.4-0.3-0.5-0.5c0.2,0,0.5,0,0.7,0l-0.1-0.1C514.6,542.8,514.5,543,514.4,543.2z" />
	<path fill="#2C3030" d="M506.7,545.2c0.3,0.2,0.6,0.3,0.9,0.5C507.3,545.5,507,545.3,506.7,545.2z" />
	<path fill="#CDB5A6" d="M512.2,541.7c0.2-0.3,0.4-0.5,0.6-0.8C512.7,541.2,512.4,541.5,512.2,541.7z" />
	<path fill="#CDB5A6" d="M511.6,542.7c0.2-0.3,0.4-0.6,0.6-0.9C512,542.1,511.8,542.4,511.6,542.7z" />
	<path fill="#373A46" d="M560.6,543.4c1-0.3,2.1-0.6,3.1-0.8c0,0.3,0,0.6,0,0.8c-0.2,0.3-0.5,0.5-0.7,0.8c0,0.5,0,1.1,0,1.6   c-0.3,0.3-0.5,0.5-0.8,0.8c0,0.5,0,1.1,0,1.6c-2.7,3.9-5.1,9.5-10.3,10.3c0-0.3,0-0.5,0-0.8c1.6-1.6,3.2-3.2,4.8-4.8   c0-0.3,0.1-0.5,0.1-0.8c0.5-0.5,1-1.1,1.5-1.6c0-0.5,0.1-1,0.1-1.6c0.2-0.3,0.5-0.5,0.7-0.8c0-0.3,0-0.5,0.1-0.8   c0.2-0.3,0.5-0.5,0.7-0.8c0-0.5,0-1,0.1-1.6C560.6,544.7,560.6,544,560.6,543.4z" />
	<path fill="#7C8CAC" d="M573.8,526.6c-2.9,1.1-5.5,1.9-8.7,1.8c-0.2-1-0.4-1.8-0.7-2.9C567.3,524.9,574.7,520.9,573.8,526.6z" />
	<path fill="#363A45" d="M563,544.2c0.2-0.3,0.5-0.5,0.7-0.8C563.5,543.6,563.2,543.9,563,544.2z" />
	<path fill="#363A45" d="M562.2,546.6c0.3-0.3,0.5-0.5,0.8-0.8C562.7,546,562.5,546.3,562.2,546.6z" />
	<path fill="#6F82A6" d="M338.7,574.9c-0.1-1.1,0.1-2.1,0.8-2.9C341.9,572.8,341.4,575.6,338.7,574.9z" />
	<path fill="#373A46" d="M551.9,559.2c-0.7-0.3-0.7-0.5,0-0.8C551.9,558.7,551.9,559,551.9,559.2z" />
	<path fill="#1A0E0F" d="M350.6,573.6c0.5-0.1,1-0.1,1.6-0.2c0,0.2,0,0.4,0.1,0.6c-0.5,0-1.1,0.1-1.6,0.1   C350.6,574,350.6,573.8,350.6,573.6z" />
	<path fill="#8495B5" d="M540,527.5c0.2,1.3,0.6,2.4,1.7,3.2c0.3,4,0.2,9.4-4.8,10.2c0-2.1-0.1-4.2,0-6.2l-0.1,0.1   c1.4-0.7,1.2-2,0.7-3c-1.5-3.1-5.2-1.3-7.8-0.9C529.3,524.5,536.5,523.9,540,527.5L540,527.5z" />
	<path fill="#879ABC" d="M536.9,534.6c-4.8,0.8-9.3,1.8-14.2,2.5c-0.1-1-0.2-1.8-0.3-2.9C526.5,534.4,536.9,528,536.9,534.6   L536.9,534.6z" />
	<path fill="#7B8EB3" d="M536.8,535.5c0,1.8,0,3.6,0,5.4c-2.4,0.4-5.5-1.1-5.4-3.7C533.4,537.2,535.1,536.3,536.8,535.5z" />
	<path fill="#363A45" d="M560.6,543.4c0,0.6,0,1.3-0.8,1.6c0.2-1.1-0.6-2.4,0.7-3.2C560.6,542.3,560.6,542.8,560.6,543.4z" />
	<path fill="#363A45" d="M559.8,546.5c-0.2,0.3-0.5,0.5-0.7,0.8C559.3,547.1,559.6,546.8,559.8,546.5z" />
	<path fill="#363A45" d="M559,548.1c-0.2,0.3-0.5,0.5-0.7,0.8C558.6,548.7,558.8,548.4,559,548.1z" />
	<path fill="#363A45" d="M558.2,550.5c-0.3,0.3-0.5,0.6-0.8,0.8C557.7,551,558,550.7,558.2,550.5z" />
	<path fill="#363A45" d="M557.4,551.3c-0.2,0.3-0.5,0.5-0.7,0.8C557,551.8,557.2,551.6,557.4,551.3z" />
	<path fill="#363A45" d="M556.6,552.9c-0.3,0.3-0.5,0.5-0.8,0.8C556.1,553.4,556.4,553.1,556.6,552.9z" />
	<path fill="#8495B5" d="M542.4,530.7c1.4,1.5,0.5,3.9,0.1,5.7C542.4,534.5,542.4,532.6,542.4,530.7L542.4,530.7z" />
	<path fill="#8495B5" d="M541.6,530.7c0.2-0.5-0.1-1.3,0.8-1.5c0,0.5,0,1,0,1.5l0.1-0.1C542.1,530.7,541.8,530.7,541.6,530.7z" />
	<path fill="#7B8EB3" d="M537.7,540.8c0.3-0.2,0.6-0.4,0.9-0.5C538.2,540.4,537.9,540.6,537.7,540.8z" />
	<path fill="#8495B5" d="M540.8,527.5c-0.3,0-0.6,0-0.8,0v0.1c0.1-0.2,0.2-0.3,0.4-0.5C540.5,527.2,540.6,527.4,540.8,527.5   L540.8,527.5z" />
	<path fill="#8495B5" d="M540.8,527.5c0.1,0.1,0.3,0.2,0.2,0.2C541,527.8,540.9,527.6,540.8,527.5L540.8,527.5z" />
	<path fill="#100C0B" d="M450.4,444.9c0,0.3,0,0.6,0.1,0.9c-0.8,1-1.7,2-2.7,3.2c9.4,5.6,15.5,15.7,9.9,26c4.1-0.4,8.4-0.9,11.8-2.2   c0.3,0.3,0.6,0.6,0.9,0.9l0,0c-34,13,8-11.6-28.8-24.6c-2.3,3.3-4.1,6.9-6.2,10.3c-0.3-0.3-0.5-0.6-0.8-0.9   c4.1-8.9,8.7-18,12.8-26.8c0.3,0.3,0.5,0.6,0.8,0.9c-0.4,1.5,0.2,2.5,1.5,3.2c-0.3,0.2-0.5,0.5-0.8,0.7c-0.5-0.1-1-0.3-1.7-0.5   c-1.4,3.5-2.8,6.9-4.5,10.9C445.7,446.2,448,445.6,450.4,444.9z M445.3,448c0,0.1,0,0.2,0.1,0.3c0.3,0,0.6,0,0.9-0.1   c-0.1-0.2-0.1-0.3-0.2-0.5C445.8,447.8,445.5,447.9,445.3,448z" />
	<path fill="#1B1914" d="M468.7,365.4c0,0.2,0,0.5,0.2,0.6c1.7,14.2-0.8,28.8-5.7,42.1c-0.3,0-0.5,0-0.8-0.1   c1.3-14.5,9.3-30.2,3.1-44.4c0.8,0.2,1.6,0.5,2.4,0.7C468.2,364.7,468.4,365,468.7,365.4z" />
	<path fill="#171413" d="M425.1,499.7c0.5-9,4-17.4,6.5-26c1.1,0.6,0.5,1.7,0.8,2.5c-2.1,8.4-4.4,16.8-6.6,25.2   C425.6,500.9,425.3,500.3,425.1,499.7z" />
	<path fill="#2F2926" d="M425.1,499.7c0.3,0.6,0.5,1.1,0.8,1.7c-2.3,8.1-4.1,16.3-5.5,24.6c-0.2-0.1-0.5,0-0.7,0.1   c-0.2-0.5-0.5-1.1-0.7-1.6C420.4,516.1,422.1,507.8,425.1,499.7z" />
	<path fill="#201D17" d="M448.2,432.6c-0.3-0.3-0.5-0.6-0.8-0.9c2.7-5.9,3-13.7,7.8-18.3c0.4,0.1,0.8,0.1,1.2,0.1   C452.6,419.5,452.1,426.7,448.2,432.6z" />
	<path fill="#2F2926" d="M434.6,458.6c0.3,0.3,0.5,0.6,0.8,0.9c-1.7,3-1.4,6.4-2.4,9.5c-1.6-3.1-0.8-7.3,1-10.2v0.1   C434.2,458.7,434.4,458.6,434.6,458.6z" />
	<path fill="#413935" d="M432.2,465.5c0.4,1.1-0.4,2.5,0.8,3.5c-0.1,2.5,0.9,5.1-0.5,7.3c-0.4-0.8,0.3-2-0.8-2.5   C431.5,471,431.2,468.2,432.2,465.5z" />
	<path fill="#46382E" d="M456.4,413.6c-0.4,0-0.8-0.1-1.2-0.1c2.4-2.1,4.9-4.2,7.1-6.6c0.1,0.6,0.2,1.2,0.2,1.8   C460.5,410.5,459,412.6,456.4,413.6z" />
	<path fill="#1C1918" d="M406.9,537.8c-1.7-0.9-1-2.7-0.4-3.9c0.3,0.1,0.7,0.1,1,0.2C407.4,535.3,407.1,536.6,406.9,537.8z" />
	<path fill="#96857A" d="M408.4,531.4c-1.9-0.5-2-0.8-0.3-2.9C408.6,529.5,408.7,530.3,408.4,531.4z" />
	<path fill="#F6D9C7" d="M434,458.7c-0.6,1-1.1,2.1-1.7,3.1C432.2,460.5,432.2,459.1,434,458.7z" />
	<path fill="#F6D9C7" d="M434.6,458.6c-0.2,0.1-0.4,0.2-0.7,0.2c-0.1-0.7-0.1-1.5,0.9-1.6C434.8,457.6,434.7,458.1,434.6,458.6z" />
	<path fill="#E0C7B6" d="M440.2,415.8c-0.7-0.2-0.7-0.5-0.1-0.8l0.1,0.1C440.2,415.3,440.2,415.6,440.2,415.8z" />
	<path fill="#867069" d="M440.2,415.8c0-0.2,0-0.5,0-0.7c0.3-0.1,0.5-0.1,0.8,0C440.8,415.3,440.5,415.6,440.2,415.8z" />
	<path fill="#120F0F" d="M474.3,511.8c-1.9-10.7,7.9-30,14.8-39c-0.5-0.5-0.9-0.9-1.3-1.4c0.1-0.2,0.1-0.5,0-0.7   c1.8-0.4,3.3,0.2,4.6,1.4C481.9,483,478.9,498,474.3,511.8z" />
	<path fill="#342E2D" d="M455.3,475.5c0,0.7,0.2,1.4,1,1.6c-4.3,5.8-8.6,11.5-12.9,17.3C443.7,486.7,452.4,482.3,455.3,475.5z" />
	<path fill="#342625" d="M487.7,470.7c0,0.2,0,0.5,0,0.7c-3.3-0.4-6.6,0.9-9.9,0.9c-1.2,0.1-2.5-0.7-3.6,0.6c-0.3,0-0.5,0-0.8,0   c-0.3-0.4-0.5-0.8-0.8-1.3C477.2,470.2,483.3,468.6,487.7,470.7z" />
	<path fill="#393433" d="M472.7,471.6c0.3,0.4,0.5,0.8,0.8,1.3c-1,0.3-2.1,0.6-3.1,0.9c-0.3-0.3-0.6-0.6-0.9-0.9   C470.6,472.4,471.6,472,472.7,471.6z" />
	<path fill="#393433" d="M474.3,472.8c1-1.3,2.3-0.5,3.6-0.6C476.8,473,475.5,473,474.3,472.8z" />
	<path fill="#393433" d="M469.5,474.3c0.3-0.2,0.5-0.3,0.8-0.5C470.1,473.9,469.8,474.1,469.5,474.3z" />
	<path fill="#E1C6B6" d="M472.7,471.6c-4.8,2.1-9.7,3.1-15,3.5c1.6-5.2,3.3-6.6,1.6-12.4c0.4,0.6,0.8,1.3,1.3,2.1   c6.3,2,13-0.4,19.6,0.2c6.3-0.9,11.6,3.1,17.6,3.2c2.6,0.1,4.3,2,6.8,3.2c-3.7,3.4-7.9,0.1-12.1,0.7c-1.3-1.3-2.8-1.8-4.6-1.4   C483.3,468.6,477.2,470.1,472.7,471.6z" />
	<path fill="#D5BDAD" d="M499.5,458.7c1.3,0,2.6,0,4,0c1.3,0.8,2.4,1.7,3.2,3.3c-1.4,1-2.7,0.5-4.1,0.6c-1.5-1-3.1-2.1-4.7-3.2   C498.6,459.4,499.5,459.8,499.5,458.7z M503.4,461.4c-0.2-0.3-0.3-0.3-0.5,0c0.1,0.1,0.2,0.2,0.3,0.2   C503.3,461.5,503.3,461.5,503.4,461.4z" />
	<path fill="#DCC1B0" d="M510.7,472.1c-0.9-1.4-1.7-2.8-2.6-4.2c3.9-6.2,4.7,2.1,4.1,5.2C510.7,473.8,510.7,472.9,510.7,472.1   c1.2-1.2,1.2-1.2-0.2-2.4C510.6,470.7,510.6,471.4,510.7,472.1z" />
	<path fill="#9E8C81" d="M499.5,487.9c-0.8,2.7-1.6,5.5-4.3,7c-0.1-0.4-0.3-0.9-0.2-1c3.1-2.1,2.3-5.6,3.7-8.3   C499,486.3,498.1,487.5,499.5,487.9z" />
	<path fill="#2B1B19" d="M499.5,458.7c-0.1,1.1-0.9,0.7-1.5,0.8c-0.7-0.9-1.5-1.8-2.6-3.1C497.7,456.2,498.1,457.4,499.5,458.7z" />
	<path fill="#2B221F" d="M499.5,487.9c-1.4-0.4-0.5-1.6-0.8-2.4c0.3-0.2,0.7-0.5,1.6-1.2C499.9,486,499.7,487,499.5,487.9z" />
	<path fill="#B6A093" d="M492.3,498.5c0.5-0.6,0.9-1.1,1.5-1.8C493.9,498.8,493.9,498.8,492.3,498.5z" />
	<path fill="#0C0A09" d="M477.5,438.8c1.4-1,1.8-1,3.1,0C479.5,438.8,478.4,438.8,477.5,438.8z" />
	<path fill="#86736B" d="M491.8,501.9c-0.5,0.5-0.8,0.8-1.3,1.3C490.2,501.6,490.2,501.6,491.8,501.9z" />
	<path fill="#2A2726" d="M503.5,528.3c0.1,1.6,0.1,3.1-0.2,4.7c-1.2-0.9-0.3-2.3-0.8-3.4c0.1-0.4,0.2-0.9,0.3-1.3   C503.1,528.3,503.4,528.3,503.5,528.3z" />
	<path fill="#2A2726" d="M503.4,524.9c0,0.8,0,1.5,0,2.3C502.9,526.4,502.9,525.6,503.4,524.9z" />
	<path fill="#373533" d="M503.5,528.3c-0.2,0-0.5,0-0.6,0c0.2-0.4,0.3-0.8,0.5-1.2C503.4,527.5,503.5,527.9,503.5,528.3z" />
	<path fill="#2A2726" d="M505.8,520.3c-0.2,0.3-0.4,0.7-0.6,1C505.5,520.8,505.6,520.6,505.8,520.3z" />
	<path fill="#2A2726" d="M505,521.7c-0.2,0.3-0.4,0.7-0.6,1C504.7,522.4,504.8,522.1,505,521.7z" />
	<path fill="#2A2726" d="M504.2,523.3c-0.2,0.3-0.4,0.7-0.6,1C503.8,524,504,523.7,504.2,523.3z" />
	<path fill="#1E2220" d="M516.1,538.6c-0.8-1.4-2.3-2-1.1-3.7C516.2,535.8,516.3,536.9,516.1,538.6z" />
	<path fill="#A88F85" d="M513.8,533.3c0.8-1.2,1.8-0.8,1.1,0.4C514.6,533.6,514.3,533.5,513.8,533.3z" />
	<path fill="#0A0606" d="M509,535.3c-0.1-0.1-0.2-0.2-0.3-0.3c0.1,0,0.2-0.1,0.3-0.1C508.9,535,508.9,535.2,509,535.3z" />
	<path fill="#3E2F28" d="M433.9,581.3c-0.2,0.1-0.5,0.3-0.7,0.4c-0.1-0.6-0.1-1.2-0.1-1.8c1.8-1.5,3.8-2.1,6.1-2.2   c0.1,0.4,0.2,0.7,0.4,1.2C438,580.4,435.6,580,433.9,581.3z" />
	<path fill="#363A45" d="M413.4,578.5c0-0.6-0.1-1.2-0.1-1.8c0.2,0,0.5,0,0.7,0C413.7,577.3,413.6,577.9,413.4,578.5z" />
	<path fill="#F6D9C7" d="M455.3,475.5c-12.4,16.2-22.4,33.8-34.2,50.5c-0.3,0-0.5,0-0.8,0.1c3.2-17.4,7.8-34.6,12.9-51.5   c0.8,0.5,1.6,1.1,2.5,1.6c0.4,0.9,0.8,1.7,1.5,2.3c0,0.6,0,1.2,0,1.9c3.7-0.5,0.6-14.9-3.3-14.6c0.1-6.3,4.7-11.4,7.7-16.6   C453.2,452.2,463.2,464,455.3,475.5z M438.8,489.9c1.4-2.3,1.4-2.3,1.1-4.8C437.7,486.3,438.8,488.2,438.8,489.9z M446,475.3   c1.2-2.7,1.2-2.7-0.1-4.6C445.3,472.2,445.3,473.5,446,475.3z M446.3,468.8c0.2-2.3,0.2-2.3-1.2-2.8   C444.7,467.2,445,468.2,446.3,468.8z M456.1,467.2c-2.2,0.5-2.5,0.9-1.9,2.6C455,468.7,455.5,468,456.1,467.2z M438.4,483.1   c0.3-0.6,0.9-1,0.1-1.4C438,482.2,437.6,482.4,438.4,483.1z M437.9,493.3c0.2,0,0.4,0,0.6,0C438.4,491.9,437.9,491.9,437.9,493.3z" />
	<path fill="#937D73" d="M420.3,525.9c0.3,0,0.5-0.1,0.8-0.1c-0.3,0.5-0.6,1-1.2,2c-0.2-1-0.2-1.4-0.3-1.9   C419.9,525.9,420.1,525.9,420.3,525.9z" />
	<path fill="#363A45" d="M412.5,575.1c0.2-0.3,0.5-0.6,0.7-0.9C412.9,574.5,412.7,574.8,412.5,575.1z" />
	<path fill="#130F0E" d="M437.6,405.3c-0.8-2.5-1-3.8-0.2-5.5C439.2,401.4,438.1,403.1,437.6,405.3z" />
	<path fill="#312623" d="M417.5,465.4c-1.9-1.6-1.9-1.6-2.5-3.2c0.3-0.2,0.7-0.3,1-0.5C417.1,462.8,417.1,462.8,417.5,465.4z" />
	<path fill="#141413" d="M427.7,427.7c-1.3-0.9-1.3-2-0.9-3.4C428.1,425.7,428.1,425.7,427.7,427.7z" />
	<path fill="#42403B" d="M428.8,429.8c0,0.6,0.1,1.1,0.1,1.7c-0.2,0-0.4,0-0.5,0c-0.1-0.6-0.1-1.1-0.2-1.7   C428.4,429.8,428.6,429.8,428.8,429.8z" />
	<path fill="#615B53" d="M442.3,381.2c-0.3,0.4-0.5,0.7-1.1,1.5c0-0.9,0-1.2,0-1.5C441.5,381.2,441.9,381.2,442.3,381.2z" />
	<path fill="#665049" d="M408.4,526.1c-0.2,0.1-0.3,0.2-0.5,0.4c-0.2-0.5-0.3-0.8,0.2-1C408.3,525.7,408.4,525.9,408.4,526.1z" />
	<path fill="#6B6159" d="M422.7,417.3c-1.3-0.6-1.9-1.5-1.2-3C423,415,422.8,416.2,422.7,417.3L422.7,417.3z" />
	<path fill="#988378" d="M417.1,418.3c0.1,0.9,0.6,1.9-0.7,2.4C415.8,419.4,414.9,418.6,417.1,418.3z" />
	<path fill="#947C71" d="M418.4,415c-0.7,1.1-1,1.7-1.4,2.3C416.3,416.2,416.2,415.5,418.4,415z" />
	<path fill="#8D7F74" d="M421.9,412c-0.2,0.1-0.3,0.1-0.5,0.2c0-0.3-0.2-0.7,0.2-0.8C421.7,411.5,421.8,411.8,421.9,412z" />
	<path fill="#5E5447" d="M471.7,315.2c1.3-1.1,2.2-3,4.2-3.1c0,0.3,0,0.6,0,0.9c-4.2,2.3-4.7,6.6-6.1,10.9   C468.9,320.4,470.2,317.8,471.7,315.2z" />
	<path fill="#98846E" d="M467.9,334.2c-0.2,0.8-0.5,1.6-0.7,2.5c-1.1-0.7-0.8-1.7-0.6-2.8C467,334,467.4,334.1,467.9,334.2z" />
	<path fill="#BAAC71" d="M427.5,398.6c-1,0.9-1.5,0.1-0.4-0.6C427.2,398.1,427.3,398.3,427.5,398.6z" />
	<path fill="#572F21" d="M430.8,395.8c-0.6,0.2-1,0.3-1.4,0.5C429.2,395.5,430,395.1,430.8,395.8z" />
	<path fill="#E6D2B2" d="M491.7,317.5c-0.8-1-3-1.6-2.5-3.1c0.2,0.1,0.5,0.1,0.7,0.1c3.5,3.4,7.3-1.7,11,3.5c-0.6,0.2-1.2,0.4-2,0.7   c0.8,0.7,1.5,1.3,2.2,1.9C497.6,321.5,494.7,319,491.7,317.5z" />
	<path fill="#403029" d="M491.7,317.5c4.7,3.7,10.1,3.4,15.8,3.3c0.5,1.5,2,0.4,3.1,0.8c0,0.7,0,1.3-0.8,1.6l0.1,0.1   c-1.4-2.1-3.8,0-5.4,0.7c-1.2-0.4-2.4-0.5-3.6,0c-2.5-1.6-5.3-2.3-7.7-3.8l0,0c-0.3-0.8-0.9-0.8-1.6-0.8l0,0   c-0.3-0.3-0.5-0.6-0.8-0.9C491.2,318.1,491.4,317.8,491.7,317.5z" />
	<path fill="#30241F" d="M490.9,309.5c5.5,2.4,11.2,5,16.6,6.6c0,0.3,0,0.5,0,0.8c-0.5,0-1.1,0-1.6-0.1c-0.4-1.3-1.6-0.4-2.4,0   c-4.8-2.4-10-4-15.1-6.2C488,309.4,490,309.5,490.9,309.5z" />
	<path fill="#19241F" d="M503.6,319.9c-0.3-0.3-0.6-0.5-0.9-0.8c0.1-0.2,0.1-0.4,0-0.7l0,0c1.9,0,3.7,0,5.6,0l0,0   c0.2,0.5,0.5,1,0.7,1.5C507.2,319.9,505.4,319.9,503.6,319.9z" />
	<path fill="#E6D2B2" d="M503.6,319.9c2.4,0,4.6,0.2,7-0.1c-0.3,0.6-0.6,1.2-0.9,1.7c-2-0.4-4-0.9-6.2-0.8   C503.6,320.4,503.6,320.2,503.6,319.9z" />
	<path fill="#523F35" d="M507.5,318.5c-1.6,0-3.2,0-4.8,0c2.4-4.5,2.4-0.9,4.8-0.7C507.5,317.9,507.5,318.2,507.5,318.5z" />
	<path fill="#967763" d="M490,314.5c-0.2,0-0.5,0-0.7-0.1c-0.3-0.5-0.5-0.9-0.8-1.4c1.1-0.1,1.9,0.3,2.4,1.4v0.1   C490.6,314.5,490.3,314.5,490,314.5z" />
	<path fill="#866E5D" d="M491.6,315.4c-0.3-0.1-0.5-0.2-0.7-0.3c0-0.2-0.1-0.5,0-0.7C492.2,314.6,492.2,314.6,491.6,315.4z" />
	<path fill="#523F35" d="M502.7,318.4c0.3,0.4-0.3,1.6-0.6,0.7C502.1,318.9,502.5,318.6,502.7,318.4z" />
	<path fill="#523F35" d="M502.5,316.3c0.3,0.2,0.7,0.4,1,0.6C503.2,316.7,502.8,316.5,502.5,316.3z" />
	<path fill="#181612" d="M472.7,365.3c0.3,4.2,0,8.4-0.1,12.6c-1.8-2,0.5-5-1.3-7.1c-0.4-2.9-1.2-5.8-1-8.7   C472.3,361.4,472.1,364.1,472.7,365.3z" />
	<path fill="#BAA699" d="M485.3,364.4c-0.4,1.5-0.7,2.9-1.1,4.4c-2.7-1,0.2-3.9-0.4-5.9c0.2,0,0.5-0.1,0.7-0.1l0.2,0.2   C484.6,363.5,484.4,364.2,485.3,364.4z" />
	<path fill="#87756C" d="M486,358.9c-0.3,0.8-0.5,1.5-0.8,2.3c-0.2,0-0.4,0-0.7,0c0-0.8,0-1.5-0.1-2.3   C485,358.9,485.5,358.9,486,358.9z" />
	<path fill="#BAA699" d="M484.6,361.2c0.2,0,0.4,0.1,0.7,0c0,0.6,0,1.1,0,1.7c-0.2-0.1-0.4-0.1-0.7,0l-0.2-0.2   C484.5,362.2,484.5,361.7,484.6,361.2z" />
	<path fill="#978670" d="M491.7,328c-0.9-1-2.1-1.6-3.2-2.4c1.4,0.2,2.7,0.5,4.8,0.8c-1.4-1.1-2.3-1.7-3.2-2.4   c0.8-0.3,1.6-0.5,2.5-0.8l0,0c0.5,0.4,1,1.1,1.5,0c0.7-0.1,1.3-0.1,1.7,0.6c-1,2,4.1,2.5,5.6,3.2c-2.4-0.3-4.3,0.9-6.5,1.6   C493.8,328.1,492.8,327.9,491.7,328L491.7,328z" />
	<path fill="#15100E" d="M501.3,327.1c-14.2-4.2,1.9-3.4,6.9-3.1c0.3,0.3,0.7,0.7,1,1c-0.1,0.4-0.1,1-0.3,1.1   c-1.6,0.5-1.9,1.9-2.5,3.5c-3.3,1.3-6.7,4.2-10.5,4.1c-0.9-0.6-1.7-0.9-2.6-0.1c-1.3-1.2-0.4-2.6,0-4c0.5,0,1.1,0,1.6,0   c0.5,0.9,1.1,1.1,2.1,0c-0.8,0-1.5,0-2.1,0c0-0.3,0-0.6,0-0.8c2.3-2,8.5,0.7,9.1-1.9C503,326.9,502.2,327,501.3,327.1z" />
	<path fill="#443930" d="M490,318.5c0.3,0.2,0.6,0.5,0.8,0.7c0.3,0,0.5,0,0.8,0.1l0,0c0,0.3,0,0.6,0,0.8l0,0c-3.1,0.1-6.8-2.8-8-5.5   C485.7,316,488.1,316.9,490,318.5z" />
	<path fill="#443930" d="M493.2,320c-0.7,1.1-1,1.1-1.6,0l0,0C492.2,320.1,492.7,320.1,493.2,320L493.2,320z" />
	<path fill="#15100E" d="M494,323.3c-0.5,1.1-1,0.4-1.5,0C493,323.3,493.5,323.3,494,323.3z" />
	<path fill="#080605" d="M476.8,310.5c-1.1,0-2.2,0.1-3.2,0.1c-1.4-1.1,1.5-0.3,1.3-1.6c2.8-0.2,5.8-0.2,7.5,2.4   c-0.8,0-1.6-0.1-2.4-0.1C479,310,477.8,310.7,476.8,310.5z" />
	<path fill="#5E5447" d="M476.8,310.5c1,0.2,2.3-0.5,3.1,0.8c-1.3,0.3-2.7,0.6-4,0.9C476.2,311.6,476.5,311,476.8,310.5z" />
	<path fill="#746758" d="M507.5,318.5c0-2,0-3.6-0.7-5.6c-1.3-0.2-2.7-0.4-4.1-0.7c-0.5-0.5-1.1-1-1.6-1.5c0-0.2,0-0.4,0-0.7   c2,1,4.1,0.9,6.3,1.1c0.1-0.5,0-1,0.2-1.5c0.8,0.5,1.6,1.1,2.4,1.6c-1.1,0.6,0.1,1,0.8,0.9l0,0c0.2,1,0.9,0.8,1.6,0.9l0,0   c0,0.3,0,0.6-0.1,0.9c-1.2,0.5-3-0.5-3.5,0.9c0.4,0.7,0.7,1.3,1.1,2c0.9-0.1,2.3,0.3,3.2,0.8C511,317.4,509.3,318,507.5,318.5z" />
	<path fill="#ABA28B" d="M502.7,312.1c1.4,0.2,2.8,0.5,4.1,0.7c0.3,1,0.5,1.8,0.7,2.6c-0.5,0.1-1,0-1.5-0.1   c-0.9-1.1-2.1-0.7-3.2-0.5c-0.6-0.3-1.1-0.6-1.7-0.9C501.6,313.3,502.2,312.7,502.7,312.1z" />
	<path fill="#544A3F" d="M501.1,310c0,0.2,0,0.4,0,0.7c-1.1,0-2.3,0.1-3.3-0.8c0.3-0.3,0.6-0.5,0.9-0.8   C499.5,309.4,500.3,309.7,501.1,310z" />
	<path fill="#231816" d="M486.6,343.1c1.1,1.4,1.1,3.6,3.1,4.7c0.6-0.2,1.3-0.4,2.2-0.6c0.2,0.4,0.4,0.9,0.6,1.4   c-1.5,1.2-3.2,1-4.9,0.8C486.8,347.5,484.9,345,486.6,343.1z" />
	<path fill="#E0C6B5" d="M486.9,357.3c0,0.6,0,1.3-0.7,1.6C486.1,358.2,486.1,357.6,486.9,357.3z" />
	<path fill="#362F28" d="M486.6,343.1c-0.2,0.3-0.4,0.6-0.7,0.9c-0.8-0.6-1.5-1.2-2.3-1.8v0.1c1.8-1-0.7-3.4-0.9-4.8   c1.5-5.9,3.6-10.6,10.5-7.9c-0.3,0.8-0.6,1.6-0.8,2.4c-2.8-4.7-10,1.9-5.4,3.9c0.2,0,0.5,0,0.7,0.1c0,0.2,0,0.5,0,0.7   c-0.5,0.2-1,0.5-1.6,0.7c-0.5-0.1-1-0.2-1.7-0.3c0.3,1.2,0.2,2.7,1.4,3.1c0.3-0.8,0.6-1.5,0.9-2.1c0.3,1.4,0.6,2.8,0.9,4.1   C487.3,342.5,487,342.8,486.6,343.1z" />
	<path fill="#B5A085" d="M482.8,337.4c0.3,1.4,2.8,3.8,0.9,4.8c-1-1.1-2-2.3-3.1-3.3h0.1c0.5-0.5,1-1,1.4-1.5   C482.3,337.5,482.5,337.5,482.8,337.4z" />
	<path fill="#080605" d="M479.7,329.5c0.5,0.2,0.9,0.5,0,0.8C479.7,330.1,479.7,329.8,479.7,329.5z" />
	<path fill="#9A957C" d="M493.2,329.6c-1.6-0.3-3.2-0.6-4.8-0.9c0-0.4,0-0.9,0-1.3c1.1,0.2,2.2,0.5,3.3,0.7l0,0   C492.1,328.6,492.7,329.1,493.2,329.6L493.2,329.6z" />
	<path fill="#49362D" d="M484.4,328.9c-0.7,0.9-0.8,0.8-1.5-0.1C483.4,328.8,483.9,328.8,484.4,328.9z" />
	<path fill="#A3A089" d="M491.7,319.3c-0.3,0-0.5,0-0.8-0.1c0-0.3,0-0.6,0-0.8C491.1,318.7,491.4,319,491.7,319.3z" />
	<path fill="#A3A089" d="M490,318.5c-0.3-0.3-0.6-0.5-1-0.8C489.4,318,489.7,318.2,490,318.5z" />
	<path fill="#ACA186" d="M483.7,342.2c0.8,0.6,1.5,1.2,2.3,1.8c0,0.2,0,0.3,0,0.5c-1.6,0.1-2.7-0.7-4-2   C482.8,342.3,483.3,342.3,483.7,342.2z" />
	<path fill="#3F372E" d="M480.6,339c0.3,0.3,0.6,0.6,0.9,0.8C481.2,339.5,480.9,339.3,480.6,339z" />
	<path fill="#453C34" d="M511.4,309c0,0.3,0,0.5,0,0.8l0,0c-1.3-0.3-2.6-0.8-3.9-0.2l-0.1,0.3c-3.7-0.9-7.3-1.9-11.1-2.5   c1-0.6,1.7-1.4,2.3-2.4c1.3,0,2.7,0,4,0c1.2,0.7,3.6,1.4,5.5,1.5c0,0.3,0,0.5,0.1,0.8c-0.1,0.2-0.3,0.4-0.5,0.7   C509.1,308.3,510.2,308.6,511.4,309z M504.7,307.6c0,0.2,0,0.3,0.1,0.5c0.5-0.1,1-0.1,1.5-0.2c0-0.2,0-0.3-0.1-0.5   C505.7,307.5,505.2,307.5,504.7,307.6z" />
	<path fill="#1F0D0B" d="M511.4,309c-1.2-0.4-2.3-0.7-3.6-1.1c0.2-0.3,0.4-0.5,0.5-0.7c1.5,0.3,2.9,0.5,4,1.7   C512.1,308.9,511.7,308.9,511.4,309z" />
	<path fill="#D3C7AA" d="M496.4,307.3c3.7,0.7,7.4,1.7,11.1,2.5c0,0.4-0.1,0.7-0.1,1.2c-3.9,0.1-7.5-1.4-10.9-3.1   C496.4,307.8,496.4,307.6,496.4,307.3z" />
	<path fill="#603A2D" d="M389.6,433.3c-0.1,0.2-0.2,0.5-0.3,0.7c-3.8,1.1-8.8,1.9-12.3,0.2C381.2,435,386.1,431.3,389.6,433.3z" />
	<path fill="#A2604A" d="M379.9,435c0.6,0,1.2,0,1.8,0.1c0,1.2,0,2.3,0,3.7c1-0.1,1.9-0.1,2.9-0.2c-0.1,0.4-0.1,0.9-0.3,0.9   c-1.5,0.4-1.9,1.6-2.2,3.2c-2.8-1.7-0.9-4.6-2.1-7C380,435.4,379.9,435.2,379.9,435z" />
	<path fill="#EE8969" d="M389.6,433.3c-3.3-2.1-8,1.7-12,0.8c1.2-1.3,2.8-0.6,4.2-1.4c-2.1-0.1-4.2-0.2-6.3-0.3c0-0.5,0-0.7,0-1.2   c5.5,0.1,10.9,0.6,16.3,1.5C391.3,433.6,390.4,433.2,389.6,433.3z" />
	<path fill="#864132" d="M387.1,431.7c-0.3,0-0.6,0-0.9,0c-0.8-2.6-4.6-1.5-6.6-3.2c3.2-0.1,6.6,0.2,9.1,2.3   C388.1,431,387.4,430.9,387.1,431.7z" />
	<path fill="#E38768" d="M387.1,427c-0.3,0.3-0.5,0.5-0.8,0.8C386.6,427.5,386.8,427.2,387.1,427z" />
	<path fill="#A7634C" d="M388.7,428.5c0.6,0,1.2,0,2.1,0C389.8,429.7,389.2,429.4,388.7,428.5L388.7,428.5z" />
	<path fill="#1A1512" d="M475.9,423c1.7-3.4,3.4-6.8,5.2-10.2c0.6,0.4,1.2,0.9,2,1.4c-2.6,3-3.2,6.6-5.6,9.9   c12.5,5.5,19.2-8.3,20.7-18.6c3.9,12.2-11.6,27.7-23.8,18.9C474.9,424,475.4,423.5,475.9,423z" />
	<path fill="#494034" d="M475.9,423c-0.5,0.5-1,1-1.5,1.5c-2.5-1.4-4.5-3.2-4.8-6.3c1.2-0.2,1.1-12.4,0-12.6   c-0.1-2.5-0.3-4.9,0.6-7.3C472.4,404.4,467.6,422.7,475.9,423z" />
	<path fill="#331D1B" d="M471.3,370.8c1.8,2.1-0.6,5.1,1.3,7.1c-0.1,2.2,3.3,2.1,4.9,3.2c-0.3,0.9-1.1,0.7-1.7,0.8   c-4.9-3-2.6,3.4-2.8,7c-2.2-0.8,0.2-3.5-1.6-4.7C471.4,379.7,470.6,375.1,471.3,370.8z" />
	<path fill="#252019" d="M471.3,384.2c2.2,3.4-1.7,4.1,4.5,5.7c-1.1,0.5-1.8,0.9-3.2,1c-0.3,3.3-0.7,6.8-1.4,10.2   c-1.5-5.6,0-11.1-0.2-16.9L471.3,384.2z" />
	<path fill="#020202" d="M470.2,407.1c-0.5,3.5,1.2,8.1-0.6,11.1c-1.1-3.7-0.9-7.4,0-11.1C469.8,407.1,470,407.1,470.2,407.1z" />
	<path fill="#D5C98E" d="M471,384.1c0,2.7,0.4,5.5-0.6,8.1C470.7,389.6,469.6,386.5,471,384.1z" />
	<path fill="#070706" d="M470.4,396.9c1.3,2.1,0.8,4.7,0.7,7.1C469.9,401.8,470.2,399.2,470.4,396.9z" />
	<path fill="#D5C98E" d="M471.3,370.8c-0.1,0.3-0.2,0.5-0.3,0.8c-1.3-1.9-0.4-4.3-0.6-6.5C470.7,367,471,368.9,471.3,370.8z" />
	<path fill="#D5C98E" d="M469.4,370.9c-0.8-1.6-0.7-3.3-0.6-4.9C470,367.4,469.4,369.3,469.4,370.9z" />
	<path fill="#070706" d="M470.2,407.1c-0.2,0-0.4,0-0.7,0c0-0.5,0-1,0-1.6C470.4,405.8,470.3,406.5,470.2,407.1z" />
	<path fill="#F6D9C7" d="M462.4,408.7c0-0.2,0-0.5,0-0.7c0.2,0.1,0.5,0.1,0.8,0.1C462.9,408.3,462.7,408.5,462.4,408.7z" />
	<path fill="#D5C98E" d="M468.7,365.4c-0.2-0.3-0.4-0.6-0.6-1C468.2,364.7,468.5,365.1,468.7,365.4z" />
	<path fill="#443431" d="M503.5,384c1.2-0.7,1.2-0.7,2.8-0.5c-0.6,1.1-1.5,1.5-2.7,1.2C503.6,384.5,503.5,384.3,503.5,384z" />
	<path fill="#A8988A" d="M502,437.2c-0.9,1.2-1-0.1-1.4-0.6c0.4-0.1,0.9-0.1,1.3-0.2C502,436.7,502,437,502,437.2z" />
	<path fill="#7E6860" d="M508,413.2c-0.6-0.2-0.5-0.5-0.2-1C508.4,412.5,508.3,412.8,508,413.2z" />
	<path fill="#5F5845" d="M503.5,384c0.1,0.2,0.1,0.5,0.1,0.7C502.6,384.7,503.1,384.3,503.5,384z" />
	<path fill="#A5A46C" d="M460.1,437c0.9,0.2,1.7,0.3,2.7,0.5c-0.2,0.4-0.4,0.7-0.5,1c-3.2-0.3-6.1-0.9-9.2-1.4   c-0.1-0.2-0.2-0.4-0.2-0.6c0.3-0.3,0.6-0.6,0.9-0.9C455.8,436.1,458,436.5,460.1,437z" />
	<path fill="#311D13" d="M460.1,437c-2.1-0.4-4.3-0.9-6.4-1.3c0.2-0.4,0.7-0.7,1-1c2.3,0.6,4.7,1.2,7,1.8   C461.2,436.6,460.7,436.8,460.1,437z" />
	<path fill="#46342A" d="M452.8,436.6c0.1,0.2,0.1,0.4,0.2,0.6c-0.3,0.3-0.6,0.5-0.9,0.8c-1.1-0.5-2.1-1-3.2-1.4   c0.3-0.2,0.5-0.5,0.8-0.7C450.7,436.1,451.7,436.3,452.8,436.6z" />
	<path fill="#5A462F" d="M454.7,434.7c-0.3,0.3-0.7,0.6-1,0.9c-0.5-0.3-1-0.6-1.7-0.9C453.4,434,453.4,434,454.7,434.7z" />
	<path fill="#907C72" d="M500.3,434c-0.1-0.2-0.2-0.3-0.3-0.5c0.4-0.1,0.7-0.3,0.9,0.2C500.7,433.8,500.5,433.9,500.3,434z" />
	<path fill="#F0D4C2" d="M448.9,436.5c3.5,1.8,6.5,2.5,10.5,3.2c-5,4.1-10.3,5.7-16.7,7.1c1.6-4,3-7.4,4.5-10.9   C447.9,436.3,448.4,436.4,448.9,436.5z" />
	<path fill="#46342A" d="M455.3,437.5c0.6,0.1,1.2,0.3,1.8,0.4C456.4,437.8,455.8,437.6,455.3,437.5z" />
	<path fill="#46342A" d="M454.5,438.7c-0.6-0.2-1.1-0.4-1.7-0.6C453.4,438,454.1,438,454.5,438.7z" />
	<path fill="#5E5744" d="M498.8,407.2c-0.3-0.6,0.1-1.4-0.8-1.6c0-7.4,0-14.8,0.1-22.3c0.3-0.3,0.5-0.6,0.8-0.8   c1.5,6.4-0.9,13.3,0,20C499.4,404,500.1,405.8,498.8,407.2z" />
	<path fill="#2E2C1E" d="M499.4,403.9c-1-4.8-1.1-10.9,0-15.7C500,393.4,499.5,398.6,499.4,403.9z" />
	<path fill="#373533" d="M503.6,530.9c0-0.6,0-1.2-0.1-1.7c0.2,0,0.4,0,0.7,0C504,529.7,503.8,530.3,503.6,530.9z" />
	<path fill="#2A2726" d="M504.4,527.9c0.2-0.4,0.4-0.8,0.5-1.2C504.8,527.1,504.6,527.5,504.4,527.9z" />
	<path fill="#2A2726" d="M506,523.9c0.2-0.4,0.3-0.7,0.5-1.1C506.3,523.2,506.2,523.5,506,523.9z" />
	<path fill="#2A2726" d="M505.2,526.1c0.2-0.3,0.3-0.6,0.5-0.9C505.5,525.5,505.4,525.8,505.2,526.1z" />
	<path fill="#D5C98E" d="M473.5,379.3c-1.2,0-0.6-1-0.9-1.5c0.1-3.2,0.2-6.3,0.3-9.5C474.3,371.8,473.2,375.7,473.5,379.3z" />
	<path fill="#80736A" d="M488.6,387.2c1.2,1.1,0.7,2.3,0.5,3.7c-1.5-0.6-1.3-1.8-1.3-2.9C488,387.8,488.3,387.5,488.6,387.2z" />
	<path fill="#322C25" d="M498.8,382.5c-0.3,0.3-0.5,0.6-0.8,0.8c-0.2-0.6,0.1-1.4-0.9-1.5c-0.1-1.2,0.5-1.9,1.5-2.4   C498.8,380.4,498.8,381.5,498.8,382.5z" />
	<path fill="#4E413C" d="M475.7,381.9c0.6-0.2,1.4,0,1.7-0.8c0.7,0.3,1.4,0.6,2.2,1C477.7,382.8,477.7,382.8,475.7,381.9z" />
	<path fill="#A69388" d="M484.4,383.5c0.9,0.7,1.7,1.4,2.6,2.1l-0.2,0.2c-1.1-0.5-2.1-1-3.2-1.5C483.9,384,484.1,383.8,484.4,383.5z   " />
	<path fill="#9E897E" d="M482.4,372.9c-0.5-0.9,0.1-2.5,1.1-1.6C483.6,372.2,483.2,372.5,482.4,372.9z" />
	<path fill="#4A3B37" d="M474.1,390.7c1-0.5,3.1-1.5,3.2,0.5C476.1,391.6,475,391.3,474.1,390.7z" />
	<path fill="#4F403B" d="M494.1,388.1c-0.7,0.3-1.4,0.5-2.1,0.8c-1-1.8,1-1.6,2-1.7C494,387.5,494,387.8,494.1,388.1z" />
	<path fill="#AB8A7F" d="M494.1,388.1c0-0.3,0-0.6,0-1c0.9-0.8,1-0.7,2.5-0.4C495.4,387.4,494.7,387.7,494.1,388.1z" />
	<path fill="#A69388" d="M487,385.6c0.6,0.2,1.3,0.1,1.4,1c-0.3,0.3-0.6,0.5-0.9,0.8c-0.3-0.5-0.5-1-0.8-1.5L487,385.6z" />
	<path fill="#3E3430" d="M487.5,387.4c0.3-0.3,0.6-0.5,0.9-0.8c0.1,0.2,0.2,0.4,0.2,0.6c-0.3,0.3-0.5,0.6-0.8,0.8   C487.7,387.8,487.6,387.6,487.5,387.4z" />
	<path fill="#5D3834" d="M484.4,383.5c-0.3,0.3-0.5,0.6-0.8,0.8c-0.2-0.3-0.3-0.5-0.5-0.8C483.5,383.5,484,383.5,484.4,383.5z" />
	<path fill="#6C5D57" d="M484.6,362.9c0.2-0.1,0.4-0.1,0.7,0c0,0.5,0,1,0,1.5C484.4,364.2,484.6,363.5,484.6,362.9z" />
	<path fill="#D5C98E" d="M472.9,381c0.1-0.8,0.3-0.4,0.4,0C473.2,381,473,381,472.9,381z" />
	<path fill="#2A1E1C" d="M492.4,348.5c0.4,0.4,0.9,0.7,1,1.1c-0.2,4.6,4.2,5.9,7.3,8.4C495.8,358.2,490.8,353.7,492.4,348.5z" />
	<path fill="#635750" d="M496,356.5c0.4,0.3,0.8,0.5,1.2,0.8c-1.4,0.5,0,2.2,0.2,3.2c-0.3,0-0.7,0-1,0   C495.9,359.3,493.6,356.7,496,356.5z" />
	<path fill="#9F9185" d="M496.4,360.5c0.3,0,0.7,0,1,0c0.8,1,1.5,2.1,1.2,4.1C497.7,362.9,497,361.7,496.4,360.5z" />
	<path fill="#695F58" d="M499.5,358.2c1.4-0.4,2.9-0.1,3.3,1.5C501.4,359.7,500.4,359.1,499.5,358.2z" />
	<path fill="#958479" d="M499.6,369.2c-1.1-0.4-1-1.6-1.7-2.4C499.8,365.8,499.5,368.2,499.6,369.2L499.6,369.2z" />
	<path fill="#8B7C72" d="M500.3,371.5c-0.1,0.1-0.3,0.3-0.4,0.4c-0.1-0.3-0.4-0.7,0-0.9C500,371.2,500.1,371.4,500.3,371.5z" />
	<path fill="#958479" d="M499.6,369.2c0.2,0.1,0.4,0.2,0.6,0.3C499.5,370,499.7,369.4,499.6,369.2L499.6,369.2z" />
	<path fill="#4E4B3F" d="M433,580.5c0,0.4,0.1,0.7,0.1,1.1c-0.3,0.2-0.6,0.5-1.1,0.8C431.8,581.2,432.5,580.9,433,580.5z" />
	<path fill="#4E4B3F" d="M433.9,581.3c0.3-0.2,0.6-0.4,1-0.5C434.5,580.9,434.2,581.1,433.9,581.3z" />
	<path fill="#2E2522" d="M487,335.9c-0.3-0.3-0.7-0.6-1-0.9c0.7-1.8,1.5-3.5,4-2.9c1.5,1.7,4,4.3,1.7,6.5c0.6,0.8,1.2,1.6,1.7,2.3   c-0.5,1.3-1.3,1.8-2.4,2.1c-0.3-1.6-0.6-3.3-0.9-4.7c1.6-2,1.6-2.4,0.3-2.8c-0.6,0.5-1.2,1.1-2,1.8c0,0.9,0,1.8,0,2.7   c-1.4-1-0.5-2.6-0.8-3.9c0.8-0.6,1.9-0.9,2.1-2.4C488.1,333.5,487.6,334.8,487,335.9z" />
	<path fill="#3C352E" d="M513.1,317.6c-0.9-0.5-2.3-0.9-3.2-0.8c-0.4-0.8-0.7-1.4-1.1-2c0.5-1.4,2.3-0.5,3.5-0.9   c0.9,0.9,2.1,1.1,3.2,1.6h-0.1c0.7,0.9,1.2,1.9,1.6,2.9c-0.6,0.2-1.2,0.5-1.5,0.6C514.5,318.3,513.8,317.9,513.1,317.6z" />
	<path fill="#150F0E" d="M519.4,340.4c-1.8-1.7-2.6-2.3-4.7-3.3c2.3-1,4.4-2.2,7.2-1C520.3,337.5,520.2,338.1,519.4,340.4z" />
	<path fill="#311F1C" d="M524.2,334.9c-3.7,0.7-3.6-3.2-10.1-1.8C516.7,329.5,522.1,331.6,524.2,334.9z" />
	<path fill="#CAB8A9" d="M488.4,339.9c0-0.9,0-1.8,0-2.7c0.7-0.7,1.4-1.3,2-1.8c1.3,0.4,1.2,0.9-0.3,2.8c0.3,1.5,0.6,3.1,0.9,4.7   c-0.6,0-1.2,0-1.9,0C489.6,341.7,489.1,340.8,488.4,339.9z" />
	<path fill="#D2C0AF" d="M492.5,337.5c0.6-3.2-2.2-4.9-3.9-7c1.8-0.8,2.8,0.3,3.8,1.5c0.2,1.1,1.2,2,1.6,3.1   C493.5,335.9,493,336.7,492.5,337.5z" />
	<path fill="#101110" d="M488.4,339.9c0.6,0.9,1.2,1.9,0.7,3.1c-0.5-0.2-1-0.5-1.4-0.7c-0.5-1.6-0.4-3.6-1.5-4.9   c0.5-0.2,1-0.5,1.6-0.7C487.9,337.8,487.1,339.1,488.4,339.9z" />
	<path fill="#362E28" d="M494,335.1c-0.3-0.5-0.5-1-0.8-1.5c1.8-1.3,3.6,0.9,5.5,1.1C497.3,336.7,495.7,336,494,335.1z" />
	<path fill="#746758" d="M509.7,321.5c0.3-0.5,0.5-1.1,0.9-1.7c-0.7,0.1-1.1,0.1-1.6,0.1c-0.2-0.5-0.5-1-0.7-1.5c1,0.1,2,0.1,3,0.2   c0.2,1.3,0.4,2.3-0.7,3C510.3,321.6,510,321.5,509.7,321.5z" />
	<path fill="#403029" d="M509.2,325c-0.3-0.3-0.7-0.7-1-1c0.6-0.2,1.1-0.5,1.7-0.7l-0.1-0.1C509.6,323.8,509.4,324.4,509.2,325z" />
	<path fill="#453C34" d="M511.4,309.8c3.1-0.9,3,3.6,5.9,3.1c0.8,0.1,1.6-0.2,2.1,0.8c-0.3,0-0.6,0.1-1,0.1   c-0.5,0.9-1.5,1.1-2.3,1.5c-0.2,0-0.5,0-0.7-0.1h0.1c-0.4-1.1-1.2-1.6-2.4-1.6c-0.3-0.3-0.5-0.6-0.8-0.8l0,0   c-0.3-0.5,0.2-1.4,0.3-1.7C512.2,310.6,511.8,310.2,511.4,309.8C511.5,309.7,511.4,309.8,511.4,309.8z" />
	<path fill="#AD957F" d="M520.1,318.5c0.1-0.5,0.2-0.9,0.4-2.1c0.6,0.7,0.8,1.1,1.3,1.6C521,318.3,520.6,318.4,520.1,318.5   L520.1,318.5z" />
	<path fill="#BDBFA3" d="M515.4,315.3c0.2,0,0.5,0,0.7,0.1c0,0.4,0.1,0.8,0.1,1.2C515.9,316.1,515.7,315.7,515.4,315.3z" />
	<path fill="#9B9A84" d="M517.9,314.4c0.2-0.2,0.4-0.4,0.5-0.7C518.3,314,518.1,314.2,517.9,314.4z" />
	<path fill="#6C6A5B" d="M517.3,312.9c-1.3,0.2-2.2-0.4-2.7-1.6C515.8,311.3,516.7,312,517.3,312.9z" />
	<path fill="#886C53" d="M445.3,448c0.3-0.1,0.5-0.2,0.8-0.3c0.1,0.2,0.1,0.3,0.2,0.5c-0.3,0-0.6,0-0.9,0.1   C445.3,448.1,445.3,448,445.3,448z" />
	<path fill="#393433" d="M467,473.6c0.6-0.2,1.2-0.4,1.7-0.6C468.4,473.8,467.7,473.8,467,473.6z" />
	<path fill="#D7BEAE" d="M435.6,476.2c-0.8-0.5-1.6-1.1-2.5-1.6c-0.2-3-0.6-5.9,0.6-8.8c4.7,1.3,4.9,8.7,4.7,12.8   c-0.5,0-0.9-0.1-1.4-0.1c-0.3-0.3-0.6-0.6-0.8-1c0.2-0.4,0.5-0.7,0.7-1.1C436.5,476.4,436.1,476.3,435.6,476.2z M435.5,470.1   c-1,1.8-1,1.8,0.2,3.8C435.6,472.3,435.5,471.2,435.5,470.1z" />
	<path fill="#4C3531" d="M503.4,461.4c0,0.1-0.1,0.1-0.1,0.2c-0.1-0.1-0.2-0.2-0.3-0.2C503.1,461.1,503.2,461.1,503.4,461.4z" />
	<path fill="#211E1C" d="M510.7,472.1c-0.1-0.7-0.1-1.4-0.2-2.4C511.9,471,511.9,471,510.7,472.1L510.7,472.1z" />
	<path fill="#796962" d="M438.8,489.9c0-1.6-1.1-3.5,1.1-4.8C440.2,487.5,440.2,487.5,438.8,489.9z" />
	<path fill="#121513" d="M446,475.3c-0.7-1.8-0.7-3.1-0.1-4.6C447.2,472.5,447.2,472.5,446,475.3z" />
	<path fill="#675B54" d="M446.3,468.8c-1.3-0.6-1.6-1.5-1.2-2.8C446.5,466.5,446.5,466.5,446.3,468.8z" />
	<path fill="#A89388" d="M456.1,467.2c-0.6,0.8-1.1,1.5-1.9,2.6C453.6,468.1,453.9,467.7,456.1,467.2z" />
	<path fill="#695049" d="M437.1,478.5c0.5,0,0.9,0.1,1.4,0.1c0.2,1,0.1,1.8-1.4,1.8C437.1,479.7,437.1,479.1,437.1,478.5z" />
	<path fill="#504E47" d="M435.6,476.2c0.4,0.1,0.9,0.2,1.3,0.3c-0.2,0.4-0.5,0.7-0.7,1.1C436.1,477.1,435.9,476.6,435.6,476.2z" />
	<path fill="#58544E" d="M438.4,483.1c-0.7-0.6-0.4-0.8,0.1-1.4C439.3,482.1,438.7,482.4,438.4,483.1z" />
	<path fill="#574843" d="M437.9,493.3c0.1-1.4,0.5-1.4,0.6,0C438.3,493.3,438.1,493.3,437.9,493.3z" />
	<path fill="#93816D" d="M490.9,314.5c0,0.2,0,0.4,0,0.6c-0.3-0.2-0.6-0.4-0.9-0.6C490.3,314.5,490.6,314.5,490.9,314.5z" />
	<path fill="#CFDABA" d="M509.9,323.2c-1.7,1-3.5,0.7-5.4,0.7C506.2,323.3,508.5,321.2,509.9,323.2z" />
	<path fill="#999F88" d="M493.3,320.1c-0.5,0-1.1,0-1.6,0c0-0.3,0-0.6,0-0.8C492.3,319.2,493,319.3,493.3,320.1z" />
	<path fill="#746758" d="M507.5,320.8c0.6,0.2,1.1,0.5,1.7,0.7C508.4,321.7,507.8,321.7,507.5,320.8z" />
	<path fill="#523F35" d="M502.7,314.8c1.1-0.2,2.3-0.6,3.2,0.5C504.9,315.1,503.7,315.8,502.7,314.8z" />
	<path fill="#B5C8AB" d="M507.5,316.9c0,0.3,0,0.5,0,0.8c-0.6-0.1-1.4,0.1-1.6-0.8C506.4,316.9,507,316.9,507.5,316.9z" />
	<path fill="#523F35" d="M506.7,315.4c0.3,0,0.5,0,0.8-0.1c0,0.2,0,0.5,0,0.7C507.2,315.9,506.9,315.6,506.7,315.4z" />
	<path fill="#C4A287" d="M501.3,327.1c0.9-0.1,1.8-0.2,2.7-0.3c-0.3,2.3-4.9,0.5-6.7,1C498.4,326.9,499.9,327.2,501.3,327.1z" />
	<path fill="#362F28" d="M493.3,329.6c-0.6-0.5-1.2-1-1.6-1.6c1.1-0.1,2.2,0.1,3.2,0.8c0,0.3,0,0.6,0,0.8l0,0   C494.3,329.6,493.8,329.6,493.3,329.6z" />
	<path fill="#362F28" d="M494.8,329.6c0.6,0,1.2,0,2.1,0C495.9,330.7,495.3,330.5,494.8,329.6L494.8,329.6z" />
	<path fill="#362E28" d="M493.2,333.5c-0.2-0.3-0.4-0.6-0.6-0.8C492.8,333,493,333.3,493.2,333.5z" />
	<path fill="#1D1B17" d="M511.5,309.7c0.4,0.5,0.7,0.9,1.2,1.4c-0.1,0.2-0.2,0.6-0.4,1.1c-0.5-0.1-1-0.1-1.5-0.2l0,0   c-0.8-1.1-2.1-1.7-3.2-2.5C508.8,308.9,510.1,309.5,511.5,309.7z" />
	<path fill="#C2C0A3" d="M509.9,311.2c0.3,0.3,0.5,0.6,0.8,0.9C510,312.2,508.8,311.8,509.9,311.2z" />
	<path fill="#B2AD93" d="M510.7,312.1c0.5,0.1,1,0.1,1.5,0.2c0,0.2,0,0.4,0.1,0.7C511.6,312.9,510.8,313.1,510.7,312.1z" />
	<path fill="#B2AD93" d="M512.3,312.9c0.3,0.3,0.5,0.6,0.8,0.8l0,0c-0.3,0-0.6,0.1-0.8,0.1l0,0C512.2,313.5,512.2,313.2,512.3,312.9   z" />
	<path fill="#A69283" d="M488.5,330.5c0.5,0.5,1,1,1.5,1.5c-2.5-0.6-3.3,1.1-4,2.9C484,333.9,487.1,330.9,488.5,330.5z" />
	<path fill="#B8A98F" d="M486.1,337.4c0.2,0.2,0.4,0.5,0.6,0.7c-0.3,0.7-0.6,1.4-0.9,2.1c-1.2-0.5-1.1-1.9-1.4-3.1   C485.2,337.2,485.6,337.3,486.1,337.4z" />
	<path fill="#B1A597" d="M487,335.9c0.6-1.1,1.1-2.3,2.8-2.3c-0.2,1.5-1.3,1.7-2.1,2.4C487.5,335.9,487.2,335.9,487,335.9z" />
	<path fill="#647665" d="M504.7,307.6c0.5-0.1,1-0.1,1.5-0.2c0,0.2,0,0.3,0.1,0.5c-0.5,0.1-1,0.1-1.5,0.2   C504.7,307.9,504.7,307.8,504.7,307.6z" />
	<path fill="#9D9D86" d="M513.1,313.7c1.2,0,1.9,0.6,2.4,1.6c-0.8-0.3-1.6-0.6-2.3-0.9C513.1,314.2,513,313.9,513.1,313.7   L513.1,313.7z" />
	<path fill="#746758" d="M513.1,313.7c0,0.3,0,0.5,0,0.8c-0.3-0.2-0.6-0.5-0.9-0.7C512.5,313.7,512.8,313.7,513.1,313.7z" />
	<path fill="#171312" d="M435.5,470.1c0.1,1.1,0.1,2.2,0.2,3.8C434.4,471.9,434.4,471.9,435.5,470.1z" />
</g>
</svg>