<?xml version='1.0' encoding='utf-8'?>
<svg xmlns="http://www.w3.org/2000/svg" version="1.2" baseProfile="tiny" id="Layer_2_1_" x="0px" y="0px" viewBox="0 0 900 600" overflow="visible" xml:space="preserve">
<g id="a_00000039098646043381120420000001198413956183642515_">
	<path d="M431,103.8c1.5-2.3,0.5-4.9,0.7-7.6c-0.3-1.7-3.1-0.6-4.5-1.1c-0.3,0.5-0.5,1.1-0.8,1.7c-2.2-0.8-4.2-4.1-6.8-1.2   c-0.9-0.8-1.7-1.7-2.6-2.5c-4,2.5-4-2.6-7.1-3.6c0,0.5-0.1,0.9-0.1,1.3c-2.7,1.3-3.5-3.1-6-3.5c-1-2.4-1.9-4.7-2.8-6.9   c-2.8,1.2-3.3-1.5-4.8-3c-0.7-3.4,1.1-7.1,0.3-10.3c-0.9,1.2-0.9,2.2-1.8,3.4c-0.7-4-1.9-7.8-0.1-12.3c-0.2-0.2-0.5-0.4-0.7-0.7   c-0.6,0.4-1,0.8-1.7,1.3c-2.9-3.4,0.8-7.8-1-11.5c-2-4.1,2.2-8.1,3.5-11.7c-0.5-1.8,1.2-2.8,1.5-4.3c1-0.3,1.6-0.9,1.3-2.2   c-0.8,0.6-1.5,1-2.1,1.5c-1.5-0.8-0.1-2.1,0.3-3c0.7-3.4,3.7-3,6.1-4.6c-1-0.2-1.7-0.3-2.7-0.5c0.3-0.6,0.4-1,0.6-1.4   c2-0.1,4-0.1,5.2-2.1c-0.1-0.8-0.5-1.5-0.9-2.2c2.6-3.6,3.4-0.5,4.5-2.5c-0.6-0.5-1.2-1-1.8-1.5c0.2-0.6,0.3-1.1,0.5-1.8   c2.9-0.4,5.6-0.9,8.4-1.7c1.8-0.6,1.2-5.1,3.9-3.1c3.4,1.6,6.2-4.5,11.7-2.4c1.7-2.2,3.7-1.7,6.4,0.8c3.8-0.5,8.1-4,12-2.2   c0,0.5,0,0.9,0,1.5c-1,0.3-1.8,0.5-2.7,0.8c0.9,2.2,3.7,0.7,4.5-0.8c2.7-0.1,6.5-3,8.5-0.4c-0.7,1.4-3,0.2-3.3,2.3   c4.7,1.8,10.9-0.5,14.7,3.9c-0.1,0.5-0.3,0.9-0.4,1.4c-0.9-0.1-1.8-0.2-2.9-0.3c-0.1,0.5-0.3,1-0.4,1.5c1.5,0.1,2.8,0.1,4,0.2   c2,2.2,4.8,3,7.3,4.5c-0.2,0.6-0.3,1.1-0.4,1.6c2.1,1.4,3,3.8,4.4,6.1c-0.6,0.5-1.1,0.9-1.7,1.3c0.1,1.4,2.5,2.7,0.3,4.5   c2.6,1.8,2.2,4.7,2,7.5c-0.4,0.5-0.8,1.1-1.3,1.6c0.1,2.8,1.2,5.1-2.6,5.9c1.3,2.5-0.5,4.6-0.9,6.9c-0.6,0-1.1,0.1-1.6,0.1   c-0.4,0.8-0.8,1.5-1.2,2.1c-3.6-6.1-4.4-11.3-12.6-8.6c-10-2.8-20.4,4.2-24.7,12.7c0.4,0.7,0.8,1.3,1.2,1.9c-0.4,0-0.9,0.1-1.5,0.1   c0.2,0.9,0.3,1.5,0.5,2.3c-0.3,0.2-0.7,0.4-0.8,0.4c0.4,0.9,0.7,1.5,1,2.1c-0.7,1.2-1.4,2.4-2.1,3.6c0.4,0.5,0.7,0.8,0.9,1.1   c-0.4,1.4-1.6,1.3-2.5,1.7c-0.5-0.2-1-0.4-1.5-0.6c-0.5-1-1-2-1.4-3.1l0,0c3.6-17.4,13.7-26.3,32-26.9c0.2,0.6,0.5,0.8,1.1,0.1   c-0.5,0-0.8-0.1-1.1-0.1C449,30.9,428,51.2,430.3,67.8c-1.4,1.1-2.3,2.4-2.2,4.3c-1.1,1.1-0.3,2.8-1.2,3.6c1.3,3.8,3.7,6.4,6.4,8.7   c0.2,6.7-1,13-0.8,19.7c-1.1,0.4-0.4,1.4-0.7,2.2c-1.3,0.6-0.2,2.2-1.4,3.1c0,0.2-0.1,0.4-0.2,0.6c-1.7-2.6,0.4-1.8,0-3.9   c-0.1-0.2,0-0.4,0.1-0.5C431.2,105.2,431.1,104.5,431,103.8z M428.1,7c-0.4-2.2-0.3-1.5-2.5-1.5C426.7,6.2,427.2,6.4,428.1,7z    M396.6,35c1.2-0.1,1.5-0.5,1.3-1.3C396.9,33.6,396.8,34.1,396.6,35z M415.5,90.7c-0.1,0.4-0.4,0.7,0,0.9   C415.9,91.2,415.9,91,415.5,90.7z M393,45.8c0.2-0.2,0.2-0.3,0-0.4c-0.1,0.1-0.1,0.2-0.2,0.3C392.9,45.7,393,45.8,393,45.8z" />
	<path fill="#010101" d="M459.5,110.7c-0.1,3.4-0.3,6.7-0.4,10.1c60.2,23.2,41.8,27.4,47,85.3c4,19.8,10,39.6,7.8,60   c-2.9,7.6,1.2,18.6-1.6,26.1c-2.6-26.2,2.2-53.5-7.9-78.6c0.1-0.2,0.1-0.4,0-0.6c0.2-6.5-1.8-12.8-1.6-19.3c0-0.5,0.4-1.2-0.6-1.4   c-2.3,3.5-6.2,4.4-9.4,6.7c-1.1,11-3.9,21.7-6.4,32.4c0.6,21.8,12.9,40.4,16.5,61.5c-0.5,1.4,1,1.9,2,2.3   c-0.2,3.6,0.8,7.4-0.6,10.9c-4.5-22.8-15-45.3-19.8-68c0.5,15.9,7.2,30.8,12.4,45.7c2,9.8,3.5,20.5,5.9,29.4   c-1.2,2.7,2.6,5.7,2.3,8.8c-1.4,3.1-0.6,5.9,0.5,9c0.9,4.5-0.9,9.5,0.9,13.6c3.1,23.5-2.4,47.3-1.3,70.5c0.5,15.3,0,30.4,2.7,45.7   c2.9,25.4-1.7,50.6-1,75.9c1.1,0.2,2.1,0.4,3.3,0.6c2.2,2.8,2.1,6.3,2.6,10.2c6.3,6.8,11.2,17.2,19.8,21.4c7.1,1.1,9,8.6,8.9,14.8   c-12.5,8.6-30.9,8.1-43.8,0.2c-3.8,2.4-23.1,1.5-19.7-5.7c3.5-4.7,2.5-10.3,2.3-15.8c-0.9-5.7,3.3-10.9,2.3-16.5   c1.5-2.2,3.4-1.5,5.5-0.9c-1.6-10.4-2.5-20.7-3.6-31.2c-3.5-18.1-14.6-34.9-12.9-53.9c6-38-14.1-72.5-21.4-109.1   c-5.3,21.7-7.8,45.1-15.6,66.3c0.1-13.8,6.3-29.5,8.6-43.9c5.3-18.1,3.9-38.8,12.4-55.6c0.3,0.3,0.6,0.6,0.9,0.9   c-11.9,31,6.7,62.1,13,92.6c3.3,13.9,8.2,27,4.5,41.4c-1.3,14.3,1.6,28,6.8,41.1c6.2,15.5,7.3,32.2,9.5,48.6   c11.6,2,3.4-2.9,14.1-6.2c-0.7-21.5,3.4-42.9,1.4-64.5c-1.1-17.9-3.4-35.5-2.7-53.4c-2.6-14.4,1.6-29.1,1.7-43.6   c0.1-27.6-2.8-55.1-9-82c-32.6,11.9-67.1-2-100.3,0.7c-0.9,3.9-1.7,7.7-1.6,11.7c2.1,2.5,4,5.1,5.8,7.8c-0.3,0.3-0.6,0.5-0.8,0.8   c-3.5-4.2-11.7-10.3-10.3-16c-0.4-0.7-0.8-1.2-1.1-1.8c0.6-0.4,1-0.7,1.1-0.7c0.6-19,4.5-36.9,7-55.5c0.4-11.7-0.1-23.5,3.7-34.7   c3-9.7,3.2-20.2,4.1-30.3c0.3-3.9-1-8.8,2.8-11.4c0.5,0.5,0.9,0.9,1.5,1.4c8-12.3,11.8-27.6,5.4-41.4c-6.9,5.6-16,5.7-22.8,10.8   c-16.1,11.7-5.3,33.3-10.9,49.5c-3.4,19-2.8,37.9-8.5,56.5c-2.5,25,11.4,49.7,7,74.3c-0.3,0-0.5,0-0.8,0c-1.4-22.1-6.4-43.9-8.6-66   c-1.2-9.3,2.7-18,4.7-27c0.5-16,2.4-31.7,5.3-47.4c0.4-49.5,5-35.9,43.5-58c0.5,0.2,1.1,0.5,1.6,0.7c-0.6,0.4-1.1,0.9-1.7,1.3   c4.3,19.6,18.5,38.4,40.3,37.3c-0.5-2-1.1-3.4-0.9-5.2c2,1.4,1.9,4,3.3,6c3.5-0.2,7-0.5,10.1-0.7c1.3-1.3,2.3-2.4,3.4-3.6   c-0.8-8.4-4.4-16.2-9.1-23.3c-3.4-0.4-6.6-2.3-9.7-4.4c-0.2,0.7-0.3,1.2-0.5,1.9c-2.6-4.6-2-10.6-1-15.7c0.9-0.4,0.6-1.3,0.5-2   c0.3-0.3,0.6-0.6,0.9-0.9c0.2,0,0.4,0,0.7,0.1C459.5,108.1,459.1,109.4,459.5,110.7z M479.7,132.4c-0.1-0.2-0.1-0.4-0.4-0.4   c2.6,3.1,11.3,10.5,9,14.2c-4.8-5.9-8.8-12.4-15.3-17c15.5,26.8,2.8,33.7-23.7,26c-17-5.6-24.9-20.4-29.3-36.7   c-2.2,0.7-3.8,1.9-5,3.7c7.5,15.5,3,35.6-9.5,47.1c-1.7,64.6,27,41.4-8.9,121.4c32.4-1.5,67.1,11.2,98.4-1.2   c-16.7-56.4-14.9-36.2-4.4-92.1c16.6-6.6,13.8-21.6,7.1-35c0.2-0.5,0.5-1.1,0.7-1.6c1.4,2.2,2.8,4.4,4.4,6.9   C504.4,151.7,496,135.7,479.7,132.4z M508.6,552.9c-1.2,0.2-2.6-0.1-3.7,0.7c-2.7-0.3-4.4,1.7-6.6,2.9c-0.4-0.5-0.8-0.9-1.3-1.4   c2.8-5,9-3.9,13.9-5c-0.6-3.4-0.9-6.6-1.9-9.6c-3.7-1.8-5.7-1.7-8.9,0.5c-1.8,4.8-3.7,14.4-10.7,11.8c-2-2.3-1.4-5-4-7   c-4.4,11.5-0.8,23.5-5.7,34.8c5.2,0.6,10.3,3.2,15.4,1.6c1.9-0.6,3.8-0.2,5.6,0.7c11.8,6,27.3,6.1,38.7-0.6   c-0.5-1.8-0.7-3.7-1.6-5.4c0.6-3.9-3.6-4.8-6.7-6.1c-6.6-3.2-10.3-10.5-15.4-15.6c-4.3,1.3-9.1,1.7-12.5,5   c-3.9-5.9,8.2-5.2,10.8-7.5c-0.2-0.4-0.3-0.6-0.5-0.9C512,552.1,510.3,552.5,508.6,552.9z M403.5,199.2c-5.4,13.3-5.5,27.6-6,41.7   c-1.9,19.3-7.9,38.3-6.3,57.8c13.6-38.6,32.1-59.6,12.4-101.5C403.6,197.9,403.6,198.6,403.5,199.2z M490.5,544.7   c-1,4-0.8,4.7,1.9,6c1.7-1.5,3.6-2.9,3.9-5.7C494.3,544.9,492.4,544.8,490.5,544.7z" />
	<path fill="#010101" d="M434.7,412.7c0.6,1.6-1.8,3.4,0,4.4c-4.4,10.9-5.7,24.2-12.8,33.7c-4,10.3-1,21.9-5.3,32.3   c-7.4,21.1-12,42.9-11.6,65.4c1,0.1,1.8,0.2,2.9,0.4c4.2,11.2,9.1,23.1,16.8,32.4c5.4,3.9,3.6,9.9,2.2,15.4   c-12.9,3.8-27,4.4-40.1,1c-0.4-1.5-0.9-2.9-1.3-4.4c-2.6-0.7-5.3-0.8-7.5-1.7c-1.5-5.9,3.4-11.4,2.3-17.6   c0.7-5.4-3.2-12.5,3.5-14.9c4.3-30.6-4.7-61.9-1-92.9c20.5-63.8,16.2-47.8,9.8-113.7c-1-1.1-1.9-2-2.8-3c0.3-0.3,0.6-0.5,0.8-0.8   c0.8,0,1.1,0.9,1.6,1.4c0.5-0.5,0.8-0.9,1.2-1.3c0.7,1.1,1.6,2,2.7,2.8c0.5-1.2,0.6-1.9,0.1-2.4c-2.2-1.9-2-4.8-3.4-7   c0-4.2-1.1-8.2-3.1-12.2c0.9,0,1.4-0.1,1.8-0.1c3.9,6.1,1.8,13.3,6.4,19.2c3.2-2.1-0.2-6.9-0.7-9.8c-1.5-6.7-2.4-13.4-2.7-20.2   c3.7,4.3,1.7,9.5,4.9,13.6c-2.9,6.8,5.9,17.5-3.4,21.6c0,27,10.3,54.4,0,80.4c-4.4,10.6-9,21.1-10.2,32.7   c-4.6,27.8,3.9,56,1.6,83.8c1.7-1.3,1.8-5.3,2.9-7.6c2.8-1.7,6.3-3.1,9.6-3.1c0.6,0.7,0.9,1.1,1.5,1.8   c1.3-26.7,13.5-50.9,16.1-77.1c-1.1-9,2.7-16.6,6.6-24.3C428.4,431.9,430,421.6,434.7,412.7z M424.5,595.1   c2.8-2.9,2.2-9.3-1.1-11.8c-7.5-8.9-13.2-20.9-16.7-32c-3.5-1.8-5.4-5.3-8.2-8.1c-2.2,0.8-4.6,1-6.2,2.3c-1.2,4.3-3.2,22.6-9.9,16   c-0.6,9.6,0.9,18.6-2.7,28c1.8,0.5,3.5,0.6,5.2,0.8c0.5-1.1-0.1-2.4,1.2-3.3c2.1,2.7,0.9,6.2,2.8,9.1   C400.7,598.2,412.9,597.8,424.5,595.1z M387.4,554.1c-2.1,1.5-2.4,2.8-1.1,4.7C387.4,557.3,387.7,555.9,387.4,554.1z" />
	<path fill="#120E0D" d="M506.6,344.5c-1.3-1.9-0.5-4.5-0.6-6.7c1.1,0.8,1.1,0.8,1.3-0.6c1-1.7,2-3.4,3-5c2.3-1,1.4-4,1.2-6   c-0.6,3.2-0.6,3.2-1.9,5.3c0,0,0,0,0,0c-0.6,0.5-1.3,0.9-2,1.3c-0.3-0.3-0.6-0.5-0.9-0.8c0-2.6-0.4-3.8-1.3-6.8   c-0.2,1.7-0.2,2.5-0.3,3.3c-1.3-2.1-0.4-4.4,0.2-6.6c1.6,2.6,1.3,5.7,3.3,8.1c4.6-3.6-3.5-10.3,3-12.5c6.2,5.7,5.5,15.9,1.1,22.7   c-0.3,0.5-0.1,1.1,0.6,1.4c0,0.7,0.1,1.3,0.9,1.5c-0.8,0.8-1.7,1.6-2.5,2.4c-3.7,0.5-3.2-2.3-4.8-4.7   C506.7,342.4,506.7,343.4,506.6,344.5z M513.2,335c0.9-0.7,1.3-1.6,1.6-3.1c-2.5-3.8,1.5-10.3-4.3-12.3c4.2,8.1,3.8,12.7-1.6,20   c0.4,0.4,0.9,0.8,1.4,1.3C511.3,338.8,512.3,336.9,513.2,335z M509.7,343.5c0.1,0,0.3,0,0.4,0C510.6,341.5,509.2,341.6,509.7,343.5   z" />
	<path fill="#0E0D0C" d="M514.1,343.1c-2.6-2,2.4-6.1,3-8.5c2.9-4.7,1.9-11.4,2.9-16.4c-4.6-8.4-7.4-16.5-7.6-26   c2.8-7.6-1.3-18.5,1.6-26.1c-0.6,18.2-1.4,37,8.6,53C519.6,327.7,521.7,336.6,514.1,343.1z" />
	<path fill="#1A1715" d="M476.1,54.6c0.4-0.7,0.7-1.3,1.2-2.1c0.5,0,1,0,1.6-0.1c-0.4,0.3-0.8,0.7-1.3,1.1c0.8,5,3.1,10,2.3,15.3   c0.5,0.4,0.8,0.6,1,0.8c0.4,1.5-0.5,2-1.2,2.6c0.1-0.2,0.1-0.3-0.1-0.5c0.8,1-0.3,1.8-0.6,2.7c0.4,2.8,1,5.7,0,8.5   c-1.6-2.8,0.3-6.3-2-9c-0.8-0.1-1.5-0.3-2.2-0.4c-0.3-0.3-0.6-0.5-0.8-0.8c0,0,0.1,0,0.1,0c-0.1-0.6-0.1-1.1-0.2-2.1   c-0.6,0.7-1,1.1-1.4,1.4c-0.2-0.2-0.4-0.4-0.6-0.7c0-0.3,0-0.5,0-0.8l0,0c1.9-2.8,3.5-2.2,6.7-2.4c1.6-4.9-5,0.4-5.7-2.3   c1.2-2,3.6-1.8,5.6-2.7C478,60.3,476.9,57.5,476.1,54.6z" />
	<path fill="#0E0C0B" d="M377.3,314c0.3,0,0.5,0,0.8,0c0,1.9,0,3.9,0,5.8c-1,1.4-1,2.2,0,3.6c0.3,1.9,0.3,3.9,2.1,5.2   c0,0.4,0.1,0.9,0.1,1.3c0.2,0.2,0.5,0.5,0.7,0.7c0,0,0,0,0,0c0,0.3,0,0.5,0,0.8c-1.5,1.1-0.1,5.8,1.4,6.2c-0.1-2.3-0.8-4.1-1.4-6.2   c0.3,0,0.5,0,0.8-0.1c0.7,1.5,1.5,2.9,2.2,4.4c-0.3,4.2,1.1,8.2,4.3,10.8c-0.3,0.3-0.7,0.6-1,0.9c-8.8-6.4-10.5-19.6-10.8-29.9   c1.1-0.7,1.1-0.8,0-1.6C376.8,315.4,377,314.7,377.3,314z" />
	<path fill="#453D39" d="M478.2,81.4c0.2,0.5,0.5,1,0.7,1.5c-0.9,4.7-1.6,9.4-3.5,13.9c-0.2,0-0.5,0-0.7,0   C475.7,91.7,476.5,86.2,478.2,81.4z" />
	<path fill="#1B1817" d="M423.8,116.3c-0.5-0.2-1.1-0.5-1.6-0.7c3.9-1.1,5.5-4.2,7.3-7.4c0.3,0.6,0.5,1.1,0.8,1.7   C429,112.7,427.5,116.1,423.8,116.3z" />
	<path fill="#484341" d="M459.5,110.7c-0.4-1.3-0.1-2.6,0.6-3.7c3.6,0.1,7.1-0.3,10.1-2.4c0,0.3,0.1,0.6,0.1,0.9   c-2.1,3.2-6.5,2.3-9.8,3.1C460.2,109.2,459.9,110,459.5,110.7z" />
	<path fill="#C3C3C3" d="M404.9,18.3c0,0.2,0.1,0.5,0.2,0.7c-1.2,2-3.2,2-5.2,2.1c0.3-0.5,0.6-1.1,0.9-1.6   C402.3,20.3,403.6,18.8,404.9,18.3z" />
	<path fill="#333333" d="M404.9,18.3c-1.4,0.5-2.7,2-4.2,1.2c0.2-1.8,2.2-1.9,3.5-2.7C404.5,17.3,404.7,17.8,404.9,18.3z" />
	<path fill="#A5A5A5" d="M451.6,3.9c-0.8,1.5-3.7,3-4.5,0.8c0.9-0.3,1.8-0.5,2.7-0.8c0-0.6,0-1,0-1.5C450.4,2.9,451,3.4,451.6,3.9z" />
	<path fill="#4A4543" d="M470.3,105.5c0-0.3-0.1-0.6-0.1-0.9c0.8-1.4,1.5-2.8,2.3-4.1c0.3,0.3,0.5,0.6,0.8,0.9   C472.8,103,471.5,104.2,470.3,105.5z" />
	<path fill="#D6D6D6" d="M471.8,12.5c-1.3-0.1-2.6-0.1-4-0.2c0.1-0.5,0.3-1,0.4-1.5c1.1,0.1,2,0.2,2.9,0.3   C471.3,11.5,471.5,12,471.8,12.5z" />
	<path fill="#6B5952" d="M473.3,101.3c-1.7-1.2,0.4-1.6-0.8-2.3c0.5-0.5,1-1,1.5-1.5c-0.1,0.6-0.1,1.1,0.5,1.4   C474.1,99.7,473.7,100.5,473.3,101.3z" />
	<path fill="#221C19" d="M387.3,347.5c0.3-0.3,0.7-0.6,1-0.9c0.8,0.7,1.5,1.4,2.3,2.2c-0.3,0.3-0.6,0.5-0.8,0.8   C388.9,348.9,388.1,348.2,387.3,347.5z" />
	<path fill="#969696" d="M395.5,30.7c0.7-0.5,1.3-0.9,2.1-1.5c0.2,1.2-0.3,1.8-1.3,2.2C396,31.2,395.8,30.9,395.5,30.7z" />
	<path fill="#1B1817" d="M431.7,99.4c0,1.3,0.7,2.7-0.5,3.8C431.4,102,431.5,100.7,431.7,99.4z" />
	<path fill="#010101" d="M376.5,316.1c1.1,0.7,1.1,0.8,0,1.6C376.1,317.1,376,316.6,376.5,316.1z" />
	<path fill="#1B1817" d="M430.3,106c0.1,0.7,0.2,1.3-0.6,1.7C429.6,107,429.6,106.4,430.3,106z" />
	<path fill="#EAA388" d="M433.4,420.7c0.2-0.4,0.4-0.8,0.6-1.2C434.1,420,434,420.4,433.4,420.7z" />
	<path fill="#242221" d="M474.5,98.9c-0.7-0.3-0.6-0.9-0.5-1.4c0.2,0,0.3,0,0.5,0C474.6,98,475,98.5,474.5,98.9z" />
	<path fill="#6B5952" d="M474.7,98.3c-0.2-0.5-0.3-1-0.1-1.5l0,0c0.2,0,0.5,0,0.7,0C475.2,97.3,475,97.8,474.7,98.3z" />
	<path fill="#1B1817" d="M431,103.8c0.1,0.7,0.2,1.3-0.6,1.6C430.6,104.9,430.8,104.4,431,103.8z" />
	<path fill="#1B1817" d="M430.9,95.4c0.6,0,0.8,0.3,0.8,0.9C431.5,96,431.2,95.7,430.9,95.4z" />
	<path fill="#EAA388" d="M434.1,419.2c0.1-0.2,0.3-0.5,0.4-0.7C434.3,418.7,434.2,419,434.1,419.2z" />
	<path fill="#B28C7D" d="M472.5,99c1,0.5-0.1,1,0,1.4c-1.8,5.7-7.7,7.1-13.1,6.5c-4.8-4.8-11.3-8-17.5-10.9l0,0   c-0.3-0.2-0.5-0.5-0.8-0.7l0,0c-2.8-3.3-5.1-7.3-5.1-11.7c-0.5-0.6-1-1.3-1.6-2.1c2.3-3.7-3.3-6.4,0.8-9.5c0.9-0.4,2.1-0.4,2.5-1.7   c-0.2-0.3-0.5-0.6-0.9-1.1c1.6-2.6,3.4-5.4,2.9-8.7c0.5-8.4,9.1-13.7,16.9-15.2c3.2,0.1,6.5,1.4,9.8,0.2   c7.9-0.9,10.2,11.8,11.6,17.8c-2,0.9-4.4,0.7-5.6,2.7c0.7,2.7,7.3-2.6,5.7,2.3c-3.1,0.2-4.7-0.4-6.7,2.4c-0.1-0.5,0.3-1.2-0.6-1.3   c-2.1,2.7-2.2,4.8-0.3,6.8c0.2-0.9,0.3-1.6,0.4-2.1c1.2-0.6,1.8-1.1,2.9-1.3l-0.1,0c0.3,0.3,0.6,0.5,0.8,0.8   c0.7,0.1,1.4,0.2,2.2,0.4c3.4,6.1-0.7,12.8-1.6,19.2c-0.6,0.3-1-0.3-1.4-0.6c-0.7-4.8-10-1.8-12.3,0.7c0,0,0,0,0,0   c-1.2,0-2.5-0.6-2.8,1.2c0.7,0.1,1.4,0.2,2.1,0.3C461,98.6,469.3,100.8,472.5,99z M462,73.6c-0.2-1.2-0.5-2.4-0.7-3.5   c-3.7-3-8.9-1.4-12.5,0.1c0.6,1,1.2,2,1.8,3C453.7,74.5,457.8,74.7,462,73.6z M453,64.9c3,0.8,6.1,0.4,8.8,1.9   c0.8,0.2,2.1,0.8,2.5-0.3c-4.3-4.5-11.9-3.9-17.2-0.4C449.5,66.6,451,65.3,453,64.9z M461.6,85.7c2.7,3.1,4.4,0.4,6.6-0.2   c-0.7-0.4-1.3-0.8-1.9-1.2c-1,0.5-1.9,1-3.1,1.7c0-1.5,0-2.6,0-3.8C461.3,83,461.4,84.5,461.6,85.7z M473.9,84.4   c-2.1,0.2-2.1,0.2-3.8,2c1.3,0,2.5,0,3.6,0c2.9-2.8-0.6-4.9-2.2-7.6C471.5,81.5,473.2,82.7,473.9,84.4z" />
	<path fill="#977264" d="M444,96.8c5,2.9,10.6,5.3,14.7,9.3c-3.2,0-7.7-6.3-9.9-4.5c3.2,2.1,6.1,4.7,9.7,6.1   c-1.6,4.8-1.4,10.6-0.6,15.8c-7.4-5.9-13.9-12.9-19.6-20.2c0.9,5.5-3.6,8.8-5.4,13.5c-1.5,2.7-3.1,5.4-6,7c-1,0.5-1.7,1.4-1.7,2.6   c-1.5-2.7-2.2-5.7-3.1-9c0.5-0.4,1.1-0.8,1.7-1.3c4.5-0.3,5.9-5.2,7.4-8.5c0.6-0.4,0.7-0.9,0.6-1.6c0.1-0.2,0.1-0.4,0.1-0.6   c0.6-0.4,0.7-1,0.6-1.6c0.1-0.2,0.1-0.4,0.1-0.6c1.3-5.9,0.2-11.8,1.6-17.9c1.9,4.2,2.6,8.5,7.1,9.8c0,0,0,0,0,0   c0.3,0.2,0.5,0.5,0.8,0.7l0,0C442.3,96.8,443.4,98.3,444,96.8z" />
	<path fill="#928F9E" d="M436.2,48.9c5.4-8.1,20.3-14,28.3-7.3l0.1-0.1c-9,1.1-19.1,2-24.8,10.2C438.2,51.3,436.8,50.6,436.2,48.9z" />
	<path fill="#8D8690" d="M436.2,48.9c0.6,1.7,1.9,2.4,3.5,2.8c-2.5,4.7-6.2,8.9-6.6,14.4c-0.8,0.6-0.6,1.5-0.7,2.3l0,0   c-0.7-0.2-1.4-0.4-2.2-0.6C429.4,61.7,432.7,53.9,436.2,48.9z" />
	<path fill="#150F0E" d="M437.6,92.5c-1.8-1.7-1.9-4.2-3.4-7c-0.6,2.4,0.3,3.7-0.9,5.5c0-2.2,0-4.5,0-6.7c1.2,0.4,2-0.4,2.9-0.8   c-0.2,2.9,1.3,5.4,2.2,8.1C438.1,91.9,437.9,92.2,437.6,92.5z" />
	<path fill="#2E231F" d="M434,74.3c-0.4,2,1.2,3.1,1.5,5c-1.1-0.1-2.2-0.2-3.5-0.4c1,1.6,1.1,3.2,0.7,4.8c-0.8-0.2-1.3-0.7-1.5-1.5   c1.6-0.9-0.9-2.9-1.2-4c0.2-0.4,0.3-0.7,0.5-1c0.6,0,1.2-0.1,1.8-0.1C432.8,76.1,432.5,74.6,434,74.3z" />
	<path fill="#302623" d="M431.1,77.1c-0.2,0-0.5,0-0.7,0c-0.3-0.2-0.5-0.5-0.8-0.7c0-0.7,0-1.4,0.1-2.2l0,0c0.7-0.6,1.4-1.2,2.4-2   c-1.5-0.7-1.9-2.5-3.7-2.3c0.5-0.9,1.3-1.5,2-2.2c0.7,0.2,1.4,0.4,2.2,0.6c0.5,1,1,2,1.4,3.1c-0.3,0-0.6,0.1-1,0.1   c0.1,0.6,0.1,1.1,0.1,1.4c-0.7,1.3-3.7,2.3-2.1,3.6C431,76.7,431.1,76.9,431.1,77.1z M430.4,69.6c0.5,0.2,0.8,0.4,1.2,0.5   C431.8,69.4,431.2,68.9,430.4,69.6z" />
	<path fill="#5B453C" d="M429.6,76.4c0.3,0.2,0.5,0.5,0.8,0.7c-0.1,0.3-0.3,0.6-0.5,1c0.3,1.1,2.8,3.1,1.2,4   c-1.6-1.9-3.5-3.7-4.2-6.5c0.8-0.9,0-2.5,1.2-3.6c1.5,0.3,1.5,0.3,1.6,2.2c-0.1-0.1-0.5,0-0.7,0c-0.1-0.4,0.1-1-0.6-1   c0,1.2,0,2.3,0,3.5c0.3-0.2,0.5-0.3,0.7-0.4C429.2,76.4,429.5,76.4,429.6,76.4z" />
	<path fill="#8B695D" d="M432.6,83.6c0.4-1.6,0.3-3.2-0.7-4.8c1.3,0.2,2.4,0.3,3.5,0.4c-0.3,0.8-0.5,1.5-0.8,2.2   c0.6,0.8,1.1,1.4,1.6,2.1C435.1,84.2,433.6,85.1,432.6,83.6z" />
	<path fill="#88685C" d="M431.1,74.9c0.6-0.6,1.2-1.3,2-2.1c0-0.2-0.1-0.8-0.1-1.4c0.9-0.3,1.7,0.1,2.5,0.5c-0.2,0.9-1.8,1-1.5,2.3   c-1.5,0.3-1.2,1.8-1.8,2.7c-0.4,0-0.7,0.1-1.1,0.1C430.9,76.4,431,75.7,431.1,74.9z" />
	<path fill="#866559" d="M429.7,74.3c-0.1-1.9-0.1-1.9-1.6-2.2c0.1-0.7,0.1-1.4,0.2-2c1.8-0.2,2.2,1.6,3.7,2.3   C431,73.1,430.4,73.7,429.7,74.3z" />
	<path fill="#1B1817" d="M433.2,92.4c-0.3,3.6,0.7,7.7-0.6,11C432.9,99.8,431.7,95.7,433.2,92.4z" />
	<path fill="#211A17" d="M440,60.5c0,1.7,0.1,3.5-0.8,5c-0.3-0.6-0.6-1.2-1-2.1c0.1-0.1,0.5-0.3,0.8-0.4c-0.2-0.8-0.3-1.5-0.5-2.3   C439.1,60.6,439.5,60.6,440,60.5z" />
	<path fill="#211A17" d="M440.6,56.1c-0.1,1.5,0.3,3.1-0.6,4.4c-0.4-0.6-0.7-1.1-1.2-1.8C439.4,58.2,439.3,56.5,440.6,56.1z" />
	<path fill="#2C2C2C" d="M428.1,7c-0.9-0.6-1.4-0.8-2.5-1.5C427.8,5.4,427.7,4.7,428.1,7z" />
	<path fill="#8B8B8B" d="M396.6,35c0.2-0.8,0.4-1.4,1.3-1.3C398.1,34.4,397.7,34.8,396.6,35z" />
	<path fill="#302623" d="M432.5,68.4c0-0.8-0.1-1.7,0.7-2.3C433.2,66.9,433.7,67.9,432.5,68.4z" />
	<path fill="#1B1817" d="M432.5,104c0.1,0.6,0,1.2-0.6,1.6C431.8,105,431.7,104.3,432.5,104z" />
	<path fill="#1B1817" d="M431.8,106.2c0.1,0.6,0,1.2-0.6,1.6C431.1,107.1,431,106.5,431.8,106.2z" />
	<path fill="#A3A3A3" d="M415.5,90.7c0.4,0.3,0.4,0.6,0,0.9C415,91.4,415.3,91.1,415.5,90.7z" />
	<path fill="#928F9E" d="M464.5,41.6c0.3,0,0.7,0.1,1.1,0.1C465,42.3,464.7,42.1,464.5,41.6L464.5,41.6z" />
	<path fill="#7C7C7C" d="M393,45.8c-0.1-0.1-0.1-0.1-0.2-0.1c0.1-0.1,0.1-0.2,0.2-0.3C393.2,45.5,393.2,45.7,393,45.8z" />
	<path fill="#1B1817" d="M431,108.4c-0.2,0.3-0.4,0.6-0.6,0.9C430.6,109,430.8,108.7,431,108.4z" />
	<path fill="#EAA388" d="M434.7,412.7c-4.7,8.9-6.3,19.2-10.8,28.3c-3.9,7.8-7.7,15.4-6.6,24.3c-2.7,26.2-14.9,50.4-16.1,77.1   c-0.6-0.7-0.9-1.1-1.5-1.8c-3-0.5-5.5,2.4-8.5,1.1c1-12.8,3.6-25.1,4-37.6c-1.9,0.8-1.4,2.1-3.2,2.7c-0.4-28.5-2-44.1,10.4-71.4   c2.7,3.5,1.4,8.6,5.1,11.3c4.1-9.4-1.3-19.6,0.1-29.3c1.7-8.8,2-18.2,1.8-27c4.8-31.9-1.8-65.7,7-96.7c26.4,0.7,53.9,8.2,79.5-1.4   c6.2,26.9,9.1,54.3,9,82c-0.1,14.5-4.3,29.2-1.7,43.6c-1,22.5,3.1,44.7,3.2,67.2c0.5,17-2.8,33.8-1.9,50.8   c-3.7,1.5-5.8,2.2-7.4,6.1c-1.3,0-2.6-0.1-4.1-0.1c-1.7-18,3.7-37.4-4.5-54c0.3,4.3-0.9,6.8-0.8,10.8c-0.1,0.9,0.6,2-0.4,2.8   c-2.8-14.4-9.2-28.3-8.2-43.3c2-4.1-1.2-9.9,3-12.9c1.9,2.3,3.4,4.5,4.6,7c-1.2,1.3-1.2,1.3-0.5,2.6c1,1.2,0.7,3.2,2.3,4.2   c1-0.9,0.5-1.9,0.6-2.7c2.3,1.4,2.7,3.4,4.5,6.1c0.1-13.5-10-23.2-14.5-35c-8.4-28.5-5.6-59.7-5.5-88.5c-3.3,1.8-3,5.2-5.3,7.7   c-1.6-10.1-3.1-19.9-4.6-29.1c-1.2-1.5-2.1-2.5-2.9-3.5c0.2-0.9,1.3-1.5,0.5-2.7c-11.4,8.3-10.1,23.6-13.2,36   C444.7,369.3,439.2,390.9,434.7,412.7z M420.2,416.4c0.4,0.2,0.8,0.4,1.2,0.6c1-4.9-1.1-9.2-3.4-13.6c-5.8-6.2-6.8,8.5-0.7,8.6l0,0   c0.4,1,1.4,1,2.2,1.5C419.8,414.5,418.8,415.8,420.2,416.4z M491.4,417.8c-2.9-3-1.9-8.8-8.1-7.9   C475.4,413.7,492.1,425.8,491.4,417.8z M411.9,465.9c1.8-2.1,5.6-7.4,3.5-10C413.9,458,411,462.7,411.9,465.9z M494.2,414.3   c2.3-2.6,5.1-6.2,2.8-9.2C495.8,408.3,494.3,410.8,494.2,414.3z M443,312.2c-1.7-1.9-7.5-7-11.8-7.5   C433.4,306.6,441.3,311.6,443,312.2z M410.7,468c-1.7,2.5-1.7,2.6-0.2,4.6C411.8,471.3,411.8,469.4,410.7,468z M490.2,467.9   c0.3,0,0.5,0,0.8,0c0.7-1.2-0.8-5.5-2.6-3.7C489,465.4,489.6,466.6,490.2,467.9z M439.1,314.7c-1.4,0.9,3.1,2.3,3.8,3.1   c0.5,0.2,1,0.7,1.6,0C443.1,316.3,440.9,315.7,439.1,314.7z M407.4,478.9c-0.4,1.3-1.2,2.4,0,3.7   C408.9,480.3,408.9,480.3,407.4,478.9z M490,471.2c0.3,0.7,0.2,2.1,1.2,2.1C491.7,472.2,491.7,472.2,490,471.2z M491.4,476.6   c-0.5,0.6-0.9,1-0.3,1.4C492,477.8,492,477.6,491.4,476.6z" />
	<path fill="#F5DDCE" d="M409.3,165.8c8.9-12.9,13-29.2,5.8-43.8c1.2-1.8,2.8-3,5-3.7c4.4,16.3,12.3,31.1,29.3,36.7   c26.6,7.8,39.2,0.8,23.7-26c14,13.1,28.2,31.4,29.2,51.1c-8.5,12.2-21.7,0.5-31.9,4.1c-0.3,1.9,1.7,3,1.6,4.5   c-0.7,0.1-1.4,0.3-2.1,0.4c0.3,1.3,1,0.8,1.9,1.3c1,1.4,2.3,0.2,3.5,0.5c0.6,2.7,5.1,2.5,7.4,3.2c3.3,2.1,8.5-0.4,11.6,0.7   c-1.2,0.8-2.4,1.6-3.6,2.4c-10.5,55.9-12.2,35.9,4.4,92.1c-23.1,9.2-50,4.4-74.2,2c-0.8-1.4-2.6,0-3.6-1.4   c2.3-7.1,1.7-16.4,7.8-21.5c0.9,1.8,0.8,3.7,2.4,4.9l0,0c1.7,4.7,4.4,10.5,8.5,13.7c-4.1-22.6-16.8-44-11.4-67.9   c2-9.2,4.5-21.9,15.6-23.6c1.1-1,2.1-1.8,2.7-2.4c1.6-0.6,3.1,0.3,4.1-1c5.2-1.3,17.3-3.5,16.3-10.2c-1.7,0.1-3.5-0.4-5.2,0.6   c-13.2,0-30.4,1.2-37.6-12.3c-1.9,0-3.5,0-5,0c-1.4-1.3-2.6-2.5-3.8-3.5c-0.8,0.2-1.5,0.4-2.2,0.6   C409.5,166.5,409.4,166.2,409.3,165.8z M460.9,229.7c-2,10.1-2.5,20.8,0.6,30.7C460.7,249.7,464.8,239.4,460.9,229.7z M481.4,280.9   c2.3-2.7,4.6-6.9,3.2-10.3C482.6,273.1,482.1,277.5,481.4,280.9z M477.8,249.9c2-1.8,0.4-6.3-1.7-7.9   C476.5,244.9,477,247.4,477.8,249.9z M475.9,235.7c-1.4,1.6-1.4,1.6-0.2,3.8C477.1,237.7,477.1,237.6,475.9,235.7z M476.6,221.9   c-1.2,1.1-2,2.3,0,2.4C476.6,223.8,476.6,223.2,476.6,221.9z M476.8,289.6c-1.5,1.1-1.5,1.1-1,2.3   C476.8,291.4,477.2,290.8,476.8,289.6z M479.8,285.2c-1.5,0-2.1,0.6-1.1,2C479.1,286.5,479.4,285.9,479.8,285.2z M476.7,227.5   c-1.1,0.7-1.1,0.7,0.1,1.4C476.8,228.4,476.7,228,476.7,227.5z M476,233.7c-0.2-0.3-0.3-0.3-0.5,0   C475.7,233.9,475.8,233.9,476,233.7z" />
	<path fill="#B28C7D" d="M384,335.8c-1-1.7-1.4-3.8-3-5.1l0,0c-0.2-0.2-0.5-0.5-0.7-0.7c-0.3-17.6,1.4-34.9-1.5-52.4   c-1.8-17.9-8.1-38.6,1.8-55.2c2.7,3.3,4.3,6.2,7.7,8.9c1.6-4.1-1.9-5.8-2.3-9c0.2-1.5-0.2-2.8-1.5-3.7c-5.1-9.2-3.5-19.9-2.1-30.1   c1.5-4.8,0.5-11.6,4-15.2c1,0.1,2,0.8,3.2-0.1c-2.7-13.9-7-26.3,0.8-39.5c6.7-5.2,15.9-5.2,22.8-10.9c6.4,13.8,2.6,29.1-5.4,41.4   c-0.6-0.5-1-0.9-1.5-1.4c-3.8,2.6-2.5,7.5-2.8,11.4c-0.9,10.1-1.1,20.6-4.1,30.3c-3.7,11.2-3.3,23.1-3.7,34.7   c-2.5,18.6-6.5,36.5-7,55.5c-0.1,0.1-0.5,0.3-1.1,0.7c0.3,0.5,0.7,1.1,1.1,1.8c-1.4,5.7,6.9,11.8,10.3,16   c1.8,6.2,0.1,13.1,2.8,19.2c-5.2,4.5-4.2-10.9-7.6-13.3c-0.2,7.5,2.4,14.9,2.5,22.3c-0.8,0-1.4,0.1-1.9,0.1   c-1.3-4.2-0.7-7.9-3.4-11.6c-0.4,0-1,0-1.8,0.1c2,4,3.1,8,3.1,12.2c-0.7,0.2-1.5,0.5-2.2,0.7l0,0c0-0.6,0-1.2-0.7-1.5   c-1.5-4.3-1-11-6.2-12.2c1.7,4.3,5.7,8.6,4.3,13.8C386.2,340.6,385.3,338.4,384,335.8z M387,290.7c0,1.4,0,2,0,3.1   C388.4,292.2,388.4,292.7,387,290.7z M386.8,325.4c0.3,0.5,0.7,1,1.1,1.7C388.5,325.9,388.4,325.2,386.8,325.4z" />
	<path fill="#D69479" d="M418.9,293.6c-0.8,0.1-1.7,0.1-2.5,0.2c-8.8,31-2.2,64.8-7,96.7c0.2,8.8-0.1,18.1-1.8,27   c-1.4,9.7,4,19.9-0.1,29.3c-3.7-2.7-2.4-7.8-5.1-11.3c-6.1,14.9-11.7,30.5-10.6,46.8c-1.1,2.4-0.5,4.7,0,7c0.8,5.7,0,11.7,0.1,17.6   c1.8-0.5,1.3-1.9,3.2-2.7c-0.4,12.5-3,24.9-4,37.6c0.6,0.2,1.1,0.3,1.5,0.4c-0.9,0.6-1.8,1.1-2.7,1.6c-1.1,2.3-1.1,6.2-2.9,7.6   c2.3-27.9-6.2-56-1.6-83.8c1.2-11.6,5.8-22,10.2-32.7c10.2-26-0.1-53.4,0-80.4c8.2-3.7,2.3-13.4,2.7-20c1.5-0.3,3.1,0.3,4.8-0.6   c-0.2-10.5-1-21.5-9.1-29.1c-0.1-4,0.7-7.7,1.6-11.7C403.4,293.4,411.4,291.1,418.9,293.6z" />
	<path fill="#E6CCBB" d="M409.3,165.8c0.1,0.3,0.1,0.7,0.3,1.3c0.7-0.2,1.3-0.4,2.2-0.6c1.1,1.1,2.4,2.2,3.8,3.5c1.5,0,3.2,0,5,0   c7.1,13.5,24.3,12.3,37.6,12.3c1.7-1,3.5-0.5,5.2-0.6c0.4,3.2-1.3,5.3-5.4,6.5c0.1-0.6,1.2-1,0.4-1.8c-1.5,0.4-1.5,0.4-2.5,1.7   c0.8,0,1.5,0.1,2.1,0.1c-0.1,0.2-0.3,0.5-0.4,0.5c-1.6-0.1-2.4,1.8-4,1.7c0.2-0.4,0.5-0.7,1-1.6c-12.2,1.2-27.4,3.1-35.1-8.6   c-1.8-4-1.9-4.1-4.7-5.7c4.8,14.9,17.8,18.7,32.2,17.4c-1,1.3-2.5,0.4-4.1,1c-0.6,0.6-1.6,1.4-2.7,2.4c-11,1.7-13.6,14.5-15.6,23.6   c-5.5,23.9,7.3,45.4,11.4,67.9c-1.3-0.8-2.3-1.5-2.7-2.8c1.6-1.1,0-3.2-1.4-4.1c0,0.9,0,1.5,0,2c-1.7-2.3-3.7-6.2-4.4-8.7   c0.4,0.2,0.9,0.4,2,0.9c-0.7-1.5-0.1-2.9-1.9-3c-0.5,0.5-0.1,1.4-0.1,2c-1.6-1.1-1.5-3.1-2.4-4.9c-6.1,5.1-5.5,14.5-7.8,21.5   c1,1.5,2.8,0,3.6,1.4c-8.1-0.9-16.1-0.9-24.2-0.8c35.8-79.2,7.1-57,8.9-121.4C406.8,168.1,408.1,167,409.3,165.8z M413.2,169.6   c-0.3,1.4-0.3,1.4,0.8,2.4C414.3,170.6,414.3,170.6,413.2,169.6z M426.3,267.5c0.8-0.6,0-1.9-0.8-1.1   C425.2,267.1,425.6,267.4,426.3,267.5z M460.8,185.5c-0.1-0.2-0.2-0.4-0.3-0.6c-0.4,0.2-0.2,0.5-0.2,0.8   C460.5,185.6,460.7,185.5,460.8,185.5z" />
	<path fill="#D69479" d="M460.9,314c0.8,1,1.7,2,2.9,3.5c1.5,9.2,3,19,4.6,29.1c2.3-2.4,2-5.8,5.3-7.7c0.8,19.9-3.1,41.5,1,61.8   c1.1,38.7,15.7,34.3,19,61.7c-1.8-2.6-2.2-4.7-4.5-6.1c-0.8-0.9-0.5-2.7-2.6-2.8c-0.1,0.4-0.2,0.9-0.3,1.3   c-0.7-1.3-0.7-1.3,0.5-2.6c-1.2-2.4-2.8-4.7-4.6-7c-4.2,3-1.1,8.8-3,12.9c-1,15.1,5.4,28.9,8.2,43.3c1-0.8,0.3-1.9,0.4-2.8   c-0.1-4,1.1-6.5,0.8-10.8c8.2,16.6,2.8,36,4.5,54c1.5,0,2.8,0.1,4.1,0.1c-1.7,1.5-4.4,0-6.7,0.1c-2.2-16.4-3.3-33.1-9.5-48.6   c-5.2-13.2-8-26.8-6.8-41.1c3.7-14.4-1.2-27.5-4.5-41.4c-7.6-31.5-23.8-63.5-13.1-94.8c0.7-0.7,1.4-1.5,2.1-2.2   c0,0.4,0.1,0.9,0.1,1.6C459.6,314.9,460.3,314.4,460.9,314z" />
	<path fill="#B28C7D" d="M425.3,126.6c0-1.3,0.7-2.1,1.7-2.6c2.9-1.6,4.5-4.3,6-7c1.8-4.7,6.2-8,5.4-13.5   c5.7,8.3,14.3,14.6,20.7,22.1c0.2-0.7,0.3-1.1,0.5-1.9c3.2,2.1,6.3,4,9.7,4.4c4.7,7,8.3,14.8,9.1,23.3c-1.1,1.1-2.1,2.2-3.4,3.6   c-3.2,0.2-6.6,0.5-10.1,0.7c-1.4-2-1.3-4.6-3.3-6c0-1-0.5-1.6-1.5-2c-0.1-0.2,0-0.8-0.5-0.3c0.2,0.1,0.3,0.2,0.5,0.3   c0.4,2.7,1.9,4.4,2.3,7.3C445,155.6,429.9,143,425.3,126.6z M435.9,128.3c-1.6-1.2-5.2-3.1-6.3-0.6   C431.7,128.5,433.7,129,435.9,128.3z M439.9,129.1c0.7,1.3,0.7,1.3,2.4,0.7c0.1,0,0.1-0.4,0.1-0.7   C441.6,128.5,440.8,128.5,439.9,129.1z M444.9,129.5c1.8,1.5,1.8,1.5,2.7,0C446.8,129.5,446.1,129.5,444.9,129.5z" />
	<path fill="#B28C7D" d="M512.4,292.2c0.2,9.5,3,17.6,7.6,26c-1,5.9-0.1,13.1-4,18.3c-0.8-0.2-0.7-0.9-0.8-1.5   c1.6-4.7,0.3-9.3-0.6-14c-1-1.2-2-2.3-3.1-3.4c-1.6,0.4-2.4,1.5-2.7,3c-0.4,0.4-0.8,0.7-1.2,1.1c-0.9-3.2-2.5-5.9-4.6-8.4   c1.1-6,4.7-12.9,2.2-18.8c-0.1-1.5,1.5-1.5,0.1-2.9c-0.8-3.9,1.4-8.9-1.8-12.1c-0.6,0-1.2,0-1.8,0c-3.4-18.9-14.7-36.3-9.3-56   c3.1,1.3,3.4,1.3,6.1,1.2c0.8-0.9,1.5-1.9,2.3-2.8c1.2-0.4,0.5-1.8,0.6-2.8c0.5-1,1.8-1.1,1.4-2.4l0,0c0.8,0,1.5,0,2.3,0.1   C515.1,240.8,509.4,267.1,512.4,292.2z" />
	<path fill="#F7EFD0" d="M487.8,550c0.6,0.9,1.1,1.8,1.7,2.8c7.1,2.6,8.9-7,10.7-11.8c3.2-2.2,5.2-2.3,8.9-0.5c1,3,1.3,6.2,1.9,9.6   c-4.9,1.1-11.1-0.1-13.9,5c0.4,0.5,0.8,0.9,1.3,1.4c2.6-1.6,6.1-4.5,9-2c-2.2,1.4-7.1,2.1-4.1,5.6c3.3-3.3,8.1-3.7,12.5-5   c0.4,0.6,0.8,1,1.2,1.5c-3.5,1.8-9.1,2.1-10.1,6.7c0.3,0.3,0.6,0.7,1.2,1.4c3-3.2,7.2-4.8,10.9-5.9c9.5,14.8,21,11.7,18.7,19.3   c-8.5-2.5-16.4,5.4-24.7,2.7c-4-1.9-10.5,0.3-13.6-2.5c-3.2-1.3-4.9,0.2-6.9,0.9c-2-0.7-4-1.4-6.1-2.2   C486.9,568,484.2,558.2,487.8,550z M513.1,568.2c2.2-1.5,10.6-3.3,6.6-6.4C517.6,563.9,510.5,564.1,513.1,568.2z M519.3,569.6   c1.4-0.5,6.5-1.7,3.3-3.5C520.8,565.7,515.9,567.6,519.3,569.6z" />
	<path fill="#977264" d="M386.7,229.7c-2.9-1.9-3.6-4.9-6.1-7.3c-9.9,16.6-3.6,37.2-1.8,55.2c2.7,17,1.3,33.9,1.4,51.1   c-3.7-3.8-1.5-9.9-2.1-14.7c4.3-24.6-9.5-49.3-7-74.3c3.3-13.1,6-25.7,5.7-39.4c1.8-10.4,3.6-21,5-31.3   c-0.7-12.3-3.1-27.3,8.7-35.3c-7.8,13.2-3.6,25.7-0.8,39.5c-1.2,0.9-2.2,0.2-3.2,0.1c-5.2,11.3-7.7,32.2-2.5,44.1   c-0.4-0.2-0.8-0.4-1.5-0.7c0.2,2.5,1.8,3.9,2.6,5.6c0.5,0,0.8,0,1,0c-0.3,1.4,0.7,2.2,1.5,3c-0.4,0.1-0.7,0.1-1,0.2   C385.6,227,386.6,228.3,386.7,229.7z M383.5,165.2c-1.3,2-1.3,2,0.1,4.1C384.4,167.9,385.2,166.6,383.5,165.2z M384.7,172.8   c1.8-0.4,1.8-3.8,0-3.8C384.7,170.2,384.7,171.5,384.7,172.8z" />
	<path fill="#EADCB7" d="M487.8,550c-3.6,8.2-0.9,17.9-1.5,26.9c2.2,0.8,4.2,1.5,6.1,2.2c2-0.7,3.7-2.2,6.9-0.9   c3,2.8,9.6,0.7,13.6,2.5c8.4,2.7,16.3-5.1,24.7-2.7c0.1-0.6,0.2-0.9,0.3-1.3c1,1.7,1.1,3.6,1.6,5.4c-11.4,6.8-26.9,6.7-38.7,0.6   c-1.8-1-3.6-1.3-5.6-0.7c-5.1,1.6-10.2-1-15.4-1.6c4.8-11.2,1.3-23.2,5.7-34.8C487.1,547.1,487.8,548.4,487.8,550z M525.4,584.2   c2.9-1.5,5.1-3.1,8.5-2.9c1.7-0.1,2.8,0.3,4.3-1c-3.9-2-11.5-1.9-13.5,2.7C524.9,583.3,525.1,583.6,525.4,584.2z" />
	<path fill="#977264" d="M498,224.6c-2.6,0-2.6,0-5.6-1.2c-5.4,19.6,5.9,37.1,9.3,56c0.6,0,1.2,0,1.8,0c2.9,3,1.2,7.7,1.6,11.4   c-1.4-0.3-1.4,1.2-2.1,2.1c-8.6-36.5-23.6-49.6-10.4-89.5c2.3,6.5,0.5,13.6,5.2,19.8C497.9,223.6,498,224.1,498,224.6z" />
	<path fill="#E5CBBA" d="M481.4,194c-0.8-0.2-1.6-0.4-2.3-0.6c-0.4-1.8-1.3-2-2.7-0.8c-1-0.1-0.8-1-1.1-1.6c-1.1-0.3-2.5,1-3.5-0.5   c0.6-0.1,1.3-0.2,1.9-0.2c-0.9-0.5-1.8-1.1-2.4,0.1c-1.1-0.1-1.1-0.1-1.4-1.1c0.7-0.1,1.4-0.3,2.1-0.4c0.1-1.5-1.9-2.6-1.6-4.5   c10.2-3.6,23.5,8.1,31.9-4.1c0-1.5,0-3.3,0-5.1c2.5,7.5,0,17.2-8,19.7c-3.1-1.1-8.3,1.4-11.6-0.7c3-0.4,6.1,0.7,9.1-0.5   c-3.4-0.6-6.8-1.2-10.3-0.7C481.4,193.3,481.4,193.7,481.4,194z" />
	<path fill="#B18B7D" d="M497.8,223.1c-4.5-7.5-4.5-15.9-4.9-24.1c3.1-2.2,7.1-3.2,9.4-6.7c1,0.2,0.6,1,0.6,1.4   c-0.2,6.5,1.8,12.8,1.6,19.3c-1.2,0.7-0.8,1.6-0.2,2.5c0.1-0.7,0.1-1.3,0.2-2c0.8,0.9,0.6,2,0.7,3.1c-0.8,0-1.5,0-2.3-0.1   c0-1.8,0.7-3.7-0.2-5.6c-1.3,2.2-1.4,3-0.7,6.1c0.3-0.1,0.6-0.3,0.9-0.4c0.4,1.3-1,1.4-1.4,2.4c-0.5-0.3-1.1-0.6-2-1   c-0.1,1.6-0.1,2.7-0.1,3.8C498.9,222.2,498.3,222.6,497.8,223.1z" />
	<path fill="#B18B7C" d="M482.7,133.6c15.1,3.5,21.3,19.8,20.2,34c-7.6-10.8-12.1-23.4-21.1-33C482.1,134.3,482.4,134,482.7,133.6z" />
	<path fill="#F1F1F1" d="M497.9,281.3c1.5,8.7,8.3,19.2,3.7,27.5c-1.4-8.4-2.9-16.7-4.6-25C497.4,283,496.7,281.8,497.9,281.3z" />
	<path fill="#DADADA" d="M497.9,281.3c-1.2,0.5-0.5,1.7-0.9,2.5c-3.4-9.4-7.1-18.7-9.5-28.4c0.3-0.6,0.5-1.1,0.8-1.7   C491.1,263,495.3,271.9,497.9,281.3z" />
	<path fill="#1A1210" d="M399.9,312.5c3.1,6.4,2.7,14.4,3.3,21.4c-1.6,0.9-3.3,0.3-4.8,0.6c0.2-0.5,0.5-1.1,0.7-1.6   c0.9,0.4,1.9,1.4,2.7-0.3c-2.7-6-1-13-2.8-19.2C399.3,313,399.6,312.8,399.9,312.5z" />
	<path fill="#947163" d="M502.9,313.2c2.1,2.5,3.7,5.2,4.6,8.4c0.4-0.4,0.8-0.7,1.2-1.1c-0.1,3.5,3.1,6.4-0.3,9.5   c-2.9-4.5-2.9-10-5.5-14.7C502.6,314.7,502,313.9,502.9,313.2z" />
	<path fill="#181814" d="M519,558.9c-3.7,1.1-8,2.7-10.9,5.9c-0.6-0.6-0.9-1-1.2-1.4c1-4.7,6.6-4.9,10.1-6.7   C517.6,557.4,518.3,558.1,519,558.9z" />
	<path fill="#906F62" d="M490.5,544.7c1.8,0.1,3.7,0.2,5.8,0.3c-0.3,2.8-2.2,4.2-3.9,5.7C489.8,549.5,489.5,548.7,490.5,544.7z" />
	<path fill="#231E1B" d="M489.2,144.7c3.6,5.1,6.2,10.7,9.4,16c-0.2,0.5-0.5,1.1-0.7,1.6c-2.6-5.7-6.6-10.6-9.4-16.1   C489.2,146,489.2,145.3,489.2,144.7z" />
	<path fill="#382A25" d="M458.5,107.8c-3.6-1.4-6.5-4-9.7-6.1c1.3-1.8,8.3,4.6,10.7,5.2C459.1,107.2,458.8,107.5,458.5,107.8z" />
	<path fill="#4C4542" d="M501.6,308.8c2.6-2.3,1-6.3,1.4-9.3c1.2,1.4,0.5,3.4,0.7,5.1c1.3,2.3,0.6,5.1-0.7,7.3   C503.2,310.4,501,310.3,501.6,308.8z" />
	<path fill="#D3D3D3" d="M506.5,329.3c0,0.9,0.1,1.8,0.1,2.7c0.3,0.3,0.6,0.5,0.9,0.8c0.7-0.4,1.4-0.8,2-1.3c0,0,0,0,0,0   c0.2,0.2,0.5,0.4,0.7,0.7c-1,1.7-2,3.4-3,5c-1.5-0.8,0.2-2.8-1.3-3.6c-0.1-0.9-0.1-1.8-0.2-2.7C506,330.3,506.3,329.8,506.5,329.3z   " />
	<path fill="#B4B4B4" d="M488.4,253.7c-0.3,0.6-0.5,1.1-0.8,1.7c-0.5-3.8-3.3-8.1-1.4-11.8C486.9,247,487.6,250.3,488.4,253.7z" />
	<path fill="#977264" d="M505.2,294.4c1.2,1.7,1.1,7.7,0,9.4C505.2,300.7,505,297.5,505.2,294.4z" />
	<path fill="#9B9683" d="M508.6,552.9c1.6-0.3,3.3-0.7,4.9-1.1c0.2,0.3,0.3,0.5,0.5,0.9c-0.8,0.9-1.9,1.2-3.1,1   C510.4,552.6,509.4,553.2,508.6,552.9z" />
	<path fill="#868686" d="M486.2,243.6c-0.2,0.5-0.5,1-0.7,1.5c-1.1-2.2-0.6-4.6-0.7-7.1C486.4,239.6,485.4,241.6,486.2,243.6z" />
	<path fill="#CAC4AA" d="M508.6,552.9c0.7,0.4,1.8-0.3,2.3,0.8c-1.2,0.3-2.4,0.5-3.6,0.8c-0.5-1.1-1.6-0.4-2.4-0.9   C506.1,552.7,507.4,553,508.6,552.9z" />
	<path fill="#503D37" d="M503.1,292.8c0.7-0.9,0.7-2.3,2.1-2.1c0.2,0.9,0.1,1.9,0,2.9c-0.6,0-1.2-0.1-1.4,0.7l-0.2,0.2   C503,294.1,502.9,293.5,503.1,292.8z" />
	<path fill="#9C9C9C" d="M506.5,329.3c-0.3,0.5-0.5,1.1-0.8,1.6c-0.8-2.2-0.7-2.9-0.4-5.7C505.9,327.1,506.2,328.2,506.5,329.3z" />
	<path fill="#D1D1D1" d="M506,333.6c1.5,0.8-0.2,2.8,1.3,3.6c-0.2,1.4-0.2,1.4-1.3,0.6C506,336.4,506,335,506,333.6z" />
	<path fill="#DDDDDD" d="M405,199.9c-0.5-0.2-1-0.5-1.5-0.7c0.1-0.6,0.1-1.3,0.2-2C404.9,197.8,405,198.8,405,199.9z" />
	<path fill="#463B37" d="M482.7,133.6c-0.3,0.3-0.6,0.6-0.9,0.9c-0.7-0.7-1.4-1.5-2.1-2.2l0,0C480.9,132.4,481.9,132.8,482.7,133.6z   " />
	<path fill="#6E574E" d="M460.1,147.6c1.7,0.5,1.5,2.2,1.4,3.6C460.6,150.2,460.4,148.9,460.1,147.6L460.1,147.6z" />
	<path fill="#B28C7D" d="M504.5,213.6c-0.1,0.7-0.1,1.3-0.2,2c-0.6-0.9-1.1-1.8,0.2-2.5C504.6,213.2,504.6,213.4,504.5,213.6z" />
	<path fill="#4E362C" d="M456.5,316.2c1,1,1,1,0.1,2.3c-0.3-0.3-0.6-0.6-0.9-0.9C456,317.1,456.3,316.6,456.5,316.2z" />
	<path fill="#382A25" d="M458,109.9c-0.1-0.6-0.1-1.2,0.5-1.6C458.7,108.9,458.7,109.5,458,109.9z" />
	<path fill="#503D37" d="M505.2,294.4c0,0.3-0.1,0.5-0.1,0.8c-0.5-0.2-1-0.4-1.5-0.6c0,0,0.2-0.2,0.2-0.2   C504.2,294.3,504.7,294.3,505.2,294.4L505.2,294.4z" />
	<path fill="#463B37" d="M479.8,132.3c-0.1-0.1-0.3-0.2-0.4-0.4C479.6,132,479.7,132.2,479.8,132.3L479.8,132.3z" />
	<path fill="#F7EFD0" d="M386,563.1c3.9-4.9,5-11.3,6.2-17.6c1.6-1.3,4-1.5,6.2-2.3c2.8,2.8,4.6,6.2,8.2,8.1   c3.5,11.1,9.1,23.1,16.7,32c2.8,2,3,5,2.6,8.1c-12.2-2.3-24,4.3-36-0.6c-0.4-3.1-0.5-6.4-3.5-7.7C384.5,576.2,386.6,570,386,563.1z    M407.1,560.3c-1.4-1.9-4.4,0.3-5.8-1.4c1.8-0.6,3.5-1.2,5.2-1.8c0.1-6.4-20.3,5.1-10.2,6.1c-0.5,1.4-1.6,3.3,0.6,4   c2.2-3.9,6.1-4.5,10.3-5.2C407.2,561.4,407.2,560.8,407.1,560.3z M397.8,571.2c4.2-2.3,7.5-3.1,11.6-5   C408.3,562,395.4,567.4,397.8,571.2z M410.4,570.2c-1.7-1-11.6,2.6-10.1,5.3C403,575.3,409.3,573.1,410.4,570.2z M402.8,579   c2.7,0.3,7-0.2,10-2.9C410.3,574,403.2,575.8,402.8,579z" />
	<path fill="#EADCB7" d="M386,563.1c0.6,6.9-1.6,13.1,0.3,20c3,1.3,3.2,4.6,3.5,7.7c11.9,5.1,23.5-2,35.5,0.8   c-0.1,0.3-0.2,0.6-0.3,1c-3.8-0.5-7.6-0.8-11.3-0.9c-1.2,1-2.2,1.8-3.2,2.8c0,1.2,0.7,1.4,1.5,1.4c0.3,0.2,0.5,0.5,0.8,0.7   c-7.8,2.3-16.2,0.6-24.1-0.4c-1.9-2.9-0.8-6.4-2.8-9.1c-1.2,0.9-0.7,2.2-1.2,3.3c-1.7-0.2-3.4-0.3-5.2-0.8c3.7-9.4,2.1-18.4,2.7-28   C383.6,562.5,384.6,563.4,386,563.1z" />
	<path fill="#161511" d="M412.1,595.8c-0.8-0.1-1.4-0.2-1.5-1.4c1-0.9,2-1.8,3.2-2.8c3.7,0.1,7.5,0.4,11.3,0.9   c0.1-0.3,0.2-0.6,0.3-1c0.2-0.1,0.3-0.1,0.5-0.2c0.2,1.5-0.2,2.8-1.5,3.7c-2.3-1.8-6.5-0.8-9.2-1.5   C414,594.5,413.1,595.1,412.1,595.8z" />
	<path fill="#221C19" d="M388.3,341.6c-0.3-4.6-3-8.3-4.7-12.2c6,1.3,4.3,9.6,6.9,13.6l0,0c0.3,2.3,1.8,3.9,2.9,5.8   c-0.4,0.4-0.7,0.8-1.2,1.3c-0.3-0.4-0.6-0.8-1-1.2C390.8,346.3,389,344.2,388.3,341.6z" />
	<path fill="#C9BD9D" d="M412.1,595.8c1-0.7,1.9-1.3,3.2-2.2c2.6,0.7,6.8-0.3,9.2,1.5c-3.8,1.3-7.6,1.5-11.6,1.4   C412.7,596.3,412.4,596,412.1,595.8z" />
	<path fill="#8E6B5E" d="M388.3,341.6c0.7,2.6,2.5,4.7,2.9,7.4c-0.2-0.1-0.4-0.2-0.6-0.2c-4-3.3-7.3-7.5-6.6-13   c1.3,2.6,2.2,4.9,3.9,7.4C388,342.4,388.2,342,388.3,341.6z" />
	<path fill="#8A695C" d="M394.8,341.6c0.6,0,1.2-0.1,1.9-0.1c0.1-0.7,0.2-1.4,0.2-2.1c0.6,2.9,3.9,7.7,0.7,9.8   C396.6,346.5,394.3,344.6,394.8,341.6z" />
	<path fill="#88675A" d="M393.3,348.9c-1.1-1.9-2.6-3.6-2.9-5.8c0.7-0.2,1.5-0.5,2.2-0.7c1.4,2.2,1.2,5.1,3.4,7   c0.5,0.5,0.4,1.2-0.1,2.4C394.9,350.9,394,349.9,393.3,348.9z" />
	<path fill="#856458" d="M387.4,554.1c0.3,1.8,0,3.3-1.1,4.7C385,556.9,385.3,555.6,387.4,554.1z" />
	<path fill="#624B42" d="M512.5,334.4c2.1-5.3,0.1-10-2-14.7c5.8,2,1.8,8.5,4.3,12.3c-0.3,1.4-0.7,2.4-1.6,3.1   C512.9,334.8,512.7,334.6,512.5,334.4z" />
	<path fill="#816155" d="M512.5,334.4c0.2,0.2,0.4,0.5,0.7,0.7c-0.9,1.9-1.8,3.8-2.9,5.9c-0.5-0.5-1-0.9-1.4-1.3   C509.3,337.3,511.4,336.1,512.5,334.4z" />
	<path fill="#7A5D52" d="M515.2,335c0.1,0.6,0,1.3,0.8,1.5c-1,1.7-1.9,3.4-2.9,5.1C511.2,339.9,514.8,336.9,515.2,335z" />
	<path fill="#7D655B" d="M510.3,332.2c-0.2-0.2-0.5-0.4-0.7-0.7c1.3-2.1,1.3-2.1,1.9-5.3C511.7,328.1,512.6,331.2,510.3,332.2z" />
	<path fill="#72564C" d="M509.7,343.5c-0.6-1.9,0.9-2,0.4,0C510,343.5,509.9,343.5,509.7,343.5z" />
	<path fill="#D1D1D1" d="M507.6,332.8c-0.3-0.3-0.6-0.5-0.9-0.8C507,332.3,507.3,332.5,507.6,332.8z" />
	<path fill="#7D655B" d="M509.6,331.5c-0.3,0.2-0.5,0.4-0.8,0.6C509.1,331.9,509.3,331.7,509.6,331.5z" />
	<path fill="#322723" d="M473.1,72.9c-0.6,0.3-1.2,0.6-2,1.1c-0.1,0.5-0.2,1.3-0.4,2.1c-1.9-2-1.8-4.1,0.3-6.8   c0.9,0.1,0.5,0.9,0.6,1.3l0,0C470.4,71,472.9,72.1,473.1,72.9z" />
	<path fill="#B3B3B3" d="M473.1,72.9c-0.2-0.3-0.5-0.6-0.7-0.8c0.4-0.4,0.8-0.8,1.4-1.4c0.1,1,0.2,1.5,0.2,2.1   C473.8,72.8,473.4,72.8,473.1,72.9z" />
	<path fill="#B1B0AF" d="M474.8,73.5c-0.3-0.3-0.6-0.5-0.8-0.8C474.2,73,474.5,73.2,474.8,73.5z" />
	<path fill="#B28C7D" d="M471.8,71.4c-0.7-0.3-0.7-0.5,0-0.8C471.8,70.8,471.8,71.1,471.8,71.4z" />
	<path fill="#45342D" d="M381,331.4c0.7,2.1,1.4,4,1.4,6.2C380.9,337.2,379.4,332.5,381,331.4C381,331.4,381,331.4,381,331.4z" />
	<path fill="#010101" d="M378.1,319.8c0,1.2,0,2.4,0,3.6C377.1,322,377.1,321.2,378.1,319.8z" />
	<path fill="#45342D" d="M381,330.7c0.3,0.2,0.5,0.5,0.8,0.7c-0.3,0-0.5,0-0.8,0c0,0,0,0,0,0C381,331.2,381,330.9,381,330.7z" />
	<path fill="#45342D" d="M380.3,329.9c0.2,0.2,0.5,0.5,0.7,0.7C380.8,330.4,380.5,330.2,380.3,329.9z" />
	<path fill="#6B5952" d="M474.7,93.1c0.2,0,0.4,0,0.6,0c-0.2,1.2-0.4,2.5-0.7,3.7l0,0c-0.5-0.5-1-1-1.5-1.5c0-0.2,0-0.4,0-0.6   C473.7,94.1,474.2,93.6,474.7,93.1z" />
	<path fill="#332723" d="M473.9,96c0.3,0.2,0.5,0.5,0.8,0.7c-0.1,0.3-0.1,0.5-0.2,0.8c-0.2,0-0.3,0-0.5,0c-3.3,4.2-8.8,1.6-12.4-0.7   c1.3-1.7,9.3,4.8,11.6-0.7C473.4,96,473.7,96,473.9,96z" />
	<path fill="#151211" d="M462,73.6c-4.3,1-8.3,0.9-11.4-0.4c-0.6-1-1.2-2-1.8-3c3.6-1.5,8.8-3.1,12.5-0.1   C461.6,71.2,461.8,72.4,462,73.6z M452.1,71.6c1.1,1,1.8,1.7,3.1,1.5c0-0.8-0.1-1.4-0.1-2.3C454.1,71,453.4,71.2,452.1,71.6z    M459.3,71.4c-0.1-0.2-0.2-0.3-0.3-0.5c-0.4,0.2-0.1,0.5,0,0.8C459.1,71.6,459.2,71.5,459.3,71.4z" />
	<path fill="#8B695C" d="M473.2,96c-2.4,5.6-10.3-1-11.6,0.7c-1-0.4-0.6-1.3-0.8-2.1c0.7,0,1.4,0,2.1-0.1c3,1.7,6.8-0.9,10.2,0   C473.2,95.1,473.2,95.6,473.2,96z" />
	<path fill="#1E1815" d="M453,64.9c-2,0.4-3.5,1.7-5.9,1.2c5.3-3.5,12.8-4.1,17.2,0.4c-0.4,1.1-1.7,0.5-2.5,0.3   C459,65.3,456,65.7,453,64.9z" />
	<path fill="#3E312B" d="M461.6,85.7c-0.2-1.3-0.3-2.7,1.6-3.6c0,1.3,0,2.4,0,3.8c1.2-0.7,2.1-1.2,3.1-1.7c0.6,0.4,1.2,0.7,1.9,1.2   C466,86.2,464.3,88.8,461.6,85.7z" />
	<path fill="#302520" d="M473.2,94.7c-3.4-0.9-7.2,1.6-10.2,0c0.3-0.2,0.5-0.5,0.8-0.7c3.3-0.3,7.4,0.1,10.2-1.6l0,0   c0.3,0.2,0.5,0.4,0.8,0.7C474.2,93.6,473.7,94.1,473.2,94.7z" />
	<path fill="#3C2F2B" d="M473.9,84.4c-0.7-1.7-2.4-2.9-2.4-5.5c1.6,2.7,5,4.8,2.2,7.6c-1.1,0-2.3,0-3.6,0   C471.8,84.6,471.8,84.6,473.9,84.4z" />
	<path fill="#302520" d="M462.3,92.4c2.7-1.8,11-4.7,11.6,0l0,0c-0.7-0.4-1.4-0.9-2.2-1.4c-1.3,1.3-2.8,0.2-4,0   c-2.1,0.5-3.5,2.1-5.5,2.1l0,0C462.3,92.9,462.3,92.7,462.3,92.4z" />
	<path fill="#241C19" d="M463.8,94c-0.3,0.2-0.5,0.5-0.8,0.7c-1.4,0.1-2.8,0-4.2-0.3c0.2-1.6,1.2-1.3,2.2-1.3   c0.1,0.2,0.2,0.3,0.3,0.5c0.1-0.2,0.2-0.3,0.4-0.5l0,0c0.2,0,0.5,0,0.7,0l0,0C462.8,93.4,463.3,93.7,463.8,94z" />
	<path fill="#4C3C35" d="M437.6,92.5c0.3-0.3,0.6-0.6,0.8-0.8c1,1.2,1.9,2.5,2.9,3.7C439.4,95.2,438.6,93.7,437.6,92.5z" />
	<path fill="#453630" d="M444,96.8c-0.6,1.5-1.7,0-2-0.8C442.7,96.3,443.3,96.6,444,96.8z" />
	<path fill="#4C3C35" d="M442,96c-0.3-0.2-0.5-0.5-0.8-0.7C441.5,95.5,441.8,95.8,442,96z" />
	<path fill="#8A685B" d="M461.6,93.1c-0.1,0.2-0.2,0.3-0.4,0.5c-0.1-0.2-0.2-0.3-0.3-0.5C461.2,93.1,461.4,93.1,461.6,93.1z" />
	<path fill="#8A685B" d="M462.3,93.1c-0.2,0-0.5,0-0.7,0c0.2-0.2,0.5-0.5,0.7-0.7C462.3,92.7,462.3,92.9,462.3,93.1z" />
	<path fill="#6B5952" d="M471,99.6c0.3-0.2,0.6-0.3,0.9-0.5C471.6,99.3,471.3,99.4,471,99.6z" />
	<path fill="#6D544B" d="M430.4,69.6c0.8-0.7,1.4-0.2,1.2,0.5C431.2,70,430.9,69.8,430.4,69.6z" />
	<path fill="#866559" d="M429,74.3c0.2,0,0.5,0,0.7,0c0,0.7,0,1.4-0.1,2.2c-0.2,0-0.5,0-0.6,0C429,75.7,429,75,429,74.3z" />
	<path fill="#5B453C" d="M431.1,74.9c0,0.5-0.1,1-0.1,1.5C430.2,75.9,430.2,75.4,431.1,74.9z" />
	<path fill="#291F1B" d="M429,74.3c0,0.7,0,1.4,0,2.1c-0.2,0.1-0.4,0.2-0.7,0.4c0-1.2,0-2.4,0-3.5C429,73.3,428.8,73.9,429,74.3z" />
	<path fill="#D69479" d="M490.1,420.7c-4.5-0.8-12.7-6.7-6.8-10.8c6.2-0.8,5.2,5,8.1,7.9C489.7,417.7,489.8,419.5,490.1,420.7z" />
	<path fill="#D49378" d="M417.3,412c-6.1-0.1-5.2-14.8,0.7-8.6c-0.4,0.1-0.9,0.2-1.4,0.3C416.3,406.6,416.5,409.4,417.3,412z" />
	<path fill="#1B1411" d="M411.9,465.9c-0.8-3.2,2-7.9,3.5-10C417.5,458.4,413.6,463.7,411.9,465.9z" />
	<path fill="#251A15" d="M417.3,412c-0.9-2.7-1-5.4-0.7-8.3c0.5-0.1,0.9-0.2,1.4-0.3c1.2,2.5,0.9,5.7,0.5,8.5   C418,411.9,417.7,412,417.3,412C417.3,412,417.3,412,417.3,412z" />
	<path fill="#CA8C73" d="M417.3,412c0.4,0,0.7-0.1,1.2-0.1c0.6-2.3,0.1-4.7,0.1-7.1c1.9,2.7,2.4,5.3,2.8,8.2c-0.8-0.5-1.5-0.4-2,0.5   C418.8,413,417.7,413,417.3,412z" />
	<path fill="#2A1E19" d="M494.2,414.3c0-3.5,1.5-6,2.8-9.2C499.3,408.1,496.6,411.7,494.2,414.3z" />
	<path fill="#B07D6A" d="M443,312.2c-1.7-0.6-9.6-5.6-11.8-7.5C435.5,305.2,441.3,310.4,443,312.2z" />
	<path fill="#412F27" d="M486.2,454.9c0.1-0.4,0.2-0.9,0.3-1.3c2,0,1.7,1.9,2.6,2.8c-0.1,0.9,0.4,1.9-0.6,2.7   C486.9,458.2,487.2,456.1,486.2,454.9z" />
	<path fill="#120D0A" d="M410.7,468c1,1.4,1.1,3.3-0.2,4.6C409.1,470.5,409.1,470.5,410.7,468z" />
	<path fill="#412E27" d="M490.2,467.9c-0.6-1.3-1.2-2.6-1.8-3.8c1.7-1.8,3.3,2.5,2.6,3.7C490.8,467.9,490.5,467.9,490.2,467.9z" />
	<path fill="#191210" d="M419.5,413.5c0.5-0.9,1.2-0.9,2-0.5c0.2,1.2,0.6,2.5-0.1,4c-0.4-0.2-0.8-0.4-1.2-0.6   c-0.2-0.8-0.5-1.5-0.7-2.3C419.6,413.9,419.6,413.7,419.5,413.5z" />
	<path fill="#5D443A" d="M439.1,314.7c1.8,1,3.9,1.7,5.5,3.1c-2,0.9-4-1.9-5.9-2.6C438.6,314.9,438.8,314.9,439.1,314.7z" />
	<path fill="#2F211C" d="M460.9,314c-0.6,0.5-1.2,0.9-2.1,1.6c-0.1-0.7-0.1-1.1-0.1-1.6c1-0.8,1.3-2.3,2.7-2.6   C462.2,312.5,461,313.1,460.9,314z" />
	<path fill="#0F0B0A" d="M407.4,478.9c1.5,1.4,1.5,1.4,0,3.7C406.2,481.3,407,480.1,407.4,478.9z" />
	<path fill="#453129" d="M490.1,420.7c-0.3-1.2-0.4-3,1.3-2.9C491.5,419.1,491.5,420.2,490.1,420.7z" />
	<path fill="#4B352D" d="M490,471.2c1.8,1,1.8,1,1.2,2.1C490.2,473.3,490.2,472,490,471.2z" />
	<path fill="#815D4F" d="M491.4,476.6c0.6,1,0.6,1.2-0.3,1.4C490.5,477.6,490.9,477.2,491.4,476.6z" />
	<path fill="#CA8C73" d="M419.5,414.1c0.2,0.8,0.5,1.5,0.7,2.3C419.1,415.9,419.5,415,419.5,414.1z" />
	<path fill="#0A0908" d="M419.5,180.3c7.7,11.7,22.8,9.8,35.1,8.6c-0.5,0.9-0.8,1.2-1,1.6c-11.5,2.7-29.3,3.4-35-9.2   C418.9,180.9,419.2,180.6,419.5,180.3z" />
	<path fill="#E7CDBC" d="M460.9,229.7c3.9,9.8-0.2,20,0.6,30.7C458.4,250.4,458.9,239.8,460.9,229.7z" />
	<path fill="#2F2B28" d="M481.4,280.9c0.7-3.3,1.2-7.8,3.2-10.3C486,274,483.7,278.2,481.4,280.9z" />
	<path fill="#1D1B19" d="M481.4,194c0-0.3,0.1-0.7,0.1-1.1c3.5-0.4,6.9,0.2,10.3,0.7C488.4,194.7,484.8,194,481.4,194z" />
	<path fill="#605852" d="M477.8,249.9c-0.8-2.5-1.3-5-1.7-7.9C478.2,243.6,479.7,248.1,477.8,249.9z" />
	<path fill="#1D1B19" d="M475.9,235.7c1.2,1.9,1.2,2-0.2,3.8C474.5,237.3,474.5,237.3,475.9,235.7z" />
	<path fill="#655A52" d="M431.9,282c0-0.6,0-1.1,0-2c1.5,1,3,3.1,1.4,4.1C432.8,283.4,432.3,282.7,431.9,282z" />
	<path fill="#9E9086" d="M476.6,221.9c0,1.3,0,1.9,0,2.4C474.6,224.2,475.4,223.1,476.6,221.9z" />
	<path fill="#514A45" d="M476.8,289.6c0.4,1.2,0,1.8-1,2.3C475.3,290.7,475.3,290.7,476.8,289.6z" />
	<path fill="#645B55" d="M476.3,192.6c1.4-1.2,2.3-0.9,2.7,0.8C478.1,193.1,477.2,192.8,476.3,192.6z" />
	<path fill="#423C38" d="M479.8,285.2c-0.4,0.6-0.7,1.2-1.1,2C477.7,285.9,478.3,285.3,479.8,285.2z" />
	<path fill="#48413D" d="M471.3,190.4c0.7-1.2,1.6-0.6,2.4-0.1c-0.6,0.1-1.3,0.2-1.9,0.2C471.6,190.4,471.5,190.3,471.3,190.4z" />
	<path fill="#3C3633" d="M476.7,227.5c0,0.5,0.1,0.9,0.1,1.4C475.6,228.2,475.6,228.2,476.7,227.5z" />
	<path fill="#857971" d="M476,233.7c-0.2,0.2-0.3,0.2-0.5,0C475.8,233.4,475.9,233.4,476,233.7z" />
	<path fill="#1C1614" d="M386.7,229.7c0-1.5-1-2.8-0.2-4.2c0.3-0.1,0.7-0.1,1-0.2c0.7,1.8,1.5,3.6,0.7,6   C387.5,230.6,387.1,230.2,386.7,229.7z" />
	<path fill="#42332D" d="M386,222.3c-0.2,0-0.5,0-1,0c-0.8-1.7-2.4-3.1-2.6-5.6c0.7,0.3,1.1,0.5,1.5,0.7   C384.5,219.2,386.5,220.1,386,222.3z" />
	<path fill="#675149" d="M387,290.7c1.4,1.9,1.4,1.4,0,3.1C387,292.7,387,292.2,387,290.7z" />
	<path fill="#3F332D" d="M386.8,325.4c1.6-0.2,1.8,0.5,1.1,1.7C387.5,326.4,387.1,325.9,386.8,325.4z" />
	<path fill="#88675A" d="M390.4,343c-0.7-0.3-0.7-0.9-0.7-1.5C390.4,341.9,390.5,342.4,390.4,343z" />
	<path fill="#2E2925" d="M419.5,180.3c-0.3,0.3-0.6,0.6-0.9,0.9c-1.4-2-2.8-4-3.8-6.7C417.7,176.2,417.7,176.3,419.5,180.3z" />
	<path fill="#4B433D" d="M458,188.3c-0.7,0-1.3-0.1-2.1-0.1c1-1.3,1-1.3,2.5-1.7C459.2,187.3,458.1,187.7,458,188.3   C458,188.3,458,188.3,458,188.3z" />
	<path fill="#352F2B" d="M427.5,273.3c0.1-0.7-0.4-1.5,0.1-2c1.8,0,1.2,1.4,1.9,3C428.4,273.7,427.9,273.5,427.5,273.3L427.5,273.3z   " />
	<path fill="#322D29" d="M413.2,169.6c1.1,1,1.1,1,0.8,2.4C412.8,171,412.8,171,413.2,169.6z" />
	<path fill="#675B53" d="M426.3,267.5c-1.1,0.2-1.2-1.3-0.2-1.4C426.9,266.4,426.7,266.9,426.3,267.5z" />
	<path fill="#918177" d="M460.8,185.5c-0.1,0.1-0.3,0.2-0.4,0.3c-0.1-0.3-0.2-0.7,0.2-0.8C460.6,185.1,460.7,185.3,460.8,185.5z" />
	<path fill="#29211E" d="M435.9,128.3c-2.2,0.7-4.2,0.2-6.3-0.6C430.7,125.2,434.3,127.1,435.9,128.3z" />
	<path fill="#2B211E" d="M439.9,129.1c0.9-0.7,1.7-0.7,2.5,0.1c0,0.2,0,0.6-0.1,0.7C440.6,130.4,440.6,130.4,439.9,129.1z" />
	<path fill="#161110" d="M444.9,129.5c1.3,0,1.9,0,2.7,0C446.6,131,446.6,131,444.9,129.5z" />
	<path fill="#6E574E" d="M460.2,147.6c-0.2-0.1-0.3-0.2-0.5-0.3C460.1,146.9,460,147.5,460.2,147.6L460.2,147.6z" />
	<path fill="#201A17" d="M499.4,221.7c0-1.1,0.1-2.2,0.1-3.8c0.9,0.5,1.4,0.8,2,1c0.1,1-0.2,1.9-0.6,2.8   C500.4,221.7,499.9,221.7,499.4,221.7z" />
	<path fill="#977264" d="M499.4,221.7c0.5,0,1,0,1.5,0c-0.8,0.9-1.5,1.9-2.3,2.8c0-0.6,0.2-1.2-0.6-1.4l-0.1-0.1   C498.3,222.6,498.9,222.2,499.4,221.7z" />
	<path fill="#977264" d="M505.2,293.6c0-0.7,0.1-1.5,0.1-2.2C506.1,292.6,506.1,292.6,505.2,293.6z" />
	<path fill="#322825" d="M497.9,223.2c0.8,0.2,0.7,0.8,0.6,1.4c-0.1,0-0.4,0-0.6,0C498,224.1,497.9,223.6,497.9,223.2z" />
	<path fill="#977264" d="M505.2,294.4c-0.5,0-0.9,0-1.4,0c0.2-0.8,0.8-0.6,1.4-0.7C505.2,293.9,505.2,294.1,505.2,294.4z" />
	<path fill="#B18B7D" d="M500.9,221.7c0.2-0.5,0.4-1.1,0.6-1.6C501.5,220.7,501.6,221.4,500.9,221.7z" />
	<path fill="#151512" d="M513.1,568.2c-2.6-4.2,4.5-4.4,6.6-6.4C523.6,564.9,515.3,566.7,513.1,568.2z" />
	<path fill="#1F1E1B" d="M519.3,569.6c-4.7-2.7,6.4-5.6,3.9-1.4C521.9,568.7,520.5,569.1,519.3,569.6z" />
	<path fill="#0D0A09" d="M383.5,165.2c1.6,1.4,0.8,2.6,0.1,4.1C382.2,167.2,382.2,167.2,383.5,165.2z" />
	<path fill="#0D0A09" d="M384.7,172.8c0-1.3,0-2.6,0-3.8C386.5,169,386.5,172.4,384.7,172.8z" />
	<path fill="#171612" d="M525.4,584.2c-0.3-0.5-0.5-0.8-0.6-1.2c2-4.5,9.7-4.6,13.5-2.7c-1.5,1.3-2.6,0.9-4.3,1   C530.5,581,528.3,582.7,525.4,584.2z" />
	<path fill="#010101" d="M502.9,216.5c-0.3,0.1-0.6,0.3-0.9,0.4c-0.7-3-0.6-3.9,0.7-6.1C503.6,212.9,502.9,214.7,502.9,216.5   L502.9,216.5z" />
	<path fill="#10100E" d="M395.5,563.1c-7.8-2.2,11.4-12,11.1-6.1C402.8,558.9,397.2,558.6,395.5,563.1z" />
	<path fill="#0F0E0C" d="M407.1,560.3c0,0.6,0.1,1.1,0.1,1.7c-4.2,0.7-8.1,1.3-10.3,5.2c-2.1-0.7-1.1-2.6-0.6-4   C399.5,560.7,403.1,559.5,407.1,560.3z" />
	<path fill="#131210" d="M397.8,571.2c-2.3-3.8,10.5-9.2,11.6-5C405.3,568.1,401.9,568.9,397.8,571.2z" />
	<path fill="#161613" d="M410.4,570.2c-1.1,2.9-7.4,5.1-10.1,5.3C398.8,572.8,408.6,569.2,410.4,570.2z" />
	<path fill="#151412" d="M402.8,579c0.5-3.2,7.5-5,10-2.9C409.8,578.8,405.5,579.4,402.8,579z" />
	<path fill="#C7C1A8" d="M407.1,560.3c-4.1-0.8-7.6,0.4-10.8,2.9c-0.3,0-0.6,0-0.9,0c1-2.8,3.3-3.6,5.9-4.3   C402.8,560.6,405.7,558.4,407.1,560.3z" />
	<path fill="#302520" d="M473.2,96c0-0.3,0-0.5,0-0.8c0.2,0.3,0.5,0.5,0.7,0.8C473.7,96,473.4,96,473.2,96z" />
	<path fill="#E9E9E9" d="M452.1,71.6c1.3-0.3,2-0.5,3-0.8c0.1,0.9,0.1,1.5,0.1,2.3C453.9,73.2,453.2,72.6,452.1,71.6z" />
	<path fill="#5C5C5C" d="M459.3,71.4c-0.1,0.1-0.2,0.2-0.4,0.3c-0.1-0.3-0.3-0.6,0-0.8C459.1,71.1,459.2,71.2,459.3,71.4z" />
	<path fill="#8A685B" d="M463.8,94c-0.5-0.3-1-0.6-1.5-0.8c2-0.1,3.4-1.6,5.5-2.1c1.2,0.1,2.7,1.3,4,0c0.8,0.5,1.5,1,2.2,1.4   C471.2,94.1,467.1,93.7,463.8,94z" />
</g>
</svg>