<?xml version='1.0' encoding='utf-8'?>
<svg xmlns="http://www.w3.org/2000/svg" version="1.2" baseProfile="tiny" id="Layer_1" x="0px" y="0px" viewBox="0 0 900 600" overflow="visible" xml:space="preserve">
<g id="c_00000135649993783089988360000003983048169397938366_">
	<path display="inline" fill="#F6D9C7" d="M351.5,470.2c-0.1,0.8-0.1,1.6-0.2,2.4c-0.3-0.5-0.7-2-1.4-1c-2,0.7-2.3,1.1-2.9,3.8   c0.9-0.7,1.5-1.2,2.2-1.8c1.9,11.5-2.5,22-6,32.6c-3.7,10.9-6.3,22-7.2,33.4c-0.2,0.6-0.5,1.2-0.7,1.8c-0.3,0.6-1.4,0.1-1.4,1.1   c-1.3,2.8-0.4,5.9-0.8,8.6c-2.5,0.8-4.5,1.7-6.7,3c-0.8,0.4-2-0.3-2.4,0.9c-0.4,0.3-0.8,0.6-1.2,0.8c-2.6-8.3,1.6-18.4,0.6-27.3   c-0.3-10.7-2.1-22.1-3.7-32.2c-0.2,0-0.3,0-0.5,0c0.4-4,0.2-8.3,1.5-12c1.3-8.1,3.6-16.1,9.4-23.3c0.8,4.9,3.8,8.4,5.2,13   c0.5,1.5,0.9,2.5,2.4,3.3c2.5-6.3-1.1-12.4-1.9-19c1.8,1.1,1.7,2.3,3.1,3.4c0,0,0,0,0,0c0.6,1.2,1.7,1.3,2.8,1.4   c3.5-3.8-2-8.3-1.5-12.6c0-1.7,0-1.7-0.9-2.6c-0.4,1-0.8,1.8-1.2,2.7c-1.3-0.3-2.3,0.6-3.5,1.1c-1.2-27.8,4.1-56.2,11.9-82.9   c9.9,0.2,19.5,2.1,29.5,2.3c-1.6,14.6-8.3,27.5-9.5,42.3C359.8,431.6,359.2,452.1,351.5,470.2z M335.3,531.3c0.1-1-0.3-1.8-1.1-2.6   c-0.8,1.7,0.5,2.5,0.7,3.9c0.1,0,0.3,0,0.4,0C335.3,532.1,335.3,531.7,335.3,531.3z M351.3,454.1c-2.5,4.3-2.5,4.3-2.4,5.8   C351.3,459,352.8,456.2,351.3,454.1z M342.2,481.7c-1.5,2.2-2.3,3.8-1.5,5.9C341.5,485.9,342.6,484.4,342.2,481.7z M333.9,523.6   c0.1,1.5-0.3,2.2,0.5,3.1C336.1,525.8,335.4,524.5,333.9,523.6z M340,491.5c-1.4,0.5-1.7,2.2-0.5,2.6   C340.3,493.5,340.4,492.6,340,491.5z M334.1,535.4c0,0.7,0,1.3,0,2.1C335.5,536.4,335.5,536.2,334.1,535.4z M337.8,496.6   c-0.3,0.7-1,1.1,0.1,1.8C338.4,497.9,338.5,497.3,337.8,496.6z M345.4,478.7c0.3-0.5,0.7-0.8,0.1-1.1c-0.2,0.2-0.4,0.5-0.6,0.7   C345,478.4,345.1,478.5,345.4,478.7z" />
	<path display="inline" fill="#020201" d="M362.5,370.2c-12.9-0.4-24.7-5.4-36.9-9.1c-0.3,20-0.3,40.3,1.6,60.2   c0.2,12,4.1,22.9,0.2,34.3c-5.9,8.3-10.5,18.5-12.3,28.7c-3.4-12.7,10.6-23.7,11.7-36.2c-3-36.5-9.4-73.2-0.1-109.4   c3.5-7.3,6.7-14.5,6.9-22.8c4-12.8,11-24.6,16.1-37.1c7.8-13.6-5.5-27.8-7.1-41.8c-6.1-11.7-18-24.5-12.2-38.6   c0.4,0.5,0.8,1,1.2,1.5c0.8-0.4,1.4-1.7,2.1-0.7c-5.6,6.7-2.1,17.8,3.3,23.7c3.4-0.5,6.6-1.9,10-2.9c0.3,0.3,0.6,0.6,1,0.9   c-2.5,2-5.3,3.2-7.9,4.1c-1.2,0-1.3-1.6-2.6-0.6c3,4.6,5.7,9.4,8.2,14.4c-0.4,0.3-0.6,0.6-0.9,0.9c0.7,2.6,1.2,5.3,2.7,7.8   c22.7-9.4,48.5-8.7,72.4-7.2c0.3-1.2,0.6-2.2,0.9-3.2c1.8,3.9,0,8.8,0,12.9c3.2,4.9,5.5,10.3,7.7,15.7c-0.2,0.5-0.5,1-0.7,1.4   c-2.5-4.4-6.2-9.1-6.5-14.2c-0.8-0.4-1.4-0.7-1.9-1c-0.4-3.2,0.1-6.2,0.2-9.4c-5.1-4-12.4-0.5-18.5-1.4c-18,0.7-36.5,0.3-53.3,8   c19.2,27.8-12.2,45.7-12.7,73.4c0.6,2.5-1.7,5-1.4,7.7c0,1-0.9,1.1-1.8,1.2c-2.5,6.3-4.8,12.6-5,19.4c-1.1,1.2-0.8,2.6-0.7,4   c-0.8,1.5-0.8,3.1-0.5,4.8c14.1,4.6,28.4,8,43.2,9.9C367.1,370.7,364.7,370,362.5,370.2z" />
	<path display="inline" fill="#030303" d="M445.4,544.6c6,11.6,13.7,22.6,26.2,28.3c3.6,5.1,5.3,12.9,0.1,17.5   c-0.3-0.7-0.5-1-0.7-1.4c-14.2,1.7-19.3,3.3-32.3-3.8c-7.1,0.3-16.8,4-22-2.5c1.3-7.5,3.1-14.8,4.4-22.3c0-4.1-0.6-8.9,3.6-11   c-0.7-13.5-3.5-26.4-6.3-39.4c-1-5.5-5.9-12.1-3.8-17.4c6.9,16.9,9.1,34.6,12.3,52.4c0.2-1.2,0.3-1.9,0.5-2.6   c0.4,0.2,0.8,0.5,1.3,0.7c0,2.8,0.1,5.6,0.1,8.4c-2.1,1.1-1.5,3.6-2.1,5.7c0.2,0.1,0.5,0.3,0.9,0.5c2.8-5.7,5.6-10.8,10.4-15.1   c0.6,0.1,1.2,0.3,1.9,0.5c-5,4.1-8,10.6-11.3,15.8c-1.8,0.6-2.5-0.5-3.4-1.1c-1-1.9,1-3.6-0.2-5.6c-3.8,3.5-1.5,10-2.7,15.1   c-2.9,3.6-0.9,9.4-3.1,13.4c-0.2,0.6-1.1,1-0.6,1.9c6.3,3.3,14,1.7,20.6-0.3c3.9,3.6,10.3,7.1,15.8,5.9c5.6-1.2,11.9,0.7,17.1-2.7   c0.7-4-0.8-7.6-2.1-11.3c-7.9-2.3-9.8-5.8-15.4-11.4c-0.1-0.8-0.6-1.3-1.4-1.5l0,0c-0.7-4.1-10.6,2.3-13.4,1.3   c0.1-5.1,6.8-4.8,10.7-4.8c-0.8-1.4-1.4-2.5-2.1-3.6c-5.1-0.2-8,3.5-12.6,4.8c-0.6-6.3,6.2-8.8,11.6-7.5   C446.7,549.2,443.4,546.5,445.4,544.6z" />
	<path display="inline" fill="#030202" d="M343.1,109.5c2.8,14,0.8,28.2,2.9,42.2c2.8,3.1,5.1,7,8.7,9.3c1.2-0.5,2.1-0.9,3.3-1.3   c-0.3-1-0.7-2-1-2.9c0.3-0.5,0.5-1,0.7-1.4c-0.2-1.2-0.9-2.1-0.3-3.3c1.4,2.3,1.9,5.5,3.6,6c-0.2-0.9-0.4-1.5-0.5-2.1   c0.3-1,1.5-1.9,0.2-2.9c0-0.4-0.1-0.9-0.1-1.3c0.5-0.2,0.9-0.5,1.6-0.8c0.4-3.3-1.7-6.6-1.4-10c0.5-0.1,0.8-0.2,1.4-0.4   c-0.5-1.2,0.4-2.6-0.7-3.6c-0.2-0.5-0.2-1-0.1-1.5c0.8,0.4,1.4,0.9,2.1,1.4c0.6,8.5,2.7,18.7-3.1,26c-0.5-0.2-1.1-0.6-1.7,0.3   c4.3,5.1,8,10.7,11.3,16.5c1.5,0.6,3.4,0.2,4.2,1.4c-1,0.2-2,0.4-3.1,0.7c3.5,12.6,12.3,22.9,23.8,29   c-14.8,0.1-20.8-19.7-27.9-30.1c-1.3-1.5-0.7-3.9-2.3-5.3c-2.3-2.4-6-12.2-9.2-11.2c8.6,14.8,6.3,35.1-0.7,50   c-0.2-0.3-0.5-0.6-0.7-0.8c2.4-16,9.4-35-1.3-49.5c-3.1-4.9-8.6-8.6-9.1-14.6c-0.6,0-1,0.1-1.6,0.1   C343,136,341.1,121.9,343.1,109.5z" />
	<path display="inline" fill="#040404" d="M341,1c3.3-2.1,6.7,0.6,9.8,1.7c4.8,1.4,2.6,6,3.8,9.4c1.4,9.8,2.9,14.3-3.9,22.5   c8.8,9.8,9.2,35-8.9,32.3c0.1-0.4,0.1-0.9,0.2-1.4c16.1-0.5,14.8-20.6,7.4-30.3c1.2-6.1,6.1-8.6,4.1-16.1c-2.4,1.2-4.9,0.9-6.8,2.7   c0.5,4.2-2.5,6.7-4.9,9.7c0.2,4.3-1.6,8.5-1.5,12.8c-2.3,4.1,1,11.4-1.3,15.4c-0.2-13.6-1.5-29.6,7.1-40.9c2.5-0.5,4.9-0.9,7-2.6   c0.2-2.8-1.4-5.4-0.8-8.2c1-4-3.7-4-5.8-5.7c-1.5-0.9-3.7-1.2-5.3,0.5c1.1,2.2,1.1,4.6,1.3,7.1c-0.2,0.5-0.5,0.9-0.7,1.4   c-2.2,0.3-2.5,2.4-4.2,3.5c-0.3-1,0.2-1.9,0.6-2.8c-0.3-0.4-0.6-0.9-0.9-1.3c-0.8,0.2-1.5,0.3-2,0.5c-1.2-0.7-2.3-1.4-3.5-2.1   c-2,1.5-4,0.4-6.2,0.1c-0.7,0.7-1.4,1.4-2.1,2.1c-10.9,2.6-6.4,14.5-3,21.6c-0.5,0.1-0.8,0.2-1.2,0.2c-8.9-11.4-4.6-26.2,11.1-25.5   c-0.4-1.1-0.9-2.1-1.3-3.2c0.3-0.3,0.5-0.6,0.8-0.9c0,0,0,0,0,0c2.2,2.4,2.9,6.1,6.9,5.6c0.6,1.6,2.6,0.3,3.8,0.3   c1.2-2.8-0.3-4.6-1-7.1C340,2,340.5,1.5,341,1z" />
	<path display="inline" fill="#030302" d="M429.4,320.4c14.9,32.3,15.7,67,12.5,101.6c-0.4,11.9,4.7,25,2.2,36.4   c-1.2-7-2.2-14.1-2.6-21.3c-0.6-0.1-1-0.2-1.5-0.2c-0.7-15.8-0.7-31.7,1.9-47.3c-1-23.5-6.6-46-13.3-68.4   C428.8,321,429.1,320.7,429.4,320.4z" />
	<path display="inline" fill="#030303" d="M414.5,492.8c-0.7,0.3-0.6,1.1-0.7,1.7c-3.1-9.5,1.2-20,1.7-29.6   c-5.2-16.6-10.7-32.6-13.6-49.8c-4.8-16.3-16.7-32.7-14.7-49.8c4.1,18.2,11.2,35.5,18.3,52.7c2.8,16.7,7.8,32.9,13.7,48.8   c-0.8,0.1-1.4,0.3-2.2,0.4C417.2,475.8,413.8,484.1,414.5,492.8z" />
	<path display="inline" fill="#090706" d="M393.6,211.1c0.5,0,1.1,0,1.4-0.6c1.4,0,2.7,1.4,4.3,0.4c-0.8-5-4.3-8.7-7.5-12.3   c-0.3-0.3-1-0.6-0.4-1.4c2.4,1.1,4,3.1,5.9,4.8c0.3-0.3,0.4-0.4,0.6-0.6c1.5,1-0.5,3.3,1.3,4.2c0.8,2,1.7,4,2.5,6   c10-2.4-0.8-23.5-3.9-29.1c-2,0.1-4,1.1-6.1,0.4c0.7-3,3.3-1.5,5.5-2.1c-1.1-3.3-3.2-6-4.8-9.1c-0.1,0.5-0.2,0.7-0.2,0.9   c-0.4-0.1-0.8-0.2-1.4-0.3c0.2-1.7-0.7-3.6,0.8-4.7c4,3.9,7.1,9.3,12.3,11.3c6.8,7.2,12.6,15.7,20.3,22.1c0.7-0.2,1.2-0.3,1.9-0.5   c-0.2,0.9-0.4,1.5-0.6,2.2c5.6,8.2,5.4,20.3-0.6,28.1c-0.3-0.3-0.5-0.6-0.8-0.9c4.1-11.2,3-24.7-6.6-32.8   c-7.4-6-11.9-15.3-19.9-20.4c-0.2-0.6-0.6-1.1-1.8-0.9c3.6,4.3,4.3,10.3,7.7,14.7C410.3,199.5,409.1,219.6,393.6,211.1z" />
	<path display="inline" fill="#373A45" d="M319.2,33.1c0.3-0.1,0.7-0.1,1.2-0.2c-3.4-7.1-7.9-19,3-21.6c-2.5,3.1-5.3,6.5-3.4,10.7   c0.9,2.5,0.9,7.2,4.1,7.6c-1,12-4.9,23.4-4.1,35.6c-10.4-5.7-6.9-20.8-1-28.8c0.5-0.4,0.7-1.2,0.9-1.9   C319.7,34.2,319,33.7,319.2,33.1z M317.4,45.3c1.5-2.3,2.7-4.2,4.2-6.5C317.9,38.7,316.7,41.5,317.4,45.3z" />
	<path display="inline" fill="#070606" d="M470,368.7c-0.2-1.7-0.4-3.4-0.6-5.1c-5.1,0.5-4.9-5.1-2.4-8.3   c-13.4-12.1-8.9-6.5-12.2-22.9c-10-19.5-27.6-39.9-25-63.2c2.5,16.8,8.4,32.9,17.7,47.3c4.9,6.3,10.5,14,10.5,22   c-1.1,0.7-0.2,1.6-0.3,2.4c-0.4,2.6,0.7,4.4,2.9,5.9c0.1-0.6,0.2-1,0.3-1.4C467.2,351.6,473.2,359.5,470,368.7z M469.2,360.9   c-0.7-1.3-0.8-2.5-2-3.1c-0.4,1.5-0.4,2.7,0.3,4.1C468.1,361.5,468.5,361.3,469.2,360.9z" />
	<path display="inline" fill="#040404" d="M319.3,33.8c1,0.7,0.2,1.9-0.3,2.6c-5.8,8-9.4,23,1,28.8c-0.7-12.2,3.1-23.6,4.1-35.6   l0.1,0c1.5-0.8-0.2-2.8,1.4-3.5c2.3,9.6-2.3,19.8-3.3,29.5c-2.8,13.6,4.7,27.6,1.2,40.6c-1.6-9.3-2.2-18.9-3.8-28.6   C306.7,61.5,310.9,42.4,319.3,33.8z" />
	<path display="inline" fill="#0F0C0B" d="M350.9,105.2c-2.1-13.6,5.7-22,18.7-15.2c19.8-2.8,36.3,7.3,34.5,28.6   c-1.4,0.5-0.1,2.2-1.4,2.8c-0.7-3,0.7-6.4-0.9-9.1c0,0,0,0,0,0c0.2-0.1,0.4-0.2,0.6-0.2c-3.1-3.8-4.5-15.2-10.2-15.2   c-0.6-0.7-1.1-1.3-2.1-2.5c0,1.1,0,1.5,0,1.9c-1.6,0.2-1.9-1.2-2.6-2.1c-1.8-2.6-5.2-2.3-8-2.9c-1-1-2.1-0.5-3.2-0.4   c-0.1,0.5-0.2,0.9-0.3,1.4c-3.7-1-6.9-0.3-10.4,0.6c-1.9,1.8-4.8,2.5-6.2,4.8c-2.5-0.1-3,3.3-4.5,4.9c-0.7,0.6-0.8,1,0.2,1.4   c0,0.2,0,0.5,0,0.7c-1.9-0.1-1.6,2.5-0.7,3.5c-2.1,1.6-1.3,2.2-0.6,4.3l0,0c-0.2,0.1-0.4,0.1-0.6,0.2c0.1,0.1,0.2,0.3,0.4,0.4   c0.1,0.8,0,1.6,0.7,2.2c-0.6,1-0.8,2.1-0.9,3.2c-3-1,0.5-9-1.8-11l-0.2,0c0-0.7,0.1-1.4,0.1-2.1c0.9-0.7,1.4-1.6,1.3-2.9   c0.1-0.1,0.2-0.3,0.2-0.5c0.2-0.3,0.4-0.6,0.5-0.9c0.6-0.3,0.8-0.7,0.7-1.3c0.1-0.2,0.2-0.4,0.2-0.6c0.9-1.6,7.7-4.3,5.6-5.8   c0.2-0.2,0.4-0.4,0.6-0.6c0.5-0.1,0.9-0.1,2.1-0.3c-1.3-0.6-2-0.9-2.6-1.2c-0.1-0.2-0.1-0.4-0.2-0.6c1.9-0.2,2.8,1.7,4.8,1.2   c-1.7-2.9-2.3-3.1-5.2-2c0.2,0.3,0.3,0.6,0.5,0.9c-2.7-0.5-5.1,0.2-6.3,2.8c-0.8,0.5-0.8,1.2-0.8,2l0,0c-1.3,1.2-0.3,3.3-0.7,4.9   c0,0,0,0,0,0c-1,1.4-0.5,3.3-0.6,5C351.3,105.3,351.1,105.3,350.9,105.2z" />
	<path display="inline" fill="#030303" d="M356.9,454.9c5.3-24.2,9.4-48.9,17.4-72.2c0.3,0,0.7,0.1,1,0.1c-1.8,14.8-7,29.1-9.2,43.9   c-2.1,9.5-3.2,19.8-8.4,28.3C357.5,454.9,357.2,454.9,356.9,454.9z" />
	<path display="inline" fill="#070707" d="M444,458.4c1.4-1.2,0.4-3.6,0.8-5.2c6.1,29.9-2.7,60-0.6,90c0.5,0.6,0.8,1,1.2,1.5   c-0.7,0.3-0.7,0.9-0.7,1.5c-1.9-1.1-4-1.7-6.3-1.4c0.5-0.5,0.9-0.9,1.4-1.4c0.6,0,1.2-0.1,1.9-0.1   C441.3,514.8,446.8,486.9,444,458.4z" />
	<path display="inline" fill="#070606" d="M324.1,555c0.2-0.6,0.6-0.7,1-0.8c2.9-0.3,5-2.5,8.1-3.1c0.4-2.7-0.6-5.8,0.8-8.6   c0.6,0.2,1.1,0.4,2.1,0.7c0.3-12.9,2.9-26,7.8-37.9c0.2,0.3,0.5,0.6,0.7,0.9c-3.7,15.2-8.2,31.2-7.1,46.9c2.8,1,4.4,4.3,2.1,6.8   c-0.7-1.3-1.4-2.6-2.1-4.1c-2.2,0.3-2.7-2.6-5.1-2.7c-1.9,0.8-4.1,1.7-6.2,2.6C325.5,555.7,324.5,556.2,324.1,555z" />
	<path display="inline" fill="#0A0A09" d="M324.2,186.6c-0.2-0.2-0.2-0.3-0.1-0.5c-7.3-9.3,0-21.1-4.8-31.3   c-1.8-6-1.5-12.5-0.3-18.7c0.3-6.9-1.7-14.3,0.9-20.9c0.2,0,0.5,0,0.7,0c0.8,16.4-1.5,32.9,2.6,49c1.2,3.4-0.2,6.5-0.6,9.9   C321.6,177.6,326.1,185,324.2,186.6z" />
	<path display="inline" fill="#0A0808" d="M429.4,320.4c-0.3,0.3-0.6,0.6-0.9,0.9c-2.2-3.3-2.4-6.9-3.2-10.8c-2.3-0.2-4.8,1-6.5-0.5   c2-0.4,4-0.8,6.1-1.3c1.1-23.4-15.7-35.6-5.5-59.3c0.1,0.8,0.1,1.6,0.2,2.5c0.5,0.3,1.1,0.6,1.9,1c0,0.5,0,1.2,0,1.8   c-0.3-0.5-0.6-0.9-1-1.6c-6.5,11.5-0.9,24,3.9,35C427.1,298.8,427.1,309.6,429.4,320.4z" />
	<path display="inline" fill="#070606" d="M448.3,264.3c11.4,18.6,10.2,42.9,18.8,63.1c-0.2,0.7,0.3,1.7-0.7,2.2   c-10.1-20.1-9.4-43.9-18.9-63.9C447.5,265.1,447.5,264.5,448.3,264.3z" />
	<path display="inline" fill="#090808" d="M403.3,178.9c-1.4-1.5-3.9-2.1-4.8-3.8c6,2.6,12.2,3.4,18.5,2.5   c19.8,3.1,22.3,26.1,17.7,41.9c-0.4-0.5-0.8-0.9-1.3-1.4C437.7,194,429.5,176.4,403.3,178.9z" />
	<path display="inline" fill="#090808" d="M314.2,480.5c0.1,1.3-0.2,2.8,0.8,3.8c-2.4,25,12.1,51.9,1.4,75.5c-0.3,0-0.5,0.1-0.8,0.1   l0.1,0.1c5.5-21.1-0.9-42.9-2.2-64.5c1.2-1.4,1.2-9.1,0-10.5C313.5,483.5,313.4,481.9,314.2,480.5z" />
	<path display="inline" fill="#0A0808" d="M340.9,567c1.6,3.8,2,8.4,5.1,11.3c4.9,3.8,9.2,14,3.7,18.9c-4.9-1.5-9.6,3.7-14.9,2.6   c-4.9-1-10.6,0.9-14.9-2.1c9.6-1.8,20.1,2.2,28.8-4C354.3,583.5,336.7,576.8,340.9,567z" />
	<path display="inline" fill="#0E0D0C" d="M338.9,59.8c2.3-4-0.9-11.4,1.3-15.4c0.5,7.8-0.9,16.5,1.3,23.8   c3.9,24.8-0.2,49.3,0.7,74.5C340,115,343,87.3,338.9,59.8z" />
	<path display="inline" fill="#090706" d="M375.4,382.8c-0.3,0-0.7-0.1-1-0.1c0.6-3.8,1.2-7.6,1.8-11.4c-4.6-1.1-9.2,0.4-13.7-1   c4.7-0.1,9.2-0.8,13.9-0.9c0.9-2.7,1.8-5.1,2.6-7.4c0.7,0,1.3,1.2,2,0.1c2.8-2.5,6.1-3.5,9.7-3.7c0.5,0.3,0.9,0.6,1.3,0.9   c-1.3,2.1-3.6,1.5-4.8,3c0,1.1,0,2.1,0,3.1c-0.7,0.3-0.6,1-0.7,1.6c-0.3-1.3-0.6-2.7-1-4.3c-2.4,0.7-3.9,2-6.3,3.4   C377.7,371.1,377.8,377.8,375.4,382.8z" />
	<path display="inline" fill="#0D0B0A" d="M321.4,597.1c-0.5,0.2-0.9,0.4-1.4,0.6c-1.7-0.7-3.6-1.2-4.3-3.2c-3.2-0.2-6.4,0.1-9-1.9   c2.9-8.2,3.2-16.6,4.9-25c0.3,0.3,0.5,0.6,0.8,0.9c1.1,11.4-0.6,13.1-3.6,23.4c2,0.3,3.8,0.9,5.8,0.8c0.3-0.9-0.7-2,0.8-2.5   C317,592.9,318,596.1,321.4,597.1z" />
	<path display="inline" fill="#0E0D0D" d="M436.2,223.7c3.7,11.5,8.2,23.6,8.4,35.7l0,0c-4.3-10.5-6.3-22.9-9.2-34.2   C435.7,224.7,436,224.2,436.2,223.7z" />
	<path display="inline" fill="#2A2824" d="M351.5,107.4c2.3,2-1.2,10,1.8,11c0.1-0.6,0.2-1.3,0.3-1.9c0.2,0.2,0.4,0.4,0.7,0.7   c0,2.4,2.5,1.1,4.2,1.4c0,0.2,0,0.4,0,0.6c-1.1,0.1-2.3,0.1-3.5,0.2c0,1,0,1.7,0,2.5c-1.3-0.2-1.1-1.6-2-2.3   c-2,10.9,0.9,22.4,2.7,33.2c-0.3,0-0.5,0-0.8,0C349,138.4,351.6,122.7,351.5,107.4z" />
	<path display="inline" fill="#151313" d="M344.6,506.3c-0.2-0.3-0.5-0.6-0.7-0.9c1-8.2,6.7-15.4,5.7-23.8c-0.5-3.3,1.1-6.6,0.4-10   C354.8,472.7,348.2,502.2,344.6,506.3z" />
	<path display="inline" fill="#1C1A19" d="M484.7,367.5c-1.7,4,0.9,10-3.2,12.6c-2.5-0.7-3.2-2.7-3.8-4.9c-0.8-0.5-1.5-1-2.3-1.5   c0.2-0.2,0.5-0.4,0.7-0.6c0.3,0,0.7,0,1.2,0c0.4-1,0.7-1.9,1.1-2.8c1.1,2.2,1.2,4.6,1.8,7.1c0.4,0.1,0.8,0.3,1.4,0.5   c0.8-3.3,0.1-15,2.8-15.9C484.6,363.9,484.6,365.7,484.7,367.5z" />
	<path display="inline" fill="#211816" d="M341,1c-0.5,0.5-1,0.9-1.5,1.4c-2-1-2-1-4-0.3c1.9,2.2,3.4,4.7,2.8,7.8   c-0.7,0.1-1.3,0.1-1.6-0.7c1.4-4.5-4.5-8.9-7.7-4.7c-1.9-0.5-3.3,0.4-4.6,1.2c-0.2,1.3,0.8,1.5,1.4,2c-0.8,0.2-1.7,0.5-2.5,0.7   c-0.2-1.2-0.4-2.5-0.5-3.8c3.4-2.2,7.3-3,11.1-3.6C336.2-0.9,338.5,0.4,341,1z" />
	<path display="inline" fill="#1A1715" d="M476.2,373c-0.2,0.2-0.5,0.4-0.7,0.6c-0.4-0.5-0.7-1-1.3-1.7c-0.4,0-1.2,0.1-2,0.2   c-3.8-2-0.9-5.8-1.4-9.3c1,1.8,0.4,3.8,0.6,6c0.5,0.5,1.1,1.1,1.9,1.8c2.2-5.3,0-10.8,1.5-15.7c0.3,1.5,0.6,2.8,0.9,4.3   c0.9,0.8,3.8,1.2,3.5,2.5c-1.1,0-2.2,0-3.2,0c-0.9,2.1,0.4,3.8,0.5,5.6C476,369.2,475.1,371.2,476.2,373z" />
	<path display="inline" fill="#191514" d="M466.4,329.5c1.1-0.4,0.5-1.4,0.7-2.2c2.4,8.3,5.5,17.1,13.5,21.7   c0.5,0.3,0.9,0.8,0.4,1.4c-7.5-1.6-9.5-10.1-14-15.2C466.9,333.4,466.6,331.5,466.4,329.5z" />
	<path display="inline" fill="#363944" d="M341.5,68.2c-1.3-2.1-0.7-5.3-1.2-7.7c3.4,2.8,7.4,0.7,11.2,0.8c-2.6,2.7-5.7,4.1-9.6,4.3   C341.8,66.5,341.7,67.3,341.5,68.2z" />
	<path display="inline" fill="#1E1A18" d="M480.4,350.5c0.2,0,0.4,0,0.7,0c0,0.3,0.1,0.7,0.1,1.1c5.6,2.3,3.5,9.3,4.1,14   c0.1,0.7,0.1,1.4-0.6,1.8c-0.1-1.8-0.1-3.6-0.2-5.5c-1.7,0.1-1.1,1.3-1.3,2.1c-0.9-3-1.5-6-0.5-9c-0.9-0.9-1.6-1.8-2.3-2.5   C480.3,351.7,480.4,351.1,480.4,350.5z" />
	<path display="inline" fill="#121313" d="M391.6,167.6c-1.5,1.1-0.7,3-0.8,4.7c0.6,0.1,1,0.2,1.4,0.3c-0.3,1.1-0.8,1.2-1.8,2.3   c-0.3-7.2-1.1-14.2,0.5-21.2c0.8,0,1.7-0.2,2.1,0.8l0,0C391.3,158,391.7,163.4,391.6,167.6z" />
	<path display="inline" fill="#1D1B1B" d="M356.9,454.9c0.3,0,0.6,0,0.8,0c-0.8,5.2-1.6,12.3-6.3,15.2   C352.6,465,354.8,459.7,356.9,454.9z" />
	<path display="inline" fill="#383129" d="M355,153c0.3,0,0.5,0,0.8,0c1.3-1.6,0.2-3.9,0.3-5.8c0.2,0,0.6-0.1,1-0.2   c0-0.5,0.1-1.1,0.1-1.7c0.2,0,0.4,0,0.6,0c0.9,2.1,0.8,7.3,3,7.7c1.3,1,0.2,2-0.2,2.9c-0.6-0.9-1.1-1.7-1.7-2.6   c-0.2,0.2-0.3,0.3-0.5,0.4c-0.3-0.6-0.6-1.1-1-1.8c-0.6,1.2,0.1,2.1,0.3,3.3c-0.2,0.4-0.5,0.9-0.7,1.4   C356.3,155.4,355.2,154.4,355,153z" />
	<path display="inline" fill="#312928" d="M392.9,154.5c-0.4-1-1.3-0.8-2.1-0.8c-0.1-0.2-0.1-0.4,0-0.7c2.7-0.1,5.4-0.8,7.8-1.7   c2.1-2.6,2.2-5.5,3.2-8.4c0.2,0.5,0.5,1.1,0.7,1.6c-0.5,3.3-1.5,6.5-3.9,9.3C396.8,154.1,394.9,154.3,392.9,154.5z" />
	<path display="inline" fill="#1A1817" d="M322.7,93.2c2,6.3-2,12.1-1.9,18.7c-0.4-4.2-1-7.9-0.2-12.1   C322.4,98.1,322.1,95.5,322.7,93.2z" />
	<path display="inline" fill="#252120" d="M324.2,186.6c0.7-0.3,0.6-0.9,0.7-1.5c1.8,4.5,4.6,8.7,5.5,13.4c-0.2,0.3-0.5,0.5-0.7,0.8   C327.9,195.1,325.4,191,324.2,186.6z" />
	<path display="inline" fill="#23211F" d="M402.5,144.5c-0.2-0.5-0.5-1.1-0.7-1.6c0.6-3.2,1.5-6.4,2.3-9.6c1.7-1.3-0.4-3.7,1.3-4.9   C406.7,134.1,404.4,139.4,402.5,144.5z" />
	<path display="inline" fill="#3B3837" d="M405.4,128.4c-1.7,1.2,0.4,3.6-1.3,4.9c0-3.8,0.1-7.7-1.6-11.2c0.1-0.3,0.1-0.5,0.2-0.8   c1.3-0.5,0-2.3,1.4-2.8C404.4,121.9,404.9,125.2,405.4,128.4z" />
	<path display="inline" fill="#020201" d="M313.6,485.1c1.2,1.4,1.2,9.1,0,10.5C312.9,492.1,312.9,488.6,313.6,485.1z" />
	<path display="inline" fill="#2B2A29" d="M340.9,567c-0.8,0.8-0.7,1.9-0.8,3c-1.3-3.1-0.9-6.7-0.6-10c0.8-0.2,0.6-1,0.7-1.5   C342,560.9,340.6,564.3,340.9,567z" />
	<path display="inline" fill="#352E2A" d="M312.4,568.6c-2.4-2.5-0.8-6.3,1.3-8.6c0.7,0,1.4,0,2.2,0l-0.1-0.1c0,0.2,0,0.6-0.1,0.6   C311.6,561.9,313.8,565.9,312.4,568.6z" />
	<path display="inline" fill="#2D2625" d="M448.3,264.3c-0.7,0.2-0.7,0.8-0.8,1.4c-1.7-1.7-2.4-3.9-2.8-6.2l0,0   c0.4,0.1,0.9,0.1,1.3,0.2C446.8,261.2,447.5,262.8,448.3,264.3z" />
	<path display="inline" fill="#E1C7B6" d="M319.8,105.3c0.1,3.7,0.8,7.8-0.6,11.3C319.6,112.9,318.5,108.8,319.8,105.3z" />
	<path display="inline" fill="#2A2524" d="M436.2,223.7c-0.2,0.5-0.5,1-0.7,1.5c-0.6-2.4-2.1-4.7-2-7.2   C435.3,219.6,435.8,221.6,436.2,223.7z" />
	<path display="inline" fill="#454543" d="M429.9,269.3c-0.6,0.9-0.6,1.9-0.7,2.9c-0.4-1.7-0.8-3.4-1.2-5.1c0.2-0.5,0.5-1,0.7-1.4   C429.7,266.7,429.3,268.2,429.9,269.3z" />
	<path display="inline" fill="#312928" d="M392.1,160.6c0.3-2-0.8-4.7,0.8-6.2C392.8,156.5,393.4,158.8,392.1,160.6z" />
	<path display="inline" fill="#F6D9C7" d="M446,259.7c-0.4-0.1-0.9-0.1-1.3-0.2c0-1.2,0.1-2.3,0.1-3.5   C445.7,256.9,445.6,258.4,446,259.7z" />
	<path display="inline" fill="#E1C7B6" d="M315.8,560.1c-0.7,0-1.4,0-2.2,0c0.7-0.7,1.4-1.4,2.1-2.1   C315.6,558.6,316.4,559.3,315.8,560.1z" />
	<path display="inline" fill="#E1C7B6" d="M320.6,99.7c0,1.2,0.2,2.5-0.6,3.6C320,102,319.5,100.7,320.6,99.7z" />
	<path display="inline" fill="#E1C7B6" d="M316.3,555.1c-0.2,0.7-0.3,1.5-0.5,2.2C315.7,556.5,315.4,555.7,316.3,555.1z" />
	<path display="inline" fill="#AF9D84" d="M351.5,105.3c0,0.7-0.1,1.4-0.1,2.1c-0.8-0.6-0.7-1.4-0.5-2.2   C351.1,105.3,351.3,105.3,351.5,105.3L351.5,105.3z" />
	<path display="inline" fill="#F6D9C7" d="M435.4,220.4c-0.2-0.3-0.4-0.6-0.6-0.9c0.2-0.3,0.4-0.6,0.6-0.9   C435.4,219.2,435.4,219.8,435.4,220.4z" />
	<path display="inline" fill="#AF9D84" d="M351.4,94c-0.1,0.5-0.3,1-0.4,1.5C350.7,95,350.7,94.4,351.4,94z" />
	<path display="inline" fill="#252120" d="M323.6,185.2c0.2,0.3,0.3,0.6,0.5,0.8C323.9,185.7,323.8,185.5,323.6,185.2z" />
	<path display="inline" fill="#E1C7B6" d="M317.8,556.5c10-32.8-16.8-70.3,9.6-100.9c3.9-11.4,0-22.3-0.2-34.3   c-2-19.9-1.9-40.2-1.6-60.2c7.9,2.9,16.1,4.7,23.9,7.5c-0.9,0.1-1.8,0.1-2.9,0.2c-7.8,26.7-13.1,55.1-11.9,82.9   c1.2-0.4,2.2-1.4,3.5-1.1c-0.2,3-0.5,6.1-0.7,9.1c-0.4-0.3-0.8-0.7-1.7-1.4c0.8,6.6,4.4,12.7,1.9,19c-1.5-0.8-1.9-1.9-2.4-3.3   c-1.4-4.6-4.4-8.1-5.2-13c-2.4,3.3-4,6-5.9,9.2c-0.3-0.3-0.5-0.6-1-1.2c-2.1,3.5-3,6.9-3,10.7c0.5,0.1,0.8,0.2,1.1,0.2   c-0.9,1.4,1.1,3-0.5,4.3c-0.1-0.7-0.2-1.4-0.3-2.3c-1.6,0.7-1.4,1.6-0.9,2.7c0.3,0,0.7,0.1,1,0.1c-0.6,1.2-0.6,2.5-0.7,3.8   c-0.3,0-0.7,0.1-1,0.1c-0.5,1.6-0.5,1.6,0.1,3c0.3-0.2,0.6-0.3,0.9-0.5c-0.4,1.7-0.8,3.4-0.6,5.1c-0.4,0.8-1.3,1.5-0.1,2.5   c1.4-0.5,0.9-1.5,0.6-2.5c1.6,10,3.5,21.5,3.7,32.2c1,8.9-3.3,19-0.6,27.3c-1.4,1.6-2.9,3.2-4.3,4.9   C317.4,559.7,318,557.9,317.8,556.5z" />
	<path display="inline" fill="#DEC5B4" d="M340.2,450.7c-0.5,4.3,5,8.9,1.5,12.6c-1.1-0.1-2.2-0.2-2.8-1.4   C341.2,458.7,337.9,454,340.2,450.7z" />
	<path display="inline" fill="#23211D" d="M318.5,560.7c1.9-1.9,3.3-4.3,5.5-5.7c0.4,1.1,1.4,0.7,2.2,0.8   c-4.9,1.9-6.4,8.8-11.2,10.5c-0.5-0.8-2.3-2.9-0.3-3c0.4,0.3,0.7,0.6,1.1,0.9C316.9,563,317.7,562,318.5,560.7z" />
	<path display="inline" fill="#312B27" d="M340.2,450.7c-2.3,3.3,1,8.1-1.3,11.2c0,0,0,0,0,0c-0.8-0.5-1.1-1.3-1.4-2   c0.5-4-0.1-8.2,1.9-11.8C340.3,449,340.3,449,340.2,450.7z" />
	<path display="inline" fill="#2E2925" d="M321.3,480.1c-0.3-0.1-0.7-0.1-1.1-0.2c0.1-3.7,1-7.2,3-10.7c0.5,0.5,0.7,0.8,1,1.2   c-0.1,0.2-0.2,0.4-0.1,0.6C323.2,474,322.3,477.1,321.3,480.1z" />
	<path display="inline" fill="#372E2B" d="M351.3,454.1c1.5,2.1,0,4.9-2.4,5.8C348.8,458.5,348.8,458.5,351.3,454.1z" />
	<path display="inline" fill="#71625C" d="M350,471.6c0.1,2.2,0.5,4.4-0.5,6.5c-0.1-1.5-0.1-3-0.2-4.5c-0.7,0.5-1.3,1.1-2.2,1.8   C347.6,472.7,347.9,472.3,350,471.6z" />
	<path display="inline" fill="#38302D" d="M342.2,481.7c0.4,2.7-0.7,4.3-1.5,5.9C339.9,485.5,340.7,483.8,342.2,481.7z" />
	<path display="inline" fill="#402E2A" d="M319.9,491.3c-0.3,0.2-0.6,0.3-0.9,0.5c-0.7-1.4-0.7-1.4-0.1-3c0.3,0,0.6-0.1,1-0.1   C319.9,489.6,319.9,490.4,319.9,491.3z" />
	<path display="inline" fill="#48403B" d="M333.9,523.6c1.4,0.9,2.2,2.2,0.5,3.1C333.6,525.8,334,525.1,333.9,523.6z" />
	<path display="inline" fill="#4C443F" d="M320.6,484.9c-0.3,0-0.7-0.1-1-0.1c-0.4-1-0.6-2,0.9-2.7c0.1,0.8,0.2,1.6,0.3,2.3   C320.6,484.5,320.6,484.7,320.6,484.9z" />
	<path display="inline" fill="#7C5C55" d="M336,539.7c0,1.1,0,2.2,0,3.6c-0.9-0.3-1.5-0.5-2.1-0.7c0-0.9,1.1-0.5,1.4-1.1   C335.6,540.8,335.8,540.2,336,539.7z" />
	<path display="inline" fill="#675B53" d="M319.8,496.4c0.3,1,0.8,2-0.6,2.5c-1.2-1-0.3-1.7,0.1-2.5   C319.4,496.4,319.6,496.4,319.8,496.4z" />
	<path display="inline" fill="#524641" d="M340,491.5c0.3,1.1,0.3,2-0.5,2.6C338.3,493.7,338.6,492,340,491.5z" />
	<path display="inline" fill="#4D3A36" d="M334.5,531.4c-0.7-0.7-0.8-1.5-0.4-2.7c0.8,0.8,1.2,1.6,1.1,2.6   C335.1,531.3,334.8,531.3,334.5,531.4z" />
	<path display="inline" fill="#372C29" d="M334.1,535.4c1.4,0.9,1.4,1,0,2.1C334.1,536.7,334.1,536.1,334.1,535.4z" />
	<path display="inline" fill="#13100F" d="M337.8,496.6c0.8,0.7,0.7,1.2,0.1,1.8C336.7,497.8,337.5,497.3,337.8,496.6z" />
	<path display="inline" fill="#E1C7B6" d="M323.5,473.1c0.2-0.7,0.4-1.4,0.6-2.2C324.1,471.8,324.5,472.7,323.5,473.1z" />
	<path display="inline" fill="#83736B" d="M345.4,478.7c-0.2-0.2-0.4-0.3-0.5-0.4c0.2-0.2,0.4-0.5,0.6-0.7   C346.1,477.9,345.7,478.2,345.4,478.7z" />
	<path display="inline" fill="#423D38" d="M334.5,531.4c0.3,0,0.5,0,0.8,0c0,0.4,0,0.8,0,1.2c-0.1,0-0.3,0-0.4,0   C334.8,532.2,334.6,531.8,334.5,531.4z" />
	<path display="inline" fill="#DEC5B4" d="M338.2,461.3c0.3,0.2,0.5,0.4,0.8,0.6C338.7,461.7,338.4,461.5,338.2,461.3z" />
	<path display="inline" fill="#FF9A77" d="M379,361.9c-0.8,2.4-1.7,4.8-2.6,7.4c-9,1.1-18.1-1.7-27-3.2c1.4-7.5,2.6-15.2,4.8-22.6   c5.2-0.2,9.1,3.2,14.4,1.8c-2.7-3.2-15.6-3.8-12.8-8.7c3,1,6.8,3.6,9.9,2c-2.5-3-6.1-4.3-9.3-6.2c1.4-6.3,3.6-12.9,6.6-18.4   c10.8,0.7,21.6-1,32.4-0.4c0.2,1.1,0.4,2.1,0.8,3.8c0.4-1.6,0.7-2.6,1-3.7c9.6-0.5,18.8-2.8,28.4-3.3c3.9,16.6,10.5,32.5,12.9,49.7   c-11.1,3.1-22.9,6.6-34.4,7c-0.6-2-1.1-3.8-1.7-5.9c2.5-3.7,5.5-6.7,9.2-9.4c-5.4,1.3-10,2-14.7,3.3c-4.3,4.5-11.3,2.2-15.6,6.8   C380.3,361.5,379.2,360.4,379,361.9z M417.1,343.2c-2.9,0.1-18.3,2.2-16.1,6.6C406.7,349.5,413,347.1,417.1,343.2z M415.1,337.9   c4,0,7-1.3,10.1-1.9c0.8-0.1,1.9-0.1,2.4-1.2C425.8,332,418.1,336.3,415.1,337.9z M389.1,341.9c-1.3,4.6-3.1,9.7-2.9,14.2   C389.4,352.8,389.4,346.5,389.1,341.9z M365.1,348.7c2.8,1.8,5.8,3,9.2,3.5C371.8,350.1,368.3,349.3,365.1,348.7z M375.6,357.3   c-0.4-1.4-1.9-1.3-2.8-1.6c-2-0.6-3.9-2-6.4-1.5C369.6,356,373.1,357.2,375.6,357.3z M390.5,329.5c0.3-1.8,0.5-3.2,0-5.1   C389.6,326.3,389.1,327.7,390.5,329.5z M390.6,334.2c-0.8,1.5-0.8,2.4,0,3.8C390.6,336.6,390.6,335.7,390.6,334.2z M424,318.5   c0,0.1,0,0.3,0,0.4c0.5,0,0.9-0.1,1.4-0.1c0-0.1,0-0.3,0-0.4C424.9,318.4,424.4,318.4,424,318.5z M396.1,319.9   c-0.5,0.2-0.4,0.5-0.2,0.9C396.4,320.6,396.3,320.3,396.1,319.9z" />
	<path display="inline" fill="#F6D9C7" d="M419.4,249.5c-0.9,3.5-2.2,7-2.8,10.6c-2.2-0.4-1.5-6.1-4-5c0.6,2.1,1.3,4.2,2,6.3   c0.5-0.2,0.8-0.3,1.2-0.4c-1,16.6,10.7,30.7,9.2,47.7c-11,2.3-22.2,2.7-33.4,3.9l0,0c-4.1-1.1-8.5-0.5-12.7-0.8   c-1.5-7.3-4.2-16.1-9.9-20.4c-0.1,7,1.8,13.9,4.3,20.4c-2.8,0.1-5.6,0.1-8.4,0.2l0-0.2c-1-1.4-2.7,0-3.6-0.7   c-0.9-15.4,1.8-30.1,5.3-44.9c0.7-0.6,1.3-1.2,2-1.9c-0.1-3.1-2.5-6-1-9c0.5,0.2,1.1,0.4,1.6,0.6l0,0c2,1.8,4.2,0,4.1-3.2   c-2.4-2.7-4.8-5.6-7.3-8.3c10.9-4.4,23.7-2,35.4-3.4c6.1,0.9,13.4-2.6,18.5,1.4C419.6,244.9,419.5,247.2,419.4,249.5z M396.2,293.2   c0-0.3,0-0.5,0.1-0.8l0,0c0.6,0.1,1.2,0.1,1.4-0.8l0,0c4.7-1.9-0.2-6.1,0.8-9.6c0.2-2.2,0.2-3.3-1.1-5.5c-2.2,4.6-2.1,9-2.3,13.8   c-1.8,1.5-0.8,5.2,1.7,4.8c0.9,0,1.9,0.6,2.4-0.7c-0.4-0.4-1-1.8-1.4-0.7l0,0c-0.2,0-0.5,0-0.7,0   C396.8,293.6,396.5,293.4,396.2,293.2z M385,249.5c-1.9,0.8-4.5,2.5-4,4.9c2.4-3.6,5.9-4.5,9.1-7   C388.2,246.3,386.8,248.8,385,249.5z M416.6,290.3c-0.2,3.1-2.5,6.5-1.1,9.3c3.1-6.8,2.1-13.9,0.6-20.3   C415.7,283,415.9,286.7,416.6,290.3z M413.5,304.5c0.5-0.9,1.6-1.7,0.8-3C412.9,302.2,413,303.3,413.5,304.5z M411.4,307.8   c1.1,0,1.4-0.5,1.3-1.4C411.9,306.3,411.6,306.8,411.4,307.8z M368.9,281.6c-0.6,0.7-0.9,1.5,0,2.5   C368.9,283,368.9,282.3,368.9,281.6z M410.7,252.4c-0.5,1.6-0.4,1.7,1.2,1.7C411.5,253.5,411.1,253,410.7,252.4z" />
	<path display="inline" fill="#F6D9C7" d="M338.9,59.8c3.9,29.7,1.6,59.5,3.4,89.3c0.6,0,1-0.1,1.6-0.1c0.5,6,6,9.7,9.1,14.6   c7.2,9.4,6.3,22.6,4.2,33.6c-2.3-4-3.9-9.6-6.7-13.4c0.7-4.3,0.2-7.4-1.5-11.2c-2.4-4.3-0.3-10-4.2-13.5   c-0.5,10.2,0.6,19.6,2.3,29.6c4.6,4.2,2.7,12.3,7.9,15.9c1,7.2-3.5,14.8-11,16.4c-0.3-6.8-5.7-13.6-5-21.1   c0.2-12-5.3-24.8-12.6-34.2c0.9-4.7-2.1-10,0.1-14.2c0,0,0,0,0,0c1.7,3.6,3.5,7.2,6.4,9.8c3.6-18.1-14.6-35.5-7.5-53.7   c1.3-5.5,5-10,4.6-15.6c0.6-0.8,1.5-2.3,0-2.7c-0.1-0.9-0.1-1.8-0.2-2.6c-1-0.8-1.8-1.4-2.6-2c-2.4-12.8-1.6-25.8,1.6-38.5   c2.5-5.7-0.5-13.5,3.1-18.1c0.7,2.4-0.4,4.6,1.5,7c0.7-2.9-0.3-6.3,1.7-8.3c5.2-5.5-8.5-5.3-11.5-6.9c-0.2-0.5-0.4-0.9-0.7-1.4   c3.9-4.3,10.1-1.4,14.8-3.6c2.8-4,6.5-3.9,11.1-4.7c0.5-0.5,1.2-1.2,2.1-2c-1.7-1-3.8-0.6-5-2.8c0.1-0.7,0.1-1.9,0.2-3   c0.2,0.1,0.3,0.1,0.5,0.1c2,1.7,6.7,1.6,5.8,5.7c-0.6,2.8,1,5.4,0.8,8.2c-2.1,1.7-4.5,2.1-7,2.6C337.4,30.2,338.7,46.2,338.9,59.8z    M343,189.4c2,3.4,0.6,7.1,2.6,10.6c2.4-6.3-1.7-12.6-6.6-16.6c-0.4,0.6-0.6,1-0.8,1.3C339.7,186.5,341.1,188.2,343,189.4z    M332.5,37.2c-0.7,0.9-0.9,1.8,0,3.1C332.5,38.9,332.5,38.1,332.5,37.2z M331.1,45.4c0.2,0,0.5,0,0.7,0c0-0.7,0-1.3,0-2   c-0.2,0-0.3,0-0.5,0C331.2,44,331.2,44.7,331.1,45.4z M346.5,208.7c-0.1-0.2-0.1-0.4-0.2-0.6c-0.5,0.2-0.4,0.4-0.2,0.8   C346.2,208.8,346.4,208.8,346.5,208.7z M344.9,202.7c-0.6,0.6-0.4,0.8,0,1.5C345.5,203.5,345.3,203.3,344.9,202.7z" />
	<path display="inline" fill="#FFF0A7" d="M397.8,176.7c7.9,5.1,12.5,14.4,19.9,20.4c7.6,6.6,11.9,19.6,6.9,28.7   c-13.7,1.8-9-0.1-19.9-4.8c-0.7,0.4-1.7,1-2.6,1.6c0,1.4,0,2.6,0,3.8c4.9,5.4,11.1,9.6,18.8,8.6c0.3,1.9-0.2,3.4-0.8,5.3   c-16.3-2.8-32.8,1.5-49.4-0.5c-0.2-3.8,3.1-4.6,4.8-7c0.2,0,0.5,0,0.6,0c8.4,3.5,17,0.8,22.7-6.1c0.6-0.9,0.6-1-0.5-1.3l-0.2,0.1   c-3.6-2.5-7.6,1-11.4,0.4c-11.1-1-21-7.5-28.6-15.5c1.6-15.3,7-32.2-2.4-46.3c3.4-2.5,16.6,26.5,18.9,30.2   c5.8,9.9,16.2,19.6,28.4,18.6c6-1.1,3.8-8.8,4-13.2c-0.6-8.4-7.5-14.7-9.9-22.7C397.3,176.8,397.6,176.7,397.8,176.7z M398.5,221.6   c0.4-1,0.7-1.2,0-1.9C397.5,220.3,397.8,220.3,398.5,221.6z" />
	<path display="inline" fill="#EF8A6A" d="M362.8,314c-3,5.5-5.2,12.1-6.6,18.4c3.3,2,6.8,3.2,9.3,6.2c-3.2,1.5-6.9-1-9.9-2   c-2.8,4.8,10.1,5.5,12.8,8.7c-5.3,1.5-9.2-2-14.4-1.8c-2.1,7.4-3.3,15-4.8,22.6c-8-1.6-15.6-4.2-23.5-6.5c-0.3-1.8-0.4-3.3,0.5-4.8   c0.1,0,0.3,0,0.4,0c0.2,0.4,0,1,0.8,1.1c0.2-1.4,0.4-2.8,0.6-4.2c-0.4-0.3-0.8-0.5-1.2-0.8c0.3-6.8,2.5-13.3,5-19.6   c0.9-0.1,1.8-0.1,1.8-1.2c-0.3-2.7,2.1-5.2,1.4-7.7c-1.3-4.6,1.6-9.6,2.9-14C346.4,310,354.4,312.8,362.8,314z M339.6,314.1   c0,1.3-2.3,4.2-0.1,4.4c0.6-2.9,2.6-6.2,1.7-8.5C340.1,311.3,339.9,312.7,339.6,314.1z M337.3,329.1c3,2.4,7,2.2,10.8,3.1   C344.3,330,341.1,328.6,337.3,329.1z M342,334.1c-2.5-1.3-5-1.9-8.1-1.7C335.9,334.4,339.3,334.1,342,334.1z" />
	<path display="inline" fill="#E1C7B6" d="M367.6,243.4c-0.6,0.3-1.1,0.7-1.7,1.1c2.4,2.8,4.9,5.6,7.3,8.3c0.1,3.2-2.1,5-4.1,3.2   c0.4-0.1,0.7-0.1,1.3-0.2c-0.8-0.6-0.8-0.3-1.3,0.2c-0.5-0.2-1-0.4-1.6-0.6c-1.5,3,1,5.9,1,9c-0.7,0.7-1.3,1.2-2,1.9   c-3.4,14.8-6.2,29.5-5.3,44.9c0.9,0.8,2.6-0.6,3.6,0.7c-8.8,0-17.2-2.5-25.7-4.9c7.8-22.4,24-34.5,8.9-57.9   C354.3,246.7,360.8,244,367.6,243.4z M360.7,248.2c0.1,2.6,1.4,4,3.6,3.9C363.5,250.6,362.3,249.6,360.7,248.2z M362.5,259.8   c-1.6-0.7-2.1-2.2-4.2-1.5C359.4,259.4,360.2,260.5,362.5,259.8z M364.4,261.7c-0.1-1.1-0.5-1.7-1.6-0.9   C363.5,261.1,364,261.4,364.4,261.7z M366.6,253.4c-0.3-0.1-0.5-0.4-0.8,0C366.1,253.8,366.2,253.8,366.6,253.4z" />
	<path display="inline" fill="#EBDA8F" d="M375.4,232.6c-1.7,2.4-5,3.2-4.8,7c1.5,0.1,2.8,0.2,4.2,0.2c-9.4,1.4-18.3,4.1-27.2,7.5   c-1.5-2.5-2-5.2-2.7-7.8c0.3-0.3,0.6-0.5,0.9-0.9c-2.5-4.9-5.2-9.7-8.2-14.4c8.6,1.2,18.2-7.9,20.2-16.8c0,0.8,0.1,1.6,0.2,2.6   c7.6,8,17.5,14.5,28.6,15.5c3.8,0.6,7.8-3,11.4-0.4C388.8,237.7,376.5,229,375.4,232.6z M368.5,227.9c2.8,2.4,3.1,2.5,5.5,2.6   C372.4,229.4,371,227.9,368.5,227.9z M362,223.8c0.3-0.6,0.8-1,0.1-1.3C361.3,222.8,361.4,223.1,362,223.8z" />
	<path display="inline" fill="#E1C7B6" d="M328.4,98.4c-13.3,22.2,6.8,41.2,4.3,62.8c-2.9-2.5-4.7-6.2-6.4-9.8c1-0.5,1-1.1,0.1-2.1   c0,0.9-0.1,1.5-0.1,2.1c-2.1,4.2,0.9,9.5-0.1,14.2c7.3,9.4,12.8,22.2,12.6,34.2c-0.7,7.5,4.7,14.3,5,21.1c-2.1,1.4-4.6,1.3-6.8,2   c-5.4-5.9-8.9-17-3.3-23.7c-0.7-0.9-1.3,0.4-2.1,0.7c-7.3-14.3-9.6-19.9-8.4-35.8c-2.3-9.7-3.6-19.5-1.8-29.4c0.2,0,0.5,0,0.6,0   c0.6,0.7,0.3,2,1.5,2.6c0.1-2.1,0.2-4-0.4-5.9c-0.7-0.1-1.2-0.2-1.8-0.1c-1.7-9.4-0.7-19.3,0.7-28.8c0.8-0.7,1.6-1.3,2.2-2.1   C326,101,327.1,99.3,328.4,98.4z M335.9,195.6c-0.2,0.5-0.3,0.7-0.4,1C336.6,197.2,336.9,196.2,335.9,195.6z M324.3,144   c0.3,0.7,0.5,1.2,0.9,2C325.6,144.3,325.6,144.3,324.3,144z" />
	<path display="inline" fill="#E1C7B6" d="M429.9,269.3c-2-6.7-5.2-13.3-8.9-19.3c0.2-5.2,1.4-10.8,1.5-16c0.7-0.7,1.3-1.2,1.9-1.7   c3.1,6.5,0.5,15,5.2,21.1c1.8,3.9,7.8,8.5,6.2,12.8c-2.1,6.1,1.6,20.7,4.3,26.9c5.6,11.5,15.6,21.8,17.7,34.6c-0.3,0-0.7,0-1.1-0.1   c0,0.7-0.1,1.3-0.1,1.9c-0.2,0.2-0.4,0.4-0.6,0.7C444.3,311.2,432.2,292.1,429.9,269.3z M455.4,325.3c1.4-0.3,1.3-1.8-0.3-1.7   C455.3,324.2,455.3,324.7,455.4,325.3z M453.9,320.1c0.2,0,0.3-0.1,0.5-0.1c-0.1-0.5-0.1-0.9-0.2-1.4c-0.3,0.1-0.6,0.1-0.9,0.2   C453.5,319.2,453.7,319.7,453.9,320.1z" />
	<path display="inline" fill="#241F19" d="M424.4,232.2c-0.6,0.5-1.2,1.1-1.9,1.7c0,2.4-0.2,5.1-0.8,7.5c0.3-2.3-0.9-4.2-0.8-6.5   c-0.2-1.1-1.5-0.3-1.9-1.2c1.8-1.3,4.1-1.9,5.4-3.9c0.3,0.3,0.5,0.6,0.8,0.9C424.8,231.2,424.6,231.7,424.4,232.2z" />
	<path display="inline" fill="#2E1714" d="M339.1,307c4.2,1.2,8.4,2.3,12.6,3.5c-0.8,0.3-1.8-0.3-2.3,0.7c-3.7-1-7.4-2.3-11.3-2.8   C338.1,307.7,338.3,307.2,339.1,307z" />
	<path display="inline" fill="#201612" d="M354.9,213.9c-1.2,3.5-3.8,5.5-6.9,7.1c-0.3-0.3-0.6-0.6-1-0.9c2.3-2.1,5.6-3.7,6.6-6.8   c0.2-0.1,0.4-0.1,0.5-0.2C354.4,213.3,354.7,213.6,354.9,213.9z" />
	<path display="inline" fill="#AAACAC" d="M327,350.7c-0.2,1.3-0.2,2.7-0.3,4c-0.1,0-0.3,0-0.4,0C326.1,353.3,325.9,351.9,327,350.7   z" />
	<path display="inline" fill="#F6D9C7" d="M444,458.4c2.8,28.4-2.7,56.4-2.3,84.8c-1.4,0.2-2.5,0-3.7-0.4c-4.3,3.8-6.9,8-9.4,13   c-0.9-1-0.6-2.3-0.7-3.5c3.3-3.3,0.7-10.7,1.4-15.3c-1.5-4.2,0.4-9.8-1.4-13.3c-0.2,0.2-0.5,0.4-0.7,0.7   c-3.2-18.1-12-36.7-5.7-55.4c3,4.5,4.7,9.7,8,14.1l0,0c0.6,2.3,2.4,3.2,4.4,4.3c5-12-7.1-21.4-12.9-30.1   c-3-17.7-13.3-35.6-9.8-53.6c-0.6-5.1,2.4-9.2,0.8-14.3c-2,2.7-2,6-4,8.6c-1-9.1-5.2-18.8-3.8-27.6c11.4-2.5,22.5-6.1,34.1-8.4   c7.4,24.3-0.8,50,1.8,75.1c0.4,0.1,0.9,0.1,1.5,0.2C441.8,444.3,442.8,451.4,444,458.4z M428.6,447.9c-7.3,0.8-2,10.6,2.9,13.2   c4.8-1.6,0-10.9-1.6-13.9C429.5,447.5,429,447.7,428.6,447.9z M431.5,494.6c0.7-2.1,0.7-2.1-0.6-2.4   C430.3,493,430.5,493.6,431.5,494.6z M430.7,487.2c-0.2-0.2-0.3-0.4-0.4-0.5c-0.2,0.2-0.4,0.4-0.6,0.6c0.2,0.2,0.4,0.4,0.6,0.5   C430.4,487.6,430.6,487.4,430.7,487.2z" />
	<path display="inline" fill="#E1C7B6" d="M429.3,482.9c-3.3-4.3-4.9-9.5-8-14.1c-2.6,10-3.3,21.7-0.2,31.6   c4.7,6.4,2.5,21.3,7.3,25.2c-0.5,8.5,2.4,17.9,0.1,26c0.1-2.8-0.1-17.3-1.8-6.5c-3.1-17.4-5.4-34.5-11.7-51.1   c-2.3-8.7,2.5-17.9,1.9-26.9c0.8-0.2,1.5-0.3,2.2-0.4c-9.6-25.3-13.4-52.2-24.8-77c1.1-0.8,0.7-2,0.5-2.8c-1.8-4.8-1.4-10.6-3.5-15   c4.2-0.5,8.5-1,12.7-1.6c-1.4,8.8,2.8,18.5,3.8,27.6c2-2.6,2-5.9,4-8.6c-3.5,32.5,1.1,36.4,9,67.9c5.8,8.7,17.9,18.1,12.9,30.1   C431.7,486.1,429.9,485.2,429.3,482.9C432.2,483.3,429.1,479.8,429.3,482.9z M423.8,467.6c-0.2,0.2-0.4,0.4-0.6,0.5   c1.8,2.5,3.7,10.7,6.5,10.8C428.4,475,427,470.3,423.8,467.6z M427.1,529.7c-0.8,1.1-0.8,1.9-0.2,2.8   C428.1,531.7,428.1,531.7,427.1,529.7z M427.5,536.3c-1.2,0.8-0.9,1.4,0.2,1.8C427.7,537.4,427.6,536.9,427.5,536.3z" />
	<path display="inline" fill="#F7EFD0" d="M438.4,544.6c2.3-0.3,4.3,0.3,6.3,1.4c0.8,1.7,1.6,3.5,2.6,5.6   c-5.4-1.3-12.2,1.2-11.6,7.5c4.6-1.4,7.5-5,12.6-4.8c0.6,1.1,1.3,2.2,2.1,3.6c-3.8,0-10.5-0.3-10.7,4.8c4.3,0.1,8.1-2.7,12.5-2.6   c0.3,0.4,0.6,0.9,0.9,1.3l0,0c-2.7,0.7-9-0.4-9.1,4.2c3.6-0.1,7-1.9,10.5-2.7c5.7,5.6,7.5,9,15.4,11.4c0.5,1.5,1,3,1.5,4.5   c-0.1,0.2-0.1,0.4,0,0.6c-6-1.7-11.1,0.2-14.4,5.6c-6.9,0.3-14-1.1-18.2-6.8c-1.3,0-2.5,0-3.7,0c-0.4,0.9-0.9,1.6-1.3,2.5   c-3.1,1.1-5.9-2.6-8.8-0.6c-0.8-0.6-1.8-1-2.2-1.5c1.2-7.1,1-14.2,2.4-20.9c0.9,0.6,1.7,1.7,3.4,1.1   C431.5,554.5,434.1,548.5,438.4,544.6z M447.1,568.5c2.8-0.2,7.1-0.1,8.1-2.7C452.1,565.5,448.2,565.1,447.1,568.5z M451.3,569.9   c2.5,0.9,4.3,0,6.4-0.3C456.5,567.1,452.8,567.9,451.3,569.9z" />
	<path display="inline" fill="#EADCB7" d="M425,557.9c-1.4,6.7-1.2,13.8-2.4,20.9c0.4,0.6,1.4,0.9,2.2,1.5c2.9-2,5.7,1.7,8.8,0.6   c0.5-0.9,0.9-1.7,1.3-2.5c1.2,0,2.4,0,3.7,0c4.2,5.7,11.3,7.1,18.2,6.8c0.5-0.6,1-1.3,1.6-2c0.2,0.4,0.3,0.7,0.6,1.4   c3-3.6,7.8-5.1,12.3-3.4c0.1-1-0.1-1.4,0-2.2c1,2.2,0.7,4.5,0.6,6.8c-5.2,3.4-11.5,1.5-17.1,2.7c-5.5,1.1-11.9-2.3-15.8-5.9   c-6.6,2-14.3,3.6-20.6,0.3c-0.5-1,0.4-1.3,0.6-1.9c2.2-4.1,0.1-9.8,3.1-13.4c1.2-5.1-1.1-11.6,2.7-15.1   C426,554.4,424,556.1,425,557.9z" />
	<path display="inline" fill="#1D1815" d="M454.4,563c-3.5,0.9-6.9,2.7-10.5,2.7c0.1-4.6,6.4-3.5,9.1-4.2   C453.8,561.7,454.3,562.1,454.4,563z" />
	<path display="inline" fill="#A78D81" d="M427.8,552.3c0,1.2-0.2,2.5,0.7,3.5c-0.3,0.7-0.7,1.3-1.1,2.1c-0.4-0.2-0.7-0.4-0.9-0.5   C427.1,555.7,426.6,553.4,427.8,552.3z" />
	<path display="inline" fill="#533D38" d="M427.2,542.6c-0.3-2.3,1.9-1,1.3,0.7C428.1,543,427.7,542.8,427.2,542.6z" />
	<path display="inline" fill="#1D1815" d="M453.1,561.5c-0.3-0.4-0.6-0.9-0.9-1.3C453.1,560.2,453.1,560.8,453.1,561.5z" />
	<path display="inline" fill="#F6D9C7" d="M402.5,122.2c3.6,9.4,0.1,20.4-3.9,29.2c-7.2,3.7-12.8-1-20.1-0.6   c-5.9-3.7-10.3-8.2-12.7-14.9c-0.5,0.4-0.9,0.6-1.2,0.9c-0.4,0-0.7,0-1.1,0c-2.8-1.8-6.5-4.6-6.2-8.2c0.6,0.6,1.3,2.1,2,0.7l0,0   c0.5,0.8,1,2.1,2,2.2c0.8,0.8,0.5,2.5,2.1,2.7c2.4-2.6-2.4-3.8-1.5-7c1.4-0.4,3.8,0.7,4.4-1c-0.7-0.7-1.5-1.5-2.1-2.2   c0.7-0.5,3.5-0.9,2.4-2.3c-1.4,0.2-2.9,0.3-4.3,0.5c2.3-0.9,5.9-1.4,5.5-4.7c2.1-0.8,1.6-3.1,2.7-4.5c0,0-0.4-0.4-0.6-0.6   c0,0,0.1,0.1,0.1,0.1c0-0.3,0-0.5-0.1-0.8c0.5-0.8,1-1.6,1.9-3c-1.1,0.4-1.6,0.8-2,0.8c-0.7,0.1-1.5-0.9-2.1,0   c-0.2,0-0.4,0-0.6,0.2c-0.9-0.2-1.9,0.2-2.6-0.7c2.2-0.4,4.6-1.3,6.1-3c-0.3-0.6-0.8-1.1-1.3-1.5c0-0.2,0-0.5-0.1-0.7   c0.1-0.2,0.1-0.4,0.2-0.5c0.2,0,0.4,0,0.5-0.1c0.6,0,1.3,0,1.7,0c0.4-0.9,0.7-1.5,1.1-2.1c0.9-0.5,1.6-1.3,2.2-2.6   c-1.7,0-2.6,0-4.1-0.2c1.1-1.4,3.4,0.5,4-1.4c4.1-0.2,8.5,1,12.2,2.5c0.5-0.4,0.8-0.7,1.2-1c1,0.3,1.9,0.8,2.8,0   c0.5-0.2,1.2,0.1,1.4-0.7l-0.1,0c0.6,0.4,1.2,0.8,2.1,1.4c0-0.8,0-1.2,0-1.7c4.3,3.6,5.3,9.5,7.8,14.3c-0.1,0.2-0.1,0.4-0.1,0.6   l0,0c-2.2-0.1-4.3,0.1-6.2,1.1c0,0.4-0.1,0.8-0.1,1.1l0.1-0.1c-5.8,4,2.5,10.4,3.5,14.9c-0.5,1.3-2.1,1.5-2,2.9   c0.8,0.6,1.7-0.3,2.5-0.4c2.3-4.5-3.7-7.6-3.9-11.8c2,0.9,3.3,3.8,5.4,0.7C401.7,121.2,402.1,121.7,402.5,122.2z M380.9,118.6   L380.9,118.6c-0.9-0.2-1.5,0.4-2,1.1c0.3,0.5,0.7,1.1,1.1,1.8c0.6-0.5,1.1-0.9,1.7-1.3c0.8,0.1,0.7,0.8,0.8,1.3   c0.7,2.4,4.5,1.5,4.8-0.8l-0.1,0.1c0.4,0,0.8,0,1.4,0c-0.5-1.5-0.8-2-0.7-3.6C385.4,117.5,382.4,116.6,380.9,118.6z M380.4,114.6   c3.8-1.2,7.4,1.2,11-0.5c-4.4-1.5-13.3-3-14.6,3.1C378,116.3,379.2,115.4,380.4,114.6z M392.9,143.1c4,1.9,9.4-0.4,8.4-5.2   c-4.2-2.3-8,0.6-12.2,0.4c-0.4,0-0.8,0.5-1.7,1C390.1,140.1,391.1,141.3,392.9,143.1z M390.9,131.3c-0.3,1.3,0.5,1.5,1.5,1.8   c1.2-0.7,3.1-0.1,4.1-2C394.2,129.6,392.9,133,390.9,131.3z M396.5,135.9c0.6-0.9-0.1-1.2-0.6-1.8   C395.4,135.1,395.9,135.5,396.5,135.9z" />
	<path display="inline" fill="#F6D9C7" d="M390,170.5c0.1,1.3,0.2,2.6,0.4,4.4c1.4-1.3,1.7-1.6,2-3.3c1.6,3.1,3.6,5.8,4.8,9.1   c-2.3,0.6-4.8-0.9-5.5,2.1c2.1,0.7,4.1-0.3,6.1-0.4c3,5.5,13.9,26.7,3.9,29.1c-1.8-3.7-3-7.3-2.5-11.4c-1.2-0.1-1.4,0.5-1.3,1.3   c-0.2,0.2-0.3,0.3-0.6,0.6c-1.8-1.7-3.5-3.6-5.9-4.8c-0.6,0.7,0.1,1,0.4,1.4c3.2,3.7,6.7,7.3,7.5,12.3   c-11.6,0.5-25.7-18.7-28.2-29.4c1.1-0.2,2.1-0.4,3.1-0.7c-0.8-1.2-2.8-0.9-4.2-1.4c-3.2-5.8-6.9-11.4-11.3-16.5   c0.6-0.9,1.1-0.5,1.7-0.3c1.6,0,3.2,0,5.3,0c1.8-2.2,3.6-5.1,5.3-7.5c1.3,2.9,2.2,5.6,3.8,8.4c1.8-2.9-2.3-4-1.3-7   c5.5,5.2,8.7,10.1,15.9,5.7C389.7,165,388.4,168.4,390,170.5z M380.3,182.1c1.2,2.2,2.2,4.8,4.9,4.3c-1.5-3-1.6-3.2-3.7-4.8   C381.2,181.7,380.9,181.9,380.3,182.1z M378.9,182.4c-1.4-1-2.2-1.9-3.9-0.9C376.4,181.9,377.3,182.1,378.9,182.4z M392,179.2   c0.1-1.1,0.6-2.6-0.7-2.4C390.6,177.6,391.1,178.3,392,179.2z" />
	<path display="inline" fill="#E0C6B5" d="M371,155.2c-1.7,2.4-3.4,5.3-5.3,7.5c-2.1,0-3.7,0-5.3,0c5.5-6.9,3.9-16.8,3.1-25   c0.7,0,1.3-0.1,2-0.1c0.1,2.5,1.9,5.6,4.1,6.6c0-0.3,0-0.7,0-1c1.9,1.3,2.8,3.6,5,4.8c-0.2,0.1-0.3,0.3-0.6,0.5   c3.3,3.3,9.7,6,14,3.7c0.8,0.7,1.8,0.8,2.9,0.8c-0.1,0.2-0.1,0.4,0,0.7c-1.6,5.4-0.4,11.2-0.8,16.8c-1.6-2.1-0.3-5.5-0.7-8.2   c-7.2,4.4-10.4-0.5-15.9-5.7c-0.6,1.8,0.7,2.8,1.2,4c-0.3,0.3-0.6,0.5-0.9,0.8c-1.2-1.4-1.4-3.2-2-4.9c1.9-0.8-0.1-5-1.5-6.3   c0.4,2.1,0.7,3.5,0.9,4.8C371.1,155,371,155.2,371,155.2z" />
	<path display="inline" fill="#E1C7B6" d="M355.1,207.1c-0.1-0.8-0.1-1.6-0.2-2.5c-5.1-3.6-3.2-11.7-7.8-15.9   c-1.6-10.1-2.7-19.4-2.3-29.6c3.9,3.4,1.8,9.2,4.2,13.5c1.7,3.8,2.2,6.9,1.5,11.2c2.8,3.8,4.4,9.3,6.7,13.4   C356.8,200.5,356.3,203.9,355.1,207.1z" />
	<path display="inline" fill="#3B342C" d="M359.9,134c0.5,0.4,1,0.9,1.4,1.3c0,0.3-0.1,0.6-0.1,0.9c-0.3,0-0.6,0.1-1.1,0.1   c0.3,1.1,0.4,1.4,1,2.5c0.2-0.9,0.3-1.5,0.3-2.1c1.1,1.1,0.2,2.4,0.7,3.6c-0.6,0.2-1,0.3-1.4,0.4c0,0.5-0.1,1.1-0.1,1.7   c-1.7,1.5,0.3,4.4,0.3,6.5c0.1,0,0.2,0,0.3,0c0.1-1,0.2-2,0.2-3c1.3,1.6,0.1,3.4,0.7,4.9c-0.6,0.3-1.1,0.6-1.6,0.8   c-1.9-4.5-1.9-9.8-2.8-14.6c0.2-0.3,0.4-0.5,0.6-0.8c0.2,0.8,0.3,1.6,0.5,2.4c0.1,0,0.2,0,0.3,0c0-1.2,0-2.5,0-3.7   C359.4,134.5,359.6,134.3,359.9,134z" />
	<path display="inline" fill="#91816C" d="M361.4,145.9c-0.1,1-0.2,2-0.2,3c-0.1,0-0.2,0-0.3,0c0-2-2.1-4.9-0.3-6.5   C360.9,143.6,361.1,144.7,361.4,145.9z" />
	<path display="inline" fill="#998972" d="M359.3,147.2c0.7,1.4,0.1,3.2,1.2,4.4c0,0.4,0.1,0.9,0.1,1.3c-1.4,0.6-1.3-2.6-2-3.6   C359.6,148.9,359,147.9,359.3,147.2z" />
	<path display="inline" fill="#94856F" d="M358.4,153.7c0.1-0.1,0.3-0.3,0.5-0.4c1,1.5,1.9,2.6,2.2,4.6   C359.5,156.9,359.5,156.9,358.4,153.7z" />
	<path display="inline" fill="#BAAD95" d="M361.4,136.8c-0.1,0.6-0.2,1.1-0.3,2.1c-0.6-1.1-0.6-1.4-1-2.5c0.5-0.1,0.8-0.1,1.1-0.1   C361.3,136.4,361.4,136.6,361.4,136.8z" />
	<path display="inline" fill="#34211E" d="M365.5,137.6c-0.7,0-1.3,0.1-2,0.1c0-0.3,0-0.6,0-0.9c0.4,0,0.7,0,1.1,0   C364.9,137,365.2,137.3,365.5,137.6z" />
	<path display="inline" fill="#EBDA8F" d="M354.2,213c-0.2,0.1-0.4,0.1-0.5,0.2c-0.1-0.6-0.1-1.1,0.5-1.4   C354.2,212.2,354.2,212.6,354.2,213z" />
	<path display="inline" fill="#3B342C" d="M362,135.7c0.2,0.2,0.5,0.3,0.7,0.5C362.4,136,362.2,135.8,362,135.7z" />
	<path display="inline" fill="#4C505E" d="M351.5,61.2c-3.8-0.1-7.8,2.1-11.2-0.8c0-8.9-0.7-17.9,1.4-26.6c0.4-0.4,0.8-0.8,1.2-1.1   c1.2,0.5,2.3,1,3.5,1.5c1.5-4.3,3.6-8.7,3-13.6c1.3-0.5,2.6-0.9,4-1.4c2,7.5-2.9,10-4.1,16.1C354,42.3,357.7,54.3,351.5,61.2z" />
	<path display="inline" fill="#4B4F5D" d="M324.3,17.2c-0.9,0.8-1.7,1.5-3,1.6c0.2,2.7,1.3,4.8,2.8,6.6c0,1.5,0,2.9,0,4.3   c-4-0.9-3.7-7.1-4.8-10.3c-0.2-4.2,3.6-7.3,6.1-10.2c2.2,0.4,4.2,1.4,6.2-0.1c1.2,0.7,2.3,1.4,3.5,2.1c0.5-0.1,1.2-0.3,2-0.5   c0.3,0.4,0.6,0.9,0.9,1.3c-2.6,0.6-7.9-1.6-8.4,2.1c-2.1,0.6-4.9,0.2-6.1,2.4C324,16.9,324.1,17,324.3,17.2z" />
	<path display="inline" fill="#353944" d="M349.4,20.6c0.6,4.9-1.5,9.3-3,13.6c-1.2-0.5-2.3-1-3.5-1.5c-0.4,0.4-0.8,0.8-1.2,1.1   c0-0.8,0-1.6,0-2.3c2.5-3,5.4-5.5,4.9-9.7C347.5,21.1,348.3,20.5,349.4,20.6z" />
	<path display="inline" fill="#E4CABA" d="M329.8,3.7c3.6-2.7,8.1,1.6,6.9,5.6C332.7,9.7,332,6.1,329.8,3.7L329.8,3.7z" />
	<path display="inline" fill="#241D1B" d="M345.9,2.4c-0.1,1.1-0.2,2.3-0.2,3c1.2,2.2,3.3,1.8,5,2.8c-0.8,0.8-1.5,1.4-2.1,2   c-2.4,0.4-4.7,0.8-6.9,1.2c0.2-0.5,0.5-0.9,0.7-1.4c1.5,0.3,2.2-1,3.2-1.8c-2-1.7-1.3-4.2-1.3-6.5C345,1.6,345.6,1.6,345.9,2.4z" />
	<path display="inline" fill="#DCC3B3" d="M338.3,9.9c0.6-3.1-0.9-5.6-2.8-7.8c2-0.7,2-0.7,4,0.3c0.7,2.5,2.2,4.3,1,7.1   C339.8,9.7,339.1,9.8,338.3,9.9z" />
	<path display="inline" fill="#DBC3B3" d="M344.4,1.7c0,2.2-0.7,4.8,1.3,6.5c-1.1,0.8-1.7,2.1-3.2,1.8c-0.2-2.4-0.2-4.9-1.3-7.1   C342,1.9,343.2,1.6,344.4,1.7z" />
	<path display="inline" fill="#393C47" d="M329.7,14.2c0.4-3.7,5.8-1.5,8.4-2.1c-0.4,0.9-0.9,1.7-0.6,2.8c-0.9,0.5-1.8,0.9-2.9,0.7   C333.9,13.5,331.4,14.4,329.7,14.2z" />
	<path display="inline" fill="#E0C7B6" d="M325.7,7.8c-0.6-0.5-1.6-0.7-1.4-2c1.3-0.8,2.7-1.8,4.6-1.2c0.4,1.1,0.9,2.1,1.3,3.2   C328.7,8.6,327.2,7.5,325.7,7.8z" />
	<path display="inline" fill="#211816" d="M329.8,3.7c0.2,0.3,0.4,0.5,0.5,0.8C330.2,4.2,330,3.9,329.8,3.7z" />
	<path display="inline" fill="#241D1B" d="M347.3,2.9c-0.3-0.2-0.6-0.4-0.9-0.5C346.7,2.6,347,2.8,347.3,2.9z" />
	<path display="inline" fill="#3A2723" d="M439,363.3c-0.3-0.5-0.6-1-0.9-1.4c-4.8,1.1-9.7,2.2-14.5,3.2c-0.5-0.2-1-0.5-1.5-0.7   c5.3-1.6,10.9-2.4,16.1-4.3C438.7,361.1,439.4,362.1,439,363.3z" />
	<path display="inline" fill="#EE8969" d="M391.3,371.9l0,0.3c-0.8,0.1-1.7-0.2-2.2,0.8c-0.9-3.6-2.3-7.1-2-10.8   c1.2-1.5,3.6-0.9,4.8-3c-0.4-0.3-0.8-0.6-1.3-0.9c2.8-0.4,4.6-2.6,7.1-3.5c2.8,1.7,7.1-0.7,10.4-0.8c-2,2.2-4.5,4.9-6.1,7.3   c0.6,2.1,1.1,3.9,1.7,5.9c0.6,0.1,1.5,0.1,2.4,0.2c-5.7,2.1-11.8,1.1-17.3,3.9C390.1,371.6,390.7,371.7,391.3,371.9z" />
	<path display="inline" fill="#EFD2C1" d="M389.2,373c0.5-1,1.4-0.7,2.2-0.8c2.2,4.2,1.6,10,3.4,14.7c0.3,0.9,0.6,2.1-0.5,2.8   C392.6,384.2,390.4,378.7,389.2,373z" />
	<path display="inline" fill="#F6D9C7" d="M424.4,232.2c6-8.5,7.5-20.6,1.3-29.5c0.2-0.6,0.3-1.3,0.6-2.2c-0.7,0.2-1.2,0.3-1.9,0.5   c-7.7-6.4-13.5-14.9-20.3-22.1c26.4-2.1,33.6,15.8,29.6,39.2c4.3,19.9,9.9,39.4,18.1,57.8c3.7,20.1,10.4,39.8,15.4,59.4   c4.4,5.2,6.4,12.7,13.4,15.2c0,0.6-0.1,1.1-0.1,1.9c0.7,0.7,1.4,1.6,2.3,2.5c-0.4,7.7,0.5,15-0.9,22.8c-0.7-0.3-1.1-0.4-1.4-0.5   c-0.4-1.9-0.7-3.7-1.1-5.4c1.4-3.1-0.4-6.4-1.5-9.4c3.7-0.5-0.7-2.5-2.1-3.2c-0.3-1.4-0.6-2.8-0.9-4.3c-1.6,4.9,0.7,10.4-1.5,15.7   c-0.8-0.7-1.4-1.3-1.9-1.8c0.7-9.6-3.5-17-10.4-23.4l0,0.1c-0.7-2.5-1.1-5-1.2-7.6c-0.6-0.3-0.8,0.1-1,0.5c-0.2,0-0.4,0-0.6,0.1   c0-1.4,0-2.7,0.1-4.1c0.6-0.1,1.3-0.2,2.1-0.4c-3.2-21.3-22.6-35.7-24.1-57.5c0-3.5-2.2-7.5-0.2-10.6c0.9-0.9,0.5-2.4-0.2-3.6   C425.5,249.4,427.8,246.4,424.4,232.2z M439.9,262.9c1.4-1.8,3-5.4,1.5-7.2C440.2,257.2,439.6,260.1,439.9,262.9z M428.6,198.9   c-1.4-0.5-1.4-0.5-2,1C427.7,200.3,428.3,199.9,428.6,198.9z M437.9,269.5c0.9-1.1,1.6-1.7,0.9-2.7   C437.8,267.2,437.4,267.9,437.9,269.5z" />
	<path display="inline" fill="#EBDA8F" d="M424.3,229.8c-1.3,1.9-3.6,2.5-5.4,3.9c0.4,0.9,1.8,0.1,1.9,1.2c-5.3,0.3-11-0.8-14.7-4.8   c1.6-0.5-0.2-2.4-0.8-0.8c-1.1-1-2.2-2-3.3-3c0-1.3,0-2.4,0-3.8c0.9-0.5,1.9-1.1,2.6-1.6c10.9,4.8,6.3,6.6,19.9,4.8   c0.2-0.3,0.7-0.8,1.1-1.4C425.2,226.2,424.7,228,424.3,229.8z M410.4,230.6c-3.6-2.3-0.2,3,2,0.6   C411.7,230.9,411,230.7,410.4,230.6z" />
	<path display="inline" fill="#41302C" d="M397.8,201.3c-0.1-0.8,0.1-1.4,1.3-1.3c0,1.8,0,3.6,0,5.4   C397.4,204.6,399.4,202.4,397.8,201.3z" />
	<path display="inline" fill="#9DA79B" d="M406.3,178.8c-1,0-2,0.1-3,0.1C404.1,177.7,405.2,178.5,406.3,178.8z" />
	<path display="inline" fill="#657771" d="M397.8,176.7c-0.2,0-0.5,0.1-0.7,0.1c-0.3-0.3-0.5-0.5-1-1   C397.2,175.6,397.6,176.1,397.8,176.7z" />
	<path display="inline" fill="#060608" d="M317.4,45.3c-0.7-3.7,0.5-6.6,4.2-6.5C320.1,41.1,318.9,42.9,317.4,45.3z" />
	<path display="inline" fill="#231C19" d="M457.9,327.6c0.8,2.1,2,4,2.2,6.6c-0.8,0.2-1.4,0.3-2.1,0.4c-0.3-0.5-0.5-1-0.8-1.4   c0.8-0.8,0-2.7-0.6-3.6c0-0.6,0.1-1.3,0.1-1.9C457.3,327.6,457.6,327.6,457.9,327.6z" />
	<path display="inline" fill="#73675E" d="M458,338.6c0.2,0,0.4-0.1,0.6-0.1c0.2,2.5-0.8,6,2.2,7.1l0-0.1c-0.1,0.4-0.2,0.8-0.3,1.4   c-2.1-1.5-3.3-3.3-2.9-5.9C457.8,340.2,456.9,339.3,458,338.6z" />
	<path display="inline" fill="#B2A092" d="M469.2,360.9c-0.7,0.4-1.1,0.6-1.7,0.9c-0.7-1.4-0.6-2.6-0.3-4.1   C468.4,358.4,468.5,359.6,469.2,360.9z" />
	<path display="inline" fill="#9F8A7E" d="M456.7,329.5c0.6,0.9,1.4,2.8,0.6,3.6c-0.9-0.8-0.8-2-1.2-3   C456.3,329.9,456.5,329.7,456.7,329.5z" />
	<path display="inline" fill="#E1C7B6" d="M324.2,100.4c-0.7,0.8-1.5,1.5-2.2,2.1c6.4-14.8-2.5-31.2,0.3-46.9   c1.4-11.8,7.4-24.6,1.1-35.7c5,2.2,17.3,0.6,10.5,8.5c-0.4-0.3-0.7-0.6-1.1-0.9c-0.3,1-0.5,1.7-0.7,2.4c-0.1-0.6-0.2-1.1-0.3-1.8   c-3.7,4.6-0.6,12.4-3.1,18.1c-3.2,12.7-4,25.6-1.6,38.5c0.8,0.6,1.6,1.2,2.6,2c0.1,0.8,0.1,1.7,0.2,2.6c-0.4,0.8-1.3,2.2,0,2.7   c0.2,1.7-0.6,3.3-0.1,5c0,0.1-0.4,0.4-0.7,0.6c0-0.4,0-0.8,0-1.4C326.5,96.6,324.5,98,324.2,100.4z" />
	<path display="inline" fill="#131111" d="M323.4,19.9c0.6,2.1,2.4,4,2.2,6.3c-1.6,0.7,0.1,2.7-1.4,3.5c0-1.4,0-2.8,0-4.3   c-1.5-1.8-2.6-3.9-2.8-6.6c0.5-0.1,0.9-0.2,1.3-0.3C322.9,18.9,323.2,19.4,323.4,19.9z" />
	<path display="inline" fill="#483B31" d="M364.3,108.9c0.7,0.9,1.7,0.5,2.6,0.7c0,0.2,0,0.3,0,0.5c-0.4,0.4-0.7,0.8-1.1,1.2   c1.4,0.8,2.3-1,3.7-0.7c0.1,0.5,0.2,1.1,0.2,1.7c-0.4,0-0.7,0-0.8,0.4c0.4,0.1,0.5-0.3,0.8-0.5c0.2,0.2,0.6,0.6,0.6,0.6   c-1.1,1.4-0.6,3.7-2.7,4.5c-0.2-0.7-1.5-2-2.3-1.5c-3.5,2-7.6,0.8-11.1,1.2c-0.2-0.2-0.4-0.4-0.7-0.7c0.2-0.4,0.4-0.9,0.6-1.3   c2.6,0.6,7.9,2.8,9.1-0.2c-0.5-0.2-1-0.4-1.4-0.7c0.6-0.8,1.3-0.8,2.2-0.7c0.2,0.4,0.5,0.6,0.9,0.5c-1.2-2.1-4.4-0.9-6.5-1.3   c-0.3-0.7-0.5-1.3-0.8-2l0,0c0.6-0.1,1,0.2,1.4,0.6c1.3,0,2.6-0.1,3.8-0.1c0.1-0.5,0.2-0.8,0.3-1.1c-0.5-0.5-0.9-1-1.4-1.5   c0.5-0.2,1-0.4,1.4-0.5C363.7,108.5,364,108.7,364.3,108.9z" />
	<path display="inline" fill="#C5B698" d="M368.9,103.8c0.1,0.2,0.1,0.5,0.1,0.7c-3.4,0.5-7.4-0.6-10.5,0.8   c-1.4,0.2-2.3-1.1-3.5-1.4c0-0.5-0.1-1-0.1-1.4c0.7-1.2,1.5-2.3,2.2-3.5c0.6,0.6,1.3,1.2,2.3,2.2c2,0.4,4.9,1.2,7.4,1.4   c0.1,0.2,0.1,0.4,0.1,0.6c-3.4-0.3-6.2-1-9.7-0.5c3.2,1,7.2,2.4,9.6,0.5c0.5,0,1,0,1.4-0.1C368.6,103.3,368.7,103.6,368.9,103.8z" />
	<path display="inline" fill="#E5D5B6" d="M354.2,92.6c1-1.5,2.4-2.4,4.3-2c0.3,0.8,0.9,0.8,1.6,0.6c0.6,0.3,1.3,0.6,2.6,1.2   c-1.2,0.2-1.6,0.2-2.1,0.3c-1.3-0.8-1.3-0.8-3.1,0.5c0.1,0.3,0.2,0.6,0.3,0.9c-0.9,0.1-1.8-0.4-2.6,0.4c-0.2,1.5,2.2,0.7,1.9,2.3   l0,0c-2.7-0.1-2.3,0.8-2.9,2.8c-0.6,0.2-0.7,0.7-0.7,1.3c-0.2,0.3-0.4,0.6-0.5,0.9c0,0.2-0.1,0.4-0.2,0.5c-0.9-0.5-0.4-1.4-0.7-2.1   l0,0c1-1,1-1,0.1-2.1c0-0.2,0-0.5,0-0.7c0.9-0.5,0.7-1.3,0.6-2.1l0,0C354.2,94.9,353.1,93.4,354.2,92.6z" />
	<path display="inline" fill="#5D5B4E" d="M378.9,96.7c-5.5,0.2-10.8-1.4-16.2-2.1c1-0.5,2.1-1,2.9-1.9c0,0.3,0,0.6,0.1,0.9   c1.5,0.9,2.8,0.2,4.1-0.2C372.4,95.3,376.1,94.9,378.9,96.7z" />
	<path display="inline" fill="#EAD9B9" d="M362.6,94.6c3.7,0.6,7.4,1.3,11.1,1.7c-1.7,1.5-4.3-0.4-6.2,1.1c-1.7,0.1-5.1-0.7-5.4-2.5   C362.3,94.9,362.5,94.8,362.6,94.6z" />
	<path display="inline" fill="#1B1918" d="M401.2,120.7c-0.7,0.8-1.4,1.6-2.6,1.4c-0.1-1.3-1.2-2.2-1.9-3.3c0.6-0.3,1.1-0.7,1.7-1   c1.1,0,2.2,0,3.4,0c0-1,0.4-1.9,0.8-2.8c0,1.7-0.1,3.5-0.1,5.2c-0.3-0.3-0.6-0.6-1.1-1C401.3,119.9,401.3,120.3,401.2,120.7z" />
	<path display="inline" fill="#C5B194" d="M354.3,108.1c-0.8-1-1.1-3.6,0.7-3.5c0.6,1.1,1.7,1.2,2.8,1.4c0.3,0.6,0.8,0.7,1.4,0.6   c-0.4,0.4-0.7,0.8-1.1,1.2c1,0.7,2.3-0.3,3.1,0.8c-1.1,0.1-2.3,0.1-3.4,0.2c-1.2-0.6-1.2-0.6-1.5,0.6   C355.6,109,355,108.6,354.3,108.1z" />
	<path display="inline" fill="#B7A98D" d="M363.4,115c-0.4,2.8-11.8,1.3-9.7-2.6l0,0c1.3,0.8,2.4,1.9,4.1,1.9   c0.2-0.2,0.5-0.4,0.7-0.5c0.6,0,1.1-0.1,1.5,0.6c-0.4,0.4-0.8,0.8-1.3,1.3c1.2,0.2,2.1,0.5,2.8-0.4   C362,115.2,362.7,115.1,363.4,115z" />
	<path display="inline" fill="#635447" d="M365.5,102.5c-2.2-0.5-4.4-1-6.1-1.3c-1-1-1.7-1.6-2.3-2.2c0.4-1.3,1.6-1.4,2.8-1.5   c0.5,0.5,1,1,1.4,1.5c-0.5,0-1,0-1.4,0c-0.2-0.6-0.6-0.9-1.3-0.2c0.6,0.1,1,0.1,1.3,0.2c1.2,1.7,1.5,1.7,3,0.8c0.2,0,0.4,0,0.6,0.1   c0,0.1,0,0.3-0.1,0.4c0.6,0.7,1.3,1.1,2.1,1.5C365.5,102,365.5,102.2,365.5,102.5z" />
	<path display="inline" fill="#E5CEBD" d="M402.6,115c-0.2,0.5-0.4,1-0.7,1.5c-1.9-0.4-3.7-1.3-5.6,0c-0.2-0.3-0.5-0.5-0.7-0.8   c0-0.5,0-0.9,0.1-1.4l-0.1,0.1c2.4-0.1,4.6-1.2,7-0.6C402.6,114.2,402.6,114.6,402.6,115z" />
	<path display="inline" fill="#857866" d="M390.7,98.3c-0.9,0.9-1.8,0.3-2.8,0c-0.7-1-0.8-2.5-2.2-2.9c-0.9-0.4-1.4-1-1.3-2.1   c1,0.2,2,0.4,3.1,0.7c0.7,0.9,1,2.4,2.6,2.1c0.2,0.2,0.4,0.3,0.6,0.5c0,0.3,0,0.7-0.1,1c-0.2,0-0.5,0-0.7-0.1   c-0.1-0.2-0.1-0.4-0.3-0.4C390.1,97.6,390.4,98,390.7,98.3C390.8,98.3,390.7,98.3,390.7,98.3z" />
	<path display="inline" fill="#B1AF96" d="M387.5,94.1c-1-0.2-2-0.4-3.1-0.7c-0.7-0.9-0.8-0.9-1.5,0.1c-1.9-0.7-3.6-0.8-5.4-2.1   C380.9,91,385.2,91.4,387.5,94.1z" />
	<path display="inline" fill="#726556" d="M362.1,95c0.1,1.8,2.8,1.8,4.1,2.7c0.9,1,1,1,2,0.1c0.3,0.2,0.6,0.4,0.8,0.5   c-1,1.1-2.3,1.3-3.6,1.4c-1.1-1.5-2.9-2.2-4.6-2.8c-0.1-0.2-0.2-0.3-0.2-0.5C361.1,95.9,361.6,95.4,362.1,95z" />
	<path display="inline" fill="#D0C4A7" d="M369.7,93.5c-1.3,0.5-2.6,1.1-4.1,0.2c0-0.3,0-0.6-0.1-0.9c1.3-0.3,2.7-0.6,4-0.8   c0.8,0.3,1.9-0.2,2.3,0.9C371.2,93,370.5,93.3,369.7,93.5z" />
	<path display="inline" fill="#332D29" d="M402.6,113.8c-2.3-0.6-4.6,0.5-7,0.6c0-0.3,0.1-0.7,0.1-1.1c1.9-1,4-1.2,6.2-1.1   C402.1,112.8,402.3,113.3,402.6,113.8z" />
	<path display="inline" fill="#392F29" d="M379.5,91.1c-0.6,0.1-1.2,0.2-2,0.3c0.8,0.4,1.4,0.8,2.1,1.2c-1,0.5,0.1,0.8,0.7,0.8   c0,0.2,0,0.4,0,0.6c-1.2-0.1-2.5,0.5-3.5-0.6l-0.1-0.2c0.4,0,0.8,0,1.2,0c0-0.1,0-0.2,0-0.3c-0.4-0.1-0.8-0.1-1.2-0.2   c-0.2-0.2-0.5-0.4-0.7-0.6c0.1-0.4,0.2-0.9,0.3-1.4C377.5,90.6,378.5,90.1,379.5,91.1z" />
	<path display="inline" fill="#CBC2A6" d="M359.9,90.6c-0.2-0.3-0.3-0.6-0.5-0.9c2.9-1,3.5-0.8,5.2,2   C362.7,92.3,361.8,90.4,359.9,90.6L359.9,90.6z" />
	<path display="inline" fill="#AF9D84" d="M357.1,96.9c0.3-1.7-2-0.9-1.9-2.3c0.7-0.8,1.7-0.3,2.6-0.4l0,0c0.5,1,1.4,0.6,2.2,0.7   C359,95.5,358,96.2,357.1,96.9z" />
	<path display="inline" fill="#493B31" d="M354.3,108.1c1.3,0.7,2.5,1.6,3.5,2.8l0,0c-1.5,0.2-2.5-0.9-4.1-1.5c0,0.8,0,1.5,0,2.1   l-0.2,0.2C352.6,109.9,352.6,109.7,354.3,108.1z" />
	<path display="inline" fill="#A29A84" d="M376,92.1c0.2,0.2,0.5,0.4,0.7,0.6c0,0.2-0.1,0.5,0,0.7c-0.4-0.1-0.9-0.2-1.3-0.2   c-0.9-1-2.4-0.3-3.6-0.4c-0.4-1.2-1.5-0.7-2.3-0.9C371.5,90.8,373.9,92.1,376,92.1z" />
	<path display="inline" fill="#493B31" d="M357.7,114.3c-1.7,0.1-2.8-1.1-4.1-1.9c-0.1-0.2-0.1-0.5-0.2-0.7l0.2-0.2   c1.4,0.6,2.8,1.4,4.1,2.2C357.7,113.9,357.8,114.1,357.7,114.3z" />
	<path display="inline" fill="#AC9983" d="M357.8,94.1c-0.1-0.3-0.2-0.6-0.3-0.9c1.8-1.3,1.8-1.3,3.1-0.5   C359.9,93.6,358.8,93.7,357.8,94.1C357.8,94.1,357.8,94.1,357.8,94.1z" />
	<path display="inline" fill="#AF9D84" d="M352.2,100.4c0.3,0.7-0.2,1.6,0.7,2.1c0.1,1.2-0.4,2.1-1.3,2.9l0.1,0   C351.7,103.7,351.1,101.8,352.2,100.4z" />
	<path display="inline" fill="#4B4136" d="M357.8,106.1c-1-0.3-2.2-0.4-2.8-1.4c0-0.2,0-0.5,0-0.7c1.2,0.3,2.1,1.5,3.5,1.4l0,0.1   c0,0.2,0,0.4,0,0.6C358.2,106,358,106,357.8,106.1z" />
	<path display="inline" fill="#6B6859" d="M394.2,97.3c0,0.4,0,0.9,0,1.7c-0.9-0.6-1.5-1-2.1-1.4c0-0.3,0.1-0.5,0.1-0.8   C393.4,96.3,393.4,96.3,394.2,97.3z" />
	<path display="inline" fill="#E5D5B6" d="M357.8,94.1c0.7-0.3,1.5-0.5,2.2-0.8c0.9,0.6,0.9,0.7,0,1.5   C359.2,94.7,358.2,95.1,357.8,94.1z" />
	<path display="inline" fill="#AF9D84" d="M354.4,99.1c0.2-2,0.4-2.1,2.7-2.2C356.2,97.6,355.3,98.4,354.4,99.1z" />
	<path display="inline" fill="#F6D9C7" d="M392.3,96.8c0,0.3-0.1,0.5-0.1,0.8l0.1,0c-0.7-0.4-1.4-0.8-2-1.4c0-0.4,0-0.8,0-1.9   C391.1,95.5,391.7,96.2,392.3,96.8z" />
	<path display="inline" fill="#B3A99D" d="M401.2,120.7c0.1-0.4,0.1-0.8,0.2-1.4c0.5,0.4,0.8,0.7,1.1,1c0.1,0.6,0.3,1.3,0,1.9   C402.1,121.7,401.7,121.2,401.2,120.7z" />
	<path display="inline" fill="#AF9D84" d="M352.2,98.3c0.9,1.1,0.9,1.1-0.1,2.1C352.2,99.7,352.2,99,352.2,98.3z" />
	<path display="inline" fill="#AF9D84" d="M353.6,93.4c0,0.8,0.3,1.6-0.8,2C352.8,94.7,352.8,93.9,353.6,93.4z" />
	<path display="inline" fill="#AF9D84" d="M352.8,95.5c0.1,0.8,0.3,1.6-0.6,2.1C352.1,96.8,352.1,96,352.8,95.5z" />
	<path display="inline" fill="#4B4136" d="M354.8,102.5c0,0.5,0.1,1,0.1,1.4C354.1,103.5,354.1,103,354.8,102.5z" />
	<path display="inline" fill="#CBC2A6" d="M360.1,91.2c-0.7,0.1-1.3,0.2-1.6-0.6c0.5,0,1,0.1,1.4,0.1c0,0-0.1-0.1-0.1-0.1   C359.9,90.8,360,91,360.1,91.2z" />
	<path display="inline" fill="#AF9D84" d="M353.5,101c0-0.6,0.1-1.1,0.7-1.3C354.3,100.3,354.1,100.8,353.5,101z" />
	<path display="inline" fill="#AF9D84" d="M353,102c0.2-0.3,0.3-0.6,0.5-0.9C353.3,101.4,353.2,101.7,353,102z" />
	<path display="inline" fill="#AF9D84" d="M354.2,92.6c-0.2,0.3-0.4,0.6-0.6,0.8C353.8,93.1,354,92.9,354.2,92.6z" />
	<path display="inline" fill="#493B31" d="M353.7,112.4c0,0.2,0,0.5-0.2,0.6c-0.1-0.1-0.2-0.3-0.4-0.4   C353.3,112.5,353.5,112.5,353.7,112.4z" />
	<path display="inline" fill="#332D29" d="M401.9,112.3c0-0.2,0-0.4,0.1-0.6c0.1,0.1,0.3,0.3,0.4,0.4   C402.2,112.1,402,112.2,401.9,112.3z" />
	<path display="inline" fill="#C2C2A6" d="M360.5,96.3c0.1,0.2,0.1,0.3,0.2,0.5c-0.3,0.1-0.6,0.1-0.8,0.2l-0.1-0.1   C360.1,96.6,360.3,96.5,360.5,96.3z" />
	<path display="inline" fill="#C2C2A6" d="M359.9,97.5c-0.2,0-0.4,0-0.6,0.1c0.2-0.3,0.3-0.5,0.5-0.8c0,0,0.1,0.1,0.1,0.1   C359.9,97.1,359.9,97.3,359.9,97.5z" />
	<path display="inline" fill="#F7EFD0" d="M315,566.3c6.6-4.1,7.7-10.9,17.4-13.1c2.3,0.1,2.8,2.9,5.1,2.7c0.7,1.4,1.4,2.8,2.1,4.1   c-3.8,16.7,13.9,21.8,9.2,33.7c-0.4-0.1-0.8-0.2-1.3-0.3c0.8-1.2,0.4-2.2-0.2-3.2l0,0c0.7-0.3,0.5-0.5-0.1-0.7   c-4.4-3-9.1-0.7-13.2,1.4c-5.3-0.1-10.2,0.3-15.5-0.3c-1.1-2-1.5-4.1-3.4-5.4C315,578.9,315,572.6,315,566.3z M329.8,578.2   c-0.3,0.6-0.5,1.1-0.9,1.9c2.3,0.8,8.5-1.2,8.9-3.2c-1.8-0.1-3.6,0.4-5.2-0.6c1.5-0.5,2.9-0.8,4.1-1.9c-1.8-1.9-4.2,0.2-5.6-1.7   c2.4-0.8,4.7-1.6,7.3-2.5c-2.6-3.3-14.9,0.8-13,5.3c3,0.1-0.1,2.9,3.6,2.1C329.3,577.8,329.5,578,329.8,578.2z M326.8,564.8   c3.2-2.7,7.2-2.4,11.2-2.9c-4.4-4.6-13.7-0.9-15.7,4.9c0.3,0,0.7,0.1,1,0.1c0.3,0.3,0.6,0.6,0.9,0.9c-0.4,0.9-1.6,1.4-1.3,2.7   c4.9-0.7,9.8-4,14.7-5.4c-2.6-2.6-7-0.2-10,0.5c-0.4-0.2-0.9-0.4-1.3-0.6C326.4,564.9,326.6,564.8,326.8,564.8z" />
	<path display="inline" fill="#050404" d="M320.8,111.8c0,1.1-0.1,2.2-0.1,3.3c-0.2,0-0.5,0-0.7,0c0-2.8,0.1-5.6,0.1-8.4   C321,108.3,320.6,110.1,320.8,111.8z" />
	<path display="inline" fill="#AF9F94" d="M321.3,131.3c0.3,0,0.5,0,0.8,0c0,1.2,0,2.3,0,3.5c-0.2,0-0.5,0-0.6,0   C321.4,133.6,321.3,132.4,321.3,131.3z" />
	<path display="inline" fill="#252120" d="M324.2,183.6c0.1,0.3,0.3,0.6,0.4,0.9C324.5,184.2,324.4,183.9,324.2,183.6z" />
	<path display="inline" fill="#3B2420" d="M391.5,312.6c9.1-0.7,18.2-1.8,27.3-2.6c0.5,1,1.5,0.4,2.2,0.7c-7.9,1.1-16,2.5-24.1,3   c-0.3,1.1-0.5,2.1-1,3.7c-0.3-1.7-0.5-2.6-0.8-3.8c-1.3-0.1-2.5-0.2-3.8-0.3C391.4,313.1,391.4,312.9,391.5,312.6z" />
	<path display="inline" fill="#5E544D" d="M416.1,262.3c-0.1-0.4-0.3-0.9-0.4-1.3c-0.3,0.1-0.7,0.2-1.2,0.4c-0.7-2.2-1.3-4.3-2-6.3   c2.5-1.2,1.8,4.6,4,5C416.7,260.9,416.9,261.7,416.1,262.3z" />
	<path display="inline" fill="#EADCB7" d="M347.3,590.2c0.6,1,1,2,0.2,3.2c0.5,0.1,0.9,0.2,1.3,0.3c-8,4.6-29.9,7.9-33.4-3.4   c-1.5,0.5-0.5,1.6-0.8,2.5c-1.9,0.2-3.8-0.5-5.8-0.8c0.7-2.5,0.9-4.8,1.8-6.9c3.7-4.7,1.3-11,1.8-16.5c1.5-2.7-0.8-6.7,3.3-8   c0.1,0,0.1-0.4,0.1-0.6c0.3,0,0.5-0.1,0.8-0.1c0,1,0.3,2,0.6,2.9c-0.4,0.4-0.8,0.8-1.3,1.4c-0.4-0.3-0.7-0.6-1.1-0.9   c-2,0.1-0.2,2.2,0.3,3c0,6.3,0,12.6,0,18.9c1.9,1.3,2.3,3.4,3.4,5.4c5.3,0.6,10.3,0.1,15.5,0.3c-0.6,1.4-2.6,1.9-2,3.8   c3.9-3,7.7-5.8,13.1-5.1C345.7,590.1,346.4,590.4,347.3,590.2z" />
	<path display="inline" fill="#352E2A" d="M317.1,562.8c-0.8-2.1-0.7-4.5,0.7-6.3c0.2,1.4-0.4,3.2,0.7,4.2   C318.1,561.4,317.6,562.1,317.1,562.8z" />
	<path display="inline" fill="#6E382D" d="M379,361.9c0.2-1.5,1.3-0.4,2,0.1C380.3,363.1,379.6,361.9,379,361.9z" />
	<path display="inline" fill="#CEB89A" d="M353.7,141c-0.3-7.1-2.6-14.3-0.6-21.3c0.9,0.7,0.7,2.1,2,2.3c0.4,3.3-2.1,6,1.3,8.9   c0.9,2.4,1.6,5.9,0.2,8.1c-1-2.4-1.2-4.1-1.8-7.1c-1.6,4.5,1.6,7.6,0.7,11.9C354.8,142.7,354.2,141.9,353.7,141z" />
	<path display="inline" fill="#302621" d="M356.3,130.8c-3.4-2.8-0.8-6.1-1.2-9.5c1,1.2,2,0,3.3,0c0.6,0.4,1.3,0.8,1.9,1.2   c2.1-0.5,4.2-0.7,6.3-0.9c1.1,1.4-1.7,1.8-2.4,2.3c0.7,0.7,1.4,1.5,2.1,2.2c-0.1,1-0.7,0.8-1.3,0.8c-1-0.8-2.2-0.8-3.3-0.4   c0.5,0.8,0.2,1.7,0.3,2.6c-0.4,0-0.7,0-1.1,0c0.1-0.4,0.1-0.8,0.2-1.2c-1.1-0.2-1.4,0.6-1.8,1.2l0,0c-0.2,0-0.4-0.1-0.6-0.1   c-0.7-1.3,0.9-2,0.4-3.3c-1.7,0.1-0.8,2.2-2.6,2c0.4-1.4,0.5-2.9,1.5-4c2.3,0.6,3,2.4,5.7,1.2c-1.4,0-2.1,0-2.9,0   c-2.5-4.5-5.9-0.2-4.2,2.8C356.7,128.8,356.6,129.8,356.3,130.8z" />
	<path display="inline" fill="#AF9B82" d="M353.7,141c0.6,0.8,1.1,1.6,1.8,2.7c0.1-0.5,0.2-0.9,0.3-1.3c0.7,1.5,1.6,2.9,1.2,4.5   c-0.4,0.1-0.7,0.1-1,0.2c-0.1,1.9,1,4.2-0.3,5.8C355,149,354,145.1,353.7,141z" />
	<path display="inline" fill="#C4B496" d="M358.3,121.3c-1.2,0-2.3,1.2-3.3,0c0-0.6,0-1.1,0-1.9c2.9-0.5,5.8,0.6,8.4-0.9   c0.7,0.2,1.7-0.2,2.1,0.8C363.3,120.7,360.7,120.5,358.3,121.3z" />
	<path display="inline" fill="#827865" d="M357.7,117.3c2.7,0.8,8-2.4,9.1-0.9c-3.3,1.6-6.8,2.3-10.4,2.2   C356.8,118.2,357.3,117.7,357.7,117.3z" />
	<path display="inline" fill="#C3B193" d="M357.7,117.3c-0.4,0.4-0.9,0.8-1.3,1.3c-1.8,0.2-1.8,0.2-2.1-1.4   C355.3,116.4,356.5,117.3,357.7,117.3z" />
	<path display="inline" fill="#272D25" d="M358.5,118.6c0.5,0,0.9,0,1.4,0l0,0c0.1,0.2,0,0.4,0,0.6c-0.4,0-0.9,0-1.3,0   C358.5,119,358.5,118.8,358.5,118.6z" />
	<path display="inline" fill="#C9B2A3" d="M476.2,373c-1.1-2.2-0.4-5.3,1.3-7c1,1.2,0.6,2.8,0.9,4.2c-0.4,0.9-0.7,1.9-1.1,2.8   C476.9,373,476.6,373,476.2,373z" />
	<path display="inline" fill="#332A27" d="M478.4,370.2c0-2.7-1.2-4.8-2.2-7.4c0.6-0.1,1-0.2,1.4-0.3c1.1,3,2.8,6.3,1.5,9.4   C478.9,371.3,478.7,370.7,478.4,370.2z" />
	<path display="inline" fill="#A19A8D" d="M477.7,362.5c-0.4,0.1-0.8,0.2-1.4,0.3c0.5,1.2,0.9,2.2,1.3,3.3c-0.4,0.4-0.8,0.9-1.2,1.3   c-0.1-1.8-1.4-3.4-0.5-5.6c1,0,2.1,0,3.2,0C478.8,362.5,478.3,362.5,477.7,362.5z" />
	<path display="inline" fill="#B8A489" d="M356.5,138.9c0.9-0.5,0.4-1.5,0.7-2.2c0.2,0.1,0.4,0.2,0.5,0.3c0.5,3.4,1,6.8,1.6,10.2   c-0.3,0.7,0.2,1.7-0.7,2.2C357.8,145.9,357.2,142.4,356.5,138.9z" />
	<path display="inline" fill="#494136" d="M356.5,138.9c0.4,2.1,0.8,4.2,1.2,6.3c-0.2,0-0.4,0-0.6,0c-1.8-4.3-3.4-8.5-2.4-13.4   C355.4,134.8,355.5,136.5,356.5,138.9z" />
	<path display="inline" fill="#100C0B" d="M391.3,371.9c-0.6-0.2-1.3-0.3-2.4-0.6c10.7-3.4,22.1-4.3,33.2-6.8c0.5,0.2,1,0.5,1.5,0.7   C413.2,368.6,402.3,370.8,391.3,371.9z" />
	<path display="inline" fill="#1A100E" d="M391.5,312.6c-0.1,0.2-0.1,0.5-0.1,0.7c-13.1,0.7-26.4,1.9-39.2-1.4   c-0.6-1.1-1.8-0.3-2.8-0.7c0.8-1.1,2.4-0.6,3.5-0.5c3.5,1.4,8,0.7,11.9,1.2c0,0,0,0.2,0,0.2C373.4,313.6,382.7,312.2,391.5,312.6   L391.5,312.6z" />
	<path display="inline" fill="#F08B6B" d="M417.1,343.2c-4.2,4-10.4,6.3-16.1,6.6C398.8,345.4,414.2,343.2,417.1,343.2z" />
	<path display="inline" fill="#F18C6B" d="M415.1,337.9c3-1.6,10.7-5.9,12.5-3.1c-0.4,1.1-1.5,1.1-2.4,1.2   C422.1,336.6,419.1,338,415.1,337.9z" />
	<path display="inline" fill="#2E1E18" d="M389.1,341.9c0.3,4.6,0.2,10.9-2.9,14.2C386,351.6,387.8,346.5,389.1,341.9z" />
	<path display="inline" fill="#915442" d="M408.2,354c-3.3,0.1-7.6,2.5-10.4,0.8c4.2-0.9,8.5-1.9,13.4-2.9   C409.9,353.2,409.7,353.4,408.2,354z" />
	<path display="inline" fill="#6E4034" d="M365.1,348.7c3.2,0.5,6.7,1.4,9.2,3.5C370.9,351.7,367.9,350.5,365.1,348.7z" />
	<path display="inline" fill="#814B3D" d="M375.6,357.3c-2.5-0.1-6.1-1.2-9.2-3.1c2.5-0.5,4.4,0.9,6.4,1.5   C373.8,355.9,375.2,355.8,375.6,357.3z" />
	<path display="inline" fill="#3D2720" d="M390.5,329.5c-1.4-1.9-0.9-3.2,0-5.1C391.1,326.3,390.8,327.7,390.5,329.5z" />
	<path display="inline" fill="#7F584A" d="M390.6,334.2c0,1.5,0,2.4,0,3.8C389.8,336.6,389.8,335.8,390.6,334.2z" />
	<path display="inline" fill="#B55E4B" d="M424,318.5c0.5,0,0.9-0.1,1.4-0.1c0,0.1,0,0.3,0,0.4c-0.5,0-0.9,0.1-1.4,0.1   C424,318.7,424,318.6,424,318.5z" />
	<path display="inline" fill="#694739" d="M396.1,319.9c0.2,0.4,0.3,0.7-0.2,0.9C395.7,320.4,395.6,320.2,396.1,319.9z" />
	<path display="inline" fill="#E0C6B5" d="M370.4,293.1c5.1,4.6,7,12.2,8.4,18.8c-1.9,0-3.8,0-5.6,0c-1-3.3-3-6.4-2.7-9.9   c1,0.7,0.7,2.4,2.6,2.9C371.7,300.9,370.1,297.4,370.4,293.1z M372.9,306.8c-0.1,1.5-0.1,1.5,1.6,1.4   C373.9,307.7,373.4,307.3,372.9,306.8z" />
	<path display="inline" fill="#E1C6B6" d="M395,290.3c0.3-4.8,0.1-9.2,2.3-13.8c2.5,3.9-0.2,7.9,2.5,11.7   C398,288.5,396.5,289.6,395,290.3z" />
	<path display="inline" fill="#3B2420" d="M373.2,311.9c6.1,0.2,12.3-0.5,18.3,0.7c-8.8-0.4-18.1,1-26.7-0.6   C367.6,312,370.4,312,373.2,311.9z" />
	<path display="inline" fill="#4F4540" d="M370.4,293.1c-0.3,4.3,1.3,7.8,2.7,11.8c-1.9-0.5-1.6-2.2-2.6-2.9   c-0.8-3.5-2.1-6.9-1.5-10.6C370.3,291.3,370.1,292.4,370.4,293.1z" />
	<path display="inline" fill="#191412" d="M395,290.3c1.6-0.8,3.1-1.8,4.8-2.1c0.5,1.7-0.8,2.6-2.1,3.3l0,0c-0.6,0.3-1.2,0.7-1.9,1   c0.3,0.5,0.8,0.9,1.2,1.2c0,0.4-0.1,0.9-0.1,1.3C394.3,295.1,393,292.2,395,290.3z" />
	<path display="inline" fill="#39322E" d="M417.4,290.3c0.3,3.3-0.1,5.4-1.9,9.3c-1.4-2.8,0.9-6.2,1.1-9.3   C416.9,290.3,417.1,290.3,417.4,290.3z" />
	<path display="inline" fill="#433B37" d="M417.4,290.3c-0.3,0-0.5,0-0.8,0c-0.7-3.6-0.9-7.2-0.5-11   C417.7,282.2,416.7,286.8,417.4,290.3z" />
	<path display="inline" fill="#4D3F3A" d="M386.2,249.7c-1.7,1.5-3.9,2.5-5.2,4.7C380.5,251.9,383.8,249.1,386.2,249.7z" />
	<path display="inline" fill="#836D65" d="M386.2,249.7c-0.4-0.1-0.8-0.1-1.2-0.2c1.8-0.7,3.2-3.2,5.2-2.1   C388.9,248.6,387.6,249.2,386.2,249.7z" />
	<path display="inline" fill="#6C625B" d="M413.5,304.5c-0.5-1.2-0.6-2.3,0.8-3C415.1,302.9,414,303.7,413.5,304.5z" />
	<path display="inline" fill="#5B504A" d="M411.4,307.8c0.2-1,0.4-1.5,1.3-1.4C412.8,307.3,412.6,307.8,411.4,307.8z" />
	<path display="inline" fill="#554A44" d="M368.9,281.6c0,0.7,0,1.4,0,2.5C368,283,368.3,282.3,368.9,281.6z" />
	<path display="inline" fill="#B7AB9D" d="M396.9,295.1c0-0.4,0.1-0.9,0.1-1.3c0.2-0.1,0.4-0.1,0.7,0c0.2,0.8,0.8,0.7,1.4,0.7   C398.7,295.6,397.7,295.2,396.9,295.1z" />
	<path display="inline" fill="#54413C" d="M410.7,252.4c0.4,0.6,0.8,1.1,1.2,1.7C410.3,254.1,410.2,254,410.7,252.4z" />
	<path display="inline" fill="#704944" d="M399.1,294.4c-0.6,0-1.2,0.1-1.4-0.7c0.2-0.1,0.5-0.1,0.8-0.1   C398.7,293.9,398.9,294.2,399.1,294.4z" />
	<path display="inline" fill="#B7AB9D" d="M396.3,292.3c0.5-0.3,0.9-0.5,1.4-0.8C397.5,292.4,397,292.4,396.3,292.3z" />
	<path display="inline" fill="#B7AB9D" d="M395,294.5c0.5,0.2,1,0.4,1.5,0.7C395.8,295.3,395.2,295.2,395,294.5z" />
	<path display="inline" fill="#B7AB9D" d="M398.5,293.7c-0.2,0-0.5,0.1-0.7,0.1C397.9,293.2,398.2,293.1,398.5,293.7z" />
	<path display="inline" fill="#B7AB9D" d="M397,293.8c-0.3-0.2-0.5-0.4-0.8-0.6C396.5,293.4,396.8,293.6,397,293.8z" />
	<path display="inline" fill="#B7AB9D" d="M396.2,293.2c-0.1-0.2-0.3-0.4-0.4-0.6c0.2-0.1,0.3-0.2,0.5-0.2   C396.3,292.6,396.3,292.9,396.2,293.2z" />
	<path display="inline" fill="#B7AB9D" d="M397.7,291.6c0.3-0.2,0.5-0.3,0.8-0.5C398.2,291.2,397.9,291.4,397.7,291.6z" />
	<path display="inline" fill="#3E3733" d="M343.8,188.6c2.2,3.1,3.3,7.8,1.8,11.4c-2-3.4-0.7-7.2-2.6-10.6   C343.3,189.2,343.5,188.9,343.8,188.6z" />
	<path display="inline" fill="#151215" d="M329.7,14.2c1.6,0.2,4.1-0.7,4.9,1.3c-3.5,0.7-7.2-0.4-10.3,1.6c-0.2-0.1-0.3-0.3-0.7-0.5   C324.8,14.4,327.6,14.8,329.7,14.2z" />
	<path display="inline" fill="#1C1412" d="M343.8,188.6c-0.3,0.3-0.6,0.6-0.9,0.8c-1.8-1.3-3.3-2.9-4.8-4.7c0.2-0.4,0.4-0.7,0.8-1.3   C340.9,185.2,342.6,186.6,343.8,188.6z" />
	<path display="inline" fill="#18100F" d="M324.2,100.4c0.3-2.3,2.3-3.7,4.8-4.2c0,0.6,0,1,0,1.4C327.8,98.9,326.2,101,324.2,100.4z   " />
	<path display="inline" fill="#050404" d="M332,29.8c0.2-0.7,0.4-1.4,0.7-2.4c0.4,0.4,0.8,0.6,1.1,0.9c-0.2,2.1-0.4,4.2-0.7,6.7   C331.6,33.3,332.3,31.5,332,29.8z" />
	<path display="inline" fill="#7E6C64" d="M329.7,92c-1.3-0.6-0.4-1.9,0-2.7C331.2,89.7,330.4,91.2,329.7,92z" />
	<path display="inline" fill="#4F4945" d="M332.5,37.2c0,0.9,0,1.7,0,3.1C331.5,39,331.7,38.1,332.5,37.2z" />
	<path display="inline" fill="#393936" d="M331.1,45.4c0.1-0.7,0.1-1.3,0.2-2c0.2,0,0.3,0,0.5,0c0,0.7,0,1.3,0,2   C331.6,45.4,331.3,45.4,331.1,45.4z" />
	<path display="inline" fill="#261E1C" d="M346.5,208.7c-0.1,0.1-0.3,0.2-0.4,0.3c-0.2-0.4-0.2-0.6,0.2-0.8   C346.4,208.3,346.5,208.5,346.5,208.7z" />
	<path display="inline" fill="#2D2623" d="M344.9,202.7c0.4,0.6,0.6,0.8,0,1.5C344.5,203.5,344.3,203.3,344.9,202.7z" />
	<path display="inline" fill="#EBDA8F" d="M353.5,213.9c-0.2,0.3-0.3,0.5-0.5,0.8C353.1,214.5,353.3,214.2,353.5,213.9z" />
	<path display="inline" fill="#2D251A" d="M375.5,232.1c0-1.1,0.7-0.6,1.2-0.6c5.4,1.6,12.5,1.2,17.4-2.3c0.3,0.3,0.5,0.5,0.8,0.8   C389.5,234.7,381.7,235.5,375.5,232.1z" />
	<path display="inline" fill="#443D2B" d="M395,230c-0.3-0.3-0.5-0.5-0.8-0.8c1.3-1.3,2.6-2.7,3.8-4c0,0,0.2-0.1,0.2-0.1   c0.2,0.4,0.3,0.9,0.5,1.3C397.4,227.7,396.2,228.9,395,230z" />
	<path display="inline" fill="#94865A" d="M405.3,229.3c0.6-1.6,2.4,0.3,0.8,0.8C405.9,229.9,405.6,229.6,405.3,229.3z" />
	<path display="inline" fill="#97815F" d="M398.5,221.6c-0.7-1.4-1-1.3,0-1.9C399.2,220.4,399,220.6,398.5,221.6z" />
	<path display="inline" fill="#EBDA8F" d="M398.7,226.5c-0.2-0.4-0.3-0.9-0.5-1.3C399.3,225.5,399.3,225.6,398.7,226.5z" />
	<path display="inline" fill="#4D3C2A" d="M375.5,232.1c0.2,0.2,0.3,0.3,0.5,0.5c-0.2,0.1-0.5,0.1-0.6,0   C375.4,232.5,375.4,232.3,375.5,232.1z" />
	<path display="inline" fill="#6E3E30" d="M337.3,329.1c3.9-0.6,7.1,0.9,10.8,3.1C344.2,331.3,340.3,331.5,337.3,329.1z" />
	<path display="inline" fill="#593529" d="M342,334.1c-2.8,0-6.1,0.3-8.1-1.7C337,332.2,339.5,332.9,342,334.1z" />
	<path display="inline" fill="#7C4737" d="M339.6,314.1c0.3-1.4,0.5-2.9,1.7-4.1c0.4,2,0.3,2.6-0.9,5.5   C340.2,315.1,340.4,314.3,339.6,314.1z" />
	<path display="inline" fill="#43261E" d="M339.6,314.1c0.8,0.2,0.6,0.9,0.8,1.5c-0.3,1-0.6,2-0.8,3   C337.3,318.3,339.6,315.5,339.6,314.1z" />
	<path display="inline" fill="#392B27" d="M326.7,354.8c0.1-1.3,0.1-2.6,0.2-3.9c0.4,0.3,0.7,0.5,1.2,0.8c-0.2,1.4-0.4,2.8-0.6,4.2   C326.7,355.7,326.9,355.1,326.7,354.8z" />
	<path display="inline" fill="#2E1714" d="M350.5,311.4c0.6-0.1,1.3-0.3,1.6,0.5C351.6,311.8,351.1,311.6,350.5,311.4z" />
	<path display="inline" fill="#322824" d="M360.7,248.2c1.6,1.3,2.8,2.4,3.6,3.9C362.1,252.2,360.8,250.9,360.7,248.2z" />
	<path display="inline" fill="#423430" d="M362.5,259.8c-2.3,0.8-3.1-0.3-4.2-1.5C360.3,257.6,360.9,259.1,362.5,259.8z" />
	<path display="inline" fill="#49332F" d="M364.4,261.7c-0.5-0.3-1-0.5-1.6-0.9C363.9,259.9,364.3,260.6,364.4,261.7z" />
	<path display="inline" fill="#2E1714" d="M355.8,311.2c-1-0.1-2.1,0.5-2.9-0.6C353.9,310.6,354.9,310.6,355.8,311.2z" />
	<path display="inline" fill="#A99185" d="M366.6,253.4c-0.3,0.3-0.5,0.4-0.8,0C366,253.1,366.3,253.3,366.6,253.4z" />
	<path display="inline" fill="#8D7B71" d="M369,255.9c0.5-0.6,0.5-0.8,1.3-0.2C369.8,255.8,369.4,255.9,369,255.9L369,255.9z" />
	<path display="inline" fill="#463826" d="M368.5,227.9c2.5,0,3.9,1.4,5.5,2.6C371.5,230.4,371.3,230.3,368.5,227.9z" />
	<path display="inline" fill="#BBAB70" d="M362,223.8c-0.6-0.7-0.7-1,0.1-1.3C362.8,222.8,362.4,223.3,362,223.8z" />
	<path display="inline" fill="#4D3C2A" d="M378.4,232c-0.6,0.1-1.3,0.3-1.7-0.5C377.3,231.7,377.8,231.8,378.4,232z" />
	<path display="inline" fill="#312B28" d="M322,134.8c0-1.2,0-2.3,0-3.5c0.3,0,0.6,0.1,1.1,0.1c0.5,1.9,0.5,3.8,0.4,5.9   C322.3,136.7,322.6,135.4,322,134.8z" />
	<path display="inline" fill="#938277" d="M335.9,195.6c1.1,0.7,0.7,1.6-0.4,1C335.6,196.3,335.7,196,335.9,195.6z" />
	<path display="inline" fill="#8A7A70" d="M324.3,144c1.2,0.3,1.2,0.3,0.9,2C324.9,145.2,324.6,144.7,324.3,144z" />
	<path display="inline" fill="#514842" d="M326.3,151.5c0-0.6,0-1.2,0.1-2.1C327.3,150.4,327.3,151,326.3,151.5L326.3,151.5z" />
	<path display="inline" fill="#978479" d="M455.4,325.3c-0.1-0.6-0.2-1.1-0.3-1.7C456.7,323.5,456.9,325,455.4,325.3z" />
	<path display="inline" fill="#997D73" d="M453.9,320.1c-0.2-0.5-0.4-0.9-0.6-1.4c0.3-0.1,0.6-0.1,0.9-0.2c0.1,0.5,0.1,0.9,0.2,1.4   C454.2,320.1,454,320.1,453.9,320.1z" />
	<path display="inline" fill="#DFC6B5" d="M429.9,447.2c1.6,3,6.4,12.4,1.6,13.9c-4.9-2.6-10.2-12.5-2.9-13.2c0.3,2.5-1,5.5,1.3,7.3   C430.2,452.5,430.1,449.9,429.9,447.2z" />
	<path display="inline" fill="#2C2623" d="M429.9,447.2c0.1,2.6,0.3,5.3,0,8c-2.4-1.8-1-4.9-1.3-7.3   C429,447.7,429.5,447.5,429.9,447.2z" />
	<path display="inline" fill="#463D39" d="M431.5,494.6c-0.9-1-1.1-1.6-0.6-2.4C432.1,492.5,432.1,492.5,431.5,494.6z" />
	<path display="inline" fill="#9D877D" d="M428.5,525.6c-1.1,0.2-1.4-0.5-1.4-1.3c0.2-0.2,0.5-0.4,0.7-0.7c0.2,0.5,0.5,1,0.7,1.4   C428.5,525.2,428.5,525.4,428.5,525.6z" />
	<path display="inline" fill="#5D443F" d="M430.7,487.2c-0.1,0.2-0.3,0.4-0.5,0.6c-0.2-0.2-0.4-0.4-0.6-0.5c0.2-0.2,0.4-0.4,0.6-0.6   C430.4,486.8,430.5,487,430.7,487.2z" />
	<path display="inline" fill="#E1C7B6" d="M428.5,525c-0.2-0.5-0.5-1-0.7-1.4C428.6,523.8,428.6,524.4,428.5,525z" />
	<path display="inline" fill="#2D2623" d="M423.8,467.6c3.3,2.7,4.6,7.4,5.9,11.3c-2.8-0.1-4.7-8.3-6.5-10.8   C423.4,467.9,423.6,467.7,423.8,467.6z" />
	<path display="inline" fill="#817167" d="M427.1,529.7c1,2,1,2-0.2,2.8C426.3,531.7,426.3,530.9,427.1,529.7z" />
	<path display="inline" fill="#968378" d="M427.5,536.3c0.1,0.6,0.2,1.1,0.2,1.8C426.6,537.7,426.3,537.2,427.5,536.3z" />
	<path display="inline" fill="#5A504A" d="M429.3,482.9C429.1,479.8,432.2,483.3,429.3,482.9L429.3,482.9z" />
	<path display="inline" fill="#1B110F" d="M471.3,579.5c0,0.4,0,0.9,0,1.6c-4.1-1.7-7.7-0.2-11.2,2.1c-0.3-0.3-0.6-0.6-0.9-0.9   C462.6,578.2,466.7,578.6,471.3,579.5z" />
	<path display="inline" fill="#18110F" d="M447.1,568.5c1.1-3.5,5-3.1,8.1-2.7C454.1,568.5,449.9,568.4,447.1,568.5z" />
	<path display="inline" fill="#181815" d="M451.3,569.9c1.5-2,5.3-2.8,6.4-0.3C455.5,569.9,453.8,570.8,451.3,569.9z" />
	<path display="inline" fill="#606959" d="M459.2,582.3c0.3,0.3,0.6,0.6,0.9,0.9c-0.3,0.3-0.6,0.7-1.1,1.3c-0.3-0.6-0.4-1-0.6-1.4   C458.8,582.9,459,582.6,459.2,582.3z" />
	<path display="inline" fill="#161310" d="M375.5,93.3c0.4,0.1,0.9,0.2,1.3,0.2c1,1.1,2.3,0.5,3.5,0.6c0,0,0,0,0,0   c0.3,0.2,0.6,0.4,0.9,0.6c1.5,0,2.6,1,3.9,1.7c0.4,1.3-0.8,1.1-1.4,1.8c-3.9,0-7.1-3.2-11.1-3.5c0.3-0.6,0.5-1.2,0-1.8   c0.4,0,0.9,0,1.3-0.1C374.3,93.5,374.9,93.4,375.5,93.3z" />
	<path display="inline" fill="#D7B5A5" d="M401.3,139c-0.2,0.9,0.5,2-0.7,2.7c-2-1.4-5.1,0.5-7.5,0.2c-0.1,0.5-0.1,0.8-0.2,1.2   c-0.9-0.9-1.9-1.8-2.8-2.8C393.8,139.7,397.4,138.5,401.3,139z" />
	<path display="inline" fill="#2A201D" d="M401.3,139c-3.8-0.5-7.5,0.6-11.2,1.3c-0.7-0.3-1.4-0.5-2.6-1c0.9-0.5,1.3-1,1.7-1   c4.2,0.1,8-2.8,12.2-0.4C401.3,138.4,401.3,138.7,401.3,139z" />
	<path display="inline" fill="#2B2423" d="M387.8,118.7c0.2,0.6,0.4,1.2,0.7,2.1c-0.5,0-1,0-1.4,0c-0.1-0.2-0.3-0.4-0.4-0.6   c-0.1,0.1-0.1,0.2-0.2,0.2c0.2,0.1,0.4,0.2,0.6,0.3c-0.3,2.3-4,3.2-4.8,0.8c-0.2-0.5,0-1.2-0.8-1.3c0-0.2,0-0.5,0.1-0.7   C383.6,118.6,385.8,118.3,387.8,118.7z" />
	<path display="inline" fill="#8F8D76" d="M361.3,108.6c-0.8-1.1-2.1-0.1-3.1-0.8c0.4-0.4,0.7-0.8,1.1-1.2c0,0,0,0,0,0   c0.5,0,1,0.1,1.5,0.1c1.2,0.9,2.3,0.9,3.4-0.1l0,0c0.7-0.1,1.6,0.2,2.1-0.6c1.4-0.1,2.8-0.1,4.2-0.2c-0.6,0.8-1.9,1.4-2.8,2.1   C366.1,106.2,363.1,109.4,361.3,108.6z" />
	<path display="inline" fill="#3D332F" d="M392.9,143.1c0.1-0.3,0.1-0.7,0.2-1.2c2.4,0.3,5.5-1.6,7.5-0.2   C398.3,143.8,395.7,144.3,392.9,143.1z" />
	<path display="inline" fill="#3A2F27" d="M358.3,121.3c3.3-0.6,6.2-1.5,9.3-2.7c-1.2,2.9-4.8,3.1-7.4,3.9   C359.6,122.1,358.9,121.7,358.3,121.3z" />
	<path display="inline" fill="#CBB9AA" d="M395.6,115.8c1.3,2,2.1,1.2,4.4,0.5c-1.5,1.4-1.9,1.7-3.4,2.5c0.7,1.1,1.8,1.9,1.9,3.3   c-1.1-0.5-1.6-1.9-2.8-2.1l-0.3,0.2c-0.3-0.8-0.5-1.6-0.8-2.4C395,117.1,395.3,116.4,395.6,115.8z" />
	<path display="inline" fill="#302721" d="M365.4,99.6c1.3-0.1,2.7-0.3,3.6-1.4c1.2-0.1,2.3,0,3.5,0.1c0,0.2,0,0.4,0,0.6   c-0.4,0-0.9,0.1-1.3,0.1c-0.7,0.7-1.4,1.3-2.2,1.9c-1.9-0.3-3.7-0.5-5.6-0.8c0.1-0.1,0.1-0.2,0.1-0.4   C364.1,99.8,364.7,99.7,365.4,99.6z" />
	<path display="inline" fill="#4B4037" d="M357.7,137c-0.2-0.1-0.4-0.2-0.5-0.3c-0.1-2,0.1-4-0.9-5.9c0.1-0.4,0.2-0.8,0.3-1.2   c0.2,0.1,0.4,0.2,0.6,0.2c0.6,1.6,1.9,2.8,2.8,4.2c-0.2,0.3-0.5,0.5-0.7,0.8C358,135,358.7,136.4,357.7,137z" />
	<path display="inline" fill="#382623" d="M390.3,113.6c0.3,0.1,0.5,0.3,1,0.5c-1.7,1.5-3.3,0.2-4.8,0.3c-1.3-1.7-3.9,0.2-5.6-1.2   c2.3-0.8,4.7-0.3,7,0C388.7,114.1,389.5,113.6,390.3,113.6z" />
	<path display="inline" fill="#5F5049" d="M395.8,120c0.2,2.8,2.8,5.2,3.9,7.8c-0.3,0-0.6,0-0.8,0c-1.7-2.1-3.4-4.2-4.1-6.9   C395.1,120.6,395.4,120.2,395.8,120z" />
	<path display="inline" fill="#41302C" d="M390.9,131.3c2,1.7,3.3-1.8,5.6-0.2c-1,1.9-2.9,1.3-4.1,2   C391.4,132.8,390.6,132.6,390.9,131.3z" />
	<path display="inline" fill="#463B36" d="M365.5,137.6c-0.3-0.3-0.6-0.6-0.9-0.9c0.3-0.2,0.7-0.5,1.2-0.9c1,2.1,1.8,3.9,2.7,5.7   c-0.3,0.3-0.6,0.6-0.9,0.9C366.5,141,365.4,139.5,365.5,137.6z" />
	<path display="inline" fill="#7D6259" d="M380.3,152.1c-2.6-0.4-4.5-1.8-6.3-3.6c0.3-0.3,0.5-0.4,0.6-0.5c1.3,0.9,2.6,1.8,3.9,2.7   c1,0.1,2,0.1,3,0.2c0.1,0.2,0.1,0.4,0.2,0.5C381.3,151.7,380.8,151.9,380.3,152.1z" />
	<path display="inline" fill="#4B3D38" d="M398.9,127.8c0.3,0,0.6,0,0.8,0c1,1.4,0.5,2.5,0,4c-0.8,0.1-1.7,1-2.5,0.4   c-0.1-1.4,1.5-1.6,2-2.9C399.1,128.9,399,128.4,398.9,127.8z" />
	<path display="inline" fill="#524840" d="M369.7,111.6c-0.1-0.3-0.1-0.6-0.2-0.9c-1.4-0.3-2.3,1.5-3.7,0.7c0.6-0.7,1.1-1.4,2.1-1.6   c-0.2-0.1-0.3-0.3-0.5-0.4c0.5-0.9,1.3,0.1,2.1,0c0.5,0,0.9-0.3,2-0.8C370.7,110,370.2,110.8,369.7,111.6z" />
	<path display="inline" fill="#5E322A" d="M366.2,106.2c-0.5,0.8-1.4,0.4-2.1,0.6c0.3-0.4,0.7-0.7,1.2-1.3c-1-0.1-1.8-0.1-2.6-0.1   c0-0.2,0-0.4,0-0.6c2.1-0.1,4.2-0.1,6.3-0.2c0.3,0.2,0.6,0.5,0.8,0.7C368.6,105.4,367.1,104.9,366.2,106.2z" />
	<path display="inline" fill="#656153" d="M383.7,98.1c0.6-0.7,1.8-0.6,1.4-1.8c0.7,0.3,1.5,0.5,2.2,0.8c0.2,0.4,0.5,0.8,0.7,1.2   c-0.3,0.3-0.7,0.6-1.2,1C386,98.7,384.7,98.2,383.7,98.1z" />
	<path display="inline" fill="#534842" d="M362.6,130.7c1.8,1.5,1.8,1.5,0.6,3.4c-1.6-0.2-1.2-1.9-2.1-2.7   C361.7,131.1,362.2,130.9,362.6,130.7z" />
	<path display="inline" fill="#9B7665" d="M370.5,98.2c-0.5,0-1,0-1.5,0.1c-0.3-0.2-0.6-0.4-0.8-0.5c-0.2,0-0.4-0.1-0.6-0.2   c1.8-1.6,4.4,0.4,6.2-1.1c0.3,0.1,0.6,0.3,0.9,0.4C373.9,98.7,371.6,96.8,370.5,98.2z" />
	<path display="inline" fill="#362D29" d="M381,113.2c1.7,1.4,4.2-0.6,5.6,1.2c-2.1-0.1-4.1-0.2-6.1,0.1c-0.5-0.2-1-0.4-1.5-0.7   C379.6,113.7,380.3,113.5,381,113.2z" />
	<path display="inline" fill="#635049" d="M378.9,113.9c0.5,0.2,1,0.4,1.5,0.7c-1.2,0.9-2.4,1.7-3.7,2.7   C377.2,115.1,377.2,115.1,378.9,113.9z" />
	<path display="inline" fill="#E0C6B5" d="M381.7,151.5c-0.1-0.2-0.2-0.3-0.2-0.5c2.3-0.2,4.4,0.2,6.5,1.3c-0.1,0.1-0.2,0.2-0.3,0.2   c-1.1-0.1-2.2-0.1-3.3-0.2C383.7,151.3,382.6,151.7,381.7,151.5z" />
	<path display="inline" fill="#49221D" d="M365.5,102.5c0-0.2,0-0.5,0-0.7c0.9,0.3,6.3-0.8,4.9,0.7c-0.6,0.6-1.3,1-2.1,0.6   C367.8,102,366.5,102.8,365.5,102.5z" />
	<path display="inline" fill="#5E534E" d="M381.7,119.5c0,0.2,0,0.5-0.1,0.7c-0.5,0.4-1,0.8-1.7,1.3c-0.4-0.7-0.8-1.3-1.1-1.8   c0.5-0.8,1.1-1.3,2-1.2c0,0.3,0,0.5,0,0.8c-0.1,0.1-0.8,0-0.3,0.5c0.1-0.2,0.2-0.3,0.3-0.5C381.2,119.4,381.4,119.4,381.7,119.5z" />
	<path display="inline" fill="#81756B" d="M395.5,120.1c-0.2,0.3-0.5,0.5-0.7,0.8c-0.9-1.4-1.9-2.8-0.7-4.5   C394.7,117.6,395.1,118.8,395.5,120.1z" />
	<path display="inline" fill="#897D6B" d="M372.5,99c0-0.2,0-0.4,0-0.6c0.6,0,1.2,0,2.2,0c-0.5,1.4-1.2,2.1-2.2,2.6   c-0.2-0.2-0.4-0.4-0.7-0.6C372,99.9,372.3,99.5,372.5,99z" />
	<path display="inline" fill="#AEA294" d="M356.5,128.4c0-0.2-0.1-0.5-0.1-0.7l0,0c1.8,0.2,0.9-1.9,2.6-2c0.5,1.3-1.1,2-0.4,3.3   c-0.3,0-0.5,0-0.8,0c-0.2-0.2-0.4-0.4-0.6-0.6C357,128.5,356.8,128.4,356.5,128.4z" />
	<path display="inline" fill="#5C574A" d="M371.8,100.4c0.2,0.2,0.4,0.4,0.7,0.6c-0.3,0.6-0.6,1.3-1.1,2.1c-0.5,0-1.1,0-1.7,0   c0.4-0.5,1.8-1.1,0.6-1.5C370.8,101.3,371.3,100.8,371.8,100.4z" />
	<path display="inline" fill="#967D73" d="M380.9,119.3c0-0.3,0-0.5,0-0.8l0,0.1c1.8,0.2,1.3-2.1,3.6-1.3c0,0.2,0,0.3,0,0.5   c-0.6,0.1-1.7,0.4-0.7,0.9c-0.7,0.3-1.4,0.5-2.1,0.8C381.4,119.4,381.2,119.4,380.9,119.3L380.9,119.3z" />
	<path display="inline" fill="#1C1513" d="M362.6,130.7c-0.6,0.2-1.3,0.9-2,0.5c0-0.7,0.1-1.4,0.1-2c0.4,0,0.7,0,1.1,0   C362.1,129.6,362.4,130.2,362.6,130.7z" />
	<path display="inline" fill="#928E77" d="M367.6,118.6c-0.7,0.2-1.4,0.4-2.1,0.6c-0.2-0.7-0.9-0.6-1.4-0.7c1.2-0.6,2.4-1,3.6-1.5   C367.7,117.6,367.6,118.1,367.6,118.6z" />
	<path display="inline" fill="#B7A496" d="M360.8,129.2c0,0.7-0.1,1.4-0.1,2c-0.6-0.6-1.1-1.3-1.5-2c0.4-0.7,0.7-1.5,1.8-1.2   C360.9,128.3,360.9,128.7,360.8,129.2z" />
	<path display="inline" fill="#453129" d="M363.4,108.3c1.3-0.1,3.3-1.7,4.1-0.2c-1.1,0.3-2.2,0.6-3.3,0.8   C364,108.7,363.7,108.5,363.4,108.3z" />
	<path display="inline" fill="#756960" d="M367.6,142.5c0.3-0.3,0.6-0.6,0.9-0.9c0.4,0.5,0.8,1.1,1.1,1.6c0,0.3,0,0.6,0,1   C368.5,143.7,368.5,143.7,367.6,142.5z" />
	<path display="inline" fill="#12100D" d="M366.2,106.2c0.9-1.3,2.4-0.8,3.7-1c0.2,0.3,0.3,0.5,0.5,0.8   C369,106,367.6,106.1,366.2,106.2z" />
	<path display="inline" fill="#4B3A35" d="M394.7,117.8c-0.2-0.5-0.4-0.9-0.7-1.4c0.2-1,0.5-1.8,1.6-2   C395.8,115.6,395.2,116.7,394.7,117.8z" />
	<path display="inline" fill="#705750" d="M384.5,117.8c0-0.2,0-0.3,0-0.5c1.1-0.1,2.2-0.1,3.4-0.2c0,0.7,0,1.1,0,1.5   c-0.3-0.1-0.5-0.1-0.8-0.2C386.4,117.6,385.3,118.2,384.5,117.8z" />
	<path display="inline" fill="#B7A496" d="M361.8,127c-0.1-0.2-0.2-0.3-0.2-0.5c1.2-0.5,2.3-0.5,3.3,0.4   C363.9,127,362.8,127,361.8,127z" />
	<path display="inline" fill="#5B453F" d="M396.5,135.9c-0.6-0.3-1.2-0.7-0.6-1.8C396.4,134.6,397.2,134.9,396.5,135.9z" />
	<path display="inline" fill="#6A443A" d="M390.8,96.7c0.5,0.3,0.9,0.6,1.4,0.9c-0.2,0.8-0.9,0.5-1.4,0.7l0,0c0.1-0.2,0-0.4-0.1-0.6   C390.7,97.3,390.7,97,390.8,96.7z" />
	<path display="inline" fill="#362D29" d="M390.3,113.6c-0.8,0-1.7,0.5-2.3-0.4C388.8,113.4,389.6,113.5,390.3,113.6z" />
	<path display="inline" fill="#B7A496" d="M356.5,128.4c0.2,0,0.4,0,0.7,0.1c0,0.4-0.1,0.9-0.1,1.3c-0.2,0-0.4-0.1-0.6-0.2   C356.5,129.2,356.5,128.8,356.5,128.4z" />
	<path display="inline" fill="#3D2A23" d="M367.5,109.4c0.2,0.1,0.3,0.3,0.5,0.4c-0.3,0.1-0.7,0.2-1,0.3c0-0.2,0-0.3,0-0.5   C367.1,109.5,367.2,109.4,367.5,109.4z" />
	<path display="inline" fill="#B7A496" d="M357.8,129.1c0.5,0,1-0.1,1.4,0C358.7,130.1,358.2,129.9,357.8,129.1z" />
	<path display="inline" fill="#653935" d="M382.3,117.8c-0.1,0.9-0.8,0.8-1.4,0.8C381,117.8,381.7,117.9,382.3,117.8z" />
	<path display="inline" fill="#5C574A" d="M368.4,103.2c0.3,0,0.5,0.1,0.8,0.1c-0.1,0.2-0.1,0.4-0.2,0.5   C368.8,103.6,368.6,103.4,368.4,103.2z" />
	<path display="inline" fill="#B7A496" d="M357.8,131.1c-0.2-0.2-0.3-0.4-0.5-0.7C357.5,130.7,357.7,130.9,357.8,131.1z" />
	<path display="inline" fill="#B7A496" d="M358.4,132c-0.2-0.3-0.4-0.5-0.6-0.8C358.1,131.5,358.3,131.7,358.4,132z" />
	<path display="inline" fill="#261F1D" d="M380.3,182.1c0.6-0.3,0.9-0.4,1.2-0.5c2.1,1.6,2.3,1.8,3.7,4.8   C382.5,187,381.4,184.3,380.3,182.1z" />
	<path display="inline" fill="#8A776D" d="M373.8,161.4c0.3-0.3,0.6-0.5,0.9-0.8c0.4,0.9,1.2,1.7,0.2,3   C374.4,162.7,374.1,162.1,373.8,161.4z" />
	<path display="inline" fill="#6D3734" d="M378.9,182.4c-1.6-0.3-2.5-0.5-3.9-0.9C376.7,180.5,377.5,181.4,378.9,182.4z" />
	<path display="inline" fill="#47403C" d="M392,179.2c-0.9-0.9-1.4-1.6-0.7-2.4C392.6,176.5,392.1,178.1,392,179.2z" />
	<path display="inline" fill="#E0C6B5" d="M371.7,156.5c-0.2-0.5-0.5-0.9-0.7-1.4l0.1-0.1c0.2,0.5,0.5,0.9,0.7,1.4L371.7,156.5z" />
	<path display="inline" fill="#564B44" d="M371.8,156.4c-1.1-2-1-3.3-1.6-6.2C371.5,151.4,373.5,155.7,371.8,156.4z" />
	<path display="inline" fill="#4D221F" d="M381.7,151.5c0.9,0.3,2-0.1,2.7,0.8c0,0.2,0,0.4,0,0.6c-1.4,0.2-2.8,0-4.1-0.7   C380.8,151.9,381.3,151.7,381.7,151.5z" />
	<path display="inline" fill="#331311" d="M384.4,152.8c0-0.2,0-0.4,0-0.6c1.1,0.1,2.2,0.1,3.3,0.2   C386.7,153.5,385.5,153,384.4,152.8z" />
	<path display="inline" fill="#BAA68A" d="M358.3,136.2c0.2-0.5-0.1-1.3,0.8-1.4c0,1.2,0,2.5,0,3.7c-0.1,0-0.2,0-0.3,0   C358.7,137.7,358.5,136.9,358.3,136.2z" />
	<path display="inline" fill="#120E0C" d="M460.9,345.6c-2.4,0-3.3-7.9-1.2-7.6C459.8,340.6,460.2,343.1,460.9,345.6z" />
	<path display="inline" fill="#2A2724" d="M439.9,262.9c-0.4-2.8,0.3-5.6,1.5-7.2C442.9,257.5,441.3,261.1,439.9,262.9z" />
	<path display="inline" fill="#402C28" d="M428.6,198.9c-0.3,1.1-1,1.4-2,1C427.2,198.4,427.2,198.4,428.6,198.9z" />
	<path display="inline" fill="#89776E" d="M437.9,269.5c-0.5-1.6-0.1-2.3,0.9-2.7C439.5,267.8,438.8,268.4,437.9,269.5z" />
	<path display="inline" fill="#33120D" d="M410.4,230.6c0.6,0.2,1.2,0.3,2,0.6c-1.4,1-1.4,1-3.5-0.4   C409.4,230.7,409.9,230.6,410.4,230.6z" />
	<path display="inline" fill="#8E7750" d="M410.4,230.6c-0.5,0-1,0.1-1.5,0.1C408.4,229.6,410.1,229.9,410.4,230.6z" />
	<path display="inline" fill="#C6B799" d="M363.4,110.3c-0.1,0.3-0.2,0.6-0.3,1.1c-1.3,0-2.5,0.1-3.8,0.1c-0.2-0.2-0.5-0.4-0.7-0.6   C359.4,109.3,361.8,110.5,363.4,110.3z" />
	<path display="inline" fill="#CFB899" d="M359.9,114.3c-0.5-0.9-1.4-0.5-2.2-0.5c0.2-0.3,0.6-0.6,0.8-0.9c2,0.3,4.3-0.4,6.1,0.7   c-0.2-0.1-0.4,0-0.6,0.1c-0.8-0.1-1.6-0.1-2.2,0.7C361.2,114.5,360.6,114.6,359.9,114.3z" />
	<path display="inline" fill="#453129" d="M363.4,110.3c-2-0.1-4-0.1-5.5-1.5c1.4,0,2.8-0.4,4.2,0   C362.5,109.3,362.9,109.8,363.4,110.3z" />
	<path display="inline" fill="#302821" d="M367.6,117.1c-1.4,0.4-2.8,1.6-4.2,1.4c0-0.2,0-0.4,0-0.6c1.1-0.5,2.3-1,3.4-1.5   C367.1,116.6,367.3,116.9,367.6,117.1z" />
	<path display="inline" fill="#8F836E" d="M357.8,108.8c0.7,0.5,1.4,0.9,2.2,1.2c-0.6,0.2-1.3,0.1-1.5,0.9c-0.2,0-0.5,0-0.7,0   c-0.5-0.5-1-1-1.4-1.5C356.6,108.3,356.6,108.3,357.8,108.8z" />
	<path display="inline" fill="#8F836E" d="M358.6,112.9c-0.3,0.3-0.5,0.6-0.8,0.8c-0.7-0.4-1.4-0.9-2.1-1.3c0.5-0.5,1-1,1.4-1.4   c0.3,0,0.5,0,0.8-0.1C358.1,111.6,358.3,112.2,358.6,112.9z" />
	<path display="inline" fill="#382620" d="M360.7,114.5c0.4-0.1,0.8-0.1,1.3-0.2c0.5,0.2,1,0.4,1.4,0.7c-0.7,0.1-1.3,0.1-2,0.2   C361.1,115,360.9,114.8,360.7,114.5z" />
	<path display="inline" fill="#382620" d="M364.1,113.7c0.2-0.1,0.4-0.1,0.6-0.1c0.1,0.2,0.2,0.4,0.4,0.6   C364.5,114.3,364.3,114.1,364.1,113.7z" />
	<path display="inline" fill="#F6D9C7" d="M369.7,112.3c-0.2,0.2-0.4,0.5-0.8,0.5C369,112.4,369.4,112.4,369.7,112.3   C369.8,112.4,369.7,112.3,369.7,112.3z" />
	<path display="inline" fill="#8F836E" d="M358.5,110.9c0.2,0.2,0.5,0.4,0.7,0.6C359,111.4,358.7,111.1,358.5,110.9z" />
	<path display="inline" fill="#5C574A" d="M366.9,103.2c-2.5,1.9-6.4,0.5-9.6-0.5C360.7,102.2,363.6,102.9,366.9,103.2L366.9,103.2z   " />
	<path display="inline" fill="#8B5446" d="M362.7,104.7c0,0.2,0,0.4,0,0.6c-1.4,0-2.8,0.1-4.2,0.1   C359.6,104.2,361.3,104.8,362.7,104.7z" />
	<path display="inline" fill="#5C574A" d="M366.8,102.6c0.6-0.1,1.2-0.2,1.5,0.5c-0.5,0-1,0-1.4,0.1l0,0   C366.9,103,366.9,102.8,366.8,102.6z" />
	<path display="inline" fill="#392F29" d="M372.6,92.8c0.5,0.6,0.3,1.2,0,1.8c-0.9-0.5-2.2-0.2-2.9-1.2   C370.7,93.3,371.6,92.7,372.6,92.8z" />
	<path display="inline" fill="#310F0C" d="M367.5,97.5c0.2,0.1,0.4,0.2,0.6,0.2c-0.9,0.9-1.1,0.9-2-0.1   C366.7,97.6,367.1,97.5,367.5,97.5z" />
	<path display="inline" fill="#936F66" d="M398.4,117.8c0.4-0.3,0.8-0.7,1.7-1.5c-1.7,0.2-3,1.6-3.7,0.3c1.9-1.3,3.7-0.5,5.6,0   c-0.1,0.4-0.1,0.8-0.2,1.3C400.5,117.8,399.4,117.8,398.4,117.8z" />
	<path display="inline" fill="#8F8D76" d="M357.8,106.1c0.5-0.1,1-0.1,1.5,0c0,0.2-0.1,0.4-0.1,0.6l0,0   C358.6,106.7,358.1,106.7,357.8,106.1z" />
	<path display="inline" fill="#6F5E4E" d="M360.7,114.5c0.2,0.2,0.5,0.5,0.7,0.7c-0.7,0.8-1.6,0.6-2.8,0.4c0.5-0.5,0.9-0.9,1.3-1.3   C360.2,114.4,360.4,114.5,360.7,114.5z" />
	<path display="inline" fill="#6F5E4E" d="M357.7,113.8c0.2,0,0.5,0,0.7-0.1c-0.2,0.2-0.5,0.4-0.7,0.5   C357.8,114.1,357.8,114,357.7,113.8z" />
	<path display="inline" fill="#CDBFA3" d="M365.4,99.6c-1.2,0.3-2.3,0.3-3.5,0c-0.2-0.2-0.4-0.4-0.6-0.6c0,0,0,0,0,0   c-0.5-0.5-1-1-1.4-1.5c0-0.2,0-0.4,0.1-0.6c1.3-1,2.3,1.8,2.8,0.6l0,0C363.9,97.9,364.7,98.7,365.4,99.6z" />
	<path display="inline" fill="#ACB89D" d="M369,101.8c-2,0-4.2,0.3-5.6-1.5c1.9,0.3,3.7,0.5,5.6,0.8C369,101.3,369,101.5,369,101.8z   " />
	<path display="inline" fill="#D2C3A6" d="M361.9,99.6c0.3,0.1,0.7,0.1,1,0.2c-1.5,0.9-1.8,0.9-3-0.8l0,0c0.5,0,1,0,1.4,0l0,0   C361.5,99.2,361.7,99.4,361.9,99.6z" />
	<path display="inline" fill="#B4B79C" d="M359.9,99c-0.4-0.1-0.8-0.1-1.3-0.2C359.3,98.2,359.7,98.4,359.9,99L359.9,99z" />
	<path display="inline" fill="#AA9781" d="M387.2,97.1c-2.4-0.9-4.6-2.1-7-3c0,0,0,0,0,0c0-0.2,0-0.4,0-0.6c0.5,0,0.9,0,1.4-0.1   c1,2.1,1.7-2,2.8,0C384.1,95.5,387,95.2,387.2,97.1z" />
	<path display="inline" fill="#F6D9C7" d="M390,97.6c-0.1-0.1-0.2-0.2-0.4-0.3C389.9,97.3,389.9,97.4,390,97.6   C390,97.6,390,97.6,390,97.6z" />
	<path display="inline" fill="#F6D9C7" d="M390.7,97.7c0.1,0.2,0.1,0.4,0.1,0.6c-0.2-0.2-0.5-0.5-0.7-0.7c0,0,0,0,0,0   C390.2,97.7,390.5,97.7,390.7,97.7z" />
	<path display="inline" fill="#161310" d="M381.6,93.4c-0.6,0.1-3.4,0.2-2-0.7c0.6,0.1,1.1,0.1,1.7,0.2   C381.4,93,381.5,93.2,381.6,93.4L381.6,93.4z" />
	<path display="inline" fill="#392F29" d="M382.9,93.5c-0.5,0.6-1,0.6-1.3-0.2l0,0C382.1,93.4,382.5,93.5,382.9,93.5z" />
	<path display="inline" fill="#AA9781" d="M382.3,93.4c-0.2,0-0.5,0-0.7,0c-0.1-0.2-0.2-0.4-0.3-0.6C381.6,93,382,93.2,382.3,93.4z" />
	<path display="inline" fill="#C2C2A6" d="M362.1,97.6c-0.3-0.2-0.5-0.5-0.8-0.7c0.5,0.2,0.9,0.4,1.4,0.7l0,0   C362.5,97.6,362.3,97.6,362.1,97.6z" />
	<path display="inline" fill="#A5A990" d="M376.7,93.3c0-0.2,0-0.3,0-0.5c0.4,0.1,0.8,0.1,1.2,0.2c0,0.1,0,0.2,0,0.3   C377.5,93.3,377.1,93.3,376.7,93.3z" />
	<path display="inline" fill="#C1B597" d="M357.1,111c-0.5,0.5-1,1-1.4,1.4c-0.6-0.3-1.3-0.6-1.9-0.9c0-0.6,0-1.3,0-2.1   C355,110,356,110.5,357.1,111z" />
	<path display="inline" fill="#392F29" d="M375.5,93.3c-0.6,0.1-1.2,0.2-1.6-0.5C374.5,92.7,375.1,92.7,375.5,93.3z" />
	<path display="inline" fill="#617D68" d="M359.3,106.1c-0.3,0-0.5-0.1-0.8-0.1c0-0.2,0-0.4,0-0.6c2.4,0,4.4-0.1,6.8,0.1   c-0.5,0.6-0.9,0.9-1.2,1.3c0,0,0,0,0,0C362.5,106.2,361,105.8,359.3,106.1z" />
	<path display="inline" fill="#0F0C0B" d="M327.6,565.6c3-0.7,7.4-3.1,10-0.5c-5,1.4-9.8,4.6-14.7,5.4c-0.4-1.3,0.9-1.8,1.3-2.7   C325.4,567.1,326.5,566.4,327.6,565.6z" />
	<path display="inline" fill="#100C0A" d="M323.3,566.9c-0.3,0-0.6-0.1-1-0.1c2-5.8,11.3-9.5,15.7-4.9   C332.4,561.9,327.8,563.6,323.3,566.9z" />
	<path display="inline" fill="#110D0C" d="M325.5,575.4c-1.9-4.5,10.4-8.6,13-5.3C333.8,571.8,329.5,572.8,325.5,575.4z" />
	<path display="inline" fill="#1E1816" d="M329.1,577.5c-1.2,0-2.3,0.6-2.1-1.4c1.6-1.6,3.8-1.7,5.7-2.7c1.3,0.1,2.7-0.4,4,0.9   C334.5,576.1,331.6,576.4,329.1,577.5z" />
	<path display="inline" fill="#2A1A17" d="M345.1,589.6c-4.1-0.3-7.8,0.8-11,3.4c-0.3-0.3-0.6-0.6-0.9-0.9c0.3-0.4,0.6-0.8,0.9-1.3   c3.7-1.7,7.8-4.2,11.9-2.1C345.6,589.1,345.3,589.3,345.1,589.6z" />
	<path display="inline" fill="#181210" d="M334,576.9c1.2,0,2.5,0,3.8,0c-0.4,2-6.6,4-8.9,3.2c0.3-0.7,0.6-1.3,0.9-1.9   C331.2,577.8,332.6,577.3,334,576.9z" />
	<path display="inline" fill="#C9CEB4" d="M332.7,573.5c-1.9,1-4.1,1.1-5.7,2.7c-0.2-0.8-1-0.6-1.5-0.8c1.9-0.9,3.6-2.3,5.7-2.8   C331.4,573.4,332.1,573.2,332.7,573.5z" />
	<path display="inline" fill="#D1D3B8" d="M334,576.9c-1.4,0.5-2.8,0.9-4.2,1.4c-0.2-0.2-0.5-0.5-0.7-0.7c1.2-0.4,2.4-0.9,3.6-1.3   C333.1,576.5,333.5,576.7,334,576.9z" />
	<path display="inline" fill="#C4C6AC" d="M323.3,566.9c1-0.6,2-1.2,3-1.8c0.4,0.2,0.9,0.4,1.3,0.6c-1.1,0.7-2.3,1.4-3.4,2.2   C323.9,567.5,323.6,567.2,323.3,566.9z" />
	<path display="inline" fill="#4B3730" d="M345.1,589.6c0.3-0.3,0.5-0.5,0.8-0.8c0.5,0.2,0.9,0.4,1.4,0.7c0,0.2,0,0.5,0.1,0.7l0,0   C346.4,590.4,345.7,590.1,345.1,589.6z" />
	<path display="inline" fill="#C4C6AC" d="M326.8,564.8c0.3-0.2,0.6-0.4,0.9-0.6C327.4,564.5,327.1,564.7,326.8,564.8z" />
	<path display="inline" fill="#EADCB7" d="M347.3,590.2c0-0.2-0.1-0.5-0.1-0.7C347.9,589.6,348,589.9,347.3,590.2z" />
	<path display="inline" fill="#515144" d="M333.1,592.1c0.3,0.3,0.6,0.6,0.9,0.9c-0.4,0.8-1,1.5-2,1.7   C331.6,593.4,332.3,592.8,333.1,592.1z" />
	<path display="inline" fill="#9FA290" d="M356.4,127.7c-1.3-1.3,0-3.8,1.2-4.8c1.2-0.2,1.8,0.5,2.3,1.3c-0.2,0-0.5,0.1-0.7,0.1   c-0.4-0.2-0.8-0.4-1.3-0.6C356.9,124.9,356.7,126.4,356.4,127.7L356.4,127.7z" />
	<path display="inline" fill="#5B574E" d="M360.6,124.9c0.8,0,1.5,0,2.9,0C361.7,125.6,361.7,125.6,360.6,124.9L360.6,124.9z" />
	<path display="inline" fill="#5B574E" d="M359.2,124.3c0.2,0,0.5-0.1,0.7-0.1c0.2,0.2,0.5,0.5,0.7,0.7l0,0   C360.1,124.7,359.6,124.5,359.2,124.3z" />
	<path display="inline" fill="#2F1D18" d="M363.4,117.9c0,0.2,0,0.4,0,0.6c-1.1,0.5-2.4,0-3.5,0.1c0,0,0,0,0,0   C360.9,117.7,362.2,118,363.4,117.9z" />
	<path display="inline" fill="#827865" d="M359.9,118.6c1,0,1.9,0.1,2.9,0.1c-0.8,1-1.9,0.5-2.9,0.5   C359.9,119,359.9,118.8,359.9,118.6z" />
	<path display="inline" fill="#665750" d="M372.9,306.8c0.6,0.5,1,0.9,1.6,1.4C372.8,308.4,372.8,308.4,372.9,306.8z" />
	<path display="inline" fill="#392F29" d="M380.2,94.1c0.3,0.2,0.6,0.4,0.9,0.6C380.8,94.4,380.5,94.3,380.2,94.1z" />
	<path display="inline" fill="#C4BDAD" d="M384.5,117.8c0.8,0.4,1.9-0.2,2.5,0.7c-1.1,0.1-2.2,0.1-3.2,0.2   C382.8,118.2,383.9,117.8,384.5,117.8z" />
	<path display="inline" fill="#C6DDDC" d="M387.3,120.7c-0.2-0.1-0.4-0.2-0.6-0.3c0.1-0.1,0.1-0.2,0.2-0.2   C386.9,120.3,387.1,120.5,387.3,120.7L387.3,120.7z" />
	<path display="inline" fill="#C8AE91" d="M359.3,106.1c1.4,0.1,3-0.5,4.1,0.5c-1.4,0.1-2.8,0.3-4.2,0.1   C359.2,106.5,359.2,106.3,359.3,106.1z" />
	<path display="inline" fill="#5A3B32" d="M360.7,106.8c1.1-0.1,2.3-0.3,3.4-0.1C363,107.7,361.9,107.7,360.7,106.8z" />
	<path display="inline" fill="#D3C3A7" d="M369,101.8c0-0.3,0-0.5,0-0.8c0.7-0.6,1.5-1.2,2.2-1.9c0.4,0,0.9-0.1,1.3-0.1   c-0.4,1.1-1.3,1.9-2.2,2.7C369.9,101.7,369.4,101.8,369,101.8z" />
	<path display="inline" fill="#897D6B" d="M371.2,99.1c-0.2,0.2-0.5,0.4-0.7,0.6C370.7,99.5,370.9,99.3,371.2,99.1z" />
	<path display="inline" fill="#967D73" d="M380.9,119.3c-0.1,0.2-0.2,0.3-0.3,0.5C380.1,119.3,380.8,119.5,380.9,119.3   C380.9,119.3,380.9,119.3,380.9,119.3z" />
	<path display="inline" fill="#726556" d="M361.9,99.6c-0.2-0.2-0.4-0.4-0.6-0.6C361.5,99.2,361.7,99.4,361.9,99.6z" />
	<path display="inline" fill="#726556" d="M362.1,97.6c0.2,0,0.4,0,0.7,0C362.5,98.1,362.3,98.3,362.1,97.6z" />
</g>
</svg>