<?xml version='1.0' encoding='utf-8'?>
<svg xmlns="http://www.w3.org/2000/svg" version="1.2" baseProfile="tiny" id="Layer_1" x="0px" y="0px" viewBox="0 0 900 600" overflow="visible" xml:space="preserve">
<g id="b_00000088131052842555845710000014972612412665307781_">
	<path display="inline" fill="#F6D9C7" d="M355.6,475c-0.2,2.5,0.5,5.3-0.6,7.6c-0.7-2.2,1-4.9-0.7-6.7c-1.9,1.1-3.1,2.3-3,3.6   c0.7-0.5,1.4-1,2.1-1.6c1,23-15.6,42.6-15.7,65.8c-0.5,0.1-1.1,0.2-1.6,0.3c-1.2,2.9-0.7,5.9-0.6,8.7c-3.4-0.1-5.1,2.8-8.5,3   c-0.5,0.4-1.2,1.5-2,1.8c-2-2.8,0-7.1-0.1-10.4c2.5-18.1-1.6-36.1-0.6-54.3c0.7-0.8,0.7-0.8-0.2-1.3l0,0c0-2.1,0.9-4,1.4-6   c-0.3-0.4-0.5-0.8-0.8-1.3c2.5-0.8,2.3-4.9,3.6-7.1c5.8-3.3,6.2-11,9.9-15.5c1.6,3.2,1.8,7.2,4.6,9.6c3.3-4.8,2.4-9.6,2.5-14.7   c0.6-1.3,1.7-3.6-0.3-3.7c-1.2-1.2-2.3-2.3-3.7-3.7c-3.5-21.4-3-45.6-0.2-67.2c10.1,0.2,20.5,1.9,30,5.2   C362,416,369.8,447.5,355.6,475z M344.6,488.6c-0.7,1.7-0.7,1.7,0.1,3.4c0.5-2,1.6-3.2,1.6-5.4   C344.9,486.7,344.8,487.7,344.6,488.6z M353.4,465.2c2.6-1.4,4.4-3.7,2.3-6.1C355.4,461.5,353.4,462.6,353.4,465.2z M337.5,534.1   c-0.2-2.3-0.2-2.3-1.2-2.9C336.4,533.4,336.5,533.4,337.5,534.1z M336.9,526.4c-0.5,1.4-0.5,1.4,0.2,2.7   C337.6,528.1,337.9,527.3,336.9,526.4z M340.8,502.2c1.3-0.6,1.4-1.3,1-2.3C340.6,500.2,340.3,500.9,340.8,502.2z M343.7,495.7   c-1.3,0.8-1.3,0.8-0.6,2.3C343.4,497.1,343.6,496.4,343.7,495.7z M337.1,537.1c-1.1,0.9-1.1,0.9,0,2.4   C337.1,538.6,337.1,537.9,337.1,537.1z M350.1,482.3c-0.8-0.8-1.5-0.1-1.1,0.6C349.4,482.8,349.7,482.6,350.1,482.3z" />
	<path display="inline" fill="#F6D9C7" d="M380.7,176.5c0,0.2,0,0.5,0,0.7c-0.7-0.4-0.6-1.8-1.9-1.4c-4-1.1-7.7-2.6-12-2.3   c-5.7-3.6-10-8-12.3-14.4c-0.5,0.3-0.8,0.6-1.2,0.8c-0.3,0-0.7,0-1,0c-2.6-1.9-6.4-4.4-6.1-8c0.6,0.6,1.2,2.1,1.9,0.6c0,0,0,0,0,0   c0.5,0.8,0.9,2,1.9,2.1c0.8,0.8,0.5,2.4,2,2.7c2.3-2.5-2.4-3.6-1.4-6.8c1.3-0.4,3.7,0.7,4.2-0.9c-0.7-0.7-1.4-1.5-2.1-2.1   c0.7-0.5,3.6-0.9,2.2-2.3c-1.2,0.5-2.7,0.6-4,0.6c2.2-0.9,5.7-1.4,5.4-4.5c2-0.8,1.5-3,2.6-4.4c0,0-0.4-0.4-0.6-0.6l0.1,0.1   c0-0.2,0-0.5-0.1-0.7c0.5-0.8,1-1.6,1.8-2.9c-1.1,0.4-1.5,0.8-2,0.8c-0.7,0.1-1.5-0.8-2,0c-0.2,0-0.4,0-0.5,0.2   c-0.8-0.2-1.9,0.2-2.5-0.7c2.2-0.4,4.5-1.3,5.9-2.9c-0.3-0.6-0.8-1-1.3-1.4c0-0.2,0-0.5-0.1-0.7c0.1-0.2,0.1-0.4,0.2-0.5   c0.2,0,0.3,0,0.5-0.1c0.6,0,1.2,0,1.7,0c0.4-0.8,0.7-1.5,1-2.1c0.9-0.5,1.6-1.2,2.1-2.6c-1.6,0-2.5,0-4-0.2   c1.1-1.3,3.3,0.5,3.9-1.4c4-0.1,8.2,1,11.8,2.5c0.5-0.4,0.8-0.7,1.2-0.9c1.6,0.9,2.4,0,4.1-0.3c-0.8-0.7-1.2-1.2-1.9-1.7   c0-0.4,0-0.8,0.1-1.6c1.4,1.5,2.4,2.7,3.5,3.9c0.2-0.5,0.4-0.8,0.5-1.1l-0.1,0.1c4.4,3.2,5.1,9.3,7.5,14.1c-2.2,0.2-4.2,0.2-6,1.1   c0,0.4-0.1,0.7-0.1,1.1c-5.8,3.7,2.4,10.1,3.3,14.4c-0.5,1.2-2.1,1.5-1.9,3.1c7.5-1.3-1.3-8.3-1.3-12.1c2.4,1.5,4,3.9,5.5-0.4   c5.2,9.5,1.5,21.9-2.9,31C384.7,175.7,380.9,174.1,380.7,176.5z M369.1,142.4L369.1,142.4c-0.9-0.2-1.5,0.4-1.9,1.1   c0.3,0.5,0.7,1.1,1.1,1.8c0.6-0.5,1.1-0.9,1.6-1.3c0.8,0.1,0.6,0.7,0.8,1.2c0.7,2.3,4.4,1.5,4.6-0.8l-0.1,0.1c0.4,0,0.8,0,1.3,0   c-0.5-1.5-0.8-2-0.7-3.5C373.5,141.4,370.7,140.4,369.1,142.4z M374.6,138.5c1.4,1,3,0.5,4.4,0.4c1.9-2.8-14.7-3.4-13.9,2.2   c2.8-2.7,5.8-3.3,9.5-2.7L374.6,138.5z M379.4,156.1c1.1,1,4.3-0.1,4.8-1.3c-1.2-2.1-3,1-4.7,0.3c-0.1-0.3-0.2-0.5-0.5-1   C378.4,155.1,378.4,155.7,379.4,156.1z M380.8,166.2c3.9,1.7,9.1-0.5,8.2-5.2c-4.1-2-7.8,0.6-11.9,0.5c-0.4,0-0.8,0.4-1.6,0.9   C378.1,163.2,379.1,164.5,380.8,166.2z M383.6,156.9c-0.1,1.6-0.2,1.5,0.8,2.2c0.1-0.1,0.2-0.2,0.4-0.3   C384.4,158.4,384.1,157.9,383.6,156.9z" />
	<path display="inline" fill="#030202" d="M410.1,261c-0.1,3.4-0.4,6.8-1.4,10.1c-2-2.2-0.2-6.3-0.5-9.1c-5.2-3.7-11.9-0.4-17.9-1.3   c-17.5,0.7-35.5,0.3-51.7,7.8c21.5,30.7-27.3,57.9-14.8,111.3c1.9,0.2,3.6-0.1,5.3,0.7c-1.7,0.5-3.6-0.1-5.3,1.2   c2.2,26,16.9,52.7,9,78.5c-26.8,28.4-2.5,67-12.5,98c-1.2-0.7-0.7-2.2-0.8-3.3c4.4-21.4-3.2-43.3-1.6-65   c0.7-13.5,10.5-23.8,14.5-36.2c3.6-32.8-17.7-62.9-11.9-95.9c0.2-22.1,11-41.1,19.9-60.7c5.5-8.1,0-16.5-2.2-24.8   c-3.2-6.1-3.4-13.5-6.8-19.4c-6.6-8-11.4-17.7-11.3-28.3c-3.2,0-6.3-0.3-8.8-2.6c0.5-0.2,1-0.5,1.5-0.7c3.2,1.2,6.4,1.7,9.8,1.5   c-2.3,6.8,0.7,14.8,4.9,20.3c9.1-0.5,12.4-10.1,14.4-17.6c2.7,7.8-4.8,20.1-13.9,18.7c3.3,4.8,5.9,9.4,8.2,14.2   c-0.4,0.3-0.6,0.5-0.9,0.8c0.7,2.7,1.2,5.3,2.7,7.7c22-9.2,47.1-8.5,70.3-7c0.3-1.2,0.6-2.1,0.9-3.1C410.2,258,410,259.5,410.1,261   z" />
	<path display="inline" fill="#0B0908" d="M382.2,121.9c-0.1,0.3-0.3,0.6-0.5,1.1c-1.1-1.2-2.1-2.4-3.5-3.9c0,0.8-0.1,1.2-0.1,1.6   c-1.6,0.2-1.8-1.2-2.5-2.1c-2.6-2.6-7.5-3.6-11-3.1c-0.1,0.5-0.1,0.8-0.2,1.1c-5.9-1.4-12.3,0.8-16.2,5.4c-1.8-0.5-5.1,5.3-4.9,6.8   c-1.2,1.1-0.7,2.3,0,3.5c-2,1.6-1.3,2.2-0.6,4.1l0,0c-1.7,0.5,0.4,1.7,0.5,2.7c-0.7,1.1-0.7,1.9-0.8,3.3c-3.4-1.7-6.9-1.7-10.9-2.5   c-0.5,0.3-1.1,0.6-1.4,0.8c-11.3-4.4-21.1,1.9-15.3,14.1c-0.6,1.2-0.8,1.9-0.6,3.2c-0.5-0.4-0.9-0.7-1.4-1   c-6.8,4.8-11,16.5-5.4,23.4c4.4-6.6,8.1-14,11.1-21.1c-0.7-3.7,1.7-7.2,0.3-10.8c-0.3-0.6,0-1.5,0-2.2c5.6-5.3,11.5-4.4,18.9-3.1   c-0.3,0.8-1,0.5-1.7,0.6c-2.5-0.4-3.6,1.8-5.8,3.1c0.2-1.3,0.3-2.1,0.5-3.1c-10.7-1.8-9.4,4.5-11,12.4c0.3,0.4,0.6,0.9,1,1.4   c-4.3,17.2-17.7,30.5-23,46.8c-0.9-8.5,4.6-15,8.7-21.9c-6.7-9.2-1.3-20.3,5.8-27.4c-3.5-11.7,3.5-15.7,12.6-20   c0.6,2-2.9,1.1-1,3.9c0.7-0.1,1.4-0.2,2.2-0.3c0.2-1.1,0.3-2.1,0.5-3.1c0.9,0.8,0.9,2.2,1.2,3.2c2.7,0.6,3-0.2,4.9-1.2   c1,2.4,3.3,1.6,5.3,1.4c0.7,1,1.5,1.6,2.8,0.5c-0.5-1.3-0.6-2.8-1.9-3.5c0.4-0.4,0.9-0.8,1.3-1.1c0.5-4.5-0.8-8.9-0.3-13.5   c-0.5-8.7,10.7-11.5,16.7-6.8c19.4-3.5,35.2,5.6,34.6,26.4c-1.2-0.7-0.5-2.3-1-3.3c-2.3-0.7-4.3,0.5-6.5,0.6c0,0,0.1,0.1,0.1,0.1   c0-0.3,0.1-0.7,0.1-1.1c1.8-0.9,3.8-1,6-1.1c-2.4-4.6-3.5-12.5-8-14.3C381.8,121.9,382,121.9,382.2,121.9z M348.9,117.9   c0.2-0.2,0.4-0.4,0.6-0.6c0.4-0.1,0.9-0.1,2-0.3c-1.3-0.6-1.9-0.9-2.5-1.2c-0.1-0.2-0.1-0.4-0.2-0.6c1.4,0.5,2.7,0.9,4.1,1.4   c0.8-0.3,1.7-0.6,2.8-1c-0.8-0.5-1.2-0.8-1.6-1c-0.5,0.3-0.8,0.5-1.2,0.7c-1.3-1.6-2.8-1.7-4.7-1c0.3,0.5,0.4,0.8,0.6,1   c-7.5-1.6-8.2,7.9-8,13.2c0.1,0,0.3,0.1,0.4,0.1C342.3,122.5,351.2,119,348.9,117.9z" />
	<path display="inline" fill="#050303" d="M367.7,402.7c1.1-5.3,2.2-10.3,3.3-15.7c-11.6-4.1-24.4-5.1-36.6-6.7   c12.2-2,25.2,2.4,37.1,4.9c1.7-4.9,2.5-12.4,9.6-10.7c-0.9,0.8-1.7,1.6-2.6,2.4c1.4,2.6,2.8,5,4.2,7.6c13.4-6,25.4-15.4,40.1-18.5   c0.5,0.2,0.9,0.5,1.4,0.7c-14.4,4.7-27.2,12.6-40.7,19.2c8.3,18.1,19,35,28.6,52.3c-0.3,0.3-0.5,0.6-0.8,0.9   c-14.7-18.4-23.3-40.5-34.1-61.2c-0.5,0-0.9,0-1.5,0c-2.8,8.7-3.9,17.9-7.1,26.4C367.8,404.1,367.8,403.4,367.7,402.7z" />
	<path display="inline" fill="#0B0808" d="M557.7,302.3c2.1,2.6,9.7,12.7,8.6,15.4c-2.2,1.2-4.2,0.4-6-1.2c-1.1,0.2-2.1,0.4-3,0.6   c-0.5-0.3-1-0.6-1.7-1c-0.4,0.5-0.8,1-1.2,1.6c-3.9,0.8-5.3-2.4-7.3-4.4c-0.3,0-0.6-0.1-0.7,0c-3.3,3.8-6-1.6-6.7-4.8   c-17.2-1.1-10.4,0.8-23-9.6c-20.3-8-43.6-13.6-58.4-31.2c0.2-0.2,0.4-0.4,0.6-0.6c16.4,15.2,37,22.7,57.9,29.4   c0.5,1.3,1.6,1.3,2.7,1.2c1.4,0.9,1.9,2.7,3.5,3.4c0.4,1.7,1.9,2.6,3.2,3.7c-1-0.5-1.7-1.5-2.6-2.2c0.1-0.6,0.1-1.2-0.6-1.5   c0.2-0.5,0-1.2,1.1-1.1c6.5,9.8,16.8,0.9,27.4,16c0.8,0.1,1.4,0.1,2.3,0.2c-0.1-3-2.2-4.6-3.5-6.9c0-0.2,0-0.5,0-0.7   c1.9,1.4,4.1,2.5,5,4.8c0.6,1.3,1.3,2.7,3,2.7c1-0.5,0.6-1.7,1.6-2.1c1.1,0.9,2.3,1.8,3.5,2.8c0.3-0.1,0.7-0.1,1.3-0.2   c-1.4-2.7-2.6-5.4-4.9-7.3c-0.6-2.1-1.9-3.8-3.6-5.2C556.7,303.3,557.2,302.8,557.7,302.3z M544.8,311.4c-0.8-1-1.8-1-2.8-1.6   c0.5,2,1.2,2.8,2.4,2.7C544.5,312.2,544.7,311.7,544.8,311.4z M528.1,305.5C528.1,305.4,528.1,305.4,528.1,305.5   c-0.3-0.1-0.6-0.2-0.8-0.2c0,0,0,0.1,0,0.1C527.5,305.4,527.8,305.4,528.1,305.5z" />
	<path display="inline" fill="#070605" d="M378.8,175.8c1.3-0.4,1.2,1,1.9,1.4c-2,10.3,0.9,16.8,10.9,21c-0.2,0.4-0.3,0.7-0.5,1.2   c0.6,0.3,1.1,1,1.8,0.9c6.8,6.9,12.5,15.2,19.7,21.5c0.9-0.2,1.5-0.3,2.1-0.4c-0.3,0.7-0.6,1.4-0.7,1.7c5,8.6,5.4,19.6-0.7,27.6   c-0.2-0.3-0.5-0.6-0.7-0.8c4.2-10.9,2.7-24.1-6.6-32.1c-6.9-5.9-11.6-14.6-19.1-19.5c-0.2-0.6-0.6-1-1.7-0.9   c5.2,10.5,16.9,24.3,5.8,35c-1,0-2,0-2.8-0.7c9.8-6.3,2.6-19.6-0.9-27.8c-2.2,0-4.3,1.1-6.4,0.3c0.2-2.8,3.5-1.5,5.5-2   c-1.7-3.3-2.9-6.5-4.9-9.2c-0.3,0.5-0.6,0.9-1,1.6c-0.9-1.1-1.4-1.9-1.4-3.2c-0.5-0.2-0.9-0.3-1.5-0.4   C378.2,185.8,377.6,180.8,378.8,175.8z" />
	<path display="inline" fill="#060504" d="M407.9,268.8c0.2,0.8-0.3,1.8,0.8,2.3c-8.3,21.6,7.8,33.2,6.8,55.9   c3.1,24.1,22.9,43,27.2,67.1c-0.3,0.7,0.3,1.7-0.8,2.2c-6.8-18-14.6-36.3-24.4-52.6c-2.5-4.6-2.8-10.4-3.9-15.6   c-2.3-0.2-4.6,1-6.3-0.4c2-0.4,3.9-0.8,5.9-1.2C414.3,303.7,398,291.8,407.9,268.8z" />
	<path display="inline" fill="#050404" d="M455.5,554.7c6.4,6.1,11.5,14.3,20.6,16.6c1.7,5.1,4.7,9.8,1.6,15.2   c-0.3,1.1-2.6,2.6-2,0.4c-14.3,1.8-18.8,3.4-32-3.7c-5,0.9-19.1,3.7-20.6-2.6c0.1,0,0.4,0,0.6,0l0,0c6.4,3.8,14,2,20.5,0.2   c8.8,7.5,22.2,7,32.2,2.9c-0.3-2.2,1.2-4.7-0.2-6.4c-1.1-1.2-1.3-3.1-1.9-4.5c-7.5-2-11.7-7.8-17.1-13.4c-4-1-8.2,2.7-12.3,2.1   c0.4-4.7,6.5-4.6,10.1-4.7c0-0.5,0-0.9,0-1.2C455.1,555.2,455.3,555,455.5,554.7z" />
	<path display="inline" fill="#080606" d="M342.6,565.6c0.6,8.5,6.8,14.2,10.8,21c0.6,7.8,0.5,8.4-1.7,10.6   c-2.6-0.4-2.7-0.5-5.2,0.6c-8.6,2.9-21.4,4-28.1-2.9c-2.9-0.5-6.1-0.1-8.9-2.1c4-9.2,3.4-19.6,5.3-29.2c1,1.1,0.2,2.6,1.1,3.6   c-1.4,3.7-0.5,7.6-0.6,11.4c0.4,4.9-3.3,8.5-3.7,13.4c1.9,0.8,3.7,1.1,5.6,0.7c0.2-0.7-0.3-1.5,0.8-2c4.8,11.4,23.2,7.1,32.4,3.3   C355.8,583.4,337.5,576.6,342.6,565.6z" />
	<path display="inline" fill="#080505" d="M466.5,250.6c30.4,9.2,49.8,44.7,83.4,46c2.3-0.6,3.3,0.8,4.4,2.4c0,1,0,2-0.1,3   c-1.6-0.8-1.9-2.2-2.9-3.7c-1.9,0.2-3.7-0.1-5.2-1.5c-31.5-0.4-52.3-34.8-80.3-45.4C466,251,466.3,250.8,466.5,250.6z" />
	<path display="inline" fill="#080706" d="M427.6,552.5c0.4-1.6,1.6-2.4,3-3.3c-1-18.3-6.4-36.1-10.9-53.7c0.9-0.5,0.4-1.4,0.6-2.1   c5.9,17.3,10.4,35,11.9,53.1c1.7-1.9,0.5-3.9,1.1-5.7c1.4,2.2,1.1,6.3,1.2,9.1c-0.3,0.4-0.5,0.8-0.8,1.2c-1.1,0.5-0.6,1.4-0.5,2.2   c-0.1,0.2-0.1,0.4-0.1,0.6c-0.4,0.6-0.7,1.2-1.2,1.9c0.3,0.3,0.5,0.5,0.9,0.9c3-5.4,5.5-10.5,10.4-14.7c0.7,0.2,1.4,0.3,2.2,0.5   c-6.2,1.2-9.1,19.8-14.8,14.1c-0.7-2.1,1.3-3.1-0.3-5.3c-2.3,1.4-1.3,5.1-2,7.4C427.2,556.9,427.8,554.6,427.6,552.5z" />
	<path display="inline" fill="#080707" d="M442.7,544.5c0.7-1.6,2.6-1.8,4.3-2.1c-0.9-18.6,2-36.9,3.7-55.4   c-0.5-11.3-2.9-23.3-1.2-34.4c6.5,29.9-1.4,59.8-0.7,89.8C447.2,544.8,444.9,543.1,442.7,544.5z" />
	<path display="inline" fill="#E0C6B5" d="M297.7,204.4c3-3.1,2.8-9.2,5.1-13.2c2.8-4.4,6.1-8.6,9-12.9c-1.3,6.2-6,11.9-5.4,18.7   c-1.8,4.9,0.8,10.6-1.6,15.4c-0.9-0.2-1.7-0.4-2.4-0.5c-1.2-2.3-1.7-4.8-3.2-6.9c-0.3,0.3-0.5,0.5-0.8,0.7   C297.7,205.5,297.6,205,297.7,204.4z" />
	<path display="inline" fill="#060606" d="M367.7,402.7c0.1,0.7,0,1.4,0.9,1.7c-2.4,18.9,3.5,38.9-6.3,56.4   c-0.2-0.2-0.4-0.5-0.6-0.7C367.3,441.4,363.3,421.5,367.7,402.7z" />
	<path display="inline" fill="#090807" d="M337.8,543.8c1.1-11.9,3.7-23.8,8.8-34.7c0.3,0.3,0.5,0.5,0.8,0.8   c-1.9,6.4-13,43.5-7.9,46.1c0.4,0.2,0.8,0.4,1.2,0.6c-0.3,0.3-0.6,0.6-0.8,0.9l0,0c-0.1-1-1.3-0.5-2-0.8c-3-5.4-8.8,2.9-11.6,0   c0.3-0.3,0.5-1,0.8-1c3.3-0.2,5.1-3.1,8.5-3c0-2.7-0.5-5.7,0.6-8.7c0.3,0,0.6-0.1,0.9-0.1c0.1,0.5,0.2,1,0.4,1.5   c0.1,0,0.2-0.1,0.4-0.1C337.8,544.8,337.8,544.3,337.8,543.8z" />
	<path display="inline" fill="#080707" d="M420.3,493.4c-0.2,0.7,0.3,1.6-0.6,2.1c-2.9-21.6,6.4-23.6-4.2-48.9   c0.2-0.7-0.3-1.6,0.6-2.1c3.2,8.1,6.7,16.1,8.9,24.3c-0.6,0.1-1.2,0.3-1.7,0.4C422.6,477.4,420.5,485.2,420.3,493.4z" />
	<path display="inline" fill="#100C0C" d="M392.3,200.3c-0.4-0.3-0.8-0.6-1.2-0.8c0.2-0.5,0.4-0.8,0.5-1.2c28.9,1,26,7.4,41.5,28.6   l0,0c0.6,0.3,1,0.8,1.4,1.3c-0.2,0.2-0.5,0.3-0.7,0.5C417.9,218.1,426.7,199.6,392.3,200.3z" />
	<path display="inline" fill="#080808" d="M443.9,399.6c3.9,13.7,6.1,28.7,4.2,42.8c-0.2,0-0.5,0-0.7,0   C447.2,428.2,443.2,413.4,443.9,399.6z" />
	<path display="inline" fill="#0C0909" d="M416.2,245.4c0.2-1.5,0.3-3,1.2-4.4c0,0.7,0,1.3,0,2c11.7,11.8,28.1,15,41.5,23.8   c-0.2,0.2-0.4,0.4-0.6,0.6c-10-4.7-20.8-8.3-30.3-13.7C425.5,252.6,417.7,242.7,416.2,245.4z" />
	<path display="inline" fill="#0E0B0A" d="M433.8,228.7c0.2-0.2,0.5-0.3,0.7-0.5c10.2,5.7,19.8,12.7,28.5,20.5l0,0   c0.9,1.1,2.4,1.2,3.6,1.9c-0.2,0.2-0.5,0.5-0.7,0.7C454.2,245.5,444.4,236.1,433.8,228.7z" />
	<path display="inline" fill="#090807" d="M446.7,543.9c1.2,0.3,1.3-1.1,2.1-1.4c0.2,0.7,0.4,1.5,1.4,1.4c0,0,0,0,0,0   c3,2.9,3.7,7.4,5.4,10.9c-0.2,0.3-0.4,0.5-0.7,0.8c-0.6-0.8-1.2-1.5-1.8-2.2c-5.6,0.1-7,3.3-11.9,4.6c-0.7-6.2,6-8.4,11.3-7.1   c-1.3-2.4-2.3-4.3-3.2-5.9C448.1,544.4,447.4,544.1,446.7,543.9z" />
	<path display="inline" fill="#171616" d="M347.4,509.9c-0.3-0.3-0.5-0.5-0.8-0.8c2.8-10,8.1-19.1,6.9-29.8c0.2-0.1,0.3-0.2,0.5-0.3   C357.4,489.7,351.6,500.3,347.4,509.9z" />
	<path display="inline" fill="#26221F" d="M326.3,556.7c0.2,0.7,0.9,0.7,1.4,0.8c-3.2,2.8-6,5.9-8.2,9.4c-1,0.4-1.9,0.2-2.7-0.6   c0-0.6,0-1.3,0-2.2c0.8,0.5,1.3,0.8,1.9,1.1c0.4-0.6,0.9-1.2,1.3-1.8c-0.7-2.5-1.5-4.9-0.5-7.5c0.3,0.7-0.3,1.8,0.8,2.3   c0.1,1.2,0,2.6,1,3.8C323,560,324.2,558,326.3,556.7z" />
	<path display="inline" fill="#241F1E" d="M298.5,205.7c0.2-0.2,0.5-0.4,0.8-0.7c2,2.7,2.2,6.5,4.6,8.9c0.7,4.4,5.8,5.3,9,7.4   c-0.5,0.2-1,0.5-1.5,0.7C303.8,219.6,300.3,212.8,298.5,205.7z" />
	<path display="inline" fill="#1E1B1A" d="M361.6,460.1c0.2,0.2,0.4,0.5,0.6,0.7c-0.8,5.1-2.2,10.6-6.1,14.2c-0.2,0-0.5,0-0.6,0   C357,469.8,359.7,465.1,361.6,460.1z" />
	<path display="inline" fill="#312724" d="M339.9,135c-1.5,1-2.4,2.2-2.1,4.1c-0.2,0-0.5,0-0.6,0c-0.2-1.6-1-2.8-1.9-4   c-1.1-0.2-2.1-0.4-3,0.5c0.1,0.7,0.1,1.4,0.2,2.2c-0.4,0.2-0.8,0.5-1.3,0.7c0.1-2.6-2.4-4.6-4.2-2c-0.2-0.3-0.4-0.5-0.6-0.8   c0-0.2-0.1-0.5-0.1-0.7C330.4,132.8,335.6,133.4,339.9,135z" />
	<path display="inline" fill="#35302E" d="M383.5,175.1c6.6-0.3,5.9-13.4,8.2-18.4c2.3,3.4-2.7,14.7-4.4,18.7c-1,0.2-2,0.3-3,0.5   C384,175.6,383.8,175.4,383.5,175.1z" />
	<path display="inline" fill="#3F3A38" d="M392.4,159.1c-0.3-0.8,0.3-1.9-0.8-2.4c0.6-5.3-1.2-10.1-2.8-14.9   c0.7-0.3,0.7-0.9,0.7-1.5c0.2-0.5,0.4-0.9,0.6-1.4c0.3,0.7-0.3,1.7,0.8,2.2C391.1,147.1,394.7,153.1,392.4,159.1z" />
	<path display="inline" fill="#080706" d="M424.9,568.8c-0.1-0.2-0.1-0.3,0.1-0.5c1.3-0.6,0.2-2,1.3-2.8c0,0,0,0,0,0   c1.6-1.3,0.3-3.6,0.9-5.4c0.8,2,1.4,5.1,0,6.8c0,0,0,0,0,0c-1.8,2.4-1.1,6.5-1.4,9.5c-1.2,0.9-0.1,3-2,3.4c0.1-0.7-0.3-1.5,0.1-2.1   c1-0.6,0.6-1.4,0.5-2.2C424.1,573.2,425.4,571.3,424.9,568.8z" />
	<path display="inline" fill="#2A2725" d="M339.9,557.5c0.3-0.3,0.6-0.6,0.8-0.9c3.9,3.5,1.5,8.3,1.2,12.6   C340.3,565.3,342.4,561.1,339.9,557.5z" />
	<path display="inline" fill="#241F1B" d="M412.6,249.7c0.2,0.3,0.5,0.6,0.7,0.8c-2.8,2.8-2.7,6.6-3.3,10.4c0.2-2.4-0.9-4.4-0.8-6.8   c-0.8-0.1-1.3-0.2-1.8-0.3C408.3,251.8,411.5,252,412.6,249.7z" />
	<path display="inline" fill="#201E1E" d="M447.4,442.5c0.2,0,0.5,0,0.7,0c-0.5,3.6,1.4,6.7,1.3,10.2c-0.7,1.1-0.7,2.3-0.7,3.6   C448.2,451.6,446,447.1,447.4,442.5z" />
	<path display="inline" fill="#1B1A18" d="M427.8,565.8c0.2-4.5-2-9-0.2-13.3C427.4,557,429.2,561.3,427.8,565.8z" />
	<path display="inline" fill="#D0B8A9" d="M326.4,135c0.2,1.3-0.2,2.4-0.4,3.8c-0.8,0.1-1.5,0.2-2.2,0.3c-1.9-2.9,1.6-1.9,1-3.9   C325.3,135,325.8,135,326.4,135z" />
	<path display="inline" fill="#2E2523" d="M554.2,301.9c0-0.3,0.1-0.6,0.1-1c0.2,0,0.5,0.1,0.7,0c0.1,0.2,0,0.8,0.5,0.3   c-0.5-0.1-0.8-0.5-1.2-0.9c0-0.5,0-1,0-1.5c1.7,0.6,2.7,1.8,3.4,3.4c-0.5,0.5-1,1-1.4,1.5C555.5,303.2,554.9,302.5,554.2,301.9z" />
	<path display="inline" fill="#272423" d="M443.9,399.6c-0.7,0.8-0.7,1.8-0.7,2.8c-0.4-2.1-0.9-4.2-1.3-6.3c1.1-0.4,0.4-1.5,0.8-2.2   C443.1,395.9,443.5,397.7,443.9,399.6z" />
	<path display="inline" fill="#43413B" d="M318.8,558.7c0,1.1,1,1.9,0.6,3.1c-2.2,0.1-3.1,1.4-3.9,3.2c-0.2-0.5-0.4-0.9-0.6-1.4   c0.6-1.4,1.3-2.6,3-2.9C318.1,560.1,318.5,559.4,318.8,558.7z" />
	<path display="inline" fill="#F7EFD0" d="M450.1,543.8c-2.8-0.9-0.7-5.8-1.3-8.2C450.4,538.1,448.6,541.3,450.1,543.8z" />
	<path display="inline" fill="#35302E" d="M411.3,439.2c0.3-0.3,0.5-0.6,0.8-0.9c1,1.3,1.9,2.7,2.9,4c-0.3,0-0.7,0.1-1,0.1   C413.1,441.4,412.2,440.3,411.3,439.2z" />
	<path display="inline" fill="#2A2725" d="M338.4,554.7c-1-1.5-1-4.6,0.2-6.1C338.5,550.6,338.5,552.7,338.4,554.7z" />
	<path display="inline" fill="#5E3431" d="M383.5,175.1c0.3,0.3,0.5,0.5,0.8,0.8c-1.1,0.9-2.4,0.2-3.5,0.6   C380.6,174.9,382.4,175.2,383.5,175.1z" />
	<path display="inline" fill="#252221" d="M414,442.5c0.3,0,0.7-0.1,1-0.1c0.3,0.7,0.7,1.5,1,2.2c-0.9,0.5-0.4,1.4-0.6,2.1   C414.9,445.2,414.5,443.9,414,442.5z" />
	<path display="inline" fill="#1B1A18" d="M424.9,568.8c-0.1,1.5,0.5,3.1-0.6,4.3C424.2,571.6,424.1,570.1,424.9,568.8z" />
	<path display="inline" fill="#1B1A18" d="M426.9,561.9c0,1.3,0.6,2.7-0.7,3.6C426.5,564.3,426.7,563.1,426.9,561.9z" />
	<path display="inline" fill="#1B1A18" d="M425.7,566.3c0,0.7,0.3,1.6-0.7,2C424.9,567.5,425,566.8,425.7,566.3z" />
	<path display="inline" fill="#1B1A18" d="M424.2,575.6c0.1,0.8,0.4,1.7-0.5,2.2C423.9,577.1,424,576.4,424.2,575.6z" />
	<path display="inline" fill="#1B1A18" d="M423.6,578.4c0,0.7,0.1,1.4,0.1,2.2c-0.1,0-0.4,0.1-0.6,0   C423.1,579.8,422.8,579,423.6,578.4z" />
	<path display="inline" fill="#F7EFD0" d="M450.9,544.4c-0.2-0.2-0.5-0.4-0.7-0.6C450.4,544,450.6,544.2,450.9,544.4z" />
	<path display="inline" fill="#F6D9C7" d="M356.2,475c0.2-0.1,0.4-0.3,0.7-0.4C356.7,474.7,356.4,474.9,356.2,475z" />
	<path display="inline" fill="#35302E" d="M410.6,438.4c0.2,0.2,0.4,0.5,0.6,0.7C411.1,438.9,410.9,438.7,410.6,438.4z" />
	<path display="inline" fill="#1B1A18" d="M426.3,565.5c-0.2,0.3-0.4,0.5-0.6,0.8C425.9,566,426.1,565.8,426.3,565.5z" />
	<path display="inline" fill="#F6D9C7" d="M463.7,249.4c-0.2-0.3-0.5-0.5-0.7-0.8C463.2,248.9,463.4,249.2,463.7,249.4z" />
	<path display="inline" fill="#F6D9C7" d="M463,248.7c-0.2-0.3-0.5-0.5-0.7-0.8C462.5,248.2,462.7,248.4,463,248.7z" />
	<path display="inline" fill="#E1C7B6" d="M417.5,244.7c0.2,0.2,0.3,0.3,0.5,0.5C417.9,245,417.7,244.8,417.5,244.7z" />
	<path display="inline" fill="#F6D9C7" d="M433.8,227.4c-0.3-0.2-0.5-0.4-0.8-0.5C433.3,227,433.6,227.2,433.8,227.4z" />
	<path display="inline" fill="#F6D9C7" d="M433.1,226.9c-0.3-0.2-0.6-0.4-0.9-0.6C432.5,226.4,432.8,226.6,433.1,226.9z" />
	<path display="inline" fill="#2A2725" d="M339.5,555.9c-0.6,0.1-0.8-0.2-0.8-0.8C338.9,555.4,339.2,555.7,339.5,555.9z" />
	<path display="inline" fill="#E1C7B6" d="M325.1,557.5c-1.2,1.4-2.5,2.9-3.9,4.4c-1-1.2-0.8-2.5-1-3.8c10-31-14.3-69.7,12.5-98   c7.9-25.9-6.8-52.6-9-78.5c6.8-2.4,14.7-0.9,21.7,0.3c-1.5,0-2.9,0-4.4,0c-2.8,21.6-3.3,45.8,0.2,67.2c1.4,1.4,2.5,2.5,3.7,3.7   c-1.4,3.5-4.3,11.2-0.4,13.5c0.4-3.5-0.8-6.8,0.6-9.8c-0.1,5.1,0.8,9.9-2.5,14.7c-2.8-2.4-3-6.4-4.6-9.6   c-3.7,4.5-4.1,12.3-9.9,15.5c0-1.1,1.8-3.9-0.1-3.9c-2.2,3.4-3.2,6.9-2.9,10c0.3,0,0.7-0.1,1-0.1c0.1,1.2-1.1,0.7-1.5,1.2   c0.3,0.4,0.6,0.9,0.8,1.3c-1.5-0.7-2.3,2.3-0.6,2.4c-0.7,1.1-0.6,2.4-0.8,3.6c-1.6,0.8-1.6,1.1-0.8,3c0.3-0.2,0.5-0.4,0.8-0.6   c0,2,0,3.9,0,5.9c-0.3-0.1-0.6-0.1-1.2-0.2c0,0.6-0.1,1-0.2,2.1c0.7-0.8,1-1.2,1.4-1.6c0.3,13.8,2.1,27.4,1.4,41.4   C325.6,546.6,322.9,552.9,325.1,557.5z" />
	<path display="inline" fill="#2E2925" d="M345.2,456.5c-1.5,3-0.2,6.3-0.6,9.8c-4-2.3-1-10.1,0.4-13.5l0.1,0c0.8,1,0.2,2.2,0.3,3.3   C345.2,456.2,345.2,456.3,345.2,456.5z" />
	<path display="inline" fill="#2C2724" d="M326.2,483.1c-0.3,0-0.7,0.1-1,0.1c-0.3-3.1,0.7-6.6,2.9-10   C330.6,474.3,326.5,480.7,326.2,483.1z" />
	<path display="inline" fill="#38302C" d="M353.4,465.2c-0.1-2.6,2-3.7,2.3-6.1C357.9,461.4,356,463.7,353.4,465.2z" />
	<path display="inline" fill="#38312D" d="M337.5,534.1c-1-0.7-1-0.7-1.2-2.9C337.3,531.9,337.3,531.8,337.5,534.1z" />
	<path display="inline" fill="#242320" d="M324.2,494c-0.3,0.2-0.5,0.4-0.8,0.6c-0.9-1.9-0.8-2.2,0.8-3l0,0   C324.3,492.4,324.3,493.2,324.2,494z" />
	<path display="inline" fill="#28221F" d="M344.6,488.6c0.2-0.9,0.4-1.9,1.7-2c0.1,1.4-0.7,2.3-1,3.5   C344.5,489.9,344.8,489.1,344.6,488.6z" />
	<path display="inline" fill="#493A37" d="M353.5,478c-0.7,0.5-1.4,1-2.1,1.6c0.1-1.4,0.1-1.4,2.2-3.2   C353.5,476.9,353.5,477.4,353.5,478z" />
	<path display="inline" fill="#261D1B" d="M324.9,488c-1.7-0.2-0.9-3.1,0.6-2.4C325.3,486.3,325.1,487.1,324.9,488z" />
	<path display="inline" fill="#66625B" d="M344.6,488.6c0.2,0.5,0,1.3,0.8,1.4c-0.2,0.6-0.4,1.1-0.7,1.9   C343.9,490.3,343.9,490.3,344.6,488.6z" />
	<path display="inline" fill="#3B2B28" d="M336.9,526.4c1.1,0.9,0.7,1.7,0.2,2.7C336.4,527.8,336.4,527.8,336.9,526.4z" />
	<path display="inline" fill="#140F0E" d="M354.8,480.5c-1-1.4-0.6-3-0.5-4.6C355.7,477.1,354.7,479,354.8,480.5z" />
	<path display="inline" fill="#655B53" d="M340.8,502.2c-0.5-1.3-0.2-2,1-2.3C342.2,500.9,342.1,501.6,340.8,502.2z" />
	<path display="inline" fill="#E1C7B6" d="M345.4,456.1c0-1.1,0.5-2.3-0.3-3.3C346.5,453,346.3,454.9,345.4,456.1z" />
	<path display="inline" fill="#9D877F" d="M354.3,475.9c-0.1,1-0.2,2.1-0.2,3.1c-0.2,0.1-0.3,0.2-0.5,0.3c-0.1-1-0.1-1.9-0.1-2.9   C353.8,476.2,354.1,476.1,354.3,475.9z" />
	<path display="inline" fill="#3D3B36" d="M343.7,495.7c-0.2,0.7-0.3,1.4-0.6,2.3C342.5,496.6,342.5,496.6,343.7,495.7z" />
	<path display="inline" fill="#49443F" d="M337.1,537.1c0,0.8,0,1.5,0,2.4C336,538,336,538,337.1,537.1z" />
	<path display="inline" fill="#281816" d="M324.2,500.1c-0.3,0.4-0.7,0.8-1.4,1.6c0.1-1,0.1-1.5,0.2-2.1c0.5,0.1,0.8,0.1,1.2,0.2   C324.1,499.8,324.2,500.1,324.2,500.1z" />
	<path display="inline" fill="#96867C" d="M350.1,482.3c-0.4,0.2-0.7,0.4-1.1,0.6C348.6,482.2,349.3,481.6,350.1,482.3z" />
	<path display="inline" fill="#8B756F" d="M337.8,543.8c0,0.5,0,1,0,1.6c-0.1,0-0.2,0.1-0.4,0.1c-0.1-0.5-0.2-1-0.4-1.5   C337.3,543.9,337.6,543.8,337.8,543.8z" />
	<path display="inline" fill="#E1C7B6" d="M324.3,492.8c-0.1-0.4-0.1-0.8-0.2-1.3C325.1,492,325.1,492,324.3,492.8z" />
	<path display="inline" fill="#E0C7B6" d="M378.8,175.8c-1.2,4.9-0.6,9.9-1.1,15c0.6,0.2,0.9,0.3,1.5,0.4c0.1,0.5,0.1,1,0.2,1.5   c-0.6-0.2-1.2-0.4-1.9-0.5c-0.1-1.1-0.3-2.2-0.4-3.5c-6.7-0.1-10.4-5.7-15.2-9.5c-0.2,1.7,0.7,2.7,1.3,3.9   c-0.3,0.3-0.5,0.5-0.8,0.8c-1.1-1.4-1.5-3.1-1.9-4.8c1.3-1.7,0.1-4.4-1.6-5.9c0.4,2,0.6,3.3,0.9,4.6c-2.3,3.6-4.7,7.1-8,9.5   c-1.3,0-2.4,0-3.5,0c5.8-7.3,5.8-17,4.1-25.8c0.1-0.2,0.2-0.4,0.2-0.6c0.6,0,1.3,0,1.9,0c0.1,2.4,1.9,5.6,4,6.4c0-0.3,0-0.6,0-0.9   c1.9,1.2,2.7,3.6,4.9,4.6c-0.2,0.2-0.4,0.4-0.6,0.7c3.4,3,9.4,5.8,13.6,3.5C376.8,175.7,377.8,175.8,378.8,175.8z" />
	<path display="inline" fill="#483B31" d="M342.6,140.4c0.2-0.4,0.4-0.8,0.6-1.3c2.5,0.6,7.6,2.7,8.9-0.2c-0.5-0.2-0.9-0.4-1.4-0.6   c0.5-0.7,1.3-0.8,2.1-0.7c0.2,0.4,0.4,0.6,0.9,0.5c-1.2-2-4.3-0.9-6.3-1.3c-0.2-0.6-0.5-1.3-0.7-1.9l0,0c0.6-0.1,1,0.2,1.4,0.6   c1.3,0,2.5-0.1,3.7-0.1c0.1-0.5,0.2-0.8,0.3-1.1c-0.4-0.5-0.9-1-1.3-1.5c0.5-0.2,0.9-0.3,1.4-0.5c1,1,2.1,1.3,3.4,1.3   c0,0.2,0,0.3,0,0.5c-0.3,0.4-0.7,0.8-1.1,1.2c1.4,0.7,2.3-1,3.6-0.7c0.1,0.5,0.2,1.1,0.2,1.7c-0.3,0-0.7,0-0.8,0.4   c0.4,0.1,0.5-0.2,0.8-0.5c0.2,0.2,0.6,0.5,0.6,0.6c-1.1,1.3-0.6,3.6-2.6,4.4c-0.3-0.7-1.4-1.9-2.2-1.4c-3.4,2-7.4,0.8-10.8,1.2   C343.1,140.8,342.9,140.6,342.6,140.4z" />
	<path display="inline" fill="#302621" d="M350.6,150.6c0,0.7,0.1,1.4,0.1,2c-0.4,0-0.7,0-1.1,0c0.1-0.4,0.1-0.8,0.2-1.2   c-1.1-0.2-1.4,0.5-1.7,1.2l0,0c-0.2,0-0.4-0.1-0.6-0.1c-0.6-1.3,0.9-2,0.4-3.3c-1.6,0.3-0.8,2.2-2.5,2c0.4-1.3,0.5-2.8,1.4-3.9   c2.2,0.6,2.9,2.3,5.5,1.2c-1.3,0-2.1,0-2.8,0c-2.4-4.3-5.7-0.2-4.1,2.7c0.3,1,0.2,2.1-0.1,3c-2.8-2.7-1.8-5.3-0.6-8.4   c0.8-0.3,1.7-0.6,2.5-0.9c0.6,0.4,1.3,0.8,1.8,1.2c1.9-0.6,4.1-0.3,5.9-1c1.4,1.5-1.4,1.8-2.2,2.3c0.7,0.7,1.4,1.4,2.1,2.1   c-0.1,0.9-0.7,0.8-1.2,0.8c-1-0.8-2.1-0.8-3.2-0.3C350.5,150.3,350.5,150.5,350.6,150.6z" />
	<path display="inline" fill="#161310" d="M371.8,122.5c-4.6-0.5-8.8-3.5-13.5-4.5c1-0.1,2,0,2.7-0.7c1.9-0.1,3.5,0.6,5.4,0.6   c0,0-0.1,0-0.1,0c2.1,1.1,4.8,1.3,6.7,2.8C373.6,122,372.4,121.8,371.8,122.5z" />
	<path display="inline" fill="#C5B698" d="M343.9,126.8c0.7-1.1,1.5-2.3,2.2-3.4c0.6,0.6,1.2,1.2,2.2,2.1c2,0.4,4.8,1.2,7.2,1.4   c0.1,0.2,0.1,0.4,0.1,0.6c-3.3-0.3-6-1-9.4-0.5c3.1,1,7,2.3,9.4,0.5c0.5,0,0.9,0,1.4-0.1c0.4,0.4,0.7,0.8,0.7,1.3   c-3.3,0.5-7.2-0.6-10.2,0.8C345.8,129.1,344.2,128.8,343.9,126.8z" />
	<path display="inline" fill="#D7B5A5" d="M388.9,162.3c-0.2,0.9,0.5,2-0.6,2.6c-1.8-1.1-5,0.4-7.3,0.3c-0.1,0.4-0.1,0.7-0.2,1   c-0.9-0.9-1.8-1.8-2.8-2.7C381.7,162.9,385.2,161.8,388.9,162.3z" />
	<path display="inline" fill="#291F1C" d="M388.9,162.3c-3.7-0.5-7.3,0.6-10.9,1.3c-0.7-0.3-1.4-0.5-2.5-1c0.8-0.5,1.2-1,1.6-0.9   c4.1,0.1,7.8-2.5,11.9-0.5C389,161.6,389,161.9,388.9,162.3z" />
	<path display="inline" fill="#565246" d="M358.3,118.1c2.9,1.1,6,1.7,8.8,3.1c-5.3,0.2-10.5-1.3-15.7-2c1-0.5,2-1,2.8-1.8   c0,0.3,0,0.6,0.1,0.9C355.7,119.1,357,118.4,358.3,118.1z" />
	<path display="inline" fill="#2B2423" d="M375.9,142.5c0.2,0.6,0.4,1.2,0.7,2c-0.5,0-0.9,0-1.3,0c-0.1-0.2-0.2-0.4-0.4-0.6   c-0.1,0.1-0.1,0.2-0.2,0.2c0.2,0.1,0.4,0.2,0.6,0.3c-0.3,2.3-3.9,3.2-4.6,0.8c-0.2-0.5,0-1.2-0.8-1.2c0-0.2,0-0.5,0.1-0.7   C371.8,142.4,373.9,142.1,375.9,142.5z" />
	<path display="inline" fill="#8F8D76" d="M352.2,132.4c-0.5,0.2-0.9,0.3-1.4,0.5c-0.2-0.1-0.5-0.1-0.7-0.2c-0.8-1-2.1-0.1-3-0.7   c0.3-0.4,0.7-0.8,1-1.1c0.5,0,1,0.1,1.5,0.1c1.1,0.9,2.2,0.9,3.3-0.1c0.7-0.1,1.5,0.3,2-0.5c1.4-0.1,2.7-0.1,4.1-0.2   c-0.6,0.8-1.9,1.3-2.7,2.1C355.4,130.7,353.4,132.3,352.2,132.4z" />
	<path display="inline" fill="#857866" d="M375.6,118.6c0.7,0.9,1,2.3,2.5,2.1c0.2,0.2,0.4,0.3,0.6,0.5c0,0.3,0,0.6-0.1,0.9   c-0.2,0-0.5,0-0.7-0.1c-0.1-0.2-0.1-0.3-0.3-0.3c0.4,0.3,0.7,0.7,1.1,1c0,0,0,0,0,0c-0.8,0.9-1.7,0.3-2.7,0c-0.7-1-0.8-2.4-2.1-2.8   c-0.9-0.4-1.4-1-1.3-2C373.6,118.1,374.6,118.4,375.6,118.6z" />
	<path display="inline" fill="#1B1918" d="M388.9,141.8c0,0.6,0.4,1.4,0.1,1.9c-1.2,0.7-0.4,2.4-2.6,2c-0.1-1.3-1.1-2.1-1.9-3.2   c0.6-0.3,1.1-0.7,1.7-1C387,141.7,388,141.8,388.9,141.8z" />
	<path display="inline" fill="#392D29" d="M380.8,166.2c0.1-0.3,0.1-0.6,0.2-1c2.3,0.1,5.5-1.4,7.3-0.3   C386.1,166.8,383.6,167.3,380.8,166.2z" />
	<path display="inline" fill="#3A2F27" d="M350.9,145.8c-0.6,0.1-1.2,0.3-1.9,0.4c-0.6-0.4-1.2-0.8-1.8-1.2c3.2-0.5,6.1-1.5,9.1-2.6   C355.4,144.8,352.9,144.9,350.9,145.8z" />
	<path display="inline" fill="#CBB9AA" d="M386.1,141.6c-0.6,0.3-1.1,0.7-1.7,1c0.7,1.1,1.7,1.9,1.9,3.2c-1.1-0.5-1.5-1.8-2.7-2   l-0.3,0.2c-0.2-0.8-0.5-1.5-0.7-2.3c0.3-0.6,0.6-1.3,0.8-1.9c1.2,1.9,2,1.1,4.3,0.5C386.9,140.9,386.5,141.3,386.1,141.6z" />
	<path display="inline" fill="#302721" d="M359.1,122.6c0.6,0.1,1.3,0.1,1.9,0.2c0,0.2,0,0.4,0,0.6c-0.4,0-0.9,0.1-1.3,0.1   c-0.7,0.7-1.4,1.3-2.1,1.9c-1.8-0.2-3.6-0.5-5.4-0.7c0.1-0.1,0.1-0.2,0.1-0.4c1.8-0.4,4,0,5.4-1.6   C358.1,122.6,358.6,122.6,359.1,122.6z" />
	<path display="inline" fill="#4B4037" d="M345.3,154.3c0.1-0.4,0.2-0.8,0.3-1.2c0.2,0.1,0.3,0.2,0.5,0.2c0.6,1.5,1.8,2.7,2.7,4.1   c-0.2,0.2-0.5,0.5-0.7,0.7c-1.2,0.2-0.5,1.5-1.4,2.1c-0.2-0.1-0.4-0.2-0.5-0.2C346,158.1,346.2,156.1,345.3,154.3z" />
	<path display="inline" fill="#5F5049" d="M386.6,151.3c-1.6-2-3.3-4.1-4-6.7c0.3-0.3,0.6-0.7,1-0.9c0.2,2.8,2.7,5,3.8,7.6   C387.1,151.3,386.9,151.3,386.6,151.3z" />
	<path display="inline" fill="#463B36" d="M356.2,165.6c-1-1.4-2.1-2.8-2-4.8c-0.3-0.3-0.6-0.6-0.9-0.9c0.3-0.2,0.7-0.5,1.2-0.8   c0.9,2,1.8,3.8,2.6,5.6C356.8,165,356.5,165.3,356.2,165.6z" />
	<path display="inline" fill="#382623" d="M378.3,137.6c0.2-0.1,0.4,0,0.5,0.1c-0.8,1.5-2.9,0.5-4.3,0.8l0-0.1   c-1.3-1.7-3.8,0.2-5.4-1.1c2.3-0.8,4.6-0.3,6.8,0C376.7,138,377.5,137.6,378.3,137.6z" />
	<path display="inline" fill="#473D38" d="M379.5,155.1c1.7,0.7,3.5-2.4,4.7-0.3c-0.6,1.2-3.8,2.3-4.8,1.3   C379.4,155.8,379.4,155.4,379.5,155.1z" />
	<path display="inline" fill="#7A5F57" d="M368.6,174.9c-2.5-0.3-4.3-1.7-6.2-3.4c0.2-0.3,0.4-0.5,0.6-0.7c1.2,0.9,2.5,1.8,3.8,2.7   c1,0.1,1.9,0.1,2.9,0.2c0.1,0.2,0.1,0.4,0.2,0.5C369.5,174.5,369.1,174.7,368.6,174.9z" />
	<path display="inline" fill="#524941" d="M358.3,135.6c-0.1-0.3-0.1-0.6-0.2-0.9c-1.3-0.3-2.2,1.4-3.6,0.7c0.6-0.7,1.1-1.4,2.1-1.6   c-0.1-0.1-0.3-0.3-0.4-0.4c0.5-0.9,1.3,0.1,2,0c0.5,0,0.9-0.3,2-0.8C359.3,134,358.8,134.8,358.3,135.6z" />
	<path display="inline" fill="#4B3D38" d="M386.6,151.3c0.3,0,0.5,0,0.8,0c0.9,1.2,0.5,2.5,0,3.7c-0.8,0.6-1.6,0.6-2.5,0.8   c-0.2-1.7,1.4-1.9,1.9-3.1C386.8,152.4,386.7,151.9,386.6,151.3z" />
	<path display="inline" fill="#5E322A" d="M354.9,130.3c-0.5,0.8-1.3,0.4-2,0.5l0,0c0.3-0.4,0.7-0.8,1.1-1.3c-0.9,0-1.7-0.1-2.5-0.1   c0-0.2,0-0.4,0-0.6c2-0.1,4.1-0.1,6.1-0.2c0.3,0.2,0.5,0.5,0.8,0.7C357.2,129.5,355.7,129.1,354.9,130.3z" />
	<path display="inline" fill="#534842" d="M351.4,154.1c1.8,1.5,1.8,1.5,0.6,3.3c-1.5-0.2-1.2-1.9-2-2.7   C350.5,154.5,351,154.3,351.4,154.1z" />
	<path display="inline" fill="#9B7665" d="M359.1,122.6c-0.5,0-1,0-1.5,0.1c-0.3-0.2-0.5-0.4-0.8-0.5c-0.2,0-0.4-0.1-0.6-0.2   c1.8-1.5,4.3,0.4,6-1.1c0.3,0.1,0.5,0.2,0.8,0.4C362.4,123.1,360.1,121.3,359.1,122.6z" />
	<path display="inline" fill="#656153" d="M375.3,121.5c0.2,0.4,0.5,0.8,0.7,1.2c-0.3,0.3-0.7,0.5-1.2,0.9c-0.7-0.6-1.9-1.1-3-1.1   c0.5-0.7,1.7-0.5,1.3-1.8C373.9,121,374.6,121.3,375.3,121.5z" />
	<path display="inline" fill="#352D29" d="M369.2,137.2c1.6,1.4,4.1-0.6,5.4,1.1c-2-0.1-4-0.2-5.9,0.1c-0.5-0.2-1-0.4-1.4-0.6   C367.9,137.6,368.6,137.4,369.2,137.2z" />
	<path display="inline" fill="#422C27" d="M348.1,158.1c0.2-0.2,0.5-0.5,0.7-0.7c0.9,0.7,1.8,1.4,2.8,2l-0.1,0.2   c-0.9-0.2-1.6-0.3-2.6-0.6c0,0.7,0,1.2,0,1.7c-0.2,0-0.4,0-0.6-0.1C348.1,159.9,348.1,159,348.1,158.1z" />
	<path display="inline" fill="#635049" d="M367.2,137.8c0.5,0.2,1,0.4,1.4,0.6c-1.1,0.8-2.3,1.7-3.6,2.6   C365.6,139,365.6,139,367.2,137.8z" />
	<path display="inline" fill="#49221D" d="M355.4,126.9c-0.4,0-0.8-0.1-1.2-0.1c0-0.2,0-0.4,0-0.7c0.9,0.3,6.1-0.8,4.8,0.7   c-0.6,0.6-1.2,1-2,0.6C356.6,126.7,356,126.7,355.4,126.9z" />
	<path display="inline" fill="#E0C7B6" d="M370,174.3c-0.1-0.2-0.2-0.3-0.2-0.5c2.2-0.2,4.3,0.2,6.3,1.2c-0.1,0.1-0.2,0.2-0.3,0.2   c-1.1-0.1-2.1-0.1-3.2-0.2C371.9,174.2,370.8,174.6,370,174.3z" />
	<path display="inline" fill="#5E534E" d="M370,143.3c0,0.2,0,0.5-0.1,0.7c-0.5,0.4-1,0.8-1.6,1.3c-0.4-0.7-0.8-1.2-1.1-1.8   c0.5-0.7,1-1.2,2-1.2c0,0.3,0,0.5,0,0.8c-0.1,0.1-0.8,0-0.3,0.5c0.1-0.2,0.2-0.3,0.3-0.5C369.4,143.2,369.7,143.2,370,143.3z" />
	<path display="inline" fill="#897D6B" d="M361,123.4c0-0.2,0-0.4,0-0.6c0.6,0,1.2,0,2.1,0c-0.5,1.3-1.2,2-2.1,2.6   c-0.2-0.2-0.4-0.4-0.6-0.6C360.5,124.3,360.8,123.8,361,123.4z" />
	<path display="inline" fill="#AEA294" d="M345.5,152c0-0.2-0.1-0.5-0.1-0.7l0,0c1.7,0.2,0.9-1.7,2.5-2c0.5,1.4-1,2-0.4,3.3   c-0.3,0-0.5,0-0.8,0c-0.2-0.2-0.4-0.4-0.5-0.6C345.9,152,345.7,152,345.5,152z" />
	<path display="inline" fill="#81756B" d="M383.3,143.9c-0.2,0.2-0.5,0.5-0.7,0.7c-0.9-1.4-1.9-2.7-0.7-4.4   C382.6,141.4,382.9,142.6,383.3,143.9z" />
	<path display="inline" fill="#967D73" d="M370,143.3c-0.3-0.1-0.5-0.1-0.8-0.2c0,0,0,0,0,0c0-0.3,0-0.5,0-0.8l0,0.1   c1.8,0.2,1.2-2,3.5-1.2c0,0.1,0,0.3,0,0.4c-0.6,0.1-1.6,0.4-0.7,0.9C371.3,142.8,370.6,143,370,143.3z" />
	<path display="inline" fill="#5C574A" d="M360.3,124.7c0.2,0.2,0.4,0.4,0.6,0.6c-0.3,0.6-0.6,1.2-1,2.1c-0.5,0-1.1,0-1.7,0   c0.4-0.5,1.8-1,0.6-1.4C359.3,125.6,359.8,125.1,360.3,124.7z" />
	<path display="inline" fill="#85998D" d="M374.6,138.5c1.4-0.3,3.5,0.7,4.3-0.8c0.5,0.3,0.5,0.7,0.1,1.2   C377.6,139,376,139.5,374.6,138.5z" />
	<path display="inline" fill="#453129" d="M352.2,132.4c1.2-0.1,3.2-1.7,4-0.2c-1.1,0.3-2.1,0.5-3.2,0.8   C352.8,132.8,352.5,132.6,352.2,132.4z" />
	<path display="inline" fill="#1C1513" d="M351.4,154.1c-0.6,0.2-1.2,0.8-1.9,0.5c0-0.7,0.1-1.3,0.1-2c0.4,0,0.7,0,1.1,0   C350.9,153.1,351.2,153.6,351.4,154.1z" />
	<path display="inline" fill="#B7A496" d="M349.6,152.7c0,0.7-0.1,1.3-0.1,2c-0.6-0.6-1.1-1.2-1.4-2c0.4-0.7,0.7-1.4,1.7-1.2   C349.8,151.9,349.7,152.3,349.6,152.7z" />
	<path display="inline" fill="#928E77" d="M356.3,142.4c-0.7,0.2-1.4,0.4-2.1,0.6c-0.2-0.7-0.9-0.5-1.4-0.7c1.1-0.5,2.3-1,3.5-1.5   C356.4,141.4,356.2,141.9,356.3,142.4z" />
	<path display="inline" fill="#705750" d="M372.6,141.6c0-0.1,0-0.3,0-0.4c1.1-0.1,2.1-0.1,3.3-0.2c0,0.7,0,1.1,0,1.5   c-0.3-0.1-0.5-0.1-0.8-0.2C374.5,141.4,373.4,142,372.6,141.6z" />
	<path display="inline" fill="#4B3A35" d="M382.6,141.6c-0.2-0.5-0.4-0.9-0.7-1.4c0.2-0.9,0.5-1.7,1.6-1.9l-0.1-0.1   C383.6,139.5,383.1,140.5,382.6,141.6z" />
	<path display="inline" fill="#756960" d="M356.2,165.6c0.3-0.3,0.6-0.6,0.9-0.9c0.4,0.5,0.7,1,1.1,1.6c0,0.3,0,0.6,0,0.9   C357.1,166.9,357.1,166.9,356.2,165.6z" />
	<path display="inline" fill="#12100D" d="M354.9,130.3c0.9-1.2,2.3-0.8,3.6-0.9c0.2,0.2,0.3,0.5,0.5,0.7   C357.6,130.2,356.2,130.3,354.9,130.3z" />
	<path display="inline" fill="#B7A496" d="M350.6,150.6c-0.1-0.2-0.2-0.3-0.2-0.5c1.1-0.5,2.2-0.4,3.2,0.3   C352.6,150.5,351.6,150.6,350.6,150.6z" />
	<path display="inline" fill="#533E39" d="M383.6,156.9c0.6,1,0.9,1.5,1.1,1.9c-0.1,0.1-0.2,0.2-0.4,0.3   C383.4,158.4,383.5,158.5,383.6,156.9z" />
	<path display="inline" fill="#6B5952" d="M379.5,155.1c0,0.3-0.1,0.6-0.1,1c-1-0.4-0.9-1-0.4-1.9   C379.2,154.6,379.3,154.9,379.5,155.1z" />
	<path display="inline" fill="#352D29" d="M378.3,137.6c-0.8,0-1.6,0.5-2.3-0.4C376.8,137.3,377.6,137.4,378.3,137.6z" />
	<path display="inline" fill="#33211E" d="M353.3,160c0.3,0.3,0.6,0.6,0.9,0.9c-0.6,0-1.3,0-1.9,0c-0.1-0.2-0.2-0.4-0.2-0.6   c0.1-0.1,0.2-0.2,0.3-0.2C352.6,160,353,160,353.3,160z" />
	<path display="inline" fill="#6A443A" d="M378.7,122.1c0-0.3,0-0.6,0.1-0.9c0.4,0.4,0.8,0.7,1.3,1.2c-0.6,0.1-1,0.2-1.4,0.3l0,0   C378.8,122.5,378.8,122.3,378.7,122.1z" />
	<path display="inline" fill="#B7A496" d="M346.7,152.6c0.5,0,0.9-0.1,1.4,0C347.6,153.6,347.2,153.4,346.7,152.6z" />
	<path display="inline" fill="#B7A496" d="M345.5,152c0.2,0,0.4,0,0.6,0.1c0,0.4-0.1,0.9-0.1,1.3c-0.2,0-0.4-0.1-0.5-0.2   C345.5,152.7,345.5,152.3,345.5,152z" />
	<path display="inline" fill="#3F3A38" d="M388.2,145.1c0-0.6,0.1-1.1,0.7-1.3C388.7,144.2,388.4,144.7,388.2,145.1z" />
	<path display="inline" fill="#653935" d="M370.5,141.6c-0.1,0.9-0.8,0.7-1.4,0.8C369.3,141.6,370,141.7,370.5,141.6z" />
	<path display="inline" fill="#3D2A23" d="M356.1,133.5c0.1,0.1,0.3,0.3,0.4,0.4c-0.3,0.1-0.6,0.2-1,0.3c0-0.2,0-0.3,0-0.5   C355.7,133.5,355.9,133.5,356.1,133.5z" />
	<path display="inline" fill="#5E3431" d="M386.2,174.4c-0.3,0.9-1,0.7-1.6,0.6C385.1,174.8,385.6,174.6,386.2,174.4z" />
	<path display="inline" fill="#B7A496" d="M347.3,155.4c-0.2-0.3-0.4-0.5-0.5-0.8C347,154.9,347.2,155.2,347.3,155.4z" />
	<path display="inline" fill="#33211E" d="M351.5,159.4c0.3,0.2,0.5,0.4,0.8,0.6c-0.1,0.1-0.2,0.2-0.3,0.2c-0.2-0.2-0.4-0.4-0.7-0.6   L351.5,159.4z" />
	<path display="inline" fill="#B7A496" d="M346.8,154.6c-0.2-0.2-0.3-0.4-0.5-0.7C346.5,154.1,346.6,154.4,346.8,154.6z" />
	<path display="inline" fill="#5C574A" d="M357,127.4c0.2,0,0.5,0.1,0.7,0.1c-0.1,0.2-0.1,0.3-0.2,0.5   C357.4,127.8,357.2,127.6,357,127.4z" />
	<path display="inline" fill="#F6D9C7" d="M404.6,281.9c-1.2,15.5,10.4,28.5,8.6,44.4c-10.6,2.3-21.6,2.6-32.4,3.8c0,0,0,0,0,0   c-2.4-0.9-5-0.5-7.5-0.7c-3.4-5.9-7-13.2-12.9-16.9c-0.4-1.3-0.4-2.1-1.2-3.3c-1.3,5.6,1.9,10.3,3.2,15.4l0,0   c-0.5,0.2-0.6,0.5,0,0.7c1.1,1.1,1.4,2.6,2.1,4c-5.2,0.1-10.5,0.3-15.6-0.7c-0.7-15.5,9.7-30,5.1-45.2c1.2,0.4,2.5,0.7,4.2,1.2   c0.5-0.6,1.1-1.2,1.5-1.7c-0.5-3.4-3.5-5-4.6-8c2.3,0.3,4.4,1.4,6.5,0.3c-0.6-3.9-3.7-6.2-5.9-8.9c2.3-7.4,13.6-4,19.8-5.2   c10.6,0.6,23.2-3.4,32.8,0.6c0.3,5.9-1.8,11.5-3.1,17.1c-2.3-1-1.2-4.8-4.1-5.4c0.8,2.6,1.4,4.6,2,6.6c0.6-0.1,0.9-0.1,1.3-0.1   C404.5,280.8,404.6,281.4,404.6,281.9z M374.5,268.9c-1.9,0.8-4.4,2.4-3.9,4.7c2.3-3.5,5.7-4.3,8.9-6.8   C377.6,265.7,376.2,268.2,374.5,268.9z M405.9,308.4c-0.7-3.4,0.3-7.9-1.3-10.7c-0.4,6.5,1,12.4-1.2,18.6c-0.1,0.3,0.3,0.6,0.7,1.4   C405.3,314.3,406.5,311.6,405.9,308.4z M386.2,312.5c0.6-0.1,1.4,0.4,1.8-0.7c-0.7,0.1-1.3,0.1-1.9,0.2c-0.4-0.4-0.8-0.8-1.3-1.3   c1.3-0.8,2.5-1.4,3.7-2.1c0.4-0.8,1-1.5,0-2.3c-1.9,1.2-6.4,2.5-4.8,5.3C384.2,312.2,385.3,313.4,386.2,312.5z M403,319.2   c-1.4,1.5-1.4,1.5-0.7,3.1C402.8,321.5,403.5,320.7,403,319.2z M401.9,323.6c-1.4,0.8-1.6,0.5-1.6,1.7   C401.5,325.3,401.2,325.1,401.9,323.6z M400,273.7c0.1-1.6,0.1-1.6-1.2-1.5C399.2,272.8,399.6,273.2,400,273.7z M358.8,299.4   c-0.7,1.2-0.8,2,0,2.9C358.8,301.4,358.8,300.6,358.8,299.4z" />
	<path display="inline" fill="#FFF0A7" d="M407.4,253.9c0.5,0.1,1.1,0.2,1.8,0.3c0.3,2-0.1,3.6-0.7,5.6c-15.7-2.7-31.8,1.5-47.9-0.5   c-0.3-1.6-0.5-2.9-0.8-4.3c0.2-0.3,0.4-0.6,0.6-0.9c4.8,1.9,13.1,2.4,14.9-3.6c-19.6-7.2-17.4,0.2-32.7-19.6   c2.1-12.7,4.8-26.7-3.6-37.9c2.4-1.4,4.5-2.5,6.8-3.8c17.7,23,8.3,47.7,44.5,43.7c12.3-10.3,0.2-23.6-4.1-34.6   c5.2,0.8,7.6,7.4,11.4,10.6c9.2,9.3,20.7,19.8,16.6,34.3c-1.6-0.2-3.1,0.6-4.5,1.1c-4.4,2-8.8,0.2-13.3,0.1   c-2.3-1.2-4.3-3.5-7.3-2.4C387.8,251.9,400.5,252.9,407.4,253.9z" />
	<path display="inline" fill="#EF8A6A" d="M325.5,379.8c-0.6,0-1.1-0.1-1.8-0.1c-3.3-17.5-1.4-37.1,5.3-53.7   c6.3,1,12.3,3.2,18.5,4.7c-0.3,0.1-0.6,0.2-1.1,0.3c0.8,3,0.2,5.9-0.4,9c2.4,2.2,4.9,3,6.9,5.6c-2.6-0.3-4.8-1-6.9-1.8   c-1.3,2.1-1.3,2.1-1.8,6.6c3,1.8,6.5,3.1,9.6,5.7c-3.6,1.1-6.5-2.6-10.2-2.7c-2.2,8.6-2.7,17-3,25.8   C335.6,379.6,330.2,378.2,325.5,379.8z M331.2,333c1.1-2.8,1.2-3.4,0.9-5.4c-2.3,4.4-3.7,9.4-3.9,14.4   C329.8,339.3,330.3,336.1,331.2,333z M327.3,378.1c0.5-4.7,0-8-1.4-12.1C325.3,370,326.2,373.7,327.3,378.1z M326.8,350.8   c-1.5,1.7-1.5,2.2-0.2,3.1C327.2,353,327.1,352.1,326.8,350.8z" />
	<path display="inline" fill="#E1C7B6" d="M357.6,262.9c-1.2,0.8-1.5,2.1-2,3.6c2.2,2.7,5.3,5,5.9,8.9c-2.2,1.1-4.2,0-6.5-0.3   c1.1,3.1,4.1,4.6,4.6,8c-0.4,0.5-1,1.1-1.5,1.7c-1.7-0.5-3-0.9-4.2-1.2c4.6,15.2-5.8,29.7-5.1,45.2c-6.4-0.1-12.7-2.6-18.9-4.2   c8-19.3,22.9-35.8,8.7-56.2C344.7,266.1,351,263.5,357.6,262.9z M350.9,267.6c0.1,2.6,1.4,3.8,3.5,3.8   C353.6,269.9,352.5,268.9,350.9,267.6z M348.6,277.2c1.2,1.2,1.8,2.8,3.6,1.5C351.1,278,350.4,276.8,348.6,277.2z M354.8,280.4   c-0.3-0.8-0.7-1.3-1.6-0.8C353.5,280.4,353.9,280.8,354.8,280.4z M356.6,272.6c-0.3-0.1-0.6-0.3-0.8,0.1   C356.1,272.9,356.3,273.1,356.6,272.6z M359.2,274.8c0.3,0.1,0.6,0.4,0.8,0C359.7,274.5,359.5,274.4,359.2,274.8z" />
	<path display="inline" fill="#E1C7B6" d="M312.8,221.3c-3.2-2.1-8.3-3-9-7.4c1.9-0.4,3.7,0.7,5.5,0.7c1.3,1.9,5.3,3.5,6.7,1.4   c0.7-0.3,1.4-0.5,2.3-0.9c0.4,0.5,0.7,1,1.2,1.6c1.5,0,3,0,4.6,0c3.1,4.5,4.1,8.3,7.8,12.6c-2.6-7.3,0.9-20.7-8.5-23   c1-1.8,1.9-3.6,2.8-5.4c0.8,3,5.7,2.3,6.2,6.1c-1.7-1.3-2.5-2.9-4.7-3.4c1.7,4,4.1,5.2,6.7,8.6c0.5,2,0.5,6.8,2,8.2   c0.2-0.4,0.5-0.8,0.7-1.2c0.6,4.1,1.1,8.9,2.8,12.4c-1.6,5.8-5.9,11.1-12.3,11.5c-4.2-5.5-7.3-13.5-4.9-20.3   C319.2,223,316.1,222.5,312.8,221.3z M324.9,219.9c-1.4,0.1-2.2,0.7-2,2.3C324,221.4,324.3,220.9,324.9,219.9z M335.6,224.7   c0.4-0.5,0.6-0.9-0.2-1.2C335,223.9,334.9,224.4,335.6,224.7z M336.9,228.6c-0.4,0.2-0.4,0.4-0.1,0.8   C337.3,229.2,337.1,229,336.9,228.6z" />
	<path display="inline" fill="#EBDA8F" d="M360.4,254.1c-0.2,0.3-0.4,0.6-0.6,0.9c0.2,1.3,0.5,2.7,0.8,4.3c1.3,0.1,2.6,0.2,4,0.2   c-9.1,1.4-17.8,4-26.4,7.3c-1.5-2.4-2-5-2.7-7.7c0.3-0.2,0.5-0.4,0.9-0.8c-2.3-4.7-4.9-9.4-8.2-14.2c6.1,1,9.5-3.4,12.4-7.9   c-1.8,9.9,8.9,20.4,19.6,17.6C360.3,253.9,360.3,254,360.4,254.1z" />
	<path display="inline" fill="#030302" d="M324.3,204.4c0,0.2-0.1,0.4-0.2,0.5c-0.3-7.8,4.7-16.7,4.6-25.3c0.9-0.3,1.7-0.7,1.7-1.8   c0.2,0,0.5,0,0.7,0c-0.1,4.1-1.4,8-1.9,12.1c4.1,0.7,7.8-0.1,11.8-0.7c1.2-1,3-1.5,3.7-3.2c1.4-0.7,2-2.1,2.8-3.4   c1.3-0.7,3.9-1.8,2.1-3.5c-0.7-1.2,1.6-2.2,0-3.4c0-0.4-0.1-0.9-0.1-1.3c0.4-0.2,0.9-0.4,1.5-0.7c0.3-3-1.3-5.8-1.6-8.7   c0.4-0.5,0.9-0.9,1.4-1.5c0.1-1.3,0.1-2.7-0.7-4c1,0.1,2,0.4,2.2,1.4c-0.2,0.1-0.4,0.1-0.6,0.2c0.1,0.1,0.3,0.3,0.4,0.4   c1.9,9.1,1.6,19.1-4.5,26.5c6.3,10,4.9,11.3,16.5,14.2c-3.1,0.7-5.6,0.2-8.4-0.4c5.3,12.8,7.9,29.9,25,29.8   c0.2,0.4,0.4,0.8,0.7,1.2c-24.3,2.6-23-30-35.6-43.7c-2.3,1.3-4.4,2.5-6.8,3.8c7.6,10.5,6.6,23.9,3.7,35.9c0-1.2,0.1-2.4-0.7-3.5   c0.3-9,2.1-20.2-3.8-27.6c1.1-1.7-0.1-2.9-0.7-4.2c-0.3,0.4-0.5,0.8-0.7,1.1c-3,0.6-6.2-0.5-9.1,1.2   C326.9,198.9,325.9,201.8,324.3,204.4z M337.8,191.4c0.1-0.2,0.2-0.4,0.3-0.5c-2.1,1.3-9.6-0.3-9.3,2.5c2.5-0.4,4.8-0.3,7.4,0.1   C336.8,192.8,337.3,192.1,337.8,191.4z" />
	<path display="inline" fill="#EBDA8F" d="M340.7,237.2c-0.2-2.2,1.4-4.2,1.9-6.3c15.3,19.7,13.2,12.5,32.7,19.6   c-1.8,6-10.1,5.5-14.9,3.6C348.5,250.4,345.4,249,340.7,237.2z M362.4,253.3c2,1.5,5.3,1.1,6.4-1.4   C366.4,251.9,364.4,252.5,362.4,253.3z M373.8,251c-0.2-0.5-0.4-0.4-0.8-0.2C373.2,251.3,373.4,251.2,373.8,251z" />
	<path display="inline" fill="#F4D7C5" d="M326.2,200.8c0.5-1.6,1-3.2,1.5-4.8c2.9-1.7,6.1-0.6,9.1-1.2c0.2-0.3,0.4-0.6,0.7-1.1   c0.6,1.3,1.8,2.4,0.7,4.2c6.2,8.8,5.4,24,1.7,33.7c-4.1-9.2-1-23.1-11.5-28.6C327.4,202.5,326.2,202.2,326.2,200.8z" />
	<path display="inline" fill="#301A16" d="M329.8,324.6c4.1,1.2,8.2,2.3,12.3,3.5c-0.7,0.3-1.7-0.3-2.2,0.7   c-3.6-0.9-7.2-2.3-10.9-2.7C329.3,325.6,329.6,325.1,329.8,324.6z" />
	<path display="inline" fill="#340504" d="M325.5,379.8c4.7-1.6,10.1-0.2,15-0.6c0.1,0.2,0.1,0.3,0.2,0.5   C335.6,379.9,330.7,380.8,325.5,379.8z" />
	<path display="inline" fill="#F6D9C7" d="M323.6,203c-0.1,0.2-0.1,0.4-0.1,0.6c-0.7,0.9-1.1,1.7-0.1,2.7c9.5,2.5,5.9,15.5,8.5,23   c-3.6-4.3-4.7-8-7.8-12.6c-1.6,0-3.1,0-4.6,0c-0.5-0.6-0.8-1.1-1.2-1.6c-4.7,2.2-9.4-1.9-14.5-1.2c-0.5-0.6-1.2-1.2-1.4-2   c0.7,0.2,1.5,0.3,2.4,0.5c2.4-4.8-0.2-10.5,1.6-15.4c-3-12.2,27.5-44.7,16.3-49c-0.6,0.4-1.3,0.9-1.9,1.3c-0.3-5.2,5.9-6.3,9.9-5.4   c-0.1,0.9-0.3,1.8-0.5,3.1c1.4-1,2.5-1.8,3.5-2.6c2.2,0.2,4.3,0.4,6.4,0.6c-0.1,2.9-0.2,5.8-0.6,8.7c-1.5,0.9-2.9,1.8-4.2,2.6   c0.2,0.5,0.3,0.8,0.4,1.1c-4.3,5.8-3.2,19.6-7.1,22.3c-0.4,7.3-2.5,14.2-4.4,21.3C323.6,201.5,323.5,202.2,323.6,203z M330,149.3   c-1.8,0.5-2.6,1.9-1.3,2.6C329.1,151.2,329.4,150.5,330,149.3z M324.4,160.2c1.9-0.6,1.9-0.6,1.3-2   C325.4,158.8,325.1,159.2,324.4,160.2z M326.8,218.1c0.5-0.5,1-0.9,0.5-1.3C326.3,216.9,326.3,217.1,326.8,218.1z M320.6,215.2   c0.2-1.1,0.2-1.1-0.9-1.1C320,214.5,320.2,214.8,320.6,215.2z M327.7,153.6c-1.1,0.5-1.1,1.1-0.3,1.9   C327.6,154.7,327.7,154.1,327.7,153.6z" />
	<path display="inline" fill="#373A46" d="M318.8,154c0.2,9.6-6.6,18.2-11.3,26.5c-5.6-6.9-1.5-18.6,5.4-23.4c0.4,0.3,0.8,0.6,1.4,1   c-0.1-1.3,0.1-2.1,0.6-3.2c-3.7-5.7-1.1-14.6,6-15.7C318.3,145.1,314,146.5,318.8,154z" />
	<path display="inline" fill="#4A4E5C" d="M318.8,154c-4.7-7.5-0.4-8.9,2.1-14.9c3.1,1,6.1,0.5,9.3,1.7c0.4-0.2,1-0.6,1.4-0.8   c2.4,0.4,4.6,0.8,6.9,1.2c0.5,0.9,1.3,0.6,2.1,0.6c0,0,0,0,0,0c-0.2,0.6-0.4,1.2-0.6,1.7c-7.8-1.3-15-3.1-21,2.7   C318.7,149,320.2,151.4,318.8,154z" />
	<path display="inline" fill="#DFC6B5" d="M320.9,149.2c0.6-0.4,1.3-0.9,1.9-1.3c8.2,1.7-5.6,22.9-8.7,26.5c2.5-5.5,5.1-11,6.7-16.9   c-0.3-0.5-0.7-0.9-1-1.4C320,153.8,321.2,151.6,320.9,149.2z" />
	<path display="inline" fill="#C6B093" d="M348.8,119.3c-3.5,2.1-6,5-7.6,9.3c-0.1,0-0.3-0.1-0.4-0.1c0.2-4-0.4-9.2,3-12.1   c0.6,1.2,1.4,2.2,2.9,2.2l0,0C347.2,119.6,348.1,119.2,348.8,119.3z" />
	<path display="inline" fill="#2C2A26" d="M337.8,143.2c0.6,0.1,1.3,0.2,2.2,0.3c0.2-0.6,0.4-1.1,0.6-1.7c0.6,0.2,1.1,0.4,1.9,0.6   c0.1-0.8,0.1-1.4,0.2-2c0.2,0.2,0.4,0.4,0.7,0.7c0.1,2,1.1,1.2,2.7,1.5c0,0.2,0,0.4,0,0.5c-0.7,0.1-1.4,0.2-2.2,0.3   c0.3,1.3,1,2.2,0.7,3.3c-0.8-1-1.6-2-2.5-3c-1,2.1-0.6,4.6-0.9,6.9c-0.4,0-0.8,0-1.2,0c0.1-1.9,0.2-3.8,0.2-5.7   c-2.1-0.2-4.3-0.4-6.4-0.6C334.8,142.9,336.9,144.7,337.8,143.2z" />
	<path display="inline" fill="#EAD9B9" d="M362.2,120.8c-1.7,1.5-4.2-0.4-6,1.1c-1.7,0.1-4.9-0.7-5.3-2.5c0.2-0.1,0.3-0.2,0.5-0.3   C355,119.7,358.6,120.4,362.2,120.8z" />
	<path display="inline" fill="#EDD3C2" d="M332.5,137.6c-0.1-0.8-0.2-1.5-0.2-2.2c1-0.9,1.9-0.7,3-0.5c0.9,1.2,1.7,2.4,1.9,4   C335.4,139.7,333.4,139.6,332.5,137.6z" />
	<path display="inline" fill="#C5B194" d="M348.1,130.9c-0.3,0.4-0.7,0.8-1,1.1c1,0.6,2.2-0.3,3,0.7c-1.1,0.1-2.2,0.1-3.3,0.2   c-1.2-0.5-1.2-0.5-1.4,0.6c-1.8-0.8-3.9-2.7-2-4.7c1.1,0.5,2.3,1,3.4,1.4C347,130.9,347.5,130.9,348.1,130.9L348.1,130.9z" />
	<path display="inline" fill="#B7A98D" d="M352.1,139c-1.2,2.8-6.3,0.8-8.9,0.2c-0.2-0.5-0.5-0.9-0.7-1.4c0.1-0.4,0.1-0.9,0.2-1.3   l0,0c1.2,0.8,2.3,1.9,3.9,1.8c0.2-0.2,0.5-0.4,0.7-0.5c0.6,0,1.1-0.1,1.4,0.5c-0.4,0.4-0.8,0.8-1.3,1.3c1.2,0.2,2,0.5,2.7-0.4   C350.8,139.1,351.5,139,352.1,139z" />
	<path display="inline" fill="#635447" d="M354.2,126.1c0,0.2,0,0.4,0,0.7c-2.2-0.5-4.3-0.9-6-1.3c-1-0.9-1.6-1.5-2.2-2.1   c0.4-1.3,1.6-1.4,2.7-1.4c0.5,0.5,0.9,1,1.4,1.5c-0.5,0-0.9,0-1.4,0c-0.2-0.6-0.5-0.8-1.3-0.2c0.5,0.1,0.9,0.1,1.3,0.2   c1.2,1.6,1.4,1.7,2.9,0.8c0.2,0,0.4,0,0.5,0.1c0,0.1,0,0.2-0.1,0.4C352.7,125.3,353.4,125.7,354.2,126.1z" />
	<path display="inline" fill="#DBC1B1" d="M327.1,136.4c1.8-2.7,4.2-0.6,4.2,2c-1.4,0.8-1.4,0.8-3.6,0.5   C327.4,138.1,327.2,137.3,327.1,136.4z" />
	<path display="inline" fill="#E5CEBD" d="M383.4,139.7c0-0.5,0-0.9,0-1.4c2.3-0.1,4.2-1.2,6.5-0.6c0.1,0.4,0.1,0.8,0.2,1.2   c-0.2,0.5-0.4,0.9-0.6,1.4c-1.9-0.3-3.6-1.2-5.4,0.1C383.9,140.2,383.7,139.9,383.4,139.7z" />
	<path display="inline" fill="#E5D5B6" d="M346.7,118.6c-1.5,0-2.2-1-2.9-2.2c0.9-1.1,2.1-1.5,3.5-1.2c0.3,0.8,0.9,0.7,1.6,0.6   c0.6,0.3,1.2,0.6,2.5,1.2c-1.2,0.1-1.6,0.2-2,0.3c-1.3-0.8-1.3-0.8-3,0.5C346.5,118,346.6,118.3,346.7,118.6z" />
	<path display="inline" fill="#726556" d="M350.9,119.4c0.1,1.8,2.7,1.7,4,2.6c0.9,0.9,1,0.9,1.9,0.1c0.3,0.2,0.5,0.4,0.8,0.5   c-0.9,1.1-2.2,1.2-3.5,1.3c-1-1.5-2.8-2.1-4.5-2.7c-0.1-0.1-0.2-0.3-0.2-0.5C349.9,120.3,350.4,119.9,350.9,119.4z" />
	<path display="inline" fill="#B5B399" d="M375.6,118.6c-1-0.2-2-0.4-3-0.7c-0.6-1.3-1.3-0.1-2-0.1c-1.5-0.7-3.2-1-4.7-1.5   c0-0.1,0-0.3,0.1-0.4C369.2,115.7,373.3,115.9,375.6,118.6z" />
	<path display="inline" fill="#D0C4A7" d="M358.3,118.1c-1.3,0.3-2.6,1.1-4,0.2c0-0.3,0-0.6-0.1-0.9c1.3-0.3,2.6-0.6,3.9-0.8   c0.8,0.3,1.8-0.2,2.3,0.9c-0.1,0.2-0.2,0.3-0.2,0.5C359.6,117.9,359,118,358.3,118.1z" />
	<path display="inline" fill="#161310" d="M368.5,115.8c-0.8,0.1-1.7,0.1-2.5,0.2c0,0.1,0,0.3-0.1,0.4c1.2,0.3,2.5,0.7,3.7,1   c0.1,0.2,0.2,0.4,0.3,0.5c-1.1,0-2.3,0-3.4,0l0.1,0c-0.4-1.1-1.3-0.7-2.1-0.8c0-0.6,0-1,0.2-1.7   C365.9,115.2,367.2,114.8,368.5,115.8z" />
	<path display="inline" fill="#C7BFA3" d="M352.8,116.5c-1.4-0.4-2.7-0.9-4.1-1.4l0.1,0.1c-0.2-0.3-0.3-0.6-0.6-1   c1.8-0.8,3.4-0.6,4.7,1C352.9,115.6,352.9,116.1,352.8,116.5z" />
	<path display="inline" fill="#BDA699" d="M337.8,139.1c0-1.1-0.1-2.2,0.8-2.9c1.4,0.7,1.4,2.2,1.9,3.5   C339.3,140.6,338.5,140,337.8,139.1z" />
	<path display="inline" fill="#493B31" d="M343.3,132.3c1.3,0.7,2.5,1.5,3.4,2.7l0,0c-1.4,0.1-2.4-0.9-4-1.5c0,0.8,0,1.4,0,2.1   l-0.2,0.2C341.7,133.9,341.7,133.7,343.3,132.3z" />
	<path display="inline" fill="#928471" d="M364.4,116.6c0.1,0.4,0,0.8,0.1,1.2c-1.3-0.2-2.6-0.6-4-0.4c-0.4-1.1-1.5-0.6-2.3-0.9   C360.1,115.3,362.3,116.6,364.4,116.6z" />
	<path display="inline" fill="#4B4136" d="M346.7,130.2c-1.1-0.5-2.3-1-3.4-1.4c0.1-0.7-0.3-1.5,0.5-2.1c0.3,2,1.9,2.4,3.6,2.7   l0,0.1c0,0.2,0,0.4,0,0.6C347.2,130.2,346.9,130.2,346.7,130.2z" />
	<path display="inline" fill="#493B31" d="M346.7,138.2c-1.6,0.1-2.7-1-3.9-1.8c-0.1-0.2-0.1-0.4-0.2-0.7l0.2-0.2   c1.4,0.6,2.7,1.3,3.9,2.2C346.6,137.9,346.7,138,346.7,138.2z" />
	<path display="inline" fill="#AC9983" d="M346.7,118.6c-0.1-0.3-0.2-0.6-0.3-0.9c1.8-1.3,1.8-1.3,3-0.5   C348.8,118.1,347.7,118.2,346.7,118.6L346.7,118.6z" />
	<path display="inline" fill="#84826F" d="M352.8,116.5c0-0.5,0-0.9,0-1.4c0.4-0.2,0.7-0.4,1.2-0.7c0.4,0.3,0.8,0.6,1.6,1   C354.5,116,353.7,116.3,352.8,116.5z" />
	<path display="inline" fill="#E5D5B6" d="M346.7,118.6c0.7-0.2,1.4-0.5,2.1-0.7c0.9,0.6,0.9,0.7-0.1,1.5   C348.1,119.2,347.2,119.6,346.7,118.6z" />
	<path display="inline" fill="#2C2A26" d="M340.6,141.8c-0.7-0.1-1.6,0.2-2.1-0.6C339.3,141.2,340.2,140.7,340.6,141.8z" />
	<path display="inline" fill="#C7BFA3" d="M349,115.8c-0.7,0.1-1.3,0.2-1.6-0.6c0.5,0,0.9,0.1,1.4,0.1l-0.1-0.1   C348.8,115.4,348.9,115.6,349,115.8z" />
	<path display="inline" fill="#493B31" d="M342.7,136.4c-0.1,0.4-0.1,0.9-0.2,1.3C342,137.2,341.7,136.7,342.7,136.4z" />
	<path display="inline" fill="#F6D9C7" d="M382.2,121.9c-0.2,0-0.4,0-0.6-0.1C382,121.2,382,121.9,382.2,121.9L382.2,121.9z" />
	<path display="inline" fill="#C2C2A6" d="M348.8,121.9c-0.1,0-0.4,0-0.5,0.1c0.2-0.2,0.3-0.5,0.5-0.7c0,0,0.1,0.1,0.1,0.1   C348.8,121.6,348.8,121.7,348.8,121.9z" />
	<path display="inline" fill="#C2C2A6" d="M349.4,120.8c0,0.2,0.1,0.3,0.2,0.5c-0.3,0-0.6,0.1-0.8,0.1c0,0-0.1-0.1-0.1-0.1   C348.9,121.1,349.2,120.9,349.4,120.8z" />
	<path display="inline" fill="#F6D9C7" d="M442,396.2c9.2,48.6,7.8,97.3,5,146.2c-1.4,0.3-2.5,0-3.7-0.3c-4.3,3.7-6.7,8-9.3,12.8   c0,0.2-0.1,0.4-0.2,0.5c-0.2-0.6-0.8-1.3-0.5-2c1-0.5,0.5-1.4,0.5-2.2c3.2-4.4,0.7-10.6,0.8-15.6c-0.6-3.6,1.1-8.4-0.7-11.5l0,0   c-0.1-4.9,0.5-9.8-1.1-15.1c-0.3,1.9,0.1,3.5-1.3,4.5c-2.5-16.4-12.1-23.8-3.7-41.2c0.7,0,1.4,0,2.1,0c2.5,3,2.8,9.1,7.3,9.1   c2.4-10.5-8.1-18.6-12.7-27c-0.9-2.3-1.4-5.8-3.7-6.9c-9.4-22.3-18.4-45-22.2-69.1c9.6-5.6,19.9-10.2,30.6-13.1   C434.1,375.4,438.1,385.8,442,396.2z M434.4,456.8c0.1,0.1,0.2,0.3,0.2,0.5c0.9,1.8,2,3.1,4,3.6c3.2-3.8,1-9.4-1.6-12.7   c-3-0.2-3-0.2-4.4,1.9C433.3,452.2,433.1,455,434.4,456.8z M438,439.5c0.8-2.3,2.5-6.8,0-6.3C438,435.2,437.3,437.2,438,439.5z    M435.9,443.1c1.5-1.2,1.5-1.2,0.2-2.2C436,441.7,436,442.4,435.9,443.1z M437.1,495.4c0.3-0.7,0.3-1.2,0-1.9   C435.8,494.2,435.8,494.3,437.1,495.4z M435.5,482.3c-0.3,1.5-0.7,1.5-0.1,2.2C436.4,483.8,435.9,483.9,435.5,482.3z M435.3,489.6   c0.8-0.5,0.9-1.2,0.2-1.3C435.4,488.7,435.4,489,435.3,489.6z" />
	<path display="inline" fill="#FF9A77" d="M340.8,379.8c-0.5-8.7,0.7-17.6,2.7-26.2c3.7,0.1,6.6,3.8,10.2,2.7   c-3.1-2.6-6.6-3.9-9.6-5.7c0.5-4.6,0.5-4.6,1.8-6.6c2.1,0.7,4.3,1.4,6.9,1.8c-2-2.6-4.5-3.4-6.9-5.6c0.6-3,1.3-6,0.4-9   c12.6,0.7,25.4-0.1,38,0c0.2,1.1,0.4,2.1,0.8,3.7c0.4-1.6,0.7-2.5,0.9-3.6c9.4-0.6,18.3-2.7,27.6-3.2c1.1,13.7,9.2,23.7,14.6,36.1   c-10.1,3.1-19.8,6.7-29.2,11.7c-0.9-1.4-1.7-2.8-2.5-4c0.4-1.4,0.8-2.4,1.1-3.5l0,0c1.3-1,1.7-2.3,1.1-4   c-7.2-0.8-11.2,6.7-18.1,6.8c0-0.2,0-0.4,0-0.7c2.6-4.5,3.7-9.3,3.2-14.6c-1.6,5.2-2.2,9.4-3.8,14.5c0.2,0.3,0.4,0.5,0.6,0.8   c-0.2,0.2-0.5,0.6-0.7,0.6c-2.6-0.2-3.8,2.2-4.7,4.1c-2.6,2.2-2.2,6.6-3.8,9.5C361.6,382.8,351.2,380.5,340.8,379.8z M401.8,354.7   C401.8,354.7,401.8,354.7,401.8,354.7c-2.6,0.9-12.5,3.7-10.4,7.2c3.3,0.6,11.4-4.3,13.7-6.8c-0.7-0.7-1.3-1.2-2-1.8   C402.6,353.9,402.3,354.2,401.8,354.7z M367.8,362.9c0.1,0.2,0,0.7,0.5,0.3c-2.6-2.5-5.6-6.1-9-6.8   C361.6,358.8,364.8,361.5,367.8,362.9z M402.5,351.3c3.7-0.6,7.9-2.1,10.2-4.9c-2.5-0.8-3.7-0.5-6.7,1.6l0,0   c-0.6,0-1.2-0.1-1.4,0.7c-1.9,2-8.1,2.8-8.5,5C398.1,352.6,400.9,352.6,402.5,351.3z M365.7,357.5c0.9,0.4,1.7,1.9,2.7,1.4   c-4.4-4.7-11.2-8.6-17.5-10.2C355.8,351.9,360.9,354.3,365.7,357.5z M385.2,352.2c0.5-3.4,0.5-12.8,0-14.9   C384.6,340,384.6,349.3,385.2,352.2z M408.5,337.5c2.8,0,4-0.3,5.5-1.4C412.4,335.4,410.4,336.1,408.5,337.5z M414.7,339.2   c-1.2,0.8-3.9,0.8-3.8,2.1C413.8,340.8,413.8,340.8,414.7,339.2z M357.3,345.6c1.1,0.2,2.3,1.1,3.4,0.6   C359.7,345.1,359.7,345.1,357.3,345.6z" />
	<path display="inline" fill="#E1C7B6" d="M429.7,472.4c-0.7,0-1.4,0-2.1,0c-8.3,17.3,1.2,24.8,3.7,41.2c1.4-1,1-2.7,1.3-4.5   c1.7,5.3,1.1,10.2,1.1,15.1c-0.6,0.2-0.9,0.5-0.2,1.3c0.1-0.5,0.1-0.9,0.2-1.3c1.8,3,0.2,7.8,0.7,11.5c-0.1,4.6,2,10.1,0,14.4   c-0.2-2.4,0.4-13.1-2.6-6.9c-1.5-17-6.2-33.5-11.6-49.7c0.2-8.1,2.4-16,2.9-24.1c0.5-0.1,1.2-0.3,1.7-0.4   c-8-30.1-29.1-54.5-41.4-82.8c5.1-2.6,9.9-5,14.9-7.5c3.8,24,12.8,46.7,22.2,69.1c2.3,1.1,2.8,4.6,3.7,6.9   c4.6,8.4,15.1,16.5,12.7,27c-0.6-0.1-1.3-0.2-1.9-0.3c0-1.7-4.1-12.6-6.1-10.9C429.3,470.9,429.5,471.7,429.7,472.4z M433,529.3   c-0.7,1.2-0.8,1.9,0,3C433,531.3,433,530.5,433,529.3z M432.6,537.3c0.1,0,0.2,0,0.3,0c0-0.5,0-0.9,0-1.4c-0.1,0-0.2,0-0.3,0   C432.6,536.4,432.6,536.8,432.6,537.3z" />
	<path display="inline" fill="#EF8A6A" d="M380.7,371c6.9-0.1,10.9-7.5,18.1-6.8c0.6,1.8,0.1,3-1.1,4c-3.4-0.7-10.7,2.2-13.6,4.6   c4.7-0.9,9-3,13.6-4.6c-0.3,1.1-0.7,2.1-1.1,3.5c0.7,1.2,1.6,2.6,2.5,4c-5.4,3.2-10.6,6.3-16.3,8.8c-1.5-2.6-2.8-5-4.2-7.6   c0.9-0.8,1.7-1.5,2.6-2.4c-2.2-0.8-3.8,0.5-5.8,1.1c0.9-1.9,2.2-4.3,4.7-4.1C380.2,371.7,380.5,371.2,380.7,371z" />
	<path display="inline" fill="#3C332E" d="M422.9,366.1c1.8-0.7,3.6-1.4,5.4-2c0.3,0.5,0.5,0.9,0.8,1.4c-1.6,0.5-3.2,0.9-4.8,1.4   C423.8,366.6,423.3,366.4,422.9,366.1z" />
	<path display="inline" fill="#35302E" d="M411.4,437c0.2,0.2,0.3,0.5,0.5,0.7C411.7,437.5,411.5,437.2,411.4,437z" />
	<path display="inline" fill="#F6D9C7" d="M554.2,301.9c2.2,2.2,4.8,4.1,5.6,7.1c-0.1,0.2-0.3,0.3-0.5,0.5c-2.5-2.1-4.9-4.5-8-6   c-0.7,0.8-1.3,1.4-1.8,2.1l0,0.2c-2.2-0.3-2.4-2.4-4.6-2.9c2.2,5.3,8.3,7,8.8,13.2c-0.8-0.1-1.5-0.1-2.3-0.2   c-10.7-15.2-20.8-6.2-27.4-16c-1.1-0.1-0.9,0.7-1.1,1.1l0.1-0.1c-1.2-0.6-1.8-1.7-2.7-2.7c0.4-0.4,0.8-0.9,1.3-1.4   c-1.2-1.5-2.9-2-4.2-3.1c-1.8-3.4-7-3.2-10.1-5c-16.8-7.2-34.1-13.6-48.4-25c5.2-7.1-9.5-4.3-13.1-4.8c-2.5-3-7.1-4.5-8.1-8.2   c3.2,1.1,6.8,4.4,10,3.7c-12.7-14.5-26.2-8.8-33.7-31.3c0.1-0.3,0.4-1,0.7-1.7c1-0.3,2.4-0.7,2-2.1c-0.9-0.7-1.9-1.4-2.7-2   c-2.2,0-4.2,0-6.2,0c-5.1-5.6-9.9-11.5-15.1-17c31.2-2.6,28,24.5,52.5,37.2c8.2,5.4,15.5,13,24.9,15.8c8.7,2.8,14.8,10.2,22.1,15.4   c17.1,9.6,32.4,29.2,53.7,27.9c1.5,1.4,3.3,1.7,5.2,1.5C552.3,299.6,552.7,301.1,554.2,301.9z M458.7,249c1,2.8,2,4.8,3.4,6.8   C462.7,253.1,461.6,250.5,458.7,249z M465.1,262.1c0-1.3,0.3-2.2-1-2.6C463.6,260.5,463.8,261.2,465.1,262.1z" />
	<path display="inline" fill="#E1C7B6" d="M508.7,289.4c2.9,0.9,7.2,1.5,8.7,4.3c-0.7-0.1-1.4-0.1-2.7-0.3c0.9,1,1.5,1.6,2,2.2   c0,0.2,0.1,0.5,0.1,0.7c-20.9-6.7-41.5-14.1-57.9-29.4c-13.4-8.8-29.8-12-41.5-23.8c0.3-4.1,0.6-8.1,0.1-12.2   c6.5,12.9,21.7,12.4,30.2,23.4c-3.2,0.6-6.8-2.6-10-3.7c1,3.7,5.6,5.2,8.1,8.2c3.6,0.6,18.3-2.2,13.1,4.8   c14.3,11.5,31.5,17.8,48.4,25C507.1,289.8,507.8,290.3,508.7,289.4z M513.4,292.9c-0.6-1-0.8-1.7-1.8-1.2   C512,292.6,512.2,292.5,513.4,292.9z" />
	<path display="inline" fill="#DAC0B0" d="M549.5,305.6c0.6-0.7,1.2-1.3,1.8-2.1c3.1,1.6,5.4,4,8,6c0.2-0.2,0.3-0.4,0.5-0.5   c2.3,2,3.5,4.6,4.9,7.3c-0.6,0.1-1,0.2-1.3,0.2c-4.3-3-6-7.7-11.2-9.5c0.3-0.6,0.5-1.1,0.8-1.8   C551.7,305.4,550.6,305.5,549.5,305.6z" />
	<path display="inline" fill="#CCB6A6" d="M558.2,315.9c-3.4-0.4-3-4.9-6-6.1c0.2-0.2,0.5-0.5,0.7-0.7   C555.8,310.1,558.9,312.3,558.2,315.9z" />
	<path display="inline" fill="#251B18" d="M516.8,295.6c-0.6-0.6-1.1-1.2-2-2.2c1.3,0.1,2,0.2,2.7,0.3c1.3,1,3,1.6,4.2,3.1   c-0.5,0.5-0.9,1-1.3,1.4C519.2,297.2,518,296.5,516.8,295.6z" />
	<path display="inline" fill="#342623" d="M558.2,315.9c0.9-4.7-3.9-5.5-6.5-7.9c0.4-0.1,0.8-0.2,1.2-0.3c3.2,1,5.4,3.2,6.9,6.1   C558.8,314.2,559.2,315.4,558.2,315.9z" />
	<path display="inline" fill="#27201D" d="M549.5,305.6c1.1-0.1,2.2-0.3,3.5-0.4c-0.3,0.7-0.6,1.3-0.8,1.8c-1.9-0.1-1.9,0.6-2,2   c-0.7-0.7-1.4-1.4-2.1-2c0.5-0.4,0.9-0.8,1.4-1.2L549.5,305.6z" />
	<path display="inline" fill="#8D7C72" d="M550.2,308.4c0.3-1.2,0.3-1.2,2-1.3c0.3,0.2,0.5,0.4,0.8,0.6c-0.4,0.1-0.8,0.2-1.2,0.3   c0.4,0.4,0.8,0.8,1.1,1.2c-0.2,0.2-0.5,0.5-0.7,0.7C551.5,309.3,550.9,308.8,550.2,308.4z" />
	<path display="inline" fill="#BBAFA0" d="M544.8,311.4c-0.1,0.4-0.3,0.8-0.4,1.1c-1.2,0.1-1.9-0.7-2.4-2.7   C543,310.3,544,310.4,544.8,311.4z" />
	<path display="inline" fill="#8C8377" d="M516.8,295.6c0.9,0.6,1.9,1.3,2.8,1.9C518.2,297.8,516.7,297.2,516.8,295.6z" />
	<path display="inline" fill="#F6D9C7" d="M528.1,305.5c-0.3,0-0.6-0.1-0.8-0.1c0,0,0-0.1,0-0.1   C527.6,305.3,527.8,305.3,528.1,305.5C528.1,305.4,528.1,305.4,528.1,305.5z" />
	<path display="inline" fill="#F6D9C7" d="M523,300.9c0.7,0.3,0.7,0.9,0.6,1.5l0.1-0.1C523.4,301.8,523.2,301.4,523,300.9L523,300.9   z" />
	<path display="inline" fill="#DAC0B0" d="M559.6,308.4c-0.2-0.3-0.3-0.6-0.5-0.9C559.3,307.9,559.4,308.2,559.6,308.4z" />
	<path display="inline" fill="#F6D9C7" d="M525.7,304.4c0.2,0.1,0.3,0.2,0.5,0.3C526,304.5,525.9,304.4,525.7,304.4   C525.8,304.3,525.7,304.4,525.7,304.4z" />
	<path display="inline" fill="#F6D9C7" d="M525,303.7c0.2,0.2,0.5,0.4,0.7,0.7l0.1-0.1C525.5,304.1,525.3,303.9,525,303.7   C525.1,303.7,525,303.7,525,303.7z" />
	<path display="inline" fill="#F6D9C7" d="M524.3,303.1c0.2,0.2,0.5,0.4,0.7,0.6c0,0,0.1-0.1,0.1-0.1   C524.8,303.4,524.6,303.2,524.3,303.1C524.3,303,524.3,303.1,524.3,303.1z" />
	<path display="inline" fill="#F6D9C7" d="M523.5,302.4c0.2,0.2,0.5,0.4,0.7,0.7c0,0,0.1-0.1,0.1-0.1   C524.1,302.8,523.9,302.5,523.5,302.4C523.6,302.3,523.5,302.4,523.5,302.4z" />
	<path display="inline" fill="#F6D9C7" d="M380.7,231.6c-17.1,0.1-19.7-16.9-25-29.8c2.9,0.5,5.4,1,8.4,0.4   c-11.7-2.9-10.3-4.2-16.5-14.2c0,0,0.3-0.4,0.5-0.7c1.1,0,2.2,0,3.5,0c3.4-2.4,5.8-5.9,8-9.5l0,0c0,0.6,0,1.1,0.7,1.3   c0.6,2.6,1.6,5.2,3.2,7.3c1.1-2.9-2.2-4.2-1.8-7.2c4.8,3.8,8.6,9.3,15.2,9.5c0.2,1.3,0.3,2.4,0.4,3.5c0.7,0.2,1.3,0.4,1.9,0.5   c0.4,0.5,0.7,1,1.2,1.7c0.4-0.7,0.7-1.1,1-1.6c2,2.7,3.2,6,4.9,9.2c-2,0.4-5.3-0.8-5.5,2c2.1,0.8,4.1-0.4,6.4-0.3   c3.5,8.2,10.7,21.6,0.9,27.8c-1.1,0-2.2,0-3.3,0c-1.8-3.3-2.5-5.8-1.9-9.6c-0.8,0.8-1.3,1.4-1.8,1.9c-1.2-0.4-1.5-2-3.2-1.7   c1.7,3.1,4,5.6,5,9C382.3,231.5,381.5,231.5,380.7,231.6z M367.8,203.6c-0.6-0.7-1.4-2-2.8-0.8C366,203.1,366.9,203.3,367.8,203.6z    M371.9,204.2c-0.8-0.8-0.9-1.4-1.9-0.8C370.2,204.6,370.7,204.2,371.9,204.2z" />
	<path display="inline" fill="#EAD98F" d="M407.4,253.9c-6.9-1-19.6-2-18.3-11.9c3.1-1.1,5,1.2,7.3,2.4c4.4,0.1,8.9,1.9,13.3-0.1   c1.4-0.6,2.9-1.3,4.5-1.1c-0.2,3.7-1.4,8.1-5.2,9.3C408.2,252.7,407.5,253,407.4,253.9z M400.9,251.5c-1.1-1.1-1.4-1.2-3-0.8   C399.5,251.7,399.5,251.7,400.9,251.5z M395,249.9c0.3-0.2,0.5-0.3,0.6-0.3c-0.1-0.3-0.3-0.5-0.4-0.8c-0.2,0.1-0.5,0.3-0.7,0.4   C394.7,249.4,394.8,249.7,395,249.9z" />
	<path display="inline" fill="#261C1A" d="M380.7,231.6c0.8-0.1,1.5-0.2,2.4-0.3c-1-3.4-3.3-6-5-9c1.7-0.4,2,1.3,3.2,1.7   c0.5-0.5,1.1-1.1,1.8-1.9c-0.7,3.8,0.1,6.2,1.9,9.6c2.2-0.4,4,0.6,6.1,0.7c-2.7,1.4-6.5,0.2-9.6,0.6   C381.2,232.4,381,232,380.7,231.6z" />
	<path display="inline" fill="#DBBFAF" d="M408,217.3c2,0,3.9,0,6.2,0c0.8,0.6,1.7,1.3,2.7,2c-1.5-0.5-3,1.4-0.7,1.6   c-1.2,0.5-2.1,0.7-3.5,0.9C411.2,220.3,409.2,219.2,408,217.3z" />
	<path display="inline" fill="#9DA79B" d="M395.1,200.2c-0.9,0-1.9,0.1-2.9,0.1C392.9,199,394.1,200.1,395.1,200.2z" />
	<path display="inline" fill="#657771" d="M386.9,198.1c-0.2,0-0.5,0.1-0.7,0.1c-0.3-0.2-0.5-0.5-1-1   C386.4,197.1,386.7,197.6,386.9,198.1z" />
	<path display="inline" fill="#DBBFAF" d="M407.3,216.6c0.2,0.2,0.4,0.4,0.6,0.7C407.8,217,407.6,216.8,407.3,216.6z" />
	<path display="inline" fill="#3B2420" d="M409.4,328.2c-7.7,1.1-15.5,2.3-23.3,3c-0.3,1.1-0.5,2-0.9,3.6c-0.3-1.6-0.5-2.6-0.8-3.7   c-1.2-0.1-2.5-0.2-3.7-0.3c0-0.2,0.1-0.5,0.1-0.7c8.9-0.7,17.7-1.7,26.5-2.6C407.8,328.5,408.8,327.9,409.4,328.2z" />
	<path display="inline" fill="#5E544D" d="M404.6,281.9c-0.1-0.5-0.1-1.1-0.2-1.8c-0.4,0-0.7,0.1-1.3,0.1c-0.6-2-1.2-4.1-2-6.6   c2.9,0.6,1.8,4.4,4.1,5.4C405.3,280.1,405.5,281.1,404.6,281.9z" />
	<path display="inline" fill="#F7EFD0" d="M446.7,543.9c0.7,0.3,1.5,0.5,2.6,0.9c0.9,1.6,1.9,3.5,3.2,5.9c-5.3-1.2-12,1-11.3,7.1   c4.9-1.2,6.3-4.4,11.9-4.6c0.6,0.7,1.2,1.4,1.8,2.2c0,0.3,0,0.7,0,1.2c-3.6,0.1-9.7,0-10.1,4.7c4.1,0.7,8.3-3.1,12.3-2.1   c-0.3,0.3-0.6,0.6-0.9,1c-2.5,0.1-7.1,0.8-7.2,3.9c3.3-0.1,7-1.4,10-2.8c5.9,5.6,7.1,8.7,15.2,11.3c0.4,1.1,0.8,2.4,1.3,3.6   c-0.2,0.8-0.9,0.8-1.6,0.9c-5-0.9-9.8,1.1-11.7,6.1c-6.7,0.1-14.1-1.1-18.5-6.7c-1.1,0-1.9,0-2.9,0c-0.5,0.9-1,1.7-1.4,2.5   c-1.3,0-2.6,0-3.7,0c-2-2-4.5-0.8-6.3-1.5c-1.3-1-1.1-2.2-0.9-3.2c2.2-5.6-0.1-12.7,2.1-17.7C437.1,562.9,438.2,541.8,446.7,543.9z    M456.5,566.4c1.1-0.4,4.1-0.3,3.4-2.2c-3.1-0.4-6.4-0.2-8.1,2.9C453.9,566.9,454.8,567,456.5,566.4z M462.3,568.3   c0.2-2.7-5-2-6-0.1C458.4,569.7,460.3,568.2,462.3,568.3z" />
	<path display="inline" fill="#EADCB7" d="M430.6,556.7c-2.2,5,0.1,12.1-2.1,17.7c-0.2,1.1-0.4,2.3,0.9,3.2c1.9,0.6,4.4-0.5,6.3,1.5   c1.1,0,2.3,0,3.7,0c0.4-0.8,0.9-1.6,1.4-2.5c1,0,1.9,0,2.9,0c4.4,5.6,11.8,6.8,18.5,6.7c0.5-1,1-1.9,1.4-2.7c0,0.4,0.1,0.8,0.1,1.5   c3.9-3.5,7.9-4.1,12.8-2.6c-0.1,1.3-0.1,2.7-0.2,4.1c-10,4.2-23.4,4.6-32.2-2.9c-6.5,1.8-14,3.6-20.5-0.2l0,0c0-0.2,0-0.4,0-0.6   c0.3-0.1,0.5-0.3,0.8-0.4c2.6-3.8,1.1-8.5,2.6-12.5l0,0c3.1-4.2-0.6-11.8,3.3-15.6C431.9,553.6,429.9,554.5,430.6,556.7z" />
	<path display="inline" fill="#1E1815" d="M459,561.4c-3,1.4-6.7,2.7-10,2.8C449.3,560.4,456.5,559.2,459,561.4z" />
	<path display="inline" fill="#241B17" d="M476.6,579.4c-4.9-1.5-8.9-0.9-12.8,2.6c-0.1-0.7-0.1-1.1-0.1-1.5c3.1-3.3,8.5-5.1,12.2-2   c0.1-0.5,0.2-1,0.3-1.4C477,577.8,476.7,578.6,476.6,579.4z" />
	<path display="inline" fill="#EADCB7" d="M476.1,577.2c-0.1,0.4-0.2,0.9-0.3,1.4c-0.7-0.5-1.3-0.9-2-1.4c0.7-0.1,1.3-0.1,1.6-0.9   C475.7,576.6,475.9,576.9,476.1,577.2z" />
	<path display="inline" fill="#ABA995" d="M458.5,560.9c-0.8-0.2-1.5-0.4-2.3-0.6c0.3-0.3,0.6-0.6,0.9-1   C457.6,559.8,458,560.3,458.5,560.9z" />
	<path display="inline" fill="#1B1A18" d="M423.6,580.5c0.3,0.2,0.6,0.4,0.8,0.6C424.2,580.9,423.9,580.7,423.6,580.5z" />
	<path display="inline" fill="#F7EFD0" d="M339.9,557.5c2.5,3.7,0.4,7.8,2,11.6c-1,9.5,14.2,15.8,8.3,25.1c-1.5-1.3,0.1-3.5-1.5-4.8   c-4.4-1.8-9.2-0.9-12.9,2c-4.7-0.9-14.9,2.6-15.8-3.8c-0.9-1-1.7-2-2.6-3c1.3-5.2,1.1-11.2,0.1-16.4c3.9-2.8,6-7.9,10.2-10.9   c3.4-0.9,7.6-4.9,10.2-0.8C338.6,556.7,339.3,557,339.9,557.5L339.9,557.5z M338,577.3c-0.7-0.3-1.6,0.3-2.1-0.7   c1.1-0.5,2.4-0.5,2.8-1.8c-2.2-1.1-4.3,0.5-6.2-0.9c2.6-1.4,5.5-1.6,8.1-2.8c-3.1-3.4-12.8,0.3-13.1,4.9c0.7-0.1,1.1-0.1,1.5-0.2   c0.3,0.3,0.5,0.5,0.8,0.8c-1.5,2.2,0.8,1.7,2,2.7c-0.2,0.4-0.3,0.8-0.5,1.3c2.2,1.5,7.8-0.9,8.8-3   C339.3,577.3,338.6,577.3,338,577.3z M325.1,571.4c1.4,0.6,2.5-0.4,3.8-0.9c3.5-2.3,7.8-2.4,11.2-4.6   C334.6,563.8,327.8,566.2,325.1,571.4z M324.7,568.4c5.2-3.8,9.3-5,15.4-5.4C335.3,558.9,326.7,562,324.7,568.4z" />
	<path display="inline" fill="#EADCB7" d="M348.7,589.4c1.6,1.3-0.1,3.5,1.5,4.8c-9.1,3.7-27.3,7.9-32.1-3.5c-1.1,0.5-0.6,1.2-0.8,2   c-1.8,0.4-3.6,0.2-5.6-0.7c0.4-4.9,4.1-8.5,3.7-13.4c0.2-4-1.4-9,1.3-12.3c0.8,0.8,1.6,1,2.7,0.6c-0.2,1.1-1.4,0.5-1.9,1.5   c1,5.1,1.2,11.2-0.1,16.4c0.9,1,1.7,1.9,2.6,3c0.9,6.4,11.1,2.8,15.8,3.8c-0.4,1.1-1.8,1.7-1.4,3.7c3.9-4.6,8.6-6.1,14.3-4.7   C348.7,590.1,348.7,589.7,348.7,589.4z" />
	<path display="inline" fill="#DAD8BC" d="M316.8,566.3c-0.3,0.3-0.5,0.6-0.8,0.9c-1.6-2.2,0.8-5.5,3.4-5.5c0.2,0.5,0.4,1,0.6,1.6   c-0.4,0.6-0.8,1.2-1.3,1.8c-0.6-0.3-1.1-0.6-1.9-1.1C316.8,565,316.8,565.7,316.8,566.3z" />
	<path display="inline" fill="#2E2523" d="M553.6,301.5c-0.2-0.2-0.4-0.4-0.6-0.6C553.2,301.1,553.4,301.3,553.6,301.5z" />
	<path display="inline" fill="#818176" d="M555,300.9c-0.2,0-0.5,0-0.7,0c0-0.2,0-0.4,0-0.5C554.5,300.6,554.7,300.8,555,300.9   L555,300.9z" />
	<path display="inline" fill="#372E2A" d="M431.8,543c0.5-0.6,0.9-1.3,1.3-1.9c-0.2,1.7,0.6,3.6-0.9,5.4   C431.5,545.2,431.7,544.1,431.8,543z" />
	<path display="inline" fill="#C8AFA0" d="M433.1,554c0.2,0.4,0.4,0.9,0.6,1.3c-0.2,0.4-0.5,0.9-0.8,1.5c-0.4-0.4-0.6-0.6-0.9-0.9   C432.4,555.2,432.7,554.6,433.1,554z" />
	<path display="inline" fill="#C8AFA0" d="M433.7,551.2c0,0.8,0.4,1.7-0.5,2.2C433.1,552.6,432.6,551.7,433.7,551.2z" />
	<path display="inline" fill="#C8AFA0" d="M433.9,554.9c0.2-0.3,0.4-0.5,0.6-0.8C434.3,554.3,434.1,554.6,433.9,554.9z" />
	<path display="inline" fill="#2A2725" d="M337.9,556.6c-0.2-0.2-0.4-0.4-0.5-0.6C337.5,556.3,337.7,556.5,337.9,556.6z" />
	<path display="inline" fill="#2A2725" d="M339.9,557.5c-0.3-0.2-0.6-0.4-0.9-0.6C339.5,556.8,339.8,557,339.9,557.5z" />
	<path display="inline" fill="#E0C6B5" d="M302.7,212.5c0.2,0.2,0.3,0.4,0.5,0.6C303,212.9,302.9,212.7,302.7,212.5z" />
	<path display="inline" fill="#936F66" d="M384.2,140.4c1.8-1.3,3.5-0.4,5.4-0.1c0.4,2.2-2.1,1.3-3.4,1.3c0.4-0.3,0.8-0.7,1.6-1.5   C386.1,140.4,384.9,141.7,384.2,140.4z" />
	<path display="inline" fill="#1B1A18" d="M426.3,569.7c0,2.1,0.2,4.2-0.6,6.3C425.9,573.9,425.1,571.5,426.3,569.7z" />
	<path display="inline" fill="#1B1A18" d="M427,567c-0.2,0.5-0.4,1.1-0.6,1.6C426.3,567.9,426.2,567.3,427,567z" />
	<path display="inline" fill="#1B1A18" d="M425.6,576.5c-0.2,0.5-0.4,1.1-0.5,1.6C425,577.5,424.9,576.8,425.6,576.5z" />
	<path display="inline" fill="#1B1A18" d="M427.6,566.3c-0.2,0.2-0.4,0.5-0.6,0.7C427.2,566.8,427.4,566.5,427.6,566.3z" />
	<path display="inline" fill="#1B1A18" d="M425,578.5c-0.2,0.3-0.4,0.6-0.5,1C424.6,579.2,424.8,578.8,425,578.5z" />
	<path display="inline" fill="#968277" d="M554.9,301c0.2,0.1,0.4,0.2,0.5,0.2C555,301.7,555.1,301.1,554.9,301L554.9,301z" />
	<path display="inline" fill="#60554E" d="M359.6,177.8c-0.2-1.3-0.5-2.6-0.9-4.6c1.6,1.5,2.9,4.2,1.6,5.9l0,0   C360.1,178.7,359.9,178.3,359.6,177.8z" />
	<path display="inline" fill="#4B201E" d="M370,174.3c0.9,0.2,1.9-0.1,2.6,0.8c0,0.2,0,0.4,0,0.6c-1.4,0.2-2.7,0-4-0.7   C369.1,174.7,369.5,174.5,370,174.3z" />
	<path display="inline" fill="#86756C" d="M363.1,183.2c0.5,1,1.1,2,0.5,3.3c-0.9-0.7-1.1-1.6-1.3-2.5   C362.5,183.7,362.8,183.4,363.1,183.2z" />
	<path display="inline" fill="#311211" d="M372.6,175.6c0-0.2,0-0.4,0-0.6c1.1,0.1,2.1,0.1,3.2,0.2   C374.8,176.3,373.7,175.8,372.6,175.6z" />
	<path display="inline" fill="#33211E" d="M352.1,161.5c-0.1-0.1-0.3-0.3-0.4-0.4c0.2-0.1,0.4-0.1,0.6-0.2   C352.3,161.1,352.2,161.3,352.1,161.5z" />
	<path display="inline" fill="#827865" d="M346,142.5c-0.2,0-0.5-0.1-0.7-0.1c0.4-0.4,0.9-0.8,1.3-1.2c2.6,0.8,7.8-2.3,8.8-0.9   C352.5,141.8,349.3,142.4,346,142.5z" />
	<path display="inline" fill="#CFB899" d="M348.8,138.2c-0.4-0.8-1.4-0.5-2.1-0.5c0.2-0.3,0.6-0.6,0.8-0.9c2,0.2,4.2-0.3,5.9,0.7   c-0.2,0-0.4,0-0.6,0.1c-0.8-0.1-1.6-0.1-2.1,0.7C350.1,138.4,349.4,138.6,348.8,138.2z" />
	<path display="inline" fill="#C6B799" d="M352.1,134.4c-0.1,0.3-0.2,0.6-0.3,1.1c-1.2,0-2.5,0.1-3.7,0.1c-0.2-0.2-0.5-0.4-0.7-0.6   C348.3,133.4,350.6,134.5,352.1,134.4z" />
	<path display="inline" fill="#453129" d="M352.1,134.4c-1.9-0.1-3.9-0.1-5.4-1.4c1.3,0,2.7-0.4,4.1,0   C351.3,133.4,351.7,133.9,352.1,134.4z" />
	<path display="inline" fill="#C3B193" d="M346.6,141.2c-0.4,0.4-0.9,0.8-1.3,1.2c-1.7,0.2-1.7,0.2-2-1.4   C344.3,140.3,345.5,141.1,346.6,141.2z" />
	<path display="inline" fill="#302821" d="M352.2,141.7c1.1-0.5,2.2-1,3.3-1.4c0.3,0.2,0.5,0.4,0.8,0.6c-1.4,0.3-2.7,1.5-4.1,1.4   C352.2,142.1,352.2,141.9,352.2,141.7z" />
	<path display="inline" fill="#8F836E" d="M346.8,132.9c0.7,0.5,1.4,0.9,2.1,1.2c-0.6,0.2-1.3,0.1-1.5,0.8c-0.2,0-0.5,0-0.7,0   c-0.5-0.5-0.9-1-1.4-1.5C345.6,132.4,345.6,132.4,346.8,132.9z" />
	<path display="inline" fill="#8F836E" d="M347.5,136.9c-0.3,0.3-0.5,0.5-0.8,0.8c-0.7-0.4-1.4-0.9-2.1-1.3c0.5-0.5,0.9-0.9,1.4-1.4   c0.2,0,0.5,0,0.7-0.1C347,135.6,347.2,136.2,347.5,136.9z" />
	<path display="inline" fill="#382620" d="M349.5,138.5c0.4-0.1,0.8-0.1,1.2-0.2c0.5,0.2,0.9,0.4,1.4,0.6c-0.6,0.1-1.3,0.1-1.9,0.2   C350,138.9,349.7,138.7,349.5,138.5z" />
	<path display="inline" fill="#382620" d="M352.8,137.7c0.2-0.1,0.4-0.1,0.6-0.1c0.1,0.2,0.2,0.4,0.3,0.6   C353.3,138.3,353,138.1,352.8,137.7z" />
	<path display="inline" fill="#F6D9C7" d="M358.3,136.3c-0.2,0.2-0.4,0.5-0.8,0.5C357.7,136.3,358,136.4,358.3,136.3   C358.4,136.4,358.3,136.3,358.3,136.3z" />
	<path display="inline" fill="#8F836E" d="M347.4,135c0.2,0.2,0.5,0.4,0.7,0.6C347.9,135.4,347.6,135.2,347.4,135z" />
	<path display="inline" fill="#CEB99A" d="M341.2,150.6c0.3-2.4-0.1-4.8,0.9-6.9c0.8,1,1.6,2,2.5,3c-3.8,5.1,4.3,10.1,0.9,15.4   c-0.9-2.4-1.1-4-1.8-6.9c-1.5,4.3,1.4,7.4,0.8,11.4C340.6,162.5,342.5,155.9,341.2,150.6z" />
	<path display="inline" fill="#C4B496" d="M352.2,142.3c0.7,0.2,1.7-0.2,2,0.7c-2.9,1.7-6.5,1.4-9.5,2.9c-0.2-0.8-0.5-1.6-0.8-2.6   C346.7,142.5,349.6,143.9,352.2,142.3z" />
	<path display="inline" fill="#9FA290" d="M348.1,148c-0.4-0.2-0.8-0.4-1.3-0.6c-0.9,1.1-1.1,2.6-1.4,3.9l0,0   c-1.2-1.3,0-3.7,1.2-4.7c1.2-0.2,1.8,0.4,2.2,1.3C348.5,147.9,348.3,147.9,348.1,148z" />
	<path display="inline" fill="#5B574E" d="M349.4,148.6c0.7,0,1.5,0,2.8,0C350.5,149.2,350.5,149.2,349.4,148.6L349.4,148.6z" />
	<path display="inline" fill="#5B574E" d="M348.1,148c0.2,0,0.5-0.1,0.7-0.1c0.2,0.2,0.4,0.5,0.7,0.7l0,0   C349,148.4,348.5,148.2,348.1,148z" />
	<path display="inline" fill="#AA9781" d="M366.4,117.9c1.3,0.1,2.7-0.1,4,0.1l0.2-0.2c0.7-0.1,1.4-1.2,2,0.1   c-0.3,2.1,2.5,1.8,2.7,3.6C372.3,120.3,369.3,118.9,366.4,117.9z" />
	<path display="inline" fill="#A5A990" d="M364.5,117.8c0-0.2,0-0.4,0-0.6c0.7,0.1,1.7-0.3,2.1,0.8   C365.8,117.9,365.1,117.8,364.5,117.8z" />
	<path display="inline" fill="#565246" d="M363,117.4c0.3,0.1,0.5,0.3,0.8,0.4C363.5,117.6,363.2,117.5,363,117.4z" />
	<path display="inline" fill="#565246" d="M360.5,117.3c0.2,0,0.4,0,0.6,0c-0.3,0.2-0.5,0.3-0.8,0.5   C360.3,117.7,360.3,117.5,360.5,117.3z" />
	<path display="inline" fill="#5C574A" d="M355.6,127.4c-2.4,1.8-6.2,0.5-9.4-0.5C349.5,126.5,352.3,127.2,355.6,127.4L355.6,127.4z   " />
	<path display="inline" fill="#8B5446" d="M351.5,128.9c0,0.2,0,0.4,0,0.6c-1.4,0-2.7,0.1-4.1,0.1   C348.4,128.4,350.1,129,351.5,128.9z" />
	<path display="inline" fill="#5C574A" d="M355.4,126.9c0.6-0.1,1.2-0.2,1.5,0.5c-0.5,0-0.9,0-1.4,0.1l0,0   C355.6,127.3,355.5,127.1,355.4,126.9z" />
	<path display="inline" fill="#C4BDAD" d="M372.6,141.6c0.8,0.4,1.8-0.2,2.5,0.7c-1,0.1-2.1,0.1-3.1,0.2   C371,142,372,141.7,372.6,141.6z" />
	<path display="inline" fill="#C6DDDC" d="M375.3,144.4c-0.2-0.1-0.4-0.2-0.6-0.3c0.1-0.1,0.1-0.2,0.2-0.2   C375,144.1,375.1,144.3,375.3,144.4C375.3,144.5,375.3,144.4,375.3,144.4z" />
	<path display="inline" fill="#C8AE91" d="M349.6,131c-0.5,0-1-0.1-1.5-0.1c0,0,0,0,0,0c0-0.2,0-0.4,0.1-0.6c1.4,0.1,2.9-0.5,4,0.5   C351.3,130.8,350.4,130.9,349.6,131z" />
	<path display="inline" fill="#5A3B32" d="M349.6,131c1.1,0,2.2-0.3,3.3-0.1l0,0C351.8,131.9,350.7,131.8,349.6,131z" />
	<path display="inline" fill="#F6D9C7" d="M378,122c-0.1-0.1-0.2-0.2-0.4-0.3C377.9,121.7,377.9,121.9,378,122L378,122z" />
	<path display="inline" fill="#F6D9C7" d="M378.7,122.1c0.1,0.2,0.1,0.4,0.1,0.6c-0.2-0.2-0.5-0.5-0.7-0.7l0,0   C378.2,122.1,378.4,122.1,378.7,122.1z" />
	<path display="inline" fill="#CDBFA3" d="M348.8,121.4c1.3-0.9,2.2,1.8,2.7,0.6l0,0c1.2,0.3,1.9,1.1,2.6,1.9   c-1.2,0.3-2.3,0.3-3.4,0c-0.2-0.2-0.4-0.4-0.6-0.6c0,0,0,0,0,0c-0.5-0.5-0.9-1-1.4-1.5C348.8,121.7,348.8,121.6,348.8,121.4z" />
	<path display="inline" fill="#ACB89D" d="M354.2,126.1c-0.8-0.4-1.5-0.8-2.1-1.5c1.8,0.2,3.6,0.5,5.4,0.7c0,0.2,0,0.5,0,0.7   C356.5,126.1,355.3,126.1,354.2,126.1z" />
	<path display="inline" fill="#D3C3A7" d="M357.6,126.1c0-0.2,0-0.5,0-0.7c0.7-0.6,1.5-1.2,2.1-1.9c0.4,0,0.9-0.1,1.3-0.1   c-0.4,1.1-1.2,1.9-2.2,2.6C358.4,126,358,126.1,357.6,126.1z" />
	<path display="inline" fill="#897D6B" d="M359.7,123.5c-0.2,0.2-0.4,0.4-0.7,0.6C359.3,123.9,359.5,123.7,359.7,123.5z" />
	<path display="inline" fill="#352F27" d="M350.3,168.9c1.2,1.5,0.1,3.3,0.7,4.8c-0.6,0.3-1.1,0.5-1.5,0.7   c-1.8-4.3-1.8-9.5-2.8-14.2c0.2-0.3,0.4-0.5,0.6-0.8c0.4,2.3,0.5,4.7,1.6,6.8c-0.2,2,0.7,3.8,1.2,5.6   C350.1,170.9,350.2,169.9,350.3,168.9z" />
	<path display="inline" fill="#B8A489" d="M346.7,160.2c0.1,3.9,2.6,8.6,0.9,12.1c-0.8-3.4-1.4-6.8-2-10.2c0.9-0.5,0.4-1.4,0.6-2.1   C346.3,160.1,346.5,160.2,346.7,160.2z" />
	<path display="inline" fill="#BAA68A" d="M347.5,161.4c0-1-0.9-2.9,0.5-3.2c0,0.9,0.1,1.7,0.1,2.6   C347.9,161,347.7,161.2,347.5,161.4z" />
	<path display="inline" fill="#617D68" d="M352.9,130.9c-1.8-0.8-3.5-0.7-5.5-0.7c0-0.2,0-0.4,0-0.6c2.3,0,4.3-0.1,6.6,0   C353.6,130.1,353.2,130.5,352.9,130.9z" />
	<path display="inline" fill="#310F0C" d="M356.8,122.1c-0.9,0.9-1,0.9-1.9-0.1c0.4,0,0.9-0.1,1.3-0.1   C356.4,122,356.6,122.1,356.8,122.1z" />
	<path display="inline" fill="#7D7562" d="M347.5,161.4c0.2-0.2,0.4-0.4,0.6-0.6c0.2,0,0.4,0.1,0.6,0.1l0,0c0.1,1.4-0.4,2.9,0.6,4.2   c0,0.4,0,0.9,0.1,1.3c-0.2,0-0.4,0-0.6,0C348.1,164.7,347.7,163.1,347.5,161.4z" />
	<path display="inline" fill="#7D7562" d="M350.1,159.4c0.1,0.2,0.2,0.5,0.2,0.7c0,0-0.3,0-0.3,0c-0.2,0.2-0.5,0.5-0.7,0.7   c-0.2,0-0.4-0.1-0.6-0.1l0,0c0-0.5,0-1.1,0-1.7C349.3,159.2,349.7,159.3,350.1,159.4z" />
	<path display="inline" fill="#967D73" d="M369.2,143.1c-0.1,0.2-0.2,0.3-0.3,0.5C368.4,143.1,369.1,143.3,369.2,143.1L369.2,143.1z   " />
	<path display="inline" fill="#E1C7B6" d="M362.3,324.7c-0.2-0.7-0.4-1.4-0.5-2.2c0.3-0.1,0.6-0.1,1-0.2c-1-3.3-2.7-6.3-2.5-9.8   c6,3.7,9.5,11,12.9,16.9c-3,0-5.9,0-8.9,0c-0.5-1.1-0.9-2.1-1.4-3.2c0.4-0.1,0.7-0.2,1.1-0.4C363.8,325,363.2,324.6,362.3,324.7z" />
	<path display="inline" fill="#1A0F0D" d="M380.8,330.1c0,0.2-0.1,0.5-0.1,0.7c-12.6,0.5-25.8,2.1-38.1-1.3   c-0.6-1.1-1.8-0.3-2.7-0.7c0.5-1,1.5-0.4,2.2-0.7C354.5,330.5,367.8,330.3,380.8,330.1L380.8,330.1z" />
	<path display="inline" fill="#3B2420" d="M380.8,330.1c-8.6-0.4-17.6,1-25.9-0.5C363.5,329.8,372.4,328.6,380.8,330.1z" />
	<path display="inline" fill="#1E1816" d="M386.2,312.5c-0.9,0.9-2-0.3-2.7-0.8c-1.6-2.9,2.9-4.1,4.8-5.3c1,0.8,0.5,1.6,0,2.3   c-1.2,0.7-2.3,1.3-3.7,2.1c0.6,0.5,1,0.9,1.3,1.3C386.1,312.2,386.1,312.4,386.2,312.5z" />
	<path display="inline" fill="#49403C" d="M360.4,312.5c-0.2,3.5,1.5,6.5,2.5,9.8c-0.4,0.1-0.7,0.1-1,0.2c-1.3-3-2.6-6-2.7-9.4   c0.7-0.8,0.7-1.9,0.7-2.9C360,311,360.2,311.8,360.4,312.5z" />
	<path display="inline" fill="#39322E" d="M405.9,308.4c0.6,3.1-0.6,5.9-1.7,9.2c-1.6-2.9,0.8-6.1,1-9.3   C405.4,308.4,405.7,308.4,405.9,308.4z" />
	<path display="inline" fill="#433B37" d="M405.9,308.4c-0.3,0-0.5,0-0.8,0c-0.7-3.5-0.9-7-0.5-10.7   C406.3,300.5,405.3,305,405.9,308.4z" />
	<path display="inline" fill="#4D3F3A" d="M375.7,269.1c-1.6,1.5-3.8,2.4-5,4.5C370.1,271.2,373.4,268.5,375.7,269.1z" />
	<path display="inline" fill="#836D65" d="M375.7,269.1c-0.4-0.1-0.8-0.1-1.2-0.2c1.7-0.7,3.1-3.1,5-2.1   C378.3,267.9,377,268.5,375.7,269.1z" />
	<path display="inline" fill="#6C625B" d="M403,319.2c0.5,1.5-0.2,2.2-0.7,3.1C401.6,320.7,401.6,320.7,403,319.2z" />
	<path display="inline" fill="#332725" d="M359.8,310.3c-0.1,1,0,2-0.7,2.9c-0.2-1.2-0.5-2.4,0.1-3.9   C359.5,309.8,359.6,310,359.8,310.3z" />
	<path display="inline" fill="#665851" d="M362.3,324.7c0.9-0.1,1.4,0.3,1.8,1.2c-0.4,0.1-0.8,0.2-1.1,0.4c-0.2-0.3-0.5-0.6-0.7-0.8   C362.3,325.2,362.3,325,362.3,324.7L362.3,324.7z" />
	<path display="inline" fill="#5B504A" d="M401.9,323.6c-0.8,1.4-0.4,1.7-1.6,1.7C400.4,324.1,400.5,324.4,401.9,323.6z" />
	<path display="inline" fill="#54413C" d="M400,273.7c-0.4-0.5-0.7-0.9-1.2-1.5C400,272.1,400,272.1,400,273.7z" />
	<path display="inline" fill="#554A44" d="M358.8,299.4c0,1.2,0,1.9,0,2.9C358,301.4,358.1,300.6,358.8,299.4z" />
	<path display="inline" fill="#6F4540" d="M386.2,312.5c-0.1-0.1-0.2-0.3-0.1-0.5c0.6-0.1,1.2-0.1,1.9-0.2   C387.6,313,386.8,312.4,386.2,312.5z" />
	<path display="inline" fill="#E1C7B6" d="M362.3,324.7c0,0.2,0,0.5,0,0.7C361.7,325.2,361.8,325,362.3,324.7z" />
	<path display="inline" fill="#4C2D24" d="M331.2,333c-0.9,3.1-1.4,6.2-3,9.1c-0.2-3.7,1.3-7.1,2.3-10.5   C331.2,331.8,331,332.5,331.2,333z" />
	<path display="inline" fill="#794839" d="M327.3,378.1c-1.1-4.4-2-8.1-1.4-12.1C327.2,370.1,327.8,373.4,327.3,378.1z" />
	<path display="inline" fill="#7B4737" d="M331.2,333c-0.1-0.5,0-1.2-0.8-1.5c0.3-1.4,0.5-2.8,1.6-3.9   C332.4,329.6,332.3,330.2,331.2,333z" />
	<path display="inline" fill="#8D513F" d="M326.8,350.8c0.3,1.3,0.4,2.3-0.2,3.1C325.3,353,325.3,352.4,326.8,350.8z" />
	<path display="inline" fill="#301A16" d="M341,329c0.6-0.1,1.2-0.2,1.6,0.5C342.1,329.3,341.6,329.1,341,329z" />
	<path display="inline" fill="#322724" d="M350.9,267.6c1.6,1.3,2.7,2.3,3.5,3.8C352.3,271.4,351,270.2,350.9,267.6z" />
	<path display="inline" fill="#433531" d="M348.6,277.2c1.8-0.3,2.5,0.8,3.6,1.5C350.4,280,349.8,278.4,348.6,277.2z" />
	<path display="inline" fill="#46302D" d="M354.8,280.4c-0.9,0.5-1.3,0-1.6-0.8C354.1,279,354.5,279.5,354.8,280.4z" />
	<path display="inline" fill="#301A16" d="M346.2,328.8c-1,0-2.1,0.5-2.9-0.5C344.3,328.2,345.3,328.1,346.2,328.8z" />
	<path display="inline" fill="#A89185" d="M356.6,272.6c-0.2,0.5-0.4,0.3-0.8,0.1C356,272.4,356.2,272.6,356.6,272.6z" />
	<path display="inline" fill="#8D7C71" d="M359.2,274.8c0.3-0.4,0.5-0.3,0.8,0C359.8,275.2,359.5,274.9,359.2,274.8z" />
	<path display="inline" fill="#1A1614" d="M332.5,206.9c3.5,3.3,4.3,7.5,4.6,12.2c-0.2,0.4-0.5,0.8-0.7,1.2c-1.4-1.4-1.4-6.2-2-8.2   c-2.6-3.4-5.1-4.6-6.7-8.6C329.9,204,330.8,205.6,332.5,206.9z" />
	<path display="inline" fill="#4B312D" d="M309.4,214.6c2.4-0.6,4.3,1.8,6.7,1.4C314.7,218.1,310.7,216.5,309.4,214.6z" />
	<path display="inline" fill="#2B2622" d="M324.9,219.9c-0.6,1.1-0.9,1.5-2,2.3C322.7,220.6,323.5,220,324.9,219.9z" />
	<path display="inline" fill="#48413C" d="M323.4,206.2c-1-0.9-0.6-1.8,0.1-2.7c0.2,0.4,0.4,0.9,0.6,1.3   C323.9,205.3,323.6,205.8,323.4,206.2z" />
	<path display="inline" fill="#27211F" d="M335.6,224.7c-0.7-0.3-0.6-0.7-0.2-1.2C336.2,223.8,336.1,224.2,335.6,224.7z" />
	<path display="inline" fill="#201B18" d="M336.9,228.6c0.2,0.4,0.4,0.6-0.1,0.8C336.5,229.1,336.5,228.9,336.9,228.6z" />
	<path display="inline" fill="#48413C" d="M324.3,204.4c0.1-0.3,0.3-0.5,0.4-0.8C324.6,203.9,324.5,204.1,324.3,204.4z" />
	<path display="inline" fill="#130F0A" d="M340.7,237.2c4.2,10.7,8.1,14,19.5,16.7C350.2,256.5,338.8,246.7,340.7,237.2z" />
	<path display="inline" fill="#4C505E" d="M331,180.5c1.3-7.5,2.5-16.3,6.2-23.1c1.1,0.2,2.2-0.3,3.2,0.5c0.8,6.9,1.7,13.5,4.6,19.9   c0.5-0.8,0.2-1.1-0.3-1.3c0-0.3,0.1-0.5,0.1-0.8c0.2-0.2,0.4-0.4,0.7-0.6c1.5,1.7-0.3,3.4,0,5.1c0.3,0,0.6,0,1.1,0   c0.3,0.8,0.6,1.6,0.9,2.4c-2.5,6-11.8,3.5-16.3,1C331.1,182.5,331.1,181.5,331,180.5z" />
	<path display="inline" fill="#373945" d="M331,180.5c0,1,0.1,2,0.1,3.1c4.1,2.9,8.8,2.5,13.5,2.4c-0.8,1.6-2.5,2.1-3.7,3.2   c-4,0.6-7.7,1.4-11.8,0.7C329.8,186.7,330.2,183.5,331,180.5z" />
	<path display="inline" fill="#28231E" d="M347.5,182.6c-0.3-0.8-0.6-1.7-0.9-2.4c-0.5,0-0.8,0-1.1,0c-0.5-1.4,1-2.5,0.5-3.9   c-1-1.9-0.7-4.1-1-6.1c0.3,0,0.6-0.1,0.9-0.1c0-0.6,0.1-1.1,0.1-1.7c0.2,0,0.4,0,0.5,0c0.6,2.8,1.3,5.3,2.2,8   c0.4-0.3,0.5-0.4,0.7-0.6c1.3,1,0.2,1.9-0.1,2.8c-0.6-0.8-1.1-1.7-2-2.9c0,2.1,0.9,3.3,1.8,5.1c0.2-0.8,0.3-1.2,0.4-1.6   C351.3,180.8,348.7,181.9,347.5,182.6z" />
	<path display="inline" fill="#262222" d="M336.5,158.1c-2.7,6.3-3.3,13.5-5.4,19.7c-0.2,0-0.5,0-0.7,0c1.1-7,2.1-14.1,5.4-20.5   C336,157.6,336.3,157.8,336.5,158.1z" />
	<path display="inline" fill="#C1CCCD" d="M337.8,191.4c-0.5,0.7-1.1,1.4-1.6,2c-2.6-0.4-4.9-0.5-7.4-0.1   C328.3,190.9,335.9,191.6,337.8,191.4z" />
	<path display="inline" fill="#352F27" d="M348.7,160.8c0.2,0,0.4,0,0.6,0.1c0.1,0.3,0.3,0.6,0.7,1.5c0-1.2,0-1.7,0-2.2l0.3,0   c0.9,1.1,0.3,2.3,0.4,3.3c-0.5,0.6-1,1-1.4,1.5C348.3,163.7,348.9,162.2,348.7,160.8z" />
	<path display="inline" fill="#91816C" d="M348.8,166.3c0.2,0,0.4,0,0.6,0c0.8,1.8,1,3.7,0.6,5.6C349.5,170,348.6,168.2,348.8,166.3   z" />
	<path display="inline" fill="#998972" d="M349.5,175.7c-0.2,0.1-0.3,0.3-0.7,0.6c-0.5-1.4-0.9-2.7-1.3-4c0.9-0.5,0.4-1.4,0.7-2.1   c0.7,1.4,0.2,3.1,1.2,4.3C349.5,174.9,349.5,175.3,349.5,175.7z" />
	<path display="inline" fill="#94856F" d="M349.6,179.1c-0.1,0.4-0.2,0.8-0.4,1.6c-0.8-1.7-1.8-3-1.8-5.1   C348.4,177.2,349.1,177.9,349.6,179.1z" />
	<path display="inline" fill="#48413C" d="M323.6,203c-0.1-0.8,0-1.5,0.6-2.1C324.3,201.7,324.5,202.5,323.6,203z" />
	<path display="inline" fill="#778E8F" d="M337.8,191.4c-0.5,0-1-0.1-1.5-0.1c0.6-0.1,1.2-0.3,1.8-0.4   C338,191,337.9,191.2,337.8,191.4z" />
	<path display="inline" fill="#241A12" d="M362.4,253.3c2-0.8,4-1.4,6.4-1.4C367.8,254.4,364.5,254.8,362.4,253.3z" />
	<path display="inline" fill="#77764E" d="M373.8,251c-0.4,0.2-0.6,0.3-0.8-0.2C373.4,250.6,373.6,250.5,373.8,251z" />
	<path display="inline" fill="#110A09" d="M336.5,158.1c-0.6-0.6-0.8-1-1.1-1.9c1.4-0.9,2.8-1.7,4.2-2.6c0.1-1,0.2-1.9,0.4-2.9   c0.4,0,0.8,0,1.2,0c0.2,1.8,0.3,4.3-1,5.7c-0.3-0.2-0.5-0.4-0.6-0.5C338.5,156.6,337.3,157,336.5,158.1z" />
	<path display="inline" fill="#735F58" d="M330,149.3c-0.6,1.2-0.9,1.9-1.3,2.6C327.3,151.3,328.2,149.8,330,149.3z" />
	<path display="inline" fill="#89736B" d="M324.4,160.2c0.7-1,1-1.5,1.3-2C326.4,159.6,326.4,159.6,324.4,160.2z" />
	<path display="inline" fill="#94867C" d="M326.8,218.1c-0.5-0.9-0.5-1.2,0.5-1.3C327.8,217.2,327.3,217.5,326.8,218.1z" />
	<path display="inline" fill="#A7958A" d="M320.6,215.2c-0.3-0.4-0.6-0.7-0.9-1.1C320.7,214.1,320.7,214.1,320.6,215.2z" />
	<path display="inline" fill="#37302D" d="M327.7,153.6c-0.1,0.6-0.2,1.1-0.3,1.9C326.6,154.7,326.7,154,327.7,153.6z" />
	<path display="inline" fill="#272D25" d="M348.7,143c-0.9,0-1.8,0-2.7,0c0-0.2,0-0.4,0-0.5c0.9,0,1.8-0.1,2.7-0.1l0,0   C348.8,142.6,348.8,142.8,348.7,143z" />
	<path display="inline" fill="#8F8D76" d="M347.4,130.2c0.3,0,0.5,0.1,0.8,0.1c0,0.2-0.1,0.4-0.1,0.6c-0.6,0-1.1,0-1.4-0.6   C346.9,130.2,347.2,130.2,347.4,130.2z" />
	<path display="inline" fill="#6F5E4E" d="M349.5,138.5c0.2,0.2,0.4,0.5,0.7,0.7c-0.7,0.8-1.5,0.6-2.7,0.4c0.5-0.5,0.9-0.9,1.3-1.3   C349,138.3,349.3,138.4,349.5,138.5z" />
	<path display="inline" fill="#6F5E4E" d="M346.7,137.8c0.2,0,0.5,0,0.7-0.1c-0.2,0.2-0.5,0.4-0.7,0.5   C346.7,138.1,346.7,137.9,346.7,137.8z" />
	<path display="inline" fill="#D2C3A6" d="M350.7,124c0.3,0.1,0.7,0.1,1,0.2c-1.4,0.9-1.7,0.8-2.9-0.8l0,0c0.5,0,0.9,0,1.4,0l0,0   C350.3,123.6,350.5,123.8,350.7,124z" />
	<path display="inline" fill="#B4B79C" d="M348.8,123.4c-0.4-0.1-0.8-0.1-1.3-0.2C348.2,122.6,348.5,122.8,348.8,123.4L348.8,123.4z   " />
	<path display="inline" fill="#C2C2A6" d="M350.9,122c-0.2-0.2-0.5-0.4-0.7-0.7c0.5,0.2,0.9,0.4,1.4,0.6l0,0   C351.3,122,351.1,122,350.9,122z" />
	<path display="inline" fill="#AA9781" d="M369.8,117.9c-0.1-0.2-0.2-0.3-0.3-0.5c0.3,0.1,0.7,0.3,1,0.4c0,0-0.2,0.2-0.2,0.2   C370.2,118.1,370,118.1,369.8,117.9z" />
	<path display="inline" fill="#C1B597" d="M346,135c-0.5,0.5-0.9,0.9-1.4,1.4c-0.6-0.3-1.2-0.6-1.9-0.9c0-0.6,0-1.2,0-2.1   C344,134,345,134.5,346,135z" />
	<path display="inline" fill="#DBC2B2" d="M434.4,456.8c-1.3-1.8-1.1-4.5-1.8-6.8c1.4-2.1,1.4-2.1,4.4-1.9c2.5,3.4,4.7,9,1.6,12.7   c-2-0.4-3.1-1.8-4-3.6c0.3,0,0.7,0,1.1,0c-0.6-2.6,0.6-4.9-0.9-7.3C434,452.4,434.5,454.6,434.4,456.8z" />
	<path display="inline" fill="#26201D" d="M429.7,472.4c-0.2-0.7-0.4-1.5-0.6-2.1c2.7-1,4.4,6.7,5.5,8.8c-0.3,0.3-0.5,0.5-0.8,0.8   C432.5,477.4,431.1,474.9,429.7,472.4z" />
	<path display="inline" fill="#0A0A09" d="M434.4,456.8c0.1-2.2-0.5-4.4,0.4-6.8c1.5,2.5,0.3,4.7,0.9,7.3c-0.4,0-0.8,0-1.1,0   C434.6,457.1,434.6,456.9,434.4,456.8z" />
	<path display="inline" fill="#1D1B19" d="M438,439.5c-0.7-2.3,0-4.3,0-6.3C440.6,432.7,438.8,437.1,438,439.5z" />
	<path display="inline" fill="#4B413C" d="M435.9,443.1c0.1-0.7,0.1-1.3,0.2-2.2C437.4,441.9,437.4,441.9,435.9,443.1z" />
	<path display="inline" fill="#1B1514" d="M437.1,495.4c-1.3-1.1-1.3-1.2,0-1.9C437.4,494.2,437.4,494.7,437.1,495.4z" />
	<path display="inline" fill="#41443F" d="M433.8,479.9c0.3-0.3,0.5-0.5,0.8-0.8c0.7,0.6,0.6,1.4,0.5,2.1   C434.4,481.1,433.9,480.6,433.8,479.9z" />
	<path display="inline" fill="#533E3A" d="M435.5,482.3c0.4,1.6,0.9,1.6-0.1,2.2C434.8,483.7,435.2,483.8,435.5,482.3z" />
	<path display="inline" fill="#553C38" d="M435.3,489.6c0.1-0.6,0.2-0.9,0.2-1.3C436.2,488.4,436.1,489.1,435.3,489.6z" />
	<path display="inline" fill="#EE8A6A" d="M402.5,354c0.1-0.2,0.3-0.3,0.6-0.6c0.6,0.6,1.2,1.1,2,1.8c-2.3,2.5-10.3,7.4-13.7,6.8   c-0.9-2.7,0.5-2.8,2.3-3.8c0.8,1.9,7.3-2.3,8.1-3.4l0,0c0.3,0,0.6-0.1,0.9-0.1C402.6,354.4,402.6,354.2,402.5,354z" />
	<path display="inline" fill="#EC8A6A" d="M406,348c3.1-2,4.2-2.3,6.7-1.6c-2.3,2.8-6.5,4.3-10.2,4.9c1.3-0.8,2.7-1.7,4.1-2.6   C406.3,348.4,406.2,348.2,406,348z" />
	<path display="inline" fill="#4C2B23" d="M365.7,357.5c-4.8-3.2-9.9-5.6-14.8-8.8c5.7,1,10.7,4.9,15.5,8.2   C366.2,357,366,357.2,365.7,357.5z" />
	<path display="inline" fill="#955745" d="M406,348c0.2,0.2,0.4,0.4,0.6,0.7c-3.3,2.4-6.7,3.8-10.5,4.9c-0.4-0.6,0.1-0.8,0.4-1   C399.7,351.2,402.9,349.7,406,348L406,348z" />
	<path display="inline" fill="#3A261F" d="M380.1,370.3c0.9-3.4,1.8-6.7,2.7-10.1c0.3,0.3,0.5,0.5,0.8,0.8c-0.4,3.3-0.8,6.6-2.9,9.4   C380.5,370.3,380.3,370.3,380.1,370.3z" />
	<path display="inline" fill="#A76954" d="M367.8,362.9c-3-1.4-6.3-4-8.6-6.5C362.4,357.1,365.7,360.1,367.8,362.9L367.8,362.9z" />
	<path display="inline" fill="#53382F" d="M385.2,352.2c-0.6-2.8-0.6-12.2,0-14.9C385.7,339.4,385.7,348.8,385.2,352.2z" />
	<path display="inline" fill="#B06851" d="M401.8,354.7c-0.8,1.2-7.3,5.3-8.1,3.4C396.4,356.9,398.9,355.2,401.8,354.7z" />
	<path display="inline" fill="#9B614E" d="M408.5,337.5c1.8-1.4,3.9-2.1,5.5-1.4C412.5,337.2,411.3,337.5,408.5,337.5z" />
	<path display="inline" fill="#7A4C3D" d="M383.6,360.9c-0.3-0.3-0.5-0.5-0.8-0.8c-0.2-1.4,0.5-2.5,1.1-4.4   C384.3,358,384.5,359.5,383.6,360.9z" />
	<path display="inline" fill="#6E4035" d="M414.7,339.2c-0.9,1.6-0.9,1.6-3.8,2.1C410.7,340,413.5,340,414.7,339.2z" />
	<path display="inline" fill="#58332A" d="M357.3,345.6c2.3-0.6,2.3-0.5,3.4,0.6C359.7,346.8,358.5,345.8,357.3,345.6z" />
	<path display="inline" fill="#875644" d="M365.7,357.5c0.2-0.2,0.5-0.4,0.7-0.7c1,0.4,1.7,1,2,2   C367.4,359.4,366.6,357.9,365.7,357.5z" />
	<path display="inline" fill="#B06851" d="M402.5,354c0.1,0.2,0.1,0.4,0.2,0.6c-0.3,0-0.6,0.1-0.9,0.1   C402,354.5,402.3,354.2,402.5,354z" />
	<path display="inline" fill="#EC8A6A" d="M406,347.9c-0.5,0.2-0.9,0.5-1.4,0.7C404.8,347.9,405.4,347.9,406,347.9z" />
	<path display="inline" fill="#EC8A6A" d="M401.1,351.9c0.5-0.2,0.9-0.4,1.4-0.6C402.3,352,401.7,352,401.1,351.9z" />
	<path display="inline" fill="#EF8A6A" d="M380.1,370.3c0.2,0,0.4,0.1,0.6,0.1c0,0.2,0,0.4,0,0.7   C380.5,370.8,380.3,370.5,380.1,370.3z" />
	<path display="inline" fill="#A76954" d="M367.8,362.9c0.2,0.1,0.3,0.2,0.5,0.3C367.8,363.6,367.9,363,367.8,362.9L367.8,362.9z" />
	<path display="inline" fill="#51453F" d="M433,529.3c0,1.2,0,2,0,3C432.2,531.2,432.3,530.5,433,529.3z" />
	<ellipse display="inline" fill="#735D55" cx="432.8" cy="536.6" rx="0.2" ry="1" />
	<path display="inline" fill="#998076" d="M433.8,524.1c-0.1,0.4-0.1,0.8-0.2,1.3C432.9,524.7,433.2,524.4,433.8,524.1L433.8,524.1z   " />
	<path display="inline" fill="#754032" d="M397.7,368.3c-4.6,1.6-8.8,3.7-13.6,4.6C387,370.4,394.3,367.6,397.7,368.3L397.7,368.3z" />
	<path display="inline" fill="#2B211F" d="M458.7,249c2.9,1.4,4,4.1,3.4,6.8C460.7,253.8,459.7,251.8,458.7,249z" />
	<path display="inline" fill="#5A4741" d="M549.5,305.8c-0.5,0.4-0.9,0.8-1.4,1.2c-1.5-0.8-2.5-2.1-3.2-4.2   C547.1,303.5,547.3,305.5,549.5,305.8z" />
	<path display="inline" fill="#8B776E" d="M465.1,262.1c-1.4-0.9-1.6-1.6-1-2.6C465.5,259.9,465.1,260.8,465.1,262.1z" />
	<path display="inline" fill="#3E2C28" d="M416.1,220.8c-2.3-0.2-0.9-2,0.7-1.6C417,220,416.6,220.4,416.1,220.8z" />
	<path display="inline" fill="#917D73" d="M508.7,289.4c-0.9,0.9-1.7,0.4-1.4-0.7C507.8,288.9,508.2,289.1,508.7,289.4z" />
	<path display="inline" fill="#8E7C72" d="M513.4,292.9c-1.3-0.4-1.4-0.2-1.8-1.2C512.7,291.2,512.9,291.9,513.4,292.9z" />
	<path display="inline" fill="#6D3734" d="M367.8,203.6c-0.9-0.3-1.8-0.5-2.8-0.8C366.4,201.6,367.2,203,367.8,203.6z" />
	<path display="inline" fill="#A59084" d="M371.9,204.2c-1.2,0-1.7,0.4-1.9-0.8C371,202.8,371.1,203.4,371.9,204.2z" />
	<path display="inline" fill="#E0C7B6" d="M359.6,177.8c0.2,0.4,0.5,0.9,0.7,1.3C359.7,178.9,359.6,178.4,359.6,177.8z" />
	<path display="inline" fill="#33120D" d="M400.9,251.5c-1.4,0.2-1.4,0.2-3-0.8C399.5,250.3,399.9,250.4,400.9,251.5z" />
	<path display="inline" fill="#938558" d="M395,249.9c-0.2-0.2-0.3-0.5-0.5-0.7c0.2-0.1,0.5-0.3,0.7-0.4c0.1,0.3,0.3,0.5,0.4,0.8   C395.5,249.6,395.3,249.7,395,249.9z" />
	<path display="inline" fill="#1C1715" d="M454.9,566.8c-0.8,0.1-1.7,0.2-3.1,0.3c1.7-3.1,5-3.3,8.1-2.9c0.8,2.1-1.7,0.8-2.3,2   C456.7,566.6,455.5,565.8,454.9,566.8z" />
	<path display="inline" fill="#32332D" d="M462.3,568.3c-2.1-0.2-3.9,1.4-6-0.1C457.4,566.4,462.6,565.7,462.3,568.3z" />
	<path display="inline" fill="#32332D" d="M457.6,566.2c0.3-0.6,0.8-0.6,1.4-0.6C458.6,565.8,458.1,566,457.6,566.2z" />
	<path display="inline" fill="#32332D" d="M454.9,566.8c0.4-0.7,1-0.6,1.6-0.5C456,566.5,455.4,566.7,454.9,566.8z" />
	<path display="inline" fill="#14100E" d="M325.1,571.4c2.7-5.2,9.5-7.5,15-5.5c-3.4,2.2-7.7,2.3-11.2,4.6   C327.6,571,326.6,572,325.1,571.4z" />
	<path display="inline" fill="#100E0C" d="M324.7,568.4c2-6.4,10.5-9.5,15.4-5.4C334.1,563.4,329.9,564.6,324.7,568.4z" />
	<path display="inline" fill="#130F0D" d="M328.9,575.7c-0.4,0-0.9,0.1-1.5,0.2c0.4-4.6,10.1-8.2,13.1-4.9   C336.7,572.5,332.5,573.3,328.9,575.7z" />
	<path display="inline" fill="#2D241E" d="M348.7,589.4c0,0.3,0,0.6,0,1c-5.6-1.4-10.3,0.1-14.3,4.7c-0.4-2,1-2.6,1.4-3.7   C339.6,588.5,344.3,587.6,348.7,589.4z" />
	<path display="inline" fill="#171412" d="M333.8,574.5c1.5-0.1,3.1-0.5,4.8,0.2c-1.6,2.5-5.7,2.4-8.4,3.7c-1.3-0.4-1.3-0.4-0.5-2   C331.1,575.8,332.5,575.2,333.8,574.5z" />
	<path display="inline" fill="#181311" d="M338,577.3c0.6,0,1.3,0.1,2.1,0.1c-1.1,2.2-6.6,4.5-8.8,3c0.2-0.5,0.4-0.9,0.5-1.3   C333.8,578.5,335.9,577.9,338,577.3z" />
	<path display="inline" fill="#C6C6AC" d="M338,577.3c-2.1,0.6-4.2,1.3-6.2,1.9c-0.5-0.2-1-0.5-1.5-0.7c1.9-0.6,3.7-1.2,5.6-1.9   C336.3,577.5,337.3,576.9,338,577.3z" />
	<path display="inline" fill="#C1C3AA" d="M333.8,574.5c-1.4,0.7-2.7,1.3-4.1,2c-0.3-0.3-0.5-0.5-0.8-0.8c1.2-0.6,2.4-1.3,3.6-1.9   C332.9,574.1,333.4,574.3,333.8,574.5z" />
	<path display="inline" fill="#2F1D18" d="M352.2,142.3c-1,0.5-2.3,0-3.4,0.1c0,0,0,0,0,0c1-0.9,2.2-0.6,3.4-0.7   C352.2,141.9,352.2,142.1,352.2,142.3z" />
	<path display="inline" fill="#242424" d="M337.2,157.3c0.8-0.5,1.6-1,2.5-1.5c0.1,0.1,0.3,0.3,0.6,0.5c0.9-0.6,0.7-2.2,1.2-3.2   c0.7,7.8,2,15.6,3.3,23.3l0,0c-3.3-5.6-3.2-12.3-4.3-18.6C339.4,157,338.2,157.6,337.2,157.3z" />
	<path display="inline" fill="#A9967D" d="M344.8,175.7c-0.7-3.6-1.9-7.1-2-10.8c0.5,0.6,1,1.1,1.7,1.8c0.1-0.4,0.2-0.8,0.2-1.2   c0.4,0.9,0.9,1.9,1.4,2.8c0,0.6-0.1,1.1-0.1,1.7c-0.4,0.1-0.6,0.1-0.9,0.1c0.1,1.7,0.3,3.3,0.4,5   C345.2,175.2,345,175.4,344.8,175.7z" />
	<path display="inline" fill="#494136" d="M346.1,168.3c-1.9-4.1-3.4-8.3-2.4-13c0.9,4.8,2.2,8.4,2.9,13.1   C346.4,168.3,346.3,168.3,346.1,168.3z" />
	<path display="inline" fill="#827865" d="M348.7,142.4c0.9,0,1.9,0.1,2.8,0.1c-0.8,0.9-1.8,0.5-2.8,0.5   C348.8,142.8,348.8,142.6,348.7,142.4z" />
	<path display="inline" fill="#161310" d="M369.9,117.9c0.2,0.1,0.3,0.2,0.5,0.1C370.2,118,370.1,118,369.9,117.9z" />
	<path display="inline" fill="#726556" d="M350.9,122c0.2,0,0.4,0,0.6,0C351.3,122.5,351.1,122.7,350.9,122z" />
	<path display="inline" fill="#726556" d="M350.7,124c-0.2-0.2-0.4-0.4-0.6-0.6C350.3,123.6,350.5,123.8,350.7,124z" />
	<path display="inline" fill="#D3BDA1" d="M350,160.1c0,0.5,0,1,0,2.2c-0.4-0.9-0.5-1.2-0.7-1.5C349.6,160.6,349.8,160.4,350,160.1z   " />
	<path display="inline" fill="#242424" d="M344.7,176.5c0.5,0.2,0.7,0.4,0.3,1.3C344.8,177.1,344.8,176.8,344.7,176.5   C344.7,176.4,344.7,176.5,344.7,176.5z" />
</g>
</svg>