<?xml version='1.0' encoding='utf-8'?>
<svg xmlns="http://www.w3.org/2000/svg" version="1.2" baseProfile="tiny" id="Layer_1" x="0px" y="0px" viewBox="0 0 900 600" overflow="visible" xml:space="preserve">
<g id="b_00000176749069456800071550000013843422327230105483_">
	<path display="inline" d="M601.9,300.4c3.9,13.5,0.5,29-8.7,39.7c-1.5-0.4-2.1,2.7-3.3,1.5c8-9.2,19.7-44.4,1.6-46.2   c-3.1,4.4-9.4,2.5-13.9,2.5c-7.5,12-22.4,18.1-27.3,31.2c2,1.2,5.7,0.9,6,3.7c-12.9,26.3-18.1,55.9-19.9,85   c-4.6,19.2,0.8,38.3-0.4,57.7c1.2,25.9-22.8,20.1-23.6,36.6c2.1,0.1,4.3-0.1,6.4-0.2c3.4,4.3,4.2,10.8,0.7,15.3   c2.5,2.2,5.1,3.2,8.2,1.9c0.3,0.3,0.6,0.7,1,1c-3.5,4.5-8.6,0.1-11.8-2.4c-4.1,3.6-0.9,11.6,2.2,15.3c8.1-5,17.3-5.2,26.2-4.2   c1.5-4,5-8.4,1.9-12.6c-1.5,0-2.9,0-4.4,0c-0.1-0.4-0.3-0.8-0.4-1.3c2.9-0.4,3.9-1.7,6.6-2.6c5.6-8.6,3.7-18.3,0.8-27.5   c2.9-4.6,1.2-10.7,3.5-15.7c1.8,5.9,0.9,11.7-1,17.7c1.3,4.7,3.3,8.5,3.3,13.3c13.2,8.7,7.8,26.7,0.8,38   c32.9,49.6-66.6,64.2-48,6.3c-11.1-13.5-13.4-30.7,1.7-42.2c0.3-17.8,26.5-13.4,23.4-37.3c0.9-10.5-1.4-21-1.8-31.6   c-1.1-12.5,4.1-24.6,3.8-36.8c0.2-25.8,8.4-49.7,17.6-73.7c-11.2-4-23.2-3.7-34.6-6.1c-0.6,5.5-3.3,9.5-3.9,14.9   c-1.1-2.1-1.5-4.4-1.8-6.7c0.7-1.3,1.2-2.8,2.3-3.8c2.4-0.1,1.5-4,1.2-5.7c-6.3-1.3-12.4-3.9-17.5-7.8c-10.3-0.8-21.6-1.5-29.2-9   c-10.6-6-22-12.4-29.8-21.7c-6.9-11.5-19.1-21-13.6-35.9c-4.4,1.1-8.4,3.8-13,4c-2.2,17.9-12.7,33-18.6,49.8   c-0.8-0.6-0.7-2.1-0.5-2.9c1.8-1.3-1.6-7,0.7-9c0.3,0.7,0,1.7,0.7,2.2c8.4-15.2,13.6-31.7,16.4-48.6c-1.8,0.2-2.1,1.1-2.2,2.2   c-0.5,0.5-0.9,1.1-1.4,1.6c-0.3-0.3-0.6-0.6-0.9-0.9c0.6-1.7,0.9-3.5,2.1-5c1.1,0.3,2.1,1.2,3.2,0.4c10,0.6,21.3,6.9,30.8,2.9   c-0.5-1.6-2.5-3.3-1.6-5.1c8.3,7.7,18.1,10.6,29.3,12.4c-4.3,1.6-8.5,1.4-12.7,1c-0.9-0.8-1.9-0.8-3.6-0.4   c12.6,7.5,28.8,3.9,38.9-6c4.8-5.2,14.9-6.4,16.3-14.1c-0.9-0.6-1.7-1.2-2.5-1.7c0.2-0.9,0.9-0.7,1.5-0.8c0.8,0.3,1.6,0.6,2.3,0.9   c6.3-6.4,26.5-19.1,13.9-27.7c-14.4-8-31.2-12.2-46.9-14.3c10.1-4.5,36.9,6.8,46.9,11.9c5.4,2.9,8.8,8.1,13,11.9   c4.3,2.5,9,4.6,11.8,8.9c0.8-0.2,1.5-0.4,2.2-0.6c4-9.4,14.2-15.5,24.1-15.9c5.6-1.6,10.5,3,15.8,4.5c1-1.4-0.1-3.7,2.2-4.4   c1.2,1.2,0.1,2.5,0.4,3.8c3.9-0.4,7.8-0.5,11.1,2.4c-0.2,2.5-2.3,2.4-3.7,3.2c1,2.2,3.1-0.4,4,2.9c0.8,0.2,1.8,0.5,3,0.8   c-0.2,0.7-0.4,1.2-0.7,2c15.3,13.8,3.7,28.3,4.2,44.4c-2.6,2.7,0.6,5.5-1.6,8.7c-0.7-0.1-1.4-0.2-2.1-0.3   c-1.4,5.5,0.9,11.5-1.8,16.9c-0.6-1-1-1.6-1.4-2.3c-1.4,0.8-2.1,4.6-0.8,5.9c-1.7,0.4-3.1-0.6-4.5-1.2c-0.3,0.3-0.4,0.5-0.7,0.9   C601.8,297.3,600.5,299.2,601.9,300.4z M551.1,246.6L551.1,246.6c0-0.6,0-1.2,0-1.7c-1.7-1.4-4.7-2.2-6-0.4c-2.3-0.2-4.4-0.6-6.8-1   c0.1-0.8,0-2,0.4-2.7c-1.3-1.2-1.6-2.7-0.2-3.9c1.4-2.1-0.2-3.2,3.1-4.2c0.8-3,2.1-3.5,4.9-3.6c0.8-1,1.7-2,2.5-3   c-1.2-2.1-3-3.2-4.6-4.2c-12.8,4.7-22.9,15-29.1,26.9c2.1,4.6,4.1,9,6.1,13.4c-0.1,0.2-0.1,0.5-0.1,0.7c-0.2,0.5-0.5,1-0.7,1.5   c-3-4.1-4-9.1-7.1-13.2c-4.2,7.3-9.8,13.3-12.3,21c3.4,7.2,6.3,18.6,14.8,19.8c-0.6,0.4-1.1,0.7-1.8,1.2   c20.3,17.7,18.4,15.8,43.8,16c-13.8,5.1-29.5,2.5-38.7-9.5c-9.8-6.1-16.5-14.6-19.2-25.9c-1.5-13.2,12.6-22.3,17.7-33.4   c5.1-9.2,13.8-15.5,22.9-20.6c-3.2-1.9-6.3-2.4-8.5-5.3c-2.7,8.5-9.4,14-15.8,19.8c-3.3,3.1-4.5,7.8-8.6,10.2   c-15.9,11.1-41.9,31.1-57.3,8.7c-1.3,1.9-0.3,4.1-1.6,6.4c-0.2-2.9-0.3-5.2-0.4-7.4c-0.9-0.7-1.7-1.3-2.3-1.7   c-4.1,1.3-7.6,1.6-11.6,2.2c-1.9,1.5,0.1,4.2-1.5,5.9c-0.3-1.9-0.5-3.9-0.8-6c-0.7,0.1-1.3,0.1-1.9,0.2   c-3.5,15.3,9.8,24.8,15.9,37.2c15.9,9.2,31.1,24.1,50.6,22.9c-10.4-13.5-32.9-18.4-35.3-37.1c0.5-1,0.9,0.1,1.4,0   c7.1,17.8,26.4,24,38.9,36.8c2.8,9.6,35.7,13.7,45.3,15.5c3.3-4.6,5.2-10,10-13.2c3-2.7,8.3-5,9-9.2c0.3-0.3,0.6-0.6,0.9-0.8   c1.2-0.2,2.4-0.4,3.8-0.7c2.3-2.8,4.6-5.7,6.9-8.6c3.4,1.2,8.7,1,11.4-1.5c-3.5-2-4.5-6.6-7.3-8.4c0.2,1.2-0.5,2.6,0.8,3.6   c0.1,0.4,0.2,0.9,0.3,1.4c-6.7,0-6.5-9.6-5.5-14.3c-4.7-11.5-18.2-5.1-26.5-9.9c-3,0.4-5.8,0.7-8.7,1.1c-0.5-0.6-0.9-1.2-1.3-1.7   c4.5-6.7,9.1-6.3,11.5-14.9c-0.8-0.9,1.1-2.1-0.4-2.8c-0.1-0.2-0.2-0.4-0.2-0.6C551.5,247.2,551.3,246.9,551.1,246.6z M554.8,260.8   c2.4,0.9,6.9-2.6,6.3-4.7c-2.3,1.9-4.8,3.2-6.5,5.2C554.6,261.1,554.7,261,554.8,260.8z M509.2,517.9L509.2,517.9   c-12,9.4-6.2,27.3,2.9,36.5c0,1.2,0,2.3,0,3.4c-0.7,0-1.3,0-1.9,0c-10.9,50.9,73.3,34.9,43.7-8.8c5.8-10.8,13-27,1.2-36.3   c-1.7,4.5-2.5,8.4-5.5,12c1.8,7,0.7,13.2-4,16.5c-4.5,0.6-8.9-1.6-13.4-0.4c-2.2,1.5-14.1,2.5-11.9,5.6c0,0.6,0,1.2,0,2.4   c-7.4-8-12-22.2,0-28.3c-0.7-2.4-1.4-4.6-2.1-6.9c-1.8,0-3.4,0-5.1,0C511.8,515,510.6,516.5,509.2,517.9z M418,248.8   c-1.1,0.8-2.2,1.5-3,2.9c2.5,0.4,4.1-0.7,7.2-1.2C420.6,249.5,419.7,248.8,418,248.8z M590.8,262.9c2.5-1.5,1.5-5.3-0.6-6.2   C589.4,258.9,590.9,260.6,590.8,262.9z M559.2,225.7c-2,0-3.2,0.6-4.3,1.9C556.9,228.3,558.1,227.7,559.2,225.7z M591,219.1   c0.5,1.8,1.3,3,3.1,3.6C592.4,219.2,592.4,219.2,591,219.1z M602.4,224.6c0.8,1.1,1.2,1.9,2,3.1c0.2-1.7,0.3-2.8,0.5-4.4   C603.9,223.8,603.3,224.1,602.4,224.6z M593.8,269.9c-0.5-2.3-0.8-4-1.2-5.7C592.5,266,591.5,267.9,593.8,269.9z M590,216.8   c-1.2-2-2.5-2.7-4.5-3.2C586.6,215.5,587.9,216.2,590,216.8z M589.6,283c-0.8,2.1,0.6,3.5,1.7,5.7   C591.6,286.1,589.9,284.8,589.6,283z M577.6,253.3c0.3-0.8,0.6-1.3,0.9-2.1c-1.6-0.4-2.4,0.4-3.4,1   C576.2,253.3,576.2,253.2,577.6,253.3z M599.5,248.9c-0.6,2.4-0.6,2.4,0.9,3.3C600.3,250.9,600.9,249.7,599.5,248.9z M601.1,279.2   c-0.7,2.7-0.7,2.7,0.7,3.5C602,281.6,602.2,280.6,601.1,279.2z M605.5,244.4c-2.1,0.9-1.2,0.8,0,4.3   C605.5,247.1,605.5,245.9,605.5,244.4z M609,242.6c-0.5,1.9-0.6,3.8,0.1,5.7C609.5,246.4,609.6,244.5,609,242.6z M596.6,224.2   c-0.2,0.2-0.4,0.5-0.5,0.7c1.5,1.1,1.7,2.1,4,2.1C598.5,225.7,597.9,224.5,596.6,224.2z M557.6,242.3c-2.3-0.1-2.3-0.1-3,1.1   C555.7,243.8,556.8,243.8,557.6,242.3z M603.6,255.5c0.5-1.7,0.5-1.7-0.9-3.2C602.8,253.5,602.2,254.7,603.6,255.5z M580.3,272.3   c0.8,0.5,0.4,1.8,1.7,1.7C582.6,272.2,582.6,272.1,580.3,272.3z M587.4,231c-1.3,0.1-1.9,0.1-3,0.2c0.7,0.9,1.1,1.3,1.6,1.9   C586.4,232.5,586.7,232.1,587.4,231z M551.7,237.4c1.5,0,2.5,0,3.9,0c-0.6-0.6-0.9-1-1.3-1.4C553.5,236.5,552.8,236.8,551.7,237.4z    M570.6,221.3c0.7,1,1.2,1.6,2.3,0.7c-0.4-0.5-0.7-0.9-1.3-1.7C571.1,220.7,570.8,221.1,570.6,221.3z M604.4,262   c0.1,0,0.3-0.1,0.4-0.1c0-0.8,0-1.5,0-2.4c-0.5,0.1-0.8,0.1-1.3,0.2C603.8,260.6,604.1,261.3,604.4,262z M589.8,224.6   c-0.1-2-1.3-1.2-2.6,0C588.5,224.6,589.2,224.6,589.8,224.6z M545.7,265.7c-1.1-0.9-1.1-0.9-2.6,0.4   C544.2,265.9,544.9,265.8,545.7,265.7z M577.7,256.9c0-0.1,0-0.2,0-0.4c-1,0-2,0-3,0c0,0.1,0,0.2,0,0.4   C575.7,256.9,576.7,256.9,577.7,256.9z M558.9,240.4c0-0.1,0-0.3,0-0.4c-1,0-2,0-2.9,0c0,0.1,0,0.3,0,0.4   C556.9,240.4,557.9,240.4,558.9,240.4z M415,246.8c-1.5-0.4-1.7,0.2-1.7,1.2C413.8,247.7,414.3,247.4,415,246.8z M567.1,266.6   c0-0.2,0-0.3,0-0.5c-0.7,0-1.5,0.1-2.2,0.1c0,0.1,0,0.2,0,0.4C565.7,266.6,566.4,266.6,567.1,266.6z M576.1,241.9   c0-0.2,0-0.3-0.1-0.5c-0.5,0.1-1,0.1-1.4,0.2c0,0.2,0,0.3,0.1,0.5C575.2,242,575.7,242,576.1,241.9z M577,232.5   c-0.8,0.8-0.1,1.5,0.6,1.1C577.4,233.3,577.2,232.9,577,232.5z M594.7,223.8l0.2,0.1l0-0.2L594.7,223.8z" />
	<path display="inline" fill="#010101" d="M509.3,400.8c-1.5,9.2,3.8,18.4-0.6,27.1c-0.5,1-0.9,2-0.8,3.2c0.1,2.2-2.1,4-1.4,6.4   c2.9,36.8-15.9,69.8-25.6,104c4.1,3.8,2.6,9.3,1.4,14.2c7.5,14.6,3.5,11.4,17.2,23.2c0.7,3.8,0.4,8.2,1.7,11.9   c0.5,1.2,0.8,2.4-0.2,3.5c-0.3-0.1-0.7-0.1-1.1-0.2c0.3-1.1,0.6-1.9-0.5-2.7c-2-3.6-1.2-8-2-11.9c-4.3-3.4-8.5-6.6-12.1-10.6l0.1,0   c-0.2-0.5-0.3-1.1-0.5-1.6c-4,0.6-8.7,2-12.2,0.1c3.6-1.3,7.5-1.1,11-2.5c0.6-2.5,0.1-4.4-1.6-5.6c-5.9,0.2-11.1,1.6-16.8,0.9   c4.5-4.1,9.8-1.5,15-3.1c-0.6-4,0.5-8.1,0.1-11.9c-4.1,0.5-8,1-12.1,1.6c-0.6,6,1.7,13.5-7.6,11.4c-4.4-4.3-4.2-9.4-2.4-14.6   c-6.6,4.5-1.9,13.4-5.7,19.3c-2.2,3.5-0.7,7.9-4.1,10.9c2.8,3.7,6.8,5.6,10.5,8.2c0.1-1.7,0.1-1.7-0.7-3.4c0.3-0.3,0.7-0.6,1-0.9   c4.6,6.5-1.4,10.4,8.2,17.2c-0.3,0.3-0.6,0.6-1,0.9c-4.1-2-7.9-5.8-7.1-10.7c-3.3-4.4-19.1-8.9-11-15c0-5.4,4.2-10,3.8-15.4   c-0.4-3.3,1.3-6.2,1.3-9.5c1.4-1.7,3.3-2.9,5.6-3.6c4.3-10.9,1.4-22.6,2.5-34c0.9-14.5-7.9-27.8-3.2-42.2   c18.5-40.3,10.3-43.9-3.8-82c-2.5-2.2-5.9-2.2-9-3c-3-0.7-5.9-2.3-9.2-1.3c-1.5-2-1.4-4.5-1-6.8c2.3-8.7,1.4-17.1,0.5-25.9   c-4.6,4.7-8.7,8.9-13.9,12.7c-0.1,0.7-0.2,1.2-0.2,1.6c-6.1,4.4-11.9,9.4-18.1,13.3c-10.5-3.6-19.7-8-29.2-13.4   c-0.4-1.4-0.7-2.6-1-3.8c-1.4-0.9-2.7-1.8-4-2.7c0-0.3,0.1-0.5,0.1-0.8c0.7,0,1.5,0,2.2,0c0.5-0.7,0.8-1.4,0.7-2.2   c0.5,0,0.9,0,1.4,0.1c0.6,2.6,1.3,5.3,1.9,7.8c2.2,1.4,2.2,1.4,4.1,1.3c0-2.8-1.6-5.3-1.8-8.7c6.5,5.9-0.3,13.9,14,13.8   c0,0.5,0,0.9,0,1.5c3.7,1.4,7.4,2.7,11.1,4c14.9-9.4,25.9-23.3,37.4-36.2c-0.2-0.5-0.3-0.8-0.5-1.4c0.6-0.4,1.3-0.8,1.9-1.2   c-0.1-0.2-0.2-0.3-0.3-0.5c-1.1,0-2.1,0-3.2,0c0-0.2,0-0.4,0-0.6c1-0.3,2.3,0.3,3.1-0.8c0.5,0,0.9-0.1,1.4-0.1   c1-0.7,1.6-1.9,2.3-2.9c0.8,0.2,1.6,0.4,2.4,0.7c-17.8,20.4-3.9,22.7-9.4,46c25.5,1,46,17,69.7,24.3c0.3,0.7,0.9,0.7,1.6,0.6l0-0.1   C509.3,399.6,509.3,400.2,509.3,400.8z M463.6,497c-0.1,17.7,2.3,36.9-4.8,53.4c2.4,1.3,3.2,1.2,6.9-0.2c-0.9-2-0.2-4.1,0.1-6.1   c0.8-0.7,1.6-1.4,2.3-2.2c3.2,1.4,6.9,0.4,10.1,0.1c8.4-34.8,29.3-68.5,25.1-105.1c6-11.6,4-24.3,4.1-36.8   c-17.9-4.2-33.5-15.8-50.9-20C491.5,451.3,450.2,445.6,463.6,497z M465.8,552.8c-2.1,0.1-3.9,0.2-5.8,0.3c2,2.9,2,2.9,5.8,1.7   C465.8,554.1,465.8,553.5,465.8,552.8z M448.3,378.4c1.9,0.7,3.7,2,6.1,1.8C452.8,377.5,450.5,378.2,448.3,378.4z" />
	<path display="inline" fill="#020101" d="M371.6,353.5c-1,0-1.9,0-2.9,0c0.4-4.1-3.3-3.1-6.3-4.2c-13,4.5-27.4,9-37.3,18.9   c3.8,6.6-0.8,14-5.1,19c-11,13.4,5.1,26.3-14.9,44.3c-31.5,6.4-23.1-36.2-10.4-51.5c3.3-7.8,4.7-17.4,12.9-21.7   c1.2-2.5,3.3-2.8,5.8-2.4c6.4-17.2,11.9-39.7,34.5-38.4c6.5-13.5,15.4-25.7,25.2-37.1c4.7-16.6,6.5-34.8,15.5-50.2   c1.2,0.5,0.5,1.6,0.9,2.4c-8.3,19.9-11.5,37.4-13,58.8c-0.7,0.4-0.7,1-0.5,1.7c-2.6,6.4-2.3,13.9-4,20.1   c-5.8-5.5,3.7-14.7,0.1-20.3c2.1-2.8,1.5-6,1.5-9.8c-18.6,23.5-36.5,41.2-7.7,65.4c-0.2-0.1-0.3-0.2-0.5-0.3   c0.1-0.9,0.3-1.7-0.5-2.4c-0.1-1.6-0.9-4,1.2-4.6c1.5,0.4,0.6,1.9,0.3,2.8c0.5,1.8,0.2,5.3,2.8,3.4c0,0,0,0,0,0   C369.6,350,368.4,352.9,371.6,353.5z M358.2,345.2c-1.2-2.5-3.3-4.7-5.2-7.2c-0.6,5.7,2.9,3.9,3.6,7.3c-0.8,0-1.5,0-2.3,0.1   c-3.1-1.7-2.6-5.1-3.7-7.9c0.5-0.3,0.8-0.6,1.2-0.9c-3-5.2-5.1-10.5-4.7-16.8c-25.4,1.6-26.5,27.8-36,46.4   c1.4,5.1,6.5,8.4,11.3,3.7c6.4-12.2,23-16.1,34.8-21.6c0.9,0.1,1.7,0.2,2.2-0.7c0.2-0.1,0.4-0.1,0.6-0.2c-0.2-0.2-0.3-0.4-0.5-0.6   l0,0c-0.2-0.3-0.5-0.5-0.7-0.8l0,0C358.7,345.7,358.5,345.4,358.2,345.2L358.2,345.2z M309.5,359.4c-9.6,3.6-7.9,14.2-12,21.7   c-1,0.4-1.5,1.2-1.4,2.3c-23.3,27.9-1.8,63.7,14.3,38.5c6.2-10.3,0.5-21.8,5.2-32.3c2-4.9,8.2-8.8,7.9-14.3   c-2.7,3.3-6.5,3.5-10.2,1.9c4.1-1.1,7.3,0.3,9.4-4.8c-0.6-0.5-0.9,0-1.3,0.4c-5.5,3.7-15.5-2.8-11.3-9.3c-0.6-0.1-0.9-0.2-1.3-0.2   c0-0.3,0-0.7-0.1-1c0.3-0.2,0.5-0.4,0.8-0.6c0.7,0.1,1.1-0.2,1.4-0.9c0.7-0.2,0.9-0.7,0.9-1.3c0.4-0.5,0.7-0.9,0.6-1.6   c0.2-0.1,0.3-0.2,0.5-0.3c-0.5-0.5-0.8,0-1.2,0.2C310.8,358,310.2,358.9,309.5,359.4z M324.3,371.1l-0.2-0.2l0,0.3L324.3,371.1z" />
	<path display="inline" fill="#050505" d="M554.1,482.9c-2-19.6,12.8-37.3,12.3-57.4c-0.9-0.3-1,0.4-1.6-0.2   c5.2-12.5,7.8-25.4,6.6-38.8c7.6-15.4,17.5-23.2,16.6-42.6c0.6-0.7,1.4-1.5,2.1-2.3c1.1,1.2,1.8-1.9,3.3-1.5   c-1.4,1.6-2.8,3.1-4.4,4.8c0.5,0.6,1,1.3,1.7,2.2c0.3,15.7-10,27.4-17.6,39.8c4.6,11.6-0.3,21.6-3.9,32.4   C569.2,441.8,557.9,461.4,554.1,482.9z" />
	<path display="inline" fill="#050404" d="M478.5,192c2.5,2.1,6.9-0.5,9.7,1.4c-9.5-0.8-18.6,1.3-27,5.2l0.1,0.1   c-23.4-9.3-49.5,13.1-67.4,26.1c-0.3-0.3-0.5-0.6-0.8-0.9c3.9-8.3,12.3-11.9,20.2-15.5c8.4-4.2,14.7-11.6,24.4-12.7   c7.6-1.6,15.3-0.4,23-0.5c2,0,3.9-0.1,5.7-1.4C470.1,192.1,474.6,192.7,478.5,192z" />
	<path display="inline" fill="#060608" d="M509.3,400.8c2.3-8.9,0.7-19.2,4.8-27.8c0.8-1.2,0.7-2.7,0.3-4c-1.6-4.2,2.5-8,0.1-11.9   c0.2-1.5,1.3-3,0.6-4.6c0.3-1.2,0.5-2.3,0.8-3.5c-0.7-1.8-1.4-3.6-2.1-5.4c0.8-1.4,1.5,0,2.2,0.1c0.7,1.7,1.5,3.4,2.3,5.3   c-1.4,3-1.6,6.6-0.6,9.9c0.6,3.4-2.4,6.4-0.8,9.8c0.7,2.2,0.3,4.1-0.8,6c-3.2,7.3-2.2,16.2-3.6,23.9   C511.1,399.5,510.2,400.2,509.3,400.8z" />
	<path display="inline" fill="#0F0B0B" d="M466.4,595.8c0.3-0.3,0.6-0.6,1-0.9c0.9,0.7,1.7,1.3,2.9,2.2c7.3,0.2,25.6,1.2,29.1-5.9   c1.1,0.7,0.8,1.6,0.5,2.7c0.4,0.1,0.7,0.2,1.1,0.2c-0.4,1.3-1.4,0.6-2,0.5C492,600.7,473.3,602.3,466.4,595.8z" />
	<path display="inline" fill="#1C1D2B" d="M515.9,343.8c-0.7-0.1-1.4-1.4-2.2-0.1c-3.5-3.9-7-7.9-10.6-11.8c0.2-0.3,0.4-0.5,0.7-0.8   c3.5,3.7,6.8,7.4,10.4,11c0-0.2,0.1-0.4,0.1-0.6c0,0,0.4,0,0.4,0c0.4-1.3,0.6-2.6,0.6-3.9C516.2,339.6,516,341.7,515.9,343.8z" />
	<path display="inline" fill="#3E3532" d="M393.1,223.9c0.3,0.3,0.5,0.6,0.8,0.9c-1.5,2.5-3,5-4.2,7.7c-0.4-0.8,0.3-1.9-0.9-2.4   C389.8,227.8,390.6,225.2,393.1,223.9z" />
	<path display="inline" fill="#C1D0D0" d="M601.1,297.5c-0.4-0.4-0.8-0.8-1.2-1.2c0.3-0.3,0.4-0.5,0.7-0.9c0.9,0.4,1.8,0.9,2.8,1.3   c0,0.2,0.1,0.4,0.1,0.6c-0.3,0.2-0.5,0.4-0.8,0.6C602.2,297.8,601.6,297.7,601.1,297.5z" />
	<path display="inline" fill="#757373" d="M601.1,297.5c0.6,0.2,1.1,0.3,1.7,0.5c0.3,0.3,0.6,0.7,0.8,0.9c-0.4,0.8-1.9,0.2-1.6,1.5   C600.7,299.7,601.5,298.5,601.1,297.5z" />
	<path display="inline" fill="#647575" d="M603.5,297.4c0-0.2-0.1-0.4-0.1-0.6c1.2-0.1,1.7-0.2,3.1,0.2   C605.3,297.7,604.4,297.4,603.5,297.4z" />
	<path display="inline" fill="#574C47" d="M367.8,350.5c1.1,0.5,0.8,1.4,0.7,2.3C367.7,352.2,367.7,351.4,367.8,350.5z" />
	<path display="inline" fill="#574C47" d="M368.7,353.4c0.2,0,0.5,0,0.7,0c0,0.3-0.1,0.5-0.1,0.8C369.1,354,368.9,353.7,368.7,353.4   z" />
	<path display="inline" fill="#FBDFD3" d="M394.8,224.3c7.7-8.7,19.6-11.8,28.3-19.4c8.7-6.8,28.7-11.4,38.2-6.2   c-0.2,0.1-0.3,0.3-0.5,0.4c0.1,0,0.2,0.1,0.3,0.1c0-0.2,0.1-0.4,0.1-0.6c20.7-10.9,44.6-2.3,64.2,7.7c12.6,8.6-7.6,21.2-13.9,27.7   c-2.7-0.7-4.6-3.1-7.5-3.3c-0.8-0.5-1.4-1.7-2.8-1c2.6,2.6,6.1,3.5,8.9,6c-1.4,7.8-11.5,8.9-16.3,14.1c-6.9,5.9-15.1,11.5-24.7,9.2   c3-3.9,7.2-1,10.3-5.2c-9.8-5.5-23.1-9.9-30.2-18.4c-0.9,0-1.2-1.2-2.2-0.8l0,0c-2.3-3.1-5.4-5.1-9.3-6c0.1,0.7,0.2,1.2,0.3,1.7   c-0.6,0-1.2,0-1.9,0c0.5,1.3,0.9,2.3,1.3,3.5c0.3,0.2,0.6,0.4,0.9,0.7c0.2-0.1,0.3-0.1,0.5-0.2c-0.4,2.1,1.4,3.4,0.8,5.5   c-3.7,0-8.1-0.5-10.9,2c-6.5-1.1-12.5-3.2-19.1-4.1c0.3,3,2.3,4.5,3,7.2c-1.1,0.8-2.1-0.1-3.2-0.4c-1.6,2.2-1.6,4.9-3.3,7.1   c2.2,0.4,2.1-1.8,3.5-2.8c0.3,0,0.5,0,0.8,0c0.2,16.6-8.3,31.8-15,46.3c-0.8-0.5-0.4-1.5-0.7-2.2c0.3-1.5-0.3-2.8-1.2-4   c-0.5,4.4-0.3,8.7,0.5,13c-0.1,0.2-0.2,0.4-0.2,0.6c-1.1,1.6-0.7,3.6-1.3,5.4c-2.2,2.3-0.8,6-2.8,8.4c0-1.9,0-3.9-0.2-5.8   c-0.4,3-2.4,10.1,1.1,11.3c2.5,5.1,6,10.9,4.5,16.8c-0.6,1.8-0.8,3.7,0.1,5.5c1.8,4.6,0.9,9.9,0.2,14.6c-7.2-0.8-2.8-8.5-4.5-13.1   c-3.5,2.5-4.8,5.6-4.4,9.8c-3.1-3.1-6-5.9-10.4-6.1c0.6,0.6,1.1,1.1,1.6,1.5c-1.3,0.9-3,0.4-4.4,0.4c0.4-0.7,0.8-1.3,1.2-1.9   c-1.3-0.4-2.4-0.7-3.5-1.1c-0.3-0.7-0.9-0.7-1.5-0.7l0,0c1.1-6.5,2.3-13.5,0.8-20.1c4.8-3.3,5.5-9.8,6.6-15.1l0,0   c2.7-12.4,1.7-26.6,4.8-39.8c0.6,0.5,1.1,1.1,1.9,1.8c4.5-8.8,3.6-18.9,4.8-28.4c2.6,3,0.7,7.6,5.1,9.9c0.8-0.7,1.5-1.4,2.1-2   c1.5-10.3-4.6-24.4,5.9-30.6c-2.4-0.9-3.9,0.8-5.7,1.9C395.4,224.8,395.1,224.5,394.8,224.3z M465.1,207c-1-1-2.4-0.7-3.8-0.7   c-1.3,0-4.1-1.6-4,0.7C459.9,207,462.5,207,465.1,207c2.4,1.8,5.9,2.3,8.8,3.1c2.8,0.6,6,3.8,8.6,2.8   C477.1,209.7,470.9,207.6,465.1,207z M412.7,227.9c-1-0.7-1.7-2.2-3.4-1.3c1.4,2.3,3.6,3.4,6.4,3.4   C414.5,229.1,413.6,228.5,412.7,227.9z M454.6,199.5c-0.5,0.4-0.9,0.7-1.4,1.1c1.1,0.8,1.8,0.5,2.4-0.2c1.2-0.3,2.2-0.7,2.6-2.1   C456.5,197.7,455.6,198.7,454.6,199.5z M459.2,238.3c4.5,0.2,13.5,0,15.3-3.5c-6.3,1.6-13.1,2.5-20.1,3.5   C456.5,238.3,457.8,238.3,459.2,238.3z M504.8,201c-2.7-3.2-3.6-3.7-5.5-2.6c2.7,1.7,5.3,5,7.9,5.9C506.3,203,505.5,202,504.8,201z    M516.7,208.3c1.3,0.5,2.4,2.2,3.7,2c0.5-2.4-1.9-2.9-3.7-2.5c-2-1.8-5.4-3.5-8-2.6c0.5,0.7,1,1.4,1.6,2.2   C512.6,206.4,514.4,208.2,516.7,208.3z M488.8,231.6c2.9-0.2,6.3-3.6,4.2-6.6C491.5,227.2,488.8,228.3,488.8,231.6z M373.7,339   c1.4-2.4,0.4-5.1,1-8.4C372,333.1,373,335.9,373.7,339z M428,231.4c-3.6-1.1-3.6-1.1-5.8,0.1C424.1,232,425.8,232.7,428,231.4z    M379.5,338.7c-0.9,2.9-3.8,5.1-0.4,7.4C378.3,343.1,380.9,341.3,379.5,338.7z M402,262.6c1.4-1.4,2.4-3,2.5-5.4   C402.5,258.7,402,260.5,402,262.6z M403.3,221c1.7,0.5,2.6-0.3,3.6-1.5C404.7,218.6,404.7,218.6,403.3,221z M417,231.1   c2.1,0.7,2.1,0.7,4,0.1C419.6,230.7,418.7,229.4,417,231.1z M492.3,223.8c1.1-2.8,0.9-3.2-1.2-3.2   C491.5,221.5,491.8,222.4,492.3,223.8z M392.9,284.5c1.7-0.8,1.3-2,0.9-3.6C392.7,282.2,392.1,283.1,392.9,284.5z M404.6,251.8   c-0.8,1.2-0.2,2.2,0.1,3.6C405.8,253.3,405.8,253.3,404.6,251.8z M393.7,274.5c-0.7,1.2-0.5,2.2,0,3.5   C394.8,276.5,394.5,275.6,393.7,274.5z M446.5,204.7c2.4,0.1,2.8-0.2,2.4-1.3C448.1,203.9,447.3,204.3,446.5,204.7z M435.6,224.1   c-1.3,1.1-1.3,1.1,0.3,1.8C435.8,225.3,435.7,224.8,435.6,224.1z M392.2,340c0.9-0.2,1.4-0.5,0.6-1.4   C391.8,338.7,391.5,339.1,392.2,340z M392.3,343c-0.9-1.3-2.2-0.4-1.4,0.7C391.3,343.5,391.6,343.3,392.3,343z M379.1,334.2   c1.7-0.3,1.6-0.9,1.1-1.9C379.9,332.9,379.7,333.3,379.1,334.2z M372.8,343.8c0.6-0.7,0.6-1.3-0.2-2   C372.4,342.5,371.8,343.1,372.8,343.8z M394.2,271.5c0.1,0,0.3,0,0.4,0c0-0.5,0-1.1,0-1.6c-0.1,0-0.3,0-0.4,0   C394.2,270.5,394.2,271,394.2,271.5z M381,328c-0.2,0.7-0.2,1-0.3,1.3c0.2,0,0.4,0,0.5,0C381.2,329,381.1,328.7,381,328z    M388.5,306.8c0.1-0.3,0.4-0.6,0-0.8C388.1,306.3,388.1,306.5,388.5,306.8z M430.4,231c-0.2,0.1-0.3,0.2-0.5,0.3   c0.2,0.4,0.5,0.1,0.7,0C430.6,231.2,430.5,231.1,430.4,231z" />
	<path display="inline" fill="#FBDFD3" d="M590,341.6c-0.7,0.8-1.5,1.6-2.1,2.3c0.9,19.5-9,27.2-16.6,42.6   c1.2,13.4-1.4,26.3-6.6,38.8c0.6,0.6,0.7-0.1,1.6,0.2c-0.7,15.3-6.6,29.1-11.2,43.4c-3.4,8.1-1.8,17.9-5.3,25.8   c2.8,9.2,4.7,18.9-0.8,27.5c-3.7,2.7-7.1,0.6-10.9,1.1c-3.8,1.5-8.1-1.7-11.1,2.1c-1.2-0.4-2.7,0.4-4.1-0.5   c0.4-2.1,0.8-4.1,1.3-6.5c-2.5-4-5.9-8.6-10.3-10.7c-0.1-0.5-0.2-0.8-0.2-1.2c4.5-5.7,10.6-8.9,16.6-12.6c1.7-0.2,1.5,2.3,3.2,2.1   c3.6-3.7,6.7-8.4,7.6-13.8c1.6,0.9,1.6,3.6,4.3,3.1c-3.7-4.1-4.5-7.5-3.2-12.5c-2.2-8.3-2.9-16.9-3.9-25.4   c-2.2-12.7,2.7-25.6,6.9-37.2c2.5-4.4,7-6.8,10.7-10.3c0.8-0.3,1.8-0.3,1.6-1.9c-2.6,2.2-5.4,3.6-8.5,5   c-0.4-27.1-4.6-36.7,13.3-60.1c1.9,0.5,3.6,1,5.4,1.6c0.3,1.1,1.1,1.8,2.1,2.1c0.7,1.2,0.8-0.4,1.7-0.1c1.5,0,3.4,0,5.7,0   c0.5-0.4,1.1-1,1.6-1.5c-2.2-5.9-6.7-5.9-10.6-9.8c-5.9-3.7-6.8-11.1-12.7-14.7c6.9-7.5,16.1-13.9,22.2-22.7   c4.5,0,10.8,1.9,13.9-2.5C609.7,297.2,598,332.4,590,341.6z M584,333.3c-0.9,0.4-1.2,2.6-1.5,3.4c0.1,0.8-1.3,1.4-0.2,2.4   C582.9,337.1,585.6,335.1,584,333.3c0.7-0.3,0.7-0.9,0.7-1.5c0.9-1.2,1.8-2.4,3-3.8c-0.4-2,1-5.2-0.4-6.9   c-2.4,3.1-2.4,7.1-2.5,10.8C583.9,332,584,332.7,584,333.3z M560.9,396.9c0.5-0.4,1.2-0.6,1-1.7c-1.1,1.2-3,0.7-3.3,2.7   C559.7,398.1,560.4,397.7,560.9,396.9z M534.6,510.4c2.1-0.5,3.7-4,1.8-5.5c-0.9,3.5-3.8,7.1-3,10.5   C535.8,515.1,534.5,512,534.6,510.4z M587.7,318.4c0.9-2.6,2.4-6.8-0.4-7.4c-0.8,2.4-2.5,6.5-0.4,8.5   C587.2,319.1,587.5,318.7,587.7,318.4L587.7,318.4z M588.5,309.3c1.8-2.1-3.9-11.2-5.7-7C583.7,305.3,585.7,307.4,588.5,309.3z    M597.4,298.3c-2.7,1.9-5.4,2.4-6.9,4.6c0.2,0.3,0.4,0.6,0.6,0.9C594.9,303.2,596,302.3,597.4,298.3z M570.9,371.4   c0.8-1.5,2.5-11.7-0.6-10.6C570.6,364.3,569.3,368.2,570.9,371.4z M569.9,377.6c2.3-1.8,2.5-2.2,1.7-4.7   C569.6,374,569.9,375.8,569.9,377.6z M556,403.5c-3.4,1.2-3.4,1.2-4.5,2.9C553.3,407.1,554.7,405.5,556,403.5z M531.6,521.2   c2.5,0,2.8-0.7,1.9-3.6C532.9,518.7,532.3,519.8,531.6,521.2z M541.9,517.1c-0.8,1.2-1.4,2.1-2.3,3.4   C542,521.1,542.9,519.2,541.9,517.1z M557.5,439c1-0.7,2.2-1.3,1.7-3.2C558.2,436.9,557.4,437.7,557.5,439z M587.1,347.3   c-1.6,0.4-2,1.4-1.6,2.9C586,349.2,586.6,348.3,587.1,347.3z M562.9,428.5c-1.5,1.2-1.5,1.2-1.2,3   C562.5,430.5,563.4,429.8,562.9,428.5z M549.3,478.9c0.2-1.6,0.2-1.6-1-3C548.3,477.7,548.3,477.7,549.3,478.9z M572.6,347.4   c0.1,1.7,0.1,1.7,2.4,1.3C574.1,348.2,573.4,347.8,572.6,347.4z M543.6,514c-0.2-0.2-0.5-0.3-0.7-0.5c-0.8,0.4-1.2,1-0.3,2.1   C542.9,515.1,543.3,514.5,543.6,514z M548,515c-1,0.8-0.9,1.4,0,2.7C548,516.4,548,515.8,548,515z M566.7,392.8   c-0.1-0.2-0.2-0.3-0.2-0.5c-0.6,0.3-1.5,0.2-1,1.1C565.9,393.2,566.3,393,566.7,392.8z" />
	<path display="inline" fill="#5876E8" d="M503.1,331.9c4.5,6.4,16.7,13.6,10.9,22.3c-2.7-3.3-5.4-7.3-9.3-8.9c-0.6-1-1.3-2-3.1-2.2   c0.9,1.4,1.6,2.3,3,2.2c0.8,0.7,1.5,1.5,2.3,2.2c0.6,3.4,2.7,9,6.7,9c4,3.5-1.1,8.3,0.7,12.6c0.4,1.3,0.5,2.7-0.3,4   c-4.3,7.9-1.8,17.8-4.8,26c-9.2-3.8-19-6.3-27.8-11.1c0.5-2.4-2.8-4.5-2.7-6.6c1.2-1.6,1.1-1-0.2-2.4l0.1,0   c-4.7-5.5-10.2-10.3-14.9-15.8c0-2.1-1.3-3.5-3.1-4.3l0,0c0.2-0.8-0.3-1.4-0.6-2c-2.2-3.1-1.4-6.2-1.5-10   c8.8,6.8,14.4,18.4,24.5,23c-4.2-10.1-13.5-18.6-21.1-26.6c-5.9-2.4-4.3-11.5-4.8-17c1.6,0.8,4.5,3.9,3.6,5c-0.4,0-0.9,0.1-1.7,0.2   c1.5,1.2,2.2,2.7,4,2.8l0,0c-0.1,1.3,0.9,2.2,2.1,2.8c0.1-0.5,0.1-0.9,0.2-1.3l0,0c4.8,4.2,8.3,9.6,13.5,13.4   c0.7,2.1,0.7,2.1,2.4,2.3c-0.8-1-1.3-1.9-2.4-2.3c-4.5-7-16.5-28.4-24.6-28.6c-0.5-0.7-1.1-1.3-1.6-2c0.6-0.9,1.3-1.8,2.1-3   c-2.2,0.5-2.9,2.3-4.4,3c-9.4-3.7-34.6-7.1-43.9-2.9c11.7,3.9,24.5,3.7,36.8,5.2c-3.9,2.1-2.9,6.3-5,9.5c-1.8,0.2-3.8-0.5-5.2,0.8   c-11.4,2.2-22.9,6-34.9,6.6c-0.9-1.5,0.3-3.3-0.9-4.5c-1-4.6-2.1-8.8-3.7-13.4c14.3,0.5,29.2,2,42.6,4.7   c-11.1-8.5-29.8-4.2-43.2-6.4c-0.1-6.8,0.6-12.6,4.1-18.4c14.7-9.7,18.9-16.3,36-6.3c-0.2-1-0.6-1.7-1.5-1.9   c4.3-1.9,13.9,10.1,20.1,6c14.9,9.4,28.7,20.8,47.3,20c4.8,3.8,10.5,5.8,16.3,7.7c1.6,1.6,0.7,3.9,0.6,5.8c-0.2,0-0.4,0-0.6,0   c-0.7-0.4-0.7-0.4-0.8,0.8c-0.5,1-1,2-1.5,3c-3.2,0.1-6.1-7.2-9-4.4c-3.7-1.4-5.7-6-9.1-6.8c1.9,2.7,4.1,3.3,6,5.3   C501.1,330.3,502,331.2,503.1,331.9z M418.1,291.3c-0.8-0.8-1.7-0.8-2.7-0.4c1.3,2,5.5,2.1,7.8,3.7c-3,2-7.5-3.7-10.3-0.9   c10.8,7,23.1,12.5,34.3,18.6c2.3,3.4,4.4,2.7,8.1,2c-0.7-4.4-13.7-10.1-18-11.5l0,0c-0.1-0.7-0.8-2.1,0.9-1.6   C444.6,301.9,419.9,291.7,418.1,291.3z M470.6,328.8c-1.9-4.6-4.6-8.3-8.5-11.1c-0.8,0-1.7,0.1-2.6,0.1   C458.4,323.2,466.5,326.4,470.6,328.8z M510,367c0.1,1-0.3,2.7,1.6,2.4C511,368.4,510.5,367.7,510,367z" />
	<path display="inline" fill="#CCD2E9" d="M566,305.7c-0.7,4.2-6,6.5-9,9.2c-4.9,3.2-6.7,8.7-10,13.2c-14.6-2.4-29.5-4.7-42.8-11.5   c-3.4-4-3.7-9.9-7.8-13.6c-11.4-11.1-27.5-20.7-28.2-38.6c1.2-1,2.8,0.1,3.6-1.2c9.5-0.5,17.8-5.5,24.9-11.5   c5.3-4.6,13.1-6.4,16.3-13.2c5.8-8.4,16.1-13.3,18.9-23.9c2.2,3,5.3,3.4,8.5,5.3c-13.6,6.2-21.3,17.9-29.2,29.8   c-8.3,9.7-16,21.3-8,33.6c3,9.1,12.5,12.7,18.6,19.3c10,11.7,31.4,12.4,42.3,2C564.8,304.9,565.4,305.3,566,305.7z" />
	<path display="inline" fill="#4C505E" d="M552.6,520.2c0.7-2.5,1.5-4.9,2.5-7.5c11.8,9.4,4.6,25.6-1.2,36.3   c28.2,42.9-44.5,45.3-35.6,12.1c0.7-4,6.2-12,2-14.7c-1.1-4.3,18-6.8,21.7-5.2c0.2,0.5,0.5,0.9,0.7,1.4c-2.4,3,2.7,4.2,4.5,6   c1.2-0.3,2.1,1.4,3.7,0.3c-0.9-0.6-1.8-1-2.8-1.7C558.7,539.7,557.7,530.5,552.6,520.2z" />
	<path display="inline" fill="#FBDFD3" d="M583.1,287c1.5,2.7,3.5,5.1,5.9,7c-2.7,2.6-7.9,2.7-11.4,1.5c-2.3,2.9-4.6,5.7-6.9,8.6   c-1.4,0.2-2.6,0.5-3.8,0.7c-0.9-3.3-3.7-4.7-5.1-7.4c-2.6,1,0.2,3.1,1,4.3c-4.2,2.9-8.2-5.4-12-3.8c0.5,1.1,1.4,1.7,2.6,1.8   c0.5,0.8,1,1.5,1.8,2.7c-2.5,0.3-3.9,0.3-6.3,0c-2.2-2.2-4.3-4.4-6.1-6.2c-0.1-5.1-2-8.4-3.6-12.8c-0.1-2.4,0.6-4.9-0.8-7   c0-1.7,0-3.5,0.8-5.1c1.7-1.2-0.3-1.4-0.5-2.1c0.3-1.6,0.7-3.2,1.2-4.7l0.2,0.1c0.9-0.4,0.6-1.2,0.5-2c0.5-1,1.1-2,0.9-3.3l0,0   c1.5-0.5,0.1-2.5,1.6-3c1.3-1.3,1.4-3.8,3.6-3.6c0,0,0,0,0,0c0.2,0.2,0.3,0.3,0.5,0.5c0.7-1.8,0.2-3.9,0.4-5.8   c0.5,0,0.9,0.1,1.5,0.1c0.3,1.6,0.1,3.3,0.7,4.7c3.7,6.3-7.1,8.5-8.8,13.6c0.4,0.5,0.9,1.1,1.3,1.7c2.8-0.4,5.7-0.7,8.7-1.1   c8.3,4.8,21.8-1.5,26.5,9.9c-1,4.7-1.1,14.3,5.5,14.3C582.6,289.4,581.9,288,583.1,287z M559.2,281.8c-0.6-0.8-1.1-1.5-2.1-2.8   c-0.5,3.3,2.7,4.4,3.6,7.5c0.9,5,8.7,7.2,13.3,7.5C567.9,291.3,562,288.1,559.2,281.8z" />
	<path display="inline" fill="#EECABA" d="M567.6,344.5c-1.8-0.5-3.5-1-5.4-1.6c-18,23.5-13.7,32.9-13.3,60.1   c-1.8,1.1-3.7,2.1-5.8,3.3c0.8,0.7,1.3,1.1,1.9,1.5c-1.3,2.5-4.9,4-4.8,6.9c1.6-1.9,3-3.1,4.9-4.6c-12.7,26.2-4.1,43.7-3.7,69.6   c-7.6-5.3-2.6-14.8-5.2-21.7c-4.3-17.6,0.8-34.7,1.2-52.1c1.7-25.1,8.5-50.5,19.1-73.2c-0.2-2.8-4-2.6-6-3.7   c0.4-3.6,3.2-5.8,5.1-8.5c5.9,3.6,6.8,11,12.7,14.7c3.9,4,8.3,3.9,10.6,9.8c-0.5,0.5-1.1,1-1.6,1.5c-2.3,0-4.2,0-5.7,0   c-0.9-0.3-1,1.3-1.7,0.1C569.8,345.2,569,344.6,567.6,344.5z M552.6,352.7c0.3-0.9,1.7-1.4,1.2-3c-1.7,2.2-3.3,2.4-3.4,5.6   C551.4,354.1,552,353.4,552.6,352.7z M561,338.5c-1.1-2.1-1.1-4.7-3.9-5.4c-1.3,4,2.9,5.8,4.6,8.8c0.8-1.2,0.4-1.6-0.2-1.8   C561.5,339.5,561.2,339,561,338.5z M536.9,425.4c1.6-1.8,2.4-4.1,2.6-7.5C537.5,420.1,537.3,422.6,536.9,425.4z M554.2,345.6   c2.4-1.5,2.4-1.5,2.6-3.2C555.4,343,554.6,344.1,554.2,345.6z M542.5,401.1c1-1.4-0.2-2.2-0.9-3.4   C541.3,399.1,541,400.2,542.5,401.1z M565.3,342.7c-0.2-0.4-0.4-0.1-0.7,0C564.8,343,565,342.8,565.3,342.7z" />
	<path display="inline" fill="#4B65C5" d="M422.6,288.3c-10.5-1.7-17.3,6.5-25.7,11.3c4.8-15.3,14.7-28.3,16.2-44.6   c4.6-0.2,8.6-3,13-4c-2.7,9.1-0.4,19.7,7.1,26.4c5.3,7.7,10.4,14.6,18.2,20.1c-7,3.8-14.1-6.9-20.1-6.2c-6.2-4.2-13.2-9.3-20.8-9.2   C414.7,284.2,418.6,286.3,422.6,288.3z" />
	<path display="inline" fill="#EECABA" d="M541.3,259.3c0.2,1.2-0.4,2.2-0.9,3.3c-0.9-0.1-1.3,0.3-1.5,1.1c-1.1,0.8-1,2.3,0.1,3   c-1.7,3.8,2,2.9,0,4.5c-0.1-0.5-0.4-0.9-1-0.7c-2.6,4.9,2.3,6.4,1,12.8c-0.3-0.3-0.5-0.5-0.8-0.8c-0.2-1.4,0.6-3-0.4-4.8   c-1.6,7.8,2.8,15,5.5,21.9c-8,2.6-16.8-2.2-20.3-9.6c-1,0.2-1.8,0.4-2.6,0.6c-0.3-0.3-0.5-0.6-0.8-0.9c0.7-0.4,1.4-0.8,2.1-1.2   c-1.6-9.6-7.9-12.8-1.2-23.5c0.5,0.5,1,0.9,1.7,1.7c-0.2-1.5-0.3-2.6-0.4-3.7c5-6.2,8.1-15.3,15.4-19c0.7-1-0.1-2.3,1.2-2.8   c0,0.7-0.1,1.5-0.1,2.2c1.8,0.3,3.6,0.6,5.3,0.8c-0.3,0.4-0.5,0.9-0.8,1.3c-5,2.3-5.8,9.7-4.2,14.4   C539.7,259.8,540.5,259.5,541.3,259.3z M535.2,250.9c-1.2,0.4-2.7,0.1-3.3,1.5c2,0.1,2,0.1,3.5-0.5c0.9-0.2,2.1,0.2,2-1.3   C536.6,250.1,535.9,250.2,535.2,250.9z M525.6,275.8c0.7,1.1,1.5,2.1,3.1,2.8c-0.2-3.2-3.8-4.7-4.9-7.8   C523.5,272.9,524.3,274.5,525.6,275.8z M528,287.6c2-1.9,3.8-5.3,1.8-7.3C529.8,282.9,527.1,284.7,528,287.6z M532.1,287.2   c1.9,1.3,3.5,1.7,5.7,1.4C534,286.1,533.9,286,532.1,287.2z M530.7,266.6c2.8,0.5,4.7,0,6.7-1C534.7,265.1,534.7,265.1,530.7,266.6   z M524.3,289.4c0,0.1,0,0.2,0,0.3c0.4,0,0.8,0,1.2,0c0-0.1,0-0.2,0-0.3C525.1,289.4,524.7,289.4,524.3,289.4z" />
	<path display="inline" fill="#B7BDD5" d="M471.8,263.1c-0.8,1.4-2.4,0.2-3.6,1.2c1.2,25.1,26.9,28.9,33.4,48.2   c-14-13.6-35.7-21.2-41-42c-0.7-1.8,0.3-6.7-2.7-5.9c-1.1,5.8,4.3,10.4,4.3,16.3c-3.7-0.1-7.2-2.1-11.1-1.7   c-0.2,0.3-0.4,0.6-0.7,1.1c-0.8-1-1.3-1.7-1.9-2.3c1.3-2.3-4.3-7.9-4.8-11.2c-2-6.5-8.8-15.8,2.2-16.4c0.6,0.5,1.4,1.1,2.3,1.7   c0.1,2.2,0.3,4.6,0.4,7.4c1.3-2.3,0.3-4.5,1.6-6.4C455.2,261.4,462.8,263.3,471.8,263.1z" />
	<path display="inline" fill="#CCD2E9" d="M448.6,278c0.5,0.7,1.1,1.3,1.9,2.3c0.3-0.5,0.5-0.8,0.7-1.1c3.9-0.4,7.4,1.6,11.1,1.7   c7,14.8,24.4,19.7,34.4,31.9c-9.6,0.7-18.8-1.9-26.1-8.1c-11.3-7-25.9-11.3-30.3-25.1c0.2-0.2,0.4-0.5,0.7-0.8   c2.5,3.8,5.2,7.3,9,10.2c-0.6-4.9-3.1-8.1-4.9-12.6c0.9-0.1,1.5-0.1,2.1-0.1C447.7,277,448.1,277.5,448.6,278z" />
	<path display="inline" fill="#373A46" d="M521.2,552.3c-13,26.2,11.9,37.6,33.7,27.7c-17.7,21.7-53.2,5.6-44.6-22.2   c0.6,0,1.2,0,1.9,0c0-1.1,0-2.2,0-3.4c-9.1-9.2-14.9-27.1-2.9-36.5c-7.7,12.2,1.9,23.1,6.1,34.3c-0.8,1-1.4,1.9-2.4,3.1   c1.5,0,2.6,0,3.7,0c-0.1,0.7-0.2,1.3-0.4,2.7c0.9-0.9,1.4-1.5,2.2-2.3c-0.9-0.2-1.3-0.3-1.8-0.4c1.2-1.3,2.5-2.5,3.7-3.8   C520.6,551.8,520.9,552.1,521.2,552.3z" />
	<path display="inline" fill="#FBDFD3" d="M520.5,265.2c-6.6,10.5-0.4,14,1.2,23.5c-1.8,0.9-3.8,2.5-6,1.6c-0.2-0.1-0.9,0.7-1.4,1   c-7.4-0.8-10-13-13.2-19c2.6-7.7,8.1-13.8,12.3-21c3,4.1,4,9.1,7.1,13.2C520.4,264.7,520.4,264.9,520.5,265.2z" />
	<path display="inline" fill="#FADFD3" d="M538.4,241.4c-1.3,0.5-0.5,1.8-1.2,2.8c-7.3,3.8-10.4,12.9-15.4,19c0,0,0,0,0,0   c-2.5-4.6-4.3-9.4-6.7-14.3c6.2-11.9,16.3-22.2,29.1-26.9c1.6,1,3.4,2.1,4.6,4.2c-0.9,1-1.7,2.1-2.5,3c-2.8,0.1-4,0.6-4.9,3.6   c-3.2,1-1.6,2.1-3.1,4.2c-1.4,1.2-1.1,2.6,0.2,3.9C538.7,240.9,538.5,241.2,538.4,241.4z M532.4,241.5c0.8-0.8,3.8-1.3,2.4-2.8   c-1.6,1.5-5,1.6-4.9,4.3C530.9,242.4,531.6,241.9,532.4,241.5z M523.7,251.2c1.8-3.1,4.5-4.9,5.1-8.5   C526.3,244.9,520.8,248.6,523.7,251.2z" />
	<path display="inline" fill="#EDCABA" d="M449.2,235.4c7.1,8.5,20.4,13,30.2,18.4c-3.2,4.2-7.3,1.3-10.3,5.2   c0.8,0.1,1.5,0.2,2.2,0.3c-4.5,0.8-10.2-0.2-14.4-2.5c4.5-1.6,9.4,0.6,14.3-1.7c-10.1-2.3-20.6-3.2-27.6-11.7   c0.1-0.8,0.3-1.6,0.4-2.4c-1.9-3.1-1.9-3.1-4.2-4.2c-0.1,0.2-0.1,0.5-0.2,0.7c-1.4-2.2-0.5-3.8-1.9-6.6c-0.3,1.2-0.4,1.7-0.5,2.1   c-0.3-0.9-0.7-1.7-1.1-2.8c0.7,0,1.3,0,1.9,0c-0.1-0.5-0.1-1-0.3-1.7c3.9,0.9,7,2.9,9.3,6c-0.4,0.1-0.7,0.3-1.2,0.4   C447,236.4,448,236.7,449.2,235.4z" />
	<path display="inline" fill="#FADED2" d="M520.4,290.7c0.8-0.2,1.6-0.4,2.6-0.6c3.6,7.4,12.3,12.2,20.3,9.6   c4.7,7.2,11.6,2.7,18.6,3.9c-4.9,7.5-16.2,5.5-24,5.5c-10-1.7-16.2-10.2-24-15.8C516,291.7,518.1,291.4,520.4,290.7z" />
	<path display="inline" fill="#4C505E" d="M520.4,551.6c-1.2,1.3-2.5,2.5-3.7,3.8c-1.1,0-2.2,0-3.7,0c0.9-1.2,1.6-2.1,2.4-3.1   c-4.3-11.2-13.9-22.1-6.1-34.3c0,0,0,0,0,0c1.4-1.4,2.7-2.9,4-4.3c1.7,0,3.3,0,5.1,0c0.7,2.3,1.4,4.5,2.1,6.9   c-12,6.1-7.4,20.3,0,28.3c0-1.2,0-1.8,0-2.4c1.6,0.5,1.6,1.7,1.5,3.1C520.7,549.7,520.4,550.6,520.4,551.6z" />
	<path display="inline" fill="#B6BCD3" d="M447.2,276.4c-0.6,0-1.2,0.1-2.1,0.1c1.8,4.5,4.3,7.7,4.9,12.6c-3.8-3-6.5-6.4-9-10.2   c-0.3,0.3-0.5,0.6-0.7,0.8c-6.6-7.9-12.7-15.8-10.1-27c0.7-0.1,1.2-0.1,1.9-0.2c1.1,4.8,0.6,14.2,4.6,16.8c-1.8-5.3-3-11-2.3-16.7   c1.5-0.2,2.8-0.1,4.3,0.2c0,0.9,0,1.7,0,2.5c-0.4,0.2-0.9,0.4-1.2,0.5c-0.9,2.7,0.8,5,1.1,7.4c0.4-2.2-1.2-4.8,0.1-6.6   C440.3,263.7,444.5,269.9,447.2,276.4z" />
	<path display="inline" fill="#EEC9BA" d="M412.7,245c-0.8-2.7-2.7-4.2-3-7.2c6.6,1,12.5,3,19.1,4.1c3-2.7,7.9-1.9,11.8-2.1   c1.4,1.1,1.4,2.8,1.1,4.3c0.6,1.3,1.3,2.6,1.9,3.8C434,251.9,422.7,245.6,412.7,245z" />
	<path display="inline" fill="#373A46" d="M552.6,520.2c5.1,10.3,6.1,19.5-4.4,27c1.1,0.6,1.9,1.1,2.8,1.7c-1.6,1.1-2.5-0.6-3.7-0.3   c0.3-1.2-1.5-3.1-2.2-1.4c-0.5-0.5-1-1-1.5-1.5c0-1,0-2,0-3c0.1-0.2,0.2-0.3,0.3-0.5c-0.1,0.2-0.2,0.3-0.3,0.5c-0.2,0-0.5,0-0.7,0   c-0.2-0.5-0.5-0.9-0.7-1.4c1.2,0,2.5,0,3.5,0c4.6-3.3,5.8-9.5,4-16.5C550.6,523.2,551.6,521.7,552.6,520.2z" />
	<path display="inline" fill="#ECC9B9" d="M536.1,458.1c1.8,14.2-1.7,14.8,9.1,27.3c-2.7,0.5-2.8-2.2-4.3-3.1   c-0.8,5.4-4,10.1-7.6,13.8c-1.7,0.2-1.5-2.3-3.2-2.1C538.6,484.5,535.7,470,536.1,458.1z" />
	<path display="inline" fill="#171110" d="M554.7,308.6c2.9-0.9,6-1.8,7.3-4.9c-6-1.7-12.8,3.4-17-2.4c-2-1.8-3.7-4-3.7-6.9   c-0.5-3.9-4.8-7.6-3.5-11.7c0.1,0,0.4,0,0.5,0c2.7,4,4.1,8.3,4.5,13.6c1.8,1.8,3.9,4,6.1,6.2c2.3,0.3,3.7,0.3,6.3,0   c-0.7-1.1-1.3-1.9-1.8-2.7c0.3-0.3,0.6-0.6,0.9-0.9c2.5,1.3,5.7,4.8,8.6,2.9c-0.8-1.2-3.6-3.3-1-4.3c1.4,2.8,4.2,4.2,5.1,7.4   c-0.3,0.3-0.6,0.6-0.9,0.8c-0.6-0.4-1.2-0.8-1.7-1.1c-2.1,1.5-3.8,4.3-6.6,4.7C556.9,308.5,555.8,308.6,554.7,308.6z" />
	<path display="inline" fill="#E7C3B4" d="M520.2,513.5c2,0.7,2.7,3.7,3.9,5c-0.5,2.4-0.9,4.4-1.3,6.5c1.4,0.9,2.9,0.1,4.1,0.5   c0.7-0.6,1.2-1.1,1.8-1.5c0.4,1.9-0.7,3.3-0.9,5.1c-3.2,1.3-5.8,0.3-8.2-1.9C523,523,522,518.2,520.2,513.5z" />
	<path display="inline" fill="#1F1716" d="M527.8,529.1c0.2-1.8,1.3-3.3,0.9-5.1c1.4-0.2,2.8-0.5,4.2-0.7c-0.1,0.7-0.3,1.4-0.5,2.1   c1.7,1.5,3.7,0.5,5.5,0.6c0.9-1,1.8-1.9,2.6-2.8c1.5,0.3,2.9,0.9,4.5,0.7c-0.9,0.7-1.1,0.7-2.7,0.9c0.2,0.5,0.3,0.9,0.4,1.3   c-0.6-0.2-1.1-0.4-1.8-0.6c-2.7,3.1-7.5,2-11.1,3c-0.4,0.6-0.8,1-1.1,1.5C528.4,529.8,528.1,529.4,527.8,529.1z" />
	<path display="inline" fill="#4C66C5" d="M503.9,330.4c2.9-2.8,5.8,4.5,9,4.4c0.3,2.3,0.7,4.6,1.8,6.7c-0.4,0-0.8,0-1.2,0   c-3.2-3.5-6.5-6.9-9.7-10.4C504.6,331,504.7,330.4,503.9,330.4L503.9,330.4z" />
	<path display="inline" fill="#292724" d="M550.3,255.5c0.4-2.8-1.7-5-1.4-8.1c-0.6-0.1-1-0.1-1.5-0.1c0.4-0.4,0.8-0.8,1.2-1.1   c-0.5-1.4-1.3-0.5-2.2-0.5c-0.4-0.4-0.9-0.8-1.3-1.2c1.3-1.8,4.3-1,6,0.4c0,0.5,0,1.1,0,1.7c-1.6,0.5-0.4,3,0.8,1.5   c1.5,0.8-0.5,2,0.4,2.8C550.4,252.1,552,254.5,550.3,255.5z" />
	<path display="inline" fill="#32353B" d="M438.8,255.4c0-0.8,0-1.6,0-2.5c-0.8-0.1-1.5-0.3-2.2-0.4c1.2-1.1,2.5-0.6,3.9-0.6   c-2,6.1,3.2,13.3,5.2,19.2c-0.2,0.3-0.5,0.5-0.7,0.8C442.5,266.6,439.4,261.2,438.8,255.4z" />
	<path display="inline" fill="#1D1E21" d="M461.3,275.7c-2.2-3.1-4.1-7.3-3.4-11.1c4.2-0.2,1,8.5,4.7,10.4c0.1,0.1,0,0.5,0.1,0.7   C462.2,275.8,461.8,274.7,461.3,275.7z" />
	<path display="inline" fill="#E6C4B5" d="M513.6,506.7c0.1,0.4,0.1,0.7,0.2,1.2c1.9,1,4,2,5.1,4.1c-2.2,0.1-4.3,0.2-6.4,0.2   C512.1,509.1,512.1,509,513.6,506.7z" />
	<path display="inline" fill="#33353C" d="M435.2,267.5c-1.9-4.7-3.1-10.5-0.7-14.9c-0.8,5.1,0.7,10,1.6,14.9   C435.7,267.5,435.4,267.5,435.2,267.5z" />
	<path display="inline" fill="#2C2321" d="M441.9,242.8c0.2-1.9-1.6-2.9-2.1-4.6c0.1-0.2,0-0.4-0.1-0.6c0.1-0.2,0.1-0.5,0.2-0.7   c2.3,1.1,2.3,1.1,4.2,4.2c-0.1,0.8-0.3,1.6-0.4,2.4C443,243.3,442.4,243.1,441.9,242.8z" />
	<path display="inline" fill="#3F5BB2" d="M418,248.8c1.7,0.1,2.6,0.8,4.2,1.7c-3.1,0.5-4.7,1.6-7.2,1.2   C415.8,250.3,416.9,249.5,418,248.8z" />
	<path display="inline" fill="#38302E" d="M394,301.9c-0.8-4.3-1-8.6-0.5-13c1,1.4,1.9,3.5,0.6,4.9c0.1,2.2-0.4,4.4,0.6,6.6   C394.9,301,394.7,301.6,394,301.9z" />
	<path display="inline" fill="#161616" d="M590.8,262.9c0.1-2.3-1.4-4-0.6-6.2C592.4,257.6,593.4,261.4,590.8,262.9z" />
	<path display="inline" fill="#292C2C" d="M554.8,260.8c2-1.5,4-3,6.2-4.7C561.8,258.1,557.1,261.7,554.8,260.8L554.8,260.8z" />
	<path display="inline" fill="#442F2D" d="M504,230.7c2,0.3,3.7,1.1,5.2,2.5c-0.6,0.1-1.3-0.1-1.5,0.8c-1.2-0.8-2.4-1.5-3.7-2.3   C504,231.3,504,231,504,230.7z" />
	<path display="inline" fill="#78615D" d="M520.4,290.7c-1.5,0.5-3.1,0.9-4.6,1.4c-0.5-0.2-1-0.5-1.5-0.7c0.5-0.4,1.2-1.1,1.4-1   c1.5,0.8,2.7-0.2,3.9-0.4C519.9,290.1,520.2,290.4,520.4,290.7z" />
	<path display="inline" fill="#353939" d="M559.2,225.7c-1.1,2-2.3,2.7-4.3,1.9C556,226.3,557.2,225.7,559.2,225.7z" />
	<path display="inline" fill="#2A2B2B" d="M591,219.1c1.4,0.1,1.4,0.1,3.1,3.6C592.2,222.1,591.5,220.9,591,219.1z" />
	<path display="inline" fill="#2C2B2B" d="M602.4,224.6c1-0.5,1.5-0.8,2.5-1.3c-0.2,1.6-0.3,2.6-0.5,4.4   C603.6,226.4,603.1,225.7,602.4,224.6z" />
	<path display="inline" fill="#161616" d="M593.8,269.9c-2.4-2-1.4-3.9-1.2-5.7C593,265.9,593.3,267.6,593.8,269.9z" />
	<path display="inline" fill="#202424" d="M590,216.8c-2.1-0.6-3.4-1.3-4.5-3.2C587.5,214.2,588.8,214.8,590,216.8z" />
	<path display="inline" fill="#1F2020" d="M589.6,283c0.3,1.8,2,3.1,1.7,5.7C590.2,286.5,588.8,285.1,589.6,283z" />
	<path display="inline" fill="#2A2B2B" d="M577.6,253.3c-1.5-0.1-1.4-0.1-2.5-1.1c1.1-0.7,1.9-1.4,3.4-1   C578.2,252,578,252.6,577.6,253.3z" />
	<path display="inline" fill="#232424" d="M599.5,248.9c1.5,0.8,0.9,2.1,0.9,3.3C598.9,251.2,598.9,251.2,599.5,248.9z" />
	<path display="inline" fill="#323232" d="M601.1,279.2c1.1,1.4,0.9,2.5,0.7,3.5C600.4,281.8,600.4,281.8,601.1,279.2z" />
	<path display="inline" fill="#222121" d="M605.5,244.4c0,1.5,0,2.8,0,4.3C604.3,245.2,603.4,245.3,605.5,244.4z" />
	<path display="inline" fill="#323149" d="M515.8,331c0-2,0.9-4.3-0.6-5.8c0.4,0,0.7,0.1,1.2,0.1C516.7,327,517.4,330,515.8,331z" />
	<path display="inline" fill="#2A2A2A" d="M609,242.6c0.5,1.9,0.4,3.8,0.1,5.7C608.4,246.4,608.5,244.5,609,242.6z" />
	<path display="inline" fill="#4D474F" d="M394.6,304.8c-0.4,1-0.9,2.1-1.3,3.1c-0.2,0-0.5,0-0.7,0c0.6-1.7,0.2-3.7,1.3-5.4   C394.3,303.2,393.6,304.3,394.6,304.8z" />
	<path display="inline" fill="#1F2020" d="M596.6,224.2c1.3,0.3,1.9,1.5,3.5,2.8c-2.2,0-2.5-1-4-2.1   C596.2,224.7,596.4,224.5,596.6,224.2z" />
	<path display="inline" fill="#1F2424" d="M557.6,242.3c-0.8,1.5-1.9,1.4-3,1.1C555.2,242.2,555.2,242.2,557.6,242.3z" />
	<path display="inline" fill="#202121" d="M603.6,255.5c-1.4-0.8-0.8-2-0.9-3.2C604.1,253.8,604.1,253.8,603.6,255.5z" />
	<path display="inline" fill="#BBA699" d="M545.1,244.5c0.4,0.4,0.9,0.8,1.3,1.2c-1.2,0-2.4,0-3.5,0c0.3-0.4,0.5-0.9,0.8-1.3   C544.1,244.4,544.6,244.5,545.1,244.5z" />
	<path display="inline" fill="#4E4C47" d="M520.5,265.2c-0.2-0.8,0.4-1.5,0.7-2.2c0.2,0.1,0.4,0.1,0.6,0.2l0,0   c0.1,1.1,0.3,2.2,0.4,3.7C521.4,266.1,521,265.6,520.5,265.2z" />
	<path display="inline" fill="#272727" d="M580.3,272.3c2.3-0.2,2.4-0.2,1.7,1.7C580.7,274.1,581.1,272.9,580.3,272.3z" />
	<path display="inline" fill="#1B1C1C" d="M587.4,231c-0.7,1.1-1,1.4-1.5,2.1c-0.5-0.6-0.9-1.1-1.6-1.9   C585.5,231.1,586.2,231.1,587.4,231z" />
	<path display="inline" fill="#2B2F2F" d="M551.7,237.4c1.1-0.6,1.8-1,2.6-1.4c0.4,0.4,0.7,0.7,1.3,1.4   C554.2,237.4,553.2,237.4,551.7,237.4z" />
	<path display="inline" fill="#2C2D2D" d="M570.6,221.3c0.3-0.3,0.6-0.6,1-1.1c0.6,0.8,0.9,1.2,1.3,1.7   C571.8,223,571.3,222.3,570.6,221.3z" />
	<path display="inline" fill="#262626" d="M604.4,262c-0.3-0.7-0.6-1.4-1-2.3c0.5-0.1,0.9-0.1,1.3-0.2c0,0.9,0,1.6,0,2.4   C604.7,261.9,604.5,261.9,604.4,262z" />
	<path display="inline" fill="#312E2E" d="M589.8,224.6c-0.6,0-1.2,0-2.6,0C588.4,223.4,589.7,222.6,589.8,224.6z" />
	<path display="inline" fill="#1C2020" d="M545.7,265.7c-0.8,0.1-1.5,0.2-2.6,0.4C544.6,264.8,544.6,264.8,545.7,265.7z" />
	<path display="inline" fill="#C3B3A9" d="M583.1,287c-0.9,0.5-0.5,1.5-0.6,2.2c-1.3-1-0.6-2.4-0.8-3.6   C582.7,285.6,583,286.3,583.1,287z" />
	<path display="inline" fill="#98938A" d="M458.5,256.2c-0.5,0.2-1.1,0.5-1.6,0.7c-0.5-0.3-1-0.6-2-1.1   C456.6,255.4,457.6,255.4,458.5,256.2z" />
	<path display="inline" fill="#AE9E95" d="M551.9,248.1c-1.2,1.5-2.4-1-0.8-1.5c0.2,0.3,0.4,0.6,0.6,0.9   C551.7,247.7,551.8,247.9,551.9,248.1z" />
	<path display="inline" fill="#5D5D58" d="M410.4,248.9c-0.3,0-0.5,0-0.8,0c0-1.1,0.3-2,2.2-2.2   C411.2,247.6,410.8,248.2,410.4,248.9z" />
	<path display="inline" fill="#1E2828" d="M577.7,256.9c-1,0-2,0-3,0c0-0.1,0-0.2,0-0.4c1,0,2,0,3,0   C577.7,256.6,577.7,256.8,577.7,256.9z" />
	<path display="inline" fill="#282A2A" d="M558.9,240.4c-1,0-2,0-2.9,0c0-0.1,0-0.3,0-0.4c1,0,2,0,2.9,0   C558.9,240.2,558.9,240.3,558.9,240.4z" />
	<path display="inline" fill="#726B66" d="M408.3,250.4c-0.4,0.8-0.7,1.5-2.1,1.2c0.4-0.8,0.8-1.4,1.2-2.1   C407.7,249.9,408,250.1,408.3,250.4z" />
	<path display="inline" fill="#564C4A" d="M415,246.8c-0.7,0.6-1.2,0.9-1.7,1.2C413.3,247,413.6,246.4,415,246.8z" />
	<path display="inline" fill="#2D3939" d="M567.1,266.6c-0.7,0-1.5,0-2.2,0c0-0.1,0-0.2,0-0.4c0.7,0,1.5-0.1,2.2-0.1   C567.1,266.3,567.1,266.4,567.1,266.6z" />
	<path display="inline" fill="#2C3333" d="M576.1,241.9c-0.5,0.1-1,0.1-1.4,0.2c0-0.2,0-0.3-0.1-0.5c0.5-0.1,1-0.1,1.4-0.2   C576.1,241.5,576.1,241.7,576.1,241.9z" />
	<path display="inline" fill="#272A2A" d="M577,232.5c0.2,0.4,0.4,0.7,0.6,1.1C576.8,234,576.2,233.3,577,232.5z" />
	<path display="inline" fill="#323149" d="M514.4,331.8c0-1.2,0.1-1.2,0.8-0.8C515,331.3,514.7,331.5,514.4,331.8z" />
	<path display="inline" fill="#EECABA" d="M521.8,263.2c-0.2,0-0.4-0.1-0.6-0.2c0-0.2,0-0.5,0.1-0.7   C521.4,262.6,521.6,262.9,521.8,263.2z" />
	<path display="inline" fill="#292C2C" d="M554.8,260.8c-0.1,0.2-0.2,0.3-0.3,0.5C554.6,261.1,554.7,261,554.8,260.8L554.8,260.8z" />
	<polygon display="inline" fill="#1F2020" points="594.7,223.8 594.9,223.7 594.9,223.9  " />
	<path display="inline" fill="#292724" d="M551.7,247.5c-0.2-0.3-0.4-0.6-0.6-0.9C551.3,246.9,551.5,247.2,551.7,247.5z" />
	<path display="inline" fill="#373A46" d="M509.9,517.2c-0.3,0.3-0.5,0.5-0.8,0.8C509.4,517.7,509.7,517.4,509.9,517.2z" />
	<path display="inline" fill="#FBDFD3" d="M484.6,392.3c4.4,0.8,8.5,3,12.7,4.5c0,1.8-0.1,2.8-0.4,4.8c2.5-0.9,1.1-2.8,2.6-4   c2.6,0.9,5.2,1.7,8,2.6c-0.1,12.4,1.9,25.2-4.1,36.8c4.2,36.6-16.6,70.3-25.1,105.1c-2.8,0.4-5.7,0.7-8.7,0.5   c-0.1-1.1-0.1-2.2-0.2-4c-0.9,2.9-1.5,3.9-3.6,5.6c-2.8-8.7,3.5-18.7,0.8-27.8c-0.3-2.1,0.6-4.4,1-6.5c1.5-4.3-0.9-8.4-0.3-12.8   l0,0c1,0,0.9-1.2-0.1-0.8c-7.8-22.2-0.3-34.5,8.1-54.6c3.9,0.6,3.5,5.7,7.3,6.8c3.3-5.9-1.1-13.8-3.7-19.5   c-2.5-4.6-1.4-9.5-3.3-14.3c4.2,2,7.6,1.6,11.9,1.8c2.2,7,15.1-11.6,10.4-12.2c-1.6,4.5-4.7,8-8.1,11.3c-0.5,0-1,0.1-1.5,0.1   c-0.2-0.1-0.5-0.2-0.7-0.1c-0.7-1.5-2.8,0.1-3.8-1.3c-0.9-1.6-2.9-2.7-3-4.7c0.4-1.9-0.6-3.1-2.2-4.8c0,1,0,1.5,0,1.9   c-3.2-0.5-11.2-10.9-9.1-14.2c0.5,0.5,1.1,1,1.6,1.5c0.5-0.5,1-1,1.6-1.6C476.6,392.3,480.6,392.3,484.6,392.3z M488.8,468.5   c-0.1,1.6-3.5,5.8-0.8,5.9c1.2-3.7,2.4-7.2,3.9-11C490.2,464,489.9,464.6,488.8,468.5z M477,479.8c1.8-4.2,6.2-22.3,3.3-25.4   c-2.6,3.9-0.9,10.9-1.9,15.8c-0.3,3.9-3.6,7.7-2.4,11.5C476.4,481,476.7,480.4,477,479.8z M494.1,449.4c-0.2,0.6-0.7,1.2,0.4,2.3   c0.9-3.4,0.3-8.2-0.5-11.6c-0.3,0.1-0.7,0.2-1.4,0.3C493.2,443.5,492.6,446.6,494.1,449.4z M496.4,455.1c1.4-2.9,4.1-4.6,3.7-8.1   c-2.5,4.2-5.3,6.4-5.6,10.9C495.3,456.6,495.8,455.9,496.4,455.1z M492,428.3c-2.4,3.6-2.3,5.8,0.6,9.2c0.3-0.3,0.7-0.6,1-1   c0.5,0.2,1.1,0.5,1.6,0.7c3.9-4.3,5-0.6,6.5-2.8c-0.8-1.2-2.1-1-3.5-1.1c0-1.4,0-2.6,0-3.9c2.4-1.2,5.6-0.1,7.2-2.7   c-1.7-1.8-4.4,0-6.5,0.1c-1.4-3.7-4.4-5-7.6-6.7c-0.4,0-0.9,0.1-1.4,0.1c0,2.1,0,4,0,6C490.6,426.9,491.3,427.6,492,428.3z    M471.8,488.9c0.2,0.1,0.4,0.3,0.7,0.4c0.5-1.3,3.9-3.6,1.6-4.7C473.1,485.9,472.3,487.4,471.8,488.9z M472.8,521.9   c0,0.6,0,1.2,0,2C474.1,523.1,474.1,523.1,472.8,521.9z M472.3,528.4c-0.7,1-1,1.8-0.5,3.3C472.6,530.5,473,529.7,472.3,528.4z    M469.4,536.3c1.7-1,1.8-1.5,1.2-2.4C470.1,534.7,469.7,535.5,469.4,536.3z M468.4,494.5c1.4-0.3,1.4-0.3,1.7-1.9   C469.1,492.9,468.7,493.6,468.4,494.5z M474.5,401.9c1.4-1.7,0.8-2.2-0.4-2.6C474.2,400,474.3,400.6,474.5,401.9z M479.6,451.5   c-0.2-0.2-0.5-0.4-0.7-0.6C478.1,451.7,479.3,452.6,479.6,451.5z" />
	<path display="inline" fill="#4B65C5" d="M479.2,379.6c1.2,0.8-0.3,0.7-0.4,1.7c-0.1,2.2,3.2,4.2,2.7,6.6c-2.7-1.5-5.5-3-8.2-4.5   c0.4-0.1,0.8-0.2,1.6-0.4c-5.4-5.4-10.1-9.6-15-15.5c0,3.9,0,7.2,0,10.5c-7.1-2.2-14.5-3-21.9-3.9c5.5-23.4-8.4-25.6,9.4-46   c0.9-1.2-1-0.6-0.9-1.3c0.6-3.6,3.4-5.9,5.9-8.3c0.5,0.7,1.1,1.3,1.6,2c8.1,0.1,20,21.6,24.6,28.6l0,0c-5.4-3.9-8.8-9.7-14-13.8   c0.2,0.1,0.3,0.2,0.5,0.3c-0.1,0.4-0.1,0.7-0.2,1.3c-1-0.5-1.7-1.1-2-2c0.7-0.3,0.6-0.5,0-0.8l0,0c-0.8-1-1.5-2-2.3-3   c0.9-1.1-2-4.2-3.6-5c-0.3,4.5,1,8.6,0.6,13.1c-1-0.5-1.9-1.3-3-1.6c-1.4-4.8,0.1-11.1-3.1-14.9c0,9.4,5.3,19.3,1.6,27.8   c1.5,2.5,0,5.2,1,8.1c0.3-1.1,0.6-1.9,1.1-3.6c7.4,8.7,13.8,17.9,23.2,23.9l-0.1,0C478.7,379.1,479,379.4,479.2,379.6z    M454.7,367.8c1.3-2.2,0.5-5.4,0.3-7.9c-0.9,4.5-2.2,8.9-1.8,13.7C455,371.8,454.5,369.7,454.7,367.8z" />
	<path display="inline" fill="#E4E4EB" d="M499.3,591.3c0.1,2.8-3.8,3.1-5.8,3.7c-0.1-0.4-0.2-0.9-0.2-1.3   c-9.8-0.2-19.4,2.8-27.5-4.4c0-5.2-0.2-12.3-5.3-15.1c-1.1,0.8-2,1.5-3,2.3c-0.2,0-0.4,0-0.5,0c-1.6-1.2-3.8-1.8-4.5-3.7   c3.2-5.4,4.2-11.1,4.6-17c0.5-0.1,0.8-0.2,1.2-0.3c0.1,0.7,0.1,1.4,1,1.4c0.5,0.5,0.9,0.9,1.4,1.4c0.6,1.7,2.3,0.5,3.4,1.3   c0.2,0.6,0.5,1.2,0.7,1.8c1-0.1,2.1,0.6,2.6-0.8c5-0.5,9.5-0.8,14.7-1.2c1.6,1.2,2.1,3.1,1.6,5.6c-2.4,1.7-12.2,0.9-12.1,3.8   c1.4,0.1,3-0.3,4.3,0.6c-1.1,0.5-1.1,0.5-1.6,1.4c3.7,1,10.8,2.7,11-1.8c3.6,4,7.8,7.2,12.1,10.6   C498.1,583.3,497.4,587.7,499.3,591.3z M477.8,574.8c0.5,0.5,1,0.9,1.5,1.4c-0.3,2.7,9.8,2.6,9.5-1.1c-3.3-2.5-7.7-2.8-11.7-1.3   C477.4,574.3,477.6,574.5,477.8,574.8z M467.6,563.2c2.4,1.8,13.7,1.8,14.5-1.3C477.9,560.5,471.9,561.2,467.6,563.2z" />
	<path display="inline" fill="#5876E8" d="M437.5,338c-10.4,11.9-20.9,24.5-34.6,33.1c-3.7-1.3-7.4-2.7-11.1-4c0-0.6,0-1.1,0-1.5   c0.5-0.8,1-1.6,1.5-2.4c-1.1-1.9-3-2.4-4.5-3.5c0-3.9-1.4-6.6,1.1-10.2c0.1,2.7-1.1,4.3,0.3,6.6c-0.7,4.1,4.8,6.6,7.4,3.1   c1.4-26-8.9-17.8,20.4-22.8c5.6,2.4,13.5-1.9,19.7-1.3C437.6,336,437.6,337,437.5,338z" />
	<path display="inline" fill="#EECABA" d="M469.5,392.4c-2.2,3.3,5.8,13.8,9.1,14.2c0.8,0.9,0.8,2.5,2.2,2.8c0.1,2,2.1,3.1,3,4.7   c-2-0.3-2.2-2.4-4.3-2.1c1,1.7,2.2,2.9,3.6,4.2c-2.5,0.4-4.8-0.6-7.5-1.6c1.9,4.8,0.8,9.7,3.3,14.3c2.7,5.7,7,13.6,3.7,19.5   c-3.7-1.2-3.4-6.2-7.3-6.8c-8.8,20.8-15.8,32.6-8,55.4l0,0c-0.7,0.5-1.5,1-2.2,1.5c-0.5-0.5-1-1-1.5-1.5   c-13.4-51.2,27.8-46.1-7-116.8c9.8,1.2,19,7.7,28,12.1c-4,0-8,0-11.9,0c-0.6,0.6-1.1,1.1-1.6,1.6c-0.1-2-0.1-2-1.5-3.4   C469.5,391.2,469.5,391.8,469.5,392.4z M473.2,431.2c-0.9,1.6,1.8,4.8,3.2,3.1c-0.4-1.2-1.3-2.2-2.3-3.1c-0.2-1.8,2.4-11-0.9-9.1   C473.2,425,473.2,428.1,473.2,431.2z" />
	<path display="inline" fill="#ECC9B9" d="M463.6,497c0.5,0.5,1,1,1.5,1.5c0,0.4,0,0.9,0,1.6c0.9-0.7,1.5-1.2,2.1-1.8   c1.3,13.6-0.6,27.2-2.1,40.8c-0.2,1.4-0.6,3.7,0.6,4.9c-0.3,2.1-1,4.1-0.1,6.1c-3.7,1.5-4.5,1.5-6.9,0.2   C465.9,533.9,463.5,514.7,463.6,497z" />
	<path display="inline" fill="#4B65C4" d="M448.6,322.2c-0.5,0.7-0.9,1.4-1.4,2.1c-0.1-0.4-0.3-0.8-0.6-1.8c-1.2,3.2-1.6,5.7-4,7.7   c-1.5,0.1-3,0-4.5,0c2-3.2,1.1-7.5,5-9.5c-12.4-1.5-25.2-1.3-36.8-5.2c4.8-3.8,28.7-1,34.9,0.5c-10.6,0.7-20.9-1.8-31.7-1.4   c0,0.1,0,0.2,0,0.4c13.1,1.6,27.1,3.5,39.9,2.5C452,319.2,446.8,321,448.6,322.2z" />
	<path display="inline" fill="#E2E2E9" d="M467.3,560.5c-0.6,1.3-1.6,0.7-2.6,0.8c-0.2-0.6-0.5-1.2-0.7-1.8   c-1.1-0.8-2.8,0.4-3.4-1.3c9.3,2.1,7-5.5,7.6-11.4c4-0.5,7.9-1,12.1-1.6c0.4,3.8-0.7,7.9-0.1,11.9c-5.3,1.6-10.5-1-15,3.1   C466,560.2,466.7,560.4,467.3,560.5z" />
	<path display="inline" fill="#CDCDDB" d="M457.5,576.3c1-0.7,1.9-1.5,3-2.3c5.1,2.8,5.3,9.9,5.3,15.1c4,2.8,8,5,12.8,5.1   c-0.3,0.4-0.5,0.7-1.2,1.6c5.1,0.4,9.6-1.7,14.3-0.3c-6.9,2.6-14.5,1.6-21.6,1.5c-15.2-9.4-4.9-17-12.7-20.1l0,0   C457.6,576.8,457.5,576.5,457.5,576.3z" />
	<path display="inline" fill="#CCCCDA" d="M458.2,555.4c-0.4,0.1-0.7,0.2-1.2,0.3c-0.4,5.9-1.4,11.6-4.6,17c0.8,2.2,3.7,2.6,5.2,4.4   l0,0c-0.2,0.7-0.2,1.2,0.5,1.6c0.9,1.7,0.8,1.7,0.7,3.4c-3.7-2.6-7.7-4.5-10.5-8.2c3.4-3,1.9-7.4,4.1-10.9c3.2-4.6,0.3-10.3,2.9-15   c0.5,0.3,0.9,0.5,1.4,0.8C457.2,550.9,457.7,553.1,458.2,555.4z" />
	<path display="inline" fill="#E9C6B6" d="M373.7,351.3c1.3-0.3,2.7,0.4,3.9-0.5c0.9,0.3,2.4,1.2,2.8-0.2c2.2,1.3,4.1,2.5,6,4.7   c0.1-2-0.3-3.9,0.8-5.6c0.2,4.1-0.7,8.1,0.4,12.2c1.4-0.2,2.6,0.1,3.3,1.7c-0.3,0.4-0.6,0.7-0.9,1.2c-11.2,1.4-6.5-8.6-12.1-13.1   c0.2,3.4,1.8,5.9,1.8,8.7c-1.9,0.1-1.9,0.1-4.1-1.3C374.9,356.6,374.3,353.9,373.7,351.3z" />
	<path display="inline" fill="#5775E6" d="M459.9,378c0-3.3,0-6.6,0-10.5c5,5.9,9.6,10.1,15,15.5c-0.8,0.2-1.2,0.3-1.6,0.4   C468.8,381.6,464.3,379.8,459.9,378z" />
	<path display="inline" fill="#455FB9" d="M437.5,338c0-1,0.1-1.9,0.2-3c-6.2-0.7-14.2,3.7-19.7,1.3c7.4-1.8,15.7-3.7,23.4-4.4   c0.1,0.2,0.2,0.3,0.3,0.5c-0.7,0.4-1.4,0.8-1.9,1.2c0.2,0.6,0.3,0.9,0.5,1.4C439.6,336,438.7,337.1,437.5,338z" />
	<path display="inline" fill="#12131D" d="M387.3,364.8c0.9,0,1.7,0,2.6,0c0.3-0.4,0.6-0.8,0.9-1.2c-0.6-1.6-1.8-1.9-3.3-1.7   c-0.5-5.7-2.2-12.8,3.3-16.5c0.8,3.6,0.7,7.2-0.6,10.5c-1.3-2.4-0.1-3.9-0.3-6.6c-2.4,3.6-1,6.4-1.1,10.2c1.4,1.1,3.3,1.6,4.5,3.5   c-0.5,0.8-1,1.6-1.5,2.4C390.3,365.4,388.6,365.9,387.3,364.8z" />
	<path display="inline" fill="#18192E" d="M438.2,331.8c-9.3,1.7-19.3,5.6-28.5,4.5c9.4-2,19.3-4.4,28.5-5.1   C438.2,331.4,438.2,331.6,438.2,331.8z" />
	<path display="inline" fill="#1B1D1D" d="M485.2,568.7c-0.2,4.5-7.3,2.8-11,1.8c0.5-0.9,0.5-0.9,1.6-1.4c-0.4-0.2-0.7-0.4-1-0.5   c0-0.2-0.1-0.4-0.1-0.6C478.4,567.7,481.7,568.9,485.2,568.7L485.2,568.7z" />
	<path display="inline" fill="#DCE8E8" d="M465.8,552.8c0,0.6,0,1.3,0,2c-3.8,1.2-3.8,1.2-5.8-1.7   C461.8,553,463.7,552.9,465.8,552.8z" />
	<path display="inline" fill="#3D58AD" d="M448.3,378.4c2.2-0.3,4.5-1,6.1,1.8C452,380.5,450.2,379.1,448.3,378.4z" />
	<path display="inline" fill="#E7C6B7" d="M369.4,352c0-1,0-1.9,0-2.9c0.2-0.1,0.5-0.1,0.7-0.1c0.7,0.8,1.5,1.5,2.2,2.2   c0.1,0.8-0.2,1.5-0.7,2.2C370.7,353.1,369.9,352.7,369.4,352z" />
	<path display="inline" fill="#968D86" d="M499.5,397.6c-1.5,1.2-0.1,3.2-2.6,4c0.3-2,0.5-3,0.4-4.8   C498,397,498.8,397.3,499.5,397.6z" />
	<path display="inline" fill="#272D4C" d="M445,327.4c0.5-1.4,1-2.9,1.7-4.8c0.3,0.9,0.4,1.4,0.6,1.8c-1.9,4.2,1,2,0.1,3.7   C446.6,327.8,445.8,327.6,445,327.4z" />
	<path display="inline" fill="#382A27" d="M372.3,351.2c-0.7-0.7-1.5-1.4-2.2-2.2c0.3-0.3,0.5-0.5,0.8-0.8c1.1,0.3,2.2,0.7,3.5,1.1   c-0.4,0.6-0.8,1.3-1.2,1.9C372.9,351.2,372.6,351.2,372.3,351.2z" />
	<path display="inline" fill="#99A3AB" d="M456.7,548.6c-0.5-0.3-0.9-0.5-1.4-0.8c0.2-1.8,1-3.2,2.9-4.3c-0.1,0.8,0.1,1.6-0.2,1.8   C456.7,546.2,457.1,547.5,456.7,548.6z" />
	<path display="inline" fill="#92A1A6" d="M485.3,568.8c-1.7-0.1-3.5,0.3-5.1-0.6c1.4-0.3,2.9-0.6,4.6-0.9   C485,567.7,485.1,568.3,485.3,568.8z" />
	<path display="inline" fill="#6D7074" d="M474.7,568.1c0.1,0.2,0.1,0.4,0.1,0.6c-1.1,0-2.3,0-3.4-0.1c-0.3-1.4,0.3-1.4,1.1-1.3   C473,568.3,473.9,568,474.7,568.1z" />
	<path display="inline" fill="#6E5955" d="M468.1,541.9c0.3-0.9,0.7-1.8,1.2-3.4c0.1,1.9,0.2,2.9,0.2,4   C469.1,542.3,468.6,542.1,468.1,541.9z" />
	<path display="inline" fill="#455FB9" d="M438.2,331.2c-0.3-0.1-0.5-0.1-0.8-0.2c0-0.2,0-0.4,0-0.6c1.3,0,2.6,0,3.9,0.1   C440.5,331.5,439.2,330.8,438.2,331.2z" />
	<path display="inline" fill="#766970" d="M458.1,578.6c-0.7-0.4-0.7-0.9-0.5-1.6c0.7-0.1,1.3,0,1.5,0.7   C458.8,578,458.5,578.3,458.1,578.6z" />
	<path display="inline" fill="#CCCCDA" d="M459.3,556.7c-0.9,0-1-0.6-1-1.3C458.6,555.9,458.9,556.3,459.3,556.7z" />
	<path display="inline" fill="#060608" d="M507.7,398.4c0.5,0.2,1,0.4,1.6,0.6C508.6,399.1,508,399.1,507.7,398.4z" />
	<path display="inline" fill="#455FB9" d="M442.6,330.3c0.3-0.2,0.5-0.5,0.8-0.7C443.2,329.8,442.9,330.1,442.6,330.3z" />
	<path display="inline" fill="#FBDFD3" d="M355.1,348.9c-11,5.9-26.7,9.1-32.5,21c-4,3-4.6,3.1-7.9,1c6.3-19.1,11.9-43.3,32.6-51.1   c-0.4,6.3,1.7,11.7,4.7,16.8c-0.4,0.3-0.8,0.6-1.2,0.9c0.7,3.7,2.4,10.7,7.5,7.7c0,0,0,0,0,0c0.2,0.3,0.5,0.5,0.7,0.8l0,0   c0.2,0.3,0.5,0.5,0.7,0.8c0,0,0,0,0,0c0,0.3,0,0.5,0,0.8l0,0c-0.8,0-1.7-0.3-2.2,0.7l-0.3,0.2C356.3,348.3,355.6,348,355.1,348.9z    M343,331.5c-0.9,1.3-0.9,2.8-0.8,4.3c0.9-2.3,2.8-4.3,3-6.8C343.6,328,343.1,330.3,343,331.5z M337.7,342c-0.5,0.4-1.1,0.8-0.9,2   c2.7-1.8,5.2-3.2,4.7-7.2C339.5,338.3,338.9,340.3,337.7,342z M335.6,344.2c-2.2,1.7-2.2,1.7-2.6,3.1   C334.4,346.9,335.1,346.2,335.6,344.2z M346.8,342.6c-1.4,2.2-1.2,2.9,0.7,3.3C347.3,344.9,347.1,344,346.8,342.6z M329.4,348.5   c-1.4,0-1.4,0-1.6,1.3C328.6,349.5,329,349.3,329.4,348.5z M343.1,348.6c1.2,0.3,1.2,0.3,1.1-0.9   C343.9,348,343.5,348.3,343.1,348.6z M339.1,351c-0.2,0.9-0.3,1.2-0.3,1.5c0.2,0,0.4,0,0.6,0C339.3,352.2,339.2,351.8,339.1,351z    M323.9,351.6c0.1,0.1,0.1,0.3,0.2,0.4c0.4-0.2,0.1-0.4,0-0.6C324,351.4,324,351.5,323.9,351.6z" />
	<path display="inline" fill="#4B65C4" d="M373.1,294.4c0.6,6.2-5.8,13.5-0.9,18.7c0,0.2,0,0.4-0.1,0.6c-0.3,0.1-0.7,0.2-0.8,0.3   c-1.2,7.9-9.5,19.1-5,26.1c0,0.4,0,0.7,0,1.1c-2.1,0.7-1.3,3-1.2,4.6c-0.3,0.3-0.6,0.6-1,0.9c-26.5-23.4-7.1-42.2,9.7-63.7   c1.9,9.6-6.3,14.2-11.9,20.3c-0.4,3.7-2.6,5.9-4,9.6c2.3-0.7,2.4-2.8,3.7-4c1.8,2.1,0.2,5.1,1.7,7.1c0.7,2.4-1.1,4.9,1.2,6.7   c0.3-1.8,0.7-3.2-0.4-4.6C363.6,307.1,362.8,301.4,373.1,294.4z M355.6,320.1c0-1.7,1.6-3.9,0.5-5.2   C354.3,316.4,355.2,318.2,355.6,320.1z" />
	<path display="inline" fill="#E4E4EB" d="M313.2,404.3c4.5,11.6-11.2,37.5-21.7,20.7c0.7-4.4-1.7-8.5-2.2-12.9   c0.6-7.4,2.7-15,5.2-22c1.5,0.5,0,2.8,1.7,2.8c0,0.9,0,1.8-0.1,2.6l0,0c-0.6,0-0.8,0.3-0.8,0.8c0.9,1,1.7,2,2.6,3.1   c-1.2,0.5-2.5-1-3.7,0.5c0.4,1.7,1.9,2.3,3.2,3.2c-0.2,0.5-0.3,1-0.5,1.5c0.2,0.7,0.4,1.4,0.6,2.1l0.1-0.1c-0.7,0-1.4,0-2.3,0   c0.6,2.2,2.8,2.4,3.9,3.7c-0.5,0.1-0.9,0.2-1.5,0.3c2.8,10.9,6.1,7,12,1.3c-0.4-2.3-1-4.7-1.7-7c1.1-0.9,0.5-1.9,0.4-2.9   c0.6-0.6,1.3-1.1,1.9-1.7c-0.3-1.2-1.1-1.5-2-2.1c0-0.2,0-0.4,0-0.6c1.5-0.1,6.2,0,3.6-2.3c0.1-0.2,0.1-0.4,0-0.6   c2.6-0.8,1.2,4.3,1.4,5.8C312.1,401.8,312.1,403.1,313.2,404.3z" />
	<path display="inline" fill="#EDCABA" d="M395.4,230c0,7.8,0,15.7,0,23.7c-0.6,0.6-1.3,1.2-2.1,2c-4.4-2.3-2.6-6.9-5.1-9.9   c-1.2,9.5-0.3,19.6-4.8,28.4c-0.7-0.7-1.3-1.2-1.9-1.8c-1.8,7.7-1.9,16.1-3.1,23.5l-0.2-0.1c0-1.1,0-2.2,0-3   c-0.6-0.6-1.1-1-1.5-1.4c1.6-22.4,4.9-41.5,14.5-61.9c0.2,0.3,0.5,0.6,0.7,0.9c0,1.3,0,2.6,0,4C393.1,232.8,394.3,231.4,395.4,230z    M391,239.4c0.9-0.9,0.9-0.9,1.2-2.4C390.6,237.4,390.6,237.4,391,239.4z M391.5,242.3c-1.5,0.9-1.4,1.9-0.9,3.2   C391.4,244.6,392.1,243.8,391.5,242.3z M392.6,248.9c-0.2,0.1-0.3,0.2-0.5,0.3c0.2,0.4,0.5,0.1,0.8,0   C392.8,249.2,392.7,249.1,392.6,248.9z" />
	<path display="inline" fill="#EDCABA" d="M345.3,320.5c-19.3,8.6-24.5,31.9-30.7,50.3c-8.5-5.6,3.9-16.5,4.5-24.1   C324,333.9,329.5,320.3,345.3,320.5z" />
	<path display="inline" fill="#040303" d="M296.1,383.4c-0.1-1.1,0.4-1.9,1.4-2.3c0.8,1.5,3.4,0.8,5.2,1.4c-1.3-3.9-0.6-7.1,2.4-9.6   c2,4.2,7.6,5.9,12,5.9c1.7,1,1.7,1,0.8,2.4c-0.7,0-1.4,0-1.9,0c-1.2,1.9-1.8,3.4-3.2,4.7c1.6,2.3,1.6,2.3,1.7,4   c-6.7,2.8-13.4-2-17.4-7.1C296.7,383.1,296.4,383.2,296.1,383.4z M306.5,387.1c-0.3-0.5-0.5-1-1.1-0.2   C305.8,387,306.2,387.1,306.5,387.1c1.2,1,2.5,1.5,4.3,1.3C309.4,387.1,308,387,306.5,387.1z M308,384c1.2,0.5,4.3,1.9,3.7-0.6   c1.3,0,1.8-0.9,2.2-2.2c-3-0.4-3.9-2-7.4-2.1c2.4,1.7,3.3,2.5,5.2,4.4c-1.3,0-2.5,0-3.8,0c-0.9-0.6-1.8-1.1-2.8-1.8   c-0.1,0.6-0.2,1-0.3,1.6C306,383.5,307,383.7,308,384z" />
	<path display="inline" fill="#CDCDDB" d="M294.5,390.1c-2.5,7-4.6,14.6-5.2,22c0.5,4.4,2.8,8.5,2.2,12.9c0.8,1.2,1.5,2.3,2.2,3.5   c-13.5-8.7-7.9-30.3,0-41.6C293.7,388.1,293.9,389.1,294.5,390.1z" />
	<path display="inline" fill="#EBC8B8" d="M372.1,313.8c1.8-6.4,1.5-14.1,4.1-20.7c0.3,0.9,0.6,1.8,1,2.8c0.3,0,0.7,0,1.1,0l0.2,0.1   c0,4.9-0.9,9.6-0.8,14.5c0,0.7,0.1,1.5-0.8,1.8c-0.2-2.3,0.8-3.7-0.6-6c0.5,2.5-1.1,4.3,0.6,6c-1.1,5.3-1.8,11.8-6.6,15.1   C368.9,322.4,373.7,318.7,372.1,313.8z" />
	<path display="inline" fill="#F1D7CC" d="M305,372.9c-3,2.5-3.7,5.7-2.4,9.6c-1.8-0.6-4.4,0.1-5.2-1.4c4.5-9.4,2.5-19.5,15-23.2   c0,0.6-0.3,1.1-0.6,1.6c-0.8,0.1-0.9,0.7-0.9,1.3l-0.1,0.1c-0.6,0-1.2,0.1-1.3,0.8c-0.3,0.2-0.5,0.4-0.8,0.6l0.1,0.2   C305.3,365.3,304.8,368.8,305,372.9z" />
	<path display="inline" fill="#E6C4B5" d="M370.1,325.8c0.5,3.8,1.1,7.6,0.6,11.4c-0.3,0-0.7-0.1-1.2-0.2c0,0.5,0,0.9-0.1,1.4   c0.5-0.1,0.9-0.1,1.2-0.2c-0.8,2.3-0.5,4.6-0.6,7c-0.2,0-0.4-0.1-0.6-0.1c-0.7-0.8-1.6-1.5-2.4-2.2c0.1-0.7,0-1.4-0.8-1.7   C367.1,336.1,367.8,330.7,370.1,325.8z" />
	<path display="inline" fill="#F1F4F4" d="M322.3,372.9c-0.3,1.3-1.5,2.1-2.3,3c-6.1,1.7-17.2-3.3-11.8-10.5   c0.2,0.3,0.5,0.6,0.7,0.9C309.5,373.2,316.9,375,322.3,372.9z" />
	<path display="inline" fill="#EAD2C7" d="M317.8,381.2c0.9-1.3,0.9-1.4-0.8-2.4c0-0.2,0-0.4,0-0.6c2.7,0.3,4.6-1.1,6.4-3   c0.3,5.4-5.9,9.3-7.9,14.3c0.1,0.2,0,0.4-0.2,0.6c-0.3,0-0.6-0.1-1-0.1c-0.1-1.7-0.1-1.7-1.7-4c0.4-0.4,0.8-0.9,1.2-1.3   C316.3,384.7,317.1,383,317.8,381.2z" />
	<path display="inline" fill="#EDD5CA" d="M294.5,390.1c-0.6-1-0.8-2.1-0.8-3.2c1.1-1.4,1.7-3.3,3.3-4c2.4,2.2,4.1,5.1,7.2,6.5   c-0.3,0.3-0.6,0.6-1,0.9c-2-0.2-3.8-2-5.9-1.3c-0.5,0.8,0,1.8-1.1,2.2c-0.2,0.1-0.1,1.1-0.1,1.7C294.5,392.9,296,390.6,294.5,390.1   z" />
	<path display="inline" fill="#201818" d="M308.1,365.4c-5.4,7.2,5.8,12.2,11.8,10.5c-1.9,1.7-4.6-0.1-6.7,1.3   c-2.8,0.1-4.5-2.7-6.8-3.1c-0.1,0.4-0.1,0.7-0.2,1.1c-0.4-0.8-0.8-1.6-1.3-2.3c-0.2-4.1,0.3-7.6,3.8-10.4   C308.9,363.6,308.4,364.5,308.1,365.4z" />
	<path display="inline" fill="#CFC4BF" d="M303.3,390.3c0.3-0.3,0.6-0.6,1-0.9c3.4,0.8,6.8,2.4,10.2,0.6c0.3,0,0.6,0.1,1,0.1   c-0.7,2.3-1.4,4.6-2.1,6.9c-0.3-0.8,0.2-2-0.9-2.5c0.3-0.6,0.5-1.2,0.9-2C309.6,392.4,306.3,392.1,303.3,390.3z" />
	<path display="inline" fill="#161B34" d="M373.1,294.4c-3.8,3.4-9.6,7.1-9.1,12.7c-1.4-0.9-0.1-2.5-1.1-3.5c-0.3,0-0.6-0.1-1-0.2   c3.7-3.3,6.6-7.3,10.3-10.5C372.8,293.4,373.5,293.6,373.1,294.4z" />
	<path display="inline" fill="#A59085" d="M356.7,345.3c-0.7-3.4-4.2-1.6-3.6-7.3c1.9,2.3,3.5,4.4,4.9,6.6c-0.2,0.3-0.3,0.6-0.6,0.8   C357.2,345.3,356.9,345.3,356.7,345.3z" />
	<path display="inline" fill="#6F615B" d="M378.2,295.9c-0.4,0-0.7,0-1.1,0c-0.3-1.5-2-3.3-0.5-4.5c0.4,0.4,0.9,0.8,1.5,1.4   C378.2,293.7,378.2,294.8,378.2,295.9z" />
	<path display="inline" fill="#827973" d="M311,376.7c2.1,0.4,4.1,1,6.1,1.6c0,0.2,0,0.4,0,0.6c-2.2,0.2-4.2-0.2-6-1.4   C311,377.2,311,377,311,376.7z" />
	<path display="inline" fill="#CCB3A5" d="M367,342.9c0.5,0.4,1,0.9,1.6,1.3c-1.1,0.7-1.1,0.8,0,1.8c-0.1,1-0.8,0.8-1.4,0.7   C366.9,345.4,366.1,344.1,367,342.9z" />
	<path display="inline" fill="#574C47" d="M367.1,346.7c0.6,0.1,1.3,0.3,1.4-0.7c0.3-0.3,0.6-0.6,0.9-0.9c0.2,0,0.4,0.1,0.6,0.1   c-0.2,0.7-0.5,1.5-0.7,2.2C368.1,348,367.3,348.7,367.1,346.7z" />
	<path display="inline" fill="#F1D7CC" d="M308.1,365.4c0.2-0.7,0.4-1.4,0.6-2.1c0.3,0.1,0.7,0.1,1.3,0.2c-0.4,1-0.8,1.9-1.2,2.8   C308.6,366,308.4,365.7,308.1,365.4z" />
	<path display="inline" fill="#CFC4BF" d="M313.2,404.3c-1.1-1.2-1-2.5,0-3.7C313.2,401.8,313.2,403.1,313.2,404.3z" />
	<path display="inline" fill="#CBB3A5" d="M356.7,345.3c0.2,0,0.5,0,0.7,0.1c-1.4,1-1.7,1-3,0C355.1,345.3,355.9,345.3,356.7,345.3z   " />
	<path display="inline" fill="#2B3970" d="M364.1,346.8c0.3-0.3,0.6-0.6,1-0.9c0.8,0.6,0.6,1.5,0.5,2.4l0,0   C365.1,347.8,364.6,347.3,364.1,346.8z" />
	<path display="inline" fill="#574C47" d="M370.9,348.2c-0.3,0.3-0.5,0.5-0.8,0.8c-0.2,0-0.5,0-0.7,0.1c0-0.5,0-1,0-1.6   C370,347.5,370.6,347.5,370.9,348.2z" />
	<path display="inline" fill="#CBB3A5" d="M357.4,348.2c0.5-1,1.4-0.8,2.2-0.7C359.1,348.5,358.2,348.3,357.4,348.2z" />
	<path display="inline" fill="#9EAFAF" d="M322.3,372.9c-0.3,0-0.6-0.1-0.9-0.1c0.4-0.4,0.7-0.9,1.3-0.4   C322.5,372.6,322.4,372.8,322.3,372.9z" />
	<path display="inline" fill="#BAA497" d="M312.4,358c-0.3,0-0.5,0-0.8-0.1c0.4-0.3,0.8-0.7,1.2-0.2   C312.7,357.8,312.6,357.9,312.4,358z" />
	<path display="inline" fill="#CBB3A5" d="M355.1,348.9c0.4-0.7,1-0.7,1.7-0.5C356.2,348.5,355.7,348.7,355.1,348.9z" />
	<path display="inline" fill="#BAA497" d="M310.9,360.8c0-0.6,0.1-1.2,0.9-1.3C311.8,360.2,311.6,360.7,310.9,360.8z" />
	<path display="inline" fill="#BAA497" d="M309.5,361.7c0.2-0.7,0.7-0.8,1.3-0.8C310.7,361.6,310.2,361.8,309.5,361.7z" />
	<path display="inline" fill="#BAA497" d="M311,358.1c-0.3,0.2-0.5,0.4-0.8,0.6C310.5,358.5,310.8,358.3,311,358.1z" />
	<path display="inline" fill="#BAA497" d="M310.2,358.7c-0.3,0.2-0.5,0.5-0.8,0.7C309.7,359.2,310,359,310.2,358.7z" />
	<path display="inline" fill="#CBB3A5" d="M359.6,347.5c0-0.3,0-0.5,0-0.8c0.2,0.2,0.3,0.4,0.5,0.6   C360,347.4,359.8,347.4,359.6,347.5z" />
	<path display="inline" fill="#CBB3A5" d="M359.7,346.7c-0.2-0.3-0.5-0.5-0.7-0.8C359.2,346.2,359.4,346.5,359.7,346.7z" />
	<path display="inline" fill="#9EAFAF" d="M320.8,373.1c-0.3,0.2-0.6,0.3-0.9,0.5C320.2,373.4,320.5,373.2,320.8,373.1z" />
	<path display="inline" fill="#CBB3A5" d="M358.9,345.9c-0.2-0.3-0.5-0.5-0.7-0.8C358.5,345.4,358.7,345.7,358.9,345.9z" />
	<path display="inline" fill="#CBB3A5" d="M357.5,345.3c0.2-0.3,0.3-0.5,0.5-0.8c0.2,0.1,0.3,0.3,0.2,0.6   C358,345.2,357.7,345.3,357.5,345.3z" />
	<path display="inline" fill="#CFC4BF" d="M315.6,389.6c0.2-0.3,0.3-0.6,0.5-0.9C315.9,388.9,315.7,389.3,315.6,389.6z" />
	<path display="inline" fill="#9EAFAF" d="M321.5,374.4c0.2-0.2,0.4-0.5,0.6-0.7C321.8,373.9,321.7,374.1,321.5,374.4z" />
	<path display="inline" fill="#BAA497" d="M308.7,362.3c0.3-0.2,0.5-0.4,0.8-0.6C309.2,361.9,309,362.1,308.7,362.3z" />
	<path display="inline" fill="#BAA497" d="M308,360.4c-0.2,0.2-0.5,0.3-0.7,0.5C307.5,360.8,307.8,360.6,308,360.4z" />
	<path display="inline" fill="#BAA497" d="M309.5,359.4c-0.3,0.2-0.6,0.4-0.9,0.7C308.9,359.9,309.2,359.7,309.5,359.4z" />
	<path display="inline" fill="#574C47" d="M369.4,352c0.2,0.3,0.5,0.5,0.7,0.8C369.5,352.7,369.3,352.5,369.4,352z" />
	<path display="inline" fill="#BAA497" d="M311.8,359.5c0.2-0.3,0.4-0.6,0.6-0.8C312.2,359,312,359.2,311.8,359.5z" />
	<polygon display="inline" fill="#4B504C" points="324.3,371.1 324,371.2 324,370.9  " />
	<path display="inline" fill="#2B3970" d="M365.6,348.3c0.2,0.1,0.3,0.2,0.5,0.3C365.6,349,365.7,348.4,365.6,348.3L365.6,348.3z" />
	<path display="inline" fill="#CAB4A8" d="M391.9,230.3c-0.2-0.3-0.5-0.6-0.7-0.9c1.2-1.7,1.8-4.1,3.6-5.2c0.3,0.2,0.6,0.5,0.8,0.7   C394.3,226.7,393.1,228.5,391.9,230.3z" />
	<path display="inline" fill="#23263F" d="M514.4,357.2c-2.5-3-4.1-6.7-7.4-9.1c0-0.2,0-0.4-0.1-0.6c0.3,0,0.5,0,0.8,0   c2.6,1.7,4.4,4.1,6.3,6.6c0.4-0.6,0.7-1.1,1.1-1.5C515.7,354.3,514.6,355.7,514.4,357.2z" />
	<path display="inline" fill="#35282B" d="M491.8,595.6c-4.7-1.4-9.1,0.7-14.3,0.3c0.6-0.8,0.9-1.2,1.2-1.6   c4.8-0.1,9.6-1.2,14.6-0.7C493.7,594.8,493.3,596.1,491.8,595.6z" />
	<path display="inline" fill="#374372" d="M501.1,328.7c0.9,0.6,1.9,1.1,2.8,1.7l0,0c0.1,0.2,0.2,0.5,0.2,0.7l-0.3,0.1   c-0.2,0.3-0.4,0.5-0.7,0.8c-1.1-0.7-2-1.6-2.3-2.9C500.9,328.9,501,328.8,501.1,328.7z" />
	<path display="inline" fill="#CCCBCB" d="M513.5,341.5c0.3,0,0.5,0,0.8,0c0,0.2-0.1,0.4-0.1,0.6C514,341.9,513.8,341.7,513.5,341.5   z" />
	<path display="inline" fill="#0D0D0F" d="M390.2,355.9c0.2-0.6,0.5-1.1,0.7-1.7c0.5,2.4,1.5,4.2,4.4,4.3c0.7-4.7,1.6-10-0.2-14.6   c-0.9-1.7-0.7-3.7-0.1-5.5c1.6-5.8-2-11.6-4.5-16.8c-3.5-1.2-1.4-8.3-1.1-11.3c0.2,1.9,0.2,3.9,0.2,5.8c2-2.4,0.7-6,2.8-8.4   c0.2,0,0.5,0,0.7,0c-0.1,3.3-0.3,6.6-0.4,10.1c5.3,1.1,11-0.3,16.3,1c-5.6-0.2-10.4,0.6-15.7,0.8c1.8,5.6,3.4,11.1,4.2,16.5   c-1.2,1-0.5,1.9,0,2.9c-2.4,3.1,1.2,7.6,0.1,11.4c-0.7,3-0.2,5.5-0.2,8.5C395,362.5,389.4,360.1,390.2,355.9z" />
	<path display="inline" fill="#201917" d="M391.9,230.3c2.2-3.2,4.8-8.4,9.5-7.2c-4.7,2.7-6,7.3-9.5,11.3   C391.9,233,391.9,231.6,391.9,230.3z" />
	<path display="inline" fill="#191312" d="M488.8,231.6c0-3.3,2.7-4.4,4.2-6.6C495.1,228,491.8,231.4,488.8,231.6z" />
	<path display="inline" fill="#342422" d="M463.6,237c3.3-0.7,7-0.6,9.9-2.7c0.1-0.1,0.6,0.2,0.9,0.4   C473.6,237.1,467.4,238.9,463.6,237z" />
	<path display="inline" fill="#382C2A" d="M516.7,208.3c-2.3-0.1-4.1-1.9-6.5-1c-0.6-0.8-1.1-1.5-1.6-2.2c2.6-0.9,6,0.8,8,2.6   C516.7,208,516.7,208.2,516.7,208.3z" />
	<path display="inline" fill="#8D7E78" d="M373.7,339c-0.7-3.1-1.8-5.9,1-8.4C374.1,333.9,375.1,336.6,373.7,339z" />
	<path display="inline" fill="#352726" d="M503.8,201.9c-1.5-1.2-3-2.3-4.6-3.5c1.9-1.1,2.8-0.6,5.5,2.6   C504.5,201.3,504.1,201.6,503.8,201.9z" />
	<path display="inline" fill="#4F413E" d="M474.8,209.4c2.7,0.6,5.3,1.6,7.7,3.4c-2.6,1.1-5.8-2.1-8.6-2.8   C474.2,209.8,474.5,209.6,474.8,209.4z" />
	<path display="inline" fill="#1E0B0B" d="M428,231.4c-2.3,1.3-4,0.7-5.8,0.1C424.5,230.2,424.5,230.2,428,231.4z" />
	<path display="inline" fill="#37312F" d="M379.5,338.7c1.4,2.7-1.2,4.4-0.4,7.4C375.7,343.8,378.6,341.6,379.5,338.7z" />
	<path display="inline" fill="#574A47" d="M402,262.6c0-2,0.4-3.9,2.5-5.4C404.4,259.6,403.4,261.2,402,262.6z" />
	<path display="inline" fill="#75706B" d="M463.6,237c0.9,0.6,2,0.7,3,0.7c-2.2,1.4-5.1,0.4-7.5,0.5c0-0.2-0.1-0.4,0-0.6   C460.6,237.5,462.1,237.2,463.6,237z" />
	<path display="inline" fill="#2F2220" d="M516.7,208.3c0-0.2,0-0.3,0-0.5c1.8-0.4,4.3,0.1,3.7,2.5   C519.1,210.5,517.9,208.8,516.7,208.3z" />
	<path display="inline" fill="#3F2D2B" d="M454.6,199.5c1-0.8,2-1.8,3.6-1.2c-0.4,1.4-1.5,1.9-2.6,2.1   C455.2,200.1,454.9,199.8,454.6,199.5z" />
	<path display="inline" fill="#3C3330" d="M403.3,221c1.4-2.4,1.4-2.4,3.6-1.5C405.9,220.7,405,221.5,403.3,221z" />
	<path display="inline" fill="#563E3B" d="M380.4,350.6c-1.1,1.9-3.3-0.2-4.4-1.3C378.1,348.6,379,350.3,380.4,350.6z" />
	<path display="inline" fill="#2D2725" d="M411.8,228.8c-1-0.4-2.1-0.9-2.5-2.2c1.7-0.9,2.4,0.6,3.4,1.3   C412.4,228.2,412.1,228.5,411.8,228.8z" />
	<path display="inline" fill="#947873" d="M472.6,209.8c-1.5-0.5-3-0.9-4.5-1.4c0.2-0.3,0.5-0.5,0.7-0.8c1.5,0.6,3.2,0.5,4.6,1.5   C473.1,209.3,472.9,209.6,472.6,209.8z" />
	<path display="inline" fill="#5C3F3C" d="M417,231.1c1.7-1.7,2.6-0.4,4,0.1C419.1,231.8,419.1,231.8,417,231.1z" />
	<path display="inline" fill="#1C1B19" d="M492.3,223.8c-0.5-1.4-0.9-2.2-1.2-3.2C493.2,220.6,493.4,221,492.3,223.8z" />
	<path display="inline" fill="#767973" d="M461.3,207c-1.4,0-2.7,0-4.1,0c-0.1-2.4,2.7-0.7,4-0.7C461.4,206.5,461.4,206.7,461.3,207   z" />
	<path display="inline" fill="#817670" d="M503.8,201.9c0.3-0.3,0.6-0.6,0.9-0.9c0.8,1,1.5,2.1,2.4,3.3   C505.6,203.8,505.6,203.8,503.8,201.9z" />
	<path display="inline" fill="#6A635E" d="M392.9,284.5c-0.8-1.4-0.2-2.4,0.9-3.6C394.2,282.5,394.5,283.7,392.9,284.5z" />
	<path display="inline" fill="#1D1D1B" d="M404.6,251.8c1.2,1.5,1.2,1.5,0.1,3.6C404.4,254,403.8,253,404.6,251.8z" />
	<path display="inline" fill="#45403D" d="M393.7,274.5c0.8,1.1,1.1,2.1,0,3.5C393.2,276.6,393,275.7,393.7,274.5z" />
	<path display="inline" fill="#655450" d="M411.8,228.8c0.3-0.3,0.6-0.6,0.9-0.9c0.9,0.6,1.8,1.2,3,2.1   C414,230.1,412.8,229.7,411.8,228.8z" />
	<path display="inline" fill="#7B6964" d="M504,230.7c0,0.3,0,0.6,0,0.9c-0.9-0.5-2.1-0.7-2.8-1.9C502.5,229,503.2,230.2,504,230.7z   " />
	<path display="inline" fill="#CEB3AA" d="M468.8,207.6c-0.2,0.3-0.5,0.5-0.7,0.8c-0.9-0.7-2.4-0.3-3-1.5l0,0   C466.3,207.1,467.8,206.4,468.8,207.6z" />
	<path display="inline" fill="#5F524E" d="M446.5,204.7c0.8-0.4,1.6-0.8,2.4-1.3C449.3,204.6,448.9,204.8,446.5,204.7z" />
	<path display="inline" fill="#B7A9A2" d="M459.1,237.7c0,0.2,0,0.4,0,0.6c-1.3,0-2.7,0-4.8,0C456.4,237.3,457.8,237.7,459.1,237.7z   " />
	<path display="inline" fill="#663E3A" d="M449.2,235.4c-1.2,1.2-2.2,0.9-3.3-0.3c0.5-0.2,0.8-0.3,1.2-0.4l0,0   C447.8,234.9,448.5,235.4,449.2,235.4z" />
	<path display="inline" fill="#50433F" d="M437.2,233.2c0.1-0.4,0.2-0.9,0.5-2.1c0.5,1.6,0.8,2.5,1.1,3.3c-0.2,0-0.3,0.1-0.5,0.2   c-0.3-0.2-0.6-0.4-0.9-0.7C437.3,233.6,437.3,233.4,437.2,233.2z" />
	<path display="inline" fill="#765F5A" d="M435.6,224.1c0.1,0.7,0.2,1.2,0.3,1.8C434.4,225.3,434.3,225.3,435.6,224.1z" />
	<path display="inline" fill="#CEB3AA" d="M461.3,207c0-0.2,0-0.5-0.1-0.7c1.3,0,2.7-0.3,3.8,0.7l0,0C463.8,207,462.6,207,461.3,207   z" />
	<path display="inline" fill="#776A65" d="M392.2,340c-0.6-0.9-0.3-1.3,0.6-1.4C393.5,339.4,393,339.8,392.2,340z" />
	<path display="inline" fill="#524340" d="M392.3,343c-0.6,0.3-1,0.5-1.4,0.7C390,342.6,391.3,341.7,392.3,343z" />
	<path display="inline" fill="#4E3F3B" d="M370.7,338.3c-0.3,0.1-0.7,0.1-1.2,0.2c0-0.5,0-0.9,0.1-1.4c0.5,0.1,0.8,0.1,1.2,0.2   C370.7,337.6,370.7,337.9,370.7,338.3z" />
	<path display="inline" fill="#5F5450" d="M454.6,199.5c0.3,0.3,0.7,0.6,1,0.9c-0.7,0.6-1.4,1-2.4,0.2   C453.7,200.2,454.1,199.8,454.6,199.5z" />
	<path display="inline" fill="#352D2C" d="M379.1,334.2c0.6-0.9,0.8-1.3,1.1-1.9C380.7,333.3,380.9,333.9,379.1,334.2z" />
	<path display="inline" fill="#5A4743" d="M372.8,343.8c-1-0.6-0.5-1.2-0.2-2C373.4,342.5,373.4,343.1,372.8,343.8z" />
	<path display="inline" fill="#533533" d="M472.6,209.8c0.3-0.2,0.5-0.5,0.8-0.7c0.5,0.1,0.9,0.2,1.4,0.3c-0.3,0.2-0.6,0.4-0.9,0.6   C473.5,210,473,209.9,472.6,209.8z" />
	<path display="inline" fill="#7A746E" d="M394.2,271.5c0-0.5,0-1.1,0-1.6c0.1,0,0.3,0,0.4,0c0,0.5,0,1.1,0,1.6   C394.5,271.5,394.3,271.5,394.2,271.5z" />
	<path display="inline" fill="#EDCABA" d="M439.7,238.2c0.3,0.5,0.5,1.1,0.8,1.6c-0.3,0-0.6,0-0.9,0.1   C439.7,239.3,439.7,238.8,439.7,238.2z" />
	<path display="inline" fill="#EDCABA" d="M448.6,235.3c-0.5-0.2-1-0.4-1.5-0.6C447.7,234.6,448.3,234.6,448.6,235.3z" />
	<path display="inline" fill="#2F2B2A" d="M381,328c0.2,0.7,0.2,1,0.3,1.3c-0.2,0-0.4,0-0.5,0C380.8,329,380.8,328.7,381,328z" />
	<path display="inline" fill="#C3ACA4" d="M388.5,306.8c-0.3-0.3-0.4-0.5,0-0.8C388.8,306.2,388.6,306.5,388.5,306.8z" />
	<path display="inline" fill="#EDCABA" d="M437.4,233.9c0.3,0.2,0.6,0.4,0.9,0.7C438,234.3,437.7,234.1,437.4,233.9z" />
	<path display="inline" fill="#270E0D" d="M430.4,231c0.1,0.1,0.2,0.2,0.3,0.3c-0.3,0.1-0.5,0.4-0.7,0   C430.1,231.2,430.2,231.1,430.4,231z" />
	<path display="inline" fill="#050404" d="M461.2,198.7c0,0.2-0.1,0.4-0.1,0.6c-0.1,0-0.2-0.1-0.3-0.1   C461,199,461.2,198.9,461.2,198.7L461.2,198.7z" />
	<path display="inline" fill="#181413" d="M588.5,309.3c-2.8-1.8-4.8-4-5.7-7C584.6,298.1,590.4,307.2,588.5,309.3z" />
	<path display="inline" fill="#1C1413" d="M545,407.9c-0.5-0.4-1-0.8-1.9-1.5c3.4-2,6.1-3.6,9.4-5.1c0.3,0.3,0.5,0.5,0.8,0.8   c-2.7,2.1-5.4,4.1-7.5,6.8C545.6,408.5,545.3,408.2,545,407.9z" />
	<path display="inline" fill="#E7C1B3" d="M540.6,523.2c-0.8,0.9-1.7,1.8-2.6,2.8c-1.8-0.1-3.8,1-5.5-0.6c0.2-0.7,0.3-1.4,0.5-2.1   C535.5,524.7,537.8,523,540.6,523.2z" />
	<path display="inline" fill="#392F2D" d="M587.8,318.3c-0.3,0.4-0.6,0.8-0.9,1.2c-2.1-2-0.3-6.1,0.4-8.5   C590,311.6,588.6,315.8,587.8,318.3c-0.1-0.8-0.1-1.8-0.1-2.7C587.1,316.6,586.2,317.6,587.8,318.3z" />
	<path display="inline" fill="#201C1B" d="M597.4,298.3c-1.4,4-2.5,4.8-6.3,5.5c-0.2-0.3-0.4-0.6-0.6-0.9   C592.1,300.7,594.7,300.3,597.4,298.3z" />
	<path display="inline" fill="#3A3331" d="M570.9,371.4c-1.6-3.3-0.3-7.1-0.6-10.6C573.4,359.7,571.7,369.9,570.9,371.4z" />
	<path display="inline" fill="#AB9A92" d="M587.7,325c0,1.1,0,2.1,0,2.9c-1.1,1.4-2,2.6-3,3.8l0,0c0.1-3,0-6.3,1.4-9   c0,1.1,0.1,2.3,0.2,3.7C586.9,325.8,587.3,325.4,587.7,325z" />
	<path display="inline" fill="#24211F" d="M534.5,509.5c0.6-1.6,1.2-3.1,1.8-4.7c1.9,1.5,0.3,5-1.8,5.5   C534.6,510.1,534.6,509.8,534.5,509.5z" />
	<path display="inline" fill="#483D39" d="M545,407.9c0.3,0.3,0.6,0.6,0.9,0.9c-0.7,1.7-2.4,2.6-3.7,3.8c-0.3,0-0.7-0.1-1-0.1   C542.4,411,543.7,409.4,545,407.9z" />
	<path display="inline" fill="#493C39" d="M569.9,377.6c0-1.9-0.3-3.6,1.7-4.7C572.3,375.4,572.2,375.9,569.9,377.6z" />
	<path display="inline" fill="#3D3431" d="M587.7,325c-0.4,0.4-0.8,0.8-1.4,1.4c-0.1-1.4-0.1-2.5-0.2-3.7c0.4-0.6,0.7-1.2,1.1-1.8   C588.5,322,587.5,323.7,587.7,325z" />
	<path display="inline" fill="#493331" d="M556,403.5c-1.3,2-2.7,3.6-4.5,2.9C552.6,404.7,552.6,404.7,556,403.5z" />
	<path display="inline" fill="#352926" d="M534.5,509.5c-0.2,1.8,1.5,5.5-1.2,5.8C532.2,513.4,534.4,511.6,534.5,509.5z" />
	<path display="inline" fill="#1D1615" d="M531.6,521.2c0.8-1.4,1.3-2.5,1.9-3.6C534.4,520.5,534.1,521.2,531.6,521.2z" />
	<path display="inline" fill="#251B1A" d="M541.9,517.1c0.9,2.1,0.1,4-2.3,3.4C540.5,519.2,541.2,518.2,541.9,517.1z" />
	<path display="inline" fill="#8B7B74" d="M584.1,335.6c-0.6,1.2-1.1,2.3-1.7,3.5c-1.1-1,0.3-1.6,0.2-2.4c-0.1-0.6,0.4-1.3,0.7-2   C583.5,335.1,583.8,335.3,584.1,335.6z" />
	<path display="inline" fill="#807570" d="M557.5,439c-0.1-1.3,0.7-2.1,1.7-3.2C559.7,437.7,558.5,438.3,557.5,439z" />
	<path display="inline" fill="#050505" d="M587.1,347.3c-0.5,1-1.1,1.9-1.6,2.9C585.1,348.8,585.5,347.7,587.1,347.3z" />
	<path display="inline" fill="#5D504C" d="M562.9,428.5c0.5,1.4-0.4,2-1.2,3C561.4,429.6,561.4,429.6,562.9,428.5z" />
	<path display="inline" fill="#978881" d="M549.3,478.9c-1-1.2-1-1.2-1-3C549.5,477.3,549.5,477.3,549.3,478.9z" />
	<path display="inline" fill="#70534F" d="M560.9,396.9c-0.5,0.8-1.1,1.2-2.3,1c0.1-1.4,1.3-1.6,2.2-2   C560.8,396.2,560.8,396.6,560.9,396.9z" />
	<path display="inline" fill="#634E4A" d="M553.3,402.1c-0.3-0.3-0.5-0.5-0.8-0.8c1-0.6,1.9-1.1,2.9-1.7c0.1,0.2,0.2,0.3,0.3,0.4   C555,400.7,554.2,401.4,553.3,402.1z" />
	<path display="inline" fill="#785C58" d="M572.6,347.4c0.8,0.4,1.5,0.8,2.4,1.3C572.7,349.1,572.7,349.1,572.6,347.4z" />
	<path display="inline" fill="#AD9288" d="M567.6,344.5c1.4,0,2.2,0.7,2.1,2.1C568.7,346.3,567.9,345.6,567.6,344.5z" />
	<path display="inline" fill="#85736D" d="M543.6,514c-0.3,0.5-0.6,1.1-1,1.7c-0.9-1.2-0.5-1.7,0.3-2.1   C543.1,513.7,543.4,513.9,543.6,514z" />
	<path display="inline" fill="#AB9A92" d="M584.1,335.6c-0.3-0.3-0.6-0.6-0.9-0.9c0.1-0.6,0.1-1.2,0.8-1.4l0,0   C584.3,334.1,585.3,334.8,584.1,335.6z" />
	<path display="inline" fill="#755E5A" d="M555.4,399.6c0.6-0.5,1.2-1,2-1.5c0.2,1.6-0.8,1.6-1.6,1.9   C555.6,399.9,555.5,399.8,555.4,399.6z" />
	<path display="inline" fill="#998C85" d="M560.9,396.9c0-0.3,0-0.7-0.1-1c0.3-0.2,0.6-0.4,1-0.7   C562.1,396.3,561.4,396.6,560.9,396.9z" />
	<path display="inline" fill="#3B302E" d="M548,515c0,0.8,0,1.4,0,2.7C547.1,516.4,547,515.8,548,515z" />
	<path display="inline" fill="#5F5B57" d="M566.7,392.8c-0.4,0.2-0.8,0.4-1.2,0.6c-0.5-0.9,0.4-0.8,1-1.1   C566.5,392.4,566.6,392.6,566.7,392.8z" />
	<path display="inline" fill="#AB9A92" d="M584,333.3c0-0.6-0.1-1.3,0.7-1.5l0,0C584.7,332.4,584.7,333,584,333.3L584,333.3z" />
	<path display="inline" fill="#4B65C5" d="M459.8,341.6c8.8,7.9,18.3,17.6,23.1,28.2c-10.2-4.6-15.8-16.2-24.5-23   c0.1,3.9-0.7,6.9,1.5,10c0.4,0.7,0.9,1.2,0.6,2c-1.7-1.7-3.5-3.4-5.2-5.1c-0.2-5,0.6-9.7-0.7-14.3c0.2-0.1,0.5-0.2,0.7-0.3   c3.2,3.4,6,6.9,9.7,9.8c0.5,1.7,2.8,4.5,4.6,4.7c-1.5-2.8-4.1-3.9-6-6.2C463.4,344.9,460.1,344.2,459.8,341.6z" />
	<path display="inline" fill="#4C67C8" d="M437.5,301.1c-1.2,0.4,0,1.1-0.2,1.7c-7-2.2-12.9-7.3-20.4-7.2   c10.8,4.1,21.6,9.2,30.2,16.8c-11.3-6.2-23.5-11.7-34.3-18.6c2.8-2.8,7.3,2.9,10.3,0.9C428.1,296.3,432.7,298.9,437.5,301.1z" />
	<path display="inline" fill="#09080D" d="M397.8,319.7c8.4-1.5,32.4-1.7,38.3,4.7C424.1,321.8,410.5,321,397.8,319.7z" />
	<path display="inline" fill="#09080E" d="M447.2,312.4c-7.1-6.6-16.6-10.9-25.4-15c0.2-0.3,0.4-0.5,0.7-0.8c4.9,2.1,9.9,4,14.8,6.2   l0,0c2.9,2.9,14.5,7.3,12.1,11.8C448.6,313.8,447.9,313.1,447.2,312.4z" />
	<path display="inline" fill="#4B66C6" d="M470.6,328.8c-4.2-2.4-12.2-5.5-11.1-11c0.8,0,1.8-0.1,2.6-0.1   C466.1,320.5,468.8,324.1,470.6,328.8z" />
	<path display="inline" fill="#4C67C8" d="M449.4,314.6c2.4-4.5-9.1-8.9-12.1-11.8c4.3,1.4,17.3,7.1,18,11.5   C453.3,314.2,450.6,315.8,449.4,314.6z" />
	<path display="inline" fill="#09080F" d="M422.6,288.3c-4-2.1-7.9-4.1-11.9-6.2c7.6-0.1,14.6,5,20.8,9.2c-0.2,0.4-0.6,0.7-0.9,1   C427.9,291,425.3,289.7,422.6,288.3z" />
	<path display="inline" fill="#1A1F38" d="M454.7,340c1.3,4.4,0.3,9,0.6,13.7c1.7,1.6,3.4,3.3,5.2,5.1l0,0c0.4,1.7,1.7,2.8,3.1,3.7   c0,0.2,0.1,0.4,0.1,0.6c-0.3,0.3-0.5,0.6-0.8,0.8c-2.4-2.8-5.1-5.3-7.5-8.9c-0.5,1.7-0.8,2.5-1.1,3.6c-1-2.8,0.4-5.5-1-8.1   c2.8-2.8,0.5-7.1,0.8-10.5C454.2,340,454.4,340,454.7,340z" />
	<path display="inline" fill="#191725" d="M437.5,301.1c-6.6-3.3-13.4-6.1-20.2-9c0.3-0.3,0.5-0.5,0.8-0.8   c7.1,2.8,14.1,5.5,20.8,9.1c-0.3,0.3-0.5,0.5-0.8,0.8C437.9,301.1,437.7,301.1,437.5,301.1z" />
	<path display="inline" fill="#10101E" d="M429.3,316c6.2,0.3,12.2,0.9,18.5,1c-9.7,1.8-20.5-0.3-30.6-1   C420.8,313.7,425.4,316.7,429.3,316z" />
	<path display="inline" fill="#252947" d="M462.9,363.9c0.3-0.3,0.5-0.6,0.8-0.8c4.7,5.5,10.2,10.3,14.9,15.8   C472.3,375.6,467.7,369.2,462.9,363.9z" />
	<path display="inline" fill="#4864C2" d="M507,348.1c2.8,2.3,4.9,5.2,6.6,8.4C509.8,356.6,507.9,351.3,507,348.1z" />
	<path display="inline" fill="#2E355A" d="M397.7,339.2c-0.5-1-1.2-1.9,0-2.9c0.1,0.5,0.3,0.9,0.4,1.4c3.9,0.8,7.6-2.5,11.1-0.5   C405.6,338.6,401.4,338.4,397.7,339.2z" />
	<path display="inline" fill="#272D4C" d="M448.6,322.2c-1.6-1.1,1.9-2.2,1.5-3.8c1.5-0.7,2.1-2.6,4.4-3   C452.7,318.3,450.9,320,448.6,322.2z" />
	<path display="inline" fill="#28335C" d="M459.8,341.6c0.3,2.6,3.7,3.3,3.8,5.9c0,0-0.1,0.1-0.1,0.1c-2.4-1.6-4.3-3.7-5.9-6.1   c0.3-0.3,0.5-0.6,0.8-0.8C458.9,341,459.3,341.3,459.8,341.6z" />
	<path display="inline" fill="#101425" d="M443.6,316.8c-2.5-0.2-5.4,0.8-7.7-0.5C438.5,316.2,441.1,315.8,443.6,316.8z" />
	<path display="inline" fill="#4B65C4" d="M432.9,331.7c-2,0.3-4,0.6-6,0.9c1.7-1.7,3.8-1.5,6-1.6l0,0   C432.9,331.3,432.9,331.5,432.9,331.7z" />
	<path display="inline" fill="#374372" d="M499.3,327.5c-1.9-0.6-3-2.1-4.6-3.8c2.5,0.9,2.5,0.9,4.8,3.6L499.3,327.5z" />
	<path display="inline" fill="#1A1E34" d="M458.4,340.7c-0.3,0.3-0.5,0.6-0.8,0.8c-0.8-0.8-1.5-1.5-2.3-2.3c0-0.4,0-0.9,0-1.3   C456.6,338.6,457.9,339.2,458.4,340.7z" />
	<path display="inline" fill="#35416C" d="M460.6,331.1c0.8,1,1.5,2,2.3,3c-1.8-0.1-2.5-1.6-4-2.8   C459.7,331.2,460.1,331.1,460.6,331.1z" />
	<path display="inline" fill="#101425" d="M444.7,317.7c1-0.3,2.3,0.5,3.2-0.7c0.5,0.2,1,0.4,1.5,0.6   C447.7,318.5,446.9,318.5,444.7,317.7z" />
	<path display="inline" fill="#4B65C5" d="M463.5,362.5c-1.4-0.9-2.6-2-3.1-3.7C462.1,359.6,463.4,360.6,463.5,362.5z" />
	<path display="inline" fill="#5569B2" d="M510,367c0.5,0.7,1,1.5,1.6,2.4C509.7,369.6,510.1,368,510,367z" />
	<path display="inline" fill="#4B65C5" d="M478.5,349c1.1,0.4,1.6,1.3,2.4,2.3C479.3,351.1,479.3,351.1,478.5,349L478.5,349z" />
	<path display="inline" fill="#4F609F" d="M504.7,345.3c-1.4,0-2.1-0.9-3-2.2C503.5,343.3,504.2,344.2,504.7,345.3L504.7,345.3z" />
	<path display="inline" fill="#4B65C4" d="M437.4,330.3c0,0.2,0,0.4,0,0.6c-1.5,0.2-3,0.2-4.5,0.1l0,0   C434.1,329.9,435.8,330.4,437.4,330.3z" />
	<path display="inline" fill="#283358" d="M430.5,292.3c0.3-0.3,0.6-0.6,0.9-0.9c0.9,0.3,1.3,0.9,1.5,1.9   C431.7,293.8,431.1,293.1,430.5,292.3z" />
	<path display="inline" fill="#383D5F" d="M418.1,291.3c-0.3,0.3-0.5,0.5-0.8,0.8c-0.9,0.1-1.7,0-1.9-1.1   C416.4,290.5,417.3,290.5,418.1,291.3z" />
	<path display="inline" fill="#4C5A96" d="M507.7,347.5c-0.3,0-0.5,0-0.8,0c-0.8-0.7-1.5-1.5-2.3-2.2l0.1-0.1   C506.2,345.3,507.1,346.3,507.7,347.5z" />
	<path display="inline" fill="#150B10" d="M409.1,337.1c-0.5-0.2-1-0.5-1.5-0.7c1.3-0.2,2.5-0.2,3.6,0.5   C410.5,337,409.8,337.1,409.1,337.1z" />
	<path display="inline" fill="#4C67C8" d="M438.1,301.2c0.3-0.3,0.5-0.5,0.8-0.8C440,301.4,438.8,302.5,438.1,301.2z" />
	<path display="inline" fill="#2E355A" d="M397.6,334.8c-0.7-0.4-0.6-1-0.5-1.7C397.7,333.6,397.8,334.2,397.6,334.8z" />
	<path display="inline" fill="#374372" d="M500.8,329c-0.2-0.3-0.5-0.5-0.7-0.8l0.2-0.2c0.3,0.2,0.5,0.5,0.8,0.7   C501,328.8,500.9,328.9,500.8,329z" />
	<path display="inline" fill="#252947" d="M479.2,379.6c-0.2-0.3-0.5-0.5-0.7-0.8C478.7,379.1,479,379.4,479.2,379.6z" />
	<path display="inline" fill="#374372" d="M500.1,328.2c-0.2-0.2-0.5-0.5-0.7-0.7l0.2-0.2c0.2,0.2,0.5,0.5,0.7,0.7L500.1,328.2z" />
	<path display="inline" fill="#35416C" d="M462.8,334c0.6,0.2,0.8,0.5,0,0.8C462.8,334.5,462.8,334.3,462.8,334z" />
	<path display="inline" fill="#141317" d="M542.8,542.6c0.2,0,0.5,0,0.7,0l0,0c0,1,0,2,0,3C541.8,545,541.6,544.3,542.8,542.6z" />
	<path display="inline" fill="#191A1F" d="M545.1,547.1c0.7-1.6,2.6,0.2,2.2,1.4C546.5,548.1,545.8,547.6,545.1,547.1z" />
	<path display="inline" d="M520.4,551.6c0.1-1,0.3-1.9,1.5-2.1c0.2,1.1-0.2,2-0.7,2.9C520.9,552.1,520.6,551.8,520.4,551.6z" />
	<path display="inline" fill="#201A18" d="M542.8,245.7c1.3,0,2.6,0,3.9,0c0.7-0.3,1.4-0.7,1.8,0.5c-0.4,0.3-0.8,0.7-1.2,1.1   c0,1.7-0.1,3.5-0.1,5.2c-0.2,0-0.5,0.1-0.7,0.1c0,0,0,0,0,0c0.8-5.9-2.7-3.5-5.7-1.2c-0.5,2.5-2.5,5.8,0.5,7.8c0,0,0,0,0,0   c-0.8,0.3-1.6,0.5-2.7,0.8C537,255.4,537.9,248,542.8,245.7z" />
	<path display="inline" fill="#E5C9BC" d="M541.3,259.3c-3-2-1-5.2-0.5-7.8c1.8-0.9,2.8-2.7,4.8-2.6c0.1,0.8,0.2,1.6,0.3,2.4   c-1.1,0.6-2,1.1-3,1.7c0,1.1,0,2.2,0,3.3C541.4,256.8,542.8,258.8,541.3,259.3z" />
	<path display="inline" fill="#1F1515" d="M567.5,292.3c-2.5-1.6-6.9-2.2-6.8-5.9c0.3-0.3,0.6-0.6,0.8-0.9c1.8,2.9,4.7,4.4,7.5,6   C568.8,292.4,568,292.1,567.5,292.3z" />
	<path display="inline" fill="#423734" d="M542.9,256.2c0-1.1,0-2.1,0-3.3c1-0.6,1.9-1.1,3-1.7c-0.1-0.7-0.2-1.6-0.3-2.4   c1.5,0.8,0.8,2.4,0.8,3.7C544.3,252.5,544.2,255,542.9,256.2z" />
	<path display="inline" fill="#766B66" d="M567.5,292.3c0.6-0.2,1.4,0.1,1.5-0.8c1.6,0.8,3.3,1.6,4.9,2.4   C571.5,294.1,569.5,293.4,567.5,292.3z" />
	<path display="inline" fill="#35302D" d="M538.3,276.3c-1.5-2-1.4-3.1-0.2-5.8c0.6-0.2,0.8,0.2,1,0.7   C538.3,272.8,538.3,274.6,538.3,276.3z" />
	<path display="inline" fill="#423431" d="M554.2,298.8c-0.3,0.3-0.6,0.6-0.9,0.9c-1.2-0.2-2-0.7-2.6-1.8   C552.5,297.2,552.5,297.2,554.2,298.8z" />
	<path display="inline" fill="#504541" d="M561.5,285.5c-0.3,0.3-0.6,0.6-0.8,0.9c-0.7-1.3-1.4-2.6-2.1-3.9c0.2-0.2,0.4-0.5,0.7-0.7   C560,283,560.7,284.3,561.5,285.5z" />
	<path display="inline" fill="#70605B" d="M559.2,281.8c-0.2,0.2-0.4,0.5-0.7,0.7c-1.3-1.2-1.9-1.3-1.4-3.6   C558.1,280.3,558.6,281,559.2,281.8z" />
	<path display="inline" fill="#695F59" d="M539.1,266.7c-1-0.7-1.2-2.2-0.1-3c0.3,0.3,0.5,0.5,0.8,0.8   C539.5,265.2,539.3,266,539.1,266.7z" />
	<path display="inline" fill="#251F1D" d="M539.8,264.5c-0.3-0.3-0.5-0.5-0.8-0.8c0.1-0.8,0.6-1.3,1.5-1.1c0.1,0.7-0.4,1.3-0.5,2   L539.8,264.5z" />
	<path display="inline" fill="#EECABA" d="M539.9,264.6c0.2-0.6,0.4-1.1,0.6-1.7C540.7,263.5,540.7,264.2,539.9,264.6z" />
	<path display="inline" fill="#423734" d="M546.5,252.7c0.2,0,0.5-0.1,0.7-0.1c-0.1,0.2-0.2,0.4-0.3,0.6   C546.8,253,546.7,252.8,546.5,252.7z" />
	<path display="inline" fill="#140F0E" d="M560.7,340.2c-2.3-1.6-4.6-4.3-3.6-7.2c3,1,3.3,4.4,4.4,7   C561.2,340.1,561,340.2,560.7,340.2z" />
	<path display="inline" fill="#3D332F" d="M536.9,425.4c0.4-2.8,0.6-5.3,2.6-7.5C539.3,421.4,538.5,423.6,536.9,425.4z" />
	<path display="inline" fill="#483C38" d="M554.2,345.6c0.4-1.5,1.2-2.6,2.6-3.2C556.6,344.1,556.6,344.1,554.2,345.6z" />
	<path display="inline" fill="#7F6D64" d="M542.5,401.1c-1.5-0.8-1.2-2-0.9-3.4C542.3,398.9,543.5,399.6,542.5,401.1z" />
	<path display="inline" fill="#876D64" d="M551.7,352c0.6-0.7,1.2-1.3,2.1-2.3c0.5,1.7-0.9,2.1-1.2,3   C552.3,352.5,552,352.2,551.7,352z" />
	<path display="inline" fill="#BCA396" d="M551.7,352c0.3,0.3,0.6,0.5,0.8,0.8c-0.6,0.7-1.1,1.4-2.1,2.6   C550.4,353.5,550.9,352.7,551.7,352z" />
	<path display="inline" fill="#7E6D64" d="M541.1,412.5c0.3,0,0.7,0.1,1,0.1c-0.6,0.7-1.2,1.4-2,2.2   C539.7,413.5,540.4,413,541.1,412.5z" />
	<path display="inline" fill="#8A7269" d="M560.7,340.2c0.3-0.1,0.5-0.1,0.8-0.2c0.6,0.2,1,0.6,0.2,1.8   C561.3,341.2,561,340.7,560.7,340.2z" />
	<path display="inline" fill="#331E1C" d="M565.3,342.7c-0.3,0.1-0.5,0.4-0.7,0C564.8,342.5,565.1,342.3,565.3,342.7z" />
	<path display="inline" fill="#8A7269" d="M561.4,339.4c-0.1-0.3-0.3-0.6-0.4-1C561.1,338.8,561.2,339.1,561.4,339.4z" />
	<path display="inline" fill="#382E2A" d="M528,287.6c-0.9-2.9,1.9-4.7,1.8-7.3C531.7,282.3,529.9,285.6,528,287.6z" />
	<path display="inline" fill="#422E2B" d="M532.1,287.2c1.9-1.1,2-1.1,5.7,1.4C535.6,288.9,533.9,288.4,532.1,287.2z" />
	<path display="inline" fill="#856D65" d="M530.7,266.6c4.1-1.5,4.1-1.5,6.7-1C535.4,266.6,533.4,267.1,530.7,266.6z" />
	<path display="inline" fill="#413732" d="M526.4,275c1.2,1.2,2.5,1.6,2.2,3.7c-1.5-0.8-2.4-1.7-3.1-2.8   C525.9,275.5,526.2,275.2,526.4,275z" />
	<path display="inline" fill="#6D5852" d="M526.4,275c-0.3,0.3-0.6,0.5-0.8,0.8c-1.3-1.3-2.1-2.9-1.8-4.9   C524.7,272.2,525.6,273.6,526.4,275z" />
	<path display="inline" fill="#5C544E" d="M535.5,251.9c-1.5,0.6-1.5,0.6-3.5,0.5C532.7,250.8,534.3,251.2,535.5,251.9z" />
	<path display="inline" fill="#5B4E49" d="M538.2,282.5c-0.1,0-0.4,0-0.5,0c-0.1-1.4-0.6-2.9,0.1-4.7   C538.9,279.6,538.1,281.1,538.2,282.5z" />
	<path display="inline" fill="#654A44" d="M535.2,250.9c0.7-0.7,1.4-0.9,2.3-0.3c0.1,1.1-0.6,1.2-1.4,1.1   C535.8,251.5,535.5,251.2,535.2,250.9z" />
	<path display="inline" fill="#280F0E" d="M535.2,250.9c0.3,0.3,0.6,0.6,0.9,0.9c-0.7,0.4-1.4-0.3-2.1-0.6   C534.4,251.1,534.8,251,535.2,250.9z" />
	<ellipse display="inline" fill="#70524C" cx="524.9" cy="289.6" rx="0.9" ry="0.2" />
	<path display="inline" fill="#555761" d="M445,271.9c0.2-0.3,0.5-0.5,0.7-0.8c0.7,1.3,1.4,2.6,2.2,3.8c-0.2,0.2-0.5,0.5-0.7,0.7   C446.5,274.4,445.8,273.2,445,271.9z" />
	<path display="inline" fill="#7A7F8D" d="M447.2,275.7c0.2-0.2,0.5-0.5,0.7-0.7c0.6,1,2,1.9,0.7,3c-0.5-0.5-0.9-1-1.4-1.6   C447.2,276.2,447.2,275.9,447.2,275.7z" />
	<path display="inline" fill="#1E1F26" d="M516.7,555.3c0.4,0.1,0.9,0.2,1.8,0.4c-0.8,0.8-1.3,1.3-2.2,2.3   C516.5,556.7,516.6,556,516.7,555.3L516.7,555.3z" />
	<path display="inline" fill="#282321" d="M523.7,251.2c-2.9-2.6,2.6-6.3,5.1-8.5C528.2,246.2,525.5,248.1,523.7,251.2z" />
	<path display="inline" fill="#554744" d="M531.6,240.6c1.1-0.7,2.2-1.4,3.3-2c1.3,1.5-1.6,2-2.4,2.8   C532.2,241.2,531.9,240.9,531.6,240.6z" />
	<path display="inline" fill="#9C918A" d="M531.6,240.6c0.3,0.3,0.5,0.6,0.8,0.8c-0.8,0.5-1.6,1-2.5,1.5   C529.6,241.4,530.8,241.1,531.6,240.6z" />
	<path display="inline" fill="#42444B" d="M438.8,255.4c0,0.4,0,0.8,0,1.2c-1.3,1.9,0.3,4.5-0.1,6.6c-0.2-2.4-1.9-4.6-1.1-7.4   C437.9,255.7,438.4,255.5,438.8,255.4z" />
	<path display="inline" fill="#717887" d="M435.2,267.5c0.3,0,0.6,0,0.8,0c0.2,0.6,0.5,1.1,0.8,1.8   C435.3,269.3,435.2,268.4,435.2,267.5z" />
	<path display="inline" fill="#4C505E" d="M543.6,542.6c0.1-0.2,0.2-0.3,0.3-0.5C543.8,542.3,543.7,542.5,543.6,542.6   C543.6,542.6,543.6,542.6,543.6,542.6z" />
	<path display="inline" fill="#5876E8" d="M504.1,331c-0.1-0.2-0.2-0.5-0.2-0.7C504.4,330.4,504.8,330.6,504.1,331z" />
	<path display="inline" fill="#EBC8B8" d="M491.2,420.1c3.2,1.7,6.2,3.1,7.6,6.7c-0.4,0.3-0.9,0.7-1.4,1.1c0.9,0.4,1.5,0.7,2.2,1.1   c-0.4,0.1-0.9,0.3-1.4,0.5c0,1.3,0,2.4,0,3.9c1.4,0.2,2.7-0.1,3.5,1.1c-0.8-0.2-1.8-0.8-2.2,0.6c-2-0.5-2.8,1.4-4.3,2.2   c-0.5-0.2-1.1-0.5-1.6-0.7c-3.2-8.9,3.5-6-2-11.6C491.4,423.3,491.3,421.7,491.2,420.1z" />
	<path display="inline" fill="#100E0D" d="M489.7,415.5c3.4-3.3,6.4-6.9,8.1-11.3c5,1-10,20.8-10.3,11.3   C488.5,415.4,489,417.1,489.7,415.5z" />
	<path display="inline" fill="#211C1A" d="M477.9,472.4c2-5.5-0.5-13.2,2.4-17.9c2.8,3.4-0.9,15.8-1.7,20.3   C478.4,474,478.9,473,477.9,472.4z" />
	<path display="inline" fill="#241F1D" d="M493.6,429c-2.1,2-0.4,5-0.1,7.4c-0.3,0.3-0.7,0.6-1,1c-2.9-3.4-3-5.6-0.6-9.2   C492.5,428.5,493,428.8,493.6,429z" />
	<path display="inline" fill="#1B1614" d="M493.6,429c-1.6-0.6-2.6-1.7-3.8-2.9c0-1.9,0-3.9,0-6c0.5,0,0.9-0.1,1.4-0.1   c0.1,1.6,0.3,3.2,0.4,4.8C492.1,426.1,495,427.7,493.6,429z" />
	<path display="inline" fill="#2A2422" d="M499.6,428.9c-0.6-0.3-1.2-0.6-2.2-1.1c2-1.4,5.8-2.9,7.9-1.2   C504.1,428.8,501.6,428.4,499.6,428.9z" />
	<path display="inline" fill="#3C3431" d="M495.6,454.2c1.2-2.3,2.3-4.7,4.5-7.3c0.4,3.6-2.3,5.2-3.7,8.1   C496.1,454.8,495.9,454.5,495.6,454.2z" />
	<path display="inline" fill="#2F2B29" d="M494.1,449.4c-1.5-2.9-0.9-6-1.5-9c0.7-0.2,1-0.2,1.4-0.3c1.2,2.6,0.4,5.6,0.8,8.4   C494.6,448.8,494.3,449.1,494.1,449.4z" />
	<path display="inline" fill="#311E1C" d="M487.5,415.5c0,0.3-0.1,0.6-0.1,0.9c-1.5-0.1-2.9-0.1-4.4-0.2c-0.8-0.7-1.5-1.5-2.3-2.2   c0.3-0.3,0.5-0.6,0.8-0.9c1.6,0.5,2.8,2,4.5,1.6C486.7,414.8,487.3,414.8,487.5,415.5z" />
	<path display="inline" fill="#131010" d="M477.9,472.4c1.7,2.1,0.2,5.3-0.9,7.4c-0.9-0.2-0.7-1.1-0.9-1.7   C476.7,476.2,477.3,474.3,477.9,472.4z" />
	<path display="inline" fill="#A6958E" d="M489.6,469.3c-0.6,1.7-1.1,3.5-1.7,5.1c-2.6-0.1,0.8-4.3,0.8-5.9   C489.1,468.8,489.4,469,489.6,469.3z" />
	<path display="inline" fill="#615652" d="M489.6,469.3c-0.3-0.3-0.5-0.5-0.8-0.8c1.1-3.9,1.4-4.5,3-5.2   C491.1,465.5,490.3,467.4,489.6,469.3z" />
	<path display="inline" fill="#60544F" d="M471.8,488.9c0.5-1.6,1.2-3,2.3-4.3c2.3,1.1-1.1,3.3-1.6,4.7   C472.3,489.2,472.1,489.1,471.8,488.9z" />
	<path display="inline" fill="#5F534F" d="M480.7,409.4c-1.4-0.4-1.3-1.9-2.2-2.8c0-0.4,0-0.9,0-1.9   C480.1,406.4,481.1,407.6,480.7,409.4z" />
	<path display="inline" fill="#6A5D57" d="M469.5,392.4c0-0.6,0.1-1.2,0.1-1.9c1.4,1.4,1.4,1.4,1.5,3.4   C470.5,393.4,470,392.9,469.5,392.4z" />
	<path display="inline" fill="#806F68" d="M467.2,498.4c-0.6,0.5-1.2,1-2.1,1.8c0-0.8,0-1.2,0-1.6c0.7-0.5,1.5-1,2.2-1.5   C467.3,497.5,467.3,497.9,467.2,498.4z" />
	<path display="inline" fill="#464340" d="M476.1,478.1c0.3,0.6,0,1.5,0.9,1.7c-0.3,0.6-0.7,1.2-1.1,2   C475.4,479.9,475.4,479.9,476.1,478.1z" />
	<path display="inline" fill="#1F1918" d="M494.1,449.4c0.2-0.3,0.5-0.6,0.7-0.9c0.6,1.2,0.1,2-0.3,3.3   C493.4,450.7,493.8,450,494.1,449.4z" />
	<path display="inline" fill="#665E5A" d="M495.6,454.2c0.3,0.3,0.5,0.6,0.8,0.8c-0.5,0.8-1.1,1.6-1.9,2.8   C494.1,456,494.8,455.1,495.6,454.2z" />
	<path display="inline" fill="#C9B2A9" d="M472.8,521.9c1.3,1.2,1.3,1.2,0,2C472.8,523.1,472.8,522.5,472.8,521.9z" />
	<path display="inline" fill="#3B322F" d="M472.3,528.4c0.7,1.2,0.3,2-0.5,3.3C471.3,530.3,471.6,529.5,472.3,528.4z" />
	<path display="inline" fill="#201615" d="M469.4,536.3c0.4-0.8,0.7-1.6,1.2-2.4C471.2,534.8,471.1,535.3,469.4,536.3z" />
	<path display="inline" fill="#463D3A" d="M468.4,494.5c0.2-1,0.6-1.7,1.7-1.9C469.9,494.2,469.9,494.2,468.4,494.5z" />
	<path display="inline" fill="#AD9E96" d="M474.5,401.9c-0.2-1.3-0.3-1.9-0.4-2.6C475.3,399.7,475.8,400.2,474.5,401.9z" />
	<path display="inline" fill="#332422" d="M499.4,435c0.4-1.4,1.4-0.8,2.2-0.6C501.2,435.6,500.2,435.1,499.4,435z" />
	<path display="inline" fill="#87716B" d="M479.6,451.5c-0.4,1.1-1.6,0.2-0.7-0.6C479.2,451.1,479.4,451.3,479.6,451.5z" />
	<path display="inline" fill="#806F68" d="M467.3,497c0-0.3-0.1-0.5-0.1-0.8C468.2,495.8,468.3,497,467.3,497z" />
	<path display="inline" fill="#311E1C" d="M489.7,415.5c-0.4,0.9-1,0.9-1.5,0.1C488.7,415.6,489.2,415.6,489.7,415.5z" />
	<path display="inline" fill="#1A1F35" d="M453.9,337c-1.1-4.5-1.9-9.1-2.3-14.2c3.1,3.6,1.7,9.6,2.9,14.2   C454.3,337,454.1,337,453.9,337z" />
	<path display="inline" fill="#2E3A68" d="M453.9,366.2c-0.3-2.2,0.8-4.2,1.1-6.4c0.2,2.6,1,5.7-0.3,7.9   C454.4,367.3,454.2,366.8,453.9,366.2z" />
	<path display="inline" fill="#111627" d="M453.9,366.2c0.3,0.5,0.6,1,0.8,1.6c-0.3,1.9,0.3,4-1.5,5.8   C452.6,370.9,453.7,368.6,453.9,366.2z" />
	<path display="inline" fill="#1A1E34" d="M453.9,337c0.2,0,0.4,0,0.7,0c0.3,0.9,0.1,2,0.2,3c-0.3,0-0.5,0-0.8,0   C453.9,339,453.9,338,453.9,337z" />
	<path display="inline" fill="#1A1F38" d="M454.7,339.4c0-0.6,0-1.2,0-1.8c0.2,0.1,0.5,0.1,0.7,0.2c0,0.4,0,0.9,0,1.3   C455.1,339.2,454.9,339.3,454.7,339.4z" />
	<path display="inline" fill="#5876E8" d="M465.1,335.5c-0.2-0.1-0.3-0.2-0.5-0.3C464.7,335.4,464.9,335.5,465.1,335.5   C465.1,335.6,465.1,335.5,465.1,335.5z" />
	<path display="inline" fill="#0B0A0A" d="M477.8,574.8c-0.2-0.3-0.4-0.5-0.7-1c4-1.5,8.4-1.2,11.7,1.3c0.4,3.7-9.8,3.8-9.5,1.1   c0.6-0.1,1.2-0.1,1.9-0.2c0-0.2,0-0.3,0-0.5C480,575.3,478.9,575,477.8,574.8z" />
	<path display="inline" fill="#171213" d="M467.6,563.2c4.3-1.9,10.3-2.6,14.5-1.3C481.2,565,470,565,467.6,563.2z" />
	<path display="inline" fill="#A3ACB2" d="M477.8,574.8c1.1,0.2,2.3,0.5,3.4,0.7c0,0.2,0,0.3,0,0.5c-0.6,0.1-1.2,0.1-1.9,0.2   C478.8,575.7,478.3,575.3,477.8,574.8z" />
	<path display="inline" fill="#766970" d="M457.6,577c-0.2-0.2-0.4-0.5-0.7-0.7c0.2,0,0.4,0,0.5,0   C457.5,576.5,457.6,576.8,457.6,577z" />
	<path display="inline" fill="#54443F" d="M474.7,425.9c-0.2,1.7-0.4,3.5-0.5,5.2c-0.3,0-0.6,0-0.9,0c0-3.1,0-6.2,0-9.1   c0.8-0.7,1.3-0.7,1.6,0.1C473.9,423.5,473.8,424.3,474.7,425.9z" />
	<path display="inline" fill="#29221F" d="M473.2,431.2c0.3,0,0.6,0,0.9,0c1,0.9,1.9,1.9,2.3,3.1C475,436,472.4,432.8,473.2,431.2z" />
	<path display="inline" fill="#0B0B0A" d="M474.7,425.9c-0.8-1.6-0.8-2.4,0.1-3.7C474.8,423.5,474.7,424.7,474.7,425.9z" />
	<path display="inline" fill="#8D7269" d="M481.6,413.2c-0.3,0.3-0.5,0.6-0.8,0.9c-0.4-0.6-0.9-1.3-1.3-2   C480.8,411.6,481.1,412.5,481.6,413.2z" />
	<path display="inline" fill="#2C3053" d="M419.6,315.2c-0.7,0.3-1.8-0.3-2.3,0.8c-2.6-0.3-5.2-0.6-7.8-1c0-0.1,0-0.2,0-0.4   C412.8,315,416.6,314,419.6,315.2z" />
	<path display="inline" fill="#141629" d="M428.2,316.9c1.8,0.1,3.9-0.6,5.4,0.5C431.8,317.4,429.9,318,428.2,316.9z" />
	<path display="inline" fill="#141629" d="M429.3,316c-1.6-0.1-3.3,0.5-4.6-0.5C426.3,315.5,427.9,315,429.3,316z" />
	<path display="inline" fill="#455FB9" d="M432.9,331.1c0.8,0,1.6,0,2.4,0c-0.6,0.8-1.5,0.6-2.4,0.6   C432.9,331.5,432.9,331.3,432.9,331.1z" />
	<path display="inline" fill="#574C47" d="M370.1,349c0.2,0.3,0.5,0.5,0.7,0.8C370.6,349.5,370.3,349.3,370.1,349z" />
	<path display="inline" fill="#2C2322" d="M337.7,342c1.1-1.7,1.8-3.8,3.8-5.3c0.4,3.3-1.2,5.1-3.6,6.4   C337.9,342.8,337.8,342.4,337.7,342z" />
	<path display="inline" fill="#3E3532" d="M343,331.5c0.1-1.2,0.7-3.5,2.3-2.5c0,1.3-0.7,2.4-1.4,3.5   C343.6,332.2,343.3,331.8,343,331.5z" />
	<path display="inline" fill="#4B4844" d="M343,331.5c0.3,0.4,0.6,0.7,0.9,1.1c-0.6,1.1-1.1,2.2-1.7,3.3   C342,334.3,342.1,332.8,343,331.5z" />
	<path display="inline" fill="#625651" d="M335.6,344.2c-0.5,2-1.3,2.8-2.6,3.1C333.4,345.9,333.4,345.9,335.6,344.2z" />
	<path display="inline" fill="#1B1716" d="M346.8,342.6c0.3,1.4,0.5,2.3,0.7,3.3C345.6,345.4,345.4,344.8,346.8,342.6z" />
	<path display="inline" fill="#7C6E69" d="M329.4,348.5c-0.4,0.8-0.8,1-1.6,1.3C328,348.5,328,348.5,329.4,348.5z" />
	<path display="inline" fill="#A0867F" d="M343.1,348.6c0.4-0.3,0.7-0.6,1.1-0.9C344.3,349,344.3,349,343.1,348.6z" />
	<path display="inline" fill="#5D4A46" d="M337.7,342c0.1,0.4,0.1,0.8,0.2,1.2c-0.3,0.2-0.6,0.5-1.1,0.8   C336.6,342.8,337.2,342.5,337.7,342z" />
	<path display="inline" fill="#836661" d="M339.1,351c0.1,0.9,0.2,1.2,0.2,1.5c-0.2,0-0.4,0-0.6,0   C338.8,352.2,338.9,351.8,339.1,351z" />
	<path display="inline" fill="#5F3A38" d="M323.9,351.6c0.1-0.1,0.2-0.2,0.2-0.3c0.1,0.3,0.4,0.5,0,0.6   C324,351.8,323.9,351.7,323.9,351.6z" />
	<path display="inline" fill="#0B0B0E" d="M370.1,325.8c-2.4,4.5-2.5,9.6-3.8,14.4c-4.5-7,3.9-18.2,5-26.1c0.1,0,0.5-0.2,0.8-0.3   C373.8,318.2,369.4,321.5,370.1,325.8z" />
	<path display="inline" fill="#040508" d="M361.9,303.4c0.3,0.1,0.7,0.1,1,0.2c1,1-0.3,2.7,1.1,3.5c0,3.7,0.1,7.5,0.1,11.2   c-0.2,0.2-0.5,0.5-0.7,0.7c-0.5-1.7,0.6-3.9-0.7-5.2c-0.1-1.3-0.2-3.6-0.1-4.6c-0.7-1-1.1-1.5-1.5-2.1   C361.4,305.9,361.7,304.7,361.9,303.4z" />
	<path display="inline" fill="#1F2645" d="M361.1,307.1c0.4,0.6,0.8,1.1,1.5,2.1c0,0.2,0,1-0.1,1.8c-0.3-0.6-0.6-1.3-0.9-1.9   c-1.2,1.1-1.3,3.2-3.7,4C358.9,310.7,359.7,308.8,361.1,307.1z" />
	<path display="inline" fill="#1A2445" d="M363.4,319c0.2-0.2,0.5-0.5,0.7-0.7c1.1,1.4,0.7,2.9,0.4,4.6   C362.7,321.8,363.5,320.3,363.4,319z" />
	<path display="inline" fill="#171C35" d="M355.6,320.1c-0.4-1.8-1.3-3.7,0.5-5.2C357.2,316.2,355.6,318.4,355.6,320.1z" />
	<path display="inline" fill="#1A2445" d="M362.7,313.8c0.9,0.6,0.6,1.5,0.6,2.4C362.4,315.6,362.6,314.7,362.7,313.8z" />
	<path display="inline" fill="#070606" d="M297.4,403c-1.3-0.8-2.8-1.5-3.2-3.2c1.2-1.4,2.5,0.1,3.7-0.5c-0.9-1-1.7-2.1-2.6-3.1   c0.3-0.3,0.5-0.6,0.8-0.8l0,0c3.1,0.4,12.9,2.1,14,4.8c-0.6,0.6-1.2,1.1-1.9,1.7c0.1,0.9,0.7,2-0.4,2.9   C304.3,405.2,300.9,404.3,297.4,403z" />
	<path display="inline" fill="#F9DED3" d="M303.7,404.9c1.4,0,2.8,0,4.2,0c0.7,2.3,1.3,4.6,1.7,7c-6,5.7-9.2,9.6-12-1.3   c3-0.1,5-1.5,7.5-2.9c-0.7-1.3-0.7-1.3-2.3-2.1C303.1,405.4,303.4,405.2,303.7,404.9z" />
	<path display="inline" fill="#050303" d="M303.3,390.3c3,1.8,6.4,2.1,10,2.2c-0.4,0.8-0.6,1.4-0.9,2c-0.5,0-0.8,0.4-1.3,0.5   c0.2,0.1,0.4,0.2,0.6,0.4c0,0.7-0.1,1.4-0.1,2.1c-5.4,0.5-10.9-1.7-15.4-4.6c0-0.6-0.1-1.6,0.1-1.7c1.1-0.4,0.5-1.4,1.1-2.2   C299.5,388.3,301.2,390.1,303.3,390.3z" />
	<path display="inline" fill="#120F0F" d="M302.8,405.7c1.6,0.7,1.6,0.7,2.3,2.1c-2.1,0.8-3.7,2.7-6,2.5c-1.1-1.3-3.3-1.6-3.9-3.7   c0.9,0,1.6,0,2.3,0c0.1,0.3,0.1,0.8,0.6,0.2c-0.2-0.1-0.4-0.1-0.6-0.2c-0.2-0.7-0.4-1.4-0.6-2.1C299,403.8,300.9,405,302.8,405.7z" />
	<path display="inline" fill="#45433F" d="M300.4,395.5c2.7,0.2,5.1,1.6,7.8,2.2c-0.1,0.2-0.1,0.4,0,0.6c-2.8-0.1-5.2-1.2-7.7-2.3   C300.4,395.8,300.4,395.6,300.4,395.5z" />
	<path display="inline" fill="#EDD5CA" d="M300.4,395.5c0,0.2,0,0.3,0,0.5c-1.4-0.1-2.8-0.3-4.2-0.4c0-0.9,0-1.7,0.1-2.6   C297.6,393.8,299,394.6,300.4,395.5z" />
	<path display="inline" fill="#A8A29A" d="M301.3,405c-1.4-0.3-2.8-1.1-4.3-0.5c0.2-0.5,0.3-1,0.5-1.5c1.3,0.4,2.6,0.9,3.8,1.3   C301.3,404.6,301.3,404.8,301.3,405z" />
	<path display="inline" fill="#CFC4BF" d="M311.6,397.5c0-0.7,0.1-1.4,0.1-2.1C312.8,396.3,312.8,396.8,311.6,397.5z" />
	<path display="inline" fill="#CFC4BF" d="M311.7,395.4c-0.2-0.1-0.4-0.2-0.6-0.4c0.2-0.1,0.4-0.2,0.6-0.2   C311.8,395,311.8,395.2,311.7,395.4z" />
	<path display="inline" fill="#EDD5CA" d="M296.2,395.5c-0.3,0.3-0.5,0.6-0.8,0.8C295.4,395.7,295.6,395.4,296.2,395.5z" />
	<path display="inline" fill="#3A322E" d="M391,239.4c-0.3-2-0.3-2,1.2-2.4C391.9,238.5,391.9,238.5,391,239.4z" />
	<path display="inline" fill="#9E857B" d="M391.5,242.3c0.6,1.4-0.1,2.2-0.9,3.2C390.1,244.3,390,243.2,391.5,242.3z" />
	<path display="inline" fill="#A78378" d="M392.6,248.9c0.1,0.1,0.2,0.2,0.4,0.4c-0.3,0.1-0.6,0.4-0.8,0   C392.3,249.2,392.4,249,392.6,248.9z" />
	<path display="inline" fill="#C3B0A7" d="M311.8,383.4c-0.8-0.8-1.5-1.5-2.3-2.3c0.3-0.3,0.7-0.6,1-0.9c1.2,0.3,2.3,0.6,3.5,0.9   C313.6,382.5,313.1,383.4,311.8,383.4L311.8,383.4z" />
	<path display="inline" fill="#303331" d="M317.8,381.2c-0.7,1.8-1.5,3.5-3.9,3.4c0.6-1,1.2-2.1,2-3.4   C316.4,381.2,317.1,381.2,317.8,381.2z" />
	<path display="inline" fill="#A39A92" d="M311,376.7c0,0.2,0,0.5,0,0.7c-1.7-0.5-3.3-1-4.7-2.3c0.1-0.4,0.1-0.7,0.2-1.1   C308.1,374.1,309.2,376.3,311,376.7z" />
	<path display="inline" fill="#C8BBB1" d="M308,383.4c1.3,0,2.5,0,3.8,0l0,0c0.5,2.6-2.5,1.2-3.7,0.6C308,383.8,308,383.6,308,383.4   z" />
	<path display="inline" fill="#B7B5AB" d="M308,383.4c0,0.2,0,0.4,0,0.6c-1-0.3-2-0.5-3.1-0.8c0.1-0.6,0.2-1,0.3-1.6   C306.2,382.3,307.1,382.8,308,383.4z" />
	<path display="inline" fill="#211F1E" d="M306.5,387.1c1.5-0.1,2.9,0,4.3,1.3C309,388.6,307.7,388.1,306.5,387.1L306.5,387.1z" />
	<path display="inline" fill="#93958D" d="M310.4,380.3c-0.3,0.3-0.7,0.6-1,0.9c-0.7-0.5-1.5-1.1-2.8-2.1   C308.6,379.1,309.6,379.5,310.4,380.3z" />
	<path display="inline" fill="#211F1E" d="M306.5,387.1c-0.4-0.1-0.7-0.1-1.1-0.2C306,386.1,306.2,386.6,306.5,387.1L306.5,387.1z" />
	<path display="inline" fill="#AB8D82" d="M376.1,309.4c0-0.8,0-1.7,0-3.2c1,1.3,0.7,2.3,0.7,3.1   C376.6,309.4,376.3,309.4,376.1,309.4z" />
	<path display="inline" fill="#6B5F58" d="M376.1,309.4c0.2,0,0.4-0.1,0.7,0c0,1-0.1,1.9-0.1,2.9l0,0   C375.5,311.5,376.1,310.4,376.1,309.4z" />
	<path display="inline" fill="#392825" d="M369.4,345.1c-0.3,0.3-0.6,0.6-0.9,0.9c-1-1-1-1.1,0-1.8   C368.9,344.5,369.2,344.8,369.4,345.1z" />
	<path display="inline" fill="#3E3532" d="M393.1,228.4c-0.2,0.3-0.4,0.7-0.5,1C392.8,229.1,392.9,228.7,393.1,228.4z" />
	<path display="inline" fill="#FBDFD3" d="M587.8,318.3c-1.6-0.7-0.6-1.7-0.1-2.7C587.7,316.6,587.7,317.5,587.8,318.3L587.8,318.3z   " />
	<path display="inline" fill="#415497" d="M465.9,349.8c1.5,1,2.8,2.2,3.7,4c-2,0-3-2.8-4.6-4C465.3,349.8,465.6,349.8,465.9,349.8z   " />
	<path display="inline" fill="#28335C" d="M464.3,348.2c0.2,0.3,0.5,0.5,0.7,0.8l0,0C464.8,348.8,464.5,348.5,464.3,348.2   L464.3,348.2z" />
	<path display="inline" fill="#28335C" d="M464.3,348.3c-0.3-0.2-0.5-0.5-0.8-0.7c0,0,0.1-0.1,0.1-0.1   C463.8,347.7,464.1,348,464.3,348.3C464.3,348.2,464.3,348.3,464.3,348.3z" />
	<path display="inline" fill="#28335C" d="M465.9,349.8c-0.3,0-0.6,0-0.8,0c-0.1-0.2-0.1-0.5,0-0.7l0,0   C465.4,349.2,465.6,349.5,465.9,349.8z" />
	<path display="inline" fill="#39457B" d="M422.5,296.6c-0.2,0.3-0.4,0.5-0.7,0.8c-1.4-0.5-2.9-1.1-4.9-1.8   C419.4,294.9,421,295.6,422.5,296.6z" />
	<path display="inline" fill="#ADA69D" d="M301.3,405c0-0.2,0-0.5,0-0.7c0.9-0.1,1.7-0.1,2.4,0.6c-0.3,0.2-0.6,0.5-0.8,0.7   C302.3,405.4,301.8,405.2,301.3,405z" />
	<path display="inline" fill="#E4E4EB" d="M297.5,406.6c0.2,0.1,0.4,0.1,0.6,0.2C297.7,407.3,297.6,406.9,297.5,406.6L297.5,406.6z" />
</g>
</svg>