<?xml version='1.0' encoding='utf-8'?>
<svg xmlns="http://www.w3.org/2000/svg" version="1.2" baseProfile="tiny" id="Layer_1" x="0px" y="0px" viewBox="0 0 900 600" overflow="visible" xml:space="preserve">
<g id="a_00000005261569021672001210000005984255800485782918_">
	<path d="M407.9,155.9c-0.9-5-2.1-10.9-0.4-15.7c-4.3-18.8-5.1-39.5,1-58c-2-5.6,4.7-5.4,4.7-9.1c-0.7-1.2-2.8-0.7-3-2.8   c0.9-0.8,1.9-1.7,2.9-2.5c0.7,0,1.3-0.1,2.1-0.1c0.8-0.9,1.6-1.8,2.4-2.8c0.7,0.5,1.3,1,1.9,1.4c1.4-0.7,0.9-2.8,2.6-3.6   c1.8,0.6,1.8,0.6,3.3,2c4.8-5.4,11.7-5.4,18.4-6.2c1.3-1.1,2.6-2.1,3.7-3c2.3,0.5,1.2,2,0.6,3.4c3.9,1,7.3-1.3,11.1-0.3   c2.7,0.6,5.5,1.8,8.2,2.2c2.5-1.3,5.5-0.5,8.1-1.9c1.7-0.7,3.8-1.3,5.4,0.3c-0.5,1-0.9,1.9-1.3,2.8c4.2,2.2,9.4-2,12.4,2.8   c0.5-0.2,1.1-0.4,1.7-0.6c2.6,0.7,2,3.4,3.3,5.3c2.1-1.4,2.5-4.5,5.5-5.2c0.4,0.9,0.8,1.8,1.3,3c0.9,0.3,2,0.6,3.1,0.9   c0.1,0.3,0.2,0.7,0.3,1.1c-0.4,0.7-0.9,1.3-1.5,1.9c1.2,0.7,2.9,0.9,3.8-0.3c2.4-0.5,3.4,1.2,4.9,2.8c-0.4,1.9-0.9,3.9-1.4,5.9   c0.3,0.4,0.7,0.8,1.2,1.6c-0.7,0.8-1.4,1.6-2.1,2.5c0.1,0.5,0.3,1.1,0.5,1.8c-4.7,2.4-9.8,3.2-14.9,4.2c-2,8.7,8.8,19.6,0.1,25.9   c0.5,8.2,13.7,21,2,25.5c0.6,4.3,1.4,6.1-2.9,8.2c0.6,0.9,1.2,1.7,1.9,2.9c-0.2,3-1.6,6.3-3.5,8.6c3.9,6.5-1.7,15.5-9,15.2   c-12.3-1.7-10,0-17.8,7.6c-14.2,19.8-5.6,46.6,3.4,66.6c2.2,13.9,11.4,48.2-3.6,56c-3.1,16.3,4.4,32.7,0.8,49   c-2.3,13.6-7.8,26.6-7.2,40.6c1.3,5.1-3.7,9.4-2.1,14.5c-0.1,7.4,4,5.7,8.9,9.7c-4.9,0.3-8.3-0.8-12.4-2.9c1.2-1.9,1.3-3.9,0.7-6.5   c-2.1,1.4-1.8,7.2-5,5.6c0-0.8,0.1-1.6,0.1-2.3c-2.7,1,0.6,8.3-3.1,6.4c0.3-1.7,0.9-3.6,0.1-5.5c-1.4,0.2-2.6,0.5-3.7,0.6   c-0.7,1.1-1.3,2-1.8,2.8c-2.3-0.3-0.5-2-1.2-2.5c-3.9-0.5-7.5-1-11.1-1.6c-0.4,0.9-0.7,1.8-1.1,2.6c-0.4,0-0.7-0.1-1.2-0.1   c0.1-1,0.2-2,0.3-3.1c-1.1-0.2-2.1-0.4-2.9-0.6c-0.9,1.2-1.6,2.2-2.3,3.2c-1.4-0.8-0.3-2.3-0.1-3.7c-2-0.1-3.4-0.4-5.2-1   c-1.4-1.6-3.5-0.2-5.3-0.7c-3.4-1.6-7.1-0.4-10.8-1.1c-0.5,1.8-0.9,7.3-3.6,6c0.6-2,1.3-4,2-6.1c-1.4-0.9-2.8-1.3-4.4-1.1   c-2-0.7-3.6-2.2-5.7-1.5l0.1,0c-1-1.6-2.9-0.8-4.5-0.6c1.2,3.8-3.8,8.1-0.7,10.3l0,0c0,0.3-0.1,0.6-0.1,0.9   c-5.2-0.4-14.4-6.4-19.1-3.8c-5.5,3-10.3,10.7-16.7,10.2c-8.2,15.9-13.3,35.8-4.1,52.2c6.6,1.5,20.4-1.9,19.1,9   c-2.4,1.6,1.6,2.9,2.8,4.1c11.6,0.3,22.2,10.3,33.2,14.2c1.1-0.4,2.1-0.7,3-1.1c0.3,0.3,0.7,0.6,1,0.9c-0.4,0.4-0.7,0.8-1.1,1.2   c20.4,8.9,43.7,5.8,63.5,16.2c10.5,3.3,24.1-0.3,33.2,6.8c-9.3-0.9-17.3-3.8-26.5-3.2c7.1,3.1,8.2,12.1,15.8,13.8   c0.4,3.7,2.5,6.1,5.2,8.5c13.3-9.9,35.8-4.3,47-18.3c-8.3-20.3-22.1-38.5-38.1-52.6l0,0c-1-0.6-0.4-2.1-1.6-2.3c0,0,0,0,0,0   c-0.2-0.3-0.5-0.6-0.7-0.9l0,0c0.4-1,1.1-1.6,2.3-1.5c0.1,0.6,0.1,1.3,0.9,1.4l0,0c0.2,0.3,0.5,0.6,0.7,0.9l0,0   c0.9,0.6,0.4,2.1,1.7,2.2l0,0c0.3,0.3,0.5,0.6,0.8,0.8l0,0c0.2,0.3,0.5,0.6,0.7,0.8l0,0c0.5,0.6,1,1.1,1.5,1.7   c0.1,1.2,0.6,2,1.9,2.1c14.6,13,27,28.4,32.5,47.3c14.6-12.6-15.4-51.4-26.7-60.9c-0.1-1.8,2.2-1.8,3.4-2.5   c14.1,14.7,27.1,31.4,30.2,52.1c5.6,20.8,13.1,43,2.6,63.7c1.6,9.1-9.8,14.9-16.8,18.2c-8.3-2.1-17.7,0.6-26.2,1   c-15.8-0.4-31.5-4.2-45.3-12c-14.5-9.6-31.5-13.6-46.1-22.9c-13.1-7.8-25.4-17.5-39.2-23.9c-4.7,0.1-7.8-3.3-11.8-5.3   c-1,15.2-19.8,9.1-22.6,20.4c-2.5,11.5-4.7,23.1,3,33.1c-5,7.4-14.9,9.8-23.1,6.5c-1.1-0.4-2.2-0.7-3.3,0.4   c-25.8-12.3-31.2-46.3-19-70c-10.7-13-5.2-28.6-3.3-43.7c-0.2-0.3-0.5-0.9-0.9-1.7c1.9-3,3.9-6.1,5.9-9.2c1.6-0.2,2.9-0.3,4.5-0.5   c1.1-6.1,4.2-11.6,5.7-17.6c7.7,1.7,14.6,1.5,22.3,3.8c1.5-17.1,3.7-36.3,19.1-46.8c1-4.7,1.9-9,5.1-12.3c0.9,0.1,1.7,0.2,2.5,0.3   c-0.9-8.8,2.2-17.7,0.6-26.8c-5.6-13.7-6.7-29-7.4-43.9c-4.7,0.4-6.8,4.9-10.5,6.7c-14.9,2.9-27.1-1.7-28-18.3   c-5.2-2.4-5.7-7.5-9.9-10.9c1.6-15.2-4.1-31.9,6-45.2c4.4-6.9,13.6-8.3,18.7-14.1c7.4-9.7,2.4-24.8,12.5-33.7   c5.1-8.9,9.2-20,21.5-19.9c-0.9-2.8-4.5-4.4-3.1-7.6c3.1-5.2,0-17.9,9.3-16.1c0-3.2,3.5-3.5,5.7-4.5   C384.6,153.5,398.3,155.1,407.9,155.9c0.7,0.7,1,1.8,2.4,2.1c0-0.5,0.1-1,0.1-1.5C409.5,156.3,408.7,156.1,407.9,155.9z    M420.1,124.4c-0.9,0.6-0.6,1.5-0.7,2.3l0,0c-0.4-0.7-0.9-1.4-1.3-2.1c-3.3,2.7,5.6,12.8,4,18.8c-3.8,3.3-5.1,8.3-6.7,12.9   c21.3-4.2,22.3,26.7,6.1,33c0.6,0.2,1.2,0.5,1.6,0.6c10.7,14.8,22,36.1,38.4,44.3c-7.3-21.7-4.7-45.8,12.2-62.2   c6.8-0.3,19.3,4,19.9-6.4c-4.3-7.1,4-10.2,1-14.4c0.2-1.6-1.5-1.3-2.4-2.3l0,0c0.9,0.1,1.9,0.4,2.3-0.8c3.5-1.4,2.3-4.6,1.8-7.5   c-3.4,2.5-9.3-2.9-4.6-4.9c0.6,0.7,1.2,1.3,1.5,1.7c21.8,3-7.4-19.3,4.6-26.9c0.7-7.1-4-13.6-3.4-21c-0.8-0.4-1.5-0.7-2.3-1.1   c5.5-3,16.9-2.4,18.2-10.8c-3.9,4.6-9.4,6.5-15.2,7.1c-2,2-4.5,1.8-7,2c-1.8,1.6-4.6-0.1-5.8,2.4c0.9,0.6,1.6,1,2.3,1.5   c-1.9,1.2-3.9,1.9-6.2,1.4c-1.3-1.2-2.7-0.9-4.3-0.6c-5.9,12-35.4,21.8-23.3,38.3c-2.1,1.3-3.4-2-5.6-1.6c-1,1,0.2,2.7-1.6,3.2   c-2.9-3.1-3.4-7.7-5.1-11.5c0.4-2.4-1.2-3.5-2.8-4.6c-2.9,3.4-5.3-1.2-8.6-1.3C424.4,117.7,421.8,120.4,420.1,124.4z M355.7,418.2   c2.5-2.1,5.1-4.1,7.6-6.2c-0.5-0.6-0.9-1.1-1.4-1.8c3.1-0.6,5.7-0.4,8.5,0.4c0.1,0.2,0.3,0.4,0.4,0.5c0.1-0.2,0.2-0.4,0.3-0.6l0,0   c0.3,0.2,0.6,0.4,0.7,0.7c0.5,1.2,1.5,0.6,2.4,0.9c0.6,1.1,1.6,0.6,2.5,0.6c1,0.1,2.2,1.3,3,0.2c1,1.2,2.1,1.7,3.7,1.9   c1.2-3,2-5.8,2.4-8.9c-2.3-1.7-5.7-0.3-8.5-0.8c-1.7-1.3-3.7-1-5.6-1.4c-1.1,3.7-1.1,3.7-2.6,4.6c0.4-1.2,0.8-2.4,1.2-3.4   c-1.3-1.1-1.7,0.9-3,0.4c0.3-0.8,0.7-1.5,1-2.3c-1.6-0.4-3.4-0.9-5.5-1.5c1.4,7.4-5.1,3.6-2.4,8.1c-2.5,4.5-6.4,7.4-9,11.7   C353.3,420.5,354.6,419.5,355.7,418.2z M431,113.7c0.1,0.2,0,0.8,0.5,0.3C431.3,113.9,431.1,113.8,431,113.7c0.1-1.9-1.2-4-3.2-2.5   C428.6,112.7,429.4,113.8,431,113.7z M441,100.7c-0.3-0.9-0.8-1.5-2.1-1.3c-0.2,0.6-1.5,0.9-0.4,1.9   C439.3,101.1,440.1,100.9,441,100.7c0.4,1,0.8,2,1.3,3.1c1.3-0.6,2.2-1.2,2.3-2.6C443.4,100.3,442.1,100.8,441,100.7z M441.7,111.4   c1.1-1.3,4.6-2.7,2.3-4.5C442.2,107.8,441.7,109.5,441.7,111.4c-0.7,0.1-1.6-0.1-1.2,1.5C441,112.3,441.4,111.9,441.7,111.4z    M375,173.6c-0.8,3.3-1.8,7.1-5,9c-1.3-4.3,3.9-8.4,3.1-12.7c-1.1,0.5-2.2,0.9-3.1,1.2c-8.7,17.5,7.4,26.2,10.5,42.1   c4.7,2.1-2.7,11.8-5,14c-7.3,6.8-10.8,18.9-20.5,23.9c-42.6,24.7-32,25.1-32.9,67.4c2,1.7,1.6,3.9,2.2,6.1c5,10.8,24.7,10.8,28.9,0   c32.2-17.3,27.9-36.9,36-67.1c4.6-10.8,6.9-23,13.6-32.7c3.5-5.1,5.4-22.4,0.3-26.5c-7.7,6-16.9-3-23.1-7.4   c-7.9-5.7-2.9-16.4-2.2-23.6C375.1,168.4,375.7,171.3,375,173.6z M431,64.6c2.4,0.1,4.6-0.2,5.9-2.8   C434.7,62.1,431.3,61.7,431,64.6c-1.9,0.6-1.9,0.7-0.6,2.2c0.4-0.3,0.8-0.5,1.2-0.8C431.3,65.5,431.1,65.1,431,64.6z M372.9,201.8   c-1.5-2.4-2.3-5.2-4.1-7.4c-6.2,3.1-12.5,5.3-14.9,12.3c-4.1,10.3-10.5,22.7-6.7,33.4c1.8-1.3,3.2-6.5,5.6-3   c-3.3,6-7.8,11.6-10.7,17.7c16.2-3.6,21.2-20.6,31.5-30.8c3.5-2.1,4.3-6,5.6-9.5c-0.7-0.6-1.4-1.2-2-1.8   C376.6,208.8,376.9,203.9,372.9,201.8l-0.1,0.2L372.9,201.8z M362.8,539.7c3.4-19.5-26.5-13.3-24.1-38.1c7.7-7,13.2-17.9,24-18.9   c-1.1-2.6-3.5-2.7-5.2-3.5c-15.5,3.1-30-7.1-45.9-4.2c-1.3-1.1-2.7-1.9-4.7-1.8c-4.9,7.6-4.9,17.3-5.6,26.1   c-2.9,11.9-1.4,16.8,6.3,26c-2.8,8.3-8.8,15.9-8.3,25.2c2.2,1.9,2.1,4.5,2.2,7.1c0.6,8.8,3.6,16.9,8.3,24.4   c6.8,9.8,22.5,16.1,33.3,9.4c0.4-4.7-1.3-7.9-2.4-11.7c-2.7-1.4-1.1-4.3-1.9-6.4c-6.2-2-5.4-5.9,1.2-4.5c0.2-1.5,0.5-2.7,0.7-3.9   c-11.3-3.4-10.2-8.7,1.3-5c0.1-1.5,0.2-3,0.3-4.5c-4.2-0.5-15-10.5-5.8-10.2c2.7,1.9,4.9,4.4,8.2,5.5c0.7-0.6,1.2-1.1,1.7-1.5   c-2.2-2.7-15.2-19.3-4.5-16.7c3.7,3.9,4.4,13.4,11,13.3C356.7,545,360.9,543.3,362.8,539.7L362.8,539.7z M379.7,182.8   c-0.2,0.9-0.2,1.8,0.6,2.5c0.3,3.1,2.4,5.1,4.8,6.7c0.9-0.2,0.5-1,0.8-1.5l-0.1,0.1c2.4,1.1,4.1,3.5,6.9,3.2c0.5,0.3,1,0.7,1.5,1   c-0.4,0.3-0.8,0.6-1.2,0.9c5.1,1.9,11.5,0.9,16.4-1.5c-0.2-1-0.4-1.2-0.9-2c-4.5-0.9-9.3-1.1-12.3-5.4c-6,0.8-5.1-10.4-4.9-14.6   c2.9-5.8,8-10.4,14.3-12.8c-6.6-3.6-15.8,1.8-21.3,5.8C379.6,164.8,379.6,179.2,379.7,182.8z M414.1,183.4   c20.3,5.7,18.5-21.3,9.2-22.9c-8-2.8-9.6-1.8-15.5,4.5c-0.3-0.7-0.7-1.5-1-2.2c-23.4,7.7-10.8,32.7,9.4,23.8   c-1.8-0.8-3.5-1.6-5.1-2.4c0.1-0.6,0.1-1,0.1-1.4l0.2,0l0.2-0.1C412.5,183,413.3,183.2,414.1,183.4z M404.1,273.2   c-3.5,4.4-7,8.6-12.5,11.3c8.5,5.8,25,0.7,31.2-6.2c-4.3-3.7-8.6-7.4-11.2-12.4c-1.1-0.4-1.9-0.7-2.8-1   C407.1,267.7,405.6,270.5,404.1,273.2L404.1,273.2z M324.3,471.3c5.7-0.4,10.4,3.6,15.9,3.7c-1.4-5-2.7-9.7-3.9-14.2   c-6.4-0.8-12.4-1.4-18.7-1.9c-1,4.1-1,8-1.6,12.3C318.8,471.7,321.6,471.2,324.3,471.3z M352,489.7c-3.6,4.3-7.1,8.6-10.7,13   c-0.8,7.5,5.1,16.3,13.1,15.6c-1.8-10.2-2.9-19,1.7-28.6c-1.2-0.1-2-0.2-2.9-0.2C352.6,488.9,352.2,488.8,352,489.7z M319.1,279.5   c1.1-16.8,17.4-18.2,24.7-35c-3.3-8.5,0.4-16.7,1-25.1c-5,8.2-2.8,18.3-6.8,27c-2.2,0.2-3.5,2-4.8,3.7c-6,6.4-15.6,8.8-18.3,18.2   c-6.5,11.2-1.1,24.1-3.6,36.4c2.6,3.3,4.2,7.2,8.1,9.2c1-4,1.4-8.8,0.8-12.9C316.8,294.6,319.8,286.5,319.1,279.5z M424.8,209.7   c-4.7-4.6-11.1-8.2-13.9-13.7c-1.5,0.6-3.1,1.2-4.6,1.8c2.4,10.2,3,22.2-3.5,31c2,3.6-1.4,7.6-2.1,11.2   c-9.7,5.3-4.3,27.7-12.6,36.2c1,2.3,0.7,3.9,0.2,6.4c11.8-7.1,16.4-20.2,21.2-32.3c5.9-3.1,1.9,6.5,1.7,9.3   c0.9,0.3,1.8,0.6,2.9,0.9c0.4,3.5,2.9,5.2,5.4,6.9c-0.2,0.5-0.4,1-0.7,1.5c0.9,1.6,2.9,0.9,4.6,1.8c-0.4,0.7-0.6,1.1-1,1.7   c1.2,0.9,2.4,1.7,3.7,2.7c9-12.8,8.4-29.6,7.1-44.6c0.3-0.3,0.5-0.6,0.8-0.9c3.1,15.7,2.5,32.7-5.4,46.9c3.1,2.6,7.2,3.5,9.1,7.6   c-4.9,0.5-8.5-2.3-12.2-3.9c-6.5,5.7-14.5,6.5-22.2,8.7c-4,3.3-9.1,0.2-13-1.8c-3.6,3.5-8.7,7.5-7.6,12.9c-3,4.9-5.5,10.1-9.2,13.8   c-3.6,2.5-8.1,6.1-8.8,10.4c-1.6,1.5-4.1,0.5-4.9,2.5c5.7,23.6,7.9,49.2,7.7,73.5c13.7,4.2,27.7,5.2,41.8,5.8   c15.9-0.1,32,10.4,47.2,1.9c-4.2-3.8,2.6-17.5,2.8-23.4c-2.6-2.1-2.6-2.3-1.6-4.9c3.6-7.4,6.4-15,8.7-22.9   c2.2-18.2-5.1-36.4-0.5-55.2c6.9-5.1,8.3-14.6,8.2-23c-0.6-0.4-1.1-0.7-1.8-1.1c-1-13.1-2.4-26.5-8.6-38.2   c-20.4-9.6-30.9-30.4-43.6-47.9c0.5-4.1-3.3-0.9-5.3-0.5c-0.4,1.2-0.6,2.1-0.9,3c2.6,5.9,9,9,11.7,15   C425.4,209,425.1,209.4,424.8,209.7z M355.8,501.1c-1.2,2.1-0.9,4.3-0.4,6.5c5.5,2.2,11,4,15.2,8.6c-5.3,0.8-9.5-2.5-14.6-3.4   c0.5,2.2,1,4,1.4,5.8c3.2,1.5,5.9,3.2,7.6,6.3c-0.2,1.4-0.5,2.7-0.8,4.3c0.5,1,1.1,2.1,1.5,2.8c50.6,17.8,92.5,66.1,148.8,64.5   c12.7-1.4,28.7,1.6,35.8-11.8c-1.1-0.3-1.9-0.5-2.7-0.7c1-6.2,8-10.8,5.5-18.3c-1.2-11.5-5.4-23.2-10.8-33.2   c-12.7,11.2-30.1,10.7-45.4,16.4c3.6,7.3,5.4,14.7,2.7,23.2c-7.9-42.5-42.2-57.8-81.9-59.1c-20.3-5.3-37.5-18.5-57.5-24.6   C358.6,492.7,357.2,496.8,355.8,501.1z M546.2,531c2.5,6.8,5.1,13.3,8.2,19.9c0.7-6-0.6-17.2-4.1-24.3   C548.9,528.2,547.6,529.5,546.2,531z M489.5,68.6c-2.7-0.6-5.1,0.7-7.8,0.9c0.2,0.6,0.3,0.9,0.5,1.3c4.2-1.7,7.5-0.2,8.3,4.4   c3.2,1.4,3.7-2.5,3.3-4.9c-0.9,0.5-1.7,0.9-2.6,1.3C490.6,70.5,490.1,69.6,489.5,68.6z M476.2,85c2.3,0.6,8.2,0.4,9.1-1.6   c-0.9-0.3-1.8-0.7-2.9-1C480.7,83.7,477.8,82.2,476.2,85z M461.4,96.2c-1.4,2-1.4,2-1.6,3.4c2.7-1,6-3.4,7.8-5.8   C465.1,93.8,463.5,95.5,461.4,96.2z M435.1,80.6c1.2-2-1.5-3.8-2.8-5.3c-0.8,1.1-1.4,2.1-2.2,3.3C431.9,79.3,433.5,80,435.1,80.6z    M462.6,83c-1.9-0.8-5.2-5-6.2-1.9c1.3,1.2,2.7,2.4,4.2,3.7C461.3,84.2,461.8,83.7,462.6,83z M445.4,81.9c-0.9-0.9-1.2-2.5-2.4-2.5   c-0.7,0.9-1.4,1.9-2.2,3.1C442.6,84.2,443.9,84.1,445.4,81.9z M421.9,96.4c1.8,1.6,2.8,4.3,4.9,4.9c0.9-0.6,1.5-1.3,0.8-2.6   c-0.9-0.2-1.8-0.4-2.6-0.6c-0.7-1-1.3-1.8-1.9-2.6C422.6,95.8,422.4,96,421.9,96.4z M473,87.1c-2-1-6.6,2.9-6.3,4.7   C469.3,91.1,471.4,89.6,473,87.1z M471,84.7c-1.1-1.5-2.2-2.7-3.6-3.8c-0.3,0.4-0.7,0.7-0.8,0.9c1,1.5,1.8,2.8,2.8,4.4   C469.9,85.7,470.4,85.2,471,84.7z M413.8,97.9c-1.4,1.6-2,2.2-1.8,4.2c2.3-0.3,3.4-1.1,3.5-2.6C415.2,99.2,414.7,98.8,413.8,97.9z    M452.8,100.1c-1.4-1-2.4-1.8-3.4-2.5c-1.7,0.9-1.8,2.1-1.3,3.5C450.2,100,450.2,100,452.8,100.1z M422.2,104.1   c-1.6,1.8-1.6,2.7-0.2,4.1C423.8,106.4,423.8,106,422.2,104.1z M411.7,107.1c-1.7-3.1-4.4,2.1-1.9,2.6   C410.4,108.8,411,108,411.7,107.1z M426.7,70.1c-2,0.2-2.4,0.5-2.5,1.9c0.5,0.3,1,0.7,1.5,1C426.9,72.3,427.4,71.5,426.7,70.1z    M416.7,79.4c-2,1-2.3,1.5-2,3.4C417.2,81.5,417.2,81.5,416.7,79.4z M472.9,67.4c0.9-0.7,1.9-1.2,1.6-2.6c-1,0-2.1,0-3.4,0   C471.8,65.8,472.3,66.6,472.9,67.4z M501.4,67.7c-1.3,1-2.6,1.7-1.8,3.6c1.1-0.7,2.6-0.7,2.7-2.7C502.1,68.4,501.8,68.1,501.4,67.7   z M422.2,77c-1.2,1.1-3.3,4-0.9,4.3C422.1,80.2,422.9,79,422.2,77z M481.6,86.9c-2.5,0.2-3.3-0.7-4.9,1.1   C478.7,88.4,480.1,89,481.6,86.9z M418.1,115.3c0,1.5,0,2.5,0,3.6c1.5-0.6,1.6-1.9,2.3-3.2C419.5,115.5,419,115.4,418.1,115.3z    M445.9,122.8c0.2-1.2,1.4-2.4,0.7-3.5C444.6,120.8,444.4,121.6,445.9,122.8z M412.4,141.7c1.5-2.2,0.7-3.5-1.4-2.9   C411.4,139.7,411.8,140.4,412.4,141.7z M456.8,103.9c-2.5,0.1-2.6,0.2-2.5,2.6C455.4,106,456.3,105.2,456.8,103.9z M412,123.6   c1.7-2.1,1.8-2.6,0.3-3.5C411.5,121,411.8,122.1,412,123.6z M440.3,118.2c0.2,0.2,0.6,0.6,0.8,0.8c1.6-0.9,2.1-2.5,0.3-2.9   C441,116.8,440.7,117.3,440.3,118.2z M419.2,77.9c0-1,0-1.6,0-2.8c-0.9,0.7-1.4,1-2.1,1.6C417.9,77.1,418.4,77.4,419.2,77.9z    M419.5,137.3c-0.5-0.2-0.8-0.3-1-0.4C417.8,138.1,418.8,138.5,419.5,137.3z" />
	<path fill="#050507" d="M463.1,419.9c1.6,0,3.3,0,5.4,0c-1-0.7-1.6-1.1-2.3-1.6c3.1,0,6.9-0.6,8.6,2.6c4.6,5.8,10.5,10.7,15.2,16.5   c-0.3,0.3-0.7,0.6-1,1c-5.2-2.5-17.9-10.8-16.6-17.3C469.8,418.4,466.2,422.5,463.1,419.9z" />
	<path fill="#0E0F14" d="M489.1,438.4c0.3-0.3,0.7-0.6,1-1c12.7,6.3,21.8,17,30.9,27.6c-1.2,0.8-3.5,0.7-3.4,2.5   c-1.7-1-0.1-2.3,0.9-3.1C509.5,454.4,500.4,445.6,489.1,438.4z" />
	<path fill="#C2C2C2" d="M509.3,70.8c-0.6,0.7-1.4,1-2.3,0.7C507.5,70.5,508.4,70.7,509.3,70.8z" />
	<path fill="#C2C2C2" d="M506.2,71.5c-0.3-0.1-0.5-0.3-0.8-0.4c0.3-0.3,0.6-0.6,0.8-1C506.2,70.6,506.2,71,506.2,71.5z" />
	<path fill="#C2C2C2" d="M506.3,70.1c0.2-0.3,0.4-0.6,0.6-0.9C506.7,69.4,506.5,69.8,506.3,70.1z" />
	<path fill="#5876E8" d="M489.1,438.4c11.3,7.2,20.4,16,29.5,26.1c-2.7,1.6-1.5,2.9,0.3,4.5c10.9,9,39.8,47.5,25.4,59.5   c-5.6-20.9-20.7-36.2-35.8-51l0,0c-0.2-0.3-0.5-0.6-0.7-0.8l0,0c-0.3-0.3-0.5-0.6-0.8-0.8c0,0,0,0,0,0c-0.5-0.8-1.1-1.5-1.7-2.2   l0,0c-0.2-0.3-0.5-0.6-0.7-0.9l0,0c-0.3-0.5-0.6-1-0.9-1.4c-0.3-1.3-1.6-0.5-2.3-1.2c-0.8-1-2-2.1-2-3.8c0-3.8-2.5-6-4.6-8.8   c2.3-0.4,4.3-0.7,6.4-1.1c-2.3-2.8-7.2-0.5-10.4-0.3c-0.1,1-0.1,1.5-0.3,2.4c-1.6-0.2-3.2,0.1-4.4-1.1c4.1,0.7,2.2-5.2-0.6-5.4   c-1.5-0.4-2.1-0.7-3.3-2.1c4-1.1,7.9,0.1,10.9-2.9c-3.1-4.1-10-0.8-14,0.2c-2.5-2-4.6-3.6-6.8-5.6c-0.6-3-0.6-3-2.6-5.7   c2-2,5.4,0.5,7.3-2.2c-3.3-0.4-6-0.1-8.7,0.8c-2.4-2.4-4.1-5-5.5-8.1c-3.4-0.5-15.7-5.3-16.5-0.9c4.5,0.2,9,0.6,13.1,2.4   c3.4,9.1,12.8,13.6,17.5,21.9c1.7,4.2,8.2,3.6,9,7.7c-6.3,0.8-14.2-2-19.4,2.1c8.8,0.1,16.9,1.6,25.4,1.5c-0.2-0.8-0.4-1.5-0.6-2.2   c2.9,0.2,3.7,2.6,5.1,4.5c-0.2,0.8-0.3,1.5-0.5,2.2c1.4,2.7,3,5.3,5.3,7.4l0,0c0.2,0.3,0.5,0.6,0.7,0.9l0,0c0.5,0.8,1,1.6,1.6,2.3   l0,0c1.1,1.8,2.2,3.5,3.3,5.3c-5.8,0.5-22-3-26,0.6c8.9,2.8,18.3,3.6,27.3,1.7c1,0.8,1.9,1.5,2.6,2.1c0.6-0.3,0.9-0.4,1.3-0.6   c13.1,12.2,22.7,26.9,29.5,43.5c-11.3,14-33.7,8.4-47,18.3c-2.7-2.4-4.7-4.8-5.2-8.5c-7.7-1.7-8.7-10.8-15.8-13.8   c9.2-0.6,17.2,2.3,26.5,3.2c-12.9-8.1-30.7-2.8-44.1-11.3c11.7-4.1,23.8,6.2,35.2,3.1c0.5,0.9,0.4,0.6,1.8,0.3   c-1.1-0.2-1.4-0.2-1.8-0.3c-13-11.6-33.9-11.2-49.1-19.9c14.7-6,31.5,4.2,46.6,4.1c-8-5.4-17.7-6.8-25.9-11.1   c0.9-0.4,1.7-0.8,2.6-1.2c-15.5,0.3-31.5-5.3-47.4-6.7c-3-4.2-10.2-12.9-9.7-17.3c11.9,4.7,23.8,11.7,36.6,12.8   c-4.2-4.1-11.5-4.8-15.9-9c20.6,1.2,41.8,5.6,62.7,5.3c-19.9-7.3-93.3,2.5-90-28c5.1,1.9,9.8,5.2,15.5,5.4   c-4.7-4.7-10.6-8.1-16.3-11.2c-0.4-6.1-0.9-12.2-1.2-18.4l0,0c1.3-1.1,2.6-2,4-3c2.3,3.6,3.7,8.5,7.6,10.7c4-2.7-1.4-10.5-1.9-14.3   c7.1-0.9,14.1,1.4,21.2,1.2c-1.6-1.8-0.7-3,0.1-4.9c3.6,0.5,7.2,1,11.1,1.6c0.7,0.5-1.1,2.3,1.2,2.5c0.5-0.8,1.1-1.7,1.8-2.8   c1.1-0.2,2.3-0.4,3.7-0.6c0.8,1.9,0.3,3.7-0.1,5.5c3.8,2,0.5-5.4,3.1-6.4c0,0.8-0.1,1.6-0.1,2.3c3.2,1.6,2.8-4.3,5-5.6   c0.6,2.6,0.5,4.6-0.7,6.5c3.9,1.5,9.2,4.9,13.2,3.2c1.3-0.4,2.2-0.3,3.2,0.8C471.2,427.6,483.9,435.9,489.1,438.4z M431.8,439.8   c-1.3-0.1-2.3,0.5-3.4,1.9c10.7-3.2,22.8-2.4,33.1-6.2C452,433.3,441.4,438.4,431.8,439.8z M470.1,465.2c-16,0.5-32-0.7-48,0.2   c19.4,1.7,43.8,4.8,62.1-1.6C479.7,462.8,474.9,465.6,470.1,465.2z M450.2,441.8c4.8,1.4,9.3,2.2,14.3,1.7c-3-3-11.9-4.9-14.1-3.2   C450.3,440.7,450.3,441,450.2,441.8z M433.6,424.4c-3.8-1.3-16.6,0.9-16.8,5C422.3,426.4,427.5,426,433.6,424.4z M439.6,420.1   c1.9,0.5,3.8,0.9,5.9,0.2C444.5,418.3,441.4,418.9,439.6,420.1z" />
	<path fill="#CCD2E9" d="M406.4,288c6.1-1.1,12.6-4.8,17.5,0.9c7.6,4,20.5,5.8,28.5,4.3l0,0c1.4,0.3,2.5-0.3,3.5-1   c0-0.4,0.1-0.7,0.1-1.2c2.2-0.1,4.6,0.3,6.1-2c-4.4-4.7-10.3-5.4-15.4-8.7c-4.9-3-9-8-13.3-12c5.8-29.2,1.4-52.8-19.4-74.6   c0.3-0.8,0.5-1.8,0.9-3c0.9-0.3,2-0.7,3-1.1c15.3,16.3,24,39.9,45.9,49.5c6.2,11.7,7.6,25.1,8.6,38.2c0.6,0.4,1.1,0.7,1.8,1.1   c0.1,8.4-1.3,17.9-8.2,23c-4.6,18.8,2.7,37,0.5,55.2c-2.3,7.8-5.2,15.5-8.7,22.9c-1.1,2.6-1,2.8,1.6,4.9   c-0.1,5.9-6.9,19.5-2.8,23.4c-16,8.5-33.4-2.1-50.2-2.4c-1.2-14.9-3.7-31.1-13.8-42.9c-1.1-24.9,8.1-48.5,11.8-72.9   C405.1,289.1,405.8,288.5,406.4,288z M431.1,324.7c0.8,0.4,1.1,1.8,2.4,1.3c1.9-4.1-2.7-9-5.3-12.1c-4.3-3.9-6.9-12.7-14-11.1   c-0.1,1.2-0.1,2.3-0.2,3.4C410.5,309.3,428.1,324.4,431.1,324.7z M427.2,393c3.4,4.4,1.3,12.5,6.3,15.3c7.2-4.9-1.8-25.8-6.2-31.5   c-0.7,2.8-0.2,5.7-1.6,7.7c-0.4-0.5-0.8-1-1.4-0.3c1.4,2.6,4.1,4.2,2.2,7.6C426.5,392.1,427,392.6,427.2,393z M425.6,338.5   c-4-6.5-9.7-11.9-13.2-19c-1.5,0-2.9,0-4.2,0C402.3,325.8,416.9,345.1,425.6,338.5z M441,330.8c3.3-0.5,4.7-2.7,6.9-4.6   c4.3-4.8,11.7-5.7,13.7-12.7c-0.4-0.4-0.8-0.7-1.3-1.2C454.8,319.8,444.5,321.7,441,330.8z M452.5,363.4   c12.1-2.2,12.3-20.9,9.9-30.3c-1.3,2.5-1.3,2.5-1.1,4.6C462.2,347.4,460.3,357.1,452.5,363.4z M454.5,365.4c-1,0.5-1,1.2-1,2.1   c1.2,5.4-0.6,10.4-1.5,15.5C457.1,379.3,456.3,370.5,454.5,365.4z M419.8,374.1c1.4-3.6,0.5-5.6-2.4-5.5   C418.2,370.4,418.9,372.1,419.8,374.1z M435,349.2c1.4-1.5,4-4.4,1.1-5.3C435.7,345.4,434.5,346.8,435,349.2z M422.9,379.7   c-0.4-1.5-2.4-2.6-3.4-1.1c0.7,1.3,1.4,2,2.7,2C422.5,380.2,422.7,379.9,422.9,379.7z M433.5,350.8c-0.5,1.6-1.8,4.6,0.8,3.7   C434.9,353.4,435.5,352.2,433.5,350.8z M437.8,341.4c1.4-1,2.7-2.1,2.2-4.4C438.4,338.2,437.9,339.7,437.8,341.4z M451,388.3   c0,1.6,0,2.5,0,3.7C452.4,390.1,452.4,390.1,451,388.3z" />
	<path fill="#FBDFD3" d="M365,525c-1.7-3-4.5-4.8-7.6-6.3c-0.4-1.9-0.9-3.7-1.4-5.8c4.6,1.1,8.3,3.1,12.9,3.7c1.5,2,2.9-0.9,4.9,0.8   c0,0.4,0,0.7,0,1.3c1.4,0.2,2.6,1.4,4.2,1.2c0-0.4,0.1-0.8,0.1-1.2c1.9-1.2,3.8-0.2,6-1c-6.8-7.7-19.6-7.9-28.1-14.4   c-0.4-5.2,2.9-9.9,4.2-14.9c20.1,6.1,37.2,19.3,57.5,24.6c39.7,1.3,74.1,16.6,81.9,59.1c2.7-8.5,0.9-15.9-2.7-23.2   c15.2-5.6,32.6-5.2,45.4-16.4c5.4,10.1,9.6,21.7,10.8,33.2c2.6,7.5-4.4,12.1-5.5,18.3c-14.3,12.2-28-4.3-31.4,7.7   c-11.2-1.2-22.2-1.5-32.9-4.4c7.8-0.2,15.3-0.7,21.7-5.2c-3.8-3.5-9.2-2.5-14.2-2.7c-6.3-8.1-18.2-7.5-26.4-13.2   c-12.7-7.6-26-15.3-38.2-22.9c-3.3,0.7-6.6-3.8-9.5-1.8c14.3,14.5,32.4,27.3,51.2,34.6l0,0c-29.1,0.6-52.3-26.7-76.1-40.8   C383.5,530.4,373.6,529.4,365,525z M530.5,575.9c-4.1-1.3-8.7,6.4-6.8,9.1C525.9,582,527.4,578.5,530.5,575.9z M367.4,498.3   c-1.9-2.4-5.2-4.7-7.2-2.1C362.8,496.9,365.1,497.6,367.4,498.3z M537.5,574.9c0.3-1.2,1.8-3.4-0.1-3.7   C536,573.7,536,573.7,537.5,574.9z M370.6,500.1c2,1.2,2.3,2.1,4.2,1.7C373.6,499.6,373.6,499.6,370.6,500.1z M503.6,575.3   c1.1-1.2,1.7-3-0.4-2.9C501.5,573,502.6,574.3,503.6,575.3z M540.4,567.4c-0.9,0.9-0.9,1.8-0.1,2.9   C541.6,569.5,542.5,568,540.4,567.4z M529,559.2c-0.9-1.5-2-1.4-3.4-0.9C526.7,558.9,527.4,559.8,529,559.2z M395.1,525   c-1-2-2.3-1.8-3.8-1.4C392.8,524.7,392.8,524.7,395.1,525z M388,524.2c0.7-1.1,0.3-1.5-0.5-2.2c-0.3,0.3-0.6,0.6-0.9,0.9   C386.9,523.2,387.2,523.5,388,524.2z" />
	<path fill="#4B65C5" d="M429.4,471.3c4.4,4.2,11.6,4.9,15.9,9c-12.9-1.1-24.7-8.1-36.6-12.8c-0.5,4.3,6.8,13.1,9.7,17.3   c12.5,2.4,26.8,2.9,38.7,7.4c-4.4,1.5-8.7,2.9-13.1,4.4c-6.2-2.1-13.4-3.4-19.7-4.2c3,5.1,9.1,4.2,13.7,6.7   c-1.8,0.9-3.6,1.9-5.3,2.8c-5.3-3.9-10.1-8.6-15.2-12.7c-0.1,0-0.2,0.2-0.6,0.6c4.1,4.8,9,8.7,14,12.5c0,0.4,0,0.8-0.1,1.2   c-1.6,1.5-3.5,1.6-3.8,4.3c2.3-1.2,3.9-2.3,5.5-3.4c0.5,0,1-0.1,1.5-0.1c0.2,0.1,0.4,0.2,0.6,0.2c2.7,2.3,5.8,4,8.6,6   c-1.2-0.2-2.3-0.4-4.3-0.7c1.8,1.6,3,2.6,4.3,3.7c-13.5-2-26.7-3.2-39.4-8.6c4.5-3.9,11.1-6.5,15.6-10c-6.7-0.9-11.8,7.6-18.5,8.9   c-11-4-21.6-13.9-33.2-14.2c-1.2-1.2-5.2-2.5-2.8-4.1c1.3-10.9-12.4-7.5-19.1-9c-9.2-16.4-4.1-36.3,4.1-52.2   c15.4-2.3,9.5-17,32.7-7.3c0.7,1.1,2.1,0.4,3.1,0.8c0.6,0.9,1.2,0.9,2.4,0.1c-1-0.5-1.7-0.8-2.4-1.1l0,0c-3.1-2.2,1.9-6.6,0.7-10.3   c0.5-0.1,1-0.2,1.5-0.3c0.8,1,2,0.6,3.1,0.9c0,0-0.1,0-0.1,0c-0.6,3.5-3.4,6.1-2.6,9.9c2.7-2.7,2.5-6.2,4-9.2   c0.6-0.1,1.2-0.1,1.8-0.2c0.2,0.1,0.4,0.1,0.6,0.1c0.3,3.4-1.9,5.4-1.9,8.9c3-2.2,2.6-5,3.8-8.1c1.6-0.2,3,0.2,4.4,1.1   c-0.7,2.1-1.3,4.1-2,6.1c1.3,1.3,2-1.2,2.7-2c0.1,0.5,0.2,0.9,0.3,1.4c3.7-1,6.9,0.7,10.5,0.3c-3.3,2.1-7.1-0.8-11,1.5   c3.9,0.2,6.3-0.2,9.5,0.7c-0.4,0.1-0.7,0.2-1.2,0.3c0.4,3.9,5.8,11.6,1.9,14.3c-3.9-2.2-5.3-7.1-7.6-10.7c0.4-0.7,0.8-1.3,1.2-2   c-7.5,3.1-13.2,8.4-20.9,11.2c-0.5-2.8-1.4-6.3-0.2-8.9c2.9-0.6,5.8,0.2,9.3-0.7c-8.2-4-17.2,0-24.6,4.2c0-0.7-0.1-1-0.1-1.4   c1.2-1.8,2.6-3.4,2-6c-2.6,2-2.8,5-4.3,7.9c-0.2,3.3-7.4,8.9-1.4,10.2c2.6-6.9,9.6-11.6,16.9-13.4c0.9,3.2,0.5,6.3,0.4,9.4   c-8.5,5.4-21,7.6-25.5,17.3c7.3-6.4,21.8-13.8,25.7-14.5c1.1,5.2-4.2,15.2,2.3,17.5c5.4,0.5,4.9,7.5,7.9,11   c5.1,8.2,10.7,19.6,20.4,22.4c-8.8-7.4-15.6-16.3-20.6-26.6c-2.2-5-3.4-7.7-9-8.7c-0.5-5.9,0.4-11.1,0.8-17.1   c5.1-3,10.5-6,15.8-8.8c0.3,6.2,0.8,12.3,1.2,18.4c5.7,3.1,11.6,6.5,16.3,11.2c-5.6-0.2-10.3-3.5-15.5-5.4   c-1.9,14.2,11.5,16.5,22,21c-0.4,0.1-0.8,0.3-1.4,0.5c2.6,0.9,4.4,1.2,6.9,1C429.6,471.1,429.4,471.3,429.4,471.3z M396.5,492.8   c2.7,0.1,4.2-1.7,6-3.4c-0.4-0.4-0.6-0.7-1-1C399.8,489.8,398.1,491.3,396.5,492.8c-0.4,0.1-0.8,0.2-1.4,0.3   C396,493.6,396.2,493.3,396.5,492.8z M381.6,482.2c3.2-0.9,10-1.7,10.7-4C388.5,478.9,384.9,479.5,381.6,482.2z M365.3,471.6   c-3.4,0-7-1.4-10.2-0.6C357.9,473,362.1,472.1,365.3,471.6z M400.3,498.9c0.8-0.5,1.5-1,2.5-1.7   C401.2,496.8,401.2,496.8,400.3,498.9z" />
	<path fill="#FBDFD3" d="M388.3,197.2c4.5,1.7,10.4,5.3,14.7,1c5.2,4.7,2.9,19.3,0.5,25.3c-7.2,10-9.6,22.7-14.4,34   c-8.1,30.3-3.7,49.7-36,67.1c-0.4,0.9-0.7,1.8-1.3,3c-1.9,1.2-4,2.6-6.2,3.9c-8.1-2.2-13.7-9.9-19.2-16c0-6.6,1.1-12.5,1.9-19.1   c2.9-0.4,5.7,1.4,8.8,0.1c0-0.7,0-1.6,0-2.5c-1.5-1.4-2.5-3.2-4.8-3.5c-0.5-0.1-0.8-0.9-1.2-1.4c0.7-1.4,2.3-2.5,2.2-4.5   c-1.8-0.5-2.5,1.1-3.7,1.5c-0.4-0.1-0.7-0.2-1.1-0.2c-4.1-15.6,17.9-20,26.3-28.9c6.7-7.9,16.5-13.1,22-21.9   c3.1-8.1,9.8-15.4,10.5-24.1c1.2,0,2.2-0.1,3.4-0.1c6.8-7.9-1.4-6.8-3.3-13.2C387.7,197.6,388,197.4,388.3,197.2z M355.6,279.4   c-2,3.6-18.7,16.4-13.1,19.1c4.9-5.6,15.6-11.7,14.1-20.2c1-1.6,3.1-2.4,3.1-4.8C356.7,272.8,355.1,276.8,355.6,279.4z    M392.4,226.4c2.7,0.9,8.6-7.9,4.4-8.4C394.9,220.3,393.7,223.1,392.4,226.4z M384.2,237c2.1-0.4,5.5-2.3,4.1-4.5   C386,230.8,383.9,234.8,384.2,237z M363.5,269.5c2.9-2.1,3.3-2.9,2.4-4.7C364.2,265.9,363.5,267.4,363.5,269.5z M334.5,282.1   c0.3,0.2,0.6,0.3,1.2,0.6c0.5-1.2,2.4-3,0.4-3.7C335,279.7,334.4,280.7,334.5,282.1z M369.4,259.7c-0.8,2.1-1.5,2.5-0.3,4.2   C370.3,262.7,370.7,261.7,369.4,259.7z M343.2,272.7c-1.9-0.7-2.6,2.4-0.6,2.7C343.8,274.8,344.1,273.9,343.2,272.7z M375.6,251   c-1.1,1.3-1.1,2.4-0.2,3.5C377,252.9,377,252.9,375.6,251z M347.7,267.2c-1.3,1.4-1.3,1.4-0.5,2.8   C348.4,269.1,348.4,269.1,347.7,267.2z M392.8,212.1c0.8,1.3,1.6,1.6,2.9,1.4C395,212.1,394.3,211.7,392.8,212.1z M390,229.7   c2.5-1.8,2.6-1.9,1.2-2.9C390.9,227.5,390.7,228.2,390,229.7z M396.1,214.8l0.2-0.3l-0.3,0L396.1,214.8z" />
	<path fill="#E4E4EB" d="M352.7,545.8c-6.6,0.1-7.3-9.4-11-13.3c-10.7-2.6,2.2,13.9,4.5,16.7c-0.5,0.4-1,0.9-1.7,1.5   c-3.2-1.1-5.5-3.6-8.2-5.5c-9.2-0.3,1.6,9.6,5.8,10.2c-0.1,1.5-0.2,3-0.3,4.5c-11.5-3.8-12.5,1.6-1.3,5c-0.2,1.2-0.4,2.4-0.7,3.9   c-6.6-1.4-7.4,2.5-1.2,4.5c0.7,2.1-0.9,5,1.9,6.4c1.1,3.8,2.9,7,2.4,11.7c-0.8,0.4-1.7,0.8-2.5,1.2c-8.2-4.5-20.7-3.1-26.1-11.3   c-8.3-16.2-10.8-21.2-7.7-39.3c1.1-22.2,15.8-8.2-1.4-35.2c2.8-10.5,2.8-22,6.3-31.8c15.9-2.9,30.4,7.4,45.9,4.2   c1.7,0.9,4.1,0.9,5.2,3.5c-10.9,1-16.4,11.9-24,18.9c-2.4,24.7,27.5,18.6,24.1,38.1c0,0,0,0,0,0   C358.1,538.4,355.5,542.8,352.7,545.8z" />
	<path fill="#B7BDD5" d="M406.4,288c-0.7,0.5-1.4,1.1-2,1.6c-3.7,24.4-13,48-11.8,72.9c10.1,11.8,12.6,27.9,13.8,42.9   c-13.2,0.8-26.1-1.9-38.8-5.2c0.1-24.3-2-49.8-7.7-73.5c0.8-2,3.3-1,4.9-2.5c0.7-4.4,5.2-8,8.8-10.4c3.7-3.8,6.2-9,9.2-13.8   c-1-5.4,4-9.4,7.6-12.9C398.9,292,398.4,290.3,406.4,288z" />
	<path fill="#FBDFD3" d="M478.6,92.2c2.5,0.5,5.4-0.4,7-2.3c-0.2-0.9,0.4-1.5,0.9-2.2c0.2,0,0.4,0,0.6-0.2c3.6-0.3,4.7,0.8,7.6,2.1   c-0.5,7.4,4.2,13.9,3.5,21c-12,7.6,17.1,30-4.6,26.9c-0.3-0.4-0.9-1-1.5-1.7c-4.7,2,1.2,7.4,4.6,4.9c1.3,5.4,1,6.5-4.1,8.2l0,0   c-1.9,0.2-4.9-0.2-4.7,2.6c0.1,1,0.8,1.1,1.6,1.2c2.2,0.1,3.8,1.4,5.5,2.4c-2.5,3.2-2.8,6.7-1,10.4c-0.4,9.6-14.6,8.2-20.5,4.8   c-0.4-0.8-1-0.7-1.7-0.6c-1.2-0.6-2.5-1.1-3.7-1.6c0.5-2.9-3.6-3.7-5.4-5.5c-1.1-1.5-2.3,0.2-2.8,0.1c-3.2-2.5-6.7-2.2-8.7-5.4   c-0.3-0.7-1-0.7-1.6-0.6l0,0c-0.3-0.3-0.5-0.6-0.8-0.8l0,0c-1.9-1.9-3.9-3.4-5.4-6.1c0.8-2.6-1-4.8-1.5-7.3c-0.8,0-1.4,0-1.9,0   c-0.2-0.8-0.4-1.4-0.6-2.1c-5.8,0.6-10.7-3.5-14.5-7.4c0.6-0.5,1.2-1.1,1.5-1.8c0,0,0,0,0,0c0.2-0.1,0.4-0.2,0.6-0.2   c-0.2-0.1-0.4-0.3-0.5-0.4l0,0c0.2-0.7,0-1.3-0.8-1.5l0,0c-1.3-1.4-1.2-2.7,0-3.9c2.9,0.2,1.7,5.2,2.5,7.2c1.5,0.7,2.5,1.5,3.4,2.8   c2.2-0.3,4.9,0.9,6.3-1c2.1-3.5,0-4.2-3.1-5c-0.5-0.8-1-1.5-1.5-2.4c0.5-0.9,1-1.7,1.3-2.3c1.1-0.1,1.9-0.1,3.2-0.2   c-2-2.3-3.3-4.1-5.2-6c0,0,0,0,0,0c0.3-0.3,0.6-0.6,0.9-0.9c1.8,0.5,3.5,1.7,5.2,2.5c1.7,3.8,2.1,8.5,5.1,11.5   c1.8-0.5,0.7-2.1,1.6-3.2c2.2-0.4,3.5,2.9,5.6,1.6c-11.1-15.8,15.8-28.2,25.1-37.7C476.9,92.2,477.7,92.2,478.6,92.2z M474.1,111.2   c5-4.5,11.3,0.3,17-0.1c6.9-7.7-19.7-6.5-21.3-0.7C471.5,111.3,471.5,111.3,474.1,111.2z M489,113.2c-4.8-0.1-8.9,0.6-12.1,4.4   c2.6,1.5,5.2,0.2,7.9,1.7c1.3-0.6,2.8-0.7,3.9-2.1C487.3,116,488.6,115,489,113.2z M456.4,137c-1.1-3.4-3.5-5.1-3.9-2   C453.6,135.8,454.6,136.1,456.4,137z M461.4,139.9c-1.3-2.2-2.2-3.3-4.2-2.9C457.6,139.7,458.9,139.8,461.4,139.9z" />
	<path fill="#EECABA" d="M428.6,545.7c12.7,5,23.6,14.3,35.8,20.6c8.2,5.7,20.1,5,26.4,13.2c5,0.1,10.4-0.8,14.2,2.7   c-6.5,4.5-13.9,5-21.7,5.2c10.7,3,21.8,3.2,32.9,4.4c3.3-12,17,4.5,31.4-7.7c0.8,0.2,1.7,0.5,2.7,0.7c-7.2,13.4-23,10.3-35.8,11.8   c-56.3,1.6-98.2-46.7-148.8-64.5c-0.4-0.7-1-1.8-1.5-2.8c0.3-1.6,0.5-2.9,0.8-4.3c8.6,4.4,18.5,5.4,26.8,10.4   c23.8,14.1,47,41.4,76.1,40.8c3.9,0.9,8.1,5.3,12,3.5c0.6-1.6-0.4-2.3-1.7-2.8c-8-2.5-14.4-9.4-22.9-9.6c3.4,4,8.4,5.8,12.6,8.8   c-18.8-7.3-36.9-20.1-51.2-34.6c1.3-1.4,3.4,0.1,4.8,0.6c1.7,1.4,4,0.6,5.6,1.9c-0.7,0-1.4,0-2.7,0c1.7,1.2,2.9,4.1,4.4,3.3   C428.8,546.9,428.7,546.3,428.6,545.7z M447.4,561.9c0.9,2.4,2.7,3.5,4.7,4.4C454,563.9,450,561.1,447.4,561.9z M436.4,555   c-0.5-3.3-0.9-4.1-3.6-3.6C434.3,552.8,435.3,553.9,436.4,555z M440.2,557.7c1.3,0.8,2.2,1.2,3.8,1.6   C443.3,556.9,442.3,556.5,440.2,557.7z" />
	<path fill="#FBDFD3" d="M389.6,274.9c5.5-9.8,2.2-29.6,11-34.9c0.7-3.6,4.1-7.6,2.1-11.2c6.5-8.8,5.9-20.8,3.5-31   c1.6-0.6,3.2-1.2,4.6-1.8c2.8,6,10.5,9.1,14.4,14.7c10.3,16.5,11.3,38.4,4.8,56.5c-8.9-4.7-7.6-22.3-17.4-23.8   c-0.4-0.4-0.7-1.1-1.6-0.7c-3.4,14.7-9.3,31.2-22.8,39.8c0.2-1.4,0.4-2.6,0.5-3.7C389.8,277.6,389.6,276.2,389.6,274.9z    M409.7,231.2c-0.3,1.8-0.6,2.9,0.2,4.1C412,234.2,410.7,233,409.7,231.2z" />
	<path fill="#FBDFD3" d="M458.7,195.3c0.8,13.4-2.9,26.1,2.9,39c-16.4-8.2-27.7-29.5-38.4-44.3c-0.4-0.1-0.9-0.4-1.6-0.6   c12-5,16.1-24.9,4-32.6c-0.6-3.8,2.8-7.1,5.7-8.9c2.6,0.2,4.8,0.4,7,0.6c4.6,12.9,11.1,26.1,14,38.8c1.6-0.1,0.5-1.9,1.4-2.5   C455.4,188.4,458.3,191.4,458.7,195.3z M453.5,194.9c1.2-1.4,2-5.3-0.6-4.9C452.5,191.5,452.2,193.1,453.5,194.9z M455.2,201.9   c1.5-2.5,1.5-2.6-0.3-4.1C453.8,199.9,453.8,199.9,455.2,201.9z" />
	<path fill="#EECABA" d="M387.2,211.1c-0.7,8.7-7.4,16-10.5,24.1c-5.5,8.8-15.3,14-22,21.9c-8.4,8.9-30.4,13.3-26.3,28.9   c0.4,0.1,0.8,0.2,1.1,0.2c-1.3,2.4-6.7,4.6-4.9,7.6c2.7-0.2,4.4-3.1,6.5-4.7c0.4,0.5,0.7,1.3,1.2,1.4c2.3,0.4,3.3,2.2,4.8,3.5   c0,0.9,0,1.7,0,2.5c-3,1.3-5.8-0.5-8.8-0.1c-0.8,6.6-1.9,12.5-1.9,19.1c5.5,6,11.1,13.8,19.2,16c-6.8,2.8-18.1,0.7-21.5-6.9   c-0.6-2.2-0.2-4.5-2.2-6.1c1.4-13.8-0.6-27.7,0-41.6c14.1-19.2,41-24,50.7-47.2c0.6-1.8,2.3-2.1,3.6-3.2c1.9-3.1,8.7-10.8,4.2-13.3   c-1.8-9.6-8.4-18.2-13.4-26.5c2.5-0.7,5.1-1.4,7.9-2.2c-0.3-2.4,0.9-5.9-0.7-7.9c0.2-0.6,0.4-1.2,0.6-1.8c0.3,0.3,0.6,0.7,0.8,1   c-2.2,10.5,4.5,16.3,12.6,21.4c-0.3,0.2-0.6,0.4-0.9,0.6c1.9,6.4,10.1,5.4,3.3,13.2c-0.5,0-0.9,0-1.3,0c0.3-0.4,0.6-0.7,1.1-1.2   c-2.6-1.6-5.8-3-8-0.4C384.2,210.6,385.4,210.8,387.2,211.1z M374.6,187.8c-1.7,1.5-0.9,4.4,0.9,5.4c2,0.4,1.8,4.3,3.9,2.9   c-0.1-3.1-3.6-4.3-3.8-7.4C375.5,188.4,375,188.2,374.6,187.8z M382,201.4c0.9-1.8,0.4-2.5-0.8-3.3   C380,199.6,380.8,200.3,382,201.4z M384.3,202.2c-0.7-0.9-0.8-0.3-1.3,0.2C383.5,202.9,383.8,202.6,384.3,202.2z" />
	<path fill="#CFCFDD" d="M311.6,475c-3.5,9.8-3.5,21.3-6.3,31.8c17.2,26.9,2.6,13.1,1.4,35.2c-3.1,18.1-0.6,23.1,7.7,39.3   c5.4,8.2,17.9,6.8,26.1,11.3c-10.3,4.8-24.6-1.6-30.8-10.6c-4.8-7.5-7.7-15.5-8.3-24.4c-0.2-2.6-0.1-5.2-2.2-7.1   c-0.5-9.3,5.5-16.9,8.3-25.2c-4.3-6.3-10.4-12.1-7-20.7c1.9-10.3,0.2-22.2,6.3-31.4C308.9,473.1,310.3,473.9,311.6,475z" />
	<path fill="#EECABA" d="M362.7,238.8c-4,7.1-12.8,13.6-20.6,16c2.9-6.1,7.4-11.6,10.7-17.7c-2.4-3.5-3.8,1.7-5.6,3   c-3.9-10.8,2.6-23.2,6.7-33.4c2.4-7,8.7-9.2,14.9-12.3c1.3,2,3.3,4.3,3.1,6.9c-1.5-1.1-1.4-3.5-3.2-4.6c-2,1.7-2.8,4.2-4.5,6.1   c-0.5,9.4-9,16.6,0.7,25.1c0,1.7,0,3.4,0,5C363.8,234.4,361.1,236.9,362.7,238.8z M355.1,233.5c-0.9,0.3-1.6,0.7-1.4,2.2   c2.4-1.9,4.9-2.2,6.9-5.1C358.1,231.1,356.6,232.4,355.1,233.5z" />
	<path fill="#EECABA" d="M451,181.4c-2.5-10.5-9.2-20-11.6-30.8c0.3,0,0.5,0,0.8,0c2.1,2.4,5.6,8.2,9.1,6.3c0.7-0.1,1.3-0.1,1.6,0.6   c2,3.1,5.6,2.9,8.7,5.4c0.6,0.1,1.7-1.7,2.8-0.1c-0.5,0.1-0.9,0.1-1.6,0.2c1.4,2.4,3.4,3.2,5.4,4c0.5-0.3,0.5-0.5,0.8-1   c1.2,0.4,0.7,1.5,0.8,2.3c-0.5,0.1-0.9,0.3-1.4,0.4c1.6,3.3,4.7,1.4,7.4,3.4c-5.8,7.3-11.8,14.3-15.1,23.2c-0.4-3.9-3.4-6.9-5-10.5   c-0.9,0.6,0.2,2.4-1.4,2.5c0.6-3.9,0.6-4-0.3-6.3C451.6,181.1,451.3,181.2,451,181.4z M450.7,161.9c-2.4,1,0.2,15.9,2.1,15.9   C453.9,172.7,452.5,166.8,450.7,161.9z" />
	<path fill="#92A3C4" d="M411.7,182.9c0,0-0.2,0.1-0.2,0.1c-3.6-2.3-12-4.2-12.1,1.8c-0.5,0.1-0.9,0.2-1.2,0.2   c-9.5-8.1-0.8-19.4,8.7-22.2c0.3,0.7,0.7,1.5,1,2.2c2.1,0.7,3.9,1.9,5.9,2.9c0.7-2.5-2.2-3.9-3.6-5.4c0.9-1.4,2.8-1.6,4-2.9   c1.5,0.2,3-0.3,4.5,0.5c0.1,2.6,0.4,5.1-0.5,7.5c1.3,1.9,3.3,1,4.9,2.1c0.6-3,2.2-4.8,4.9-5.4c5.5,10.3-0.2,23-13,19.1   c0.7-0.5,1.4-1,2-1.4c6.3,2.5,3.5-5.3,4.7-9.2c-0.3-0.3-1-1.1-1.5-1.6c-1.5,0.1-2.5,0.2-3.5,0.2c-1.7,2.5-5,3.2-6.3,6.1   c1.3,1.8,2.6,3.5,3.9,5.3C413.3,182.8,412.5,182.8,411.7,182.9z M405.7,174.5c-0.2-2.6,0.7-4.4-0.8-6.3   C403.1,171.4,403.2,172.4,405.7,174.5z M407.3,175c-1.6,1.7-1.6,1.7-0.3,3C407.1,177.1,407.2,176.4,407.3,175z" />
	<path fill="#B7BDD5" d="M452.4,293.2c-8.1,1.8-18.3-0.8-26.6-3c-3-1.4-5.1-5.1-8.7-4.6c2.8-1.8,5.5-3.6,8.4-5.4   c3.8,1.6,7.3,4.5,12.2,3.9c-1.9-4-6.1-5-9.1-7.6c1.3-3.4,3.3-6.7,4.6-10.2c0.1,0.6,0.1,1.3,0.2,2.1c4.3,4,8.4,9,13.3,12   c5.1,3.3,11,4,15.4,8.7c-1.5,2.3-3.9,1.9-6.1,2c0,0.5-0.1,0.8-0.1,1.2C454.9,293,453.7,293.5,452.4,293.2c0-1.8,0-1.8-1.3-2   C450.9,292.8,450.9,292.8,452.4,293.2z M445,290c-0.8-0.8-1.9-2-2.4-0.7C442.9,290.5,443.8,290.4,445,290z" />
	<path fill="#EDC9B9" d="M342.8,228.9c-0.1,5.2-1,10.5,1,15.6c-1.2,2.5-2.9,4.7-4.8,6.8c-5.2-1.2-8.6,7-13.7,8.5   c-8.4,5.5-9.7,14.3-8.4,23c0.8-1.1,1-2.4,2.1-3.3c0.6,7-2.3,15.1,1,21.5c0.7,4.1,0.3,8.8-0.8,12.9c-3.9-2-5.5-5.9-8.1-9.2   c2.5-12.3-2.9-25.1,3.6-36.4c2.7-9.5,12.3-11.9,18.3-18.2c1.3-1.8,2.6-3.5,4.8-3.7c2.9-6.4,2.5-13,4.1-19.7   C343.1,227.2,342.4,228.2,342.8,228.9z" />
	<path fill="#FBDFD3" d="M362.7,238.8c-1.6-1.9,1.1-4.4,2.2-6c0-1.6,0-3.3,0-5c-9.7-8.5-1.2-15.7-0.7-25.1c1.6-1.9,2.5-4.3,4.5-6.1   c2.1,1.4,1.7,4.4,4.2,5.2l-0.1,0.2l0.1-0.2c1.1,4.3,2.9,9.6,6.4,12.7c-1.4,3.5-2.2,7.3-5.6,9.5   C368.5,227.5,366.1,233.7,362.7,238.8z" />
	<path fill="#EDC9B9" d="M412.7,243.4c9.9,1.4,8.6,19,17.4,23.8c-0.6,2.9-2.1,5.4-4,7.9c-1.3-1-2.5-1.9-3.7-2.7c0.3-0.6,0.6-1,1-1.7   c-1.7-0.9-3.7-0.1-4.6-1.8c0.2-0.6,0.4-1,0.7-1.5c-2.5-1.7-5.1-3.4-5.4-6.9c-1-0.3-1.9-0.6-2.9-0.9c0.2-2.7,4.2-12.4-1.7-9.3   c0.9-1.7,0.7-3.7,0.9-5.5c0.3,1.3,0.6,2.7,0.9,4C414.3,248.9,412.6,245.1,412.7,243.4z" />
	<path fill="#EBC8B8" d="M440.2,150.6c-0.3,0-0.5,0-0.8,0c-0.4-0.7-0.7-1.3-1.1-2.1c-2.2-0.2-4.4-0.4-7-0.6   c-0.7,0.5-1.7,1.2-2.7,1.9c0.5-1.1,0.9-2.3,1.4-3.5c-2.9-1.1-4.3,4.3-5.3,6.4c-0.8,0.6-0.8,1.4-0.4,2.3c0.4-0.2,0.9-0.3,1.3-0.5   c0,0.8,0,1.6,0,2.3c-3.3-0.1-6.6-0.3-10.1-0.4c1.5-4.6,2.9-9.6,6.7-12.9c-0.1-1.4-0.2-2.8-0.3-4.2c0.5-0.6,1-1.1,1.6-1.8   c0.9,0.1,1.9,0.2,2.9,0.3c1.9,3.7,8.7,10.1,12.3,6C440.5,144.9,439.5,148.5,440.2,150.6z" />
	<path fill="#EDC9B9" d="M404,273.2c1.5-2.7,3.1-5.5,4.7-8.4c1,0.3,1.8,0.6,2.8,1c2.6,5,6.9,8.7,11.2,12.4c-1.8,2.5-4.4,4.2-8.7,5.7   c-0.2-0.4-0.3-1.2-0.6-1.3C408.6,281.4,408.3,275.4,404,273.2z" />
	<path fill="#E3E3EA" d="M325.1,459.8c3.9,0,7.3,0.3,11.2,1c1.2,4.5,2.5,9.3,3.9,14.2c-5.5-0.1-10.2-4.1-15.9-3.7   C324.1,467.4,324.6,463.6,325.1,459.8z" />
	<path fill="#F3D8CD" d="M404,273.2c4.3,2.2,4.5,8.2,9.4,9.5c0.3,0.1,0.4,0.8,0.6,1.3c-7,2.4-16,5.4-22.5,0.6   C397.1,281.8,400.5,277.6,404,273.2L404,273.2z" />
	<path fill="#F9DDD1" d="M319.1,279.5c-1.1,0.9-1.3,2.2-2.1,3.3c-1.3-8.7,0-17.5,8.4-23c5-1.5,8.4-9.7,13.7-8.5   C333.1,264.4,319.8,262.7,319.1,279.5z" />
	<path fill="#90A1C3" d="M391.2,172.2c-0.3,3.8-0.4,7.6,0.7,11.3c-0.5,2-2.9,2.6-3.7,4.6c-7.7-5.7-5.1-15.1-3.9-23   c1.3-1.1,2.6-3,4.6-2.3c0,0.3,0,0.5,0,0.8c-1,0.9-2.1,1.8-3.1,2.7C385.4,173.3,387.3,169.7,391.2,172.2z" />
	<path fill="#EDC9B9" d="M355.8,501.1c0.1,0.7,0.2,1.5,0.2,2.1c8.5,6.5,21.2,6.7,28.1,14.4c-2.2,0.8-4.1-0.2-6,1   c-1.2-1.1-2.6-1.9-4.4-1.3c-2-1.8-3.4,1.1-4.9-0.8c0.5-0.1,1-0.2,1.7-0.3c-4.2-4.6-9.7-6.4-15.2-8.6   C354.9,505.5,354.6,503.3,355.8,501.1z" />
	<path fill="#4861BD" d="M370.4,410.7c-2.8-0.8-5.4-0.9-8.5-0.4c0.5,0.6,0.9,1.1,1.4,1.8c-2.5,2.1-5.1,4.1-7.6,6.2   c-0.3-0.3-0.6-0.5-0.8-0.8c1.9-3.5,6.4-6.4,6.5-10.5c2.1-0.9,1.3-3.3,1.4-5.2c2.1,0.6,3.8,1.1,5.5,1.5c-0.4,0.8-0.7,1.5-1,2.3   c1.3,0.6,1.7-1.5,3-0.4c-0.4,1-0.8,2.2-1.2,3.4c1.5-0.9,1.5-0.9,2.6-4.6c1.9,0.4,3.9,0.1,5.6,1.4c-1.1,2.2-0.7,5.7-3,6.9   c-0.2-0.1-0.4-0.1-0.6-0.1c-2.4-2,0.9-4.3-0.6-6.7c-1.5,1.5-1.2,3.6-1.9,5.2l0,0C370.9,410.6,370.6,410.6,370.4,410.7z" />
	<path fill="#788AB0" d="M388.1,188.1c0.9-2,3.3-2.5,3.7-4.6c1.2,1.3,2,4.9,4.2,3.2c3,4.3,7.8,4.5,12.3,5.4c0.5,0.8,0.7,1,0.9,2   c-3.7,2.3-7.9,2.1-12,2.4c0.5-1.2,1.9-0.3,2.7-1.1c-3.5-1.7-5.7-4.6-9.8-5.3c0.9,1.4,1.6,2.5,2.4,3.6c-1.5,0-2.9-0.2-3.9-1.5   c0.1-0.4,0.1-0.8,0.2-1.2C390.3,190.4,388.5,189,388.1,188.1z" />
	<path fill="#798BB3" d="M414.1,182.8c-1.3-1.7-2.5-3.4-3.9-5.3c1.4-2.8,4.6-3.6,6.3-6.1c1-0.1,2-0.1,3.5-0.2   c0.5,0.5,1.2,1.3,1.5,1.6c-1.2,4,1.6,11.8-4.7,9.2c-0.6,0.4-1.3,0.9-2,1.4c-0.3,0-0.5,0-0.8-0.1C414.1,183.2,414.1,183,414.1,182.8   z" />
	<path fill="#4B65C6" d="M512.4,485c-0.3,0.2-0.7,0.3-1.3,0.6c-0.8-0.6-1.6-1.3-2.6-2.1c-9,1.9-18.5,1.1-27.3-1.7   c4-3.6,20.2,0,26-0.6c0.6,0.4,1.1,0.9,1.7,1.3c0.4-0.2,0.8-0.4,1.2-0.6C511,482.8,511.6,484,512.4,485z" />
	<path fill="#F4D9CD" d="M546.2,531c1.3-1.4,2.6-2.8,4-4.3c3.5,7.1,4.8,18.3,4.1,24.3C551.3,544.3,548.7,537.8,546.2,531z" />
	<path fill="#798AB2" d="M409.6,182c0.6,0.3,1.1,0.6,1.7,0.9c0,0.4-0.1,0.7-0.1,1.4c1.7,0.8,3.3,1.6,5.1,2.4   c-5.2,2.9-13.5,2.4-18.1-1.6c0.4-0.1,0.7-0.2,1.2-0.2c-0.2-4.5,5.3-4.5,8.7-3.5C407.8,182.5,408.7,183.1,409.6,182z" />
	<path fill="#CBCBD9" d="M325.1,459.8c-0.5,3.8-1,7.6-0.8,11.5c-2.7-0.1-5.5,0.4-8.3-0.1c0.6-4.3,0.6-8.2,1.6-12.3   C320.2,458.7,322.6,459.3,325.1,459.8z M323.4,462.8c-2.7,0.2-4.1,6.9-1.5,7.9C323,468.1,323.5,465.4,323.4,462.8z" />
	<path fill="#EFD5C9" d="M374.2,176.6c1.6,2,0.4,5.5,0.7,7.9c-2.8,0.8-5.4,1.5-7.9,2.2c-0.3-5.1,1.8-10.5,2.9-15.6   c1-0.4,2-0.8,3.1-1.2c0.9,4.3-4.4,8.4-3.1,12.7C372.6,181.4,372.9,178.7,374.2,176.6z" />
	<path fill="#0F1428" d="M411.2,417.5c-3.3-0.9-5.7-0.5-9.5-0.7c3.3-2.6,14,2.2,11-4.7c-1.4,0.8-1.8,1.2-3.1,2.6   c-0.2-2.1,0.6-3.4-1-4.7c2.7-0.5,5,0.4,6.7,2.6c-0.3,1.1-0.8,2.3,0.1,3.5c0.5,0,0.9-0.1,1.5-0.2c0.2-1.3,0.4-2.4,0.7-4   c0.8,0.6,1.3,0.9,1.7,1.2c-0.1,1-0.1,1.9-0.2,3.1c0.9,0.1,1.7,0.3,2.3,0.4c0.7-0.8,1.3-1.5,1.8-2.1c0.2,3.2,4.5,2.7,6.9,3   c0.2,0.4,0.5,0.8,0.9,1.4C424.4,419,417.9,417.5,411.2,417.5z" />
	<path fill="#798BB2" d="M391.2,172.2c-3.9-2.5-5.8,1.1-5.5-5.9c2.1-2.4,5-3.5,7.8-4.1c1.5,0.7,2,2.4,3.7,2.2   C395.5,167.4,392,168.5,391.2,172.2z" />
	<path fill="#100E0E" d="M438.7,143.7c-3.6,4.1-10.4-2.3-12.3-6c-0.9-0.1-1.9-0.2-2.9-0.3c-0.6,0.7-1.1,1.3-1.6,1.8   c-0.3-1.4-0.6-2.8-0.9-4.1c0.7,0,1.3,1.3,2.3,0c-1-1.2-2-2.6-3.2-3.8l0,0c-1-1.4-0.7-3.1-0.7-4.7l0,0c0.2,0,0.4,0,0.6,0   c0.9,4.8,5.6,6.6,8.5,10c1,2.6,6.6,6.8,9.2,4.5C439,141.8,438.5,142.9,438.7,143.7z" />
	<path fill="#788AB1" d="M427.9,164.4c-2.7,0.6-4.3,2.4-4.9,5.4c-1.6-1.1-3.6-0.2-4.9-2.1c1-2.4,0.7-4.9,0.5-7.5   c-1.5-0.8-3-0.3-4.5-0.5c3.1-2.6,6,0.7,9.2,0.8C425.7,160.8,427.5,161.8,427.9,164.4z" />
	<path fill="#070913" d="M490.8,457.5c0-0.4,0.1-0.8,0.1-1.3c3.1-0.2,8.1-2.6,10.4,0.3c-2.1,0.4-4.1,0.7-6.4,1.1   c2.1,2.8,4.6,5.1,4.6,8.8c0,1.6,1.2,2.7,2,3.8c0.8,0.7,2.1-0.1,2.3,1.2c-1.2-0.1-1.9,0.5-2.3,1.5c-2.2-2.1-3.8-4.6-5.3-7.4   c0.2-0.7,0.3-1.4,0.5-2.2c-1.3-1.9-2.2-4.4-5.1-4.5C491.4,458.4,491.1,457.9,490.8,457.5z" />
	<path fill="#8B9BBB" d="M397.2,164.4c-1.7,0.2-2.2-1.5-3.7-2.2c-1.5,0.4-3.1,0.9-4.7,1.4c0-0.5,0-1,0-1.5c0.1-0.2,0.3-0.2,0.5-0.2   c4.9-2,11.2-6,16.2-2.6C402.2,160.5,399.5,162.2,397.2,164.4z" />
	<path fill="#13151B" d="M388.1,188.1c0.4,0.8,2.2,2.3,0.7,2.9c-7.8-4.2-9.7-13.5-6.4-21.3c0.3-0.9,0.4-2.4-0.6-3   c0.3-1.5,0.3-1.5,2.3-1.5C383,173,380.4,182.5,388.1,188.1z" />
	<path fill="#5674E3" d="M408.6,410c1.6,1.3,0.8,2.6,1,4.7c1.3-1.4,1.6-1.8,3.1-2.6c0.9,1.3,1,2.2,0,3.2c-3.7,0.4-6.8-1.2-10.5-0.3   c-0.7-1.8,0.2-3.6,0.5-5.4C404.7,409.7,406.7,409.9,408.6,410z" />
	<path fill="#363636" d="M492.2,88.6c-2.2-1.1-2.2-1.1-5.3-1c2.5-1.7,6-0.1,8.2-2.7c5.7-0.6,11.3-2.5,15.2-7.1   C509.1,86.2,497.7,85.6,492.2,88.6z" />
	<path fill="#5572DF" d="M443.3,513.4c-1.2-1-2.4-2.1-4.3-3.7c2,0.3,3.1,0.5,4.3,0.7c0.7,0.7,1.6,2.2,2.7,2.1   c3.3-1.5,6.6,1.2,10,1.2c-0.3,1-0.6,1.4-1.3,2C450.8,515.6,447.1,514.1,443.3,513.4z" />
	<path fill="#7585AA" d="M381,181.2c1.2,4.4,4.2,7.4,7.8,9.8c-0.1,0.4-0.1,0.8-0.2,1.2c-1-0.6-2-1.2-3-1.8c-0.1-0.2,0.1-0.8-0.5-0.3   c0.2,0.1,0.3,0.2,0.5,0.3c-0.2,0.5,0.1,1.3-0.8,1.5c-2.4-1.6-4.5-3.6-4.8-6.7c0-0.9,0.5-1.9-0.6-2.5c0-1.3,0-2.5,0-3.8   C380.1,179.7,380.6,180.5,381,181.2z" />
	<path fill="#E0C7BC" d="M420.9,122.9c1.4-3.4,4-5.6,6.2-8.7c0.4,0.1,0.9,0.3,1.5,0.5c-2.3,3.4-2.8,10.3-7.6,10.6l0,0   C421,124.4,421,123.6,420.9,122.9z" />
	<path fill="#2E2E2E" d="M489.5,68.6c0.5,1,1.1,1.9,1.7,3c0.9-0.5,1.7-0.9,2.6-1.3c0.4,2.3-0.1,6.2-3.3,4.9   c-0.8-4.6-4.1-6.1-8.3-4.4c-0.2-0.4-0.3-0.7-0.5-1.3C484.4,69.3,486.8,68,489.5,68.6z" />
	<path fill="#0A0E1B" d="M403.9,502.6c5-2.2,9.9-8.8,15.5-7.8c-4.3,2.9-9.6,6.2-14.5,8.8C404.6,503.2,404.3,502.9,403.9,502.6z" />
	<path fill="#2E2C2E" d="M433.2,230.5c-2-7.3-4.2-14.4-8.4-20.8c0.3-0.3,0.6-0.6,0.9-0.9c4.3,6.2,7.2,13.4,8.3,20.9   C433.7,229.9,433.5,230.2,433.2,230.5z" />
	<path fill="#13192F" d="M454.7,515.7c0.3-0.3,0.5-0.5,0.8-0.8c6.6-0.4,14.2-3,20.2-0.1c-6.7,0.7-13.1-0.2-19.4,1.7   C455.8,516.2,455.3,516,454.7,515.7z" />
	<path fill="#475FBA" d="M385.7,406.1c-0.3,3-1.2,5.9-2.4,8.9c-0.7-0.2-1.4-0.3-2.1-0.5c-0.1-2.8,0.8-5.5,1.3-8.4   C383.7,406.1,384.7,406.1,385.7,406.1z" />
	<path fill="#CBCBD8" d="M352.7,545.8c2.8-3,5.4-7.4,10.1-6.1C360.9,543.3,356.7,545,352.7,545.8z" />
	<path fill="#8595B5" d="M392.6,193.7c-0.7-1.1-1.5-2.2-2.4-3.6c4,0.8,6.3,3.7,9.8,5.3c-0.9,0.8-2.2-0.2-2.7,1.1   c-2.3,0.1-2.3,0.1-4.4-0.9c0.4-0.3,0.8-0.6,1.2-0.9C393.5,194.4,393,194,392.6,193.7z" />
	<path fill="#455DB7" d="M379.7,413c-0.8,1.2-2,0-3-0.2c0.5-2.5,1-5,1.4-7.5c1,0,1.9,0,2.9,0C380.6,407.9,380.1,410.5,379.7,413z" />
	<path fill="#4962C1" d="M430.2,417.5c-2.1-0.4-4.6,0.3-6.2-1.5c0.7-1,1.4-2,2.3-3.2c0.9,0.2,1.8,0.4,2.9,0.6   c-0.1,1.1-0.2,2.1-0.3,3.1c0.5,0,0.8,0.1,1.2,0.1C430.2,417,430.2,417.2,430.2,417.5z" />
	<path fill="#6D7A94" d="M381,181.2c-3.1-4.4-0.3-9.9,0.9-14.6c1,0.6,0.9,2.1,0.6,3C380.7,173.4,381.2,177.4,381,181.2z" />
	<path fill="#2E2E2E" d="M476.2,85c1.7-2.7,4.5-1.3,6.2-2.6c1,0.4,2,0.7,2.9,1C484.4,85.4,478.5,85.6,476.2,85z" />
	<path fill="#303030" d="M461.4,96.2c2.1-0.7,3.7-2.4,6.2-2.4c-1.7,2.4-5.1,4.9-7.8,5.8C460,98.2,460,98.2,461.4,96.2z" />
	<path fill="#5471DD" d="M423.3,414.5c-0.6,0.6-1.1,1.3-1.8,2.1c-0.7-0.1-1.5-0.2-2.3-0.4c-0.3-3.9,1.1-4.6,4.8-3.9   C423.7,413.2,423.5,413.9,423.3,414.5z" />
	<path fill="#EDC9B9" d="M322,276.9c0,7.2,0.1,14.5,0.1,21.7C320.8,291.9,321.2,283.8,322,276.9z" />
	<path fill="#0F1529" d="M394.2,407.6c-0.6,0.1-1.2,0.1-1.8,0.2c-1.5,2.9-1.4,6.5-4,9.2c-0.7-3.8,2-6.4,2.6-9.9   C392,406.9,393.3,406.3,394.2,407.6z" />
	<path fill="#2D2826" d="M489.2,152.8c-2.3,0.1-1.8-3.1-0.1-3.5c1.1-0.2,2.2-0.2,3.3-0.3c0.8,0.9,2.5,0.7,2.4,2.3   c-0.6-0.2-1.1-0.4-1.5-0.6C491.7,151.4,490.5,152.1,489.2,152.8z" />
	<path fill="#383838" d="M435.1,80.6c-1.6-0.7-3.2-1.3-5-2c0.8-1.1,1.4-2.1,2.2-3.3C433.6,76.8,436.4,78.6,435.1,80.6z" />
	<path fill="#DFBEAF" d="M377.2,212.7c-1.3-3.6-3.9-7.2-4.4-10.9C376.9,203.9,376.6,208.8,377.2,212.7z" />
	<path fill="#4C66C8" d="M421.2,412.1c-0.7,0.1-1.5,0.1-1.8,1c-0.5-0.3-0.9-0.6-1.7-1.2c-0.3,1.6-0.5,2.7-0.7,4   c-0.6,0.1-1,0.1-1.5,0.2c-0.9-1.2-0.3-2.4-0.1-3.5c-0.7-0.7-1.3-1.3-1.9-1.8c0.7,0,1.4,0,2.1,0C417.2,412,419.3,411.1,421.2,412.1z   " />
	<path fill="#121830" d="M379.7,413c0.4-2.6,0.9-5.1,1.3-7.7c1.6,0.1,3.5-0.6,4.7,0.7c-1,0-2,0-3.2,0c-0.6,2.9-1.4,5.6-1.3,8.4   C380.7,414,380.2,413.5,379.7,413z" />
	<path fill="#343434" d="M462.6,83c-0.8,0.7-1.4,1.2-2,1.8c-1.5-1.3-2.9-2.5-4.2-3.7C457.4,78,460.7,82.3,462.6,83z" />
	<path fill="#D8B8AA" d="M489.2,152.8c1.3-0.7,2.6-1.4,4-2.1c0.4,0.2,1,0.4,1.5,0.6c1,1.3,1.4,2.6,0,3.9   C492.9,154.2,491.3,152.8,489.2,152.8z" />
	<path fill="#7A8BB2" d="M410.1,162.6c1.4,1.5,4.3,2.9,3.6,5.4c-2-1.1-3.8-2.2-5.9-2.9C408.6,164.3,409.4,163.4,410.1,162.6z" />
	<path fill="#070913" d="M510,481.9c-0.4,0.2-0.8,0.4-1.2,0.6c-2.4-1.5-3.4-4.3-5-6.6C506.7,476.5,508.7,479.4,510,481.9z" />
	<path fill="#10152A" d="M396.6,408.5c-1.1,3.1-0.7,5.9-3.8,8.1c0.1-3.5,2.2-5.4,1.9-8.9C395.4,407.9,396,408.2,396.6,408.5z" />
	<path fill="#373737" d="M445.4,81.9c-1.5,2.2-2.8,2.3-4.6,0.5c0.8-1.2,1.6-2.2,2.2-3.1C444.2,79.4,444.5,81.1,445.4,81.9z" />
	<path fill="#292929" d="M421.9,96.4c0.4-0.4,0.7-0.6,1.1-1c0.6,0.8,1.2,1.6,1.9,2.6c0.8,0.2,1.7,0.4,2.6,0.6c0.7,1.2,0.1,2-0.8,2.6   C424.7,100.7,423.7,98,421.9,96.4z" />
	<path fill="#A38A7F" d="M342.8,228.9c-0.4-0.7,0.3-1.7-0.7-2.3c0.3-2.6,1.3-5,2.7-7.3C345.1,222.7,343.9,225.8,342.8,228.9z" />
	<path fill="#292929" d="M473,87.1c-1.6,2.4-3.7,3.9-6.3,4.7C466.4,90.1,471,86.1,473,87.1z" />
	<path fill="#1C1C1C" d="M431,64.6c0.3-2.9,3.7-2.5,5.9-2.8C435.6,64.4,433.4,64.7,431,64.6L431,64.6z" />
	<path fill="#373331" d="M419.5,126.7c0,1.6-0.2,3.2,0.7,4.7c-0.2,0.2-0.5,0.5-0.7,0.7c-0.9-1.6-3.7-6.7-1.3-7.5   C418.6,125.4,419,126.1,419.5,126.7z" />
	<path fill="#2D2B2A" d="M434,117.7c-0.2-0.1-0.4-0.2-0.7-0.2c0-0.2-0.1-0.4-0.1-0.7c1.2,0.3,1.5-1.1,2.6-1.5   c1.6,1.1,3.2,2.1,2.8,4.6c-1-0.5-2.1-1-3.1-1.6C435.2,117.7,434.7,117.6,434,117.7z" />
	<path fill="#0E1325" d="M378.1,405.3c-0.5,2.5-1,5-1.4,7.5c-0.9,0-1.9,0.5-2.5-0.6c2.3-1.2,1.9-4.8,3-6.9   C377.5,405.3,377.8,405.3,378.1,405.3z" />
	<path fill="#292929" d="M471,84.7c-0.6,0.5-1.1,1-1.6,1.5c-1-1.5-1.9-2.9-2.8-4.4c0.2-0.2,0.5-0.5,0.8-0.9   C468.8,82,469.9,83.1,471,84.7z" />
	<path fill="#333333" d="M413.8,97.9c0.9,0.9,1.3,1.3,1.7,1.6c0,1.5-1.1,2.3-3.5,2.6C411.9,100.2,412.4,99.5,413.8,97.9z" />
	<path fill="#AF9C93" d="M375,173.6c0.7-2.3,0.1-5.2,2.6-6.3c0.8,2.3-1.4,4.8-1.8,7.2C375.6,174.2,375.3,173.9,375,173.6z" />
	<path fill="#202020" d="M452.8,100.1c-2.6-0.2-2.6-0.2-4.7,1c-0.5-1.5-0.4-2.6,1.3-3.5C450.4,98.3,451.4,99.1,452.8,100.1z" />
	<path fill="#232323" d="M422.2,104.1c1.6,2,1.6,2.3-0.2,4.1C420.6,106.8,420.6,105.8,422.2,104.1z" />
	<path fill="#131931" d="M371.1,410.6c0.7-1.6,0.4-3.7,1.9-5.2c1.5,2.4-1.9,4.6,0.6,6.7C372.3,412.5,372,411.2,371.1,410.6z" />
	<path fill="#1B1B1B" d="M441.7,111.4c0-2,0.5-3.6,2.3-4.5C446.3,108.7,442.8,110.2,441.7,111.4L441.7,111.4z" />
	<path fill="#1A1A1A" d="M441,100.7c1.2,0.1,2.5-0.4,3.7,0.5c-0.1,1.4-1.1,2-2.3,2.6C441.8,102.6,441.4,101.7,441,100.7L441,100.7z" />
	<path fill="#2A2A2A" d="M411.7,107.1c-0.7,0.9-1.3,1.7-1.9,2.6C407.3,109.2,410,104,411.7,107.1z" />
	<path fill="#282828" d="M426.7,70.1c0.7,1.4,0.2,2.2-1,2.9c-0.5-0.3-1.1-0.7-1.5-1C424.3,70.6,424.7,70.4,426.7,70.1z" />
	<path fill="#232323" d="M416.7,79.4c0.5,2.1,0.5,2.1-2,3.4C414.4,80.9,414.7,80.4,416.7,79.4z" />
	<path fill="#343332" d="M486.4,87.7c-1.1,0.9-0.4,2.2-1.7,3c-0.7-0.4-1.4-0.9-2.3-1.5C483.3,87.6,484.7,87.6,486.4,87.7z" />
	<path fill="#8A7870" d="M419.5,132.2c0.2-0.2,0.5-0.5,0.7-0.7l0,0c1.2,1.2,2.1,2.6,3.2,3.8c-1,1.3-1.6,0-2.3,0   C420.5,134.1,419.6,133.3,419.5,132.2z" />
	<path fill="#303030" d="M472.9,67.4c-0.6-0.8-1.1-1.6-1.8-2.6c1.3,0,2.4,0,3.4,0C474.7,66.3,473.8,66.7,472.9,67.4z" />
	<path fill="#292929" d="M501.4,67.7c0.4,0.4,0.7,0.7,0.9,0.9c-0.1,2-1.6,2.1-2.7,2.7C498.8,69.4,500.1,68.7,501.4,67.7z" />
	<path fill="#B7A39A" d="M433.2,116.8c0.1,0.2,0.1,0.4,0.1,0.7c-0.3,0.3-0.6,0.6-0.9,0.9c-1.5-0.9-2.7-2.4-4.6-2.4   c0.2-0.5,0.5-1,0.7-1.4C430.3,114.6,431.7,116.2,433.2,116.8z" />
	<path fill="#2B2B2B" d="M422.2,77c0.7,2.1-0.1,3.2-0.9,4.3C418.9,81,421,78,422.2,77z" />
	<path fill="#3A3634" d="M431,113.7c-1.6,0.1-2.3-1-3.2-2.5C429.8,109.7,431.1,111.8,431,113.7C431,113.7,431,113.7,431,113.7z" />
	<path fill="#232323" d="M481.6,86.9c-1.5,2.1-2.9,1.5-4.9,1.1C478.4,86.2,479.1,87.1,481.6,86.9z" />
	<path fill="#1A1A1A" d="M418.1,115.3c0.9,0.1,1.5,0.2,2.3,0.4c-0.7,1.3-0.8,2.6-2.3,3.2C418.1,117.7,418.1,116.7,418.1,115.3z" />
	<path fill="#55504E" d="M478.6,92.2c-0.9,0-1.7,0-2.5,0c-1,0.7-2,1.5-2.9,2.2c0.4-0.9,0.8-1.8,1.2-2.8   C475.8,91.3,477.3,91,478.6,92.2z" />
	<path fill="#2D3D77" d="M354.9,417.4c0.3,0.3,0.6,0.5,0.8,0.8c-1.1,1.3-2.4,2.3-4.3,3.4C352.2,419.4,353.5,418.9,354.9,417.4z" />
	<path fill="#48423F" d="M473.8,172.1c-1.2-0.5-2.4-1-3.7-1.5c0-0.5,0-0.9,0-1.4c1.9,0.9,3.9,1.5,5.6,2.8   C475,171.9,474.4,172,473.8,172.1z" />
	<path fill="#282828" d="M445.9,122.8c-1.5-1.2-1.3-2.1,0.7-3.5C447.3,120.5,446.1,121.6,445.9,122.8z" />
	<path fill="#1A1A1A" d="M412.4,141.7c-0.6-1.2-1-2-1.4-2.9C413,138.1,413.9,139.5,412.4,141.7z" />
	<path fill="#2E2E2E" d="M456.8,103.9c-0.5,1.3-1.4,2-2.5,2.6C454.2,104.1,454.2,104.1,456.8,103.9z" />
	<path fill="#2D2D2D" d="M412,123.6c-0.2-1.5-0.5-2.6,0.3-3.5C413.7,121,413.7,121.5,412,123.6z" />
	<path fill="#1A1A1A" d="M441,100.7c-0.8,0.2-1.6,0.4-2.5,0.6c-1.1-1,0.2-1.4,0.4-1.9C440.1,99.2,440.6,99.8,441,100.7L441,100.7z" />
	<path fill="#1C1C1C" d="M440.3,118.2c0.5-0.9,0.8-1.5,1.1-2.1c1.8,0.5,1.3,2-0.3,2.9C440.8,118.8,440.5,118.5,440.3,118.2z" />
	<path fill="#3C3633" d="M389.6,274.9c0,1.3,0.2,2.7-0.8,3.9c-0.2-0.8-0.5-1.6-0.8-2.6C388.5,275.7,389.1,275.3,389.6,274.9z" />
	<path fill="#1A1A1A" d="M419.2,77.9c-0.8-0.5-1.3-0.7-2.1-1.2c0.7-0.6,1.2-0.9,2.1-1.6C419.2,76.2,419.2,76.8,419.2,77.9z" />
	<path fill="#151C37" d="M361.3,406.9c-0.3,1,0.4,2.3-0.9,2.9C359.7,408.6,358.8,407,361.3,406.9z" />
	<path fill="#1C1C1C" d="M431,64.6c0.2,0.4,0.3,0.9,0.5,1.4c-0.4,0.3-0.8,0.6-1.2,0.8C429,65.4,429.1,65.2,431,64.6L431,64.6z" />
	<path fill="#CECECE" d="M407.9,155.9c0.8,0.2,1.6,0.4,2.5,0.6c0,0.5-0.1,0.9-0.1,1.5C409,157.7,408.7,156.6,407.9,155.9   L407.9,155.9z" />
	<path fill="#2D2E30" d="M420.2,191.2c-0.8-0.5-1.5-1.1-2.3-1.6C419.9,188.1,420.3,189.6,420.2,191.2z" />
	<path fill="#18203E" d="M385.8,416.7c0.7,0.3,1.3,0.6,2.4,1.1c-1.2,0.7-1.8,0.7-2.4-0.1C385.7,417.3,385.8,417,385.8,416.7z" />
	<path fill="#252525" d="M419.5,137.3c-0.7,1.2-1.7,0.7-1-0.4C418.8,137,419.1,137.1,419.5,137.3z" />
	<path fill="#070913" d="M510,479.1c0.6,0.7,1.3,1.4,1.9,2.1C510.5,481.1,510,480.2,510,479.1z" />
	<path fill="#0F1529" d="M391,407c-1-0.3-2.2,0.1-3.1-0.9C389.1,406.1,390.3,405.8,391,407z" />
	<path fill="#0F1428" d="M418.7,411.4c-1.1,0-2.3,0.3-3.2-0.6C416.6,410.8,417.8,410.1,418.7,411.4z" />
	<path fill="#1B1B1B" d="M441.7,111.4c-0.3,0.4-0.7,0.9-1.2,1.5C440.2,111.4,441.1,111.5,441.7,111.4L441.7,111.4z" />
	<path fill="#798AB2" d="M414.1,182.8c0,0.2,0,0.4,0,0.7c-0.8-0.2-1.6-0.4-2.4-0.6C412.5,182.8,413.3,182.8,414.1,182.8z" />
	<path fill="#6D7A94" d="M379.7,182.8c1,0.7,0.6,1.6,0.6,2.5C379.4,184.6,379.5,183.7,379.7,182.8z" />
	<path fill="#EFD5C9" d="M375,173.6c0.3,0.3,0.6,0.6,0.8,0.9c-0.1,0.5-0.1,0.9-0.2,1.4c-0.3-0.3-0.6-0.7-0.8-1   C374.9,174.4,374.9,174,375,173.6z" />
	<path fill="#A08E87" d="M420.9,122.9c0,0.8,0.1,1.6,0.1,2.4c-0.2,0-0.4,0-0.7,0.1c-0.1-0.3-0.2-0.6-0.2-0.8   C420.4,123.9,420.7,123.4,420.9,122.9z" />
	<path fill="#373331" d="M420.1,124.4c0.4,0.8,0.1,1.6,0,2.4c-0.2,0-0.4,0-0.6,0C419.5,126,419.2,125,420.1,124.4z" />
	<path fill="#2D2826" d="M492.3,149c0.6-0.7,1.4-0.9,2.3-0.8C494.2,149.4,493.2,149.1,492.3,149z" />
	<path fill="#DFBEAF" d="M372.9,201.8c-0.3-0.2-0.7-0.4-1-0.6c0-0.3,0.1-0.6,0.1-0.9C372.3,200.8,372.6,201.3,372.9,201.8z" />
	<path fill="#070913" d="M506.1,474.5c0.3,0.4,0.6,0.9,1,1.3C506.2,475.7,506.2,475.1,506.1,474.5z" />
	<path fill="#070913" d="M503.1,475c-0.3-0.5-0.6-0.9-0.9-1.4C503.1,473.7,503.1,474.4,503.1,475z" />
	<path fill="#070913" d="M503.8,471.4c0.3,0.5,0.6,0.9,0.9,1.4C503.9,472.6,503.9,472,503.8,471.4z" />
	<path fill="#18203E" d="M384.2,417.4c-0.7,0.2-1.2,0-1.6-0.6C383.2,416.7,383.8,416.8,384.2,417.4z" />
	<path fill="#3A3634" d="M430.2,115.2c-0.3-0.2-0.6-0.4-0.9-0.6C429.6,114.8,429.9,115,430.2,115.2z" />
	<path fill="#3A3634" d="M431.8,116c-0.3-0.2-0.6-0.4-0.9-0.6C431.1,115.6,431.4,115.8,431.8,116z" />
	<path fill="#E4E4EB" d="M353.1,489.5c-0.4,0.1-0.8,0.1-1.1,0.2C352.2,488.8,352.6,488.9,353.1,489.5z" />
	<path fill="#131931" d="M370.4,410.7c0.2,0,0.5-0.1,0.7,0c-0.1,0.2-0.2,0.4-0.3,0.6C370.6,411,370.5,410.8,370.4,410.7z" />
	<path fill="#070913" d="M502.2,473.7c-0.2-0.3-0.5-0.6-0.7-0.9C501.8,473.1,502,473.4,502.2,473.7z" />
	<path fill="#798BB2" d="M390.3,161.4c-0.3,0.2-0.7,0.3-1,0.5C389.6,161.8,390,161.6,390.3,161.4z" />
	<path fill="#070913" d="M505.4,473.6c0.2,0.3,0.4,0.5,0.7,0.8C505.8,474.1,505.6,473.8,505.4,473.6z" />
	<path fill="#070913" d="M503.8,475.9c-0.2-0.3-0.4-0.6-0.7-0.8C503.4,475.4,503.6,475.6,503.8,475.9z" />
	<path fill="#798BB2" d="M388.8,162.1c0,0.2,0,0.5,0,0.7c-0.3-0.1-0.7-0.1-1-0.2C388.1,162.5,388.4,162.3,388.8,162.1z" />
	<path fill="#13151B" d="M384.2,191.4c0.3,0.2,0.6,0.4,0.8,0.6C384.7,191.8,384.4,191.6,384.2,191.4z" />
	<path fill="#EDC9B9" d="M404.1,273.2c-0.2,0.3-0.5,0.6-0.7,0.9C403.6,273.8,403.8,273.5,404.1,273.2z" />
	<path fill="#070913" d="M507,475.8c0.3,0.3,0.5,0.6,0.8,0.8C507.5,476.3,507.3,476,507,475.8z" />
	<path fill="#070913" d="M507.7,476.6c0.2,0.3,0.5,0.6,0.7,0.8C508.2,477.1,508,476.9,507.7,476.6z" />
	<path fill="#373331" d="M419.6,132.8c0.2,0.3,0.4,0.6,0.6,0.9C420,133.4,419.8,133.1,419.6,132.8z" />
	<path fill="#070913" d="M509.2,478.2c0.2,0.2,0.5,0.5,0.7,0.7C509.7,478.7,509.4,478.5,509.2,478.2z" />
	<path fill="#CBCBD8" d="M362.8,539.7c0.2-0.3,0.5-0.6,0.7-0.9C363.3,539.1,363.1,539.4,362.8,539.7z" />
	<path fill="#070913" d="M510.8,482.7c-0.2-0.2-0.5-0.5-0.7-0.7C510.3,482.2,510.6,482.5,510.8,482.7z" />
	<path fill="#070913" d="M508.5,477.4c0.2,0.3,0.5,0.5,0.7,0.8C508.9,477.9,508.7,477.7,508.5,477.4z" />
	<path fill="#2D3D77" d="M355.7,418.2c0.3-0.2,0.5-0.5,0.8-0.7C356.2,417.8,356,418,355.7,418.2z" />
	<path fill="#3A3634" d="M431,113.7c0.2,0.1,0.4,0.2,0.5,0.3C431,114.5,431.1,113.9,431,113.7L431,113.7z" />
	<path fill="#18203E" d="M384.9,416.1c0.3,0.2,0.6,0.4,0.8,0.7C385.5,416.5,385.2,416.3,384.9,416.1z" />
	<path fill="#2D3D77" d="M355.8,416c-0.2,0.3-0.4,0.5-0.7,0.8C355.4,416.6,355.6,416.3,355.8,416z" />
	<path fill="#070913" d="M504.7,472.7c0.2,0.3,0.5,0.6,0.7,0.9C505.2,473.3,504.9,473,504.7,472.7z" />
	<path fill="#4B65C5" d="M462.3,515.7c4.5-1.3,8.6-0.1,13.4-0.9c-6-2.9-13.6-0.3-20.2,0.1c0.1-0.3,0.3-0.7,0.4-1.2   c-3.4,0-6.7-2.7-10-1.2c-0.2,0.1-0.8-0.3-1.2-0.4c0.3-0.3,0.6-0.6,0.9-0.9c-2.5-3.9-6.7-5.1-10.2-7.6c0-0.3,0.1-0.5,0.1-0.8   c2.3-1,4.6-2,6.9-3c15.1,8.7,36,8.3,49.1,19.9l0,0C482,522.5,472.2,515,462.3,515.7z" />
	<path fill="#030407" d="M382.6,439.7c0-1.6,0-3.3,0-5c-3.6,0.7-13.2,5.6-22.1,11.3c-0.3-0.3-0.6-0.6-0.9-0.9   c6.4-6.3,15.1-8.8,22.8-13.2c0.2-3.1,0.6-6.2-0.4-9.4c-7.2,1.7-14.2,6.5-16.9,13.4c-6.2-0.6,2.5-10.3,3-13.7c1.2,0.6,0.6,1.7,0.9,3   c7.5-4.2,16.4-8.2,24.6-4.2c-3.5,0.9-6.4,0.1-9.3,0.7c-1.2,2.6-0.3,6.1,0.2,8.9c7.6-2.8,13.3-8.1,20.9-11.2c-1,2.4-3.4,3.4-5.2,5   l0,0c-5.3,2.8-10.6,5.8-15.8,8.8c-0.4,4.1-0.7,8-1.1,12C382.2,443.5,382.7,441.5,382.6,439.7z" />
	<path fill="#4B65C5" d="M463.2,492.7c8.2,4.3,17.9,5.7,25.9,11.1c-13.2-1.1-27-5.4-40.5-6.5C453.2,495.2,458.1,493.5,463.2,492.7z" />
	<path fill="#020305" d="M486.2,456.7c-0.6-1.2-1.5-1.9-2.8-2.3c-5-1.3-7.1-6.4-10.2-10.1c0.3-0.7,0.9-0.7,1.5-0.7   c1.5,1.2,3,2.3,4.6,3.7c4-1,10.9-4.4,14-0.2c-3,2.9-6.9,1.7-10.9,2.9c2.4,3.1,6.7,1.5,6.1,6.7C487.8,456.7,487,456.7,486.2,456.7z" />
	<path fill="#04050A" d="M474.7,443.7c-0.6,0-1.2,0-1.5,0.7c-4.5-5.5-11.2-9.3-13.5-16.5c-4.2-1.8-8.7-2.2-13.1-2.4   c0.9-4.5,13.1,0.3,16.5,0.9c1.8,6,8.7,9.1,9.4,15.3C473.2,442.3,474,443,474.7,443.7z" />
	<path fill="#0E1222" d="M431.8,471.4c-0.8,0-1.5-0.1-2.3-0.1c19.7-2,40.8,3.7,60.8,4.5c-18.1,1.8-36.2-3.1-54.5-3.8   C434.5,471,433.1,471.4,431.8,471.4z" />
	<path fill="#06080E" d="M463.2,492.7c-8.8,2.1-21.9,6.2-27.6,10.9c-0.3,0.3-0.6,0.6-0.9,0.8c-1-0.2-1.4-1.7-2.1-0.1   c-1.6,1.1-3.2,2.2-5.5,3.4c6.7-9.9,26.8-15.9,38.7-16.2C464.9,491.9,464.1,492.3,463.2,492.7z" />
	<path fill="#4B65C6" d="M490.8,457.5c0.9,1,1.1,2.1,1.4,3.5c-8.6,0.2-16.7-1.4-25.4-1.5c6.6-4.3,16.4-1.7,23.8-1   C490.7,458.2,490.7,457.9,490.8,457.5z" />
	<path fill="#090B15" d="M437.9,438.3c7.7-0.7,16.1-5.3,23.5-2.8C460.1,437.2,439,440.3,437.9,438.3z" />
	<path fill="#0C0F1B" d="M472.4,466.6c-12.7,1.3-25.5,0.7-38.3,0C445.9,465.4,460.6,465.2,472.4,466.6z" />
	<path fill="#1D2545" d="M470.1,465.9c-16.1-0.9-32.4,1.8-47.9-0.5c15.9-0.9,32,0.3,48-0.2C470.1,465.4,470.1,465.7,470.1,465.9z" />
	<path fill="#4C66C7" d="M450.2,441.8c0.1-0.8,0.1-1.1,0.1-1.5c2.2-1.8,11.1,0.2,14.1,3.2C459.5,444,455,443.2,450.2,441.8z" />
	<path fill="#13192E" d="M433.6,424.4c-6.1,1.6-11.3,1.9-16.8,5C417,425.3,429.8,423.2,433.6,424.4z" />
	<path fill="#0D1120" d="M470.1,465.9c0-0.2,0.1-0.4,0.1-0.6c4.8,0.4,9.6-2.4,14.1-1.4c-2.5,1.9-6.5,2.8-11.8,2.8   C471.9,465.5,470.9,466,470.1,465.9z" />
	<path fill="#313F75" d="M434.1,470.4c-4.1,0.1-7.3,1.7-11.5-0.2C426.3,469.2,430.5,469.4,434.1,470.4z" />
	<path fill="#1A2241" d="M470,436c-0.5-0.5-0.9-1-1.4-1.5c2.7-0.9,5.4-1.1,8.7-0.8C475.3,436.5,471.9,434,470,436z" />
	<path fill="#141A31" d="M437.9,438.3c0.5,1.1,1.7,0.5,2.5,0.8c-2.5,1-5.2,1-7.8,1.6c-0.3-0.3-0.5-0.6-0.8-0.9   C433.8,439.3,435.9,438.8,437.9,438.3z" />
	<path fill="#26325F" d="M439.6,420.1c1.7-1.2,4.8-1.8,5.9,0.2C443.4,421,441.5,420.6,439.6,420.1z" />
	<path fill="#020305" d="M483.2,476.6c2.3-0.8,7.3-1.7,9,0.1C489.1,477.1,486.2,476.8,483.2,476.6z" />
	<path fill="#364683" d="M431.8,439.8c0.3,0.3,0.5,0.6,0.8,0.9c-1.2,1-2.4,0.6-4.2,1C429.5,440.4,430.5,439.8,431.8,439.8z" />
	<path fill="#4B65C5" d="M431.8,471.4c1.4,0,2.8-0.4,4,0.5C434.4,471.9,433,472.6,431.8,471.4z" />
	<path fill="#4B65C6" d="M486.2,456.7c0.8,0,1.5,0,2.3,0c-0.4,1.2-1.5,0.7-2.3,0.8C486.2,457.2,486.2,457,486.2,456.7z" />
	<path fill="#4B65C5" d="M491.6,519.6c0.4,0.1,0.7,0.1,1.8,0.3C492,520.2,492.1,520.5,491.6,519.6L491.6,519.6z" />
	<path fill="#4B65C5" d="M400.2,424.4c0.3-0.2,0.6-0.5,0.9-0.7C400.8,423.9,400.5,424.2,400.2,424.4z" />
	<path fill="#B6BCD4" d="M425.6,338.5c-8.7,6.5-23.3-12.7-17.4-19c1.3,0,2.7,0,4.2,0c2.6,5.4,6.7,10,10,14.7c-0.7,0-1.3-0.1-2.4-0.2   C421.5,336.5,422.7,338.8,425.6,338.5z M418.4,334.1c-0.7-3.4-2.2-6.1-4.8-8.3C410.6,328.3,415.4,333.6,418.4,334.1z" />
	<path fill="#B7BDD5" d="M425.7,384.5c1.4-2,0.9-4.9,1.6-7.7c4.3,5.6,13.3,26.6,6.2,31.5c-1.2-0.3-2-1.2-2.5-2.2   c0.5-0.1,0.9-0.2,1.3-0.3c0.2-4.2-0.6-10.7-4.4-13.8c-0.3,0.4-0.5,0.7-0.7,1c-0.2-0.4-0.7-0.9-0.6-1.1c1.3-2.7,0.3-4.8-1.8-6.5   C425.1,385.1,425.4,384.8,425.7,384.5z" />
	<path fill="#B6BCD4" d="M414.1,306.2c0.1-1.1,0.1-2.2,0.2-3.4c5.8-2.6,16.8,14.1,19,18.8c-0.7,0-1.4,0-2.2,0c-0.2,1.2-0.2,2,0,3   c-1.7-0.1-3-0.7-3.9-2.2c0.9-0.1,1.8-0.1,1.9-1.4c-0.7-1.4-0.9-3.2-2.6-4.1c-1.9,0.5-1.5,1.9-1.5,3.1c-1.9-0.8-3.2-2.5-4.7-3.8   c0.5-0.1,0.9-0.1,1.4-0.1c-0.7-3.6-4.2-6.6-6-10C415,306.2,414.6,306.2,414.1,306.2z" />
	<path fill="#0A0A0B" d="M441,330.8c3.4-9.2,13.8-11,19.3-18.5c0.6,0.5,0.9,0.8,1.3,1.2c-2,7-9.4,7.9-13.7,12.7   C445.7,328.1,444.3,330.4,441,330.8z" />
	<path fill="#09090A" d="M452.5,363.4c7.8-6.4,9.7-16.1,8.8-25.7c-0.2-2.1-0.1-2.1,1.1-4.6C464.8,342.5,464.6,361.3,452.5,363.4z" />
	<path fill="#101112" d="M414.1,306.2c0.5,0,1,0,1.5,0c1.8,3.4,5.3,6.3,6,10c-0.4,0-0.9,0.1-1.4,0.1   C417.5,314,412.5,310.2,414.1,306.2z" />
	<path fill="#0E0E10" d="M454.5,365.4c1.8,5.1,2.6,13.9-2.5,17.6c0.9-5.1,2.7-10.1,1.5-15.5C453.5,366.6,453.6,365.9,454.5,365.4z" />
	<path fill="#161619" d="M427.2,393c0.2-0.3,0.4-0.6,0.7-1c3.9,3.1,4.6,9.6,4.4,13.8c-0.4,0.1-0.8,0.2-1.3,0.3   C430.1,401.7,429.3,397.1,427.2,393z" />
	<path fill="#1C1D20" d="M425,320.1c0-1.2-0.4-2.6,1.5-3.1c1.6,0.9,1.9,2.7,2.6,4.1c-0.2,1.3-1.1,1.3-1.9,1.4   C426.4,321.7,425.7,320.9,425,320.1z" />
	<path fill="#27282D" d="M425.6,338.5c-2.9,0.3-4.1-2-5.6-4.5c1.1,0.1,1.8,0.1,2.4,0.2C423.6,335.6,425,336.8,425.6,338.5z" />
	<path fill="#101113" d="M431.1,324.7c-0.2-1.1-0.2-1.9,0-3c0.8,0,1.5,0,2.2,0c1,2.5,1,2.5,0.2,4.4   C432.2,326.5,431.9,325.1,431.1,324.7z" />
	<path fill="#232428" d="M419.8,374.1c-0.9-2-1.6-3.7-2.4-5.5C420.3,368.5,421.2,370.5,419.8,374.1z" />
	<path fill="#323439" d="M435,349.2c-0.4-2.4,0.7-3.8,1.1-5.3C438.9,344.8,436.4,347.7,435,349.2z" />
	<path fill="#3D3F45" d="M422.9,379.7c-0.2,0.3-0.5,0.6-0.7,0.8c-1.3,0-2-0.7-2.7-2C420.6,377.1,422.5,378.1,422.9,379.7z" />
	<path fill="#3E4047" d="M433.5,350.8c2,1.4,1.4,2.6,0.8,3.7C431.7,355.4,433,352.4,433.5,350.8z" />
	<path fill="#3E4046" d="M437.8,341.4c0.1-1.7,0.6-3.2,2.2-4.4C440.5,339.4,439.2,340.4,437.8,341.4z" />
	<path fill="#4B4D55" d="M451,388.3c1.3,1.7,1.3,1.7,0,3.7C451,390.8,451,389.9,451,388.3z" />
	<path fill="#898D9B" d="M425.7,384.5c-0.3,0.3-0.6,0.5-0.9,0.8c-0.2-0.3-0.3-0.7-0.5-1.1C425,383.5,425.4,384,425.7,384.5z" />
	<path fill="#181514" d="M530.5,575.9c-3.1,2.7-4.6,6.1-6.8,9.1C521.8,582.2,526.4,574.5,530.5,575.9z" />
	<path fill="#4D4541" d="M367.4,498.3c-2.3-0.7-4.5-1.3-7.2-2.1C362.1,493.6,365.5,495.8,367.4,498.3z" />
	<path fill="#26211F" d="M373.7,517.4c1.8-0.6,3.1,0.2,4.4,1.3c0,0.4-0.1,0.7-0.1,1.2c-1.6,0.2-2.8-1-4.2-1.2   C373.7,518.2,373.7,517.8,373.7,517.4z" />
	<path fill="#0A0909" d="M537.5,574.9c-1.5-1.2-1.5-1.2-0.1-3.7C539.3,571.6,537.8,573.7,537.5,574.9z" />
	<path fill="#2F2825" d="M428.6,545.7c0.1,0.6,0.1,1.2,0.2,1.7c-1.5,0.8-2.6-2.2-4.4-3.3c1.3,0,2,0,2.7,0   C427.7,544.6,428.1,545.2,428.6,545.7z" />
	<path fill="#4F4743" d="M370.6,500.1c3-0.6,3-0.6,4.2,1.7C372.9,502.3,372.6,501.3,370.6,500.1z" />
	<path fill="#2C2725" d="M503.6,575.3c-1-1-2.1-2.3-0.4-2.9C505.3,572.3,504.7,574.2,503.6,575.3z" />
	<path fill="#3B3533" d="M540.4,567.4c2.1,0.7,1.2,2.2-0.1,2.9C539.5,569.1,539.6,568.3,540.4,567.4z" />
	<path fill="#D6BEB4" d="M529,559.2c-1.6,0.6-2.3-0.3-3.4-0.9C527,557.8,528.1,557.7,529,559.2z" />
	<path fill="#403A37" d="M395.1,525c-2.3-0.3-2.3-0.3-3.8-1.4C392.8,523.2,394,523.1,395.1,525z" />
	<path fill="#453E3B" d="M388,524.2c-0.8-0.7-1.1-1-1.4-1.3c0.3-0.3,0.6-0.6,0.9-0.9C388.3,522.7,388.7,523,388,524.2z" />
	<path fill="#070912" d="M389.5,452.9c5.9,12.4,12.8,24,23.7,32.7c-12.3-4.6-19.7-20-24.5-31.8C388.9,453.5,389.2,453.2,389.5,452.9   z" />
	<path fill="#5775E6" d="M444,496.5c-2,0.8-4,1.7-5.9,2.5c-4.6-2.5-10.7-1.6-13.7-6.7C430.6,493.1,437.8,494.4,444,496.5z" />
	<path fill="#0F1325" d="M432.7,501.8c-0.6,0.5-1.3,1.1-1.9,1.6c0-0.4,0-0.7,0.1-1.2c-5-3.8-9.9-7.7-14-12.5c0.6-0.6,0.5-0.7,1-0.5   C422.7,493.6,427.6,497.9,432.7,501.8z" />
	<path fill="#12182E" d="M389.5,452.9c-0.3,0.3-0.6,0.6-0.8,0.9c-1-1.1-2.5-1.2-3.8-1.6c-4.8-0.9-3.1-9.1-2.3-12.6   c-0.2,3.8,1.2,6.7,1,10.6C385.5,451.4,388.2,450.9,389.5,452.9z" />
	<path fill="#11172B" d="M434.6,504.4c0.3-0.3,0.6-0.6,0.9-0.8c3.6,2.5,7.7,3.7,10.2,7.6c-0.3,0.3-0.6,0.6-0.9,0.9   C442,508.8,437.7,507.3,434.6,504.4z" />
	<path fill="#1C2548" d="M381.6,482.2c3.4-2.8,7-3.3,10.7-4C391.6,480.5,384.8,481.4,381.6,482.2z" />
	<path fill="#151C36" d="M368.9,423.8c-0.1-0.6,0.1-1.3-0.8-1.6c0.9-2.7,0.9-2.7,2.8-4.4C371.5,420.3,370,422,368.9,423.8z" />
	<path fill="#0D1121" d="M365.3,471.6c-3.3,0.6-7.4,1.5-10.2-0.6C358.4,470.1,362,471.5,365.3,471.6z" />
	<path fill="#3B4F99" d="M396.5,492.8c1.7-1.5,3.3-2.9,5-4.4c0.3,0.4,0.6,0.6,1,1C400.7,491,399.1,492.9,396.5,492.8L396.5,492.8z" />
	<path fill="#192140" d="M359.6,445.1c0.3,0.3,0.6,0.6,0.9,0.9c-0.9,1.2-1.9,2.3-3.6,3.2C357.2,447.1,358.2,446,359.6,445.1z" />
	<path fill="#222E57" d="M400.3,498.9c0.9-2.1,0.9-2.1,2.5-1.7C401.9,497.9,401.1,498.4,400.3,498.9z" />
	<path fill="#11172B" d="M432.5,504.3c0.5-0.9,1-1,1.5-0.1C433.5,504.2,433,504.2,432.5,504.3z" />
	<path fill="#3B4F99" d="M396.5,492.8c-0.2,0.5-0.5,0.9-1.4,0.3C395.7,492.9,396.1,492.8,396.5,492.8L396.5,492.8z" />
	<path fill="#070606" d="M356.7,279.4c0.4,7.9-9.5,13.7-14.2,19.1c-5.5-2.7,11-15.5,13.1-19.1C356,279.4,356.4,279.4,356.7,279.4z" />
	<path fill="#0D0C0B" d="M331.2,289.3c-2.1,1.5-3.7,4.5-6.5,4.7c-2.2-2,6.4-9.8,8.6-9.1C333.5,286.8,331.9,287.9,331.2,289.3z" />
	<path fill="#100E0E" d="M392.4,226.4c1.3-3.2,2.4-6.1,4.4-8.4C401,218.4,395.1,227.2,392.4,226.4z" />
	<path fill="#312A27" d="M387.2,211.1c-1.9-0.4-3.1-0.5-4.8-1.6c2.2-2.7,5.5-1.2,8,0.4c-0.4,0.5-0.7,0.8-1.1,1.2   C388.7,211.1,388,211.1,387.2,211.1z" />
	<path fill="#151312" d="M384.2,237c-0.3-2.2,1.8-6.2,4.1-4.5C389.7,234.7,386.3,236.7,384.2,237z" />
	<path fill="#24211F" d="M356.7,279.4c-0.4,0-0.8,0-1.1,0c-0.5-2.6,1.1-6.6,4.1-5.9c-0.1,2.5-2.1,3.3-3.1,4.8   C356.6,278.6,356.7,279,356.7,279.4z" />
	<path fill="#342F2D" d="M363.5,269.5c0-2.1,0.6-3.6,2.4-4.7C366.9,266.6,366.4,267.4,363.5,269.5z" />
	<path fill="#322D2A" d="M334.5,282.1c0-1.4,0.5-2.4,1.6-3.1c2,0.8,0.1,2.5-0.4,3.7C335.1,282.4,334.8,282.3,334.5,282.1z" />
	<path fill="#020202" d="M369.4,259.7c1.3,2,0.9,3-0.3,4.2C367.9,262.2,368.6,261.8,369.4,259.7z" />
	<path fill="#1E1B19" d="M343.2,272.7c1,1.2,0.6,2.1-0.6,2.7C340.6,275.2,341.3,272.1,343.2,272.7z" />
	<path fill="#231F1E" d="M375.6,251c1.4,1.9,1.4,1.9-0.2,3.5C374.4,253.4,374.5,252.4,375.6,251z" />
	<path fill="#463F3C" d="M347.7,267.2c0.7,1.9,0.7,1.9-0.5,2.8C346.4,268.6,346.4,268.6,347.7,267.2z" />
	<path fill="#5B524E" d="M392.8,212.1c1.5-0.4,2.2,0,2.9,1.4C394.3,213.7,393.5,213.4,392.8,212.1z" />
	<path fill="#312C2A" d="M390,229.7c0.6-1.6,0.9-2.2,1.2-2.9C392.6,227.9,392.6,227.9,390,229.7z" />
	<polygon fill="#AC9A92" points="396.1,214.8 396,214.5 396.2,214.6  " />
	<path fill="#1A1716" d="M427.9,116c1.8,0,3.1,1.5,4.6,2.4l0,0c1.8,1.9,3.1,3.7,5.2,6c-1.3,0.1-2.1,0.1-3.2,0.2   c-0.3,0.6-0.8,1.4-1.3,2.3c0.5,0.8,1,1.6,1.5,2.4c3.2,0.8,5.2,1.5,3.1,5c-2.3,0.4-5.1,0.9-6.9-0.9c0.3-0.7,0.6-1.4,0.9-2.1   c-2-3.2,0.5-5.8,1.3-8.6c-1.1-1.2-1.9-2.7-3.6-3.5c-0.6,1.5-1.1,2.7-1.5,3.7c1,3.3,3.6,6.1,1.1,9.3c-0.9-1.9-0.3-4.1-1.9-5.4   c0.1-2.4-3.6-0.5-3.2-3.2C426.2,121.6,426.6,118.5,427.9,116z" />
	<path fill="#0A0909" d="M474.1,111.2c-2.5,0.1-2.5,0-4.3-0.8c1.6-5.8,28.2-7.1,21.3,0.7C485.4,111.5,479.1,106.7,474.1,111.2z" />
	<path fill="#0E0D0D" d="M489,113.2c-0.4,1.8-1.7,2.9-0.3,3.9c-1.1,1.4-2.6,1.5-3.9,2.1c-2.7-1.5-5.3-0.2-7.9-1.7   C480.1,113.8,484.2,113.1,489,113.2z" />
	<path fill="#131111" d="M438.7,143.7c-0.1-0.9,0.3-1.9-0.9-2.4c0-0.2,0.1-0.5,0.1-0.7c0.4,0,0.7-0.1,1.3-0.1   c0.2,0.7,0.4,1.4,0.6,2.1c0.5,0,1.1,0,1.9,0c0.5,2.5,2.4,4.7,1.5,7.3c1.5,2.6,3.4,4.2,5.4,6.1l0,0c0.3,0.3,0.5,0.6,0.8,0.8l0,0   c-3.5,1.9-7-3.9-9.1-6.3C439.5,148.5,440.5,144.9,438.7,143.7z" />
	<path fill="#E5CCC1" d="M427.2,126.7c1.6,1.3,1,3.5,1.9,5.4c2.6-3.2,0-6-1.1-9.3c0.4-0.9,0.9-2.2,1.5-3.7c1.7,0.8,2.5,2.3,3.6,3.5   c-0.9,2.9-3.3,5.4-1.3,8.6c-0.3,0.7-0.6,1.4-0.9,2.1c1.8,1.8,4.7,1.3,6.9,0.9c-1.4,1.9-4.1,0.6-6.3,1c-0.9-1.3-1.9-2.1-3.4-2.8   C427.8,130.5,427.5,128.6,427.2,126.7z" />
	<path fill="#312B29" d="M424,123.5c0.1,1,0.3,1.8,1.5,1.7c-1.1,1.2-1.3,2.5,0,3.9l0,0c0.3,0.5,0.5,1,0.8,1.5l0,0   c-0.1,0.2-0.2,0.4-0.1,0.6l0,0c-2.4-0.4-3.2-2.9-4.7-4.5c0.1-0.5,0.1-1,0.2-1.5C423.1,125.4,423.3,124.2,424,123.5z" />
	<path fill="#D8B9AB" d="M437.9,140.6c0,0.3,0,0.5-0.1,0.7c-2.6,2.3-8.2-1.9-9.2-4.5C431.4,138.6,434.5,140.5,437.9,140.6z" />
	<path fill="#BDA89F" d="M421.6,126.8c1.5,1.6,2.3,4.1,4.7,4.5c-0.4,0.7-0.9,1.3-1.5,1.8c-1.7-0.8-3-2.1-3.8-3.8   c0.1-0.6,0.1-1.3-0.6-1.7c-0.4-0.7-0.1-1.5,0-2.3c0.2,0,0.4,0,0.7-0.1c0,0,0,0,0,0C421.2,125.7,421.4,126.3,421.6,126.8z" />
	<path fill="#322D2B" d="M467,165.9c-0.2,0.5-0.2,0.7-0.8,1c-2-0.8-4.1-1.6-5.4-4c0.7-0.1,1.2-0.2,1.6-0.2   C464,163.8,465.5,164.8,467,165.9z" />
	<path fill="#47413E" d="M456.4,137c-1.8-0.9-2.7-1.2-3.9-2C452.9,131.9,455.2,133.6,456.4,137z" />
	<path fill="#4F4946" d="M461.4,139.9c-2.4-0.2-3.8-0.3-4.2-2.9C459.2,136.6,460.1,137.7,461.4,139.9z" />
	<path fill="#39322F" d="M470.1,169.1c0,0.5,0,0.9,0,1.4c-2,0.2-2.6,0.4-3.7-1.9c0.5-0.2,0.9-0.3,1.4-0.4   C468.6,168.5,469.3,168.8,470.1,169.1z" />
	<path fill="#EECABA" d="M473.2,170.4c-0.6-0.2-1.1-0.4-1.7-0.6C472.2,169.7,472.8,169.6,473.2,170.4z" />
	<path fill="#BDA89F" d="M426.3,130.6c-0.3-0.5-0.5-1-0.8-1.5C426.4,129.3,426.5,129.9,426.3,130.6z" />
	<path fill="#B7A39A" d="M434,117.7c0.7-0.1,1.2,0,1.5,0.7C435,118.2,434.5,117.9,434,117.7z" />
	<path fill="#BDA89F" d="M425.6,129.1c-0.2-0.3-0.4-0.6-0.6-0.9C425.2,128.5,425.4,128.8,425.6,129.1z" />
	<path fill="#EECABA" d="M449.3,156.8c-0.3-0.3-0.5-0.6-0.8-0.8C448.8,156.3,449.1,156.5,449.3,156.8z" />
	<path fill="#EECABA" d="M448.6,156c-0.2-0.3-0.5-0.6-0.7-0.8C448.1,155.4,448.3,155.7,448.6,156z" />
	<path fill="#B7A39A" d="M433.3,119.1c-0.3-0.3-0.5-0.5-0.8-0.8C432.7,118.6,433,118.9,433.3,119.1z" />
	<path fill="#BDA89F" d="M426.3,131.3c-0.1-0.2-0.1-0.4,0.1-0.6c0.2,0.1,0.4,0.3,0.5,0.4C426.7,131.1,426.5,131.2,426.3,131.3z" />
	<path fill="#080706" d="M468,576.2c-4.2-3-9.2-4.8-12.6-8.8c8.5,0.2,15,7.1,22.9,9.6c1.3,0.5,2.3,1.2,1.7,2.8   C476,581.5,471.9,577.1,468,576.2L468,576.2z" />
	<path fill="#161312" d="M447.4,561.9c2.6-0.8,6.6,2,4.7,4.4C450.1,565.4,448.4,564.3,447.4,561.9z" />
	<path fill="#3B322F" d="M436.4,555c-1.1-1.1-2.2-2.2-3.6-3.6C435.6,550.9,435.9,551.7,436.4,555z" />
	<path fill="#26211F" d="M440.2,557.7c2.1-1.3,3-0.9,3.8,1.6C442.5,558.9,441.5,558.6,440.2,557.7z" />
	<path fill="#201C1A" d="M412.7,243.4c-0.1,1.7,1.6,5.6-1.4,5.3c-0.3-1.3-0.6-2.7-0.9-4c0.2-0.7,0.5-1.4,0.7-2.1   C412,242.3,412.3,242.9,412.7,243.4z" />
	<path fill="#060505" d="M409.7,231.2c1,1.7,2.3,3,0.2,4.1C409.1,234.2,409.4,233,409.7,231.2z" />
	<path fill="#1B1715" d="M424.7,152.6c1-2.1,2.4-7.5,5.3-6.4c-0.9,2.9-2.4,5.1-4.3,7.4C425.4,153.3,425,153,424.7,152.6z" />
	<path fill="#070706" d="M453.5,194.9c-1.2-1.8-1-3.4-0.6-4.9C455.5,189.6,454.7,193.5,453.5,194.9z" />
	<path fill="#080808" d="M451,181.4c0.3-0.2,0.6-0.3,1-0.5c0.9,2.3,0.9,2.5,0.3,6.3C450.2,186.2,451.3,183.3,451,181.4z" />
	<path fill="#080707" d="M455.2,201.9c-1.4-2.1-1.4-2.1-0.3-4.1C456.6,199.3,456.7,199.5,455.2,201.9z" />
	<path fill="#443A37" d="M424.7,152.6c0.3,0.4,0.7,0.7,1,1.1c0,0.3,0,0.5-0.1,0.8c-0.4,0.2-0.9,0.3-1.3,0.5   C423.9,154,423.8,153.2,424.7,152.6z" />
	<path fill="#2D2724" d="M374.6,187.8c1.9,1.3,1.2,3.8,3.4,5c1.1,0.8,1.1,2.1,1.4,3.3c-2.2,1.4-1.9-2.5-3.9-2.9   C373.7,192.3,372.8,189.3,374.6,187.8z" />
	<path fill="#010101" d="M382,201.4c-1.2-1.1-2-1.8-0.8-3.3C382.3,198.9,382.9,199.6,382,201.4z" />
	<path fill="#816E66" d="M384.3,202.2c-0.5,0.4-0.8,0.7-1.3,0.2C383.5,201.9,383.6,201.3,384.3,202.2z" />
	<path fill="#665851" d="M355.1,233.5c1.6-1.1,3.1-2.4,5.5-2.9c-1.3,2.1-3.2,2.7-4.8,3.7C355.6,234,355.3,233.7,355.1,233.5z" />
	<path fill="#937E74" d="M355.1,233.5c0.3,0.2,0.5,0.5,0.8,0.7c-0.7,0.4-1.3,0.9-2.1,1.4C353.4,234.2,354.2,233.8,355.1,233.5z" />
	<path fill="#1A1615" d="M450.7,161.9c1.8,4.9,3.2,10.8,2.1,15.9C450.8,177.7,448.3,163,450.7,161.9z" />
	<path fill="#171A1F" d="M405.7,174.5c-2.5-2.1-2.6-3.2-0.8-6.3C406.4,170.1,405.5,171.9,405.7,174.5z" />
	<path fill="#090A0B" d="M407.3,175c-0.2,1.5-0.2,2.1-0.3,3C405.8,176.7,405.8,176.7,407.3,175z" />
	<path fill="#3E4658" d="M409.6,182c-0.9,1.1-1.8,0.5-1.6-0.7C408.5,181.5,409.1,181.8,409.6,182z" />
	<path fill="#303137" d="M452.4,293.2c-1.5-0.4-1.5-0.4-1.3-2C452.4,291.4,452.4,291.4,452.4,293.2L452.4,293.2z" />
	<path fill="#25262A" d="M445,290c-1.2,0.4-2.1,0.5-2.4-0.7C443.1,288,444.2,289.1,445,290z" />
	<path fill="#1C1C1E" d="M323.4,462.8c0.1,2.6-0.3,5.3-1.5,7.9C319.3,469.7,320.7,462.9,323.4,462.8z" />
	<path fill="#A08E87" d="M420.3,127.5c0.7,0.4,0.7,1,0.6,1.7C420.7,128.6,420.5,128.1,420.3,127.5z" />
	<path fill="#373331" d="M421,132.2c-0.3-0.3-0.5-0.5-0.8-0.8C420.5,131.7,420.7,131.9,421,132.2z" />
	<path fill="#13151B" d="M385.7,190.4c-0.2-0.1-0.3-0.2-0.5-0.3C385.8,189.7,385.6,190.3,385.7,190.4L385.7,190.4z" />
	<path fill="#A08E87" d="M421.6,126.8c-0.2-0.5-0.4-1.1-0.6-1.6c0.3,0,0.5,0,0.8,0C421.7,125.7,421.7,126.3,421.6,126.8z" />
	<path fill="#3A3634" d="M430.2,116.8c-0.3-0.2-0.5-0.4-0.8-0.6C429.7,116.4,429.9,116.6,430.2,116.8z" />
	<path fill="#11172B" d="M435.5,503.5c-0.7-0.3-0.6-0.6,0.1-0.8C435.6,503,435.5,503.3,435.5,503.5z" />
	<path fill="#0E0F10" d="M418.4,334.1c-3-0.4-7.8-5.8-4.8-8.3C416.1,328,417.7,330.7,418.4,334.1z" />
</g>
</svg>