<?xml version='1.0' encoding='utf-8'?>
<svg xmlns="http://www.w3.org/2000/svg" version="1.2" baseProfile="tiny" id="Layer_2_1_" x="0px" y="0px" viewBox="0 0 900 600" overflow="visible" xml:space="preserve">
<g id="a_00000041293845472770240360000010160457754675263677_">
	<path fill="#010101" d="M572.7,206.9c-14.4,17.9-35.2,28.8-54,41.4c-8.3,7.6-20.5-3.2-26.8,7c0.3,2.3-0.8,5.7,1.2,7.5   c5.3,10.5-3.6,22.7,0.5,33.9c3.4,8.4-1.1,16.1-1.8,24.5c-1.4,19-4.6,38-5.2,57c-10.3,9-12,4.9-15.1,20.8c-8,27.1-9.2,37.1-4.8,65   c2.4,9-5.2,17.1-6.7,25.8c-3.6,21.1-16.6,39.6-17.8,61c1,0.5,2.1,1,3.2,1.5c2.1,6.4-0.8,13.6,2.9,19.5c-0.3,4,2.6,7.5,2.1,11.6   c-0.1,1,0.7,2.1,1.3,3c1.4,2.7,4.2,4.7,3.5,8.2c-12,8.1-28.5,5.2-42,2.8c-3-8.6,1.9-16.5,3-24.9c0.7-9.5,0.4-19.4,3-28.6   c9.4-3.5,5.9-15.9,6.9-23.8c0.1-15.3,1.4-30.7-0.7-45.8c-1.4-11.5,0.9-22.6,5-33.3c-1.6-19.3-4.6-39.4-4.2-59.3   c-5.6-2-10.1-4.1-15.1-7.3c1.3-8.6,2.3-16.3,3.4-25.2c-8.2,4.7-12.5,13.4-19.9,19.1c-1.9-0.8-3.9-1.6-6.2-2.5   c-14.4,13.1-22.6,32.1-39.3,42.3c-4,1.5-6.3,4.2-8.7,6.9c-0.3-0.3-0.6-0.6-1-1c8.3-15.5,20.4-4.3,32.1-41.4   c1.5,2.7-1.2,4.9-0.3,7.3c5.6-3.2,9.8-10.2,14.8-14.7c-13.4-10.2-31-14.8-41.8-29.2c-5.9,11.6-10.3,24.4-13.2,37.3   c-0.5,0.1-1,0.3-1.8,0.5c8.2-50,41.9-90.8,67.5-133.1c-17.3-1.1-29-17.4-37.7-31.5c0.2-0.3,0.5-0.6,0.7-0.9   c7.6,8.6,14.2,18,23.2,25.3c0-1.7,0-2.8,0-3.9c1.2,1,2.3,2.1,3.3,3.3c0,1,0,1.9,0,2.9c3.4,2.2,6.9,2.5,10.4,2.2   c2.6,1.6,4.5,3.8,7.4,4.4l0,0c2.9,3,7.2,2.2,11,2.4c0.3,0.3,0.7,0.5,1,0.8c-0.5,0.2-1,0.4-1.7,0.7c1.9,1.4,3.6,2.7,5.1,3.7   c1.9-0.2,0.1-2.4,2.2-2.4c0.5,1.2,1.1,2.4,1.7,3.9c13.8,3,28.2,7.2,42.4,6.7c2.4-2.4,5.2-3.9,9-5c0.6,2.2-2.6,2.3-3,4.4   c5.4,0.2,10.6-2.4,15.7-1.3c-1.1,1.2-2.4,1.6-4,1.4c-1.6,1.8-4.7-0.2-6,1.6c-1.2,0.5-0.7,1.6-1,2.5c-0.2-0.2-0.5-0.5-0.7-0.7   c-0.4-4-2.2,0.4-3.3,1.5c-0.1-0.8-0.2-1.5-0.3-2.4c-2.2,0.7-1.2,2.4-1.6,3.5c-0.5-1.1-0.9-2.2-1.4-3.3c-6.3-0.6-12,2-18-0.1   c0.3-3.1-16.7-1.5-20.7-3.3c-0.3,1-0.6,1.9-1.1,3.7c-0.2-2.1-0.3-3.1-0.4-4.4c-0.7-0.1-1.2-0.1-1.9-0.2c-0.2,1.3-0.4,2.5-0.6,3.7   c-0.3-0.2-0.6-0.3-0.8-0.4c0.6-3.6-0.8-4.6-4.2-5.2c-0.8-1.3-1.8-0.6-1.8,0.8c-1.3,1-0.6,2.3-0.7,3.5c-0.3,0-0.6,0-0.9,0   c-0.1-1.4,0-2.8,0.2-4.1c0.7-0.7,1.1-1.3-0.2-1.7c-1.4-0.7-2.3,0.9-3.3,1.6c-0.3-1.6,0.7-3.6-1.6-4c-0.3,0.7-0.7,1.4-1.1,2.1   c-0.4,0-0.8,0-1.4,0c-0.5-1.3,1.9-3.6-0.4-3.9c-0.5,0.9-1.1,2-1.8,3.1c-1.4-1.7,0.4-3.1-0.2-4.8c-0.4,0-0.9-0.1-1.4-0.1   c-1.7,3.4-2.2,4-3.1,3.6c0.1-0.8,0.2-1.6,0.4-2.5c-0.6,0.1-0.9,0.1-1.2,0.2c-0.2-0.6-0.4-1.2-0.6-1.8c-0.6,0.7-1.2,1.3-1.8,2.1   c-1.1-2,1.2-3.2,0.8-4.9c-2-0.4-1.7,2.7-3.6,2.1c0,0.3-0.2,0.7-0.1,0.8c1.8,2-1.6,2.9,2.4,5.6c-0.3,0.3-0.5,0.5-0.8,0.8   c-1.3-1.2-2.6-2.4-4.1-3.8c-4.6,5.7-7.7,13.5-13.4,18.4c-2.4,9-11,15.5-13.7,24.7c-6.5,14.4-17.8,26.1-22.6,41.4   c12.9,15,31.4,24.3,49.1,32.6c1.9-1.9,3.9-3.7,5.5-5.8c0.9-4.1,6.8-5.7,8.5-9.5c0.3-2.3,2-3,3.8-3.5c2.4-0.6,3.2-3.2,5.4-4.1   c1.5,1.1,1.2,2.3,0.8,3.6c-2.7,8.5-3.8,17.9-4.5,26.8c20.1,11.2,50.6,20.3,70.3,3.8c0-26.2,8-52.3,7.8-78.3   c-1.1-8.1-1.8-17.5,0.4-25.3c-0.5-4.9,0.4-10.6-5.6-11.6c0.4-2.1,1.4-4.1,3-5.7c-0.2-0.4-0.4-0.7-0.5-1.1c1.3-2,1.3-2-0.7-2.6   c3.5-2.5,7.3-3.2,11.5-4.4c3.1,1.6,6.6,1.2,10.2,0.9c0.3-0.9,0.5-1.7,0.7-2.4c1.4-0.7,2.4-2.4,4-2.1c-0.2,0.9-0.3,1.8-0.6,3   c21.3-10.9,40.8-24.7,57.6-41.7C572,206.1,572.4,206.5,572.7,206.9z M420.1,554.6c-1.3,1.3-0.7,2.5,0,3.5   c5.8,0.6,14.7-2.7,18.5,2.2c-1.9,1.9-4.7,0.3-6.9,1.3c1.5,2.9,4.8,0,6.7,3.5c-5.7,0.6-11.1,1.2-16.6,0c0.2-1,0.4-1.9,0.7-2.9   c-0.8,0-1.3,0-1.9,0c-2.4,4.1-0.4,9.5-1.9,13.7c-2.1,3.6-0.2,7.8-2,11.5c-1.5,2.8-1.1,5.6-0.8,8.6c10.9,2.8,25.5,2.5,36.5-2.6   c-7.8-11.8-8.3-26.1-9.8-39.5c-0.9-0.2-1.7-0.4-2.5-0.6c-2-2.8-0.4-6.2-1.5-9.3c-4-0.6-8-1.6-12.3-1.2c-1.5,1.4-3,2.8-4.3,4   c-0.3,2.9-0.6,5.2-0.8,7.6C420.8,554.5,420.5,554.5,420.1,554.6z M462.9,454c-5.1-22.6,4.1-45.1,9-66.8c-1.6,0-2.9-0.7-4.1,0.5   c-0.2-0.1-0.5,0-0.7,0c-14.8-0.1-23,1-37.6-4.8c-1.7,7.5,0.4,15,0.5,22.5c1.9,6.9-1.8,13.8,0.5,20.6c1.8,6.3,7,13.6,5.5,20   c-1.8-1.6-0.8-4.3-2.8-6c-4.9,13.7-7.7,27.2-3.9,41.5c0.4,19.2-0.3,38.5-1.6,57.8c4.3,0.1,8.5,0.5,12.4,2.4   c0.8-3.6,3.6-6.7,2.9-10.2c-0.6-1.2-0.1-2.5,0.7-3c8.3-13.6,11.5-30.6,14.1-46.2c0.4,0.1,0.8,0.2,1.4,0.3   C463.1,474,465.3,463.3,462.9,454z" />
	<path fill="#010101" d="M490.9,52.8c-3.4,8.8-7.9,17.6-5.6,27.4c20.4,21.1,62,20.8,68,53.8c16.6,11.5,19.6,31.7,27.4,48.9   c5.4,5.9,2.6,11-2.1,16.1c-0.3-0.3-0.6-0.7-1-1c1.4-2.3,2.7-4.6,4.3-7.3c-2.6-8.7-8-17-10.8-25.7c-2.3-9.7-6.5-19.4-15.4-24.7   c-5,9.6-14.2,23.1-26.4,20.4c10.8-3.2,21.4-10.7,24.2-22.1c-6.4-30.6-41.6-35.7-63.9-50.9c-0.3,16.1-17.8,23.8-31.8,19.2   c13.6-0.6,34-4,27.7-22.7c-0.3,1.7-0.5,3.1-0.8,5.4c-1.3-6.6-1.8-12.3-1.4-18.1c-0.5-0.7-1.1-1.4-1.7-2.1c7.3-9.1,6.7-21.1,6.1-32   c0.5-17-3.8-28.4-22.7-28.1c-29.2-3.2-27.3,41.5-18,59.2c-0.3,0.7-0.6,1.3-0.9,2l0-0.1c-2.5,5-0.1,12.8-1,18.7   c-1.4-1.6-0.7-3.6-0.9-5.7c-3,2.9-1.1,7.1-1.6,10.8c-0.3,0-0.6,0-0.8,0c-0.7-1,0.8-2.6-0.8-3.4c-0.1-2.6-0.2-5.2-0.3-8.1   c-10.1,4.6-19.8,11.3-31,12.4c-10.7,1.1-20,7.8-25.8,16.8c-0.8,2.2-3.1,3.5-3.3,5.9c-0.6,1.3,0.9,1.6,0.8,2.6   c-0.3,0.9,0.4,2.1-0.9,2.7c-0.5-0.8,0.5-2-0.8-2.5c-0.4-1.3-0.9-2.6-1.4-4.1c-22.5,4.5-30.2,27.5-44,43.2   c1.8,13,8.5,24.7,15.4,35.7c0,0.7,0,1.4-0.9,1.7c-9-11.1-14.5-23.2-17.2-37.3c7.2-12.3,16.5-23.7,24.9-35.2   c6.4-9.3,20.6-6.8,26.4-16.3c6.4-10.5,17.3-15.4,29.1-16.4c11.2-2.3,21.1-9.8,31.1-15.3c1.4-7.6-1.2-14.7-4.1-21.6   c1.3-3.8,0.9-7.6,0.3-11.5c-0.2,1.1-0.3,2.2-0.5,3.3c-0.8-1.4-0.3-2.7-1.5-3.7c-1.3-1.6,0-3.2,0-5c0.5-0.3,1.1-0.7,1.6-1.1   c0.2-4.8-2.1-9.9,0-14.6c1.9-3.5-1.3-8.8,2.5-11.3c3.6-4.9,9.3-8.3,15.2-9c1.9-5.4,21.2,0.4,25.3,2.8c13.7,8,9.4,25.4,9.8,38.2   c-0.8,0.2-1.5,0.5-2.4,0.7c0,1.7,0,3.4,0,5.3C490.5,50.1,490.8,51.4,490.9,52.8z M439.1,42c0.1,0,0.3,0,0.4,0   C440.2,39.7,438.5,39.9,439.1,42z" />
	<path fill="#030202" d="M247.3,512.6c1.6-2.7,4.1-4.4,5.4-7.3c0.9-4.8,2.7-10.1,8.6-10c9.9-8.8,9-22.8,16.5-32.7   c1.3,0.4,1,2.1,0.7,3c-4.3,10.5-6.3,21.3-12.9,30.4c9.2,2,7.5,3.8,10,11.5c10.6-27.8,35.8-45.8,52.6-69.5c0.3,0.6,0.6,1.3,0.9,1.9   c-13.7,23.5-40,38.9-50,65.4c0.7,0.6,1.2,1,2,1.6c-0.5,1-1.4,1.8-1.5,2.9c0.7,4.5-2,8.7-3.6,12.8c-5.4,7.8-2,17.8-8.8,25   c-2.3-0.2-4.8-0.3-7.5-0.5c-1.4,1.8-3,3.7-4.6,5.8c-12.2-0.7-29.4-7.8-34.9-17.9c4.4-4.3,8.5-14.2,15.9-10.4   c-5.1,3.4-11,5.5-12.6,12.2c5.8,5.8,13.2,7.3,20.2,10.2c3.2,1.9,6.4,3.9,10.5,2.8c1.2-1.6,2.6-3.5,4-5.4c2.5,1.1,5.1,1,7.9,1.1   c3.4-11,5.3-21.8,10.7-32c-0.9-0.1-1.6-0.2-2.6-0.3c0.8-3.9-2.5-7.4-3.1-11c-3.8-3.2-8.2-2.5-12.3-3.8c-3.1,1.8-3.9,4.6-4.8,7.4   c5.1,2.6,11.1,4.9,14.9,9.5c-6.6,0.5-10.9-5.5-17-4.6c3.7,2.4,10.9,3.7,11,8.7c-1.6,0.5-2.6-0.4-4-0.6c-1.2-1-2.6-1.2-4.2-1   c2.5,1.5,4.3,2.3,5.4,5.3c-4.5-1-8.9-3.3-11.8-6.1c-0.4-1.6,1.1-1.4,0.4-2.7c-0.4-0.1-1.1-0.1-1.7-0.2   C247.4,513.5,247.4,513.1,247.3,512.6z" />
	<path fill="#0B0808" d="M329.1,369.8c0,1.3,0,2.6,0,4c0.8-0.2,1.3-0.4,1.8-0.5c-6.2,21.8-28.2,32-37.7,51.9   c-1.1-0.6-0.5-1.7-0.7-2.6c3.8-12.2,14.8-19.6,23.4-28.3c6.3-4.9,7.1-13.9,13.1-18.9c-0.2-0.1-0.3-0.3-0.5-0.4   C328.2,373.2,328.1,371.4,329.1,369.8z" />
	<path fill="#1E1917" d="M292.5,422.6c0.2,0.9-0.4,1.9,0.7,2.6c-5.9,12.6-8.7,26.5-14.3,39.2c-0.1-0.7,0-1.6-1-1.8   C282.3,449.1,286.7,435.6,292.5,422.6z" />
	<path fill="#201D1C" d="M329.3,439.9c-0.3-0.6-0.6-1.3-0.9-1.9c3.7-7.9,5.7-16.9,11-23.9c0.3,0.3,0.6,0.6,1,1   C336.7,423.4,333,431.7,329.3,439.9z" />
	<path fill="#160E0E" d="M247.3,512.6c0,5.5-6.3,8.1-9.3,12.1c-2.1-0.1-3.8-1.3-6.1-0.9c1.4-0.6,3.5-1.2,4.9-0.9   C240.6,519.3,244,516,247.3,512.6z" />
	<path fill="#1D1A19" d="M348.7,197.3c0.9-0.3,0.8-1,0.9-1.7c3.3,4.3,6.6,8.6,10,12.8c-0.2,0.3-0.5,0.6-0.7,0.9   C354.9,205.8,351.3,201.9,348.7,197.3z" />
	<path fill="#191716" d="M437.2,43.3c1.2,1.1,0.7,2.4,1.5,3.7c0.2-1.1,0.3-2.2,0.5-3.3c0.6,3.9,1.1,7.7-0.3,11.5   C436,51.9,437.2,47.3,437.2,43.3z" />
	<path fill="#292624" d="M490.9,52.8c-0.1-1.4-0.5-2.7-1.7-3.4c0-1.9,0-3.7,0-5.3c0.9-0.3,1.6-0.5,2.4-0.7   C491.5,46.4,492.3,49.7,490.9,52.8z" />
	<path fill="#24201F" d="M577.5,197.9c0.3,0.3,0.6,0.7,1,1c-1.9,2.6-3.9,5.3-5.8,7.9c-0.3-0.4-0.7-0.8-1-1.1   C573.6,203.1,575.6,200.5,577.5,197.9z" />
	<path fill="#977264" d="M328.5,375c0.2,0.1,0.3,0.3,0.5,0.4c-0.2,0.2-0.5,0.3-0.7,0.5C328.3,375.5,328.4,375.3,328.5,375z" />
	<path fill="#E0DEE5" d="M406.6,96c12.1-1.6,22.9-7.7,33.8-13.1c0.6,3.7-0.7,7.7,1,10.8c-0.1,0.3,0,0.5,0.2,0.6   c7.3,21,48,17.9,47.9-6.6c22.4,15.2,57.5,20.3,63.9,50.9c-3,12.4-15.1,19.8-26.8,22.9l0,0c-0.3-4.4-3.8-7.5-3.9-11.8   c-4.6,5.6-9.2,12.1-15.2,16.9c1.6,0.3,2.4,0.2,3-0.8c4.8-2.1,7.3-6.9,11.6-9.6c1.5,23.7-14.6,43.1-22.4,64.3   c-3.5-1.8-6.4-3.7-9.1-6.3c-6.8,0.3-14.2,3.2-18.4,8c2,1.6,4.3,2.3,5.1,4.7c-2.3,1.3-5.2,1.3-7.1,3.4c2.1,10.3,15.4,0.1,21.9,3.3   c-4.9,2.4-10.9,3.2-16.5,3c-12.9,5.7,7.9,8.8,14.4,6.5c0.6,0.3,1.1,0.5,1.7,0.8c-4.2,2.7-9.8,0.8-13.7,2.6   c-0.8,2.2-4.6,1.4-3.7,4.6c1.5-0.6,2.2-2.1,3.7-1.7c0.6,5.6,14.4,0.4,11.1,5.8c-1.1,0-2.3-0.4-3.2,0.7c-4.7,0.5-9.4,1.6-14.3,1.8   c0.4-2.2,3.6-2.3,3-4.4c-3.8,1.1-6.6,2.6-9,5c-14.2,0.5-28.6-3.7-42.4-6.7c-0.6-1.5-1.2-2.7-1.7-3.9c-2.1-0.1-0.4,2.2-2.2,2.4   c-1.4-1.1-3.2-2.4-5.1-3.7c2.5-0.7,4.4-2,3.4-4.6c-1.6-0.4-2.9-0.8-4.3-1.1c-0.3-0.7-0.9-0.8-1.6-0.7l-0.1,0   c0.7-1.2,2.3-0.8,3.4-0.7c0.7,1.1,1.8,0.8,2.8,0.6c2.2,0.1,4.5,0.8,6.7-0.1c4.5-6.9-6.7-5.6-9.6-9c2.6-3.2,8.5,3.8,13,1.3   c0.6-0.9,1.2-1.9,2-3.2c-2.3-1.8-4.3-3.4-6.4-5.1c0-0.4,0.1-0.7,0.1-1.1c2-1,6.9-0.4,5.9-3.8c-4.3-2.5-6.8-7.9-11.9-9.6   c-3-6.7,0.9-12.5,1.4-19c-2.1-2.9-5.1-7.1-1.8-10.2c1.9,1,6,3.9,5.4-0.3c0.4-0.5,0.9-1,1.5-1.7c-3.4-0.2-3.5-3.6-5.8-5.1   c1.6-2.2,0.9-5.4,3.5-7.1c7.6,2.4,16.3,1.2,23.6-1.5c-16.1-7.2-25.7-6.2-37.7-23c-4.1-3-3.2-10-8-11.3c-0.9,0.6-1.9,1.5-2.5,2.5   c1.7,3.8-0.3,7.4-0.1,11.2c-9.2-4.3-13.1-14-16.1-23.1c0.1-0.3,0.1-0.5-0.2-0.7c0-0.5,0-1,0-1.5c0.2-0.2,0.3-0.4,0.5-0.6   c2.7,1.8,4.7,2.6,6.4,5.8c0-2.3,0.2-3.6-0.6-5.2C391.9,109.1,398.4,101.9,406.6,96z M473,180.2c-0.7,4.9,3.9,14.1,9.1,13   c0.8-4.6-3.4-9.8-7.3-12.2c-1.4-1.9-1.4-5.2-4.6-4.9C471.4,177.7,472.2,178.6,473,180.2z M486.6,108.9c-0.8,0-1.9-0.3-1.1,1.5   c3.2,0,6.5,0,10.6,0C492.7,108.1,490.2,109,486.6,108.9z M455,210.8c1.6-2.1,1.5-8.7,0.2-11c-0.3,0.4-0.6,0.6-0.9,0.9l0,0   c-7.7,6.3-4.8,16.4-4.2,24.8c0.3,4.8-2.6,10.8,0.5,14.9c1.8-0.3,2.7-0.7,2.6-1.4c-0.3-2.6,2-5.1,0.3-7.8   C453.3,224.7,455,217.5,455,210.8L455,210.8z M459.4,152.9c-1.7,13.4,16.4,18,26.8,15.1c-6.1-3.2-12.1-6.4-17.7-9.5   c-1.6-3.3-3.2-7-7.3-6.4C459.7,151.1,459.7,151.1,459.4,152.9z M441.7,105.1c-1-2-8.1-3.9-9.1-1.5   C435.8,104,438.3,105.4,441.7,105.1z M529.7,118.2c1-2.7-3-6.8-5.7-5.9C525.8,114.5,527.7,116.3,529.7,118.2z M506.2,180.8   c-3.1,1.6-4.2,3.3-4.6,5.9C504.1,185.7,505.1,183.7,506.2,180.8z M498,199.4c2.7,1,7-1.3,5.9-3.7   C502.2,196.8,500.4,197.9,498,199.4z M429,101.8c-1.4-2.5-2-2.8-3.8-1.2C426.4,101.3,427.5,102,429,101.8z M499.3,110.9   c1.9,1.5,3.4,1.5,5.2,1.1C502.5,110.8,502.5,110.8,499.3,110.9z M524.1,145.2c-0.3-0.1-0.6-0.3-0.9-0.4c-0.3,0.5-0.5,1.1-0.8,1.6   C523.8,147.2,523.7,146.1,524.1,145.2z M531.1,122.8c0.7,0.9,0.7,0.9,2.1,1C532.6,122.9,532.4,121.9,531.1,122.8z M464.5,172.8   c0.5,1.1,1.2,1.5,2.7,1.3C466.3,172.9,465.8,172.1,464.5,172.8z M500.3,187.3c-1.3-0.6-1.9,0-2.6,1.3   C499.1,188.8,499.8,188.4,500.3,187.3z M533.9,127.4c0.2-0.6,0.3-1,0.4-1.3c-0.4-0.1-0.8-0.2-1.9-0.6   C533.2,126.5,533.5,126.9,533.9,127.4z M490.4,168.4c0,0.3,0.1,0.5,0.1,0.8c0.6-0.1,1.1-0.2,1.7-0.3c0-0.1,0-0.3-0.1-0.4   C491.5,168.4,490.9,168.4,490.4,168.4z M460.4,172.8c0,0.2,0,0.3,0,0.5C462.8,173.9,462.7,172.1,460.4,172.8z M499.5,167.6   c0,0.2,0,0.3,0,0.5c0.7,0,1.5,0,2.2,0c0-0.2,0-0.3,0-0.5C500.9,167.6,500.2,167.6,499.5,167.6z M496.6,189.1c-1.3,0-1.3,0-1.2,1.4   C495.9,189.9,496.2,189.6,496.6,189.1z M458.2,172.2c0-0.1-0.1-0.2-0.1-0.3c-0.3,0-0.7,0.1-1,0.1c0.1,0.2,0.1,0.4,0.2,0.6   C457.6,172.4,457.9,172.3,458.2,172.2z M520.6,110.6c-0.1,0.2-0.3,0.3-0.4,0.5c0.5,0.3,0.8,0.4,1.1-0.2   C521.1,110.8,520.8,110.7,520.6,110.6z" />
	<path fill="#6D5CA9" d="M485.8,255.8c0.9-1.1,2.1-0.8,3.2-0.7c0.2,0.4,0.4,0.8,0.5,1.1c-1.7,1.6-2.6,3.5-3,5.7   c6,1,5.1,6.7,5.6,11.6c-2.2,7.8-1.6,17.2-0.4,25.3c0.3,26-7.7,52.1-7.8,78.3c-12.6,10.9-31.7,11.1-46.7,5.5   c1.7-5.8,0.3-11.9,0.8-17.8c4.6,0.1,5.7,11.4,10,9.6c-3.3-11.5-13.9-19.5-10.3-32.2c3.6,3.4,5.4,9.7,10.5,10.6   c-3.2-6-7.3-10.7-11.2-15.9c0-2.7,0-5.4,0.1-8.3c3.7,2.4,6.6,3.9,7.7,8c0.8-0.2,1.3-0.4,1.7-0.5c3.7,2.2,6.1,7.1,10.7,6.4   c-4.9-7.6-12.4-13.1-19.4-18.3c-0.8-5.8,2-12.1-1.7-17.1c0-0.6,0-1.1,0-1.7c1.5-0.8,0.4-1.6-0.8-2.1c0.2,3.7-0.9,7-1,10.6   c-3.5,3.2-5.4,7.8-8.5,11.1c-3.3,0-4.8,3-5.5,6c-10,2.4-19.6,4.1-30,3.5c-1,0-2,0-2.3,1.5c3.3,0.1,6.5,0.2,9.7,0.2   c-2,1.3-4.1,2-5.7,3.9c9.2,1.6,17.2-4,26-3.7c0,0.7,0,1.3,0,1.9c-8.8,5.9-20,3.4-29.1,7.4c3.4-0.4,6.6-0.1,9.8-0.2   c-2.7,2-5.8,2.6-7.5,6c8.4-1.4,15.9-4.1,23-7.7c0.4,0.5,0.5,0.7,0.7,0.9c-1.3,3.4-6.5,1.9-6.9,6c-1.8,3.8-7.7,5.3-8.5,9.5   c-1.6,2.1-3.6,3.9-5.5,5.8c-14.5-6.6-29.3-14.3-41.3-24.7c8.6-31.6,37-51.2,52.4-79c-0.5,5.3-0.8,10.4-0.1,15.5   c3.4,0.1,3.7-5.1,5.7-7.2c0.2,3.1-0.8,5.3,0.5,8.6c1.4-5.4,1.4-10.4,2.1-15.3c1.8-1.3-0.4-4,1.6-5.1l0,0c2.7,3.3,6.7,3.4,10.6,4.8   c-2.8,5.7-6.6,9-6,16.2c4.6-3.3,4-10,7.3-14.2c3.8-1.6,8.1-0.7,11.9,0.2c0.8,9.5-1.7,18.9-0.5,28.3c1.3-4.3-1.3-10.2,3.7-12.4   c-0.1-5.2,3.8-10,0.4-14.5c0.6-1,2.2-0.3,2.3-1.7c0.4-1.8-1.1-6,1.8-5.8c0,2.1-1.9,5,0.3,6.5c0.4-0.5,0.9-1,1.3-1.4   c0.3,0,0.5,0,0.8,0c1.3,0.9,1.3,0.9,1.9-0.9c1.3,0.6,1.8,0.9,3.1,2c0.1-1.8,0.2-3.1,0.3-4.4c4.8-0.3,9.3-0.1,14.3,0   c0,1.3,0,2.2,0,3.2c-3.2,0.1-6.4,0.1-9.7,0.2c5.6,1.9,12.7,0.4,18.8-0.3c-0.5-0.9-1-1.6-1.5-2.4c0.2-0.9-0.2-2,1-2.5   c1.2,0.6-0.3,1.5,0.3,2.2c2,1.5,2,1.5,4.8,0.6c0-1.2,0-2.4,0-3.7c0.3-0.2,0.7-0.5,1-0.7c0.5,0,1,0,1.5,0c-0.9,1.9-1.6,4.6,0.6,6   c0.8-2.3,0.3-4.2,0.3-6.1c0.5-0.4,1-0.8,1.5-1.3C486.7,256.1,486.3,256,485.8,255.8z M409.2,295c1.5,1.2,2.2,3.7,4.3,3.8   c-4.3-5.9-8.5-11.6-10.5-18.7C401.5,285.4,406.5,290.7,409.2,295z M453.4,281.5c1.7-2,4.9-8.9,4.8-15.5   C453,268.1,453.2,275.9,453.4,281.5z M451.6,315.4c-3.1-2.7-6.9-2-10.2-3.4c-0.6,0.7-1.1,1.2-2,2.2c0.7,0.7,1.2,1.1,1.3,1.3   C445.2,314.3,447.3,315.8,451.6,315.4z M481.7,275c0.2,0,0.4-0.1,0.6-0.1c-0.1-2.5,0.4-11.7-4-8.6   C479.1,269.2,480.2,272.2,481.7,275z M469.9,344.9c4.1-2.7,10.7-6.5,11.6-10.9C477,337.7,473,340.9,469.9,344.9z M434.1,267.2   c-1.6,1.2-3.9,4.3-5.2,7C431.4,276.4,434.5,268.8,434.1,267.2z M446,283.5c0.5-3.8,3.1-8.7,1.5-12.1   C445.2,275.3,445.5,279.4,446,283.5z M489,295c-4.5-1.1-8.4-0.4-12.3,0.6C480.8,296.1,485.3,296.5,489,295z M415.4,328.8   c-3.3-2.3-6.7-4.2-10.9-3.7C408.1,326.4,411.6,328.2,415.4,328.8z M465.7,307.4c-3.1-0.5-6.1-0.8-9.2,0.1   C459.5,308,462.6,307.9,465.7,307.4z M463.2,292c-1.3,3.3-1.3,3.3-0.8,5.2C463.8,295.2,463.8,295.2,463.2,292z M471.5,267   c-0.4,2.6-0.5,4,0.3,6.1C472.3,269.9,473.9,269.6,471.5,267z M470.4,271.7c-0.5-0.1-0.9-0.3-1.6-0.5c0.2,1.3-0.7,3.1,0.5,3.7   C469.6,273.8,470,272.8,470.4,271.7z" />
	<path fill="#B28C7D" d="M337.7,415.9c-6.2,12.5-9.5,26.9-20.4,36.5c-14.9,13.3-27.3,28.9-37.5,46c-0.3-0.3-0.6-0.6-1-1   c0-0.6,0-1.3,0-3c-1.5,2.7-2.5,4.5-3.5,6.4c-0.5-0.3-1-0.5-1.5-0.8c-0.6-1.6-2.2-1.9-3.5-2.6c-0.5-2,0.9-3.2,2.2-4.2   c7.7-7.6,6.3-20,10.1-29.6c4.5-10,6.4-21.6,13.2-29.9c1.3-1.2,0.5-2.3,0-3.8c7.7-2.3-1.7-2.4,4-7.5c0.3,0.5,0.8,0.8,1.3,1.2   c0.7-1.4,2.4-2.1,1.5-3.4c1.9-2,3.9-4,5.8-6c3.1-0.1,4.4-3.9,7.6-4.6c1.2,3.3,0.1,6.4,2.5,9c2.4-5.8,4.7-11.6,5.5-17.8   c1.1-0.9,2.1-1.8,3.1-2.7c2.1,2.6,2.1,2.6,4.4,3.7c-1.3-2.2-2.4-4.2-3.5-6.2c1.8-6,3.1-12.6,6.1-18c1.8,0.8,3.4-1.9,0.8-1.6   c1.6-10.3,9.4-21.4,14.1-31.4c8.9,3,16.5,8.8,24.4,13.7c4.6,1.4,9.1,3,12.3,6.9c-5,4.5-9.3,11.5-14.8,14.7   c-0.9-2.4,1.8-4.5,0.3-7.3c-7.7,24.1-12.5,24.8-31.3,38.9c-0.5,0-1.1,0-1.6,0.1c-1.1,1.6-5.9,2.9-4.4,5c0.9-0.5,1.8-1,2.7-1.6   C337.1,415.3,337.4,415.6,337.7,415.9z M342,380.3c0.8-0.9,1.6-1.9,1.4-3.5c-5.5,4.4-5.5,14-4.2,20.4c-2.1,1.9-4.2,3.8-6.3,5.7   c2.4,2.8,5.4-2.1,6.6-4c1-0.1,1.9-0.1,2.8-0.2c3.5-3.7,3-11.7-0.4-15.2C342,382.4,342,381.4,342,380.3z M329.5,419.2   c-3.7,0.7-5.3,1.7-6.9,4.9C325.3,422.7,327.5,421.8,329.5,419.2z M370.8,369.4c0.3,0,0.6,0.1,0.9,0.1c0.3-1.8,1.9-3.1-0.6-4.2   C370.9,367,370.9,368.2,370.8,369.4z M311.3,438.3c2-1.2,2.4-2.2,2.3-3.8C311.8,435,311.7,436.3,311.3,438.3z M319,427.6   c-1.6,1.1-1.6,1.1-2,3.5C318.4,430.6,318.6,429.4,319,427.6z M306.5,450.6c1-0.9,2-1.5,1-3.1C306.4,448.3,305.5,449.1,306.5,450.6z    M310.1,443.7c0-0.7,0-1.3,0-2.1C308.8,442.2,308.5,442.8,310.1,443.7z M285.3,486.7c0.6-1.4,0.9-2.2,1.5-3.7   C285,483.8,284.5,484.6,285.3,486.7z M288.5,480.4c0.8-1,1.6-1.8,1.1-3C288.3,477.9,288.1,478.8,288.5,480.4z M282.5,491   c0.2,0,0.3,0,0.5,0c0-0.6-0.1-1.1-0.1-1.7c-0.2,0-0.3,0-0.5,0C282.5,489.8,282.5,490.4,282.5,491z" />
	<path fill="#B28C7D" d="M577.5,197.9c-16.2,21.8-39.7,36.8-63.4,49.5c0.2-1.2,0.4-2.1,0.6-3c-1.6-0.3-2.6,1.4-4,2.1   c-0.2,0.7-0.4,1.5-0.7,2.4c-3.6,0.3-7.1,0.8-10.2-0.9c-4.1,1.1-7.7,2.2-11.5,2.6c-0.6-1-1.1-2.1-1.7-3.1c3-1,6.2-1.7,8.6-4.3   c-0.1-0.9-0.3-1.7-0.4-2.7c-3.4,0.3-6.6,0.7-9.8,1c-1.1-0.7,0.1-2.4-0.2-3.6c1,0,2,0.4,2.6-0.7c2.6-1,5.7-1.1,7.6-3.6   c-3.2-6-13,1.9-13.5-6.5c3.3,0,7.2-2.5,10.2-0.2c-1,0.5-1,1.1-0.6,2c0.1,0,0.2,0,0.4-0.1c0-0.7,0.1-1.3,0.1-2   c0.9-0.1,1.7-0.1,3-0.2c-2.4-4.2-5.7-5.5-10.1-4.9c-0.5-2.2-0.5-2.2,0.3-4.1c1.9-0.3,5.6-2.5,6,0.7c-0.1,1,0.1,1.8,1,2.1   c0.6-0.5,1.1-0.9,1.6-1.3c2.5,1.3,4.9,2.6,7.2,3.8c0.6,2,0.2,3.9,1.5,5.6c0.4-0.5,0.8-0.9,1.3-1.4c3.8,1.5,5.8,15.2,8.6,12.6   c-1.8-2.3-1.8-5.5-3.3-7.8c-0.3-2.7,4.1-1.6,5.2-3.9c7.9-7.2,18.6-11.5,21.4-22.8c6.2-12,12.9-11.4,15.1-26.9c1-0.8,1-0.8,0.1-1.7   c-0.6,0.2-1.3,0.5-2,0.7c-5.9-4.2-11.9-9.5-13.4-16.8c10.4-3.5,15.8-11.4,20.5-20.6c8.9,5.2,13.1,14.9,15.4,24.7   c2.8,8.7,8.3,17,10.8,25.7C580.2,193.4,578.9,195.6,577.5,197.9z M567.2,176.1c-0.3,0.1-0.6,0.1-0.9,0.2c0.8,2.7-1.1,5.3-0.1,8.3   C569.7,184.1,570.2,177.7,567.2,176.1z M574.7,185.3c-2.1,3.5-2.5,6.6-3.1,10.5C574.3,192.6,576,189.9,574.7,185.3z M561.7,189.7   c3-0.9,3.5-1.7,3-4.2C562.7,186.4,562.4,187.9,561.7,189.7z M566.8,161.7c-0.1,0.3-0.1,0.6-0.2,0.9c0.4,0.4,0.8,0.9,1.5,1.6   c0.4-0.9,0.7-1.5,1.2-2.4C568.2,161.7,567.5,161.7,566.8,161.7z M565.1,157c0.6-1.7,1-2.5-0.6-3.1c-0.3,0.3-0.7,0.7-1.3,1.2   C563.8,155.6,564.2,156.1,565.1,157z M558.7,190.5c-0.8,1.2-1.5,2-2.3,3.2C558.6,193,558.6,193,558.7,190.5z M568.1,200   c-2.5-0.2-2.5-0.2-1.9,2.2C566.8,201.5,567.4,200.8,568.1,200z M502.2,233.3c-0.6,1.4-0.2,2.3,1.2,3   C504,234.9,503.6,234,502.2,233.3z M516.2,243.2c0.9-0.5,1.9-0.7,1.5-2.2C515.9,241.8,515.9,241.8,516.2,243.2z M521.7,238.6   c1.3,0.6,2.1,0.4,2.3-1C522.9,236.8,522.3,237.3,521.7,238.6z M561.1,205.2c-1.7,0.2-1.7,0.2-2,2.1   C560.2,206.9,561,206.4,561.1,205.2z M566.7,159c-0.7-0.6-1.1-1.1-1.7-0.4C565.3,159.7,565.6,159.7,566.7,159z M570.1,196.3   c-0.6,0.7-1.1,1.1-0.5,1.7C570.7,197.6,570.8,197.4,570.1,196.3z M527.6,235.6c0.1,0.3,0.2,0.5,0.3,0.8c1.3-0.5,1.4-0.4,1.9-2.1   C528.7,234.9,528.2,235.3,527.6,235.6z M501.9,240.7c0.2,0.2,0.5,0.4,0.7,0.6C503.3,239.9,502.9,239.5,501.9,240.7z M554.3,194.7   c-0.1,0.2-0.2,0.4-0.3,0.5c0.4,0.2,0.8,0.5,1.2,0.7C555.8,195,554.9,195,554.3,194.7z" />
	<path fill="#B28C7D" d="M467,387.7c1.2-0.3,2.6,0.8,3.4-0.7c0.4,0,0.8,0.1,1.4,0.2c-4.8,21.7-14.1,44.2-9,66.8   c-0.4,0.4-0.8,0.8-1.2,1.2c-2.4,0.1-1.7,9-0.5,9.9c0.2-0.3,0.5-0.6,0.7-0.9c0-0.2,0.1-0.5,0.2-0.7c1.5,4.5,1.7,10.3-1,14.4   c-0.2,0-0.5,0-0.7,0c0.4-3,1.2-5.9,0.6-9c-2.9,1.4-0.5,3.2-0.7,4.7c-1.2,2.1-2.3,4.2-1.2,6.6c-0.9,0.5-1.5,1-1.3,2.1   c-2.6,15.5-5.9,32.6-14.1,46.2c-0.9,0.5-1.4,1.8-0.7,3c0.7,3.5-2.1,6.5-2.9,10.2c-3-1.7-6.4-1.7-9.6-2.4   c5.3-29.8-3.5-60.6,4.5-89.8c0.9,0.2,1.6,0.3,2.3,0.4c1.2,2.4,0.9,5,0.9,7.6c0.4,0.7,0.9,1.3,1.3,2c-0.4,1.6-1.4,3.7,1.2,4.4   c1.1-9.1,3.3-18.3-0.5-27.3c3-1.9,0.3-5.9-2-7.3c-0.9-2.4-1.3-4.9-0.8-7.6c2.7-1.2,4-3.9,5.9-6c0.4,0.1,0.8,0.2,1.2,0.2   c0.7,1.9,1.4,3.8,2.2,5.6c-0.1,0.8-0.2,1.5,0.8,1.8c2.6,2.6,1.9,5.3,0.5,7.5c0.5,2-1.2,4.4,1.2,4.7c1-2.4,2-4.9,3-7.6   c0.4,0,1,0,1.7,0c-1.2-1.3-2.2-2.5-3.2-3.7c0.3-5-1.9-9.3-4-13.9c0.4-1.6,1.9-3,1.5-4.9c0.6-1.3,2.3-2.2,1.4-4.1   c-4.3,4.8-6,11.4-10.9,15.9c-1.8-0.9-2-3-3.2-4.1c-0.3-7.1,0.5-13.9,2-20.6C446.8,389.9,458.4,392.4,467,387.7z M447.5,507.3   c-1.9,2.3-1.9,2.3-0.7,4.7C447.7,510.5,448.9,509.4,447.5,507.3z M438.2,473.4c1.9-2,2-3.4,0.2-4.5   C437.8,470.3,437.8,471.8,438.2,473.4z M448,438.9c-2.1,2-2.1,3.6-0.2,4.8C448.4,442.1,448.6,440.6,448,438.9z M446.2,514.3   c-2.9,1.3-3.2,2.1-1.8,3.5C444.9,516.9,445.4,516,446.2,514.3z M444.3,522.1c-1.7,0.7-1.4,1.9-0.9,3.2   C444.8,524.5,445.2,523.6,444.3,522.1z M437.3,485.8c0.5-0.8,1-1.3,0.2-1.7C436.5,484.5,436.5,484.8,437.3,485.8z M437.9,478.2   c-0.2,0-0.4,0-0.6,0c0,0.5,0.1,1.1,0.1,1.6c0.2,0,0.4,0,0.6,0C438,479.3,438,478.8,437.9,478.2z" />
	<path fill="#B28C7D" d="M370.8,119.7c2.4-1,4.8-2,7.3-3.1c2.4,12.2,8.5,21.7,17.5,29.6c-6.3,8.3-15.6,14.3-25.8,16.1   c-1.4-1.9-1.4-1.9-2.8-1.7c1.7,9.1,8.8,18.4,11.5,27.1c1.2,11.7,8.3,21.2,13.7,31c-0.3,1.6-0.6,2.8-0.8,4.1c-2.1-0.4-2.7,2-3.5,3.4   c-0.8,0.3-1,0.8-0.2,1.7c0.4-0.6,0.8-1.1,1.1-1.6c1.5-0.7,2.6-1.6,2.6-3.5c2.7-1.5,4.2-4.5,7.1-5.7c0.5,0.7,0.4,1.6,1.2,1.8   c1.1-1.8,2.1-3.6,3.1-5.2c3-0.6,5.8-1.1,8.5-1.6c0.3,0.4,0.6,0.7,0.9,1c0.8-0.9,1.6-1.8,2.6-2.8c4.1,3.2,9.5,4.6,11.6,9.7   c-6.9,1-12.3-6.8-18.7-2.2c-1,0.4-1,1.2-0.7,2c0.8,0.5,1.6,1,2.4,1.5c0,0.2,0.1,0.5,0,0.7c-1.5,1.5-3.1-0.1-3.5,2.6   c-0.3,0.3-0.6,0.5-0.9,0.8c2.9,6.3,12.4,8.6,18.7,10.8c0,0.7,0,1.2,0,2c-7.8,1-13.8-4.5-20.9-5.9c-0.4,0.7-0.7,1.2-1,1.8   c2.5,5.7,8.5,7.1,13.7,9.2c0.5,0.2,0.4,0.6-0.1,0.8c-3.8,0.1-7.2-2.6-11.1-1.6l0,0c-4.5-11-14.7-4.1-21.2-12.7   c0.4-3.6-3.1-3.2-4.9-5.4c1.4-1.9-0.6-3.9-2.6-3.1c-1.8-0.5-1.6-2.3-2.7-3.5c-7.8-4.1-9.4-12.1-14.1-18.8   c-7.8-12.7-19.7-25-21.3-40.1c1,2,2.1,2.8,2.3,4.3c-0.1,0.7-0.2,1.4,0.6,1.9c0.4,0.8,0.4,1.9,1.8,2.2c0-3.1,0-6,0-9   c-0.9-1.4-1.1-2.9-0.7-4.6c0.8-0.9,1.3-2.3,2.7-3.2c1.4,4.1,1.7,7.8,6.6,8.7c-0.5-3.3,1.2-5.8,0.9-8.8c-0.7,0.1-1.2,0.2-1.8,0.2   c-1.8-1.6-0.7-4.2-1-6.2c4.1-5.4,10.7-8.1,13-14.7C363.1,125,367.3,122.2,370.8,119.7z M373.4,135.9c4-0.1,5.4-0.9,6.8-3.7   C377.7,131.1,375.4,133.8,373.4,135.9z M352.6,165.1c-0.5-2.8,0.2-3.7-2.1-5.3C350.2,162.2,350.2,163.8,352.6,165.1z M349.9,179.5   c-2.4,0.4-0.7,4.3,1.3,2.6C350.8,181.2,350.4,180.4,349.9,179.5z M345.3,176.2c0.8-2.2,0.8-2.2-1.1-3.5   C343.1,174.1,344.4,174.8,345.3,176.2z M397.8,222.7c-1.5,1.6-2.4,1.5-1.8,3.8C397.3,225.4,398.4,224.9,397.8,222.7z M396.3,230.8   c0.2-0.8-0.2-2.4-1.2-1.6C394.5,230.2,395.1,230.6,396.3,230.8z M355.3,166.9c-0.4,2.1-0.4,2.1,1.2,2.7   C356.1,168.6,355.7,167.8,355.3,166.9z M371.8,137.7c-1-1.2-2.1-0.6-1.2,0.6C370.9,138.1,371.2,138,371.8,137.7z M368.4,139.3   c-0.7-0.4-1.2-0.9-1.6-0.2C367.1,140.2,367.5,140.1,368.4,139.3z M367.5,156.2c-0.5-0.2-0.9-0.3-1.2-0.5   C365.6,157,366.7,157.5,367.5,156.2z M343.7,170.1c-0.7-0.6-1.1-1.1-1.6-0.4C342.3,170.7,342.6,170.8,343.7,170.1z M357.5,171.9   c-0.2,0.2-0.1,0.3,0.1,0.5c0-0.2,0.1-0.3,0.1-0.5C357.7,171.9,357.6,171.9,357.5,171.9z" />
	<path fill="#544492" d="M426.1,324.8c3.1-3.3,5-7.9,8.5-11.1c0.1,0.5,0,1.1,0.5,1.2c1.5-2.5,1.2-5.3,1.3-8   c3.7,4.9,0.8,11.2,1.7,17.1c1.5,1.6,4.1,1.9,5.1,4.1c-0.5,0.1-0.9,0.3-1.3,0.4c0.5,1.5,0.9,2.7,1.3,4c-1.8-1.3-3.7-2.5-5.8-4   c-0.1,2.9-0.2,5.6-0.1,8.3c3.8,5.2,8,9.9,11.2,15.9c-5.1-0.9-6.9-7.2-10.5-10.6c-3.7,12.7,7,20.7,10.3,32.2   c-3.2,1.9-6.9-9.5-10.9-11.2c0.2-1.3-0.8-2-1.6-2.8c-3.9-3.3-5-8.5-8.1-12.3c1.2,6.6,5.4,12,10.5,15.9c0,3.4-0.1,6.9-0.1,10.3   c-2.1-1.5-3.2-4.2-6-4.1c1.5,2.7,3.2,5,6.1,4.8c0.2,2.6,0.2,5.2-0.8,7.6c-7.9-2.5-16.9-4-23.6-9.3c0.8-8.8,1.9-18.2,4.5-26.8   c0.4-1.2,0.7-2.5-0.8-3.6c-0.7,0.5-1.5,1-2.3,1.5c-0.2-0.2-0.3-0.4-0.7-0.9c-7.1,3.6-14.6,6.3-23,7.7c4.9-8.7,14.6-4.9,21.9-9.3   c-1.5-0.1-2.4-0.1-3.4-0.2c2.6-1.4,5.6-1.9,8.3-3.7c0-0.6,0-1.1,0-1.9c-8.8-0.3-16.8,5.3-26,3.7c7.3-7,18.4-3.4,27.8-5.1   c-3.2-2.5-6.6-1.2-10.2-1.5c3.1-1.9,7.1-1.6,10.6-2.5c0.7-2.8,1.8-5.1,4.7-6c-0.8,3.2-1.7,6.3-2.9,9.2   C425.9,332.9,425.8,327.9,426.1,324.8z M421.5,337.3c-0.7,1.7-3.5,4.1-0.9,4.3C421.2,340.6,422.2,339.6,421.5,337.3z" />
	<path fill="#544492" d="M410.8,270.4c-2,2.2-2.3,7.3-5.7,7.2c-0.7-5.1-0.3-10.2,0.1-15.5c-15.4,27.8-43.8,47.4-52.4,79   c-2.6-2.7-5.6-4.8-7.8-7.9c4.8-15.4,16.1-27.1,22.6-41.4c2.6-9.2,11.3-15.7,13.7-24.7c5.7-4.8,8.9-12.6,13.4-18.4   c3.1,2.5,5.2,5.9,9.3,6.4l0,0c-0.3,1.3-2,1.8-2.2,3.7c2-0.7,3.4-0.8,4.8-1.9c1.6,1.3,3.6,0.6,5.5,1   C412.5,261.9,411.8,266.4,410.8,270.4z M395.6,263.4c-5,3.8-8.6,9.4-9.1,13.1C390,272.2,394,268.4,395.6,263.4z" />
	<path fill="#977264" d="M300.2,422.7c-0.1-0.1-0.1-0.2-0.2-0.4c-1.1,1-3,3.5-1.5,4.6c-0.3,0.8-0.5,1.7-0.8,2.5   c-0.5,0.1-1,0.3-1.7,0.4c0.5,1.6,1.3,2.6,0,3.9c-0.1-0.5-0.2-1-0.3-1.7c-1.5,1.5-1.5,1.5-0.6,2.6c-1.8,1.6-3.1,3.5-3.4,5.9   c-1.1,0.8-1.1,0.9,0,1.6c-7.4,13-10.8,28.3-14.2,42.8c-0.2,5.5-6.8,7.5-7.1,12.4c-1.6-0.5-3.2-1-4.6-1.4   c14.8-24.4,17.4-56,33.3-80.6c7-11.4,20.7-17.4,25.9-30.1c9-15.2,10.2-34,19.1-49.2c3.3,3.4,6.6,6.7,9.8,10   c-1.4-0.5-2.9-0.9-4.7-1.5c-9.3,16.6-16.3,33.1-21,51c-0.5-0.2-0.9-0.4-1.4-0.6c-0.9,1.3,0.4,2.1,0.5,3.1c-1,0.9-2.1,1.8-3.1,2.7   c-0.1,1.2-0.2,2.2-0.2,3.3c-1.3-0.8-0.3-3.3-2.8-3.4c-1,1.7,0.1,4.2,2,4.9c-1.6,4.4-2.3,8.7-4.5,12.9c-2.4-2.6-1.3-5.7-2.5-9   c-3.1,0.6-4.5,4.5-7.6,4.6c0.3-2.5,3.9-3.6,3.3-6.3c-2.8-0.1-8,6.6-5.7,8.9C304.1,418.6,302.2,420.7,300.2,422.7z M329.6,384.9   c-1.7-0.1-1.7-0.1-3.9,3.3c0.1,1.8-0.3,3.8,1.7,5.4c0-1.8,0-3.5,0-5C328.2,387.2,328.9,386,329.6,384.9z" />
	<path fill="#977264" d="M439,461.1c0.1-0.5,0.3-1,0.4-1.5c-0.5-0.7-0.9-1.4-1.3-2c0.4-0.1,0.9-0.2,1.7-0.4   c-0.7-0.9-1.2-1.5-1.6-2.1c0-0.9,0-1.8,0-2.7c1.3-2,1.3-2.6-0.4-4.1c-0.2,0.6-0.3,1.1-0.5,1.6c-0.7-0.1-1.4-0.3-2.3-0.4   c-8,29.2,0.8,60-4.5,89.8c-0.8,0-1.7,0-2.8,0c1.3-19.2,2.1-38.5,1.6-57.8c-3.8-14.3-1-27.8,4-41.5c2,1.7,1,4.5,2.8,6   c1.5-6.4-3.8-13.7-5.5-20c-2.3-6.8,1.4-13.7-0.5-20.6c-0.1-7.5-2.2-15.1-0.5-22.5c14.7,5.9,22.8,4.8,37.6,4.8   c-8.6,4.6-20.2,2.2-29.4,5.1c-1.5,6.7-2.3,13.5-2,20.6c1.2,1.1,1.5,3.1,3.2,4.1c-0.7,1.2-1.8,1.7-3.1,1.9c-1.1-0.5-2.2-1-3.4-1.6   c-0.4,0.7-0.7,1.2-1,1.8c1.1,1.4,2.2,2.6,3.4,4.1c0.1,1.8,1.1,9.8,4,8.7c-0.1-1-0.3-1.9-0.4-2.9c2.2,1.4,5,5.3,2,7.3   c2.8,7.8,3,16.4,0.5,24.3C440.1,461,439.5,461,439,461.1z" />
	<path fill="#B1B6B7" d="M421.2,554.4c0.3-2.4,0.5-4.8,0.8-7.6c1.2-1.1,2.8-2.6,4.3-4c4.3-0.4,8.3,0.6,12.3,1.2   c1.1,3.1-0.5,6.4,1.5,9.3c0.8,0.2,1.7,0.4,2.5,0.6c1.5,13.4,2,27.7,9.8,39.5c-10.5,4.6-18.1-8.4-29.6-4c-5.5-2.2-0.6-9.7-1.6-14.2   c0.7-0.1,1.1-0.2,1.5-0.3c2.9,3.1,8.7,2.4,11.8-0.3c-1.3-1.8-3.3-1.6-4.9-2.3c1-1.7,3.4,0.2,4.2-1.6c0.8-0.7,2.2-0.6,2.4-2   c-0.6-1.5-2-1.4-3.2-1.6c0.6-0.5,1.1-0.9,1.7-1.4c1.1-0.1,2.1-0.3,3.7-0.5c-1.3-1.8-2.8-2.1-4.3-2.3c0.5-0.5,1-1,1.5-1.5   c1.1-0.2,2.2-0.2,3-1.1c-0.1-2.2-3.3-1.7-4.8-2.5c1.7-1.7,4.4,0.2,5.9-1.7c0-0.6,0.1-1.3-0.9-1.4c-0.2-0.2-0.4-0.3-0.6-0.2   c-0.7-0.9-1.7-0.9-2.7-0.7c-0.2-0.2-0.5-0.2-0.7-0.1c-2.9-0.8-6.4-0.8-9.6,0c-0.3-0.1-0.5-0.1-0.7,0.1c-0.8-0.1-1.5,0-2,0.7   c-0.2-0.1-0.4,0-0.6,0.2C421.7,554.3,421.4,554.3,421.2,554.4z" />
	<path fill="#977264" d="M372.5,217.6c1.1,1.2,0.9,3.1,2.7,3.5c1.1,1.9,1.4,2,2.5,0.7c1.1,0.6,0.4,1.4,0.1,2.4   c0.8,0.6,1.6,1.3,2.5,2c0.3,2.1,0.4,2.1,2.4,2.4c0.1,1.7,0,2.8,0.1,4.9c-20.8-20.5-43-44.3-48.7-73.8   c10.5-10.5,22.1-38.8,36.7-40.1c-3.4,2.4-7.7,5.3-9.1,9.9c-2.3,6.6-8.9,9.3-13,14.7c0.2,2-0.8,4.7,1,6.2c-1.7,2.2-2.1,4.8-1.8,7.5   c-2.9-1.5-2.7-4.9-4-7.7c-1.5,0.9-1.9,2.3-2.7,3.2c-0.3,1.7-0.2,3.2,0.7,4.6c-0.5,0.1-1,0.1-1.5,0.2c-0.4,1.5-0.7,2.8-1,4.1   c-0.6-1-1.2-2-2.2-3.6c1.5,15.1,13.5,27.4,21.3,40.1c4.1,4.5,4.2,11.6,9.5,15c1.2,0.6,1.9,2,2.8,3c-0.1,1,0.2,1.8,1.4,2.3   C372.4,218.6,372.5,218.1,372.5,217.6z" />
	<path fill="#130C0B" d="M415.1,244c0.5-0.2,0.6-0.6,0.1-0.8c-5.2-2.1-11.1-3.5-13.7-9.2c0.3-0.6,0.7-1.2,1-1.8   c7.1,1.4,13.1,7,20.9,5.9c0-0.8,0-1.3,0-2c-6.3-2.2-15.7-4.5-18.7-10.8c0.3-0.3,0.6-0.6,0.9-0.8c3-0.5,5.6,0.9,8.5,1l0,0   c3,1.1,10.9,7.9,12.8,3.6c-5.2-5.4-11.3-9.2-19.4-9.7c0-0.5,0-1.1-0.1-1.6c2.2-0.6,4.8-3,6.9-0.9c-0.6,0.5-1.1,0.8-1.5,1.5   c1.4,0.3,3.9,3.1,4.8,1.1c3.4,4,8.3,5.5,12.2,9.4c-0.8,1.3-1.4,2.3-2,3.2c-7.3,2.3-14.3-7-20.7-5.6c2.5,2,5.1,3.2,7.7,4.2   c2.8,3.4,14.1,2.1,9.6,9c-2.3,0.8-4.5,0.1-6.7,0.1c-2.1-1.3-4.8-0.6-7-2c-2.5-0.7-4.1-3.2-6.9-2.8c3.5,4.3,8.6,5.2,13.7,6.7   c0.4,1.7,0.4,3.2-1.7,3.9c-0.3-0.3-0.7-0.5-1-0.8C415,244.5,415.1,244.3,415.1,244z" />
	<path fill="#120C0B" d="M484.1,231.3c3.7,0.4,8.6-1.7,10.9,2.4c-5.8,6-15.2,2.8-21.8,6.2c1.5,2.1,10,3.1,11.8,1.7   c3.2-0.3,6.4-0.6,9.8-1c0.2,1,0.3,1.8,0.4,2.7c-4.4,4.5-9.8,4-15.6,4.5c2.1,4,7.5,2.4,11.2,3.2c-3.3,2.6-7.5,1.5-11.4,0.7   c-6.9-9.5,7.6-3.3,13.8-8.9c-1.5-0.7-2.5-0.5-3.4,0.4c-6.4,2.4-27.3-0.8-14.4-6.5c5.6,0.2,11.6-0.7,16.5-3   c-6.5-3.2-19.8,7-21.9-3.3c3-2.2,12.6-6.4,15.7-4.1c-4.9,1.2-12.4,3.1-13.6,5.6C475.7,234,480.6,233.1,484.1,231.3z" />
	<path fill="#979D9E" d="M422.7,574.9c-0.4,0.1-0.8,0.2-1.5,0.3c0.9,4.5-4,12,1.6,14.2c-2.3,1.4-4.8,2.6-5.1,5.6   c0.5,0.5,0.9,1,1.5,1.5c0.7-0.6,1.2-1.1,1.7-1.5c0.6,1.5,2.4,0.9,3.5,1.9c-2.8-0.3-6,0.7-8.4-0.9c-0.3-3-0.7-5.8,0.8-8.6   c1.7-3.7-0.1-7.9,2-11.5c1.4-4.2-0.6-9.6,1.9-13.7c0.5,0,1.1,0,1.9,0c-0.2,1-0.4,1.9-0.7,2.9c0.6,0.2,1.2,0.4,1.7,0.6   c0,0.5,0,1,0.1,1.5c-4,5.8,7.2,3.9,10.3,3.6c-0.9,1.8-3.3-0.1-4.2,1.6C427.1,572.5,423.1,571.4,422.7,574.9z" />
	<path fill="#6858A2" d="M446.6,259.3c-0.7,0-1.5,0-1.7,0.9c-0.4-0.3-0.9-0.5-1.6-1c-0.1,1.9-0.2,3.4-0.3,5.1   c-0.8-0.2-1.4-0.3-2-0.4c-0.1-1.6,1.7-4.5-0.8-4.5c-0.5,1.6,0,4.2-2.1,4.8c-4.5-1.5-9.7-1.4-14.5-2.5c-1.3-1.4-3.3-1.1-4.9-2.2   c-0.1-0.4-0.2-0.8-0.2-1.2c1.7-1.1,0.3-2.8,0.9-4.2c0.8,0,1.6-0.1,2.4,0c0.3,1.8,0,3.8,1.8,5.1c0.8,1.5,1.2-0.8,2.4,0.4   c0.2-1.2,0.4-2.4,0.6-3.7c0.8,0.1,1.3,0.1,1.9,0.2c0.1,1.2,0.2,2.3,0.4,4.4c0.6-1.8,0.8-2.7,1.1-3.7c5.8,0.7,11.4,1.8,17.2,1.7   C447.1,258.8,446.8,259.1,446.6,259.3z" />
	<path fill="#999FA0" d="M424.4,597c-2.5-1.3-4.2-0.8-3.3-4.3c7.4-7.6,13.8,4.1,21.2,1c2.5,1,5.1,0.9,7.6,0.9   C442,597.4,432.9,598.8,424.4,597z" />
	<path fill="#51428C" d="M399.7,251.8c-4.1-2.7-0.6-3.5-2.4-5.6c-0.1-0.1,0-0.5,0.1-0.8c1.9,0.5,1.6-2.5,3.6-2.1   c0.4,1.7-1.8,2.9-0.8,4.9c0.6-0.7,1.2-1.3,1.8-2.1c0.2,0.6,0.4,1.2,0.6,1.8c0.3,0,0.5-0.1,1.2-0.2c-0.1,0.9-0.3,1.7-0.4,2.5   c0.8,0.4,1.3-0.2,3.1-3.6c0.5,0,1,0.1,1.4,0.1c0.5,1.7-1.2,3.1,0.2,4.8c0.7-1.1,1.2-2.2,1.8-3.1c2.3,0.3-0.2,2.6,0.4,3.9   c0.5,0,0.9,0,1.4,0c-0.3,1.9,1,3.1,1.8,4.5c-3.3,0.3-6.3-0.7-9.3-1.7l0,0C403.1,253.3,401.2,252.8,399.7,251.8z" />
	<path fill="#946D5F" d="M386.1,233c6.9,3.5,14.4,0.5,17.8,9.4c-2.9-0.5-4.8-2.8-7.4-4.4c-3.4,0.3-7-0.1-10.4-2.2   C386.1,234.9,386.1,233.9,386.1,233z" />
	<path fill="#6758A3" d="M413.3,256.8c-1.6-2-2.6-4.3-0.7-6.5c1.4,0.3,1.7,1.1,1.5,2.2c-1.1,0.2-0.9,3.2,0.1,1.9   c1-0.7,1.9-2.3,3.3-1.6c0.3,1.4,0.2,2.7,0,4.1c-0.9,0.6-0.9,1.2,0.1,1.7c0,0,0,0,0,0c-0.3,0.6-0.6,1.1-0.8,1.7   c-0.6-0.6-1.1-1.1-1.7-1.7l0,0C414.5,257.9,413.9,257.4,413.3,256.8z" />
	<path fill="#3B3764" d="M476.2,261.8c0.5,0.8,1,1.6,1.5,2.4c-2,0.3-3.9,0.7-5.8,1c-0.9-1.3-2.3-0.4-3.4-0.8c0-1,0-1.9,0-3.2   c-3-0.1-5.7-0.2-8.5-0.2c2.5-1.5,5.8-0.3,8.7-0.7c0.5,1.1,0.9,2.2,1.4,3.3c1.1,0,2.9-0.1,3.8-0.2c0.6-1,1-1.7,1.4-2.3   C475.7,261.3,476,261.5,476.2,261.8z" />
	<path fill="#8C6E62" d="M462.8,469.6c-0.1-4.9-1.4-9.4-1.2-14.4c0.4-0.4,0.8-0.8,1.2-1.2C464.7,458.5,463.8,464.8,462.8,469.6z" />
	<path fill="#98ABAB" d="M439.7,556.1c-1.1,1.5-2.9,0.8-4.5,1c-1.6,1.1-3.7,0.7-5.6,0.7c-1.2-1.8-4.1,0.4-5.1-1.6   C429.5,556.1,434.6,556.1,439.7,556.1z" />
	<path fill="#25213C" d="M446.6,259.3c0.2-0.3,0.5-0.5,0.7-0.8c2-0.4,4.2-0.1,3.5,2.5c-0.3,0-0.6,0-0.9,0c0.1-0.8,0.2-1.7-1.5-1.3   c-0.1,1.5-0.1,3.1-0.2,4.7c-0.4,0.5-0.9,1-1.3,1.4C444.7,264.3,446.6,261.4,446.6,259.3z" />
	<path fill="#946D5F" d="M415.1,244c0,0.3-0.1,0.5-0.2,0.8c-3.8-0.2-8.1,0.6-11-2.4C407.9,241.4,411.3,244.1,415.1,244z" />
	<path fill="#36315A" d="M482.2,258.4c0,1.2,0,2.5,0,3.7c-2.7,0.9-2.7,0.9-4.8-0.6c-0.6-0.7,0.9-1.6-0.3-2.2   c0.4-0.9,1.1-0.8,1.8-0.7c-0.1,1.2-0.2,2.3,0.8,3.2c1.2-1.1,0.7-2.2,0.8-3.2C481.1,258.5,481.7,258.5,482.2,258.4z" />
	<path fill="#766F70" d="M424.5,556.4c1.3,1.7,3.8-0.3,5.1,1.4c-3.1,0.1-6.2,0.2-9.5,0.3c-0.7-1-1.4-2.2,0-3.5   c0.8,0.9,1.5,3.5,2.8,1.8C423.5,556.4,424,556.4,424.5,556.4z" />
	<path fill="#3C5556" d="M423.6,567.1c0-0.5,0-1-0.1-1.5c3.8,0,7.5,0,11.3-0.1c-0.6,0.5-1.1,0.9-1.7,1.4   C429.9,566.4,426.7,566.1,423.6,567.1z" />
	<path fill="#201D36" d="M454.4,261.1c-0.1,1.3-0.2,2.6-0.3,4.4c-0.8-0.6-1.1-0.8-1.5-1.1c0.3-1.5-0.3-2.8-0.9-4.2   C452.5,260.6,453.4,260.8,454.4,261.1z" />
	<path fill="#44386B" d="M416.8,260.2c0.3-0.6,0.6-1.1,0.8-1.7c0.3,0,0.6,0,0.9,0c0.1,0.4,0.2,0.8,0.2,1.2c1.5,1,3.5,0.8,4.9,2.2   c0,0.2,0,0.5,0.1,0.7C421.3,262,418.9,261.4,416.8,260.2z" />
	<path fill="#36315A" d="M485.7,257.6c0,1.9,0.4,3.9-0.3,6.1c-2.2-1.3-1.4-4-0.6-6C485.1,257.7,485.4,257.6,485.7,257.6z" />
	<path fill="#8B6C60" d="M460.3,477.9c0.2,0,0.5,0,0.7,0c-0.6,1.6-1.2,3.2-1.8,4.7c-0.7-0.1-1.1-0.2-1.4-0.3   c-0.3-1.1,0.4-1.7,1.3-2.1c-0.1-0.5-0.3-1-0.4-1.5C459.1,478.4,459.7,478.2,460.3,477.9z" />
	<path fill="#463E71" d="M425.2,259.4c-2.7,1.8-1.3-2.7-1.6-4.3C426,254.9,425.1,257.9,425.2,259.4z" />
	<path fill="#594D8D" d="M475.5,261c-0.4,0.7-0.8,1.3-1.4,2.3c-0.4,0-1.2,0.1-2,0.2c0-0.3,0.1-0.7,0.1-1c0.8-0.6,1.1-1.6,1.5-2.5   c0.6,0,1.2,0.1,1.8,0.1C475.5,260.5,475.5,260.8,475.5,261z" />
	<path fill="#191226" d="M399.7,251.8c1.5,1,3.4,1.5,4.3,3.3c-2-0.2-3.7-1.1-5.1-2.6C399.2,252.3,399.4,252,399.7,251.8z" />
	<path fill="#1B192E" d="M423.6,255.1c0,1.4,0,2.9,0,4.3c-1.8-1.3-1.6-3.3-1.8-5.1C422.4,254.6,423,254.8,423.6,255.1z" />
	<path fill="#5E5296" d="M472.2,262.6c0,0.3-0.1,0.7-0.1,1c-0.6,0-1.2,0-1.8,0c0.4-1.1-0.6-2.8,1.6-3.5   C472,261,472.1,261.8,472.2,262.6z" />
	<path fill="#826C63" d="M338.5,411.6c0.5,0,1.1,0,1.6-0.1c-0.4,1.7-1,3.2-2.4,4.4c-0.3-0.3-0.6-0.6-0.9-0.9   C337.2,413.8,338.8,413.2,338.5,411.6z" />
	<path fill="#5E5196" d="M480.6,258.6c-0.1,1,0.4,2.1-0.8,3.2c-1-0.9-0.8-2-0.8-3.2C479.5,258.6,480,258.6,480.6,258.6z" />
	<path fill="#6858A2" d="M451.6,260.3c0.6,1.3,1.2,2.7,0.9,4.2c-0.5-0.3-1.1-0.6-1.6-0.8c-0.1-1.1-0.2-2.3-0.1-3.4   C451.1,260.2,451.3,260.3,451.6,260.3z" />
	<path fill="#282D2E" d="M435.6,561.4c-0.5,0.5-1,1-1.5,1.5c-1,0.2-1.9,0.2-2.4-1.3C433,561.1,434.3,561.2,435.6,561.4z" />
	<path fill="#191616" d="M422.9,556.4c-1.3,1.7-2.1-0.9-2.8-1.8c0.6,0,1.3-0.4,1.8-0.1C421.9,555.3,422,556.1,422.9,556.4z" />
	<path fill="#44386B" d="M419.2,255c0,1.2,0.7,2.6-0.7,3.5C418.6,257.3,418,255.9,419.2,255z" />
	<path fill="#88675A" d="M490.8,250.9c-0.3-0.1-0.6-0.2-0.9-0.2c0.7-1.1,1.7-0.7,2.7-0.7C492,250.3,491.4,250.6,490.8,250.9z" />
	<path fill="#2B284A" d="M414.2,254.3c-1,1.3-1.2-1.6-0.1-1.9C414.2,253.1,414.2,253.7,414.2,254.3z" />
	<path fill="#977264" d="M470.4,387c-0.7,1.2-1.7,0.7-2.7,0.7C468.4,386.8,469.4,386.9,470.4,387z" />
	<path fill="#44386B" d="M417.8,254.4c-0.1-0.6-0.1-1.1-0.2-1.7C418.9,253.1,418.5,253.7,417.8,254.4z" />
	<path fill="#44386B" d="M421.1,254.2c-0.6,0-1.1,0-1.7,0.1C419.9,253,420.5,253.5,421.1,254.2z" />
	<path fill="#44386B" d="M417.6,258.5c-1-0.5-1-1.1-0.1-1.7C417.6,257.3,417.6,257.9,417.6,258.5z" />
	<path fill="#3B3764" d="M475.5,260.2c-0.6,0-1.2-0.1-1.8-0.1C474.6,259.1,474.8,259.1,475.5,260.2z" />
	<path fill="#1B1717" d="M416,596c0.6,0.3,1.2,0.6,1.8,0.9C417,597,416.2,597.1,416,596z" />
	<path fill="#36315A" d="M483.2,257.7c-0.3,0.2-0.7,0.4-1,0.7C482.6,258.1,482.9,257.9,483.2,257.7z" />
	<path fill="#B28C7D" d="M442.3,27.1c2.5-20.6,26.7-21.9,41-11.7c22,62.4-36.2,98.4-41.8,15.9c0-0.6,0.1-1.1,0.1-1.7   C442.7,29.1,442.3,28,442.3,27.1z M444,34.8c0.2,0.2,0.3,0.4,0.4,0.6c3.3-5.1,12.6,3.3,14.8-1.4c-4.6-1.5-11.5-3.9-15.3,0   C443.2,34.3,443.3,34.6,444,34.8z M469.6,69.7c1.1-0.7,2.7-0.8,2.6-2.6l0,0c2.2,0.3,1.6-1.5,0.9-2.5c1.1-0.6,4-0.4,3-2.4   c-2.9,0.2-5.6-2.8-8.2-3.5c-3,0.8-4.4,0.8-7.3,0c-2.3,1.6-4.6,3.1-7.2,4.7C458.9,68.2,460.6,73.5,469.6,69.7z M467.9,25.3   c2,0.2,4,0.9,5.7-1.4c-2.2-0.6-4-0.3-5.7,0.8c-1.4-1.1-3.5-1.8-4.3,0.3C465.1,25.9,466.5,25.2,467.9,25.3z M478.9,37.3L478.9,37.3   c-3.4-1.4-6.1-0.8-9.4,2.1c0,0.5,0.1,1,0.2,2.3c2.4-3.7,5.9,1.1,9.1-1.5c1.5-0.6,2.3,1.6,4.3,0.7c-1.1-0.9-1.9-1.7-2.8-2.4   c0.3-0.3,0.6-0.6,1-1.1C480.3,37.4,479.6,37.3,478.9,37.3z M448.6,40.2c3.4,0.8,5.5,0.8,8.7,0.1c0.3,0.3,0.5,0.6,1,1.1   c0.4-0.7,0.7-1.3,1.1-1.9c-3.9-3.7-8-3.8-12.6-1.7c1.2,1.9-1.3,2-1.4,3.8C446.6,41,447.7,40.6,448.6,40.2z M484.6,34.8   c-1.8-4.9-12.3-3-15.8-0.5C472,37.8,479,31.3,484.6,34.8z M468.3,53.1c1,0.2,1.6,0.9,2.3,1.6c2.3,1.9,7.1-2.4,3.5-4.2   c-0.3,0.7-0.5,1.4-1,2.4C471.5,51.6,469.8,51.4,468.3,53.1z M455.9,52.8c-0.5-0.9-0.8-1.6-1.2-2.3c-2.8,3.3,0.4,3.9,2.8,4.9   c1-1.2,1.7-1.8,3.2-2.3C459,51.4,457.4,51.8,455.9,52.8z M461.9,54c0.6,1.9,4.8,2.1,5,0C465,54.4,463.9,54.3,461.9,54z M460.8,42.2   c1.8-0.6,1.3-3.9-0.5-2.6C460.5,40.5,460.7,41.4,460.8,42.2z M477.9,42.6c-1.5,0-2.6,0-4.2,0C475.3,43.9,476.4,44.1,477.9,42.6z    M450.2,42.5c1.4,1.8,2.9,1.6,3.9,0C452.7,42.5,451.7,42.5,450.2,42.5z M460.8,24.1c-0.5-0.3-0.9-0.4-1.2,0.2   C460.1,24.6,460.5,24.7,460.8,24.1z" />
	<path fill="#B18C7D" d="M483.1,71.6c-0.3,5.8,0.2,11.5,1.4,18.1c0.4-2.3,0.6-3.7,0.8-5.4c8.6,23.6-34.9,30.2-42.1,10   c14,4,31.3-4.3,34.8-18.7C479.6,74.4,480.8,70.8,483.1,71.6z M481,84.6c-1.1,2.3-2.3,4.6-1.8,8.1C480.7,89.8,481.9,87.5,481,84.6z    M477.7,95.3c-1,0.9-1.9,1.7-0.7,3.2C478.3,97.7,478.5,96.7,477.7,95.3z M475.2,101.7c0.4-0.5,1.1-0.8,0.3-1.3   C475,100.9,474.5,101,475.2,101.7z" />
	<path fill="#977264" d="M478,75.5c0,5.6-5.3,8.9-8.5,12.8c0-1.4,0.5-2.6-1-3.4c-0.8,1.7-1.6,3.1-2.3,4.6c0.3,0.2,0.6,0.5,0.9,0.7   c-6.7,5.8-15.6,5.5-23.8,4l-0.1,0.1c0-1.3,0-2.5,0-3.4c0.8-0.8,1.3-1.2,1.8-1.7c-0.1-6.3,1.1-12.4,1-18.7l0,0.1   C455.7,80.8,466.2,88.4,478,75.5z" />
	<path fill="#967164" d="M550.4,178.5c-0.4,1.5-0.7,3.1-1.6,4.3l-0.2-0.2c0-0.5-0.1-0.9-0.1-1.4c-0.2,0-0.4-0.1-0.5-0.1   c-0.3,0.7-0.6,1.4-1,2l0.1,0.2c-8.8-4.8-17.3-12.1-20.5-21.9c0.9-0.3,1.8-0.5,2.6-0.8c1.5,1.7,3.9,0.1,5.9,0.1   c1.5,7.3,7.5,12.6,13.4,16.8c0.7-0.3,1.4-0.5,2-0.7C550.5,177.4,550.4,178,550.4,178.5z" />
	<path fill="#D3D1DB" d="M406.6,96c-8.2,5.9-14.7,13.1-19.4,22.3c0.1,0.3,0.4,1,0.6,1.6c-0.3,0-0.6,0-0.9,0   c-0.2,0.2-0.4,0.5-0.6,0.7c0,0-0.4,0.1-0.4,0.1c-1.5-1-3-2-4.5-3c-0.1,0.2-0.3,0.4-0.5,0.6c-0.2-0.1-0.5-0.2-0.7-0.4   C385.1,107.9,394.7,97.3,406.6,96z" />
	<path fill="#967163" d="M441.5,31.4c0.8,17.1,5.2,34.7,17.9,47.6C440.3,71.2,440.4,48.9,441.5,31.4z" />
	<path fill="#130C0A" d="M446.7,68.6c12.1,14.6,23,15.3,34.7,0.9c0.6,0.7,1.1,1.4,1.7,2.1c-3.7,0.2-6,6-9.4,7.9   c-11.8,7.4-19.7-1.2-27.9-8.9C446.1,70,446.4,69.3,446.7,68.6z" />
	<path fill="#130F0E" d="M395.5,146.2c-6-6.8-14.2-12.7-15.3-23c1.3-0.6,0.6-1.8,0.9-2.7c3,9.1,6.9,18.8,16.1,23.1   C396.6,144.5,396.1,145.4,395.5,146.2z" />
	<path fill="#1D1818" d="M443.2,94.3c2.1,7.5,9.7,9.6,16.2,11.9c-0.6,0.3-1.2,0.6-1.8,0.8c-7-1.3-14.5-5.2-16.1-12.7   c0.5,0,1.1-0.1,1.6,0.1L443.2,94.3z" />
	<path fill="#71564C" d="M443.1,94.4c-0.2-0.1-0.5-0.1-0.7-0.1c0.5-3.7-1.4-7.8,1.6-10.8c0.2,2.1-0.4,4.1,0.9,5.7   c-0.5,0.5-1,0.9-1.8,1.7C443.1,91.9,443.1,93.1,443.1,94.4z" />
	<path fill="#130C0A" d="M445.8,70.6c-0.3,4,0.3,8.1-0.9,12C445.6,78.8,443.5,73.4,445.8,70.6z" />
	<path fill="#1D1818" d="M441.4,93.7c-0.9-0.8-0.8-1.8-0.7-2.8C441.9,91.6,441.4,92.7,441.4,93.7z" />
	<path fill="#967163" d="M442.3,27.1c0,0.9,0.4,1.9-0.7,2.5C441.5,28.7,441.3,27.8,442.3,27.1z" />
	<path fill="#5A433B" d="M439.1,42c-0.6-2.1,1-2.3,0.4,0C439.4,42,439.3,42,439.1,42z" />
	<path fill="#130F0E" d="M380.1,122.6c-0.2-0.6-0.4-1.3-0.6-1.9C380.3,121.1,380.2,121.8,380.1,122.6z" />
	<path fill="#130F0E" d="M380.3,117.9c0.2,0.1,0.4,0.3,0.7,0.4c0,0.5,0,1,0,1.5C380,119.4,380.2,118.7,380.3,117.9z" />
	<path fill="#B1B6B7" d="M256.8,522.2c1.1,0.3,2.1,0.5,3.8,0.9c-0.9-1.7-1-2.4-2.2-3.4c0.3-0.3,0.7-0.6,1-1c0.3,0,0.5,0,0.8,0.2   c0.7,1.3,2,0.5,3.2,0.4c0.6-2.8-2.2-3.2-3.3-4.7c2.3-2.9,5.7,1.5,9.2,0.6c-2.9-4-7.9-5.4-11.7-8.3c0.4-2.8,1.4-6.3,3.7-7.9   c3.6,0,7,0.8,10.3,3.1c0.6,3.7,3.9,7.1,3.1,11c1.1,0.1,1.7,0.2,2.6,0.3c-0.8,3.2-3.3,5.5-3.5,8.9c-4.7,5.9-2.7,14-6.5,20.3   c-8.8-2.1-7.7,1.3-12.6,7.2c-4.7,1.5-9.5-1.4-8.1-6.4c-4-4.7-9.9-7.3-16-7.7c0.1-5.4,10.8-12.3,15.3-14.4c0.8,0.6,1.7,1.2,2.5,1.8   c-0.3,0.3-0.6,0.6-0.9,0.9c-1,0-2,0-2.1,1.5c2,1.9,4.5,2.4,7.3,2.4c0-0.6,0.1-1,0.1-1.4c0.3-0.3,0.6-0.6,0.9-0.9c1.1,0,2.1,0,3.7,0   c-0.9-1.1-1.5-1.8-2.1-2.5C255.4,522.1,256.2,522.3,256.8,522.2z" />
	<path fill="#979E9F" d="M237.2,526.5c-2.2,3.2-7.2,4.7-6.8,9.1c-1.2,0.7-2.4,1.5-1.4,3.1c5.6-2.8,12.3,0.7,14.3,6.3   c-0.3,0.3-0.7,0.7-1,1c-6.7-1.8-13.2-4.3-18.5-9.3c1.6-5.9,6.3-8.9,11.7-11.3C236,525.8,236.6,526.2,237.2,526.5z" />
	<path fill="#171515" d="M243.3,545c-1.4-2-2.1-4.5-4.3-5.9c0.3-0.3,0.7-0.6,1-0.9c2.6,1.2,4.5,3.3,6.5,5.2c-0.5,2-0.1,3.6,0.9,5.2   c-1.3-0.1-2.4-0.6-3.4-1.6C245.3,546.4,243.9,545.5,243.3,545z" />
	<path fill="#768181" d="M256.8,522.2c-0.6,0.1-1.4-0.1-1.7,0.8c-2.9-1.2-5.9-5.5-9.2-3.7c-0.1,0.4-0.2,0.8-0.4,1.2   c-0.5-0.3-1-0.6-1.5-0.9c1.2-1.9,2.3-3.8,3.5-5.6c0.6,0.1,1.2,0.2,1.7,0.2c0.7,1.3-0.8,1.1-0.4,2.7   C250.3,519.1,254.4,520.4,256.8,522.2z" />
	<path fill="#929B9C" d="M261.3,499c-2.3,1.6-3.3,5.1-3.7,7.9c-1.2-0.2-2.2-0.2-3.1-1.1c0.9-2.9,1.7-5.7,4.8-7.4   C259.8,498.5,260.5,498.8,261.3,499z" />
	<path fill="#9CA0A1" d="M258.5,544.4c2.3-4.4,4.9-1.7,8.6-1.7c-0.2,0.9-0.4,1.8-0.6,2.9C263.6,545.4,261,545.5,258.5,544.4z" />
	<path fill="#8E6E62" d="M278.9,497.4c0.3,0.3,0.6,0.6,1,1c-1.5,2.9-1.8,6.9-4.1,9.1c-1.6-2.3-0.9-5.1-1.9-7.4   c0.5,0.3,1,0.5,1.5,0.8c0.1,0.5,0.3,1,0.6,2.2C277.1,500.8,278,499.1,278.9,497.4z" />
	<path fill="#8A9595" d="M262,513.6c-0.7,0.1-1.6,0-1.9,1c-1.7-0.9-3.4-1.8-5-2.6c0.3-0.3,0.7-0.6,1-1   C258.1,511.9,260,512.7,262,513.6z" />
	<path fill="#7C8F8F" d="M259.4,518.7c-0.3,0.3-0.7,0.6-1,1c-1.1-0.6-2.1-1.3-3.2-1.9C256.8,517.5,258.2,517.8,259.4,518.7z" />
	<path fill="#546566" d="M237.2,526.5c-0.6-0.4-1.2-0.7-1.8-1.1c0.3-0.3,0.6-0.6,0.9-0.9c0.6,0,1.2,0.1,1.7,0.1c0,0.3,0,0.6,0,0.9   C237.8,525.9,237.5,526.2,237.2,526.5z" />
	<path fill="#647576" d="M256.1,511c-0.3,0.3-0.7,0.6-1,1c-0.7-0.3-1.5-0.7-2.7-1.3C254.1,509.9,255.1,510.1,256.1,511z" />
	<path fill="#677576" d="M243.3,545c0.6,0.5,2,1.4,0.7,2c-0.6-0.3-1.2-0.6-1.7-0.9C242.6,545.7,242.9,545.4,243.3,545z" />
	<path fill="#7C8F8F" d="M262,519.5c-0.7,0.2-1.4,0.2-1.9-0.6C260.8,519.1,261.4,519.3,262,519.5z" />
	<path fill="#7C8F8F" d="M258.4,519.7c0.3,0.3,0.6,0.5,0.9,0.8C259,520.3,258.7,520,258.4,519.7z" />
	<path fill="#8B999A" d="M238.1,525.6c0-0.3,0-0.6,0-0.9c1.5-2.2,3.7-3.7,5.9-5.1c0.7,0.5,1.9,0.7,1.8,1.7   C243,522,241,524.6,238.1,525.6z" />
	<path fill="#D5D2DC" d="M397.3,142.9c-0.2-3.7,1.8-6.9,0.1-10.5c0.5-1,1.6-1.9,2.5-2.5c4.8,1.3,4,8.3,8,11.3   c11.9,16.8,21.6,15.8,37.7,23c-2.8,2-6.3,1.3-9.4,2.2c0.1-0.4,0.2-0.8,0.3-1.1c-0.8-0.9-1.5-0.7-2.6-0.1c0.8,0.5,1.4,0.9,1.9,1.3   c-4.7,0.6-9.2,1.2-13.9-0.8c-2.6,1.7-1.9,4.8-3.5,7.1c2.3,1.5,2.4,4.9,5.8,5.1c-0.6,0.7-1.1,1.2-1.5,1.7c-1.1-0.5-1.3-2.6-3.3-1.8   c0,1.9,1.5,3.2,3.4,3.1c-1,2.5-3.7-0.5-5.4-1c-3.3,3.1-0.4,7.3,1.8,10.2c-0.4,6.5-4.3,12.3-1.4,19c-3.8-1.6-4.8-0.2-8.5,0.9   c4.3-20.4-11.4-39.4-7.5-59.9c4.5,4.6,7.5,10.6,14.4,11.4c-7.7-6.3-12.4-13.8-17.4-22.3C398.1,140.6,397.7,141.7,397.3,142.9z    M415.8,173.3c-1,2.7-0.3,3.7,2.6,4.2C417.7,175.9,417.2,174.4,415.8,173.3z M418.4,161.6c1.3,2.7,2,3.1,4.2,2.6   C421.6,163,420.4,162.2,418.4,161.6z M429.9,165.6c-2.3-1.3-3-2.6-5.2-2.2C426,164.6,427,166.1,429.9,165.6z M413.8,186.6   c0.3,1.2,0.4,2.6,2.3,2.6C415.9,187.7,415.2,186.8,413.8,186.6z" />
	<path fill="#030202" d="M526.6,161.5c3.2,9.7,11.7,17,20.5,21.9c-1.8,9.3-12.5,12.9-16.3,21c-4.2,12.4-16.9,18.6-22.8,29.4   c-1.4-2.2-2.4-4.7-4.5-6.5c-0.5,0.5-0.8,0.9-1.3,1.4c-1.3-1.6-0.9-3.6-1.5-5.6c-2.3-1.2-4.7-2.5-7.2-3.8c-0.6-1.2-1.7-0.6-2.6-0.8   c-0.7-4.6-15.1,2.4-15,4c4.5,2.5,10-0.5,15,0.1c1.3,1.2,2.7,2.2,3.8,4.2c-1.3,0.1-2.2,0.1-3,0.2l0.1,0.1c-1.5-1.6-3.9-0.7-5.8-0.8   c-0.3-0.3-0.6-0.5-1-0.8c1.4-0.2,2.9-0.1,3.8-1.6c-4.2-0.5-8.3,1.6-12.3,1.4c-1.4-1-2.7-1.9-4.3-3.1c4.2-4.8,11.6-7.7,18.4-8   c2.7,2.6,5.6,4.5,9.1,6.3c7.9-21.1,23.9-40.6,22.4-64.3c-4.3,2.7-6.8,7.5-11.6,9.6c-0.3-0.3-0.6-0.6-0.9-0.9   c4.7-4.8,9.2-10.2,13.1-15.2c0.3,3.7,2.5,6.5,3.7,10C525.5,160.6,525.5,160.8,526.6,161.5z M524.4,165.1   c-1.4,21.7-17.1,37.1-21.7,57.5c1.3,1.7,2.6,3.2,3.8,4.8c16.2-10.6,23.1-30,36.9-43C535.5,178.7,529.4,173.2,524.4,165.1z" />
	<path fill="#020202" d="M397.3,142.9c0.4-1.1,0.9-2.3,1.4-3.6c5,8.5,9.7,16,17.4,22.3c-6.9-0.8-10-6.8-14.4-11.4   c-3.9,20.5,11.8,39.6,7.5,59.9c9.1-5.3,14.1,4.3,20.4,8.7c1,3.4-3.9,2.8-5.9,3.8c-3.5-1.7-6.7-3.7-10.2-5.1c0.3-0.3,0.6-0.5,1-0.8   c4.1,1,7.4,3.8,11.8,3.2c-2.1-5.1-7.5-6.5-11.6-9.7c-0.9,1-1.7,1.9-2.6,2.8c-0.3-0.3-0.6-0.7-0.9-1c-2.7,0.5-5.5,1-8.5,1.6   c-1,1.6-2,3.4-3.1,5.2c-0.7-0.1-0.7-1-1.2-1.8c-2.9,1.3-4.4,4.2-7.1,5.7l0.1,0.1c0.2-1.2,0.5-2.4,0.8-4.1   c-5.4-9.9-12.5-19.3-13.7-31c-2.7-8.6-9.8-17.9-11.5-27.1c1.4-0.3,1.4-0.3,2.8,1.7C380.6,160.1,392.4,153.2,397.3,142.9z    M370.7,164.9c10.6,15.8,10.9,37.4,24.2,51c3.2-2.8,6.5-5.1,10.8-5.7c5-21.3-10.7-41.2-7.8-62.4   C390.4,156.7,381.7,161.4,370.7,164.9z" />
	<path fill="#D4D1DB" d="M461.2,152.1c4.1-0.6,5.7,3.1,7.3,6.4c5.7,3,11.7,6.2,17.7,9.5c-7.1,1.6-17.7,1.2-22.6-4.8   c0.8,0,1.8,0.7,2.7-0.6c-1.3-1-2.4-1.9-3.9-3c-0.3,0.9-0.4,1.4-0.5,1.8c-3.3-1.6-2.5-5.6-2.5-8.6   C460.1,153,460.9,153.1,461.2,152.1z M461.4,158.2c0.5-1.4,0.1-2.2-1.1-3.1C460.2,157,460.2,157,461.4,158.2z" />
	<path fill="#D3D0D9" d="M454.3,200.7c0.3-0.3,0.5-0.5,0.9-0.9c1.3,2.2,1.4,8.8-0.2,11c-0.3-0.5,0-1.5-1.5-1.5   c0.2,1.3-1.6,2.7,0.4,4.3c0.4-1.1,0.8-1.9,1.1-2.8c0,6.8-1.7,13.9-1.5,20.5c1.8,2.7-0.5,5.2-0.3,7.8c0.1,0.8-0.9,1.2-2.6,1.4   c-0.8-1-1.6-2-1.4-3.4c4-1.4,4.3-9.6,2.2-12.8c-0.5,0.4-0.9,0.8-1.3,1.2C449.5,217.1,446.6,207,454.3,200.7c-0.1,1-0.8,2.1,0.2,3   C455.5,201.9,455.5,201.9,454.3,200.7z M451.9,217.8c-0.3,1.7-1.2,2.8,0.2,4.2C453,220.5,453.4,219.2,451.9,217.8z" />
	<path fill="#D3D0DA" d="M475.4,188.7c-1.3-2.3-3-4.6-2.5-7.6c0.6,0.1,1.3,1.3,1.9-0.1c6.1,2,12.3,19.8,1.6,9.3c1.8-0.7,1-4.1-0.9-5   C475.5,186.6,475.5,187.7,475.4,188.7z" />
	<path fill="#272729" d="M450.1,225.5c0.4-0.4,0.8-0.7,1.3-1.2c2.1,3.1,1.8,11.4-2.2,12.8C449.5,233.2,449.8,229.4,450.1,225.5z" />
	<path fill="#B4B7BF" d="M415,230.6c-2.6-1.1-5.2-2.2-7.7-4.2c3.3-0.5,5.6,0.3,9.6,3.2C416.1,229.6,415.2,229.6,415,230.6z" />
	<path fill="#B0B7C0" d="M411.7,239.7c-3.1-0.7-5.6-2.3-7.7-4.8c3.8-0.1,6.5,3.4,10.3,4C413.4,239.2,412.3,238.5,411.7,239.7z" />
	<path fill="#413838" d="M441.7,105.1c-3.4,0.3-5.9-1-9.1-1.5C433.6,101.2,440.7,103,441.7,105.1z" />
	<path fill="#2E2B2B" d="M529.7,118.2c-2-1.9-4-3.6-5.7-5.9C526.7,111.4,530.8,115.5,529.7,118.2z" />
	<path fill="#4F4949" d="M491.6,108.9c1.5-0.3,2.6,0.5,4.5,1.4c-4.1,0-7.4,0-10.6,0c-0.8-1.7,0.3-1.4,1.1-1.5   C488.3,110,490,110,491.6,108.9z" />
	<path fill="#393435" d="M506.2,180.8c-1.1,2.9-2.1,5-4.6,5.9C502,184,503.1,182.4,506.2,180.8z" />
	<path fill="#494243" d="M498,199.4c2.4-1.5,4.1-2.6,5.9-3.7C505.1,198.1,500.7,200.4,498,199.4z" />
	<path fill="#6F6A6B" d="M477.9,246.4c0,0.9,0,1.9,0,2.8c-1.6-0.3-2.2,1.2-3.7,1.7C473.3,247.8,477.1,248.7,477.9,246.4z" />
	<path fill="#3C2E30" d="M461.9,161.5c0.1-0.5,0.3-1,0.5-1.8c1.4,1.1,2.6,2,3.9,3c-0.9,1.2-1.9,0.5-2.7,0.6   C463,162.6,462.5,162.1,461.9,161.5z" />
	<path fill="#4B4A4C" d="M475.4,188.7c0-1.1,0.1-2.1,0.1-3.4c1.9,0.9,2.7,4.3,0.9,5C476.1,189.8,475.7,189.3,475.4,188.7z" />
	<path fill="#424A4B" d="M429,101.8c-1.5,0.2-2.6-0.5-3.8-1.2C427.1,99.1,427.7,99.3,429,101.8z" />
	<path fill="#161010" d="M422.7,180.9c-1.9,0.1-3.4-1.3-3.4-3.1c2.1-0.8,2.3,1.3,3.3,1.8C422.6,180.1,422.7,180.5,422.7,180.9z" />
	<path fill="#1A1717" d="M499.3,110.9c3.2-0.2,3.2-0.2,5.2,1.1C502.7,112.4,501.2,112.4,499.3,110.9z" />
	<path fill="#94A3A8" d="M476.4,225.3c1.1,0,2.2,0,3.3-0.1c0.3,0.3,0.6,0.6,0.8,0.8c-1.1,0.3-2.2,0.6-3.3,0.9   C476.9,226.4,476.7,225.8,476.4,225.3z" />
	<path fill="#370D0C" d="M491.6,108.9c-1.7,1.1-3.4,1.1-5,0C488.3,108.9,490,108.9,491.6,108.9z" />
	<path fill="#8C8B8E" d="M524.1,145.2c-0.4,0.9-0.3,2-1.6,1.2c0.3-0.5,0.5-1.1,0.8-1.6C523.5,144.9,523.8,145,524.1,145.2z" />
	<path fill="#91989D" d="M386.9,119.9c0.3,0,0.6,0,0.9,0c0,1,0,1.9,0,3.6c-0.9-1.3-1.4-2.1-1.9-2.8l0.4-0.1   C386.5,120.4,386.7,120.2,386.9,119.9z" />
	<path fill="#706667" d="M472.1,178.6c-0.5-0.7-1.1-1.4-1.8-2.5c1.7-0.2,2.3,0.5,2.7,1.6C472.7,178,472.4,178.3,472.1,178.6z" />
	<path fill="#778C91" d="M489.9,243.1c0.9-0.9,1.9-1,3.4-0.4c-0.7,0.5-1.2,0.8-1.7,1.1C491,243.6,490.5,243.4,489.9,243.1z" />
	<path fill="#535151" d="M509.5,164.9c0.3,0.3,0.6,0.6,0.9,0.9c-0.6,1-1.5,1-3,0.8C508.4,165.8,509,165.4,509.5,164.9z" />
	<path fill="#877C7E" d="M531.1,122.8c1.3-0.9,1.5,0.1,2.1,1C531.9,123.8,531.9,123.8,531.1,122.8z" />
	<path fill="#ADA7AB" d="M461.2,152.1c-0.3,0.9-1,0.9-1.8,0.8C459.7,151.1,459.7,151.1,461.2,152.1z" />
	<path fill="#231415" d="M435.7,166.5c-0.5-0.4-1.1-0.7-1.9-1.3c1.1-0.6,1.8-0.8,2.6,0.1c-0.1,0.4-0.2,0.8-0.3,1.1L435.7,166.5z" />
	<path fill="#3D3737" d="M464.5,172.8c1.3-0.7,1.9,0.1,2.7,1.3C465.7,174.3,464.9,173.9,464.5,172.8z" />
	<path fill="#323232" d="M472.1,178.6c0.3-0.3,0.6-0.6,0.9-0.9c0.3,0.5,0.6,1.1,0.9,1.6c-0.3,0.3-0.6,0.6-0.9,0.9   C472.7,179.7,472.4,179.1,472.1,178.6z" />
	<path fill="#646466" d="M473,180.2c0.3-0.3,0.6-0.6,0.9-0.9c0.3,0.6,0.6,1.2,0.9,1.8c-0.6,1.3-1.2,0.2-1.9,0.1   C472.9,180.8,473,180.5,473,180.2z" />
	<path fill="#392E2D" d="M500.3,187.3c-0.5,1.2-1.2,1.5-2.6,1.3C498.3,187.3,499,186.6,500.3,187.3z" />
	<path fill="#414B4C" d="M533.9,127.4c-0.4-0.6-0.7-0.9-1.5-1.9c1.1,0.4,1.5,0.5,1.9,0.6C534.2,126.4,534.1,126.8,533.9,127.4z" />
	<path fill="#5F5555" d="M490.4,168.4c0.6,0,1.1,0,1.7,0c0,0.1,0,0.3,0.1,0.4c-0.6,0.1-1.1,0.2-1.7,0.3   C490.4,168.9,490.4,168.7,490.4,168.4z" />
	<path fill="#6E5B5A" d="M460.4,172.8c2.3-0.6,2.4,1.1,0,0.5C460.4,173.1,460.4,172.9,460.4,172.8z" />
	<path fill="#9AABB0" d="M421.9,221.6c0.6,0.3,1.2,0.6,1.7,0.9c0,0.4-0.1,0.7-0.1,1.1c-0.5-0.3-1.1-0.6-1.6-0.9   C421.9,222.3,421.9,222,421.9,221.6z" />
	<path fill="#B0B7C0" d="M415.1,239c1-0.1,2-0.2,2.8,0.6C416.8,239.8,415.8,240.1,415.1,239z" />
	<path fill="#371716" d="M499.5,167.6c0.7,0,1.5,0,2.2,0c0,0.2,0,0.3,0,0.5c-0.7,0-1.5,0-2.2,0C499.5,168,499.5,167.8,499.5,167.6z" />
	<path fill="#877E80" d="M496.6,189.1c-0.4,0.5-0.7,0.9-1.2,1.4C495.3,189.1,495.3,189.1,496.6,189.1z" />
	<path fill="#8B6C6D" d="M458.2,172.2c-0.3,0.1-0.6,0.2-0.9,0.3c-0.1-0.2-0.1-0.4-0.2-0.6c0.3,0,0.7-0.1,1-0.1   C458.1,172,458.2,172.1,458.2,172.2z" />
	<path fill="#967164" d="M526.6,161.5c-1.1-0.7-1.1-0.9-0.2-1.8C526.5,160.3,526.5,160.9,526.6,161.5z" />
	<path fill="#795C5D" d="M520.6,110.6c0.2,0.1,0.4,0.2,0.7,0.3c-0.3,0.7-0.6,0.5-1.1,0.2C520.3,110.9,520.5,110.7,520.6,110.6z" />
	<path fill="#B0B7C0" d="M413.4,240.5c-0.5-0.2-1.1-0.5-1.6-0.7C412.4,239.7,413.1,239.8,413.4,240.5z" />
	<path fill="#554591" d="M444,329.1c5.3,2.9,10,8.2,13.4,13.3c-4.6,0.8-7-4.2-10.7-6.4c-0.4,0.1-0.9,0.3-1.7,0.5   c-0.3-0.5-0.6-1.1-0.9-1.6C445.6,333.2,444.2,331,444,329.1z" />
	<path fill="#221930" d="M410,333.3c3.6,0.4,6.9-1,10.2,1.5c-10.9,0.5-21,1.6-31.8,0.9C392.4,331.8,404.1,335.9,410,333.3z" />
	<path fill="#52448E" d="M439,273.9c0-2.8-0.1-5.6-0.1-8.4c2-0.1,3.9-0.2,5.9-0.3c-0.1,1.4-1.7,0.7-2.3,1.7   c3.4,4.5-0.5,9.2-0.4,14.5c-0.6,0.5-1.5,1.1-2.3,1.8c-0.5-5.3,2.4-10.7,1.4-15.7C438.3,268.8,441,272,439,273.9z" />
	<path fill="#0D0B13" d="M453.4,281.5c-0.3-5.5-0.4-13.4,4.8-15.5C458.4,272.6,455.2,279.5,453.4,281.5z" />
	<path fill="#160E19" d="M410,341.8c1,0.1,1.9,0.1,3.4,0.2c-7.7,4.2-15.8,2.6-24.2,3.5C395.3,342.6,403.2,343,410,341.8z" />
	<path fill="#241E38" d="M439,273.9c2-1.9-0.7-5,2.1-6.5c1,5.1-1.9,10.4-1.4,15.7c-1.8,3-0.2,7.2-1.4,10.6   C437.2,287.1,438.8,280.5,439,273.9z" />
	<path fill="#13101D" d="M410.8,270.4c1.3-3.5,0.6-7.4,1.7-11c2.3,5.9-0.4,12.8-1.2,19.6C410.1,275.7,411,273.5,410.8,270.4z" />
	<path fill="#1C1529" d="M423.7,262.6c0-0.2-0.1-0.5-0.1-0.7c2.8,0.7,5.8,0.5,8.5,1.7c0,0.3,0,0.5,0,0.8c-0.8,0-1.6,0-2.5,0   c-1.8-1.1-2.1-1-2.7,0.9c-1.7,3.1-2.8,4.9-5.2,7.9c-0.3-4.5,2.1-6.1,3.9-9.9C424.7,263,424.2,262.8,423.7,262.6z" />
	<path fill="#544492" d="M451.6,315.4c-4.3,0.5-6.4-1.1-10.8,0c-0.2-0.2-0.7-0.6-1.3-1.3c0.9-0.9,1.4-1.5,2-2.2   C444.6,313.4,448.4,312.6,451.6,315.4z" />
	<path fill="#564793" d="M422,269.6c-0.1,0.9-0.1,1.9-0.2,3.6c1.2-1.6,2-2.6,2.7-3.6c-0.6,3.5-1.9,7.8-4.9,9.9   C419.4,275.6,420.3,271.9,422,269.6z" />
	<path fill="#0C0A11" d="M481.7,275c-1.5-2.7-2.6-5.8-3.3-8.8c4.3-3,3.9,6.1,4,8.6C482.1,274.9,481.9,274.9,481.7,275z" />
	<path fill="#171120" d="M444.8,265.1c-2.2-0.1-4.6,0.7-6.7,0c0-0.2,0-0.5,0-0.7c2.1-0.6,1.6-3.2,2.1-4.8c2.5,0,0.7,2.9,0.8,4.5   c0.6,0.1,1.2,0.2,2,0.4c0.1-1.7,0.2-3.2,0.3-5.1c0.7,0.5,1.2,0.7,1.6,1C444.8,261.9,444.8,263.5,444.8,265.1z" />
	<path fill="#1E1725" d="M469.9,344.9c3.1-4.1,7.2-7.2,11.6-10.9C480.6,338.5,474,342.2,469.9,344.9z" />
	<path fill="#2E2644" d="M409.2,295c-2.7-4.3-7.7-9.6-6.2-14.9c1.6,5.1,4,9.7,7,14.1C409.7,294.5,409.4,294.7,409.2,295z" />
	<path fill="#1D1828" d="M434.1,267.2c0.4,1.5-2.7,9.2-5.2,7C430.2,271.5,432.5,268.4,434.1,267.2z" />
	<path fill="#1F1A2B" d="M446,283.5c-0.5-4.1-0.8-8.1,1.5-12.1C449.1,274.8,446.6,279.7,446,283.5z" />
	<path fill="#221828" d="M489,295c-3.7,1.5-8.3,1-12.3,0.6C480.6,294.6,484.5,293.9,489,295z" />
	<path fill="#3D3055" d="M415.4,328.8c-3.8-0.7-7.3-2.4-10.9-3.7C408.7,324.6,412.1,326.5,415.4,328.8z" />
	<path fill="#44386B" d="M413.5,263.6c0.3-2.3-0.8-3.8-1.3-5.8c-1.9-0.4-3.9,0.3-5.5-1c0-0.3,0-0.6,0-0.9c2.1,0.9,4.4,0.9,6.7,0.9   c0.6,0.6,1.2,1.1,1.8,1.7C413.1,259.6,415.3,262.3,413.5,263.6z" />
	<path fill="#423769" d="M436.4,306.9c-0.1,2.7,0.2,5.5-1.3,8c-1.6-3.4,1.2-7.8,0.5-11.8c0.3,0.2,0.5,0.3,0.7,0.4   C436.4,304.7,436.4,305.8,436.4,306.9z" />
	<path fill="#2B2248" d="M438,374.9c-2.9,0.2-4.6-2.1-6.1-4.8c2.8-0.1,4,2.6,6,4.1C438,374.5,438,374.7,438,374.9z" />
	<path fill="#423673" d="M426.1,324.8c-0.3,3.1-0.3,8.1-3.8,9.2c1.2-3,2.1-6,2.9-9.2C425.6,324.8,425.9,324.8,426.1,324.8z" />
	<path fill="#251221" d="M468.6,264.3c1.1,0.4,2.5-0.5,3.4,0.8c-4.2-0.5-9.3,1.3-13-0.6C462.2,264.5,465.4,264.4,468.6,264.3z" />
	<path fill="#201A36" d="M444,329.1c0.1,1.9,1.6,4.1,0.1,5.8c-0.2-0.9,0.1-1.9-0.9-2.4c-0.4-1.2-0.8-2.5-1.3-4   c0.4-0.1,0.8-0.3,1.3-0.4C443.5,328.4,443.8,328.8,444,329.1z" />
	<path fill="#241017" d="M465.7,307.4c-3.1,0.5-6.1,0.6-9.2,0.1C459.5,306.6,462.6,306.9,465.7,307.4z" />
	<path fill="#211D36" d="M450.7,261c0.1,1.4,0.5,5.5-1.7,3.4c0.3-1.2-0.5-2.6,0.8-3.5C450.2,261,450.5,261,450.7,261z" />
	<path fill="#2C253E" d="M463.2,292c0.6,3.2,0.6,3.2-0.8,5.2C461.9,295.3,461.9,295.3,463.2,292z" />
	<path fill="#3D345D" d="M409.2,295c0.3-0.3,0.5-0.5,0.8-0.8c1.1,1.5,2.6,2.7,3.5,4.6C411.4,298.7,410.7,296.2,409.2,295z" />
	<path fill="#201222" d="M438.1,264.4c0,0.2,0,0.5,0,0.7c-2-0.3-4-0.5-6-0.8c0-0.3,0-0.5,0-0.8C434.1,263.8,436.4,263.1,438.1,264.4   z" />
	<path fill="#262038" d="M471.5,267c2.4,2.5,0.8,2.9,0.3,6.1C471,271,471.1,269.6,471.5,267z" />
	<path fill="#6858A2" d="M449.9,261c-1.4,0.9-0.6,2.3-0.8,3.5c-0.3,0-0.5,0-0.8,0c0.1-1.6,0.1-3.2,0.2-4.7   C450,259.2,449.9,260.1,449.9,261z" />
	<path fill="#1F1B2D" d="M470.4,271.7c-0.4,1.1-0.7,2.1-1.1,3.3c-1.2-0.6-0.3-2.4-0.5-3.7C469.5,271.4,469.9,271.5,470.4,271.7z" />
	<path fill="#6858A2" d="M427,265.3c0.6-1.9,0.9-2,2.7-0.9C428.8,264.7,427.9,265,427,265.3z" />
	<path fill="#544492" d="M436.4,305.3c0-0.6,0-1.1,0-1.7C437.4,304.1,437.4,304.7,436.4,305.3z" />
	<path fill="#281F42" d="M438.1,364.7c0-0.3,0-0.5,0-0.8l0,0c0.3,0.2,0.6,0.5,0.8,0.7C438.7,364.7,438.3,364.7,438.1,364.7z" />
	<path fill="#44386B" d="M415.1,258.5c0.3,0.3,0.6,0.6,0.9,0.9C415.7,259.1,415.4,258.8,415.1,258.5z" />
	<path fill="#977365" d="M342,383.5c3.3,3.5,3.9,11.5,0.4,15.2c-0.8,0.1-1.8,0.1-2.8,0.2c0.5-0.6,1-1.2,1.4-1.7   C340.2,392.6,340,388,342,383.5z" />
	<path fill="#0D0A09" d="M342,383.5c-2.4,4.2-0.4,9.7-2.7,13.6c-1.5-5.7-0.5-12.5,1.8-17.9c0.3,0.3,0.7,0.7,1,1   C342,381.4,342,382.4,342,383.5z" />
	<path fill="#16100E" d="M306.1,416.6c-2.3-2.3,2.9-9,5.7-8.9c0.6,2.7-3,3.8-3.3,6.3C307.8,414.9,306.9,415.8,306.1,416.6z" />
	<path fill="#2A221E" d="M339.3,397.1c1.1-0.9,1-2.2,1-3.5c0.5,1.2,0.8,2.3,0.6,3.6c-2,1.9-4.6,8.8-8,5.7   C335.1,400.9,337.2,399,339.3,397.1z" />
	<path fill="#372A26" d="M327.3,398c-0.1-1-1.4-1.8-0.5-3.1c0.5,0.2,0.9,0.4,1.4,0.6c1.1,2,2.3,4,3.5,6.2   C329.5,400.6,329.5,400.6,327.3,398z" />
	<path fill="#31221E" d="M329.5,419.2c-2,2.5-4.2,3.5-6.9,4.9C324.2,421,325.8,419.9,329.5,419.2z" />
	<path fill="#312622" d="M278.9,497.4c-0.9,1.7-1.7,3.3-2.9,5.6c-0.3-1.2-0.4-1.7-0.6-2.2c1-1.8,2-3.7,3.5-6.4   C278.9,496.1,278.9,496.8,278.9,497.4z" />
	<path fill="#322722" d="M323.1,405.6c-1.9-0.8-3-3.2-2-4.9c2.5,0.1,1.5,2.6,2.8,3.4C323.7,404.5,323.4,405.1,323.1,405.6z" />
	<path fill="#281E1B" d="M338.5,411.6c0.3,1.6-1.3,2.2-1.7,3.4c-0.9,0.5-1.9,1.1-2.7,1.6C332.6,414.5,337.3,413.2,338.5,411.6z" />
	<path fill="#2B221E" d="M370.8,369.4c0.1-1.2,0.2-2.4,0.3-4.1c2.5,1.1,0.9,2.3,0.6,4.2C371.4,369.5,371.1,369.4,370.8,369.4z" />
	<path fill="#53433C" d="M311.3,438.3c0.5-2.1,0.5-3.3,2.3-3.8C313.7,436.1,313.3,437.2,311.3,438.3z" />
	<path fill="#5C463F" d="M300.2,422.7c0.9-0.9,1.7-1.7,2.6-2.6c0.9,1.4-0.8,2.1-1.5,3.4C300.9,423.2,300.6,422.9,300.2,422.7z" />
	<path fill="#52403A" d="M319,427.6c-0.4,1.8-0.5,3-2,3.5C317.4,428.7,317.4,428.7,319,427.6z" />
	<path fill="#342622" d="M306.5,450.6c-1-1.6-0.1-2.3,1-3.1C308.5,449.1,307.5,449.8,306.5,450.6z" />
	<path fill="#3B2925" d="M342,380.3c-0.3-0.3-0.7-0.7-1-1c0.3-1.2,1.3-1.7,2.5-2.5C343.6,378.4,342.9,379.4,342,380.3z" />
	<path fill="#4F3D37" d="M310.1,443.7c-1.6-0.9-1.3-1.5,0-2.1C310.1,442.4,310.1,443,310.1,443.7z" />
	<path fill="#453630" d="M285.3,486.7c-0.8-2.1-0.3-2.8,1.5-3.7C286.2,484.4,285.9,485.3,285.3,486.7z" />
	<path fill="#503A34" d="M334.3,377.5c0.3-0.5,0.6-1.1,0.8-1.6C337.7,375.6,336.1,378.3,334.3,377.5z" />
	<path fill="#4F3C36" d="M288.5,480.4c-0.5-1.6-0.2-2.5,1.1-3C290.1,478.6,289.4,479.4,288.5,480.4z" />
	<path fill="#594A42" d="M297.7,429.4c0.3-0.8,0.5-1.7,0.8-2.5C300.3,427.5,298.6,428.9,297.7,429.4z" />
	<path fill="#271A17" d="M295.1,434.6c-0.9-1.1-0.9-1.1,0.6-2.6c0.1,0.7,0.2,1.2,0.3,1.7C295.7,434,295.4,434.3,295.1,434.6z" />
	<path fill="#030202" d="M282.5,491c0-0.6-0.1-1.1-0.1-1.7c0.2,0,0.3,0,0.5,0c0,0.6,0.1,1.1,0.1,1.7   C282.9,490.9,282.7,490.9,282.5,491z" />
	<path fill="#382521" d="M291.7,442.2c-1.1-0.8-1.1-0.8,0-1.6C291.7,441.1,291.7,441.6,291.7,442.2z" />
	<path fill="#967264" d="M509.5,230.4c5.7-6.3,12.9-11.1,17.1-18.6c3.5-4.7,4.6-11.3,10-14.4c4-3.9,9.6-8.4,10.4-14.2   c0.5-0.2,1.1-0.4,1.6-0.5l0.2,0.2c0.7,8.1-7.6,12.6-11.6,18.8c-3.2,4.5-3.7,11-8,14.7C522.4,220.6,516.7,227.5,509.5,230.4z" />
	<path fill="#906D60" d="M484.1,231.3c-3.5,1.8-8.5,2.7-11.8,0.5c2.1-2.3,2.7-2.6,9.3-4.7C482.5,228.7,481.8,231.4,484.1,231.3z" />
	<path fill="#856559" d="M490.9,222.6c-4.9-0.6-10.5,2.3-15-0.1c1.9-2.4,3.4-3.2,9-4.7c-0.8,1.8-0.8,1.8-0.3,4.1   C486.6,221.9,488.9,221.5,490.9,222.6z" />
	<path fill="#8A6659" d="M485,241.6c-1.8,1.5-10.3,0.5-11.8-1.7c3.2-2.4,7.8-1.2,11.6-1.9C485.1,239.2,483.8,240.9,485,241.6z" />
	<path fill="#88675A" d="M488.3,250.7c-3,0.4-7.2-0.1-8.7-2.9c2.6-0.3,4.8-0.5,7-0.3C487.2,248.6,487.8,249.6,488.3,250.7z" />
	<path fill="#1A1311" d="M567.2,176.1c3,1.6,2.5,8-1,8.5c-1-3,1-5.6,0.1-8.3C566.6,176.3,566.9,176.2,567.2,176.1z" />
	<path fill="#130E0C" d="M574.7,185.3c1.3,4.6-0.4,7.3-3.1,10.5C572.1,191.9,572.6,188.8,574.7,185.3z" />
	<path fill="#524039" d="M507.9,233.8c0.3-0.6,0.6-1.1,0.8-1.7c1.4,2.3,1.4,5.5,3.3,7.8C509.4,241.8,508.6,235.4,507.9,233.8z" />
	<path fill="#30231F" d="M561.7,189.7c0.8-1.8,1.1-3.3,3-4.2C565.2,188,564.7,188.8,561.7,189.7z" />
	<path fill="#3C2E29" d="M566.8,161.7c0.7,0,1.4,0,2.5,0c-0.5,0.9-0.7,1.5-1.2,2.4c-0.7-0.7-1.1-1.1-1.5-1.6   C566.6,162.3,566.7,162,566.8,161.7z" />
	<path fill="#55413A" d="M565.1,157c-0.9-0.9-1.3-1.3-1.9-1.9c0.6-0.5,0.9-0.9,1.3-1.2C566.1,154.4,565.7,155.3,565.1,157z" />
	<path fill="#46423C" d="M490.9,218.5c0.9,0.2,2-0.4,2.6,0.8c-0.5,0.4-1,0.8-1.6,1.3C491,220.3,490.7,219.5,490.9,218.5z" />
	<path fill="#3D332D" d="M558.7,190.5c-0.1,2.5-0.1,2.5-2.3,3.2C557.3,192.5,557.9,191.7,558.7,190.5z" />
	<path fill="#2E2521" d="M568.1,200c-0.7,0.8-1.3,1.4-1.9,2.2C565.6,199.9,565.6,199.9,568.1,200z" />
	<path fill="#231A17" d="M502.2,233.3c1.5,0.7,1.8,1.6,1.2,3C501.9,235.6,501.6,234.7,502.2,233.3z" />
	<path fill="#473B35" d="M516.2,243.2c-0.4-1.4-0.4-1.4,1.5-2.2C518.2,242.5,517.2,242.7,516.2,243.2z" />
	<path fill="#40322D" d="M521.7,238.6c0.6-1.3,1.2-1.8,2.3-1C523.7,238.9,523,239.2,521.7,238.6z" />
	<path fill="#372B26" d="M561.1,205.2c-0.1,1.2-0.9,1.7-2,2.1C559.4,205.3,559.4,205.3,561.1,205.2z" />
	<path fill="#58463F" d="M566.7,159c-1.1,0.7-1.4,0.7-1.7-0.4C565.6,157.9,566,158.4,566.7,159z" />
	<path fill="#5C443D" d="M570.1,196.3c0.7,1.1,0.6,1.4-0.5,1.7C569,197.4,569.5,196.9,570.1,196.3z" />
	<path fill="#5B423B" d="M527.6,235.6c0.5-0.3,1.1-0.7,2.2-1.4c-0.5,1.7-0.6,1.6-1.9,2.1C527.9,236.1,527.8,235.9,527.6,235.6z" />
	<path fill="#030202" d="M491.6,227c0,0.7-0.1,1.3-0.1,2c-0.1,0-0.2,0-0.4,0.1C490.8,228.1,490.8,227.5,491.6,227   C491.7,227,491.6,227,491.6,227z" />
	<path fill="#5C4942" d="M501.9,240.7c1.1-1.2,1.4-0.8,0.7,0.6C502.4,241,502.1,240.9,501.9,240.7z" />
	<path fill="#69574E" d="M554.3,194.7c0.6,0.3,1.5,0.3,0.9,1.2c-0.4-0.2-0.8-0.5-1.2-0.7C554.1,195.1,554.2,194.9,554.3,194.7z" />
	<path fill="#8A6659" d="M484.8,238c0.7-1,1.7-0.7,2.6-0.7C486.8,238.4,485.8,238,484.8,238z" />
	<path fill="#543E38" d="M550.4,178.5c0-0.6,0-1.1,0.1-1.7C551.4,177.7,551.4,177.7,550.4,178.5z" />
	<path fill="#140E0D" d="M438.2,429.4c0.1,1,0.3,1.9,0.4,2.9c-2.9,1.2-3.8-6.8-4-8.7c-1.2-1.5-2.3-2.8-3.4-4.1   c0.4-0.6,0.6-1.1,1-1.8c1.2,0.6,2.3,1.1,3.4,1.6c4.3-1.1,6.1-6.5,9.2-9.4c2.7,2.2-4.9,10.6-7.5,11.9   C436.9,424.5,437.3,427,438.2,429.4z" />
	<path fill="#926E60" d="M443.3,415.9c0.5-1.7,4-4.7,1.6-5.9c0.1-1.9,1.7-3.5,2.4-5.2c0.3,0.3,0.7,0.6,1,1c0.3,2-1.2,3.4-1.5,4.9   c2,4.6,4.3,8.8,4,13.9c-1.2-0.8-2.7-5-4.2-3.6c-1.3-1.3-1.2-3.3-2.1-4.8C444.1,416,443.7,416,443.3,415.9z" />
	<path fill="#17110F" d="M446.5,421c2.2-0.9,5.1,5.6,7.3,7.2c-0.7,0-1.3,0-1.7,0c-1.1,2.7-2.1,5.1-3,7.6c-2.4-0.3-0.7-2.7-1.2-4.7   C450.8,427.8,447.9,424.5,446.5,421z" />
	<path fill="#664F46" d="M460.3,477.9c-0.6,0.3-1.1,0.5-1.7,0.8c-0.4-2,0.8-3.4,1.6-5.1c0.2-1.4-2.2-3.3,0.7-4.7   C461.5,472.1,460.7,474.9,460.3,477.9z" />
	<path fill="#8C6E62" d="M461.8,464.2c-0.2,0.3-0.5,0.6-0.7,0.9c-1.3-1-1.6-9.1,0.2-9.9C461.7,458.1,460.1,461.9,461.8,464.2z" />
	<path fill="#140F0E" d="M447.5,507.3c1.4,2.2,0.2,3.3-0.7,4.7C445.6,509.6,445.6,509.6,447.5,507.3z" />
	<path fill="#13110F" d="M438.2,473.4c-0.4-1.6-0.5-3,0.2-4.5C440.2,470,440.2,471.4,438.2,473.4z" />
	<path fill="#0F0D0C" d="M461.8,464.2c-1.8-2.3-0.2-6.2-0.5-9.1l0.4,0C461.7,458.2,462.2,461.2,461.8,464.2z" />
	<path fill="#231C19" d="M448,438.9c0.6,1.7,0.4,3.2-0.2,4.8C445.9,442.5,445.9,441,448,438.9z" />
	<path fill="#43342E" d="M446.2,514.3c-0.8,1.7-1.3,2.6-1.8,3.5C443,516.5,443.3,515.7,446.2,514.3z" />
	<path fill="#291D1A" d="M448.3,405.7c-0.3-0.3-0.7-0.6-1-1c0.9-1,0.8-2.7,2.4-3.2C450.6,403.5,448.9,404.4,448.3,405.7z" />
	<path fill="#402F2A" d="M437.2,449.9c0.1-0.5,0.3-1,0.5-1.6c1.7,1.4,1.8,2.1,0.4,4.1C437.8,451.5,437.5,450.7,437.2,449.9z" />
	<path fill="#372A26" d="M444.3,522.1c0.9,1.5,0.5,2.4-0.9,3.2C442.9,524,442.6,522.9,444.3,522.1z" />
	<path fill="#3B2B26" d="M439,461.1c0.5,0,1.1-0.1,1.6-0.1c0,0.9,0,1.8,0,3C438.7,463.4,438.9,462.2,439,461.1z" />
	<path fill="#58403A" d="M437.3,485.8c-0.8-1-0.9-1.3,0.2-1.7C438.3,484.5,437.8,485,437.3,485.8z" />
	<path fill="#281916" d="M438.1,455.1c0.5,0.6,0.9,1.2,1.6,2.1c-0.8,0.2-1.2,0.3-1.7,0.4C438.1,456.7,438.1,455.9,438.1,455.1z" />
	<path fill="#371F1C" d="M437.9,478.2c0,0.5,0.1,1.1,0.1,1.6c-0.2,0-0.4,0-0.6,0c0-0.5-0.1-1.1-0.1-1.6   C437.5,478.3,437.7,478.2,437.9,478.2z" />
	<path fill="#926E60" d="M446.7,421.7c0.3,0.6,0.5,1.2,0.8,1.8C446.5,423.2,446.5,422.4,446.7,421.7z" />
	<path fill="#AE897A" d="M407.5,217.7c0,0.5,0,1,0.1,1.6c8.1,0.5,14.2,4.3,19.4,9.7c-1.1,3.8-9-1.1-11.1-2.8c-0.3-0.9-1-0.9-1.8-0.8   l0,0c-0.7-1.7-2.7-1.4-4-2.3c-0.1-0.4-0.1-0.8-0.2-1.1c0.3-0.3,0.5-0.6,0.8-0.9c-0.2-0.2-0.4-0.4-0.6-0.6c-0.1,0.2-0.2,0.4-0.2,0.6   c-0.3,0-0.6,0-0.8,0c-0.8-0.5-1.6-1-2.4-1.5C406.5,218.8,406.4,218.1,407.5,217.7z" />
	<path fill="#201917" d="M347.9,158.1c-0.3-2.7,0.1-5.3,1.8-7.5c0.5-0.1,1.1-0.1,1.8-0.2c0.3,3-1.4,5.5-0.9,8.8   C349.3,158.6,348.6,158.3,347.9,158.1z" />
	<path fill="#13100E" d="M339.4,162.4c0.3-1.3,0.6-2.6,1-4.1c0.5-0.1,1-0.1,1.5-0.2c0,3,0,6,0,9C339.7,166.4,340,164.1,339.4,162.4z   " />
	<path fill="#1D1412" d="M373.4,135.9c2-2.1,4.4-4.8,6.8-3.7C378.8,135,377.3,135.8,373.4,135.9z" />
	<path fill="#936B5E" d="M410,222c0.1,0.4,0.1,0.8,0.2,1.1c1.3,0.9,3.2,0.5,4,2.3c-2.9-0.2-5.5-1.6-8.5-1c0.4-2.7,2-1,3.5-2.6   C409.5,221.8,409.7,221.9,410,222z" />
	<path fill="#28211E" d="M352.6,165.1c-2.4-1.3-2.5-2.9-2.1-5.3C352.8,161.4,352.1,162.4,352.6,165.1z" />
	<path fill="#544039" d="M391.3,222.7c0.1,2-1.6,3.6-3.5,3.4C388.7,224.7,389.2,222.3,391.3,222.7L391.3,222.7z" />
	<path fill="#4A3731" d="M349.9,179.5c0.5,0.9,0.9,1.7,1.3,2.6C349.3,183.8,347.5,179.8,349.9,179.5z" />
	<path fill="#4F3C35" d="M345.3,176.2c-0.9-1.4-2.3-2.1-1.1-3.5C346.1,174,346.1,174,345.3,176.2z" />
	<path fill="#342D29" d="M397.8,222.7c0.6,2.2-0.5,2.7-1.8,3.8C395.4,224.2,396.3,224.3,397.8,222.7z" />
	<path fill="#584139" d="M382.7,228.7c-2.1-0.3-2.1-0.4-2.4-2.4C382.3,226.6,382.3,226.7,382.7,228.7z" />
	<path fill="#7C5B51" d="M396.3,230.8c-1.2-0.2-1.8-0.6-1.2-1.6C396.1,228.4,396.5,230,396.3,230.8z" />
	<path fill="#362420" d="M377.8,221.9c-1.2,1.3-1.4,1.2-2.5-0.7C376.3,220.9,377.2,220.8,377.8,221.9z" />
	<path fill="#372A25" d="M355.3,166.9c0.4,0.8,0.7,1.7,1.2,2.7C354.9,169,354.9,169,355.3,166.9z" />
	<path fill="#685249" d="M371.8,137.7c-0.6,0.3-0.9,0.4-1.2,0.6C369.7,137.1,370.8,136.5,371.8,137.7z" />
	<path fill="#654F47" d="M368.4,139.3c-0.9,0.8-1.3,0.9-1.6-0.2C367.2,138.4,367.7,138.9,368.4,139.3z" />
	<path fill="#6E544C" d="M367.5,156.2c-0.8,1.3-1.9,0.8-1.2-0.5C366.6,155.8,367,156,367.5,156.2z" />
	<path fill="#5B473F" d="M343.7,170.1c-1.1,0.7-1.4,0.6-1.6-0.4C342.6,169,343,169.5,343.7,170.1z" />
	<path fill="#5E473E" d="M372.5,217.6c-0.1,0.5-0.2,1-0.3,1.5c-1.2-0.5-1.5-1.3-1.4-2.3C371.4,217.1,372,217.4,372.5,217.6z" />
	<path fill="#382B27" d="M387.8,226.1c0.3,0,0.6,0,0.9,0c-0.4,0.5-0.7,1-1.1,1.6C386.7,226.9,387,226.4,387.8,226.1z" />
	<path fill="#977264" d="M339.4,163.1c0.2,0.6,0.4,1.2,0.6,1.9C339.2,164.5,339.3,163.8,339.4,163.1z" />
	<path fill="#936B5E" d="M405.6,224.4c-0.3,0.3-0.5,0.5-0.8,0.8C405.1,224.9,405.4,224.7,405.6,224.4z" />
	<path fill="#130C0B" d="M410,222c-0.3-0.1-0.5-0.1-0.8-0.2c0-0.2,0-0.5,0-0.7c0.3,0,0.6,0,0.8,0l0-0.1C410,221.3,410,221.6,410,222   L410,222z" />
	<path fill="#261E1B" d="M357.5,171.9c0.1,0,0.2,0,0.2,0c0,0.2-0.1,0.3-0.1,0.5C357.5,172.3,357.3,172.1,357.5,171.9z" />
	<path fill="#281F42" d="M437.2,363.1c-5-3.5-8.5-9.1-9.7-15.1c3.1,3.8,4.2,9,8.1,12.3C436.4,361.1,437.4,361.8,437.2,363.1   L437.2,363.1z" />
	<path fill="#312652" d="M421.5,337.3c0.8,2.3-0.3,3.3-0.9,4.3C418,341.4,420.7,339,421.5,337.3z" />
	<path fill="#281F42" d="M437.2,363.1c0.3,0.3,0.6,0.6,0.8,0.9l0,0C437.8,363.7,437.5,363.4,437.2,363.1L437.2,363.1z" />
	<path fill="#140F20" d="M395.6,263.4c-1.6,5-5.6,8.7-9.1,13.1C386.9,272.8,390.6,267.3,395.6,263.4z" />
	<path fill="#191226" d="M406.6,255.9c0,0.3,0,0.6,0,0.9c-1.4,1.2-2.8,1.2-4.8,1.9c0.2-1.9,1.9-2.4,2.2-3.7   C404.9,255.3,405.8,255.6,406.6,255.9z" />
	<path fill="#44386B" d="M405.6,257.5c0.3-0.2,0.6-0.5,1-0.7C406.3,257.1,405.9,257.3,405.6,257.5z" />
	<path fill="#332621" d="M329.6,384.9c-0.7,1.2-1.4,2.3-2.2,3.7c0,1.6,0,3.2,0,5c-2-1.6-1.6-3.6-1.7-5.4   C327.9,384.8,327.9,384.8,329.6,384.9z" />
	<path fill="#1B1717" d="M442.3,593.6c-7.3,3.2-13.7-8.5-21.2-1c-0.1,0.8-0.2,1.6-0.3,2.4c-0.5,0.4-1,0.9-1.7,1.5   c-0.6-0.6-1-1.1-1.5-1.5C421.1,584.9,435.8,588.7,442.3,593.6z" />
	<path fill="#070505" d="M423.6,567.1c3.9-0.9,9.7-1.5,12.7,1.5c-0.2,1.4-1.6,1.4-2.4,2C430.8,571,419.5,572.9,423.6,567.1z" />
	<path fill="#0D0A0A" d="M422.7,574.9c1.1-4.6,9.1-2.9,11.8-0.3C431.5,577.3,425.7,578,422.7,574.9z" />
	<path fill="#010101" d="M422.9,556.4c-0.9-0.3-1-1.1-1-1.9c5.1-1.5,11.9-1.2,16.9,0.2c-4.3,2.2-10.4-1-14.4,1.5l0,0.2   C424,556.4,423.5,556.4,422.9,556.4z" />
	<path fill="#191616" d="M424.5,556.2c3.9-2.5,10.1,0.7,14.4-1.5c0.9,0.1,0.9,0.8,0.9,1.4C434.6,556.1,429.5,556.1,424.5,556.2z" />
	<path fill="#191616" d="M434.8,553.6c-3.2,0-6.4,0-9.6,0C428.4,552.7,431.9,552.7,434.8,553.6z" />
	<path fill="#191616" d="M438.2,554.4c-1,0-2.1,0.5-2.7-0.7C436.5,553.6,437.5,553.5,438.2,554.4z" />
	<path fill="#191616" d="M424.4,553.6c-0.4,1-1.2,0.8-2,0.7C422.9,553.6,423.7,553.5,424.4,553.6z" />
	<path fill="#586165" d="M413.4,217.5c1.4,0.6,2.9,1.2,4.3,1.9c-0.9,2-3.4-0.8-4.8-1.1C413.1,217.9,413.3,217.7,413.4,217.5z" />
	<path fill="#6A7074" d="M421.9,221.6c0,0.4,0,0.7,0,1.1c-1.3-0.7-2.9-0.9-3.5-2.6C419.6,220.6,420.8,221.1,421.9,221.6z" />
	<path fill="#936B5E" d="M414.2,225.4c0.8-0.1,1.5-0.1,1.8,0.8C415.3,225.9,414.7,225.7,414.2,225.4z" />
	<path fill="#545E61" d="M480.5,226c-0.3-0.3-0.6-0.6-0.8-0.8c2.5-1.2,6.2-1.5,9-1.4C486.6,226.4,483.2,225,480.5,226z" />
	<path fill="#937063" d="M457.5,68c-0.2-0.2-0.5-0.4-0.5-0.6c0.1-1.5-1.2-1.9-1.9-2.8c6,0,12,0,17.9,0c0.2,0.8,1.7,1.6,0.1,2.5   c-0.2-0.2-0.4-0.4-0.6-0.6c-0.1,0.2-0.2,0.4-0.3,0.6l0,0C468,70.7,461.6,68,457.5,68z" />
	<path fill="#281D1A" d="M448.6,40.2c-0.9,0.4-2,0.8-3.3,1.3c0.1-1.7,2.6-1.9,1.4-3.8c4.6-2,8.7-2,12.6,1.7   c-0.3,0.6-0.7,1.1-1.1,1.9c-0.4-0.5-0.7-0.8-1-1.1C454.1,41.1,452.1,41,448.6,40.2z" />
	<path fill="#0F0909" d="M478.9,37.3c0.7,0.1,1.4,0.1,2.3,0.2c-0.4,0.5-0.7,0.7-1,1.1c0.8,0.7,1.7,1.5,2.8,2.4   c-1.9,0.9-2.7-1.4-4.3-0.7c-3.1,2.6-6.7-2.2-9.1,1.5c-0.1-1.3-0.2-1.8-0.2-2.3C472.7,36.4,475.5,35.9,478.9,37.3   c-0.1,0.2-0.2,0.3-0.2,0.3C478.7,37.6,478.8,37.4,478.9,37.3z M473.4,38.5c-0.4-0.1-0.7-0.4-1,0C472.8,38.9,473.1,39,473.4,38.5z" />
	<path fill="#261916" d="M484.6,34.8c-5.6-3.5-12.5,3-15.8-0.5C472.3,31.8,482.8,29.9,484.6,34.8z" />
	<path fill="#231512" d="M443.9,33.9c3.8-3.9,10.7-1.5,15.3,0c-1.2,4.2-10.4-2.4-15.2,0.8c0,0,0,0,0,0C444,34.5,444,34.2,443.9,33.9   z" />
	<path fill="#36231F" d="M456.9,61.2c1.2-0.9,2.5-1.7,3.6-2.5c2.9,0.8,4.3,0.8,7.3,0c2.6,0.7,5.3,3.7,8.2,3.5   c0.5,0.8,0.3,1.3-0.3,1.6c-1.1-0.9-2.3-1.1-3.7-1c-0.8-2.1-3.1-1.4-4.5-2.6c-1.8,0.8-3.5,1.4-5.3,0.3   C460.6,60.2,458.6,61.4,456.9,61.2z" />
	<path fill="#281C19" d="M456.9,61.2c0.3,0,0.6,0,0.9,0c-0.2,0.5-0.5,1-0.8,1.8c4.7,1.3,9.6,0.9,14.4,0c1.1,1.1,2.6,0.7,4.1,0.7   l0.3,0.2c-6.6,1.9-13.8,0.4-20.6,0.9c-0.5-0.4-1.1-0.8-1.8-1.3C454.6,62.5,455.8,61.8,456.9,61.2z" />
	<path fill="#392622" d="M468.3,53.1c1.5-1.7,3.2-1.6,4.9-0.3c0.4-1,0.7-1.7,1-2.4c3.6,1.9-1.2,6.1-3.5,4.2   C469.9,54.1,469.3,53.4,468.3,53.1z" />
	<path fill="#382C27" d="M455.9,52.8c1.6-1,3.1-1.4,4.8,0.3c-1.5,0.4-2.2,1-3.2,2.3c-2.4-1-5.6-1.6-2.8-4.9   C455.1,51.2,455.4,51.9,455.9,52.8z" />
	<path fill="#402A26" d="M457.5,68c0.2-0.2,0.5-0.6,0.5-0.5c3.1,2,6.5,1.2,9.8,1.4c-1.9,2.1-4.9-0.5-6.7,1.4   C459.7,70,458.3,69.4,457.5,68z" />
	<path fill="#2C1D1A" d="M467.9,24.7c1.7-1.1,3.5-1.4,5.7-0.8c-1.7,2.3-3.8,1.6-5.7,1.4C467.9,25.1,467.9,24.9,467.9,24.7z" />
	<path fill="#060403" d="M461.1,70.3c1.8-1.9,4.9,0.6,6.7-1.4c0.6-0.1,1.1-0.2,1.7-0.2c0,0.3,0,0.7,0.1,1   C467.2,71.2,463.9,70.8,461.1,70.3z" />
	<path fill="#3C2824" d="M467.9,24.7c0,0.2,0,0.4,0,0.5c-1.4-0.1-2.8,0.6-4.3-0.3C464.4,22.9,466.5,23.7,467.9,24.7z" />
	<path fill="#281412" d="M461.9,54c2,0.3,3.1,0.4,5,0C466.7,56.1,462.5,55.9,461.9,54z" />
	<path fill="#110F0D" d="M460.8,42.2c-0.2-0.9-0.3-1.8-0.5-2.6C462.2,38.3,462.7,41.6,460.8,42.2z" />
	<path fill="#3C1412" d="M477.9,42.6c-1.5,1.5-2.6,1.3-4.2,0C475.3,42.6,476.4,42.6,477.9,42.6z" />
	<path fill="#3D1513" d="M450.2,42.5c1.5,0,2.5,0,3.9,0C453.1,44.1,451.7,44.2,450.2,42.5z" />
	<path fill="#402A26" d="M469.6,69.7c0-0.3,0-0.7-0.1-1c0.9-0.5,1.7-1.1,2.6-1.6C472.3,68.9,470.7,69,469.6,69.7z" />
	<path fill="#2D0B0A" d="M460.8,24.1c-0.3,0.6-0.7,0.5-1.2,0.2C459.9,23.7,460.3,23.8,460.8,24.1z" />
	<path fill="#402A26" d="M468.7,70.3c0.3-0.2,0.6-0.4,0.9-0.6C469.3,69.9,469,70.1,468.7,70.3z" />
	<path fill="#402A26" d="M472.1,67.1c0.1-0.2,0.2-0.4,0.3-0.6c0.2,0.2,0.4,0.4,0.6,0.6C472.7,67.1,472.4,67.1,472.1,67.1z" />
	<path fill="#967163" d="M444,34.8c0.3,0,0.5,0,0.8,0c-0.1,0.2-0.3,0.4-0.4,0.6C444.3,35.2,444.2,35,444,34.8z" />
	<path fill="#967163" d="M443.9,33.9c0,0.3,0.1,0.6,0.1,0.9C443.3,34.6,443.2,34.3,443.9,33.9z" />
	<path fill="#5A463F" d="M481,84.6c0.8,2.8-0.3,5.1-1.8,8.1C478.7,89.3,480,87,481,84.6z" />
	<path fill="#2A1F1B" d="M467,90.3c-0.3-0.3-0.6-0.5-0.9-0.7c0.8-1.5,1.5-2.9,2.3-4.6c1.5,0.8,1,2.1,1,3.4   C468.7,89,467.9,89.6,467,90.3z" />
	<path fill="#443630" d="M477.7,95.3c0.8,1.4,0.6,2.4-0.7,3.2C475.8,97,476.7,96.2,477.7,95.3z" />
	<path fill="#725A50" d="M475.2,101.7c-0.7-0.7-0.2-0.8,0.3-1.3C476.3,100.9,475.6,101.2,475.2,101.7z" />
	<path fill="#030202" d="M548.6,182.7c-0.5,0.2-1.1,0.4-1.6,0.5c0.3-0.7,0.6-1.4,1-2c0.2,0,0.4,0.1,0.5,0.1   C548.5,181.7,548.6,182.2,548.6,182.7z" />
	<path fill="#553132" d="M386.9,119.9c-0.2,0.2-0.4,0.5-0.6,0.7C386.5,120.4,386.7,120.2,386.9,119.9z" />
	<path fill="#0A0909" d="M245.8,521.3c0-0.3-0.1-0.6-0.2-0.8c0.1-0.4,0.2-0.8,0.4-1.2c4.2-1.4,8.5,3.3,11.3,6.2   C252.6,526,249.3,523.7,245.8,521.3z" />
	<path fill="#322C2D" d="M240,538.2c-0.3,0.3-0.7,0.6-1,0.9c-3.4-0.6-6.6-2.5-10-0.4c-0.9-1.6,0.2-2.3,1.4-3.1   C233.7,536.1,237,536.5,240,538.2z" />
	<path fill="#1E1919" d="M252.5,526.4c0,0.4,0,0.8-0.1,1.4c-2.8,0-5.3-0.4-7.3-2.4C246.2,521.7,250.4,525.9,252.5,526.4z" />
	<path fill="#868E8F" d="M252.5,526.4c-1.7-0.8-3.5-1.6-5.2-2.4c0.3-0.3,0.6-0.6,0.9-0.9c1.7,0.8,3.5,1.6,5.2,2.5   C253.1,525.8,252.8,526.1,252.5,526.4z" />
	<path fill="#332D2F" d="M415.8,173.3c1.4,1.1,1.9,2.6,2.6,4.2C415.4,177,414.8,176,415.8,173.3z" />
	<path fill="#423C3F" d="M418.4,161.6c2,0.5,3.2,1.4,4.2,2.6C420.4,164.7,419.7,164.4,418.4,161.6z" />
	<path fill="#463B3E" d="M429.9,165.6c-2.8,0.6-3.9-1-5.2-2.2C426.9,163,427.6,164.2,429.9,165.6z" />
	<path fill="#333437" d="M413.8,186.6c1.4,0.2,2.1,1.1,2.3,2.6C414.2,189.2,414.1,187.8,413.8,186.6z" />
	<path fill="#0F0C0C" d="M461.4,158.2c-1.2-1.2-1.2-1.2-1.1-3.1C461.4,156,461.9,156.8,461.4,158.2z" />
	<path fill="#080909" d="M455,210.8c-0.3,0.9-0.7,1.7-1.1,2.8c-2-1.6-0.2-2.9-0.4-4.3C455,209.3,454.7,210.3,455,210.8L455,210.8z" />
	<path fill="#0B0C0C" d="M451.9,217.8c1.5,1.4,1.1,2.6,0.2,4.2C450.7,220.6,451.6,219.6,451.9,217.8z" />
	<path fill="#211E1E" d="M454.3,200.7c1.2,1.2,1.2,1.2,0.2,3C453.5,202.8,454.1,201.7,454.3,200.7L454.3,200.7z" />
	<path fill="#130C0B" d="M410,221.1c0.1-0.2,0.2-0.4,0.2-0.6c0.2,0.2,0.4,0.4,0.6,0.6C410.5,221,410.2,221,410,221.1L410,221.1z" />
	<path fill="#936B5E" d="M409.9,221c0.3,0,0.6,0,0.9,0c-0.3,0.3-0.5,0.6-0.8,0.9C410,221.6,410,221.3,409.9,221z" />
	<path fill="#575E59" d="M473.4,38.5c-0.4,0.5-0.6,0.4-1,0C472.7,38.1,473,38.4,473.4,38.5z" />
	<path fill="#B28C7D" d="M478.9,37.3c-0.1,0.1-0.2,0.3-0.2,0.3C478.7,37.6,478.8,37.5,478.9,37.3L478.9,37.3z" />
	<path fill="#8C695D" d="M471.3,62.9c-4.8,0.9-9.7,1.3-14.4,0c0.4-0.8,0.6-1.3,0.8-1.8c3.4-1.5,6.5,0.8,9.7-1   c1.4,1.1,3.6,0.5,4.5,2.6C471.7,62.8,471.5,62.8,471.3,62.9z" />
	<path fill="#140606" d="M471.3,62.9c1.4-0.4,2.9-0.2,4.1,0.7C473.9,63.6,472.4,64,471.3,62.9z" />
</g>
</svg>