<?xml version='1.0' encoding='utf-8'?>
<svg xmlns="http://www.w3.org/2000/svg" version="1.2" baseProfile="tiny" id="Layer_1" x="0px" y="0px" viewBox="0 0 900 600" overflow="visible" xml:space="preserve">
<g id="b_00000162311606199348822670000013380798767978433440_">
	<path display="inline" d="M406.6,80.7c-47-0.8-94.9,1.5-141.4-0.8c0.1-0.7,0.1-1.4,0.2-2.1c47.6,0,95.2,0.2,142.8-0.2   c0.2-1,0.4-2,0.7-3.3c-2.8-0.2-5.3-0.5-7.6,0.7c-43.6-4.2-93.5,3.7-135.2-2.7c48.9-2.5,99.3,0,148.7-0.9c0.3-2.8,1.2-4.9,3.8-6.2   c1.3,0.4,2.3,0.8,3.6,1.2c0.7-0.4,1.4-0.9,2.3-1.5c3.5,0.7,5.9,2.4,9.8,2.8c0.1-0.1,0.6-0.3,1-0.6c0.5-6.9-2.8-13.2-3.6-20   c-2.3-1.1-3.8-1.9-6-3.3c-0.2-1.1-0.5-2.3-0.7-3.5c0.4-0.7-0.3-1.7,0.7-2.2c0.9,3.2,1.8,5.4,5.3,6.5c0.1-1,0.2-1.6,0.2-2.3   c0.2-0.1,0.3-0.3,0.6-0.5c2.7,8.9,10.3,21.8,3.7,30.5c0.2,5.8,1.3,11.6,6.2,15.3c0.5-0.2,0.9-0.4,1.3-0.6c0.3-2.1,0.7-4,1-5.9   c0.6-0.4,1.2-0.7,1.9-1.2c0.3,3.1-0.9,5.6-0.4,8.6c3.8-5.8,5.4-14.2,6.9-21.3c0.3,0.3,0.6,0.5,1,0.8c2.6-8.2-0.6-17.2,1.6-25.2   c1.2,10.2,2,20.6-0.8,30.6c-0.7,0.5-0.9,1.1,0,1.8c6.9-14.3,3.1-30.3,2-45.4c-0.6-3.3,0.6-6.5-3.2-8.7c0,1.2,0,2,0,2.8   c-0.2,0-0.4,0-0.6,0c-0.2-0.3-0.4-0.6-0.6-1c0.1-0.2,0.1-0.3-0.1-0.4c0-0.8,0-1.6,0-2.3c-15.7-1.3-6,25.5-6,34.4   c1.5,7.9,0,15.5-0.3,23.3c-3.1-11.9-2.2-25.5-4.3-38c-0.6,0.4-1.1,0.8-2,1.4c0.2-2.9,4-4.8,0.7-7c1.2-1.4,1.9-2.8,0.8-4.7   c-1.1-0.2-2.6,0.3-3.5-0.7c1.3-0.4,2.6-0.8,3.9-1.2c0.1-0.6,0.1-1,0.1-1.5c-1.8-1.3-4.1-1.2-6.6-2.8c1.3,0,1.8-0.1,2.4-0.1   c1.2,0.9,2.6,0.7,4.8,0.4c-4-1.3-5.3-3.6-8.1-6.2c0.2-0.3,0.5-0.5,0.7-0.8c2.8,1.4,4.8,4,7.7,5.2c0.5-0.4,0.8-0.7,1.1-1   c0.9-0.1,1.4-0.6,1.5-1.5c1.4-0.7,2.8-1.4,4.1-2c0.4-2.1,0.7-4.1,1.1-6.1c0.4-0.2,0.8-0.4,1.1-0.6c0.6,2.8-1.7,8.5,2.8,7.6   c1.3,0.9,2,3.5,4,2.7c0.3,0.3,0.6,0.6,1,0.9c-0.5,0.6-1,1.2-1.6,1.8c0.4,0.7,0.7,1.2,1.1,1.8c0.7-0.1,1.3-0.2,1.9-0.3   c0.2,0.2,0.4,0.5,0.6,0.7c-0.8,0.8-2.2,0.7-2.7,1.8c0.7,1.8,0.7,3.9,2,5.3c-0.5,0.7-0.8,1.4,0,2.1c-0.1,0.2,0,0.4,0.1,0.5   c0.7,5.1,1.3,8.8,2.4,14c0.6-2,0.3-3.6,1.4-4.8c1.9-0.2,3.7,0.8,3.8-1.5c0.2-0.2,0.4-0.4,0.6-0.6c0.5,0.1,1.1-1.2,1.6,0   c-0.7,2.4-2.5,3.5-4.7,4.1c-2.9,7.4-4.9,15.3-1.9,23.1c2.3-3,5.5-3.1,8.5-5c0.9,0.3,1.8,0.6,2.7,0.9c1.5-0.6,3-1.7,4.9-0.2   c4.2-3.3,8.7-2.2,8,4.9c48.8,1.6,98.4-0.6,147.4,0.8c0.1,0.6,0.1,1.3,0.2,1.9c0,0,0,0,0,0c-47,2-95.1-0.9-142,1.1   c0.5,2.1,6.8,3.1,8.7,3c44.4,0,88.8-0.1,133.2-0.1c0.1,0.2,0.3,0.2,0.6,0.2c0.1,0.5,0.3,1.1,0.4,1.8c-43.7,2.7-88.6-0.5-132.6,1.3   c1,2.6,3.3,5.6,1.4,8c-4.2-15.3-23.1-10.3-35.1-12.4c-0.7,14.9,6.8,30.8,20.9,37c0.7-0.2,1.4-0.3,1.9-0.4c0.9-2.1,1.8-4,2.6-5.9   c1.1-0.7,1.7-1.7,2-2.9c0.2-0.2,0.5-0.5,0.7-0.7c0.3,0.3,0.5,0.5,0.8,0.8c-4.3,10.1-7.3,20.5-7.9,31.6c-1.7,10.8-8,21.3-6.7,32.3   c0.6,0.6,1.3,1.1,2,1.4c-0.6,0.1-1.1,0.3-1.8,0.4c15.7,46.2,25.1,45.4,16.2,99.4c-4.2,24.7,4.6,55.6-15.2,74.7   c-3.3,10.9-1.9,7.7,2.4,16.6c9.4,12.1,7.9,28.8-3.9,38.9c-13.3-2.5-16.3-16.8-21-27.6c-2.2,9.5-6.5,58.1-18.3,56.8   c-0.5,0.5-0.9,0.8-1.3,1.2c-11.4-3.4-13.9-16.7-16.4-26.9c-1.4-6.8,5.4-11.5,5.4-18.3c1.3-4.8-3.8-8.3-2.5-12.9   c-1.6-8.6-1.5-21.7,9.1-24.1c-12.2-7.6-14.8-10.9-16.3-25c-7.4-20.4-11-42.1-17.3-62.9c-10.7-45.3,13.8-51.7,14.2-89.9   c-23.6-7.9-19.4-47.6-25.5-67.7c-1.7-24.3,10.2-13.2,15.4-21.5c-0.4,0.2-0.8,0.4-1.2,0.5l0,0C407.3,80.9,407.1,80.7,406.6,80.7z    M447.8,92.5c-0.1-0.6-0.1-1.3-0.2-2c-1,0.5-1.4,1.2-1.2,2.1c-1.5,2.5-1.5,5.4-1.5,8.7c-2.8-3.1-2.7-7.5-2.8-11.5   c-7.1-1.1-8.7-8.6-8.4-14.7c-2,0.6-2,0.6-3.6,2.3c-0.7,18.7-10.2,37.1-24.8,48.5c0.9,3.4,5.6,14.3,6.8,16.1   c24.1,5.3,48.9,4.1,72.3-4.3c2-7.7,5.6-14.6,4.9-22.8c-16.9-4-22.5-24.3-22.4-39.5c-0.6-0.3-1.2-0.6-1.7-0.8   c-3,12.4-0.9,14.7-16.2,16.4c-0.4,0.6-0.6,1.1-0.8,1.5C448.2,92.4,448,92.4,447.8,92.5z M466.6,377.5L466.6,377.5   c5,8.4,3.8,15,14.6,19.1c7.5-3.6,9-14,10.6-21.9c-3.1-7.1-6.9-14.2-10.9-21c3.8-10,0.7-22.7-5.7-31.2c0.8-1,1.4-0.3,2-0.2   c2.6,3.9,6.3,7.4,6.2,12.5c0,1.6,0.7,3.3,1.7,4.8c14.4-21.2,8.1-48.1,10.6-72.1c-12,4.5-27.5,7.6-39.3,1.5   c3.3,16.4,9.1,32.7,9.2,49.8c5.2,1.6,10.5-0.4,15.9,0.2c0.8-1.4,1.6-2.7,2.4-4.1c0.8,1.8,0,3.2-1,4.5c1.8,1.2,3.7,1.9,4.7,3.7   c-0.3,0.3-0.6,0.6-0.9,0.9c-2.2-0.9-4.2-2.3-6.7-2.3c-1.5-1-3.1-0.5-4.5-0.6c-0.6,0.6-1.1,1-1.5,1.3c-3.1-0.4-5.9-0.8-8.7-1.2   c-7.6,3.2-5.4,11.4-5.6,17.9c-0.2,0.3-0.5,0.5-0.7,0.8c-1.9-3.3-1.5-7-1.5-10.7c-2.9,0.4-4.1,8.3-2.9,10.5c1.7,3.6,0,7.9,3.1,11.1   c-0.5,0.5-0.8,1-1.2,1.4C458,361.1,463.5,368.7,466.6,377.5z M419.2,75.7c-0.8,0.4-0.9,1.1-0.8,2c1.4-0.1,1.6-1,1.5-2.1   c1.2-2.3,1.1-5.2,1-7.7c-0.6-0.2-1.3-0.5-2.1-0.8c-1.4,1.7-2,3.4-2.1,5.5c0.8,0.5,1.7,1.1,2.5,1.6   C419.2,74.8,419.2,75.3,419.2,75.7z M435.4,314.8c1.1-0.3,2.1-0.6,3.1-0.8c0.3-1.4-0.4-2.9,0.9-3.4c0.1,1.1,0.5,2.2,1,2.9   c3.3,0.4,6.2,0.7,9,1c-3.8-15.1-1.7-30.1-0.4-45.4c-12.2,6-26.5,5.7-38.4,0.7c3.3,18.4,10.1,36.5,13.6,53.7   C426.8,318.6,430.7,316.5,435.4,314.8z M481.8,74.1c-0.6,0-1.1,0-1.7,0c-1.2-2.2-1-5-3.3-6.7c-0.6,0.2-1.1,0.5-1.9,0.8   c0.1,1.9,0.8,3.3,1.4,5c-3.9,1.2-2-7.6-5.6-5c1.4,3.6,1.4,3.6-1.3,5.3c4.4,0.4,11.1,3.6,14.4,0.2c2.8-1.9,0.7-10.5-3.6-5.7   C480.8,70.2,481.3,72.1,481.8,74.1z M463.1,265.3c-1.7-0.2-3.4-0.5-5.1-1.1c-0.7,1.1-1.4-0.7-2.3,0.1c0,0.3,0,0.8,0,1.3   c12.1,4.8,32.5,7.7,41-4c4.9-17.1,4.7-35.5-1.8-52.1c-12.6-6.3-25.5-5.3-39-3.6c-13.8,0.6-27.6-1.8-41.3,1.7   c-11.5,16.6-10.4,37.2-5.7,55.9c8.7,13.3,27.5,7.5,39.7,2.9c-0.1-0.8-0.1-1.4-0.1-2.2c-3.7,1.4-8.2,4.1-11.7,2   c6.2-1,11.3-4.7,16.3-8.3c4.8,4.9,7.2,6.2,12.9,7C465,265.2,464.1,265.3,463.1,265.3z M422.8,146.7c-2.9-0.6-5.8-2.2-8.8-1   c13.1,17.8,6.5,39.4,2.3,58.6c8.7-1.3,17.1-2.3,25.9-1.9c-0.5-1.3-0.9-2.3-1.4-3.4c0.3-0.3,0.5-0.5,0.8-0.8   c1.2,1.6,2.3,3.1,3.6,4.8c13.7,2,32-7,43.7,1.2c1.5,0.3,2.8,0.6,4.4,1c-11.6-28.2-17-30.9-10.5-62.8c-9.8,4.5-20.7,5.7-31.3,5.4   c-0.4,3.5-0.7,6.8-1,10.1c-0.2,0-0.4,0-0.6,0c-1-3.4-1-7.1-2.5-10.4C439.2,147.5,431,147.7,422.8,146.7z M457.5,389.8   c5.2-19.5-0.3-23.6-3.6-40.7c-1.5-0.6-2.7-0.3-4.2-0.4c5.7,8.2,6,18.8,5.6,28.6C454.7,379.1,456.1,397.2,457.5,389.8z M399.7,123.2   c3,15.3,1.4,38.6,19.3,44.3c-5.7-15.6-11.5-32.9-20-47.1C399,121.6,398.9,122.5,399.7,123.2z M455.5,327.2c0.4-0.3,0.9-0.6,1.2-0.8   c-2.3-8.6-11-11.4-19.6-10.3c-8.9,5.4-16.7,6.8-9.7,19.3c6.3,6.6,13.9,9.9,22.7,11.6c0.4-0.5,0.8-1,1.2-1.4   c0.8,0.1,1.4,0.2,2.2,0.3c0.2-3.1-0.8-5.8-2.1-8.4C451.9,333.4,452.2,329.9,455.5,327.2L455.5,327.2z M397.7,88.3   c-6.9,11.8,2.6,25.2,7.5,36.1c9.9-14.1,22.5-27.8,22.8-46c-9.4,1.9-18.5,6.8-28.1,8.4C398.8,87,398,87.3,397.7,88.3z M447.8,419.8   c12.1-20.4,4.2-23.8,5.4-42.9c2-9.8-2-19.7-6.1-28.3c-0.8-0.1-1.5-0.3-2.4-0.4c0.8,1.3,1.5,2.3,2.3,3.4c-3.7,2.5-5.5-5.5-12.7,1.4   c-6.5,5.5-2.8,14.4-3.5,21.8c1,2.2,3.5,5.6,3.6,8.4c-7,25.8-9.7,9.3,0.6,40.1c0.4-0.2,0.9-0.4,1.3-0.6   C440.2,430,446.3,426.3,447.8,419.8z M453.5,262.4c-1.7,1.4-1.4,2.9-1.4,4.2c-0.5,15.7-3.3,31-0.4,46.5c0.1,4.8,6.8,5.9,5.7,11.2   c0,0.2,0.2,0.5,0.7,1.3c1.3-2.9,2.6-5.3,5-6.9C462.6,299.4,453.3,281.8,453.5,262.4z M450.7,88.5c3.3,0.9,5.7-3.1,9-3.5   c4.3-1.9,2.3-7.9,3.2-12c-2.6-0.5-1.8-3.5-3.7-4.8C453.2,80.7,451,85.8,450.7,88.5z M422.9,77c1.2-0.5,2.1-0.9,3-1.3   c-0.3-2.9,0.2-5.4,2-7.7c-1.1-0.9-2-1.3-3.4-1.1c-0.8,1.4-1.6,2.7-2.3,3.9C422.4,72.9,422.6,74.7,422.9,77z M417,75.2   c-2.4,0.1-4.1,0-6.2-0.8c-0.8,2.6-0.8,3.8,0,7.5c1-0.5,2-1,3.1-1.5c-0.5-0.7-1-1.3-1.6-2.2C414.9,78.6,415.9,77.1,417,75.2z    M431.2,68.7c-3.2-0.3-3.1,3.9-3.3,6.1C431.1,75.5,430.1,70.8,431.2,68.7z M466.6,68.9c0.3,3.1,1.5,2.9,3.5,2   c-0.3-0.8-0.6-1.4-0.8-2C468.3,68.9,467.6,68.9,466.6,68.9z M491.2,75.3c-0.9,0-1.7,0-2.7,0C489.9,76.8,490.4,76.8,491.2,75.3z    M434.1,71c-0.3-0.8-0.4-1.1-0.5-1.7c-0.6,0.4-1,0.7-1.9,1.3C432.7,70.9,433.1,70.9,434.1,71z M465.2,71.1   c-0.1-0.2-0.2-0.4-0.2-0.6c-0.5,0.2-0.4,0.5-0.2,0.9C465,71.3,465.1,71.2,465.2,71.1z" />
	<path display="inline" fill="#88A1C4" d="M635.1,77.9c-0.2,0.1-0.4,0-0.6-0.2c-0.1-2.6-3-1.9-4.8-2c-45.5,0-91.1,0-136.6,0   c-0.2-0.3-0.3-0.6-0.6-0.9c46.9-2,95,1,142-1.1C635.4,75,635.4,76.4,635.1,77.9z" />
	<path display="inline" fill="#070605" d="M424.1,29.1C426.3,9.8,430.5,3,449.9,0c8.9,3.8,23.4,11.9,18.8,23.5c-0.3,1.5,0.9,7.4-2,5   c2.5-0.8,1.1-5.1,0.4-7.2c-1,0.3-2.8,2.4-3.4,0.8c0.4-0.3,0.9-0.7,1.9-1.5c-1.8,0.4-1.7,0.4-3.1,0.6c1.5-1.7,2.8-3.1,3.9-4.5   c-1.6-6-9-11.5-14.5-13.5c-0.6-0.9-1.4-1.4-2.6-1.1c-0.2,0.5-0.4,0.9-0.6,1.3c-1.9-2-6.6-0.2-6,2.6c-0.2,0-0.4,0-0.6,0.1l0,0   c1.2-2.7-4.9-3.1-5.5-0.7c-1.5,1.6-3.9,2.7-4.7,4.7c0.3,0.6,0.5,1,0.7,1.4c-0.3,0.3-0.6,0.6-0.8,0.8c-2.5,0-2.8,4.1-3.3,6   c0.6,0.7,1.2,1.3,1.8,2c-2.1,0-2.1,0-2.3,1.6c0.3,0,0.6,0.1,1,0.1c-1,2.1-2.1,4.4-1.1,6.7c0.9,0.1,1.7,0.2,2.5,0.3   c0,0.2,0,0.3,0,0.5c-0.8,0.3-1.6,0.7-2.3,1c0.1,0.6,0.2,1.2,0.4,1.8c-0.3,0-0.6,0.1-0.9,0.1c-0.2-0.2-0.5-0.4-0.7-0.6   c-0.1-0.2-0.1-0.4-0.2-0.6c-0.1,0.2-0.2,0.3-0.3,0.5l0,0c-1.4,0.2-0.4,1.7-1,2.7c-0.6-1.3-0.9-3,0.1-4.2c0-1-0.1-2-0.1-3   c-0.1,0-0.3,0-0.4,0c-0.1,0.8-0.1,1.5-0.2,2.3C424.6,29.5,424.3,29.3,424.1,29.1z" />
	<path display="inline" fill="#89A2C4" d="M265.9,72.3c41.8,6.4,91.7-1.4,135.2,2.7c-44.4,2.3-90.8-0.7-135.7,1.1   c-0.1,1.3-0.2,2.6-0.3,3.8C263.8,77.9,264.6,74.5,265.9,72.3z" />
	<path display="inline" fill="#030303" d="M485.4,169.7c-0.8-0.4-1.4-0.8-2-1.4c1.6,0.4,3,0.2,4.1-1.2c9.7-1.8,11.1-25.8,13.7-34   c2.5-10.5,0.7-23.1,3.1-34.3c0.4,0.5,0.9,0.9,1.3,1.4c0,16.1,1.3,32.9-5.5,47.7C497.3,156.5,496.6,168.3,485.4,169.7z" />
	<path display="inline" fill="#302E2D" d="M505.7,100.1c-0.4-0.5-0.9-0.9-1.3-1.4c-0.5-3.3-0.3-6.5,0-9.8c1.1-0.7,0.5-2.4,0.7-3.5   C506.7,89.9,505.5,95.3,505.7,100.1z" />
	<path display="inline" fill="#322C2B" d="M468.2,31.3c0.6,1.2,2.1,0.1,3,1.5c0.2,2.2,1.4,6.4-1,8.2c-0.1-2.5-0.1-5-0.2-7.5   c-1.9-1-2,1-3.3,1.7c0-0.7,0.1-1.3,0.1-2c0.6-0.4,0.5-1,0.4-1.5c0.3-0.2,0.6-0.4,0.8-0.5C468.1,31.2,468.2,31.3,468.2,31.3z" />
	<path display="inline" fill="#645952" d="M468,33.9c0.4-0.9,1.1-0.6,2-0.3c-0.4,3,1.2,7-0.4,9.5c-0.5-1.2-1.1,0.1-1.6,0l0.1,0   c0-0.5,0.1-1.1-0.6-1.4c0.2-0.3,0.4-0.5,0.6-0.8c0.4,0.1,0.8,0.3,1.4,0.5C469.1,38.8,470.4,35.7,468,33.9z" />
	<path display="inline" fill="#3C3B39" d="M424.8,33.2c0.2,0.5,0.4,0.9,0.6,1.4c-0.4,1.8-0.4,1.8,0.1,3.6c-1,0.5-0.3,1.5-0.7,2.2   c-0.7-2.3-1.3-4.7-1.9-7.1c0.4-0.2,0.7-0.4,1.1-0.7C424.3,32.8,424.5,33,424.8,33.2z" />
	<path display="inline" fill="#211D1B" d="M467.8,29.2c2.2-1.5-0.2-5.1,1.5-7.1c-0.3,2.7,1.1,6.2-0.7,8.3c-0.2,0-0.3,0-0.5,0   C468.1,30,468,29.6,467.8,29.2z" />
	<path display="inline" fill="#ABA8A5" d="M424.8,33.2c-0.3-0.2-0.5-0.4-0.8-0.6c0-0.7,0.7-1.6-0.5-2.1c-0.1-0.6-0.1-1.2,0.6-1.4   c0.3,0.3,0.6,0.5,0.8,0.8C424.8,31,425,32.1,424.8,33.2z" />
	<path display="inline" fill="#393232" d="M423.5,30.5c1.2,0.4,0.5,1.3,0.5,2.1c-0.4,0.2-0.7,0.4-1.1,0.7   C422.4,32.2,423.5,31.5,423.5,30.5z" />
	<path display="inline" fill="#2C3333" d="M407.4,81.4c0.4-0.2,0.8-0.3,1.2-0.5c0.3,1.2-0.4,1.5-1.2,1.9   C407.4,82.3,407.4,81.8,407.4,81.4z" />
	<path display="inline" fill="#88A1C4" d="M634.6,73.7c-0.1-0.6-0.1-1.3-0.2-1.9C635.5,72.6,635.6,72.6,634.6,73.7z" />
	<path display="inline" fill="#2C3333" d="M406.6,80.7c0.5-0.1,0.8,0.1,0.8,0.6C407.1,81.2,406.8,80.9,406.6,80.7z" />
	<path display="inline" fill="#322C2B" d="M468.2,30.5c0.2,0,0.3,0,0.5,0c-0.2,0.3-0.3,0.6-0.5,0.8c0,0-0.1-0.1-0.1-0.1   C468.1,30.9,468.2,30.7,468.2,30.5z" />
	<path display="inline" fill="#EBDDB8" d="M433.3,423.6c0.2,0.1,0.3,0.3,0.5,0.4C433.6,423.8,433.4,423.7,433.3,423.6z" />
	<path display="inline" fill="#FF9A77" d="M426.9,206c9.6-2.6,19.3,1.3,29-0.3c13.5-1.7,26.5-2.7,39,3.6c6.5,16.6,6.7,35.1,1.8,52.1   c-4.2,8.2-15.9,7.5-24,6.8c0.3-0.9,0.6-1.6,0.9-2.3c0.2,0,0.5,0,0.7,0c0.7,1.1,1.6,0.2,1.4-0.8c0.8-1.2,2.4-0.5,3.7-0.7   c0.3,0.6,0.6,1.2,0.8,1.8c2.1,0.9,3.7-1.7,5.9-1.9c1.1-1.7,3.2-2.1,4.8-3.3c-0.1-0.7-0.1-1.3-0.2-2.1c-12,0.7-33.5,5.3-37.5-10.5   c-0.4-1.9-0.6-4.5-2.9-4.9c-0.4,1.3-0.3,1.4,1,3c-4.2,12.6-14.9,14.5-26.1,9.5C405.4,247.6,423.3,220.3,426.9,206z M451.2,213.6   c0.2-1.5,0.4-2.9,0.6-4.2c-3.3-2.1-2,13.3-0.6,14.3C451.3,220.2,451.3,216.9,451.2,213.6z M450.5,233.9c1.3-1,0.8-2.2,0.7-3.3   C449.7,231.2,449.7,231.2,450.5,233.9z" />
	<path display="inline" fill="#FFF0A7" d="M445.7,145.3c-5.1,1.6-10.3,0.3-15.3-0.7c-0.4-0.4-0.8-0.8-1.3-1.2   c-0.6-5.3-2.7-10.2-4.8-15.1c0.6-0.3,1.1-0.5,1.7-0.8c0-0.9,0-1.8,0-2.8c-3.4-3.1-6.7-6-9-10.1c6.7-11.5,13.1-23.7,13.1-37.3   c1.6-1.7,1.6-1.7,3.6-2.3c-0.3,6.2,1.3,13.6,8.4,14.7c0.1,4,0,8.4,2.8,11.5c0-3.4,0-6.2,1.5-8.7c0.2,0,0.3,0,0.5,0   c-0.2,2.2-0.3,4.3-0.5,6.5c1-2.8,1.2-5.4,2.7-8c15.3-1.7,13.2-4,16.2-16.4c0.5,0.2,1.1,0.5,1.7,0.8c-0.1,15.2,5.5,35.5,22.4,39.5   c0.7,8.2-2.9,15.1-4.9,22.8c-9.5,3.7-19.7,5.3-29.7,6.4c-1.4-13.4-2.2-27.2-5.9-40.2c-3.8,12.9-1.2,27.1-0.6,40.4   C447.3,144.6,446.5,145,445.7,145.3z" />
	<path display="inline" fill="#F6D9C7" d="M440.8,199.1c0.4,1,0.8,2.1,1.4,3.4c-5.2-0.2-10.3,0.3-15.5-0.1c2.2-17.9,5.5-36.1,2.6-54   c6.2,0.1,11.9-0.9,18.2-0.8c5.2,12.7-0.2,27.8,4.5,40.3l0,0c0.8,2.1-0.8,3.7,0.5,5.6c6.4-13.4,4.3-30.7,3.7-45.3   c9.2-0.8,18.3-1.6,26.7-5.6c-6.5,32-1.1,34.6,10.5,62.8c-1.6-0.4-2.9-0.7-4.4-1c-6.2-6.3-18.3-1.6-26.4-2.7   c0.4-1.9,0.8-3.5,1.3-5.3c0.9-0.4,0.7-1,0.4-2c-1.5,2.7-3.1,5.1-3.3,8.2c-5.3,0.6-10.5,0.9-15.7,0.7c-2.1-1.9-2.7-5.4-5.3-5.8   C440.3,198,440.5,198.5,440.8,199.1z M439.4,194.8c-0.1-1.4-0.7-2.2-1.8-2.5C438,194.2,438,194.2,439.4,194.8z M470,188.9   c-1.7-0.1-1.7-0.1-1.9,1.7C468.8,190,469.4,189.5,470,188.9z M473.3,187c-1.1-0.6-1.4-0.1-1.8,1.2   C472.4,187.6,472.9,187.3,473.3,187z M465.6,193.2c0.9-0.2,1.3-0.7,0.7-1.6C465.5,192,464.9,192.4,465.6,193.2z M436.3,191.3   c0.4-1.1,0.4-1.1-0.9-1C435.7,190.7,436,191,436.3,191.3z M433,187.4c-0.2-0.2-0.3-0.1-0.5,0.1c0.2,0,0.3,0.1,0.5,0.1   C433,187.6,433,187.5,433,187.4z" />
	<path display="inline" fill="#EF8A6A" d="M426.9,206c-3.6,14.3-21.5,41.6-1.6,50.2c11.2,5,21.9,3.1,26.1-9.5c-1.2-1.6-1.3-1.8-1-3   c2.3,0.4,2.6,3.1,2.9,4.9c4,15.8,25.5,11.2,37.5,10.5c0.1,0.8,0.1,1.5,0.2,2.1c-1.6,1.2-3.7,1.6-4.8,3.3c-0.7-1.4-1.4-0.1-2.1,0   c-1.2,0-2.6-0.3-3.7,1.3c1,0,1.6,0.1,2.3,0.1c-0.6,1-1.5,0.6-2.4,0.4c-0.3-0.6-0.5-1.2-0.8-1.8c-1.3,0.2-2.9-0.6-3.7,0.7   c-8.9-0.7-16,0.3-22.7-7.6c-5.2,3.7-10.9,8.2-17.6,8.3c-0.6,0.1-0.9,0.5-0.5,1.3c1.4,0.1,2.8,0.4,4.1-0.5c3.4,0.1,6.3-1.4,9.5-2.7   c0.1,0.8,0.1,1.4,0.1,2.2c-12.2,4.6-31.1,10.4-39.8-2.9c-4.7-18.6-5.8-39.3,5.7-55.9C418.6,206.4,422.8,206.2,426.9,206z    M430.2,265.1c-1.4-0.6-2.5-1.4-3.8-0.9C428,265.5,428.8,266,430.2,265.1z" />
	<path display="inline" fill="#F6D9C7" d="M504.3,89c-1.6,17.8-0.3,69.9-16.7,78.1c0-17.1,6.7-33.6,8.9-50.5   c0.2-3.1,0.7-5.9,2.6-8.4c0.7-1,1.4-2.2,0.6-3.7c-0.3-0.1-0.8-0.2-1.2-0.3c0.1-0.7,0.1-1.4,0.2-2c0.8-0.5,0.8-1,0.3-2   c-0.9,1.6-1.2,2.9-2.5,4.1c-2.3-4.7,1-10.5-0.4-15.1c-0.6,0-1.3,0-2.2,0c0.8,0.5,1.4,0.8,1.7,1c-0.8,8,0.4,15.7-3.7,23   c-0.6,0.1-1.2,0.3-1.9,0.4c-14.1-6.1-21.6-22.1-20.9-37C481.2,78.7,500.1,73.7,504.3,89z M486.9,81.5c-1.2-0.1-2.2,0.3-3.8,1.4   c2.8-0.4,7,0.7,7.8-1.8C489.6,81.2,488.2,81.3,486.9,81.5z M501.2,95.5c-0.6,0.9-1.4,1.5-0.9,2.5C501.2,97.5,501.7,96.8,501.2,95.5   z M478.7,84.8c0.1-1.4-0.5-1.6-1.5-0.9C477.8,84.2,478.2,84.5,478.7,84.8z M475.4,84.4c-0.3-0.1-0.6-0.3-0.8,0   C474.9,84.7,475.1,84.8,475.4,84.4z" />
	<path display="inline" fill="#EBDDB8" d="M459.7,338.9c0.2-6.5-2-14.6,5.6-17.9c2.8,0.4,5.6,0.8,8.7,1.2c0.3-0.3,0.8-0.8,1.5-1.3   c1.4,0.1,3-0.3,4.5,0.6c-1.1,0-2.1-0.1-2.9,0.7c-0.6-0.1-1.2-0.8-2,0.2c6.4,8.5,9.5,21.2,5.7,31.2c4.1,6.8,7.9,13.9,10.9,21   c-1.6,7.9-3.1,18.2-10.6,21.9c-10.8-4-9.6-10.6-14.6-19.1c1-4.5-1.5-10.1-1.5-15c-0.6,1.3-0.2,2.7-1.1,3.8   c0.2-4.1-0.3-8.6,2.1-12.3c-0.7-3-8.4-10.9-5.2-12.5C460.3,340.6,460,339.8,459.7,338.9z M484.6,373.2c0.5-2.8-3.1-8.8-5.2-10.1   c0.5,7,0.9,13.8,3.3,21.1C484.6,380.5,483.7,377,484.6,373.2z M470.1,333.5c-1.1,5.3,2.5,10.1,0.8,15.2c4.6-1.2,3.4-12.7,0.5-15.9   c-0.5-4.2-0.5-4.2-2-5.6C468.6,329.2,469.9,331.4,470.1,333.5z M474,383.6c0.4,0.2,0.9,0.4,1.5,0.7c-0.4-6.6-2.5-13.1-5.3-19   C469.6,371.8,472.7,377.2,474,383.6z" />
	<path display="inline" fill="#F6D9C7" d="M477.1,322.3c6.5-3.5,10.9,4.9,12.5,3.7c-1.2-3.1-3.9-5-6.8-6.6c1-1.3,1.7-2.7,1-4.5   c-0.9,1.5-1.6,2.7-2.4,4.1c-3.3-0.2-6.7,0.6-9.9-0.6c1.3-15.4-5.3-31.6,1.4-46.1c7.6-1.9,15.6-0.5,22.7-4.7   c-2.5,23.9,3.8,50.9-10.6,72.1c-1-1.6-1.7-3.2-1.7-4.8C483.4,329.7,479.7,326.1,477.1,322.3z M484.3,311.7c1.1-0.9,1.5-1.6,0.7-2.7   C483.9,309.6,483.8,310.4,484.3,311.7z M485.6,304.9c-0.8,0.6-0.9,0.9-0.6,1.7C485.8,306.1,486.2,305.9,485.6,304.9z" />
	<path display="inline" fill="#EBDDB8" d="M448.1,351.5c9.3,11.9,2.3,27.3,6.2,40.5c2.5,9.8-2.1,19.4-6.5,27.9   c-0.1-0.4-0.2-0.8-0.3-1.2c-1.5,0.3-2.8,0.5-4.1,0.8c-1.7,2.8-3.4,2.7-6,4.7c-0.3-0.4-0.6-0.9-1.1-1.5c-0.5,0.2-0.9,0.5-1.3,0.6   c-10.4-30.9-7.6-14.2-0.6-40.1c-0.1-2.8-2.5-6.1-3.6-8.4c0.7-7.4-3-16.3,3.5-21.8c7.3-6.9,9,1.1,12.7-1.4   C447.4,351.5,447.7,351.5,448.1,351.5z M440.1,381.6c2.4,0.9,4.8,1.2,7.3-1c-3.4-1.7-6.4,1-10.1,0.3   C438.2,382,439,381.5,440.1,381.6z M438.9,377.3c0.3,0.7,0.5,1.5,0.8,2.3c6.2-3.6,2.4-17.1,0.8-22.6   C437.8,363.2,435.3,370.7,438.9,377.3z M436,401.1c-2.5,2.4-2.6,13.1,1.2,14.9c1.1-0.7,0.9-1.7,0.9-2.6c-0.4-6.5,1.5-12.7-0.8-19.1   C434.9,395.8,436.5,398.8,436,401.1z M443.6,397.9c-2.8,3.2-0.8,7.9-1.2,11.8c0.6,2.9-1.4,5.1-0.7,8c3.4,0.8,8-27,3.3-24.8   c-0.5,3.7,1.1,7.5-0.5,11.3C443.7,402.2,444.9,400,443.6,397.9z" />
	<path display="inline" fill="#F6D9C7" d="M423,273.5c9.1,1.1,17.7-0.7,26-4.4c-1.3,15.3-3.4,30.3,0.4,45.4c-2.8-0.3-5.8-0.7-9-1   c-1.3-1.6-0.4-4.7-2.1-6c0.4-1.1,1.3-4.3-0.7-3.7c-0.1,0.7-0.3,1.4-0.4,2.2c-0.6-0.3-1.1-0.6-1.6-0.8c-2.7,4.4-1.8,6-0.2,9.6   c-0.6-0.1-1.2-0.2-1.5,0.6c-1.6,0.7-3.2,1.5-4.7,2.2c-5.6-13.7-5.5-29.2-8.4-43.7C421.6,273.7,422.3,273.6,423,273.5z M438.7,296.9   c-1.6,1.9-1.5,2.1,0,2.4C438.7,298.6,438.7,298,438.7,296.9z" />
	<path display="inline" fill="#F6D9C7" d="M397.7,88.3c0.3-1,1.2-1.3,2.1-1.5c9.7-1.7,18.7-6.6,28.1-8.4   c-0.7,13.4-7.2,26.6-16.3,36.4C404.5,107.6,401.3,97.5,397.7,88.3z M406,92.4c-1.3-1.5-3-1.5-4.5-1.9c-0.2,0.4-0.4,0.7-0.5,1   C402.5,92.9,404.1,92.6,406,92.4z" />
	<path display="inline" fill="#E1C7B6" d="M440.2,147.6c-3.3,1.4-7.3,0.2-10.8,0.8c2.8,17.9-0.4,36.2-2.6,54   c0.4,0.1,0.8,0.2,1.1,0.3c-3.6,1.1-7.7,1-11.5,1.7c2.8-14.8,8.1-30.3,4.3-45.7c2-3.3,0.7-8.3,2.3-12   C428.6,147.4,434.4,147.5,440.2,147.6z" />
	<path display="inline" fill="#F6D9C7" d="M428.9,320.8c2-2.8,6.3-2,8.1-4.6c8.6-1.2,17.4,1.7,19.6,10.3c-0.3,0.2-0.8,0.5-1.2,0.8   c1.1-2.1-7.6-4.7-7.4-2.8c2.1,1.3,4.8,3.2,7.4,2.7c-3.9,3.1-3.6,7.7-4.4,12.2c-6.2-1.9-14.3-1.6-18.9-6.6   C430.5,329,425.7,324.7,428.9,320.8z M447.4,322.5c-0.7-1.7-1.2-1.9-2.2-1.3C445.8,321.6,446.3,321.9,447.4,322.5z" />
	<path display="inline" fill="#E1C7B6" d="M472.9,272.3c-6.7,14.5-0.1,30.7-1.4,46.1c0.6,0.2,1.1,0.4,1.6,0.6   c-2.3,1.2-5.2,0.3-7.6-0.2c-0.1-17.1-5.9-33.4-9.2-49.8C461.5,272,467,272.9,472.9,272.3z" />
	<path display="inline" fill="#EBDA8F" d="M417.1,114.7c2.3,4.1,5.6,7.1,9,10.1c0,1,0,1.9,0,2.8c-0.6,0.3-1.1,0.5-1.7,0.8   c2.1,4.9,4.2,9.8,4.8,15.1c0.4,0.4,0.9,0.8,1.3,1.2c-5.8-0.7-11.7-1.7-17.5-2.6c-1.5-6.5-3-13-2.8-19.8   C412.5,119.8,414.3,116.7,417.1,114.7z" />
	<path display="inline" fill="#D7C0A0" d="M455.6,29.5c1,4.3,0.8,9,1.3,13.5c-1.9,3.2-0.3,8.3-0.9,12.1c-1.6-7.7-0.7-14.7-2.3-22.6   c-1.5,8.3,0.9,16.7,0.3,25.2c-3,0.3,0.1,5.5-2,7.1c-0.1-1.5,0.4-3.2-0.9-4.3c0.2-8,2.2-15.3,1.5-23.7c-0.6-0.8-1.2-1.6-2-2.7   c0,5.5,0,10.5,0,15.4c0.5,0.5,0.9,0.9,1.3,1.3c-0.9,0.2-1.3,0.9-1.4,1.7c-0.6,8.2-2,15.3-4.7,23.5c-0.4-7.3,0.6-13.8-0.6-21   c0.2-10.2-9.1-30.2,3.8-34.9c0.1,4.3,0.1,8.8,1.7,12.9c0.2,0,0.3,0,0.5-0.1c-0.3-1.2,0.6-2.9-0.5-3.8c-0.2-2.1-0.2-4.2-0.2-6.4l0,0   c2.1-0.1-0.3,2.6,1.4,3.5c0,0.7,0.1,1.3,0.1,2c0.3,0.2,0.5,0.5,0.8,0.7c0.2-0.2,0.3-0.5,0.5-0.7c0,0,0,0,0,0c1.3,1.2,1.2,3,2,5.3   C455.4,31.7,455.5,30.6,455.6,29.5z M447.1,26.3c0.1-1.1,0.9-2.3,0.3-3.4c-0.4,0-0.8,0.1-1.2,0.1c-1.5,2.1-1.3,4.9-0.9,7.2   c0.6,0.2,1.1,0.4,1.8,0.7C447.1,29.2,447.1,27.7,447.1,26.3z" />
	<path display="inline" fill="#E1C7B6" d="M423,273.5c-0.7,0.1-1.3,0.2-2.2,0.4c2.9,14.5,2.8,30.1,8.4,43.7c-2.1,2-3.2,3.3-4.9,6   c-3.4-17.3-10.3-35.4-13.6-53.7c0.5-0.6,0.9-0.2,1.2,0.1C415.2,272,419.3,272.1,423,273.5z" />
	<path display="inline" fill="#D6BFA0" d="M428.4,32.6c-0.1-0.6-0.2-1.2-0.4-1.8c1.3-0.7,2.7-1.2,4.2-1.1c0-0.1,0-0.3,0-0.4   c-1.5,0.1-2.8-0.1-4.4-0.3c-0.8-1.8-0.4-3.6,0.4-5.4c0.8-0.1,1.6-0.1,2.5-0.2c-0.5-1.6-1.7-1-2.8-1.3c0.2-1.6,0.2-1.6,2.3-1.6   c-0.7-0.7-1.2-1.3-1.8-2c3.1-11.5,2.8-3.1,7.2-3.6c-2-1.2-2.7-2.6-3.7-4.6c0.9-2.1,3.2-3.1,4.7-4.7c1.2,0.7,0.4,2.1,1.1,3   c0.7,1,1.3,2.1,1.9,3.1c-1.1,0.4-0.8,1.4-0.9,2.2c-1.1-0.4-0.3-2.3-2.1-2.4c0.7,3.7,2.7,7.5,6.2,9.1c0,0.4-0.1,0.6-0.1,0.9   c-0.3,0.3-0.7,0.6-1.1,1c-4.3-1.9-6.6-6.1-11.4-7c2.8,2.8,5.4,4.5,8,7.4c-0.9,1.5-2,0.8-4,1c2.4,1.6,4.7,1.5,6.6,2.8   c0,0.4-0.1,0.9-0.1,1.5c-2.2,1.1-5.6,0.8-7.1,2.7c0.1,0.2,0.2,0.4,0.3,0.7c1.5-1.5,3.5-0.3,5.1-1.5c0.4,0,0.9,0,1.3,0   c2.4,4.6-4,6-5.1,9.7c1-0.5,1.9-1,2.9-1.5c0.2,0.1,0.5,0.4,0.5,0.4c-1,2.2-1,4.4-0.8,6.7c1.1-0.4,1.5-0.9,2.5-0.8   c0.8,2.3-2.8,6.7,1.5,6.2c0.2,0.9,0.3,1.9,0.5,2.8c-0.2,0-0.4,0-0.6,0c0-0.4-0.1-1-0.4-1.2c-2.3-0.1-3.7-1.7-5.7-2.8   c-0.1,1.1-0.1,1.9-0.2,2.7C433.7,45.2,430.5,39.3,428.4,32.6z M434.8,35.4c-1.2,0.6-1.3,1.5-0.7,2.6   C435.2,37.4,435.3,36.6,434.8,35.4z M436.5,48.3c0.4-1-0.1-1.4-1-1.7C435.1,47.6,435.6,48.1,436.5,48.3z" />
	<path display="inline" fill="#7B89B0" d="M265.3,77.8c0-0.6,0.1-1.1,0.1-1.7c47.5-1.9,96.5,1.8,143.3-1.8c-0.3,1.3-0.5,2.2-0.7,3.3   C360.5,78.1,312.9,77.8,265.3,77.8z" />
	<path display="inline" fill="#7A87AD" d="M493.2,75.7c45.5,0,91.1,0,136.6,0c1.8,0.1,4.7-0.6,4.8,2C587.8,75.9,539,81.3,493.2,75.7   z" />
	<path display="inline" fill="#E0C6B5" d="M400.5,122.4c7.2,14.5,13.4,30,18.5,45c-17.9-5.7-16.4-29-19.3-44.3   C399.9,122.9,400.2,122.7,400.5,122.4z" />
	<path display="inline" fill="#E1C7B6" d="M397.7,88.3c3.6,9.2,6.9,19.3,13.9,26.5c-2.2,3.3-4.2,6.4-6.5,9.6   C400.3,113.5,390.8,100.1,397.7,88.3z" />
	<path display="inline" fill="#E0C6B5" d="M428.9,320.8c-3.2,4,1.5,8.2,3.3,11.9c4.6,5.1,12.6,4.8,18.9,6.6c0.1-0.6,0.2-1.2,0.3-1.9   c1.3,2.6,2.2,5.3,2.1,8.4c-0.8-0.1-1.4-0.2-2.2-0.3c-0.4,0.4-0.8,0.9-1.2,1.4C439.2,346.1,414.7,332.2,428.9,320.8z" />
	<path display="inline" fill="#E0C6B5" d="M452.1,190.8c0.6-1-0.2-2,0-3c1-0.5,1.1-1.1,0-2.4c0,1.2,0,1.8,0,2.4c-3-7.6-2-17-2-25.2   c1.5,3.8,0.7,7.9,1.7,11.9c1.8-3.4,0.9-13.3-1.1-16.6c0.3-3.3,0.7-6.5,1-10.1c1.5-0.2,3.1,0.1,4.6,0.3c0.8,13.6,2.2,30.6-2.6,43.2   C453.3,190.6,452.7,190.6,452.1,190.8z M452.4,176.3c-1.1,2-0.6,3.4,0,5.3C452.9,179.7,453.2,178.3,452.4,176.3z" />
	<path display="inline" fill="#EBDA8F" d="M445.7,145.3c0.8-0.3,1.6-0.7,2.6-1.1c-0.6-13.3-3.2-27.5,0.6-40.4   c3.7,13,4.5,26.8,5.9,40.2C451.9,145,448.8,145.5,445.7,145.3z" />
	<path display="inline" fill="#DFC6B5" d="M498.5,104.3c0.4,0.1,0.9,0.2,1.2,0.3c0.8,1.5,0.2,2.7-0.6,3.7c-1.9,2.5-2.4,5.3-2.6,8.4   c-2.2,16.9-9,33.4-8.9,50.5c-1.1,1.4-2.5,1.6-4.1,1.2c-1.2-11,5-21.5,6.7-32.3c0.6-11.2,3.5-21.5,7.9-31.6   C498.2,104.3,498.3,104.3,498.5,104.3z" />
	<path display="inline" fill="#E8DAB6" d="M461.8,366.1c-2.4-4.4-4.9-9-5.3-14.1c0.4-0.5,0.8-0.9,1.2-1.4c-3-3.2-1.4-7.5-3.1-11.1   c-1.2-2.2,0-10.1,2.9-10.5c0,3.7-0.4,7.4,1.5,10.7c-0.3,0.8-0.5,1.7-0.9,2.8c1.8,3.5,3.7,7.2,5.5,10.7c-1.1,3.8-1.4,7.6-1.2,11.5   C462.5,365.3,462.6,365.9,461.8,366.1z" />
	<path display="inline" fill="#E0C6B5" d="M435.2,52.3c0.1-0.8,0.1-1.6,0.2-2.7c2.2,1.8,4.9,2.4,6.1,3.3c-1.8,10,1.5,22.1-2.7,31.9   c-3.6-3-2.8-8.1-3.5-12.2C440.3,67,436.9,58.6,435.2,52.3z" />
	<path display="inline" fill="#E6D9B5" d="M456.3,391.1c-3-14,2.3-30-6.6-42.4c1.5,0.1,2.8-0.3,4.2,0.4   C456.8,365.7,464.1,373,456.3,391.1z" />
	<path display="inline" fill="#F3D7C5" d="M450.7,88.5c0.4-2.7,2.5-7.8,8.6-20.2c1.8,1.3,1.1,4.3,3.7,4.8c-1,4,1,10.1-3.2,12   C456.4,85.4,453.9,89.4,450.7,88.5z" />
	<path display="inline" fill="#F0D3C2" d="M438.8,84.7c4.2-9.7,0.9-21.9,2.7-31.9c0,0.2,0,0.4,0,0.6c0.2,0.2,0.4,0.5,0.6,0.7   c1,11,2.6,22.2,0.5,33.1c-0.4,0.2-0.8,0.3-1.3,0.6C440.3,87,439.5,85.9,438.8,84.7z" />
	<path display="inline" fill="#D5BF9F" d="M442.8,6.1c0.2-1-0.2-2.3,1.3-2.6c-0.2,2.3,0,4.5,1.4,7.2c0.8-2.8-0.7-5.8,0.9-7.2   c0,1.2-0.3,2.5,0.7,3.4c0,1.8,0,4.4,0,6.1c0.6-0.4,1.2-0.8,1.9-1.2c0.1,0,0.3,0,0.4,0c-0.4,2-0.7,4-1.1,6.1c-1.3,0.6-2.7,1.3-4.1,2   c-1.3-1.3-2.7-2.7-4-4c1.2-1.5,0.7-3.8,0.2-5.6c0.3-0.1,0.6-0.2,1-0.3c0.1-1.3,0.1-2.7,0.2-4c0.2,0.1,0.3,0.2,0.5,0.2l0,0   c0,1.1-0.3,2.4,0.6,3.4C443.7,8.7,442.8,7.2,442.8,6.1z" />
	<path display="inline" fill="#EFDBBB" d="M462.4,10.2c1.7,2.1,3.7,3.6,4.1,6.6c-1.2,1.3-2.4,2.8-3.9,4.5c1.4-0.2,1.3-0.2,3.1-0.6   c-1.7,1.7-2.8,1.3-3.9,3c-0.2,1.7-2.5,2-4,2.2c-0.3-0.6-0.7-1.1-1.1-1.8c2.2-3.1,7.2-5.2,8.3-8.3c-1.9,1.2-2.8,2.3-4.6,3   c-0.7-0.5-1.4-0.9-2.1-1.4C459.7,14.9,462,13.1,462.4,10.2z" />
	<path display="inline" fill="#F1D5C4" d="M422.8,146.7c-1.5,3.7-0.2,8.7-2.3,12c-2-4.5-4.4-8.6-6.6-13c2.3-1,4.4,0,6.7,0.4   C421.2,147.1,422.1,146.8,422.8,146.7z" />
	<path display="inline" fill="#E98667" d="M473.6,266c-0.3,0.7-0.5,1.4-0.9,2.3c3.8,0.7,7.3,0.1,10.7,0.4   c-9.1,2.1-19.1,0.5-27.7-3.2c0-0.5,0-0.9,0-1.3c0.8-0.8,1.5,1,2.3-0.1C463.1,265.9,468.2,266.1,473.6,266z" />
	<path display="inline" fill="#E7D892" d="M410.1,122.2c-0.2,6.8,1.3,13.2,2.8,19.8c-0.2,0-0.5,0-0.7,0c-1.2-1.8-5.9-12.7-6.8-16.1   C406.6,124.3,408.4,123.2,410.1,122.2z" />
	<path display="inline" fill="#14110F" d="M461.8,366.1c0.8-0.2,0.7-0.8,0.6-1.4c-0.3-3.9,0-7.7,1.2-11.5c-1.8-3.5-3.7-7.2-5.5-10.7   c0.6-1.5,0.6-2.6,1.6-3.6c0,5.5,3.6,9.8,6.3,15c-3.2,5.2-1.8,11.4-2.2,17.2c-0.2-0.2-0.6-0.5-0.6-0.7   C463.5,368.7,462.5,367.4,461.8,366.1z" />
	<path display="inline" fill="#CDB899" d="M452.1,67.4c-1,6.7-3.3,13.1-5.7,19.5c-0.4,0-0.9,0-1.3-0.1c1.1-8.9,5.3-17.3,5.6-26.3   c0.2-0.1,0.3-0.1,0.5-0.2l0.2,0.1c0.1,2.3-0.6,4.7,0.4,6.8L452.1,67.4z" />
	<path display="inline" fill="#F4EBCC" d="M437.4,424c2.6-2,4.3-1.8,6-4.7c1.3-0.2,2.6-0.5,4.1-0.8   C448.5,423.8,441.4,430.6,437.4,424z" />
	<path display="inline" fill="#D9C3B2" d="M482,75c-4.2,0.3-8.3-0.6-12.5-1.5c2.7-1.7,2.7-1.7,1.3-5.3c3.6-2.5,1.7,6.2,5.6,5   c-0.6-1.7-1.3-3.2-1.4-5c0.7-0.3,1.3-0.6,1.9-0.8c2.3,1.7,2.1,4.5,3.3,6.7c0.6,0,1.2,0,1.7,0C481.9,74.4,481.9,74.7,482,75z" />
	<path display="inline" fill="#D0BC9E" d="M461.8,23.6c0.3-1,1.3-1,1.9-1.5c0.6,1.6,2.4-0.4,3.4-0.8c1.1,2.1,0.9,4.2,0.8,6.2   c-0.2,0.1-0.4,0.1-0.7,0.1c-0.2-1,0.6-2.5-0.5-3.1c-1.2,1.5-2.4,3-3.6,4.5c0,0.2,0,0.5,0,0.7c-0.2,0.2-0.4,0.4-0.5,0.7   c-1.2-0.6-2.3,0-3.5,0.5c0,0.5,0,1.1,0,1.6l-0.2,0.2c-0.4-1.5-0.9-3-1.3-4.6c1.3-2,4.1-1.6,5.6-3.7C462.6,24,462.2,23.8,461.8,23.6   z" />
	<path display="inline" fill="#E5D0B2" d="M456.1,55.1c0.6-3.8-1-8.9,0.9-12.1c2.2,8.7,1.3,17.8-0.9,26.4c-0.9-0.5-0.3-1.5-0.7-2.2   C455.6,63.2,455.8,59.1,456.1,55.1z" />
	<path display="inline" fill="#D9BFAE" d="M435.4,314.8c-1.6-3.6-2.5-5.1,0.2-9.6c0.5,0.3,1,0.5,1.6,0.8c0.2-0.8,0.3-1.6,0.4-2.2   c0.7-0.3,1-0.1,1.2,0.4c-1,0.9-1,1,0,2c-0.1,0.3-0.2,0.6-0.4,1.3c0.6,0.8,1.6,1.7,1.1,3c-1.4,0.6-0.7,2-0.9,3.4   C437.5,314.2,436.5,314.5,435.4,314.8z" />
	<path display="inline" fill="#181512" d="M450.1,64.7c-0.7,5.9-2.1,11.7-4.3,17.3c0-0.5-0.1-1.1-0.1-1.9c-0.7,0.5-1.3,0.8-1.9,1.2   c0-2.1,0-4.2,0-6.3c1.1,1,0.1,2.1,1.3,3.2c0.2-2.4-0.5-4.7,0.7-6.7c0.1,1.2,0.1,2.5,0.2,4.3c1.5-4.5,2.5-8.6,3.4-12.6   C449.6,63.8,449.8,64.2,450.1,64.7z" />
	<path display="inline" fill="#DAC2B2" d="M422.9,77c-0.2-2.3-0.4-4.1-0.7-6.1c0.7-1.2,1.5-2.6,2.3-3.9c1.3-0.2,2.3,0.3,3.4,1.1   c-1.8,2.3-2.3,4.8-2,7.7C425,76.1,424.1,76.5,422.9,77z" />
	<path display="inline" fill="#E9CFBE" d="M482,75c-0.4-2.3-1.1-4.5-1.7-7c4-4.7,6.6,3.5,3.6,5.7C483.4,74.5,483,75.1,482,75z" />
	<path display="inline" fill="#D8C2B2" d="M417,75.2c-1.1,2-2.1,3.5-4.8,3.1c0.6,0.8,1.1,1.4,1.6,2.2c-1,0.5-2,1-3.1,1.5   c-0.8-3.8-0.7-5,0-7.5C412.9,75.1,414.6,75.3,417,75.2z" />
	<path display="inline" fill="#DBC6A8" d="M453.4,18.6c-0.4,0-0.8,0-1.2-0.1c0.6-1.4,2.3-3.3,0.6-4.6c0.9-1.8,0.8-4.4,2.5-5.5   c0.3,0.4,0.6,0.7,0.8,1c-0.3,0.9-0.5,1.7-0.7,2.4c-0.2,0.8-1.5,1.2-1.1,2.3c1.1-0.6,2-1.1,2.9-1.6c0.7,0.5,1.2,0.9,1.6,1.2   c0.2,1.2-1.4,1.9-2,2.8c0,0,0,0,0,0c0.2-0.8,0.4-1.6,0.6-2.5c-0.1-0.1-0.2-0.1-0.4-0.2C455.9,15.5,454.6,17,453.4,18.6z" />
	<path display="inline" fill="#E0C7B6" d="M419.2,75.7c0-0.5,0-0.9,0-1.5c-0.8-0.5-1.7-1.1-2.5-1.6c0.1-2.1,0.7-3.8,2.1-5.5   c0.8,0.3,1.5,0.6,2.1,0.8c0.1,2.5,0.2,5.5-1,7.7C419.7,75.7,419.4,75.7,419.2,75.7z" />
	<path display="inline" fill="#EDE4C6" d="M463.8,371.1c-0.1-3.1,0.4-5.8,1.2-8.6c0,4.9,2.5,10.5,1.5,15c0,0,0,0,0,0   C465.4,375.5,464.8,373.2,463.8,371.1z" />
	<path display="inline" fill="#27221F" d="M450.6,157.9c2.6,3.5,1.3,8.4,2,12.5c-0.4,0.2-0.8,0.5-1.2,0.7c-0.3-4.5-1.6-8.7-1.4-13.2   C450.2,157.9,450.4,157.9,450.6,157.9z" />
	<path display="inline" fill="#D8C7AA" d="M455.6,29.5c-0.1,1.1-0.2,2.2-0.3,4.1c-0.8-2.3-0.6-4.1-2-5.3c-0.4-2.5-0.8-4.2-0.7-6.9   C455.9,23.5,455.9,26.2,455.6,29.5z" />
	<path display="inline" fill="#ECD5BA" d="M468,40.9c-0.5,0.8-1.1,1.1-1.9,1.6c0.6,0.6,0.9,0.9,1.2,1.2c0,0,0-0.1,0-0.1   c-0.7,4-6.1-0.1-3.4-2.9c1.8,0.9,2.5-0.8,3.5-1.9c0.5,0.2,0.9,0.4,1.4,0.7C468.5,40,468.3,40.5,468,40.9z" />
	<path display="inline" fill="#3F3934" d="M428.4,32.6c0.8,4.5,3.6,7.3,4.2,11.8c-0.9-0.6-1-1.3-1.1-2.4c-0.3,0.2-0.4,0.4-0.6,0.5   c-1.7-1.8-1.9-4.4-3.5-6.2c-0.5,0.2-0.8,0.3-1.1,0.4c0-0.7,0-1.3,0-2c0.6-0.6,0.8-1.3,1.1-2.1C427.8,32.6,428.1,32.6,428.4,32.6z" />
	<path display="inline" fill="#E0C4B3" d="M494.6,107.2c0.5-5.8,0.7-11.2,1.1-17.1c-0.3-0.2-0.9-0.5-1.7-1c0.9,0,1.5,0,2.2,0   c1.4,4.6-1.9,10.5,0.4,15.1C496.3,105.5,495.7,106.6,494.6,107.2z" />
	<path display="inline" fill="#BEAD91" d="M440.1,44.4c-0.2,0-0.4,0-0.7,0c-0.3-1.1-1.3-0.9-2-1.2c0.2-1.6,0.1-3.2,1-4.7   c0,0-0.3-0.3-0.5-0.4c0-0.2,0.1-0.4,0.1-0.6c0.8-0.7,1.5-1.3,2.3-2c1.6,1.8-1.6,3.6-1.6,6.1c0.8-0.6,1.3-0.9,2-1.4   c0.4,1.3,0.4,2.4,0.2,3.5C440.7,43.9,440.4,44.2,440.1,44.4z" />
	<path display="inline" fill="#CFB89A" d="M458.3,17.3c0.7,0.4,1.4,0.9,2.1,1.4c0,0.2,0,0.4-0.1,0.6c-1.8,1.3-4,3.5-5.5,0.8   c0-1.6,1.3-2.4,2.2-3.5l0,0c0,0.4,0.1,0.8,0.1,1.3C457.5,17.6,457.9,17.4,458.3,17.3z" />
	<path display="inline" fill="#F8E0BF" d="M459.7,36c-0.4-2.7,3.9-1.3,4.9-2.8c1.9-0.3,1.3,1.8,1.4,2.8c-1.4-0.3-2-1.5-2.1,0.8   c-0.2-0.1-0.5-0.2-0.7-0.2c-0.5-0.8-1.1-0.8-2.1-0.2c0.6,0.4,1,0.6,1.5,0.9c0,0,0,0,0,0c-0.4,0.8-1,0.9-1.7,0.6   C460.5,37.3,460.1,36.7,459.7,36z" />
	<path display="inline" fill="#DBC6A8" d="M452.1,3.2c0.2,0,0.5,0,0.7,0.1c0.1,4.3-2,9.2-0.9,13.2c0,0.8-0.3,1.4-1.2,1.4   c0-2.3,0-4.6-0.1-6.9c1.1-1.5,0.6-3.3,0.7-5C451.8,5.2,452.2,4.3,452.1,3.2L452.1,3.2z" />
	<path display="inline" fill="#423A30" d="M454,46.6c-0.8-4.5-1.1-9.6-0.2-14.2C455,37.7,454.9,41.8,454,46.6z" />
	<path display="inline" fill="#D7BEAE" d="M431.2,68.7c-1,2.1-0.1,6.8-3.3,6.1C428,72.6,427.9,68.4,431.2,68.7z" />
	<path display="inline" fill="#ECD5BA" d="M459.7,36c0.4,0.6,0.8,1.3,1.2,1.9c0.7,0.2,1.3,0.1,1.7-0.6c0.9,0.5,1.8,1,2.7,1.5   c0,0.2,0,0.4,0,0.7c-0.7,0.3-2.1-0.6-2.1,0.6c-0.4,0.5-0.9,0.9-1.3,1.4c-0.5-0.5-1-0.9-1.5-1.4C460.1,38.8,459.9,37.4,459.7,36z" />
	<path display="inline" fill="#1E1814" d="M440.2,15.8c1.3,1.3,2.7,2.7,4,4c-0.1,0.9-0.6,1.4-1.5,1.5c0-0.2,0.1-0.5,0.1-0.9   c-2.3-1.1-4-2.8-4.8-5.3c0.3-0.3,0.5-0.5,0.8-0.8C439.3,14.9,439.8,15.3,440.2,15.8z" />
	<path display="inline" fill="#C9AF9E" d="M461.8,41.6c0.4-0.5,0.9-0.9,1.3-1.4c0.2,0.2,0.5,0.4,0.7,0.6c-1,1.7-1,3.1,0.7,4.4   c-0.3,0-0.7,0.1-1,0.1c-1.1,1.2-0.8,2.8-1.4,4.8c-0.5-2.5-0.9-4.3-1.1-6.3c0.7-1.2,0.8,0.7,1.3,0.3C463,43,462,42.4,461.8,41.6z" />
	<path display="inline" fill="#73513F" d="M473.6,266c-3.4-0.4-7.5,0.7-10.5-0.7c1,0,1.9-0.1,2.8-0.7c3.3,0.2,6.5,0.4,9.8,0.7   c0,0.2,0,0.4,0,0.6C475,266,474.3,266,473.6,266z" />
	<path display="inline" fill="#807261" d="M452.8,58.5c-0.1-1,0.7-0.7,1.3-0.9c0.4,3.6-0.1,7.1-1,10.6c-0.4-0.3-0.8-0.8-1.3-0.9   c0.1-0.9,0.2-1.8,0.3-2.6C453.6,62.9,453.5,61,452.8,58.5z" />
	<path display="inline" fill="#C6AFA0" d="M429.6,40.4c0.5,0.7,0.9,1.3,1.4,2c-0.1,0.6-0.1,1.3-0.2,2.3c-1.6-1.1-3.5-1.1-4-3   c0.2-0.2,0.5-0.4,0.7-0.6C428.1,42,428.8,40.6,429.6,40.4z" />
	<path display="inline" fill="#CEB6A7" d="M466.6,68.9c1,0,1.8,0,2.6,0c0.2,0.6,0.5,1.2,0.8,2C468,71.8,466.8,72,466.6,68.9z" />
	<path display="inline" fill="#524539" d="M456.9,16.6c-0.9,1.1-2.1,1.9-2.2,3.5c-0.5-0.5-0.9-1-1.4-1.5c1.3-1.6,2.5-3.1,3.8-4.7   c0.1,0.1,0.2,0.1,0.4,0.2C457.3,14.9,457.1,15.7,456.9,16.6z" />
	<path display="inline" fill="#3B322E" d="M463.3,198.5c-0.2,1-0.5,2-0.7,3.1c0.4,0.1,0.9,0.2,1.3,0.3c-0.8,1-1.9,0.6-2.9,0.5   c0.1-1.7,0.6-3.3,1.5-4.8C462.7,197.9,463,198.2,463.3,198.5z" />
	<path display="inline" fill="#292822" d="M449.3,26.3c-0.1-2.1-0.1-4.1-0.2-6.2c0.7,0.1,1.4,0.3,2.2,0.4c0,0.5,0,1,0,1.6   c-0.5-0.1-0.8,0.2-0.8,0.7c0,0,0,0,0,0C450.2,24,450.3,25.4,449.3,26.3z" />
	<path display="inline" fill="#A99882" d="M455.4,67.2c0.4,0.7-0.2,1.7,0.7,2.2c0,1.6-0.6,2.9-1.3,4.3c-0.3,0-0.6,0-0.8,0   C454.4,71.5,454.9,69.4,455.4,67.2z" />
	<path display="inline" fill="#A49A81" d="M440.1,44.4c0.3-0.2,0.5-0.5,0.8-0.7c0.2,2.3,0.5,4.6,0.7,6.9c-0.6,0-1.1-0.1-1.7-0.1   c0.6-1.1,1.2-3.1,0.2-3.9C440.2,45.9,440.2,45.1,440.1,44.4z" />
	<path display="inline" fill="#363726" d="M448.4,92.4c-0.5,2.2-1.2,4.3-1.9,6.6c0.2-2.2,0.3-4.4,0.5-6.5   C447.5,92.5,448,92.4,448.4,92.4z" />
	<path display="inline" fill="#BEA899" d="M426.4,34.7c-0.1,1.1-0.1,2.2,0.3,3.3c-0.4,0.2-0.7,0.5-1.1,0.7c-1-2-0.6-3.3-0.1-5.3   c0.2-0.1,0.4-0.2,0.5-0.3C426.2,33.6,426.2,34.2,426.4,34.7z" />
	<path display="inline" fill="#988672" d="M451.2,6.9c0.2,1.8,0.1,4.6-2.2,4.8c0.6-1.4,1.1-2.7,0.9-4.2   C450.4,7.3,450.8,7.1,451.2,6.9z" />
	<path display="inline" fill="#2E2620" d="M438.9,29.9c-1.6,1.2-3.6,0-5.1,1.5c-0.1-0.2-0.2-0.4-0.3-0.7c0.5-1.3,2-1.1,3.2-1.5   C437.2,30.1,438.2,29.6,438.9,29.9z" />
	<path display="inline" fill="#5A5044" d="M450.6,17.9c1.7-0.3,1.3-2.8,2.1-4c1.6,1.3,0,3.2-0.6,4.6   C451.5,18.7,450.9,18.7,450.6,17.9z" />
	<path display="inline" fill="#474238" d="M461.8,41.6c0.2,0.8,1.2,1.4,0.5,2.4c-0.6,0.4-0.6-1.5-1.3-0.3c-1-1-0.6-2.3-0.6-3.5   C460.9,40.7,461.3,41.1,461.8,41.6z" />
	<path display="inline" fill="#3D3930" d="M452.7,24.2c0.2,1.4,0.4,2.8,0.7,4.1c0,0,0,0,0,0c-0.4,0-0.9,0-1.3,0   c-0.1-1.4-0.1-2.7,0-4.1C452.2,24.2,452.5,24.2,452.7,24.2z" />
	<path display="inline" fill="#EACABA" d="M448.1,351.5c-0.4,0-0.7,0-1.1,0.1c-0.7-1.1-1.4-2.2-2.3-3.4c0.9,0.2,1.6,0.3,2.4,0.4   C447.5,349.6,447.8,350.5,448.1,351.5z" />
	<path display="inline" fill="#524B45" d="M487.5,323c1,0.8,1.7,1.8,2.1,2.9c-1.3,1.2-2.1-1.4-2.9-2.1   C487,323.6,487.3,323.3,487.5,323z" />
	<path display="inline" fill="#6C5B4C" d="M433.2,17.9c-1.1-0.5-2-1.2-3-2.6c1.9,0,2.7,1.1,3.8,1.8   C433.7,17.4,433.5,17.6,433.2,17.9z" />
	<path display="inline" fill="#302720" d="M440.4,35.5c-0.8,0.7-1.5,1.3-2.3,2c-0.2-0.3-0.5-0.5-0.7-0.8c0.7-0.7,1.4-1.4,2.1-2.1   C439.7,34.9,440,35.2,440.4,35.5z" />
	<path display="inline" fill="#221613" d="M457.4,21.3c1-0.7,1.9-1.4,2.9-2.1c0.3,0.2,0.5,0.5,0.8,0.7c-0.9,0.7-1.8,1.5-2.7,2.2   C458,21.9,457.7,21.6,457.4,21.3z" />
	<path display="inline" fill="#2D1C16" d="M438.9,266.7c-1.3,0.9-2.7,0.7-4.1,0.5c-0.8-1.5,0.9-1.4,1.9-1.3   C437.2,267,438.2,266.4,438.9,266.7z" />
	<path display="inline" fill="#959179" d="M436.6,23.7c0.6-0.2,1.4-0.1,1.6-1c0.8,0.3,1.6,0.7,3.2,1.3   C439.1,24.4,437.8,24.5,436.6,23.7z" />
	<path display="inline" fill="#A18D78" d="M461.8,23.6c0.4,0.2,0.7,0.5,1.3,0.8c-0.8,1.1-1.8,1.4-2.9,1.8c-0.2-0.2-0.4-0.5-0.6-0.7   C460.4,24.8,461.9,24.9,461.8,23.6z" />
	<path display="inline" fill="#655750" d="M425.7,38.7c0.4-0.2,0.7-0.5,1.1-0.7c0.1,0.1,0.2,0.2,0.3,0.3c-0.3,1,0,1.8,0.6,2.6   c-0.3,0.3-0.6,0.5-0.9,0.8C426.4,40.7,426.1,39.7,425.7,38.7z" />
	<path display="inline" fill="#9F8479" d="M491.2,75.3c-0.8,1.5-1.3,1.5-2.7,0C489.5,75.3,490.3,75.3,491.2,75.3z" />
	<path display="inline" fill="#828D8D" d="M400.5,122.4c-0.3,0.2-0.5,0.5-0.8,0.7c-0.7-0.7-0.7-1.6-0.7-2.8   C400.1,120.9,400.4,121.5,400.5,122.4z" />
	<path display="inline" fill="#87756B" d="M419.2,75.7c0.2,0,0.5,0,0.7,0c0.1,1.1-0.1,1.9-1.5,2.1C418.3,76.9,418.4,76.2,419.2,75.7   z" />
	<path display="inline" fill="#6A5648" d="M445.1,86.8c0.4,0,0.9,0,1.3,0.1c0.1,0.9-0.2,1.5-1.2,1.9   C445.2,88.1,445.1,87.5,445.1,86.8z" />
	<path display="inline" fill="#696848" d="M447.8,92.5c-0.5,0-0.9,0-1.3,0.1c-0.2-0.9,0.2-1.5,1.2-2.1   C447.7,91.2,447.8,91.8,447.8,92.5z" />
	<path display="inline" fill="#B2B4A5" d="M434.1,71c-0.9-0.1-1.4-0.2-2.4-0.3c0.8-0.6,1.3-0.9,1.9-1.3   C433.7,69.9,433.8,70.2,434.1,71z" />
	<path display="inline" fill="#8E7865" d="M456.3,391.1c0.4-0.4,0.8-0.9,1.1-1.3C457.8,390.8,456.8,393,456.3,391.1z" />
	<path display="inline" fill="#61524D" d="M498.5,104.3c-0.2,0-0.3,0-0.5,0.1c-0.3-0.3-0.5-0.5-0.8-0.8c0.2-0.4,0.5-0.9,0.7-1.3   c0.2,0,0.5,0,0.7,0C498.6,102.9,498.6,103.6,498.5,104.3z" />
	<path display="inline" fill="#69534C" d="M440.8,199.1c-0.3-0.6-0.5-1.1-0.8-1.8c1.1-0.3,1.4,0.3,1.6,1   C441.3,198.6,441.1,198.8,440.8,199.1z" />
	<path display="inline" fill="#706354" d="M454,73.7c0.3,0,0.6,0,0.8,0c-0.3,0.6-0.6,1.2-0.8,1.8C453.1,74.8,453.3,74.2,454,73.7z" />
	<path display="inline" fill="#CBBA9C" d="M460.3,34.6c-0.3,0.3-0.5,0.6-0.8,0.9c-0.9-0.8-0.4-1.7,0.3-2.4c0.2,0.1,0.4,0.1,0.6,0.1   C460.4,33.7,460.4,34.2,460.3,34.6z" />
	<path display="inline" fill="#D2BFA3" d="M452,24.2c0,0.7-0.1,1.4-0.1,2.1c-1.1-0.9-0.4-2-0.5-3.1C451.6,23.5,451.8,23.9,452,24.2z   " />
	<path display="inline" fill="#E1C7B6" d="M422.8,146.7c-0.8,0.1-1.6,0.4-2.1-0.6C421.4,146.3,422.1,146.5,422.8,146.7z" />
	<path display="inline" fill="#D9BFAE" d="M433.9,315.3c0.3-0.7,0.9-0.7,1.5-0.6C435,315.4,434.5,315.4,433.9,315.3z" />
	<path display="inline" fill="#6E7A7A" d="M465.2,71.1c-0.1,0.1-0.3,0.2-0.4,0.3c-0.2-0.4-0.3-0.7,0.2-0.9   C465.1,70.7,465.2,70.9,465.2,71.1z" />
	<path display="inline" fill="#E0C6B5" d="M442.2,54.2c-0.2-0.2-0.4-0.5-0.6-0.7c0.2,0,0.4,0,0.6,0   C442.2,53.7,442.2,53.9,442.2,54.2z" />
	<path display="inline" fill="#ECD5BA" d="M467.9,43.1c-0.2,0.2-0.4,0.4-0.6,0.6c0,0,0,0.1,0,0.1C467.6,43.5,467.8,43.3,467.9,43.1   C468,43.1,467.9,43.1,467.9,43.1z" />
	<path display="inline" fill="#EBDDB8" d="M466.1,376.7c0.2,0.3,0.3,0.5,0.5,0.8C466.4,377.2,466.2,376.9,466.1,376.7z" />
	<path display="inline" fill="#D2BFA3" d="M450.5,22.7c0-0.5,0.3-0.8,0.8-0.7c0,0.2,0,0.5,0,0.7C451,22.8,450.8,22.8,450.5,22.7z" />
	<path display="inline" fill="#CBBA9C" d="M459.6,33.4c-0.2-0.2-0.4-0.5-0.7-0.7c0,0,0.2-0.2,0.2-0.2c0.2,0.2,0.4,0.4,0.7,0.7   C459.7,33.2,459.6,33.3,459.6,33.4z" />
	<path display="inline" fill="#EDD7B7" d="M452.1,15.4c-0.1,0.4-0.2,0.7-0.3,1.1c-1.2-1.2-0.1-2.7,0.2-4.1c1-0.4,0.6-1.4,0.8-2.1   c1.2-0.6,0.1-1.9,0.7-2.8c1.2-0.9,0.2-2.2,0.8-3.3c2.9,0.8,4.2,3.3,6.7,4.7c-0.3,1.7-1.6,3.2-2.2,4.8c-0.5-0.3-0.9-0.7-1.6-1.2   c-0.8,0.5-1.8,1-2.9,1.6c-0.4-1.1,0.8-1.5,1.1-2.3c0.2-0.8,0.4-1.5,0.7-2.4c-0.2-0.3-0.5-0.6-0.8-1   C453.2,9.9,453.5,13.2,452.1,15.4z" />
	<path display="inline" fill="#D5BF9F" d="M451.2,6.9c-1,0.3-1.8,0.9-2.5,1.6c-0.5-0.8,0.3-2-0.9-2.4c0.1-1.1-0.3-2.4,0.2-3.4   c0.3,0.2,0.5,0.4,0.9,0.7c0.2-0.4,0.4-0.8,0.6-1.3c1.2-0.3,2,0.2,2.6,1.1c-0.8,0.6-2.5,2-0.8,2.8C451.3,6.3,451.2,6.6,451.2,6.9z" />
	<path display="inline" fill="#CBBA9C" d="M463.1,33.9c-0.4,0-0.9,0-1.3,0c0-0.7,0-1.4,0-2c1.3-2.3,3.8-1.4,5.7-2.7   c0.1,0,0.2,0.1,0.3,0c0.2,0.7,0.5,1.3,0.2,2c-0.4,0.2-0.8,0.7-1.3,0.7c-0.5,0.4-1,0.9-1.5,1.3C464.5,33.3,463.5,33,463.1,33.9z" />
	<path display="inline" fill="#E0CEB0" d="M441.7,5.9c-0.1,1.3-0.1,2.7-0.2,4c-0.4,0.1-0.7,0.2-1,0.3c-1.1-1.6-1.3-3.5-1.7-5.3   c0.7-0.4,1.1-0.6,1.6-0.9c0.3,0,0.7,0,1,0C441.5,4.7,441.6,5.3,441.7,5.9z" />
	<path display="inline" fill="#171511" d="M440.3,4.1c-0.5,0.3-1,0.5-1.6,0.9c0.3,2.3,1.2,4.4,2.1,6.5c-0.4,0-0.8,0-1.2,0   c-0.6-1-1.2-2.1-1.9-3.1c-0.7-0.9,0.1-2.3-1.1-3C437.4,3.5,438.9,4,440.3,4.1z" />
	<path display="inline" fill="#1C1C18" d="M448,2.7c-0.1,0.2-0.2,0.3-0.2,0.5c-3.8-0.1-1.3,4.3-2.3,7.4c-1.4-2.7-1.6-4.9-1.4-7.2   C445.3,2.6,446.6,2.4,448,2.7z" />
	<path display="inline" fill="#231F1B" d="M458.9,13.7c0.6-1.6,1.9-3.2,2.2-4.8c0.5,0.4,0.9,0.9,1.4,1.3c-0.5,1.9-1.2,3.7-2.8,5   c-0.3-0.3-0.5-0.5-0.8-0.8C458.9,14.1,458.9,13.9,458.9,13.7z" />
	<path display="inline" fill="#211D1B" d="M467.5,29.2c-1.2,1.1-3,0.6-4.3,1.3c-0.2-0.1-0.3-0.1-0.5-0.1c0.9-1.3,2.6-1.4,4-2   C466.9,28.7,467.2,28.9,467.5,29.2z" />
	<path display="inline" fill="#332F28" d="M453.5,7.5c-0.1,0.2-0.2,0.4-0.2,0.6c-0.2-0.4-0.5-0.9-0.7-1.3c0.1-1.1,0.1-2.3,0.2-3.4   c0.5,0.3,1,0.6,1.6,0.9C454,5.3,453.7,6.4,453.5,7.5z" />
	<path display="inline" fill="#A89D82" d="M429,22.2c0.8-0.1,1.5,0.1,1.8,1.2c-0.9,0.1-1.7,0.1-2.5,0.2   C428.5,23.1,428.8,22.6,429,22.2z" />
	<path display="inline" fill="#3A3930" d="M442.8,6.1c-0.1,1.1,0.9,2.6,0,3.5c-0.9-1-0.6-2.2-0.6-3.4C442.4,6.1,442.6,6.1,442.8,6.1   z" />
	<path display="inline" fill="#C6B4A5" d="M426.3,34.1c-0.2-0.7-0.2-1.4,0-2.2c0,0,0,0,0,0c0.2,0.1,0.3,0.1,0.5,0.1   c0.2,0.2,0.5,0.4,0.7,0.6c-0.2,0.5-0.4,1-0.6,1.4C426.7,34.1,426.5,34.1,426.3,34.1z" />
	<path display="inline" fill="#4A453A" d="M432.6,11.5c0.5,0.7,1,1.4,1.5,2.2c-0.3,0-0.6,0-1,0c-0.5-0.5-0.9-0.9-1.4-1.4   C432.1,12.1,432.3,11.8,432.6,11.5z" />
	<path display="inline" fill="#3A3930" d="M441.7,5.9c-0.1-0.6-0.2-1.2-0.3-1.8c1.3,0.2,0.9,1.2,0.8,2C442,6.1,441.8,6.1,441.7,5.9z   " />
	<path display="inline" fill="#56493D" d="M430.4,29.2c0.6,0,1.3,0,1.9,0c0,0.1,0,0.3,0,0.4c-0.6,0-1.3,0.1-1.9,0.1   C430.4,29.5,430.4,29.3,430.4,29.2z" />
	<path display="inline" fill="#3C3B39" d="M426.3,31.9c-0.1,0.4-0.1,0.7-0.2,1.1c-0.1,0.1-0.3,0.2-0.5,0.3   C425.5,32.7,425.3,32,426.3,31.9z" />
	<path display="inline" fill="#211D1B" d="M467.3,27.6c0.2,0,0.4,0,0.7-0.1c-0.1,0.7-0.7,0.8-1.2,1l-0.2-0.2   C466.9,28.1,467.1,27.9,467.3,27.6z" />
	<path display="inline" fill="#3C3B39" d="M426.8,32c-0.2,0-0.4,0-0.5-0.1c0.1-0.2,0.2-0.3,0.3-0.5C426.7,31.6,426.7,31.8,426.8,32z   " />
	<path display="inline" fill="#3C3B39" d="M424.8,30.1c0.2,0.1,0.4,0.2,0.6,0.2c-0.2,0.3-0.4,0.5-0.6,0.8   C424.9,30.8,424.9,30.5,424.8,30.1z" />
	<path display="inline" fill="#BDA898" d="M465.3,39.6c0.3-1.4-0.5-2-1.4-2.7c0.2-1.7,0.2-1.7,1.4-1c-0.1,0.2-0.2,0.4-0.3,0.6   c0.5,0.2,1-0.1,0.9-0.7c0.8-0.6,1.6-1.1,2.1-2c0.3,0.3,0.6,0.6,0.8,0.8c0,1.6-0.1,3.2-0.1,4.8c-0.5-0.2-0.9-0.4-1.4-0.7   c0.1-0.4,0.3-0.8,0.4-1.3c-0.3-0.2-0.6-0.4-0.8-0.5C466.4,37.9,465.8,38.8,465.3,39.6z" />
	<path display="inline" fill="#ECD5BA" d="M466.7,35.3c-0.3,0.2-0.5,0.4-0.8,0.6c-0.2-0.9,0.5-2-0.7-2.7c0.5-0.4,1-0.9,1.5-1.3   C466.8,33,466.8,34.2,466.7,35.3z" />
	<path display="inline" fill="#645952" d="M466.8,33.3c0-0.5,0-0.9-0.1-1.4c0.2,0,0.3,0,0.5-0.1C467.3,32.3,467.4,32.9,466.8,33.3z" />
	<path display="inline" fill="#645952" d="M468,33.9c-0.2,0.3-0.4,0.5-0.6,0.8C467.6,34.5,467.8,34.2,468,33.9z" />
	<path display="inline" fill="#25211F" d="M468.7,39.5c0-1.6,0.1-3.2,0.1-4.8c1,1.3,0.4,3.1,0.6,4.7C469.2,39.5,469,39.5,468.7,39.5   L468.7,39.5z" />
	<path display="inline" fill="#BDA898" d="M468.7,39.5c0.2,0,0.5-0.1,0.7-0.1c0,0.6,0,1.3,0,2c-0.6-0.2-1-0.4-1.4-0.5   C468.3,40.5,468.5,40,468.7,39.5z" />
	<path display="inline" fill="#271A18" d="M468,43.1c-0.2,0.2-0.4,0.4-0.7,0.6c-0.3-0.3-0.6-0.6-1.2-1.2c0.5-0.3,0.9-0.6,1.3-0.9   C468.1,42,468,42.6,468,43.1z" />
	<path display="inline" fill="#6B4436" d="M450,217c0.2-2.5-0.6-5.3,0.6-7.6c-0.3,2.5,1,4.5,0.7,7C450.8,216.6,450.4,216.8,450,217z   " />
	<path display="inline" fill="#D58467" d="M450,217c0.4-0.2,0.9-0.4,1.3-0.6c0,2.4,0,4.7,0,7.2C450,222.1,450.1,219.1,450,217z" />
	<path display="inline" fill="#AA6953" d="M450.5,233.9c-0.8-2.7-0.8-2.7,0.7-3.3C451.2,231.7,451.7,232.8,450.5,233.9z" />
	<path display="inline" fill="#040302" d="M451.2,213.6c-0.6-1-1.6-5.6,0.6-4.2C451.7,210.7,451.4,212.1,451.2,213.6z" />
	<path display="inline" fill="#3B1E18" d="M482.7,266c-0.7,0-1.3-0.1-2.3-0.1c1.1-1.7,2.5-1.3,3.7-1.3c0,0.2,0,0.5,0,0.7   C483.6,265.5,483.1,265.7,482.7,266z" />
	<path display="inline" fill="#A86C56" d="M484.1,265.2c0-0.2,0-0.5,0-0.7c0.7-0.1,1.4-1.4,2.1,0C485.5,264.7,484.8,265,484.1,265.2   z" />
	<path display="inline" fill="#E98667" d="M474.3,266c0.5-0.1,0.9-0.1,1.4-0.2C475.3,266.7,474.9,266.8,474.3,266z" />
	<path display="inline" fill="#60534C" d="M439.4,194.8c-1.4-0.6-1.4-0.6-1.8-2.5C438.8,192.6,439.3,193.4,439.4,194.8z" />
	<path display="inline" fill="#5D524B" d="M452.1,190.8c0.6-0.2,1.2-0.3,1.5,0.6c-0.3,0.6-0.6,1.3-1,2.1   C451.7,192.5,452,191.6,452.1,190.8z" />
	<path display="inline" fill="#614D46" d="M470,188.9c-0.6,0.6-1.2,1-1.9,1.7C468.3,188.8,468.3,188.8,470,188.9z" />
	<path display="inline" fill="#564640" d="M473.3,187c-0.5,0.3-0.9,0.6-1.8,1.2C471.9,186.9,472.2,186.5,473.3,187z" />
	<path display="inline" fill="#6D4E48" d="M465.6,193.2c-0.7-0.8-0.1-1.2,0.7-1.6C466.9,192.5,466.5,192.9,465.6,193.2z" />
	<path display="inline" fill="#D2B4A5" d="M463.1,196.2c0.3-0.6,0.6-1.1,1.1-1.9c0.4,0.9,0.5,1.5-0.4,2   C463.6,196.2,463.4,196.2,463.1,196.2z" />
	<path display="inline" fill="#604D46" d="M463.1,196.2c0.3,0,0.5,0,0.8,0.1c-0.2,0.8-0.4,1.5-0.6,2.3c-0.3-0.3-0.6-0.6-0.8-0.9   C462.7,197.2,462.9,196.7,463.1,196.2z" />
	<path display="inline" fill="#826B63" d="M436.3,191.3c-0.3-0.4-0.6-0.7-0.9-1C436.7,190.2,436.7,190.2,436.3,191.3z" />
	<path display="inline" fill="#5B3934" d="M433,187.4c0,0.1,0,0.2,0,0.2c-0.2,0-0.3-0.1-0.5-0.1C432.7,187.4,432.8,187.3,433,187.4z   " />
	<path display="inline" fill="#180F0B" d="M430.2,265.1c-1.4,0.9-2.2,0.4-3.8-0.9C427.8,263.7,428.9,264.5,430.2,265.1z" />
	<path display="inline" fill="#4A423E" d="M489.8,82.1c-1.9,1.1-4,0.5-6.7,0.7C485.8,80.6,487.2,82,489.8,82.1z" />
	<path display="inline" fill="#2A0C0B" d="M489.8,82.1c-1,0-2-0.1-2.9-0.7c1.3-0.1,2.7-0.3,4-0.4C491,82.2,490.3,82,489.8,82.1z" />
	<path display="inline" fill="#72645D" d="M501.2,95.5c0.5,1.3,0,2-0.9,2.5C499.7,96.9,500.6,96.4,501.2,95.5z" />
	<path display="inline" fill="#BEAB9F" d="M478.7,84.8c-0.5-0.3-0.9-0.6-1.5-0.9C478.2,83.2,478.8,83.4,478.7,84.8z" />
	<path display="inline" fill="#AF9A8F" d="M498.7,102.2c-0.2,0-0.5,0-0.7,0c0.3-0.6,0.6-1.2,1-2   C499.5,101.2,499.5,101.8,498.7,102.2z" />
	<path display="inline" fill="#C09D93" d="M475.4,84.4c-0.3,0.4-0.5,0.3-0.8,0C474.8,84.1,475.1,84.3,475.4,84.4z" />
	<path display="inline" fill="#100F0C" d="M471.5,332.8c2.9,3.2,4.1,14.7-0.5,15.9c1.7-5.1-2-9.9-0.8-15.2   C470.6,333.2,471,333,471.5,332.8z" />
	<path display="inline" fill="#23201B" d="M481.9,379.6c-1.6-3.5-2.3-8.8-1.6-12.4c-0.1-1.4-1.8-2.5-0.8-4.2   c2.3,1.5,4.4,5.9,5.3,8.7c-0.5,0.2-0.9,0.5-1.4,0.7c-0.4-1.2-0.7-2.4-2-3.2c0.3,2.2,0.5,4.2,0.8,6.5c0.4-1.1,0.8-1.9,1.1-2.7   C484,375.6,482.7,377.4,481.9,379.6z" />
	<path display="inline" fill="#161511" d="M474,383.6c-1.2-6.3-4.3-11.7-3.8-18.3c2.8,5.9,4.9,12.4,5.3,19   C474.8,384,474.4,383.8,474,383.6z" />
	<path display="inline" fill="#020202" d="M481.9,379.6c0.8-2.2,2.1-4,1.4-6.5c-0.2-0.8,1-0.9,1.5-1.3c0,0.5-0.1,0.9-0.1,1.4   c-1.5,3.4-0.5,7.2-1.9,11C481.8,382.4,481.8,381,481.9,379.6z" />
	<path display="inline" fill="#27211C" d="M471.5,332.8c-0.4,0.2-0.9,0.5-1.3,0.7c-0.2-2.1-1.5-4.2-0.7-6.3   C471,328.6,471,328.6,471.5,332.8z" />
	<path display="inline" fill="#23201B" d="M483.4,382.3c0.1-1.5-0.5-3.1,0.6-4.3C484.1,379.5,484.2,381,483.4,382.3z" />
	<path display="inline" fill="#23201B" d="M484.2,376.2c-0.1-1-0.6-2.1,0.5-3C484.5,374.2,484.3,375.2,484.2,376.2z" />
	<path display="inline" fill="#E8DAB6" d="M460.1,341.7c0.1-0.4,0.1-0.9,0.2-1.3c0.2,0.3,0.4,0.6,0.6,0.9   C460.7,341.5,460.4,341.6,460.1,341.7z" />
	<path display="inline" fill="#6E635B" d="M484.3,311.7c-0.5-1.3-0.4-2,0.7-2.7C485.8,310.1,485.4,310.8,484.3,311.7z" />
	<path display="inline" fill="#9F8379" d="M485.6,304.9c0.7,1.1,0.2,1.2-0.6,1.7C484.6,305.7,484.7,305.4,485.6,304.9z" />
	<path display="inline" fill="#11100D" d="M443.6,397.9c1.3,2.1,0.1,4.3,1,6.3c1.6-3.8-0.1-7.6,0.5-11.3c4.6-2.3,0.1,25.6-3.3,24.8   c-0.8-2.9,1.3-5.1,0.7-8C442.8,405.8,440.8,401.1,443.6,397.9z" />
	<path display="inline" fill="#24211B" d="M436.1,398.8c0.2-1.7-0.8-3.4,1.3-4.4c2.2,6.4,0.3,12.6,0.8,19.1c0,0.9,0.2,1.9-0.9,2.6   c-3.8-1.8-3.7-12.6-1.2-14.9c0.2,2.1-0.3,4.4,0.3,6.3C437.8,404.5,436.6,401.7,436.1,398.8z" />
	<path display="inline" fill="#1E1B17" d="M438.9,377.3c-3.6-6.5-1.1-14.1,1.6-20.3c1.8,6.3,4.2,14.7,1,21.1c-0.3-0.3-0.6-0.6-0.9-1   c0.3-4.9,1.8-9-1-13.8C437,368.5,440.3,372.8,438.9,377.3z" />
	<path display="inline" fill="#231F1A" d="M440.2,380.9c2.5-0.2,4.8-1.8,7.2-0.3c-2.5,2.2-4.9,1.9-7.3,1   C440.2,381.4,440.2,381.1,440.2,380.9z" />
	<path display="inline" fill="#CBC0A0" d="M436.1,398.8c0.5,2.9,1.8,5.7,0.2,8.7C435.7,404.7,436,401.7,436.1,398.8z" />
	<path display="inline" fill="#3B3D33" d="M440.7,377.1c0.3,0.3,0.6,0.6,0.9,1c-0.3,0.9-0.9,1.3-1.8,1.5c-0.3-0.8-0.6-1.6-0.8-2.3   c0.2-0.5,0.4-1,0.6-1.5c0.2,0.1,0.4,0.2,0.6,0.2l0,0C440.3,376.4,440.5,376.7,440.7,377.1z" />
	<path display="inline" fill="#763E34" d="M440.2,380.9c0,0.2-0.1,0.4-0.1,0.7c-1.1-0.1-1.9,0.4-2.8-0.7   C438.5,380.9,439.3,380.9,440.2,380.9z" />
	<path display="inline" fill="#4F423D" d="M438.7,296.9c0,1.2,0,1.8,0,2.4C437.1,298.9,437.1,298.7,438.7,296.9z" />
	<path display="inline" fill="#403D39" d="M438.7,306.2c-1-1-1-1.1,0-2C438.8,304.9,438.7,305.6,438.7,306.2z" />
	<path display="inline" fill="#4A3834" d="M406,92.4c-1.9,0.2-3.5,0.5-5-0.9c0.2-0.3,0.3-0.6,0.5-1C403.1,90.9,404.7,90.9,406,92.4z   " />
	<path display="inline" fill="#231A17" d="M455.5,327.1c-2.6,0.6-5.3-1.4-7.4-2.7C447.9,322.5,456.6,325.1,455.5,327.1L455.5,327.1z   " />
	<path display="inline" fill="#9D8D82" d="M447.4,322.5c-1.2-0.6-1.6-0.9-2.2-1.3C446.2,320.6,446.7,320.8,447.4,322.5z" />
	<path display="inline" fill="#F6DFBE" d="M452,50.7c-0.4-0.4-0.8-0.8-1.3-1.3c0-4.9,0-9.9,0-15.4c0.8,1.1,1.4,1.9,2,2.7   C452.1,41.2,453.8,46.8,452,50.7L452,50.7z" />
	<path display="inline" fill="#968871" d="M447.1,26.3c0,1.5,0,2.9,0,4.6c-0.8-0.3-1.3-0.5-1.8-0.7c-0.5-1.3-0.2-2.7-0.2-4   C445.8,26.2,446.4,26.3,447.1,26.3z" />
	<path display="inline" fill="#897A66" d="M451.2,60.4c-0.2,0-0.3,0.1-0.5,0.2c-0.3-0.5-0.5-1-0.8-1.5c0.8-2.6-0.6-6.9,2-8.4l0,0   C451.2,53.9,451.4,57.1,451.2,60.4z" />
	<path display="inline" fill="#4E4238" d="M447.1,26.3c-0.7,0-1.3,0-2,0c-0.1-1.2,0.3-2.2,1.1-3.2c0.4,0,0.8-0.1,1.2-0.1   C448,24,447.2,25.1,447.1,26.3z" />
	<path display="inline" fill="#54483C" d="M450,59.1c0.3,0.5,0.5,1,0.8,1.5c-0.2,1.4,0.2,2.9-0.7,4.2c-0.3-0.5-0.5-1-0.8-1.5   C449.5,61.9,449.7,60.5,450,59.1z" />
	<path display="inline" fill="#3E3830" d="M449.3,26.3c0.2-0.3,0.5-0.5,0.7-0.8c0.2,0.1,0.4,0.3,0.5,0.4c0.1,1.5,0.3,3,0.2,4.6   c-0.3,0-0.5,0-0.8,0C449.7,29.1,449.5,27.7,449.3,26.3z" />
	<path display="inline" fill="#F2DBBB" d="M452.1,64.7c-0.1,0.9-0.2,1.8-0.3,2.6c-1-2.1-0.3-4.6-0.4-6.8   C452.4,61.7,452,63.3,452.1,64.7z" />
	<path display="inline" d="M452.8,58.5c0.6,2.2,0.6,3.6-0.1,5.4C452.8,62,452.8,60.3,452.8,58.5z" />
	<path display="inline" fill="#837C6A" d="M449.9,30.4c0.4,0.1,0.9-0.1,1.3,0.2c0,0.7,0,1.5,0,2.2c-0.2,0-0.3,0-0.5,0.1   C450.5,32.1,450.2,31.3,449.9,30.4z" />
	<path display="inline" fill="#D2BFA3" d="M450.5,25.9c-0.1-0.2-0.3-0.3-0.5-0.4c0.2-0.9,0.4-1.8,0.6-2.7   C450.5,23.8,450.5,24.8,450.5,25.9z" />
	<path display="inline" fill="#D2BFA3" d="M452,28.2c0.4,0,0.9,0,1.3,0c-0.2,0.2-0.3,0.5-0.5,0.7C452.6,28.7,452.3,28.5,452,28.2z" />
	<path display="inline" fill="#D2BFA3" d="M451.2,30.6c-0.2-0.1-0.3-0.2-0.5-0.2c0-0.5,0-0.9,0-1.4C451.4,29.4,451.3,30,451.2,30.6z   " />
	<path display="inline" fill="#ECD7B7" d="M439.6,11.5c0.4,0,0.8,0,1.2,0c-0.1,1.5,0.5,3.2-0.6,4.3c-0.5-0.5-0.9-0.9-1.4-1.4   C438.9,13.4,438.3,12.1,439.6,11.5z" />
	<path display="inline" fill="#7D6B59" d="M438.8,13.7c0,0.2,0.1,0.5,0,0.7c-0.3,0.3-0.5,0.5-0.8,0.8c-0.8-1.1-1.2-2.3-1.4-3.8   C438.5,11.4,437.7,13.3,438.8,13.7z" />
	<path display="inline" d="M440.2,46.6c1,0.9,0.4,2.8-0.2,3.9C438.6,49.7,440.1,47.8,440.2,46.6z" />
	<path display="inline" fill="#705D4E" d="M437.4,36.7c0.2,0.3,0.5,0.5,0.7,0.8c0,0.2-0.1,0.4-0.1,0.6c-1,0.5-1.9,1-2.9,1.5   C435.5,38.2,436.3,37.4,437.4,36.7z" />
	<path display="inline" fill="#211C17" d="M434.8,35.4c0.5,1.1,0.4,2-0.7,2.6C433.6,36.9,433.6,36.1,434.8,35.4z" />
	<path display="inline" fill="#432E27" d="M437.5,43.2c0.7,0.3,1.7,0.2,2,1.2c-0.5,0.2-1,0.5-1.8,0.8   C437.6,44.4,437.5,43.8,437.5,43.2z" />
	<path display="inline" fill="#7F7663" d="M433.2,13.8c0.3,0,0.6,0,1,0c0.4,0.3,0.8,0.5,1.5,1.1C434.1,15.2,433.6,14.6,433.2,13.8z" />
	<path display="inline" fill="#5C5043" d="M436.5,48.3c-0.9-0.3-1.3-0.7-1-1.7C436.4,46.9,436.8,47.4,436.5,48.3z" />
	<path display="inline" fill="#766D63" d="M451.4,171.1c0.4-0.2,0.8-0.5,1.2-0.7c0,1.3,0.5,2.7-0.9,4.1   C451.1,173.3,451.4,172.2,451.4,171.1z" />
	<path display="inline" fill="#0D0C0A" d="M452.4,176.3c0.8,2,0.5,3.4,0,5.3C451.8,179.7,451.4,178.3,452.4,176.3z" />
	<path display="inline" fill="#4F4741" d="M452.1,187.8c0-0.6,0-1.2,0-2.4C453.1,186.7,453,187.3,452.1,187.8L452.1,187.8z" />
	<path display="inline" fill="#E5CEAF" d="M447.8,6.1c1.2,0.5,0.4,1.7,0.9,2.4c0.4-0.4,0.8-0.7,1.2-1c0.1,1.5-0.4,2.9-0.9,4.2   c-0.7,0.4-1.3,0.8-1.9,1.2c0-1.7,0-4.2,0-6.1C447.4,6.6,447.6,6.3,447.8,6.1z" />
	<path display="inline" fill="#F8E3C2" d="M447.8,6.1c-0.2,0.2-0.5,0.5-0.7,0.7c-0.9-0.9-0.7-2.2-0.7-3.4c0.5,0,0.9-0.1,1.4-0.1   C447.8,4.2,447.8,5.1,447.8,6.1z" />
	<path display="inline" fill="#675549" d="M461,20c-0.3-0.2-0.5-0.5-0.8-0.7c0-0.2,0.1-0.4,0.1-0.6c1.8-0.7,2.7-1.8,4.6-3   C463.9,17.8,463.9,17.8,461,20z" />
	<path display="inline" fill="#675C4E" d="M458.9,14.4c0.3,0.3,0.5,0.5,0.8,0.8c-0.5,0.7-0.9,1.4-1.4,2.1c-0.4,0.2-0.8,0.4-1.3,0.6   c0-0.5-0.1-0.9-0.1-1.3C457.5,15.8,458.2,15.1,458.9,14.4z" />
	<path display="inline" fill="#CFB89A" d="M461.7,17.9c-0.2,0.2-0.5,0.3-0.7,0.5C461.3,18.2,461.5,18.1,461.7,17.9z" />
	<path display="inline" fill="#F6DFBE" d="M467.3,27.6c-0.8,1.1-2.1,1.1-3.3,1.6c-0.3-0.1-0.6-0.1-0.9-0.2c1.2-1.5,2.4-3,3.6-4.5   C467.9,25.1,467.1,26.6,467.3,27.6z" />
	<path display="inline" fill="#F8E0BF" d="M462.6,30.4c0.2,0,0.4,0,0.5,0.1c-0.9,0.9-1.8,1.8-2.7,2.7c-0.6,0-0.9-0.4-1.3-0.8   c0-0.5,0-1.1,0-1.6C460.3,30.3,461.4,29.8,462.6,30.4z" />
	<path display="inline" fill="#CBBA9C" d="M463.2,29c0.3,0.1,0.6,0.1,0.9,0.2c-0.3,0.2-0.6,0.3-0.9,0.5   C463.2,29.5,463.2,29.3,463.2,29z" />
	<path display="inline" fill="#594B44" d="M465.3,39.6c0.6-0.8,1.1-1.6,1.7-2.5c0.2,0.1,0.5,0.3,0.8,0.5c-0.5,2-2.6,4.7-4.6,2.6   C463.2,39,464.5,39.9,465.3,39.6z" />
	<path display="inline" fill="#655750" d="M426.8,38c-0.1-0.5-0.3-0.9-0.4-1.4c0.3-0.1,0.6-0.2,1.1-0.4c1,1.2,1.6,2.6,2.1,4.1   c-0.4,0.2-0.7,0.4-1.1,0.7C427.7,40.2,427.6,38.9,426.8,38z" />
	<path display="inline" fill="#655750" d="M426.3,34.1c0.2,0,0.4,0,0.7,0c-0.2,0.2-0.3,0.4-0.5,0.6   C426.3,34.5,426.3,34.3,426.3,34.1z" />
	<path display="inline" fill="#7D6859" d="M463.9,36.9c0.5,0.7,1.7,0.8,1.4,2c-0.9-0.5-1.8-1-2.7-1.5c0,0,0,0,0,0   c0.2-0.2,0.4-0.5,0.6-0.7C463.4,36.7,463.6,36.8,463.9,36.9z" />
	<path display="inline" fill="#ECD5BA" d="M460.4,33.2c0.5-0.4,0.9-0.9,1.4-1.3c0,0.7,0,1.4,0,2c-0.5,0.2-1,0.5-1.5,0.7   C460.4,34.2,460.4,33.7,460.4,33.2z" />
	<path display="inline" fill="#ECD5BA" d="M463.1,36.7c-0.2,0.2-0.4,0.5-0.6,0.7c-0.4-0.3-0.8-0.5-1.5-0.9   C462.1,35.9,462.7,35.8,463.1,36.7z" />
	<path display="inline" fill="#ECD5BA" d="M463.1,33.9c0.3-0.7,0.8-0.7,1.4-0.7C464.3,34,463.7,34,463.1,33.9z" />
	<path display="inline" fill="#795E50" d="M465.9,36.1c-0.1,0.5-0.4,0.6-0.9,0.5c0.1-0.2,0.2-0.4,0.3-0.6   C465.5,36,465.7,36,465.9,36.1z" />
	<path display="inline" fill="#938772" d="M452.6,6.7c0.4,0.7,0.8,1.3,0.8,2.1c-1.5,0.7,0.2,2.8-1.4,3.5   C452.2,10.5,451.6,8.4,452.6,6.7z" />
	<path display="inline" fill="#988672" d="M451.3,6c-1.6-0.7-0.1-2.1,0.8-2.7C452.2,4.3,451.8,5.2,451.3,6z" />
	<path display="inline" fill="#655750" d="M428.5,41.1c-0.3,0.5-0.7,0.4-1,0l0.2-0.2c0.2,0,0.5,0,0.6,0L428.5,41.1z" />
	<path display="inline" fill="#DBC6A8" d="M452.1,15.4c0.2-0.3,0.3-0.6,0.5-0.9C452.4,14.8,452.3,15.1,452.1,15.4z" />
	<path display="inline" fill="#231B19" d="M428.3,40.9c-0.2,0.1-0.4,0.1-0.6,0c-0.6-0.8-0.9-1.6-0.6-2.6   C427.4,39.1,427.9,40,428.3,40.9z" />
	<path display="inline" fill="#DBC6A8" d="M453.5,7.5c0.2-0.8,0.3-1.5,0.5-2.3C454,6,454.4,6.9,453.5,7.5z" />
	<path display="inline" fill="#DBC6A8" d="M452.8,10.3c-0.1-0.6,0-1.1,0.6-1.4C453.4,9.4,453.4,10,452.8,10.3z" />
	<path display="inline" fill="#E5D9B4" d="M483.4,372.5c-0.1,0.2-0.2,0.4-0.1,0.6c-0.3,0.8-0.7,1.6-1.1,2.7   c-0.3-2.3-0.5-4.3-0.8-6.5C482.7,370.1,483,371.3,483.4,372.5z" />
	<path display="inline" fill="#DACDAB" d="M439.6,375.2c-1.4-3.8-1.5-7.6,0-11.9c2.5,4.4,1.6,8.1,1,12.6c-0.2,0-0.4,0-0.6,0.1l0,0   C440,375.7,439.8,375.5,439.6,375.2z" />
	<path display="inline" fill="#C0AC8F" d="M440.1,376c0.2,0,0.4-0.1,0.6-0.1c0,0.4,0,0.8-0.1,1.2C440.5,376.7,440.3,376.4,440.1,376   z" />
	<path display="inline" fill="#C0AC8F" d="M439.6,375.2c0.2,0.3,0.3,0.5,0.5,0.8c-0.2,0-0.4-0.1-0.6-0.2   C439.5,375.6,439.6,375.4,439.6,375.2z" />
</g>
</svg>