<?xml version='1.0' encoding='utf-8'?>
<svg xmlns="http://www.w3.org/2000/svg" version="1.2" baseProfile="tiny" id="Layer_1" x="0px" y="0px" viewBox="0 0 900 600" overflow="visible" xml:space="preserve">
<g id="a_00000088092186976193637020000002417006480273982103_">
	<path fill="#010100" d="M656.6,425c15.9-6.3,34.5-4.6,50.1-12.2c-0.5-2.1-1-4-1.5-6.3c0.5-1.5,1-3.3,1.7-5.2   c10.9-8.3,24.1-10.9,35.2-19.4c3.8-13.7-1.3-43.9,22.7-32.6c0.5-9.6,1.1-19,1.6-28.6c-0.5-0.1-1.3-0.4-2.1-0.6   c4.2-37.4,8.8-76.8,8.7-114.9c2.9-23.3,8.2-47.6,6-70.9c3-13.2,1.4-26.5,4.9-39.6c4.6-27.5-1.3-59.8,8.1-86.4   c0.5,13.7-2.2,27.6-1.3,41.5c4.8,1.1,9.9,0.4,14.9,1.2c-5.3,1.2-10,1.8-15.6,1.8c0,3.5,0,6.7,0,10.2c2.6,0.4,5.7-0.9,7.9,1   c-2.7,0.8-5.5,1.6-8.1,2.4c-0.6,8.7-1.1,17-1.6,25.5c5.4-0.4,10.6,0,15.3-3.5c3.2-24,3.2-48.8,8.7-72.3c2.7,22.9-1.2,48.7-4.3,72.1   c7.1,2.1,7.1,2.1,10.7,8.5c-22.3,6.2-10.7,28-15.5,44.3c-3.1-11.7-2-23.5-1-35.2c-5,0.1-9.3-0.2-14.1,0.3   c-1.8,62.7-13.8,124.9-16.3,187.5c-1.9,2.1-0.5,4.5-0.8,6.6c1,0.4,1.7,0.7,2.4,1c-2,1.5-3.8,3.7-1.8,5.9c1.2-0.2,2.5-0.4,3.6-0.5   c0.6-1.4,1.1-2.6,1.7-3.8c1.9,1.7,1.1,4.6,4.5,2.5c3.4-0.1,6.8-0.2,10.2-0.2c0.6-0.8,1.2-1.7,2.1-3c-0.4,6.2,0.8,11.7-0.5,17.1   l-0.2-0.1l0.1,0.2c-0.8,50.2-15,98.6-24.5,147.6c-18.4-3.2-45.1-4.3-52.9-24.3c-20.9,0.1-39.6,16-59,21.3c-0.4-0.7-0.7-1.3-1.1-2   c17.6-10.9,38.4-19.6,58-24.8c0.2,0.9,0.3,1.6,0.5,2.3c1.6,0.2,3.2,0.4,4.8,0.6c11.4-8.2,3.5-25.8-8.5-25.4   C708.7,419.4,658.1,429.9,656.6,425z M785.4,123.3c-0.5-4.7,2.2-8.8,0.6-13.4c-0.8,0.1-1.5,0.2-2,0.3c-0.7,5.1-0.7,27,0.1,31.2   C784.7,134.9,785,129.6,785.4,123.3z M770.2,322.6c0.2,9.1-1.9,18-3,26.7c0.6,0,1.4,0.1,2.1,0.1c4.6-13.8,8.3-26.9,5.6-41.2   c-1.7,0.7-3.1,1.3-4.7,1.9C770.1,314.4,769.5,318.5,770.2,322.6z M779.5,308.2c-2.3,0-1.1,10.2,0,12.5c4-1.9,8.3-0.4,12.4-1.9   c-0.1-4.4-0.3-8.5-0.4-12.8C787.2,306.8,783.3,307.5,779.5,308.2z M748,374.5c12.4-10,4-15.1,13.4-23.9c-5.5-1.8-9.5,1.8-13.1,4.8   c-0.1,7.9-2.4,14.7-2,21.9C748.3,376.8,748.3,375.7,748,374.5z M767.7,351.9c-0.1-0.3-0.2-0.6-0.3-0.8c-12.5,6-4.5,12.8-14.1,22.6   c0.4,0.9,0.7,1.6,1,2.4c-1.3,0.3-2.3,0.5-2.9,0.6c-0.6,1.3-1,2.3-1.4,3.3l0.1-0.1c-2.2,0.1-3.1,1.7-4,3.4c5.4,2.2,6.6,3.4,7.6,7.8   c-4.4-0.9-8.4-1.2-11.2-5c-1,0.5-1.5,0.7-2.1,1.8c3,2.3,6.4,4.6,6.3,9.5c-4.9-1.7-9.4-3.3-14.2-5c-1.2,0.6-2.7,1.3-4.4,2.2   c9,4.5,9.8,5.2,10.6,10.4c-5.4-3.3-12.1-2.9-16.7-7.9c-4.6,2.4-9.1,4.7-13.6,7c-0.3,1.4-0.6,2.6-1,4.1c1.4,0.5,2.5,0.9,3.3,1.2   c1.2-0.6,2.1-1,3.3-1.5c14.9,10,19.2,23,5.4,36c4.6,6.5,11,10,18.9,11.5C752.1,422.6,760.6,386.4,767.7,351.9z M782.3,322.8   c-0.7,0-1.4,0-2.2,0c-12.4,44.6-22.7,92-37.7,135.5c7,3.6,15.2,4.4,23,5.3c9.4-45.8,25.4-94,23.7-140.4   C786.6,323,784.5,322.9,782.3,322.8z M803.5,102.4c-1.5-1.5-1.7-2.8-1-4.7c-2.1-0.2-3.7,0.1-5.3,1.5c0,0.8,0,1.8,0,3   C799.3,102.2,801.3,102.3,803.5,102.4z M810.9,92.7c-2.3-0.7-4.7-0.7-7,0.2C806.2,93.3,808.5,93.6,810.9,92.7z M788.2,102.4   c1.9-1.8,1.5-3.6,0.9-6.6C788.7,99,786.8,100.6,788.2,102.4z M812.9,96.4c-3.2,0.4-2.4,0.5-2.2,3.5   C811.6,98.3,812.1,97.7,812.9,96.4z M793.9,98.8c0.8-1.4,1.3-2.2,1.8-3.1c-0.6-0.1-1.1-0.2-1.8-0.4   C793.9,96.3,793.9,97.2,793.9,98.8z" />
	<path fill="#020101" d="M656.6,425c0.6,1.8,2.3,1.2,3.5,1.5c-27.8,4.9-57,4.3-84.2,12.1c-13.7-4.8-26.9,2.3-40.6,2.1   c-22.6-0.4-45.7-0.8-68.2,0c-4.4,8.5,0.3,17.4,1.9,26.1c4.3,11.4,2.9,25.5,11.1,35c24.7-2.8,47.6-12.4,71.7-17.5   c0.7,0.3,1.5,0.7,2.2,1c-26.3,8.6-52.6,19.6-80.8,19.8c-15,17.9-16.5,23.8-41.3,31.5c0,0.2,0,0.3,0,0.5c5.4,0.1,10.1,2.2,15.6,3.2   c4.2-2.7,10.3,1.1,15.1,1.3c-0.7,1.5-2.5,0.4-3.7,1.4c4.1,2.3,8.4,3.7,13.1,3.8c0.4,0.7,0.8,1.3,1.2,2c-5.9,4.4-14,2.5-21.1,1.9   c0.2,1.2,0.4,2.2,0.6,3c-2.9,3.1-7.4,0.7-11,0.6c-9.2-2.1-18.9,3.8-27.2-2.3c-11.6-7.5-26.6,0.4-38.3-4.2   c-13.1,5.4-24.4,6.6-38.6,8.4c22.7,7.2,44,14.4,67.9,14.1c22,4.9,43.9,10.4,66.5,11.8c-0.3,0.6-0.7,1.2-1,1.8   c-21.6-0.9-43.8-4.8-65.1-10.7c-24.4,0.8-47-6.6-69.8-14.5c-24-2.7-48.8-1.3-72.1-8.9c-10.1-3.9-24.2,0.5-31.7-8   c21.5,1.2,42.1,9,63.6,11.3c3.6-2,6.9-3.8,9.8-5.4c-5.6-25.1-14-49.4-23.8-73.1c-7,2.3-12.9,7.1-20.5,6.9   c-12.9-14-38.6-3-45.9,12.2c-0.3-0.7-0.6-1.4-0.9-2.1c6.5-18,33.9-28.7,47.9-12.7c18-6,35.9-12.7,55-13.2c7.4,0.9,14.7,3,22,0.8   c29.8-6.7,57.6-20.2,87.9-26c31.9-8.3,65.1-4.5,97.6-2.2c17.3,0.8,33.5-7.5,50.8-4C602,428.2,629.5,426,656.6,425z M318.5,554.9   c2.5,0.2,5,0.2,7.5-0.2c-3.1-1-9.8-3.6-11.2,0.2C316,554.9,317.2,554.9,318.5,554.9z M304,525.9c-0.2,1.3,1.4,1.2,2,2.2   c-0.2,0.2-0.3,0.5-0.2,0.7c-1.4,2.2,0.3,4.7,0.7,7c1.5-0.4,2.6-0.7,4.5-1.2c-1.8,1.5-2.9,2.5-4,3.4c-0.1,2.9,0.4,5.3,2.3,7.5   c19.3-9.7,41.4-18.6,63.2-15.3c5.6-14.9,3-52.9-4.4-67.9c-26.8,11.3-55.4,3-82.7,11.8C291.4,491.7,299.1,508.2,304,525.9z    M336.9,538.2c-12,1.4-22.3,6.8-32.1,13.6c24.9-0.9,49.6,1.4,74.2-5.7c8.5-1.1,19.8,2.2,26.9-2.3c0.8,0,1.7,0.1,2.6,0.1   c-0.3,0.6-0.4,1-0.6,1.4c14.3,10.6,23.3,4,39.5,7.7c0-1.3,0-2.3,0-3.3c-2.8-1.4-5.9-1.7-8.7-3.9c9.1-1.2,19.6,7.5,28.5,2.4   c-18.3-5.4-36.1-11.3-55.3-8C386.6,538.8,361.7,526,336.9,538.2z M469,485.3c-2.6-14.8-9-29-5.3-44.3c-11.6-0.5-22.8,1.2-33.8,2.8   c-0.9-0.6-1.6-1.1-2.2-1.5c-19,6.2-37.4,13.6-56.4,18.7c8.8,21.6,5.6,47.9,6.9,70.1c31.3,11.2,72.3,5.1,89.7-26   c2.7-1.1,5.2-2.2,7.9-3.2C472,496.9,471.2,490.8,469,485.3z" />
	<path fill="#020201" d="M271.9,548.8c-2.8-0.2-6.3-0.5-8.5-2c1.3,0,2.6,0,4,0c-2.6-4.9-6-8.8-9.3-11c-0.9,0.6-1.9,1.3-2.8,2   c-0.5-0.5-1-1-1.5-1.5c0.3-0.8,0.7-1.5,1.1-2.5c-14-10.3-33.2-10.3-45.3,3c-65,56.9,56.4,48.9,89.6,44.3c0.1,0.8,0.2,1.3,0.4,2.1   c37,2.1,74.8,8.5,111.7,4.6c20.5,10,43.2,2.8,64.9,5.5c-8.7-7.7-22.2,0.9-29.6-6.2c16.7-1.3,33,6.1,49-0.3c0.1,0.6,0.3,1.2,0.4,1.8   c-2.7,5-8.9,2.8-14.1,4.1c-7,7-18.9,1.1-27.8,3.1c-16.6,2-27.8,1.7-43.3-4.1c-29.8-0.3-60.4,1.6-89.7-3.5   c-40.8-6.2-85.3,7.6-125.3-8.6c-6-7.1-10.7-13.9-8.8-24.3c-8.1,0.7-17.6-1.7-25,1.5c-5.1,3.4-11.9,2.5-16.8,7.3   c10.4-0.2,22.1-1.6,31.1,4.7c-0.4,0.4-0.9,0.8-1.3,1.3c-16.2-3.4-32.2-3.7-48.4-2.4c3.2-2.7,7.9-2.1,11.3-5c0.6,0.3,1.2,0.6,2,1   c3.2-1.4,6.6-3,8.5-6c0.5,0.6,1.4,2.4,1.9,0.9c1.9-0.3,3.4-1.6,5.3-2.4c-0.7-0.6-1.1-1-1.6-1.6c1.5-1.5,1.4-3.4,1.6-5.3   c0.2,0.1,0.6,0.1,0.8,0c1.7,0.9,2.4,2.6,3.6,4.1c6.8-1.6,13.5-1,20-2.6c2.8-0.7,6-0.6,8.5,2.1c6.7-15.8,11.9-32.2,20.4-47.2l0.3,0   l0.3-0.1c0.3,0.4,0.7,0.7,1,1.1c-5.9,13.3-11.3,26.9-16.4,40.2c1.4-0.9,2.5-1.6,2.7-3C223.3,517.5,251.8,512.9,271.9,548.8z" />
	<path fill="#010100" d="M806.2,148.3c6.2,11.1,10.8,23,8.8,36.1c0.4,0.7,0.9,1.6,1.4,2.5c-1,7.4-5.3,12.5-11.1,16.8   c0.9,0.7,1.7,1.4,2.6,2.2c-2.7,2.8-6.1,1.4-9.2,2.3c-2.4,27.9-1.3,56.4-5,84.4c-2.5,1.4,0.4,4.7-2,6.2c0.6-30.3,3.6-60.7,3.7-91.1   c-2.9-0.9-5.2-1.7-7.6-3c-2.8,4.9-2.1,11.7-3.3,17.3c-2.5,2.5-1.7,6.1-2.2,9.4c-2.5-6.4-1.2-14.2,0.8-20.6   c2.5-11.6-0.5-24.8,5.3-35.3c1.4,6.8,0.9,14.1,3.7,20.4c4.5-9.1,0.2-17.6-0.3-26.6c0.3-0.1,0.6-0.2,0.9-0.3   c6.2,10.8,4.5,23,0.2,33.9c2.2,1.7,4.8,1.7,7.8,1.5c20.2-11.9,12.3-36.3,4.3-53.6C805.2,149.8,805.1,148.7,806.2,148.3z    M785.8,203.2c1.4-0.3,2.4-0.6,3.4-0.8c-0.7-3.1-0.5-6.2-2.3-8.9C786.5,196.6,786.2,199.5,785.8,203.2z" />
	<path fill="#F2BE10" d="M790.8,31.8C791,24,793,16.1,792,8.4c7.4-3.5,17.3,0.2,20.2,7.8c-3.9,10.5-1.3,23.4-6.8,33.2   c-4.4-0.4-9.5,0.9-13.5-0.6c0.1-0.9,0.1-2,0.2-3.4c4.2,0,7,0.1,11.1-0.2c-3.5-3.6-8.3-0.5-11.4-4.8c0.1-1.6-0.6-3.5,0.7-5   c3.2-0.8,6.6,0.6,9.9-1.1c-0.7-0.6-1.1-0.9-1.4-1.2C797.5,32.7,794.1,32.2,790.8,31.8z" />
	<path fill="#120D0B" d="M174.9,569.8c0.4-0.4,0.9-0.8,1.3-1.3c3.2,1.1,4.3,4.2,5.9,5.9c4.2,0.6,8.7,4.3,11.8,2.4   c1.1,0.5,2,1.2,1.8,2.6c-3.5,0.3-6.5,0.5-10.1,0.6c0.8,1.3,1.4,2.4,2.4,4.3c-4.9-0.9-9.5-6.5-13-3c-2.5-1.6-5.1-2.6-8.1-2.1   c0.7,2,1.3,3.8,1.9,5.7c2.7,1.1,5.5,2.3,8.3,3.5c-3.2,2.9-8-3.2-10.4-0.2l0.1-0.1c-1.5-0.5-2.2-2.5-4.2-2.1c-1.6-2.1-4-0.2-6.1-1.2   c-1.6-1.5-3.5-0.6-5.3-1c-0.7-1-1-2.6,1-1.8c3.4,2,7.4,0.6,11.9,1.6c-12.7-8.8-29.6-1.8-44.1-4c11.8-6,25.3-0.2,37.7-3.4   c-8.2-3.3-16.8-2.6-25.3-1.8c-0.4-0.3-0.8-0.7-1.2-1c0.1-0.3,0.3-0.5,0.4-0.8c16.9-3.1,33,2.7,48.9,4.5   C178.8,574.6,177.4,572.1,174.9,569.8z M169.8,577.6c-5.7-2.4-6.1-2.5-8.5-2.1C163.6,577.6,166.2,578.5,169.8,577.6z M165.2,581.2   c-2.4-3.2-3.9-3.6-7.7-2.9C160.3,579.2,162.1,580.5,165.2,581.2z" />
	<path fill="#050404" d="M647.3,466.7c-26.4,15.1-57.7,6.7-85,15.8c-0.7-0.3-1.4-0.6-2-0.9c2.7-1.1,5.6-1.7,7.8-3.4   c-0.1-1.3-0.2-2.5-0.4-3.6c1.8-0.8,3.4-1.5,4.9-2.2c23.8,4.7,49-1.6,72.6-6.6C645.9,466,646.6,466.3,647.3,466.7z" />
	<path fill="#0F0D0B" d="M84.5,576c-4.1-2.6-2.5-9.2,1.1-11.4c3.4-2.5,7.9-2,10.5-5.8c-8.2-8.9-11.9-21-8.4-32.9   c0.4,0,0.8,0.1,1.1,0.1c0.4,0.3,0.9,0.7,1.3,1c-0.9,4.8-1.1,9.5-0.6,14.3c2.9,2.7,0.9,7.9,5.5,9.4c0.2-2.6,0.4-4.7,1.3-7.1   c2.6,3.4-1,8.4,1.8,11.4c4.9,6.9,13.7,10.8,21.8,12.5c1.6,2.3,5-0.7,6.3,1.9c-2.8,3.2-13.7-3.1-13.5,0.8c-1.9-2.6-4.1-3.2-7.2-2.8   c-1.3-1.9-3.1-3.1-5.1-4.2c-0.4-1.4-1.2-2.3-2.7-2.9c-0.8,0.9-1.7,1.9-2.6,2.9l0.1-0.1c-4.4,0.7-9.5,3-10.2,8.4c0.5,1,1.3,2.5,2,4   C86.4,577.4,85.3,575.6,84.5,576z" />
	<path fill="#0C0909" d="M153.4,591.3c2,2.4,3.5,3.5,2.9,7.1c-27.9-29.2-49.9-2.8-68.5-17.3c0.5-0.4,0.9-0.9,1.4-1.3   c9.9,6.4,21-0.3,31.7,1.3c5.7,1.2,12.3,1.4,17.9,2.8l-0.1,0.2c0.5,1.6,2,0.6,3.1,1.1c1.6,1.6,4.4,1.1,6.2,3.1c0.7,1.5,2,0.9,3.1,1   C152,590,152.7,590.6,153.4,591.3z" />
	<path fill="#14100F" d="M88.9,526c-0.4,0-0.8-0.1-1.1-0.1c1.6-10.2,3.7-22.9,14.3-27.4c6.1-1.4,13.2-8,19.2-4.7   c-6.5,3.6-16.9,2.6-19.1,11.4c-0.2,2.4-2.7,1.8-3.4,3.3c-0.2,1-1.7,2.2-0.3,2.9c0,0.7-0.1,1.4-0.1,2.1l0,0c-2.3,1.5-3.1,3.6-3,6.2   c-3.1,2.7-0.1,9.2-4,11.3c-0.7-3.8,2.9-7.9,0.7-11.4c2.6-7.1,4.6-13.3,10.4-18.3c-3.1,1-3.1,1-4,3.9   C92.2,509.9,90.9,518.9,88.9,526z" />
	<path fill="#151110" d="M164.8,495c11.8-2.9,8.6,12.7,8.4,19.6c4.1,2.2,8.5-0.1,12.6,2.2c3.5,1.2,8-0.2,11.6-0.3   c1.1-1.4,2-2.7,2.9-3.9c0.3,0.4,0.7,0.8,1,1.2c-3.4,12.1-20.3,3.4-29.1,4.1c-4.4-5.7,4.6-22.5-7.4-21   C164.7,496.2,164.8,495.6,164.8,495z" />
	<path fill="#16130D" d="M775,150.2c-0.1-0.3-0.1-0.6,0.2-0.8c0.4,0.8,0.8,1.6,1.2,2.3c-3.3,15.2-5.2,31.5-4.1,47.5   c-0.4,0.3-0.8,0.6-1.2,1c-4.9-15.1-0.4-31.7,3.1-46.7C775.6,152.7,775,151.3,775,150.2z" />
	<path fill="#1F1615" d="M164.8,495c0,0.3,0,0.7,0,1c-1.1,0.1-2.4-0.5-3.1,0.9c-2.2-2-4,0.1-6.1,1c-0.6-1-1.2-2-1.8-2.9   c-1.9,0.9-3.2,1.2-5.1,1.3c-0.4,1-0.7,1.8-1,2.7c-4.1-2.1,0.9-5.6-3.4-7.5c-5.2,2.7-10.4,6.9-17.1,5.5c-1.2-1.2-2.2-2.3-3.2-3.3   c-1.1,0.1-1.9,0.1-2.8,0.2c-1.2-1.2-2.8-1.1-4.4-1.1c4.4-2.1,8.3-0.9,12,1.9c0.3-0.5,0.6-0.9,1-1.6c0.5,0.5,1.1,1.1,1.7,1.7   c3.9-0.5,7.3-2.5,10.3-5c4.2-0.1,4.2-0.1,7.2,4.1c1.5-0.2,3.2-0.5,5.3-0.8c0.7,0.4,1.7,1,2.8,1.7   C159.8,492.6,161.8,495.3,164.8,495z" />
	<path fill="#1F1916" d="M144,586.2c-0.9,0-1.7,0-2.1-0.9c1.3-2.1-1.7-2.4-3.1-2.1c-0.3-0.4-0.6-0.8-0.9-1.2c0.1-0.2,0-0.4-0.1-0.6   c0.6,0,1.3-0.1,1.9-0.1c3.2,2.2,8.1-0.6,11.7,0.8c-1.6,0.6-0.1,1.3-0.1,2c-0.1,0.3-0.2,1-0.2,1c7.3,2.2,12.4,10,19.7,9.5   c0.6,1.8-1.1,2.7-1.2,4.5c-6.8-3.7-12.1-9.2-19-11.6c0.2,0.7,0.4,1.3,0.6,1.9c-1.1-0.1-2.4,0.5-3.1-1c1.1-2-2.5-3-4.2-4   C144,585.1,144,585.7,144,586.2z" />
	<path fill="#211918" d="M495.9,588.4c-0.1-0.6-0.3-1.2-0.4-1.8c-0.8,0.2-1.4,0.4-2,0.5c-1.2-1.9-3.1-1.5-4.3-0.7   c-5.2,2.5-10.2-1.4-15.2-2.6c0-0.5,0-1.1,0-1.6c6.8,2.4,16.7-2,22.4,3.5C497,586.7,497,587.7,495.9,588.4z" />
	<path fill="#131506" d="M791.7,298.7c2.4-1.5-0.5-4.8,2-6.2c-0.5,8.4,2.3,16.3,0,25c0-4.9,0-9.9,0-15.5c-0.9,1.3-1.5,2.2-2.1,3   c-0.1-0.5-0.2-1-0.4-1.7c-4,1.3-8,0.6-12,0.5c-0.3-1.7,1.7-1.8,2.1-3c1-0.2,2.1,0,3.1,0.2c2,1.9,4.5,0.3,6.9,0.7   C791.5,300.7,791.6,299.7,791.7,298.7z" />
	<path fill="#2D2724" d="M201.2,513.8c-0.3-0.4-0.7-0.8-1-1.2c4.1-7.5,10.6-13.1,14.4-20.8c0.3,0.7,0.6,1.4,0.9,2.1   c-1.7,4.2-3.3,8.4-5,12.6c-0.3-0.4-0.7-0.7-1-1.1c0.3-0.8,0.6-1.7,0.9-2.5c-0.2-0.1-0.4-0.2-0.6-0.4   C206.7,506.1,204.4,510.2,201.2,513.8z" />
	<path fill="#3A2F2C" d="M473.1,549c-0.4-0.7-0.8-1.3-1.2-2c0.2-0.2,0.4-0.5,0.8-0.9c-1.4-0.7-3.7-1.7-3.8,0.6   c-2.2-0.5-4.5-0.5-6.4-1.9c0.6-0.1,1.3-0.2,2.6-0.3c-1.6-0.8-2.6-1.3-3.4,0.1c-0.9-0.5-1.9-0.9-2.9-1.4c1.2-1.1,3,0.1,3.7-1.4   c4.7,0.5,10.2,1.1,13.9,4.3C476.1,548.2,474.7,548.6,473.1,549z" />
	<path fill="#342B17" d="M776.3,151.7c-0.4-0.8-0.8-1.6-1.2-2.3c0.9-5.1,1.9-10.1,3.9-14.9c1.6,4.7,2.2,10.6,0.4,14.9   c-0.1-2.2-0.2-4.4-0.3-6.7c-0.2,0-0.4,0-0.6-0.1C777.8,145.7,777.8,148.9,776.3,151.7z" />
	<path fill="#373531" d="M175.1,589.4c2.1-1.5,3.7-0.8,5.5,0.9c0.2-0.2,0.3-0.3,0.5-0.5c-1.8-3-3.9-5.7-6-8.5   c1.4-1.8,2.2-1.9,4.2-0.5c-0.5,0.1-1,0.2-1.5,0.3c1.8,3.7,5.1,5.8,5.5,10.5c-0.6,0.6-1.3,1.3-1.9,2   C178.9,591.9,177,590.7,175.1,589.4z" />
	<path fill="#403A32" d="M170.9,594.5c-0.8-0.2-1.6-0.4-2.4-0.6c-0.3,0.3-1.3,0.7-1.6,0.6c-1.3-4.1-5.7-6.2-8.5-9.3   c4.4-1.8,6.2,5,9.2,5.5c-0.3-0.1-0.5-0.3-0.8-0.4c0-0.7,0-1.4,0-2.2c0,0-0.1,0.1-0.1,0.1c0.7,0.4,1.3,0.7,2,1.1   C169.5,591.1,171.2,592.4,170.9,594.5z" />
	<path fill="#2A281F" d="M806.2,148.3c-1.2,0.4-1,1.5-1.2,2.3c-0.9-3.1-1.3-6.4-1.8-9.6c1.7-1.1,0.7-3.7,1.1-5.5   C805.4,139.7,805.7,144,806.2,148.3z" />
	<path fill="#554A48" d="M647.3,466.7c-0.7-0.3-1.4-0.6-2.1-0.9c3.5-1.4,7-2.7,10.4-4.1c0.4,0.7,0.7,1.3,1.1,2   C653.4,464.1,650.4,465.3,647.3,466.7z" />
	<path fill="#3E3332" d="M560.3,481.6c0.7,0.3,1.4,0.6,2,0.9c-2.8,1-5.6,2-8.4,2.9c-0.7-0.3-1.5-0.7-2.2-1   C554.4,482.7,557.4,482.4,560.3,481.6z" />
	<path fill="#2B2824" d="M89.3,579.8c-0.5,0.4-0.9,0.9-1.4,1.3c-2.3-0.9-3.2-2.8-3.4-5.1c0.8-0.4,1.9,1.4,2.5-0.4   c1.5,0.6,2.1,2.6,4.1,2.3l-0.1-0.1C90.5,578.5,89.9,579.2,89.3,579.8z" />
	<path fill="#635E51" d="M771,200.2c0.4-0.3,0.8-0.6,1.2-1c0.6,1.3,1.1,2.6,1.6,3.9c-0.2,0.7-0.5,1.4-0.7,2.2   C771.5,203.9,771.1,202.1,771,200.2z" />
	<path fill="#808279" d="M151.3,589.3c-0.2-0.6-0.4-1.1-0.6-1.9c1.6,0,2.8,0.5,3.8,1.8c-1.4,0.2-1,1.3-1,2.1   C152.7,590.6,152,590,151.3,589.3z" />
	<path fill="#2D2422" d="M474.1,582.2c0,0.5,0,1.1,0,1.6c-1.1,0.1-2.1,0.1-3.2,0.2c0.3-0.6,0.7-1.2,1-1.8   C472.6,582.2,473.4,582.2,474.1,582.2z" />
	<path fill="#A5BFBF" d="M168.7,589.4c-0.7-0.4-1.3-0.7-2-1.1c1.1-1.4,1.6-1.4,3.4-0.2C169.7,588.6,169.2,589,168.7,589.4z" />
	<path fill="#FF9A77" d="M431.6,440c-1.3,1.1-2.8,0.6-4.2,0.7C428.6,439.3,430.2,439.9,431.6,440z" />
	<path fill="#342B17" d="M775,150.2c0.1,1.2,0.6,2.5-0.9,3.3C774.4,152.4,774.7,151.3,775,150.2z" />
	<path fill="#838989" d="M433.7,537.3c-0.6,0-1.2-0.1-1.7-0.1c0-0.2,0-0.3,0-0.5c0.6-0.1,1.1-0.2,1.7-0.3   C433.6,536.7,433.6,537,433.7,537.3z" />
	<path fill="#2D2422" d="M477.6,582.9c-1,0.1-2,0.4-2.5-0.8C476,582.4,476.8,582.7,477.6,582.9z" />
	<polygon fill="#E6B611" points="793.1,319.1 793,318.9 793.3,319 793.3,319.2  " />
	<path fill="#F6D9C7" d="M473.1,483.5c-2-13.9-11.3-28.8-6-42.6c22.5-0.8,45.7-0.4,68.2,0c13.8,0.2,27-6.9,40.6-2.1   c45.4-11.2,95.8-8.5,139.2-24.1c4,3.9,11.1,7.5,9,14.9c-27,2.5-48.6,18.6-73.6,28c-22.1,6.5-45.2,12.3-68.2,10.4   c1.3-3.1,3.8-5.4,3.7-9c-19.5,3.4-36.8,19.5-57.7,19.1c5.6-4.1,14.6-4.8,17.2-12.1C520.9,468.1,497.2,478.2,473.1,483.5z    M571.2,443.2c-0.9-0.1-1.8-0.2-2.7-0.2c-2.2-4.2-7.9-2.9-11.6-3.1c-4.3,7.9-15.9-2.2-20.1,4.1c6.4,4.1,14.9,1.4,22.3,2.2   c2,2.3,8.3,0.4,10.4-1C571.1,445.4,574.2,443.6,571.2,443.2z M613.8,455.9c-1.6-2.7-15.6-0.9-19.5,0.1   C599.9,459.3,607.6,456,613.8,455.9z M626,452.6c0,0.2,0,0.4,0,0.7c0.8,0,1.6,0,2.4,0c0-0.2,0-0.4,0-0.7   C627.6,452.6,626.8,452.6,626,452.6z M638.9,451.2c0-0.2,0-0.5,0-0.7c-0.8,0-1.7,0-2.5,0c0,0.2,0,0.5,0,0.7   C637.2,451.2,638,451.2,638.9,451.2z M622,454.1c0-0.1,0-0.3,0-0.4c-0.4,0.1-1.2-0.3-1.2,0.3C621.3,454.1,621.7,454.1,622,454.1z" />
	<path fill="#4C505E" d="M782.3,322.8c2.2,0.1,4.3,0.2,6.8,0.4c1.7,46.4-14.4,94.6-23.7,140.4c-7.8-0.9-16-1.7-23-5.3   c15-43.5,25.3-90.9,37.7-135.5c0.1,0.6,0.2,1.1,0.5,2.3C781.4,324,781.9,323.4,782.3,322.8z M759.2,408.9   c4.5,2.3,11.5,3.8,14.4,3.4C769.9,409.7,764.9,409,759.2,408.9z M775.9,389.8c-3.1-1.9-6-1.8-8.9-1.9   C769.5,389.9,772.3,390.5,775.9,389.8z M750.3,460c1.7,0.7,1.7,0.7,1.5-1.4C751.3,459.1,750.9,459.5,750.3,460z" />
	<path fill="#E1C7B6" d="M473.1,483.5c24.1-5.2,47.7-15.4,72.5-17.5c-2.7,7.3-11.6,8-17.2,12.1c20.9,0.4,38.1-15.8,57.7-19.1   c0.1,3.6-2.3,5.9-3.7,9c40.4,3.6,78.6-14.5,113.9-31.1c-0.2,0.5-0.4,1.1-0.9,2.3c2.8-1.3,4.3-1.7,6.4-3c-0.1-0.2-0.1-0.4-0.2-0.6   c-1.1,0.1-2.2,0.3-3.4,0.1c2.1-1.5,4.8-1.1,7.2-2.1l0.2,0.2c-0.2,0.5-0.5,1.1-0.9,2c1.9,0.1,3.9-0.9,5,1   c-43.6,18.3-88.1,44.6-137,35.5c-1.6,0.7-3.1,1.4-4.9,2.2c0.1,1.2,0.2,2.3,0.4,3.6c-28.2,10.3-58.2,18.5-88.1,23.7   C474.7,497.1,474.6,490,473.1,483.5z M560,475.1c0-0.4,0-0.7,0-1.1c-1-0.4-1.9-0.3-2.8,1.1C558.2,475.1,559.1,475.1,560,475.1z" />
	<path fill="#F7EFD0" d="M722.1,440.9c12-10.9,3.8-26.1-7.9-33.1c-1.1,0.5-2.1,1-3.3,1.5c-0.9-0.3-2-0.7-3.3-1.2   c0.4-1.5,0.7-2.8,1-4.1c4.5-2.3,8.9-4.6,13.6-7c4.5,4.9,11.3,4.6,16.7,7.9c-0.8-5.1-1.6-5.8-10.6-10.4c1.7-0.8,3.2-1.6,4.4-2.2   c4.8,1.7,9.3,3.3,14.2,5c0-4.9-3.3-7.2-6.3-9.5c0.6-1.1,1.1-1.3,2.1-1.8c2.8,3.8,6.8,4.1,11.2,5c-1-4.4-2.3-5.7-7.6-7.8   c0.8-1.8,1.7-3.3,4-3.4c0.8,3.7,2,4.4,7,3.9c-2.8-4.3-3-4.4-7.2-3.7c0.4-1,0.8-2,1.4-3.3c0.6-0.1,1.6-0.3,2.9-0.6   c-0.4-0.8-0.7-1.5-1-2.4c9.1-9,2-17,13.4-22.1c0.3,0.1,0.6,0.2,1,0.3c-6.2,33.1-15.5,66.6-26.8,98.4c-7.5-5.7-7.4-7.8-18.4-7.6   C722.3,441.9,722.2,441.4,722.1,440.9z" />
	<path fill="#F2BE10" d="M803.2,141c1.2,15.7,15,31.2,8.8,47.1c-2.1-0.9-4.3-1.7-6.2-2.5c-17.6,9.8-12.8-66.7-12-76.7   c2.3,0.2,4.6-0.4,6.9,0.4C801.9,119.9,800.1,130.6,803.2,141z M801.9,174.1c1.6,0.1,3.2,0.5,5.1-0.3c-1.8-0.9-3.4-0.5-5-0.4   c-1.9-0.3-3.8-2-6.2-0.3C797.4,175,799.7,173.9,801.9,174.1z M796.7,165.2c4,2.1,7.5,1.4,10.9,0.9   C804.4,164.7,801,164.3,796.7,165.2z" />
	<path fill="#E1A50F" d="M791.7,172.2c2.5,7.7,3.8,15.7,0.4,23.6c-4.7-10.2-1.3-22.2-5.5-32.2c-2.2,42.4-7.1,83.7-12.7,125.7   c-2.7-60.5,14.3-122.1,14.2-183.3c1.2-0.1,2.3-0.2,3.5-0.3c-3,20.4-2,42.1,1.3,62.1c-0.2,0.3-0.2,0.6-0.2,1   C790.8,169.5,789.8,170.1,791.7,172.2z" />
	<path fill="#F1BE10" d="M800.9,33.1c0.4,0.3,0.7,0.6,1.4,1.2c-3.3,1.6-6.7,0.3-9.9,1.1c-1.2,1.5-0.5,3.4-0.7,5   c0.8,0.7,1.4,1.3,2,1.8c-0.8,0.3-2.1-0.1-1.9,1.8c1.9,1,4,0.5,6.1,0.4c0.4,0.3,0.8,0.6,1.2,1c-2.2,0-4.4,0-7,0   c-0.1,1.5-0.2,2.6-0.2,3.4c4,1.5,9.1,0.1,13.5,0.6c0.6-1,1.2-1.9,1.9-2.9c-1,14-2,28.1-3.8,42c-4.7,3.4-9.9,3.1-15.3,3.5   c0.5-8.5,1.1-16.8,1.6-25.5c5.2-2,9.4-1.7,14.8-4.4c-6-0.5-9.5,1-14.6,1c0-3.5,0-6.7,0-10.2c5.6,0,10.3-0.5,15.6-1.8   c-5-0.8-10,0-14.9-1.2c0-5.2,0-10.4,0-15.5C794.1,33.9,798.2,35.4,800.9,33.1z" />
	<path fill="#DDA20F" d="M773.8,203.1c-4.5-17.2-0.7-36.7,3.6-53.7C780.1,166.8,775.2,185.5,773.8,203.1z" />
	<path fill="#F2EBCC" d="M746.9,371.3c0.5-5.1,0.9-10.2,1.4-15.9c3.5-3,7.6-6.6,13.1-4.8c-9.3,8.6-1.1,13.9-13.4,23.9   C746.5,373.8,747.5,372.3,746.9,371.3z" />
	<path fill="#E9DAB6" d="M722.1,440.9c0.1,0.5,0.2,1,0.4,1.8c11-0.2,10.9,1.9,18.4,7.6c0,2-1.5,3.3-2.4,4.9   c-7.9-1.5-14.3-5-18.9-11.5C719.8,442.2,720.8,441.5,722.1,440.9z" />
	<path fill="#E6B611" d="M779.5,308.2c3.9-0.7,7.8-1.4,12-2.2c0.1,4.3,0.3,8.4,0.4,12.8c-4.1,1.6-8.4,0.1-12.4,1.9   c-1.6-3.4-0.9-6.3-1-9.2c3.6,0.3,7.2,1.2,10.8,0.2C787,308.3,782.2,311.3,779.5,308.2z" />
	<path fill="#171205" d="M792.9,167.9c-0.7-2.1,0.8-4.6-1-6.2c-2.1-18.5-3.1-37.5-0.3-56c0.7,0,1.5,0,2.2,0c-1.7,20.3-1.4,41,0.1,61   C793.5,167.2,793.2,167.6,792.9,167.9z" />
	<path fill="#484B58" d="M776,325.6c-2.2,8.1-4.2,15.7-6.7,23.9c-0.7,0-1.5-0.1-2.1-0.1c1.1-8.7,3.2-17.6,3-26.7   C771.5,324.8,773.7,325.4,776,325.6z" />
	<path fill="#DCA210" d="M776,325.6c-8.6,0.1-5.8-9.6-5.8-15.4c1.6-0.6,3-1.2,4.7-1.9C775,314.2,776.3,319.7,776,325.6z" />
	<path fill="#D6BCAC" d="M709.7,436.8c-0.4-1.2-1.4-1.1-2.4-1.2c0.1-0.7,0.3-1.3,0.4-2c0.7,0.1,1.4,0.1,2.2,0.2   c1.2,2.1,8.9,1.1,6.5-2.4c-0.7,0-1.7,0-2.6,0c3.2-1.7,7-0.2,10.4-1.9c-0.3,4.9-1,6.3-5.3,10.2c-1.5-0.2-3.1-0.4-4.8-0.6   c-0.2-0.7-0.3-1.4-0.5-2.3C712.4,436.8,711,436.8,709.7,436.8z" />
	<path fill="#98700C" d="M785.4,123.3c-0.4,6.3-0.7,11.6-1.4,18.1c-0.8-4.2-0.8-26.1-0.1-31.2c0.6-0.1,1.2-0.2,2-0.3   c0.8,2.6,0.9,5-0.3,7.4c-0.1-2-0.3-3.9-0.4-5.9C785.1,115.2,783.6,120.2,785.4,123.3z" />
	<path fill="#D9A70F" d="M793.8,108.9c0-1,0-2.1,0-3.1c2.7,0,5.4,0,8.4,0c-0.1,2.8,0.3,5.3-1,7.6c-0.1-1.3-0.3-2.6-0.5-4.1   C798.4,108.5,796.1,109,793.8,108.9z" />
	<path fill="#D8A00F" d="M803.5,102.4c-2.1-0.1-4.2-0.2-6.4-0.3c0-1.2,0-2.2,0-3c1.6-1.4,3.2-1.7,5.3-1.5   C801.8,99.6,801.9,100.9,803.5,102.4z" />
	<path fill="#381B07" d="M779.5,308.2c2.8,3.1,7.5,0.1,9.7,3.6c-3.6,1-7.2,0.1-10.8-0.2C778.4,310.3,777.4,308.8,779.5,308.2z" />
	<path fill="#B0800D" d="M777,302.7c-0.5,1.2-1,2.4-1.7,3.8c-1.2,0.2-2.5,0.4-3.6,0.5c-1.5-1.5-1.1-4.3,1.1-5.1   c0.2,0.5,0.5,1,0.9,1.8c0.7-0.9,1-1.4,1.4-1.9C775.7,302.1,776.4,302.4,777,302.7z" />
	<path fill="#BF8E0F" d="M778.3,156.9c-0.2-2.5,0.4-5.2-1-7.5c0.4-2.3,0.8-4.5,1.2-6.8c0.2,0,0.4,0,0.6,0.1   C779.1,147.4,780.2,152.4,778.3,156.9z" />
	<path fill="#A57A0C" d="M772.8,286.1c0.5,1-0.3,2.5,1,3.3c0.4,3.6-1.3,6.8-0.9,10.4C770.3,297,772.1,290,772.8,286.1z" />
	<path fill="#0D0A02" d="M771.8,293.6c-0.2,3.7-0.5,7.1,4.3,6.5c0,0.3,0,0.5,0,0.8c-1.1,1-1.4,1.6-2.4,3c-0.4-0.8-0.6-1.3-0.9-1.8   c0.2-0.2,0.4-0.5,0.6-0.8c-0.7-0.3-1.5-0.6-2.4-1C771.3,298.1,769.9,295.7,771.8,293.6z" />
	<path fill="#22211A" d="M800.9,33.1c-2.7,2.3-6.8,0.7-10.1,1.2c0-0.9,0-1.7,0-2.6C794.1,32.2,797.5,32.7,800.9,33.1z" />
	<path fill="#56380B" d="M775.1,301.8c0.3-0.3,0.7-0.7,1-1c1.7,0,3.5,0,5.2,0c-1.7,1.7-3.9,3.9,0.2,4.4   C777.6,307.8,778.6,302.2,775.1,301.8z" />
	<path fill="#2C0703" d="M793.6,63.1c3.2-1.3,6.6-0.9,11.1-1c-2.8,1.5-4.7,2-6.8,2C796.8,62.5,795,63.6,793.6,63.1z" />
	<path fill="#A68915" d="M781.5,305.2c-0.9-0.3-2.1,0-2.2-1.4c4,0.1,8,0.8,12-0.5c0.2,0.8,0.3,1.3,0.4,1.7   C788.3,305.1,784.9,305.1,781.5,305.2z" />
	<path fill="#DCA20F" d="M785.4,123.3c-1.8-3.1-0.3-8.1-0.2-11.8C785.6,115.4,785.6,119.4,785.4,123.3z" />
	<path fill="#755613" d="M810.9,92.7c-2.3,1-4.7,0.6-7,0.2C806.2,92,808.5,92,810.9,92.7z" />
	<path fill="#57420B" d="M788.2,102.4c-1.4-1.8,0.5-3.5,0.9-6.6C789.7,98.8,790.1,100.7,788.2,102.4z" />
	<path fill="#9E9480" d="M746.9,371.3c0.6,1-0.4,2.5,1.1,3.2c0.3,1.3,0.2,2.4-1.7,2.8C745.9,375.2,745.6,373.2,746.9,371.3z" />
	<path fill="#9D7B10" d="M812.9,96.4c-0.8,1.3-1.2,2-2.2,3.5C810.5,96.8,809.7,96.8,812.9,96.4z" />
	<path fill="#B38010" d="M793.9,98.8c0-1.6,0-2.5,0-3.5c0.7,0.2,1.2,0.3,1.8,0.4C795.2,96.6,794.7,97.4,793.9,98.8z" />
	<path fill="#BDA91D" d="M782.3,322.8c-0.4,0.6-0.9,1.2-1.7,2.3c-0.3-1.2-0.4-1.7-0.5-2.3C780.9,322.8,781.6,322.8,782.3,322.8z" />
	<path fill="#484B58" d="M767.7,351.9c-0.3-0.1-0.6-0.2-1-0.3c0.2-0.2,0.5-0.4,0.7-0.5C767.5,351.3,767.6,351.6,767.7,351.9z" />
	<path fill="#F6D9C7" d="M470.9,584c5.3-0.2,11.6,1.8,15.6,5.2c-13.5,0.7-26.3-3.1-40-2.3c7.3,7.2,21-1.4,29.6,6.2   c-20.5-3.7-44.3,7.4-60.9-8.9c-44,4.6-87.2-5-130.9-7.3c-1.3-0.7-1.7-2.5-3.5-2c-2.2-0.5-4.3-2.5-6.1-3.3   c-7.8,2.1-13.5,7.9-21.7,8.4c-5.9-0.9-15.9,1.7-20.1-1.1c3.3-1.6,5.6-4.5,7.5-8.4c-18-3.6-21.4,13.6-47.7-0.8   c-9.4-13.6,9.4-23.9,16.9-32.9c8.5-8.3,21.6-14.3,33-8.6c-4.1,5.2-8.9,10.6-15,13.3c-2.7,0.2-4.5,2.4-4.7,5   c12.4-4.3,29.5,2.5,43,3.9c22.6,7.5,46.9,5.7,70.1,8.5c22.9,7.9,45.5,15.2,69.8,14.4C427.1,578.7,449.1,583.9,470.9,584z    M213.6,541.4c1.7,0.1,3.4,0.4,5-0.4c0-0.4,0.1-0.7,0.1-1.1c-2.8-0.5-10.7-0.7-11.1,2.3C209.7,541.9,211.6,541.7,213.6,541.4z    M319.4,569.7L319.4,569.7c-7.7-5.4-15,8.7,10.4,3c1.8,0,5.5,2.6,5.8-0.4C330.1,571.7,325,569.1,319.4,569.7z M350.1,573.4   c-1.9-2-1.9-2-4.7-0.7C346.8,574.5,348.5,573.6,350.1,573.4z M291.1,571c-1.6-0.6-2.9-0.7-4.3,0C287.4,573.6,289.8,572.4,291.1,571   z M337.3,573.1c2,1.8,2,1.8,4,0.6C340.1,572.4,338.8,572.4,337.3,573.1z M229.9,536.3c0.3-0.1,0.5-0.2,0.8-0.4   c-0.2-0.5-0.7-0.3-1.2-0.2C229.7,535.9,229.8,536.1,229.9,536.3z M226.8,534.9c-0.6-0.7-1.1-0.5-1.6,0.1   C225.8,535.5,226.3,535.4,226.8,534.9z" />
	<path fill="#FF9A77" d="M378.6,514.6c-1.7-18-0.3-36.7-7.3-53.7c19.1-5.1,37.4-12.5,56.4-18.7c0.6,0.4,1.3,0.8,2.2,1.5   c11-1.6,22.2-3.3,33.8-2.8c-4.7,15.9,5,31,4.6,46.2C441.6,505.9,410.5,512.6,378.6,514.6z M457.1,483.4c0.6,1.6,1,3.5,3.2,4.3   c0.3-2.1-1.3-3-1.8-4.3c-0.9-1.2-1.1-2.9-3.6-4.2C456,481.2,456.6,482.3,457.1,483.4z M393.1,488.6c2.4-0.7,4.9-1.3,7.3-2   c2,2.6,1.5,5.6,4,8.3c-2-7.7-3.2-18.2-8.1-23.7c1.4,5,2.6,9.5,3.9,14.1c-6.5,2.7-14.5,1.2-20.1,5.2   C385.1,491.2,389.1,489.8,393.1,488.6z M406.3,484.7c0.1-2.7,0.8-5.4-0.7-8.1C403.9,479.4,404.7,482.1,406.3,484.7z M429,481   c0-0.2-0.1-0.4-0.1-0.5c-1.5,0-3,0-4.6,0c0.1,0.7,0.2,1.1,0.4,1.8C426.2,481.8,427.6,481.4,429,481z M413.1,482.6   c0.9-1.9,1.1-3-0.3-4.8C412.9,479.7,413,480.8,413.1,482.6z" />
	<path fill="#F6D9C7" d="M305.8,528.8c2.5-2.4,3.2-5.6,4.3-9c1.6-0.8,0.8-2.7,1-4.1c2.3-1.7,0.5-4.4,1-7.1   c-5.3,2.2-5.2,8.2-9.5,11.2c-6.4-15.1-11.3-30.3-17.3-45.6c27.3-8.8,55.9-0.5,82.7-11.8c3.6,7.2,5.6,14.3,5.4,22   c-7.9,2-22,6.4-22.4,15.3c1.1,0.5,2,0.6,2.4-0.8l0,0c1.5-0.6,3.4-0.5,4.1-2.1c0,0,0,0,0,0c5-1.6,9.5-5.2,14.9-4.9   c3.7,7.2,3.7,16.9,1.9,24.7c-9.3-0.5-17.6,0.7-27,1c1.6-2.4,3.9-3.8,3.8-6.6c-9.5,5.9-18.4,13.8-29.9,16c-0.1-2.4,0.9-4.9-0.5-7.1   c-6.3,1.9-8,8.7-14.2,10.1C306.4,529.6,306.1,529.2,305.8,528.8z M322.5,472.1c2.1,1.8,5.3,1.3,7.3,3.1c2.5-0.4,13.8,1.5,12.4-1.9   c-4.2-0.3-8.4,2.1-12.4,0.1c-1.8-0.5-11.2-4.6-11-1.6C320,471.8,321.3,471.9,322.5,472.1z M348.3,472.9c-0.6,0.2-1.4,0-1.5,1   c2.6-0.4,9.5,0.9,9.1-3C353.4,471.9,350.7,471.6,348.3,472.9z" />
	<path fill="#FFF0A7" d="M210.5,506.4c3.9-21.4,32.3-42.4,50.8-24.8c7.5,0.2,13.5-4.7,20.5-6.9c6.9,15.2,11.5,31.3,17,47   c-9.9,6-19.8,16-31.1,19.8c-4.5-4.5-8.3-9.7-13.8-13.3c-0.1-0.7-0.3-1.3-0.4-2c21.9-0.9,21-28.4,8.7-40.6c-1.7,0.2-3,0.1-4.8,0.1   c6.6,13.8-1.4,26.4-8.5,39.1c-26.1-6.7-33.2,4.2-52,18.8c-0.4-0.4-0.8-0.7-1.1-1.1C200.9,530.5,204.9,518.2,210.5,506.4z" />
	<path fill="#EF8A6A" d="M378.6,514.6c16.4-2.3,33.5-3.2,49.8-7.1c12.4-5.1,23.9-11.4,35.8-17.5c1.9-1.4,4.7-2,4.9-4.7   c2.2,5.5,3,11.7,6.7,16.5c-2.6,1.1-5.1,2.1-7.9,3.2c-17.4,31-58.4,37.2-89.7,26C377.1,527.4,377.3,520,378.6,514.6z M464.7,495.2   c1.7,6.4,2.3,7.1,5.4,6.6C468.4,499.9,466.9,498.1,464.7,495.2z" />
	<path fill="#E1C7B6" d="M321.3,527c11.5-2.3,20.4-10.1,29.9-16c0.2,2.8-2.2,4.2-3.8,6.6c9.4-0.3,17.6-1.5,27-1   c-0.6,4.6,2,10.1-1.9,13.7c-21.8-3.3-43.9,5.6-63.2,15.3c-1.9-2.2-2.4-4.6-2.3-7.5c1.1-0.9,2.2-1.9,4-3.4c-1.8,0.5-3,0.8-4.5,1.2   c-0.4-2.3-2.1-4.8-0.7-7c0.3,0.4,0.6,0.8,0.8,1.1c6.2-1.4,7.9-8.2,14.2-10.1c1.2,1.6,0.5,3.5,0.6,5.2c-2.1,1.3-2.1,1.3-2.3,3.1   C319.9,527.8,320.6,527.4,321.3,527z M317.1,530.9c-2.6,0.5-2.6,0.5-2.2,2.1C315.7,532.2,316.4,531.6,317.1,530.9z" />
	<path fill="#F5D8C6" d="M336.9,538.2c24.8-12.2,49.6,0.5,74.9,2c19.2-3.3,37,2.6,55.3,8c-9,5.1-19.5-3.7-28.5-2.4   c2.8,2.2,6,2.6,8.7,3.9c0,1,0,2,0,3.3c-16.2-3.7-25.2,2.9-39.5-7.7c0.1-0.3,0.3-0.8,0.6-1.4c-14.2-2.6-26.4-7.2-41-4.4   c-12.4,2.4-23.7,9.1-36.9,6.6C332.9,544,339.6,543,336.9,538.2z M432,543.1c0.7,2,2.1,1.7,3.6,1.4   C434.7,543.2,433.7,542.5,432,543.1z" />
	<path fill="#E0C6B5" d="M336.9,538.2c2.7,4.7-4,5.8-6.4,7.9c28.9,0.9,43.4-15.3,75.3-2.3c-7.1,4.6-18.4,1.2-26.9,2.3   c-24.6,7.1-49.2,4.8-74.2,5.7C314.6,545,325,539.7,336.9,538.2z M396.2,542.8c-2,0-3.3,0.4-4.6,1.7   C395,544.8,395,544.8,396.2,542.8z" />
	<path fill="#EBDA8F" d="M267.7,541.5c11.2-3.8,21.1-13.8,31.1-19.8c3.8,8.4,4,17.3,6.8,26.1c-2.9,1.6-6.2,3.4-9.8,5.4   c-7.9-0.7-16-2.6-23.9-4.4C271.3,545.9,269.4,543.8,267.7,541.5z" />
	<path fill="#DFC5B4" d="M228.2,544.6c-1.6,0.6-3.2,1.1-5.2,1.8c0.2-2.6,2-4.8,4.7-5c6.1-2.7,10.9-8.1,15-13.3   c4.5,0.9,8.5,3.1,12.3,5.6c-0.6,2.8-3,3-2.7,6.2c2.3-1.7,3.8-2.8,5.9-4.2c3.3,2.2,6.7,6.1,9.3,11c-11.8-0.8-23.5-4.3-35.2-4.9   c0.9,1,1.6,1.9,2.3,2.7c-1.5,0-3,0-4.4,0c0.1-0.5,0.1-1,0.2-1.8c-1.5,0.1-3.1-0.9-4.1,0.4C226.9,543.7,227.5,544.2,228.2,544.6z    M250.5,540.2c-0.4-0.7-0.7-0.6-1.3-0.2C249.5,540.7,249.9,540.5,250.5,540.2z" />
	<path fill="#E0C6B5" d="M362,495.1c-1.4,0.6-2.9,1.2-4.3,1.7c-0.4-0.9-1-1.2-2.1,0c0.9,0,1.5,0,2.1,0c-0.8,1.6-2.7,1.5-4.1,2.1   c-0.4-1-0.9-1.3-2-0.1c0.9,0.1,1.5,0.1,2.1,0.1c-0.5,1.4-1.4,1.3-2.4,0.8c0.4-8.9,14.4-13.3,22.4-15.3c1.6,3.2,0.8,6.9,0.8,10.4   c-0.6-0.9-1.1-1.9-1.8-3c-3.1-0.8-5.5,1.8-8.5,1.9C362.7,491.9,360.1,494.2,362,495.1z" />
	<path fill="#DFC4B4" d="M310.1,519.9c-0.4,1.1-0.8,2.2-1.2,3.3c-1.5,1.2-3,2.4-4.9,2.7c-0.4-2-0.9-4-1.3-6c4.4-3,4.2-9,9.5-11.2   c0,1.5,0,2.7,0,3.8c-2.2,1.4-2.3,1.7-1,3.2c0,0.7,0,1.4-0.1,2c-0.6,0.2-1.2,0.4-1.8,0.6C309.6,518.8,309.8,519.4,310.1,519.9z" />
	<path fill="#977E7E" d="M316.4,553.3c3.3-0.4,6.4,0.1,9.6,1.5c-2.5,0.4-5,0.3-7.5,0.2C317.8,554.4,317.1,553.9,316.4,553.3z" />
	<path fill="#75625A" d="M304,525.9c2-0.3,3.4-1.5,4.9-2.7c-0.3,2-0.9,3.9-2.9,4.9C305.4,527.1,303.8,527.3,304,525.9z" />
	<path fill="#2D2422" d="M467.8,584c-2.8-0.3-5.8,0.6-8.5-0.8C462.2,583.3,465.3,582.3,467.8,584z" />
	<path fill="#784141" d="M316.4,553.3c0.7,0.5,1.4,1.1,2.1,1.6c-1.2,0-2.4,0-3.7,0C314.9,553.6,315.4,553.2,316.4,553.3z" />
	<path fill="#C6AA9C" d="M469,546.7c0.1-2.4,2.5-1.3,3.8-0.6c-0.4,0.4-0.6,0.7-0.8,0.9C470.9,546.9,469.9,546.8,469,546.7z" />
	<path fill="#B0B0A2" d="M461.8,544.6c0.8-1.4,1.7-0.9,3.4-0.1c-1.3,0.2-1.9,0.3-2.6,0.3C462.3,544.7,462.1,544.6,461.8,544.6z" />
	<path fill="#E1C6B5" d="M259.2,578.9c5.3-2.7,9.7-5.6,15.5-7.3c1.5,0.9,3.4,2,5.3,3.1c-1,0.1-2,0.3-3.5,0.5   c2.5,1.3,2.5,1.3,5.2,0.9c-0.3-0.4-0.5-0.8-0.8-1.2c43.2,6.8,89.7,12.5,134.4,9.3c3.7,3.9,9,5.7,13.2,8.3c-6.1,0-11.5-3-17.2-4.9   c-36.9,3.9-74.7-2.5-111.7-4.6c-0.1-0.7-0.2-1.2-0.4-2.1c-33.6,3.8-67.8,5.3-100.8-3c-2.5-2.7-4.5-5.2-5.8-8.3   c26.4,14.5,29.6-2.8,47.7,0.8c-1.9,3.9-4.1,6.7-7.5,8.4c0,0.7-0.2,0.9,0.5,1c6.6,0,13.1,0.1,19.7,0.1c1.3,5.2,17.4-0.3,20.7-3   C268.7,576.9,264.4,579.3,259.2,578.9z" />
	<path fill="#F5D9C7" d="M201.2,513.8c0.7-0.8,1.3-1.5,2-2.3c1.2,0.3,0.9,1.3,1,2.1c-5,11.7-9.2,23.8-14.6,35.3   c-8.3-5.1-18.5-4.8-27.6-4.6c-0.4-0.7-0.8-1.4-1.3-2.4c4.6-4.8,9.2-6.3,15.1-9.6c-2.2,0-3.2-0.2-3.8,0.9c-0.7,0-1.4,0.1-2.1,0.1   c2.5-4.8,5.3-9.5,7.3-14.5C185.1,518.1,198.8,524.6,201.2,513.8z M177.5,542.2c2.5,0.6,2.5,0.6,4.4-0.2   C180.4,541.6,179,541,177.5,542.2z M177,531.2c0.7-0.5,1.3-1,2.1-1.7C177.4,528.7,176.6,529.1,177,531.2z M182.8,528   c0-0.3-0.1-0.6-0.1-0.9c-0.6,0.1-1.2,0.2-1.7,0.4c0,0.2,0,0.4,0.1,0.5C181.6,528,182.2,528,182.8,528z" />
	<path fill="#EADA8F" d="M247.6,525.1c0.5-0.1,1-0.2,1.3-0.3c7.2-12.6,15.1-25.3,8.5-39.1c1.2,0,2.2,0,3.2,0c1.1,4.1,3.8,8.1,6.8,11   c0-1.2,0-2.1,0-2.9c8.5,11.8,2.3,32.5-13.9,32.3c0.2,0.7,0.3,1.4,0.4,2C251.8,527.2,249.7,526.1,247.6,525.1z M269.1,502.4   c-0.6,1.6-0.6,1.6-0.1,3.4C269.6,504.1,269.6,504.1,269.1,502.4z M268.5,508.3c-0.2-0.2-0.4-0.3-0.6-0.5c-0.4,0.6-0.5,1,0.3,1.3   C268.3,508.8,268.4,508.6,268.5,508.3z" />
	<path fill="#FDFDFD" d="M193.9,576.9c-3.1,1.9-7.6-1.9-11.8-2.4c-7.4-12.2-24.3-11.2-37-10.6c5-4.7,11.7-3.9,16.8-7.3   c7.4-3.2,16.9-0.8,25-1.5C185.9,563.2,187.6,571.4,193.9,576.9z" />
	<path fill="#DFC4B3" d="M165.8,537.4c-1.7,1.5-3.3,2.9-5.1,4.4c0.5,1,0.9,1.8,1.3,2.4c9-0.2,19.2-0.5,27.6,4.6   c-0.4,1.1-0.7,2.2-1.2,3.7c-2.5-2.7-5.7-2.8-8.5-2.1c-6.5,1.6-13.2,1-20,2.6c-1.1-1.4-1.9-3.2-3.6-4.1c-0.2,0.1-0.6,0.1-0.8,0   c0.7-3.1,2.2-6-1.1-8.4l-0.1,0.1c4.9,0.2,8.1-1.9,10.5-6.2c0.4,0.3,0.7,0.7,1.1,1C165.8,536.1,165.8,536.7,165.8,537.4z" />
	<path fill="#CAB798" d="M137.9,562.4c-1.4,0.7-2.8,1.5-4.2,2.2c-0.6-0.1-1.3-0.3-1.8-0.4c-0.2-1-0.4-1.8-0.6-2.8   c-1.2,1.1-2.1,3.9-3.9,2.3c0.4-2.2,4-6,1.1-7.5c0-1.1,0-2.2,0-3.3c3.3,3.6,9.3,1.6,12.5,5.4C139.9,559.7,138.9,561,137.9,562.4z" />
	<path fill="#F1DFBE" d="M172.7,576c-6.3-3.6-12.8-7.1-20.5-7.7c7.2-2.2,15.2,0.9,22.6,1.5c1.2,1.3,2.4,2.6,3.5,3.9   C176,573.3,174.3,574.4,172.7,576z" />
	<path fill="#CDB99A" d="M112.8,570.3c-0.2-0.3-0.1-0.5,0.1-0.7c4.4-0.9,9.4,2.3,13.4-0.1c2.1-0.5,4.5-3,6.3-0.9c0,0.3,0,0.5,0,0.8   c-2.3,0.2-10.7,3.2-4.1,3.3l0,0c0,0.3,0,0.6,0,0.9c-1.4,0.6-3.2-0.5-4.1,1c-3.5,1.1-6.9,1-10.4,0.1   C112.9,573.4,112.9,571.8,112.8,570.3z" />
	<path fill="#514338" d="M128.5,556.3c3,1.5-0.7,5.3-1.1,7.5c1.8,1.6,2.6-1.2,3.9-2.3c0.2,1,0.4,1.8,0.6,2.8   c0.5,0.1,1.2,0.2,1.8,0.4c-2.4,1.4-5.3,0.4-7.2,2.8c-1,0.5-2.4-0.4-3.1,1c-1.2,0.1-2.5,0.5-3.4-0.8c0.5-0.1,0.9-0.2,1.4-0.3   c-0.3-0.7-0.2-1.5,0-2.2C125.5,565.3,127.4,559.6,128.5,556.3z" />
	<path fill="#4D3E35" d="M150.2,558.2c-0.6,1.7-1.5-0.7-2.2-1.1c0.9-1.9,2.6-3.5,1.9-6.3c-2.6,2.3-5.2,3.3-8,5.1   c-0.7-0.6-1.4-1.2-2-1.7c2.3-0.1,4-1.3,5.2-3.2c1.4-0.7,2.8-1.3,4.2-2c1,1,1.9,1.9,2.9,2.9C151.6,554,151,556.1,150.2,558.2z" />
	<path fill="#B6A087" d="M150.2,558.2c2-3.4,0.4-9.5,5.2-10.3c0,2.2,0.2,4.6-1.5,6.4c0.6,0.5,1,0.9,1.6,1.6   C153.7,556.5,152.2,557.9,150.2,558.2z" />
	<path fill="#5E4D40" d="M147.1,553.1c0.4-0.4,0.7-0.8,1.1-1.2c0,1.8-1.9,4.4,0.2,5.3c-0.8,1-1.6,1.9-2.4,2.9   c-0.1-0.5-0.2-1-0.3-1.5c-0.2,0-0.3,0-0.5,0.1c0,0.6-0.1,1.2-0.1,1.8c-0.3,0.3-0.7,0.6-1,0.8c-1.3-0.6-2.3-1.3-2.1-3   c0.8-2.1,1,0.6,2.2-0.4C144.8,556.9,145.9,555,147.1,553.1z" />
	<path fill="#B7A294" d="M204.2,513.6c-0.2-0.8,0.1-1.8-1-2.1c1.4-2,2.9-4.1,4.3-6.1c0.5,0,0.9,0,1.4,0   C207.3,508.1,205.7,510.8,204.2,513.6z" />
	<path fill="#D0D9B9" d="M157.8,567.4c-2.2-0.3-4.3,0.6-6.4,0.9c-2.5-2.3-6.2,0.7-8.5-1.8C147.9,566,152.9,566,157.8,567.4z" />
	<path fill="#34251F" d="M141.9,558.4c-0.2,1.6,0.9,2.4,2.1,3c-1.4,0.7-2.9,1.3-4.2,1.9c-0.8-0.4-1.4-0.7-2-1c1-1.4,2.1-2.7,3.1-4.1   C141.2,558.2,141.7,558.3,141.9,558.4z" />
	<path fill="#CCC1B1" d="M486.5,589.2c-0.7-0.6-1.4-1.3-2.1-1.9c3.2,0.8,6.5-3.5,9.1-0.2C491.2,587.8,489,588.8,486.5,589.2z" />
	<path fill="#B48772" d="M143,566.6c2.2,2.4,6-0.5,8.5,1.8c-3.5,0-7.1,0-10.6,0c-0.3-0.6-0.6-1.3-0.9-1.9   C141,566.5,142,566.5,143,566.6z" />
	<path fill="#B7B294" d="M139.9,566.4c0.3,0.6,0.6,1.3,0.9,1.9c-2.8,0.3-5.5,0.7-8.3,1c0-0.3,0-0.5,0-0.8   C134.4,566.8,137.3,566,139.9,566.4z" />
	<path fill="#65705D" d="M123.4,568.4c1.8-1.9,4.9-0.6,7.2-0.7c-1.5,0.6-2.9,1.2-4.4,1.8C125.8,568,124.4,568.7,123.4,568.4z" />
	<path fill="#867D6B" d="M195.7,542.5c0.4,0.4,0.8,0.7,1.1,1.1c-0.3,1.4-1.4,2.1-2.7,3C194.1,544.8,194.5,543.5,195.7,542.5z" />
	<path fill="#514B45" d="M255.3,537.7c-0.9,0.7-1.8,1.3-3.1,2.2c-0.3-2,0.6-2.9,1.6-3.7C254.3,536.7,254.8,537.2,255.3,537.7z" />
	<path fill="#777268" d="M208.8,505.4c-0.5,0-0.9,0-1.4,0c0.7-1,1.5-2,2.2-2.9c0.2,0.1,0.4,0.2,0.6,0.4c-0.3,0.8-0.6,1.7-0.9,2.5   l-0.3,0.1L208.8,505.4z" />
	<path fill="#99937B" d="M145.1,560.5c0-0.6,0.1-1.2,0.1-1.8c0.2,0,0.3,0,0.5-0.1c0.1,0.5,0.2,1,0.3,1.5   C145.7,560.4,145.4,560.5,145.1,560.5z" />
	<path fill="#65705D" d="M133.7,567.6c-0.4,0.3-0.7,0.7-1.1,1c-0.4-0.3-0.8-0.6-1.2-0.9C132.2,567.7,132.9,567.6,133.7,567.6z" />
	<path fill="#B6A087" d="M156.3,549c0.4,0.3,0.8,0.6,1.2,0.8C157.1,549.5,156.7,549.2,156.3,549z" />
	<path fill="#4D3E35" d="M151.1,558c0.4-0.2,0.8-0.4,1.3-0.7C152,557.6,151.6,557.8,151.1,558z" />
	<path fill="#F2BE10" d="M784.4,301c-0.6-0.1-1.2-0.2-1.8-0.3c-0.8-3.1-5.2-1.4-7.5-1.9c2.4-11.2,3.6-22.6,5.4-33.9   c2.9-0.5,6,0.3,9.4-0.9c-2.7-2.3-5.5-0.8-8.6-1.7c-0.1-3.8,0-7.2,0.9-10.7c2.5-1.1,5-0.7,7.6-2.7c-2.9,0-5,0-7.3,0   c0.8-10.4-2.7-21.4,4.1-30c2.7,0,5.5,0,8.4,0c1,27.7-3,55.3-3.4,82.8c-0.9,0-1.7,0-2.5,0C787.5,300.5,785.9,300.8,784.4,301z    M791.7,241.8c-2.5-1.5-4.7-1.8-6.2,1.1c0.6,0.7,1.1,1.2,1.8,2C788.6,243.2,789.8,242.5,791.7,241.8z" />
	<path fill="#E2A60F" d="M797,182.5c1.8,3,4.9,5.1,8.9,3.1c1.9,0.8,4,1.6,6.2,2.5c0.4-0.7,0.9-1.6,1.4-2.4   c0.5,8.5-7.2,13.6-12.7,18.6c-3,0.2-5.7,0.2-7.8-1.5C794.7,196.1,797.7,189.8,797,182.5z" />
	<path fill="#0D0A02" d="M780.4,264.8c-1.8,11.3-3,22.7-5.4,33.9c-3.5-11.4,2.3-24.2,2.8-35.9c2.1-13.2,0.9-27,3.4-40   c0.5,8.8,1.6,16.9,1.1,26.1c2.3,0,4.4,0,7.3,0c-2.6,2-5.1,1.5-7.6,2.7C781.1,255.9,779.7,260.2,780.4,264.8z" />
	<path fill="#E0A50F" d="M794.8,218.8c-2.8,0-5.7,0-8.4,0c-0.7,1.2-1.3,2.1-1.9,3.1c1.2-5.6,0.5-12.4,3.3-17.3   c2.4,1.3,4.8,2.2,7.6,3C795.2,211.4,795,215.1,794.8,218.8z" />
	<path fill="#443208" d="M786.6,178.4c0-4.6,0-9.2,0-14.8c2.9,3.9,1.4,7.4,1.8,11.7C787.8,176.4,787.2,177.4,786.6,178.4z" />
	<path fill="#CD9A0F" d="M785.8,203.2c0.4-3.7,0.7-6.6,1.1-9.7c1.8,2.7,1.6,5.7,2.3,8.9C788.2,202.6,787.2,202.8,785.8,203.2z" />
	<path fill="#47380E" d="M792.9,167.9c0.3-0.4,0.7-0.8,1-1.1c1.2,2,0.8,4.2,0.8,6.4C794.2,171.5,792.3,169.7,792.9,167.9z" />
	<path fill="#47380E" d="M791.7,172.2c-1.4-1.9-1.4-1.9,0.1-3C791.7,170.2,791.7,171.2,791.7,172.2z" />
	<path fill="#302419" d="M797.9,44.5c-2.1,0.1-4.2,0.6-6.1-0.4c-0.2-1.9,1.1-1.5,1.9-1.8c1.4,0.4,2.7,0.8,4.1,1.3   C797.9,43.9,797.9,44.2,797.9,44.5z" />
	<path fill="#835F32" d="M797.9,44.5c0-0.3,0-0.6-0.1-1c1.8-0.1,3.7-0.5,5.3,1.7c-1.6,0.1-2.8,0.1-4.1,0.2   C798.7,45.1,798.3,44.8,797.9,44.5z" />
	<path fill="#342A23" d="M113.9,574.7c1.8,0.3,3.6,0.6,5.4,1c-1.1,0.5-2.6-0.3-3.3,1.2c-0.5,0.1-1,0.2-1.9,0.4   c1.2,0.7,1.7,0.4,1.9-0.4c2.8,0.8,5.4,1.4,8.4,1.1c-5.9,4.2-12.3-1.2-18.6-0.4c-2.9-4.2-10.4,1.1-12.6-3.9c3.1-0.1,6.7,1.7,9.4-0.5   c0-2,0-3.9,0-5.8l-0.1,0.1c1.3-0.3,1-1.3,1.1-2.3c0.7,0.8,1.3,1.5,2,2.3c-1.4,2.1-1.6,4.3-0.8,6.9   C107.8,574.9,110.9,574.8,113.9,574.7z" />
	<path fill="#998D76" d="M132.5,574.7c8.5-0.8,17.2-1.5,25.3,1.8c-8.9,2.3-18.2,0.1-27.4,0.4c0.7-0.6,1.4-1.3,2.1-1.9L132.5,574.7z" />
	<path fill="#CDB99A" d="M157.5,573.8c-9.6-3.1-19.3-1-29.1-1.1c0,0,0,0,0,0c9-4,22.3-4.6,31.7-0.5   C159.2,572.8,158.4,573.3,157.5,573.8z" />
	<path fill="#CCBA9B" d="M175.1,581.3c1.4,1.9,2.9,3.9,4.3,5.8c-0.4,0.4-0.9,0.9-1.3,1.3c-0.2-0.1-0.6-0.1-0.9,0   c-2.8-1.2-5.6-2.4-8.3-3.5c-0.6-1.9-1.3-3.7-1.9-5.7C170,578.7,172.6,579.7,175.1,581.3z" />
	<path fill="#A89B81" d="M151.4,582c-1.4-0.6-2.8-0.5-4.3-0.1c-0.1-0.6,0.1-1.1,0.5-1.6c-0.6-0.2-1.2-0.3-1.3,0.6   c-1.2,0.1-2.5,0.6-3.3-0.8c7-1.3,15.7-1,21.3,3.7C159.2,583.4,155.8,583.2,151.4,582z" />
	<path fill="#BDAC90" d="M158.4,585.3c2.8,3.1,7.2,5.2,8.5,9.3c-4.2-2.8-8.4-5.6-12.5-8.4c0.8-0.4,1.5-0.8,2.3-1.2   C157.2,585.1,157.8,585.2,158.4,585.3z" />
	<path fill="#0A0303" d="M116,576.9c4.4-2.1,10.3-3.1,15.3-3.3c0.4,0.4,1.1,0.7,1.3,1.3c-2.1-0.3-4.1-0.2-5,2.1   C123.5,576.9,119.8,577.3,116,576.9L116,576.9z" />
	<path fill="#7F6153" d="M137.8,581.3c0.1,0.2,0.2,0.4,0.1,0.6c-5.6-3-11.9,1.4-16.9-0.8c1-0.4,2.4,0.3,3.2-1   c5.4,0.4,10.7-1,15.8-0.5C139.1,580.1,137.9,579.9,137.8,581.3z" />
	<path fill="#4E3930" d="M157.5,573.8c0.8-0.5,1.7-1,2.6-1.5c-2.2-2-5.3-1.5-8-2.5c3-2.1,6.5-0.5,9.4,1c0.1,1,0.2,2,0.3,2.9   C160.4,573.7,158.9,573.7,157.5,573.8z" />
	<path fill="#6D8C75" d="M117.3,577c3.4,0,6.7,0,10.3,0c1-2.3,3-2.4,5-2.1C129,579,122,578.7,117.3,577z" />
	<path fill="#D9C3A7" d="M172.7,576c1.5-1.7,3.3-2.8,5.7-2.3c0.2,0.3,0.4,0.6,0.6,0.9c-1.1,0.2-2.2,0.4-3.2,0.6c0,0.2,0,0.4,0.1,0.6   c1.2,0,2.3,0,3.5,0c0.4,0.5,0.7,0.9,1.3,1.6C177.4,578.4,175,577.7,172.7,576z" />
	<path fill="#D4B799" d="M161.8,573.7c-0.1-1-0.2-2-0.3-2.9c3.3,0.4,6.3,1.5,8.4,4.3C167.2,574.6,164.5,574.1,161.8,573.7z" />
	<path fill="#89816B" d="M169.8,577.6c-3.6,1-6.2,0-8.5-2.1C163.7,575.1,164.1,575.2,169.8,577.6z" />
	<path fill="#A39C82" d="M124.2,580.2c-2.8,2-6.9,0.4-10.3,0.6c0.3-0.5,0.6-1.1,0.9-1.6C118,579.6,121.1,580,124.2,580.2z" />
	<path fill="#5D5D4D" d="M165.2,581.2c-3.1-0.7-4.9-1.9-7.7-2.9C161.3,577.6,162.8,578,165.2,581.2z" />
	<path fill="#BEB79A" d="M137.8,581.3c0.1-1.4,1.4-1.2,2.2-1.6c1,0.1,2,0.3,3,0.4c1,1.8,2.7,0.4,4.1,0.9c0,0.3,0,0.6,0,0.9   c-1.7,0-3.4,0-5,0C141,580.4,139.2,581.5,137.8,581.3z" />
	<path fill="#656958" d="M156.6,585c-0.8,0.4-1.5,0.8-2.3,1.2c-1.1-0.7-3.7-0.5-3-2.2C153.1,584.4,155.1,583.5,156.6,585z" />
	<path fill="#A09C85" d="M166.9,590.3c-1.8-1-3.3-2.3-4.2-4.2c2-0.5,2.7,1.6,4.2,2.1C166.8,589,166.8,589.7,166.9,590.3   C166.8,590.4,166.9,590.3,166.9,590.3z" />
	<path fill="#746456" d="M179.3,575.8c-1.2,0-2.3,0-3.5,0c0-0.2,0-0.4-0.1-0.6c1.1-0.2,2.2-0.4,3.2-0.6   C179.1,575,179.2,575.4,179.3,575.8z" />
	<path fill="#998D76" d="M131.3,573.6c-1,0-1.9,0-2.9,0c0-0.3,0-0.6,0-0.9c1.1,0,2.2,0.1,3.3,0.1   C131.6,573.1,131.4,573.4,131.3,573.6z" />
	<path fill="#1F1916" d="M152.3,582.2c1.1,0.3,2.1,0.6,3.2,0.8C154.4,583,153.1,583.6,152.3,582.2z" />
	<path fill="#201A16" d="M90,565.2c1.1-0.6,2.2-1.2,3.3-1.8c0.9,1.1,1,1.1,1.9-0.1c0,0-0.1,0.1-0.1,0.1c1.8,0,3.5,0,5.3,0   c1,0.6,2.1,1.2,3.1,1.9l-0.1,0.3c-0.6,0-1.2,0.1-1.7,0.1c0.3,0.8,0.4,1.4,0.6,1.9l0.1-0.1c-3.2,0.4-6.5,0.5-9.1,3.5   c-0.1,0.8-0.1,1.8-0.2,2.8l-0.1,0c-2.3-0.9-1.2-3.2-1.6-5.1c-3.9,3.8,0.8,8.3,4.6,9.5c-0.7,0.3-1.3,0.6-2,0.9   c-1-0.4-2.1-0.8-3.1-1.2l0.1,0.1c-4.2-3.5-4.5-8.6,0-11.9C90.5,565.6,90.3,565.4,90,565.2z" />
	<path fill="#CFBB9D" d="M98.2,555.2c-2.6-4-0.2-10.1,0.4-14.6c1.3-0.8,0.7-2.1,0.7-3.2c0.1-2.6,1.8-4.2,3-6.7   c0.1,1.5,0.2,2.7,0.2,3.8c-0.3,0.1-0.6,0.1-0.6,0.5c0.2-0.2,0.4-0.4,0.5-0.5c0.4,0.4,0.8,0.7,1.2,1.1c-1.5,6.5-4.5,12.8-4.1,19.6   C99.1,555.1,98.6,555.1,98.2,555.2z" />
	<path fill="#C6B295" d="M113.9,574.7c-3,0.1-6,0.2-9.1-0.2c-0.9-2.6-0.7-4.8,0.8-6.9c0.7,0,1.4,0,2.1,0c0.4,0.6,0.9,1.3,1.3,1.9   c0.8-0.3,1.4-0.6,1.9-0.8c0.6,0.6,1.3,1.2,1.9,1.8C112.9,571.8,112.9,573.4,113.9,574.7z" />
	<path fill="#918471" d="M91.2,528.2c0.6,5.1-1.6,10.3,1.3,15c1-0.3,1.8-0.5,2.6-0.7c0.3,0.7,0.7,1.4,1,2.1   c-0.2,0.8-0.4,1.6-0.6,2.5c-0.7-2-2.3-0.7-3.6-0.2c-1.2-1.6-0.2-4.2-2.3-5.5c-0.4-4.8-0.2-9.6,0.6-14.3   C90.5,527.4,90.8,527.8,91.2,528.2z" />
	<path fill="#C1AF93" d="M96.1,544.6c-1.5-4.8-2.1-12.1,0.2-16.5C99.9,532.6,97.2,539.3,96.1,544.6z" />
	<path fill="#3F372E" d="M108.6,563.5c-1-0.6-2-1.2-3-1.9c0.1-0.2,0.1-0.3,0.1-0.5c3.3-0.1,5.2-6.4,6.2-9.2l0,0.1c1.4-0.7,1-2,1-3.2   l0,0.1c1.4-0.8,1.4-1.2,0.1-2c0.3-0.4,0.6-0.7,0.9-1.1C117.5,550.7,110.2,558.4,108.6,563.5z" />
	<path fill="#AEA388" d="M90,565.2c0.3,0.2,0.5,0.4,1.1,0.8c-4.5,3.3-4.2,8.5,0,11.9c-2,0.4-2.6-1.7-4.1-2.3c-0.7-1.5-1.5-2.9-2-4   C85.4,568,87.6,566.6,90,565.2z" />
	<path fill="#6F6151" d="M111.6,553.9c-0.5,0.7-1.1,1.5-1.6,2.2c-2.9-0.4-3.4,3.6-4.5,5.6c-0.4-0.2-0.7-0.4-1.1-0.5   c1.5-4.4,3.9-8.4,6.2-12.4c0.4,0.4,0.7,0.7,1.1,1.1c0,0.7,0.1,1.5,0.1,2.2l0-0.1C110.8,552.5,110.3,553,111.6,553.9z" />
	<path fill="#BAA68B" d="M106.5,556.1c-0.7,1.7-1.4,3.4-2,5.1c-3.1-0.5-4.2-4-6.3-6c0.4,0,0.9-0.1,1.3-0.1c2.4,1.4,2.5,1.4,3.1-1   c0.7,0.7,1.3,1.4,2,2.1C105.2,556.1,105.9,556.1,106.5,556.1z" />
	<path fill="#61574B" d="M91.2,528.2c-0.7-0.8-1.5-1.5-2.3-2.1c0.4-2.5,0.8-5.1,2.1-7.3C93.8,520.9,92.6,525.3,91.2,528.2z" />
	<path fill="#281E19" d="M121.4,565.2c-0.1,0.4-0.2,0.8-0.2,1.3c-1.4,0-2.8,0-3.9,1c-1.5-0.6-2.9-1.3-4.4-1.9   c1.8-0.2,3.9-0.3,5.7-0.4c1.1-1.5,1.8-2.5,2.6-3.9c0,0,0,0,0,0c0.5,0.4,0.9,0.9,1.4,1.3C122.1,563.5,121.8,564.3,121.4,565.2z" />
	<path fill="#45362D" d="M111.7,564.6c-1-0.3-2.1-0.7-3.1-1l0.3-0.3c4,0,4.9-5.6,7.2-8.2c0.5,0,0.9,0,1.4,0.1   C115.4,558.2,113.8,561.6,111.7,564.6z" />
	<path fill="#A1917C" d="M91.8,546.9c3.7-2.5,3.9,0.8,3.3,3.9C93,550,92.2,548.7,91.8,546.9z" />
	<path fill="#2E2620" d="M96.4,543.7c0.3-1.7,0.7-3.5,1-5.2c0.3,0,0.6-0.1,0.9,0c0.5,2.5-0.5,5-0.9,7.5   C97.1,545.2,96.7,544.5,96.4,543.7z" />
	<path fill="#A8A38C" d="M100.4,563.4c-1.8,0-3.5,0-5.3,0c0.9-1,1.7-2,2.6-2.9C99.2,561,100,562,100.4,563.4z" />
	<path fill="#65705D" d="M117.2,567.4c1.1-1,2.5-1,3.9-1c0.1,0.3,0.2,0.6,0.2,0.9C120,567.8,118.6,567.5,117.2,567.4z" />
	<path fill="#8F927A" d="M110.9,568.5c-0.6,0.2-1.1,0.5-1.9,0.8c-0.4-0.6-0.8-1.2-1.3-1.9C108.8,567.8,110.2,567,110.9,568.5z" />
	<path fill="#45362D" d="M115.2,565.3c-0.8,0.1-1.6,0.2-2.3,0.2c-0.4-0.3-0.8-0.6-1.1-0.9c0,0,0.4-0.3,0.4-0.3   C113.1,564.6,114.1,564.9,115.2,565.3z" />
	<path fill="#C6B295" d="M115.3,569.5c-0.8,0-1.7,0.1-2.5,0.1C113.6,568.4,113.7,568.4,115.3,569.5z" />
	<path fill="#625E50" d="M95.2,563.3c-0.9,1.3-1,1.3-1.9,0.1C93.9,563.4,94.6,563.4,95.2,563.3z" />
	<path fill="#BBAB8F" d="M91.1,577.9c4.6,2.2,11.2,3.8,14.7-0.2c3.1-0.7,6.1,0.8,9.1,1.5c-0.3,0.5-0.6,1.1-0.9,1.6   c-8.3,1.4-16.9,3.9-24.6-1C89.9,579.2,90.5,578.5,91.1,577.9z" />
	<path fill="#C7B094" d="M128.5,581.1c3.2-0.1,6.5-0.7,9.4,0.8c-1.9,2.9-6.5-0.1-9.4-0.1C128.5,581.6,128.5,581.4,128.5,581.1z" />
	<path fill="#837765" d="M146,585.3c0.9,1,3.4,1.6,2.1,3.1c-1.1-0.7-2.1-1.3-3.2-2C145.3,586,145.7,585.6,146,585.3z" />
	<path fill="#BDD3B4" d="M138.8,583.1c1.4-0.3,4.4,0,3.1,2.1c-1.1-0.2-2.1-0.6-3.1-1.1l0.1-0.2C138.9,583.7,138.9,583.4,138.8,583.1   z" />
	<path fill="#7F6153" d="M138.8,583.1c0.1,0.3,0.1,0.6,0.1,0.9c-1.2,0.3-2.4,0.3-3.3-0.8c0.9-0.2,2.1,0.1,2.4-1.2   C138.2,582.4,138.5,582.7,138.8,583.1z" />
	<path fill="#A57360" d="M128.5,581.1c0,0.3,0,0.5,0,0.8c-1,0-2.1,0-3.1-0.1C126.2,580.6,127.4,581.1,128.5,581.1z" />
	<path fill="#DCCBAD" d="M146,585.3c-0.4,0.4-0.7,0.7-1.1,1.1c-0.3-0.1-0.6-0.1-1-0.1c0-0.5,0-1.1,0-1.9   C144.9,584.7,145.5,585,146,585.3z" />
	<path fill="#1F1916" d="M138.8,584.2c0.7,0.3,1.4,0.6,2.2,0.9C140.1,585.2,139.2,585.3,138.8,584.2z" />
	<path fill="#F6D9C7" d="M149.2,548.9c-1.4,0.7-2.8,1.3-4.2,2l0.1,0.1c0-0.3,0-0.6,0.1-1c1.3-0.8,3.2-3.6,0.6-4.1   c-3.3,2.4-6.9,4.2-10.1-0.1c1-0.5,1.5-0.8,2-1.1c1.1,0.7,2,1.2,2.6,1.6c2.2-1.2,5.2-0.8,6.1-3.1c-0.9-0.7-1.9-1.5-3.1-2.4   c-1.1,1.2-2,2.2-2.5,2.8c-2.2,0-4.1,0-5.6,0c-2.1,2.1-3.4,4.2-5.6,6.2c-0.2-1-0.5-2-0.7-3c3.1-3.7,10.6-6.9,4.4-12   c-0.5,0.8-1,1.5-1.5,2.3c-2.4-2.8-6.8-13.3-10.6-12c-2.5-0.6-3.2-3.6-6.1-2.3c-0.9-2.3-4.9-2.2-7.2-2.3c-1-1.3-1.2,0.3-1,1.1   c-0.3,0.4-0.7,0.7-1,1.1c-0.1-2-0.1-4.1-0.2-6.1c2.6-2.8-4.1-3.6,0.8-9c-1.4-2-0.3-4.6-1.9-6.6c4.5-5,13.2-5.6,19.5-7.4   c0.9,1,2,2.1,3.2,3.3c6.7,1.5,11.9-2.7,17.1-5.5c4.2,1.9-0.8,5.4,3.4,7.5c0.3-0.9,0.6-1.7,1-2.7c1.9,0,3.2-0.4,5.1-1.3   c0.6,1,1.2,2,1.8,2.9c-0.1,2-0.9,4,0.5,6.5c2.1-2.4,1.7-4.6,1.6-7.4c2.6-3.1,4.9,2.9,7.2-0.2c11.1-1.2,5.1,15.3,5,21.9   c-2.7,2-3.2,5.7-4.9,8.4l-0.2-0.1c-3.9,3.8-7.2,8.9-10.4,13.6l0.1-0.1c-0.7,0.3-1.4,0.7-2.1,1.1c0.8,1.1,1.3,1.9,1.7,2.5   C153.2,546.8,150.8,547.4,149.2,548.9z M135.3,504.9c-2.1-0.9-4.2-1.7-6.3-2.6c-1.2,3.2,1.3,7.6,3.4,9.2c0.6-1.2,0.7-1.7,0.7-3.2   C134.7,506.9,134.7,506.9,135.3,504.9z M126.9,499c-4.5,4.1-5.6,11.8,0.1,15.3C123.2,505.6,128.4,504.7,126.9,499z" />
	<path fill="#3C372F" d="M95,532.1c0,3.4,0,6.9,0,10.3c-0.8,0.2-1.6,0.4-2.6,0.7c-2.4-3.8-1.3-8-1.2-12.1c3.2-1.9,1.9-7,3-10.2   c1.7-2.1,3.8-4.3,4-7.3l0,0c0.7-0.4,1.4-0.8,2.1-1.2c0,0.9-0.1,1.8,0.9,2.3c-0.4,2.1-2.3,3.8-2,6.2l0.1,0c-0.6,0.7-1.3,1.4-1.9,2.1   c-0.6-0.5-1.3-1-1.8-1.4C95.4,525,92.9,529,95,532.1z" />
	<path fill="#50493F" d="M101.3,514.6c-1.5-0.9-0.7-2.8-0.9-4.2c0.3-0.4,0.7-0.7,1-1.1c1.2,0,2.6,0.1,2.4-2   c-2.4,0.6-2.7,3.6-5.4,4.1c-1.3-0.7,0.1-1.9,0.3-2.9c0.6-1.6,3.2-1,3.4-3.3c0.1-1.4,1.5-2.7,2.3-4.1c1.5,2,0.5,4.6,1.9,6.6   c-1.2,1.8-2.6,3.4-1.4,5.7c-0.4,0.1-0.8,0.2-1.3,0.2c-0.3-0.3-0.5-0.5-0.8-0.8C102.5,513.6,101.9,514.1,101.3,514.6z" />
	<path fill="#4F493E" d="M97.3,506.3c-0.9,2.4-2.2,4.8-2.8,7.4c-0.4-0.4-0.8-0.7-1.3-1.1C93.7,509.9,94.6,507.6,97.3,506.3   L97.3,506.3z" />
	<path fill="#696455" d="M98.3,513.5c-0.1,2.5-1.7,4.3-3,6.2C95.2,517.2,96,515,98.3,513.5z" />
	<path fill="#4E4B40" d="M98.4,505.3c0.9-3,0.9-3,4-3.9C101.1,503.1,100.1,504.5,98.4,505.3L98.4,505.3z" />
	<path fill="#9D907B" d="M93.2,512.6c0.4,0.4,0.8,0.7,1.3,1.1c-0.4,1-0.9,2-1.3,3c-0.4,0-0.7,0-1.1,0c0,0-0.2-0.2-0.2-0.2   C92.3,515.2,92.8,513.9,93.2,512.6z" />
	<path fill="#8E8470" d="M98.4,511.5c0.7-0.3,1.3-0.7,2-1l0,0c0,0.6,0,1.3,0,1.9c-0.7,0.4-1.4,0.8-2.1,1.2   C98.3,512.9,98.4,512.2,98.4,511.5z" />
	<path fill="#9D907B" d="M92,519.7c-0.3-0.3-0.6-0.6-1-1c0.3-0.7,0.6-1.5,0.9-2.2C92.7,517.4,92.2,518.6,92,519.7z" />
	<path fill="#5C564A" d="M98.3,505.3c-0.3,0.3-0.7,0.7-1,1l0,0C97.7,506,98,505.6,98.3,505.3L98.3,505.3z" />
	<path fill="#61574B" d="M92.4,517.9c-0.1-0.4-0.2-0.8-0.3-1.2c0.4,0,0.7,0,1.1,0C92.9,517.1,92.6,517.5,92.4,517.9z" />
	<path fill="#DFC6B5" d="M166.9,523c0.8-1.5,1.2-3.3,2.9-4.3c0.2,0.6,0.4,1.2,0.7,2.5c0.7-1.5,1.2-2.4,1.7-3.3   c1.8-0.3,3.5,0,5.1,0.9c-2,5-4.8,9.7-7.3,14.5c-1.4,0.7-2.7,1.4-4.1,2.1c-0.4-0.3-0.7-0.7-1.1-1C164.8,530.7,168.7,526,166.9,523z" />
	<path fill="#736B62" d="M172.1,517.9c-0.5,0.9-0.9,1.9-1.7,3.3c-1.2-3.2-0.6-5.7,0.3-8.8C171,514.3,170.6,516.4,172.1,517.9z" />
	<path fill="#050202" d="M164.8,496.8c-1,0.8-2,1.8-3.1,0.1c0.7-1.4,2-0.8,3.1-0.9C164.7,496.3,164.7,496.6,164.8,496.8z" />
	<path fill="#342B17" d="M775.9,154.5c-0.2,0.8-0.4,1.6-0.7,2.3C775.1,156,774.9,155.1,775.9,154.5z" />
	<path fill="#312B28" d="M157.6,497c0.1,2.9,0.5,5-1.6,7.4c-1.3-2.4-0.6-4.5-0.5-6.5C156.2,497.6,156.9,497.3,157.6,497z" />
	<path fill="#7F6153" d="M139.7,581.2c0.9-0.3,1.7-0.2,2.3,0.7C141.1,582.1,140.3,582.1,139.7,581.2z" />
	<path fill="#56380B" d="M773.9,293.5c0,1.9,0,3.7,1.2,5.3c2.4,0.5,6.7-1.2,7.5,1.9c-3.1-0.8-6.2-0.7-9.6-0.9   C773,297.6,772.8,295.4,773.9,293.5z" />
	<path fill="#56380B" d="M784.4,301c1.5-0.2,3.1-0.5,4.4,0.7C787.3,301.8,785.7,302.4,784.4,301z" />
	<path fill="#A58F78" d="M178.1,588.5c0.4-0.4,0.9-0.9,1.3-1.3c0.6,0.9,1.1,1.7,1.7,2.6c-0.2,0.2-0.3,0.3-0.5,0.5   C179.7,589.7,178.9,589.1,178.1,588.5z" />
	<path fill="#9D947E" d="M166.8,590.4c0.3,0.1,0.5,0.3,0.8,0.4C166.8,591.5,167.1,590.6,166.8,590.4L166.8,590.4z" />
	<path fill="#DEC2B1" d="M569.6,445.2c-2.1,1.4-8.4,3.3-10.4,1c1.2-0.1,2.4-0.3,3.6-0.4c-1.5-1.2-2.8-1.4-3.6,0.3   c-6.3-0.7-14,1.5-19.6-1c5.3,0,10.5-0.1,16.6-0.1c-1.6-1-2.5-1.5-3.3-2c2.2,0.2,2.4-2.2,4.2-3.2c3.7,0.2,9.4-1.1,11.6,3.1   c-0.7,0.6-1.4,1.1-2.6,2.1C567.7,445.1,568.6,445.2,569.6,445.2z" />
	<path fill="#050303" d="M613.8,455.9c-6.2,0.1-13.9,3.4-19.5,0.1C598.2,455,612.2,453.2,613.8,455.9z" />
	<path fill="#241513" d="M552.8,443.1c0.8,0.5,1.7,1,3.3,2c-7-0.6-13.4,1.5-19.2-1.1C539.5,439.4,548.1,443.6,552.8,443.1z" />
	<path fill="#191513" d="M713.8,431.4c1,0,1.9,0,2.6,0c2.4,3.5-5.3,4.5-6.5,2.4c1-0.7,2-1.4,3-2.1   C713.3,431.7,713.6,431.6,713.8,431.4z" />
	<path fill="#0E0B0A" d="M569.6,445.2c-1,0-1.9-0.1-3.6-0.2c1.2-1,1.9-1.5,2.6-2.1c0.9,0.1,1.8,0.2,2.7,0.2c0,0.6,0,1.1,0,1.7   C570.7,445,570.1,445.1,569.6,445.2z" />
	<path fill="#E1C7B6" d="M713,431.7c-1,0.7-2,1.4-3,2.1c-1.4-0.2-2.9-0.2-4.3,0l-0.2-0.2C707.4,431.9,710.6,432.4,713,431.7z" />
	<path fill="#7F796F" d="M700.5,436.9c-1.5,0.6-2.9,1.3-5.1,2.2c0.5-1.2,0.7-1.8,0.9-2.3c0.7-0.4,1.3-0.8,2-1.2   c0.4,0,0.7,0.1,1.1,0.1C699.7,436.2,700.1,436.6,700.5,436.9z" />
	<path fill="#76504B" d="M626,452.6c0.8,0,1.6,0,2.4,0c0,0.2,0,0.4,0,0.7c-0.8,0-1.6,0-2.4,0C626,453,626,452.8,626,452.6z" />
	<ellipse fill="#783E3B" cx="637.6" cy="450.9" rx="1.8" ry="0.5" />
	<path fill="#C4998D" d="M622,454.1c-0.4,0-0.8-0.1-1.1-0.1c-0.1-0.6,0.7-0.2,1.2-0.3C622,453.9,622,454,622,454.1z" />
	<path fill="#DEC2B1" d="M571.2,444.9c0-0.6,0-1.1,0-1.7C572.8,443.1,572.8,444.6,571.2,444.9z" />
	<path fill="#232023" d="M759.2,408.9c5.6,0.1,10.7,0.9,14.4,3.4C770.7,412.7,763.8,411.2,759.2,408.9z" />
	<path fill="#28272B" d="M775.9,389.8c-3.6,0.7-6.4,0.1-8.9-1.9C769.9,388,772.8,387.9,775.9,389.8z" />
	<path fill="#C9D6D9" d="M750.3,460c0.5-0.5,1-0.9,1.5-1.4C752.1,460.7,752.1,460.7,750.3,460z" />
	<path fill="#443A35" d="M705.6,433.8c0.7,0,1.4-0.1,2.2-0.1c-0.1,0.7-0.3,1.3-0.4,2c-0.8,0-1.5,0.1-2.6,0.2   C705.1,434.8,705.4,434.3,705.6,433.8z" />
	<path fill="#2F201D" d="M560,475.1c-0.9,0-1.8,0-2.8,0c0.9-1.4,1.8-1.6,2.8-1.1C559.9,474.3,560,474.7,560,475.1z" />
	<path fill="#1E100E" d="M700.5,436.9c-0.4-0.4-0.8-0.8-1.1-1.2c0.8-0.1,1.5-0.1,2.3-0.2c0.1,0.2,0.1,0.4,0.2,0.6   C701.4,436.4,700.9,436.7,700.5,436.9z" />
	<path fill="#110B0A" d="M750.1,379.9c4.1-0.6,4.3-0.5,7.2,3.7c-5,0.5-6.2-0.2-7-3.9L750.1,379.9z" />
	<path fill="#0D0100" d="M796.7,165.2c4.3-0.9,7.6-0.5,10.9,0.9C804.2,166.6,800.7,167.3,796.7,165.2z" />
	<path fill="#47380E" d="M793.6,158.7c-1.8-3.1-0.4-7.1-0.7-10.6C794.1,151.5,793.6,155.1,793.6,158.7z" />
	<path fill="#45541A" d="M801.9,174.1c-2.2-0.1-4.5,0.9-6.1-1c2.4-1.7,4.2,0,6.2,0.3C802,173.5,802,173.8,801.9,174.1z" />
	<path fill="#B38F29" d="M801.9,174.1c0.1-0.3,0.1-0.5,0-0.8c1.6-0.1,3.2-0.5,5,0.4C805.1,174.6,803.5,174.2,801.9,174.1z" />
	<path fill="#47380E" d="M791.8,161.8c1.3,0.9,0.9,2.1,0.7,3.3C791.6,164.1,791.6,163,791.8,161.8z" />
	<path fill="#010100" d="M776.1,300c1.8,0,3.6-0.9,5.1,0.8c-1.7,0-3.4,0-5.2,0C776.1,300.5,776.1,300.3,776.1,300z" />
	<path fill="#25201E" d="M329.8,572.6c-3,1.1-6.1,1-9.2,1c-1.1-0.7-2.2-1.3-3.7-2.3c1.1-0.8,1.8-1.2,2.5-1.7c0,0,0,0,0,0   c3.4,2,7.2-0.1,10.5,1.9C329.9,571.9,329.8,572.3,329.8,572.6z" />
	<path fill="#29211E" d="M267.5,579.8c-3.9,0.7-12.7,4.9-14.5,0.1C257.5,579.5,263.5,577.2,267.5,579.8z" />
	<path fill="#DCBFAF" d="M319.4,569.7c-0.7,0.5-1.4,0.9-2.5,1.7c1.5,1,2.6,1.6,3.7,2.3C307.3,575.9,312,564.7,319.4,569.7z" />
	<path fill="#6C2E2A" d="M210.2,540.4c3.6-1.1,4.4-1.1,8.5-0.5c0,0.3-0.1,0.7-0.1,1.1C215.8,542.2,212.9,541.2,210.2,540.4z" />
	<path fill="#9F7269" d="M329.8,572.6c0-0.4,0.1-0.7,0.1-1.1c1.9,0.4,4-0.5,5.7,0.6C335.3,575.2,331.6,572.6,329.8,572.6z" />
	<path fill="#604F48" d="M350.1,573.4c-1.6,0.3-3.3,1.1-4.7-0.7C348.2,571.4,348.2,571.4,350.1,573.4z" />
	<path fill="#120A09" d="M210.2,540.4c1.1,0.3,2.2,0.7,3.4,1c-1.9,0.3-3.9,0.5-6,0.8C207.8,540.1,209.2,540.5,210.2,540.4z" />
	<path fill="#3F0E0D" d="M280.8,574.9c0.3,0.4,0.5,0.8,0.8,1.2c-2.7,0.4-2.7,0.4-5.2-0.9c1.5-0.2,2.5-0.3,3.5-0.5   C280.2,574.9,280.5,575,280.8,574.9z" />
	<path fill="#614944" d="M291.1,571c-1.3,1.4-3.7,2.5-4.3,0C288.2,570.3,289.5,570.4,291.1,571z" />
	<path fill="#65554F" d="M337.3,573.1c1.5-0.7,2.7-0.7,4,0.6C339.3,574.9,339.3,574.9,337.3,573.1z" />
	<path fill="#DCBFAF" d="M326.7,570.5c-2.5,0-5,0.7-7.3-0.8C321.8,569.8,324.6,568.9,326.7,570.5z" />
	<path fill="#170202" d="M228.2,544.6c-0.6-0.5-1.3-0.9-2-1.4c0.9-1.3,2.6-0.3,4.1-0.4c-0.1,0.8-0.2,1.3-0.2,1.8   C229.4,544.6,228.8,544.6,228.2,544.6z" />
	<path fill="#BE9085" d="M229.9,536.3c-0.1-0.2-0.2-0.4-0.3-0.6c0.5-0.1,0.9-0.3,1.2,0.2C230.5,536.1,230.2,536.2,229.9,536.3z" />
	<path fill="#693330" d="M226.8,534.9c-0.5,0.5-1,0.6-1.6,0.1C225.8,534.5,226.2,534.2,226.8,534.9z" />
	<path fill="#53342A" d="M401.6,488.6c-2.7-5.4-3.2-11.3-5.2-17.4c4.4,3,3.8,11.3,6.3,16.3C402.2,487.9,401.9,488.2,401.6,488.6z" />
	<path fill="#46261E" d="M393.1,488.6c-4,1.1-8,2.6-13,1.9c3.2-3.3,7.8-1.9,11.9-3C392.3,487.9,392.7,488.2,393.1,488.6z" />
	<path fill="#A86A55" d="M406.3,484.7c-1.6-2.6-2.4-5.3-0.7-8.1C407.1,479.3,406.4,482,406.3,484.7z" />
	<path fill="#885444" d="M393.1,488.6c-0.4-0.4-0.7-0.8-1.1-1.1c2.6-1.4,5.5-1.2,8.2-2.2c0.1,0.4,0.1,0.9,0.2,1.3   C397.9,487.3,395.5,488,393.1,488.6z" />
	<path fill="#7D5041" d="M401.6,488.6c0.3-0.4,0.7-0.7,1-1.1c1,2.2,1.9,4.5,1.8,7.4C402.4,492.9,402.3,490.6,401.6,488.6z" />
	<path fill="#654638" d="M429,481c-1.4,0.4-2.8,0.8-4.3,1.3c-0.1-0.7-0.2-1.1-0.4-1.8c1.6,0,3.1,0,4.6,0   C428.9,480.6,429,480.8,429,481z" />
	<path fill="#644034" d="M458.6,483.4c0.6,1.3,2.1,2.2,1.8,4.3c-2.3-0.8-2.6-2.6-3.2-4.3C457.6,483.4,458.1,483.4,458.6,483.4z" />
	<path fill="#AF6A55" d="M458.6,483.4c-0.5,0-1,0-1.4,0c-0.6-1.1-1.2-2.2-2.2-4.2C457.5,480.4,457.7,482.2,458.6,483.4z" />
	<path fill="#5E3F33" d="M413.1,482.6c-0.1-1.8-0.2-3-0.3-4.8C414.3,479.6,414.1,480.8,413.1,482.6z" />
	<path fill="#6F8076" d="M329.8,473.3c3.1,1.5,6.2,0.5,9.4,0c0.8,1.3,2.2,0.6,3.3,0.9c-3.8,1.5-10.1,1.7-13.8,0.1   C329,473.9,329.4,473.6,329.8,473.3z" />
	<path fill="#97776D" d="M348.3,472.9c2.4-1.3,5.1-1,7.6-2c0.8,3.1-3.6,2.2-5.4,3C349.7,473.6,349,473.3,348.3,472.9z" />
	<path fill="#48322E" d="M329.8,473.3c-0.4,0.3-0.8,0.7-1.2,1c-2-0.9-4.3-0.7-6-2.2c-0.1-0.3-0.1-0.6-0.1-0.9   C325.1,471.1,327.4,472.5,329.8,473.3z" />
	<path fill="#020101" d="M322.5,471.2c0,0.3,0,0.6,0.1,0.9c-1.3-0.1-2.5-0.3-3.7-0.4C318.7,469.2,321.3,471.1,322.5,471.2z" />
	<path fill="#98857A" d="M311.1,515.7c-1.3-1.5-1.1-1.8,1-3.2C312.4,513.7,312.5,515,311.1,515.7z" />
	<path fill="#73645C" d="M321.3,527c-0.7,0.4-1.4,0.8-2.2,1.2c0.2-1.8,0.2-1.8,2.3-3.1C321.4,525.8,321.3,526.4,321.3,527z" />
	<path fill="#7C6960" d="M362,495.1c-1.9-1,0.7-3.2,2.1-1.3C363.4,494.3,362.7,494.7,362,495.1z" />
	<path fill="#7B3E3A" d="M342.4,474.2c-1.1-0.2-2.5,0.4-3.3-0.9C340,473.4,343.7,472.5,342.4,474.2z" />
	<path fill="#B49E91" d="M310.1,519.9c-0.3-0.5-0.6-1-0.8-1.5c0.6-0.2,1.2-0.4,1.8-0.6C311.1,518.6,311,519.4,310.1,519.9z" />
	<path fill="#595A54" d="M348.3,472.9c0.7,0.3,1.5,0.7,2.2,1c-1.2,0-2.5,0-3.7,0C346.9,472.9,347.7,473.1,348.3,472.9z" />
	<path fill="#2F2A1D" d="M267.5,493.9c0,0.8,0,1.7,0,2.9c-3.1-2.9-5.7-6.9-6.8-11c0.5,0,1.1-0.1,1.6-0.1   C264.5,487.9,265.7,491.2,267.5,493.9z" />
	<path fill="#EADA8F" d="M263.3,486.7c-0.4-0.4-0.7-0.7-1.1-1.1C262.6,486,262.9,486.3,263.3,486.7z" />
	<path fill="#221510" d="M464.7,495.2c2.3,2.8,3.8,4.6,5.4,6.6C466.9,502.3,466.4,501.6,464.7,495.2z" />
	<path fill="#7F5E57" d="M317.1,530.9c-0.7,0.7-1.4,1.4-2.2,2.1C314.5,531.4,314.5,531.4,317.1,530.9z" />
	<path fill="#514F49" d="M432,543.1c1.7-0.6,2.7,0,3.6,1.4C434.1,544.9,432.8,545.1,432,543.1z" />
	<path fill="#1A1110" d="M396.2,542.8c-1.2,2-1.2,2-4.6,1.7C392.9,543.3,394.1,542.8,396.2,542.8z" />
	<path fill="#724D47" d="M250.5,540.2c-0.6,0.3-1,0.5-1.3-0.2C249.8,539.6,250.1,539.5,250.5,540.2z" />
	<path fill="#72564F" d="M353.6,498.9c-0.6,0-1.2-0.1-2.1-0.1C352.7,497.7,353.2,498,353.6,498.9L353.6,498.9z" />
	<path fill="#7A5B53" d="M357.7,496.8c-0.6,0-1.2,0-2.1,0C356.7,495.6,357.2,495.9,357.7,496.8L357.7,496.8z" />
	<path fill="#74544D" d="M267.5,579.8c-0.7-1.5-2.2-0.6-3.3-1.1c2.4-1.4,5.2-0.3,7.6-2c0.3-0.2,0.9,0.1,1.9,0.3   C271.8,579,269.5,579.1,267.5,579.8z" />
	<path fill="#4D3D38" d="M165.8,535.4c2-1,3.8-2.4,6.2-2.2c0,0.4,0,0.8,0,1.2c-2.1,1-4.1,2.1-6.2,3.1   C165.8,536.7,165.8,536.1,165.8,535.4z" />
	<path fill="#6C3733" d="M177.5,542.2c1.5-1.2,2.9-0.6,4.4-0.2C180,542.8,180,542.8,177.5,542.2z" />
	<path fill="#86766D" d="M177,531.2c-0.3-2.2,0.4-2.5,2.1-1.7C178.3,530.2,177.6,530.7,177,531.2z" />
	<path fill="#8C746B" d="M172,534.3c0-0.4,0-0.8,0-1.2c0.6-1.1,1.6-0.9,3.8-0.9C173.9,533.3,173,533.8,172,534.3z" />
	<path fill="#93736A" d="M182.8,528c-0.6,0-1.2,0-1.7,0c0-0.2,0-0.4-0.1-0.5c0.6-0.1,1.2-0.2,1.7-0.4   C182.7,527.4,182.8,527.7,182.8,528z" />
	<path fill="#4A442E" d="M269.1,502.4c0.5,1.7,0.5,1.7-0.1,3.4C268.6,503.9,268.6,503.9,269.1,502.4z" />
	<path fill="#604D34" d="M268.5,508.3c-0.1,0.3-0.2,0.6-0.3,0.8c-0.7-0.3-0.6-0.7-0.3-1.3C268.1,507.9,268.3,508.1,268.5,508.3z" />
	<path fill="#231A18" d="M166,529.3c-0.7,6.3-4.8,11.9-11.7,11.3c0.4-0.7,0.7-1.5,1.1-2.2c1.6-0.3,3.2-0.7,4.5-0.9   c2.8-3.3,3.6-6.9,4.8-10.4C165.3,527.6,165.5,528.5,166,529.3z" />
	<path fill="#1F1917" d="M149.2,548.9c1.6-1.5,4-2.2,4.8-4.8c-0.4-0.6-1-1.4-1.7-2.5c0.7-0.4,1.4-0.7,2.1-1.1c2.3,2,2.9,4.8,1,7.3   c-2.2,0.4-3.4,1.7-3.3,4C151.1,550.9,150.2,549.9,149.2,548.9z" />
	<path fill="#D0BB9C" d="M121.4,565.2c3-5,2.1-11,4.2-16.2C131.3,553,127.7,564.4,121.4,565.2z" />
	<path fill="#1D1512" d="M128.5,552.9c-0.4-0.7-0.8-1.3-1.1-2c0.1-1.4,0.2-2.7,0.2-4.1c0.4,0,0.8,0,1.2,0c0.4,6,5.9,7.9,11.2,7   l-0.1,0.2c0.7,0.6,1.4,1.2,2,1.7c-0.7,0.4-1.5,0.8-2.2,1.2C136.1,555,131.4,556.1,128.5,552.9z" />
	<path fill="#B0A68B" d="M139.7,557c2.5-1.3,4.7-3,7.4-3.9c-1.1,1.9-2.2,3.8-2.9,4.9c-1.2,1-1.4-1.7-2.2,0.4c-0.2-0.1-0.7-0.2-1-0.1   C140.5,557.9,140.1,557.5,139.7,557z" />
	<path fill="#2C1E19" d="M154.3,568.8c-5.3,1.9-12,1.4-17.4,0.1C142.7,568.2,148.7,568,154.3,568.8z" />
	<path fill="#675749" d="M136.9,568.8c1,0.3,2,0.6,3,0.9c-2.7,1.4-5.6,0.8-8.4,1c0-0.4,0-0.7,0.1-1.1   C133.3,569.2,135.2,569.1,136.9,568.8z" />
	<path fill="#8E7D68" d="M131.6,569.7c0,0.4,0,0.7-0.1,1.1c-1.1,0.6-2.1,1.2-3.1,2c-0.4-0.1-0.7-0.1-1.1-0.2c-0.3-0.3-0.6-0.6-1-0.9   C127.8,570.2,129.7,570,131.6,569.7z" />
	<path fill="#998D76" d="M126.5,573.9c-0.7,0.2-1.5,0.5-2.2,0.7C124.8,573.7,125.6,573.6,126.5,573.9z" />
	<path fill="#786A58" d="M126.3,571.7c0.3,0.3,0.6,0.6,1,0.9C126.5,572.9,124.9,572.3,126.3,571.7z" />
	<path fill="#C1B194" d="M145.1,550.9c-1.2,1.9-2.9,3.1-5.2,3.2C139.6,551,142.5,550.5,145.1,550.9L145.1,550.9z" />
	<path fill="#AC9D84" d="M148,557c-1.7-0.9,0.2-3.5,0.1-5.1c0.5-0.4,1-0.7,1.7-1.2C150.6,553.5,148.9,555.2,148,557z" />
	<path fill="#1C2B10" d="M780.4,264.8c0.2-2.9-1-6.2,0.8-8.6c0,1.9,0,3.8,0,6c3.1,0.9,5.9-0.6,8.6,1.7   C786.4,265.1,783.3,264.3,780.4,264.8z" />
	<path fill="#3E330E" d="M791.7,241.8c-1.9,0.7-3.1,1.3-4.3,3.2c-0.7-0.8-1.2-1.4-1.8-2C787,240.1,789.3,240.4,791.7,241.8z" />
	<path fill="#CDBC9E" d="M93.2,573.7c0.1-1,0.2-2,0.2-2.8c2.6-2.9,5.9-3.1,9.1-3.5c0,1.9,0,3.7,0,5.8   C99.9,575.4,96.3,573.7,93.2,573.7z" />
	<path fill="#C9BA9B" d="M105.8,577.6c-2.1,2.9-7.4,0.5-10.4,0.1c0.3-0.6,0.7-1.2,1-1.8C99.4,576.3,103.6,574.8,105.8,577.6z" />
	<path fill="#7D7663" d="M96.3,575.9c-0.3,0.6-0.7,1.2-1,1.8c-3.5-1.1-7.5-5.7-3.8-9.1c0.4,1.9-0.7,4.2,1.6,5.1   C93.6,575.3,94.8,575.8,96.3,575.9z" />
	<path fill="#CDBC9E" d="M102.4,567.6c-0.2-0.6-0.4-1.1-0.6-1.9c0.5,0,1.1-0.1,1.7-0.1C103.7,566.5,103.6,567.3,102.4,567.6z" />
	<path fill="#6E5648" d="M116,576.9c-0.3,0.7-0.7,1.1-1.9,0.4C114.9,577.1,115.5,577,116,576.9L116,576.9z" />
	<path fill="#120D0B" d="M147.1,581c-0.2-0.1-0.6-0.1-0.8-0.1c0.1-0.9,0.7-0.8,1.3-0.6C147.4,580.5,147.3,580.8,147.1,581z" />
	<path fill="#5B3C32" d="M96.1,578.1c2.4,0.3,4.8,0.6,7.2,0.9c-2.4,1.7-6.4,1.3-9.2,0C94.8,578.7,95.5,578.4,96.1,578.1z" />
	<path fill="#6A6052" d="M105.6,516.7c0.1,2,0.1,4.1,0.2,6.1c0.7,1.1,0.4,2.8,2,3.3c0.1,3.6,0.1,3.6,1.9,5.4   c0.1-1.6,0.2-3.1,0.2-4.7c0.6-0.3,1.1-0.7,1.7-1c0,0.8,0,1.6-0.1,2.5c-2.2,2.2,0.7,5.7-1.7,7.8c0.1-1.5-0.7-2-2.1-2   c-0.8-1.3-1.4-2.7-2-4.1c1-0.4,1-1.3,0.8-2.2c-1,0.3-1.6,0.4-2.8,0.5c-0.3,2.5,1.9,5-0.2,7c-0.4-0.4-0.8-0.7-1.2-1.1l0,0.1   c-0.1-1.1-0.1-2.3-0.2-3.8c-1,1.9-1.9,3.4-2.8,5c-0.2-2.2,0.5-4.7-1.1-6.4c0.6-1.1,0.5-2.2-0.1-3.3c0.4-1.7,0.7-3.4,1.1-5.1l-0.1,0   c0.3,0,0.7,0,1,0c1.4,1.4,0.3,3.1,0.3,4.6c2.7,0.3,3.9-2.8,3.9-5.1C104.7,519.1,103.9,517.5,105.6,516.7z" />
	<path fill="#1C1915" d="M103.6,535.4c2.1-2.1-0.1-4.5,0.2-7c0.8-0.1,1.2-0.2,1.7-0.2c0,1.6,0.7,2.9,1.3,4.3   c-2.2,4.6-2.1,10.8-3.5,16.1c-2.4,1.9,1.3,10-3.9,6.5C99.2,548.3,102.1,541.9,103.6,535.4z" />
	<path fill="#544B40" d="M98.4,529.2c1.7,2.2,1,5.4,0.9,8.1c-0.3,0.4-0.6,0.8-1,1.2c-0.3,0-0.6,0-0.9,0c0.4-2.6,1.5-4.7,0.1-7.2   C97.8,530.6,98.1,529.9,98.4,529.2z" />
	<path fill="#C1AF93" d="M98.3,538.5c0.3-0.4,0.6-0.8,1-1.2c0,1.1,0.5,2.4-0.7,3.2C98.5,539.8,98.4,539.2,98.3,538.5z" />
	<path fill="#6A6052" d="M102.5,534.3c-0.2,0.2-0.4,0.4-0.5,0.5C101.9,534.4,102.2,534.4,102.5,534.3L102.5,534.3z" />
	<path fill="#0F0D0B" d="M95,532.1c-2.1-3.1,0.4-7.2,0.6-10.7c0.6,0.5,1.2,1,1.8,1.4c-0.1,0.6-0.2,1.3-0.3,1.9   c-1.2,0.9-0.8,2.1-0.8,3.3C94.7,529.1,95.4,530.8,95,532.1z" />
	<path fill="#857765" d="M96.3,528.1c0-1.2-0.3-2.4,0.8-3.3c2.6,1.6,1.5,4.2,0.4,6.5C97.2,530.2,97.9,528.7,96.3,528.1z" />
	<path fill="#CBB698" d="M116,555.1c-2.3,2.5-3.2,8.2-7.2,8.2c1.3-5.2,8.8-12.6,4.9-17.5c2.2-3.2,0.7-7.1,3.7-9.9   C119.8,542.7,116.4,548.5,116,555.1z" />
	<path fill="#24201B" d="M118.3,539.4c-0.2-1-0.4-1.9-0.8-3.5c-3.2,3.1-1.3,7.8-4.5,11c0,0.7-0.1,1.3-0.1,2l0-0.1   c-0.4,0.3-0.7,0.7-1.1,1c-0.4-0.4-0.7-0.7-1.1-1.1c1.1-4.7,3.8-9.5,2.1-14.4c-0.8-2.5-3-16.6,2.2-11.5c0,0,0.1,0,0.1,0   c-0.6,0-1.3,0.1-1.9,0.1c-0.7,3,2,4.6,2,7.1c-0.5,1.3-1.6,2.6-0.5,3.9c0.5-0.3,1-0.5,1.5-0.8c2.3,0.4,3.5,2.6,5.1,4.2   c0.1,0.9,0,1.8-0.9,2.3c-0.3-0.7-0.7-1.3-1.2-0.2C118.8,539.5,118.5,539.5,118.3,539.4z" />
	<path fill="#C0AC8F" d="M105.7,561.2c1.3-1.8,1.6-5.5,4.4-5.1C108.8,557.7,108.4,561.9,105.7,561.2z" />
	<path fill="#948771" d="M111.8,549.8c0.4-0.3,0.7-0.7,1.1-1c0,1.2,0.3,2.5-1,3.2C111.8,551.3,111.8,550.5,111.8,549.8z" />
	<path fill="#9C8D76" d="M112.8,548.9c0-0.7,0.1-1.3,0.1-2C114.2,547.7,114.2,548,112.8,548.9z" />
	<path fill="#948771" d="M111.6,553.9c-1.3-0.8-0.9-1.4,0.3-1.9C111.8,552.6,111.7,553.2,111.6,553.9z" />
	<path fill="#D4BD9E" d="M113,540.6c-1.2,5.6-3.4,10.7-6.5,15.5c-0.3,0-0.6,0-0.9,0c1.1-3.1,2.5-4.8,1.7-8.5   c-1.7,3.3-2.8,5.7-2.7,8.5c-0.7-0.7-1.3-1.4-2-2.1c0-0.3-0.1-0.7-0.1-1c1.8-1.2,0.9-2.9,0.9-4.4c0.4-2.3,0.9-4.7,1.3-7   c2.2,0,3.1-1.6,4-3c-0.3-1.6-0.6-3-0.9-4.4c1.3,0,2.1,0.5,2.1,2c0.3,0.4,0.6,0.9,1,1.3c-0.3,0.9-0.6,1.7-1,2.9   C111.1,540.4,112,540.5,113,540.6z" />
	<path fill="#8A7A66" d="M104.6,556.1c0-2.8,1-5.3,2.7-8.5c0.8,3.7-0.6,5.4-1.7,8.5C105.4,556.1,104.8,556.1,104.6,556.1z" />
	<path fill="#D0BA9B" d="M115.2,565.3c-1-0.4-2.1-0.7-3.1-1.1c4.5-6.6,6.9-13.7,11.3-20.5c0,2.5,0,4.3,0,6.2c-2,2.3-1.5,6.6-3.2,9.6   c0.3,0.6,0.6,1.2,1,1.7c0,0,0,0,0,0c-0.8,1.4-1.6,2.4-2.6,3.9C117.5,565.2,116.3,565.2,115.2,565.3z" />
	<path fill="#584E41" d="M121.1,561.3c-0.3-0.6-0.6-1.1-1-1.7c0.7-2.2,1.4-4.3,2.1-6.5c0.3,0,0.6-0.1,0.8-0.1   c0.4,0.4,0.7,0.7,1.1,1.1c-0.2,2.9-0.5,5.9-1.7,8.6C122,562.2,121.6,561.7,121.1,561.3z" />
	<path fill="#584E41" d="M120.5,562.4c0.2-0.4,0.4-0.8,0.7-1.1C120.9,561.6,120.7,562,120.5,562.4z" />
	<path fill="#615749" d="M118.1,554c-0.2,0.4-0.5,0.7-0.7,1.1c-0.5,0-0.9,0-1.4-0.1c0.3-5.3,2.6-10.2,2.3-15.7   c0.3,0.1,0.5,0.1,0.8,0.1c0.5,1.7,1,3.4,1,5.1l0,0c-1,1.4-1,1.4-0.3,2.6c0.2-0.5,0.3-1,0.4-1.5c0.3,0.3,0.6,0.7,1,1   c-1,2.2-1.9,4.3-2.9,6.5c-0.3-0.2-0.7-0.5-1-0.7C117.5,553.1,117.3,554,118.1,554z" />
	<path fill="#13100E" d="M121.2,537.4c-1.6-1.5-2.8-3.7-5.1-4.2c0.1-3.6-0.1-7-1-10.4l-0.1,0c2.9-1.4,3.6,1.6,6.1,2.3   c1.2,1.6,1.2,1.6,3.1,1c2.1,3,4.3,6.1,6.4,9.1c0,0.4-0.1,0.7-0.1,1.1c-0.6-0.2-1.2-0.3-1.9-0.5c0,2.2,0,4.2,0,6.1   c2.9-0.2,1.3-3.7,1.9-5.6c0.3,0,0.6,0,0.9,0c0.6,2.2-0.7,4.9,1.1,7.1c-2.5,2.7-3.2-0.7-4.1,1.3c-0.6-0.3-1.1-0.7-1.7-1   c-0.3,0.4-0.6,0.8-0.9,1c-1.9-5.4-1.5-10.1-4.8-15.4C121.3,533,121.4,534.5,121.2,537.4z" />
	<path fill="#1C1412" d="M144,550.7c-1.7,0.6-4.1,0-4,2.5c-3.2,0.3-5.7-1.2-8.4-2.9c0-0.9,0-1.7,0-2.5c1.3-1.5,2.1-2.7,3.6-4.2   c1.6,0,3.4,0,5.6,0c0.5-0.6,1.4-1.6,2.5-2.8c1.1,0.9,2.1,1.7,3.1,2.4c-0.9,2.3-3.9,1.9-6.1,3.1c-0.7-0.4-1.5-0.9-2.6-1.6   c-0.4,0.2-1,0.5-2,1.1c3.3,4.3,6.8,2.5,10.1,0.1C148.9,546.7,145.7,550.1,144,550.7z M134.6,547.6c-0.3,0.3-0.6,0.6-0.8,0.9   c0.6,1.6,1.9,2,3.8,1.8C136.6,549.4,135.6,548.5,134.6,547.6z" />
	<path fill="#3E372F" d="M105.6,516.7c-1.7,0.8-0.9,2.4-1,3.6c-0.1,2.3-1.2,5.4-3.9,5.1c0-1.5,1.1-3.2-0.3-4.6   c1.1-2.4,1.4-5.3,3.3-7.2c0.4-0.1,0.8-0.2,1.3-0.2C106.7,515.2,106.7,515.3,105.6,516.7z" />
	<path fill="#1B1614" d="M135.3,504.9c-0.7,2.1-0.7,2.1-2.3,3.4c0.1,1.4-0.1,1.9-0.7,3.2c-2.1-1.6-4.6-6-3.4-9.2   C131.1,503.2,133.2,504,135.3,504.9z" />
	<path fill="#2E2724" d="M126.9,499c1.5,5.6-3.8,6.6,0.1,15.3C121.4,510.8,122.5,503.1,126.9,499z" />
	<path fill="#D8BAAA" d="M164.7,527c-1.2,3.5-2,7.1-4.8,10.4c-1.3,0.3-2.9,0.6-4.5,0.9C159.3,535.1,160.8,530,164.7,527z" />
	<path fill="#3C332F" d="M132.5,543.5c-1.7-2.8-1.3-6.3,0.6-8.7C137.1,538.2,135.6,540.8,132.5,543.5z" />
	<path fill="#958A76" d="M131.5,547.8c0,0.8,0,1.6,0,2.5c2.7,1.7,5.2,3.2,8.4,2.9c0,0.2,0,0.5,0,0.7c-4,0.4-8.6,0.3-10.4-4   C130.2,549.2,130.9,548.5,131.5,547.8z" />
	<path fill="#764E43" d="M113.9,521.9c-0.8,0.2-1.9-0.1-2.2,1.1c-1.6-0.7-3.2-1.1-4.9-1.3c-0.1-0.3-0.1-0.5-0.1-0.8   C109,520.2,111.8,520.6,113.9,521.9z" />
	<path fill="#7F6C63" d="M166,529.3c-0.4-0.7-0.8-1.4-1.1-2.1c0.7-1.4,1.3-2.8,2-4.2C168.8,524.6,166.3,527.2,166,529.3z" />
	<path fill="#C7B69C" d="M106.8,521.7c0.3,0.1,0.6,0.1,0.9,0.2c0,1.4,0.1,2.8,0.1,4.2c0,0,0,0,0,0c-1.6-0.5-1.4-2.2-2-3.3   C106.1,522.4,106.4,522.1,106.8,521.7z" />
	<path fill="#3C332F" d="M128.4,544.9c0.7-1.8,1.5,0.1,2.3-0.1c-0.6,0.7-1.2,1.4-1.9,2.1c-0.4,0-0.8,0-1.2,0   C127.8,546.2,128.1,545.5,128.4,544.9z" />
	<path fill="#755248" d="M124.1,526.1c-1.9,0.7-1.9,0.7-3.1-1C122.2,525.2,123.6,524.3,124.1,526.1z" />
	<path fill="#C7B69C" d="M107.7,520.6c-0.3,0.1-0.7,0.2-1,0.4C106.8,520,107.1,519.7,107.7,520.6z" />
	<path fill="#3C332F" d="M131.5,536.4c-0.3,0-0.6,0-0.9,0l0,0c0-0.4,0.1-0.7,0.1-1.1C130.9,535.6,131.2,536,131.5,536.4z" />
	<path fill="#4D3E35" d="M144,550.7c0.4-0.2,0.8-0.5,1.2-0.7c-0.1,0.3-0.1,0.6-0.1,1C144.7,550.9,144.4,550.8,144,550.7z" />
	<path fill="#4D3E35" d="M146.2,549.1c0.3-0.4,0.5-0.8,0.8-1.3C146.8,548.2,146.5,548.6,146.2,549.1z" />
	<path fill="#A99D86" d="M102.5,514.8c-0.7,2-1.4,4-2.2,5.9c-0.3,0-0.7,0-1,0c-0.4-2.4,1.6-4,2-6.2c0.4-0.4,0.8-0.7,1.2-1.1   C102.5,514,102.5,514.4,102.5,514.8z" />
	<path fill="#C2B59A" d="M98.3,525.9c-0.4-0.4-0.8-0.7-1.1-1.1c0.1-0.6,0.2-1.3,0.3-1.9c0.6-0.7,1.3-1.4,1.9-2.1   C99,522.5,98.6,524.2,98.3,525.9z" />
	<path fill="#A59C86" d="M101.5,509.4c0.4-1.1,1-1.9,2.3-2.1C104.1,509.5,102.7,509.3,101.5,509.4L101.5,509.4z" />
	<path fill="#C6B89E" d="M102.5,514.8c0-0.4-0.1-0.9-0.1-1.3c0.1-0.2,0.3-0.5,0.4-0.7c0.3,0.3,0.5,0.5,0.8,0.8   C103.3,514,102.9,514.4,102.5,514.8z" />
	<path fill="#9C9882" d="M101.4,509.4c-0.3,0.4-0.7,0.7-1,1.1l0,0C100.8,510.1,101.1,509.8,101.4,509.4   C101.5,509.4,101.4,509.4,101.4,509.4z" />
	<path fill="#1B1715" d="M559.1,446.1c0.9-1.8,2.1-1.6,3.6-0.3C561.5,445.9,560.4,446,559.1,446.1L559.1,446.1z" />
	<path fill="#857965" d="M128.4,544.9c-1.1,1.9-0.9,4-1.1,6.1c-1.2-1.2-2.1-2.2-2.3-4c-0.6,1.1-1.2,2-1.7,2.9c0-1.8,0-3.7,0-6.2   c-1,1.4-1.5,2.2-2.1,3c-0.3-0.3-0.6-0.7-1-1c0-0.4-0.1-0.8-0.1-1.2l0,0c1.6-1,1.9-2.5,2.2-4.2c1.1-1.2,1.1-2.8,1.3-4.3   c0.8,2.9,1.6,5.9,2.3,8.7c0.2-0.3,0.5-0.6,0.9-1C127.3,544.2,127.8,544.5,128.4,544.9z" />
	<path fill="#27221C" d="M123.3,549.9c0.5-0.9,1-1.8,1.7-2.9c0.2,0.8,0.4,1.4,0.6,2c-0.4,1-0.7,2-1.1,3.1c-0.4,0-0.7,0-1.1-0.1   C123.4,551.3,123.3,550.6,123.3,549.9L123.3,549.9z" />
	<path fill="#241E19" d="M123.4,552c0.4,0,0.7,0,1.1,0.1c-0.1,0.6-0.2,1.3-0.3,1.9c-0.4-0.4-0.7-0.7-1.1-1.1   C123.2,552.6,123.3,552.3,123.4,552z" />
	<path fill="#EAD7B8" d="M107.8,534.2c0.3,1.4,0.6,2.8,0.9,4.4c-0.9,1.4-1.9,3-4,3c0-0.3,0.1-0.7,0.1-1c1.6-2.1,0.5-5.5,2.1-8   C107.2,533,107.5,533.6,107.8,534.2z" />
	<path fill="#C0B095" d="M110.8,537.4c-0.3-0.4-0.6-0.9-1-1.3c2.4-2.1-0.4-5.6,1.7-7.8c0.4,2,0.8,4,1.2,6   C112.1,535.4,111.5,536.4,110.8,537.4z" />
	<path fill="#0B0A09" d="M109.9,526.9c-0.1,1.5-0.2,3.1-0.2,4.7c-1.8-1.8-1.9-1.9-1.9-5.5c0.6-0.3,1.2-0.6,1.9-1   C109.7,525.7,109.8,526.3,109.9,526.9z" />
	<path fill="#C7B69C" d="M109.9,526.9c-0.3-1.7-0.6-3.3-1-4.9c0.9,0.3,1.8,0.7,2.7,1c0,1,0,1.9,0,2.9   C111.1,526.2,110.5,526.6,109.9,526.9z" />
	<path fill="#AB9D86" d="M105.8,530c-0.1-0.6-0.2-1.2-0.2-1.9c0.3-0.1,0.7-0.2,1-0.3C106.7,528.7,106.8,529.6,105.8,530z" />
	<path fill="#BAA68B" d="M103.4,548.6c0,1.5,0.9,3.3-0.9,4.4C102.3,551.4,102.2,549.9,103.4,548.6z" />
	<path fill="#D4BD9E" d="M105.4,538.2c0.2,0.9,0.3,1.8-0.7,2.4C105,539.7,105.2,539,105.4,538.2z" />
	<path fill="#6A6052" d="M106.6,533.3c-0.3,0.7-0.6,1.5-0.9,2.2C105.5,534.6,105.6,533.7,106.6,533.3z" />
	<path fill="#F5E0BF" d="M110.8,537.4c0.7-1,1.3-2,2-3.1c0.6,2.1,0.9,4.1,0.2,6.2c-0.9-0.1-1.9-0.2-3.2-0.3   C110.2,539.1,110.5,538.3,110.8,537.4z" />
	<path fill="#C6B69B" d="M115,522.9c0.2,2.4,1.6,4.7,0.9,7.2c-0.3,0-0.6,0-0.9,0c0.1-2.4-2.6-4.1-2-7.1   C113.7,523,114.4,522.9,115,522.9z" />
	<path fill="#685B4E" d="M115,530.1c0.3,0.1,0.6,0.1,0.9,0c0,1.1,0.1,2.1,0.1,3.2c-0.5,0.3-1,0.5-1.5,0.8   C113.4,532.7,114.6,531.4,115,530.1z" />
	<path fill="#857965" d="M121.2,537.4c0.1-1.1,0.1-2.1,0.2-3.2c1.5,1.9,0.8,4.1,0.9,6.2l0,0.1c-0.6,0-1.2,0.1-1.8,0.1   c-0.1-0.3-0.1-0.6-0.1-0.9C121.2,539.2,121.3,538.4,121.2,537.4z" />
	<path fill="#13100E" d="M120.3,539.7c0,0.3,0,0.6,0.1,0.9c-0.2,0.6-0.3,1.2-0.5,1.8c-0.3-1-0.6-1.9-0.8-2.9   C119.6,538.4,120,539,120.3,539.7z" />
	<path fill="#857965" d="M123.4,552c-0.1,0.3-0.2,0.6-0.3,0.9c-0.3,0.1-0.5,0.1-0.8,0.1c0.1-1.1-0.5-2.5,1.1-3.1   C123.3,550.6,123.4,551.3,123.4,552z" />
	<path fill="#45362D" d="M118.1,554c-0.8-0.1-0.5-0.9-0.7-1.4c0.3,0.2,0.7,0.5,1,0.7C118.3,553.5,118.2,553.8,118.1,554z" />
	<path fill="#B2A187" d="M119.9,542.5c0.2-0.6,0.3-1.2,0.5-1.8c0.6,0,1.2-0.1,1.8-0.1c-0.2,1.7-0.6,3.2-2.1,4.2   C120,544,120,543.2,119.9,542.5z" />
	<path fill="#B2A187" d="M120.1,544.7c0.2,0.9,0,1.7-0.3,2.6C119.2,546,119.2,546,120.1,544.7z" />
	<path fill="#CBB99E" d="M122.3,540.5c-0.2-2.1,0.6-4.3-0.9-6.2c-0.1-1.3-0.1-2.6-0.3-4.7C123.5,533.4,124.5,537,122.3,540.5z" />
	<path fill="#3C332F" d="M130.4,540.4c-0.1,0.9-0.5,1.6-1.8,1.6c0-2,0-4,0-6.1c0.6,0.2,1.3,0.3,1.9,0.5c0,0,0,0,0,0   c0,0.4-0.1,0.8-0.1,1.1C129.1,538.9,129.1,539,130.4,540.4z" />
	<path fill="#6C6058" d="M130.4,540.4c-1.3-1.4-1.3-1.5,0-2.9C130.4,538.5,130.4,539.5,130.4,540.4z" />
	<path fill="#F6D9C7" d="M134.6,547.6c1,0.9,2,1.8,2.9,2.6c-1.8,0.2-3.2-0.2-3.8-1.8C134.1,548.2,134.3,547.9,134.6,547.6z" />
	<path fill="#6A6052" d="M109,522c0.2,1,0.4,2.1,0.7,3.1c-0.6,0.3-1.2,0.6-1.9,1c0-1.4-0.1-2.8-0.1-4.2   C108.1,521.9,108.5,521.9,109,522z" />
</g>
</svg>