<?xml version='1.0' encoding='utf-8'?>
<svg xmlns="http://www.w3.org/2000/svg" version="1.2" baseProfile="tiny" id="Layer_1" x="0px" y="0px" viewBox="0 0 900 600" overflow="visible" xml:space="preserve">
<g id="a">
	<path d="M678.5,236.8c-4.3,7.7-10.1-1.3-15.3-2.6c-12.8,6.4-18.8-2.7-22.6-13.8c4.5,34.1-16.1,34.3-12.4,56.5   c12.5,28.7,8.9,45.8,3.5,75.4c16.7,2.1,30.6,10.3,46.2,15c18.4,1.9,36.8,1.2,55.2,1.7c10.9-6.5,21.5-17.8,35.1-16.7   c11.7,4.6,23.9-1.3,35.4,1.1c0.3,1.4,0.6,2.7,0.9,4.2c6.7,2.1,13.9-2,20.7,0.9c5,1.2,12.2-2.3,14.1,4.7c1.9,0.3,3.4,0.5,5.1,0.7   c6,5.5,2,10.3,2.4,17.3c11.4-0.4,12,8.6,0.3,9.5c0,0.2,0.1,0.5,0.1,0.7c2.5,0.1,5,0.1,7.4,0.2c3.3,3.3-0.9,6.3-3.1,9.1   c9.2,7.5-5.8,13.5-13,14.7c-0.6,1.5-1.3,3.1-2.2,5c-17.4,12.3-41.4,7.8-61.6,9c-5.9,0.1-10-4-14-7.8c-12.5-6.8-28.1-1.5-41.9-1.3   c29.3,15.9,34.4,58.2,13.7,83c-11.8,16.6-34.2,13.5-52.1,12.5c-12.9-1.7-22.4-11.5-32.8-18.4c0.5-0.5,1-1,1.5-1.4   c3,1.9,6.4,4.7,9.8,4.1c13.8,17.1,42,14.5,61.1,9.7c36.4-23.3,22.8-82.3-17.3-93.5c-14.6-7.9-29.8,0-44.5,3.7   c-13.5,0.3-27.3-0.6-40.5-2.7c-24,23.4-0.8,54.9,20.6,69.5c-0.5,0.4-1,0.9-1.4,1.3C612.2,475,593,442,613.6,417.4   c-21.1-3.9-30.8,2.4-44.6-19.6c-16.7-2.3-14.9-24-18.4-36.5c-9.7-30.1-13.4-59.9-9.6-91.4c-14.8,7-32.8,2-47.9-2.4   c-4.7-0.5-9.4-6.5-13.6-2.9c-13.5,3.6-25.4,10.8-39.7,5.3c-15.7,5.6-31.5-3.9-47.5-3.3c-0.9,5.8,1.9,10.8,1.4,15.9   c2.4,6.2,15.6,8.3,8.7,16.7c3.1,5.6,11.7,7.1,8.1,15.4c23,32.1,100.7,201.8,15.8,191.9c-24.3,7.7-48.3-0.5-72.7-0.5   c-67.8,4.8-130.6-29.3-198.8-24.4c-0.3,3.7-0.6,7.1-0.9,10.9c-14.3,6.5-30.2-10.7-44.1-0.4c-27.7,12.6-58.8,8.5-86.5,21.1   c-6.7-2-11.2-8.8-18.3-12.4c3.7-17.1,31.6-63,51.3-60.2c-24.3,10.8-34.1,35.8-46.8,57.2c6.4,13,21.2,9.7,31.7,4   c8.2-4.4,16.8,0.5,25.3-2.8c-3-8.9,3.1-8,5.5-0.7c6.9-0.9,12.9-1.3,18.8-4.9c-9.3-8.8-5.6-19.7,3-5.3l0,0c1.7,1.6,1,6,3.8,3.6   c0.7,0.1,1.2-0.5,1.8-0.5c-0.2-0.3-0.5-0.6-0.7-0.9l0,0c-0.4-0.4-0.7-0.8-1.1-1.3l0,0c-2.5-4-5.3-8.4-5.7-13.1   c2.2-2.7,2.2-2.7,4.5-1.6c3.5,5.3,4.2,11.1,9,15.1c1.9-1,3.8-2,5.9-3c-2.2-5.3-14.2-16.9-6.5-20.8c4.8,5.8,6.8,13.5,10.5,19.6   c7-0.4,34.6,7.6,35.9,3.4c-0.7-9.7-4.5-20.3-12.3-26.3c-6.3-17.3,11.8-32.5,27.9-32.3c1.9-1.5,3.6-2.9,5.1-4.1   c1.1,0.1,2,0.2,3.5,0.3c-14-8.8-33.1-16.6-40.7-33.2c-4.4-2.1-19.4-15.2-11.2-17.9c0.9,0.7,1.9,1.4,3,2.2   c31.2-29.3,28.9,7.5,58.4,32c12.6,11.8,32.8,3,48.5,6.5c27.5,2.1,54.3-4.3,81.6-5.7c-8.7-6.8-15.7-13.6-23.2-21.7   c-4.6,0-9.2,0-14.2,0c-49.1-62.4-122.5-187.7-22.5-238c3.6-5.4,12.8-13.9,17.2-4.9c26.8-6.1,52.3-14.9,78.9-21.8   c54.3-6.2,108.7-6.8,162.5-16.4c42.3-2.3,83,20.5,124.7,17.4c34.6-4.3,59.7-36.5,94.6-39.6c14.9,1.1,31.6,8.1,38.9,21.9   c5.4,11.1,14.6,20.9,11.5,34.1c5,12.1,1.4,26-4.3,37.3c-2.1,0.5-4.1,1-6.4,1.6c-6.8,21.4-31.6,36.5-53.2,36.8   c-3.3,4.7-7.1,9.7-11.8,13.8c-0.4-0.5-0.9-0.9-1.3-1.4c4.5-5.3,7.7-12,13.8-15.6c0.7-0.5,2-0.3,2-2.1c-2.5-1.5-5.4,1.3-6.8-1.7   c2.6-2.7,1-6.4,2.5-9.8c4.8,1.8,4.4,8.8,9.7,9.7c-0.8,1-1.3,1.8-1.9,2.6c2,1.1,3.6,0.7,5,0c3.2-7,0.3-12.8-0.4-19.4   c4.9,4.8,5.6,7.5,5.3,17.6c15.2-8.4,39.2-20.5,32.5-41c-2.6-1.8-6.1-4-8.8-5.7c-12.4,6.1-6.5,10-25.1,10.9   c-7.1,1.4-12-7.2-18.4-9.6c-4.6-2.7-3.7-7.1-7-10.4c4-2.1,5.1-14.5,2.1-16.8l0,0c-3.6-11.4-25.1-4.1-27,5.7   c-3.7,5.2-8.4,12.2-3.7,18.4c-3.1,1.1-6,2-8.9,3c-0.5-0.4-1-0.8-1.5-1.2c7.5-3.6,3.9-2.9,5.5-9.4c1.4-8.3,8-13,10.8-20.7   c-1.1-2.3-3.5-2.1-5.3-3.1c-1.4,0.8-2.7,1.6-3.9,2.2c-2-0.7-2.9-1.7-4-3.4c-1,0.8-1.8,1.3-2.7,2.1c-0.8-0.7-1.7-1.4-2.5-2.1   c0.6-0.8,1.1-1.3,1.5-1.8c-3.5-0.6-3.6-4.8-7.4-2.9c-11.5-1.1-23.2,3.8-34.9,5.3c3.1,1.5,6.8,0,9.8,2.8c-2.7,0.6-5.1,1-7.8,1.6   c7.1,13.3,2.5,26.7,1.5,40.1c0.9,6.8,4.6,14.5,1.9,21.1c2,2.9,3.7,5.4,5.4,7.8c1.7-0.3,3.1-0.5,4.9-0.9   c0.1,10.4-0.3,33.2,14.8,30.4c4.4-1.2,8.4-1,12.3,1.3c0.8,2,2.4,2.8,4.8,3c1.1-1.3,2.3-2.7,3.5-4.1c-0.9-2.1-1.5-3.9-3.3-4.9   c3.2-7.5,4.7,4.1,6.8,6.2C680.4,234.8,679.3,235.6,678.5,236.8z M376.1,258.8c0.2,0.4,0,1.2,0.8,0.5c-9.4-8.8-19.9-17.3-30.2-25.3   c0.4-0.3,0.7-0.7,1.1-1c1.3,1.3,1.3,1.4,2.4-0.1c0-0.3-0.1-0.7-0.1-1c0.6-0.1,1.1-0.1,1.7-0.2c13.6,9.2,23.5,24.5,38.3,30.9   c-0.3-1-0.5-1.7-0.7-2.4c18.2,2.1,39.2,6.7,56.8,2.1c0.8-0.4,1.6-1.3,3.2-0.1c-2.5,3.9-7.3,4.2-11.3,5.4c1.9,0.3,3.9,1.7,5.2-0.7   c12.4,2.1,23.8-3.6,35.7-4.9c20.9,1.3,40.8,11.5,61.8,4.4c2.2-6.2,4.3-12.4,5.3-18.8c-9.6-7.1-20.2-0.9-30.5-3.3   c-12.7-4.8-30.2-2-39-13.6c12.7,2.1,23.2,9.4,36.7,6.9c11.9,2.9,28.7-2,37,8.5c0.1,3.1-1.9,6-0.6,9.5c20.3,12,52.7,16.1,74.4,20.3   c-0.3-19.8,15.3-36.3,12.3-57c1-8.4-4.9-14.6-6.5-22.1c0-11.8-3-22.6-5.4-34.1c1.5,0.9,2.5,1.5,3.6,2.1c3.5-12.2,1.3-25.7-5.5-34.9   c-33.1-5.8-66.1-17-100.1-19.5c-21.3,2.2-42.2,4.3-62.9,8.7c-29.5,3.5-59.3,2.8-88.8,6.8c-40.6,6.6-80.7,19.6-119.5,28.7   c-60.8,39.9-41.4,109.5-16,165c12.3,24,34.4,41.6,46,66.4c26.1,0,52-7.5,77.3-13.2c22-6.9,46.8-9.8,65.7-23.7   c-5.5-13.6-15.6-25.8-17.9-40.4c-1.2-0.2-2.1-0.4-3.1-0.5c2.2-2.7-2.2-3.8-3.6-5.7c0-1.9,0-3.9,0-5.8c1.7-1,1.4-2.5,0.7-4.4   c-6.1-1.2-9.7-7.7-13.6-12.1c0.7-7.7-13.5-18.4-20.1-22.4C368.5,251.8,372.6,259.4,376.1,258.8z M384.4,266.9   c-0.2-0.4-0.3-1.3-1-0.4c0.3,0.2,0.6,0.4,0.8,0.7c0,2.4,2.2,3.4,3.2,5.1C388.1,269.5,386.6,268,384.4,266.9z M380.8,449.2   c-9.4-12.3-25.8-14.4-38.6-22.1c-22.7-9.1-46.7-2.7-69.2,4.1c-33,9.1-68.1,4.3-101.8,2.1c-1.2,1.3-2.2,3-3.6,3.8   c-4.5,2.3-3.8,7.4-6.6,11c-1.8,0.6-0.9,2.2-1,3.4c-3.5,7.1-4.1,17.3-3.4,25.8c23.5,1.8,47.4,2.7,71,6.2c31,4.7,60.6,17.5,92.2,17.5   c38.8,3.1,78.1,4.7,116.8,3c26.4-5.3,25.8-20.9,23.8-44c-9.2-36.4-14.4-75.9-35.1-107.8c-37.8,23.2-83.7,28.4-126.6,37.3   c8.1,8.8,17.7,18.4,29.5,22.4c10.9,7,20.6,16.8,33.6,20.7c8.1,3.3,16.8,6.6,20.4,15.3C381.7,448.2,381.2,448.7,380.8,449.2z    M841.7,375.1c-0.4-0.8-0.7-1.6-1.1-2.3c1.9-0.5,3.5-0.3,4.7-2.2c-0.8-1.3-1.5-2.6-2.1-3.5c-7.8,0.3-15.1,0.6-22.4,0.9   c0-0.6,0.1-1.1,0.1-1.8c5-0.6,9.9-1.2,14.8-1.9c-1.5-5.9-8.3-1.9-12.7-3c-1.4,1.6-2.9,3.3-4.3,4.8c0.3,0.8,0.4,1.4,0.6,1.9   c-6,0.1-10.8,1.8-17.3,2.9c-0.9,0.9-2.3,2.4-3.9,4.1c1.4,1.8,2.6,2.9,4.8,2.4c13.2,0.4,25.7,6.6,39.3,4c0.6-1.5,1.2-2.8,1.8-4.2   C843.1,376.4,842.4,375.8,841.7,375.1z M547.6,333.1c3.9,10.6,7.5,60.1,19,58.1c-6.6-27.5-17-54.5-23.2-82.4   C542.7,316.9,545.1,325.3,547.6,333.1z M744.2,413.8c15.4-0.6,25.8,15.1,41.4,11.2c6.7-1.1,12.7,4.4,19.3,0.6   c10-1.9,20.9-1,29.6-7.9c-9.9,0.2-16.5,2.9-26.3,1.6c14.5-4.9,32.6-2.8,44.1-13.7c-2.1-2.8-5.1-1.9-7.8-1   c-9.9,4.5-21.9,0.4-31.2,5.6c-0.3,0-0.5,0-0.8,0.1c1.5-7.9,16.8-4,22.4-6.8c2.6,1.3,19.9-6.3,16.9-9.4c-7.9,0.8-16.8-1.7-24.1,1   c-4.9,1.8-6.5,1.8-10.6,0c7-4.6,31.5-2.5,34.9-10.3c-10.5-0.7-59.3-0.5-61.7-11.9c1.7,0.8,3,1.4,4.2,1.9   c6.7-12.1,18.4-3.4,25.4-14.2c-14.3,1.3-29.1,1-42.2,5.4c-4.5,5.3-13.1,4.2-16.6,10.1c1.9,0.2,3.3,0.3,6,0.6   c-3.4,2.9-4.2,0.9-7.5,1.7c-36.7-0.6-74.8-1.6-109-16.6c-8.8-3.6-21.4-2-26.8-10.9c1.1-0.2,2.2-0.4,3.3-0.6   c8.4-22.8,6.1-48.4-1.7-71.1c-26.7-2.1-53-8.8-76.7-21.3c-11.9,27.3,3.8,56,8.2,83c8.6,23.1,8.1,50.5,27,67.9   c16.1,5.4,33.8,1.4,50.5,5.5c19.6,4.5,37.8-5.4,57.3-4.1C713.1,416,721,418.4,744.2,413.8z M334.5,421.3   c-22-18.4-59.4,3.3-87.3-0.5c-19-1.2-39.2,0.9-57.7-3.4c-6.4-4.2-11.4,5.9-10.2,11.3c25.3,6,51.6,4.6,77.2,1.8   C282.6,425.7,307.7,413.9,334.5,421.3z M147.1,368.2c-7.5,2.2-12.5,7.6-18,12.8c10.4,14.9,22.8,28.7,39.3,37.1   c5.1-2.5,9.2-2.6,14.2-5C171.4,398.3,157.5,384.6,147.1,368.2z M800.7,356.6c-34.3,5.3-36.3-10.8-64.6,15.8   c4.1,1.7,14.6,2.8,19.4,2.3c4.8-5.1,12.2-5.7,17.6-9.8c4.7-4.4,10.5-5.3,16.3-4.5C793.7,360.5,798.6,361,800.7,356.6z M143.1,448.3   c-1.8,9.9,3.6,16.8,9.6,24.2c1.8-13,1.6-27,11.1-37.4C154.1,435.9,148.5,441.7,143.1,448.3z M435.5,267c-3.9,0.1-7.6-0.3-11.4,0.4   C427.8,267.9,433.1,271.3,435.5,267z M670.4,121.3c-0.3,0.1-0.6,0.2-0.9,0.3c0,1.4,0,2.7,0,4c1.5,0.8,2.8,2,3.9-0.4   C672.4,123.9,671.4,122.6,670.4,121.3z M638.6,206.4c0.1,1.3,0.4,2.2,2.1,2.5c-0.1-1.3-0.2-2.2-0.3-3.2   C639.6,206.1,639.1,206.3,638.6,206.4z M771.8,128.8c-0.5-0.2-1-0.6-1.3,0C771,129.4,771.3,129.5,771.8,128.8z M720.1,205   c-0.2,0-0.5,0.1-0.7,0.1c0.1,0.6,0.2,1.1,0.3,1.7c0.3-0.1,0.6-0.1,0.8-0.2C720.4,206.1,720.3,205.5,720.1,205z" />
	<path fill="#080606" d="M58.7,437.5c24-13.2,24.3-51,53.6-59.1c0.5,0.5,1.1,0.9,1.6,1.4c-31.5,16-31.4,54.1-54,59   C59.6,438.3,59.1,437.9,58.7,437.5z" />
	<path fill="#1A1614" d="M679.6,230.7c0-0.8-0.1-1.6-0.1-2.4c2.2,1.1,4.3,2.3,6.8,3.6c3.6-3.8,9-7.1,13.3-2.3   c0.1,0.6,0.1,1.1,0.2,1.7c2.9,1.3,4.5-1,6.6-2c0.4,0.5,0.9,0.9,1.3,1.4c-5,5.3-6.8,5.3-14.9-0.1c-2.5,2.2-4.9,4.3-7.6,6.3   c-2.2,0-4.5,0-6.8,0c1.4-2.2,3.3-2.5,5.8-3.1C682.8,232.1,681.9,230.3,679.6,230.7z" />
	<path fill="#111D1F" d="M649.1,496c-0.5,0.5-1,1-1.5,1.4c-4.1-2.5-7.6-5.8-10.8-9.4c0.5-0.4,1-0.9,1.4-1.3   C641.9,489.9,645.5,492.9,649.1,496z" />
	<path fill="#382B2B" d="M113.9,379.8c-0.5-0.5-1.1-0.9-1.6-1.4c2.8-1.9,5.6-3.9,8.6-5.9c1.1,1,1.8,1.8,2.6,2.5   c-1.8,0-2.8,0.8-2.8,2.7c-0.5-0.3-1-0.6-1.5-0.9C117.5,377.8,115.7,378.8,113.9,379.8z" />
	<path fill="#6C5653" d="M854.6,391.6c-2.5-0.1-5-0.1-7.4-0.2c0-0.2-0.1-0.5-0.1-0.7c1.8-0.4,3.6-0.8,5.4-1.2   C853.2,390.2,853.9,390.9,854.6,391.6z" />
	<path fill="#382324" d="M58.7,437.5c0.4,0.4,0.8,0.8,1.3,1.3c-1.2,0.6-2.5,1.2-3.7,1.8c-1.2-0.3-2.5-0.6-3.7-0.9   C54.6,438.9,56.7,438.2,58.7,437.5z" />
	<path fill="#D5D2DC" d="M479.5,264.6c2-1.9,4-1.6,6,0.1C483.4,264.6,481.5,264.6,479.5,264.6z" />
	<path fill="#E0DEE5" d="M371.1,248.4c-34.2-31-66.6-64.5-96.4-99.6c32.1-7.5,63.2-18.5,96-23c29.5-4,59.3-3.2,88.8-6.8   c20.7-4.4,41.7-6.5,62.9-8.7c34,2.6,67,13.7,100.1,19.5c6.8,9.1,9,22.6,5.5,34.9c-1.1-0.7-2.1-1.3-3.6-2.1   c2.4,11.5,5.4,22.3,5.4,34.1c1.6,7.5,7.5,13.7,6.5,22.1c3,20.7-12.7,37.2-12.4,57c-3.5,0-25.1-4.5-31.5-6.6   c21.8-10.5-29.3-28.4-15.5-71.2c-2-2.6-3.6-4.7-4.6-6c-11.3-0.1-16.8,12.7-22.3,20.4c-8.7,1.8-17.1,2.8-23.4,8.7   c-34.3,3.8-65.5-12-99.2-11.5c16.8,18.3,41.8,24.2,65.1,30.2c-7.2,5.9-20.2,4.2-29.6,4.8c-10.3,3.1-37.5-16.5-41-5.7   c1,1.3,2,2.6,3.4,4.4c-12.8-1-24.5-5-36.4,1C382.2,241.2,377.3,246.1,371.1,248.4z M461.9,136.8c-10.3,3.6-18.7,12.3-21.6,23.1   c1.8,0.7,2.8-0.8,3.1-1.8c1.2-4.3,5.4-5.8,7.6-9.3c-0.7-1.1-1.4-2-2-3c4.3-1.3,7.9-3.8,11.9-5.8c0.7,0.2,1.4,0.5,2.3,0.8   c21.1-15.4,46.1-9,70.1-12.5c2-1.2,9.5,0,7.8-3.2c-25.4,5.8-54.5-4-77,13.2C463.2,137.7,462.6,137.2,461.9,136.8z M444.2,164.5   c10.1,8.7,23.4-1.5,34.2,2.5c-2.4,1.2-4,1.9-4.9,4.8c3.3,0.3,5.2-1.1,7.2-2.5c-0.1-1.2-0.2-2.1,0-3.2c3.4-2.3,7.6-2.3,10-6   c-3.6-1.7-6.3,1.5-9.6,2.6c-5-4-10.2-6.9-16.9-6.1C459.2,157.7,438.4,155.3,444.2,164.5z M369.2,132.7c3.8,0.6,3.8,0.6,12.8-2.8   C379.9,126,371.2,129.5,369.2,132.7z M406.8,130.5c-4.3-2.5-13.1-6-15.6-1.1C396.9,128.9,401.2,131.1,406.8,130.5z M544.8,126   c3.5-0.1,5.9,0.4,8-1.8C548.9,122.5,548.3,122.6,544.8,126z M625.2,198.3c1.9-3.6,1.9-3.6-1.8-6.1   C622.1,194.6,623.8,196,625.2,198.3z M476,177c-4-2-3.6,3.9-4.4,6.2c2-0.1,1.8-1.5,2.1-2.8C474.1,179.2,475.1,178.2,476,177z    M616.4,187.2c-0.8,3.1-0.8,3.1,3.4,5.6C619.8,189.9,618.5,188.3,616.4,187.2z M365.8,133.4c-2.1-2-6.3-0.2-4.2,1.6   C362.8,134.5,364,134.1,365.8,133.4z M623.9,154.7c-0.4,0.1-0.8,0.3-1.2,0.4C623.1,159.3,626.3,158.2,623.9,154.7z M557.8,124.6   c-1.5-0.6-2.7-1.5-2.8,0.4C556,126.2,556.5,125.8,557.8,124.6z M622.1,149.3c-1.3,1-1.3,1.4-0.3,2.4   C623.2,151,622.9,150.6,622.1,149.3z M356.2,135c-1.5-1.3-3.1-0.4-2.2,1.2C354.7,135.9,355.4,135.5,356.2,135z M562.5,126.7   c0.5,0.2,1,0.6,1.3,0C563.3,126.1,563,126.1,562.5,126.7z M347.1,136.8c0,0.3,0,0.5,0,0.8C349.2,137.6,349.2,136.9,347.1,136.8z    M476.8,172.9c-0.7,0.3-1.3,0.4-0.8,1.3C476.9,173.9,477.2,173.7,476.8,172.9z" />
	<path fill="#B28C7D" d="M377.3,372.7c16.5-5.7,33.5-10.9,48-20.6c19.2,31.6,39.4,100.3,34.3,137c-6.5,3.5-12.3,9.8-20.2,9.3   c0.4-1,0.9-2,1.5-3.5c-9.2,2.6-23.1,5.6-32.2,4.3c3.4-3.3,8.9-5.4,9.5-10.6c-7.9-4.4-14.1,0.9-21.9,1.7   c-12.7,2.8-26.5,5.6-39.4,5.4c-66.5-6-132.2-34.2-199.2-28.3c0-3.7-1.2-7,0.7-10.2c6.7-0.3,14.3,1.1,20.7-0.4   c4.2-1.8,9.5,3.1,12.3-0.8l0,0c1.9-0.2,2.3,1.5,3.7,2.4l0,0c2.7,1.8,2.7,1.8,6.1-1.1c2.2,0.1,5-0.7,6.8,1.1c-0.2,0.7-0.4,1.3-0.7,2   c1.6,0.5,2.9,0.9,4.9,1.5c-0.4-1.6-0.6-2.5-0.8-3.5c6.2,0.1,18.3,3.4,23.1-2.6c-22.7-7-46.9-8.7-70.6-9.3   c-2.9-6.4,4.1-9.1,7.3-13.4c33.7,2.2,68.8,7,101.8-2.1c26-8.6,54.4-13.6,79.1,0.6c25.1,10.4,19.6,6.9,33,27.9c1.4,0,2.7,0,4.1,0   c1.5,0.5,2.1,2.8,4.7,2c-1.5-6.7-2.7-12.2-6.7-18.3c3.2-0.1,5.3,1.8,7.7,3c4.4,11.9,7.6,24.2,15.3,34.5c0.6-0.1,1.3-0.3,2.4-0.5   c1.2-19.8-9.3-43.1-24.5-55.4c-10.6-12.6-18.4-28.9-27.4-43C365.9,378.1,373,377.7,377.3,372.7z M363.3,490.3   c3.7,2.1,24.9,2.3,23.9-3.3c-1.7-0.1-3.6-0.3-5.8-0.4c-7.3-6-29.1-4.7-39.5-5.6c-22.4-2.1-43.9-11.4-66.2-13.8   C299.5,487.3,333.8,487.6,363.3,490.3z M354.2,467.2c3.2,3.6,9.7,3,14.6,4.2c-0.9-2.8-1.4-3.9-4.2-4.2   C361.2,466.9,357.7,464,354.2,467.2z M395.3,465.2c-0.1,3.9-0.1,3.9,3.1,5.4C398.9,468.2,397.9,466.7,395.3,465.2z M334,465.4   c2.9,1.8,4.7,1.7,7.1,0.6C339,463.7,337.2,464.2,334,465.4z M403.1,478.4c-0.1-1.2-0.1-2.2-0.2-3.5   C400.2,475.4,400.5,477.8,403.1,478.4z M441,491.6c0.9-1,1.2-1.9-0.2-2.2C439.6,490,439.8,490.7,441,491.6z M344.9,466.8   c-0.6,0.7-1.1,1.2-1.8,2.2c1.4,0,2.2,0,3.5,0C345.9,468,345.5,467.5,344.9,466.8z" />
	<path fill="#B28C7D" d="M564.3,265.8c20,5.9,39.9,12.6,60.9,13.4c7.9,22.7,10.2,48.2,1.7,71.1c-1.1,0.2-2.1,0.4-3.3,0.6   c5.4,8.8,18,7.3,26.8,10.9c34.2,15,72.3,16,109,16.6c3.3-0.8,4.2,1.2,7.5-1.7c-2.6-0.3-4.1-0.4-6-0.6c3.5-5.9,12-4.8,16.6-10   c13.1-4.4,27.9-4.1,42.2-5.4c-7,10.8-18.7,2.1-25.4,14.2c-1.2-0.5-2.5-1.2-4.2-1.9c2.7,11.4,50.8,11.2,61.7,11.9   c-3.5,7.8-27.9,5.6-34.9,10.3c6.4,3.4,13.7-2.1,20.9,0.5c0.2,1.9,0.4,3.5,0.6,6.1c2.6-2.7,2.2-4.3,2.3-7.5c3.7,0,7.3,0,11,0   c3,3-14.2,10.7-16.9,9.4c-12-1.4-24,2.5-35.7,0.1c-2.4,0.9-4.2,2.5-5.6,4.6c0.7,1.7,2.2,1,3.4,1c5.3,1.9,10.9,3.8,16.2,1   c1.1,0.2,2.1,0.3,2.6-1c9.2-3.8,19.5-0.5,28.7-4.6c2.7-0.8,5.6-1.8,7.8,1c-13.4,12.4-38.4,10.4-55.1,7.2c-1-0.4-2.8-0.7-3.4,1.2   c4.5,6.7,21.5,9.4,28,4.7c4-0.4,8-0.7,12.7-1.1c-17.6,13.2-59.9,2.9-76.4-9.5c-4.7-1.9-16.4-2-23.3,1.1c-13.5,0.5-27.4-1.1-40-5.5   c-16.1-7-35.3,0.2-52.5-3.8c-16.5-1.5-32-1.9-48.8-4.1c-3.8-5.3-14.2-10.3-10.8-18.4c8.2,4,20.5,5.5,27.4,0.5   c-8.8-0.9-14.9-4.7-21.3-10.6c-4.2-4-11.6-5.6-12.8-11.8c-4.1-14.4-4.2-29.8-9.8-43.7c-0.8-1.7-1-3.8,0.7-5   c4.3,2.9,7.7,6.8,12.8,8.4c1,1.2,2.1,3.4,3.5,1.3c1.3,0.4,2,2.6,3.4,1.1c-6.4-17.8-23.6-31.7-24.4-51.3   C563.1,266,563.7,265.9,564.3,265.8z M603.4,384.2c1.6,7.2,13.6,11.4,18.3,5.3C614.1,389.6,610,388.2,603.4,384.2z M625.2,345.7   c0.3-4.1,1.7-10-2.6-11.9C621.5,338,621.5,343.9,625.2,345.7z M813.8,393.6c-4.1-1.6-6.7,0.1-9.7,1.8c0.7,0.8,1.2,1.3,1.8,2   C808.4,396.4,811.3,396.6,813.8,393.6z M586,327c-1.4,2.5-1.7,8.2,2,7.6C587.9,332,588.3,329.4,586,327z M622.6,391.4   c4.2,2.1,4.5,2.1,6.1,0C626.9,389.8,625.2,390.2,622.6,391.4z M584.5,325.4c0.9-1.9,1.5-3.9-1.1-5.4   C582.8,322.1,582.6,323.8,584.5,325.4z M619.3,322.6c0.5-3.2-0.5-4.8-2.3-6.3C616.3,318.6,616.3,318.6,619.3,322.6z M621.7,331.4   c0.1-2.6,1-4.1-0.9-6C619.5,328,619.5,328,621.7,331.4z M632.7,393.3c1.3,0.9,2.6,1,4.2,0.1C634,391.1,633.8,391.1,632.7,393.3z    M616.5,378.8c-2.5-2.9-2.5-2.9-3.7-0.4C614,378.5,615.3,378.6,616.5,378.8z M784.5,371c0.6,1,1,2,2.4,1.5   C788.1,370.9,785.8,369.6,784.5,371z M787.8,407.3c0.6,1.3,1.9,2.1,3,1C791.3,406.6,788.8,406.5,787.8,407.3z M622.7,376.5   c1.1,0.7,2.3,2.1,3.1,0C624.7,376.5,623.7,376.5,622.7,376.5z M791.1,394c-1.8-0.7-2.2-0.9-2.7-1   C787.4,395.1,789.1,394.9,791.1,394z M632.1,376.5c0.8-0.8,1.6-1.4,0.7-2.2C631.3,374.6,631.3,375,632.1,376.5z M836,408   c-0.1,1.3-0.1,2.2-0.2,3.6c1.1-0.8,1.6-1.2,2.3-1.8C837.4,409.3,836.9,408.8,836,408z M655.2,391.6c-0.1,0.2-0.2,0.5-0.3,0.7   c0.7,0.3,1.3,0.5,2,0.8C657.5,391.7,656.1,392,655.2,391.6z M799.6,394.1c0,0.3,0,0.6,0,0.9C801.7,394.8,801.7,394.2,799.6,394.1z    M795.5,394.4c-0.7-0.4-1.1-0.6-1.5,0.3C794.7,395,795.1,395.2,795.5,394.4z M664.7,394.4c0.4,0.7,0.8,0.6,1.4,0.3   C665.8,393.8,665.4,394,664.7,394.4z M643.3,391.8c0,0.3,0,0.5,0,0.8C645.4,392.6,645.5,391.9,643.3,391.8z" />
	<path fill="#6D5CA9" d="M228,176.6c6.9-8.6,14.4-15.5,23.2-22.3c1.6,0,3.7,0,5.8,0c12.6,22.3,37.1,33.5,54.3,51.6   c-0.4,0.4-0.8,0.8-1.1,1.2c-4-0.2-11-6.2-13.5-1.7c9.5,2.3,13.9,4,23,9.8c-0.3,3.8-3.7,4-1.3,9c-8,0.8-19.7-0.6-24.3-7.6   c-2.9-0.6-5.5-1.1-8.1-1.6c-1.8-9.1,11.5,3.5,12.3-1.7c-3.2-2.1-7-2.2-10.4-3.9c1.4-5.2,5.7-8.5,6.7-13.5   c-3.9,3.4-6.4,7.8-8.8,12.2c-17.8-3.7-35-13.9-50.2-21.6c13.4,12.2,32.4,17,48.8,24.4c-0.5,5,2,8.2,7.1,8.3   c6.9,8.9,20.6,6.7,30.1,10.7c3.1,3.4,17.9,23.2,21.7,18.1c-4.3-6.8-10-13.6-12.7-21c0.7-0.7,2.5-0.5,1.6-2.5c-1.7,0-3.4,0-5.2,0   c-0.2-1.7-2.1-4.1,0.3-4.9c6.3,2.3,10.6,7.2,15.2,11.9c-1.4-0.2-2.9-0.4-4.4-0.7c-0.1,4.4,0.8,5.8,6.6,10.1c1-0.6,2.1-1.2,3.5-2   c1.6,3.7,5,5.7,5.8,9.5c-3.7-1-6.2-4.5-10.8-5c13.5,10.9,28.4,18.6,39.2,32.7c-0.2,0.3-0.5,0.5-0.9,1   c-10.6-9.2-25.1-18.3-37.5-22.4c2.2,4.2,16.2,11,14.8,14.5c-12.7-6.9-26.8-19.6-40.9-21.2c24.8,11.4,45.1,28,67.9,42.4   c4.2,2.5,8.5,5.1,12.7,7.7c0.7,1.2-0.4,3.2,1.5,4c0.4,0.4,0.8,0.8,1.2,1.2c-7.2,2.2-22-12.6-30.3-12.2   c10.6,7.5,22.8,14.7,35.8,17.2c2.2,14.6,12.4,26.8,17.9,40.4c-20,14-45.9,18.2-69.2,24c-0.4-1.6,0.8-3.6-1-4.9   c-0.7-1.8-1.4-3.5-2.1-5.3c0.9-0.4,1.6-0.8,3.1-1.5c-8.8-1.4-8.2-13.4-12.6-19.8c1.8-0.3,3.3-0.6,5.4-0.9c-2.8-0.8-4.8-1.4-6.8-2   c-3.2-7-6.3-14.1-9.5-21.1c6.6-2.6,14.7,5.7,22.3,3.1c-8.8-4.6-17.2-8.1-25.7-11.3c-3.7-3.9-10.5-25.3-14.1-23.7   c1.1,2.7,2.2,5.6,3.3,8.4c-18.2-8.1-37.1-16.3-54-27.1c-0.2-1-0.4-2.1-0.6-3.3c22.6,9.5,27.3,11.2,32.1,11.3   c-12.7-11.1-28.7-18.5-43.5-26.7c-0.7-0.6-2.2-1.4-0.9-2.3c14.7,6.7,28.4,15.7,44.6,18.7c9.5,3.2,16.9,13.1,26.2,14.8   c-8.8-6.8-17.7-11.4-22.6-21.7c4.5-2.3,11.1,5.4,16.4,6c10-5.1-19.6-17-23.6-18.8c-4.6-6.2-5.3-12.8-6.5-20.2   c-3.3,4.2,0.3,10.4,0.9,15.3c-0.6,1.5-1.5,0.6-2.3,0.2C255.8,226.9,215.3,215.7,228,176.6z M267,222.2c0.2,0,0.5,0,0.7,0   c0.7-0.5,1.5-1.1,2.1-1.5c4,3.8,13,4.1,8.9-3.3c-11.3-9-26.8-13.3-40.8-14.7c3.7,2.1,7.2,4.1,10.6,6c-0.2,0.3-0.4,0.6-0.6,0.8   c-0.7,0.1-1.4,0.2-2.7,0.5C252.6,215,259.8,218.2,267,222.2z M281,200.9c1.4,0,5,1.3,4.2-1.3c-18.2-3.6-35.7-15.7-54-19.1   C246.7,189.8,264.3,194.1,281,200.9z M353.2,288.4c-5.2-3.7-20.9-15.1-28.4-16C329.2,275.9,347.2,286.3,353.2,288.4z" />
	<path fill="#544492" d="M328.1,309.3c8.5,3.2,16.9,6.7,25.7,11.3c-7.6,2.7-15.7-5.6-22.3-3.1c-11.3-6.6-24-10.4-36.1-15.9   c-0.5,0.9-0.9,1.8-1.2,2.5c10.4,15.5,24.7,24.8,40.8,33.4c-5.3,0.8-10.4-2.2-16.8-0.8c2.8,0.9,4.5,1.5,6.3,2.1   c4.8,7.5,11.8,13,17.6,19.6c-1.8-0.3-3.6-0.5-5.3-0.8c12,8,6.9-3.6,16.6,12.7c0.3-1,0.4-1.7,0.6-2.4c1.8,1.3,0.6,3.3,1,4.9   c-23.8,6.9-48.9,12.4-73.8,12.8c-35.5-54.3-62.8-79-70.8-149.4c1.5-0.9,1.2-1.6-0.2-2.3c-1.5-20.6,4.2-41.5,17.7-57.4   c-12.7,39.1,27.8,50.2,55.4,63.4c0.8,0.4,1.7,1.2,2.3-0.2c1.9,4,3.9,7.9,5.8,11.9c-10-4.6-18.9-11.2-28.8-16   c4.9,5.6,9.1,11.3,13.5,17.2c-4-1-7.5-3.5-11.7-3.6l0,0c-0.8-0.4-1.5-0.8-2.3-1.2c-0.1-0.3-0.1-0.6-0.1-0.9   c-2.7-3.1-18-16.9-21.1-15.5c1.5,2.8,3.1,5.6,4.6,8.4c-2-1-3.2-2.1-5.6-2.2c2.8,4.4,6.7,5.2,10.5,7.8c-1.4,0.9,0.1,1.7,0.9,2.3   c14.8,8.2,30.8,15.6,43.5,26.7c-4.8-0.1-9.4-1.8-32.1-11.3c0.2,1.2,0.4,2.3,0.6,3.3c-4.8-1.2-9.3-8.4-13.9-7.2   c6.4,5.5,14,9.5,20.9,14.3c3.9,10.7,42.2,29.8,53,31.7c2.3,2.2,2.3,6,5.1,8.1C330.1,311.9,328.2,310.7,328.1,309.3z M266.8,292.9   c-1-1.5-2.4-2-4.7-2.3c1.6,3.1,4.3,1.3,6.4,3.7c8.2,2.6,16,8.5,24.9,7.1C284.1,299.7,275.9,294.3,266.8,292.9z" />
	<path fill="#2D8FB9" d="M649.1,496c-23.1-18.2-60.1-48.3-31.4-78.7c13.3,2.1,27,3,40.5,2.7c-15.6,5.4-20.6,23.2-18.8,38.4   c1.5,0.6,2.7,1.1,3.9,1.5c-0.6,2.6-1.1,5.2,0.1,7.8c3.1,0.7,3-7.7,0.7-8.2c-0.3-3,1.7-5.6,0.1-8.3c0.6,0,1.1,0.1,2,0.1   c1-1.7,2.3-3.2,2.6-5.2c-0.6-0.4-0.9-0.6-1.2-0.8c4.8-5.2,7.8-11.6,14.1-15.2c0.4,0.4,0.7,0.8,1.2,1.4c15.5-14,35.7-11.1,54-8.1   c30.4,16.5,33.1,68.2,3.1,86.2c-19.2,4.9-47.3,7.4-61.1-9.7C655.5,500.7,652.1,497.9,649.1,496z M681.2,446.8   c0.8-4-3.2-12.6-6.5-15.1C675,437.2,677.5,442.7,681.2,446.8z M704.1,485.9c-1.4,1.4,5.9,20.3,7.8,16.7   C709.5,497.3,707.6,491.9,704.1,485.9z M634.5,430.6c2.6-2.8,7.8-4.8,8.9-8.1C638.2,424.2,635.8,426.1,634.5,430.6z M705.4,428.7   c-1.3,0.9-7.5,9.4-4.2,10.9C703.2,436.7,704.5,433.4,705.4,428.7z M681.4,492c2-2.3,3.4-4.9,2.5-8.3   C681.1,485.9,682.2,489.2,681.4,492z M624.3,432.4c2.3-1.1,2.3-1.1,5.6-6.4c0.1-0.2-0.3-0.6-0.5-1.1   C626.9,426.5,625.1,428.6,624.3,432.4z M724.8,478.8c2.2,4.7,2.2,4.7,5.5,6.3C729.1,482.2,727.8,479.8,724.8,478.8z M646.7,477.2   c-0.3-2.1,0.2-4.5-2.3-4.4C642,474.1,643.2,477.5,646.7,477.2z M669.6,478.7c-2.2,1-7,2.4-6.1,5.3   C666.3,483.2,668.2,481.3,669.6,478.7z M663,468.9c-3.6-2.8-5.3-2.8-7.1-0.2C658.1,469.6,660.1,469.2,663,468.9z M647,481   c-0.4,3.5,0.3,4.3,3.2,3.6C650,482.6,649.4,481.2,647,481z M723.4,452.2c-3.2-1.1-5.5,0.1-4.6,2.6   C720.1,454,721.3,453.3,723.4,452.2z M720.7,448.3c0.2,0.3,0.4,0.6,0.6,0.9c1.2-0.5,4.2-1.5,1.9-3.1   C722.4,446.9,721.5,447.6,720.7,448.3z M652.5,490.5c-0.6-0.8-1.2-1.7-2.2-3.1C649.8,489.8,650.5,490.6,652.5,490.5z M652.3,493.8   c-0.3,0.1-0.5,0.2-0.8,0.3c0.2,0.6,0.3,1.2,0.5,1.8c0.5-0.2,0.9-0.3,1.4-0.5C653,494.9,652.7,494.4,652.3,493.8z" />
	<path fill="#B1B6B7" d="M56.3,440.5c30-7.9,23-45.1,63.1-63.8c0.5,0.3,1,0.6,1.5,0.9c3.1,6.4,7.4,11.8,13.9,15.3   c7.6,16.7,26.7,24.4,40.7,33.2c-1.5-0.1-2.4-0.2-3.5-0.3c-1.5,1.2-3.2,2.5-5.1,4.1c-16-0.1-34.2,15.1-27.9,32.3   c4.7,4.2,10.6,10.1,8.6,17.3c-12.1-1.5-23.5-8.4-35.2-0.8c-2.5-4.5-4.5-9-7.6-13.2c-7.2,2.6,2.1,9.7,0.8,14.5   c-1.7,1.2-3.1,2.2-4.5,3.2c-1.5-2.9-3-5.7-4.7-9c-2.3-1.1-2.3-1.1-4.5,1.6c0.3,3.9,2.5,7.6,4.3,11c-0.1,1.1,0,2.1,1.4,2.1l0,0   c0.4,0.4,0.7,0.8,1.1,1.3l0,0c-0.1,0.4-0.2,0.7-0.2,1.1c-1.1,0.9-2.3-0.7-3.4-1.1l0,0c0.1-1.1,0-2-1.3-2.2l0,0   c-1.8-3-8.2-12.1-8.7-3.6c1.8,3.4-0.5,5.4-4,4.6c-2.2-2.9-6.2-6.1-6.9,0c-19.3-0.4-45.8,23-60.3,1.4   C23.7,470.5,35.3,450.3,56.3,440.5z" />
	<path fill="#B28C7D" d="M706.4,229.2c-2.1,1-3.8,3.3-6.6,2c-0.1-0.6-0.1-1.1-0.2-1.7l0,0c2.2-1.1-2.9-4.4-3.5-6.1   c0.2-1.1,0.4-2.2,0.6-3.3c2.2-0.2,4.1-0.3,6-0.4c-0.9-2.6-2.8-2.2-4.5-2.1c-4.7,0.3-4.3,6-4.8,9.3c-2.6,1.1-5.1,3.2-7.1,4.9   c-2.5-1.3-4.7-2.4-6.8-3.6c-1.3-2.4-3.4-4.3-4.5-0.1c-3.3,0.8-3,4-4.9,5.9c-7.8-5.6-18.7,4.4-23.6-6.9c2.6-20.3,11.2-61.4,34-65.2   c-3.7-4.9-2-10,1.5-14.5c6.8,7.6,5.1,16.7,15.7,4.3c8.2,4.4,14.4-6.4,11.4-13.7c-0.3-0.8-0.5-2,0.9-2.3c0,0.8,0.8,1.4,1.2,2.1l0,0   c2.4,5.2,2.7,12.8-2.1,16.8c3.3,3.3,2.3,7.7,7,10.4c6.4,2.5,11.3,11,18.4,9.6c18.6-0.9,12.6-4.7,25.1-10.9c2.7,1.6,6.2,3.9,8.8,5.7   c6.7,20.5-17.3,32.6-32.5,41c0.3-10.1-0.5-12.8-5.3-17.6c0.7,6.6,3.6,12.5,0.4,19.4c-1.4,0.7-3,1.1-5,0c0.6-0.8,1.1-1.6,1.9-2.6   c-5.4-0.9-5-7.9-9.7-9.7c-1.5,3.4,0.1,7.1-2.5,9.8c1.4,3,4.2,0.3,6.8,1.7c0,1.8-1.3,1.6-2,2.1C714.1,217.3,710.9,223.9,706.4,229.2   z" />
	<path fill="#977264" d="M593.9,380.8c-3.9-0.4-7.5-1.5-11.3-3.3c-3.4,8.1,7,13.2,10.8,18.4c30.8,3.1,60.6,5.8,91.5,5.1   c16.2,3.8,32.4,10.2,49.8,8.3c0.2,2.1,0.1,4-1.2,5.7c-14.8,5.2-27.9-2.5-42.1-4.7c-19.5-1.3-37.8,8.6-57.3,4.1   c-72-2.9-57.8-10.2-77.4-73.4c-4.4-27-20.2-55.7-8.2-83c5.5,2.7,10.7,5.3,15.8,7.9c-0.6,0.1-1.1,0.2-2,0.4   c0.7,19.6,18,33.4,24.4,51.3c-1.5,1.5-2.1-0.8-3.4-1.1c-0.8-5.9-6-8.2-9.4-11.9c-1,0.5-1.7,0.8-2.4,1.1c-2.9-1.7-4.7-5-7.8-6.5   c-1.8,3,2,5.2,3.3,7.6c-1.8,1.3-1.5,3.4-0.7,5c5.7,13.9,5.7,29.3,9.8,43.7c1.2,6.2,8.6,7.8,12.8,11.8c4.5,2.9,7.8,7.8,13.2,9.1   c-6.1,5.5-12.8-6.9-15.3-2.5C587.9,376.9,591.4,378.8,593.9,380.8z M552.7,286.2c-3.7,3,5.5,20.1,9.1,14.9   C558.9,296.4,556.1,291.8,552.7,286.2z M595.1,401.4c-4.5-0.5-7.7-2.7-12.2-2.5C586.7,402.1,591.3,405,595.1,401.4z M730.3,411.4   c-1.5-1.3-2.9-1.6-4.9-0.1C727.7,411.7,728.5,411.8,730.3,411.4z M712.1,410.3c-0.3,0.7-0.4,1.2-0.6,1.6   C713.3,412.9,713.9,411.3,712.1,410.3z M716.6,410.6c2,1.2,2.9,1.5,3.9,0C719.3,410.6,718.5,410.6,716.6,410.6z" />
	<path fill="#D5D2DC" d="M486.7,237.6c-21.8-2.9-43.8-12.3-59.2-27.9c33.7-0.5,64.9,15.3,99.2,11.5c6.3-5.9,14.7-6.9,23.4-8.7   c5.6-7.8,11-20.6,22.3-20.4c1,1.3,2.6,3.4,4.6,6c-13.8,42.9,37.3,60.6,15.5,71.2c-15.2-2.2-29.8-5.9-42.9-13.7   c-1.3-3.5,0.7-6.4,0.6-9.5c-8.3-10.5-25.1-5.6-37-8.5c-13.5,2.5-24-4.8-36.7-6.9C478.2,235.2,483.2,235.1,486.7,237.6z    M565.8,237.6c2.5-3,3.6-5.9,4.2-11.3C565.1,223.6,564.9,234,565.8,237.6z M458.2,222.4c-3.9-5.7-4.3-6-7.6-5.4   C452.6,219.5,454,222.4,458.2,222.4z M473.3,230c-2.4-2.3-2.4-2.3-4-0.2C471.3,231.4,471.3,231.4,473.3,230z M567.7,241.3   c-2.7,1.5-2.7,2.3,0,4.7C567.7,244.2,567.7,242.8,567.7,241.3z M567,254c3.2-0.3,2.1-2.2,0-4.1C567,252,567,253,567,254z    M463.3,226c-0.2,0.3-0.4,0.6-0.5,0.9c1.1,0.8,2.1,1.6,3.3,0.5C465.7,225.7,464.6,225.9,463.3,226z M569.1,222.8   c3-1,2.5-2.1,1.6-4.1C570.1,220.3,569.8,221.1,569.1,222.8z" />
	<path fill="#D5D2DC" d="M371.1,248.4c6.2-2.3,11.1-7.1,17.9-3.9c11.9-6,23.6-2,36.4-1c-1.4-1.8-2.4-3.1-3.4-4.4   c3.3-10.8,30.8,8.7,41,5.7c9.4-0.6,22.4,1.1,29.6-4.8c11.5-0.1,22.7,6.9,33.9,4.5c7-2,13.4,0,19.5,3.2c-1.1,6.4-3.2,12.6-5.3,18.8   c-21.1,7.1-40.9-3-61.8-4.4c-12,1.3-23.3,7-35.7,4.9c0.2-0.2,0.3-0.5,0.3-0.8c2.3-0.7,4.4-1.8,5.8-4c-1.6-1.2-2.4-0.3-3.2,0.1   c-8,4.2-16.8,1.3-25.2,0.5C403.1,264.4,384.3,260.8,371.1,248.4z M389.5,248.5c10.1,5,22.2,4.2,31.9-0.4   c-8.5-2.5-17.9,2.4-26.8-0.7C393.1,247.1,391.3,246.3,389.5,248.5z M379.3,252.6c2.2-0.9,4.4-1.8,6.8-2.7c-4.6-0.7-4.6-0.7-7.5,1.7   C378.8,251.8,379,252.1,379.3,252.6z" />
	<path fill="#977264" d="M377.3,372.7c-4.3,5-11.4,5.4-16.7,9.2c9,14.1,16.8,30.4,27.4,43c15.2,12.4,25.7,35.6,24.5,55.4   c-1.1,0.2-1.8,0.4-2.4,0.5c-7.7-10.3-10.9-22.7-15.3-34.5c-2.4-1.1-4.4-3-7.7-3c2.3,5.3,6.2,9.3,5.4,15.2c-1.2-0.4-2.4-0.8-3.6-1.2   l0.1,0.1c0.1-4.4-4.4-6.7-6.9-9.7c-3.6-8.6-12.4-12-20.4-15.3c-13-3.9-22.7-13.7-33.6-20.7c-11.8-4-21.3-13.6-29.5-22.4   C325,384.8,351.3,379.1,377.3,372.7z M405.9,465.1c2.5-3.4-3.5-20.6-8.6-17.2C401.3,453.1,402,460,405.9,465.1z M394.2,443.4   c0.9-3.3,0.9-3.3-2.7-5.4C391.1,440.6,392.4,442,394.2,443.4z M388,435.6c-0.7-3-1.5-4.3-4-5.1C384.8,433.9,384.8,433.7,388,435.6z    M378.2,422.8c0,2.4,0,2.4,3.1,3.4C380.1,424.8,379.3,423.9,378.2,422.8z M369.5,415c1.2-1.3,0.2-2.5-1-1.8   C368.8,413.8,369.1,414.3,369.5,415z" />
	<path fill="#977264" d="M439.4,498.5c7.9,0.4,13.7-5.9,20.2-9.3c-3.4,9.6-17.1,14.3-26.4,14.9c-17.4-2.3-35.7,4.9-53.5,0.6   c-19.8-4.7-40,0.4-59.9-3.6c-48.1-3.1-93.5-22.5-142.3-22.6c2.4-4.4-5.3-3.3-8.2-3.4c-0.9,0.8-1.7,1.6-2.4,2.2   c-3.8,0.4-6.4,0.2-10.4,0c-0.2-4.9-1.2-9.6,0.8-14.1c0.1,1.3,0.2,2.7,0.3,4.4c67-5.9,132.7,22.3,199.2,28.3   c13,0.2,26.7-2.5,39.4-5.4c7.9-0.8,14-6.2,21.9-1.7c-0.6,5.2-6.1,7.3-9.5,10.6c5.2,0.6,17.8-0.4,23.9-1.9c-0.4,0.6-0.8,1.2-1.3,2   C434.5,500.7,436.9,499.1,439.4,498.5z M194.1,477.3c-3.4-1.3-4.6-1.2-4.6,0.5C190.8,478.6,192.1,478.6,194.1,477.3z M205.3,478.1   c-1.9-1.9-3.9-3.2-4.1,0C202.2,478.1,203.2,478.1,205.3,478.1z" />
	<path fill="#B28C7D" d="M674.7,161.1c-14.3,6.7-25.7,16.9-40.3,23.4c-0.5-0.3-1.2-0.6-1.9-1c-4.9-17.3,6.1-31.6-3.2-49.3   c2.6-0.5,5-1,7.8-1.6c-3.1-2.8-6.7-1.2-9.8-2.8c11.6-1.5,23.3-6.4,34.9-5.3c3.7-2,3.9,2.3,7.4,2.9c-0.4,0.5-0.8,1-1.5,1.8   c0.8,0.7,1.7,1.4,2.5,2.1c0.9-0.7,1.7-1.3,2.7-2.1c0.6,0.8,1.1,1.5,1.7,2.2C669.9,140.8,663.8,153.8,674.7,161.1z M645.4,134.2   c-2-3.1-4.9-2.9-5.6,0C641.6,134.2,643.1,134.2,645.4,134.2z M664.8,127.6c-1.4-0.4-2.9-0.7-4,1.1   C662.8,130,663.6,128.2,664.8,127.6z M655.7,137.9c0.8-0.8,1.7-1.4,0.7-2.2C654.9,135.9,654.8,136.3,655.7,137.9z M649.5,134.7   c-0.5-0.2-1-0.6-1.3,0C648.7,135.3,649,135.4,649.5,134.7z" />
	<path fill="#B18C7D" d="M334.5,421.3c-26.8-7.4-52,4.5-77.9,9.2c-25.6,2.8-51.9,4.1-77.2-1.8c-1.3-5.4,3.8-15.5,10.2-11.3   c18.4,4.3,38.6,2.2,57.7,3.4C275.2,424.6,312.4,402.8,334.5,421.3z" />
	<path fill="#B1B6B7" d="M147.1,368.2c10.5,16.3,24.3,30,35.4,44.9c-5,2.4-9.1,2.5-14.2,5c-16.5-8.5-28.8-22.2-39.3-37.1   C134.5,375.8,139.5,370.4,147.1,368.2z" />
	<path fill="#3FA5C9" d="M651.3,440.8c-2.2,3.7-6.6,6-7,10.5c1.5,2.6-0.4,5.2-0.1,8.3c-1.4,0.9-2.9-0.8-4.7-1.2   c-1.6-14.4,2.4-30.7,16.2-37.4c21-8.7,42-11.5,61.3,2.6c-18.3-3-38.5-6-54,8.1c-0.5-0.6-0.9-1-1.2-1.4c0.3-0.7,0.6-1.3,1-2.2   C657.5,428.5,651,435.2,651.3,440.8z M700.9,418.7c0.1-0.4,0.2-0.7,0.3-1.1c-6.8-3-31.6-1.4-31.7,6.9   C679.1,418.5,689.9,418.6,700.9,418.7z" />
	<path fill="#080407" d="M332.5,222.5c-11.8-6.7-22.6-14.4-35.8-17c3.5-5.3,13.5,4.1,19,3.8c-13.4-12-27-22.4-40.7-33.9   c0.5-0.4,0.9-0.9,1.4-1.3c1.8,0.3,2.2-0.8,2.2-2.3c0,0-0.1,0.1-0.1,0.1c3-2.6,7.9-3.2,9.4-7.1c21.4,22.1,43,44.2,63.9,66.8   c-2.8,1.1-3.1-2.5-6.4-1.6c1,1.2,1.7,2.1,2.5,3c-0.4,0.3-0.7,0.7-1.1,1c-1.6-0.7-3-2.1-4.7-2.4l0.1,0c-2.4-2.4-4.8-4.7-7.1-7.1   c0.4-0.4,0.8-0.7,1.2-1.1c1.5,0.9,2.9,1.8,4.2-0.6c-1.8-1.4-3.5-4.6-5.4-1.6l0,0c-0.4,0-0.8,0-1.2-0.1c-0.3-1.4,0.7-2.5,1.2-3.6   c-1.3-1.6-2.4-3.1-3.6-4.6c-1.8,1.2-3.1,1.9-4.6,2.9c2.6,2,4.9,3.2,7,5.3C333.3,221.6,332.9,222,332.5,222.5z M295.1,183.6   C295.1,183.6,295,183.7,295.1,183.6c0.4-0.3,0.9-0.7,1.4-1.1c0.9,0,1.4-0.8,2.1-1.3l0,0c1.1-0.4,0.9-0.8,0-1.2   c-1.1-1.7-1.3-4.2-3.6-4.7c-2.1-2.6-4.5-4.4-6.7-7.1c-3.4,2.2-7,3.7-8.3,8.2c3.6,1.1,11.7,11.5,13.9,8.3c0,0,0,0,0,0   C294.3,184.4,294.7,184,295.1,183.6z M319.6,204.7C319.6,204.7,319.6,204.7,319.6,204.7c-1.5,1.5-2.4,1.3-4.9,1.7   c3.6,2.9,6.5,5.3,9.6,7.9c1.5-1.2,2.8-2.2,4.2-3.3c-4.8-5.1-10.3-9-15.1-14c-1.7,0.8-3.6,0.9-4.3,3.3c1.5,1.5,3.1,3.1,4.7,4.6   c2.2-0.5,4-1,5.9-1.5C319.7,203.9,319.6,204.3,319.6,204.7z M303.2,194.3c0.1-0.6,0.1-1.1,0.1-1.7c1.2-0.9,2.3-1.8,3.7-2.8   c-2-2.6-3.8-4.8-6.3-6.6c-2.6,0.9-5.1,1.7-6,5c4.3,3.5,8.4,6.6,12.5,10.3c1.5-1,2.9-2,4.6-3.1c-1.2-1.3-2.2-2.4-3.3-3.6   C306.6,192.6,304.9,193.4,303.2,194.3z M339.4,226.2c2.1,1.3,3.3,2,4.8,2.9C343.9,225.9,343.9,225.9,339.4,226.2z" />
	<path fill="#977264" d="M632.5,183.6c0.7,0.4,1.4,0.7,1.9,1c9.7-3.7,17.2-10.8,26.1-15.1c-3.1,4.5-7.1,6-8.4,11.9   c1.6-1.1,3-2.1,4.5-3c0.4,0.9,0.7,1.7,1.1,2.8c2.1-2.8,1.9-6.7,5.1-8.4c-5.4,17.6-16.2,35.1-16.3,54.5c-3.1-8.1-3.9-16-3.5-24.8   c-1.8,0.3-3.2,0.6-4.9,0.9c-1.6-2.4-3.4-4.9-5.4-7.8C634.5,191.8,633.8,187.7,632.5,183.6z M648.1,182.6c-1.8,0.2-2.8,1.3-3.4,3   C648.4,185.5,648.7,185.3,648.1,182.6z M639.6,189.7c1.2,2,4.5-1,2.6-2.3C640.6,187.3,639.6,188,639.6,189.7z" />
	<path fill="#967164" d="M163.1,444.1c0.2,0.7,0.4,1.5,0.7,2.5c23.7,0.6,47.9,2.3,70.6,9.3c-6.2,6.8-18.7,2-26.5,2.6   c-1.8-1.8-4.6-1-6.8-1.1c-3.3,2.9-3.3,2.9-6.1,1.1c1.1,0,2.1,0,3.5,0c-1.8-2.2-1.8-2.2-3.5,0c-1.4-0.9-1.8-2.6-3.7-2.4   c-2.5-1.2-2.5-1.2-5.5,0c2.1,0,3.8,0,5.5,0c-2.9,3.9-8.1-1.1-12.3,0.8c-6.5,1.5-14,0.1-20.7,0.4c0.1-1.1,0.2-2.2,0.3-3.2   c6.3,2.5,12.5-0.4,18.8,0.8c1.3-0.3,7.4,1.2,5.8-1c-1.3-2.1-3.8-0.2-5.5-1.7c-2.7-6.4-12.5-0.4-17.8-0.8c0.1-0.3,0.1-0.5-0.1-0.8   C160.7,448.3,161.9,446.2,163.1,444.1z" />
	<path fill="#B08B7C" d="M800.7,356.6c-2.1,4.3-7,3.8-11.3,3.8c-5.8-0.9-11.6,0.1-16.3,4.5c-5.4,4.2-12.8,4.7-17.6,9.8   c-4.8,0.6-15.3-0.6-19.4-2.3C764.4,345.9,766.5,362,800.7,356.6z" />
	<path fill="#9AA0A1" d="M14,490.4c14.6,21.6,40.9-1.8,60.3-1.4c1.7,2.2,3.6,4.5,5.4,6.7c-0.5,0.7-0.9,1.1-1.2,1.6   c-2.1,0.3-4.2,0.6-6.5,0.9c-2.5-7.3-8.5-8.2-5.5,0.7c-8.5,3.3-17.1-1.5-25.3,2.8c-10.4,5.7-25.3,9-31.7-4   C11,495.3,12.5,492.9,14,490.4z" />
	<path fill="#967063" d="M734.8,410.5c0-0.4,0-0.9,0-1.3c20.7-7.4,24.3,1.6,39.9,8.1c11.4,4.7,26.1,3.4,37.7,7   c-7-0.1-13.6,5.1-20.5,1c-4.7-1.8-10.1,0.8-15.1,0c-11.4-2-20.1-12.2-32.6-11.6c0-0.4,0-0.7,0-1.1l0,0c1,0.1,2,0.1,2.4-1.2   C744.8,407.3,738.3,410.9,734.8,410.5z M747.7,409.3c2.6,2.9,2.7,2.9,4,0C750.6,409.3,749.6,409.3,747.7,409.3z" />
	<path fill="#9BA0A1" d="M112.4,478.7c11.7-7.6,23.1-0.7,35.2,0.8c0.2-1.5,0.4-2.6,0.6-3.8c2,4.8,6.8,17.5-3.2,14   c-9.8-3.2-19.5-2.6-29.7-4.7C113.9,483.5,112.8,481.3,112.4,478.7z" />
	<path fill="#FCFCFC" d="M143.1,448.3c5.4-6.6,11-12.5,20.7-13.2c-9.5,10.4-9.3,24.3-11.1,37.4C146.7,465.1,141.2,458.2,143.1,448.3   z" />
	<path fill="#554592" d="M358.5,269.4c1.4-3.5-12.6-10.3-14.8-14.5c12.4,4.2,26.9,13.2,37.5,22.4c0.4-0.5,0.7-0.8,0.9-1   c2.7,2,5.3,4.1,7.2,7.1c-0.7,1-1.4,2.1-2.1,3.2c-0.8,0.4-1.7,0.8-2.7,1.3C375.5,282.1,367.1,275.5,358.5,269.4z" />
	<path fill="#967163" d="M674.7,161.1c-10.9-7.3-4.8-20.3,0.2-29.4c0.7,0.3,1.4,0.7,2.3,1.1c1.2-0.7,2.5-1.4,3.9-2.2   c1.8,1.1,4.3,0.9,5.3,3.1C681.4,144.3,675,149,674.7,161.1z" />
	<path fill="#926F61" d="M548.8,330.5c4.5,20.6,14.2,40.1,17.8,60.6c-11.6,1.8-15-47.4-19-58.1C548,332.2,548.4,331.4,548.8,330.5z" />
	<path fill="#AF8A7B" d="M820.8,368c7.3-0.3,14.6-0.6,22.4-0.9c0.6,1,1.3,2.2,2.1,3.5c-4.3,5.1-12.7-0.1-17.6,3.1   c-9.1,3.2-19.1-0.7-28.3,2.7c-0.4-0.4-0.7-0.8-1.2-1.3c1.6-1.6,3-3.2,3.9-4.1C809,369.7,814.3,368.2,820.8,368z" />
	<path fill="#534491" d="M343.1,231.9c10.9,6.3,19.7,15.5,29.5,23.3c-0.4,0.4-0.8,0.8-1.2,1.2c-2.2-0.9-3.9-2.2-4.8,1.1   c-4.3-3-8.6-6-12.8-9c-0.8-3.8-4.3-5.9-5.8-9.5c-1.3,0.8-2.4,1.4-3.5,2c-5.8-4.3-6.7-5.7-6.6-10.1c1.5,0.2,2.9,0.4,4.4,0.7l-0.1,0   C342.2,232.4,342.4,233.1,343.1,231.9z" />
	<path fill="#A98678" d="M684.2,143.6c0.8-1.6,1.6-3.1,2.4-4.7c0.4,0,0.9,0,1.3,0c2.9,3.8,6.7-0.6,9.4-2.3c3.1,0,6.2,0,9.3,0   c0.8,5.3,0.8,10.1-3.6,14.1c-2-0.7-4-1.4-6.3-2.2c-2.1,2-4.2,4.2-6.4,6.3c-1.6-0.9-1.6-2.1-0.9-3.4c0.9-0.4,1.8-0.8,2.6-1.2   c0.6-2.2,1.3-4.2,1.9-6.2c1.9-0.5,3.7-1,5.7-1.6c1,1.7,1.9,3.1,3,4.8c0.7-0.9,1.1-1.4,1.6-2.1c-1.4-2.7-3.1-5-5.7-6   c-2.5,1.3-4.7,2.5-7,3.6c-0.8,2.1-0.1,4.8-2.6,6.5c-1.3-1.4-3.1-2.7-4.7-3.6C684.2,144.8,684.2,144.2,684.2,143.6z" />
	<path fill="#17110F" d="M684.2,143.6c0,0.6,0,1.2,0,2c1.6,0.9,3.4,2.2,4.7,3.6c2.5-1.7,1.8-4.4,2.6-6.5c2.3-1.2,4.4-2.3,7-3.6   c2.7,1,4.3,3.3,5.7,6c-0.5,0.7-1,1.2-1.6,2.1c-1.1-1.8-2-3.2-3-4.8c-1.9,0.6-3.8,1.1-5.7,1.6c-0.6,2.1-1.2,4.1-1.9,6.2   c-0.9,0.4-1.7,0.8-2.6,1.2c-0.8,1.4-0.7,2.5,0.9,3.4c2.2-2.1,4.3-4.2,6.4-6.3c2.3,0.8,4.3,1.5,6.3,2.2c4.4-4,4.4-8.8,3.6-14.1   c1.8-0.7,0-1.4,0-2.1c0.4-0.5,0.8-1,1.2-1.5c1.3,0.5,2.2,1.3,2.2,2.8c-1.4,0.4-1.1,1.5-0.9,2.3c3.1,7.3-3.2,18.1-11.4,13.7   c-10.6,12.4-8.9,3.3-15.7-4.3C682.4,146,682.6,144.5,684.2,143.6z" />
	<path fill="#1B1320" d="M287.9,164.8c-0.7,1.6-1.5,3.2-3.6,3.4c-0.1-0.7-0.3-1.4-0.4-2.1c-4.3-0.8-6.6,2.3-9.5,4.1   c-1.9-5.1,5.7-5.4,8.9-7.5c-2.5-1.8-4-2.9-5.6-5.2c-3.5,1.1-6.6,4.6-9.7,3.9c2-2.9,6.1-2.7,8.2-5.7c-0.6-0.8-1.2-1.7-1.9-2.6   c-3.5,1-6.2,3.5-9.5,4.2c-0.4-0.7-0.7-1.2-1.1-1.8c-0.9,0.4-1.8,0.8-2.7,1.2c-0.5-0.4-0.9-0.9-1.4-1.3c3.2-3.4,9.5-2.8,11.6-6.9   c2.6-1.8,5.6-1.4,8.5-1.2c-1.6,0.5-3.2,0.9-5.1,1.5C278.1,154.7,283.7,159.2,287.9,164.8z M271.1,152.6c0-0.1,0-0.3,0-0.4   c-0.5,0.1-1.5-0.3-1.4,0.4C270.2,152.6,270.6,152.6,271.1,152.6z" />
	<path fill="#A68173" d="M841.7,375.1c0.7,0.6,1.4,1.3,2.3,2.1c-0.6,1.3-1.2,2.7-1.8,4.2c-10.3,1.5-20.1-0.6-29.9-2.8   c0.4-1.5,1.7-1.3,2.8-1.4C824.2,377.6,832.6,373.9,841.7,375.1z" />
	<path fill="#946F62" d="M793.6,408.2c1.4-2.1,3.2-3.7,5.6-4.6c11.7,2.5,23.7-1.5,35.7-0.1c-5.5,2.9-20.9-1.1-22.4,6.8   c-4.9,3.2-10.5,0.4-15.5-1.1C796.3,407.3,794.9,408,793.6,408.2z M806,407.5c-2.7-0.6-4.3-1.4-5.5,1   C802.4,409.4,803.8,409.4,806,407.5z" />
	<path fill="#977264" d="M821.7,418.8c-6.5,4.7-23.5,2-28-4.7c0.6-1.9,2.4-1.6,3.4-1.2c10.7,2.4,21.8,2.4,32.9,2.3   c-7.5,2.4-14.4,0.7-21.9,4.1C813.8,420.6,816.8,419,821.7,418.8z" />
	<path fill="#1A1528" d="M353.7,248.6c5.5,3.8,10.9,7.7,16.5,11.4c-0.2,0.3-0.7,0.8-0.6,0.8c5.2,4.1,10.4,13,15.8,14.5   c1.8,1.2,2.4,2.7,1.3,4.6c-13.5-14-28-25.1-43.8-36.4C347.5,244.1,350.1,247.6,353.7,248.6z" />
	<path fill="#2B1D1A" d="M841.7,375.1c-9.1-1.2-17.5,2.5-26.5,2.1c-1.2,0-2.4-0.1-2.8,1.4c-4.1-2.3-9.5,0.4-13-2.2   c13.8-2.3,27.6-2,41.2-3.6C841,373.6,841.3,374.4,841.7,375.1z" />
	<path fill="#130C0B" d="M160,451.4c5.3,0.3,15.1-5.6,17.8,0.8c1.7,1.5,4.2-0.4,5.5,1.7c-2,0-4.1-0.4-5.8,1   c-6.3-1.2-12.5,1.7-18.8-0.8C158.5,452.9,158.6,451.8,160,451.4z" />
	<path fill="#191120" d="M403.2,307.9c-11.6-3.4-23-9.6-32.7-16.7c8.4-0.4,23.1,14.4,30.3,12.2C402.5,304.6,405,305.8,403.2,307.9z" />
	<path fill="#130E1A" d="M259.7,155.3c3,2.8,4.4,6.7,7.8,9.3c3.8-2.2,7.5-4.3,12.1-3.4c-3.9,2.4-7.5,2.1-10.1,5.8   c2.3,2.3,4.6,4.7,6.9,7c-0.5,0.4-0.9,0.9-1.4,1.3c-7-6-13.5-12.8-17.9-21c0.9-0.5,1.7-0.9,2.6-1.4   C259.7,153.8,259.7,154.5,259.7,155.3z" />
	<path fill="#130E0C" d="M662.8,172.7c-3.2,1.7-3,5.6-5.1,8.4c-0.4-1.1-0.8-1.9-1.1-2.8c-1.4,1-2.8,1.9-4.5,3c3-8.3,10-14.4,18-17.6   c0.5,0.4,1,0.8,1.5,1.2C668.7,167.6,665.7,170.1,662.8,172.7z" />
	<path fill="#6859A3" d="M384.4,287.9c1-0.5,2-0.9,2.7-1.3c0.8-1.2,1.5-2.2,2.1-3.2c3.8,2.9,5.9,8.2,11.1,8.7c0.7,2,1,3.4-0.7,4.4   C394.6,293.5,389.1,291.3,384.4,287.9z" />
	<path fill="#0E0D0D" d="M78.5,497.3c0.3-0.4,0.7-0.9,1.2-1.6c-1.8-2.1-3.7-4.4-5.4-6.7c1.9-9.4,8.5,2.4,9.9,6.1c0.9,0,1.8,0,2.7,0   C84.8,497,81.2,496.4,78.5,497.3z" />
	<path fill="#8E7467" d="M820.8,368c-0.5,0-0.9,0.1-1.4,0.1c-0.2-0.5-0.3-1.1-0.6-1.9c1.3-1.5,2.8-3.2,4.3-4.8   c4.4,1.1,11.2-2.9,12.7,3c-5,0.6-9.9,1.2-14.8,1.9C820.9,366.8,820.8,367.4,820.8,368z" />
	<path fill="#929899" d="M101.1,483.2c1.4-1,2.8-2,4.5-3.2c0-0.7,0-1.6,0-2.6c1.9,2.9,3.7,5.8,5.6,8.9c-2,1.1-3.9,2-5.9,3   C103,487.8,102,485.6,101.1,483.2z" />
	<path fill="#14100E" d="M706.5,134.5c2.9,3.8-7,1.4-9.3,2.1c-2.7,1.8-6.5,6.1-9.4,2.3c1.8-0.9,3.6-1.9,5.8-3.1   c-1.1-0.3-1.7-0.5-2.4-0.7c2.3-1.3,4.8-1.4,7.3-2C700.2,135.3,704,133.9,706.5,134.5z" />
	<path fill="#6F554A" d="M548.8,330.5c-0.4,0.8-0.8,1.7-1.2,2.5c-2.5-7.7-4.9-16.2-4.2-24.4C546.6,315.7,546.9,323.3,548.8,330.5z" />
	<path fill="#8E6A5D" d="M670,234.1c1.9-2,1.7-5.1,4.9-5.9c1.9,0.9,2.4,2.8,3.3,4.9c-1.2,1.4-2.4,2.8-3.5,4.1   C672.5,236.9,670.9,236.1,670,234.1z" />
	<path fill="#423C6E" d="M385.5,275.3c-5.4-1.6-10.6-10.4-15.8-14.5c0,0,0.4-0.5,0.6-0.8C376.9,263.4,380.9,269.6,385.5,275.3z" />
	<path fill="#907163" d="M389.2,459.7c-1.3,0-2.7,0-4.1,0c-3.7-3.2-6-7-6.5-11.9c4.5,2,5.5,8.4,10.5,9.6c0,0-0.1-0.1-0.1-0.1   C389.1,458.1,389.1,458.9,389.2,459.7z" />
	<path fill="#939899" d="M86.9,495.1c-0.9,0-1.9,0-2.7,0c-1-2.1-2-4.1-3-6.1c2.1,0.1,4.8,0.5,4.7-2.5c1.6,2.2,3.2,4.3,5,6.7   C89.3,494,88.1,494.6,86.9,495.1z" />
	<path fill="#2A223F" d="M386.6,289.5c4.3,2.3,8.7,4.6,13,6.9c0,1.9,0,3.9,0,5.8c-1.9-0.8-0.8-2.8-1.5-4c-4.3-2.6-8.5-5.1-12.7-7.7   C385.8,290.2,386.2,289.9,386.6,289.5z" />
	<path fill="#ADA5AD" d="M379.6,255.3c3.9,0.1,6.6,2.8,9.7,4.8c0.2,0.7,0.4,1.4,0.7,2.4C384.8,262.2,382.3,258.7,379.6,255.3z" />
	<path fill="#6F5B4F" d="M177.6,477.5c-0.1,0.3-0.1,0.6-0.1,0.9c-4.7-0.4-9.9,1.2-14.3-0.9c1.2-0.1,2.3-0.2,3.7-0.3   c0.7-0.6,1.5-1.4,2.4-2.2c2.8,0.2,5.9-0.8,8.3,1l-0.2,0.2c-2.5,0-5.1-0.6-7.6,1c2.5,0,5,0.1,7.5,0.1L177.6,477.5z" />
	<path fill="#160F0E" d="M389.1,457.4c-4-1-5.6-5.4-8.3-8.2c0.5-0.5,0.9-1,1.4-1.5C384.7,450.7,389.1,453.1,389.1,457.4z" />
	<path fill="#211815" d="M840.7,394c-0.1,3.2,0.4,4.8-2.3,7.5c-0.3-2.6-0.4-4.2-0.6-6.1c-3.3-1-6.8-0.3-10.2-0.5   C831.5,392.8,836.4,394.4,840.7,394z" />
	<path fill="#595094" d="M259.7,155.3c0-0.8-0.1-1.5-0.1-2.3c3.6-2.3,7.2-4.7,11.7-4.6C269.2,152.5,262.9,151.9,259.7,155.3z" />
	<path fill="#3B5256" d="M435.5,267c-2.4,4.3-7.7,0.9-11.4,0.4C427.9,266.6,431.6,267.1,435.5,267z" />
	<path fill="#736054" d="M744.1,412.7c0,0.4,0,0.7,0,1.1c-3.5,0.4-7.1,0.8-10.6,1.2c0.4-0.8,0.8-1.6,1.2-2.3   C737.9,412.6,741,412.7,744.1,412.7z" />
	<path fill="#655B54" d="M706.5,134.5c-2.5-0.6-6.3,0.8-8.1-1.4c3.2-0.3,6.3-2.1,9.3-0.1C707.3,133.5,706.9,134,706.5,134.5z" />
	<path fill="#866F63" d="M670.4,121.3c1,1.3,2,2.6,3,3.9c-1.1,2.4-2.4,1.1-3.9,0.4c0-1.3,0-2.6,0-4   C669.7,121.4,670,121.4,670.4,121.3z" />
	<path fill="#786157" d="M691.2,135.1c0.7,0.2,1.3,0.4,2.4,0.7c-2.7,1.1-4.4,3.1-7,3.1C687.2,136.6,688.9,135.5,691.2,135.1z" />
	<path fill="#3F3664" d="M384.4,266.9c2.1,1.1,3.6,2.6,3,5.3c-1-1.8-3.2-2.7-3.2-5.1L384.4,266.9z" />
	<path fill="#34315B" d="M347.9,233c-0.7-0.9-1.5-1.8-2.5-3c2.6-0.8,3.2,1.5,4.7,1.8c0.1,0.3,0.1,0.7,0.1,1   C349.4,232.9,348.7,232.9,347.9,233C347.9,233,347.9,233,347.9,233z" />
	<path fill="#7E6558" d="M679.6,230.7c2.4-0.4,3.2,1.4,4.7,3c-1.1,0.3-1.8,0.4-2.5,0.6C681,233.1,680.3,231.9,679.6,230.7z" />
	<path fill="#3B5256" d="M443.5,266.1c-0.6,3.1-3.5,2-5.5,1.5C439.8,267,441.6,266.6,443.5,266.1z" />
	<path fill="#2E264A" d="M371.4,256.5c0.4-0.4,0.8-0.8,1.2-1.2c1.7,0.7,2.8,1.9,3.5,3.5l0,0C374.2,258.7,372.6,258,371.4,256.5z" />
	<path fill="#717575" d="M638.6,206.4c0.5-0.2,1-0.4,1.8-0.7c0.1,1.1,0.2,2,0.3,3.2C639,208.6,638.7,207.7,638.6,206.4z" />
	<path fill="#868889" d="M95.1,490.3c0.8,0.4,1.6,0.9,2.5,1.3C95.7,492.8,95.6,492.7,95.1,490.3z" />
	<path fill="#333A3A" d="M771.8,128.8c-0.5,0.7-0.8,0.6-1.3,0C770.9,128.2,771.3,128.7,771.8,128.8z" />
	<path fill="#130C0B" d="M161,448c-0.3,0.9-0.7,1.8-1,2.6C159.8,449.5,159.6,448.5,161,448z" />
	<path fill="#080407" d="M347.9,233c0.8,0,1.6-0.1,2.3-0.1C349.2,234.3,349.2,234.3,347.9,233z" />
	<path fill="#17110F" d="M712.3,140.3c-0.4-0.8-0.8-1.6-1.2-2.5C712.5,138.1,712.4,139.2,712.3,140.3z" />
	<path fill="#946F62" d="M815.9,409.2c-0.5,1.3-1.5,1.2-2.6,1C813.9,409.2,814.8,409.1,815.9,409.2z" />
	<path fill="#9183B2" d="M210.3,234c1.4,0.7,1.7,1.5,0.2,2.3C210.4,235.6,210.3,234.8,210.3,234z" />
	<path fill="#AAB8B8" d="M720.1,205c0.1,0.5,0.3,1.1,0.4,1.6c-0.3,0.1-0.6,0.1-0.8,0.2c-0.1-0.6-0.2-1.1-0.3-1.7   C719.7,205.1,719.9,205.1,720.1,205z" />
	<path fill="#868889" d="M93.8,488c1.3,0.2,1.4,1.2,1.3,2.2C94.7,489.5,94.2,488.8,93.8,488z" />
	<path fill="#868889" d="M97.7,488.9c-1.5-0.1-1.5-1.1-1.4-2.1C96.7,487.5,97.2,488.2,97.7,488.9z" />
	<path fill="#868889" d="M92.8,486.7c0.3,0.4,0.7,0.9,1,1.3C93.5,487.6,93.2,487.2,92.8,486.7z" />
	<path fill="#0D171C" d="M701.8,416.1c-0.5-0.3-1-0.6-1.6-0.9C700.8,415.6,701.3,415.9,701.8,416.1z" />
	<path fill="#868889" d="M96.2,486.8c-0.3-0.5-0.6-1-0.9-1.5C95.6,485.8,95.9,486.3,96.2,486.8z" />
	<path fill="#3F3664" d="M384.2,267.1c-0.3-0.2-0.6-0.4-0.8-0.7c0.8-0.8,0.8,0,1,0.4L384.2,267.1z" />
	<path fill="#17110F" d="M711.1,137.9c-0.3-0.4-0.6-0.9-1-1.3C710.5,137,710.8,137.4,711.1,137.9z" />
	<path fill="#868889" d="M98.7,490.2c-0.4-0.4-0.7-0.8-1.1-1.3C98,489.4,98.4,489.8,98.7,490.2z" />
	<path fill="#2E264A" d="M376.1,258.8c0.3,0.2,0.6,0.3,0.8,0.5C376.1,260,376.3,259.1,376.1,258.8   C376.1,258.8,376.1,258.8,376.1,258.8z" />
	<path fill="#868889" d="M98.6,491.3c0-0.4,0-0.8,0.2-1.1c0.2,0.3,0.5,0.6,0.7,0.9C99.2,491.2,98.9,491.2,98.6,491.3z" />
	<path fill="#0D171C" d="M704.2,417.1c-0.5-0.3-0.9-0.5-1.4-0.8C703.3,416.6,703.7,416.9,704.2,417.1z" />
	<path fill="#362622" d="M693.4,226.9c0.5-3.3,0.1-9.1,4.8-9.3c1.7-0.1,3.6-0.5,4.5,2.1c-1.9,0.1-3.8,0.3-6,0.4   c-0.2,1.1-0.4,2.2-0.6,3.3c-1.8,0.7-1.2,2.3-1.2,3.6C694.3,227,693.8,227,693.4,226.9z" />
	<path fill="#180C0B" d="M694.8,227.1c0-1.3-0.6-2.9,1.2-3.6c1.2,1.5,2.4,3,3.6,4.4c0,0.5-0.1,1.1-0.1,1.6l0,0   C697.9,229,697,226.7,694.8,227.1z" />
	<path fill="#D5D2DC" d="M478.4,166.9c-10.8-3.9-24.1,6.2-34.2-2.5c1.9,0,3.4,1,4.4-1.4c-0.8-1.4-1.1-3.5-1-5.2   c11.6-0.6,24.4-4.3,33.6,4.8c-0.4,1.1-2.2,2.7-0.4,3.4c0,0.4-0.1,0.9-0.1,1.3C479.9,167.2,479.2,167.1,478.4,166.9z" />
	<path fill="#2F2425" d="M469.1,135.6c19.6-14.4,44.6-4.1,66.7-9.8c1.2,0.6,2.9-0.4,3.7,1.3c-22.9,6.5-47.6-2.8-69,9.8   C470,136.4,469.6,136,469.1,135.6z" />
	<path fill="#1E1B1C" d="M448.9,145.8c0.6,0.9,1.3,1.9,2,3c-2.2,3.5-6.3,5-7.6,9.3c-0.3,1-1.3,2.5-3.1,1.8c0.9-6.9,4.7-9.8,8.8-14   C449,145.9,448.9,145.8,448.9,145.8z" />
	<path fill="#221616" d="M369.2,132.7c2-3.2,10.7-6.8,12.8-2.8C373,133.3,373,133.3,369.2,132.7z" />
	<path fill="#282425" d="M460.8,140c-3.9,2-7.6,4.5-11.9,5.8l0.1,0.1c2.6-4.9,7.7-7.6,12.9-9.2C461.5,137.9,461.2,138.9,460.8,140z" />
	<path fill="#382A2C" d="M406.8,130.5c-5.6,0.6-9.9-1.6-15.6-1.1C393.7,124.5,402.5,128,406.8,130.5z" />
	<path fill="#312B2C" d="M480.8,166c-1.8-0.7,0-2.3,0.4-3.4c3.2-1.2,6-4.3,9.6-2.6C488.4,163.8,484.1,163.8,480.8,166z" />
	<path fill="#2F292A" d="M447.6,157.8c-0.1,1.7,0.2,3.8,1,5.2c-1,2.5-2.5,1.5-4.4,1.4C440.8,162.8,444.8,157.9,447.6,157.8z" />
	<path fill="#302223" d="M478.4,166.9c0.8,0.1,1.5,0.3,2.3,0.4c0,0.6,0.1,1.2,0.1,1.9c-2,1.4-4,2.8-7.2,2.5   C474.4,168.8,476,168.2,478.4,166.9z" />
	<path fill="#50494C" d="M460.8,140c0.4-1.1,0.7-2.2,1.1-3.3c0.7,0.5,1.3,0.9,2.1,1.5c1.6-0.8,3.3-1.8,5.1-2.7   c0.5,0.4,1,0.9,1.5,1.3c-2.5,1.3-5,2.7-7.5,4C462.2,140.5,461.5,140.3,460.8,140z" />
	<path fill="#2E3334" d="M544.8,126c3.6-3.4,4.1-3.5,8-1.8C550.6,126.4,548.2,126,544.8,126z" />
	<path fill="#181819" d="M625.2,198.3c-1.4-2.3-3.2-3.7-1.8-6.1C627.1,194.6,627.1,194.7,625.2,198.3z" />
	<path fill="#4D4749" d="M476,177c-0.9,1.3-1.9,2.3-2.2,3.5c-0.3,1.3-0.1,2.6-2.1,2.8C472.4,180.9,472,175,476,177z" />
	<path fill="#1F1A1B" d="M616.4,187.2c2.2,1.2,3.4,2.8,3.4,5.6C615.6,190.3,615.5,190.3,616.4,187.2z" />
	<path fill="#726266" d="M539.5,127c-0.8-1.8-2.5-0.7-3.7-1.3c1.7-1.4,3.5-1,5.3-0.6C542.1,126.5,540.8,127.4,539.5,127z" />
	<path fill="#2E1C1D" d="M365.8,133.4c-1.9,0.7-3.1,1.2-4.2,1.6C359.6,133.1,363.7,131.4,365.8,133.4z" />
	<path fill="#0E1212" d="M623.9,154.7c2.4,3.5-0.9,4.7-1.2,0.4C623.1,155,623.5,154.8,623.9,154.7z" />
	<path fill="#554F51" d="M557.8,124.6c-1.4,2.1-3.7,0.7-2.3-0.8C556.2,123.9,556.7,124.2,557.8,124.6z" />
	<path fill="#736B6E" d="M622.1,149.3c0.9,1.3,1.1,1.7-0.3,2.4C620.8,150.7,620.8,150.3,622.1,149.3z" />
	<path fill="#4E3637" d="M356.2,135c-0.9,0.5-1.5,0.9-2.2,1.2C353.2,134.6,354.7,133.7,356.2,135z" />
	<path fill="#B19BA1" d="M562.5,126.7c0.5-0.6,0.8-0.6,1.3,0C563.5,127.3,563,126.9,562.5,126.7z" />
	<path fill="#744B4D" d="M347.1,136.8c2.1,0.1,2.1,0.7,0,0.8C347.1,137.4,347.1,137.1,347.1,136.8z" />
	<path fill="#242426" d="M476.8,172.9c0.4,0.9,0.1,1.1-0.8,1.3C475.5,173.2,476,173.1,476.8,172.9z" />
	<path fill="#977264" d="M363.3,490.3c-29.5-2.6-63.7-3-87.5-23.1c22.3,2.4,43.7,11.7,66.2,13.8c10.4,0.9,32.1-0.4,39.5,5.6   c2.2,0.2,4.1,0.3,5.8,0.4c0.7,1.1,0.4,1.7-0.3,2.2C386.4,486.7,362.7,486.8,363.3,490.3z M341.7,486c-4.4-3.3-8.1-3.7-12-1.6   C333.2,487.7,336.5,487.3,341.7,486z M357.5,487.7c-2.3-2.8-13-3.2-14.5,0.1C348,488.3,352.4,488.2,357.5,487.7z M317.1,480.8   c3.9,2.5,3.9,2.5,7.1,1.5C323.5,479.2,322.5,479,317.1,480.8z M306.8,477.9c1.4,2.1,1.4,2.1,6.5,1.4   C311.5,476.6,309.3,477.2,306.8,477.9z M294.9,472.1c1.1,3.1,1.1,3.1,3.4,2C297.4,473.5,296.7,473.1,294.9,472.1z" />
	<path fill="#1A1311" d="M363.3,490.3c-0.6-3.4,23-3.5,23.6-1.1C379.4,491.4,370.6,493,363.3,490.3z" />
	<path fill="#1D1311" d="M354.2,467.2c3.5-3.2,7-0.3,10.4,0c2.8,0.3,3.4,1.3,4.2,4.2C364,470.2,357.4,470.8,354.2,467.2z" />
	<path fill="#251815" d="M439.4,498.5c-2.5,0.7-4.8,2.2-8,1c0.5-0.8,0.9-1.4,1.3-2c2.9-1.2,4.8-2.5,8.3-2.5   C440.2,496.5,439.8,497.5,439.4,498.5z" />
	<path fill="#2A1E1A" d="M395.3,465.2c2.6,1.5,3.6,3,3.1,5.4C395.2,469.2,395.2,469.2,395.3,465.2z" />
	<path fill="#281C19" d="M334,465.4c3.2-1.2,5-1.6,7.1,0.6C338.7,467.1,336.9,467.2,334,465.4z" />
	<path fill="#2C201D" d="M389.2,459.7c0-0.8-0.1-1.5-0.1-2.3c1.2,0.4,2.4,0.8,3.6,1.2c0.4,1,0.8,2,1.2,3.2   C391.3,462.4,390.6,460.2,389.2,459.7z" />
	<path fill="#362420" d="M208,458.5c1.1,0,2.3,0,3.4,0.1c0.2,1,0.4,1.9,0.8,3.5c-2-0.6-3.3-1-4.9-1.5   C207.5,459.8,207.7,459.2,208,458.5z" />
	<path fill="#251A17" d="M403.1,478.4c-2.6-0.6-2.9-3-0.2-3.5C403,476.2,403,477.3,403.1,478.4z" />
	<path fill="#41342F" d="M441,491.6c-1.1-0.8-1.4-1.6-0.2-2.2C442.2,489.6,441.8,490.5,441,491.6z" />
	<path fill="#624B43" d="M344.9,466.8c0.6,0.7,1,1.3,1.7,2.2c-1.3,0-2.2,0-3.5,0C343.9,468,344.3,467.5,344.9,466.8z" />
	<path fill="#120B09" d="M593.9,380.8c-2.6-2-6-3.8-7.3-6.9c2.5-4.4,9.3,8.1,15.3,2.5c2.7,0,5.2,0.8,8.1,1.5   C608.6,380.8,597.5,381.3,593.9,380.8z" />
	<path fill="#191210" d="M603.4,384.2c6.6,4,10.7,5.5,18.3,5.3C617,395.5,605,391.4,603.4,384.2z" />
	<path fill="#3E2E29" d="M571.4,305.7c0.7-0.3,1.4-0.7,2.4-1.1c3.4,3.7,8.5,6,9.4,11.9c-2.4,3-4-2.7-4-4.5   C576.4,309.7,573.5,308.3,571.4,305.7z" />
	<path fill="#1C1614" d="M625.2,345.7c-3.7-1.8-3.7-7.7-2.6-11.9C626.9,335.7,625.5,341.5,625.2,345.7z" />
	<path fill="#0D0A09" d="M571.4,305.7c0.4,0.4,0.7,0.9,1.1,1.3c-0.7,1.9-2.3,1-3.5,1.1c-2.5-1.9-7.1-5.5-5.4-9   C566.7,300.7,568.5,303.9,571.4,305.7z" />
	<path fill="#917264" d="M569,308.1c1.3-0.1,2.8,0.8,3.5-1.1c2.2,1.6,4.3,3.2,6.7,5c0.1,0.9,0.3,2.1,0.5,3.2   C575.5,313.7,572.1,311.1,569,308.1z" />
	<path fill="#30221E" d="M813.8,393.6c-2.5,2.9-5.4,2.8-7.9,3.8c-0.6-0.7-1.1-1.2-1.8-2C807.1,393.7,809.7,392,813.8,393.6z" />
	<path fill="#221715" d="M586,327c2.3,2.4,1.9,5.1,2,7.6C584.3,335.2,584.6,329.5,586,327z" />
	<path fill="#2E1815" d="M622.6,391.4c2.6-1.1,4.4-1.6,6.1,0C627.1,393.5,626.8,393.5,622.6,391.4z" />
	<path fill="#4C3C36" d="M584.5,325.4c-1.9-1.6-1.7-3.3-1.1-5.4C586,321.5,585.4,323.5,584.5,325.4z" />
	<path fill="#3A2925" d="M619.3,322.6c-3-4-3-4-2.3-6.3C618.8,317.9,619.8,319.5,619.3,322.6z" />
	<path fill="#302924" d="M621.7,331.4c-2.2-3.3-2.2-3.3-0.9-6C622.6,327.3,621.8,328.8,621.7,331.4z" />
	<path fill="#3D2723" d="M632.7,393.3c1.2-2.2,1.3-2.2,4.2,0.1C635.3,394.3,634,394.3,632.7,393.3z" />
	<path fill="#50352F" d="M616.5,378.8c-1.2-0.1-2.4-0.3-3.7-0.4C614,375.9,614,375.9,616.5,378.8z" />
	<path fill="#533E37" d="M784.5,371c1.4-1.4,3.6-0.1,2.4,1.5C785.5,372.9,785,371.9,784.5,371z" />
	<path fill="#320D0C" d="M787.8,407.3c1-0.9,3.5-0.8,3,1C789.7,409.4,788.4,408.6,787.8,407.3z" />
	<path fill="#1A0101" d="M622.7,376.5c1,0,2,0,3.1,0C624.9,378.6,623.8,377.2,622.7,376.5z" />
	<path fill="#7A6056" d="M791.1,394c-2.1,0.9-3.8,1.1-2.7-1C788.9,393.1,789.3,393.3,791.1,394z" />
	<path fill="#56413A" d="M632.1,376.5c-0.8-1.5-0.8-2,0.7-2.2C633.8,375.1,632.9,375.7,632.1,376.5z" />
	<path fill="#74594F" d="M836,408c0.9,0.8,1.4,1.3,2.1,1.9c-0.7,0.6-1.2,0.9-2.3,1.8C835.9,410.2,836,409.3,836,408z" />
	<path fill="#33100E" d="M655.2,391.6c0.9,0.4,2.3,0.1,1.6,1.5c-0.7-0.3-1.3-0.5-2-0.8C655,392.1,655.1,391.9,655.2,391.6z" />
	<path fill="#2E2C28" d="M793.6,408.2c1.3-0.1,2.7-0.8,3.4,1C795.8,409.2,794.3,409.8,793.6,408.2z" />
	<path fill="#301310" d="M799.6,394.1c2.1,0.1,2.1,0.7,0,0.9C799.6,394.7,799.6,394.4,799.6,394.1z" />
	<path fill="#331D19" d="M795.5,394.4c-0.4,0.8-0.9,0.7-1.5,0.3C794.4,393.8,794.8,394,795.5,394.4z" />
	<path fill="#48332E" d="M664.7,394.4c0.7-0.4,1.1-0.5,1.4,0.3C665.5,395,665.1,395.1,664.7,394.4z" />
	<path fill="#280909" d="M643.3,391.8c2.1,0.1,2.1,0.8,0,0.8C643.3,392.3,643.3,392.1,643.3,391.8z" />
	<path fill="#554592" d="M247.9,209.5c0.2-0.3,0.4-0.6,0.6-0.8c-3.5-2-6.9-3.9-10.6-6c14.1,1.4,29.5,5.7,40.8,14.7   c4.1,7.4-4.9,7.1-8.9,3.3c-0.6,0.5-1.4,1-2.1,1.5C264.7,215.6,253.8,214,247.9,209.5z" />
	<path fill="#554492" d="M291.3,244.8c3.9,1.8,33.6,13.7,23.6,18.8c-5.3-0.6-11.9-8.3-16.4-6C295.6,253.6,292.8,249.6,291.3,244.8z" />
	<path fill="#544593" d="M330.3,227.1c2.7,7.4,8.5,14.2,12.7,21c-4.6,6.1-20-19.8-25.7-19.7C321.6,228.3,326,228.1,330.3,227.1z" />
	<path fill="#170F1C" d="M270.3,274c-6.9-4.8-14.5-8.8-20.9-14.3c21.3,10.3,44.4,25.7,67.9,34.3c0.5,1.8,1.5-0.3,2.1-0.9   c0.5,1.1,1,2.2,1.5,3.3c-0.4,0.4-0.9,0.9-1.3,1.3C303.1,289.9,286.3,282.8,270.3,274z" />
	<path fill="#07050A" d="M330.3,227.1c-12.6,2.2-29.7,1.7-39-7.9c-2.9-0.5-5.8-0.8-6.8-3.9c3.2-0.4,6.2,1,9.6,1.4   c3.4,6.3,13,6.8,19.6,8.1c5.6,2.8,12.3-0.9,18.3-0.1C332.8,226.6,330.9,226.4,330.3,227.1z" />
	<path fill="#150E19" d="M386.6,289.5c-0.4,0.4-0.8,0.7-1.2,1.1c-19-11.8-36.5-25.9-56.3-36.6c0.4-0.4,0.8-0.8,1.2-1.2   C350.7,262.5,368.1,276.9,386.6,289.5z" />
	<path fill="#302648" d="M262,247.2c0,0.3,0,0.6,0.1,0.9c-2,1.4,1.4,1.4,2.3,1.2l0,0c1.3,2.3,4.1,1.8,5.9,3.5   c-1.9,1.4,5.4,4.1,7,3.6l0,0c2.3,3.2,6.1,2.3,9.5,2.3l0,0c1.9,2.2,4.4,3.1,7.1,3.6l0.1-0.1c0.4,0.8,0.7,1.6,1.1,2.4   c-19.6-5.5-39.6-13.7-55.1-26.6C247.5,240.2,253.5,246.3,262,247.2z" />
	<path fill="#1B1527" d="M295,264.5c-0.4-0.8-0.7-1.6-1.1-2.4c2-0.3,3.3,2.2,5.9,1.5c-7.2-11.2-19.6-25.6-15-39.1   c1.4,16.7,11.7,30.1,20.8,43.6c-0.4,0.4-0.9,0.9-1.3,1.3C301.2,267.8,298.1,266.2,295,264.5z" />
	<path fill="#170F1B" d="M281,200.9c-16.7-6.8-34.3-11.1-49.8-20.5c17.3,4.3,34.4,12.5,51.2,19.4C281.9,200.2,281.4,200.6,281,200.9   z" />
	<path fill="#100B15" d="M354,368c-0.2,0.7-0.4,1.4-0.6,2.4c-3.9-2.7-2.9-9.1-7.8-9.5c0-0.4-0.1-0.7-0.1-1.1   c0.4-0.6,1.2-1.3,1.1-1.7c-3.6-7.2-4-19.3-13.9-18.3c4.4-3.1,9.8-0.5,15.1,0.8c-2.1,0.4-3.6,0.6-5.4,0.9   c4.3,6.4,3.7,18.4,12.6,19.8c-1.5,0.7-2.2,1-3.1,1.5C352.6,364.5,353.3,366.3,354,368z" />
	<path fill="#271C31" d="M244.4,191.8c13.2,6.4,26.8,13.1,41.1,16.4c-0.5,0.9-0.9,1.8-1.4,2.7c-13.9-5.2-27.5-11.3-40.7-18.1   C243.8,192.5,244.1,192.1,244.4,191.8z" />
	<path fill="#514087" d="M326.7,224.7c-4.1,1-9.3,2.1-13.1,0.1c1.5-0.2,2.9-0.3,4.7-0.5c-2.3-5,1-5.2,1.3-9c3.1,0.3,5.5,2,7.3,4.4   C324.7,220.6,326.5,223,326.7,224.7z" />
	<path fill="#2A1F39" d="M353.2,288.4c-6-2.1-24-12.5-28.4-16C332.3,273.3,348,284.7,353.2,288.4z" />
	<path fill="#19101C" d="M247.9,209.5c5.9,4.5,16.8,6.1,19.8,12.7c-0.2,0-0.5,0-0.7,0c-7.2-4-14.4-7.3-21.8-12.3   C246.5,209.7,247.2,209.6,247.9,209.5z" />
	<path fill="#2C2441" d="M341,338.6c-0.9,0-1.8-0.1-2.7-0.1c-1.7-7.7-7-14.4-9.1-22.1c0.8,0.4,1.5,0.7,2.3,1.1   C334.6,324.5,337.8,331.6,341,338.6z" />
	<path fill="#15101D" d="M284.2,210.9c2.8-5.4,5.6-10.8,10.3-14.9c-1,5-5.2,8.3-6.7,13.5c0.9,0.4,1.7,0.8,2.5,1.2   c-0.4,0.4-0.8,0.8-1.3,1.2c-3.4-0.1-3.5,0.1-3.1,3.2c-0.5,0.1-1,0.1-1.5,0.2C284.3,213.8,284.2,212.4,284.2,210.9z" />
	<path fill="#241D38" d="M319.6,297.6c0.4-0.4,0.9-0.9,1.3-1.3c2.1,5.7,8.8,11.3,7.5,17.4C324.5,309,322.4,303,319.6,297.6z" />
	<path fill="#2F2543" d="M304.3,269.4c0.4-0.4,0.9-0.9,1.3-1.3c5.5,3.8,10.3,6.7,15.6,11.1C314.9,279.3,310,272.3,304.3,269.4z" />
	<path fill="#291F37" d="M330.4,252.8c-0.4,0.4-0.8,0.8-1.2,1.2c-3.6-1.6-7.1-3.4-11.6-5.8C322.5,248.2,324.7,249.1,330.4,252.8z" />
	<path fill="#2D2440" d="M319.4,293c-2.7,4.9-3.9-5.5-5.4-7.4C317.2,283.8,317.8,291.1,319.4,293z" />
	<path fill="#31294A" d="M289,211.9c0.4-0.4,0.8-0.8,1.3-1.2c2.9,0.4,5.5,1.4,7.9,2.7C297.6,217.3,291.5,212.1,289,211.9z" />
	<path fill="#473A68" d="M244.4,191.8c-0.3,0.3-0.7,0.7-1,1c-3.1-1.6-6-3.3-8-6.3C238.6,186,241.4,190.4,244.4,191.8z" />
	<path fill="#37315A" d="M311.3,206c1.1,0.9,2.3,1.7,4.4,3.3c-3,0-4.3-0.8-5.5-2C310.6,206.8,311,206.4,311.3,206z" />
	<path fill="#08070D" d="M281,200.9c0.5-0.4,0.9-0.7,1.4-1.1c0.9-0.1,1.9-0.2,2.8-0.3C285.9,202.2,282.3,200.9,281,200.9z" />
	<path fill="#1D1C33" d="M333.8,221.2c0.4,0,0.8,0,1.2,0.1c0.4,0.7,0.8,1.5,1.2,2.2c-0.4,0.4-0.8,0.7-1.2,1.1   c-0.9-0.7-1.7-1.4-2.6-2.1C332.9,222,333.4,221.6,333.8,221.2z" />
	<path fill="#554592" d="M265.6,221.4c0.5,0.3,0.9,0.5,1.4,0.8C266.5,222,266,221.7,265.6,221.4z" />
	<path fill="#6D5CA9" d="M329.1,316.4c2.1,7.7,7.4,14.4,9.1,22.1c-0.7,0-1.3,0-2,0.1c-16.2-9.5-31.5-18.3-42.1-34.5   c0.4-0.8,0.8-1.6,1.2-2.5C306.5,306.9,318.7,310.1,329.1,316.4z" />
	<path fill="#6C5BA8" d="M319.6,297.6c1.2,2.7,2.5,5.4,3.7,8c-10.8-1.9-49-20.8-53-31.7C286.3,282.8,303.1,289.9,319.6,297.6z" />
	<path fill="#6C5BA8" d="M291.5,251.7c2.7,3.9,5.4,7.8,8.3,11.9c-2.6,0.7-3.9-1.7-5.9-1.5l-0.1,0.1c-1.7-2.4-4.1-3.5-7.1-3.6l0,0   c-11-4.7-16.7-13.9-24.1-23C272.7,240.5,281.5,247.2,291.5,251.7z" />
	<path fill="#6959A5" d="M332.7,339.8c9.9-0.9,10.3,11.1,13.9,18.3c0.1,0.4-0.7,1.1-1.1,1.7c-8.6-4.4-15.1-13.4-21.1-21   C327.3,338.8,329.8,340.2,332.7,339.8z" />
	<path fill="#6B5AA6" d="M262,247.2c-9.6-1.7-17.9-5.9-21.1-15.5C243.9,230.3,259.4,244.2,262,247.2z" />
	<path fill="#1B1527" d="M276.2,252.9c3.6,1.9,7.6,3.2,10.7,5.8c-1.1,0-2.2,0-3.3,0.1c-1.8-1.6-3.7-2.6-6.2-2.4l0,0   c-3.5-3.8-9.6-3.3-12.9-7.1C268.7,249.4,272.2,251.9,276.2,252.9z" />
	<path fill="#211833" d="M326.7,339c-3.2,0-4.8-1.1-8.6-2.2c6.4-1.4,11.5,1.5,16.8,0.8c0.5,0.3,0.9,0.7,1.4,1   c-1.2,0.4-2.9-0.5-3.6,1.2c-1.2,0-2.3,0-3.5,0C328.6,338.8,327.7,338.8,326.7,339z" />
	<path fill="#342754" d="M266.8,292.9c5.7,0.6,11.2,3.6,16.6,5.8c-0.4,0.4-0.8,0.8-1.2,1.2C277.1,297.4,271.2,296.3,266.8,292.9   C266.8,292.9,266.8,292.9,266.8,292.9z" />
	<path fill="#221730" d="M282.1,299.8c0.4-0.4,0.8-0.8,1.2-1.2c3.3,0.9,6.7,1.8,10,2.8C289.2,302.8,285.8,300.4,282.1,299.8z" />
	<path fill="#281E3D" d="M342.1,358.5c1.2,0.5,2.3,0.9,3.5,1.4c0,0.4,0,0.7,0.1,1.1c-3.2-0.2-6.3-0.6-8.9-3.2   C338.5,358,340.3,358.2,342.1,358.5z" />
	<path fill="#342754" d="M266.8,292.9c-2.2-0.4-3.3,0.1-4.7-2.3C264.4,290.9,265.8,291.4,266.8,292.9   C266.8,292.9,266.8,292.9,266.8,292.9z" />
	<path fill="#1B1527" d="M264.5,249.3c-1,0.2-4.4,0.2-2.3-1.2C262.9,248.5,263.7,248.9,264.5,249.3z" />
	<path fill="#08171E" d="M681.2,446.8c-3.7-4.1-6.2-9.5-6.5-15.1C678,434.2,682,442.8,681.2,446.8z" />
	<path fill="#0C181D" d="M651.3,440.8c-0.4-5.6,6.1-12.3,11.4-12.8c-0.4,0.9-0.7,1.6-1,2.2C656.7,432.4,655.1,437.7,651.3,440.8z" />
	<path fill="#0F2D3A" d="M704.1,485.9c3.5,6,5.4,11.5,7.8,16.7C710.1,506.2,702.7,487.3,704.1,485.9z" />
	<path fill="#102B38" d="M634.5,430.6c1.3-4.5,3.7-6.4,8.9-8.1C642.3,425.8,637,427.8,634.5,430.6z" />
	<path fill="#0E2833" d="M705.4,428.7c-0.9,4.7-2.3,8-4.2,10.9C698,438.1,704.1,429.7,705.4,428.7z" />
	<path fill="#04080A" d="M643.4,460c0.3,0,0.6-0.1,0.8-0.4c2.3,0.4,2.4,8.9-0.7,8.2C642.2,465.2,642.8,462.6,643.4,460z" />
	<path fill="#194B61" d="M681.4,492c0.8-2.8-0.3-6.2,2.5-8.3C684.9,487.2,683.5,489.8,681.4,492z" />
	<path fill="#123645" d="M624.3,432.4c0.8-3.7,2.6-5.9,5.1-7.6c0.2,0.5,0.6,1,0.5,1.1C626.7,431.3,626.7,431.3,624.3,432.4z" />
	<path fill="#102C39" d="M724.8,478.8c3,1,4.3,3.4,5.5,6.3C727,483.5,727,483.5,724.8,478.8z" />
	<path fill="#132C35" d="M644.3,451.3c0.3-2.4,1.3-4.4,3.4-5.9c0.3,0.2,0.6,0.4,1.2,0.8c-0.3,2-1.7,3.5-2.6,5.2   C645.4,451.4,644.9,451.4,644.3,451.3z" />
	<path fill="#091920" d="M646.7,477.2c-3.5,0.3-4.7-3.1-2.3-4.4C646.9,472.8,646.4,475.2,646.7,477.2z" />
	<path fill="#0B1F28" d="M669.6,478.7c-1.4,2.6-3.3,4.5-6.1,5.3C662.6,481.1,667.4,479.7,669.6,478.7z" />
	<path fill="#0D1B23" d="M663,468.9c-2.9,0.3-5,0.7-7.1-0.2C657.7,466.1,659.5,466.1,663,468.9z" />
	<path fill="#0A1C25" d="M647,481c2.4,0.2,3.1,1.6,3.2,3.6C647.3,485.4,646.6,484.5,647,481z" />
	<path fill="#194B61" d="M723.4,452.2c-2.1,1.2-3.3,1.8-4.6,2.6C717.9,452.3,720.2,451,723.4,452.2z" />
	<path fill="#102C38" d="M720.7,448.3c0.8-0.7,1.7-1.4,2.5-2.1c2.3,1.5-0.7,2.6-1.9,3.1C721.1,448.9,720.9,448.6,720.7,448.3z" />
	<path fill="#071116" d="M652.5,490.5c-2.1,0.1-2.7-0.8-2.2-3.1C651.4,488.9,651.9,489.7,652.5,490.5z" />
	<path d="M652.3,493.8c0.4,0.5,0.7,1.1,1.1,1.6c-0.5,0.2-0.9,0.3-1.4,0.5c-0.2-0.6-0.3-1.2-0.5-1.8   C651.8,494,652.1,493.9,652.3,493.8z" />
	<path fill="#939899" d="M81.1,488.9c-0.3-0.3-0.6-0.7-0.9-1C80.5,488.2,80.8,488.6,81.1,488.9z" />
	<path fill="#1A1614" d="M699.5,229.5c0-0.5,0.1-1.1,0.1-1.6C700.3,228.5,700.9,229,699.5,229.5z" />
	<path fill="#120D0B" d="M552.7,286.2c3.4,5.6,6.2,10.2,9.1,14.9C558.2,306.2,549,289.2,552.7,286.2z" />
	<path fill="#0C0807" d="M744.1,412.7c-3.1,0-6.2-0.1-9.3-0.1c0-0.7,0-1.4,0-2.1c3.5,0.4,10-3.2,11.7,1   C745.7,411.9,744.9,412.3,744.1,412.7L744.1,412.7z" />
	<path fill="#2F2520" d="M595.1,401.4c-3.8,3.6-8.4,0.7-12.2-2.5C587.4,398.7,590.6,400.9,595.1,401.4z" />
	<path fill="#19110F" d="M730.3,411.4c-1.9,0.4-2.6,0.3-4.9-0.1C727.4,409.8,728.9,410.1,730.3,411.4z" />
	<path fill="#57423A" d="M712.1,410.3c1.8,1.1,1.2,2.6-0.6,1.6C711.7,411.4,711.8,411,712.1,410.3z" />
	<path fill="#190404" d="M716.6,410.6c1.9,0,2.7,0,3.9,0C719.5,412.1,718.6,411.8,716.6,410.6z" />
	<path fill="#1F2021" d="M565.8,237.6c-0.9-3.6-0.6-14,4.2-11.3C569.3,231.7,568.3,234.6,565.8,237.6z" />
	<path fill="#2C2526" d="M458.2,222.4c-4.1,0-5.6-2.8-7.6-5.4C453.8,216.4,454.3,216.7,458.2,222.4z" />
	<path fill="#382325" d="M473.3,230c-1.9,1.4-1.9,1.4-4-0.2C470.9,227.7,470.9,227.7,473.3,230z" />
	<path fill="#130E0F" d="M567.7,241.3c0,1.5,0,2.9,0,4.7C565,243.6,565,242.8,567.7,241.3z" />
	<path fill="#685F64" d="M567,254c0-1,0-2,0-4.1C569,251.8,570.2,253.7,567,254z" />
	<path fill="#322425" d="M463.3,226c1.3-0.1,2.5-0.3,2.8,1.3c-1.2,1.1-2.2,0.3-3.3-0.5C462.9,226.6,463.1,226.3,463.3,226z" />
	<path fill="#141112" d="M569.1,222.8c0.7-1.7,1-2.5,1.6-4.1C571.6,220.7,572.1,221.8,569.1,222.8z" />
	<path fill="#161011" d="M389.5,248.5c1.8-2.2,3.5-1.4,5.1-1.1c8.9,3.1,18.3-1.8,26.8,0.7C411.7,252.7,399.7,253.5,389.5,248.5z" />
	<path fill="#483E41" d="M379.3,252.6c-0.3-0.5-0.5-0.8-0.7-1.1c2.9-2.3,2.9-2.3,7.5-1.7C383.8,250.8,381.5,251.7,379.3,252.6z" />
	<path fill="#0F0A09" d="M405.9,465.1c-3.9-5.1-4.6-12-8.6-17.2C402.4,444.5,408.3,461.7,405.9,465.1z" />
	<path fill="#1E1714" d="M394.2,443.4c-1.8-1.4-3.1-2.8-2.7-5.4C395,440.1,395,440.1,394.2,443.4z" />
	<path fill="#30211D" d="M388,435.6c-3.2-1.8-3.2-1.7-4-5.1C386.6,431.2,387.3,432.5,388,435.6z" />
	<path fill="#3F302A" d="M378.2,422.8c1.1,1.2,1.8,2,3.1,3.4C378.2,425.2,378.2,425.2,378.2,422.8z" />
	<path fill="#4E322C" d="M369.5,415c-0.4-0.7-0.7-1.3-1-1.8C369.7,412.5,370.7,413.7,369.5,415z" />
	<path d="M194.1,477.3c-2,1.3-3.3,1.3-4.6,0.5C189.5,476.1,190.7,476,194.1,477.3z" />
	<path fill="#533F38" d="M205.3,478.1c-2.1,0-3.1,0-4.1,0C201.4,475,203.4,476.3,205.3,478.1z" />
	<path fill="#6F5B4F" d="M177.6,476c0.9,0.5,0.9,1,0,1.5l-0.2-0.2c0.1-0.4,0.1-0.8,0-1.1L177.6,476z" />
	<path fill="#050404" d="M645.4,134.2c-2.4,0-3.8,0-5.6,0C640.5,131.3,643.4,131.1,645.4,134.2z" />
	<path d="M664.8,127.6c-1.2,0.6-2,2.4-4,1.1C661.9,126.9,663.3,127.2,664.8,127.6z" />
	<path fill="#524039" d="M655.7,137.9c-0.9-1.6-0.8-2,0.7-2.2C657.3,136.5,656.5,137.1,655.7,137.9z" />
	<path fill="#7C564E" d="M649.5,134.7c-0.5,0.6-0.8,0.6-1.3,0C648.6,134.1,649,134.6,649.5,134.7z" />
	<path fill="#0D171C" d="M700.9,418.7c-11-0.1-21.8-0.2-31.4,5.8c0.2-8.3,24.8-9.9,31.7-6.9C701.1,417.9,701,418.3,700.9,418.7z" />
	<path fill="#63559D" d="M287.8,182.1c-2.7-1.9-5.3-3.8-7.9-5.6c1.3-4.6,4.9-6.1,8.3-8.2c0.7,0.9,1.3,1.5,1.9,2.2   c-1.7,2-7.6,3.6-6.5,6.5c3.1-1.5,6.1-2.8,9-4.2c0.7,0.9,1.5,1.7,2.2,2.6C292.6,177.6,288.4,178.6,287.8,182.1z" />
	<path fill="#5D5195" d="M276.3,174.1c-2.3-2.3-4.6-4.7-6.9-7c2.7-3.7,6.3-3.3,10.1-5.8c0-0.4,0.1-0.8,0.1-1.2l0,0.1   c1,0.8,2.1,1.6,3.6,2.7c-3.2,2.1-10.8,2.4-8.9,7.5c2.9-1.8,5.2-4.9,9.5-4.1c0.1,0.7,0.3,1.4,0.4,2.1c-1.9,1.2-3.8,2.4-5.8,3.6   c-0.2-0.4,0-1.4-0.9-0.6c0.3,0.2,0.6,0.3,0.9,0.5C278.6,173.3,278.2,174.4,276.3,174.1z" />
	<path fill="#5A4D8D" d="M303.2,195.1c-2.8-2.3-5.6-4.5-8.6-6.8c1-3.3,3.4-4.1,6-5c2.5,1.8,4.3,4,6.3,6.6c-1.3,1-2.5,1.9-3.7,2.8   C303.3,193.4,303.2,194.2,303.2,195.1z" />
	<path fill="#65569E" d="M321.1,204.6c2.9,1.6,5.4,3.7,7.4,6.4c-1.4,1.1-2.7,2.1-4.2,3.3c-3.1-2.5-6-4.9-9.6-7.9   c2.5-0.5,3.4-0.3,4.9-1.8c0,0,0,0,0,0C320.1,204.7,320.6,204.6,321.1,204.6z" />
	<path fill="#605296" d="M319.7,203.5c-1.9,0.5-3.7,0.9-5.9,1.5c-1.6-1.6-3.2-3.2-4.7-4.6c0.7-2.4,2.6-2.6,4.3-3.3   C315.7,198.8,318.2,201.1,319.7,203.5z" />
	<path fill="#6758A1" d="M297.3,177.8c0.6,1.1,1.4,2.2,1.2,3.5l0,0c-0.7,0.5-1.2,1.3-2.1,1.3c-0.5,0.4-1,0.7-1.4,1.1c0,0,0,0,0,0   c-0.4,0.4-0.8,0.8-1.2,1.2c0,0,0,0,0,0c-0.9,0-1.8,0-2.6,0c-0.7-0.4-1.4-0.9-2.1-1.3C291,180.4,293.6,178.2,297.3,177.8z" />
	<path fill="#61549B" d="M303.2,195.1c0-0.3,0-0.5-0.1-0.8c1.7-0.8,3.4-1.7,5.2-2.6c1.2,1.3,2.2,2.4,3.3,3.6   c-1.7,1.2-3.1,2.1-4.6,3.1C305.8,197.3,304.5,196.2,303.2,195.1z" />
	<path fill="#5E5296" d="M332.6,220c-1.8-1.3-3.6-2.6-5.8-4.2c1.5-1,2.8-1.7,4.6-2.9c1.2,1.5,2.3,3,3.6,4.6   c-0.4,0.8-0.8,1.6-1.2,2.5C333.4,220,333,220.1,332.6,220z" />
	<path fill="#1E192E" d="M297.3,177.8c-3.7,0.5-6.3,2.6-8.1,5.8c-0.5-0.5-0.9-1-1.4-1.4c0.5-3.5,4.8-4.5,7-6.7   C296.1,175.7,297,176.5,297.3,177.8z" />
	<path fill="#1C162A" d="M292.6,172.8c-2.9,1.4-5.9,2.7-9,4.2c-1.1-2.8,4.8-4.5,6.5-6.5C291,171.3,291.8,172,292.6,172.8z" />
	<path fill="#5C5296" d="M336.2,223.4c-0.4-0.7-0.8-1.5-1.2-2.2l0,0c1.2-0.1,2.3-0.1,3.5-0.2c0.6,0.6,1.3,1.2,1.9,1.8   C339.2,225.3,337.7,224.3,336.2,223.4z" />
	<path fill="#574D8D" d="M339.4,226.2c4.5-0.3,4.5-0.3,4.8,2.9C342.7,228.2,341.5,227.5,339.4,226.2z" />
	<path fill="#1D1C33" d="M338.5,221.1c-1.2,0.1-2.3,0.1-3.5,0.2C336.6,219.5,336.6,219.5,338.5,221.1z" />
	<path fill="#5A4D8D" d="M291.2,184.9c0.9,0,1.8,0,2.6,0C292.8,186.4,292.7,186.4,291.2,184.9z" />
	<path fill="#1D1C33" d="M332.6,220c0.4,0,0.8,0,1.2-0.1c0,0.4,0,0.8,0,1.2l0,0C333.4,220.8,333,220.4,332.6,220z" />
	<path fill="#6D5CA9" d="M343.1,231.9c-0.7,1.2-0.9,0.4-1-0.3C342.5,231.6,342.8,231.7,343.1,231.9z" />
	<path fill="#5A4D8D" d="M297.3,182.2c0.4-0.3,0.8-0.7,1.2-1C298.1,181.6,297.7,181.9,297.3,182.2z" />
	<path fill="#605296" d="M319.6,204.7c-0.5,0.4-1,0.8-1.4,1.1C318.7,205.4,319.2,205,319.6,204.7z" />
	<path fill="#605296" d="M321.1,204.6c-0.5,0-1,0.1-1.5,0.1c0-0.4,0.1-0.8,0.1-1.2c0,0-0.1,0.1-0.1,0.1   C320.1,203.9,320.6,204.3,321.1,204.6z" />
	<path fill="#5A4D8D" d="M298.5,181.3c0-0.4,0-0.8,0-1.2C299.4,180.4,299.7,180.8,298.5,181.3z" />
	<path fill="#5A4D8D" d="M295,183.7c0.5-0.4,1-0.7,1.4-1.1C296,182.9,295.5,183.3,295,183.7z" />
	<path fill="#5A4D8D" d="M293.9,184.8c0.4-0.4,0.8-0.8,1.2-1.2C294.7,184,294.3,184.4,293.9,184.8z" />
	<path fill="#291815" d="M648.1,182.6c0.6,2.7,0.4,2.9-3.4,3C645.3,183.9,646.2,182.8,648.1,182.6z" />
	<path fill="#45352F" d="M639.6,189.7c0-1.7,1-2.3,2.6-2.3C644,188.7,640.8,191.7,639.6,189.7z" />
	<path fill="#010101" d="M177.5,454.8c0.7-1.1,7.8-1.7,5.7,0.1C181.3,455,179.4,454.9,177.5,454.8z" />
	<path fill="#230605" d="M191.4,456.1c-1.7,0-3.4,0-5.5,0C188.8,454.9,188.8,454.9,191.4,456.1L191.4,456.1z" />
	<path fill="#070504" d="M195.1,458.5c1.6-2.2,1.6-2.2,3.5,0C197.2,458.5,196.1,458.5,195.1,458.5L195.1,458.5z" />
	<path fill="#271F1B" d="M747.7,409.3c1.8,0,2.9,0,4,0C750.4,412.2,750.4,412.2,747.7,409.3z" />
	<path fill="#736054" d="M744.1,412.7c0.8-0.4,1.6-0.8,2.4-1.2C746.2,412.8,745.2,412.8,744.1,412.7z" />
	<path fill="#A68173" d="M832.5,372.8c-1.4,1.5-3.1,0.9-4.8,0.9C829,372,830.9,373,832.5,372.8z" />
	<path fill="#61549B" d="M275.9,161.1c-3.3-0.1-5.5,2.4-8.4,3.5c-2.7-2.3-4.5-5.2-6.4-8c0.9-0.4,1.7-0.8,2.7-1.2   c0.4,0.6,0.6,1.1,1.1,1.8c3.3-0.7,5.9-3.2,9.5-4.2c0.6,0.9,1.3,1.8,1.9,2.6c-2.1,3-6.2,2.9-8.2,5.7c3.1,0.8,6.3-2.7,9.7-3.9   c0.7,0.8,1.3,1.7,2,2.5l0-0.1C278.4,160.4,276.9,159.8,275.9,161.1z" />
	<path fill="#454782" d="M271.1,152.6c-0.5,0-0.9,0-1.4,0c-0.1-0.7,0.9-0.3,1.4-0.4C271.1,152.4,271.1,152.5,271.1,152.6z" />
	<path fill="#21110F" d="M806,407.5c-2.2,1.9-3.6,1.9-5.5,1C801.7,406,803.3,406.8,806,407.5z" />
	<path fill="#1B1320" d="M275.9,161.1c1-1.3,2.5-0.7,3.8-1.1c0,0.4-0.1,0.8-0.1,1.2C278.4,161.2,277.1,161.2,275.9,161.1z" />
	<path fill="#060605" d="M177.4,476.2c0.1,0.4,0.1,0.8,0,1.1c-2.5,0-5-0.1-7.5-0.1C172.3,475.6,174.9,476.2,177.4,476.2z" />
	<path fill="#170C0B" d="M341.7,486c-5.1,1.3-8.5,1.7-12-1.6C333.6,482.3,337.2,482.7,341.7,486z" />
	<path fill="#030202" d="M357.5,487.7c-5.1,0.5-9.5,0.6-14.5,0.1C344.5,484.5,355.2,484.9,357.5,487.7z" />
	<path fill="#221A17" d="M317.1,480.8c5.4-1.9,6.4-1.6,7.1,1.5C321.1,483.3,321.1,483.3,317.1,480.8z" />
	<path fill="#2F1C19" d="M306.8,477.9c2.4-0.7,4.7-1.3,6.5,1.4C308.2,480,308.2,480,306.8,477.9z" />
	<path fill="#3D2A26" d="M294.9,472.1c1.7,1,2.5,1.5,3.4,2C296.1,475.2,296.1,475.2,294.9,472.1z" />
	<path fill="#4C4986" d="M270.3,252.8c2.6,0.7,5.1,1.6,7,3.6C275.8,256.9,268.4,254.2,270.3,252.8z" />
	<path fill="#1B1527" d="M286.8,258.7c2.9,0,5.3,1.1,7.1,3.6C291.1,261.8,288.7,260.9,286.8,258.7z" />
	<path fill="#4C4986" d="M277.4,256.4c2.5-0.2,4.4,0.8,6.2,2.4C281.1,258.9,278.9,258.5,277.4,256.4z" />
	<path fill="#544492" d="M326.7,339c1-0.2,1.9-0.2,2.5,0.8C328.4,339.5,327.5,339.3,326.7,339z" />
	<path fill="#1D1323" d="M278.6,171.8c-0.3-0.2-0.6-0.3-0.9-0.5C278.6,170.5,278.3,171.5,278.6,171.8L278.6,171.8z" />
</g>
</svg>