<?xml version='1.0' encoding='utf-8'?>
<svg xmlns="http://www.w3.org/2000/svg" version="1.2" baseProfile="tiny" id="Layer_1" x="0px" y="0px" viewBox="0 0 900 600" overflow="visible" xml:space="preserve">
<g id="a">
	<path fill="#050303" d="M731.2,276.5c-4-0.1-7.5,1.3-11.2,3.3c7.5,15.9,30.3,22.4,29.7,41.8c-0.4,0-0.8,0-1.2,0   c-5.6-17.8-24.1-25.9-32.5-43c1.7-3.3,5.2-3.3,8.1-5.2c-32.7-8.1-67.7-8.5-101-4.7c-10.4,32.3-6.2,65-5.5,98.3   c5.8-0.9,11.9-2.4,13.8,4.2c9.1,15.4,33.2,19,49,12.5c1-3.6,2.1-7.5,3.2-11.4c0.8-0.6,0.5-1,0.8-2.1c-57.2-35.9,29.2-92.7,60.8-49   c-0.9,1.9,0.2,5.3-1.8,6.8c-0.9-1.5-1.9,0.2-2.8,0c0-0.5,0-0.9,0-1.4c4.7-5.1-2.4-10.5-7.1-11.9c-35.2-20.9-91.1,23.2-48,51   c2.2-3.7,1.9-8,3.3-11.8c4.7,12.5-5.5,26.3-7.9,38.9c-2.6-1.4,0.1-7-4.6-5.1c-18.4,7.4-42.6-0.2-50.4-19.1   c-34.9,5.3-70.6,2.8-105.9,2.3c-0.5-0.4-1-0.8-1.5-1.2c3.6-25.3-4.4-52.9-5.3-79c-1.8-1.2-3.4-2.3-5-3.4c38.1-0.5,76.8-12.1,114-22   c27.3-2.8,88.2-4.9,110.7,9.2C732.3,275.1,731.7,275.6,731.2,276.5z M517.8,290.2c-1-0.1-1.6,0.3-1.6,1.4   c2.1,25.5,7.8,50.7,6.5,76.1c29.4-0.1,63.3,0.6,91.9-0.6c-2-32.6-6.3-66.4,4.8-97.6c-26.4,6-53.5,15.3-80.1,19.1   C532.1,289.1,525,290.7,517.8,290.2z" />
	<path fill="#050302" d="M496.2,279.9c-25.7-10.3-58.1-15.2-79.7,6.3c23.7-15.4,49.7-15.6,76.2-5.5c-0.4,0.8-1.2,1.2-1.7,1.8   c-31.8-11.6-61.9-6.9-84.5,19.7c-1.2,0.4-0.5-1.5-1.4-1.9c-0.8,0.1-1.6,0.1-2.3,0.2c3.1,30.1,5,63,16.9,91.6   c16.8-3,31.8-12.8,48.6-16.1c14.4-2.4,30-1.6,43.6-4.3c0.9,0.4,1.8,0.8,2.7,1.2c-1.4,0.6-3.1-0.5-3.8,1.3   c-20.4,6.5-43.1,1.6-62.3,12.7c-15.3,7.9-32.8,9.1-49.7,10.7c-50.2,3.3-100-8-149.1-10.3c11.1-3,23.4,0.1,34.7-1.1   c3.7-1.9,7.1-0.7,10.6,0.4c39.1,8.8,80.4,7.4,120.5,6.2c-6.7-17.8-7.7-35.8-12.6-53.9c-1.1-0.4-2-0.8-3.2-1.2   c0.8-0.6,1.4-1,2.3-1.7c-1.4-10.4-2.5-20.8-3.4-31.4c-43.1,9.3-85.9,19.6-129.4,26c0-0.4-0.1-0.9-0.1-1.4   c42.9-12.1,88.2-15.7,130.8-28.4c-47.5,2.7-90.3,22.2-137.3,24.3c0.9-0.8,1.7-1.6,2.6-2.4c45.1-5.4,88.2-21.4,133.7-24.4   c13.7-3.1,15.6-22.4,31.9-25.3c21.2-8,47.1-5.4,66.9,5.5C497.1,279,496.6,279.5,496.2,279.9z" />
	<path fill="#060303" d="M155.3,330.9c-28.5,3.9-55.4,18.1-84.6,16.6c-6-1.1-11.2-3.4-16.8,0.8c-18.3,23.3,9.7,30.6,28.7,26.6   c23.3-2,45.8,1.7,68.2,7.6c-1,0.5-1.9,0.9-2.9,1.4c-20.9-2.8-41.5-9-62.6-5.4c0.3,1,0.5,1.8,0.7,2.6c-30,0.3-63-15.7-24.8-41.2   c-4.9-2.3-8.5,0.8-14-0.5c1.9-1.7,3.8-0.7,5.6-1.4c-0.2-0.7-0.5-1.5-0.7-2.2c5.5-1.9,14.4-1.1,14.7,6.1   c32.5,1.6,64.3-17.7,95.7-16.7l0.1,0.2c-3-0.6-5.5,1.3-8.3,1.9c38.2-2.4,76.5,4.3,114.8,1.9c0,0.4,0.1,0.9,0.1,1.4   C231.8,338.2,193.3,325.2,155.3,330.9z M88.9,342.9c5.5,0.7,10.4-1.4,15.7-2.3c-2-1.1-4-1.9-5.7,0.2   C95.5,340.5,92.2,341,88.9,342.9z" />
	<path fill="#0C0A0A" d="M684.4,446.5c0.1,14.9,0,29.2,8.6,42c10.8-1.4,21.4-1.3,32-0.8c2,2.8,5.9-0.5,7.8,2.3   c-13.4-2-35.3,6.5-45-3c-10-31.9-17.8-65.8-8.4-98.4c0.4,1.4-0.5,3.2,1.4,4.1C678.1,410.8,683.5,428.6,684.4,446.5z M678,416.8   c-2.8,10,2,19.5,1.6,29.6c5-0.5-0.8-15.3-0.3-19.6C678.9,423.5,678.4,420.1,678,416.8z" />
	<path fill="#13100E" d="M79.2,399.1c0.1,5.1,0.2,9.6,0.3,14c-6.8,9.5-1.3,23.2,7.8,29.3c-0.4,2.8-0.8,5.7-1.2,8.8   c1.5-0.3,2.5-0.4,3.5-0.6c0.1,0.5,0.1,1.1,0.2,1.6c-1.4,0.7-2.7,1.3-4,2c-9.1,21.8-33.5,3.5-45.4-5.6c0.5-0.4,1-0.9,1.5-1.4   c12,5.1,26,21.4,39,10.7c1.3-4.8,2.5-9.4,3.7-14.2c-7.4-5.9-13-15.1-9.3-24.8c-1.9-0.1-3.4-0.3-4.8-0.4c-0.7-1.2-0.5-2.4,0-3.6   c1.7-0.1,3.3-0.2,5-0.4c1.6-1.8,1.7-3.7,1.2-5.7c-2.2,0.3-4.3,0.5-6.3,0.8c-0.7-1-1.4-2-2.2-3.1c2.7-2,5.5-1.6,8.5-1.8   c-0.3-1.4-0.7-2.6-1-3.9c-3.3-0.2-11.4,3.6-10.4-2.4c3.7-2.4,7.3-1.8,12-1.8c3.8-3.5,7.9-10,7.1-15.4c0.6,0,1.2-0.1,1.8-0.2   C88.9,385.3,82.7,396.5,79.2,399.1z" />
	<path fill="#0E0A0A" d="M804.2,438c-23.4,9.1-50-6.6-73.6-10.1c-2.2,7.1-1.9,14.6-5.4,21.7c-1.2-19.6,2.6-38.2,3.5-57.8   c0.5-0.6,1-1.1,1.5-1.7c3.1,11.8-0.2,24,0.6,35.9c23.8,1.9,45.3,13.6,69.4,10.8C801.5,437.3,803.3,436.3,804.2,438z" />
	<path fill="#14110F" d="M874.2,344.6c-1,0.1-2.4,0.1-2.5,1.5c-2.7,0.3-0.2,5.6-1.3,7.7l0.1-0.1c-0.7-1.6-1.4-3.3-2.1-4.9   c-3.7,1.2-0.4,6-0.4,8.7c-0.5,0.5-1,1-1.5,1.5c-0.8-0.4-1.7-0.9-2.5-1.4c-0.1-1.8-0.2-3.7-0.3-5.5c-3.3,6.8,1.7,16.2-2.4,22.5   c-2.7-6.3-1.5-13.8-4.5-20.5c-15.8,6.3-23.2-0.3-37.2,12.7c-0.5-0.4-0.9-0.9-1.3-1.3c6.4-5.6,14.2-14.5,23.5-10   c4.8-2.9,30.2-8.7,26.6-13.5c0.4-0.7,0.9-1.4,1.5-2c-0.3-0.1-0.7-0.3-1.1-0.4c-0.9-1.3,0.5-2,1.4-2.8l0,0c3.6-4.1,5.7-8.7,6.9-14.1   c2.6,3.2-1.1,6.2,0.3,9.9c0.4,1-1.1,2.8-1.8,4.3c-1.2,0.7-2.6,1.3-2.1,3.4c1.8-0.5,2.1-1.8,2.2-3.3c2.8,0.9,3.3-5.3,5.3-2.5   c-0.9,1.6-1.8,3.3-2.7,5C877.1,341.3,875.7,343,874.2,344.6z M859.9,352.9c-0.2,0-0.5,0-0.7,0C858.2,356.4,860.8,356.6,859.9,352.9   z" />
	<path fill="#150D0C" d="M258.4,322.7c0.6,1,1.2,1.1,1.9,0.1c1.6-0.1,3.2-0.1,4.8-0.1c-0.9,0.8-1.7,1.6-2.6,2.4   c-33.5-3.8-66.5-9.8-100,0c-0.9-0.4-1.9-0.9-2.8-1.3C192.4,312.4,225.5,315.4,258.4,322.7z" />
	<path fill="#0E0D0C" d="M740.4,331.8c0.5,0.1,0.9,0.1,1.3,0.1c0.4,0.2,0.7,0.5,1.5,1c0.1-1.9,0.1-3.4,0.2-5   c1.8-0.9,0.9-2.7,1.3-4.1c0.6,2.4,1.2,4.8,1.8,7.5c1.1-2.3,2.1-4.4,3-6.1c-0.4-1.5-0.7-2.6-1-3.8c0.4,0,0.8,0,1.2,0   c0.5,0.4,1.1,0.9,1.6,1.4c0.2,4-0.8,7.8-1.6,11.6l0.1-0.1c-5.8,6.1-3.7,15-6.7,22.3c-3.2,11.4-13.2,21.6-12.9,33.6   c-0.5,0.6-1,1.1-1.5,1.7C723.7,370.4,748.7,354,740.4,331.8z" />
	<path fill="#0E0A09" d="M830.2,259c-12.2,3.8-22.8,6.3-33.1,14c-4,18.1-26.3,20.4-41,15.5c7.7-3.1,17.6,1.4,24.7-2.1   c15.6-9.5,19.1-28.7,42.5-29C825.6,258,829.2,256.6,830.2,259z" />
	<path fill="#D2BD9E" d="M862.8,262.6l0.1,0.1c1.8-3,1.5-6-0.1-9c2.9-0.9,4.3,4.7,6.5,6.5c0,1.9,0,3.8,0,6.7c1.2-4,1.2-4-0.1-6.6   c0.5-6.7-6.4-12-12.1-14.3c-0.3,1-0.6,1.9-0.9,2.7c-3.1-0.6-5.4,1.1-7.8,2.7c-0.8-0.1-1.7-0.2-2.5-0.3l0,0c3-7.8,13.5-10,20.6-7.7   c6.2,8.5,6.7,19.5,9.1,28.7c-0.5,0.4-1,0.8-1.5,1.2C870.5,269.7,865.9,266.8,862.8,262.6z" />
	<path fill="#0B0A09" d="M886.1,318.8c-0.5,0-0.9,0.1-1.4,0.1l0,0c-0.9-20.4-11.5-40.5-24.7-55.8c1-0.1,1.9-0.1,2.9-0.2l-0.1-0.1   c3,4.1,7.6,6.9,11.3,10.5C880.4,287.1,889.9,303.3,886.1,318.8z" />
	<path fill="#1C1816" d="M48.2,335.6c-8.3,3.8-19.3,1.2-28.5,3.8c-2.5,0.6-5.7-1.2-6.5,2.2c5.9-1,11.4-2.1,16.9,0.1   c-7.9,1.4-15.7,2.7-23.5,4c-2.3,7.9,1.2,16.3,0,24.9c-3-3.9-0.1-10.1-2.3-14.8c-0.1,5.5-0.3,11-0.4,16.5c-2-7.3-1.1-15.4-1.4-22.9   c-0.3-6.9,2.7-6.1,7.7-8.1c0.2-2,0.5-3.9,2.8-4.5C25.4,338.2,36.3,333.9,48.2,335.6z" />
	<path fill="#191211" d="M778.2,482.5c18.6-5.1,37.9-7.2,56.9-9.1c2.5-3.2,4.8-5.4,5.6-9.2c0.5,1,0.9,2,1.4,3   c-2.5,3.9-3.3,9.8-8.9,9.6c-17.4,1.1-34.5,4.5-51.8,7.1C780.4,483.4,779.3,483,778.2,482.5z" />
	<path fill="#160C0B" d="M222.4,382.2c0,0.4,0,0.9,0,1.3c-1.7,0.9-4-1.1-5.2,1.3c-22.8,2.2-46.7,3.7-69.2-1c1-0.5,1.9-0.9,2.9-1.4   C174.6,384.3,198.9,385,222.4,382.2z" />
	<path fill="#1A1513" d="M865.3,240.7l0.1,0.1c-8.2-12.7-17.9-2.5-26.1,3.9c-0.5-0.6-1-1.1-1.5-1.6c19.4-25.4,40.1-3.2,36.7,20.9   c-2.1-7-3.8-14.4-8-20.6C866.1,242.5,865.7,241.6,865.3,240.7z" />
	<path fill="#131211" d="M23.2,399.5c3.8,2.2,0.9,6.3-0.9,8.9c-0.3-2.1-0.6-4.1-1-6.4c-14.7-10.5-19.2-28.9-17-46.1   c2.2,4.7-0.7,10.9,2.3,14.8C10.6,380.9,14,392.6,23.2,399.5z" />
	<path fill="#171413" d="M78.6,417.9c-0.7,0.5-1.1,0.9-1.6,1.3c-0.7-2.4,1.5-4,2.5-5.9c2.7,4.9,4.7,10,5.5,14.6   c3.6,3,6.6,5.5,9.2,7.7c1.5,5.8,1.9,14.3-4.4,16.7c-0.1-0.5-0.1-1.1-0.2-1.6C98.4,428,83.9,445.3,78.6,417.9z" />
	<path fill="#1B1816" d="M42,447.2c-0.5,0.4-1,0.9-1.5,1.4c-14.6-8.4-19-24.3-18.1-40.3c0.8-1.2,1.6-2.5,2.3-3.9   C24.3,421,27.7,436.9,42,447.2z" />
	<path fill="#2B2523" d="M775.7,337.9c4.9,5.6,1.1,14.1,4.3,20.7c2.1,1.4,4,1.4,5.8,0.7c4.6-1.9,7.7,1.3,12.7,0.9   c-0.2-1.7-0.4-2.9-0.6-4c0.5-0.9,0.9-1.9,1.4-2.9c1.2,2.7,2.7,5.4,4,8c-0.5,0.5-1,0.9-1.5,1.3c-0.6-0.2-1.2-0.5-2.4-1.1   c-2.7,3.2-6.1,1.5-9,0c-15.4,7.1-15.2-11.8-16.1-21.9C774.8,339.1,775.2,338.6,775.7,337.9z" />
	<path fill="#2E2725" d="M845.4,457.6c-0.5-1.3-1.2-3-2-5c0.6-1.4,1.3-3,1.9-4.3c-1.6-1.7-3-3.2-4.8-5.1c-3.9-0.8-9.2,2.4-11.5-2.7   c1.9-0.3,3.7-2.1,5.4-0.1c1.7-0.3,4.3,1.5,5.1-0.9l-0.1,0.1c0.5,0,0.9,0,1.4,0l-0.1-0.1c2.9,2.5,5,5.3,7.9,8.3   c-0.8,1.6-1.6,3.3-2.5,4.9c0.8,1.9,1.5,3.8,2.3,5.7c-2.1,3.2-6,4.7-6.2,8.8c-0.5-1-0.9-2-1.4-3C842.2,462.1,843.6,460,845.4,457.6z   " />
	<path fill="#281D1C" d="M731.1,276.3c0.6-0.6,1.2-1.1,1.8-1.7c8.2,3.6,16.8,6.4,24.2,11.9c7.9,0,15.8,0,23.8,0   c-7.2,3.5-17.1-1.1-24.7,2.1C748.7,282.6,738.6,282.1,731.1,276.3z" />
	<path fill="#352E27" d="M881.1,334.5c-2-2.9-2.7,3.7-5.4,2.4c0.6-1.4,2.2-3.2,1.8-4.3c-1.4-3.7,2.3-6.8-0.3-9.9   c0.4-2.2,0.8-4.3,1.2-6.5c2.5,2.5,0.9,5.8,1.4,9.3c1.8-2.6,3.3-4.6,4.8-6.7c0.5,0,0.9-0.1,1.4-0.1   C885.1,324.2,885.5,330.5,881.1,334.5z" />
	<path fill="#3A3430" d="M875.7,373.1c1.4-1.2,1.4-1.3-0.1-2.5l0.1,0.1c-0.1-6.1-5.5-10.7-5.2-17l-0.1,0.1c0.4,0,0.9,0,1.3,0   c3.4,11.6,14.5,24,7,36.1c0.1-4.8-1.1-8.9-2.8-12.8C877,375.7,876.7,374.5,875.7,373.1z" />
	<path fill="#2A211F" d="M839.1,435.8c-2.2,0.4-0.3,2.6,0.1,3.8l0.1-0.1c-0.9,0-1.8,0.1-2.7,0.1c-3.4-5.7-4.4-5.9-10.4-4.2   c-0.2-1.3-0.5-2.9-0.7-4.2c-4.3,0.2-8.2,0.5-12.2,0.7c-0.5-0.5-1-1-1.5-1.5c1.4-0.1,3,0.6,4-1.1c3.4-0.4,6.7-0.8,10.3-1.3   c1.1,1.2,2.2,2.4,3.3,3.6c4.2-0.3,7.6,1.5,11.2,2.8C840.2,434.8,839.7,435.3,839.1,435.8z" />
	<path fill="#26201F" d="M749.8,334.3l-0.1,0.1c8.3,1.7,19.2-1.1,26.1,3.7c-0.5,0.5-1,1-1.5,1.5   C766.1,338.3,756.3,340.3,749.8,334.3z" />
	<path fill="#292827" d="M879.4,356.4c0.1-2.2,0.1-3.7,0.2-5.2c0.3,0,0.9,0,1.2,0c1,4.4,1.4,9,4.1,12.9c-0.5,0.5-1,1-1.5,1.5   c-6.8-5-8.6-12.5-11.6-19.7c0.4-1.3,1.5-1.1,2.5-1.2C875.3,348.6,876.4,352.5,879.4,356.4z" />
	<path fill="#3B3530" d="M835.6,255.5c1.8,0.2,3.7,0.5,5.7,0.8c0.6,2.5-0.1,4.2-2,5.5c-0.1-1.4-0.2-2.3-0.4-3.8   c-2.9,0.3-5.8,0.7-8.7,1.1c-1.2-2.5-4.8-1.1-7-1.7c3.1-0.6,6.2-1.2,9.5-1.8c0.6-4.5,1-9.3,5.1-12.5c0.5,0.6,1,1.1,1.5,1.6   C837.6,248,834.9,251,835.6,255.5z" />
	<path fill="#352825" d="M235.8,377.5c0.9,0.3,2.1,0.6,3.3,1l-0.1-0.1c-1.2,0.7-2.4,1.5-4,2.5c1.6,2.7,6.5,1.7,6.8,5.2   c-6.4-1.5-12.7-3.4-19.5-2.5c0-0.4,0-0.9,0-1.3C226.7,380.7,231.2,379.1,235.8,377.5z" />
	<path fill="#221916" d="M52.2,335.8c0.2,0.7,0.5,1.5,0.7,2.2c-1.8,0.8-3.7-0.3-5.6,1.4c2.5,0.1,4.4,0.2,6.2,0.3   c-9.8,2.5-20.5,2-30.4,0.9c6.5-3.1,15.2,1.6,20.8-3.5c1.5-0.4,3.4,0.5,4.3-1.4C49.6,335.7,50.9,335.7,52.2,335.8z" />
	<path fill="#393331" d="M803.9,361.4c1.3-0.6,2.6-1.2,4-1.9c0.7-1.4,1.5-2.8,2.2-4.2c3.2,3.3,2.1,10.4,7.3,13.1   c-0.8,1.9-2.3,1.5-4.1,0.7c-1.2-2.2-2.5-4.5-4-7.1c-1.3,0.3-2.6,0.5-3.8,0.7C805,362.2,804.5,361.8,803.9,361.4z" />
	<path fill="#777267" d="M867.9,361.7c-3.5,4.3-2.5,10.6-5.3,15.4c-0.4,0-0.7,0-1,0c-0.1-0.8-0.1-1.7-0.2-2.5   c3-4.1,0.7-10.7,1.6-15.7c0.4-0.4,0.7-0.9,1.1-1.3c0.8,0.4,1.7,0.9,2.5,1.4C867,359.9,867.4,360.8,867.9,361.7z" />
	<path fill="#332F2C" d="M868,357.5c2.6,4.4,5.1,8.8,7.7,13.2l-0.1-0.1c-0.4,2.5,2,4.3,0.3,6.5c-3-6-6.4-11.9-9.3-18.1   C867.1,358.5,867.6,358,868,357.5z" />
	<path fill="#0C0A0A" d="M739.2,487.8c4-1.1,8.3,1.3,11.7-1.3c3.1-1,6.6,1.3,9.1-1.3c3.1-0.3,6.5-1,9.1,1c-2.6,1-5.6-1.2-7.7,1.3   c-3.1,1.1-6.6-1.4-9.1,1.3c-1.2,0.1-2.4,0.2-3.6,0.3C745.5,488.8,742.2,489.5,739.2,487.8z" />
	<path fill="#1D0808" d="M251.9,385c-0.7-0.8-1.2-1.3-1.8-2c0.8-3.5,3.4,0.4,4.2,2.2c4,0.4,8.4-1.3,12.5,0.8   c-5.7,0.4-11.7-0.7-17.2,1.2c-1.4,0.2-2.4-2.1-4-0.7c-1.2,0-2.5-0.1-3.7-0.1c0-0.4,0-0.9-0.1-1.3C245,385.1,248.2,385.1,251.9,385z   " />
	<path fill="#2B1E1D" d="M732.8,490.1c-1.9-2.9-5.8,0.5-7.8-2.3c8.1-0.7,15.7,0.9,23.7,1.3C743.5,490.8,738.1,490,732.8,490.1z" />
	<path fill="#3E2B26" d="M511,286c-0.9,0.4-1.9,0.8-2.8,1.2c-4.9-0.9-8.1-4.7-12.1-7.2c0.5-0.5,1.1-1,1.6-1.5   C502.3,280.7,505.8,284.7,511,286z" />
	<path fill="#3E2D2B" d="M804.2,437.9c-1-1.6-2.7-0.6-4-1.1c4.6-1.1,8.1-4.2,11.8-6.5c0.5,0.5,1,1,1.5,1.5   C810.5,434,808,436.9,804.2,437.9z" />
	<path fill="#221916" d="M32.7,335.6c-5.3,3.2-13.5,0.3-19.7,1.2C19.1,334.5,26.2,336.2,32.7,335.6z" />
	<path fill="#585044" d="M875.6,272.1c-2.4-2.9-1.3-7.7,0.3-10.8C877.7,264.9,876,268.5,875.6,272.1z" />
	<path fill="#444037" d="M878.3,340.8l0.1-0.1c3.2,1.2-0.3,4.9,2.2,6.7c0,1.3,0.1,2.5,0.1,3.8c-0.3,0-0.9,0-1.2,0   C877.8,348,878.5,344.3,878.3,340.8z" />
	<path fill="#271E1E" d="M518.5,369.6c0.5,0.4,1,0.8,1.5,1.2c-1.8,0.7-3.7,1.5-5.5,2.2c-0.9-0.4-1.8-0.8-2.7-1.2   C513.8,370.4,516.1,369.9,518.5,369.6z" />
	<path fill="#3E3D3B" d="M841.9,439.6c-0.5,0-0.9-0.1-1.4-0.1l0.1,0.1c0.3-1.5-0.5-2.7-1.5-3.8c0.5-0.5,1-0.9,1.5-1.4   C843.8,436.1,843.9,436.6,841.9,439.6z" />
	<path fill="#2B1E1D" d="M773.5,485.2c-1.4,0.3-2.9,0.6-4.3,0.9c-1.6-1.4-3.5-1.3-5.5-1.4C766.8,483.1,770.5,483.5,773.5,485.2z" />
	<path fill="#5A5A5A" d="M886.9,369.6c-1.4-1.5-2.4-2.8-3.5-4c0.5-0.5,1-1,1.5-1.5C886.5,365.3,888,366.7,886.9,369.6z" />
	<path fill="#2B1E1D" d="M777,484.8c-1-0.4-2-0.9-3-1.4c1.4-0.3,2.9-0.6,4.3-0.9c1,0.5,2.1,0.9,3.1,1.4   C779.9,484.2,778.4,484.5,777,484.8z" />
	<path fill="#191211" d="M773.5,485.2c-1-0.5-2-0.9-3-1.4c1.2-0.1,2.3-0.3,3.5-0.4c1,0.4,2,0.9,3,1.4   C775.8,485,774.6,485.1,773.5,485.2z" />
	<path fill="#8C9392" d="M861.6,382.4c0-2.4,0-3.9,0-5.3c0.4,0,0.7,0,1,0C862.8,378.6,863.1,380.2,861.6,382.4z" />
	<path fill="#0F0808" d="M801.8,362.6c1.4-1.5,2.3-1.6,3.7,0.1C804.2,363.6,803,363.9,801.8,362.6z" />
	<path fill="#2B1E1D" d="M761.5,487.4c1.4-2.1,3.5-1,5.3-1C765.2,487.6,763.3,487.6,761.5,487.4z" />
	<path fill="#2B1E1D" d="M752.4,488.7c1.5-2,3.6-1,5.5-0.9C756.2,489,754.3,488.9,752.4,488.7z" />
	<path fill="#352825" d="M217.2,384.8c1-1.7,2.5-1.1,4-1C219.8,384.1,218.5,384.5,217.2,384.8z" />
	<path fill="#E1C7B6" d="M241.9,386.5c1.2,0,2.5,0.1,3.7,0.1C243.9,388.1,243.8,388.1,241.9,386.5z" />
	<path fill="#AE9E85" d="M880.6,347.4c-1.4-1.2-1.1-2.7-0.7-4.2C881.1,344.5,881,345.9,880.6,347.4z" />
	<path fill="#393331" d="M817.4,368.3l-0.3-0.4c-0.1-1.1,0.2-2,1.4-2.4c0.5,0.4,0.9,0.9,1.3,1.3C819,367.3,818.2,367.8,817.4,368.3z   " />
	<path fill="#3E2D2B" d="M815.9,429.3c-0.9,1.7-2.5,1.1-3.9,1.1C813.1,429,814.5,429,815.9,429.3z" />
	<path fill="#998D7A" d="M870.7,351c0.3,1,0.7,1.9,1,2.8c-0.4,0-0.9,0-1.3,0C870.6,352.9,870.7,352,870.7,351z" />
	<path fill="#271E1E" d="M510.7,374.3c0.6-1.2,1.5-1.2,2.6-1C512.4,373.7,511.6,374,510.7,374.3z" />
	<path fill="#A2958A" d="M842,440.7c-0.4-0.4-0.9-0.8-1.4-1.2c0.5,0,0.9,0.1,1.4,0.1C841.9,440,842,440.3,842,440.7z" />
	<path fill="#F2D7C5" d="M260.4,322.8c-0.7,0.9-1.3,0.9-1.9-0.1C259.1,322.7,259.7,322.8,260.4,322.8z" />
	<path fill="#444037" d="M878.4,340.7c-0.4,0.2-0.8,0.3-1.2,0.4c0.4-0.6,0.7-1.1,1.1-1.6C878.5,339.9,878.5,340.3,878.4,340.7z" />
	<path fill="#998D7A" d="M870.6,347.2c-0.1-0.9,0.3-1.3,1.2-1.1C871.4,346.5,871,346.9,870.6,347.2z" />
	<path fill="#F6D9C7" d="M836.7,439.7c-0.1,0.3-0.1,0.6-0.1,0.9c-0.7,0-1.5-0.1-2.3-0.1c-1.7-2-3.5-0.2-5.4,0.1   c2.3,5.1,7.6,1.9,11.5,2.7c1.8,1.9,3.3,3.5,4.8,5.1c-0.6,1.3-1.2,2.8-1.9,4.3c0.8,2,1.5,3.8,2,5c-4.3,5.5-5.3,10.6-10,15.8   c-7.4-0.9-15.9,1.8-22.6-2c0.8-1.2,1.6-2.4,1.8-3.8c-3.9-0.8-10,1.4-15.2,5.6c-31.4,3.6-65,17.7-95.9,3.5   c-6.2-2.5-6.1-2.6-12.8-0.2c1.4,2.2,2.7,4.4,4.3,6.9c-1.5,0.1-2.7,0.3-3.9,0.4c-8.3-10.7-5.4-24.7-6.5-37.3   c-0.9-18-6.3-35.8-3.6-53.8c4.7-19.6,18.8-44.3,7.8-62.2c-2.3,1.7-0.9,5.2-1.6,8.1c-1.8-0.2-3.5-0.4-5.2-0.6   c-1.7-1.8-2.9-3.3-4.2-5.3c-1.6,1.7-0.2,2.3,0.5,3.2c-0.2,0.6-0.3,1.2-0.5,1.9c-1.2,0.2-2.4,0.4-3.9,0.6c-0.4,1-0.9,2.1-1.4,3.3   c-0.6,0.1-1.2,0.2-1.8,0.3c0.9-23.7,29-37.7,51.2-31.3c6.7,2.4,25,5.4,18.7,15.7c-0.9-0.4-1.9-0.8-3.2-1.3   c0.7,4.4,4.3,6.8,3.5,11.7c-9,7.3-10.1,21.4-17.3,30.4c-4.4,7.4-13.2,11.5-13.2,21.2c0.6,0.4,1.6,1,2.6,1.6   c2.2-0.5,4.2-1.6,6.2-0.7c4.7,20.5,1.4,41.6-0.6,62.1c-0.3,5.3-9.4,16.9,1.7,16.5c4.9-2.9,6.4-7.8,7.5-12.9   c31.7,2.4,68.7,12.7,90.5-17.7c5.2-0.2,14.8-7,17.3,0.8C835.9,438.6,836.3,439.1,836.7,439.7z M805.2,453.3   c3.4-0.6,3.4-0.6,5.5-3.4c1.1-0.6,1.8-1.2,0.3-2.7c0,1.2-0.1,2-0.1,2.8C808.1,449.5,806.7,451.1,805.2,453.3z M834.1,450.1   c3.6,3,3.6,3,6.5,1C840.6,448.6,836.4,450.7,834.1,450.1z M828.8,450.7c-2-1.5-2.5,0.6-4,0.9C827.1,453.4,827.7,451.7,828.8,450.7z    M837.7,461.3c0-0.3,0-0.5,0-0.8c-1.4,0-2.7,0-4.1,0c0,0.3,0,0.7,0,1C834.9,461.5,836.3,461.4,837.7,461.3z M832.3,450.7   c0.1-0.8-1-0.3-1.5-0.4c0,0.2,0,0.3,0,0.5C831.3,450.8,831.8,450.8,832.3,450.7z M829.6,462.1c-0.5-0.7-1-0.2-1.6,0   C828.6,462.9,829,462.7,829.6,462.1z" />
	<path fill="#FF9A77" d="M513,290.8c1.5,21.8,5.8,43.5,5,65.4c-13.9-2.3-26.9-0.7-40.7,0.2c-0.9-3.9-1.6-7.3-2.4-10.8   c-1,3.7-0.5,7.5-0.8,11.2c-3.9,1.1-4.1-18.1-8.5-22.1c-1.7,8.2,4.4,15,3.4,23.4c-5.1,3.2-10,3.2-15.1,0.3c-0.4,0.9-0.8,1.9-1.2,2.8   c-14,1.5-26.7,7.1-39.6,12.2c-3.7-23.9-10.1-48.9-10.5-72.7c0.7-0.1,1.5-0.1,2.3-0.2c1.3,5.5,15.3-11.8,19.1-13.6   c20.6-16.3,51.3-11.4,73-0.5c2.3-2.8-3.1-3.7-4.6-5.2c0.3-0.7,1-1,1.5-1.5c5.5,0.9,8.5,6.9,14.3,7.6   C509.8,288.3,511.4,289.4,513,290.8z M445.1,322.4c4.3,1.2,9-1.1,13.6-1c7.7-0.8,18.3,3,22.4-6.3   C475.8,300.3,436,308.4,445.1,322.4z" />
	<path fill="#FFF0A7" d="M745.1,320.9c-31.6-43.6-118.1,13.1-60.8,49c-0.3,1.1-0.1,1.6-0.8,2.1c-3.5-0.9-7-2.5-10.5-0.2   c-14.8,2.4-27.6-8.8-38.7-16.8c1.3-4.9,8-4.1,9.6-8.8c-8.2-0.5-4.8-1.5-25.4,5.6c-2.7-28.3-4.9-55.7,4.5-83.4   c33.3-3.8,68.3-3.4,101,4.7c-2.9,1.9-6.4,1.9-8.1,5.2c8.9,18,29.7,26.6,33.5,46.8c-0.8,1.7-1.9,3.8-3,6.1c-0.7-2.7-1.2-5.1-1.8-7.5   C744.8,322.6,745,321.6,745.1,320.9z" />
	<path fill="#F6D9C7" d="M576.1,354.7c-7.6-3.6-13.5,3.5-21,1c5.9-4.4,13.3-10.7,14.6-17.2c-16.9,3.1-28,20.8-46.1,19.2   c-1.5-21.8-5.2-43.9-7.4-66.1c0.8,0,1.6-0.1,2.4-0.1c0.1,0.6,0.2,1.3,0.3,2c4.3,1.4,8.3-0.8,12.5-0.8c1.6,0.2,3.1,0.5,4.1-1.2   c4.9-0.9,9.5-1.9,14.7-1.4c0.1-0.2,0.1-0.5,0.1-0.7c-2.4-0.3-4.7-0.8-7-1.6c26-3.2,50.9-13,76.2-18.3c-10.2,26.6-6.7,55-6.2,83   C600.7,351.2,588.3,359.1,576.1,354.7z M575.7,325.5c2.7,2.4,3.2-1.2,3.9-2.9c2.7-1.4-0.5-4.2,0,0   C578.3,323.6,577.1,324.5,575.7,325.5z M597.2,317.1c-2.8-2.8-3.6,3.2-4.7,4.9c1.9,0.2,2.4-0.8,2.8-1.9   C595.9,319.1,596.6,318.1,597.2,317.1z M605.2,304.2c-3.9,2.5-5.2,5.8-6.2,9.2c-0.2,0.3-0.5,0.4-0.9,0.5c0.2,0.2,0.3,0.3,0.5,0.5   c0.1-0.4,0.3-0.7,0.4-1C602.5,311.6,606,308.7,605.2,304.2z M589,310.7c-4.4,0.4-7.3,2.2-6.6,6.9   C584.9,315.8,586.7,313.9,589,310.7z M593.3,324.5c-1.6,0.6-2.5,1.3-1.4,3.1C593,326.8,594.5,326.4,593.3,324.5z M578.6,284   c1.9,1.4,2.7-0.2,0.9-1.7C579.1,283.1,578.8,283.5,578.6,284z M562.9,286.9c-2.3-0.6-3.5-1.4-4.3,1.9   C560.2,288.1,561.1,287.7,562.9,286.9z M569.8,285.8c0.6,0.1,1.1,0.6,1.5-0.1c-0.3-0.2-0.5-0.4-0.8-0.6   C570.3,285.3,570,285.5,569.8,285.8z M590.8,331h-0.5l0.3,0.4L590.8,331z" />
	<path fill="#F6D9C7" d="M810.4,355.5c-0.8,1.4-1.5,2.8-2.2,4.2c-1.4,0.6-2.7,1.3-4,1.9c-0.1-0.1-0.5-0.1-0.7,0   c-1.4-2.7-2.8-5.3-4-8c-5.1-2.3-0.4,4.2-0.8,7c-5,0.3-8.1-2.9-12.7-0.9c-1.9,0.7-3.7,0.7-5.8-0.7c-0.6-4.3-0.8-8.6-1.7-12.8   c7.3-12.5,0.8-33.6,19-38.2c-11.6-2.2-22.5,10.9-29.4,19.7c-4.6,0.4-9.7,0.8-15,1.2c-3.3-5.4,3.2-10.5,1.8-16.1   c-2.2,0.9-2.6,2.2-2.5,3.7l-0.2-0.1c-0.8,0.4-1.6,0.9-2.4,1.3c-4.1-17-22.3-22.9-29.9-37.9c3.7-2,7.2-3.4,11.2-3.3   c7.5,5.9,17.6,6.4,25.1,12.4c2.7,2.1,5.9,1.4,8.9,1.8c-1,0.5-2.1,1.1-3.2,1.7c2.9,2.6,2.9,2.6,5.2-0.2c2.3-1.5,5.3,0.5,7.4-1.6   c5.1,0.3,9.6-2.7,14.3-2.8l0,0c0,1.5,0.1,2.9,0.2,4.4c2.9,1.4,8.7,0.5,8.8,4.5c-2.2,3.4,3.3,7,6.2,4.9c0.2-2.6-2.3-1.7-3.1-3.5   c1.7-0.4,3.2-0.9,4.8-1.4c0.1,1.1-0.3,2.5,1.5,2.7c3,2.4,3,2.4,5.2,0.3c1.3,0.6,2.6,1.2,4.1,1.9c1.3-0.4,2.8-2.7,3.8-0.9   c-0.5,1.3-1,2.7-1.7,4.4c2.3,1.1,4,2.2,6.4,2.2c3.2,2.9,3,4.6,7.2,2.4c2.6,0.3,4.3,3.6,7.4,2.5c2.3-0.1,3.5,1.4,5.7,2.6   c0.4-1,0.6-1.7,0.9-2.4c0.3,0.2,0.5,0.2,0.8,0.2c2.1,1.3,3.5,2.4,5.9,4.1c0.2-2.4-2.5-3.9-0.5-5.7c0.9,0.5,1.7,0.9,2.6,1.4v-0.1   c-0.4,0.9,0.4,1.5,0.7,2.2c0.2-0.3,0.4-0.6,0.6-0.9l0,0c0.3,0.1,0.7,0.2,1,0.3c0.9,2.9,3.9,4.9,3.1,8.5c2.9,3,3.4,6.9,6.5,9.4   c-0.3,3.9-0.2,4.1,2.4,5.2l-0.1-0.1c-1,1.2-0.1,2.6,0.2,3.9c-0.2,0.4-0.5,0.8-0.7,1.2c-1.4,0.6-0.7,1.7-0.8,2.7   c-7.8,5.1-17,7-25.8,10.8c-9.4-4.4-20.3,5.4-25,12.4C811.9,365.4,813.5,358.2,810.4,355.5z M828.5,336.9c-1.8,1.7-0.3,2.8,0.4,3.9   c-3.6-0.3-2.3,4.4-4,6.8c4.5,0.7,8.3,0.2,11.5,3.8c0.7-3.2-1.8-6.7-3.6-9.3C831.4,340.4,830,338.6,828.5,336.9z M786,291.9   c-5.7,1.7-9.7,0.2-15.2,1.3c0.3,2.9,2.4,1.9,3.8,2C778.7,295.6,783.1,295.6,786,291.9z M844.2,352.6c4.2-3.9-0.5-11.5-2.9-16.4   c-1.7,5.2,1.5,7.6,2.1,12.3C843.1,350,843,351.4,844.2,352.6z M754.7,305.1c-0.3,0-0.5,0-0.8,0c0,0.9,0,1.8,0,2.7   c0.3,0,0.5,0,0.8,0C754.7,306.9,754.7,306,754.7,305.1z" />
	<path fill="#EF8A6A" d="M518.6,369.7c-16.1,5.2-33.5,3.8-50.3,6.4c-16.8,3.3-31.8,13.1-48.6,16.1c-4-6.2-6.2-12.8-6.4-18.9   c12.9-5.1,25.6-10.8,39.6-12.2c0.4-0.9,0.8-1.9,1.2-2.8c5.1,2.9,10,2.9,15.1-0.3c1-8.4-5.1-15.2-3.4-23.4   c4.3,3.9,4.6,23.2,8.5,22.1c0.2-3.7-0.2-7.5,0.8-11.2c0.8,3.5,1.5,7,2.4,10.8c13.8-0.9,26.8-2.5,40.7-0.2c0.2-3.7,0.3-7.1,0.5-10.5   C520.1,352.7,520.6,362.8,518.6,369.7z" />
	<path fill="#E1C7B6" d="M614.5,367.1c-6.8,1.6-23.1,1.4-32.4-0.4c0-0.3,0-0.7,0.1-1c3.9-1.4,8-2.1,12-3c-4.6-2.1-8.9,0.5-13.3,0.3   c-1.6,0.5-9.5-0.8-7.9,1.2c0,0.8,0,1.6,0,2.4c-16.8,2.5-33.4,1.2-50.3,1c0.3-3.6,0.6-6.8,0.9-10c18.1,1.7,29.2-16.1,46.1-19.2   c-1.4,6.6-8.8,12.8-14.6,17.2c7.5,2.6,13.4-4.5,21-1c12.3,4.5,24.6-3.4,37.2-2.1C613.7,357.4,614.1,362.2,614.5,367.1z    M570.2,363.9c-1.7-1.5-2.8-0.9-3.8,0.2c-1.1,0.2-2.3,0.4-3.4,0.6c0.1,0.2,0.1,0.4,0.1,0.6c1.5,0,3.1,0,4.6,0   C568.5,364.9,569.3,364.4,570.2,363.9z" />
	<path fill="#EBDA8F" d="M680.3,383.4c-15.8,6.5-39.9,2.9-49-12.5c-1.9-6.6-8-5.1-13.8-4.2c-1.7-10.7,0.5-21-0.2-31.2   c2.9,4.4,0.5,11,1.3,16.3c20.6-7.2,17.2-6.2,25.4-5.6c-1.7,4.8-8.3,3.9-9.6,8.8c11.1,8.1,23.9,19.2,38.7,16.8   c3.5-2.3,7-0.7,10.5,0.2C682.5,375.9,681.4,379.8,680.3,383.4z" />
	<path fill="#DCC3B2" d="M679.7,335.6c0.7,0.8,1.4,1.5,2.2,2.4c1.7,0.2,3.4,0.4,5.2,0.6c0.7-2.9-0.7-6.4,1.6-8.1   c0.5,0.3,1,0.7,1.5,1c-3.7,2.6-0.4,8.4-1.4,13c-1.8-1.2-3.3-2.2-5.4-3.6c0.5,4,3,5.4,5.3,7.4c0.1,5.7-0.8,11.8-3.3,17.2   C675,361,670.5,353,670.6,342c0.6-0.1,1.2-0.2,1.8-0.3c0.5-1.2,1-2.3,1.4-3.3c1.5-0.2,2.7-0.4,3.9-0.6c0.2-0.7,0.3-1.3,0.5-1.9   C678.7,335.8,679.2,335.7,679.7,335.6z" />
	<path fill="#181412" d="M690.1,333.9c0.3,0.2,0.7,0.4,1,0.6c0.2,8.2,1.4,16.9-1,24.7c-0.1-1.9,0.1-3.9-1.4-5.4c0-1.9,0-3.8,0-5.4   c-2.3-2.1-4.8-3.5-5.3-7.4c2.1,1.4,3.6,2.4,5.4,3.6c0-3.4,0-6.2,0-9C689.2,335.1,689.7,334.5,690.1,333.9z" />
	<path fill="#8B9286" d="M517.7,290.2c7.3,0.5,14.4-1.1,21.6-1.6c0.5,0.5,0.9,1,1.4,1.5c-3.6,3.4-6-1.8-9.2,1.4   c-5.2,0-10.3-0.2-15.4,0.1C516.1,290.5,516.8,290.1,517.7,290.2z" />
	<path fill="#6E3530" d="M550.2,289.4c-0.1,0.2-0.1,0.5-0.1,0.7c-3.1,0-6.3,0-9.4,0c-0.5-0.5-0.9-1-1.4-1.5   C542.3,285.7,546.6,289.6,550.2,289.4z" />
	<path fill="#B09E91" d="M573.1,366.7c0-0.8,0-1.6,0-2.4c3.3-0.3,5.7,2.1,9.2,1.4c-0.1,0.3-0.1,0.7-0.1,1   C579.1,366.7,576.1,366.6,573.1,366.7z" />
	<path fill="#E1C7B6" d="M522.5,344.7c2.3,3,0.7,7.2,1,10.8C522.2,352,522.4,348.4,522.5,344.7z" />
	<path fill="#322A27" d="M749.6,321.3L749.6,321.3c0.1-0.5,0.1-1,0.2-1.5c2-0.4,2.4-1.9,2.4-3.7c1.6,0.4,1.3,1.7,1.6,2.8   c-0.4,0.8-0.8,1.7-1.2,2.5C751.6,321.4,750.7,321.4,749.6,321.3z" />
	<path fill="#B8A597" d="M740.7,327.7l-0.1,0.1c0.9,0.2,1.8-1.5,2.8,0c-0.1,1.6-0.1,3.2-0.2,5c-0.9-0.6-1.2-0.8-1.5-1   C741.4,330.5,741,329.1,740.7,327.7z" />
	<path fill="#B4998C" d="M740.6,328l0.1-0.1c-0.5,0.4-1.1,0.9-1.6,1.4c-1.3-1-1.8-2.2-1.8-4.1c1.3,0.5,2.2,0.9,3.2,1.3   C740.5,326.9,740.5,327.4,740.6,328z" />
	<path fill="#C9A99B" d="M749.8,317.4c0.8-0.4,1.6-0.9,2.4-1.3c0,1.8-0.4,3.2-2.4,3.7C749.8,319,749.8,318.2,749.8,317.4z" />
	<path fill="#DCC3B2" d="M671.8,334.3c-0.3,1.7,0.9,3.8-1.2,5.2C670.3,337.6,670.2,335.8,671.8,334.3z" />
	<path fill="#F6D9C7" d="M398.6,304.5c0.9,10.6,2,21.1,3.4,31.4c-0.9,0.7-1.5,1.1-2.3,1.7c1.2,0.5,2.1,0.8,3.2,1.2   c2.4,11.8,6.2,23.3,6.7,35.4c-21.4,8-48.5,3.6-71.2,3.2c-26.8,1.4-54.5-4.8-80-9.6c-0.1-0.7-0.3-1.4-0.6-2.4c-3.1,0-6.4,0-9.5-0.1   c-1.2,0.8-2.5,1.5-4.1,2.5c6,5.2,13.7,3.4,19.8,8l0,0c-3.5,2.8,2.4,2.9,4,1.3c-0.1,0.4-0.1,0.8-0.1,1.2c-5.1,2.4-15.6,2.1-20.8,0.3   c0.3-0.2,0.7-0.3,1.1-0.3c0.9-1.1,1.7-2.2,2.9-3.7c-24.1-5.3-48.3,7.9-73.2,3.7c-37.8-3.1-77.9-14.7-115.3-3.7   c-16.5-2.3-17.8-14.7-8.6-26.4c5.5-4.2,10.8-1.9,16.8-0.8c29.2,1.6,56.1-12.7,84.6-16.6c38-5.6,76.4,7.3,113.8-0.2   C312.7,324.2,355.5,313.9,398.6,304.5z M158.7,355.2c-0.4,0.4-0.8,0.8-1.2,1.3c19.8,3.5,40.5-0.8,60.5-3.3   c-2.4-1.4-5.6-2.2-6.9-4.4c-2.3,1-5.1,0.4-7.1,2.3c-5.3,1.1-12.1-1.2-16.7,1.1C177.6,352.4,168.2,354.1,158.7,355.2z M281.6,361   c7.5,1.3,12.7-0.1,18.9-2.7c-2.4-1-4.2-0.6-5.8,0.4C289.8,359,286.1,358,281.6,361z M60.4,366.4c7.2-1.7,16.4-1.7,19.6-5.4   c-7.1-1.6-14.9-0.2-21.3,0.6c-0.5-0.9-0.9-1.8-1.4-2.7c3.4,0.6,6.1-0.9,9.1-3.1c-3.3-0.7-5.6,0.9-8.4,0.5c-0.3,1.3-0.4,2-0.6,2.8   C52.7,360.7,55.8,367.7,60.4,366.4z M252.6,353.2c4.5,0.1,8.3-2,12.8-3.8c-3.9-1.3-9.4,0-13.2,2.2   C252.3,352.1,252.4,352.5,252.6,353.2z M305,356.7c2.1,1.1,2.1,1.1,7.6-1.6C309,354.9,306.7,354.5,305,356.7z M69,354.1   c0.3,0.8,0.5,1.4,0.8,2.2c1.4-0.5,2.7-0.9,4-1.3c-0.1-0.4-0.2-0.7-0.3-1C72.1,354,70.7,354,69,354.1z M273.8,346.3   c-1.6-0.8-1.6-0.9-4.5,0.6C271,347.9,272.4,347.5,273.8,346.3z M324.3,353c-3.8-0.1-3.7-1.3-4.4,2.6   C321.6,354.6,322.4,354.2,324.3,353z M83.6,354.3c-2.6-0.7-2.7-0.8-5.3-0.1C80.3,355.9,81.6,356.6,83.6,354.3z M390.1,340.1   c0.1,0.3,0.2,0.7,0.3,1.1c0.7-0.2,1.3-0.5,2-0.7c0-0.3-0.1-0.5-0.2-0.8C391.5,339.8,390.8,340,390.1,340.1z M330.9,351.7   c-0.4-0.7-1-0.2-1.6,0C329.9,352.5,330.3,352.3,330.9,351.7z M281.4,342.6c-0.4-0.5-0.9-0.1-1.4,0.1   C280.6,343.2,280.9,343.4,281.4,342.6z M288,339.9c-0.5-0.6-1-0.1-1.5,0.1C287.1,340.6,287.5,340.8,288,339.9z M87.5,353.4   c0.6,1,1.5,0,2.7-0.2C88.8,352.9,87.9,351.9,87.5,353.4z" />
	<path fill="#E1C7B6" d="M244,367.8c1.7-1,2.9-1.8,4.1-2.5c0.2,2.1,4.8,2,5.2,0.1c1.5,0,3,0,4.4,0c0.2,1,0.4,1.7,0.6,2.4   c25.5,4.8,53.2,11,80,9.6c22.8,0.4,49.9,4.8,71.2-3.2c2,6.1,3.9,12.1,5.9,18.5c-54.4,5.1-107.6-6.1-161-7.5   c-0.8-1.8-3.3-5.7-4.2-2.2c0.6,0.6,1.1,1.2,1.8,2c-3.8,0-7,0-10.2,0c-1.7-2.4-4.9-1.7-6.7-4.2c1.6-1,2.8-1.7,4-2.5c1.2,0,2.4,0,4,0   c-1.8-1.2-1.8-1.2-3.9,0.1c-1.2-0.4-2.4-0.7-3.3-1c-56.6,18.4-116-7.3-173.4-2.8c37.4-11,77.5,0.5,115.3,3.7   c24.9,4.2,49.1-9,73.2-3.7c-1.2,1.5-2.1,2.6-2.9,3.7c-0.3-1-0.8-1.2-1.8-1c1.2,4,18.7,3.1,21.5,1c2.9,1,5.6,2.8,8.7,2.8   c1.5,1.5,3.2,1.7,6,0.6c-5.4-1.3-9.3-3.6-14.6-4.5c-0.9,0.4-1.9,0.8-2.8,1.2C262.4,370.4,249.9,374,244,367.8z" />
	<path fill="#F2D7C5" d="M279.5,326.3c-38,8.2-78.5-0.1-116.8-1l-0.1-0.2c33.5-9.8,66.5-3.8,100,0   C268.1,325.6,274.5,323.6,279.5,326.3z" />
	<path fill="#E0CDBC" d="M318.5,316.4c27.4-7.4,52.7-13.2,81.4-15.6c-25.1,9.5-52.7,9.6-78.7,16.8   C320.3,317.2,319.5,316.8,318.5,316.4z" />
	<path fill="#CF8668" d="M440.5,274.8c0-0.5,0-1,0-1.5c16.8-5.6,37.4-0.3,53.4,6.4c-0.4,0.3-0.9,0.7-1.3,1.1   C476,275.2,458.1,271.7,440.5,274.8z" />
	<path fill="#ACA093" d="M297.4,322.5c-0.4-0.5-0.9-0.9-1.4-1.4c7-2.7,15.1-2.9,22.5-4.7c0.9,0.4,1.8,0.8,2.7,1.2   C313.9,320.3,305.3,320.6,297.4,322.5z" />
	<path fill="#C2BDAE" d="M293.7,321.4c0.5,0.5,0.9,0.9,1.4,1.3c-5.1,1.8-10.3,3.1-15.7,3.6c-1.6-1.3-3.5-1.2-5.5-1.3   C280.4,323.3,287.2,322.7,293.7,321.4z" />
	<path fill="#8D5A45" d="M426.2,280.9c-0.5-0.4-0.9-0.9-1.4-1.3c4.7-3.6,10.3-4.8,15.8-6.3c0,0.5,0,1,0,1.5   C435.8,276.9,431,278.9,426.2,280.9z" />
	<path fill="#3F271F" d="M492.4,281.1c1.5,1.5,6.9,2.5,4.6,5.2c-2.2-0.8-4.2-2.2-6.1-3.7C491.4,282.1,492,281.6,492.4,281.1z" />
	<path fill="#563227" d="M422.4,283.7c-1.1,1.6-2.6,2.2-6,2.6c2.3-2,3.4-3,4.6-4C421.5,282.8,422,283.3,422.4,283.7z" />
	<path fill="#CA795D" d="M424.8,279.6c0.5,0.4,0.9,0.9,1.4,1.3c-1.3,0.9-2.5,1.9-3.8,2.8c-0.5-0.4-0.9-0.9-1.4-1.4   C422.3,281.4,423.5,280.5,424.8,279.6z" />
	<path fill="#D6D4C3" d="M296.2,321.1c0.4,0.5,0.9,0.9,1.4,1.4c-0.8,0.1-1.6,0.2-2.4,0.3c-0.5-0.5-0.9-0.9-1.4-1.3   C294.6,321.3,295.3,321.2,296.2,321.1z" />
	<path fill="#271E1E" d="M506.5,373.1c1-0.3,1.9-0.5,2.9-0.8C508.7,373.5,507.6,373.3,506.5,373.1z" />
	<path fill="#F7EFD0" d="M61.5,339.7c-11.4,5.7-24.4,22.5-11.8,32.9c7.2,5.2,22.6,5.5,29.9,8.4c-3.3,5.2-9.2,9.3-10.4,15.6   c-1.4,0.6-2.7,1.2-3.9,1.8c-1,6,7.1,2.2,10.4,2.4c0.3,1.3,0.6,2.5,1,3.9c-3,0.2-5.8-0.2-8.5,1.8c3.9,3.4,1.4,7.9,2.3,12   c1.4,2,4.3,4.4,1.2,6.7l0,0c-0.3-1.1-0.7-1.3-1.3-0.2c-3.9,2.3,1.7,4.9,4.1,5.3c2.1,4.2,4.3,8.3,7.8,11.5   c-1.5,3.6-3.1,7.4-5.6,10.4c-24.6,2.4-53.9-21-51.6-46.5c1.7-2.1,3.4-4.3,5-6.3C18.2,376.6,4,389.5,6.3,353.3   c-1.8-2.5-0.9-4.8,0.3-7.6c15.4-3.7,31.5-3.5,46.9-6.1C56.5,339.1,58.4,338,61.5,339.7z" />
	<path fill="#E7D9B5" d="M84.4,381.3c0.8,5.4-3.3,11.9-7.1,15.4c-3.2,0-5.7,0-8.2,0c1.1-6.3,7-10.4,10.4-15.6   C81.1,381.1,82.7,381.2,84.4,381.3z" />
	<path fill="#7B655D" d="M154.3,327.3c4.9-2.5,8.6-1.8,13.6-0.6C163.5,328.6,158.9,327.8,154.3,327.3z" />
	<path fill="#799185" d="M98.8,342.1c-3.3-0.6-6.3,2.1-9.9,0.8c3.3-1.9,6.6-2.4,10-2.1C99,341.2,98.9,341.6,98.8,342.1z" />
	<path fill="#3A3732" d="M104.6,340.6c-1.9,0.4-3.9,0.9-5.8,1.4c0.1-0.4,0.2-0.8,0.1-1.2C100.6,338.6,102.6,339.5,104.6,340.6z" />
	<path fill="#E1C6B5" d="M693,488.4c-0.8-1.7-1.4-3.2-2.1-4.7c1.2-0.1,2.4-0.2,3.9-0.4c-1.6-2.6-2.9-4.7-4.3-6.9   c6.7-2.4,6.7-2.3,12.8,0.2c30.9,14.3,64.6,0.2,95.9-3.4c5.1-4.2,11.2-6.4,15.2-5.6c-0.2,1.5-1,2.6-1.8,3.8c6.1,3.7,13.7,1.2,20.5,2   C786,480.4,740.6,489.5,693,488.4z" />
	<path fill="#96857A" d="M679.4,426.8c-0.6,4.2,5.3,19.1,0.3,19.6c0.2-5.9-1.9-11.4-1.6-17.2C678.5,428.4,678.9,427.6,679.4,426.8z" />
	<path fill="#504842" d="M678,416.8c0.4,3.4,0.9,6.7,1.3,10c-0.4,0.8-0.8,1.6-1.2,2.4C676.1,425.2,677.1,421,678,416.8z" />
	<path fill="#E9DBB6" d="M84.5,443.8c-1.3,4.9-2.5,9.4-3.7,14.2c-15,13.1-57.5-19.7-54.7-38c9.9,17.9,28.5,34.8,50.5,32.2   c2.5-3,4.1-6.8,5.6-10.4C83,442.5,83.8,443.1,84.5,443.8z" />
	<path fill="#E7DFC1" d="M86.1,451.2c0.4-3.2,0.8-6,1.2-8.8c-7.5-5.3-12.1-13.9-10.2-23.3c0.5-0.3,0.9-0.7,1.6-1.3   c5.2,27.7,19.7,10,10.9,32.9C88.6,450.9,87.6,451.1,86.1,451.2z" />
	<path fill="#DCD3B0" d="M76.6,408.9c0.5,2,0.4,3.9-1.2,5.7c-1.7,0.1-3.3,0.3-5,0.4c0-1.8-0.1-3.5-0.1-5.3   C72.4,409.4,74.4,409.2,76.6,408.9z" />
	<path fill="#CEC9A8" d="M72.4,428.2c-0.4-1.3-0.6-2-0.8-2.8c3-2.2,0.2-4.8-1.2-6.7c1.4,0.1,2.8,0.2,4.8,0.4   c-1.6,3.9-0.8,7.6-0.8,11.3c-2-0.6-3.9-1.1-5.3-2.7C70.1,427.8,71.1,427.9,72.4,428.2z" />
	<path fill="#E0C6B5" d="M728.7,379.9c-0.4,26.1-3.9,51.7-5.3,78c1.3-1.8,1.9-2.6,2.6-3.5c0.5,0.3,1.1,0.5,1.7,0.7   c-1.1,5.1-2.6,10-7.5,12.9c-11.1,0.4-2.1-11.2-1.7-16.5c2-20.5,5.3-41.6,0.6-62.1c-2.1-0.8-4,0.3-6.2,0.7c-0.9-0.6-2-1.2-2.6-1.6   c0-9.7,8.8-13.8,13.2-21.2c7.2-9.1,8.4-23.2,17.3-30.4C746.1,352.7,731.6,365.2,728.7,379.9z" />
	<path fill="#F5D8C7" d="M825.6,431c0.1,0.6,0.3,1.4,0.4,2.2c-12.5-2.3-18.3,11.5-26.4,18.5c-2.4,0.3-4.5,0.6-6.6,0.9   c-1-0.4-2-0.9-3-1.3c1.9-1.1,5.1-0.4,5.9-2.7c-5.3,0.2-11.3-1.3-16.3,1.2l0,0c-16.2-3.3-34,0.4-50.5-5.6c2.1-5.1,1.2-11.3,4-15.3   c26,2.5,57.6,23.9,80.4,2.9C817.5,431.6,821.4,431.4,825.6,431z M799.3,446.7c0.3,0,0.6,0,0.9,0c0-1,0-2.1,0-3.1   c-0.3,0-0.6,0-0.9,0C799.3,444.6,799.3,445.6,799.3,446.7z" />
	<path fill="#E0C5B4" d="M784.8,451c3.4,0.3,5.4,0.3,8.1,1.8c-22.7,7.5-45.9-0.8-69-1.1c0.5-6.1-1.7-13,1-18.6   c0.5,5.3-1.1,10.6,0.3,16.6c3.5-7.1,3.2-14.5,5.4-21.7c0.9,0.4,1.7,0.7,2.4,1c-2.8,4-1.9,10.1-4,15.3c16.5,6,34.3,2.3,50.5,5.6   c-0.7,0.2-1.4,0.3-2.4,0.4c1.3,1.2,1.9,0.7,2.4-0.4c2.5-1.8,5.2-1.4,8-1.2C786.8,449.4,786,450,784.8,451z" />
	<path fill="#D5BFA0" d="M862.5,322.2c2.2-5.3,2.6-10.9,2.9-16.6c2.5-2,0.9-5.6,1.3-8.8c-2.3,2-0.2,4.9-2.6,6.2   c-0.4-5.4,1.7-10.4,0.1-15.8c0.9,0.8,1.7,3.5,2.7,1.4c2.6,2.9,5.9,13.7,8.8,13.1c6.3,10.6,1.7,25.9-5.3,34.9l0,0   c-0.5,0.1-0.9,0.1-1.3,0.2l0.1,0.1c1.7-3.8,1.6-7.7,1.4-11.7c0.9-0.5,0.9-1-0.1-1.4c0-0.4-0.1-0.8-0.2-1.2c0.2-1.2,0.2-2.3-1.2-2.7   c0-1.4,0-2.9,0-4.7c-2.5,2.1-2.5,4.6-2.9,7c-0.6,0.8-1.2,1.5-2.1,2.6c1.1,0.2,1.8,0.3,2.5,0.4c-0.4,1.7-2.4,3-1.1,5   c-2.2-1.6-2.6-5.8-5.2-7.9C861,322.3,861.6,322.3,862.5,322.2z M871,317.3c4.1-2.4,1.8-9.5,0.9-13.7C870,308,870.4,312.4,871,317.3   z M869.1,296.1c-0.3,0-0.5,0-0.7,0c-0.2,1.2-0.3,2.3-0.4,3.5c0.3-0.1,0.7-0.1,1-0.1C869,298.4,869,297.3,869.1,296.1z" />
	<path fill="#998D7A" d="M868.5,348.8c2.1,7.4,5.7,14.4,7.3,21.9c-2.6-4.4-5.1-8.8-7.7-13.2C868.1,354.8,864.7,350,868.5,348.8z" />
	<path fill="#AE9E85" d="M879.3,356.4c-3-3.9-4-7.8-5-11.7c0.9-1.2,1.9-2.4,2.9-3.6c0.4-0.1,0.7-0.2,1.1-0.3   C877.8,346.5,879.9,350.6,879.3,356.4z" />
	<path fill="#A29179" d="M863.8,352.1c0.1,1.8,0.2,3.7,0.3,5.5c-0.4,0.4-0.7,0.9-1.1,1.3C862.9,356.6,862.1,354.3,863.8,352.1z" />
	<path fill="#352E27" d="M875.7,336.9c0,1.5-0.3,2.8-2.1,3.4C873.1,338.2,874.4,337.6,875.7,336.9L875.7,336.9z" />
	<path fill="#352E27" d="M867.9,344.7c0.1-0.9-0.6-2.1,0.8-2.7C871.2,342.3,869.3,344.3,867.9,344.7z" />
	<path fill="#999A83" d="M859.9,352.9c0.9,3.6-1.7,3.4-0.7,0C859.4,352.9,859.6,352.9,859.9,352.9z" />
	<path fill="#352E27" d="M874.5,330.4c0.4-0.9,0.8-1.8,1.2-2.7C875.8,328.9,875.8,329.9,874.5,330.4z" />
	<path fill="#352E27" d="M870.4,336.7c0.4-0.4,0.9-0.9,1.3-1.4C871.2,335.8,870.8,336.3,870.4,336.7z" />
	<path fill="#352E27" d="M872.2,334.3c0.3-0.4,0.6-0.9,0.9-1.3C872.8,333.5,872.5,333.9,872.2,334.3z" />
	<path fill="#352E27" d="M873.2,333c0.3-0.5,0.7-1.1,1-1.7C873.8,331.9,873.5,332.4,873.2,333z" />
	<path fill="#352E27" d="M876,326.5c0.3-0.6,0.5-1.1,0.8-1.7C876.5,325.4,876.3,326,876,326.5z" />
	<path fill="#352E27" d="M870.2,340.1c-0.3,0.2-0.5,0.5-0.8,0.8c-0.2-0.5-0.3-0.9-0.4-1.3C869.4,339.7,869.8,339.8,870.2,340.1z" />
	<path fill="#352E27" d="M868.8,338.1c-0.1-0.5,0-0.9,0.3-1.2c0.5-0.1,0.9-0.2,1.3-0.2C869.9,337.2,869.3,337.6,868.8,338.1z" />
	<path fill="#E1C6B5" d="M781,327.8c1-0.5,1.7-0.9,2.4-1.2c-0.8,6.4-2.2,14-5.1,19.6c0.8-15.2-18.9-9.4-28.7-11.7   c0.7-3.9,1.8-7.6,1.6-11.6c0.3,0,0.8,0,1.1,0c0.3,2-0.7,4.2,0.7,5.8c5.3-0.4,10.4-0.8,15-1.2c5.9-6.6,10.9-15.5,19.6-17.7   C783.2,314.7,780.8,320.3,781,327.8z" />
	<path fill="#3E322E" d="M741.8,331.8c-0.5,0-0.9-0.1-1.3-0.1c-0.5-0.8-0.9-1.7-1.4-2.5c0.5-0.4,1.1-0.9,1.6-1.4   C741,329.1,741.4,330.5,741.8,331.8z" />
	<path fill="#050303" d="M749.7,321.4c1,0,1.9,0,2.9,0c0,0.5-0.1,0.9-0.2,1.4c-0.3,0-0.8,0-1.1,0   C750.7,322.3,750.2,321.8,749.7,321.4z" />
	<path fill="#F1DCBC" d="M819.7,277.2c-2.6-1.2-5.3-0.4-7.9,0.1c2-2.6,4.7-4,7.6-5.5c-0.8-0.9-1.4-1.6-2.1-2.3   c1.2-1.5,2.4-2.9,4.1-5.1c-7.9,2.8-11.7,11.9-18.4,16.9c-0.5-0.9-0.9-1.8-1.3-2.7c8.9-13,21.6-19.6,37.3-20.5   c0.2,0.9,0.2,1.5,0.3,2.1C829.7,262,824.1,268.9,819.7,277.2z" />
	<path fill="#EAD8B9" d="M809,267.5c-4.3,4.9-9.3,9.2-11.2,15.6c-3.6,0.7-5.5,4.4-9.1,4.5l0,0c0-0.5,0-0.9,0-1.3   c4.7-3.2,6.4-8,8.5-13.2c3.5-2,7.2-4.2,10.9-6.4C808.4,267,808.7,267.2,809,267.5z" />
	<path fill="#676657" d="M814.6,264.3c-4.4,4.7-8.7,9.4-13,14.2c-0.4-0.4-0.9-0.9-1.4-1.4c2.9-3.2,5.8-6.4,8.7-9.6   c-0.2-0.3-0.5-0.5-0.8-0.8C810,265,812,263.7,814.6,264.3z" />
	<path fill="#9B8278" d="M774.5,290.3c-2.2,2.1-5.1,0.2-7.4,1.6c-2.3,2.8-2.3,2.8-5.2,0.2c1.1-0.6,2.1-1.1,3.2-1.7   C768.2,290.4,771.3,290.4,774.5,290.3z" />
	<path fill="#676657" d="M817.4,263.1c-0.9,0.4-1.8,0.8-2.7,1.2C815.1,262.8,816.2,262.8,817.4,263.1z" />
	<path fill="#CDBA9B" d="M793.9,281.1c-0.4,0.4-0.7,0.9-1,1.3C793.2,281.9,793.5,281.5,793.9,281.1z" />
	<path fill="#CDBA9B" d="M787.2,287.4c0.5-0.4,1-0.7,1.5-1.1c0,0.5,0,0.9,0,1.3C788.2,287.5,787.6,287.4,787.2,287.4z" />
	<path fill="#CDBA9B" d="M790,285.3c-0.4,0.3-0.8,0.6-1.2,0.9C789.2,285.9,789.6,285.6,790,285.3z" />
	<path fill="#110D0B" d="M860.2,261.4c2.9-0.5,0.8-4.8-1.3-5.1c0.1-1.8-0.8-2.6-2.5-2.7c-2.4-2.9-2.4,0.9-4,2.7   c0,1.2-0.1,2.4-1.5,2.8c-2.6-1.1-4.3-3.3-6.3-5.3c0.1-1,0-2.3,1.4-2.7l0,0c0.6,1.7,1.4,1.8,2.5,0.3c7-7.5,19.6,2.9,14.4,11.4   c-1,0.1-1.9,0.1-2.9,0.2C860.1,262.5,860.1,262,860.2,261.4z M848.8,254.5c0.3,0.2,0.7,0.3,1,0.5c0.4-0.4,0.7-0.7,1.1-1.1   c-0.1-0.3-0.3-0.7-0.5-1c-0.2,0.2-0.5,0.5-0.7,0.8C849.4,254,849.1,254.2,848.8,254.5z" />
	<path fill="#322721" d="M841.9,253.2c3.6-9.4,13.3-15.7,23.4-12.4l-0.1-0.1c0,0.9,0,1.8,0,2.7c-6.5-2.7-16.7,0.9-19.3,7.7   c-1.3,0.4-1.2,1.6-1.4,2.7C843.7,253.6,842.9,253.4,841.9,253.2z" />
	<path fill="#675749" d="M857,246c5.8,2.3,12.7,7.6,12.1,14.3l0.1-0.1c-2.2-1.8-3.6-7.4-6.5-6.5c-1.7-2.3-4.1-3.6-6.5-5.1   C856.5,247.8,856.8,247,857,246z" />
	<path fill="#675749" d="M869.3,260.2c1.2,2.7,1.2,2.7,0,6.7C869.3,264,869.3,262.1,869.3,260.2L869.3,260.2z" />
	<path fill="#322721" d="M848.4,251.4c-1,1.6-1.9,1.4-2.5-0.3C846.7,251.2,847.6,251.3,848.4,251.4z" />
	<path fill="#B3A98D" d="M866.6,243.5c-0.3,0-1-0.1-1.3-0.1c0-0.9,0-1.8,0-2.7C865.7,241.6,866.1,242.5,866.6,243.5z" />
	<path fill="#110D0B" d="M863.7,264.1c-0.3-0.5-0.6-0.9-0.9-1.4C863.1,263.2,863.4,263.7,863.7,264.1z" />
	<path fill="#CCB799" d="M866.5,275.8c1.3,0.7,3.6,3.3,4.3,0.9c7.6,12.6,12,27.9,13.9,42l0,0c-1.5,2.1-3,4.2-4.8,6.7   c0-2,0-3.4,0-4.9C885,304.5,871.2,290.4,866.5,275.8z" />
	<path fill="#504A40" d="M868.1,283.7c-3.6-6.8-7.7-13-11.9-19.4c0.4-0.5,0.9-0.9,1.3-1.4c0.8,0.1,1.7,0.1,2.5,0.2v0.1   c1,1.2,1.9,2.4,2.8,3.6c-0.4,0.1-0.7,0.3-1.5,0.7c3,5.3,6.4,10.3,8.3,16.2C869.1,283.6,868.6,283.6,868.1,283.7z" />
	<path fill="#DCCDAF" d="M861.3,267.4c0.8-0.3,1.1-0.5,1.5-0.7C876,280,868.6,282.3,861.3,267.4z" />
	<path fill="#352E27" d="M884.7,318.8c-1.9-3-0.6-7.1-1-10.5C885.8,311.4,884.4,315.3,884.7,318.8z" />
	<path fill="#CCB799" d="M870.2,275.9c-0.3-0.4-0.7-0.9-1-1.3C869.6,275,869.9,275.4,870.2,275.9z" />
	<path fill="#859480" d="M19.6,340.6c0.1-0.4,0.1-0.7,0.1-1.1c8.1-1.8,16.6-1.3,24.3-2.4c-5.6,5.2-14.3,0.4-20.8,3.5   C22,340.6,20.8,340.6,19.6,340.6z" />
	<path fill="#C3BEA5" d="M13.2,341.7c0.9-3.4,4-1.6,6.5-2.2c-0.1,0.4-0.1,0.7-0.1,1.1C17.7,340.9,15.7,341.2,13.2,341.7z" />
	<path fill="#221916" d="M40.8,337.1c-0.8,0.8-1.7,1.2-2.8,0.7C38.9,337.5,39.9,337.3,40.8,337.1z" />
	<path fill="#352825" d="M205.1,383.5c3.5-1.4,7.1-1.2,10.7-0.9C212.7,384.6,208.7,383.2,205.1,383.5z" />
	<path fill="#F9E2C2" d="M855.8,268.3c6.8,13.3,10.5,22,8.3,37.5c-3.4-2.9,0.4-8.6-2.9-12.2c-0.7-3.4,1.2-6.1-2.7-8.9   c-3,5.9,1.7,10.3,1.5,15.8c-0.4,0-0.8,0.1-1.2,0.1l0,0c-1.4-5.8-4.2-11.3-9.9-13.5c-1.5,1.9-0.9,5-3,6.9c1.2-9.5-4.1-17.4-4.3-26.8   c-0.2,0-0.4,0-0.6,0c-0.1,0.7-0.3,1.5-0.4,2.2l0,0c-4.7,4.1-3,11.2-7.4,15.4c-0.7-0.8-1.2-1.6-1.8-2.4c1-7.2,5.1-13.8,8-20.5   c1.9-1.3,2.6-3.1,2-5.5c-2-0.3-3.8-0.5-5.7-0.8c-1.1-10.3,18.5-27.8,27.2-17.5c-0.5,0.5-1.1,1.1-1.6,1.7c-9.3,0.3-15.9,5-19.3,13.5   c0.9,0.2,1.7,0.4,2.5,0.6l0,0c-0.3,6,9.7,2.5,14.8,15.5C857.9,269.4,857.2,269.1,855.8,268.3z M852.9,278.1   c3.8,0.5-0.3-14.2-2.7-14.9c-1.5,2.4,1.1,4,0.9,6.1C851.7,272.2,852.2,275,852.9,278.1z" />
	<path fill="#B3A98D" d="M865.4,240.8c-1.4-0.4-2.7-0.7-4.1-1.1c0.5-0.5,1.1-1.1,1.6-1.7C863.7,238.9,864.6,239.9,865.4,240.8z" />
	<path fill="#E8D9B5" d="M24.6,404.4c1.1-2.1,0.4-3.8-1.4-5c-7.3-5-10.1-13.4-13.8-21c6.2,7.5,18.4,11.1,20.6,21   c-1.6,2-3.3,4.2-5,6.3C24.9,405.3,24.8,404.9,24.6,404.4z" />
	<path fill="#0A0303" d="M797.9,356.3c-1.7-1.7-1.3-4.6,1.4-2.9C798.8,354.4,798.4,355.3,797.9,356.3z" />
	<path fill="#E1C6B5" d="M778.4,348.6c1.8,2,1,4.5,1,6.9C778.1,353.3,778.2,351,778.4,348.6z" />
	<path fill="#A2958A" d="M839.3,439.6c-0.4-1.2-2.3-3.4-0.1-3.8c1.1,1,1.8,2.2,1.5,3.8C840.2,439.5,839.7,439.5,839.3,439.6z" />
	<path fill="#A2958A" d="M839.4,439.4c-0.5,1.6-1.7,1.3-2.8,1.1c0-0.3,0-0.6,0.1-0.9C837.6,439.5,838.5,439.5,839.4,439.4z" />
	<path fill="#A2958A" d="M833,439.5c0.4,0.3,0.9,0.6,1.3,0.9C833.8,440.1,833.4,439.8,833,439.5z" />
	<path fill="#484136" d="M878.5,316.1c0-2.1,0-4.2,0-6.3c0.8,0,1.5,0,2.3,0c0,3.6,1,7.3-0.9,10.7   C879.3,319.1,880.3,317.2,878.5,316.1z" />
	<path fill="#948670" d="M875.8,373.1c0-0.9-0.1-1.7-0.1-2.5C877.2,371.8,877.2,372,875.8,373.1z" />
	<path fill="#1E1615" d="M799.7,452c8.1-7,13.8-20.8,26.4-18.5c0.1,0.6,0.2,1.3,0.3,2c-2.9,0.7-5.8,1.4-8.2,2   c-22.1,30.3-60.5,20.7-92.3,17c-0.7,0.9-1.3,1.7-2.6,3.5c0.4-3,0.5-4.6,0.7-6.3c23,0.3,46.3,8.6,69,1.1   C795.1,452.5,797.2,452.2,799.7,452z" />
	<path fill="#A2958A" d="M836.7,439.6c-0.4-0.5-0.8-0.9-1.2-1.4C835.9,438.6,836.3,439.1,836.7,439.6z" />
	<path fill="#1C1714" d="M832.9,273.4c0.7-2.3,1.4-4.5,2.5-7.7c-4.4,3.6-5.1,7.3-7.8,11.5c-0.5-0.5-0.9-0.9-1.4-1.4   c0-1.3,0.1-2.5,0.1-3.8c0.3-0.2,0.6-0.3,0.9-0.5c-0.9-1-0.7,0.2-0.9,0.5c-0.9,0.9-1.9,1.7-2.9,2.6c-0.4-0.5-0.7-1-1.1-1.5   c3.5-7.1,9.5-11.1,17-12.9c0.1,0.5,0.1,1.1,0.2,1.6c-1.8,3.8-3.6,7.6-5.4,11.4C833.7,273.3,833.3,273.3,832.9,273.4z" />
	<path fill="#2B1E1D" d="M744.1,487.3c2.3-0.3,4.6-0.6,6.9-0.9C749,488.5,746.5,487.4,744.1,487.3z" />
	<path fill="#2B1E1D" d="M754.5,486.1c1.7-1.3,3.7-1.2,5.6-1C758.5,487.1,756.5,486.1,754.5,486.1z" />
	<path fill="#DCC3B2" d="M691.3,355.1c0.1-6.1,0.1-12.1,0.1-18.2C693.3,341.7,693.3,350.3,691.3,355.1z" />
	<path fill="#807C72" d="M840.6,451.1c-2.9,2-2.9,2-6.5-1c1.7,0,2.9,0,4,0C838.6,451.4,839.6,451.1,840.6,451.1z" />
	<path fill="#1E1615" d="M810.8,449.9c-2.1,2.8-2.1,2.8-5.5,3.4c1.5-2.2,2.9-3.8,5.6-3.3L810.8,449.9z" />
	<path fill="#83635B" d="M828.8,450.7c-1,1-1.7,2.7-4,0.9C826.3,451.3,826.8,449.3,828.8,450.7z" />
	<path fill="#62524C" d="M833.6,460.4c1.4,0,2.7,0,4.1,0c0,0.3,0,0.5,0,0.8c-1.4,0.1-2.7,0.2-4.1,0.3   C833.6,461.2,833.6,460.9,833.6,460.4z" />
	<path fill="#514B45" d="M677.6,332.7c0.8,1,1.4,2,2.1,2.9c-0.5,0.1-1,0.2-1.5,0.3C677.5,335.1,676.1,334.4,677.6,332.7z" />
	<path fill="#DCC3B2" d="M689.8,331.9l0.3-0.3c1.2,0.7,1.3,1.8,1,3c-0.3-0.2-0.7-0.4-1-0.6C690,333.3,689.9,332.6,689.8,331.9z" />
	<path fill="#1E1615" d="M810.9,450c0-0.8,0-1.6,0.1-2.8c1.4,1.5,0.7,2.2-0.3,2.7L810.9,450z" />
	<path fill="#521D1B" d="M840.6,451.1c-1,0-2.1,0.3-2.5-1C839.1,450.1,840.5,449,840.6,451.1z" />
	<path fill="#BE9186" d="M830.8,450.3c0.5,0.1,1.6-0.4,1.5,0.4c-0.5,0-1,0.1-1.5,0.1C830.8,450.7,830.8,450.5,830.8,450.3z" />
	<path fill="#978F85" d="M829.6,462.1c-0.6,0.6-1,0.8-1.6,0C828.7,461.9,829.2,461.4,829.6,462.1z" />
	<path fill="#EF8A6A" d="M458.6,321.3c-4.6,0-9.3,2.3-13.6,1c-9-13.9,30.8-22,36.1-7.2C477,324.4,466.4,320.6,458.6,321.3z" />
	<path fill="#210404" d="M531.5,291.5c-0.1,0.3-0.1,0.8-0.2,1.2c-4.1,0.1-8.2,2.2-12.5,0.8c-0.1-0.8-0.2-1.4-0.3-2   C522.9,291.5,527.2,291.5,531.5,291.5L531.5,291.5z" />
	<path fill="#433632" d="M599,313.4c1.1-3.4,2.4-6.7,6.2-9.2C606,308.6,602.5,311.6,599,313.4L599,313.4z" />
	<path fill="#3B2D2A" d="M589,310.7c-2.3,3.2-4.1,5.1-6.6,6.9C581.7,312.9,584.6,311.1,589,310.7z" />
	<path fill="#43332F" d="M593.4,319.9c0.8-1.4,1.6-5.3,3.8-2.8c-0.6,1-1.3,2-1.9,3C594.6,320.1,594,320,593.4,319.9z" />
	<path fill="#A58F84" d="M579.6,322.6c-0.6,1.7-1.2,5.3-3.9,2.9C577.1,324.5,578.3,323.6,579.6,322.6L579.6,322.6z" />
	<path fill="#050303" d="M531.3,291.4l0.1,0.1c2.1-1.6,2.7-1.7,5-0.2C534.8,291.6,533.1,291.4,531.3,291.4z" />
	<path fill="#866F67" d="M593.3,324.5c1.2,1.9-0.3,2.4-1.4,3.1C590.8,325.8,591.7,325.1,593.3,324.5z" />
	<path fill="#C6B1A3" d="M578.6,284c0.3-0.4,0.5-0.9,0.9-1.7C581.2,283.7,580.4,285.3,578.6,284z" />
	<path fill="#A58479" d="M562.9,286.9c-1.8,0.8-2.7,1.2-4.3,1.9C559.4,285.5,560.6,286.3,562.9,286.9z" />
	<path fill="#8B9286" d="M531.3,292.7c0-0.4,0.1-0.9,0.1-1.3c1.4,0,2.7,0.1,4,0.1C534.4,293.2,532.9,292.9,531.3,292.7z" />
	<path fill="#62615A" d="M592.5,322.1c0.3-0.8,0.5-1.5,0.8-2.1c0.7,0,1.3,0.1,2,0.1C594.9,321.2,594.4,322.2,592.5,322.1z" />
	<path fill="#605B55" d="M579.5,322.5C579.1,318.4,582.3,321.2,579.5,322.5C579.5,322.5,579.6,322.6,579.5,322.5z" />
	<path fill="#A1958A" d="M571.3,285.6c-0.4,0.7-0.9,0.3-1.5,0.1c0.2-0.2,0.5-0.4,0.7-0.6C570.7,285.3,571,285.5,571.3,285.6z" />
	<path fill="#7F6A62" d="M599.1,313.5c-0.2,0.3-0.3,0.6-0.5,0.9c-0.2-0.2-0.3-0.3-0.5-0.5C598.5,313.7,598.8,313.6,599.1,313.5   C599.1,313.5,599,313.4,599.1,313.5z" />
	<polygon fill="#A48077" points="590.3,331 590.8,330.9 590.6,331.4  " />
	<path fill="#D2BC9E" d="M833.9,299.1c-1.3,0.9-1.4,1.7-0.1,2.7c0.1,0.4,0.1,0.9,0.2,1.3c-0.4,0.4-0.8,0.8-1.2,1.2   c-1.8-1.8-3.2-3.9-4.9-5.9c-1.5,4.7,4.2,10.7,9,9.6c1.1,1.2,1.7,2.6,2.4,4c-3.1,1.1-4.8-2.2-7.4-2.5c-1.5-0.2-2.8,2.5-4.4,0.3   c0.4-0.2,0.7-0.4,1.5-0.8c-3.1-5-5.8-10.7-2.5-16.4c-2.8-1.6-4.6-4.4-7.8-5.4c0-0.8,0-1.6,0-2.4c1.7-0.4,3.3-0.8,5-1.2   c0.1,0.7,0.2,1.5,0.4,2.5c1.3-1.5,0.7-2.1-0.4-2.5c0.3-1.7-0.8-3.7,1-5.2c0.5,1.2-0.5,3.1,1.5,3.7c0.4,1.4-0.5,3.2,1.4,4.1   c0,1,0,2,0,4.6c1.7-3.8,2.7-6.2,3.8-8.5c0.6,0.8,1.2,1.5,1.8,2.4c0.8-0.9,1.4-1.7,2-2.4C834.8,287.9,834.4,293.6,833.9,299.1z" />
	<path fill="#342722" d="M823.8,296.7c-0.5-1.4,0.6-3.5-1.4-4h0.1c-0.9-0.5-1.8-0.9-2.7-1.4c-1.3-3.5-7.5-3.5-9.1,0.1l0.1-0.1   c-0.5,0.5-0.9,0.9-1.4,1.4l0.1-0.1c-2.4,2.7-5,4.5-8.7,5.2c0.7,1.8,3.3,1,3.1,3.5c-2.9,2.1-8.4-1.4-6.2-4.9c4.4-2,8.3-3.6,10.8-8   c-1.4-0.5-2.5-1-3.8-1.5c2.2-0.7,4.2-1.4,6.1-2c0.1,0.6,0.2,1.1,0.4,1.8c6-2.1,10.9,2.6,15.3,6c-0.6,1.6-1,2.7-1.5,3.9   C824.6,296.7,824.2,296.8,823.8,296.7z" />
	<path fill="#CDBA9B" d="M788.9,292c0-1.5-0.1-2.9-0.2-4.4c2.5,0.5,3.4-2,5.2-2.7l0.4,0.5c-1.2,1.4-2.4,2.8-3.9,4.6   c3.1,0.6,6.1-1.9,6.2-5.1l-0.1,0.1c1.8,0.4,3.1-1.3,4.8-1.4c-0.6,1-1.1,2.1-1.7,3.1c0.8,4,5.9,0.2,7.4,3.6c-1.8,3.6-6,4.2-9.3,6.1   C797.6,292.5,791.8,293.4,788.9,292z" />
	<path fill="#D5BFA0" d="M860.4,321.5c0.3-2.8-1.5-4.7-2.9-6.7c0.6,0,1.1-0.1,1.7-0.2c-1.5-4.7,1-9.4,2.1-14   c-2.6-4.5-5.1-10.3-2.8-15.9c3.9,2.8,2,5.5,2.7,8.9c3.3,3.6-0.3,9,2.7,12.1C863,311,861.7,316.3,860.4,321.5z" />
	<path fill="#50423D" d="M824.1,296.6c-0.5,0.5-0.9,0.9-1.4,1.4h0.1c-0.9,0.8-1.7,1.7-2.5,2.5c-1-1.8-2.5,0.5-3.8,0.9   c-1.5-0.7-2.8-1.3-4.1-1.9c-0.6-2-2.9-1.6-4.1-2.8c0.4-1.4,0.9-2.7,1.3-4l-0.1,0.1c0.5-0.5,0.9-0.9,1.4-1.4l-0.1,0.1   c2.1-0.7,4.5-0.9,6.3-2.4c2.9,0,2.5,4.3,5.5,3.7h-0.1c0.2,0.9-0.2,2.1,1.2,2.4c0.1,0.5,0.1,1.1,0.2,1.6   C823.9,296.8,823.9,296.7,824.1,296.6z M816.6,298.7c2.2-1.4-1.4-4,1.2-5.3c-0.8-0.5-1.6-0.9-2.4-1.4c-2.2,0.3-3.7,1.6-4.1,3.8   C813.1,296.8,814.9,297.7,816.6,298.7z" />
	<path fill="#3A302C" d="M797.3,307.8c-9,2.7-13.5,9.5-13.9,18.6c-0.7,0.4-1.4,0.7-2.4,1.2c-0.3-7.3,2.1-12.9,6.6-17.8   C793.5,306.9,793.5,306.9,797.3,307.8z" />
	<path fill="#1A1917" d="M831,344.3c0.2-0.7,0.5-1.4,0.2-2.1c0.6,0,1.1,0,1.6,0c1.8,2.6,4.4,6.1,3.6,9.3c-3.2-3.7-7-3.1-11.5-3.8   c0.6-1.5,1.1-2.8,1.6-4.2C828.1,343.5,829.8,343.1,831,344.3z" />
	<path fill="#433B31" d="M841.9,307L841.9,307c0.5-0.4,0.9-0.8,1.4-1.3c0.7,0.4,1.4,0.7,2.2,1.1c0.1-1.9,0.3-3.3,0.4-4.8l0,0   c1.4-1.1,1.2-2.6,1.1-4c0.3-0.2,0.6-0.4,1.4-0.8c0.4,4.4-1.2,8.7,1.3,12.4c-0.5,1.3-0.9,2.5-1.4,3.8c-0.5-0.3-1-0.6-1.5-0.9   C845.7,310.2,844.2,308.2,841.9,307z" />
	<path fill="#37342C" d="M869.1,336.9c-2.6-1-2.7-1.3-2.4-5.2c1.9-2,2.9-4.2,0.9-6.7c0.1-0.4,0.2-0.7,0.3-1.1   c0.8-0.5,1.4-1.2,2.4-1.2c0.2,0.4,0.2,0.8,0.2,1.2C870.7,328.3,871.1,332.8,869.1,336.9z" />
	<path fill="#52493E" d="M864.1,305.9c0.3-0.1,0.9-0.1,1.2-0.1c-0.3,5.7-0.7,11.3-2.9,16.6c-0.8,0-1.5,0-2.1,0   c1-5.6,2.8-11.1,3.6-16.7L864.1,305.9z" />
	<path fill="#9C947C" d="M839.4,312.2c-0.4-0.9-0.9-1.7-1.3-2.6c1.3-0.8,2.5-1.7,3.8-2.5c2.3,1.1,3.7,3.1,4.9,5.4   C844.4,312,841.9,312.5,839.4,312.2z" />
	<path fill="#342B25" d="M824.8,307.2c-0.2-2.7-2.1-5.6,0.1-7.8c0.8,3.5,2.3,6.7,4.2,9.7c-0.8,0.4-1.1,0.6-1.5,0.8   C826.7,309,825.7,308.1,824.8,307.2z" />
	<path fill="#39322B" d="M822.3,306.8c-1.2-0.6-2.5-1.2-3.9-1.9c1.1-3,1.8-5,4.2-6.9C822.5,301,822.4,304,822.3,306.8z" />
	<path fill="#695E51" d="M866.7,325.2L866.7,325.2c0.3-0.1,0.7-0.1,1.1-0.2c2,2.5,1,4.7-0.9,6.7   C864.2,329.8,865.4,327.4,866.7,325.2z" />
	<path fill="#2A211F" d="M843.4,348.6c-0.6-2.1-1.1-4.1-1.7-6.2c0.5-1,0.9-1.9,1.4-2.8c0.6,1.5,1.1,3.1,1.7,4.6   C844.3,345.6,845.3,347.6,843.4,348.6z" />
	<path fill="#847367" d="M852.4,311l-0.1-0.1c-2,1.8,0.7,3.3,0.5,5.7c-1.8-1.3-3.1-2.3-4.4-3.2c0.5-1.3,0.9-2.5,1.4-3.8   C850.6,310.1,851.5,310.5,852.4,311z" />
	<path fill="#1D1715" d="M807,299.2c-0.1-1.1,0.1-2,1.2-2.5c1.2,1.1,3.5,0.7,4.1,2.8C810.1,301.6,810.1,301.6,807,299.2z" />
	<path fill="#9F957E" d="M822.4,298.1c0.5-0.5,0.9-0.9,1.4-1.4v0.1c0.4,0,0.8-0.1,1.2-0.2c-0.4,3.8-1.7,6.7-0.2,10.6   c-0.9-0.1-1.7-0.2-2.5-0.3c0.1-3,0.2-5.9,0.3-8.9L822.4,298.1z" />
	<path fill="#423B37" d="M844.2,352.7c-1.2-1.3-1-2.7-0.8-4.1c1.9-1,0.8-3,1.4-4.4C846.4,348.9,846.3,350.1,844.2,352.7z" />
	<path fill="#51756C" d="M782.4,294.2c-2.5,1.9-5.2,1-7.9,1c0.9-0.7,1.7-1.5,2.6-2.3c0.8,0,1.6,0.1,2.4,0.1   C780.5,293.4,781.5,293.8,782.4,294.2z" />
	<path fill="#CDB5A6" d="M770.8,293.2c2.2-0.6,4.3-0.6,6.4-0.3c-0.9,0.7-1.7,1.5-2.6,2.3C773.1,295.1,771.1,296.1,770.8,293.2z" />
	<path fill="#ACA596" d="M805.5,296.5c1.4-1.3,2.7-2.5,4-3.8c-0.4,1.4-0.9,2.7-1.3,4c-1.1,0.5-1.3,1.4-1.2,2.5   C805.2,298.9,805.6,297.6,805.5,296.5z" />
	<path fill="#614B47" d="M828.9,340.7l0.1,0.1c-0.7-1.1-2.2-2.1-0.4-3.9c1.5,1.7,2.9,3.5,4.3,5.2c-0.6,0-1.1,0-1.6,0   C830.5,341.7,829.7,341.2,828.9,340.7z" />
	<path fill="#7B675F" d="M754.9,312.5c0.1,2.4,0.6,4.5-1.1,6.4c-0.3-1,0.1-2.3-1.4-2.7C752.3,314.6,752.7,313.4,754.9,312.5z" />
	<path fill="#B0A58C" d="M854.8,312.1v0.1c0.5-2.2-0.9-5,1.2-6.6c-0.2,2.8,0.7,5.3,1.7,7.7c-0.1,0.2-0.3,0.3-0.5,0.5   c-0.3-0.1-0.7-0.2-1-0.3C855.7,313.1,855.3,312.7,854.8,312.1z" />
	<path fill="#422522" d="M785.9,291.9c-1.8,3.1-3.8,2.3-6.4,1.1C781.4,292.7,783.3,292.4,785.9,291.9z" />
	<path fill="#69554F" d="M841.2,336.2c1,1.7,1.4,2.6,1.9,3.4c-0.5,1-0.9,1.9-1.4,2.8C840.3,340.8,840.4,339.1,841.2,336.2z" />
	<path fill="#7D5F52" d="M845.2,314.7c-1.5-0.9-2.7-1.7-3.9-2.4c1.6,0,3.2,0,4.8,0C845.8,313,845.5,313.7,845.2,314.7z" />
	<path fill="#796655" d="M852.4,310.8l0.1,0.1c-0.1-0.8-0.1-1.7-0.2-2.5l0.2-0.2c0.8,0.5,1.7,0.9,2.5,1.4c-0.1,0.9-0.1,1.8-0.1,2.7   C854,311.8,853.2,311.4,852.4,310.8z" />
	<path fill="#614B47" d="M829,340.9l-0.1-0.1c0,0.9,0,1.8,0,2.7c-0.8,0-1.6,0-2.4,0C826.7,341,826.7,341,829,340.9z" />
	<ellipse fill="#6C625B" cx="754.3" cy="306.4" rx="0.6" ry="1.9" />
	<path fill="#B0A58C" d="M857.3,313.9c0.2-0.2,0.3-0.3,0.5-0.5c0.3,0.2,0.6,0.2,1,0.2c0.1,0.3,0.3,0.7,0.4,1.1   c-0.6,0-1.1,0.1-1.7,0.2C857.4,314.5,857.3,314.2,857.3,313.9z" />
	<path fill="#514037" d="M856.2,313.5c-0.4,0-0.8-0.1-1.2-0.1c-0.3-0.4-0.4-0.8-0.2-1.2C855.3,312.7,855.7,313.1,856.2,313.5   L856.2,313.5z" />
	<path fill="#614B47" d="M834,343.4c-0.4-0.4-0.8-0.9-1.2-1.3C833.2,342.6,833.6,343,834,343.4z" />
	<path fill="#B0A58C" d="M855.6,314.4c-0.2-0.4-0.4-0.7-0.6-1c0.4,0,0.8,0.1,1.2,0.1C856,313.8,855.8,314.1,855.6,314.4z" />
	<path fill="#361E1B" d="M580.6,364.1c0.1-0.4,0.2-0.8,0.3-1.2c4.4,0.2,8.7-2.4,13.3-0.3c-2.6,0.6-5.3,1.1-7.9,1.7   C584.4,364.3,582.5,364.3,580.6,364.1z" />
	<path fill="#4B6D64" d="M575.6,364.2c3.6-0.1,7.1,0,10.7,0.1C582.9,365.6,578.7,366.7,575.6,364.2z" />
	<path fill="#874C46" d="M573,364.2c-1.6-2,6.3-0.7,7.9-1.2c-0.1,0.4-0.2,0.8-0.3,1.2c-1.7,0-3.3,0-5,0   C574.7,364.2,573.9,364.2,573,364.2z" />
	<path fill="#3C1F1C" d="M567.7,365.2c-1.5,0-3.1,0-4.6,0c-0.1-0.2-0.1-0.4-0.1-0.6c1.1-0.2,2.3-0.4,3.4-0.6   C566.9,364.5,567.3,364.9,567.7,365.2z" />
	<path fill="#766058" d="M570.2,363.8c-1,0.6-1.7,1.1-2.5,1.5c-0.4-0.4-0.9-0.9-1.3-1.3C567.4,362.9,568.5,362.3,570.2,363.8z" />
	<path fill="#160D0C" d="M688.8,335.5c-0.2-1.4-1.3-3,1-3.7c0.1,0.8,0.2,1.5,0.3,2.2C689.7,334.5,689.2,335.1,688.8,335.5z" />
	<path fill="#DFC6B5" d="M212.1,350c1.9,1,3.8,2,5.9,3.1c-20.1,2.5-40.7,6.8-60.5,3.3c0.4-0.4,0.8-0.9,1.2-1.3   c0.7,1.6,1.5,1.7,2.4,0.1c1.5-0.4,2.9-0.8,4.4-1.2c1.9,1.7,1.9,1.7,3.6-0.2c2.3,0.2,4.5-0.1,6.5-1.2c-0.5,2.9,2.9,2.8,2.5-0.1   c2.2,0,4.5,0.1,6.7,0.1c1.8,2.2,4,1.2,6.2,0.8c0-0.9-0.1-1.5-0.1-2.1c2.8,0,5.5,0,8.3,0C202.9,354.3,208,350.9,212.1,350z" />
	<path fill="#E1C5B5" d="M58.7,361.5c6.4-0.7,14.2-2.2,21.3-0.6c-3.3,2.9-9.4,4.5-17.3,4.6C61.7,363.6,58.8,364,58.7,361.5z" />
	<path fill="#382C29" d="M265.4,349.5c-4.5,1.8-8.3,3.9-12.8,3.8c-0.2-0.8-0.3-1.2-0.4-1.7C256,349.4,261.5,348.1,265.4,349.5z" />
	<path fill="#3E3732" d="M57.4,359l-0.1-0.1c1.3,1.9,1.3,4.6,3.8,5.1c0.6,0.2,1.1,1,1.6,1.5C58,369.3,51.4,361.9,57.4,359z" />
	<path fill="#3A312D" d="M296.4,360.1c-4.6,0.5-9,2.4-14.8,0.9c4.6-3,8.2-1.9,13.1-2.3C295.2,359.2,295.8,359.6,296.4,360.1z" />
	<path fill="#38312D" d="M57.4,359.1c0.2-0.8,0.3-1.6,0.6-2.8c2.8,0.3,5.2-1.3,8.4-0.5c-3.1,2.2-5.7,3.7-9.1,3.1L57.4,359.1z" />
	<path fill="#66504A" d="M204,351.1c1.6-1.2,7.4-3.3,8-1c-2.2,0.7-4.5,1.4-6.7,2.1C204.9,351.8,204.4,351.4,204,351.1z" />
	<path fill="#A88B80" d="M268,377.2c2.5,1,5.4,0.7,7.7,2.4c-0.4,0.4-0.9,0.9-1.3,1.4c-2.2-0.9-4.3-1.7-6.5-2.6   C267.8,378,267.9,377.6,268,377.2z" />
	<path fill="#5C433E" d="M305,356.7c1.7-2.2,4-1.8,7.6-1.6C307.1,357.8,307,357.8,305,356.7z" />
	<path fill="#4E3733" d="M190.1,351.3c0.3,0.1,0.5,0.1,0.8,0c0,0.6,0.1,1.2,0.1,2.1c-2.2,0.4-4.4,1.4-6.2-0.8   C186.7,352.4,188.4,351.9,190.1,351.3z" />
	<path fill="#571A18" d="M73.8,354.9c-1.3,0.4-2.6,0.8-4,1.3c-0.3-0.8-0.5-1.3-0.8-2.2c1.7,0,3.1,0,4.5,0   C73.7,354.3,73.8,354.6,73.8,354.9z" />
	<path fill="#35201E" d="M273.8,346.3c-1.4,1.1-2.8,1.6-4.5,0.6C272.2,345.4,272.2,345.5,273.8,346.3z" />
	<path fill="#70514B" d="M300.6,358.3c-1.7,0.7-2.9,1.2-4.2,1.8c-0.6-0.4-1.1-0.9-1.7-1.4C296.3,357.7,298,357.3,300.6,358.3z" />
	<path fill="#C6B0A2" d="M324.3,353c-2,1.1-2.7,1.6-4.4,2.6C320.6,351.7,320.5,352.9,324.3,353z" />
	<path fill="#492E2B" d="M199.2,351.4c1.6-0.1,3.2-0.2,4.8-0.3c0.4,0.4,0.9,0.7,1.3,1.1C203.1,352.3,200.9,353.2,199.2,351.4z" />
	<path fill="#5F2825" d="M83.6,354.3c-2,2.3-3.3,1.6-5.3-0.1C80.9,353.5,81,353.6,83.6,354.3z" />
	<path fill="#AD998D" d="M178.1,352.5c0.4,2.9-3,3-2.5,0.1C176.5,352.5,177.3,352.5,178.1,352.5z" />
	<path fill="#4D1B1A" d="M253.4,365.5c-0.5,1.9-5.1,2-5.2-0.1C249.9,365.5,251.7,365.5,253.4,365.5z" />
	<path fill="#793D39" d="M392.5,340.5c-0.7,0.2-1.3,0.5-2,0.7c-0.1-0.3-0.2-0.7-0.3-1.1c0.6-0.1,1.3-0.3,2-0.4   C392.3,339.9,392.4,340.2,392.5,340.5z" />
	<path fill="#826059" d="M169.1,353.8c-1.6,1.9-1.7,1.9-3.6,0.2C166.7,353.9,167.9,353.8,169.1,353.8z" />
	<path fill="#998D83" d="M330.9,351.7c-0.6,0.6-1,0.8-1.6,0C329.9,351.5,330.4,351,330.9,351.7z" />
	<path fill="#C49B8F" d="M281.4,342.6c-0.5,0.8-0.8,0.7-1.4,0.1C280.5,342.5,281,342,281.4,342.6z" />
	<path fill="#A49389" d="M288,340c-0.5,0.8-0.9,0.7-1.5,0.1C287.1,339.9,287.6,339.4,288,340z" />
	<path fill="#A69589" d="M263.9,378.4c0-0.8,0-1.7,0-2.5l0,0c1.3,0.4,1.2,1.4,1.2,2.5C264.9,378.5,264.3,378.5,263.9,378.4z" />
	<path fill="#705B55" d="M247,378.6c-0.3-0.4-0.5-0.8-0.7-1.2c1-0.2,1.5,0.1,1.8,1C247.8,378.4,247.4,378.5,247,378.6z" />
	<path fill="#DFC6B5" d="M190.2,351.3c-1,0.3-1.9,0.6-2.9,0.9C187.9,351,189,351.1,190.2,351.3z" />
	<path fill="#E1C7B6" d="M264,375.9c0,0.8,0,1.7,0,2.5C262.4,377.2,262.4,377.2,264,375.9z" />
	<path fill="#450F0E" d="M87.5,353.4c0.4-1.5,1.3-0.5,2.7-0.2C89,353.4,88.1,354.4,87.5,353.4z" />
	<path fill="#A78D81" d="M161.1,355.2c-0.9,1.6-1.7,1.5-2.4-0.1C159.5,355.1,160.3,355.2,161.1,355.2z" />
	<path fill="#491E1C" d="M279.7,381c-1.7,0.1-3.5,0.2-5.3,0c0.4-0.4,0.9-0.9,1.3-1.4C277,380,278.3,380.5,279.7,381z" />
	<path fill="#321F1D" d="M282.6,381.8c-2.8,1-4.5,0.9-6-0.6c1-0.1,2.1-0.1,3.1-0.2C280.4,381.2,281,381.3,282.6,381.8z" />
	<path fill="#392522" d="M239.2,378.5c2.1-1.3,2.1-1.3,3.9-0.1c-1.6,0-2.8,0-4,0L239.2,378.5z" />
	<path fill="#4E382F" d="M71.6,425.3c0.2,0.8,0.4,1.5,0.8,2.8c-1.4-0.2-2.3-0.3-3.3-0.4C68.6,426,69.8,424.5,71.6,425.3z" />
	<path fill="#CEC9A8" d="M71.6,425.2c-0.5-0.1-0.9-0.1-1.3-0.2C70.9,424,71.4,424.1,71.6,425.2z" />
	<path fill="#827168" d="M794,450.1c-3.2,1.4-5.4,1.4-9.2,0.9c1.2-1,1.9-1.6,2.7-2.3C789.8,448.7,791.9,449.4,794,450.1z" />
	<path fill="#3F1F1D" d="M795.9,448.7c-0.1,1.4-1.1,1.1-1.8,1.4c-1.3-0.4-2.6-0.8-3.9-1.2C792.1,448.7,794,448,795.9,448.7z" />
	<ellipse fill="#47403B" cx="799.7" cy="445.1" rx="0.6" ry="2.2" />
	<path fill="#8C7E74" d="M779.6,449.9c-0.5,1.1-1.1,1.6-2.4,0.4C778.2,450.1,778.9,450,779.6,449.9L779.6,449.9z" />
	<path fill="#F3DDBD" d="M875.8,301.8c-4.7-2.3-10.1-15.3-11.8-21.9c0.3-0.4,0.7-0.9,1.1-1.3c1,1.7,2,3.3,3,5   C870.9,289.5,874.7,295.5,875.8,301.8z" />
	<path fill="#AA9880" d="M873.2,290.1c2.9,6.4,6.5,12.7,7.6,19.7c-0.8,0-1.5,0-2.3,0c-0.5-2.8-0.7-5.7-2.8-8   c-0.1-0.8-0.1-1.7-0.2-2.5c-1.7-2.4-2.3-5.3-3.5-8C872.4,290.9,872.8,290.5,873.2,290.1z" />
	<path fill="#F2DBBA" d="M871,317.3c-0.6-4.9-1-9.3,0.9-13.7C872.8,307.8,875.1,314.9,871,317.3z" />
	<path fill="#93836E" d="M864,303.1c2.4-1.3,0.3-4.2,2.6-6.2c-0.4,3.2,1.2,6.8-1.3,8.8c-0.3,0-0.9,0.1-1.2,0.1   C864.1,304.9,864.1,304,864,303.1z" />
	<path fill="#685748" d="M869.2,320c-1.3,0.4-1,1.6-1.1,2.6c-0.5,0-0.9,0-1.4,0l-0.4-0.3c0.3-2.4,0.3-4.9,2.9-7   C869.2,317.1,869.2,318.5,869.2,320L869.2,320z" />
	<path fill="#776C5C" d="M863.1,283.5c0.4-0.5,0.8-0.9,1.2-1.4c0.8,2.3,1.7,4.5,2.6,6.7C865,291.4,863.5,285.1,863.1,283.5z" />
	<path fill="#A29079" d="M867.9,299.6c0.2-1.2,0.3-2.3,0.4-3.5c0.3,0,0.5,0,0.7,0c0,1.1,0,2.3,0,3.4   C868.6,299.6,868.3,299.6,867.9,299.6z" />
	<path fill="#685748" d="M866.7,322.7c0,0.9,0.4,1.8,0,2.6l0,0c-0.7-0.1-1.4-0.2-2.5-0.4c0.9-1.2,1.5-1.9,2.1-2.6   C866.3,322.3,866.6,322.6,866.7,322.7z" />
	<path fill="#695E51" d="M869.2,322.4c0-0.8,0.1-1.7,0.1-2.5l-0.1,0.1c1.4,0.5,1.4,1.5,1.2,2.7c-0.3,0-0.6,0.1-0.9,0.2L869.2,322.4z   " />
	<path fill="#695E51" d="M870.6,325.3c-0.1-0.4-0.1-0.9-0.1-1.4C871.6,324.3,871.6,324.8,870.6,325.3z" />
	<path fill="#C5AF93" d="M801.8,286.5c4.3-5.1,9.9-12.7,17.8-9.5c0.1,0.5,0.1,0.9,0.1,1.3c-0.5,0.5-1,1-1.5,1.5   c-3.3-0.7-5.4,1.9-7.4,3.9c0,0.4-0.1,0.9-0.1,1.3l0.1-0.1c-1.9,0.6-3.8,1.3-6.1,2c1.3,0.5,2.3,0.9,3.8,1.5c-0.6,0.8-1,1.3-1.5,1.9   c-0.8-2.1-2.8-1.2-4.3-1.6C802.5,288.1,802.3,287.5,801.8,286.5z" />
	<path fill="#5B4A3F" d="M799.6,286.7c0.7-1.5,1.6-2.8,2.1-4.4l-0.1,0.1c0.5-0.5,0.9-0.9,1.4-1.4l-0.1,0.1   c6.7-5,10.6-14.1,18.4-16.9c-2.1,4.4-8,5.8-7,10.2c-4.3,4-9,7.6-12.4,12.2c0.4,0.9,0.6,1.5,0.8,2.1   C801.2,288.7,799.9,288.5,799.6,286.7z" />
	<path fill="#897E6B" d="M800.2,277.1c1.3,1.1,2,2.6,2.7,4.1l0.1-0.1c-0.5,0.5-0.9,0.9-1.4,1.4l0.1-0.1c-0.9,1.4-2.4,1.9-3.9,2.6   C797.4,282.1,799.5,279.7,800.2,277.1z" />
	<path fill="#BDB298" d="M819.3,271.5c-1.7,1-3.4,1.9-5,2.8c-1.1-2.8,1.3-3.7,2.9-5C817.9,270.1,818.5,270.8,819.3,271.5z" />
	<path fill="#474137" d="M822.3,273c0.4,0.5,0.7,1,1.1,1.5l0.6,0.1c-1.3,1.9-2.7,3.7-4,5.6c-0.2-1-0.2-2.1-0.3-3.1   C820.5,275.7,821.4,274.4,822.3,273z" />
	<path fill="#CDBA9B" d="M796.3,285.1l0.1-0.1c-0.7,0.1-1.5,0.3-2.2,0.4l-0.4-0.5c0.8-0.4,1.7-0.9,2.5-1.3   C796.4,284.1,796.4,284.5,796.3,285.1z" />
	<path fill="#564A3E" d="M797.6,283.1c0,0.6,0.1,1.3,0.1,1.9c-0.4,0-0.9,0-1.3,0c0-0.5-0.1-0.9-0.1-1.4   C796.8,283.4,797.2,283.2,797.6,283.1z" />
	<path fill="#0B0A09" d="M855.1,262.8c-0.4-0.5-0.9-1-1.4-1.5c0.4-0.7,0.8-1.4,1.2-2.1c0.3,0,0.9,0,1.2,0.1c0.8,1.5,2.4,0.9,3.6,1.2   c0.6,0.7,0.4,1.6,0.3,2.5c-0.8-0.1-1.7-0.1-2.5-0.2C856.8,260.9,856,262.8,855.1,262.8z" />
	<path fill="#2E2822" d="M850.9,259.2c1.4-0.4,1.5-1.6,1.5-2.8c0.3,0.1,0.6,0.1,0.9,0.2c0.5,0.9,1.1,1.7,1.7,2.6   c-0.4,0.7-0.8,1.4-1.2,2.1C852.8,260.6,851.8,259.9,850.9,259.2z" />
	<path fill="#696A59" d="M858.9,256.4L858.9,256.4c2.1,0.3,4.2,4.6,1.3,5.1c-0.1-0.4-0.2-0.8-0.4-1.1   C859.5,259.1,859.2,257.7,858.9,256.4z" />
	<path fill="#322721" d="M848.4,257.7c-3.6-0.2-3.6-0.2-3.9-3.9C845.8,255.1,847.1,256.4,848.4,257.7z" />
	<path fill="#696A59" d="M854.6,255.3c-0.2-0.1-0.5-0.1-0.7,0c-0.2-0.2-0.3-0.3-0.5-0.5c1.1-2.7,1.1-2.8,2.9-1.1   C855.7,254.2,855.2,254.8,854.6,255.3z" />
	<path fill="#696A59" d="M858.8,256.4c-0.8-0.9-1.7-1.8-2.6-2.6l0.1-0.1C858,253.8,858.9,254.6,858.8,256.4L858.8,256.4z" />
	<path fill="#696A59" d="M853.3,254.9c0.2,0.2,0.3,0.3,0.5,0.5c-0.2,0.4-0.4,0.8-0.6,1.2c-0.3-0.1-0.6-0.1-0.9-0.2   C852.7,255.9,853,255.3,853.3,254.9z" />
	<path fill="#322721" d="M849.8,255c-0.3-0.2-0.7-0.3-1-0.5c0.3-0.2,0.6-0.5,0.9-0.7C849.7,254.2,849.7,254.6,849.8,255z" />
	<path fill="#9F8B77" d="M849.7,253.8c0.4,0,0.9,0,1.3,0.1c-0.4,0.4-0.7,0.7-1.1,1.1C849.7,254.6,849.7,254.2,849.7,253.8   L849.7,253.8z" />
	<path fill="#322721" d="M850.4,252.8c0.1,0.3,0.3,0.7,0.5,1c-0.4,0-0.8-0.1-1.2-0.1C850,253.5,850.2,253.2,850.4,252.8z" />
	<path fill="#736E5E" d="M868.1,283.6c0.5,0.1,1,0.1,1.5,0.1c1.2,2.1,2.4,4.3,3.6,6.4c-0.4,0.4-0.8,0.8-1.2,1.2   C870.7,288.7,869.4,286.2,868.1,283.6z" />
	<path fill="#C7B69C" d="M857.7,269.2c0.5,0.1,1,0.1,1.5,0.1c2.7,2.7,4.5,5.8,5.8,9.3c-0.3,0.4-0.7,0.9-1.1,1.3   C861.9,276.4,859.8,272.8,857.7,269.2z" />
	<path fill="#2E2822" d="M856.3,264.2c-0.4-0.4-0.7-0.9-1.1-1.4c0.7,0,1.5-1.9,2.3,0C857.1,263.2,856.7,263.7,856.3,264.2z" />
	<path fill="#D3BD9E" d="M848.5,297.3c-2.6,0.9-2.8,2.5-2.5,4.7l0,0c-0.4,0-0.9-0.1-1.3-0.1c0-2.1,0.1-4.3,0.1-6.4   c2.7-2.2,2.7-5.8,4.2-8.3c5.8,2.3,8.5,7.8,9.9,13.5c-2.6,0.5-2.3,3-2.8,5.1c-1.6,1-1,2.5-1.1,3.9c-0.8-0.5-1.7-0.9-2.5-1.4   c-0.2-0.6-0.4-1.2-0.5-1.8c-1.4,0.1-0.8,1.8,0.2,2c0.1,0.8,0.1,1.7,0.2,2.5C846.3,309,849,302.1,848.5,297.3z" />
	<path fill="#D9C3A3" d="M842,298.2c-1.8-6.1-1.4-12.4-1.4-19.1c-0.9,0.2-1.7,0.5-2.4,0.7c-0.1-1.3-0.1-2.6-0.2-3.9   c2.2-1.6,2.6-3.9,2.5-6.5l0,0c0.5,0,0.9,0,1.3-0.1c0.2,5.1,1.6,9.8,3.9,14.4C841.7,287.8,844.8,293.7,842,298.2z" />
	<path fill="#4E453A" d="M835.5,281.2c0.5,0.4,0.9,0.9,1.3,1.3c-0.1,3.5-0.2,6.9-0.3,10.4c-2.1,1.7-0.6,3.8-0.2,5.8   c0.2-0.7,0.4-1.5,0.6-2.2c0.9,2.2,1.8,4.3,2.7,6.5c-0.6,0.6-1.1,1.1-1.7,1.6h0.1c0.2-1.6-0.4-2.7-2.1-3.6c-0.2,0.8-0.4,1.5-0.5,2.2   c-0.4,0.1-0.9,0.1-1.3,0c-0.4-6.9,0.9-14,1.1-20.9C835.3,281.9,835.5,281.5,835.5,281.2z" />
	<path fill="#484239" d="M864.3,282.1c-0.4,0.5-0.8,0.9-1.2,1.4c-1.9-5.5-6.1-9.5-7.3-15.2c0.8,0.4,1.4,0.7,1.9,1   c2.1,3.5,4.1,7.1,6.2,10.6C864,280.6,864.1,281.4,864.3,282.1z" />
	<path fill="#827260" d="M858.8,300.6c0.2,0.3,0.5,0.6,0.7,1c0.3-0.8,0.7-1.5,0.7-2.3c2.6,2.3-0.9,6.3-1.2,9.2   C857.9,305.9,854.4,301.7,858.8,300.6L858.8,300.6z" />
	<path fill="#BDAD94" d="M852.5,268c1.1,2.5,3.8,9.5,0.4,10.2c-0.6-3.2-1.2-6-1.8-8.9C851.6,268.9,852,268.4,852.5,268z" />
	<path fill="#C4AF92" d="M845.8,294c-0.3,0.5-0.7,0.9-1.1,1.4c-0.5-1.3,0.5-3.1-1.4-3.8c-0.3-3,0.6-5.6,2.4-7.9   C845.8,287.1,845.8,290.6,845.8,294z" />
	<path fill="#A7977F" d="M830.1,279.7c0.4,0.4,0.9,0.9,1.3,1.3c-0.2,3.4-2.1,5.3-3.8,9.8c0-2.6,0-3.6,0-4.6   C828.3,284,829,281.8,830.1,279.7z" />
	<path fill="#61594D" d="M831.8,273.6c0.7-0.4,1.5-0.2,2.3-0.3c-0.9,2.6-1.8,5.1-2.7,7.7c-0.4-0.4-0.9-0.9-1.3-1.3   C830.6,277.6,831.2,275.6,831.8,273.6z" />
	<path fill="#786B5E" d="M850.1,263.2c2.2,1,2.2,3,2.4,4.8c-0.5,0.4-0.9,0.9-1.4,1.3C851.3,267.2,848.7,265.6,850.1,263.2z" />
	<path fill="#B09C86" d="M836.9,276.1c0.9-2.4,1.6-5,3.7-6.7c0.2,2.5-0.3,4.9-2.5,6.5C837.7,275.9,837.3,275.9,836.9,276.1z" />
	<path fill="#7F7060" d="M837.9,282.1c-0.4,0.1-0.7,0.3-1,0.4c-0.5-0.4-0.9-0.9-1.3-1.3c0.4-1.7,0.9-3.5,1.3-5.2   c0.4,0,0.8-0.1,1.2-0.1C838.2,278,838.4,280.1,837.9,282.1z" />
	<path fill="#B09C86" d="M841,267.2c0.2,0,0.4,0,0.6,0c0.1,0.7,0.2,1.4,0.3,2.1c-0.5,0.1-0.9,0.1-1.3,0.1   C840.7,268.6,840.8,267.9,841,267.2z" />
	<path fill="#2E2822" d="M854,261.5c0.3,0.4,0.7,0.7,1,1.1C854.7,262.2,854.3,261.9,854,261.5z" />
	<path fill="#D3BD9E" d="M860,300.5c-0.2,0.4-0.3,0.7-0.5,1.1c-0.2-0.3-0.5-0.7-0.7-1C859.2,300.5,859.6,300.5,860,300.5z" />
	<path fill="#EAD7B8" d="M827.6,286.3c-3.7-3.9,0.8-10.3,2.9-14.2c0.4,0.4,0.9,0.9,1.3,1.4c-0.6,2.1-1.1,4.1-1.7,6.2   C829,281.8,828.3,284,827.6,286.3z" />
	<path fill="#BEB197" d="M835.4,265.6c-1,3.3-1.8,5.5-2.5,7.7c-0.4,0-0.8,0.1-1.1,0.2c-0.4-0.4-0.9-0.9-1.3-1.4   C831.3,269.7,832.8,267.9,835.4,265.6z" />
	<path fill="#4D4B40" d="M824.7,278.5c0.1-0.9,0.3-1.7,0.5-2.5c0.3-0.1,0.6-0.2,0.9-0.3c0.5,0.5,0.9,0.9,1.4,1.4   c-0.4,1.7-0.9,3.3-1.3,5C824.2,281.5,825.3,279.7,824.7,278.5z" />
	<path fill="#928C77" d="M824,274.6l-0.6-0.1c0.9-0.9,1.9-1.7,2.9-2.6l0,0c0,1.3-0.1,2.5-0.1,3.8c-0.3,0.2-0.6,0.2-0.9,0.3   C824.9,275.5,824.4,275.1,824,274.6z" />
	<path fill="#928C77" d="M826.3,272c0.3-0.3,0-1.5,0.9-0.5C826.9,271.7,826.6,271.8,826.3,272L826.3,272z" />
	<path fill="#EBDABA" d="M824.8,278.4c-1.8,1.4-0.8,3.4-1,5.2l0,0c-1.7,0.4-3.3,0.8-5,1.2c0.5-4,2.8-7.1,5.2-10.2   c0.4,0.5,0.9,0.9,1.3,1.4C825.1,276.8,824.9,277.6,824.8,278.4z" />
	<path fill="#373028" d="M835.2,308.2c-3.8,0.1-8.8-6.1-7.2-9.7c1.3,1.6,2.5,3.1,3.7,4.6C833.2,304.5,834.1,306.4,835.2,308.2z" />
	<path fill="#382A23" d="M835.4,303.2h0.1c0.9,0.4,1.7,0.9,2.6,1.3H838c0.7,1.7,1.8,2.9,3.9,2.6V307c-1.3,0.8-2.5,1.7-3.8,2.5   C836.5,307.8,836.2,305.3,835.4,303.2z" />
	<path fill="#786A5A" d="M818.8,287.3c-1.4-0.4-2.9-0.9-4.3-1.3c2.6-1.2,3.8-3.2,3.7-6.1c0.5-0.5,1-1,1.5-1.5   c0.6,2.2-0.4,4.3-0.9,6.5C818.8,285.7,818.8,286.5,818.8,287.3z" />
	<path fill="#AC977E" d="M835.2,308.2c-0.8-1.3-1.5-2.5-2.3-3.8c0.4-0.4,0.8-0.8,1.2-1.2c0.4,0.1,0.8,0.1,1.2,0   c0.6,1.6,1.1,3.3,1.7,4.9C836.4,308.1,835.8,308.2,835.2,308.2z" />
	<path fill="#AC977E" d="M834,299.2c0,0.9-0.1,1.8-0.1,2.7C832.6,300.9,832.7,300,834,299.2z" />
	<path fill="#83715F" d="M823.8,283.7c1.1,0.4,1.7,1,0.4,2.5C824,285.2,823.9,284.4,823.8,283.7L823.8,283.7z" />
	<path fill="#AC977E" d="M832.9,304.3c-0.4-0.4-0.8-0.8-1.2-1.2C832.1,303.5,832.5,303.9,832.9,304.3z" />
	<path fill="#E1D0B1" d="M811.3,286.8c-0.1-0.7-0.3-1.2-0.4-1.8l-0.1,0.1l0.6,0.1c2.2-1.5,4-3.7,6.1-5.4c0.2,0,0.5,0.1,0.7,0.1   c0.1,2.8-1.1,4.9-3.7,6.1C813.4,286.2,812.4,286.5,811.3,286.8z" />
	<path fill="#8C998C" d="M817,289.1c-1.8,1.5-4.2,1.7-6.3,2.4C812.1,288.8,814.4,288.6,817,289.1z" />
	<path fill="#707E73" d="M822.5,292.8c-1.1-0.2-2.3,0-2.7-1.4C820.7,291.8,821.6,292.3,822.5,292.8z" />
	<path fill="#978E81" d="M823.7,295.2c-1.4-0.3-1-1.5-1.2-2.4C823.8,293.1,823.7,294.2,823.7,295.2z" />
	<path fill="#888F83" d="M810.8,291.4c-0.5,0.5-0.9,0.9-1.4,1.4C809.9,292.3,810.3,291.8,810.8,291.4z" />
	<path fill="#564A3E" d="M790.4,289.9c1.5-1.7,2.7-3.2,3.9-4.6c0.7-0.1,1.5-0.3,2.2-0.4C796.4,288.2,793.4,290.6,790.4,289.9z" />
	<path fill="#DFD7B8" d="M801.2,283.5c-0.2,0-0.5,0-0.7,0.1c0.4-0.4,0.8-0.9,1.2-1.3C801.6,282.8,801.4,283.2,801.2,283.5z" />
	<path fill="#3A342B" d="M858.8,313.6c-0.3,0-0.7-0.1-1-0.2c-1.4-3.1-2.3-6.5-1.2-9.9c0.8,1.6,1.6,3.3,2.4,5   C858.9,310.1,858.8,311.8,858.8,313.6z" />
	<path fill="#DCC3B3" d="M815.5,292c0.9,0.5,1.6,0.9,2.4,1.4c-2.6,1.3,0.9,3.9-1.2,5.3c-1.8-0.9-3.6-1.9-5.4-2.9   C811.7,293.6,813.2,292.3,815.5,292z" />
	<path fill="#342722" d="M823.9,296.6c-0.5,0.5-0.9,0.9-1.4,1.4C822.9,297.6,823.4,297.1,823.9,296.6z" />
	<path fill="#C9D7D7" d="M831.2,342.1c0.1,0.3,0.2,0.6,0.1,1c-0.7,0.4-1.5,0.5-2.4,0.3c0-0.9,0-1.8,0-2.7   C829.7,341.2,830.5,341.7,831.2,342.1z" />
	<path fill="#614B47" d="M831.1,344.2c-0.3-0.2-0.6-0.4-0.9-0.6c0.4-0.1,0.8-0.3,1.2-0.4C831.3,343.5,831.2,343.9,831.1,344.2z" />
	<path fill="#8C7865" d="M839.7,302.8c0.3,0.1,0.8,0.1,1.1,0c0.4,0.2,0.8,0.2,1.2,0.2c0.4,0.9,0.9,1.7,1.3,2.6   c-0.5,0.5-0.9,0.9-1.4,1.4c-2,0.3-3.1-0.9-3.9-2.6C838.5,303.9,839.1,303.4,839.7,302.8z" />
	<path fill="#C4AF92" d="M841.9,301.8c0.9,0.1,1.7,2.1,2.6,0.1c0.4,0,0.9,0.1,1.3,0.1c-0.1,1.4-0.2,2.9-0.4,4.8   c-0.8-0.4-1.5-0.8-2.2-1.1c-0.4-0.9-0.9-1.7-1.3-2.6C842,302.7,842,302.2,841.9,301.8z" />
	<path fill="#C4AF92" d="M845.9,302c0-1.4-0.7-3.1,1.1-4C847.1,299.4,847.4,300.9,845.9,302z" />
	<path fill="#695E51" d="M869.1,322.4l0.4,0.4c-0.8,0.7-1.7,1.1-2.7,1.4c-0.1-0.5-0.1-1.1-0.2-1.6   C867.4,322.5,868.3,322.7,869.1,322.4z" />
	<path fill="#D5BFA0" d="M867.7,325.1c-0.3,0-0.7,0.1-1.1,0.2c0.2-0.3,0.2-0.7,0.2-1c0.4-0.2,0.8-0.3,1.2-0.4   C867.9,324.3,867.8,324.6,867.7,325.1z" />
	<path fill="#D5BFA0" d="M874.5,297.8c0.3,0.5,0.7,1,1,1.5C875.2,298.8,874.9,298.3,874.5,297.8z" />
	<path fill="#D5BFA0" d="M869.2,320c0,0.8-0.1,1.7-0.1,2.5c-0.3,0.1-0.8,0.2-1.1,0.1C868.2,321.6,867.9,320.4,869.2,320z" />
	<path fill="#786A5A" d="M810.9,283.7c1.9-1.9,3.6-4.1,6.7-4c-1.9,1.7-3.7,3.4-5.6,5.1C811.6,284.5,811.2,284.1,810.9,283.7z" />
	<path fill="#342722" d="M811.4,285.1l-0.6-0.1c0-0.4,0.1-0.9,0.1-1.3c0.4,0.4,0.7,0.7,1.1,1.1L811.4,285.1z" />
	<path fill="#D7D0B2" d="M801.6,282.5c0.5-0.5,0.9-0.9,1.4-1.4C802.6,281.5,802.1,282,801.6,282.5z" />
	<path fill="#2E2822" d="M859.8,260.5c-1.2-0.3-2.8,0.3-3.6-1.2c2-1.1-0.9-2.8-1.6-3.9c0.6-0.6,1.1-1.1,1.7-1.6   c0.9,0.9,1.7,1.7,2.6,2.6C859.2,257.7,859.5,259.1,859.8,260.5z" />
	<path fill="#B9AC93" d="M855,259.1c-0.5-0.9-1.1-1.7-1.7-2.6c0.2-0.4,0.4-0.8,0.6-1.2c0.2-0.1,0.5-0.1,0.7,0   c0.7,1.2,3.6,2.8,1.6,3.9C855.9,259.1,855.3,259.1,855,259.1z" />
	<path fill="#7F715E" d="M842,298.2c1.8-1.9,0.9-4.3,1.3-6.5c2.8,2.3,0.8,6.9,1.3,10.2c-0.9,2-1.7-0.1-2.6-0.1   C842,300.6,842,299.3,842,298.2z" />
	<path fill="#796655" d="M852.1,308.4c-1-0.2-1.6-2-0.2-2c0.2,0.6,0.3,1.2,0.5,1.8C852.4,308.2,852.2,308.4,852.1,308.4z" />
	<path fill="#F4DEBD" d="M841.9,303.1c-0.4,0.1-0.8,0-1.2-0.2c0.5-7.9-4.4-15.2-2.5-23.1c0.8-0.2,1.5-0.4,2.4-0.7   c-0.6,8,1,15.1,1.4,22.7C842,302.2,842,302.7,841.9,303.1z" />
	<path fill="#D3BC9D" d="M839.7,303c-3.7-6.3-3.2-13.4-2.8-20.4c0.3-0.2,0.7-0.3,1-0.4c-0.5,7.1,3.3,13.6,2.9,20.7   C840.5,303,839.9,303,839.7,303z" />
	<path fill="#151310" d="M836.3,298.7c-0.4-2.1-2-4.1,0.2-5.8c0.1,1.1,0.3,2.3,0.4,3.5C836.7,297.2,836.5,297.9,836.3,298.7z" />
	<path fill="#827A66" d="M835.9,300.9c1.6,0.9,2.2,2.1,2.1,3.6c-0.9-0.4-1.7-0.9-2.6-1.3C835.6,302.5,835.7,301.7,835.9,300.9z" />
</g>
</svg>