<?xml version='1.0' encoding='utf-8'?>
<svg xmlns="http://www.w3.org/2000/svg" version="1.2" baseProfile="tiny" id="Layer_1" x="0px" y="0px" viewBox="0 0 900 600" overflow="visible" xml:space="preserve">
<g id="a_00000054946558312144977540000017433299877357952152_">
	<path fill="#010101" d="M397.6,392.5c2.9-25.6-2.1-54.1,14-76c0.5,0.1,0.9,0.2,1.7,0.3c12.5-13.9-5.5-29.2-6.3-44.2   c-1.4-10.4-1.8-21-2.5-31.6c-2.5-9.2-9.7-16.8-10.8-26.8c1.8-25.6-5.5-24.8-10.8-46.6c-2.9-24.1,4.1-48.6-5.7-71.6   c-5-15.1-0.7-31.5-2.7-47.1c0.3-10.3-6.1-19.1-5.4-30.2c-18.9-3.7-37.7-6.5-56.5-10.5c0.1-0.4,0.1-0.9,0.2-1.5   c22.4,3.2,44.1,8.4,66.6,11.5c-0.3-0.8-0.4-1.3-0.6-1.8c-1-0.4-1.9-0.8-2.7-1.1c-0.1-2.8-3.3-3.1-5.5-3.6   c-19.5-3.7-39.2-6.8-58.6-10.7c-0.1-0.6-0.1-0.9-0.2-1.3c18.9,1.4,38.2,7,57.2,9.7c12.5-10,8.2,4.8,13.3,8c0.3-0.2,0.6-0.4,0.9-0.6   c0.2,0,0.5,0,0.7,0c0.3,0.9,0.9,1,1.9,0.4c1.4-3.7,1.9-10.1-2.6-11.8c0.8-0.6,1.7-0.7,2.9-0.6c0.6,0.9,1.3,1.9,2,2.9   c0.9,0,1.8-0.1,2.5-0.1c1.4,0.8,1.8,2.1,2.1,3.3c19.7,10.1,43.8,9.1,65.2,14.6c18.7,2.7,37.5,7.9,55.7,9.8c0.3,0.2,0.5,0.5,0.8,0.7   c-4.3,2.1-6.8,3.9-5.8,9.1c-0.3,0-0.7,0.1-1,0.1c-0.2-0.6-0.5-1.3-0.7-1.9c-0.6,0.1-1,0.1-1.5,0.2c0.2,4.8,1.5,10.4-0.2,14.7   c-0.8-5.2-0.6-10.5-2.5-15.5c-34.4-5.6-69.4-13.4-103.2-18c-0.1,0.9-0.2,1.9-0.3,3.1c-12,8.3-5.4,22.8-4.1,34.7   c2.8,7.7,8.4,14.3,8.8,22.7c0.9,10.5,0.4,21.3,6.7,30.4c6.5,10.8,7.4,23.5,9.1,35.7c0.1,0,0.2,0,0.4,0c0.1-2.4,0.4-4.7,1.6-6.8   c-0.8-0.6-1.4-1.1-2.2-1.7c1.8-1.1,3.6-1.9,4.2-3.9c-0.3-0.4-0.6-0.9-0.9-1.3c0.9-1,2.9-0.6,3-2c0,0,0,0.1,0,0.1   c0.4-0.1,0.9-0.2,1.2-0.3c0.8,0.4,1.5,0.7,2.1,1c-0.7-1.9,1-3,1-4.5c0.1-0.9-0.4-1.9,0.8-2.8c1.2,0,1.7,1.2,2.9,1.4   c0.5-0.6,1-1.2,1.5-1.8c0.9,0.3,1.8,0.6,2.5,0.9c0.1,0.7,0.2,1.3,0.3,1.7c2.1,0.2,1.9-2.2,3.1-2.5c4.2-0.1,8.2-1.3,12.1-0.2   c2.8-0.8,5.6-2.6,8.6-2c0.4,0.4,0.2,1.2,1.3,0.9c1-1,1.7-2.3,3.4-2.8c0.1,2.1,0.2,3.9,0.3,6c1.5-0.8,2.6-2.2,4.5-1.7   c0.2,0.2,0.4,0.5,0.7,0.9c-1,1-1.9,1.8-3.2,2.7c1.6,0.7,3.2-0.9,4.4,0.2c0,1.4,0,2.4,0,3.8c-1.9,1.4-4.3,2.5-5.9,4.3l-0.1-0.1   l0.1,0.1c-1.7,0.2-0.1,2.8-1.6,3.4c-0.2-1,0.3-2.8-1.4-1.4c-0.6-0.1-1.2-0.1-1.5,0.6c-1.7,1.4-3.8,0.4-5.7,0c0-0.2,0-0.4,0-0.6   c0.3-0.1,0.7-0.1,1.1-0.2c-0.4-0.9,0.7-1.8-0.4-2.7c-1.9,0.9-4.8,0.4-6.4-0.6c1.3,0,1.7-0.6,1.2-1.9c-1,0.3-1.2,1-1.2,1.8   c-0.7,0.1-1.6-0.3-2.2,1.1c2.7,1.1,5.5,1,7.9,2.5c-0.8,0.1-1.7-0.4-2.1,0.8c-2.2,0.4-4.6-0.4-7,1c1,1.3-1.3,1.9-0.7,3.3   c-2-0.4-3.3,0.8-4.5,2.1c-0.9,0.2-1.6,0.3-2.5,0.5c-1.2,3.7-2.9,7-5.4,9.9c0.2,2.4-1.1,4.5-1.4,6.8l0,0c-0.9-0.5-1.8-1-2.9-0.8   c-1.4-6.8-6.2-5.4-7.9,0.4c1.8,2.4,3,5.1,5.2,6.9c0.7,0.2,1.4-0.4,1.7,0.5c-0.3,0.4-0.6,0.9-0.9,1.4c0.8,1.2,1.7,2.5,2.5,3.7   c0,0.2,0,0.5,0,0.7c-0.3,0.3-0.5,0.5-0.8,0.8c-3.8-4.3-7.1-8.7-9.9-13.9c0.3,2.6-0.6,4.1,0.2,6.2c0.4,0.9,0.1,1.7-0.9,2.5   c-2.7-14.3-1.8-29-6.1-43.2c-1.5-11.2-10.2-20-10.9-31.2c-0.5-5.9-1.2-11.8-1.8-17.7c-1.6-9.4-9.3-17.1-10-27.1   c-0.2-10.1-4.8-22.3,5.7-28.8c0.3-7.8,1.9-12.9-7-15.5c-1.2,1.9-3.3,3.2-2.8,5.8c0.9,0.4,1.8,0.7,2.7,1.1c0.1,1.6,1.6,1.5,1.7-0.1   c0.8,1.3,0.7,2.6,0.5,4.1c-0.7-0.2-1.3-0.3-2.1-0.5c-1.9,1.2-3,3-5.7,2.7c1.1-1.4,1.8-2.3,2.6-3.3c-1.7-0.4-3.2-0.7-4.7-1   c-1.2-1.4-3.3-0.3-4.8,0c-1.4-2.1-4.3-0.8-6.2-1.9c-2.2,9.3,3.6,14.3,4.5,22.7c1.7,12.7,1,25.4,1.5,38.2c-0.5,11.2,4,21.3,7.3,31.6   c0.8,16.4-0.4,32.7-0.1,49.1c-0.1,10,5,19.1,9.5,27.7c3.9,8.7,0.2,18.5,2.5,27.4c2,9.5,9.5,17,9.4,26.8c9.6-2.2,17.3-7.8,24.2-14.8   c0.2,0.2,0.5,0.5,0.7,0.7c-6.1,8.4-14,14.9-24.5,16.3c-1.6,22.5,10.4,41.5,13.7,62.8c-2,3.5-3.2,7.1-4.8,10.8   c-4.3,0.4-2.1,4.1-4.3,6.4c-13.8,2.4-7.5,57.3-12.9,70.5C397.6,394.6,397.6,393.5,397.6,392.5z M378.4,14.2   c0.1,0.1,0.3,0.3,0.4,0.4c1.2-2.7-0.4-4.9-2.5-6.4c-1.6,0.1-3,0.4-4,1.8C374.7,11,376.8,12.2,378.4,14.2   C378.4,14.2,378.4,14.2,378.4,14.2z M432.6,155.3c0.1,0.6,0.2,1.2,0.3,2c0.9-0.9,2.2-1.2,1.5-2.6   C433.7,154.5,433.3,155.1,432.6,155.3c-0.1-0.4-0.2-0.9-0.3-1.4c-0.9,0.1-1.7,0.2-2.3,0.2c-0.2-0.5-0.3-0.9-0.4-1.4   c-0.8,1.1-1.8,0.4-3.1,0.6c-0.4,3.6-0.4,3.6,0.8,4.8c0.2-1.1,0.3-2.1,0.5-3.1c0.8,0.4,1.6,0.9,2.4,1.3   C430.9,156,431.8,155.6,432.6,155.3z M507.6,39.2c0.6-0.6,1.1-1.3,1.8-2C473,30.7,436,23.1,399.9,17.8c0,1.5,0,2.7,0,4.4   c35.7,6.3,71.6,13.7,107.3,18.9C507.4,40.3,507.5,39.7,507.6,39.2z M434.5,144.9c1.8-1.7,3.9-2.4,3.4-4.8   C436.5,141.6,434.6,142.1,434.5,144.9z M451.8,133.3c-0.1-0.2-0.1-0.5-0.2-0.7c-2.3-0.2-2.8,1.2-3.4,3.7   C449.7,135,450.7,134.1,451.8,133.3z M469.5,137.4c1.2-0.3,1.3-1.4,1.5-2.6c-0.9,0-1.6,0-2.4,0C469,135.8,468.8,136.7,469.5,137.4z    M432.9,136.5c3.6,0.3,3.7,0.2,3.8-2.5C435.4,135.2,434.4,135.8,432.9,136.5z M431.4,141.3c-1.8-0.1-2.3,0.8-2.9,1.8   c0.5,0.3,0.9,0.6,1.5,0.9C430.5,143.1,430.8,142.4,431.4,141.3z M464.4,128.9c-1.1,1.7-1.1,1.7-0.6,3.3c0.6-0.6,1.1-1.2,1.7-1.9   C465.1,129.9,464.9,129.5,464.4,128.9z M438.7,148.9c-0.3,1.1-0.6,2.1-1.1,3.5C440.2,150.2,440.2,150.1,438.7,148.9z M388.7,11.5   c0.7-0.7,1.3-1.2,2.2-2c-1-0.1-1.6-0.2-2.3-0.2C388.6,10.1,388.6,10.6,388.7,11.5z M433.8,162.5c-0.7,1-1.5,1.6-0.8,2.6   C434.4,164.8,434,163.8,433.8,162.5z M422.1,152.9c-2.1,0.8-1.5,1.8-1.4,3C421.6,154.5,421.4,154.8,422.1,152.9z M433.3,153.2   c1.4-0.1,1.6-0.8,1.2-2.1C434,152,433.7,152.6,433.3,153.2z M462.3,141c-0.4,0.5-0.6,0.8-1.2,1.6c1-0.1,1.4-0.2,2.4-0.4   C462.9,141.6,462.6,141.4,462.3,141z M448.7,139.3c-0.7,0.2-1.3,0.5-0.8,1.4C448.6,140.5,449.2,140.2,448.7,139.3z M456.3,135.9   c-1.4,0.1-1.4,0.1-1.1,1.4C455.6,136.9,455.9,136.5,456.3,135.9z M422.6,162.5c-0.2,0-0.4,0-0.5,0   C422.1,163.7,422.5,163.7,422.6,162.5z M436.6,157.2c0.1-0.3,0.4-0.6,0-0.8C436.2,156.6,436.2,156.9,436.6,157.2z" />
	<path fill="#010000" d="M457.7,496.7c-10.1,16.8-22.9,31.3-33.7,47.7c3.4,2.7,3.4,3,0.9,6.9c0.2,9.1-2.6,17.9-0.5,27   c3.1,7.2,0.3,14-3.2,20.5c-5.4,2.6-10.9,0.5-16.7-0.3c-1.2-2.1-2.5-4.3-3.8-6.6c-11.4,15.1-33.5-4.8-31-19.6   c-0.5-5.1,1.7-10.6,2.7-15.5c-1.4-6.8-5.2-14.1-0.4-20c6.5-1.7,5-6.4,9.6-7.6c9.1-17.1,7.7-36.1,10.5-54.3   c7.3-17.1,22.5-11.4,19.6-35.2c-19.9-8.7-14.2,6.4-22.7-8.7c3.4-10.4,2.8-21.6,7.2-32c1.9,2.7-0.2,6.5-0.5,9.5   c-2.6,7.4-0.3,15.2-4,22.2c0.7,1.1,1.5,2.1,2.2,3.2c18.9-0.8,35.8,11.4,54.9,9.3c1.3-6.1,1.7-11.9,3.7-17.8c1.9,2.2-0.3,5.8,0,8.5   c0.3,3.5-1.1,6.8-1.1,10.2c-0.9,0.6-1.7,1.1-2.5,1.7c-0.2,1-0.4,2-0.6,2.9c14.1,7,32.8,6.2,44.3-5.5c0.3,0.6,0.6,1.2,0.8,1.7   c-4.4,7.1-13,8.1-20.2,10.5c-3,4-2.6,9.4-6.3,12.8c-0.2-0.2-0.5-0.5-0.7-0.7c1.3-3,1.1-6.2,2.2-9.2l0,0c1-0.3,1.4-1,1.4-2.1   c-3.2,0-6.2,0.2-9.4-0.1l0.1,0.1c-4.3-2-8.8-3.7-13.6-4.3c-2,3-2.7,6.6-3.2,10c-3.5,2.2-4.3,5-4.7,8.6l0.1-0.1   c-9.2,9.1-11.8,19.3-12.2,31.8c-2.7,10.5-6.9,21.7-14,29.9c-8.1,44.2,38.1-30.4,44-37.4c0.2,0.3,0.5,0.6,0.7,0.9   C457.7,495.9,457.7,496.3,457.7,496.7z M409.7,540.3c0.2-1.1,0.3-2.2-0.2-3.7c-1.1,2.5-2.2,6.3,0.5,7.6   C409.8,542.5,409.8,541.4,409.7,540.3z M384.7,540.2c0.4,0.9,0.9,1.1,1.9,0.4c-1.4-0.5-1.6-1.6-2.6-2.4c-0.7-0.6-0.3-2-2.1-2.2   C382.5,537.9,383.1,539.3,384.7,540.2z M385.5,526.6c-5.6,9.5,4.2,15,12.7,13.3c4.3-39.6,18.6-30.4,25.7-59   c-0.9,1.4-1.4,2.2-1.9,3.1c-0.4,0.2-0.8,0.4-1.5,0.7c-0.3-6.3,7.4-7.7,8.9-13.4c10.7-4.2,14-15.3,17.1-25.1   c-3.5,0.1-6.7-0.1-10.2-0.6c-1.1,1.4-1.6,3.6-3.7,3.5c0.1-1.1,0.2-2.3,0.3-3.6c-6.2-1.1-12.7-4.2-18.7-4.7   c4.5,22.5-18,21.2-20.7,39.4C392.3,495.9,392.2,512,385.5,526.6z M416.2,597.2c1.2,0,2.3,0,3.3,0c4.1-7.5,5.9-15.5,1.2-22.7   c-1.9-0.5-5.3,0.9-5.6-1.7c1.7-1.5,3.9-1.2,6-1.4c0-0.6,0-1,0-1.6c-2.5-0.4-5,0.1-7.1-1.8c2.5-2.6,4.9-0.2,7.6-2.7   c-3.3-0.4-6.3,0.9-8.9-1.3c2.9-2.1,6.2-1.1,9.1-1.9c-0.1-0.5-0.1-0.8-0.2-1.3c-3.6-0.7-7.3,0.3-10.6-1.7c3.2-2.7,7.4-0.9,10.8-1.7   c0-0.4,0-0.8,0-1.4c-3.6-0.2-8.9,1.7-11-2.1c3.9-0.3,7.4-0.5,10.5-0.8c1-1.8,1.8-3.4,2.5-4.8c-3.5-2.7-6.6-1.1-9.5,0.6   c-3.2-1.1-6.2-2.7-8.2-4.4c-0.6-4.2,0.1-8,3-11.5c-3.6,1.5-5,4.1-8.2,6c-0.1,1.4,0.3,2.7,1.5,3.6c-2.5,10.5-1.2,20-0.9,30.1   c-0.7,2.9-2.4,5.2-1.8,8.4c0.3,0.3,0.8,0.6,1,0.8C404.5,592.8,402.6,597.5,416.2,597.2z M379.2,536.6c0-0.6-0.1-1.1-0.1-1.7   c-10.7,4.8-4.7,13.7-5,22.3c-4,14.5-2.9,31.4,12.8,37.6c4.3-0.7,10.2,0.1,12.3-4.5c-3.6-10-0.1-20.5-0.9-30.8   c-2.7-2.3-8.7,1.7-11.9-1c3-2.9,7.9-2.3,11.9-2.6c-0.1-0.6-0.1-1-0.1-1.5c-4.6-0.4-8.6,1-12.9-1c3.8-3,9.2-1.2,13.5-2.9   c-5-0.9-9.4,0-14.7-0.3c2.4-4.9,9.4-2.3,13.7-2.9c0.2-1.8,0.4-3.2,0.5-4.8c-4.7-0.5-9.1,0.5-13.4,1.5   C382.9,541.4,381,539,379.2,536.6z M427,478.3c-3.3,11.6-7.2,21.7-16,29.9c-5.3,5.5-9.6,20.1-7.9,26.9c1.9-2,3.9-4.1,6.2-6.5   c0.8,0,1.9,0.1,3.2,0.2c14.5-15.4,8.8-39,20.6-55.5C430,473,428.9,477.1,427,478.3z M436.5,469.9c-0.5,0.1-0.6,0.8-0.9,1.2   c0.3,0.1,0.5,0.3,0.8,0.4C436.6,471,437.2,470.4,436.5,469.9z M400.4,570.3c-0.2,0-0.3,0-0.5,0c0.1,0.5,0.1,1,0.2,1.4   c0.1,0,0.3,0,0.4,0C400.4,571.3,400.4,570.8,400.4,570.3z M381.3,531.3c-0.1-0.1-0.3-0.2-0.4-0.2c-0.2,0.3-0.5,0.6-0.7,0.8   c0.2,0.1,0.5,0.3,0.7,0.4C381,532,381.2,531.6,381.3,531.3z M410.9,531.5c0-0.2,0-0.3,0-0.5C409.6,531,409.6,531.4,410.9,531.5z" />
	<path fill="#010101" d="M492.6,443.2c-0.5,0.5-1.1,0.9-1.6,1.4c-0.5-2.9,0.2-6.8-1.4-9.1c-0.2,0.2-0.4,0.5-0.6,0.7   c0,0.5-0.5,0.9-0.7,1.3l0,0c-0.3-0.3-0.5-0.6-0.8-0.8c3.4-7.3,2-16.3,1.8-24.5c-0.9,2-1.8,3.9-2.7,5.9c4.4-14,2.1-29.3,1.6-44.1   c2.8-12.1,2.1-26.7-4.8-36.3l-0.1-0.1c0.3-1.5-1.7-0.5-1.7-1.7c-0.4,0.1-0.8,0.2-1.2,0.4c-0.2-1,0.3-2.8-1.2-2.7   c-1,0-2.2-0.7-3.1,0.5c-1.4,0.6-3.2-0.5-4.1,0.9c0,0-0.1-0.1-0.1-0.1c-0.5,0.5-1,0.9-1.4,1.4c-0.1-0.4-0.2-0.8-0.3-1.2   c-2.5,0-4.9,0-7.3,0c-0.1,1.1-0.2,2.1-0.3,3.3c-0.4-0.3-0.5-0.4-0.7-0.6c0.1-1.1,0.4-2.2-0.7-2.9c-3.3,0.2-6.2-0.4-9.5-0.9   c-0.3,2.1-0.1,3-1.7,4.5c-0.1-2-0.2-3.4-0.2-4.8c-4.3-1-7.4-2.7-11.6-3.9c-0.2,1.3-0.3,2.4-0.4,3.6c-0.7,0.3-0.7,0.9-0.5,1.5l0.1,0   c-0.3,0-0.6-0.1-0.9-0.1c0-0.7,0.1-1.4,0.1-2.1c1.3-1.5,1-4.8-1.4-4.2c-1.2-1.2-2.7-1.7-4.3-2.1c-1-1.4-3.4-0.6-4.9-1.3   c-2-1.8-5.1-1.9-7.2-3.8c-0.3-0.6-0.8-0.7-1.4-0.7c-0.5-0.4-1.6-0.4-0.8-1.5c20.4,6,41.8,19.5,63.4,11.4c2.9-4.5,1.2-10.1,2.7-15.1   c1.6-7.2,2.7-14,2-21.2c6.3-15.8,11.6-33,6.3-49.8c-4.9-1.8-14.5-13.9-12.3-18.5c0.8,1.4,1.7,2.8,2.4,4.2c0.8,0.1,1.5,0.1,2.3,0.2   c0,1.3,0,2.4,0,3.5c3.4,5.3,4.9,6.7,8.1,7.7c-0.3-2-0.6-4-0.8-5.7c-0.6-0.2-1-0.4-1.6-0.6c8.8-17.3,7.6-20.9,8.2-39.1   c3.7-14.5,10.9-16.1,10.4-34.4c0.4-25-4.1-25.6,6.4-50.8c1.8-14-1.1-28.7,2.4-42.5c0.9-0.6,0.6-1.5,0.5-2.3   c0.1-4.1,3.5-6.9,5.8-9.8c0.7,0.2,0.6,0.8,0.7,1.4c-2.3,3-2.7,6.5-5.3,9.3c-3.6,16.9,1.7,35.1-4.2,51.6   c-5.1,12.6-6.7,14.5-4.2,28.6c1.3,18.6-0.1,30.8-9.9,46.6c-0.8,13.4-0.4,26.3-7.3,38.4c2.9,16.3,4.3,34.6-1,50.5   c-5.4,14.4-5.2,30-8.3,45c1.9,11.9,11.3,21.8,9.2,34.3c-3.3,14.4-0.5,28.7-0.2,43.2C493.1,417.8,490.7,430.9,492.6,443.2z" />
	<path fill="#050404" d="M523.2,32.7c1.3,0.4,2.7,0.8,4.2,1.3c0.4,1.4,0.8,2.8,1.3,4.4c3.6,2,51,6.8,43.9,10.1   c-14.1-2.9-28.3-5.2-42.4-7.8c-1.4-0.3-2.6-0.2-3.3,1.3c-0.8,0-1.6,0-2.4,0c-0.7,0.6-1.3,1.2-2.1,1.9c16.6,4.1,33.8,6.1,50.7,9.6   c0,0.5,0,1,0,1.9c-15.9-2.6-31.1-5.5-46.9-8.3c-1,1.4-0.4,2.9-0.8,4.2c-0.9-0.5-0.5-1.4-0.6-2.2c0.5-2.9-3.1-2.9-5.2-3   c-0.2,0.6-0.3,1.1-0.5,1.6c0,0,0.1-0.1,0.1-0.1c-1-0.9-2-1.8-3-2.6c0-0.5,0.1-1.1,0.1-1.6c1.2-0.7,2.4-1.4,3.5-2.1   c0.1,0.5,0.2,1,0.4,1.8c1.2-0.9,2.1-1.7,3-2.3c0.4-2.6,0.6-6-1.9-7.4C521.6,32.4,522.5,32.8,523.2,32.7z M524.7,35.6   c0.1,1.5-0.6,3.1,0.8,4.5C527.4,39.1,527,35.1,524.7,35.6z" />
	<path fill="#90A2C4" d="M312.1,0c0.1,0.4,0.1,0.7,0.2,1.3c19.4,3.9,39.1,7.1,58.6,10.7c2.1,0.5,5.3,0.8,5.5,3.6   c-16.7-2.5-33.4-6.1-50.1-8.7c-3.4-0.1-13.7-4.6-14.9-1.3C309.9,3.9,310.8,1.5,312.1,0z" />
	<path fill="#7989B1" d="M311.4,5.6c1-3.3,11.7,1.2,14.9,1.3c17.5,3.3,35.6,5.5,52.8,9.8c0.1,0.4,0.3,1,0.6,1.8   c-22.4-3.1-44.2-8.3-66.6-11.5c-0.1,0.7-0.2,1.1-0.2,1.5C311.2,8.1,312.9,6.1,311.4,5.6L311.4,5.6z" />
	<path fill="#90A2C4" d="M526.7,41.9c0.7-1.5,1.9-1.5,3.3-1.3c14.1,2.7,28.3,5,42.4,7.8c0,1.1-0.1,2.3-0.1,3.4   C558.3,45.8,540.8,47.9,526.7,41.9z" />
	<path fill="#7989B0" d="M526.7,41.9c14.1,6,31.5,3.9,45.7,10c0.2,0.5,0.3,1,0.5,1.5c-16.8-3.5-34-5.4-50.7-9.6   c0.8-0.8,1.4-1.3,2.1-1.9C525.1,41.9,525.9,41.9,526.7,41.9z" />
	<path fill="#121010" d="M457.7,495.5c-0.2-0.3-0.5-0.6-0.7-0.9c2.3-5.8,4.7-11.7,4.2-18.2c-0.4-3.8,2.6-6.3,4.9-8.9   c0.2,0.2,0.5,0.5,0.7,0.7c-5.7,8.5-2.5,18.3-8.6,27.1C458.1,495.4,457.9,495.4,457.7,495.5z" />
	<path fill="#181110" d="M523.2,32.7c-5.7,0.1-0.1,8.6-8.1,9c0.4,0.7,0.7,1.2,1,1.7c0,0.5-0.1,1.1-0.1,1.6c-5-3.5-0.5-4.3,2.2-6.5   c-0.8-1.4-1.7-2.4-3.5-2.3c-0.3-0.2-0.5-0.5-0.8-0.7c1.2-1.5,2.9-0.1,4.3-0.8c0.5-1.7-0.9-2.5-2.3-2.6c-0.3,0.8-0.5,1.3-0.7,1.8   c-2.9-2.1-2.9-2.1-6.3-1.6c-0.3,0.7-0.7,1.5-1.1,2.4c-1.5-0.1-3.3,0.6-4.5-0.6c0.9,0,1.9,0,2.9,0c0.9-1.2,1.9-2.3,2.7-3.5   c3.1,0.2,6,0.3,8.9,0.5C519.3,32.5,522,31.2,523.2,32.7z" />
	<path fill="#2A2221" d="M384.1,17c-0.2,0-0.5,0-0.7,0c-0.1-3.7-1.3-7-3.5-9.9c-1.1,0.4-1.1,0.4-1.5,1.3c-0.5-0.7-1-1.3-1.5-2   c1.8,0.1,3-1.6,4.8-0.5c0.4,0.2,1.1-0.2,1.6-0.3c0.5,0.3,1,0.5,1.5,0.8c-0.9,0.3-1.7,0.6-2.5,0.9C383.8,10.4,385,13.6,384.1,17z" />
	<path fill="#2C2B2A" d="M523.9,47c1.7,0.9-0.2,3.2,1.4,4.3c0.8,2.6-0.5,4.5-2.1,6.4c-0.1-0.5,0-1.2-0.7-1.4   C524.7,53.5,523.8,50.2,523.9,47z" />
	<path fill="#191A24" d="M397,402c0-1.1,0.1-2.1-0.8-2.9c0.1-2.3,0.5-4.5,1.3-6.6c0,1.1,0,2.1,0.7,3   C397.8,397.6,397.9,400.1,397,402z" />
	<path fill="#FBDFD3" d="M458.3,495.2c0-0.7-0.1-1.5,0.7-1.9C459,494,459.3,494.9,458.3,495.2z" />
	<path fill="#90A2C4" d="M311.4,5.6c0.8,0.3,0.7,0.9,0.7,1.5C311.8,6.6,311.6,6.1,311.4,5.6z" />
	<path fill="#FBDFD3" d="M457.7,495.5c0.2-0.1,0.4-0.1,0.6-0.2c0.1,0.6,0.1,1.1-0.6,1.4C457.7,496.3,457.7,495.9,457.7,495.5z" />
	<path fill="#FBDFD3" d="M459.2,493.1c0.2-0.2,0.3-0.4,0.5-0.6C459.5,492.8,459.3,492.9,459.2,493.1z" />
	<path fill="#CCD2E9" d="M477.5,227.3c2.6,6.7,6.2,13.8,13,17c6.8,24.6-3,32.9-6.3,53.3c0.9,1.7,0.5,3.2,0.3,4.8   c-2.5,9.2-1.8,19.3-5,28.1c-7.3,3.2-16.3,2.6-24.1,1.6c-9.4-16-5-25.2-9.3-39.8c-0.9,1.4-3.4,1.5-3.4,3.4c0,11.2,1.7,22.3,2.1,33.5   c-5.3-1.6-10.4-3.9-15.7-5.8c-0.1-3.8,1.3-8,0.7-12.1c3.4-5.6,0.5-12.8,0.2-19c9.1,2.4-0.5-8.4,0.1-12.2c1.9,0.5,4.2,1.1,6,0   c0-1.1,0-2.2,0-3.3c-4.2-4.6-6.7-10.7-11.5-14.8c-0.9,0.2-1.9,0.4-3,0.6c-4.3-6.4-0.7-14.4-4.1-20.7c2.2-1.8,4.4-3.6,6.6-5.4   c6.1,0.1,6.9,9.2,13.2,8.3c0.4-5.1,0.4-10.9-3.3-14.6c0-2.7-0.2-5.2,0.7-7.7c6.8-8.7,4.5-22.8,2.1-33c0.2-0.2,0.5-0.5,0.7-0.7   c11,14.7,18.5,31.6,26.3,47.9c0.2,1.5,2.7,1.6,2.3-0.2c0.2-0.2,0.2-0.3,0.1-0.5c2.6-12.6,1.1-26.5-4.2-38.5   c0.9-0.4,1.8-0.9,2.8-1.4C470.2,206.4,472.9,217.1,477.5,227.3z M478.4,315.1c0.8-2.2,0.6-4.5,0.5-7.1c-1.6,0.9-1.4,2.2-1.2,3.4   c0.4,2.4-2.1,7.9,0.6,8.8C478.3,318.5,478.3,316.8,478.4,315.1z M464.6,260.8c0-2.9,0-2.9-1.2-5c-0.1,7.3,0.9,12.9,0,20.4   C465.7,271,464.5,266.2,464.6,260.8z M479.6,287.3c0.7,5.2-1.9,9.9-2,14.9c3.4-3.8,5.8-15.3,1.4-19.9   C478.9,284.1,478.7,285.8,479.6,287.3z M450.5,276.8c4.1-1.9,7.5-6.3,9.8-12.2C456.7,264.9,453.3,273.7,450.5,276.8z M462.9,293.6   c1.4-1.8,1.8-11.4,0-12.6C462.2,284.7,462.2,290.9,462.9,293.6z M448.6,277.9c-2.7,1.7-3.7,9.5-2.8,10.4   C447.4,285.4,448.8,280.4,448.6,277.9z M463.6,244.4c1.9,2.1,4.7,2.6,8,2.6C469.1,244.8,466.7,244.1,463.6,244.4z M474.6,329.5   c1.4-1.2,6.2-8.3,3.1-7.9C477.5,324.2,474.9,326,474.6,329.5z M477.9,253.4c-0.6,2.5-0.6,2.5,0.5,3.8   C479.9,256,479,254.4,477.9,253.4z M475.8,252.2c0.4-1.5,0.4-1.5-1.9-2C474,251.6,474.8,251.9,475.8,252.2z M461.9,311   c1-1.2,0.9-1.8,0-2.8C461.9,309.3,461.9,309.9,461.9,311z" />
	<path fill="#FBDFD3" d="M382.7,21.2c1.5,0.3,3,0.6,4.7,1c-0.8,1-1.5,1.9-2.6,3.3c2.7,0.3,3.7-1.5,5.7-2.7c0.8,0.2,1.4,0.4,2.1,0.5   c1.6-3.6,0.1-5.9-2.6-8.2c-0.1-0.7-0.1-1.2-0.1-1.6c0.3-0.4,0.5-0.7,0.8-1.1c8.9,2.6,7.3,7.7,7,15.5c-10.5,6.5-5.9,18.6-5.7,28.8   c0.7,10,8.4,17.6,10,27.1c1.6,9.8,0.2,20.5,5.3,29.3c8.9,17.5,11.9,37.7,12,57.1c-6.7,5.8-1.6,18.3-0.2,25.8   c-0.6,1.5-0.7,3.2-1.9,4.4c1,4.8,0.8,9.7,0,14.5c0.3,0.4,0.6,0.9,1,1.4c-0.5,0.5-1.6-0.1-1.7,1.1l0,0c-0.9,0.6-0.9,0.6-0.2,1.4   c0.5,2.2-0.2,4.6,0.7,7.1c0.6-0.6,0.9-1,1.3-1.5c2.3,3.3,0.3,8.9,1,13c-0.6,0.5-1.3,1-1.9,1.5c-4.9-2.2,3.5-15.7-2.9-11.3   c-1.3-2.4-2.5-4.8-3.7-7.1c-1.2-0.2-2.1-0.4-2.8-0.6c-5.3-8.5-5.4-19-7.1-28.4c2.8-1.9,5.6-4.1,4.8-7.8c-4.2-5-6.5-11.8-12.7-14.5   c-4.4-18.3-2-37.5-3.6-56.2c7.8-3.7-3.1-12.6-4-18c-2.7-16.9-3.4-34.2-3.6-51.4c2.9,0.4,5.2-1.2,4.4-4.4c0.9-0.9,4.6-2.9,2.6-4.2   c-1,0.9-2,1.8-3,2.7c-2.9-2.7-6-4.5-10.1-4.7c-2.5-3.6-1.2-8-3.5-11.6c-0.4-0.5-0.1-1.4,0.7-1.7c5.3-0.7,6.5,4.1,8.9,7.4   c1.1-3-0.9-4.4-2.4-6.4c0.3,0,0.7,0,1,0C381.1,21.4,381.9,21.3,382.7,21.2z M406.1,159c0.2,0.8-0.2,2,1.3,2c0.6-1.1,0.7-2.1-0.3-3   c-0.9-2.2,1.4-4.7-1.4-6.3C405.1,154.1,405.2,156.8,406.1,159z M404,144.1c1.2-0.9-0.2-9.5-1.7-10.2   C401.7,137.5,401.5,141.5,404,144.1z M397.3,99.4c-1.4,2.6-2,4.4-1.6,6.9C398.3,105.3,397.9,102.4,397.3,99.4z M417.1,197.8   c0.6-1.9,0.6-3.5-1.4-3.9C415.2,195.3,415.8,196.3,417.1,197.8z M404.9,145.3c-0.7,1.6-0.4,2.7,0.2,3.7   C406.5,147.8,406.5,147.8,404.9,145.3z M403.7,113.1c1.4-0.6,1.1-1.6,0.7-2.7C402.9,111,403.5,112.1,403.7,113.1z M402.4,117.3   c1.1-0.7,1.1-0.7,0.6-2.4C401.9,115.8,401.9,115.8,402.4,117.3z M406.6,165.4c1.4-0.1,1.6-2,0.2-2.1   C405.8,163.6,406,164.6,406.6,165.4z M397.1,94.5c2-0.2,1.3-1.3,0-2.4C397.1,93.3,397.1,93.9,397.1,94.5z M385.1,48.6   c0.1,0.8,0.1,1.6,1.2,1.8C386.5,49.5,386.7,47.7,385.1,48.6z M397.1,96.2c0,0.7,0,1.2,0,2.1C398.2,97.4,398.2,96.9,397.1,96.2z    M407.8,169.7c-0.5-0.7-1-1-1.4-0.2C406.5,170.3,407.1,170.2,407.8,169.7z M385.5,45.7c0.8-0.5,1-1.3,0.2-1.3   C385.7,44.7,385.6,45,385.5,45.7z" />
	<path fill="#FBDFD3" d="M523.9,47c2,7.7-4.7,11.4-7.2,17.8c-0.7,0.2-1.3-0.2-1.9-0.5c-1.9,2-0.4,4.5-1.7,6.8   c-0.8,2.1-0.8,2.1-0.2,3.7c0.5-1.2,0.6-2.3,1.7-2.9c0.2,0,0.5,0,0.6,0c-2,12.8,0,26.2-1.6,39c-10.5,25.3-6,25.8-6.4,50.8   c0.5,18.2-6.7,19.9-10.4,34.4c-0.6,18.1,0.6,21.9-8.2,39.1c0.6,0.2,0.9,0.3,1.6,0.6c0.3,1.7,0.5,3.7,0.8,5.7   c-3.3-0.9-4.7-2.3-8.1-7.7c0-1.1,0-2.2,0-3.5c-0.8-0.1-1.5-0.1-2.3-0.2c-6.2-11.4-8.6-24.8-15.4-36c0.6-1.7,1.1-3.1,1.6-4.6   c5-1.8,5.1-16.6,10.6-19.6c0.3,4.7-0.8,11,2.3,14.6c3.3,12,3.1,25.4,3.8,38c4.7-14.5-1.8-30.9,0.4-45.8c1.9-15.6,5.1-31.2,6.4-46.9   c1.9-4.7-1.2-11,2.6-14.8c-0.6-8.4,7.3-12.3,8.2-19.9c2.4-11.8,4.7-23.6,6.7-35.6c2.3,0.5,3.5,2.5,5.9,2.3c0.2,0.3,0.4,0.6,0.7,1   c1.4-1.3,1.9-2.7,1.4-4.6c-1-0.1-1.6,0.1-2.5,0.3c-0.9-4.9-6.7-8.1-4.6-13.4c0.2-2.3-0.9-5.4,1.7-6.6c2.5-1.6,6-4.2,7.6-0.2   c-7.4,4.1-4,4.7,0.9,9.1c-0.9,1.5-0.5,3.4,1.1,4.2c0.4-2.7,0.7-3.5-1.2-4.1c0.2-0.5,0.3-1,0.5-1.6C521,46.2,522.6,46.1,523.9,47z    M495.8,177.7c2.2-1.9,3.4-6.4,1.3-8.9c-1.6,2.6-1.5,5.4-2.3,8.3C495.3,177.4,495.6,177.5,495.8,177.7z M496,122.2   c-0.3-2.6,0.4-4.7-0.9-6.8C493.5,117.4,493.6,120.3,496,122.2z M497,168.1c1.7-0.2,1.9-4.7,0.1-4.7   C496.4,164.9,496.6,166.5,497,168.1z M482.5,228.9c1.5-2.3,1.5-4-0.6-5.6C481.8,225.4,481.4,226.9,482.5,228.9z M510.5,117.2   c-2.4,1.6-2.4,1.6-1.9,3.7C510.1,120.4,510,119.1,510.5,117.2z M498.4,157.5c-0.3,2-1.1,2.4,0.2,3.8   C499.1,160,500.1,159.1,498.4,157.5z M500.6,153.4c-1.2,0.9-1.2,0.9-0.3,2.4C501.2,154.7,501.2,154.7,500.6,153.4z M501.4,150.2   c1.3,0.3,1.7-1.5,0.6-2C501.1,148.1,500.9,149.4,501.4,150.2z M499.6,127.3c-0.2-2.2,0.6-2.2-1.6-2.5   C498.6,125.7,498.9,126.2,499.6,127.3z M501.8,128.9c-0.1-0.6-0.1-1-0.2-1.5C500.3,127.3,500.5,128.6,501.8,128.9z M511.4,111.7   c-0.6,0.4-1.2,0.7-0.6,1.2C511.7,112.9,511.7,112.6,511.4,111.7z M497.1,122.2c-0.6,0.3-0.2,1.6,0.2,1.6   C497.4,123.2,497.8,122.7,497.1,122.2z M510.4,115.4c-0.1-0.2-0.2-0.4-0.2-0.6c-0.5,0.2-0.4,0.5-0.2,0.9   C510.1,115.6,510.2,115.5,510.4,115.4z" />
	<path fill="#4B65C5" d="M397,402c7.4-24.6,0.1-51.9,10.7-75.8c3.2-4.8,15.1,7,19.2,8.6c3.5,0.7,7,0.6,10.1,2.3   c0.5,14.2-0.5,28.2-3.4,42c-2.8-11.7-5-24.3-4.4-36.7c-5.6,10.1-2.4,23.5-4.7,34.6c-0.7,14,7.4,26.9,5.9,41.2   c-4.1-8.1-4-17.5-7.2-25.9c-1.6,15.5-0.8,32,0.3,47.4c-6.9-1.9-13.8-3.8-20.7-5.7c-0.1-19.5,9.6-38.7,8.3-58.7   c-2.2,12.1-2.6,26-7.4,36.9c-0.9-1.5,1.7-8.1-0.9-7c-0.3,9.4,1,19.5-1.5,28.7c-2.4,0-4.7,0-7.2,0c-0.7-1.1-1.4-2.1-2.2-3.2   C395.4,421.7,394,411.5,397,402z M403.3,379c-1.2,1.9-0.5,4-0.6,6.5c4.3-15.6,5.4-33.3,9.5-49.6c0.4,0.3,0.7,0.5,1,0.8   c0.2-1.4-0.1-2.2-1.4-2.4C408,348.8,405.4,364.1,403.3,379z" />
	<path fill="#EECABA" d="M416.2,230.8c-1,2.6-1.4,6.1,1,8c-2,1.9-4.8,2.1-7.4,2.7c0.2-2.3-1.1-3.7-2.9-4.9c0.4-0.1,0.8-0.2,1.5-0.4   c-0.6-0.5-0.9-0.7-1.4-1c-0.1,1.1-0.3,1.5-1,2.2c-3.8-7.9-8.2-15.9-9.9-24.6c-0.4-8.1,1.4-16.6-1.8-24.3   c-15.5-22.9-7.3-51-9.4-76.8c-10.3-22.1-6.2-46.4-8.8-69.8c-0.9-8.5-6.7-13.4-4.5-22.7c0.4,0.2,0.8,0.3,1.2,0.5   c-0.8,0.3-1.2,1.2-0.7,1.7c2.2,3.6,0.9,8,3.5,11.6c4,0.2,7.1,1.9,10.1,4.7c0.1,0.8,0.8,0.7,1.3,0.8c-0.7,0.6-1.3,0.7-2.3,0.8   c0.1,1.3-0.6,2.6,0.8,3.4c-1.1,1-2.6,0.7-3.9,0.8c0.2,17.2,0.9,34.5,3.6,51.4c0.9,5.4,11.8,14.3,4,18c1.5,18.7-0.9,37.9,3.6,56.2   c6.1,2.7,8.5,9.6,12.7,14.5c0.8,3.7-2,5.9-4.8,7.8c1.6,9.4,1.8,19.9,7.1,28.4c0.7,0.2,1.7,0.3,2.8,0.6c1.2,2.3,2.4,4.7,3.7,7.1   c0.8,0,1-1.3,2-0.9c0.7,0.3,0.7,0.8,0.7,1.5c-0.3-0.3-0.7-0.6-1.3-1.1c-0.3,1.5-0.4,2.5-0.6,3.7   C415.5,230.7,415.8,230.8,416.2,230.8z M414.3,232c-1.3,1.8-1.3,3.1-0.7,4.7C415.3,235.4,415.3,234,414.3,232z M387.6,112.1   c0.5-1.5-0.2-2.4-1.3-3.2C385.5,110.5,385.7,110.9,387.6,112.1z M409,232.7c-0.1-0.3-0.3-0.3-0.4,0   C408.7,232.9,408.8,232.9,409,232.7z" />
	<path fill="#FBDFD3" d="M468.9,161.6c0,0.6,0,1.1,0,1.7c-0.2,0.1-0.4,0.1-0.8,0.2c0.4,10.5-1,21.1-4.3,31.2   c-0.7,0.6-1.7,0.8-1.9,1.9c-14.1,3-25.8-8.5-28.9-21.4c-0.8,1.1-0.2,2.3-0.2,3.6c-0.3,0.2-0.5,0.5-0.8,0.7   c-0.8-1.2-1.7-2.5-2.5-3.7c0.3-0.5,0.6-0.9,0.9-1.4c-0.4-0.9-1-0.3-1.7-0.5c-0.4-0.4-0.9-1-1.4-1.6c1.6-1,2.9-0.3,2.7-2.7   c0.5-0.5,0.9-1,1.4-1.5c0.3,0.9,0.7,1.8,1,2.8c1.4-0.8,1.7-2.1,1.9-3.5l0,0c3.4-1.7,2.3-5.2,2.1-7.9c2.5-2.3,3.3-5.7,4.7-8.8   c0.9-0.2,1.7-0.3,2.5-0.5c1.1-1.3,2.4-2.4,4.5-2.1c-0.6-1.4,1.6-2,0.7-3.3c5.4-2.7,11.1,1.2,16.2-1.7c0.4,0.3,0.9,0.6,1.3,0.9   c-0.1,0.2-0.1,0.4,0.1,0.6c-0.1,3.5,0.4,6.8,2.5,9.6c-0.1,0.8-0.3,1.6-0.4,2.4c-4.2,0.9-10.3,6.3-5.8,10.1c0.1-1.4,0.1-2.5,0.2-3.6   l0,0C465,163.3,467,163.2,468.9,161.6z M456.8,187.3c-2.1,2.6,5.2,1.7,6.6,0.7c-0.1-1.1-0.3-2-0.6-3.1c0.9-1.1,1.4-1.4,2.9-2.4   c-4.1-1.8-8.1,0.5-12.5,0.7c-0.7,3.4,3.2,0.9,4.4,2.7C456.8,186.1,456.8,186.7,456.8,187.3z M452.5,160.3c-1.6,1.8-7.4,0.2-7.6,3.3   c2.8,0,5.6,0,8.3,0c0.7-1,1.2-1.7,1.7-2.5c0.6,0,1.3,0,2.2-0.1c-0.6-1.1-1-1.9-1.4-2.7c-4.4-1.1-9.6-1.3-13,2.2   c0.7,1,1.3,0.6,1.9,0.2C447,158.5,449.8,160.6,452.5,160.3z M457.3,176.3c0.6,0.4,1.2,0.8,1.8,1.2c1.3-1.6,5.3,0.3,4.8-2.6   C461.1,174.3,460.9,174.3,457.3,176.3z" />
	<path fill="#B7BDD5" d="M417.5,242c3.4,6.4-0.1,14.4,4.1,20.7c1.1-0.2,2.1-0.4,3-0.6c4.8,4.1,7.2,10.2,11.5,14.8c0,1.1,0,2.2,0,3.3   c-1.8,1-4.1,0.5-6,0c-0.6,3.8,9,14.6-0.1,12.2c0.3,6.1,3.2,13.4-0.2,19c0.6,4.1-0.8,8.3-0.7,12.1c-4.4-1.8-9.6-2.4-13.5-4.9   c1.6-3.6,2.8-7.3,4.8-10.8c-3.3-21.3-15.3-40.4-13.7-62.8C410.2,243.7,414,243.5,417.5,242z M426.4,271c-0.9-2.2-2.5-4-4.6-5.3   C421,267.8,424.1,270.4,426.4,271z M424.3,281c-1.1-2.2-1.1-2.2-2.5-2.9C421.9,279.5,422.3,280.5,424.3,281z M428.6,285.1   c0.6,1.2,0.6,1.1,2,1.3C430.3,284.9,430,285,428.6,285.1z M431.5,274.7c1-1.1-0.1-2.2-0.8-1.2C430.8,273.8,431.1,274.1,431.5,274.7   z M426.5,282.4c-0.6,1-0.1,1.3,0.7,1.6C428,282.9,427.1,282.7,426.5,282.4z M428.9,272.3c0.1-0.2,0.1-0.3,0.2-0.5   c-0.4-0.2-0.8-0.4-1.2-0.5c-0.1,0.2-0.1,0.4-0.2,0.6C428.1,271.9,428.5,272.1,428.9,272.3z" />
	<path fill="#EECABA" d="M479.8,184.6c-2.8-3.1-1.9-8.8-2.3-12.9c1.5-0.5,0.9,1.8,2.7,1.3c-0.2-13.1,0.5-26.4,4.8-39   c3.5-9.5,1.2-20.4,7.5-28.9c6.3-10.2,7.2-22.2,9.5-33.6c4-9.1,6.1-18,3.6-27.7c0.5-0.1,0.9-0.1,1.5-0.2c0.3,0.7,0.5,1.3,0.7,1.9   c0.3,0,0.7-0.1,1-0.1c-2.2,5.3,3.7,8.5,4.6,13.4c0.4-0.1,0.8-0.2,1.3-0.3c-0.3,1.2-0.5,2.4-0.8,3.6c-2.4,0.2-3.6-1.7-5.9-2.3   c-2.1,12-4.3,23.8-6.7,35.6c-1,7.5-8.8,11.5-8.2,19.9c-2.6,2.1-1.7,5.8-1.9,8.9c-1.5,21.2-7,42.1-7.8,63.4   C482.4,186.2,481.7,183.3,479.8,184.6z M480,174.5c-1.5,2.2-1.5,2.8,0.2,4.2C481.2,177.4,481.4,176.1,480,174.5z M479.3,182.5   c1.7-1,1.7-1.7,0.2-2.7C478.9,181.1,478.9,181.1,479.3,182.5z" />
	<path fill="#EECABA" d="M417.1,200.4c1.2-1.2,1.2-2.9,1.9-4.4c-1.4-7.6-6.5-20.1,0.2-25.8c0.5,2,0.9,3.5,1.4,5.6   c2.3-1.5-0.1-3.1,0.7-4.9c6,17.1,4.1,37.5,10.8,54.3c-2.7,5.4-8.3,8.5-13,12c-0.7-4.1,1.3-9.7-1-13c0.1-2.4,0.8-4.8-0.7-7   c-0.5,0-0.8,0.1-1.2,0.1c0.1-1.1,1.2-0.6,1.7-1.1c-0.4-0.5-0.7-0.9-1-1.4c4.4-2,2.8-10.7,1.1-14.6   C417.7,200.4,417.4,200.4,417.1,200.4z M420.8,178.9c-1.3,1.5-1.3,2.8-0.2,4.2C422.4,182,422.1,180.3,420.8,178.9z M421.5,185.9   c-1.4,1.7-1.4,1.7-0.1,2.6C422.1,187.4,422.1,187.4,421.5,185.9z" />
	<path fill="#FBDFD3" d="M432.1,225.3c-3.5-6.6-4-14.2-4.5-21.7c-1.1-12.4-5.3-24.6-6.3-36.5c3.4,7.6,10.4,12.6,13.5,20.2   C437.7,199.6,440,214.5,432.1,225.3L432.1,225.3z" />
	<path fill="#030303" d="M506.1,48.9c2.8,7.5-1.9,15.3-4.1,22.4c-2.3,11.4-3.2,23.4-9.5,33.6c-6.3,8.6-4,19.4-7.5,28.9   c-4.3,12.7-5,25.9-4.8,39c-1.4,0.5-1.2-0.9-1.9-1.3c-0.5-2,0.7-5.7-0.8-6.8c-6.6,5.8-9.6,10.6-9.2,19.6c-2.4-6.4,0.9-14.2-0.2-21   c0.4-0.1,0.6-0.2,0.8-0.2c0,0,0,0,0,0c0.7,1.6,0.9,2.7,1,4.7c2.6-2.2,4.9-4.2,7.6-6.4c-1.6-12.8,5.3-23.7,7.1-35.7   c-1-9.5,4.2-17.4,7.8-25.7c6.9-13,5.2-28.8,13-41.6C507,55.8,505.7,51.9,506.1,48.9z" />
	<path fill="#91A2C4" d="M399.9,19.9c0-0.7,0-1.4,0-2.1c36.2,5.3,73.1,13,109.5,19.4c-0.6,0.7-1.2,1.4-1.8,2   C471.7,33,435.7,26.5,399.9,19.9z" />
	<path fill="#798AB2" d="M399.9,19.9c35.9,6.7,71.8,13.2,107.7,19.3c-0.1,0.6-0.2,1.1-0.4,1.9c-35.7-5.2-71.6-12.6-107.3-18.9   C399.9,21.2,399.9,20.5,399.9,19.9z" />
	<path fill="#B6BDD5" d="M434,225.2c0,1.7,0,3.3,0,5.1c3.7,3.7,3.7,9.5,3.3,14.6c-6.3,0.9-7.1-8.2-13.2-8.3   C427.8,233.1,430.9,229.1,434,225.2z" />
	<path fill="#0E101F" d="M436.9,337.1c-9.6-1.8-17.5-6.7-25.7-12.2c0.2-0.2,0.5-0.5,0.7-0.7c2.7,1.4,5.1,3.2,8,4.3   c1.1-1.2,0.2-3.1,2.2-4.1c-0.1,2-0.3,3.7-0.4,5.6c0.4,0.2,0.9,0.4,1.6,0.7c0.6-2.3,1-4.1,1.4-6.4c0.3,0.3,0.6,0.5,0.9,0.8   c0.1,2.2-0.2,4.4-1.5,6.4c1.2,0.8,2.2,1.4,3.4,2.2c0.9-2.3,2.5-5.7,1.5-8c3.3,0.1,0.3,5.7,0.7,8.2c1,0.1,1.8,0.2,2.7,0.3   c1.1-2.3,1.1-4.6,0.8-7c0.6,0.4,1.1,0.9,1.7,1.3c-0.2,2.1-0.5,4.1-0.7,6.3c3.7,0.2,7.3,1.6,9.9,4.3   C441.5,338.8,439.3,337.8,436.9,337.1z" />
	<path fill="#110F0F" d="M434.7,187.4c-0.7-2.4-2.3-4.3-3.6-6.4c0.3-0.3,0.5-0.5,0.8-0.8c0.4,0.1,0.8,0.3,1.6,0.6   c-0.7-2-1.5-3.7-0.6-5.6c2.3,7.8,6.5,14.7,11.8,20.9c0,1.4,1.1,2,1.9,2.7c0.3,0.6,0.3,1.4,1.1,1.5c0.2,0.2,0.3,0.4,0.5,0.7   l-0.1-0.1c0.4,2.7,3.3,3.4,4.3,5.7c-0.2,0.2-0.4,0.5-0.7,0.7c0,0,0-0.1,0-0.1c-0.3-0.4-0.7-0.8-1.1-1.2c-0.4,1-0.7,1.9-0.9,2.7   c-2.6-8.1-9.5-13.8-13-21.4C436.1,186,435.5,187.3,434.7,187.4z" />
	<path fill="#425AB0" d="M424.6,324.3c-0.4,2.2-0.8,4-1.4,6.4c-0.7-0.3-1.2-0.5-1.6-0.7c0.1-1.9,0.3-3.6,0.4-5.6   c-2,0.9-1.1,2.9-2.2,4.1c-2.8-1.1-5.3-2.9-8-4.3c0.3-1.2,0.5-2.4,0.8-3.5c0.7-0.2,1.4-1.5,2.1,0c-1,1.1-1.3,3.5,0.6,3.6   c0,1.6,1.3,1.4,1.6,0c0.3,0.8,0.8,1.4,1.4,2c1.5-0.7,0.9-2.8,2.1-3.6C421.9,323.2,423.3,323.8,424.6,324.3z" />
	<path fill="#E2CABF" d="M384.1,17c0.8-3.4-0.3-6.6-1.7-9.7c0.8-0.3,1.6-0.6,2.5-0.9c2.8,2.7,2.4,7.7,1.1,11   C385,18,384.5,17.9,384.1,17z" />
	<path fill="#1F1A18" d="M429.8,169.6c0.2,2.5-1.1,1.7-2.7,2.7c-1.3-0.2-1.2-1.4-1.6-2.2c1-0.8,0.5-2.3,1.3-3.4   c-0.6-1.1-1.4-1.8-2.8-1.5c0.5-1.4,1.4-2.3,2.9-2.8c0.1,1.9,2,2.7,2.9,4C429.8,167.5,429.8,168.6,429.8,169.6z M428.1,170.1   c0.1-0.3,0.4-0.6,0-0.8C427.7,169.5,427.7,169.8,428.1,170.1z" />
	<path fill="#D9C4BA" d="M507.7,34.7c0.4-0.8,0.8-1.7,1.1-2.4c3.5-0.6,3.5-0.6,6.3,1.6c0.2-0.6,0.4-1.1,0.7-1.8   c1.4,0.1,2.8,1,2.3,2.6c-1.3,0.7-3.1-0.7-4.3,0.8c-0.5,0.2-1.1,0.3-1.3,0.4C510.7,35.5,509.2,35.1,507.7,34.7z" />
	<path fill="#D2BBB1" d="M378.4,8.5c0.4-0.9,0.4-0.9,1.5-1.3c2.3,2.9,3.5,6.2,3.5,9.9c-0.3,0.2-0.6,0.4-0.9,0.6   C378.6,16.3,381.7,10.9,378.4,8.5z" />
	<path fill="#212120" d="M468.2,156.7c0.1-0.8,0.3-1.6,0.4-2.4c-2.1-2.9-2.6-6.2-2.5-9.6c1.1-0.5,0.4-1.6,0.8-2.3   c0.9,4,1,8.1,3.3,11.8c-0.4,1.4-0.8,2.9-1.1,4.3C469,157.7,469.1,157,468.2,156.7z" />
	<path fill="#E0C9BE" d="M377.7,13.5c-1.4-1.7-3.3-2.5-5.4-3.3c1-1.4,2.4-1.8,4-1.8c2,1.4,3.4,3.1,2.8,5.8c-0.2,0-0.4,0-0.7,0.1   c0,0,0,0,0,0C378.1,14,377.9,13.7,377.7,13.5z" />
	<path fill="#1C1D1D" d="M432.6,155.3c-0.8,0.3-1.7,0.7-2.5,1c-0.8-0.4-1.6-0.8-2.4-1.3c-0.2,1-0.3,1.9-0.5,3.1   c-1.2-1.2-1.2-1.2-0.8-4.8c1.2-0.2,2.2,0.6,3.1-0.6c0.1,0.4,0.3,0.8,0.4,1.4c0.7-0.1,1.4-0.1,2.3-0.2   C432.4,154.4,432.5,154.9,432.6,155.3L432.6,155.3z" />
	<path fill="#F0D3C7" d="M406.1,237.5c0.2-0.3,0.5-0.6,0.7-0.9c1.7,1.2,3.2,2.6,2.9,4.9c-1.1,0.4-2.1,0.8-3.5,1.3   C406.3,240.8,406.2,239.1,406.1,237.5z" />
	<path fill="#231E1E" d="M426,135.9c-0.8-1-1.6-1.9-2.6-3.1c2.3-1.2,3.7,0.1,5.1,1.1c0.7-0.6,1.3-1.2,1.9-1.7   c-0.1,1.5-1.8,2.5-1,4.5c-0.7-0.3-1.3-0.7-2.1-1C426.9,135.7,426.5,135.8,426,135.9z" />
	<path fill="#181919" d="M451.9,139.6c1.6,1,4.5,1.6,6.4,0.6c1.1,1-0.1,1.9,0.4,2.7c-0.4,0.1-0.7,0.1-1.1,0.2   c-2.4-1.5-5.2-1.4-7.9-2.5C450.2,139.3,451.1,139.7,451.9,139.6L451.9,139.6z" />
	<path fill="#A69287" d="M429.8,169.6c0-1,0-2,0-3.2c-0.9-1.3-2.8-2.1-2.9-4c2.8-2,4.4,3.6,4.3,5.7   C430.7,168.6,430.3,169.1,429.8,169.6z" />
	<path fill="#1D1919" d="M389.8,13.5c0,0.5,0.1,0.9,0.1,1.6c1.8,1.9,4.7,4.1,2.8,7.1c0.4-2.6-1.8-3.8-3.5-5.3   c-0.4-0.7-0.7-0.7-1,0.1c-0.2,0-0.4,0.1-0.6,0.2C387.6,15.4,389.1,14.6,389.8,13.5z" />
	<path fill="#B89E92" d="M424,165.2c1.4-0.4,2.2,0.4,2.8,1.5c-0.9,1.1-0.4,2.6-1.3,3.4c-0.7-1-1.5-2.1-2.2-3.1   C423.6,166.3,423.8,165.8,424,165.2z" />
	<path fill="#3B3633" d="M379.4,20.7c1.5,2,3.5,3.4,2.4,6.4c-0.5-0.5-1.1-0.8-1.1-1.2c0-2.2-1.9-3.1-2.8-4.7   C378.4,21,378.9,20.9,379.4,20.7z" />
	<path fill="#222322" d="M436.2,159.6c0.1,2.7,1.3,6.2-2.1,7.9C435,164.9,435,161.8,436.2,159.6z" />
	<path fill="#473C3D" d="M434,225.2c-0.9,1.2-1.9,2.4-2.8,3.5c-0.2-0.2-0.5-0.5-0.7-0.7c0.5-0.9,1-1.8,1.5-2.7l0,0   c0.9-1.2,1.8-2.5,2.6-3.8C435,222.7,434.3,223.9,434,225.2z" />
	<path fill="#222322" d="M431.2,168.1c0-0.5,0-1,0-1.4c1.1-0.2,2,0.2,2.9,0.8c-0.2,1.4-0.5,2.7-1.9,3.5   C431.8,170,431.5,169,431.2,168.1z" />
	<path fill="#293C73" d="M414.8,320.7c-0.7-1.5-1.4-0.2-2.1,0c-0.4-1.7,1.8-1.5,2.8-2.1c0.2,0.2,0.4,0.4,0.6,0.6   c-0.8,1,0.3,1.1,0.8,1.5c-0.8,0.8-0.4,2.2-1.5,2.9C415.3,322.5,416.1,321.4,414.8,320.7z" />
	<path fill="#303232" d="M434.5,144.9c0-2.8,2-3.3,3.4-4.8C438.4,142.5,436.3,143.3,434.5,144.9z" />
	<path fill="#252727" d="M451.8,133.3c-1,0.8-2,1.7-3.6,3c0.6-2.4,1.1-3.9,3.4-3.7C451.6,132.8,451.7,133.1,451.8,133.3z" />
	<path fill="#333434" d="M469.5,137.4c-0.7-0.7-0.5-1.5-0.9-2.6c0.8,0,1.6,0,2.4,0C470.8,136,470.7,137,469.5,137.4z" />
	<path fill="#282929" d="M432.9,136.5c1.5-0.8,2.5-1.3,3.8-2.5C436.6,136.7,436.5,136.8,432.9,136.5z" />
	<path fill="#272828" d="M431.4,141.3c-0.6,1.1-0.9,1.8-1.4,2.7c-0.6-0.4-1-0.6-1.5-0.9C429.1,142,429.6,141.1,431.4,141.3z" />
	<path fill="#242626" d="M464.4,128.9c0.5,0.6,0.7,1,1.1,1.5c-0.6,0.6-1.1,1.2-1.7,1.9C463.3,130.6,463.3,130.6,464.4,128.9z" />
	<path fill="#303131" d="M438.7,148.9c1.6,1.2,1.5,1.3-1.1,3.5C438,151,438.3,150,438.7,148.9z" />
	<path fill="#76819B" d="M389.2,16.9c0.6,0.5,1.3,1.1,1.9,1.6c-0.3,0.3-0.5,0.5-0.8,0.8c-0.9-0.4-1.8-0.7-2.7-1.1c0-0.4,0-0.7,0-1.1   c0.2-0.1,0.4-0.1,0.6-0.2C388.7,17.7,389,17.6,389.2,16.9z" />
	<path fill="#EECABA" d="M505.4,58.4c-0.3,0.5-0.5,1-0.8,1.4c0-1.9,0.1-3.9,0.1-5.8C505,55.4,505.2,56.9,505.4,58.4z" />
	<path fill="#1C1D1D" d="M432.6,155.3c0.7-0.2,1-0.8,1.8-0.5c0.7,1.3-0.6,1.7-1.5,2.6C432.8,156.5,432.7,155.9,432.6,155.3   L432.6,155.3z" />
	<path fill="#222322" d="M433.8,162.5c0.2,1.3,0.6,2.2-0.8,2.6C432.3,164.1,433.2,163.5,433.8,162.5z" />
	<path fill="#212323" d="M422.1,152.9c-0.6,1.9-0.4,1.6-1.4,3C420.5,154.7,420,153.8,422.1,152.9z" />
	<path fill="#1C1D1D" d="M433.3,153.2c0.3-0.6,0.7-1.2,1.2-2.1C434.9,152.4,434.7,153.1,433.3,153.2z" />
	<path fill="#4E596F" d="M390.4,19.3c0.3-0.3,0.5-0.5,0.8-0.8c0.3,0.2,0.6,0.5,0.9,0.7C392.1,20.7,390.6,20.8,390.4,19.3z" />
	<path fill="#181919" d="M451.9,139.6c0-0.9,0.2-1.6,1.2-1.8C453.5,139,453.1,139.6,451.9,139.6L451.9,139.6z" />
	<path fill="#816C67" d="M432.7,178.8c0.2,0.6,0.4,1.1,0.8,2c-0.8-0.3-1.2-0.4-1.6-0.6c0-0.2,0-0.5,0-0.7   C432.2,179.2,432.5,179,432.7,178.8z" />
	<path fill="#212120" d="M462.3,141c0.4,0.4,0.6,0.6,1.2,1.2c-1,0.1-1.4,0.2-2.4,0.4C461.6,141.8,461.9,141.5,462.3,141z" />
	<path fill="#181919" d="M448.7,139.3c0.5,0.9-0.1,1.2-0.8,1.4C447.4,139.7,448,139.5,448.7,139.3z" />
	<path fill="#262828" d="M456.3,135.9c-0.4,0.5-0.7,0.9-1.1,1.4C454.9,136,454.9,136,456.3,135.9z" />
	<path fill="#877E7E" d="M419.8,149.5c0.2,0,0.4,0,0.7,0.1c-0.1,0.6-0.1,1.3-0.2,1.9c-0.1,0-0.2,0-0.4,0   C419.9,150.8,419.9,150.2,419.8,149.5z" />
	<path fill="#212120" d="M466.1,144c-0.4-0.3-0.9-0.6-1.3-0.9C465.7,142.2,466.4,142.9,466.1,144z" />
	<path fill="#181919" d="M457.6,143.8c-0.7,0-1.4,0.1-2.1,0.1c0.4-1.2,1.3-0.7,2.1-0.8l0,0C457.6,143.4,457.6,143.6,457.6,143.8z" />
	<path fill="#3B3633" d="M382.7,21.2c-0.8,0.1-1.6,0.2-2.3-0.5C381.2,20.5,382.1,20.3,382.7,21.2z" />
	<path fill="#90827B" d="M422.6,162.5c0,1.2-0.5,1.2-0.5,0C422.2,162.6,422.4,162.6,422.6,162.5z" />
	<path fill="#231E1E" d="M424.8,136.8c0.4-0.3,0.8-0.6,1.2-0.9C426.1,136.8,425.5,136.8,424.8,136.8z" />
	<path fill="#212120" d="M464.7,143.2c-0.5,0.2-1,0.4-1.4,0.6C463.5,143.1,464.1,143.1,464.7,143.2z" />
	<path fill="#414949" d="M436.6,157.2c-0.3-0.3-0.4-0.5,0-0.8C437,156.6,436.7,156.9,436.6,157.2z" />
	<path fill="#D2BBB1" d="M377.7,13.5c0.2,0.3,0.5,0.5,0.7,0.8C378.1,14,377.9,13.7,377.7,13.5z" />
	<path fill="#D2BBB1" d="M378.4,14.2c0.2-0.1,0.4-0.1,0.7-0.1c-0.1,0.2-0.2,0.3-0.2,0.5C378.6,14.5,378.5,14.4,378.4,14.2z" />
	<path fill="#212120" d="M467.7,141.2c-0.2,0.3-0.5,0.6-0.7,0.8C466.9,141.5,467.1,141.2,467.7,141.2z" />
	<path fill="#212120" d="M468.4,140.4c-0.2,0.3-0.5,0.5-0.7,0.8C467.9,140.9,468.1,140.6,468.4,140.4z" />
	<path fill="#5876E8" d="M436.9,337.1c2.4,0.7,4.6,1.6,7.1,2c-1.7-2.5-4.6-2.5-7-4.1c1.2-1.2,0.4-3.3,1-5.1   c4.2,1.2,7.3,2.9,11.6,3.9c0.1,1.4,0.1,2.8,0.2,4.8c1.6-1.5,1.4-2.4,1.7-4.5c1.9,0.3,3.6,0.5,5.3,0.8c0,2.2,0.1,4.4-0.7,6.5   c-6.7,3.3,10.5,1.8,12.4,2.2c2.3,8.8,2.5,17.9,4.1,26.8c5.9,0.5,3.1-22.6,1.1-26.5c-0.9-2.1,2.4-0.3,3.1-1.7c2.3,0,4.1-1.7,6.1-2.3   c11,10,5,26.9,5.1,39.9c-2.7,13.8-12.9,24.6-19,36.8c9.5-8.7,13.6-21.7,19.7-32.2c-0.8,8.7,1.7,17.7-0.1,26.1   c-0.8,2.5-2.9,5.1-2.2,7.7c0.9-2,1.8-3.9,2.7-5.9c0.3,8.2,1.6,16.9-1.8,24.5c-1.5,2.1-1.5,2.1-1.6,3.6c1.5-0.4,2-1.5,2.4-2.7l0,0   c0.2-0.5,0.7-0.8,0.7-1.3c2.2,2.1,1.7,5.6,2,8.4c-7.8,6.9-21,10.7-31.2,7.8c1.8-1.1,4.2-1.7,4.2-4.3l0,0c2.9-2.7,1.4-7.3,2.4-11.2   c2.4,2.9,3.6,7.1,7.3,8.3c0.3-0.5,0.7-1,1.1-1.4c-4.8-12.8-14.1-23.7-13.4-38c1.9,1.7,2.7,4.6,5.5,5.8c-0.6-6.1-6.3-11.6-5.5-17.8   c0.9-4.1,0.9-8.5-1-12.2c-1.9,3.7-2.3,7.3-4.2,10.9c-2,2.9,1,7.7-2,10.2c0.8,13.9-2.7,26.9-5.2,40.5c-6.3-0.4-26.6,1.2-26.2-7.3   c0.9-14.6-1.7-29.3,0.5-43.6c3.1,8.5,3.1,17.8,7.2,25.9c1.5-14.3-6.5-27.2-5.9-41.2c2.3-11.1-0.9-24.5,4.7-34.6   c-0.5,12.4,1.6,25,4.4,36.7C436.4,365.4,437.4,351.3,436.9,337.1z M451,361.2c0.4-4.9,0.3-15.6-0.4-18.7   c-0.1,8.3-0.6,16.5-1.4,24.6C450.8,365.2,450.9,363.2,451,361.2z M463.9,366.2c-1,2.3-1,5.4-2.2,7.9c-0.5,0.2-0.7,0.5-0.3,1.1   c0.4,0,0.8,0,1.4,0c7.8,18.9,9.6,7,3.6,27.2c9.6-17.1,16.8-35.9,11.3-55.7c0,13.8,3,28-5.4,40.2c-3.4-4.6-2.8-13.3-8.4-15.7   c1.8-8.3,1.9-16.4-0.5-24.8C462.6,353.2,464.6,359.5,463.9,366.2z M448.9,387.6c1.4-5-1.7-9.3-2.6-14.1   c-1.5-10.8-0.5-21.6-1.8-32.5c-3.5,14.6-0.3,30.9,3.6,45c-0.8,1-0.8,2-0.2,3C449.2,389,449,388.3,448.9,387.6z M453.7,335.1   c-1.5,1.5-1.3,3.3-0.9,5.5C454.7,338.8,454.2,336.9,453.7,335.1z M456.6,350.4c-0.8,3.1-0.7,7,0.1,9.6   C457,356.6,457.2,353.7,456.6,350.4z" />
	<path fill="#FBDFD3" d="M407.6,461.7c1.2-1.2,2.5-2.3,3.7-3.5c1.5,1.8-1.5,4.7,0.7,6.8c7.4-2.4,3.1-11,6.1-15.8   c4.8-0.2,8.9-1.1,13.9-2.2c-0.7,1.8-0.9,1.8-0.8,3.7c0.7-0.9,1.1-1.3,1.5-1.8c0,0-0.1,0-0.1,0c2.1,0.2,2.6-2,3.7-3.5   c3.4,0.5,6.6,0.7,10.2,0.6c-1,7.7-10.1,3.7-6.7,16.3c-2.9,3.6-5.9,7.2-10.3,8.8c-1.5,5.7-9.2,7.1-8.9,13.4c0.7-0.3,1.1-0.5,1.5-0.7   c0.2,0.5,0.5,1,0.7,1.4c-10.3,27.6-19.1,14.6-24.5,54.6c-2.8,0-5.6,0-8.8,0c-0.6-0.5-1.5-1.2-2.4-2c2-9.7,8.7-18,8.5-28.1   c1.6-8.4-0.4-17.7,2.1-25.9c1.8-1.8,2.1-3.2-0.5-4c-0.6-3.2,3.2-6.4,5.6-8c-0.1,0.6-0.1,1.3-0.2,2c2.4-0.7,1.4-2.1,0.4-3.4   c0.6-0.5,1.1-0.5,1.8-0.1c2.6-0.7,4-2.5,5-4.7c-1.4-1.2-2.1,0.1-3,0.5C405.6,464.5,407.9,463.4,407.6,461.7z M426.3,464.7   c0.2-0.2,0.7-0.5,0.7-0.7c-0.3-3.3,2.9-5.5,2.2-8.9c-2,0.4-2.7,1.5-3.6,3.1c-1.3,0-2.6,0-3.7,0c-3.5,2.3-4,7.7-0.7,10.7   C424.1,469.2,426.4,468.2,426.3,464.7z M401.8,475.8c-1.5-0.3-1.5-0.3-2.6,2.5C400.7,478.7,400.7,478.7,401.8,475.8z M414.8,493.7   c2,0.8,3-2.2,0.9-2.4C414.6,491.7,414.4,492.5,414.8,493.7z M420.2,486.1c-1.2-1.7-2.7,0.4-1.2,1.1   C419.4,486.9,419.8,486.5,420.2,486.1z M429.4,452c0.7-0.5,1.1-1,0.3-1.4C428.8,450.7,428.8,451.3,429.4,452z M418.4,489.5   c-0.1-0.3-0.2-0.5-0.2-0.8C417.1,489,417.2,489.9,418.4,489.5z" />
	<path fill="#FBDFD3" d="M466.1,467.5c-7.1,5.2-3.9,14.1-6.8,21.3c-9.5,20.4-26.3,36.8-39.1,55.3c-2.4,0.6-6.1,4-7.5,0.6   c-1.5-3.4-1-6.6,1.3-9.5c3.1-1,1.7-5.2,4.2-7.1c-0.3,2.2,3.1,1.6,1.7-0.7c-0.6,0.3-1,0.7-1.7,0.7c5.6-8.8,8.7-18.6,10.6-28.7   c2.1-2,1.4-5.5,1.5-8c2.6-4,3.7-8.2,6.9-11.1c0.9,2.7-0.8,4,0.6,6.6c6-5.3,4.9-12.7,5.7-19.7c0.7-0.2,1.5-0.4,2.2-0.5   c3.1-5-2.7-10.1,1.1-14.8c4.8,0.6,9.3,2.3,13.6,4.3c-1.9,2-2.1,2.4-2.5,4.6c2.2-0.6,2.8-1.7,2.4-4.7c2.2,0,4.2,0.7,6.3,0.9   C467.8,460.5,467.7,463.9,466.1,467.5z M455.4,463.9c-0.2-0.3-0.3-0.5-0.5-0.8c-0.3,0.3-0.6,0.5-0.9,0.8c-0.8,1.4-2.5,0.2-3.5,1.1   c-3.2,3.3-1.2,9.3,2.5,11.5c4.3-3.9,4.8-7.1,2-11.6C455.2,464.6,455.3,464.2,455.4,463.9z M438,487.9c-0.6,1.1-1.2,1.9,0,2.6   C438.8,489.1,438.8,489.1,438,487.9z M422,524.8c0.7,0.9,1.7-0.1,1.1-0.8C422.4,523.6,422.2,524.2,422,524.8z M437.6,492.7   c-0.2,0-0.4-0.1-0.6-0.1c0,0.5,0,1,0,1.5c0.1,0,0.3,0,0.4,0C437.4,493.7,437.5,493.2,437.6,492.7z M455.3,462.2   c0.7,0.2,1,0.2,1.3,0.3c0-0.2,0-0.4,0-0.5C456.3,462,456.1,462,455.3,462.2z M436,497.8l-0.2-0.1l0,0.2L436,497.8z M424.3,521.1   c-0.2,0.2-0.1,0.3,0.1,0.5c0-0.2,0.1-0.3,0.1-0.5C424.5,521.1,424.4,521.1,424.3,521.1z" />
	<path fill="#E4E4EB" d="M398.3,559.6c0.8,10.3-2.7,20.8,0.9,30.8c-1.6,4.8-6.9,3-10.6,2.4c-15.9-8.8-15.1-20.5-11.7-36.1   c0.6-7.3-4.5-14.4,2.2-20c1.9,2.4,3.7,4.8,5.7,7.4c4.4-1,8.7-2,13.4-1.5c-0.2,1.6-0.3,3.1-0.5,4.8c-4.3,0.6-11.3-2-13.7,2.9   c3.3,0,6.3,0,9.2,0c-0.2,0.4-0.4,0.8-0.5,1.2c-2.6,0.7-5.4,0.1-7.4,2.1c4.4,2,8.4,0.6,12.9,1c0,0.5,0.1,0.9,0.1,1.5   c-4,0.3-8.9-0.3-11.9,2.6C389.8,560.6,394.5,558.7,398.3,559.6z M388.1,562.9c3.8,1.7,8.6,3,9.5-1.1   C395.5,560.4,389.7,560.7,388.1,562.9z M389,566.7c2.2,1.8,5.8,2.2,7.1-0.2C395.2,563.8,391,565.8,389,566.7z" />
	<path fill="#E4E4EB" d="M407.1,536c-0.6,2.8-1.4,5.5-0.8,8.4c1.9,1.7,5,3.3,8.2,4.4c3-1.7,6-3.3,9.5-0.6c-0.8,1.5-1.6,3-2.5,4.8   c-3.1,0.2-6.6,0.5-10.5,0.8c2.1,3.8,7.3,1.9,11,2.1c0,0.6,0,1,0,1.4c-3.5,0.8-7.6-1-10.8,1.7c3.2,1.9,7,0.9,10.6,1.7   c0.1,0.5,0.1,0.9,0.2,1.3c-2.9,0.8-6.2-0.1-9.1,1.9c2.6,2.2,5.6,1,8.9,1.3c-2.7,2.4-5.1,0.1-7.6,2.7c2.1,1.9,4.6,1.4,7.1,1.8   c0,0.6,0,1,0,1.6c-2.1,0.3-4.4,0-6,1.4c0.3,2.6,3.7,1.3,5.6,1.7c4.7,7.1,2.9,15.2-1.2,22.7c-8.9,0.7-15.9-8.5-15.1-16.9   c-1.3-4.2,2.8-7.8,1.3-11.9c-3.4-14.3-6.6-8.9-3.2-25.9c-1.2-0.9-1.6-2.2-1.5-3.6c1.7-1.3,3.4-2.6,5-3.8   C406.5,535.4,406.8,535.7,407.1,536z" />
	<path fill="#4B65C5" d="M459.1,384.2c0.3-0.7,0.7-1.4,1.2-2.5c1.9,3.7,1.9,8.1,1,12.2c-0.8,6.2,4.9,11.6,5.5,17.8   c-2.8-1.2-3.6-4.1-5.5-5.8c-0.7,14.3,8.5,25.2,13.4,38c-0.3,0.4-0.7,0.9-1.1,1.4c-3.7-1.2-4.9-5.4-7.3-8.3c-1,3.9,0.4,8.5-2.4,11.2   c-1.3-5.9-3.4-12.8-7.4-17c0.3,5.7,5.2,11,6.3,16.8c0.4,0.1,0.7,0.1,1.1,0.2c0,2.6-2.4,3.1-4.2,4.3c-4-0.8-7.7-2.4-11.5-3.7   c0.2-0.9,0.4-1.9,0.6-2.9c0.8-0.5,1.6-1,2.5-1.7c0.1-13.3,7-28.6,2.6-41.4c3-2.4,0-7.3,2-10.2c0.4,2.1,0.1,4.3,0.1,6.4   c0.1,0.2,0.3,0.4,0.4,0.5c0.1-0.2,0.2-0.3,0.3-0.5l0,0c0.9-0.6,0.7-1.5,0.6-2.2c-0.6-4.4,2.2-8,2.4-12.2   C459.7,384.5,459.4,384.4,459.1,384.2z M462.6,432.5c-1.5-6.3-3.7-12.5-6.2-18.4c-0.1,7.6,4.3,14.9,6.7,22.3   C463.3,434.6,463.7,433.4,462.6,432.5z" />
	<path fill="#EDC9BA" d="M407.6,461.7c0.3,1.7-2,2.8-0.7,4.3c-1,1.3-1.7,2.7-2,4.3c-0.7-0.4-1.2-0.5-1.8,0.1   c0.1,0.2,0.3,0.5,0.4,0.7c-2.8,2.4-9.6,7.3-4.4,10c-1.7-1-3.1,1.8-1.4,2.8c-2.5,8.3-0.5,17.5-2.1,25.9c0.1,10.1-6.5,18.4-8.5,28.1   c-3.3-2.4-4.2-8.1-1.5-11.3c0.3,0.3,0.5,0.5,0.8,0.8c-0.2,1.1-1.9,3.7,0.5,3.3c0.1-1.7,1.7-2.9,1.6-4.8c0.5-1.4,2.2-2.4,1-4.2   c-1,1.1-1.5,1.9-2.2,3.2c1.4-10.7,6.1-21.5,5.4-32.9C391.9,479.5,395.7,467.6,407.6,461.7z M392.1,516.4c1.4-0.3,1.8-1.7,0.7-2.6   C391.7,514.6,391.5,515.4,392.1,516.4z M390,520.9c1.1-1.3,1.1-1.3,1-2.5C389.9,519.2,389.9,519.2,390,520.9z" />
	<path fill="#CECEDC" d="M379.2,536.6c-6.6,5.7-1.6,12.7-2.2,20c-3.5,15.6-4.2,27.4,11.7,36.1c1.8,0.3,3.7,0.6,5.7,1   c-20.3,5.4-25.6-21.6-20.2-36.5c0.3-8.6-5.7-17.6,5-22.3C379.1,535.5,379.1,536,379.2,536.6z" />
	<path fill="#EBC8B8" d="M445.4,454.5c0.1,4.3,2.7,7.8,0.4,12c-0.7,0.2-1.5,0.4-2.2,0.5c-1.1,5.8,0.8,12.8-3.9,17.5   c0-1.8,0.2-3-2-1.9c-0.1-0.7-0.2-1.4-0.3-2.4c-3,3.7-6.7,8.6-6.9,13.9c0.4,3.4-2.1,5.9-2.8,9.1c-1.6-12.3,2.7-24.2,11.5-32.9   c0,3.6-1.4,7.3,0.3,10.7c0.9-2.9,1.2-7.3,0.6-10.5c-0.3,0-0.7-0.1-1-0.1c0.4-3.7,1.2-6.5,4.7-8.6   C444.2,459.5,444.3,456.7,445.4,454.5z" />
	<path fill="#EDC9BA" d="M431.2,448.9c0.2-0.5,0.4-1.1,0.8-1.9c-4.9,1.1-9,2-13.9,2.2c-3.1,4.8,1.3,13.4-6.1,15.8   c-2.2-2.1,0.8-4.9-0.7-6.8c3.2-5.5,3-11.3,2.9-17.5c6,0.4,12.5,3.5,18.7,4.7c-0.1,1.3-0.2,2.5-0.3,3.6l0.1,0   C432.2,448.9,431.7,448.9,431.2,448.9z" />
	<path fill="#CECDDB" d="M401.1,556.3c0,1.9,1.8,2.7,2.7,4c0.4,4,3.1,8.2,1.9,12.2c-3.9,9.5,0,21.6,10.5,24.7   c-13.7,0.3-11.7-4.4-15.2-15.4c-0.2-0.2-0.7-0.5-1-0.8c-0.7-3.2,1.1-5.5,1.8-8.4C403.3,567.2,399,561.9,401.1,556.3z" />
	<path fill="#E6C6B7" d="M427.6,498.6c1.7,12.8-6.6,23-11.4,33.8c-1.8,0.3-2.1,0.6-2.1,2.7c-0.7,1.2-1.4,2.4-2.1,3.6   c0-2.4,0.2-4.4,1-6.8C420.7,522.8,425.4,510.4,427.6,498.6z" />
	<path fill="#E9C5B5" d="M439.7,462.4c-1.7-4.6-0.3-11,5-12C442.7,454.3,443.7,459.5,439.7,462.4z" />
	<path fill="#12182E" d="M454.1,402.8c3.4,7.1,0.6,17.2-0.7,24.9c-0.3-0.7,0.3-1.8-0.8-2.2C453.8,417.9,454.2,410.4,454.1,402.8z" />
	<path fill="#AF978B" d="M386.9,523.6c0.1,0.4,0.2,0.8,0.3,1.4c0.4-0.7,0.8-1.3,1.2-1.9c0.1,0.6-0.2,1.4,0.8,1.5   c-0.3,0.4-0.5,0.9-0.8,1.3c-1.3-0.3-1.3,1.1-2.1,1.5c-0.3-0.3-0.5-0.5-0.8-0.8C386,525.6,386.4,524.6,386.9,523.6z" />
	<path fill="#689CA1" d="M392.7,551.4c0.2-0.4,0.4-0.8,0.5-1.2c1.8-0.2,3.7-0.2,5.5,0.3C396.8,551.1,394.9,551.8,392.7,551.4z" />
	<path fill="#646A6A" d="M384.7,540.2c-1.6-0.9-2.2-2.3-2.8-4.2c1.8,0.2,1.4,1.6,2.1,2.2c0.6,0.5,1.1,1.2,1.6,1.9   C385.3,540.1,385,540.1,384.7,540.2z" />
	<path fill="#504340" d="M466.9,458.2c0-0.3-0.1-0.7-0.1-1.3c-1.2-0.1-2.4-0.3-3.5-0.7c1.7,0,3.4,0,5.2-0.1c0,0.7,0,1.4,0,2.1   c0,0,0,0,0,0C467.8,458.2,467.3,458.2,466.9,458.2z" />
	<path fill="#E0DCDC" d="M409.7,540.3c0.1,1.1,0.2,2.2,0.3,3.9c-2.2-1-1.5-2-1.5-3.9C408.9,540.3,409.3,540.3,409.7,540.3z" />
	<path fill="#B2A9A0" d="M422.7,485.3c-0.2-0.5-0.5-1-0.7-1.4c0.5-0.8,1.1-1.7,1.9-3.1C423.9,482.9,423.5,484.2,422.7,485.3z" />
	<path fill="#686F6F" d="M409.7,540.3c-0.4,0-0.8,0-1.1,0c-0.3-1.3,0.3-2.3,0.9-3.8C410,538.1,409.9,539.2,409.7,540.3z" />
	<path fill="#829498" d="M407.1,536c-0.3-0.3-0.6-0.6-1-0.9c0.7-0.9,1.4-1.8,3.2-2.2C408.3,534.2,407.7,535.1,407.1,536z" />
	<path fill="#181F3A" d="M402.7,430.5c0,1.2,0,2.3-0.1,3.5c-0.5,0-1,0-1.5,0c0.9-1.3,0.6-2.8,0.9-4.2   C402.3,430,402.5,430.2,402.7,430.5z" />
	<path fill="#C3BAB0" d="M468.3,458.3c0-0.7,0-1.4,0-2.1c0.4,0,0.9,0,1.4,0C469.7,457.3,469.3,458,468.3,458.3z" />
	<path fill="#222122" d="M398.3,559.6c-1.2-0.1-2.3-0.2-3.5-0.3C396.5,558.4,397.4,558.5,398.3,559.6z" />
	<path fill="#483D38" d="M436.5,469.9c0.7,0.5,0.1,1-0.1,1.6c-0.3-0.1-0.5-0.3-0.8-0.4C435.9,470.7,436,470,436.5,469.9z" />
	<path fill="#C3BAB0" d="M466.9,458.2c0.5,0,1,0,1.5,0c-0.2,0.8-0.5,1.5-0.7,2.3C467.4,459.7,467.1,459,466.9,458.2z" />
	<path fill="#5C5C5C" d="M400.4,570.3c0,0.5,0.1,1,0.1,1.4c-0.1,0-0.3,0-0.4,0c-0.1-0.5-0.1-1-0.2-1.4   C400,570.3,400.2,570.3,400.4,570.3z" />
	<path fill="#738286" d="M381.3,531.3c-0.1,0.3-0.3,0.7-0.4,1c-0.2-0.1-0.5-0.3-0.7-0.4c0.2-0.3,0.5-0.6,0.7-0.8   C381,531.1,381.2,531.2,381.3,531.3z" />
	<path fill="#AEC3C3" d="M384.7,540.2c0.3,0,0.6-0.1,0.9-0.1c0.3,0.1,0.6,0.3,1,0.6C385.7,541.2,385.1,541.1,384.7,540.2z" />
	<path fill="#979DA1" d="M410.9,531.5c-1.3,0-1.3-0.5,0-0.5C410.9,531.1,410.9,531.3,410.9,531.5z" />
	<path fill="#B6BCD4" d="M444.5,293.7c0.5-0.5,1-0.9,1.5-1.4c4.3,14.5,0,23.9,9.3,39.8c-3.7-0.5-7.3-1.2-10.7-2.9   c-0.2-4.5-1.1-9-0.7-13.5c1.3,2,1.2,4.3,3.7,5.5c-0.8-2.6-1.4-5.7-3.6-6.8c-0.8-6.2-2.9-14.3-0.7-20.1c-0.4,5.6,0.2,11.2,0.9,17.4   c2-2.2,1.2-4.6,0.9-7.1C444.4,301,445.6,297.3,444.5,293.7z M448.4,321.4c0,2.8,0,2.8,1.4,4.2C450,324,449.7,322.7,448.4,321.4z" />
	<path fill="#5572E0" d="M479.2,333.6c1.5-0.1,1,1.7,1.2,2.7c-0.9,0.9-0.4,1.5,0.4,1.8c0.3,0.1,0.9-0.3,0.9,0.7   c-2,1.9-5.1,2.2-7.7,3.2c-4.9-1.9-11,0.3-16.1-0.9c0.2-2.2,0.3-4.2,0.5-6.2c0.9,0,1.8,0,2.6,0c0.2,1.4-0.2,2.6,1.4,3.4   c0.1-1.2,0.2-2.1,0.3-3.3c2.5,0,4.8,0,7.3,0c0.3,0.8,0.4,1.6,0.5,2.5c1.6-0.5,1.2-1.7,1.3-2.7l0.1,0.1c0.5,0,1.1,0,1.7,0   c-0.3,1.5-0.7,2.7,0.2,4.2c1.5-1.3,0.7-3.2,1-4.9c1-0.3,1.7-0.2,2.8,0.1c0,1.6,0,3,0,5C479,337.3,478.8,335.4,479.2,333.6z    M460.4,336.3c-0.2-0.2-0.3-0.4-0.5-0.6c-0.4,1-0.1,2.2-0.1,3.2c0.1,0,0.3,0,0.4,0C460.4,338.1,460.4,337.2,460.4,336.3z" />
	<path fill="#191616" d="M467.5,175.1c0.5,3-0.9,6.9,0.8,9.4c-0.9,3.3-1.7,6.2-2.9,9.6c5.5,10,9.2,20.9,12.9,31.8   c-0.8,0.2-0.7,0.9-0.7,1.5c-4.6-10.2-7.4-21-12.7-31.2c-1,0.5-1.9,0.9-2.8,1.4c-0.6-1.5,0.7-2.3,1.7-2.9   C465.9,188.2,467.2,181.9,467.5,175.1z" />
	<path fill="#465EB8" d="M429,325.7c1,2.3-0.6,5.7-1.5,8c-1.2-0.8-2.2-1.4-3.4-2.2c1.3-2,1.6-4.1,1.5-6.4   C426.7,325.3,427.8,325.5,429,325.7z" />
	<path fill="#1C2548" d="M488.8,384.3c-3.6,4.6-4.6,11.5-8.3,16.3c-0.3-0.3-0.5-0.6-0.8-0.8c3.4-6.5,6.8-13,8.5-20.1   C488.6,381.2,488.9,382.7,488.8,384.3z" />
	<path fill="#455EB8" d="M433.2,327.2c0.3,2.3,0.3,4.6-0.8,7c-0.9-0.1-1.7-0.2-2.7-0.3c0.3-2.6,0.5-5.1,0.8-7.5   C431.4,326.6,432.3,326.9,433.2,327.2z" />
	<path fill="#192141" d="M458.4,335c-0.2,2-0.3,4-0.5,6.2c4.7,0.7,9.8,0.1,14.6,0.2c-0.8,2.2-3,1.2-4.5,0.8   c-3.9-0.5-8.2,0.8-11.9-0.7c0.8-2.1,0.7-4.3,0.7-6.5C457.4,334.9,457.9,335,458.4,335z" />
	<path fill="#1A1F3D" d="M476.2,341.4c2-0.7,4.1-1.1,5.5-2.5c0-1-0.6-0.6-0.9-0.7c-1.8-0.6-0.7-2.1,0.8-2.2c0,1.2,2,0.2,1.7,1.7   c-0.1,0.2-0.8,0-0.3,0.5c0.1-0.2,0.2-0.3,0.3-0.5c0.6,0,1.3,0,1.2,0.9c-2.3,1.6-4.8,3.2-7.7,3.5   C476.7,341.9,476.4,341.6,476.2,341.4z" />
	<path fill="#4159AD" d="M436.1,334.9c-0.6,0-1.2-0.1-2-0.1c0.2-2.2,0.5-4.2,0.7-6.3c0.4,0,0.8,0,1.3,0   C436.2,330.7,436.3,332.8,436.1,334.9z" />
	<path fill="#2C3E7A" d="M418.4,326.3c-1.5-1.3-2-3.8,0-5c0.7,0.5,1.5,0.9,2.2,1.4c-1.1,0.6-0.7,2-1.4,2.9c-0.1-0.8-0.2-1.7-0.2-2.5   c-0.2,0-0.3,0-0.5,0C418.4,324.2,418.4,325.3,418.4,326.3z" />
	<path fill="#CAB7AD" d="M515.3,71.9c-0.2,0-0.5,0-0.6,0c0.2-0.7,0.4-1.5,0.7-2.4c-0.4-0.3-0.9-0.7-1.4-1.1c0-0.3,0-0.6,0-0.8   c1.3-0.4,1.7-1.6,2-2.8c0.2,0,0.5,0,0.7,0C516.3,67.1,515.9,69.5,515.3,71.9z" />
	<path fill="#152040" d="M479.2,333.6c-0.4,1.8-0.1,3.7-1.6,5.8c0-1.9,0-3.4,0-5c-0.6-0.1-1-0.2-1.5-0.3   C477,333,478.1,333.6,479.2,333.6z" />
	<path fill="#25376C" d="M474.8,334.3c-0.3,1.7,0.5,3.6-1,4.9c-0.9-1.5-0.4-2.7-0.2-4.2c-0.6,0-1.1,0-1.7,0   C472.6,334,473.7,334.2,474.8,334.3z" />
	<path fill="#0E1426" d="M418.4,321.3c-1.4,0.7-1.2,2-1.4,3.3c-1,1.8-1.9,0.1-1.4-1.1l0,0c1.1-0.7,0.7-2.1,1.5-2.9   C417.5,320.6,418.1,320.7,418.4,321.3z" />
	<path fill="#131A33" d="M488.3,437.6c-0.5,1.2-1,2.3-2.4,2.7c0.2-1.5,0.2-1.5,1.6-3.6C487.7,437,488,437.3,488.3,437.6z" />
	<path fill="#0E101F" d="M436.3,332.8c-0.1-1.4-0.1-2.8-0.2-4.2C437.3,329.5,437.3,331.5,436.3,332.8z" />
	<path fill="#111A33" d="M471.9,334.9c-0.1,1,0.2,2.1-1.3,2.7c0-0.5-0.1-0.9-0.1-1.3C470.9,335.8,471.4,335.4,471.9,334.9z" />
	<path fill="#131A33" d="M490.3,438.3c-0.4-0.8-0.6-1.6-1.3-2.1c0.2-0.2,0.4-0.5,0.6-0.7C490.7,436.1,490.3,437.3,490.3,438.3z" />
	<path fill="#192141" d="M461.8,337.8c-1.1-0.7-0.4-1.9-0.7-2.9C462.2,335.6,461.8,336.7,461.8,337.8z" />
	<path fill="#5572E0" d="M483.1,339.8c0.5-0.4,1-0.8,1.5-1.2c0,0.7,0.1,1.3,0.1,2C484.1,340.3,483.6,340.1,483.1,339.8z" />
	<path fill="#2C2826" d="M516.2,68.3c-0.1-0.8-0.3-1.7,0.5-2.3C516.8,66.9,517.1,67.7,516.2,68.3z" />
	<path fill="#131A33" d="M488.3,434.7c0.2-0.5,0.4-1,0.6-1.5C489,433.8,489,434.4,488.3,434.7z" />
	<path fill="#0E101F" d="M437.5,333.5c0.1,0.6,0.2,1.2-0.5,1.5C436.9,334.4,436.8,333.8,437.5,333.5z" />
	<path fill="#131A33" d="M487.7,436.1c0.2-0.3,0.3-0.6,0.5-0.9C488,435.5,487.8,435.8,487.7,436.1z" />
	<path fill="#131A33" d="M488.8,436.8c-0.2,0.3-0.3,0.5-0.5,0.8C488.5,437.3,488.6,437.1,488.8,436.8z" />
	<path fill="#E5CDC2" d="M518.9,40.5c1.8-2.2,1-5.2,2.2-7.2c2.5,1.5,2.3,4.8,1.9,7.4c-0.9,0.7-1.8,1.4-3,2.3   c-0.2-0.8-0.3-1.3-0.4-1.8C519.3,41,519.1,40.8,518.9,40.5z" />
	<path fill="#F1D9CE" d="M524.7,35.6c2.2-0.5,2.7,3.5,0.8,4.5C524.1,38.8,524.9,37.1,524.7,35.6z" />
	<path fill="#C0A89F" d="M518.9,40.5c0.2,0.3,0.5,0.5,0.7,0.8c-1.2,0.7-2.4,1.4-3.5,2.1c-0.3-0.5-0.6-0.9-1-1.7   C516.5,41.3,517.7,40.9,518.9,40.5z" />
	<path fill="#1F1918" d="M468.2,156.7c1.6,1,0.5,3.3,0.7,4.9c-1.7,1.2-3.4,2.1-5.6,1.5c-0.1-0.2-0.3-0.3-0.4-0.5   c-0.1,0.2-0.2,0.4-0.3,0.6c0,0,0,0,0,0c-1.1-0.5-0.7-1.5-0.8-2.3C463.2,158.4,465.8,157.7,468.2,156.7z M467.9,159.8   c-1.6-0.2-2.6,0-3.4,1.1C465.7,160.9,466.9,161.5,467.9,159.8z" />
	<path fill="#FBDFD3" d="M469.6,165.4c-0.3-0.7-0.5-1.5-0.8-2.2C470.1,163.6,469.6,164.6,469.6,165.4z" />
	<path fill="#EECABA" d="M504.6,59.8c-0.2,0.5-0.5,1-0.7,1.5C503.8,60.6,503.9,60,504.6,59.8z" />
	<path fill="#100D0D" d="M461.8,196.6c5.5,12.9,6.7,28.3,3.6,41.3c-1,0.3-1.2-0.5-1.5-1.1c0.5-0.6,1.1-1.1,1.4-1.5   c1.2-12.9,0.2-25.1-5-37.1c-0.8,0.2-1.3,0.4-1.8,0.5c-0.5,1.7-0.9,3.2-2.2,4.4c-0.5-1.5-2.1,0.2-2.7-1c0.4-1.1,0.9-2.2,1.3-3.4   c-2.3,0.2-12.2-0.5-8.6-4.2C450.7,198.1,456.7,196.4,461.8,196.6z" />
	<path fill="#131212" d="M434.8,222.5c3.2-11.5,3.5-23.6-0.1-35.2c0.7-0.1,1.4-1.4,2.2-0.1c-1,0.7-1,1.1-0.1,2.2   C439.3,199.8,441.6,213.9,434.8,222.5z" />
	<path fill="#302A2A" d="M465.3,227.8c0,2.4,0,4.8,0,7.4c-0.4,0.4-0.9,0.9-1.4,1.5c-5.1-8.9-8-19.3-14-28c0.3-0.8,0.6-1.6,0.9-2.7   c0.4,0.4,0.7,0.8,1.1,1.2c-2.4,1.5,6.3,11.4,7.2,14.4c0,0-0.1-0.1-0.1-0.1c1.7,5,2.9,9.3,5.8,14   C464.8,232.2,464.8,230.7,465.3,227.8z" />
	<path fill="#141416" d="M480.4,284.3c1.8,6.3,0.7,14-2.8,17.9c0-5,2.7-9.7,2-14.9C479.6,286.2,479.5,285.1,480.4,284.3z" />
	<path fill="#1C1A1D" d="M450.5,276.8c2.8-3.1,6.1-11.9,9.8-12.2C458,270.5,454.7,274.9,450.5,276.8z" />
	<path fill="#0F0F11" d="M444.5,293.7c1.1,3.6-0.2,7.3,0.6,10.9c0.2,2.6,1,4.9-0.9,7.1c-0.6-6.2-1.3-11.8-0.9-17.4   C443.8,294.1,444.1,293.9,444.5,293.7z" />
	<path fill="#1C1C1E" d="M462.9,293.6c-0.7-2.7-0.7-8.9,0-12.6C464.7,282.2,464.3,291.7,462.9,293.6z" />
	<path fill="#212226" d="M448.6,277.9c0.2,2.5-1.2,7.5-2.8,10.4C444.9,287.4,445.9,279.6,448.6,277.9z" />
	<path fill="#17181A" d="M464.6,260.8c-0.1,5.4,1.1,10.1-1.2,15.4C464.3,270.5,462.9,265.8,464.6,260.8z" />
	<path fill="#271D1F" d="M463.6,244.4c3.1-0.2,5.5,0.4,8,2.6C468.3,247,465.5,246.5,463.6,244.4z" />
	<path fill="#37363B" d="M474.6,329.5c0.3-3.5,2.8-5.3,3.1-7.9C480.9,321.2,476.1,328.2,474.6,329.5z" />
	<path fill="#3C3B42" d="M444.1,314.4c2.2,1.1,2.8,4.2,3.6,6.8c-2.5-1.2-2.4-3.5-3.7-5.5C444.1,315.2,444.1,314.8,444.1,314.4z" />
	<path fill="#222326" d="M478.4,315.1c0,1.7-0.1,3.4-0.1,5.2c-2.6-0.9-0.1-6.4-0.6-8.8C478.4,312.5,478.3,313.8,478.4,315.1z" />
	<path fill="#57555D" d="M478.4,315.1c0.4-2.5-2.4-5.2,0.5-7.1C479,310.5,479.2,312.8,478.4,315.1z" />
	<path fill="#39383E" d="M464.6,260.8c-0.9,0.5-0.3,1.5-0.7,2.3c-0.7-2.3-0.8-4.7-0.5-7.3C464.6,258,464.6,258,464.6,260.8z" />
	<path fill="#1E1C1D" d="M467,229.7c0-3.5,0-7.1,0-10.6C467.8,222.5,467.9,226.4,467,229.7z" />
	<path fill="#1B1A1C" d="M477.9,253.4c1.1,1,2,2.6,0.5,3.8C477.2,255.9,477.2,255.9,477.9,253.4z" />
	<path fill="#423D43" d="M480.4,284.3c-0.8,0.8-0.8,1.9-0.8,3c-0.8-1.5-0.7-3.2-0.6-5C480.3,282.5,480.4,283.4,480.4,284.3z" />
	<path fill="#1E1C1D" d="M466.2,236c0.1-1.7-0.6-3.7,0.6-5.2C466.7,232.6,467.2,234.4,466.2,236z" />
	<path fill="#353034" d="M475.8,252.2c-1-0.3-1.8-0.7-1.9-2C476.2,250.7,476.2,250.7,475.8,252.2z" />
	<path fill="#79818F" d="M436.9,189.5c-0.9-1.2-0.9-1.5,0.1-2.2c0.2,0.5,0.5,1,0.7,1.5C437.3,189,437.1,189.3,436.9,189.5z" />
	<path fill="#171315" d="M461.9,311c0-1.1,0-1.7,0-2.8C462.9,309.2,462.9,309.8,461.9,311z" />
	<path fill="#1E1C1D" d="M465.4,237.9c0-0.6,0.1-1.1,0.7-1.3C466.2,237.1,466.2,237.7,465.4,237.9z" />
	<path fill="#292321" d="M417.1,200.4c0.3,0,0.7-0.1,1.1-0.1c1.6,3.9,3.2,12.7-1.1,14.6C417.8,210.1,418,205.2,417.1,200.4z" />
	<path fill="#2D2725" d="M404,144.1c-2.5-2.6-2.3-6.6-1.7-10.2C403.8,134.6,405.2,143.2,404,144.1z" />
	<path fill="#030202" d="M416.3,217.4c0.3,0,0.7-0.1,1.2-0.1c1.4,2.2,0.7,4.7,0.7,7c-0.4,0.4-0.7,0.8-1.3,1.5   C416,222.8,416.3,220.1,416.3,217.4L416.3,217.4z" />
	<path fill="#2C2725" d="M397.3,99.4c0.7,3,1,6-1.6,6.9C395.3,103.8,395.9,101.9,397.3,99.4z" />
	<path fill="#251D1B" d="M405.6,155.9c-0.3-1.4-0.6-2.7,0.1-4.2c2.2,1.1,1.2,2.8,1.1,4.2C406.4,155.9,406,155.9,405.6,155.9z" />
	<path fill="#42322F" d="M387,38.6c-0.5-0.1-1.2,0-1.3-0.8c1-0.9,2-1.8,3-2.7C390.6,36,387.6,37.6,387,38.6z" />
	<path fill="#453B37" d="M417.1,197.8c-1.3-1.6-1.9-2.6-1.4-3.9C417.7,194.4,417.7,196,417.1,197.8z" />
	<path fill="#080807" d="M416.2,230.8c-0.3,0-0.7-0.1-1.3-0.2c0.2-1.2,0.4-2.2,0.6-3.7c0.7,0.5,1,0.8,1.3,1.1   C416.7,229,416.4,229.9,416.2,230.8z" />
	<path fill="#130C0C" d="M385.5,42.7c-1.4-0.8-0.7-2.1-0.8-3.4c0.6-0.1,1-0.1,1.4-0.1C386.2,40.4,386.4,41.6,385.5,42.7z" />
	<path fill="#070606" d="M404.9,145.3c1.6,2.5,1.6,2.5,0.2,3.7C404.5,148,404.2,146.9,404.9,145.3z" />
	<path fill="#1A1716" d="M407.1,158c1,0.9,0.9,1.9,0.3,3c-1.6,0-1.1-1.2-1.3-2C406.4,158.6,406.8,158.3,407.1,158z" />
	<path fill="#010101" d="M403.7,113.1c-0.2-1-0.8-2.1,0.7-2.7C404.8,111.5,405.1,112.5,403.7,113.1z" />
	<path fill="#756963" d="M407.1,158c-0.3,0.3-0.7,0.7-1,1c-0.8-0.9-0.5-2-0.4-3c0.4,0,0.8,0,1.2,0C406.9,156.6,407,157.3,407.1,158z   " />
	<path fill="#7A6A64" d="M402.4,117.3c-0.5-1.5-0.5-1.5,0.6-2.4C403.5,116.6,403.5,116.6,402.4,117.3z" />
	<path fill="#3E2C2A" d="M406.6,165.4c-0.6-0.7-0.8-1.8,0.2-2.1C408.1,163.4,407.9,165.2,406.6,165.4z" />
	<path fill="#887871" d="M397.1,94.5c0-0.6,0-1.2,0-2.4C398.4,93.2,399.1,94.3,397.1,94.5z" />
	<path fill="#0C0A09" d="M385.1,48.6c1.7-0.9,1.5,0.9,1.2,1.8C385.2,50.2,385.2,49.4,385.1,48.6z" />
	<path fill="#674844" d="M397.1,96.2c1.1,0.7,1.1,1.2,0,2.1C397.1,97.4,397.1,96.9,397.1,96.2z" />
	<path fill="#78605A" d="M407.8,169.7c-0.7,0.5-1.2,0.6-1.4-0.2C406.8,168.7,407.3,169,407.8,169.7z" />
	<path fill="#EECABA" d="M416.3,217.4c-0.1,0.5-0.1,0.9-0.2,1.4C415.4,217.9,415.4,217.9,416.3,217.4z" />
	<path fill="#5B4440" d="M385.5,45.7c0.1-0.6,0.2-1,0.2-1.3C386.5,44.4,386.3,45.2,385.5,45.7z" />
	<path fill="#090807" d="M479.8,184.6c6.6-2.8,6.3,34.9,3.8,38C482.9,210,483.1,196.5,479.8,184.6z" />
	<path fill="#E8C6B7" d="M466.9,189.5c2.9-11.5,0.1-16.2,10.6-24.6c1.5,1.1,0.3,4.8,0.8,6.8c-0.3,0-0.5,0-0.8,0c0-0.6,0-1.1,0-1.8   C472,172.9,471.9,187.6,466.9,189.5z" />
	<path fill="#171413" d="M495.8,177.7c-0.3-0.2-0.5-0.3-1-0.6c0.8-2.8,0.7-5.6,2.3-8.3C499.2,171.3,498,175.8,495.8,177.7z" />
	<path fill="#0B0504" d="M496,122.2c-2.4-1.9-2.6-4.8-0.9-6.8C496.4,117.4,495.8,119.5,496,122.2z" />
	<path fill="#171110" d="M513.8,61.9c0.3-1.2,0.5-2.4,0.8-3.6c0.3,0,0.7,0,1.2,0c0.6,1.8,0.1,3.2-1.4,4.6   C514.2,62.5,514,62.2,513.8,61.9z" />
	<path fill="#3F3634" d="M497,168.1c-0.5-1.7-0.6-3.2,0.1-4.7C498.9,163.4,498.7,167.9,497,168.1z" />
	<path fill="#302B29" d="M482.5,228.9c-1.1-1.9-0.7-3.4-0.6-5.6C484,224.9,484,226.6,482.5,228.9z" />
	<path fill="#1D1D1C" d="M518.9,47.7c1.9,0.6,1.6,1.4,1.2,4.1C518.5,51.1,518.1,49.1,518.9,47.7L518.9,47.7z" />
	<path fill="#211716" d="M513.9,68.4c0.5,0.4,1,0.8,1.4,1.1c-0.3,0.9-0.5,1.6-0.7,2.4c-0.3,0.2-0.5,0.4-0.8,0.7   c-0.8-0.2-0.6-0.9-0.7-1.5C513.4,70.2,513.7,69.3,513.9,68.4z" />
	<path fill="#3B3A37" d="M510.5,117.2c-0.5,1.9-0.4,3.1-1.9,3.7C508.2,118.9,508.2,118.9,510.5,117.2z" />
	<path fill="#2C2826" d="M516,64.8c-0.4,1.1-0.7,2.3-2,2.8c-0.4-1.2-0.1-2.3,0.9-3.3C515.2,64.4,515.6,64.6,516,64.8z" />
	<path fill="#0A0908" d="M498.4,157.5c1.7,1.5,0.8,2.5,0.2,3.8C497.3,159.9,498,159.5,498.4,157.5z" />
	<path fill="#605450" d="M500.6,153.4c0.6,1.4,0.6,1.4-0.3,2.4C499.4,154.3,499.4,154.3,500.6,153.4z" />
	<path fill="#433533" d="M501.4,150.2c-0.6-0.8-0.3-2.1,0.6-2C503.1,148.8,502.7,150.5,501.4,150.2z" />
	<path fill="#554F4B" d="M513.1,71.1c0.2,0.5-0.1,1.3,0.7,1.5c-0.3,0.7-0.6,1.4-0.9,2.3C512.3,73.2,512.3,73.2,513.1,71.1z" />
	<path fill="#2C3836" d="M499.6,127.3c-0.7-1.2-1-1.6-1.6-2.5C500.2,125.1,499.5,125.1,499.6,127.3z" />
	<path fill="#111818" d="M501.8,128.9c-1.4-0.3-1.5-1.6-0.2-1.5C501.7,127.8,501.8,128.3,501.8,128.9z" />
	<path fill="#9F9088" d="M511.4,111.7c0.4,0.9,0.3,1.3-0.6,1.2C510.2,112.4,510.8,112.1,511.4,111.7z" />
	<path fill="#131111" d="M497.1,122.2c0.6,0.3,0.5,1.6,0,1.6C497,123.2,496.5,122.7,497.1,122.2z" />
	<path fill="#6C635E" d="M510.4,115.4c-0.1,0.1-0.3,0.2-0.4,0.4c-0.3-0.4-0.4-0.7,0.2-0.9C510.2,115,510.3,115.2,510.4,115.4z" />
	<path fill="#151C37" d="M402.7,418.3c0-4.4,0-8.8,0-13c2.5-1.2,0,5.4,0.9,7c4.8-10.9,5.1-24.8,7.4-36.9   C410.9,389.4,409,405.7,402.7,418.3z" />
	<path fill="#18203D" d="M403.3,379c2.2-14.9,4.7-30.2,8.5-44.7c1.3,0.2,1.6,1.1,1.4,2.4c-0.4-0.3-0.6-0.5-1-0.8   c-3.1,15.1-5.9,30-8.2,45.2C403,380.7,403.6,379.7,403.3,379z" />
	<path fill="#212D58" d="M402.7,418.3c0.4-0.5,0.9-0.9,1.3-1.4c-1.5,4.4,0.4,9.5-1.3,13.6c-0.2-0.2-0.5-0.5-0.7-0.7   C402.5,425.9,402.8,422.1,402.7,418.3z" />
	<path fill="#283668" d="M403.3,379c0.3,0.7-0.3,1.7,0.8,2.2c-0.2,1.8,0.5,3.1-1.3,4.3C402.8,383,402,380.9,403.3,379z" />
	<path fill="#231816" d="M414.3,232c1,2,1,3.4-0.7,4.7C412.9,235.1,413,233.8,414.3,232z" />
	<path fill="#271F1D" d="M387.6,112.1c-2-1.3-2.1-1.6-1.3-3.2C387.4,109.8,388.1,110.6,387.6,112.1z" />
	<path fill="#89675F" d="M406.9,236.6c0.1-0.3,0.1-0.7,0.2-1.3c0.4,0.3,0.7,0.5,1.4,1C407.7,236.4,407.3,236.5,406.9,236.6   C406.9,236.6,406.9,236.6,406.9,236.6z" />
	<path fill="#846159" d="M409,232.7c-0.2,0.2-0.3,0.2-0.4,0C408.7,232.4,408.8,232.4,409,232.7z" />
	<path fill="#342725" d="M446.2,158.3c3.2-0.9,6.3-0.8,9.6,0c0.4,0.8,0.8,1.6,1.4,2.7C453.3,160.8,449.5,160.6,446.2,158.3z" />
	<path fill="#352C29" d="M452.5,160.3c0.8,0.3,1.7,0.5,2.5,0.8c-0.5,0.8-1.1,1.5-1.7,2.5c-2.7,0-5.5,0-8.3,0   C445.1,160.5,450.9,162.1,452.5,160.3z" />
	<path fill="#362724" d="M453.3,184.6c0-0.4,0-0.9,0-1.3c4.4-0.2,8.4-2.6,12.5-0.7c-0.9,0.6-1.3,0.9-1.8,1.2   C460.7,182.9,456.9,185.2,453.3,184.6z" />
	<path fill="#D3B9AB" d="M453.3,184.6c3.6,0.6,7.4-1.6,10.7-0.8c-0.4,0.4-0.7,0.8-1.1,1.2c0.1,0.5,0.3,1.1,0.4,1.6   c-1.8-0.9-3.7-0.9-5.7-0.5C456.7,184.2,454.3,186.3,453.3,184.6z" />
	<path fill="#100D0C" d="M457.7,186c1.9-0.4,3.8-0.4,5.7,0.5c0.1,0.4,0.1,0.9,0.2,1.4c-2.2,1.1-4.3,1.2-6.6,0.8   c0-0.5-0.1-0.9-0.1-1.4C457.1,186.9,457.4,186.5,457.7,186L457.7,186z" />
	<path fill="#392F2C" d="M457.3,176.3c3.6-2,3.8-2.1,6.6-1.4c0.5,2.9-3.5,1-4.8,2.6C458.5,177.1,458,176.8,457.3,176.3z" />
	<path fill="#261B1A" d="M446.4,194.4c-0.8,0.3-1,0.9-0.8,1.6c0.7,0.6,1.4,1.3,2,1.9c-0.2,0.3-0.4,0.6-0.6,0.8c0,0-0.3,0.1-0.3,0.1   c-2.5-1-1.3-3.4-2.7-5c-0.4-0.7-2-2-0.5-2.3C444.4,192.4,445.4,193.4,446.4,194.4z" />
	<path fill="#74615B" d="M443.5,191.5c-1.5,0.3,0.1,1.6,0.5,2.3c-0.3,0-0.7,0-1,0c-1.2-1-2-2.1-2.5-3.6c0.2-0.2,0.5-0.5,0.7-0.7   C441.9,190.2,442.7,190.8,443.5,191.5z" />
	<path fill="#58524D" d="M461.8,160.9c0.2,0.8-0.3,1.8,0.8,2.3c-0.1,1.1-0.1,2.3-0.2,3.6C460.5,165.8,460.6,162.6,461.8,160.9z" />
	<path fill="#4F4844" d="M446.2,158.3c0.8,0.3,1.4,0.8,2,1.4c-2.2-1.1-3.7,2.6-5.5,0.8C443.8,159.5,444.9,158.7,446.2,158.3z" />
	<path fill="#6B504C" d="M441.2,189.5c-0.2,0.2-0.5,0.5-0.7,0.7c-0.5-0.9-1-1.8-1.5-2.7C439.7,188.2,440.4,188.8,441.2,189.5z" />
	<path fill="#D3B9AB" d="M456.8,187.3c0,0.5,0.1,0.9,0.1,1.4C455.9,188.2,455.9,188.1,456.8,187.3z" />
	<path fill="#D3B9AB" d="M457.7,186c-0.3,0.4-0.5,0.9-0.8,1.3C456.8,186.7,456.8,186.1,457.7,186z" />
	<path fill="#58524D" d="M462.6,163.2c0.1-0.2,0.2-0.4,0.3-0.6c0.1,0.2,0.3,0.3,0.4,0.5C463.1,163.1,462.8,163.1,462.6,163.2z" />
	<path fill="#1A1618" d="M426.4,271c-2.3-0.7-5.4-3.2-4.6-5.3C423.9,267.1,425.5,268.9,426.4,271z" />
	<path fill="#353339" d="M424.3,281c-2-0.5-2.4-1.5-2.5-2.9C423.2,278.8,423.2,278.8,424.3,281z" />
	<path fill="#4F4B54" d="M428.6,285.1c1.4-0.1,1.7-0.2,2,1.3C429.2,286.2,429.2,286.2,428.6,285.1z" />
	<path fill="#463F47" d="M431.5,274.7c-0.4-0.5-0.6-0.8-0.8-1.2C431.4,272.5,432.4,273.6,431.5,274.7z" />
	<path fill="#493B43" d="M426.5,282.4c0.6,0.4,1.5,0.5,0.7,1.6C426.5,283.7,425.9,283.4,426.5,282.4z" />
	<path fill="#0F0D0F" d="M428.9,272.3c-0.4-0.2-0.8-0.3-1.3-0.5c0.1-0.2,0.1-0.4,0.2-0.6c0.4,0.2,0.8,0.4,1.2,0.5   C429.1,271.9,429,272.1,428.9,272.3z" />
	<path fill="#463935" d="M480,174.5c1.4,1.6,1.2,2.9,0.2,4.2C478.6,177.3,478.5,176.7,480,174.5z" />
	<path fill="#291A19" d="M479.3,182.5c-0.4-1.4-0.4-1.4,0.2-2.7C481,180.8,481,181.5,479.3,182.5z" />
	<path fill="#1B1110" d="M420.8,178.9c1.2,1.3,1.6,3.1-0.2,4.2C419.5,181.7,419.5,180.5,420.8,178.9z" />
	<path fill="#50433E" d="M421.5,185.9c0.6,1.5,0.6,1.5-0.1,2.6C420.1,187.6,420.1,187.6,421.5,185.9z" />
	<path fill="#EECABA" d="M432.6,224.4c-0.2,0.3-0.4,0.6-0.6,0.8C432.2,225,432.4,224.7,432.6,224.4z" />
	<path fill="#F9DED2" d="M459.1,221.6c-0.8-3-9.6-12.9-7.2-14.4c0.9,1.5,1.9,2.9,3.4,4.1c0.4-2.3-2.6-4.4-4.3-6.8l0,0   c3.6-2.2,5.9,0.8,7.4-6c0.5-0.2,1.1-0.3,1.8-0.5c5.4,11.9,5.7,24.5,4.5,37.5C461.9,230.9,460.7,226.6,459.1,221.6   c0.3-0.2,0.8-0.3,1.2-0.4c0.3-1.2,0.1-2-1.4-2.5C459,219.9,459,220.8,459.1,221.6z M458.5,217.8c0.6-1.6-0.1-2.5-1.6-3.3   C456.6,216.2,457.5,217,458.5,217.8z M462.1,224.7c-0.2,0.8-0.6,1.6,0.9,1.8C463.5,225.6,463.2,225.1,462.1,224.7z M456.2,205   c-0.4-0.7-0.8-0.2-0.4,0.4C455.9,205.3,456,205.2,456.2,205z" />
	<path fill="#DEBEAF" d="M456.3,203c-1.5,1.5-4-0.1-5.2,1.6c-1.2-1-2.5-2-2.7-3.7c0.6,0.2,1.2,0.4,2.6,0.8c-1.1-1.1-1.6-1.6-2.1-2.2   c0.7-0.1,1.5,0.1,1.6-0.9c1.4-0.1,2.9-0.5,4.6-0.1c-0.5,1.2-0.9,2.3-1.3,3.4C454.2,203.1,455.8,201.5,456.3,203z" />
	<path fill="#433935" d="M452.6,206.6c2.5,2.4,2.6,2.6,2.7,4.7c-1.5-1.2-2.5-2.6-3.4-4C452.1,207.1,452.4,206.9,452.6,206.6z" />
	<path fill="#513C37" d="M448.7,199.5c0.5,0.5,1.1,1.1,2.1,2.2c-1.4-0.4-2-0.6-2.6-0.8c0,0,0.1,0.1,0.1,0.1   c-0.2-0.2-0.3-0.4-0.5-0.7c-0.9-0.1-0.9-0.9-1.1-1.5l0.3-0.1C447.6,199,448.2,199.3,448.7,199.5z" />
	<path fill="#9B817A" d="M443,193.8c0.3,0,0.7,0,1,0c0.6,0.6,1,1.4,0.8,2.3C444.2,195.3,443.6,194.6,443,193.8z" />
	<path fill="#DEBEAF" d="M447.8,200.3c0.2,0.2,0.3,0.4,0.5,0.7C448.2,200.7,448,200.5,447.8,200.3z" />
	<path fill="#DEBEAF" d="M451,204.6c0.2,0.3,0.5,0.5,0.7,0.8C451.5,205.1,451.3,204.8,451,204.6z" />
	<path fill="#080A14" d="M414.8,320.7c1.3,0.7,0.5,1.9,0.7,2.8l0,0c-0.3,0.2-0.5,0.5-0.8,0.7C413.6,323.2,413.9,321.7,414.8,320.7z" />
	<path fill="#05060C" d="M418.4,326.3c0-1,0-2.1,0-3.1c0.2,0,0.3,0,0.5,0c0.1,0.8,0.2,1.7,0.2,2.5   C418.9,325.9,418.7,326.1,418.4,326.3z" />
	<path fill="#293C73" d="M414.8,324.2c0.3-0.2,0.5-0.5,0.8-0.7c0,0.3-0.1,0.5-0.1,0.8C415.2,324.3,415,324.2,414.8,324.2z" />
	<path fill="#C09F92" d="M428.1,170.1c-0.4-0.3-0.4-0.5,0-0.8C428.5,169.5,428.2,169.8,428.1,170.1z" />
	<path fill="#C9C1C2" d="M389.2,16.9c-0.3,0.7-0.6,0.8-1,0.1C388.6,16.2,388.9,16.2,389.2,16.9z" />
	<path fill="#4B65C6" d="M469.6,342.6c1.2,0.2,2.4,0.2,2.9-1.3c0.5,0.2,1,0.5,1.5,0.7c0.5,7.2,4,15.5,1.5,23.4   c-0.7,2.2,1.2,5.1-2.8,4.9c-1.6-8.9-1.8-18-4.1-26.8c-4.4-0.7-9.9,1-13.9-0.8C459.7,342.7,464.6,342.7,469.6,342.6z" />
	<path fill="#0C101E" d="M448.2,386c-3.9-14.1-7.1-30.3-3.6-45c1.3,10.8,0.3,21.6,1.8,32.5c0.9,4.8,4,9,2.6,14.1   C448.7,387.1,448.4,386.6,448.2,386z" />
	<path fill="#4B65C5" d="M464,371.2c5.5,2.3,5,11,8.4,15.7c-0.6,1.2-1.3,2.5-1.9,3.7c-1.4-5.4-6.3-9.7-7.6-15.4c-0.6,0-1,0-1.4,0   c-0.4-0.6-0.2-0.9,0.3-1.1C463.3,373.8,463.3,372.2,464,371.2z" />
	<path fill="#171C32" d="M470.5,390.6c9.5-13.3,7.9-28.5,7.3-43.9c5.5,19.9-1.7,38.7-11.3,55.7C466.2,398.4,469.2,394.5,470.5,390.6   z" />
	<path fill="#101323" d="M479.7,399.8c0.3,0.3,0.5,0.6,0.8,0.8c-3,5.8-6.6,11.3-11.3,15.9C471.3,410.4,476.4,405.4,479.7,399.8z" />
	<path fill="#12162A" d="M463.9,366.2c0.6-6.8-1.3-13-0.4-19.8c1.8,6.9,2.7,13.7,1.2,20.5C464.4,366.7,464.2,366.5,463.9,366.2z" />
	<path fill="#1C2447" d="M456.2,393.4c-0.1-0.3-0.1-0.5-0.2-0.8c1.4-2.7,2.2-5.5,3-8.4c0.3,0.1,0.6,0.3,0.9,0.4   c-0.2,4.2-3,7.8-2.4,12.2c0,0.8,0.2,1.7-0.6,2.2C456.7,397.2,457.4,395,456.2,393.4z" />
	<path fill="#191F36" d="M450.4,359.8c0.1-5.8-0.1-11.5,0.3-17.3c0.6,3.1,0.8,13.8,0.4,18.7C450.8,360.7,450.6,360.2,450.4,359.8z" />
	<path fill="#050409" d="M469.6,342.6c-5,0-9.9,0.1-14.9,0.1c-1-0.7,1-1,1.5-1.4C460.3,343.3,465.4,340.9,469.6,342.6z" />
	<path fill="#3B4F98" d="M463.9,366.2c0.2,0.2,0.5,0.5,0.7,0.7c-0.6,2.5-0.2,6-2.9,7.2C462.9,371.6,462.9,368.5,463.9,366.2z" />
	<path fill="#2B396E" d="M450.4,359.8c1.3,2.3,0.6,5-1.1,7.3C448.9,364.5,449.5,362.1,450.4,359.8z" />
	<path fill="#151B36" d="M453.7,335.1c0.4,1.8,1,3.6-0.9,5.5C452.5,338.4,452.3,336.6,453.7,335.1z" />
	<path fill="#0C0D17" d="M456.6,350.4c0.6,3.3,0.4,6.2,0.1,9.6C455.9,357.4,455.9,353.5,456.6,350.4z" />
	<path fill="#2E386D" d="M474,342.7c0-0.2,0-0.5,0-0.7c0.7-0.2,1.4-0.4,2.1-0.7c0.3,0.2,0.5,0.5,0.8,0.7   C476.1,343,475,342.7,474,342.7z" />
	<path fill="#1A2344" d="M448.2,386c0.4,1,1.8,2.8-0.2,3C447.4,388,447.4,387,448.2,386z" />
	<path fill="#EDC9B9" d="M424.8,468.3c-1.2,1.2-2.6,0.2-3.6,0.6c-3.4-2.9-2.8-8.4,0.7-10.7c1.2,0,2.5,0,3.7,0   c-0.8,2.3,0,4.2,0.2,6.4C424.9,465.6,422.8,467.4,424.8,468.3z" />
	<path fill="#151211" d="M425.7,464.6c-0.7-3.4-1.1-8.5,3.4-9.5c0.7,3.3-2.5,5.6-2.2,8.9c0,0.2-0.4,0.4-0.7,0.7   C426.1,464.6,425.9,464.6,425.7,464.6z" />
	<path fill="#161312" d="M404.8,470.3c0.6-2.1,2.1-6.4,5-4.7C408.8,467.8,407.4,469.6,404.8,470.3z" />
	<path fill="#45413E" d="M401.8,475.8c-1.1,2.9-1.1,2.9-2.6,2.5C400.4,475.5,400.4,475.5,401.8,475.8z" />
	<path fill="#2C2321" d="M425.7,464.6c0.2,0,0.4,0,0.6,0.1c-0.2,1.3,0,2.8-1.5,3.6C422.8,467.4,424.9,465.6,425.7,464.6z" />
	<path fill="#221F1E" d="M397.7,483.9c-1.7-1-0.3-3.8,1.4-2.8C399,482.2,398.6,483.2,397.7,483.9z" />
	<path fill="#0F0C0B" d="M414.8,493.7c-0.4-1.2-0.2-2.1,0.9-2.4C417.8,491.6,416.8,494.6,414.8,493.7z" />
	<path fill="#5E514D" d="M420.2,486.1c-0.5,0.4-0.8,0.8-1.2,1.1C417.5,486.5,419,484.4,420.2,486.1z" />
	<path fill="#524441" d="M402.8,471.8c0.2-0.2,0.4-0.5,0.7-0.7c1.2,0.9,0.8,2.3-0.8,2.7C402.7,473,402.7,472.4,402.8,471.8z" />
	<path fill="#220C0C" d="M429.4,452c-0.5-0.7-0.5-1.3,0.3-1.4C430.5,451,430.1,451.5,429.4,452z" />
	<path fill="#362D2C" d="M431.2,448.9c0.5,0,1,0,1.5,0c-0.4,0.5-0.8,0.9-1.5,1.8C431.2,449.7,431.2,449.3,431.2,448.9z" />
	<path fill="#1D1615" d="M418.4,489.5c-1.1,0.4-1.3-0.5-0.2-0.8C418.2,488.9,418.3,489.1,418.4,489.5z" />
	<path fill="#EECABA" d="M455.4,463.9c-0.1,0.3-0.2,0.7-0.4,1c2.8,4.5,2.2,7.7-2,11.6c-3.7-2.1-5.7-8.2-2.5-11.5   c1-0.9,2.7,0.3,3.5-1.1C454.5,463.9,454.9,463.9,455.4,463.9z" />
	<path fill="#2F2624" d="M460.4,456c0.4,3-0.2,4-2.4,4.7C458.4,458.5,458.6,458.1,460.4,456L460.4,456z" />
	<path fill="#1A1716" d="M437.7,482.6c2.2-1.1,2,0.2,2,1.9c-0.5,0.7-1.1,1.4-1.7,2.2C436.9,485.2,437.6,483.9,437.7,482.6z" />
	<path fill="#4D403C" d="M414.1,535.1c0-2.1,0.3-2.4,2.1-2.7C416.1,533.8,415.4,534.7,414.1,535.1z" />
	<path fill="#534441" d="M418.9,528c0.4-0.2,0.8-0.4,1.2-0.7c0.6,1.7,0.6,1.7-1,2.1C419,529,418.9,528.5,418.9,528z" />
	<path fill="#0B0706" d="M438,487.9c0.8,1.2,0.8,1.2,0,2.6C436.8,489.8,437.4,488.9,438,487.9z" />
	<path fill="#6C5753" d="M422,524.8c0.1-0.6,0.3-1.2,1.1-0.8C423.7,524.7,422.7,525.7,422,524.8z" />
	<path fill="#493C39" d="M437.6,492.7c-0.1,0.5-0.2,1-0.2,1.5c-0.1,0-0.3,0-0.4,0c0-0.5,0-1,0-1.5   C437.2,492.6,437.4,492.6,437.6,492.7z" />
	<path fill="#49312E" d="M455.3,462.2c0.8-0.1,1-0.2,1.3-0.3c0,0.2,0,0.4,0,0.5C456.3,462.4,456,462.3,455.3,462.2z" />
	<path fill="#523B38" d="M455.4,463.9c-0.5,0-0.9,0-1.4,0c0.3-0.3,0.6-0.5,0.9-0.8C455.1,463.4,455.2,463.6,455.4,463.9z" />
	<path fill="#E6C6B7" d="M418.9,528c0.1,0.5,0.1,1,0.2,1.4c-0.7-0.2-0.7-0.8-0.7-1.4l0,0C418.5,528,418.7,528,418.9,528z" />
	<polygon fill="#A9958D" points="436,497.8 435.8,497.9 435.8,497.6  " />
	<path fill="#645C57" d="M424.3,521.1c0.1,0,0.1,0,0.2,0c0,0.2-0.1,0.3-0.1,0.5C424.3,521.4,424.2,521.3,424.3,521.1z" />
	<path fill="#222122" d="M388.1,562.9c1.5-2.2,7.3-2.6,9.5-1.1C396.8,565.9,391.9,564.6,388.1,562.9z" />
	<path fill="#211E1F" d="M389,566.7c2-0.9,6.2-2.9,7.1-0.2C394.9,568.9,391.2,568.4,389,566.7z" />
	<path fill="#101527" d="M463.9,448.1c-0.3,0-0.7-0.1-1.1-0.2c-1.1-5.9-6-11.2-6.3-16.8C460.5,435.3,462.6,442.3,463.9,448.1   L463.9,448.1z" />
	<path fill="#101427" d="M462,433.8c-1.3-6.7-6.1-13-5.5-19.7c2.5,5.9,4.6,12.1,6.2,18.4C462.4,432.9,462.2,433.4,462,433.8z" />
	<path fill="#020304" d="M456.2,393.4c1.2,1.6,0.5,3.8,0.7,5.7c-0.2,0-0.5-0.1-0.7-0.1C456.2,397.2,456.2,395.3,456.2,393.4z" />
	<path fill="#29386B" d="M462,433.8c0.2-0.5,0.4-0.9,0.7-1.4c1.1,0.9,0.6,2.1,0.5,3.9C462.6,435.2,462.3,434.5,462,433.8z" />
	<path fill="#1C2447" d="M456.2,399c0.2,0,0.5,0.1,0.7,0.1c-0.1,0.2-0.2,0.3-0.3,0.5C456.5,399.4,456.3,399.2,456.2,399z" />
	<path fill="#2F2724" d="M386.3,527.4c0.7-0.4,0.8-1.8,2.1-1.5c0.1,1.9-1.5,3.1-1.6,4.8C384.4,531.1,386.1,528.5,386.3,527.4z" />
	<path fill="#6C5952" d="M392.1,516.4c-0.7-1.1-0.4-1.8,0.7-2.6C393.9,514.8,393.5,516.1,392.1,516.4z" />
	<path fill="#332926" d="M389.2,524.6c-1-0.1-0.7-0.9-0.8-1.5c0.3-0.4,0.7-0.8,1.1-1.3C390.5,523,389.4,523.7,389.2,524.6z" />
	<path fill="#584843" d="M390,520.9c-0.1-1.7-0.1-1.7,1-2.5C391.1,519.6,391.1,519.6,390,520.9z" />
	<path fill="#050605" d="M439,470.4c0.3,0,0.7,0.1,1,0.1c0.5,3.2,0.3,7.6-0.6,10.5C437.7,477.5,439.1,473.9,439,470.4   C439.1,470.3,439,470.4,439,470.4z" />
	<path fill="#262125" d="M448.4,321.4c1.3,1.3,1.5,2.6,1.4,4.2C448.4,324.2,448.4,324.2,448.4,321.4z" />
	<path fill="#192141" d="M460.4,337.7c0,0.4-0.1,0.8-0.1,1.2c-0.1,0-0.3,0-0.4,0c0-0.4-0.1-0.8-0.1-1.2   C459.9,337.7,460.2,337.7,460.4,337.7z" />
	<path fill="#010101" d="M460.4,337.7c-0.2,0-0.4,0-0.6,0c0-0.5,0-0.9,0-1.4c0.2,0,0.4,0,0.7,0C460.4,336.8,460.4,337.3,460.4,337.7   z" />
	<path fill="#192141" d="M460.4,336.3c-0.2,0-0.4,0-0.7,0c0.1-0.2,0.1-0.4,0.2-0.6C460.1,335.9,460.2,336.1,460.4,336.3z" />
	<path fill="#5572E0" d="M483.4,337.7c-0.1,0.2-0.2,0.3-0.3,0.5C482.5,337.7,483.2,337.8,483.4,337.7   C483.3,337.6,483.4,337.7,483.4,337.7z" />
	<path fill="#A19189" d="M467.9,159.8c-0.9,1.7-2.2,1.1-3.4,1.1C465.2,159.7,466.2,159.6,467.9,159.8z" />
	<path fill="#1E1C1D" d="M465.5,226.6c0-3.1,0-6.2,0-9.3C466.6,219.3,466.5,224.6,465.5,226.6z" />
	<path fill="#AA9B8E" d="M448.7,199.5c-0.6-0.3-1.1-0.5-1.7-0.8c0.2-0.3,0.4-0.6,0.6-0.8c0.9,0.2,1.8,0.5,2.8,0.7   C450.2,199.6,449.4,199.4,448.7,199.5z" />
	<path fill="#3C2E2C" d="M458.5,217.8c-0.9-0.8-1.9-1.6-1.6-3.3C458.4,215.3,459,216.2,458.5,217.8z" />
	<path fill="#302A2A" d="M459.1,221.6c0-0.9-0.1-1.8-0.1-2.9c1.5,0.5,1.7,1.3,1.4,2.5C459.8,221.4,459.4,221.5,459.1,221.6   C459,221.6,459.1,221.6,459.1,221.6z" />
	<path fill="#5C5752" d="M462.1,224.7c1.1,0.3,1.4,0.9,0.9,1.8C461.5,226.3,461.9,225.5,462.1,224.7z" />
	<path fill="#6A3E3B" d="M456.2,205c-0.1,0.1-0.3,0.3-0.4,0.4C455.4,204.9,455.7,204.3,456.2,205z" />
</g>
</svg>