<?xml version='1.0' encoding='utf-8'?>
<svg xmlns="http://www.w3.org/2000/svg" version="1.2" baseProfile="tiny" id="Layer_1" x="0px" y="0px" viewBox="0 0 900 600" overflow="visible" xml:space="preserve">
<g id="a_00000103971784016166109280000015996782450264447934_">
	<path d="M744.8,194c23.7-17.2,30-30.1,63.7-22.9c0.5-0.3,1.4-0.7,2.7-1.4c3.3,1.7,5.9,1,9.1-1.4c-0.3,1.9-0.5,3.5-0.8,5.6   c2.6,0.1,5.1,0.2,8.8,0.3c-2,1.9-3.1,2.9-4.3,4.1c4,8.8,20.3,18.2,15.4,29.2c1.8,0.8,3.3,1.5,5.2,2.3c-0.6,1.4-1.1,2.4-1.5,3.5   c0.6,2.8,1.3,5.6,2,8.7c-1.5,0.8-2.6,1.5-4,2.3c2.2,1.1,4.3,2.2,6.8,3.4c-0.5,1.4-0.8,2.4-1.2,3.6c-1.6,0-3,0-4.7,0   c1,2,3.6,3.4,1.2,5.1c-0.7-1.2-1.5-1.5-3.2-0.5c3,2.6,5.4,3.9,9,6.2c-1.3,3-0.9,5.3,0.6,8.3c-1.6,2.1-2.4,3.9-3,6.7   c-11,7-25.4-2.3-33.1-11.1c-4.3-5-10.9,0.4-16.4-2.9c-1.1,0.5-2.2,1-2.8,1.2c-8.4-2.4-12.3,0.2-21,0.3c4.9-6,9.7-10.5,15.2-14.7   c1.3,0.2,2.2,0.4,2.7,0.5c2-1.8,3.6-3.2,5.2-4.6c-0.3-1.1-1.8-2.3-2.6-2.2c-2.3,1.6-3.5-0.6-5.1-1.2c-0.7,0.3-1.4,0.6-2.1,0.9   c-2.8-7.3-10.1-6.3-16.1-4c-2.2,0-4.6-1.9-6.4,0.9c-7.5,1.8-14.1-5.6-21.8-2c-2.4-1.9-5.4-3-5.1-6.7c0-1.1-0.5-1.5-1.5-1.5   c-0.4-2.1,0.8-3.9,1.4-5.8c-1.6-5.1-4,5.3-11.6,0c3-0.1,5.5-1,7.5-3.2c2.2,0.1,2.9-1.1,2.7-3.1c1.7-2.6,4.7-0.2,6.1-2.6   c0.4-0.3,0.9-0.4,1.4-0.4C743.7,194.7,744.3,194.4,744.8,194z M743.3,204c0.1,0.4,0.2,0.8,0.8,0.8c-0.8-0.4-0.7-1.5-1.5-1.6   C742.7,203.5,743,203.7,743.3,204z M743.3,198.1c-5.4,1.5-5.4,1.5-5.1,3c0.5,0.3,1.1,0.6,1.9,1   C741.2,200.7,742.2,199.4,743.3,198.1c1.3,0.2,2.6,0.4,4.2,0.7c0-1,0-1.9,0-3.5C745.7,196.4,744.5,197.3,743.3,198.1z M826.7,220.4   c-0.3-0.2-0.7-0.4-1-0.6C826,220,826.4,220.2,826.7,220.4c1.3,3.2,3.7,3.5,7.5,2.2C831.2,221.8,829,221.1,826.7,220.4z    M799.9,232.3c2.3,0.3,4.5,0.6,6.7,0.9c0.9-1.3,0.5-2.1,0.1-3.6C803.7,229,801.6,230.2,799.9,232.3c-0.7,0.1-1.5,0.3-3.6,0.7   C799.1,233.5,798.9,234,799.9,232.3z M823.8,236.8c0.3-0.9,0.6-1.8,1-3.1c-1.5-0.5-3-1-5.9-1.9c6.5,7.7,12,14.1,22.7,13.7   c-1.2-1.2-1.8-2.2-2.5-2.3C833.1,243,829.1,238,823.8,236.8z M799.6,171.3c-0.2,0.4-0.4,0.8-0.7,1.2c4.6,1.7,4.8,6.5,9.6,7.7   c0.8-1,4.6-1.3,3.7-3.3C808.2,175.2,803.9,173.2,799.6,171.3z M809.6,221.7c2.5,0.7,4.8,3.5,8,0.3c-1.3-1.9-2.6-3.9-4.1-6   c-1.5,0.7-2.8,1.3-4,1.8C809.6,219.1,809.6,220.3,809.6,221.7z M832.5,194.2c-2.4,1.1-4.5,2.2-6.6,3.2c2,1.7,2,1.7,10.1,0.7   C834.7,196.6,833.6,195.4,832.5,194.2z M796.6,203.2c-4.3-2.9-5.5-2.9-8.2-0.3C793,205.9,793,205.9,796.6,203.2z M797.9,189.9   c3.6-0.9,6.9-0.3,9-2c-1.2-2.4-1.2-2.4-4.2-3.2C801.4,186.1,800,187.7,797.9,189.9z M829.8,253.2c5.5,2.1,6.9,5,11.6,3.9   C834.9,252.3,834.6,252.1,829.8,253.2z M834.8,213.9c-0.8-3.3-2-6.1-6.8-4.9C830.7,211,832.8,212.5,834.8,213.9z M783.7,185.4   c-3.4-1.2-4.6-0.3-6.6,2.8C780,187,781.4,186.4,783.7,185.4z M784.9,189.9c-3.6-0.5-3.6-0.5-5.2,2.4   C781.7,191.4,783.1,190.7,784.9,189.9z M813.8,206.6c1.6,3,1.6,3,3.8,2.1C816.4,208.1,815.5,207.6,813.8,206.6z M804.1,237.2   c-0.2-0.4-0.3-0.8-0.5-1.3c-0.9,0.4-0.3,1.1-0.1,1.7C803.8,237.5,804,237.4,804.1,237.2z M787.1,218.5l0.3-0.5l-0.5-0.1   L787.1,218.5z" />
	<path fill="#070406" d="M618,287.6c-21.4,1.9-36.8,22.2-59.1,13.8c-15.3-1.6-31.7,15.4-45.3,5.4c-0.9,0-1.8,0-2.7-0.1   c-6.4-28.8-11.8-57.8-14.3-86.1c-13.3,5.6-27.2-12.3-54.4-4.7c-20.2,2.8-35.7,17.3-46.8,33.5c-21,16.8-47.6,26.3-72.5,35.8   c0.9,22.5-3.4,51.7,11,69.6c6.3-7,13.6-6.8,21.6-3c-1,2-3,0.8-4.5,1.3c-8.3-3.4-15,8.1-22.7,2c-4.9,0.3-9.6,2.1-14.5,0.6   c0-0.3,0-0.6,0-1c4.2-1,9-1.6,12.8-3.3c-6.3-13.7-6-27.4-8.7-41.9c-10.7,4-11.8,4.1-16.7,1.3c5-5.4,22.4-6.4,16.3-17.3   c-3.9-0.6-9.2,1.3-12.5-1.4c4.2-0.7,6.3,0.7,9.4-3.6c-9.1,2.5-15.6,2.2-24.4,1.7c9.1-1.8,18.2-2.4,27.6-3.2   c0.9-1.7,1.6-3.2,2.5-4.9c24.3-8,50.6-18.4,71.4-33.2c18.5-35.6,63.3-47.6,98.9-30.8c1.3-0.5,3.6-1.3,5.7-2.1   c2.3-0.3,4.2,2.7,6.3,0.2c7,2.5,13.4-0.1,20.6-0.4c2.7-5.7,7.1-6.6,12.4-4c10.5-12.3,26.7-13.4,40.4-16.9c1.1,0.4,2.2,0.9,3.3,1.3   c-1.5,0.9-3.6-0.4-4.4,1.6c-13.9,3.4-27.5,7.2-38.3,17c-2-0.5-4.4-1.1-7.2-1.9c-1.7,2.1-3.4,4.1-5.1,6.2c-7.5,0-13.5,1-23.3,1.5   c-6.5,23.6,15.2,44.5,11.6,66.7c-0.8-3.6-1.6-7.3-2.4-10.9c-1.2,9.1,1.2,19.1,3.4,27.6c12.4,6.9,24.9-4.1,37.5-6.2   c7.9-2.9,15.3,1.5,23.4,1c15.5,0.2,28.2-16.7,43.6-12.6C618,286.6,618,287.1,618,287.6z" />
	<path fill="#060504" d="M27.6,312.9c-11.8-15.4,1.8-36.9,4.7-53.8c2.4,1,1.2,3.3,1.8,4.9c-1.1,5.2-2.3,10.4-3.4,15.7   c-0.8,0.7-1.5,1.3,0.2,1.8c-2.1,4.6-4.4,9.7-3.3,14.9c1.8-0.3,3.6-0.5,5.4-0.8c8.6-16.4,10.6-34,15.7-51.3c0.9,0,1.9,0,2.8,0   c0.6,1.2,0.5,3,2.6,3.4c0.3-4.6,0.5-9.2,0.8-13.8c0.4,0,0.9,0,1.3,0c0.2,1.4,0.3,2.9,0.5,4.5c2.9,1.2,5.7,2.5,8.3,4.2   c-2.6,0.2-5.3,0.4-8.2,0.6c-1.9,7.7,3.7,16.2-0.6,23.4c-2.5-3.5-3.1-14.4-7.1-14.4c-0.1,5.7-2,11.4-3,16.9c2.7,7.6,5.3,15,8,22.6   c3.1-1.6,7.5-3.3,8-6.9c0.5-0.6,1.1-1.2,1.6-1.8c0.3,0.3,0.4,0.7,0.3,1.1c0.9,1.8,2.5,2.5,4.2,3.2c-12.3,6.8-21.2,18.1-27.5,30.5   c2,14.3,6,32.3,18.2,40l0.2-0.3l-0.3,0.3c5.5,13.2,20.6,6.5,31.6,10.3c0.1,0.5,0.1,1,0.2,1.5l0,0c-11,0.1-20.4-1.7-29.8,4.4   c-0.5-0.5-1.1-1-1.6-1.5c0.9-0.7,1.8-1.4,2.9-2.2c-17.9-15.5-26.2-40.8-25.1-63.8c0.9-0.8,1.6-1.4,2.1-1.8   c-0.9-3.6-3.2-4.6-6.2-4.9c-1.2,1.4-2.2,2.7-3.3,4C29.3,307,30,310.4,27.6,312.9z M51.1,298.5c-1.2-8.4-3.5-15.3-6.3-22.8   c-3,7.3-5.7,13.8-8.6,20.8C41.1,299.1,45,295.1,51.1,298.5z M39.3,311.8c3.4-4,5.6-7,7.5-11.1c-2.2,0.2-3.6,0.4-5,0.6   C41.1,305.6,40.7,306.9,39.3,311.8z" />
	<path fill="#090809" d="M59.1,372.5c0.5,0.5,1.1,1,1.6,1.5c-11.5,4.1-25.1-0.3-33.7,11.5c-4.6,6.6-11.8,8.5-19.5,8   c-12.8-1.4-5.9-21.7-3.7-30.1c0.6,0.6,1.2,1.2,1.7,1.8c-4.6,20.3,7.9,35.8,22,13.4c-0.3-0.6-0.7-1.2-1-1.8c0.2-0.3,0.2-0.5,0-0.8   c2.1-0.3,4.1-0.5,6.6-0.8c-1.2-2.3-3.4-4.3-2.1-7.1c0.7,0.1,1.5,0.1,2.2,0.2c2.2,1.9,2.7,4.4,6.3,4.9c-3.1-11.6-12-20.5-12.1-32.9   c0.2-1.5,0.6-3.2-1.7-3.4c-0.2,0.2-0.5,0.3-0.8,0.3c-0.1-0.7-0.1-1.3-0.2-2c4.2-6.7,2.4-14.8,2.7-22.3c2.5-2.6,1.7-6,1.8-9.2   c3.9,28.1-3.1,39.5,13.9,68.2C48.9,373.4,54,372.3,59.1,372.5z" />
	<path fill="#0E0A09" d="M224.5,286.2c0.2-0.4,0.5-0.6,0.9-0.4c0.7-0.4,1.4-0.9,2.1-1.3c1.3,0.1,2.5,0.1,2.9-1.5   c1.6-0.2,3.5,0.7,4.5-1.4c0.3-0.4,0.7-0.5,1.2-0.2c8.7,0,17.3,0,26,0c0.4-0.3,0.8-0.2,1.1,0.2c-5.8,4.5-16.3-1.5-22.3,2.7   c-2.4,0.9-6-1-7.4,1.6c-1.2,0.2-2.5-0.1-3,1.4c-0.3,0.4-0.6,0.5-1,0.3c-1.3-0.2-2.7-0.4-3.5,1.1c-1.6,0.7-3.5,0.2-5.2,0.5   c0,0.3,0,0.6,0,0.9c1.7,0.2,3.6,0.1,5.2,0.5c-1,0.8-1.9,1.7-2.9,2.5c-25.5,1.2-47.7,15.6-73.5,13.8c-13.1,1.2-29.2,7.8-41.3,2.8   c0.6-0.5,1.2-1.1,1.8-1.6c6.8-0.4,8.7,1.9,8.9-5.8c1.5,0.5,2.9,1,4.4,1.4c-0.3,0.8-0.6,1.7-1,2.8c18.4-2.5,37.4-2.7,55.6-6.3   C193.3,294.7,208.8,287.9,224.5,286.2z" />
	<path fill="#08090B" d="M512.3,306.8c0.5,0,0.9,0,1.4,0c0.3,1.8,0.3,3.6,0.4,5.5c-14,5.1-16.9,24.6-33.3,25.7   c-5.4,0.2-10.9-0.9-15.7,2.1c-20.3,9.1-43.4,3.4-64.5,10c-0.5-0.4-1.1-0.8-1.6-1.2c25.3-12.9,57-2.2,80.5-18.2   c1.1,0.9,2.2,1.9,3.3,2.8c7.4-5.5,16.5-10.3,19.2-19.9c0.4-1.8,2.3-2.3,4.1-2.4C508.9,311.9,512.7,310,512.3,306.8z" />
	<path fill="#0C0909" d="M618,287.6c0-0.5,0-1,0-1.5c6.9,0.4,13.9,3,20.7,2c0.3-2.1,2.6-3.8,0.9-6.4c-3.1,1.1-5.7,0-8.1-1.9   c1.1-2.1,3.2-1,4.8-1.6c1.6,0.4,3.2,0.8,5.2,1.2c1.3-6,5.2-10.8,6.2-17c-13.9,1-27.2-1.9-38.9-9.2c1.1-4.5,26,8.2,37.2,3.9   c0.7-4.6-1.9-10.9,1.8-14.4c6.3,28-5.4,35.4-7.5,61.1c-3.4,2.1,0.7,6.8-2.8,8.9c-2.4-6.1-0.6-12.5,0-18.7   C626.8,292.7,626.8,292.7,618,287.6z" />
	<path fill="#090606" d="M232,345.4c-44.4,7.5-86.9-1.3-129.6,5.1c27.3-15.1,56.4-3.1,85.3-5.7C202,344.5,218.5,341.8,232,345.4z" />
	<path fill="#1B170C" d="M35.4,227.8c-0.8-8.7-1.7-17.4-2.1-26.3C3.6,186.7,32,149,30.5,125.2c1.1,0,2.3,0,3.4,0c0,1.2,0,2.4,0,4.1   c2.5,0.1,4.8,0.2,7.2,0.3c0,0.5-0.1,1.1-0.1,1.6c-2.5,0.1-4.7,0.8-6.6,3.1c1.6,0,3.2,0,4.8,0c0.1,0.7,0.1,1.4,0.2,2.1   c-2.4,0.8-4.6,1.6-6.9,2.3c0,0.3,0,0.7,0,1c2.8,0.4,5.5,0.8,8.3,1.3c0,0.8,0.1,1.6,0.1,2.4c-3.4-0.1-6.8-0.7-10.6,0.1   c-2.4,16-18.9,52.9,7.4,54.7c-0.7-2.7-4.6-6.9-1.1-9c1.8,3.2,2.6,6.1,6.1,8.1c1.1-2.3,1.9-3.9,2.7-5.6c0.6,1.1,1.1,2.3,1.7,3.4   c-1.1,5.3-4.2,8.1-10.1,7.6c1,5.1-2.8,11.4,2.7,14.3c-0.9,0.6-1.9,1.2-2.8,1.8c0.4,1,0.9,2,1.3,3c-0.4,0.7-0.8,1.4-1.5,2.9   c3.9-0.1,6-0.3,9,1.5C42.2,226.4,38.6,226.4,35.4,227.8z" />
	<path fill="#090705" d="M41.1,131.2c0-0.5,0.1-1.1,0.1-1.6c1.8-0.9,1.9-1.9,0.2-3c-2.6-3.9-3.1-4-7.4-1.4c-7,0.7-13.4-5.2-9.4-10.7   c0.7,0.6,1.3,1.3,2,1.9c-0.1,1.8,0.2,3.4,2.6,4.5c1.8-0.7,4-3.6,6.4-2.1c1.1,2.9,4.3,1.3,6.9,1.7c0.2-2.4-0.4-4,0.4-5.7   c0.5,0,1-0.1,1.5-0.1c0,0,0,0,0,0c-0.2,31.8,9.9,63.4,7.3,95.5c-0.4,0-0.9,0-1.3,0c-1.9-3.4,0.5-15.1-3.2-14.9   c-4.3-15.2,0.8-34.3-4.3-49.1c-0.5,0-1.1,0-1.6,0C39.5,140.7,45.9,135.2,41.1,131.2L41.1,131.2z" />
	<path fill="#0A0905" d="M80.1,202.8c-0.8,2.8-1.6,5.6-2.4,8.2c-1.9,0.6-3.3,1-4.7,1.4c1.3,6.8,1.2,12.9-3.3,18.4   c-1-2.8,1.2-7.3-1.7-8.9c0-0.4,0.1-0.9,0.2-1.3c0.8-0.5,1.3-1,0.2-1.7c2.7-24.2-5.6-50.6-0.4-74.5c1.2,3.3,3.3,6.3,3.3,10   c-2.3,4.6-2.8,9.2-0.5,13.9c2.7,13,1,26,1.9,39.1c3.6-0.5,2.6-4,4.6-6.1l-0.1,0.1c0.5,0,0.9-0.1,1.3-0.4   C79.1,201.6,79.6,202.2,80.1,202.8z" />
	<path fill="#0F090A" d="M592.8,189.4c19.9-7.1,57.1-15.2,77.3-10.4c-0.5,0.5-1.1,1-1.6,1.5c-17.5-1-33.5,6-50.2,8.6   c1.2-0.8,2.4-1.5,4.2-2.7c-3.2-0.1-5.6-0.6-7.6,1.2c-5.8,1.1-11.7,2.2-17.5,3.3C595.9,190.2,593.8,191.4,592.8,189.4z" />
	<path fill="#211B0D" d="M66.3,157.4c0.1,0.7,0.1,1.4,0.2,2.1c-3.3-0.9-6.6-0.3-10.3-0.2c0.6,6.8-1.1,12.7,0.8,19.2   c1.6,0.1,3.2,0.2,4.8,0.3c-1,2.6-3.5,0.7-5.2,1.9c-0.2,6.7-0.5,13.5-0.7,20.3c-0.7-0.8-1.5-1.6-2.2-2.4c-0.7,0.3-1.4,0.6-2,0.9   c0-1,0-2,0-3c0.9-0.2,1.7-0.4,2.5-0.5c-0.6-24.6-3.4-48.8-3.9-73.7c3.4,0.3,2,4.2,4.6,5.8c3,0.8,6.5,1.7,10,2.6   c0,0.7,0.1,1.3,0.1,2c-3.8-0.8-6.8,1.5-10.2,1.9c-0.1,5.7,6.7,3.3,10.2,3.8l0.3,0.4c-0.1,1-0.2,1.9-0.2,2.9   c-3.3-0.3-6.6-0.6-10.4-1c-0.6,5.2,0.2,10.2,0.8,15.5C59.2,156.5,62.7,156.9,66.3,157.4z M55.6,131.7c-0.7-0.2-1.3-0.9-1.8,0   C54.4,132,55,132.6,55.6,131.7z" />
	<path fill="#171212" d="M123.2,303.8c-1.4-0.5-2.9-1-4.3-1.4c0.1-1.2,0.2-2.4,0.3-3.6c-3-4.5-8-6-12.4-8.3   c-5.2-3-5.8-10.8-12.3-11.8c-3.5,2.3-6.8,4.4-10.5,6.8c5.1,9.6,14.7,13.5,22.8,19.9c-0.5,0.5-1,1-1.5,1.5c-0.5-0.2-1-0.3-1.4,0l0,0   c-0.6-1.4-1.7-1.6-3-1.4c-9.2-5.1-17.1-11.5-22.4-20.8c0.5-1.8,2.1-1.6,3.4-1.8c13.5-17.8,20.1-1.6,31.5,7   C119.2,293.1,122,295.9,123.2,303.8z" />
	<path fill="#141010" d="M744.3,265.3c-0.6-1.3-1.3-2.6-2.1-4.2c-9,0-17.9-3.1-27.7-0.6c-7,11.8-12.2,25.4-24.6,33.5   c-0.4-0.6-0.3-1.4-0.4-2.1c8.5-12.7,19.3-23.7,18.1-40.1c1.5,0,3.1,0,4.6,0c0.5,2.5-3.6,4.2-1.1,7.1c1.8-2.5,3.6-4.8,5.3-7.2   c0.6,0,1.2,0,1.8,0.1c-0.2,1.4-0.3,2.7-0.5,4.1c8.9,0.8,17.3,1.6,25.7,2.4c1.5,2.2,2.7,4.3,2.8,6.8   C745.6,265.2,744.9,265.2,744.3,265.3z" />
	<path fill="#170E0D" d="M232,345.4c-4.5-3-11.4-0.6-16.8-1.5c37.5-9.5,56.6,17.6,83.6,5.3c-2.8-1.4-5-2.5-7.2-3.5c-0.5-1-1-2-1.6-3   c4-0.2,7.7,1.1,11.2,2.3c0.6,1.7,1.1,3,1.5,4c3.8,2.3,10.2,2.2,11.3,6.8c-4-1.1-8-2.3-12.9-3.7C277.5,364.3,256,343.2,232,345.4z" />
	<path fill="#1C1918" d="M637.5,312.8c3.4-2.1-0.7-6.8,2.8-8.9c1.5,16.3-1.4,34.6,5.3,49.6c0.5-0.9,1.1-1.9,1.9-3.4   c1.8,5.2,1.7,5.2,1,9.2c-2.4,8.2,1.6,18.7-5.1,25.1c-0.1-10.1,4.1-20.8-2-30.3C635.1,341.7,640.3,326.3,637.5,312.8z" />
	<path fill="#2A2625" d="M685,318.8c2.7,9.4,3.2,19.6-0.2,29.7c6,13.5,1.5,29.7,6,43.3c-0.8,0.5-1.7,1-2.5,1.4   c0-5.6-1.7-10.7-4.3-15.8c3.2-10.8-1.1-21.4-1.5-32.1c2.4-7.3,1.3-14.6,1-21.9c-1.7-0.1-2.8-0.2-4.3-0.3c0.4-3.9,1.2-7.1,4.2-9.3   C683.9,315.5,682.9,317.6,685,318.8z" />
	<path fill="#EFBC13" d="M64.9,130.7c-3.5-0.9-7-1.8-10-2.6c-2.6-1.6-1.2-5.5-4.6-5.8c-1.4-9.5,10.7-15.7,15.7-5   C63.8,121.6,65.2,126.3,64.9,130.7z" />
	<path fill="#3A2B29" d="M758.2,521.3c1.5-0.2,2.3,0.4,2.5,2.1c-5.1,6.1-13.1,1.2-19.2,4.6c-7.2,3.7-13.1-4.2-18.5-7.4   c-4.3,0.7-8.4,1.4-12.5,2.1c0-0.4,0-0.9,0-1.3c11.6-10.1,17.9,4.3,29.1,4.4c-4.3-4.2-8.5-8.2-12.7-12.3c0,0,0-0.6,0-0.6   c9,0.8,16.1,18.8,27.7,9.3c-0.5-0.4-1-0.9-1.8-1.6c0.8-0.7,1.7-1.4,2.5-2.1C756.2,519.5,757.2,520.4,758.2,521.3   c-0.5,0.3-1.7,0-0.8,1.2C757.7,522.1,758,521.7,758.2,521.3z" />
	<path fill="#2A2726" d="M688,414.1c-3.4,25.2-6.2,49.6-6.2,75.1C680,480.7,678.5,412.6,688,414.1z" />
	<path fill="#090606" d="M101,353.4c-1.5,3.9-5.5,4.4-8.9,6.3c0.5,0.7,1,1.5,1.5,2.2c-0.6,0.6-1.3,1.2-1.9,1.9   c-7.3-1.8-15.9-0.8-20.6-7.7l0,0c-0.9-4.7-4.2-10.3-1.6-14.9c4.5,4.1,2.2,16.2,10.3,16.4c5.1-1.2,13.1-1.1,16.4-4.7l-0.1,0   C97.9,352.3,100.2,350.9,101,353.4z" />
	<path fill="#302826" d="M685,318.8c-2.1-1.1-1.1-3.3-1.6-4.9c9.3-39.9-10.9-31.4-9.8-56.7c4.9,13.3,15.6,24.8,15.7,37.9   C685.1,301.8,687.1,310.8,685,318.8z" />
	<path fill="#0F1215" d="M399,348.9c0.5,0.4,1.1,0.8,1.6,1.2c-12.5,5.8-26.2-2.6-39.3,1.3c6.4-5.2,14.2-5.8,21.9-6.7   c0.7,1.3,1.4,2.4,1.8,3.3C390.1,348.7,394.2,350.3,399,348.9z" />
	<path fill="#1F1C16" d="M69.7,230.8c0.8-1.6,1.7-3,2.8-4.4c-0.3,14.6,4.4,30.8,0.2,44.7c-2.7-9.1-0.9-18.8-2.9-28.1   c-3.9,0.1-6.1-1-9.2-2.9c2.8,0.3,5.6,0.5,8.8,0.9C69.5,237.5,69.6,234.2,69.7,230.8z" />
	<path fill="#312C21" d="M80.1,202.8c-0.5-0.6-1.1-1.2-1.6-1.7c-0.1-0.5-0.1-1-0.2-1.5c0.3-0.3,0.4-0.7,0.3-1.1   c5.4-11.7-2.3-26.2-7.5-37.8c-0.2,3.3-0.3,5.5-0.4,7.7c-2.3-4.7-1.9-9.3,0.5-13.9C78.4,168.9,87.8,187,80.1,202.8z" />
	<path fill="#2B2221" d="M697.9,521.7c-8.2-1-16.4-2.1-23.9-3.1c-3.8-3.7-5.3-7.9-6.5-12.1c0.6,0,1.2-0.1,1.8-0.1   c1.8,2.9,3.7,5.7,5.9,9.1c9.6,1.5,19.5,3.1,29.4,4.7C702.6,521.7,700.2,521.6,697.9,521.7z" />
	<path fill="#1E191A" d="M24.8,335.2c0.1,0.7,0.1,1.3,0.2,2c-8.9,7.8-16.3,16.3-19.4,28c-0.6-0.6-1.2-1.2-1.7-1.8   c0.3-3.6,2.3-6.6,1.7-10.3C10.5,345.5,16.3,339,24.8,335.2z" />
	<path fill="#2B2524" d="M811.8,263.6c-1.6,4-6.4,2.6-10.1,3.5c-3.1,3.5-6.3,7.8-10.6,10.4c-0.1-0.8-0.2-1.5-0.4-2.3   c3.1-4.4,6.8-8.1,10.8-11.8l-0.1,0.2c1.2-0.1,2.3-0.2,3.5-0.2c-0.5-3.9-2.9-6.3-4.9-8.9c0.6-0.6,1.2-1.1,1.7-1.7   c4.4,2.3,6.6,6.3,7.6,10.7C810.4,263.6,811.2,263.6,811.8,263.6L811.8,263.6z" />
	<path fill="#1F1C1B" d="M681.8,489.3c1.1-8.8-1.7-19.5,1.6-27.4c1,1,2.1,2,3.1,3c-3.1,3-0.4,8.2-1.1,12.8c3.6,0.7,6.8,1.4,10.1,2.1   c-0.6,0.5-1.2,1.1-1.7,1.6c-2.5,0-4.9,0-7.9,0c-0.7,3.8-1.7,7.9-2.6,11.8c-0.3,0-0.6,0-1,0C682.2,491.8,682,490.6,681.8,489.3z" />
	<path fill="#1D1A1A" d="M669.2,506.4c-0.6,0-1.2,0.1-1.8,0.1c-6.2-8.4-11.4-19.3-8.1-29.8C661.7,487.1,666.8,496.4,669.2,506.4z" />
	<path fill="#181616" d="M649.5,454.4c-3.8-10.9-6.9-24.6-3.3-35.7c1.7,11.3,3.4,22.6,4.8,33.9C650.5,453.1,650,453.8,649.5,454.4z" />
	<path fill="#1D1111" d="M716.8,472.1c5.9,0.8,11.6,2.1,17.4,3.5c-2.3,1.2-3.4,1.6-6.4,2c2.3,1.5,3.9,2.5,5.4,3.5   c-6.5,1.4-12.2-3-18.2-4.8C716.5,474.9,714.9,473.3,716.8,472.1z" />
	<path fill="#393231" d="M790.7,275.2c0.1,0.8,0.2,1.5,0.4,2.3c-1,1.4-2,2.7-3.2,4.3c-2.3-1.8-3.7-2.9-5.2-4.1   c-1.9,1.2-3.8,2.3-6,3.7c-2.2-1-3.8-3-5.4-4.8c-0.2-1.5-3.1-2.9,0-5c1.9,2.2,3.8,4.3,5.7,6.5c1.7-1.1,3.3-2.1,4.8-3   c-0.1-2.3-1.8-4.8,1.7-5.5l-0.1-0.1c1.2,2.7,2.4,5.5,3.8,8.4C788.5,276.9,789.6,276,790.7,275.2z" />
	<path fill="#3C3130" d="M306.6,287.7c-13.1,4.2-27.6,1.3-40.6-3c1.1-0.5,2.1-1,3.2-1.5C282,285,293.5,289.7,306.6,287.7z" />
	<path fill="#332519" d="M72.7,271.1c2-2.3,1.4-5.3,1.6-8.1c1.1,5.6,1.6,11.8,1.8,17.3c2.2,1,4,1.8,5.7,2.6c-1.3,0.2-2.9,0-3.4,1.8   c-3.5,0.6-6.9,1.5-10.3,2.6c-1.8-0.7-3.3-1.4-4.2-3.2c3.3,1.1,6.2,0.7,8.8-2C72.7,278.4,72.7,274.7,72.7,271.1z" />
	<path fill="#29211F" d="M649.5,454.4c0.5-0.6,1-1.2,1.5-1.8c3.9,8.9,9.5,19.7,7,29.4C655.5,472.7,650.9,463.7,649.5,454.4z" />
	<path fill="#221919" d="M749.2,485.5c-1.2,1.1-2.4,2.3-4,3.8c-3.9-0.8-8.2-1.6-12.4-2.4c-4.9-2.7-12.5,0.2-17.8-2.5   c0-0.6-0.1-1.2-0.1-1.8c0.5-0.5,1-0.9,1.5-1.4c0,0,0.1,0.2,0.1,0.2c7.2,4.9,16.7,2.1,25.1,4.2c1.9-0.9,3.7-1.9,5.9-1.5   C748,484.5,748.6,485,749.2,485.5z" />
	<path fill="#332A18" d="M34.1,264.1c-0.6-1.6,0.5-3.9-1.8-4.9c1-5.9,2-11.9,2.9-17.8c1,0,2.1,0,3.1,0c-0.6,4.3-2.1,8.6-1,13.5   c2.4,0,4.6,0,6.8,0c-2.1,2.9-6.2,1.5-8.8,4.4c0.4,1.4,0.9,2.9,1.4,4.4C35.8,263.7,34.9,263.9,34.1,264.1z" />
	<path fill="#322825" d="M96.2,352.9c-0.2,1.7-1.5,1.8-2.8,1.7c1.5-2.9-3-3.1-1.4-6.1c0.8,0.4,1.5,0.7,2.9,1.4   c-2.2-3.6-1.5-9.7-5.6-9.8c1.2-2.1,2.5-4.2,3.7-6.3c0.5,9.6,3.5,17.8,14.1,18.1c-2,0.5-4,1.1-6,1.6   C100.2,350.9,97.9,352.3,96.2,352.9c-0.3-0.5-0.3-1.5-1.2-0.5C95.4,352.5,95.8,352.7,96.2,352.9z" />
	<path fill="#3E3214" d="M42.4,115.7c0,1.4,0,2.8,0,4.7c-2.6-0.4-5.8,1.3-6.9-1.7c1.6,0.1,3.3,0.2,5.5,0.4   c-3.3-5.2-10.1-6.6-14.4-2.7c-0.7-0.6-1.3-1.3-2-1.9C27.9,107.9,38.2,111.6,42.4,115.7z" />
	<path fill="#4A3D3B" d="M739.6,509.3c0.3-0.1,0.5,0.1,0.7,0.4c-0.6,0.5-1.1,1-1.7,1.5c-4.3,0-8.6-0.2-12.8-0.1   c-3.9-3.3-10.2-0.2-13.7-4.6c0,0,0,0.1,0,0.1c8-0.3,15.9,1.8,23.9,1.7C736.7,509.9,738.2,509.4,739.6,509.3z" />
	<path fill="#463433" d="M686.7,499c8.4,2.5,18.3,1.8,25.3,7.6l0-0.1c-8.5-1.4-17-2.8-25.4-4.6C686.6,500.9,686.6,500,686.7,499z" />
	<path fill="#9B9584" d="M51.9,157.7c2.9,9.9,0.5,21.1,1.3,31.5c-0.5,1.4,0.6,3.3-1.4,4.1c0.6-6.5-1.6-12.8-1.5-19.2   C53.5,169.9,51,162.8,51.9,157.7z" />
	<path fill="#342729" d="M592.8,189.4c1,2,3.1,0.8,4.6,1.5c-5.7,2.4-12.3,2.7-18.1,5.4c-1.1-0.4-2.2-0.9-3.3-1.3   C581.5,193,586.7,188.1,592.8,189.4z" />
	<path fill="#383331" d="M725.5,204.3c1.8,1.3,3.8,1.4,6,1.4c-10.7,5.1-14.6-0.1-22.5-5c1.4-1.4,2.9-2.7,4.3-4.1   C712.7,202.9,720.4,205.4,725.5,204.3z" />
	<path fill="#2B2221" d="M755.1,518.5c-0.8,0.7-1.6,1.4-2.5,2.1c0.8,0.7,1.3,1.1,1.8,1.6c-0.3,0.3-0.7,0.6-1,0.9   c-3.9-1.6-7.8-3.2-11.7-4.8C744.4,512.4,750.9,517.5,755.1,518.5z" />
	<path fill="#312427" d="M682.1,182.8c5.8,2.6,12.3,3.2,17.8,6.5c-0.9,0.5-1.9,1-2.8,1.6c-6.6-2.5-13.3-5-19.9-7.4   C678.8,183,680.4,182.8,682.1,182.8z" />
	<path fill="#483433" d="M749.2,485.5c-0.6-0.5-1.2-1-1.7-1.5c-0.9-2.9-3.4-2.9-5.8-2.9l0.1,0.1c-2.4-3.5-7.1-2.8-10.6-4.3   c1-0.5,2-0.9,3-1.4c6.6,1.1,12.6,3.5,17.7,7.7C751.6,485.1,750.6,485.6,749.2,485.5z" />
	<path fill="#191111" d="M269.2,283.3c-8.7,3.3-19,0.3-28.2,1c6-4.3,16.6,1.8,22.3-2.7C265.2,282.1,267.2,282.7,269.2,283.3z" />
	<path fill="#292725" d="M643.6,414.1c-1.1-7.4-3.1-14.8-1.4-22.2c2.8,1.8-0.5,5.8,2.6,7.4C644.3,404.1,646.7,410.1,643.6,414.1z" />
	<path fill="#181B10" d="M38.3,241.3c-1,0-2.1,0-3.1,0c-3.4-2.3,2.6-4.5,2.8-7.5c0,2,0.9,6.4,3.3,3.2c1.5,0,2.9,0,4.4,0   c0,0.8,0,1.7,0,2.5C43.2,240.1,40.8,240.7,38.3,241.3z" />
	<path fill="#382A28" d="M716.8,472.1c-1.8,1.2-0.3,2.8-1.8,4.2c-0.5-0.3-1.1-0.6-1.6-0.9c0-2.2-1.8-4.3-3-1.5   c-3.4-1.2-6.8-2.4-10.2-3.7c1.1-0.4,2.2-0.9,3.2-1.3C707.7,470.9,712.6,470.3,716.8,472.1z" />
	<path fill="#7A6664" d="M703.4,468.9c-4.8,2.9-10-0.2-14.8-1.9c-1,0.2-2.2,0.5-3.4,0.7c-0.9-1.4,0.5-2,1.3-3   C692.2,465.6,697.8,467.7,703.4,468.9z" />
	<path fill="#211B0D" d="M68,144.4c-2,2.7-1.5,6.1-1.7,9.3c-1.8-3.5-1.2-7.2-1.1-10.8c2.1-2.2,1.5-2.5-0.3-4.6   c1.4-2.8,1.9-4.8,1.5-7.9c0.3-0.3,0.4-0.7,0.2-1.1C68,134.3,68.1,139.3,68,144.4z" />
	<path fill="#503F3D" d="M746.4,515.4c-2.1,0.1-3.9,0.7-4.6,2.9c-1.7-1.5-5.7-1.8-5.6-4.2c1.2-0.1,2.3-0.2,3.8-0.4   c-0.5-0.9-1-1.7-1.4-2.5c0.6-0.5,1.1-1,1.7-1.5C742.3,511.6,744.4,513.5,746.4,515.4z" />
	<path fill="#332C2B" d="M761.5,280.4c-5.7,4-8.1,3.7-13.8-1.9c0.5-0.5,1-1.1,1.6-1.6c3.5,2.4,7.2,4,11.6,2.6   C761,279.9,761.2,280.2,761.5,280.4z" />
	<path fill="#121010" d="M749.3,276.9c-0.5,0.5-1,1.1-1.6,1.6c-3.1-3.9-3.2-8.6-3.4-13.3c0.6-0.1,1.3-0.1,1.9-0.2   C747.3,269.1,749.2,272.8,749.3,276.9z" />
	<path fill="#191111" d="M262.2,281.4c-8.7,0-17.3,0-26,0C244.3,278.8,253.7,279.6,262.2,281.4z" />
	<path fill="#464241" d="M771.3,276.7c1.1,1.1,2.1,2.3,3.2,3.4c-1.8-0.9-3.2,0.9-4.7,0.8c-2.8-1.1-5.3-1.9-8.2-0.5   c-0.3-0.2-0.6-0.6-0.7-0.9C762.8,275.3,767.7,276.9,771.3,276.7z" />
	<path fill="#E5B025" d="M42.4,115.7c-3.5-3.5-7.9-4.5-12.7-4.7c4.7-0.8,9.3-2,13.9,0.5C43.3,112.9,42.8,114.3,42.4,115.7z" />
	<path fill="#231F20" d="M713.2,196.6c-2.6,2.9-5.8,4.8-8.6,7.4c-2.1-4.6,2.6-6.8,5.7-9c1,0,2,0,3,0   C713.3,195.6,713.3,196.1,713.2,196.6z" />
	<path fill="#2B2928" d="M644.8,399.2c-3.1-1.6,0.2-5.6-2.6-7.4c0.4-2.5,0.9-5,1.3-7.5c0.9-1,1.8-2,2.7-3   C646.4,387.4,643.8,393.1,644.8,399.2z" />
	<path fill="#1A1818" d="M688,414.1c-0.6,0-1.1-0.1-1.7-0.1c0.4-5.9-0.6-12,1.9-17.8c0.5,0,1-0.1,1.5-0.1c0,0,0,0,0,0   C690,402.2,688.5,408.1,688,414.1z" />
	<path fill="#373432" d="M643.6,414.1c2-1.1,0.9-3.3,1.5-4.9c3.3,6.4-1.2,12.4-0.6,18.9C642.5,423.6,643.5,418.8,643.6,414.1z" />
	<path fill="#633434" d="M713.3,195.1c-1,0-2,0-3,0c-1.5-4.7-9.2-2.7-13.2-4.2c1.9-1.2,4.1-2.5,5.9-0.5   C707.3,190.6,712.3,189.6,713.3,195.1z" />
	<path fill="#3E3214" d="M45.5,134c-2.8-5.8-0.6-13.1-1.2-19.4C46.7,120.6,45.1,127.5,45.5,134z" />
	<path fill="#4C4746" d="M713.5,485.9c-3.5,2.4-8.6,0.3-12.1-1.6c0.5-0.4,1-0.9,1.6-1.3c3.3,1,6.7,1.8,10.2,0.9   C713.3,484.5,713.4,485.2,713.5,485.9z" />
	<path fill="#281B1B" d="M686.7,499c0,1,0,2-0.1,2.9c-0.4,0.2-0.8,0.3-1.2,0.5c-0.3-0.9-0.6-1.8-0.9-2.7c-1.1-0.3-2.2-0.6-3-0.7   c-1.5-2.6,0-4.2,0.9-5.8c0.3,0,0.6,0,1,0C683.1,495.9,685.7,496.9,686.7,499z" />
	<path fill="#413D2B" d="M38,233.9c-0.6,1.7-1.5,3.1-2.8,4.4c0.1-3.5,0.1-6.9,0.2-10.4c1.1-0.4,2.2-0.8,3.3-1.1   C38.4,229.1,38.2,231.5,38,233.9z" />
	<path fill="#212A32" d="M361.3,351.4c0.7,0.1,1.4,0.2,2.1,0.2c-3.7,3.5-7.8,4-12.2,1.4c1.5-0.5,3.4,0.7,4.5-1.3   C357.5,351.6,359.4,351.5,361.3,351.4z" />
	<path fill="#2A1F1E" d="M703,482.9c-0.5,0.4-1,0.9-1.6,1.3c-2.5-1-5.1-1.9-7.6-2.9c0.6-0.5,1.2-1.1,1.7-1.6   C698.6,479.4,700.9,480.9,703,482.9z" />
	<path fill="#332224" d="M679.6,182.9c-4.2,1.5-7.9-0.1-11.1-2.5c0.5-0.5,1.1-1,1.6-1.5c3,0.9,6,1.9,9,2.8   C679.4,182.1,679.5,182.5,679.6,182.9z" />
	<path fill="#2F2B2B" d="M820.7,253.2c0.5,0.5,1,1,1.5,1.5c-1.9,3-4.6,5.2-7.5,7.1c0-0.5,0-1,0-1.6   C816.7,257.9,818.7,255.6,820.7,253.2z" />
	<path fill="#4B4744" d="M65,129.5c0-4.1-1-8.2,1-12.2c0,4.3,0.9,8.9,0.5,13.1C65.9,130.1,65.4,129.8,65,129.5z" />
	<path fill="#5B6667" d="M91.7,363.7c0.6-0.6,1.3-1.2,1.9-1.9c2.5,1.7-0.3,6.6-3,7.7C90.1,367.6,91.2,365.7,91.7,363.7z" />
	<path fill="#393332" d="M686.8,309c0.2-3.7-1.3-7.9,1-11C688.2,301.7,688.3,305.4,686.8,309z" />
	<path fill="#3A2B29" d="M697.9,521.7c2.4-0.1,4.7,0.1,6.6-1.6c1.1,0.4,2.3,0.7,3.4,1.1c-0.6,0.5-1.3,1-1.9,1.5   C703.3,522.4,700.6,522,697.9,521.7z" />
	<path fill="#2B2928" d="M644.6,367.3c-0.1,3.3,1.2,6.9-1.1,9.6C643.9,373.7,644.3,370.5,644.6,367.3z" />
	<path fill="#5B6667" d="M82.7,369.6c2.6,0,5.2,0,7.8,0C88.6,372.2,85.4,369.7,82.7,369.6z" />
	<path fill="#E3E3EA" d="M5.5,353.1c0.1,2.7,0.2,5.3-1.4,7.7C4.4,358.3,2.6,354.4,5.5,353.1z" />
	<path fill="#5B5A59" d="M689.7,396.2c-0.5,0-1,0.1-1.5,0.1c0.1-1,0.1-2.1,0.2-3.1c0.8-0.5,1.7-1,2.5-1.4   C690.5,393.2,690.1,394.7,689.7,396.2z" />
	<path fill="#342729" d="M573.4,195.3c-1.2,1.8-3,1.3-4.7,1.1C570,195,571.6,194.9,573.4,195.3z" />
	<path fill="#171212" d="M125.1,306.7c-0.9,0-1.8,0-2.9,0c0.4-1.1,0.7-2,1-2.8C125.1,303.9,124.4,305.8,125.1,306.7z" />
	<path fill="#383331" d="M735.7,198c0.2,2-0.5,3.2-2.7,3.1C733.9,200.1,734.8,199,735.7,198z" />
	<path fill="#5B5A59" d="M690.8,388.9c-1.8-1.3-1.3-3.1-1-4.9C690.9,385.5,691.3,387.1,690.8,388.9z" />
	<path fill="#191111" d="M235,281.6c-1,2.1-2.8,1.3-4.4,1.4C231.7,281.6,233.3,281.4,235,281.6z" />
	<path fill="#A7B9B9" d="M843,238.4c-0.9-0.8-1.9-1.5-2.9-2.4c1.6-1,2.5-0.7,3.2,0.5C843.1,237.1,843,237.7,843,238.4z" />
	<path fill="#2B2221" d="M706,522.7c0.6-0.5,1.3-1,1.9-1.5c0.9,0.1,1.7,0.1,2.6,0.2c0,0.4,0,0.9,0,1.3   C709,522.7,707.5,522.7,706,522.7z" />
	<path fill="#CCD2E9" d="M679.6,182.9c-0.1-0.4-0.2-0.8-0.4-1.2c1.2-0.3,2.3-0.3,2.9,1C681.2,182.8,680.4,182.9,679.6,182.9z" />
	<path fill="#5B5A59" d="M689.8,399.5c0-1.1-0.1-2.3-0.1-3.4C691.2,397.2,690.8,398.4,689.8,399.5z" />
	<path fill="#383331" d="M741.8,195.4c-0.7,1.5-1.9,1.4-3.2,1.1C739.7,196.1,740.7,195.7,741.8,195.4z" />
	<path fill="#3E3214" d="M42.8,114.6c0.3-1.1,0.6-2.1,0.9-3.2c0.2,1,0.4,2,0.7,3.1C43.8,114.6,43.3,114.6,42.8,114.6z" />
	<path fill="#191111" d="M224.5,286.2c-0.7,1.5-2,1.3-3.2,1.2C222.4,287,223.4,286.6,224.5,286.2z" />
	<path fill="#332726" d="M713.5,485.9c-0.1-1.1-0.7-2.3,0.1-3.2c0.4,0,0.8-0.1,1.2-0.1c0.1,1,0.2,2,0,3   C714.5,485.9,714,486,713.5,485.9z" />
	<path fill="#332726" d="M724.8,485.9c1.4,0,2.7,0,4.1,0C727.6,486.9,726.2,487,724.8,485.9z" />
	<path fill="#332726" d="M729.2,486c1.3-0.3,2.7-0.6,3.6,1C731.6,486.6,730.4,486.3,729.2,486z" />
	<path fill="#191111" d="M230.5,283c-0.5,1.5-1.7,1.5-2.9,1.5C228.5,284,229.5,283.5,230.5,283z" />
	<path fill="#503F3D" d="M739.6,509.3c-1.4,0.1-2.9,0.6-3.7-1C737.1,508.6,738.3,509,739.6,509.3z" />
	<path fill="#213051" d="M513.9,308.6c-0.1-0.6-0.2-1.2-0.2-1.8c0.5,0.5,1,1,1.6,1.5C514.8,308.5,514.4,308.6,513.9,308.6z" />
	<path fill="#383331" d="M744.8,194c-0.5,0.3-1.1,0.7-1.6,1C743.7,194.7,744.3,194.4,744.8,194z" />
	<path fill="#221313" d="M813.7,262.6c-0.6,0.3-1.3,0.7-1.9,1c0,0,0.1,0.1,0.1,0.1c-0.5-1.2,0.2-1.6,1.2-1.8   C813.3,262.1,813.5,262.3,813.7,262.6z" />
	<path fill="#CCD2E9" d="M703,190.4c-0.5-0.4-1.1-0.8-1.6-1.1C702,189.6,702.5,190,703,190.4z" />
	<path fill="#CCD2E9" d="M712,191.9c-0.5-0.4-1-0.8-1.5-1.3C711,191.1,711.5,191.5,712,191.9z" />
	<path fill="#383331" d="M737.3,196.8c-0.5,0.4-1.1,0.8-1.6,1.2C736.3,197.6,736.8,197.2,737.3,196.8z" />
	<path fill="#4C4746" d="M714.9,485.6c0-0.4,0.1-0.8,0.1-1.2c0.4-0.1,0.9-0.1,1.3,0c0.1,0.4,0.2,0.7,0.2,1.1   C715.9,485.5,715.4,485.5,714.9,485.6z" />
	<path fill="#332726" d="M716.5,485.5c0-0.4-0.1-0.7-0.2-1.1c0.5,0.4,1.1,0.7,1.6,1.1C717.5,485.7,716.8,485.6,716.5,485.5z" />
	<path fill="#383331" d="M732.9,201.2c-0.5,0.4-1,0.9-1.5,1.3C731.9,202.1,732.4,201.6,732.9,201.2z" />
	<path fill="#383331" d="M731.3,202.6c-0.6,0.4-1.2,0.8-1.9,1.2C730.1,203.4,730.7,203,731.3,202.6z" />
	<path fill="#270F0F" d="M814.7,260.3c0,0.9,0.3,2.4-1,2.3c-0.2-0.2-0.4-0.5-0.7-0.7C813.6,261.4,814.2,260.8,814.7,260.3z" />
	<path fill="#EDCABA" d="M649.6,457.2c0.2,0.5,0.5,1.1,0.7,1.6C650.1,458.2,649.8,457.7,649.6,457.2z" />
	<path fill="#191111" d="M227.5,284.5c-0.7,0.4-1.4,0.9-2.1,1.3C226.1,285.3,226.8,284.9,227.5,284.5z" />
	<path fill="#393332" d="M688.2,296.6c0.4-0.5,0.7-1.1,1.1-1.6C688.9,295.5,688.5,296,688.2,296.6z" />
	<path fill="#FADED2" d="M814.7,260.3c-0.6,0.5-1.1,1.1-1.7,1.6c-1,0.2-1.7,0.6-1.2,1.8c-0.7,0-1.5-0.1-2.6-0.1   c-1-6.4-6-10.4-11.8-13.1c-1,3.1,1,3.3,2.5,4c2,2.6,4.4,5,4.9,8.9c-1.2,0.1-2.4,0.2-3.5,0.2c-0.9-3.5-4-5.2-7-8.1   c0.6,3.2,1,5.5,1.4,7.6c2,1.3,3.9,1,5.8,0.3c-5.5,4.4-8.7,10.4-14.3,14.6c-1.3-3-2.6-5.7-3.8-8.4c1.2,0,2.3,0,3.5,0   c-1.4-1.5-2.7-2.6-3.3,0.1c-3.5,0.7-1.8,3.2-1.7,5.5c-1.5,0.9-3.1,1.9-4.8,3c-1.9-2.2-3.8-4.3-5.7-6.5c-3.1,2.1-0.2,3.5,0,5   c-3.7,0.3-8.5-1.3-10.5,2.8c-4.4,1.5-8.1-0.1-11.6-2.6c-0.6-14.8,6.4-29.1,16.5-39.1c-1.3-0.8-2.2-1.3-3.2-1.9   c0.6-1.2,1.1-2.2,1.6-3.3c3.2-1.2,6,0.6,9.2,1.3c0.8-1.7,1.6-3.4,2.3-4.9c2.7-1,5.2-1.8,7.7-2.7c0.6,0.6,1.2,1.1,1.7,1.7   c0.1,1.5,0.2,2.9,0.2,4.4c-3.8,3.9-8.2,7.2-12.1,12.3c8.7-0.2,12.6-2.8,21-0.3c0.5-0.2,1.6-0.7,2.8-1.2   c14.6,3.1,11.6-3.4,23.7,10.1C818.7,255.6,816.7,257.9,814.7,260.3z" />
	<path fill="#FADFD3" d="M707.7,201.2c0.5,0,0.9-0.2,1.2-0.5c4.7,0.8,6.3,7.3,11.7,6.8c-0.2,0.7-0.3,1.3-0.5,2   c1.3,0.7,2.1,0.5,3.3,0c-0.4-0.9-0.7-1.5-1-2.1c3-0.5,6.3,0.6,9-1.7c0.5,0.1,0.9,0,1.3-0.3c0.5,0,1,0,1.5,0c0,0.9-0.1,1.9-0.1,2.8   c-0.8,0.3-1.6,0.5-2.5,0.8c0,0.2,0.1,0.5,0.1,0.7c2,0.2,4.2-0.1,5.4,1.8c-0.3,3.7,2.7,4.8,5.1,6.7c7.7-3.6,14.3,3.8,21.8,2   c0.6,0.4,1.1,0.8,1.8,1.2c-2.1,4.8-4.2,9.3-6.5,13.9c-6.7-0.1-9.9,6.7-14.6,10.5c-9.1,0.9-16.4,5.3-24.6,9.1   C722.7,231.8,716.8,220.5,707.7,201.2z M734.4,229.8c-5.5,0.5-8.9,2.5-12.2,6.9C727.5,235.9,730.3,232.8,734.4,229.8z M748.6,220.8   c-4.2-0.1-7.5,0.9-6,4.5C744.5,223.8,746.1,222.7,748.6,220.8z M727.4,210.4c-0.4,0-0.9,0.1-1.3,0.1   C726.5,211,727.5,211.2,727.4,210.4z M739.9,227c-0.4-0.4-0.7-0.1-1,0.2c0.3,0.1,0.7,0.2,1,0.2C739.9,227.3,739.9,227.2,739.9,227z   " />
	<path fill="#362C29" d="M759.4,235.3c2.3-4.6,4.4-9.1,6.5-13.9c-0.6-0.4-1.2-0.8-1.8-1.2c1.8-2.7,4.2-0.9,6.4-0.9   c-3.1,5.3-5.3,11-7.9,16.6c1,0.6,1.9,1.1,3.2,1.9c-2.2,2.2-4.2,4.3-6.2,6.3c-3.4,0.1-4.7,3.1-7.4,4.7c-1.6-4.7,4.7-6.7,7.2-9.3   C759.4,237.7,759.4,236.5,759.4,235.3z" />
	<path fill="#3B302E" d="M764.2,232.6c0.9-2.1,1.7-4.1,2.6-6.2c0,1.2,0,2.3,0,3.7c1.6,0.3,3,0.6,3.9,0.8c2-2.3,3.7-4.1,5.4-6   c0-0.4,0-0.8-0.1-1.3c3.2-0.4,5.2-2.2,7.4-4.5c0.5,0.6,1,1.1,1.6,1.7c1.4,6.1-5,6.6-9.3,8.3c-0.7,1.5-1.5,3.2-2.3,4.9   C770.2,233.1,767.4,231.4,764.2,232.6z M780.9,224.1l0.5,0.3l0.1-0.5L780.9,224.1z" />
	<path fill="#1F1E1E" d="M785.4,232.3c-0.1-1.5-0.2-2.9-0.2-4.4c1.9-1.1,1.1-3,1.5-4.6c0.7-0.3,1.3-0.6,2.1-0.9   c1.6,0.6,2.9,2.8,5.1,1.2c0.9-0.1,2.3,1.1,2.6,2.2c-1.6,1.4-3.2,2.9-5.2,4.6c-0.5-0.1-1.4-0.3-2.7-0.5   C787.7,230.6,786.5,231.5,785.4,232.3z" />
	<path fill="#D7C6BC" d="M776.1,224.8c-1.7,1.9-3.3,3.7-5.4,6c-1-0.2-2.3-0.4-3.9-0.8c-0.6-4.2,2-7.1,3.7-10.7   c1.8-0.5,3.7-1,5.5-1.5c0,0.8,0.2,1.7-0.3,2.4c-2.8,0.1-7.4,4.3-5.4,6.2c1.2-0.8,2.5-1.7,3.8-2.6   C774.8,224.1,775.4,224.5,776.1,224.8z" />
	<path fill="#313434" d="M799.6,171.3c4.3,1.9,8.6,3.8,12.7,5.6c0.9,1.9-2.9,2.3-3.7,3.3c-4.8-1.3-5.1-6.1-9.6-7.7   C799.2,172.1,799.4,171.7,799.6,171.3z" />
	<path fill="#212222" d="M809.6,221.7c0-1.4,0-2.6,0-3.9c1.2-0.5,2.5-1.1,4-1.8c1.4,2.1,2.8,4.1,4.1,6   C814.5,225.2,812.1,222.3,809.6,221.7z" />
	<path fill="#272A2A" d="M823.8,236.8c5.3,1.2,9.3,6.2,15.4,6.4c0.7,0.1,1.3,1.1,2.5,2.3C835.4,245.8,826.4,242.3,823.8,236.8   C823.7,236.8,823.8,236.8,823.8,236.8z" />
	<path fill="#2B2E2E" d="M832.5,194.2c1.1,1.2,2.2,2.5,3.5,4c-8.1,0.9-8.1,0.9-10.1-0.7C828,196.3,830.1,195.3,832.5,194.2z" />
	<path fill="#333333" d="M796.6,203.2c-3.6,2.7-3.6,2.7-8.2-0.3C791.1,200.3,792.3,200.3,796.6,203.2z" />
	<path fill="#212323" d="M797.9,189.9c2.1-2.3,3.5-3.8,4.9-5.2c3,0.9,3,0.9,4.2,3.2C804.8,189.6,801.5,189,797.9,189.9z" />
	<path fill="#343636" d="M829.8,253.2c4.8-1.1,5.1-0.9,11.6,3.9C836.7,258.2,835.3,255.3,829.8,253.2z" />
	<path fill="#141515" d="M799.9,232.3c1.7-2.1,3.8-3.3,6.8-2.6c0.4,1.5,0.8,2.2-0.1,3.6C804.4,233,802.1,232.7,799.9,232.3   L799.9,232.3z" />
	<path fill="#242727" d="M834.8,213.9c-2-1.5-4.1-3-6.8-4.9C832.8,207.8,834,210.7,834.8,213.9z" />
	<path fill="#272A2A" d="M823.7,236.8c-1.2-1.3-2.4-2.6-4.7-5.1c2.9,0.9,4.3,1.4,5.9,1.9C824.4,235,824.1,235.9,823.7,236.8   C823.8,236.8,823.7,236.8,823.7,236.8z" />
	<path fill="#684E4A" d="M775.7,220.2c0.3-0.4,0.4-0.8,0.3-1.3c1.7-0.1,3.6,0.6,4.6-1.5c0.9,0.5,1.9,1.1,2.8,1.6   c-0.6,0.5-1.1,1-1.7,1.5C779.7,220.4,777.7,220.5,775.7,220.2z" />
	<path fill="#847C75" d="M786.6,223.3c-0.3,1.6,0.4,3.5-1.5,4.6c-0.6-0.6-1.2-1.1-1.7-1.7c1.6-1.5,1.9-3.5,1.6-5.6   C785.5,221.6,786.1,222.4,786.6,223.3z" />
	<path fill="#1F2626" d="M826.7,220.4c2.3,0.7,4.5,1.3,7.5,2.2C830.4,223.9,828,223.6,826.7,220.4L826.7,220.4z" />
	<path fill="#383331" d="M743.2,198c-1,1.3-2,2.7-3.1,4.1c-0.9-0.5-1.4-0.8-1.9-1C737.9,199.6,737.9,199.6,743.2,198   C743.3,198.1,743.2,198,743.2,198z" />
	<path fill="#2A3232" d="M783.7,185.4c-2.3,1-3.7,1.6-6.6,2.8C779.1,185.1,780.4,184.2,783.7,185.4z" />
	<path fill="#212424" d="M784.9,189.9c-1.8,0.9-3.2,1.5-5.2,2.4C781.3,189.4,781.3,189.4,784.9,189.9z" />
	<path fill="#383331" d="M743.3,198.1c1.2-0.8,2.5-1.7,4.2-2.8c0,1.7,0,2.6,0,3.5C745.9,198.5,744.6,198.3,743.3,198.1L743.3,198.1z   " />
	<path fill="#B0A49B" d="M734.2,208.2c0.1-1.4,0.1-2.8,0.1-4.2l0,0c0.9,0.1,1.9,0.2,2.8,0.3c-0.5,1.3-1,2.7-1.5,4   C735.2,208.4,734.7,208.4,734.2,208.2z" />
	<path fill="#303636" d="M813.8,206.6c1.7,0.9,2.6,1.5,3.8,2.1C815.4,209.6,815.4,209.6,813.8,206.6z" />
	<path fill="#D5D6CB" d="M780.7,217.4c-1,2.1-2.9,1.4-4.6,1.5c0-0.4,0-0.7,0-1.1C777.6,217.7,779.1,217.5,780.7,217.4z" />
	<path fill="#383331" d="M734.2,208.2c0.5,0.2,1,0.2,1.4,0.1c0,0.6,0.1,1.2,0.1,1.7c-1.3-0.1-2.6-0.2-3.9-0.3c0-0.2-0.1-0.5-0.1-0.7   C732.6,208.7,733.4,208.5,734.2,208.2z" />
	<path fill="#141515" d="M804.1,237.2c-0.2,0.2-0.4,0.3-0.6,0.5c-0.2-0.7-0.8-1.3,0.1-1.7C803.8,236.4,804,236.8,804.1,237.2z" />
	<path fill="#383331" d="M737.1,204.3c-0.9-0.1-1.9-0.2-2.8-0.3C735.8,202,736.2,202.1,737.1,204.3z" />
	<path fill="#141515" d="M799.9,232.3c-1,1.7-0.8,1.1-3.6,0.7C798.4,232.6,799.1,232.5,799.9,232.3   C799.9,232.3,799.9,232.3,799.9,232.3z" />
	<path fill="#1F2626" d="M826.7,220.4c-0.3-0.2-0.7-0.4-1-0.6C826,220,826.4,220.2,826.7,220.4L826.7,220.4z" />
	<polygon fill="#4C4F4C" points="787.1,218.5 786.9,218 787.5,218.1  " />
	<path fill="#383331" d="M743.3,204c-0.3-0.3-0.5-0.5-0.8-0.8C743,203.2,743.1,203.6,743.3,204C743.2,204,743.3,204,743.3,204z" />
	<path fill="#383331" d="M734.2,204c0,0.5,0,0.9,0,1.4c-0.5,0-1,0-1.5,0C733.3,204.9,733.8,204.5,734.2,204z" />
	<path fill="#383331" d="M737.3,211.5c-0.5-0.5-1-1-1.5-1.5C736.8,210,737.3,210.5,737.3,211.5z" />
	<path fill="#383331" d="M743.2,204c0.3,0.3,0.5,0.5,0.8,0.8C743.5,204.8,743.4,204.4,743.2,204C743.3,204,743.2,204,743.2,204z" />
	<path fill="#5876E8" d="M324.6,324.7c-2.1-13-1.8-26.1-1.6-39.5c24.8-9.5,51.5-19,72.5-35.8c18-30.3,59.6-45.6,91.2-27.4   c0,3.2,0,6.3,0,9.4c3.3,0.2,5.8,0,8.6-1.2c-0.3-0.3-0.7-0.5-1-0.8l0,0c0.1-0.5,0.2-0.9,0.1-1.4c0.9-0.5,1.9-1,2.8-1.5   c1.1,19.9,5.9,39.2,9.1,59.5c-2.7,0.1-5.5-0.5-7.5,2.1c-3.7,0.4-7,3.2-11.2,2c0.5-1,0.9-1.7,1.4-2.7c-9.1,0.4-15.2-0.9-24.6,0.8   c7.6,0.9,13.8,1.6,21.3,2.5c-40.2,12.4-83.2,10.8-123.9,19.4c14.3-6.7,22.9-21.1,29.8-34.6c2.4-1.3,4.3-3,4.5-6   c2.7-1.9,5.5-3.7,6-7.5c3.6-0.1,4.9-2.9,8-6.4c-4.7,1.5-6.5,3.8-8.1,6.4c-2.8,1.8-5.6,3.7-6,7.4c-2.5,1.2-4.4,2.9-4.5,6   c-29.7,46.5-42.2,22.7-53.7,59.6c-3.8-0.2-7.6,0.6-11.8-0.7C325.7,330.9,326.8,327.5,324.6,324.7z M489.7,235.5   c0.7,2.7,1.5,5.5,2.3,8.4c1.1,0,2.2,0,4.2,0c-3.4-2.9-2.9-5.8-2.1-8.8C493.2,232.9,488.5,232.9,489.7,235.5z M428.7,227.8   c-7.5,7.6-16.9,10.2-25.8,15.7c5.2,0.5,9.1-1.2,15.7-6.4C423.4,236.5,428.1,232.4,428.7,227.8c8.2-5.8,19.9-5.3,28.3-8.9   C452,214.6,432.5,222.2,428.7,227.8z M488.4,239.8c-0.4-4-1.9-2.5-4.4-1.5c-3.6-1.1-5.8-3.4-11-2.5c2.9,1.3,4.7,2.1,6.4,2.9   c-1.7,1.8-3.7,1.3-5.5,0.5c-3.8-1.6-7.6-0.8-11.6-0.7c4.3,7.5,15.8,6.2,23.2,4.2c1.1,1.4,2.3,2.8,3.6,4.3   C490.5,244.1,489.2,242,488.4,239.8z M488,259.1c-13.2,1.2-29.3,2.1-39.7,10.5c14.8,0.1,27.9-6.6,42.6-6.2c0.4-2,0.8-3.6,1.1-5.1   c-1.2-0.6-2.1-1.1-3.2-1.6C488.5,257.7,488.2,258.4,488,259.1z M449.5,245.9c11,6.6,26.3,7.9,34.5,2.5   C471.3,249.4,461.9,247.7,449.5,245.9z M494.2,246.9c-0.4-0.3-0.9-0.7-1.3-1c-0.6,0.7-1.1,1.5-1.7,2.1c0.9,2.2,1.7,3.9,3,7.1   C494.2,251.3,494.2,249.1,494.2,246.9z M497,273.5c0.7-2.4-0.1-3.8-2.2-4.9C493.7,270.9,494.2,272.5,497,273.5z M498.6,276   c-2.3,0-2.3,0-2.1,2.3C497.2,277.5,497.8,276.9,498.6,276z M498.9,281.9c0.4,0.2,0.8,0.4,1.1,0.7c0.3-0.7,0.6-1.4,0.9-2.1   C499.4,279.8,499.3,280.7,498.9,281.9z" />
	<path fill="#CCD2E9" d="M668.5,180.4c2.7,1.6,5.2,3.9,8.7,3c10,3.7,19.6,8.2,30.3,9c1.4,0.2,2.8,0.8,2.8,2.6   c-19.9,7.4,25,35.3,0.8,63.9c-2.5-2.9,1.6-4.7,1.1-7.1c7.9-23.2-10.6-45.3-32.8-50.8c-24.5,6.2-57.7,16.3-65.8,43.3   c-6.5,0.3-13.2-0.9-19.5,1.5c-3.8-0.3-7.4-3-12.2-0.5c3.7,2.6,6.7,2.6,10.8,3.5c1.3,5-4.3,7.4-4.5,11.9c0,0,0.1-0.1,0.1-0.1   c-5.3,4.5-12.6,5.4-19.4,3.8c0.5-4.2,3.3-6.9,3-11.1c0.5-0.5,0.9-1.1,1.4-1.6c-0.3-0.3-0.5-0.7-0.8-1c-0.2,0.4-0.5,0.7-0.7,1.1   c0,0,0-0.1,0-0.1c-3,0-4.4,1.5-4.5,4.5c0,0,0,0,0,0c-3.9,2.7-6.2,6.8-9,10.5c-4.3-0.4-8.8,0.9-13.4-1c-0.1-6.7,2.3-11.3,1.4-18.3   c-7.2,5.5-7,13.1-7.7,20.4c-1.3,0.1-2.2,0.1-2.7,0.2c-2-1.4-0.6-4.9-3.9-4.8c-0.8,3.5-0.8,3.5-2.9,4.5c-1.3-6.5-0.4-12.7,1.1-18.9   l-0.1,0.1c18.6-25.8,51.6-34.1,71.9-57.5c-22.7,20.2-56.2,27.5-70.4,56c-1.4,0.1-2.8-0.4-4.2-0.9c-1.4,4.6-0.5,9.8-4.6,12.7   c-0.4-13-3.4-25.7-4.5-38.7c0.8,0,1.7,0,2.6,0c0.1,4.3,1.1,8.4,2.4,12.4c0.2-0.1,0.5-0.1,0.7-0.2c0-4.6,0.1-9.1,0.2-13.7   c1.7-2,3.4-4.1,5.1-6.2c2.8,0.7,5.1,1.3,7.2,1.9c22-17,51.7-21,78.3-27.3c9.3,4.4,19.4-3.4,28.8-5   C651.8,181,660.2,181.2,668.5,180.4z M538.9,224.8c-1.8,1.4-3.9,2.5-4.2,5.7c2.9-1.3,4.3-2.9,4.4-5.5c4.8-4,6.8-6.5,8.5-12.4   C543,215.2,541.3,220.3,538.9,224.8z M679,190.8c3.8,2.6,4.5,6.7,7.3,9.9C687.3,193,686.4,191.6,679,190.8z M531.3,226.9   c-1.1,3.3-2.1,6.6,0.9,11.1C531.9,233.2,531.6,230.1,531.3,226.9z M572.6,240c1.8,1.6,2.4,3.2,5,1.2   C575.6,239.8,575.5,239.9,572.6,240z" />
	<path fill="#FBDFD3" d="M94.9,342.6c-1.9-2.7-1.7-5.8-2-8.9c0.8-0.9,2.3-1.4,1.6-3c-3-7.7,17-1.9,24.4-10.5   c-4.2-0.2-6.3,0.9-9.2-1.3c0.3-0.3,0.6-0.7,1.3-1.4c-3.1-0.9-5.7-1.9-8.8-1.7c-1.7-5,6.9-1.6,9.2-4.4   c53.9,1.2,106.7-29.7,159.8-11.9c-2.6,1.6,1.4,1.2,2.3,1.5c14.1,2.1,28.9-9.6,44.1-7.4c6.1,10.9-11.2,11.8-16.3,17.3   c5,2.7,6,2.6,16.7-1.3c1.9,9.5,3.3,19.9,2.9,29.3c-13.9,7.1-25.5-4.1-39.7-2c-0.7-0.4-1.3-0.9-2-1.3c-1.8-0.1-3.5-0.1-5.3-0.2   c-0.6,0.5-1.2,1.1-2.2,2c5,5.3,10.3,6.7,16.9,8.3c-5.9,3.4-15.1,1.8-20.4-2.4c-0.6-2.6-1.3-5.6-4.8-5.2c-1.3-1.4-2.9-1.4-4.5-1   c8.4-18.5-29.1,5-37.6-1.1c-41.1,3.5-84.9-11-124.1,7.7C96.3,343.2,95.6,342.9,94.9,342.6z M245.6,314.6   c-17.8,6.6-34.9,8.7-53.9,10.1c-0.5-0.5-1-1-1.6-1.4c-2.5-0.2-4.9,0-5.9,2.9c8.3,4.2,57.9,4.6,59.6-8.6c2-1.1,4-2,6-3   c1.7-0.6,4.5,0.9,4.8-3.1C251.5,312.8,248.8,313.7,245.6,314.6z M300.7,311.9c-3.8-1.4-6.3-0.4-8.8,2   C295,314.4,297.8,315.3,300.7,311.9z M281.4,317.3c-2-3.2-2-3.2-7.1,0C276.9,317.3,279,317.3,281.4,317.3z M288.9,314.6   c-4.3-0.3-5.8,0.4-5.3,2C285.5,317.3,287.2,317.2,288.9,314.6z M181.7,326c-2.1-2.4-2.1-2.4-4.9,0C178.5,326,179.9,326,181.7,326z    M122.2,315.8c0-0.5,0.1-0.9,0.1-1.4c-1,0.1-2,0.2-3,0.2c0,0.3,0,0.6,0,0.9C120.3,315.6,121.3,315.7,122.2,315.8z M96.5,334.2   c1.7,1.4,3,0.3,2.3-1.1C98.1,333.4,97.4,333.8,96.5,334.2z M247.3,296.8c0,0.3,0,0.5,0,0.8c1.2,0,2.4,0,3.6,0c0-0.3,0-0.5,0-0.8   C249.7,296.8,248.5,296.8,247.3,296.8z M264.7,300.5c0-0.3,0-0.6,0-0.8c-1.3,0-2.6,0-3.9,0c0,0.3,0,0.6,0,0.8   C262.1,300.5,263.4,300.5,264.7,300.5z" />
	<path fill="#4B65C5" d="M324.6,324.7c2.3,2.8,1.1,6.2,1.3,9.7c4.2,1.2,8.1,0.5,11.8,0.7c-0.8,3.2-1.5,6.4-2.3,9.8   c6.8-1.5,6.6-7.6,8.1-12.8c22.1-7.1,45.9-10.9,67.3-20.5c-21.2,0.7-41.6,9-62.8,8.6c33.9-26.3,96.6-12.2,137.7-29.4   c-7.5-0.9-13.7-1.6-21.3-2.5c9.4-1.7,15.5-0.4,24.6-0.8c-0.5,1-0.9,1.7-1.4,2.7c4.2,1.2,7.5-1.7,11.2-2c2-2.6,4.8-2,7.5-2.1   c2.4,7.7,3.8,16,4.5,23.9l0,0c-1.5,0-3-0.1-4.5-0.1l0.1,0.1c0-1.7,1.3-1.6,2.9-2.8c-2.3-1-3.7-1.6-5.2-2.3c0.8-1,1.4-1.7,2.2-2.8   c-0.9-0.9-1.7-1.7-2.7-2.8c-2.2,2.9-3.9,4.9-6.2,7.5c-18.9,2.6-12.4,20.4-21,26.7c-9,0-15.7,6.9-24.4,7.6   c-11.8,0.8-23.8-0.6-35.5,1.8c-10.6,2.9-19.9,9.3-31.3,5.2c-0.5-0.9-1.1-2-1.8-3.3c-7.8,1-15.6,1.5-21.9,6.7   c-10.5,0.9-18.8-7.1-27.3,3.3C327.3,347.3,324.1,336.7,324.6,324.7z M483.9,297.9c-1.9,1.8-8,2-6.6,5.3c2.8-1.8,14.3-3.9,11.2-8.3   C487.1,295.9,485.5,296.9,483.9,297.9z M382.4,330.6c-2.8,2.2-5.6,4.4-9.6,7.5c6.6-1.7,12.2-4.6,13.4-10   C383.9,327.5,383.4,329.4,382.4,330.6z M498.6,292c2.2,1.9,3.8,3.3,5.6,4.8c0.8-0.8,1.5-1.4,2.1-1.9c-2.2-2.3-0.7-6.2-3.7-7.3   C501.4,288.9,500.2,290.2,498.6,292z M496.8,298.2c-1.8,2.4-1.8,2.4,0.7,5.1C497.2,301.2,497,299.7,496.8,298.2z" />
	<path fill="#B7BDD5" d="M631.5,279.9c2.4,1.9,5,3,8.1,1.9c1.7,2.6-0.6,4.3-0.9,6.4c-47.9-10.2-43.3,18-80.3,8.1c1-1.5,2-2.9,3-4.4   c0-0.5,0-1,0-1.6c0,0-0.1,0.1-0.1,0.1c5.7-1.8,10.7-7.9,13.5-13.5l0,0c3.2-2,7.2-5,7.5-9l-0.1,0.1c1.6,0.4,2.3-1.3,3.4-2.1   c6.5-6.8,19.7-3.2,25-11.3c0.4-0.1,0.9,0,1.3,0.1C614.4,266.3,619.3,275.9,631.5,279.9z M596.1,277.5c4.7-3.8,5.7-8.4,6.8-13.9   C599.3,267.2,597.7,270.6,596.1,277.5z" />
	<path fill="#B7BCD4" d="M530.1,250.1c-2.2,5.5-1.8,11.5-1,17.5c2.2-1.1,2.2-1.1,2.9-4.5c3.3-0.1,1.9,3.5,3.9,4.8   c0.6,0,1.5-0.1,2.7-0.2c0.7-7.3,0.5-14.9,7.7-20.4c1,6.9-1.4,11.6-1.4,18.3c4.6,1.9,9.1,0.6,13.4,1c-4.1,10.4-8.1,20.6-10.2,31.6   c-8.2,3.9-16.6,5.5-24.9,8c-3.1,2.1-6.6-1.2-9.7-2.2c3.7-7.4-1.1-17,2.9-23.9c2.6,6.3,1.7,12.6,1.9,19.4c3.4-3.7,3.7-7,1.4-13.8   c-1.5-9.2,4.2-17.3,3-26.6c4.1-2.9,3.2-8.1,4.6-12.7c0.9,0.3,1.8,0.6,2.6,0.8c0,0.5,0,1,0,1.5l0.1-0.1c-0.4,0.2-0.8,0.5-1.2,0.7   C529.3,249.6,529.7,249.9,530.1,250.1z M531.8,270.9c0.8,8.8-2.9,16.5-1,25.2C533.8,287.4,533.7,279,531.8,270.9z" />
	<path fill="#B6BCD4" d="M561.4,292c-1,1.5-2,2.9-3,4.4c-2.5,0.5-4.9,0.9-7.4,1.4c0.2-15,10.5-28.2,16.3-41.6l0,0   c1.5-1,3-1.9,4.5-2.9c0.3,4.2-2.6,6.9-3,11.1c5.4,1.8,9.9,0,15.1-0.6c-0.6,1.4-1.7,2.8-1.7,4.4c0,0,0.1-0.1,0.1-0.1   c-2.3,3-7.3,5-7.5,9l0,0c-6,2.1-9.1,9.1-13.5,13.5l0.1-0.1C560.1,290.9,559.9,291.4,561.4,292z" />
	<path fill="#F8DED2" d="M240.9,284.3c20-1.9,38.2,5.5,57.9,6.4c-0.5,0.8-1,1.7-1.5,2.5c-6.8,0.6-13.1,2.8-19.1,6.2   c-0.9,0-1.8-0.1-2.7-0.1c-0.1-0.5-0.3-0.9-0.6-1.3c0-1.9-1.4-1.6-2.6-1.6l0,0c-1.8-1.5-4-1.5-6.1-1.5c-0.2-0.3-0.5-0.4-0.8-0.2   c-12.2-4.7-25.4-0.9-37.8-4.4c-0.1-0.4-0.1-0.8,0-1.2c0.6-0.5,1.3-0.9,1.9-1.4C233.1,286.4,236.7,284,240.9,284.3z" />
	<path fill="#EAC6B6" d="M285.4,336.8c12.6-1.1,22.9,8.9,35.6,1.9c0.2-0.6,0.4-1.5,0.7-2.4c1.9,5.1,3.3,9.6,5.2,15.1   c-3.8,1.7-8.7,2.3-12.8,3.3c-2.7-3.6-7.2-3.8-11.2-5.9c-0.4-1-0.9-2.3-1.5-4c-3.5-1.2-7.1-2.5-11.2-2.3l0.2,0.2   C288.8,340.6,287.9,338,285.4,336.8z" />
	<path fill="#C2C8DE" d="M509.6,220.6c1.7-0.5,3.5-1,5.2-1.4c3.5,17.1,6.3,34.4,4.7,51.9c-0.4,0-0.8,0-1.2,0   c-3.3-10.2-3.2-21.4-3.4-32.1c-4.9,3.3-0.8,8.8-3.9,12.6c-2.1-8.8-1-18-3-26.8C508.6,223.4,509.1,222,509.6,220.6z" />
	<path fill="#BFC4DA" d="M506.6,257.5c-5.4-11.9-7.8-24.2-5.7-37c2.1-1.7,3.6-0.6,5.2,0C505.9,232.6,510,246,506.6,257.5z" />
	<path fill="#28282D" d="M508.1,254.4c-0.5-9.8-1.1-19.7-1.6-29.5c0.5,0,1-0.1,1.6-0.1c2.2,15.3,3,30.9,4,46.4   c-1.4-2.6-2.7-5.2-4.1-7.8C509.6,260.2,509.7,258.9,508.1,254.4z" />
	<path fill="#A1A8BD" d="M512,271.1c-0.3-6.5-0.9-13-1-19.6c3.1-3.8-0.9-9.3,3.9-12.6c-1.2,13.8-1.3,27.2,1.5,41.1   c-2,1.1-0.9,3.2-1.5,4.8c-0.4-0.2-0.7-0.5-1.1-0.7C513.3,279.8,512.7,275.5,512,271.1z" />
	<path fill="#28211F" d="M278.2,299.3c8.2-5,17.6-6.2,26.9-7.1c1.1,1.9,3.1,0.7,4.5,1.4c-8.6,2.8-17.8,2.7-26,6.9   c-2.8,1.3-7.3,2.6-10.2,0.5C275.1,300.6,277.2,301.6,278.2,299.3z" />
	<path fill="#3D3E45" d="M519.9,247.1c-1.7-9.3-3.3-18.6-5-27.9c1.2,0,2.4-0.1,3.5-0.1c0.6,8.7,2.3,17.6,3,26.4   C520.9,246.1,520.4,246.6,519.9,247.1z" />
	<path fill="#515661" d="M515,299.3c-0.5,1.6-0.9,3.1-1.4,4.7c-2.2-8.5-4.6-18.5-3.4-27.6C512.9,283.6,511.6,292.8,515,299.3z" />
	<path fill="#0F1428" d="M494.1,230.6c-2.2,1-4.6,0.9-7.4,0.8c0-3.1,0-6.3,0-9.4c1.6,1,3.3,0.8,5,0.1c0.2,0.7,0.4,1.3,0.6,1.9   c-0.9,1.2-2.5,2-3.1,3.2c0.2-0.3,0.5-0.6,0.7-0.9c1.6,0.4,3.7-0.7,4.6,1.6c-0.4,0.2-0.8,0.4-1.2,0.7c0.4,0.3,0.7,0.5,1.1,0.8l0,0   C494.2,229.8,494.1,230.2,494.1,230.6z" />
	<path fill="#5B5550" d="M305.2,292.2c-2.6,0.3-5.2,0.6-7.8,1c0.5-0.8,1-1.7,1.5-2.5c6,0,9.1-0.4,15.8-2.1   C311.5,292.9,309.3,291.5,305.2,292.2z" />
	<path fill="#344A91" d="M489.9,226.4c0.8-0.8,1.5-1.6,2.3-2.4c-0.2-0.6-0.4-1.3-0.6-1.9c1.5-0.5,3.1-1,5-1.5c1.4,1.8,1,3.8,0.6,5.9   c-0.9,0.5-1.9,1-2.8,1.5C493.5,225.6,491.4,226.8,489.9,226.4C489.8,226.3,489.9,226.4,489.9,226.4z" />
	<path fill="#1B1C20" d="M515,299.3c-2.6-3.8-3.1-10.8-1.1-15.1c0.4,0.2,0.7,0.5,1.1,0.7C515,289.7,515,294.5,515,299.3z" />
	<path fill="#606772" d="M524.2,219c-0.1,2.4-0.2,4.8-0.2,7.3c-0.9,0-1.7-0.1-2.6-0.1c-0.2-2.4-0.5-4.8-0.3-7.2   C522.1,219,523.2,219,524.2,219z" />
	<path fill="#898896" d="M508.1,254.4c1.6,4.5,1.6,5.8-0.1,8.9c-0.4-1.9-0.9-3.9-1.3-5.8C507.1,256.4,507.6,255.4,508.1,254.4z" />
	<path fill="#737584" d="M551.1,292c0,1.9,0,3.8,0,5.8c-1,0.2-1.9,0.3-2.9,0.5c0.4-2.1,0.9-4.1,1.3-6.2   C550.1,292,550.6,292,551.1,292z" />
	<path fill="#232529" d="M508,224.8c-0.5,0-1,0.1-1.6,0.1c-0.1-1.5-0.2-2.9-0.3-4.4c1.1,0.1,2.3,0.1,3.4,0.2   C509.1,222,508.6,223.4,508,224.8z" />
	<path fill="#213051" d="M510.8,309.9c0-1,0.1-2.1,0.1-3.1c0.5,0,0.9,0.1,1.4,0.1C512.3,308.1,512.4,309.4,510.8,309.9z" />
	<path fill="#342729" d="M577.8,196.7c-1,0.4-2,0.8-3,1.1C575.5,196.4,576.6,196.4,577.8,196.7z" />
	<path fill="#C2C8DE" d="M521.1,219c0.1,0.5,0.1,1-0.1,1.4c-0.9,0-1.7,0-2.6,0c-0.2-0.4-0.2-0.9,0-1.3   C519.3,219.1,520.2,219,521.1,219z" />
	<path fill="#E4E4EB" d="M68.1,287.3c3.4-1.1,6.8-2,10.3-2.6c5.9,10.2,15,17.3,25.4,22.2c0,0.4,0,0.9,0,1.3c-7.2,1.1-7.9,8.8-8,14.6   c-6.2,4.5-13.7,0.9-20.2,3.3c-2.4,5-6,9.2-6.1,15c-2.2,3.1-0.2,6.7,0.2,10.1c-0.1,1.8-1,3.7,1.4,4.8l0,0c-3.5,2.6-8.1,1.4-12.3,1.8   l0.3-0.3l-0.2,0.3c-0.1-3.1-4.1-0.9-5.3-2.8C35.4,327,38,304.8,68.1,287.3z M90.4,306.8c2.1,1.1,6.4,5.5,6.8,0.5   c-4-1.2-6.6-4.4-11-4.8C87.1,304.9,88.4,306.2,90.4,306.8z M78.5,296c1.7,1.6,3.4,3.1,5.8,5.3C84.1,296.9,82,295.7,78.5,296z" />
	<path fill="#4B4F5C" d="M59.1,372.5c-5.1-0.1-10.2,1-15.8-0.6c-17-28.5-10-40.2-13.9-68.2c1.1-1.3,2.2-2.6,3.3-4   c3.1,0.3,5.3,1.4,6.2,4.9c-0.5,0.4-1.2,1-2.1,1.8c-1.1,23,7.2,48.3,25.1,63.8C60.9,371.1,60,371.8,59.1,372.5z" />
	<path fill="#EFBD11" d="M72.7,271.1c0,3.7,0,7.3,0,11.1c-2.6,2.7-5.6,3-8.8,2c-2.5-13.5-7.6-27.2-7-40.9c4.9-0.3,8.2-0.8,13-0.2   C71.8,252.3,70,261.9,72.7,271.1z" />
	<path fill="#DEA30F" d="M61.9,284.8c-0.4,3.6-4.8,5.3-8,6.9c-2.7-7.7-5.3-15.1-8-22.6c0.9-4.2,1.9-8.5,2.8-12.9   c0.9-0.5,1.8-1,2.7-1.4C56.2,264.4,57.5,275.1,61.9,284.8z" />
	<path fill="#E0B112" d="M69.7,230.8c-0.1,3.4-0.2,6.7-0.3,10.1c-4.7-0.5-8.7-0.3-12.7-2.6c-1.1-5.7,0.8-10.8,1.6-16.4   c3.4,0,6.6,0,9.7,0C69.5,224.7,69.6,227.7,69.7,230.8z" />
	<path fill="#CBCCD9" d="M58.8,357.8c4.1-0.4,8.7,0.7,12.3-1.8c4.7,7,13.3,5.9,20.6,7.7c-0.4,1.5-0.9,2.9-1.3,4.4   C79.4,364.4,64.3,371.1,58.8,357.8z" />
	<path fill="#F1F3F2" d="M51.1,298.5c-6.1-3.5-10.1,0.5-14.9-2c2.9-6.9,5.6-13.5,8.6-20.8C47.6,283.3,49.9,290.1,51.1,298.5z" />
	<path fill="#ECBA11" d="M34.1,264.1c13.8-4.2,7.5,10.6,4.3,17.5c-2.5,0-5,0-7.5-0.1c0,0,0,0,0,0C30.8,275.6,33.1,269.9,34.1,264.1z   " />
	<path fill="#E9B812" d="M38.3,241.3c3.8-0.9,7.7-2,11.6-2.3l0.1,0.2c-2.4,4.6-2.2,10.5-4.6,15.5c-2.7,0.3-5.3,0.1-8.2,0.2   C36.3,250,37.7,245.7,38.3,241.3z" />
	<path fill="#D8D7D7" d="M50,239.2l-0.1-0.2c3.6-8.5,0.9-19.6,1.6-29c0.3-0.4,0.4-0.8,0.2-1.3c0.7-0.6,1.3-1.2,2.3-2.1   c2.5,13.9,0.4,27.2,0,41.1c-2.1-0.4-2-2.2-2.6-3.4C51.7,242.4,52,240.4,50,239.2z" />
	<path fill="#362D1D" d="M54.9,233.9c0.1-9.3,1.2-17.9-0.8-27.3c-0.9,0.9-1.6,1.5-2.3,2.1c0-3-0.1-6.1-0.1-9.1   c0.6-0.3,1.3-0.6,2-0.9c0.7,0.8,1.4,1.6,2.2,2.4c1.2,5.8,0.1,12.6,3.1,17.8c3,0.6,5.9,1.4,9,1.5l0.3,0.3c-0.1,0.4-0.2,0.9-0.2,1.3   c-3.1,0-6.3,0-9.7,0c-0.7,4.1-1.4,8-2.1,11.9C55.8,233.9,55.3,233.9,54.9,233.9z" />
	<path fill="#D9AA15" d="M30.8,281.5c2.5,0,5,0,7.5,0.1c-0.5,5-3.3,9.2-5.4,14c-1.8,0.3-3.6,0.5-5.4,0.8   C26.4,291.2,28.7,286.1,30.8,281.5z" />
	<path fill="#BF9C17" d="M44,254.8c0.5-0.1,0.9-0.2,1.4-0.2c0.3,4.3-0.7,8.3-2.6,12.2c0.1-3.7-3.5-3.1-6.2-3.2c-0.5-1.5-1-3-1.4-4.4   C37.8,256.3,41.9,257.6,44,254.8z" />
	<path fill="#1F1908" d="M61.9,284.8c-2.9-5.8-4.1-12-5.8-18.2c2.5-3.5,1.2-8,1.5-12.1c1.9,9.4,3.2,19,5.8,28.5   C63,283.6,62.4,284.2,61.9,284.8z" />
	<path fill="#3B3D45" d="M39.3,311.8c1.4-4.9,1.8-6.2,2.5-10.5c1.5-0.2,2.8-0.3,5-0.6C44.9,304.8,42.7,307.7,39.3,311.8z" />
	<path fill="#352417" d="M50,239.2c2,1.3,1.7,3.2,1.5,5.1c-0.9,0-1.9,0-2.8,0C48.4,242.4,48.4,240.6,50,239.2z" />
	<path fill="#887619" d="M51.5,254.8c-0.9,0.5-1.8,1-2.7,1.4c0.1-1.4,0.2-2.7,0.2-4C51.6,251.8,51.6,253.3,51.5,254.8z" />
	<path fill="#CBCCD9" d="M55.9,356.1c1.4-0.2,2.8-0.3,2.9,1.7C57.9,357.3,56.9,356.7,55.9,356.1z" />
	<path fill="#D9AA15" d="M30.6,279.7c0,0.6,0.1,1.2,0.1,1.7C29.1,281,29.9,280.4,30.6,279.7z" />
	<path fill="#E3E3EA" d="M5.6,365.2c3.1-11.7,10.5-20.2,19.4-28c0.3,0,0.6-0.1,0.8-0.3c3.1,8.8,4.6,18.2,9.6,26.4   c-0.2,1.3-0.2,2.6,1.3,3.2c-0.2,1.3-0.2,2.8-1.7,3.4l-0.1-0.1c0.3-2.3-4-1.8-5-1.1C28,379.8,15.8,387,5.7,379.9   C3.4,375.1,5.6,370.2,5.6,365.2z" />
	<path fill="#C9C7D4" d="M5.7,379.9c7.4,4.7,15,3.5,20.8-3c0.4,0.6,0.7,1.2,1,1.8C23.9,389,5.2,395.6,5.7,379.9z" />
	<path fill="#C9C7D4" d="M26.6,376c1.3-2.4,3.2-4.4,3.3-7.4c0-0.2,0.8-0.4,1.2-0.6c-1.3,2.8,0.9,4.8,2.1,7.1   C30.7,375.5,28.6,375.8,26.6,376z" />
	<path fill="#B0B1BC" d="M35,369.8c1.5-0.6,1.5-2,1.7-3.3c1.8,1.7,2.6,3.8,2.9,6.7C37.3,372.6,35.7,371.8,35,369.8z" />
	<path fill="#1E191A" d="M27.5,340.2c-0.6-1.1-1.2-2.2-1.7-3.4C28.2,337.1,27.8,338.7,27.5,340.2z" />
	<path fill="#B0B1BC" d="M36.7,366.5c-1.6-0.6-1.6-1.8-1.3-3.2C36.7,364,36.9,365.1,36.7,366.5z" />
	<path fill="#B0B1BC" d="M33.3,368.3c1.1-0.2,1.7,0.3,1.6,1.5C34.4,369.3,33.8,368.8,33.3,368.3z" />
	<path fill="#241C1C" d="M69.5,341.1c0.2-5.7,3.8-10,6.1-15c6.5-2.4,14,1.2,20.2-3.3c0.1-5.8,0.8-13.5,8-14.6   c0.8,1.9,2.6,1.8,4.4,1.5c0.5,1.6,2,1.4,3.2,1.7c-2.3,2.8-10.8-0.7-9.2,4.4c-1.2,3.6-1.7,7.4-4.3,10.4c-3.9,0.8-3.9,0.8-3.4,4.5   c-1.4,0-2.7,0-4.1,0c-2.4-3.3-8.4-0.6-11.9-1.2c-3.9,5.7-7,11-6.3,17.6C70.8,345.3,71.6,342.3,69.5,341.1z" />
	<path fill="#2E1E1D" d="M227.6,290.2c12.5,3.5,25.6-0.3,37.8,4.4c-14.1,1-28.4,1.2-42.3-1.5C224.5,292,225.7,290.4,227.6,290.2z" />
	<path fill="#C6C5D0" d="M106.8,290.5c4.5,2.3,9.4,3.8,12.4,8.3c-0.1,1.2-0.2,2.4-0.3,3.6c-0.4,0.2-0.5,0.6-0.4,1   c-2.3,5.1-2.7,5.1-8.5,4.8c-0.7-0.9-1.4-1.7-2-2.6c2.4-1.4,4.8-2.8,4.8-6.1c0.5-0.3,1.1-0.7,2.3-1.4c-2.1-1.3-3.7-2.3-5.3-3.3   l0.2,0.2c-0.4-0.6-0.7-1.2-1.3-0.2C106,294.2,107,292.1,106.8,290.5z" />
	<path fill="#4A3E40" d="M108,305.6c0.7,0.9,1.4,1.7,2,2.6c-0.6,0.5-1.2,1.1-1.8,1.6c-0.5,0.1-0.9,0.1-1.4,0.1   c-0.5-1-1.1-1.9-1.6-2.9c0.5-0.5,1-1,1.5-1.5C107.2,305.4,107.6,305.5,108,305.6z" />
	<path fill="#171212" d="M115.3,308.1c2.5-0.6,1.5-3.6,3.2-4.8C118.8,306.4,119.2,308.1,115.3,308.1z" />
	<path fill="#191111" d="M224.6,290.4c-1.3-0.1-2.6-0.2-3.9-0.3c0-0.3,0-0.6,0-0.9c1.3-0.1,2.6-0.1,3.9-0.2   C224.4,289.5,224.4,289.9,224.6,290.4z" />
	<path fill="#191111" d="M229.5,287.7c-0.6,0.5-1.3,0.9-1.9,1.4c-0.5-0.1-1.1-0.2-1.6-0.3C226.8,287.2,228.2,287.5,229.5,287.7z" />
	<path fill="#93A39B" d="M226,288.7c0.5,0.1,1.1,0.2,1.6,0.3c-0.1,0.4-0.1,0.8,0,1.2c-0.5,0.1-1.1,0.3-1.6,0.4   c-0.3-0.2-1-0.3-1.3-0.2c-0.2-0.5-0.2-0.9,0.1-1.4C225.2,289.1,225.6,289,226,288.7z" />
	<path fill="#191111" d="M236.8,284.7c-1.1,0.4-2.2,0.8-3.3,1.3C234.1,284.3,235.5,284.5,236.8,284.7z" />
	<path fill="#191111" d="M233.4,286c-0.9,0.5-1.9,0.9-2.8,1.4C231,286,232.2,285.9,233.4,286z" />
	<path fill="#4963C1" d="M506.1,311.2c-1.8,0.1-3.8,0.6-4.1,2.4c-2.7,9.6-11.8,14.4-19.2,19.9c-1.7-11.3,5.7-19.5,14.5-25.2   c0.9,0.1,1.8,0.2,2.7,0.3c1.8,2,4.2,0.9,6.3,1.2l-0.1-0.1C506.4,310.3,506.3,310.7,506.1,311.2z" />
	<path fill="#0C0E1B" d="M497.3,308.3c-8.8,5.8-16.2,14-14.5,25.2c-1.1-0.9-2.2-1.9-3.3-2.8c1.5-10.6,5.4-22.5,17.8-24   C497.3,307.2,497.3,307.8,497.3,308.3z" />
	<path fill="#213051" d="M506.1,311.2c0.2-0.5,0.2-0.9,0.1-1.4c1.5,0,3,0.1,4.5,0.1C509.7,311.9,507.8,311.2,506.1,311.2z" />
	<path fill="#EDCABA" d="M710.4,521.4c-11.7-2.2-23.9-4.2-35.4-5.9c-18.9-35.1-28-76.2-30.3-116.2c-0.6-16.7,6.4-32.6,2.7-49.2   c-0.8,1.5-1.4,2.5-1.9,3.4c-6.8-19.2-5.8-42.4-3.4-62.8c6.8-21.8,9.7-23.3,5.7-47.8c-0.5-0.5-1-1.1-1.6-1.6   c0.1-1.7,0.5-3.3,2.7-3.9c0.9,0.9,1.8,2,2.8,3c0.9,0.8-0.3,2.8,1.7,2.9c0.2-0.8,0.4-1.5,0.5-2.2c5,5.6-4.2,20,0.8,21.6   c1-3.3,2.1-6.5,3.1-9.7c1,11.1-0.2,21.7-2.5,32.4c1.7,0.9,3,1.6,4.3,2.3c0.1,0.8,0.3,1.6,0.4,2.5c0.2,0,0.5,0,0.7,0   c0.1-0.8,0.3-1.7,0.4-2.5c3.4,8.6,14.3,14.6,11.2,25.1c-1.3,0.1-2.5,0.2-3.7,0.3c-3.3-3.8-3.4-9.6-5.3-14.2   c-0.9-0.3-1.6-0.5-2.3-0.7c-0.1-1.4-0.1-2.7-0.3-5.4c-1.3,2.1-1.9,3.2-2.8,4.7c1.5,0.3,2.3,0.5,3.2,0.7c0,2,0,3.9,0,5.9   c-0.5,0-1.1,0-1.6,0c-0.2-0.8-0.5-1.6-0.9-3.2c-2.8,3.2-5.1,5.5-5,9.3l0.1-0.1c-0.4,0.2-0.8,0.3-1.2,0.5c0.4,0.4,0.8,0.8,1.1,1.2   c-1,1.4-2,2.9-3,4.3c-0.1-0.8-0.2-1.7-0.3-3c-1.5,1.7-1.4,2.6,0.3,3.1c-0.8,1.4-1.6,2.7-2.4,3.9c0.9,2,1.9,3.7-0.5,5   c-0.1-1-0.3-2-0.6-4.7c-1.3,2.9-1.8,4.2-2.7,6.2c1.6-0.7,2.5-1.1,3.3-1.5c0.5,5-1.7,11,3,14.6c6.8-7,10.2,1.1,9,7.6   c-0.8-0.3-1.7-0.5-2.5-0.8c-0.6,2.7,1.2,2.2,2.5,2.4c0,1-0.1,2-0.1,3c-1.9,1.3-1.8,1.7,0.1,3c-0.1,0.6-0.2,1.3-0.3,1.9   c-0.7,0-1.4,0-2.4,0c-0.3,3.7-0.5,7.1-0.9,11.4c-1.6-1.5-2.6-2.6-4.3-4.3c0.1,2.8,0.2,4.7,0.3,6.3c1.3,0.9,2.3,1.6,3.2,2.3   c-0.9,0.3-1.8,0.5-2.8,0.8c-1.1,7.6-4.2,16.4-0.2,23.3c-1.8,5.2-2.5,8.8,1.4,13.4c-1.1,8.3-4.1,17.1,0.1,25.2   c2.5,6.9-0.5,14.3,2.4,20.8c3.1-14.1-4.3-28.5,0.3-41.9c2,18.6,4.9,37.4,10.3,55.4c-1.4,7.1-2.3,13.5,3,19.9   c0.2-1.3,0.3-2.5,0.4-3.7c0.5,2,0.9,4.1,1.4,6.1c-2.9,22.9,26.5,25.5,43.4,27C713.6,519.5,712,520.5,710.4,521.4z M662.4,466.7   c-4.6-0.1-2,4.7,0.3,7C662.6,470.9,662.5,468.8,662.4,466.7z M659.5,459.4c-0.2-0.4-0.3-0.9-0.5-1.3c-0.8,0.2-0.5,1-0.5,1.6   C658.9,459.7,659.2,459.6,659.5,459.4z" />
	<path fill="#E9C7B7" d="M615.6,256.5c9.8,6.4,21,6.1,32.2,6.1c-1,6.3-5,11-6.2,17C629.5,276.7,618.1,272.3,615.6,256.5z" />
	<path fill="#EBC7B7" d="M646.3,241.2c0.5,0.5,1,1.1,1.6,1.6c-3.6,3.5-1,9.7-1.8,14.4c-10.3,1.8-21.5-0.8-30.6-4.2   c-0.8-2.1-0.5-4,0.8-5.9C626.3,246.5,638.9,250.2,646.3,241.2z" />
	<path fill="#1C1718" d="M616.2,247.1c-1.3,1.8-1.6,3.8-0.8,5.9c-1.4,0.2-2.7,0.4-3.4-1.3c2-18.9,17.2-33.9,35.3-39   c0.6,0.4,1.3,0.9,1.9,1.3C636,221.7,619.8,230.8,616.2,247.1z" />
	<path fill="#C6CEE5" d="M610.6,254.7c-4.8,6.8-15.2,5.9-22.4,9c0-1,0-2,0-3l-0.1,0.1c4-1.6,4.8-6.1,7.4-9.1   c2.5,0.2,5.2-0.5,7.5,0.4C605.2,254.7,608.6,251.8,610.6,254.7z" />
	<path fill="#ADAEC4" d="M601.8,251.6c-2.1,0-4.1,0-6.2,0c0.1-0.9,0.2-1.7,0.2-2.6c-0.6-1.1-1.1-2.1-1.7-3.2   c6.3-2.4,13-1.3,19.5-1.5c-0.2,2.6,0.1,5.2-1.5,7.5c-1.3,0-2.9-0.6-3.2,1.5c-1.9-0.4-4.3,0.9-5.8-1.3c1.2-0.3,2.4-0.5,4.8-1   c-4.2-1.7-6.9-3.5-11.3-3.2C598.8,249.4,600.3,250.5,601.8,251.6z" />
	<path fill="#241C1E" d="M615.6,256.5c2,13.7,11.3,18.6,20.8,21.9c-1.6,0.6-3.8-0.6-4.8,1.6c-12.2-3.9-17.1-13.6-19.6-25.1   C613.1,255.3,614.3,255.9,615.6,256.5z" />
	<path fill="#EEC9B9" d="M94.9,342.6c0.7,0.3,1.4,0.6,2.3,1c42.2-19.6,89.6-3.2,133.5-7.7c7.5,1.6,35-15.8,28.2,1.1   c2.3,2.4,5.1,5,8.8,4.2c5.9,12.7,22.2,0,31.1,8c-15.5,8.2-28.8,1.2-42.6-4.2c-40.6-5.6-81.8,4-122.5-3c-10.7,2.1-21.4,3.8-31.3,8.6   C97.4,351.6,96.1,346.3,94.9,342.6z" />
	<path fill="#EFBC10" d="M41,143.3c-0.8,14.7-7.7,29.1-9.2,43.3c-2.3,0-4.4,0-6.6,0c-0.5-0.5-1.1-1.2-1.8-1.9   c0-13.8,3.4-27.9,6.9-41.3C34.2,142.6,37.6,143.2,41,143.3z" />
	<path fill="#DBA10F" d="M44,151.9c0.1,15,5.2,31.3-1.3,45.3c-13.7-9.9-2.6-27.6-1.2-40.8c1.7-1.2,1.1-2.9,1.1-4.5l0,0   C43.1,151.9,43.6,151.9,44,151.9z" />
	<path fill="#DBAE13" d="M47.1,195.1c2.9-1.5,3.1,16.4,2.3,19.1c-3.8,0-7.2,0-10.6,0c-2-3.7-2-7.1-1.8-11.4   C42.8,203.2,46,200.4,47.1,195.1z" />
	<path fill="#352417" d="M36.9,209.6c0.6,1.5,1.2,3,1.8,4.5c3.5,0,6.8,0,10.6,0c0.3-1.5,0.6-2.8,0.9-4.2c0.4,0,0.9,0,1.3,0   c-1.6,7.5,5,30.3-5.9,29.5c0-0.8,0-1.7,0-2.5c0.9-0.2,1.8-0.4,3.1-0.7c-0.4-3.4,0.5-6.5-0.7-9.5c-2.2-0.5-3.7-1.2-5.7-2.1   c2-0.6,4-1.2,6.3-2c-0.3-1.4-0.6-2.4-0.9-3.6c-3.5,1-6.5,1.8-9.6,2.7c-0.4-1-0.9-2-1.3-3c4,1,7.6-0.7,11.3-1.9   C42.5,214.5,35.6,221.4,36.9,209.6z" />
	<path fill="#DCA00F" d="M23.5,184.7c0.6,0.7,1.3,1.4,1.8,1.9c2.2,0,4.3,0,6.6,0c1.2-3-1-6.8,1.7-9.4c-0.6,7.5,0.4,14.3,4.2,21   C28.2,197.7,24.7,194.4,23.5,184.7z" />
	<path fill="#E9BA13" d="M45.7,226.1c0.7,0.2,1.4,0.4,2.4,0.6c1.2,3,0.3,6.1,0.7,9.5c-3.6,1-6.8,0.9-10.4,0.3   c-0.6-3.3,0.1-6.6,0.3-9.9C41,226.5,43.3,226.3,45.7,226.1z" />
	<path fill="#2D2306" d="M35.2,192.2c-5.2-15,3.8-31.2,6-46.3c0.5,0,1.1,0,1.6,0c0,2-0.1,3.9-0.1,5.9l0,0c-2.2,11.5-8,25-6,37.3   C35.1,189.7,35.3,191,35.2,192.2z" />
	<path fill="#AA8A15" d="M38.2,221.7c3-0.8,6.1-1.7,9.6-2.7c0.3,1.2,0.5,2.2,0.9,3.6c-4.5,1.5-7,2.3-12,2   C37.4,223.2,37.8,222.5,38.2,221.7z" />
	<path fill="#DEB111" d="M34,125.1c4.3-2.6,4.9-2.5,7.4,1.4c-0.1,1-0.1,2-0.2,3l0,0c-2.4-0.1-4.8-0.2-7.2-0.3   C34,127.5,34,126.3,34,125.1z" />
	<path fill="#BDA410" d="M41.4,139.9c-0.3,0.3-0.5,0.6-0.5,1c-2.8-0.4-5.5-0.8-8.3-1.3c0-0.3,0-0.7,0-1c2.3-0.8,4.5-1.5,6.9-2.3   c-0.1-0.7-0.1-1.4-0.2-2.1c0.5-0.1,1-0.2,1.5-0.3C41.1,135.9,41.2,137.9,41.4,139.9z" />
	<path fill="#998B1E" d="M39.7,217c2.8,0.8,5.5-2.3,8.5-0.1c-3.8,1.2-7.3,2.9-11.3,1.9C37.8,218.1,38.7,217.6,39.7,217z" />
	<path fill="#C6AD11" d="M40.9,134c-2.1,0.5-4.3,0.2-6.4,0.3c1.8-2.3,4.1-3,6.6-3.1l0-0.1C41,132,40.9,133,40.9,134z" />
	<path fill="#DAAD11" d="M26.6,116.4c4.4-3.9,11.2-2.4,14.4,2.7c-4.8-0.4-8.3-1.5-11.9,1.7C26.7,119.8,26.4,118.2,26.6,116.4z" />
	<path fill="#362D1D" d="M51.8,193.2c2.1-0.8,0.9-2.8,1.4-4.1c1.5,2.5,1.5,2.5,0.9,6.9c-0.7,0.2-1.6,0.3-2.5,0.5   C51.7,195.4,51.8,194.3,51.8,193.2z" />
	<path fill="#1B170C" d="M40.9,134c0.1-1,0.1-1.9,0.2-2.9c2.5,2,2.5,6.2,0.4,8.8C41.2,137.9,41.1,135.9,40.9,134z" />
	<path fill="#A7830F" d="M42.7,151.8c0-2,0.1-3.9,0.1-5.9c2.5,1.6,1.2,3.9,1.2,6C43.6,151.9,43.1,151.9,42.7,151.8z" />
	<path fill="#1B170C" d="M41.2,129.5c0.1-1,0.1-2,0.2-3C43.1,127.6,43,128.6,41.2,129.5z" />
	<path fill="#E8B813" d="M59,218.8c-4.7-11.7-2.4-25.7-2.4-38.1c1.6-1.2,4.2,0.7,5.2-1.9c1.4-0.2,2.8-0.3,4.4-0.5   c0.2-1.7,0.3-3.1,0.5-4.5c1.6,13.7,3.7,28.3,1,41.8c-0.5,0.1-0.9,0.2-1.4,0.5C63.4,216.1,58.9,214.2,59,218.8z M57.8,185.4   c2.7,0.2,4.9,3,8.4,1.6c0.3-1.9,0.5-3.2-0.5-5c-2.7-0.2-5.3-0.9-7.7,0.6C57.9,183.5,57.9,184.2,57.8,185.4z" />
	<path fill="#E7B712" d="M70.8,168.3c0.1-2.2,0.2-4.4,0.4-7.7c4.4,10.1,11.1,22.6,8.7,33c-3.1,1.9,0.1,5.5-2.6,7.8l0.1-0.1   c-2,0.2-1.8,1.6-1.6,3C72.2,193.6,73.8,180,70.8,168.3z" />
	<path fill="#EFBC11" d="M65.2,142.9c-0.9,5,1.2,9.6,1.1,14.5c-3.5-0.4-7.1-0.8-10.9-1.3c-0.5-5.3-1.4-10.3-0.8-15.5   c3.7,0.3,7,0.6,10.4,1C64.9,142,65,142.5,65.2,142.9z" />
	<path fill="#EDBA12" d="M56.2,168.2c0-2.8,0-5.7,0-8.9c3.7-0.1,7-0.8,10.3,0.2c0,3.4,0.1,6.8,0.1,10.3   C63.1,169.6,59.4,170.3,56.2,168.2z" />
	<path fill="#EDBC12" d="M66.7,173.9c-0.2,1.4-0.3,2.8-0.5,4.5c-3.3,0.5-6.1,0.5-9.3,0.2c-1.3-2.4-0.8-4.8-0.6-7.1   c3.4,0,6.8-0.1,10.3-0.1C66.6,172.1,66.7,173,66.7,173.9z" />
	<path fill="#D29B10" d="M72.7,183.2c3.9,6.2-1.7,15.7,3,21.1c-0.2,1.5-0.7,2.9-2.9,3.1C71.9,199.3,72.7,191.2,72.7,183.2z" />
	<path fill="#656118" d="M59,218.8c0.1-0.5,0.2-1,0.3-1.6c3.1,0.5,5.6,0.2,8.4-1.5c0.2,1.1,0.5,2.1,0.7,3.2   c-1.2,0.2-2.6-0.5-3.1,1.2C63.2,219.7,61.1,219.3,59,218.8z" />
	<path fill="#7D6B21" d="M66.6,171.3c-3.4,0-6.8,0.1-10.3,0.1c0-1.1-0.1-2.1-0.1-3.2c3.2,2,6.9,1.3,10.4,1.5   C66.6,170.3,66.6,170.8,66.6,171.3z" />
	<path fill="#D29B10" d="M75.7,204.2c-0.2-1.4-0.4-2.8,1.6-2.9C76.8,202.2,76.2,203.2,75.7,204.2z" />
	<path fill="#362D1D" d="M69.3,225.2c-0.4-1.1-0.9-2.2-1.3-3.3C69.8,222.5,69.6,223.8,69.3,225.2z" />
	<path fill="#362D1D" d="M68.4,218.9c1.1,0.7,0.6,1.2-0.2,1.7l-0.3-0.3c0.1-0.5,0.1-0.9,0-1.3L68.4,218.9z" />
	<path fill="#D29B10" d="M77.3,201.4c0.4-0.6,0.7-1.2,1.1-1.8c0.1,0.5,0.1,1,0.2,1.5C78.1,201.3,77.7,201.4,77.3,201.4z" />
	<path fill="#7B94A3" d="M618.3,189c-1.1-0.5-2.3-1-3.4-1.5c2-1.8,4.4-1.3,7.6-1.2C620.7,187.4,619.5,188.2,618.3,189z" />
	<path fill="#DCB113" d="M65.2,136.9c-0.2,0.5-0.3,0.9-0.3,1.4c-3.5-0.5-10.3,1.9-10.2-3.8c3.4-0.4,6.5-2.7,10.2-1.9   C65.1,134.1,65.1,135.5,65.2,136.9z" />
	<path fill="#0A0905" d="M65.2,136.9c0-2.4-0.6-5-0.3-7.4c0.5,0.3,1,0.6,1.5,0.9C66,132.6,67.6,135.1,65.2,136.9z" />
	<path fill="#0A0905" d="M65.2,142.9c-0.6-1.3,0-2.8,0-4.2C67.1,140.7,67.1,140.7,65.2,142.9z" />
	<path fill="#663F0B" d="M55.6,131.7c-0.5,0.8-1.1,0.2-1.8,0C54.2,130.8,54.8,131.5,55.6,131.7z" />
	<path fill="#E1E2E9" d="M108,305.6c-0.4-0.1-0.8-0.2-1.2-0.1c-8.1-6.4-17.7-10.3-22.8-19.9c3.7-2.4,7-4.5,10.5-6.8   c6.4,1,7.1,8.8,12.3,11.8c-0.2,2.1-0.1,4.7,3.1,4.5l-0.2-0.2c-0.2,2.4,1.9,3.2,3.1,4.7C112.7,302.8,110.3,304.2,108,305.6z" />
	<path fill="#929CA1" d="M105.2,307c0.5,1,1.1,1.9,1.6,2.9c-1.9,0.4-3.3-1.2-3-2.9C104.3,306.7,104.8,306.7,105.2,307z" />
	<path fill="#929CA1" d="M103.7,306.9c-1-0.5-2-0.9-3-1.4C102.1,305.3,103.2,305.5,103.7,306.9z" />
	<path fill="#FBDFD3" d="M616.2,247.1c3.5-23.2,72.5-64.6,78.8-26.2c1.8-3-0.1-5.8,0.1-9.2c1.9,1,3.6,1.8,5.3,2.6   c5.7,8.8,12,17.5,10.1,28.7c-1,0.7-2,1.3-2.9,1.9c2.5,18.8-7.5,32.5-18.1,46.8c-0.5,0.1-0.9,0-1.2-0.3   c-0.2-13.2-10.7-21.7-14.7-34.4c-1.2,25.2,19.1,16.7,9.8,56.7c-3.1,2.2-3.8,5.4-4.2,9.3c1.5,0.1,2.7,0.2,4.3,0.3   c0.3,7.3,1.4,14.6-1,21.9c0.4,10.7,4.7,21.2,1.5,32.1c7.6,11.7,1.7,24.1,2.3,36.6c-8.4,22.8-6.3,54.2-3.9,79.1   c-0.9,1.7-2.4,3.2-0.9,5.8c0.8,0.2,1.9,0.5,3,0.7c0.3,0.9,0.6,1.8,0.9,2.7c0.4-0.2,0.8-0.3,1.2-0.5c3.4,0.7,6.9,1.3,10.3,2   c0,0.4,0.1,0.8,0.1,1.2c-1.2,0.1-2.4,0.3-3.5,0.4c0,0.3,0.1,0.6,0.1,0.9c1.1,0,2.3,0,3.4,0c3.3,4.6,8.7,4.2,13.3,5.1   c1.1,2.2,2.7,2.2,4.6,1c3.9,0.3,7.9,0.6,11.8,1c4.2,4,8.4,8.1,12.7,12.3c-7.5,1-11.1-6-17.4-8.1c-18,1.8-53.1-1.4-50.3-26.1   c0.8,0.5,1.5,1.1,2.4,1.6c2.2-7,0.9-15.3-4-25.4c0-15.9,4.8-32.2-2.1-47.2c-0.4,16.4,1.6,32-1.2,48.7c-8.3-20.4-5.4-46.3-14.2-64.9   c-0.3,1-0.4,1.6-0.6,2.3c-2-2.4-1.9-4.9-0.1-7.3c0.7,0.8,1.7,1,1.8-0.3c-5.2-7.7-2.8-17.2-1.1-26c1-0.3,1.9-0.5,2.8-0.8   c1.4,1.6,2.8,3.2,4.6,5.3c2.6-2.2,0.2-5.1-0.4-6.8c-2.3-8,6.8-43-8.9-31.5c-4.7-3.6-2.5-9.6-3-14.6c2.3-1.4,1.5-3.1,0.5-5.1   c1.6-2.7,3.5-5.6,5.4-8.2c0-0.6,0-1.1,0.1-1.7l-0.1,0.1c3-1,3.6-4.4,6-6.1c0.5,0,1.1,0,1.6,0c3.5,8.8,8.6,17.1,14.5,24.2   c0.2,1.3,0.3,2.7,0.4,3.8c9.4,1.3-8.2-15.3-7.4-19c1.2-0.1,2.4-0.2,3.7-0.3c3.1-10.4-7.7-16.4-11.2-25.1c-0.5,0-1,0-1.5,0.1   c-1.3-0.7-2.6-1.4-4.3-2.3c3.7-15.2,3.5-30.2,0.6-46c-1.1,0.9-1.5,1.3-2,1.8c-0.2,0.7-0.3,1.4-0.5,2.2c-2.1-0.1-0.8-2.1-1.7-2.9   c-1.1-0.9-2-2-2.8-3c-2.2,0.6-2.6,2.2-2.7,3.9C638.9,250.2,626.3,246.5,616.2,247.1z M667,409.4c-0.4,0.1-0.9,0.1-1.3,0.2   c-3.1-7.5-3.5-12.7-2.8-21.1c-7.1,6.3-5.6,17.7,2.9,21c0.2,2.1-0.3,4.5,2.9,5.8c0-2.9,0-5.4,0-8.2c-0.3,0-0.7-0.1-1-0.1   C667.4,407.9,667.2,408.6,667,409.4z M679.4,396c-0.6-2.4-1.2-4.7-1.8-7.1c0.9-2.1-2.1-4.5,0.5-6.6c0.8,0.2,1.7,0.5,2.5,0.7   c0.8,1.6,1.5,3.4,4.5,2.2c-3.8-3.2-6.1-6.2-8.9-10c-0.3-6.5-5.2-8.8-9.9-11.3c-5.5,7.8,4.1,14.4,8.2,20.4   c-1.2,8.5,4.9,15.2,4.9,23.4c0.1,0.7,1.3,1.3,2.8,2.7C682.1,404.7,682.3,400,679.4,396z M661.6,210.9c-2.1,8.9-9.6,13.7-14.1,21.9   C654.2,232.4,664.8,217.4,661.6,210.9z M675.4,497.4c0.8,2.3,0.5,7.6,3.6,5.2C678.3,500.8,678.4,498.5,675.4,497.4z" />
	<path fill="#EBC8B9" d="M752.2,248.9c2.6-1.6,4-4.6,7.4-4.7c-4.5,9.6-10.7,18.7-10.4,30.1c-2.2-5.3-2.3-11.1-5.7-16   c-8.4-0.8-16.8-1.6-25.7-2.4c0.2-1.4,0.3-2.8,0.5-4.1c0.3,0.1,0.9,0,1.1-0.1c0.2,0.9,0.5,1.8,0.8,3.2c8.3-3.8,15.6-8.1,24.6-9.1   c-2.9,2.2-5.8,4.5-9,7c9.8,0.3,15.8-10.8,21.9-17.2c0.5-0.1,1.1-0.2,1.6-0.2c0,1.2,0,2.4,0,4.3c-4.6,3.3-9.2,7.1-10.1,13.2   C751.7,252,752.2,250.6,752.2,248.9z" />
	<path fill="#423D3E" d="M719.4,251.7c-0.9,0.3-1.9,0-2.9,0.1c4.6-17.1-2.2-33.6-11.9-47.7c1-0.9,2.1-1.9,3.1-2.8   C713.8,217.1,725.3,232.7,719.4,251.7z" />
	<path fill="#2E2B2B" d="M707.6,251.7c0-2.2,0-4.4,0-6.7c0.9-0.6,1.8-1.2,2.9-1.9c1.9-11.2-4.4-19.9-10.1-28.7   c0.6-0.1,1.2-0.1,1.8-0.2c10.6,9.1,14.4,24.4,10,37.5C710.7,251.7,709.2,251.7,707.6,251.7z" />
	<path fill="#393332" d="M688.3,291.5c0.4,0.3,0.8,0.4,1.2,0.3c0,0.5,0.1,1,0.1,1.5C689.2,292.7,688.7,292.1,688.3,291.5z" />
	<path fill="#EAC6B6" d="M291.6,345.6c-1,0-2,0-3,0l0,0c-0.4-1.1-0.9-2.3-1.3-3.4c1,0.2,1.9,0.3,2.9,0.5l-0.2-0.2   C290.6,343.5,291.1,344.5,291.6,345.6z" />
	<path fill="#E5CFC4" d="M738.6,511.1c0.5,0.8,0.9,1.6,1.4,2.5c-1.5,0.2-2.7,0.3-3.8,0.4c2.8,5,12,6,17.3,9   c-11.3,7.3-17.7-9.3-26.7-10.2c0-0.6,0-1.2,0-1.8C730.7,511.1,734.6,511.1,738.6,511.1z" />
	<path fill="#642E2B" d="M726.7,511c0,0.8,0.1,1.6,0,2.4c-3.9-0.3-7.9-0.6-11.8-1C718.1,509.8,722.8,511.6,726.7,511z" />
	<path fill="#8B9A93" d="M758.2,521.3c-0.3,0.4-0.5,0.8-0.8,1.2C756.5,521.3,757.8,521.6,758.2,521.3L758.2,521.3z" />
	<path fill="#FBFCFC" d="M72.3,347.1c-0.7-6.6,2.4-12,6.3-17.6c3.5,0.6,9.5-2.1,11.9,1.2c-8.3,4.4-8.7,15.2,1.2,19.9   c0.5,1.3,3.1,1.7,1.7,3.9C83.5,357.7,73.8,360.9,72.3,347.1z" />
	<path fill="#CBCCD9" d="M71.1,356c-2.3-1.1-1.5-3-1.4-4.8C70.2,352.8,70.6,354.4,71.1,356z" />
	<path fill="#D29B10" d="M78.7,198.4c-0.1-1.7-1-3.7,1.2-4.8C79.5,195.2,80.4,197.1,78.7,198.4z" />
	<path fill="#7E645F" d="M800,254.5c-1.5-0.7-3.5-1-2.5-4c1.5,0.8,2.9,1.6,4.2,2.4C801.1,253.4,800.6,253.9,800,254.5z" />
	<path fill="#EBD0C3" d="M713.6,482.7c-0.3,0.3-0.4,0.7-0.4,1.1c-7,2.6-11.3-3.9-17.7-4.1c-3.3-0.7-6.5-1.4-10.1-2.1   c-0.1-3.6-0.1-6.7-0.2-9.8c1.2-0.3,2.3-0.5,3.4-0.7c2.3,0.9,4.6,1.7,6.8,2.5c-1.5,0.7-3,1.6-4.3,2.6c1.9,2.3,4.8,1.3,7.5,1.5   C702.6,478.2,709.1,479,713.6,482.7z" />
	<path fill="#DDCEC3" d="M691.1,472.2c11.6-7,24.9,6.9,37.2,9.3c-0.6,0.5-1.1,1-1.7,1.5c-2.4,0-4.7,0-7.1-0.1   c-0.4-0.3-0.9-0.4-1.3-0.3C710.9,476.9,700.8,472.1,691.1,472.2z" />
	<path fill="#A59F97" d="M731.1,477c3.5,1.5,8.3,0.8,10.6,4.3c-2.9,0-5.7-0.1-8.6-0.1c-1.5-1-3.1-2-5.4-3.5   C729.5,477.3,730.3,477.1,731.1,477z" />
	<path fill="#3D2F2C" d="M733.2,481.1c2.9,0,5.7,0.1,8.6,0.1c0,0-0.1-0.1-0.1-0.1c1.1,1,2.2,1.9,3.3,2.9c-1.1,0.5-2.3,1-3.4,1.5   c-2.8-4.7-8.5-1.4-12-4.1C730.7,481.4,732,481.2,733.2,481.1z" />
	<path fill="#BAADA4" d="M729.5,481.5c3.5,2.7,9.2-0.6,12,4.1c-4.8-0.5-9.6-1-14.4-1.6c-0.2-0.3-0.4-0.7-0.6-1   c0.6-0.5,1.1-1,1.7-1.5C728.7,481.4,729.1,481.4,729.5,481.5z" />
	<path fill="#4C4746" d="M711.8,478.6c1.9,0.1,3.6,0.7,4.5,2.6c-0.5,0.5-1,0.9-1.5,1.4c-0.4,0.1-0.8,0.1-1.2,0.1   c-1.4-1.4-3.1-2.2-4.9-2.8C709.7,479.5,710.8,479,711.8,478.6z" />
	<path fill="#BAB5AB" d="M745,484c-1.1-1-2.2-1.9-3.3-2.9c2.4,0,4.8,0,5.8,2.9C746.6,484,745.8,484,745,484z" />
	<path fill="#332726" d="M726.5,483c0.2,0.4,0.4,0.7,0.6,1c-2.6-0.2-5.4,1.3-7.7-1.1C721.8,482.9,724.2,482.9,726.5,483z" />
	<path fill="#332726" d="M716.4,481.4c0.6,0.4,1.1,0.8,1.7,1.2C717.5,482.2,717,481.8,716.4,481.4z" />
	<path fill="#161413" d="M91.7,350.7c-11.6-4.8-8.6-21.1,2.9-20c-0.5,3.3-4.1,5.9-5.4,9.3C90.1,343.6,92.4,347,91.7,350.7z" />
	<path fill="#9C8E86" d="M92,348.4c-0.9-2.8-1.8-5.6-2.7-8.4c4.1,0.1,3.5,6.2,5.6,9.8C93.5,349.2,92.7,348.8,92,348.4z" />
	<path fill="#FBFCFC" d="M96.2,352.9c-0.4-0.2-0.8-0.3-1.2-0.5C95.9,351.4,96,352.3,96.2,352.9C96.2,352.9,96.2,352.9,96.2,352.9z" />
	<path fill="#D2CABF" d="M725.7,511.1c-2.9,0-5.8-0.1-8.6,0.1c-2.1,1-5.1,4-6.7,0.3c0.5-0.4,1-0.8,1.4-1.2c-1.2-0.4-2.1-0.9-2.6,0.6   c-0.6,0-1.3,0-1.9,0c-0.1-0.7-0.2-1.4-0.2-2.1c-2.9-0.3-6.3-3.4-8.5-0.8c-0.5-0.5-1-1.1-1.5-1.6c-0.1-0.8,0-1.7-0.1-2.5   c5,0.8,10,1.7,15,2.5C715.5,510.9,721.8,507.8,725.7,511.1z" />
	<path fill="#935F5A" d="M722.5,207.4c0.3,0.6,0.6,1.3,1,2.1c-1.2,0.4-2.1,0.7-3.3,0c0.2-0.7,0.3-1.3,0.5-2   C721.3,207.4,721.9,207.4,722.5,207.4z" />
	<path fill="#352417" d="M38.3,236.6c1,0.1,1.9,0.3,2.9,0.4C40,238.6,39,238.6,38.3,236.6z" />
	<path fill="#1D1111" d="M713.4,475.4c-1.2,0-2.5-0.1-3-1.5C711.6,471.1,713.4,473.2,713.4,475.4z" />
	<path fill="#392B29" d="M801.5,263.4c-1.9,0.7-3.8,1-5.8-0.3c-0.4-2.1-0.8-4.4-1.4-7.6c3,2.9,6.1,4.7,7,8.1   C801.3,263.6,801.5,263.4,801.5,263.4z" />
	<path fill="#442220" d="M783.5,269.7c0.6-2.8,2-1.7,3.3-0.1c-1.2,0-2.3,0-3.5,0L783.5,269.7z" />
	<path fill="#50413C" d="M757.8,235.5c-6.1,6.4-12.1,17.6-21.9,17.2C744.3,248.1,748.9,238.3,757.8,235.5z" />
	<path fill="#4A3B38" d="M734.4,229.8c-4.1,3-6.9,6-12.2,6.9C725.4,232.4,728.9,230.4,734.4,229.8z" />
	<path fill="#856F69" d="M748.6,220.8c-2.5,1.9-4.1,3-6,4.5C741.1,221.7,744.4,220.7,748.6,220.8z" />
	<path fill="#383331" d="M727.4,210.4c0.1,0.9-1,0.6-1.3,0.1C726.6,210.5,727,210.4,727.4,210.4z" />
	<path fill="#733C38" d="M739.9,227c0,0.2,0,0.3,0,0.5c-0.3-0.1-0.7-0.2-1-0.2C739.2,226.9,739.5,226.6,739.9,227z" />
	<path fill="#A0897E" d="M752.2,248.9c0,1.7-0.5,3.1-2.9,3.9c0.3-2.4,1.1-4.1,2.6-5.6C752,247.7,752.1,248.3,752.2,248.9z" />
	<path fill="#403835" d="M775.7,220.2c0.5,0.1,1,0.1,1.6,0.2c-0.5,1.5-1.5,2.8-1.2,4.4c-0.6-0.3-1.3-0.7-2-1   c-1.3,0.9-2.6,1.8-3.8,2.6C768.3,224.4,772.9,220.2,775.7,220.2z" />
	<path fill="#9C9B93" d="M776,223.5c0.4-1,0.8-2.1,1.3-3.1c1.5,0,3,0,4.5,0.1C780.5,222.8,778.1,222.8,776,223.5z" />
	<polygon fill="#85928B" points="780.9,224.1 781.4,223.9 781.4,224.4  " />
	<path fill="#0E0F1E" d="M343.5,332.1c-1.5,5.2-1.3,11.4-8.1,12.8c3.2-27,17.2-33.1,38.1-45.6c0.6,0,1.3,0.1,1.9,0.1   C366.9,312.3,342.6,313.1,343.5,332.1z" />
	<path fill="#4C66C7" d="M488.3,263.7c-13.8-0.6-26,6.4-40,5.9c10.4-8.4,26.5-9.2,39.7-10.5C488.1,260.6,488.2,262.1,488.3,263.7z" />
	<path fill="#4A65C5" d="M485.4,242.7c-7.4,1.9-18.8,3.3-23.2-4.2c6.5-1.8,12.5,3.2,18.3-0.2C482.2,239.8,483.8,241.3,485.4,242.7z" />
	<path fill="#111122" d="M449.5,245.9c12.3,1.8,21.8,3.5,34.5,2.5C475.9,253.8,460.5,252.5,449.5,245.9z" />
	<path fill="#1D203F" d="M457,218.9c-7.9,3.3-18.4,3.4-26.5,7.7c0,0-0.5-0.5-0.5-0.5c6.4-5.2,14.7-7.2,22.7-8.4   C453.8,219.6,455.6,218.7,457,218.9z" />
	<path fill="#1D1F3E" d="M418.6,237.1c-6.6,5.2-10.5,6.9-15.7,6.4c5-2.9,9.5-6,15.1-7.1C418.2,236.7,418.4,236.9,418.6,237.1z" />
	<path fill="#37488D" d="M382.8,287.7c1.7-4.9,3.7-9.5,8.6-12.2l0.1,0.1c-1.5,4.7-6,8.4-7.4,13.5   C383.7,288.6,383.3,288.1,382.8,287.7z" />
	<path fill="#0E1326" d="M485.4,242.7c-1.6-1.5-3.3-2.9-4.9-4.4c1.1-0.2,2.3-0.6,3.4-0.1c0.9,2.1,2.8,1.4,4.4,1.5   c0.8,2.2,2.1,4.3,0.7,7.3C487.7,245.5,486.6,244.1,485.4,242.7z" />
	<path fill="#22284E" d="M382.8,287.7c0.4,0.5,0.9,0.9,1.3,1.4c-2.7,3.6-4.4,8.1-8.7,10.4c-0.6,0-1.3-0.1-1.9-0.1   C376.6,295.5,379.7,291.6,382.8,287.7z" />
	<path fill="#1D2242" d="M428.8,227.9c-0.7,4.5-5.3,8.6-10.1,9.3c-0.2-0.2-0.4-0.5-0.6-0.7C421.6,233.6,425.1,230.7,428.8,227.9   C428.7,227.8,428.8,227.9,428.8,227.9z" />
	<path fill="#304181" d="M494,235.1c-0.8,3-1.2,5.9,2.1,8.8c-2,0-3.1,0-4.2,0c-0.8-3-1.5-5.7-2.3-8.4   C491.1,235.4,492.6,235.2,494,235.1z" />
	<path fill="#1A1F3D" d="M488.3,263.7c-0.1-2.6-0.6-4.5,0.6-7.1c1.1,0.5,2,1,3.2,1.6c-0.3,1.6-0.7,3.2-1.1,5.1   C490.1,263.4,489.2,263.6,488.3,263.7z" />
	<path fill="#3E52A1" d="M401.9,262.1c1.5-2.6,3.3-4.9,8.1-6.4C406.9,259.3,405.6,262.1,401.9,262.1L401.9,262.1z" />
	<path fill="#3B4E99" d="M395.9,269.6c0.4-3.8,3.1-5.6,6-7.4l0.1,0.1C401.5,265.9,398.7,267.7,395.9,269.6L395.9,269.6z" />
	<path fill="#4055A8" d="M494.2,246.9c0,2.2,0,4.4,0,8.2c-1.3-3.2-2.1-4.9-3-7.1c0.5-0.7,1.1-1.4,1.7-2.1   C493.3,246.2,493.8,246.6,494.2,246.9z" />
	<path fill="#313A72" d="M482.7,238c-1.1,0.2-2.3,0.3-3.3,0.7c-1.7-0.8-3.5-1.6-6.4-2.9C477.4,235.1,480,236.5,482.7,238z" />
	<path fill="#293060" d="M497,273.5c-2.8-1.1-3.3-2.6-2.2-4.9C496.9,269.7,497.6,271.1,497,273.5z" />
	<path fill="#36488F" d="M396,269.6c-0.2,3-2.1,4.7-4.5,6l-0.1-0.1C391.5,272.4,393.4,270.8,396,269.6L396,269.6z" />
	<path fill="#363F7C" d="M488.4,239.8c-1.6-0.1-3.5,0.6-4.4-1.5C486.5,237.3,487.9,235.8,488.4,239.8z" />
	<path fill="#181324" d="M494,235.1c-1.4,0.1-2.9,0.2-4.3,0.4C488.5,232.9,493.2,232.9,494,235.1z" />
	<path fill="#2A386E" d="M498.6,276c-0.8,0.9-1.3,1.5-2.1,2.3C496.3,276.1,496.3,276.1,498.6,276z" />
	<path fill="#2D3C76" d="M498.9,281.9c0.4-1.1,0.5-2.1,2-1.4c-0.3,0.7-0.6,1.4-0.9,2.1C499.6,282.3,499.3,282.1,498.9,281.9z" />
	<path fill="#1D0D18" d="M457,218.9c-1.5-0.2-3.3,0.7-4.3-1.2C454.3,217.6,456.2,216.4,457,218.9z" />
	<path fill="#1D203F" d="M430.5,226.6c-0.6,0.4-1.1,0.8-1.7,1.3c0,0-0.1-0.1-0.1-0.1c0.4-0.6,0.8-1.1,1.3-1.7L430.5,226.6z" />
	<path fill="#344A91" d="M494.1,230.6c0-0.4,0.1-0.8,0.2-1.2c0.3,0.3,0.7,0.5,1,0.8C494.9,230.3,494.5,230.4,494.1,230.6z" />
	<path fill="#344A91" d="M494.3,229.4c-0.4-0.3-0.7-0.5-1.1-0.8c0.4-0.2,0.8-0.4,1.2-0.6C494.5,228.4,494.4,228.9,494.3,229.4z" />
	<path fill="#292121" d="M702.2,214.3c-0.6,0.1-1.2,0.1-1.8,0.2c-1.7-0.8-3.3-1.7-5.3-2.6c-0.2,3.3,1.7,6.2-0.1,9.2   c-6.8-19.9-9-13.1-26.6-17.1c3.8-1,7.5-2,11-2.9C688,204.1,697,206.8,702.2,214.3z" />
	<path fill="#322A2E" d="M582.2,208.2c-9.4,5.6-18.8,11.2-28.2,16.8c-0.5-0.4-1-0.8-1.5-1.3c9.6-8.6,21.4-13.6,32.6-19.8   c0.5,0.5,1.1,1.1,1.6,1.6C585.3,206.5,583.6,207.1,582.2,208.2z" />
	<path fill="#231D1D" d="M668.4,203.9c1.1,0.5,2.1,0.9,3.2,1.4c-7.8,2-14.8,6-22.4,8.8c-0.6-0.4-1.3-0.9-1.9-1.3   C653.9,209,660.5,203.5,668.4,203.9z" />
	<path fill="#5D5E6A" d="M567.4,256.1c-3.9,9.6-10.5,18.1-13.5,28.3c-0.5,0-1.1,0-1.6,0.1C554.3,274,558.9,262.9,567.4,256.1z" />
	<path fill="#5C5F69" d="M519.9,247.1c0.5-0.5,1-1.1,1.5-1.6c2.9,10.8,2,22.7-1.9,33.1c-1.7-1.3-1.3-3.1-1.1-4.8   C523.4,266.7,520.3,255.7,519.9,247.1z" />
	<path fill="#514B53" d="M552.6,223.7c0.5,0.4,1,0.8,1.5,1.3c-5.4,5.1-10.1,11-16.2,15.3c-0.1-0.4-0.4-0.6-0.8-0.6   C541.3,233.4,546.4,228,552.6,223.7z" />
	<path fill="#292C31" d="M679,190.8c7.4,0.8,8.3,2.2,7.3,9.9C683.5,197.5,682.8,193.4,679,190.8z" />
	<path fill="#271C1F" d="M594.1,245.8c0.6,1.1,1.1,2.1,1.7,3.2c-5.1-0.5-9.4-0.7-13.9-3.7C586.7,242.8,590.3,245.5,594.1,245.8z" />
	<path fill="#8990A1" d="M592.7,248.8c1.1,0.1,2.1,0.1,3.2,0.2c-0.6,4.4-3.6,9.5-7.6,11.7C588.3,256.2,594,253.8,592.7,248.8z" />
	<path fill="#555660" d="M540.3,221.8c2.5-3.3,3.3-7.3,7.4-9.2c-1.7,5.6-2.8,7.2-7.2,11.3C540.4,223.2,540.3,222.5,540.3,221.8z" />
	<path fill="#6A6E79" d="M592.7,199.1c2.7-2.2,5.4-4.5,9.3-7.8c-1.9,6-6.3,7.2-9.2,9.8l-0.7-0.3   C592.3,200.2,592.5,199.6,592.7,199.1z" />
	<path fill="#4B4C54" d="M586.8,205.5c-0.5-0.5-1.1-1.1-1.6-1.6c2.1-1.3,4.1-2.7,6.2-4c0.1,0.7,0.9,0.9,1.5,1.2   C590.8,202.6,588.8,204,586.8,205.5z" />
	<path fill="#888393" d="M588.3,260.6c0,1,0,2,0,3c-1.6,1.4-3.1,2.8-4.5,4.3c-0.4-0.4-0.8-0.8-1.2-1.2   C583.4,263.8,585.8,262.3,588.3,260.6z" />
	<path fill="#65646F" d="M531.6,247.3c0.2-3.7,3.1-5.5,5.4-7.7c0.4,0.1,0.6,0.3,0.8,0.6C537,243.7,534.5,245.6,531.6,247.3   C531.6,247.2,531.6,247.3,531.6,247.3z" />
	<path fill="#565862" d="M531.3,226.9c0.3,3.2,0.5,6.3,0.9,11.1C529.2,233.5,530.3,230.2,531.3,226.9z" />
	<path fill="#A2A3B4" d="M539.2,225c-0.2,2.6-1.6,4.2-4.4,5.5c0.3-3.2,2.4-4.3,4.2-5.7L539.2,225z" />
	<path fill="#8E96A6" d="M521.4,226.2c0.9,0,1.7,0.1,2.6,0.1c0,2.1,0,4.3,0,6.4c-0.2,0.1-0.5,0.1-0.7,0.2   C522.7,230.6,522,228.4,521.4,226.2z" />
	<path fill="#8D8594" d="M571.9,253.2c-1.5,1-3,1.9-4.5,2.9c0.1-2.9,1.5-4.5,4.5-4.5C571.9,252.2,571.9,252.7,571.9,253.2   L571.9,253.2z" />
	<path fill="#42181B" d="M572.6,240c2.8-0.1,3-0.2,5,1.2C575,243.1,574.4,241.5,572.6,240z" />
	<path fill="#A2A3B4" d="M540.3,221.8c0.1,0.7,0.1,1.4,0.2,2.1c-0.4,0.4-0.9,0.7-1.3,1.1c0,0-0.2-0.2-0.2-0.2   C539.4,223.8,539.8,222.8,540.3,221.8z" />
	<path fill="#6A6672" d="M530.1,250.1c-0.4-0.3-0.7-0.5-1.1-0.8c0.4-0.2,0.8-0.5,1.2-0.7C530.3,249.2,530.3,249.7,530.1,250.1z" />
	<path fill="#371A1D" d="M592.2,200.8c-0.4-0.1-0.7-0.4-0.8-0.9c0.4-0.3,0.9-0.6,1.3-0.8C592.5,199.6,592.3,200.2,592.2,200.8z" />
	<path fill="#B6BCD4" d="M571.9,253.2c0-0.5,0-1-0.1-1.6l0,0.1c0.5,0,1-0.1,1.5-0.1C572.8,252.1,572.3,252.7,571.9,253.2z" />
	<path fill="#4B4C54" d="M582.2,208.2c0.5-0.4,1.1-0.8,1.6-1.1C583.3,207.5,582.8,207.8,582.2,208.2z" />
	<path fill="#4B4C54" d="M585.2,206.5c0.5-0.3,1-0.6,1.5-0.9C586.2,205.9,585.7,206.2,585.2,206.5z" />
	<path fill="#8D8594" d="M573.2,251.6c-0.5,0.1-1,0.1-1.5,0.1c0.2-0.4,0.5-0.7,0.7-1.1C572.7,250.9,573,251.3,573.2,251.6z" />
	<path fill="#7B6B76" d="M530.1,248.8c0-0.5,0-1,0-1.5c0.5,0,1,0,1.5,0c0,0-0.1-0.1-0.1-0.1C531.1,247.7,530.6,248.3,530.1,248.8z" />
	<path fill="#E9C9BA" d="M200.5,323.3c2.6,0,5.2,0,7.8,0c-0.3,0.5,0.1,1,0.2,1.5c-2.1-0.6-4.2-1.1-7.8,1.5c3.8-0.5,6.3,1.6,8.2-1.7   c3.6-0.3,23.6,1.5,20-4.4c3.8-2,8-3,12-4.4c0.2,1.9,1.9,1.4,3,1.8c-1.6,13.2-51.3,12.8-59.6,8.6c2.3,0,6.8,0.8,5.9-2.9   C192.2,327,199.1,328.3,200.5,323.3z" />
	<path fill="#ECCCBD" d="M98,326.2c2.6-3,3-6.9,4.3-10.4c1.1,0,2.2,0.1,3.3,0.1c-0.4,0.7-0.9,1.5-1.5,2.5c6.3,0,8.4,2.5,15,1.7   C112,325.3,105.3,326.8,98,326.2z" />
	<path fill="#EEC9B9" d="M287.3,342.2c0.4,1.1,0.9,2.3,1.3,3.4c-6.6-1.6-11.9-3.1-16.9-8.3c1-0.9,1.6-1.5,2.2-2   c2.3,3.3,3.4,3.3,5.3,0.2C282.2,337.2,284.6,339.9,287.3,342.2z" />
	<path fill="#3D312D" d="M229,320.2c3.6,4-9.4,4.8-11.9,4.3c0-0.5,0-1,0-1.5c3.3-2.5,7.4-0.3,10.8-2.6   C228.3,320.6,228.7,320.5,229,320.2z" />
	<path fill="#28211F" d="M258.1,295.1c2.6,0.1,5.7-0.8,8.1-0.3c1.5,2.7,4,1.2,6.1,1.5l0,0c0.3,1.5,1.4,1.6,2.6,1.6   c0.3,0.4,0.5,0.9,0.6,1.3c-1.4,0.1-2.9,0.2-4.3,0.2C267.3,296.8,262.3,297.3,258.1,295.1z" />
	<path fill="#171E1C" d="M287.3,342.2c-2-1.8-4.1-3.6-6.1-5.5c4.6-0.9,7.2,2.2,9,6C289.3,342.5,288.3,342.4,287.3,342.2z" />
	<path fill="#3E3330" d="M300.7,311.9c-2.9,3.3-5.7,2.5-8.8,2C294.4,311.5,296.9,310.5,300.7,311.9z" />
	<path fill="#3A332F" d="M200.5,323.3c-0.4,3.4-7.7,4.6-8.8,1.4C194.7,324.2,197.6,323.8,200.5,323.3z" />
	<path fill="#261C1A" d="M281.4,317.3c-2.4,0-4.5,0-7.1,0C279.4,314.1,279.4,314.1,281.4,317.3z" />
	<path fill="#503B38" d="M190.2,323.3c1,3.7-3.6,2.9-5.9,2.9C185.3,323.3,187.7,323.1,190.2,323.3z" />
	<path fill="#241C1C" d="M109.8,318.9c-1.7-0.1-3.4-0.3-5.7-0.4c0.7-1.1,1.1-1.8,1.5-2.5c1.8,0.5,3.5,1,5.5,1.6   C110.4,318.3,110.1,318.6,109.8,318.9z" />
	<path fill="#2C1A18" d="M267.7,341.1c-2.2,0.5-4.2-0.2-6-1.5c0.6-0.6,1.1-1.1,1.7-1.7C265.6,338.1,267.4,338.6,267.7,341.1z" />
	<path fill="#311B19" d="M217,323.1c0,0.5,0,1,0,1.5c-2.8,0.2-5.8-0.3-8.5,0.3c-0.2-0.5-0.5-1-0.2-1.5   C211.2,323.3,214.1,323.2,217,323.1z" />
	<path fill="#321413" d="M288.9,314.6c-1.6,2.6-3.3,2.7-5.3,2C283,315,284.6,314.3,288.9,314.6z" />
	<path fill="#4F1413" d="M279.2,335.4c-1.8,3.1-3,3.1-5.3-0.2C275.7,335.3,277.5,335.4,279.2,335.4z" />
	<path fill="#2E1E1D" d="M271.2,299.5c2.3-0.1,4.7-0.3,7-0.2C278.1,301.8,267.9,301.3,271.2,299.5z" />
	<path fill="#382221" d="M249.9,313.3c1.5-0.6,3.1-1.1,4.9-1.8c-0.2,4-3.1,2.5-4.8,3.1C249.9,314.2,249.9,313.8,249.9,313.3z" />
	<path fill="#83605A" d="M244,317.6c-1.1-0.4-2.8,0.1-3-1.8c1.6-0.4,3.1-0.8,4.7-1.2c0.5,0.5,0.9,0.9,1.4,1.4   C246,316.5,245,317.1,244,317.6z" />
	<path fill="#E9C9BA" d="M227.9,320.4c-2.4,1.7-5.2,1.1-7.8,1.2C222.2,319.5,225.1,320.5,227.9,320.4z" />
	<path fill="#0F0B0B" d="M181.7,326c-1.8,0-3.2,0-4.9,0C179.6,323.5,179.6,323.5,181.7,326z" />
	<path fill="#83645E" d="M263.5,337.9c-0.6,0.6-1.1,1.1-1.7,1.7c-0.9-0.9-1.9-1.8-2.8-2.7C260.6,336.5,262.2,336.6,263.5,337.9z" />
	<path fill="#352624" d="M247,316c-0.5-0.5-0.9-0.9-1.4-1.4c1.4-0.4,2.8-0.8,4.3-1.2c0,0.4,0.1,0.9,0.1,1.3   C249,315.1,248,315.5,247,316z" />
	<path fill="#B98881" d="M122.2,315.8c-1-0.1-1.9-0.2-2.9-0.3c0-0.3,0-0.6,0-0.9c1-0.1,2-0.2,3-0.2   C122.3,314.9,122.3,315.3,122.2,315.8z" />
	<path fill="#BCB1A7" d="M96.5,334.2c0.9-0.5,1.6-0.8,2.3-1.1C99.4,334.5,98.2,335.7,96.5,334.2z" />
	<path fill="#9B605C" d="M247.3,296.8c1.2,0,2.4,0,3.6,0c0,0.3,0,0.5,0,0.8c-1.2,0-2.4,0-3.6,0C247.3,297.3,247.3,297,247.3,296.8z" />
	<path fill="#584F4A" d="M264.7,300.5c-1.3,0-2.6,0-3.9,0c0-0.3,0-0.6,0-0.8c1.3,0,2.6,0,3.9,0C264.7,299.9,264.7,300.2,264.7,300.5   z" />
	<path fill="#5775E7" d="M343.5,332.1c0.1-4.5,0.5-8.9,4.5-12c21.2,0.4,41.6-7.9,62.8-8.6C389.4,321.2,365.6,325.1,343.5,332.1z" />
	<path fill="#14162B" d="M497.3,308.3c0-0.5,0-1.1,0-1.6c2.3-2.5,4-4.6,6.2-7.5c1.1,1.1,1.8,1.9,2.7,2.8c-0.8,1-1.4,1.8-2.2,2.8   c1.5,0.7,2.9,1.3,5.2,2.3c-1.2,0.8-1.9,1.1-2.6,1.5C503.5,308.6,500.4,308.8,497.3,308.3z" />
	<path fill="#121427" d="M498.6,292c1.6-1.8,2.8-3.1,4-4.4c3.1,1.1,1.5,5,3.7,7.3c-0.6,0.6-1.3,1.1-2.1,1.9   C502.4,295.3,500.8,293.9,498.6,292z" />
	<path fill="#22294F" d="M384,332.1c-3,2.3-5.5,5.3-11.2,6c4-3.2,6.8-5.3,9.6-7.5C383,331.1,383.5,331.6,384,332.1z" />
	<path fill="#2F3F7B" d="M485.5,299.5c-2.2,1.9-5.6,2.4-8.2,3.7c-1.4-3.3,4.7-3.6,6.6-5.3C484.4,298.5,485,299,485.5,299.5z" />
	<path fill="#131427" d="M485.5,299.5c-0.5-0.5-1-1.1-1.6-1.6c1.6-1,3.1-2,4.6-3C491.2,297.5,487.1,298.4,485.5,299.5z" />
	<path fill="#253261" d="M496.8,298.2c0.2,1.5,0.4,3,0.7,5.1C495,300.6,495,300.6,496.8,298.2z" />
	<path fill="#29305E" d="M384,332.1c-0.5-0.5-1-1-1.6-1.5c1-1.2,1.4-3.2,3.8-2.5C386.3,329.9,385.7,331.3,384,332.1z" />
	<path fill="#213051" d="M500,308.6c2.2,0,4.4,0,6.7,0c-0.2,0.4-0.3,0.8-0.3,1.2C504.2,309.5,501.8,310.6,500,308.6z" />
	<path fill="#5B5F6B" d="M561.4,290.5c4.4-4.4,7.5-11.4,13.5-13.5C572.1,282.6,567,288.7,561.4,290.5z" />
	<path fill="#535560" d="M596.1,277.5c1.5-6.9,3.2-10.3,6.8-13.9C601.8,269.1,600.8,273.7,596.1,277.5z" />
	<path fill="#6B6673" d="M574.8,277c0.2-4,5.1-6,7.5-9C582.1,272,578.1,275,574.8,277z" />
	<path fill="#696572" d="M582.5,266.8c0.4,0.4,0.8,0.8,1.2,1.2c-0.4,0.2-1.1,0.3-1.4,0.2C582.2,267.7,582.3,267.2,582.5,266.8z" />
	<path fill="#5B5F6B" d="M561.4,292c-1.5-0.6-1.3-1.1,0-1.6C561.4,290.9,561.4,291.4,561.4,292z" />
	<path fill="#28292E" d="M518.4,273.8c-0.2,1.7-0.7,3.5,1.1,4.8c0,4.4,1.5,9.3-1,13.2c-0.6-14.3-7.7-30.1-3.5-44.1   C515.7,256.5,516.8,265.3,518.4,273.8z" />
	<path fill="#464851" d="M531.8,270.9c1.8,8.2,2,16.6-1,25.2C528.9,287.4,532.7,279.6,531.8,270.9z" />
	<path fill="#484A54" d="M518.4,291.8c1.3-1.8,1.4-3.9,1.4-6.1c2.2,6.7,2,10.1-1.4,13.8C518.4,296.6,518.4,294.2,518.4,291.8z" />
	<path fill="#7C8293" d="M552.2,284.5c0.5,0,1.1,0,1.6-0.1c-0.7,2.6-1.1,5.3-2.8,7.5c-0.5,0-1.1,0-1.6,0   C550.3,289.4,550.7,286.7,552.2,284.5z" />
	<path fill="#2E1E1D" d="M272.4,296.3c-2.1-0.3-4.6,1.2-6.1-1.5C268.4,294.8,270.6,294.8,272.4,296.3z" />
	<path fill="#2E1E1D" d="M274.9,297.9c-1.2,0-2.3-0.1-2.6-1.6C273.5,296.3,274.9,296.1,274.9,297.9z" />
	<path fill="#B7BCD4" d="M519.8,251.4c2,5.3,2.3,13.3,0,18.4C519.8,263.7,519.8,257.5,519.8,251.4z" />
	<path fill="#B7BCD4" d="M518.4,273.8c0-0.9,0-1.8,0-2.7c0.4,0,0.8,0,1.2,0C519.6,272.2,520,273.4,518.4,273.8z" />
	<path fill="#344A91" d="M489.8,226.3c-0.2,0.3-0.5,0.6-0.7,0.9C489.1,226.7,489.5,226.6,489.8,226.3   C489.9,226.4,489.8,226.3,489.8,226.3z" />
	<path fill="#251414" d="M92.1,305.1c1.7,0.8,3.5,1.5,5.1,2.2c-0.4,5-4.7,0.6-6.8-0.5C90.9,306.2,91.5,305.7,92.1,305.1z" />
	<path fill="#62585B" d="M78.5,296c3.5-0.3,5.7,0.9,5.8,5.3C81.9,299.1,80.2,297.5,78.5,296z" />
	<path fill="#77686B" d="M92.1,305.1c-0.6,0.6-1.1,1.1-1.7,1.7c-2-0.6-3.2-1.9-4.3-4.3C88.6,302.9,90.5,303.4,92.1,305.1z" />
	<path fill="#C3831E" d="M67.9,219c0.1,0.4,0.2,0.9,0,1.3c-0.9-0.1-1.8-0.1-2.6-0.2C65.7,218.7,66.9,218.9,67.9,219z" />
	<path fill="#171212" d="M112.7,299.5c-1.1-1.5-3.3-2.3-3.1-4.7c1.6,1,3.2,2,5.3,3.3C113.8,298.8,113.3,299.2,112.7,299.5z" />
	<path fill="#171212" d="M109.9,295c-0.5,0-0.9-0.1-1.3-0.2C109.2,293.8,109.5,294.4,109.9,295z" />
	<path fill="#544B47" d="M666.9,469.2c1.1-11.9,2-23.8,2-35.8c2-1.1,1-3.2,1.5-4.7c3.8,12.3-0.8,26.3-0.3,39.1   c-2.8,1.3-1.2,5.2-1.6,7.6C667.9,473.4,666.7,471.4,666.9,469.2z" />
	<path fill="#0C0A0A" d="M668.5,475.5c0.5-2.5-1.1-6.3,1.6-7.6c4.8,10.1,6.2,18.4,4,25.4c-0.8-0.6-1.6-1.1-2.4-1.6   C670.4,486.3,669.5,480.9,668.5,475.5z" />
	<path fill="#2D2624" d="M659.5,356.5c0.4,5.9-1.1,12.4,2,18.7c0.1,0.5-0.8,1.3-1.4,2.3c-2.9-3.4-4.2-5.4-7.8-7.6   c-0.1-1.7-0.2-3.5-0.3-6.3c1.7,1.7,2.8,2.7,4.3,4.3c0.3-4.2,0.6-7.7,0.9-11.4C658.1,356.5,658.8,356.5,659.5,356.5z" />
	<path fill="#2A2421" d="M655.3,409.7c0.4,1.4,0.9,2.8,1.3,4.2c-2.2,6.3-1.9,12.7-0.9,19.2c-0.6,0.7-1.1,1.3-1.7,2   c-4.2-8-1.2-16.8-0.1-25.2C654.2,409.7,655,409.6,655.3,409.7z" />
	<path fill="#423935" d="M654.1,240.9c0.5-0.4,1-0.9,2-1.8c1.6,8.6,2.5,15.5-1.2,23.3C649.9,261,659,246.4,654.1,240.9z" />
	<path fill="#FBDFD3" d="M668.5,475.5c0.6,4.6,2.3,9,1.4,13.7c-4.4-5.8-5.3-11.9-3-18.2C667.5,472.4,668,473.9,668.5,475.5z" />
	<path fill="#312724" d="M665.8,314.2c-2.2-5.3-5.4-10.3-4.5-16.3l-0.1,0.1c0.7,0.2,1.4,0.4,2.3,0.7   C663.9,303.3,669.8,310.7,665.8,314.2z" />
	<path fill="#615853" d="M665.8,314.2c1.7-0.4,1.3-1.9,1.5-3.1c3.1,4.3,5.7,9.8,8.9,14.5c-0.1,0.8-0.3,1.6-0.4,2.4   C671.4,324.3,670.4,318.1,665.8,314.2z" />
	<path fill="#4C413C" d="M654,434.9c0.6-0.7,1.1-1.3,1.7-2c1.9,4.4,1.3,17.4,0.6,22.7C653.5,449.2,656.5,441.8,654,434.9z" />
	<path fill="#594C47" d="M659.8,303.8c-2.3,1.7-2.9,5.1-6,6.1c-0.1-3.7,2.3-6.1,5-9.3C659.3,302.3,659.5,303.1,659.8,303.8z" />
	<path fill="#AA9085" d="M662.4,466.7c0.1,2.1,0.2,4.2,0.3,7C660.4,471.4,657.8,466.6,662.4,466.7z" />
	<path fill="#BEA39A" d="M655.3,409.7c-0.4,0-1.1,0-1.4,0.1c-0.6-1.1-1.2-2.1-1.8-3.2c0.2-0.6,0.3-1.3,0.6-2.3   C655.9,405.2,655.2,407.6,655.3,409.7z" />
	<path fill="#8D766D" d="M661.4,297.9c-0.9-0.2-1.7-0.4-3.2-0.7c0.9-1.5,1.6-2.6,2.8-4.7C661.1,295.3,661.2,296.6,661.4,297.9   L661.4,297.9z" />
	<path fill="#453A36" d="M647.9,324.8c-0.8,0.4-1.7,0.8-3.3,1.5c0.9-2,1.5-3.3,2.7-6.2C647.6,322.7,647.8,323.7,647.9,324.8   L647.9,324.8z" />
	<path fill="#BF9D91" d="M659.8,347c0,0.6,0,1.1,0,1.7c-1.3-0.2-3.1,0.2-2.5-2.4C658.2,346.5,659,346.8,659.8,347z" />
	<path fill="#97857E" d="M652.5,396.4c1.2,1.2,2.1,4.9-0.5,2.9C652.2,398.3,652.4,397.4,652.5,396.4z" />
	<path fill="#A99085" d="M659.8,287.5c0.5,0,1,0,1.5-0.1c-0.1,0.8-0.3,1.7-0.4,2.5c-0.2,0-0.5,0-0.7,0   C660.1,289.1,659.9,288.3,659.8,287.5z" />
	<path fill="#55564F" d="M659.5,459.4c-0.3,0.1-0.6,0.2-0.9,0.3c0-0.6-0.3-1.4,0.5-1.6C659.2,458.6,659.4,459,659.5,459.4z" />
	<path fill="#604742" d="M650.8,315.8c-1.6-0.5-1.8-1.3-0.3-3.1C650.6,314,650.7,314.9,650.8,315.8L650.8,315.8z" />
	<path fill="#82746E" d="M659.7,351.6c0,1,0,2,0.1,3C657.9,353.4,657.9,353,659.7,351.6z" />
	<path fill="#66433F" d="M653.9,309.8c0,0.6,0,1.1-0.1,1.7c-0.4-0.4-0.8-0.8-1.1-1.2C653.1,310.1,653.5,309.9,653.9,309.8z" />
	<path fill="#2A2C31" d="M601.8,251.6c-1.5-1.1-3-2.2-5.2-3.9c4.4-0.3,7.1,1.4,11.3,3.2c-2.4,0.5-3.6,0.8-4.8,1   C602.7,251.6,602.3,251.5,601.8,251.6z" />
	<path fill="#A7830F" d="M41.6,156.4c-0.2-1.6-0.8-3.4,1.1-4.5C42.7,153.4,43.3,155.2,41.6,156.4z" />
	<path fill="#F3BF10" d="M57.8,185.4c0.1-1.2,0.1-1.9,0.2-2.9c2.5-1.5,5.1-0.8,7.7-0.6c0.9,1.8,0.8,3.2,0.5,5   C62.6,188.4,60.5,185.6,57.8,185.4z" />
	<path fill="#250904" d="M66.4,216.2c-2.1,2.3-4.7,0.9-7,1.1C60,214.2,64.2,216.4,66.4,216.2z" />
	<path fill="#E8C5B6" d="M674.5,384.4c-4-6-13.7-12.6-8.2-20.4c4.8,2.5,9.6,4.8,9.9,11.3c-2.2-2-4.4-4.1-6.8-6.2   C666.3,374.9,676.8,377.8,674.5,384.4z" />
	<path fill="#26201E" d="M674.5,384.4c2.3-6.6-8.2-9.4-5-15.4c4.3,3.7,8.1,7.5,11.4,12.2c-0.1,0.6-0.2,1.2-0.2,1.8   c-0.9-0.2-1.7-0.5-2.5-0.7c-2.6,2.1,0.3,4.4-0.5,6.6c-1.7,1.8-1.5,4.1-1.6,6.4C674.3,391.8,674.6,388.1,674.5,384.4z" />
	<path fill="#292422" d="M665.7,409.5c-8.5-3.3-10-14.7-2.9-21c-0.7,8.4-0.3,13.6,2.8,21.1L665.7,409.5z" />
	<path fill="#2D211F" d="M661.6,210.9c3.3,6.5-7.3,21.5-14.1,21.9C652,224.6,659.5,219.9,661.6,210.9z" />
	<path fill="#4A423F" d="M679.4,396c2.9,4.1,2.7,8.7,2.8,14.5c-5-2.9-1.9-7.1-4.5-11.2C679.5,398.8,678.9,397.1,679.4,396z" />
	<path fill="#3C3331" d="M670.4,428.7c-0.5,1.6,0.6,3.6-1.5,4.7c-1.3-4-3-7.9-0.9-12.9C669.1,423.6,670.2,426,670.4,428.7z" />
	<path fill="#110E0E" d="M679.4,396c-0.5,1.1,0.1,2.8-1.7,3.3c-1.8-3.2-2.8-7.3-0.2-10.4C678.2,391.2,678.8,393.6,679.4,396z" />
	<path fill="#87736D" d="M698.6,508c2.2-2.6,5.7,0.5,8.5,0.8c0.1,0.7,0.2,1.4,0.2,2.1C703.8,511.7,701.3,509.6,698.6,508z" />
	<path fill="#211A19" d="M675.9,328c0.1-0.8,0.3-1.6,0.4-2.4c1.9,1.8,5.8,6.8,0,6.2C676.2,330.7,676,329.4,675.9,328z" />
	<path fill="#B8A098" d="M675.4,497.4c3,1.1,2.9,3.4,3.6,5.2C675.8,505,676.1,499.7,675.4,497.4z" />
	<path fill="#90857E" d="M668.6,411.1c0,1.4,0,2.7,0,4.3c-3.2-1.3-2.7-3.7-2.9-5.8l-0.1,0.1c0.4-0.1,0.9-0.1,1.3-0.2   C667.5,410,668,410.5,668.6,411.1z" />
	<path fill="#7E6C66" d="M680.6,383c0.1-0.6,0.2-1.2,0.2-1.8c1.3,1.2,2.6,2.5,4.3,4C682.1,386.4,681.4,384.6,680.6,383z" />
	<path fill="#594845" d="M668.6,411.1c-0.5-0.5-1.1-1.1-1.6-1.6c0.2-0.8,0.4-1.6,0.6-2.4c0.3,0,0.7,0.1,1,0.1   C668.6,408.5,668.6,409.8,668.6,411.1z" />
	<path fill="#AE8E86" d="M697,505.1c0,0.4,0,0.9,0,1.3c-1.1,0-2.3,0-3.4,0c0-0.3-0.1-0.6-0.1-0.9C694.7,505.4,695.8,505.2,697,505.1   z" />
	<path fill="#503835" d="M709.2,510.9c0.5-1.6,1.4-1,2.6-0.6c-0.5,0.4-1,0.8-1.4,1.2C710.1,511.1,709.7,510.9,709.2,510.9z" />
	<path fill="#312927" d="M711.8,478.6c-1,0.4-2.1,0.9-3.1,1.3c-2.3-1.2-4.7-2.3-7-3.5c1-0.4,1.9-0.9,2.9-1.3   C707,476.3,709.4,477.4,711.8,478.6z" />
	<path fill="#8F6E68" d="M704.6,475.1c-1,0.4-1.9,0.9-2.9,1.3c-1.1-0.9-2.1-1.8-3.2-2.7c0-0.4-0.1-0.8-0.2-1.2   C700.4,473.4,702.5,474.3,704.6,475.1z" />
	<path fill="#443C39" d="M698.4,472.5c0.1,0.4,0.2,0.8,0.2,1.2c-2.6-0.1-5.6,0.8-7.5-1.5C693.5,472.3,695.9,472.4,698.4,472.5z" />
	<path fill="#1D2825" d="M208.6,324.8l0.4-0.2c-1.9,3.3-4.3,1.2-8.2,1.7C204.3,323.7,206.4,324.2,208.6,324.8z" />
</g>
</svg>