<?xml version='1.0' encoding='utf-8'?>
<svg xmlns="http://www.w3.org/2000/svg" version="1.2" baseProfile="tiny" id="Layer_1" x="0px" y="0px" viewBox="0 0 900 600" overflow="visible" xml:space="preserve">
<g id="b_00000010292604338991496420000011834404174812260229_">
	<path display="inline" fill="#020101" d="M515.1,323.5c2.8,8.4-8.9,7.6-14.1,6.6c-2.4,2.7-2.9,6.3-4.4,9.5   c24.9,8.7,16.6,19.5,13.5,40.7c-3.6,15.6-1.7,31.6-5.4,47.2c-0.2,3,4.8,11.6,1,12.7c-14.5-2-28.7-5.9-43-9c-5.9,3-12.1,5.5-16,11.4   c7.1,3.2,16.6,4.3,20.7,11.6c-0.2,0.8,0.3,1.8-0.8,2.2c-5.7-10.5-34.9-16.8-46.9-20.7c1.4,14.6-5.2,27.2-10.1,40.5   c10.5-3.3,23.5-2.2,31-10.5c0.1,0.8,0.2,1.4,0.3,2.1l0,0c-6.9,8.5-16.5,14.8-21.9,24.8c0.5,0.7,1.2,1.2,2,1.5   c-1.2,0.3-2.3,0.5-3.5,0.8c-0.7-0.5-1.4-1-2.1-1.4c4.9-7.3,11.3-13.4,16.7-20.2c-8.5,0.8-15.4,4.2-23.7,5.8   c-1.3,6.9-3.8,13.5-3.3,20.7c1.5,1,2.1,1.4,1.1,2.9c-0.5-0.2-1-0.4-1.4-0.7c-5.4-22.7,17.1-47.9,13.7-71.9   c10.2-13,15.2-29.3,23.9-43.4c0.3,0.3,0.6,0.7,1,1c-0.4,1.3-0.9,2.5-1.3,3.9c16-2.7,20.9-20.5,19.5-34.8c-1.1-0.6-2.2-1.1-3.5-1.8   c1.5-0.1,2.5-0.2,3.6-0.2c0-5.2,0.2-10-0.6-14.9c0,0,0,0,0,0c0.2,0,0.5,0,0.7,0c6.1,18.9,3.5,49.1-19.7,54.4   c-0.7,0.2-1.4,0.1-1.5,1.1c-2.8,5.7-6.3,11.3-8.9,16.9c3.4,10.8,36.6,15.9,43.6,7.5c-0.2-0.9-0.4-1.6-0.6-2.3   c24.9,1.5,18.6-16.8,26.1-32.8c-1.3-13.9-0.4-28.8-4.3-41.9c-0.4,0.9-0.7,1.6-1.1,2.3c2.9,10.5,2.7,21.2,0.4,31.7   c-1.8-6-0.1-13.6-0.6-20c-0.5-0.4-0.9-0.8-1.4-1.2c1.3-0.8,0.8-1.9,0.6-2.9c0.2-1.1,0.3-2.2-0.2-3.2c-1.3,0.5-1.2,1.5-1.3,2.4   c-3.7-6.3,3.9-15.8,5.7-22.7c4.8-1.8,10.1,0.9,14.5-1.5c2.6-2.5-1.2-4.6,0.5-6.3C514,322.1,514.5,322.8,515.1,323.5z M423.2,427.8   c-1.3,1.7-4.3,3.2-3.1,5.8c19.2,5.8,30.1,3.8,47.3-7.6c-14.8,0.1-25.5-0.4-37.4-11.1C427.7,419.1,426.2,423.9,423.2,427.8z    M489.5,431.5c-0.5-1-1.1-2-2.1-2.8c-1.1,1.6-1.1,3.3-1.1,5.2c6.4,1.1,12.1,3,18.6,4.5c-1-5.2-4.1-10.2-1.6-15.2   c1.7-13.5,1.4-27.4,4.1-40.9c2-13.2,11.2-35.8-8.6-38.7c1.5,13,4.4,25.8,3,38.9c1.4-2.1,2.7-3.9,4.2-6.1c0.4,5-4.5,8.7-5.1,13.7   c-1.1,10.7-2.7,21.9-12.7,28.1c-0.1,4.4-1.3,8.6,1.9,12C490.5,431.4,490.5,431.4,489.5,431.5z M477.9,419.5   c-3.7,4.4-8.7,6.2-12.4,10.3c6.3,1.1,12.4,2.3,18.7,3.4c0.1-4.8,1.5-9.2,0.9-13.7C482.5,419.5,480.2,419.5,477.9,419.5z    M440.4,439.7c1.4,0.8,2.7,1.7,3.9,1.8c1.3-1.3,2.4-2.4,3.6-3.6C445.7,437,442.1,438.3,440.4,439.7z" />
	<path display="inline" fill="#020101" d="M447.4,281.5c1.5-8.2,9.8-6.5,16.2-6.1c6-6.9,14.9-11.7,24.4-9.4c0.5,0.5,1,1,1.5,1.5   c0,0.2-0.1,0.4,0,0.7c-3.8,0.5-8.9-1.3-12,0.7c-2.4-0.3-4.6,1.3-5.8,3.5c2.1,0.4,3.9,0.3,5.7,0.9c-2.5,1.3-5.2,0.5-8,0.7   c-2.1,2.1-5.9,4.2-5.4,7.7c-3.2,1.7-1.8,5.4-2.8,8.5c1,0.6,1.9,1.1,2.8,1.6c0,0.5,0.1,1,0,1.4c-0.9-0.3-1.9-0.5-3.2-0.9   c0.5,1,0.7,1.6,1,2.3c-0.4,0.4-0.8,0.7-1.3,1.1c-0.3,3.4,1.5,6.6,3.6,9.3c-0.4,0.8-1.3,1.8-0.1,2.3c0.4,1.9,1.4,3.9,3.5,4.3   c0.1,0.2,0.1,0.4,0.2,0.6c-0.4,0.7-1.3,1.7-0.2,2.3c0.9,1.1,0.7,2.9,2.3,3.6c0.3-0.3,0.5-0.6,0.7-0.8l-0.1,0.1   c1.4-0.1,2.9,0.7,4.3,0l0-0.1c0.2,2.2-1.9,2.7-3,3.5c0.3,5.4,0.6,10.7-4.3,14.1c3.6,6.8,2.4,15.1,4.4,22.4c2.6,0.7,4.9,1.3,7.3,1.9   c-0.5,0.3-1,0.5-1.5,0.8c-1.8-0.2-3.6-0.5-5.3-0.7c1,12.4-6.9,27.6,1.8,38.4c0.3-2.2-0.8-4.5,0.8-5.8c1.1,1.6,2.3-0.7,3.8,0   c-0.8,1-1.7,1.9-2.6,2.9c-0.1,1.2-0.1,2.5-0.2,3.9c5.5,1.5,10.1-3.4,13.9-6.8c0.2,0.3,0.5,0.5,0.7,0.8c-4,6.6-10,9.5-17.8,8.3   c-12.2-8.3,1.8-46.7-8.2-65.4c-1.2,0.4-2.3,0.8-3.4,1.1c0.3,1.2,0.4,2.2,0.3,3.4l0,0c-0.2,0-0.4,0-0.6,0c-0.5-0.9-0.9-1.9-1.5-3   c-8,0.3-13.6,6.6-20.1,10.6l0,0c-2.8,1-4.8,3.2-7,5.1c0-0.7-0.1-1.4,0.1-2l0,0c0.3-0.2,0.5-0.4,0.8-0.7c0,0,0,0,0,0   c0.2-0.2,0.5-0.5,0.7-0.7l0,0c5.3-5.3,11.2-9.7,18.1-12.8c3.3-10.3-5.7-20-3.3-29.3c2.3,5.4,2.8,11.6,5.6,16.7   c0-1.6,0.6-3.2-0.5-4.7c-0.2-2.2,0.1-4.2-0.8-6.3c0.4,0,0.8,0.1,1.3,0.1c1.8,7.8,1.1,15.4,2,23.2c1.9-4.5-0.2-8,1.7-11.9   c0.2,3.4-0.2,7.1,0.4,10.4c1.4-5.2-1-11.5,0.9-16.7c0.4,1.4-0.3,3,0.7,4.4c0.3,4,0.4,7.9,0.3,11.9c2.3-0.2,2.3-0.2,4.6-1.4   c-1.5-3.3,1.1-5.9-0.4-9.3c-0.6,0.6-1.1,1-1.5,1.4c-4-14.7-13.3-32.3-0.8-44.9l0,0c3.9-4-4.5-3.8-6.9-3.4c-2.8,0.1-5.4,4-6.4,6.4   l0,0C447.5,282.8,447.5,282.1,447.4,281.5z M466.5,317.2c-0.2-0.8-0.2-1.6-1.3-2c0.2,2.4-0.3,4.9,1,7c1-0.6,0.3-1.5,0.3-2.4   C467.2,319,467,318.1,466.5,317.2z M462.4,312.3c0.1,0.3,0.2,0.7,0.4,1.4c-0.6-7.8-4.8-14.8-4.3-23   C457.6,298,458.1,306.2,462.4,312.3z M468.5,322.4c-3.5,1.6-1.7,6.4-0.8,9.2c2.2-0.8,1.6-2.7,1.7-4   C469.5,325.9,470.2,323.9,468.5,322.4z" />
	<path display="inline" fill="#020101" d="M431.8,351.2c-10.1,20-17.7,40.8-24.2,62.6c-1.1-0.5-0.5-1.6-0.8-2.3   c0.6-3.1,1.3-6.1,2-9.6c-6.2,6.2-12.9,10.5-20.8,14.2c4,4.2,9.8,5.5,12.5,10.5c-0.9,1.8-3.2,0-4.3-0.7l0,0c-0.2-0.5-0.4-1-0.7-1.5   l0,0c-3-2.3-6.6-3.9-9.8-5.9c-0.3-0.6-0.5-1.2-0.8-1.9c-14.5,6.7-33.7,31.1-21.5,46.3c-2.1-4.5,14.4-20.9,19.2-21   c0,0.4,0,0.7,0,1.1c-25.4,18.8-22.6,28.7,8.5,31.7c1.1-14.1,4.6-27.4,7.2-41.2c-5.1,0.1-8.5,4.5-12.7,6.8c-0.4,0-0.7-0.1-1.1-0.1   c3.6-4.8,8.6-7.6,14.1-9.6c-1.1-1.3-3.1-1.7-4.5-2.6c2.6-2,3.9,1.2,6.4,1.5c0.2-0.2,0.5-0.5,0.7-0.7l0,0c1.6,0.4,5.1,2.7,2.8,4.2   c-0.8-0.5-1.6-1.1-2.6-1.9c-0.6,1.5-1.1,2.9-1.5,4.1c0.8,2.1,0.8,2.1,0.5,3.3c-1.9,6.9-3.2,14-4.8,21c-4.9,21.7-3.2,44.5-5.6,66.3   c1.6,1.2,2.9,2.1,4.3,3.1c-0.2,0.3-0.4,0.5-0.8,0.9c-1.6-1-3.2-2-4.9-3c0-16.1,1.1-32.6,2.1-49c-25.2-2.8-42.6-15.9-29.7-42.5   c9.4-16.7,28.4-21.9,42.7-33c15.3-12.1,12.8-37.1,26.7-50.9C430.9,351.3,431.4,351.2,431.8,351.2z" />
	<path display="inline" fill="#020202" d="M481.6,537.5c-0.5,0.2-1.3,0-1.2,0.9c3.5,0.9,3.5,0.9,5.8,4.3c5.4,9,14.6,14.5,23.8,19.1   c-0.5,0.2-1,0.5-1.5,0.7c-2.8-1-5.7-2.2-8.4-3.3c-0.4-0.5-0.8-1.1-1-1.5c-1.4-0.3-2.7,1-3.9-0.3c0.4-1,0.6-1.2,1.3-2.2   c-2.9-0.1-5,2.4-7.6,1.2c-0.7-2.5,2.2-2.5,3.9-3.6c-3.4-2.3-6.4,1.2-9.4,1.1c-1.7-3,3.6-3.2,5.3-4.5c-1-1.2-1.7-2.3-3-2.8   c-2.8,0.7-4.9,2.7-7.3,4.1c-0.3-0.4-0.5-0.6-0.8-0.9c1.3-2.5,4-3.3,6.1-4.9c-0.8-1.3-1.6-2.5-2.3-3.7c-7.5-0.3-15.5,20.1-23.6,2.9   c-0.1,3.4-1,5.6-1.9,8.6c-0.8,0.2-1.4,0.4-2.1,0.5c-3.1,4.9-1.3,11.2-3.9,16.5c7.2,7.7,18.5,0.9,27.2,3c13.2,4.4,29.2,5.5,40.9-2.6   c0.1,0.9,0.2,1.8,0.3,2.6c-11.9,7.7-28.1,6.1-41.2,2.2c-9.4-1-23,4.4-29.5-4.9c1.5-4.4,2.7-8.4,2.6-12.9c4.1-6.7,5-14.4,9.1-21.1   c0.6,0.1,1.3,0.3,2.3,0.5c4.6-8.4,8.3-17.8,10.3-26.8c1.4-0.2,1.3-1.6,2-2.8c-0.2,9.4-4.8,18.7-9,27c0.3,0.6,0.5,1,0.7,1.4l0,0   c-1.2,0.4-0.8,1.3-0.8,2.1c-0.6,2.4-1,4.8-0.2,7.2c0,0.2-0.4,0.5-0.6,0.6c-1.7-0.4-0.7-2.8-2.5-3.3c-1,2.2,0.2,4,0.8,6.1   c17.2-0.5,19.8-23.5,30.2-34.3c2.8,1.2-9.2,15.8-10,19.9c-0.9,0.5-0.5,1.4-0.7,2.1c-0.6,0.3-0.6,0.5,0,0.8   C481.6,537,481.6,537.3,481.6,537.5z" />
	<path display="inline" fill="#030302" d="M446.1,583.7c8.2,20.1-28.4,17.9-39.3,13c-8.8-3.3-20.5-0.8-27.2-8.7   c1.1-3.7,1.4-7.5,3.5-10.7c-1.9-3.3,0.7-13.5,3.1-16.4c0.3,0.3,0.7,0.7,1,1c-2.3,8.7-2.3,17.4-4.9,26c4.4,2.6,9.2,4.1,14.4,4.4   c11.7,2.1,22.9,6.4,35.1,3.4c1.9-3.7,6.5-5.8,10.6-5.2c-1.2,4-5.4,1.9-8.1,4.5c4.3-0.2,8.9,0.3,11.5-3.4   C445.3,588.8,444.8,586,446.1,583.7z" />
	<path display="inline" fill="#050403" d="M419,544.6c-2.7,2.9-3.8,6.7-5.6,10.2c0.8,0.4,1.5,0.7,2.1,1c2.3,10,10.5,16.1,19.1,20.8   c-1.1,1.5-6.1,4.4-6.4,1.3c0.7-0.3,1.4-0.7,2.2-1c-2.1-2.1-5.5,1.3-8,0.8c-1.9-2.4,1.1-2.5,2.5-3.4c-2.6-1.7-9.4,2.9-9.4-1.1   c1.8-1.6,4.9-0.6,6.4-2.4c-0.4-0.4-0.8-0.7-1.1-1c-3.7,0.3-7.7,2.5-11.1,1.5c0-3.7,6.7-1.9,8.5-4.3c-0.2-0.3-0.4-0.7-0.7-1.2   c-2.7,0-11,5.1-11.8,2.2c3.1-2.1,7.1-2.7,10.4-4.4c-0.7-2-1.3-3.8-1.8-5.7c-3.7-0.5-7.8-0.5-10.3,0c-2.1,7.5-3.3,8.9-8.2,10.4   c-0.7-0.3-1.5-0.6-2.2-0.9c1.1-1.4,3.3,0.3,4.1-1.3c6.4-6.8,0.7-11.4,14.1-11.4c0.5-3.6,2.2-6.4,3.9-9.2c0.7-0.3,0.6-0.9,0.5-1.4   c0.7,0,1.4,0,2.2,0C418.6,544.1,418.8,544.3,419,544.6z" />
	<path display="inline" fill="#060505" d="M520.5,447.9c0.4,0.4,0.8,0.8,1.2,1.1c1.2,15.1-7.2,27.8-11.6,41.5   c0.6-0.1,0.9-0.1,1.3-0.1c-1.8,3.5-7,6.4-7.8,11.4c-0.4-0.1-0.8-0.3-1.4-0.5c-1.8,3.4-4.4,6.4-6.4,9.8c-0.7-0.2-0.6-0.8-0.7-1.4   c11.4-18.3,24.4-37.5,24.2-59.7c1.9-1.3-2.9-3.6-3.7-4.9c0.4-0.3,0.7-0.6,1.1-0.9c0.2,0,0.4,0.1,0.5,0.4   C518.4,445.6,519.5,446.7,520.5,447.9z" />
	<path display="inline" fill="#110D0C" d="M489.5,267.4c-0.5-0.5-1-1-1.5-1.5c8.2,0.6,19,2.1,23.2,10.2c2.3,6.3,8.6,13.5,3.7,20   c0.5,0.3,0.9,0.5,1.5,0.8c-0.5,0.6-1.1,1.2-1.6,1.8c0.5,5.1,7.9,9.3,1,13c0.2,1.2,0.4,2.6,0.7,4.1c-0.3,0.6-1.1,1.2-1.2,2   c1.5,1.9-0.4,3.7-0.2,5.6c-0.6-0.7-1.1-1.4-1.6-2.2c0.3-0.6,0.6-1.2,1-1.9c-0.6-0.5-1.1-1-1.6-1.5c-1.7,0.3-3.3,0.7-4.9-0.7   c1.9-1.7,5.2,0.6,6.7-2c-0.4-1.4-0.9-2.8-1.4-4.2c-0.5,0-1,0-1.7,0c0.7-1.4,1.5-2.2,2.9-1.6c7.4,1.1-5.4-10.4-1.4-14.8   c0.8-0.5,1.9-1,2.1-2c-2.2-5-1.8-11.2-6.1-14.6l0,0c0.2-0.4,0.4-0.8,0.7-1.3c-1.9-1.5-3-3.8-5.4-4.6c-1.1-1.4-2.6-2-4.3-2.1   c-1.3-0.9-2.8-1.4-4.4-1.4c-0.5-0.9-1.4-0.6-2.1-0.7C492.8,266.8,490.8,267.7,489.5,267.4z" />
	<path display="inline" fill="#090707" d="M389.9,558.1c1-0.1,2-0.3,3.4-0.5c3.5-8.1,7-17.1,9.3-25.7c-0.3-0.2-0.6-0.4-0.9-0.7   c-0.6,0-1.3-0.1-1.9-0.1c-1.1-1.6-3.6,0.2-4.3-2c1.3-1.5-0.6-1.6,0.3-2.6c2.2,0.1,3.6,2.4,6.6,2.4c-1.2-1.3-4.7-3.1-2.6-4.2   c1,1.2,1.1,1.5,2.8,1.1c0.3,3.2,3.4,7.4,2.3,10.2c-0.5-0.5-0.8-0.3-1,0.3c-3.2,8.7-6.4,17.2-10.6,25.4c2-0.3,2.1,1.3,2.9,2.3   c0,0.7,0.1,1.3,0.1,2c-1.7-0.2-2.9-2-4.9-1.2c0.4,0.6,0.8,1.1,1.3,1.7c-4.6,1.7-3.4-4.5-2.1-6.9C390.4,559,390.1,558.6,389.9,558.1   z" />
	<path display="inline" fill="#090707" d="M466.6,456.4c1.1-0.4,0.6-1.5,0.8-2.2c1,0.8,0.7,1.9,0.7,2.9c-1.1,1.3-1.1,2.2,0,3.6   c0.1,1-0.5,2.3,0.5,2.9c-0.8,2.8-1.5,5.2-2.5,8.2c10.2-1.5,20.1-1.6,30.1-3.8c-1.3,4-6.7,3.2-8.9,6.3c-0.3-0.3-0.6-0.6-0.9-1   c0-0.3,0-0.7,0.1-1.1c-7.9,0.8-16.2,1.1-23.6,3.4C465.2,469.3,467.6,463.2,466.6,456.4z" />
	<path display="inline" fill="#1C1A1D" d="M527.8,537.3c-5.7,3-14.3,3.6-19.1-1.3c0-0.2,0-0.4,0-0.7c0.2,0,0.5,0,0.7,0   c3.7,2.6,4.4,2.9,6.7,2.4c-15.1-10.6-14.5-36.2-1-47.9c0.4-0.1,0.8-0.1,1.3-0.2c-0.7-0.7-1-0.3-1.3,0.2c-0.5-0.2-0.9-0.4-1.4-0.6   c5.5-2.6,12.3-2.1,17,2.1c-30.3-15.1-34,54.1-3.5,45.4C527.3,536.9,527.6,537.1,527.8,537.3z" />
	<path display="inline" fill="#0D0B0A" d="M462.9,475.6c0.3,0,0.6,0,0.9,0.1c0,0.2,0.1,0.4,0.1,0.7c-2.8,7.4-9.6,11.9-13.1,18.6   c-4.3,6.1-6.9,14.2-12.5,19.1c0-0.7-0.1-1.4-0.1-2.1c5.3-8.7,12.5-17.6,13.7-28.4c1.2,1.7,0.1,3.6,1.3,5.3   C456.9,484.6,459.6,479.9,462.9,475.6z" />
	<path display="inline" fill="#171719" d="M419,544.6c-12.4-7.4-15.5-22.1-12.8-35.5c1.9-2.9,5.6-14.8,9.9-12.8   c-13.9,10.4-14,39.6,3.5,46.2c1.3,1.8,3.8-0.4,5,1.4C422.8,544.1,420.9,544.3,419,544.6z" />
	<path display="inline" fill="#110F0F" d="M473.9,509.2c-0.1-0.6-0.2-1.3-0.3-2.2c-0.7,1.1-0.6,2.5-2,2.8c-0.3-5.3,2.4-9.5,2.9-14.9   c-1.8,0.5-2,3.2-3.6,2.7c3.7-4.7,6.1-8.9,8.5-14.2c0.3,0.3,0.5,0.5,0.8,0.8C477,492.3,475.7,500.8,473.9,509.2z" />
	<path display="inline" fill="#161412" d="M447.4,281.5c0.1,0.6,0,1.3,0.8,1.6c-5.8,7.4-2.3,16.1-0.1,24.1c-1.1,0.5-0.5,1.6-0.8,2.4   C443.8,300,439.6,290.2,447.4,281.5z" />
	<path display="inline" fill="#303032" d="M527.8,537.3c-0.2-0.2-0.5-0.4-0.7-0.6c13.3-8.7,11.5-26.5,8.5-39   C542,510.1,540.8,529.6,527.8,537.3z" />
	<path display="inline" fill="#2F3033" d="M424.7,543.9c-1.2-1.8-3.7,0.4-5-1.4c15.1,1.8,19.6-16.6,18.6-28.5   c0.4-0.2,0.9-0.5,1.3-0.7C440.4,524.9,437.5,540.1,424.7,543.9z" />
	<path display="inline" fill="#363844" d="M515,489.8c-4.8,3.8-7.1,9.3-9.3,15c-0.9-0.2-1.9-0.5-2.8-0.7c1.5-6.5,6.1-11.7,10.7-14.8   C514.1,489.5,514.6,489.7,515,489.8L515,489.8z" />
	<path display="inline" fill="#161313" d="M503.8,529.6c-0.2-0.1-0.3-0.3-0.2-0.5c-0.7-1.4-0.9-2.8-1.8-4.1c-1.3,0.7-1,2.2-1.7,3.2   c-0.2-0.2-0.5-0.5-0.7-0.7c0-1.3,1.5-2.5,0.3-4c-3.1,0.3-5.1-2-6.7-4.4c0.3-0.3,0.5-0.5,0.8-0.8c0.7,1.4,1.3,0.2,2,0   c0.3,1.1,0.7,2.2,1.1,3.4c0.7,0,1.3,0,2.1,0c-0.6-2.5-1.2-4.7-1.8-7.1c0.3-0.4,0.6-0.9,0.9-1.3c2.1,2.9,0.9,6.6,3.2,9.6   c0.2-1.3,0.3-2.1,0.5-2.8c0.2,0.1,0.4,0.2,0.6,0.3c0.1,0.8-0.3,1.7,0.7,2.1c0.2,1-0.4,2.3,0.7,2.8c0,0.5,0.1,0.9,0.1,1.3   c0.2,0.3,0.4,0.5,0.6,0.8c0,0.5,0.1,0.9,0.1,1.4C504.2,529.1,504,529.4,503.8,529.6z" />
	<path display="inline" fill="#363741" d="M367.8,512.4c0-0.4,0.1-0.8,0.1-1.2c0.2-0.2,0.4-0.5,0.6-0.7c-0.3-2.9,1-5.7,2.7-8   c0.2,0.2,0.4,0.4,0.5,0.5c1.8-2.1,3.6-3.9,5.3-6.1c0.9-0.2,1.9-0.5,2.8-0.7c-3.1,3.4-5.2,7.2-7.1,11.4c-1.1-0.9-1.8,0.3-2.7,0.4   c-1,2.4-1.7,4.8-1.6,7.4C367.7,514.6,367.8,513.5,367.8,512.4z" />
	<path display="inline" fill="#363741" d="M470.9,497.6c1.7,0.5,1.8-2.2,3.6-2.7c-0.7,3.9-1.2,7.1-2.8,10.7   c-0.6-1.1-1.5-0.8-2.7-0.6c-0.4,1.8-0.8,3.8-1.4,6.3C466.7,506.2,467.9,501.7,470.9,497.6z" />
	<path display="inline" fill="#3F4149" d="M535.6,497.7c-1.1,0.5-0.2,1.4,0,2.2c-2.4,1.4,2.9,6.3-0.4,6.8c-1.1-2.9-1.2-6.3-3.1-9   c1.4-0.6,0-1.7-0.7-2.1l0,0c-0.2-0.2-0.5-0.5-0.7-0.7l0,0c-1.8-3.2-4.7-4-7.9-5c0.7-0.2,1.6,0.3,2.1-0.7c1.7,0.4,4.2,3.5,5.7,2.1   C533,493,534.5,495.2,535.6,497.7z" />
	<path display="inline" fill="#4B4E5B" d="M467.3,508c0.1,0.9,0.2,1.8,0.4,3.3c0.5-2.5,1-4.5,1.4-6.3c3.7-1.3,2.6,2.5,2.6,4.7   c-1.5,1.5,0.1,4-1.4,5.7c-0.9-0.1-1.7-0.1-2.4-0.2c-0.8-1.2,0.2-2.6-1.1-3.3C466.6,510.6,466.5,509.2,467.3,508z" />
	<path display="inline" fill="#1D191B" d="M394.1,540.1c-4.6,3-12.2,3.9-17,0.8c0.2-0.2,0.5-0.4,0.7-0.6c1.7,0.7,3.3,1.8,5.5,1.2   c-4.7-2.3-8.4-6.1-9.1-11.2l0,0c0.2,0,0.5,0,0.7,0c2.4,8.5,11.1,12.9,19.2,9.4L394.1,540.1z" />
	<path display="inline" fill="#251B19" d="M433.3,577.9c0.5-0.4,1-0.9,1.4-1.3c3.4,1.9,6.4,4,10.4,5.1c0.3,0.6,0.6,1.3,1,2.1   c-1.2,1.7-0.6,3.8-0.7,5.8c-0.2-0.3-0.4-0.5-0.6-0.8c0-1.7,0-3.5,0-5.2C440.4,582.1,437.3,579.5,433.3,577.9z" />
	<path display="inline" fill="#2A2E30" d="M377.8,540.3c-0.2,0.2-0.5,0.4-0.7,0.6c-5.2-2.7-11.1-12.2-8.6-17.7   C369.1,529.9,372.3,536.4,377.8,540.3z" />
	<path display="inline" fill="#312224" d="M379.9,496.2c-0.9,0.2-1.9,0.5-2.8,0.7l0,0c0-0.2,0-0.4,0-0.6c3.7-3,8.2-3.2,12.8-2.9   c0,0.5,0,1-0.1,1.5c-3.1-0.3-5.9,0.1-8.5,2C380.7,496.6,380.3,495,379.9,496.2L379.9,496.2z" />
	<path display="inline" fill="#3C3D44" d="M368.5,523.3c-0.8,0.3-0.6,1.1-0.8,1.7c-1.2-4-1.1-8.6,0.1-12.6c-1,3.9,5.8,4.7,1.2,7.5   C368.2,520.7,368.6,522.1,368.5,523.3z" />
	<path display="inline" fill="#2E2926" d="M508.6,562.4c0.5-0.2,1-0.5,1.5-0.7c4.5,0.7,8.4,3.4,7.8,8.4c-0.4,0.5-0.8,1-1.2,1.4   c-0.6-2.2-1.4-4.5-1.7-6.7C512.6,564.1,510.6,563.3,508.6,562.4z" />
	<path display="inline" fill="#211F20" d="M481.6,536c0.1-0.7-0.2-1.6,0.7-2.1c1.7,3.7,7.7,2.2,10.7,0.7c0.2,0.2,0.4,0.4,0.7,0.6   c-3.1,2.3-8.3,3.1-12,2.3c0-0.2,0-0.5,0-0.7c0.4-0.1,0.8-0.2,1.8-0.4C482.4,536.2,482,536.1,481.6,536z" />
	<path display="inline" fill="#251F1E" d="M480.2,484.2c-0.3-0.3-0.5-0.5-0.8-0.8c1.5-4,4-7.2,7.1-10.1c0.3,0.3,0.6,0.6,0.9,1   C484.9,477.5,482.6,480.8,480.2,484.2z" />
	<path display="inline" fill="#35353B" d="M466.8,511.9c1.3,0.7,0.3,2.2,1.1,3.3c0.7,0.1,1.5,0.1,2.4,0.2c-0.4,1.4-0.6,3-1.4,4.1   c-0.9,1.2-0.1,2.8-1.3,3.7C467.1,519.5,466.4,515.7,466.8,511.9z" />
	<path display="inline" fill="#221A19" d="M516.7,444.2c-0.4,0.3-0.7,0.6-1.1,0.9c-2.9-2.7-6.1-4.1-10-4.9c0.9-0.1,1.6-0.4,1.6-1.5   C510.5,440.5,514.5,440.8,516.7,444.2z" />
	<path display="inline" fill="#212526" d="M394.1,540.1c1.2-3.4,5.4-5,5.7-9c0.5,0,1,0.1,1.6,0.1   C400.1,534.9,397.9,538.5,394.1,540.1z" />
	<path display="inline" fill="#2B3233" d="M493.7,535.2c-0.2-0.2-0.4-0.4-0.7-0.6c2.7-1.9,4.7-4.4,6.3-7.1c0.2,0.2,0.5,0.5,0.7,0.7   C499,531.5,496.7,533.7,493.7,535.2z" />
	<path display="inline" fill="#232729" d="M503.8,529.6c0.2-0.2,0.4-0.5,0.6-0.7c1.4,2.3,3.2,4.3,5,6.4c-0.5,0-0.9,0-1.4,0   C506.2,533.7,504.7,531.9,503.8,529.6z" />
	<path display="inline" fill="#271F21" d="M377.1,497c-1.6,2.2-3.4,4-5.3,6.1c-0.1-0.1-0.3-0.3-0.5-0.5c1-2.4,2.8-4.2,5-5.6   C376.5,496.9,376.8,496.9,377.1,497L377.1,497z" />
	<path display="inline" fill="#2E2A26" d="M389.9,558.1c0.2,0.5,0.5,0.9,0.7,1.4c-2-0.4-2.4,1.1-3.4,2.3c-0.3-0.3-0.7-0.7-1-1   C387,559.4,388.3,558.5,389.9,558.1z" />
	<path display="inline" fill="#F6D9C7" d="M463.9,476.3c-0.1-0.2-0.1-0.4-0.1-0.7c0.3-0.2,0.5-0.3,0.8-0.5   C464.6,475.7,464.5,476.1,463.9,476.3z" />
	<path display="inline" fill="#4B4F5C" d="M368.5,508.9c0,0.5,0.1,1.1,0.1,1.6c-0.2,0-0.4,0-0.6,0   C368.1,509.9,368.3,509.4,368.5,508.9z" />
	<path display="inline" fill="#E1C7B6" d="M431.8,351.2c-0.4,0.1-0.9,0.1-1.3,0.2c0.2-0.8,0.7-0.9,1.4-0.8   C431.9,350.8,431.9,351,431.8,351.2z" />
	<path display="inline" fill="#E1C7B6" d="M434.1,348.4c-0.2,0.3-0.5,0.5-0.7,0.8C433.6,349,433.8,348.7,434.1,348.4z" />
	<path display="inline" fill="#221A19" d="M519.9,447.2c-0.2-0.2-0.4-0.4-0.6-0.6C519.5,446.8,519.7,447,519.9,447.2z" />
	<path display="inline" fill="#221A19" d="M519.2,446.5c-0.2-0.2-0.4-0.4-0.6-0.6C518.8,446.1,519,446.3,519.2,446.5z" />
	<path display="inline" fill="#232729" d="M502.4,526.1c0.1,0.3,0.3,0.7,0.4,1C502.7,526.8,502.5,526.4,502.4,526.1z" />
	<path display="inline" fill="#221A19" d="M518.5,445.8c-0.2-0.2-0.4-0.4-0.6-0.6C518.1,445.4,518.3,445.6,518.5,445.8z" />
	<path display="inline" fill="#232729" d="M503.1,528.2c0.2,0.3,0.3,0.6,0.5,0.9C503.4,528.8,503.3,528.5,503.1,528.2z" />
	<path display="inline" fill="#221A19" d="M517.7,445.1c-0.2-0.2-0.4-0.3-0.6-0.5C517.4,444.8,517.6,444.9,517.7,445.1z" />
	<path display="inline" fill="#E1C7B6" d="M433.4,349.2c-0.2,0.2-0.5,0.5-0.7,0.7C432.9,349.7,433.1,349.5,433.4,349.2z" />
	<path display="inline" fill="#363741" d="M377.1,497c-0.3,0-0.5,0-0.8-0.1c0.3-0.2,0.5-0.4,0.8-0.6   C377.1,496.5,377.1,496.7,377.1,497z" />
	<path display="inline" fill="#E1C7B6" d="M432.7,349.9c-0.3,0.2-0.5,0.4-0.8,0.7C432.2,350.4,432.4,350.2,432.7,349.9z" />
	<path display="inline" fill="#212526" d="M401.8,531.2c0.3,0.2,0.6,0.4,0.9,0.7C402.4,531.6,402.1,531.4,401.8,531.2z" />
	<path display="inline" fill="#363741" d="M379.2,495c-0.2,0.2-0.5,0.3-0.7,0.5C378.7,495.3,378.9,495.2,379.2,495z" />
	<path display="inline" fill="#363A45" d="M507.3,534.6c0.2,0.2,0.5,0.5,0.7,0.7C507.7,535.1,507.5,534.9,507.3,534.6z" />
	<path display="inline" fill="#363A45" d="M508,535.3c0.2,0,0.5,0,0.7,0c0,0.2,0,0.4,0,0.7C508.4,535.8,508.2,535.6,508,535.3z" />
	<path display="inline" fill="#3C3D44" d="M368,510.5c0.2,0,0.4,0,0.6,0c-0.2,0.2-0.4,0.5-0.6,0.7C367.9,510.9,368,510.7,368,510.5z   " />
	<path display="inline" fill="#221A19" d="M520.5,447.9c-0.2-0.2-0.3-0.4-0.5-0.6C520.2,447.5,520.3,447.7,520.5,447.9z" />
	<path display="inline" fill="#F6D9C7" d="M400.6,525.4c-0.7-0.7-1.5-1.5-2.2-2.2c0.6-2.5-0.7-4.5-1.7-6.6c-1.4,2.6,4.8,13-3.2,4.4   c1-28.6,1.3-57.9,11.3-85.2c0.3,1.1-0.1,2.4-0.1,3.9c1.9,0.5,2.6,2.6,4.5,3.2c1.3,1.6,1.3,4.5,3.1,5.4c0.7-1.7-1-2.8-1.2-4.3   c-1.6-5-0.4-10.6-3.4-15.1c4.5-15.9,8.5-32.5,16.3-47.1c1.2,1.8,1.3,5,3.8,4.8c2.6-5.4,1.4-11.3,1.9-17c1.7-6.3,2.6-13.4,6.9-18.5   c1-1,2.1-1.9,2-3.4l0,0c6.5-4,12.1-10.4,20.1-10.6c0.8,1.6,1.5,2.9,2.1,4.5c-0.1,0.2,0,0.4,0.1,0.7c0,4.3,0.9,8.2,0.6,12.7   c-1.1,0.1-2.1,0.1-3.6,0.2c1.4,0.7,2.4,1.2,3.5,1.8c0.4,12.1-0.9,26.5-13.2,32.2c-0.2-0.1-0.3-0.3-0.5-0.4c1-1.9,1-1.9,1-4.7   c1.8-2,4.9-3.4,4.2-6.6c-2.7,2.9-5.2,5.1-8.2,6.8c-0.5,0-0.8,0.2-0.8,0.7l0,0c-10.1,13.5-14.5,32-25.5,45.3   c3.4,23.8-19.2,49.3-13.7,71.9c-3.1,7.2-5.3,14.9-3.4,22.7C401.1,524.9,400.8,525.2,400.6,525.4z M442.5,349.1   c1.5,0.2,2.7,1.1,4.4,1.2C446.7,348,442.9,346,442.5,349.1z M458.5,354c0.1-2.1-0.6-3.1-2.9-3.6C456.8,351.7,456.8,353.4,458.5,354   z M437.7,360.9c2.7-0.8,3.2-1.2,3.1-3.2C439.3,358.4,438.6,359.8,437.7,360.9z M451.9,349.6c-1.1-1.4-1.3-1.4-2.4,0.3   C450.4,349.8,451.1,349.7,451.9,349.6z M412.9,450.1c-0.5,0.7-0.5,1.2-0.1,2c0.8-0.4,1-0.8,1-1.6   C413.5,450.3,413.2,450.2,412.9,450.1z" />
	<path display="inline" fill="#F6D9C7" d="M505.7,440.2c5.6,1,9.9,4.4,13.7,8.4c0.4,24.8-14.6,46.5-28,66.4   c-8.6,10.4-11.8,26.1-23.7,32.5c-0.7-0.1-1.4-0.2-2.3-0.4c2.1-7.6,2.7-15.9,6.9-22.6c7.7-10.6,5.5-25.8,11.9-37.3   c-0.1-0.7-0.2-1.4-0.4-2.1c4.1-5.5,11-9.4,13.2-15.8c2-0.7,4.4,0.4,6.4-0.5c2.1-9.3-21.4-1.6-24.5-5.3c-25.5,2,8.1-9-32.1-21   c3.9-6,10.1-8.4,16-11.4C477,434.3,491.2,438.2,505.7,440.2z M495.9,484.9c-0.8,6.2-5.7,10.7-7.9,16.4c4.6-3.9,8.3-8.8,8.5-15   c0.1-0.2,0.2-0.3,0.2-0.6c1.5-3.9,1.6-4.5,0.8-6.6C496.4,481.1,496,483,495.9,484.9z M510.1,447.9c0.6,1.7-0.1,4.4,1.4,5.5   C513.1,452.2,512.1,448.2,510.1,447.9c0.1-2.7-6.3-6.9-8-4.5C505.3,444.1,507.5,446.7,510.1,447.9z M509.5,455.8   c-12.3-2.1-10.3,6.9-2.8,3.4C508.2,459.4,511.9,457,509.5,455.8z M515.6,451.1c-0.9,2.5-0.1,3.9,1.6,5.5   C517.4,454.5,517.5,452.8,515.6,451.1z M506.3,468.1c1.7,0.8,2.8,2.7,4.5,2.2c-0.5-2-2.5-2.1-3.6-3.2   C506.9,467.5,506.8,467.6,506.3,468.1z M483.8,506c-2.5-0.8-2.5-0.8-3.4,1.8C481.5,507.2,482.3,506.7,483.8,506z M511.6,472.3   c-0.2,1.1-0.6,2,0.8,2.8C512.9,473.9,512.7,473,511.6,472.3z M486.4,502.1c-2.1,1.5-2.2,1.7-1.5,2.4   C485.5,503.8,486.8,503.8,486.4,502.1z M497.2,477.2c-0.6-1.2-0.3-2.1-1.3-2.2c-0.1,0.1-0.2,0.1-0.3,0.2   C495.5,476,495.7,476.7,497.2,477.2z" />
	<path display="inline" fill="#F6D9C7" d="M462.9,475.6c-3.3,4.3-6,9-9.7,13.3c-0.3-0.4-0.4-0.7-0.5-0.9c1.1-2.3,0.6-5.3,1.8-7.7   c0.2-0.5-0.2-0.9-1-0.7c-2.6,11.1-7.3,20.9-13.8,30.4c-0.9,0-1.1-0.7-1.3-1.3c-1.6-6.5-5.9-11.7-11.5-15.2c1.2-1.8,2-2.3,0.5-3.9   c2.8-2.4,4.4-6.6,7.3-9.4c0.7-3.7,4.3-6,6.3-8.9c0-1.2,0-2.3,0-3.3l0,0c3.2-1.7,7.4,0.8,9.9-2.4c-4.4-5.8-11.8-0.1-17.7-1   c-1.8-0.4-3.2,0.5-5,0.6c-0.7-0.4-1.4-0.9-2.2-1.4c-3.2,0.3-6.4-0.4-9.5,0.7c-0.7,0.2-1.4,0-1.8-0.8c3.3-9,5.9-18,5-27.7   c9.4,1.8,18.2,5.9,27.2,9C466,449.9,471.4,456.7,462.9,475.6z M458.2,463.3c-2-0.5-2.6-3-5-3.7c-0.1,2.7,2.2,3.3,3.2,4.3   c1.2,1.8,0.5,3.9,2.3,5.4C459.1,467.1,459,465.3,458.2,463.3z M462.9,462c-1-0.8-2.9-1.4-4-0.3C459.3,463.5,462.5,463.6,462.9,462z    M447.4,477.9c-0.2,0.1-0.4,0.3-0.6,0.4c0.2,0.7,1.1,3,2.1,1.7C448.5,479.3,448,478.6,447.4,477.9z M446.1,476.1   c0-1.7,0-1.7-1.2-1.6C445.3,475.1,445.7,475.6,446.1,476.1z" />
	<path display="inline" fill="#FFF0A7" d="M461,338.4c-0.1-0.6-0.2-1.2-0.3-1.9c1.1-0.4,2.2-0.7,3.4-1.1c10.1,19-4,57,8.2,65.4   c23.9,2.9,24-27.8,26.3-43.9c1.5,9.3,1.2,18.3,2,27.7c-5.4,9.2-2.3,21.8-11.1,29.2c-5-0.2-10.8,0-15.1-2.9c-0.8,0.5-1.4,0.8-2,1.1   c0,1.1,0,2,0,2.7c1.4,1.8,2.3,2.9,2.7,5.1c-1.6,1.1-2.8,3.2-4.9,3.3c0-3.3-4.4-1.8-6.2-3.5c0.7-0.9,1.8-1.4,1.8-2.6   c-0.6-0.6-1.3-1.2-1.9-1.7c-11.7,2-22.8-5.6-20.8-18.3c-1.1-0.6-1.9-1.1-2.8-1.6c23.9-6.4,27.9-34.5,21.3-55.5   C461.5,339.4,461.2,338.9,461,338.4z" />
	<path display="inline" fill="#F6D9C7" d="M510.1,278.7c3.3,3.8,3.3,9.2,5.3,14c-0.2,1-1.3,1.5-2.1,2c-4.1,4.4,8.8,15.9,1.4,14.8   c-1.4-0.6-2.2,0.2-2.9,1.6c0.7,0,1.2,0,1.7,0c0.5,1.5,0.9,2.9,1.4,4.2c-1.5,2.6-4.8,0.3-6.7,2c1.6,1.4,3.2,1,4.9,0.7   c0.5,0.5,1,1,1.6,1.5c-3.4,4,1.2,4.6-1.5,8.2c-2.5,0.6-5,2.1-7.9,0.8c-7-1.7-15.6-3.4-22-7.7c-0.5-1.6-0.5-3.3-2.1-4.1   c-0.1-0.6,0-1.4-0.9-1.5c-0.8,0.5-1.5,1-2.5,1.6c-1.6-1.3-2.8-2.8-3.8-4.5c0.3-0.3,0.5-0.5,0.8-0.8c0.7,0,2.1,0.4,1.9-0.7l0,0   c2.1,0.4,3-0.6,3.7-2.3c-0.9-0.9-2.7-1.2-2.2-2.6c1.1-0.8,0.9-2.1,1-3.3c2.1-0.6,4.3,0.8,5.4-2.1c-1.3,0.1-2.5,0.2-4,0.3   c4.3-1.9,7.4-4.9,11.1-7.5c-0.4-2,0.3-3.6,2.1-4.2c0.4-2.8,1.4-5.6,1.1-8.5c-0.8,0.1-1.5,0.3-2.3,0.4c0-0.2,0-0.5,0-0.7   c1.8-1.2,3.7-0.7,5.6-0.6c2.7,1,1.6-2.9,6.7,0.3c1-0.4,1.8-0.8,2.6-1.2c0.9,0.6,1.3-0.6,2.1-0.6l0,0   C509.5,278.3,509.8,278.5,510.1,278.7z M503.7,293c-1.7,0.3-3.1,0.9-4.1,2.8c2.3-0.7,4-1.1,6.2-1.5c1.6,0.6,3.2,1.6,5.2,1.3   C509.6,293.2,507.8,292.6,503.7,293z M509.6,296.9c-3.5-0.8-5.9,0.5-8,3.1c0.9,0.1,1.6,0.2,2.3,0.1c1.1-0.1,1,1.3,1.9,1.4   c0.6,0.1,1.1,0.1,2,0.2C507.1,299.6,508.1,298.2,509.6,296.9z" />
	<path display="inline" fill="#F6D9C7" d="M493,414c7-6.3,6.5-15.5,8-24c0.6-5.1,5.5-8.8,5.1-13.7c-1.6,2.3-2.8,4.1-4.2,6.1   c1.4-13.1-1.5-25.9-3-38.9c19.8,2.9,10.6,25.5,8.6,38.7c-2.7,13.5-2.5,27.4-4.1,40.9c-2.5,5.1,0.6,10,1.6,15.2   c-5.6-1.4-10.8-2.6-16.2-4.1c-0.6-4.1,2.3-1.7,1.4-4.2c0.1-0.3,0.1-0.7,0.3-1.2c1.5,0.9,2.5,3.1,4.5,1.5c0.1-1.8,0.2-1.9-0.5-2.6   C491.7,423.8,493.5,418.5,493,414z M502,425.7c-3,1.2-4.5,3.1-5.1,6C499.1,430.2,500.6,428.4,502,425.7z" />
	<path display="inline" fill="#F6D9C7" d="M478.8,359.1c-2.4-0.6-4.7-1.3-7.3-1.9c-1.6-6.8-1.3-14.1-3.4-20.8   c1.4-1.3,3.9-1.3,5.7-1.4l-0.1-0.1c0.2,1.5,0.2,1.5,1.7,2c-0.4-0.7-0.7-1.3-1-1.8c0.2-0.8,0.1-1.7,0.6-2.3c2.5-2.8,1.8-6.1,2.9-9.3   c2.4,5.5,4.8,10.9,8.6,15.6c13.2-0.2,0.2,10.9,7.9,13.7c1.8,5.7-10,2.7-8.3,8.7c-1.9-0.2-3.1-1.1-4.7-2.1   C480.4,360.1,479.7,358.9,478.8,359.1z M488.1,345c-0.3-0.4-0.8-0.9-1.2-0.3C486.6,345.4,487.7,345.9,488.1,345z M487.3,341.7   c-0.1-0.1-0.3-0.2-0.4-0.3c-0.2,0.4-0.3,0.7,0.2,0.9C487.1,342.1,487.2,341.9,487.3,341.7z" />
	<path display="inline" fill="#E1C7B6" d="M436.2,420c6.7,2.1,12.9,6.7,20.1,5.9c3.7,0.2,7.6-1.1,11.1,0.1   c-17.2,11.4-28.1,13.4-47.3,7.6c-1.2-2.6,1.7-4.1,3.1-5.8c0.2,0.3,0.4,0.6,0.6,0.9C428.4,426.8,433,423.6,436.2,420z" />
	<path display="inline" fill="#E1C7B6" d="M473.2,334.9c-1.7,0.5-3.9,0.1-5.1,1.5c-0.3-0.5-0.6-1-0.9-1.6c5-3.4,4.6-8.6,4.3-14.1   c1.1-0.9,3.2-1.3,3-3.5c0.6,0.5,1.2,1,1.9,1.5c1.4-0.2,2.9-0.1,4-1.6c-0.1-0.6-0.2-1.3-0.3-1.9c0.9,0.1,0.8,0.9,0.9,1.5   c-1.5,7.6,7.6,8.1,12.8,9.9c-0.4-0.8-0.6-1.1-0.8-1.5c3.4,1.1,6.5,3.3,10.2,2.8c0.7-0.1,1.4-0.2,1.9,0.6c-2.2,0-4.4,0-6.5,0.8   c-1.9,4.4-3.3,8.8-5.5,12.9c-0.7-2.4-4.2-3.3-6.5-3.1c-0.1,0-0.4-0.5-0.5-0.7c1.8-1.1,0.3-2.3-0.7-3.9c-0.2,1.1-0.3,1.6-0.3,2   c-4.1-3.4-4.5-8.7-7.1-13c-1,3.3-0.4,6.5-2.9,9.3c-0.4,0.6-0.4,1.5-0.6,2.3c-0.2,0-0.5-0.1-0.7-0.2l0.1,0.1c-0.1-0.9-0.1-1.8-1.6-2   C472.6,333.8,472.9,334.3,473.2,334.9z M484.5,331.4c0,0.8-0.2,1.7,0.7,2.9c-0.2-2.6,0.9-7.8-2-8.6   C482.4,327.7,484.1,329.4,484.5,331.4z" />
	<path display="inline" fill="#E1C7B6" d="M414.7,463.4c0.3,0.8,1.1,1,1.8,0.8c3.1-1.2,6.3-0.4,9.5-0.7c0.8,0.5,1.5,1,2.2,1.4   c1.7-0.1,3.2-1,5-0.6c5.8,1,13.3-4.7,17.7,1c-2.5,3.3-6.7,0.7-9.9,2.4c-0.1-0.6-0.2-1.2-0.3-2.1c-7.4,8.3-20.4,7.2-31,10.5   C411.4,471.5,412.8,467.8,414.7,463.4z" />
	<path display="inline" fill="#EAD98E" d="M440.4,395.3c0.9,0.5,1.7,1,2.8,1.6c-2,12.6,9.1,20.2,20.8,18.3c0.6,0.5,1.3,1.2,1.9,1.7   c0,1.3-1.1,1.7-1.8,2.6l-0.2-0.1c0-0.3,0-0.7-0.1-1.1c-9.2,1.9-24.3,2.3-24.9-10.2c-0.3-0.4-0.6-0.8-1-1.2c0.4-0.9,0.8-1.9,1.1-2.9   c-0.4-0.2-0.6-0.2-0.8-0.3c-0.2-0.9,0.6-2.1-0.7-2.7C438.5,399.1,439.4,397.2,440.4,395.3z" />
	<path display="inline" fill="#FDFDFD" d="M477.9,419.5c2.3,0,4.6,0,7.2,0c0.7,4.5-0.8,8.9-0.9,13.7c-6.3-1.1-12.4-2.3-18.7-3.4   C469.2,425.7,474.2,423.9,477.9,419.5z" />
	<path display="inline" fill="#DDC5B4" d="M441,467.7c0,1,0,2.1,0,3.3c-2,2.9-5.7,5.3-6.3,8.9c-0.3-0.1-0.7-0.2-1.1-0.3   c-1.9,2-4,3.7-4.7,6.6c-0.8,0.4-1.1,1.1-1,2c0.4,0,0.7,0,1-0.1c-0.6,0.5-1,0.9-1.5,1.1c0.4,0.9,1.7,1.6,0.3,2.7   c0-0.4-0.1-0.9-0.1-1.8c-1.2,1.2-2,1.9-2.8,2.7c-2-0.2-3.8-0.3-5.7-0.4C424.5,482.5,434.1,476.2,441,467.7z" />
	<path display="inline" fill="#E3D48B" d="M464.1,419.6c1.8,1.7,6.2,0.2,6.2,3.5c-10.6,1.6-22.4,0.4-32.1-4.3   c1.7,0.1,1.5-1.3,1.7-2.3c6.4,5.6,16.3,6.4,23.9,2.9L464.1,419.6z" />
	<path display="inline" fill="#DEC5B4" d="M493,414c0.5,4.5-1.4,9.8,1.5,13.8c0.6,0.7,0.5,0.8,0.5,2.6c-2,1.6-3-0.6-4.5-1.5   c-0.1,0.6-0.2,0.9-0.3,1.2c-3.1-3.4-2-7.6-1.9-12C489.7,416.8,491.4,415.4,493,414z" />
	<path display="inline" fill="#F2D7C5" d="M436.2,420c-3.3,3.6-7.8,6.8-12.4,8.6c-0.2-0.3-0.4-0.6-0.6-0.9c3-3.9,4.6-8.7,6.9-12.9   C432.4,415.6,433.8,418.7,436.2,420z" />
	<path display="inline" fill="#F8EBA4" d="M439.9,416.5c-0.7,6.1-8.1-1.8-8.3-4.2c1.9-3.7,3.5-7.7,6-11.3c1.3,0.6,0.5,1.8,0.7,2.7   c-0.8,1.1-1.7,2.3-2.5,3.4C437.6,409.7,437.5,414.6,439.9,416.5z" />
	<path display="inline" fill="#EAD88E" d="M474.6,417.4c-0.6-0.8-1.3-1.7-2.1-2.7c0-0.7,0-1.6,0-2.7c0.6-0.3,1.2-0.7,2-1.1   c4.3,2.9,10.1,2.8,15.1,2.9C486.1,419.1,479.4,416.1,474.6,417.4z" />
	<path display="inline" fill="#363843" d="M406.2,500.4c1.4-1.4,2.4-3.3,4.3-4.2c0.6,1.8,2.2-1,2.9,0.7c-3.6,3.2-4.9,8.2-7.1,12.1   c-0.9-0.2-1.9-0.4-2.8-0.6C403.9,506.4,408,501.8,406.2,500.4z" />
	<path display="inline" fill="#434751" d="M431.1,496.3c0.7,0.7,1.4,1.4,2,2.1c-0.2,0.2-0.4,0.5-0.6,0.7c1.2,2,2.3,3.9,3.4,5.8   c-0.7,0.3-0.6,0.8-0.6,1.4c-0.3,0.2-0.5,0.5-0.8,0.7c-0.7-0.3-0.7-0.9-0.7-1.4c1.3-1.3-1.2-5-2.9-5.7l0,0   c-4.3-6.5-11.2-5.9-16.3-0.7c-0.3-0.3-0.5-0.5-0.8-0.8c3.8-5.5,11.6-5.6,16.5-1.4C430.8,496.7,431,496.5,431.1,496.3z" />
	<path display="inline" fill="#D5BDAC" d="M448.9,383.9c0,2.9,0,2.9-1,4.7c0.2,0.1,0.3,0.3,0.5,0.4c-2.7,1.9-3.9,2.4-6.4,2.5   C442.7,387.5,445.1,385.3,448.9,383.9z" />
	<path display="inline" fill="#C3BB82" d="M498.7,356.9c-1.9,3.2,0.5,8-1.3,11.4c0.1-7.8,0.4-15.5-2-23.2c0.3-0.7,0.7-1.5,1.1-2.3   C498.3,346.7,498.2,352.4,498.7,356.9z" />
	<path display="inline" fill="#302C2C" d="M406.2,502.6c-2.1,4.6-5.3,9.7-3.5,14.9c-1.7,2.1,0.2,5-1.4,7.1   c-1.9-7.8,0.3-15.5,3.4-22.7C405.3,502.2,405.8,502.4,406.2,502.6z" />
	<path display="inline" fill="#24211A" d="M495.8,376.8c-1,5.2-1.3,12.1-5.6,15.7c-0.2-0.3-0.5-0.5-0.7-0.8c3-5,3.9-10.7,5.1-16.3   c0.2,0,0.4,0,0.6,0C495.2,376,495.1,376.6,495.8,376.8z" />
	<path display="inline" fill="#271E1B" d="M495.1,375.4c-0.2,0-0.4,0-0.6,0c-0.1-6.3,0.7-12.3-0.2-18.7c-3,1-5.4,3.3-8.4,3   c0.9-2.9,5.4-2.8,7.8-4.2c0.4,0.4,0.9,0.7,1.4,1.2C495.1,363,495.1,369.2,495.1,375.4z" />
	<path display="inline" fill="#1E1614" d="M448.9,383.9c-1.9,1.2-4.5,1.6-5.5,3.8c-0.3-0.3-0.6-0.7-1-1c0-0.3,0.1-0.5,0.1-0.8   c0.5-0.4,1-0.8,1.6-1.2l0,0c3.2-2.2,6.1-4.2,9-7.5C453.8,380.5,450.7,381.9,448.9,383.9z" />
	<path display="inline" fill="#2A1C1B" d="M431.1,496.3c-0.1,0.2-0.3,0.3-0.6,0.7c-2.3-1.6-4.8-3.2-7.7-2.9   c-1.5,0.2-2.8-0.4-3.7-1.6c1.9,0.1,3.8,0.3,5.7,0.4c0.8-0.8,1.6-1.6,2.8-2.7c0.1,0.9,0.1,1.4,0.1,1.8c-0.2,0.4-0.5,0.8-0.8,1.3   C428.4,494.3,429.7,495.3,431.1,496.3z" />
	<path display="inline" fill="#C9765B" d="M440.4,439.7c1.7-1.4,5.3-2.7,7.5-1.8c-1.2,1.2-2.3,2.3-3.6,3.6   C443.1,441.4,441.8,440.5,440.4,439.7z" />
	<path display="inline" fill="#2B262B" d="M417.6,494.8c-0.5,0.5-1,0.9-1.4,1.4c-0.6-1.5-2,0.3-2.9,0.7c-0.6-1.7-2.2,1-2.9-0.7   c1.6-1.1,3.4-1.9,5-2.8C416.2,493.8,416.9,494.3,417.6,494.8z" />
	<path display="inline" fill="#DAC2B2" d="M489.5,431.5c-1.3,0.7-0.5,1.9-0.7,2.8c-0.8-0.1-1.5-0.2-2.4-0.4c0-1.9,0-3.6,1.1-5.2   C488.4,429.6,489,430.5,489.5,431.5z" />
	<path display="inline" fill="#BFB0A1" d="M494.4,352.7c-0.5-0.3-1-0.5-1.5-0.8c0.1-0.9-0.1-1.9,1.3-2.4   C494.6,350.5,494.6,351.6,494.4,352.7z" />
	<path display="inline" fill="#221F1A" d="M461.6,347.2c-0.8-1.7-0.6-3.4-0.6-5.2C462.3,343.4,461.5,345.4,461.6,347.2z" />
	<path display="inline" fill="#221F1A" d="M461,341.4c-0.2-0.5-0.4-1-0.6-1.5c0.2,0,0.4,0,0.6,0C461,340.4,461,340.9,461,341.4z" />
	<path display="inline" fill="#221F1A" d="M461,338.4c0.2,0.5,0.4,1,0.6,1.5c-0.2,0-0.5,0-0.7,0C461,339.4,461,338.9,461,338.4z" />
	<path display="inline" fill="#D5BDAC" d="M448.9,388.8c0.3-0.2,0.5-0.4,0.8-0.6C449.4,388.4,449.2,388.6,448.9,388.8z" />
	<path display="inline" fill="#221F1A" d="M461.9,340.3c0.2,0.3,0.3,0.6,0.5,1C462.2,341,462,340.7,461.9,340.3z" />
	<path display="inline" fill="#E1C7B6" d="M398.4,523.2c0.5,0.5,1,0.9,1.4,1.4c-2.1,1.1,1.4,3,2.6,4.2c-3,0-4.3-2.3-6.6-2.4   c-0.8,1,1.1,1.1-0.3,2.6c-2.3-0.1-3.5-2-5.6-3.3c2.4-21.9,0.7-44.6,5.6-66.3c1.5-7,2.8-14.1,4.8-21c0.3-1.2,0.3-1.2-0.5-3.3   c0.4-1.2,1-2.6,1.5-4.1c1,0.7,1.9,1.3,2.6,1.9c1.8-0.8,0-3.1-1.2-3.5c7-19.9,11.8-41.5,20.6-60.9c1.3,0.8-0.2,2.4,1.1,3.3   c0.8-1.1,2.5-5.6,0.3-5.7l-0.1,0.1c3.8-6.8,6.2-15.6,14.1-18.6c0.1,1.6-1,2.4-2,3.4c-4.3,5.1-5.2,12.2-6.9,18.5   c-0.6,5.7,0.7,11.7-1.9,17c-2.5,0.2-2.6-2.9-3.8-4.8c-7.8,14.6-11.8,31.2-16.3,47.1c2.6,3.1,1.4,7.2,2.6,10.7   c-0.4-0.1-0.8-0.1-1.5-0.3c0.1,1.3,0.3,2.4,0.4,3.5c-1.9-0.5-2.6-2.6-4.5-3.2c0.1-1.3,0.1-2.3,0.2-3.3c0.3,1,0.5,2,0.8,3.2   c1.6-2.6,1.5-3.4-0.4-5.3c-10.5,27.8-10.8,57.7-11.9,86.8c0.4,0.5,0.9,1,1.4,1.5c-0.3,0-0.6,0.1-1,0.1c0.3,1,0.3,2,1.9,2   c-0.1-0.6-0.1-1-0.2-1.5c1.1,0.8,2.1,2.1,2.2-0.1C398,523.2,398.2,523.2,398.4,523.2z M424.4,376c1.1-0.8,1.4-2.5,0.1-2.4   C423.8,374.3,423.9,375.1,424.4,376z M425.2,379.5c1-0.1,0.6-1.1,0.7-1.8C424.7,377.3,424.8,378.9,425.2,379.5z M401.9,436.8   c-0.1-0.1-0.2-0.2-0.3-0.3c-0.1,0.3-0.4,0.5,0,0.7C401.7,437.1,401.8,437,401.9,436.8z" />
	<path display="inline" fill="#F6D9C7" d="M487.5,359.9c2.2-1,4.4-2,6.8-3.1c1.3,14.6,1.3,42-18.7,41.8c0.1-1.4,0.1-2.6,0.2-3.9   c1.5-1.6,2.3-2.8,4-4.3c-1.5,0-2.1,0.6-2.6,1.3c-3.8,2.7-2.9-4.1-6.1-4.4c1.4,3.9,3,6.2,2.6,10.3c-8.7-10.8-0.8-25.9-1.8-38.4   c4.6,0.5,9.1,0.9,12.8,4.3C487.2,363.3,487.2,361.5,487.5,359.9z" />
	<path display="inline" fill="#D6C0A0" d="M448.2,307.2c-2.2-8-5.7-16.7,0.1-24.1l0,0c1.5-0.5,2.8-1.4,4.2-2.3   c-0.4,3.5-4.4,6-3.3,9.7c0.4,0.1,0.8,0.1,1.1,0.2c0.7,2.9-0.1,11.5,3,11.8c-1.1-1.8-0.4-3.9-1.5-5.4c0.2-3.1-0.7-6.5,0.7-9.3   c0.1,0.6,0.1,1.3,0.2,2c0.7-0.4,1.2-0.6,1.7-0.9c0.7,1-0.4,2.4,0.9,3.2c-0.3,7.2,0.5,14.2,0.4,21.3c-0.5-1.8-0.9-3.2-1.3-4.6   c-0.4-0.1-0.8-0.2-1.1-0.3c-0.8-1.4-0.4-3.4-2.3-5c0.2,1.5,0.4,2.4,0.5,3.3c-0.5,0.1-0.7,0.1-1.3,0.2c1.2,2,1,4.2,2.3,5.9   c0.1,1.5-0.5,3,0.6,4.3c0.1,0.7,0.1,1.3,0.2,2c-0.3,0.5-0.5,1-0.8,1.5C450.5,316.3,450,311.6,448.2,307.2z" />
	<path display="inline" fill="#130F0C" d="M492.9,289.3c-1.6,0.8-1.7,2.2-1.5,4c-2.7,2-5.6,4.1-8.4,6.1c-1.8,0-3.6-0.3-5.2,0.8   c-0.7-0.8-1.3-1.5-2-2.3c0-0.2,0-0.4,0-0.7c0.6-0.3,1.2-0.6,2.2-1.1c-4.9-1.6-9.5-1.2-14.4-2.9c0-0.3,0-0.6,0.1-0.9   c0.9,0.3,1.5-0.4,2.1-0.8c0.9,0.3,1.8,0.6,2.7,0.9c0.6,0.7,1.4,0.7,2.2,0.7c2.4,1.7,5.3,1.2,7.5,1.9c3.8-1.9,7.3-1.1,10.3-3.9   c-2.8,0.4-5.3,0.8-7.8,1.2c-1.4-1.8-3.6-1.7-5.6-2.2c-0.1-0.2-0.1-0.3-0.1-0.5c3.1,0.1,6.1,0.7,9-1.1c-1.7-0.4-3.2-0.8-4.7-1.2   c3.3-1.9,7.1-1.6,10.4-3.4l-0.1,0.1c0,0,0-0.1,0-0.1c1.2,0.2,2.1,0.9,3.3,0.8c-0.1,0.2-0.2,0.4-0.2,0.6c-1.8-0.4-3.2,1.1-4.8,1.5   c-0.5-0.2-1-0.5-1.6-0.8c-0.6,0.3-1.2,0.6-2.2,1c3.3,1.8,5.5,0.8,8.6-0.5C493,287.4,493,288.3,492.9,289.3z M479.7,298.2   c1,0.6,2,0.6,3,0C481.7,297.6,480.8,297.7,479.7,298.2z" />
	<path display="inline" fill="#DEC7A8" d="M489.9,283.7c-8.8,5-17.8-0.4-25.9-4.4c1.2-2.2,3.5-3.8,5.2-5.4c1.6,0,3,0,4.4,0   c0.1,0.2,0.2,0.3,0.3,0.5c-0.4,0.1-0.8,0.2-1.3,0.3c0.2,0.4,0.3,0.8,0.4,1.2c-2-0.2-3.7-0.3-5.5,0.6c0.2,0.7,0.4,1.1,0.5,1.6   c-0.2,0.3-0.4,0.6-0.9,1.2c1.7,0.2,2.6-0.1,3.7,0.9c-0.4,0.1-0.8,0.2-1.8,0.3c2.2,0.6,2.9,1.7,5.2,1.4c-0.7-0.5-1.4-1-2.1-1.5   c0.6-0.3,1.2-0.6,1.7-0.8c3.6,0.8,7,2.4,10.4,0.7c0.5,0.3,0.9,0.5,1.4,0.8c0,0.1,0,0.3,0,0.4c-1.2,0.2-1.4,1-1.6,2.3   c2.2-0.2,4.4-0.4,6.6-0.6c0,0.3,0,0.5-0.1,0.8C490.5,283.8,490.2,283.8,489.9,283.7C489.9,283.7,489.9,283.7,489.9,283.7z" />
	<path display="inline" fill="#C5B093" d="M464,304.9c-1.5-1.6-2.3-3.5-2.9-5.5c2.9,0.3,4,2.1,7.5,1.3c-3-1.2-6.2-0.8-6.9-4l0.1-0.1   c2.9,1.2,5.5,2.3,8.5,1.5c-1.3,2.8-1.7,5-2.1,8.4c0.2,0.5,0.7,1.4,1.2,2.3c-0.4,0.4-0.8,0.8-1.1,1.2c-0.2,0-0.3,0.1-0.5,0.2   c-0.6-0.5-1.2-0.9-1.7-1.4l0,0c0-0.2,0-0.5,0-0.7c0.4,0.1,0.8-0.1,1.2-0.2c-0.5-0.6-1.2-0.9-1.8-1.4l0-0.1   C464.9,305.8,464.4,305.4,464,304.9z" />
	<path display="inline" fill="#AD9A81" d="M453.3,308.6c0.3,0.1,0.7,0.2,1.1,0.3c0.4,1.4,0.8,2.8,1.3,4.6c0.2-0.9,0.3-1.5,0.4-2.1   c1.5,4.1,2.2,8.5,2,12.8c-0.2,0-0.4,0-0.7,0l-0.1,0.1c0.5-2.2-0.8-4.1-1.1-6.1c0.1,2.4-0.9,5.5,0.4,7.5c-0.2,3.9,0.4,6.4-1,10.5   C455.1,326.9,454.9,317.8,453.3,308.6z" />
	<path display="inline" fill="#312924" d="M469.3,308.7c-0.5-0.9-0.9-1.8-1.2-2.3c0.4-2.6,0.3-4.3,1.3-6.4c0.2,0.8-0.3,1.7,0.6,2.3   c0.2,0.9-0.2,2,0.8,2.6c0,0.3,0,0.7,0.1,1c-0.4,0.3-0.8,0.6-1.3,1c3,3.3,4.5,7.1,8,9.9c1-0.6,1.7-1.1,2.5-1.6   c0.1,0.7,0.2,1.3,0.3,1.9c-1.1,1.5-2.6,1.5-4,1.6c-0.7-0.6-1.3-1.1-1.9-1.5l0,0.1c0-3-4.9-1.7-6.7-3.3c-0.1,0-0.3,0.3-0.4,0.4   c-1.2-0.5-0.2-1.5,0.2-2.3c0.9,0.5,4.9,2.9,4.9,0.8C471.4,311.4,470.4,310,469.3,308.7z" />
	<path display="inline" fill="#C1AD91" d="M460.2,317.9c1.6,5,3.1,9.9,4.2,14.9c-2.3,1.2-2.3,1.2-4.6,1.4   C460.4,328.8,458.4,323,460.2,317.9z" />
	<path display="inline" fill="#D2BD9E" d="M468.7,292.3c-1.8-0.1-3.7-2.6-4.9-0.6c-0.9-0.5-1.8-1-2.8-1.6c0.3-1.8,0.5-3.3,0.8-4.9   c4.3,2.4,8.6,5.7,13.4,6.3l0,0c0.2,0.7,0.8,0.7,1.4,0.8c-1.7,0.9-3.7,0.5-5.7,0.6C470.5,291.9,469.5,292.3,468.7,292.3z" />
	<path display="inline" fill="#F1DCBC" d="M455.3,292.2c-1.3-0.8-0.2-2.2-0.9-3.2c-0.5,0.2-1,0.5-1.7,0.9c-0.9-4,2.3-7,4.8-9.6   c1.3,0.1,3.2-0.9,4.2-0.2l0,0C458.7,283.8,455.9,287.4,455.3,292.2z" />
	<path display="inline" fill="#D0BE9E" d="M470.2,297.9c-0.5,0-1,0-1.5,0l0,0c-0.2-0.8-0.8-0.7-1.5-0.7c-2.2-0.3-3.8-1.8-5.7-2.8   c-0.3-0.6-0.5-1.2-1-2.3c4.5,1.5,8.5,2.2,13.1,3C472.7,296.2,471.5,297.1,470.2,297.9z" />
	<path display="inline" fill="#E6E7E7" d="M468.5,322.4c1.7,1.4,0.9,3.4,0.8,5.1c-0.1,1.3,0.5,3.2-1.7,4   C466.9,328.8,465,324.1,468.5,322.4z" />
	<path display="inline" fill="#484238" d="M458.1,319.3c-1.9-6.7-3.4-13.6-2.7-20.7c0.9,0.6,0.7,1.5,0.6,2.2c-0.5,2.6,1,4.7,1.4,7.1   C455.2,311.1,460.1,316,458.1,319.3z" />
	<path display="inline" fill="#29211E" d="M487.5,359.9c-0.3,1.6-0.3,3.4-2.8,3.6c-2.3-1.9-4.9-3.3-7.5-3.7c0.5-0.3,1-0.5,1.5-0.8   c0.9-0.1,1.7,1,2.6,0.2c1.5,0.9,2.8,1.8,4.7,2.1c-0.1-0.7-0.1-1.1-0.1-1.6C486.5,359.8,487,359.8,487.5,359.9z" />
	<path display="inline" fill="#ADA68E" d="M476.7,272.9c-1.6-0.2-3.2-0.4-5.1-0.7c0.7-1.5,1.7-2,2.9-2.8c0.9,0.1,1.9,0.1,2.8,0.2   c-1.1,1.2-1.9,0.1-3.2,1.8c4.5,0.3,8,0.2,12.4,0.3c0,0.2,0.1,0.4,0.3,0.5C483.6,272.6,479.6,271.5,476.7,272.9z" />
	<path display="inline" fill="#45352C" d="M461.6,294.5c2.3,1.5,4.7,2.5,7.2,3.5l0,0c-2.1,1.4-4.8-1-7-1.5c-0.1-0.2-0.2-0.4-0.3-0.5   c-0.1,0.1-0.2,0.2-0.3,0.3c0.2,0.1,0.4,0.2,0.5,0.3c-0.1,1.6,1.6,2.3,2.8,2.8c-0.2,0.2-0.4,0.5-0.6,0.7c-0.9-0.3-1.8-1-2.8-0.8   c-1.2-0.9-0.5-2.5-0.7-3.8C460.8,295.2,461.2,294.9,461.6,294.5z" />
	<path display="inline" fill="#C3C0A4" d="M476.7,272.9c3.4-1.3,8.2-0.7,11.9-0.4c0.1,0.2,0.1,0.3,0.3,0.5   C485.7,275.6,480.5,273.8,476.7,272.9z" />
	<path display="inline" fill="#D4D6D6" d="M459.4,301.5c1.4,3.4,3.3,7,3,10.8c-2.7-3.1-3.4-6.9-3.5-10.8   C459.1,301.5,459.3,301.6,459.4,301.5z" />
	<path display="inline" fill="#635748" d="M453.3,308.6c0.2,1.5,0.5,3,0.5,4.4c-0.4,0-0.8-0.1-1.3-0.1c-1.2-1.7-1.1-3.9-2.3-5.9   c0.5-0.1,0.8-0.1,1.3-0.2c-0.1-0.9-0.3-1.8-0.5-3.3C452.9,305.2,452.5,307.1,453.3,308.6z" />
	<path display="inline" fill="#C0B399" d="M467.3,314.3c0.2-0.1,0.4-0.4,0.4-0.4c1.8,1.6,6.8,0.3,6.7,3.3c-1.4,0.6-2.9-0.1-4.3,0   c0-0.2-0.1-0.3-0.1-0.5c-0.1,0.1-0.2,0.2-0.3,0.2c0.2,0.1,0.3,0.1,0.5,0.2c-0.2,0.2-0.4,0.5-0.7,0.8   C468,317.2,468.2,315.4,467.3,314.3z" />
	<path display="inline" fill="#2E231E" d="M461.6,280.1c-1.1-0.7-8.6,1.4-7-2c0.5-0.2,1-0.5,1.5-0.7c1.2,0.1,2.3,0.3,3.5,0.4   c0.9,0.3,1.5,1.6,2.8,0.9C462.5,279.3,462.5,280,461.6,280.1z" />
	<path display="inline" fill="#443B31" d="M471.5,290.3c-3.7-0.9-6.5-3.3-9.7-5.1c-0.1-0.9-0.2-1.8,0.6-2.5c0.2,3.1,4.3,3.6,6.4,5.3   c1.1,1.5,2.8,0.2,4.2,0.8C472.5,289.3,472,289.8,471.5,290.3z" />
	<path display="inline" fill="#776355" d="M464,279.3c3.5,1.7,7,3.4,10.5,5c-0.5,0.1-1.2-0.1-1.4,0.7c-1.7-0.4-3.2-1.5-5.1-1.3l0,0   c0.1-0.4,0.2-0.8,0.4-1.2c-1.5-0.9-2.9-1.8-4.7-1.7C463.9,280.3,464,279.8,464,279.3z" />
	<path display="inline" fill="#9D907A" d="M458.7,317.9c-0.2-3.1-3.1-7.3-1.4-9.9c0.9,3.3,1.9,6.6,2.8,9.9c-0.8,1.3-0.6,2.9-0.7,4.4   C458.5,321,459.1,319.4,458.7,317.9z" />
	<path display="inline" fill="#30201B" d="M462.4,282.7c0.5-0.4,1-0.7,1.4-1.1c1.4,0.7,2.9,1.4,4.3,2.1l0,0c1.4,1.4,3.3,1.6,4.9,2.2   c0,0.2,0.1,0.4,0.1,0.7c-4,0.3-6.8-3.4-10.6-3.6C462.5,283.1,462.4,282.7,462.4,282.7z" />
	<path display="inline" fill="#9D9E9E" d="M459.4,301.5c-0.1,0-0.4,0-0.5-0.1c-1.7-3.1-0.8-7.2-0.4-10.7   C458.8,294.4,459.5,297.9,459.4,301.5z" />
	<path display="inline" fill="#3F362E" d="M477.3,269.6c-0.9-0.1-1.9-0.1-2.8-0.2c3.3-1.5,8.1-0.8,11.4,0.7c-1.9,0-3.8,0.1-5.8,0.1   c0,0,0,0,0,0C479.4,269.1,478.3,269.6,477.3,269.6z" />
	<path display="inline" fill="#342D26" d="M454.6,278.1c-0.2,0.5-0.9,1.2,0.3,1.5c-2.3,1-4.2,2.7-6.6,3.5c0.3-1.2,0.8-2.3,1.9-3   C451.8,281.2,452.7,277.9,454.6,278.1z" />
	<path display="inline" fill="#A39781" d="M483.1,268.9c-1.9,0-3.8-0.1-5.7-0.1c3.1-1.9,8.2-0.1,12-0.7c-0.2,0.2-0.5,0.5-0.7,0.7   C486.9,269,485,268.9,483.1,268.9z" />
	<path display="inline" fill="#141513" d="M463.8,329.4c-0.9-1.4-1.2-2.9-1.3-4.5c0.5-0.4,0.9-0.9,1.5-1.4   C465.3,325.7,464.1,327.5,463.8,329.4z" />
	<path display="inline" fill="#3B312D" d="M473.7,394c-0.8-2.1-1.7-4.2-2.6-6.7c2.3,0.4,2.3,2.9,3.4,4.5   C473.4,392.2,474.1,393.3,473.7,394z" />
	<path display="inline" fill="#85806C" d="M454.6,278.1c-1.9-0.2-2.8,3-4.4,2c1.5-2,3.3-4.6,5.9-2.7   C455.6,277.7,455.1,277.9,454.6,278.1z" />
	<path display="inline" fill="#7A6C5A" d="M457.4,324.3c0.2,0,0.4,0,0.7,0c-0.2,3.4,0.7,7.2-0.3,10.4   C457.2,331.4,457.7,327.6,457.4,324.3z" />
	<path display="inline" fill="#554B3E" d="M456.7,325.7c-1.3-2-0.3-5.1-0.4-7.5C456.7,320.7,458.4,323.3,456.7,325.7z" />
	<path display="inline" fill="#3B2822" d="M477.3,273.2c1.4,0.3,2.9,0.5,4.3,0.8c0,0.2,0,0.4,0,0.6c-2.5-0.1-5.1-0.1-7.6-0.2   c-0.1-0.1-0.2-0.3-0.3-0.5C474.9,273.8,476.2,274,477.3,273.2z" />
	<path display="inline" fill="#D2C0A3" d="M468.1,283.8c-1.4-0.7-2.9-1.4-4.3-2.1c0-0.3,0-0.6,0-0.8c1.7,0,3.2,0.8,4.7,1.7   C468.3,282.9,468.2,283.4,468.1,283.8z" />
	<path display="inline" fill="#5C4A3F" d="M467.7,310c0.1-0.1,0.3-0.1,0.5-0.2c0.9,0.5,1.8,0.9,2.8,1.4c-0.6,2.1-3.7-0.1-5.1-0.3   c0.3-0.3,0.5-0.6,0.8-0.9C467,310,467.4,310,467.7,310z" />
	<path display="inline" fill="#A09481" d="M467.3,311.5c1.2,0.2,3.8,1.7,3.6-0.6c0.5,0.7,1,1.4,1.4,2.1c-0.5,0-1.2-0.1-1.4,0.6   c-1.4,0.1-2.4-0.9-3.5-1.5C467.4,311.8,467.4,311.6,467.3,311.5z" />
	<path display="inline" fill="#9FC1A5" d="M456.1,277.4c-0.5-0.2-1-0.4-1.5-0.7c2.5-0.2,5-0.6,7.4,0.5   C460.1,277.9,458.1,277.7,456.1,277.4z" />
	<path display="inline" fill="#57483E" d="M488.7,268.8c0.2-0.2,0.5-0.5,0.7-0.7c0-0.2,0-0.4,0-0.7c0.2,0,0.5,0,0.7,0   c1,0.9,1,0.9,2,0c1-0.3,1.7,0.4,1.5,1.4c0,0,0-0.1,0-0.1c-1.2,0-2.5-0.3-3.5,0.6c-0.5,0-1,0-1.5,0   C488.7,269.2,488.7,269,488.7,268.8z" />
	<path display="inline" fill="#99A1A1" d="M465.8,321.6c-0.8-2-0.4-4.1-0.6-6.3c1.1,0.3,1.1,1.2,1.3,2c-0.8,0.9-0.7,1.8,0.1,2.7   c0,0.3,0.1,0.5,0.1,0.8C466.4,321,466.1,321.3,465.8,321.6z" />
	<path display="inline" fill="#877461" d="M452.5,320.6c0.3-0.5,0.5-1,0.8-1.5c1.1,1.5,0.5,3.1,0.5,4.7   C453,322.9,452.5,321.9,452.5,320.6z" />
	<path display="inline" fill="#312924" d="M466.7,307.8c-0.2,0.1-0.5,0.1-0.7,0.1c-0.2,0.1-0.3,0.2-0.5,0.3c0.2,0.1,0.4,0.2,0.5,0.3   c0,0,0,0,0,0c0,0.3,0,0.5,0,0.8c-0.5-0.1-1-0.1-1.4,0c-0.2-0.7-0.4-1.4-0.7-2.1c0.5-0.3,1-0.6,1.5-0.9c0,0.9,0.7,0.9,1.3,0.9l0,0   C466.7,307.4,466.7,307.6,466.7,307.8z" />
	<path display="inline" fill="#E4C6AA" d="M459.6,277.8c0.8-0.2,1.6-0.4,2.4-0.6c0.8,0.3,0.3,0.9,0.3,1.5   C461.1,279.4,460.5,278.2,459.6,277.8z" />
	<path display="inline" fill="#342822" d="M465.4,306.3c-0.5,0.3-1,0.6-1.5,0.9c-1.2-0.5-0.3-1.5,0.1-2.3   C464.4,305.4,464.9,305.8,465.4,306.3z" />
	<path display="inline" fill="#635748" d="M453.1,317.2c-0.9-1.1-0.7-2.4-0.6-3.6C453.5,314.6,453.2,315.9,453.1,317.2z" />
	<path display="inline" fill="#DCDCDC" d="M466.6,319.9c-0.8-0.9-0.9-1.8-0.1-2.7C467,318.1,467.2,319,466.6,319.9z" />
	<path display="inline" fill="#AE9078" d="M463.8,291.7c0.8-1.1,1.2-1.1,2.2-0.3c-0.7,0.4-1.2,1.1-2.1,0.8   C463.8,292.1,463.8,291.9,463.8,291.7z" />
	<path display="inline" fill="#54312D" d="M477.2,391.7c0.5-0.7,1.1-1.3,2.6-1.3c-0.7,0.7-1.1,1-1.5,1.4   C477.9,391.7,477.6,391.7,477.2,391.7z" />
	<path display="inline" fill="#757575" d="M462.4,312.3c0-0.5,0.1-1.1,0.1-1.6c0.7,0.8,0.8,1.6,0.4,3.1   C462.6,313,462.5,312.7,462.4,312.3z" />
	<path display="inline" fill="#99937A" d="M465.2,309.3c0.3,0,0.5,0,0.8,0.1c0.2,0.2,0.5,0.5,0.7,0.7c-0.3,0.3-0.5,0.6-0.8,0.9   c-0.2-0.3-0.5-0.6-0.7-0.8C465.2,309.8,465.2,309.5,465.2,309.3z" />
	<path display="inline" fill="#DCDCDC" d="M465.8,321.6c0.3-0.3,0.6-0.6,0.8-0.8c0.3,0.7,0.3,1.2-0.4,1.6   C466.1,322.1,466,321.8,465.8,321.6z" />
	<path display="inline" fill="#342822" d="M465.2,309.3c0,0.3,0,0.5,0,0.8c-0.2-0.2-0.4-0.5-0.6-0.7   C464.8,309.3,465,309.3,465.2,309.3z" />
	<path display="inline" fill="#2E231E" d="M461.2,280.9c0.1-0.3,0.3-0.6,0.4-0.8C461.5,280.3,461.3,280.6,461.2,280.9z" />
	<path display="inline" fill="#E1C7B6" d="M439.6,347c-0.3,0.2-0.6,0.4-0.8,0.6C439.1,347.3,439.4,347.2,439.6,347z" />
	<path display="inline" fill="#4C505E" d="M394.3,528.9c0.4,0.1,0.9,0.1,1.3,0.2c0.6,2.3,3.2,0.4,4.3,2c-0.5,3.9-4,5.6-5.7,8.7   c-26.7,9.8-29.7-45.9-4.3-44.9c0.5,10.7-2.1,21.5-1.1,31.9c1.6,1,3.2,2,4.9,3C393.9,529.4,394.1,529.1,394.3,528.9z" />
	<path display="inline" fill="#F6D9C7" d="M370.7,453.6c8.5-7.3,16.7-17.4,27.8-20.2c-1.6,9.6-4.2,19.1-5.7,28.8   C385.8,459.6,374.8,460.2,370.7,453.6z" />
	<path display="inline" fill="#E1C7B6" d="M370.7,453.6c4.1,6.6,15.1,6,22.1,8.6c-0.5,4.1-0.9,8.2-1.4,12.5   C379.4,473.5,354.6,469.7,370.7,453.6z" />
	<path display="inline" fill="#FD9976" d="M368.6,430.9c2.9-3.5,5.7-7.1,9.3-10c0.5,0.2,1,0.4,1.5,0.7c-0.8,3.8,6.6,2.4,7.5,5.6   c-3,0.1-6.1-0.6-9-0.6c-1,0.7-2,1.4-2.8,1.9c0.1,1.2,0.8,0.8,1.4,0.9c3.4,4,15.6-6.2,22.4,1.1c-8.7,1.3-12.3,11.2-20.3,12.4   c-2.2-1.9-2.3-5.1-4.9-6.3c1.5-1.3,3.1-2.7,4.8-4.1c-2.7-0.4-4.5-2.1-6.9-0.1c-0.9,0.2-1.6,0.7-1.4,2.1c0.9-0.6,1.5-1,2.1-1.4   c0.4,0,0.8,0,1.5,0c-1.2,2.9-3.7,4.1-5.7,5.7C365.7,437,369.3,433.5,368.6,430.9z M389.2,430.4c-0.8-0.3-7.9,1.2-8.9,4.8   C383.4,433.6,386.5,432.6,389.2,430.4z" />
	<path display="inline" fill="#F4D8C6" d="M400.6,426.5c-2.8-5.1-8.6-6.3-12.5-10.5c7.9-3.7,14.5-8,20.8-14.2   c-1.2,5.9-2.2,10.8-4,16.3c-2.3,0-2.7-3.4-5.1-2.5c1,1.8,2.9,2.7,4.5,3.9c-0.9,2.4-1.7,4.8-2.6,7.1   C401.3,426.6,400.9,426.6,400.6,426.5z M404.3,415c0.3-1.5-0.3-2-1.9-1.8C403.2,414,403.8,414.5,404.3,415z" />
	<path display="inline" fill="#EC8969" d="M373.5,436.6c0.2,0.2,0.4,0.4,0.7,0.6c-1.3,3.7-7,5-8.3,8.4c0.5-0.1,0.9-0.2,1.3-0.4   c0,1.7,0,1.7,1.5,2c-2.1,2.2-4.4,4.4-5.2,7.6c1.9-1.5,3.1-3.6,5-5c0.5,0.5,1,1,1.5,1.6c-1.5,4.6-7.8,5.3-6.4,11.4   c-8.2-8.8-2.3-24,5-32c0.8,2.6-2.8,6.1-0.5,7.9c-0.8,1.6-6,4.9-4.7,6.9C366.4,442.3,369.6,439.1,373.5,436.6z" />
	<path display="inline" fill="#FB9876" d="M368.7,447.3c-1.5-0.3-1.5-0.3-1.5-2c2.2-1.8,4.5-3.5,6.8-5.1c1.4,1.9,2.8,3.2,5.4,2.8   c-3.6,2.3-6.6,5.3-9.4,8.5c-0.5-0.5-1-1-1.5-1.6C368.9,449.1,369.9,448,368.7,447.3z" />
	<path display="inline" fill="#F39573" d="M379.1,420.1c1.5-1.9,3.4-3,5.9-3.6c0.3,0.7,0.6,1.3,0.8,1.9c3.2,2,6.8,3.6,9.8,5.9l0,0   c-0.1,0.6-0.2,1.3,0.7,1.5l0,0c-0.4,0.3-0.8,1.2-1.4,0.7c-0.6-1.2-1.8-0.5-2.7-0.7C388.7,422.3,383.5,421.9,379.1,420.1z" />
	<path display="inline" fill="#2F1913" d="M394.9,426.6c0.2,0.1,0.4,0.2,0.6,0.1c0.1,0.2,0.1,0.4,0.2,0.6c-0.5,0.2-1,0.4-1.5,0.7   c-5.7-1-11,2.9-16.8,2.1c1.5-0.9,3.5-0.6,3.2-2c2.2-2.2,6.9,1.1,7.8-2.1c0.6,0,1,1.1,1.8,0.4c-0.3-0.9-1-1.1-1.8-1.1c0,0,0,0,0,0   c-1.7-1.3-3.7-2.2-5.7-3c0-0.3,0-0.5,0-0.8c3.4,0.6,6.9,2.1,9.4,4.4C392.8,427.1,393.9,426.4,394.9,426.6z" />
	<path display="inline" fill="#201A18" d="M404.8,418.1c0.7-2.2,1.3-4.4,2-6.7c0.3,0.8-0.3,1.8,0.8,2.3c-0.1,5.6-4.5,10.2-4.8,15.6   c-1.4-0.5-2.5-1.3-3.7-2.1c0.6,0,1.2,0,1.4-0.8c0.3,0,0.7,0.1,1.1,0.1C402.8,423.8,403.8,420.9,404.8,418.1z" />
	<path display="inline" fill="#884C3A" d="M399.1,427.3c0.7,0.4,1.4,0.9,2.1,1.4l0,0c-0.2,0.2-0.5,0.5-0.7,0.7   c-1.6,0-2.4-1.4-3.6-2.1c0.2-0.2,0.4-0.4,0.7-0.6C398.1,426.9,398.6,427.1,399.1,427.3z" />
	<path display="inline" fill="#5C544E" d="M425.4,369.7c0.1,0.9-0.3,1.5-0.8,2.1c-1.3-0.9,0.1-2.5-1.1-3.3c0.2-0.3,0.4-0.6,0.6-0.9   C424.5,368.3,424.9,369,425.4,369.7z" />
	<path display="inline" fill="#23211E" d="M425.4,369.7c-0.7-1.1-2.4-2.8-0.5-3.7c-0.1,1,0.6,0.8,1.2,0.9   C425.8,367.9,425.6,368.8,425.4,369.7z" />
	<path display="inline" fill="#2D2D29" d="M382.7,441.9c0.6-0.6,1.3-1.2,1.9-1.8c0.4,0,0.7,0.1,1.1,0.1c-1,0.9-2,1.8-3,2.8   C382.8,442.6,382.8,442.2,382.7,441.9z" />
	<path display="inline" fill="#DC7D60" d="M397.6,426.7c-0.2,0.2-0.4,0.4-0.7,0.6c-0.4,0-0.9-0.1-1.3-0.1c-0.1-0.2-0.2-0.4-0.2-0.6   c0.3-0.3,0.6-0.5,0.9-0.8C396.8,426.1,397.2,426.4,397.6,426.7z" />
	<path display="inline" fill="#F39573" d="M379.4,421.6c-0.5-0.2-1-0.4-1.5-0.7c0.4-0.3,0.8-0.6,1.3-0.8l0,0.1   C379.3,420.6,379.3,421.1,379.4,421.6z" />
	<path display="inline" fill="#DC7D60" d="M396.3,425.9c-0.8-0.2-0.8-0.8-0.7-1.5C395.9,424.9,396.1,425.4,396.3,425.9z" />
	<path display="inline" fill="#DC7D60" d="M395.7,424.4c-0.3-0.2-0.5-0.5-0.8-0.7C395.2,423.9,395.4,424.2,395.7,424.4z" />
	<path display="inline" fill="#5C544E" d="M425.4,364.7c-0.2,0.3-0.3,0.6-0.5,0.9C425.1,365.3,425.3,365,425.4,364.7z" />
	<path display="inline" fill="#201A18" d="M400.6,429.4c0.2-0.2,0.5-0.5,0.7-0.7C401,428.9,400.8,429.2,400.6,429.4z" />
	<path display="inline" fill="#F7EFD0" d="M508.6,562.4c2,0.8,4.1,1.6,6.3,2.5c1.5,9.6-36.3,7.5-40.9,2.4c-3.5,0-3.7,0.1-6.8,1.8   c-3.1,1.8-7.2,0.7-10.5,1c-4.3-8.1,1.6-17.2,0.9-25.9c8.1,17.3,16.2-3.2,23.6-2.9c0.7,1.1,1.5,2.4,2.3,3.7   c-2.1,1.6-4.8,2.4-6.1,4.9c0.2,0.3,0.5,0.5,0.8,0.9c2.4-1.5,4.5-3.4,7.3-4.1c1.3,0.5,2,1.6,3,2.8c-1.7,1.3-7,1.5-5.3,4.5   c3,0.1,6-3.3,9.4-1.1c-1.7,1.1-4.6,1.1-3.9,3.6c2.6,1.2,4.7-1.4,7.6-1.2c-0.7,1-0.9,1.2-1.3,2.2c1.2,1.3,2.5,0,3.9,0.3   c0.3,0.4,0.7,1,1,1.5C502.9,560.3,505.7,561.4,508.6,562.4z" />
	<path display="inline" fill="#EBDDB8" d="M457.4,547.3c0.5,7.5-4.9,15.9-0.7,22.9c3.3-0.3,7.4,0.8,10.5-1c3.1-1.7,3.3-1.8,6.8-1.8   c7,5.2,36.1,6.8,41.2-0.9c0.5,1.7,1,3.5,1.5,5.2c-12.9,5.6-26.4,5.9-39.6,1.2c-8.7-2.1-20,4.7-27.2-3c2.6-5.3,0.8-11.6,3.9-16.5   c0.7-0.2,1.3-0.3,2.1-0.5C456.3,551.1,456.8,549.2,457.4,547.3z" />
	<path display="inline" fill="#E0C7B6" d="M497.3,469.2c-2.7,6.2-9.1,10.5-13.5,16c0.1,0.7,0.2,1.4,0.4,2.1   c-6.4,11.4-4.1,26.7-11.9,37.3c0-0.6,0.1-1.1,0.1-1.7c-0.2-0.1-0.4-0.2-0.6-0.3c-0.5,0.7-1.1,1.4-1.6,2.1c-0.3,0-0.6,0-0.9,0   c7.7-21.5,5.1-44.2,26.9-56.7C497.3,467.9,497.2,468.6,497.3,469.2z M477.1,509.2c-0.1,0.1-0.3,0.2-0.4,0.2c0.2,0.4,0.4,0.1,0.7,0   C477.2,509.3,477.2,509.3,477.1,509.2z" />
	<path display="inline" fill="#4C505E" d="M499.4,527.5c-2.6,5.6-12.3,12.6-17.1,6.4c2.7-5.7,6.1-11,9.3-16.3c2.3,2.5,4.1,6.3,8,5.9   C500.8,525,499.3,526.2,499.4,527.5z" />
	<path display="inline" fill="#DBC3B2" d="M469.5,531c-1.6,5.4-3,10.6-4.1,16.1c0.9,0.1,1.6,0.2,2.3,0.4c-1.7,1.3-3.6,0.4-5.6,0.7   c-0.6-2.1-1.8-3.9-0.8-6.1c1.8,0.5,0.8,2.8,2.5,3.3c0.2-0.2,0.6-0.5,0.6-0.6c-0.9-3.2-0.1-6.4,1-9.4c0,0,0,0,0,0   c1.6-1.1,2.3-2.9,3.3-4.5C468.9,531,469.2,531,469.5,531z" />
	<path display="inline" fill="#211F1F" d="M492.9,519.1c-0.4-0.5-0.9-1-1.3-1.5c0.9-0.9,2.4-2.5,0.7-3.6c1-1.4,1.9-2.8,2.9-4.2   c0,2.7,3.1,1.1,4.9,1.3c-1.3-1.3-0.9-2.6-2-3.4c0.4-0.5,0.8-1,1.2-1.5c0,1.1,0.7,1.7,1.4,2.7c0.2-1.9,1.6-3.7,0.3-5.3   c0.4-0.7,0.8-1.5,1.3-2.2c0.6,0.2,1,0.4,1.4,0.5c-1.4,3.9-2.4,7.9-2.1,12.1c-0.5-0.5-1-0.9-1.6-1.2c-0.4,0.5-0.8,1-1.1,1.5   c-1-1.3-1.6-2.4-3.1-0.8c0,1.5,0,3.2,0,4.9c-0.7,0.2-1.3,1.4-2,0c1.4-1,0.7-2.5,0.1-4.7c-0.1,2.1-0.1,3.4-0.1,4.6   C493.4,518.6,493.2,518.8,492.9,519.1z" />
	<path display="inline" fill="#332F2B" d="M468.7,530.9c-1,1.6-1.8,3.3-3.3,4.5c-0.2-0.4-0.4-0.8-0.7-1.4c0.6-1.2,0.9-2.6,2-3.7   c0.6,1.1,1.6-0.4,2.2-0.8C468.9,530,468.8,530.5,468.7,530.9z" />
	<path display="inline" fill="#9F9084" d="M468.8,529.5c-0.6,0.4-1.6,1.9-2.2,0.8c0.9-1.9,1.8-3.8,2.7-5.7c0.3,0,0.6,0,0.9,0   C469.7,526.3,469.2,527.9,468.8,529.5z" />
	<path display="inline" fill="#384750" d="M481.6,536c0.4,0.1,0.8,0.2,1.8,0.4c-1,0.2-1.4,0.3-1.8,0.4   C481,536.5,481,536.3,481.6,536z" />
	<path display="inline" fill="#332F2B" d="M465.3,535.4c-0.3,0.7-0.5,1.4-0.8,2.1C464.6,536.7,464.2,535.8,465.3,535.4z" />
	<path display="inline" fill="#F7EFD0" d="M433.3,577.9c4,1.6,7.1,4.2,11.4,5.6c0,1.7,0,3.5,0,5.2c-1.7,0-4-0.4-5,1.5   c-10.8,2.1-25.3,7.8-34.8,0.4c-1-1.2-2.4-2-4-1.9c-4.7,0-8.6-2.6-13.2-4c-0.5-1.6-1-3.3-1.5-5c1.6-4.2,3.1-8.3,3.2-12.8   c0.6-0.2,1.2-0.3,1.8-0.1c0.6,0.8,1.4,0.7,2.3,0.5c0.7,0.3,1.5,0.6,2.2,0.9c4.9-1.5,6-2.9,8.2-10.4c2.5-0.5,6.6-0.6,10.3,0   c0.6,1.9,1.2,3.7,1.8,5.7c-3.3,1.7-7.3,2.4-10.4,4.4c0.8,2.9,9-2.2,11.8-2.2c0.3,0.6,0.5,0.9,0.7,1.2c-1.8,2.4-8.5,0.6-8.5,4.3   c3.4,1,7.4-1.2,11.1-1.5c0.4,0.3,0.7,0.7,1.1,1c-1.5,1.8-4.7,0.8-6.4,2.4c0.1,4,6.8-0.6,9.4,1.1c-1.4,0.8-4.4,1-2.5,3.4   c2.5,0.5,6-2.9,8-0.8c-0.7,0.3-1.5,0.7-2.2,1C428.1,580.3,432.3,578.8,433.3,577.9z" />
	<path display="inline" fill="#EADCB7" d="M390.5,566.6c-0.3,0.1-0.7,0.2-1,0.3c-0.1,4.5-1.6,8.6-3.2,12.8c0.5,1.7,1,3.3,1.5,5   c4.5,1.4,8.4,4,13.2,4c1.6-0.1,3,0.7,4,1.9c8.5,7.4,20.8,1.3,30.7,1c-1.3,1.4-3.3,2-3.9,4c-12.3,3-23.4-1.2-35.1-3.4   c-5.1-0.3-10-1.8-14.4-4.4c3.5-6.4,1.1-27.2,8.4-28.3C389.7,561.9,388.3,564.5,390.5,566.6z" />
	<path display="inline" fill="#E1D4B1" d="M439.7,590.2c1-1.9,3.2-1.5,5-1.5c0.8,0.8,0.7,1.5,1,2.8c-2.5,3.7-7.2,3.2-11.5,3.4   c2.7-2.6,6.9-0.5,8.1-4.5C441.4,590.3,440.6,590.2,439.7,590.2z" />
	<path display="inline" fill="#F5D8C6" d="M396.3,565.9c-0.4-2.7-0.1-6.2,3.4-6c-0.4-7.5,4.3-13.9,7.3-20.4c0.2,0,0.4,0.1,0.6,0.1   l0,0c0.2,0.2,0.5,0.5,0.7,0.7l0,0c1.9,2.6,5.1,2.9,7.3,4.9c-1.7,2.8-3.4,5.7-3.9,9.2c-13.4,0-7.6,4.6-14.1,11.4   C397.2,565.9,396.7,565.9,396.3,565.9L396.3,565.9z" />
	<path display="inline" fill="#262C2A" d="M414,543.9c-2.3-0.5-4.1-1.9-5.7-3.6c0,0,0,0,0,0c-0.2-0.2-0.5-0.5-0.7-0.7c0,0,0,0,0,0   c-0.5-0.7-1.3-1.2-1.5-1.9c0.2-0.2,0.4-0.5,0.7-0.8c2.6,2.3,6.5,8.1,10.1,5.6c0.5,0.5,1,0.9,1.4,1.4   C416.9,543.9,415.4,543.9,414,543.9z" />
	<path display="inline" fill="#A4A590" d="M393.5,567.3c-0.8,0.2-1.7,0.3-2.3-0.5c0.4-0.1,0.9-0.2,1.4-0.4c-0.4-0.6-0.8-1.1-1.3-1.7   c2-0.8,3.3,1,4.9,1.2l0-0.1c0,0.2,0,0.5-0.1,0.7C395.3,566.9,394.2,566.3,393.5,567.3z" />
	<path display="inline" fill="#353842" d="M414,543.9c0.7,0,1.4,0,2.2,0c0,0.6,0.2,1.1-0.5,1.4C415.1,544.8,414.5,544.4,414,543.9z" />
	<path display="inline" fill="#090707" d="M396.2,566.6c0-0.2,0-0.5,0.1-0.7c0.5,0,0.9,0,1.4,0.1   C397.4,566.7,396.8,566.6,396.2,566.6z" />
	<path display="inline" fill="#474D59" d="M498,507.7c1.1,0.8,0.7,2.1,2,3.4c-1.6-0.1-2.9,0.6-4.2,0.1   C496.6,510,497.3,508.8,498,507.7z" />
	<path display="inline" fill="#B7A397" d="M501,503.6c1.3,1.5-0.1,3.3-0.3,5.3c-0.7-0.9-1.4-1.6-1.4-2.7   C499.8,505.3,500.4,504.4,501,503.6z" />
	<path display="inline" fill="#221A19" d="M519.4,450.1c0-0.5,0-0.9,0-1.4C520.2,449.1,520.2,449.6,519.4,450.1z" />
	<path display="inline" fill="#221A19" d="M517.9,447.2c-0.2-0.2-0.5-0.4-0.7-0.6C517.4,446.7,517.6,447,517.9,447.2z" />
	<path display="inline" fill="#221A19" d="M517.2,446.5c-0.2-0.2-0.5-0.5-0.7-0.7C516.7,446.1,516.9,446.3,517.2,446.5z" />
	<path display="inline" fill="#221A19" d="M516.4,445.8c-0.3-0.2-0.5-0.4-0.8-0.7C515.9,445.4,516.2,445.6,516.4,445.8z" />
	<path display="inline" fill="#221A19" d="M518.6,447.8c-0.2-0.2-0.4-0.4-0.7-0.5C518.2,447.4,518.4,447.6,518.6,447.8z" />
	<path display="inline" fill="#2A2722" d="M509.3,278.1c-2,1.5-2.3,0.3-3.5-1.4c0.5-0.5,0.9-1,1.4-1.4c0.3,0,0.7,0,1-0.1   c0.6,0.5,1.2,1.1,1.7,1.6C509.7,277.3,509.5,277.7,509.3,278.1z" />
	<path display="inline" fill="#544E43" d="M500.2,270.2c1.7,0.1,3.2,0.7,4.3,2.1c-0.1,0.1-0.2,0.2-0.2,0.3c-1.6-0.9-3.4-0.5-4.9-1.5   C499.7,270.7,499.9,270.5,500.2,270.2z" />
	<path display="inline" fill="#A8AA92" d="M500.2,270.2c-0.3,0.3-0.6,0.6-0.9,0.9c-1.2-0.5-2.3-1.1-3.5-1.6c0-0.2,0-0.5,0-0.7   C497.5,268.8,498.9,269.3,500.2,270.2z" />
	<path display="inline" fill="#544E43" d="M508.2,275.2c-0.3,0-0.7,0-1,0.1c-1-0.9-1.9-1.8-2.9-2.8c0.1-0.1,0.2-0.2,0.2-0.3   C506.1,272.7,507.1,274,508.2,275.2z" />
	<path display="inline" fill="#808470" d="M495.9,268.7c0,0.2,0,0.5,0,0.7c-0.7-0.2-1.4-0.4-2.1-0.6c0-0.3,0-0.6,0-0.8   C494.5,268.2,495.4,267.8,495.9,268.7z" />
	<path display="inline" fill="#888A76" d="M492.2,267.5c-1,0.9-1,0.9-2,0C490.9,267.5,491.6,267.5,492.2,267.5z" />
	<path display="inline" fill="#2A2722" d="M510.1,278.7c-0.3-0.2-0.5-0.4-0.8-0.6C509.5,278.3,509.8,278.5,510.1,278.7z" />
	<path display="inline" fill="#DEC5B4" d="M406.1,537.7c0.2,0.7,1.1,1,1,1.8c-2.7,5.6-6.2,11.2-7.3,17.3c-2.6,0.2-1.5,1.8-1.3,3.3   c-1.9,0-2.1,2.3-2.2,3.7c-0.8-0.9-0.9-2.6-2.9-2.3c4.3-8.2,7.4-16.7,10.6-25.4C404.6,534.7,405.6,537.1,406.1,537.7z" />
	<path display="inline" fill="#4B4E5B" d="M401.4,524.6c1-1.2,0.5-2.8,0.6-4.2c1.1,0.7,2.3,0.7,3.5,0.7c-1.4,3.6,5.7,12.8-0.6,12   c-0.8-2.4-1.6-5-2.3-7.4c-0.8-0.1-1.6,0.8-2-0.3C400.8,525.2,401.1,524.9,401.4,524.6z" />
	<path display="inline" fill="#353842" d="M404.9,533.2c1.2,0,2.9,0.3,2.8-1.4c2.2,4.2,4.6,8.7,9.2,10.7c-3.6,2.5-7.5-3.3-10.1-5.6   c-0.3,0.4-0.5,0.6-0.7,0.8c-0.4-0.6-0.8-1.2-1.2-1.7C406,535.4,404.9,534.1,404.9,533.2z" />
	<path display="inline" fill="#E1C7B6" d="M497.3,469.2c0-0.7,0-1.3-1-1.3c-10,2.2-19.8,2.3-30.1,3.8c0.9-2.9,1.7-5.3,2.5-8.2   c3.3,0,6.6,0,10.2,0c3.2,3.7,26.7-4,24.5,5.3C501.5,469.6,499.3,469.1,497.3,469.2z" />
	<path display="inline" fill="#020101" d="M468.2,457.1c0.6,1.2,0.6,2.4,0,3.6C467.1,459.4,467.1,458.5,468.2,457.1z" />
	<path display="inline" fill="#4C505E" d="M524.9,489.2c-21,0.6-23.9,46.8-2.8,46.8c0.4-0.1,0.7-0.1,1.4-0.2   c-0.9-0.5-1.1-0.2-1.3,0.3c-22.6-3.1-15-57.2,8.5-41.2l0,0c0.2,0.2,0.5,0.5,0.7,0.7l0,0c1.6,3.6,2.9,7.3,3.9,11.1   c3.3-0.5-2.1-5.4,0.4-6.8c7.1,13.7-1.9,47.9-21.2,35.1C500.5,523.5,503.2,488.4,524.9,489.2z M529.3,508.2   c-3.3-7.9-10.9,2.8-6.5,7.3c0,0.2,0.1,0.4,0.1,0.6c-0.2,0.4-0.3,0.8-0.5,1.3c6.5,5.9,11.7-4.7,8-9.5   C530,508,529.7,508.1,529.3,508.2z M535.9,519.3c0.1,0,0.2,0,0.4,0c0-0.9,0-1.9,0-2.8c-0.1,0-0.2,0-0.4,0   C535.9,517.5,535.9,518.4,535.9,519.3z" />
	<path display="inline" fill="#4B4F5D" d="M501.5,514c0-3.3,0.1-6.9,1.5-9.9c0.9,0.2,1.9,0.5,2.8,0.7c-0.6,4-0.8,8-0.7,12   c-1.1,0.1-2.2,0.2-3.5,0.3C501.5,516,501.5,515,501.5,514z" />
	<path display="inline" fill="#4B4F5C" d="M505.8,531c-0.7-1.1-1.7-2.1-1.5-3.5c-1.2-1,0-2.8-1.3-3.6c-0.2-0.9,0.3-2.2-0.7-2.8   c0-0.2,0-0.4,0-0.7c0.9,0,1.9,0,2.8-0.1c1.4,3,2.1,6.7,3.6,10C507.7,530.3,506.7,530.5,505.8,531z" />
	<path display="inline" fill="#363A45" d="M505.8,531c0.9-0.6,1.9-0.8,2.9-0.7c2.5,2.4,4,5.7,7.3,7.4C513,539.2,508,534.2,505.8,531   z" />
	<path display="inline" fill="#393B43" d="M505.1,520.4c-0.9,0-1.9,0-2.8,0.1c-0.2-0.1-0.4-0.2-0.6-0.3c-0.1,0.7-0.2,1.5-0.5,2.8   c-0.6-1-0.8-1.4-1.1-1.9c1.8-1.9-0.4-5.7-0.2-8.3c0.5,0.4,1.1,0.8,1.6,1.2c0,1,0,2,0,3.1c1.3-0.1,2.4-0.2,3.5-0.3   C505.1,518,505.1,519.2,505.1,520.4z" />
	<path display="inline" fill="#363844" d="M515.1,489.9c0.3-0.5,0.5-0.9,1.3-0.2C515.8,489.7,515.4,489.8,515.1,489.9L515.1,489.9z" />
	<path display="inline" fill="#4C505E" d="M414,498.4c0.3,0.3,0.5,0.5,0.8,0.8c-0.3,0.7-0.5,1.4-0.8,2.1c-1,0.4-1.4,1.1-1.4,2.1   c-5.8,8.3-6.5,22-0.7,30.6c0,1,0.4,1.8,1.4,2.1c0.2,1.7,1.2,2.6,2.8,2.9c1.2,1.6,4.8,3.9,6.4,2.1c0.4-0.1,0.8-0.1,1.3-0.2   c-0.7-0.7-1-0.3-1.3,0.2c-3.6-0.6-6.5-2.7-9.2-5c0.1-1.1-0.4-1.8-1.4-2.1c-4-9.9-3.6-20.6,0.7-30.5c1-0.4,1.4-1.1,1.4-2.1   c6.1-6.5,10.1-6,17-1.4c0,0,0,0,0,0c0.7,2.5,2.4,5,3.5,7.1c0.6,1.2,0.3,4.8,2,4.5c-0.1-2.1-2.2-5-0.6-6.6   c9.7,18-9.3,55.9-26.4,28.5C404.4,522.7,404.7,506.6,414,498.4z M431.8,516.2c0-0.7,0-1.4,0-2.3c-0.5-0.7-1.1-1.6-1.7-2.4   c-0.4,0.1-0.7,0.2-1,0.3c-5.3-5.1-9.2,5.1-5.7,9.3c-0.2,0.4-0.3,0.8-0.5,1.3C427.5,526.8,433,521.6,431.8,516.2z M436.7,521.5   c-0.1,0-0.2,0-0.4,0c0,0.9,0,1.9,0,2.8c0.1,0,0.2,0,0.4,0C436.7,523.4,436.7,522.4,436.7,521.5z" />
	<path display="inline" fill="#382D2C" d="M438.2,511.9c-1.3-4.4-2.7-8.9-5.6-12.9c0.2-0.2,0.4-0.4,0.6-0.7c2.5,3,4.3,6.3,5.2,10   c0.2,0.7,0.3,1.4,1.3,1.3C439.5,510.7,437.9,510.7,438.2,511.9z" />
	<path display="inline" fill="#50423C" d="M451.9,483.5c0.5-1.4,1.1-2.8,1.5-4.1c0.8-0.1,1.2,0.3,1,0.7c-1.3,2.4-0.8,5.4-1.8,7.7   C452.6,486.4,452.7,484.9,451.9,483.5z" />
	<path display="inline" fill="#4B4F5D" d="M402.7,517.5c-1.5-3.1,0.2-6.1,0.7-9.1c0.9,0.2,1.9,0.4,2.8,0.6c0.1,2.6-1,5.1-0.8,7.8   C404.7,517.4,403.8,517.7,402.7,517.5z" />
	<path display="inline" fill="#383B46" d="M402.7,517.5c1,0.2,1.9-0.1,2.7-0.7c0,1.4,0,2.9,0,4.3c-1.2,0-2.4,0-3.5-0.7   C401.8,519.4,402.2,518.4,402.7,517.5z" />
	<path display="inline" fill="#CEB8A9" d="M495.7,518.3c0-1.7,0-3.4,0-4.9c1-0.8,1.7-1.4,2.3-0.1c-0.3,0.5-0.7,0.9-0.9,1.3   c0.6,2.4,1.2,4.6,1.8,7.1c-0.8,0-1.4,0-2.1,0C496.4,520.5,496.1,519.4,495.7,518.3z" />
	<path display="inline" fill="#B19C90" d="M499.9,512.7c-0.1,2.6,2,6.3,0.2,8.3c-0.5-2.3-0.9-4.6-1.4-6.8   C499.2,513.7,499.6,513.2,499.9,512.7z" />
	<path display="inline" fill="#393B43" d="M502.3,521.1c0.6,0.3,0.7,0.9,0.6,1.4C502.3,522.3,502.3,521.7,502.3,521.1z" />
	<path display="inline" fill="#232729" d="M503,523.9c0.6,0.3,0.7,0.9,0.6,1.5C502.9,525.1,503,524.5,503,523.9z" />
	<path display="inline" fill="#232729" d="M503.7,526.8c0.2,0.3,0.4,0.5,0.6,0.8C504.1,527.3,503.9,527,503.7,526.8z" />
	<path display="inline" fill="#4B4F5C" d="M368.5,523.3c-1.1-5.1,5.1-3.7,0-7.8c-0.1-2.6,0.6-5,1.6-7.4c0.9-0.1,1.6-1.3,2.7-0.4   c-1.5,7.8-2,15.2,0.7,22.7c-0.7,1.3-1.9,0.5-2.8,0.7C369.3,528.6,368.7,526,368.5,523.3z" />
	<path display="inline" fill="#1C1D20" d="M373.5,530.4c-3.9-11.6-2.3-25.1,6.4-34.1l0,0c0.2,0,0.5,0,0.7,0c0.2,0.2,0.5,0.5,0.7,0.7   c-10,8-10.1,22.2-7.1,33.4c0,0,0,0,0,0C374,530.4,373.8,530.4,373.5,530.4z" />
	<path display="inline" fill="#1B1A1D" d="M511.5,499.8c2.1-8.8,13.8-13.9,19.2-4.9C521.8,488.2,517.3,491.9,511.5,499.8   L511.5,499.8z" />
	<path display="inline" fill="#202225" d="M532.1,497.7c-0.2-0.7-0.5-1.4-0.7-2.1C532.2,496,533.6,497.1,532.1,497.7z" />
	<path display="inline" fill="#202225" d="M531.4,495.6c-0.2-0.2-0.5-0.5-0.7-0.7C530.9,495.1,531.2,495.3,531.4,495.6z" />
	<path display="inline" fill="#353844" d="M373.5,530.4c0.2,0,0.5,0,0.7,0c0.7,5.1,4.4,8.9,9.1,11.2c-6.1,0.5-10.8-5.3-12.6-10.5   C371.6,530.9,372.8,531.6,373.5,530.4z" />
	<path display="inline" fill="#353844" d="M374.2,530.4c0-0.2,0.1-0.5,0.1-0.7c0.2,0.3,0.4,0.5,0.6,0.8   C374.7,530.4,374.5,530.4,374.2,530.4z" />
	<path display="inline" fill="#363741" d="M380.6,496.2c-0.2,0-0.5,0-0.7,0C380.1,495.7,380.4,495.5,380.6,496.2z" />
	<path display="inline" fill="#25201D" d="M409.3,442.9c-0.1-1.1-0.2-2.2-0.4-3.5c0.7,0.1,1.1,0.2,1.5,0.3c0.4,2.1,0.5,4.3,1.5,6.2   c-0.3,0.3-0.5,0.5-0.8,0.8C410.5,445.4,409.9,444.1,409.3,442.9z" />
	<path display="inline" fill="#2A221F" d="M442.5,349.1c0.4-3.1,4.2-1.1,4.4,1.2C445.2,350.2,444,349.3,442.5,349.1z" />
	<path display="inline" fill="#28211E" d="M404.8,435.8c0.2-0.5,0.4-1,0.6-1.5c1.9,1.9,2,2.7,0.4,5.3c-0.3-1.2-0.6-2.2-0.8-3.2   C405,436.1,405,436,404.8,435.8z" />
	<path display="inline" fill="#272523" d="M398.4,523.2c-0.2,0-0.4,0-0.6-0.1c-0.4-1.6-0.9-3.3-1.3-4.9c0.2-0.3,0.5-0.6,0.7-0.9   C397.9,519.3,399,521.1,398.4,523.2z" />
	<path display="inline" fill="#574A43" d="M458.5,354c-1.7-0.6-1.7-2.3-2.9-3.6C457.9,350.9,458.6,351.9,458.5,354z" />
	<path display="inline" fill="#412F2B" d="M437.7,360.9c0.9-1.2,1.6-2.5,3.1-3.2C440.8,359.7,440.4,360.2,437.7,360.9z" />
	<path display="inline" fill="#151E1C" d="M451.9,349.6c-0.8,0.1-1.5,0.2-2.4,0.3C450.6,348.2,450.8,348.1,451.9,349.6z" />
	<path display="inline" fill="#080A09" d="M411.2,446.6c0.3-0.3,0.5-0.5,0.8-0.8c0.6,0.7,0.9,1.5,0.5,2.5   C411.4,448.1,411.3,447.4,411.2,446.6z" />
	<path display="inline" fill="#403430" d="M395.6,523.3c0,0.4,0.1,0.8,0.2,1.5c-1.6,0-1.7-1-1.9-2c0.4-0.1,0.7-0.1,1-0.1   C395.1,522.8,395.3,523,395.6,523.3z" />
	<path display="inline" fill="#292320" d="M412.9,450.1c0.3,0.1,0.6,0.2,1,0.4c-0.1,0.8-0.3,1.2-1,1.6   C412.4,451.2,412.4,450.8,412.9,450.1z" />
	<path display="inline" fill="#161413" d="M397.1,517.4c-0.2,0.3-0.5,0.6-0.7,0.9c-0.2-0.6-0.3-1.1,0.3-1.6   C396.8,516.9,397,517.1,397.1,517.4z" />
	<path display="inline" fill="#D5BDAC" d="M443.2,385.4c-0.2,0.2-0.5,0.4-0.7,0.6C442.7,385.8,443,385.6,443.2,385.4z" />
	<path display="inline" fill="#D5BDAC" d="M444,384.8c-0.3,0.2-0.5,0.4-0.8,0.6C443.5,385.2,443.8,385,444,384.8z" />
	<path display="inline" fill="#D5BDAC" d="M444.9,384.1c-0.3,0.2-0.6,0.5-0.8,0.7C444.1,384.2,444.3,384,444.9,384.1z" />
	<path display="inline" fill="#DFC5B4" d="M506.7,459.2c-7.5,3.5-9.5-5.5,2.8-3.4C508.7,457,506.7,457.7,506.7,459.2z" />
	<path display="inline" fill="#27221F" d="M496.5,486.3c0,4.9-2.4,8.7-5.6,12.2c-0.3-0.3-0.6-0.5-0.8-0.8c1.8-3.8,4.3-7.3,5.7-11.3   C496,486.3,496.3,486.3,496.5,486.3z" />
	<path display="inline" fill="#332A27" d="M510.1,447.9c-2.6-1.2-4.8-3.7-8-4.5C503.8,440.9,510.2,445.2,510.1,447.9   C510,447.9,510.1,447.9,510.1,447.9z" />
	<path display="inline" fill="#302C28" d="M468.8,529.5c0.8-2.5,1.1-5.1,3-6.9c0.2,0.1,0.4,0.2,0.6,0.3c0,0.6-0.1,1.1-0.1,1.7   c-1.6,1.5-2,3.7-2.8,5.7c-0.2,0-0.5-0.1-0.7-0.1C468.8,530,468.8,529.8,468.8,529.5z" />
	<path display="inline" fill="#342B28" d="M515.6,451.1c1.9,1.7,1.9,3.4,1.6,5.5C515.4,455,514.6,453.6,515.6,451.1z" />
	<path display="inline" fill="#322E2A" d="M510,447.9c2.1,0.2,3.1,4.2,1.5,5.5C510,452.3,510.7,449.6,510,447.9   C510.1,447.9,510,447.9,510,447.9z" />
	<path display="inline" fill="#483C37" d="M495.9,484.9c0.1-2,0.5-3.8,1.5-5.7c0.9,2.1,0.8,2.7-0.8,6.6   C496.4,485.5,496.2,485.2,495.9,484.9z" />
	<path display="inline" fill="#554742" d="M506.3,468.1c0.4-0.5,0.6-0.7,0.9-1c1.2,1.1,3.2,1.1,3.6,3.2   C509.1,470.8,508,468.9,506.3,468.1z" />
	<path display="inline" fill="#372623" d="M506.7,459.2c0-1.5,2-2.2,2.8-3.4C511.9,457,508.2,459.4,506.7,459.2z" />
	<path display="inline" fill="#2B2321" d="M483.8,506c-1.5,0.8-2.3,1.2-3.4,1.8C481.3,505.2,481.3,505.2,483.8,506z" />
	<path display="inline" fill="#534742" d="M490.1,497.6c0.3,0.3,0.6,0.5,0.8,0.8c-0.7,1.1-1.5,2-2.9,2.9   C488.1,499.5,489.5,498.8,490.1,497.6z" />
	<path display="inline" fill="#372724" d="M511.6,472.3c1.1,0.8,1.3,1.6,0.8,2.8C511,474.3,511.4,473.3,511.6,472.3z" />
	<path display="inline" fill="#61514B" d="M486.4,502.1c0.4,1.7-0.9,1.7-1.5,2.4C484.2,503.8,484.4,503.6,486.4,502.1z" />
	<path display="inline" fill="#372E2A" d="M497.2,477.2c-1.5-0.6-1.7-1.2-1.6-2c0.1-0.1,0.2-0.1,0.3-0.2   C496.9,475.1,496.6,476.1,497.2,477.2z" />
	<path display="inline" fill="#1E1B19" d="M495.9,484.9c0.3,0.4,1.1,0.9,0.6,1.4c-0.2,0-0.5,0-0.7,0   C495.8,485.8,495.9,485.4,495.9,484.9z" />
	<path display="inline" fill="#9F9084" d="M468.8,530.2c0.2,0,0.5,0.1,0.7,0.1c0,0.2,0,0.5,0,0.7c-0.3,0-0.6-0.1-0.8-0.1   C468.7,530.7,468.8,530.5,468.8,530.2z" />
	<path display="inline" fill="#322A26" d="M458.2,463.3c0.8,2,0.9,3.8,0.5,5.9c-1.8-1.5-1.1-3.6-2.3-5.4c-1-1-3.3-1.6-3.2-4.3   C455.6,460.3,456.3,462.8,458.2,463.3z" />
	<path display="inline" fill="#342C28" d="M428.9,486.3c0.7-2.8,2.8-4.6,4.7-6.6c0.4,0.1,0.7,0.2,1.1,0.3c-1.7,2.1-3.3,4.2-5,6.3   C429.4,486.3,429.1,486.3,428.9,486.3z" />
	<path display="inline" fill="#342421" d="M462.9,462c-0.4,1.6-3.6,1.5-4-0.3C459.9,460.7,461.9,461.2,462.9,462z" />
	<path display="inline" fill="#716159" d="M447.4,477.9c0.5,0.7,1.1,1.4,1.5,2c-1,1.3-1.9-0.9-2.1-1.7   C447,478.1,447.2,478,447.4,477.9z" />
	<path display="inline" fill="#6B6159" d="M428.9,486.3c0.3,0,0.5,0,0.8,0c-0.2,0.7-0.5,1.3-0.7,2c-0.3,0-0.7,0-1,0.1   C427.8,487.4,428.1,486.7,428.9,486.3z" />
	<path display="inline" fill="#49342F" d="M446.1,476.1c-0.4-0.5-0.8-1-1.2-1.6C446.1,474.4,446.1,474.4,446.1,476.1z" />
	<path display="inline" fill="#434751" d="M435.2,501.2c-0.2-0.2-0.3-0.5-0.5-0.7C434.9,500.7,435.1,501,435.2,501.2z" />
	<path display="inline" fill="#1A1513" d="M470.9,305.8c-0.5-2.3,0.8-4.2,1.6-6.1c2.2-1.1,3.8,1.8,5.5,2.7c0,2.8-0.6,4.6,2.2,5.9   c-0.7,1.2-0.9,2.6-2.7,2.4c-0.4-1.5-0.9-2.9-1.4-4.6c0.3-0.4,0.7-1.1,1.2-1.9c-0.3-0.4-0.7-0.9-1.1-1.5c-0.8,1-1.5,1.8-2.1,2.5   c-0.2,2.4,1.3,3.8,2.4,5.5l0,0c-0.2,0.3-0.4,0.5-0.7,0.8c-0.4,0-0.9,0-1.3-0.1c-4-2.7-1.5-6.7,0.3-9.7c-0.3-0.2-0.5-0.3-1-0.6   C472.9,302.6,472,304.2,470.9,305.8L470.9,305.8z" />
	<path display="inline" fill="#655D50" d="M481.6,274.5c0-0.2,0-0.4,0-0.6c2.3,0.5,5.6,0.7,7.3-1c2,1.2,3.9,2.2,6.3,2.2l0,0   c0,0.2,0,0.5,0,0.7c-1.5,1.5-3.1-0.2-4.6,0.1c0.5,4,5.7,1.5,7.3,3.6c-1.9-0.2-3.8-0.6-5.6,0.6c-1.5,0.1-3.2-0.5-4.3,0.7   c-0.3,0-0.5,0-0.8,0c-0.1-0.4-0.2-0.8-0.3-1.3c0.7-0.4,1.6,0.1,2.2-0.5c-0.6-0.4-0.9-0.7-1.3-1c0.6-0.1,1.2-0.2,2.1-0.4   c-1.1-0.5-1.9-0.8-2.7-1.2c0.6-0.1,1.2-0.2,2-0.3c-2.1-1.5-4.3-1-6.4-1C482.5,275.1,482.1,274.8,481.6,274.5z" />
	<path display="inline" fill="#4E493F" d="M505.8,276.7c0.5,0.7,1,1.4,1.4,2c-0.8,0.4-1.7,0.7-2.6,1.2c-1.4-0.5-2.7-1.8-4.4-1.1   c-0.1-0.2-0.1-0.4-0.1-0.6c1.3-0.5-0.1-1.3-0.7-1.8c0.6-3.5,3.5,0.7,4.4,1.7c0.4-0.1,0.7-0.3,1.1-0.4c-1.1-1.6-2.5-2.8-4.1-3.8   c0.6-1.7,2.5,0.3,3.5,0.6C504.2,275.6,505.2,276,505.8,276.7z" />
	<path display="inline" fill="#241D1B" d="M509.6,296.9c-1.6,1.4-2.5,2.7-1.9,4.8c-0.9-0.1-1.5-0.1-2-0.2c-0.8-0.1-0.8-1.5-1.9-1.4   c-0.7,0.1-1.4-0.1-2.3-0.1C503.8,297.4,506.1,296.1,509.6,296.9z" />
	<path display="inline" fill="#281E1B" d="M489.3,325.1c-4.3-0.6-9.6-3.4-8.3-8.6c1.7,0.8,1.6,2.5,2.1,4.1c2.1,2.1,5.1,2.5,7.7,3.7   C490.3,324.6,489.8,324.9,489.3,325.1z" />
	<path display="inline" fill="#322822" d="M500.1,278.2c0,0.2,0,0.4,0.1,0.6c-1,1.3-1.2,1.3-2.2,0.8c-1.7-2.1-6.8,0.4-7.3-3.6   c1.5-0.3,3.1,1.4,4.6-0.1C496.8,276.7,498.4,277.5,500.1,278.2z M494.2,277.4c0,0.2,0,0.4,0,0.5c0.4-0.1,0.8-0.1,1.2-0.2   c0-0.1,0-0.2,0-0.3C495,277.4,494.6,277.4,494.2,277.4z" />
	<path display="inline" fill="#D2BFAF" d="M478,305.7c0-1,0-2.1,0-3.3c-1.7-0.9-3.3-3.8-5.5-2.7c0-0.3-0.1-0.7-0.1-1   c2.9-3.7,5.4,2,7.7,3.5c-0.3,0.1-0.7,0.1-1.2,0.2C478.9,303.6,479.1,304.9,478,305.7z" />
	<path display="inline" fill="#CDB7A7" d="M476.5,310.6c-1-1.7-2.6-3.1-2.4-5.5c0.6-0.7,1.3-1.5,2.1-2.5c0.4,0.6,0.8,1,1.1,1.5   c-0.5,0.8-0.9,1.5-1.2,1.9c0.5,1.7,0.9,3.2,1.4,4.6C477.2,310.7,476.8,310.6,476.5,310.6z" />
	<path display="inline" fill="#62574C" d="M492.9,289.3c0.2-1.6-0.3-3.2,0.2-4.7c-0.6-0.1-1.1-0.1-1.7-0.2c0.8-0.6,2.3-0.7,1.8-2.3   c-0.3,0.1-0.7,0.2-1,0.3c-0.1-0.5-0.1-0.9,0-1.4c0.8-0.1,1.5-0.3,2.3-0.4C494.6,283.3,494.5,287.3,492.9,289.3z" />
	<path display="inline" fill="#281D1B" d="M503.7,293c4.2-0.3,5.9,0.2,7.3,2.6C508.2,295.9,505.9,294.4,503.7,293z" />
	<path display="inline" fill="#282722" d="M480.1,302.2c-0.7-0.7-1.5-1.4-2.2-2.1c1.6-1.1,3.4-0.8,5.2-0.8c-0.8,0.4-1.6,0.8-2.7,1.3   c1.5-0.1,2.7-0.2,4-0.3C483.5,302.6,481.9,302.5,480.1,302.2z" />
	<path display="inline" fill="#42302C" d="M503.7,293c0.7,0.5,1.4,0.9,2.1,1.3c-2.2,0.4-3.9,0.7-6.2,1.5   C500.6,293.9,502,293.2,503.7,293z" />
	<path display="inline" fill="#B7A991" d="M492.3,280.9c0,0.2,0,0.4,0,0.5c-1.4-0.2-2.8-0.4-4.2-0.6c1.1-1.2,2.8-0.5,4.3-0.7   C492.3,280.4,492.3,280.7,492.3,280.9z" />
	<path display="inline" fill="#5B544D" d="M489.3,325.1c0.5-0.2,1-0.5,1.5-0.7c0.7,0.2,1.5,0.4,2.2,0.6c0.2,0.4,0.4,0.8,0.8,1.5   C492.1,326,490.7,325.6,489.3,325.1z" />
	<path display="inline" fill="#A9988B" d="M472.6,309.3c0.7,0.7,1.3,1.4,2,2.1c-0.3,0.3-0.5,0.5-0.8,0.8c-1.2-0.6-1.5-1.8-2-2.9   C472,309.3,472.3,309.3,472.6,309.3z" />
	<path display="inline" fill="#CDB7A7" d="M475.9,311.4c0.2-0.3,0.4-0.5,0.7-0.8C476.6,311.1,476.4,311.4,475.9,311.4z" />
	<path display="inline" fill="#362B27" d="M502,425.7c-1.5,2.7-3,4.5-5.1,6C497.5,428.8,499,426.8,502,425.7z" />
	<path display="inline" fill="#403833" d="M485,336.3c0.1-0.4,0.1-0.9,0.3-2c0.9,1.6,2.4,2.8,0.7,3.9   C485.7,337.6,485.3,337,485,336.3z" />
	<path display="inline" fill="#9C8176" d="M488.1,345c-0.4,1-1.4,0.5-1.2-0.3C487.3,344,487.7,344.6,488.1,345z" />
	<path display="inline" fill="#654E48" d="M473.8,334.9c0.2,0.1,0.4,0.2,0.7,0.2c0.3,0.5,0.6,1.1,1,1.8   C474,336.4,474,336.4,473.8,334.9z" />
	<path display="inline" fill="#76665D" d="M473.2,334.9c-0.3-0.5-0.6-1.1-1-1.9c1.5,0.2,1.6,1.1,1.6,2   C473.6,334.9,473.4,334.9,473.2,334.9z" />
	<path display="inline" fill="#766B62" d="M487.3,341.7c-0.1,0.2-0.2,0.4-0.3,0.6c-0.5-0.2-0.4-0.5-0.2-0.9   C487,341.5,487.2,341.6,487.3,341.7z" />
	<path display="inline" fill="#201816" d="M483.9,329.8c-0.3-1.4-1.5-2.6-0.7-4.1c1.5,0,1.2,1.1,1.4,2   C484.3,328.3,484.8,329.3,483.9,329.8z" />
	<path display="inline" fill="#59514A" d="M483.9,329.8c0.9-0.5,0.4-1.5,0.7-2.2c0.9,1.1,0.5,2.4,0.5,3.7c-0.2,0-0.5,0-0.7,0   C484.3,330.8,484.1,330.3,483.9,329.8z" />
	<path display="inline" fill="#91867B" d="M484.5,331.4c0.2,0,0.5,0,0.7,0c0,0.8,0,1.6,0,3C484.3,333,484.5,332.2,484.5,331.4z" />
	<path display="inline" fill="#363843" d="M411.2,495.7c-0.2,0.2-0.5,0.3-0.7,0.5C410.7,496,411,495.9,411.2,495.7z" />
	<path display="inline" fill="#0F0C08" d="M438.9,415.3c-1.1-2.2-1.7-4.4-1.2-6.9c0.5-0.1,0.8-0.2,1.1-0.2   c0.6,12.5,15.7,12,24.9,10.2c0,0.4,0.1,0.8,0.1,1.1c-7.6,3.5-17.6,2.6-23.9-2.9l0,0C439.5,416.1,439.2,415.7,438.9,415.3z" />
	<path display="inline" fill="#48422D" d="M438.8,408.2c-0.3,0.1-0.7,0.1-1.1,0.2c-0.1,1.1-0.2,2.2-0.2,3.4c-1-1.8-0.5-3.1-1.8-4.6   c0.8-1.1,1.7-2.3,2.5-3.4c0.2,0.1,0.4,0.2,0.8,0.3c-0.4,1-0.8,2-1.1,2.9C438.2,407.4,438.5,407.8,438.8,408.2z" />
	<path display="inline" fill="#E3D48B" d="M438.9,415.3c0.3,0.4,0.6,0.8,0.9,1.2C439,416.5,439,415.9,438.9,415.3z" />
	<path display="inline" fill="#1C1B1E" d="M414,501.2c2.8-7.3,12.9-8.4,17.1-1.4C424.3,495.3,420.2,494.8,414,501.2L414,501.2z" />
	<path display="inline" fill="#222427" d="M434,505.5c-0.9-1.9-2.6-3.6-2.9-5.7C432.8,500.5,435.3,504.2,434,505.5z" />
	<path display="inline" fill="#323238" d="M435.4,506.2c0.4,1.7,0.8,3.4,1.2,5.2c-1.7,0.4-1.3-3.3-2-4.5   C434.9,506.7,435.1,506.4,435.4,506.2z" />
	<path display="inline" fill="#383530" d="M424.4,376c-0.4-0.8-0.6-1.7,0.1-2.4C425.7,373.5,425.5,375.2,424.4,376z" />
	<path display="inline" fill="#665A53" d="M425.2,379.5c-0.4-0.6-0.5-2.2,0.7-1.8C425.8,378.4,426.2,379.4,425.2,379.5z" />
	<path display="inline" fill="#5C544E" d="M426,366.9c-0.5-0.1-1.3,0.1-1.2-0.9C425.4,366.2,426,366.2,426,366.9z" />
	<path display="inline" fill="#2F211E" d="M401.9,436.8c-0.1,0.1-0.2,0.3-0.3,0.4c-0.4-0.2-0.1-0.4,0-0.7   C401.7,436.6,401.8,436.7,401.9,436.8z" />
	<path display="inline" fill="#EAD5B5" d="M452.5,280.9c0.8-0.4,1.6-0.8,2.4-1.3c0.9,0.2,1.7,0.5,2.6,0.7c-0.4,0.4-0.8,0.9-1.2,1.3   c-0.2-0.2-0.4-0.5-0.6-0.8c-3.2,2.8-4.6,6-5.1,10.1c-0.4-0.1-0.8-0.2-1.3-0.3C448.1,286.8,452,284.4,452.5,280.9z" />
	<path display="inline" fill="#4C443A" d="M450.9,289.2c0.2-3.5,2.3-6,4.7-8.4c0.3,0.3,0.4,0.6,0.6,0.8c-4,3.1-3.6,8.1-5.8,12   c-0.1-0.9-0.1-1.9-0.2-2.8l0.2,0.1C451.2,290.4,451,289.8,450.9,289.2z" />
	<path display="inline" fill="#9B8B74" d="M451.7,297.2c1.2,1.6,0.5,3.6,1.5,5.4c-2.1,0.2-2.1-3.7-2.2-5.4   C451.3,297.2,451.6,297.2,451.7,297.2z" />
	<path display="inline" fill="#685E4F" d="M451.7,297.2c-0.2,0-0.5,0-0.6,0c-0.2-1.2-0.4-2.4-0.7-3.6c0.4-0.7,0.8-1.4,1.2-2.1   C451.7,293.4,451.7,295.3,451.7,297.2z" />
	<path display="inline" fill="#E3D3B3" d="M462.5,283.1c3.8,0.2,6.6,3.9,10.6,3.6c1.5,0.9,1.7,0.9,2.9-0.1c0.2,0,0.5,0,0.6,0   c2.4,1.2,4.9,0.6,7.6,1.7c-4,2.4-8.3,1.1-12.4,0.3c-0.8-1-2-0.4-3-0.6C466.9,286.4,462.8,285.9,462.5,283.1z" />
	<path display="inline" fill="#A19179" d="M470.9,293c2.2,0.1,4.4,0,6.4-0.8c0.4,0.8,1,1,1.8,0.1c-0.7,0-1.2-0.1-1.8-0.1   c-0.5-1-1.4-0.6-2.2-0.7c0,0,0,0,0,0c-0.4-0.4-0.7-0.8-1.2-1.3c2.3-0.5,5.3,0.1,6.9,1.9c0,0.2-0.1,0.5-0.1,0.7   c1,0.1,2.1,0.1,3.1,0.2c-1.7,0.6-3.5,1.2-5.6,1.9C476.2,294.3,473.3,294.7,470.9,293z" />
	<path display="inline" fill="#211916" d="M476,297.9c-1.4-0.6-2.6-0.6-3.6,0.8c-1.5,0.7-1.7,2.2-2.3,3.5c-0.9-0.6-0.4-1.5-0.6-2.3   c0.3-0.7,0.5-1.3,0.8-2c0.7-0.5,1.4-1,2.1-1.5c1.3-0.1,2.5-0.1,3.6,0.7C476,297.4,476,297.6,476,297.9z" />
	<path display="inline" fill="#36241F" d="M479.5,287.1c-2.3,0.5-4.2-1.5-6.4-2.1c0.2-0.8,0.9-0.5,1.4-0.7c2.6,0.7,5,1.7,7.8,1.5   C481.4,286.4,480.5,286.8,479.5,287.1z" />
	<path display="inline" fill="#B5B69A" d="M484,293.1c-1-0.1-2.1-0.1-3.1-0.2c0-0.2,0.1-0.5,0.1-0.7c2.5-0.4,5-0.7,7.8-1.2   C487.4,292.7,485.7,292.9,484,293.1z" />
	<path display="inline" fill="#C5BCA1" d="M492.9,285.2c0,0.4,0,0.8,0,1.2c-0.9,0.3-1.8,0.6-2.8,1c-0.7-0.3-1.6,0.3-2.1-0.7   C489.8,286.3,491.2,284.8,492.9,285.2z" />
	<path display="inline" fill="#6B5648" d="M475.4,290c-0.4,0.1-0.8,0.2-1.3,0.3c0.4,0.5,0.8,0.9,1.2,1.3c-1.5,0.3-2.6-0.5-3.7-1.3   c0.5-0.5,1-1,1.5-1.5c0.7,0.2,1.5,0.5,2.2,0.7C475.3,289.6,475.3,289.8,475.4,290z" />
	<path display="inline" fill="#967C67" d="M475.9,297.2c-1.1-0.8-2.3-0.8-3.6-0.7c1.6-2.1,3.4-1.2,5.8-0.4   C477.2,296.6,476.5,296.9,475.9,297.2z" />
	<path display="inline" fill="#746959" d="M488.2,286.7c0.4,1,1.4,0.4,2.1,0.7c-1.9,1.5-3.7,0.1-5.8-0.5c0.9-0.4,1.5-0.7,2.2-1   C487.1,286.2,487.6,286.5,488.2,286.7z" />
	<path display="inline" fill="#E0DEBE" d="M492.3,282.3c0.3-0.1,0.7-0.2,1-0.3c0.5,1.6-1,1.7-1.8,2.3c-0.2-0.1-0.5-0.3-0.7-0.4   c0-0.3,0-0.5,0.1-0.8C491.4,282.9,491.8,282.6,492.3,282.3z" />
	<path display="inline" fill="#876355" d="M479.7,298.2c1-0.6,2-0.6,3,0C481.7,298.8,480.8,298.8,479.7,298.2z" />
	<path display="inline" fill="#A19179" d="M468.7,292.3c0.8,0,1.8-0.5,2.2,0.7C470.1,293.1,469.3,293.1,468.7,292.3z" />
	<polygon display="inline" fill="#E0DEBE" points="489.9,283.7 489.9,283.7 489.8,283.8  " />
	<path display="inline" fill="#1A1310" d="M484.4,280.2c-0.2,0-0.5,0.1-0.7,0.1l0-0.2c-4.7-1.1-10.6-2.6-15.7-2   c-0.1-0.4-0.3-0.9-0.5-1.6c5.7-2.2,11.8,1.4,17.6,2.3C485.2,279.4,485.1,280,484.4,280.2z" />
	<path display="inline" fill="#E4D1B2" d="M482.9,278.2c-3.3-0.8-6.6-1.6-9.8-2.4c-0.1-0.4-0.3-0.8-0.4-1.2c3.9-0.3,8.9-1.3,11.8,2   C483.1,276.4,483.8,277.4,482.9,278.2z" />
	<path display="inline" fill="#DFD6B7" d="M468.1,278c5.2-0.7,10.6,1.1,15.7,2l0,0.2c-3,1.8-6.4-0.3-9.7-0.8   c-0.7,0.3-1.6,0.8-2.4,0.9c-1.5-0.9-2.4-1.1-4.3-1.1C467.7,278.6,467.9,278.3,468.1,278z" />
	<path display="inline" fill="#37332C" d="M492.3,282.3c-2.4,1.5-5.4,0.9-8.1,1.4c0.1-3,1.9-1.5,3-2.8c1.7-0.1,3.3,0.4,5,0.6   C492.3,281.8,492.3,282.1,492.3,282.3z" />
	<path display="inline" fill="#312923" d="M484.4,280.2c0.7-0.2,0.8-0.8,0.7-1.4c1.4-1.1,2.8-0.9,4,0.3c-0.7,0.6-1.6,0.1-2.2,0.5   c0.1,0.4,0.2,0.8,0.3,1.3l0,0c-0.5,0-1,0.1-1.5,0.1C485.3,280.8,484.9,280.5,484.4,280.2z" />
	<path display="inline" fill="#9C8873" d="M471.6,280.4c0.2-0.1,0.4-0.1,0.7-0.1c0.7,0.5,1.4,1,2.1,1.5c-1.3,0-2.5,0-3.5-0.8   C471.1,280.8,471.3,280.6,471.6,280.4z" />
	<path display="inline" fill="#806455" d="M471.6,280.4c-0.2,0.2-0.5,0.4-0.7,0.6c-0.4-0.1-0.8-0.3-1.7-0.6   C470.5,280.3,470.7,279.9,471.6,280.4z" />
	<path display="inline" fill="#8A937D" d="M485.8,281c0.5,0,1-0.1,1.5-0.1c-0.3,0.6-0.9,0.6-1.5,0.5   C485.8,281.3,485.8,281.2,485.8,281z" />
	<path display="inline" fill="#D2C0AC" d="M470.9,310.8c0,0.1,0,0.3,0,0.4c-0.9-0.5-1.8-0.9-2.8-1.4c0.4-0.4,0.8-0.8,1.1-1.2   C469.9,309.4,470.4,310.1,470.9,310.8z" />
	<path display="inline" fill="#978871" d="M463.8,300.2c0.2-0.2,0.4-0.5,0.6-0.7c1.1,0.3,2.2,0.6,4.1,1.2   C466.4,300.7,465,301.2,463.8,300.2z" />
	<path display="inline" fill="#342822" d="M466.7,310c-0.2-0.2-0.5-0.5-0.7-0.7c0-0.3,0-0.5,0-0.8c0.6,0.5,1.2,0.9,1.7,1.4   C467.4,310,467,310,466.7,310z" />
	<path display="inline" fill="#342822" d="M466.7,307.2c-0.6,0-1.3,0.1-1.3-0.9C465.8,306.6,466.3,306.9,466.7,307.2z" />
	<path display="inline" fill="#342822" d="M466.7,307.8c0-0.2,0-0.4,0-0.6c0.2,0.2,0.3,0.3,0.5,0.5   C467,307.7,466.9,307.8,466.7,307.8z" />
	<path display="inline" fill="#342822" d="M466,308.6c-0.2-0.1-0.4-0.2-0.5-0.3c0.2-0.1,0.3-0.2,0.5-0.3   C466,308.1,466,308.4,466,308.6z" />
	<path display="inline" fill="#978871" d="M463.9,299.3c-0.3-0.2-0.5-0.4-0.8-0.6C463.4,298.9,463.6,299.1,463.9,299.3z" />
	<path display="inline" fill="#B4A596" d="M470.1,302.2c0.6-1.3,0.8-2.8,2.3-3.5c0.4,2.2-1.8,3.8-1.5,6.1   C469.9,304.1,470.3,303.1,470.1,302.2z" />
	<path display="inline" fill="#D9C4B3" d="M472.6,309.3c-0.3,0-0.6,0-0.9,0c-0.7-0.8-1.3-1.5-2.1-2.5c0.5-0.4,0.9-0.7,1.3-1   c0,0,0,0,0,0c0.2,0.8,0.9,0.5,1.4,0.7C472.5,307.4,472.5,308.4,472.6,309.3z" />
	<path display="inline" fill="#EFD7C5" d="M471,313.5c0.2-0.8,0.8-0.6,1.4-0.6C472.4,314.2,471.6,313.5,471,313.5z" />
	<path display="inline" fill="#6B5648" d="M475.2,291.6c0.8,0.1,1.7-0.3,2.2,0.7l0,0C476.6,292.4,475.5,292.5,475.2,291.6z" />
	<path display="inline" fill="#C5B093" d="M468.8,298c-0.5-0.2-1-0.5-1.5-0.7C468,297.2,468.6,297.2,468.8,298z" />
	<path display="inline" fill="#3B362E" d="M500.3,275.1c-0.8,0.1-0.9,0.7-0.9,1.3c-1.5-0.2-2.6-1.6-4.2-1.3l0,0   c-0.5-0.4-1-0.9-1.5-1.3c-0.2-0.7-0.4-1.5-0.6-2.2c-1.5,0.2-3.4-0.6-4.5,0.8c-0.6-0.1-1.2-0.2-1.8-0.3c-0.1-0.1-0.2-0.3-0.3-0.5   c0.8-0.4,1.6-0.6,2.1-1.4c2.9,0.3,6.3,0.5,8.7,2c-1,0.5,0.1,0.9,0.7,0.8l0,0c0.2,0.9,0.8,0.8,1.5,0.7l0,0   C499.7,274.2,500,274.7,500.3,275.1z M495.8,273.8c-0.2-0.5-0.5-0.9-1.1-0.2C495.2,273.7,495.5,273.7,495.8,273.8   c0.3,0.4,0.5,0.9,1.1,0.1C496.5,273.9,496.2,273.8,495.8,273.8z" />
	<path display="inline" fill="#91806E" d="M477.3,269.6c1,0,2.2-0.5,2.9,0.6c-1.1,0.1-2.1,0.4-2.8,1.4c-0.9-0.1-1.8-0.1-3.3-0.2   C475.4,269.7,476.2,270.8,477.3,269.6z" />
	<path display="inline" fill="#251714" d="M488,271c-2.3,1.4-5.2,0.4-7.8,0.6c0-0.3,0-0.5,0-0.8C482.8,270.9,485.4,270.9,488,271z" />
	<path display="inline" fill="#3F362E" d="M480.2,270.9c0,0.3,0,0.5,0,0.8c-0.9,0-1.9,0-2.8,0c0.7-1,1.7-1.3,2.8-1.4l0,0   C480.2,270.4,480.2,270.6,480.2,270.9z" />
	<path display="inline" fill="#CDC2A3" d="M461.7,296.6c-0.2-0.1-0.4-0.2-0.5-0.3c0.1-0.1,0.2-0.2,0.3-0.3c0.1,0.2,0.2,0.4,0.3,0.5   C461.8,296.5,461.7,296.6,461.7,296.6z" />
	<path display="inline" fill="#251714" d="M488.7,272.5c1.1-1.4,2.9-0.7,4.5-0.8c0.2,0.8,0.4,1.5,0.6,2.2c-1.6-0.3-3.2-0.7-4.8-0.9   C488.8,272.8,488.7,272.7,488.7,272.5z" />
	<path display="inline" fill="#020101" d="M470.3,317.1c-0.2-0.1-0.3-0.1-0.5-0.2c0.1-0.1,0.2-0.2,0.3-0.2   C470.1,316.8,470.2,317,470.3,317.1L470.3,317.1z" />
	<path display="inline" fill="#6B5648" d="M468.8,288c1,0.2,2.2-0.4,3,0.6C470.8,288.6,469.6,289.2,468.8,288z" />
	<path display="inline" fill="#A5A189" d="M473.2,285c1.2,0.5,2.3,1,3.5,1.5c-2.9-0.3-6.2-0.9-8.6-2.8   C469.9,283.6,471.5,284.7,473.2,285z" />
	<path display="inline" fill="#5C4C41" d="M473,286c1,0.2,2,0.4,3,0.6c-1.3,1-1.4,1-2.9,0.1C473.1,286.4,473.1,286.2,473,286z" />
	<path display="inline" fill="#130C0B" d="M497.3,272.3c-4.1-2.6-9.8-1-14.2-3.4c1.2,0,2.3,0,3.5,0c1,1.1,2.4,0.3,3.7,0.5   c1.3,0.1,2.6,0.6,3.5-0.6c0,0,0,0.1,0,0.1c4.7,2,10,2.4,13.4,6.4c-0.5,0.5-0.9,1-1.4,1.4c-0.2-0.3-0.5-0.5-0.7-0.8   c0.6-1.2-4-3.8-4.2-2c-0.5-0.1-1-0.1-1.4-0.2l0,0c-0.2-0.8-0.8-0.9-1.5-0.7l0,0C497.8,272.8,497.5,272.5,497.3,272.3z" />
	<path display="inline" fill="#798774" d="M485.9,270.1c0.9,0.1,1.8,0.1,2.7,0.2c-0.2,0.2-0.4,0.4-0.6,0.6c-2.6,0-5.2-0.1-7.8-0.1   c0-0.2,0-0.4,0-0.7C482.1,270.2,484,270.2,485.9,270.1z" />
	<path display="inline" fill="#3F362E" d="M488.8,269.4c-0.8,0-1.6,0.3-2.2-0.5c0.7,0,1.4-0.1,2.1-0.1   C488.7,269,488.7,269.2,488.8,269.4z" />
	<path display="inline" fill="#808470" d="M493.8,268.8c-0.9,1.2-2.2,0.7-3.5,0.6C491.2,268.5,492.5,268.8,493.8,268.8z" />
	<path display="inline" fill="#23140F" d="M367.8,439.4c0.1-0.2,0.2-0.4,0.2-0.6c2-1.6,4.4-2.8,5.7-5.7c-0.7,0-1.1,0-1.5,0   c-0.2-0.2-0.5-0.5-0.7-0.7c2.3-2,4.2-0.2,6.9,0.1c-3.2,2.9-6.2,5.3-9.7,7.6C368.3,439.9,368.1,439.6,367.8,439.4z" />
	<path display="inline" fill="#321C16" d="M378.4,442.9c-2.3,0.5-3.2-1.4-4.5-2.8c-1.3,1-2.7,1.9-4,2.8c-0.3-0.3-0.5-0.5-0.8-0.8   c1.5-1.7,4.4-2.7,5-5C376.5,438.1,376.4,441.5,378.4,442.9z" />
	<path display="inline" fill="#663C2E" d="M389.2,430.4c-2.7,2.1-5.8,3.2-8.9,4.8C381.2,431.7,388.5,430.1,389.2,430.4z" />
	<path display="inline" fill="#452920" d="M388.5,425.9c-1,0.8,0.3,1.7-1.6,1.3c-1-2.4-4.7-2.3-6.9-3.6c0.2-0.2,0.5-0.4,0.7-0.6   c2.6,0.8,5.1,1.6,7.8,2.2l0,0C388.5,425.4,388.5,425.6,388.5,425.9z" />
	<path display="inline" fill="#391E17" d="M383.7,427.2c-1,0.3-2.2-0.4-3,0.7c-1.8-0.5-3.3-0.4-4.3,1.5c-0.5,0-1.2,0.3-1.4-0.9   c0.8-0.6,1.8-1.2,2.8-1.9C379.7,427,381.8,426.3,383.7,427.2z" />
	<path display="inline" fill="#DA8A6A" d="M376.4,429.4c1-1.8,2.5-2,4.3-1.5c0.3,1.4-1.7,1.2-3.2,2c1,0.2,1.4,0.2,1.8,0.3   C377.6,431.6,377.5,430.4,376.4,429.4z" />
	<path display="inline" fill="#5B362A" d="M380.7,423c-0.2,0.2-0.5,0.4-0.7,0.6c-1.4-0.3-0.2-2.3-0.8-3.4c1.2,0.4,2.4,0.8,3.6,1.3   c0,0.3,0,0.5,0,0.8c-1.1-0.3-1.8-0.5-3-0.4c0.4,0.3,0.5,0.5,0.7,0.6C380.6,422.6,380.7,422.8,380.7,423z" />
	<path display="inline" fill="#694435" d="M371.5,432.4c0.2,0.2,0.5,0.5,0.7,0.7c-0.6,0.4-1.2,0.8-2.1,1.4   C369.9,433,370.5,432.6,371.5,432.4z" />
	<path display="inline" fill="#594842" d="M404.8,418.1c-0.2,0.5-0.4,0.9-0.5,1.4c-1.6-1.2-3.5-2.1-4.5-3.9   C402.1,414.7,402.6,418.1,404.8,418.1z" />
	<path display="inline" fill="#594742" d="M404.3,415c-0.5-0.5-1.1-1-1.9-1.8C404,413,404.6,413.5,404.3,415z" />
	<path display="inline" fill="#42251D" d="M368.7,447.3c2,2.1-3.9,5.7-5.2,7.6C364.3,451.7,366.6,449.5,368.7,447.3z" />
	<path display="inline" fill="#543126" d="M367.8,439.4c0.3,0.3,0.5,0.5,0.8,0.8c-1.7,1.8-3.5,3.7-5.2,5.5   C362.2,444.2,366.4,440.3,367.8,439.4z" />
	<path display="inline" fill="#5D382B" d="M369.2,442.2c0.3,0.3,0.5,0.5,0.8,0.8c-1.4,1-2.4,2.4-4.1,2.7   C365.9,444.1,368.2,443.4,369.2,442.2z" />
	<path display="inline" fill="#DC7D60" d="M394.9,426.6c-0.9-0.1-2.1,0.5-2.7-0.7C393.1,426.1,394.2,425.4,394.9,426.6z" />
	<path display="inline" fill="#DC7D60" d="M391.3,425c-0.2-0.2-0.5-0.4-0.7-0.5C390.9,424.6,391.1,424.8,391.3,425z" />
	<path display="inline" fill="#B77359" d="M381.2,421.8c2.6,0.7,5.1,1.8,7.2,3.4c-2.6-0.6-5.2-1.4-7.8-2.2c-0.1-0.2-0.1-0.4-0.1-0.6   C380.8,422.2,381,422,381.2,421.8z" />
	<path display="inline" fill="#B77359" d="M388.5,425.9c0-0.2,0-0.5,0-0.7c0.9,0,1.5,0.2,1.8,1.1   C389.5,426.9,389.1,425.9,388.5,425.9z" />
	<path display="inline" fill="#1E1614" d="M477.1,509.2c0.1,0.1,0.2,0.2,0.3,0.2c-0.3,0.1-0.5,0.4-0.7,0   C476.8,509.3,476.9,509.2,477.1,509.2z" />
	<path display="inline" fill="#A89A90" d="M493.7,518.3c0-1.3,0.1-2.6,0.1-4.6C494.4,515.8,495.2,517.3,493.7,518.3L493.7,518.3z" />
	<path display="inline" fill="#060807" d="M398.5,560.2c-0.2-1.6-1.3-3.1,1.3-3.3c0,1,0,2,0,3.1   C399.2,560.1,398.8,560.1,398.5,560.2z" />
	<path display="inline" fill="#353842" d="M407.1,539.5c0-0.2-0.1-0.4-0.1-0.6c0.2,0.3,0.4,0.5,0.7,0.8   C407.5,539.6,407.3,539.6,407.1,539.5z" />
	<path display="inline" fill="#353842" d="M407.6,539.6c0.2,0.2,0.5,0.5,0.7,0.7C408.1,540.1,407.9,539.9,407.6,539.6z" />
	<path display="inline" fill="#353842" d="M408.3,540.4c0.2,0.2,0.5,0.5,0.7,0.7C408.8,540.8,408.6,540.6,408.3,540.4z" />
	<path display="inline" fill="#353842" d="M407,538.9c-0.2-0.2-0.4-0.5-0.6-0.7C406.6,538.4,406.8,538.6,407,538.9z" />
	<path display="inline" fill="#1B1A1D" d="M511.5,499.8c-3.7,10.9-5.1,24.9,4.2,33.5c0,0.2,0,0.5,0,0.7   C505.9,527.4,505.4,509.4,511.5,499.8L511.5,499.8z" />
	<path display="inline" fill="#111011" d="M522.9,516.1c-0.1-0.2-0.1-0.4-0.1-0.6c-2.3-2.9-1.3-7.7,1.7-9.8c6.2-1.5,3.4,4.3,6.8,5.5   c0,0.9,0,1.8,0,2.8c-0.3-0.6-0.7-1.1-1-1.7c-0.2,0.5-0.4,0.9-0.6,1.4c-0.2-0.1-0.3-0.2-0.5-0.4c0.1-14.1-12.2-2-3.5,3.5   c0.2,0,0.5,0,0.6,0c0.1,0.2,0.2,0.3,0.4,0.6C525.2,518,524.1,517,522.9,516.1z" />
	<path display="inline" fill="#27292D" d="M522.9,516.1c1.2,0.8,2.3,1.9,3.9,1.2c-0.2-0.3-0.3-0.4-0.4-0.6c1.5-0.7,1.8-2.4,2.9-3.5   c0.2,0.1,0.3,0.2,0.5,0.4c0.2-0.5,0.4-1,0.6-1.4c0.4,0.6,0.7,1.2,1,1.7c-0.2,4.5-5.7,6.9-8.9,3.5   C522.6,517,522.7,516.6,522.9,516.1z" />
	<path display="inline" fill="#2E2E33" d="M515.8,534c0-0.2,0-0.5,0-0.7c2,1.3,4.1,2.4,6.4,2.8l0,0C520.6,537.9,517,535.6,515.8,534   z" />
	<path display="inline" fill="#27292D" d="M531.3,511.2c-1.6,0.1-1.5-1.9-2-3c0.3-0.1,0.7-0.2,1.1-0.3   C531.8,508.7,531.3,510,531.3,511.2z" />
	<ellipse display="inline" fill="#232326" cx="536" cy="517.9" rx="0.3" ry="2" />
	<path display="inline" fill="#2E2E33" d="M522.2,536.1c0.2-0.5,0.5-0.8,1.3-0.3C522.9,535.9,522.5,536,522.2,536.1L522.2,536.1z" />
	<path display="inline" fill="#27292D" d="M522.2,514.7c0.2,0.3,0.4,0.5,0.6,0.8C522.6,515.3,522.4,515,522.2,514.7z" />
	<path display="inline" fill="#1C1B1E" d="M412.7,503.4c-4.3,9.9-4.8,20.6-0.7,30.5l-0.1,0.1C406.1,525.3,406.8,511.6,412.7,503.4   C412.6,503.3,412.7,503.4,412.7,503.4z" />
	<path display="inline" fill="#292B2F" d="M431.8,518.9c-0.2,4.5-5.7,6.9-8.9,3.5c0.2-0.4,0.3-0.9,0.5-1.3c2,1.4,2,1.4,3.7,1   c-0.5-0.3-1.1-0.6-1.7-1c1.5,0.3,2.5-0.8,3.6-1.5c0.5,1,0.8-0.1,0.7-0.7c0.4-0.6,0.8-1.1,1.1-1.6   C431.1,517.9,431.5,518.4,431.8,518.9z" />
	<path display="inline" fill="#110F10" d="M425.4,521.2c0.6,0.3,1.1,0.7,1.7,1c-8.4,1.8-5.1-17.1,2-10.4c0,0.3-0.1,0.6-0.1,0.9   C423.4,508.8,421.3,518,425.4,521.2z" />
	<path display="inline" fill="#292B2F" d="M429,512.7c0-0.3,0.1-0.6,0.1-0.9c0.3-0.1,0.7-0.2,1-0.3c0.6,0.8,1.2,1.7,1.7,2.4   c0,0.9,0,1.6,0,2.3c-1.1,0-1.4-0.7-1.4-1.6c-0.2,0-0.5,0.1-0.7,0.1C428.7,514.3,429.1,513.4,429,512.7z" />
	<path display="inline" fill="#2E2F34" d="M422.6,541c-1.6,1.9-5.2-0.5-6.4-2.1c0-0.2,0-0.5,0-0.7   C418.1,539.6,420.2,540.6,422.6,541L422.6,541z" />
	<path display="inline" fill="#0F0F10" d="M429.7,514.7c0.2,0,0.5-0.1,0.7-0.1c0.1,0.9,0.3,1.6,1.4,1.6c0,0.9,0,1.8,0,2.7   c-0.3-0.5-0.7-1.1-1-1.6c-0.3,0.5-0.7,1.1-1.1,1.6l0,0C429.7,517.6,429.7,516.2,429.7,514.7z" />
	<path display="inline" fill="#1C1B1E" d="M416.2,538.3c0,0.2,0,0.5,0,0.7c-1.7-0.2-2.7-1.2-2.8-2.9l0,0   C414.3,536.8,415.2,537.5,416.2,538.3z" />
	<path display="inline" fill="#2F3033" d="M436.7,521.5c0,0.9,0,1.9,0,2.8c-0.1,0-0.2,0-0.4,0c0-0.9,0-1.9,0-2.8   C436.4,521.5,436.5,521.5,436.7,521.5z" />
	<path display="inline" fill="#1C1B1E" d="M412,533.9c1,0.4,1.5,1.1,1.4,2.1l0,0C412.4,535.7,411.9,535,412,533.9L412,533.9z" />
	<path display="inline" fill="#1C1B1E" d="M412.6,503.3c0-1,0.4-1.8,1.4-2.1l0.1,0.1C414.1,502.3,413.7,503,412.6,503.3L412.6,503.3   z" />
	<path display="inline" fill="#2E2F34" d="M422.6,541c0.3-0.5,0.5-0.9,1.3-0.2C423.4,540.9,423,541,422.6,541L422.6,541z" />
	<path display="inline" fill="#BBB1A2" d="M472.3,303.6c0.5-0.9,1-1.7,1.6-2.6c0.5,0.3,0.8,0.5,1,0.6c0,1.2-1.2,1.8-1.8,2.8   C472.8,304.2,472.6,303.9,472.3,303.6z" />
	<path display="inline" fill="#312924" d="M472.3,303.6c0.3,0.3,0.5,0.5,0.8,0.8c-0.2,0.7-0.5,1.4-0.7,2.1c-0.5-0.2-1.2,0.1-1.4-0.7   C471.4,305.1,471.9,304.4,472.3,303.6z" />
	<path display="inline" fill="#A1A18A" d="M488,278.2c-1-0.2-1.9,0-2.8,0.6c-0.7-0.2-1.5-0.4-2.2-0.6c0.8-0.8,0.1-1.8,1.5-1.6l0,0   c1,0.9,1.1,0.9,2.1,0.1c0.3,0,0.5,0,0.8-0.1c0,0,0,0,0,0c0.8,0.4,1.6,0.7,2.7,1.2C489.2,278,488.6,278.1,488,278.2z" />
	<path display="inline" fill="#B1B097" d="M495.2,275.2c1-0.2,7,1.9,4.9,3.1c-1.6-0.8-3.3-1.6-4.9-2.3   C495.2,275.6,495.2,275.4,495.2,275.2z" />
	<path display="inline" fill="#A1A18A" d="M484.5,276.6c-0.5-0.4-1-0.9-1.5-1.3c2.1,0,4.2-0.5,6.4,1c-0.8,0.1-1.4,0.2-2,0.3l0,0   c-1-1-1-1-2-0.1C485,276.5,484.7,276.6,484.5,276.6L484.5,276.6z" />
	<path display="inline" fill="#BABDA1" d="M489.4,273c2.1,0.5,4.3,0.4,5.8,2.1C493.1,274.9,491,274.7,489.4,273z" />
	<path display="inline" fill="#928F7B" d="M499.4,273.7c2.4,0.1,4,2.2,5.5,4c-0.4,0.2-0.7,0.3-1.1,0.4c-1.3-0.9-1.6-3-3.5-3   C500,274.7,499.7,274.2,499.4,273.7z" />
	<path display="inline" fill="#2A2722" d="M504.4,274.5c0.8,0.2,0.7,0.8,0.7,1.4C504.4,275.7,504.4,275.1,504.4,274.5z" />
	<path display="inline" fill="#5D5A4D" d="M494.2,277.4c0.4,0,0.8,0,1.2,0c0,0.1,0,0.2,0,0.3c-0.4,0.1-0.8,0.1-1.2,0.2   C494.2,277.8,494.2,277.6,494.2,277.4z" />
	<path display="inline" fill="#685E4F" d="M450.9,289.2c0.2,0.6,0.3,1.3-0.4,1.7C450.6,290.3,450.8,289.7,450.9,289.2z" />
	<path display="inline" fill="#6B5648" d="M477.3,292.3c0.6,0,1.1,0.1,1.8,0.1C478.3,293.2,477.8,293.1,477.3,292.3L477.3,292.3z" />
	<path display="inline" fill="#312923" d="M483.8,280.1c-0.5-0.2-1.1-0.3-1.6-0.5C482.8,279.4,483.4,279.3,483.8,280.1z" />
	<path display="inline" fill="#78826F" d="M497.3,272.3c0.2,0.3,0.5,0.5,0.7,0.8C497.4,273.2,496.3,272.8,497.3,272.3z" />
	<path display="inline" fill="#776E5E" d="M495.8,273.8c0.3,0,0.7,0.1,1.1,0.1C496.4,274.7,496.1,274.2,495.8,273.8   C495.9,273.8,495.8,273.8,495.8,273.8z" />
	<path display="inline" fill="#78826F" d="M498,273c0.7-0.1,1.2-0.1,1.5,0.7C498.8,273.8,498.2,273.9,498,273z" />
	<path display="inline" fill="#6B7061" d="M495.9,273.8c-0.3,0-0.7-0.1-1.1-0.2C495.4,272.9,495.6,273.3,495.9,273.8   C495.8,273.8,495.9,273.8,495.9,273.8z" />
	<path display="inline" fill="#FD9976" d="M381.2,421.8c-0.2,0.2-0.4,0.4-0.7,0.6c-0.2-0.2-0.4-0.3-0.7-0.6   C380.5,421.8,380.9,421.8,381.2,421.8z" />
	<path display="inline" fill="#464A55" d="M529.2,513.3c-1.2,1.1-1.5,3.5-3.5,3.5C517.1,511.3,529.3,499.2,529.2,513.3z    M525.7,513.9c0.1-2.9-0.8-4,2.2-5C523.5,506.8,523.4,511.9,525.7,513.9z" />
	<path display="inline" fill="#27292D" d="M525,516.2c0.3,0.2,0.5,0.4,0.8,0.6C525.5,516.6,525.2,516.4,525,516.2z" />
	<path display="inline" fill="#484D59" d="M425.4,521.2c-3.2-2.7-3.1-10.5,2.2-9.3c-2.4,1.8-4.5,3.9-1.4,6.7   c0.1-1.3-0.6-4.6,1.5-3.9c-0.4,1.9,1.7,3.1,1.4,5C427.9,520.4,426.9,521.5,425.4,521.2z" />
	<path display="inline" fill="#0F0F10" d="M429,519.7c0-0.2,0.1-0.4,0-0.7c0.2,0,0.5,0,0.7,0l0,0C429.8,519.5,429.5,520.7,429,519.7   z" />
	<path display="inline" fill="#393C44" d="M429.7,519c-0.2,0-0.5,0-0.7,0c-0.4-1.6-1.7-2.7-1.4-4.3c1.4-1.1-0.5-1.6-1.5-1.5   c0.5-0.4,1-0.9,1.4-1.3c0.5,0.3,1,0.5,1.4,0.8c0.1,0.7-0.3,1.6,0.7,2C429.7,516.2,429.7,517.6,429.7,519z" />
	<path display="inline" fill="#E4D1B2" d="M484.5,276.6c0.7-0.1,1.4,0,2.1,0.1C485.5,277.5,485.5,277.5,484.5,276.6z" />
	<path display="inline" fill="#866859" d="M486.5,276.7c-0.4-0.1-0.8-0.1-1.2-0.2c1-0.9,1.1-0.9,2,0.1   C487.1,276.6,486.8,276.7,486.5,276.7z" />
	<path display="inline" fill="#100F11" d="M525.7,513.9c-2.3-2-2.2-7.1,2.2-5C524.9,509.9,525.8,511,525.7,513.9z" />
	<path display="inline" fill="#101011" d="M426.1,513.2c1-0.1,2.8,0.4,1.5,1.5c-2.1-0.7-1.3,2.6-1.5,3.9   C424.1,516.6,424.1,514.5,426.1,513.2z" />
</g>
</svg>