<?xml version='1.0' encoding='utf-8'?>
<svg xmlns="http://www.w3.org/2000/svg" version="1.2" baseProfile="tiny" id="Layer_1" x="0px" y="0px" viewBox="0 0 900 600" overflow="visible" xml:space="preserve">
<g id="a_00000098202073637535949190000006906483395157868684_">
	<path d="M324.2,235.6c-0.3-0.1-0.7-0.1-1.1-0.2c-0.6-3.9-0.1-7.8-1.4-11.6c-11.6-5.2-21.7-12.4-33.5-16.5   c7.2-20.6,8.9-94,31.6-99.4c12.8-22,36.3-13.1,38.6-43.7c-0.4-0.2-1-0.6-1.8-1c0.6-0.6,1-1,1.5-1.5c0.2-3.7-1.3-8.1,1.4-11.3   c-1.8-13.1,2.6-26.7,9.5-37.3c1.5-0.9,2.1-2.4,2.9-4.1c3-0.5,5.4-2.2,7.9-4.1c-0.2-1.2-0.5-2.7-0.8-4.8c2,1.3,2.2,2,3.4,3.8   c1.6-0.8,1.6-3.3,3.9-3.7c-0.2,1-0.3,1.9-0.5,2.8c1.8,0.1,2-2.3,3.9-2c0.1,0.4,0.1,0.8,0.2,1.2C389.4,2.5,389,3,388,4   c1.3-0.3,1.8-0.1,2-0.8c0.6-0.1,1.2-0.2,1.7-0.3c0.4,0.5,0.8,1,1.2,1.5c6.2-0.8,13.2,0.2,16.3,6.2c4,2.5,9,2,12.9,4.9   c-1.4,0-2.7,0-4.3,0c2.9,3.4,6.9,3.2,10.8,3.9c-0.2,0.5-0.3,0.8-0.4,1.1c-1.1,0.2-2.5-0.4-3.2,1.4c3.2,0,5.1,2,8.7,1.4   c0.3,0.6,0.6,1.1,0.9,1.6c1,0.5,2.5-0.4,3.4,1c-0.2,0.4-0.4,0.9-0.6,1.5c0.3,0.2,0.5,0.3,0.9,0.5c-0.9,1.3-1.9,2.4-3.5,2.3   c-0.8,6.2-6,5.3-10,7.2c-0.5,5.2,0.9,11.4-0.8,16.4c-0.3-0.3-0.6-0.6-0.9-0.9c0.1-5.1-0.8-10.5-0.7-15.6   c-15.8-4-19.4,4.8-25.2,17.2c-2.4-3.4,0.8-9.4-1.7-12.7c-0.3,0.3-0.6,0.6-1.1,1c-0.3-0.4-0.6-0.8-0.9-1.3c0-2.1-3.2-2-4.4-0.8   c-3.5,1-3,5-5.4,7.2c-0.3-0.2-0.5-0.4-0.9-0.7c-0.3,0.7-0.6,1.3-0.8,1.8c0.6,0.5,1.1,0.8,1.5,1.1c-1.9,2.8-1.2,6.3-2.1,9.1   c-0.4-0.2-0.8-0.5-1.3-0.8c-0.1,0.6-0.1,1.2-0.2,1.7c-0.5,0-1,0.1-1.4,0.1c-0.2-0.1-0.3-0.2-0.5-0.3c-0.3,0.5-0.5,1-0.8,1.5   c-3.4,0.6-3.6,2.6-6.4,3.9c-0.4-0.1-0.9-0.2-0.9-0.3c-0.9,0.3-1.5,0.5-2.1,0.7c-0.1-0.8-0.2-1.6-0.3-2.4c-0.1,0-0.2,0-0.4,0   c-0.1,0.8-0.2,1.6-0.2,2.4c-0.4,0.2-0.8,0.4-1.3,0.7c-0.1-0.6-0.2-1.2-0.3-1.9c-0.8,0.5-1.4,0.8-2,1.2c-1.4-1.6-2.2,4-2.8,5   c-2.2,11.4-11.3,19.4-20.9,23.9c1.1,5.1,5.6-0.5,7.4-2.5c0.5,0.2,0.9,0.3,1.2,0.4l0,0c0.3,0.9,0.6,0.5,0.9,0.1   c6.7-1.7,13.2-4.3,20-6.4c-0.2-0.3-0.5-0.7-0.7-1c3.9-2.4,6.8,1.9,10.6,2.8c2.1,5.5,9.1,4.1,13.7,5c0.5-0.7,1-1.5,1.6-2.4   c24.1,6,9,1,19.6-8.4c0.1,0.4,0.1,0.8,0.2,1.2c-2.3,3.1-2.2,7-3.2,10.5c-4.9,2.9-10-0.6-15.2-1.3c-0.3,0.3-0.8,0.8-1.2,1.2   c6.6,5.1,5.8,13.2,6.3,20.9c0.4,3.9,4,6.4,6.3,9.3c11.6,14.2,11.7,36.9-2.2,49.6c1.6,7.4-0.4,15-1.2,22.4   c6.8,2.9,13.1,8.1,20.3,9.1c0.2,0.5,0.4,1,0.5,1.5c-6.3,3.2-10-4.7-16.1-5.3c-14-5.1-21.1-19.7-32.3-28.5c1.5-2.5,3.9,1.4,5.7,1.5   c0.7-1.2,1.2-2.2,1.8-3.2c0.7,0.2,1.6-0.2,2.1,0.7c-0.7,1.4-1.4,2.7-2.2,4.3c6.3,5.8,11.3,13.4,17.9,18.5   c-0.4-13.2,1.4-25.3,10.5-35.5c-1.2-8.6,2-22.3-4.4-28.6c-0.1-2.3-1.2-4.1-3.2-6.2c4.9,11.2,1.5,22.1-4.9,31.6l0.1-0.1   c-6.4,2.1-8.2,9.1-12.5,13.7c-0.2-0.2-0.4-0.4-0.6-0.7c0-0.2,0-0.5,0.1-0.7c0.7-0.4,0.7-1,0.5-1.7c4.9-9.9,4.3-20.5,3.7-31.2   c0.7-0.5,1.3-0.9,1.8-1.3c-0.4-0.8-0.6-1.5-1-2.2c1.4-1.6,2.9-3.1,4.3-4.7c0.3,0.5,0.5,1,0.8,1.5c-0.9,4-5.9,7.7-2.7,11.6   c2.2,3.9,1.6,8.6,4,12.6c5.5-8.2,10.1-23.1,0.8-30.2c-0.3-9.9,0.8-28.9-13.6-28c0.2,1.8,2.1,3.8-0.2,4.8c-0.9-1.7-1.9-3.5-2.9-5.3   c-3.1,0.5-6.2,0.7-9.4,0.4c0.1-2.6,3.8-0.8,5.9-2.8c-4.2,0.3-7.4-1-10.9,1.2c0.5,0.4,0.9,0.6,1.3,0.9   c-19.5,2.3-24.5,22.6-22.9,39.4c1.3-1.8,0.8-3.5,2.5-4.9c2.8,8.1-6.1,16.4-6.4,24.9c-2.8,8.5,0.3,17.4,0.8,26.1   c0.1,6.4-1.6,13-0.3,19.2c17.9,10.2,37.6,19.5,58.2,22c3.3-3.5,7.3-0.1,11.2,0.4c0.6,0.6,1.2,1.6,2.4,1.6c1.2,1.5,3.6,0.4,5.3,1.1   c0-0.5,0-0.8,0.1-1.1c1.9-0.3,1.9-0.3,3.5,0.5c-0.7,0.4-1.3,0.7-1.9,1c0.3,0.5,0.8,1.7,0.8,2.2c3.5,4,7.9,4.8,12.8,5   c1.4-1.4,3.4-1.7,5.5-1.7c4-5.1,4.5-11.7,4.6-17.3c-1.7-2.4-1.9-5-0.5-7.7c-2.2-1.7-2.2-1.7-4.5-1.6c-4.5,0.5-8.8-0.5-13.1-1.3   c-0.3-0.3-0.6-0.6-0.9-0.9c2.6-1.6,5.1-1.7,7.7,0.2c0.8-0.9,1.4-1.6,2.1-2.4c6-1,8.8,4.8,12.7,8.2c5.6,4.8,13.4,9.2,14.3,17.2   c1.1,4.2-2.1,8.9,1,12.4c1.8,2.4,5.6,5,3.5,8.3c5.4,1.5,9-1.7,12.6,5.2c0.6,0.2,1.7,0.6,2.6,0.9c4.9-2.6,11.9-1.6,9.4,5.4   c62.9,26.4,133.2,45.4,193.8,73.8c-1.6,3.3-5.9-0.5-8.5-0.7c-1.8,5.7-25.1-7.2-30.6-7.8c-63.8-22.8-127.6-45.6-191.4-68.3   c-1.6,0.5-0.6,2.2-1.8,3.4c-6.6,1.1-13.9-1.6-20.4-2.7c-0.1,1.6-0.2,3.3-0.3,4.9c-14.3,5-30.8,2.6-44.9-2.1c0.1,1,0.1,1.9,0.1,2.6   c1.8,2.2,3.6,4.2,5.2,6.2c-1.5,6.5-1.2,12.5,0.9,19c6,3.5,9,10.5,10.7,17c1.5,9.1,9.7,14.3,12.7,22.7c6,15.7,15.3,34.3,11.3,50.9   c-3.5-17.6-6.5-35.4-13.9-51.9c-7.9-11-12.9-23.6-19.7-35.2c-0.9-0.3-1.6-0.5-2.5-0.8c-2.2-6.9-2.7-13.9-2.6-21.1   c-4.3-4.1-6.4-4.5-5.1-11.1c-1,1-1.6,1.6-2.3,2.3l0.1,0.1c0-1.3,0-2.5,0-4.2c-1,1-1.7,1.8-2.3,2.5c-5.1-1.5-8.9-6-13.6-8.5   c0.3-0.2,0.5-0.5,0.8-0.7c0.4,0.1,0.9,0.1,1.3,0.2c1.6,1.3,3.6,2,5.6,2.9c0.4-1,0.7-1.7,1-2.5c-2.3-1.3-4.3-3.1-7-2.4   c0-0.7-0.1-1.2-0.1-1.8c-2.3-1.6-4.1-3.6-7-2.6c-0.9,0.9-0.8,2.4-2.2,3c1-4.1-1.4-3.8-4.7-4.9c-2.8-2-6.3-1-9.5-1.2   c-1,0-2.1-0.3-2.9,0.6c-1.4-1-3.5-1.2-5,0c-2.2-1.9-5.1,0.2-5.1,2.9c0,0,0.1,0,0.1,0c-0.6,0.4-1.3,0.9-2.3,1.6c0.3-1.2,0.5-2,0.8-3   c-2,1.1-2.6,2.8-3.4,4.6c-1.3-0.9-2.5,0.5-3.8-0.2c0.6-1.8,2.3-3.2,2-6c-1.2,2.3-2.3,4-2.7,5.9c-12.1,10.4-24.1,25.3-26,41.6   c0.4,0.5,0.8,1,1.1,1.5c-2.3,29.1,12.5,58.2,9,87.7c-1.6-1.1,0.3-3.4-1.4-4.3c-2.4-30-12.2-59.8-10.7-89.8   C299.1,262.2,314.2,250,324.2,235.6c8.7-0.5,17.8-0.9,26.8-0.8c0.4,0.5,0.8,0.9,1.1,1.3c13.2-0.6,22,8,32.9,14.1   c2.1-1.9,3-5.2,3.8-7.9c-0.2-7.3,5-13.2,6.3-20.2c-19.1-2.9-36.2-13-53.4-20.6c-2.7-21.4-5-44.8,3.8-65.1   c-5.7-21.1,4.7-48.8,30.7-46.3c-1.7-1.1-2.6-1.7-3.6-2.3c-9.2-0.2-31,17.1-35.7,7.4c-14.6,7-19.4,22.1-24.1,36.4   c-0.3-0.5-0.5-1-0.8-1.5c0.6-6.7,4.3-12.4,5.9-18.8c-11.1,5.8-12.5,18.9-13.3,29.9c-7.7,20.9-8.1,43.5-13.6,64.9   c5.5,3.7,14.6,2.7,17.7,9.8c4.6,1.7,8.6,4.4,13.2,5.1c1.4-6.2-2.2-10.4-3.5-16.2c-1.5-4.1-0.4-9.3-2.1-12.9   c-2.4,1.7-4.8,3.7-8.7,3.2c21.4-11.4-5.8-24-0.3-57.4c0.6,1.3,0.2,2.8,1.4,3.8c0.2-0.4,0.3-0.8,0.5-1.1c1.3-0.7,0.3-1.9,0.8-2.9   c1,0.5,0.4,1.5,0.7,2.2c-6.5,19.4,10.7,35.9,9.3,55.6l0.1-0.1c-2.2,6.5,4,13.8,3.7,20.6C322.9,222.4,326.5,229,324.2,235.6z    M510.8,268.6c15.3,5.3,29.9,11.4,45.5,16c0.4,1.1,1.4,0.7,2.2,0.7c1.6,1.6,3.7,2,5.8,2.2c0.4,1.1,1.4,0.6,2.2,0.7   c1.5,1.5,3.4,1.7,5.3,1.9c-1.6-1.2-3.3-1.9-5.3-1.9c-0.5-1.1-1.4-0.6-2.2-0.7c-1.6-1.6-3.7-2-5.8-2.2c-22.5-8.3-46.7-18.7-70.1-25   C495.5,263.9,503.4,265.5,510.8,268.6z M395.8,31.2c-1.7-0.1-3,0.4-3.9,1.9c1.5-0.5,3.3-0.8,4.2-2.4C396,30.9,395.9,31,395.8,31.2z    M368.3,33.4c0.1-0.4,0.3-0.8,0.4-1.2C367.6,32.4,367.6,32.4,368.3,33.4c-1,0.9-2.2,1.3-1.8,2.9c1.6-0.5,1.6-1.1,2.9-2.3   C368.9,33.7,368.6,33.5,368.3,33.4z M382.8,35.5c1-0.5,5.2-0.2,3.7-2.1C385.3,34.1,383.5,33.7,382.8,35.5c-0.4,0-0.7,0.1-1.4,0.3   C382.3,36.3,382.6,36.1,382.8,35.5z M373.4,33.4c2.5-0.8,5.2-2.4,6.1-4.8c-0.1,0.2-0.2,0.3-0.3,0.5c-2.9,0.1-4.4,2.8-6.1,4.8   C373.2,33.7,373.3,33.5,373.4,33.4z M479.6,257.3c1.7,1.2-0.1-2,0-2.7c-2.5-1.8-6.1-0.6-8.6-2.2c-1.6-1.1-10.1-3.8-10.6-1.9   C466.7,252.9,473.1,255.4,479.6,257.3z M395,240.8c-1,0-2.1-0.1-3-0.1c-2.3,4.5-3.1,10.7-0.7,15c1.3-0.2,2.8,0.5,3.6-0.7   c0.1-4.1,0.1-8.1,0.2-12.2C396,241.6,396,241.5,395,240.8z M434.2,236.4c0.8-0.8,0.7-1.7,0.5-2.7c-2.5-0.4-5-0.9-7.5-1.3   c-0.5,5.7-1.5,10.5-3,16c1.2,0.1,2.3,0.2,3.3,0.3c1,0.8,2.2,0.6,3.2,0.4C433.7,245.4,433.8,241,434.2,236.4z M450.8,247.9   c3.6-13.4,11.5-27.1-3.1-35.3c-0.5,1.8-0.9,3.4-1.3,4.9c0.6,1.3,1.3,2.9,0.5,4.2c-3.1,3.4-2.2,9.8-7.7,10.3c0.3,1.5,0,2.4-0.5,3.8   c5.1,1.1,8.3,4.5,12,7.8c-0.3,0.9-0.5,1.9-0.8,2.8c-0.6,0.1-1.1,0.2-1.7,0.3c-0.8-1-1.4-1.6-2.4-2.5c-3.3,2.6-7.2,1.3-10.7,1.9   c-0.5,1.3-1,2.6-1.6,4.2c5.3,1.5,10.5,1.7,15.9,2.7C449.8,251.1,450.3,249.5,450.8,247.9z M398.2,240.7c-0.8,3.5-1.3,12.2-0.8,14.8   c10.8,0.6,22.9,2.9,33.2-0.3c-0.2-1-0.3-1.9-0.4-2.6c-3.3-1.3-6.6-1.2-9.2-3.7c3.6-1.9,3.2-12.2,3.8-16.4   c-5.4-4.1-10.7-9.8-17.9-9.4c-1.3,4.6-4.5,7.6-4.3,12.3C402.2,239,401.9,239.6,398.2,240.7z M451.5,253.3   c3.8,0.7,11.5-26.3,8.3-29.8C456.3,232.6,454.9,243.8,451.5,253.3z M404.7,223.1c-2.6-0.3-4.8-0.4-6.9-0.4   c-0.7,1.7-1.5,3.1-1.8,4.9C400.1,228.7,403.7,227.6,404.7,223.1z M401.3,230.6c-2.2-0.9-4.2-1.1-6.2-0.7c-0.7,1.3-1.6,2.5-1.4,4.2   c2.4,0.1,4.8,0.6,7-0.8C400.9,232.5,401.1,231.7,401.3,230.6z M460.3,221.6c-2.7-6-8.9-10.1-14.4-13.7c3.8,4.4,9.5,7.1,11.5,12.9   C458.3,221.1,459,221.3,460.3,221.6z M400.2,236.4c-2.9,0.2-8.1-2.6-8,1.9C394.8,238.5,400,240.1,400.2,236.4z M401.5,25.1   c4.7,0.4,7.7-1,12.2-1.5C409.5,21.5,405.4,23.4,401.5,25.1z M410.1,258.5c-2.6-1.4-5.8,0.1-8.6-1.3c-2.2-0.7-3.5-0.7-5.8,0.3   C400.7,258.6,405.3,259,410.1,258.5z M434.9,244c3.7,0.7,5-5.1,0.8-3.8C435.5,241.4,435.2,242.7,434.9,244z M439.6,238.5   c0.5,2.3,1.8,6.3,3.9,2.9C442.6,239.8,441.3,239,439.6,238.5z M393.7,150.8c0,2.3,0,4,0,5.9c1.2-0.9,2.1-1.6,3-2.3   C395.7,153.4,394.9,152.4,393.7,150.8z M373.1,22.2c-0.2-0.8-0.5-1.5-0.8-2.6c-0.6,2.3-2.5,4.3-2.2,6.2   C371.6,25,372.6,23.8,373.1,22.2z M393.8,13.4c-1.9,0-4-1.1-5.9,0.8C390.3,15.5,392.1,14.5,393.8,13.4z M393.9,28.9   c-2.5-0.4-4.3,1.5-6.7,1.9c-0.2,0-0.4,0.5-0.8,1C389.5,31.4,391.4,30.1,393.9,28.9z M458.7,245.9c1.9,1.4,3.8,1.6,6.8,0.7   C462.9,246.4,461.5,245.2,458.7,245.9z M405.8,22.3c-2.9-1-5.5,0.4-8,1.6C400.5,23.7,402.9,22.7,405.8,22.3z M402.4,30.8   c5,1,6.5,0.7,8.3-1.7C407.7,30.6,405.7,30.3,402.4,30.8z M326,241.8c1.2-1.1,3.5-3.1,2.9-4.7C327.3,238.3,326.6,240,326,241.8z    M377.1,34.7c3.1-0.9,3.2-1,4.9-2.8C379.8,32.1,378.3,32.8,377.1,34.7z M367.9,46.4c-2.5,0.7-2.5,0.7-2.1,4.3   C366.5,49.2,367.1,48.1,367.9,46.4z M381.9,12.8c-1.5,0.2-2.5,0.9-3.5,2.6c1.5-0.5,2.4-0.8,3.5-1.1   C381.9,13.7,381.9,13.3,381.9,12.8z M388.6,23.1c2.4,0.1,2.8-0.5,5.2-1.1C390.2,21.8,390.2,21.8,388.6,23.1z M437.1,233.6   c-1,1.6-1.1,2.4-1,3.9C436.8,236.9,436.8,236.9,437.1,233.6z M460.4,240.3c-1,0.8-1.6,1.7-1.6,3.1   C461.3,243.2,460.2,241.4,460.4,240.3z M377.1,247.8c-0.5,1-0.9,1.8-1.5,3.1c1.5-1,2.7-0.9,3.2-2.1   C378.3,248.4,377.8,248.2,377.1,247.8z M383,19.4c1.5,0.6,2.2-0.3,3.2-0.9C384.9,18,383.9,18,383,19.4z M416.3,19.9   c1.2,0.9,2.2,1.7,3.7,0.7C418.8,20.6,417.8,19.3,416.3,19.9z M405.6,27.1c-1.8,0-2.7,0-3.9,0c0.2,0.5,0.3,0.8,0.5,1.1   C403.1,27.9,404,27.6,405.6,27.1z M371.7,60.6c0.8-0.7,1.3-1.3,0.6-2.6c-0.6,0.7-1.1,1.2-1.7,1.8C371.1,60.2,371.4,60.4,371.7,60.6   z M462.8,238.3c-0.5-0.8-0.4-1.7-1.4-1.8C460.6,238.1,460.6,238.2,462.8,238.3z M370.5,30.5c2-0.1,2-0.1,1.5-1.6   C371.5,29.5,371,30,370.5,30.5z M393.4,16.4c1.4,0.4,2.7,0.5,4.7,0C396.2,15.9,394.8,16,393.4,16.4z M360.6,49   c1.1-0.6,1.4-1.3,0.9-2.4C360.5,47.2,360.2,47.9,360.6,49z M399.8,44.1c0.3,0,0.6,0,0.8,0c0-0.6,0-1.2,0-2   C399.2,42.5,399.6,43,399.8,44.1z M380.4,253.1c0-1.4,1.4-1.6,0.7-3C380.1,250.7,379.8,251.4,380.4,253.1z M373,27.2   c0.5-0.4,1.5-0.4,1.5-1.7C373.5,25.6,372.9,26,373,27.2z M464.3,243.5c0.4-0.3,0.9-0.7,1.4-1C464.6,241.8,464.3,242.6,464.3,243.5z    M438.2,201.5c0-0.1,0-0.3,0-0.4c-0.5,0-1,0.1-1.5,0.1c0,0.2,0,0.3,0,0.5C437.2,201.5,437.7,201.5,438.2,201.5z" />
	<path d="M428.9,375c2-1.6,0.5-5.2,1-7.5c-0.4,32,11.2,24.2,10.1,42.1c0.7,9.2-2.8,17.9-4.7,26.8c-1.2,8.9-0.5,18.1-2.7,26.9   c-5.2,29.1-13.3,58.6-10.5,88.3c1.5-0.8,0.7-1.9,0.6-2.8c1.9-2.3,1.9-2.3,4.1-3.2c2,1.7,6.3,2.5,6.5,5.5c0.2,4,2.5,7.2,1.5,11.3   c6.1,3.7,13.6,5.5,18.7,10.9c2.8,2.7,6.1,4.3,10,4.3c10.4,0.7,12.2,3.1,13.4,13.1c-13.3,16-51.4,7-69.9,7.2   c-6.6,0.4-33.4,5.3-31.1-6.4c2-5.6,4.8-10.5,5.4-16.6c-11.7,2.6-8.9,3.3-21.6,0.2c-9.3-0.8-17.3,6.2-26.9,4   c-4.8-1.5-19.8-0.4-18.6-7.5c1,0.1,1.2,1.6,2.4,1.3c10.3,3.4,22.8,6,33.1,1.4c0.4-1,0.6-1.8,0.9-2.6c10.9-0.1,21.1,5.2,31.5,0.1   c1.6-4.1-0.1-9,2.7-12.8c-2.4-1.2-4.6-2.4-6.9-3.5c-0.3,0.3-0.8,0.7-1.2,1.1c-1.9-0.7-0.8-2.2-1.2-3.3c-0.6-0.4-1.3-0.9-1.9-1.3   c-0.9,0.4-1.6,0.7-2.1,1c-1.7-0.9-0.7-2.3-1.2-3.5c-0.6-0.4-1.4-1-2.2-1.5c-1.3,1.5-1.4,4.9-3.8,4.4c-0.3-2.5-0.1-5.1,0.2-7.7   c-4.7-3.2-1.2-9.5-4.3-13.9c-0.8-0.3-1.7-0.6-2.8-0.9c2.6,19.4-15.9,24.8-26.9,9.4c-1.1,0.1-1.9,0.5-2.5,1.3   c-1.2-0.1-2.3-0.1-3.4-0.2c-4.2,6.6,1.3,16.3-4.4,22.6c-0.3-0.3-0.6-0.6-0.9-0.9c2.8-8.4-1.1-18.3,5.5-25c0.7,0.4,1.2,0.8,2,1.3   c1.2-0.7,2.5-1.4,3.6-2.1c6.8-20.4,3.7-42.4,6.3-63.6c-1.5-11.8-3.8-23.9,3.2-34.6c23.5-40,13.9-22.1-8-56.2   c-5.4-0.7-26.7,3.9-27.5-1c0.4-0.4,0.8-0.9,1.2-1.4c6.1,2.5,12.7-1.3,18.9-0.3c2.3,0.9,4.6,0.5,7,0c-4-12.7-10.4-27.1-7.1-40.1   c1.7,14.9,6.8,30,11.1,44.6c31.6-1.4,62.6,1.2,93.7-3.7C429,378.1,428.9,376.5,428.9,375z M408.2,557c-5,0-9.9,0-14.9,0   c0,0.9,0.5,1.2,1.1,1.3c3.4,4.7,8.8,7.1,14.1,8.7c1.6-0.4,2.8-0.7,4.1-1.1c2-3.5,10-7.6,7-12C415.9,555.7,412.1,556.5,408.2,557z    M404.5,386.5c-0.7-0.4-1.3-0.9-2.4-1.5c-10.4,3.5-21.5,0.2-32.2,0.9c41.6,39,31.5,24.3,20.1,74.5c-0.5,13.4,3.2,26.7,4.3,39.9   c-1.2,17.7-0.7,35.5-1,52.8c5.5,0.5,11,0.5,16.4,0.1c0.6-0.7,1.1-1.3,1.6-1.9c0.4,0.6,0.7,1,1,1.4c2.4,0,4.5-0.6,6.4-1.7   c0.6-46.6,12.3-92.7,19-138.4c-1.5-4,0.8-8.3-1-12c-4.3-5.1-6.7-10.9-8.2-17.3c-8,0.8-16.1,0.5-24,2   C404.5,385.8,404.5,386.2,404.5,386.5z M473.2,591.6c0.4-0.4,0.8-0.8,1.2-1.2c-0.9-15.9-10.8-5.8-20.4-12.7c-4.7,1-2.5-4-6-5.4   c-1.2,1.6-2,2.4-3.7,3.8c-1.5-2.5,0.7-4.1,0.3-6.5c-0.7-0.2-1.4-0.4-2.1-0.5c-3.4,4.8-3.4,4.8-6,5.5c-2.5-2,1.4-5,2.1-7.2   c-0.5-0.7-1-1-1.8-1c-1.7,2-5.3,4.8-7.6,6.1c-0.3-0.3-0.6-0.7-1-1.2c1.3-2.8,3.8-4.7,5.2-7.3c-0.4-0.6-0.8-1.2-1-1.5   c0.2-4.4-1-8.3-2.5-12.2c-1.1-0.7-2.2-1.4-3.2-2c-20,44.9-30.1,4.1-41.3,12.5c-1.8,8.3,0.1,18.9-5.3,25.8c-1.7,1.8-1.9,4.5-3,6.8   c16.2,6.2,33.7-1.5,50,3.1c13.9,2.9,28.3-3.9,42-2.4C470.8,593.8,472.3,593.3,473.2,591.6z M338,535.3c3.5,1.7,7.3,2.4,11.2,2.6   c0.2-0.5,0.3-0.8,0.5-1.1c0.5,0.5,0.9,0.9,1.4,1.4c1.5,0.4,2.6,0.7,4.3,0.5c-5.4-21.5,6.7-50.1,13.6-70.8   c5.5-13.4,5.2-30,14.8-41.2c2.8-5.5,10.5-11.6,5.9-18.1c-7.1-8.2-15.8-15-23.3-22.8c-9.7,0-19.3,0-29.3,0   c5.2,8.2,14.1,12.8,18.6,21.3c4.6,11.3-18.1,30.9-19,46c-0.4,9.4,5.3,19.1,2.4,28.4c-1.3,8.9-0.6,18-2.4,26.8   c-1,6.3,2.2,13.5-0.3,19.6c-2.1,1.5-1.8,3.9-2.7,6.1C335.3,534.5,336.6,534.9,338,535.3z M357,526.9c11.1,4,5,8.4,8,14.6   c7,5.3,15.3,14.3,24,14.8c-0.6-18.6,3.1-37.5,3.1-56.5c-2.5-16.1-6.1-32.5-3-48.9c1.7-11.8,14.5-25,4.3-36.1   c-2.1,6.6-6.9,11.5-11.1,16.7c-4.2,10.6-6.6,22.1-9.6,33.1c-4.8,12-10.3,23.9-11.6,37C361.2,510.5,354.9,518.1,357,526.9z    M332.7,536.1c-0.1,0.2-0.3,0.3-0.4,0.5c4.8,5.4,9.9,11.2,17.7,7.7c0.6-1.1,2.1-1.6,2.1-2.9C345.3,540.5,339.1,538.8,332.7,536.1z" />
	<path fill="#191716" d="M423.2,52.7c0.3,0.3,0.6,0.6,0.9,0.9c-4.7,5.4,0.3,12.3-0.7,18.6c-1.6,1.5-3.4,0.7-5,1.3   c-0.2,3.1-2.4,5.6-2.5,8.7c-0.7,0.4-1.3,0.8-1.9,1.2c-0.1-0.4-0.1-0.8-0.2-1.2c0.2-0.5,0.4-1,0.6-1.6c-0.8-0.3-1.4-0.5-2.1-0.7   c0.4-1.1,2.2-1.2,3.3-2c0.2-1.4,0.5-2.9,0.7-4.4c-0.4-0.7-0.7-1.3-1-1.9c1-0.5,0.5-1.4,0.7-2.2c0.4,0.8,0.8,1.5,1.3,2.4   c1.4-0.2,2.8-0.3,4.2-0.5c0.4-4.9-1.6-9.1-1.7-14C420.9,55.8,422,54.3,423.2,52.7z" />
	<path fill="#201D1E" d="M319.1,561.8c0.3,0.3,0.6,0.6,0.9,0.9c-0.4,3.6-2.6,6.6-3.5,9.9c-1.2,0.3-1.4-1.2-2.4-1.3   C317,569.3,317.3,565,319.1,561.8z" />
	<path fill="#101526" d="M307,379.9c-0.5-0.2-1-0.5-1.6-0.7c0-3.1,0-6.2,0-9.4c1.7,1-0.2,3.2,1.4,4.3C306.9,376.1,307,378,307,379.9   z" />
	<path fill="#2D2221" d="M423.9,205.2c-0.5,0-1.1-0.1-1.6-0.1c-0.1-0.3-0.3-0.6-0.5-1.1c1.4-1,2.9-2.1,4.3-3.1   c0.3,0.3,0.6,0.6,0.9,0.9C426,202.9,424.9,204,423.9,205.2z" />
	<path fill="#DBC2C2" d="M426.9,21.7c-0.6,0-1.1,0-1.8,0c0.7-1.8,2.1-1.2,3.2-1.4C427.8,20.8,427.4,21.3,426.9,21.7z" />
	<path fill="#C0C9C9" d="M390,3.2c-0.3,0.7-0.8,0.6-2,0.8c1-1,1.4-1.5,1.9-1.9C389.9,2.4,390,2.8,390,3.2z" />
	<path fill="#4B65C5" d="M307,379.9c3.6-31.6-10.8-62.5-9.1-93.4c-0.3-0.5-0.7-0.9-1.1-1.5c1.9-16.2,13.9-31.1,26-41.6   c1.6,0.7,3-0.4,4.6,0.3c0.8-1.9,1.4-3.5,3.4-4.6c-0.3,1.1-0.5,1.8-0.8,3c1-0.7,1.7-1.1,2.3-1.6c0,0.4,0.1,0.9,0.1,1.3   c5.1,1.7,10.4,1,15.2,2.2c-12.1,31.8-13.3,31.4-1.6,64.9c-4.1-1.8-6.5-7-10.9-7.7c6.6,7.2,16.1,12.4,23.9,18.7   c-0.1,0.2-0.1,0.4-0.2,0.6c0.3,0,0.6,0,1,0.1l0-0.1c10.1,10.7,25.3,16.4,34.6,28.3c-5-0.8-9-3.7-13.7-5.1c-0.3-0.8-0.7-1.5-1.9-1.2   c0.3,1.1,1,1.2,1.9,1.2c4.3,4.5,10.6,7.2,14.5,12.3c-26.7-9-51.6-25-73.5-40.7c12.1,11.4,26.9,19.8,41.1,28.3   c-1.3,1.5,7.6,7.1,8.6,9.4c-1-0.2-1.9-0.5-2.9-0.7c-0.7-1-1.7-1.3-2.9-1.4c-0.5-0.8-0.4-0.5-1.7-0.3c1.1,0.1,1.4,0.2,1.7,0.2   c0.5,1.4,1.6,1.5,2.9,1.5c0.3,1.3,1.5,1.4,2.4,1.9c7,2.6,11.2,8.2,16.8,12.8c0.6,0.4,1.2,0.9,0.5,1.8c-6.1-2.6-11.8-6.1-17.3-9.6   c5.2,8.3,16.4,14,20.4,23.3c0.9,0.1,1.8,0.1,2.6,0.2c-19.1,0.1-38.8-0.5-58.4,0.5c-3.6-14-9.5-27.9-10.5-42.3   c-2.4-8.3-7.6-17-8.5-25.9c0.9-4.2-2.2-7.3-4.5-10.2c-0.5-0.7-0.4-1.9-2.3-2.2c12.5,23.8,12.3,51.4,21.8,76.1c-2.5,0.5-4.8,0.9-7,0   C318.7,378.2,312.9,380.7,307,379.9z M304.7,280.2c-1.7,0.8-1.7,2.5-0.3,3.6c0.9-1.2,1.3-2.3,1.1-3.5c0.5-0.3,0.9-0.6,1.6-1   c-0.5-0.4-0.8-0.7-1.4-1.1C305.3,279,305,279.6,304.7,280.2z M312.7,266.6c1.9,0.8,2.9,2.6,5.1,2.4c-1.2-2.3-3.1-2.8-5.2-3.2   c-1.5-0.5-2.6-2.3-4.3-1.6C309.8,265.3,311.3,265.9,312.7,266.6z M337.8,244.5c-0.9,2.9-0.6,5.1,0.7,7.3   C339,247.5,339,246.8,337.8,244.5z M306.6,294.5c0.7-1.7-0.5-3-0.7-4.7C304.3,291.6,304,294.8,306.6,294.5z M308.7,302.1   c0.6-2.1-0.5-3.4-1.9-5.3C307.1,299.1,306.3,301.1,308.7,302.1z M330.5,247.8c0.6-1.5,1.5-2.6,1.7-3.9   C330.5,242.7,328.9,246.7,330.5,247.8z M309.9,363.8c0.4,1.7-1.3,5.3,0.4,6C311.7,367.7,310.5,365.8,309.9,363.8z M310.8,373.3   c-0.4,3.9-0.4,3.9,0.9,4.8C312.5,376.4,311.3,375.3,310.8,373.3z M319.5,255.7c-2.2-1.5-2.9-1.8-5.3-1.8   C315.8,254.8,317,255.9,319.5,255.7z M314.5,258.6c-1.3,0.5-2.4-0.9-4.1-0.3C311.7,259.4,314.7,261.7,314.5,258.6z M305.2,288.3   c0.8-1.4-0.2-2.3-0.6-3.6C303.5,286.4,303.6,286.8,305.2,288.3z M322.2,245.3c-1.9,2.6-1.9,3-0.3,3.9   C322,248.1,322,247.1,322.2,245.3z M313.3,260.9c0.4,2.2,0.4,2.2,2.1,3C315.5,262.7,314,261.9,313.3,260.9z M310.2,372.3l-0.1,0.2   l0.2,0L310.2,372.3z" />
	<path fill="#FBDFD3" d="M423.9,205.2c1-1.2,2-2.4,3.1-3.5c4.4,0.8,8.7,1.9,13.1,1.3c2.3-0.1,2.3,0,4.5,1.6   c-1.4,2.7-1.1,5.3,0.5,7.7c0.1,5.7-0.8,11-3.9,16.7c-6,0.7-10.8-2.2-15.6-5.3c8-11.5-16.9-4.3-22.2-6.9c-0.7,0.6-1.5,1.2-2.2,1.9   c-19.2-4.7-35.2-15.3-53-23.2c1.7-10.6-3.4-22.3-1.1-32.5c1.6,1.8,3.2,3.5,4.4,4.8c2.3,0.7,3.9,1.3,5.7,1.8   c2.4-3.2-0.5-6.6,1.1-9.7c-4.6-9.2-7.5-20.8,2.5-27.7c4,2.7,6.9,6.7,11.7,8c7.3-2.5-0.9-10.1-3.7-13.1c-4.4-5-6.2-12.7-11.5-16.4   c-0.3-1-0.5-1.9-0.7-2.9c-2.7-0.5-2.9,2.5-3.3,4.2c-3.4-0.5-4,3.4-5,5.8l0,0c-2.6-6.3,3.2-14.2,7.8-18.6c7.6-6.6,17.3-3.8,26.2-4.9   c1,1.8,1.9,3.5,2.9,5.3c2.3-0.9,0.4-3,0.2-4.8c14.4-0.9,13.3,18,13.6,28c7.8,5.5,5.5,17.2,2,24.7c-3.5-3.5-2.3-9.8-6.6-13.2   c0.9-3,3.7-5.7,2.6-9c-1.1,2.8-3.5,4.4-5.3,6.6c0.3,0.8,0.6,1.4,1,2.2c-0.6,0.4-1.1,0.8-1.8,1.3c1.1,11.4,0.5,22.5-4.2,32.9   c-0.1,0.2-0.1,0.4-0.1,0.7c-0.7,0.9-1.5,1.7-2.6,1.9c-0.5,1.2-1.3,2.3-2,3.5c-1.8-0.1-4.2-4-5.7-1.5c11.2,8.8,18.3,23.5,32.3,28.5   c6.1,0.6,9.7,8.4,16.1,5.3C424.3,206.3,424.1,205.8,423.9,205.2z M364.1,170.5c-0.2-1.7,1.8-2.5,1.8-4.1c-2.3-1.4-2.8,2.6-2.5,4.1   c-1,1.3-1,2.8-0.6,4.4c0.5-0.1,0.8-0.1,1.2-0.2C364,173.3,365.2,171.7,364.1,170.5z M389.4,202.6c-2,0-2.8-1.8-5-1.5   c2.3,2.6,4.1,3.1,7,2.1c-0.3-0.3-0.5-0.5-0.7-0.7C390.3,202.5,389.8,202.6,389.4,202.6z M385.2,131.6c0.6-0.5,0.9-1.1,0.1-1.9   c-1.2,2.5-3.4,3.8-5.4,5.8C382.1,138.4,385.1,134,385.2,131.6z M369.7,191.7c-1.9-2.1-2.4-5.9-5.3-6.8c-1.8,1.9,1.5,6.9,3.7,7.6   c2.6,0.2,4,2.2,6.6,2.4C374,192.4,371.8,192.2,369.7,191.7z M371.3,144.5c-2,2.7,0.2,6.4-1.7,9.2c-1.6,3.7-4.1,6.9-3.9,11.1   C370.9,160.9,375.3,148.9,371.3,144.5z M374.1,185.1c-2.7-1.6-5.7-2.7-7.8-5.2c-0.5-4.8-4.7,0.1-2.3,2.7   C367.2,183.5,370,186.3,374.1,185.1z M434.3,206.4c1.8,0.2,3.8,1.2,5.5-0.8C438.3,204.1,435.9,205.1,434.3,206.4z M437.7,212.5   c1.9-0.2,3.9,0.7,5.3-0.9C440.8,210.3,439.3,211.7,437.7,212.5z M384.3,188.1c-0.6-1.8-2.3-3.1-3.7-1.5   C381.6,187.9,382.8,188.2,384.3,188.1z M379.4,198.3c-0.9,1.4,1.2,3.5,2.5,2.3C381.2,199.7,380.7,198.6,379.4,198.3z M432.6,211.8   c2.2,1.4,2.2,1.4,3.7,0C435.1,211.8,434,211.8,432.6,211.8z M386.5,123.7c1.2-1.4,1.2-1.4,1.1-3.1   C386.4,121.7,386.2,122.1,386.5,123.7z M386.4,126c-0.1,0-0.3-0.1-0.4-0.1c-0.4,0.8-0.8,1.5-1.2,2.4c0.5,0.1,0.8,0.2,1.4,0.4   C386.3,127.7,386.4,126.9,386.4,126z M371.8,170.6c1.1,0.9,1.2,1.6,2.3,0.9C373.8,170.2,373.2,170.7,371.8,170.6z M430.8,207.7   c0.4-0.5,0.7-0.8,0.9-1.2C431.1,205.4,429.9,206.5,430.8,207.7z M375.5,185c0.5,0.2,1,0.5,1.8,0.8   C377.1,184.6,376.7,184.1,375.5,185z M427.4,208.2c0.5-0.5,1.1-0.9,0.5-1.4C427,207,426.9,207.2,427.4,208.2z M376.8,197.4   c0.3-0.8-0.4-0.9-0.8-1.4C375.1,196.2,376,197.5,376.8,197.4z" />
	<path fill="#5876E8" d="M393.7,382.9c-0.8-0.1-1.7-0.1-2.6-0.2c-3.3-9.1-14.9-13.8-19.2-22.3l0,0c5.5,2.6,10.4,6.4,16.1,8.5   c1.2-1.8-7.6-7-8.9-10c8.3,3.5,16.1,7.8,24.5,10.9c0.9,3.2,1.2,5.5,1.9,9.1c2.5-2.7-0.9-5.7,0.7-8.8c-3.2-10-3.2-21.5-6.1-31.9   c4.3-0.8,6.5,3.1,11.2,2.5c-4.1-2.6-9.4-2.5-12.2-6.2c-0.6-3.1-0.6-3.1-2.1-4c0.3,1.6,0.5,3.1,0.7,4.6   c-18.4-6.2-36.9-13.5-51.9-26.1c-11.8-33.4-10.5-33.3,1.6-64.9c0.5,0,1.1,0,1.7,0c-0.1-0.6-0.2-1-0.3-1.4c0.4-0.4,0.8-1.2,1.1-1.2   c2.5,0.5,2.2-2.9,4.6-3.3c3.3,1.1,5.6,0.7,4.7,4.9c1.4-0.6,1.3-2.1,2.2-3c0.3-0.1,0.7-0.1,1-0.2c0.3,0.4,0.5,0.8,0.7,1   c-0.7,1.5-1.2,2.9-1.8,4.2c7.6,1.4,12.1,8,19.1,10.4c0.7-0.7,1.4-1.5,2.3-2.5c0,1.6,0,2.9,0,4.2c-0.4,0-0.7,0-0.3,0.5   c0.6-1.1,1.4-1.5,2.6-2.8c-1.3,6.6,0.8,7,5.1,11.1c-0.2,7.2,0.4,14.2,2.6,21.1c0.8,0.3,1.6,0.5,2.5,0.8   c16.7,28.6,31.9,58.1,33.8,91.8C417.4,381.6,405.5,381.9,393.7,382.9z M358.2,297c13.3,11.3,28.6,22.4,44.5,29.1   c-16.7-9.7-33.1-21-48.1-32.1c-0.8-1.2-1.7-2.4-3.3-2.5c0.9,1,1.5,2.6,3.2,2.6C355.5,295.4,356.4,296.7,358.2,297z M372.7,267.3   c-2.9-2.1-7.4-14.3-10.2-12.9c2.2,3.3,4.4,6.7,6.6,10.1c-2,2.2-2.4-3.1-4.4,4c0.9,3.7,4.5,5.9,5.1,9.3c-3.6-1.6-6.5-4.3-9.7-6.4   c7.5,8.2,21,15.9,31.1,17.5c-3.8-1.7-7.1-3.2-10.5-4.7c-3.1-4.9,6.6-25.9-2.7-24.8c2.1,3.9,2.2,8.1,1.9,12.4   c-0.4,0.4-0.7,0.8-1.1,1.2C376.7,271,374.7,269.2,372.7,267.3z M388.6,294c0.1,0.2,0.1,0.4,0.4,0.4c-4.9-4.7-10.8-9.1-17.4-11.3   C377.4,286.8,382.4,291.2,388.6,294z M385.7,305.6c-0.4-1.8-1.1-3.5-1.1-5.7c5.8,3.1,11.5,9.1,17.4,9.7c-5.3-6.1-14.7-9.3-20.4-15   c-9.7-2.3-17.4-11.1-27.4-11.1c9.7,4.7,19.7,8.7,28.3,15.1c1.6,3.2,2.4,15.2,5.7,15.1C386.6,311.3,387,308.1,385.7,305.6z    M354.8,299.1c-1.5,10.2,22.9,26.8,31.4,30C375.8,319.5,368.1,304.5,354.8,299.1z M352.9,273.7c2.2-2.5,6.1-28.1,3.4-30   C348.2,242,348.6,269.2,352.9,273.7z" />
	<path fill="#B7BDD5" d="M343.4,98.5c2.3-1,4.6-1.9,6.9-2.9c0.3,2.1-1.1,4-1.4,5.9c0.3,0.2,0.5,0.4,0.7,0.5   c-4.1,10.4-8.3,23.6-4.2,34.4c-6.8,14.2-6.5,29-5.4,44.3c-0.9-1.4-0.7-3-0.8-4.6c-2.2,6.5-0.6,12.9-0.4,19.5   c0.6,0.1,0.9,0.2,1.3,0.3c0.5,1.8,1,3.7,1.5,5.7c2.5-0.1,4.1,1.5,5.8,3c-3,9-3.7,20.1-3.9,29.5c2.3,0.6,5.6-0.9,7.5,0.8   c-9-0.1-18.1,0.3-26.9,0.7l0.1,0.1c2.3-6.5-1.3-13.2-0.5-19.9c0.2-6.7-6-14.1-3.7-20.6c0.1,0.1,0.2,0.2,0.2,0.2   c0,0-0.1-0.1-0.3-0.2c0.7-16.4-9-29.4-11.1-45.2c3.9-19.8,8.5-44.5,28.1-54.8c0.9,2.3,2.7,2.9,4.4,4.3c-4.9,3.6-6.3,10.9-5.1,16.8   c-3.6,9.4-9.2,20-1.9,29.1l0,0c-0.9,5.1-1.9,12.2,1.5,16.5c0.3-5.9-1.5-10.8-0.6-16.5c0.6-6.5-6.4-8.8-0.7-18.2   c-0.3-0.5-0.6-1-0.9-1.5c0.7-3,2.9-5.1,4.4-7.8C337.7,111,338.3,103.8,343.4,98.5z M334.5,166.1c-0.1-1.3-0.1-2.4-1.3-3.2   c-0.8,2.1,0.1,3.7,0.4,5.4c-2,1.6-1.7,4.6-0.7,6.8c0.9,8.5,0.6,18-1.9,26.4c4.4,2.9-7.4,30-2.7,32.5c1.1-9.6,6.3-19.4,4.9-29.2   c1.3-7.7,4.8-18.3,1.4-25.6c0.4-3.4-1.4-6.6-0.8-10c0.2,0,0.5,0,0.7,0C335.5,170,335.3,166.7,334.5,166.1z M323.9,118.2   c1.5,4,0.3,7.8,0.3,11.9C327.2,127.7,330.5,116.9,323.9,118.2z M323.8,132.4c-2.7,3-2.6,7.6,0.3,10.5   C323.3,138.5,324.5,136.5,323.8,132.4z" />
	<path fill="#EECABA" d="M348.1,117.9c1-2.4,1.6-6.3,5-5.8c1,5.2,4.2,11.8,9.3,13.8c0.9,1.1,1.2,3.6,3.1,2.9c0.2-1.6-0.5-2.6-2.1-3   c-0.4-2-2.5-2.4-3.4-3.6c-0.5-1.2-0.7-2.2-1.3-3.1c-3-3.2-1.5-8-3.5-11.2c0.4,0,0.7,0,1.2,0c0.2,0.9,0.5,1.8,0.7,2.9   c5.4,3.7,7.2,11.4,11.5,16.4c2.8,3.1,11,10.6,3.7,13.1c-4.7-1.3-7.6-5.3-11.7-8c-9.9,6.9-7.1,18.5-2.5,27.7   c-1.6,3.1,1.3,6.6-1.1,9.7c-1.8-0.6-3.4-1.1-5.7-1.8c-1.2-1.3-2.8-3.1-4.4-4.8c-2.3,10.2,2.8,21.8,1.1,32.5   c17.8,8,33.8,18.5,53,23.2c0.8-0.7,1.5-1.3,2.2-1.9c5.4,2.6,30.2-4.6,22.2,6.9c4.8,3.1,9.5,6,15.6,5.3c-1.7,1.4-4.7,0.4-6.2,2.4   c-4.9-0.2-9.3-1-12.8-5c0-0.4-0.5-1.7-0.8-2.2c0.6-0.3,1.2-0.6,1.9-1c-1.6-0.8-1.6-0.9-3.5-0.5c0,0.3,0,0.6-0.1,1.1   c-1-0.2-2-0.3-3-0.5c0.1-0.5,0.2-1.1,0.3-1.8c-1.1-0.1-1.9-0.3-2.7-0.4c-0.7,0.7,1,0.9,0.1,1.5c-1.3,0.1-1.9-0.9-2.4-1.6   c-3.9-0.4-8-3.9-11.2-0.4c-20.7-2.5-40.3-11.8-58.2-22c-1.3-6.3,0.4-12.9,0.3-19.2c-0.5-8.6-3.6-17.6-0.8-26.1   c0.3-8.5,9.2-16.8,6.4-24.9c-1.7,1.4-1.2,3.1-2.5,4.9c-0.5-5.9,0-12.2,1.2-17.9C347.6,116.3,347.1,117.4,348.1,117.9   c0.5,2.5-2.8,9.7,1.5,9.3c0.6-2.8-1.1-5.6-0.8-8.5C348.8,118.4,348.4,118.1,348.1,117.9z M348.3,156.7c0.3,0,0.6-0.1,0.9-0.1   c-0.6-3.2-1.3-6.6-2.3-9.6C342.3,146.7,347.8,154.5,348.3,156.7z M349.7,162.5c1.6-1.4,1.1-4.2-1-4.5   C348.6,159.6,348.6,161,349.7,162.5z M369.8,133c0.1,2.2,0.1,2.2,2.2,2.8C371.4,134.6,371.8,133.3,369.8,133z M368.7,131.7   c-0.1-1.3-0.3-2.3-1.4-2.9c-0.3,0.1-0.6,0.2-1,0.4C366.6,130.4,367,131.4,368.7,131.7z" />
	<path fill="#CCD2E9" d="M351,234.8c-1.9-1.7-5.2-0.1-7.5-0.8c0.2-9.4,0.9-20.5,3.9-29.5c15.6,6.6,30.6,15,47.6,17.6   c-1.3,7-6.4,12.9-6.3,20.2c-0.8,2.7-1.7,6-3.8,7.9c-10.8-6.1-19.7-14.7-32.9-14.1C351.7,235.7,351.4,235.2,351,234.8z M379.1,234.9   c1.1,3.6,1.4,7.4,0.8,11.1c5.4,2,1.1-16.9-1.5-16C378.6,231.6,378.2,233.3,379.1,234.9z M379.1,224.2c-1.7,1.2-1.7,1.2-0.9,3.4   C379.5,226.8,379.5,225.8,379.1,224.2z M378.4,220.2c-1.2,0.7-1.2,0.9-1.3,2.1C378.4,222.1,378.4,222.1,378.4,220.2z" />
	<path fill="#FBDFD3" d="M415.4,71.6c0.3,0.6,0.7,1.2,1,1.9c-0.2,1.5-0.5,3-0.7,4.4c-1.1,0.8-2.9,0.9-3.3,2c0.6,0.2,1.3,0.4,2.1,0.7   c-0.2,0.6-0.4,1.1-0.6,1.6c-4.8,1.6-2.8,7.1-5.1,10.3c-5.1-0.7-8.4-6.8-12.9-8.8c-0.8-1.2-1.5-2.3-2.3-3.5c0-0.6,0-1.3-0.8-1.4l0,0   c-0.2-3.5,0.5-6.9,0.8-10.3c0.7-3.4-2.2-7.3,0.4-10.2c1.7-3-3.6-1.4-5-1.5c-1.3-3.7-5.7-8.4-3.2-12.4c0.7,0.8,1,1.9,2,2.4   c-0.7,1.4-0.7,1.4,0.8,1.9c0-0.6,0-1.2,0-1.7c0,0-0.1,0-0.1,0c1.2,0.2,2.9-1.3,3.4,0.2c-0.6,1-1.3,1.9-2,3c0.8,0.5,1.3,0.8,2,1.3   c0.9-1.7,1.9-2.9,3.7-3.2c0.1,2.3,0.2,4.7,0.4,7c8.9-11.7,6.5-22.4,26.5-18.3c-0.1,4.8,0.8,10.3-0.5,15c-0.4-0.9-0.8-1.9-1.2-2.9   c-2.7,0.3-4.9-0.3-7.6,0.3c0.1,0.7,0.3,1.2,0.4,1.8c1.8,0.2,3.2-0.1,4.7-0.8c1.3,0.3,1.7,1.3,2.1,2.4l0.1-0.1   c-1.2-0.2-1.4,1.2-2.1,2c-1.7,0-3.4,0-5.1,0c0.1,2,2.3,1.6,2.9,3c-0.6,0.9-2.1,2.3-0.2,2.8c1.1-1.3,2.2-2.7,3.2-4   c0.2,0.3,0.5,0.6,0.7,0.9c0.1,4.9,2.1,9,1.7,14c-1.4,0.2-2.8,0.3-4.2,0.5c-0.5-0.9-0.9-1.6-1.3-2.4   C414.9,68.6,414.4,70.9,415.4,71.6z M388.6,53.2c3.3,1.2,3.4,1.2,4-0.7C389.5,52.3,389.5,52.3,388.6,53.2z" />
	<path fill="#EECABA" d="M321.4,213.1c1.5,2.2,0.2,5.1,0.4,7.8c-4.6-0.7-8.6-3.4-13.2-5.1c-3.1-7.1-12.2-6.1-17.7-9.8   c5.6-21.4,5.9-44.1,13.6-64.9c0.8-11.1,2.2-24.1,13.3-29.9c-1.6,6.4-5.3,12.1-5.9,18.8c-0.8,1-0.7,2.3-0.8,3.5   c-0.4,1.3-1.3,2.4-1.3,3.8c-0.1,0.2-0.2,0.4-0.1,0.6c-0.7,0.6-0.8,1.4-0.6,2.2c-0.1,0.3-0.3,0.6-0.5,1.1c-1.2-1-0.8-2.4-1.4-3.8   c-1.9,6.2,0.9,12.9,0.4,19.3c-0.4-0.3-0.8-0.7-1.2-1c-2.6,8.6,1.9,17.6,0.5,26.4c-4.7,5.6-6.1-1.3-6.9-5.1   c-1.8,7-2.5,14.6-3.1,21.9c4.1,1.8,10,1.3,12.1,5.7c-1.4,1.2-1.4,1.2-5,1.6c4.9,4.8,10.8,8.1,17.3,11.1   C321.4,215.7,321.4,214.4,321.4,213.1z" />
	<path fill="#CCD2E9" d="M387,169.8c3.8-3.4,4.5-9.2,9.4-11.6c2.5,2.6,2.1,7.3,6.9,7.3c4.7-4.2-1.3-10-0.3-15.1   c2.6-6,4.3-12.2,3.5-18.7c0.3-0.3,0.6-0.6,0.9-0.9c6.4,6.3,3.2,20,4.4,28.6c-9.1,10.2-10.9,22.3-10.5,35.5   c-6.7-5.1-11.7-12.7-17.9-18.5C384.7,173.9,385.7,171.9,387,169.8z" />
	<path fill="#FBDFD3" d="M321.4,213.1c0,1.3,0,2.6,0,4.3c-6.5-3.1-12.4-6.3-17.3-11.1c3.5-0.4,3.5-0.4,5-1.6   c-2.2-4.4-8-3.9-12.1-5.7c0.6-7.2,1.3-14.8,3.1-21.9c0.8,3.8,2.3,10.7,6.9,5.1c1.4-8.8-3.1-17.8-0.5-26.4c0.4,0.3,0.8,0.7,1.2,1   c1.2,19.5,19.1,26.6,0,38.1c3.9,0.5,6.3-1.5,8.7-3.2C318.1,198.3,317.4,206.7,321.4,213.1z M309.4,191.2c-1,1.1-0.8,1.7,0.4,0.7   C309.7,191.7,309.6,191.6,309.4,191.2z" />
	<path fill="#FBDFD3" d="M393.5,56.5c2.6,1.1-1.4,3.1-0.6,5c-1.1-0.6-2.2-1.3-3.6-0.1c-0.1,10.2-1.1,20-2.4,30.2   c-1.5,0.1-2.9,0.2-4.3,0.3c-1.7-1-3.1-2.2-3.7-3.9c-2.9-0.6-4.8-3.1-7.6-3.4c-0.8-0.8-1.9-1.3-2.8-1.9c0.5-2.1,1-4.2,1.6-6.3   c0.5,0.1,1.1,0.1,2.2,0.2c-0.6-0.8-0.9-1.1-1.1-1.4c-0.1-5-0.3-12.6,6-13.9c0.2-0.5,0.5-1,0.8-1.5c0.8,0.5,1.4,1.7,2,0.2   c2-0.5,2.8,1.4,4,2c2.3,0.6,3.7-0.2,4.3-1.6c1.2-0.7,2.5,0.2,3.2-1C392.4,58.7,394.2,58,393.5,56.5z M374.5,80.9   c0.2-0.1,0.5-0.1,0.7-0.2c-0.1-1.5-0.6-4.9-2.6-2.6C373.3,79.2,373.9,80,374.5,80.9z M376.7,85.8c0.4-1.6,0.2-2-1.1-1.5   C376,84.8,376.2,85.1,376.7,85.8z" />
	<path fill="#EDC9B9" d="M371.2,75.2c0.2,0.3,0.5,0.6,1.1,1.4c-1.2-0.1-1.7-0.2-2.2-0.2c-0.5,2.1-1,4.2-1.6,6.3   c0.6,0.4,1.3,0.8,2,1.2c-1.8,0-3.7,0-5.5,0c0,0.1,0,0.3-0.1,0.4c0.9,0.3,1.8,0.7,2.7,1c-5.9,0.7-1.9-4.1-9.5,0   c0.3-0.4,0.5-0.7,0.8-1.1c-0.8-1.8-2.3,0.4-0.8,1c-1.9,3.8-7.7,3.8-10.1,7.3c-0.3-0.1-0.7-0.2-1.2-0.4c-1.7,2-6.3,7.6-7.4,2.5   c12.9-5.5,19.2-15.3,22.8-28.9c0.2-0.4,0.7-0.7,1,0c0.4,1.3,1.5,0.5,2.3,0.7c1.4-0.9,2.6-0.8,4.3-1.5c0,0,0.5,0.1,0.9,0.3   c0.8-0.6,1.7-1.1,2.5-1.7c-1.9,3.2-2.3,6.7-2.2,10.3c-0.4-2-0.5-3.5-1.9-5.3C367.2,70.5,368.6,75,371.2,75.2z" />
	<path fill="#EBC7B8" d="M382.6,91.9c1.4-0.1,2.8-0.2,4.3-0.3c0.5-5.9,1.7-11.5,1.8-17.3c0.7,3.2,1,6.2,1.5,9.5   c1.2-1,0.3-2.5,1.3-3.4c2.3,1.9,2.9,4.9,5.7,5.9c-0.3-1-0.5-1.7-0.7-2.5c4,2.5,7.4,7.8,12.3,8.6c-4,2-9.9-1.5-14.5-1.9   c-0.6,0.9-1.2,1.7-1.6,2.4C389.3,92.6,386,92.4,382.6,91.9z M389.4,89.2c-0.3,1.3-0.2,2.1,1,2.3C391,90.6,390.9,89.9,389.4,89.2z    M390.7,85.3c-0.1-0.1-0.3-0.2-0.4-0.4c-0.2,0.4-0.3,0.7,0.2,0.9C390.5,85.7,390.6,85.5,390.7,85.3z" />
	<path fill="#FAFBFB" d="M450.8,247.9c-0.5,1.6-1,3.2-1.5,4.9c-5.3-1-10.6-1.3-15.9-2.7c0.6-1.5,1.1-2.8,1.6-4.2   c3.6-0.6,7.5,0.8,10.7-1.9c1,0.9,1.6,1.4,2.4,2.5C449.5,246.2,450.9,246.2,450.8,247.9z" />
	<path fill="#474B58" d="M451.5,253.3c3.3-9.5,4.7-20.7,8.3-29.8c1.6,4.8,0.3,10.5-1.2,15.3C456.6,241.9,455.1,253.6,451.5,253.3z" />
	<path fill="#B3BAD2" d="M403.1,150.4c-1.1,5.1,5,10.9,0.3,15.1c-4.9-0.1-4.5-4.7-6.9-7.3c0.8-1.1,1.6-2,3.1-2.1   c-1.3,1.5,2.6,7.1,2,3.7c-1.3-0.9,0-2.5-1-3.6c-0.3,0-0.7,0-1-0.1C399.6,153.9,401.9,152.3,403.1,150.4z" />
	<path fill="#48B575" d="M434.2,236.4c-0.4,4.6-0.5,8.9-3.5,12.7c-1,0.1-2.1,0.4-3.2-0.4c0.6-3,1.2-6.1,1.7-9.2   c0.4,0.1,0.9,0.2,1.3,0.3c0.2-0.3,0.4-0.6,0.7-0.9c-3.8-1.8,2.1-2,0.5-4.7c0.7,0,1.3,0,2.1,0.1C434,235.1,434.1,235.8,434.2,236.4z   " />
	<path fill="#EBC7B8" d="M394.2,134.3c4.3,3.4,3.1,9.6,6.6,13.2c-0.4,2-1.1,3.8-2.9,5.5c-2.4-4-1.8-8.7-4-12.6   C392.3,138.2,392.5,136.3,394.2,134.3z" />
	<path fill="#33A15D" d="M430.6,236.9c-1,0.7-1,0.8-0.1,1.5c0,0.5,0.1,0.9,0.1,1.4c-0.4-0.1-0.9-0.2-1.3-0.3   c-0.6,3.1-1.2,6.1-1.7,9.2c-1.1-0.1-2.1-0.2-3.3-0.3c1.6-5.5,2.5-10.3,3-16c2.4,0.4,5,0.9,7.5,1.3c0.2,1,0.3,1.9-0.5,2.7   c-0.1-0.7-0.2-1.3-0.3-2.2C431.7,233.9,429.7,234.3,430.6,236.9z" />
	<path fill="#F4D8CC" d="M348.1,92.6c2.4-3.5,8.1-3.5,10.1-7.3l0,0c1.4-0.1,1.8-1.5,3.1-1.3c0.7,1.3,1.7,0.7,2.7,0.5   c1.2,1.3,2.8,0.8,4.4,0.8c0.3,0.4,0.5,0.7,0.7,1C361.9,88.2,355.2,91.7,348.1,92.6C348.1,92.6,348.1,92.6,348.1,92.6z" />
	<path fill="#151312" d="M387,46.2c-0.4-0.6-0.7-1.2-1.2-1.8c0.2-2.1,1.6-3.1,3.3-3.9c0.6,1.6,2-1.1,3.7,0.7   c0.3,1.6,0.6,3.2,0.9,4.7c0.8,0.3,1.3,0.6,1.9,0.8c0.3-0.9,0.6-1.5,0.8-2.1c0.5,3-0.9,7.1,0.9,9.6c-0.1,0.6-0.4,1.1-1.3,1.1   c-0.1-2.3-0.2-4.7-0.4-7c-1.8,0.3-2.8,1.5-3.7,3.2c-0.7-0.4-1.3-0.8-2-1.3c0.7-1.1,1.4-2,2-3c-0.5-1.5-2.3,0-3.4-0.2   c0.9-1.3,2.1-2.1,2.1-3.9C388.9,43.9,387.9,45.1,387,46.2z" />
	<path fill="#0D0D0E" d="M343.4,98.5c-5,5.3-5.6,12.5-5.3,19.4c-1.3,1.9-2.5,3.8-3.8,5.7c-0.2-0.3-0.5-0.6-0.7-1   c0.9-2.1,1.7-4.2,2.6-6.4c-1.2-5.9,0.1-13.2,5.1-16.8c-0.4-0.3-0.8-0.7-1.2-1.1C341.2,98.4,342.3,98.5,343.4,98.5z" />
	<path fill="#E9C7B8" d="M391.5,59.5c-0.7,1.2-2,0.3-3.2,1c-0.7,1.5-2.1,2.2-4.3,1.6c-1.1-0.6-2-2.5-4-2c0.1-0.6,0.1-1.1,0.2-1.7   c0.5,0.3,0.9,0.5,1.3,0.8c0.9-2.8,0.2-6.3,2.1-9.1c0.2,0.1,0.4,0.1,0.6,0.1c1.2,3.2,1.2,6.7,3.9,9.3   C389.1,59.4,390.3,59.4,391.5,59.5z" />
	<path fill="#47B475" d="M392.9,240.7c0.7,0,1.4,0.1,2.1,0.1c0.2,4.7-0.1,9.5-0.1,14.2c-1,0-2.1-0.1-3.4-0.1   C392.6,250.2,391.4,245.2,392.9,240.7z" />
	<path fill="#0C0E1B" d="M348.9,242.8c0.1,0.4,0.2,0.8,0.3,1.4c-5.6-0.7-11.1-0.6-16.9-2.2c0-0.5-0.1-0.9-0.1-1.3c0,0-0.1,0-0.1,0   c0.9-0.1,1.8-0.2,2.7-0.3c0.4-0.8,0.7-1.5,1.1-2.5c-1-0.1-1.6-0.2-2.3-0.2c1.3-1.3,2.4-0.4,3.6,0.1c-0.3,0.9-0.7,1.7-1.1,2.7   c0.9,0.4,1.7,1.2,3.2,0.6c0.2-1.3,1.7-2.4,1.6-4.1c0.4,0.2,0.9,0.5,1.3,0.7c0.1,1.2-1.3,2.3-1.8,3.4c1.8,0.9,3,0,4.1-1.2   c0,0.6,0,1.2,0,1.8C346.1,242,347.5,242.1,348.9,242.8z" />
	<path fill="#E6EBEB" d="M479.6,257.3c-6.5-2-12.8-4.5-19.2-6.7c0.5-2,9,0.8,10.6,1.9c2.5,1.6,6.1,0.4,8.6,2.2   C479.8,255.5,479.7,256.4,479.6,257.3z" />
	<path fill="#DFC3B5" d="M404.7,223.1c-1,4.5-4.6,5.5-8.6,4.5c0.2-1.8,1-3.2,1.8-4.9C400,222.7,402.1,222.8,404.7,223.1z" />
	<path fill="#1F1A18" d="M391.5,59.5c-1.2,0-2.4-0.1-3.5-0.1c-3-3.2-3.4-7.5-4.3-11.6c0.4-0.5,0.8-0.9,1.2-1.4   c0.2,3.7,2.7,7.3,4.1,10.5c1.4-0.1,3-0.2,4.5-0.4C394.2,58,392.4,58.7,391.5,59.5z" />
	<path fill="#C5CBE2" d="M340.1,195.8c-0.3-0.1-0.7-0.2-1.3-0.3c-0.2-6.6-1.8-13,0.4-19.5C340.3,182.6,340.2,189.2,340.1,195.8z" />
	<path fill="#EFD8CC" d="M401.3,230.6c-0.2,1.1-0.4,1.9-0.6,2.7c-2.3,1.4-4.6,0.9-7,0.8c-0.1-1.7,0.8-2.8,1.4-4.2   C397.1,229.5,399.1,229.7,401.3,230.6z" />
	<path fill="#319557" d="M392.9,240.7c-1.6,4.5-0.3,9.5-1.4,14.2c1.3,0,2.3,0.1,3.4,0.1c-0.8,1.2-2.3,0.5-3.6,0.7   c-2.3-4.2-1.5-10.5,0.7-15C392.2,240.7,392.6,240.7,392.9,240.7z" />
	<path fill="#3A404A" d="M460.3,221.6c-1.3-0.3-2-0.5-2.9-0.7c-2-5.8-7.7-8.5-11.5-12.9C451.4,211.5,457.7,215.6,460.3,221.6z" />
	<path fill="#C4CBE1" d="M349.6,102c-0.2-0.1-0.4-0.3-0.7-0.5c0.3-2,1.7-3.8,1.4-5.9c2.4-0.8,4.7-1.9,7.2-2.4c0,0.3,0.1,0.6,0.1,0.9   C354.6,96.3,351.9,99,349.6,102z" />
	<path fill="#4A65C7" d="M369,246.5c-2.2-0.2-4.1-1.7-6.1-2.5c0.7-1.4,0.8-3.1,2.6-3.4c1,0.7,1.9,1.3,3,2.1c0,0.6,0.1,1.2,0.1,1.8   c0.4,0,0.8-0.1,1.3-0.1C369.5,245.1,369.3,245.8,369,246.5z" />
	<path fill="#9196A7" d="M364,90.4c2.7-1.2,5.5-2.1,8.6-2.6c0.9,0.6,1.9,1.2,3.6,2.3c-4.6,0-8.4,0.5-12.1,1.2   C364,91,364,90.7,364,90.4z" />
	<path fill="#5270DB" d="M369,246.5c0.3-0.7,0.5-1.5,0.8-2.2c2.3-0.1,3.8,1.5,5.8,2.5c-0.3,0.8-0.6,1.6-1,2.5   C372.6,248.6,370.6,247.9,369,246.5z" />
	<path fill="#4C68CC" d="M347.4,242.2c-0.9-0.2-1.8-0.3-2.9-0.5c0-0.7,0-1.2,0-1.8l-0.1,0.1c1.4-0.5,1.5-1.7,1.6-2.8   c1.4,0,2.7,0,4.1,0C349.9,239.1,349.1,240.9,347.4,242.2z M348.2,239.1c-1.5,0.1-1.7,0.8-1.3,2.2   C347.4,240.4,347.8,239.8,348.2,239.1z" />
	<path fill="#EBD7CB" d="M400.2,236.4c-0.2,3.6-5.3,2-8,1.9C392,233.8,397.3,236.7,400.2,236.4z" />
	<path fill="#A8B8B8" d="M493.5,261.5c5,1.8,10,3.6,14.9,5.4c-0.3,0.2-0.5,0.4-0.8,0.6c-5-1.7-10-3.5-15-5.2   C492.9,262,493.2,261.7,493.5,261.5z" />
	<path fill="#181830" d="M347.4,242.2c1.7-1.3,2.5-3.1,2.8-5.2c1.6-0.2,3,0.5,4.4,1.2c-0.5,0.3-1,0.5-1.5,0.8   c-0.6-1-1.2,0.2-0.7,0.8c-1,3-2.2,0.7-3.5,2.9C348.4,242.6,347.9,242.4,347.4,242.2z" />
	<path fill="#1F2020" d="M401.5,25.1c3.9-1.7,8-3.6,12.2-1.5C409.2,24,406.2,25.5,401.5,25.1z" />
	<path fill="#CDB8AE" d="M396.4,44.7c-0.2,0.6-0.5,1.3-0.8,2.1c-0.6-0.3-1.1-0.5-1.9-0.8c-0.3-1.5-0.6-3.1-0.9-4.7   c0.2,0,0.5,0,0.7,0c0.3,0.4,0.6,0.9,0.9,1.3c0.5-0.4,0.8-0.7,1.1-1C396.9,42.4,396.1,43.7,396.4,44.7z" />
	<path fill="#C7B2A8" d="M419.8,57.4c-0.2-0.3-0.5-0.6-0.7-0.9c0.5-1.2,0.9-2.5,1.3-3.7l-0.1,0.1c3.5,0.1,1.8-5.8,2.3-8.1   c0.7,2.6,0.5,5.3,0.5,7.9C422,54.3,420.9,55.8,419.8,57.4z" />
	<path fill="#313841" d="M410.1,258.5c-4.8,0.5-9.4,0.1-14.5-1c2.3-1,3.7-1.1,5.8-0.3C404.3,258.6,407.5,257.1,410.1,258.5z" />
	<path fill="#3A519F" d="M340.9,237c0.1,1.7-1.3,2.7-1.6,4.1c-1.5,0.6-2.3-0.2-3.2-0.6C336.8,237.9,338.2,236.4,340.9,237z" />
	<path fill="#171E3C" d="M365.5,240.6c-1.7,0.3-1.8,2.1-2.6,3.4c1.6,0.8,3.2,1.6,4.8,2.3c-0.3,0.2-0.5,0.5-0.8,0.7   c-1.8-0.6-3.5-1.2-5.5-1.9c0.6-1.3,1.1-2.7,1.8-4.2c-0.2-0.2-0.4-0.6-0.7-1C363.5,240,364.7,239.4,365.5,240.6z" />
	<path fill="#4B68CD" d="M342.2,238.3c0-0.2,0-0.4,0-0.6c0.8-1,1.9-0.6,2.9-0.6c-0.2,1-0.4,1.9-0.6,2.9l0.1-0.1   c-1.1,1-1.9,2-3.6,1.4C340.5,240.1,341.7,239.3,342.2,238.3z" />
	<path fill="#454854" d="M434.9,244c0.3-1.4,0.5-2.6,0.8-3.8C439.9,238.9,438.7,244.7,434.9,244z" />
	<path fill="#6F7C7C" d="M522.2,271.8c3.5,1.3,7.1,2.2,10.3,4c-0.1,0.1-0.2,0.2-0.2,0.3c-3.5-0.7-6.9-1.9-10.1-3.5   C522.2,272.4,522.2,272.1,522.2,271.8z" />
	<path fill="#393F4A" d="M439.6,238.5c1.7,0.4,3,1.2,3.9,2.9C441.4,244.9,440.1,240.8,439.6,238.5z" />
	<path fill="#8E9F9F" d="M522.2,271.8c0,0.3,0,0.6,0,0.8c-3.5-1-6.9-2-10.1-3.8c0-0.2,0-0.5,0-0.7   C515.5,269.4,518.8,270.6,522.2,271.8z" />
	<path fill="#BEB8AE" d="M372.7,94.7c-1.2-0.7-2.5-0.7-3.8-0.7c-0.4-0.3-0.8-0.5-1.3-0.9c1.5-1,3.1-1.3,4.9-1.2   c0.3,0.5,0.6,0.9,0.9,1.4C372.7,93.5,372.7,94.1,372.7,94.7z" />
	<path fill="#C7AB9E" d="M393.7,150.8c1.3,1.5,2.1,2.5,3,3.7c-1,0.7-1.9,1.4-3,2.3C393.7,154.8,393.7,153.2,393.7,150.8z" />
	<path fill="#292B2B" d="M373.1,22.2c-0.5,1.6-1.5,2.8-3,3.7c-0.3-1.9,1.5-4,2.2-6.2C372.6,20.7,372.9,21.5,373.1,22.2z" />
	<path fill="#292C2C" d="M379.2,29c-0.7,2.2-3.6,3.6-5.8,4.3c0,0,0,0,0,0C375.2,31.6,376.4,29.1,379.2,29L379.2,29z" />
	<path fill="#313434" d="M393.8,13.4c-1.8,1-3.6,2.1-5.9,0.8C389.8,12.3,391.9,13.5,393.8,13.4z" />
	<path fill="#4159AE" d="M333.6,237.6c0.7,0.1,1.3,0.1,2.3,0.2c-0.4,1-0.7,1.7-1.1,2.5c-0.9,0.1-1.8,0.2-2.7,0.3   C332.2,239.4,332.7,238.4,333.6,237.6z" />
	<path fill="#7C8C9B" d="M364,90.4c0,0.3,0,0.6,0,0.8c-2.1,0.9-4.3,1.9-6.4,2.8c0-0.3-0.1-0.6-0.1-0.9C359.5,91.8,361.7,91,364,90.4   z" />
	<path fill="#A2A9BB" d="M407.5,130.8c-0.3,0.3-0.6,0.6-0.9,0.9c-0.7-2.2-2-4.1-2.3-7.1C406.3,126.6,407.4,128.4,407.5,130.8z" />
	<path fill="#212323" d="M393.9,28.9c-2.5,1.3-4.5,2.5-7.4,3c0.4-0.6,0.5-1,0.8-1C389.6,30.4,391.4,28.5,393.9,28.9z" />
	<path fill="#424B4B" d="M548.3,281.8c2.8,0.3,5.8,1.4,7.9,2.9l0,0C553.4,284.3,550.3,283.2,548.3,281.8L548.3,281.8z" />
	<path fill="#252B33" d="M458.7,245.9c2.8-0.7,4.2,0.5,6.8,0.7C462.6,247.5,460.7,247.3,458.7,245.9z" />
	<path fill="#1E2424" d="M405.8,22.3c-2.9,0.5-5.3,1.5-8,1.6C400.3,22.6,402.9,21.3,405.8,22.3z" />
	<path fill="#222A2A" d="M402.4,30.8c3.3-0.4,5.3-0.1,8.3-1.7C408.8,31.4,407.4,31.7,402.4,30.8z" />
	<path fill="#6F7C7C" d="M532.5,275.9c2.7,0.7,5.5,1.2,7.9,3l0,0c-2.9-0.4-5.6-1.2-8.1-2.8C532.3,276.1,532.4,276,532.5,275.9z" />
	<path fill="#545F5F" d="M548.2,281.8c-2.8-0.6-5.6-1-7.9-2.9l0,0C543,279.2,546.1,280.3,548.2,281.8L548.2,281.8z" />
	<path fill="#353031" d="M309.9,137.4c-0.1-1.4,0.8-2.6,1.3-3.8c0.2,0.3,0.5,0.6,0.7,0.9c-0.3,1.8-0.3,3.6-1.3,5.2   C310.3,138.9,310.9,137.9,309.9,137.4z" />
	<path fill="#434E4A" d="M373.5,93.3c-0.3-0.5-0.6-0.9-0.9-1.4c1.8,0,3.6,0,6,0C376.6,93,375.1,93.5,373.5,93.3z" />
	<path fill="#2F407D" d="M326,241.8c0.5-1.8,1.3-3.5,2.9-4.7C329.6,238.8,327.3,240.7,326,241.8z" />
	<path fill="#272A2A" d="M377.1,34.7c1.2-1.9,2.7-2.6,4.9-2.8C380.3,33.7,380.2,33.7,377.1,34.7z" />
	<path fill="#212222" d="M367.9,46.4c-0.8,1.7-1.4,2.8-2.1,4.3C365.4,47.1,365.4,47.1,367.9,46.4z" />
	<path fill="#263466" d="M323.5,243.5c-0.3,0-0.5-0.1-0.8-0.1c0.5-2,1.5-3.7,2.7-5.9C325.9,240.3,324.1,241.7,323.5,243.5z" />
	<path fill="#50332F" d="M414.6,222.6c0.9-0.6-0.8-0.8-0.1-1.5c0.7,0.1,1.6,0.2,2.7,0.4c-0.1,0.7-0.2,1.3-0.3,1.8   C416,223.3,415.1,223.6,414.6,222.6z" />
	<path fill="#2F3737" d="M564.2,287.6c-2.1-0.2-4.2-0.6-5.8-2.2l0,0C560.5,285.6,562.5,286,564.2,287.6L564.2,287.6z" />
	<path fill="#DEDDDD" d="M450.8,247.9c-0.1-0.6,0-1.4-0.9-1.6c0.3-0.9,0.5-1.9,0.8-2.8c0.5,0,1,0,1.4,0   C452,245.1,451.7,246.6,450.8,247.9z" />
	<path fill="#9DACAC" d="M493.5,261.5c-0.3,0.2-0.6,0.5-0.9,0.7c-1.4-0.5-3-0.7-4.4-1.9C490.4,259.6,492,260.7,493.5,261.5z" />
	<path fill="#202525" d="M566.3,288.3c2,0,3.7,0.8,5.3,1.9C569.7,290,567.8,289.8,566.3,288.3L566.3,288.3z" />
	<path fill="#2E3030" d="M381.9,12.8c0,0.5,0,0.9,0,1.4c-1,0.3-2,0.7-3.5,1.1C379.4,13.7,380.4,13,381.9,12.8z" />
	<path fill="#232626" d="M382.8,35.5c0.7-1.8,2.5-1.4,3.7-2.1C388,35.3,383.9,35,382.8,35.5L382.8,35.5z" />
	<path fill="#3F1B19" d="M368.3,85.3c-1.2,0.2-2.3-0.7-3.4-1c0-0.1,0-0.3,0.1-0.4c1.8,0,3.7,0,5.5,0c0.3,0.2,0.6,0.5,0.8,0.7   C370.3,84.5,369.3,84.7,368.3,85.3z" />
	<path fill="#2D2C2C" d="M388.6,23.1c1.7-1.4,1.7-1.4,5.2-1.1C391.4,22.6,390.9,23.2,388.6,23.1z" />
	<path fill="#181919" d="M368.3,33.4c0.3,0.2,0.6,0.3,1,0.6c-1.2,1.3-1.3,1.8-2.9,2.3C366.1,34.6,367.4,34.3,368.3,33.4   C368.4,33.4,368.3,33.4,368.3,33.4z" />
	<path fill="#22252B" d="M437.1,233.6c-0.3,3.3-0.3,3.3-1,3.9C435.9,236,436.1,235.3,437.1,233.6z" />
	<path fill="#1D2025" d="M460.4,240.3c-0.3,1.1,0.9,2.9-1.6,3.1C458.8,242,459.4,241,460.4,240.3z" />
	<path fill="#292627" d="M311.9,134.4c-0.2-0.3-0.5-0.6-0.7-0.9c0.1-1.2-0.1-2.5,0.8-3.5c0.3,0.5,0.5,1,0.8,1.5   C312.4,132.5,312.2,133.5,311.9,134.4z" />
	<path fill="#1A1D1D" d="M395.8,31.2c-1,1.2-2.5,1.5-3.9,1.9C392.8,31.6,394.2,31.1,395.8,31.2L395.8,31.2z" />
	<path fill="#3B3C3E" d="M387,169.8c-0.4,0.7-0.9,1.5-1.3,2.2c-0.5-0.9-1.4-0.5-2.1-0.7c0.8-0.8,2.1-1.1,2.8-2.2   C386.6,169.3,386.8,169.5,387,169.8z" />
	<path fill="#8A847D" d="M393.5,41.4c-1.3,0.1-2.1-1.5-3.5-0.3c-0.5,0.4-0.8,0-1-0.4C390.3,39.4,393.5,39.2,393.5,41.4z" />
	<path fill="#3C57AC" d="M377.1,247.8c0.7,0.4,1.2,0.7,1.7,0.9c-0.5,1.2-1.8,1.2-3.2,2.1C376.2,249.6,376.6,248.7,377.1,247.8z" />
	<path fill="#1E1F1F" d="M383,19.4c0.8-1.4,1.9-1.3,3.2-0.9C385.2,19.1,384.5,19.9,383,19.4z" />
	<path fill="#232828" d="M416.3,19.9c1.5-0.6,2.4,0.7,3.7,0.7C418.6,21.5,417.5,20.8,416.3,19.9z" />
	<path fill="#1B1E1E" d="M405.6,27.1c-1.6,0.5-2.5,0.8-3.4,1.1c-0.1-0.3-0.3-0.6-0.5-1.1C402.8,27.1,403.8,27.1,405.6,27.1z" />
	<path fill="#A49186" d="M383.7,47.8c0.1,0.8,0.2,1.5,0.4,2.3c-0.9,0-1.2-0.7-2.1-1.2c0.2-0.5,0.5-1.1,0.8-1.8   C383.2,47.4,383.5,47.6,383.7,47.8z" />
	<path fill="#2B2B2B" d="M371.7,60.6c-0.3-0.2-0.6-0.4-1.1-0.8c0.6-0.6,1.1-1.2,1.7-1.8C373,59.2,372.5,59.9,371.7,60.6z" />
	<path fill="#2C2F37" d="M462.8,238.3c-2.2-0.1-2.3-0.2-1.4-1.8C462.4,236.5,462.3,237.4,462.8,238.3z" />
	<path fill="#242525" d="M370.5,30.5c0.5-0.5,0.9-1,1.5-1.6C372.6,30.4,372.6,30.4,370.5,30.5z" />
	<path fill="#232424" d="M393.4,16.4c1.4-0.4,2.8-0.5,4.7,0C396.2,16.9,394.8,16.8,393.4,16.4z" />
	<path fill="#A09488" d="M365.6,66.5c-0.8-0.1-1.8,0.7-2.3-0.7c0.6-0.4,1.2-0.7,2-1.2C365.4,65.3,365.5,65.9,365.6,66.5z" />
	<path fill="#1D1F1F" d="M360.6,49c-0.4-1.1-0.2-1.9,0.9-2.4C362.1,47.7,361.8,48.5,360.6,49z" />
	<path fill="#282A2A" d="M399.8,44.1c-0.2-1.1-0.6-1.6,0.8-2c0,0.8,0,1.4,0,2C400.3,44,400.1,44.1,399.8,44.1z" />
	<path fill="#929595" d="M507.7,267.4c0.3-0.2,0.5-0.4,0.8-0.6c0.8,0.4,1.5,0.7,2.3,1.1c0,0.3,0,0.5,0,0.8   C509.7,268.2,508.7,267.8,507.7,267.4z" />
	<path fill="#473634" d="M395.9,127.3c0.3-0.6,0.6-1.2,1-1.9c0.6,1.8,0.6,1.8-0.2,3.5C396.4,128.3,396.1,127.8,395.9,127.3z" />
	<path fill="#0C0E1B" d="M344.5,239.9c0.2-1,0.4-1.9,0.6-2.9c0.3,0,0.7,0,1,0C345.9,238.3,345.9,239.5,344.5,239.9z" />
	<path fill="#3D5BB3" d="M380.4,253.1c-0.6-1.7-0.2-2.4,0.7-3C381.8,251.5,380.4,251.7,380.4,253.1z" />
	<path fill="#232727" d="M373,27.2c-0.1-1.2,0.5-1.6,1.5-1.7C374.4,26.8,373.5,26.8,373,27.2z" />
	<path fill="#81766C" d="M367.8,65.7c-0.3,0-0.6,0.1-0.9,0.1c0.1-0.8,0.2-1.6,0.2-2.4c0.1,0,0.2,0,0.4,0   C367.5,64.2,367.7,64.9,367.8,65.7z" />
	<path fill="#2E333C" d="M464.3,243.5c0-1,0.3-1.7,1.4-1C465.2,242.9,464.8,243.2,464.3,243.5z" />
	<path fill="#3A404A" d="M456.5,223.3c-0.9-0.7-0.9-1.7-0.9-2.8C457,220.7,456.4,222.3,456.5,223.3z" />
	<path fill="#9B8F8F" d="M479.6,257.3c0-0.5,0.1-1.1,0.1-1.6C480.2,256.2,480.8,258.5,479.6,257.3z" />
	<path fill="#319557" d="M395.1,242.9c0-0.7-0.1-1.4-0.1-2.1C396,241.5,396,241.6,395.1,242.9z" />
	<path fill="#2A7149" d="M438.2,201.5c-0.5,0-1,0.1-1.5,0.1c0-0.2,0-0.3,0-0.5c0.5,0,1-0.1,1.5-0.1   C438.1,201.2,438.2,201.3,438.2,201.5z" />
	<path fill="#181919" d="M368.4,33.4c-0.8-1-0.8-1,0.4-1.2C368.6,32.6,368.5,33,368.4,33.4L368.4,33.4z" />
	<path fill="#353031" d="M309.1,140.2c-0.1-0.8-0.1-1.6,0.6-2.2C309.9,138.8,310.1,139.7,309.1,140.2z" />
	<path fill="#283131" d="M566.3,288.3c-0.8-0.1-1.7,0.3-2.2-0.7l0,0C564.9,287.6,565.9,287.2,566.3,288.3L566.3,288.3z" />
	<path fill="#3B4848" d="M558.4,285.4c-0.8-0.1-1.7,0.4-2.2-0.7l0,0C557,284.7,557.9,284.3,558.4,285.4L558.4,285.4z" />
	<path fill="#B0CBCB" d="M510.8,268.6c0-0.3,0-0.5,0-0.8c0.5,0.1,0.9,0.2,1.4,0.3c0,0.2,0,0.5,0,0.7   C511.6,268.8,511.2,268.7,510.8,268.6z" />
	<path fill="#E9C7B8" d="M379.9,60.1c-0.4,1-0.9,0.9-1.4,0.1C378.9,60.2,379.4,60.1,379.9,60.1z" />
	<path fill="#232626" d="M382.8,35.5c-0.2,0.5-0.5,0.7-1.4,0.3C382.1,35.7,382.4,35.6,382.8,35.5L382.8,35.5z" />
	<path fill="#3B3C3E" d="M386.5,168.4c-0.2-0.6-0.1-1.2,0.5-1.7C387.2,167.4,387.2,168,386.5,168.4z" />
	<path fill="#1A1D1D" d="M395.8,31.2c0.1-0.2,0.2-0.3,0.3-0.5C396,30.9,395.9,31,395.8,31.2L395.8,31.2z" />
	<path fill="#292C2C" d="M379.2,29c0.1-0.2,0.2-0.3,0.3-0.5C379.4,28.7,379.3,28.9,379.2,29L379.2,29z" />
	<path fill="#353031" d="M310.4,141.7c-0.2,0.3-0.3,0.6-0.5,0.9C310.1,142.3,310.3,142,310.4,141.7z" />
	<path fill="#7C8C9B" d="M356.1,93.5c-0.3,0.1-0.6,0.3-0.9,0.4C355.5,93.8,355.8,93.6,356.1,93.5z" />
	<path fill="#EDC9B9" d="M348.1,92.6c0.3,0,0.6,0,0.9,0.1C348.7,93.1,348.3,93.5,348.1,92.6z" />
	<path fill="#292C2C" d="M373.4,33.4c-0.1,0.2-0.2,0.3-0.3,0.5C373.2,33.7,373.3,33.5,373.4,33.4L373.4,33.4z" />
	<path fill="#7C8C9B" d="M356.8,94.7c0.3-0.2,0.5-0.4,0.8-0.6C357.3,94.3,357.1,94.5,356.8,94.7z" />
	<path fill="#FBDFD3" d="M424,383.7c1.5-0.3,2.8-0.2,4.5-0.3c1.6,6.4,4,12.2,8.2,17.3c1.9,3.7-0.4,8.1,1,12   c-6.7,45.7-18.4,91.9-19,138.4c-1.9,1.1-4,1.7-6.4,1.7c-0.3-0.4-0.6-0.8-1-1.4c-0.5,0.6-1,1.2-1.6,1.9c-5,0.3-10.2,0.6-15.4-0.1   c0.8-5.2,0.5-10.4,1.6-15.6c11.4-8.9,0.1-31,6.9-43.2c-10-23.8-4.8-48.5,2.8-72.3c0.1,0,0.5-0.1,0.8-0.1c0.3,0.2,0.5,0.4,0.8,0.6   c0.1,1.2,0.5,2.2,2,2.3c1.7,4.5,4.4,10.1,8.7,12.5c0.4-11.2-4.3-21.1-12.3-28.8c-0.4-3.6-3.7-6.5-5.2-9.8c-1.7-0.3-2.7-1.3-3.5-2.7   c2.7-2.2,6.9-1.9,10.2-3.2c2.4,2.9,5.9,4.9,7.7,8.3c1.7,1.6,2.5,8.1,5.4,6.4c-0.8-2-1.8-4-3.6-5.4c-1.1-6.2-0.1-6.3-5.9-10.5   c1.6-2.3,4.8-3.1,7.4-3.7c-0.7,2,1.3,3,2.8,3.5c0.4,1.1,0.9,2.2,1.8,3c0.4-0.1,0.7-0.3,1-0.4c-0.2-1.4-1-2.2-2.2-2.6   c-1.1-1.2-1.6-3.5-3.5-3.5C419.5,385.8,422.7,385.8,424,383.7z M431.9,415.4c0.6,1.1,1.2,2.1,2.6,1.2c-0.3-3.7,1.2-15.2-5.3-13   c-0.2,2.3-0.2,2.3,0.4,3.4C431.6,409.6,430.6,412.8,431.9,415.4z M416.3,455.2c1.8-4.4,5.5-13.2,0.6-16.1   C416.9,444.8,415.6,449.6,416.3,455.2z M413.1,537.2c-0.2,0-0.4-0.1-0.6-0.1c-0.9,3.7-3,8.2-0.9,11.7   C414.9,546.8,412.3,540.6,413.1,537.2z M424.7,425.3c-1.8,2.1-2.1,3.9-2.8,5.6c0.4,0.3,0.7,0.6,1,0.9   C424.9,430.2,424.9,428.2,424.7,425.3z M425.4,394.5c1.5,2,2.9,3.5,4.7,4.5C430.4,396.9,429.6,396,425.4,394.5z M413.9,464.9   c-2.3,1.5-2.6,2.6-1.2,4.8C413.3,467.9,414.7,466.9,413.9,464.9z M415.9,456.9c-1.7,2-1.1,3.9-1.2,5.8   C416.4,460.4,416.4,460.4,415.9,456.9z M408.4,485.2c-2.8,0.6-2.9,2.9-2.3,5.5C407.3,488.9,407.7,487.3,408.4,485.2z M413.7,528.9   c0.2,0.1,0.5,0.1,0.7,0.2c0.2-1.7,1.5-2.9-0.5-4.2C413.9,526.6,413.8,527.7,413.7,528.9z M415.8,520.4c-1.6,1.1-1.9,3,0,3   C416,522.4,416.6,521.4,415.8,520.4z M425.2,421.3c-1.4,0.6-2.1,2.2-1,3.4C425.5,423.5,425.5,423.5,425.2,421.3z M409.3,481.8   c0.6-0.7,1.1-1.4,2-2.6C409.4,479.2,408.1,479.9,409.3,481.8z M411.3,475.6c0.7-1.9,0.7-1.9-0.1-2.5   C410.4,474.4,410.4,474.4,411.3,475.6z M412.2,533.9c1.9,0.2,2.2-0.4,1.3-3C413,532,412.6,532.9,412.2,533.9z M416,514.8   c-1.8,1.4-1.8,1.6-0.2,2.4C415.9,516.4,415.9,515.7,416,514.8z" />
	<path fill="#FBDFD3" d="M376.6,395.7c13,12.1,20.3,14.5,7.1,31c-9.6,11.2-9.3,27.8-14.8,41.2c-6.9,20.6-19,49.5-13.6,70.8   c-1.7,0.2-2.8-0.2-4.3-0.5c-0.1-4.3-0.3-8.2-0.1-12.6c-3.5,2.8,0,8.5-1.8,12.3c-3.9-0.2-7.6-0.9-11.2-2.6   c3.8-18.7,4.7-37.8,8.2-56.6c3.6,0.7,5.2-1.8,6.9-3.9c-0.3-9-5.7-16.3-9.1-24.2c4.7-6.7,5.9-15.3,10.7-22.2   c2.2-3.1,6.4-6.6,3.1-9.7c0.9-2.7,1.9-4.7,3.6-7.1c1.2,1.2,2.3,2.3,3.3,3.3c-2.1,7.2,5.3,13.2,4,20.8c3.3-4.2-0.6-8.7-0.1-13.2   c12.3-10.1-7.3-16.4-10.1-24.9c4.6-1.6,10,0.2,14.2-2.4C374,395.9,375.1,395.9,376.6,395.7z M362.6,457.3c0.1,0.6,0.2,1.2,0.2,1.7   c0.1,0,0.3,0,0.4,0c0-1.4,0.3-2.4,0.8-3.8c-0.5,0-0.9-0.1-1.5-0.1C362.6,455.9,362.6,456.6,362.6,457.3z M384.3,413.9   c-0.5,2.1-2.3,4.3-2,6.3c5.6-0.4,2.2-11.7,2.4-15.4c-1.2,1.2-1.5,1.5-1.1,2.4C384.5,409.5,384.4,411.7,384.3,413.9z M367.3,444   c0.6-1.3,3-3.8,0.4-3.9C366.8,441.2,367,442.5,367.3,444z M365.4,452c0.2-1.5,0.9-2.8-0.3-4.1C363.6,449.5,364.8,450.7,365.4,452z    M352.2,511.5c-1.8,1.1-1.4,2.4-0.9,4.1C352.8,514.3,352.7,513,352.2,511.5z M361.6,461.9c-1.8,0.1-2.2,1-1.8,2.7   C360.6,463.4,361.1,462.7,361.6,461.9z M351,518.9c0.6-0.9,0.7-1.1-0.2-1.4C350.2,517.8,350.6,518.3,351,518.9z M350.7,521.2   c-0.8,1.2-0.6,1.4-0.1,2.7C351.3,522.7,351.1,522.5,350.7,521.2z" />
	<path fill="#E4E4EB" d="M391,559.7c18.2,18.5,26.9,8.7,35.7-11.2c1.1,0.7,2.2,1.4,3.2,2c1.4,3.9,2.7,7.7,2.5,12.2   c0.2,0.3,0.6,0.9,1,1.5c-1.4,2.6-3.9,4.5-5.2,7.3c0.4,0.5,0.7,0.8,1,1.2c2.3-1.3,5.9-4.2,7.6-6.1c0.8,0,1.3,0.3,1.8,1   c-0.7,2.2-4.6,5.2-2.1,7.2c2.6-0.8,2.6-0.8,6-5.5c0.7,0.2,1.4,0.4,2.1,0.5c0.4,2.4-1.8,4-0.3,6.5c1.7-1.3,2.5-2.2,3.7-3.8   c3.5,1.4,1.3,6.4,6,5.4c9.7,7,19.5-3.2,20.4,12.7c-0.4,0.4-0.8,0.8-1.2,1.2c-17.8,1.7-35.7,3.6-52.4-4.2c-5.9-1.8-7.7,4.8-12.6,5.7   c-6.9,0.5-15.5,2.1-21.6-1.3c4.6-12.9,3.6-19.5,3.6-31.8C390.6,559.9,390.8,559.8,391,559.7z" />
	<path fill="#EECABA" d="M364,416.1c0.1-0.3,0.3-0.7,0.5-1.2c-1-1-2.1-2-3.3-3.3c-1.7,2.5-2.6,4.4-3.6,7.1c3.4,3.1-0.9,6.5-3.1,9.7   c-4.8,6.9-6,15.5-10.7,22.2c3.4,7.9,8.8,15.2,9.1,24.2c-1.7,2.1-3.3,4.6-6.9,3.9c-3.4,18.8-4.4,37.9-8.2,56.6   c-1.4-0.4-2.7-0.8-4.3-1.3c0.8-2.2,0.6-4.6,2.7-6.1c2.4-6-0.7-13.2,0.3-19.6c1.7-8.5,1.2-17.2,2.3-25.8c3.1-9.7-2.4-19.6-2.2-29.4   c1-15.2,23.6-34.7,19-46c-4.5-8.5-13.4-13.1-18.7-21.3c10,0,19.6,0,29.3,0c3.3,3.2,6.8,6.5,10.2,9.9c-1.5,0.2-2.6,0.2-4-0.5   c-4.2,2.6-9.5,0.8-14.2,2.4c2.8,8.5,22.4,14.8,10.1,24.9c0,0.7-0.1,1.6-0.1,2.4C366.4,422.4,367.7,416.3,364,416.1z M355.3,400.3   c-0.5-0.8-0.8-2.9-2.1-1.6c1.5,1.8,1.2,4.4,3.4,5.8C357.2,402.7,355.9,401.6,355.3,400.3z" />
	<path fill="#E4E4EB" d="M327.9,540.3c0.6-0.9,1.4-1.3,2.5-1.3c11,15.5,29.5,10.1,26.9-9.4c1.2,0.4,2,0.7,2.8,0.9   c3.1,4.4-0.4,10.7,4.3,13.9c-0.2,2.7-0.4,5.2-0.2,7.7c2.4,0.5,2.5-3,3.8-4.4c0.8,0.5,1.5,1.1,2.2,1.5c0.5,1.2-0.5,2.6,1.2,3.5   c0.6-0.2,1.3-0.6,2.1-1c0.6,0.4,1.3,0.8,1.9,1.3c0.3,1.2-0.7,2.6,1.2,3.3c0.4-0.3,0.8-0.8,1.2-1.1c2.2,1.1,4.5,2.3,6.9,3.5   c-1.9,3.7-3.2,7.5-3.6,11.7c-3.9-1.7-7.2,1.2-11-0.4c-5.7-0.9-12.5-2.6-17.9-3.1c-6.2,3.7-11.8,6.3-18.8,4.2   c-2.7-3-6.3-3.2-9.8-4.7C325.3,557.8,328.4,549.4,327.9,540.3z" />
	<path fill="#EECABA" d="M402.3,495.6c-5.5,11.8,4.7,33.8-6.3,42c-1.1,5.2-0.8,10.4-1.6,15.6c-0.4,0-0.7,0-1.1,0   c0.3-17.3-0.2-35.1,1-52.8c-1.1-13.2-4.8-26.6-4.3-39.9c-0.8-16.3,17.3-31.9,7-47.1c1.5-0.2,2.8,1.3,4.3,0.2   c0.9,0.4,2.2,0.6,2.3,1.9c0.1,1.2,1.2,1.3,1.6,2.1c-0.6,0-1.2,0-1.8,0c-1-0.8-2-3.6-3.5-2.6c0.7,2.9,1.8,2.6,3.8,3.3   c0.4,1.7,1.9,2.5,3,3.5l-0.2,0.2c-0.3,0.1-0.7,0.1-0.8,0.1c-7.6,23.8-12.8,48.5-2.8,72.3C401.6,493.8,401,494.7,402.3,495.6z" />
	<path fill="#EECABA" d="M405.2,417.5c-0.3-0.8-1.5-1-1.6-2.1c-0.1-1.2-1.4-1.4-2.3-1.9c-1.5,1-2.9-0.4-4.3-0.2   c-6.6-11.5-18.8-17.5-27.1-27.4c10.7-0.7,21.8,2.5,32.2-0.9c1.1,0.7,1.8,1.1,2.4,1.5l-0.1-0.1c-0.1,0.6,0,1.2,0.7,1.5   c0.6,1.7,2.1,3.3,2.2,5c-3.3,1.2-7.5,1-10.2,3.2c-1.3-0.7-1.7-2.4-3.3-2.8c-0.9,1.2,0.5,1.7,0.6,2.5c-0.9,1.3-0.9,1.5-0.2,2.4   c2.5,2.2,4.7,8.4,8.1,7.8c0.8,1.3,1.6,3.1,3.4,2.7c8,7.7,12.6,17.5,12.3,28.8c-4.1-2.2-6.9-7.7-8.5-12c0.6,0.2,1.3,0.3,2,0.5   c0.4-1.2-0.5-1.5-1.1-2.1c-0.6-1.4-1.6-1.7-3-1.3c-0.3-0.2-0.5-0.4-0.8-0.6c1.1-1.2,0-3-1.1-3.8C405.3,418,405.3,417.7,405.2,417.5   z" />
	<path fill="#CFCFDD" d="M391,559.7c-0.2,0.1-0.4,0.2-0.8,0.5c0,12.3,1,18.8-3.6,31.8c6.1,3.3,14.7,1.7,21.6,1.3   c5-0.9,6.8-7.5,12.6-5.7c16.7,7.8,34.7,5.9,52.4,4.1c-0.8,1.7-2.4,2.2-4.1,2.7c-13.6-1.5-28.1,5.3-42,2.4   c-16.2-4.5-33.8,3.1-50-3.1c1.1-2.3,1.3-5,3-6.8c5.4-6.9,3.5-17.6,5.3-25.8C387,559.9,389.6,558.2,391,559.7z" />
	<path fill="#CFCFDD" d="M327.9,540.3c0.6,9.1-2.6,17.5-4.4,26.3c3.6,1.6,7.1,1.7,9.8,4.7c7.1,2,12.6-0.5,18.8-4.2   c5.5,0.5,12.3,2.1,17.9,3.1c3.8,1.6,7.1-1.3,11,0.4c0.6-2.4,0.2-5.2,1.8-7.1c-0.1,2.7,0.3,5.5-0.8,8.1c-10.4,5-20.6-0.2-31.5-0.1   c-0.3,0.9-0.6,1.6-0.9,2.6c-10.3,4.6-22.7,2.1-33.1-1.4c0.9-3.3,3.1-6.3,3.5-9.9c5.7-6.4,0.3-16,4.4-22.6   C325.5,540.2,326.7,540.2,327.9,540.3z" />
	<path fill="#FEFEFE" d="M408.2,557c3.9-0.5,7.7-1.4,11.4-3c3,4.4-5,8.4-7,12c-1.3,0.3-2.5,0.7-4.1,1.1c-5.3-1.6-10.7-4-14.1-8.7   C398.2,556.3,404.1,559.1,408.2,557z" />
	<path fill="#EBC9B9" d="M424,383.7c-1.2,2.2-4.4,2.1-5.7,4.4l0,0c-2.6,0.6-5.8,1.4-7.4,3.7c-2.1-1.8-4.3-3.5-6.4-5.3   c0,0,0.1,0.1,0.1,0.1c0-0.4,0-0.7-0.1-1.2C410.7,383.9,417.5,384.4,424,383.7z" />
	<path fill="#F8FAFA" d="M332.7,536.1c6.3,2.7,12.6,4.3,19.4,5.3c-0.1,1.3-1.5,1.8-2.1,2.9c-7.8,3.5-12.8-2.4-17.7-7.7   C332.5,536.5,332.6,536.3,332.7,536.1z" />
	<path fill="#0E1324" d="M323.5,347.6c-1.5-14.4-8.2-28.6-12.2-42.7c3,1.9,5.8,6.4,5.1,10.3c1.1,8,4.6,16.1,7.9,23.6   C322.5,340.9,324,344.8,323.5,347.6z" />
	<path fill="#2B2524" d="M349.6,536.7c0.6-3.6-1.7-8.7,1.3-11.2c-0.3,4.3,0,8.2,0.1,12.6C350.6,537.7,350.1,537.2,349.6,536.7z" />
	<path fill="#8DABAB" d="M408.2,557c-4,2.1-9.9-0.7-13.8,1.3c-0.6-0.2-1.1-0.4-1.1-1.3C398.2,557,403.2,557,408.2,557z" />
	<path fill="#010000" d="M415.4,71.6c-0.9-0.7-0.5-3,0.7-2.2C415.9,70.2,416.3,71.1,415.4,71.6z" />
	<path fill="#5876E7" d="M380.6,343.9c4.8,1.4,8.8,4.3,13.7,5.1c-9.3-11.9-24.4-17.6-34.6-28.3c12.5,6.7,25.5,12.2,39,16.7   c1.3,7,3.4,13.9,2.5,21c-2.3-0.8-4.1-1.3-6.2-2.2C391.2,351.1,384.9,348.4,380.6,343.9L380.6,343.9z" />
	<path fill="#131426" d="M362.6,343.8c-6.2-4.1-13-7-18.8-11.5c0.2-0.2,0.5-0.5,0.7-0.7c13.7,8.6,28.3,15.4,43.2,21.8   c-0.2,0.2-0.4,0.4-0.6,0.6c-7.7-3.2-15.3-6.4-23.1-9.5l0,0C363.6,344.3,363.1,344.1,362.6,343.8L362.6,343.8z" />
	<path fill="#5674E5" d="M371.3,353.2c-2.5-3.3-6.1-5.4-8.7-8.6l0,0c0.5,0,1,0,1.5-0.1l0,0c6.3,6.6,17.6,10.1,23,16.7   c-4.9-2.2-9.8-4.4-14.4-7.3C372.5,353.3,371.9,353.3,371.3,353.2L371.3,353.2z" />
	<path fill="#1A1D37" d="M363.3,322.2c-1.2-0.5-2.3-1-3.5-1.5c0,0,0,0.1,0,0.1c-7.9-6.7-17.9-11.9-24.7-19.4   c9.8,5.6,18.5,14.8,29.1,20C363.9,321.6,363.6,321.9,363.3,322.2z" />
	<path fill="#344078" d="M372.7,354c9.9,5.5,20.2,10.7,30.9,14.3c0,0.5,0.1,1.1,0.1,1.6c-11.8-5.3-25-9.9-35.4-17.4l0,0   c1,0.2,1.9,0.5,2.9,0.7C371.5,354,372.1,354,372.7,354z" />
	<path fill="#1B203D" d="M344.5,331.6c-0.2,0.2-0.5,0.5-0.7,0.7c-7.4-5.6-15.9-10-22.3-16.8c0.6-0.6,1-0.3,1.4,0   C329.6,321.6,337.4,326.2,344.5,331.6z" />
	<path fill="#354481" d="M387.1,354c0.2-0.2,0.4-0.4,0.6-0.6c3.1,1.2,6.3,2.3,9.4,3.5C395.3,358.6,389.3,354.9,387.1,354z" />
	<path fill="#11172B" d="M337.8,244.5c1.2,2.3,1.2,2.9,0.7,7.3C337.2,249.6,336.8,247.4,337.8,244.5z" />
	<path fill="#18203D" d="M306.6,294.5c-2.7,0.3-2.3-2.9-0.7-4.7C306.2,291.5,307.4,292.9,306.6,294.5z" />
	<path fill="#17182D" d="M312.7,265.7c2,0.4,4,0.9,5.2,3.2c-2.3,0.2-3.3-1.6-5.1-2.4C312.7,266.3,312.7,266,312.7,265.7z" />
	<path fill="#1E284E" d="M308.7,302.1c-2.5-1-1.7-3-1.9-5.3C308.2,298.7,309.3,300,308.7,302.1z" />
	<path fill="#1F294F" d="M330.5,247.8c-1.6-1.1,0-5,1.7-3.9C331.9,245.2,331,246.3,330.5,247.8z" />
	<path fill="#05050A" d="M309.9,363.8c0.6,2,1.9,3.9,0.4,6C308.5,369.1,310.2,365.5,309.9,363.8z" />
	<path fill="#13182F" d="M305.4,280.3c0.2,1.3-0.2,2.4-1.1,3.5c-1.4-1.1-1.3-2.9,0.3-3.6C304.9,280.3,305.2,280.3,305.4,280.3z" />
	<path fill="#3C4F99" d="M310.8,373.3c0.5,2,1.6,3.2,0.9,4.8C310.5,377.2,310.5,377.2,310.8,373.3z" />
	<path fill="#24294E" d="M319.5,255.7c-2.4,0.2-3.6-0.9-5.3-1.8C316.5,253.9,317.3,254.2,319.5,255.7z" />
	<path fill="#1B1D36" d="M314.5,258.6c0.2,3.1-2.8,0.8-4.1-0.3C312.1,257.8,313.2,259.1,314.5,258.6z" />
	<path fill="#12172C" d="M305.2,288.3c-1.6-1.5-1.7-1.9-0.6-3.6C305,285.9,305.9,286.8,305.2,288.3z" />
	<path fill="#2A3564" d="M312.7,265.7c0,0.3,0,0.6,0,0.8c-1.4-0.6-2.9-1.2-4.3-2.4C310.1,263.4,311.2,265.2,312.7,265.7z" />
	<path fill="#2A3667" d="M322.2,245.3c-0.1,1.8-0.2,2.8-0.3,3.9C320.3,248.3,320.3,247.9,322.2,245.3z" />
	<path fill="#374584" d="M313.3,260.9c0.6,1,2.2,1.8,2.1,3C313.8,263.1,313.8,263.1,313.3,260.9z" />
	<path fill="#31407D" d="M305.4,280.3c-0.2,0-0.5-0.1-0.7-0.1c0.3-0.6,0.6-1.2,0.9-2c0.5,0.4,0.8,0.7,1.4,1.1   C306.3,279.7,305.9,280,305.4,280.3z" />
	<path fill="#303E7A" d="M311.9,305c-0.2,0-0.4,0-0.6-0.1c-0.4-0.6-0.9-1.1-1.6-2.1C311.5,303,311.5,304.2,311.9,305z" />
	<path fill="#344078" d="M365.4,351.1c1.2,0.1,2.2,0.4,2.9,1.4l0,0C367.1,352.6,365.9,352.5,365.4,351.1L365.4,351.1z" />
	<path fill="#5876E7" d="M380.6,343.9c-0.8,0-1.6-0.2-1.9-1.2C379.9,342.4,380.3,343.1,380.6,343.9L380.6,343.9z" />
	<path fill="#5876E7" d="M359,320c0.3,0.2,0.5,0.5,0.8,0.7c-0.3,0-0.6,0-1-0.1C358.9,320.5,358.9,320.2,359,320z" />
	<path fill="#344078" d="M365.5,351.1c-0.3,0-0.7-0.1-1.7-0.2C365,350.6,365,350.3,365.5,351.1L365.5,351.1z" />
	<path fill="#5674E5" d="M362.6,344.6c-0.9-0.3-0.4-0.6,0.1-0.8C362.6,344.1,362.6,344.3,362.6,344.6L362.6,344.6z" />
	<path fill="#5876E8" d="M371.2,359.8c-0.2-0.1-0.3-0.2-0.5-0.3C370.9,359.6,371.1,359.7,371.2,359.8L371.2,359.8z" />
	<polygon fill="#3C4F99" points="310.2,372.3 310.3,372.5 310.1,372.5  " />
	<path fill="#303E7A" d="M311.4,306.2c0.2,0.3,0.3,0.6,0.5,0.9C311.7,306.8,311.6,306.5,311.4,306.2z" />
	<path fill="#303E7A" d="M312.6,305.7c-0.2-0.2-0.5-0.5-0.7-0.7C312.2,305.2,312.4,305.4,312.6,305.7z" />
	<path fill="#5876E8" d="M371.2,359.8c0.2,0.2,0.5,0.5,0.7,0.7l0,0C371.7,360.3,371.5,360,371.2,359.8L371.2,359.8z" />
	<path fill="#110D0C" d="M355.2,107.8c2,3.2,0.5,8,3.5,11.2c0.6,0.9,0.8,1.9,1.3,3.1c0.9,1.2,3,1.6,3.4,3.6   C357.8,125.9,349.7,111.8,355.2,107.8z" />
	<path fill="#120F0F" d="M371.3,144.5c3.9,4.4-0.4,16.3-5.6,20.3c-0.2-4.2,2.4-7.4,3.9-11.1C371.6,150.9,369.4,147.3,371.3,144.5z" />
	<path fill="#191413" d="M374.1,185.1c-4,1.2-6.9-1.6-10.1-2.6c-2.4-2.6,1.8-7.5,2.3-2.7C368.3,182.4,371.4,183.5,374.1,185.1z" />
	<path fill="#1C1918" d="M368.1,192.4c-2.2-0.7-5.5-5.7-3.7-7.6c2.9,0.9,3.4,4.7,5.3,6.8C369.2,191.9,368.7,192.2,368.1,192.4z" />
	<path fill="#2B2523" d="M385.2,131.6c-0.1,2.4-3.1,6.8-5.4,3.9c1.5-1.4,2.9-2.7,4.3-4C384.5,131.6,384.8,131.6,385.2,131.6z" />
	<path fill="#4B3C3A" d="M390.7,202.5c0.2,0.2,0.4,0.4,0.7,0.7c-3,1-4.7,0.5-7-2.1c2.2-0.3,3,1.5,5,1.5   C389.8,203.2,390.3,203.2,390.7,202.5z" />
	<path fill="#130C0B" d="M434.3,206.4c1.6-1.3,4-2.3,5.5-0.8C438.1,207.6,436.1,206.6,434.3,206.4z" />
	<path fill="#4F4643" d="M368.1,192.4c0.5-0.3,1.1-0.5,1.6-0.8c2.1,0.5,4.3,0.8,5,3.2C372.1,194.6,370.8,192.6,368.1,192.4z" />
	<path fill="#371C1B" d="M437.7,212.5c1.6-0.8,3.1-2.3,5.3-0.9C441.6,213.3,439.6,212.3,437.7,212.5z" />
	<path fill="#1E1A19" d="M364.1,170.5c1.1,1.2-0.1,2.8-0.2,4.2c-0.4,0.1-0.7,0.1-1.2,0.2c-0.3-1.6-0.3-3,0.6-4.4   C363.6,170.6,363.8,170.6,364.1,170.5z" />
	<path fill="#3E2D2B" d="M384.3,188.1c-1.5,0.1-2.7-0.2-3.7-1.5C382,185,383.8,186.3,384.3,188.1z" />
	<path fill="#2A2220" d="M364.1,170.5c-0.2,0-0.5,0-0.7,0c-0.2-1.5,0.3-5.5,2.5-4.1C365.9,168.1,363.9,168.8,364.1,170.5z" />
	<path fill="#453D3A" d="M379.4,198.3c1.4,0.3,1.8,1.4,2.5,2.3C380.6,201.8,378.5,199.7,379.4,198.3z" />
	<path fill="#351312" d="M432.6,211.8c1.3,0,2.4,0,3.7,0C434.9,213.2,434.9,213.2,432.6,211.8z" />
	<path fill="#37302E" d="M386.5,123.7c-0.3-1.6-0.2-2.1,1.1-3.1C387.7,122.3,387.7,122.3,386.5,123.7z" />
	<path fill="#4D4340" d="M386.4,126c-0.1,0.8-0.2,1.7-0.2,2.7c-0.6-0.2-0.9-0.2-1.4-0.4c0.4-0.9,0.8-1.6,1.2-2.4   C386.2,126,386.3,126,386.4,126z" />
	<path fill="#847771" d="M371.8,170.6c1.4,0,1.9-0.4,2.3,0.9C373,172.2,372.9,171.5,371.8,170.6z" />
	<path fill="#453936" d="M430.8,207.7c-1-1.2,0.2-2.3,0.9-1.2C431.6,206.9,431.3,207.2,430.8,207.7z" />
	<path fill="#4A2B29" d="M375.5,185c1.1-0.9,1.5-0.4,1.8,0.8C376.6,185.4,376.1,185.2,375.5,185z" />
	<path fill="#968780" d="M427.4,208.2c-0.5-1-0.4-1.2,0.5-1.4C428.5,207.3,427.9,207.7,427.4,208.2z" />
	<path fill="#4B3E3B" d="M385.2,131.6c-0.3,0-0.7-0.1-1-0.1c0.4-0.6,0.7-1.2,1.1-1.8C386.1,130.5,385.8,131.1,385.2,131.6z" />
	<path fill="#342826" d="M376.8,197.4c-0.7,0.1-1.7-1.2-0.8-1.4C376.3,196.4,377.1,196.6,376.8,197.4z" />
	<path fill="#4D1716" d="M390.7,202.5c-0.4,0.7-0.9,0.7-1.4,0.1C389.8,202.6,390.3,202.5,390.7,202.5z" />
	<path fill="#4B65C5" d="M354.8,299.1c13.3,5.4,21,20.4,31.4,30C377.8,325.9,353.4,309.3,354.8,299.1z" />
	<path fill="#4B65C5" d="M352.9,273.7c-4.3-4.5-4.7-31.7,3.4-30C358.9,245.6,355.1,271.1,352.9,273.7z M355.2,246.5   c-4.6,0.7-4.1,14.3-0.8,16.8C354.2,257.4,355.1,252.3,355.2,246.5z" />
	<path fill="#4B65C5" d="M369.7,277.7c-0.6-3.4-4.2-5.5-5.1-9.3c2-7,2.4-1.8,4.4-4c0.2,0,0.5,0.1,0.7,0.2c0.3,1.7,1.6,2.6,2.9,3.4   c0,0.3,0,0.5,0,0.8c0.2,0.2,0.5,0.5,0.7,0.7c0,0,0,0,0,0c1.3,3.6,3.2,7.5,5,10.8c-0.1,0.7-0.2,1.3-0.3,2.3   C375.2,280.8,372.2,279.7,369.7,277.7z" />
	<path fill="#05050A" d="M371.5,290.3c3.5,1.6,6.2,3.5,10.1,4.3c5.3,5.3,13.8,8.3,19.2,13.9c-0.3,0.3-0.6,0.6-0.8,0.9   c-5.4-3-10.1-6-15.4-9.5c0,2.2,0.8,3.9,1.1,5.7c-0.3,0.7,0.4,1.7-0.7,2.1c-0.8-3-1.6-6-2.5-9.1c-3.6-3-8.2-4.7-12-7.4   C370.8,290.9,371.1,290.6,371.5,290.3z" />
	<path fill="#0C0912" d="M363.3,322.2c0.3-0.3,0.6-0.5,0.9-0.8c10.8,5.5,22.2,9.9,33.7,13.8c0.5-0.2,0.9-0.4,1.4-0.5   c1.2,2.8,5.6,2.8,8,4.3c-0.3,0.2-0.5,0.5-0.8,0.7C392,334.9,376.7,330.3,363.3,322.2z" />
	<path fill="#0E1220" d="M403.7,369.9c0.3-7.2-3.8-15-1.5-21.6c2,7.1,1.5,15.3,4.2,21.9c-1.6,3.1,1.8,6.1-0.7,8.8   C405,375.4,404.7,373.1,403.7,369.9z" />
	<path fill="#282E55" d="M397.2,323.7c-11.5-5.9-21.9-13.6-32.5-21c0.2-0.2,0.5-0.5,0.7-0.7c10.6,7.4,21.2,14.7,32.4,21   C397.7,323.3,397.4,323.5,397.2,323.7z" />
	<path fill="#0F1120" d="M369.7,277.7c2.5,2,5.4,3.1,8.3,4.9c1.7-6.1,1.9-11.8,1.9-18.1c1.6,1.8-0.1,4.5,1.3,6.5   c-0.1,4.3-2.5,8.9-0.7,13.1c-0.3,0.3-0.6,0.5-0.9,0.8c-4.3-1.3-8.6-5.1-12.8-7.4c0.2-0.2,0.5-0.5,0.7-0.7   C368.3,277,369,277.4,369.7,277.7z" />
	<path fill="#11101E" d="M371.5,290.3c-0.3,0.3-0.7,0.6-1,0.9c-5.4-3-10.8-4.7-16.3-7.7C360.3,283.5,366.2,287.2,371.5,290.3z" />
	<path fill="#0D101D" d="M381.3,270.9c-0.9-4-1.3-7.9-3.4-11.7C383.4,257.5,381.9,267.7,381.3,270.9z" />
	<path fill="#4356A8" d="M388.6,294c-6.2-2.8-11.2-7.2-17-10.9C378,285.3,383.8,289.5,388.6,294L388.6,294z" />
	<path fill="#1D2545" d="M402.2,348.3c-1,0.5-0.4,1.6-0.8,2.3c-1.6-4.1-1.2-9-2.7-13.2c0.9,0.3,2.1-0.5,2.8,0.7   c-0.3,0.1-0.7,0.1-1.3,0.2C400.9,341.6,401.9,344.9,402.2,348.3z" />
	<path fill="#191D35" d="M369.7,264.7c-0.2-0.1-0.4-0.2-0.7-0.2c-2.2-3.4-4.4-6.8-6.6-10.1c2.4-1.5,5.7,7.4,7.4,9.2   C369.8,264,369.8,264.3,369.7,264.7z" />
	<path fill="#1E2242" d="M379.7,284.8c0.3-0.3,0.6-0.5,0.9-0.8c3.4,1.5,6.7,3,10.5,4.7C388,288.8,384.1,287.4,379.7,284.8z" />
	<path fill="#415198" d="M379.8,271.6c0,1.5,0.6,3.1-0.5,4.5c-0.1-0.6-0.2-1.2-0.2-1.6c-2-1.8-3.7-3.3-5.7-5l0,0   c-0.2-0.2-0.5-0.5-0.7-0.7c0-0.5,0-1,0-1.5c2,1.8,4,3.7,6,5.5C379.1,272.5,379.4,272,379.8,271.6z" />
	<path fill="#3E4E90" d="M367.6,276.7c-0.2,0.2-0.5,0.5-0.7,0.7c-2.6-1.7-5.3-3.3-6.9-6.2C362.6,273.1,365.1,274.9,367.6,276.7z" />
	<path fill="#364681" d="M385,307.7c1.1-0.4,0.4-1.4,0.7-2.1c1.2,2.5,0.9,5.7,2.5,8.2C386.5,314.8,385.3,309.1,385,307.7z" />
	<path fill="#3C4B89" d="M365.5,302c-0.2,0.2-0.5,0.5-0.7,0.7c-2-1.6-4.3-2.8-5.8-5l0,0C361.6,298,363.3,300.5,365.5,302z" />
	<path fill="#2D3A72" d="M399.3,334.6c-0.5,0.2-0.9,0.4-1.4,0.5c-0.2-1.5-0.5-2.9-0.7-4.6C398.7,331.5,398.7,331.5,399.3,334.6z" />
	<path fill="#38478B" d="M397.2,323.7c0.2-0.2,0.5-0.4,0.7-0.7c1.6,1,3.2,2,4.8,3.1C400.4,326.3,398.9,324.9,397.2,323.7z" />
	<path fill="#29325C" d="M372.7,267.3c0,0.2,0,0.5,0,0.7c-1.6-0.9-3.4-2.3-2.8-4.4C370.8,264.9,371.8,266.1,372.7,267.3z" />
	<path fill="#44569E" d="M354.6,294.1c-1.8-0.1-2.3-1.6-3.2-2.6C353,291.6,353.9,292.8,354.6,294.1L354.6,294.1z" />
	<path fill="#43559D" d="M358.2,297c-1.8-0.2-2.7-1.5-3.6-2.9l0.1-0.1C356.4,294.3,357.4,295.5,358.2,297L358.2,297z" />
	<path fill="#1D2241" d="M406.5,339.6c0.3-0.2,0.5-0.5,0.8-0.7c1.2,0.5,2.3,1,4.1,1.9C409.1,341.1,407.8,340.5,406.5,339.6z" />
	<path fill="#273262" d="M400,309.4c0.3-0.3,0.6-0.6,0.8-0.9c0.6,0.2,1.1,0.4,1.2,1.1C401.3,310.3,400.6,310.1,400,309.4z" />
	<path d="M352.4,239.9c-0.5-0.5,0.1-1.7,0.7-0.8C352.9,239.4,352.7,239.6,352.4,239.9z" />
	<path d="M382.8,257.2c-0.1,0.2-0.2,0.4-0.3,0.5C382.1,257.2,382.5,257.3,382.8,257.2L382.8,257.2z" />
	<path fill="#4356A8" d="M388.6,294.1c0.1,0.1,0.3,0.2,0.4,0.4C388.7,294.5,388.6,294.3,388.6,294.1L388.6,294.1z" />
	<path fill="#3C4B89" d="M358.2,296.9c0.2,0.3,0.5,0.5,0.7,0.8c0,0,0,0,0,0C358.7,297.4,358.5,297.2,358.2,296.9L358.2,296.9z" />
	<path fill="#0B0B0C" d="M334.5,179.2c3.4,7.3-0.1,17.9-1.4,25.6c-0.3-0.3-0.5-0.7-0.8-1c0.3-1.2-1.2-1.4-1.4-2.4   c2.9-7.1,1.2-14.9,2.7-22.2C333.9,179.2,334.2,179.2,334.5,179.2z" />
	<path fill="#0A0B0C" d="M332.3,203.8c3.6,9.3-3.5,20.4-4.1,30.1C324.8,229.4,331.7,210.7,332.3,203.8z" />
	<path fill="#101011" d="M333.6,122.6c0.2,0.3,0.5,0.6,0.7,1c-0.2,0.7-0.4,1.3-0.6,2c0.3,0.5,0.6,1,0.9,1.5   c-6.5,8.3,4.5,17.8-0.2,18.2l0,0C328.3,137.5,331.1,130.9,333.6,122.6z" />
	<path fill="#1C1D21" d="M323.9,118.2c6.5-1.4,3.3,9.5,0.3,11.9C324.2,126.1,325.5,122.2,323.9,118.2z" />
	<path fill="#282A2F" d="M334.3,145.4c0.3,0,0.6,0,0.9,0c-0.9,5.7,1,10.6,0.6,16.5C332.4,157.6,333.4,150.5,334.3,145.4z" />
	<path fill="#131315" d="M323.8,132.4c0.7,4.1-0.6,6.1,0.3,10.5C321.2,140,321.2,135.4,323.8,132.4z" />
	<path fill="#43454D" d="M334.5,179.2c-0.3,0-0.6,0-0.8,0c-0.3-2.3-1.6-5-0.1-7.1C333.7,174.5,334.9,176.7,334.5,179.2z" />
	<path fill="#43434B" d="M333.6,168.3c-0.3-1.7-1.2-3.3-0.4-5.4c2,1.5,1.1,4.1,1.2,6.3c-0.2,0-0.5,0-0.7,0   C333.6,168.9,333.6,168.6,333.6,168.3z" />
	<path fill="#636672" d="M333.6,168.3c0.6,2.4-0.7,4.4-0.7,6.8C331.8,172.9,331.6,169.9,333.6,168.3z" />
	<path fill="#636672" d="M334.4,169.2c0-1,0.1-2.1,0.1-3.1C335.3,166.7,335.5,170,334.4,169.2z" />
	<path fill="#282A2F" d="M333.8,144.6c0.2,0.3,0.4,0.5,0.6,0.8C334.1,145.1,334,144.8,333.8,144.6z" />
	<path d="M319.9,195.2c0.1,0.1,0.3,0.1,0.3,0.2C320.1,195.3,320,195.2,319.9,195.2L319.9,195.2z" />
	<path fill="#1C1615" d="M348.3,156.7c-0.6-2.2-6-10-1.4-9.7c0.9,3,1.6,6.4,2.3,9.6C348.9,156.6,348.6,156.6,348.3,156.7z" />
	<path fill="#201A19" d="M348.1,117.9c0.2,0.2,0.7,0.5,0.7,0.7c-0.3,2.9,1.4,5.7,0.8,8.5C345.4,127.6,348.6,120.4,348.1,117.9   L348.1,117.9z" />
	<path fill="#282421" d="M349.7,162.5c-1.1-1.5-1.2-2.9-1-4.5C350.8,158.3,351.3,161.1,349.7,162.5z" />
	<path fill="#322824" d="M362.5,125.9c1.9-0.4,3.5,1,3.1,2.9C363.7,129.5,363.4,126.9,362.5,125.9z" />
	<path fill="#322724" d="M369.8,133c1.9,0.3,1.5,1.7,2.2,2.8C370,135.2,370,135.2,369.8,133z" />
	<path fill="#1C1110" d="M368.7,131.7c-1.7-0.3-2-1.3-2.4-2.5c0.4-0.2,0.7-0.3,1-0.4C368.4,129.4,368.6,130.4,368.7,131.7z" />
	<path fill="#18191C" d="M379.9,231.2c1.4,3.1,5.7,14.7,0.1,14.8C381.6,241.1,377.8,235.7,379.9,231.2z" />
	<path fill="#292428" d="M379.9,231.2c-1,1-0.7,2.4-0.7,3.7c-1-1.6-0.6-3.3-0.6-5C379.9,229.6,380,230.3,379.9,231.2z" />
	<path fill="#1C2124" d="M379.1,224.2c0.4,1.6,0.4,2.6-0.9,3.4C377.4,225.4,377.4,225.4,379.1,224.2z" />
	<path fill="#343439" d="M378.4,220.2c0,1.9,0,1.9-1.3,2.1C377.2,221.2,377.3,220.9,378.4,220.2z" />
	<path fill="#13100F" d="M395.1,84.6c-1.2-1.3-2.3-2.7-3.6-4.1c-1,0.9-0.1,2.4-1.3,3.4c-1.3-6.8-1.6-13.2-0.9-20.1   c0.4-0.2,0.8-0.3,1.2-0.5c3.1,4.5-1.7,11.5,2.3,15.7l0,0c1,1.6,2.1,3.2,3.1,4.9C395.6,84.1,395.3,84.4,395.1,84.6z" />
	<path fill="#ECC8B9" d="M392.8,79c-4-4.1,0.8-11.2-2.3-15.7c-0.3,0.1-0.8,0.3-1.2,0.5c0-0.8,0-1.6,0-2.3c1.3-1.2,2.4-0.5,3.6,0.1   C394.5,67.4,392.7,73.1,392.8,79z" />
	<path fill="#251F1D" d="M419.8,54.6c-0.6,2.4-2.6,4.1-4,6c-1.9-0.5-0.4-1.9,0.2-2.8c-0.6-1.3-2.8-1-2.9-3c1.8,0,3.4,0,5.1,0   c0.3-0.4,0.5-0.8,0.8-1.1C419.3,53.9,419.6,54.2,419.8,54.6z" />
	<path fill="#222725" d="M418.2,50.5c-1.4,0.7-2.9,1.1-4.7,0.8c-0.1-0.5-0.2-1.1-0.4-1.8c1.8-0.4,3.4-0.4,5-0.2   C418.2,49.7,418.2,50.1,418.2,50.5z" />
	<path fill="#3E312E" d="M418.2,50.5c0-0.4,0-0.8,0-1.1c0.8,0,1.6-0.1,2.6-0.1c0.4,1,0.8,1.9,1.2,2.9c-0.2,0.9-0.9,0.9-1.7,0.8   C419.9,51.8,419.5,50.7,418.2,50.5z" />
	<path fill="#2B1D1C" d="M388.6,53.2c0.9-0.9,0.9-0.9,4-0.7C392,54.3,391.9,54.3,388.6,53.2z" />
	<path fill="#C6B5AB" d="M387,46.2c1-1.1,1.9-2.3,3.6-3c0.1,1.8-1.2,2.6-2.1,3.9c0,0,0.1,0,0.1,0C388,47,387.5,46.7,387,46.2z" />
	<path fill="#413B36" d="M395.1,84.6c0.3-0.3,0.5-0.6,0.8-0.9c0.2,0,0.4,0.1,0.6,0.1c0.2,0.8,0.4,1.5,0.7,2.5   C395.8,86.4,395.5,85.4,395.1,84.6z" />
	<path fill="#4F3F3C" d="M387.8,46.9c0.3,0.1,0.5,0.2,0.8,0.2c0,0.5,0,1.1,0,1.7C387.1,48.3,387.1,48.3,387.8,46.9z" />
	<path fill="#3E312E" d="M419.8,54.6c-0.2-0.3-0.5-0.6-0.7-0.9c0.1-0.8,0.7-0.8,1.3-0.8C420.2,53.4,420,54,419.8,54.6z" />
	<path fill="#ECC8B9" d="M393.6,80.3c-0.3-0.5-0.6-0.9-0.8-1.4C393.7,79,393.7,79.7,393.6,80.3z" />
	<path fill="#140A0A" d="M309.4,191.2c0.2,0.4,0.3,0.5,0.4,0.7C308.6,192.9,308.4,192.3,309.4,191.2z" />
	<path fill="#37312D" d="M371.2,75.2c-2.6-0.2-4-4.7-1.9-6.5C370.8,70.7,371,72.8,371.2,75.2z" />
	<path fill="#322927" d="M374.5,80.9c-0.6-0.9-1.1-1.7-1.8-2.8c1.9-2.2,2.5,1.1,2.6,2.6C375,80.8,374.7,80.8,374.5,80.9z" />
	<path fill="#8F817B" d="M376.7,85.8c-0.5-0.7-0.7-1-1.1-1.5C376.9,83.8,377.1,84.2,376.7,85.8z" />
	<path fill="#140E0C" d="M358.2,85.3c-1.5-0.7,0-2.8,0.8-1C358.7,84.6,358.4,84.9,358.2,85.3L358.2,85.3z" />
	<path fill="#342A28" d="M364,84.5c-0.9,0.1-2,0.8-2.7-0.5C363.1,83.4,363.1,83.4,364,84.5z" />
	<path fill="#4E433D" d="M389.4,89.2c1.5,0.6,1.6,1.4,1,2.3C389.2,91.3,389.2,90.5,389.4,89.2z" />
	<path fill="#7A5E57" d="M390.7,85.3c-0.1,0.2-0.1,0.4-0.2,0.6c-0.5-0.2-0.4-0.5-0.2-0.9C390.4,85.1,390.6,85.2,390.7,85.3z" />
	<path fill="#282126" d="M400.8,160.6c-1-1.3-1.8-2.7-1.3-4.5l-0.1,0.1c0.3,0,0.7,0,1,0.1c1,1-0.2,2.7,1,3.6   C401.2,160.1,401,160.3,400.8,160.6z" />
	<path fill="#171F23" d="M400.8,160.6c0.2-0.3,0.4-0.6,0.7-0.8C402,160.4,401.4,161.3,400.8,160.6z" />
	<path fill="#173121" d="M430.6,236.9c-0.2-1.2-0.4-2.8,1.2-2.8C432.2,235.5,431.9,236.4,430.6,236.9z" />
	<path fill="#102217" d="M430.6,239.8c0-0.5-0.1-0.9-0.1-1.4c0.3,0.2,0.5,0.3,0.8,0.5C431,239.2,430.8,239.5,430.6,239.8z" />
	<path fill="#3A519F" d="M340.8,240.5c0,0.2,0.1,0.5,0.1,0.7c-0.2-0.1-0.3-0.1-0.5-0.2C340.5,240.9,340.7,240.7,340.8,240.5z" />
	<path fill="#3A519F" d="M341.6,239.2c-0.2,0.2-0.4,0.5-0.5,0.7C341.3,239.7,341.4,239.4,341.6,239.2z" />
	<path fill="#3A519F" d="M342.2,238.3c-0.2,0.3-0.4,0.6-0.6,0.9C341.8,238.9,342,238.6,342.2,238.3z" />
	<path fill="#1F274C" d="M348.2,239.1c-0.4,0.6-0.7,1.3-1.3,2.2C346.5,239.9,346.7,239.2,348.2,239.1z" />
	<path fill="#0B0908" d="M408.9,390c6.2,5.3,7.1,4,7.9,12.2c-0.3,0.3-0.5,0.6-0.8,0.9c-2-4.2-5.7-6.8-8.8-10.1   C407.4,391.3,407.2,390.3,408.9,390z" />
	<path fill="#E2C0B2" d="M431.9,415.4c-1.3-2.6-0.3-5.8-2.3-8.3c-0.6-1.1-0.6-1.2-0.4-3.4c4.8-2.1,5.6,5.4,4.9,8.8   c-0.6-1.1-0.8-1.6-2-2.4C432,412.1,432,413.8,431.9,415.4z" />
	<path fill="#110F0E" d="M416.3,455.2c-0.7-5.6,0.6-10.4,0.6-16.1C421.8,442,418.1,450.8,416.3,455.2z" />
	<path fill="#2F2523" d="M405.8,408.7c-2.4,0.5-3.7-2.9-3.6-4.7c-2.1-3.8-5-5.3-7.8-8.1c-0.1-0.8-1.5-1.3-0.6-2.5   c1.6,0.4,2,2.1,3.3,2.8c0.8,1.4,1.8,2.4,3.5,2.7C402.1,402.1,405.4,405,405.8,408.7z" />
	<path fill="#0D0D0D" d="M413.1,537.2c-0.8,3.4,1.8,9.6-1.5,11.5c-2.1-3.5,0-8,0.9-11.7C412.7,537.1,412.9,537.2,413.1,537.2z" />
	<path fill="#1A1514" d="M431.9,415.4c0.1-1.6,0.1-3.3,0.2-5.3c2.2,1.4,2.8,4.3,2.4,6.6C433.1,417.5,432.4,416.5,431.9,415.4z" />
	<path fill="#27201E" d="M416.1,403.1c0.3-0.3,0.5-0.6,0.8-0.9c1.7,1.5,2.8,3.4,3.6,5.4C418.1,409.5,417,404.5,416.1,403.1z" />
	<path fill="#393431" d="M424.7,425.3c0.2,2.9,0.2,4.9-1.8,6.5c-0.4-0.3-0.6-0.5-1-0.9C422.6,429.2,422.9,427.3,424.7,425.3z" />
	<path fill="#281E1D" d="M425.4,394.5c4.2,1.5,5.1,2.4,4.7,4.5C428.2,398,426.9,396.5,425.4,394.5z" />
	<path fill="#504542" d="M413.9,464.9c0.7,2-0.7,3-1.2,4.8C411.3,467.5,411.6,466.4,413.9,464.9z" />
	<path fill="#564744" d="M418.3,388.1c1.9,0,2.5,2.2,3.5,3.5C420.1,391.6,417.6,390.1,418.3,388.1L418.3,388.1z" />
	<path fill="#0B0404" d="M415.9,456.9c0.6,3.5,0.6,3.5-1.2,5.8C414.7,460.8,414.1,458.9,415.9,456.9z" />
	<path fill="#524643" d="M408.4,485.2c-0.8,2.1-1.1,3.7-2.3,5.5C405.6,488.1,405.7,485.8,408.4,485.2z" />
	<path fill="#1E1716" d="M407.4,422.6c1.4-0.4,2.4-0.1,3,1.3c-0.3,0.3-0.7,0.7-1,1C407.9,424.8,407.5,423.8,407.4,422.6z" />
	<path fill="#252120" d="M413.7,528.9c0.1-1.2,0.1-2.3,0.3-4c2,1.3,0.6,2.5,0.5,4.2C414.2,529,414,528.9,413.7,528.9z" />
	<path fill="#6D615D" d="M415.8,520.4c0.8,1,0.2,2,0,3C413.9,523.3,414.2,521.5,415.8,520.4z" />
	<path fill="#332A27" d="M421.1,391.5c0.2,0.1,0.5,0.1,0.7,0c1.2,0.4,2,1.2,2.2,2.6c-0.3,0.1-0.7,0.2-1,0.4   C422.1,393.7,421.5,392.7,421.1,391.5z" />
	<path fill="#221A19" d="M425.2,421.3c0.2,2.2,0.2,2.2-1,3.4C423.2,423.5,423.8,421.9,425.2,421.3z" />
	<path fill="#463F3C" d="M409.3,481.8c-1.2-1.9,0.1-2.5,2-2.6C410.4,480.4,409.9,481,409.3,481.8z" />
	<path fill="#1D1A19" d="M411.3,475.6c-0.9-1.2-0.9-1.2-0.1-2.5C412,473.7,412,473.7,411.3,475.6z" />
	<path fill="#494743" d="M412.2,533.9c0.4-1,0.8-1.9,1.3-3C414.4,533.4,414.1,534.1,412.2,533.9z" />
	<path fill="#534845" d="M416,514.8c-0.1,0.9-0.1,1.6-0.2,2.4C414.2,516.4,414.2,516.1,416,514.8z" />
	<path fill="#4F4742" d="M409.3,424.9c0.3-0.3,0.7-0.7,1-1c0.6,0.5,1.5,0.8,1.1,2.1c-0.7-0.2-1.3-0.3-2-0.5   C409.5,425.3,409.4,425.1,409.3,424.9z" />
	<path fill="#241312" d="M402.3,495.6c-1.3-0.9-0.7-1.8,0.6-1.3C402.7,494.8,402.5,495.2,402.3,495.6z" />
	<path fill="#1C1716" d="M364,416.1c3.1-0.5,5.8,14,5,16.6c-0.2,0-0.4,0-0.5,0C368.6,426.6,363.5,422.1,364,416.1z" />
	<path fill="#181615" d="M385.6,411.1c0.2,2.3,0,10-3.3,9.2C382.3,417.2,384.6,414,385.6,411.1z" />
	<path fill="#423331" d="M385.6,411.1c-0.4,1-0.8,1.9-1.3,2.9c0.1-2.3,0.2-4.5-0.8-6.6c-0.4-0.9-0.1-1.2,1.1-2.4   C385,407,384.4,409.2,385.6,411.1z" />
	<path fill="#1A1110" d="M367.3,444c-0.3-1.6-0.5-2.8,0.4-3.9C370.3,440.3,367.9,442.8,367.3,444z" />
	<path fill="#1D1514" d="M365.4,452c-0.7-1.3-1.8-2.6-0.3-4.1C366.3,449.2,365.6,450.5,365.4,452z" />
	<path fill="#514946" d="M352.2,511.5c0.5,1.5,0.6,2.8-0.9,4.1C350.8,513.9,350.4,512.6,352.2,511.5z" />
	<path fill="#2E2927" d="M369.1,432c0-1.6,0.1-3.1,0.1-4.7c1,1.4,0.6,3,0.5,4.6C369.5,431.9,369.3,432,369.1,432z" />
	<path fill="#7B7772" d="M369.1,432c0.2-0.1,0.4-0.1,0.5-0.1c0.3,1.3-0.2,2.4-1.1,3.7c0-0.9-0.1-1.6-0.1-2.2   C368.7,433,369.1,432.6,369.1,432z" />
	<path fill="#3E3734" d="M361.6,461.9c-0.5,0.8-1.1,1.6-1.8,2.7C359.4,462.8,359.8,461.9,361.6,461.9z" />
	<path fill="#4A413F" d="M362.6,457.3c0-0.7,0-1.4,0-2.1c0.6,0,0.9,0.1,1.5,0.1c-0.3,0.8-0.5,1.4-0.7,2   C363.1,457.3,362.8,457.3,362.6,457.3z" />
	<path fill="#B1968F" d="M351,518.9c-0.4-0.6-0.9-1-0.2-1.4C351.7,517.8,351.7,518,351,518.9z" />
	<path fill="#A09992" d="M362.6,457.3c0.2,0,0.5,0,0.7,0c0,0.6-0.1,1.1-0.1,1.7c-0.1,0-0.3,0-0.4,0   C362.7,458.4,362.6,457.9,362.6,457.3z" />
	<path fill="#282221" d="M350.7,521.2c0.4,1.3,0.6,1.5-0.1,2.7C350.1,522.6,349.9,522.4,350.7,521.2z" />
	<path fill="#2E2927" d="M369,432.7c-0.2,0.2-0.4,0.5-0.6,0.7c-0.1-0.2-0.1-0.5,0-0.7C368.6,432.7,368.8,432.7,369,432.7z" />
	<path fill="#443835" d="M355.3,400.3c0.7,1.3,1.9,2.4,1.3,4.2c-1.6-0.7-1.6-2.3-2.1-3.5C354.7,400.8,355,400.5,355.3,400.3z" />
	<path fill="#93786F" d="M355.3,400.3c-0.3,0.2-0.5,0.5-0.8,0.7c-0.4-0.8-0.9-1.6-1.3-2.3C354.5,397.4,354.8,399.5,355.3,400.3z" />
	<path fill="#3C302C" d="M405.2,417.5c0.1,0.2,0.1,0.4,0.2,0.6c-2.6,0.1-4.8,0.1-5.6-3.2c1.6-1.1,2.5,1.8,3.5,2.6   C404,417.5,404.6,417.5,405.2,417.5z" />
	<path fill="#22201E" d="M403.7,418.3c0.6,0,1.1-0.1,1.7-0.1c1.1,0.7,2.2,2.5,1.3,3.6C405.5,420.7,404.1,420,403.7,418.3z" />
	<path fill="#F0D9CD" d="M394.4,395.8c2.9,3.2,7.8,5.1,7.9,10.1c-3.4,0.6-5.6-5.6-8.1-7.8C393.5,397.3,393.5,397.1,394.4,395.8z" />
	<path fill="#3D322F" d="M408.9,390c-1.4,0.4-1.4,0.4-1.6,2.3c-0.7-1.5-1.5-2.9-2.2-4.4c0.3-0.1,0.6-0.1,1-0.2   C407,388.5,408,389.3,408.9,390z" />
	<path fill="#82655D" d="M406.1,387.8c-0.3,0.1-0.6,0.1-1,0.2c-0.6-0.3-0.7-0.8-0.7-1.5C405,386.9,405.5,387.4,406.1,387.8z" />
	<path fill="#4B65C5" d="M401.6,355.3c0.9,1.4,0.6,2.9,0.7,4.4c-1.5-0.4-3.1-0.9-4.7-1.3c1.4,2.4,2.7,4.7,3.9,6.7   c-0.3,1-0.4,1.7-0.6,2.3c-13.4-5.1-25-14.2-36.9-23c7.7,3.1,15.4,6.3,23.1,9.5c2.2,0.9,8.2,4.6,10,2.9c1.3,0.4,2.7,0.9,4.2,1.4   C401.5,357.2,401.6,356.3,401.6,355.3z" />
	<path fill="#4B65C5" d="M362.6,344.6c0-0.3,0-0.5,0.1-0.8c0.5,0.2,1,0.5,1.4,0.7C363.6,344.6,363.1,344.6,362.6,344.6z" />
	<path fill="#4B65C5" d="M372.7,354c-0.6,0-1.2,0-1.4-0.8C371.9,353.3,372.5,353.3,372.7,354z" />
	<path fill="#5876E7" d="M400.9,367.5c0.2-0.7,0.3-1.3,0.6-2.3c-1.2-2-2.5-4.3-3.9-6.7c1.6,0.5,3.1,0.9,4.7,1.3c1,2.8,1,5.7,1.3,8.5   C402.7,368,401.8,367.8,400.9,367.5z" />
	<path fill="#070911" d="M355.2,246.5c0,5.7-1,10.8-0.8,16.8C351.1,260.9,350.6,247.2,355.2,246.5z" />
	<path fill="#5471DE" d="M373.4,269.5c1.9,1.7,3.7,3.2,5.7,5c0.2,1.8,0.4,4.1-0.7,5.8C376.6,277,374.7,273.1,373.4,269.5z" />
	<path fill="#5471DE" d="M372.7,268.8c0.2,0.2,0.5,0.5,0.7,0.7C373.2,269.3,372.9,269,372.7,268.8z" />
</g>
</svg>