<?xml version='1.0' encoding='utf-8'?>
<svg xmlns="http://www.w3.org/2000/svg" version="1.2" baseProfile="tiny" id="Layer_1" x="0px" y="0px" viewBox="0 0 900 600" overflow="visible" xml:space="preserve">
<g id="b">
	<path display="inline" fill="#010101" d="M482.5,60.7c1.3,1,1,2.5,1.5,4.1c1.1,1,4.2,4.1,1.8,5.5c-1.3,1.7-0.1,3.4,1,4.8   c-0.8,1.2-3.4,2.3-1.6,3.8c0.8,0.7,0.7,2.4,2.1,1.8c0.1-1.3,0.3-2.8,0.4-4.3c0.1,0,0.1,0,0.2,0c0.1,2.1,0.5,4.3,0.1,6.5   c-0.7,0.4-1.2,0.8-2,1.3c-0.3,2.6,0.8,5.2-1.1,7.3c-0.2-1.1-0.2-1.7-0.5-2.2c-2.9-3.6-0.3-9.1-1.7-13.4   c-2.4-8.9-8.4-16.9-16.6-20.7c-3.3-0.2-6,0.9-7.8,3.8c-4.4,0.6-8.8-0.7-12.3,3.1c-1.6-0.4-4.8-2.6-5.5-0.2c1.7,0.6,3.5-0.2,4.9,1   c-0.9,9.6-0.2,19.6,3.2,29c6.7,2.6,8.1,11,14.1,14.4c-0.5,1-1.5,0.5-2.3,0.7c-3.2-2.4-5.4-6.3-8.7-8.2c2.2,3,2.5,6,2.8,9.6   c-0.9-0.3-1.5-0.5-2.1-0.7c-1.1,0.6-2.2,1.1-3.3,1.7c-0.3,1.4,0.4,3.3-1,4.1l0,0c0-1.2,0.3-2.3-0.3-3.4c-1.2-0.5-1.8-0.2-1.9,1.1   c0.1,16.7,3.7,34.8-2.7,50.6c-0.3-0.2-0.6-0.5-0.8-0.7c0.1-0.9,0.3-1.8,0.4-2.7c-7.1-6.5-13.4-14.2-17.2-23.1   c0.3-0.3,0.5-0.6,0.8-0.9c5.8,6.9,10.4,13.8,16.8,20.5c1.1-14,2-30.1,0.6-43c-0.1-0.2-0.3-0.2-0.5-0.1c-0.6-0.2-1.1-0.4-1.7-0.6   c-0.1-0.2-0.3-0.2-0.5-0.1c-11.3-3-25.6-2.1-34,7.5c-10.8-1.4-21.1-0.1-31.5,2.8c-3.5-1.7-5.7-4.6-8.5-7.2c0.3-0.3,0.5-0.6,0.8-0.8   c3.3,0.4,4.9,3.3,6.9,5.6c10-0.4,19.2-5.2,29.7-2.8c11.2-9.2,26.1-11.3,40-7c1.8-1.7,4.3-3,6.9-3.9c0.6-4.2-1.7-10.4-6.2-12.1   c0.1-0.7-0.3-1.6,0.6-2.1c0.3,0.5,0.7,1,1.4,0.2c-1.3-1.9-2.1-4.2-4.1-5.4c0-1.9,0-1.9-1.5-2.2l0,0c0-0.5-0.1-0.9-0.1-1.4   c0.9-1.1,2.3-1.4,0.8-3c0-0.2,0-0.5,0-0.7c0.4,0,0.8-0.1,1.4-0.2c-0.8-0.8-1.2-0.4-1.4,0.2c-5.9-5-5.1-16.8-4.2-24.5   c0.7-0.4,1.4-0.7,2.1-1.1c0.2-0.8,0.5-1.7,0.8-2.7c-0.7-0.8-1.4-1.6-2.1-2.4c1.2-1.4,1.7-2.6,2-4.5c1.6,0.2,3.2,0.4,4.8,0.6   c0.3-1.4-1.9-1.7-1.2-3.2c2.1-0.4,3.2,1.2,4.7,2.2c0.6-0.8,0.5-2.2,2.2-2.4c1.7,0.8,3.6,1.7,5.5,2.6c1.2-1.9,3.4-1.2,4.8-2.1   c10.7,3.2,14.9,6,20.3,15.9C482.1,58.4,480.7,60.3,482.5,60.7z M457.7,50.7c-0.4-0.1-0.8-0.3-1.3-0.4c0.3,1.8,0.6,3.5,0.9,5.4   c0.5,0,1.1,0.1,1.4-0.1c1.7-1.7,4.3-1.9,5.5-4.1c0.4-0.1,0.7-0.1,1.4-0.3c-1-0.5-1.3-0.2-1.4,0.3c-1.7-0.4-2.6-0.7-4.6-1   c0.8,0.9,1.4,1.5,1.9,2.1c-0.9,0.5-1.8,0.9-2.8,1.4C458.1,53,457.5,52,457.7,50.7c0.4-0.1,0.8-0.1,1.3-0.2   C458.3,49.8,458,50.2,457.7,50.7z M463.6,47.7c-0.5-1.6-1.2-2.4-2.6-2.8c-0.3,0.4-0.6,0.7-0.9,1C461.2,46.6,462.2,47,463.6,47.7z    M484.4,68.2c-1.5,1-1.5,1.2,0,2.1C484.4,69.6,484.4,69,484.4,68.2z" />
	<path display="inline" fill="#020202" d="M553.1,288.7c6.4,25,5.7,50.7,4.1,76.2c-4.5,3.3-10.2,3.7-15.5,5.1   c-1.5,8.3-7.9,14.9-7.7,23.4c-0.5,10.5-4,20.8-7.6,30.7c-5.7,17.7-15.9,33.8-19.6,52c8.8,2.2,7.5,5.2,3.3,11.6   c-2,0.2-4.7,6.8-4,8.5c-1.3,4.4,1.9,8.8,0.1,13.1c-0.9,5.8,1.8,11.8-0.6,17.6c-7.7,17-36.8-8.1-27.2-27.3c-2.5-2.2-4.1-4.8-4-8.1   c-1.8-3.1,0.3-5.8,0.8-8.7c6.1-1.7,8.5-8.7,14.4-10c2-11.4,5.8-23.2,5.5-34.6c-2.3-7.1-1.7-14.5-0.4-21.6   c3.2-9.8,8.2-19.2,10.7-29.4c2-5.6-1.5-11.4,0.7-17.1c-2-0.9-4.5,0.2-6.2-1.6c0.6-6.3,0.4-12.8,1.2-19.1c0.3,0,0.5,0,0.8,0   c0.9,6.2-0.7,12.4,0.5,18.5c17.2-1.1,37.6,4.2,53.1-4.8c-0.4-24.3,2.1-48.8-3.2-72.8C553.1,290.2,553,289.4,553.1,288.7z    M493.2,480.8c1.8-0.8,3-1.3,4.5-2.8c-3.1-0.3-5.5-1.1-7.5-2.7c-0.5,0.2-0.9,0.4-1.4,0.5c-0.8-1-1.9,0.1-2.5,0.7   c-2.4,3.4-6.1,5.4-9.4,7.5c-0.9,3.3-1.7,6.5-0.1,9.7c0.4-0.2,0.7-0.2,0.9-0.3c6.5,8.1-4,19.9,5.7,26.9c1.5,1.3,2.7,2.7,3.1,4.6   c12.4,9.7,20.1,5.3,17.6-10.3c-1-4.4,2-8.6,0-12.9c-4-0.3-7.6-0.6-11.2-1.7c2.2-3.7,7.6-1.5,11-0.6c-0.1-0.8-0.1-1.4-0.2-2.1   c-3.2-0.2-10,1.5-10.5-2.7c2.9-0.7,10.3,1.4,11.2-1.6c-2.2-1.1-12,1.9-12.3-2.6c4.5-0.4,9.2,0.5,13.6-0.3c1.3-1.1,1-3.2,2.7-3.6   c0.9-2.1,1.7-4.1,2.5-6.1c-2.8-2.5-7.2-1.2-10.8-2C498.1,479.7,494.4,485.5,493.2,480.8z M522.1,377.8c-0.3-0.2-0.5-0.5-0.8-0.7   c1.7-1.9,4.3-3.2,5.2-5.7c-3.5-1.3-12.9-1.5-18.6-0.5c-0.7,5.3,2.5,10.2,1.6,15.4c-4.3,2.9-4.5,10.1-6.8,14.7   c-1.2,5.9-6,11-6.3,16.9c1,18.8,0.2,37.4-5,55.6c3.5,3.2,8.1,3.7,12.4,3c7.3-25.3,20.8-48.4,26.8-74.2c1.7-6.5,0.7-12.6,3.6-18.7   c2-4.2,5-8.4,4.7-13.3c-3.4,0.1-6.7,0.2-9.9,0.7C528.5,374.5,525.8,376.9,522.1,377.8z" />
	<path display="inline" fill="#020101" d="M553.1,288.7c-0.1,0.7,0,1.4-0.9,1.7c-3.1-5.5-3-12.2-5.3-17.9   c-6.1,0.6-12.4,0.8-18.4-0.1c0-0.2,0-0.4,0-0.7c6.1-0.3,11.9-0.1,18.1-0.3c-2.5-11.7,5.9-19-7.7-26.3c-1.5-34.1,0.3-69.4-2.6-104   c-3.2-1.1-6.3-2.1-9.5-3.1c-0.3,1-0.6,1.8-0.8,2.6c-1.9-0.7-0.3-2.5-1.4-3.6c-14.3-6.8-21.6-21.7-25.2-36.4c-1,0.2-1.9,0.4-2.9,0.7   c3,7.1,4.8,21.3,0.2,27.6c-0.3-0.3-0.6-0.6-1-1c1.4-6.4,2.5-13.4,0.6-19.8c-0.6,0.3-1.2,0.6-2.5,1.3c1-1.4,1.5-2.1,2-2.8   c-0.6-2.1-1.1-4.2-1.7-6.2c-1.9-0.2-3.5-0.4-4.7-0.5c-1.1,0.2-0.7,1.3-1.5,1.1c-1.6-2.2-1-5.2-2.8-7.5c-0.4,0.5-0.7,0.9-1,1.3   c-1.6-1.4-0.5-4.4-0.9-6.5c1.1,0.9,1,1.5,1.3,3.2c1.6-1.6,0.9-3,1.1-5c0.6,8.5,2.8,10.6,11,12.7c5.6-8.8,17.3-10.3,26.9-9.1   c5.1-5.9,8.9-12.7,16.9-15.2c-9.7-12.7-16.4-27.3-25.7-40.3c-4.3-7.4-12.6-5.1-14.9-14.9c0.3-0.3,0.6-0.6,0.8-0.9   c3.7,7.1,6.6,6.1,12.4,10c12.1,15,18.2,34.1,32.4,47c-0.3,0.3-0.6,0.6-0.9,0.9c-9.7,1.3-15.9,9.7-20.7,17.2c-0.9-0.2-0.7-1-0.9-1.6   c-7.4-0.1-15.9,2.5-22.9,6c4.8,13.5,10.7,28.7,24.7,35c1.6-8.1-1.4-15.9,0.4-23.6c3.3,8,3.6,16.8,2.2,25.3c4.9,3.6,5,3.6,8.2,3.3   c0.6-3.8,1.2-7.5,1.9-11.3c0.3,0,0.5,0,0.8,0c2.6,26.1,2.7,52.2,1.4,78.3c0.6,0.6,1,1.1,1.3,1.4c0.4,7.9,1.1,16,0.7,23.8   c-1.5,4-2.4,11.4,0.3,14.7c6.4,3.5,8.5,9.3,6.2,16.1C547.5,270.8,553.3,279.4,553.1,288.7z" />
	<path display="inline" fill="#020202" d="M481.6,384.8c-3.2,10.4,0.5,20.9-1.9,31.5c-9.7,20.7-21.3,35.6-21.8,59.3   c0.9,0.2,1.6,0.3,2.5,0.5c5.4,7.2-3.3,14.2-3,21.5c4.7,17,4.9,25.7-3.2,41.3c-4.9,3.7-12,0.8-17.3-0.7c-8.8-19.1-11-27.8-1.9-48   c-3.2-5-5-12.5,3.1-12.6c2.4-9.5,1.6-19.7,4.4-29.2c2.5,8.9-0.6,19.6-1.9,29c5.1-0.1,10.4,2.1,15-0.6c-0.3-0.7-0.5-1.5-0.8-2.1   c0.5-0.9,1-1.7,1.4-2.5c-0.5-0.5-0.9-1-1.4-1.4c0.3-2.8,0.5-5.7,0.8-8.5c1,0.2,0.3,2,1.7,1.9c0.3-24.4,16.9-34.8,21.4-54.6   C478.3,401.9,474.7,389.7,481.6,384.8z M452,480.3c-0.6,0-1.1,0.1-1.2,1.2c2.3-0.2,4.7,1.1,4.1-2.3   C453.7,479.6,452.9,479.9,452,480.3z M457.6,522c3.1-10-4.7-19.5-1.7-29.2c0.7-5,6.6-9.2,2.9-14.4c-2.9,3.1-1.4,7-7.5,4.5   c-0.2,1.3,0.7,4-1.3,3.4c-0.4-1.6-0.9-3.3-1.3-4.8c-4.7-2.3-9-1.1-13.6-1.3c-2.1,5.4,3.7,8.5,0.8,13.8c3.7,0.8,13.4-2.9,15.1,0.8   c-5.1,2.1-11.3,1.4-16.8,2.4c0,0.6-0.1,1-0.1,1.4c5.2,1,11.9-3,16.4-0.1c-3.6,3.9-11.7,2.6-16.8,2.4c-7,11.2,0.2,24,4.7,34.8   c4.5,2.3,9.2,0.6,14-0.1c2.9-3.5,4-7.9,6.3-11.6C458.1,523,457.9,522.5,457.6,522z" />
	<path display="inline" fill="#010101" d="M493.9,592.6c-3.2,1-6.5,1.4-9.9,1.7c0,0.1,0,0.3,0,0.4c2.7,0.3,5.6-0.7,7.8,1.3   c-9.1,1.8-18.3,2.2-27.5,3.1c-0.6-0.9-1.1-1.7-1.8-2.5c-3.5-0.7-7.8,2.9-10.5-0.8c-4.9,0.8-9.1,0.8-13.5-1.3   c-3.3,1.8-7.7,1.2-11,3.2c-2.7,1.6-6.6,0.9-8.1-1.7c2-3.7,5.1-4.8,9.7-3.4c6.1-3.5,14.1-2,20.7-4.4c2.5-1.3,3.7,0.5,3.9,3.1   c3.1-1,8.9-4.5,9.1,1.1c5.6,0.7,12.5-4.2,16.3,1.7C483.5,592,489.3,591.3,493.9,592.6z" />
	<path display="inline" fill="#030202" d="M424.5,151.1c-15,1.5-31.1,1.1-45.3-4.3c-5.5-3-11.9-2.3-17.9-3   c-17-6.4-28.5-24.7-35-40.9c0.3-0.3,0.5-0.6,0.8-1c9.7,17.2,21.6,40.3,44.1,40.1c6.3-1.4,11,4,17.4,4.1c8.6,0.8,17.1,3.4,25.8,2.9   c3.5,0.5,8.4-1.6,11.1,1.1C425.1,150.5,424.8,150.8,424.5,151.1z" />
	<path display="inline" fill="#040405" d="M451.3,385.5c-1.7-7,0.8-13.7,0.6-20.9c-3.9-0.4-7.4-0.2-11.2,1.1   c-2.9-2.1-2.3-5.7-2.1-8.8c0.3-6.3-2-12.9,1.7-18.7c-4.3-12.8,0.6-25.5,4.4-37.4c-0.7-9.9,5.6-18.4,5.2-28.2   c0.1-1.3-0.2-3.1,1.4-3.6l0.3,0.3l0.3-0.1l0,0c1.4,11.2-5.9,20.7-5.1,32c0.2,3.2-2.1,5.7-3.5,8.5c-2.6,7.6-2.4,17.6-1.7,26   c1,4.2-2.6,7.7-0.9,12.2c0.3,0.2,0.8,0.4,1.2,0.6c-3,4.5-1.8,9.3-1.4,14.4c11.7-1.3,24-3.1,35.3,0.2c-0.6,1.4-9,1.4-9.3-0.5   c-3.1,0-8.8,0.9-12.1,2c-1.2,3.9,1.6,9.8-1.5,12.7C452.6,380.5,453.3,383.2,451.3,385.5z" />
	<path display="inline" fill="#030303" d="M442.6,161.2c0.3,0.2,0.6,0.5,0.8,0.7c-0.1,0.6-0.2,1.2-0.3,1.6c-1.2,0.5-2.3,1-3.3,1.4   c8.8,24,29.6,47.3,24.5,74.2c-0.8,0.1-0.8,0.8-0.9,1.3c-0.2,0-0.4,0.1-0.6,0.1c-2.7-9.7-1.7-20.3-4.4-29.7   c-5-14.3-13.2-26.8-19.4-40.5c-0.9-3.7-6.4-9.8-4.4-12.9c2.8,0.3,3.1,4,4.6,5.9c0.6,0.1,1-0.4,1.6-0.4l0.1-0.3   C441.6,162.2,442.1,161.7,442.6,161.2z" />
	<path display="inline" fill="#060505" d="M559.8,55.7c5.1,6.1,6.1,14.2,11.4,20.3c1.4,14.1-7.4,27.9-19.4,35   c-2.5,5.7-7.9,8.9-12.4,12.8c-1.1-0.5-0.6-1.5-0.8-2.3c23.6-23.4,41.5-32.3,20.1-65.5C559,55.8,559.4,55.8,559.8,55.7z" />
	<path display="inline" fill="#0C0A09" d="M559.8,55.7c-0.4,0.1-0.8,0.1-1.1,0.2c-12.5-13.5-33.4-20.6-37.4-40.4   c0.3-0.3,0.5-0.6,0.8-0.8C528.8,36.9,548.2,38,559.8,55.7z" />
	<path display="inline" fill="#0A0808" d="M368.2,113.6c-0.3,0.3-0.5,0.6-0.8,0.8c-12.1-6.8-28.7-13.3-34.4-26.9   c1.5-3.8,1.5-7.7-0.3-11.4c0.3-0.3,0.6-0.6,0.8-0.8c2.8,3.8,3.3,8.7,1.3,12.9c7.2,10,19.7,16.1,29.6,23.3l0,0   c0.5,0.2,0.8,0.9,1.4,0.7C366.8,112.5,367.7,112.8,368.2,113.6z" />
	<path display="inline" fill="#060609" d="M501.8,349.5c-0.3,0-0.5,0-0.8,0c-0.2-4.3-0.5-8.5-1.1-12.9c-2.2,2.3-2.2,4.3-1.8,7   c0.6,4.4-1.7,8.3-2.9,12.4c-1.6-2-0.4-4.9,0.1-7.1c1.6-4.1-0.9-8.2,0.8-12.2c3.9-3.1,2.9-9.1-0.1-12.4c2.7-0.7,3.2-2.9,4.3-5.1   c0.4,0.1,0.8,0.2,1.4,0.3c-3.7,9.1,0.9,17.8,1.5,26.8c-0.4,0.3-0.9,0.6-1.5,1.1C501.8,348,501.8,348.7,501.8,349.5z" />
	<path display="inline" fill="#070607" d="M474.2,364.1c0.6-0.1,1.4,0,1.6-0.8c5.7,1.3,13.8,1.4,17.4,6c-0.9,2-3.4,1.9-5.3,2.6   c-1.4,4.8-4,8.9-6.8,13c-1.1,0.3-0.8,1.6-1.7,2.2c0.2-5.4,4.6-9.6,6.2-14.7c-1.3-0.2-2.3-0.3-3.3-0.5c0-0.3,0-0.5,0-0.8   c2-0.1,3.5-1.2,5.1-2.3c0.4,0,0.8,0,1.2,0c0-0.2,0-0.3,0-0.5c-0.4,0-0.8,0-1.2,0c-1.5-1-3.1-1.1-4.9-0.7c0,1.2-0.1,2.4-0.1,3.6   c-0.2-0.1-0.4-0.2-0.6-0.2c0-0.2-0.1-0.4-0.2-0.6c0-1.1-0.1-2.1-0.1-3.3C479.1,364.9,476.8,364.2,474.2,364.1z" />
	<path display="inline" fill="#221C1B" d="M318.3,68.1c1-3.6,5.1-4.8,7.8-7.1c0.9,0.4,1.7,0.8,2.5,1.2c1.3-1,2.8-2.1,4.8-2   c1,2.4,1.2,6.1,0.2,8.6c-1-0.7-1.1-2.4-1.3-3.6c1.4-0.9,0.2-2.2-0.6-3.1c-4.9,3.2-0.5,9.5-4.6,13.8c-0.3,0.1-0.7,0.1-1.1,0.2   c-2.8-2.7-1.9-7.2-2.8-10.7c-2.3,0.5-3,1-2.7,2.6c0.7,2.2,0.4,5.5,2.3,6.8c-0.6,0.2-1.1,0.5-1.7,0.7   C318.4,74.1,319,70.5,318.3,68.1z M324.7,63.4c-0.1,3,1.2,5.9,0.4,8.8c-0.1,0.4,0.5,1,0.8,1.6c3.4-2.7,1.5-6.3,1.6-10.1   c-0.4-0.3-1.1-0.7-1.7-1.1C325.4,62.9,325.1,63.1,324.7,63.4z" />
	<path display="inline" fill="#1B1614" d="M500.4,3c0.5-0.3,0.9,0.5,1.4,0.7c-0.3,0.4-0.5,0.8-0.8,1.3c1.4,1.5,4,2.3,3.8,4.7   c0,0.2,0.4,0.5,0.6,0.7l0.2-0.1c0.2,0.2,0.5,0.5,0.7,0.7c-0.7,1.9,1.3,2.8,2.9,3.6c-0.6-2.8-0.3-5.6,1.3-7.9c0-0.2,0-0.4,0.2-0.6   c0.2,0.3,0.5,0.6,0.7,0.8c-0.1,0.4-0.2,0.9-0.2,1.3c-1,0.9-0.4,2.7-0.9,3.9c0.8,0.4,1.5,0.8,2.2,1.2c-0.3,0.4-0.6,0.8-0.9,1.2   c1,0.3,1.7,1.3,2.7,0.3c0-0.7,0.1-1.4,0.1-2.1c0.4,0,0.8,0,1.1,0c0.1,1.5,0.7,2.8,2,3.8c-0.7,1.2-1.3,2.2-1.9,3.1   c-1.2-0.4-0.8-1.5-0.9-2.7c-1.9,0.6-3-1.3-4.6-1.1c0.1,0.5,0.1,0.9,0.2,1.6c-2.6-0.4-4.8-1.5-7-2.6c0-2.2,0-4.2,0-6.3   c-1-0.6-1.9-1.2-2.8-1.7c0-0.6,0-1.3-0.7-1.6C499.8,4.5,499.9,3.7,500.4,3z" />
	<path display="inline" fill="#2E2726" d="M314,88.5c-1.2-3.7-2.3-7.4-3.5-11c0.4-0.2,0.8-0.5,1.2-0.7c1.3,2.4,2,5.2,4.5,6.6   c1.2-0.8,1.4-1.8,1.3-2.9c0.3-0.3,0.6-0.6,0.9-0.9c0.5,0.3,0.9,0.5,1.6,0.8c0-1.8-1-4.1,1.2-4.4c0.7,0.7,1.3,1.5,2.1,2.4   c-0.4,0.3-0.8,0.7-1.3,1c-0.1,0.7-0.1,1.4-0.2,2c-0.7,0.4-1.3,0.8-1.9,1.2c0.1,1.6,0.1,3.1-2.2,3.7c-1.1-0.5-2.4-1.2-4.3-2.1   c0.6,1,0.9,1.5,1.2,2c0,0.2,0,0.5-0.1,0.7C314,87.1,314.1,87.9,314,88.5z" />
	<path display="inline" fill="#09080A" d="M451.8,260.2c0.6-5.4,5.3-9.3,8.7-13.2c0.3,0.3,0.6,0.7,0.9,1c-1.1,4.7-7.8,6.9-7.3,12.1   c-0.1,0.2-0.2,0.4-0.1,0.6c-1,1.6-0.5,3.4-0.7,5.2l0,0c-0.7,1.2-0.3,2.8-1.4,3.7l0,0C451.9,266.4,451.9,263.3,451.8,260.2z" />
	<path display="inline" fill="#020202" d="M442.5,433c1.3-2.1,0.6-5.2,0.7-7.8l0,0c0.9-0.6,0.9-0.6,0.1-1.4c-0.1-5-0.2-10.1,0-15.2   c0.2,0.2,0.5,0.5,0.7,0.7c0,1.9,0,3.8,0,5.8c0.2,0.2,0.4,0.5,0.7,0.7c0.2,5.8,0.3,11.6,0,17.3c-1.9,2.6-0.1,7.6-2.2,10.1   c-0.2-0.1-0.2-0.3,0-0.5C442.5,439.6,442.5,436.3,442.5,433z" />
	<path display="inline" fill="#251F1F" d="M508.4,595.5c-5.1-0.6-10.2,2.9-15,0.5c1.5-1.7,21.8-4.2,20.7-1.1   C512.2,595,510,594.3,508.4,595.5z" />
	<path display="inline" fill="#211D1C" d="M451.3,385.5c0.4-0.7,0.9-1.4,1.3-2.2c0,1.3,0,2.6,0,3.9c-4.9,6.8-5.8,11.9-7.8,19.4   c-0.3-0.8,0.3-1.8-0.8-2.3C444.9,397.5,448.2,391.6,451.3,385.5z" />
	<path display="inline" fill="#1B1616" d="M314,88.5c0.2-0.6,0-1.4,0.8-1.6c2.6,6.2,10,8.6,12.2,15.2c-0.3,0.3-0.5,0.6-0.8,1   c-0.2-0.1-0.4-0.1-0.5-0.2C323.4,97,316.3,94.5,314,88.5z" />
	<path display="inline" fill="#EED5CA" d="M321.3,76c-2.2,0.4-1.2,2.7-1.2,4.4c-0.6-0.3-1.1-0.6-1.6-0.8c-0.1-0.3-0.1-0.9-0.3-1   c-1.4-0.4-1.8-1.7-2.6-2.7c0.9-2.2-0.3-5.2,1.9-6.7c0.1-0.1-0.1-0.7-0.1-1c0.3,0,0.5-0.1,0.8-0.1c0.7,2.4,0.1,6,2.8,7.4   C321.1,75.6,321.2,75.9,321.3,76L321.3,76z" />
	<path display="inline" fill="#3F3231" d="M501.8,3.7c-0.3-0.2-0.6-0.5-0.9-0.7c0.4-0.4,0.9-0.8,1.3-1.1c5.7,0.7,10.6,3.2,15.7,5.5   c0,0.3-0.1,0.5-0.1,0.8l0.1-0.1c-2.2-0.2-4.2-1.6-6.4-1.3c-1-1.5-2.6-2.3-4.2-2.8c-1.7,3.1-1.7,3.1-1.8,6.3   c-0.2-0.2-0.7-0.5-0.6-0.7c0.2-1.4-0.7-2-1.5-2.8c1.3-0.6,1.3-0.6,1.8-2.8C504.1,3.2,503,3,501.8,3.7z" />
	<path display="inline" fill="#221F1E" d="M442.7,81.7c-0.3,0.3-0.6,0.6-0.9,0.9c-1.3-0.2-1.1,0.7-1.5,1.8c0.7-0.2,1.1-0.3,1.6-0.5   l0,0c0.1,1,0,1.8-0.4,2.9c1.4,1,2.7,2,4,3c0.2,0.5,0.4,1,0.6,1.4c-0.9,0.5-0.4,1.4-0.6,2.1c-2.1-2.7-1.7-3.5-5-5.7   c-1.1-2.8-2.2-7.3,0.6-9.6c0.2,0.8,0.9,0.9,1.6,0.9l0,0c0,0.2,0,0.5,0,0.7c-0.4,0.1-0.8,0.2-1.4,0.3   C441.9,80.6,442.2,81.2,442.7,81.7z" />
	<path display="inline" fill="#2C2524" d="M317.5,68.2c0,0.3,0.2,0.9,0.1,1c-2.7,1.7-0.3,5.7-2.8,7.5c-1.4-1.3-2-2.5-3.1,0   c-0.4,0.2-0.8,0.5-1.2,0.7c-0.4-1.1-0.1-2.1,0.5-3.3c0.8-0.3,1.8-0.7,2.9-1.1C314.5,71,314.3,68.4,317.5,68.2z" />
	<path display="inline" fill="#16181E" d="M493.2,369.2c-0.3-0.5-0.6-1.1-0.8-1.6c3.6-3.3-0.4-10.4,2.1-14.7c0,1.1-0.1,2.2,0.8,3   c0,4.3,0.4,8.6-0.5,12.8C494.1,369,493.7,369.1,493.2,369.2z" />
	<path display="inline" fill="#363231" d="M485.1,78.9c-2.3-3,4.7-2.8,1.3-7.7c-0.4,0-0.7-0.1-1-0.1c0.3-1,1.4-1.1,1.3-2.3   c2.8,3.5,2.7,8.3,1.6,12.4c-0.1-1.6-0.2-3.2-0.4-4.8c-0.1,0-0.1,0-0.2,0c-0.1,1.5-0.3,2.9-0.4,4.3c-0.8,0.4-1.1,0-1.3-0.5   c1.5-0.8,0.8-1.8,0.4-2.9C485.4,77.8,485.2,78,485.1,78.9z" />
	<path display="inline" fill="#100F0E" d="M442.5,443.4c2.1-2.5,0.2-7.5,2.2-10.1c-1.6,7.7,0.5,15.9-1.3,23.3   c-0.5-2.6,0.9-6.3-0.9-8.2C442.5,446.7,442.5,445,442.5,443.4z" />
	<path display="inline" fill="#36312F" d="M500.4,3c-0.2,0.3-0.3,0.6-0.5,0.9c-0.3-1.6-1.5-1.6-2.9-1.5c-0.3,1.9-1.3,3.6-0.7,5.6   c0.4,0.1,0.7,0.2,1,0.3c0.1,0.2,0.2,0.4,0.1,0.6c-1.2-0.1-1.5,0.6-1.5,1.6c-1.9-3.3-1.3-6.5-0.1-9.8C497.7,0.6,500,1.1,500.4,3z" />
	<path display="inline" fill="#2E2725" d="M496,10.6c0-1,0.4-1.7,1.5-1.6c0.1,0.7-1,1.8,1,2c0.1-1,0.2-1.9,0.3-2.8   c1.1-0.7,0.9-1.8,0.9-2.8c1.7,2.5,0.8,6.8-0.7,9.4c-0.9-0.6-0.5-1.9-1.6-2.1C496.6,12.1,496,11.5,496,10.6z" />
	<path display="inline" fill="#261F1E" d="M434.7,157.5c-0.7,0.2-0.7,0.9-0.8,1.5c-3.4-2.4-7.2-4.1-9.5-7.8c0.3-0.3,0.6-0.6,0.9-0.9   C428.4,152.8,431.1,155.7,434.7,157.5z" />
	<path display="inline" fill="#0B0B0F" d="M461.4,248c-0.3-0.3-0.6-0.7-0.9-1c-0.6-2.4-1.6-4.8,0-7.1c0.5-0.1,1-0.2,1.6-0.3   c0.2,0.3,0.5,0.6,0.7,0.9c0.2,0,0.4,0,0.6-0.1l0.1,0.1c-1.3,1.6-0.9,3.7-1.9,5.4c0.4,0.3,0.7,0.5,1.1,0.8   C462.2,247.1,461.8,247.5,461.4,248z" />
	<path display="inline" fill="#353230" d="M332.3,65.9c0.7,0.9,0.3,2.3,1.3,2.9c0,2.2,0.1,4.3,0.1,6.5c-0.3,0.3-0.6,0.6-0.8,0.8   C331.3,73,332.5,69.3,332.3,65.9z" />
	<path display="inline" fill="#463F3D" d="M522.1,14.7c-0.3,0.3-0.5,0.6-0.8,0.8c-1.4-2.4-2.9-4.7-3.5-7.3l-0.1,0.1   c0.3-0.1,0.5-0.1,0.8-0.2C520.4,9.9,521.1,12.3,522.1,14.7z" />
	<path display="inline" fill="#2C2424" d="M508.4,595.5c1.6-1.2,3.8-0.4,5.7-0.6c0,0.7,0,1.4,0,2.3c-1.3,0.5-2.5,1.8-4.3,1.3   c0.3-0.5,0.6-0.9,0.8-1.4c0.8-0.4,1.6-0.7,3.2-1.4C511.4,595.6,509.9,595.5,508.4,595.5z" />
	<path display="inline" fill="#56514F" d="M497.4,12.6c1.1,0.2,0.7,1.6,1.6,2.1c-0.5,2,1.4,2.7,2.1,4.3c-0.3,0.3-0.6,0.6-0.8,0.9   c-1-1.1-1.9-2.2-2.9-3.3C497.4,15.1,497.4,13.9,497.4,12.6z" />
	<path display="inline" fill="#100F0E" d="M443.2,409.9c0,3.7,0,7.5,0,11.2C442.4,417.4,442.4,412.8,443.2,409.9z" />
	<path display="inline" fill="#AD9494" d="M510.6,597.1c-0.3,0.5-0.6,0.9-0.8,1.4c-2.1-0.3-4.1,1-6.7,0.3   C505.2,596.9,508,597.7,510.6,597.1z" />
	<path display="inline" fill="#5A3636" d="M493.9,592.6c-1-0.5-1.9-0.7-3-0.7c2.4-1.2,4.8-0.7,7.3-0.5c0,0.2,0.1,0.5,0.2,0.7   C496.8,592.2,495.4,592.4,493.9,592.6z" />
	<path display="inline" fill="#100F0E" d="M442.5,433c0,3.3,0,6.6,0,9.8C441.9,439.8,441.9,436,442.5,433z" />
	<path display="inline" fill="#4B65C5" d="M451.8,260.2c0.1,3.1,0.1,6.2,0.2,9.2l-0.3,0.1l-0.3-0.3   C451.5,266.3,450.8,263.1,451.8,260.2z" />
	<path display="inline" fill="#100F0E" d="M443.2,425.2c-0.4,2.3,1,5.6-0.7,7.3C442.4,430,442.2,427.6,443.2,425.2z" />
	<path display="inline" fill="#292624" d="M538.5,121.3c0.2,0.8-0.3,1.8,0.8,2.3c-0.2,1.2-0.5,2.4-0.7,3.6c-0.3,0-0.5,0-0.8,0   C538.1,125.3,537.2,122.8,538.5,121.3z" />
	<path display="inline" fill="#100F0E" d="M444,404.3c1.5,1.2,0.5,3.4,0.6,5c-0.2,0-0.4,0-0.7,0c-0.2-0.2-0.5-0.5-0.7-0.7   c0-0.2,0-0.5,0-0.7c1.2-0.8,0.6-2,0.6-3.1C443.8,404.7,443.8,404.5,444,404.3z" />
	<path display="inline" fill="#CBC2C2" d="M488.1,594.8c-0.7,0-1.4,0-2.1,0c0-0.2-0.1-0.4-0.1-0.6c1.4-0.2,2.9-0.4,4.3-0.6   C489.6,594,488.9,594.4,488.1,594.8z" />
	<path display="inline" fill="#524F4F" d="M482.5,60.7c-1.8-0.4-0.4-2.4-0.2-3.5C483.7,58.2,482.4,59.5,482.5,60.7z" />
	<path display="inline" fill="#9E6A6A" d="M498.3,592c-0.1-0.2-0.1-0.4-0.2-0.7c1.1-0.1,2.3-0.4,3.5,0.3   C500.5,592.5,499.4,592.1,498.3,592z" />
	<path display="inline" fill="#4A63C2" d="M462.8,240.5c-0.2-0.3-0.5-0.6-0.7-0.9c0-0.6,0.1-1.2,0.1-1.8   C462.4,238.7,462.6,239.6,462.8,240.5z" />
	<path display="inline" fill="#211D1C" d="M443.9,404.9c0,1.1,0.6,2.3-0.6,3.1C443.2,406.9,443.2,405.8,443.9,404.9z" />
	<path display="inline" fill="#100F0E" d="M443.3,423.8c0.8,0.8,0.8,0.8-0.1,1.4C443.2,424.8,443.3,424.3,443.3,423.8z" />
	<path display="inline" fill="#FBDFD3" d="M558.9,54.3c-0.3-0.5-0.5-0.9-0.8-1.4C558.8,53.1,558.9,53.7,558.9,54.3z" />
	<path display="inline" fill="#EECABA" d="M325.7,102.8c0.2,0.1,0.4,0.1,0.5,0.2c0,0.4,0,0.8,0.1,1.1   C325.6,103.9,325.6,103.4,325.7,102.8z" />
	<path display="inline" fill="#FBDFD3" d="M367.5,112.8c-0.5-0.2-1.1-0.4-1.6-0.6C366.6,112.1,367.2,112.1,367.5,112.8z" />
	<path display="inline" fill="#FBDFD3" d="M365.3,112c-0.3-0.2-0.5-0.4-0.8-0.6C364.8,111.6,365.1,111.8,365.3,112z" />
	<path display="inline" fill="#DDC5BA" d="M518.5,8c-0.3,0.1-0.5,0.1-0.8,0.2c0-0.3,0.1-0.5,0.1-0.8C518,7.7,518.3,7.9,518.5,8z" />
	<path display="inline" fill="#FBDFD3" d="M481.1,384.7c0.1-0.2,0.3-0.5,0.4-0.7c0,0.3,0.1,0.5,0.1,0.8   C481.4,384.8,481.3,384.7,481.1,384.7z" />
	<path display="inline" fill="#524F4F" d="M482.3,57.2c-0.2-0.3-0.4-0.6-0.6-0.8C481.9,56.7,482.1,57,482.3,57.2z" />
	<path display="inline" fill="#FBDFD3" d="M364.6,111.5c-0.3-0.2-0.6-0.5-1-0.7C363.9,111,364.2,111.3,364.6,111.5z" />
	<path display="inline" fill="#CCD2E9" d="M496.9,128.7c4.7-6.3,2.8-20.4-0.2-27.6c1-0.2,1.9-0.4,2.9-0.7   c3.6,14.7,10.9,29.7,25.2,36.4c1.1,1.2-0.6,2.9,1.4,3.6c0.3-0.8,0.5-1.6,0.8-2.6c3.2,1,6.2,2.1,9.5,3.1c2,32.4,2.7,65.6,1.5,97.6   c-4,1.9-8.2,3.6-12.7,3.9c0.5-3.4,3-8.3,0-10.7c-1,15.1-2.4,9.8-13.6,14.3c1.2,0.1,2.1,0.2,2.9,0.3c0,0.1,0,0.2,0,0.4   c-8.3,1.4-16.8,0.4-25.1-0.5c-2-8.6-6.5-17-7.9-26c-0.4-1.8-0.8-2.3-2.8-3.6c-0.4,3.2,0,6.2-0.1,9.3c0.3,0.4,0.7,0.8,1,1.2   c-0.2,0.2-0.6,0.6-0.9,1c0.4,1.3,0.4,2.8,1,4.1c0.1-0.2,0.3-0.3,0.4-0.5c1.6,1.3,1.4,3.5,2.1,5.3c-1.9,1.4,1.5,5.7,1.1,8.2   c-2.8,0.2-6.2-0.5-9.7-1.9c0.2-0.4,0.4-0.9,0.7-1.5c-4-12.9-1.8-27.1-7.1-40c1.3-1,3.2,0.3,4-1.7c-3.4-3.7-8.5-5.4-9.7-10.9   c0.9-0.1,1.4-0.2,2-0.3c0.5,1.5,4.7,1.2,4.6-0.4c-1.7-3.7-8.9-2.4-9.5-6.4c1.4-0.7,3.2,0.3,4.7-0.8c-1.6-3.4-5.3-3.8-7.7-5.6   c-1.9-4.5-4.6-8.8-6-13.3c3.8-0.9,6.9,2.5,10.6,1.3c3.4,1,6.7,1.5,10.1-0.1c-6.5-5.6-16.5-6.5-23.4-12.2c-0.1-13.5,0-26.9-0.9-40.4   c0.4-0.2,0.7-0.4,1-0.5c0.4,1.1,0.8,1.9,1.1,2.8l0,0c1.2,16.4,15.7,31.6,32.6,31l0,0.1c0.1,6.4,10.5,18.4,17.5,15.8   c-5.6-5.4-10.3-10.4-12.4-17.9C490.8,139.1,494.6,134.2,496.9,128.7z M514.7,192.4c0.4,0.6,0.9,1.3,2.1,1c-1.6-1.5-2.2-3.2-4.1-4.6   C511.7,190.5,513.9,191.1,514.7,192.4z M491.1,192.1c0.3,1.1,0.6,2.2,2.1,3c-0.6-3.5-2.4-6.1-2.8-9.7c0-1.6,0.3-3.3-1.1-4.6   C486.9,183.1,490.5,189.1,491.1,192.1z M505.4,181.4c1.2,1.2,2.4,2.4,3.7,3.6c0.5,0.7,0.5,2,2.1,2c-0.6-2.5-4.3-8.2-7-6.6   C504.6,180.7,505,181.1,505.4,181.4z M487.5,172.8c0.9-0.2,2.1,0.2,2.7-0.9c3.9,1.8,7.2,4.9,11.6,5.9c0.3,0.6,0.7,0.8,1.4,0.2   c-3.9-2.6-7.8-4.9-11.7-7.4c-0.4,0.2-0.8,0.4-1.2,0.6c-2.6-1.2-4.3,1.1-6.9,2.1C485.2,173.6,486.4,173.7,487.5,172.8z M528.5,169.1   c0.8-1.6,2.9-5.4-0.5-4.9c-0.1,1.3-0.2,2.3-0.3,3.3c-0.7,0.9-0.9,1.8-0.3,3.3C528,170,528.2,169.6,528.5,169.1z M522,147.4   c-0.9,1.8-1.8,3.6-2.9,6.1c2.4-1.5,3.7-3,3.8-5.3c1.3-1.4,2.1-3.1,3-4.8c-0.6-0.3-0.9-0.5-1.2-0.7   C522.6,143.8,522.8,145.8,522,147.4z M496,205.9c0-1.5,0.5-3.1-0.5-5.2c-0.4,4.2-0.1,14.9,4,16.3   C497.7,213.4,497.1,209.6,496,205.9z M524.6,221.2c-0.9,2.5-0.5,4,1.7,6C525.6,225.3,526.3,222.2,524.6,221.2z M530.6,184.2   c-1.9-0.1-1.9-0.1-2.8,2.1C529.1,185.9,530,185.5,530.6,184.2z M522,176c0.3-1.8-2.2-0.9-1.8,0.8C520.9,176.5,521.5,176.2,522,176z    M532.5,176.9c-0.5,1.6-1.2,2.5-0.9,3.8C532.9,179.8,533.4,178.9,532.5,176.9z M480.6,175.5c-1.3,0.9-1.6,1.7-1,2.8   C480.3,177.7,481,177.1,480.6,175.5z M479.5,180.3c-1.1,0.7-1.6,1.4-0.4,2.6C479.3,181.8,479.4,181,479.5,180.3z M512.7,155.7   c0.2,0.1,0.3,0.3,0.5,0.4c1.2-0.7,1.7-0.7,1.5-2.6C513.8,154.5,513.2,155.1,512.7,155.7z M524.9,173.8c-1.7-0.4-1.7-0.4-1.7,0.9   C523.7,174.4,524.2,174.2,524.9,173.8z M498.3,222.1c0.2,0,0.4,0,0.6,0c-0.1-0.5-0.2-1-0.2-1.5c-0.1,0-0.2,0-0.4,0   C498.3,221.1,498.3,221.6,498.3,222.1z M508.1,157.8c0.9,0.7,1.5,0.8,2.6-0.3C509.5,157.6,508.9,157.7,508.1,157.8z" />
	<path display="inline" fill="#FBDFD3" d="M332.3,65.9c-1.6,7.6,3.9,14.3,0.8,21.6c3.6,11,16.3,15.6,25,22.1   c2.8,2.4,6.4,2.9,9.4,4.8c2.7,2.6,5,5.5,8.5,7.2c10.4-2.9,20.7-4.2,31.5-2.8c6.1-6.8,15.5-9.7,24.4-8.7c0.1,0.3,0.1,0.7,0.2,1.1   c3.3,1.3,7.1,1.9,9.4,4.9c0.5,0.6,1,1.3,2,1.1c2.5,8.9,1,19.5,0.7,28.9c-0.3,0.4-0.7,0.9-1.1,1.5c-9-10.2-17.4-20.4-28.6-28.3   c-4.5,5.4,9.2,10,10.6,15.2c-0.8,0-1.7,0-2.6,0c-5.4,7.1-30.8-2.1-28.4,3.4c3.2,0.4,5.8,3.1,9.1,2.3l0,0c2.1,1.9,5.6,0.2,8.2,1   c3.5,1.4,7.4-0.5,10.5,0.6c0.1,1.1,0.3,2.2,0.4,3.3c-18.6,2-33.9-1.3-51-7.7c-2.2-5.6-18.2-5.9-23.4-10.7   c-11.6-14.3-21.1-29.3-34.1-42.5c1.9,0.9,3.2,1.5,4.3,2.1c2.2-0.6,2.3-2.1,2.2-3.7c0.6-0.4,1.2-0.7,1.9-1.2c0.1-0.7,0.1-1.3,0.2-2   c0.4-0.3,0.9-0.7,1.3-1c-0.8-0.9-1.5-1.6-2.1-2.4v0.1c4.5-0.2,5.2,2.5,7.2-3.1c2.2-3.4-1.4-8.6,3.1-10.9c0.4,0.5,0.8,0.9,1.1,1.4   C332.5,64.2,332.2,65,332.3,65.9z M331.4,91.9c1-0.7,1.4-1.7,0.5-2.7c-0.6,0.3-1.2,0.5-1.3,1.2c-0.2,0.1-0.4,0.1-0.6,0.1   c-2-1.5-4-3-6-4.5l0,0c1-0.2,0.9-0.9,0.7-1.6c-0.8-2.1-3.3,0.8-1.2,1.6l0,0c-0.6,0.9-1.1,1.7-1.6,2.5c1.1,4.5,3.7,3.4,5.8,6.3   c-1.2,2,1.3,4.2,3,5.1c-0.2,1.1,0.1,1.8,1.2,2.1c0.4-1.7,0.4-1.7-1.3-2c-0.5-1.5-0.9-3-1.4-4.4c0.2-0.7,0.8-0.7,1.4-0.7   c1.2,1.8,1.2,1.8,2.9,2.2c-0.5-1.2-0.8-2.5-2.1-3C331.4,93.3,331.4,92.6,331.4,91.9L331.4,91.9z M367.6,120.6   c-0.6-0.7-1.3-0.9-2.3-0.2c2,0.8,2.8,5,5.2,3.6C370.6,122,369.2,121.2,367.6,120.6z M324.6,81.9c1-1.2,1.5-2.5,0.8-4.2   C323.4,79.7,323.3,80.5,324.6,81.9z M364.8,119.5c-0.9-0.9-1.6-3.4-3.1-2c0.6,0.8,1.2,1.6,1.8,2.5   C364,119.9,364.3,119.8,364.8,119.5z M360.6,117c0.2-1.7,0.2-1.7-1.7-1.9C359.5,115.8,360,116.3,360.6,117z M388.8,135.2   c0,0.2,0,0.4,0,0.5c0.5,0,1.1,0,1.6,0c0-0.2,0-0.4,0-0.5C389.9,135.2,389.3,135.2,388.8,135.2z M337.6,108.1   c0.6-0.9,0.2-2.2-0.5-1.5C337,107,337.3,107.4,337.6,108.1z M334.9,103.2c-0.9,1-0.9,1.5,0.3,2.4C335,104.6,335,104.1,334.9,103.2z    M429.6,111.1c-0.4-0.4-0.7-0.4-1.2-0.1C428.9,111.3,429.1,111.6,429.6,111.1z" />
	<path display="inline" fill="#FBDFD3" d="M483.6,88.4c1,10.3-6.7,21.2-18,16.2c-1.9-0.4-3.1-1.5-3.9-3.2c-2-5-7.4-8-10.8-11.6   c-0.2-3.7-2.6-6.9-1.1-10c3.6-1.2,7.5-1.4,9.2-5.5c-0.5-0.6-1-1.2-1.3-1.6c-4.1-0.1-6.9,1.2-10,2.8c-2.3-1.1-0.6-3.9-2.3-5.1   c-1.5-2.5,0.4-4.6,0.1-7.2c0.7-0.1,1.3-0.1,2-0.2c0.1-0.8,0.1-1.4,0.2-2c3.5-2.4,6.9-1.1,10.7-1.8c1.9-2.9,4.6-3.9,7.8-3.8   C479.3,61.2,483.8,74.6,483.6,88.4z M462.6,96.1c1.8-0.1,1.7,1.5,1.9,2.9c3,0.2,6.5-1.2,8.9-2.9c-1-1.6-2.5-1.8-4.1-2.6   c1.8-0.8,4.9-0.1,5.6-2.2c0.6-2.1-17,3.6-14.3,5C461.3,96.2,461.9,96.2,462.6,96.1z M474.3,67.4c-3.6-0.3-6.6,0.9-9.5,2.8   c0,1,0,1.7,0,2.6c0.9-0.1,1.6-0.2,2.2-0.3c0.6,0.5,1.1,0.9,1.7,1.3c2.4-0.8,4.8-1.6,7.1-2.3c-0.5-2.1-3.5-0.2-4.4-2   c0.5-0.7,1.1-1.4,2.1-1.3c0.9,0.8,1.9,1,3,0.4C476.3,67.2,475.2,67.5,474.3,67.4z M464.2,88.9c0.7-0.4,1.3-0.9,2-1.2   s1.7,0.3,2.1-0.8C467.1,84,462.1,86.4,464.2,88.9z" />
	<path display="inline" fill="#B7BDD5" d="M449.8,162.6c1.4,4.6,4.1,8.8,6,13.3c2.4,1.9,6.1,2.2,7.7,5.6c-1.5,1.1-3.4,0.1-4.7,0.8   c0.5,4,7.8,2.7,9.5,6.4c0.1,1.6-4.1,1.9-4.6,0.4c0.9-0.1,1.8,0.5,2.6-0.2c-2.7-1.8-5.9-2.1-8.2-4.5c-3,3.1,3.9,3.4,5.6,4.7   c-0.6,0.1-1.2,0.2-2,0.3c1.2,5.5,6.2,7.2,9.7,10.9c-0.8,2-2.7,0.7-4,1.7c5.3,12.9,3,27,7.1,40c-0.3,0.6-0.5,1-0.7,1.5   c-3.1-0.7-7-2.4-9.3-4.3c5.1-26.9-15.7-50.1-24.5-74.2c1-0.4,2.1-0.9,3.3-1.4c0.1-1.6,1.1-3.1,1.8-4.5c0.9,1.2,2,2.3,3.4,2.9   C448.6,162.6,449.2,162.6,449.8,162.6z M464.1,197.3c0,1.1,0.3,1.9,1.5,1.1C465.1,198,464.6,197.6,464.1,197.3z M461.8,196.2   c-0.4-0.6-0.6-1.4-1.7-0.8C460.5,196.1,460.8,196.9,461.8,196.2z" />
	<path display="inline" fill="#EECABA" d="M371.1,137.3c17.2,6.3,32.5,9.7,51,7.7c-0.1-1.1-0.3-2.2-0.4-3.3c0.2,0.1,0.5,0.1,0.7,0.2   c0.4,0.8,0.9,1.3,2.1,0.9c-0.7-0.7-1.3-1.3-1.9-2c1-1.3,2.9-2.3,2-4.2l0.2-0.2c0.7-0.1,0.5-0.6,0.4-1l0.1-0.2   c0.2,0.1,0.4,0.2,0.6,0.2c3.8,8.9,10.1,16.6,17.2,23.1c-0.1,0.9-0.3,1.8-0.4,2.7c-0.6,0.5-1.1,1-1.7,1.5c-0.2,0-0.4,0.1-0.4,0.3   c-0.4,0.1-0.8,0.4-1.3,0.4c-1.5-1.9-1.8-5.6-4.6-5.9c-4.8-1.7-7.4-7.6-12.2-8.5c-14.8,0.4-30.4-0.8-44.3-5.9   c-27.8-0.2-39.2-18.5-51.2-41.1c-2-6.8-10.7-9.1-12.2-15.9c6.3,6.6,12.9,12.8,18.2,20.4c7,11.4,14.3,23.8,28.8,25.8   c3,1.2,7.9,1.4,9.2,4.5c-2.3-0.2-3.1,0.9-5.5,1.8C368.1,138.6,369.3,139,371.1,137.3z M354.5,134.6c1.9,1,3.5,0.7,5.5,0.2   C358.6,134.2,355.8,133.8,354.5,134.6z M364.5,137.2c-0.5-1.2-1.1-1.7-2.3-1.5C363,136.8,363,136.8,364.5,137.2z M427.5,143.2   c-0.6,0.1-1,0.1-1.4,0.1C426.2,144.1,426.9,144,427.5,143.2z" />
	<path display="inline" fill="#ECC9B9" d="M449.1,112c0-0.8,0.1-1.6,0.1-2.5c1.1-0.6,2.1-1.1,3.3-1.7c0.6,0.2,1.3,0.4,2.1,0.7   c-0.2-1.9-0.4-3.8-0.7-5.6c0.3-0.3,0.7-0.7,1-1c5.4,4.2,7.1,10.8,14.4,12.5c-1.7-3.3-4.9-2.5-6.6-5.7c4.5,1,8.1-0.8,12.7-1.8   c1.2,1.4,0.5,3,0.2,4.5c0.2,0.3,0.5,0.5,0.7,0.8c-6,7.3-18.7,8.5-25.8,2.7c-0.1,1-0.2,1.7-0.3,2.4C450,115.4,449.6,113.8,449.1,112   z M455.5,109.4c-0.2,0-0.3,0-0.5,0C455,110.7,455.4,110.7,455.5,109.4z M457.5,112.5c-0.3-0.1-0.6-0.4-0.8,0   C457,112.8,457.2,113,457.5,112.5z" />
	<path display="inline" fill="#EDC9B9" d="M413.1,120.9c0.4-0.5,0.8-1.1,1.2-1.7c11.2,7.9,19.6,18.2,28.6,28.3   c0.4-0.6,0.8-1,1.1-1.5c-0.2,3.2,0,5.7-0.6,9c-9.6-9.9-15.4-21.2-25.9-30c0,0.7,0,1.1,0,1.4c-1.7-0.7-2.8-2-3.7-3.5   c0.6,0,1.2,0,2.6,0C414.8,121.9,414,121.4,413.1,120.9z" />
	<path display="inline" fill="#B6BCD4" d="M445.5,159.7c-0.2-0.2-0.4-0.5-0.5-0.7c0.7-3.4,0.9-7,1.9-10.4c0.1,0.9,0.2,1.9,0.3,3   c7,5.6,17,6.6,23.4,12.2c-5.3,2.7-9.8-0.4-14.8-1.7c-0.1,0.5-0.2,0.9-0.2,1.2c-2.2-1.4-5.5,0.2-7.2-1.4c1.1,0,2.2,0,3.4,0   C449.9,160.6,447.6,158.6,445.5,159.7z" />
	<path display="inline" fill="#ECC8B8" d="M445.4,70.2c1.7,1.1,0,4,2.3,5.1c-0.4,0.6-0.8,1.3-1.4,2.2c1.7,0,2.2-1,2.9-2   c1.8-0.1,3.6-0.2,6-0.3c-5.3,2.6-5.3,2.6-6.4,4.2c0.4,0.1,0.7,0.2,1,0.3c-1.4,3.2,1,6.3,1.1,10c3.3,3.6,8.8,6.6,10.8,11.6   c1.6,3.7,6.3,3.9,9.9,4.4c-11.2,7.3-14.5-10.3-22.9-13.7C446.1,84.9,444.8,77.6,445.4,70.2z" />
	<path display="inline" fill="#1F1917" d="M462.8,106.4c1.6,0.4,3.1,0.8,4.6,1.2c4.3-2.9,10.1-1.2,12.8-6.3c0.3,0.3,0.6,0.6,0.9,0.9   c-0.1,0.4-0.1,0.8-0.2,1.2l0,0c-1.3,1.5-2.7,2.8-2.9,5c-0.1,1.1-0.6,2.5-2.1,2.9c0.2-1.5,1-3-0.2-4.5c-4.6,1-8.3,2.8-12.7,1.8   c-0.3-1.3-1,0.1-1.4,0.5c-0.3-0.7-0.6-1.4-0.9-2.1C461.3,107,462.3,107.5,462.8,106.4z" />
	<path display="inline" fill="#181818" d="M464.2,51.5c-1.2,2.2-3.8,2.4-5.5,4.1c-0.3,0.2-0.9,0.1-1.4,0.1c-0.3-1.8-0.6-3.5-0.9-5.4   c0.5,0.1,0.9,0.3,1.3,0.4l0,0c-0.2,1.3,0.3,2.3,1,3.3c1-0.5,1.9-1,2.8-1.4c-0.5-0.6-1.1-1.2-1.9-2.1   C461.7,50.7,462.5,51.1,464.2,51.5L464.2,51.5z" />
	<path display="inline" fill="#FBDFD3" d="M441.4,111.3c0.2-0.1,0.4,0,0.5,0.1c0.4,1.2,1.4,0.3,2.2,0.7c0,1.3,0.2,2.6-0.7,3.6   c-1.8-2.6-4.1-3.5-6.9-4.7c0.2-0.1,0.3-0.3,0.5-0.4c0.7,0.1,1.3,0.1,2,0.2C439.7,111.8,440.6,111.4,441.4,111.3z" />
	<path display="inline" fill="#D6C1B7" d="M437,110.6c-0.2,0.1-0.3,0.3-0.5,0.4c0.6,0.3,1.2,0.6,1.8,1c-0.6,0.2-1.5-0.2-1.5,0.9   c-1.6-0.6-3.2-1.1-4.8-1.7c-0.1-0.4-0.1-0.8-0.2-1.1C433.6,110,435.4,109.7,437,110.6z" />
	<path display="inline" fill="#232324" d="M449.1,112c0.4,2.7,2.3,5.6,0.6,8.2c-1-2.1-1.4-4.3-1.4-6.6   C449.1,113.4,448.9,112.6,449.1,112z" />
	<path display="inline" fill="#242626" d="M447.6,60.9c-0.1,0.6-0.1,1.2-0.2,2c-0.6,0.1-1.3,0.1-2,0.2c-1.4-1.2-3.3-0.4-4.9-1   c0.7-2.5,3.9-0.2,5.5,0.2C446.6,61.7,447.1,61.3,447.6,60.9z" />
	<path display="inline" fill="#BDA396" d="M445.4,89.8c-1.3-1-2.6-2-4-3c0.2-0.5,0.3-1,0.4-1.4C443.7,86.2,446,87.3,445.4,89.8z" />
	<path display="inline" fill="#D6C1B7" d="M443.3,115.6c0.9-1,0.6-2.4,0.7-3.6c1.5,1.1,0.5,5.4,0.1,7.5c-0.4-0.7,0.2-1.8-0.8-2.4   C443.3,116.6,443.3,116.1,443.3,115.6z" />
	<path display="inline" fill="#B7A49B" d="M485.3,71.1c0.3,0,0.7,0.1,1,0.1c0.2,1.2,1.9,3.1,0.3,4C485.9,73.9,484.6,72.8,485.3,71.1   z" />
	<path display="inline" fill="#1E2121" d="M463.6,47.7c-1.4-0.7-2.4-1.2-3.5-1.7c0.3-0.3,0.5-0.7,0.9-1   C462.4,45.3,463.2,46.1,463.6,47.7z" />
	<path display="inline" fill="#232324" d="M448.3,113.6c-0.4-0.9-0.7-1.8-1.1-2.8c-0.3,0.1-0.6,0.3-1,0.5c0-1.3,0.7-1.6,1.9-1.1   C448.6,111.3,448.3,112.5,448.3,113.6z" />
	<path display="inline" fill="#CEB9AF" d="M485.1,78.9c0.1-0.9,0.3-1.2,1.3-1.6c0.4,1.2,1.1,2.2-0.4,2.9   C485.7,79.8,485.4,79.4,485.1,78.9z" />
	<path display="inline" fill="#3B2F2C" d="M424.6,132.1c1.1,0.5,1.8,1.2,2.1,2.4c-0.3,0.3-0.5,0.6-0.8,0.9c-1-0.2-1-1.5-1.5-2.2   C424.5,132.8,424.5,132.5,424.6,132.1z" />
	<path display="inline" fill="#7B6D66" d="M445.4,89.8c0-0.5,0-1,0-1.5c0.7,1.1,1.3,2.1,2,3.2C446.1,92.7,445.9,90.6,445.4,89.8z" />
	<path display="inline" fill="#433C37" d="M453.2,101.4c-0.4-0.8-0.9-1.5-1.4-2.5c1.4,0.5,1.4,0.5,2.3,1.7   C453.8,100.9,453.5,101.1,453.2,101.4z" />
	<path display="inline" fill="#5E534C" d="M443.3,86.1c-0.5-0.2-1-0.4-1.5-0.7c0-0.5,0-1,0-1.5C443.3,84.1,443.3,84.1,443.3,86.1z" />
	<path display="inline" fill="#5E534C" d="M442,84c-0.4,0.1-0.8,0.3-1.6,0.5c0.3-1.1,0.1-2,1.5-1.8C441.9,83.1,441.9,83.5,442,84z" />
	<path display="inline" fill="#B0998D" d="M442.7,81.7c-0.5-0.5-0.9-1-1.5-1.8c0.6-0.2,1-0.3,1.4-0.3   C443.5,80.8,443.5,80.8,442.7,81.7z" />
	<path display="inline" fill="#D5B8AE" d="M484.4,68.2c0,0.8,0,1.4,0,2.1C482.9,69.4,482.9,69.2,484.4,68.2z" />
	<path display="inline" fill="#A39287" d="M453.2,101.4c0.3-0.2,0.6-0.5,0.9-0.7c0.3,0.4,0.6,0.8,0.9,1.2c-0.3,0.3-0.7,0.7-1,1   C453.7,102.4,453.5,101.9,453.2,101.4z" />
	<path display="inline" fill="#D6C1B7" d="M441.4,111.3c-0.8,0.1-1.8,0.5-2.4-0.5C439.9,110.7,440.7,110.6,441.4,111.3z" />
	<path display="inline" fill="#181818" d="M464.2,51.5c0.2-0.5,0.5-0.8,1.4-0.3C465,51.3,464.6,51.4,464.2,51.5L464.2,51.5z" />
	<path display="inline" fill="#181818" d="M457.7,50.7c0.2-0.5,0.5-0.9,1.3-0.2C458.5,50.6,458.1,50.7,457.7,50.7L457.7,50.7z" />
	<path display="inline" fill="#D6C1B7" d="M443.5,112c-0.7,0.2-1.3,0.2-1.7-0.6C442.4,111.6,442.9,111.8,443.5,112z" />
	<path display="inline" fill="#5F5954" d="M442.6,78.9c0.2-0.6,0.6-1,1.4-0.2C443.4,78.8,443,78.8,442.6,78.9L442.6,78.9z" />
	<path display="inline" fill="#5876E8" d="M528.6,272.4c6.1,1,12.3,0.8,18.4,0.1c10.8,29.3,8.8,60.1,8.6,90.7   c-12.1,7.6-28.5,4.9-42.2,4.4c10.4-6,5-21.6,6.7-31.6c4.9,0.7,9.2,2.7,13.9,3.2c-3.3-3.8-13.7-2.8-14.8-7c0.7-2-1.8-6.3,0.1-7.1   c5.2,2.7,9.8,6.5,15.7,7.6c-14.2-11.4-14.6-3.1-22.3-23.4c3.6-1.9,7.1-3.8,11-5.9c-4.4-0.7-8.7,4.6-12.4,2.9   c0.6-0.9,1.2-1.8,1.8-2.6c-0.1-0.1-0.2-0.2-0.3-0.3c-1,0.7-2,1.4-3,2.2c-1.7-6.3-2.9-12.8-2.9-19.3c0.3-2.6-0.2-5.5-3.6-4.4   c0-2.6-0.2-4.8,0.3-7.2c2-0.7,2.3,1.1,3.5,2c2-0.6,4.3-0.7,5.3-3.2c-0.6-1.1-1.2-2.3-1.7-3.3c-1.3-0.2-2,0.3-2.3,1.4l0,0   c-2-0.2-4.1,0.5-5.8-1.4c0-0.5,0-1.1,0-1.7c3.8-3.1,8.4-1.5,12.7-2.3c4.2-1.6,7.7,1,11.9-0.3c-1,2-1.9,3.6-1.5,5.5   c-1.6,0.1-3.2,0.2-4.8,0.3C523.4,272.7,526,272.4,528.6,272.4z M515.4,291.3c-2.3-1.8-4.6-0.8-6.7-0.8   C508.3,294.1,513.4,291.9,515.4,291.3z M515,302.6c1.1-1.6,2.2-3.2,3.4-4.8C515.9,298.1,515.5,298.7,515,302.6z" />
	<path display="inline" fill="#FBDFD3" d="M537.9,370.4c0.3,0,0.7-0.1,1.1-0.1c0.2,4.8-2.7,9.1-4.7,13.3c-3,6.1-1.9,12.2-3.6,18.7   c-5.9,25.8-19.5,48.9-26.8,74.2c-2.8-0.1-7.2,1.7-8.6-2.1c2.9-6.6,7.4-12.9,7.8-20.2c-2.7,2-3.3,5.1-5.9,7.5   c5.2-24.2,0.2-49.6,13.9-71.7c0.4,3.9-0.7,8.3,1.1,11.8c-1.5,1.7-1.6,3.2-1.4,5.8c0.7-1.5,2.1-1.7,1.7-3.2l0,0c0.4,0,0.7,0,1,0   c3.9-5.7,1.7-12.1,3.3-17.9c0.8,2.5,1.3,4.9,4.2,6c0.8-0.7,1.6-1.3,2.3-1.9c0.5-4.6,0-9.2,1.4-13.6c0.3-0.2,0.6-0.4,0.9-0.6   c2.3,0.2,3.7-1.3,5-2.9C533.3,373.4,536.6,373.3,537.9,370.4z M508.3,418c-0.8,0.6-0.9,1.3-0.3,2.1c1.4,0.2,1.3-1.8,1.6-2.7   C509,417.4,508.5,417.4,508.3,418z M528.2,391.2c1.2-2.1,4.3-5.9,2.2-7.8C528.8,385.6,528.2,388.4,528.2,391.2z M509.1,421.3   c-1.6-0.3-2.2,0.2-2.2,2.6C508.1,423.3,508.9,422.6,509.1,421.3z M510,414c0.5-1.3,0.8-2.3,1.2-3.7   C509.3,411.7,509.2,411.9,510,414z" />
	<path display="inline" fill="#4B65C5" d="M503.3,276.7c0,1.7,0,3.4,0,5.3c3.4-1.1,3.9,1.7,3.6,4.4c0,6.5,1.2,13,2.9,19.3   c-0.6,1.5-2.6,2.1-2.4,4.2c2.1-0.4,2.5-2.5,3.9-3.4c3.8,1.7,8.1-3.6,12.4-2.9c-4,2.1-7.4,4-11,5.9c7.7,20.3,8.1,12,22.3,23.4   c-5.9-1.1-10.5-5-15.7-7.6c-1.9,0.8,0.6,5.1-0.1,7.1c1.1,4.2,11.5,3.2,14.8,7c-4.7-0.5-9-2.5-13.9-3.2c-0.8,13.6,3.9,37.2-17.7,32   c-1.1-6.8,0.2-13.9-0.5-20.8c0.6-0.4,1-0.8,1.5-1.1c0-0.9,0-1.6,0-2.4c2.1,0.8,3.5,1.8,5.8,2c-2.5-1.9-3.6-4.1-6.5-4.3   c-0.5-2.8-1-5.6-1.5-8.5c3.8-0.2,7.4,1.3,11-0.7c-3.8,0.7-7-2.3-10.7-1.2c-2.6-3.6-0.4-7.7,0.4-11.7c-0.6-0.1-1-0.2-1.4-0.3   c0.1-0.6,0.2-1.1,0.4-1.7c-0.3-0.4-0.7-0.8-1-1.3c0.4,0,0.7,0,1.2,0c1.1-3.2,1.6-7.7,0.2-10.7c0.8-9.7,1.7-18.9,1.6-29   C502.9,276.7,503.1,276.7,503.3,276.7z" />
	<path display="inline" fill="#E4E4EB" d="M499.7,498.2c-2.3,0.3-5.7-1-6.8,1.9c3.6,1.1,7.2,1.4,11.2,1.7c2,4.2-1.1,8.5,0,12.9   c1.9,7.3-1.3,21.3-10.3,11.9c-15.6-14.1-11.3-16.1-9.6-34c-1.2,0-2.2,0-3.4,0c-0.7-1.8-1.5-3.7-2.2-5.5c2.9-2.3,4.2-5.3,7-7.3   c0,4.7,5.1,3.4,8.2,2.6c1.8,1.7,4.5-2.9,6.3-3.7c3.6,0.7,8-0.6,10.8,2c-0.8,2-1.6,3.9-2.5,6.1c-1.7,0.3-1.4,2.4-2.7,3.6   c-4.4,0.9-9.2-0.1-13.6,0.3c1.2,4.8,8.8,0.9,11.9,3.4c-0.3,0.8-0.9,0.7-1.5,0.6c-1.6-0.8-8.1-1.2-9.3,0.2c-0.4,1.3,0.6,1.6,1.4,2.1   c1.2,1.5,3.4,0.2,5,0.8C499.6,497.8,499.6,498,499.7,498.2z M493.9,504.2c2.4,1.5,7.5,3.4,8.6-0.1   C501.3,502,495.2,501.6,493.9,504.2z M502.1,510.5c-2.1-2.3-5.5-3.7-7.5-1.7C495.7,511.4,499.8,512.7,502.1,510.5z" />
	<path display="inline" fill="#EDCABA" d="M511.3,403c0.3-0.4,0.6-0.7,1-1.3c-0.9-1.8-1.3-4.1-0.9-6.2c0.2,0.3,0.4,0.6,0.6,0.9   c-0.1,0.9-0.4,1.9,0.6,3c-0.7-3.8,2.1-7.8-0.9-10.9c-14.1,23.7-9.1,47.5-14.4,73c2.6-2.5,3.2-5.5,5.9-7.5   c-0.5,7.4-4.9,13.7-7.8,20.2c0.3,0.5,0.5,1,0.7,1.4c-1.7-0.3-3.1-1-4.5-2.4c5.2-18.3,6-37,5-55.6c0.3-5.9,5.1-11,6.3-16.9   c2.3-4.6,2.5-11.8,6.8-14.7c0.8-5.2-2.4-10.1-1.6-15.4c5.7-1,15-0.7,18.6,0.5c-1.6,3.2-4.6,5.6-7.9,6.9c-0.1,1.3,0.3,2.8-0.7,4   c-0.1-0.9-0.3-1.8-0.4-2.9c-1.6,0.1-2.6,1-3.9,1.7c0.8,1.1,1.3,1.8,1.8,2.9c0.3,0.4-0.2,1.2,0.5,1.4c0.4-0.4,0.7-0.7,1.1-1   c-1.4,6.7,0.5,13.7-3.4,20.1c-0.3,0-0.7,0-1,0C512.5,403.4,512.3,402.8,511.3,403z" />
	<path display="inline" fill="#CECEDC" d="M486.6,482.3c-1.2-0.5-0.4-1.8-0.9-2.6c-2.8,2-4.2,5-7,7.3c0.7,1.9,1.5,3.7,2.2,5.5   c1.2,0,2.2,0,3.4,0c0.9,5.3-2,10.4-2.4,15.6c0.9,9.3,9.5,17.2,17.2,21.8c-4.6,1.8-8.5-3.4-12.6-5.1c-0.5-1.9-1.7-3.4-3.1-4.6   c-9.7-7,0.8-18.8-5.7-26.9c-0.3,0.1-0.5,0.2-0.9,0.3c-1.5-3.2-0.8-6.5,0.1-9.7c3.4-2.1,7-4,9.4-7.5c0.6-0.6,1.7-1.7,2.5-0.7   l0.1-0.1c-0.2,0.1-0.4,0.3-0.5,0.4c0.2,0.1,0.3,0.2,0.5,0.4c0,1.3-0.1,2.5-0.1,3.8c-1.2-0.7-0.3-2.1-1-2.9   C486.1,478.7,486.7,480.6,486.6,482.3z" />
	<path display="inline" fill="#EAC8B8" d="M524.9,376.9c-1.4,4.3-0.9,9-1.4,13.6c-0.7,0.6-1.5,1.3-2.3,1.9c-1.7-0.7-2.8-1.7-3.3-3.2   c0.6,0.3,1.3,0.5,1.8,0.7c2.3-1.4-0.7-6.4,0.3-9.2c0.3-0.5,0.6-1,0.1-1.5C521.5,378,523.1,377.3,524.9,376.9z" />
	<path display="inline" fill="#F7F8F8" d="M488.7,480.2c0.1-1.5,0-3,0.1-4.5l-0.1,0.1c0.4-0.2,0.9-0.3,1.4-0.5   c2,1.7,4.5,2.5,7.5,2.7C495.3,480.3,491.7,482,488.7,480.2z" />
	<path display="inline" fill="#141211" d="M519.9,380.5c-1,2.9,2,7.8-0.3,9.2c-0.5-0.2-1.2-0.5-1.8-0.7c-0.6-1.6-1.1-3.2-0.8-4.9   c0.2-0.1,0.2-0.2,0.1-0.4c0.3-0.5,0.5-1.1,0.8-1.6l0,0c1-1.2,0.6-2.7,0.7-4c1-0.4,1.9-0.8,2.8-1.2c0.3,0.2,0.5,0.5,0.8,0.7   C521.3,378.6,518,379.3,519.9,380.5z" />
	<path display="inline" fill="#DEC3B4" d="M537.9,370.4c-1.2,2.9-4.6,3-7.2,3c-1.3,1.6-2.7,3.1-5,2.9c2.5-2.4,2.5-2.4,3.4-5.3   C532,370.7,534.9,370.2,537.9,370.4z" />
	<path display="inline" fill="#191414" d="M488.7,480.2c1.3,1.1,2.9,0.5,4.4,0.6c0.2,0.5,0.5,1,0.7,1.5c-2.4,0.3-5.1,1.9-7.3,0   c0.1-1.7-0.5-3.6,1.2-5C488.5,478.2,487.5,479.6,488.7,480.2z" />
	<path display="inline" fill="#ADADB3" d="M493.2,494.7c1.2-1.4,7.8-1,9.3-0.2C499.4,494.5,496.3,494.6,493.2,494.7z" />
	<path display="inline" fill="#A6B2B8" d="M499.7,498.2c0-0.2-0.1-0.4-0.1-0.6c1.3-0.1,2.6-0.1,4.1-0.2c0.1,0.8,0.1,1.3,0.2,2.1   C502.3,499,501,498.6,499.7,498.2z" />
	<path display="inline" fill="#ADADB3" d="M504.1,493.9c-0.5-0.3-1.1-0.6-1.6-0.9C503.4,492.4,505.2,492.6,504.1,493.9z" />
	<path display="inline" fill="#A6B2B8" d="M496.9,497.4c-0.9,0.2-1.7,0.4-2.3-0.6C495.3,497,496.1,497.2,496.9,497.4z" />
	<path display="inline" fill="#5876E8" d="M503.3,276.7c-0.2,0-0.4,0-0.6,0c0-3.6-3.3-13.7,3.3-12c8.6,0.3,17.6-2.5,26.2,0.1   c0.2-0.4,0.5-0.9,0.7-1.3c-1.4-1.9-3.3-1.5-5-2.5c4.2-1.9,10.8-0.1,14.2-2.4c-11-1.4-23.6,4.8-34.4,3.9c1.6-1.4,4.1-1,6-3.1   c-4.9-0.6-7.8,4-12.2,3.9c0.2,1.1-1.9,3.7-1.8,3.3c1.5,1.3,0.5,3.8,0.8,5.6c-4,0.5-7.9-1.4-11.9,0c4.1,0.4,8.2,0.9,12.3,1.3   c0.1,0.4,0.1,0.7,0.1,1.1c-4.4,0.2-9.6-0.6-13.4,1.8c4,2.5,9.1,0.6,13.6,1.1c0.8,9.2,0.5,18.8,0,28.3l0,0c-1.7,1.6-0.3,4.3-0.9,6.4   c-0.2,0-0.3,0-0.5,0c-1.7-1.7-3.4-3.5-5.1-5.2c1.6-1.4,2.6,2.2,5,0.5c-4.6-2.9-8.6-6.4-13.3-8.9c-0.1,0.6-0.2,1-0.4,1.7   c-2-1.3-3.3-3.2-5.5-3.7c1.1,1.8,2.8,2.5,4,4.2l0,0c-0.4,0.1-0.8,0.2-1.7,0.4c6.2,5.6,14.1,9.5,17.9,16.6   c-0.9,8.9-11,7.3-16.8,11.5c4.3,0.1,8.8-2.5,13-3.9c1.1,1.8,1.5,4.2,1.1,6.2c-5,4-10.6,5.9-14.9,10.8c2.6-0.2,5.4-1.5,12.6-5.9   c0.1,0.2,0.3,0.4,0.4,0.5c-1.6,4,0.9,8.1-0.8,12.2c-0.6,2.7-1.8,5.5-1.6,8.3c-0.7,3.2,1.5,8.4-1.4,10.5c-9.6-3.7-19.9-5.7-30-6.8   c2.7-7.2-0.9-14.2,0.8-21.5c4,1.4,6.5,4.4,10.8,4.2c-3.9-2.8-7.9-3.9-11.2-6.2c0.2-4.4-0.6-9.3,1.6-13.1c1.3,0.7,2.3,3.3,3.9,2.4   c-1.3-1.8-2.6-3.7-3.8-5.4c5.6-18.5,3.8-37.5,7.7-56.1c0.2-0.1,0.5-0.1,0.7-0.1c5,10.3-0.4,23.7,3.4,33.6   c3.6-9.7,3.1-20.4,4.6-30.4c0.7-3.3-2.7-6.2-0.7-9.2c1.4-0.5,8.4,1.3,7.5-1.3c-2.7-0.3-5.5-0.6-8.3-0.9c-1-2-0.7-4.2-0.7-6.3   c0.4,0.2,0.8,0.4,1.4,0.6c1.8-0.8,4.1-0.9,3.7-3.5c3,1.1,7,0.5,10.3,0.9c0.9,0.7,0.4,2.3,1.8,2.5c0.2-0.8,0.4-1.6,0.7-2.4   c0.8-0.1,1.5-0.2,2.2-0.2c-0.8,1.9-1.3,3.9,0.8,5.3c0.1-2.1,0.2-3.7,0.2-5.3c1.5,0,3.1,0,4.4,0c0.5,1.1,0.9,2,1.3,2.8   c0.4,0.2,0.7,0.4,1.1,0.6c0.9-1.2-1-2.4,0.4-3.5c2.7,0,5.3,0,8,0c0.5,0.8,0.7,1.8,2,2c0.4-1.9-0.8-3-0.1-4.9c0.7,0,1.5,0,2.3,0   c0.1,1.6-0.4,3,0.9,4.4c0.9-1.5,0.5-2.8,0.6-4.4c1.9,0,3.7-1.2,5.6-0.5c0.2,1.2-0.2,3,1.4,3.1c0.4-1.4-0.3-3.5,1.4-4   c0.3,1.2-0.7,4.7,1.6,3.9c-0.1-0.9-1-2.7,0.5-2.9c0.4,0.9-0.2,2.5,1.7,2.8c0-0.7,0-1.2,0-1.8h-0.1c0.6,0.1,1.1,0.2,1.7,0.3   c0.4-0.3,0.8-0.7,1.2-1.1c1.7,0.1,2.1-0.7,2.1-2.3c0.5,0.3,0.9,0.6,1.4,0.9c-0.1,0.2-0.2,0.4-0.3,0.8c13.5,7.4,5.2,14.7,7.7,26.3   c-7.2,0.1-13.9,0.4-21,0.1c-0.4-1.9,0.5-3.6,1.5-5.5c-4.2,1.3-7.7-1.3-11.9,0.3c-4.3,0.9-8.9-0.8-12.7,2.3c0,0.6,0,1.2,0,1.7   c1.6,1.9,3.8,1.2,5.8,1.4c0.2,1.4-1.2,1.8-2.4,3.3c2.2-0.8,3.9-0.8,4.6-3c-0.9-0.1-1.6-0.2-2.2-0.2c0.3-1.1,1-1.6,2.3-1.4   c0.5,1,1.1,2.1,1.7,3.3c-1,2.5-3.4,2.6-5.3,3.2c-1.2-1-1.5-2.7-3.5-2C503.5,275.3,503.4,276,503.3,276.7z M488.1,265.1   c-1.3,0-2.7-0.3-4,0.5c3.4,0.3,7,0.9,10.3-0.2C492.3,264.9,490.2,264.9,488.1,265.1z M496.1,285.2c-3.7-1.4-7.8-1.9-11.8-1.9   c4.8,3,10.5,2,16.1,3.4C499,285.3,497.6,285.3,496.1,285.2z M535.1,268.1c4.7-1.4,10.4-0.4,8.2-7.2c1-0.2,1.7-0.3,2.3-0.4   c0-2-1.8-1-2,0.3c-1.4,0.9-2.9,0.8-4.5,0.6c-0.8-1.1-1.7-1.6-3.1-1c-0.7,1.2-1.9,2.3-0.3,3.7c1.6-0.2,3.4-1.1,4.3,1.2   c-2.3,1.8-12.3,2.5-11.6,5.3C530.6,269.3,533,269.2,535.1,268.1z M517.1,255.8c-2.8,0.1-5.7,0.6-8.5,1c10,1.5,20.3-0.7,30.4-1.2   c0.7-0.1,1.5,0,1.7-1.2C532.8,254.2,525,255.7,517.1,255.8z M543.1,268.7c-3.1,0.8-6.5-0.3-8.9,2c4,0.3,7.6,0.1,11.5,0.1   C544.7,270.1,544,269.5,543.1,268.7z M525.3,245.2c-1.3,1.5-1.5,2.5-0.6,4C525.6,248,526,247,525.3,245.2z M501.7,248.9   c-1.4,1-0.9,3.9,0.8,3.4C502.2,251.3,502,250.3,501.7,248.9z M485.8,250.3c-1-0.5-1.3-0.2-1.1,1   C485.1,250.9,485.4,250.6,485.8,250.3z" />
	<path display="inline" fill="#FBDFD3" d="M538.5,121.3c-1.4,5.2-1.2,11.5-2.6,17.1c-3.1,0.4-3.3,0.3-8.2-3.3   c2.1-7.8-0.7-15.6-0.3-23.1c1.2,0,2.2,0,3.2,0c4.6,2.7,14.8-9.9,14.9-13.9c-5.9,4-13,6-20,7.4c-2.4-0.9-0.6-3.3-2.5-4.5   c-1.8,1.4-1.8,1.7,1,5c-0.1,9.3,2.6,17.9,1,27.4c-12-5.5-18.8-18.1-22.7-30.1c1.2-3.9,6.2-5.5,8.7-8.7c3.5-1.9,7.5-1.3,11.1-2.8   c0.3-0.1,0.7,0.4,1.1,0.5c-1.2,2-0.9,4.1-0.6,6.3c3.6-9.6,10.8-20.1,22.2-21.9c1.5,1,2.5,3.1,4.5,2.7c3.2,1.8,5.6,5.8,9.3,6.2   c-0.2-9.6-12.2-15-18.3-21.2C531.5,53.6,525.6,40.1,517,29l0,0c-0.3-0.7-0.8-1.1-1.4-1.5c0.2-0.2,0.4-0.5,0.7-0.7   c4.7,0.6,6.5,6.3,10.2,7.5c-1-2.7-3.5-4.3-5.2-6.6c-0.4-3-1.4-5.7-4.4-7.5c-0.5,0.5-0.9,1-1.3,1.5c-0.2-0.1-0.5-0.2-0.7-0.4   c0.5-1.9,1.5-3.2,2.6-5c-1.6-1.2-2.2-2.9-1.9-4.8c1-0.3,2-0.8,3.1-0.8c7.3,23.7,23.5,29.4,40.1,44.9   C580,89.1,562.1,98.1,538.5,121.3z M558.7,68.9c-0.3-1.1-0.5-2.2-2.1-2.9c0.6,1.7,0.7,5.8,2.8,5.2C559.2,70.4,559,69.6,558.7,68.9z    M563.8,86.2c0-0.2-0.1-0.4-0.1-0.6c-1.2,1.1-3.1,2.2-2.5,4.1C562.7,89.1,563.5,87.7,563.8,86.2z M533,122.9   c1.3-2.7,4.1-7.3,0.5-8.3C532.7,117,532.7,119.6,533,122.9z M548.8,94.3c1.3-1.1,1.9-1.9,1.1-3.3C548.8,92.2,548.8,92.2,548.8,94.3   z M532.7,124.1c-1.4,0.6-1.4,0.6-0.9,2.1C532.4,125.5,532.6,124.9,532.7,124.1z M563.5,84.5c1.2-1.1,1.2-1.1,0.7-2.4   C563.4,82.7,562.8,83.4,563.5,84.5z M551.3,59.2c0.4-1.4,0.4-1.4-1.1-1.9C550.6,58,550.9,58.5,551.3,59.2z M529.2,37.6   c-0.2-0.8-1.4-1.8-1.7-0.8C527.9,37.7,528.3,37.7,529.2,37.6z M546.8,96.9c1-0.4,1.4-0.9,1.1-2.1C546.8,95.3,546.2,95.8,546.8,96.9   z M553.4,61.6c0.1-1.1,0.1-1.1-1-1.2C552.8,60.9,553.1,61.2,553.4,61.6z M531.3,39.2c-0.4-0.2-0.8-0.4-1.2-0.5   C529.8,39.5,530.8,40.3,531.3,39.2z M531.3,129c-0.1-0.2-0.2-0.4-0.2-0.6c-0.4,0.1-0.2,0.5-0.3,0.8   C530.9,129.1,531.1,129,531.3,129z" />
	<path display="inline" fill="#FBDFD3" d="M450.5,118.6c0-1.4,0.1-2.2,0.3-3.8c1.7,0.9,3.3,4.6,4.7,2.3c9.8,4.1,24.9-2.4,25.3-13.8   l0,0c2-2.7,2.2-7.1,4.6-9.9c1.8,2.2,1.1,5.3,2.8,7.5c0.9,0.3,0.5-0.9,1.5-1.1c1.2,0.1,2.8,0.3,4.7,0.5c0.5,2,1.1,4,1.7,6.2   c-0.5,0.7-1,1.4-2,2.8c1.3-0.7,1.9-0.9,2.5-1.3c2.9,10.7-0.1,28.7-12.6,31.3c-2.4-4.1-0.8-10.3-7.3-9.3c-0.2,3.3,0.4,6.6,2,9.6   c-0.1,0.4-0.2,0.8-0.4,1.2C465.1,142.2,454.6,130,450.5,118.6z M486.6,119.3c1.7-3,5.7-5.2,6.3-8.4c-3.4,0.5-3.9,5.9-7.1,7.6   c-2.1,3.1-10.3,4.6-8.9,8.5C480.4,125.4,483.6,122.8,486.6,119.3z M467.1,122.7c-0.7-0.9-1.7-0.6-3.1-1c2.2,1.9,5.5,3.6,8.2,3   C470.6,123.1,468.8,123.1,467.1,122.7z M488.3,107.8c-0.6-0.7-0.8-0.8-1.5-0.2C487.2,108.4,487.4,108.4,488.3,107.8z M459.3,120.6   c-0.5-1.8-1.1-1.5-2.4-1C457.9,120,458.4,120.3,459.3,120.6z M488.5,103c-0.7,0.1-1.1,1.4-0.2,1.2C489,103.9,488.9,103.4,488.5,103   z" />
	<path display="inline" fill="#EDC9B9" d="M516.9,29.1c8.6,11.1,14.7,24.6,23.4,35.5c6.2,6.2,18.1,11.6,18.3,21.2   c-3.5-0.1-5.3-4.1-8.5-5.4c1.2-0.5,0.6-1.8-0.6-1.8c-0.1,0.4-0.1,0.7-0.2,1c-14.4-11.4-22.9-33.5-34.7-49   C515.5,30.1,516.2,29.6,516.9,29.1z" />
	<path display="inline" fill="#F8DCD0" d="M501.1,19c-0.7-1.6-2.6-2.3-2.1-4.3c1.7-2.4,1.6-5.1,1.4-7.8c0.9,0.6,1.8,1.1,2.8,1.7   c0,2.1,0,4.1,0,6.3c2.1,1.2,4.4,2.2,7,2.6c-0.1-0.7-0.1-1.1-0.2-1.6c1.6-0.2,2.9,1.3,4.1,2.3c0,2.3-0.3,4.9,0.9,7.1   c-0.2,0.3-0.4,0.5-0.7,0.9C510,23.7,504.6,22.6,501.1,19z" />
	<path display="inline" fill="#EDC9B9" d="M544.4,101.4c-0.6,1-1.3,1.9-1.9,2.9c-0.3-1.5-1.4-0.3-1.7,0.5c-2.6,2.8-9.4,4-10.1,7.4   c-1,0-2,0-3.2,0c-0.2,0.6-0.4,1.1-0.5,1.6c-1.3-2.6-1.6-5.3-1.3-8.1c6.4-0.8,12-3.7,18-5.8C543.6,100.5,543.5,101.2,544.4,101.4z" />
	<path display="inline" fill="#0D0B0F" d="M519.1,245.6c-0.8,0-1.6,0-2.3,0c-0.7,1.8,0.5,2.9,0.1,4.9c-2-0.6-2.2-2.4-2.3-4   c0.3-0.5,0.6-1,1-1.6c2.3-0.5,4.7-1.1,7.1-1.6c2.6-3.3,1.7-7.5,2.6-11.4c2.9,2.4,0.5,7.3,0,10.7c4.5-0.3,8.7-2,12.7-3.9   c0.2-0.4,0.4-0.9,0.6-1.3c0.2,1.2,0.8,2.6,0.4,3.6c-0.5,1.3,0.7,2.2,0.3,3.3c-0.5-0.3-0.9-0.6-1.4-0.9c-0.4-1.7-1.1-2.2-2.7-1.3   c-0.9-0.1-1.1,1.7-2.3,0.7c-3.4,1.2-5.4,1.3-5.3,5.5c-1.6-0.2-1.3-1.9-1.4-3.1C523.8,244.4,521.6,246,519.1,245.6z" />
	<path display="inline" fill="#E9C4B5" d="M502.4,20.5c3.9,1.9,7.9,3.8,11.8,5.8c0.3-0.4,0.5-0.7,0.7-0.9c0.4,0.4,0.8,0.7,1.2,1.1   c0,0.2,0,0.4,0,0.6c-0.7,0.9-1.8,1.4-2.7,2C509.8,25.7,503.8,26.1,502.4,20.5z" />
	<path display="inline" fill="#E3C5B6" d="M511.2,94.8c-2.5,3.2-7.5,4.9-8.7,8.7c-0.6-1.6-1.3-3.2-1.9-5   C504,96.6,507.4,95.3,511.2,94.8z" />
	<path display="inline" fill="#161211" d="M525.7,105.6c0.3,3.3-1,6.2-0.8,9.6c-1.3-2.8-0.5-6.1-0.7-9c-2.8-3.3-2.9-3.6-1-5   C525.1,102.3,523.3,104.7,525.7,105.6z" />
	<path display="inline" fill="#3A3431" d="M484.5,94.8c-0.9,2.4-1.9,4.8-2.9,7.2c-0.2,0.1-0.4,0.1-0.6,0.2c-0.3-0.3-0.6-0.6-0.9-0.9   c1.2-2.7,2.4-5.3,3.6-8C483.9,93.9,483.7,94.6,484.5,94.8z" />
	<path display="inline" fill="#242123" d="M492.4,133.7c1.2-2,2.3-4,3.5-5.9c0.3,0.3,0.6,0.6,1,1c-0.6,2.3-2.1,4.1-3.6,5.9   C493,134.4,492.7,134,492.4,133.7z" />
	<path display="inline" fill="#332E2B" d="M524.3,94.1c-0.1,1.6,0,3.3-1.5,4.6c-0.3-2.2-0.6-4.3,0.6-6.3   C523.6,93.1,523.5,93.9,524.3,94.1z" />
	<path display="inline" fill="#251420" d="M525.7,271.5c1,0.1,1.9,0.1,2.9,0.2c0,0.2,0,0.4,0,0.7c-2.6,0-5.1,0.3-7.7-0.6   C522.5,271.7,524.1,271.6,525.7,271.5z" />
	<path display="inline" fill="#624E48" d="M513.5,28.9c0.7-0.4,1.4-0.9,2-1.3c0.6,0.4,1.1,0.9,1.4,1.5l0,0c-0.7,0.5-1.5,1-2.2,1.4   C514.3,30,513.9,29.5,513.5,28.9z" />
	<path display="inline" fill="#454340" d="M545.9,76c0.5,1,2.6,1.9,1.4,3c-0.8-0.7-1.6-1.4-2.4-2.1C545.2,76.6,545.5,76.3,545.9,76z   " />
	<path display="inline" fill="#FBDFD3" d="M482.3,372c1,0.1,2,0.3,3.3,0.5c-6.8,11.5-9.9,23.9-6.8,37.1   c-3.9,18.1-20.6,31.5-21.1,51.1c-3.6,0.2-2,6.8-2.8,10.1c0.4,0.5,0.8,0.9,1.4,1.4c-0.4,0.8-0.9,1.6-1.4,2.5   c0.2,0.7,0.5,1.4,0.8,2.1c-3.6,2.1-8.3,1.4-12.3,0.6c1.8-13.3,3.7-26.5,5.1-39.8c-0.6-15.8-0.3-32.1,7.3-46.4   c9.2-11.3-3.2-5.3,1.8-13.8c0.7,2.8,2.3,4.7,4.8,6.2c1.5-3.6-1-6.8,0.1-10.3c5.4-3.2,5.9-2.9,11.2-0.4c3.4,3.4-2.3,10.2-2.8,14.2   c6.2-3.2,4.3-8.4,6.3-13.5c0.6,0.7,1.2,1.3,2.4,1.2c0-2.4-2.9-2.8-4.3-4.3C477.8,369.1,481.2,369.5,482.3,372z M467.7,393.3   c-2.5,2.2-2.8,5.7-2.7,8.9l0,0c-1.8,3.2-0.3,7.8-0.8,11.5c0,0.8,0,0.8,1.4,2.5c3.4-3.3,2.3-9.5,3.8-14.1c1.3-4.4,4.6-8.3,1.3-12.9   C468.6,389,468.6,391.9,467.7,393.3z M456,459.4c1.2-1.3,0.9-2.6,0.7-4.4C455,456.6,455.6,458,456,459.4z M464.3,420.3   c1.3,0.1,1.8-0.4,1.1-1.6C465,419.3,464.6,419.8,464.3,420.3z M457,447.3c0.2,0,0.3,0,0.5,0c0.5-0.9,0.2-1.4-0.1-2.6   C456.7,445.8,456.8,446.3,457,447.3z M456.6,452.8c0.6-1.1,0.9-1.9,0.1-2.8C456.1,450.8,455.8,451.6,456.6,452.8z M457.9,443.2   c0.1,0,0.3,0,0.4,0c0-0.6,0-1.2,0-1.8c-0.1,0-0.3,0-0.4,0C457.9,442,457.9,442.6,457.9,443.2z" />
	<path display="inline" fill="#E4E4EB" d="M441.2,501.1c2.9-0.9,7.7,0.3,9.3-2.7c-4.5-3-11.2,1.1-16.4,0.1c0-0.4,0.1-0.8,0.1-1.4   c5.6-1,11.7-0.3,16.8-2.4c-1.5-3.5-8.4-0.1-11.7-1.8c1.9-4.9-2.1-8.2-2.5-12.6c4-0.7,7.9-0.6,11.9,1.1c0.4,1.5,0.8,3.2,1.3,4.8   c2.1,0.6,1.2-2.1,1.3-3.4c6.2,2.6,4.6-1.3,7.5-4.5c3.6,5.2-2.2,9.5-2.9,14.4c-2.9,9.7,4.9,19.3,1.7,29.2c-1.4,1.3-0.9,2.9-0.6,4.4   c-1.2,3.2-2.7,6.3-4.8,9.1c-2.2,0.4-4.4,0.7-6.6,1.1c-5.8-2.5-6.2-10.4-8.9-15.5c-2.5-6.2-5.5-12.9-1.7-19.3   c1.5,0.3,2.8-0.5,3.9,0.6c-1,0.4-2.3,0.5-2.8,2c0.9,0.4,1.9,0.7,2.8,1.1c-0.4,0.8-1,1.8-1.4,2.6c0.3,3.2,12.9,1,9.3-1.9   c-0.1-0.3-0.2-0.7-0.3-1.2c1.2-0.2,2.4-0.5,2.4-2c-1.3-2.3-4.8-0.7-7-1.1C441.8,501.6,441.5,501.3,441.2,501.1z M439.4,512.8   c1.9,2.4,7.8,2,9.2-1.2C445.6,509.6,442.2,511.7,439.4,512.8z" />
	<path display="inline" fill="#EDCABA" d="M470.2,371.1c-2.8-0.8-5.5,0.9-7.8,2.2c-1.1,3.5,1.4,6.7-0.1,10.3   c-2.5-1.5-4.1-3.4-4.8-6.2c-5.1,8.5,7.3,2.5-1.8,13.8c-7.6,14.3-7.9,30.7-7.3,46.4c-1.4,13.4-3.3,26.6-5.1,39.8c-0.8,0-1.6,0-2.7,0   c3.9-16.1,2.4-32.2,4.8-48.4c-0.6-14.7-2.4-29,7.2-41.7c-0.1-3.3,0.1-6.3,0.3-9.8c3.1-3,0.3-8.8,1.5-12.7c3.3-1.1,9-2,12.1-2   c0.6,0.9,1.3,1.6,2.5,1.3C468.2,366.6,468.9,368.9,470.2,371.1z M459.8,379.7c0.1-1.9,2-4.8-1-4.6   C459.2,376.6,458.5,378.1,459.8,379.7z" />
	<path display="inline" fill="#CDCDDB" d="M441.2,501.1c0.3,0.2,0.5,0.5,0.8,0.7c-0.9,0.7-2,0.6-3,0.6c-1.1-1.1-2.5-0.4-3.9-0.6   c-3.8,6.4-0.8,13.1,1.7,19.3c2.8,5.1,3.2,12.9,8.9,15.5c-2.6,0.8-4.9-0.2-7.3-1c-4.5-10.8-11.6-23.6-4.7-34.8   C436.1,501.3,438.8,501,441.2,501.1z" />
	<path display="inline" fill="#CAC9D7" d="M436.9,480.2c0.4,4.5,4.4,7.7,2.5,12.6c0.6,0.1,1.3,0.3,2,0.4c-1.7,0.8-3.4,0.6-5.4,0.6   c2.9-5.3-2.9-8.3-0.8-13.8C435.7,480,436.3,480.1,436.9,480.2z" />
	<path display="inline" fill="#524340" d="M455.6,462.2c-0.5-1.9,0.9-0.6,2-1.6c0.2,1.2,0.3,2.3-0.3,3.5   C455.9,464.1,456.6,462.4,455.6,462.2z" />
	<path display="inline" fill="#9D9CA0" d="M457.1,526.4c-0.3-1.5-0.9-3.1,0.6-4.4c0.3,0.5,0.5,1.1,0.9,1.9   C458.1,524.6,457.6,525.5,457.1,526.4z" />
	<path display="inline" fill="#D4E9E9" d="M454.1,481.5c-0.9,0.2-1.4-0.8-2.1-1.2c0.9-0.4,1.7-0.7,2.8-1.2c0,0.6,0,1.2,0,1.7   C454.6,481,454.3,481.3,454.1,481.5z" />
	<path display="inline" fill="#A9A6A6" d="M452,480.3c0.5,0.4,0.9,0.8,1.4,1.2c-0.9,0-1.7,0-2.6,0   C450.9,480.4,451.4,480.3,452,480.3z" />
	<path display="inline" fill="#A9A6A6" d="M454.1,481.5c0.3-0.2,0.5-0.4,0.8-0.7C454.9,481.4,454.7,481.6,454.1,481.5z" />
	<path display="inline" fill="#5A5656" d="M485.9,594.2c0,0.2,0,0.4,0.1,0.6c-0.6,0-1.3,0-1.9,0c0-0.1,0-0.3,0-0.4   C484.7,594.3,485.3,594.2,485.9,594.2z" />
	<path display="inline" fill="#4B65C5" d="M472.2,265.2c-3.9,18.7-2.1,37.7-7.7,56.1c1.2,1.7,2.5,3.5,3.8,5.4   c-1.6,0.9-2.6-1.7-3.9-2.4c-2.2,3.8-1.4,8.7-1.6,13.1c3.3,2.3,7.3,3.5,11.2,6.2c-4.3,0.2-6.8-2.9-10.8-4.2   c-1.6,7.3,1.9,14.3-0.8,21.5c2.1,0.6,4.3-0.3,6.2,0.9c-9.4-0.6-18.6-0.1-28,1.3c-0.3-5.1-1.6-9.9,1.4-14.4   c-0.4-0.2-0.9-0.5-1.2-0.6c0.9-12.2-0.2-24.2,1.9-36.5c5.3-1.3,10.6-2.6,16-3.4c-3.8-0.8-7.3-0.1-11,0.3c0.8-3.9,3.1-7.8,2.7-11.8   c-1.2,4-3,7.7-3.4,11.9c-1.2,0.4-2.4,0.9-3.6,1.3c5.8-9.6,3.2-21.6,8.6-31.8c1.2-0.5,0.5-1.7,1-2.6c0.6-0.3,1.4-0.6,2.2-0.9   c1.1-2.3,1.4-4.3,0.9-6.8C460.7,265.4,466.9,266,472.2,265.2z M446.1,316.3c-1.1,0.6-2.4,0.9-2.8,2.5c0.3,0.3,0.6,0.6,1.1,1.1   c1.4-1,2.7-1.9,3.9-2.9c0.9-0.1,1.7-0.1,2.6-0.2C451.1,314.5,447.4,315.9,446.1,316.3z M453.3,333.8c0.8,0.7,1.7,0.7,2.9,1   c-2-3-7.4-3.8-10.6-2.5C447.7,334.6,450.6,333.4,453.3,333.8z M443.9,335.9c0.3,1.2-0.3,2.6,0.8,3.6c0.1,3.5,1.5,7.1,1.2,10.5   c-0.6,0.2-1.2,0.4-1.8,0.7c0.6,2.3,3,1.5,4,2.9c0.1,0.1,0.4,0,0.7,0c0.3-0.7,0.6-1.4,1-2.1c-0.7-0.4-1.3-0.6-1.8-0.9   c-1.1-8.6-5.7-18-1.5-26.3c0.7-1.3,0.5-2.6,0.2-4.4C445,324.9,442,330.6,443.9,335.9z" />
	<path display="inline" fill="#4B65C4" d="M457.5,266.8c-0.5,0.3-1,0.7-1.4,1c0.4,2.5,0.1,4.5-0.9,6.8c-0.8,0.3-1.5,0.6-2.2,0.9   c-0.6,0.9,0.2,2.1-1,2.6c0-2.9,0-5.8,0-8.7c1.2-0.8,0.8-2.5,1.4-3.7c0.1,0.9,0.2,1.8,0.3,2.9c1.3-0.9,1.3-0.9,0.7-3.1   c-0.3,0.1-0.7,0.2-1,0.3c0.2-1.7-0.3-3.5,0.7-5.2c0.2,0.9-0.3,2.1,0.8,3.1c1.1-1.9,2.2-4.1,0.7-5.9c-0.6,0.9-1,1.5-1.4,2.2   c-0.4-1.8,0.5-3.2,2.3-3.7c0.3,0.1,0.6,0.2,1,0.4c-0.4,1.2-0.7,2.4-0.2,3.7c0.5-1.4,0.9-2.6,1.4-3.9c9.3,1.5,18.8,1.4,28.1,2.8   c-2.3,0-4.5,0-6.6,0c-2,2.9,1.4,5.9,0.7,9.2c-1.5,10-1,20.7-4.6,30.4c-3.8-9.9,1.6-23.4-3.4-33.6c0.4-0.3,1.1-0.4,1.1-1.4   C468.9,264,461.2,264.2,457.5,266.8z" />
	<path display="inline" fill="#E4C2B3" d="M481.5,370.5c-2.9-1.6-5.6-0.2-8.6,0.2c-1.8-1.9-2.3-4.3-2.8-6.7c4.2,0,7.9-0.4,11.2,3.1   C481.4,368.4,481.5,369.4,481.5,370.5z" />
	<path display="inline" fill="#161728" d="M447.6,308.3c3.7-0.4,7.2-1.1,11-0.3c-5.4,0.8-10.7,2.1-16,3.4   C442.2,309.1,446.1,309,447.6,308.3z" />
	<path display="inline" fill="#1C1716" d="M470.1,364.1c0.1,3.4,3,5.7,3.4,8.8c-1.5,0.1-2.2-1.2-3.4-1.8c-1.3-2.2-2-4.5-1.1-7   C469.4,364.1,469.8,364.1,470.1,364.1z" />
	<path display="inline" fill="#090608" d="M506.3,249.3c0,0.2,0,0.4,0,0.6c-0.3,0.5-0.6,1-0.9,1.5c-0.4-0.9-0.8-1.7-1.3-2.8   c-2.5,0-5.1-0.1-7.7,0.3c-0.2,0.8-0.4,1.6-0.7,2.4c-1.4-0.2-0.9-1.8-1.8-2.5c-2.3-0.1-4.8-0.2-7.3-0.3c-1.8-1.1-4.7-0.4-6.7-1.2   c-1.1,0.9-0.1,2.4-1.4,2.9c-0.6-0.9-0.7-1.9-0.2-3c-0.7-0.3-1.3-0.5-1.9-0.7c-1.2-1.5-3-0.3-4.6-1.3c-0.2,0.4-0.5,0.8-0.8,1.4   c-0.5-1.8-1.2-2.9-2.9-2.7c0.1,0.8,0.2,1.5,0.3,2.4c-2.9-3.5,0.4-3.4-5.1-5.7c0.1-0.6,0.1-1.2,0.9-1.3c4.9,3.6,13.3,6.4,19,6.2   c-0.1-0.8-0.3-1.6-0.4-2.5c0.2-0.5,0.5-1,0.7-1.6c0.7,1.6,1.3,3.2,2,4.9c7.1,0.4,14.1,1.3,21.3,1.6c-0.1,0.2-0.1,0.5-0.1,0.7   C506.7,248.7,506.5,249,506.3,249.3z" />
	<path display="inline" fill="#B7BDD5" d="M439.3,163.4h0.3C439.5,163.4,439.4,163.4,439.3,163.4z" />
	<path display="inline" fill="#B7BDD5" d="M440.6,163c0-0.2,0.2-0.3,0.4-0.3l-0.1,0.3H440.6z" />
	<path display="inline" fill="#4B65C5" d="M496.2,336.7c-0.1-0.2-0.3-0.4-0.4-0.5c-7.2,4.5-9.9,5.8-12.6,5.9   c4.3-4.8,9.9-6.8,14.9-10.8c0.1-0.6,0.1-1.3,0.2-2C500,331.6,498,335,496.2,336.7z" />
	<path display="inline" fill="#110E1A" d="M500.4,329.2c0.3,0.6,0.7,1.2,1,1.9c3.7-1.1,7,2,10.7,1.2c-3.5,2-7.2,0.5-11,0.7   C500.4,331.9,500.3,330.6,500.4,329.2z" />
	<path display="inline" fill="#374884" d="M502.7,341.5c2.9,0.2,4,2.4,6.5,4.3c-2.3-0.2-3.7-1.3-5.8-2   C502.9,343.1,502.4,342.4,502.7,341.5z" />
	<path display="inline" fill="#17182A" d="M496.9,325.1c-1.2,0.5-2.5,1-3.7,1.4c-0.6-0.2-1.3,0-1.5-0.8c1.4-0.5,2.9-0.9,4.3-1.4   C496.3,324.5,496.6,324.8,496.9,325.1z" />
	<path display="inline" fill="#4B65C5" d="M499.8,320.1c0.2-0.3,0.4-0.6,0.6-0.9C500.2,319.5,500,319.8,499.8,320.1z" />
	<path display="inline" fill="#9D8F86" d="M487.4,368.9c-1.5,1.1-3.1,2.2-5.1,2.3v0.1c0-1.2,0.1-2.3,0.1-3.6   c1.9-0.4,3.5-0.3,4.9,0.7C487.4,368.6,487.4,368.7,487.4,368.9z" />
	<path display="inline" fill="#A39B93" d="M487.4,368.9c0-0.2,0-0.3,0-0.5c0.4,0,0.8,0,1.2,0c0,0.2,0,0.3,0,0.5   C488.2,368.9,487.8,368.9,487.4,368.9z" />
	<path display="inline" fill="#9D8F86" d="M482.3,372c-0.5-0.1-0.7-0.4-0.5-0.9c0.2,0,0.4,0.1,0.6,0.2v-0.1   C482.3,371.4,482.3,371.7,482.3,372z" />
	<path display="inline" fill="#EAD1C6" d="M327,75.9c-0.5,1.8-2.5,0.4-3.6,0.1c0.7-1.2,0.7-1.2-0.7-1.2c-1.9-1.3-1.6-4.6-2.3-6.8   c-0.2-1.5,0.4-2.1,2.7-2.6c1,3.5,0,8,2.8,10.7C326.3,76,326.7,75.9,327,75.9z" />
	<path display="inline" fill="#E3CABF" d="M324.7,63.4c0.4-0.3,0.7-0.5,1.1-0.9c0.6,0.4,1.3,0.9,1.7,1.1c-0.1,3.8,1.8,7.4-1.6,10.1   c-0.3-0.6-0.9-1.2-0.8-1.6C326,69.3,324.6,66.4,324.7,63.4z" />
	<path display="inline" fill="#2E2726" d="M322.7,74.7c1.4,0,1.4,0,0.7,1.2c-0.7,0-1.4,0.1-2.1,0.1c-0.1-0.2-0.2-0.4-0.3-0.6   C321.6,75.2,322.2,75,322.7,74.7z" />
	<path display="inline" fill="#353230" d="M332.2,65.2c0.2-0.6,0.3-1.2,0.5-1.8C332.9,64.1,333,64.8,332.2,65.2z" />
	<path display="inline" fill="#DDC5BA" d="M515.6,11.8c0,0.3-0.1,0.6-0.1,1c-0.4,0-0.7,0-1.1,0c0,0.7-0.1,1.4-0.1,2.1   c-1,1.1-1.7,0.1-2.7-0.3c0.3-0.4,0.5-0.7,0.9-1.2c-0.7-0.4-1.4-0.8-2.2-1.2c0.2-1.8,0.8-3.5,1.1-5.3c2.2-0.4,4.2,1.1,6.4,1.3   c0.3,0.9,0.6,1.9,0.9,2.8c-0.3,0-0.7,0.1-1,0.1c-0.3-0.2-3.4-1.5-3.6-1.4c0,0.3,0,0.8-0.1,1.1C514.6,11.2,515.1,11.5,515.6,11.8z" />
	<path display="inline" fill="#EBD4C8" d="M505.4,10.4c0.1-3.2,0.1-3.2,1.8-6.3c1.2,0.5,2.5,0.8,3.5,2c-0.1,0.2-0.2,0.4-0.2,0.6   c-1.2,2.5-2.9,4.8-1.4,7.3c-0.9,0.3-1.5-0.1-2.2-0.8c1-1.5-0.4-1.8-1.3-2.9L505.4,10.4z" />
	<path display="inline" fill="#F1D7CB" d="M499.7,5.3c0.5,2.2-1.3,3.7-3.4,2.7c-0.6-2,0.4-3.7,0.7-5.6C499.1,2,500.4,3.3,499.7,5.3z   " />
	<path display="inline" fill="#E2CCC1" d="M501.8,3.7C503,3,504,3.2,505.1,4c-0.5,2.2-0.5,2.2-1.8,2.8c-0.7-0.6-1.5-1.2-2.3-1.9   C501.3,4.5,501.6,4.1,501.8,3.7z" />
	<path display="inline" fill="#E9C5B5" d="M514.1,21.9c0-1.2,0-2.5,0-3.6c-0.6-0.5-1-0.9-1.4-1.2c0.6,0,1.1,0,1.9,0   c0.2,1.1-0.3,2.2,0.9,2.7c-0.2,0.6-0.4,1.2-0.7,1.9C514.6,21.7,514.4,21.8,514.1,21.9z" />
	<path display="inline" fill="#CBAB9E" d="M509,13.3c-1-1.3-1-1.5-0.1-2.9C508.9,11.3,509,12.3,509,13.3z" />
	<path display="inline" fill="#CBAB9E" d="M506.3,11.1c1.1,0.9,1.1,0.9,0.6,2.1C505.6,12.8,506.5,11.8,506.3,11.1z" />
	<path display="inline" fill="#3F3231" d="M511.1,8.2c-0.2,0.5-0.3,1-0.5,1.6C510.5,9.2,510.4,8.6,511.1,8.2z" />
	<path display="inline" fill="#CBAB9E" d="M508.1,14.1c0.3,0,0.6-0.1,1-0.1c0,0.2,0.1,0.4,0.1,0.6C508.8,14.4,508.5,14.3,508.1,14.1   z" />
	<path display="inline" fill="#CBAB9E" d="M505.6,10.3c0.2,0.2,0.4,0.4,0.6,0.6C506,10.7,505.8,10.5,505.6,10.3z" />
	<path display="inline" fill="#3F3231" d="M510,7.5c0.2-0.3,0.3-0.5,0.5-0.8C510.3,7,510.1,7.2,510,7.5z" />
	<path display="inline" fill="#CBAB9E" d="M507,13.2c0.2,0.2,0.4,0.4,0.7,0.6C507.4,13.6,507.2,13.4,507,13.2z" />
	<path display="inline" fill="#EFD5CA" d="M311.7,76.7c1.7-4.2,4.3,2.4,5.9,3.7c0,1.1-0.1,2.1-1.3,2.9C313.7,82,313,79.1,311.7,76.7   z" />
	<path display="inline" fill="#5B504C" d="M317.6,80.5c-0.9-1.2-1.9-2.5-2.8-3.7c0.3-0.3,0.6-0.6,0.8-0.9c0.8,0.9,1.3,2.2,2.6,2.7   c0.2,0.1,0.2,0.6,0.3,1C318.2,79.9,317.9,80.2,317.6,80.5z" />
	<path display="inline" fill="#4A63C2" d="M463.5,240.5c0.5,0.2,0.9,0.5,1.4,0.7c-0.4,2-1.6,4.6,0.6,6c0.1-1.5,0.2-2.9,0.4-4.3   c0.5-0.1,0.8-0.1,1.2-0.2c0,1.2,0.2,2.3,1.4,3.4c-0.1-0.9-0.2-1.6-0.3-2.4c1.7-0.2,2.4,0.9,2.9,2.7c0.3-0.6,0.6-1,0.8-1.4   c0.7,0.2,1.2,0.4,1.8,0.6c0,1.2-0.6,2.6,0.9,3.9c0-1.2,0-2.1,0-3.1c1.6-0.1,2.5,0.1,3.8,0.7c-0.1,3.3,0,6.8,1,10   c-6.8-1.5-14.8,0.3-21-2.7c-1.1,1.1-2.1,2.2-3.6,2.8c1.3-3.6,5.8-5.3,6.6-9.2c0.4-0.4,0.8-0.8,1.2-1.2c-0.4-0.3-0.6-0.5-1.1-0.8   C462.6,244.3,462.2,242.2,463.5,240.5z" />
	<path display="inline" fill="#4B65C5" d="M454.1,260c0.4-0.7,0.8-1.3,1.4-2.2c1.6,1.8,0.4,3.9-0.7,5.9   C453.8,262.6,454.1,261.2,454.1,260z" />
	<path display="inline" fill="#100F0E" d="M444.8,418.6c0.9,4.4,0.9,9.1,0,13.5C444.8,427.6,444.8,423.1,444.8,418.6z" />
	<path display="inline" fill="#211D1C" d="M444.7,409.4c0,1.9,0,3.9,0,5.8c-0.2,0-0.4,0-0.7,0c0-1.9,0-3.8,0-5.8   C444.2,409.4,444.4,409.4,444.7,409.4z" />
	<path display="inline" fill="#100F0E" d="M444,415.2c0.2,0,0.4,0,0.7,0c0,0.2,0,0.5,0,0.7C444.5,415.7,444.2,415.4,444,415.2z" />
	<path display="inline" fill="#B3998D" d="M497.4,8.3c0.5-0.1,1-0.1,1.4-0.2c-0.1,0.9-0.2,1.8-0.3,2.8C496.2,10.7,498,9.3,497.4,8.3   z" />
	<path display="inline" fill="#070506" d="M492.4,133.7c0.3,0.3,0.6,0.6,0.9,1c-11.5,20.9-40.1,3.8-43.6-14.6c0.2-0.5,0.5-1,0.7-1.5   C455.4,135.6,479,151.2,492.4,133.7z" />
	<path display="inline" fill="#B6BCD3" d="M489.5,246.4c-1.3-0.1-2.5-0.1-3.8-0.2c-2.6-4.6-2.9-10-5.5-14.3   c-0.2-1.2,0.5-3.8-1.5-3.6c0.4-0.4,0.7-0.8,0.9-1c-0.3-0.4-0.6-0.8-1-1.2c1.8-0.6,1.5-2.8,0-4.3c0-1.6-0.1-3.3,0.1-5   c2,1.3,2.3,1.9,2.8,3.6C483.1,229.4,487.6,237.7,489.5,246.4z" />
	<path display="inline" fill="#B7BDD5" d="M480.9,144.6c1.5-1.2,3.4-1.3,5.1-2.2c2.1,7.5,6.9,12.6,12.4,17.9   c-5.4,2.2-9.8-3.5-13.2-7c0.8-0.6,0.2-2.5-1-3.1c-0.2,0.3-0.3,0.5-0.5,0.8C478.5,145.8,482.8,147.2,480.9,144.6L480.9,144.6z" />
	<path display="inline" fill="#221D20" d="M490.3,171.2c0.4-0.2,0.8-0.4,1.2-0.6c3.5,2.2,6.9,4.3,10.3,6.5c0,0.3,0,0.5,0,0.8   c-4.4-1-7.6-4.1-11.6-5.9C490.3,171.7,490.3,171.4,490.3,171.2z" />
	<path display="inline" fill="#61626C" d="M496,205.9c1.1,3.8,1.7,7.6,3.5,11.2c-3.7-1.2-3.4-7.7-4.1-11.2   C495.6,205.8,495.8,205.8,496,205.9z" />
	<path display="inline" fill="#29272B" d="M522,147.4c0.8-1.5,0.6-3.6,2.5-4.7c0.3,0.2,0.7,0.4,1.2,0.7c-0.9,1.8-1.6,3.5-3,4.8   C522.5,147.9,522.3,147.6,522,147.4z" />
	<path display="inline" fill="#2E4176" d="M506.9,248.5c0-0.2,0-0.5,0.1-0.7c2.6-0.3,5.1-0.6,7.7-0.9c0.1,0.5,0.2,1,0.3,1.6   C512.2,248.5,509.5,248.5,506.9,248.5z" />
	<path display="inline" fill="#343339" d="M489.7,187.9c0-2.5-2.6-5.1-0.3-7.1c1.3,1.3,1.1,3,1.1,4.6   C490.1,186.2,490.7,187.3,489.7,187.9z" />
	<path display="inline" fill="#211E21" d="M527.8,167.6c0.1-1,0.2-2.1,0.3-3.3c3.4-0.5,1.3,3.3,0.5,4.9   C527.7,168.9,527.9,168.1,527.8,167.6z" />
	<path display="inline" fill="#54535B" d="M522,147.4c0.3,0.3,0.5,0.6,0.8,0.8c0,2.3-1.3,3.8-3.8,5.3   C520.2,151,521.1,149.2,522,147.4z" />
	<path display="inline" fill="#322F33" d="M524.6,221.2c1.7,1,1,4.1,1.7,6C524,225.2,523.6,223.7,524.6,221.2z" />
	<path display="inline" fill="#131416" d="M490.3,171.2c0.4,2-3.8,2.2-4.4,0.8C487.4,171.4,488.7,170.2,490.3,171.2z" />
	<path display="inline" fill="#282125" d="M506.3,180.5c1.6,0.8,2.8,2.1,3.6,3.7c-0.3,0.3-0.5,0.5-0.8,0.8c-1.2-1.2-2.4-2.4-3.7-3.6   C505.7,181.1,506,180.8,506.3,180.5z" />
	<path display="inline" fill="#3A3C42" d="M489.7,187.9c1-0.6,0.4-1.6,0.7-2.4c0.5,2,1,4,1.5,6c-0.2,0.2-0.5,0.5-0.7,0.7   C490.6,190.7,490.1,189.3,489.7,187.9z" />
	<path display="inline" fill="#342B30" d="M455.5,163.4c0.1-0.3,0.1-0.6,0.2-1.2c1.7,0.4,3.3,0.6,4.7,1.8   C458.7,164.5,457,164.3,455.5,163.4z" />
	<path display="inline" fill="#302A2E" d="M514.7,192.4c-0.8-1.3-3-1.9-2-3.6c1.4,1,2.1,2.3,3,3.5   C515.4,192.3,515.1,192.3,514.7,192.4z" />
	<path display="inline" fill="#494A51" d="M530.6,184.2c-0.7,1.3-1.6,1.7-2.8,2.1C528.9,184.1,528.9,184.1,530.6,184.2z" />
	<path display="inline" fill="#161314" d="M478.7,221.8c1.5,1.5,1.8,3.6,0,4.3C478.7,224.7,478.7,223.3,478.7,221.8z" />
	<path display="inline" fill="#5C5C67" d="M483.6,151.1c0.2-0.3,0.3-0.6,0.5-0.8c1.3,0.6,1.9,2.5,1,3.1   C484.3,152.8,483.8,152.1,483.6,151.1z" />
	<path display="inline" fill="#787B88" d="M491.1,192.1c0.2-0.2,0.5-0.5,0.7-0.7c0.9,1,1.3,2.1,1.3,3.7   C491.7,194.4,491.5,193.2,491.1,192.1z" />
	<path display="inline" fill="#46474F" d="M478.7,228.3c2-0.2,1.3,2.3,1.5,3.6l0,0c-0.2,0-0.5-0.1-0.7-0.1   C479.2,230.6,479,229.5,478.7,228.3z" />
	<path display="inline" fill="#282429" d="M482.4,238.3c0.4,1,0.9,2,1.3,3c-0.2,0.5-0.5,1-0.7,1.6c-0.4-1.3-0.7-2.5-1.1-3.8   C482,238.8,482.2,238.5,482.4,238.3z" />
	<path display="inline" fill="#54444B" d="M515.6,245c-0.3,0.5-0.6,1-1,1.6c-0.9-0.1-1.8-0.2-2.9-0.3   C512.9,244.8,514.3,244.8,515.6,245z" />
	<path display="inline" fill="#45474D" d="M496,205.9c-0.2,0-0.4,0-0.6,0c-0.4-1.5-0.2-3,0.1-5.1C496.6,202.9,496,204.3,496,205.9z" />
	<path display="inline" fill="#69707B" d="M509.1,185c0.3-0.3,0.5-0.5,0.8-0.8c0.9,0.7,1,1.6,1.3,2.8   C509.6,187,509.6,185.7,509.1,185z" />
	<path display="inline" fill="#40484F" d="M485.9,172c0.2,0.9,1,0.6,1.6,0.8c-1.1,0.9-2.3,0.7-4.1,0.4   C484.6,172.7,485.2,172.3,485.9,172z" />
	<path display="inline" fill="#574A52" d="M522,176c-0.5,0.2-1.1,0.5-1.8,0.8C519.7,175.1,522.2,174.2,522,176z" />
	<path display="inline" fill="#2D2E32" d="M532.5,176.9c0.9,2.1,0.4,3-0.9,3.8C531.3,179.4,532,178.5,532.5,176.9z" />
	<path display="inline" fill="#514B52" d="M480.6,175.5c0.4,1.6-0.2,2.2-1,2.8C478.9,177.2,479.3,176.4,480.6,175.5z" />
	<path display="inline" fill="#3F454C" d="M527.8,167.6c0.2,0.6,0,1.3,0.8,1.5c-0.3,0.5-0.6,0.9-1.1,1.8   C526.9,169.3,527.1,168.4,527.8,167.6z" />
	<path display="inline" fill="#352E33" d="M479.5,180.3c-0.1,0.7-0.2,1.5-0.4,2.6C478,181.7,478.4,181,479.5,180.3z" />
	<path display="inline" fill="#322629" d="M512.7,155.7c0.5-0.6,1.1-1.1,2-2.1c0.2,1.9-0.3,1.8-1.5,2.6   C513,156,512.8,155.8,512.7,155.7z" />
	<path display="inline" fill="#74818E" d="M514.7,192.4c0.4,0,0.7-0.1,1.1-0.1c0.3,0.3,0.6,0.7,1.1,1.1   C515.6,193.7,515.2,193,514.7,192.4z" />
	<path display="inline" fill="#61555E" d="M506.3,180.5c-0.3,0.3-0.6,0.6-0.9,0.8c-0.4-0.3-0.8-0.6-1.2-1   C505.1,179.6,505.8,179.8,506.3,180.5z" />
	<path display="inline" fill="#9599A9" d="M524.9,173.8c-0.7,0.4-1.2,0.6-1.7,0.9C523.2,173.4,523.2,173.4,524.9,173.8z" />
	<path display="inline" fill="#716D78" d="M501.8,177.9c0-0.3,0-0.5,0-0.8c0.5,0.3,0.9,0.6,1.4,1   C502.6,178.7,502.1,178.5,501.8,177.9z" />
	<path display="inline" fill="#070506" d="M480.8,144.5c0.9,1,0.9,1.1,0.1,2.1C480.9,145.9,480.9,145.2,480.8,144.5z" />
	<path display="inline" fill="#686C75" d="M498.3,222.1c0-0.5,0-1,0-1.5c0.1,0,0.2,0,0.4,0c0.1,0.5,0.2,1,0.2,1.5   C498.7,222.1,498.5,222.1,498.3,222.1z" />
	<path display="inline" fill="#23272A" d="M482.4,238.3c-0.2,0.3-0.4,0.5-0.6,0.8c-0.3-0.7-0.7-1.5,0.4-1.9   C482.3,237.5,482.3,237.9,482.4,238.3z" />
	<path display="inline" fill="#4A3338" d="M508.1,157.8c0.9-0.1,1.4-0.2,2.6-0.3C509.6,158.6,509,158.5,508.1,157.8z" />
	<path display="inline" fill="#B6BCD3" d="M479.5,231.8c0.2,0,0.5,0.1,0.7,0.1c-0.1,0.2-0.3,0.3-0.4,0.5   C479.6,232.2,479.5,232,479.5,231.8z" />
	<path display="inline" fill="#EAC7B7" d="M424.9,134.4c0.1,0.3,0.3,0.5,0.4,0.8l-0.1,0.2c-0.8,0.1-0.5,0.6-0.4,1l-0.2,0.2   c-5,1.7-10.1,4-15.8,3.5c0,0.4-0.1,0.6-0.1,0.8c-1.9-0.3-4.3,0.8-5.7-0.8c1.2-0.2,3.8,0.6,3.2-1.5c-1.2,0.3-2.6-0.2-3.2,1.5   c-3.1,0.4-7-1.5-9.4-2.9c0.7,0,1.4,0,2.1,0c-0.1-0.5-0.1-0.9-0.2-1.2c8.7-0.4,19,4.3,26.9-1.6C423.2,134.4,424.1,134.4,424.9,134.4   z M398.1,137.5c0,0.2,0,0.4,0,0.6c0.5-0.1,1-0.2,1.5-0.2c0-0.1,0-0.3,0-0.4C399.1,137.5,398.6,137.5,398.1,137.5z" />
	<path display="inline" fill="#E7C6B7" d="M327.8,94.8c-2.2-2.8-4.7-1.8-5.8-6.3c0.5-0.8,1.1-1.6,1.6-2.5c2.3,0.9,4.3,3.1,6.4,4.5   c-0.2,0.4-0.3,0.8-0.5,1.2c0.7,0.4,1.1,0.3,1.8,0.2c0,0.7,0,1.4,0.1,2.1c-0.3,0.3-0.5,0.5-0.8,0.8c-0.6,0-1.1,0-1.4,0.7   C328.8,95.3,328.3,95,327.8,94.8z M328.6,92.4c-1.5-2.8-2.5-3.6-4.5-3.9C324.9,90.5,326.1,91.7,328.6,92.4z" />
	<path display="inline" fill="#140E0D" d="M408.7,140.9c0-0.2,0.1-0.5,0.1-0.8c5.7,0.5,10.7-1.8,15.8-3.5c1.2,2.4-2.3,3.1-2.2,5.3   c-0.7,0-1.3-0.8-1.8-0.8C416.6,142.5,412.7,141.2,408.7,140.9z" />
	<path display="inline" fill="#312B29" d="M443.3,115.6c0,0.5,0,1,0,1.5c-2.7-0.3-3.6-4-6.5-4.3c0-1.1,0.9-0.7,1.5-0.9   C440.5,112.5,442.1,114.1,443.3,115.6z" />
	<path display="inline" fill="#7E6F67" d="M424.6,132.1c-0.1,0.4-0.1,0.7-0.2,1.1c-2.3-2.3-4.6-4.5-6.9-6.8c0-0.3,0-0.7,0-1.4   C420.3,127.3,422.6,129.6,424.6,132.1z" />
	<path display="inline" fill="#1D1514" d="M367.6,120.6c1.6,0.6,3,1.3,2.9,3.3c-1.8,1.4-2.7-1.5-3.8-2.4   C367,121.2,367.3,120.9,367.6,120.6z" />
	<path display="inline" fill="#282220" d="M327.8,94.8c0.5,0.2,1,0.5,1.5,0.7c0.5,1.5,0.9,3,1.4,4.4l0.1-0.1   C329.1,98.9,326.6,96.8,327.8,94.8z" />
	<path display="inline" fill="#4E4541" d="M324.6,81.9c-1.3-1.4-1.2-2.2,0.8-4.2C326.1,79.4,325.6,80.6,324.6,81.9z" />
	<path display="inline" fill="#43302E" d="M330.7,94.8c0.3-0.3,0.5-0.5,0.8-0.8c1.4,0.5,1.7,1.8,2.1,3   C331.9,96.7,331.9,96.7,330.7,94.8z" />
	<path display="inline" fill="#3E3230" d="M364.8,119.5c-0.5,0.2-0.8,0.3-1.3,0.5c-0.6-0.8-1.2-1.7-1.8-2.5   C363.2,116.2,363.9,118.6,364.8,119.5z" />
	<path display="inline" fill="#4F3532" d="M367.5,137.6c1.2-0.2,2.1-1.2,3.4-0.8c0,0.2,0,0.4,0.1,0.5c-1,0.9-2.1,1.5-3.5,1.3   C367.6,138.3,367.5,137.9,367.5,137.6z" />
	<path display="inline" fill="#412E2C" d="M330.6,90.4c0.1-0.7,0.7-0.9,1.3-1.2c0.5,0.7,0.7,1.3,0.2,2c-0.2,0-0.4,0-0.6,0.1   C331.2,91,330.9,90.7,330.6,90.4z" />
	<path display="inline" fill="#614944" d="M413.1,120.9c0.9,0.5,1.7,1,3.3,2c-1.4,0-2,0-2.6,0C413.5,122.2,412.8,121.7,413.1,120.9z   " />
	<path display="inline" fill="#301E1D" d="M360.6,117c-0.6-0.7-1-1.2-1.7-1.9C360.8,115.3,360.8,115.3,360.6,117z" />
	<path display="inline" fill="#272423" d="M324.1,86c-0.1,0-0.3,0-0.4,0l0,0c-0.1-0.7-0.1-1.4-0.2-2.1c0.8-0.8,1,0.1,1.4,0.5   C324.6,85,324.3,85.5,324.1,86C324.1,86.1,324.1,86,324.1,86z" />
	<path display="inline" fill="#342826" d="M330.7,99.9c1.7,0.3,1.7,0.3,1.3,2C330.9,101.6,330.5,100.9,330.7,99.9L330.7,99.9z" />
	<path display="inline" fill="#594B46" d="M395.5,136c0.1,0.3,0.1,0.7,0.2,1.2c-0.7,0-1.4,0-2.1,0c0-0.2,0-0.3,0-0.5   C394.2,136.5,394.8,136,395.5,136z" />
	<path display="inline" fill="#785652" d="M367.6,120.6c-0.3,0.3-0.6,0.6-1,0.9c-0.4-0.4-0.9-0.7-1.4-1.1   C366.3,119.7,367,119.9,367.6,120.6z" />
	<path display="inline" fill="#6B6059" d="M330.6,90.4c0.3,0.3,0.6,0.6,0.9,0.9c-0.1,0.2-0.1,0.4-0.1,0.6c-0.7,0.1-1.1,0.2-1.8-0.2   c0.2-0.4,0.3-0.8,0.5-1.2C330.2,90.5,330.4,90.4,330.6,90.4z" />
	<path display="inline" fill="#E7C6B7" d="M323.4,84c0.1,0.7,0.1,1.4,0.2,2.1C322.5,85.2,322.5,85.2,323.4,84z" />
	<ellipse display="inline" fill="#372D2B" cx="389.6" cy="135.5" rx="1.1" ry="0.4" />
	<path display="inline" fill="#453230" d="M337.6,108.1c-0.2-0.7-0.6-1.2-0.5-1.5C337.8,105.9,338.2,107.2,337.6,108.1z" />
	<path display="inline" fill="#200909" d="M334.9,103.2c0.1,0.9,0.1,1.4,0.3,2.4C334,104.7,334,104.2,334.9,103.2z" />
	<path display="inline" fill="#E7C6B7" d="M324.1,86.1c0.2-0.5,0.5-1,0.7-1.6C324.9,85.2,325.1,85.9,324.1,86.1z" />
	<path display="inline" fill="#674845" d="M429.6,111.1c-0.5,0.5-0.8,0.3-1.2-0.1C428.9,110.7,429.2,110.7,429.6,111.1z" />
	<path display="inline" fill="#EAC7B7" d="M395.1,136c-0.5,0.2-1.1,0.5-1.6,0.7C393.7,135.8,394.4,135.9,395.1,136z" />
	<path display="inline" fill="#E7C6B7" d="M331.4,91.9c0-0.2,0-0.4,0.1-0.6c0.2-0.1,0.4-0.1,0.6-0.1   C331.9,91.4,331.6,91.6,331.4,91.9z" />
	<path display="inline" fill="#251E1D" d="M449.8,79.7c-0.3-0.1-0.7-0.2-1-0.3c1.1-1.6,1.1-1.6,6.4-4.2c-2.4,0.1-4.2,0.2-6,0.3   c0-0.3,0-0.6,0-0.9c2.6-1.2,5.2-2.2,8.6-2.1c0.3,0.4,0.8,1,1.3,1.6C457.3,78.3,453.3,78.5,449.8,79.7z" />
	<path display="inline" fill="#241B1A" d="M473.8,70.4c0.9,0.3,1.8-0.1,2,1.1c-2.3,0.8-4.7,1.5-7.1,2.3c-0.6-0.4-1.1-0.9-1.7-1.3   c-0.6,0.1-1.3,0.2-2.2,0.3c0-0.8,0-1.6,0-2.6c2.9-1.9,6-3.1,9.5-2.8c-0.3,0.3-0.5,0.5-0.8,0.8c-1,0-1.6,0.6-2.1,1.3   c-2.3,0.7-2.3,0.7-3,1.9C470.2,71.2,472.1,71.2,473.8,70.4z" />
	<path display="inline" fill="#121110" d="M470.9,94.2c0.1,0.1,0.3,0.1,0.4,0c1,0.3,1.4,1,2.1,1.8c-2.4,1.7-6,3.2-8.9,2.9   c-0.1-0.5-0.1-0.8-0.1-1.2C465.7,95.6,468.7,95.4,470.9,94.2z" />
	<path display="inline" fill="#2B201F" d="M462.6,96.1c-0.7,0-1.4,0.1-1.9,0.1c-0.5-0.9-0.1-1.5,0.5-1.6c2.4-0.2,12.5-5.7,13.8-3.4   C472.2,94.3,466.1,93.1,462.6,96.1z" />
	<path display="inline" fill="#3B312F" d="M464.2,88.9c-2.1-2.5,2.9-5,4.1-2c-0.4,1.1-1.4,0.5-2.1,0.8   C465.5,88,464.9,88.5,464.2,88.9z" />
	<path display="inline" fill="#C7BAB0" d="M462.6,96.1c2.1-1.2,4.3-2.2,6.7-2.7c0.5,0.3,1,0.5,1.5,0.8c-2.2,1.2-5.2,1.4-6.5,3.6   C464.3,96.7,463.7,96.2,462.6,96.1z" />
	<path display="inline" fill="#BAA299" d="M473.8,70.4c-1.6,0.9-3.6,0.8-5.3,1c0.7-1.2,0.7-1.2,3-1.9   C471.9,70.7,473,70.1,473.8,70.4z" />
	<path display="inline" fill="#67514D" d="M473.6,68.1c0.3-0.3,0.5-0.5,0.8-0.8c0.9,0.1,2-0.2,2.2,1.2   C475.5,69.1,474.5,69,473.6,68.1z" />
	<path display="inline" fill="#513936" d="M449.1,74.6c0,0.3,0,0.6,0,0.9c-0.6,0.9-1.2,2-2.9,2C447.2,76.1,447.6,75.1,449.1,74.6z" />
	<path display="inline" fill="#C7BAB0" d="M472.2,94.7c-0.3-0.1-0.6-0.3-0.9-0.4C471.6,94.4,471.9,94.5,472.2,94.7z" />
	<path display="inline" fill="#1F1E21" d="M460.5,188c-1.4-0.5-5-1.4-2.5-3.5c1.3,0.9,2.6,1.9,4,2.8   C461.5,187.5,461,187.8,460.5,188z" />
	<path display="inline" fill="#2F2429" d="M445.5,159.7c2.1-1.1,4.4,0.9,6.3,2.2C449.3,162.1,447,161.9,445.5,159.7z" />
	<path display="inline" fill="#3A373D" d="M460.5,188c0.5-0.2,1-0.4,1.5-0.6c1.4,0.5,3.1,0.3,4.3,1.7   C464.3,190.1,462.4,188.5,460.5,188z" />
	<path display="inline" fill="#645A64" d="M464.1,197.3c0.5,0.4,1,0.7,1.5,1.1C464.5,199.1,464.1,198.3,464.1,197.3z" />
	<path display="inline" fill="#6A6672" d="M461.8,196.2c-1.1,0.7-1.3-0.1-1.7-0.8C461.2,194.8,461.4,195.7,461.8,196.2z" />
	<path display="inline" fill="#5D443E" d="M354.5,134.6c1.3-0.8,4.1-0.4,5.5,0.2C357.9,135.3,356.4,135.6,354.5,134.6z" />
	<path display="inline" fill="#433F3C" d="M364.5,137.2c-1.5-0.4-1.5-0.4-2.3-1.5C363.4,135.5,364,136,364.5,137.2z" />
	<path display="inline" fill="#755F58" d="M422.4,141.9c0.1-0.4,0.1-0.7,0.2-1.1c0.6,0.6,1.2,1.3,1.9,2   C423.3,143.2,422.8,142.7,422.4,141.9z" />
	<path display="inline" fill="#6E6A64" d="M367.5,137.6c0,0.3,0,0.7,0,1c-0.4,0-0.8,0-2.1,0C366.6,138,367.1,137.8,367.5,137.6z" />
	<path display="inline" fill="#583935" d="M427.5,143.2c-0.6,0.8-1.3,0.9-1.4,0.1C426.5,143.3,426.9,143.3,427.5,143.2z" />
	<path display="inline" fill="#FBDFD3" d="M424.7,136.4c-0.1-0.4-0.3-0.9,0.4-1C425.2,135.8,425.5,136.3,424.7,136.4z" />
	<path display="inline" fill="#6E6A64" d="M368.9,138.6c0.3-0.1,0.7-0.3,1-0.4C369.5,138.3,369.2,138.5,368.9,138.6z" />
	<path display="inline" fill="#DDC1B2" d="M480.8,103.5c0.4,3.8-1.6,6.4-4.3,8.7c-0.2-0.3-0.5-0.5-0.7-0.8c1.5-0.4,2-1.8,2.1-2.9   C478.2,106.2,479.6,104.9,480.8,103.5z" />
	<path display="inline" fill="#4B3B36" d="M461.4,109.2c0.5-0.4,1.2-1.8,1.4-0.5c1.6,3.1,4.9,2.4,6.6,5.7   C466.4,112.7,462.9,112.6,461.4,109.2z" />
	<path display="inline" fill="#74635E" d="M455.5,117.1c-0.9,1.1-0.9,1.1-2,0C454.2,117.1,454.8,117.1,455.5,117.1z" />
	<path display="inline" fill="#5B4943" d="M455.5,109.4c0,1.3-0.4,1.3-0.5,0C455.1,109.4,455.3,109.4,455.5,109.4z" />
	<path display="inline" fill="#644540" d="M457.5,112.5c-0.3,0.5-0.5,0.3-0.8,0C456.9,112.1,457.2,112.3,457.5,112.5z" />
	<path display="inline" fill="#DDC1B2" d="M481,102.2c0.2-0.1,0.4-0.2,0.6-0.2c0.1,0.6,0.1,1.2-0.7,1.5   C480.9,103,480.9,102.6,481,102.2z" />
	<path display="inline" fill="#D6C1B7" d="M440.5,112.9c-0.5-0.2-0.9-0.5-1.4-0.7C439.7,112.1,440.2,112.2,440.5,112.9z" />
	<path display="inline" fill="#D6C1B7" d="M443.3,115.6c-0.2-0.2-0.4-0.5-0.6-0.7C442.9,115.2,443.1,115.4,443.3,115.6z" />
	<path display="inline" fill="#D6C1B7" d="M441.2,113.5c-0.2-0.2-0.5-0.4-0.7-0.6C440.7,113.1,441,113.3,441.2,113.5z" />
	<path display="inline" fill="#D6C1B7" d="M442.6,114.9c-0.2-0.2-0.4-0.4-0.6-0.6C442.2,114.5,442.4,114.7,442.6,114.9z" />
	<path display="inline" fill="#4D67CA" d="M515.4,291.3c-2,0.6-7.2,2.8-6.7-0.8C510.9,290.6,513.2,289.6,515.4,291.3z" />
	<path display="inline" fill="#2B3461" d="M511.3,306.3c-1.4,0.9-1.8,3-3.9,3.4c-0.2-2.1,1.9-2.7,2.4-4.2c1-0.7,2-1.4,3-2.2   c0.1,0.1,0.2,0.2,0.3,0.3C512.5,304.5,511.9,305.4,511.3,306.3z" />
	<path display="inline" fill="#1D223F" d="M515,302.6c0.5-3.9,1-4.4,3.4-4.8C517.2,299.4,516.1,301,515,302.6z" />
	<path display="inline" fill="#322A28" d="M528.2,391.2c0-2.8,0.6-5.6,2.2-7.8C532.4,385.3,529.3,389.1,528.2,391.2z" />
	<path display="inline" fill="#151211" d="M512,396.4c-0.2-0.3-0.4-0.6-0.6-0.9c0.1-2.3-0.6-4.7,0.3-6.9c2.4,2.1,0.9,5.1,0.9,7.8   C512.3,396.3,512.1,396.3,512,396.4z" />
	<path display="inline" fill="#1D1413" d="M511.3,403c1-0.2,1.2,0.5,1.3,1.3l0,0c-0.4,1.4-0.7,1.9-1.7,3.2   C510.6,405.6,511,404.3,511.3,403z" />
	<path display="inline" fill="#443734" d="M509.1,421.3c-0.2,1.3-1,2-2.2,2.6C506.9,421.6,507.5,421,509.1,421.3z" />
	<path display="inline" fill="#392F2D" d="M510,414c-0.7-2.1-0.7-2.2,1.2-3.7C510.8,411.7,510.4,412.7,510,414z" />
	<path display="inline" fill="#675D59" d="M509.1,418.8c-0.1,0.7-0.1,1.4-1.1,1.3c-0.6-0.8-0.4-1.5,0.3-2.1   C508.5,418.3,508.8,418.5,509.1,418.8z" />
	<path display="inline" fill="#312221" d="M509.1,418.8c-0.3-0.3-0.5-0.5-0.8-0.8c0.2-0.6,0.7-0.6,1.3-0.6   C509.5,417.9,509.5,418.4,509.1,418.8z" />
	<path display="inline" fill="#EDCABA" d="M512.1,405.8c0.2-0.5,0.3-1,0.5-1.5C512.7,404.9,512.7,405.4,512.1,405.8z" />
	<path display="inline" fill="#191C32" d="M502.7,265.1c-2.2,5.7,0.9,11.9-0.3,18c-1.4-1.8,0-3.9-1.3-5.7c-0.1-1.3-0.1-2.6-0.3-3.9   c-4.1-0.5-8.2-0.9-12.3-1.3c4-1.4,7.9,0.5,11.9,0c-0.3-1.8,0.6-4.3-0.8-5.6l0,0c0.8-1.1,1.7-2,1.8-3.4c4.4,0.1,7.3-4.5,12.2-3.9   C510,262,506.1,262.4,502.7,265.1z" />
	<path display="inline" fill="#283257" d="M501.8,281.6c1.6,3.6,0.5,7.9,0.8,11.8c0,0.7,0.2,1.5-0.7,1.8   C502.1,290.7,500.1,286,501.8,281.6z" />
	<path display="inline" fill="#29345E" d="M500.2,311.9c0.1-1.2,0.2-2.3,0.2-3.5c1-0.8,0.5-2,0.7-2.9l0,0c1.4,3,0.9,7.5-0.2,10.7   c-0.5,0-0.8,0-1.2,0c0-0.2,0-0.4,0-0.5C500.8,314.5,500.2,313.2,500.2,311.9z" />
	<path display="inline" fill="#221F20" d="M493.9,504.2c1.2-2.6,7.4-2.2,8.6-0.1C501.4,507.5,496.3,505.7,493.9,504.2z" />
	<path display="inline" fill="#201E1F" d="M502.1,510.5c-2.3,2.2-6.4,0.8-7.5-1.7C496.5,506.8,500,508.2,502.1,510.5z" />
	<path display="inline" fill="#F9DCD0" d="M517.1,383.7c0.1,0.6-0.8,0.9-1.2,1.4c-0.7-0.2-0.3-0.9-0.5-1.4c-0.5-1.1-1-1.8-1.8-2.9   c1.2-0.6,2.3-1.5,3.9-1.7c0.2,1,0.3,2,0.4,2.9l0,0C516.8,382.2,517.1,383,517.1,383.7z" />
	<path display="inline" fill="#5D534C" d="M512,396.4c0.2,0,0.4-0.1,0.6-0.1c0,0.9,0,1.8,0,3.1C511.6,398.3,511.9,397.3,512,396.4z" />
	<path display="inline" fill="#020202" d="M488.9,475.7c0,0.2,0,0.5-0.1,0.7c-0.2-0.1-0.3-0.2-0.5-0.4   C488.5,476,488.7,475.9,488.9,475.7z" />
	<path display="inline" fill="#070807" d="M519.9,380.5c-0.9-0.7-0.9-0.8,0.1-1.5C520.6,379.5,520.2,380,519.9,380.5z" />
	<path display="inline" fill="#EDCABA" d="M517.1,383.7c-0.1-0.7-0.3-1.5,0.8-1.6C517.7,382.6,517.4,383.1,517.1,383.7z" />
	<path display="inline" fill="#4B65C5" d="M500.2,311.9c0,1.3,0.6,2.6-0.5,3.7c-4.2-6.1-11.2-9.7-16.9-14.8c0.9-0.2,1.3-0.3,1.7-0.4   c0.2,0.1,0.3,0.2,0.5,0.3c-1.6-1.5-3.1-2.6-4.5-4.5c2.2,0.4,3.5,2.3,5.5,3.7c0.1-0.7,0.2-1,0.4-1.7c4.7,2.6,8.7,6,13.3,8.9   c-2.4,1.8-3.4-1.9-5-0.5c-2.8-1.9-5.1-5-8.3-6.1c-0.1,0.1-0.1,0.3-0.2,0.4c4.8,3.4,8.6,9.1,13.4,11.9c0.1-0.3,0.1-0.7,0.2-1   C499.9,311.9,500,311.9,500.2,311.9z" />
	<path display="inline" fill="#131122" d="M456.5,256.4c0.6-0.7,1.3-1.3,1.9-2c8.9,3.2,19.8,1.7,29.3,3.6c0.6,1.3-0.3,1.1-0.9,1.3   c-9.3-1.4-18.7-1.2-28.1-2.8c-0.5,1.3-0.9,2.5-1.4,3.9c-0.5-1.3-0.2-2.4,0.2-3.7C457.1,256.6,456.8,256.5,456.5,256.4z" />
	<path display="inline" fill="#4C67C9" d="M503.9,264.3c1.3-0.7,2.5-1.3,3.8-2c4.3,1.8,9.7-2.4,14.5-1.5c-1,0.9-3,1.2-3,2.8   C514,263.7,509,266,503.9,264.3z" />
	<path display="inline" fill="#4C66C7" d="M501,274.5c0.1,1,0.1,1.9,0.2,2.9c-4.5-0.5-9.5,1.4-13.6-1.1   C491.4,273.9,496.6,274.7,501,274.5z" />
	<path display="inline" fill="#11101E" d="M517.1,255.8c7.9-0.1,15.8-1.7,23.6-1.4C538.6,256.9,520.7,257,517.1,255.8z" />
	<path display="inline" fill="#5876E8" d="M543.7,260.8c0,1.3-0.1,2.6-0.1,3.8c-1.2,0.2-2.3,0.4-3.5,0.5c-0.9-2.3-2.7-1.3-4.3-1.2   c-1.5-1.4-0.4-2.5,0.3-3.7c1.4-0.6,2.3-0.1,3.1,1C540.7,261.6,542.3,261.7,543.7,260.8z" />
	<path display="inline" fill="#4A65C6" d="M527.9,260.9c1.7,1,3.7,0.6,5,2.5c-0.3,0.5-0.5,1-0.7,1.3c-3.8-0.4-7.7-1.5-11.7-1.2   C522.4,261.6,525.4,261.7,527.9,260.9z" />
	<path display="inline" fill="#26294C" d="M527.9,260.9c-2.5,0.8-5.5,0.7-7.4,2.7c-0.4,0-0.9,0.1-1.3,0.1c0.8-4.1,19.2-6.1,22.9-5.2   C538.5,260.8,532,259,527.9,260.9z" />
	<path display="inline" fill="#161728" d="M457.5,266.8c3.8-2.7,11.4-2.9,16.5-3.1c0,1-0.6,1.1-1.1,1.4   C467.8,265.3,462.6,266.4,457.5,266.8z" />
	<path display="inline" fill="#0F162B" d="M529.1,244.3c1.3-0.5,2.6-1,3.9-1.4c1.2,1,1.4-0.8,2.3-0.7c-0.2,0.9-0.4,1.8-0.4,1.8   c0.5,0.9,0.8,1.3,1,1.7c-0.4,0.4-0.9,0.7-1.2,1.1c-0.6-0.1-1.2-0.2-1.7-0.3c-0.1-0.4-0.1-0.7-0.2-1.1c-0.2,0.6-0.2,0.6,0.2,1.1   c0,0.6,0,1.1,0,1.8c-2-0.3-1.3-1.9-1.7-2.8c-1.5,0.2-0.7,1.9-0.5,2.9C528.4,248.9,529.4,245.5,529.1,244.3z" />
	<path display="inline" fill="#141729" d="M489.5,302.6c3.7,2.8,7.1,6,10.2,9.4c-0.1,0.3-0.1,0.7-0.2,1c-3.9-2.1-7.1-6.7-10.7-9.7   C489.1,303,489.3,302.8,489.5,302.6z" />
	<path display="inline" fill="#5876E8" d="M543.1,268.7c0.9,0.8,1.7,1.4,2.6,2.2c-3.9,0-7.5,0.2-11.5-0.1   C536.6,268.4,540,269.5,543.1,268.7z" />
	<path display="inline" fill="#405CB3" d="M478.7,250.7c0-0.2,0-0.5-0.1-0.7c1.3-0.5,0.3-2,1.4-2.9c1.1,0.2,2.4,0.4,3.7,0.7   c0.4,2.6-1.9,2.6-3.7,3.5C479.6,251.1,479.1,250.9,478.7,250.7z" />
	<path display="inline" fill="#344D93" d="M517.1,255.8c2.6,1.2,5.8,0.5,8.6,0.8c-5.3,1.1-11.8,0.8-17.1,0.2   C511.4,256.4,514.3,255.9,517.1,255.8z" />
	<path display="inline" fill="#1A1C33" d="M540.1,265.2c1.2-0.2,2.3-0.4,3.5-0.5c-0.4,3.2-6,2.3-8.5,3.5c-0.3-0.3-0.5-0.5-0.8-0.8   C536.2,266.6,538.1,265.9,540.1,265.2z" />
	<path display="inline" fill="#2F3767" d="M495.4,285.9c-3.8-1-7.9-0.1-11.1-2.6c4,0,8.1,0.5,11.8,1.9   C495.9,285.5,495.6,285.7,495.4,285.9z" />
	<path display="inline" fill="#3A4C8C" d="M491.7,325.7c0.2,0.8,0.9,0.7,1.5,0.8c-2.9,1.2-6.3,2.7-9.3,2.5   C486.4,327.3,489.1,326.6,491.7,325.7z" />
	<path display="inline" fill="#2E3664" d="M534.3,267.3c0.3,0.3,0.5,0.5,0.8,0.8c-2.1,1.1-4.5,1.2-6.7,2.3   C528.2,267.6,532.5,268.4,534.3,267.3z" />
	<path display="inline" fill="#1A1F38" d="M498.8,248.6c0.3,0,0.7,0,1,0c-0.1,1.6-0.1,3.2-0.2,5.3   C497.5,252.5,497.9,250.5,498.8,248.6z" />
	<path display="inline" fill="#20223D" d="M508.4,271.7c0.7,0.1,1.3,0.1,2.2,0.2c-0.7,2.2-2.4,2.3-4.6,3   C507.2,273.4,508.6,273.1,508.4,271.7L508.4,271.7z" />
	<path display="inline" fill="#161C32" d="M519.1,245.6c0.5,0,1,0,1.5,0c-0.1,1.6,0.3,2.8-0.6,4.4   C518.7,248.7,519.3,247.2,519.1,245.6z" />
	<path display="inline" fill="#4966C8" d="M535.8,245.6c-0.2-0.4-0.5-0.8-1-1.7c0-0.1,0.2-0.9,0.4-1.8c0.7-0.1,1.8-1.1,2.1-0.1   c-0.8,1-1.1,2.2-0.7,3.5C536.3,245.5,536,245.6,535.8,245.6z" />
	<path display="inline" fill="#020101" d="M536.6,245.5c-0.5-1.3-0.1-2.4,0.7-3.5c0.2,0.4,0.4,0.9,0.6,1.3   C537.6,244.3,537.9,245.6,536.6,245.5z" />
	<path display="inline" fill="#141320" d="M488.1,265.1c2.1-0.1,4.2-0.2,6.3,0.3c-2,0.9-4.1,0.5-6.2,0.4   C488.1,265.5,488.1,265.3,488.1,265.1z" />
	<path display="inline" fill="#111021" d="M525.3,245.2c0.6,1.9,0.3,2.8-0.6,4C523.9,247.7,524,246.7,525.3,245.2z" />
	<path display="inline" fill="#1A1320" d="M495.4,285.9c0.2-0.2,0.5-0.5,0.7-0.7c1.4,0,2.8,0.1,4.2,1.5   C498.5,286.4,496.9,286.2,495.4,285.9z" />
	<path display="inline" fill="#0C0910" d="M501.7,248.9c0.3,1.4,0.5,2.4,0.8,3.4C500.8,252.8,500.2,249.9,501.7,248.9z" />
	<path display="inline" fill="#303A5D" d="M488.1,265.1c0,0.2,0,0.5,0,0.7c-1.4,0.1-2.7,0.1-4.1-0.2   C485.4,264.8,486.7,265.1,488.1,265.1z" />
	<path display="inline" fill="#5876E8" d="M543.3,260.9c0.7-1.3,2.1-2.6,2.3-0.4C545,260.6,544.3,260.7,543.3,260.9z" />
	<path display="inline" fill="#4B65C5" d="M501.1,305.5c-0.2,1,0.3,2.2-0.7,2.9C500.5,307.4,499.8,306.2,501.1,305.5z" />
	<path display="inline" fill="#2E4176" d="M505.5,251.4c0.3-0.5,0.6-1,0.9-1.5c0.4,0.7,0.8,1.3,0.2,2.1   C506.2,251.8,505.8,251.6,505.5,251.4z" />
	<path display="inline" fill="#405CB3" d="M484.5,247.9c0.8-0.1,1.7-0.2,2.3,0.5C485.9,248.5,485.1,248.8,484.5,247.9z" />
	<path display="inline" fill="#3C4F9C" d="M485.8,250.3c-0.3,0.3-0.6,0.6-1.1,1C484.5,250.1,484.7,249.8,485.8,250.3z" />
	<path display="inline" fill="#4C67C9" d="M502.7,265.1c0.2-0.2,0.4-0.4,0.5-0.6C503.1,264.7,502.9,264.9,502.7,265.1z" />
	<path display="inline" fill="#2E4176" d="M506.3,249.3c0.2-0.3,0.4-0.6,0.6-0.8C506.7,248.7,506.5,249,506.3,249.3z" />
	<path display="inline" fill="#191C32" d="M499.7,266.5c-0.1,0.1-0.2,0.2-0.2,0.2C499.4,266.8,499.5,266.7,499.7,266.5   C499.7,266.6,499.7,266.5,499.7,266.5z" />
	<path display="inline" fill="#151211" d="M530.7,112.1c0.7-3.5,7.5-4.6,10.1-7.4c0.1,0.4,0.1,0.8,0.2,1.1   C538.8,108.9,534.7,113.9,530.7,112.1z" />
	<path display="inline" fill="#E9C5B5" d="M515.6,21.9c0.4-0.5,0.9-1,1.3-1.5c3,1.8,3.9,4.5,4.4,7.5c-0.6-0.1-1.2-0.1-1.5,0.6   c-0.5-0.2-0.9-0.4-1.4-0.6C519.7,27.2,515.5,24,515.6,21.9z" />
	<path display="inline" fill="#2F2726" d="M533,122.9c-0.3-3.3-0.3-5.8,0.5-8.3C537,115.6,534.3,120.1,533,122.9z" />
	<path display="inline" fill="#473D3A" d="M519.8,28.4c0.3-0.7,0.9-0.7,1.5-0.6c1.7,2.3,4.2,3.9,5.2,6.6   C523.8,33.9,522.1,30.1,519.8,28.4z" />
	<path display="inline" fill="#352C29" d="M515.6,21.9c0.5,1.2,1,2.4,1.5,3.6c-0.3,0.3-0.6,0.6-0.9,0.9c-0.4-0.4-0.8-0.7-1.2-1.1   c-0.3-1.2-1.2-2.2-0.9-3.5c0.3-0.1,0.5-0.2,0.8-0.3C515.1,21.7,515.3,21.8,515.6,21.9z" />
	<path display="inline" fill="#28211F" d="M563.3,87.7c-0.6,1-0.9,1.6-2.1,2c-0.6-1.8,1-2.4,1.9-3.7c0.2,0,0.5,0.1,0.7,0.1   C563.8,86.7,563.5,87.2,563.3,87.7z" />
	<path display="inline" fill="#39312E" d="M515.6,11.8c-0.5-0.3-1-0.6-1.6-1c0-0.4,0-0.8,0.1-1.1c0.2-0.1,3.3,1.2,3.6,1.4   C517,11.3,516.3,11.5,515.6,11.8z" />
	<path display="inline" fill="#73625E" d="M558,70.3c-0.9-1.2-0.9-2.7-1.4-4.4c1.5,0.7,1.8,1.8,2.1,2.9   C558.5,69.4,558.3,69.8,558,70.3z" />
	<path display="inline" fill="#4F4541" d="M544.4,101.4c-0.9-0.2-0.8-0.9-0.8-1.5c0.6-0.5,1.2-1,2-1.6   C546.1,99.8,545.2,100.6,544.4,101.4z" />
	<path display="inline" fill="#453E3B" d="M548.8,94.3c0-2.1,0-2.1,1.1-3.3C550.7,92.3,550.1,93.2,548.8,94.3z" />
	<path display="inline" fill="#9D8A7F" d="M516.2,26.4c0.3-0.3,0.6-0.6,0.9-0.9c0.5,0.6,2.7,1.5,1.3,2.3c-0.7-0.3-1.5-0.6-2.2-0.8   C516.2,26.8,516.2,26.6,516.2,26.4z" />
	<path display="inline" fill="#A18B85" d="M532.7,124.1c-0.2,0.8-0.4,1.5-0.9,2.1C531.3,124.7,531.3,124.7,532.7,124.1z" />
	<path display="inline" fill="#73645F" d="M563.5,84.5c-0.8-1.1-0.1-1.8,0.7-2.4C564.7,83.4,564.7,83.4,563.5,84.5z" />
	<path display="inline" fill="#292221" d="M558,70.3c0.2-0.5,0.4-1,0.7-1.4c0.2,0.7,0.5,1.5,0.7,2.2C558.5,71.4,558.5,71.4,558,70.3   z" />
	<path display="inline" fill="#5B403D" d="M551.3,59.2c-0.4-0.7-0.7-1.2-1.1-1.9C551.7,57.8,551.7,57.8,551.3,59.2z" />
	<path display="inline" fill="#463E3B" d="M540.9,105.8c-0.1-0.4-0.1-0.8-0.2-1.1c0.4-0.8,1.4-2,1.7-0.5   C541.9,104.8,541.4,105.3,540.9,105.8z" />
	<path display="inline" fill="#78625E" d="M529.2,37.6c-0.9,0.3-2.2-0.4-1.5-1.2C528.6,36.4,528.9,36.8,529.2,37.6z" />
	<path display="inline" fill="#41312F" d="M546.8,96.9c-0.6-1.1,0-1.6,1.1-2.1C548.2,96,547.8,96.6,546.8,96.9z" />
	<path display="inline" fill="#6A534D" d="M549.4,79.6c0.1-0.3,0.1-0.6,0.2-1c1.2-0.1,1.8,1.3,0.6,1.8   C549.9,80.2,549.6,79.9,549.4,79.6z" />
	<path display="inline" fill="#9C8780" d="M553.4,61.6c-0.4-0.4-0.6-0.7-1-1.2C553.5,60.5,553.5,60.5,553.4,61.6z" />
	<path display="inline" fill="#71615D" d="M531.3,39.2c-0.5,1.1-1.6,0.3-1.2-0.5C530.5,38.8,530.9,39,531.3,39.2z" />
	<path display="inline" fill="#615B57" d="M531.3,129c-0.2,0-0.3,0.1-0.5,0.1c0-0.3-0.1-0.7,0.3-0.8   C531.1,128.5,531.2,128.7,531.3,129z" />
	<path display="inline" fill="#52413D" d="M563.8,86.2c-0.2,0-0.5-0.1-0.7-0.1c0.2-0.2,0.4-0.3,0.6-0.5   C563.7,85.8,563.7,86,563.8,86.2z" />
	<path display="inline" fill="#52413D" d="M563.3,87.7c0.2-0.3,0.3-0.6,0.5-0.9C563.6,87.1,563.4,87.4,563.3,87.7z" />
	<path display="inline" fill="#EDC9B9" d="M517,29.1c-0.2-0.3-0.3-0.5-0.5-0.8C516.6,28.6,516.8,28.8,517,29.1z" />
	<path display="inline" fill="#E8C3B4" d="M485.2,139.5c-3.5,1.9-7.1,3-11.1,1.5c1.3-0.1,2.7-0.1,4.2-0.2c1.5-3,1.4-7.1,0.3-10.7   c4.5-0.6,3.4,6.5,5.4,9.1C484.5,139.4,484.9,139.4,485.2,139.5z" />
	<path display="inline" fill="#201B19" d="M485.9,120c-3,3.4-5.7,5.5-9.1,6.9c-1.4-3.9,6.9-5.4,8.9-8.5c0.3,0.2,0.6,0.5,0.8,0.7   C486.4,119.5,486.2,119.7,485.9,120z" />
	<path display="inline" fill="#27221F" d="M478.6,130.2c0.8,2.8,1.6,7.2,0.1,9.4c-1.7-2.9-2.2-6.2-2-9.6   C477.4,130.1,478,130.1,478.6,130.2z" />
	<path display="inline" fill="#483432" d="M467.1,122.7c1.7,0.3,3.5,0.4,5.1,2c-2,0.8-3.3-0.6-5.1-1.1   C467.1,123.3,467.1,123,467.1,122.7z" />
	<path display="inline" fill="#9D8A82" d="M491.9,113c-1.2,1.4-2.4,2.9-3.7,4.3c0-0.3-0.1-0.6-0.1-0.9c0.9-1.5,1.8-2.9,2.8-4.4   C491.2,112.3,491.5,112.7,491.9,113z" />
	<path display="inline" fill="#B19890" d="M467.1,122.7c0,0.3,0,0.6,0,0.9c-0.9-0.5-2.1-0.5-3.1-1.9   C465.4,122.1,466.4,121.8,467.1,122.7z" />
	<path display="inline" fill="#51423E" d="M488.1,116.3c0,0.3,0.1,0.6,0.1,0.9c-0.5,0.7-1.1,1.3-1.6,2c-0.3-0.2-0.6-0.5-0.8-0.7   C486.5,117.7,487.3,117,488.1,116.3z" />
	<path display="inline" fill="#A48A82" d="M490.9,112c0.5-0.6,1-1.4,2-1c0.4,1.1-0.5,1.5-1,2C491.5,112.7,491.2,112.3,490.9,112z" />
	<path display="inline" fill="#897D76" d="M488.3,107.8c-0.8,0.6-1,0.6-1.5-0.2C487.4,107,487.6,107,488.3,107.8z" />
	<path display="inline" fill="#926D67" d="M459.3,120.6c-0.9-0.4-1.4-0.6-2.4-1C458.2,119.2,458.8,118.8,459.3,120.6z" />
	<path display="inline" fill="#76605B" d="M488.5,103c0.4,0.5,0.5,1-0.2,1.2C487.4,104.4,487.8,103.1,488.5,103z" />
	<path display="inline" fill="#51423E" d="M485.9,120c0.2-0.2,0.4-0.5,0.6-0.7C486.4,119.5,486.1,119.7,485.9,120z" />
	<path display="inline" fill="#EBC8B9" d="M465,402.2c0-2.7,0-6.2,2-8c-0.2,1.1-0.3,2.1-0.6,3.9c1.7-3.5,4.8-4.9,4.3-8.9   c3.3,4.6,0,8.5-1.3,12.9c-1.5,4.7-0.4,10.8-3.8,14.1c-1.3-1.7-1.4-1.7-1.4-2.5C464.7,410,463.2,405.4,465,402.2   c0,0.8-0.6,1.8,0.5,2.7c0.8-1,1.6-1.9,1.3-3.5C466,401.8,465.5,402,465,402.2z M465.7,408.6c-0.1-0.1-0.3-0.2-0.4-0.3   c-0.2,0.4-0.3,0.7,0.2,1C465.5,409,465.6,408.8,465.7,408.6z M465.3,414.3c0.3-0.2,0.3-0.3,0-0.5c-0.1,0.1-0.2,0.2-0.2,0.3   C465.2,414.2,465.2,414.3,465.3,414.3z" />
	<path display="inline" fill="#1C1817" d="M473.6,372.9c0.2-0.8-0.2-1.5-0.6-2.1c0.7-0.1,1.4-0.2,2.1-0.3c1,0.7,2,1.4,2.9,2.2   c-4.1,4.5-0.1,11-7.3,14.4C471.3,383,477,376.2,473.6,372.9z" />
	<path display="inline" fill="#231B1A" d="M470.7,389.2c0.6,2.4-0.9,4-2.2,5.7c-0.8-0.3-0.6-1-0.8-1.6   C468.6,391.9,468.6,389,470.7,389.2z" />
	<path display="inline" fill="#292422" d="M456,459.4c-0.4-1.4-1-2.9,0.7-4.4C456.9,456.8,457.2,458.1,456,459.4z" />
	<path display="inline" fill="#47443E" d="M467.7,393.3c0.2,0.6,0,1.3,0.8,1.6c-0.6,0.9-1.1,1.7-2.1,3.2c0.3-1.8,0.4-2.8,0.6-3.9   C467.3,393.9,467.5,393.6,467.7,393.3z" />
	<path display="inline" fill="#373230" d="M477,373.5c0.3-0.3,0.7-0.6,1-0.9c0.9,0.4,1.4,1,1.4,2.1   C478.3,374.8,477.6,374.2,477,373.5z" />
	<path display="inline" fill="#31201E" d="M464.3,420.3c0.3-0.5,0.7-1,1.1-1.6C466.1,419.9,465.6,420.4,464.3,420.3z" />
	<path display="inline" fill="#504542" d="M457,447.3c-0.3-1.1-0.3-1.5,0.4-2.6c0.3,1.1,0.6,1.6,0.1,2.6   C457.4,447.3,457.2,447.3,457,447.3z" />
	<path display="inline" fill="#433936" d="M456.6,452.8c-0.8-1.2-0.5-2,0.1-2.8C457.5,450.9,457.2,451.7,456.6,452.8z" />
	<path display="inline" fill="#4C4542" d="M457.9,443.2c0-0.6,0-1.2,0-1.8c0.1,0,0.3,0,0.4,0c0,0.6,0,1.2,0,1.8   C458.1,443.2,458,443.2,457.9,443.2z" />
	<path display="inline" fill="#141011" d="M439,502.4c1,0.1,2.1,0.2,3-0.6c2.2,0.4,5.6-1.2,7,1.1c0,1.5-1.1,1.8-2.4,2   c0.1,0.5,0.2,0.8,0.3,1.2c-0.5,0-1.1-0.1-1.6-0.1c-2.3-1.9-6.4,0.5-9.1-1.6C436.7,502.9,438,502.8,439,502.4z" />
	<path display="inline" fill="#100E0F" d="M445.2,506c8,1.1-6.8,6.3-7.7,2c0.2-0.3,0.4-0.8,0.7-1.3   C440.6,506.5,442.9,506.2,445.2,506z" />
	<path display="inline" fill="#1F1C1C" d="M439.4,512.8c2.9-1.1,6.3-3.1,9.2-1.2C447.1,514.8,441.4,515.1,439.4,512.8z" />
	<path display="inline" fill="#AAB7BD" d="M445.2,506c-2.3,0.2-4.6,0.5-7,0.7c0.2-0.4,0.5-0.8,0.7-1.2   C440.9,505.8,443.9,504.3,445.2,506z" />
	<path display="inline" fill="#160E0D" d="M459.8,379.7c-1.2-1.8-0.6-3.2-1-4.6C461.7,375,459.8,377.9,459.8,379.7z" />
	<path display="inline" fill="#14182B" d="M445.4,338c0.8,4.2,1.7,8.4,2.5,12.6c0.6,0.3,1.1,0.5,1.8,0.9c-0.3,0.7-0.6,1.4-1,2.1   c-0.3,0-0.7,0.1-0.7,0c-0.9-1.4-3.4-0.6-4-2.9c0.6-0.2,1.2-0.4,1.8-0.7C446.6,346.2,443.5,341.7,445.4,338z" />
	<path display="inline" fill="#394986" d="M443.9,335.9c-2-5.3,1.1-11,2.8-16c1,4.8-2.9,8.2-2,13   C443.9,333.8,443.9,334.8,443.9,335.9z" />
	<path display="inline" fill="#16172A" d="M453.3,333.8c-2.7-0.4-5.6,0.8-7.8-1.5c2.7-1.5,5.8-0.3,8.6,0.6   C453.9,333.2,453.6,333.5,453.3,333.8z" />
	<path display="inline" fill="#3A4A85" d="M447.6,308.3c-0.2,0.1-0.4,0.1-0.7,0.1c0.3-4.2,2.1-7.9,3.4-11.9   C450.7,300.5,448.4,304.4,447.6,308.3z" />
	<path display="inline" fill="#0E1324" d="M447.6,315.7c0.7,0,1.4,0,2.1,0c-1.6,1.7-3.5,2.8-5.3,4.2c-0.5-0.5-0.8-0.8-1.1-1.1   c0.3-1.6,1.7-1.9,2.8-2.5C446.7,316.3,447.3,316.3,447.6,315.7z" />
	<path display="inline" fill="#26305A" d="M443.9,335.9c0-1.1,0.1-2.1,0.8-2.9c0.2,1.7,0.5,3.4,0.7,5.1c-0.2,0.5-0.5,1-0.7,1.4   C443.6,338.5,444.2,337.1,443.9,335.9z" />
	<path display="inline" fill="#232848" d="M448.3,317c0.5-0.4,0.9-0.9,1.4-1.3c0.7-0.1,1.4,0,1.2,1.2   C450.1,316.9,449.2,316.9,448.3,317z" />
	<path display="inline" fill="#354378" d="M453.3,333.8c0.3-0.3,0.5-0.6,0.8-0.9c0.8,0.4,1.8,0.6,2.1,1.8   C455.1,334.5,454.2,334.5,453.3,333.8z" />
	<path display="inline" fill="#232848" d="M447.6,315.7c-0.3,0.6-0.9,0.6-1.5,0.6C446.6,316.1,447.1,315.9,447.6,315.7z" />
	<path display="inline" fill="#4B65C5" d="M453.3,265.8c0.3-0.1,0.7-0.2,1-0.3c0.6,2.2,0.6,2.2-0.7,3.1   C453.6,267.6,453.5,266.7,453.3,265.8C453.4,265.8,453.3,265.8,453.3,265.8z" />
	<path display="inline" fill="#243053" d="M467.1,242.8c-0.3,0-0.7,0.1-1.2,0.2c-0.1,1.4-0.2,2.8-0.4,4.3c-2.2-1.4-1-4-0.6-6   C465.7,241.7,466.7,241.7,467.1,242.8z" />
	<path display="inline" fill="#0E1121" d="M476.5,246.3c-0.6,0-1.1,0-1.9,0c0,1.1,0,1.9,0,3.1c-1.5-1.3-0.9-2.7-0.9-3.9   C474.7,245.8,475.9,245,476.5,246.3z" />
	<path display="inline" fill="#2C0C0B" d="M403,140.1c0.6-1.7,2-1.2,3.2-1.5C406.8,140.7,404.2,139.9,403,140.1L403,140.1z" />
	<path display="inline" fill="#6C4540" d="M398.1,137.5c0.5,0,1,0,1.5,0c0,0.1,0,0.3,0,0.4c-0.5,0.1-1,0.2-1.5,0.2   C398.1,137.9,398.1,137.7,398.1,137.5z" />
	<path display="inline" fill="#322623" d="M328.6,92.4c-2.5-0.7-3.7-1.9-4.5-3.9C326.1,88.8,327.1,89.6,328.6,92.4z" />
	<path display="inline" fill="#293057" d="M489.5,302.6c-0.2,0.2-0.5,0.5-0.7,0.7c-0.9-0.8-1.8-1.5-2.7-2.3c0.1-0.1,0.1-0.3,0.2-0.4   C487.6,300.8,488.5,301.8,489.5,302.6z" />
	<path display="inline" fill="#5876E8" d="M484.5,300.4c0.2,0.1,0.3,0.2,0.5,0.3C484.8,300.6,484.6,300.5,484.5,300.4L484.5,300.4z" />
	<path display="inline" fill="#5876E8" d="M532.8,246.3c-0.4-0.5-0.4-0.5-0.2-1.1C532.7,245.6,532.7,246,532.8,246.3L532.8,246.3z" />
	<path display="inline" fill="#2A1C1A" d="M491.1,112.3c0.2,0.2,0.4,0.4,0.5,0.5C491.4,112.6,491.3,112.4,491.1,112.3z" />
	<path display="inline" fill="#55443F" d="M465,402.2c0.5-0.2,1-0.5,1.7-0.8c0.3,1.6-0.5,2.5-1.3,3.5C464.4,404,465,403.1,465,402.2   L465,402.2z" />
	<path display="inline" fill="#6C544D" d="M465.7,408.6c-0.1,0.2-0.2,0.4-0.2,0.6c-0.5-0.3-0.4-0.5-0.2-1   C465.4,408.3,465.5,408.4,465.7,408.6z" />
	<path display="inline" fill="#5E4E48" d="M465.3,414.3c-0.1,0-0.1-0.1-0.2-0.1c0.1-0.1,0.2-0.2,0.2-0.3   C465.6,414,465.6,414.2,465.3,414.3z" />
</g>
</svg>