<?xml version='1.0' encoding='utf-8'?>
<svg xmlns="http://www.w3.org/2000/svg" version="1.2" baseProfile="tiny" id="Layer_1" x="0px" y="0px" viewBox="0 0 900 600" overflow="visible" xml:space="preserve">
<g id="b_00000153697648897581355220000018267639192062142377_">
	<path display="inline" d="M359.4,236.7c-38.5,5.4-73.7-13.1-111.5-17c1.4,1.8,2.5,1,2.8,3c-2.7,2.7-7,1.1-10.2,2.8   c-4,1.4-7.5-0.6-10.8-2.5c-6.4-1.1-7.5-3.2-12.5-7.5c-10,0.8-17.4-4.7-22.9-12.3c-5.7-9.8,1.4-26,13.9-25.5   c11.4,3,18.8,14.4,30.4,16.8c2,0.4,3,0.4,4.5,2.2c2.5,0.2,5.4,0.5,8.6,0.7c0.5,0.8,1.1,1.7,1.7,2.6c20.9-0.8,41.9-0.1,62.9-0.5   c9.2-0.9,18.2-4.2,27.5-1c27,9.7,55.4,10.2,83.7,7.4c17.8-2.1,36.9,2.7,53.4-5.3c1.2-16.4,9.1-31.1,11.7-47.2   c6.5-20.1,12.3-42.7,26.4-58.8c12-9.8,28.7-0.8,41.7-9.5c1-4.2-0.2-10,1.7-13.5c0.6,0.5,1.3,1.1,1.9,1.6c-0.4,0.5-0.8,1-1.2,1.4   c3.2,6.5-1.6,5-0.1,11.7c-2.1,0.9-4.1,1.8-6.3,2.7c0.1,1.5-0.3,3,0.6,4.4c2.9,12.8,2.6,30.5,13.5,39.6c0.5-1.5,0.9-2.8,1.3-4.1   c1.2,1.1,0.5,3.1,0.7,4.6c13.3,2.5,19.8-11.5,24.9-21.2c0.1,14.5-17.6,30.6-31.5,21.4c-11.3-11.4-8.2-29.3-11.4-43.9   c-1.4,0.5-2.9,0.6-4.1,1.5c2.6,16.5-10.1,31.3-24.8,36.3c-6.2,11.9-3.3,21.4,8.3,27.8c-0.2,0.2-0.4,0.4-0.7,0.7   c-5.3-0.8-9.3-3.8-12.4-8.4c-2.5,5.6-2.5,12-1.4,17.9c26.8,4.9,55,7.2,79.3,20.9c4.7-8,9.5-16.6,13.3-24.9   c-4.6,4.9-11.5,6.2-17.9,3.5c0.2-0.2,0.5-0.5,0.7-0.7c15.9,3.1,25.8-14.7,20.1-28.4c0.2-0.5,0.4-1,0.7-1.5c0.9,1.1,0.7,2.8,1.9,3.7   c1-0.5,1.2-1.3,0.8-2.3c2.9-0.6,3.7,11.5,6.8,14.2c5.5,10.7,13.8,19.3,18.6,30.3c3,7.8,34.5,24.8,40.7,20.8   c-0.6-0.4-1.1-0.8-1.7-1.2c0.3-0.3,0.5-0.5,0.8-0.8c6.3-0.1,12.4,2.4,18.8,2.2c0,0-0.1-0.1-0.1-0.1c0,0.2,0,0.5,0,0.7   c-1.2,1.6-2.5,3-4.9,2.8c-12,131-22.9,262.2-34.3,393.2c-2.1,3.3-17.4,1.5-15.7-2.1c12.4-130.1,24.6-260.6,36.8-390.7   c-37.1-8.1-46.4-29.5-64-59.7c-3.9,18.6-14.1,34.7-24.4,50.5c-7.5,10.5-18.1,20-19.7,33.4c-1,11.8-0.8,24.5-8.1,34.4   c-2.6,3.9-4,8.1-5,12.5c-1,27.9-4.7,57.1-13.5,83.7c-3,11.1-3.8,23.4-0.6,34.5c1.7,28.3-2.1,57.2,1.7,85.5   c17.3,2.1,8,2.4,12.8,14.2c6.6,5.5,10.4,13.9,17.5,18.7c24.6,21.4-29.6,29.8-33.8,7c-17,2.8-28.1-5.1-20.8-22.7   c2-5.4-2.8-14.1,5.3-15.9c-2-21.4-12.9-40.5-16.6-61.3c1.2-10.6,1.3-21.3,1.8-32c0.3-4.5-4-7.5-3.4-12.1   c-0.4-24.1-4.8-47.7-8.4-71.5c-3.9-2.2-8.9-0.6-12-3.2c0.3-0.3,0.5-0.5,0.8-0.8c1.1,0.6,2.2,0.2,3.2-0.3c0.2-2.3-2.6-0.4-3.3-2.1   c0.1-0.3,0.3-0.6,0.4-0.9c0.8,0.4,1.5,0.7,2.3,1.1c1.4-3.8,0-8.2-0.4-12.4c0.3-0.2,0.6-0.4,0.8-0.5c4.9,4.5-2.2,14,4.6,16   c1.5,1.4,1.7,0.1,2.8-0.7c7.3,19.1,9.8,41.1,11.7,61.5c-2,11.3,1.6,20.5,5.2,30.4c-1.4-0.1-0.8-2.1-2.2-2.3   c-4.6,42.9,6.4,48.5,14.4,87.2c0.3-1.6,0.4-2.5,0.6-3.7c2,4.4,0.1,9.8,3.1,13.2c-0.1,0.5-0.2,1-0.3,1.8c-1-0.7-1.6-1.2-2.6-1.8   c-0.2,2.5,0.5,4.2,2.5,5.3c2.5-1.4,5-2.8,7.6-4.2c0-1.6,0-3,0-4.3c1-1.6,2.8-1.2,4.1-2.1c-4.9-32.8,1.6-67-4.2-99.3   c0.6-0.6,1.2-1.2,1.8-1.7c-2.4-12.7,3.1-24.3,5.3-36.4c4.4-15.6,4.8-31.9,7.4-47.8c2.1-5.4-0.7-12.5,1.4-18.3   c1.9-12.1,11.1-22.2,10.9-34.8c-13.7-1.2-26.4-6.5-37.4-14.6c0.2-0.7,0.9-0.6,1.4-0.7l0,0c0.2,0.8,0.8,0.8,1.4,0.7   c11.4,4.8,22.6,10.5,34.9,12.3c1.9-20.3,14.5-36,26.3-51.9c-23.4-14.4-52-14.2-77.8-20.9c0.1,11.3-3.6,23.6-15.5,26.4   c0.3,2.9,0.5,5.8,0.7,8.7c7.4,7.4,15.8,14.5,24.3,21.1c-0.3,0.3-0.6,0.6-1,0.9c-5-2-8.2-7-13.4-8.3c-4.2-1.6-6.9-5.8-9.9-9.2   c-0.8,18-7.1,37.5-1.5,54.8c-0.3,0.3-0.7,0.6-1,1c-8.8-10.8-1.5-31.8-0.8-44.8c1.6-9.6-1.2-20.1,1.7-29.3   c5.4-14.4,10.2-30.5,15.8-45.2c-0.2-2.9-2.1-5.5,0-7.9c1.3-1.9,5.1-17.2,7.9-14.2c-0.1,0.9-0.2,1.9-0.3,3c13.1-4.6,22.5-20,21-33.9   c-18.7,0.5-28.2-0.8-36.6,18.6c-7.6,17.8-16,36.2-19,55.7c-17.2,46.7-5.7,62.9-7.7,106.8c-2.6-14.9-52.2-15.3-66.2-22.9   c0.3-0.3,0.7-0.6,1-0.9c18.4,3.1,37.1,5.7,54.5,12.7c8.9-14.1,0.4-41.4-9-54.4c-48.2,0.6-76.8,8.6-125.3-6.6   c-28.7,2.4-57.5,2.6-86.3,2.2c1.4,3.9-0.5,7.4,0.5,11.2c-2,2.9-5.3,2.4-8.3,3c4.7,3.4,11.6-1.2,15.7,3.1   c29.3,2.6,55.8,16.6,85.4,15.1C350,235.8,359.1,232.7,359.4,236.7z M558.8,496.7c-2,0-4,0.6-6,0c0.1-0.5,0.1-0.8,0.1-1.1   c2.2-0.9,4.5-1.7,6.7-2.6c-0.1-2.7-0.2-5.5-0.3-8.3c-3.9-2.1-8.4,0.6-12.6,0.7c-1,1.6,0,2.8,0.3,4.2c-3.4,1.5-6.7,3.3-9.7,5.3   c-6.2-0.5-3-7.9-7.4-10c-1.2,2.5-1.3,2.9-1,5c1.1,6.5-1.3,13-3.4,19.2c4,6.7,10.6,10.1,18.2,8.8c0.1-0.8,0.2-1.5,0.3-2.1   c3.2-0.3,5.7,2.2,6.4,4.9c0.7,7.7,10.3,7.4,15.8,10.2c5.5,2.1,10.4-0.7,15.8-2.1c8.5-12-7.3-13.9-13.3-25c-2.6,0.9-8.2,2.1-9.9-0.4   c2.2-2,4.8-1.8,7.8-2.2c-0.4-0.6-0.7-0.9-1-1.3c-4,1.4-7,1.5-11.4,0.3c2.1-1.8,3.5-2.1,6-2.5c0.7,0.1,1.4,0.2,1.3-0.9   C560.6,495.8,559.7,496,558.8,496.7z M482.3,246.2c-0.2-14.5-2.9-28.4-1.5-43c-4.3,1.9-8.1,3.2-12.8,3.5   c15,15.2,13.6,37.6,11.5,57.3c1.2,0.7,2.4,1.4,4,1.6C483.6,259,483.6,252.6,482.3,246.2z M198.2,186.9c-0.7-1-2.3-1.7-1.9,0.2   c-5.9,15.9,5,23.4,19.4,25.7c3.6-1,5.4,2.5,8.1,3.9c6,2.2,11.7,9,18.4,5c0.2-1.1,1.2-1.2,2-1.5c-0.9-0.7-1.8-1.4-2.8-2.1   c0.2-0.6,0.4-1.2,0.5-1.7c1.8,0.2,2.4-1.4,3.1-2.7c2.3,0.8,4.4,0.9,6.3-0.2c1-5.1-0.5-8.6-1.6-12.9c-2.9-0.8-6.3,0.3-9.1-1.2   c-0.4-1-0.2-1.4-0.1-2.3c-12.4-1.4-20.1-12.1-31-16.9c-3.7,0.9-7.1,2.1-10.5,3.6C198.6,184.8,198.4,185.9,198.2,186.9z M691,202.2   c-0.9-0.7-1.9-0.8-3.1-0.3c-12.2,131-25.7,262.2-36.8,393.1c2.9,1.5,6.2,1.1,9.3,0.6c12.7-130.6,22.5-262.4,34.5-393.2   C693.5,202.3,692.2,202.3,691,202.2z M516.6,160.9c-3.5,8.4-9.5,22.4-10.9,30.2C517.9,186.2,517.8,172.1,516.6,160.9z M699.1,203.4   c0-0.1-0.1-0.3-0.1-0.4c-0.3,0.1-0.7,0.1-1,0.2C698,204,698.6,203.5,699.1,203.4z M478,262.4c-0.1-0.2-0.2-0.3-0.3-0.5   c-0.3,0.2-0.1,0.5,0,0.8C477.7,262.6,477.9,262.5,478,262.4z" />
	<path display="inline" fill="#030302" d="M598.2,113.9c-0.1-0.4-0.2-0.8-0.3-1.4c-0.5,0.7-0.8,1.3-1.2,1.9c0.2-6.1,1.6-11.9,3-17.5   c-4.7-6.3-9.8-11.7-10.7-19.5l0,0c-0.4-1.9-0.5-3.8-1.4-5.5c2.8-4,3.8-8.8,5.5-13.3c1.1,0.4,0.5,1.5,0.8,2.3   c-5,13.2-0.9,19.3,4.9,31c20,16,36.2,5.7,46.5,38.7c-0.1,0.2,0,0.4,0.2,0.6c0,0.4,0,0.7,0,1.1c-0.2,0.3-0.5,0.6-0.7,0.9   c-5.6-8.5-7.3-19.8-18.2-23.3c0.1-0.7,0.2-1.2,0.3-1.9c-8.5-4-16.7-7.2-25.6-10.1C599.6,103.3,599.7,108.6,598.2,113.9z" />
	<path display="inline" fill="#070605" d="M644.9,133.2c0.2-0.3,0.5-0.6,0.7-0.9c0.2,0.1,0.4,0.2,0.6,0.2c4.9,8.4,7.1,17.8,11,26.8   c8.5,6.4,11.7,16.4,20.2,22.2c-0.2-4.4,2.7-7.3,3.2-10.9c2.5-2,5.2-1.9,8.1-1.9c3-3.3,9.1-2.3,12,0.5c0,1.9,0,3.3,0,4.8   c4.2,0.5,6.1,3.9,3.5,6.6c-0.2,0-0.5,0-0.7-0.1c1.1-6.7-7-3.7-11.7-4.3c-0.1,0.4-0.1,1-0.2,1.5c-2.3,0.1-4.6,0.4-6.8,0.8   c-0.6,0.6-1,1.3-1.3,2c-0.1-1.2-0.2-2.5-0.7-3.6c0.4-0.6,1-0.3,1.5-0.3c2.2,0.3,2.6,0.3,5.3-1c-0.9-2-2.3-3.2-2.5-5.6   c-1.7,0.7-3.6,0.4-5,1.6c-0.8,4.3-3.1,8-3.4,12.5c-6.9-1.9-9.8-9.1-14.5-14C653.8,159.9,649.5,146.7,644.9,133.2z M691,169.7   c-0.3,1.4-0.5,2.8,0,4.4c2.2,0.2,4.4,0.5,6.6,0.1c0.2-1.6,0.5-2.9,0-4.5C695.5,169.7,693.4,169.7,691,169.7z" />
	<path display="inline" fill="#070706" d="M556.7,12.9c2.7-4.4,8.7-7.6,13.8-6.9c3.4-9,20.6-7.9,18.3,3.3   c11.9,6.9,8.5,19.6,8.8,30.8c0.5,0.1,0.8,0.2,1.2,0.2c-0.9,1.3-0.9,2.4,0.9,2.2c-0.5,0.8-1,1.7-1.5,2.5c0.5,0.5,0.9,1,1.3,1.5   c-0.5,1.2-1,2.4-1.5,3.6c-0.8,0.4-1.6,0.7-2.1,1.5c0,0.2,0,0.4-0.2,0.6c-0.9-0.5-0.4-1.4-0.6-2.1l0,0c2.9-5.4-2.6-13.2,1.3-18.7   c-1.4-2.4,0.2-13.2-3.4-13.4c0.6-2.6-2.2-5.7-4.9-5.6c-0.3-0.8-0.6-1.6-1.3-2.1c2.7-7.1-11-11-13.6-4.2c1.4-0.3,2.8,0.7,3.9-0.6   c0.3,0,0.6,0,0.9-0.1c0,0.3-0.1,0.6-0.2,1.2c0.7-0.3,1.2-0.5,1.4-0.6c1.7,1.3,3.5,1.2,5.4,1.5c0.2,1.1-0.8,1.4-1.5,2   C582,9,580.5,7.6,579.2,9c-0.4,0-0.9,0-1.3,0L577.7,9c0-1.2-3.7-1-3.3,0c-1.2-1-1.9-2.3-3.6-0.7c-0.2,0.7,0.2,1.5-0.7,2   c-0.4-2.1-0.4-2.1-2.2-1.3c-1.4,0.5,0,2.4-1.5,2.8c-0.3-0.9-0.6-1.9-1-3c-0.6,0.1-1.1,0.3-1.6,0.4c-0.2,1.2,0.5,2.7-0.8,3.3   c-0.2-0.7-0.4-1.4-0.7-2.2c-1,0.6-1.5,0.8-2.1,1.5c0,0,0,0,0,0C558.5,11.1,558.2,15.3,556.7,12.9z" />
	<path display="inline" fill="#090808" d="M419.7,248.9c-0.3,0.3-0.7,0.6-1,0.9c-15.4-3.7-31.4-5.1-46.7-9.2c0.5-1,1.5-0.5,2.3-0.8   C389.6,241.6,405,244.3,419.7,248.9z" />
	<path display="inline" fill="#1C1A18" d="M550.1,49.5c-2-3.3,0.2-6,1.5-9.2c-0.7-6.5,0.4-13.4,1.7-19.7c0,1.1,0,2.2,0.7,3.1   c0,0.2,0,0.5,0,0.7c-1.2,0.6,1.7,0.9,0.6,2.4c-0.3-0.2-0.7-0.4-1.4-0.9c1,2.4,0.5,5.4,2.3,6.8c-0.2,0.5-0.5,0.9-0.7,1.4   c-0.6-0.5-0.9-1-1.7-1.1c0,0.5,0,1.1,0,1.7c1.1,0.3,2,0.8,3.1,0.8c-0.7,0.9-1.4,1.9-2.1,2.8c-0.6,0.2-0.7,0.4-0.1,0.7   c-0.1,1.7,0.3,3.4-0.6,4.9c-0.4-0.2-0.8-0.4-1.3-0.7c-0.2,0.1-0.4,0.1-0.6,0.2c3.9,2.5,1.6,5.7,3.2,8.8c0.4,0.2,0,0.9-0.2,1   c-2.8,0.5,1.1,3.3-1.2,4.6c-0.2-0.1-0.2-0.3-0.2-0.5c-0.9-0.9-0.1-2.3-1.2-3c-0.2-2.2,0.9-4.6,0.7-7c0.7-0.4,0.4-0.6-0.1-0.7   c0,0,0,0,0,0c-2.2-3.4-2.7,0.9-1.3,2.7c-0.2,0.5-0.4,0.9-0.5,1.4c-0.2-0.1-0.3-0.3-0.3-0.5C550.4,50,550.2,49.7,550.1,49.5z" />
	<path display="inline" fill="#1C1A19" d="M595.2,50.1c0.2,0.7-0.3,1.6,0.6,2.1c0,0.9,0.1,1.6,1.3,1.9c1.8-3.6,4.2-7.2,3.6-11.4   c-0.7-0.2-1.3-0.3-2-0.3c0.4-0.6,0.8-1.2,1.4-2c-1.2,0-1.5-0.1-2.6-0.3c-0.1-2.7-1.1-6.6,0.4-8.8c0,2.6,0,5.3,0,8.3   c0.9-0.5,1.6-0.8,2.4-1.3c5.9,4.6,0.8,13.1-3,17.4c-0.6-0.1-1.2-0.1-1.9-0.2c-0.5,1.8-1.1,3.5-1.6,5.3c-0.3-0.7,0.3-1.8-0.8-2.3   C593.3,55.6,593.8,52.8,595.2,50.1z" />
	<path display="inline" fill="#191817" d="M483.6,267.9c1.9,1-0.3,3.6,1.4,4.8c1.5,4.3,0.1,8.6,2.4,13c-1,1.3-0.7,2.9-0.4,4.5   c0.4,1.6-0.2,3.5,0.8,5c0.7,0.1,1.8,0.6,2.3,0.9c-0.1,0.3-0.1,0.5-0.2,0.8c-0.4,0-0.8-0.1-1.6-0.1c0.6,2,2,2.3,3.7,3   c0,0.3,0.1,0.6,0.1,0.9c-2.4,1-5.6-1.5-5.7-4.5c-0.3-3.3-2.7-7-0.9-10.3C484.1,279.9,483.9,274,483.6,267.9z" />
	<path display="inline" fill="#151311" d="M705.4,191.8c0.7,2.5,0.7,2.5-1.1,5.5c-0.2,1.5,0.6,3.2-0.9,4.5c-0.2-0.1-0.5-0.2-0.7-0.2   l0.1,0.1c0.7-2,1-4.1-0.7-5.7c0-0.1,0-0.3,0-0.4c2.3-0.8,2.6-1.8,1-4.4c-5.2-0.6-10.4-0.4-15.6-0.7c0.2-0.4,0.4-0.8,0.7-1.2   C693.2,189.7,702.6,187,705.4,191.8z" />
	<path display="inline" fill="#1B1A18" d="M562.6,71.7c-1.6,1-0.6,3.5-0.9,5.1c-1.3-5.5-3.9-11.8-6.9-16.9c1-0.7,1.3-2,2-2.8   C558.1,62.3,559.7,67.2,562.6,71.7z" />
	<path display="inline" fill="#1D1A17" d="M554,23.6c-2.1-3.5,0.6-7.8,2.7-10.7c1,1.7,1.3,0.3,2.1-0.4c0,0,0.3,0.1,0.3,0.1   c-0.7,1.7,0.4,2.9,1.3,4.1c0,0.3,0,0.6-0.1,0.8c-0.9-0.8-1.7-1.7-2.7-2.6c-0.1,2.1,1.2,3.3,2.5,4.7c-0.4,0.2-0.8,0.4-1.1,0.6   c-1-1.1-1.8-2.5-3.5-3.6c0.1,1.2,0.1,1.9,0.2,2.5c-0.5,0.7-1,1.3-1.4,1.9c0.4,0.8,0.8,1.6,1.1,2.2C554.8,23.4,554.4,23.5,554,23.6z   " />
	<path display="inline" fill="#211F1E" d="M374.3,239.9c-0.7,0.3-1.8-0.2-2.3,0.8c-4.1-1.4-8.9-1.6-12.6-4c0-0.3,0-0.6,0-0.9   C364.7,236.3,369.5,238.1,374.3,239.9z" />
	<path display="inline" fill="#21201F" d="M705.4,191.8c-0.7-0.7-0.5-1.9-1.5-2.2c2.9-2,0.9-5.2-1.2-6.9c-0.1-0.9-0.1-1.8,0.1-2.7   c0.2,0,0.4,0,0.6,0c0.1,0.8-0.3,1.9,0.9,2c3.8,2.1,4.8,5.6,1.1,8.6C705.3,190.9,705.4,191.4,705.4,191.8z" />
	<path display="inline" fill="#322D2A" d="M556.8,57.1c-0.7,0.8-1,2-2,2.8c-0.9-0.4-1.2-1.2-1.4-2.1c0.7-0.3,0.6-0.9,0.7-1.5   c0.4,0.6,0.7,1.3,1.1,2.1c0.6-1.3-0.1-4.1-1.3-3.3c-1.4-1.7,0.4-1.1,1-2.4C555.6,54.2,556.2,55.7,556.8,57.1z" />
	<path display="inline" fill="#38322E" d="M492.1,300.8c0-1-0.4-2-0.6-3c0.2-0.3,0.4-0.5,0.6-0.8c1,1,1.4,2.4,2.1,3.6   c-0.3,0.3-0.5,0.5-0.8,0.8C492.9,301.3,492.5,301,492.1,300.8z" />
	<path display="inline" fill="#323232" d="M250.7,222.7c-0.3-2-1.4-1.2-2.8-3c2,0.4,3.1,0.6,4.3,0.8   C250.9,220.7,251.5,222.2,250.7,222.7z" />
	<path display="inline" fill="#322D2A" d="M550.8,50.8c0.2-0.5,0.4-0.9,0.5-1.4c0.4,0.4,0.8,0.8,1.3,1.2c-0.2,1-0.4,2.1-0.6,3.1   C551.6,52.8,551.2,51.8,550.8,50.8z" />
	<path display="inline" fill="#F6D9C7" d="M645.4,130.5c-0.2-0.5-0.4-1-0.6-1.5C645.5,129.3,645.5,129.9,645.4,130.5z" />
	<path display="inline" fill="#322D2A" d="M552.1,54.3c0.7,0.3,0.6,0.9,0.6,1.5C552.5,55.4,552.3,54.8,552.1,54.3z" />
	<path display="inline" fill="#443F3B" d="M704.2,182c-0.9-0.1-0.9-0.7-0.9-1.4c0.2,0,0.5,0,0.7,0.1   C704.1,181.1,704.2,181.5,704.2,182z" />
	<path display="inline" fill="#F6D9C7" d="M646.2,132.5c-0.2-0.1-0.4-0.2-0.6-0.2c0-0.4,0-0.7,0-1.1   C646.2,131.4,646.2,131.9,646.2,132.5z" />
	<path display="inline" fill="#322D2A" d="M550.1,49.5c0.2,0.3,0.3,0.6,0.5,0.8C550.4,50,550.2,49.7,550.1,49.5z" />
	<path display="inline" fill="#322D2A" d="M552.8,56.4c0.2,0.3,0.3,0.6,0.5,0.9C553.1,57.1,553,56.7,552.8,56.4z" />
	<path display="inline" fill="#E7CCBB" d="M702.6,201.6c0.2,0.1,0.5,0.2,0.7,0.2c-0.2,0.2-0.5,0.3-0.7,0.5   C702.7,202,702.7,201.8,702.6,201.6z" />
	<path display="inline" fill="#F6D9C7" d="M254.1,214.1c-1-3.8,0.9-7.3-0.5-11.2c28.9,0.3,57.7,0.1,86.3-2.2   c16.7,3,32.7,9.1,49.7,9.8c25.2,0.6,50.2-4.1,75.5-3.2c7.6,11.5,14,26.4,11.4,40.1c-12.2-3.3-25-0.7-37.1-3.5   c2.8-1.5,9.6-0.9,10.5-4.2c-13.2-4.8-28.1,2.3-41.7,2.3c-4.9-2.3-10.5-1.2-15.5-2.7c-4.3,0.7-7.1-3.8-11.3-3.4   c-2.9,0.3-5.6-2.2-8.2-0.8c-9.8-6.2-21-8.9-31.2-14.2c-1.9-1-4-1.7-6.3-0.5c-1.6,0.6-3-0.5-4.8,0.5c1.9,0.7,2.9,1.1,4.6,2.1   c1.3,4.2,7.1,5.3,10.5,7.6c-16.2,3.9-32.7-1.3-48.3-7.9c6.1-0.3,11.2,0.5,16.6-1.9c-8.5-4.1-17.9-2.6-26.9-3.2   C276.7,213.4,264.4,216.3,254.1,214.1z M363.2,225.4c-0.3,4.5,13.6,7.7,11,2.6C369.9,229.1,367.5,225.1,363.2,225.4z M361.9,225.1   c-0.3-0.8-7.1-3.8-7-2.1C357.1,223.6,359.6,226.5,361.9,225.1z M313.8,217.8c0,0.2,0,0.4,0,0.6c0.4-0.1,0.7-0.2,1.1-0.2   c0-0.1,0-0.2,0-0.3C314.6,217.8,314.2,217.8,313.8,217.8z M325.6,220.2c0-0.1,0-0.2,0-0.3c-0.5,0-1,0-1.5,0c0,0.1,0,0.2,0,0.3   C324.7,220.2,325.2,220.2,325.6,220.2z" />
	<path display="inline" fill="#F6D9C7" d="M559,296.5c-2.6,15.9-3,32.2-7.4,47.8c-2.3,12.2-7.7,23.8-5.3,36.4   c-0.6,0.5-1.2,1.1-1.8,1.7c5.8,32.4-0.7,66.6,4.2,99.3c-1.3,0.9-3.1,0.4-4.1,2.1c0,1.3,0,2.8,0,4.3c-2.5,1.4-5.1,2.8-7.6,4.2   c-2-1.1-2.7-2.8-2.5-5.3c0.9,0.7,1.6,1.1,2.6,1.8c0.3-2.9,0.7-5.5-0.4-8.4c2.6-6.7,3.7-37.3-1-42.9c-2.4,5-0.4,10.9-2.5,15.9   c-4-17-12.9-37-7.7-54.4c3.3,6.9,5.4,12.9,7.4,20.4c0.8-4.4-0.9-5.6-1.8-9.2c0.1-1.2,0-2.4-0.8-3.5c-0.2-0.8-1.7-0.9-1.3-2.1   c1,0.2,2,0.4,2.9,0.6c4-9.8-12.3-22.4-10.3-32.8c0.6-10.2-1.9-20.7-1.1-30.8c2-9.4,8.5-17.4,9.5-26.8c-5.1,0.5-6.9,4.4-10.1,7.5   c-0.1-9.9,0.4-19.6-0.7-29.2c13.3,3,26.8,0.9,39.5-2.8C559.4,292.4,558.7,294.5,559,296.5z M528.8,372.7c-3.3,3.4,1.6,8.9,1.6,13   c0,1.4,1.5,0.6,2,1.5c0.8,1.1,1.6,2.1,2.8,2.9c0.9,0,2-0.1,3.3-0.2C538.3,384.2,536.3,371.7,528.8,372.7z M531.4,369.6   c3.2-1.3,5.4-6.4,5.9-8.7c-2.5,1.8-4.3,5.4-6.6,7.7C531.1,369,531.2,369.3,531.4,369.6z M543.8,372.6c-0.2,2.5-0.4,4.9,0,7.6   C545.5,375.2,545.5,373.7,543.8,372.6z M536,430.7c0.5-1.8,0.5-1.8-0.7-3.2C535.2,428.5,535,429.5,536,430.7z" />
	<path display="inline" fill="#FFF0A7" d="M598.2,113.9c1.6-5.3,1.5-10.7,3.2-16.1c2,0.7,3.7,1.3,5.5,2c-0.7,11.8,3.4,22.4,8.7,32.7   c-3,2.3,7.1,17.4-2.8,22.7c-9.3,4.8-28.5,3.8-34.5-5.9c-4.1,0.7-4.8-3.8-8.5-4.1c-0.6,4.6,4.2,7.1,5.2,11.2   c7.1,8.2,25.1,12.7,34.9,8.1c0.8,0.2,0.8,0.9,0.8,1.5c-3.9,6.8-7,14.2-11.3,20.8c-18.8-9.6-40.2-15.5-61.2-18   c0.4-3.9,2.6-6.5,5.8-8.1c5.4,1.2,10.5,0.4,14.4-3.4c-4.1-3.3-8.9-3.3-13.8-4c-1.5-2.6-5.1-3-7.6-4.6c-7.5-3.6-10.8-13.2-8.4-20.5   c12.6-8.5,25.4-19.6,22.5-36.7c1.1-0.9,2.6-1,4.1-1.5c3.1,14.6,0.1,32.6,11.4,43.9C580.4,142.9,596,127.9,598.2,113.9z" />
	<path display="inline" fill="#FF9A77" d="M504,262.9c-5.7-17.3,0.6-36.8,1.5-54.8c3.9,6.1,9.1,8.5,15,11.8   c15.4,10.8,31.4,22.2,50.8,23.5c-0.9,15.9-12.3,29-12.5,45.2c-13.3,3-26.7,4.1-40.3,1.9c-2.2-2.4-1.1-6.2-1.3-9.2   c-4.4-10.2,11.2-9.6,14.5-16.6c-3.4-0.8-6.1,2.4-9.2,3c-0.3-0.3-0.6-0.6-0.9-0.9c-3.9,0.4-7.7,0.8-11.5,1.2c0,0,0,0,0,0   c1.2-2,3.7-1.7,4.3-4.1C509.9,262.9,506.8,267.4,504,262.9z M523.4,237.2c-2.4,1.9-2.4,2-2.4,4   C522.7,239.5,522.7,239.5,523.4,237.2c0.2-0.1,0.3-0.1,0.3-0.4C523.6,237,523.5,237.1,523.4,237.2z M553.4,266.5   c1.8,1.1,3.9,1.3,6,1.8c-1.3-2.2-4.5-1.6-6.6-2.6c-0.1-0.6-0.1-1.1-0.2-1.9c-2.6-0.7-6.6-2.4-8.8-1.6c2.5,1.6,5.3,2.1,6.9,4.3   C551.5,266.5,552.4,266.5,553.4,266.5z M506.1,258.2c3.3-1.9,5.2-5.4,7.8-9C510.8,251.5,507.4,254.6,506.1,258.2z M556.6,263.8   c1.7,1.1,5.2,3.2,6.5,1.1C560.9,264.3,558.8,263.5,556.6,263.8z" />
	<path display="inline" fill="#F6D9C7" d="M529.7,224.6c-4.9-4-9.8-7.9-14.7-11.9c0.2-16.7,22.1-19.3,18.1-37.4   c0.9,0.4,1.6,0.7,2.2,1c1.3-1.3-0.1-2.5,0.1-3.8c20.3,0.1,44.6,7,62.5,16.7c-11.8,15.9-24.4,31.5-26.3,51.9   c-12.8-2-24.6-7.9-36.3-13l0,0C533.4,226.9,531.6,225.7,529.7,224.6z M529.7,204.3c-0.7-0.7-1.5-1.2-3.2-1.2   c2.3,1.5,11.8,11,12.1,5C535.5,207.2,532.3,206.3,529.7,204.3z" />
	<path display="inline" fill="#F6D9C7" d="M501.8,301.4c-6.8-2,0.3-11.4-4.6-16c-0.3,0.2-0.5,0.4-0.8,0.5c0.1,3.3,1.7,6.8,0.6,9.9   c-1.1-0.3-2.2-0.6-3-0.9c-5.2-12.8-2.3-26.9-3.4-40.5c-0.7-17.5-4.2-34.8-2.7-52.3c1.1-11.8,1.3-16.2,8.4-25.7   c5.7-15.7,7.5-32.8,15-48c1.1,0.5,1.7,1.7,3.2,0.6c-1.8-12.8,3.6-24.6,11.2-35.1c7.2-3.8,15-0.9,22.8-2.4   c1.6,13.9-7.8,29.2-21,33.9c0.1-1.2,0.2-2.2,0.3-3c-2.8-3.1-6.6,12.2-7.9,14.2c-2.1,2.4-0.2,5,0,7.9c-5.5,14-9.6,29-15.2,43   c-2.6-4,1.1-8.5,1.9-12.4c-3.9,2.6-5.2,8.2-4.4,12.7c0.8,0.3,1.3,0.5,1.7,0.7c-2.1,9.6-0.3,20.3-1.5,30.4   c-1.1,13.4-6.2,28.8-1.4,41.8c16.8,18.9,7.6,10.5,16.1,31.1c-10,1.7-4.4-15.6-7.2-15.2c-1.2,7.7-0.5,16.1-1.4,23.8   c-7.3-2.9-1.8-14.2-5.4-16.1c-1.3,5.2-0.2,11.3,0.3,16.8C502.6,301.2,502.2,301.3,501.8,301.4z M502,299.5   c-1.7-1.5-1.7-1.5-2.3-0.3C500.3,299.2,500.8,299.3,502,299.5z" />
	<path display="inline" fill="#DFAB7C" d="M691,202.2c1.3,0.1,2.5,0.1,3.9,0.2c-12,130.8-21.8,262.6-34.5,393.2   c-1.7,0.5-3.4,0.6-5.1,0.2c10.3-130.9,23.6-262,34.3-393.2C690.1,202.5,690.5,202.3,691,202.2z" />
	<path display="inline" fill="#E1C7B6" d="M254.1,214.1c10.4,2.2,22.7-0.7,33.3,3.4c9,0.5,18.4-0.9,26.9,3.2   c-5.3,2.4-10.5,1.6-16.6,1.9c15.5,6.6,32,11.8,48.3,7.9c-3.4-2.3-9.1-3.4-10.5-7.6c-0.7-0.4-1.3-0.7-1.9-1c0.4-0.1,0.9-0.2,1.3-0.3   c0-0.1,0-0.3,0-0.4c-0.4-0.1-0.8-0.2-1.2-0.2c0-0.2-0.1-0.4-0.1-0.5c3-0.1,5.7-1.6,8.4,0.4c10.2,5.3,21.3,8.1,31.2,14.2   c2.6-1.4,5.3,1.1,8.2,0.8c4.2-0.4,7,4.1,11.3,3.4c5,1.5,10.6,0.4,15.5,2.7c13.5,0,28.5-7.1,41.7-2.3c-0.9,3.2-7.6,2.7-10.5,4.2   c12.1,2.8,24.9,0.2,37.1,3.5c0.2-1.6-0.3-3.3,0.8-4.6c-0.4,5.9,1.8,14.7-3.1,18.8c-37.1-12.6-76.8-16.3-114.7-25.8   c-0.6-1.2-1.7-1-2.7-0.9c-13.9,1.1-27.8-0.2-41.6-2.2c-17.8-5.3-34.9-10.6-53.6-12.5c-4.1-4.3-11,0.3-15.7-3.1   C248.8,216.4,252.1,216.9,254.1,214.1z M353.3,229.3c-1.9-1.2-3.8-2.1-6.2-2c3.9,1.7,6.7,4.3,11.1,5   C356.8,230.4,354.9,230.1,353.3,229.3z M341.7,224.2c-0.4-0.2-0.6-0.3-0.9,0.1C341.2,224.5,341.5,224.6,341.7,224.2z" />
	<path display="inline" fill="#E1C7B6" d="M533.1,453.5c2.1-5,0.1-10.9,2.5-15.9c4.8,5.4,3.7,36.3,1,42.9c1,2.2,0.5,4.4,0.6,6.6   c-3.1-3.3-1.1-8.8-3.1-13.2c-0.2,1.2-0.4,2.1-0.6,3.7c-8-38.7-19-44.3-14.4-87.2c1.5,0.1,0.9,2.1,2.2,2.3   c-3.6-9.9-7.2-19.1-5.2-30.4c-0.3-17.6-5.4-34.8-8.1-52.2c0.5,0.1,1.1,0.2,1.5,0.3c3.4-5.4-0.4-12.4,1.4-18.4   c1.4,0.9,2.8,1.9,4.1,2.7c1.5-0.6,2.7-1.1,4-1.6c1.1,9.7,0.6,19.3,0.7,29.2c3.2-3.1,5-7,10.1-7.5c-1,9.5-7.4,17.4-9.5,26.8   c-0.8,10.1,1.6,20.6,1.1,30.8c-2,10.4,14.3,23,10.3,32.8c-0.9-0.2-1.9-0.4-2.9-0.6c-2.3-5.8-3-10.4-5.1-11.1   c-0.5,2,0.9,3.6,1.5,5.5C520.2,416.5,529.2,436.5,533.1,453.5c-0.2,1.6,0.5,3,1.4,4.2c0.1,1.3-0.3,2.7,0.4,4.3   c0.5-1.7,0.8-3.1-0.4-4.3C534.3,456.3,535.3,453.4,533.1,453.5z M535.2,466.6c-0.8,1.1-0.8,1.9-0.3,3   C535.8,468.6,536.1,467.9,535.2,466.6z" />
	<path display="inline" fill="#F6D9C7" d="M589.7,81.6c2.1,5.8,6.4,10.1,10,15.3c-2.6,14.7-6.6,39-26.7,36.8   c-0.2-2.8,1.1-5.3,1.3-8.1c2-0.7,3-2.1,4.1-4c-4.4,1.4-6,7.3-7.4,11.6c-8-3.3-13.7-34.1-13.2-42.5c2.3,1.9,3.8,2.3,6.5,1.5   c1.3,1.1,2.5,3,4.4,2.6c0.7,0.5,1.1,1.3,1.7,1.9c0.8,0.4,1.4-0.8,0.4-1.1c0-0.2,0-0.5-0.1-0.7c2-1.5,5.2-1,6.8-3.1   c1-1.5,2.4-2.4,3.6-3.6c3.3-2.8,3.6-9.4,7.8-10.9c0,0,0,0,0,0C589.1,78.8,588.5,80.5,589.7,81.6z M587.1,85.4c1-2.6,1-2.6-0.1-3.8   C586.6,82.9,586.5,84.1,587.1,85.4z M573.7,97.4c-0.4-0.2-0.7-0.3-1-0.4C572.1,98.1,573,98.5,573.7,97.4z M580.7,93.5   c-0.8-1-1.7-0.5-0.9,0.5C580,93.9,580.2,93.8,580.7,93.5z M586.3,91.2c0.8-1,1-1.7,0-2.8C586.3,89.6,586.3,90.3,586.3,91.2z" />
	<path display="inline" fill="#C69467" d="M691,202.2c-0.4,0.1-0.9,0.3-1.5,0.4c-10.6,131.1-24,262.3-34.3,393.2   c-1.4-0.1-2.8,0.4-4.1-0.8c11.1-130.9,24.6-262.1,36.8-393.1C689.1,201.5,690.1,201.5,691,202.2z" />
	<path display="inline" fill="#F7EFD0" d="M561.1,501.6c-0.7,0.5-1.5,1-2.2,1.5c0.9,2.1,4,1.2,5,2.8c-0.2,0.4-0.3,0.8-0.5,1.1   c1.9,1.6,5.9,2.4,6.7-0.5c0.3,0,0.5,0,0.8-0.1c3.7,7.1,17.8,10,12.5,19.6c-8.5,1.6-16.4-0.6-24.8-1.5c-3.8-2.2-14.5-21.7-16-9.8   c-6.6-0.2-10-5.1-14.3-9.3c3-3.5,3.2-8.7,6.4-11.6c0.8,0.3,1.5,0.5,2.6,0.9c3-2,6.2-3.8,9.7-5.3c-0.3-1.4-1.2-2.7-0.3-4.2   c4.2-0.1,8.6-2.8,12.6-0.7c0.1,2.9,0.2,5.6,0.3,8.3c-1.8,1.4-9,1.7-7.2,4.6c1.4,0.1,3.2-0.3,4.4,0.7c-0.7,0.5-1.4,1-2.5,1.8   c2.5,0.7,4.6,0.8,6.7,1C561,501.1,561,501.4,561.1,501.6z M566.5,511.1c2.3,0.8,6.7,3.3,6.4-0.8   C570.6,509.9,568.7,509.7,566.5,511.1z" />
	<path display="inline" fill="#E1C7B6" d="M525.5,94c-7.6,10.5-13,22.3-11.2,35.1c-1.5,1.1-2.1-0.1-3.2-0.6   c-7.5,15.2-9.3,32.2-15,48c-7.1,9.6-7.3,13.8-8.4,25.7c-0.7,27.8,3.8,56.1,3.5,83.9c-0.3,0.1-0.7,0.1-1.2,0.2   c-0.2,2.5,0.4,4.9,1.1,7.2c-0.8,0.9-0.6,2-0.6,3l0.1,0c-0.2-0.1-0.4-0.2-0.6-0.2c-0.5-0.4-1.6-0.9-2.3-0.9c-1-1.6-0.4-3.4-0.8-5   c-0.4-1.6-0.7-3.2,0.4-4.5c-4.3-16.1-0.2-33.2-3.5-49.9c-3.8-24,1.4-47.4,8.8-70C495.2,150.8,511.1,98.3,525.5,94z" />
	<path display="inline" fill="#F7EFD0" d="M194.7,197.5c-0.8-3.4,1.2-7,1.6-10.4c1.1,0.8,0.8,2.2,1.2,3c-0.1,1.3-1.3,1.9-0.8,3.3   c0.7-0.8,1.3-1.4,1.8-1.9c-0.3-3-0.5-5,0.3-7.8c3.4-1.5,6.9-2.6,10.5-3.6c10.9,4.8,18.6,15.4,31,16.9c-0.1,0.9-0.3,1.3,0.1,2.3   c2.8,1.5,6.2,0.5,9.1,1.2c1.2,4.3,2.6,7.8,1.6,12.9c-1.9,1.1-4,1.1-6.3,0.2c-0.7,1.4-1.3,3-3.1,2.7c-1.6,0.5-0.5,1.8-1.6,2.5   c-2.6-0.3-4.7-2.4-7.5-1.3C221,209.1,204.7,208.9,194.7,197.5z M217.8,193.3c-4.6,1-0.2,4.6,0.1,6.9c0.3,1.9,0.3,1.9,2.5,2   c0.7-2.1,3.8-10.7-1.3-8.3C218.7,193.7,218.2,193.5,217.8,193.3z M231.7,206.5c0.5,1.2,0.7,2.4,1.8,3.3c1.8-1,2.5-1.9,1.8-3.5   c-1.2-2.7,0-5.3,0-8c-1.5-0.9-1.5-0.9-2.8,0.5c-1.1-1.5-2-4.1-4.1-2.1c-5.2-7.3-8.5,9.3-3,10.1c0.4-0.3,0.9-0.7,1.5-1.1   c0.2,0.1,0.4,0.1,0.7,0.1c0.4,2.2,2.4,2.7,3.6,0.6C231.3,206.5,231.5,206.5,231.7,206.5z M239.2,211.8c0-3.5-1.2-7.1,0.2-10.6   c0.1-0.4-0.5-1.1-0.9-1.9C234.9,200.6,234.4,214.2,239.2,211.8z" />
	<path display="inline" fill="#E1C7B6" d="M536.8,172.2c-0.4,0.1-0.9,0.2-1.3,0.3c-0.1,1.3,1.2,2.5-0.1,3.8c-0.6-0.3-1.3-0.6-2.2-1   c4,18.1-17.9,20.6-18.1,37.4c-4.2-2.1-5.7-7.2-9.6-9.2c-0.2-2.9-0.5-5.8-0.7-8.7c11.9-2.8,15.5-15.1,15.5-26.4   C525.5,170.2,531.1,171.2,536.8,172.2z" />
	<path display="inline" fill="#EBDA8F" d="M529.7,127c-5.2,6.3-0.2,18.2,7.2,21.6c2.5,1.6,6.1,2,7.6,4.6c5,0.8,9.8,0.8,13.8,4   c-3.9,3.8-8.9,4.6-14.4,3.4c-3.3,1.6-5.4,4.2-5.8,8.1c-6.1-0.2-12.2-1.1-18.1-2.9c-1.1-5.9-1.1-12.3,1.4-17.9   c3.7,6,10,8.4,16.2,9.8c-5.3-4.4-13.1-7.2-14.6-14.8C523.3,138.3,522.9,126.2,529.7,127z M545.7,157c-1.4,0.1-2.7-1-4.5-0.4   c1.6,2.5,5.2,1.7,7.8,1.3C548.1,156.5,546.8,157,545.7,157z" />
	<path display="inline" fill="#E0C7B6" d="M683.2,200.2c0.6,0.4,1.1,0.8,1.7,1.2c-6.1,4-37.8-13-40.7-20.8   c-6.8-15.2-20.2-27.1-23.8-43.8c0.4-0.5,0.9-1,1.3-1.5c6.7,12.2,12.1,26.2,25.8,31.5c-0.1,0.7-0.7,1.3,0,2c-0.9,1-1.8,2-2.8,3.1   c3.9,15.8,21.9,23.5,36.3,26.3C681.5,199,682.4,199.6,683.2,200.2z" />
	<path display="inline" fill="#EADCB7" d="M534.8,493.9c-3.2,2.9-3.4,8.1-6.4,11.6c4.2,4.2,7.6,9.2,14.3,9.3   c1.4-11.9,12.1,7.6,16,9.8c8.4,0.9,16.4,3.1,24.8,1.5c-0.5,0.9-1,1.8-1.3,2.4c-5.4,1.4-10.3,4.2-15.8,2.1   c-5.5-2.8-15.1-2.4-15.8-10.2c-0.7-2.7-3.2-5.2-6.4-4.9c-0.1,0.7-0.2,1.3-0.3,2.1c-7.6,1.3-14.2-2.1-18.2-8.8   c2-6.1,4.5-12.7,3.4-19.2c-0.3-2-0.2-2.5,1-5C533.9,486.4,531.6,491.5,534.8,493.9z" />
	<path display="inline" fill="#EBDA8F" d="M578.7,160.3c-1.3-1.4-2.7-2.8-4-4.2c-0.7-4.2-5.7-6.4-5-10.9c3.7,0.3,4.4,4.8,8.5,4.1   c6.7,10.4,26.9,10.8,36.7,4.8c-3.1,8.1-11.4,11.6-19.6,10.4c-1.2-0.7-2.4-1.3-3.5,0.1c-3.4-0.4-7.4-1.4-10.5-2.8   c0.8-0.1,1.8,0.6,2.7-0.5C582.6,160.5,579.8,158.7,578.7,160.3z" />
	<path display="inline" fill="#E1C7B6" d="M589,77.3c-3.5,0.9-4,6.1-6.2,8.7c-1.2,2.5-3.8,3.4-5.3,5.8c-1.6,2-4.8,1.6-6.8,3.1   c-3.2-4.1-4.5-9.5-7.1-14c1.3-1.5,0.6-3.7,0.8-5.6c9.3,5.4,15.4,5.7,23.7-2C588.5,74.6,588.8,76,589,77.3z" />
	<path display="inline" fill="#EADCB7" d="M194.7,197.5c10,11.5,26.3,11.7,38,20.1c2.8-1,5,1,7.5,1.3c1.1-0.6,0.1-2,1.6-2.5   c-0.2,0.5-0.3,1.1-0.5,1.7c1,0.7,1.9,1.4,2.8,2.1c-0.8,0.3-1.8,0.4-2,1.5c-6.9,3.9-15-3.5-20.9-6.9c-2.9-3.7-7.4-0.6-10.9-3.1   C203.6,208.9,195.3,205.7,194.7,197.5z" />
	<path display="inline" fill="#060404" d="M519.2,293.1c-1.3,0.5-2.5,1-4,1.6c-1.3-0.9-2.7-1.8-4.1-2.7c-0.1,1.1-0.2,2.2-0.3,3.2   c-1-2.3-1-6.7,0-9c0.7,3.3,1.7,6.7,6.2,5.8c-4.6-8.4-3.1-18.7-11.1-25.2c0.2-0.8,0.8-0.9,1.5-0.9c0.9,0.7,1.8,1.4,2.8,2.2   c0,0,0,0,0,0c6.2,5,3.4,13.5,7,19.6c0,1.3,0.8,2.1,1.4,2.9c13.7,2.3,27,1.2,40.3-1.9c0.3-1.1,0.6-2.3,0.8-3.5   c-0.5,3.6,1.1,8.3-0.6,11.4c-0.3-2,0.4-4.1-0.3-6.2C546,294,532.5,296.1,519.2,293.1z" />
	<path display="inline" fill="#FC9876" d="M480.9,250.4c0.2-15.7-1-32.1-12.8-43.8c4.7-0.3,8.4-1.6,12.8-3.5   c-1.7,15.9,2.1,31.2,1.2,47.1C481.5,250.3,481.2,250.4,480.9,250.4z" />
	<path display="inline" fill="#FCFCFC" d="M516.6,160.9c1.2,11.2,1.3,25.3-10.9,30.2C507.1,183.3,513.1,169.4,516.6,160.9z" />
	<path display="inline" fill="#DDC4B3" d="M556.8,57.1c-0.6-1.5-1.2-3-1.9-4.5c0-0.2,0-0.3-0.2-0.4c-0.9-4.6-0.9-9.3-0.7-14   c0.7-0.9,1.4-1.9,2.1-2.8c0.5-0.2,1,0.1,1.5,0.1c-0.2,0.4-0.4,0.7-0.7,1.2c0.5,0.1,0.9,0.2,1.3,0.3c-0.8,1-1.7,0.3-2.5,0.2   c-3.4,10.4,6,20.5,7.4,30.7c2.4,7.6,12.3,7.6,19,7.5C569.4,82.4,558.2,69.2,556.8,57.1z" />
	<path display="inline" fill="#E7CCBB" d="M702.6,196.7c1.4,1.4,0.5,3.3,0.1,4.9c-4,0-8-0.7-11.9-1.5c-1-1.3-2.8-0.2-4.2-0.7   c-1.5-1-1.8-1.8-0.9-3.5c1.6,0.1,3-0.2,4.4,0.1c0.7,0.9,1.3,1.8,2.1,2.9c0.5-0.9,0.9-1.6,1.2-2.2   C696.6,196.7,699.6,196.7,702.6,196.7z" />
	<path display="inline" fill="#DFC6B5" d="M568.8,94.8c-2,0.5-3.2-1.5-4.4-2.6c-2.8,0.8-4.3,0.3-6.5-1.5c-0.1,1.2-0.2,2-0.3,2.9   c-0.9-1.4-0.5-2.9-0.6-4.4c2.6-1.4,5.6-1.7,7.5-4.1c1.5,3.1,2,6.4,4.3,9C568.7,94.4,568.7,94.6,568.8,94.8z" />
	<path display="inline" fill="#E38365" d="M480.9,250.4c0.3-0.1,0.7-0.1,1.2-0.2c0.1-1.3,0.1-2.7,0.2-4c1.3,6.4,1.3,12.8,1.4,19.4   c-1.6-0.2-2.9-0.9-4-1.6C480,259.3,480.5,254.9,480.9,250.4z" />
	<path display="inline" fill="#D8BFAF" d="M504.5,296.4c0.2,1.9,2.7,2.7,3.9,4c1.3-4.6-0.7-10.4,1-15.1c0.4,6.6-0.6,13.4,0.5,19.9   c0.7,1.3-0.2,2.6-0.7,3.6c-0.5,0-0.7,0-1,0C507.7,305.2,502,298.9,504.5,296.4z" />
	<path display="inline" fill="#23201D" d="M508.1,308.9c0.2,0,0.5,0,1,0c1.7-10-1.1-21.8,0.6-32.3c2.3,0.1-0.4,7.1,1,9.4   c-1,2.3-1,6.7,0,9c-1.2,4.9,2.2,10.9-1.1,15.2c-0.4-0.1-1-0.2-1.5-0.3C508.2,309.6,508.1,309.3,508.1,308.9z" />
	<path display="inline" fill="#181514" d="M504.5,296.4c-1.5,1.5-0.5,2.9,0.1,4.3c-1.1,0.9-1.4,2.1-2.8,0.7c0.4-0.1,0.9-0.2,1.5-0.3   c-0.4-5.5-1.6-11.6-0.3-16.8C505.4,284.9,503.8,293.7,504.5,296.4z" />
	<path display="inline" fill="#1A1715" d="M621.7,135.2c-0.4,0.5-0.9,1-1.3,1.5c-0.3-0.8-0.9-0.8-1.6-0.7c0,0,0.1,0,0.1,0   c0.1-0.3,0.1-0.6,0.2-1c1.7-0.2,1.7-2.4,2.7-3.8c-0.1-0.7-0.3-1.6-0.4-2.2c2.5-2.5,2.8-5.4,6.1-6.8   C625.2,126.6,624.2,131,621.7,135.2z" />
	<path display="inline" fill="#4A413C" d="M568.7,94.1c-2.3-2.6-2.7-6-4.3-9c-0.5,0.5-0.9,0.9-1.3,1.4c0.1-1.8-1.1-4.2,0.5-5.6   c2,4.1,4,8.3,5.9,12.5C569.3,93.6,569,93.9,568.7,94.1z" />
	<path display="inline" fill="#2F2A27" d="M503.9,189.7c0-0.3-0.1-0.7-0.2-1.1c-0.4-0.2-0.9-0.4-1.7-0.7c-0.7-3.9-0.2-7.5,2.5-10.7   c0.3,0.3,0.5,0.5,0.8,0.8C501.6,184.2,505.9,187.9,503.9,189.7z" />
	<path display="inline" fill="#D0B8A8" d="M492.8,292.3c0.3,0.8,0.7,1.6,1.1,2.6c0.9,0.2,2,0.6,3,0.9c0,0.8,0.9,1.7-0.2,2.6   c-0.7-0.3-1.5-0.7-2.3-1.1c-0.5,0.2-1.1,0.4-1.6,0.6c-0.2-0.3-0.5-0.5-0.7-0.8c0-0.4,0-0.8,0-1.2c0.2-0.3,0.4-0.5,0.6-0.8   C492.7,294.2,492.7,293.2,492.8,292.3z" />
	<path display="inline" fill="#282320" d="M564.5,73.3c2.7,1.3,5.3,2.7,7.9,4c-0.5,0.2-1,0.5-1.5,0.7c-2.1-0.9-4.3-1.7-6.3-2.7   c-0.2-0.7-0.8-0.6-1.3-0.5C563.7,74.3,564.1,73.8,564.5,73.3z" />
	<path display="inline" fill="#C6BFA7" d="M563.9,505.9c-0.5-1.1-2-0.7-2.8-1.4c2.6-0.3,5.2,0.3,7.7-1c1.1,0.8,1.9,1.7,2.2,3   c-0.3,0-0.5,0-0.8,0.1C568.5,504.6,566,505.3,563.9,505.9z" />
	<path display="inline" fill="#504E44" d="M198.2,186.9c0.1,1.5,0.2,2.9,0.4,4.6c-0.5,0.5-1.1,1.1-1.8,1.9c-0.5-1.4,0.7-2,0.8-3.3   c-0.4-0.8-0.1-2.2-1.2-3C195.9,185.2,197.4,185.9,198.2,186.9z" />
	<path display="inline" fill="#281F1B" d="M529.7,224.6c1.9,1.2,3.7,2.3,5.6,3.5c-0.5,0.1-1.2,0-1.4,0.7c-1.7-1.1-3.4-2.2-5.1-3.3   C529.1,225.2,529.4,224.9,529.7,224.6z" />
	<path display="inline" fill="#D0B8A8" d="M492.8,297.9c0.5-0.2,1.1-0.4,1.6-0.6c-0.1,0.3-0.3,0.6-0.4,0.9c0.7,1.7,3.5-0.1,3.3,2.1   c-1,0.5-2.1,0.9-3.2,0.3C493.7,299.7,493.3,298.8,492.8,297.9z" />
	<path display="inline" fill="#CFC9AF" d="M556.9,498.1c-1.2-1-3-0.6-4.4-0.7c-0.7-1-0.7-1.7,0.4-1.9c0,0.3-0.1,0.7-0.1,1.1   c2.6,0.9,5.3-0.8,7.6,0.8C559.2,497.6,558,497.9,556.9,498.1z" />
	<path display="inline" fill="#504741" d="M683.2,200.2c-0.8-0.6-1.6-1.1-2.1-2c0-1.9,0-3.7,0.1-5.6c0.2,0.3,0.5,0.6,0.7,0.9   c0.1,0.9-0.4,2.1,0.6,2.6c-0.5,1.8-0.3,2,1.3,2.8c0.1,0.2,0.2,0.4,0.2,0.5C683.7,199.7,683.4,199.9,683.2,200.2z" />
	<path display="inline" fill="#ADA372" d="M618.8,136.1c0.4,1,0.2,1.8-0.8,2.3c-1.3-0.9-1.1-2.6-1.9-3.7c0-0.3,0.1-0.5,0.1-0.8   c0.2,0,0.4,0,0.6,0C617.5,134.7,618.2,135.4,618.8,136.1C618.9,136.1,618.8,136.1,618.8,136.1z" />
	<path display="inline" fill="#D4CDB2" d="M561.1,501.6c0-0.2,0-0.5,0-0.7c1.5-0.4,3-0.8,4.7-1.3c0.3,0.4,0.5,0.7,1,1.3   C564.6,501.2,562.8,501.4,561.1,501.6z" />
	<path display="inline" fill="#372620" d="M507.3,265.8c-0.7,0-1.3,0.1-1.5,0.9c-1-1-1.9-1.9-2.9-2.9c0.3-0.3,0.7-0.6,1-1   c1.1,0.7,1.5,2.4,3.2,2.3C507.2,265.4,507.3,265.6,507.3,265.8z" />
	<path display="inline" fill="#BCB17B" d="M610.6,166c-0.1-0.6,0-1.3-0.8-1.5c0.9-0.8,1.1-2.5,2.8-2.7   C612.1,163.9,612.1,163.9,610.6,166z" />
	<path display="inline" fill="#312B28" d="M572.3,129.1c0.2-1.4,1.2-2.4,2-3.5l-0.1,0c-0.4,1.9-0.3,3.9-1.3,5.7   C572.7,130.5,573.3,129.5,572.3,129.1z" />
	<path display="inline" fill="#625B3C" d="M534.4,155.7c1.2,0.3,2.3,0.7,3.1,2c-1.8-0.1-1.8-0.1-3.8-1.4   C534,156.1,534.2,155.9,534.4,155.7z" />
	<path display="inline" fill="#746D4B" d="M591.7,164.6c1.2-1.4,2.3-0.8,3.5-0.1C594.4,165.9,592.8,165.3,591.7,164.6z" />
	<path display="inline" fill="#D2BAAA" d="M684,199.4c0-0.2-0.1-0.4-0.2-0.5c1-1.5,1.9-0.3,2.9,0.6   C685.7,199.4,684.8,199.4,684,199.4z" />
	<path display="inline" fill="#9C9884" d="M560.3,497.4c-0.5-0.2-1-0.5-1.5-0.7c0.9-0.7,1.8-0.8,2.8-0.2   C561.7,497.6,561,497.5,560.3,497.4z" />
	<path display="inline" fill="#968479" d="M563.3,74.7c2-0.5,1.1,2.3,1.2,3.4C564.1,77,563.7,75.9,563.3,74.7z" />
	<path display="inline" fill="#272519" d="M616.2,133.9c0,0.8-0.5,1.5-0.8,2.2c-0.9-1.1-1.4-2.9,0.1-3.6l0,0   C615.5,133.1,615.4,133.7,616.2,133.9z" />
	<path display="inline" fill="#D2BAAA" d="M688.6,199.6c0.8,0,1.7-0.4,2.3,0.5C690.1,199.9,689.3,199.8,688.6,199.6z" />
	<path display="inline" fill="#281F1B" d="M535.3,228.1c0.5,0.2,1,0.5,1.4,0.7C536.1,228.9,535.5,228.8,535.3,228.1z" />
	<path display="inline" fill="#C3AB9D" d="M699.1,203.4c-0.5,0-1.1,0.5-1.1-0.3c0.3-0.1,0.7-0.1,1-0.2   C699.1,203.1,699.1,203.3,699.1,203.4z" />
	<path display="inline" fill="#393939" d="M478,262.4c-0.1,0.1-0.2,0.2-0.3,0.3c-0.1-0.3-0.3-0.6,0-0.8   C477.7,262.1,477.8,262.2,478,262.4z" />
	<path display="inline" fill="#281F1B" d="M534.6,229.3c-0.2-0.2-0.5-0.3-0.7-0.5C534.1,229,534.3,229.1,534.6,229.3z" />
	<path display="inline" fill="#F6D9C7" d="M681.1,192.5c0,1.9,0,3.7-0.1,5.6c-14.4-2.9-32.4-10.5-36.3-26.3c2.5-3.6,8-6.1,6.8-11   c-2.4,1.4-2.7,3.7-4,5.9c-13.7-5.2-19.2-19.3-25.8-31.5c2.5-4.2,3.5-8.6,5.8-12.9c-3.4,1.4-3.7,4.3-6.1,6.8   c0.1,0.6,0.2,1.5,0.4,2.2c-1,1.4-1,3.6-2.7,3.8c-5-10.1-10.2-22.7-8.5-34c5.5,2.2,11,4.2,16.3,6.8c-0.1,0.7-0.2,1.2-0.3,1.9   c16.2,7.7,19.4,29.8,26.2,45.1c2.2,6,7.7,10,11.2,15.3c4.7,4.9,7.5,12.1,14.5,14c0.3-4.5,2.6-8.2,3.4-12.5c1.4-1.2,3.2-0.9,5-1.6   c0.2,2.5,1.6,3.6,2.5,5.6c-5.2,2.5-8.8-1.4-8.3,6.8c-1.5,1.7-0.5,3.3,0.5,4.8c-0.5,0.3-0.8,0.5-1.3,0.8c0.6,0.6,1.1,1,1.5,1.5   C680.2,190.5,680.2,190.5,681.1,192.5z M629.8,119c0.8-0.6,0.8-0.6,0.8-1.4C629.6,118,629.6,118,629.8,119z" />
	<path display="inline" fill="#F6D9C7" d="M557.7,35.6c-0.3-0.1-0.7-0.1-1-0.2c-0.1-2.5-1.4-5.3-0.3-7.7c0.4-1.3,0.5-2.4-0.1-3.4   c0.5-0.8,1.5-1.1,1.3-2.1c0.3-0.1,0.8,0,1-0.2c0.9-1.1,2.4-0.9,3.5-1.5c2-1,4.9,0.4,6.8-1.2c-0.1,0.8,0.8,0.8,1.3,0.6   c2.2,0.4,4.3,1.2,6.4,0.1c0.1,0.2,0.2,0.3,0.2,0.5c0.1-0.1,0.2-0.3,0.3-0.4c1.1-0.5,1.9-1.3,2.8-2.1c0.9,0,1.9,0,2.8,0   c0.7-0.5,1.4-0.9,2.1-1.4c-0.1,0.4-0.1,0.8-0.2,1.2c1.5,0.6,1.4-1.1,2.2-1.2c0,0.5-0.1,1.1-0.1,1.5c1.1,0.8,2.1,1,2.6,2.1   c0.6-0.5,1-0.8,1.6-1.3c0.1,1,0.1,1.7,0.2,2.5c0.5,0.3,0.9,0.5,1.3,0.7c0,1-0.2,2.1,0.7,2.8c0.1,1.4-0.6,3.3,0.7,4.2   c-0.4,1.4-1.2,2.9,0,4.1c1.3,2.2-0.3,5.2,1.1,7.1c1.3,3,1.5,6.7,0.1,9.7l0,0c-4.7,17.9-8.3,34.1-30.3,21   c-2.7-6.8-12.8-28.3-9.2-33.9c0.9,0.1,1.7,0.9,2.5-0.2c4-1.9,7.3,0.6,11.7,1.3C567,34.3,562.1,35,557.7,35.6z M571.5,57.2   c0.8,1,1.5,1,2-0.1c-0.4-1-1.1-1.2-2-0.6c-0.5,0-0.9-0.1-1.4-0.1c0.4-1.2,0.8-2,0.4-3.3C568.3,54.1,568.8,59.3,571.5,57.2   L571.5,57.2z M577,41.6c0.3-0.8,0.6-1.6,1-2.7c-1.5,0.6-1.7,1.4-2.2,2.7C575.6,42.5,577,42.7,577,41.6z M591.1,34.8   c1-0.1,0.6-0.8,0.6-1.3c0-0.8,0.4-1.8-1.1-2.1C590.5,32.6,589.7,33.8,591.1,34.8z M589.6,42.6c2.2-2.6-2.4-2.8-4.2-3.4   c-3.3-1.2-5.3,2.1-7.2,4.3c1.4,1.1,1.8-0.5,2.7-0.7c0.8,0.4,1.2,1.4,2.3,1.2c-0.1,0.4-0.2,0.8-0.3,1.5c0.7-0.1,1.3-0.3,1.9-0.4   c-0.1-0.6-0.2-0.9-0.3-1.2c0.3-0.4,0.6-0.9,0.9-1.3C586.7,42.6,588.9,44.4,589.6,42.6z M579.1,56.4c-1.1-0.5-3.1-1.6-3.4,0.3   c3.2,2.5,6.7-0.9,3.5-3.2C579.2,54.7,579.2,55.5,579.1,56.4z M571.5,69.7c3.3,1.4,10.4,0.4,9.8-4.2c0.7-0.3,1.3-0.7,2-1   c-5-1.9-11.6-2.3-16.8,0c0.7,0.8,1.2,1.3,1.8,2.1C567.3,68.5,569.9,69.9,571.5,69.7z M588,36.4c0.9,0.6,1.8,0.7,2.9,0.4   c-1.3-2.9-14.3-2.3-15,0.9C580.1,37.5,583.8,36,588,36.4z M563.8,44.6c-0.4,0.4-0.7,0.8-1.1,1.2c1.1,0.6,2.1,1.1,3.1,0   c-0.2-0.4-0.4-0.8-0.6-1.2c0.4-0.3,0.8-0.7,1.2-1c1.4,0.9,2.5,0.1,3.8-0.2c-0.1-0.3-0.2-0.5-0.3-0.9c-0.6,0-1.2,0-1.9,0   c-2.8-3.4-7.2-3.5-10.8-1.1c0.5,0.5,0.8,0.8,1.1,1.1c0,0.4-0.1,0.8-0.1,1c1.7,1.6,2.3-1,3.5-0.6C562.4,43.5,562.6,44.7,563.8,44.6z    M575.1,42.8c-0.1,1.8-0.3,3.1,0.3,4.4C576.7,46.2,577.1,44.2,575.1,42.8z M575.5,54.4c-0.1,0.1-0.3,0.2-0.4,0.2   c0.2,0.4,0.4,0.1,0.7,0C575.6,54.6,575.6,54.5,575.5,54.4z" />
	<path display="inline" fill="#070706" d="M610.6,101.1c-2.4,11.8,4.8,24.3,8.3,35c-1.2-1.2-2.3-2.4-3.4-3.6c0,0,0,0,0,0   c-5.2-10.3-9.3-21-8.7-32.7C608.1,100.2,609.8,100,610.6,101.1z" />
	<path display="inline" fill="#211E1B" d="M582.2,75.4c2.1-0.7,3.8-2.1,5.4-3.5c0.2,0.5,0.4,1,0.6,1.4c-4.4,3.8-11.8,8.8-17.4,4.7   C574.5,76.7,578.7,77.8,582.2,75.4z" />
	<path display="inline" fill="#E1C7B6" d="M589.7,81.6c-1.2-1.1-0.6-2.8-0.7-4.2C590,78.6,589.6,80.1,589.7,81.6z" />
	<path display="inline" fill="#DEC4B3" d="M681,182.6c0-1.1,0-2.2,0-3.2c0.6-0.9,1-1.6,1.5-2.3c0.3,10.4,10.5,4.2,16.8,6.4   c-2.9,0.1-5.5-0.3-7.8,1.5c0.4,0.7,0.7,1.2,1,1.7c0.1,0,0.3-0.1,0.4-0.1c0-0.7-0.1-1.5-0.1-2.2c1.2,1.5,1.2,2-0.1,3.8   c0.8,0.3,1.5,0.6,2.3,0.9c-6.5,0-14,2.3-12.7-6.7C681.9,182.4,681.4,182.5,681,182.6z" />
	<path display="inline" fill="#F3D6C4" d="M702.8,180c-0.1,0.4-0.1,0.9-0.2,1.3c-4.3-0.7-11.8,2.7-13.9-2.4c0.5-0.1,0.9-0.2,1.3-0.3   c0.3,0.4,0.7,0.8,1.3,1.6c0-1.9,0-2.5,0.2-4C695.4,176.9,705.3,174,702.8,180z" />
	<path display="inline" fill="#DAA87A" d="M691,169.7c2.3,0,4.4,0,6.6,0c0.4,1.6,0.2,2.9,0,4.5c-2.2,0.4-4.3,0.1-6.6-0.1   C690.5,172.5,690.8,171.1,691,169.7z" />
	<path display="inline" fill="#201C19" d="M691,181.5c2,0,4,0,6.1,0c1.3,1.6,3.7-0.4,4.9,1.3c-0.9,0.2-1.7,0.4-2.6,0.6   c-5.1-2.4-13,3.3-16.1-2.7c0.3-0.8,0.7-1.4,1.3-2C683.3,182.3,688.5,182.6,691,181.5z" />
	<path display="inline" fill="#D2BAAA" d="M691,181.5c-2.5,1.1-7.7,0.8-6.4-2.9c1.8-0.3,3.7-0.6,5.5-0.7c0,0.2,0,0.5,0,0.7   c-0.4,0.1-0.8,0.2-1.3,0.3C689.1,180.3,690,181,691,181.5z" />
	<path display="inline" fill="#7C6E64" d="M690.1,178.6c0-0.2,0-0.5,0-0.7c0.4,0,0.9-0.1,1.3-0.1c0,0.6,0,1.2,0,2.4   C690.7,179.4,690.4,179,690.1,178.6z" />
	<path display="inline" fill="#443F3B" d="M702.8,180c0.1-0.3,0.3-0.6,0.4-0.9c0,0.3,0.1,0.6,0.1,0.9C703.2,180,703,180,702.8,180z" />
	<path display="inline" fill="#BDA98D" d="M566.7,20.1c-3.5-0.4-6.2,1-9.1,2.1c-1.4-0.6,1.3-0.6,0.6-2.1c1.1,0.1,1.9-0.8,3-0.8   c0.4-0.6,0.9-1.3,1.3-1.8c-0.7-1.9-0.6-3.8-2.1-5.1c0-0.2,0-0.5,0-0.7c0,0,0,0,0,0c0.6-0.7,1.1-1,2.1-1.5c1.1,4.6,0.3,5.7,4.2,9.3   C566.6,19.7,566.6,19.9,566.7,20.1z" />
	<path display="inline" fill="#B6A58D" d="M579.9,2.7c3.6,0,5.9,1.5,7.1,4.9c-0.2,0.4-0.5,0.6-1,0.3c-2.2-0.8-4.7-0.3-6.6-1.8   c-0.3,0.1-0.7,0.3-1.4,0.6c0.1-0.6,0.1-0.9,0.2-1.2C579.4,4.6,580.5,4.3,579.9,2.7z" />
	<path display="inline" fill="#342F28" d="M579.9,18c-0.9,0.7-1.8,1.6-2.8,2.1c-0.2-0.1-0.4-0.1-0.6,0c-0.5-0.4-1-0.8-1.2-1   c0-1.2,0-2.1,0-3c0.2-0.1,0.3-0.2,0.5-0.2c0.1,0.8,0.1,1.6,0.2,2.7c0.5-1,0.8-1.5,1.1-2.1c0.1,0.4,0.2,0.7,0.5,1.5   c1.1-2.1,0.6-3.7,2.3-5.3c0,0.6,0,1.2,0,1.7c-0.8,0.5-0.9,1-0.1,1.8c1.2-2.4,2.5-4.6,2.4-7.4c0.4,0.2,0.8,0.5,1.1,0.7   C583.1,12.8,581.4,15.4,579.9,18z" />
	<path display="inline" fill="#C5B093" d="M568,9c3.3-2,1.2,2.9,2.7,4.3c-0.1,1.6,0.7,3.4-0.5,4.7C568.1,15.3,567.7,12.3,568,9z" />
	<path display="inline" fill="#C7B49A" d="M579.8,14.6c0-0.5,0-1.1,0-1.7c-1.1,0.7-1.2,1.9-1.5,2.9c-1-1.4-0.7-3.2-0.6-4.8   c1.3-0.2,1.3-0.2,1.4-2c1-1.1,2-0.3,3,0c0,2-0.6,3.9-1.5,5.6C580.3,14.5,580.1,14.6,579.8,14.6z" />
	<path display="inline" fill="#A19078" d="M566.7,20.1c0-0.2,0-0.4,0-0.6c0.6-3.2-3.2-6.7-2.7-10.4c0.5-0.1,1-0.2,1.6-0.4   c0.4,1.1,0.7,2,1,3c-0.3,0.1-0.6,0.2-1,0.4c1.1,2.5,2.2,4.9,3.3,7.3C568.1,19.7,567.6,20.4,566.7,20.1z" />
	<path display="inline" fill="#1F1B17" d="M568.8,19.4c-1.1-2.4-2.1-4.8-3.3-7.3c2.7-0.4,1-2.1,2.5-3.1c-1.6,4.9,4,9.7,1.8,11.1   c0,0-0.3,0-0.3,0C569.3,19.8,569,19.6,568.8,19.4C568.8,19.4,568.8,19.4,568.8,19.4z" />
	<path display="inline" fill="#4F483D" d="M593.2,25c-2.1-2.3,1.1-3.4-1.4-6.1c0.3,1.4,0.5,2.3,0.7,3.3c-0.4-0.2-0.8-0.5-1.3-0.7   c-0.1-0.7-0.1-1.5-0.2-2.5c-0.6,0.5-1.1,0.8-1.6,1.3c-0.2-0.3-0.3-0.5-0.5-0.8c0.9-0.8,1.7-1.7,2.9-2.1c0.8,1,2.5,0.1,2.7,1.5   C593.3,20.4,593.7,23.1,593.2,25C593.1,25.1,593.2,25,593.2,25z" />
	<path display="inline" fill="#DBC7AA" d="M593.1,18.1c-0.4-0.2-0.9-0.5-1.3-0.7c-0.6-1.1-0.8-1.1-1.5,0c-0.5-0.5-0.9-0.9-1.4-1.4   c-0.1-1,1.3-2.4-0.6-2.1c0-0.5,0-1,0-1.4l-0.1,0.1C590.9,12.4,593.7,15.4,593.1,18.1z" />
	<path display="inline" fill="#453D33" d="M563.9,11c0.8,2.7,3.2,6,2.7,8.5c-1.8-2.2-4.3-3.8-3.5-7.1   C563.9,12.3,563.8,11.6,563.9,11z" />
	<path display="inline" fill="#C1AD92" d="M579.9,2.7c0,0.2,0,0.4,0,0.6c-3.6,1.6-1.8,3.4-6.6,2.8C574.5,3.6,576.4,2.6,579.9,2.7z" />
	<path display="inline" fill="#585044" d="M584.8,16.6c-0.7,0.5-1.4,0.9-2.1,1.4c0-0.5,0-0.9,0-1.4c1.6-0.4,1.4-2.2,2.1-3.5   c0.6-0.2,0.9-0.5,0.2-1.3c-0.1,1.6-0.9,2.7-2.3,3.4c0-0.5,0-0.9,0-1.4c0.7-0.9,1.3-1.9,2-2.8c0.7-0.2,1.5-0.5,2.2-0.7   c0.2,0.2,0.5,0.5,0.7,0.7c-1.8,0.9-1.5,2.8-2.1,4.3l0,0C584.7,15.4,584.7,16.1,584.8,16.6C584.8,16.7,584.8,16.6,584.8,16.6z" />
	<path display="inline" fill="#2F2B24" d="M570.9,8.3c5.6-2.8,3.2,6.1,3.2,8.9c-0.1,0.1-0.3,0.1-0.4,0.1c-0.2-0.6-0.1-1.6-0.5-1.9   c-1.3-0.8-0.8-2-0.9-3.1c0.2,0,0.4,0,0.6,0c0.1,0.3,0.3,0.7,0.7,1.7C573.3,11.8,574,7.8,570.9,8.3z" />
	<path display="inline" fill="#4A433A" d="M593.9,29.2c-1.4-0.9-0.6-2.8-0.7-4.2c0,0,0,0.1,0,0.1c0.9-1.1,1.4-2.4,2-3.7   c0.3,1.4,1.1,2.8,0.7,4.3c-0.4-0.1-0.8-0.3-1.3-0.4c0,1.3,0,2.1-0.1,3.3l0.1-0.1C594.3,28.7,594.1,29,593.9,29.2L593.9,29.2z" />
	<path display="inline" fill="#4B443B" d="M594.6,27.2c0-0.6,0-1.1,0-1.9c0.5,0.2,0.9,0.3,1.3,0.4c0,1.2,0.1,2.3,0.1,3.5   c-0.2,0.1-0.4,0.2-0.5,0.3c0.2,0.1,0.3,0.2,0.5,0.3c0.2,0.5,0.4,1,0.7,1.6c-1.1-0.1-2.2-0.1-3.3-0.1c0.2-0.7,0.4-1.4,0.6-2.2   l-0.1,0.1c0.3-0.3,0.5-0.5,0.8-0.8l-0.1,0.1C595.3,27.6,595.3,27.6,594.6,27.2z" />
	<path display="inline" fill="#5E5548" d="M572.8,12.5c-0.2,0-0.4,0-0.6,0c-0.6-0.6-0.6-0.6-1.2,0.6c-0.1,0.1-0.2,0.1-0.3,0.2   c-0.9-0.9-0.5-2-0.5-3c0.9-0.4,0.4-1.3,0.7-2c0.2,0,0.5,0,0.7,0c0,0.6,0,1.2,0,2.2c0.6-0.8,0.9-1.2,1.3-1.6c0.2,1,0.5,2,0.7,3   C573.3,12.1,573.1,12.3,572.8,12.5z" />
	<path display="inline" fill="#CDB5A6" d="M599.7,42.6c0.3,0.1,0.7,0.1,1.1,0.2c0,1.3,0,2.6,0,3.8c-0.4,0-0.8,0-1.2,0   c-0.4-0.5-0.8-1-1.3-1.5C598.7,44.2,599.2,43.4,599.7,42.6z" />
	<path display="inline" fill="#DFCAAD" d="M574.5,9.6c-0.1-0.2-0.2-0.4-0.2-0.7c0,0,0.2,0.1,0.2,0.1c0.4-0.4,0.7-1,1.3-0.7   c0.5,0.8,1.3,0.5,2,0.7l0.1-0.1c0.1,1.2-0.5,2.3-0.8,3.4c-0.2,0-0.4,0.1-0.6,0.1c0,0,0,0,0,0c-0.1-0.5-0.2-1.1-0.2-1.6   c-0.1,0-0.3,0-0.4,0c0,0.5-0.1,1.1-0.1,1.6C575,11.6,574.9,10.6,574.5,9.6z" />
	<path display="inline" fill="#28251F" d="M586.9,10.3c-0.7,0.2-1.5,0.5-2.2,0.7c0.2-0.8-0.1-1.4-0.7-2c0.7-0.2,0.8-0.8,0.8-1.5   c0.8,0,1.8,1,2.3,0C588.3,8.6,587.1,9.4,586.9,10.3z" />
	<path display="inline" fill="#A49680" d="M595.3,31.3c0.4,0,0.8,0.1,1.2,0.1c-2,2.7-1,5.9-1.5,9c-1.5-2,0.2-4.9-1.1-7.1   C595.1,33.1,595.1,32.1,595.3,31.3z" />
	<path display="inline" fill="#C0A99C" d="M598.8,50.9c-0.6,1.1-1.1,2.2-1.7,3.3c-1.2-0.3-1.3-1.1-1.3-1.9c0.2-0.2,0.2-0.4,0.2-0.6   c0.4-0.8,1.3-1.1,2.1-1.5C598.3,50.4,598.6,50.7,598.8,50.9z" />
	<path display="inline" fill="#CCB99E" d="M585.5,15.3c0.6-1.5,0.4-3.4,2.1-4.3c0.2,0.5,0.4,1,0.6,1.4c0,0,0.1-0.1,0.1-0.1   c-0.3,0.5-0.5,1-0.8,1.4c0,0,0-0.1,0-0.1C586.8,14.3,586.2,14.8,585.5,15.3z" />
	<path display="inline" fill="#F6D9C7" d="M595.1,21.4c-0.6,1.3-1,2.6-2,3.7c0.6-2,0.1-4.7,1.4-6.3   C594.7,19.7,594.9,20.5,595.1,21.4z" />
	<path display="inline" fill="#B1A089" d="M583.9,9.1c1.9,1.6-0.4,3.3-1.3,4.8c-0.2-1.4,0.4-2.9,0.5-4.3   C583.5,9.4,583.7,9.3,583.9,9.1z" />
	<path display="inline" fill="#83736A" d="M598.8,50.9c-0.2-0.2-0.5-0.5-0.7-0.7c0.5-1.2,1-2.4,1.5-3.6c0.4,0,0.8,0,1.2,0   C600.1,48,599.4,49.5,598.8,50.9z" />
	<path display="inline" fill="#484138" d="M577.2,5.6c0.4-1.4,1.7-1.6,2.7-2.2c0.9,1.1-1.1,1.4-1.8,2.2   C577.8,5.5,577.5,5.5,577.2,5.6z" />
	<path display="inline" fill="#474137" d="M577.7,10.3c0-0.5,0-0.9,0.1-1.4c0.4,0,0.9,0,1.3,0c0,1.8,0,1.8-1.4,2   C577.9,10.7,577.8,10.5,577.7,10.3z" />
	<path display="inline" fill="#88776E" d="M598.8,40.4c0.4,0,0.8,0,1.4,0.1c-0.6,0.8-1,1.4-1.4,2C597.4,42.4,598.5,41.1,598.8,40.4z   " />
	<path display="inline" fill="#9A8C77" d="M577.7,9c-0.7-0.2-1.5,0.1-2-0.7C576.5,8.3,577.4,7.9,577.7,9z" />
	<path display="inline" fill="#443C32" d="M560.4,11.8c0,0.2,0,0.5,0,0.7l0,0c-0.5,0-1.1,0.1-1.6,0   C559.2,11.9,559.7,11.7,560.4,11.8z" />
	<path display="inline" fill="#1C1A19" d="M595.2,50.1c0.2-0.5,0.4-1,0.7-1.5C596,49.3,596,49.9,595.2,50.1z" />
	<path display="inline" fill="#1C1A19" d="M596.6,50.8c-0.2,0.3-0.4,0.5-0.6,0.8C596.2,51.4,596.4,51.1,596.6,50.8z" />
	<path display="inline" fill="#9A8C77" d="M575,8.4c-0.2,0.2-0.4,0.4-0.6,0.7C574.3,8.5,574.5,8.3,575,8.4z" />
	<path display="inline" fill="#443C32" d="M561,11.1c-0.2,0.2-0.4,0.5-0.7,0.7C560.6,11.5,560.8,11.3,561,11.1z" />
	<path display="inline" fill="#A4957F" d="M595.9,29.8c-0.2-0.1-0.3-0.2-0.5-0.3c0.2-0.1,0.4-0.2,0.5-0.3   C596,29.4,596,29.6,595.9,29.8z" />
	<path display="inline" fill="#AC9A81" d="M557.6,21.5c-0.6,0.2-0.7,0.4,0,0.7c0.2,1-0.8,1.3-1.3,2.1c1.4,2.2-1.3,4.7-0.1,7   c-0.7,0.2-0.6,0.8-0.7,1.3c-1.7-1.4-1.3-4.4-2.3-6.8c0.7,0.5,1,0.7,1.4,0.9c0.4-0.7,0.2-1.3-0.4-1.7c-0.1-0.5-0.1-0.9-0.1-1.4   c0.4-0.1,0.8-0.2,1.4-0.4c-0.3-0.7-0.7-1.4-1.1-2.2c0.4-0.6,0.9-1.2,1.4-1.9c0-0.6-0.1-1.4-0.2-2.5c1.8,1.1,2.5,2.5,3.5,3.6   c-0.9,0.2-1.3,0-2.3-0.4C557.1,20.5,557.4,21,557.6,21.5z" />
	<path display="inline" fill="#CCB5A6" d="M552.6,50.6c-1.6-1-2.1-3.4-0.6-4.7c0.2,0.3,0.4,0.5,0.7,0.8c0,0,0,0,0,0   C552.9,48,552.6,49.3,552.6,50.6z" />
	<path display="inline" fill="#151310" d="M555.5,32.7c0.1-0.5,0-1.1,0.7-1.3c0.2,1.4,0.3,2.7,0.5,4.1c-0.4,0-0.9,0.1-1.3,0   c0-0.1,0-0.2,0-0.4c-0.2-0.3-0.4-0.7-0.6-1C555,33.6,555.2,33.1,555.5,32.7z" />
	<path display="inline" fill="#BEAA8E" d="M555.4,35.1c-0.1,0.1-0.1,0.2,0,0.4c-0.7-0.2-1.5-0.5-2.3-0.8c0-0.6,0-1.1,0-1.7   C554.3,33.1,554.8,34.2,555.4,35.1z" />
	<path display="inline" fill="#918075" d="M554,55.1c1.2-0.7,1.9,2.1,1.3,3.3C554.6,57.2,554,56.4,554,55.1z" />
	<path display="inline" fill="#322D2A" d="M552,46c-1,0.7-0.8,1.7-0.9,2.8C549.8,47.9,550.7,44,552,46z" />
	<path display="inline" fill="#322D2A" d="M554,42.5c0,1.2,0,2.3,0,3.5c-0.4-0.4-0.9-0.9-1.3-1.3C553.4,44.1,553.7,43.3,554,42.5z" />
	<path display="inline" fill="#322D2A" d="M554.2,48.5c0.2,1.2,0.4,2.5,0.6,3.7C553.7,51.3,554.2,49.8,554.2,48.5z" />
	<path display="inline" fill="#75675E" d="M553.4,43.9c-0.2,0.2-0.5,0.5-0.7,0.7c-0.3-0.3-0.5-0.5-0.8-0.8c0.1-0.2,0.1-0.4,0.2-0.6   C552.5,43.5,553,43.7,553.4,43.9z" />
	<path display="inline" fill="#322D2A" d="M552.1,43.3c-0.1,0.2-0.1,0.4-0.2,0.6c-0.1-0.1-0.2-0.3-0.4-0.4   C551.7,43.4,551.9,43.3,552.1,43.3z" />
	<path display="inline" fill="#322D2A" d="M554.1,38.3c0,0.2,0,0.5-0.1,0.7C553.4,38.7,553.5,38.5,554.1,38.3z" />
	<path display="inline" fill="#322D2A" d="M552.8,47.4c-0.1-0.2-0.1-0.4-0.1-0.7C553.2,46.8,553.5,47,552.8,47.4z" />
	<path display="inline" fill="#322D2A" d="M552.6,46.7c-0.2-0.3-0.4-0.5-0.6-0.8C552.2,46.2,552.4,46.5,552.6,46.7z" />
	<path display="inline" fill="#1D1A17" d="M554,24.3c0,0.2,0.1,0.5,0.1,0.7C553.6,24.9,553.3,24.7,554,24.3z" />
	<path display="inline" fill="#B49F92" d="M491.5,297.8c0.2,0.7,0.3,1.4,0.5,2c-1.7-0.7-3.1-1-3.7-3c0.7,0.1,1.2,0.1,1.6,0.1   c0.2-0.2,0.5-0.4,0.7-0.6l-0.1,0c0.2,0,0.5,0,0.7,0.1C491.3,297,491.4,297.4,491.5,297.8z" />
	<path display="inline" fill="#38322E" d="M490.6,296.5c-0.2,0.2-0.5,0.4-0.7,0.6c0.1-0.3,0.1-0.5,0.2-0.8   C490.2,296.3,490.4,296.4,490.6,296.5z" />
	<path display="inline" fill="#F0D4C2" d="M699.4,183.3c3.9-2.4,8.3,3.5,4.5,6.3c-3.7-0.5-7.7,0.1-11.2-1.6c1.3-1.7,1.3-2.3,0.1-3.8   l0,0C694.3,182.6,697.3,183.8,699.4,183.3z" />
	<path display="inline" fill="#CBB3A4" d="M687.4,190.3c1.3,0.1,2.7,0.2,4,0.2c0.1,1.3,0.4,2.5,1.5,3.3c0,0.2,0.1,0.5,0.1,0.7   c-2.7,0-5.5,0-8.2,0c-0.8-1.1-1.6-2.3-2.4-3.4c0.1-0.4,0.1-0.8,0.2-1.2C684.3,190,685.8,190.2,687.4,190.3z" />
	<path display="inline" fill="#EDD1BF" d="M692.9,194.6c0-0.2-0.1-0.5-0.1-0.7c0,0,0,0,0,0c1-0.3,0.9-0.8,0.2-1.4   c0-0.4,0.1-0.9,0.1-1.3c3.3-0.1,6.6-0.2,9.9-0.1c1.4,2.7,1.4,2.8-0.3,4.3C700.1,193.7,696,195.1,692.9,194.6z" />
	<path display="inline" fill="#413934" d="M687.4,190.3c-1.5-0.1-3.1-0.3-4.8-0.4c-0.1,0.4-0.1,0.8-0.2,1.2c-0.4-1.3-1.1-2-2.2-2.9   c0.5-0.3,0.8-0.5,1.3-0.8c-1-1.5-1.9-3.1-0.5-4.8c0.4-0.1,0.9-0.2,1.3-0.3c1,1-0.6,1.6-0.3,2.5c1,1.4,1.1,4.3,3.1,4.4   c0.6,0.7,1.1,0.7,1.6,0c0.4,0,0.9,0,1.3,0.1C687.8,189.5,687.6,189.9,687.4,190.3z" />
	<path display="inline" fill="#D2BAAA" d="M702.6,196.7c-3,0-6,0-9.1,0c-0.4,0.7-0.7,1.3-1.2,2.2c-0.8-1.1-1.5-2-2.1-2.9   c4-0.2,7.9-0.1,11.9-0.1C702.2,196.2,702.4,196.4,702.6,196.7z" />
	<path display="inline" fill="#0F0E0D" d="M702,195.9c-3.5,0-7,0.1-10.4,0.1c2.8-1.4,7.2-0.6,10.4-0.5   C702,195.6,702,195.7,702,195.9z" />
	<path display="inline" fill="#CBB3A4" d="M700.8,191c-2.6,0-5.1,0.1-7.7,0.1c-0.1-0.2-0.1-0.4,0-0.6   C695.7,190.6,698.3,190.1,700.8,191z" />
	<path display="inline" fill="#5A4F49" d="M693.1,190.6c-0.1,0.2-0.1,0.4,0,0.6c-0.1,0.9-0.2,1.8-0.3,2.7l0,0   c-1.1-0.8-1.4-2-1.5-3.3C691.9,190.6,692.5,190.6,693.1,190.6z" />
	<path display="inline" fill="#CBB3A4" d="M702,195.5c-0.4-0.1-0.8-0.2-1.2-0.2c-0.1-0.2-0.2-0.3-0.4-0.5c0.8-0.1,1.7-0.4,2.2,0.6   C702.4,195.4,702.2,195.4,702,195.5z" />
	<path display="inline" fill="#443C32" d="M560.3,12.5c1.5,1.2,1.3,3.2,2.1,5.1c-0.4,0.5-0.8,1.2-1.3,1.8c-0.3-0.2-0.5-0.4-0.8-0.7   c0.1-0.2,0-0.4-0.1-0.6c0-0.5,0.1-1,0.1-1.5C561.5,15.7,560.3,13.7,560.3,12.5C560.4,12.5,560.3,12.5,560.3,12.5z" />
	<path display="inline" fill="#A6947C" d="M560.4,12.5c-0.1,1.3,1.1,3.2,0,4.1c-0.9-1.2-2-2.3-1.3-4.1   C559.5,12.5,560,12.5,560.4,12.5z" />
	<path display="inline" fill="#8C7D68" d="M560.4,17.4c0,0.2,0,0.5-0.1,0.7c-0.2,0.2-0.3,0.4-0.5,0.6c0,0-0.3,0.1-0.3,0.1   c-1.4-1-1.9-2.3-1.9-4C558.6,15.7,559.5,16.6,560.4,17.4z" />
	<path display="inline" fill="#AC9A81" d="M560.4,18.8c0.3,0.2,0.5,0.4,0.8,0.7c-0.3,0-0.6,0.1-0.9,0.1c-0.2-0.2-0.4-0.5-0.6-0.7   C559.8,18.7,560.1,18.8,560.4,18.8z" />
	<path display="inline" fill="#443F3B" d="M702.7,182.7c-0.2,0-0.5,0-0.7,0c-1.2-1.7-3.6,0.3-4.9-1.3c1.8-0.1,3.7-0.1,5.5-0.2   C702.7,181.8,702.7,182.2,702.7,182.7z" />
	<path display="inline" fill="#443F3B" d="M703.4,183.4c-0.2-0.2-0.5-0.4-0.7-0.6C702.9,182.9,703.2,183.2,703.4,183.4z" />
	<path display="inline" fill="#1C1917" d="M491.5,297.8c-0.1-3.9-1.4-7.6-1.3-11.5c0.5-0.1,0.8-0.1,1.2-0.2c0.9,2.9,1.8,5.9,1.4,9   c-0.2,0.3-0.4,0.5-0.6,0.8c0,0.4,0,0.8,0,1.2C491.9,297.3,491.7,297.6,491.5,297.8z" />
	<path display="inline" fill="#0A0908" d="M363.2,225.4c4.2-0.3,6.7,3.7,11,2.6C376.9,233,362.9,229.9,363.2,225.4z" />
	<path display="inline" fill="#302A27" d="M361.9,225.1c-2.3,1.5-4.8-1.5-7-2.1C354.8,221.3,361.5,224.2,361.9,225.1z" />
	<path display="inline" fill="#95847A" d="M333.6,220.5c0,0.2,0.1,0.4,0.1,0.5c-0.2,0.2-0.5,0.5-0.7,0.7c-0.6-0.2-1.2-0.5-2.1-0.8   C332,220.2,332.8,220.5,333.6,220.5z" />
	<path display="inline" fill="#574E49" d="M313.8,217.8c0.4,0,0.7,0,1.1,0c0,0.1,0,0.2,0,0.3c-0.4,0.1-0.7,0.2-1.1,0.2   C313.9,218.2,313.9,218,313.8,217.8z" />
	<path display="inline" fill="#AF9B8F" d="M325.6,220.2c-0.5,0-1,0-1.5,0c0-0.1,0-0.2,0-0.3c0.5,0,1,0,1.5,0   C325.6,220,325.6,220.1,325.6,220.2z" />
	<path display="inline" fill="#524944" d="M333,221.7c0.2-0.2,0.5-0.5,0.7-0.7c0.4,0.1,0.8,0.2,1.2,0.2c0,0.1,0,0.3,0,0.4   c-0.4,0.1-0.9,0.2-1.3,0.3C333.4,221.9,333.2,221.8,333,221.7z" />
	<path display="inline" fill="#E0C7B6" d="M528.8,372.7c7.5-1,9.5,11.6,9.8,17.2c-1.3,0.1-2.4,0.1-3.3,0.2c-1.3-0.7-2.1-1.7-2.8-2.9   c-0.5-0.9-2-0.2-2-1.5c0.3,0,0.7,0,1.1,0C531.2,381.5,531.9,375.6,528.8,372.7z" />
	<path display="inline" fill="#1C1917" d="M528.8,372.7c3.1,2.9,2.4,8.9,2.8,13c-0.5,0-0.8,0-1.1,0   C530.5,381.5,525.5,376,528.8,372.7z" />
	<path display="inline" fill="#312C28" d="M531.4,369.6c-0.2-0.3-0.4-0.6-0.6-1c2.2-2.4,4.1-6,6.6-7.7   C536.8,363.3,534.7,368.3,531.4,369.6z" />
	<path display="inline" fill="#453D38" d="M525.5,399.1c-0.5-1.9-2-3.5-1.5-5.5c2,1.7,2.2,2.1,4.3,9.6c-0.2,0.2-0.5,0.5-0.7,0.7   C526.9,402.3,526.2,400.7,525.5,399.1z" />
	<path display="inline" fill="#7B6E66" d="M531.1,410.2c0.9,3.6,2.5,4.8,1.8,9.2c-1.1-3.3-2.1-6.2-2.5-9.2   C530.6,410.3,530.9,410.3,531.1,410.2z" />
	<path display="inline" fill="#48403B" d="M543.8,372.6c1.8,1,1.8,2.6,0,7.6C543.3,377.5,543.6,375.1,543.8,372.6z" />
	<path display="inline" fill="#99887E" d="M527.6,404c0.2-0.2,0.5-0.5,0.7-0.7c0.2,0.5,0.5,1,0.7,1.5c-0.4,1.2,1.1,1.3,1.3,2.1   c-0.3,0.3-0.5,0.5-0.8,0.8C528.3,406.7,527.8,405.4,527.6,404z" />
	<path display="inline" fill="#C0AB9E" d="M536,430.7c-1-1.2-0.8-2.2-0.7-3.2C536.6,428.9,536.6,428.9,536,430.7z" />
	<path display="inline" fill="#695E58" d="M529.5,407.6c0.3-0.3,0.5-0.5,0.8-0.8c0.8,1,0.9,2.2,0.8,3.5c-0.2,0-0.5,0-0.7,0   C530.1,409.4,529.8,408.5,529.5,407.6z" />
	<path display="inline" fill="#363222" d="M578.7,160.3c1.1-1.6,3.9,0.2,5.3,1c-0.9,1.1-1.8,0.5-2.7,0.5   C580.4,161.4,579.5,160.9,578.7,160.3z" />
	<path display="inline" fill="#EE8A6A" d="M517.1,287.5c-3.7-6.1-0.8-14.5-7-19.6c3.8-0.4,7.7-0.8,11.5-1.2c0.3,0.3,0.6,0.6,0.9,0.9   c3.1-0.7,5.8-3.8,9.2-3c-2.8,5.2-10.5,6.4-14.8,10.1C516,279.4,517.7,283,517.1,287.5z" />
	<path display="inline" fill="#EE8B6B" d="M550.6,266.5c-1.6-2.2-4.4-2.6-6.9-4.3c2.3-0.8,6.2,0.9,8.8,1.6c0.1,0.7,0.1,1.3,0.2,1.9   C552,265.9,551,265.3,550.6,266.5z" />
	<path display="inline" fill="#EE8B6B" d="M507.3,265.8c0-0.2,0-0.4-0.1-0.6c2.2-0.9,4.4-1.8,7.1-1.3c-0.6,2.4-3.1,2.1-4.3,4.1   C509.1,267.3,508.2,266.6,507.3,265.8z" />
	<path display="inline" fill="#A06652" d="M506.1,258.2c1.4-3.5,4.7-6.6,7.8-9C511.3,252.7,509.4,256.3,506.1,258.2z" />
	<path display="inline" fill="#B5735C" d="M556.6,263.8c2.3-0.3,4.3,0.5,6.5,1.1C561.8,266.9,558.3,264.8,556.6,263.8z" />
	<path display="inline" fill="#8E5A48" d="M553.4,265.9c2,0.8,4.8,0.3,6,2.4c-2-0.5-4.2-0.6-6-1.8   C553.4,266.3,553.4,266.1,553.4,265.9z" />
	<path display="inline" fill="#AB6D57" d="M523.4,237.2c-0.7,2.3-0.7,2.3-2.4,4C521,239.2,521,239.1,523.4,237.2L523.4,237.2z" />
	<path display="inline" fill="#825647" d="M553.4,265.9c0,0.2,0,0.4,0,0.6c-0.9,0-1.8,0-2.8,0c0.4-1.1,1.4-0.5,2.1-0.8   C552.9,265.8,553.2,265.8,553.4,265.9z" />
	<path display="inline" fill="#AB6D57" d="M523.4,237.2c0.1-0.1,0.2-0.2,0.3-0.4C523.7,237.1,523.6,237.1,523.4,237.2   C523.4,237.2,523.4,237.2,523.4,237.2z" />
	<path display="inline" fill="#12100F" d="M533.2,206.4c1.8,0.5,3.7,1.1,5.4,1.6c0.2,4.6-5.2,0.3-6.8-0.9   C532.3,206.9,532.7,206.7,533.2,206.4z" />
	<path display="inline" fill="#524943" d="M533.2,206.4c-0.5,0.2-0.9,0.5-1.4,0.7c-0.9-0.7-1.9-1.4-2.8-2c0.3-0.3,0.5-0.5,0.8-0.8   C530.9,205,532,205.7,533.2,206.4z" />
	<path display="inline" fill="#A79489" d="M529.7,204.3c-0.3,0.3-0.5,0.5-0.8,0.8c-0.7-0.5-1.3-1.1-2.4-2   C528.2,203.1,529,203.6,529.7,204.3z" />
	<path display="inline" fill="#9E8C81" d="M505.4,177.9c-0.3-0.3-0.5-0.5-0.8-0.8c0.4-0.8,0.5-1.8,1.8-1.9   C506.6,176.4,506.1,177.2,505.4,177.9z" />
	<path display="inline" fill="#85766C" d="M502,299.5c-1.3-0.2-1.7-0.2-2.3-0.3C500.3,298,500.3,298,502,299.5z" />
	<path display="inline" fill="#7A6C63" d="M352.5,230.1c-1.9-0.8-3.6-1.9-5.5-2.8c2.4-0.2,4.4,0.8,6.2,2   C353,229.6,352.8,229.9,352.5,230.1z" />
	<path display="inline" fill="#3D3632" d="M352.5,230.1c0.3-0.3,0.5-0.5,0.8-0.8c1.6,0.7,3.5,1.1,4.8,3.1   C355.7,232.4,354.2,230.9,352.5,230.1z" />
	<path display="inline" fill="#776A61" d="M341.7,224.2c-0.2,0.4-0.5,0.4-0.9,0.1C341.1,223.9,341.3,224,341.7,224.2z" />
	<path display="inline" fill="#7F7168" d="M533.1,453.5c2.2-0.1,1.2,2.8,1.4,4.2l0,0C533.6,456.5,533,455.1,533.1,453.5L533.1,453.5   z" />
	<path display="inline" fill="#5E544D" d="M535.2,466.6c0.9,1.3,0.6,2-0.3,3C534.4,468.5,534.5,467.8,535.2,466.6z" />
	<path display="inline" fill="#7F7168" d="M534.5,457.7c1.2,1.2,0.9,2.5,0.4,4.3C534.2,460.3,534.6,459,534.5,457.7L534.5,457.7z" />
	<path display="inline" fill="#292522" d="M587.1,85.4c-0.6-1.3-0.5-2.5-0.1-3.8C588.1,82.8,588.1,82.8,587.1,85.4z" />
	<path display="inline" fill="#655B54" d="M574.3,125.6c0.4-1.2,1.2-2,2.1-2.8c0.2,0.2,0.5,0.4,0.7,0.7   C576.6,124.8,575.3,124.9,574.3,125.6L574.3,125.6z" />
	<path display="inline" fill="#A8968A" d="M577.1,123.5c-0.2-0.2-0.5-0.4-0.7-0.7c0.3-0.7,0.6-1.5,1.9-1.2   C577.9,122.3,577.5,122.9,577.1,123.5z" />
	<path display="inline" fill="#8A7B71" d="M568.7,94.1c0.3-0.3,0.6-0.5,0.9-0.8c0.4,0.5,0.8,1,1.2,1.5c0,0.2,0,0.5,0.1,0.7   c-0.5,0-1-0.1-1.4-0.1c-0.2-0.2-0.5-0.4-0.7-0.7C568.7,94.6,568.7,94.4,568.7,94.1z" />
	<path display="inline" fill="#E1C7B6" d="M569.5,95.5c0.7,0,2.4-0.1,1.8,1.1C570.4,97.2,569.9,96,569.5,95.5z" />
	<path display="inline" fill="#AE9C90" d="M573.7,97.4c-0.7,1.1-1.6,0.7-1-0.4C573,97.1,573.2,97.2,573.7,97.4z" />
	<path display="inline" fill="#B3A195" d="M580.7,93.5c-0.4,0.2-0.7,0.3-0.9,0.5C579,93,579.9,92.6,580.7,93.5z" />
	<path display="inline" fill="#453F3B" d="M586.3,91.2c0-1,0-1.7,0-2.8C587.3,89.5,587.1,90.2,586.3,91.2z" />
	<path display="inline" fill="#1D1C19" d="M563.9,505.9c2.1-0.6,4.6-1.4,6.2,0.6c-0.8,2.8-4.9,2-6.7,0.5   C563.5,506.7,563.7,506.3,563.9,505.9z" />
	<path display="inline" fill="#312F29" d="M566.5,511.1c2.2-1.3,4.2-1.2,6.4-0.8C573.2,514.4,568.8,511.9,566.5,511.1z" />
	<path display="inline" fill="#38322E" d="M491.2,293.5c0,1,0,2.1,0,3.1c-0.2-0.1-0.4-0.1-0.7-0.1   C490.6,295.5,490.4,294.4,491.2,293.5z" />
	<path display="inline" fill="#0B0A09" d="M226.8,205.7c-0.5,0.4-1.1,0.8-1.5,1.1c-4.7-0.3-3.1-14.4,1.6-11.5   C226.7,198.8,226.7,202.3,226.8,205.7z" />
	<path display="inline" fill="#0D0D0B" d="M231,206.5c-5,5.3-3.5-7.3-2.7-9.7c1.5-1.1,1.5-1.1,2.8,0   C231.1,200,231.1,203.2,231,206.5z" />
	<path display="inline" fill="#0E0E0C" d="M239.2,211.8c-4.8,2.4-4.4-11.2-0.7-12.5c0.4,0.8,1,1.5,0.9,1.9   C238,204.7,239.2,208.3,239.2,211.8z" />
	<path display="inline" fill="#21201C" d="M232.5,198.8c1.3-1.4,1.3-1.5,2.8-0.5c0,2.7-1.2,5.3,0,8c0.6,1.6,0,2.4-1.8,3.5   C230.6,206.9,231.7,202.3,232.5,198.8z" />
	<path display="inline" fill="#10100E" d="M219.1,193.8c5.1-2.4,2,6.2,1.3,8.3c-2.2,0-2.2,0-2.5-2   C219.2,198.5,218.3,195.9,219.1,193.8z" />
	<path display="inline" fill="#22211D" d="M218.5,197.3c-0.1,1,0.5,2.1-0.6,2.9c-0.2-2.3-4.7-5.9-0.1-6.9   C217.9,194.7,217.4,196.3,218.5,197.3z" />
	<path display="inline" fill="#C2BBA3" d="M228.3,196.7c-0.9,3-0.7,6-0.8,9.1c-0.2,0-0.5,0-0.7-0.1c-0.2-3.5-0.2-7,0.1-10.4   C227.4,195.8,227.9,196.3,228.3,196.7z" />
	<path display="inline" fill="#C8C1A8" d="M232.5,198.8c-0.7,2.5-0.9,5.1-0.8,7.7c-0.2,0-0.4,0-0.7,0c0-3.3,0.1-6.5,0.1-9.8   C231.6,197.4,232,198.1,232.5,198.8z" />
	<path display="inline" fill="#908B79" d="M218.5,197.3c-1.1-1.1-0.6-2.7-0.7-4c0.5,0.2,0.9,0.4,1.4,0.6   C218.9,195,218.7,196.2,218.5,197.3z" />
	<path display="inline" fill="#292619" d="M545.6,158.2c-1.7,0.2-3.6,0.3-4.5-1.5c1.8-0.6,3.1,0.4,4.5,0.4   C545.7,157.4,545.6,157.8,545.6,158.2z" />
	<path display="inline" fill="#706948" d="M545.6,158.2c0-0.4,0-0.8,0-1.2c1.1-0.1,2.4-0.5,3.3,0.9   C547.8,158.6,546.7,158.3,545.6,158.2z" />
	<path display="inline" fill="#1C1917" d="M647.6,166.7c1.3-2.2,1.6-4.6,4-5.9c1.1,3.4-1.9,5.7-4,7.9   C646.9,168,647.5,167.4,647.6,166.7z" />
	<path display="inline" fill="#968479" d="M565.2,75.5c0.3,0.2,0.5,0.3,0.8,0.5C565.7,75.8,565.4,75.6,565.2,75.5z" />
	<path display="inline" fill="#524943" d="M559.9,36.3c-0.5,0.2-1.1,0.5-1.6,0.7c-0.4-0.1-0.8-0.2-1.3-0.3c0.3-0.4,0.5-0.8,0.7-1.2   C558.5,35.6,559.2,36.1,559.9,36.3z" />
	<path display="inline" fill="#282320" d="M700.4,194.7c0.1,0.2,0.2,0.3,0.4,0.5c-2.9,0.5-6.8-0.8-9.3,0.8c-0.6,0-1.2,0.2-1.7-0.1   l-0.3,0c-2.1-0.9-4.3-0.8-6.4,0c-0.2-0.1-0.5,0-0.7,0.1c-0.7-0.3-0.6-0.9-0.7-1.5C688,194.6,694.2,194.5,700.4,194.7z" />
	<path display="inline" fill="#D2BAAA" d="M683.1,195.9c2.1-0.8,4.3-0.8,6.4,0c-1.2,0-2.4,0-3.8,0c-0.2,0.6-0.4,1.1-0.6,1.6   c-0.3-0.3-0.5-0.6-0.9-1c-0.2,0.4-0.4,0.6-0.5,0.9C683.1,197.1,683.2,196.5,683.1,195.9z" />
	<path display="inline" fill="#161311" d="M683.8,197.4c0.1-0.2,0.3-0.5,0.5-0.9c0.3,0.4,0.6,0.7,0.9,1c-0.1,0.2-0.1,0.3,0,0.5   c-0.2,0-0.4,0-0.6,0.1C684.3,197.9,684,197.7,683.8,197.4z" />
	<path display="inline" fill="#38322E" d="M492,295.9c0.2-0.3,0.4-0.5,0.6-0.8C492.5,295.4,492.2,295.6,492,295.9z" />
	<path display="inline" fill="#342E2A" d="M684.7,194.5c-0.5,0-1.1,0-1.6,0.1c-1.4-1.2-4.1-4.1-1.4-5   C682.4,191.5,683.7,192.9,684.7,194.5z" />
	<path display="inline" fill="#DAC0B0" d="M683.8,197.4c0.3,0.3,0.5,0.5,0.8,0.8c-0.3,0.2-0.5,0.5-0.8,0.7c-1.6-0.8-1.8-1.1-1.3-2.8   c0.2-0.1,0.4-0.1,0.7-0.1C683.2,196.5,683.1,197.1,683.8,197.4z" />
	<path display="inline" fill="#CBB3A4" d="M681.8,193.5c0.4,0.4,0.8,0.8,1.3,1.1c-0.4,0-0.9-0.1-1.3-0.1   C681.8,194.2,681.8,193.8,681.8,193.5z" />
	<path display="inline" fill="#6A6445" d="M615.5,132.5c0.4,0.5,0.9,1,1.3,1.5C615.8,134,615.3,133.4,615.5,132.5z" />
	<path display="inline" fill="#99877D" d="M629.8,119c-0.2-1-0.2-1,0.8-1.4C630.6,118.4,630.6,118.4,629.8,119z" />
	<path display="inline" fill="#C6A496" d="M581.3,65.5c-0.1,0.9,0.5,2.4-0.8,2.7c0-0.4-0.1-0.8-0.1-1.5c-3.4,2.5-7.7,1.9-11.6,0.9   c0,0.6,0.1,0.9,0.1,1.2c-1.2-0.5-0.8-1.3-0.5-2.2c-0.3-0.4-0.7-0.8-1-1.2C572,65.3,576.7,65.4,581.3,65.5z" />
	<path display="inline" fill="#2E2723" d="M581.3,65.5c-4.6-0.1-9.3-0.2-13.9-0.1c-0.2-0.2-0.4-0.5-0.8-0.9c5.1-2.4,11.8-1.9,16.8,0   C582.6,64.8,582,65.2,581.3,65.5z" />
	<path display="inline" fill="#121110" d="M564.6,40.3c1.3,0.4,2.5,1,3.4,2.2c0,0.5,0,1,0.1,1.4c-0.7,0.1-0.9,0-1.7-0.4   c-1.3,1.7-3.8,1.3-4.6-0.6c-1.3-0.4-1.8,2.2-3.5,0.6c0-0.2,0.1-0.6,0.1-1l-0.1,0c0.8-0.1,1.8,0.2,2.1-0.8l0,0c1.2,0.3,1.3-1,2-1.3   C563.1,40.4,563.9,40.3,564.6,40.3z" />
	<path display="inline" fill="#151312" d="M585.5,42.5c-0.3,0.4-0.6,0.9-0.9,1.3c-1.5,0.4-2.7,0-3.7-1c-0.9,0.2-1.3,1.8-2.7,0.7   c2.9-3.8,3.4-5,7.8-2.2C585.9,41.7,585.7,42.1,585.5,42.5z" />
	<path display="inline" fill="#463D38" d="M588,36.4c-4.2-0.4-7.9,1.1-12.1,1.3c1.9-3.7,10-2.9,13.7-2.1   C589.1,35.8,588.6,36.1,588,36.4z" />
	<path display="inline" fill="#2A2522" d="M568.9,68.8c0-0.3-0.1-0.7-0.1-1.2c3.2,1.1,6.3,0.8,9.5,0.5c0.3,0.3,0.7,0.7,1,1   c-2.5,1.2-5.1,1.6-7.7,0.5c-0.5-1-1.3-0.6-2.1-0.7C569.3,68.9,569.1,68.9,568.9,68.8z" />
	<path display="inline" fill="#443C37" d="M559.9,36.3c-0.5-0.2-1.1-0.5-1.6-0.7c4.2-1,8.8-1,11.7,2.7   C565.9,37.8,563.9,35.6,559.9,36.3z" />
	<path display="inline" fill="#595145" d="M588.3,13.9c1.1,0,1.1,0,0.9,0.7c-2.4,0.8,1.3,2.1,1.4,3.3c-0.6,0.5-1.1,1-1.7,1.5   c-0.7-0.4-1.3-0.8-2.1-1.3c0-0.4,0.1-1,0.1-1.5l-0.1,0.1c0.6-0.9,0.8-1.8,0.7-2.9l0,0.1C587.8,13.9,588,13.9,588.3,13.9z" />
	<path display="inline" fill="#5E5548" d="M573.7,17.4c0.2,0,0.3-0.1,0.4-0.1c0.1,1.2,0.1,2.3,0.2,3.5c-1.4-0.3-2.8-0.5-4.2-0.8   c0.7-0.7,0.3-1.4,0.1-2.1c1.2-1.3,0.4-3.1,0.5-4.7c0.1-0.1,0.2-0.2,0.3-0.2c0.8,2.1,0.2,4.1,0.9,6.3c0.6,0,1.1-0.1,1.7-0.1   C573.6,18.5,573.6,18,573.7,17.4z" />
	<path display="inline" fill="#5F544D" d="M560.3,41.8c-0.2,0.7-0.7,0.8-1.4,0.7c-0.1-0.1-0.2-0.3-0.2-0.4c-0.2,0.2-0.3,0.3-0.5,0.5   l0.1,0c-0.3-0.3-0.6-0.6-1.1-1.1c2.6-1.3,4.8-2.6,7.5-1.1c-0.8,0-1.5,0.1-2.3,0.1C561.6,40.8,561.5,42.1,560.3,41.8   c0-0.2-0.1-0.4-0.4-0.3C560.1,41.5,560.2,41.7,560.3,41.8z" />
	<path display="inline" fill="#9A8C77" d="M574.3,20.8c-0.1-3.3-0.4-6.6,0.6-9.8c0.6,0.9,0.9,1.8,0.8,2.8c-1.4,1.4-0.1,3.2-0.5,5.2   c0.3,0.2,0.8,0.6,1.2,1C575.7,20.3,575,20.6,574.3,20.8z" />
	<path display="inline" fill="#594E48" d="M585,40.9c-1-0.6-1.8-1.5-3.1-1.3c2.4-1.6,5.3,0.2,7.7,0.8   C588.5,42.4,586.5,39.1,585,40.9z" />
	<path display="inline" fill="#A0917C" d="M582.6,13.1c0.1,0.7,0.1,1.5,0.1,2.2l0,0c-0.8,0.2-0.7,0.8-0.7,1.4   c-0.3,0.1-0.8,0.1-0.3,0.5c0.1-0.2,0.2-0.4,0.3-0.6c0.2,0,0.5,0,0.7,0l0,0c0,0.5,0,0.9,0,1.4c-0.9,0-1.9,0-2.8,0   C580.8,16.4,581.7,14.7,582.6,13.1z" />
	<path display="inline" fill="#342E2A" d="M580.2,56.5c-1,1.8-2.2,1.3-4.4,0.2C576.3,54.3,578.7,56.7,580.2,56.5z" />
	<path display="inline" fill="#B49F92" d="M575.1,42.8c2,1.3,1.6,3.4,0.3,4.4C574.8,45.9,575,44.7,575.1,42.8z" />
	<path display="inline" fill="#B7A194" d="M585,40.9c1.5-1.8,3.5,1.5,4.6-0.5c1.3,0.4,0.3,1.4,0,2.2C588,42,586.5,41.4,585,40.9z" />
	<path display="inline" fill="#38332C" d="M587.5,13.8c0.1,1.1-0.1,2-0.7,2.9l0.1-0.1c-0.9,0.1-0.8,1.8-2.2,1.2   c0-0.3,0.1-0.8,0.2-1.2c0,0,0,0.1,0,0.1c0.7-0.2,0.8-0.8,0.7-1.4c0,0,0,0,0,0C586.2,14.8,586.8,14.3,587.5,13.8z" />
	<path display="inline" fill="#4C433E" d="M563.8,44.6c0.5,0,0.9,0,1.4-0.1c0.2,0.4,0.4,0.8,0.6,1.2c-1,1.1-2.1,0.6-3.1,0   C563.1,45.4,563.4,45,563.8,44.6z" />
	<path display="inline" fill="#3D3734" d="M586.1,41.3c1.2,0.4,2.3,0.9,3.5,1.3c-0.6,1.8-2.8,0.1-4.1-0.1   C585.7,42.1,585.9,41.7,586.1,41.3z" />
	<path display="inline" fill="#75675F" d="M569.4,57.1c-0.4-1.5-0.6-2.9,1.2-4.1C570.9,54.6,570.6,56.1,569.4,57.1z" />
	<path display="inline" fill="#7E6F67" d="M591.1,34.8c-1.3-1-0.6-2.2-0.5-3.4c1.5,0.3,1.1,1.3,1.1,2.1   C590.9,33.6,591.1,34.3,591.1,34.8z" />
	<path display="inline" fill="#070706" d="M595.3,31.3c-0.2,0.8-0.2,1.8-1.4,2c-0.3-0.6-1.1-1.1-0.7-1.9   C593.9,31.3,594.6,31.3,595.3,31.3z" />
	<path display="inline" fill="#514842" d="M580.2,56.5c-0.3,0-0.7,0-1-0.1c0-0.9,0.1-1.7,0.1-2.9C580.5,54.5,581.1,55.3,580.2,56.5z   " />
	<path display="inline" fill="#4A3F3A" d="M579.3,69.1c-0.3-0.3-0.7-0.7-1-1c0.6-0.4,1.2-0.8,2.1-1.4c0.1,0.7,0.1,1.1,0.1,1.5   C580.1,68.6,579.7,68.8,579.3,69.1z" />
	<path display="inline" fill="#524943" d="M560.1,36.3c1.5,0.1,3.2-0.6,4.5,0.5C563.1,36.7,561.6,36.5,560.1,36.3z" />
	<path display="inline" fill="#5D524B" d="M583.3,43.9c0.4,0,0.9-0.1,1.3-0.1c0.1,0.3,0.1,0.7,0.3,1.2c-0.6,0.1-1.2,0.2-1.9,0.4   C583.1,44.8,583.2,44.3,583.3,43.9z" />
	<path display="inline" fill="#443C37" d="M568.1,43.9c0-0.5,0-1-0.1-1.4c0.7,0,1.3,0,1.9,0c0.1,0.4,0.2,0.6,0.3,0.9   C569.5,43.6,568.8,43.8,568.1,43.9z" />
	<path display="inline" fill="#6A5E56" d="M588,36.4c0.5-0.3,1-0.5,1.6-0.8c0.7,0.1,1.1,0.4,1.3,1.2C589.8,37,588.9,37,588,36.4z" />
	<path display="inline" fill="#5E534C" d="M576.3,40.3c0.4-0.9,0.6-1,1.7-1.5c-0.4,1.2-0.7,2-1,2.7   C576.7,41.2,576.5,40.8,576.3,40.3z" />
	<path display="inline" fill="#8F7F74" d="M569.4,57.1c0.2-0.3,0.5-0.5,0.7-0.8c0.5,0,0.9,0.1,1.4,0.1c0,0.2-0.1,0.5-0.1,0.7   C570.2,58,570.2,58,569.4,57.1z" />
	<path display="inline" fill="#0D0B0B" d="M571.5,57.2c0-0.2,0.1-0.5,0.1-0.7c0.9-0.7,1.5-0.4,2,0.6   C572.9,57.1,572.2,57.1,571.5,57.2C571.5,57.2,571.5,57.2,571.5,57.2z" />
	<path display="inline" fill="#B49F92" d="M576.3,40.3c0.2,0.4,0.4,0.8,0.7,1.3C576.4,43.6,575.1,41.4,576.3,40.3z" />
	<path display="inline" fill="#8F7F74" d="M571.5,57.2c0.7,0,1.4-0.1,2-0.1C572.9,58.1,572.3,58.2,571.5,57.2z" />
	<path display="inline" fill="#C6A496" d="M569.4,69c0.8,0,1.6-0.3,2.1,0.7C570.8,69.7,569.9,70,569.4,69z" />
	<path display="inline" fill="#36302B" d="M591.1,34.8c0-0.5-0.1-1.2,0.6-1.3C591.7,34,592.1,34.7,591.1,34.8z" />
	<path display="inline" fill="#27221F" d="M575.5,54.4c0.1,0.1,0.2,0.2,0.2,0.2c-0.3,0.1-0.5,0.4-0.7,0   C575.2,54.6,575.3,54.5,575.5,54.4z" />
	<path display="inline" fill="#766B5C" d="M576.5,20.1c0.2-0.1,0.4,0,0.5,0c-0.1,0.1-0.2,0.3-0.3,0.4   C576.7,20.4,576.6,20.2,576.5,20.1z" />
	<path display="inline" fill="#766B5C" d="M577.1,20.1c0.3-0.2,0.6-0.3,0.9-0.5C577.7,19.8,577.4,19.9,577.1,20.1z" />
	<path display="inline" fill="#A19078" d="M568.8,19.4c0.2,0.2,0.5,0.5,0.7,0.7C569,20.1,568.8,19.9,568.8,19.4z" />
	<path display="inline" fill="#0A0908" d="M692.8,184.2c0,0.7,0.1,1.5,0.1,2.2c-0.1,0-0.3,0.1-0.4,0.1c-0.3-0.5-0.6-1-1-1.7   C692.1,184.6,692.5,184.4,692.8,184.2L692.8,184.2z" />
	<path display="inline" fill="#CBB3A4" d="M686.7,189.1c-0.5,0.7-1.1,0.7-1.6,0C685.6,189.1,686.2,189.1,686.7,189.1z" />
	<path display="inline" fill="#706353" d="M557.6,21.5c-0.2-0.5-0.4-1-0.8-1.8c0.7,0.2,1,0.3,1.4,0.5   C558.2,20.7,558.4,21.3,557.6,21.5z" />
	<path display="inline" fill="#766B5C" d="M577.7,14.5c0.2,0.4,0.5,0.9,0.7,1.3c-0.2,0.6-0.5,1.3-0.9,2.3   C576.8,16.5,577,15.9,577.7,14.5z" />
	<path display="inline" fill="#010101" d="M577,16c0,1-0.6,1.4-1.1,2.7c-0.1-1.2-0.1-1.9-0.2-2.7c0,0,0,0,0,0   C576.2,16,576.6,16,577,16z" />
	<path display="inline" fill="#877B69" d="M579.8,14.6c0.2,0,0.5,0,0.7,0c-0.3,0.6-0.6,1.2-0.9,1.8C579,15.6,579.1,15,579.8,14.6z" />
	<path display="inline" fill="#766B5C" d="M575.2,16.1c-0.1-0.8-0.5-1.7,0.5-2.3c0,0.7,0,1.4,0.1,2.1c0,0,0,0,0,0   C575.5,16,575.4,16,575.2,16.1z" />
	<path display="inline" fill="#342F28" d="M575.7,16c0-1.2-0.1-2.4-0.1-3.5l0.1,0c0.2,0,0.5,0,0.7,0c0,0,0,0,0,0   c0.1,0.4,0.1,0.8,0.2,1.2c0.1,0,0.3,0,0.4,0c0.1-0.6,0-1.2,0.2-1.8c0.2,0,0.4,0,0.5,0c0,1.5,0.1,2.9-0.7,4.2   C576.6,16,576.2,16,575.7,16z" />
	<path display="inline" fill="#766B5C" d="M577.7,11.8c-0.2,0-0.4,0-0.5,0c0.2-0.5,0.4-1,0.6-1.5C577.9,10.8,577.7,11.3,577.7,11.8z   " />
	<path display="inline" fill="#070706" d="M592.5,22.2c-0.2-1-0.4-1.9-0.7-3.3C593.1,20.9,593.1,20.9,592.5,22.2   C592.5,22.2,592.5,22.2,592.5,22.2z" />
	<path display="inline" fill="#070706" d="M590.6,17.9c-0.1-0.2-0.2-0.4-0.3-0.6c0.7-1,0.9-1,1.5,0C591.4,17.5,591,17.7,590.6,17.9z   " />
	<path display="inline" fill="#38332C" d="M588.9,16c-0.8-0.8-0.8-0.9,0.3-1.4C589.1,15.1,589,15.5,588.9,16z" />
	<path display="inline" fill="#070706" d="M588.3,13.9c-0.3,0-0.5,0-0.8,0c0.3-0.5,0.5-1,0.8-1.4C588.3,12.9,588.3,13.4,588.3,13.9z   " />
	<path display="inline" fill="#B8A78F" d="M582.7,15.3c0.4-0.3,0.9-0.6,1.3-0.8c0,0,0.2,0.2,0.2,0.2c-0.1,1-0.5,1.7-1.5,2l0,0   C582.7,16.2,582.7,15.7,582.7,15.3C582.7,15.2,582.7,15.3,582.7,15.3z" />
	<path display="inline" fill="#BDAC93" d="M585.5,15.3c0.1,0.6,0,1.2-0.7,1.4C584.7,16.1,584.7,15.4,585.5,15.3z" />
	<path display="inline" fill="#B0A089" d="M584,14.5c0.3-0.4,0.5-0.8,0.8-1.3c0,0,0,0,0,0c-0.2,0.5-0.4,1-0.5,1.5   C584.2,14.6,584,14.5,584,14.5z" />
	<path display="inline" fill="#998C77" d="M584.8,13.2c0.1-0.4,0.1-0.8,0.2-1.3C585.6,12.6,585.3,12.9,584.8,13.2L584.8,13.2z" />
	<path display="inline" fill="#0A0908" d="M573.7,17.4c0,0.6-0.1,1.1-0.1,1.8c-0.6,0-1.1,0.1-1.7,0.1c-0.6-2.2,0-4.2-0.9-6.3   c0.6-1.2,0.6-1.2,1.2-0.6c0.1,1.1-0.3,2.2,0.9,3.1C573.6,15.8,573.5,16.8,573.7,17.4z" />
	<path display="inline" fill="#C0AD91" d="M572.9,8.9c-0.3,0.4-0.7,0.8-1.3,1.6c0-1,0-1.6,0-2.2C572.1,8.3,572.7,8.2,572.9,8.9z" />
	<path display="inline" fill="#BFAE95" d="M572.8,12.5c0.2-0.2,0.5-0.4,0.7-0.6c0,0.5,0,1.1,0,2.4C573.1,13.2,572.9,12.9,572.8,12.5   z" />
	<path display="inline" fill="#9A8C77" d="M574.5,9.6c0.1,0.3,0.2,0.6,0.4,0.9C574.8,10.2,574.6,9.9,574.5,9.6z" />
	<path display="inline" fill="#F6D9C7" d="M594.6,27.2c0.8,0.4,0.8,0.4-0.1,1.3C594.5,28.1,594.6,27.7,594.6,27.2z" />
	<path display="inline" fill="#F6D9C7" d="M594.6,28.5c-0.3,0.3-0.5,0.5-0.8,0.8C594.1,29,594.3,28.7,594.6,28.5z" />
	<path display="inline" fill="#766B5C" d="M576.4,12.5c-0.2,0-0.5,0-0.7,0c0-0.5,0.1-1.1,0.1-1.6c0.1,0,0.3,0,0.4,0   C576.3,11.4,576.3,11.9,576.4,12.5z" />
	<path display="inline" fill="#766B5C" d="M577,12.4c0,0.4,0,0.8-0.1,1.2c-0.1,0-0.3,0-0.4,0c-0.1-0.4-0.1-0.8-0.2-1.2   C576.6,12.5,576.8,12.4,577,12.4z" />
	<path display="inline" fill="#1C1A18" d="M555.4,35.1c-0.2-0.3-0.4-0.7-0.6-1C555,34.4,555.2,34.8,555.4,35.1z" />
	<path display="inline" fill="#CBB3A4" d="M692.8,193.9c0.1-0.5,0.1-0.9,0.2-1.4C693.7,193.1,693.8,193.5,692.8,193.9z" />
	<path display="inline" fill="#BDA98D" d="M560.4,18.8c-0.2,0-0.4,0-0.5,0c0.2-0.2,0.3-0.4,0.5-0.6   C560.4,18.3,560.4,18.5,560.4,18.8z" />
	<path display="inline" fill="#F6D9C7" d="M558.3,42.5c0.2-0.2,0.3-0.3,0.5-0.5c0.1,0.1,0.2,0.3,0.2,0.4   C558.7,42.5,558.5,42.5,558.3,42.5z" />
	<path display="inline" fill="#F6D9C7" d="M586.8,16.7c0.2-0.4,0.5-0.9,0.7-1.3C587.3,15.8,587.1,16.3,586.8,16.7z" />
	<path display="inline" fill="#F6D9C7" d="M560.3,41.8c-0.1-0.1-0.2-0.2-0.4-0.3C560.2,41.4,560.3,41.5,560.3,41.8   C560.3,41.8,560.3,41.8,560.3,41.8z" />
	<path display="inline" fill="#423C33" d="M582.7,15.2c0,0.5,0,0.9,0,1.4c-0.2,0-0.5,0-0.7,0l0,0C582,16.1,581.9,15.4,582.7,15.2z" />
	<path display="inline" fill="#37322B" d="M582,16.6c-0.1,0.2-0.2,0.4-0.3,0.6C581.3,16.7,581.7,16.7,582,16.6   C582,16.7,582,16.6,582,16.6z" />
</g>
</svg>