<?xml version='1.0' encoding='utf-8'?>
<svg xmlns="http://www.w3.org/2000/svg" version="1.2" baseProfile="tiny" id="Layer_1" x="0px" y="0px" viewBox="0 0 900 600" overflow="visible" xml:space="preserve">
<g id="b_00000108270202163988815650000018245773035830173113_">
	<path display="inline" d="M439.8,176.9c-5.1,26.7-7.1,54.7-5.5,81.9c1,1.3,0.9,2.8,0.9,4.3c-0.1,4.2,2.6,7.3,4.4,10.8   c9.4,41.1,21.3,83.9,17.1,126.6c-3,1-6.1-0.4-9.1,0.6c-0.8,3.9-2.9,7.6-3.2,11.6c-0.7,4.3,2,10.6-1.6,13.8   c9.9,35.7-2.6,72.2,0.1,108.4c1.5,0.7,3.4-0.3,4.7,1.5c-2.9,16.5,31,31.4,25.4,44.8c-7,7.5-35.3,12.2-37.5-1.3   c-6.1-2.3-13.2-1.6-19.2-4.9c-8.7-10.5-0.5-7.5-2.7-15.6c7.4-13.7,0.8-14.5,6.5-21c-1.5-20.8-5.5-41.8-9.7-62.4   c-7.6-17.9,2.2-36.2-1.3-54.5c-3.3-7.4-4-15.2-4.9-23.4c-1.5-1.2-3.7-0.2-5.6-1.3c-2.5-4.8-0.5-10.2-2.6-15.5   c-2.1,3.8-1.2,8-2.5,11.7c-3.3,2.4-2.9,4.8-7.8,4.3c-0.8,0.6-1.6,1.2-2.5,1.9c-1,5.7-4.1,10.7-6.3,16c-1.3-0.7-0.4-2-0.7-3   c1.2-3.7,3-7.1,3-11.1c0.7-0.8,1.2-1.8,1.1-3.2c-12.2,1.8-24.6,2.2-36.9,2.3c-1,0.8-1.7,1.5-2.4,2.1c6.8,22.3-4.6,35-6.2,56.2   c-1.5,28,7.4,55.8,8.1,83.7c1.8-0.1,3.4,0.2,4.7-1.1c0.1-0.7,0.2-1.3,0.3-1.9c0.3,0.7,0.7,1.4,1.1,2.3c3-1.4,6.2-1.3,9.6-2   c-2.3-10.1-0.6-20.1,0.3-30.2c0.2,0.1,0.5,0.1,0.7,0.1c0.2,0.1,0.3,0.3,0.5,0.4c0.1-0.6,0.5-1.2,0.4-1.8c0.6-0.4,0.7-1,0.6-1.7   c9.3-22,9.5-45.3,8.4-68.7l-0.1,0.1c0.5,0,1-0.1,1.5-0.1c0.2,16.2,3.8,33-1.6,48.8c-4,17.1-10.7,34.5-9.3,52.4   c1.3,0.7,2.9-0.8,4.1,0.8c1.3,1.4,2.3,2.9,2.2,4.9c-0.1,1.6-1.1,3.1-0.1,4.7c-0.8,2.2-1.6,4.4-2,6.6c0.9,0.9,1.6,1.7,2.4,2.5   c0,0.3-0.1,0.6-0.1,1c-0.4,0-0.9,0.1-1.6,0.2c6.4,10.6,10.6,22.7,15.8,33.9c-11.6,7.5-35.4,6.9-42.5-7.2c-3.7-4.2-3.1-11.3,0-15.2   c0.9-1.3,1.3-2.7,0.6-4.2c-1.3-8.4,2.9-17.1,1.5-25.6c0.3-32.7-13.8-65-5.8-97.5c10.3-26.1,6.6-17,4.1-43.2c-2-0.5-4.1-0.5-6.3,0   c-1.1-3.8-0.1-8,0.6-11.8c1.8-1.1,1.2-2.6,0.9-4.3c-4.7-17.8,2.6-35.3,1.7-53.1c2.1-23.1-1-47.9,10.6-68.4c0.5-2.3-0.6-5.6,2.2-6.5   c1.6-7.3-2-15-3.4-22.2c-3.1-11.9-2.8-24.9-3-36.8c-8-12.5-14.5-27.9-10.5-42.7c0.4,0,0.8,0,1.3,0c0.7,7.9-1.6,16.5,2.3,23.9   c-0.1,0.7,0,1.2,0.7,1.5c8.8,13.6,9.7,29.1,10,44.9c0.5,11.4,7.3,21.6,6.7,33.1c25.7-1.3,52.5-1.2,78.7,0.9   c-1.4-16.1,0.1-31.9,1.6-47.9c1.1-11.8,0.3-25,6.1-35.4C439.2,175.8,439.5,176.3,439.8,176.9z M367.2,570.2c-1.1,0-2.2-0.2-2.8,1.4   c1.6-0.1,2.6,0.3,4.2,0.6C368.8,570.8,368.4,570.2,367.2,570.2z M362.8,567.8c1.4,0.2,2.7,0.4,4.5,0.3c-0.5-0.8-0.8-1.3-1.1-1.8   c-4.9,0.5-10.1,0.4-14.8-1.1c-0.5-1.3-0.9-2.4-1.4-3.5c0.2-0.7,0.4-2.8,0.3-3.8c3.2-2.2,7.7-0.9,11.3-1.9c0.7-4.4,2.6-8.8,2.2-13   c-0.7,0.4-1.4,0.8-2.2,1.1c-0.1-0.6-0.2-1.1-0.3-1.5c-2.9-0.1-9.6,1.3-12,2.5c0.3,4.5,0.5,10.1-5.2,10.8c-0.4-0.2-0.8-0.4-1.4-0.6   c-2.7,5.8,0.6,13.5-4.3,17.8c-0.8,3.1-1,6,0.2,9c14.1,17.5,17.5,13.1,38.5,10.6c-2.1-5.6-3.3-11.9-6.8-16.5   c-5.4-0.3-10.6,1.1-15.1-2.3c0.3-1.1,0.6-2.1,0.9-3.2c-1.1-0.8-2-1.5-3.3-2.4c2.3-1.7,4.4-1,6.9-1.2   C360.7,567.7,361.7,568,362.8,567.8z M446.4,547.9c-3,0-6.1,0-9.1,0c-0.2-0.4-0.4-0.8-0.6-1.2c3.2-3.4,5.6-0.6,9.1-1.5   c-1.4-2-0.3-4.7-2.2-6.7c-4.8,0.5-10.3-0.6-15,1.1c-1.1-5.3,8-2.4,11.3-3.8c-0.1-0.8-0.2-1.4-0.3-1.9c-5.6,0.2-10.9,1.3-16,2.4   c-2.2,5.8-1.3,12.2,5.9,10.1c0.4-1,0.9-2,1.3-3c1.2,0.5,0.4,1.6,0.8,2.3c-0.4,4.2-6.9,4.9-9.6,2.7c-0.3-0.8-0.5-1.6-1.6-1.7   c-0.2,5-2.3,8.9-4.7,12.5c1.4,3.2,0.1,5.8-1.5,8.4c5.6,9.8,14.3,6.5,22.4,10.2c2.4,1.3,0.7,4.9,3.4,5.8c9.8,2.3,24.3,3.5,31.2-5.5   c-2.4-6.1-8.1-9.7-12-14.9c-2.8,1.3-5.8,0.7-8.7,0.4c-0.4-0.7-0.7-1.3-1-1.8c-1.5,0.3-2.8,0.6-4.1,0.9c-1.6-1.7,0.7-2.5,1.7-3.5   c2.4-0.3,4.9-0.7,7-2.1c-3.1-0.7-14.1,5.2-12.9-0.8c1.3-0.4,2.7-0.8,4.2-1.2c-1.7-0.6-3.1-0.4-4.3,0.4c-2.1-0.5-6.1,1.4-6.6-1.7   c0.7-0.6,1.5-1.2,2.3-1.8c-2.2-0.7-4.3-0.2-4.9-3C433.5,548.2,451.8,548.8,446.4,547.9z M349.9,259.7c-1.5,4.5-3.1,9.9-6.3,14.1   c-6.6,13.9-2.2,32.2-5.3,47.5c1.5,22.2-5.9,43.8-1.1,65.7c0.5,3.5-2.5,7.1,0.1,10.2c81.4-1.3,39.4,0.5,65.9-59.7   c0.2,0,0.5-0.1,0.7-0.2c-1.4,9.6-4.8,19.5-3.8,29.1c-4.5-0.1-2.7,4.8-1.6,7.4c-0.8,6.3,1.3,12.9,1.9,19.2   c17.5,6.4,35.8,5.1,53.9,4.2c2.3-22,0.3-45.8-7.1-66c-1.4-23.9-7.6-46.1-14.6-68.9c-1,2.4-0.9,3-2.7,4.7c0.3-1.8,0.7-2.9,0.7-4.3   c-20-2.3-41.5-3.4-62-3c-0.3,1.4-0.6,2.7-0.8,4.1c-0.2,0-0.3,0-0.5-0.1c-0.1-1.3-0.2-2.6-0.4-3.9   C361.3,257.2,355.7,260.2,349.9,259.7z M425.5,523.9c1.9,2.4-0.9,7,2,8.6c3.1-0.9,7-0.3,9.6-2.3c0.6,0.4,1,1.7,2.4,0.8   c-1.1-33,10-66.3,1.2-98.9c-0.5,1-0.8,1.7-1.1,2.3c-1.2-0.5-0.4-1.7-0.9-2.4c-0.3-1.3,0.8-1.9,1.8-2.8c-0.5-0.8-1-1.5-1.5-2.3   c3.6-6.7,2.7-14.1,3.7-21.3c1-1.7,1-3.2-0.2-4.5c-11.1,1.3-21.5-0.4-32.3-1.8c-0.4-0.4-0.8-0.7-1.2-1.1c-0.8,0.6-1.5,1.1-2.1,1.6   c0,5.3,0.1,6,2.2,10.2c6.6,16.4,0.3,33.5,0.6,50.4c2.9,24.7,12,48.6,13.2,73.5c0.9-0.3,1.6-0.5,2.3-0.7   C425.2,529.8,425.4,526.9,425.5,523.9z M343.2,545.5c0,1.5,0,3.1-0.6,4.8c-0.9,5.4,7.5,2.7,4.8-6.2   C345.7,543.8,344.5,544.2,343.2,545.5z M458.3,561.9c-0.2-1.4-1.1-2-2.3-2.4c-0.9,0.4-1.8,0.8-3.2,1.5   C454.9,561.3,456.4,562.2,458.3,561.9z M363.9,560.4c-2.5-2.5-4.7-1.2-6.7-0.9C359.2,559.8,361.2,560.1,363.9,560.4z M359.3,570.7   c1,0.2,3.2,1.9,3.2-0.2C361.6,569.9,360.5,570.1,359.3,570.7z M366.9,574c1.6,0.7,1.6,0.7,2.6-0.3   C368.5,573.8,367.7,573.9,366.9,574z M447.6,550.6c1.1,0.1,1.8,0.2,1.4-1.1C448.6,549.8,448.2,550,447.6,550.6z M445.4,401   c-1.1,0-1.1,0-1,1.2C444.8,401.8,445.1,401.5,445.4,401z" />
	<path display="inline" fill="#010000" d="M376.9,34.1c1.9-3.3-0.4-3.5,4.5-4.5c1,1.3,1,1.3,2.2,0.9c-0.4-1.1-1.4-0.8-2.2-0.8   c-0.7-1.6-1.9-2.5-3.7-2.3c0,0,0,0,0,0c0.8-0.8,1.9-0.8,3.1-0.8c0,0,0,0,0,0c0.3,0.3,0.5,0.5,0.8,0.8c0,0,0,0,0,0   c0,0.5,0.2,0.8,0.8,0.7l0,0c0,1.4,3.9,1.4,4.3,0.1c2.2-1.2,4.4-2.4,5.8-4.4c1.8,0.2,1,1.6,1.4,2.4c1.5,0.1,1.9-1.4,3-2.5   c7.2-0.7,14.1,0.8,21.1-1.5c0.3,0.3,0.6,0.6,0.8,0.8c-0.7,4.2-2,8.3-1.5,12.6c-0.2,2,0.9,5-1.5,6c-0.7-0.3-1.5-0.6-2.2-0.9   c-0.6-0.9-1.1-0.8-1.5,0.1c-2.7,0.1-5.5-0.5-7.9,0.5c-0.4,0.8-0.7,1.3-1,1.8c-1-2.2-3.3-3.3-5.7-4.6c-1.3,0.6-2.2,1.2-2.5,2.6   c1.5,0,3-0.6,4.5,0.3c0.3,0.8,1,1.8,1.6,2.5c0.2,2.3-2.5,0.7-3.5,2.2c-0.7,0.8-1.7,0.7-2.6,0.8c-0.7-0.7-1.1-1.7-2.2-1.5   c-1.3,1.4-0.5,3.8-1.4,5.8c2.3-1,1-4.4,3.6-4.3c0,0.5,0.4,1.2-0.2,1.5c-0.2,0.3-0.4,0.6-0.5,0.9c0,0.8-1.2,1.1-0.8,2.1   c-0.8,0.2-0.8,0.9-0.7,1.5c-0.2,0.3-0.4,0.6-0.6,0.9l0,0c-0.5-0.4-1-0.9-1.6-1.5c-0.5,1-1,1.9-1.5,2.8c0.6,0.3,1.1,0.5,1.5,0.7   c-1.7,3.9-3,8-4.5,12c-0.4,0.2-0.8,0.4-1.3,0.7c-1.4-2.4-1.6-11.6-5.3-8.7c2.6,5.4,3.6,2.1,2.1,9.5c-0.9,0.1-1.8,0.2-2.8,0.4   c0.6,1,1.1,1.9,1.5,2.6c1,0.1,1.8,0.2,2.8,0.4c9.5-10.8,20.2-21.1,34.1-25.4c0.1,1,0.1,1.7,0.1,2.6c-0.2,0.3-0.5,0.5-0.7,0.8   c-16.4,2.9-27.8,20.1-39.1,31.8c-0.7-0.2-1.3-0.3-1.8-0.4c-10,5.7-18.9,12.2-25.7,21.6c-1.6-1.8,0.5-3.1-0.1-5.1   c-13,3.5-19.2,14-23.7,26.1c-0.3-0.6-0.6-1.1-0.8-1.7c0.7-7.2,5.9-12.8,9.5-18.6c0.3-2.1,1.8-2.8,3.4-3.6   c5.4-2.3,10.9-4.5,16.1-7.4c6.5-5.7,13.9-10.5,21.6-13.9c1.2-4.8-3.7-9.1-2.7-13.9c0.4-1.2,0-2.4-0.6-3.5   c-5.6-8.9,2.2-17.6,2.9-26.3c0.9,0.3,1.7,0.6,2.6,0.9c-0.4,1.1-1.5,1.5-1.6,2.6c2.4-0.4,4.2-2.3,6.8-0.6c0.1,0.1,0.4-0.1,0.9-0.3   c0-0.4,0.1-1,0.1-1.8c-1.1,0.1-1.9,0.2-2.9,0.3c-0.4-0.5-1-1.2-1.5-1.9c-0.7,0.2-1.4,0.3-2.2,0.5C377.4,34.9,377.1,34.5,376.9,34.1   z M404.5,35.6c-0.2,0.1-0.8,0-0.3,0.5C404.3,36,404.4,35.8,404.5,35.6c0.2,0,0.5,0,0.8,0c0.1,0.4,0.1,0.7,0.2,1.2   c2.6,0.3,10,5.4,9.8,0.4c-0.9,0.2-1.8,0.3-2.9,0.5c-1-0.5-2.2-1.2-3.3-1.8c0.2-0.9,0.3-1.5,0.5-2.6c-1.6,1.1-2.5,2.7-4.4,2.2   C405,35,404.8,34.9,404.5,35.6z M387.3,50.6c0.9-1.1,1.5-2,1.4-3.5C387.3,47.8,386.2,49.6,387.3,50.6c-0.2,0.7-0.9,0.7-1.5,0.7   c-1.1-1-2.6-0.6-3.5-1.8c-1,1.4-1,1.4-0.2,2.6c0,0,0,0,0,0c1.3,1.3,2.5-0.2,3.7-0.7c0.1,0.9-0.3,1.8,0.4,2.9   C387.4,53.1,389.2,51.7,387.3,50.6z M375.5,62.7c-0.8,2.1,0.7,3.3,1.8,4.7c0.5-1.1,1-2.1,1.6-3.2c-0.4-0.5-0.8-1.1-1.2-1.7   c0.1-0.7,0.2-1.3,0.3-2.3C376.7,60.8,375.3,60.8,375.5,62.7z M388.4,39.5c0.1,0.2,0.3,0.5,0.4,0.7c2.1-0.2,2.9-2.1,4.5-3.4   c-0.4-0.4-0.7-0.7-1-0.9C390.9,37.2,389.6,38.3,388.4,39.5z M405.7,28.2c-0.7,1.2-1.6,2-1,3.3c1.2-0.6,3.3-1.6,3.2-3.1   C407.3,28.3,406.6,28.3,405.7,28.2z M387.1,31.8c2.2,0.5,5-0.9,4.3-2.7C390.1,29.9,388.9,30.6,387.1,31.8z M379.3,53.8   c0.1,0,0.2,0,0.3,0c0.1-1.2,2.4-5-0.3-4.2C379.3,50.9,379.3,52.3,379.3,53.8z M387.1,59.8c-1.5,1.4-1.5,1.4-1.6,3.2   C386.6,62.2,387.7,61.5,387.1,59.8z M376.3,69.6c0,0.8,0,1.6,0,2.5c0.6,0.1,1.1,0.1,1.9,0.2C377.6,71.1,377.7,69.9,376.3,69.6z    M413.2,32.3c-1.3-0.2-1.3-0.2-2.3,0.7C412.1,33.3,412.1,33.3,413.2,32.3z M380.4,66.5c-1,0.9-1,0.9,0,1.6   C380.8,67.5,380.7,67.4,380.4,66.5z M380.9,74c-0.2,0.2-0.1,0.3,0.1,0.4c0-0.1,0.1-0.3,0.1-0.4C381.1,74,381,74,380.9,74z" />
	<path display="inline" fill="#010101" d="M529.3,64.8c-3.6,14.9-15.5,24.7-27.9,32.2c-16.8,21.7-24.6,19.9-47.7,30.1   c-8.1,5.2-6.7,30.3-11.9,40.6c-1.5-1.8-0.4-5.7-0.6-7.7c-12.7-13.4-11.5-34.4-23.5-47.5c0.5,1.5,0.6,2.8,1.6,3.8   c3.7,12.5,5,35.4-10.4,37.7c-0.5,1.8-1.1,3.6-1.6,5.5c-0.4,0.1-0.8,0.3-1.5,0.5c0.3-2.4,1.7-4.3,0.6-6.6   c-12-1.6-18.5-14.3-22.9-24.2c-5,4.2-11.6,7-14.9,12.5c-0.2-0.5-0.4-1.1-0.6-1.5c-1.7-0.3-2.9,1.4-4.6,0.4   c8.3-6.2,17.8-11.1,23.5-20.2c4.3-5.3,7.6-12.1,12.9-16.1c0.3,0.5,0.6,1,0.8,1.5c-1.7,2.4-3.4,4.8-4.9,6.8c0.1,1.2,0.2,1.9,0.3,3.1   c-0.6-0.8-0.8-1.2-1.2-1.7c-3.6,4.3-6.5,8.9-10,13.3c2.2,7.6,12.3,23.9,21.1,22c-1-4.5-2.6-9.1-3.9-13.6c0.2-0.6-0.1-1.3,0.8-1.5   c1.4,3,3.1,6,4.4,9.1l0,0c0.6,2.4,1.2,4.9,1.8,7.6c15.8-6.1,8.5-26.9,6.9-39.4c-1-0.7-1.4-1.6-2.7-1.6c0,2.1,0,4.2,0,6.3   c-1-0.8,0-5.3-1.4-4.3c-2.1-3.3,0.2-7.4-1-10.9c-1.6,0-3,0-4.5,0c-2,1.5-5.4,4.3-7.7,2c13.5-6.1,22.2-21.4,31.7-32.3   c1.3,0.5,1.6-0.9,2.6-1.4c1.6,0,3.3,0,5.1,0c-0.3,1.4-0.3,1.4-2.3,1.5c-5-0.2-11.2,15.3-14.2,19.4c-0.3-0.3-0.5-0.5-0.8-0.8   c0-0.4-0.1-0.8-0.2-1.7c-2.6,5.6-8.8,6.3-12,11.2c2.3,0.4,4.7-0.5,6.4,1c-0.4,0.6-0.8,1.2-1.6,2.3c15-6.3,28.1-21,46-14.2   c2.6-4.8,7.5-8.3,11.7-11.7c2.9-3,13.9-1.5,13.1-4.2l0,0c1.3-0.2,0.5-1.4,0.1-2.1c1.2-0.3,2.4-0.6,3.6-0.9c0.3,0.2,0.5,0.5,0.8,0.7   c-1.2,2-2.3,4-2.4,6.1c-13.6,4.3-13-1.3-25.6,12.7c0.1,0.6,0.1,1.2,0.1,1.5c-2.1,1.6-3.4,3.2-5,5.1c-0.3-0.3-0.6-0.6-0.9-0.9   c0.3-1.4,2-2.3,1.7-4.1c-15.4-4.7-28.6,6.7-41.1,13.9c15.2,14.4,12.7,37,26.6,51.6c6-44.9,11.3-26.4,41.5-45.7   c7.2-4.6,12.3-12.1,18.8-17.8c12.4-6.1,20.8-17,25.9-29.2C529.3,63.5,529.2,64.2,529.3,64.8z" />
	<path display="inline" fill="#100E0F" d="M529.3,64.8c-0.1-0.6,0-1.3-0.8-1.6c0.1-0.9,1.3-1.6,0.5-2.7c-7.7,11.4-22,12.8-32.7,4.1   c-2.4,1.9-4.3,4.4-7.4,5.3c-0.3-0.2-0.5-0.5-0.8-0.7c9.7-5.1,13.3-15.6,15.7-25.4c0.3,0.3,0.6,0.6,0.9,0.9c-1.4,6.4-3,13-7.3,18.2   c29.8,22.4,51.1-56.5,15.5-57c0-0.3,0-0.5,0-0.8c12.3-2.5,21.9,7.6,24.6,18.8c0.9-0.1,1.7-0.2,2.2-0.3c6.5-9.2,18.5-12.7,27-4.3   c0,0.2,0,0.5,0,0.7c-0.4,0.1-0.8,0.2-1.4,0.3c11,17.2,4.4,47.4-16.7,53.2c5,1,8.2-0.4,12-2.1c0,0.2,0,0.5,0,0.7   c-9.8,7.9-27.7-0.9-27.6-13.4l0,0c11.1,30.3,37.5,2.1,36.5-18.7c1.9-17.1-15.8-35.7-28-16.3c1,1.6,1.8,3,2.6,4.3   c-0.8,0.3-0.7,1-0.8,1.6c-1.2-1.5-2.4-3-3.6-4.6c-0.7,0.1-1.4,0.2-2.1,0.3c0.2,1.5,0.4,2.8,0.5,4.1c-1.7,1.1,0.4,3.4-1.4,4.5   c0.1-8.5-1.8-20.2-10.1-24.4c12.1,19.6,4.8,52.2-18.6,59.4c14.3,2.9,18.8-13.6,22.7-8.2C530.7,62.5,530.1,63.7,529.3,64.8z" />
	<path display="inline" fill="#110F10" d="M512.8,5c0,0.3,0,0.5,0,0.8c-5.1,2.1-11.8,4.9-13.5,10.9c1.4-0.3,1.8-1.1,2.3-2   c0.2,0.2,0.5,0.4,0.9,0.8c-0.8,0.9-1.4,1.7-2.3,2.7c2.4,3.2,3,7.2,4.6,10.7c-0.1,0.6-0.1,1-0.2,1.5c-0.3,0.3-0.6,0.6-0.9,0.9   c-2.2-6.9-4.3-17-12.6-19.2c14.3,16.2,10.7,48.6-9.7,57.8c1.3,0.1,2.1,0.1,3,0.2c4,6.2-22.4-2.8-22.9-15.1c-0.5,0.1-0.7,0.1-1,0.1   c0,0-0.2-0.2-0.2-0.2c0.7-1.2,1.2-2.4,1.7-3.7c8.2,32.3,35.6,13.6,36.4-11.1c4.2-24.1-23.7-47.9-32.7-15.8c-1-0.5-2.1-1-3.1-1.5   c-3.1-7-6.7-15.8-14.9-17.9l0,0c-0.1-0.5,0-1,0-1.5c8.6,2.7,13.5,10.7,16,18.9C470,6.6,485.8,2.5,498,14.9   C501.9,10.3,506.5,5.6,512.8,5z" />
	<path display="inline" fill="#0E0D0E" d="M447.8,3.5c0,0.3,0,0.6,0,0.9c-0.8,0.3-0.4,0.5,0,0.7c0,0,0,0,0,0   c20.3,18.5,13.5,64.8-17.3,65.6c0-0.3,0-0.7,0-1c-7.9-3.1-12.5-11-13.9-19.1c0.2-0.3,0.5-0.5,0.7-0.8c11.6,36.8,40.6,13,40.9-15   c1.4-30.4-26.6-45.1-39.4-11.9c-0.3-0.3-0.6-0.6-0.8-0.8C422,9.8,434.1-1.9,447.8,3.5z" />
	<path display="inline" fill="#040404" d="M536.7,34.1c1.8-1-0.3-3.4,1.4-4.5c1.2,3.4,1.8,6.8,1.4,10.4l0,0   c-0.8,0.6-1.3,1.4-1.3,2.4c-0.8,0.5-0.8,1.3-0.8,2.2l0,0c-0.8,0.5-0.9,1.4-0.9,2.2c0,0,0,0,0,0c-0.2,0.6-0.4,1.2-0.7,1.9   c1.5,0.4,2.7,0.9,3.8-0.3c0.7,0.1,1.2-0.1,1.4-0.9c0.9-0.5,0.9-1.3,0.8-2.1l0,0c0.8-0.9,0.7-1.9,0.7-3l0,0c1.2-2.1,1.5-4.8,2.7-6.9   c-0.7-1.9-1.4-3.8-2.1-5.6c0.1-0.6,0-1.4,0.8-1.6c1.2,2.7,2.4,5.3,3.8,8.4c5.8,2.5,2.1,12.8-4.3,11c-2.3,1.4-4.1,2.6-5.7,3.6   c-1.3-0.3-2.2-0.4-3.1-0.6c-2.5,2.3-1.7,5.3-1.9,8.2l0,0c-0.2,0-0.5,0-0.7,0c0,0,0,0,0,0c-0.1-0.2-0.2-0.4-0.3-0.6   c-0.7,0.8-0.9,1.9-1.3,2.8c-0.9-0.4-0.9-1.9-2.3-1.5c0-0.3,0-0.5,0-0.8c0,0,0.1,0,0.1,0C532.2,51.1,536.5,43,536.7,34.1z    M548.8,41.3c-0.7-1.3-0.8-2.6-2.2-3.2c-1,1.8-2.6,4.6-1.8,6.5c0.7,0,1.5-0.1,2.4-0.1C547.7,43.4,548.2,42.5,548.8,41.3z    M537.7,39.1c0.1,0,0.2,0,0.3,0c0-0.5,0-1,0.1-1.5c-0.1,0-0.2,0-0.3,0C537.7,38,537.7,38.5,537.7,39.1z" />
	<path display="inline" fill="#1A1817" d="M332.8,154.3c-0.4,0-0.8,0-1.3,0c-0.2-0.5,0.1-1.3-0.8-1.5c-2.9-4.6-6.1-10.1-5.2-15.7   c2.2-2.2-1.8-5,0.5-7.4C327.2,138.3,328.4,146.6,332.8,154.3z" />
	<path display="inline" fill="#252123" d="M566.5,20c0-0.2,0-0.5,0-0.7c8.8,5.9,10,18.7,8.1,28.3c-0.2-0.3-0.5-0.5-0.7-0.8   C574.4,37.2,573.6,27.1,566.5,20z" />
	<path display="inline" fill="#222526" d="M574,46.8c0.2,0.3,0.5,0.5,0.7,0.8c-1.6,9-5.5,19.5-14.1,24.6   C566.3,64.6,572.4,56.7,574,46.8z" />
	<path display="inline" fill="#1F1E1E" d="M376.1,411.9c0.3,1-0.6,2.2,0.7,3c-0.4,4.9-0.5,10.2-3.1,14.9c-0.3-0.3-0.5-0.5-0.8-0.8   C374,423.2,374.9,417.4,376.1,411.9z" />
	<path display="inline" fill="#343535" d="M376.9,34.1c0.3,0.4,0.5,0.8,0.8,1.2c0.8-0.2,1.5-0.3,2.2-0.5c0.6,0.7,1.1,1.4,1.5,1.9   c1-0.1,1.8-0.2,2.9-0.3c-0.1,0.8-0.1,1.4-0.1,1.8c-0.5,0.2-0.8,0.4-0.9,0.3c-2.6-1.7-4.4,0.2-6.8,0.6c0-1.1,1.2-1.5,1.6-2.6   c-0.9-0.3-1.7-0.6-2.6-0.9C376,35.2,376.4,34.6,376.9,34.1z" />
	<path display="inline" fill="#342B29" d="M371.7,433.6c-0.5,0.8-1,1.6-1.5,2.4c-0.7,0.2-0.9,0.7-0.8,1.3l0.1-0.1   c-1.7,0.4-2.3,2.6-4.6,2.7c1.5-3.1,3.7-5.3,6-7.2C371.2,433,371.4,433.3,371.7,433.6z" />
	<path display="inline" fill="#302C2B" d="M326,129.7c-2.4,2.4,1.6,5.3-0.5,7.4c-1-4.8-1.3-9.5-0.2-14.4   C326.7,124.8,325.9,127.4,326,129.7z" />
	<path display="inline" fill="#5B5F64" d="M441,164c0.3,1.2-0.4,2.9,0.8,3.8c-0.3,1.7-0.5,3.4-0.8,5.1c-0.2,0.1-0.4,0.1-0.7,0.1   l0.1,0C440.4,170,440,166.9,441,164z" />
	<path display="inline" fill="#201A1A" d="M377.7,27.4c1.8-0.2,3,0.7,3.7,2.3c0,0,0,0,0,0c-0.8,0.2-1.6,0.5-2.4,0.7   C378.8,29.3,378.3,28.3,377.7,27.4z" />
	<path display="inline" fill="#5A5A59" d="M371.7,433.6c-0.3-0.3-0.5-0.6-0.8-0.8c0.7-1.3,1.4-2.6,2.1-3.9c0.3,0.3,0.5,0.5,0.8,0.8   C373.1,431,372.4,432.3,371.7,433.6z" />
	<path display="inline" fill="#554F52" d="M439.8,176.9c-0.3-0.5-0.6-1.1-0.9-1.6c0.5-0.7,1-1.5,1.5-2.2l-0.1,0   C440.8,174.4,440.2,175.6,439.8,176.9z" />
	<path display="inline" fill="#201A1A" d="M380.7,26.6c-1.1,0-2.2,0-3.1,0.8c-0.2-0.4-0.3-0.7-0.6-1.4   C378.6,26,379.7,25.4,380.7,26.6z" />
	<path display="inline" fill="#201A1A" d="M386.6,28.1c-0.4,1.3-4.3,1.3-4.3-0.1C383.7,28.8,385.1,27.9,386.6,28.1z" />
	<path display="inline" fill="#EECABA" d="M330.7,152.9c0.9,0.1,0.7,0.9,0.8,1.5c-0.3,0.5-0.5,1.1-0.8,1.6   C330.7,154.9,330.7,153.9,330.7,152.9z" />
	<path display="inline" fill="#828D90" d="M366.4,561.2c-0.5-0.6-0.9-1.2-1.6-2.1c0.8-0.1,1.2-0.1,1.6-0.2c0,0.5,0,1.1,0,1.6   C366.6,560.8,366.6,561,366.4,561.2z" />
	<path display="inline" fill="#434041" d="M366.4,560.6c0-0.9,0-1.7,0.1-2.6C367.6,559.3,367.6,559.6,366.4,560.6z" />
	<path display="inline" fill="#FBDFD3" d="M369.4,437.3c-0.1-0.6,0.1-1.1,0.8-1.3c0.3,0.4,0.5,0.8,0.8,1.2   C370.4,437.3,369.9,437.3,369.4,437.3z" />
	<path display="inline" fill="#373A46" d="M532.2,58.8c0.2,0,0.5,0,0.7,0c0,0.5-0.1,1.1-0.1,1.6C532.7,59.9,532.4,59.3,532.2,58.8z" />
	<path display="inline" fill="#4B4F5D" d="M574.2,50.1c-0.2-0.7-0.3-1.3,0.5-1.7C574.5,48.9,574.3,49.5,574.2,50.1z" />
	<path display="inline" fill="#CCD2E9" d="M440.6,174.5c-0.1-0.5-0.1-1-0.2-1.5c0.2,0,0.5-0.1,0.7-0.1   C441.2,173.5,441.2,174.1,440.6,174.5z" />
	<path display="inline" fill="#373A46" d="M531.5,58.8c0.2-0.2,0.3-0.4,0.5-0.6c0.1,0.2,0.2,0.4,0.3,0.6   C532,58.8,531.7,58.8,531.5,58.8z" />
	<path display="inline" fill="#201A1A" d="M382.3,28.1c-0.5,0-0.8-0.2-0.8-0.7C381.7,27.6,382,27.8,382.3,28.1z" />
	<path display="inline" fill="#201A1A" d="M381.5,27.3c-0.3-0.3-0.5-0.5-0.8-0.8C381,26.8,381.2,27.1,381.5,27.3z" />
	<path display="inline" fill="#5876E8" d="M393.4,260.2c5.2-0.1,10.4,0.3,15.6,0.9c1.1,1.5,0.8,2.4,0.8,4.5c1.8-2,1.1-5.1,4.4-3.5   c0,2.3,0.4,4.4-0.5,6.3c2.7,6.4,1.8,13,5.8,18.8c0-4.2,0-7.9,0-11.2c0.7-0.7,1.1-1.2,1.5-1.6c0.5-2.4-1.2-4.8,0.1-7.3   c1.1,0.1,1.7-0.2,2.7,0.4c-0.2,3.8,4.3,7.5,7.6,8.3c-1.7-3.2-5.2-5.3-5.2-8.8c2.5,0.5,5.2,0.1,7.4,1.5   c8.9,19.7,11.2,41.2,13.5,62.6c7.5,20.2,9.4,44,7.1,66c-12.1-0.5-25.2,2.8-37.1-0.2c0-1.1,0-2.2,0-3.2c5.5-7-2.3-17.8-3.7-25.2l0,0   c0-0.9,0-1.7,0-2.6c5.3,6.6,7.2,17.8,15.4,21c0.8-12.7-9.5-23.4-14.6-34.4c-2.4-4.8-3.3-16.4-8.4-18.4c0-0.3,0.1-0.5,0.2-0.7   c0.4-0.2,0.9-0.3,0.9-0.4c6.6,5.7,11.2,12.2,18.2,17.3c-1,0.2-1.8,0.4-2.6,0.6c1.3,2.5,7.3,8.6,9.8,9.9c2.2-2.2-6.9-11.7-4.7-14   c1.1,0.3,1.7,1.7,3,1.5c1.8,2.2,1.8,2.2,4,3.4c-1.2-1.7-2-3.2-4-3.4c-9.2-7.8-17.6-16.9-26.6-24.6c-0.1,2.7-1,4.5-0.4,7.1   c0.2,1.3,1.2,2.8,0.2,4.2c-3.9,7.5-5.7,17.3-8.9,25.5c-3.2,10.7-1.3,22.6-5.9,32.9c-8.1,3.8-18.5,0.7-27,2.6   c1.8-15.6,1.7-31.7,4.7-46.9c2.5,3.8,2.2,8.7,5.7,11.8c-0.1-3.9,0.8-7.5-1.8-9.8c-5.5-22.9-3.2-45.1,0.8-67.9   c0.9,6.8,2.5,12.8,5,18.5c1.2-0.5,1.5-1.4,1.2-2.3c-0.9-11.4-2.2-22.7-3.7-34.1c1.3-1.3,3.9-1.1,5.3,0.1   c-0.3,6.4-0.1,13.1,0.4,19.3c1.4-2.4,3.6-21.4-0.1-21c-1-0.6-1.1-1-0.4-2.7C383.9,260.9,388.6,260.6,393.4,260.2z M392.5,265.5   c1.3,0,2.7,0.3,4-0.6c-2.9,0.3-5.9-0.7-8.7,0.4C389.3,265.7,390.9,265.7,392.5,265.5z M406,262.6c-0.5,0.5-1,1-1.4,1.5   c-0.4-0.4-0.7-0.9-1.2-1.4c-0.4,0.5-0.6,0.8-1,1.2c1,0.3,1.5,0.4,2.1,1c-1.2,6.7-0.6,13.7,0.6,20.3c0-6.3,0.1-12.6,0.2-18.8   C406.2,265.3,409.1,262.7,406,262.6z M389.4,370.7c-0.5,1.9-1.9,4.9-0.9,6.4c0.8-1.6,5.4-15.8,2.3-15   C390.4,365,389.9,367.8,389.4,370.7z M381.4,352.9c-8.8,10.6-13.4,24-13.6,37.8c3.1-12.2,5.1-24.5,13-34.8c1.6-3.6,5.9-7,5.7-10.9   C384.7,347.9,382.5,350,381.4,352.9z M404.7,315.2c-2.5,2.7,12.5,11.1,14.5,10.4C416.4,321.2,410.2,314.7,404.7,315.2z    M386.9,280.9c0.1,0,0.3-0.1,0.4-0.1c-0.5-3.9,0-12.2-2.7-14.5C383.4,271.4,386.1,276,386.9,280.9z M397.7,334.3   c1.4-1.3,3.7-1.9,4.4-3.8C399.5,330.5,398.6,332.5,397.7,334.3z" />
	<path display="inline" fill="#CCD2E9" d="M440.4,173c-10.8,19.1-6.2,44-9.9,65.5c-1.8,0.1-3.6,0.3-6.3,0.4c2.6,0.8,4.4,0.6,6.2,0.6   c-0.2,6.4,0.9,12.5,0.8,19c-20.8-2.5-41.6-1.1-62.5-1.2c-4.8,0.2-2.6-6.7-3-9.7c1.8-0.2,3.6,0.2,5.4-0.8c-1.6,0-3.1,0-4.7,0   c0-2.9,0-5.9,0-8.8c0.2,0,0.5,0,0.7,0c5,1.2,11.6,3.7,16.6,0.9c-1.4-0.8-4.1-1-3.8-3.2c0.6-0.1,1.2-0.2,2.4-0.4   c-6.7-0.6-10.5-5.3-15.7-8.8c0-2.6,0-5.1,0-7c0.7-1.1,1.1-1.8,1.5-2.5c-0.9-1.1-1.7-2.1-2.3-2.9c0.6-12.6-6.3-23.2-9.9-34.6   c6.6-2.8,10.1-8.4,12.7-14.8c2.3,0.3,4.3,1.7,6.7,1.7c0.9,1,2.1,0.5,3.2,0.5l0,0c1.8,3,13.4,2.2,15.2-1   c-7.7-4.3-15.6-7.1-22.8-11.6c-0.4-4.7,1.1-10.2-1.4-14.4c4.3-3.9,9.2-7.2,14-10.8c4.4,9.9,10.9,22.6,22.9,24.2   c1.1,2.3-0.3,4.2-0.6,6.6c0.7-0.2,1.1-0.3,1.5-0.5c2.2,2.4,9.4,13.2,12.7,11.6c-1-0.9-1.9-1.8-2.8-2.7c0.7-0.4,1.4-0.8,2.3-1.3   c-1.7-5.1-5.7-9.1-5.4-14.9c10.4-9.7,8.2-23.1,5.1-35.8c0.2-0.5,0.4-1,0.7-1.5c9.1,14.4,9.6,31.9,21.2,45.2   C441.1,164.1,440,168.8,440.4,173z M405.1,166.1c0.5-0.6,0.6-1.1,0.2-1.7c-1.7,0.6-1.9,1.7-1.1,3.7   C404.6,167.1,404.8,166.6,405.1,166.1z M403.9,250.7c-0.1,0.7-0.8,1.4-0.1,2.2c0.2,0,0.3,0,0.5,0c0.4-2,1.8-3.6,1.8-5.7   c2.1,2.7-1.6,6.7,1,8.9c0.1-3.4,2-9.2-0.1-11.2c0.1-1.4,1.1-2.8-0.1-4.4C406,244,405,247.3,403.9,250.7z M409.7,193.8   c1.1-2.2,1.1-3.2,0.2-6.7C410,188.6,407.3,195.4,409.7,193.8z M375.1,179.2c-2-0.6-3.2,0.4-4.1,2.1c0,0.8,0.1,1.8,0.1,2.6   c2.4,2.7,7.2,7.9,9.5,2.6C379.2,183.5,377.5,181,375.1,179.2z M366.9,186.5c-1.7,0.9-1.7,0.9-2.7,2.4c1.3,2.9,3.8,8,7.4,5.9   C370.3,191.9,369,189,366.9,186.5z M407.9,236.9c2.2-2.5,2.4-6.1,0.9-12.8C407,226,406.4,235.1,407.9,236.9z M387.5,242.4   c-4.8,0.7-9.7-1.7-14.3-0.2C377.8,243.6,382.7,243.2,387.5,242.4z M408.7,208.4c-0.7,2.4-0.7,9-0.1,12.6   C409.2,217,410.6,210.1,408.7,208.4z M405.9,217.3c-3.2-2.4-6.3-0.9-9.9-1.3C399,216.3,401.7,218.5,405.9,217.3z M410.4,217.8   c1.4,2.5,4.7,1.6,7.6,1.2C415.3,217.9,413.1,217.5,410.4,217.8z M428.1,247.4c-2.4-1.7-4.9-1.3-7.5-0.9   C423.1,246.7,425.4,248.3,428.1,247.4z M403.7,229.3c-1.3-1.7-2.8-1.1-4.2-0.7C400.8,229,401.9,230.4,403.7,229.3z M423.4,169.4   c1.3,1.4,2.5,1.7,4.4,1.1C426.4,169.1,425.1,168.9,423.4,169.4z M386.4,216.5c1.7,1.3,1.7,1.3,3.6,0.9   C389,216.2,389,216.2,386.4,216.5z M410.2,201.1c-0.6,4-0.6,4,0.1,5.8C410.9,205.1,410.3,203.5,410.2,201.1z M397.9,170.6   c2.5-0.5,2.6-0.6,1.8-2.5C399,168.9,398.5,169.7,397.9,170.6z M405.9,189c1.4,0.6,2.3-0.6,0.9-1.6   C406.6,187.9,406.3,188.4,405.9,189z M421,217.8c0.8,1,1.4,0.8,2-0.1C422.4,217.8,421.7,217.8,421,217.8z" />
	<path display="inline" fill="#4B65C5" d="M373.9,265.6c1.4,11.4,2.8,22.7,3.7,34.1c0.3,0.8,0,1.7-1.2,2.3c-2.5-5.7-4-11.8-5-18.5   c-4.1,22.8-6.3,45-0.8,67.9c2.6,2.3,1.7,5.9,1.8,9.8c-3.5-3.2-3.2-8-5.7-11.8c-3,15.2-2.9,31.3-4.7,46.9c-8.3,0.7-16.6,1-24.8,0.9   c-2.5-3,0.4-6.7-0.1-10.2c-4.8-21.9,2.6-43.5,1.1-65.7c3.1-15.3-1.3-33.5,5.3-47.5c2.5-3.9,4.9-8,5.8-12.6c0.3,0,0.6,0.1,0.8,0   c-0.4,2.7-0.4,2.7,0.4,5c1.2-1.6,1.1-3.3,0.8-5c0.3-0.6,0.8-0.9,1.6-0.3c0.1,2.3-0.2,3.5,1.5,5.8c0-2.9,0-4.9,0-7   c4.2-0.7,8.2-1.7,12.4,0.3c0.1,1.2,0.2,2.6,0.4,3.9c0.2,0,0.3,0,0.5,0.1c0.3-1.3,0.5-2.7,0.8-4.1c1.1,0,2.1,0,3,0   c0.5,1.6-0.8,4.1,0.8,5.1C372.7,265.6,373.3,265.5,373.9,265.6z M341.8,344c-2.2-9.8,2.9-20.5,1-29.7c-2.4,11-3.3,23.5-1.3,34.9   C342.3,347.3,341.9,345.6,341.8,344z M358.1,278.1c-1,1.2-0.8,2.9-1.3,4.4c1.5-0.4,1.5-0.3,2.1-2.8c2.2-4.3,4.1-8.6,6.2-13.1   C360.6,266.2,359.1,274.6,358.1,278.1z M343.2,295.4c-1.4,2.9-0.5,6.8-0.1,10.1c0.9-11,3.7-21.7,6.2-32.4c0.1-0.6,0-1.3-0.9-1.3   C345.5,279,344,287.4,343.2,295.4z M344.5,391.9c-1.6-14.7,6.5-28.4,3.1-43.4c-2.3,6.6-1.3,8.2,0,13.3   C347.4,371.9,340,382.2,344.5,391.9z M357,265.4c0.3-1.4,1.2-4.2-0.5-4.8C355.7,262.9,355.7,263.4,357,265.4z M362.1,293.1   c1.4-1.8,1.9-3.5,1.9-5.4C362.8,289.1,361.7,290.6,362.1,293.1z" />
	<path display="inline" fill="#FBDFD3" d="M373,428.9c-1.8,4.6-6,6.4-8.1,11.1c2.3-0.1,2.9-2.3,4.6-2.7c1.1,23.4,0.9,46.7-8.4,68.7   c-1.2,0.5-0.3,1.5-0.7,2.2c-0.2,0-0.4,0-0.6,0c-0.2-1.2,0.1-2.6-0.9-3.7c1.2-6.8,0.6-13.8,0.5-20.6c-0.1,0-0.3,0-0.4,0   c-2.2,8.3-1.7,16.7-0.2,25.1c-0.9,10.1-2.7,20.1-0.3,30.2c-3.3,0.3-6.2,1.7-9.3,0.9c0.1-2.8,0.1-5.8-1-8.4c-1.1-0.4-0.8-1-0.4-1.7   c1.5-1.5,0.5-3.2,0.7-4.7c-0.5-0.5-0.8-0.7-1-0.9c0.2-10.6,0.9-20.6-2.3-31.1c-0.8,4.3-1.5,8-2.2,12c-3.9-7.1-1.5-16.1-3.2-23.8   c-1.7-14.7-2.8-32.4,6.3-44.9c0.8,1.7-0.5,2.9-0.6,4.3c-5.3,7.1-1,16.1-2.7,24.4c5.8-14.6-3.3-10.4,6-30.5   c-0.7-0.5-1.2-0.9-1.6-1.2c-1.2,1.1-2.2,2-3.2,2.9c-0.9-0.6-0.7-1.6-0.5-2.4c2.1-5.8,4.3-11.2,3.6-17.6c2.1,0.7,4.3,2.6,6,0.5   c7.6,0.1,14.5-4.8,17.1-11.9c3.5-1.2,5.9-3.4,8.9-5.6C378.5,409.4,373.6,418.7,373,428.9z M361.9,464.7c-1.1,2.6-1.1,2.6-0.1,4.8   c0.5-2.2,1-4.2,1-6.4c-0.2,0-0.3,0-0.5-0.1C362.1,463.6,362,464.2,361.9,464.7z M356.7,423.9c0.6-1.5,0.6-1.5-0.6-2.3   c-2.5,2.2-1.2,5.7-2.8,8.4c-0.3,2.3,1.7,8.1,3.9,8.5C359.8,434,357,428.7,356.7,423.9z M360.9,472.6c-0.6,3-1.6,6,0.2,9   C361.1,478.6,361.7,475.6,360.9,472.6z M371.2,409.8c-1.8,1.3-1.5,2.3,1.4,4.5C372.4,412.6,372.5,411,371.2,409.8z M364.6,457.2   c0.7-1.1,0.6-2.1,0-3.1C364,455.1,363.9,456.1,364.6,457.2z" />
	<path display="inline" fill="#FBDFD3" d="M439.6,434.3c0.3-0.6,0.6-1.2,1.1-2.3c8.8,32.6-2.2,66-1.2,98.9c-1.4,0.9-1.8-0.4-2.4-0.8   c-2.6,1.7-7.2,2.4-10.2,2c-0.6-3,1.5-8-1.5-9.8l0.1,0.1c0.2-5.7-0.2-11.5-1.1-16.9c-2-2.2-0.9-5.1-1.2-7.7   c-9.2-14.4-8.8-47.5-6.1-63.9c2.3,1.6,4,5.4,7,5.6c1.3,2.2,1.3,4.9,2.8,6.8c0.5,11.5,1.8,22.5,1.2,34c2.2-2.7,1.4-7,1.1-10.1   c4.5-11.6-2.3-23.6-4.5-35.1c-3.1-3.2-11.3-19.2-7.7-23c2.7,4.7,1,11.9,7,14.7c3.5,0.7,4.4-3.7,3.1-6.3c-0.2-0.4,0.3-1.1,0.5-1.7   c3.4-1.7,10.2-2,8.4-7.5c-1,1.4-1.8,2.7-2.6,3.8c-2.6,0.5-4.9,0.9-7.2,1.4c-1.5-1.6-1.2-4.1-3-6c1.5-0.1,2.7-0.1,3.9-0.2   c0-0.5,0.1-0.8,0.1-1.1c5-1.3,10.3-1.7,15-4.4c0.1,0.2,0.3,0.4,0.4,0.6c-1,7.3-0.1,14.7-3.7,21.3c0.5,0.8,1,1.6,1.5,2.3   c-1,0.9-2,1.4-1.8,2.8c-1.1,2.4-0.7,4.8-0.1,7.3C438.9,437.5,439.3,435.9,439.6,434.3z M432.9,457.4c2.2-2.9,0.6-5.8,3-8.2   c1.9-2.2,3.3-5,2.7-8c-1.4,0.4-1.3,1.5-1.7,2.4C435,448.3,431.5,451.5,432.9,457.4z M435,424.6c-2,0.9-3.8,1.6-5.6,2.4   C431.3,429.7,435.8,427.8,435,424.6z M432.5,460.7c-0.7,1.1-0.2,1.8,0.8,2.4C433.9,462,433.6,461.2,432.5,460.7z M426.6,484.8   c1.1-0.7,1.4-1.5,0.7-2.7C426.3,483,426.2,483.8,426.6,484.8z M425.6,491.8c0.8-1.1,0.9-1.9-0.2-3.3   C425.5,489.9,425.6,490.7,425.6,491.8z" />
	<path display="inline" fill="#EECABA" d="M326,129.7c0.6-12.8,9.5-27.5,22.5-30.5c-2.2,5.4-9.4,7.7-11.9,13.2   c-1.9,10.7-0.2,23.1,8.1,30.9c1.3-1.1,2.6-2.1,3.7-3c-0.7-5,4.2-7.3,8.5-6.7c0.1,0.4,0.2,0.9,0.4,1.4c4-0.7,6.2-3,7.9-6.4   c-0.4-0.2-0.7-0.4-1-0.6c0.6-1.2,1.5,0.3,2.4-0.1c8.1-6,12.1-14.6,17.7-22.4c1.8-2,4.4-3.9,5.1-6.6c-0.7-0.6-1.4-1.3-2.2-2   c4.2-6.2,10.9-6.3,17.5-6c5.7-11.2,13.3-13.3,21.9-21.7c-0.2-0.6-0.3-1.1-0.4-1.6c1.4,0.7,2.8,1.3,4.2,2c0,0.3,0,0.6,0,1   c-9.5,10.8-18.2,26.2-31.7,32.3c-1.4,0.1-0.7,1.3-0.2,2.1c-9.7,14-19.9,27.1-35,35.6c1.7,1,2.9-0.7,4.6-0.4c1.2,4,0.7,8.5,0.1,12.7   c-2.9-3.7-3.7-8.7-7.3-11.7c-3.1,1.9-3.1,1.9-3.2,3.7c0.8-0.3,1.5-0.6,2.2-0.9c1.6,5.9,4.6,10.8,7.5,16.2c-0.5,1.2-1,2.5-1.5,3.9   c-0.1-0.6-0.1-1.2-0.2-1.8c-4.3-2.5-6.9-7.5-10.4-10.5c-1.6,1.4-3,2.6-4.4,3.7c-0.4,5.5,0.3,10.7,1.6,15.8c0.5,0.1,0.9,0.2,1.3,0.2   c0,0.3,0,0.5,0,0.8c-1.9-0.6-2.6,3.2-0.8,3.8c-0.1,1,0.5,1.4,1.5,1.4c-1.5,0.8-3,1.6-4.5,2.4c-0.8,0-1.5-1.4-2.2-0.1   c-4.1,1.9-8.4-2.1-12.7-1.5c-3.9-7.4-1.6-15.9-2.3-23.9C328.4,146.6,327.2,138.3,326,129.7z M348.5,153.6c-0.1,0.2-0.2,0.3-0.4,0.5   c0.4,0.1,0.7,0.1,1.1,0.2c1.3-0.9,1.3-0.9,1.6-2.2C350,152.6,349,152.7,348.5,153.6z M397.1,101.1c-2.5-1.7-5,0.9-5.6,3.4   C393.9,104,395.8,103.1,397.1,101.1z M333.1,148.9c-0.1,2-0.1,2,1.2,2.8C334.4,150.7,334.7,149.6,333.1,148.9z M352.8,150.2   c1.1-1.2,1.6-1.7,2.3-2.4C353.3,147.6,353.3,147.6,352.8,150.2z" />
	<path display="inline" fill="#B7BDD5" d="M365.7,247.7c0.3,2.9-0.7,6.2,0.7,8.9c-4.7-0.3-9.4,0.1-13.9,1.1   c0.6-11.5-6.2-21.8-6.7-33.1c-0.3-15.8-1.2-31.3-10-44.9c10.1,1.5,9,3.8,20.1-0.2c3.5,11.4,10.5,22.1,9.9,34.6   c0.7,0.8,1.4,1.8,2.3,2.9c-0.4,0.7-0.8,1.4-1.5,2.5c0,1.9,0,4.4,0,7c3.5,2.5,6.9,5.1,10.4,7.6c-6.2,0.8-12.2-2.1-18.3,0   c5.4,0.3,10.6,1.1,16,0.8c1.1,1.5,3.6,0.5,5.3,0.8c-0.2,2.1,2.4,2.4,3.8,3.2c-3.4,1.7-8.6,2-12.1-0.2c1.6-0.3,3.2,0.2,4.7-0.5   c-5.6-0.1-11.5-2.8-16.9-1.2c2.4,0.4,4.5,1.2,7,1c0,2.9,0,5.9,0,8.8c-2-0.1-3.9-0.1-6-0.2c-0.1,0.2-0.2,0.5-0.5,1   C362,247.7,363.9,247.7,365.7,247.7z" />
	<path display="inline" fill="#EECABA" d="M423.2,500.7c0.1,1.7-0.3,3.4,1.2,4.8c0.4,0.4,0.2,1.4,0.2,2.1c-0.4-0.4-0.7-0.8-1.6-1.7   c0.5,2.2-0.6,3.9,1,5.4c0.3-0.4,0.5-0.6,0.7-0.9c1.1,1.3,0.6,3,0.7,4.5c-1.3,0.9-1.1,6.4,0,7.5l-0.1-0.1c0.2,3.5-0.2,6.9-0.3,10.6   c-0.7,0.2-1.3,0.4-2.3,0.7c-1.2-24.9-10.3-48.7-13.2-73.5c-0.4-16.8,6-33.9-0.6-50.4c-2-4.1-2.2-4.9-2.2-10.2   c0.6-0.5,1.3-1,2.1-1.6c0.4,0.4,0.8,0.7,1.2,1.1c10.9,1.4,21.2,3.1,32.3,1.8c1.2,1.3,1.3,2.8,0.2,4.5c-0.1-0.2-0.3-0.4-0.4-0.6   c-4.6,2.7-9.9,3.1-15,4.4c0,0.3-0.1,0.7-0.1,1.1c-1.2,0.1-2.4,0.1-3.9,0.2c1.9,1.9,1.5,4.4,3,6c-0.8,1.1-2.8-0.1-3.3,1.7   c1,1.7,3,0.8,4.6,0.6c-0.2,0.6-0.7,1.3-0.5,1.7c1.3,2.6,0.4,7-3.1,6.3c-6-2.8-4.3-10-7-14.7c-3.6,3.7,4.6,19.8,7.7,23   c-0.4,0-0.9,0.1-1.5,0.1c0.3,1.6,0.6,3,0.9,4.3c-3-0.2-4.7-3.9-7-5.6c-2.7,16.5-3.1,49.4,6.1,63.9   C422.1,498.9,422.1,499.5,423.2,500.7z M425.7,409.3c-3.8,0.1-7.3-1.9-11.8-1.6C418.1,410.1,421.9,409.8,425.7,409.3z" />
	<path display="inline" fill="#E4E4EB" d="M437.3,548.4c-1.7,0.1-3.3,0.2-5.4,0.3c0.6,2.8,2.7,2.3,4.9,3c-0.8,0.6-1.6,1.3-2.3,1.8   c0.5,3.1,4.5,1.2,6.6,1.7c-1.2,4.4,2.9,3.6,5.9,3c0,0.2,0.1,0.4,0.1,0.7c-1.1,0.9-3.3,1.8-1.7,3.5c1.3-0.3,2.6-0.6,4.1-0.9   c0.3,0.5,0.6,1.1,1,1.8c2.9,0.3,5.8,1,8.7-0.4c3,5.1,11.4,8.7,10.9,14.9c-8.5,2.8-21.5,9.6-28.8,2c-0.6-3.1-3-4.8-5-6.7   c-5.3-3.8-7.1,2.2-16.6-5.2c0.6-6.3,0.1-14,2.2-19.7c0.9,2.6,10.1,1.2,9.6-2.6c2.1-2.5-0.7-4.8-1.5-6.8c4.5-0.1,9.1-0.3,13.5-0.4   c1.9,2,0.9,4.7,2.2,6.7c-3.5,0.9-5.9-1.9-9.1,1.5c0.2,0.4,0.4,0.8,0.6,1.2C437.2,548,437.2,548.2,437.3,548.4z" />
	<path display="inline" fill="#4B65C5" d="M405.9,334.2c5.1,2,6,13.6,8.4,18.4c5.1,11.1,15.4,21.7,14.6,34.4   c-8.2-3.2-10.1-14.4-15.4-21c0,0.9,0,1.7,0,2.6c-4.2-7.4-7.2-15.4-8.9-24.1c-2.6,5.4,8.5,25.7,10.9,32.9c0.1-0.7,0.2-1,0.3-1.4   c1.7,5.2,6.1,12.8,1.5,17.8c0,1,0,2.1,0,3.2c-5.7-1.3-11.3-2.4-16.9-4c-1.4-8.4-2-16.8-3.1-24.9c0.8-0.1,1.7-0.3,2.6-0.4   c3.6,6.9,6.8,14.3,9.2,21.8c0.2,0.5,0.3,1,1.1,0.4c-9.4-24.9-13.5-24.9-6.4-52.6l0,0.1C404.6,336.3,405.2,335.3,405.9,334.2z" />
	<path display="inline" fill="#EECABA" d="M341,446.9c-0.5,1-0.9,2-1.4,3.1c-3.7-1-1.8,8.7-2.4,11.1c-1.4,3.1-1.8,6.8-1.2,10.2   c2.3-1.4,1.5-11.4,2-14.6c1.9-1.6-0.5-4.4,1.5-6c-0.9,17.8-1.4,37.3,3.3,54.5c0.7-4,1.4-7.7,2.2-12c3.1,8.5,1.9,16.5,2.6,24.9   c-0.3,0-0.6,0.1-0.9,0.1c0.2,1.7-0.2,3.4,0.9,4.8c-0.1,0.4-0.1,0.7-0.3,1.3c0.2,0.2,0.5,0.5,1,0.9c-0.2,1.4,0.8,3.2-0.6,4.6   c0-0.9-0.1-1.9-0.1-2.8c-0.6,1-1.6,2.1,0.1,2.9c-0.9,1.4,0.3,1.2,0.7,2.3c-2.1,3.7,2.2,10.9-5.6,9.7c-0.7-27.9-9.6-55.7-8.1-83.7   c1.6-21.1,12.9-34,6.2-56.2c0.7-0.7,1.5-1.3,2.4-2.1c12.3-0.1,24.7-0.5,36.9-2.3c0.1,1.5-0.4,2.4-1.1,3.2c-0.1-0.4-0.1-0.7-0.2-1.2   c-2.9,2.1-5.3,4.4-8.9,5.6c-0.3-0.3-0.6-0.5-0.9-0.8c-0.8,1.5-1.2,2.5-2.6,3.2c-2.3-2.5-11.2,1.6-15.5,0.7c0.9,2.3,1.8,4.4,2.7,6.5   c-1.4-0.3-2.9-0.5-4.3-0.8c-0.6-0.8-1.4-0.8-2.2-0.3c0.4,2.1,4.1,2.1,5.8,3.4c-1.7,2-3.9,0.2-6-0.5c0.7,6.4-1.5,11.8-3.6,17.6   c-0.2,0.8-0.4,1.7,0.5,2.4C343.1,439.8,339.3,443.9,341,446.9z M338.2,488.5c1.8-1.5,1.8-2.9,0.2-4   C337.8,485.8,338,487.1,338.2,488.5z" />
	<path display="inline" fill="#E4E4EB" d="M359.7,567.1c-2.6,0.1-4.7-0.5-6.9,1.2c1.3,1,2.3,1.7,3.3,2.4c-0.3,1.1-0.6,2.1-0.9,3.2   c4.5,3.4,9.7,2,15.1,2.3c3.5,4.6,4.7,10.9,6.8,16.5c-3.6,1.2-7,0.2-10.6,1.4c-27.2-5.1-25.8-14.3-22.3-38.2   c5.6-0.7,5.4-6.3,5.2-10.8c2.4-1.2,9-2.6,12-2.5c0.1,0.4,0.2,0.8,0.3,1.5c0.8-0.4,1.5-0.8,2.2-1.1c0.3,4.2-1.6,8.6-2.2,13   c-3.6,1-8.1-0.3-11.3,1.9c0.1,1,0,3.1-0.3,3.8c0.4,1.1,0.9,2.3,1.4,3.5c2.6,1.2,5.5,0.8,8.3,1.3   C359.6,566.7,359.6,566.9,359.7,567.1z" />
	<path display="inline" fill="#CECEDC" d="M421.9,548.3c-2.1,5.7-1.6,13.4-2.2,19.7c9.5,7.4,11.2,1.3,16.6,5.2c2,2,4.4,3.6,5,6.7   c7.3,7.6,20.3,0.8,28.8-2c0.1-0.3,0.2-0.8,0.3-1.3c0.2,0.4,0.5,0.8,0.8,1.3c-6.8,9-21.4,7.8-31.2,5.5c-2.8-0.9-1-4.5-3.4-5.8   c-8.1-3.7-16.9-0.4-22.4-10.2c1.6-2.6,2.9-5.1,1.5-8.4c2.4-3.6,4.4-7.5,4.7-12.5C421.3,546.7,421.6,547.5,421.9,548.3z" />
	<path display="inline" fill="#CECDDB" d="M344.2,555.9c-3.5,23.9-4.9,33.1,22.3,38.2c-7.2,1.5-18,1.7-22.3-5.5   c-1.3-2.7-2.8-5.2-5.5-6.5c-1.2-3-0.9-5.9-0.2-9c4.9-4.3,1.7-12.1,4.3-17.8C343.3,555.5,343.7,555.7,344.2,555.9z" />
	<path display="inline" fill="#F6F7F7" d="M430.7,543.3c-0.4,1-0.9,2-1.3,3c-7.2,2.1-8.1-4.3-5.9-10.1c5.1-1.1,10.4-2.2,16-2.4   c0.1,0.6,0.2,1.2,0.3,1.9C433.9,537,423.9,534.1,430.7,543.3z" />
	<path display="inline" fill="#4B65C5" d="M409.8,262.6c-0.3-0.5-0.5-1-0.8-1.5c3.5,0.3,7.3-0.6,10.6,0.5c-1.3,0.3-3.2-0.5-4,0.9   c-1.5,0.9-0.7,2-0.4,3.2c1.1,0.4,2.1,0.8,3.1,1.2c0.5,2.5-0.3,5,0.6,7.4c0.7,0,1.3,0,1.9,0c-0.4,0.4-0.8,0.9-1.5,1.6   c0,3.4,0,7.1,0,11.2c-4-5.8-3.1-12.5-5.8-18.8c0.9-1.9,0.5-4,0.5-6.3c-1.1-0.3-2.1-0.9-2.9,0.4   C410.7,262.6,410.3,262.6,409.8,262.6z" />
	<path display="inline" fill="#2E488D" d="M371.7,260.3c0-0.2-0.1-0.4-0.1-0.6c7.1,0,15-1.1,21.8,0.5c-4.8,0.3-9.6,0.6-14.3,1   c-1.6,3.3,1.4,1.9,2.1,3.7c-0.8-0.3-1.4,0.3-2,0.7c-1.1-1-2.5-0.9-3.9-0.9c-0.2-0.3-0.5-0.6-0.7-0.8c0.6-0.9,1.1-1.9,1.4-3   c-0.1,0-0.2,0-0.3-0.1c-0.1,0.3-0.2,0.7-0.3,1c-0.8-0.1-0.6-1.7-1.9-1.2c-0.5,1-0.2,2.2-0.2,3.4c-0.3,0.3-0.5,0.6-0.8,0.9   c-0.9-0.2-0.7-0.9-0.7-1.6C372.7,262,372.7,261.6,371.7,260.3z" />
	<path display="inline" fill="#F4F5F5" d="M343.2,545.5c1.3-1.3,2.5-1.7,4.2-1.4c2.7,8.8-5.7,11.6-4.8,6.2   C343.2,548.6,343.2,546.9,343.2,545.5z" />
	<path display="inline" fill="#1D274C" d="M406.8,382.8c-2.1-5.1-4.4-10.4-7-15.2c-1,0.2-1.8,0.3-2.6,0.4c0.5-1.4,1.7-1.5,2.9-1.6   c3.5,4.7,5.6,10.8,7.5,16.4C407.3,382.8,407,382.8,406.8,382.8z" />
	<path display="inline" fill="#506CD5" d="M415.7,262.7c1.5-1.7,4.7-0.6,6.7-0.7c0.1,1.1,0.3,2.3,0,3.5c-2,0.8-2.4-0.7-3.5-1.7   c-0.5,0.6-0.9,1.1-1.3,1.6c-0.7-0.3-1.3-0.5-2-0.7C415.7,263.8,415.7,263.2,415.7,262.7z" />
	<path display="inline" fill="#4D3A3D" d="M345.5,181.9c-2.8-0.6-7.3-2.4-9.7-2.2c-0.7-0.3-0.8-0.8-0.7-1.5   c4.3-0.6,8.6,3.4,12.7,1.5c0,0.5-0.1,1-0.1,1.5C346.9,181.3,346,180.9,345.5,181.9z" />
	<path display="inline" fill="#1A2242" d="M432.1,267.8c-2-0.2-4-0.5-5.9-0.7c0-0.6,0-1.3-0.8-1.5c0.1-0.6,0-1.3,0.7-1.5   c0.4,0.4,0.7,0.8,1.2,1.3c0.5-0.7,0.9-1.3,1.3-2c0.7,0,1.3-0.1,1.9-0.1c-0.2,1.1-0.5,2.3-0.8,3.8c0.7-0.7,1.1-1.1,1.4-1.5   C431.5,266.3,431.8,267,432.1,267.8z" />
	<path display="inline" fill="#4562C2" d="M426.1,264c-0.8,0.3-0.7,0.9-0.7,1.5c-1-0.1-2-0.1-3-0.2c0-0.3,0.1-0.5,0.1-0.8   c1.4-0.2,1.4-0.2,1.1-2c-0.4,0.4-0.7,0.7-1.1,1c-0.1-0.5-0.1-1.1-0.2-1.6c1,0,1.9,0,2.9,0c1.6,1,3.5,0.5,5.2,0.8c0,0.2,0,0.3,0,0.5   c-0.6,0-1.2,0.1-1.9,0.1c-0.4,0.6-0.9,1.3-1.3,2c-0.2-0.2-0.3-0.4-0.5-0.5c0-0.3-0.1-0.7-0.1-1C426.5,263.9,426.3,263.9,426.1,264z   " />
	<path display="inline" fill="#101529" d="M354.5,259.6c0,2.1,0,4.1,0,7c-1.7-2.3-1.4-3.5-1.5-5.8c-0.8-0.6-1.2-0.3-1.6,0.3   c-0.5,0-1.1-0.1-1.6,0c0-0.5,0-1,0.1-1.5C351.4,259.7,353,259.6,354.5,259.6z" />
	<path display="inline" fill="#564743" d="M347.9,538.9c0.3-2.1-0.9-5,0.6-6.7c0.9,2.5,0.9,5.2,0.8,7.8c0.6,0.2,1.1,0.3,1.5,0.4   c-0.6,0.3-1.2,0.5-1.8,0.8C348.6,540.3,348.2,539.6,347.9,538.9z" />
	<path display="inline" fill="#302F30" d="M430.7,543.3c-0.7-1.3-1.4-2.5-2.1-3.8c0.5-0.2,1-0.4,1.4-0.7c0.8,2,3.6,4.3,1.5,6.8   C431.1,544.9,431.9,543.8,430.7,543.3z" />
	<path display="inline" fill="#A8ACB2" d="M458.3,561.9c-1.9,0.2-3.4-0.6-5.4-1c1.4-0.6,2.3-1.1,3.2-1.5   C457.3,560,458.1,560.5,458.3,561.9z" />
	<path display="inline" fill="#553835" d="M425.5,523.9c0-0.5-0.1-1-0.1-1.6c3,1.7,0.9,6.8,1.5,9.8C425,530,427.2,526.3,425.5,523.9   z" />
	<path display="inline" fill="#4964C4" d="M432.1,267.8c-0.3-0.8-0.6-1.5-0.8-2.3c0.4-0.9,0.7-1.8,1.3-3.2c0.4,2.5,0.7,4.4,1,6.2   C433.1,268.3,432.6,268,432.1,267.8z" />
	<path display="inline" fill="#636B6F" d="M447.1,558.9c0-0.2,0-0.4-0.1-0.7c2.2-1.1,4.7-1.2,7.1-1.4   C451.9,558.2,449.5,558.6,447.1,558.9z" />
	<path display="inline" fill="#403C39" d="M439.6,434.3c-0.3,1.6-0.6,3.2-1,4.9c-0.6-2.5-1-4.9,0.1-7.3   C439.2,432.6,438.4,433.8,439.6,434.3z" />
	<path display="inline" fill="#649296" d="M437.3,548.4c-0.1-0.2-0.1-0.3,0-0.5c3,0,6.1,0,9.1,0c0,0.2,0,0.3,0,0.5   C443.3,548.4,440.3,548.4,437.3,548.4z" />
	<path display="inline" fill="#92B2B8" d="M363.9,560.4c-2.7-0.4-4.7-0.6-6.7-0.9C359.2,559.2,361.4,558,363.9,560.4z" />
	<path display="inline" fill="#4B65C5" d="M362.7,396.1c2.2-1.3,5.1-0.3,7.6-0.5C367.9,396.6,365.3,396,362.7,396.1z" />
	<path display="inline" fill="#CAD4DB" d="M364.2,566.5c0.6-0.1,1.2-0.2,1.9-0.3c0.3,0.5,0.6,1,1.1,1.8c-1.8,0.1-3.1-0.1-4.5-0.3   C363.3,567.4,363.8,566.9,364.2,566.5z" />
	<path display="inline" fill="#86999E" d="M364.2,566.5c-1.2,1.5-3,1.8-4.5,0.6c-0.1-0.2-0.1-0.4-0.1-0.6   C361.2,566.5,362.7,566.5,364.2,566.5z" />
	<path display="inline" fill="#673E44" d="M430.4,239.6c-1.8,0-3.6,0.2-6.2-0.6c2.7-0.2,4.5-0.3,6.3-0.4   C430.5,238.9,430.5,239.3,430.4,239.6z" />
	<path display="inline" fill="#232829" d="M359.3,570.7c1.3-0.6,2.3-0.9,3.2-0.2C362.5,572.6,360.3,571,359.3,570.7z" />
	<path display="inline" fill="#535F62" d="M441.2,556c0-0.3-0.1-0.5-0.1-0.8c1.3-0.9,2.6-1,4.3-0.4   C443.9,555.3,442.5,555.6,441.2,556z" />
	<path display="inline" fill="#433B38" d="M358.9,508.9c-0.2-1.5-0.4-3-0.6-4.5c0.2,0,0.5,0,0.7,0c1,1.3,1,3.1,0.6,4.5   C359.4,509,359.2,509,358.9,508.9z" />
	<path display="inline" fill="#1A2242" d="M430.6,262.7c-1.7-0.2-3.6,0.2-5.2-0.8C427.1,262.2,429.3,261.1,430.6,262.7z" />
	<path display="inline" fill="#989296" d="M367.2,570.2c1.2,0.1,1.6,0.7,1.4,2c-1-0.2-1.9-0.4-2.7-0.6   C366.3,571.1,366.8,570.6,367.2,570.2z" />
	<path display="inline" fill="#232829" d="M367.2,570.2c-0.4,0.5-0.9,0.9-1.3,1.4c-0.4,0-0.9,0-1.4,0   C365,569.9,366.1,570.1,367.2,570.2z" />
	<path display="inline" fill="#97AAAF" d="M366.9,574c0.8-0.1,1.5-0.1,2.6-0.3C368.5,574.7,368.5,574.7,366.9,574z" />
	<path display="inline" fill="#6B595B" d="M447.6,550.6c0.6-0.5,0.9-0.8,1.4-1.1C449.4,550.8,448.7,550.6,447.6,550.6z" />
	<path display="inline" fill="#4B65C5" d="M403.1,337.4c0-0.9-0.5-1.9,0.7-2.3c0,0.7-0.1,1.5-0.1,2.2l0-0.1   C403.6,337.3,403.3,337.3,403.1,337.4z" />
	<path display="inline" fill="#526161" d="M445.4,401c-0.4,0.4-0.6,0.8-1,1.2C444.3,401.1,444.3,401.1,445.4,401z" />
	<path display="inline" fill="#84919F" d="M349.9,259.7c0,0.5,0,1-0.1,1.5c-0.1,0-0.4,0-0.5,0C349.1,260.5,349.2,259.9,349.9,259.7z   " />
	<path display="inline" fill="#8BB8BE" d="M446.3,548.4c0-0.2,0-0.3,0-0.5C448.1,547.4,448,549,446.3,548.4z" />
	<path display="inline" fill="#CECEDC" d="M423.2,549.2c-0.7,0-1.4,0.1-1.3-0.9C422.3,548.6,422.8,548.9,423.2,549.2z" />
	<path display="inline" fill="#D1B4AA" d="M360.6,507.6c-0.2-0.7-0.2-1.3,0.6-1.7C361.2,506.6,361.2,507.2,360.6,507.6z" />
	<path display="inline" fill="#D1B4AA" d="M359.6,509c0.1-0.3,0.2-0.6,0.3-0.8c0.2,0,0.4,0,0.6,0c-0.1,0.4-0.2,0.8-0.3,1.2   C360,509.3,359.8,509.1,359.6,509z" />
	<path display="inline" fill="#FBDFD3" d="M356.9,133.5c-4.3-0.6-9.2,1.7-8.5,6.7c-1.2,0.9-2.4,1.9-3.7,3c-8.3-7.7-10-20.1-8.1-30.9   c2.5-5.5,9.6-7.8,11.9-13.2c0.4-0.3,0.8-0.5,1.3-0.8c0.9,4.9-4.5,7.3-5.5,11.5c1.8-0.6,5.2-4.3,5.6-6.4   c6.8-9.4,15.7-15.9,25.7-21.6c0.5,0.1,1.1,0.2,1.8,0.4c11.3-11.7,22.6-28.9,39.1-31.8c1.1,6.8,4.6,12.5,9.7,17   c0.1,0.5,0.2,0.9,0.4,1.6c-8.7,8.5-16.2,10.6-21.9,21.7c-6.6-0.3-13.3-0.1-17.5,6c0.8,0.7,1.5,1.4,2.2,2c-0.7,2.7-3.3,4.6-5.1,6.6   c-5.4,6.1-7.5,14.8-14.9,19.5c-1.1,0.7-1.9,2-2.9,2.9c-0.8,0.4-1.7-1.1-2.4,0.1C362.2,130.4,359.7,132.2,356.9,133.5z M343.4,115.6   c1.3-3.3-2-0.1-2.8,1C341.7,116.5,342.8,116.6,343.4,115.6z M388.1,85.5c-3.1,1.4-6.2,1.2-8.2,3.7C383,91.5,387.6,89.3,388.1,85.5z    M391.7,88.3c2.4,1.5,4.8-2.6,6.5-4.9C395.3,84.2,393,85.6,391.7,88.3z M398.6,68.3c-2.2,0.4-2.2,0.4-2.1,2.3   C397.5,70,398.3,69.4,398.6,68.3z M403.8,78.7c-1.8-1.9-4,1-0.9,0.9C402.9,79.6,403.3,79.2,403.8,78.7z M388.9,83.1   c1.3-1.1,1.3-1.1,0.2-2.3C389,81.7,389,82.3,388.9,83.1z M411.2,71.2c0-0.2-0.1-0.5-0.1-0.7c-1.3-0.1-1.2,0.2-1.4,1.6   C410.5,71.7,410.9,71.5,411.2,71.2z M393.5,77.1c-0.2-0.4-0.3-0.5-0.4-0.7c-0.7,0.4-1.5,0.5-0.7,1.4   C392.7,77.5,393.1,77.3,393.5,77.1z M406,75.1c-0.1-0.1-0.3-0.2-0.4-0.3c-0.3,0.4-0.4,0.7,0.2,0.9C405.8,75.5,405.9,75.3,406,75.1z    M369.8,119.9c0.3-0.2,0.3-0.3,0-0.5C369.5,119.6,369.5,119.7,369.8,119.9z M367.6,124.6c-0.1,0.1-0.3,0.2-0.4,0.2   c0.2,0.4,0.4,0.1,0.7,0C367.8,124.8,367.7,124.7,367.6,124.6z" />
	<path display="inline" fill="#373A46" d="M418.7,23c12.8-33.3,40.7-18.5,39.4,11.9c0.4,30.2-33.3,51.3-41,12.3   c-0.5,0.2-0.9,0.3-1.3,0.4c0-2-0.1-4-0.1-6c2.4-0.9,1.3-4,1.5-6C416.8,31.3,418,27.2,418.7,23z M421.7,22.9   c1.3-0.9,1.6-2.3,1.5-3.7c1.1-1.3,2-2.7,2.3-4.4c35.6-35,40,64,2.5,49.3c14,11,27.8-12,27.4-24.9c4.6-23.3-19-51.4-32.1-19.9   C421.8,20.1,421.7,21.5,421.7,22.9c-1.1,0.9-1.7,1.9-1.2,3.6C421.3,25.3,421.9,24.2,421.7,22.9z M435.9,43.9   C435.9,43.9,435.9,43.8,435.9,43.9c5.7-5.2,4.7-13.7-1.6-18c-0.3,0.6-0.5,1.1-0.7,1.5c-0.6-0.3-1.2-0.5-2-0.8   c-8.1,5.1-5.4,25.4,5.8,17.5C436.7,44,436.3,43.9,435.9,43.9z M419.1,38.1c-1.4,0.8-1.5,1.3-0.8,4.7   C420.2,42.6,419.4,39.5,419.1,38.1z" />
	<path display="inline" fill="#FADED2" d="M415.7,41.6c1.9,8.6-4.5,6.9-9.9,10.7c-7.9,3.7-12.6,10.9-19.3,16.1   c-0.2-0.2-0.4-0.4-0.6-0.6c1.5-4,2.8-8.1,4.5-12c2.4-1.7,2.9-5.1,4.3-7.5c0.2-0.1,0.3-0.2,0.3-0.5c1.3-0.2,2.6-0.4,3.8-0.6   c0-0.2-0.1-0.5-0.2-0.9c0.9-0.8,2.5-1.1,2.4-2.5c0.7-0.3,1.4-0.5,2.1-0.8c0.3-0.5,0.6-1,1-1.8C407.5,40.5,412.2,40.3,415.7,41.6z" />
	<path display="inline" fill="#B7A196" d="M385.9,67.8c0.2,0.2,0.4,0.4,0.6,0.6c-1.2,1.4-2.4,2.8-3.5,4.2c-1-0.1-1.8-0.2-2.8-0.4   c-0.4-0.7-0.9-1.6-1.5-2.6c1.1-0.1,2-0.3,2.8-0.4c0-2.3,1.7-4.9-0.2-6.7c0.9-0.3,0.9-1.1,1-1.8c0.8,2.5,1.5,5,2.4,7.7   C385.1,68.2,385.5,68,385.9,67.8z" />
	<path display="inline" fill="#181919" d="M405.3,35.6c1.9,0.5,2.8-1.2,4.4-2.2c-0.2,1-0.3,1.7-0.5,2.6c1.1,0.6,2.3,1.2,3.3,1.8   c1.1-0.2,2-0.4,2.9-0.5c0.1,5-7.3-0.1-9.8-0.4C405.4,36.4,405.3,36,405.3,35.6C405.3,35.6,405.3,35.6,405.3,35.6z" />
	<path display="inline" fill="#2F3030" d="M403.1,43.1c-0.7,0.3-1.4,0.5-2.1,0.8c-0.6-0.7-1.3-1.7-1.6-2.5c-1.5-0.9-3-0.3-4.5-0.3   c0.3-1.4,1.2-2,2.5-2.6C399.8,39.9,402.1,40.9,403.1,43.1z" />
	<path display="inline" fill="#433C39" d="M349.9,103.5c-0.4,2.1-3.8,5.7-5.6,6.4c0.5-3.3,4-4.8,4.9-7.9   C349.5,102.5,349.7,103,349.9,103.5z" />
	<path display="inline" fill="#CCB3A7" d="M377.7,62.5c0.4,0.6,0.8,1.2,1.2,1.7c-0.5,1.1-1,2.2-1.6,3.2c-1-1.4-2.6-2.6-1.8-4.7   C376.2,62.6,377,62.5,377.7,62.5z" />
	<path display="inline" fill="#323333" d="M388.4,39.5c1.3-1.2,2.5-2.3,3.9-3.6c0.2,0.2,0.6,0.5,1,0.9c-1.5,1.3-2.4,3.2-4.5,3.4   C388.6,40,388.5,39.7,388.4,39.5z" />
	<path display="inline" fill="#1C1D1D" d="M382.1,52.1c-0.8-1.2-0.8-1.2,0.2-2.6c1,1.2,2.4,0.8,3.5,1.8c0,0,0,0,0,0   C384.6,51.8,383.4,53.3,382.1,52.1c0.1-0.2,0.2-0.3,0.3-0.5C382.3,51.7,382.2,51.9,382.1,52.1z" />
	<path display="inline" fill="#2B2C2C" d="M405.7,28.2c0.8,0.1,1.5,0.1,2.2,0.2c0.1,1.5-2,2.6-3.2,3.1   C404.2,30.2,405.1,29.4,405.7,28.2z" />
	<path display="inline" fill="#C1AC9F" d="M382.3,60.8c-0.2,0.7-0.1,1.5-1,1.8c-1.3-0.5-1.6-1.7-1.9-2.8   C380.9,58.5,381.1,58.6,382.3,60.8z" />
	<path display="inline" fill="#131413" d="M392,53.7c-0.2,1-0.8,1.7-1.6,2.1c-0.5-0.2-0.9-0.4-1.5-0.7c0.5-0.9,1-1.8,1.5-2.8   C391,52.9,391.5,53.3,392,53.7z" />
	<path display="inline" fill="#131413" d="M400,45.4c-0.5,0.3-0.9,0.7-1.4,1c0.1,0.3,0.1,0.6,0.2,0.9c-1.3,0.2-2.6,0.4-3.8,0.6   c0-0.3-0.1-0.7-0.1-1l0,0C396.9,47.3,398,44.8,400,45.4z" />
	<path display="inline" fill="#272626" d="M387.1,31.8c1.8-1.2,3-1.9,4.3-2.7C392.1,30.9,389.3,32.3,387.1,31.8z" />
	<path display="inline" fill="#131413" d="M393.3,47.6c-0.9,0.9-0.3,2.7-2.1,3.5c0.9-2,0.1-4.4,1.4-5.8   C392.7,46.2,392.2,47.1,393.3,47.6z" />
	<path display="inline" fill="#343333" d="M379.3,53.8c0-1.4,0-2.9,0-4.2c2.7-0.7,0.4,3,0.3,4.2C379.5,53.8,379.4,53.8,379.3,53.8z" />
	<path display="inline" fill="#1C1D1D" d="M387.3,50.6c1.9,1.1,0,2.5-1,3.6c-0.7-1.1-0.4-2-0.4-2.9l0,0   C386.5,51.3,387.1,51.3,387.3,50.6L387.3,50.6z" />
	<path display="inline" fill="#1E2020" d="M387.1,59.8c0.6,1.7-0.5,2.4-1.6,3.2C385.6,61.2,385.6,61.2,387.1,59.8z" />
	<path display="inline" fill="#1C1D1D" d="M387.4,50.6c-1.2-1,0-2.8,1.4-3.5C388.9,48.6,388.3,49.5,387.4,50.6   C387.3,50.6,387.4,50.6,387.4,50.6z" />
	<path display="inline" fill="#2D302D" d="M377.7,62.5c-0.7,0.1-1.4,0.2-2.2,0.2c-0.3-1.9,1.2-1.9,2.5-2.5   C377.9,61.2,377.8,61.8,377.7,62.5z" />
	<path display="inline" fill="#1C1C1C" d="M376.3,69.6c1.4,0.3,1.3,1.5,1.9,2.6c-0.8-0.1-1.3-0.1-1.9-0.2   C376.3,71.2,376.3,70.4,376.3,69.6z" />
	<path display="inline" fill="#1E2020" d="M413.2,32.3c-1,1-1,1-2.3,0.7C411.8,32,411.8,32,413.2,32.3z" />
	<path display="inline" fill="#201A1A" d="M381.4,29.7c0.8,0,1.8-0.3,2.2,0.8C382.4,30.9,382.4,30.9,381.4,29.7L381.4,29.7z" />
	<path display="inline" fill="#343737" d="M393.3,47.6c-1.1-0.5-0.7-1.5-0.8-2.3c1-0.2,1.7,0.5,1.5,1.5   C393.8,47.1,393.6,47.3,393.3,47.6z" />
	<path display="inline" fill="#B7A196" d="M380.4,66.5c0.3,0.8,0.4,1,0,1.6C379.4,67.5,379.4,67.5,380.4,66.5z" />
	<path display="inline" fill="#131413" d="M393.3,51.3c-0.2,0.5-0.5,1-0.7,1.5C392.5,52.2,392.6,51.6,393.3,51.3z" />
	<path display="inline" fill="#131413" d="M393.9,49.8c-0.2,0.5-0.4,1-0.6,1.5C393.3,50.7,393.3,50.1,393.9,49.8z" />
	<path display="inline" fill="#181919" d="M413.5,40.8c-0.5,0-1,0.1-1.5,0.1C412.4,40,412.9,39.9,413.5,40.8z" />
	<path display="inline" fill="#131413" d="M392.6,52.8c-0.2,0.3-0.4,0.6-0.6,0.9C392.2,53.4,392.4,53.1,392.6,52.8z" />
	<path display="inline" fill="#131413" d="M394.7,48.3c-0.2,0.3-0.4,0.6-0.5,0.9C394.3,48.9,394.5,48.6,394.7,48.3z" />
	<path display="inline" fill="#131413" d="M394.1,46.8c0-0.3,0-0.5,0-0.8c0.2,0.3,0.5,0.5,0.7,0.8c0,0,0,0,0,0   C394.6,46.8,394.3,46.8,394.1,46.8z" />
	<path display="inline" fill="#181919" d="M404.5,35.6c-0.1,0.2-0.2,0.3-0.3,0.5C403.8,35.7,404.3,35.8,404.5,35.6L404.5,35.6z" />
	<path display="inline" fill="#181919" d="M404.5,35.6c0.3-0.7,0.5-0.7,0.7,0l0,0C405,35.6,404.8,35.6,404.5,35.6L404.5,35.6z" />
	<path display="inline" fill="#6A7B74" d="M380.9,74c0.1,0,0.2,0,0.2,0c0,0.1-0.1,0.3-0.1,0.4C380.9,74.3,380.7,74.2,380.9,74z" />
	<path display="inline" fill="#373A46" d="M415,48.3c0.3-0.2,0.5-0.4,0.8-0.6C415.5,47.9,415.2,48.1,415,48.3z" />
	<path display="inline" fill="#131413" d="M393.3,47.6c0.2-0.3,0.5-0.5,0.7-0.8C393.8,47.1,393.6,47.3,393.3,47.6z" />
	<path display="inline" fill="#FBDFD3" d="M488.9,69.9c3.1-0.9,5-3.4,7.4-5.3c5.7,3.6,11.5,6.7,18.6,5.9c0.2,0.2,0.4,0.4,0.7,0.7   c-9.3,11.3-17,1-23,5.1c0,1,0,2,0,3.1c-0.9,0.3-1.9,0.6-1.9,2c2.9,2.1,6.9,0.5,9.5,3.5c-6.4,4.4-13.6,7.7-18.5,13.9   c-10.4,9.4-29.3,6-36.3,17.2c-0.9,0.2-1.5,0.3-2.1,0.5c-4,13.4,2,26.3-1,39.3c-13.9-14.6-11.4-37.3-26.6-51.6   c12.5-7.2,25.8-18.6,41.1-13.9c-0.2,2.5-2,4.1-3.1,6.1c-2.3,1.1-2.3,3.1-2.7,5.6c3.8-4.1,5.3-8.6,10-11.9c0-0.3-0.1-0.9-0.1-1.5   c12.6-14,12-8.3,25.6-12.7C486.6,73.9,487.7,71.9,488.9,69.9z M450.1,105c-1.8,1.4-2.5,2.5-1.9,4.5   C449.1,108.2,450.2,107.4,450.1,105z M488,76.3c1.1,1.5,1,2.7,2.9,2.5C490.4,77.4,489.7,76.7,488,76.3z" />
	<path display="inline" fill="#EECABA" d="M446.4,114.2c9.5-8.8,25.1-6.5,35.2-15.3c4.9-6.2,12.1-9.5,18.5-13.9   c-0.9-0.7-1.6-1.2-2.3-1.7c2.1-0.2,4.3,0.4,6.6-1.2c-4.1-1.5-7.8-1.8-11.9-2.6c0-1.1,0-2.2,0-3.1c5.9-4.1,13.7,6.1,23-5.1   c-0.3-0.3-0.5-0.5-0.7-0.7c3.9-1.2,7.4-3.2,10.5-5.9c3.7,9.3-15.2,23.7-22.8,27.8c-6.1,5.1-10.7,12.5-17.3,16.7   c-13,12.5-40.5,8.3-40.3,31.9c-0.3,0-0.5-0.1-0.8-0.1c-1.5-5,1.4-10.7,0.9-16c0.1-3.3-0.1-6.7,2-9.6   C447.1,115.2,446.6,114.6,446.4,114.2z M452.3,115.8c1.9,4.5,18-2.4,20.6-5.3C466.2,111.6,459.1,114,452.3,115.8z M481.9,106.4   c-2.9,0.7-5.3,0.7-7.5,2.8C477.6,109.8,479.7,108.9,481.9,106.4z M509,82.4c-1.2-0.6-1.9-0.1-2.6,0.8   C507.6,83.6,508.5,83.7,509,82.4z M510.1,82.3c1.1,0.6,2,0.3,2.7-0.8C511.4,80.9,510.6,81.2,510.1,82.3z M486.6,102.3   c-1.4,0.6-1.4,0.8-2.2,2C485.9,104.5,486.3,103.8,486.6,102.3z M450.1,115.7c-1.4,0-1.4,0-1.7,1.2   C449.4,117.2,449.7,116.5,450.1,115.7z M492,99.2c0.2-0.5,1-1.1,0.2-1.5C491.2,97.8,490.7,99,492,99.2z M488.3,101.4   c0.9,0,1.7-1.1,0.8-1.4C488.5,100,488,100.3,488.3,101.4z M494.8,94.6c0.4-0.4,1-0.8,0.4-1.3C494.3,93.1,493.8,94.2,494.8,94.6z" />
	<path display="inline" fill="#FBDFD3" d="M402.2,135.7c1.3,4.5,2.8,9.1,3.9,13.6c-8.8,1.9-18.8-14.3-21.1-22c3.4-4.4,6.4-9,10-13.3   c0.4,0.5,0.7,0.9,1.2,1.7c-0.1-1.2-0.2-1.9-0.3-3.1c2.3-2.7,5.3-10.6,9.5-5.2c0,0-0.1,0-0.1,0c-0.3,0.2-0.5,0.5-0.8,0.7   c0.1,0.4,0.1,0.8,0.2,1.2c0.9-0.2,1.6-0.6,2-1.4c0,0,0,0,0,0c0.8,0,1.8,0.4,2.3-0.7c1.7,1-0.3,3.3,1.3,4.5c0.5,2.1,0.1,4.8,1.5,6.5   c3.1-0.8,0.8-5.9,1.5-8.5c1.3-0.1,1.7,0.9,2.7,1.6c1.4,11.9,8.4,31-4.8,38.5c-0.3-0.1-0.7-0.2-1.1-0.3c0.9-2.5,0.3-5.8-2.7-6.4l0,0   c0.2-0.7,0.1-1.3-0.7-1.6c-2.4-3.7-2.6-8-6.3-10.8C401,132.9,401.3,134.4,402.2,135.7z M411.6,126.2c-2.6-1.2-8.9,4.4-5.2,5.6   C408.5,128.3,408.5,128.3,411.6,126.2z M395.4,128.4c0.1-2.5-2.5-5.3-4.8-4.5C392.1,125.3,393.6,126.7,395.4,128.4z M398.4,122.2   c0.1-1.2-0.3-2.2-1.3-3C395.5,120.4,396.4,123.8,398.4,122.2z M400.1,131.1c-1.2-3-1.4-3.1-3-2.3   C397.7,129.9,398.4,130.7,400.1,131.1z M414.6,125.7c0.2,0.8,0.9,0.7,1.6,0.7C416.9,125.5,415.1,124.8,414.6,125.7z M396.4,134.4   c-0.1-1.5-0.1-1.5-1.5-1.2C395.5,133.6,395.9,133.9,396.4,134.4z" />
	<path display="inline" fill="#B5BBD3" d="M414.2,152.2c-0.4,5.9,3.6,9.8,5.4,14.9c-0.9,0.5-1.6,0.9-2.3,1.3c-1.7-2-2.1-4.2-4.6-5.5   c0.4,1.5,0.6,2.4,0.9,3.4c-2.8-1.6-4.2-4.4-6.1-6.8c0.5-1.8,1.1-3.6,1.6-5.5c0.8-0.6,0.8,0.7,1.9,0.6   C411.8,154,413,153.1,414.2,152.2z" />
	<path display="inline" fill="#141211" d="M446.4,114.2c0.2,0.4,0.7,1,0.6,1.1c-2.1,2.9-2,6.3-2,9.6c0.6,5.3-2.4,11-0.9,16   c-0.2,2.3,1.6,4.1-0.2,6.2c-3.2-9.4-2.3-20.6-0.7-30.5c0.6-0.1,1.2-0.3,2.1-0.5C445.6,115.7,446,115,446.4,114.2z" />
	<path display="inline" fill="#E5C5B6" d="M410.4,111.8c-1.6-1.2,0.4-3.5-1.3-4.5c-0.1-0.2-0.2-0.4-0.3-0.5   c-0.1,0.1-0.2,0.2-0.3,0.3c0.2,0.1,0.4,0.2,0.5,0.3c-2.6,3-5.3-3.4-8.2-1.5c-0.3-0.5-0.6-1-0.8-1.5c-0.6,0.3-1,0.5-1.4,0.7   c-0.5-0.7-1.1-2,0.2-2.1c2.3,2.3,5.7-0.5,7.7-2c1.5,0,3,0,4.5,0C412.1,104.6,409.7,108,410.4,111.8z" />
	<path display="inline" fill="#110F10" d="M460.6,55.1c-3.4,9.7-14,19.7-24.7,15.7c2-0.1,2-0.1,2.3-1.5c9.5,3.6,17.2-6.7,21.6-14.2   c0.2,0,0.4,0,0.6-0.1L460.6,55.1z" />
	<path display="inline" fill="#EDD3C7" d="M412.6,99c-1.2-0.1-2.5-0.1-3.9-0.2c2.3-3.5,6-4.9,9.2-7.3c1.2,0.4,1,1.8,0.8,2.8   C418.1,97.8,415.4,98.2,412.6,99z" />
	<path display="inline" fill="#484D5B" d="M484.4,70c-0.8,0-1.7-0.1-3-0.2c4.3-2,7.3-4.1,10.3-7.4c1.3,0,2.6,0,3.9,0.1   C493,66.3,489.1,69.4,484.4,70z" />
	<path display="inline" fill="#252323" d="M412.6,99c6-0.5,5.9-4.9,7.6-9.6c0.2,0,0.4,0,0.7-0.1c0.3,0.3,0.5,0.5,0.8,0.8   c-0.9,2.9-1.8,5.9-2.7,8.9c0.4,0,0.8,0,1.3,0c-0.6,1.2-1.7,1.5-3,1.5c-0.4-1-1.3-0.7-2.2-0.7C414.5,98.7,413.3,99.4,412.6,99z" />
	<path display="inline" fill="#E3BEAF" d="M407.4,143.2c3,0.5,3.6,3.8,2.7,6.4c0.4,0.1,0.8,0.2,1.1,0.3c-0.6,0.3-1.2,0.6-2,1   C408.6,148.1,408,145.7,407.4,143.2z" />
	<path display="inline" fill="#3B3632" d="M410.4,111.8c0.2-2.3-0.3-4.8,0.8-6.9c-0.2,4.6,1.3,8.7,0.7,13.4   C410.4,116.6,410.9,113.9,410.4,111.8z" />
	<path display="inline" fill="#191717" d="M368.7,149.9c0.3-3.3-0.8-7,0.8-9.9c1.1,1.9,0.5,4.1,0.5,6.2   C368.6,147,370.3,149.1,368.7,149.9z" />
	<path display="inline" fill="#867A74" d="M411.9,118.3c0-2.2,0.1-4.3,0.1-6.5c1.2-1.1,0.6,2,0.8,2.6   C413.2,116.1,414.4,117.9,411.9,118.3z" />
	<path display="inline" fill="#453532" d="M402.2,135.7c-1-1.3-1.3-2.8-1.8-4.9c1.7,1.1,2.4,2,2.6,3.3   C402.2,134.4,402.4,135.2,402.2,135.7z" />
	<path display="inline" fill="#726F69" d="M527.1,62.6c0.3-1,0.9-1.6,1.8-2c0.8,1.1-0.3,1.8-0.5,2.7c-0.3,0.2-0.5,0.4-0.8,0.6   C527.5,63.5,527.3,63,527.1,62.6z" />
	<path display="inline" fill="#7F8998" d="M420.1,114.9c-0.2,0.5-0.4,1-0.7,1.5c-1-1-1.1-2.3-1.6-3.8   C419.6,112.8,419.7,113.9,420.1,114.9z" />
	<path display="inline" fill="#BFAA9C" d="M527.1,62.6c0.2,0.4,0.4,0.9,0.6,1.3c-0.4,0.8-0.9,1.7-1.4,2.5c-0.2-0.7,0-1.5-0.9-1.7   C525.9,64,526.5,63.3,527.1,62.6z" />
	<path display="inline" fill="#4E4A46" d="M453.7,96.5c0.5-0.7,0.9-1.4,1.4-2c0.3,0.3,0.6,0.6,0.9,0.9c-0.7,0.8-1.4,1.7-2,2.5   C453.9,97.4,453.8,96.9,453.7,96.5z" />
	<path display="inline" fill="#CCBBB1" d="M420.2,89.4c-0.5,1.3-1,2.6-1.4,3.9c-0.1-0.7-0.1-1.5-1-1.7c0.5-0.7,1.1-1.4,1.6-2.2   C419.7,89.4,420,89.4,420.2,89.4z" />
	<path display="inline" fill="#D0E2E2" d="M415,99.8c0.9,0.1,1.8-0.3,2.2,0.7c-1.1,0.4-2.1,0.9-3.8,1.6   C414.2,101,414.6,100.4,415,99.8z" />
	<path display="inline" fill="#8A8585" d="M444.8,143.8c-0.8-0.8-0.8-1.8-0.7-2.9c0.3,0,0.5,0.1,0.8,0.1   C444.9,141.9,444.9,142.9,444.8,143.8z" />
	<path display="inline" fill="#73736D" d="M420.2,89.4c-0.3,0-0.5,0-0.8,0c0.3-0.5,0.6-0.9,1.2-1.8c0.1,0.9,0.2,1.3,0.2,1.7   C420.7,89.3,420.4,89.4,420.2,89.4z" />
	<path display="inline" fill="#E3BEAF" d="M406.7,141.6c0.8,0.3,0.8,0.9,0.7,1.6C407.2,142.7,407,142.2,406.7,141.6z" />
	<path display="inline" fill="#110F10" d="M483.3,73.6c0.3-0.5,0.6-1,1-1.5C484.4,72.9,484.4,73.6,483.3,73.6z" />
	<path display="inline" fill="#373A46" d="M532.9,58.8c0.2-2.9-0.6-5.9,1.9-8.2c0.9,0.2,1.8,0.4,3.1,0.6c1.6-1,3.5-2.2,5.7-3.6   c6.4,1.8,10.1-8.5,4.3-11c-2.3-4.9-3.6-8.4-6.5-12.8c12.2-19.4,29.9-0.8,28,16.3C570.4,60.9,544.1,89.1,532.9,58.8z" />
	<path display="inline" fill="#373A46" d="M504.6,30.4c0.1-0.5,0.1-1,0.2-1.5c-1.6-3.4-2.2-7.4-4.6-10.7c0.8-1,1.5-1.8,2.3-2.7   c-0.4-0.3-0.6-0.6-0.9-0.8c0.5-0.5,1-1,1.5-1.5c0.1,0.2,0.3,0.4,0.4,0.5c0.1-0.2,0.2-0.4,0.4-0.6c0,0,0,0,0,0   c35-22.4,28.9,59-1.2,50.3c4.4,5.6,13.9-1.6,17.6-5.5c0.3,0.3,0.5,0.5,0.8,0.8c-4.6,7.7-16.9,12-23.8,4c4.3-5.1,6-11.8,7.3-18.2   c2.2,1.4,4,0.5,5.7-0.9c1.8-5,6-10.5,0.5-15.4c-1.1,0-2.3,0-3.4,0C506.4,29,505.5,29.7,504.6,30.4z M501.4,63.6l-0.2-0.1l0,0.2   L501.4,63.6z" />
	<path display="inline" fill="#4B4F5D" d="M536.7,34.1c-0.2,8.9-4.5,16.9-8.1,24.7c-1.4-0.5-2.9-0.5-3.9-1.6   c7.2-10.6,7.9-23,7.8-35.4c1,0.4,1.9,0.7,2.8,1.1C536.9,26.4,536.7,30.4,536.7,34.1z" />
	<path display="inline" fill="#4B4F5C" d="M501.5,23.8c3.7,10.1,3.2,21.6-1.4,31.3c-1.3,0-2.5,0-3.8,0c3.2-9.6,4.2-19.8,2.3-29.9   C499.6,24.7,500.5,24.2,501.5,23.8z" />
	<path display="inline" fill="#4B4F5D" d="M574,46.8c-1.8,5.1-2.3,10.6-6,15c-1.2-0.1-2.3-0.4-3-1.5c4-7.7,5.6-16.4,6.2-24.9   c1,0.1,1.9,0.2,2.7,0.3C573.9,39.4,574,43.1,574,46.8z" />
	<path display="inline" fill="#363944" d="M518,6.5c15.1,4.2,17.5,32.1,8.2,41.8c4.1-13.4,5.7-32.8-8.2-41C518,7,518,6.8,518,6.5z" />
	<path display="inline" fill="#F1D7CB" d="M543.3,29.8c0.7,1.8,1.4,3.7,2.1,5.6c-0.6,1.5-1.3,3.1-2,4.7c-1,0.5-0.7,1.4-0.7,2.2l0,0   c-1.3,0.7-0.6,2-0.7,3l0,0c-1.2,0.4-0.7,1.4-0.9,2.2c-0.6,0-1.2,0.1-1.4,0.8c-1.4-0.1-3.1,0.2-3.1-1.6l0,0c1.3-0.3,0.8-1.4,0.9-2.2   l0,0c1.2-0.4,0.7-1.4,0.8-2.2c1-0.5,1.7-1.1,1.3-2.4l0,0c1.2-0.2,0.9-1.1,0.9-1.9c0.7-0.4,1.9-0.1,2-1.4c-0.9-0.2-1.7-0.2-2.6-0.3   c0.4-3.9-2.2-6.7-2.2-10.8c0.8-0.1,1.4-0.2,2.1-0.3C541,26.8,542.1,28.3,543.3,29.8z" />
	<path display="inline" fill="#383B47" d="M524.7,57.2c1,1,2.5,1.1,3.8,1.5c0,0.3,0,0.5,0,0.8c-5.7,6-11.3,11-20.4,9.7   C515.3,67,520.1,63.1,524.7,57.2z" />
	<path display="inline" fill="#0C0C0D" d="M503.8,43.7c0-4.2,0-8.3,0-12.5c1.1-1.2,2.3-1.9,3.6-3c1.1,0,2.3,0,3.4,0   C517.2,32.3,510.5,50.7,503.8,43.7z M506.8,30.4c-1.6,0.6-1.7,2.2-2.2,3.3c0.3,1,0.5,1.9,0.7,2.7c-1.3,1.9-1.1,5.1,1.5,5.9   C512.8,41.7,514.5,26.8,506.8,30.4z" />
	<path display="inline" fill="#393C48" d="M573.9,35.7c-0.9-0.1-1.7-0.2-2.7-0.3c-0.5,2.1,0.4,4.4-0.8,6.3   c0.5-7.8-0.9-14.7-5.2-21.4c0.5-0.1,0.9-0.2,1.4-0.3C570.9,24.4,572.6,29.7,573.9,35.7z" />
	<path display="inline" fill="#363A45" d="M535.2,22.9c-0.9-0.3-1.7-0.7-2.8-1.1c-0.1,0.3-0.2,0.7-0.3,1.2   c-1.2-4.8-3.3-8.8-5.5-13.2C531.3,11.8,534.5,17.9,535.2,22.9z" />
	<path display="inline" fill="#363945" d="M565,60.3c0.7,1.1,1.8,1.4,3,1.5c-1.5,2.9-3.1,5.7-6,7.5c-1-0.2-2.3,0.6-3-0.8   C561.1,65.7,563,63,565,60.3z" />
	<path display="inline" fill="#363945" d="M496.3,55c1.3,0,2.5,0,3.8,0c-0.8,2.9-2.2,5.4-4.4,7.5c-1.3,0-2.6,0-3.9-0.1   C492.6,59.7,494.9,57.5,496.3,55z" />
	<path display="inline" fill="#434A54" d="M518,6.5c0,0.3,0,0.5,0,0.8c-5.2-0.7-11.5,1.3-14.2,5.9c0,0,0,0,0,0c-0.3,0-0.5,0-0.8,0   c-1.6,1.1-1.7,2.9-3.8,3.5c1.7-5.9,8.4-8.7,13.5-10.9C514.6,5.9,516.4,5.4,518,6.5z" />
	<path display="inline" fill="#484E5A" d="M559.1,68.4c0.7,1.4,2,0.6,3,0.8c-0.5,0.7-1,1.5-1.5,2.2c-3.9,1.6-7.1,3-12,2.1   C553.1,72.6,555.7,70.2,559.1,68.4z" />
	<path display="inline" fill="#464A56" d="M526.2,48.3c0.5-0.2,1-0.5,1.5-0.7c-1.2,4.1-3.1,8.5-6.7,11.3c-0.3-0.3-0.5-0.5-0.8-0.8   c1.7-2.7,3.5-5.5,5.2-8.2C526.2,49.6,526.2,49,526.2,48.3C526.2,48.3,526.2,48.3,526.2,48.3z" />
	<path display="inline" fill="#363945" d="M558.4,68.6c-0.3,0.2-0.5,0.5-0.8,0.7C557.8,69,558.1,68.8,558.4,68.6z" />
	<path display="inline" fill="#363944" d="M527,49.8c0.2-0.3,0.4-0.5,0.6-0.8C527.4,49.3,527.2,49.6,527,49.8z" />
	<path display="inline" fill="#373A46" d="M465.8,24.4c9-32.1,36.9-8.3,32.7,15.8c-0.7,25.2-29.2,43.2-36.4,10.4   c1.5-2.6,4.5-1.1,7.1-1.2c4.6-4.2,14.2-9.5,8.6-16.9c-4.6-0.4-3.3-6.3-6.6-8.1c-0.9,0.3-1.6,0.5-2.3,0.7c-0.8-1-0.8-1-1.7,0   C466.7,25,466.3,24.7,465.8,24.4z" />
	<path display="inline" fill="#040404" d="M465.8,24.4c2.7,2.3,2.2,0.9,5.3,0.1c3.3,1.7,2,7.7,6.6,8.1c5.6,7.4-4,12.6-8.6,16.9   c-6.8-1.1-6.2-0.2-8.7,5.4c-0.2,0.1-0.4,0.1-0.6,0.1c0-0.7,0-1.5,0-2.2c1.5-2.4,1.5-6.2,3.1-8.9c1.3,0.6-0.1,2.5,1.5,2.9   c1.6-0.7,2.3-2.2,3.1-3.5l0,0c0.3-0.3,0.5-0.5,0.8-0.8l0,0.1c0.2,0,0.4-0.1,0.6-0.2c0.3,0.3,0.6,0.6,0.9,0.9   c-0.5,0.8-1.1,1.7-1.8,2.9c2.1,0,5.6-3.5,5.7-5.2l0.3,0.1l0.2-0.1c1,0.2,0.7-0.8,0.5-1.4c-3.3-3.8-1.6-9-4.1-12.9   c-1.3,0.5-2.6,1-3.8,1.5c-0.7-0.3-1.4-0.6-2-0.9c-0.2,0.9-0.5,1.2-1.1,1.8c-0.4-1.5,0.6-3.4-0.7-4.4c0-0.5-0.1-1-0.1-1.5   C463.7,23.4,464.8,23.9,465.8,24.4z M473.3,33.8c0.3,1.9,1.5,3.1,2.6,4.6C478.2,36.7,475.7,32.3,473.3,33.8z" />
	<path display="inline" fill="#4C4F5D" d="M462.7,23c0.4,1.3-0.5,2.9,0.8,3.8c-0.1,7.3,1.1,14.9-2.3,21.6c-1.3,0.1-2.6,0.1-3.7-0.7   c1-7.1,2.4-14.9,1-22.3c-0.5-2.5-0.5-5.2,2.9-4.5C461.8,21.4,462.2,22.2,462.7,23z" />
	<path display="inline" fill="#393D48" d="M501.5,23.8c-1,0.5-1.9,1-2.9,1.4c-1.7-4.8-3.8-9.3-7.4-13.1   C496.7,13.3,499.4,19,501.5,23.8z" />
	<path display="inline" fill="#363944" d="M461.3,20.7c-1.3,0.1-3.2-0.3-3.1,1.6c-1.3-3-2.3-6.6-3.7-9.7c1,0,2,0,3,0   C459.2,15,460.9,17.5,461.3,20.7z" />
	<path display="inline" fill="#444955" d="M457.5,12.5c-1,0-2,0-3,0c-1.9-2.8-4.4-5.1-6.7-7.5C452.1,5.7,454.7,9.5,457.5,12.5z" />
	<path display="inline" fill="#444955" d="M447.8,5c-0.4-0.2-0.8-0.4,0-0.7C447.8,4.6,447.8,4.8,447.8,5z" />
	<path display="inline" fill="#4B4F5C" d="M458.4,56.6c-2.9,7-11.8,15.8-19.3,12.7c7-1.1,11.1-7.4,14.8-12.8   C455.5,57,457,55.4,458.4,56.6z" />
	<path display="inline" fill="#363944" d="M458.4,56.6c-1.4-1.2-2.9,0.4-4.6-0.1c1.2-3,2.5-6,3.7-9c1.1,0.9,2.3,0.9,3.7,0.7   c-0.2,1-0.5,2-0.7,3c-1.3,0.8-0.5,2.6-0.7,3.8C459.3,55.6,458.8,56.1,458.4,56.6z" />
	<path display="inline" fill="#434854" d="M548.8,41.3c-0.6,1.2-1.1,2.1-1.6,3.1c-0.9,0-1.7,0.1-2.4,0.1c-0.8-1.8,0.8-4.6,1.8-6.5   C548,38.7,548.1,40,548.8,41.3z" />
	<path display="inline" fill="#D9B8AA" d="M536.6,46.7c0.1,1.8,1.7,1.6,3.1,1.6c-1.1,1.2-2.3,0.7-3.8,0.3   C536.1,47.9,536.3,47.3,536.6,46.7z" />
	<path display="inline" fill="#D9B8AA" d="M540.4,38.1c0,0.8,0.4,1.7-0.9,1.9c0.1-1.2,0.1-2.4,0.2-3.6c0.5,0,1.1,0.1,1.6,0.1   C541,37,540.7,37.6,540.4,38.1z" />
	<path display="inline" fill="#D9B8AA" d="M539.5,40c0.3,1.2-0.3,1.9-1.3,2.4C538.3,41.4,538.8,40.6,539.5,40z" />
	<path display="inline" fill="#D9B8AA" d="M539,31.9c1.2,0.8,0.7,2,0.7,3.1C538.9,34.1,538.8,33,539,31.9z" />
	<path display="inline" fill="#D9B8AA" d="M541.9,45.4c0.1-1-0.6-2.3,0.7-3C542.7,43.4,542.8,44.5,541.9,45.4z" />
	<path display="inline" fill="#D9B8AA" d="M537.7,39.1c0-0.5,0-1,0-1.5c0.1,0,0.2,0,0.3,0c0,0.5,0,1-0.1,1.5   C537.9,39.1,537.8,39.1,537.7,39.1z" />
	<path display="inline" fill="#D9B8AA" d="M542.7,42.4c0-0.8-0.3-1.7,0.7-2.2C543.4,41,543.4,41.8,542.7,42.4z" />
	<path display="inline" fill="#D9B8AA" d="M538.2,42.4c0,0.8,0.3,1.8-0.8,2.2C537.3,43.7,537.4,42.9,538.2,42.4z" />
	<path display="inline" fill="#D9B8AA" d="M537.4,44.6c0,0.8,0.5,1.9-0.9,2.2C536.5,45.9,536.6,45.1,537.4,44.6z" />
	<path display="inline" fill="#D9B8AA" d="M541.1,47.5c0.1-0.8-0.3-1.7,0.8-2.1C542,46.2,542,47,541.1,47.5z" />
	<path display="inline" fill="#D9B8AA" d="M539.7,48.4c0.2-0.8,0.7-0.8,1.4-0.8C540.9,48.3,540.4,48.4,539.7,48.4z" />
	<path display="inline" fill="#100E0F" d="M528.6,58.8c0.2-0.2,0.4-0.5,0.7-0.7C529,58.3,528.8,58.6,528.6,58.8z" />
	<path display="inline" fill="#4B65C5" d="M405.4,324.5c4.1,4.5,9.6,8.4,13.3,13.6c-3.8-1-7.5-9-10.9-8.6   c4.9,7.6,13.5,11.5,19.9,17.4c-2.2,2.2,6.9,11.8,4.7,14c-2.5-1.4-8.5-7.4-9.8-9.9c0.9-0.2,1.7-0.4,2.6-0.6   c-7.1-5.1-11.6-11.6-18.2-17.3c-0.1,0-0.5,0.2-0.9,0.4C404.4,330.9,405.7,327.5,405.4,324.5z" />
	<path display="inline" fill="#0C0E1A" d="M422.4,265.4c1.4,0.2,4-0.5,3.8,1.7c0,3.6,3.5,5.7,5.2,8.8c-3.3-0.8-7.9-4.6-7.6-8.3   c-0.9-0.7-1.6-0.4-2.7-0.4c-1.3,2.5,0.4,4.9-0.1,7.3c-0.6,0-1.2,0-1.9,0c-0.9-2.4-0.2-4.9-0.6-7.4c-1-0.4-2-0.8-3.1-1.2   c-0.3-1.1-1.1-2.2,0.4-3.2c0,0.6,0,1.2,0,1.9c0.7,0.2,1.2,0.4,2,0.7c0.4-0.5,0.8-1,1.3-1.6C420,264.7,420.4,266.2,422.4,265.4z" />
	<path display="inline" fill="#4C66C6" d="M404.7,315.2c5.5-0.5,11.6,6,14.5,10.4C417.3,326.3,402.3,318,404.7,315.2z" />
	<path display="inline" fill="#0F1427" d="M368.6,382.7c1.2-10.9,5.8-21.4,12.8-29.8c0.3,0.3,0.5,0.5,0.8,0.8   c-6.6,9.2-11.2,19.9-12.8,31.1C368.3,384.4,368.9,383.4,368.6,382.7z" />
	<path display="inline" fill="#141A31" d="M379.3,265.6c0.6-0.4,1.1-1,2-0.7c0,6.6,0.8,13.8-1.6,20   C379.2,278.7,378.9,272,379.3,265.6z" />
	<path display="inline" fill="#141426" d="M426.2,345.4c-6.6-4.7-13.8-9.1-18.5-15.9c0.6-0.7,1.1-0.2,1.5,0.2   c5.3,5.7,11.6,10.1,17.6,15.1C426.6,345,426.4,345.2,426.2,345.4z" />
	<path display="inline" fill="#1F2643" d="M405.4,324.5c0.3,3-0.9,6.4,0.7,9c-0.1,0.2-0.2,0.5-0.2,0.7c-0.7,1-1.3,2.1-2.2,3   c0-0.7,0.1-1.5,0.1-2.2c1-1.4,0-2.9-0.2-4.2c-0.6-2.6,0.3-4.4,0.4-7.1C404.6,324.1,405,324.3,405.4,324.5z" />
	<path display="inline" fill="#14182C" d="M386.9,280.9c-0.8-4.9-3.4-9.5-2.3-14.6c2.8,2.3,2.3,10.6,2.7,14.5   C387.2,280.8,387,280.9,386.9,280.9z" />
	<path display="inline" fill="#323F71" d="M404.6,280.5c-0.5-5.3-1.3-10.3,0-15.6c1.9,4.7,0.2,10.5,0.6,15.6   C405,280.5,404.8,280.5,404.6,280.5z" />
	<path display="inline" fill="#3A4E99" d="M415.8,376c-0.1,0.3-0.1,0.7-0.3,1.4c-2.2-4-3-7.8-5-11.8c0.3-0.3,0.5-0.5,0.8-0.8   c1.1,1.1,0.8,2.9,2.2,3.8l0,0c0.1,0.8-0.3,1.8,0.7,2.3C414.7,372.6,415.2,374.3,415.8,376z" />
	<path display="inline" fill="#171E3C" d="M389.4,370.7c0.5-2.9,1-5.8,1.4-8.6c3,0.2-0.5,7.4-0.6,9.4   C390,371.3,389.7,371,389.4,370.7z" />
	<path display="inline" fill="#29325D" d="M382.2,353.7c-0.3-0.3-0.5-0.5-0.8-0.8c1.1-2.9,3.3-5,5.1-7.9   C387,348.2,383.4,350.7,382.2,353.7z" />
	<path display="inline" fill="#324383" d="M389.4,370.7c0.3,0.3,0.6,0.5,0.9,0.8c-0.6,1.8-0.5,3.9-1.7,5.6   C387.5,375.6,388.9,372.6,389.4,370.7z" />
	<path display="inline" fill="#3F55A6" d="M368.6,382.7c0.3,0.7-0.3,1.7,0.7,2.1c-0.4,1.8-0.4,3.6-1.5,5.8   C368.1,387.4,367.3,385.2,368.6,382.7z" />
	<path display="inline" fill="#2A325C" d="M397.7,334.3c0.9-1.8,1.8-3.8,4.4-3.8C401.3,332.4,399.1,333,397.7,334.3z" />
	<path display="inline" fill="#3A4680" d="M426.2,345.4c0.2-0.2,0.4-0.4,0.6-0.6c1.7,0.8,2.8,2.1,3.9,3.6l0,0   C428.8,348.3,427.5,346.6,426.2,345.4z" />
	<path display="inline" fill="#40519B" d="M430.7,348.4c2,0.2,2.8,1.7,4,3.4C432.4,350.7,432.4,350.7,430.7,348.4L430.7,348.4z" />
	<path display="inline" fill="#4964C4" d="M405.4,266.3c-0.4-0.8-0.8-1.7-1.6-2.1c0.3,0,0.6-0.1,0.8-0.1c0.5-0.5,1-1,1.4-1.5   c0.1,0.8-0.3,1.8,0.7,2.2C406.3,265.3,405.8,265.8,405.4,266.3z" />
	<path display="inline" fill="#495B9F" d="M404.6,280.5c0.2,0,0.4,0,0.6,0c0,1.6,0,3.1,0,4.7C404.3,283.6,404.5,282,404.6,280.5z" />
	<path display="inline" fill="#1A1930" d="M392.5,265.5c-1.6,0.2-3.2,0.2-4.8-0.2c1.5-0.8,3.2-0.5,4.8-0.4   C392.5,265.1,392.5,265.3,392.5,265.5z" />
	<path display="inline" fill="#25305E" d="M409.8,262.6c0.5,0,0.9,0,1.4,0c-0.2,1.4-0.4,1.7-1.4,3.1   C409.8,264.3,409.8,263.5,409.8,262.6z" />
	<path display="inline" fill="#3B4486" d="M392.5,265.5c0-0.2,0-0.4,0-0.6c1.3,0,2.7,0,4,0C395.2,265.8,393.8,265.5,392.5,265.5z" />
	<path display="inline" fill="#1E284E" d="M406.8,264.8c-1.1-0.5-0.7-1.4-0.7-2.2C408.1,262.7,407.3,263.7,406.8,264.8z" />
	<path display="inline" d="M374.6,263.9c0.2,0.3,0.5,0.6,0.7,0.8c-1,0.2-2,0.1-3,0.1c0.3-0.3,0.5-0.6,0.8-0.9   C373.7,264,374.1,264,374.6,263.9z" />
	<path display="inline" fill="#2A3466" d="M404.6,264.1c-0.8,0.2-1.2,0.1-2.2-0.2c0.3-0.4,0.6-0.7,1-1.2   C403.8,263.2,404.2,263.7,404.6,264.1z" />
	<path display="inline" fill="#4B65C5" d="M414.2,370.8c-1-0.5-0.6-1.5-0.7-2.3C414.6,369.1,414.1,370,414.2,370.8z" />
	<path display="inline" fill="#2E488D" d="M372.4,264.8c0.8,0,1.5,0,2.3,0c-0.3,0.2-0.5,0.5-0.8,0.7   C373.3,265.5,372.7,265.6,372.4,264.8z" />
	<path display="inline" fill="#040404" d="M368.7,149.9c1.6-0.8-0.1-2.9,1.4-3.7c0.7,5.1-1.4,11.2,1.6,15.7   c-0.5,1.7-1.7-0.1-2.7,0.7c-2,10.1-10.7,18.6-21.3,18.7c0-0.5,0.1-1,0.1-1.5c10.2-1.1,16.7-9.3,19.5-19.5   c-2.9-5.4-5.9-10.3-7.5-16.2c-0.7,0.3-1.4,0.6-2.2,0.9c0.2-1.8,0.2-1.8,3.2-3.7c3.6,3,4.4,7.9,7.3,11.7   C368.4,151.7,368.6,150.8,368.7,149.9z" />
	<path display="inline" fill="#B6BCD4" d="M371.7,161.8c-3.2-5.9-1-13.6-1.5-20.2c1.8,3.5,0.2,8.7,0.7,12.6   c7.2,4.5,15.1,7.4,22.8,11.6c-1.8,3.2-13.4,4-15.2,1c1.1-0.2,2.7,0.8,3.2-0.5c-0.7-0.3-1.3-0.6-2.1-0.9c-0.4,0.5-0.8,1-1.1,1.4   c-1.1-0.1-2.2,0.5-3.2-0.5l0.2-0.3c0.4-0.1,0.8-0.2,1.6-0.3C375.2,164,374.2,162.4,371.7,161.8z" />
	<path display="inline" fill="#B7BDD5" d="M375.1,179.2c2.4,1.8,4.1,4.3,5.5,7.2c-2.4,5.4-7.2,0.2-9.5-2.6c0-0.8-0.1-1.8-0.1-2.6   C371.9,179.5,373,178.6,375.1,179.2z" />
	<path display="inline" fill="#B8BED6" d="M366.9,186.5c2,2.5,3.4,5.4,4.7,8.4c-3.5,2.1-6-3.1-7.4-5.9   C365.2,187.4,365.2,187.4,366.9,186.5z" />
	<path display="inline" fill="#1A1A1D" d="M407.9,236.9c-1.5-1.8-0.9-10.8,0.9-12.8C410.3,230.8,410.1,234.3,407.9,236.9z" />
	<path display="inline" fill="#A5B0C6" d="M371.7,161.8c1.1,0.4,2.1,0.7,2.9,1.5c-0.4,0-0.9,0-1.3-0.1c-0.1,1.9,1.5,2,2.2,2.8   l-0.2,0.3c-2.4,0-4.4-1.4-6.7-1.7c0.2-0.8,0.3-1.7,0.4-2.3C370,161.7,371.2,163.5,371.7,161.8z" />
	<path display="inline" fill="#9091A3" d="M366.5,238.1c-1.8-0.1-3.7,0.2-5.4-0.8c0.6-0.1,1.3,0,1.5-0.8c4.6,0.7,9.1,1.1,13.7,1.7   c-2,0.8-4.1,0.4-6.1,0.4C369.2,237.3,367.8,238.3,366.5,238.1z" />
	<path display="inline" fill="#A3A7B8" d="M387.5,242.4c-4.8,0.8-9.6,1.2-14.3-0.2C377.8,240.8,382.7,243.1,387.5,242.4z" />
	<path display="inline" fill="#26292C" d="M408.7,208.4c1.9,1.7,0.5,8.6-0.1,12.6C408,217.5,408,210.8,408.7,208.4z" />
	<path display="inline" fill="#312F34" d="M413.5,166.3c-0.2-0.9-0.5-1.8-0.9-3.4c3.4,2.1,4.1,5.8,7.5,8.2   C416.7,172.3,415.4,168.1,413.5,166.3z" />
	<path display="inline" fill="#1D2427" d="M405.9,217.3c-4.2,1.3-6.9-1-9.9-1.3C399.6,216.3,402.7,214.8,405.9,217.3z" />
	<path display="inline" fill="#4F4D54" d="M406.8,249.9c0.2-1.5-0.4-2.7-1.4-3.7c0.5-1.8,1.1-3.7,1.6-5.7c1.2,1.6,0.1,3,0.1,4.4   c1.8,1.2,0.8,3.2,0.5,5C407.3,249.9,407.1,249.9,406.8,249.9z" />
	<path display="inline" fill="#9EA0B2" d="M365.7,247.7c-1.9,0-3.7,0-5.7,0c0.3-0.6,0.4-0.9,0.5-1c3.7,0.2,7.1,0.3,10.7,0.2   C369.4,247.9,367.5,247.5,365.7,247.7z" />
	<path display="inline" fill="#1D191B" d="M410.4,217.8c2.6-0.3,4.9,0.1,7.6,1.2C415.2,219.4,411.9,220.4,410.4,217.8z" />
	<path display="inline" fill="#959AAC" d="M374.6,234.3c2.8-0.3,4.6,0.5,7.7,1.1C379.9,235.5,375.3,237.1,374.6,234.3z" />
	<path display="inline" fill="#AEACBE" d="M428.1,247.4c-2.7,0.9-5-0.7-7.5-0.9C423.2,246.1,425.7,245.8,428.1,247.4z" />
	<path display="inline" fill="#0F1011" d="M406.8,249.9c0.3,0,0.5-0.1,0.8-0.1c0.3,2,0.1,3.9-0.4,6.3   C405.1,254.6,406.9,252,406.8,249.9z" />
	<path display="inline" fill="#3E3F44" d="M409.2,191c0.2-1.2,0.5-2.3,0.8-3.9c0.9,3.5,0.9,4.6-0.2,6.7   C409.5,192.9,410.3,191.8,409.2,191z" />
	<path display="inline" fill="#4C4A52" d="M405.4,246.2c0.3,0.3,0.5,0.7,0.8,1c-0.1,1.6-0.6,3.1-1.5,4.4c-0.2-0.3-0.5-0.6-0.7-0.9   C404.4,249.2,404.9,247.7,405.4,246.2z" />
	<path display="inline" fill="#4D383E" d="M403.7,229.3c-1.8,1.1-2.9-0.3-4.2-0.7C400.9,228.2,402.4,227.6,403.7,229.3z" />
	<path display="inline" fill="#383237" d="M423.4,169.4c1.8-0.5,3-0.3,4.4,1.1C425.9,171.2,424.7,170.8,423.4,169.4z" />
	<path display="inline" fill="#4E4349" d="M386.4,216.5c2.6-0.4,2.6-0.4,3.6,0.9C388,217.9,388,217.9,386.4,216.5z" />
	<path display="inline" fill="#585C64" d="M410.2,201.1c0.1,2.4,0.8,4,0.1,5.8C409.6,205.2,409.6,205.2,410.2,201.1z" />
	<path display="inline" fill="#060506" d="M409.2,191c1.1,0.8,0.3,1.9,0.6,2.8C407.9,195.2,409,191.8,409.2,191z" />
	<path display="inline" fill="#2F2D32" d="M397.9,170.6c0.7-0.9,1.2-1.6,1.8-2.5C400.4,170,400.4,170.1,397.9,170.6z" />
	<path display="inline" fill="#4E555D" d="M405.1,166.1c-0.2,0.5-0.5,1-0.9,2c-0.5-1.6-0.7-2.6,0.4-3.3   C404.7,165.2,404.9,165.7,405.1,166.1z" />
	<path display="inline" fill="#AAADC0" d="M405.9,189c0.4-0.6,0.6-1.1,0.9-1.6C408.2,188.4,407.3,189.6,405.9,189z" />
	<path display="inline" fill="#B7BDD5" d="M367.2,238.1c1,0.1,2.2-0.7,3,0.6C369.2,238.5,368,239.2,367.2,238.1z" />
	<path display="inline" fill="#070303" d="M405.1,166.1c-0.2-0.5-0.4-0.9-0.6-1.4c0.3-0.1,0.5-0.3,0.8-0.4   C405.7,165.1,405.5,165.6,405.1,166.1z" />
	<path display="inline" fill="#2E2E32" d="M403.9,250.7c0.2,0.3,0.5,0.6,0.7,0.9c-0.1,0.4-0.2,0.9-0.3,1.3c-0.2,0-0.4,0-0.5,0   C403.1,252.1,403.8,251.4,403.9,250.7z" />
	<path display="inline" fill="#323C41" d="M421,217.8c0.8,0,1.4-0.1,2-0.1C422.4,218.6,421.8,218.8,421,217.8z" />
	<path display="inline" fill="#31417F" d="M344.5,391.9c-4.5-9.7,2.8-20,3.1-30.1c-1.3-5.1-2.4-6.7,0-13.3   C351,363.5,343,377.2,344.5,391.9z" />
	<path display="inline" fill="#0F1425" d="M343.2,295.4c0.8-7.9,2.4-16.4,5.2-23.6c0.9,0,1,0.7,0.9,1.3c-1.8,8.2-4.1,16.2-5.3,24.5   C342.9,297.1,343.5,296.1,343.2,295.4z" />
	<path display="inline" fill="#07080F" d="M358.1,278.1c1-3.5,2.5-11.9,7-11.5c-2.1,4.4-4,8.8-6.2,13.1   C358.1,279.5,358.3,278.7,358.1,278.1z" />
	<path display="inline" fill="#1B2443" d="M341,331.2c0.3-5.5,0-11.9,1.8-16.9c2,5.2-1.5,11.9-1.1,17.7   C341.5,331.7,341.2,331.4,341,331.2z" />
	<path display="inline" fill="#242F58" d="M341,331.2c0.3,0.3,0.5,0.6,0.8,0.8c-0.1,4-1,7.9,0,12c-0.3,0-0.5,0-0.8,0   C339.9,340.4,340,334.8,341,331.2z" />
	<path display="inline" fill="#2A386A" d="M343.2,295.4c0.3,0.7-0.3,1.7,0.8,2.2c-0.3,2.6-0.6,5.3-0.9,7.9   C342.7,302.2,341.8,298.3,343.2,295.4z" />
	<path display="inline" fill="#192140" d="M357,265.4c-1.3-2-1.4-2.4-0.5-4.8C358.3,261.2,357.3,264,357,265.4z" />
	<path display="inline" d="M350.2,261.1c0.4,0,0.8,0,1.3,0c0.3,1.7,0.4,3.4-0.8,5C349.8,263.8,349.8,263.8,350.2,261.1z" />
	<path display="inline" fill="#232D56" d="M362.1,293.1c-0.4-2.5,0.7-4,1.9-5.4C364.1,289.6,363.5,291.3,362.1,293.1z" />
	<path display="inline" fill="#1C2546" d="M358.1,278.1c0.2,0.6,0,1.3,0.8,1.6c-0.6,2.4-0.6,2.4-2.1,2.8   C357.3,281,357.1,279.3,358.1,278.1z" />
	<path display="inline" fill="#101527" d="M341,344c0.3,0,0.5,0,0.8,0c0.1,1.7,0.5,3.3-0.3,5.2C340.7,347.3,341.2,345.6,341,344z" />
	<path display="inline" fill="#10162A" d="M371.7,260.3c1,1.2,1,1.7,0,2.9C371.7,262.3,371.7,261.3,371.7,260.3z" />
	<path display="inline" fill="#120D0C" d="M366.5,407.6c0.5-0.3,0.9-0.6,1.4-0.9c0.3,0.3,0.6,0.7,1,1c-3.5,7.1-13.4,12.3-20.4,7.3   c0.3-0.3,0.6-0.6,1-1c1.9,0.4,4.1,0.5,5.8,1.4C359.6,413.6,364.1,411.9,366.5,407.6z" />
	<path display="inline" fill="#231F1E" d="M359,504.5c-0.2,0-0.5,0-0.7,0c-0.9-6.2-1.3-12.7,0.6-18.7c0.3,0,0.5,0.1,0.8,0.1   C359.5,492,360.2,498.3,359,504.5z" />
	<path display="inline" fill="#221B1A" d="M356.1,437.9c-1.4-2.3-3.2-5.1-2.8-7.9c1.6-2.7,0.3-6.2,2.8-8.4c1.2,0.8,1.2,0.8,0.6,2.3   C353.2,428.3,357.7,433.7,356.1,437.9z" />
	<path display="inline" fill="#E2C0B1" d="M356.1,437.9c1.7-4.2-2.9-9.6,0.7-14c0.2,4.8,3.1,10.1,0.5,14.6   C356.5,438.7,356.2,438.5,356.1,437.9z" />
	<path display="inline" fill="#39302E" d="M341.7,441.7c1.2-3.3,2.3-6,5.4-8.1c0.4,0.3,1,0.7,1.6,1.2c-0.6,2.5-1.1,4.9-2.5,7   c-0.2-0.3-0.5-0.6-0.7-0.9c0.1-1.4,1.4-2.6,0.6-4.3c-1.9,1.6-2.7,3.8-3.6,5.9C342.2,442.2,342,441.9,341.7,441.7z" />
	<path display="inline" fill="#3B3532" d="M344.1,452.1c1.5,4.3,0.9,8.4-1.4,13.2c-0.5-4,0.9-6.9,0.6-10.8   C344.4,453.9,343.8,452.8,344.1,452.1z" />
	<path display="inline" fill="#4B433F" d="M345.4,440.8c0.2,0.3,0.5,0.6,0.7,0.9c-1.2,2.4-2.3,4.8-2.2,7.5c-0.8,0.9-0.7,2-0.8,3.1   C341.6,448.1,342.9,444.3,345.4,440.8z" />
	<path display="inline" fill="#AC9185" d="M339.6,450.7c-1.9,1.6,0.4,4.4-1.5,6c-0.2-0.2-0.5-0.5-0.7-0.7c-0.2-1.6-0.2-7.3,2.2-6   C339.6,450.2,339.6,450.5,339.6,450.7z" />
	<path display="inline" fill="#342E2C" d="M360.9,472.6c0.8,3,0.2,6,0.2,9C359.2,478.6,360.3,475.6,360.9,472.6z" />
	<path display="inline" fill="#4B3E3B" d="M371.2,409.8c1.3,1.2,1.2,2.8,1.4,4.5C369.7,412.1,369.4,411.1,371.2,409.8z" />
	<path display="inline" fill="#97847B" d="M341.7,441.7c0.3,0.2,0.5,0.5,0.8,0.7c-0.5,1.5-1,3-1.4,4.5   C339.8,445.8,340.9,443,341.7,441.7z" />
	<path display="inline" fill="#756C66" d="M362.5,465.6c-0.3,1.3-0.5,2.6-0.8,4c-0.9-2.2-0.9-2.2,0.1-4.8   C362.1,465,362.3,465.3,362.5,465.6z" />
	<path display="inline" fill="#6A605B" d="M347.7,522.9c-1.1-1.3-0.7-3.1-0.9-4.8c0.3,0,0.6-0.1,0.9-0.1   C347.7,519.7,347.7,521.3,347.7,522.9z" />
	<path display="inline" fill="#0D0C0B" d="M343.2,452.4c0.1-1.1,0.1-2.2,0.8-3.1c0.1,0.9,0.1,1.9,0.2,2.8c-0.4,0.7,0.3,1.8-0.7,2.3   C343.3,453.7,343.2,453,343.2,452.4z" />
	<path display="inline" fill="#513F3B" d="M368.9,407.6c-0.3-0.3-0.6-0.7-1-1c0.4-0.7,0.7-1.4,1.2-2.3c0.4,0.3,0.7,0.6,0.9,0.8   C369.7,406,369.3,406.8,368.9,407.6z" />
	<path display="inline" fill="#7F6E69" d="M364.6,457.2c-0.7-1.1-0.6-2.1,0-3.1C365.2,455.1,365.2,456.1,364.6,457.2z" />
	<path display="inline" fill="#625752" d="M362.5,465.6c-0.2-0.3-0.5-0.6-0.7-0.8c0.1-0.6,0.2-1.1,0.4-1.7c0.2,0,0.3,0,0.5,0.1   C362.6,464,362.6,464.8,362.5,465.6z" />
	<path display="inline" fill="#745B57" d="M359.7,485.8c-0.3,0-0.5-0.1-0.8-0.1c0.1-0.6,0.2-1.3,0.3-1.9c0.1,0,0.3,0,0.4,0   C359.6,484.5,359.6,485.2,359.7,485.8z" />
	<path display="inline" fill="#100E0E" d="M428.4,449.3c2.8,6.3,3.2,14.5,0.8,20.9c-0.3,0-0.5,0-0.8,0c-0.2-7-1.1-13.9-1.5-20.9   C427.4,449.2,427.9,449.2,428.4,449.3z" />
	<path display="inline" fill="#1B1816" d="M427.7,418.8c-1.5,0.2-3.6,1.1-4.6-0.6c0.5-1.8,2.5-0.7,3.3-1.7c2.3-0.4,4.6-0.9,7.2-1.4   c0.8-1.1,1.6-2.4,2.6-3.8C437.8,416.8,431.1,417.1,427.7,418.8z" />
	<path display="inline" fill="#251F1D" d="M432.9,457.4c-1.5-5.9,2.1-9,4-13.9c0.4-0.8,0.3-2,1.7-2.4c0.5,3-0.8,5.8-2.7,8   C433.6,451.5,435.1,454.5,432.9,457.4z" />
	<path display="inline" fill="#23201E" d="M428.4,470.1c0.3,0,0.5,0,0.8,0c0.3,3.2,1.1,7.4-1.1,10.1   C427.4,476.7,428.4,473.4,428.4,470.1z" />
	<path display="inline" fill="#221B19" d="M424.1,439.4c-0.3-1.4-0.6-2.7-0.9-4.3c0.6,0,1.1-0.1,1.5-0.1c0.5,2.2,1.1,4.4,1.6,6.6   c-0.2,0.5-0.5,1-0.7,1.5C425.1,441.9,424.6,440.7,424.1,439.4z" />
	<path display="inline" fill="#271F1D" d="M435,424.6c0.8,3.1-3.7,5.1-5.6,2.4C431.2,426.3,433,425.5,435,424.6z" />
	<path display="inline" fill="#4C3F3A" d="M424.7,510.4c-0.2,0.3-0.4,0.5-0.7,0.9c-1.5-1.5-0.5-3.2-1-5.4c0.8,0.9,1.2,1.3,1.6,1.7   C424.6,508.5,424.7,509.5,424.7,510.4z" />
	<path display="inline" fill="#534742" d="M425.5,522.4c-1.2-1-1.4-6.6,0-7.5C425.4,517.4,425.4,519.9,425.5,522.4z" />
	<path display="inline" fill="#7B6F69" d="M425.6,443.1c0.2-0.5,0.5-1,0.7-1.5c0.4,1.5,0.8,3.1,1.2,4.6c-0.2,0-0.4,0-0.6,0   C425.8,445.5,426,444.2,425.6,443.1z" />
	<path display="inline" fill="#CBB8AE" d="M432.5,460.7c1.2,0.5,1.4,1.3,0.8,2.4C432.2,462.5,431.8,461.8,432.5,460.7z" />
	<path display="inline" fill="#6E5550" d="M426.6,484.8c-0.4-1-0.3-1.8,0.7-2.7C427.9,483.4,427.7,484.2,426.6,484.8z" />
	<path display="inline" fill="#6A5651" d="M426.9,446.2c0.2,0,0.4,0,0.6,0c0.3,1,0.6,2,0.8,3c-0.5,0-1,0-1.4,0   C426.9,448.2,426.9,447.2,426.9,446.2z" />
	<path display="inline" fill="#766762" d="M425.6,491.8c-0.1-1.1-0.1-1.8-0.2-3.3C426.5,489.9,426.4,490.7,425.6,491.8z" />
	<path display="inline" fill="#7C6E68" d="M423.2,500.7c-1.1-1.2-1.1-1.7,0-2.9C423.2,498.7,423.2,499.7,423.2,500.7z" />
	<path display="inline" fill="#F9DED2" d="M365.7,164.1c0.7,4.5-15,20.4-11.9,9.6c0.7-0.3,0.7-0.9,0.6-1.5c0.3-0.2,0.5-0.4,0.8-0.6   c2-5.1,3.2-9.4,4.5-14.3c2,1.6,3.7,3.6,5.8,5C365.6,162.9,365.7,163.5,365.7,164.1z" />
	<path display="inline" fill="#F8DCD0" d="M359.7,157.3c-1.7,1.6,0.3,4.4-1.6,5.9c-0.2-2.5,0.9-5.2-0.9-7.3   c-2.5,4.6-2,10.4-3.5,15.5c-0.4-0.1-0.7-0.1-1.3-0.2c-1.4-5.1-2-10.3-1.6-15.8c1.3-1.1,2.7-2.3,4.4-3.7   C357,153,358.4,155.1,359.7,157.3z" />
	<path display="inline" fill="#161413" d="M353.7,171.5c1.5-5.1,1-10.8,3.5-15.5c2.9,4.9-0.6,10.7-2,15.6c-0.5,0.4-0.9,0.7-1.5,0.6   l0,0.1C353.8,172,353.7,171.8,353.7,171.5z" />
	<path display="inline" fill="#2F2623" d="M356.9,133.5c2.8-1.3,5.3-3.1,7.2-5.5c0.3,0.2,0.6,0.4,1,0.6c-1.7,3.3-3.9,5.7-7.9,6.4   C357.1,134.4,357,134,356.9,133.5z" />
	<path display="inline" fill="#28201D" d="M397.1,101.1c-1.4,1.9-3.2,2.9-5.6,3.4C392.1,102,394.6,99.4,397.1,101.1z" />
	<path display="inline" fill="#36302D" d="M353.9,173.7c-0.3,0.8-0.6,1.5-0.8,2.3c-1.9-0.6-1.1-4.4,0.8-3.8l0-0.1   C353.8,172.7,353.8,173.2,353.9,173.7z" />
	<path display="inline" fill="#544742" d="M333.1,148.9c1.6,0.7,1.3,1.8,1.2,2.8C333,150.9,333,150.9,333.1,148.9z" />
	<path display="inline" fill="#8D6E65" d="M348.5,153.6c0.5-0.9,1.5-1,2.4-1.5c-0.3,1.3-0.3,1.3-1.6,2.2   C349,154.1,348.7,153.8,348.5,153.6z" />
	<path display="inline" fill="#4A3D38" d="M352.8,150.2c0.5-2.5,0.5-2.5,2.3-2.4C354.4,148.4,353.9,149,352.8,150.2z" />
	<path display="inline" fill="#231917" d="M348.5,153.6c0.3,0.2,0.5,0.5,0.8,0.7c-0.4-0.1-0.7-0.1-1.1-0.2   C348.3,153.9,348.4,153.7,348.5,153.6z" />
	<path display="inline" fill="#6D727F" d="M374.6,234.3c0,0.2,0.1,0.4,0.1,0.7c-3.8-0.2-7.7,0.6-11.3-0.6c0.7-0.4,1.8,0.2,2.3-0.8   C368.6,233.5,371.5,234.5,374.6,234.3z" />
	<path display="inline" fill="#493239" d="M365.6,233.6c-0.5,1-1.6,0.4-2.3,0.8c-1.6-0.1-3.1-0.1-4.7-0.2   C361,233,363.3,233.6,365.6,233.6z" />
	<path display="inline" fill="#373131" d="M347.7,181.2c0.5,0,1.1,0,1.6,0c-1.1,1.2-2.5,0.7-3.8,0.6   C346,180.9,346.9,181.3,347.7,181.2z" />
	<path display="inline" fill="#7E6B77" d="M362.7,236.5c-0.6,1.2-2.1,0.6-3.2,0.6C360.5,236.2,361.6,236.5,362.7,236.5z" />
	<path display="inline" fill="#795751" d="M425.7,409.3c-3.8,0.5-7.6,0.8-11.8-1.6C418.4,407.3,421.9,409.3,425.7,409.3z" />
	<path display="inline" fill="#141A33" d="M407.6,358.1c-1.1-4.7-5.3-8.6-3-13.6c0.2,4.9,2.7,8.6,3.8,12.8   C408.1,357.6,407.8,357.8,407.6,358.1z" />
	<path display="inline" fill="#232F5D" d="M407.6,358.1c0.3-0.3,0.5-0.5,0.8-0.8c1,2.5,1.9,5,2.9,7.5c-0.3,0.3-0.5,0.5-0.8,0.8   C409.5,363.1,408.6,360.6,407.6,358.1z" />
	<path display="inline" fill="#384C95" d="M406.8,382.8c0.3,0,0.5,0,0.8,0c1.5,2.1,1.7,4.7,2.6,7   C408.1,390.3,407.9,384.4,406.8,382.8z" />
	<path display="inline" fill="#F9DDD1" d="M366.5,407.6c-2.4,4.3-6.9,6.1-11.3,7.8c-0.4-0.2-0.9-0.4-1.5-0.6   c-0.9-2.1-1.8-4.2-2.7-6.5C355.4,409.1,364.1,405.1,366.5,407.6z" />
	<path display="inline" fill="#B69B8F" d="M338,461.8c-1.6,2.9,0.8,7.4-1.9,9.4c-0.7-3.4-0.2-7,1.2-10.2   C337.5,461.4,337.8,461.6,338,461.8z" />
	<path display="inline" fill="#D1B1A3" d="M338.2,488.5c-0.2-1.4-0.4-2.7,0.2-4C340.1,485.6,340,487,338.2,488.5z" />
	<path display="inline" fill="#72615A" d="M338,461.8c-0.3-0.2-0.5-0.5-0.8-0.7c0.1-1.7,0.1-3.4,0.2-5.1c0.2,0.2,0.5,0.5,0.7,0.7   C338.1,458.4,338,460.1,338,461.8z" />
	<path display="inline" fill="#634742" d="M349.4,414c-0.3,0.3-0.6,0.6-1,1c-0.7-0.1-1.4-0.2-1.2-1.3   C348.1,413.1,348.8,413.2,349.4,414z" />
	<path display="inline" fill="#362D2B" d="M347.8,529.9c-1.6-0.8-0.7-1.9-0.1-2.9C347.7,528,347.8,529,347.8,529.9z" />
	<path display="inline" fill="#5775E6" d="M374.6,263.9c-0.5,0-0.9,0-1.4,0c0-1.1-0.3-2.3,0.2-3.4c1.3-0.5,1.1,1.1,1.9,1.2   c0.1,0.2,0.1,0.4,0.1,0.6C375.2,263,374.9,263.5,374.6,263.9z" />
	<path display="inline" d="M375.5,262.5c0-0.2-0.1-0.4-0.1-0.6c0.1-0.3,0.2-0.7,0.3-1c0.1,0,0.2,0,0.3,0.1   C375.8,261.4,375.6,262,375.5,262.5z" />
	<path display="inline" fill="#0E1121" d="M422.6,263.5c0.3-0.3,0.7-0.6,1.1-1c0.4,1.9,0.4,1.9-1.1,2   C422.6,264.3,422.6,263.9,422.6,263.5z" />
	<path display="inline" fill="#0C0E1A" d="M426.1,264c0.2-0.1,0.4-0.2,0.6-0.3c0,0.3,0.1,0.7,0.1,1   C426.6,264.5,426.4,264.3,426.1,264z" />
	<path display="inline" fill="#161312" d="M388.1,85.5c-0.6,3.7-5.1,5.9-8.2,3.7C382,86.7,385.1,86.9,388.1,85.5z" />
	<path display="inline" fill="#2E2321" d="M391.7,88.3c1.3-2.7,3.5-4,6.5-4.9C396.5,85.6,394.2,89.7,391.7,88.3z" />
	<path display="inline" fill="#56524E" d="M398.6,68.3c-0.3,1.2-1.2,1.7-2.1,2.3C396.4,68.6,396.4,68.6,398.6,68.3z" />
	<path display="inline" fill="#8D857F" d="M343.4,115.6c-0.6,1-1.7,0.9-2.8,1c0.6-0.6,1.2-1.3,1.8-1.9   C342.7,115,343,115.3,343.4,115.6z" />
	<path display="inline" fill="#423B38" d="M403.8,78.7c-0.5,0.5-0.9,0.8-0.9,0.9C399.8,79.7,402,76.8,403.8,78.7z" />
	<path display="inline" fill="#2A2321" d="M388.9,83.1c0.1-0.8,0.1-1.4,0.2-2.3C390.2,82,390.2,82,388.9,83.1z" />
	<path display="inline" fill="#27211F" d="M411.2,71.2c-0.4,0.2-0.8,0.5-1.6,0.9c0.2-1.4,0.2-1.7,1.4-1.6   C411.2,70.8,411.2,71,411.2,71.2z" />
	<path display="inline" fill="#413836" d="M393.5,77.1c-0.4,0.2-0.7,0.4-1.1,0.7c-0.8-0.9,0-1,0.7-1.4   C393.2,76.6,393.3,76.8,393.5,77.1z" />
	<path display="inline" fill="#201414" d="M343.4,115.6c-0.3-0.3-0.7-0.6-1-0.9C343.6,113.5,344,114.5,343.4,115.6z" />
	<path display="inline" fill="#826D68" d="M406,75.1c-0.1,0.2-0.2,0.4-0.3,0.6c-0.6-0.2-0.5-0.5-0.2-0.9   C405.7,74.9,405.9,75,406,75.1z" />
	<path display="inline" fill="#8F716D" d="M369.8,119.9c-0.2-0.2-0.2-0.3,0-0.5C370.1,119.6,370.1,119.7,369.8,119.9z" />
	<path display="inline" fill="#4A3A37" d="M367.6,124.6c0.1,0.1,0.2,0.2,0.3,0.2c-0.3,0.1-0.5,0.4-0.7,0   C367.3,124.8,367.5,124.7,367.6,124.6z" />
	<path display="inline" fill="#0D0C0E" d="M425.4,14.7c29.4-38.9,44.9,50.7,9,52.3c0-0.2,0-0.5,0-0.7   C466.1,63.8,457.6-16.9,425.4,14.7C425.5,14.8,425.4,14.7,425.4,14.7z" />
	<path display="inline" fill="#0B0A0B" d="M434.3,46.1c-8.2,0.3-8.8-10-5.9-15.6c0.4,0.4,0.8,0.7,1.1,0.9c1-1.1,2-2.1,3-3.2   c1.4,0,2.8,0,4.1,0c4.9,4,3.5,11.8-0.8,15.7c-1.4,0-2.7,0-3.8,0c-3.2-2.2-3.2-5.5-4.1-8.5c-0.5,3.6,0.4,6.7,3,9.1   c1.3,0.1,2.2,0.2,3.2,0.3C434.2,45.3,434.3,45.7,434.3,46.1z M434,29c-5.6,1.9-5.8,15.6,1.4,12.8C439.2,38.7,439.6,30.6,434,29z" />
	<path display="inline" fill="#292E33" d="M434.3,46.1c-0.1-0.4-0.1-0.7-0.2-1.3c-1-0.1-1.9-0.2-3.2-0.3c-2.6-2.3-3.5-5.4-3-9.1   c1,2.9,0.9,6.3,4.1,8.5c1.1,0,2.5,0,3.8,0l0,0c0,0.5,0,1,0,1.5C435.4,45.6,434.9,45.8,434.3,46.1z" />
	<path display="inline" fill="#29282E" d="M436.6,28.2c-1.3,0-2.7,0-4.1,0c-1,1.1-2,2.2-3,3.2c-0.3-0.2-0.7-0.6-1.1-0.9   c1.1-1.3,2.2-2.6,3.3-3.9c0.8,0.3,1.3,0.5,2,0.8c0.2-0.4,0.4-0.9,0.7-1.5C435.2,26.7,435.9,27.4,436.6,28.2z" />
	<path display="inline" fill="#1D1E23" d="M419.1,38.1c0.3,1.4,1,4.5-0.8,4.7C417.6,39.4,417.7,38.9,419.1,38.1z" />
	<path display="inline" fill="#1B191B" d="M434.4,66.3c0,0.2,0,0.5,0,0.7c-2.3-0.7-5.2-0.2-6.5-2.9   C430.3,64.9,432.2,65.4,434.4,66.3z" />
	<path display="inline" fill="#0D0C0E" d="M423.2,19.2c0-1.9,0.5-3.5,2.2-4.5l0,0C425.2,16.5,424.3,17.9,423.2,19.2L423.2,19.2z" />
	<path display="inline" fill="#0D0C0E" d="M423.2,19.2c0.1,1.5-0.2,2.8-1.5,3.7l0,0C421.7,21.5,421.8,20.1,423.2,19.2L423.2,19.2z" />
	<path display="inline" fill="#0D0C0E" d="M421.7,22.9c0.2,1.3-0.3,2.4-1.2,3.6C420,24.9,420.6,23.8,421.7,22.9L421.7,22.9z" />
	<path display="inline" fill="#0B0A0B" d="M435.9,45.3c0-0.5,0-1,0-1.5c0.4,0.1,0.8,0.1,1.6,0.3C436.8,44.7,436.3,45,435.9,45.3z" />
	<path display="inline" fill="#010000" d="M382.1,52.1c0.1-0.2,0.2-0.3,0.3-0.5C382.3,51.7,382.2,51.9,382.1,52.1   C382.1,52.1,382.1,52.1,382.1,52.1z" />
	<path display="inline" fill="#221D1B" d="M492.6,79.6c4.1,0.8,7.8,1.1,11.9,2.6c-4.4,2.1-9.7,1.2-13.8-0.6   C490.7,80.2,491.7,79.9,492.6,79.6z" />
	<path display="inline" fill="#231C1B" d="M453.7,96.5c0.6,2.2-0.6,4-2.7,5.6C451.4,99.6,451.5,97.6,453.7,96.5z" />
	<path display="inline" fill="#171211" d="M450.1,105c0.1,2.4-0.9,3.3-1.9,4.5C447.6,107.5,448.3,106.4,450.1,105z" />
	<path display="inline" fill="#4F413F" d="M488,76.3c1.6,0.5,2.4,1.1,2.9,2.5C489,79,489.2,77.7,488,76.3z" />
	<path display="inline" fill="#130D0C" d="M452.3,115.8c6.8-1.8,13.9-4.3,20.6-5.3C470.4,113.5,454.2,120.3,452.3,115.8z" />
	<path display="inline" fill="#332D29" d="M481.9,106.4c-2.2,2.6-4.3,3.4-7.5,2.8C476.6,107,479,107,481.9,106.4z" />
	<path display="inline" fill="#544C47" d="M509,82.4c-0.5,1.3-1.4,1.2-2.6,0.8C507.2,82.3,507.9,81.8,509,82.4z" />
	<path display="inline" fill="#763935" d="M510.1,82.3c0.5-1.1,1.4-1.4,2.7-0.8C512,82.6,511.2,82.8,510.1,82.3z" />
	<path display="inline" fill="#5E4641" d="M486.6,102.3c-0.3,1.5-0.7,2.2-2.2,2C485.2,103,485.2,102.9,486.6,102.3z" />
	<path display="inline" fill="#4D3935" d="M450.1,115.7c-0.4,0.8-0.7,1.5-1.7,1.2C448.7,115.7,448.7,115.7,450.1,115.7z" />
	<path display="inline" fill="#694F49" d="M492,99.2c-1.3-0.2-0.7-1.4,0.2-1.5C493,98.1,492.2,98.7,492,99.2z" />
	<path display="inline" fill="#7A6058" d="M488.3,101.4c-0.3-1.1,0.2-1.4,0.8-1.4C490,100.3,489.2,101.4,488.3,101.4z" />
	<path display="inline" fill="#90756D" d="M494.8,94.6c-1-0.4-0.4-1.5,0.4-1.3C495.8,93.8,495.1,94.3,494.8,94.6z" />
	<path display="inline" fill="#2F2322" d="M411.6,126.2c-3.1,2-3.1,2-5.2,5.6C402.7,130.6,409,125.1,411.6,126.2z" />
	<path display="inline" fill="#382D2B" d="M395.4,128.4c-1.7-1.7-3.2-3.1-4.8-4.5C392.9,123.1,395.5,125.9,395.4,128.4z" />
	<path display="inline" fill="#2D201E" d="M398.4,122.2c-2,1.6-2.9-1.7-1.3-3C398.1,120,398.5,121,398.4,122.2z" />
	<path display="inline" fill="#3F3A37" d="M400.1,131.1c-1.7-0.4-2.5-1.2-3-2.3C398.7,127.9,399,128.1,400.1,131.1z" />
	<path display="inline" fill="#534D4A" d="M405.4,107.5c0.4,0.2,0.8,0.4,1.3,0.6c0,0,0,0,0,0c-0.4,0.8-1.1,1.2-2,1.4   c-0.1-0.4-0.1-0.8-0.2-1.2C404.8,107.9,405.1,107.7,405.4,107.5C405.4,107.4,405.4,107.5,405.4,107.5z" />
	<path display="inline" fill="#A58D86" d="M414.6,125.7c0.5-0.9,2.3-0.2,1.6,0.7C415.5,126.4,414.7,126.5,414.6,125.7z" />
	<path display="inline" fill="#CEB1A7" d="M396.4,134.4c-0.6-0.4-1-0.8-1.5-1.2C396.4,132.9,396.4,132.9,396.4,134.4z" />
	<path display="inline" fill="#E5C5B6" d="M406.2,108.8c0.2-0.3,0.4-0.5,0.5-0.8C406.6,108.3,406.4,108.5,406.2,108.8z" />
	<path display="inline" fill="#E5C5B6" d="M405.4,107.4c-0.3,0.2-0.5,0.5-0.8,0.7C404.8,107.9,405.1,107.7,405.4,107.4z" />
	<path display="inline" fill="#7C4F4A" d="M409,107.4c-0.2-0.1-0.4-0.2-0.5-0.3c0.1-0.1,0.2-0.2,0.3-0.3   C408.9,107,409,107.1,409,107.4C409,107.3,409,107.4,409,107.4z" />
	<path display="inline" fill="#0D0C0E" d="M525.5,49.8c-3.3,4.8-6.2,11.3-11.9,13.4c0-0.2,0-0.5,0-0.7c19.5-10.2,21-68.6-9.7-49.3   c21.5-21.8,30.2,19.5,22.4,35.1c0,0,0,0,0,0C525.5,48.6,525.5,49.2,525.5,49.8z" />
	<path display="inline" fill="#1A181C" d="M509.8,64.8c-2.2,1.2-6.5,1.3-7.2-1.2c2.1,0.9,4.2,1.8,6.4,0.5   C509.3,64.3,509.6,64.5,509.8,64.8z" />
	<path display="inline" fill="#130F11" d="M509.8,64.8c-0.3-0.2-0.5-0.5-0.8-0.7c1.5-0.5,3-1,4.5-1.5c0,0.2,0,0.5,0,0.7   C512.5,64.3,511.1,64.5,509.8,64.8z" />
	<polygon display="inline" fill="#1A181C" points="501.4,63.6 501.1,63.7 501.2,63.5  " />
	<path display="inline" fill="#0D0C0E" d="M503.1,13.2c0.3,0,0.5,0,0.8,0c-0.1,0.2-0.2,0.4-0.4,0.6   C503.3,13.6,503.2,13.4,503.1,13.2z" />
	<path display="inline" fill="#4F5B57" d="M540.4,38.1c0.3-0.5,0.6-1.1,0.9-1.6c0.3,0.1,0.6,0.1,1,0.2   C542.3,38,541.1,37.7,540.4,38.1z" />
	<path display="inline" fill="#333741" d="M506.8,30.4c7.7-3.6,6,11.3,0,11.8c-4.4-1.6-1.1-6.2,0-8.9c0.5,0,1,0,1.5,0   c0.8,2-0.6,3.8-1.1,5.6c2.6,0.2,3.1-3.3,3.3-5.3C510.6,31.9,508,31.5,506.8,30.4z" />
	<path display="inline" fill="#232429" d="M506.8,30.4c0.7,0.5,1.5,1,2.3,1.4c-1.1,0.2-3.7-0.5-2.3,1.5c-0.8,0.9-0.3,2.3-1.5,3   c-0.2-0.8-0.5-1.6-0.7-2.7C505.1,32.6,505.2,31,506.8,30.4z" />
	<path display="inline" fill="#363944" d="M525.5,49.8c0-0.6,0-1.2,0.7-1.5C526.2,49,526.2,49.6,525.5,49.8z" />
	<path display="inline" fill="#6F6666" d="M468.8,25.2c-0.9,0.9-1,0.9-1.7,0C468,24.2,468,24.2,468.8,25.2z" />
	<path display="inline" fill="#110F10" d="M462.1,50.6c0.2-0.3,0.4-0.5,0.7-0.8C462.5,50.1,462.3,50.4,462.1,50.6z" />
	<path display="inline" fill="#D9C2B8" d="M473.9,40.8c0,0-0.2,0.1-0.2,0.1c-1.5-0.3-1.2,1.2-1.3,2.1c-2.2,0.4-0.8-2.2-2.2-2.9   c-1.8-3.3-1.2-7.5-3.3-10.5c-1.1,4.3,1.6,8.5,1.1,12.9c0,0,0-0.1,0-0.1c-0.6,0-0.8,0.3-0.7,0.9c-0.8-0.7-1.2-1.9-2.4-1.7   c0,0,0,0,0,0c1.5-5.1-0.2-9.7-0.4-14.5c0.7,0.3,1.3,0.6,2,0.9c1.2-0.5,2.4-0.9,3.8-1.5c1,1,1.4,2.2,1.3,3.4   c-0.5,3.9,1.7,6.8,2.9,10.2C474.4,40.4,474.2,40.6,473.9,40.8z" />
	<path display="inline" fill="#1B1818" d="M465.2,39.3c-0.1,0.4-0.2,0.9-0.3,1.3c-0.4,0.3-0.5,0.7,0.1,1l0,0   c0.1,0.4,0.4,1.2,0.2,1.3c-1.5,1.1-1.2,2.4-0.9,3.9c-1.6-0.3-0.1-2.3-1.5-2.9c1.3-4.9,0.4-10,0.7-15c0.3-0.3,0.5-0.6,0.8-0.9   C465.4,31.7,465.2,35.5,465.2,39.3z" />
	<path display="inline" fill="#28211F" d="M468.1,39.8c-0.3-3.4-2.1-6.8-1.1-10.2c1.8,3.9,3.1,9,3.2,13.4c-0.2,0.1-0.4,0.2-0.6,0.2   C468.5,42.4,468.4,41.1,468.1,39.8z" />
	<path display="inline" fill="#2F333D" d="M473.3,33.8c2.4-1.5,4.9,2.9,2.6,4.6C474.9,36.9,473.6,35.7,473.3,33.8z" />
	<path display="inline" fill="#DEBDAF" d="M464.3,46.8c-0.3-1.4-0.6-2.8,0.9-3.9c0.2-0.1-0.1-0.8-0.2-1.3c1.2-0.2,1.6,1,2.4,1.7   C466.6,44.6,465.9,46.1,464.3,46.8z" />
	<path display="inline" fill="#B49D90" d="M469.6,43.3c0.2-0.1,0.4-0.1,0.6-0.2c0.3,0.3,0.6,0.6,1,0.9c-0.8,1-1.4,2.1-3.4,2.2   C468.5,45,469.1,44.1,469.6,43.3z" />
	<path display="inline" fill="#DDBAAC" d="M471.2,44c-0.3-0.3-0.6-0.6-1-0.9c0-1,0.1-2,0.1-2.9c1.4,0.7,0,3.2,2.1,3   C472,43.4,471.6,43.7,471.2,44z" />
	<path display="inline" fill="#110F10" d="M463.5,26.7c-0.9-0.5-0.7-1.4-0.7-2.3C463.8,25,463.4,25.9,463.5,26.7z" />
	<path display="inline" fill="#DEBDAF" d="M468.1,39.8c0.2,0.8,0.4,1.7,0.6,2.5c-0.2,0.1-0.4,0.2-0.6,0.2   C468.1,41.6,468.1,40.7,468.1,39.8z" />
	<path display="inline" fill="#DDBAAC" d="M472.5,43.1c0.1-0.8-0.4-1.9,1-2.1C473.3,41.8,473.2,42.6,472.5,43.1z" />
	<path display="inline" fill="#110F10" d="M459.8,52.8c0-0.6,0-1.2,0.7-1.6C460.5,51.9,460.6,52.5,459.8,52.8z" />
	<path display="inline" fill="#DEBDAF" d="M467.4,43.3c-0.1-0.6,0.2-0.8,0.8-0.8C467.9,42.7,467.6,43,467.4,43.3z" />
	<path display="inline" fill="#DDBAAC" d="M473.9,40.8c0.2-0.2,0.5-0.5,0.7-0.7C474.8,40.7,474.5,40.9,473.9,40.8z" />
	<path display="inline" fill="#262227" d="M375.5,166.1c-0.7-0.9-2.3-1-2.2-2.8c0.5,0,0.9,0,1.3,0.1c0.7,0.7,1.5,1.5,2.5,2.5   C376.3,166,375.9,166.1,375.5,166.1z" />
	<path display="inline" fill="#443138" d="M378.5,167c0.3-0.4,0.7-0.9,1.1-1.4c0.8,0.3,1.4,0.6,2.1,0.9   C381.1,167.7,379.5,166.8,378.5,167L378.5,167z" />
	<path display="inline" fill="#EECABA" d="M353.9,173.7c0-0.5-0.1-1-0.1-1.5c0.2,0,0.5,0,0.7,0C354.5,172.8,354.5,173.4,353.9,173.7   z" />
	<path display="inline" fill="#EECABA" d="M354.5,172.2c0.3-0.2,0.5-0.4,0.8-0.6C355,171.8,354.7,172,354.5,172.2z" />
	<path display="inline" fill="#353842" d="M434,29c5.6,1.7,5.2,9.7,1.4,12.8C428.2,44.5,428.4,30.9,434,29z M432.6,31.4   c-0.9,1-1.8,2.6-0.9,3.8c0.7-0.8,0.3-2.2,2.1-2.2c0.2,0.3,0.6,0.7,0.9,1.2c-0.2,1.7-0.4,3.3-0.7,5.5   C437.3,37,437.9,30.3,432.6,31.4z" />
	<path display="inline" fill="#0A0A0C" d="M506.8,33.4c-1.4-2,1.2-1.4,2.3-1.5c2.9,1.1,1,7.4-1.9,7.2   C508,37.9,509.7,30.9,506.8,33.4L506.8,33.4z" />
	<path display="inline" fill="#232429" d="M506.8,33.4c0.5-0.9,1-0.9,1.5,0C507.8,33.4,507.3,33.4,506.8,33.4z" />
	<path display="inline" fill="#DEBDAF" d="M465.2,39.3c0-2.5,0-4.9-0.1-7.4C466,34.1,466,36.8,465.2,39.3z" />
	<path display="inline" fill="#DEBDAF" d="M465,41.6c-0.6-0.3-0.4-0.6-0.1-1C464.9,41,465,41.3,465,41.6z" />
	<path display="inline" fill="#0B0B0C" d="M432.6,31.4c5.3-1.1,4.7,5.6,1.4,8.3c0.3-2.2,0.5-3.9,0.7-5.5c-0.4-0.5-0.7-1-0.9-1.2   c-1.8,0.1-1.4,1.5-2.1,2.2C430.9,34,431.7,32.4,432.6,31.4z" />
</g>
</svg>