<?xml version='1.0' encoding='utf-8'?>
<svg xmlns="http://www.w3.org/2000/svg" version="1.2" baseProfile="tiny" id="Layer_2_1_" x="0px" y="0px" viewBox="0 0 900 600" overflow="visible" xml:space="preserve">
<g id="b">
	<path display="inline" d="M164,183.7c0.1,0.7,0.2,1.4,0.3,1.8c14.3,10.4,25.4,22.1,33.1,37.8c18.1,19.6,39.7,39.8,44.3,67.2   c2.8,3.1,6.9,4.3,8.5,8.1c-0.6,0.6-1.2,1.2-1.9,1.8c-44-37.2-89.6-2.8-127,26.6c-21.1,16.8-48.4,17.6-72.8,26   c-0.6-0.6-1.1-1.1-1.7-1.7c19.4-12.1,45.8-8,64.3-22.7c0.4-6.7,3.7-12.6,3.7-19.2c-19.1-4.7-38.3-5.5-57.7-7.9   c-1.5-2.5-3.8-0.6-5.8-1.3c1.1-0.5,2.2-1.1,3.3-1.6c19.5,3.2,40.2,2.1,60,6.7c2.2-8.6,6.1-15.8,16.1-10.5   c-2.5,5.9,2.4,11.2,7.8,13.4c27.4-18.4,64.9-40.2,97.2-20.9c-5.7-31.7-35.6-54.1-57.4-76.1c0.6-0.6,1.1-1.1,1.7-1.7   c2.4,1.5,4.8,3,7.2,4.5c0.2,0.4,0.3,0.7,0.5,1.1c0.2-0.2,0.4-0.4,0.6-0.6c-0.3-0.2-0.7-0.3-1-0.5c-4.9-9.4-14.8-16.4-23.3-22.7   c-1.2,6.2,0.4,12.4-1.2,18.5c-19.1,4.9-53-34.3-81.7-31.7c-22.6,35.1-51.8,68.8-50.4,113.3c-21,23.2-19.6,56.5-23.7,85.9   c-7.2,20.4-3.9,49.1,13.5,63.5c-2.1,0.9-4.7,2.8-6.3,0.1c-24-30.8-10.3-70.1-5.8-104.9c-1.1-21.5,15.5-36.9,19.3-56.2   c-2.5-50.6,48.3-80.9,58.7-127.1C97,111.2,58.6,73.8,71.2,33.1C82,9.5,111.6-5.5,136.7,2c12.5-3.1,25.9,4.9,35.9,12.1   c0.1,2.2,0.3,4.3,0.4,6.6c20.8,12.8,29.1,40.1,26.2,62.7c-0.6,0.7-1.2,1.3-1.8,2c-1.2-2.1-2.5-4.3-3.7-6.4c-1.9,1.5,0.4,5-2.6,5.8   c-1.8-0.9-3.5-1.7-5.2-2.6c0-0.4,0-0.9,0-1.3c2.4,0.5,3.6-1.1,1.4-2.9c0-0.4,0.1-0.7,0.1-1.1c2.5-0.8,4.4-2.3,6-4.4   c0.9,0.8,1.6,1.4,2.5,2.2c0-2,0-3.3,0-4.9c-6.1-3.3-12.3-3-18.6-3.1c2.7-7,13-0.9,17.4-3.3c-4.1-16.3-12.3-42.1-33.1-39.5   c-3,2.4-5.6,4.5-7.3,5.8c-2.2,8.9,7,10.1,5.8,20.1c-1.2,6,1.1,13.7-6,16.7c-5.8,5.8-10.8,12.8-20.5,12.6c-5-5.9-13.5-7-20.6-3.4   c-6.2,4.5-2,13.5-3.2,19.9c-2.7,2-4.2,4.4-5.8,7c0.4,1.7,0.8,3,1.1,4.5c-2.4,1.9-4.4,3.5-7.3,4.5c-0.6-0.9-1.2-1.7-2.1-2.9   c-1,1.7-3,2-3,4c1,0.2,1.7,0.3,2.4,0.5c0.5,0.9,1,1.8,1.4,2.7c-3.9,2.8-3.7,9.1-4.4,13.7c1.7,15.8-4.6,30.5-7.4,45.8   c25.2,2,46,17.7,67.4,29.7c2.5,1.2,4.9,2.7,7.8,0.5c0.4-8.2,0.8-16.6,1.2-25.1c0.5-0.6,1-1.1,1.4-1.7   C164.6,180,163.5,182.1,164,183.7z M125.9,295.9c-2.6,1.4-1.4,3.3-0.9,6.7C125.9,299.6,129.5,296.3,125.9,295.9z M120.1,305.1   c-1,7.6-1.9,12.7-3.8,20.6c5.1-4.8,9.9-6.4,13.6-11.3C126.5,311.2,123.4,308.2,120.1,305.1z" />
	<path display="inline" fill="#020102" d="M542.4,559c-52.9-38.7-121-4.3-179.7,1.6c2.9,1.8,4.9,3.1,6.8,4.3   c-15.9,4.6-40.3,1.2-57.7,3.1c-20.1,13.7-38,32.3-63.8,32c-104.8-2.7-108.8-44.6-123.7-134.4c0.8-1.5-0.8-3.7,1.7-4.6   c6.6,15.2,6.3,32.4,12.2,47.9c23.3,7.1,43.4-9.2,59.3-24.4c2.3-3.1,3.7-8,8.6-7.6c0.6,0.6,1.2,1.1,1.8,1.7   c-7.7,6.3-5.8,17.7-10.4,26.2c-0.8-0.7-1.6-1.3-2.6-2.2c-0.4,0.6-1,1.4-1.6,2.3c-0.4,0.1-0.8,0.2-1.2,0.2c-0.5,0.5-1.1,0.9-1.6,1.4   l0,0c-0.5,0.5-1,0.9-1.5,1.4l0,0c-13.4,12.4-29.4,24-48.3,16.7c2.9,60.2,81.7,82.2,130.4,65.7c62.4-28.4,88.6-96.8,103.4-159   c-22.7-21.8-44.1-45.5-62.7-71c0.6-0.6,1.1-1.1,1.7-1.7c18.9,22.1,41.8,46.5,59.9,65.9c1.9,2.4,3.9,4.8,5.8,7.2   c0.6,6-2.6,11.2-3.8,17.3c31,3.9,60.6,19.5,91.6,7c-11.3-9.9-25.6-17.1-38.1-25.8c0.6-0.5,1.1-1,1.7-1.6c7,3,13.2,7.7,20.2,10.4   l-0.1-0.1c29.3,20.5,58.1,42.6,78.5,73c3.7-2.7,7-5.1,9.3-8.6c0,0,0,0,0,0c5.6-4.4,10.3-9.6,15.1-14.9c7.1,3.3,13.5,7.6,19.9,12   c-0.6,0.5-1.2,1.1-1.8,1.6c-1.7-0.6-3.4-1.3-5.6-2.1c-1.2,8.8-4.6,16-10.5,22.2c-10,0.4-19.2-1.5-27.5-7c-1.2-3.6-5.7,0.1-7.2-3.1   c0.4-0.8,0.7-1.7,1.2-2.6c-2.3-0.2-4.2-0.3-6.6-0.5c1.6-1.2,2.7-2.1,3.8-2.9c-64.3-81.2-43.5-22.1-133.9-51.6   c-0.9,22.7-6.2,44.9-12.2,67c7.2,1.3,22.8-11.2,26-4.4c-7.6,4.6-17.5,10.1-26.7,7.1c-1.7,10.8-10.1,20-10.8,30.5   c62.2-3.1,109.3-31.4,172.4-7.7c-3.6-6.3-8.4-11.1-10.5-17c0.6-0.6,1.1-1.2,1.7-1.8C527.6,532.6,548,557.3,542.4,559z M171.2,509.3   c-1.9,1.3-1.9,1.3-0.1,3.1c0.1,1.4,0.2,2.8,0.2,4.2c-3.1-0.6-2.3-3.8-3.7-5.9c-6,4.1-26.4,0.3-25.5,5.9c-0.9-1.4-1.8-2.9-2.9-4.6   c-1.7,3.5-1.7,3.7,1.4,8.9c0.9,2.5,4.4-0.4,5.1,2.4c7.3,1.8,13.3-3.5,20.7-1.1c1.6-1.9,3.2-3.8,4.8-5.7c1.2,0.1,2.4-0.1,2.8-1.5   c1.4-0.5,1.5-1.7,1.6-2.9c0.9-0.2,1.7-0.4,2.5-0.6c0.9-2.3,1.1-4.2-0.4-6.6c-2.2,2.5-2.2,4.3-1.9,7.3c-0.8-1.3-1.5-2.6-2.5-4.3   C172.5,508.4,171.8,508.8,171.2,509.3z M191.6,496.1c1,0.5,2,1,3.1,1.6c0.9-0.8,1.6-1.4,2.2-1.9c-0.2-1.2-0.3-2.3-0.5-3.5   c1,0.1,1.5,0.2,1.9,0.2c0.7-1.3,1.1-2.6-1.1-3.5C195.2,491.1,191.4,491.9,191.6,496.1c-0.8-0.2-1.7-0.6-2.6-0.9   c-1.9,1.8-4.2,3.5-2.5,6.6c3-0.3,3-0.3,5.8-2.1C192.1,498.4,191.8,497.2,191.6,496.1z M327.6,551.6c-2.8-0.2-3.3,2.5-4.5,4.2   c-2.5,2.1-5.1,4-6.7,7.3c20,1,38.2,0.7,43.8-0.7c-1.5-2.2-3-4.3-4.4-6.2c-3.3,0.5-6.4,0.9-9.5,1.4c0.1-0.5,0.1-1,0.2-1.5   c22,2.8,32.2-83.9,32.4-102.2c-1.5-0.4-3.2-0.9-5.4-1.6c-10.3,21.1-13.9,44.6-23.9,65.8c0.4,1.1,0.7,2,1.1,2.9   c-2.3-0.2-2.7,1.7-3.5,3.1C342.5,534.4,334.5,542.7,327.6,551.6L327.6,551.6z M561.4,504.7c-1.4-4.1,0.7-9.6-4.7-10.1   c-6,7.9-16.2,11.9-22,19.9c6.5,3,12.8,4.1,19.4,3.8C557.5,514,559.8,509.3,561.4,504.7z M180.8,507.6c4.3-2.6,4.3-2.7,2.7-6.5   C180.3,502,179.2,504,180.8,507.6z" />
	<path display="inline" fill="#030202" d="M428.7,294.3c24.1,37.5,58.9,67,76.4,108.8c2.9,1.4,5.5,2.7,8,4c-1,1.1-2.1,1.8-3.7,2   c33.8,21.5,75.6,33.1,112,51.3c4.2,1.9,8,2.8,12.4-0.3c-1.3-0.8-2.5-1.6-3.8-2.3c1-0.4,2-0.8,3-1.2c2.1,0.6,4.2,1.2,6.6,1.9   c10.8-4.6,21.2-20.1,33.8-16c15.4,7.6,29.6,20.6,15.2,36.9c1.4,4.8,8.3-0.2,11.4,3.3c-4.8,0.8-9.5,1.6-15.2,2.6   c-11.6,12.2-22,27.9-34.7,39.8c-9.1,9.5-23.3,13.8-30,25c38-12.9,74.8-28.5,115.3-28.5c3.3-14.7,2.2-29.4,0.7-44.3   c-3.4-0.3-6,0.5-8.5-1.7c-0.7-3.5-6.3-3.5-9-5.5c0.7-0.7,1.3-1.3,2-2c15.9,1.7,32.8,17.4,34,33.5c0.8,10.9-11.2,16.8-16.5,25   c1,2.2,1.4,3.5,1.3,5.7c-0.6,0.6-1.2,1.2-1.8,1.9c-1.1-2.3-2.2-4.7-3.5-7.4c-39.2-1.6-75.9,14.8-112.9,26.1   c-13.1,6.5-20.9,20.5-33.6,28.2c-0.6-0.6-1.3-1.2-1.9-1.8c15.4-11.8,24.8-30.5,40.6-41c20-12.9,34.5-31.7,49-50.2   c-5.1-4.1-10.9-5.3-16.5-8.3c1-0.4,1.9-0.9,2.9-1.3c6.2,1.4,10.5,5.4,17,6.1c12.3-14.6,16.1-25.4-3.5-35.5   c-9.3-8.2-31.6,14.4-41.7,19.5c-45.5-18.6-90.5-39.2-135.6-59c1.3-1.2,2.6-1.8,4.4-2c-19.4-41.8-53.9-71.8-76.2-111.5   C427.5,295.5,428.1,294.9,428.7,294.3z M741.2,518.4c14.3-9,12.8-26.1,0.3-36.4C742.6,495.5,742.5,505,741.2,518.4z" />
	<path display="inline" fill="#090706" d="M428.7,294.3c-0.6,0.6-1.2,1.2-1.8,1.8c-13.4-9.7-25.4-28.6-42-30.7   c-10.2,3.3-22.8-2.1-29,9.6c2.1,0.2,4.1,0.4,6.3,0.7c-1.4,3.2-5.7,3.7-8.3,5.6c-1.4-0.6-2.5-1-3.7-1.5c-15.1,14.4-31,27.1-45.8,42   c27.5,12.5,54.7,24.4,82.7,35.8c1-4.7,1.8-8.9,3.5-13.3c2.8,4.7,1,10.1,1.5,15.6c35.8,16.9,72.8,31.1,108.5,48.3   c-0.6,0.5-1.3,1-1.9,1.5c-79.4-33.2-158.4-70.2-237.5-102.8c6.7,6.5,50.9,24.5,66.3,33.1c-0.5,0.5-1.1,1-1.6,1.5   c-21.8-8.8-41.2-19.4-62.5-29.9c92.4,61.9,195.2,116.9,289.8,177c-0.7,0.6-1.4,1.2-2,1.9c-49.9-28-97.9-61.6-148.2-87.5   c6.7,12.3,16.2,18.7,27.2,25.8c-0.6,0.5-1.1,1-1.7,1.6c-23.8-7.7-23.8-32.1-44.5-40c-3.9,11.9-6.5,22.9-11,34.3   c-0.1-1.2,0-2.5-1.5-3c1-12,8.2-21.5,9.5-33.7c-26.2-13.6-52.8-34.6-78.4-45.3c3.2,5.4,7,10.8,10.5,16c-0.6,0.6-1.1,1.1-1.7,1.7   c-8.3-6.8-9-21.3-19.5-25.2c-3.1,2.9-6.4,6-9.6,9.1c-0.5-0.5-1-1.1-1.5-1.6c1.8-3.8,5.9-6.2,7.4-10.6c-8.6-4.1-15.7-12.1-25-12.8   c-4.1-7.5-6.5-15.2-14.9-18.9c0.6-0.6,1.2-1.2,1.9-1.8c15.8,6.8,31.6,13.6,47.4,20.4C346.4,282.3,374.8,226.2,428.7,294.3z" />
	<path display="inline" fill="#060505" d="M17.3,442.2C106.9,424,120,398.4,176.5,334c-2.9,0.3-3.8,3.4-7.9,3.2   c3.5-3.8,6.7-6.4,9.3-8.7c10,6.5,19.4,11,31.3,9.6c1.5,0.4,3.5-0.7,4.4,1.5c-10.7,5.4-21.9,1.9-31.2-4.7   c-28,24.7-45.8,57.8-76.8,79.1c5.1,9.8,9.2,20.2,13.4,30.5c-0.7,0.7-1.3,1.3-2,2c-6.7-9.2-10.3-19.7-15.2-29.9   c-24,15.4-54,19.9-79.7,27.1C20.4,443.2,18.9,442.7,17.3,442.2z" />
	<path display="inline" fill="#090808" d="M738.2,534.2c0.6-0.6,1.2-1.2,1.8-1.9c1.5,1.5,2.9,3.3,5.4,3.2   c15.5-1.4,30.8,0.1,45.3,5.9c20.2-7.6,14.2-31.6,17.7-48.4c2.2-9-6.8-16.4-3.8-25.4c10.8-25.7,7.5-52.1-5.1-76.5   c0.6-0.6,1.3-1.2,1.9-1.8c15.7,22.4,18,49.7,8.1,74.9c-2.2,27,10.6,46.8-6,75.7c-3.8,1.9-8.1,4.1-12.1,6.1   c-14.4-5.1-28-8.5-43.2-7.7C744.8,538,739.9,537.6,738.2,534.2z" />
	<path display="inline" fill="#070606" d="M720.7,450.6c9.6-7.8,20.9-11.8,29.2-21.6c0.3-11,8.2-21,6.4-32.6   c0.3-7.1-2.1-16.3,3.8-21.5c0,9.8-0.8,19.1-1.1,29.2c3.1,2.4,6.2,3.5,8.3,7.1c-3.1,0.2-5.5,0.3-8,0.4c-0.5,1.3-1,2.3-1.6,3.8   c2.9,0.4,5.4,0.7,8.5,1.1c0.7,6.7-5.9,4.5-9.9,2.9c-0.1,1.2-0.3,2.1-0.4,2.8c2.4,2.8,7,2.1,8.1,6c-2.3,2.9-2.3,2.9-9.5,1   c-0.8,1.1-1.6,2.2-2.6,3.7c3.6,1.7,15.7,8.5,6.5,10.3c-5.1-0.8-7.4-6.3-13.1-4.9c3.5,4.6,14,9.2,8.7,15c-6.3-1.7-8.7-8.9-15.7-10.1   c-5,2.9-10.3,6.2-15.7,9.4C722,451.9,721.4,451.2,720.7,450.6z" />
	<path display="inline" fill="#100B0B" d="M197.4,85.4c0.6-0.7,1.2-1.3,1.8-2c6.4,4.8,9.7,11.9,13.8,17.8c-0.3,5-2.7,7.9-6.2,10.5   c1.6,3.1,3.2,6,5,9.4c-4.4,12,7.2,8.7-7,20.6c4.7,20.6-18.5,22.9-33.3,18.3c-2.5,8.1-4.9,15.9-7.4,23.7c-0.5-1.6,0.6-3.6-1.5-4.7   c0.7-8.2,5.9-14.5,4.3-23.2c49.6,10,23-8.3,42.7-23.7c-1.6-1.8-2.8-3.2-4.1-4.6c-2.3,0.6-4.4,1.1-6.5,1.7c-0.4-0.8-0.8-1.6-1.3-2.6   c2-1.2,3.8-2.3,5.6-3.3c2.9,2.2,3.1,2.1,4-0.7c-1.4,0.3-2.7,0.5-4,0.8c1-1.5,1.9-3.1,2.9-4.6c-1.3-2.8-2.6-5.5-3.8-8.1   c-1.7-0.8-3.2-1.4-4.8-2.1c0-0.6,0-1.1,0-1.7c4.1,0.9,6.9-4.2,11.2-2C210.4,96.8,200.9,91.8,197.4,85.4z M204.7,108.6   c0.4-0.2,0.7-0.3,1.1-0.5c-0.3-0.7-0.9-0.4-1.5-0.3C204.4,108,204.5,108.3,204.7,108.6z" />
	<path display="inline" fill="#18110F" d="M633.3,456.6c-1,0.4-2,0.8-3,1.2c-39.7-15.9-79.7-31.6-118.7-49.2c0.6-0.5,1.1-1,1.7-1.5   C553.4,422.9,593.7,439.3,633.3,456.6z" />
	<path display="inline" fill="#111010" d="M586.3,579.3c0.6,0.6,1.3,1.2,1.9,1.8c-28.9,26.1-39.2,8.5-45.8-22.1   c1.4-0.4,1.5-1.6,1.5-2.8c8.7,10.6,3.8,30.4,20.4,34.3C571.6,587.8,579.6,583.6,586.3,579.3z" />
	<path display="inline" fill="#261E1E" d="M760.1,374.8c-0.9,1-1.7,1.9-2.6,2.9c2.6-29.4,39.9-7.9,44.1,11.6   c-0.6,0.6-1.3,1.2-1.9,1.8c-5.2-10.3-12.4-18.8-22.2-25.4C771.2,367.5,761.5,366.7,760.1,374.8z" />
	<path display="inline" fill="#251614" d="M728.2,475.6c2.4,2.3,5.1,1.4,8.5,1.7c0,1.7,0.1,3.1,0.1,4.5c-0.8-1.1-1.6-2.3-2.2-3.1   c-12-1.3-22.3,4.8-34.1,4c-3.1-3.5-10,1.5-11.4-3.3C702.1,481.4,715.1,476.9,728.2,475.6z" />
	<path display="inline" fill="#313031" d="M116.9,446.5c0.7-0.7,1.3-1.3,2-2c2.3,5.5,4.7,11,7,16.5c-2.4,0.9-0.9,3.2-1.7,4.6   C121.8,459.2,119.4,452.9,116.9,446.5z" />
	<path display="inline" fill="#5C5E5E" d="M715,465.4c-4-3.4-4-4.3-0.1-8.8c0.5,0.5,1.1,1.1,1.6,1.6c-1.4,1.9-1.9,3.8,0,5.6   C716.1,464.3,715.5,464.9,715,465.4z" />
	<path display="inline" fill="#232020" d="M716.5,458.2c-0.5-0.5-1.1-1.1-1.6-1.6c1.6-2.3,2.8-5,5.8-6c0.6,0.6,1.3,1.3,1.9,1.9   C720.6,454.4,718.6,456.3,716.5,458.2z" />
	<path display="inline" fill="#2F2B2B" d="M715,465.4c0.5-0.5,1-1,1.6-1.6c1.5,1.4,3.1,2.8,4.6,4.3c-0.7,0.7-1.3,1.3-2,2   C717.8,468.5,716.4,467,715,465.4z" />
	<path display="inline" fill="#4F4D4D" d="M112.9,450.7c3.1,2.5,3.1,2.5,2.2,5.4C113,455.2,112.4,453.6,112.9,450.7z" />
	<path display="inline" d="M22,443.7c1-2.4,3-1.4,4.8-1.5c-0.1,0.4-0.1,0.8-0.1,1.2C25.1,443.5,23.6,443.6,22,443.7z" />
	<path display="inline" fill="#977264" d="M29.5,441.8c0.5-0.2,0.9-0.5,1.4-0.7C30.4,441.3,29.9,441.6,29.5,441.8z" />
	<path display="inline" fill="#977264" d="M26.7,443.4c0-0.4,0-0.8,0.1-1.2c0.4,0,0.8,0.1,1.2,0.3C27.5,442.8,27.1,443.1,26.7,443.4   z" />
	<path display="inline" fill="#B28C7D" d="M248.4,300.4c5.9,3.3,10.4,7.4,12.2,14.3c-2.5,2.6-5.4,4.6-8.2,6.9   c-3-4.4-6.7-7.6-10.3-11c-1.1,6.3,4.3,8,6.8,12.8c-0.2,0.9-0.5,1.7-0.8,2.8c-11.1-5.8-24.8-3.6-33.6,4.3c-8.1,0.9-28.8-0.8-31.5-8   c0.8-1.5,1.8-3.3,3-5.3c-7.9-3.1-14.8,3.3-18.9,8.9c0.4,1.4,0.8,2.6,1.2,4c-15.8,7-25.2,24.4-29.7,40.4   c-33.7,31.8-67.6,56-115.5,55.3c-0.9-2.3-1.6-4.1,0.3-5.6c9.9,4.4,21-1.8,28-9.1c-4.4,0.1-6.1,2.1-9.3,4.3   c-6.6,3.4-14,1.2-20.9,2.5c-0.8-3.9-3.1-7.3-3.3-11.8c10,1.7,19.9-0.5,27.8-6.7c-3.5-0.6-5-8.3-7.4-4.2c-8.2-1.8-17.4-1.1-24.8-5.3   c0.3-14.7,2.5-27.7,8.8-40.8c4.3,1.4,8.1,2.7,11.4,3.8c10.1-10.9-8.9-27.7,2.9-40.6c3.7-8.6,4.6-17,16.2-11.9   c19.9,4.5,41.9,3.3,62.3,9.1c-0.1,6.6-3.3,12.5-3.7,19.2c-22,18.5-66.5,7.8-77.7,38.5c19.7-26,57.6-17.9,83.1-36.8   C155,301.1,203,261.4,248.4,300.4z M214.1,314.4c2.3,0.4,7.2,3.7,6.3-0.4c-1.7-0.5-3.4-1.1-5.1-1.6   C214.9,313.1,214.6,313.5,214.1,314.4z M233.6,304.5c-0.7,3.4-0.5,3.6,3.3,4.6c0.2,0,0.5-0.6,1.1-1.3   C236.5,306.7,235.1,305.7,233.6,304.5z M221.6,316c2.7,2.2,4.4,2.2,6.6,0.9C226.8,314,224.9,314.9,221.6,316z M72,399.2   c3.5-1.5,3.5-1.5,3-3.6C73.2,395.7,71.9,396.2,72,399.2z M82.8,391.5c-1.1-1.8-4.4-0.4-3.2,1.5C80.9,393,82.4,393.1,82.8,391.5z    M57.1,407.4c-0.4-1.9-1-1.3-2.4-1c0.2,0.6,0.5,1.1,0.7,1.7C56,407.9,56.5,407.7,57.1,407.4z M65.8,402c-0.1-0.3-0.2-0.6-0.4-0.9   c-1.1,0.5-2.8,0.3-1.8,2C64.4,402.8,65.1,402.4,65.8,402z M50.6,388.6c-0.6-0.2-1.2-0.8-1.6-0.1C49.5,389.4,49.9,389.2,50.6,388.6z    M223.3,300.9c-0.7-0.2-1.2-0.8-1.7,0C222.2,301.6,222.6,301.7,223.3,300.9z M214.5,299.4c-0.7-0.2-1.3-0.8-1.7,0   C213.4,300.1,213.8,300.2,214.5,299.4z" />
	<path display="inline" fill="#E0DEE5" d="M71.8,192.3c3.1-4.6,6.1-9.3,9.4-14.2c29-2.5,62.2,36.5,81.7,31.7   c1.6-6.2,0-12.3,1.2-18.5c3.1,1.2,5.1,3.3,7.1,5.3c-13.4,6.3,64.3,55.2,64.6,90.6c-28.3-18.2-57.2-0.6-83.7,11.5   c-18.1-7.5-31.4-23.9-37.4,6.5c-19.3-5-40.1-1.8-58.6-8.9c-1.3-5.6,1.8-11.6-3.1-16C49.3,223.5,67.7,238.3,71.8,192.3z    M140.8,236.9c2.5,3.9,4.1,6.5,6,9.4C148.1,241.6,147.1,239.8,140.8,236.9z M121.1,218.2c-0.8-3.3-0.8-3.3-3.8-3.5   C117.2,217.4,119.5,217,121.1,218.2z M130.5,241.7c-0.9,2.7-0.3,4.6,2.6,6.3C133.9,244.9,133.3,243,130.5,241.7z M132.6,250.9   c-1.7,2-1.6,3.5,0.1,5.5C133.7,254,133.3,253.4,132.6,250.9z M141.9,230.6c1.5,0.5,2,0.7,2.6,0.9c0-0.4,0-0.8,0.1-1.2   C144,230.4,143.4,230.5,141.9,230.6z M126.9,223c-0.2,0-0.4,0-0.7,0c0,0.7,0,1.3,0,2c0.2,0,0.4,0,0.7,0   C126.9,224.3,126.9,223.7,126.9,223z" />
	<path display="inline" fill="#B28C7D" d="M206.1,134.9c-8.6,5.6-0.4,19.2-11.4,22.2c-26.4,0.4-56.3-19.9-59.6-47.1   c-5.7,1.3-10.7,1-13.3-5.5c9.5-2.6,16-3.7,6.9-13.6c4.2-6.3-0.1-13.3-7.2-14.7c12.1-5.9,11,13.6,30-7.2c8.9-6.6,7.7-8.9,8.6-19.3   c1.2-10-8-11.1-5.8-20.1c1.6-1.3,4.3-3.4,7.3-5.8c20.8-2.6,29,23.2,33.1,39.5c-4.5,2.4-14.8-3.7-17.4,3.3   c6.2,0.1,12.4-0.2,18.6,3.1c0,1.6,0,2.9,0,4.9c-1-0.8-1.6-1.4-2.5-2.2c-1.7,5.4-13.7,3.5-11.5,9.1c3.5,0.2,6.2,1.6,9.3,3.2   c3-0.8,0.8-4.2,2.6-5.8c3.1,9.6,16.1,15.5,15.1,25.8c-4.3-2.2-7,3-11.2,2c0-2.2,0-4.5,0-6.7c-2.5,0-2.9,1.8-3.1,3.7   c-0.9,4.8,4.5,5,7.8,6.8c1.2,2.5,2.5,5.2,3.8,8.1c-1,1.5-1.9,3.1-2.9,4.6c0,0,0-0.1,0-0.1c-1.8,1.1-3.6,2.1-5.6,3.3   C199.2,130.6,203.2,132.2,206.1,134.9z" />
	<path display="inline" fill="#977264" d="M41,395.2c1.2,2.1,2.2,2.8,4.6,4.2c-7.9,6.2-17.8,8.5-27.8,6.7c0.1,4.5,2.5,7.9,3.3,11.8   c1-0.2,1.9-0.3,2.9-0.5c-0.2,0.9-0.4,1.8-0.6,2.7c-2,1.6-1.2,3.3-0.3,5.6c48,0.8,81.8-23.4,115.5-55.3c4.5-16,13.9-33.3,29.7-40.4   c-0.4-1.4-0.8-2.5-1.2-4c4.1-5.6,11-12,18.9-8.9c-1.1,2-2.1,3.8-3,5.3c2.7,7.2,23.4,8.9,31.5,8c2.7-2.7,6.3-4.9,10.8-5.6l0.2,0.1   c-6.1,7.7,2.1,6.2-0.8,12.7c-1.1,0.5-2.4,1.1-3.5,1.6c-2.1-1.1-4.6-1-5.4-3.4c0.6-1.8,3.5-1.8,3.3-4.4c-13.2,11.3-27.6,6.2-41.1-3   c-2.6,2.3-5.8,4.8-9.3,8.7c4.1,0.2,5-2.9,7.9-3.2c-2.4,6.9-8.9,10-14,14.5c-2.7-1.9-5.7-2.1-7.3,1.3c1.1,1.2,1.9,2,2.7,2.9   c-25.4,36-57.7,69.1-102.3,79c-13.4,1.2-34,18-42.5,1.4c-9.2-17.7-13.3-37.1-6-55.9c4-29.3,2.7-62.7,23.7-85.9   c3.6,3.5,8.8,4.9,13.2,7.4c-5,2.6-4.7,9.4-7.5,13.6c-11.7,12.9,7.3,29.6-2.9,40.6c-3.3-1.1-7.1-2.4-11.4-3.8   c-6.4,13.1-8.6,26.1-8.8,40.8C21.6,394.1,31.9,394.3,41,395.2z M17.3,339.9c-0.2-5.3,2.3-11.8-1.7-14.9   C14.4,330.4,12.9,336.1,17.3,339.9z M16.7,401.5c-3.4-2.3-6-4.1-8.8-6C5.9,400.3,12.1,404.5,16.7,401.5z M21.2,338.2   c-0.8,3.3-1.1,5.7,0.3,8.9C22.4,343.8,22.5,341.4,21.2,338.2z M162.4,342c1.3,3.2,4.5,1.4,3.9-1.9   C164.9,340.8,163.7,341.4,162.4,342z M26.3,400.8c-2.1-1.8-3.6-1.8-6.6,0.4C22.9,401.1,24.4,401,26.3,400.8z M148.4,357.8   c1.9,0.4,3.5,0.4,2.6-1.8C149.7,356,149.1,356.9,148.4,357.8z" />
	<path display="inline" fill="#B28C7D" d="M161.1,180.7c-0.4,8.4-0.8,16.9-1.2,25.1c-2.8,2.2-5.3,0.7-7.8-0.5   c-19.7-11.4-38.7-24.5-61.4-29.2c18.2-12,16.6-36.6,23.8-53.8c4.2,3.5,9.1,5.9,14.9,2.7c3.2,2.9,2.5,7.1,3.8,10.9   c0.5,5.1,4.4,8.5,5.4,13.2C141.3,163.2,154.2,170,161.1,180.7z M131.5,143c-1.7-5.8-1.7-5.9-5.5-5.8   C127.8,139.1,129.3,140.6,131.5,143z M132.4,144.8c-1.3,4,0.3,6.7,3.4,5.7C134.8,148.9,133.9,147.4,132.4,144.8z M146.4,172.9   c-1.9,1.7-1,3.5,1,1.9C147.1,174.3,146.8,173.8,146.4,172.9z M138.6,157.3c-0.4,0.4-0.7,0.7-1.1,1.1c0.8,0.8,0.8,2.4,3.3,2.1   C139.9,159.2,139.2,158.2,138.6,157.3z M125.9,130.7c-0.9-0.7-1.4-1.7-2.4-0.6C124.4,130.9,124.6,132.2,125.9,130.7z M143.1,166.5   c-0.3-0.5-0.5-0.5-0.8-0.1C142.5,167,142.7,167,143.1,166.5z" />
	<path display="inline" fill="#977264" d="M161.1,180.7c-6.9-10.6-19.8-17.5-22.5-31.7c-1-4.7-4.9-8.1-5.4-13.2   c-1.2-3.8-0.6-8-3.8-10.9c-5.8,3.2-10.7,0.9-14.9-2.7c-7.2,17.3-5.6,41.9-23.8,53.8c-1.9-0.2-3.8-0.3-6-0.5   c2.8-15.3,9-30.1,7.4-45.8c0.7-4.7,0.5-10.9,4.4-13.7c4.1,0.8,7-1.5,4.6-5.7c1.3-1,2.6-2,4.1-3.1c-0.4-1.5-0.7-2.8-1.1-4.5   c0.9-1.4,1.9-2.9,2.9-4.5c9.8,5.1,14.1,15.9,25.9,17.3c2.3,8.3,4.8,23.9,16.7,21c10.8,12.7,28.4,21.6,45.2,20.6   c-8.8,3.3-18.7,0.6-27.9-1.3C167.6,164.7,164.3,173,161.1,180.7z M96.9,122.8c3.1-0.6,2.2-3.4,0-4.7   C96.9,119.7,96.9,121.1,96.9,122.8z" />
	<path display="inline" fill="#D4D1DB" d="M71.8,192.3c-4.1,45.8-22.5,31.4-18.8,88.1c4.9,4.3,1.7,10.4,3.1,16   c1.7,0.7,3.6,1.4,5.5,2.2c-10.9,1.6-20.8-5-30.5-8.8C30.3,249.8,51.3,223.5,71.8,192.3z M42.6,255.2c-3.7,7.3-3.9,9.8-1.8,14.8   C42.5,266.8,42.9,263.7,42.6,255.2z M43.1,274.1c-0.8,2.1-1.4,4,1.6,5.8C44.3,277.1,44.6,276.1,43.1,274.1z M46.6,285.8   c0.2-2,1-4.7-1.4-4.2C43.8,283.1,45.2,284.2,46.6,285.8z" />
	<path display="inline" fill="#140D0C" d="M149.5,136.5c-11.9,3-14.4-12.6-16.7-21c-11.8-1.5-16.1-12.3-25.9-17.3   c0.9-0.7,1.7-1.5,2.9-2.5c0-3.3,0-6.8,0-10.3c0.4,0,1.1,0.1,1.4,0c-0.2,1.2-0.1,5.3,1.6,2.8c0.4,1,0.9,2.1,1.3,3.1   c-0.6,0-1.2,0.1-1.8,0.1c-4.1,6.5,2.4,8.3,6.7,11.7c1.7-1.5,3.2-2.8,4.8-4.1c-1-2.3-3-3-5.2-3.4c-0.5-0.5-1-1-1.5-1.5   c-0.2-2.3-0.5-4.6-1-6.9c1.8-2.8,4.4-4,8-4.4c0,3.2-2.4,3.5-4.7,4.7c0.2,2,0.4,3.9,0.6,5.1c2.4,1.7,4.2,3,6.1,4.4   c0,0.8,0,1.7,0,2.9c1.6-0.1,2.6-0.2,3.6-0.2c-1.7-8-7.4-3.9-1.6-15c-2.8-4.1-9.3-8.1-14-5.1c-0.1-1,0-2.1,0-3.1   c9-1.9,20.9,4.7,14.6,14.6c9.1,9.9,2.5,11-6.9,13.6c2.6,6.5,7.6,6.7,13.3,5.5C137.4,120.3,139.2,131.5,149.5,136.5z" />
	<path display="inline" fill="#D3CFD8" d="M117.2,297.5c4.7-21.5,23.5-2.1,34.9,1.3c-4.9,2.7-9.7,5.2-13.5,9.4   c-5.5-2.2-10.3-7.5-7.8-13.4C122.6,291.7,122.9,292.1,117.2,297.5z" />
	<path display="inline" fill="#C9C9D2" d="M120.1,305.1c3.3,3.2,6.4,6.1,9.8,9.4c-3.7,4.9-8.5,6.5-13.6,11.3   C118.2,317.8,119.1,312.7,120.1,305.1z" />
	<path display="inline" fill="#2C211D" d="M48.6,353c-5.8,3.8-10,10.5-15.1,14.1c1.7-6.6,5.7-11.3,13.4-15.8   C47.4,351.9,48,352.5,48.6,353z" />
	<path display="inline" fill="#C4C7CE" d="M169.4,198.2c0.6-0.5,1.1-1,1.7-1.6c3.5,3.3,7,6.5,10.6,9.8c-0.6,0.6-1.3,1.3-1.9,1.9   c-2.4-1.6-4.7-3.3-7.1-4.9C173,200.8,170.6,199.9,169.4,198.2z" />
	<path display="inline" fill="#443431" d="M31,289.8c5.5,2.4,11,4.8,16.5,7.2c-0.7,0.6-1.4,1.2-2.1,1.8c-5.1-1.1-10.6-4.1-14.7-7.4   C30.9,290.8,30.9,290.3,31,289.8z" />
	<path display="inline" fill="#261E1A" d="M101.1,110.3c2.4,4.1-0.5,6.5-4.6,5.7c-0.5-0.9-1-1.8-1.4-2.7   C97,112.1,99,111.1,101.1,110.3z" />
	<path display="inline" fill="#473933" d="M111.2,85.4c-0.4,0-1.1,0-1.4,0c-0.3-3.8-0.4-8.9,4.5-9.9c-0.2,0.9-0.1,1.9-0.1,2.8   C112.3,80.2,112,82.9,111.2,85.4z" />
	<path display="inline" fill="#776C60" d="M114.2,76.4c0-0.3,0.1-0.7,0.1-1c4.1-1.7,9.2-3.1,13.1-0.3   C122.9,75.2,118.9,77.1,114.2,76.4z" />
	<path display="inline" fill="#92979C" d="M179.8,208.3c0.6-0.6,1.3-1.3,1.9-1.9c2.5,2,5,4.1,5.6,7.6l0,0c-2.4-1.5-4.8-3-7.2-4.5   C180,209.1,179.9,208.7,179.8,208.3z" />
	<path display="inline" fill="#2D2223" d="M179.8,208.3c0.1,0.4,0.2,0.8,0.3,1.2c-0.6,0.6-1.1,1.1-1.7,1.7c-2-1.9-3.9-3.8-5.9-5.7   c0.1-0.7,0.2-1.3,0.2-2C175,205.1,177.4,206.7,179.8,208.3z" />
	<path display="inline" fill="#241817" d="M185.8,82.3c-1.3-0.2-2.7-0.4-4-0.6c-2.3-3.6,3.3-3.9,5.5-4.7   C187.5,78.8,185.4,80.2,185.8,82.3z" />
	<path display="inline" fill="#402B2B" d="M45.5,298.7c0.7-0.6,1.4-1.2,2.1-1.8c2.4,0.5,4.7,1.1,7.1,1.6c-1.1,0.5-2.2,1.1-3.3,1.6   C49.4,299.7,47.4,299.2,45.5,298.7z" />
	<path display="inline" fill="#634D43" d="M97.9,111.7c-0.9,0.5-1.9,1.1-2.8,1.6c-0.7-0.1-1.4-0.3-2.4-0.5c0-2.1,2-2.3,3-4   C96.7,110,97.3,110.8,97.9,111.7z" />
	<path display="inline" fill="#402B2B" d="M58.5,299c3.1-0.9,6.1,0.4,9.2,1.1C64.6,300.3,61.4,301.3,58.5,299z" />
	<path display="inline" fill="#5D565B" d="M127,298.4c-0.4,0.9-0.9,1.9-2,4.2c-0.5-3.5-1.8-5.4,0.9-6.7   C126.2,296.7,126.6,297.6,127,298.4z" />
	<path display="inline" fill="#575154" d="M185.8,80.9c0.5-1,1-2,1.4-2.9C189.4,79.8,188.2,81.4,185.8,80.9z" />
	<path display="inline" fill="#402B2B" d="M57.2,301.5c-1.7,0.2-3.3,0.5-4.5-1.1C54.3,300.2,56,299.7,57.2,301.5z" />
	<path display="inline" fill="#A4BCC5" d="M127,298.4c-0.4-0.8-0.7-1.7-1.1-2.5C128.2,295.9,127.3,297.3,127,298.4z" />
	<path display="inline" fill="#707579" d="M187.3,214c0.3,0.2,0.7,0.3,1,0.5c-0.2,0.2-0.4,0.4-0.6,0.6   C187.6,214.7,187.4,214.4,187.3,214L187.3,214z" />
	<path display="inline" fill="#544492" d="M197.4,504.8c1.5-3.9,2.2-8.2,4.4-11.8c0.1,1.9,0.3,3.7,0.4,5.5c1.3,1.2,2.5,2.3,3.8,3.5   c1.3-1.2,2.2-2.1,3.2-3c0,2.1,0,4.3,0,7.8c7.3-10.1,9.5-22.1,16.2-32.7c0.8-0.3,1.6-0.5,3.4-1.1c-6.6,9.4-6,18.5-10.3,27.6   c-2,2.5-2.6,5.5-1,8.2c1.9,0.6,3.9,1.1,6,1.7c6.8-13,6.9-31.2,22.8-37.6c-0.5,11.2-11.3,23.4-7.6,33.4c8.4-0.6,16.6-3.4,24.8-5.1   c14.6-23.7,11.3-56.9,23.7-80.7c0.6,18.3-2.3,36.4-4.4,54.4c21.9-17,16.8-51.4,32-72.3c-0.4,7.1-7,26.3-3.1,30.6   c-4.6,18.8-20.9,32.2-27.8,49.7c-2.9,1.6-3.9,4.3-4.3,7.3c-1.6,0.6-2.9,1.5-2.4,3.8c2-0.7,2.4-2.1,2.4-3.8   c11.7-16.2,24.7-34.2,33.5-52.8c1,1.9,2,0.7,2.6-0.2c4.3-8.8,16.8-13.4,18.1-23.1c0.4,0.1,0.9,0.1,1.3,0.1   c2.9,24.6,1.2,49.7,7.1,73.4c-0.5-24.4-2-49.2-5.8-73.5l0.5,0.1c3.3-3.8,8.6-6.4,9.9-11.4c9.3,9.4,17.6,20,27.7,28.4   c-14.7,62.2-40.9,130.6-103.4,159c-48.7,16.5-127.5-5.5-130.4-65.7c19,7.3,34.9-4.3,48.3-16.7l0,0c0.5-0.5,1-0.9,1.5-1.4l0,0   c0.5-0.5,1.1-0.9,1.6-1.4c0.4,0,0.8-0.1,1.2-0.2c-2,5.5-6,9.8-6.7,15.9c0.6,0.4,1.1,0.9,2.1,1.6   C191.8,516.5,194.7,510.7,197.4,504.8z M197.6,512.4c18.5,28.2,61.3,17.9,73.7-8.5C246.1,529.6,226.6,535.3,197.6,512.4z    M324.1,448.8c-2.1,25.7-1.4,58,4.5,82.7C327.6,503.8,324.4,476.9,324.1,448.8z M297.4,481c-5,19.2-4,42.2-4.3,62.4   C297.6,523.2,296.6,501.4,297.4,481z" />
	<path display="inline" fill="#4ABA79" d="M327.5,339.9c-12.1-6-24.4-11.7-36.4-17.9c0.6-0.5,1.1-1.1,1.7-1.6   c127.8,55.6,256.6,110,383.2,167.7c-51.4,65.6-37.9,47.2-102.8,12.4C487.6,447.4,400.1,397,314.5,343.9   c38.2,10.6,75.4,38.9,114.7,51.2C398.3,370.6,363.7,353.5,327.5,339.9z M599.5,472.7c0.4,1.5,1.7,1.5,2.9,1.5   c2.5,2.3,5.3,3.9,8.8,4.4c0.5,1.5,1.7,1.5,2.9,1.5c3.1,3.3,3.1,3.3,7.2,3.6c-2.3-2.1-4.3-3.6-7.2-3.6c-0.5-1.5-1.7-1.5-2.9-1.5   c-2-3.3-5-4.6-8.8-4.4C602,472.6,600.7,472.7,599.5,472.7c-0.5-1.5-1.7-1.5-2.9-1.5c-12-6.6-25.7-13.6-38.7-18.4   c10.9,7.6,25.3,14.6,38.7,18.4C597,472.8,598.3,472.7,599.5,472.7z M548.4,463.9c-3-5-11-2-14.7-7.2c0.8-0.2,1.6-0.5,2.7-0.8   c-3.4-3.6-7.1-4.4-11-2c-6.2-2.8-12-6.2-20-7.6c31.3,19.7,63.9,42.1,99.4,49.2c1.5-3-0.9-3.6-3.3-4.2   C583.4,483.1,566.3,471.6,548.4,463.9L548.4,463.9z M574.2,468.3c15.3,12.2,36.9,22.9,55.5,25.9   C615.4,479.9,592.6,475.9,574.2,468.3z M522,449c-4.3-4.6-4.3-4.6-5.2-3.1C517.9,447.5,518.9,449.1,522,449z M545.3,446.2   c0.4-0.2,0.7-0.3,1.1-0.5c-0.3-0.7-1-0.4-1.6-0.3C545,445.7,545.1,446,545.3,446.2z" />
	<path display="inline" fill="#6D5CA9" d="M346.5,402.9c-1.3,5-6.6,7.6-9.9,11.4c-4.6-6.9,0.9-11.5,0.7-18.7   c-6.9,13.9-17.4,24.6-25.9,37.6c-3.9-4.1,2.6-23.5,3.1-30.6c-15.2,20.9-10.1,55.3-32,72.3c2.1-18,5-36.1,4.4-54.4   c-12.4,23.8-9.1,57-23.7,80.7c-8.2,1.8-16.4,4.5-24.8,5.1c-3.7-10,7.2-22.2,7.6-33.4c-15.9,6.4-16,24.5-22.8,37.6   c-2.1-0.6-4.1-1.2-6-1.7c-1.5-2.7-1-5.8,1-8.2c4.3-9,3.7-18.2,10.3-27.6c-1.7,0.6-2.5,0.9-3.4,1.1c-0.3-1.1-0.3-2.5-2.4-2.4   c-6.1,9.7-9.6,21.5-17,30.3c-1.3-1.2-2.5-2.2-3.8-3.5c-2.8-12.4,4.3-21.2,14.9-26.6c16.6-14.9,13.5-41.6,26.2-59.6   c15.2-26.1,26.6-56.3,48.8-77.2c9.3,3.3,10.9,15.6,17,22.6C321,373.1,333.3,388.4,346.5,402.9z" />
	<path display="inline" fill="#E0DEE5" d="M166.6,351c5.2-5.3,10.4-10.6,15.7-16.1c9.3,6.6,20.5,10,31.2,4.7   c3.8,1.4,7.6,2.8,12.1,0.9c1-1.4,2.2-3.1,2.8-4.1c3.8-0.4,6.8-0.7,9.8-1c6.7,18.3,6.4,36.5,8.5,56.1   c-10.4,21.6-23.9,44.5-24.7,69.1c-3.2,7.4-10.3,11.4-16.2,16.3c-3.5-0.3-5.1,2.2-6.8,4.6c-0.9,0.2-1.8,0.4-2.3,0.6   c-6.8-22.1-22.5-39.8-32-60c5.5,0.2,11.5,2.9,15.9-1.4c-7.1-10.3-21.8-16.8-20.5-30.7c3.1,0.2,5.7,0.4,8.3,0.6l0,0   c2.2,2.5,17.2,3.5,17.2-2c-8.5-10.5-27.3-9.9-34.9-19.6c1.3-2,2.6-4.1,4-6.1c0.9-0.3,1.8-0.5,2.9-0.8c5.8,5.2,12.6,6.4,20.7,4.8   C178.6,359.2,167.5,358,166.6,351z M230.6,347.7c-0.7,0.4-1.4,0.5-1.5,0.8c-0.8,6.8-6.7,10.5-8.2,16.8   C226.6,362.3,233.2,354.7,230.6,347.7z M201,459.2c6.4,4.2,6.4,4.2,9.4,4.3C207.1,459.1,206.7,458.9,201,459.2z M215.5,378.7   c1.9-2.3,3.5-4.7,1.9-8.4C215.2,373,214.6,375.6,215.5,378.7z M195.4,451.1c2,3.2,2,3.2,7.1,2.6   C200.3,451.7,198.3,450.5,195.4,451.1z M215.8,382.2c-2.1-0.2-2.4,2.5-0.4,2.7C217,384.3,216.3,383.2,215.8,382.2z M187.2,444.4   c0.8,3.5,0.1,3.3,3.9,3.1C189.4,446.2,188.8,445.6,187.2,444.4z" />
	<path display="inline" fill="#D5D2DC" d="M168.4,390.7c-2.6-0.2-5.2-0.4-8.3-0.6c-1.3,13.8,13.4,20.4,20.5,30.7   c-4.4,4.2-10.4,1.5-15.9,1.4c9.5,20.2,25.2,37.9,32,60c0.5-0.1,1.4-0.4,2.3-0.6c-14.3,17.4-37.3,34.3-61,27.3   c-7.1-32.9-16.9-64.8-32.6-94.8c16.7-13.3,33.1-26.8,45.2-44.9c7.6,9.7,26.4,9.1,34.9,19.6C185.7,394.2,170.7,393.2,168.4,390.7   c1.2-0.1,2.8,1.3,3.6-0.7c-0.8-1.3-1.6-2.5-3.5-1.4C168.5,389.3,168.5,390,168.4,390.7z M158.3,382.7c-1.9-3.7-4.1-6.8-8.6-8.2   C147.6,378.3,154.7,385.8,158.3,382.7z M145.9,396.7c1.1,3.5,2.5,5.3,5.6,5.6C150,398.2,150,398.2,145.9,396.7z M158,403.1   c-1.8,5-1.5,5.3,2.3,4.8C159.7,406.6,159.1,405.4,158,403.1z M160.3,385.7c1.9,0.5,2.1,3.1,4.3,1.1   C163.3,384.9,163.3,384.9,160.3,385.7z" />
	<path display="inline" fill="#B28C7D" d="M498.5,481.8c7,8.4,13.2,15.7,20.5,24.4c-1.1,0.8-2.1,1.7-3.8,2.9   c2.4,0.2,4.3,0.3,6.6,0.5c-0.4,1-0.8,1.8-1.2,2.6c-9.2,4-2.8,13.5,2.8,17.8c0.6,7-28.9-12.4-36.9-9.1   c-33.4,0.7-65.6,15.9-99.6,12.8c24.2-10.3,40.3-11.7,52.7-37.1c-8-5.6-20.2,7.5-30.1,5.3c-9.9-1.5-24.1,9.2-32.5,4.1   c3.4-17.1,7.7-34.2,8-51.6c18.5,2,37,11.7,55.6,10.5c9.5-1.8,19.5-5,29.2-3.8c2.8,2.2,5.2,4,7.7,5.9c-0.3,0.9-0.6,1.7-1,2.6   c-7.6-2.1-25.3,4.5-14,12.5c7,3.6,14.5,9.7,22.1,4.2c4.6,0.6,8.6,2.2,8.1-3.5l0,0C494.8,483,496.6,482.2,498.5,481.8z M422.3,467.5   c5,2,11,5.7,14.5,3.7C432.7,468.3,428.7,465.7,422.3,467.5z M420.7,466c-2.3-3-4.7-3-6.7,0.3C416.4,466.8,418.5,467.6,420.7,466z    M439.4,476.4c1.9,0.8,2.6,1.1,3.4,1.3C443.6,476.1,442.4,475.5,439.4,476.4z M445.1,479.4c0.7,0.2,1.3,0.8,1.8,0   C446.2,478.7,445.8,478.5,445.1,479.4z" />
	<path display="inline" fill="#977264" d="M377.1,506.1c8.4,5.1,22.6-5.6,32.5-4.1c9.9,2.2,22.1-11,30.1-5.3   c-12.5,25.3-28.6,26.7-52.7,37.1c52.1,3,86.8-26.1,136.6-2.5c3.3,5,6.6,10,10.3,15.7c-63.1-23.7-110.2,4.7-172.4,7.7   c0.7-10.6,9.1-19.8,10.8-30.5c9.2,3,19.1-2.5,26.7-7.1c-3.2-6.8-18.7,5.7-26,4.4C374.4,516.1,375.7,511.1,377.1,506.1z    M412.6,514.7c-4.2-2.2-7.8-0.5-10,2.9C409.6,518.1,409.6,518.1,412.6,514.7z M417.4,513.3c2.4-0.3,3.8-0.9,3.4-3.2   C416.8,509.1,416.7,509.2,417.4,513.3z M424.6,508.3c0.5,1,1,0.8,1.8,0.4C425.9,507.7,425.4,507.9,424.6,508.3z" />
	<path display="inline" fill="#B1B6B7" d="M527.8,515.3c8.3,5.5,17.5,7.4,27.5,7c5.9-6.2,9.2-13.4,10.5-22.2   c19.2,8.7,35.9,22.1,54.3,32.4c-2.5,3.9-7.1,6.1-7.6,11.1c-5,11-20,12.3-27.7,20.6c-32,35.7-21.8,1.9-41.5-18.5   c-5.3-11.2-16.8-19.1-21.2-30.5C524,515.2,525.9,515.3,527.8,515.3z" />
	<path display="inline" fill="#967264" d="M430.2,428.8c-11-7.1-20.5-13.5-27.2-25.8c43.8,20.9,81.9,48,119.1,79.8   c-0.6,3,2.6,3.1,4.4,4.7c-1.9,1.9,2.2,4.6,4.4,4.4c1.9,4.2,4.9,7.8,7.4,11.7c-2.3,3.5-5.6,5.9-9.3,8.6   c-20.4-30.4-49.1-52.6-78.5-73c4-0.2,6,4.1,9.9,3.8c-2.6-2.7-6.5-7.1-9.8-3.7C443.3,436.4,437.2,431.7,430.2,428.8z" />
	<path display="inline" fill="#9BA1A2" d="M522.1,515.2c4.5,11.4,16,19.3,21.2,30.5c19.7,20.4,9.5,54.2,41.5,18.5   c7.7-8.3,22.7-9.6,27.7-20.6c0.5-4.9,5.1-7.2,7.6-11.1c2.6,1.8,6.8,2.1,6.9,5.9c-21.5,15.8-34.6,44.6-62.6,52.2   c-16.7-4-11.8-23.8-20.4-34.3C542.4,550,510.9,515.6,522.1,515.2z" />
	<path display="inline" fill="#534491" d="M346.6,556c-0.1,0.5-0.1,1-0.2,1.5c3.1-0.5,6.2-0.9,9.5-1.4c1.4,2,2.9,4.1,4.4,6.2   c-5.6,1.4-23.7,1.8-43.8,0.7c1.5-3.3,4.2-5.2,6.7-7.3c6.6-0.7,12.1-2.5,16.7-7.7c-5.8,1.1-7.1,3.5-12.3,3.6   c7-9,14.9-17.2,19.7-27.7c1.1-4.5,6.1-2.8,9.6-3c2.6,3.9,8-1,10.4,3c-2,10-4.5,22.1-11.8,29.2c-0.8-0.2-1.7-0.4-2.5-0.6   c0.6-1.8,3.2-2.4,1.7-4.9c-6.2,4.7-14.5,3.3-19.8,8.4C339.4,557.4,343.4,553.4,346.6,556z" />
	<path display="inline" fill="#967264" d="M356.8,373.7c8.1,4.7,16.2,9.5,24.2,14.2c-1.3,12.2-8.5,21.6-9.5,33.7   c-10-5.8-18.6-20.3-28.1-29C348.8,387.7,354.1,380.4,356.8,373.7z" />
	<path display="inline" fill="#B18B7C" d="M356.8,373.7c-2.7,6.7-7.9,14-13.4,18.9c-14.2-16.1-30.1-31.1-40.7-49.9   C320.2,348.5,338.9,364.4,356.8,373.7z" />
	<path display="inline" fill="#6C5BA8" d="M353.8,509.2c6.4-19.1,11.3-38.6,19.8-57c2.2,0.6,4,1.1,5.4,1.6c1.2,18.4-4,35.3-7.8,52.5   C366.1,510.3,359.8,509.1,353.8,509.2z" />
	<path display="inline" fill="#B08B7C" d="M530.8,491.7c-4.1,0.1-7.4-4.9-1.6-5.1c-15.1-7.5-26.1-19.4-38.5-30.6   c0-0.3,0.4-0.9,0.9-1c20,11.6,39.8,23.5,59.7,35.4c-3.4,5.2-8.5,8.9-13.1,13.1c0,0,0,0,0,0c-2-2.9-3.9-5.9-5.9-8.8   c1.7-0.1,3.4-0.2,5.1-0.3c0-0.3,0-0.6,0.1-0.9C535.2,492.9,533,492.3,530.8,491.7z" />
	<path display="inline" fill="#967264" d="M494.3,482.9c-0.5,0-1,0-1.5,0c-0.3-0.2-0.7-0.4-1-0.6c0.3,0.2,0.7,0.4,1,0.6   c0,0.5-0.1,1.1-0.1,1.6c-1.3,0-2.7,0-4,0c0,0.4,0,0.7,0,1.1c1.3,0,2.7,0,4,0c-1.6,3-4.3,0.7-7.9,0.8c-7.6,5.5-15.2-0.6-22.1-4.2   c-11.3-8,6.5-14.6,14-12.5c0.1,1.3,0.3,2.6,0.6,5c1-3.4,1-3.4-0.5-5c0.3-0.8,0.6-1.7,0.9-2.5c-2.5-1.9-4.9-3.7-7.7-5.9   c-1.8-0.1-4.2-0.2-6.5-0.4c12.6-5.3,22.6,11.7,32.2,17.8C495.2,480.1,494.7,481.5,494.3,482.9z" />
	<path display="inline" fill="#FBFCFC" d="M561.4,504.7c-1.5,4.5-3.9,9.2-7.3,13.5c-6.7,0.3-13-0.8-19.4-3.8c5.8-8,16-12,22-19.9   C562,495.2,559.9,500.7,561.4,504.7z" />
	<path display="inline" fill="#51418C" d="M353.8,509.2c6-0.1,12.4,1,17.5-2.9c-1.6,5.7-1.3,12.6-4.1,17.7c-2.4-4-7.8,0.8-10.3-3   c3.2-0.2,6.5,0.7,10.9-1.1c-4.3-0.1-8.1-1.7-10.9,1c-2,0-4-0.1-6.1-0.1c-0.3-0.9-0.7-1.8-1.1-2.9   C351,515.2,352.4,512.2,353.8,509.2z" />
	<path display="inline" fill="#0F110F" d="M627,538.4c-15.1-14.1-38.1-23.3-55.6-36.2c0.6-0.5,1.2-1.1,1.8-1.6   c20.4,9.8,39,26.5,60,33.6C631.1,535.5,629,537,627,538.4z" />
	<path display="inline" fill="#46397A" d="M171.1,516.5c-1.6,1.9-3.3,3.9-4.8,5.7c-3.7-1-6.3-0.9-9.7,0.1c-0.6-2.9-1.2-5.7-1.4-8.7   c4.1-1,8.2-2,12.3-3C168.9,512.8,168.1,516,171.1,516.5L171.1,516.5z" />
	<path display="inline" fill="#3C3169" d="M142,516.6c-0.6-4.4,4.4-2.9,7.2-2.8c0.1,3.6,1.5,6.8,2.9,10c-2.1-0.1-4.3-0.3-6.4-0.4   c-0.8-2.8-4.2,0.1-5.1-2.4c1.3-1.7,4.4-2.9,1.4-4.4L142,516.6z" />
	<path display="inline" fill="#151227" d="M197.4,504.8c-2.7,5.9-5.6,11.7-8.9,17.5c-1-0.7-1.5-1.1-2.1-1.6   c1.2-6.6,5.1-12.5,8.3-18.1C195.8,503.5,196.6,504.1,197.4,504.8z" />
	<path display="inline" fill="#160E1F" d="M346.6,556c-3.2-2.6-7.2,1.3-11.8,0.1c5.3-5.1,13.6-3.7,19.8-8.4c1.5,2.5-1.1,3.1-1.7,4.9   c0.9,0.2,1.7,0.4,2.5,0.6C353.4,555.5,349.4,555,346.6,556z" />
	<path display="inline" fill="#151211" d="M522.1,515.2c-7.1,0.6,1,10.2,3,13c-0.6,0.6-1.1,1.2-1.7,1.8c-5.5-4.3-11.9-13.7-2.8-17.8   c1.5,3.2,6-0.5,7.2,3.1C525.9,515.3,524,515.2,522.1,515.2z" />
	<path display="inline" fill="#21171F" d="M205.9,476.9c6-4.9,13-8.9,16.2-16.3c0.5,1.1,1,2.2,1.6,3.2c-2.2,7.4-10.6,9.8-15.9,14.7   C207.1,478,206.5,477.5,205.9,476.9z" />
	<path display="inline" fill="#282046" d="M152.1,523.8c-1.4-3.2-2.8-6.4-2.9-10c2,0,4,0,6-0.1c0.3,2.9,0.8,5.8,1.4,8.7   C155.1,522.8,153.6,523.3,152.1,523.8z" />
	<path display="inline" fill="#1B152E" d="M327.5,551.6c5.2,0,6.5-2.4,12.3-3.6c-4.5,5.2-10.1,7-16.7,7.7c1.1-1.3,1.1-3.5,3.2-4   C327,553.3,327.3,552.5,327.5,551.6L327.5,551.6z" />
	<path display="inline" fill="#4B3D83" d="M191.7,496.2c-0.3-4.3,3.5-5.1,5.5-7.2c2.2,1,1.8,2.2,1.1,3.5c-0.5-0.1-0.9-0.1-1.9-0.2   c0.2,1.2,0.3,2.3,0.5,3.5c-0.6,0.5-1.3,1.1-2.2,1.9C193.6,497.1,192.6,496.6,191.7,496.2L191.7,496.2z" />
	<path display="inline" fill="#483B7E" d="M191.6,496.1c0.2,1.2,0.5,2.3,0.7,3.5c-2.9,1.8-2.9,1.8-5.8,2.1c-1.7-3.1,0.6-4.7,2.5-6.6   C189.9,495.5,190.8,495.8,191.6,496.1L191.6,496.1z" />
	<path display="inline" fill="#3D336E" d="M142,519.3c-0.5,0.5-1,1.1-1.5,1.6c-3.1-5.2-3.1-5.4-1.4-8.9c1.1,1.7,2,3.1,2.9,4.6   l-0.1-0.1C141.9,517.5,142,518.4,142,519.3z" />
	<path display="inline" fill="#4D4089" d="M175.5,512.1c0.2,2.7-2,3.2-4.3,3c-0.2-1.9-0.2-3.9-0.1-5.8c0.6-0.5,1.3-0.9,1.9-1.3   C174.1,509.6,174.8,510.9,175.5,512.1L175.5,512.1z" />
	<path display="inline" fill="#4A3D83" d="M180.8,507.6c-1.5-3.6-0.5-5.6,2.7-6.5C185,504.9,185,505,180.8,507.6z" />
	<path display="inline" fill="#4A3E85" d="M175.6,512.2c-0.3-3-0.3-4.8,1.9-7.3c1.6,2.4,1.4,4.4,0.4,6.6   C177.3,511.7,176.4,511.9,175.6,512.2L175.6,512.2z" />
	<path display="inline" fill="#483731" d="M494.3,482.9c0.4-1.4,0.8-2.8,1.3-4.2c1.6,0.4,2.7,1.3,2.9,3.1   C497.1,482.1,495.7,482.5,494.3,482.9z" />
	<path display="inline" fill="#46397A" d="M171.2,509.3c0,1-0.1,2.1-0.1,3.1C169.3,510.6,169.3,510.5,171.2,509.3z" />
	<path display="inline" fill="#46397A" d="M171.2,515.1c0.9,0,1.8,0,2.7-0.1c-0.4,1.4-1.5,1.6-2.8,1.5l0.1,0.1   C171.2,516.1,171.2,515.6,171.2,515.1z" />
	<path display="inline" fill="#151227" d="M188.8,507.8c-0.5,0.4-1,0.9-1.5,1.3C187.7,508.7,188.3,508.3,188.8,507.8z" />
	<path display="inline" fill="#967264" d="M538.1,503.4c0.5-0.5,1.1-0.9,1.6-1.4C539.2,502.5,538.7,503,538.1,503.4z" />
	<path display="inline" fill="#151227" d="M190.3,506.4c-0.5,0.5-1,0.9-1.5,1.4C189.3,507.4,189.8,506.9,190.3,506.4z" />
	<path display="inline" fill="#534491" d="M327.6,551.6c-0.3,0.9-0.6,1.7-1.3,0.2C326.8,551.7,327.2,551.6,327.6,551.6z" />
	<path display="inline" fill="#151227" d="M191.9,505.1c-0.5,0.5-1.1,0.9-1.6,1.4C190.8,506,191.4,505.5,191.9,505.1z" />
	<path display="inline" fill="#B28C7D" d="M500.6,408.1c-35.7-17.2-72.7-31.4-108.5-48.3c-0.9-9.3,1-17.3,5.4-25.2   c-1.1-6.9,5.1-12.3,8.6-18c-17.3,1.4-23.8,22.6-33.2,34.7c-23-9.6-45.9-19.2-68.5-29.7c14.7-14.8,30.7-27.5,45.8-42   c1.2,0.5,2.3,1,3.7,1.5c2.6-1.9,6.9-2.4,8.3-5.6c-2.2-0.2-4.2-0.4-6.3-0.7c6.2-11.6,18.8-6.3,29-9.6c14.5,1.3,40.4,27.7,48,40.5   c22,35.2,52.5,63.3,70.2,101.6C502.2,407.8,501.4,408,500.6,408.1z M419.7,311.9c3.4,1.9,3.4,1.9,7.5,2c-4.6-5-7.3-19.1-14.5-8   C414.8,310.4,414.8,310.4,419.7,311.9z M377.6,276c3.7,4.7,19.8,2.3,12.1-4.6C385.7,268.2,376.5,268.9,377.6,276z M421.7,342.5   c5.3,6.6,11.6,11.3,15.5,12C433.6,349.7,428,342.5,421.7,342.5z M444.9,364c-1.7-3.6-4.5-5.6-9.5-4.9   C438.5,361.9,441.5,363.2,444.9,364z M432.4,317c2.7,4.2,2.7,4.2,6.7,6.3C437.7,319.6,435.6,317.6,432.4,317z M446,369   c3.5,3.3,3.5,3.3,7.2,4.1C451.6,370.4,450.1,368.8,446,369z M369.6,274.9c-0.7-1-2.4-0.2-3.5-0.4   C365.2,277.1,369.8,276.7,369.6,274.9z M453.2,375.1c1.1,3.6,2,4.5,4.5,3.4C456.4,377.6,455.5,376.9,453.2,375.1z M460.7,386.1   c-2-1.8-3-0.1-0.8,1.2C460,387,460.3,386.6,460.7,386.1z" />
	<path display="inline" fill="#B1B6B7" d="M721.2,468.1c-16-10.5,9.7-19.3,17.3-25c7,1.2,9.3,8.4,15.7,10.1c5.3-5.7-5.2-10.4-8.7-15   c5.6-1.4,8,4.1,13.1,4.9c9.2-1.8-2.8-8.6-6.5-10.3c1-1.5,1.9-2.6,2.6-3.7c7.3,2,7.3,2,9.5-1c-1.2-3.9-5.7-3.3-8.1-6   c0.1-0.7,0.2-1.6,0.4-2.8c4,1.6,10.6,3.9,9.9-2.9c-3-0.4-5.6-0.7-8.5-1.1c0.6-1.5,1-2.5,1.6-3.8c2.5-0.1,4.9-0.2,8-0.4   c-2.1-3.6-5.2-4.7-8.3-7.1c2.8-18.1-7-37.4,18.4-38.4c33.3,20.9,31.9,61.8,23.1,95.2c-1.7,1.3-3.4,2.6-4.6,3.6   c3,23.1,9,46.5-1.9,69.2c-18.5-7.8-35-6-54.1-3.9c-0.4-0.9-0.7-1.8-1.2-3.1c5.3-8.2,17.3-14.1,16.5-25   C754,485.5,737.1,469.8,721.2,468.1z" />
	<path display="inline" fill="#B28C7D" d="M700.4,482.7c11.8,0.8,22.1-5.3,34.1-4c5.9,9.4,3.7,22.8,2.6,33.5   c-24.8-3.8-50.7,2.3-74.5,0.2c7.6-9.4,15-18.9,22.7-27.1C690.9,484.3,695.6,483.5,700.4,482.7z" />
	<path display="inline" fill="#967264" d="M662.5,512.4c23.9,2,49.7-4,74.5-0.2c-0.1,3.1,0,6.3-1.2,9.4   c-40.5,0-77.4,15.5-115.3,28.5c6.7-11.2,20.9-15.5,30-25c2.7,4.4,7.7-1.2,11.5-2.2c-2.6-0.8-4.9-1.4-7.1-2.1   C657.4,518,660,515.2,662.5,512.4z M703.9,518.2c-0.7,4.6,20,1.9,20.6-1.8C717.4,517.1,710.6,517.6,703.9,518.2z M689,520   c3.3,1.9,7,1.5,9.5-1.4C691.2,517.7,691.2,517.7,689,520z M679.1,520.3c3.9,1,4.3,1,7.3,0.3C683.6,518.7,683,519.5,679.1,520.3z" />
	<path display="inline" fill="#9BA0A1" d="M739.9,529.7c19-2.1,35.6-3.9,54.1,3.9c11-22.7,5-46.1,1.9-69.2c1.2-1,2.9-2.3,4.6-3.6   c3.7-18,6.9-35.3,5.1-53.9c10.3,19.4,5.7,41.1-1,60.7c-3,9,5.9,16.4,3.8,25.4c-3.5,16.9,2.6,40.8-17.7,48.4   c-14.5-5.8-29.8-7.4-45.3-5.9c-2.6,0.1-3.9-1.7-5.4-3.2C740,531.5,739.9,530.6,739.9,529.7z" />
	<path display="inline" fill="#B0B6B7" d="M671.1,481.5c-10.8-5-25-8.3-33.5-16.1c13.3-3.1,24.8-24.2,38.4-16.4   c6.4,4.4,15,8.6,14,17.8C683.9,471.9,679.1,479.4,671.1,481.5z" />
	<path display="inline" fill="#49B577" d="M511.5,408.6c40.1,18.8,82.3,33.2,122.5,51.5c-4.4,3.1-8.2,2.2-12.4,0.3   c-36.4-18.2-78.2-29.8-112-51.3C510.2,408.9,510.9,408.7,511.5,408.6z" />
	<path display="inline" fill="#F7F7F7" d="M741.2,518.4c1.3-13.4,1.4-22.9,0.3-36.4C753.9,492.3,755.4,509.4,741.2,518.4z" />
	<path display="inline" fill="#989B9C" d="M671.1,481.5c8-2.2,12.8-9.7,18.9-14.7c-1,6.9-7.3,11.9-10.5,17.8   C675.9,484.6,673.5,483.1,671.1,481.5z" />
	<path display="inline" fill="#1C1815" d="M637.6,465.5c5.5,7,17.6,7.5,24.8,13.1c-1,0.4-1.9,0.9-2.9,1.3   c-8.4-3.7-16.8-7.5-25.3-11.2C635.4,467.6,636.5,466.5,637.6,465.5z" />
	<path display="inline" fill="#A88778" d="M654.9,520.8c2.2,0.7,4.5,1.3,7.1,2.1c-3.8,1-8.8,6.5-11.5,2.2   C652,523.7,653.4,522.3,654.9,520.8z" />
	<path display="inline" fill="#35A65F" d="M350.9,350c28.3,11.8,54,25.4,78.3,45.1c-39.2-12.2-76.5-40.5-114.7-51.2   c-11.4-6.5-22.7-13.1-33.7-20.3c0.5-1.5,1.7-1.4,2.9-1.5c18,7.5,34.2,17.4,52.7,23.6c-2-1.9-3.3-3.2-4.6-4.4   c5.7,1.1,11.6,3.7,16.2,7.2c-1.2,0.1-2.4,0.3-5,0.6C347,350.4,348.2,352.7,350.9,350z" />
	<path display="inline" fill="#030203" d="M242.5,333.9c10.2,15.5,4.9,34.4,8,51.1c10.7-13.7,17.2-30.7,30.3-42.4   c0.5,0.5,1,1.1,1.5,1.6c-25,37.4-45,77.1-58.7,119.7c-1.8-60.1,39.2-49.9,14.7-131.5c0.5-0.5,1-1,1.5-1.5   C240.7,331.9,241.6,332.9,242.5,333.9z" />
	<path display="inline" fill="#967163" d="M397.7,330.9c-1.6,2.4,0.6,3.5-1.3,5.9c-0.4-0.3-0.9-0.7-1.7-1.3   c-3.9,7.3-6.3,13.8-7.7,21.9c-5.4-1.4-9.8-3.7-14.2-6.1c9.4-12.1,15.9-33.3,33.2-34.7c-2.4,3.4-4.7,6.6-7,9.8   c-1.3-0.2-2.6-0.4-4-0.7c0.3,1.8,0.5,3.4,0.8,4.9C396.8,330.9,397.3,330.9,397.7,330.9z M387.7,338.1c-4.5-2.9-8,7.3-7.1,12   C384.2,346.1,384.6,341.3,387.7,338.1z" />
	<path display="inline" fill="#241B19" d="M242.5,333.9c-0.9-1-1.8-2-2.7-2.9c-0.7-4.1-8-2.8-6.2-7.6c5.2,1.9,12.3,9.9,17.7,3.5   c0.3-2.6-1.1-3-2.6-3.3c-2.5-4.8-7.9-6.6-6.8-12.8c3.7,3.5,7.3,6.6,10.3,11c2.2-1.7,4.3-3.5,6.4-5.2c1.4,4.6-3.7,5.3-4.3,9.1   c0.7,0.6,1.4,1.4,2.1,2c4.9-1,5-4.6,6.6-8.3c0.6,0,1.1,0.1,1.7,0.1c-0.2,4.4-2.3,10.3-7.4,10.3c-5.1-0.1-9.3,3.2-14.4,3   C242.9,332.6,242.7,333.4,242.5,333.9z" />
	<path display="inline" fill="#388E5D" d="M292.8,320.5c-0.6,0.5-1.1,1.1-1.7,1.6c-22.1-9.5-26.3-11.7-29.9-15.3   C271.7,309.5,282.8,315.3,292.8,320.5z" />
	<path display="inline" fill="#2D8852" d="M283.7,322.2c-1.2,0.1-2.4,0-2.9,1.5c-12-6-14.2-7.5-17.4-12.1   C270.9,315.2,277.7,317.9,283.7,322.2z" />
	<path display="inline" fill="#7C6156" d="M263.2,319.3c-1.6,3.7-1.8,7.3-6.6,8.3c-0.6-0.6-1.4-1.4-2.1-2c0.6-3.8,5.6-4.4,4.3-9.1   c0.6-0.6,1.2-1.2,1.8-1.7C261.4,316.2,262.3,317.7,263.2,319.3z" />
	<path display="inline" fill="#46352F" d="M390.6,344.2c1.3-2.8,2.7-5.5,4.2-8.7c0.8,0.6,1.2,0.9,1.7,1.3c-1.5,3.4-2.9,6.9-4.4,10.3   C391.6,346.2,391.1,345.2,390.6,344.2z" />
	<path display="inline" fill="#162F1E" d="M331.8,341.3c1.3,1.3,2.6,2.5,4.6,4.4c-4.6-0.5-7.6-2.2-10.5-4.3c0.5-0.5,1.1-1,1.6-1.5   C328.9,340.4,330.4,340.8,331.8,341.3z" />
	<path display="inline" fill="#D3D1DB" d="M166.6,351c0.9,7,12,8.1,11.6,15.9c-8.1,1.6-14.9,0.4-20.7-4.8c-1,0.3-2,0.5-2.9,0.8   C157.4,357.7,161.8,354.1,166.6,351z" />
	<path display="inline" fill="#262525" d="M238.4,332.4c0,1,0,2.1,0,3.1c-3,0.3-6,0.6-9.8,1c-0.7,1-1.9,2.7-2.8,4.1   c-4.5,1.9-8.3,0.5-12.1-0.9c-0.9-2.1-2.9-1.1-4.4-1.5c3.2-2,5.4-5.5,9.8-6.6c0.2,2.6-2.7,2.7-3.3,4.4c0.8,2.4,3.3,2.3,5.4,3.4   c1.2-0.5,2.4-1.1,3.5-1.6c0.9-2.2,1.4-4-0.7-5.4c0.5-0.5,1-1,1.5-1.5C229.3,334.3,233.7,334.7,238.4,332.4z" />
	<path display="inline" fill="#5F453D" d="M157.9,352.8c-0.8-0.8-1.6-1.7-2.7-2.9c1.6-3.4,4.6-3.3,7.3-1.3   C161,350,159.4,351.4,157.9,352.8z" />
	<path display="inline" fill="#8E7062" d="M206.1,134.9c-2.4-1.9-4.8-3.8-7.2-5.7c2.1-0.5,4.1-1.1,6.5-1.7c1.3,1.4,2.5,2.8,4.1,4.6   C208.2,133.2,207.2,134.1,206.1,134.9z" />
	<path display="inline" fill="#372C28" d="M197.6,108.6c-4.3-0.5-4.3-8.3,0-8.5C197.6,103,197.6,105.8,197.6,108.6z" />
	<path display="inline" fill="#7E5F53" d="M203.3,123.4c1.3-0.3,2.6-0.5,4-0.8C206.4,125.4,206.2,125.5,203.3,123.4L203.3,123.4z" />
	<path display="inline" fill="#463E37" d="M204.7,108.6c-0.2-0.3-0.3-0.5-0.5-0.8c0.6-0.1,1.2-0.4,1.5,0.3   C205.4,108.2,205.1,108.4,204.7,108.6z" />
	<path display="inline" fill="#936E61" d="M238.4,332.4c-4.7,2.3-9.1,1.9-13.1-1.4c0.7-1.8,1.4-3.6,2.1-5.5   c-0.8-0.1-1.4-0.2-2.1-0.3l-0.2-0.1c7.1-4.1,15.3-2,22.8,1.3c0.3-1.1,0.6-1.9,0.8-2.8c1.5,0.3,2.8,0.8,2.6,3.3   c-5.4,6.5-12.5-1.5-17.7-3.5c-1.8,4.7,5.5,3.5,6.2,7.6C239.4,331.4,238.9,331.9,238.4,332.4z" />
	<path display="inline" fill="#2A201C" d="M23.3,420.2c0.2-0.9,0.4-1.8,0.6-2.7c6.1-0.1,12.4,0.8,18.1-2c0.7,0.5,1.3,1.1,2,1.6   C37.6,420.2,30.3,424.1,23.3,420.2z" />
	<path display="inline" fill="#352320" d="M44,417.1c-0.7-0.5-1.3-1.1-2-1.6c3.2-2.3,4.9-4.3,9.3-4.3   C49.5,414.9,45.9,414.9,44,417.1z" />
	<path display="inline" fill="#84665B" d="M214.1,314.4c0.6-0.9,0.8-1.3,1.2-1.9c1.7,0.5,3.4,1.1,5.1,1.6   C221.2,318,216.3,314.8,214.1,314.4z" />
	<path display="inline" fill="#422E29" d="M233.6,304.5c1.6,1.2,3,2.3,4.3,3.3c-0.6,0.7-0.9,1.3-1.1,1.3   C233,308.1,232.9,307.9,233.6,304.5z" />
	<path display="inline" fill="#553E37" d="M221.6,316c3.2-1.2,5.2-2,6.6,0.9C226,318.2,224.3,318.2,221.6,316z" />
	<path display="inline" fill="#573F38" d="M72,399.2c-0.2-2.9,1.2-3.5,3-3.6C75.5,397.6,75.5,397.6,72,399.2z" />
	<path display="inline" fill="#4D3D37" d="M82.8,391.5c-0.4,1.5-1.9,1.4-3.2,1.5C78.4,391.1,81.7,389.8,82.8,391.5z" />
	<path display="inline" fill="#5D463E" d="M57.1,407.4c-0.6,0.2-1.1,0.5-1.7,0.7c-0.2-0.6-0.5-1.1-0.7-1.7   C56.1,406.1,56.7,405.5,57.1,407.4z" />
	<path display="inline" fill="#3B1C19" d="M65.8,402c-0.7,0.4-1.5,0.8-2.2,1.2c-0.9-1.7,0.7-1.5,1.8-2   C65.6,401.4,65.7,401.7,65.8,402z" />
	<path display="inline" fill="#664740" d="M50.6,388.6c-0.7,0.7-1.1,0.8-1.6-0.1C49.4,387.8,50,388.4,50.6,388.6z" />
	<path display="inline" fill="#4F302B" d="M41,395.2c-1,0-1.9,0-2.9,0C39.5,393.3,39.9,393.3,41,395.2z" />
	<path display="inline" fill="#67433B" d="M223.3,300.9c-0.6,0.9-1,0.7-1.7,0C222,300.1,222.6,300.7,223.3,300.9z" />
	<path display="inline" fill="#574941" d="M214.5,299.4c-0.7,0.9-1.1,0.7-1.7,0C213.2,298.6,213.8,299.1,214.5,299.4z" />
	<path display="inline" fill="#484547" d="M140.8,236.9c6.3,2.8,7.3,4.6,6,9.4C144.9,243.4,143.3,240.9,140.8,236.9z" />
	<path display="inline" fill="#5C575A" d="M172.7,203.4c-0.1,0.7-0.2,1.3-0.2,2c-1.1-2.1-6.4-5.2-3-7.3   C170.6,199.9,173,200.8,172.7,203.4z" />
	<path display="inline" fill="#797477" d="M121.1,218.2c-1.7-1.2-3.9-0.8-3.8-3.5C120.4,214.9,120.4,214.9,121.1,218.2z" />
	<path display="inline" fill="#3A3839" d="M130.5,241.7c2.8,1.3,3.4,3.2,2.6,6.3C130.3,246.3,129.7,244.4,130.5,241.7z" />
	<path display="inline" fill="#565052" d="M132.6,250.9c0.7,2.4,1.1,3,0.1,5.5C131,254.4,130.9,252.9,132.6,250.9z" />
	<path display="inline" fill="#221616" d="M141.9,230.6c1.5-0.2,2.1-0.2,2.6-0.3c0,0.4,0,0.8-0.1,1.2   C143.9,231.3,143.3,231.1,141.9,230.6z" />
	<path display="inline" fill="#807F82" d="M126.9,223c0,0.7,0,1.3,0,2c-0.2,0-0.4,0-0.7,0c0-0.7,0-1.3,0-2   C126.5,223,126.7,223,126.9,223z" />
	<path display="inline" fill="#231B18" d="M17.3,339.9c-4.4-3.8-2.9-9.5-1.7-14.9C19.6,328.2,17.1,334.6,17.3,339.9z" />
	<path display="inline" fill="#1A1210" d="M16.7,401.5c-4.6,3-10.8-1.2-8.8-6C10.6,397.4,13.3,399.2,16.7,401.5z" />
	<path display="inline" fill="#513A33" d="M225.3,325.1c0.7,0.1,1.3,0.2,2.1,0.3c-1.1,2.5-1.4,5.3-3.6,7   C221.3,329.9,224.3,327.6,225.3,325.1z" />
	<path display="inline" fill="#312621" d="M21.2,338.2c1.3,3.2,1.1,5.6,0.3,8.9C20.1,343.8,20.4,341.4,21.2,338.2z" />
	<path display="inline" fill="#60473F" d="M162.4,342c1.4-0.7,2.5-1.2,3.9-1.9C166.8,343.5,163.6,345.2,162.4,342z" />
	<path display="inline" fill="#180A09" d="M26.3,400.8c-2,0.1-3.5,0.2-6.6,0.4C22.8,399.1,24.3,399,26.3,400.8z" />
	<path display="inline" fill="#5F463D" d="M148.4,357.8c0.7-0.9,1.3-1.8,2.6-1.8C151.8,358.2,150.2,358.2,148.4,357.8z" />
	<path display="inline" fill="#3E302B" d="M131.5,143c-2.2-2.3-3.7-3.9-5.5-5.8C129.8,137.1,129.8,137.1,131.5,143z" />
	<path display="inline" fill="#644E45" d="M132.4,144.8c1.5,2.6,2.4,4.1,3.4,5.7C132.7,151.5,131.1,148.8,132.4,144.8z" />
	<path display="inline" fill="#84695D" d="M146.4,172.9c0.5,0.9,0.7,1.4,1,1.9C145.4,176.4,144.4,174.6,146.4,172.9z" />
	<path display="inline" fill="#634F47" d="M138.6,157.3c0.7,0.9,1.3,1.9,2.2,3.2c-2.6,0.3-2.6-1.3-3.3-2.1   C137.8,158,138.2,157.7,138.6,157.3z" />
	<path display="inline" fill="#6F534A" d="M125.9,130.7c-1.3,1.5-1.4,0.3-2.4-0.6C124.5,129,125,130,125.9,130.7z" />
	<path display="inline" fill="#583E37" d="M143.1,166.5c-0.3,0.4-0.5,0.4-0.8-0.1C142.6,166,142.8,166.1,143.1,166.5z" />
	<path display="inline" fill="#301B18" d="M96.9,122.8c0-1.6,0-3.1,0-4.7C99,119.3,99.9,122.1,96.9,122.8z" />
	<path display="inline" fill="#343032" d="M42.6,255.2c0.3,8.5-0.1,11.6-1.8,14.8C38.7,265,38.9,262.5,42.6,255.2z" />
	<path display="inline" fill="#433A3D" d="M43.1,274.1c1.5,2.1,1.2,3,1.6,5.8C41.7,278,42.3,276.2,43.1,274.1z" />
	<path display="inline" fill="#626064" d="M46.6,285.8c-1.4-1.5-2.8-2.7-1.4-4.2C47.6,281.1,46.8,283.8,46.6,285.8z" />
	<path display="inline" fill="#84685C" d="M121.2,86.6c1.9-1,2.8-1.3,2.9-3.9c-3.6,0.4-6.2,1.6-8,4.4c0.2,1,0.4,1.9,0.6,2.8   c-0.4,0.9-0.7,1.9-1.1,2.8c-1.4-1.2-2.1-2.9-2.8-4.6c0.5-2.9,0.9-5.7,1.4-8.6c4.6-3,11.2,1,14,5.1c-0.6,2.8-3.2,4.9-2.4,8.1   C123.9,90.6,124.3,87.5,121.2,86.6z" />
	<path display="inline" fill="#9E7D70" d="M115.6,92.8c0.4-0.9,0.7-1.9,1.1-2.8c0.2,1.4,0.3,2.7,0.5,4.1c0.5,0.5,1,1,1.5,1.5   c2.2,0.4,4.1,1.1,5.2,3.4c-1.5,1.3-3.1,2.6-4.8,4.1c-1.6-1.1-3.2-2.2-4.7-3.3C115.2,97.5,115.5,95.2,115.6,92.8z" />
	<path display="inline" fill="#A88375" d="M121.2,86.6c3.5,1.5,3.7,6.1,6.2,8.9c-0.4,0.5-0.9,0.9-1.3,1.4c-1.9-1.3-3.7-2.7-6.1-4.4   c-0.1-1.2-0.3-3.1-0.6-5.1C120,87.2,120.6,86.9,121.2,86.6z" />
	<path display="inline" d="M114.2,79.5c-1.2,15.8-6,7.3,0-1.3C114.1,78.6,114.1,79.1,114.2,79.5z" />
	<path display="inline" fill="#725C52" d="M115.3,96.7c-0.3,1-0.7,2-1,3.1c-3.8-2.7-4.1-3.9-2-8.4c0.3,1.7,0.6,3.5,0.9,5.4   C114,96.7,114.6,96.7,115.3,96.7z" />
	<path display="inline" fill="#775B51" d="M126.1,96.9c0.4-0.5,0.9-0.9,1.3-1.4c1.4,0.9,2.8,1.8,2.3,4.1c-1,0.1-2.1,0.1-3.6,0.2   C126.1,98.6,126.1,97.8,126.1,96.9z" />
	<path display="inline" d="M115.3,96.7c-0.7,0-1.3,0-2.1,0c-0.3-1.9-0.6-3.6-0.9-5.4c0.6,0,1.2-0.1,1.8-0.1c0.5,0.5,1,1,1.4,1.5   C115.5,94.1,115.4,95.4,115.3,96.7z" />
	<path display="inline" fill="#84685C" d="M118.6,95.6c-0.5-0.5-1-1-1.5-1.5C117.6,94.5,118.1,95.1,118.6,95.6z" />
	<path display="inline" fill="#292140" d="M311.4,433.2c6.2-11.1,16.3-19.3,22.2-30.6c0.5,0.5,1,1,1.5,1.5c-0.3,1.1-0.6,2.2-0.9,3.1   c0.8,2.4,1.6,4.7,2.4,7c-1-0.1-2.1,0.1-3.1-0.1c-0.2-1.2-0.4-2.5-0.7-4.8c-21.1,22.4-28.6,51.1-49,73.7l-0.1-0.1   C290.5,465.4,306.8,452,311.4,433.2z" />
	<path display="inline" fill="#1F1630" d="M197.6,512.4c29,22.9,48.5,17.2,73.7-8.5C258.9,530.3,216.1,540.6,197.6,512.4z" />
	<path display="inline" fill="#403470" d="M324.1,448.8c0.2,28,3.5,55,4.5,82.7C322.8,506.9,322,474.4,324.1,448.8z" />
	<path display="inline" fill="#6D5CA9" d="M312.9,437.5c3.8-11.4,12.7-18,20-28.2c3.9,13.1-12.4,17.7-17.4,28   C314.9,438.2,313.9,439.4,312.9,437.5z" />
	<path display="inline" fill="#1C1731" d="M297.4,481c-0.8,20.4,0.1,42.2-4.3,62.4C293.4,523.2,292.4,500.2,297.4,481z" />
	<path display="inline" fill="#0E0B16" d="M209.2,499c3.4-9.8,9.4-18.2,13.8-27.3c2.1-0.1,2.1,1.3,2.4,2.4   c-6.7,10.6-8.9,22.5-16.2,32.7C209.2,503.3,209.2,501.2,209.2,499z" />
	<path display="inline" fill="#1F1A34" d="M334.8,414.3c0.5,0,0.9,0,1.4-0.1c2.8,15.5,3.8,31.1,4.5,46.9c-2.4,1.5-0.8,4.1-1.5,6   C335.9,450.3,337.1,431.7,334.8,414.3z" />
	<path display="inline" fill="#1B162D" d="M339.2,467.1c0.6-2-1-4.5,1.5-6c0.3,8.9,2.3,17.8,1.3,26.6   C339.5,481,339,474.1,339.2,467.1z" />
	<path display="inline" fill="#292140" d="M283.8,483c-0.5,3-1.5,5.8-4.4,7.3l-0.1,0c0.4-3,1.4-5.8,4.3-7.3L283.8,483z" />
	<path display="inline" fill="#292140" d="M279.4,490.3c0,1.7-0.4,3.1-2.4,3.8C276.4,491.7,277.7,490.9,279.4,490.3L279.4,490.3z" />
	<path display="inline" fill="#35A65F" d="M603.6,491.9c2.1,0.5,1.8,1.9,1.2,3.6c-35.5-7.1-68-29.4-99.4-49.2   c7.9,1.4,13.7,4.7,20,7.6c1.2-0.5,2.6-1,3.9-1.6c4,4.2,8.4,8.9,14.7,8.8c0.7,2,2.1,3.1,4.3,2.8l-0.1-0.1   c13.9,12,32.7,18.8,49.1,27.5C599.5,492.5,601.6,494,603.6,491.9z" />
	<path display="inline" fill="#36A760" d="M574.2,468.3c18.4,7.7,41.2,11.7,55.5,25.9C611.1,491.2,589.5,480.5,574.2,468.3z" />
	<path display="inline" fill="#1E3323" d="M603.6,491.9c-2.1,2.1-4.1,0.6-6.3-0.4c-16.3-8.8-35.1-15.6-49.1-27.5   C567.1,471.6,584.5,484.5,603.6,491.9z" />
	<path display="inline" fill="#427858" d="M583.5,466.7c-8.1-4.9-18.9-7.9-25.5-13.9c8.4,2.3,18,7.7,25.6,12.4   C583.5,465.8,583.4,466.3,583.5,466.7z" />
	<path display="inline" fill="#407153" d="M583.5,466.7c0-0.5,0-1,0-1.5c5,0.6,9.3,2.7,13.1,5.9c0,0,0,0,0,0   C592,470.5,587.7,468.6,583.5,466.7z" />
	<path display="inline" fill="#427758" d="M611.2,478.6c-3.4-0.4-6.3-2.1-8.8-4.4l0,0C606.2,474,609.2,475.2,611.2,478.6   L611.2,478.6z" />
	<path display="inline" fill="#427657" d="M614.2,480c2.9,0,5,1.6,7.2,3.6C617.3,483.3,617.3,483.3,614.2,480L614.2,480z" />
	<path display="inline" fill="#396348" d="M533.7,456.7c-1.5-1.5-2.9-3-4.4-4.4c2.6,0.3,4.8,1.3,7.1,3.6   C535.3,456.3,534.5,456.5,533.7,456.7z" />
	<path display="inline" fill="#478E65" d="M522,449c-3.2,0-4.1-1.5-5.2-3.1C517.7,444.4,517.7,444.4,522,449z" />
	<path display="inline" fill="#265737" d="M350.9,350c-2.7,2.7-3.8,0.4-7.8-0.9c2.6-0.3,3.8-0.4,5-0.6   C349,349,349.9,349.5,350.9,350z" />
	<path display="inline" fill="#1E3323" d="M548.4,463.9c-2.2,0.3-3.6-0.8-4.3-2.8C546.1,461.2,547.7,461.9,548.4,463.9z" />
	<path display="inline" fill="#436C4F" d="M545.3,446.2c-0.2-0.3-0.3-0.5-0.5-0.8c0.6-0.1,1.2-0.4,1.6,0.3   C546,445.9,545.6,446.1,545.3,446.2z" />
	<path display="inline" fill="#426C50" d="M599.5,472.7c-1.2,0-2.5,0.1-2.9-1.4l0,0C597.8,471.3,599.1,471.2,599.5,472.7   L599.5,472.7z" />
	<path display="inline" fill="#3F664D" d="M602.4,474.2c-1.2,0-2.5,0.1-2.9-1.5l0,0C600.7,472.7,602,472.6,602.4,474.2L602.4,474.2z   " />
	<path display="inline" fill="#426D51" d="M614.1,480c-1.2,0-2.5,0-2.9-1.5l0,0C612.4,478.5,613.7,478.5,614.1,480L614.1,480z" />
	<path display="inline" fill="#433861" d="M335.1,404.2c-0.5-0.5-1-1-1.5-1.5c0.8-3.8,0.7-3.8,3.8-7.1   C338,399.1,336.6,401.6,335.1,404.2z" />
	<path display="inline" fill="#2C2728" d="M230.6,347.7c2.6,7.1-4,14.7-9.7,17.7c1.5-6.3,7.4-10,8.2-16.8   C229.2,348.2,229.9,348,230.6,347.7z" />
	<path display="inline" fill="#413435" d="M201,459.2c5.7-0.3,6-0.1,9.4,4.3C207.4,463.4,207.4,463.4,201,459.2z" />
	<path display="inline" fill="#312C2E" d="M215.5,378.7c-0.9-3.1-0.3-5.6,1.9-8.4C219,374,217.4,376.4,215.5,378.7z" />
	<path display="inline" fill="#555254" d="M195.4,451.1c2.9-0.6,4.9,0.6,7.1,2.6C197.4,454.3,197.4,454.3,195.4,451.1z" />
	<path display="inline" fill="#4F494C" d="M215.8,382.2c1.2,1.2,0.1,3.8-1.5,2.1C213.6,382.9,214.5,382.3,215.8,382.2z" />
	<path display="inline" fill="#554F51" d="M187.2,444.4c1.6,1.2,2.2,1.8,3.9,3.1C187.3,447.7,188,447.9,187.2,444.4z" />
	<path display="inline" fill="#1A191A" d="M158.3,382.7c-3.6,3.2-10.6-4.4-8.6-8.2C154.2,375.8,156.4,378.9,158.3,382.7z" />
	<path display="inline" fill="#535053" d="M145.9,396.7c4.1,1.6,4.1,1.6,5.6,5.6C148.4,402,147.1,400.2,145.9,396.7z" />
	<path display="inline" fill="#5A5255" d="M158,403.1c1.1,2.4,1.7,3.5,2.3,4.8C156.4,408.3,156.2,408,158,403.1z" />
	<path display="inline" fill="#776B70" d="M168.4,390.7c0.1-0.7,0.1-1.4,0.1-2.1c1.8-1.1,2.7,0,3.5,1.4   C171.2,392,169.7,390.6,168.4,390.7L168.4,390.7z" />
	<path display="inline" fill="#32373A" d="M160.3,385.7c2.9-0.9,2.9-0.9,4.3,1.1C162.4,388.9,162.2,386.2,160.3,385.7z" />
	<path display="inline" fill="#020102" d="M422.3,467.5c6.5-1.8,10.5,0.7,14.5,3.7C433.3,473.3,427.2,469.5,422.3,467.5z" />
	<path display="inline" fill="#513D37" d="M420.7,466c-2.2,1.6-4.3,0.8-6.7,0.3C416,463,418.4,463,420.7,466z" />
	<path display="inline" fill="#150C0B" d="M492.7,485.6c-1.3,0-2.7,0-4,0c0-0.4,0-0.7,0-1.1c1.3,0,2.7,0,4,0   C492.7,484.9,492.7,485.3,492.7,485.6z" />
	<path display="inline" fill="#463630" d="M439.4,476.4c3.1-0.9,4.2-0.3,3.4,1.3C442,477.5,441.3,477.2,439.4,476.4z" />
	<path display="inline" fill="#51342E" d="M445.1,479.4c0.7-0.9,1.1-0.7,1.8,0C446.4,480.3,445.8,479.7,445.1,479.4z" />
	<path display="inline" fill="#161311" d="M412.6,514.7c-3,3.4-3,3.4-10,2.9C404.8,514.2,408.4,512.5,412.6,514.7z" />
	<path display="inline" fill="#352520" d="M417.4,513.3c-0.7-4.1-0.6-4.2,3.4-3.2C421.2,512.4,419.8,513,417.4,513.3z" />
	<path display="inline" fill="#251613" d="M424.6,508.3c0.8-0.4,1.4-0.6,1.8,0.4C425.6,509.2,425.1,509.3,424.6,508.3z" />
	<path display="inline" fill="#020102" d="M450.4,439.1c3.3-3.4,7.2,1,9.8,3.7c-3.9,0.3-5.9-4-9.9-3.8L450.4,439.1z" />
	<path display="inline" fill="#56413A" d="M522,482.7c2.6,0.6,4.9,1.5,7.1,3.9c-1.2,0.3-2,0.5-2.8,0.7   C524.6,485.8,521.5,485.6,522,482.7z" />
	<path display="inline" fill="#3A2421" d="M530.8,491.7c2.2,0.6,4.4,1.2,6.6,1.8c0,0.3,0,0.6-0.1,0.9c-1.7,0.1-3.4,0.2-5.1,0.3   C531.8,493.7,531.3,492.7,530.8,491.7z" />
	<path display="inline" fill="#1D1714" d="M476.7,469.7c1.5,1.6,1.5,1.6,0.5,5C476.9,472.3,476.8,471,476.7,469.7L476.7,469.7z" />
	<path display="inline" fill="#B28C7D" d="M492.8,482.9c-0.3-0.2-0.7-0.4-1-0.6C492.1,482.6,492.5,482.8,492.8,482.9L492.8,482.9z" />
	<path display="inline" fill="#190B15" d="M356.8,521c2.8-2.7,6.6-1.2,10.9-1C363.4,521.7,360,520.8,356.8,521L356.8,521z" />
	<path display="inline" fill="#020102" d="M142,519.3c0-0.9-0.1-1.9-0.1-2.8C143.3,517.4,144.1,518.3,142,519.3z" />
	<path display="inline" fill="#967164" d="M377.6,276c-1.1-7.1,8.1-7.8,12.1-4.6C397.4,278.3,381.3,280.8,377.6,276z" />
	<path display="inline" fill="#987366" d="M419.7,311.9c-4.8-1.5-4.8-1.5-7-5.9c7.2-11.1,9.9,3,14.5,8   C423.1,313.8,423.1,313.8,419.7,311.9c1.8-2.6,1.7-2.8-1.5-3.2C418.7,309.9,419.2,310.9,419.7,311.9z" />
	<path display="inline" fill="#271C19" d="M421.7,342.5c6.3,0,11.9,7.2,15.5,12C433.3,353.8,427.1,349.1,421.7,342.5z" />
	<path display="inline" fill="#31231F" d="M444.9,364c-3.4-0.9-6.4-2.1-9.5-4.9C440.4,358.4,443.2,360.4,444.9,364z" />
	<path display="inline" fill="#3D2A25" d="M432.4,317c3.3,0.7,5.3,2.7,6.7,6.3C435.1,321.1,435.1,321.1,432.4,317z" />
	<path display="inline" fill="#352521" d="M446,369c4.1-0.2,5.7,1.4,7.2,4.1C449.5,372.2,449.5,372.2,446,369z" />
	<path display="inline" fill="#6A5047" d="M397.7,330.9c-0.5,0-0.9,0-1.8-0.1c-0.2-1.5-0.5-3.1-0.8-4.9c1.5,0.2,2.7,0.4,4,0.7   C398.7,328,398.2,329.5,397.7,330.9z" />
	<path display="inline" fill="#3A2D28" d="M369.6,274.9c0.2,1.8-4.3,2.2-3.5-0.4C367.2,274.7,368.9,273.9,369.6,274.9z" />
	<path display="inline" fill="#442B27" d="M453.2,375.1c2.3,1.7,3.2,2.4,4.5,3.4C455.3,379.6,454.4,378.7,453.2,375.1z" />
	<path display="inline" fill="#4F433C" d="M460.7,386.1c-0.4,0.6-0.6,0.9-0.8,1.2C457.6,385.9,458.6,384.3,460.7,386.1z" />
	<path display="inline" fill="#1B0D0B" d="M703.9,518.2c6.7-0.6,13.4-1.2,20.6-1.8C724,520.1,703.3,522.8,703.9,518.2z" />
	<path display="inline" fill="#2A1E1A" d="M689,520c2.2-2.4,2.2-2.4,9.5-1.4C696,521.6,692.4,521.9,689,520z" />
	<path display="inline" fill="#3E211D" d="M679.1,520.3c3.9-0.8,4.4-1.6,7.3,0.3C683.4,521.3,683,521.2,679.1,520.3z" />
	<path display="inline" fill="#7C6156" d="M263.5,325.2c0.3-0.6,0.5-1.1,0.8-1.7C264.1,324.1,263.8,324.7,263.5,325.2z" />
	<path display="inline" fill="#2E221E" d="M387.7,338.1c-3.1,3.3-3.5,8.1-7.1,12C379.7,345.4,383.1,335.2,387.7,338.1z" />
	<path display="inline" fill="#634940" d="M419.7,311.9c-0.5-1-1-2-1.5-3.2C421.4,309.1,421.5,309.4,419.7,311.9L419.7,311.9z" />
</g>
</svg>