<?xml version='1.0' encoding='utf-8'?>
<svg xmlns="http://www.w3.org/2000/svg" version="1.2" baseProfile="tiny" id="Layer_2_1_" x="0px" y="0px" viewBox="0 0 900 600" overflow="visible" xml:space="preserve">
<g id="b_00000168093673765112597570000004296891936325616518_">
	<path display="inline" d="M692,404.5c-8.9,1.1-21.6-0.9-28.6-7c-8.5-0.9-16.3,1.7-24.5,2.8c-12.5,2.6-25.1-0.3-37.7,0.2   c-12.7-0.8-28.7,3.6-39.3-4.7c-8.8-18.3-5.5-40.6-3.6-60.2c-16.3,4.8-36.1,0.3-42.4-16.9c-24.6,5-50.6,1.8-75.8,2.6   c-13.4-1.5-25.5,6.1-38.9,5.4c-18.5,0.3-35.1,8.7-53,12c-37.7,7.5-77.2,3.8-114.3-3.4c-15.2,1.6-31.5,1.1-45.9-4.7   c-23.6,4.8-48.8,4.6-72.5,0.5c-15.5-3.1-30.7-6.4-46.6-4.2c2.9,5.4-1.1,13.5-5.6,17.1c-0.1,4,2.4,8.1,0,11.9   c3.4,3.6,4.2,8,5.2,12.2c3.1,1.3,5,4,7.4,5.7c2.1,6.2,0.7,14.9-6.9,15.5c-9,22.5-38.2-3.1-47.9-13.8c-5.9-8.4-3.8-19.3-5.6-29   c-10.3-8.1-16.4-21.7-15.2-34.7c0.2-5.4-3.3-15.9,5.7-15.3c0.2-2.5,1.4-5.1,4.2-5.1c9,0,18.1-1.2,27.1-0.6c5.3,0.8,15.4-3,15.7,5.2   c53.1-2.7,105.2-33.6,159-15.2c26.4-2.9,52.5-8.7,78.2-15.4c12.3-5.2,38.7,0.1,45.8-10.5c2-4.2,5.1-7.4,8.6-10.3   c12.2-9.2,28.9-9.9,43.5-7.9c18,2.3,32.9,16.5,51.9,12.5c38.8-5.4,76.7-17.2,116.2-17c14.2-0.6,28.1,2.4,41.9,5.7   c9.9-0.7,19.6-0.6,29.5,0.8c2-2,3.7-2.5,4.1-5.4c0.7-0.3,1.5-0.7,2.2-1.1c0-1.1,0.4-2.3-0.1-3c-2.4-4.2,1.7-9.1,6.2-8.2   c0-0.2,0-0.3,0-0.5c-1.8,0.1-3.2,0-4.9-0.9c1.2-2.2,3.4-2.1,5-3.1c0.8-1.3,1.6-2.6,2.5-4.2c-0.1-0.6-0.3-1.5-0.6-2.6   c1.3-0.9,2.6-1.7,4-2.2c2.9-6.4,4.6-4.4,11.1-4.3c0-2.4-2.4-3.1-3.6-4.9c2.4-2.5,6.1-1.7,9.1-3c2.2-1,4.2,1.8,6.2,1.2   c-0.6-2.6-3.9-2.7-4.9-5c2.5-3.9,8.1-3.9,11.7-1.9c1.1-0.3,2.1-0.7,3.2-1c0.1-0.5,0.3-1,0.4-1.6c1.6-1.3,2.7,0.1,3.8,0.6   c5.3-1.1,9.6,0.5,13.5,3.9c1.3-0.1,2.6-0.3,3.9-0.4c0.9,1.1,1.9,0.9,3.7,0.1c-1.7-0.4-2.6-0.6-3.6-0.9c-0.4-0.5-0.7-1-1.1-1.4   c-1.7,0.2-3.5,1.2-4.3-1.2c1.4-1.7,3.9-1.6,5.9-2c4.4-0.8,5.7-0.2,7.2,4c2.9,1.6,6-0.1,8.8,0.8c1.9-6.9,7.4-0.8,11.2,0.5   c2.3,0.7,2.8,4.3,3.9,5.8c3.5,2.1,7.3,2.7,9.8,5.5c2.9,1.4,5.4-0.2,8.3,1.1c0.7,0.9,0.3,2.8,2,3.3c0.3,0.1,0.3,0.8,0.5,1.3   c0.2,0.7,0.3,1.5,0.8,2c2.4,2.6,1.3,5.8,1.5,8.6c4.4,0.2,5.2,0.9,5.7,5.6c4.5,1.8,1.6,4.8-2.3,4.2c1.1,0.7,1.7,1.1,2.3,1.4   c1.1,2.8,0.8,5.8,2.9,8.1c2,2.9,3.9,4.9,0.4,7.7c2,1.7,2.8,3.9,2.5,6.5c16.3,2.5,33.9,3.6,50.3,0.4c3.6-0.4,6.5,2.8,10.2,2.2   c5.7,0.5,12-1.1,17.4,0.7c-0.7,1.6-2.8-0.1-3.7,1.4c-8.3-0.1-16.5,1.2-24.1-2.9c-24.9,7-52.4-0.6-78-1.7   c-16.6-2.1-33.1,4.1-49.9,2.4c-30.6,1.6-57.8-18.6-88.5-14.3c-51.1,3.6-65.7,54.8-5.9,54.7c3.9-3,9.2-5.5,11.8-9.4   c-0.9-0.1-1.3-0.2-2.3-0.6c10.4-4.5,23.7-2.5,34.4-0.4c-13.4,3.9-23.8-5-35.5,7.5c6.9-1.5,13.2-0.2,19.5-1.3c4.9,2.6,11,0.2,15.5,4   c4.5,7.8-3.6,22.3,7.7,25.1c-13.4,4.4-6.2-16.9-9.3-23.1c-11-5.5-25.4-5.6-36.8-0.9c-0.5,9.4-8.4,16.5-7.7,25.9   c-0.4,15.8-3.1,31.4-4.4,47c16.4-1.2,32.6,2.3,48.6,5.4c15.7,3.6,27.3,5.6,37.8-8.8c6.3-0.5,24.4-1.7,21.7,8.4   c1.6,2.2,5.3,1.4,6.4,4.1c-0.2,0.2-0.5,0.5-0.7,0.7c-1.8-0.7-3.6-1.3-5.3-1.9c-1,0.7-1.8,1.3-2.7,2l0.1,0c-3.8,0.2-9,0.2-8.4-4.9   c-0.2,0-2-0.3-2-0.3c0.5-0.9,1.1-1.8,1.4-2.4c1.5-0.2,2.5-0.4,3.4-0.5c0.9,2-1.4,2.9-1.2,4.5c1.3,2.2,4.8,3.3,6.8,1.3   c-0.3-2.3,0.2-4.7-0.7-7.2c-10.6-2.4-17.7-3.8-24.7,5.8c-18.8,11.9-58.9-8.9-84.8-3.9c0-0.2,0-0.4,0-0.6c4.1-4.9,2-12.9,3.6-18.9   c0.2-10.8,3.6-21.5,2.5-32.3c0.6-7.6,5.6-14.7,6.7-22c-10.3,7.1-17.8,17.1-25.3,27c-3.3,3.7-9.5,6-10.3,11.3   c-1.1,18.3-4.7,39,2.4,56.4c6.6,9.7,22.1,5.6,32.2,5.7c23.2,0.8,46.1-1,69.2-2.3c3.6,3.4,9.4,6.3,14.2,5.5   c-0.3-0.9-0.6-1.9,0.9-2.4C682,403.9,687.6,402.8,692,404.5z M76.3,296.6c2.2-0.2,4.2,0,6-1.4c-1.3,0-2.8-0.8-3.9,0.6   c-2.4-0.1-4.7,0.2-6.9,1C73.2,297,74.8,297.9,76.3,296.6z M19.7,294.3c5.2-0.2,10.4,0.1,15.4-1.1c-5.6-1.2-10,0.8-15.4,0.6   c-3.1,0.5-9.4-1.5-10.6,2.2c2.1,0.2,4-0.7,6.1-1c0.9,0.1,1.7,0.3,2.3-0.6C18.3,294.3,19,294.3,19.7,294.3z M347.1,248.2   c8.7-7.3,20.1-8.4,31-8.7c2.6-0.3,9.9,3.1,10.5,0.1c-14.2-3.1-34.6-2.1-44,10.2C345.6,249.2,346.4,248.7,347.1,248.2z M259,276   c-18.3,2.1-37.3,10-55.8,5.9c-24.4-6.8-50.5-4.8-74.5,2c29.9-2,59.4,4.2,89,1.9c4.3-1.6,135.2-26.2,104.2-22.5   C300.4,264.7,279.8,270.8,259,276z M41,320c3.8,2.3,8.2,3.8,12.6,4.3c-4.4-8-2.6-15.6-0.7-24c-1-0.3-2-0.6-3-0.9   c0.3-0.4,0.7-0.8,1.1-1.4c-0.5-0.3-1-0.5-1.6-0.9c-0.2,1-0.3,1.7-0.4,2.3c-2.3-0.1-4.1,1.4-6.3,2.1C39.7,306.7,34.3,315.6,41,320z    M224.5,333.2c3.1-0.4,6.6,1.2,8.9-1.5c33.4,7.2,68.7,9.4,102.9,6.2c18.9-1.3,35.7-10.6,54-14.4c-8.7-25.5-10.4-53.7-2.4-79.6   c-39.4-9.9-45.9,26.8-88.3,27.8c-21.3,4.2-42.5,8.9-63.7,13.6c-32.4,8.4-65.1-0.2-98,1.3c-28.3,0.3-54,16-82.5,14.7   c-1.3,6-3.6,12.5-0.5,18.1c0.3,2,1.3,3.6,2.4,5.1c30.3-5.4,58.7,6.7,88.7,6.7c15.1,1.2,29.9-2,44.9-2.2   C201.5,334.1,213.2,331.1,224.5,333.2z M64,392.8c2.7-1.2,2.4-9.2,4-12.3c-6.3-4.9-10.2-12.4-8.2-20.3c-6.5,0-4.5-4.5,0.8-3.7   c0.8-1.7,1.3-3.2,0.8-4.7c-2.6,0.7-9.1,1-6.1-3c1.9-0.1,4-0.2,6.2-0.3c-0.4-1.5-0.7-2.7-1-4c-2.7,1.3-8.3,3.3-9.1-0.8   c2.5-2,6.8-3.1,9.9-1.6c4-2.6,6.2-7.9,6.8-12.4c-9-2.8-18-2.2-26.6-6.4c-14.1-6.6-3.2-23.8,7-28.4c-0.6-1.3-1.6-1.1-2.6-0.9   c-14.2,2.5-28.5,2.4-42.6,5.8c-0.3,1.9-0.6,3.5-0.9,5.1c0.5,0.4,0.9,0.7,1.1,0.9C2.1,320.5,7,336.1,19,345.3   c-1.4,15.1,1.3,30,15.1,38.6C43,388.5,54,400.4,64,392.8z M388.2,305.3c0.6,6.4,2.3,12.4,5.3,18.2c14.1,0.6,27.5-3,41.4-4.9   c26.7-0.6,53.6,1.2,80-2.5c6.1,0,6.5,10,11.9,12.6c28.5,20.6,47-14.3,64.5-31.2c-57.6-1.4-44.5-54.4,5.1-58.6   c-43.9-10.1-89,1.3-132.5,9.1c-44.9,6.6-31.9,4.9-72.3-8C383.7,260.7,384,283.8,388.2,305.3z M72.7,385.8c5.3-16.9-3.1-8-6.9-17.1   c-0.9-3.6-0.6-7.2-3.2-10.3c-2.8,8.1,0.9,16.5,7.9,21.1c-0.4,2.4-0.9,4.8-1.3,7.1C70.6,387.1,71.3,386.2,72.7,385.8z M650.2,212.4   c1.6,1.8,5.4,1.9,6.8-0.1c-0.6-0.3-1.1-0.6-1.3-0.7C653.8,211.9,652.2,212.1,650.2,212.4z M629.3,238.7c1.5,0.7,2.6,1.1,3.8,1.1   c0-0.5,0.1-0.8,0.1-1.3C632.1,238.5,631,238.6,629.3,238.7z M746.6,245.1c1.8,1.1,3.4-0.5,2.7-1.5   C748.5,244.1,747.9,244.4,746.6,245.1z M642.8,227.6c-1.9,0.3-1.9,0.3-1.6,1.5C641.8,228.5,642.3,228.1,642.8,227.6z M738.5,247.8   c1.2-1.2,2-2.4,0-2.5C738.5,246,738.5,246.6,738.5,247.8z M652,234.4c0,0.1,0,0.2,0,0.4c0.7,0,1.5,0,2.2,0c0-0.1,0-0.2,0-0.4   C653.5,234.4,652.8,234.4,652,234.4z M747.9,206.8c-0.4-0.2-0.7-0.3-1-0.4C746.2,207.5,747.2,207.9,747.9,206.8z M744.9,234.5   c0.4,0.4,0.7,0.6,1.3,1.1c0-0.8,0-1.3,0-2.1C745.6,233.9,745.3,234.2,744.9,234.5z M660.1,247.7c-0.3-0.1-0.6-0.4-0.8,0   C659.5,248.1,659.7,248,660.1,247.7z M688,235.3c0.1-0.3,0.4-0.6,0-0.8C687.6,234.8,687.7,235,688,235.3z M707.7,193.2   c0,0.2,0,0.3,0,0.5c0.1-0.1,0.2-0.1,0.3-0.2C707.9,193.4,707.9,193.3,707.7,193.2z" />
	<path display="inline" fill="#020101" d="M625.8,285.6c4-0.6,9.4,1.2,12.7-1c32.5-0.7,65,1.7,97.4,0.2   c27.3-5.5,55.4-11.6,83.1-13.3c0.7,0.8,0.6,1-0.7,1.6c-1.2-0.3-1.5,0.9-2.3,1.4c-0.4-0.4-0.8-0.8-1.3-1.3   c-15.9,4.1-32.6,4.5-48.7,7.4c-13.8,2.8-26.7,7.9-41,8.6c-2.4,3.5-3.4,8.7-6.4,11.8c-0.4-0.4-0.7-0.7-1.1-1.1c0.6-1,0.3-2,0.4-3   c0.1-0.8,0.6-1.5-0.3-2.3c-0.9-2.2-0.8-4.5-2.9-6.4c-21.6-3.1-43.3-0.9-64.8-1.2c-0.9,0.9-0.8,2.4-2,2.9c0,0,0.1,0.1,0.1,0.1   c0.1-0.9,0.1-1.8,0.2-2.9c-6.5-1-13.2-1.6-19.7-0.2C627.4,287.1,626.4,286.8,625.8,285.6z M720.4,288c1,0.7,1.5,1.6,2.3,0.7   C722.7,287.3,721.7,287.9,720.4,288z" />
	<path display="inline" fill="#0E0908" d="M816,274.5c0.9-0.6,1.1-1.8,2.3-1.4c-0.2,0.3-0.3,0.7-0.5,1.1c4.2,5.8,10.4,5.5,16.7,3.4   c3,3.9,11.3,3.7,12-0.5c-2.1-0.8-4.1-1.6-6.4-2.4c-2,0.5-4.1,1.7-6.5,1.2c-0.2-0.5-0.5-0.9-0.7-1.4c9.2-0.4,16.5-8.1,26-8.1   c6.3-1.8,16,1.9,19.5-5.1c-8.5,0.8-15.5-4.3-23.7-2.1c-5,0.7-8.9-2.8-13.8-2.3c0.8-1.5,2.9,0.2,3.7-1.4c7,3.2,14.3,0.8,21.5,2.6   c4.1,0.5,9.1,2.6,12.9,1.1c2,0.5,3.5,0.9,5.2,1.4c0.6,0.8,1.4,1.8,2.2,2.8c-6.7,15.5-32.3,2.9-42.5,10.1c1.1,1.7,3.4,1.1,4.9,2.6   c-1.2,8.1-11.2,6.3-16.6,3.6C825.8,283.3,820.3,279.4,816,274.5z M875.5,269.5c0.4-0.2,1-0.1,1.1-0.9c-1.9,0-3.6,0.1-5.2,1.1   C872.9,269.9,874.3,270.6,875.5,269.5z M884.3,264.2c-0.7,0.9-4.2,1.9-2.9,3C882.5,266.4,884.3,266.4,884.3,264.2   c0.2-0.1,0.7,0,0.3-0.5C884.5,263.9,884.4,264.1,884.3,264.2z M862.2,269.5c-1.5-0.1-3.1-0.1-4.6,0.2c0,0.2,0,0.3,0,0.5   c1.5,0,3.1,0,4.6,0c2.2,1.8,5.1,0,7.5-0.7C867.3,269.5,864.7,269.5,862.2,269.5z M869.7,267.4c-3.2,0.4-6.9-1.4-9.4,1.3   c5.3,0,23.8,0.5,22.1-7.2c-0.5,0-0.9-0.1-1.5-0.1C878.9,266.7,873.9,265.6,869.7,267.4z" />
	<path display="inline" fill="#0C0807" d="M689,378.7c1.5,0,3,0,4.6,0.1c0.9,1.2,2.6,0,3.9,0c-3.7,2.4-7.8,2-12.1,2.3   c-0.2,0.9-0.4,1.7-0.6,2.4c3.5,1.8,20.1,1.7,16.7-4.7c0.2-0.2,0.5-0.5,0.7-0.7c4.5,6.6-5.7,6.4-9.2,9.3c-3.2,0.6-6.7,0-10.1,0.3   c-0.4,0.9-0.4,1.6-0.3,2.5c1,0.9,1.9,1.7,2.8,2.4c5.3,0.4,10.2-0.4,15.4-1.4c0.4,1.8,0.4,3.9-1,5.1c-3,2.6-2.9,8.3-7.7,8.2   c-1.3-1.1-3-0.8-4.6-0.9c3.1-1.3,6.8,0.6,8-4.1c-5.8,0.5-12.5,1-16.6-4.1c-0.3-1.8,0.8-2.9,1.8-3.8c0.1-1.8,0.1-3.4,0.2-4.9   c1.4-1,3.1-0.8,5.1-0.9c-1.7-0.8-3-1.5-4.3-2.1c-0.6-3.2,1.6-6.1,0.9-9.4c0-0.2,0.4-0.5,0.6-0.8c0,0,1.8,0.2,2,0.3   c0.1,0.8,0.1,1.7,0.2,2.6c-0.4-0.3-0.9-0.6-1.4-0.9c0.1,1.5-0.5,2.9,0.1,4.1C686,379.4,687.7,380,689,378.7z M688.3,397.9   c4.4,0.9,9.2,0.8,11-4.2c-5.4-0.2-10.7,1.7-16-0.2c-1-0.5-1.9-0.1-2.2,0.6C680.9,397.5,685.8,397.9,688.3,397.9z" />
	<path display="inline" fill="#110C0B" d="M717.5,299.9c0.4,0.4,0.7,0.7,1.1,1.1c-6.7,10.6-19.7,13.3-30.8,15.4   c-7.7-7.2-12.2,17.7-20.9,4.4c-3.7,4.7-7.5,2.8-12.3,3.9c-4.1-0.4-3.6-7.2-8.7-4.8c-0.8-1.6-3.1,0.2-3.6-1.6c3.2,0.6,6.7-1.3,9.5,0   c1.1-1,2-1.9,2.9-2.7c0,1.7-1.9,2.5-2,4.4c-0.1,2.2,3.3,4.2,4.7,1.9c0.1-3.6-1.8-7.5,0.4-10.4c3.4,0.7-1.6,3.6,0.4,4.9   c0.1,2.1,0.2,4.3,1.4,6.1c1.3,0.6,2.4,0.7,3.6,0.1c0.1-0.4,0.1-0.7,0.2-1.1c1.7-1.8,3.9-2.2,6-2.2c0.5,0.2,1,0.5,1.5,0.7   c0.9,0.8-0.8,0.7-0.3,1.8c3.8,3.6,7.1-3.1,9.5-5.5C687.4,307.7,702,320.7,717.5,299.9z" />
	<path display="inline" fill="#231F1D" d="M700.1,384.4c0.8-0.4,1.6-0.8,2.4-1.2c1.1,5,3.2,4.9-1.5,9c-0.1-0.4-0.1-0.7-0.2-1.1   c0.5-1.1,1-2.1,1.4-3.2C701.7,386.6,701.4,385.2,700.1,384.4z" />
	<path display="inline" fill="#DDD9D9" d="M700.8,190.2c1,0.2,2,0.5,3.6,0.9c-1.8,0.8-2.8,1-3.7-0.1   C700.8,190.7,700.8,190.4,700.8,190.2z" />
	<path display="inline" fill="#405454" d="M637.5,220.3c0.9,0,1.8,0,2.8,0c0,0.2,0,0.3,0,0.5c-0.9,0-1.8,0-2.7,0   C637.6,220.7,637.6,220.5,637.5,220.3z" />
	<path display="inline" fill="#A3C3C3" d="M760.9,229.8c-0.6-0.4-1.2-0.7-2.3-1.4c1.2,0,1.8,0,2.4,0   C761,228.8,761,229.3,760.9,229.8z" />
	<path display="inline" fill="#EAA388" d="M54.9,319.3c-1.6-2.1-0.4-5.3-0.5-7.6c7.8-2,15.3-4.1,23-5.1c0-0.4,0-0.6-0.1-0.9   c-7.4-1.5-14.7-0.6-22.2,0.2c-0.3-1.9-0.1-2.8,0.3-4.7c28.5,1.3,54.2-14.4,82.5-14.7c32.8-1.5,65.6,7.1,98-1.3   c21.2-4.6,42.4-9.4,63.7-13.5c42.4-1,48.8-37.7,88.3-27.8c-7.8,21.8-4.7,44.8-2.2,67.1c-2.6-1-4.9-0.2-7.2,1.1   c-10.7,5.2-22.7,7.5-34.4,9.4c-32.4,4.5-66.4-1.4-98.8,2.8c-8.2-1.2-16.4,0-24-3.4c-2,1.3-1,3.7,0.2,5.2c-0.3,0.4-0.7,0.7-1,1.1   c1.5,0.5,3,1.3,4,2.6c0,0.2,0,0.4,0,0.6c0,0,0,0,0,0c-7.5-2.7-15.8-0.3-23.1-3.1c1-1.2,3.2-0.6,4-2.1l0,0c4.5-0.5,7.5-3.6,11.1-6.1   c-5.6-3.2-12.7,0.4-18.7,1.3c-3.5,1.2-6.7,1.2-10.3,0.5c-12.4,0.5-23.6,7.1-36.4,5.1C119,323.7,87.1,315.6,54.9,319.3z    M135.1,307.5c10.7,4,22.7,0.7,33.3-3c-2.1-1.3-3.9-1.9-5.6-3.6c-9.5,1-18.1,5.2-27.6,5.4C134.1,306.2,134.1,307.2,135.1,307.5z    M380,268.5c-5.3-5.2-15.1-7.6-21.7-3.7c-3.4,2.2-8.4,2.6-9.1,7.2c3.3,8.9,15.1,1,21.8,3.8c2.2-0.2,4.2-0.7,6.7-0.8   c0.7-0.7,1.6-1.5,2.3-2.2C380,271.2,380,269.8,380,268.5z M131.2,307.5c-0.5-1-2.4-0.6-1.8,0.5C130,308.6,130.9,308.4,131.2,307.5z   " />
	<path display="inline" fill="#F5DDCE" d="M557.6,284.8c8.7,9,21.4,13.8,33.8,12.7c-3.7,5.6-10.2,9.1-14.5,14.4   c-17,5.7-41.2,13.8-52.1-6.2c-3-6.8,3.1-6.4,1.5-10.6c-7.6,0.9-15.6,3.4-22.7,6.6c-3.3,1.4-6.3-2-10.2-0.8c0.3,0.7,0.5,1.3,0.7,2   c-4.5,0.6-8.5,1.2-12.9,0.8c-2.6-1.4-4.9-0.5-7.3,0.8c-9.2,0.5-18-0.2-26.8-3.4c2.1-2.6,6.2-2.9,7.7-6.2c0.1-3.1-4-2.3-6-1.8   c-19.6,5.6-39.8,16-60.7,12.1c-4.2-21.5-4.6-44.6,3.4-65.3c40.6,12.9,27.4,14.6,72.3,8c43.4-7.7,88.6-19.1,132.5-9.1   c-20.2,2.1-48,15.6-42.4,39.9c-0.3,0.1-0.7,0.4-0.8,0.3c-2.8-2.1-7-0.8-10.1,0.4c-4.3,2.6-11.8,1.2-14,6.3   C534.5,290.1,551.4,287.2,557.6,284.8z M430.2,255.9c-2.4-0.9-7.4-3.5-8.5-1.2C424.3,256.6,427,256.6,430.2,255.9z M435.6,255.7   c-0.7-0.3-1.3-0.3-2,0.1C434.1,257.3,434.2,257.3,435.6,255.7z M441.9,255.7c-0.6-0.6-1.3-1.1-1.6,0   C440.6,256.5,441.2,256.1,441.9,255.7z M459.5,253.4c-0.5-0.5-0.9-1-1.4-0.5C458.3,254,458.6,254,459.5,253.4z M452.3,253.8   c0-0.2,0-0.3,0-0.5c-0.6,0-1.1,0-1.7,0c0,0.2,0,0.4,0,0.5C451.1,253.8,451.7,253.8,452.3,253.8z M446,254.9   c-0.1-0.2-0.3-0.3-0.4-0.5c-0.4,0.2-0.1,0.5,0,0.8C445.8,255.1,445.9,255,446,254.9z" />
	<path display="inline" fill="#B28C7D" d="M833.7,276c2.4,0.5,4.5-0.7,6.5-1.2c2.2,0.8,4.2,1.6,6.4,2.4c-0.7,4.2-9,4.5-12,0.5   c-6.3,2.1-12.5,2.4-16.7-3.4c0.2-0.5,0.4-0.8,0.5-1.1c1.3-0.6,1.4-0.8,0.7-1.6c0.2-0.4,0.5-0.9,0.7-1.3c1-0.5,2.1-0.8,2.8-1.7   c-13-2.9-27.1-4-40.3-0.1c1.5,0.8,2.4,1.1,3.9,1.3c-21.1,2.6-42.1,9.7-63.4,7.7c-0.3-0.7-1-0.8-1.6-0.6c0.8-1,1.5-2.1,2.5-3.4   c-6.7-0.9-15.2,0.2-20.4,4.7c-11.2,0-22.1-1.5-33.1-1.7c-0.8-1.1-2-0.4-3.1-0.8c1.7-1.7,3.2-3.4,5-5.2c-4.9-1.7-10.2,1.4-15,2.7   c-10.1,3.1-21.3,4.3-31.6,1.1c3.5-3.1,3.5-3.1,4.5-6.5c-4.3-2.8-8.7,1.2-13.1,1.7c-6.2,1.4-13.8,0.7-19.2,4.2   c-7.4,1.9-15,0.6-21.8,4.4c-5.8,2.3-12.6,0.4-18.8,1c-8.3-26.1,26.9-37.6,47-38.8c25.4-2.6,47.6,11.8,72.4,14   c20.9,3.4,41.6-3.5,62.3-1.8c25.6,1.1,53.2,8.7,78,1.7c10.2,5.9,22.1,0.2,32.6,4.7c2.5,1,5.9,0.5,8.6,0.1c7-0.8,13,3.6,20.4,2.6   c-5.4,8.2-18.4,2.7-26.6,6.5c-7.1,1.9-13.3,7.7-21,6.9c-2.2-0.7-4.3-2.3-6.7-1.3C826.5,275.6,830.4,276.1,833.7,276z M717,263.5   c3.4,0.6,4.7-2.6,4.2-5.4c-2.8-4.1-9.9,0.5-10.7,4.1C712.1,264.2,714.8,263.3,717,263.5z M587.5,246.6c1.5-0.7,2.9-1,3.6-2.6   C589.5,243,586.6,244.4,587.5,246.6z M588.5,247.6c-2,0.1-3,1.1-2.7,2.8C587.3,250,588.2,249.3,588.5,247.6z M722.9,261.2   c1.2-0.6,1.9-0.7,2.6-1.7c-0.2-0.3-0.5-0.5-0.7-0.9C723.7,259,722.6,259.2,722.9,261.2z" />
	<path display="inline" fill="#B28C7D" d="M681,386.8c-0.1,1.5-0.1,3.1-0.2,4.9c-1,0.8-2.1,2-1.8,3.8c-3.9,1.9-9.9-0.1-13.4-2.1   c-30.7-4.2-61.2,2.5-91.8,0c-2.4-2.6-4.5-5-6.3-7c-0.5-6.7-0.1-13.1,1.2-19.1c1.9,2.6,2.2,5.1,4.9,6.3c-1.9-16.2-3.5-32.5-2.6-49.1   c1.5-1.9,3-3.9,4.5-5.8c1.4,1.1,2.9,2.2,4.9,0.9c0.1-2.1,0.6-4.2-0.7-6.2c4.5-6.1,10.5-11.2,16.6-15.8c-1.1,7.3-6.2,14.4-6.7,22   c1,10.8-2.3,21.5-2.5,32.3c-1.6,6,0.5,14-3.6,18.9c-2.3-0.2-4.1-0.1-4.2,3c27.5-12.4,62.4,14.9,89,1.5c7.2-9.7,14-8.2,24.7-5.8   c0.9,2.5,0.4,4.9,0.7,7.2c-1.9,2-5.4,0.9-6.8-1.3c-0.3-1.6,2-2.5,1.2-4.5c-0.9,0.1-1.9,0.3-3.4,0.5c-0.3,0.7-1.4,2.4-2,3.2   c0.5,2.3-0.4,4.4-0.9,6.5c-0.8,0-1.7,0-2.6,0c-0.9,1-1.6,1.9-2.3,2.7c-3.6,0.9-9.2,0.3-9.8,5C672,390.9,677.4,391.7,681,386.8   C681,386.8,681,386.8,681,386.8z M663.8,380.2c-1.8,1.6-2.1,3-1.3,5.7c0.3-0.2,0.8-0.4,0.8-0.6C663.2,383.6,664.6,382,663.8,380.2z   " />
	<path display="inline" fill="#E6CCBB" d="M388.2,305.3c20.9,4,41.1-6.5,60.7-12.1c2-0.6,6.1-1.3,6,1.8c-1.5,3.3-5.6,3.5-7.7,6.2   c8.8,3.2,17.6,3.9,26.8,3.4c2.3-1.3,4.7-2.2,7.3-0.8c4.4,0.4,8.4-0.2,12.9-0.8c-0.2-0.6-0.4-1.2-0.7-2c3.8-1.2,6.8,2.2,10.2,0.8   c7.1-3.3,15-5.7,22.7-6.6c1.6,4.3-4.5,3.7-1.5,10.6c10.9,20,35.1,11.8,52.1,6.2c-8.8,17.6-32.4,31-50,16.7   c-5.4-2.6-5.8-12.7-11.9-12.7c-26.4,3.8-53.4,1.9-80,2.5c-13.9,1.9-27.2,5.5-41.4,4.9C390.5,317.7,388.8,311.7,388.2,305.3z    M465.4,313.4c2.1,2.5,7.5,5.7,9.2,2.5C471.9,314.6,469.1,314.5,465.4,313.4z M462.1,311.6c-0.7-2-1.9-2.3-3.4-2.5   C458.9,310.9,458.9,310.9,462.1,311.6z M518.8,315.5c0.8-1.6-0.1-2.2-1.4-1.9C517,314.8,517.6,315.2,518.8,315.5z M517.8,311.5   c0.8,0.2,1.4,0.8,1.7,0C518.8,310.8,518.8,310.4,517.8,311.5z M457.6,308.7c-0.3-0.5-0.6-0.4-1-0.2   C456.9,309.1,457.1,309,457.6,308.7z M448.2,304.9c-0.2-0.2-0.3-0.1-0.5,0.1c0.2,0,0.3,0.1,0.5,0.1   C448.2,305,448.2,304.9,448.2,304.9z" />
	<path display="inline" fill="#F7EFD0" d="M9.4,298.8c11.9-4,24.5-2,36.4-5c1-0.2,2-0.4,2.6,0.9c-10.1,4.6-21.1,21.8-7,28.4   c8.6,4.2,17.6,3.5,26.6,6.4c-0.7,4.5-2.8,9.8-6.8,12.4c-3.1-1.5-7.3-0.3-9.9,1.6c0.8,4.1,6.4,2.1,9.1,0.8c0.3,1.3,0.6,2.6,1,4   c-2.2,0.1-4.2,0.2-6.2,0.3c-2.9,4,3.6,3.7,6.1,3c0.5,1.5,0,3-0.8,4.7c-5.3-0.8-7.3,3.7-0.8,3.7c-2,8,1.8,15.5,8.2,20.3   c-1.6,3.2-1.3,11.1-4,12.3c-9.4-5.6-21.8-6.2-29.2-14.8c-7.7-7.9-12.5-18.1-9.4-29.1C28,336.4,10.1,333,8.7,321.1   c-0.4-6.7,0.9-14.3-0.7-20.7C8.7,299.7,9.1,299.2,9.4,298.8z M55.1,366.3c0.1,1.5,2.7,2.5,2.9,0.5   C57.5,365.5,55.9,364.4,55.1,366.3z" />
	<path display="inline" fill="#977264" d="M557.1,278.9c6.2-0.6,13,1.3,18.8-1c6.8-3.8,14.4-2.6,21.8-4.4c5.4-3.5,13-2.8,19.2-4.2   c4.4-0.5,8.8-4.5,13.1-1.7c-0.9,3.4-0.9,3.4-4.5,6.5c10.2,3.2,21.5,2,31.6-1.1c4.8-1.2,10.1-4.4,15-2.7c-1.7,1.8-3.3,3.5-5,5.2   c1.1,0.4,2.2-0.3,3.1,0.8c11,0.2,21.9,1.8,33.1,1.7c5.2-4.4,13.7-5.6,20.4-4.7c-1,1.3-1.7,2.3-2.5,3.4c-1.2,0-2.6-0.6-3.3,1.1   c2,1.3,2.1,1.3,5.4,0.7c0-0.3,0-0.7,0-1c21.2,1.4,41.9-5.3,62.8-7.9c-1.5-0.1-2.4-0.5-3.9-1.3c12.8-4.1,26-2.4,39-0.5   c-3.1,1.7-6.7-1-9.8,1.3c0.4,0.5,0.6,0.7,0.9,1c0,0.4,0,0.9,0,1.3c-35.6,3.6-70.2,15.8-106.1,13.8c-18-0.8-36-2.1-53.9,0   c-15.9,0.5-33-6.7-48.3-0.3c1,0.4,1.4,0.5,2.3,0.6c-2.6,3.9-7.9,6.4-11.8,9.4C580.8,296.2,563.7,292.4,557.1,278.9z M600.1,283.1   c-2.4-0.6-3.3-0.3-4.6,1.5C599.3,285.1,599.3,285,600.1,283.1z M581.1,286.2c1.9,0.3,3-0.1,4.1-1   C583.9,283.9,583.7,283.9,581.1,286.2z M594.2,284.5c-1.3-1.1-1.7-1-3.1,0.9C592.3,285.7,593.4,285.6,594.2,284.5z M574.8,285.8   c1.1,0.4,2.1,1.4,3.6,0.1C576.9,285.4,576,284.3,574.8,285.8z M808.5,269.7c-1-0.4-2-0.8-2.7,0.7C807,271.1,807.9,271,808.5,269.7z   " />
	<path display="inline" fill="#D69479" d="M221.5,326c-1.3-1.5-2.2-3.9-0.2-5.2c7.6,3.4,15.8,2.3,24,3.4c32.4-4.2,66.4,1.7,98.8-2.8   c11.6-1.9,23.7-4.2,34.4-9.4c2.3-1.3,4.6-2.1,7.2-1.1c0.1-0.5,0.2-0.9,0.3-1.2c1.3,4.7,2.8,9,4.3,13.8c-23.2,6-45.5,16.4-70,15.8   c-23-0.3-46.3-0.7-69.1-3.6c-6.5-0.9-14.4-6.2-20.1-2.5c0.6-1.7,0.6-1.7-1.4-2.1C229.5,327.8,223.7,328.2,221.5,326z" />
	<path display="inline" fill="#B28C7D" d="M669.4,319.3c-0.3,0.1-0.7,0.3-0.8,0.2c-1.6-0.8-2.9,0.8-4.4,1.2c-1.5-1.5-3-2.9-4.4-4.4   l0,0c-0.3-1-0.6-2-0.9-3c0.2-1,0-1.7-1.1-1.8c-1.3,0.8-0.7,2.2-1,3.3c-2.3-0.3-3.2,2.3-5.1,3.6c-2.8-1.3-6.3,0.6-9.5,0   c-0.3-0.4-0.6-0.8-0.8-1.3c1.3-10.5,3.4-20.9,9.9-29.5c21.2-1.2,42.3-2,63.5,0.6c12.1,14.8-13.9,27.5-26.7,24.5   c-8.4-2.2-11,13.7-17.5,9c-0.5-1,1.1-0.9,0.3-1.8c0.5-1.3-1.4-4.5-2.3-2.2c0.2,0.3,0.4,0.6,0.6,0.9   C669.1,319,669.2,319.1,669.4,319.3z M682.5,305.3c-0.7,0.4-1.5,1.3-1.9,1.8c-1.5-0.1-0.5-2.1-1.9-2.2c-1.9,2.2,1.1,4.1,3.1,3.4   c1.6,1.3,3.5,0.6,5,0.8c2.2,1.3,3.2,3.3,5.8,3.6c-0.4-1.3-1.2-1.6-2.1-1.9c-0.3-0.6-0.6-1.3-0.9-2c5-2.1,0.8-6.8-2.9-8.8   c1.5,2.5,2.7,4.2,4.5,5.5c-0.5,1-1.3,1.3-2.5,1.4c-1.9-2.8-2.6-6.3-4.4-9.6c-0.4,1.6-0.8,2.9-1.1,4c0.6,0.5,1,0.9,1.4,1.2   c-0.6,0.1-1.3,0.2-2,0.3C682.5,303.7,682.5,304.5,682.5,305.3z M692.7,297.3c4.8,4.4,1.5,8.4,2.6,13c3.4,0.5,2.4-4.6,3.2-6.7   c0.7-2.8-4.8-8-7.2-8.2C691.3,296.5,691.9,296.9,692.7,297.3z M666.7,316.8c2.1-2.7,2.1-4.2,5.8-2.7   C670.8,310.7,665.2,313.3,666.7,316.8z" />
	<path display="inline" fill="#977264" d="M570.9,324.4c-0.9,16.6,0.7,32.9,2.6,49.1c-2.7-1.1-3-3.7-4.9-6.3   c-1.3,6-1.7,12.4-1.2,19.1c1.8,2,3.9,4.4,6.3,7c30.6,2.5,61.1-4.3,91.8,0c3.5,2,9.6,4,13.4,2.1c4.1,5.1,10.8,4.5,16.6,4.1   c-1.2,4.7-4.9,2.7-8,4.1c-3.6-0.2-6.1-2.1-8-4.9c-1.5,0.5-1.3,1.5-0.9,2.4c-4.7,0.8-10.5-2.2-14.2-5.5c-23.1,1.3-45.9,3.2-69.2,2.3   c-14.4,1-35.3,3.8-35.4-16.4c-1.5-15.2-0.9-30.5,0.8-45.6C561.4,330.4,567.6,328.2,570.9,324.4z M562.9,338.9   c-1.6,1.8-1.6,1.8-0.2,3.6C563.7,341.5,563.8,340.4,562.9,338.9z M565.6,391.2c1.2,2.9,1.2,2.9,3,2.5   C568.2,392.4,567.6,391.5,565.6,391.2z M563.4,345.7c-1.9,0.8-1.5,2.2,0.3,2.7C563.5,347.3,563.4,346.5,563.4,345.7z M565.1,352.7   c-0.5-0.4-0.9-0.6-1.2-0.9c-0.5,1-0.3,0.9,0.2,2C564.5,353.4,564.7,353.1,565.1,352.7z" />
	<path display="inline" fill="#D69479" d="M54.9,319.3c32.2-3.7,64.1,4.4,96.1,6.6c12.8,2,24.1-4.7,36.4-5.1   c3.6,0.8,6.8,0.8,10.3-0.5c6-0.9,13.1-4.6,18.7-1.3c-3.6,2.5-6.6,5.7-11.1,6.1c-1.4-1.5-1.4-1.5-2.1,0c0.8,0,1.5,0,2.1,0   c-0.8,1.5-3,0.9-4,2.1c7.3,2.8,15.6,0.5,23.1,3.1c0.7,1,0.8,1.9,0,2.9c-11.3-2.1-23.1,0.9-33.7-4.4c-15,0.3-29.8,3.4-44.9,2.2   c-30,0-58.4-12-88.7-6.7C56.2,322.9,55.2,321.3,54.9,319.3z M189.6,327.9c2.6,0.4,2.6,0.4,4.6-0.8C192,325.8,191,326,189.6,327.9z    M199.1,325.8c0-0.2,0-0.4,0-0.7c-0.5,0.1-1,0.2-1.5,0.3c0,0.1,0,0.2,0,0.4C198.1,325.8,198.6,325.8,199.1,325.8z" />
	<path display="inline" fill="#EBDDB8" d="M9.4,298.8c-0.4,0.5-0.8,0.9-1.4,1.6c1.5,6.4,0.3,14,0.7,20.7   c1.3,11.9,19.2,15.3,16.6,27.8c-3.1,11,1.7,21.2,9.4,29.1c7.4,8.6,19.9,9.1,29.2,14.8c-10.1,7.7-21.1-4.3-29.9-8.9   c-13.7-8.6-16.4-23.5-15.1-38.6c-12-9.2-17-24.8-15.6-39.7c-0.3-0.2-0.6-0.5-1.1-0.9c0.3-1.6,0.6-3.2,0.9-5.1   C5.4,299.4,7.4,299.1,9.4,298.8z" />
	<path display="inline" fill="#E9A287" d="M239.9,281.1c-34.8,10.3-70.9,2.4-106.3,1.6c22.6-5.9,46.9-7.1,69.6-0.8   C215,286.1,228.5,279.3,239.9,281.1z" />
	<path display="inline" fill="#967264" d="M655.4,287.7c-1.3,0-2.7,0-4.2,0c-6.5,8.6-8.6,19.1-9.9,29.5c-4.8-6.5,0.8-15.4-3.2-22.3   c-4.5-3.9-10.6-1.5-15.5-4c-6.3,1.1-12.6-0.2-19.5,1.3c8.9-7.6,11.6-7.9,22.8-6.6c0.5,1.2,1.6,1.5,2.7,1.2   c6.5-1.4,13.2-0.8,19.7,0.2c-0.1,1.1-0.2,2-0.2,2.9c-0.2,0.1-0.4,0.1-0.4,0.4c0.1-0.1,0.2-0.3,0.3-0.4c1.2-0.5,1.1-1.9,2-2.9   C651.8,287,653.7,286.7,655.4,287.7z" />
	<path display="inline" fill="#E6CCBB" d="M557.6,284.8c-6,2.4-23.3,5.3-28.4,1c2.2-5.1,9.7-3.7,14-6.3c3-1.2,7.2-2.5,10.1-0.4   c0.1,0.1,0.5-0.2,0.8-0.3C555.2,280.9,556.4,282.8,557.6,284.8z" />
	<path display="inline" fill="#B18B7C" d="M49.9,299.4c1,0.3,2,0.6,3,0.9c-0.8,4.2-1.6,8.3-2.4,12.3c-1.6-0.2-4,1-5.2-0.1   c0.1-0.8,0.1-1.6,0.2-2.4c1.4-0.5,1.8-0.8,2.8-1.7c-0.4-1-1.3-0.9-2.1-0.8c-5.5,0.7-3.3,7.9-3.4,11.8c-0.6,0.2-1.2,0.4-1.8,0.6   c-6.6-4.5-1.3-13.3,1.8-18.6C45.2,300.6,47.3,299.1,49.9,299.4z" />
	<path display="inline" fill="#E39F85" d="M325.8,264.1c-21.6,4.5-43.6,8-65.2,12.7c-0.5-0.3-1-0.5-1.6-0.8   c22.4-6.1,45.4-11.5,68.2-13.3c0,0.3,0,0.5,0,0.8C326.7,263.7,326.2,263.8,325.8,264.1z" />
	<path display="inline" fill="#F2EACB" d="M72.7,385.8c-1.4,0.4-2.1,1.3-3.4,0.8c0.4-2.3,0.8-4.7,1.3-7.1c-7-4.5-10.7-13-7.9-21.1   c2.6,3,2.2,6.7,3.2,10.3C69.6,377.7,78,368.9,72.7,385.8z" />
	<path display="inline" fill="#D69479" d="M54.9,303.8c0.1,0.6,0.1,1.2,0.2,2.1c7.5-0.8,14.8-1.7,22.2-0.2c0,0.2,0,0.5,0.1,0.9   c-7.7,1.1-15.2,3.1-23,5.1c-0.1,1.5-0.2,3.2-0.3,4.9C52.5,312.6,53.7,307.8,54.9,303.8z" />
	<path display="inline" fill="#967163" d="M45.3,312.6c1.2,1.1,3.6,0,5.2,0.1c0,4,1.5,7.7,3.1,11.6c-4.4-0.4-8.8-2-12.6-4.3   c0.6-0.2,1.2-0.4,1.8-0.6c-0.1-1.2-0.2-2.2-0.3-3.2C47.1,318,42,314,45.3,312.6z" />
	<path display="inline" fill="#AC887A" d="M701.5,378.7c2.8,5.8-7.4,5-10.9,5.8c-0.3-1.2-0.5-2.4-0.8-3.6c2.6-0.4,5.3-0.5,7.6-2.1   c-1.2,0-2.9,1.2-3.9,0l-0.1,0c0.9-0.7,1.7-1.3,2.7-2C697.9,377.4,699.7,378.1,701.5,378.7z" />
	<path display="inline" fill="#C68E76" d="M361.1,240.2c8.7-3.2,18.8-2.4,27.6-0.6c0.6,1.8-2,1.1-2.9,1.1   c-7.7-1.9-15.4-0.6-23.2,0.2C362.1,240.7,361.6,240.4,361.1,240.2z" />
	<path display="inline" fill="#BB8872" d="M259,276c0.5,0.3,1,0.5,1.6,0.8c-6.6,1.9-13.9,3.2-20.7,4.3c-0.5-1.1-1.5-0.5-2.3-0.8   C244.6,278.3,251.9,277,259,276z" />
	<path display="inline" fill="#937063" d="M579.6,313.3c1.3,2,0.8,4.1,0.7,6.2c-2,1.3-3.5,0.2-4.9-0.9   C576.8,316.8,578.2,315.1,579.6,313.3z" />
	<path display="inline" fill="#DD9C82" d="M224.5,333.2c0.8-1,0.7-1.9,0-2.9c1.5-0.3,3,0.6,4.4,0.9c0.3,0.6,0.5,0.5,0.7-0.1l0.1,0   c2,0.4,2,0.4,1.4,2.1C228.9,333.2,226.7,333.2,224.5,333.2z" />
	<path display="inline" fill="#9B8072" d="M689,378.7c-1.3,1.2-3,0.7-4.9,0.9c-0.7-1.2,0-2.6-0.1-4.1   C685.9,376.6,686.6,378.8,689,378.7z" />
	<path display="inline" fill="#936D5B" d="M361.1,240.2c0.5,0.2,1,0.5,1.5,0.7c-3.2,1.1-6.6,1.8-9.7,3.5c-0.3-0.2-0.5-0.5-0.8-0.7   C355,242.1,358,241,361.1,240.2z" />
	<path display="inline" fill="#2A2929" d="M650.2,212.4c1.9-0.3,3.6-0.5,5.5-0.8c0.3,0.1,0.8,0.4,1.3,0.7   C655.7,214.3,651.8,214.2,650.2,212.4z" />
	<path display="inline" fill="#7E8B79" d="M24.9,293.7c3.1-1.4,6.6-0.9,10.3-0.5c-3.4,1.1-6.8,0.6-10.3,1.1   C24.8,294,24.8,293.8,24.9,293.7z" />
	<path display="inline" fill="#BD8871" d="M352.1,243.6c0.3,0.2,0.5,0.5,0.8,0.7c-1.9,1.3-3.8,2.6-5.8,3.9c-0.3-0.3-0.5-0.6-0.8-0.9   C348,245.7,349.8,244.3,352.1,243.6z" />
	<path display="inline" fill="#AE816C" d="M133.6,282.7c1.6,0.9,3.4,0.6,5.2,0.7c-3.3,1-6.7,0.7-10,0.5   C130.3,283.4,131.8,282.5,133.6,282.7z" />
	<path display="inline" fill="#D1CBB1" d="M15.3,294.9c-2,0.2-4,1.1-6.1,1c0.1-3,4.1-1.1,5.9-1.4C15.2,294.6,15.3,294.8,15.3,294.9z   " />
	<path display="inline" fill="#639784" d="M15.1,294.5c-1.5-0.1-2.9-0.2-4.4-0.3c3-0.7,6-0.5,9-0.5c0,0.2,0,0.3,0,0.5   C18.2,294.3,16.7,294.4,15.1,294.5z" />
	<path display="inline" fill="#231816" d="M583.4,371.2c-1.8,0.2-2.4,1.9-4.2,2.4c0.2-3.1,2-3.2,4.2-3   C583.4,370.9,583.4,371.1,583.4,371.2z" />
	<path display="inline" fill="#493930" d="M78.4,295.8c1.1-1.4,2.6-0.6,3.9-0.6c-1.3,0.7-2.4,1.6-4,1.2   C78.4,296.2,78.4,296,78.4,295.8z" />
	<path display="inline" fill="#644439" d="M76.3,296.6c-1.5,1.3-3.2,0.4-4.8,0.2c1.1-0.3,2.3-0.6,3.4-0.9   C75.4,296.2,75.9,296.4,76.3,296.6z" />
	<path display="inline" fill="#A1BBA3" d="M19.7,294.3c0-0.2,0-0.3,0-0.5c1.7,0,3.4,0,5.1-0.1c0,0.2,0,0.3,0,0.5   C23.1,294.2,21.4,294.2,19.7,294.3z" />
	<path display="inline" fill="#ABD5D5" d="M629.3,238.7c1.6-0.1,2.7-0.2,3.9-0.2c0,0.5-0.1,0.8-0.1,1.3   C631.9,239.8,630.9,239.4,629.3,238.7z" />
	<path display="inline" fill="#313232" d="M746.6,245.1c1.3-0.7,2-1.1,2.7-1.5C749.9,244.7,748.5,246.2,746.6,245.1z" />
	<path display="inline" fill="#282727" d="M642.8,227.6c-0.5,0.5-1,1-1.6,1.5C641,227.8,641,227.8,642.8,227.6z" />
	<path display="inline" fill="#222424" d="M738.5,247.8c0-1.3,0-1.9,0-2.5C740.5,245.5,739.7,246.7,738.5,247.8z" />
	<path display="inline" fill="#624439" d="M346.3,247.4c0.3,0.3,0.5,0.6,0.8,0.9c-0.7,0.5-1.5,1-2.4,1.6   C345.1,248.4,345.1,248.4,346.3,247.4z" />
	<path display="inline" fill="#615D52" d="M49.9,299.4c-0.3,0-0.6,0-0.9,0c0.1-0.7,0.2-1.3,0.4-2.3c0.7,0.4,1.1,0.7,1.6,0.9   C50.6,298.6,50.3,299,49.9,299.4z" />
	<path display="inline" fill="#9B8670" d="M76.3,296.6c-0.5-0.2-1-0.5-1.5-0.7c1.2,0,2.4-0.1,3.6-0.1c0,0.2,0,0.4-0.1,0.6   C77.7,296.5,77,296.6,76.3,296.6z" />
	<path display="inline" fill="#212B2B" d="M652,234.4c0.7,0,1.5,0,2.2,0c0,0.1,0,0.2,0,0.4c-0.7,0-1.5,0-2.2,0   C652,234.6,652,234.5,652,234.4z" />
	<path display="inline" fill="#373535" d="M747.9,206.8c-0.7,1.1-1.6,0.7-1-0.4C747.1,206.5,747.4,206.6,747.9,206.8z" />
	<path display="inline" fill="#313333" d="M744.9,234.5c0.4-0.3,0.8-0.6,1.3-1c0,0.8,0,1.3,0,2.1   C745.6,235.2,745.3,234.9,744.9,234.5z" />
	<path display="inline" fill="#9C7662" d="M325.1,262.9c-0.9,1.1-2,0.6-3.1,0.5C322.9,262.5,324,262.8,325.1,262.9z" />
	<path display="inline" fill="#B18977" d="M15.1,294.5c0.8-0.1,1.6-0.1,2.4-0.2c-0.6,0.9-1.5,0.7-2.3,0.6   C15.3,294.8,15.2,294.6,15.1,294.5z" />
	<path display="inline" fill="#9C7662" d="M327.2,263.5c0-0.3,0-0.5,0-0.8C328.2,262.4,328.1,263.6,327.2,263.5z" />
	<path display="inline" fill="#2F4747" d="M660.1,247.7c-0.3,0.3-0.5,0.4-0.8,0C659.5,247.3,659.8,247.6,660.1,247.7z" />
	<path display="inline" fill="#333939" d="M688,235.3c-0.3-0.3-0.4-0.5,0-0.8C688.4,234.8,688.1,235,688,235.3z" />
	<path display="inline" fill="#0C0807" d="M694.5,378.1c-0.3,0.2-0.6,0.5-0.9,0.7C693.8,378.6,694.1,378.3,694.5,378.1z" />
	<path display="inline" fill="#9C7662" d="M325.8,264.1c0.3-0.1,0.6-0.3,0.9-0.4C326.4,263.8,326.1,263.9,325.8,264.1z" />
	<path display="inline" fill="#768181" d="M707.7,193.2c0.1,0.1,0.2,0.2,0.3,0.3c-0.1,0.1-0.2,0.1-0.3,0.2   C707.7,193.5,707.7,193.4,707.7,193.2z" />
	<path display="inline" fill="#7A6458" d="M812.4,271.5c0-0.4,0-0.9,0-1.3c2.5,0,4.9,0,7.4,0c-0.2,0.4-0.5,0.9-0.7,1.3   C816.7,271.3,814.6,270.6,812.4,271.5z" />
	<path display="inline" fill="#747E8B" d="M720.4,288c1.3,0,2.3-0.7,2.3,0.7C721.9,289.6,721.5,288.7,720.4,288z" />
	<path display="inline" fill="#9B7E71" d="M869.7,267.4c4.1-1.8,9.1-0.7,11.2-6c0.5,0,1,0.1,1.5,0.1   C884.9,266,872.5,269.4,869.7,267.4z" />
	<path display="inline" fill="#75443D" d="M869.7,267.4c0.5,0.9,1.5,0.4,2.2,0.7c-3.5,1.4-7.6,0.2-11.7,0.6   C862.8,265.9,866.5,267.8,869.7,267.4z" />
	<path display="inline" fill="#2A1C18" d="M833.7,276c-3.3,0.2-7.2-0.4-9.5-2.6c3.2-1.5,5.8,2.2,8.8,1.2   C833.2,275,833.4,275.5,833.7,276z" />
	<path display="inline" fill="#383731" d="M862.2,269.5c2.5,0,5.1,0,7.6,0c-2.4,0.6-5.3,2.4-7.5,0.7   C862.3,269.9,862.3,269.7,862.2,269.5z" />
	<path display="inline" fill="#483C36" d="M884.3,264.3c0,2.1-1.8,2.2-2.9,3C880.1,266.1,883.6,265.1,884.3,264.3L884.3,264.3z" />
	<path display="inline" fill="#383731" d="M875.5,269.5c-1.2,1.1-2.7,0.4-4.1,0.2c0.7-0.3,1.3-0.6,2-1   C873.9,269.8,874.8,269.2,875.5,269.5z" />
	<path display="inline" fill="#5E6258" d="M862.2,269.5c0,0.2,0.1,0.4,0.1,0.7c-1.5,0-3.1,0-4.6,0c0-0.2,0-0.3,0-0.5   C859.1,269.4,860.7,269.4,862.2,269.5z" />
	<path display="inline" fill="#87766A" d="M875.5,269.5c-0.7-0.3-1.7,0.2-2.1-0.8c1.1,0,2.1-0.1,3.2-0.1   C876.5,269.4,876,269.4,875.5,269.5z" />
	<path display="inline" fill="#483C36" d="M884.3,264.2c0.1-0.2,0.2-0.3,0.3-0.5C885,264.2,884.5,264.2,884.3,264.2L884.3,264.2z" />
	<path display="inline" fill="#977264" d="M678.8,388.9c-3.6,3-7.8,1.1-11.7-0.4c0.6-4.7,6.2-4.1,9.8-5c0.7-0.8,1.5-1.7,2.3-2.7   c0.9,0,1.7,0,2.6,0c0,0.5,0,1-0.1,1.5c-1,0.5-0.6,1.4-0.6,2.2c-1.6,1-2.9,2.3-3.9,4.2C677.9,388.8,678.3,388.9,678.8,388.9z" />
	<path display="inline" fill="#AF897A" d="M700.1,384.4c1.4,0.8,1.7,2.2,2.2,3.5c-0.5,1.1-1,2.1-1.4,3.2c-3.7,0.7-7.4,0.7-11,1.4   c0-1.3,0-2.5,0-3.7C693.2,387,696.3,385.4,700.1,384.4z" />
	<path display="inline" fill="#A98375" d="M693.5,394.2c1.9,0.1,3.7-1.2,5.9-0.5c-1.9,5-6.6,5.1-11,4.2c0.1-0.9,0.1-1.8,0.2-2.9   C690.4,394.8,692,395.3,693.5,394.2z" />
	<path display="inline" fill="#937062" d="M692,387.6c-0.7,0.4-1.3,0.8-2.2,1.3c0,1.2,0,2.4,0,3.7c-1.5,0-2.9,0-4.4,0   c-0.9-0.8-1.8-1.6-2.8-2.4c-0.1-0.9-0.1-1.6,0.3-2.5C686,387.6,689,387.3,692,387.6z" />
	<path display="inline" fill="#8D6F62" d="M693.5,394.2c-1.4,1.1-3,0.6-4.9,0.8c-0.1,1-0.2,2-0.2,2.9c-2.5,0.1-7.4-0.4-7.2-3.7   c0.3-0.7,1.1-1.1,2.2-0.6C686.6,394.8,690.1,394,693.5,394.2z" />
	<path display="inline" fill="#8B6A5D" d="M689.8,380.9c0.3,1.2,0.5,2.4,0.8,3.6c-2,0.4-3.8-0.2-5.8-1c0.2-0.8,0.4-1.5,0.6-2.4   C687,381,688.4,381,689.8,380.9z" />
	<path display="inline" fill="#775D52" d="M681,384.6c0.1-0.8-0.3-1.7,0.6-2.2c0,0.5,0.1,1,0.1,1.4c1.3,0.6,2.6,1.3,4.3,2.1   c-2,0.1-3.7,0-5.1,0.9c0,0,0,0,0,0C681,386.1,681,385.3,681,384.6z" />
	<path display="inline" fill="#937062" d="M691.3,392.5c1.1-1.1,2.5-0.5,3.8-0.5C693.9,392.9,692.6,392.6,691.3,392.5z" />
	<path display="inline" fill="#926E60" d="M654.6,315.7c0.4-1.1,1.4-0.7,2.1-0.8c0.2,2.3,0.4,4.5,0.6,7.1c-1.4,2.3-4.8,0.3-4.7-1.9   C652.7,318.2,654.6,317.4,654.6,315.7z" />
	<path display="inline" fill="#8E6B5E" d="M663.3,321.5c-0.1,0.3-0.1,0.7-0.2,1.1c-4.6,3.1-6.8-8.2-3.4-6.2l0,0   C659.7,318.5,662.2,319.8,663.3,321.5z" />
	<path display="inline" fill="#563F38" d="M663.3,321.5c-1.1-1.7-3.6-3-3.6-5.2c1.5,1.5,3,2.9,4.4,4.4   C663.9,321,663.6,321.2,663.3,321.5z" />
	<path display="inline" fill="#0F0B0A" d="M668.5,317.8c0.9-2.4,2.8,0.9,2.3,2.2c-0.5-0.4-1.7-0.4-1.6-1.2   C669,318.4,668.8,318.1,668.5,317.8z" />
	<path display="inline" fill="#563F38" d="M659.8,316.4c-0.5,0.1-1.1-1-1.6,0.1c-1.4-0.8,0.2-2.1,0.7-3   C659.1,314.4,659.4,315.4,659.8,316.4z" />
	<path display="inline" fill="#D69479" d="M380,268.5c0,1.3,0,2.6,0,4.4c-0.7,0.7-1.6,1.5-2.3,2.2c-2.5,0.1-4.5,0.5-6.7,0.8   c-6.7-2.8-18.5,5.1-21.8-3.8c0.8-4.6,5.7-5,9.1-7.2C364.9,261,374.7,263.3,380,268.5z" />
	<path display="inline" fill="#D49378" d="M165.8,305.5c-1,1.1-2.6,0.4-3.6,1.3c-8.8,1.4-18,4.7-26.5,0.8c1-0.3,2.3-0.2,2.8-1.4   c1.5-0.3,3-0.6,4.6-0.7c0.1,0.4,0.1,0.9,0.2,1.3c1.6-0.1,1.6-0.1,2.3-1.3c-0.7-0.1-1.2-0.1-1.8-0.2c6-2.5,12.6-3.1,19-4.5   c1.4,1.3,2.9,2.2,4.5,3c-2.4,0.1-4.6,0.6-6.9,1.6C162.2,305.4,164,305.4,165.8,305.5z M157.1,304.8c-2.8-0.2-5,0.2-6.6,1.3   C155,306.3,155,306.3,157.1,304.8z" />
	<path display="inline" fill="#1C1411" d="M228.9,331.1c-3.1-0.3-5-2.3-7.5-3.7c0.5-0.2,1-0.4,1.6-0.6c1.8,2,6.7,1,6.7,4.3l-0.1,0   C229.4,331,229.2,331.1,228.9,331.1z" />
	<path display="inline" fill="#44251F" d="M165.8,305.5c-1.8,0-3.6-0.1-5.4-0.1c2.2-1,4.5-1.5,6.9-1.6c0.3,0.2,0.5,0.3,1.1,0.7   C167.2,304.9,166.5,305.2,165.8,305.5z" />
	<path display="inline" fill="#5A211B" d="M138.5,306.1c-0.6,1.2-1.8,1.1-2.8,1.4c-0.1-0.1-0.4-0.1-0.6-0.1c0-0.4,0-0.9,0.1-1.3   C136.3,306.2,137.4,306.1,138.5,306.1z" />
	<path display="inline" fill="#7D5546" d="M143.7,305.3c0.6,0,1.2,0.1,1.8,0.2c-0.6,1.2-0.6,1.2-2.3,1.3c-0.1-0.4-0.1-0.8-0.2-1.3   C143.3,305.4,143.5,305.3,143.7,305.3z" />
	<path display="inline" fill="#926252" d="M131.2,307.5c-0.3,0.9-1.2,1.1-1.8,0.5C128.8,306.8,130.7,306.5,131.2,307.5z" />
	<path display="inline" fill="#0C0101" d="M223,326.8c-0.5,0.2-1,0.4-1.6,0.6c-0.3-0.1-0.6-0.2-0.9-0.3c0.3-0.4,0.7-0.7,1-1.1   C222,326.3,222.5,326.5,223,326.8z" />
	<path display="inline" fill="#D49378" d="M135.2,306.2c0,0.4,0,0.9-0.1,1.3C134.1,307.2,134.1,306.2,135.2,306.2z" />
	<path display="inline" fill="#D69479" d="M223,328.2c0.2,0.2,0.4,0.4,0.7,0.6C223.5,328.6,223.3,328.4,223,328.2z" />
	<path display="inline" fill="#D69479" d="M224.5,329.7c0.3,0.2,0.7,0.3,1,0.5c-0.3,0-0.7,0.1-1,0.1   C224.5,330.1,224.5,329.9,224.5,329.7z" />
	<path display="inline" fill="#2B1F1D" d="M430.2,255.9c-3.2,0.6-5.9,0.7-8.5-1.2C422.8,252.5,427.8,255,430.2,255.9z" />
	<path display="inline" fill="#553E3A" d="M435.6,255.7c-1.4,1.6-1.5,1.6-2,0.1C434.3,255.4,434.8,255.4,435.6,255.7z" />
	<path display="inline" fill="#75655E" d="M441.9,255.7c-1.1,1.1-2.2-0.1-1-0.7C441.2,255.1,441.5,255.4,441.9,255.7z" />
	<path display="inline" fill="#88776F" d="M459.5,253.4c-1,0.5-1.3,0.6-1.4-0.5C458.6,252.4,459,252.9,459.5,253.4z" />
	<path display="inline" fill="#1A0E0D" d="M452.3,253.8c-0.6,0-1.1,0.1-1.7,0.1c0-0.2,0-0.4,0-0.5c0.6,0,1.1,0,1.7,0   C452.2,253.5,452.3,253.6,452.3,253.8z" />
	<path display="inline" fill="#46524D" d="M446,254.9c-0.1,0.1-0.3,0.2-0.4,0.4c-0.1-0.3-0.3-0.6,0-0.8   C445.8,254.6,445.9,254.7,446,254.9z" />
	<path display="inline" fill="#977264" d="M717,263.5c-2.2-0.1-4.9,0.7-6.5-1.3c0.8-3.6,7.9-8.2,10.7-4.1c0,0.9,0,1.8,0,2.8   c-1.9-0.4-3.6-0.5-4.9,1.3C716.6,262.7,716.8,263.1,717,263.5z" />
	<path display="inline" fill="#0F0B09" d="M819.7,270.2c-2.5,0-4.9,0-7.4,0c-0.2-0.3-0.5-0.5-0.9-1c3.1-2.2,6.7,0.4,9.8-1.3   c0.2,0,0.4,0,0.5,0c0,0.4,0,0.9-0.1,1.3C821.1,269.6,820.4,269.9,819.7,270.2z" />
	<path display="inline" fill="#1C1311" d="M717,263.5c-0.2-0.4-0.4-0.8-0.7-1.4c1.3-1.8,3.1-1.7,4.9-1.3   C720.9,262.8,718.9,263.7,717,263.5z" />
	<path display="inline" fill="#180E0C" d="M723.4,277.6c0,0.4,0,0.7,0,1c-3.4,0.6-3.4,0.6-5.4-0.7c0.7-1.7,2.1-1.1,3.3-1.1l0,0   C722,277,722.7,277.4,723.4,277.6z" />
	<path display="inline" fill="#352823" d="M587.5,246.6c-0.9-2.2,2-3.6,3.6-2.6C590.5,245.6,589.1,246,587.5,246.6z" />
	<path display="inline" fill="#271B18" d="M588.5,247.6c-0.3,1.7-1.1,2.4-2.7,2.8C585.5,248.6,586.4,247.6,588.5,247.6z" />
	<path display="inline" fill="#1E1513" d="M722.9,261.2c-0.3-2,0.8-2.2,1.9-2.6c0.3,0.3,0.5,0.6,0.7,0.9   C724.9,260.6,724.2,260.6,722.9,261.2z" />
	<path display="inline" fill="#977264" d="M722.8,277.4c-0.5-0.2-1-0.4-1.5-0.6C721.9,276.7,722.5,276.7,722.8,277.4z" />
	<path display="inline" fill="#977264" d="M821.7,269.3c0-0.4,0-0.9,0.1-1.3c0.3,0.2,0.5,0.3,0.8,0.5   C822.3,268.8,822,269,821.7,269.3z" />
	<path display="inline" fill="#332925" d="M663.8,380.2c0.5,1.4-0.2,5.2-1.3,5.7C661.7,383.2,662,381.7,663.8,380.2z" />
	<path display="inline" fill="#2C1F1B" d="M681,384.6c0,0.8,0,1.5,0,2.3c-0.7,0.7-1.5,1.4-2.2,2.1c-0.4,0-0.9-0.1-1.6-0.2   C678.1,386.8,679.4,385.5,681,384.6z" />
	<path display="inline" fill="#271D1B" d="M465.4,313.4c3.7,1.1,6.5,1.1,9.2,2.5C473,319.1,467.6,316,465.4,313.4z" />
	<path display="inline" fill="#2F1C1A" d="M462.1,311.6c-3.2-0.7-3.2-0.7-3.4-2.5C460.1,309.3,461.4,309.6,462.1,311.6z" />
	<path display="inline" fill="#210909" d="M518.8,315.5c-1.2-0.3-1.9-0.7-1.4-1.9C518.7,313.3,519.6,313.9,518.8,315.5z" />
	<path display="inline" fill="#573A35" d="M517.8,311.5c1-1.1,1-0.7,1.7,0C519.2,312.3,518.6,311.7,517.8,311.5z" />
	<path display="inline" fill="#5D3C37" d="M457.6,308.7c-0.5,0.3-0.7,0.4-1-0.2C457.1,308.3,457.3,308.2,457.6,308.7z" />
	<path display="inline" fill="#4E3531" d="M448.2,304.9c0,0.1,0,0.1,0,0.2c-0.2,0-0.3-0.1-0.5-0.1   C447.9,304.8,448,304.7,448.2,304.9z" />
	<path display="inline" fill="#271F1B" d="M55.1,366.3c0.8-1.9,2.3-0.8,2.9,0.5C57.8,368.7,55.3,367.8,55.1,366.3z" />
	<path display="inline" fill="#231310" d="M600.1,283.1c-0.8,1.9-0.9,2-4.6,1.5C596.8,282.8,597.7,282.5,600.1,283.1z" />
	<path display="inline" fill="#1B1714" d="M581.1,286.2c2.6-2.3,2.7-2.3,4.1-1C584.2,286,583,286.5,581.1,286.2z" />
	<path display="inline" fill="#483630" d="M594.2,284.5c-0.8,1.1-1.8,1.2-3.1,0.9C592.5,283.5,592.9,283.4,594.2,284.5z" />
	<path display="inline" fill="#110907" d="M574.8,285.8c1.2-1.5,2.1-0.4,3.6,0.1C576.9,287.2,575.8,286.2,574.8,285.8z" />
	<path display="inline" fill="#392C27" d="M808.5,269.7c-0.6,1.3-1.4,1.5-2.7,0.7C806.4,268.8,807.4,269.3,808.5,269.7z" />
	<path display="inline" fill="#0B0807" d="M684.5,302.4c-0.4-0.4-0.8-0.7-1.4-1.2c0.3-1.1,0.6-2.4,1.1-4c1.9,3.3,2.5,6.8,4.4,9.6   c1.1-0.1,2-0.4,2.5-1.4c0.3,0,0.5,0,0.8,0.1c0.7,1.7-1.1,2.4-2.3,3.3c0.3,0.7,0.6,1.3,0.9,2c-0.2,0.2-0.5,0.4-0.7,0.6   c-2.3-2.8-5-1.6-8-3c-0.1-0.7-0.1-1.5-0.2-2.2l0-0.1c0.6,0.1,1.3,0.3,1.6-0.5c0.7-0.4,1.3-0.9,2-1.3   C685,303.5,684.7,302.9,684.5,302.4z" />
	<path display="inline" fill="#0C0A09" d="M693.6,296.4c1.9,2.1,5.6,3.7,5,7.1c-0.8,2.1,0.2,7.2-3.2,6.7c-1.1-4.6,2.2-8.6-2.6-13   C693,297,693.3,296.7,693.6,296.4z" />
	<path display="inline" fill="#47332E" d="M681.6,306c0.1,0.7,0.1,1.5,0.2,2.2c-2,0.6-5-1.3-3.1-3.4c1.4,0.2,0.5,2.2,1.9,2.2   C680.8,306.8,681.2,306.4,681.6,306z" />
	<path display="inline" fill="#49352F" d="M691.9,305.4c-0.3,0-0.5,0-0.8-0.1c-1.8-1.2-3-2.9-4.5-5.5   C689.7,301.3,690.9,303.3,691.9,305.4z" />
	<path display="inline" fill="#432B26" d="M666.7,316.8c-1.5-3.5,4.1-6.1,5.8-2.7C668.8,312.6,668.8,314.1,666.7,316.8z" />
	<path display="inline" fill="#DEDDDD" d="M684.5,302.4c0.2,0.6,0.4,1.1,0.7,1.8c-0.7,0.4-1.3,0.9-2,1.3c-0.2-0.1-0.5-0.1-0.7-0.2   c0-0.8,0-1.6,0-2.6C683.3,302.6,683.9,302.5,684.5,302.4z" />
	<path display="inline" fill="#36221F" d="M693.6,296.4c-0.3,0.3-0.6,0.6-0.9,0.9c-0.8-0.4-1.5-0.8-1.4-2   C692.4,295,693.1,295.7,693.6,296.4z" />
	<path display="inline" fill="#110C0B" d="M689.8,311.2c0.2-0.2,0.5-0.4,0.7-0.6c0.9,0.3,1.7,0.6,2.1,1.9   C691.3,312.5,690.5,311.9,689.8,311.2z" />
	<path display="inline" fill="#47332E" d="M682.5,305.3c0.2,0.1,0.5,0.1,0.7,0.2c-0.4,0.8-1,0.6-1.6,0.5   C681.9,305.7,682.2,305.5,682.5,305.3z" />
	<path display="inline" fill="#110C0B" d="M668.5,317.8c0.2,0.3,0.4,0.6,0.6,0.9C669,318.4,668.8,318.1,668.5,317.8z" />
	<path display="inline" fill="#1F1714" d="M562.9,338.9c0.9,1.5,0.8,2.6-0.2,3.6C561.3,340.7,561.3,340.7,562.9,338.9z" />
	<path display="inline" fill="#332420" d="M565.6,391.2c1.9,0.3,2.6,1.2,3,2.5C566.9,394.2,566.9,394.2,565.6,391.2z" />
	<path display="inline" fill="#2D2520" d="M563.4,345.7c0.1,0.9,0.2,1.6,0.3,2.7C561.9,347.9,561.4,346.5,563.4,345.7z" />
	<path display="inline" fill="#58463D" d="M565.1,352.7c-0.4,0.4-0.6,0.6-1,1c-0.5-1-0.7-1-0.2-2   C564.2,352.1,564.5,352.3,565.1,352.7z" />
	<path display="inline" d="M189.6,327.9c1.4-1.9,2.5-2,4.6-0.8C192.2,328.3,192.2,328.3,189.6,327.9z" />
	<path display="inline" fill="#1F1612" d="M205.4,325.1c-0.7,0-1.4,0-2.1,0C204,323.6,204,323.6,205.4,325.1L205.4,325.1z" />
	<path display="inline" fill="#49221C" d="M199.1,325.8c-0.5,0-1,0-1.5,0c0-0.1,0-0.2,0-0.4c0.5-0.1,1-0.2,1.5-0.3   C199.1,325.3,199.1,325.6,199.1,325.8z" />
	<path display="inline" fill="#020101" d="M647.9,289.9c-0.1,0.1-0.2,0.3-0.3,0.4C647.6,290,647.8,290,647.9,289.9   C648,290,647.9,289.9,647.9,289.9z" />
	<path display="inline" fill="#1A1210" d="M45.3,312.6c-2,0.6-0.6,3-2.1,3.8c0,0,0,0,0,0c0.4-3-1.7-8.6,3-8.7c0.8,0,1.7-0.2,2.1,0.8   c-0.9,0.9-1.3,1.2-2.8,1.7C45.5,310.9,45.4,311.7,45.3,312.6z" />
	<path display="inline" fill="#967163" d="M43.1,309.7c0,1.5,0.1,2.9,0.1,4.4c-0.2,0-0.4,0-0.7,0.1   C42.6,312.7,42.1,311.1,43.1,309.7z" />
	<path display="inline" fill="#3B2F29" d="M42.6,314.2c0.2-0.1,0.4-0.1,0.7-0.1c0,0.7,0,1.5,0,2.2c-0.2,0-0.4,0-0.7-0.1   C42.5,315.6,42.6,314.9,42.6,314.2z" />
	<path display="inline" fill="#3B2F29" d="M43.2,316.4c0.8-0.2,0.7-1,0.9-1.6C44.6,315.7,45.1,317.6,43.2,316.4z" />
	<path display="inline" fill="#D69479" d="M228.9,331.1c0.2-0.1,0.5-0.1,0.7-0.1C229.5,331.6,229.2,331.8,228.9,331.1z" />
	<path display="inline" fill="#301814" d="M157.1,304.8c-2.1,1.4-2.1,1.4-6.6,1.3C152.1,305.1,154.3,304.6,157.1,304.8z" />
</g>
</svg>