<?xml version='1.0' encoding='utf-8'?>
<svg xmlns="http://www.w3.org/2000/svg" version="1.2" baseProfile="tiny" id="Layer_2_1_" x="0px" y="0px" viewBox="0 0 900 600" overflow="visible" xml:space="preserve">
<g id="a_00000171688305169815593800000013347043440039072139_">
	<path fill="#010000" d="M476.8,280.5c6.9,3.5,8.5,18.3,5.2,24.8c-0.8,0.2-1.8,0.5-2.9,0.7c2.6,41,17.5,78.7,31.7,116.6   c35.2,2.2,70.7,8.9,105,16.4c0.2,3.3,1.2,6.7,0.8,10.5c-0.9,1.1-1.9,2.4-3.3,4c1.2,37.8-1.2,76.9,6.5,114.4   c-16.5,24.1-24.3-65.1-24.1-73.4c-22.2-2.4-43.6-7.6-65.1-13.4c-1.5,38.2-0.5,76.7,5.9,114.5c-6.3,9.1-12.5,2.5-13.7-5.9   c-6.1-23.1-12.9-45.6-11.4-69.9c-5.2,9.8-9.8,39.6-20.7,42c-3.1-0.8-3.2-4.9-2.6-7.4c3.4-13,6.9-26.4,8.7-39.7   c-23.4-4.7-46.7-10.2-70-16.3c-1.7,18.1-11.8,35.7-8.4,53.4c-8.1,2.8-8,13.5-11.6,20.2c-1.6,0.6-3.1,1.2-4.9,1.8   c-1.4-0.5-2.8-1.1-4.2-1.7c-1.3-4,0.9-7.4,1.3-11.1c-10.8,0.7-20.9-2.2-31.4-3.2c-1.2,0.6-3.7-1.7-4.4,0.1   c-0.4,0.2-0.8,0.5-1.2,0.7c-0.3-0.5-0.5-1-0.7-1.4c-3.9,1.4-7.4,3.3-10.7,5.5c-0.3-0.3-0.6-0.5-0.8-0.8c3.3-3.9,6.9-5.4,11.8-7   c-2.5-2-4.9-1.6-7.8-2.2c-4.9-0.5-8.6-4.6-12.4-7c-3.8,0.4-8.4,4.2-11.4,1.3c1.1-2,1.7-2.1,9.5-3c-0.3-1.9-1.7-3-2.7-4.2   c-4.6,0.5-8.6,2.6-13.3,2.8c-0.6-4.3,4.6-3.4,7.4-5.5c-4.2-0.7-6.9,1.8-10.7,2c-3-4.4,8.1-4.1,10-6.3c-0.9-0.5-1.7-1-2.7-1.6   c-3.9,1.4-7.7,2.8-11.8,4.3c0.2-4.8,7.2-4.4,10.3-6.9c-4-2.6-3-7.4-6.1-10c-4.9,1.2-10.1,5.8-13.6,11.8c-3.5,1.3-5.2,5.3-8.9,6.5   c-1.3-0.3-2.3-1-2.1-2.3c-0.1-3.3-2.2-6.1-1.4-9.5c0.7,0.2,1.4,0.4,2.2,0.6c0.3-0.6,0.5-1.1,0.8-1.7c-1.6-0.7-2.5-0.3-3,1.1   c-2.1,1-1.4,4-2.1,6c-0.9,9.6-8.3,18.8-7.5,29c5.6,2.4,11.4,3.5,17.5,2.7c-0.3-0.7-0.7-1.4-1-2.2l0,0c6.1-1.3,8.6,7.1,14.7,6.8   c16.3,3,34.8,2.2,47.8-7.5c-1.1,14.6-49.9,14.2-58.1,5.3c-8.5,1-16.8-0.8-24.8-4.2c2.4-9.7,4.8-19.2,8.6-28.5   c0.6-4.4,1.7-11.7,7.7-10.8c5.5-28.9-9.4-58.1-3.4-86.8c8-31.3,21.1-39.3,7-73.6c-2.2-1.4-4.8-3-7.4-4.7   c2.9-37.8-15-81.2,10.2-113.6c-0.6-11.4,0.5-22.3,1.5-33.7c-8.5-12.5-8.3-29.8-16-43.2c0.1-0.4,0.2-0.8,0.4-1.5   c9.1,11.8,8.1,28,15.5,40.3c2.6,3.2,8,5.6,7.6,10.3c-0.3,0-0.5,0-0.8-0.1c-0.6-1.1-1.2-2.2-2.8-2.6c10.5,25.8,32.3,43.1,56.4,55.5   c4.4,4.4,5.3,11.6,11.9,13.5c0.7-0.4,1.2-0.7,1.4-0.9c2.6,0.5,4.7,0.8,7.1,1.8c-1,1.3-2.5,0.5-3.9,1.2c0.8,1,1.1,1.5,1.8,2.4   c-0.1,0.6-0.1,1.3,0.6,1.6c0,0.5,0,1,0,1.5c-0.2,0-0.4,0-0.6,0.1l0,0c-1.3-2.2-2.3-4.3-4.8-5.3c-2.9,4.1-0.3,8.9-0.3,13.5   c0.9,4,0.1,10.1,5.2,11.3c0.8-0.4,1.4-0.7,1.9-1c0.2-1,0.3-1.7,0.4-2.4c0.5-0.1,0.8-0.1,1.2-0.2l0,0c0.1,1,0.1,1.8-0.3,2.8   c31.4-0.4,63.1-2.3,94.4-4c1.6-4.3,0.7-10.1-0.9-14.1c-0.9,0.2-2,0.2-3,0.1c-0.3-0.7-0.3-1.9,0.6-2.2c0.9,1,1.5,0.5,2.1-0.4   c-1.4-1.8-2.4-3.7-3.6-5.7C476.2,281,476.5,280.8,476.8,280.5z M303.6,247.3c-1.1,1.3-1.1,2.6,0,3.9c-0.8,1.4-2.6,0-3.6,1.3   c0,0.5-0.1,1.1-0.1,1.7c-18.1,19.8-0.9,72.2-5.2,100.9c15.1,12.8,35,10.1,52.3,4.2c8.1,0.4,7.2-9.4,8.2-15c0.4,0,0.7,0.1,1.1,0.1   c0.8,4.1-1.1,8.2-0.3,12.2c10.2,4.6,22.5,5.5,33.1,2c-3.2-16.1-5.5-32.5-7.7-48.8c-1.3-0.6-2.4-1.1-3.7-1.6   c-1.9-8-5.4-16.4-2.9-24.5c-6.1-3.6-6.9-10.9-12.1-15c-9.9-5.3-18.9-10.8-28-17.4c-0.6,4.1,1.6,2.9,3.6,4.4c-0.9,1.1-2,0.5-2.9,0.8   l0,0c-1.1-0.8-2.5-0.7-3.8-0.8c0.7-0.6,1.4-1.2,2-1.7c0-1.5,0-2.7,0-3.9c-5.1-3.4-12-1.6-17.9-2.7c-1.1-1.4-3-0.3-4.5-0.8   c-2.1-1.5-4.8-1.4-7.5-1.4C303.6,246,303.5,246.7,303.6,247.3L303.6,247.3z M357.2,412.1c0,0.7-0.1,1.4-0.9,1.6   c-0.4-0.2-0.8-0.5-1.3-0.8c-19.7,37.1,1.2,67.4-10.4,104.5c4.9,2.5,10.9,1.1,16.2,0.8c0.1-0.8,0.2-1.4,0.4-2.1   c7.1-5.9,5.2-23.7,9.4-33.3c8-28.7,10.5-58.5,15.4-87.5c3.3-20.6,9.2-9.9,3-35.1c-10.3,4.1-23.1,2.2-33.1-1.5   c-2.1,1-3.8,1.8-5.5,2.6c0,4.7-1.4,9-2.5,12.9c4.6,12.1,3.2,25.6,9.5,37C357.2,411.6,357.2,411.8,357.2,412.1z M401.1,340.3   c-1.4-10.2-2.1-20.9-4.2-30.8c-0.8,0-1.1,0.4-1,0.9c2.1,13.5,3.4,27,6.3,40.5C403.9,350.3,401.6,341.9,401.1,340.3z M507.6,502.7   c1,0.1,1.9,0.5,2.9-0.1c-0.2-8.7-0.9-17.4-0.7-26.1c-1.4-1.1-2.8-1-4.2-0.7c-1,9-2.7,17.1-3.2,26   C504.3,502.1,505.9,502.4,507.6,502.7z M505.4,515.7c-2,0-3.8-1.1-5.9-0.7c-1.8,14.7-7.6,28.9-9.1,43.3   c4.4,7.7,18.6-37.9,18.6-41.9C508.3,515.1,506.6,515.9,505.4,515.7z M421.4,489.1c-1.1,1.3-1.8,2.6-1.5,4.3   c25.2,7.9,52.1,14.4,78.5,17.7c0.8,1,2.1,0.6,3.1,0.7c1.1,1.1,2.5,0.6,3.8,0.8c1.3,1.2,3,0.4,4.5,0.8c0.8,0.7,1.7,0.9,2.5,0   c3.8,10,0.2,22.6,3.2,33.3c4.1,16.9,6.5,34.1,12.7,50.3c7.2,1.7,6.3-5.6,4.9-9.9c-3.4-16.9-4.5-34.4-5-51.6   c0.3-19.9-1.2-39.9-0.7-59.8c-0.1-0.6-0.6-0.8-1.1-0.5c-4.5,2.2-9.5,0.5-13.9,1.7c-0.5,2.4-1.3,4.8,0,7.3c0.6,7-1,14,1.1,20.9   C482.4,503.5,451.2,494.1,421.4,489.1z M472.9,307.7c-0.3,0.8,0.3,1.9-0.8,2.4c-0.4-1-0.8-2-1.2-3c-1.2-0.1-2.3-0.4-3.2,0.6   c7.2,39.7,9.7,80.9,25.5,118.4c5.4-1,11-0.2,15.3-2.8c-6.8-21.1-16.3-41.5-22.8-62.8c-4.9-17.6-6.2-36.2-9.5-53.9c-1,0-2,0-2.9,0   C473.1,306.9,473,307.3,472.9,307.7z M416.2,426.5c2.2,2.7,2.5,6.7,4.4,9.7c2.4,0.5,4.4,0,6.4-1.3c-6.8-23.2-18.2-45.2-24.3-68.7   c-4.7-18.6-5.9-38.2-9.4-56.8c-3.2,0.2-6.9-0.6-9.4,1.5c7.4,40.6,10.9,82,24.8,121.1c14.9,43,3,90.1-7.8,132.9   c-2.5,4.8,0.5,8.5,4.8,4.4c8.7-23.1,14.1-47.3,19.2-71.6c-7.3-0.5-9.3-6.4-4-11.4c2.4-0.6,4.5,1.2,6.8,1.1   c2.2-8.1,3.8-21.4,2.1-30.7c-3.2-1.6-6.8-2.4-9.7-4.5c-0.3-4.9-0.5-9.6-0.8-14.7C417.8,434.7,414.6,429.6,416.2,426.5L416.2,426.5z    M611.2,483.1c0.2-9.9,0.1-19.8-0.1-29.8c-5,0.8-10.4,1.5-14.9,3.7c2.6,9,0.3,18.3,2,27.2c-20.7-2.4-42.9-4-62.8-11.6   c-2,0.6-3.7,1.4-5.8,1.6c0.1,1.4,0.2,2.6,0.2,3.7c22.1,7.4,45.1,10.9,68,14.4c1.1,25.9,5.5,51.9,13.9,76.6   c10.1,4,3.3-12.9,3.4-17.5C611.5,528.8,612.3,506,611.2,483.1z M299.8,519.4c3.3,1.2,6.6,0.9,10.2,1.4c2.3-3,8.2-4.2,7.9-8.6   c-0.1-9.6,0.9-18.9,3.2-28.2c2.1,10.2-2.6,20.8-0.8,31.4c6.1,2.4,4.4,12.7,10.9,15.1c4.4-4.1,5-9.4,8.9-13.7   c0.6,0.6,1.2,1.1,1.8,1.6c11.9-42.9-8.7-62.1,11.1-111.6c-3-9.2-2.6-19-6.7-27.9c-4.4,16.9,0.4,18.5-10,36.1   c-1.8,17.1-4.9,33.7-10.1,50.1c-1.1-0.5-0.5-1.6-0.8-2.4c2.3-14,7.4-27.3,7.5-41.6c-1.6,1.8-1.2,4-3.6,5.3   c3.9-14.4,15.1-25.2,13.2-41.1c0.7-7,7.2-17.6,4.5-23.7c-13.8,3.8-29.7,7.3-43.2,2.1c8.8,24,5.8,39.1-5.5,61.5   c-10.1,27.5,1.7,56.1,1.9,84.3c0.5,0.2,1,0.3,1.6,0.5c-0.1,2.4,1.5,6.8-1.3,7.9c-0.1-1.3-0.1-2.7-0.2-4   C299.9,515.4,297.8,518.4,299.8,519.4z M362.4,552.2c0.5,1,1,2,1.3,2.8c12.5,1.1,24,2.2,36.6,1.6c1.1-5.7,3.6-10.9,3.9-16.7   c-6.7-0.1-12.7-4.7-19.5-4.5c-0.5-0.8-0.9-1.4-1.3-2.1c-6.1,2.5-9.8,0-2-3c-0.6-0.6-1.2-1.3-1.4-1.6c-3.2,0-7.3,3.2-8.3-0.7   c1.4-1.9,4-0.9,5.6-2.2c-0.7-0.7-1.3-1.5-1.9-2.2c-2.8,0.7-5,2.8-7.8,2.7c-2.7-3.4,3.6-4.3,5.8-4.8c-1.6-2.5-3.2-5-5-7.7   c-1.8,1.9-3.4,3.6-4.9,5.1c-0.1,1-0.2,1.7-0.3,2.3c-10.8,5.9-16.2,14.7-22.5-1c-2.2,4.2-3.2,8.2-6.9,11.4   C342.8,540.6,347.4,551.7,362.4,552.2z M515.2,474.1c33-4.1,65.1-17.3,98-23.6c2.5-3.1,1.4-6.6,0.5-10c-22.6-6-46.3-7.4-69.4-12.1   c-20.7-5.3-41.1-2.8-61.7,0.9c-19,3.7-38.8,4.6-57.5,9.4c-6.1-0.2-2.3,9.3-2.7,13.1C452.2,462.7,484.1,469.7,515.2,474.1z    M418.5,309.4c-6.6-0.2-13.4-0.4-20,0.1c1.9,13.9,4.3,27.9,6.2,41.8c-0.8,0.7-1.5,1.2-2.2,1.8c5.4,28.1,17.5,54.4,27.2,80.8   c20-1.6,39.7-5.1,59.7-8.3c-13.7-38.5-17.7-79.3-25.3-119.2C448.9,306.6,433.8,308.4,418.5,309.4z M404.9,536.6   c16.4-72.3,3.6-87.2-12.4-153.4c-1.7,3-3.2,5.6-4.3,7.4c0,7.5,0.8,13.6-3.6,19.6c0.8,34.4-13.8,66.8-16,100.5   c4.1,1.1,4,5.5,6.3,8.4C382.7,527.9,391.5,538.3,404.9,536.6z M432.3,457.8c0.7,10.2-0.9,20.1-1.7,30.2c22.4,6.6,45.6,11,69.1,12.8   c1.2-8.3,3.7-17.2,3.4-25.4C479.6,469,455.4,465.7,432.3,457.8z M539.7,471.6c17.3,7.6,37.2,7.3,55.6,10.6   c-0.8-8.4-0.4-16.7-1.7-24.9C575.9,462.8,556.8,465.4,539.7,471.6z M305.2,242.7c8.8,2.7,17.5,3.9,23.1,3.1   c-9.8-9.5-16.4-20.7-22.6-32.9C307.3,223.6,304.3,232.2,305.2,242.7z M307.9,522.9c-3-0.4-5.8-0.8-8.8-1.2c-0.5,3-2.1,6.2-0.6,9.7   c2-0.9,2.7-2.6,3.5-4.1c0.8,0.2,1.4,0.3,2.3,0.5C305.1,526.1,307,524.9,307.9,522.9z M343.5,521c2.7,8.8,10,3.9,14.7-0.2   c-2.6,0.1-4.7,0.2-6.7,0.3c-0.1,1-0.2,1.8-0.4,2.8c-2.5-0.3-3.7-2.2-5.2-3.7C345.1,520.4,344.5,520.6,343.5,521z M413.8,551.3   c2.1-0.7,3.5-2.6,1-3.7C414.6,548.6,414.3,549.6,413.8,551.3z M334.8,535.4c-1,0.4-2,0.7-3.8,1.3c2,0,3.1,0,4.2,0   C335,536.2,334.9,535.9,334.8,535.4z" />
	<path fill="#010000" d="M377.8,71.3c-1.1,6.3-9.7,3.7-14.3,4.6c-0.8,3.2-0.6,6.6-0.9,9.7c8.4,9.4,17.2,16.3,28.6,21.1   c6.4,4,7.6,10.6,8.6,17.5c3.3,10.3,8.8,29.5,0.2,37.9c1.2,9.4,5.5,18.8,3,28.2c-1.8,7.6,5.4,12.7,9.3,18.3   c7.7,17.4,15.4,35.2,26.7,50.8c5.6,9.2,16.6,8.6,25.6,11.5c-37.2,4.4-42.3-48.8-61.5-70.7c-6.6-10.5,1-25.3-5.7-35.8   c-0.4,0.2-0.8,0.5-1.1,0.7c-0.3,10.7-0.3,21.4-3.5,31.8c-3.1,3.6,0.6,7.4-1.5,8.3c-0.4-0.2-0.7-0.4-1.2-0.7   c-9.3,33.9,20.5,44.5,39.5,64.5c-0.2-0.1-0.4-0.2-0.5-0.3c0.3-0.2,0.7-0.5,1.1-0.8c3,3.3,3.1,7.5,5.7,10.6   c18.2,6.3,21-8.9,34.2,16.5c0.5-0.9,0.9-1.5,1.3-2.1c0.5,0.8,1,1.6,1.5,2.3c-0.6,1-1.4,1.7-2.8,1.8c-5.4-3.9-5.9-12-12.4-14.7   c-12.7-0.5-37.5-0.2-40.8,0.5c3.2,4.7,4.5,10.9,5.4,16.4c-4.4,3.2-8.8-3.7-8.5-7.8c0.5-1.1-0.7-1.3-0.8-2.2c0.3-0.3,0.6-0.6,0.9-1   c2.4,3.5,0.9,8.8,6.7,9.8c-3.7-4.7-0.9-10.9-5.9-14.8c-2.3-2.6-3.9-5.7-6.2-8.6c-1.7,0-3.5,0-5.2,0c-0.8-1.3-2.1-0.6-3.2-0.7   c-2.1,0-3.9-0.7-6-1.4c0.4-0.5,0.6-0.8,0.7-1.1c1.2,0.1,2.3,0.2,4,0.3c-7.8-4.6-20.4-3.8-25.1-13c2.4,1.2,4.7,2.4,7.3,3.8   c0.1-1.2,0.1-2.1,1-2.9c0.4,1.5,0.9,3.1,1.4,4.7c2,0.8,3.3,1.3,5.7,1.7c-2.2-3.5-2.4-6.4-4.4-9.6c-3.6,0.2-7.2,1.5-10.8,0.3   c-0.3,0.5-0.6,0.9-0.8,1.3c-15.1-12.7-23.1-31.5-32.7-48.3c-4-5.8-11-10.2-13.4-16.8c1.6,1.1,2.8,1.9,4.3,2.9   c3.2-17.3,0.1-34.6-6.2-50.9c-12.2-2.9-25.7-3.4-37.5,1c0.1,5.8-0.7,11.7,1,17.4c-0.3,0-0.6,0.1-1,0.1c-3.1-5.4-2.3-11.8-2.2-17.7   c-0.6-11.1-6.1-21.7-1.4-33c1.6,1.9,0.3,4.9,0.2,7.2c-2.1,8.5,3.2,15.6,3.7,23.7c12.1-3.4,24.8-3.1,37-0.8   c-0.7-2.9-3.6-5.4-1.7-7.9c11.3,17.9,12,41,10.3,61.8c0.5,3,1.6,5.2,4,6.9c12.1,13.1,16.5,31.8,29,44.9c5.7,1.8,11.2,0.1,17.1-0.1   c3.9-12.3,2.8-25.5,3.8-38.3c2.6-15,7.3-29.6,7-45.2c12.5-9.8,7.1-27.6,2.6-40.3c-1.1-2.2-3-3.9-2.6-6.7c0.5,0.3,0.9,0.6,1.2,0.8   c0.1,0.8,0.5,1.2,1.7,1.3c-3.8-14.6-17.2-13.4-26.6-23c-2.6-2.8-5.1-5.8-7.6-8.7c-0.7-1.2-1.5,1.2-2.2,1.6c0-5.2-0.9-10-0.2-15.2   c-1-1-2.7-0.5-3-2.1c6.4,0.6,13.5,3.2,18.9-1.5C377.2,71.2,377.5,71.2,377.8,71.3z M387.5,237.4c0.2,0.3,0.4,0.6,0.7,0.9   c-3.2,9.5-1.3,19.4,3.2,28c8.6,3.9,18.7,3.8,23,13.2c5.4,0.4,16.6,0.3,19.3-0.1c-10.8-19.9-33.9-28.3-45.1-47.9   c-0.4,2-0.8,3.5-1.1,5.1C386.8,237,386.7,237.2,387.5,237.4z M374.7,252c1.4,0.8-0.1,2.5,1.4,3.5c1.3-0.3,2.9-0.6,4.5-0.9   c0.1-1.5,0.2-2.7,0.4-4.1c-3.1-0.9-5.5,0.8-8.5,0.7c0,1.3,0,2.4,0,3.6c0.7,0,1.3-0.1,2-0.1C374.6,253.7,374.6,252.9,374.7,252z    M382.9,251c-1.9,2.9-1.9,2.9-0.2,3.7C382.8,253.4,382.8,252.2,382.9,251z M384.1,253.7c0.2,0.1,0.5,0.2,0.7,0.3   c0.5-1.1,0.7-2.2-0.1-4C384.4,251.6,384.3,252.7,384.1,253.7z M370.1,252.7c0.9-1,0.3-1.9-0.6-1C369.6,252,369.8,252.2,370.1,252.7   z" />
	<path d="M324,39.5c-2.7-11.3-7.4-26.8,4.9-34.2c10.5-4.6,23.7-8.1,34.3-2c-0.6,1.3,0.4,1.8,0.9,0.6c1.1,0.5,2.2,1.1,3.2,1.5   c0.7,1.7,1.8,2.9,1.3,4.7c-6.5,3.5-18.1-3.8-21.3,5.3c8.4,12.8-3.3,12.7-7.9,23.3c-3.7,0.9-5.9-1.9-8.7-3.5   c-3.2,0.5-4.2,2.4-5.3,5.1C324.9,40,324.5,39.7,324,39.5z M338.6,3.9c0.4-0.4,0.6-0.7,1-1.1C338.6,2.8,338.6,2.8,338.6,3.9z" />
	<path fill="#9BA0A1" d="M354.4,557.4c-2.7,2.9-5.8,5-8.4,7.9c5.1-1.5,9.3-6.7,15.3-8.1c0.2,0.5,0.4,0.9,0.7,1.4   c0.4-0.2,0.8-0.4,1.2-0.7c0,0.6-0.1,1.2-0.1,1.8c-13,9.7-31.5,10.5-47.8,7.5c-6.2,0.3-8.6-8.1-14.7-6.8c0.7-2.8-1.2-4.5,2.4-6.2   C322.6,567.2,333.6,567.1,354.4,557.4z" />
	<path fill="#070505" d="M286.8,106.5c3-6.3,8.9-9.3,14.9-12c6.6-4.1,11.3-10.7,18.2-14.6c8.4-6.9,6-20.2,6.6-30   c-0.7-2.3-3-4.4-1.7-6.7c1,0.5,0.6,1.4,0.7,2.2c0.2,0.3,0.5,0.5,0.7,0.8c0.1,2.2,2.6,3,4.1,4.2c3.5,2,3.5,2,7.2,0.4   c0.5,3.1,1,6.2,2.5,8.9c-0.3,0.3-0.6,0.6-0.9,0.9c-1.7-1.9-2.2-4.3-2.8-6.9c-2.9,0.9-4.8-1.3-7.1-2.2c-0.3,6.7-1.6,13.2-0.2,19.1   c-0.4-0.2-0.8-0.5-1.3-0.8c-0.6,2.3-1.3,4.6-2,7.1c10,4.7,26.6,30.4,36.7,18.3l0,0c0.7,0.1,1.4,0.2,1.7-0.6c1,0.5,0.5,1.4,0.7,2.2   c-12.1,13.1-29.6-12.6-40.1-18.4c-8.9,6.2-15.6,14.5-25.2,19.3c-4.9,2-8.6,5.5-11.8,9.7C287.3,107.2,287.1,106.8,286.8,106.5z" />
	<path fill="#181412" d="M366.8,10.9c0.6-0.3,1.1-0.6,1.7-0.9c6.9,4.7,15.1,24,8.3,31c-2.7-4-5.2-6.5,0.3-10.3   C375.2,23.1,374,15.2,366.8,10.9z M376.1,34.2c0.7,0,1.4,0,2.1,0c0-0.5,0-0.7,0-1C377.3,33.1,376.5,33.3,376.1,34.2   c-0.4,0.1-0.8,0.2-1.4,0.3C375.6,35.1,375.9,34.8,376.1,34.2z" />
	<path fill="#1D1614" d="M377.8,71.3c-0.3,0-0.6,0-0.9,0c0.5-1.9,0.2-3.9-0.1-5.7c-1.7-0.6-3.1-1.2-4.6-1.8c0.9-1.7,10.9,2,6.5-4.4   c-3.4-0.3-7.2,0-10.2,1.3c-0.4-0.3-0.9-0.6-1.5-1.1c1-0.8,1.5-1.3,2.4-1.8c2.5,1.2,5.9,0.5,8.6,0.6c1-1,1.6-1.7,0.8-2.7   c-0.6-0.1-1.2-0.2-1.9-0.3c1-0.6,2.2-1,2.9-2.1c0.4,0.9,0.9,1.8,1.4,2.7c-0.3,0.8-0.7,1.6-1,2.4c0.3,1.1,0.7,2.3,1.1,3.7   C378.5,64.5,379.1,68,377.8,71.3z" />
	<path fill="#1D1412" d="M460.7,271.6c2.3,0.5,4.7-2.1,6.5,0.1c2.2,3.1,7,3.4,8.2,7.1c0.1,0.6,0.9,1.1,1.3,1.7   c-0.3,0.3-0.6,0.5-0.9,0.8c-0.2,2.3,1.5,3.9,1.5,6.1c-0.8,0.3-0.7,0.9-0.8,1.5c-1.2-3.1-2.4-6.2-2.4-9.5c-1-1.3-1.9-2.5-3.6-2.6   c-0.8-1.6-2.5-2.1-3.8-3c-1-1-2.2-1.9-3.8-1.6C462.2,272.3,461.3,272.4,460.7,271.6z" />
	<path fill="#18100E" d="M287.6,163.5c0.3,0,0.6-0.1,1-0.1c0.3-0.9,0.6-1.7,1-2.7c2.6,2.1,6.5,5.3,6.1,8.5c-1.6-0.3-3.1-1.7-4.4-0.4   c-0.8-1.4-1.6-2.7-2.6-4.4c-0.2,0.6-0.3,1.1-0.4,1.5C287.5,165.2,287.6,164.3,287.6,163.5z" />
	<path fill="#362A27" d="M379.8,53.1c-0.7,1.1-1.9,1.5-2.9,2.1c-1.8-0.5-4.2,2.8-5.3,0.9c2.1-1.6,4.1-2.3,6.9-2.6   c-0.6-1.3-1.1-2.4-1.6-3.5l-0.1,0.1c8.1-2.3,1.1-5,0-9.1c0.3-0.3,0.6-0.6,0.8-0.9c1.5,2.2,2.9,4.3,4.2,6.3   c-0.4,2.2-0.9,3.9-2.8,4.9C379.4,52,379.6,52.5,379.8,53.1z" />
	<path fill="#302B2C" d="M286.8,106.5c0.3,0.3,0.6,0.7,0.9,1c-1.7,2.3-2,5.2-2.9,7.7c-0.3-0.8,0.3-1.8-0.8-2.3   C284,110.3,285,108.2,286.8,106.5z" />
	<path fill="#4F3D37" d="M325.5,45.5c-0.1-0.8,0.3-1.7-0.7-2.2c0-0.2,0-0.5-0.1-0.7c1.5-0.9,0.3-2.7,1.5-3.9   C325.9,40.8,327.1,43.9,325.5,45.5z" />
	<path fill="#070505" d="M325.4,40.2c0,0.8,0.4,1.8-0.7,2.3c-0.2-1-0.5-2-0.7-3C324.5,39.7,324.9,40,325.4,40.2z" />
	<path fill="#533F3F" d="M364.1,3.8c-0.4,1.3-1.4,0.8-0.9-0.6C363.5,3.4,363.8,3.6,364.1,3.8z" />
	<path fill="#533F3F" d="M363.2,3.2c-0.3-0.2-0.5-0.4-0.8-0.6C362.7,2.9,362.9,3,363.2,3.2z" />
	<path fill="#A39893" d="M425.3,438.6c70.5-16.4,118.5-15,188.5,1.8c0.8,3.5,1.9,6.9-0.5,10c-33,6.4-65,19.6-98,23.6   c-0.4-0.4-0.8-0.9-1.1-1.2c0.2-3.9,1.9-7.3-0.2-10.9c4.4-0.1,8.2,0.5,11.8-2.1c-34,0.4-68-9.2-100.4-20.6   C425.3,439.1,425.3,438.9,425.3,438.6z M598.3,444.5c3.9-1.2,10.2-0.3,12.2-4.3c-27.5,7.6-56.6,11.5-83.8,19.3   C551,456.9,574.4,449.7,598.3,444.5z" />
	<path fill="#6D5CA9" d="M331.6,248.8c0.6,0.4,1.2,0.8,2,1.2c0,1.2,0,2.4,0,3.9c-0.6,0.5-1.3,1.1-2,1.7c0.9,1.3,2.4,0.7,3.8,0.8l0,0   c0,4.1,0.3,8.2-0.9,12.1c-1.2,1.1-0.5,2.6-0.6,3.8c0.6,0.6,1,1.2,1.5,1.7c-0.1,4.1-0.2,8.2,1.5,11.9c0.8,1.7-0.1,4.2,2.2,5.3   c5.5-9.3,1-23.9,3.9-34.1c6.4,3.9,13,8.1,19.7,11.5c5.1,4.1,6,11.5,12.1,15c-2.5,8.1,1.1,16.6,2.9,24.5c1.3,0.6,2.4,1.1,3.7,1.6   c2.3,16.3,4.5,32.6,7.7,48.8c-6.7,2.8-13.5,2.2-20.5,1.3c-0.5-0.4-0.9-0.8-1.5-1.4c0.1-1.9-0.3-3.8,0.3-5.7   c2.2,3.5,3.1,4.5,6.3,6.6c0.3-0.4,0.7-0.8,1.1-1.2c-4.9-10.8-10.6-20.7-8.7-32.6c3.2,5.6,3.8,13.8,10,16.8   c-0.1-5.6-7.6-31.5-14.3-30c-0.2-0.3-0.4-0.6-0.6-0.9c0.2-0.7,0.5-1.4,0.7-2c2.4-0.8,3.3-3.2,5.3-4.5c1.4,2.2,1.2,5.2,4.1,6.5   c1.3-3.2-0.7-5.7-2.6-8c0.4-1.3,2.1-1.8,2-3.7c-2.8,1.9-5.2,3.8-7,6.2c-0.6-0.1-1.1-0.1-1.6-0.2c-9.9,15.4-4.8,33.5-8.9,50.5   c-3.5,4.1-23.1,7.6-29.2,7.6c2.1-8,0-16.6,0.9-25c3.1,7.7,5.1,11,8.1,13.2c-3.4-12.6-10-24.2-8.2-37.7c2.8,7.6,4.3,15.6,8.9,22.4   c-5.3-21-11.7-41.9-5.9-63.7c1.7,1.8,2.2,3.8,2.6,5.8c3.5-4-0.1-20-0.2-26.2C331.6,251.7,329.9,249.5,331.6,248.8z M350.2,279.4   c0.1-6.3,0.7-12.2-2.8-16.8C347.6,268.5,347.6,274.2,350.2,279.4z M365.1,278.9c-1.2,0.3-3.2,15.2-1.3,14.4   C364.7,288.4,365.9,283.8,365.1,278.9z M363.1,298.8c-1.4,2.4-1.4,2.4,0,3.7C363.1,301.4,363.1,300.3,363.1,298.8z" />
	<path fill="#544492" d="M329.9,254c0.9,4.5,3.4,22.5,0.4,24.8c-0.5-2-0.9-4-2.6-5.8c-5.7,21.8,0.6,42.7,5.9,63.7   c-4.6-6.8-6-14.9-8.9-22.4c-1.8,13.5,4.9,25.1,8.2,37.7c-2.9-2.1-5-5.5-8.1-13.2c-1,8.3,1.1,16.9-0.9,25c-10.5,2.9-20.9-3-29.4-8.8   c4.4-28.6-13.9-84,6.7-102.3c5.1-1.5,23.5,4.7,24.7,1.9c-1.4-0.5-2.8-1.1-4.1-1.6c-0.3-1.4,0.3-2.6-0.8-4.1c-0.6,1.5-1,2.6-1.4,3.7   c-2,0.6-3.7-0.2-5.5-0.6c0-1.6,0.5-3.3,1.5-4.5c5.2,0.8,11,0.1,16,1.5c-1.7,0.8,0,2.9-1.5,3.9c-0.2-1.1,0.3-2.3-0.4-3.5   c-1.3,1.6-1.5,3.1-0.9,4.7C329.2,253.9,329.6,254,329.9,254z M308,320.7c1.3,1.7,2,4,5.1,5.1c-12.2-11.8-4.1-28-3.6-42.5   c-3.6,10-4.1,20.4-3.7,31.2c-3.1-2-3.4-5.9-7.2-7.4c10.9,12.6,5.4,19.2,9.1,33.3c1.6-6.8-2.1-14.6-0.3-20.6   C307.6,320.1,307.8,320.4,308,320.7z M305.8,344c1.5,2.3-0.8,4.6,0.2,7.2c0.6-1.2,0.4-2.8,1.7-3.7c1.3,0.4,1.7,2,3.8,2.6   c-2.2-2.8-4-5-3.7-8.1c-0.9-0.1-1.5-0.1-2.1-0.2c-2.2-2.9-3.4-6.7-6.5-8.9C299.9,336.8,304,340.3,305.8,344z M310.7,254.4   c-1,7.7-3.8,12.4-3.1,20.1C309,268,313.7,260.1,310.7,254.4z M317.1,257.3c-1,2.1-0.8,3.4-0.3,4.7C317,260.7,318,259.5,317.1,257.3   z M324.7,252.8c0.2,0,0.5,0,0.7,0.1c0-0.9-0.1-1.9-0.1-2.8c-0.2,0-0.3,0-0.5,0C324.8,250.9,324.8,251.8,324.7,252.8z" />
	<path fill="#B28C7D" d="M318,502.8c-0.1,11.3,1.5,11.1-8,18c-2-0.2-3.9-0.4-5.7-0.6c3.4-32.6-13.3-66.6,2.1-97.4   c0.8,3.2-0.8,5.3,0.8,8.4c1.4-4,1.9-7.6,3.1-11.2c-2.1-1.1-3.4-3.3-0.1-3.5c2.5-1-0.7-2.2-0.6-3.5c0.5-2.3,0.8-4.8,2.3-7.3   c4.7,10.7,8.1-3.3,6.5-8.2c-0.3-8.9-3.3-17.4-3.2-26.2c11.7,1,21-7.9,31.8-9.9c2.7,6.1-3.9,16.8-4.5,23.7   c1.8,15.9-9.3,26.7-13.2,41.1c2.4-1.2,2-3.5,3.6-5.3c-2.2,25.3-10.3,49.6-14.3,74.8c-1.3-0.9-0.1-3.3-2.2-3.9   C315.4,495.9,317.6,499.1,318,502.8z M326.3,394.6c-2.3,4.2-3.1,9.6-2,14.2c0.7,0.3,1.3,0.6,2,0.9c0.9,1.8,1.2,3.9,3.2,4.8   c4.4-4.8,2.3-11.2,1.9-16.9c-1-1.2-1.9-2.4-2.9-3.5c1.2-1.4,2.1-3,2-5.2C328.2,390.4,327,392.3,326.3,394.6z M305.3,437.7   c1.6-1.4,1.8-3.1,1.8-5C304.7,433.7,304.7,434,305.3,437.7z M328.8,429.9c-1.2,1.6-2.2,3.3-1.7,5.7   C328.8,433.8,329.4,432,328.8,429.9z M334.7,383.9c-2.1,1.6-2.1,1.6-2.6,4.1C333.8,387.4,334.1,386,334.7,383.9z M334.8,383.3   c1.3-1.4,2.2-1.6,1.7-3.9C335.2,380.7,334.1,381.4,334.8,383.3z M325.8,439.5c-1.3,1-1.3,1-0.5,3.3   C326.5,441.8,326.5,440.8,325.8,439.5z M317.2,480.5c-0.2-1.6-0.3-2.4-0.3-3.2C315.3,478,315.3,478.1,317.2,480.5z M317,487.9   c0-1.5,0-2.4,0-3.3C315.8,485.4,315.8,485.4,317,487.9z M305.5,443.5c0.6-0.8,0.6-1.6,0-2.5C304.3,442.5,304.3,442.5,305.5,443.5z    M304.9,449.2c-1.3,1.2-1.3,1.2,0.2,1.8C305,450.4,305,449.9,304.9,449.2z" />
	<path fill="#B28C7D" d="M388.9,362.2c7.3,23.5-1.7,16.1-3,33.2c-4.9,29-7.4,58.8-15.4,87.5c-4.3,9.8-2.3,27.3-9.4,33.3   c-0.1,0.7-0.2,1.3-0.4,2.1c-3.4,0.6-6.9,0.5-10.4,0.4c0-0.5,0-1,0-1.5l0,0c11.4-36.8-10-62.2,8.4-98.3c0.8,1.9,0.6,4.2,2.5,5.5   c1-2.5-0.1-3.9,0.8-6.2c1.1,2.4,1.9,4.3,4.5,4.3c4.1-3.4-0.9-8.7-1.3-13c-4.6-13.6-11.5-27.8-11.7-42.7   C365.9,370.4,377.5,366.3,388.9,362.2z M377.6,393.2c-1.7,0.1-3.7-0.4-4.6,1.5c-2.6-4.3-3.4-11.6-10.1-10.2   c-3.4,4.9,1.7,12.2,6.5,14c1.2-0.8,2.2-0.9,3.6-0.3c0.1,1.1,0.2,2.1,0.2,3c1.7,1.3,1.8,4.2,4.2,4.1c0.4-3.2,1.4-6.3,1-9.6   c2.3-2,8.1-9,4.2-11.2C381.2,387.4,380.4,390.9,377.6,393.2z M364,439.1c2.3-1,1.5-2.6-0.2-3.9C363.9,436.9,364,438,364,439.1z    M381.7,382.7c1.5-0.6,1.7-1.6,2.2-3.4C382.5,380.5,381.5,380.9,381.7,382.7z M364,429c-0.3,0-0.6,0-0.8,0c0.1,0.8,0.2,1.5,0.3,2.3   c0.1,0,0.3,0,0.4,0C363.9,430.6,364,429.8,364,429z M364.9,443.8c-0.6-0.4-1.1-0.8-1.4-0.1C363.9,444.6,364.1,444.5,364.9,443.8z" />
	<path fill="#8F8580" d="M416.2,426.5c-1.5,3.2,1.6,8.2,3,11c0.3,5.1,0.6,9.8,0.8,14.7c2.9,2.1,6.5,2.9,9.7,4.5   c0.6,5.2,1.4,11,0.2,16c-0.1-3.2-0.1-6.5-0.2-9.5c-2.3-2.3-3.8-3.2-6.6-4c-0.2,3.8,0,7.5-0.1,11.2c-0.4-0.2-0.8-0.5-1.2-0.7   c-1.2,1.6-1.2,1.6,0.5,2.8c0,1.3,0,2.6,0,3.9c-0.2,0.1-0.4,0.2-0.6,0.4c0.2,0.1,0.4,0.2,0.6,0.4c-0.7,1.1-0.9,2.4-0.7,3.7   c-0.2,0.2-0.3,0.3-0.5,0.5c0.4,0.1,0.8,0.2,1.2,0.3c-0.9,1.4-1.9,2.9-1.4,4.8c-3.1,2.9-5.1,8.3,0,10.4c-1.4,1.1-1.2,2.5-0.9,4   c-0.4,0-0.7,0.1-1.1,0.1c-0.7,1.7-1.4,3.3-0.3,5c-1.4,1-0.8,3.2,0,4.5c-1.9,0.3-1.4,0.8-0.8,2.2c-1.6,12.9-4.8,26.1-9.4,38.7   c-2.3,5.4-4.7,12-3.9,17.7c0.4-0.1,0.8-0.3,1.1-0.4c-0.3,2.5-4.3,3.3-5.8,1.2c5.6-23.1,11.7-46.3,14.2-70   c4.8-34.7-2.3-61.9-13.6-94.3c-7.8-31-10.7-63.1-16.7-94.4c1.2-0.1,2.4-0.3,3.6,0.1c1.5,3.3,1.2,7.1,3.9,10.3   c0.1-1.3,0.1-2.2,0.2-3c1.9,1.6-0.2,3.7,0.6,5.5c-0.4,0-0.7,0-1.2-0.1c-0.4,1.5-0.5,2.8,1.2,3.5c0.3,1.8,0.5,3.7,0.7,5.5   c-1.3,0.8-0.8,1.8-0.3,2.9c0.4,0,0.8-0.1,1.1-0.1c0.3,1.6,0.5,3.1,0.8,4.7c-0.4,0.3-0.8,0.7-1.6,1.3c1.6,0.1,1.6-0.6,1.6-1.3   c1.7,1.5,0.4,4.6,0.8,6.8c-1.5,0.7-0.1,1.9,0.8,2.4c1,14.3,7.2,28,9.1,42.2c-0.6,0.3-1.4,0.5-1,1.6c0.5,0,1.1-0.1,1.7-0.1   c0.5,2.1,1,4.1,1.5,6.2c-0.4,0-0.8,0.1-1.2,0.1c0,0.1,0,0.3,0,0.4c0.4,0,0.8,0.1,1.2,0.1c0.5,1.5,1,3.1,1.5,4.6   c-1.3,1.7-1.1,2.4,0.8,3c0.5,1.5,1,3,1.5,4.5c-1.1,1.4-1,1.8,0.8,2.2c0.3,0.7,0.5,1.4,0.8,2.1c-1.8,1.1-0.6,3.6,0.8,4.8   c0.4-0.4,0.6-0.7,0.8-0.9C415,422.3,414.7,424.6,416.2,426.5z M422.2,467.7c-0.4-4,1.6-8.9-0.6-12.4   C419.7,458.5,420.6,464,422.2,467.7z" />
	<path fill="#B1B6B7" d="M354.4,557.4c-20.8,9.8-31.8,9.8-51.5-3.3c-3.6,1.8-1.6,3.5-2.4,6.2l0,0c-4.3,0.3-7.9-1.4-11.5-3.7   c3.2-9.7,1.4-19.7,3.2-29.5c0.4,0.2,0.8,0.5,1.3,0.7c0.2,2.3,1.7,4.1,1.5,6.4c-0.2,1.3,0.8,2,2.1,2.3c3.7-1.1,5.4-5.2,8.9-6.5   c3.5-6.1,8.8-10.6,13.6-11.8c3.1,2.6,2.1,7.4,6.1,10c-3.1,2.6-10.1,2.2-10.3,6.9c4.1-1.5,8-2.9,11.8-4.3c1,0.6,1.8,1.1,2.7,1.6   c-1.9,2.2-12.9,1.9-10,6.3c1.2-0.2,2.5-0.4,3.8-0.6c0.5,0.2,1,0.5,1.5,0.7c-1.3,1-2.5,1.5-2,3.5c4.7-0.2,8.7-2.3,13.3-2.8   c1,1.3,2.4,2.4,2.7,4.2c-7.8,0.9-8.4,1-9.5,3c3.1,2.9,7.7-0.9,11.4-1.3c3.8,2.4,7.5,6.4,12.4,7c2.9,0.7,5.3,0.2,7.8,2.2   C358.7,556,357,556.6,354.4,557.4z M342.5,549.2c-3.2-0.1-6.2-0.9-8.6,0.8C335.7,552.5,340.4,551.4,342.5,549.2z" />
	<path fill="#A39893" d="M413,289.1c0.9,4.3,3.3,13.6,9.3,10c-1-5.5-2.2-11.7-5.4-16.4c3.3-0.8,28.1-1,40.8-0.5   c6.5,2.7,6.9,10.8,12.4,14.7c1.3-0.2,2.9-1,2.8-2.4c2.2,0.6,3.9-0.8,5.9-1.6c0.6-1.1-0.1-2.1-0.4-3.2c0.5-0.1,1-0.1,1.4-0.2   c1.7,4,2.5,9.8,0.9,14.1c-31.3,1.7-63,3.5-94.4,4c0.1-0.5,0.2-0.9,0.3-1.3c1-0.7,1-0.9-0.1-1.5l0,0c1.6-1.5,0-10-1.5-11.4l0,0   c0-2.4-1.1-4.3-0.4-6.7c8.1,4.2,5.2,8,9.6,11.1c1.4,2.2,3,4.1,5.4,5.3c1-0.5,1.9-1,2.9-1.5c1.3,1,3.3,3.8,4.8,1.6   c0.4,0,0.8-0.1,1.2-0.1c1.5,1.2,3,2.5,5.1,0.3c-0.4-5-3.2-11.3-1.4-16C412.5,288.1,412.8,288.6,413,289.1z" />
	<path fill="#B1B6B7" d="M362.4,552.2c-15.1-0.5-19.6-11.6-28.8-20.4c3.7-3.2,4.8-7.2,6.9-11.4c6.4,15.7,11.8,6.8,22.5,1   c0.1-0.6,0.2-1.3,0.3-2.3c1.4-1.5,3.1-3.2,4.9-5.1c1.8,2.7,3.4,5.2,5,7.7c-2.1,0.5-8.4,1.4-5.8,4.8c2.8,0,5-2.1,7.8-2.7   c0.6,0.7,1.3,1.4,1.9,2.2c-1.6,1.3-4.2,0.3-5.6,2.2c1,3.8,5.1,0.7,8.3,0.7c0.3,0.3,0.8,0.9,1.4,1.6c-7.9,3.1-4.2,5.6,2,3   c0.4,0.6,0.8,1.3,1.3,2.1c6.8-0.2,12.8,4.3,19.5,4.5c-0.4,4.4-1.4,8.9-3.1,12.9c-7.9,3.9-15.7-1.4-23.6-1.4c-4.5,0.8-6,0.8-10.3,0   C365.7,551.3,363.3,550.6,362.4,552.2z" />
	<path fill="#8F8580" d="M500.1,459c1,0.2,2.2-0.5,3.1,0.6c-0.4,0.1-1-0.1-1.3,0.5c6.5,3.5,13.4,0.4,20.2,1.2   c-2.2,1.6-5.3,0.3-8.2,0.7c2.2,3.6,0.5,6.9,0.2,10.9c0.3,0.3,0.7,0.8,1.1,1.2c-31.1-4.4-63-11.4-92.6-22.4   c0.3-3.8-3.4-13.2,2.7-13.1c0,0.2,0,0.5,0,0.7c-0.2,0.4-0.5,0.7-0.7,1c14.6,8.4,32.1,10.5,48.2,14.8   C481.5,456.2,491.8,461.8,500.1,459z" />
	<path fill="#977264" d="M309.7,416.5c-1.9,0.6-2.1,1.1-0.7,2.5c-1.1,1.9-1.7,3.9-2.4,6c-0.1-0.6-0.1-1.2-0.2-2.3   c-15.4,30.9,1.3,64.8-2.1,97.4c-1.6,0.3-3-0.5-4.5-0.9c-0.1-0.7,0-1.3,0.8-1.5c2.7-1.1,1.1-5.5,1.3-7.9c-0.6-0.2-1.1-0.3-1.6-0.5   c-0.2-28.2-12-56.7-1.9-84.3c11.3-22.7,14.3-37.1,5.5-61.5c11.2,4.2,24.2,2.4,36-0.1c-7.2,4.1-15.9,8.1-24.6,7.8   c0,8.7,2.9,17.3,3.2,26.2c1.6,4.9-1.8,18.9-6.5,8.2c-1.5,2.5-1.7,5-2.3,7.3c-0.1,1.3,3.1,2.5,0.6,3.5c0-0.4,0-0.8,0-1.2   c-0.2,0-0.3,0-0.5,0C309.7,415.7,309.7,416.1,309.7,416.5z M311.2,389.3c2.2-1,2.1-5.9,0-6.4C310.7,384.9,311,386.9,311.2,389.3z    M301.6,500c0.6-1.9,1.3-4.6-0.4-5.3C300.2,497,300.2,497.6,301.6,500z M302,490.4c1-1.7,0.9-3.2-0.5-4.9   C301.1,487.4,301,489,302,490.4z M301,501c-0.7,1.8-0.9,3,0.9,3.9C302,503.6,302.4,502.5,301,501z M309,373.6   c0.9-1.1,0.9-1.9-0.3-3.4C308.8,371.8,308.9,372.6,309,373.6z M311,378.3c-0.1-0.2-0.2-0.4-0.2-0.6c-0.4,0.1-0.2,0.5-0.2,0.8   C310.7,378.4,310.8,378.3,311,378.3z" />
	<path fill="#8F8580" d="M615,569.3c-1.2,1.2-2.3,0.4-3.4-0.3c-8.4-24.7-12.7-50.7-13.9-76.6c-22.9-3.6-45.9-7-68-14.4   c-0.1-1.1-0.1-2.3-0.2-3.7c0.7-0.1,1.1-0.1,1.6-0.2c19.9,10.6,43.8,7.9,64.6,15.7c0.1-1.5,0.8-2.7,1.8-3.7c-0.2-0.5-0.5-1-0.7-1.4   c0.4-0.1,0.7-0.2,1.3-0.4c-1.7-9,0.6-18.2-2-27.2c4.4-2.3,9.9-2.9,14.9-3.7c0.2,10,0.3,19.9,0.1,29.8c-1.9-7.6-0.1-16.6-0.7-24.7   c-2.3,0.9-4.2,1.7-6,3.1c0,0.6,0,1.2,0,1.9c-0.4,0.4-0.9,0.8-1.2,1c0.9,3.1-1,7.8,1.9,9.5c0,1.3,0,2.6,0,3.9c-2-0.4-2,3.3,0,3   c0,2.3,0,4.6,0,6.9c-0.5,0-0.9,0.1-1.5,0.1c0.4,2.2-1.1,5.6,1.4,6.5c0,1.9-0.4,3.9,0.2,5.5c1.1,2.7-0.9,5,0.6,7.4   c-0.2,0.1-0.4,0.2-0.6,0.3c0.1,0.1,0.2,0.2,0.3,0.3c0.1-0.2,0.2-0.4,0.3-0.6c0.2,0.3,0.4,0.5,0.7,0.8c-0.6,0.6-1,1.1-1.2,1.3   C606.3,529.6,611.9,549.7,615,569.3z M597.4,487.9c-0.2,0-0.3,0-0.5,0c0,0.6,0,1.2,0,1.8c0.2,0,0.3,0,0.5,0   C597.4,489.2,597.4,488.5,597.4,487.9z" />
	<path fill="#977264" d="M291.3,168.7c1.3-1.4,2.8,0,4.4,0.4c0.3-3.2-3.5-6.4-6.1-8.5c-0.4,1-0.7,1.9-1,2.7   c-1.7-5.7-0.9-11.6-1-17.4c3-1.6,5.9-2.3,9.1-2.2c-2.5,24.6,13.1,27.2,6.8,32.5c0-2.4-3.6-7.2-6-7.4c0.4,3,3.5,3.3,3.9,5.9   c-2.3,1.7,1.3,5.1,1.6,7.4c3.2,5.7,0.3,13,5,18c1.7,6,9.5,9.6,10,15.4c-0.5,0.2-0.9,0.3-1.4,0.5c0,2.7,2.8,3.8,2.8,6.4   c0.2,1.9,0.3,2,2.1,2.1c0.1,1.7,0.3,3.4,2.4,3.3c0.2,1.7,1,2.7,2.8,2.6c2.1,9.1,11.2,15.4,18.8,19.5c-0.2-0.1-0.3-0.2-0.5-0.3   c-0.9-2.2-2-4.1-2.2-6.6c9.3,3.5,16.2,11.6,20.3,20.2c-1.3-0.5-2.3-1.7-3.8-1.5c-0.3-2.8-1-3.5-3.8-3.8c-0.6-1.9-0.6-1.9-2.1-1.9   c0.1,1.3,0.8,1.9,2.1,1.9c0.2,2.3,2,3,3.8,3.8c-0.6,1.7,2.8,2.7,1.5,3.9c-21.4-11.3-41.3-27-50.8-49.8c0.3-0.3,0.6-0.6,0.9-0.9   c0.3,0,0.5,0,0.8,0.1c1,1,1.9,4.6,3.7,3.2c-0.1-2.3-2.3-3.2-3.6-4.9c-0.9-2.5-2.9-4-4.7-5.8C296.4,197.9,299.3,180.3,291.3,168.7z    M306.4,203.2c0.4-1.8-0.9-4-2.6-4.8C303.8,201,304,201.5,306.4,203.2z M317.5,220.7c0.1-0.1,0.2-0.1,0.2-0.2   c-0.2-0.3-0.3-0.3-0.5,0C317.3,220.5,317.4,220.6,317.5,220.7z" />
	<path fill="#8F8580" d="M532.5,596.5c-1.6,0.9-1.6,0.9-4.3,0.5c-6.2-16.2-8.7-33.4-12.7-50.3c-2.9-10.7,0.6-23.3-3.2-33.3   c-1.3,0-2.6,0.1-3.9-0.1c-1-1.5-2.5-0.2-3.8-0.7c-1-1.5-2.5-0.3-3.8-0.8c-0.7-1.4-2-0.3-3-0.7c1-1,2.1-2,3.2-3c1.2,0,2.4,0,3.6,0   l0,0c0,0.6,0.1,1.2,0.1,1.9c1.4,0.4,2.6,0.7,3.9,1c1-0.5,1.8-0.9,2.7-1.4c0.2,0.7-0.2,1.7,1,2.1c0.8-0.9,0.8-1.7,0.2-2.7   c-0.3,0-0.7-0.1-1.1-0.1l-0.1-0.1c0.1-1.3,0.2-2.5-0.7-3.6c0.8-0.1,1.7-0.1,2.7-0.2c-2.1-6.9-0.5-14-1.1-20.9   c-1.3-2.5-0.5-4.9,0-7.3c4.5-1.2,9.5,0.4,13.9-1.7c0.5-0.2,1-0.1,1.1,0.6c-1.5,5-3.7,5-9,4.7c1.5,4.8-0.4,9.7,2.1,14.1   c-0.2,0.7-0.5,1.4-0.8,2.2c0.5,0.6,1.1,1.3,1.7,2c-1,4-1,7.9-0.2,12c-0.7-0.3-0.4-1.9-1.9-1.4c-0.6,2.1,0.3,4.2,0.6,6.9   c0.6-1.2,0.9-2,1.3-2.7c0.5,5.5-1,11.5,0.9,16.7c-0.4,0.1-0.8,0.1-1.8,0.3c0.8,0.6,1.3,0.9,1.7,1.2c-3,14.1,3,28,4.8,41.9   C528.9,578.7,528.2,594.5,532.5,596.5z M519.8,500.8c0.3,0,0.5,0,0.8,0c-0.1-0.8-0.1-1.6-0.2-2.4c-0.2,0-0.3,0-0.5,0   C519.8,499.3,519.8,500,519.8,500.8z M519.4,506.8l-0.2,0.2l0.3,0L519.4,506.8z" />
	<path fill="#8F8580" d="M504.8,424.3c-3.4,1.5-7.6,1-11.6,1.7c-15.8-37.5-18.3-78.7-25.5-118.4c0.9-1,2-0.7,3.2-0.6   c0.9,1.9,1.6,4,1.9,6.1c-1.9,1.9,0.9,3.7,0.8,6c-1.5,0.7,0,4,0.8,5.4c-0.3,1.3-0.3,2.6,0.8,3.6c-0.3,0.2-0.5,0.5-1.1,0.9   c1.5,0.5,0.3,2.3,1.7,3c0.1,0.4,0.1,0.8,0.2,1.2c0.1,0,0.2,0,0.3,0c0.1-0.4,0.1-0.8,0.2-1.2c1.1,1.8,0.9,4.6,1.6,6.7   c-1.1,0.8-0.6,1.8,0.6,1.5c4.2,17.7,6.9,35.7,12.1,53.1c-0.8,1.3-0.8,1.3,0.1,3c-0.1-1.3-0.1-2.2-0.1-3c2,1.2-0.1,4.3,1.6,6   c1.8,1.9-0.4,3.5,0.7,5.2c-0.2,1.6,0.2,4.6,2.3,4.5c-0.2,0.4-0.4,0.9-0.6,1.3c0.3,1.6,0.8,3,2.1,4c0.7,2.4,1.3,10.1,4.5,9.6   c0-0.3,0.1-0.8,0.1-1.3C503,424.1,503,424.1,504.8,424.3z" />
	<path fill="#A39893" d="M532.5,596.5c-4.3-2-3.5-17.9-5.7-23.1c-5.9-24.7-6.7-49.7-5.4-74.8c-0.7-0.8-1.2-1.4-1.7-2   c1.5-3.8,1.9-7.8,0.6-11.8c-0.5,0-0.9,0.1-1.3,0.1c-0.2-1.4-0.5-2.9-0.8-4.6c5.3,0.3,7.6,0.4,9-4.7c0.7,37.1-1.1,74.8,5.7,111.5   C533.5,589.9,535.5,594.4,532.5,596.5z" />
	<path fill="#A39893" d="M407.1,399.3c-3.4-16.6-9.3-33-11.3-49.9c0.8-1.1-0.1-1.7-0.8-2.4c-0.4-2.1,0.9-5.2-0.8-6.8l0,0   c-1-2.2,0.1-6.1-1.6-7.5l0,0.1c-1.3-4.8,0.2-10.3-1.3-14.5c-0.8-3-0.9-6.3-2.8-8.9c1.5,0,3,0,4.7,0c3.5,18.6,4.7,38.2,9.4,56.8   c6.1,23.5,17.5,45.4,24.3,68.7c-2,1.2-4,1.7-6.4,1.3c-1.9-3-2.1-7-4.4-9.7l0,0c-2.4-6.1-4.6-12.4-6.8-18.9c1-1.2,1-1.2,0-2.3   C407.9,403.9,407.5,401.3,407.1,399.3z" />
	<path fill="#977264" d="M388.9,362.2c-11.4,4.1-23,8.2-35.2,4.6c0.2,14.9,7.1,29,11.7,42.7c0.5,4.3,5.5,9.6,1.3,13   c-2.6,0-3.5-2-4.5-4.3c-0.2,0.8-0.3,1.2-0.4,1.6c-0.8-0.6-0.7-1.5-0.8-2.3c1-0.6,0-1.2-0.4-2.4c-0.2,0.8-0.2,1.2-0.3,1.5   c-1-0.4-0.8-1.2-0.9-2c-0.2-0.3-0.5-0.6-0.7-0.9c0,0,0,0,0,0c-0.3-0.4-0.9-0.8-0.8-1.4c-7.1-11.3-5.4-25.5-10.1-37.9   c1.1-3.9,2.5-8.2,2.5-12.9c1.7-0.8,3.5-1.7,5.5-2.6c10,3.7,22.8,5.6,33.1,1.5C388.9,361,388.9,361.6,388.9,362.2z" />
	<path fill="#A29893" d="M497.1,414.4c-1.4-1-1.9-2.4-2.1-4c1.2-2,0.8-5.2-1.6-5.8c-1.1-1.7,1-3.4-0.8-5.2c-1.6-1.8,0.4-4.8-1.6-6   l0,0c-6.7-19.5-7.7-43.4-15.1-61.3c-1.5-0.6-0.2-2.4-1.7-3c4.6-3.2-2.1-5.2-1-9.5c2.5-0.6,1.1-6-0.2-3.3l0,0   c-1.1-1.2-1.1-1.9-0.1-3.1c0.4,0.1,0.8,0.2,1.7,0.5c-1.3-2.1-0.4-4.2-1.6-5.9c0.1-0.4,0.2-0.7,0.3-1.2c1,0,2,0,2.9,0   c3.3,17.7,4.6,36.3,9.5,53.9c6.6,21.3,16,41.7,22.8,62.8C499.7,429.1,501.1,414.3,497.1,414.4z" />
	<path fill="#544492" d="M355,344.2c0-1.1,0-2.2,0-3.3c0.5,1.2,0.7,1.9,2,2.5c0.5-3.9-0.3-6.4,0.8-10.1c2.1,1.6,4.3,4.2,5.9,5.1   c-0.2-0.1-0.4-0.2-0.5-0.3c-0.3-2.9-3.8-4.5-5.4-6.7c-0.1-6.1,0.9-11.8,2.4-17.4c0.2-0.1,0.5-0.1,0.7-0.1c0,0,0,0,0,0   c0.2,0.3,0.5,0.6,0.7,0.9c0,0.6,0.5,1,0.8,1.5c0,0.6,0.4,1,0.8,1.5l0,0c0.4,1.8,1.5,3,3.1,4.7c-0.2-2.6-1.1-4.2-2.2-5.6   c-0.4-1.6-1.6-2.9-2.2-4.5c6.7-0.7,13.9,24.2,14.1,30c-6.2-3.1-6.8-11.2-10-16.8c-1.9,12,3.8,21.9,8.7,32.6   c-0.4,0.4-0.8,0.8-1.1,1.2c-3.2-2.1-4-3-6.3-6.6c-0.6,1.9-0.1,3.9-0.3,5.7c0.6,0.5,1,0.9,1.5,1.4c-4.4-0.2-8.7-0.8-12.6-3.3   c-0.8-4,1.1-8.1,0.3-12.2C355.8,344.3,355.4,344.3,355,344.2z" />
	<path fill="#A29893" d="M605.1,487.7c-0.2-8.7,0.7-17.7-0.7-26.2c1.8-1.4,3.7-2.3,6-3.1c0.8,31.2,0.7,62.1,4.5,93.1   c-0.4,4.9,5.5,15.3,0.1,17.8c-3.1-19.6-8.7-39.7-9.6-59.9c0.2-0.2,0.7-0.7,1.2-1.3C603.8,502.4,605.7,494.4,605.1,487.7z" />
	<path fill="#967264" d="M350.4,517.1c0,0.5,0,1,0,1.5c-2,0-4,0.3-5.8-1.2c11.6-37.1-9.3-67.5,10.4-104.5c0.5,0.3,0.9,0.6,1.3,0.8   c7.7,5.9-11.5,28.3-5.2,47.5C354.9,479.4,355.3,499.5,350.4,517.1c-0.3-2.6,0.8-5.5-0.9-7.7c-1.8,2.6-1.6,5.7-0.9,8.7   C349.4,517.7,349.9,517.4,350.4,517.1z M350.3,496.3c-1,2.5-0.8,4,0.9,5.8C351.2,500,351.7,498.4,350.3,496.3z M350,507.8   c0.7-1.1,1.6-2.3,0-3.4C348.8,506.3,348.8,506.3,350,507.8z M352.4,492.8c0.4-1.7,0.7-3.1-1.2-4.3   C351.2,490.2,350.7,491.7,352.4,492.8z" />
	<path fill="#8F8580" d="M504.6,508.1c-1.2,0-2.5,0-3.6,0c-1.1,1.1-2.1,2-3.2,3c-26.3-3.4-52.9-9.8-77.9-17.7   c-0.3-1.7,0.4-3.1,1.5-4.3C447.3,497.8,477,504.7,504.6,508.1z" />
	<path fill="#D4D1DB" d="M305.2,242.7c-0.9-10.6,2.2-19.2,0.5-29.8c6.3,12.1,12.8,23.4,22.6,32.9C322.7,246.6,314,245.4,305.2,242.7   z" />
	<path fill="#A19792" d="M504.6,508.1c-27.6-3.4-57.3-10.2-83.2-19c28.9,5.2,59.2,13.1,89.2,16.1c0.9,1.1,0.8,2.3,0.7,3.6   C509,509,507,507.8,504.6,508.1L504.6,508.1z" />
	<path fill="#A29792" d="M418.4,510.3c-0.8-1.3-1.4-3.5,0-4.5c0.1,0.2,0.3,0.3,0.4,0.5c2.6-2.9-0.8-7,1.9-9.6c1.3,0.3,2.7,0.7,4,1   c-5.2,24-10.1,48-19.1,70.8c-0.4,0.1-0.7,0.2-1.1,0.4c-0.8-5.7,1.5-12.3,3.9-17.7c4.5-12.6,7.8-25.8,9.4-38.7   C418.8,512.1,418.5,511.2,418.4,510.3z" />
	<path fill="#A19792" d="M596.9,484.7c0.2,0.5,0.4,0.9,0.7,1.4c-1.1,1-1.7,2.2-1.8,3.7c-20.8-7.8-44.7-5.1-64.6-15.7   c1.4-0.5,2.8-0.9,4.2-1.4C554.9,480.7,576.4,480.6,596.9,484.7z" />
	<path fill="#544492" d="M342.9,257.1c-2.9,10.2,1.6,24.8-3.9,34.1c-2.3-1.1-1.4-3.6-2.2-5.3c-1.7-3.8-1.6-7.8-1.5-11.9   c-0.4-0.5-0.9-1-1.5-1.7c0.2-1.2-0.6-2.7,0.6-3.8c0,1.1,0,2.2,0,3.5c2.1-2.9,4.2-8.4,4-11.8c-1.6,0.9-2.2,2.5-3,4   c0-2.6,0-5.2,0-7.8c0.9-0.2,2,0.4,2.9-0.8c-2-1.5-4.2-0.3-3.6-4.4C337.5,253.3,340.2,255.2,342.9,257.1z" />
	<path fill="#8D847F" d="M394.3,297.9c-4.4-3.1-1.5-7-9.6-11.1c-0.7,2.4,0.4,4.3,0.4,6.7c-1-0.3-0.3-2.1-1.9-2   c-0.4,1.6,0.5,3,0.6,4.8c1.1-1.3,1.1-1.3,1.3-2.7c1.5,1.3,3.1,10,1.5,11.4c-0.4,0.1-0.7,0.1-1.2,0.2c-0.1,0.7-0.3,1.5-0.4,2.4   c-0.5,0.3-1.1,0.6-1.9,1c-5-1.2-4.3-7.3-5.2-11.3c0-4.6-2.7-9.4,0.3-13.5c2.5,1,3.5,3.1,4.8,5.3l0,0c0.1,0.2,0.3,0.4,0.4,0.5   c0.8-2,0.1-3.6-1.2-5.1C387.4,280.4,392.9,293.9,394.3,297.9z M383.8,299.3c0.2,1.6,0.4,2.6,1.4,3.3   C386.2,300.8,386.2,300.8,383.8,299.3z" />
	<path fill="#A29792" d="M422.9,470.4c0.1-3.7,0-7.4,0.1-11.2c2.8,0.8,4.3,1.7,6.6,4c0.5,6.9-0.1,18.7-2.1,24.2   c-2.3,0.2-4.4-1.6-6.8-1.1c-0.5-1.9,0.5-3.3,1.4-4.8c-0.2-0.3-0.5-0.5-0.7-0.8C422.1,477.3,421.9,473.7,422.9,470.4z" />
	<path fill="#8D847F" d="M494.9,555.8c-11.7,18.9,5.4-37.2,4.6-40.7c1.5-0.1,3-0.1,4.3,0.6C504.6,529.3,492.4,542.6,494.9,555.8z" />
	<path fill="#A29792" d="M494.9,555.8c-2.5-13.2,9.7-26.4,9-40.1c1.8,0,3.3,1.1,5.2,0.8C506.2,529.9,501.4,543.5,494.9,555.8z" />
	<path fill="#967063" d="M385.2,282.1c-2.4-1-4.5-1.2-7.1-1.8c-0.3,0.2-0.7,0.5-1.4,0.9c-6.6-1.9-7.5-9.1-11.9-13.5c0-1,0-2,0-3   c3.7,3.9,6.3,9,12.1,10.6c5.8,1.3,10.8,7.5,16.1,8.1c3.1,4.9,6.4,10.7,5.6,16.7C393.2,294.9,393,284.8,385.2,282.1z" />
	<path fill="#9AA0A1" d="M291.4,535.2c0.7,7.4-0.6,14.3-2.3,21.4c3.5,2.3,7.2,4,11.5,3.7c0.3,0.7,0.7,1.4,1,2.2   c-6.1,0.8-11.9-0.3-17.5-2.7C284.3,551.5,287.2,542.3,291.4,535.2z" />
	<path fill="#9BA0A1" d="M362.4,552.2c0.9-1.5,3.3-0.8,4.8-0.8c4.3,0.8,5.8,0.8,10.3,0c7.9,0,15.7,5.3,23.6,1.4   c-0.2,1.2-0.5,2.4-0.8,3.8c-12.5,0.7-24.1-0.5-36.6-1.6C363.4,554.1,362.9,553.1,362.4,552.2z" />
	<path fill="#8D837E" d="M507.6,502.7c-1.7-0.3-3.4-0.6-5.2-0.9c0.5-9,2.2-17,3.2-26c1.4-0.3,2.8-0.4,4.2,0.7   C510.9,485.3,506.6,494.2,507.6,502.7z" />
	<path fill="#100D0C" d="M385.2,282.1c7.9,2.7,8,12.7,13.2,18.1c1.1-2.3-0.5-4.1-0.4-6c0.3-0.3,0.6-0.6,0.9-1   c0.7,2.9,1.5,6.2,2.2,9.3c-0.4,0.2-0.9,0.4-1.4,0.7c-7.2-2.1-9.2-23.1-17.6-18.9c-0.2-0.3-0.4-0.5-0.8-1   C382.7,282.6,384.2,283.4,385.2,282.1z" />
	<path fill="#F2F4F4" d="M307.9,522.9c-0.9,2-2.8,3.2-3.6,5c-0.9-0.2-1.4-0.3-2.3-0.5c-0.8,1.5-1.6,3.2-3.5,4.1   c-1.5-3.5,0.2-6.7,0.6-9.7C302.1,522.1,304.9,522.5,307.9,522.9z" />
	<path fill="#0F0B17" d="M314.1,251.8c1.8,0.5,3.6,1.2,5.5,0.6c0.4-1.1,0.8-2.2,1.4-3.7c1,1.5,0.4,2.8,0.8,4.1   c1.3,0.5,2.8,1.1,4.1,1.6c-1.7,3.6-21.9-5.6-26.2-0.4c0-0.6,0.1-1.2,0.1-1.7c1-1.3,2.8,0.2,3.6-1.3c0.7-0.1,1.4-0.2,2.3-0.3   c-0.2-2.3,0.1-4.2,1.5-5.9c0.5,0.2,1,0.4,1.6,0.6c-2,1.5-2.8,3.3-1.8,5.8C309.5,252,311.8,251.9,314.1,251.8z" />
	<path fill="#E5EBEB" d="M343.5,521c1-0.4,1.7-0.6,2.3-0.8c1.6,1.6,2.7,3.5,5.2,3.7c0.1-0.9,0.2-1.8,0.4-2.8   c2.1-0.1,4.2-0.2,6.7-0.3C353.5,524.9,346.2,529.8,343.5,521z" />
	<path fill="#423867" d="M400.4,341c-1.6-10.2-3-20.4-4.5-30.6c-0.1-0.5,0.2-0.9,1-0.9c2.1,9.9,2.8,20.6,4.2,30.8   C400.9,340.5,400.6,340.8,400.4,341z" />
	<path fill="#24201F" d="M326.2,465c-1.7,8.3-3.1,16.7-4.4,25.1c-0.1-2.1,0.4-4.2-0.7-6.1c1.6-7,2.2-14.6,4.3-21.3   C325.7,463.4,325.1,464.5,326.2,465z" />
	<path fill="#9D928D" d="M507.6,502.7c-1.3-3.8,1.3-8.1,0.8-12.2c0-1.1,0.9-4,1.5-5.1c0.1,5.7,0.6,11.4,0.7,17.2   C509.6,503.2,508.6,502.8,507.6,502.7z" />
	<path fill="#907266" d="M470.6,276.8c1.7,0.1,2.6,1.3,3.6,2.6c-0.1,4.4,2.2,8.1,3.1,12.3c-1.1,0.1-2,0.2-2.9,0.2   c-0.3-0.8-0.5-1.6-0.8-2.4C475.7,286,471.4,280.7,470.6,276.8L470.6,276.8z" />
	<path fill="#1C1A19" d="M388.5,309.4c2.2,3.6,2.9,7.7,2.7,12c-2.6-3.2-2.3-7-3.9-10.3c-1.1-0.5-2.3-0.3-3.6-0.1   C384.8,309.5,386.8,309.9,388.5,309.4z" />
	<path fill="#473A7D" d="M314.1,251.8c-2.3,0.1-4.7,0.2-7-0.3c-1-2.5-0.2-4.4,1.8-5.8c0.2,0.1,0.5,0.2,0.7,0.2   c0.7,1.3,2.5,0.4,3.7,0.8c0.1,0.2,0.1,0.4,0.1,0.7c-1.4-0.3-2.2,0.6-2.9,1.6c-0.1-0.4-0.2-0.9-0.4-1.6c-1.4,1.3-1.6,2.4-0.9,3.7   c0.9,0.2,2.2,0.1,2.9,0c0.5-0.9,0.9-1.5,1.2-2.1c0.2,0.8-0.3,1.8,0.8,2.2C314.1,251.3,314.1,251.5,314.1,251.8z" />
	<path fill="#14100E" d="M358.8,418.9c0.4-3.4-1.6-3-2.5-5.2c0.9-0.2,0.9-0.9,0.9-1.6c0.2,0,0.5,0.1,0.7,0.2c-0.1,0.6,0.5,1,0.8,1.4   l0,0c0.2,0.3,0.5,0.6,0.7,0.9c0.1,0.8-0.1,1.6,0.9,2c0.2,0.3,0.4,0.6,0.7,0.9c0.1,0.8-0.1,1.7,0.8,2.3c0,1.4,0.3,2.9-0.4,4.7   C359.4,423.1,359.6,420.8,358.8,418.9z" />
	<path fill="#291C18" d="M364.7,264.8c0,1,0,2,0,3c-1.2-0.7-2.5-1.5-3.7-2.2c1.4-1.2-2.1-2.2-1.5-3.9l0,0   C361.6,261.7,363.4,263.3,364.7,264.8L364.7,264.8z" />
	<path fill="#3C2E29" d="M318,502.8c-0.4-3.7-2.6-7-1.6-10.9c2.1,0.6,0.8,2.9,2.2,3.9C318.4,498.2,319.2,500.7,318,502.8z" />
	<path fill="#423867" d="M418.5,309.4c-6.3,1.5-13.2,0.2-19.7,0.6c-0.1-0.2-0.2-0.4-0.3-0.5C405.1,309,411.9,309.2,418.5,309.4z" />
	<path fill="#160F0E" d="M474.4,292c0.9-0.1,1.8-0.1,2.9-0.2c-0.2-0.8-0.4-1.5-0.5-2.1c0.5,0,1,0.1,1.6,0.1c0.2,1.1,1,2.1,0.4,3.2   c-2,0.7-3.8,2.2-5.9,1.6C473.3,293.7,473.9,292.8,474.4,292z" />
	<path fill="#342D60" d="M307.3,245.1c-1.4,1.6-1.8,3.6-1.5,5.9c-0.9,0.1-1.6,0.2-2.3,0.3c-1.1-1.3-1.1-2.6,0-3.9   c0,1.1-0.2,2.2,1.4,2.7c0-1.3,0-2.5,0-3.9c-0.5,0.5-1,0.8-1.4,1.2c0-0.7,0.1-1.4,0.1-2.3C305,245.1,306.1,245.1,307.3,245.1z" />
	<path fill="#241F38" d="M400.4,341c0.3-0.2,0.5-0.5,0.8-0.7c0.5,1.6,2.8,10,1.1,10.6C401.2,347.5,400.8,344.2,400.4,341z" />
	<path fill="#17110F" d="M311.9,213.2c1.3,1.6,3.5,2.6,3.6,4.9c-1.8,1.4-2.6-2.2-3.7-3.2C311.9,214.3,311.9,213.8,311.9,213.2z" />
	<path fill="#667879" d="M325.4,539c-0.5-0.2-1-0.5-1.5-0.7c2-1,4.1-1.8,6.9-1.3C328.8,538,327.1,538.6,325.4,539z" />
	<path fill="#2D2C2D" d="M350.5,562.6c-2.1,2.2-2.1,2.2-4.6,2.6c0.9-1.6,2.7-2.1,3.7-3.4C350,562.1,350.3,562.4,350.5,562.6z" />
	<path fill="#1C1C1B" d="M472.9,307.7c1.3,1.7,0.4,3.8,1.6,5.9c-0.9-0.3-1.3-0.4-1.7-0.5c-0.2-1-0.5-2-0.7-3.1   C473.3,309.5,472.7,308.4,472.9,307.7z" />
	<path fill="#58443C" d="M300.6,517.8c-0.8,0.2-0.8,0.9-0.8,1.5c-2-1,0.1-3.9,0.6-5.5C300.4,515.2,300.5,516.5,300.6,517.8z" />
	<path fill="#141125" d="M313.4,247.3c0-0.2,0-0.5-0.1-0.7c0.8,0,1.8-0.4,2.4,0.6c-1,1.1-1.2,2.5-1.5,3.8c-1.2-0.4-0.7-1.4-0.8-2.2   C313.3,248.3,314.5,247.9,313.4,247.3z" />
	<path fill="#575A5B" d="M413.8,551.3c0.5-1.7,0.8-2.6,1-3.7C417.4,548.7,416,550.6,413.8,551.3z" />
	<path fill="#634E45" d="M311.1,214.8c-0.3,0.3-0.6,0.6-0.9,0.9c-0.6-1.1-1.2-2.3-1.9-3.4C309.9,212.6,310.5,213.7,311.1,214.8z" />
	<path fill="#A18274" d="M477.4,287.4c0-0.5-0.1-1-0.1-1.4c0.3-0.3,0.6-0.5,0.8-0.8c0.4,0.6,0.9,1.2,1.3,1.8   C478.9,287.9,478.3,288.4,477.4,287.4z" />
	<path fill="#626969" d="M293.7,524.7c0.5-1.4,1.4-1.8,3-1.1c-0.3,0.6-0.5,1.1-0.8,1.7C295.1,525.1,294.4,524.9,293.7,524.7z" />
	<path fill="#6F5B51" d="M478.1,285.1c-0.3,0.3-0.6,0.5-0.8,0.8c-0.9-1.4-1.4-3-1.4-4.7C476.6,282.6,477.4,283.9,478.1,285.1z" />
	<path fill="#656C6C" d="M334.8,535.4c0.1,0.5,0.3,0.8,0.4,1.3c-1.2,0-2.3,0-4.2,0C332.8,536.1,333.7,535.7,334.8,535.4z" />
	<path fill="#626969" d="M293.6,527.8c-0.4-0.2-0.8-0.5-1.3-0.7c-0.2-1.2,0.4-1.9,1.4-2.4l0,0C293.7,525.7,293.6,526.8,293.6,527.8z   " />
	<path fill="#8D847F" d="M509.1,516.4c-1.3,0-2.6,0.2-3.7-0.7C506.6,515.9,508.3,515.1,509.1,516.4z" />
	<path fill="#544492" d="M335.3,256.3c-1.4-0.1-2.9,0.5-3.8-0.8C332.9,255.6,334.2,255.5,335.3,256.3z" />
	<path fill="#8F8580" d="M505.3,512.7c1,0.2,2.3-0.6,3.1,0.7C507.3,513.3,506.2,513.6,505.3,512.7z" />
	<path fill="#8F8580" d="M501.5,511.9c1,0.2,2.3-0.6,3.1,0.7C503.5,512.6,502.4,512.8,501.5,511.9z" />
	<path fill="#8F8580" d="M498.4,511.2c0.9,0,1.9-0.5,2.4,0.6C499.9,511.9,499,512,498.4,511.2z" />
	<path fill="#8F8580" d="M509.8,513.4c0.8,0,1.7,0,2.5,0C511.4,514.4,510.6,514.2,509.8,513.4z" />
	<path fill="#8D847F" d="M386.6,304.8c1.1,0.6,1.1,0.7,0.1,1.5C386.6,305.8,386.6,305.3,386.6,304.8z" />
	<path fill="#1F1F1E" d="M383,285.8c0.6,0.4,0.7,1,0.6,1.6C382.9,287,382.9,286.4,383,285.8z" />
	<path fill="#19152E" d="M311.1,246.5c-0.7,0.1-1.2,0.1-1.5-0.7C310.2,245.8,310.8,245.8,311.1,246.5z" />
	<path fill="#967264" d="M357.9,412.3c-0.2-0.1-0.5-0.1-0.7-0.2c0-0.2,0-0.5,0.1-0.7C357.5,411.7,357.7,412,357.9,412.3z" />
	<path fill="#1F1F1E" d="M383.5,288.8c-0.1,0.2-0.2,0.4-0.2,0.6c-0.1-0.2-0.3-0.4-0.4-0.5C383.1,288.9,383.3,288.8,383.5,288.8z" />
	<path fill="#1F1F1E" d="M382.9,288.9c-0.2-0.3-0.4-0.5-0.6-0.8C382.5,288.4,382.7,288.7,382.9,288.9z" />
	<path fill="#8F8580" d="M416.2,426.5c0.3,0.3,0.5,0.5,0.8,0.8C416.7,427,416.4,426.7,416.2,426.5z" />
	<path fill="#E0DEE5" d="M298.9,98.3c9.6-5.3,16.7-13.4,25.7-19.9c8.4,5.4,37.4,37.6,40.8,13.9c0.2-0.2,0.5-0.4,0.7-0.7   c7.7,13.4,27.2,12.4,30.5,27.1c-0.3,0-0.6,0-0.9,0c-0.4-0.3-0.8-0.5-1.2-0.8c-0.4,2.8,1.5,4.5,2.6,6.7c4.5,12.7,9.9,30.5-2.6,40.3   c0.3,15.6-4.4,30.2-7,45.2c-1.1,12.7,0,26-3.8,38.3c-6,0.2-11.4,1.9-17.1,0.1c-12.5-13.1-17-31.8-29-44.9c0.1-0.7,0.2-1.4,0.3-2.2   c1.5,0,2.8,1.3,4.3-0.2c-0.1-5.3-1.6-10.2-5.2-14.2c0-1.6,0-2.9,0-4.7c2.3,1.7,3.7,3.8,5.8,5.3c1.2-0.1,2.4-0.1,3.8-0.2   c0-2.3,0.6-4.4-1.5-5.9c0-0.2,0-0.3,0-0.5c-2.2-2.2-3.6-4.4-5.2-7.4c0.2-4.1-0.5-8.9,0.4-13.1c4.9,0.7,9.7-0.6,14.8-0.1   c1.9-1.4,4,0.5,6,0.8c3,1.9,17.8-1.6,15.6-7.4c-14.1-1.4-26.1-7.9-38.4-14.6c-3.5-0.8-15.6-12.8-14.9-4.2c-1.9,2.5,1,5,1.7,7.9   c-8.8-2.2-17.2-2.4-26.3-2.2c-4.8-10.8-8.8-24.1-1.6-34.9c0.8-1.7,2.5-3.5,1.4-5.5C298.3,99.9,298.8,99,298.9,98.3z M393,161.9   c1.6,1.8,3-1.5,0.6-1.6c-2-4.7,0.5-7.6-5.3-11.3c-1.8,0.4-3.8-0.8-5.2,1.1C381.8,158.1,387.3,159.3,393,161.9L393,161.9z    M348.7,103.9c1.2,0.9,2.5,0.7,3.7,0.4c0.8-1.9-11.3-2.4-12.1-2.2C342.5,103.5,345.6,103.5,348.7,103.9z M374,217   c0.3,6.3-0.5,11.9-0.7,17.9C377.1,234.2,377.5,218,374,217z M314.8,99.3c-1.4-1.1-7.7-3.4-8.1-1C309.4,98.8,311.9,99.7,314.8,99.3z    M375.1,209.2c-0.9,2.1-0.9,3.7-0.3,5.6C376.3,212.1,376.3,211.8,375.1,209.2z M330.1,101.1c1.1,1.5,4,2,5.1,0.9   C333.5,101.7,332,100.4,330.1,101.1z M377.5,193.5c-1.7,1.2-1.7,1.8,0,3.5C377.5,195.8,377.5,194.8,377.5,193.5z M358.6,105.7   c-0.7-1.1-1.4-1.6-2.7-0.9C356.6,106,357.4,106.2,358.6,105.7z M376.5,203.1c-0.7,1.1-0.6,1.3-1,2.7   C377,205.2,377.1,204.5,376.5,203.1z M393.3,116.6c-0.7-2.2-0.7-2.2-2.2-1.8C391.8,115.4,392.4,115.9,393.3,116.6z" />
	<path fill="#B28C7D" d="M364,264c-5-8.5-11.1-17.4-21.1-20.9c0.2,2.4,1.3,4.3,2.2,6.6c0,0,0,0,0,0c-7.5-4-16.3-10.4-18.3-19.2   c-3.7,0.4-1.8-4.7-5.1-4.9c-0.1-0.5-0.2-1-0.1-1.4c-0.4-0.9-1.3-1.3-2.2-1.7c0-2.6-2.8-3.8-2.8-6.4c0.5-0.2,1-0.3,1.4-0.5   c-0.6-5.8-8.3-9.4-10-15.4c-4.7-5-1.8-12.3-5-18c-0.3-2.3-3.9-5.6-1.6-7.4c0.6,0.7,1.3,1.3,1.8,2.1c0.1-0.2,0.2-0.4,0.3-0.6l0,0   c6.3-5.3-9.4-8-6.8-32.5c9.3-1.5,19.2-1.3,28.4,1.2c6.4,16.3,9.4,33.5,6.2,50.9c-1.4-1-2.7-1.9-4.3-2.9c2.4,6.6,9.4,11,13.4,16.8   c9.6,16.7,17.6,35.6,32.7,48.3c0,0,0-0.1,0-0.1c0.3,0.3,0.6,0.5,0.8,0.8c0,0-0.1-0.1-0.1-0.1c4,7.6,14.3,9,21.9,11.4   c-0.5,0.9-0.8,1.4-1.5,2.4c2,0.7,3.9,1.4,6,1.4c-0.5,0.4-1.1,0.8-1.7,1.3c11.4,2.1,11.7,19.1,13.5,28.3c-4.8-2.2-4.1-8-5-12   c-3-4-3.6-9.7-8.5-10.9c2.1,5.5,6.7,8.9,7.2,14.3c-1.3,0.7-1.2-1.9-3.2-1.4l0,0c-3.2-4.2-5.8-8.2-9-12.3c-0.3,1.1-0.5,1.7-0.7,2.3   c-5.2-0.6-10.3-6.8-16.1-8.1c-5.8-1.6-8.4-6.7-12.1-10.6l0,0C364.5,264.5,364.2,264.2,364,264z M320.2,213.4c1.1,1,1.8,2.9,3.9,1.8   c-0.3-0.5-0.5-0.9-0.8-1.3c0.8-5.7-4.6-14.1-10.4-14.8c-1.8,3,0.1,8.1,3.5,9C317.4,210.2,317.8,212.4,320.2,213.4z M328.5,219.5   c-0.2-1.4-0.4-2-1.4-2C326.6,218.8,327.3,219,328.5,219.5z M313.4,196.5c-0.5-0.2-0.7-0.3-1-0.4   C311.7,197.2,312.7,197.6,313.4,196.5z M325.3,191c-0.1-0.2-0.2-0.3-0.4,0C325,191.2,325.1,191.3,325.3,191z M323.8,188.8   c-0.1-0.2-0.2-0.3-0.4,0C323.5,189,323.6,189,323.8,188.8z" />
	<path fill="#B28C7D" d="M376.9,41c1,4.1,8,6.8,0,9.1c0.2-4.5-5.2-0.2-7.5-0.8c-0.3-0.7-0.7-1.4-1.2-2.5c-0.3,2-0.3,2,1.2,2.4   c2,2.2,5.1-0.7,7.6,0.7c0.5,1.1,1,2.2,1.6,3.5c-3.5,0.2-6.2,1.6-8.5,4.2c-1.3-0.1-1.9,1-3,1.7c3.3,2.5,5.7,4.9,9.8,6   c0.3,1.9,0.6,3.8,0.1,5.7c-5.8,4.9-14.5,1.8-20.5,1.4c0-2.3-3.8-2.7-5.2-4c-6.7-3.7-13.6-9.5-13.7-17.7c-4.1,2.5-6.4,0.1-9.9-2.3   c0.8-1.2,0.7-2.3-0.4-3.2c0.3-1.5,0.6-3,0.5-4.5c0.5,0.5,1,1,1.6,1.6c-0.3,0.5-0.6,1-0.8,1.3c1.1,2.4,4.9,5.1,7.2,4.6   c0.8-1.3,0.4-2.5-0.3-3c-1.2-0.9,0.7-2.3-0.7-3c-0.1-0.8,0.3-1.7-0.7-2.2c-1-1.9-2.1-4.1-4.6-3.7c-0.2-0.2-0.4-0.4-0.7-0.6   c0.6-0.2,1.2-0.4,2.1-0.7c2.7,1.6,5,4.3,8.7,3.5c4.6-10.6,16.2-10.5,7.9-23.3c2.8-8,13.1-3.5,19.6-4.4c7.2,4.3,8.4,12.2,10.3,19.8   C371.6,34.5,374.2,37,376.9,41z M357.1,36.9c1.6,1.5,3.1,0.7,4.8,1.2c2.2,1.4,3.9,0.2,6.2-0.6c-0.6-1.4-1.3-3.3-2.9-2.9   c-1.1,1.3-2.6-0.1-3.8,0.7C360.2,36.1,358.8,36.3,357.1,36.9z M356,31.9c4.4-3.1,9.2-0.4,13.4,1.5C370.5,28.4,357.2,26.5,356,31.9z    M366.8,22.2c1.6,1.7,2.6,1.8,5.9,0.8c-0.3-0.9-1.1-1.3-1.7-0.9C369.7,23,368.6,22.3,366.8,22.2z M369.2,36.2   c0.2,1.7,0.3,2.7,0.4,3.9C371.1,38.4,371.1,38.4,369.2,36.2z M362.4,40.7c1.6,0.6,2.7,0.6,3.9-1.1C364.7,39.8,363.6,40,362.4,40.7z   " />
	<path fill="#B28C7D" d="M474.4,292c-0.5,0.8-1.1,1.7-1.6,2.5c0.1,0.2,0.1,0.3,0,0.5c-3.8-8.5-4.4-18.3-15.7-20.2   c0,2.9,3.8,3.5,5.7,4.9c3.1,0.9,7.9,11.5,6.3,13.6c-11.9-23.2-16.9-8.8-33.3-15c-1.1-9.2-10.9-28.4-20.3-31.1   c1,2.4,1.9,4.7,2.9,7.1c-7.5-6.9-13.7-16-21.4-23.5c-8.3-8.6-8.9-15.1-7-26.6c0.5,0.3,0.8,0.5,1.2,0.7c0.7,1.4,1.4,0.3,2,0   c0.6,0.5,1.2,1,1.7,1.4c1.2-0.1,2.5,0.3,3.6-0.4c-1-5.1-4.6-5.2-5.9-9.4c3.2-10.3,3.2-21.1,3.5-31.8c0.3-0.2,0.7-0.5,1.1-0.7   c6.8,10.5-0.9,25.3,5.7,35.8c19.5,22.7,22.1,68.3,57.6,71.5c1.9,1.4,4.6-0.2,6.1,2.2c-1.5,2.2-3.1-1.5-5.5-0.3c2.5,3,6,3.8,8.5,5.7   C471.4,283.7,473.1,287.6,474.4,292z" />
	<path fill="#D5D2DC" d="M358.1,160.3c-1.1-0.4-2.1-0.8-3.1,0.1c-0.2-1.4-0.2-1.4-1.6-1.4c-7.3-2.8-14.5-6-21.2-9.7   c-0.3,0.3-0.7,0.7-1.1,1.1c4.3,5.5,14.3,9.6,22.4,9.2c0,0.3,0,0.5,0.1,0.7c-4.7-0.1-8.9,0.9-13.3,0.2c-0.9,4.2-0.1,9-0.4,13.1   c1.1,1.9,2,3.5,3,5c-0.3,0.3-0.6,0.6-0.9,0.9c1,1,1.5,2.2,3.1,1.9c2.1,1.5,1.6,3.6,1.5,5.9c-1.4,0.1-2.7,0.1-3.8,0.2   c-2.1-1.6-3.5-3.6-5.8-5.3c0,1.8,0,3.1,0,4.7c3.6,4,5,8.9,5.2,14.2c-1.5,1.5-2.8,0.1-4.3,0.2c-0.1,0.8-0.2,1.5-0.3,2.2   c-8.5-7.1-1.2-19.6-3-28.9c-1.5-10.9-4.5-31.7-11.3-39.7c0-0.6,0-1.2-0.1-1.8c1.5,0.2,1.5,0.2,1.4-1.4c16.9,8,32.5,20.4,51.9,22.1   c2.3,5.7-12.5,9.3-15.6,7.4c0.8-0.1,1.6-0.2,2.5-0.3c-1.6-2.3-2.1-2.5-5.3-1.6C358.1,159.6,358.1,160,358.1,160.3z M339.6,178.5   c0.3-1.7-0.2-2.9-1.7-3.9C337.4,176.5,338,177.7,339.6,178.5z M368.4,160.2c0-0.2,0-0.3,0-0.5C367.1,159.8,367.1,160.2,368.4,160.2   z" />
	<path fill="#977264" d="M356.4,72.6c0.5,1.2,1.1,0,1.6,0.1c0.3,1.6,2,1.2,3,2.1c-0.9,5.5,0.5,10.6,0,16c-1.5-0.8-0.1-2.7-1.4-3.7   c-2,0.1-3.8-0.4-5.4-1.9c-0.1-0.1-0.5,0.3-0.8,0.4c-1-1.1-1.9-2.1-2.9-3.1c1.6-0.5,0.6-3.3-1.1-2.8c0.1,0.7,0.3,1.4,0.4,2   c-8.1-5.3-12.1-14.1-14.1-23.3c-0.8,0-1.5,0.1-2.4,0.1c-0.8,4.7-0.8,10.1-2.5,14.2c-1.7-0.3-1.7,1.7,0,1.5c0.3,1.9-0.2,3.7-0.8,5.5   c-1.4-0.9-2.9-1.9-4.2-2.7c0.7-2.5,1.3-4.7,2-7.1c0.6,0.3,0.9,0.6,1.3,0.8c-1.4-5.9-0.1-12.4,0.2-19.1c2.3,0.9,4.1,3.1,7.1,2.2   c0.7,3.6,1.8,7.8,5.7,8.8c0-0.5,0.1-0.9,0.1-1.2c3.4,3.1,6.5,6.3,10.7,8.2C351.6,71.3,354.9,72.5,356.4,72.6z M348.7,76.5   c0-3.4-0.3-4.1-2.5-5.8C346.5,72.7,346.8,74.6,348.7,76.5z" />
	<path fill="#D4D2DB" d="M298.9,98.3c-0.2,0.7-0.7,1.6-0.4,2.1c1.1,2-0.6,3.8-1.4,5.5c-7.3,10.8-3.3,24,1.6,34.9   c5.8,0.5,12.2-1,17.7,0.7c-9.6-0.1-19.1-0.9-28.5,2.3C283.2,128.3,279.7,105.5,298.9,98.3z M287.3,132.9c0.2,1.7,0.3,3.5,2.7,4.8   C289.2,135.6,288.9,134,287.3,132.9z M291,138.9c-1.1,1.1,0.6,3.2,1.8,2.2C292.7,140,292.4,139,291,138.9z" />
	<path fill="#977264" d="M389,219.4c8.1,13,19.2,24.1,29.4,35c-0.9-2.4-1.9-4.8-2.9-7.1c9.4,2.6,19.3,21.8,20.3,31.1   c-2.6-3.1-2.7-7.4-5.7-10.6c-0.4,0.3-0.8,0.6-1.1,0.8c0,0,0.1-0.1,0.1-0.1c-0.5-0.5-1.1-0.9-1.6-1.4c2.3-3.6-0.9-6.1-3.4-8.3   c-1.5,2.9,3.9,3.2,1.2,5.9C413.2,250.4,387.1,241.4,389,219.4z" />
	<path fill="#171210" d="M405.7,294.9c-0.5-5.4-5.1-8.8-7.2-14.3c4.9,1.2,5.5,6.9,8.5,10.9c0.9,3.9,0.2,9.8,5,12   c-1.8-9.2-2.2-26.2-13.5-28.3c0.7-0.5,1.2-0.9,1.7-1.3c1.1,0.1,2.3-0.6,3.2,0.7c-0.2,0.1-0.4,0.4-0.3,0.6c2,1,3.1,2.8,4.2,4.6   c1.5,2.8,4.7,3.9,6,6.9c-3.8,4.2,0.3,11.7,0.5,16.9C408,307.7,406.3,298.6,405.7,294.9z" />
	<path fill="#AC8879" d="M413.2,286.6c-1.2-3-4.5-4.1-6-6.9c-1.1-1.8-2.2-3.6-4.2-4.6c0.7-1.4,4-0.2,5.5-0.6   c3.1,5.7,9.2,9.6,9.7,16.2c0.4,2.4,0.6,4.8,2.4,7.2C414.5,296.7,416.3,290.4,413.2,286.6z" />
	<path fill="#140F0D" d="M469.1,293.3c1.5-2.3-3.1-12.6-6.3-13.6c-2-1.4-5.7-2-5.7-4.9c8.8,1.6,13.1,9.6,14.2,17.9   c-0.4,0.6-0.8,1.3-1.3,2.1C469.7,294.2,469.4,293.8,469.1,293.3z" />
	<path fill="#6959A3" d="M382.9,256.5c0.6-0.1,1.2-0.1,1.8-0.2c2,3.2,2.2,6.1,4.4,9.6c-2.4-0.4-3.6-0.9-5.7-1.7   C382.9,261.6,381.1,258.9,382.9,256.5z" />
	<path fill="#906D60" d="M392.7,196.7c1.3,4.2,4.9,4.3,5.9,9.4c-1.1,0.8-2.4,0.3-3.6,0.4c0.5-1.2-0.4-4.7-2.1-3.1   c0.1,0.5,0.3,1.1,0.4,1.6c-0.7,0.2-1.4,1.4-2,0C393.3,204,389.6,200.3,392.7,196.7z" />
	<path fill="#584A94" d="M382.9,256.5c-0.7,0.9-0.8,2-0.8,3.1c-0.9,0.8-0.9,1.7-1,2.9c-2.6-1.3-5-2.6-7.3-3.8l0.1,0.1   c-0.3-0.3-0.6-0.5-0.8-0.8c0,0,0,0.1,0,0.1c0.2-0.4,0.5-0.8,0.8-1.3C376.9,257.6,379.9,256.8,382.9,256.5z" />
	<path fill="#4C427C" d="M374.6,251.1c2-0.5,4.1-1.3,6.4-0.6c-0.2,1.4-0.3,2.6-0.4,4.1c-1.6,0.3-3.1,0.6-4.5,0.9   c-1.5-1,0-2.7-1.4-3.5C374.7,251.7,374.6,251.4,374.6,251.1z M377.7,253.7c0.2,0,0.3,0,0.5,0c0-0.7,0.1-1.4,0.1-2.2   c-0.2,0-0.3,0-0.5,0C377.8,252.3,377.7,253,377.7,253.7z" />
	<path fill="#272323" d="M360.9,90.9c0.1-1,0.9-1.6,1.5-2.3c0.1,0.6,0.1,1.2,0.2,1.9c1.9-0.7,1.9,1.3,2.9,1.9   c0.1,1.6,0.4,3.1-0.7,4.5c-0.2-0.7,0.4-1.7-0.7-2.2c-0.1-0.6-0.2-1.3-0.4-2.1c-0.6,1.1-0.8,1.8,0.3,2.2c-0.3,0.8-1,0.6-1.7,0.6   C361.9,93.8,361.4,92.3,360.9,90.9z" />
	<path fill="#78594E" d="M425.2,264.7c1-1.3,1-1.9-0.1-3.1c0.1-0.5,0.1-1,0.2-1.4c0.8,0.7,2.3,0.7,2.2,2.3c-1.3,1.6-1.1,2.4,0.7,3   c-0.3,0.5-0.5,1.1-0.8,1.6C426.7,266.3,426,265.5,425.2,264.7z" />
	<path fill="#5F5296" d="M374.6,251.1c0.3,1.2,0,2.2-0.1,3.6c-0.7,0-1.2,0.1-2,0.1c0-1.2,0-2.3,0-3.6   C373.2,251.2,373.9,251.2,374.6,251.1z" />
	<path fill="#646B6E" d="M365.4,92.4c-1-0.6-0.9-2.6-2.9-1.9c-0.1-0.7-0.1-1.3-0.2-1.9c0,0,0.1-0.1,0.1-0.1c0.3,0,0.6,0,0.8-0.1   c1,1.1,1.9,2.2,2.9,3.3C365.9,92,365.7,92.2,365.4,92.4z" />
	<path fill="#4C427C" d="M382.9,251c-0.1,1.2-0.1,2.4-0.2,3.7C381,253.9,381,253.8,382.9,251z" />
	<path fill="#64524A" d="M394.9,271.3c0.3-0.4,0.5-0.9,0.8-1.3c1.2-0.1,2,0.4,3.2,1.6C397.3,271.5,396.1,271.4,394.9,271.3z" />
	<path fill="#5D4F91" d="M384.1,253.7c0.2-1,0.3-2.1,0.6-3.7c0.8,1.8,0.6,3,0.1,4C384.6,253.9,384.3,253.8,384.1,253.7z" />
	<path fill="#352E55" d="M370.1,252.7c-0.3-0.5-0.5-0.7-0.6-1C370.4,250.8,371,251.7,370.1,252.7z" />
	<path fill="#171210" d="M413.2,286.6c0.3,0.5,0.5,1,0.8,1.5c-0.3,0.3-0.6,0.6-0.9,1c-0.3-0.5-0.5-1-0.8-1.5   C412.5,287.2,412.9,286.9,413.2,286.6z" />
	<path fill="#7A7478" d="M395.8,118.8c0.3,0,0.6,0,0.9,0c0.2,0.3,0.5,0.7,0.9,1.3C396.2,120.1,395.8,119.6,395.8,118.8z" />
	<path fill="#171210" d="M413.8,291.3c-0.2-0.5-0.4-1.1-0.7-1.6C414,290,413.9,290.6,413.8,291.3z" />
	<path fill="#272323" d="M363.3,88.4c-0.3,0-0.6,0-0.8,0.1C362.7,87.9,363,87.8,363.3,88.4z" />
	<path fill="#E0DEE5" d="M387.5,237.5c0.2,0.3,0.4,0.6,0.6,0.9C387.9,238.1,387.7,237.8,387.5,237.5z" />
	<path fill="#E0DEE5" d="M387.4,236.6c0,0.3,0.1,0.5,0.1,0.8C386.7,237.2,386.8,237,387.4,236.6z" />
	<path fill="#977264" d="M429,268.5c0.2,0.1,0.4,0.2,0.5,0.3C428.9,269.3,429.1,268.7,429,268.5L429,268.5z" />
	<path fill="#74594F" d="M328.6,35.9c0.2,0.2,0.4,0.4,0.7,0.6c-1,1-2,2-3,3c0-0.3,0-0.5-0.1-0.8C326.8,37.6,326.9,36,328.6,35.9z" />
	<path fill="#262727" d="M338.6,3.9c0-1.1,0-1.1,1-1.1C339.3,3.2,339,3.5,338.6,3.9z" />
	<path fill="#B28C7D" d="M360.9,90.9c0.5,1.5,1,3,1.4,4.4c0,0,0,0,0,0c-7.2,11.7-25.7-10.4-32.5-15.6c1.4-6.9,2.3-13.8,3.3-21.1   c0.8,0,1.5-0.1,2.4-0.1c1.9,10.8,7.9,19,16.3,25.6l0,0c-1.8,0.9,0.5,1.9,1.2,3.2c0.1-0.8,0.2-1.2,0.3-1.6c0.3-0.1,0.7-0.5,0.8-0.4   c1.6,1.4,3.4,2,5.4,1.9C360.9,88.1,359.5,90,360.9,90.9z" />
	<path fill="#201714" d="M326.2,39.4c1-1,2-2,3-3c2.5-0.3,3.6,1.8,4.6,3.7c-0.1,0.4-0.2,0.9-0.3,1.4c-0.5-0.3-1-0.5-1.4-0.7l0,0.1   c-0.1-1.6-1-2.6-2.6-3.1c-0.9,0.9-2,1.6-2,3c-0.9,0.6-0.7,1.1,0,1.7c-0.2,0.9-0.3,1.8-0.5,2.8c-0.3,0.3-0.7,0.6-1,0.9   c-0.2-0.3-0.5-0.5-0.7-0.8C327.1,44.1,325.9,41.3,326.2,39.4z" />
	<path fill="#523E37" d="M342,61.4c0,0.3-0.1,0.7-0.1,1.2c-1.2-0.4-2.4-0.7-2.9-1.9c0.3-0.3,0.6-0.6,0.9-0.9   C340.6,60.3,341.3,60.9,342,61.4z" />
	<path fill="#4F3D37" d="M326.1,46.3c0.3-0.3,0.7-0.6,1-0.9c1.1,1,1.2,2,0.4,3.2C326.6,48.1,326.2,47.3,326.1,46.3z" />
	<path fill="#272323" d="M361.8,96.9c0.2-0.5,0.4-1.1,0.6-1.6C362.5,96,362.6,96.6,361.8,96.9z" />
	<path fill="#7A7266" d="M376.1,34.2c0.4-0.9,1.1-1.1,2-1c0,0.3,0,0.5,0,1C377.5,34.2,376.8,34.2,376.1,34.2L376.1,34.2z" />
	<path fill="#665148" d="M376.1,34.2c-0.2,0.7-0.5,1-1.4,0.3C375.3,34.3,375.7,34.2,376.1,34.2L376.1,34.2z" />
	<path fill="#8D6C5F" d="M372.2,63.7c-1.2-1-2.4-2.1-3.7-3.1c3-1.2,6.8-1.6,10.2-1.3C383,65.7,373.1,62,372.2,63.7z" />
	<path fill="#896659" d="M370,57.7c0.5-0.5,1.1-1.1,1.6-1.6c1.1,1.9,4.6-2.2,7.2-0.6c0.8,1.1,0.2,1.8-0.8,2.7   C375.6,57.9,372.1,59.2,370,57.7z" />
	<path fill="#896659" d="M368.5,58.2c0.3-0.2,0.6-0.4,0.9-0.5C369.1,57.9,368.8,58,368.5,58.2z" />
	<path fill="#655148" d="M465.4,274.5c0.6-0.1,1.2,0.1,1.4-0.7c1.4,0.9,3.1,1.4,3.8,3l0,0C468.7,276.3,467,275.6,465.4,274.5z" />
	<path fill="#0A0606" d="M500.1,459c-8.2,2.9-18.6-2.8-27.3-3.8c-16.1-4.4-33.6-6.5-48.2-14.8c0.2-0.3,0.5-0.7,0.7-1   C449.3,448.4,474.9,454.3,500.1,459z" />
	<path fill="#191110" d="M534.1,458.8c-1.3,0.2-2.6,0.3-3.7-0.5c1-0.4,2.3,0.3,3-0.7c21.1-4.7,42.2-9.3,63.4-13.8   c0.5,0.2,1.1,0.5,1.6,0.7C577,449.8,555.3,454.6,534.1,458.8z" />
	<path fill="#1A1413" d="M522,461.3c-6.7-0.8-13.7,2.3-20.2-1.2c7.5-0.4,16.1-1.3,23.8-0.2C524.6,461.1,523.2,461,522,461.3z" />
	<path fill="#2C2322" d="M598.3,444.5c-0.5-0.2-1.1-0.5-1.6-0.7c4.6-1.6,9.2-1.7,13.8-3.5C608.5,444.2,602.2,443.3,598.3,444.5z" />
	<path fill="#342B2A" d="M530.4,458.3c0.5,0.2,1,0.5,1.5,0.7c-1.6,1.1-3.2,0.7-5.2,0.5C528,458.4,529.1,458.1,530.4,458.3z" />
	<path fill="#342B2A" d="M534.1,458.8c0.6-1,1.5-0.6,2.4-0.5C535.8,459,535,459,534.1,458.8z" />
	<path fill="#342B2A" d="M533.4,457.6c-0.4,0.7-1,0.6-1.6,0.5C532.3,458,532.8,457.8,533.4,457.6z" />
	<path fill="#0A0810" d="M361.9,312.3c0.6,1.6,1.8,2.9,2.2,4.5c-0.3,0.3-0.6,0.6-0.9,0.9c0,0,0,0,0,0c-0.3-0.5-0.8-0.9-0.8-1.5   c-0.3-0.5-0.8-0.9-0.8-1.5c-0.2-0.3-0.5-0.6-0.7-0.9l0,0c-0.1-0.2-0.3-0.4-0.4-0.5c-1.9,5.8-2.7,11.7-2.7,18.1   c1.6,2.1,5.1,3.8,5.4,6.7c0,0,0,0,0,0c-1.9-1.7-3.4-3-5.4-4.7c-1.1,3.7-0.3,6.3-0.8,10.1c-2.4-1-2.2-3.4-1.4-5.4   c0-10.4-0.6-21.1,5.4-30.2c1.5,0.7,0.3,2.5,0,3.6c0.2,0.3,0.4,0.6,0.6,0.9L361.9,312.3z" />
	<path fill="#110E1B" d="M350.2,279.4c-2.6-5.1-2.6-10.9-2.8-16.8C350.9,267.1,350.3,273.1,350.2,279.4z" />
	<path fill="#1E162A" d="M361.8,309.4c-0.1-0.6,0-1.3-0.8-1.6c0.3-0.7,0.6-1.3,1-2.1c0.5,0.1,1,0.1,1.6,0.2c1.8-2.4,4.2-4.3,7-6.2   C369.1,303.9,365.3,306.9,361.8,309.4z" />
	<path fill="#0F0C1A" d="M335.4,264.1c0.9-1.5,1.4-3.1,3-4c0.2,3.5-1.9,9-4,11.8C334.3,269.1,334.7,266.8,335.4,264.1z" />
	<path fill="#564794" d="M367.1,304.8c0.5-0.5,1-1,1.5-1.5c2,2.3,3.9,4.8,2.6,8C368.3,310,368.5,307.1,367.1,304.8z" />
	<path fill="#2B2441" d="M365.1,278.9c0.8,4.8-0.4,9.5-1.3,14.4C361.9,294.1,363.9,279.3,365.1,278.9z" />
	<path fill="#544492" d="M355.6,330.5c-0.2,3.1,0.7,6.4-0.6,9.2C355.3,336.6,354.2,333.2,355.6,330.5z" />
	<path fill="#241D3C" d="M329.9,254c-0.4-0.1-0.7-0.1-1.2-0.2c-0.6-1.7-0.4-3.2,0.9-4.7C330.4,250.8,330,252.4,329.9,254z" />
	<path fill="#211C32" d="M363.1,298.8c0,1.5,0,2.6,0,3.7C361.7,301.3,361.7,301.3,363.1,298.8z" />
	<path fill="#120F1F" d="M361.7,312.3c-0.2-0.3-0.4-0.6-0.6-0.9C361.3,311.7,361.5,312,361.7,312.3z" />
	<path fill="#171326" d="M305.8,319.1c-1.3-4.6-4.7-7.4-7.2-11.9c3.8,1.5,4.2,5.4,7.2,7.4c-0.3-10.9,0.1-21.2,3.7-31.2   c0.1,11.8-7,25.7-0.7,36.6c-0.3,0.3-0.5,0.5-0.8,0.8c-0.2-0.3-0.5-0.5-0.7-0.8l0,0C307.1,319.1,306.4,319.2,305.8,319.1z" />
	<path fill="#100D1C" d="M310.7,254.4c3,5.6-1.8,13.6-3.1,20.1C306.9,266.9,309.8,262.1,310.7,254.4z" />
	<path fill="#3B3067" d="M305.8,319.1c0.6,0,1.3,0,1.5,0.8c-1.7,6,2,13.8,0.4,20.6C305.9,333.6,305.7,326.2,305.8,319.1z" />
	<path fill="#3B3067" d="M305.8,341.8c0.6,0.1,1.2,0.1,2.1,0.2c-0.3,3.1,1.5,5.3,3.7,8.1c-2.1-0.6-2.6-2.1-3.8-2.6   c-1.3,0.9-1,2.5-1.7,3.7c-1.1-2.5,1.3-4.9-0.2-7.2C306.6,343.2,306.4,342.6,305.8,341.8z" />
	<path fill="#181328" d="M305.8,341.8c0.6,0.8,0.8,1.5,0,2.2c-1.8-3.7-6-7.2-6.5-11.1C302.4,335.1,303.6,338.8,305.8,341.8z" />
	<path fill="#3B3067" d="M308.1,320.7c0.3-0.3,0.5-0.5,0.8-0.8c1.3,1.8,2.5,3.5,4.2,5.9C310,324.7,309.4,322.3,308.1,320.7z" />
	<path fill="#0C0914" d="M317.1,257.3c1,2.2-0.1,3.4-0.3,4.7C316.2,260.7,316.1,259.4,317.1,257.3z" />
	<path fill="#130F1E" d="M324.7,252.8c0-0.9,0.1-1.8,0.1-2.7c0.2,0,0.3,0,0.5,0c0,0.9,0.1,1.9,0.1,2.8   C325.2,252.8,325,252.8,324.7,252.8z" />
	<path fill="#3B3067" d="M307.3,319.9c0.2,0.3,0.5,0.5,0.7,0.8C307.8,320.4,307.6,320.1,307.3,319.9z" />
	<path fill="#967264" d="M324.8,397.9c0.5-1.1,1-2.2,1.5-3.3c0.7-0.2,1.5-0.4,2.2-0.6c1,1.2,1.9,2.3,2.9,3.5   c0.4,5.7,2.5,12.1-1.9,16.9c-2-0.9-2.3-3-3.2-4.8c0.4-0.2,0.8-0.5,1.3-0.8c-2.1-3.5-0.5-7.4-1.7-10.8   C325.5,398,325.2,397.9,324.8,397.9z" />
	<path fill="#0D0908" d="M324.8,397.9c0.4,0,0.7,0.1,1,0.1c1.2,3.4-0.4,7.3,1.7,10.8c-0.5,0.3-0.9,0.5-1.3,0.8   c-0.7-0.3-1.3-0.6-2-0.9C323.5,405.5,323.7,401.2,324.8,397.9z" />
	<path fill="#1C1513" d="M306.6,425c0.7-2.1,1.3-4.1,2.4-6c0.4,0.3,0.8,0.6,1.3,0.9c-1.2,3.5-1.8,7.2-3.1,11.2   C305.8,428.9,306.7,427.3,306.6,425z" />
	<path fill="#2D211E" d="M328.5,394c-0.7,0.2-1.5,0.4-2.2,0.6c0.7-2.3,2-4.2,4.2-5.9C330.5,391,329.6,392.5,328.5,394z" />
	<path fill="#392D28" d="M305.3,437.7c-0.7-3.7-0.6-3.9,1.8-5C307.1,434.6,306.9,436.2,305.3,437.7z" />
	<path fill="#352824" d="M328.8,429.9c0.6,2.1,0,3.9-1.7,5.7C326.6,433.2,327.6,431.5,328.8,429.9z" />
	<path fill="#2C221F" d="M334.7,383.9c-0.6,2.2-0.9,3.5-2.6,4.1C332.6,385.4,332.6,385.5,334.7,383.9z" />
	<path fill="#3B2F2A" d="M334.8,383.3c-0.8-1.9,0.4-2.6,1.7-3.9C337.1,381.7,336.2,381.9,334.8,383.3z" />
	<path fill="#5D4841" d="M325.8,439.5c0.7,1.2,0.6,2.3-0.5,3.3C324.5,440.5,324.5,440.5,325.8,439.5z" />
	<path fill="#685149" d="M317.2,480.5c-1.9-2.4-1.9-2.4-0.3-3.2C317,478.1,317.1,478.8,317.2,480.5z" />
	<path fill="#211C19" d="M317,487.9c-1.3-2.5-1.3-2.5,0-3.3C317,485.6,317,486.4,317,487.9z" />
	<path fill="#53403A" d="M305.5,443.5c-1.2-1-1.2-1,0-2.5C306.1,441.9,306.1,442.7,305.5,443.5z" />
	<path fill="#6C574E" d="M304.9,449.2c0.1,0.7,0.1,1.2,0.2,1.8C303.6,450.4,303.6,450.4,304.9,449.2z" />
	<path fill="#3A332E" d="M309.7,416.5c0-0.4,0-0.8,0-1.2c0.2,0,0.3,0,0.5,0c0,0.4,0,0.8,0,1.2C310.1,416.6,309.8,416.6,309.7,416.5z   " />
	<path fill="#977264" d="M370.8,397.7c-0.4,0.2-0.9,0.4-1.4,0.7c-4.8-1.8-9.9-9.1-6.5-14c6.8-1.4,7.4,6.2,10.3,10.4   C372.1,395.5,370.4,396.1,370.8,397.7z" />
	<path fill="#8E6D5F" d="M375.3,403.8c-0.7-0.9-1.4-1.7-2.1-2.7c-0.1-0.9-0.2-1.9-0.2-3c-0.5-0.1-0.9-0.3-1.4-0.4   c0.8-1,2.3-1.2,2.7-2.7c-0.4-0.1-0.8-0.1-1.1-0.2l-0.2-0.1c0.9-1.8,2.9-1.4,4.6-1.5c-0.7,0.9-1.4,1.7-2.2,2.6   c1.3,0.8,2.1-0.1,3-0.3c-0.2,2.3,0.5,4.8-0.7,6.8c-0.6-1.8-0.3-3.5-2-4.7C374.8,399.9,375.4,401.9,375.3,403.8z" />
	<path fill="#110D0B" d="M378.4,395.5c-0.9,0.2-1.7,1.1-3,0.3c3.3-3.3,5.9-7.1,7.3-11.4C386.4,386.5,380.7,393.5,378.4,395.5z" />
	<path fill="#1A1311" d="M375.3,403.8c0.1-1.9-0.5-3.9,0.4-6.2c2.2,1.8,2,5,1.7,7.6C376,405.5,375.7,404.5,375.3,403.8z" />
	<path fill="#281C19" d="M373.1,394.8c0.3,0.1,0.7,0.1,1.1,0.2c-0.4,1.5-1.9,1.8-2.7,2.7c-0.2,0-0.5,0-0.7,0   C370.4,396.1,372.1,395.5,373.1,394.8z" />
	<path fill="#0D0B09" d="M364,439.1c-0.1-1.1-0.1-2.2-0.2-3.9C365.5,436.5,366.4,438.1,364,439.1z" />
	<path fill="#7D6258" d="M381.7,382.7c-0.2-1.8,0.8-2.2,2.2-3.4C383.3,381.1,383.2,382.1,381.7,382.7z" />
	<path fill="#1D1714" d="M364,429c0,0.8-0.1,1.6-0.1,2.3c-0.1,0-0.3,0-0.4,0c-0.1-0.8-0.2-1.5-0.3-2.3C363.5,429,363.8,429,364,429z   " />
	<path fill="#70564D" d="M364.9,443.8c-0.8,0.7-1.1,0.8-1.4-0.1C363.8,443,364.3,443.4,364.9,443.8z" />
	<path fill="#090707" d="M422.2,467.7c-1.6-3.7-2.5-9.2-0.6-12.4C423.8,458.9,421.9,463.7,422.2,467.7z" />
	<path fill="#262221" d="M419.8,500.7c0.3,1.7,0.2,3.4-0.7,5c-0.2,0-0.5,0.1-0.7,0.1c-1.1-1.7-0.4-3.3,0.3-5   C419.1,500.8,419.5,500.8,419.8,500.7z" />
	<path fill="#24201F" d="M412.4,416.5c0.5,1.3,1.1,2.6,1.6,3.9c-0.2,0.3-0.5,0.5-0.8,0.9C411.9,420.1,410.6,417.6,412.4,416.5z" />
	<path fill="#302B2A" d="M391.8,323.9c0,1.2,0.1,2.3,0.1,3.5c-1.7-0.7-1.7-2-1.2-3.5C391.1,323.8,391.5,323.8,391.8,323.9z" />
	<path fill="#39312F" d="M408.6,404.6c0.3,0.2,0.5,0.5,0.8,0.7c0,0.8,0,1.6,0,2.3C407.5,407,407.3,406.3,408.6,404.6z" />
	<path fill="#383130" d="M422.9,470.4c-0.3,0.7-0.5,1.4-0.8,2.1c-1.6-1.2-1.6-1.2-0.5-2.8C422.1,469.9,422.5,470.1,422.9,470.4z" />
	<path fill="#564E4B" d="M395,347.1c0.7,0.6,1.6,1.2,0.8,2.4C394.9,348.9,393.5,347.7,395,347.1z" />
	<path fill="#0A0B0A" d="M393.4,334.4c0,0.4,0,0.8,0,1.2c-0.4,0-0.7,0-1.1,0.1c-0.5-1.1-1-2.1,0.3-2.9l0-0.1   C392.9,333.3,393.1,333.9,393.4,334.4z" />
	<path fill="#53504D" d="M418.4,510.3c0,0.8,0.4,1.8-0.8,2.2C417,511.1,416.5,510.6,418.4,510.3z" />
	<path fill="#6D6561" d="M410.9,412.1c0.3,0.7,0.5,1.5,0.8,2.2C409.9,413.9,409.7,413.5,410.9,412.1z" />
	<path fill="#635754" d="M404.9,391.6c0.2,0.5,0.5,1,0.7,1.5c-0.6,0-1.1,0.1-1.7,0.1C403.5,392.1,404.3,391.9,404.9,391.6z" />
	<path fill="#625652" d="M394.2,340.3c0,0.7,0,1.5-1.6,1.3C393.4,341,393.8,340.6,394.2,340.3C394.2,340.3,394.2,340.3,394.2,340.3z   " />
	<path fill="#5B4442" d="M421.5,480.8c0.2,0.3,0.5,0.5,0.7,0.8c-0.4-0.1-0.8-0.2-1.2-0.3C421.2,481.1,421.3,480.9,421.5,480.8z" />
	<path fill="#604C49" d="M407.1,399.3c0,0.2,0,0.4,0,0.7c-0.4,0-0.8-0.1-1.2-0.1c0-0.1,0-0.3,0-0.4   C406.2,399.4,406.6,399.4,407.1,399.3z" />
	<path fill="#4B3B39" d="M422.2,476.4c0,0.2,0,0.5,0,0.7c-0.2-0.1-0.4-0.2-0.6-0.4C421.8,476.6,422,476.5,422.2,476.4z" />
	<path fill="#252020" d="M342.5,549.2c-2,2.3-6.8,3.4-8.6,0.8C336.3,548.2,339.3,549.1,342.5,549.2z" />
	<path fill="#88675B" d="M405.7,294.9c1,2.9,0.4,6,2.9,8.4c-0.4,0-0.8,0.1-1.2,0.1c-3.8-2-5.2-5.7-4.9-9.8   C404.5,292.9,404.3,295.5,405.7,294.9z" />
	<path fill="#79726E" d="M401.1,302.5c-0.5-3.6-2.3-7-1.9-10.5c3,2.5,2.7,6.2,3.4,9.7C402.1,302,401.6,302.3,401.1,302.5z" />
	<path fill="#15100F" d="M402.6,301.7c-0.4-2.5-0.7-5.1-1.5-7.6c0.3-0.3,0.5-0.6,0.8-0.8c0.2,0.1,0.4,0.2,0.7,0.2l0,0   c-0.3,4.1,1,7.8,4.9,9.8C405.8,305.5,403.9,302.8,402.6,301.7z" />
	<path fill="#1A1210" d="M311.2,389.3c-0.2-2.5-0.5-4.4,0-6.4C313.3,383.4,313.4,388.3,311.2,389.3z" />
	<path fill="#221917" d="M301.6,500c-1.4-2.4-1.4-3-0.4-5.3C302.9,495.4,302.1,498.1,301.6,500z" />
	<path fill="#1D1311" d="M302,490.4c-1-1.5-0.9-3-0.5-4.9C302.8,487.2,302.9,488.8,302,490.4z" />
	<path fill="#201916" d="M301,501c1.4,1.4,1.1,2.6,0.9,3.9C300.1,504,300.2,502.9,301,501z" />
	<path fill="#190F0D" d="M309,373.6c-0.1-1-0.1-1.8-0.3-3.4C309.9,371.7,309.8,372.5,309,373.6z" />
	<path fill="#4A342E" d="M311,378.3c-0.2,0.1-0.3,0.1-0.5,0.2c0-0.3-0.2-0.7,0.2-0.8C310.8,377.8,310.9,378.1,311,378.3z" />
	<path fill="#1B1918" d="M604.4,463.4c1.5,3.2,0.4,7.1,0.7,10.6c-2.9-1.7-1-6.4-1.9-9.5C603.5,464.2,604,463.8,604.4,463.4z" />
	<path fill="#1D1B1A" d="M605.1,487.7c0,2.2,0,4.4,0,6.6c-2.6-0.9-1.1-4.3-1.4-6.5C604.2,487.8,604.7,487.8,605.1,487.7z" />
	<path fill="#3F3B38" d="M605.2,477.9c0,1,0,2,0,3C603.1,481.2,603.1,477.4,605.2,477.9z" />
	<ellipse fill="#1D1715" cx="597.2" cy="488.9" rx="0.3" ry="1.3" />
	<path fill="#281716" d="M605.9,507.3c-0.1,0.2-0.2,0.4-0.3,0.6c-0.1-0.1-0.2-0.2-0.3-0.3C605.6,507.5,605.8,507.4,605.9,507.3   L605.9,507.3z" />
	<path fill="#2A1F1B" d="M302.8,176.3c-0.5-0.5-1-1-1.4-1.5c-0.3-2.6-3.5-2.9-3.9-5.9c2.4,0.2,6,5,6,7.4l0,0   C303.3,176.2,303,176.2,302.8,176.3z" />
	<path fill="#261D19" d="M359.5,261.7c-1.8-0.7-3.6-1.4-3.8-3.8l0,0C358.5,258.2,359.2,259,359.5,261.7L359.5,261.7z" />
	<path fill="#231915" d="M306.4,203.2c-2.3-1.8-2.6-2.3-2.6-4.8C305.4,199.2,306.8,201.4,306.4,203.2z" />
	<path fill="#3B2D27" d="M355.7,257.9c-1.3,0-2-0.6-2.1-1.9C355.1,256,355.1,256,355.7,257.9L355.7,257.9z" />
	<path fill="#49342E" d="M321.7,225.5c1.1,0.4,2.4,0.6,2.3,2.2C322.5,227.7,321.7,227,321.7,225.5z" />
	<path fill="#2A1E1A" d="M321.6,224.1c0,0.1,0,0.3,0,0.4c-1.8-0.2-1.9-0.3-2.1-2.1C320.3,222.8,321.1,223.1,321.6,224.1z" />
	<path fill="#2A1D1A" d="M317.5,220.7c-0.1-0.1-0.1-0.2-0.2-0.2c0.2-0.2,0.3-0.2,0.5,0C317.6,220.6,317.6,220.6,317.5,220.7z" />
	<path fill="#B28C7D" d="M345.1,249.6c0.2,0.1,0.3,0.2,0.5,0.3C345.5,249.8,345.3,249.7,345.1,249.6   C345.1,249.6,345.1,249.6,345.1,249.6z" />
	<path fill="#161413" d="M519,484.9c0.4,0,0.7-0.1,1.3-0.1c1,3.2,1,6.4,0.1,9.6C518.6,491.5,519.1,488,519,484.9z" />
	<path fill="#8F8580" d="M504.6,508.1c2.3-0.3,4.3,0.9,6.7,0.7l0.1,0.1c0,0.2-0.1,0.5-0.1,0.7c-0.9,0.5-1.8,0.9-2.7,1.4   c-1.2-0.3-2.5-0.7-3.9-1C504.7,509.3,504.7,508.7,504.6,508.1z" />
	<path fill="#040303" d="M521.2,510.5c0.2,2.2-0.1,3.3-1.3,5.4c-0.3-2.7-1.2-4.7-0.6-6.9C520.8,508.6,520.5,510.2,521.2,510.5z" />
	<path fill="#342E2D" d="M511.3,509.6c0.1-0.2,0.1-0.5,0.1-0.7c0.4,0,0.7,0.1,1.1,0.1c0.6,0.9,0.6,1.8-0.2,2.7   C511.2,511.3,511.5,510.3,511.3,509.6z" />
	<path fill="#191716" d="M519.8,500.8c0-0.8,0.1-1.6,0.1-2.4c0.2,0,0.3,0,0.5,0c0.1,0.8,0.1,1.6,0.2,2.4   C520.3,500.8,520,500.8,519.8,500.8z" />
	<path fill="#413D3B" d="M522,530c0,0.5-0.1,0.9-0.1,1.4c-0.4-0.3-0.9-0.6-1.7-1.2C521.2,530.1,521.6,530,522,530z" />
	<polygon fill="#4E3836" points="519.4,506.8 519.5,507 519.2,507  " />
	<path fill="#1D1A19" d="M497.1,414.4c1.5-1.5,4.8,8.2,4.5,9.6C498.4,424.5,497.7,416.8,497.1,414.4z" />
	<path fill="#272120" d="M493.3,404.5c2,0.5,2.5,2.7,2.3,4.5C493.4,409.1,493.1,406.1,493.3,404.5z" />
	<path fill="#312D2B" d="M474.5,324.5c1.7,1.3,1.8,1.8,0.8,3.6C474.2,327.1,474.2,325.8,474.5,324.5z" />
	<path fill="#171514" d="M474.4,316.1c0.1,1,0.7,2.5-0.7,3c-0.2-1-0.5-1.9-0.7-2.9c0,0,0,0,0,0C473.4,316.2,473.9,316.2,474.4,316.1   z" />
	<path fill="#292423" d="M490.9,393.3c0,0.8,0.1,1.7,0.1,3C490.1,394.6,490.1,394.6,490.9,393.3L490.9,393.3z" />
	<path fill="#433F3C" d="M478.2,338.7c0.2,0.5,0.4,1,0.6,1.5C477.6,340.5,477.1,339.5,478.2,338.7z" />
	<path fill="#4E4745" d="M475.9,332c0.2,0,0.5,0,0.7,0c-0.1,0.4-0.1,0.8-0.2,1.2c-0.1,0-0.2,0-0.3,0C476,332.8,476,332.4,475.9,332z   " />
	<path fill="#8F8580" d="M409.4,407.6c0-0.8,0-1.5,0-2.3C410.4,406.4,410.4,406.4,409.4,407.6z" />
	<path fill="#8F8580" d="M393.4,334.4c-0.2-0.5-0.5-1.1-0.7-1.6C393.6,333,393.5,333.7,393.4,334.4z" />
	<path fill="#B28C7D" d="M360.9,417.4c-0.2-0.3-0.4-0.6-0.7-0.9c0.1-0.3,0.1-0.7,0.3-1.5C360.9,416.2,361.9,416.8,360.9,417.4z" />
	<path fill="#967264" d="M358.7,413.7c-0.2-0.3-0.4-0.5-0.6-0.8C358.3,413.1,358.5,413.4,358.7,413.7z" />
	<path fill="#967264" d="M359.4,414.6c-0.2-0.3-0.5-0.6-0.7-0.9C358.9,413.9,359.2,414.2,359.4,414.6z" />
	<path fill="#8F8580" d="M474.4,316.1c-0.5,0-1,0-1.4,0.1C473.5,315.1,473.7,315.1,474.4,316.1z" />
	<path fill="#120F1F" d="M363.2,317.6c0.3-0.3,0.6-0.6,0.9-0.9c1.1,1.5,2,3,2.2,5.6C364.7,320.6,363.6,319.4,363.2,317.6z" />
	<path fill="#120F1F" d="M362.6,316.9c0.2,0.3,0.4,0.5,0.6,0.8C363,317.4,362.8,317.1,362.6,316.9z" />
	<path fill="#120F1F" d="M363.9,316.1c-0.2-0.3-0.4-0.6-0.6-0.9C363.5,315.5,363.7,315.8,363.9,316.1z" />
	<path fill="#0A0810" d="M363.2,338c0.2,0.1,0.4,0.2,0.5,0.3C363.2,338.8,363.4,338.2,363.2,338C363.3,338,363.2,338,363.2,338z" />
	<path fill="#120F1F" d="M361.9,315.4c0.2,0.3,0.4,0.6,0.6,0.8C362.3,315.9,362.1,315.6,361.9,315.4z" />
	<path fill="#120F1F" d="M363.2,314.6c-0.2-0.3-0.4-0.6-0.6-0.9C362.8,314,363,314.3,363.2,314.6z" />
	<path fill="#120F1F" d="M361,313.8c0.2,0.3,0.5,0.6,0.7,0.9C361.5,314.4,361.2,314.1,361,313.8z" />
	<path fill="#120F1F" d="M360.3,314c0.1-0.2,0.2-0.4,0.3-0.6c0.1,0.2,0.3,0.4,0.4,0.5C360.7,313.8,360.5,313.9,360.3,314z" />
	<path fill="#1B1411" d="M350.4,517.1c-0.5,0.3-1,0.5-1.8,0.9c-0.7-3-0.8-6,0.9-8.7C351.2,511.7,350.1,514.5,350.4,517.1   L350.4,517.1z" />
	<path fill="#2B1F1B" d="M350.3,496.3c1.4,2.2,0.8,3.8,0.9,5.8C349.6,500.2,349.3,498.7,350.3,496.3z" />
	<path fill="#090403" d="M350,507.8c-1.2-1.5-1.2-1.5,0-3.4C351.6,505.6,350.7,506.7,350,507.8z" />
	<path fill="#2F241F" d="M352.4,492.8c-1.7-1.2-1.3-2.6-1.2-4.3C353.2,489.8,352.8,491.2,352.4,492.8z" />
	<path fill="#8F8580" d="M418.4,505.8c0.2,0,0.5,0,0.7-0.1c-0.1,0.2-0.2,0.4-0.3,0.6C418.7,506.2,418.6,506,418.4,505.8z" />
	<path fill="#0C0909" d="M385.1,293.5c-0.2,1.5-0.2,1.5-1.3,2.7c-0.1-1.7-1.1-3.1-0.6-4.8C384.8,291.4,384.1,293.1,385.1,293.5   L385.1,293.5z" />
	<path fill="#322B29" d="M383.8,299.3c2.4,1.5,2.4,1.5,1.4,3.3C384.2,301.9,383.9,301,383.8,299.3z" />
	<path fill="#100D0C" d="M401.9,293.3c-0.3,0.3-0.5,0.6-0.8,0.8c-0.6-0.7-1.2-1.3-1.9-2.2c-0.1,0.6-0.2,0.9-0.3,1.2   c-0.3,0.3-0.6,0.6-0.9,1c-1.9-3.5-2.5-7.6-5.2-10.7c0.2-0.6,0.4-1.3,0.7-2.3c3.2,3.8,5.2,7.8,8.5,11.5   C401.9,292.9,401.9,293.1,401.9,293.3z" />
	<path fill="#130F0D" d="M465.4,274.5c1.6,1.1,3.4,1.8,5.3,2.3c0.8,3.9,5.1,9.2,3,12.8c-1.3-3.4-2.5-6.8-3.9-10.4   c-2.5-1.9-6-2.7-8.5-5.7C463.2,272.8,464.1,274.1,465.4,274.5z" />
	<path fill="#544492" d="M313.4,247.3c1.1,0.6-0.1,1-0.1,1.5c-0.3,0.6-0.7,1.2-1.2,2.1c-0.4,0-1.1,0.1-1.7,0.2   c0-0.7,0.1-1.5,0.1-2.2C311.2,247.9,312,247,313.4,247.3z" />
	<path fill="#19152E" d="M310.5,248.9c0,0.7-0.1,1.5-0.1,2.2c-0.4,0-0.7-0.1-1.2-0.1c-0.6-1.3-0.4-2.4,0.9-3.7   C310.3,248,310.4,248.4,310.5,248.9z" />
	<path fill="#967063" d="M364,264c0.2,0.3,0.5,0.5,0.7,0.8C364.5,264.5,364.2,264.2,364,264z" />
	<path fill="#010000" d="M303.5,247.3c0.4-0.4,0.9-0.7,1.4-1.2c0,1.4,0,2.6,0,3.9C303.3,249.6,303.5,248.4,303.5,247.3   C303.6,247.3,303.5,247.3,303.5,247.3z" />
	<path fill="#D3D0DA" d="M389.3,160.2c-5.1-1.9-6.6-4.3-6.1-10.1c1.4-1.9,3.4-0.7,5.2-1.1c5.8,3.8,3.2,6.5,5.3,11.3l-0.2,0.2   c-0.9,0.3-0.4,0.9-0.3,1.3c-0.4-0.2-0.8-0.5-1.1-0.7c-0.5-3.3-3.4-5.9-6-8.2C386,156,388,157.7,389.3,160.2z" />
	<path fill="#212122" d="M374,217c3.5,0.8,3.1,17.4-0.7,17.9C373.5,228.9,374.3,223.2,374,217z" />
	<path fill="#1C1819" d="M389.3,160.2c-1.3-2.6-3.3-4.3-3.3-7.4c2.6,2.3,5.5,4.9,6,8.2C391.1,160.8,390.2,160.5,389.3,160.2z" />
	<path fill="#322D2F" d="M314.8,99.3c-2.9,0.4-5.5-0.5-8.1-1C307.1,95.9,313.4,98.2,314.8,99.3z" />
	<path fill="#282527" d="M358.1,160.3c0-0.4,0-0.7,0.1-1.1c3.2-0.8,3.8-0.7,5.3,1.6C361.5,161.4,359.9,161,358.1,160.3z" />
	<path fill="#414041" d="M346.7,103.6c-3.2-0.2-4.3-0.5-6.3-1.6c1.6-0.3,4.6,0,7.3,0.7C347.3,103.1,347,103.4,346.7,103.6z" />
	<path fill="#090B0B" d="M375.1,209.2c1.2,2.7,1.2,3-0.3,5.6C374.2,212.9,374.2,211.3,375.1,209.2z" />
	<path fill="#1E0A0A" d="M330.1,101.1c1.9-0.7,3.3,0.7,5.1,0.9C334.1,103.1,331.2,102.6,330.1,101.1z" />
	<path fill="#2F2C2D" d="M377.5,193.5c0,1.2,0,2.3,0,3.5C375.8,195.4,375.8,194.8,377.5,193.5z" />
	<path fill="#5A4E51" d="M345,181.5c-1.5,0.3-2.1-0.9-3.1-1.9c0.3-0.3,0.6-0.6,0.9-0.9c0.8,0.7,1.6,1.5,2.2,2.4   C345,181.2,344.9,181.4,345,181.5z" />
	<path fill="#6E7A7E" d="M351.1,103.1c0.8-0.1,1.5,0,1.4,1.2c-1.3,0.3-2.6,0.5-3.7-0.4C349.5,103.5,350.5,104.1,351.1,103.1z" />
	<path fill="#877E82" d="M358.6,105.7c-1.3,0.5-2.1,0.3-2.7-0.9C357.2,104.1,357.9,104.7,358.6,105.7z" />
	<path fill="#3E2728" d="M351.1,103.1c-0.5,1-1.6,0.4-2.4,0.8c-0.7-0.1-1.4-0.2-2.1-0.2c0.3-0.3,0.6-0.6,0.9-0.9   C348.8,102.9,349.9,103,351.1,103.1z" />
	<path fill="#262021" d="M376.5,203.1c0.7,1.4,0.5,2.1-1,2.7C375.8,204.4,375.8,204.2,376.5,203.1z" />
	<path fill="#483537" d="M393.3,116.6c-0.9-0.7-1.5-1.2-2.2-1.8C392.6,114.4,392.6,114.4,393.3,116.6z" />
	<path fill="#D3D0DA" d="M393.6,160.3c2.5,0.1,1.1,3.5-0.6,1.6c0.4-0.1,0.8-0.1,1.4-0.2c-0.4-0.5-0.7-0.9-1-1.2L393.6,160.3z" />
	<path fill="#1B1112" d="M393.4,160.5c0.3,0.4,0.6,0.7,1,1.2c-0.6,0.1-1,0.1-1.4,0.2l0.1-0.1C393,161.4,392.5,160.8,393.4,160.5z" />
	<path fill="#7C7B7F" d="M353.3,159c1.4,0,1.4,0,1.6,1.4c-0.5,0-1,0-1.5-0.1C353.4,159.9,353.4,159.4,353.3,159z" />
	<path fill="#504143" d="M324.6,131.7c0.1,1.6,0.1,1.6-1.4,1.4C323.3,132.3,323.8,131.8,324.6,131.7z" />
	<path fill="#D5D2DC" d="M345,181c-0.3-0.3-0.5-0.6-0.8-0.9C344.5,180.4,344.8,180.7,345,181z" />
	<path fill="#967063" d="M314,199c5,2.5,10.2,9,9.2,14.9c-0.7-0.3-1.4-0.7-2.2-1.1c-0.1,0.6-0.2,0.9-0.3,1.3   c-0.2-0.2-0.4-0.5-0.6-0.7c0.4-1.8-0.9-4.6-3-3.9C316.2,206.1,314,202.8,314,199z" />
	<path fill="#130F0D" d="M314,199c-0.5,3.4,2.4,5.9,2.4,9c-3.4-0.9-5.3-5.9-3.5-9C313.3,199.1,313.6,199,314,199z" />
	<path fill="#2E221E" d="M317.2,209.6c2.1-0.7,3.4,2.1,3,3.9C318.6,212.5,317.3,211.5,317.2,209.6z" />
	<path fill="#28201D" d="M320.8,214.1c0.1-0.3,0.2-0.7,0.3-1.3c0.8,0.4,1.5,0.7,2.2,1.1c0.2,0.4,0.5,0.8,0.8,1.3   C322.3,216.1,321.6,215,320.8,214.1z" />
	<path fill="#3C2E29" d="M328.5,219.5c-1.2-0.5-2-0.8-1.4-2C328.1,217.5,328.3,218.2,328.5,219.5z" />
	<path fill="#735A51" d="M313.4,196.5c-0.7,1.2-1.7,0.8-1-0.4C312.7,196.2,313,196.3,313.4,196.5z" />
	<path fill="#977264" d="M321.6,224.1c-0.2-0.3-0.4-0.6-0.6-0.9C321.1,223.4,321.4,223.7,321.6,224.1z" />
	<path fill="#5C3631" d="M325.3,191c-0.2,0.2-0.3,0.2-0.4,0C325.1,190.8,325.2,190.8,325.3,191z" />
	<path fill="#57413B" d="M323.8,188.8c-0.2,0.2-0.3,0.2-0.4,0C323.5,188.5,323.6,188.5,323.8,188.8z" />
	<path fill="#010000" d="M373,257.9c0.3,0.3,0.6,0.5,0.8,0.8C373.6,258.4,373.3,258.2,373,257.9z" />
	<path fill="#977264" d="M302.8,176.3c0.2,0,0.5,0,0.7,0c-0.1,0.2-0.2,0.4-0.3,0.6C303,176.6,302.9,176.4,302.8,176.3z" />
	<path fill="#88675B" d="M401.9,293.3c0-0.2,0.1-0.5,0.1-0.7c0.2,0.3,0.3,0.6,0.5,0.9C402.3,293.5,402.1,293.4,401.9,293.3z" />
	<path fill="#140E0C" d="M357.1,36.9c1.7-0.6,3.1-0.8,4.2-1.5c1.2-0.8,2.7,0.5,3.8-0.7c1.6-0.4,2.3,1.4,2.9,2.9   c-2.2,0.7-3.9,1.9-6.2,0.6C360.3,37.6,358.8,38.5,357.1,36.9z" />
	<path fill="#18110F" d="M356,31.9c1.2-5.4,14.4-3.5,13.4,1.5C365.2,31.5,360.4,28.8,356,31.9z" />
	<path fill="#251916" d="M334.5,42.5c1.5,0.6-0.5,2.1,0.7,3c0.7,0.5,1.1,1.7,0.3,3c-2.3,0.4-6-2.2-7.2-4.6c0.2-0.3,0.5-0.8,0.8-1.3   c1.2-0.2,1.7-1.8,3.1-1.4c0,0,0-0.1,0-0.1c-0.8,1.1-1.5,2.1-2.2,3.1c1,1.7,2.8,1.8,4.7,3.2c-0.8-1.7-1.3-2.6-1.8-3.6   C333.6,43.2,334.1,42.8,334.5,42.5z" />
	<path fill="#8A6D60" d="M334.5,42.5c-0.5,0.4-1,0.7-1.6,1.2c0.5,1,1,1.9,1.8,3.6c-2-1.4-3.7-1.4-4.7-3.2c0.7-1,1.5-2.1,2.2-3.1   c0.4,0.2,0.8,0.4,1.4,0.7c0.1-0.5,0.2-1,0.3-1.4C334.8,40.7,334.5,41.7,334.5,42.5z" />
	<path fill="#8C6C5F" d="M332.3,41c-1.4-0.3-1.9,1.3-3.1,1.4c-0.5-0.5-1-1-1.6-1.6c0-1.4,1.1-2,2-3C331.3,38.4,332.2,39.4,332.3,41z   " />
	<path fill="#251210" d="M369.3,49.3c2.3,0.6,7.7-3.8,7.5,0.8l0.1-0.1C374.4,48.6,371.3,51.5,369.3,49.3   C369.3,49.3,369.3,49.3,369.3,49.3z" />
	<path fill="#452F2B" d="M366.8,22.2c1.8,0.1,2.9,0.7,4.1-0.1c0.6-0.4,1.5,0,1.7,0.9C369.3,24,368.3,24,366.8,22.2z" />
	<path fill="#2E221E" d="M356.4,72.6c-1.5-0.1-4.8-1.3-3.7-3C353.9,70.5,356.6,70.7,356.4,72.6z" />
	<path fill="#48362F" d="M369.2,36.2c1.9,2.2,1.9,2.2,0.4,3.9C369.4,38.8,369.3,37.9,369.2,36.2z" />
	<path fill="#23100E" d="M362.4,40.7c1.3-0.7,2.3-1,3.9-1.1C365.1,41.3,364,41.3,362.4,40.7z" />
	<path fill="#41332E" d="M369.3,49.3c-1.5-0.5-1.5-0.5-1.2-2.4C368.6,47.9,368.9,48.6,369.3,49.3C369.3,49.3,369.3,49.3,369.3,49.3z   " />
	<path fill="#8C6C5F" d="M327.6,42.6c-0.7-0.6-0.9-1.1,0-1.7C327.6,41.5,327.6,42,327.6,42.6z" />
	<path fill="#2B231F" d="M393.3,205.1c-0.1-0.6-0.3-1.1-0.4-1.6c1.8-1.6,2.6,1.9,2.1,3.1C394.4,206,393.9,205.5,393.3,205.1z" />
	<path fill="#0A0808" d="M353.3,159c0,0.2,0,0.4,0.1,0.6c-8.1,0.3-18.2-3.7-22.4-9.2c0.4-0.4,0.8-0.8,1.1-1.1   C338.9,153,346,156.2,353.3,159z" />
	<path fill="#1B1A1C" d="M339.6,178.5c-1.6-0.9-2.2-2-1.7-3.9C339.4,175.6,339.9,176.8,339.6,178.5z" />
	<path fill="#4C4548" d="M368.4,160.2c-1.3,0-1.4-0.5,0-0.5C368.4,159.9,368.4,160.1,368.4,160.2z" />
	<path fill="#332520" d="M348.7,76.5c-1.9-1.9-2.2-3.8-2.5-5.8C348.4,72.4,348.7,73.1,348.7,76.5z" />
	<path fill="#372A25" d="M350.4,82.5c-0.2-0.3-0.5-0.5-0.7-0.8c-0.1-0.7-0.3-1.3-0.4-2C351,79.2,352,82.1,350.4,82.5z" />
	<path fill="#4A3C36" d="M353.4,85.7c-0.1,0.4-0.1,0.8-0.3,1.6c-0.6-0.8-1-1.2-1.3-1.7c0-0.5,0.1-1,0.1-1.5l0,0   C352.4,84.6,352.9,85.1,353.4,85.7z" />
	<path fill="#524038" d="M330.7,72.7c0,0.5,0,1,0,1.5C329,74.4,329,72.4,330.7,72.7z" />
	<path fill="#575458" d="M287.3,132.9c1.6,1,1.9,2.7,2.7,4.8C287.6,136.5,287.5,134.7,287.3,132.9z" />
	<path fill="#36373A" d="M291,138.9c1.4,0.1,1.7,1,1.8,2.2C291.6,142.1,289.9,140,291,138.9z" />
	<path fill="#271D19" d="M428.2,265.4c-1.8-0.6-2-1.4-0.7-3C428,263.4,428.5,264.3,428.2,265.4z" />
	<path fill="#2E2622" d="M425.4,260.1c-0.1,0.5-0.1,1-0.2,1.4c-1.1-0.5-1.8-1.2-1.1-2.8C424.6,259.3,425,259.7,425.4,260.1z" />
	<path fill="#010000" d="M413,286.8c-0.2,0.2-0.4,0.4-0.5,0.5C412.6,287.1,412.8,286.9,413,286.8z" />
	<path fill="#251D38" d="M377.7,253.7c0-0.7,0.1-1.4,0.1-2.2c0.2,0,0.3,0,0.5,0c0,0.7-0.1,1.4-0.1,2.2   C378,253.7,377.8,253.7,377.7,253.7z" />
	<path fill="#7E8589" d="M364.1,94.7c-1.1-0.4-0.9-1.1-0.3-2.2C363.9,93.4,364,94.1,364.1,94.7L364.1,94.7z" />
	<path fill="#977264" d="M351.9,84.1c0,0.5-0.1,1-0.1,1.5C351,85,350.9,84.5,351.9,84.1z" />
</g>
</svg>