<?xml version='1.0' encoding='utf-8'?>
<svg xmlns="http://www.w3.org/2000/svg" version="1.2" baseProfile="tiny" id="Layer_1" x="0px" y="0px" viewBox="0 0 900 600" overflow="visible" xml:space="preserve">
<g id="b">
	<path display="inline" d="M318.7,428c3.1-5.8,11.9-6.1,16.6-10.8c7.7-3.4,11.8-13.1,20.5-14.1c0.6,0.7,1.3,1.4,2.1,2.3   c3.3-2.2,36.9,13.4,29.4,16.7c-8.1-2.2-15-6.7-23-9.3c5.6,6.1,10,9.9,16.1,14.8c-0.6,0.4-1.3,0.7-2.2,1.2   c61.9,29.8,112.8-1.3,92.9-71.4c0.7-0.7,1.2-1.3,1.6-1.7c-14.8-52.9-83.9-41.4-112-77.5c-2.7-7.3-9.7-5.6-13.9-0.7   c-10.4,7.4-22,13.1-33.8,17.7c0-0.8-0.1-1.5-0.1-2.3c5.8-2.7,11.7-5.3,17.5-9.2c-21.2-5.8-47.4,2-65.3-12.8c0-0.8,0.1-1.5,1-1.8   c20.5,12.1,47,2.4,68.1,12.7c3.3-1.9,6.6-3.8,9.6-6.4c-23.6-11.7-53.5-2.3-73.8-22.7c-0.7,0.9-1.3,1.6-1.8,2.2   c2.5,4.6,7.6,6.3,11.3,9.7c-0.6,0.3-1.2,0.6-1.8,0.8c-5.2-0.7-8.2-5.1-12.5-6.9c-0.5,0.8-1.2,1.7-1.7,2.5c-0.9-0.4-1.3-0.5-1.9-0.8   c15.7-21.3,18.6-46.3,14.3-71.8c4.7-30.5-0.4-62.4,3.2-93.4c-9.7-3-20.6-0.4-30.5,0.1c-7.5,53.6-32.3,103.2-39.6,156.9   c-1-50.2,18.7-99.3,24.8-149.5c0.6-0.4,1.7-1.2,2.9-2c-0.7-1.2-1.3-2.1-2-3.3c-1.7,1.2-3.2,2.3-4.8,3.4c-12.4-6-11-44.6-26.9-52.9   c-8-6.8-23-7.4-24.8-19.3c-1.7-6.2,3.3-18.2,10.7-13.1l0,0c-1.8-0.5-2,1.6-3,2.6c-2.3,0.9-3.9,2.6-5.4,4.6c0.1,4,0,8,2.6,11.2   c10.7,3.4,20.7,9.1,28.1,17.1c0.7-1.2,0.6-2.9,2.4-2.8h-0.1c0.9,2.2,0.5,4.3-1,6.1c0.5,0.9,0.9,1.5,1.5,2.5c1.3-1.4,2.3-2.8,3.5-4   c0.3,0.1,0.6,0.2,0.9,0.2c0.3,1.2,0.7,2.5,1,3.7c-0.9,1.6-1.9,3.3-3,5.2c0.1,1.5,0.3,3.3,1.4,4.9c2.3-1.9,3.2-5.8,6.4-5.1   c-0.3,4.4-1.2,8.2-4.5,11c0.7,1.7,1.3,3.2,2,5c1.8-3.3,3.5-6.3,5.5-9.8c-1.9-8.7-5.8-17.4-9.7-25.4c0.5-0.4,0.9-0.8,1.4-1.2   c0.5,0.1,0.9,0.1,1.4,0.2c0.6-0.8,1.2-1.6,1.8-2.5c1.4,2.3,1.6,4.7,0.9,6.9c1,1.6,1.2,3.2,2.6,4.1c1.4-0.9,1.8-3.1,4.2-2.7   c1.5,3.3-0.3,6-2.1,8.7c0.5,2,1,4,1.6,6.5c2.5-3.5,4.2-7.1,8.4-8.5c0,1.6,0,3.2,0.1,4.8c-0.2,0.2-0.2,0.5-0.2,0.7   c-2.2,3-3.7,6.7-7,9c0.2,1.2,0.5,2.2,0.7,3.2c4.5-2.9,5.2-11.8,11.6-12.7c4.7,5.3-7.2,12.9-9.8,17.9c1.6,4.1,3.3,8.3,5.1,12.8   c21.4-19.1,36.4-22,52.5,3.9c5.8-12.4,16.8-20.4,24.5-31.4c2.1-22.2-27-18.5-39.4-27.9c-18.1-22-44.9-28.5-72.5-28.9   c-2.9,0.9-10.5,10.4-11.7,4.4c23.5-20.2,67.1,2,86.6,19.8c12.1,7.9,28,7.9,38.4,19.4c2.5,2,4.8,6,3.6,9.2c-1.9,2.4-0.2,5.8-2.6,8   c-5.8,4.2-7.8,11.2-13.4,15.3c-8.5,4.2-9.5,14.9-16.5,20.3c-1-1.7-1.9-3.2-2.8-4.7c-2,1.1-1.4,3.1-2.6,4.3c3.8,7.4-1.4,24-0.7,33.4   c-2.2,18.4,1.3,36.6-1.7,54.9c1.4,20.8,7,44-7.8,61.5c21.4,18.2,51.6,10.3,75.5,22.8c8.8-8.6,18.3,1.1,20,11.2   c33,18.9,77.3,21.1,101.8,52.3c15.4,23.1,17.1,82.9-10.6,97.9c-4,13.9-8.6,26.9-14.2,40.3c22.1,2.2,44.4,4.2,66.7,5.1   c9,1.5,19.3-3.2,26.4,4.2c-0.7,1.2-1.9,0.6-2.9,0.9c-7.8-4-14.8-0.4-22.8-0.6c-23.1-0.7-45.9-4.7-68.9-6.3   c-7.3,14.3-25,30.2-34.6,40.3c36.8,0,70.8-23,107.2-20.1c-35.4,8.3-73.2,19.8-110.7,24c-7.4,7.5-13.5,12.7-22.2,18.4   c7.6,6.1,16.9,9.4,26.4,6.3c13.5-2.2,27.2,2.7,40.9,2.8c27.4,8.4,56.2,6.2,84.4,9.1c19.3,7.6,40,6.5,59.9,11.4   c8.1,6.1,20.1,2.5,29.4,5.5c3.5,1.7,7.5-1.4,10.6,1.5c0.3,2.1,0.6,4.2,0.9,6.7c-4.7,3.7-11.8,5-15,10.2c-1.1,1.6-2.3,2.5-4,3   c-12.8,3.9-26-1.3-39,0.4c-8.6,0.1-17.5,0.4-25.5-2.6c-23.9-12.1-50.8-2.3-76-0.9c-34.3,6.3-67.5-0.9-101.5-4.5   c-28.9,3.6-59,5.6-86.6-5.8c-30.5-0.1-45.9-11.5-56.9-40c-4.2-1.7-4.6-3.8-8.6-0.8c-16.9,6.9-33.2,16.4-51.7,20.1   c-9.3,3.2-27.1,6.2-34.9,0.1c-0.6,1.6-1.1,2.8-1.6,4c-3.8,0.1-3.8-4.6-7.5-5.4c0.2-0.8,0.4-1.6,0.6-2.4c-1.4-0.5-2.8-1-4.5-1.6   c0.6-1.4,1-2.5,1.6-3.8c-6.8-3-8.5-9.5-10.5-15.5c-1.2-1.8-4.2-1.6-4.3-4.5c1.1-0.1,2.1-0.3,3.6-0.5c-4.4-7.1-2.2-13.7-4.6-20.9   c-1.8-3.5-4.3-6.2-5.1-10.3c1.6,0,2.7,0,4.2,0c-0.4-4.6-3.8-8.3-1.1-12.7c-0.3-0.7-0.5-1.4-0.8-2.2c0.7-2.1,2.9-2.6,4.6-4   c-2.2-1.4-5-1.3-6.7-3.7c2-1.7,2.8-3.2,2.6-6.1c1.3,0.4,2.2,0.7,3.4,1.1c-0.5-4.4-4-5.2-0.4-9.3c2,0,3.9,0,5.8,0   c0.7-0.6,1.3-1.1,1.7-1.5c1.6,0.3,3,0.6,5,1c2.4,2.8,4.4,6.4,5.9,10.2c-0.2,1,0.5,2.3-0.9,2.9c-3.4-4.3-5.4-11.2-12.3-10.4   c8.2,4.9,11.9,15.4,16.3,22.7v-0.1c-0.1,2-0.1,4-0.2,6c-0.3,0-0.6,0-0.9,0c-0.2-1,0.3-2.4-1-2.9c0-0.3,0-0.6,0-0.9   c-0.7-1-1.3-1.3-2.5-2.1c-0.4,3.1,1.5,7.8,3.9,9c0.3-1.3,0.5-1.9,0.5-3c1.1,0.1,0.9,2.2,2.8,1.4c0.2-2.5-0.9-5.1,1-7.1   c4.7,3.3-1.1,10.9,7,9.4c10.4,7.5,20.5,17.5,34.1,17c0.9-0.7,1.7-1.4,2.7-2c0.9-0.6,0.8-2.4,2.8-2.3c-0.4,1.8-0.7,3.4-1.1,5.2   c1.5,0.2,2.7,0.3,4,0.5c-4.7,7.7-10.6,5.5-12.3,16.3c-0.4-0.1-0.9-0.3-1.3-0.4c-0.6,1.8-4.4,1.9-3,4.9c3.3,1.9,1.8-3.1,3.5-1.5   c0.5,3.8,11.2,4.6,14.5,9.7c3.4-3,6.4-5.7,9.5-8.8c4.6,2,10.6-0.1,15,1.9c5.7-4,11.1-3.9,17.6-3.6c0.6,1,1,2.2,2.9,2.3   c-0.3-2-1.7-3.2-2.7-4.7c-3.9-12.2-0.2-21.9,9.2-30.5c1.3,1,3.5,1.5,3.2-0.9l-0.1,0.1c14.6-7.7,30.4-15.3,47.2-16   c20.6,4.8,54.6,9.5,39.3,38.6c17.8,3.1,35.9,4.7,52.1,13.5c31.4-26.4,63.2-54.6,74.9-95.5c-19.5,0.8-41.2,4.6-59.4-5.1   c-1.3,1.7-2.5,3.3-3.8,4.9c-0.3-0.6-0.6-1.2-0.9-1.8c0.5-1.5,1-2.9,1.5-4.8c-4.2-1.7-9.5-1.6-13-4.7c0.5-2.2-1.6-2.7-2.8-4v0.1   c-0.8-2.5-2.6-3.8-4.8-4.9c-1-1.6-2.5-0.7-3.8-0.9c-1.1-1.1-2.1-2.2-3.2-3.2c-6.2,0.2-10.9,3-15.1,7.2c-0.4-0.4-0.8-0.7-1.1-1.1   c1.8-5.7,6.2-8.1,12.1-9.1c-1.5-2.7-3-4.9-4.9-7.2c-9.8,9-22.3,14.1-33.9,20.2C319.4,428.8,319,428.4,318.7,428z M221.8,176.1   c-1.2,1-0.9,2.2-0.4,3.6c11.5-24.4,17-51.7,21.3-78.3c-2.1,1.3-3.9,2.4-5.7,3.5C233.8,129.1,227.7,152.8,221.8,176.1z M362.4,412.8   c-0.7-1.4-0.9-3.3-3.1-3.5c0.5,3.3,4,6.7,6.8,7.2C364.5,415,363.4,413.9,362.4,412.8z M122.3,548c0.1,0.6,0.3,1.1,0.5,1.9   C124.6,549.1,123.9,547.9,122.3,548c-1.1-1.4-1.7-3.4-3.6-4.5c-0.7,2.6,0.2,4.1,2.1,5.1C121.4,548.4,121.8,548.2,122.3,548z    M112.6,495.4c0.1,1-0.5,2.3,1.1,2.7C115.3,496.9,113.7,495.9,112.6,495.4c0-1.4,0-2.8,0-4.3c1.4-1.3,2.7-2.4,3.9-3.5   c-1.4-3.3-1.5-3.4-5.3-1.5c0.5,0.5,1,1.1,1.6,1.8c-1.1,1-2,1.8-2.9,2.5C110.8,492.3,110.3,494.6,112.6,495.4z M294,506.7   c3.3,0.8,6.3,2.5,9.2,4.1c2-4.5,3.8-8.6,5.8-13.1c-22.8-11.7-41-4.6-63.4,4.6c1.2,0.5,1.9,0.8,3.1,1.3c-37,14.3-7.8,52.6,8.5,72.1   c24.6,1.4,47.1,11.6,71.8,11.9c13.9,1.3,27.5-4.1,41.4-2c51.2,11.7,102.7,4,154.4-0.4c17.4-1,32.6,11.7,50.7,8.3   c25.3-2.7,33.3,9.6,54.8-10.9c-12.4-1.9-27.9,3.3-38.6-2.9c10.8,0,20.9,0,31,0c1.3,1.2,2.8,1,5.2,0.3c-13.8-3.6-27.7-4.7-41.3-7.3   c-15.8-5.4-35-2-49.9-10.4c-20.1-1.8-39.4-0.4-59.2-3.4c-26.7-3.9-53.8-12.6-80.5-7.1c-13-0.9-22.1-12.6-35-14.2   c-14.5-3.2-28.9-6.5-43-10.9c0-0.3,0-0.6,0-1c0.8-0.1,1.6-0.1,2.2-0.2c8.5-8.5,6-23.1-6.9-26.1c-2.2,4.7-3.2,10.5-7.6,13.6   c8.2,13.7-12.4-3-15.5-5.5C291.6,506.2,293.1,507.2,294,506.7z M279.9,84.1c-4.2-1.7-6.6-7.9-12-6.7c-7.9,1.7-16.6,3.7-22.3,9.9   c0.2,1.2,0.5,2.4,0.7,3.6c11.9-3.3,23.6-4.9,35.6-1.1C281.2,87.7,280.6,85.9,279.9,84.1z M235.5,90.8c-2.5-5.7-5-11.2-7.5-16.8   c-3.5,4.8-3.5,4.8-5.8,5.7c0.5,4.1,4.3,13.2,7,17C231.3,94.8,233.3,92.8,235.5,90.8z M242.2,89.5c-1.6,1.7-2.9,3-4.2,4.3   c0.2,1.6,0.3,3,0.5,4.6c2.1-0.1,3.6,0,5.5,0.8C244.4,92.9,244.4,92.9,242.2,89.5z M136.3,540.5c-3.3-0.2-3.2,2.5-5.1,4.4   c2.1,0.1,3.4,0.2,4.6,0.3C136,543.6,136.1,542.3,136.3,540.5z M148.1,511.5c-2.2-2.9-4.4-4.8-8.1-6.4   C142.5,508.5,144.2,511.8,148.1,511.5z M153.1,531.1c0.7,1,1.3,2,2.6,0.9c-0.2-0.8-0.5-1.5-0.7-2.2c0.6-1.1,1.1-2.1,1.8-3.3   c-1.6-0.7-2-0.5-3.7-0.3C153.9,528.1,153.7,529.4,153.1,531.1z M131.6,513.3c-1,2.1-1.8,3.7-2.7,5.5c0.8,0.5,1.5,0.9,2.2,1.3   c0.8-2,1.5-3.7,2.3-5.4C132.8,514.3,132.4,513.9,131.6,513.3z M156,542.2c0.9,2.7-3.8,6.4-0.7,6.6c1-1.9,3.1-3.4,3.2-6.1   C157.8,542.6,157.2,542.5,156,542.2z M135.3,529.9c-1.3,1.1-2.6,1.7-2.2,3.4c0.9,0.4,1.9,0.9,3,1.3c0.6-0.7,1.1-1.2,1.7-1.9   C136.9,531.8,136.2,531,135.3,529.9z M131.1,504c-5.1,5-3.5,6.3,1.1,1c0.2,0.5,0.1,0.1,0-0.1C132,504.7,131.7,504.6,131.1,504z    M137.6,506.8c0.2-0.2,0.5-0.5,0.7-0.7c-2.2-1.6-3.3-4.5-6.4-3.8C133.5,504.7,135.8,505.5,137.6,506.8z M158.9,554.9   c1,3,1.2,3.1,4.6,1.9C162.5,554.6,161,554.9,158.9,554.9z M135.9,553c0.8,2.3,2.8,1.5,4.7,2.8c-0.3-1.5-0.4-2.1-0.6-2.8   C138.5,553,137.3,553,135.9,553z M150.2,520.2c-0.3,0.1-0.6,0.2-0.9,0.3c0,0.8,0.1,1.6,0.1,2.4c1.2,0,2.1,0,3.6,0   C151.8,521.8,151,521,150.2,520.2z M140.7,557.3c0.2,3.4,2,4.1,3.6,2C143.2,558.6,142.3,558.1,140.7,557.3z M159,524.3   c1,2.1,2.5,1.7,4.2,1.5C162.2,523.7,160.7,524,159,524.3z M179.9,551.2c0.3,2.3,2.7,1.9,3.4,0.8C182.2,551,182.2,551,179.9,551.2z    M167.2,556.6c1.5,2.5,2.4,2.5,3.8,0.5C169.9,556.9,168.9,556.8,167.2,556.6z M162.1,547.2c2-0.2,3-0.4,4.1-0.5   C165.1,544.7,165,544.7,162.1,547.2z M110.7,505.5c0.4,1.6-0.6,2.8,1.4,3.1c0.4-0.4,0.8-0.8,1.5-1.4   C112.7,506.7,112,506.3,110.7,505.5z M109,481.1c0.6-2.5,0.1-2.9-2.3-2.2C107.5,479.7,108.2,480.4,109,481.1z M442.3,440.1   c0,0.2,0,0.4,0,0.6c1.3-0.1,4.9,0.6,3.3-1.7C444.6,439.3,443.4,439.7,442.3,440.1z M153.5,512.9c0,1.7,0.5,2.8,2.6,1.9   C155,514,154.2,513.4,153.5,512.9z M451.8,439.8c0.7-0.5,1.4-1,2.2-1.5C451.6,437.5,451.4,437.7,451.8,439.8z M129.6,550.8   c-0.2,0.6-0.4,1-0.5,1.3C130.6,553,131.1,551.7,129.6,550.8z M150.3,518.8l0.2,0.2v-0.3L150.3,518.8z M229.1,516.6l-0.1,0.3h0.1   V516.6z" />
	<path display="inline" fill="#4B65C5" d="M366.7,407.1c-3-0.6-5.7-2.9-8.9-1.7c-1.5-1.9-2.8-2.6-4.6-3.8c0.9-0.1,1.8-0.3,3.1-0.5   c-2.8-11.5-32.2-5.5-47.5-20.8c-10.7-6.4-26.7-25.6-39.4-19.1c-3.1-2.7-2.7-16.3-0.6-19.7c0.2,0.9,0.3,1.8,0.5,2.8   c12.8-1.8,12.1,0.6,22,7.6c30.1,9.9,19.1,13.2,36.2,27.2c10.2-10.7,18.6-5,29.7-3c2.4,5.3,2.4,5.3,5.7,7.8   c-0.6,0.1-1.2,0.3-1.9,0.4C361.5,393.5,372.8,398,366.7,407.1z M276,355.1c3-0.9,1.3-5.7,2.2-8.2c0.1-0.9-0.5-0.9-1.4-0.8   C276.6,349.2,274.7,352,276,355.1z" />
	<path display="inline" fill="#020202" d="M268.7,341.7c-2.1,3.4-2.6,17,0.6,19.7c13-6.5,28.6,12.7,39.4,19.1   c15.7,15.5,44.2,9.1,47.5,20.8c-6.2,0.8-10.7-4.8-17.4-4.1c-25.1-2.4-41.3-24-63.3-34.2c-5.3,3.4-11.5,1.6-11-5.5   c-0.4-4.6-2.6-8.5-0.6-13.3c-19.2-6.3-34.8-19.6-50.4-31.9c-19-11.1-21.8-32.2-11.2-50c3.6,13.9-13.9,23.6,5.2,41.6   c18.5,13.9,36.1,30.1,58.2,37.8c13.5-29.5,16.2-37.1,46.9-49c0,0.8,0.1,1.5,0.1,2.3C284.3,308.8,281.8,312.5,268.7,341.7z" />
	<path display="inline" fill="#040303" d="M318.7,428c0.4,0.4,0.7,0.8,1.1,1.2c-0.1,0.5-0.2,0.9-0.3,1.4c-9.7,2.6-19.5-1.9-27.7,5.8   c-13.4,11.1-35.2,19.6-38.7,37.7c4.4-1.5,8.9-3.3,13.8-2.9c0.4,0.4,0.8,0.7,1.2,1.1c0,0.3,0,0.7,0,1l0.1-0.1c-0.3,0.3-0.7,0.7-1,1   v-0.1c-1.6,1.2-3.2,2.5-4.8,3.8c-0.2-0.8-0.3-1.6-0.5-2.6c-3.1,0.9-6.1,1.8-8.9,2.7c-1.7,2.7-2.5,8.6-6.2,7.8   c-7.3-2-14.6-0.3-21.6-4.1c-3.1-1.6-7.6-0.1-9.8-3.7c6.3-2.6,13.9,1.3,20.3,2.2c2.7,3,6.4,2.1,9.6,2.8c6.4-12.9,11-26.8,24.5-34.9   C285.8,437.7,297.8,423.2,318.7,428z" />
	<path display="inline" fill="#090707" d="M611.3,512.6c1.3,4.2-11.4,9.7-14.9,8.3c-7.5-2.3-15.5-0.9-23-2.7   c-1.3,1.1-0.4,2.2-0.4,3.2c0.5,3.6-3.5,4.3-5.9,5.7c0-0.7,0-1.5,0-2.2c1.3-0.8,2.9-1.3,3.5-2.9c-2.2-5.6-3.8-7-9.3-8.3   c-3.5-0.2-13.9-3.5-5.8-5.8c8,4.6,38.6,13.6,45.7,8.7c-10.2-1.1-21.6-3.8-29.7-9.8c3.4-0.1,5.1,0.5,8.1,1.3   c7.4,5.3,16.8,4.6,25.4,7C607.2,514.6,608.8,511.9,611.3,512.6z" />
	<path display="inline" fill="#080606" d="M567.3,524.9c0,0.7,0,1.5,0,2.2c-11-3.2-22.4-9.4-33.4-13.9c-11.5-9.2-6.3-15.2-25.1-13.1   c1.5-2.5,5,0.5,6.7-1.8c2.6,0.3,3.8,0.4,6.8,0.8c-2.1-1.3-3.4-2.1-4.7-2.9c0.1-0.7,0.1-1.1,0.1-1.6c5.2,1,16.6,5.5,13.8,11.9   C541.1,516.5,555.7,517.4,567.3,524.9z" />
	<path display="inline" fill="#14100F" d="M126.1,478.1c1.4-0.6,0.7-1.9,0.9-2.9c0.5,0.6,0.9,1.2,1.5,1.9   c8.5,0.7,17.2-14.2,24.7-6.4c6.8-3.6,11.6-9.5,18.3-12.6c2.6,0.3,4.3,1.7,5.7,3.9c2.4-0.7,6.3-3.9,7.4-0.2   c-0.4,0.4-0.8,0.8-1.2,1.2c-2.2,0.1-3.8,1.3-5.6,2.2c2.6,4.2,0.5,8.2-3.3,6c0.4-0.8,0.9-1.6,1.3-2.4c-1.1-15.5-11.4-2.2-17.5,2.3   c-4.6,5.3-10.6-2.5-15.4,2.5c-4.1,2.7-8.7,6.1-13.8,5.7c-1.6,0,0,2.6-0.5,3.8c-0.4-0.1-0.9-0.2-1.2-0.3   C127,481,126.6,479.5,126.1,478.1z" />
	<path display="inline" fill="#0B0A0B" d="M218.5,40.8c-0.5,0.4-0.9,0.8-1.4,1.2c-1-1.2-1.9-2.3-3.6-2.9   c-30.9-8.7-18.2-25.9-29.8-25c1.2-1.2,3.6-0.9,4.8-0.9c2-1.1,0.9-3.5,2.7-4.2c0.1,0.9,0.1,1.8,1.2,2.2c-0.4,0.6-0.9,1.3-1.3,1.9   C194.2,32.4,208.2,29.4,218.5,40.8z" />
	<path display="inline" fill="#120E0D" d="M534.6,484.9c1-0.3,2.2,0.4,2.9-0.9c12.5,4.1,23.1,12.9,35.9,16c2.7,0.7,5.5,1.5,7.3,4   C567.9,505.9,547.7,489.6,534.6,484.9z" />
	<path display="inline" fill="#201A19" d="M183.4,462.8c0.4-0.4,0.8-0.8,1.2-1.2c0.4,0.2,0.9,0.3,1.4,0.5c4-5.6,9.6,0.8,14.1-2.5   c5.2-5,16.7,3.1,12.2,8.9c-5.8-13.5-8.4-4.7-18.1-4.9c-1.2-1.4-2.7-1.2-4.5-0.9c-0.5,0.8-1.1,1.6-1.5,2.3c0.8,2,3.2,2.7,2.8,5.3   c-0.8,0-1.7,0.1-2.5,0.1C187.2,467.6,185.7,464.9,183.4,462.8z" />
	<path display="inline" fill="#171110" d="M578.4,505c0.8-0.2,1.8-0.1,2.2-1.1c9.4,5.3,22,4.2,30.6,8.7c-2.1-0.6-3.2,1.2-4.8,1.9   c-0.1-1.5-1.4-1.5-2.4-1.7C595.3,511.4,586.1,509.8,578.4,505z" />
	<path display="inline" fill="#231F1E" d="M203.8,266.3c-0.2-1.4,0.5-3.4-1.2-4c2.1-4.7,3.5-9.7,4.8-14.6c0.1,1.5-0.1,3,1.1,4.2   c-0.8,4,0.3,7.5-1,11.5c-0.3-0.3-0.7-0.7-1-1c0-1,0-2.1,0-4C204,261.4,205.7,263.5,203.8,266.3z" />
	<path display="inline" fill="#373331" d="M212.4,468.5c1.2-0.4,0.9-1.4,1.2-2.2c1.1,3.2,2.1,6.4,3.3,9.8c0.6,0.2,1.5,0.6,2.5,0.9   c-1.7-0.2-3.1,0.9-4.7,1C213.2,475,212.2,471.9,212.4,468.5z" />
	<path display="inline" fill="#020202" d="M354.1,402.2c0.6,0.3,1.1,0.6,1.7,0.9c-0.5,0-1.1,0-1.6,0.1   C354.2,402.9,354.2,402.5,354.1,402.2z" />
	<path display="inline" fill="#5876E8" d="M268.7,341.7c14-32.9,20.6-36.1,52.7-50c8.9-4.1,17.5-8.5,25.4-14.3   c4.3-4.8,11.2-6.6,13.9,0.7c28,36.1,97.2,24.6,112,77.5c-0.4,0.4-0.9,1-1.6,1.7c12.8,38.5-38.4,47.1-39.1,64.2   c-8.5,5.3-19.1,8.4-25,17.3c-0.6-0.1-1.3-0.2-1.9-0.3c-1.3-1.6,0.7-3.4-0.6-5.5c-3.6-2-9.4-0.4-12-4.1c0-1.1,1.1-1.7,1.7-2.5   c1.9,2.2,4.4,1.5,6.8,2.6c0.5-5.5,0.6-10.8-0.7-16.2c5.4-5.4,11.7-3.1,18.3-4.4c-6-2.4-12.6-2.5-18.3,0.9c-0.1-1.2-0.1-2.5-0.2-3.6   c-1-1.3-1.9-2.4-2.8-3.4c0.1-1.9,0-3-0.4-5c-10.9,2.8-3.2,16.4-6.3,18.3l0,0c-0.3-1-1-1-1.8-1c-15.7-6.2,9.6-17.7-9.6-23.2   c-0.9-10.4,4.9-19.6,6.5-29.3c-3.8,1.2-22.2,17.3-17.7,19.9c4-5.4,7.8-11.1,13.1-15.3c1.6,1.3-0.4,2.6-0.6,4   c-2.3,5.9-3.5,12.7-6.3,18.1c-4.3-1.8-7.7-5.1-11.5-7.7l0,0c1.8-12.4,3.1-24.8,6.6-37c0.3-1.2,0.4-1.2-0.4-3.9   c-4.8,9.7-5.6,20.1-8.6,30.2c-7.5-4.3-14.9-8.7-20.6-15.2c0.5-1.5,1-3,1.6-4.5c-1.9-7.3,1.2-13.9,0.3-21.4   c-3.5,7.2-3.5,15.9-4.7,23.7c-18.6-4.9-17.1-16.6-22.1-31.7c10.5-12.5,27.2-8.8,24.8-16.5c-1.3-3.8-6.5-0.6-9.3-0.7   c-7.3-1.5-11.5,4.6-16.8,8.3c-0.6-0.3-1-0.5-1.5-0.7c-0.8-2.8-1.6-5.6-2.4-8.4c-4,1.3,5.6,10.9-6.3,18.4c-1.1,7.6,6.4,3.2,9.4,0.6   c3.3,12.9,9.1,24.8,11.9,37.8c0.9,3.1,1,8.1,4.8,9c4.6-5.1-2.9-11.9-4.1-17.5c0.3-0.3,0.7-0.6,1.1-0.9c3.4,0.8,6.5,2.3,9.3,4.2   c0.3,4.8-1.3,9.4-1.4,14.2c0.7,0.6,1.5,1.3,2.3,1.9c4.8-3.5-0.4-9.2,3.2-12.7c3.8,5.2,21.4,11,17.1,16.7c0,0.2,0,0.4,0,0.6   c-11.2-2.1-19.6-7.7-29.7,3c-17.3-14.1-6.1-17.4-36.2-27.2c-9.9-6.9-9.2-9.4-22-7.6C269.1,343.5,268.9,342.6,268.7,341.7z    M359.3,358.2c0.4-1.5,4.5-5.4,1.3-5.5c-1.5,4-4.7,6.5-5,11.2C357.8,362.3,358.2,360,359.3,358.2z M433.9,380.3   c1.2-2.5,4.8-4.7,4.3-7.4c-2,2.1-8,8.3-6.8,11.1C432.4,382.6,433.1,381.4,433.9,380.3z M459.8,348.7c1.2-1.2,5.2-1.3,4.1-3.5   c-3.5,2.1-15.6,6.9-15.8,10.2C452.4,353.7,456.1,351.2,459.8,348.7z M448.2,382c-7.2,11.1-12.9,21.9-20.2,33   c14.8-11.3,14.2-34.7,34.2-38.4c1.6-0.7,2.3-2,2.1-3.8C458.5,375.6,452,376.6,448.2,382z M351.5,309.2c4.3-5.3,5.2-12.1,7.2-18.5   c3.3-0.6,4.9-2.3,4.1-5.6c-7.7-3.2-14.8,4.8-19.3,10.6C342.5,300.1,345.9,312.8,351.5,309.2z M369,298c0.3-0.4,0.6-0.7,1-1.1   c-2-0.6-5.9-6.8-6.8-2.3C365,295.7,367,296.8,369,298z" />
	<path display="inline" fill="#FBDFD3" d="M291,507.7c6.1,4.1,11.4,9.6,18.2,12.5c1.5,7.1,12.6,6.8,18.3,9.3   c21.8,5.4,43.7,9.1,62.9,21.2c11.2,4.4,22.7-4.4,34.2-0.3c54.3,11,109.6,10.1,163.4,22.8c-2.9,0.9-6,0.6-9,1c0,0.2,0,0.3,0,0.5   c3.6,0,6.9,1.8,10.5,1.2c0.5-0.6,0.9-1.2,1.3-1.8c10.9,1.3,22.1,2.9,32.9,4.8c-0.3,0.3-0.7,0.6-1,0.9c-10.2,0-20.4,0-31,0   c4.4,4.6,12.7,1.9,18.7,2.9c5.3,2.6,12.7-0.6,18.3,1.7c-2.2,1.3-4.5,2.7-6.7,4c-12.4-2.5-25.1-2.8-37.7-3.8   c10.6,6.2,24.6,3.4,35.7,6.6c-13.3,7.9-29.8-0.3-44.4,2.4c-8.6,0-18,1-25.6-3.2c-1.9-4.4-6.6-4.9-10.3-7c0.5-0.6,0.9-1,1.3-1.4   c-0.2-0.4-0.4-0.9-0.5-1.3c0.9-0.1,1.8,0,1.8-1.3c-1.3-5.3-11.2,1.2-15.2-2.6c-0.9-1.8-3.4-0.4-5-0.8h0.1c-1.6-2.8-5.8,0-8.5-0.2   c-2.6-0.1-5.4-2.2-7.8-0.2c-4.2,2.6-9.7,4.7-14.4,2.1c0.7-0.1,1.5-0.3,2.2-0.4c0-0.2,0-0.4-0.1-0.6c-1.4,0.2-4.2-0.7-3.7,1.5   c-30,2.2-62.5,14.3-91.6,2c3.9-1.6,4-5.1,6.8-7.3c5.4-1.8,8.6-4.3,9.5-7.3c-7.6,2.4-14.3,3.9-22.4,3.7c0.9,2.5,2.2,2.8,4.3,3.6   c-6.1,4.1-16.2,0.5-21.8,5.4c-8.8,0.7-17.4,0.3-25.2,2c-1.7-1.1-1.7-1.1-2.8,0.3h0.1c-9.8,2.3-19.8-1.2-29.7-0.1   c-0.5,0-1.3,0.3-1.5-0.9c9.2-2.9,16.5-9.3,23.3-15.6c-2.3,0.4-4.1,2.2-5.6,0.3c1.2-3,5.4-0.5,6.3-3.8c-5.7-1.2-9.7,3.8-14.7,5.8   c-9.3,0.2-19,10.4-27.6,4.8c2-1.9,4-4,4.1-7.5c-0.5-0.2-1.2-0.6-1.8-0.9c0.7-1.3,1.2-2.1,1.6-2.9c-9.1-7-18.8,3.7-28.1,2.3   c-16.2-1.1-26.9-11.1-35.5-24.1c-1.1-1.5-2.5-3-4.8-2.6c-8-13.7,3.6-26.8,16.2-31.9c-1.2-0.5-1.9-0.8-3.1-1.3   c17-6.2,36.6-16.5,54.1-7.9c0.2,0.4,0.3,0.9,0.5,1.4c-3.2,2-5.6,4.5-5.4,8.7c0,0.5-0.7,0.9-1,1.4c-1.8,0.3-5.1-1.5-5.9,0.5   C288.7,507.4,289.7,507.8,291,507.7z M339.9,537.5c15.5,3,5.5-2.7-2.6-0.7c0,0.2,0,0.3,0,0.5C338.2,537.4,339.1,537.5,339.9,537.5z    M245.1,514.5c0.6-0.5,1.1-1,0.3-2c-1.3,2.2-4.2,2.5-4.1,5.5C243.8,519.3,244.5,516.3,245.1,514.5z M266.1,532.8   c-5.8-2.2-11-5.3-15.2-10c3.1,6.4,8.7,9.4,15.2,11.1c0.7,1,1.5,1.1,2.5,0C267.7,533.5,266.9,533.2,266.1,532.8z M569.9,573.6   c-1.4-2.2-2.3-2.2-4.7,0C566.7,573.6,568.2,573.6,569.9,573.6z M355.5,559.9c1.6,1.4,2.9,0.7,4.7,0.2   C358.2,558.4,357.5,558.2,355.5,559.9z M577.1,573.7c-2.3-0.7-2.3-0.7-3.9,0.1C574.8,575.1,574.8,575.1,577.1,573.7z M416.9,564   c1.8,0.9,2.9,0.3,4.1-1.1C419.3,562.4,418.1,562.9,416.9,564z M323.6,537.3c-1.7-1.2-2.7-0.8-3.6,0.9   C321.3,538.4,322.5,539.1,323.6,537.3z M425.2,562.1c1.6,0.7,2.8,0.4,3.7-1.2C427.2,560.2,426,560.5,425.2,562.1z M347.3,560.1   c1.3,0.6,2,0.9,3.4,1.5C350,559.7,349.4,559.1,347.3,560.1z M329.1,537.8c0,0.2,0,0.4,0,0.7c1,0,3.9,0.4,2.6-1.4   C330.9,537.3,330,537.5,329.1,537.8z M344.4,560c-1-1.1-3.2,0-1.9,1.3C343.4,561.7,344.2,561,344.4,560z M288.6,539.7   c0,0.2,0,0.3,0,0.5c1,0,2,0,2.9,0c0-0.2,0-0.3,0-0.5C290.6,539.7,289.6,539.7,288.6,539.7z M283.7,539.2c0-0.2,0-0.3,0-0.5   c-1,0-1.9,0-2.9,0c0,0.2,0,0.3,0,0.5C281.8,539.2,282.7,539.2,283.7,539.2z M575.6,580.4c0-0.2,0-0.4,0-0.6c-0.8,0-1.6,0-2.3,0   c0,0.2,0,0.4,0,0.6C574,580.4,574.8,580.4,575.6,580.4z M484.5,577.1c-0.5-0.3-0.9-0.4-1.2,0.2   C483.8,577.7,484.2,577.8,484.5,577.1z M432.9,560.5c-0.2,0.2-0.3,0.4-0.5,0.6c0.6,0.3,0.9,0.5,1.3-0.2   C433.4,560.7,433.1,560.6,432.9,560.5z" />
	<path display="inline" fill="#FBDFD3" d="M313,292.8c-1.7,2.1-4.1,2.6-6.5,3.1c-3.1-1.9-7.3,0.2-10.7-1.6c-2.1-0.4-2.1-0.4-3.8,0.7   c3.1,0.6,7.7,0.5,9.5,2.9c-14.3,4.1-21.5,15.4-27.8,27.7c-23.8-10-54.1-17.8-66.9-42.3c0.7-0.8,1.2-1.4,1.7-1.9l0,0   c0.6-0.7,1.2-1.4,1.7-2.1c1.2,1.7,2.4,3.3,3.7,5.1c5.8-8.9,1.7-19.7,2.4-29.4c1.5-10.8,0.7-22.2,5.2-32.5   c15.1-31,18.8-64.6,26.1-97.6c1-7.1,6.9-23.2,3.6-28.6c1-1.1,2.8,0.2,3.4-1.4c7.8-1,16.8-2.2,24.2,0.2c-3.6,31,1.5,62.9-3.2,93.4   c4.3,25.5,1.4,50.6-14.3,71.8c0.6,0.2,1,0.4,1.9,0.8c0.6-0.8,1.2-1.7,1.7-2.5c5.7,3.1,11,8.3,18.1,8.7c-4.3-4.7-11.7-6.2-15-12.3   c0.5-0.6,1-1.3,1.8-2.2c20.5,20.4,50.2,11,73.8,22.7c-3,2.6-6.2,4.6-9.6,6.4c-17.4-10.7-57.4,1.1-70.2-15.9   c-0.1-3.2-3.5-2.7-3.7,0.3c-3.9,0.8-6.9-1.1-10.8,0.9c5.2-0.4,7.8,3.6,12.8,2c18.7,16.5,45.6,9,68.2,14.6   C324.6,287.5,318.7,290.1,313,292.8z M283.2,293.2c-0.2-0.1-0.5-0.1-0.7-0.1c-11.9-5.6-24.2-11.2-36.1-17.4c-2.7,1-4.9,1.8-6,4.6   c4.3,8.8,28.5,18,38.1,13.8c2.5,1.1,4.8,1.3,7.6,0.7C285.3,293.5,284.4,293,283.2,293.2z M254.4,257.7c1.4,1.9,1.4,1.9,3.7,1.4   c-0.6-0.5-1.2-0.9-1.8-1.4c0.5-1.5,0.4-2.8-1.1-3.8c-0.7,0.6-0.4,1.3-0.1,2C255.4,256.7,253.3,256.6,254.4,257.7z M249.8,247   c-0.1,1.7-2.3,4.3-0.1,5.4c0.7-2.2,1.9-5.5-0.8-6.8C248.7,246.3,248.5,247.1,249.8,247z M269.8,107.1c1.2-3.9,3.4-8.6,1-12.4   c-3,0.4-4.5,16-1.5,16C269.5,109.6,269.7,108.3,269.8,107.1z M237.4,224.2c-0.1,4.7-1.8,8.7-0.5,13.5c6.3-5.4,4.1-15.1,6.1-22.6   c1.6-8.5,4.9-17.6,1.5-25.5C238.8,200.2,236.7,212.2,237.4,224.2z M294.4,270.1c-2.2-0.8-3.6-2.7-6.1-1.7   C290.2,270.4,292.1,270.8,294.4,270.1z M247.5,182.3c-2,0.7-1.9,2.5-2.4,4.1C247.7,186.3,247.9,185.8,247.5,182.3z M247.1,262   c-1.7-1.8-3.2-0.6-5-0.1C243.9,263.4,245.4,263.1,247.1,262z M267.6,115.1c-0.9,1-0.9,2-0.1,3.2   C269.3,115.9,269.3,115.9,267.6,115.1z M266.9,130.7c-1.5,2.4-1.5,2.4-0.7,3.8C267.1,133.1,267.1,133.1,266.9,130.7z M228.8,268.5   c0.9,1.3,1.9,2.2,3.6,1.2C231.5,268.3,230.5,267.6,228.8,268.5z M249.1,241.4c1.5-1.3,2.1-2.2,1.1-3.7   C248.8,238.6,248.5,239.6,249.1,241.4z M267.7,122.8c-0.5-0.1-0.9-0.3-1.6-0.5c0.1,1,0.2,1.8,0.3,2.6c0.2,0,0.4,0.1,0.6,0.1   C267.1,124.3,267.4,123.6,267.7,122.8z" />
	<path display="inline" fill="#CCD2E9" d="M266.9,471.2c-4.9-0.4-9.4,1.4-13.8,2.9c3.5-18.2,25.3-26.7,38.7-37.7   c8.4-7.6,18.1-3.1,27.7-5.8c0.1-0.5,0.2-0.9,0.3-1.4c11.7-6.1,24-11.3,33.9-20.2c1.9,2.3,3.4,4.5,4.9,7.2   c-7.7,0.7-10.3,5.8-14,11.4c-6.3-1.1-16.2,1-19.6,6.6c1.4,1.3,2.6,0.7,3.8,0.2c4.7-3.2,12.4-2.3,16-6.1c2.2,0.1,2.2,0.1,2.9-1.9   c4.1-4.2,8.9-7,15.1-7.2c7,9.1,16.1,15.8,27.5,17.7c-0.4,3.2-3.4,5.5-1.9,8.5c1.4,0,1.5-0.8,1.3-1.9c1.2-1.6,2.5-3.3,3.8-4.9   c4.5,1.3,8.1,4.2,12.7,5.1c-2.3,4.7-5.6,9.5-8,14.1c-16.1,7-20.1,27.9-34.9,36.4c2-6.1,2.1-7,1.4-13.3c-0.5-0.4-1.5-1.4-2.4-1.6   c-10,2.5-10.3,30.2-23.7,21.2c5.9-4.5,9.6-20,5-25c-8.1,6.7-13.3,17.4-17,26.7c-3.2-4.1-7.9-5.6-12.4-7.7   c3.1-10,10.8-23.3,3.7-32.8c-5.7,9.1-9.5,20-13.3,29.9c-20.7-9-41.4-0.7-60.4,8.7c-0.3-0.3-0.7-0.7-1-1   c8.7-9.5,27.5-15.6,28.2-29.6c29.9-31.5,48.9-14.3,48.5-28.8c2.2-1.5,0.2-5.4-2-1.9c-5-1.7-10.1,1.9-11.8,5.1   C290.8,449.8,278.4,460.1,266.9,471.2z M346.8,431.3c-1.3,0.5-1,1.1-0.2,1.8c0.8,3,1.3,4.3,3.2,5.3c0-1-0.1-1.7-0.1-2.5h-0.1   c3.2,4,4.4,8.7,7.3,13.1C358.1,447.6,348.4,426.7,346.8,431.3z M362,432.1c1.1,2.3,2.5,4.5,4.3,6.4c0.8-1.3-7.8-16.9-9.6-14.5   C358.4,426.6,360.2,429.4,362,432.1z M384.4,455.2c0.7-1.8,1.1-2.9,1.5-4.1c-0.6-0.4-0.9-0.6-1.4-0.8   C383.2,451.6,382.9,452.9,384.4,455.2z M329.8,451.6c-1.2-2.7-1.9-4.3-2.8-6.4C325.2,447.8,326.5,450,329.8,451.6z M343.9,473   c0.3,0,0.6,0,0.8,0c-0.1-1.5,2-5.4-0.8-4.9C343.9,469.7,343.9,471.3,343.9,473z M366.3,477.6c1-0.9,3.5-2.6,1.1-3.2   C365.9,475.7,365.9,475.7,366.3,477.6z M382.4,463.3c1.5-0.8,2.2-1.8,1.2-3.4C381.7,460.6,381.6,461.7,382.4,463.3z M319.5,433   c-1.2,1-2.3,1.8-1.2,3.4C319.9,435.7,320.1,434.7,319.5,433z M353,450.7c-0.4-0.5-0.7-0.9-1.1-1.5   C351.5,451.1,351.5,451.1,353,450.7z" />
	<path display="inline" fill="#B7BDD5" d="M326.3,502.1c3.6-9.4,8.8-20.1,17-26.7c1.5,0.1,1.3,1,1.4,1.8c-0.5,0-0.9,0-1.7,0   c0,0.9-0.1,1.8-0.1,2.7c0.7,0,1.2,0,1.7,0c1.9,6.8-1,15.8-6.3,20.6c13.8,11.2,15.9-28,26.1-19.6c0.7,6.3,0.6,7.3-1.4,13.3   c14.9-8.4,18.9-29.3,34.9-36.4c2.4-4.7,5.8-9.4,8-14.1c15.4,2.3,31.6,1,46.7,0c-11.7,40.9-43.5,69.1-74.9,95.5   c-16.2-8.8-34.3-10.4-52.1-13.5C331,517.9,329.8,510.2,326.3,502.1z M357.2,495.3c2.6-1.3,2.3-3.8,3-6.8   C358,490.9,357,492.9,357.2,495.3c-1.5-0.1-2.4,0.6-2.8,2.1c-1.3,1.8-3.4,2.9-4.1,5.2C355,503.4,355,497.9,357.2,495.3z    M332.4,499.4c3.3,4.2,7.9-5.1,7.3-8.8C337.1,493.9,334.8,496.5,332.4,499.4z M363.5,482.1c-1.6,1-2.2,1.8-1.3,3.3   C363.6,484.7,364.1,483.8,363.5,482.1z M340.9,486.8c2.5-0.9,1.9-2.2,1.6-4C341.3,484.8,341.2,484.5,340.9,486.8z" />
	<path display="inline" fill="#E4E4EB" d="M193.2,11.4c3.3-2.3,6.5-4.5,9.6-6.6c27.6,0.3,54.5,7,72.5,28.9   c12.4,9.4,41.6,5.8,39.4,27.9c-7.9,11.1-18.9,19.1-24.5,31.4c-12.8-19.7-25.2-25.7-45.4-9.9c-4.3-1.1-1.8-6.4-2.8-9.4   c-1-2.6-0.7-5.2-0.8-7.8c1.1-2.3,4.8-5.4,1.2-7.5c-1,0.7-3.8,0.3-4,1.8l0,0c-0.4-0.4-0.8-0.9-1.3-1.3c2.2-4.5,1.5-5.3-1.8-8.5   c-0.8-2.4-1.8-4.7-3-7C225.3,24.2,196.4,26.2,193.2,11.4z" />
	<path display="inline" fill="#FBDFD3" d="M194.2,463.6c5.1,1.6,12.1-7.1,15.3,0.1c-2.7,9.2,2.3,18.9-2.9,27.8   c-3.9,7.5-3.1,16.1-7.7,23.2c-2.1,1.7-6.6,2.4-5.8,5.6c-0.6,1.9,1.9,2,2,3.5c0.5,5.6-3.9,9.1-5.9,13.7c-2.3-3.7-3.6-0.4-6,1.5   c-0.7-0.8-1.2-1.3-1.8-1.9c2-2.5,4.5-2.9,6.9-4.2c2.2-3.5,1.4-9.1-3.2-9.6c-3.8,1-0.3,9.1-6.3,6.1c-0.6-0.8,0.1-2.1-1.5-2.4   c-1.1,1.6-2.2,3.2-3.3,4.9c-4.8-6.1,7.8-8,9.2-13.5c-1.4-0.2-2.5-0.3-4-0.5c0.4-1.8,0.7-3.4,1.1-5.2c-2-0.2-1.9,1.7-2.8,2.3   c-0.9,0.6-1.8,1.3-2.7,2c-15.6,0-28.1-11.8-39-21.9c0.2-3-2.1-4.2-3.5-6.6c-0.4,1-0.6,1.7-0.9,2.4c-0.5-0.2-0.9-0.4-1.3-0.6v0.1   c-0.7-1.5-1.5-3.1-2.1-4.7c0.4-1.6,0.8-3.1,0.8-4.8c4.3-3.1,10.1-4,14.2-7.6c2.5-1.9,5-2.7,7.9-1c2.8,1.6,5.3,0.2,7.5-1.5   c6.1-4.6,16.4-17.8,17.5-2.3c-0.4,0.7-0.8,1.5-1.3,2.4c3.8,2.2,5.9-1.7,3.3-6c9.9-7.7,7.1,8.2,14.2,6c0-2.5,0-4.8,0-7.1   C192.7,463.8,193.5,463.7,194.2,463.6z M155.8,498.6c0.3-2.5-0.2-4.1-1.8-5.5c-3.7-3.8-2-10.1-3-14.9c-1.3-0.9-2.3-1.8-3.7-0.7   C146.1,485.2,148.2,495.1,155.8,498.6z M161.3,489c-1.9-3.7-0.1-7.5-3.4-9.9c-1.6,0.3-2.8,0.6-4.3,0.9c1.1,4,3.1,7.3,6.4,9.8   C160.4,489.6,160.7,489.3,161.3,489z M184.4,505.4c-2.6,2.3-2.7,2.4-1.1,4.1C184.7,508.5,184.9,507.1,184.4,505.4z M184.8,503.9   c1.9-1,2.3-2.1,1.4-3.6C184.7,501.5,184.7,501.5,184.8,503.9z" />
	<path display="inline" fill="#EECABA" d="M491.5,577.8c2.7,1.5,8.3,1.7,10.7-0.2c3.5,1.4,12.3-2.5,3.8-1.5v-0.4   c2.4-2,5.1,0.1,7.8,0.2c2.3,2.2,4.8,2.3,7.6,1c6,3.5,12.2,5.5,19.2,3.8c0.2,0.4,0.4,0.9,0.5,1.3c-0.4,0.4-0.8,0.9-1.3,1.4   c3.7,2.1,8.4,2.5,10.3,7c-41.1-13.4-85.2,6.1-127.5,2.1c-18.4-1.6-36.3-4.8-54.7-7c-13.1-1.3-25.6,3.6-38.6,2.2   c-24.6-0.3-47.2-10.5-71.8-11.9c-9.1-12.5-21-24.7-24.5-40.3c2.3-0.4,3.6,1.1,4.8,2.6c8.6,13.1,19.4,23.1,35.5,24.1   c9.4,1.4,19.1-9.3,28.1-2.3c-0.4,0.8-0.9,1.6-1.6,2.9c0.6,0.3,1.3,0.6,1.8,0.9c-0.1,3.5-2.1,5.5-4.1,7.5c8.6,5.6,18.3-4.5,27.6-4.8   c-3.2,3.9-11.3,4.3-12.6,8.9c7.9,0.9,15.1-6.1,21-10.8c1.5,1.9,3.3,0,5.6-0.3c-6.9,6.3-14.1,12.7-23.3,15.6c0.2,1.2,1,0.9,1.5,0.9   c10-1.1,20,2.4,29.7,0.1c3.5,2.6,9.1,3.9,13.5,1.4c-3.7-1.4-6.9,0.8-9.8-1.6c7.5-2.3,15.9-1.1,24.2-2.1c5.6-4.9,15.7-1.3,21.8-5.4   c2.9,0,5.7,0,8.6,0c-2.9,2.2-3,5.7-6.8,7.3c29.2,12.3,61.6,0.1,91.6-2c-0.2-1.2,0.4-1.6,1.6-1.5   C491.5,577.1,491.5,577.5,491.5,577.8z M283.7,571.2c0.9-0.5,1.7-1,3.5-2c-6.4,0.7-9.9,4-16.2,4.1c-0.4,0-0.9,0.6-1.9,1.4   C274.5,576.4,279.6,574.6,283.7,571.2z M375.7,579.4c-3.5,1.2-7.5,0.5-9.5,2.8c1.8,1.1,3.9-0.4,5.9-0.2c1.9-0.3,4.2,1.2,5.8,0.2   C377.1,581.3,376.5,580.4,375.7,579.4z M384.9,582.9c2.5,2.4,4.7,1.9,7.2,1.2C390,582.8,388,582.2,384.9,582.9z M296.3,561.5   c-3.4,0.1-3.4,0.1-4.8,1.8C293.2,563.8,294.4,562.9,296.3,561.5z M289.2,565c-0.1-0.2-0.3-0.4-0.4-0.6c-1,0-2.6,0.3-1.6,1.9   C287.9,565.9,288.5,565.4,289.2,565z" />
	<path display="inline" fill="#EECABA" d="M208.4,281.5c-0.5,0.6-1,1.1-1.7,1.9c12.9,24.5,43,32.3,66.9,42.3   c-2.5,5.3-5,10.6-7.6,16.2c-14.8-3.9-25.3-14.3-37.8-22.2c-25-16.3-36.3-28.3-23.4-58.2c0.3,0.3,0.6,0.6,0.9,0.9   c0.4,8.4,3.9-4.9,2.4-7c6.5-55.1,32.4-105.7,40-160.4c2.2-0.4,4.3-0.6,6.3-0.3c-0.6,1.6-2.4,0.4-3.4,1.4c3.4,5.5-2.6,21.7-3.5,28.6   c-7.4,33-11.2,66.7-26.1,97.6c-4.5,10.4-3.7,21.8-5.2,32.5c-0.7,9.8,3.4,20.7-2.4,29.4c-1.3-1.8-2.5-3.4-3.7-5.1   C209.6,280,209,280.7,208.4,281.5c-0.5-4.5,1.3-8.8-1.7-12.8c-0.2,4.8-0.5,8.7,0,12.7C207.5,281.4,208,281.4,208.4,281.5z    M210,298.6c0.7,5,6.4,7.3,10.8,8.3C217.3,304.3,213.8,301.6,210,298.6z M234.8,315.6c-1.2-1.7-2.9-2.5-5.2-3.1   C230.6,314.3,230.6,314.3,234.8,315.6z" />
	<path display="inline" fill="#FBDFD3" d="M578.4,505c0.4,0.3,0.8,0.6,1.2,0.9c0,0.7,0,1.3,0,2c-3-0.8-4.7-1.4-8.1-1.3   c7.2,6,17.5,7.1,26.3,9.8c-0.6,1.4-2,0.5-2.9,1c-11.5-1.4-23.6-1.1-33.5-7.7c0-0.7-0.1-1.5-0.1-2.2c-2.1-1.3-10.1-6.1-11-1.8   c1.2,0.4,2.2,0.7,3.3,1c-5.2,9.6,15.2,2.8,17.1,15.2c-0.5,1.6-2.2,2.1-3.5,2.9c-11.9-5.6-22.2-14.8-31.3-23.8   c-7.7-6.5-10.7-13.2-21.9-7.5c-10.4-4-45.7-8.3-53.2-0.2c4.4,3.7,10.4,2.8,15.8,3.2c-6.6,4.2-15.2,4.2-22.9,5.4   c-11.3,1.2-23.5,7.2-34.2,5.9c8.5-9.5,17.1-18.7,23.5-29.7c29.2,2.8,58.8,6.8,87.5,5.7C547.1,489.3,561.3,500.4,578.4,505z" />
	<path display="inline" fill="#4B65C5" d="M432,421.6c6.5-21.8,24.6-9.8,42.2-49c7.9,45.2-21.4,75.6-67.2,66.3   c4.9-6.5,12.8-12,20.5-14.3c-2.9,2.7-6.8,5-7.7,9.1c0.5,0.4,0.9,0.7,1.2,1c6.1-10.4,20.9-15.1,27.4-24.7   C442.7,413.1,438.4,418.8,432,421.6z M463.3,410.3c-1.4,2.8-6,10.1-4.9,14.9C460.9,421,463.4,415,463.3,410.3z" />
	<path display="inline" fill="#EECABA" d="M419.4,507.7c10.8,1.2,23-4.7,34.2-5.9c7.7-1.2,16.3-1.2,22.9-5.4   c-5.4-0.4-11.4,0.5-15.8-3.2c7.5-8.1,42.7-3.8,53.2,0.2c11.3-5.6,14.2,1,21.9,7.5c5.5,7.4,15,11.3,20.8,18.4   c-9-3.6-18.6-5.3-25.2-12.9c2.4-11.4-17.1-11.4-24.5-13.3c-1.1-1.3-2.6-0.6-3.9-0.7c-0.3-0.6-0.6-1.3-1.4-0.2   c3.3,0.6,5.8,3.3,9.1,4.2c0,0.3,0,0.5,0,0.8c-35,2.1-67.1,20.1-102.4,21.1C409.7,515.9,412.6,513,419.4,507.7z M497.9,494.2   c-2.6,0.2-4.1,0.3-5.7,0.4C493.8,495.7,495.3,497.1,497.9,494.2z M477.7,494.9c-1.4-1.7-1.4-1.7-3.6-0.9   C475.3,494.9,476.1,496,477.7,494.9z M484.2,496.6c2,0.2,2,0.2,3-1.1C485.8,495,484.8,495.3,484.2,496.6z" />
	<path display="inline" fill="#FADED2" d="M225.1,481.8c7,3.8,14.3,2.1,21.6,4.1c3.7,0.8,4.5-5.1,6.2-7.8c2.8-0.8,5.8-1.7,8.9-2.7   c0.4,1.7,0.7,2.9,0.4,4.5c-14.9,15.5-40.5,28.1-36.6,52.6c-6-2.9-11.8-6.8-18.2-2.5c-1.7-0.1-2.9-1-4.4-1.8c-0.9-3.4-1.7-6.9-5-8.9   l0,0c9.7,2.3,23.1-3.1,22.2-14.6c0.7-2.1,5.4-4.7,2.9-6.4c-0.3-0.5-1-1.1-0.8-1.4c1.8-5.2-1.2-10.6-1.2-15.9c0.3,0,0.7,0,1,0.1   C222.8,482.4,224,481.9,225.1,481.8z M225.9,496.6c1.8,0.7,1.8,0.7,3.1-0.9C226.8,495.3,226.8,495.3,225.9,496.6z" />
	<path display="inline" fill="#4B65C5" d="M400.4,412.9c1.3,5.4,1.2,10.7,0.7,16.2c-2.3-1.1-4.9-0.4-6.8-2.6c-0.5,0.6-1,1.1-1.5,1.7   c-0.1-0.8-0.2-1.7-0.4-2.8c-2.5,3.2-2.5,3.2-2,5.4c0.8-0.6,1.5-1.2,2.2-1.7c2.6,3.7,8.5,2.1,12,4.1c1.3,2.1-0.7,3.9,0.6,5.5   c-8.7-4.1-18.3-5.7-26.8-9.7c0.9-0.5,1.6-0.9,2.2-1.2c-4.1-4.2-9.7-6.4-12.8-11.9c0.4-0.4,0.8-0.8,1.1-1.1c6,2.6,12.6,5.5,18.6,7.4   c1.6-0.7,1.8-1.5,1.3-2.5c0.3-0.3,0.6-0.7,0.9-1.1c1.9,0.8,3,1.7,3.7,3.7c3.1-3.8-0.4-4.4-2.6-6.4c3.1-2-4.5-15.6,6.3-18.3   c0.4,1.9,0.5,3,0.4,5c0.8,1,1.7,2.1,2.8,3.4c0.1,1.1,0.1,2.3,0.2,3.6c-0.7,0.9-1.4,1.9-2.3,3.1   C399.2,412.7,399.8,412.8,400.4,412.9z" />
	<path display="inline" fill="#CECEDC" d="M193.2,11.4c3.8,16.2,35.3,11.3,42.2,39.1c0.5,1.6,2.3,1.7,2.9,2.9   c-4.8,0.5-6.7,4.9-9.4,8.5c-0.6-2.5-1.1-4.4-1.6-6.5c1.9-2.7,3.6-5.3,2.1-8.7c-2.4-0.4-2.9,1.8-4.2,2.7c-1.4-1-1.6-2.6-2.6-4.1   c0.7-2.2,0.5-4.5-0.9-6.9c-0.6,0.9-1.2,1.7-1.8,2.5c-0.5-0.1-0.9-0.1-1.4-0.2c-10.3-11.3-24.2-8.4-27.4-27.5   c0.5-0.7,0.9-1.3,1.3-1.9C192.6,11.3,192.9,11.3,193.2,11.4z" />
	<path display="inline" fill="#EDC9B9" d="M309.2,520.2c-1.3-0.6-2.5-1.1-3.8-1.7c5.1,0.7,3.2-2.8,1.1-5.3c4.4-3.1,5.5-9,7.6-13.6   c12.9,3.1,15.5,17.7,6.9,26.1c-0.7,0.1-1.4,0.1-2.2,0.2C315.6,524.2,313,520.3,309.2,520.2z" />
	<path display="inline" fill="#5876E7" d="M366.7,407.1c6.1-9.1-5.4-13.7-5.7-22.6c0.7-0.2,1.3-0.3,1.9-0.4c6.8,3.7,12,9.7,20,10.9   c0.7,1.7,1.3,3.2,1.8,4.6c-2.7,4.2-6.9,8.4-3.4,13.2c-0.4,0.4-0.8,0.7-1.1,1.1C375.7,411.6,371.2,409.3,366.7,407.1z" />
	<path display="inline" fill="#E2E3EA" d="M188.4,15.2c4.1,19.7,15.4,17.4,28.6,26.8c1.2,6.1,10.5,13.9,4.8,19.2   c-2.5-2.5-3-6.2-4.3-9.3c-0.7,1.1-2.1,0.7-3.2,1c-0.4-1.7,0.6-4.2-1.4-5h0.1c-8.2-5.1-15.7-13.1-24.5-18   C186.1,25.3,181.4,18.3,188.4,15.2L188.4,15.2z" />
	<path display="inline" fill="#F6DBCF" d="M223.8,168.3c5.5-21.1,10.3-41.8,13.2-63.4c1.8-1.1,3.7-2.3,5.7-3.5   c-4.1,23.7-8.4,48.8-18.1,70.8C223.8,171,223.7,169.7,223.8,168.3z" />
	<path display="inline" fill="#ECC8B8" d="M197.9,519.3c3.3,2,4.1,5.5,5,8.9c0.9,0.5,1.8,1.1,2.7,1.6c-2.3,0.8-4.9-1.5-6.5,0.6   c2,2.3,5.5,1.7,8.1,1.1c0-0.5,0.1-0.9,0.1-1.4c6.3-4.3,12.1-0.4,18.2,2.5c0.1-1,0.3-1.9,0.4-2.8c1.4,2.1,1,4.7,0.9,7   c-6.5-0.3-11.9-0.4-17.6,3.6c-4.2-1.8-15.8,0.3-13.8-7.7c1.8-4.2,5.7-13.8-2.3-12.4c0.2-1-0.5-2.4,1.1-2.8   C194.6,520,196,519.1,197.9,519.3z M210.1,530.2c0.1,1,1.6,1.8,2.2,0.4C211.5,530.2,210.8,529.5,210.1,530.2z" />
	<path display="inline" fill="#FCFDFD" d="M279.9,84.1c0.6,1.8,1.3,3.5,2.1,5.8c-12.1-3.8-23.7-2.1-35.6,1.1   c-0.2-1.3-0.5-2.4-0.7-3.6c5.7-6.2,14.4-8.2,22.3-9.9C273.4,76.2,275.7,82.4,279.9,84.1z" />
	<path display="inline" fill="#B7BDD5" d="M304.4,491.6c3.9-10,7.7-20.9,13.3-29.9c7.1,9.6-0.7,22.9-3.7,32.8   C310.9,493,307.4,493.8,304.4,491.6z M314.6,483.7c-2.3,0.8-3,2.5-3.4,4.9C314.1,489,315.6,486.4,314.6,483.7z M316.6,467.4   c-2.1,3.1-2.1,3.1-0.7,5.8C317.5,471.6,317,469.9,316.6,467.4z M315.6,477.4c-1.9,1.2-1.9,2.5-1.1,4.4   C316.2,480.6,316.2,479.2,315.6,477.4z" />
	<path display="inline" fill="#0F0B0C" d="M236.1,503.8c9.1-11,23.1-18.1,30.9-29.6v0.1c0.3-0.3,0.7-0.7,1-1l-0.1,0.1   c0.2-0.2,0.5-0.4,0.7-0.7c-0.7-0.3-1.3-0.9-1.8-1.4c10.7-10.2,22.1-20,35.7-25.9c2.1,0.3,4.6-0.9,6,1.7c-0.5,0.4-0.9,0.8-1.4,1.2   c-14.7,1.1-24.7,12.7-35.8,21.3c-1.3,16.1-23.6,21.6-32.1,33.4l0.1-0.1c-0.3,0.2-0.5,0.3-0.8,0.5c0.2,0.2,0.5,0.3,0.7,0.5   C238.7,505.5,237,504.3,236.1,503.8z" />
	<path display="inline" fill="#CDCCD9" d="M185.4,17.8c-2.6,4.3,1.7,8.3,3.2,12.1c9,4.9,16.4,12.9,24.5,18c-1.8-0.1-1.7,1.6-2.4,2.8   c-7.5-8-17.5-13.7-28.1-17.1c-2.6-3.2-2.5-7.2-2.6-11.2C181.5,20.4,183.1,18.8,185.4,17.8z" />
	<path display="inline" fill="#CBCCD9" d="M235.5,90.8c-2.2,2-4.2,4-6.3,5.9c-2.8-3.8-6.5-13-7-17c2.4-0.9,2.4-0.9,5.8-5.7   C230.5,79.6,233,85.1,235.5,90.8z" />
	<path display="inline" fill="#ECC8B8" d="M293.7,505.9c0.4-0.5,1.1-1,1-1.4c-0.2-4.2,2.3-6.7,5.4-8.7c-0.2-0.5-0.3-0.9-0.5-1.4   c3.1,1.1,6.2,2.1,9.3,3.2c-2,4.5-3.8,8.6-5.8,13.1c-2.9-1.5-5.9-3.2-9.2-4.1C293.9,506.4,293.8,506.2,293.7,505.9z" />
	<path display="inline" fill="#CDCDDA" d="M241.1,66c0.1,2.6-0.2,5.2,0.8,7.8c1,2.9-1.4,8.3,2.8,9.4c-2,2.3-4.2,4.3-7.1,6   c-1.8-4.5-3.5-8.7-5.1-12.8C235.5,72.7,238.3,69.4,241.1,66z" />
	<path display="inline" fill="#07070D" d="M381.3,412.8c-3.5-4.8,0.7-9,3.4-13.2c-0.5-1.3-1.2-2.9-1.8-4.6   c-4.8-0.9-8.9-2.9-12.4-6.1c0.4-0.4,0.8-0.8,1.2-1.1c4.2,1.9,8,4.3,12.5,5.5c9.3,10.9-11.3,14.7,6.5,22.5l0,0   c2.2,2,5.7,2.6,2.6,6.4c-0.7-2-1.9-2.8-3.7-3.7c-0.4,0.4-0.7,0.8-0.9,1.1c-1.2-0.9-2.5-1.8-3.7-2.8   C386.2,415,382.4,414.1,381.3,412.8z" />
	<path display="inline" fill="#171211" d="M193.2,520.3c13.9-0.1-7.6,17.7,8.6,19.2c-2.6,0.3-5.2-0.1-7.7-0.9   c-0.1-0.7,0.1-1.6-1.3-1.8c-1.2,0.7-3.3,3.5-1.6,4.6c-2.1,1.9-4.3,3.9-6.6,5.9c-1.8-1.3-3-3-4.9-3.9c8.4,1.3,9.3-6.8,13.3-12   c1.7-2.1,2.2-4.9,2.2-7.6C195.1,522.2,192.6,522.1,193.2,520.3z" />
	<path display="inline" fill="#130E0D" d="M619.9,591.1c-11.1-3.2-25.1-0.4-35.7-6.6c12.6,1,25.3,1.2,37.7,3.8   C621.9,589.8,621.4,590.8,619.9,591.1z" />
	<path display="inline" fill="#C0C1CD" d="M221.9,61.2c0.4-1.2,2.4-1.5,2.1-3.2c1,3.3,1.9,6.6,2.8,9.5c-1.9,3.5-3.6,6.5-5.5,9.8   c-0.7-1.7-1.3-3.3-2-5c3.4-2.8,4.2-6.6,4.5-11C223.1,61.2,222.5,61.2,221.9,61.2z" />
	<path display="inline" fill="#303231" d="M128.7,482.8c-0.2,1-0.5,1.9-0.7,2.9c-4.6-6.3-7.3-14.1-14.2-18   c7.9-0.5,11.5,8.7,13.7,14.8C127.8,482.6,128.2,482.7,128.7,482.8z" />
	<path display="inline" fill="#EDEFEF" d="M242.2,89.5c2.2,3.4,2.2,3.4,1.8,9.7c-1.9-0.8-3.4-0.9-5.5-0.8c-0.2-1.6-0.3-3-0.5-4.6   C239.3,92.6,240.6,91.2,242.2,89.5z" />
	<path display="inline" fill="#282929" d="M112.6,495.4c-2.3-0.8-1.8-3.1-2.7-4.9c0.9-0.8,1.8-1.6,2.9-2.5c-0.6-0.7-1.1-1.2-1.6-1.8   c3.8-1.9,3.9-1.9,5.3,1.5c-1.2,1.1-2.5,2.2-3.9,3.5C112.6,492.5,112.6,493.9,112.6,495.4L112.6,495.4z" />
	<path display="inline" fill="#C4C3CF" d="M219.1,56.3c1.4,1.4,1.1,3.7,2.9,4.8c-1.4,1.7-2.9,3.4-4.5,5.2c-1.1-1.6-1.3-3.4-1.4-4.9   C217.2,59.6,218.2,58,219.1,56.3z" />
	<path display="inline" fill="#D0BAB0" d="M178.5,542.5c-2.5-1-5-2-7.4-3c0-0.7-0.1-1.4-0.1-2.1l0,0c3.6,1.8,8.3,0.9,11.7,4   C181.5,542.6,180,542.5,178.5,542.5z" />
	<path display="inline" fill="#ABABB6" d="M237.1,59c0.4,0.4,0.8,0.9,1.3,1.3c-2.7,3.3-4.4,8.5-7.6,10.8c-0.2-1-0.4-2-0.7-3.2   C233.5,65.7,234.9,62.1,237.1,59z" />
	<path display="inline" fill="#B09B92" d="M178.5,542.5c3.8-0.1,7.8-1.6,8.8-5.7c-0.7,0-1.1,0-1.5,0c1.5-2.5,2.2-0.5,3.6,0.7   c-0.8,4.8-5.3,6.1-9.5,5.9C179.3,543.1,178.9,542.8,178.5,542.5z" />
	<path display="inline" fill="#373C43" d="M377.2,432.2c-4.6-2.3-8.5-5.4-11.4-9.7c1.3,0.2,2.8-0.7,3.8,0.9   c-1.3,1.5,2.9,4.7,4.8,4.9v-0.1C375.7,429.5,377.7,430,377.2,432.2z" />
	<path display="inline" fill="#251E1C" d="M309.2,520.2c3.8,0.1,6.4,4.1,9.7,5.7c0,0.3,0,0.6,0,1   C315.4,526.1,309.2,524.4,309.2,520.2z" />
	<path display="inline" fill="#BC978B" d="M512.3,494.6c1.8,0,3.5,0,5.3,0c0,0.5-0.1,0.9-0.1,1.6c1.3,0.8,2.6,1.6,4.7,2.9   c-4.4-0.5-7.5-0.8-11.6-1.8c0-0.4,0-0.8,0.1-1.2c1.7,0.1,3.6,1.8,5.3-0.5c-1.2-0.1-2.3-0.2-3.4-0.2   C512.5,495.1,512.4,494.8,512.3,494.6z" />
	<path display="inline" fill="#111010" d="M130,490.4c0.4,0.2,0.8,0.4,1.3,0.6c0.3-0.7,0.5-1.3,0.9-2.4c0.6,0.8,1,1.4,1.4,2   c-1.9,2-0.8,4.6-1,7.1c-1.9,0.9-1.7-1.3-2.8-1.4l0,0C129.9,494.3,130,492.3,130,490.4z" />
	<path display="inline" fill="#1A1917" d="M594.1,573.8c-1.1,0.1-2.2,0.1-3.3,0.2c-0.4,0.6-0.9,1.2-1.3,1.8c-3,0.5-5.8-0.8-8.7-1   c-0.1-0.3-0.1-0.6,0-0.8C585.1,574.4,590.1,571.5,594.1,573.8z" />
	<path display="inline" fill="#B0ADA3" d="M628.6,584.4c-5.6-2.3-13,0.8-18.3-1.7c6.7-0.3,13.3-0.2,20,0   C630.4,583.9,629.6,584.2,628.6,584.4z" />
	<path display="inline" fill="#110707" d="M265.2,270.9c-1.3-0.9-2.8-1.6-3.8-2.8c0-1.3,0-2.6-0.1-4c1.1-1.8,2.8,0.5,2.8,1.7   c-0.1,1.7,1.4,2.2,2.2,3.2C265.2,269.4,265.2,270.1,265.2,270.9z" />
	<path display="inline" fill="#2B2B2B" d="M128.9,495.4c0,0.3,0,0.6,0.1,0.9c0.3,0.3,0.6,0.7,0.9,1c-0.1,0.6-0.3,1.1-0.5,2.1   c-2.4-1.2-4.3-5.8-3.9-9c1.2,0.8,1.7,1.2,2.5,2.1C128,493.6,127.6,494.9,128.9,495.4z" />
	<path display="inline" fill="#343636" d="M136.3,540.5c-0.2,1.8-0.3,3.1-0.5,4.7c-1.2-0.1-2.5-0.2-4.6-0.3   C133.1,543.1,133,540.4,136.3,540.5z" />
	<path display="inline" fill="#2F3131" d="M148.1,511.5c-4,0.4-5.7-3-8.1-6.4C143.7,506.7,146,508.6,148.1,511.5z" />
	<path display="inline" fill="#181818" d="M153.1,531.1c0.6-1.7,0.8-3,0-4.8c1.7-0.3,2.1-0.4,3.7,0.3c-0.6,1.1-1.2,2.2-1.8,3.3   c0.2,0.7,0.4,1.4,0.7,2.2C154.3,533.2,153.8,532.1,153.1,531.1z" />
	<path display="inline" fill="#2D2E2E" d="M131.6,513.3c0.8,0.6,1.3,1,1.8,1.4c-0.7,1.8-1.4,3.5-2.3,5.4c-0.7-0.4-1.5-0.9-2.2-1.3   C129.8,517,130.6,515.4,131.6,513.3z" />
	<path display="inline" fill="#272727" d="M170.2,537.5c-1.7-1.6-0.2,3.5-3.5,1.5c-1.4-3,2.3-3.1,3-4.9c0.5,0.1,0.9,0.3,1.3,0.4   c0,0.9,0,1.9,0,2.8l0,0C170.7,537.4,170.5,537.5,170.2,537.5z" />
	<path display="inline" fill="#AEA9B4" d="M213.2,47.9c2,0.8,1,3.2,1.4,5c0.9-0.1,1.7-0.2,2.6-0.4c-1.1,1.3-2.2,2.5-3.5,4   c-0.6-0.9-0.9-1.6-1.5-2.5C213.7,52.1,214,50.1,213.2,47.9z" />
	<path display="inline" fill="#282929" d="M156,542.2c1.2,0.2,1.8,0.3,2.5,0.5c-0.1,2.7-2.2,4.1-3.2,6.1   C152.2,548.5,156.9,544.8,156,542.2z" />
	<path display="inline" fill="#313232" d="M135.3,529.9c0.9,1,1.6,1.8,2.5,2.8c-0.6,0.7-1.1,1.3-1.7,1.9c-1.1-0.5-2-0.9-3-1.3   C132.7,531.6,134,531.1,135.3,529.9z" />
	<path display="inline" fill="#242424" d="M131.1,504c0.6,0.5,0.9,0.7,1.1,0.9c0.2,0.2,0.2,0.5,0,0.1   C127.5,510.3,126.1,509.1,131.1,504z" />
	<path display="inline" fill="#423737" d="M135.8,495.2c1.6,1.6,3.2,3.3,4.8,4.9C135.7,500,135.7,499.9,135.8,495.2z" />
	<path display="inline" fill="#2B2D2D" d="M137.6,506.8c-1.8-1.4-4.1-2.1-5.7-4.6c3.2-0.7,4.3,2.2,6.4,3.8   C138.1,506.3,137.8,506.6,137.6,506.8z" />
	<path display="inline" fill="#2E2F2F" d="M158.9,554.9c2.1,0,3.5-0.3,4.6,1.9C160.1,558,159.9,557.9,158.9,554.9z" />
	<path display="inline" fill="#8B97A8" d="M374.5,428.2c-1.9-0.2-6.1-3.4-4.8-4.9C371.8,424.4,373.7,425.8,374.5,428.2z" />
	<path display="inline" fill="#1C1D1D" d="M122.3,548c-0.4,0.2-0.8,0.4-1.4,0.6c-1.9-1-2.8-2.5-2.1-5.1   C120.6,544.6,121.1,546.6,122.3,548L122.3,548z" />
	<path display="inline" fill="#232727" d="M135.9,553c1.4,0,2.6,0,4.1,0c0.1,0.7,0.3,1.3,0.6,2.8C138.8,554.5,136.8,555.3,135.9,553   z" />
	<path display="inline" fill="#373635" d="M191.2,541.3c-1.7-1.1,0.4-3.8,1.6-4.6c1.4,0.1,1.2,1,1.3,1.8   C193.2,539.4,192.2,540.4,191.2,541.3z" />
	<path display="inline" fill="#554844" d="M279.4,264.5c1.4,0.5,3,0.7,3.7,2.6c-2.3,0.4-3.9-0.8-5.5-1.7   C278.1,265,278.7,264.7,279.4,264.5z" />
	<path display="inline" fill="#2B3E7A" d="M381.3,412.8c1.1,1.3,4.8,2.2,3.6,4c-1.6-1-3.2-2-4.8-3   C380.6,413.5,381,413.1,381.3,412.8z" />
	<path display="inline" fill="#584642" d="M293.7,505.9c0.1,0.3,0.2,0.5,0.3,0.8c-1,0.5-2.4-0.5-3,1c-1.3,0.1-2.4-0.3-3.2-1.2   C288.7,504.4,291.9,506.2,293.7,505.9z" />
	<path display="inline" fill="#1E1F1F" d="M150.2,520.2c0.8,0.8,1.6,1.6,2.8,2.7c-1.5,0-2.4,0-3.6,0c0-0.8-0.1-1.6-0.1-2.4   C149.6,520.4,149.9,520.3,150.2,520.2z" />
	<path display="inline" fill="#232222" d="M140.7,557.3c1.5,0.8,2.5,1.3,3.6,2C142.7,561.3,140.9,560.7,140.7,557.3z" />
	<path display="inline" fill="#222323" d="M159,524.3c1.8-0.3,3.2-0.6,4.2,1.5C161.4,526.1,160,526.4,159,524.3z" />
	<path display="inline" fill="#292828" d="M179.9,551.2c2.3-0.2,2.3-0.2,3.4,0.8C182.6,553.1,180.2,553.4,179.9,551.2z" />
	<path display="inline" fill="#C2A99F" d="M173,528.7c0.5,1-0.5,2.5,1.1,3c-0.4,0.9-0.8,1.9-1.2,2.8   C172,532.8,171.3,530.4,173,528.7z" />
	<path display="inline" fill="#4E4E5B" d="M362.4,412.8c1.1,1.1,2.2,2.1,3.7,3.6c-2.8-0.8-2.8-0.8-5-3.7   C361.6,412.8,362,412.8,362.4,412.8z" />
	<path display="inline" fill="#6E7380" d="M239.2,503c0.9-1.7,2.2-3,3.9-3.8c0.3,0.3,0.7,0.7,1,1C242.6,501.4,241.3,502.9,239.2,503   z" />
	<path display="inline" fill="#2B2E2E" d="M167.2,556.6c1.7,0.2,2.7,0.3,3.8,0.5C169.6,559.1,168.7,559,167.2,556.6z" />
	<path display="inline" fill="#2A2B2B" d="M162.1,547.2c2.9-2.5,3-2.5,4.1-0.5C165.1,546.8,164.1,546.9,162.1,547.2z" />
	<path display="inline" fill="#C0A294" d="M226.7,536.7c0.1-0.8,0.1-1.6,0.2-2.4c1,1.4,2.4,2.7,2.7,4.7   C227.7,538.9,227.3,537.7,226.7,536.7z" />
	<path display="inline" fill="#CEB0A6" d="M223.8,168.3c0,1.4,0,2.7,0.8,3.8c-0.3,0.6-0.6,1.3-0.9,1.9c-0.3-0.7-0.6-1.3-1-2   C223.1,170.8,223.4,169.6,223.8,168.3z" />
	<path display="inline" fill="#2E2F2F" d="M110.7,505.5c1.3,0.8,2,1.2,2.9,1.7c-0.7,0.6-1.1,1.1-1.5,1.4   C110.1,508.3,111,507.1,110.7,505.5z" />
	<path display="inline" fill="#2C2D2D" d="M109,481.1c-0.8-0.8-1.5-1.4-2.3-2.2C109.1,478.2,109.6,478.6,109,481.1z" />
	<path display="inline" fill="#25282D" d="M442.3,440.1c1.1-0.4,2.3-0.8,3.4-1.1c1.5,2.4-2.1,1.7-3.3,1.7   C442.3,440.5,442.3,440.3,442.3,440.1z" />
	<path display="inline" fill="#A48B84" d="M622.8,579.8c0.3-0.3,0.7-0.6,1-0.9c1.1,0.3,2.3,0.7,4.2,1.3   C625.5,580.8,624.1,581,622.8,579.8z" />
	<path display="inline" fill="#2C407E" d="M368.8,414.7c-0.4,0.4-0.8,0.8-1.1,1.1c-0.9-0.8-1.7-1.5-3.3-2.9   C366.7,413.1,367.8,413.6,368.8,414.7z" />
	<path display="inline" fill="#7F8797" d="M362.4,412.8c-0.4,0-0.9,0-1.3,0c-0.7-1.1-2.1-1.8-1.8-3.5   C361.6,409.6,361.7,411.4,362.4,412.8z" />
	<path display="inline" fill="#2B2E2E" d="M153.5,512.9c0.7,0.5,1.5,1.1,2.6,1.9C154,515.7,153.5,514.6,153.5,512.9z" />
	<path display="inline" fill="#887B74" d="M172,532.6c0.3,0.7,0.6,1.3,0.9,2c-0.3,1-0.5,2-0.8,3c-0.4-0.1-0.7-0.1-1.1-0.2   C170.9,535.6,171,534.1,172,532.6z" />
	<path display="inline" fill="#636B76" d="M389.7,443.5c0.2,1,0,1.8-1.3,1.9c-0.9-1.3-0.6-2.6,0.4-3.7   C389,442.2,389.3,442.8,389.7,443.5z" />
	<path display="inline" fill="#474B53" d="M344.6,427.5c0.6-0.8,1.3-1.5,1.9-2.3c0.4,0.4,0.8,0.7,1.1,1.1c-0.7,2-0.8,2-2.9,1.9   C344.6,428.1,344.5,427.8,344.6,427.5z" />
	<path display="inline" fill="#423835" d="M222.8,176.1c-0.5,1.2-0.9,2.3-1.5,3.6c-0.5-1.4-0.9-2.6,0.4-3.6   C222.1,176.1,222.5,176.1,222.8,176.1z" />
	<path display="inline" fill="#282929" d="M112.6,495.4c1,0.5,2.7,1.6,1.1,2.7C112.1,497.6,112.8,496.4,112.6,495.4L112.6,495.4z" />
	<path display="inline" fill="#ABABB6" d="M237.2,53.5c0.3,0,0.7,0,1-0.1c0,1.7,0.3,3.5-1,4.8C237.3,56.7,237.3,55.1,237.2,53.5z" />
	<path display="inline" fill="#87746E" d="M222.8,176.1c-0.4,0-0.7,0-1.1,0c0.2-1.4-0.2-2.9,1-4c0.3,0.7,0.6,1.3,1,2   C223.4,174.7,223.1,175.4,222.8,176.1z" />
	<path display="inline" fill="#3F53A3" d="M451.8,439.8c-0.5-2.1-0.3-2.3,2.2-1.5C453.2,438.9,452.6,439.3,451.8,439.8z" />
	<path display="inline" fill="#323636" d="M129.6,550.8c1.5,0.9,1,2.2-0.5,1.3C129.2,551.8,129.3,551.4,129.6,550.8z" />
	<path display="inline" fill="#1C1D1D" d="M122.3,548c1.6-0.1,2.3,1.1,0.5,1.9C122.5,549.1,122.4,548.6,122.3,548L122.3,548z" />
	<path display="inline" fill="#111010" d="M128.9,487.8c0.4,0.9,0.8,1.8,1.2,2.6C128.3,490.2,129,488.8,128.9,487.8z" />
	<path display="inline" fill="#0B0A0B" d="M188.4,15.2c-0.6,0.4-1.3,0.7-1.9,1.1C186.7,15.1,187.5,15.1,188.4,15.2z" />
	<path display="inline" fill="#111010" d="M128.9,495.4c-0.9-0.3-1-1.1-0.9-1.9C128.9,493.8,128.9,494.6,128.9,495.4z" />
	<path display="inline" fill="#887B74" d="M170.2,537.5c0.3-0.1,0.5-0.1,0.8-0.1c0,0.7,0.1,1.4,0.1,2.1   C170.1,539.2,170.2,538.3,170.2,537.5z" />
	<path display="inline" fill="#ABABB6" d="M238.4,60.3c0-0.7,0.4-1,1.1-0.9C239.1,59.7,238.8,60,238.4,60.3z" />
	<polygon display="inline" fill="#1E1F1F" points="150.3,518.8 150.6,518.7 150.6,518.9  " />
	<polygon display="inline" fill="#FADED2" points="229.1,516.6 229.2,516.9 229,516.9  " />
	<path display="inline" fill="#6E7380" d="M239.2,503.9c-0.2-0.2-0.5-0.3-0.7-0.5c0.3-0.2,0.5-0.3,0.8-0.5   C239.2,503.2,239.2,503.6,239.2,503.9z" />
	<path display="inline" fill="#AEA9B4" d="M217.2,52.4c0.2-0.2,0.4-0.4,0.6-0.6c0.1,0.3,0.2,0.5,0.3,0.8   C217.8,52.6,217.5,52.6,217.2,52.4z" />
	<path display="inline" fill="#6F8594" d="M375.5,429.2c-0.4-0.3-0.7-0.7-1.1-1C374.8,428.5,375.2,428.9,375.5,429.2z" />
	<path display="inline" fill="#111010" d="M129.8,497.2c-0.3-0.3-0.6-0.7-0.9-1c0.3,0,0.6,0,0.9,0l0,0   C129.8,496.6,129.8,496.9,129.8,497.2z" />
	<path display="inline" fill="#111010" d="M127.9,492.5c-0.3-0.3-0.6-0.7-0.9-1C127.3,491.8,127.6,492.2,127.9,492.5z" />
	<path display="inline" fill="#373C43" d="M378.3,433c-0.4-0.3-0.7-0.5-1.1-0.8C377.6,432.4,377.9,432.7,378.3,433z" />
	<path display="inline" fill="#111222" d="M371.8,387.9c-0.4,0.4-0.8,0.8-1.2,1.1c-5.9-4.2-10.4-4.7-13.3-12.7c0-0.2,0-0.4,0-0.6   c3.3,0.1,2.3,5.4,5.6,5.7l0,0C365.8,383.6,368.8,385.7,371.8,387.9z" />
	<path display="inline" fill="#212B50" d="M276,355.1c-1.4-3.2,0.6-6,0.8-9c3.1-0.3,0.4,5.4,0.8,7.3   C277.4,354.4,277.3,355.1,276,355.1z" />
	<path display="inline" fill="#372624" d="M301.6,297.9c-1-2.1-4.9-1.6-7-2.7c0.4-0.3,0.8-0.6,1.3-0.9c3.4,1.8,7.6-0.3,10.7,1.6   C304.8,296.6,303.5,297.9,301.6,297.9z" />
	<path display="inline" fill="#EDCABA" d="M221,481.1c0,5.3,3,10.7,1.2,15.9c-0.1,0.3,0.5,0.9,0.8,1.4c-2.4,2.3-6.5,1.4-7.7,4.9   v-0.1c-2,1.6-4,3.1-5.8,4.8l0,0c-0.3,0.3-0.7,0.6-1,0.9c-2.1-1.1,0.4-2.8,1.1-4.4c-2.6,0.5-5.4,0.6-4.9,3.7   c-1.7,2.5-2.4,6.1-5.8,6.6c4.6-7,3.8-15.7,7.7-23.2c5.2-9,0.2-18.6,2.9-27.8c0.9,1.6,1.9,3.2,2.8,4.8c-0.1,3.4,0.8,6.5,2.2,9.5   c-1.2,2.7-1.7,5.4-1,8.4c2.2-1.7,1.4-4.2,2.1-6.1C217.6,479.6,219.2,480.7,221,481.1z" />
	<path display="inline" fill="#665B54" d="M217.2,479.9c-0.5,0.1-0.9,0.2-1.5,0.4c-0.8,1.9,0,4.4-2.1,6.1c-0.8-3.1-0.2-5.8,1-8.4   c0.3,0,0.5,0,0.8,0C216,478.7,216.6,479.3,217.2,479.9z" />
	<path display="inline" fill="#665954" d="M267.1,474.2c-0.6,2.8-2.8,4.3-5,5.7c0.1-0.6,0.1-1.2,0.2-1.8   C263.9,476.7,265.5,475.4,267.1,474.2z" />
	<path display="inline" fill="#EDCABA" d="M225.1,481.8c-1.1,0.1-2.3,0.7-3.1-0.6C223.1,480.9,224.2,480.8,225.1,481.8z" />
	<path display="inline" fill="#60605B" d="M268.1,473.2c-0.3,0.3-0.7,0.7-1,1C267.4,473.9,267.7,473.6,268.1,473.2z" />
	<path display="inline" fill="#76726C" d="M268,472.3c0.2,0.1,0.4,0.2,0.7,0.3c-0.2,0.2-0.5,0.4-0.7,0.7   C268,473,268,472.6,268,472.3z" />
	<path display="inline" fill="#D5C9BE" d="M579.6,508c0-0.7,0-1.3,0-2c4.1,1.8,8.3,3.2,12.5,4.8C588,513.1,583.1,510.6,579.6,508z" />
	<path display="inline" fill="#C2B6AC" d="M590,511.8c0.7-0.3,1.5-0.7,2.2-1c4.4,1.6,11.6,0,14.4,3.7c-0.6,0.2-1.2,0.5-1.4,0.6   C599.7,513.9,595,513.2,590,511.8z" />
	<path display="inline" fill="#3A2725" d="M552.8,508.7c0.2-0.6,0.4-1.2,0.7-2c-1.1-0.3-2.1-0.6-3.3-1c1.3-4,4.9-0.6,7.3,0.1   c0.1,0.3,0.1,0.6,0,0.9c-0.8,0.1-1.7,0-2,1C554.7,508.1,553.8,508.4,552.8,508.7z" />
	<path display="inline" fill="#D3C6BB" d="M555.6,507.8c0.3-1.1,1.2-1,2-1c1.1,0.7,2.3,1.4,3.7,0.8c0,0.7,0.1,1.5,0.1,2.2   C559.3,509.4,557.3,509,555.6,507.8z" />
	<path display="inline" fill="#B7A89F" d="M595,517.5c0.9-0.5,2.3,0.4,2.9-1c1.1,0,2.1,0,3.5,0C599.1,518.8,598.7,518.9,595,517.5z" />
	<path display="inline" fill="#303231" d="M132,479.1c-1.2,0.4-2.3,0.9-3.2,1.8C127.3,478.2,130.5,479.2,132,479.1z" />
	<path display="inline" fill="#DDBFB0" d="M194.2,463.6c-0.8,0.1-1.5,0.2-2.3,0.3c0,2.4,0,4.6,0,7.1c-1.3,0.4-2.5,1.1-3.5-0.6   c0.9,0,1.7-0.1,2.5-0.1c0.4-2.6-2-3.3-2.8-5.3c0.5-0.7,1-1.6,1.5-2.3C191.5,462.4,193,462.2,194.2,463.6z" />
	<path display="inline" fill="#8D837A" d="M205.7,262.4c-0.3-0.3-0.6-0.6-0.9-0.9c0.4-0.8,0.8-1.7,1.6-3.3c0,2,0,3,0,4   C206.2,262.3,206,262.4,205.7,262.4z" />
	<path display="inline" fill="#5E534D" d="M205.7,262.4c0.3,0,0.5,0,0.8-0.1c0.3,0.3,0.7,0.7,1,1   C207.4,266.4,205.1,265.1,205.7,262.4z" />
	<path display="inline" fill="#4A64C4" d="M362.8,285.2c0.8,3.4-0.8,5-4.1,5.6c-2.1,6.4-2.9,13.1-7.2,18.5   C337.9,298.4,352.1,288.2,362.8,285.2z" />
	<path display="inline" fill="#111221" d="M315.8,324.8c3.7,8.4,2.7,21.7,12.9,25.1c11.7,3.6,18.8,14.5,29.6,19.8   c-0.4,0.4-0.8,0.8-1.2,1.2c-12.2-7.5-22.7-17-35.5-23.1c-4.3-7.9-5.6-16.8-8.6-25c-0.1-2.5-0.1-2.5-1.8-2.8   c-0.4-0.4-0.7-0.7-1.1-1.1c0.3-0.3,0.7-0.6,1-0.9c0.9,1.8,1.8,0.2,2.7,0C314.7,320.2,315.1,322.6,315.8,324.8z" />
	<path display="inline" fill="#4B65C6" d="M357.2,370.9c0.4-0.4,0.8-0.8,1.2-1.2c0.6,0.3,1.1,0.6,2,1c3-10.2,3.8-20.6,8.6-30.2   c0.8,2.7,0.8,2.7,0.4,3.9c-3.4,12.2-4.8,24.6-6.6,37c-3.3-0.2-2.3-5.6-5.6-5.7C358,374.1,358.7,372.5,357.2,370.9z" />
	<path display="inline" fill="#4964C3" d="M315.1,321.8c-0.4-1.3-0.8-2.6-1.2-3.8c7.8-5.8,15.9-12.2,25.9-12.7   C342.2,313,325.4,309.3,315.1,321.8z" />
	<path display="inline" fill="#08080F" d="M362.8,285.2c-10.8,3-24.8,13.2-11.4,24c-5.6,3.5-9-9.2-7.9-13.5   C348,290,355.2,282.1,362.8,285.2z" />
	<path display="inline" fill="#4C66C7" d="M379.3,391.7c-1.6-0.9-3.3-1.8-4.9-2.7c2.7-5.4,3.9-12.2,6.3-18.1c0.2-1.5,2.2-2.8,0.6-4   c0.4-1.2,2.3-1.3,1.9-2.9c0.8-0.5,1.6-1,2.7-1.7C384.2,372.1,378.4,381.3,379.3,391.7z" />
	<path display="inline" fill="#4B65C6" d="M321.6,347.9c1.7,1.2,3.4,2.4,5.1,3.5c-0.4,0.3-0.7,0.6-1.1,0.9   c1.1,5.6,8.7,12.4,4.1,17.5C323.9,366.9,324.1,353.9,321.6,347.9z" />
	<path display="inline" fill="#08070C" d="M339.8,305.4c-10.2,0.4-18.2,6.9-25.9,12.7c-0.9,0.2-1.8,1.8-2.7,0   C317,312.4,332.5,299.3,339.8,305.4z" />
	<path display="inline" fill="#4C66C8" d="M339.8,355.5c-0.9-0.7-1.9-1.3-2.8-2c1.2-7.9,1.1-16.6,4.7-23.7   c0.9,7.4-2.3,14.1-0.3,21.4C340.9,352.6,340.3,354.1,339.8,355.5z" />
	<path display="inline" fill="#191F3A" d="M449.2,383.2c-7.4,11-10.6,22.8-21.2,31.8c7.3-11.1,13-22,20.2-33   C448.6,382.4,448.9,382.8,449.2,383.2z" />
	<path display="inline" fill="#4A64C4" d="M311.2,320c1.7,0.3,1.7,0.3,1.8,2.8c-3,2.6-10.6,7-9.4-0.6c2.1-2.8,6.9-5.1,6.7-9.1   c1.4,1.4,0.8,3.2,0.9,4.9v0.1c-1.1,1.3-3.7,2.9-3.1,4.7C309.6,322.3,310.4,321.1,311.2,320z" />
	<path display="inline" fill="#4B65C5" d="M336,355.6c1.4,1.1,2.8,2.3,4.1,3.4c-3.7,3.5,1.6,9.2-3.2,12.7c-0.8-0.6-1.6-1.3-2.3-1.9   C334.7,364.9,336.3,360.4,336,355.6z" />
	<path display="inline" fill="#101120" d="M439.6,418.6c-6.4,5.2-14.8,8.9-18.6,16.2c-0.3-0.3-0.7-0.6-1.2-1   c2.9-8.1,12.2-11.6,18.9-16.1C439,417.9,439.3,418.3,439.6,418.6z" />
	<path display="inline" fill="#0C0D19" d="M400.4,412.9c-0.6-0.1-1.2-0.2-2.2-0.4c4.2-7.2,13.8-6.6,20.6-4   C412,409.9,405.8,407.5,400.4,412.9z" />
	<path display="inline" fill="#4B62BF" d="M330.5,304.7c-5.7,3.2-11.8,5.8-16.5,10.5c-1.5-0.4-1.9-1.5-1.8-3   c0.4,0.2,0.8,0.4,1.5,0.7C319,309.2,323.2,303.2,330.5,304.7z" />
	<path display="inline" fill="#0F101E" d="M449.2,383.2c-0.3-0.4-0.7-0.7-1-1.1c3.8-5.5,10.3-6.5,16.1-9.2   C463.8,379.9,452.5,377.3,449.2,383.2z" />
	<path display="inline" fill="#15182D" d="M377.8,369.8c-3.4,4-6.7,8.1-9.7,12.4c-3.6-2.1,6.1-10.2,8.1-12.5   C376.7,369.7,377.2,369.7,377.8,369.8z" />
	<path display="inline" fill="#1C223E" d="M312.3,312.2c-0.1,1.4,0.3,2.5,1.8,3c-1,0.9-1.9,1.9-2.9,2.8c-0.1-1.7,0.6-3.5-0.9-4.9   c0.2-2.5-3.6-8.6-0.4-9.3C310.7,306.6,311.5,309.3,312.3,312.2z" />
	<path display="inline" fill="#1B1F3D" d="M459.8,348.7c-3.8,2.5-7.5,5-11.7,6.7c-0.5-2.7,8.3-5.6,10.6-7.8   C459.1,348,459.5,348.4,459.8,348.7z" />
	<path display="inline" fill="#18192F" d="M369,298c-2-1.2-4-2.3-5.8-3.4c0.8-4.5,4.7,1.7,6.8,2.3C369.6,297.3,369.3,297.6,369,298z   " />
	<path display="inline" fill="#4457A1" d="M433,379.4c1.6-2.2,2.9-4.7,5.2-6.5c0.5,2.7-3.1,4.9-4.3,7.4   C433.6,380,433.3,379.7,433,379.4z" />
	<path display="inline" fill="#2D315B" d="M377.8,369.8c-0.5,0-1-0.1-1.5-0.1c2-2.3,3.9-4.6,6.9-5.7c0.4,1.6-1.5,1.8-1.9,2.9   C380,367.8,378.9,368.8,377.8,369.8z" />
	<path display="inline" fill="#191F3A" d="M392.6,429.1c-0.7,0.6-1.5,1.1-2.2,1.7c-0.4-2.2-0.4-2.2,2-5.4c0.2,1.1,0.3,2,0.4,2.8   C392.7,428.5,392.6,428.8,392.6,429.1z" />
	<path display="inline" fill="#20284B" d="M359.3,358.2c-1.1,1.8-1.5,4.1-3.7,5.7c-0.3-3.1,2-4.6,2.7-6.7   C358.5,357.6,358.9,357.9,359.3,358.2z" />
	<path display="inline" fill="#475BAD" d="M359.3,358.2c-0.4-0.3-0.7-0.7-1.1-1c0.8-1.5,1.6-3.1,2.3-4.5   C363.7,353,359.7,356.8,359.3,358.2z" />
	<path display="inline" fill="#3A4B93" d="M459.8,348.7c-0.3-0.4-0.7-0.7-1-1.1c1.7-0.8,3.5-1.6,5.2-2.4   C465,347.4,461,347.6,459.8,348.7z" />
	<path display="inline" fill="#2F396A" d="M433,379.4c0.3,0.3,0.6,0.6,0.9,0.9c-0.8,1.1-1.5,2.3-2.4,3.7   C430.3,381.6,432.5,380.8,433,379.4z" />
	<path display="inline" fill="#4964C3" d="M315.8,324.8c-0.2-0.7-0.5-1.4-0.7-2.1C316,323.2,315.9,324,315.8,324.8z" />
	<path display="inline" fill="#4B65C5" d="M390.7,415.8c-0.6-0.3-1.2-0.7-1.8-1C389.7,414.8,390.5,414.8,390.7,415.8z" />
	<path display="inline" fill="#4B65C6" d="M363.9,382.1c-0.4-0.3-0.7-0.5-1.1-0.8C363.1,381.6,363.5,381.9,363.9,382.1z" />
	<path display="inline" fill="#0E0909" d="M333.2,564.4c-5.9,4.7-13.1,11.7-21,10.8c0.3-3.6,6.3-3.9,8.8-6.2   c5.8-3.2,11.5-9.4,18.5-8.5C338.6,563.9,334.4,561.4,333.2,564.4z" />
	<path display="inline" fill="#100B0B" d="M405.2,573.1c-4.4-0.5-10.9,1.8-12.9-3.6c8.1,0.2,14.9-1.3,22.4-3.7   C413.7,568.8,410.5,571.3,405.2,573.1z" />
	<path display="inline" fill="#191513" d="M540.4,580.7c-7,1.7-13.2-0.3-19.2-3.8c0-0.3,0-0.5,0-0.8c0.3,0,0.6,0,0.9-0.1H522   c0.5,1.1,1,0.8,1.4,0c3.7,0.2,6.9,2.8,10.8,1.9c2.5,0.3,7.6-2.6,7.9,1.5C541.5,579.8,541,580.3,540.4,580.7z" />
	<path display="inline" fill="#685954" d="M266.1,533.9c-6.5-1.7-12.1-4.8-15.2-11.1c4.2,4.7,9.3,7.8,15.2,10   C266.1,533.2,266.1,533.6,266.1,533.9z" />
	<path display="inline" fill="#0B0807" d="M521.2,576.1c0,0.3,0,0.5,0,0.8c-2.7,1.3-5.3,1.1-7.6-1c1.8-0.3,3.6-0.6,5.4-0.9   C519.7,575.4,520.4,575.7,521.2,576.1z" />
	<path display="inline" fill="#73312F" d="M569.9,573.6c-1.7,0-3.2,0-4.7,0C567.6,571.4,568.5,571.4,569.9,573.6z" />
	<path display="inline" fill="#292725" d="M244.2,516.8c-0.5,1.5-1.4,1.9-2.9,1.2c-0.1-2,1.2-2.8,2.5-3.6c0.5,0,0.9,0.1,1.4,0.1   C245,515.3,244.6,516.1,244.2,516.8z" />
	<path display="inline" fill="#643634" d="M340,536.6c2.6,0.2,5.6-0.7,7.8,0.8c-1.3,0.4-2.9-0.6-4,0.9c-1.3-0.3-2.6-0.5-3.8-0.8   C339.9,537.2,339.9,536.9,340,536.6z" />
	<path display="inline" fill="#46302E" d="M355.5,559.9c1.9-1.6,2.7-1.5,4.7,0.2C358.4,560.6,357.1,561.2,355.5,559.9z" />
	<path display="inline" fill="#544743" d="M577.1,573.7c-2.3,1.4-2.3,1.4-3.9,0.1C574.8,572.9,574.8,572.9,577.1,573.7z" />
	<path display="inline" fill="#4A4642" d="M508.9,576.9c-2.1,1.4-4.5,0.7-6.8,0.7c1.3-0.6,2.5-1.3,3.8-1.9   C505.9,577.4,507.9,576.6,508.9,576.9z" />
	<path display="inline" fill="#432C2A" d="M416.9,564c1.2-1.1,2.4-1.6,4.1-1.1C419.8,564.4,418.7,565,416.9,564z" />
	<path display="inline" fill="#A28E86" d="M323.6,537.3c-1.2,1.8-2.3,1.1-3.6,0.9C320.9,536.5,321.9,536.1,323.6,537.3z" />
	<path display="inline" fill="#674F49" d="M350.6,582.5c-1.6,0.1-2.9-0.4-3.8-1.7h-0.1c0.9-0.1,1.9-0.2,2.8-0.3   c0.3,0.1,0.6,0.2,0.9,0.1c0.4,0.3,0.8,0.6,1.1,0.9C351.3,581.8,350.9,582.1,350.6,582.5z" />
	<path display="inline" fill="#59413E" d="M425.2,562.1c0.8-1.6,2-1.9,3.7-1.2C428,562.5,426.8,562.8,425.2,562.1z" />
	<path display="inline" fill="#4D2221" d="M347.3,560.1c2.1-1,2.7-0.4,3.4,1.5C349.3,561,348.5,560.7,347.3,560.1z" />
	<path display="inline" fill="#7D7F79" d="M329.1,537.8c0.9-0.3,1.7-0.5,2.5-0.7c1.3,1.8-1.6,1.4-2.6,1.4   C329.1,538.2,329.1,538,329.1,537.8z" />
	<path display="inline" fill="#856C66" d="M344.4,560c-0.1,1.5-2.6,2-2.3,0.2C342.6,559.3,343.7,559.4,344.4,560z" />
	<path display="inline" fill="#181A19" d="M343.8,538.3c1.1-1.5,2.7-0.5,4-0.9C349.1,539.5,344.8,538.2,343.8,538.3z" />
	<path display="inline" fill="#AE7D77" d="M288.6,539.7c1,0,2,0,2.9,0c0,0.2,0,0.3,0,0.5c-1,0-2,0-2.9,0   C288.6,540.1,288.6,539.9,288.6,539.7z" />
	<path display="inline" fill="#9D8881" d="M266.1,533.9c0-0.4,0-0.7,0-1.1c0.8,0.4,1.6,0.7,2.5,1.1   C267.6,535,266.9,534.9,266.1,533.9z" />
	<path display="inline" fill="#AA9089" d="M283.7,539.2c-1,0-1.9,0-2.9,0c0-0.2,0-0.3,0-0.5c1,0,1.9,0,2.9,0   C283.7,538.9,283.7,539.1,283.7,539.2z" />
	<path display="inline" fill="#EECABA" d="M349.5,580.4c-0.9,0.1-1.9,0.2-2.8,0.3C347.8,579.3,347.8,579.3,349.5,580.4z" />
	<path display="inline" fill="#615E59" d="M491.5,577.8c0-0.3,0-0.6,0-1c0.7,0,1.4,0,2.1,0c0,0.2,0,0.4,0.1,0.6   C493,577.5,492.2,577.7,491.5,577.8z" />
	<path display="inline" fill="#EECABA" d="M521.2,576.1c-0.7-0.4-1.5-0.7-2.2-1.1c1.2,0,2.5-0.8,3.1,1   C521.7,576.1,521.4,576.1,521.2,576.1z" />
	<path display="inline" fill="#966C68" d="M340,536.6c-0.1,0.3-0.1,0.6,0,0.9c-0.9-0.1-1.7-0.2-2.6-0.2c0-0.2,0-0.3,0-0.5   C338.2,536.8,339.1,536.7,340,536.6z" />
	<path display="inline" fill="#443330" d="M245.1,514.5c-0.5,0-0.9-0.1-1.4-0.1c0.5-0.6,1.1-1.2,1.6-1.9   C246.2,513.6,245.8,514.1,245.1,514.5z" />
	<path display="inline" fill="#544D4A" d="M575.6,580.4c-0.8,0-1.6,0-2.3,0c0-0.2,0-0.4,0-0.6c0.8,0,1.6,0,2.3,0   C575.6,580,575.6,580.2,575.6,580.4z" />
	<path display="inline" fill="#EECABA" d="M540.5,580.7c0.6-0.4,1.1-0.9,1.7-1.3C542.2,580.6,541.4,580.7,540.5,580.7z" />
	<path display="inline" fill="#87837D" d="M484.5,577.1c-0.3,0.6-0.7,0.5-1.2,0.2C483.6,576.8,483.9,576.8,484.5,577.1z" />
	<path display="inline" fill="#6D5F5A" d="M432.9,560.5c0.3,0.1,0.5,0.2,0.8,0.3c-0.3,0.7-0.7,0.6-1.3,0.2   C432.6,560.9,432.7,560.7,432.9,560.5z" />
	<path display="inline" fill="#716762" d="M580.7,574c0,0.3,0,0.6,0,0.8c-0.6-0.1-1.2-0.1-1.7-0.2c0-0.2,0-0.3,0-0.5   C579.5,574.1,580.1,574,580.7,574z" />
	<path display="inline" fill="#EECABA" d="M526.9,576.8c-0.7-0.3-1.4-0.6-2.1-0.9C525.7,575.8,526.5,575.8,526.9,576.8z" />
	<path display="inline" fill="#EECABA" d="M523.4,576c-0.5,0.8-1,1.1-1.4,0C522.5,576,522.9,576,523.4,576z" />
	<path display="inline" fill="#443330" d="M244.2,516.8c0.2-0.4,0.5-0.9,0.7-1.3C244.7,515.9,244.4,516.3,244.2,516.8z" />
	<path display="inline" fill="#ECC8B9" d="M242.1,277.7c1-1.5,2.9-1,4.4-2.1c11,5.2,22,11.7,33.2,15.7c-1.3,0.4-1.5,1.5-1.1,2.7   c-8.5,2.7-18.9,0.1-25.8-4.9c3.1,0,6.2,0,9.9,0c-1.5-2.7-4.1-2.6-6.4-4.1C251.4,282.9,247.4,278.1,242.1,277.7z M267,289.5   c1.4,2,3.1,2.4,8.5,2.1C272.4,290.4,270.1,288.5,267,289.5z" />
	<path display="inline" fill="#EBC8B9" d="M245,193.4c3,6.3-1.4,15-2.1,21.9c-1.5,7.2-0.6,14.9-4.5,21.4c0.7-7.8,2.5-15.4,1.4-23.3   c-0.1,0-0.2,0-0.3,0c-0.2,3.7-1.2,7.3-2.1,11c-0.1-10.2,0.2-22.2,5.6-30.8C243.6,194.8,244.3,193.5,245,193.4z M243.2,203.2   c0.8-1.2,1.1-2.4,0.3-4.5c-1.5,3.3-3.5,5.3-3,9.1C242.7,206.6,242.7,206.5,243.2,203.2z" />
	<path display="inline" fill="#080605" d="M242.1,277.7c5.3,0.4,9.3,5.2,14.1,7.4c2.3,1.5,4.9,1.4,6.4,4.1c-8.4,0.4-18.5-0.5-22.2-9   C240.9,279.4,241.5,278.6,242.1,277.7z" />
	<path display="inline" fill="#3B3431" d="M240.1,215.4c0,7.1-1.1,13.9-1.7,21.1c-0.4,0.3-0.9,0.7-1.6,1.2   c-1.1-6.1,0.3-11.7,1.5-17.6c1.7-1.2,0.2-3.1,0.9-4.8C239.5,215.4,239.9,215.4,240.1,215.4z" />
	<path display="inline" fill="#181413" d="M268.7,99.3c0.1-1.7-0.3-3.6,2.1-4.5c2.4,3.8,0.1,8.5-1,12.4   C267.8,105.5,269.3,101.7,268.7,99.3z" />
	<path display="inline" fill="#221E1D" d="M261.3,265.2c0,1,0,1.9,0,2.9c-2,3.3-5.3,0.1-7.8-0.8c0.1-0.4,0.1-0.7,0.2-1.1   c1.6,0,3.2,0,4.8,0.1c1.1,1.7,1.8,0.4,2.1-1C260.8,265.3,261,265.2,261.3,265.2z" />
	<path display="inline" fill="#5F5753" d="M268.7,99.3c0.5,2.4-1,6.2,1.1,7.8c-0.2,1.2-0.3,2.4-0.5,3.7   C266.4,109.1,268.2,102.6,268.7,99.3z" />
	<path display="inline" fill="#3B2A27" d="M294.4,270.1c-2.3,0.6-4.2,0.3-6.1-1.7C290.8,267.4,292.3,269.3,294.4,270.1z" />
	<path display="inline" fill="#76645E" d="M247.5,182.3c0.4,3.5,0.2,4-2.4,4.1C245.6,184.8,245.5,183.1,247.5,182.3z" />
	<path display="inline" fill="#180606" d="M247.1,262c-1.7,1.2-3.2,1.4-5-0.1C243.9,261.3,245.4,260.3,247.1,262z" />
	<path display="inline" fill="#483C39" d="M249.8,246c1.4,2.1,0.6,4.1-0.1,6.3C247.2,251,250.3,248.1,249.8,246z" />
	<path display="inline" fill="#82736D" d="M267.6,115.1c1.8,0.8,1.8,0.9-0.1,3.2C266.8,117.1,266.7,116.1,267.6,115.1z" />
	<path display="inline" fill="#87746E" d="M254.4,257.7c-1.2-1.1,0.9-1,0.6-1.7c-0.3-0.7-0.6-1.4,0.1-2c1.5,1,1.6,2.3,1.1,3.8   C255.7,257.7,255.1,257.7,254.4,257.7z" />
	<path display="inline" fill="#6F615B" d="M245,193.4c-0.7,0.1-1.4,1.4-2,0c0.4-1.1,0.9-2.2,1.4-3.7   C245.5,191.1,245,192.3,245,193.4z" />
	<path display="inline" fill="#160E0E" d="M266.9,130.7c0.2,2.4,0.2,2.4-0.7,3.8C265.4,133.2,265.4,133.2,266.9,130.7z" />
	<path display="inline" fill="#603A37" d="M278.3,293.1c-0.2-1.1,0.4-1.4,1.3-1.8c1,0.6,1.9,1.2,2.9,1.7   C281.1,293.1,279.7,293.1,278.3,293.1z" />
	<path display="inline" fill="#705C57" d="M228.8,268.5c1.6-0.9,2.7-0.1,3.6,1.2C230.7,270.7,229.7,269.7,228.8,268.5z" />
	<path display="inline" fill="#8D7872" d="M249.1,241.4c-0.6-1.8-0.4-2.8,1.1-3.7C251.2,239.2,250.7,240.2,249.1,241.4z" />
	<path display="inline" fill="#654B47" d="M254.4,257.7c0.6,0,1.2,0,1.9,0c0.6,0.4,1.2,0.9,1.8,1.4   C255.9,259.6,255.9,259.6,254.4,257.7z" />
	<path display="inline" fill="#ECC8B9" d="M284.3,295c-1.7,0-3.4,0.3-4.8-0.8c1.3-0.1,2.5-0.2,3.8-0.3   C283.6,294.3,283.9,294.7,284.3,295z" />
	<path display="inline" fill="#484B46" d="M283.2,294c-1.3,0.1-2.5,0.2-3.8,0.3c-0.3-0.1-0.6-0.2-0.9-0.2c-0.1-0.3-0.1-0.6-0.2-0.9   c1.6,0.1,3.3-0.3,4.9,0C283.3,293.4,283.3,293.7,283.2,294z" />
	<path display="inline" fill="#411514" d="M295.8,294.3c-0.4,0.3-0.8,0.6-1.3,0.9c-0.7-0.1-1.4-0.1-2.5-0.2   C293.7,294,293.7,294,295.8,294.3z" />
	<path display="inline" fill="#BA9C94" d="M283.2,294c0.1-0.3,0.1-0.5,0-0.8c1.2-0.1,2.1,0.3,2.9,1.6c-0.7,0.1-1.3,0.2-1.8,0.3   C283.9,294.7,283.6,294.3,283.2,294z" />
	<path display="inline" fill="#65423F" d="M253.7,266.2c-0.1,0.4-0.1,0.7-0.2,1.1c-1.1-0.1-2.2-0.1-4-0.3   C251.3,265.9,252.5,266.1,253.7,266.2z" />
	<path display="inline" fill="#393533" d="M267.7,122.8c-0.3,0.8-0.5,1.5-0.8,2.2c-0.2,0-0.4-0.1-0.6-0.1c-0.1-0.8-0.2-1.5-0.3-2.6   C266.7,122.6,267.1,122.7,267.7,122.8z" />
	<path display="inline" fill="#4A3A37" d="M249.8,246c0,0.3,0,0.7,0,1c-1.3,0.1-1.1-0.7-0.8-1.4C249.3,245.7,249.5,245.8,249.8,246z   " />
	<path display="inline" fill="#433835" d="M260.3,266.2c-0.5,1.4-1.2,1.1-1.9,0.1C259.1,266.2,259.7,266.2,260.3,266.2z" />
	<path display="inline" fill="#433835" d="M260.4,269.2c0.3-0.4,0.6-0.7,0.9-1.1c0.3,0.3,0.6,0.6,0.9,1   C261.7,269.1,261,269.1,260.4,269.2z" />
	<path display="inline" fill="#433835" d="M261.3,265.2c-0.3,0-0.5,0-0.8,0c0.2-0.4,0.5-0.8,0.7-1.1   C261.2,264.5,261.3,264.9,261.3,265.2z" />
	<path display="inline" fill="#B3BAD1" d="M307.2,448.3c0.5-0.4,0.9-0.8,1.4-1.2c-1.4-2.7-3.9-1.4-6-1.7c0.9-0.4,1.9-0.8,3.5-1.5   c1.8-3.2,6.8-6.8,11.8-5.1c0.1,1-1.4,1.8-0.3,3c0.9,0,1.7-0.4,2.3-1C320.9,448,312.7,448.9,307.2,448.3z M310.2,446   c1.8,0.9,3.1,0.8,4.9-0.2C313.4,445.4,312.1,444.8,310.2,446z" />
	<path display="inline" fill="#0D0B0C" d="M344.6,427.5c-0.1,0.3,0,0.5,0.2,0.8c-3.6,3.8-11.3,2.8-16,6.1c-1.2,0.5-2.3,1-3.8-0.2   C328.4,428.5,338.4,426.4,344.6,427.5z" />
	<path display="inline" fill="#575761" d="M349.6,435.9c0,0.8,0.1,1.5,0.1,2.5c-1.9-1.3-1.9-1.3-3-4.5c0.6-0.9,1.2-1.8,1.7-2.7   c2.1,1.7,2.6,4.4,4,6.6c-0.3,0.3-0.7,0.6-1,0.9c-1-1.5-2.2-2.5-2.2-4.5C348.4,435.2,348.8,435.6,349.6,435.9z" />
	<path display="inline" fill="#A7ADC0" d="M351.5,438.7c0.3-0.3,0.7-0.6,1-0.9c1.8,3.4,4.6,7.5,4.3,11.3   C354.7,445.6,353.1,442.2,351.5,438.7z" />
	<path display="inline" fill="#676772" d="M362,432.1c-1.8-2.7-3.6-5.5-5.3-8.1c2.7-1.4,4.4,5.5,6.3,7.1   C362.7,431.4,362.3,431.8,362,432.1z" />
	<path display="inline" fill="#9DA3B5" d="M362,432.1c0.3-0.3,0.7-0.7,1-1c0.8,2.4,3.9,5.2,3.2,7.4   C364.4,436.6,363.1,434.4,362,432.1z" />
	<path display="inline" fill="#070A0B" d="M384.4,455.2c-1.5-2.3-1.2-3.6,0.2-4.9c0.4,0.3,0.8,0.5,1.4,0.8   C385.5,452.3,385,453.5,384.4,455.2z" />
	<path display="inline" fill="#444249" d="M329.8,451.6c-3.3-1.6-4.6-3.9-2.8-6.4C327.9,447.4,328.6,449.1,329.8,451.6z" />
	<path display="inline" fill="#231E21" d="M319.8,440.7c-0.6,0.6-1.4,1-2.3,1c-1.1-1.2,0.4-2,0.3-3   C320.2,435.7,321.1,438.3,319.8,440.7z" />
	<path display="inline" fill="#131315" d="M343.9,473c0-1.7,0-3.3,0-4.9c2.9-0.5,0.7,3.4,0.8,4.9C344.4,472.9,344.1,473,343.9,473z" />
	<path display="inline" fill="#453E44" d="M366.3,477.6c-0.3-1.9-0.3-1.9,1.1-3.2C369.8,475,367.3,476.7,366.3,477.6z" />
	<path display="inline" fill="#47434A" d="M382.4,463.3c-0.8-1.6-0.7-2.8,1.2-3.4C384.6,461.5,383.9,462.5,382.4,463.3z" />
	<path display="inline" fill="#505059" d="M344.6,479.8c-0.5,0-0.9,0-1.7,0c0-0.9,0.1-1.7,0.1-2.7c0.7,0,1.2,0,1.7,0   C344.7,478,344.7,478.9,344.6,479.8z" />
	<path display="inline" fill="#544D55" d="M319.5,433c0.5,1.6,0.4,2.7-1.2,3.4C317.2,434.8,318.3,434.1,319.5,433z" />
	<path display="inline" fill="#0F1415" d="M348.5,431.2c-0.6,0.9-1.2,1.8-1.7,2.7c-0.5-0.8,0-1.7,0-2.6l0.1-0.1   C347.4,431.2,347.9,431.2,348.5,431.2L348.5,431.2z" />
	<path display="inline" fill="#444147" d="M353,450.7c-1.5,0.4-1.5,0.4-1.1-1.5C352.4,449.8,352.7,450.2,353,450.7z" />
	<path display="inline" fill="#B3BAD1" d="M319.8,440.7c0.3-0.7,0.5-1.5,0.8-2.2C320.7,439.4,320.9,440.3,319.8,440.7z" />
	<path display="inline" fill="#575761" d="M348.5,431.2c-0.5,0-1.1,0-1.6,0.1C347.7,430,347.8,430,348.5,431.2z" />
	<path display="inline" fill="#575761" d="M346.8,431.3c-0.1,0.6-0.2,1.2-0.2,1.8C345.8,432.4,345.5,431.8,346.8,431.3z" />
	<path display="inline" fill="#B3BAD1" d="M318.6,437.8c-0.3,0.3-0.5,0.6-0.8,1C318.1,438.4,318.3,438.1,318.6,437.8z" />
	<path display="inline" fill="#292A2F" d="M332.4,499.4c2.4-2.9,4.7-5.6,7.3-8.8C340.3,494.4,335.7,503.6,332.4,499.4z" />
	<path display="inline" fill="#201C1F" d="M355.5,498.3c-1.2,2.3-1.7,5-5.2,4.2c0.7-2.3,2.8-3.4,4.1-5.2   C354.8,497.6,355.2,497.9,355.5,498.3z" />
	<path display="inline" fill="#3B3E45" d="M357.3,495.4c-0.3-2.5,0.7-4.5,2.9-6.9C359.6,491.5,359.9,494,357.3,495.4L357.3,495.4z" />
	<path display="inline" fill="#55525C" d="M363.5,482.1c0.5,1.7,0,2.6-1.3,3.3C361.5,483.9,362.1,483,363.5,482.1z" />
	<path display="inline" fill="#747886" d="M340.9,486.8c0.3-2.3,0.4-2,1.6-4C342.8,484.6,343.4,485.9,340.9,486.8z" />
	<path display="inline" fill="#706E7B" d="M355.5,498.3c-0.4-0.3-0.7-0.6-1.1-1c0.4-1.5,1.3-2.2,2.8-2l0,0   C356.7,496.3,356.1,497.2,355.5,498.3z" />
	<path display="inline" fill="#241E1C" d="M172.1,537.6c0.7-4,3-7.5,5.3-10.6c1.6,0.3,0.9,1.6,1.5,2.4c1.9,1.6,4.9-0.3,4.2-2.9   c-0.5-3.4,3.7-4,5.2-1.4c0.1,1.7,0.3,3.4,0.4,5c-3.9,1.3-7.4,2.5-11.2,1.3c-1.3,1.2-2.3,2.3-2.6,4.2c1.5,0.3,2.7,0.6,4,0.8   c1.7-1.9,6.8-6.2,8.4-2.8c-2.4,0.2-3.9,1.8-5.8,3.5c0.6,0.6,1.1,1.1,1.8,1.9c0.9-0.8,1.7-1.5,2.4-2.2c0.4,0,0.9,0,1.5,0   c-0.8,2.3-2,4.7-4.6,4.6C179.7,538.2,175.1,539.6,172.1,537.6z" />
	<path display="inline" fill="#151211" d="M155.8,498.6c-7.6-3.6-9.7-13.5-8.4-21.1c1.3-1.1,2.3-0.3,3.7,0.7c1,4.7-0.7,11.1,3,14.9   C155.5,494.6,156.1,496.3,155.8,498.6z" />
	<path display="inline" fill="#352C29" d="M199,514.6c4.3-0.5,3.8-6.1,7.5-7.4c0.2,1.1,0.3,2,0.5,2.9c0.6-0.2,1-0.3,1.5-0.5   c0.4,0.3,0.7,0.6,1.1,0.9c-5.1,1.1-11,13.7-15.2,6.9C195.8,516.5,197.4,515.5,199,514.6z" />
	<path display="inline" fill="#14100F" d="M161.3,489c-0.6,0.3-0.9,0.6-1.4,0.8c-3.3-2.5-5.2-5.8-6.4-9.8c1.5-0.3,2.7-0.5,4.3-0.9   C161.2,481.5,159.4,485.3,161.3,489z" />
	<path display="inline" fill="#DEC2B8" d="M187.2,533.6c-1.6-3.4-6.6,0.9-8.4,2.8c-1.3-0.3-2.5-0.5-4-0.8c0.4-1.8,1.3-3,2.6-4.2   c3.8,1.2,7.3-0.1,11.2-1.3c-0.1-1.6-0.3-3.3-0.4-5C190.4,526.8,189.8,532.3,187.2,533.6z" />
	<path display="inline" fill="#403836" d="M184.4,505.4c0.6,1.7,0.3,3-1.1,4.1C181.7,507.8,181.7,507.7,184.4,505.4z" />
	<path display="inline" fill="#3B3432" d="M184.8,503.9c-0.1-2.3-0.1-2.3,1.4-3.6C187.1,501.8,186.6,502.9,184.8,503.9z" />
	<path display="inline" fill="#2A1B19" d="M283.7,571.2c-4.1,3.5-9.3,5.2-14.6,3.4C273.5,572.3,278.8,571.2,283.7,571.2z" />
	<path display="inline" fill="#3D2724" d="M375.7,579.4c0.8,1,1.5,1.9,2.1,2.8c-1.6,1-3.9-0.5-5.8-0.2c-2-0.2-4.1,1.3-5.9,0.2   C368.2,579.9,372.2,580.6,375.7,579.4z" />
	<path display="inline" fill="#83413B" d="M354.3,581.7c1.8-0.2,3.6-0.3,6,0.4c-2.9,1.9-5.3,1.8-7.9,0.6   C353,582.4,353.6,582.1,354.3,581.7z" />
	<path display="inline" fill="#2E1817" d="M384.9,582.9c3.1-0.7,5.1-0.1,7.2,1.2C389.6,584.8,387.4,585.3,384.9,582.9z" />
	<path display="inline" fill="#57413B" d="M296.3,561.5c-1.9,1.4-3,2.3-4.8,1.8C292.9,561.6,292.9,561.6,296.3,561.5z" />
	<path display="inline" fill="#513A36" d="M283.7,571.2c-0.8-0.1-1.7-0.2-2.5-0.2c1.5-0.9,3-1.9,6-1.8   C285.4,570.2,284.6,570.7,283.7,571.2z" />
	<path display="inline" fill="#4A302D" d="M289.2,565c-0.7,0.4-1.3,0.8-2,1.2c-1-1.6,0.6-1.9,1.6-1.9   C288.9,564.6,289.1,564.8,289.2,565z" />
	<path display="inline" fill="#220909" d="M508.9,576.9c-1-0.3-2.3,0.4-3.1-0.8C506.7,576,510.7,575.2,508.9,576.9z" />
	<path display="inline" fill="#2F1211" d="M354.3,581.7c-0.6,0.3-1.2,0.7-1.9,1c-0.6-0.1-1.2-0.2-1.8-0.3c0.4-0.3,0.7-0.7,1.1-1   C352.5,581.5,353.4,581.6,354.3,581.7z" />
	<path display="inline" fill="#231E1C" d="M208.4,281.5c-0.5,0-0.9-0.1-1.6-0.1c-0.6-4-0.3-7.9,0-12.7   C209.8,272.7,207.9,276.9,208.4,281.5L208.4,281.5z" />
	<path display="inline" fill="#614C46" d="M210,298.6c3.9,3,7.3,5.6,10.8,8.3C216.3,306,210.7,303.6,210,298.6z" />
	<path display="inline" fill="#91786F" d="M234.8,315.6c-4.1-1.2-4.1-1.2-5.2-3.1C231.9,313,233.6,313.9,234.8,315.6z" />
	<path display="inline" fill="#94716B" d="M561.3,507.6c-1.4,0.6-2.6-0.1-3.7-0.8c0.1-0.3,0.1-0.6,0-0.9   C559.1,505.8,560.3,506.5,561.3,507.6z" />
	<path display="inline" fill="#1C2649" d="M463.3,410.3c0.1,4.8-2.5,10.7-4.9,14.9C457.4,420.4,462,413.2,463.3,410.3z" />
	<path display="inline" fill="#1E264A" d="M439.6,418.6c-0.3-0.3-0.7-0.6-1-1c1.9-1.6,3.9-3.2,5.8-4.9c0,0.4,0.1,0.7,0.1,1.1   C442.9,415.4,441.3,417,439.6,418.6z" />
	<path display="inline" fill="#394A90" d="M444.6,413.9c-0.6-2.5,2.3-3.1,3.9-3.9C448.7,412.4,445.8,412.2,444.6,413.9z" />
	<path display="inline" fill="#583D39" d="M512.3,494.6c0.1,0.2,0.2,0.5,0.2,0.7c-0.6,0.3-1.3,0.5-1.9,0.8l-0.1,0.4   c-1.6-0.7-3.2-1.4-4.8-2.1c0.4-0.4,0.7-0.8,1.1-1.2C508.7,493.7,510.5,494.1,512.3,494.6z" />
	<path display="inline" fill="#572825" d="M497.9,494.2c-2.6,3-4.1,1.5-5.7,0.4C493.8,494.5,495.3,494.4,497.9,494.2z" />
	<path display="inline" fill="#543B36" d="M477.7,494.9c-1.5,1.1-2.4,0-3.6-0.9C476.3,493.2,476.3,493.2,477.7,494.9z" />
	<path display="inline" fill="#542725" d="M484.2,496.6c0.6-1.4,1.6-1.7,3-1.1C486.2,496.8,486.2,496.8,484.2,496.6z" />
	<path display="inline" fill="#B79287" d="M506.8,493.2c-0.4,0.4-0.7,0.8-1.1,1.2c-0.9-0.6-1.9-1.3-2.8-1.9l0,0   C504.3,492.6,505.7,491.9,506.8,493.2z" />
	<path display="inline" fill="#B79287" d="M503,492.5c-0.5-0.1-0.9-0.1-1.5-0.2C502.3,491.2,502.7,491.9,503,492.5L503,492.5z" />
	<path display="inline" fill="#E8C6B6" d="M198,519.2c3.8-1.9,3.8-1.9,6.6-5.9c4.6-2.6,12-6.6,11.8-10.1c-0.3,0-0.6-0.1-0.9-0.1   c0.6-2.4,2.7-2.7,4.6-3c-0.3,1.5,0.5,2.1,1.9,2c-0.5,0.8-1.1,1.6-1.8,2.6C221,516.1,207.7,521.6,198,519.2z" />
	<path display="inline" fill="#4D403D" d="M221.9,502c-1.4,0.1-2.2-0.4-1.9-2c1-0.6,2-1.2,3-1.8C225.2,499.2,222.6,500.9,221.9,502z   " />
	<path display="inline" fill="#8B736B" d="M203.7,529.9c1.2-0.1,2.4-0.2,3.6,0.1c0,0.5-0.1,0.9-0.1,1.4c-1.5,0.7-3,0.6-4.5,0.3   C203,531.1,203.4,530.5,203.7,529.9z" />
	<path display="inline" fill="#5D504D" d="M225.9,496.6c0.8-1.4,0.8-1.4,3.1-0.9C227.8,497.3,227.8,497.3,225.9,496.6z" />
	<path display="inline" fill="#1B0707" d="M203.7,529.9c-0.3,0.6-0.7,1.2-1,1.8c-1.2,0-2.6,0.3-3.6-1.4   C200.4,528.6,202.1,529.7,203.7,529.9z" />
	<path display="inline" fill="#7F5A52" d="M210.1,530.2c0.8-0.7,1.4,0,2.2,0.4C211.7,531.9,210.2,531.1,210.1,530.2z" />
	<path display="inline" fill="#343238" d="M314.6,483.7c1,2.7-0.5,5.3-3.4,4.9C311.6,486.2,312.3,484.5,314.6,483.7z" />
	<path display="inline" fill="#484952" d="M316.6,467.4c0.3,2.5,0.9,4.2-0.7,5.8C314.6,470.5,314.6,470.5,316.6,467.4z" />
	<path display="inline" fill="#5E5E69" d="M315.6,477.4c0.7,1.7,0.7,3.1-1.1,4.4C313.7,480,313.7,478.6,315.6,477.4z" />
	<path display="inline" d="M510.7,496.1c1.7-1,3.3-0.7,5.3-0.5C514.3,497.8,512.4,496.2,510.7,496.1z" />
	<path display="inline" fill="#463935" d="M215.5,503.1c0.3,0,0.6,0.1,0.9,0.1c-0.6,2.8-1.4,3.8-6.9,7.3c-0.4-0.3-0.7-0.6-1.1-0.9   c0.1-0.3,0.1-0.6,0.2-0.9c0.3-0.3,0.7-0.6,1-0.9l0,0C211.5,506.2,213.4,504.6,215.5,503.1C215.4,503.1,215.5,503.1,215.5,503.1z" />
	<path display="inline" fill="#E8C6B6" d="M208.6,508.7c0,0.3-0.1,0.6-0.2,0.9c-0.4,0.1-0.9,0.3-1.5,0.5c-0.1-0.9-0.3-1.8-0.5-2.9   c-0.6,0.3-1.1,0.6-1.6,0.8c-0.5-3.1,2.3-3.2,4.9-3.7C208.9,506,206.5,507.6,208.6,508.7z" />
	<path display="inline" fill="#E8C6B6" d="M209.6,507.8c-0.3,0.3-0.7,0.6-1,0.9C208.9,508.4,209.3,508.1,209.6,507.8z" />
	<path display="inline" fill="#E8C6B6" d="M210.7,506.9c-0.4,0.3-0.7,0.6-1.1,1C209.9,507.5,210.3,507.2,210.7,506.9z" />
	<path display="inline" fill="#E8C6B6" d="M215.4,503.1c-0.4,0.3-0.7,0.6-1.1,0.9C214.7,503.6,215.1,503.3,215.4,503.1z" />
	<path display="inline" fill="#2F3F73" d="M311.2,320c-0.8,1.2-1.6,2.3-3.1,2.7c-0.7-1.6,1.5-2.5,2.1-3.8   C310.5,319.3,310.9,319.6,311.2,320z" />
	<path display="inline" fill="#412724" d="M267,289.5c3.2-1,5.4,0.9,8.5,2.1C270,291.9,268.4,291.5,267,289.5z" />
	<path display="inline" fill="#3B322F" d="M243.2,203.2c-0.5,3.3-0.5,3.3-2.7,4.6c-0.5-2.6,0.8-4.6,1.7-6.7   C242.6,201.8,242.9,202.5,243.2,203.2z" />
	<path display="inline" fill="#6B504B" d="M243.2,203.2c-0.3-0.7-0.7-1.4-1-2c0.3-0.6,0.6-1.2,1.3-2.4   C244.3,200.8,244,202,243.2,203.2z" />
	<path display="inline" fill="#473A36" d="M239.3,227.2c0-1.8-0.6-3.6,0.7-5.1C240.1,223.9,240.3,225.6,239.3,227.2z" />
	<path display="inline" fill="#473A36" d="M240.1,215.4c-0.2,0-0.6,0-0.8,0c0.1-0.7,0.1-1.5,0.2-2.2c0.1,0,0.2,0,0.3,0   C239.9,213.9,240,214.7,240.1,215.4z" />
	<path display="inline" fill="#473A36" d="M239.1,217c0,1.1,0.6,2.4-0.7,3.2C238.6,219.1,238.8,218,239.1,217z" />
	<path display="inline" fill="#29191C" d="M310.2,446c1.8-1.3,3.1-0.7,4.9-0.2C313.4,446.8,312,446.9,310.2,446z" />
	<path display="inline" fill="#8D97A7" d="M349.6,435.9c-0.8-0.3-1.2-0.7-0.3-1.7C349.4,434.9,349.5,435.5,349.6,435.9L349.6,435.9z   " />
</g>
</svg>