<?xml version='1.0' encoding='utf-8'?>
<svg xmlns="http://www.w3.org/2000/svg" version="1.2" baseProfile="tiny" id="Layer_1" x="0px" y="0px" viewBox="0 0 900 600" overflow="visible" xml:space="preserve">
<g id="a_00000021096229639400062170000003603317715292525956_">
	<path d="M346.8,91.1c-0.8,3.6-1.1,7.2-0.8,10.9c5.2,3.2,8.1,8.7,13.1,12c3.4,1.6,7,3,9.4,6.2c3.6,4.8,7.2,9,13.6,10.2   c1.7,3.5,6.8,4.5,9.6,6.6c4.2-1.5,2.9-6.2,8.4,0.2c4.9,0.5,10.6,0.4,13.5,5.6c-0.4,3-0.7,6.2-0.3,9.6c6.9,3.6,13.4,8.9,14.4,17.1   c8.6,7.9,3.4,7.1,5.4,15.9c2.1,4.5-1.5,9.4,0.8,13.8c0.8,1.7,1.3,3.4,0.7,5.7c-8,4.8-16.4,11-25.9,12c-5.2-1.8-10.5-4.6-15.8-3.4   c-7.5,2.5-19.5,28.5-26.1,20.4c-2.4-2.4-5.7-3.2-8.6-4.8c-1.7,7.1-0.9,15.9-2.9,23.5c4.1,2.8,1.5,7.2,2.4,11   c1.1,6.2,6.9,10.5,6.7,17c4,33.4,13.3,67.1,11.7,100.8c-0.9-0.2-1.6-0.3-2.4-0.5c-3.1,1-6.2,2-9.5,3.1c-0.8,2.9-2.1,5.5-4.2,7.5   c-1.8,6.6,1,12.2-0.3,18.6c0.3,6.1-3.8,11-3.7,17c0.7,2.2-1.3,4.3-0.8,6.6c4.5,31.7-11.3,61.9-15.2,93.2c3.8,2,1.9,6.8,3,10.5   c9.1,9.1,16.5,22,30.6,23.6c5.8,1.7,5,9.5,6.2,14.3c0.1,8.5-37.5,5.9-44.6,5.1c-18,8.5-39.5,6.7-58.1,2.1   c-5.6-1.3-13.5,0.7-17.7-3.8c-1.5-5.1,3.7-10.2,3.6-15.6c1.9-8.8-0.3-19,7.1-25.7c-1.2-28-18-54.8-12.5-82.9   c0.8-11.3,8.5-20.5,11.1-31.2c4.4-17-1.1-34.3-0.4-51.6c-5.4-2.7-10.2,0.9-15.8,0c5.4-31.5,1.3-64.2,9.2-95.4   c9.8-27.6,14.7-7.7,14.4-49.4c-16.3-31.6-24.3-36.4-26.1-75c-0.8-0.8-1.4-1.5-1.9-2.2c-0.2-12.2,0.2-30.2,13.4-35.5   c2.6-1,4.9-3.4,8.2-2.9c13.6-6.9,12.1-15.4,33.4-21.8c0.2,0.2,0.5,0.4,0.9,0.8c-0.6,1.4-3.4,3.5-1.6,4.9c3.6,3.2,6.7,6.7,9.8,10.3   c6.1,4.7,8,13.8,14,17.9c2.1,0.8,3.5,3.2,5.2,4.6c7.2-1.3,14.3-2,21.4-1.3c-0.6-5.8-3.4-13.6-6.5-18c-0.5-0.1-0.9-0.1-1.6-0.2   c-1.6-5.8-1.2-12.3-0.2-18.1c0.6-0.1,1.2-0.2,1.9-0.3C346.6,90.3,346.7,90.7,346.8,91.1z M423.3,209.7c0.6,0,1.2,0,1.3-0.8   c4.8-3.3,11.2-3.8,6.9-11c-0.6-3.8,2.1-7.6,0.1-11.2c-1.2-3.4-0.6-6.7,0.4-10c-2.5-3.3-6.1-5.3-8.2-8.8c0.6-0.1,0.9-0.2,1.3-0.3   c-2-6.6-6.5-11.3-11.9-12.5c0.6,3.1,0,6.6,2.4,9c-0.9,1-2,1.2-0.7,2.7c0,1.7,0.5,3.4-0.6,4.8c-1.1,0.4-0.6,1.4-0.7,2.1   c-0.5,1.4-1.4,2.7-1.4,4.3c-0.3,0-0.7,0-0.9,0c-7.5,10-8.4,23.6-16.9,33.2c8.2-0.2,16.7,8.4,23.3-0.3   C419.9,212.7,421.5,210.7,423.3,209.7z M349.4,109.6c3.1,5.3,4.1,11.4,6.1,17c1.2,0.1,2.3,0.1,3.6-0.1c-4.2-6.7-4.7-15.3-11.5-20.1   C347.9,107.8,348.5,108.8,349.4,109.6z M393.6,154.4c1.6-0.3,2.9,0.7,4.2,1.4c-0.1,0.4-0.2,0.8-0.2,1.3l0,0   c-0.7-0.2-1.5-0.3-2.4-0.5c0.1,4.7-0.6,9.1,2.2,13.2c1.4,2,2.1,4.4,1.1,6.8c-0.2,0-0.5,0-0.7,0c-3.4-5.9-4.4-11.6-4.6-18.1   c-4.1-1.3-4.4-1.3-7.7-0.4c0.3-0.5,0.5-0.9,0.8-1.4c1.6-0.1,3.3-0.2,4.8-0.3c-6.7-8.1-8.3-31.7-23.3-28c0,0.5,0,0.8,0,1.2   c-13.3-3.2-27.3,0.3-40.8,0.9c-2.3,1.1-8.1-0.9-8.4,2c-0.2-0.1-0.4-0.1-0.7-0.2c-0.7-0.7-1.4-1.4-2.1-2c4.2-1,7.9-1,12.5-1.5   c-9.6-11.3-19.6-22.3-28.1-34.3c-9.3,2.8-17.6,8.3-23.2,16.2c0.4,0.5,0.8,1,1.3,1.5c-21,0.9-31.6,17.7-26.6,38   c1.6,3.4,5.6,5.9,5.3,10.6c-1.2-1.1-2.1-1.8-3.3-2.9c-0.8,21.9,7.7,42.6,21.4,59.4c-2-8.3-4.1-17-10.2-23.3   c-1.4-1.2-1.7-2.8-1.8-4.7c-0.6-11.4,7.5-20.4,12.1-30.3c4.2-10.7,13.2-16.7,21.8-23.2c0.8,1.1,10.7,0.8,9,2.9   c-3.1-0.4-5.7,1.8-8.9,1.4c-0.7,0-1.6-0.3-2.2,0.5c-10.8,3.6-15.6,15.2-20.4,24.5c-3.1,7.8-9.7,13.3-9.6,22.3   c-1.1,5.9,6,8.7,6.8,14.3c3.9,4.9,2.7,15.7,9.6,16.9c6.5,0.4,24.3-2,26.8-8.4c1.1-2.2,2.7-4.5,5.1-5.3c-0.4,2.3-2,3.8-2.6,6.5   c16.9-10.2,23.3-19.5,29.1-38.2c4.2-3.3,1.2-8.2,0.7-12.3c-1.6-2.6-0.6-6-2-8.5c-0.4-3.6,0.9-7.8-0.6-11c-1.2-2.8-2.1-5.3-0.4-8.4   c8-0.2,5.6-0.5,9.3,5.5c4.4-3.4,8,0.2,12,2.1c3.9,0.7,9.6,2.6,8.3,7.5c7.7,10-4.7,20.2-9.2,29.2c-0.2,0.4-0.7,0.8-0.6,1.1   c0.2,3.1-2.3,4.9-4.3,6.8c1.2,2.2,1.4,4.7,0,6.8c-1-2.2-1-4.2-1.5-6.4c-8.6,7.8-15.4,16.8-23.6,25.3c9.4,4.6,23.5,6.6,30.7-2.6   c10.2-5.6,21.8-6.8,31.7-13.3c0.3,0.3,0.6,0.7,0.9,1c-7.8,7.1-19.1,8-28.2,12.1c-0.3,2.4-0.7,4.8-1,7.1c-0.4,0.1-0.8,0.1-1.2,0.2   c-1.1,3.7-2.7,7.3-2.3,11.2c3.6,3.5,8.6,3.4,12.2,7c7.7-11.6,19.5-20,27-31.6c4.7-10.3,9-20.9,14.9-30.4c2.4-8.4-2.6-17.5-0.8-26.4   c0.6-6.5-7.5-5-11.7-6.4c-2,0-5-1.9-6.5,0c2.9,2.7,7.1,1.7,10,4.8c-4.9,0.1-8.8-2.1-13.1-3.2c-0.3,1.1-0.6,2.1-0.9,3.1   c3.1,2.1,6.7,2.2,9.6,4.5c-2.3,0.8-6-1.4-9-1.7c-0.1,0.9-1.3,2.4-0.1,2.8C388.3,151,391.7,156.6,393.6,154.4z M324.6,537.4   c-2,0.6-4,1.4-6.1,1.7c-0.3,2.1-0.3,2.1,0.4,3.9c1.7-0.4,2.3-2,3.1-3.3c2.4-1.5,4.5-1.5,6.9-3.7   C326.9,536.3,325.7,536.5,324.6,537.4z M278.4,251c0.5-0.3,0.9-0.6,1.3-0.8c0.1-4,0.1-3.4-2.5-4.2C278.4,248,278.5,249.1,278.4,251   c-0.2,0-0.4,0-0.6,0c-0.1-0.2-0.3-0.4-0.5-0.3c-28.7,45.3-13.4,70-22,117.7c8.6-3.9,16.1,1.3,24.5,2.7c7.5,3.3,16.8,2.2,24.7,5.3   c5.4,2.2,10.7-1,16.2-0.3c2.1-8.5,1-18.4,6.8-25.7c0.8,0.2,0.6,0.9,0.8,1.4c-3.8,8.5-2.9,18.3-6.4,26.7c-1,0.1-1.9,0.2-2.7,0.3   c0.1,0.4,0.1,0.6,0.1,1c18,3,37.1,4.5,54.7-1.6c-2.2-38.7-5.4-80.1-19.1-116.5c-1.1,0.5-2.3,0.7-2.8,2.1c-0.4-0.4-0.6-0.7-1-1.1   c-0.5,0.3-0.9,0.6-1.2,0.9c-0.4-0.3-0.8-0.5-1-0.7c-4.5,1.8-9.1,1.4-13.8,1.2c5.2-2.1,4.8,1.5,8.7-4.4c0,0.6,0,1.2,0,2.2   c0.9-0.4,1.6-0.6,2.2-0.9c0-0.9,0-1.5,0-2.3c-11.9,0-23.8-1-35.1-5c-9.2-2.2-19.7-4.3-29.5-6.6c0,1.8-1.3,3.3,0.4,4.4   c0.2-1.3,0.3-2.2,0.4-3.5c0.8,0.5,1.2,0.8,1.6,1.1c0,1.1,0.1,2.2,0.1,3.3c-0.3,0.3-0.5,0.5-0.8,0.8c-1.8,0.2-3.1-1.2-4.7-1.5   C278.4,251.5,278.4,251.3,278.4,251z M338.2,540.8c-2.7-0.1-4.9,1.4-7.4,2.2c-0.7-0.2-0.8-0.7-0.4-1.2c2.1-4.5,7.8-2.4,10.8-5.2   c-1.2-1.9-0.4-4.3-1.7-6.2c-7-0.5-2.9,4.4-5.5,8c-0.4-0.1-0.7-0.1-1.1-0.2c-0.2-4.8-1-8.7,4.4-10.6c1.7-27.4,14.6-52.3,16.2-79.6   c1-7.3-1.6-14.7,0.1-21.9c-1.1-4.7,2.9-8.5,2.7-13.3c2.6-11.5-3.3-17.4,4.6-28.5c-14,0.6-27.7,1.5-41.5-1.5   c-0.6,5.2-2.2,10.4-4.5,15.1c9.1,8.2,1,19.6,5.2,29.3c3.4,0.5,5.3,3.1,6.6,6c-0.9,0-1.8,0-2.6,0c-1.2-1.1-2.2-2.2-3.2-3.2   c-3.9,12.2-7.9,25.1-7.5,38.4c1.9,8.3,7.5,14.8,5.5,24.2c1.3,13.9-0.6,29.5-0.2,43.9c2,0.7,3.2-0.7,4.5-1.8c1.8,1.4,4.5-1,6.8-0.9   c0.3-1.2,0.5-2.2,0.8-3.3c0.2,0,0.5,0,0.7,0.1c0.4,2.3,0.7,4.6-0.1,6.8c-2.6,1.7-6,2.5-8,5c-1.7,2.8-4.1,3.6-7,3.3   c-1.6-2.4-2.9-4.3-3.8-7c-0.6,0.1-1,0.3-1.6,0.4c-0.5,5,1.1,9.8-1.7,14.2c8.7,14,25.3,13.8,25,22.6c13.1,2.4,27.6,2.5,40.5-0.9   c0.4,0.2,0.8,0.4,1.3,0.7c0.4-0.5,1.5-0.8,1-1.6c-0.3-1.3,0.3-2.6-0.6-3.7c-0.2-2.3-0.9-4.5-2.2-6.4c-6.8-1.9-14.1-2.4-18.2-8.9   c-0.5-0.2-1.3-0.5-1.8-0.9c-2.8,1.8-7.2,2.9-10.3,1.3c2.9-1.6,5.6-1.8,9.1-2.2c-0.5-0.7-0.8-1.1-1-1.4c-4.3,0.5-7.8,2.2-12.1,1.4   c0.1-0.6,0.2-1,0.3-1.5c-0.8-0.3-1.6-0.5-2.4-0.7c-0.1-0.5-0.1-0.7-0.1-0.9c4-1.5,8.7-1.3,12.3-0.2c-0.2-1.7-2-2.4-3-3.7   c-4.5,1.5-8.9,2.7-13.5,2.2c2.4-3.7,8.4-2.9,12.1-4.3c0.2-1.1-0.4-1.4-1.3-1.6c-4.3,1.7-9,3.8-13.8,2c0.3-0.4,0.6-0.7,0.8-0.9   c3.6-1.1,7.5-1.8,11-3c0-0.8-0.3-1-0.9-1.4C340.4,539.7,339.3,540.3,338.2,540.8z M301.2,378c-9.7-2-20.4-4.3-30.5-5.3   c12.9,70.9-23.2,62.7-5.4,124.6c0.6-0.2,1-0.4,1.3-0.5c2.6,13.8,4.6,27.9,6.5,42.1c3.3-0.4,6.1-1.4,9.3-1.6   c0.4-0.4,0.9-0.8,1.3-1.1c0.2,0.5,0,1.2,0.9,1.2c1.1-2.1,2.6-3.6,4.6-4.9c1.1-21.3,0.4-43,6-64.1c0-13.8,0.5-27.1,6.3-39.8   c0.6,0.3,1,0.5,1.5,0.8c1.2-4.2,2-8.4,4.3-12.3c2.1-4.3-0.6-9.1,1.5-13.4c4.5-7.8,7.5-15.9,8.3-25   C311.6,379.6,306.4,380.3,301.2,378z M277.1,219.2c-0.4-0.4-0.8-0.8-1.7-1.7c0.2,1.1,0.1,1.6,0.7,1.8c1.8,3,2.3,8.5,5.9,9.5   c11.3-1.7,20.6-5.8,30.9-9.9c16.7-9.6,26.5-27.6,41.9-39.2c1.7-8.9,11.5-14.7,12.8-23.9c-0.5-1-1.3-2.1-1-3.4   c1.6-1.9-2.5-1.7-1.7-7c-6.9-3.3-19.9-13.5-17.7,1.9c0.7,0.3,1.5,0.6,2.2,0.9c1.9-3-1.2-3.2,3.4-5.4c0,3-1.8,5-1.9,7.6   c-10.5,0.5-2.8-10.7-8.9-15.6c-2.9-0.6-5.3,0.3-4,3.7c2.3,10,1.8,20.3,5.6,30c-0.2,1.4,0.3,3.1-0.8,4.3   c-7.9,17.6-13.6,34.2-34.1,40.6c-2.5,4.1-8.3,3.3-12.1,5.6C290.4,221.3,284.4,221.7,277.1,219.2z M326.8,578.9   c1.9,0,3.7-0.7,5.5-1.4c0.1-6.5-6-7.2-10.5-9.8c-3.1-1.6-6.1-4.8-8.9-6.5c-3.4,0.8-6.6,2.2-9.7,0.4c0.6-0.4,1.2-0.8,2.3-1.6   c-3.1,0-5.4,0-7.7,0c3-3.5,7-1.8,10.8-3c-4-2.3-10.4-0.1-15.3-1c0.3-0.7,0.5-1.1,0.7-1.6c-1.2-0.2-2.1-0.3-3.6-0.6   c3.6-2.1,7.4-2.1,11.1-2.8c-0.4-0.6-0.6-1.1-0.9-1.5c-3.4,0-7.7,1.5-10.5-0.3c3.1-1.8,6.9-0.7,9.9-2.4c-1.2-3.8-0.6-9.1-4.4-11.3   c-0.6,0.2-1,0.3-1.4,0.5c-0.9-0.4-1.5-1.4-2.8-1.3c-1.4,1.1-2.8,2.4-4,4.2c0.2,2.6,1,5.4,0.7,8c-5.2,0.8-8.9,6.7-14.2,5.8   c-0.3-0.5-0.5-0.8-0.7-1.2c-0.9,0.5-1.6,0.8-2.3,1.2c-0.6-0.3-1.2-0.6-1.7-0.9c-1.1-2.4,0-4.9-0.5-7.7c-2.4,3.1-2.1,7.1-1.3,10.8   c-2.2,5-0.3,11.2-3.4,15.9c-1.2,2-1.3,4.3-2,6.6C283.5,578.6,305.5,584.7,326.8,578.9z M295.6,248.3c75.2,16.1,51.3,14.3,63.1-36.4   c-7.7,5.8-20.5,6.6-29.2,2.2c-1.2-1-2.8-1.6-4.7-0.7c-11.7,10.4-27.3,15.4-42.7,18.2c-0.4-0.2-2.3-0.4-2.9-0.4   c-1,3.4-1.6,10.3-1.2,13.2C283.4,246.8,289.8,246.8,295.6,248.3z M316,535.3c0.5-16.1-0.1-32.2,0.4-48.3   c-7.9-20.5-6.9-36.7,1.8-56.8c-3.3-9.5,0-19.7-4.9-28.6c-1,2.2-1.9,4.3-3,6.8c2.9,14.1-8.8,26.3-11.6,39.7   c2.2,28.7-10.9,56.2-5.1,84.9c8.5,0.3,8.9,9.9,9.9,16.5c1.1,0.9,2.3,1.5,3.9,1.7C306.5,542.6,306,537.5,316,535.3z M271.6,548.9   c3.4-0.7,6.5-4.9,9.9-2.6c1.4-0.7,2.6-1.3,3.8-1.9c0-1.1,0-2.1,0-3.6c-2.2,1-4.2-0.7-6.4,0c-2,0.6-4.3,0.6-6.4,1.6   C272.3,544.4,272,546.4,271.6,548.9z M369.4,126.5c-2-6.1-6.8-8.4-12.4-10c-0.1,2.2,2,3,2.6,4.8c0.6,1.8,1.3,3.6,2,5.3   C364.3,126.8,366.8,127.2,369.4,126.5z M390.1,138.6c-2.7-1.3-4.2-3.3-7.1-3.4c1.8,3.1,2.4,6,4.7,8.4   C388.2,141.7,388.4,139.9,390.1,138.6z M346.9,261.5c0.9-0.2,1.4-0.4,2-0.6c-0.1-1-0.2-1.8-0.3-2.8c-0.8,0.4-1.2,0.6-1.7,0.8   C346.9,259.8,346.9,260.4,346.9,261.5z M350.5,260.8c1.4-1.2,1.4-1.2,0.6-3.5C349.6,258.3,350,259.5,350.5,260.8z M304.2,552.5   c-0.7,0.4-1.4,0.7-2.7,1.4c2.1,0,3.4,0,5.5,0C305.7,553.3,305,552.9,304.2,552.5z M352.5,256.9c0.2,0.9,0.4,1.9,0.8,3.4   C353.6,257.6,353.6,257.6,352.5,256.9z M397.1,136.5c-1.3-1.3-1.3-1.3-2.1-0.1C395.7,136.4,396.3,136.4,397.1,136.5z M302.2,137.7   c0-0.1,0-0.3,0-0.4c-0.7,0-1.3,0.1-2,0.1c0,0.2,0,0.3,0,0.5C300.8,137.8,301.5,137.7,302.2,137.7z" />
	<path d="M305.9,55.8c-2.3-2.3-0.6-4.9-0.7-7.7c-3.7-5-4.2-11.7-1.6-17.3c1.7-3.3,0.5-8.5,5-9.5l0,0c1.3,2,3.1-4.1,7.4-0.2   c0.9-0.9,2.1-1.5,1.3-3c-1.2,0.2-2.3,0.3-3.2,0.5c-1.6-3.6-4.3-0.7-4.7-3.4c0.6-1.1,0.2-2.8,1.3-3.5c1.4,0.2,1.6-1.2,2.5-2   c-0.5-0.4-0.9-0.9-1.4-1.3c-0.4,0.6-0.5,0.9-1,1.2c-0.2-0.3-0.5-0.5-0.7-0.8c-0.1-0.7-0.1-1.4-0.2-2.1c1-1.1,2.1,0.1,3.1-0.3   c1.1,1,2.1,1.9,3.1,2.7c4.6,0.2,7.6-2.6,10.4-5.3c2,0.3,1,1.9,1.6,2.9c1.5-0.5,2.3-1.9,3.2-3.1c5.3,0.3,10.4-1.3,15.3,0.6   c3-1.2,7-2.6,10.6-2.1c0.2,0.5,0.4,1,0.6,1.5c2-0.5,2.4-3.1,4.6-3.6c1.5,2.1,0.3,4.6,0.8,6.9c1.8-0.5,4.5-2.8,6.1-0.6   c0.1,2.1-1.9,2.4-3.2,3.6c1.6,0.5,3.3-0.4,4.7,0.5c-0.1,1.4-0.2,2.9-0.2,4.4c-2.2,2.8-6.3,3.3-8.4,6.8c-0.3,3.9,3.1,11.2,0.7,14.3   c-3.2-3.2-2.2-8.8-3.2-13c-5.2,2.1-11.3,0.6-16.5-0.1c-1.8,0.4-3.2,0.7-4.5,1c-0.1,0.6-0.2,1.2-0.3,1.7c-0.5,0-1,0.1-1.5,0.1   c0,0,0,0,0,0c0.9-3.1-3.4-3.7-5.3-5.1c-1.1,0.9-3.1,1.9-2.5,3.3c0.5-0.3,1-0.6,1.4-0.8c1,0.4,2,0.5,2.9,0.6   c1.2,1.4,1.7,2.8,1.5,4.5c-0.7,0.4-1.3,0.8-2,1.1c0.1,0.4,0.3,0.7,0.4,1.2c-1.3,0-2.6,0-3.9,0c-4.5,7.8-7.8,15.5-11.2,23.8   c-0.3,0-0.7,0-1.2,0.1c0-1.2,0.5-2.6-0.7-3.3c0.2-2.1-3.5-12.5-4.8-6.4c-0.1,0.7-0.2,1.3,0.7,1.5l0,0c0.4,0.6,0.8,1,1.3,1.5   c0,0,0,0,0,0c1.1,2-0.8,1.3-2.1,1.5c-0.3-0.4-0.5-0.8-0.8-1.1c0-0.5-0.2-0.8-0.7-0.8l0,0c0.8-1.7,0.8-1.7-0.5-2.9   c-2.9,2.5-2.2,6.2,0,8.9c0.2,2.6,3.1,3.8,3.7,6.3c-0.3,0.2-0.5,0.4-0.8,0.6c-0.9-0.3-1.7-0.5-2.9-0.9c0.5-0.3,0.9-0.6,1.2-0.8   c-0.4-1.5-1-2.8-2.2-3.4C307.5,55.1,306.7,55.5,305.9,55.8z M321.2,18.5c1.2,0,1.6-0.6,1.2-1.8c-1.2,0.4-0.9,1.4-1.4,2.3   C321,18.8,321.1,18.7,321.2,18.5z M343.3,17.8c-0.5-0.2-1-0.5-1.8-0.8c-0.3,0.3-0.6,0.6-1,0.9c3.2,2.2,7.9,3.8,11.9,3.8   C349.1,19.7,346.1,18.9,343.3,17.8c1.4-0.5,1.4-0.5,1.8-2.5C343.9,15.8,343.2,16.5,343.3,17.8z M326.4,17.1   c-1.9,1.7-4.1,2.6-4.4,5.2C323.7,22.8,327.4,18.9,326.4,17.1z M365,16.2c1.8-1.8,1.8-1.8,2.6-4C365.1,11.7,362.3,14,365,16.2z    M339.9,12.9c1.6-1.2,2.9-2.2,3.8-3.9c-2,0.1-2,0.1-3.8,1.1C339.9,10.8,339.9,11.7,339.9,12.9z M311.5,32.1   c0.3,2.4-0.8,4.7,0.6,6.1c0.5-1.8,1.1-3.8,0.9-5.4C312.8,32.7,312.5,32.5,311.5,32.1z M326,10.1c-2.4,0.3-3.7,1.6-5.7,2.9   c1.8-0.1,2.9-0.1,3.9-0.2C324.8,12,325.2,11.3,326,10.1z M325.2,32.6c1.9-1.6,4.6-4.2,1-4.5C326,30.2,325.9,30.3,325.2,32.6z    M320.3,44.3c-1.5,1.5-1.7,1.9-2.4,3.8C319.7,47.8,320.8,46.1,320.3,44.3z M357.7,8.8c2.3,0.1,3.1-3.3,1-3.1   C358.4,6.6,358.1,7.5,357.7,8.8z M319.3,38c1.3-1.5,2.3-1.8,1.5-3.6C319.2,35.4,319.2,35.4,319.3,38z M317.1,33.7   c-1.5,1.4-1.7,1.8-1,2.6c0.7-0.4,1.5-0.9,2.4-1.5C317.9,34.3,317.5,34,317.1,33.7z M332.6,7.5c1,0.5,1.6,0.8,2.2,1.2   c0.3-0.5,0.4-0.8,0.5-1C334.7,6.8,334,6.4,332.6,7.5z M335.8,14.8c1.2-2.5,1.2-2.5,0.6-3.7C335.4,12.2,335.6,13.4,335.8,14.8z    M354.4,20.9c1,1.2,1.9,1.3,3.2,0.7C356.7,20.5,355.8,20.3,354.4,20.9z M347.3,14.9c0.9-0.3,1.5-0.7,1.2-1.8   C346.8,13.8,346.8,13.8,347.3,14.9z M315.7,12.3c-0.1-1.9-0.1-1.9-1.6-1.4C314.8,11.4,315.2,11.8,315.7,12.3z M352.4,20.2   c-1-1.7-1.7-1.9-3.1-1.2C350.4,19.4,351,19.7,352.4,20.2z M340.3,16.6c-1.5-0.2-2.4,1.2-0.9,1.9C339.7,17.8,340,17.3,340.3,16.6z    M347.6,10.7c0.6,0,1.1,0,2.3,0C348.8,9.5,347.7,8.8,347.6,10.7z" />
	<path fill="#2F1514" d="M305.9,55.8c0.8-0.3,1.6-0.7,2.6-1.1c1.2,0.6,1.8,1.9,2.2,3.4c-0.4,0.2-0.7,0.4-1.2,0.8   c1.2,0.4,2,0.7,2.9,0.9c0.3-0.2,0.5-0.4,0.8-0.6c0-0.7-0.5-1-0.9-1.6c0.9,0.1,1.7,0.2,2.8,0.4c-4.1,12.6-1.8,28.1-12.7,37.1   c-1.8-1.4,1-3.4,1.6-4.9c-0.4-0.3-0.6-0.5-0.9-0.8C310.9,80.4,309,66.5,305.9,55.8z" />
	<path fill="#0B0B0A" d="M363.3,48.9c2.4,7.5-3.3,34.6-9.5,39.4c-0.3-0.3-0.6-0.5-0.9-0.8c6.1-12.3,7.8-26.3,8.9-39.9   C362.5,48.2,362.9,48.5,363.3,48.9z" />
	<path fill="#110F0F" d="M363.3,48.9c-0.4-0.3-0.8-0.7-1.5-1.2c0,2.5,0,4.8,0,7c-1.3-2.6,0.3-5.5-0.7-8.2c-2.2,0.8-3.9,1-6.1,0.6   c-0.2,0.4-0.4,0.8-0.6,1.2c-1-0.5-0.5-1.6-0.8-2.3c0.4-4.2,5.6-5.1,8.8-6.7c0.2-1.1,0.5-2.2,0.7-3.3c0.8-0.2,0.9-0.9,1-1.6   C367.4,38.2,361,44,363.3,48.9z M357.5,43.6c0,0.2,0,0.3-0.1,0.5c1.2,0.2,2.3,0.3,3.8,0.5c-0.1-0.8-0.1-1.3-0.2-1.8   C359.7,43,358.6,43.3,357.5,43.6z" />
	<path fill="#221918" d="M352.9,87.5c0.3,0.3,0.6,0.5,0.9,0.8c-1.9,2.1-5.4-0.2-7,2.8c-0.1-0.4-0.2-0.8-0.3-1.2   c-0.7,0.1-1.3,0.2-1.9,0.3c-0.6-2.3-4.4-2.5-6.4-3.3c0.8-0.3,1.5-0.8,2.3-0.9c0.1,0.1,0.4,0.2,0.6,0.1c0.9,1.1,2.2,0.5,3.4,0.7   C347,88.4,350.2,87,352.9,87.5z" />
	<path fill="#181818" d="M308.7,21.3c-0.5,0.2-1,0.4-1.5,0.6c-0.5-1.2,0-2.2,0.7-3c-0.3-0.5-0.6-0.9-0.9-1.5   c0.8-0.8,1.6-1.6,2.4-2.3c0.3,1.3,0.3,1.3,2,1.3c-0.5,0.4-1.4,0.5-1.6,1.1c0.3,0.3,0.6,0.6,0.9,1C310.1,19.5,309.4,20.4,308.7,21.3   z" />
	<path fill="#232323" d="M310.9,9.5c0.5-0.2,0.6-0.6,1-1.2c0.5,0.4,0.9,0.9,1.4,1.3c-0.9,0.7-1.1,2.1-2.5,2   C311.4,10.9,311.5,10.2,310.9,9.5z" />
	<path fill="#232323" d="M310,6.6c0.1,0.7,0.1,1.4,0.2,2.1C309.1,7.6,309.1,7.6,310,6.6z" />
	<path fill="#232323" d="M310.3,8.8c0.2,0.2,0.4,0.4,0.6,0.6C310.7,9.2,310.5,9,310.3,8.8z" />
	<path fill="#5876E8" d="M344.7,264.2c1.3-0.4,2.6-0.8,4.1-1.3c0.2,0.1,0.6,0.4,1,0.7c0.4-0.3,0.8-0.6,1.2-0.9   c0.3,0.4,0.6,0.7,1,1.1c0.5-1.4,1.7-1.7,2.8-2.1c13.7,36.4,16.9,77.8,19.1,116.5c-7.4,2.4-14.6,4.3-22.3,3.9   c-1.5-1.5-3.9-0.3-6.1-0.7c6.2-5.1,0.2-13.5,2.7-17.3c3.1,3.6,5.9,9.5,11.5,9.1c0.4-10.9-12.5-17.4-17.8-25.7   c0-4.9-3.4-10.9-1.3-15.2c0.7-0.2,0.6-0.7,0.5-1.2c0.1-0.2,0.3-0.3,0.6-0.7c4.9,5.3,9.3,11.7,15,15.6c-1.8-8.9-10.3-22.7-19.5-25.7   c-0.1-0.5-0.2-0.8-0.3-1.2c5.9-0.8,17.9,9.9,23.3,13c-5-8.1-15.5-10.6-23.1-16c-1.9,1.4-2,4.5-3,6.6c-4.6,3-0.3,9.4-1.4,13.8   c-4.8-0.1-3.6,6.8-6,9.6c-0.6-0.1-1.2-0.3-2-0.5c-1.9,4.5-6,4.7-9,7c0.3,0.3,0.6,0.6,0.8,0.9c-0.3,0.7-0.6,1.3-1,2.1   c4,0.3,7.1-3.3,10.1-5.9c-2.1,8.9-4,17.4-5.2,26.4c-5.5-0.7-10.8,2.5-16.2,0.3c-7.9-3.1-17.2-2-24.7-5.3   c-0.3-7.2-1.9-13.2,0.3-20.4c1.5-1.1,0.3-5.1,2.2-4.9c3,6.1-0.3,12.3,3.8,18.2c4.1-4.1-0.6-17.2,4.5-18.1   c-7.3-31.1-4.4-11.7-1.6-42.3c1.3-13.8,0.4-27.6,3.4-41.3c2-1.6,3.3-3.9,4.5-6.1c0.3,0,0.5,0,0.8,0c0.2-0.9,0.5-1.7-0.4-2.4   c-0.1-0.4-0.2-0.8-0.2-1.2c1.8-2.1,5.2-0.1,7.6-0.1c10.4,2.7,21.9,5.7,33.2,6.3c0.9,1.3,0,2.3-0.5,3.3c-1.3,0-2.4,0-3.6,0   c0.2-0.8,0.3-1.6,0.5-2.4c-1.6,0.4-1.6,1.8-2.1,3c-1.2-0.1-2.5-0.3-3.5,0.2c2.6,3,0.6,7.3,2.4,10.3c1.2-3.3,0.2-5.7,1-9.1   c1.5,0,2.9-0.1,4.3,0.2c1.7,11.2,5.3,22,7.3,33.2c0.1,0,0.2,0,0.2,0c0-1.2,0.1-2.5,0.1-3.7c2.5,0.3,3.7,4.3,6,3.7   c-1.6-3.5-3-7-6.5-7.2c-0.4-3.3-2.1-6.3-2.2-9.6c2.2,1.6,3.6,3.9,6.5,4.5c-2.2-2.6-3-7.2-7-5.9c-1.6-4.6-2.4-9.4-2.7-14.2   c2-0.2,2-0.2,3.3,0.4c-0.5,1.1,4.6,10.2,5.5,8.1c-2.2-2.4-2.7-5.8-5-8.1C342.6,264.9,343.7,264.6,344.7,264.2z M339.8,305.6   c-0.7,0.2-0.7,0.8-0.7,1.4c-0.5,1.7-1.4,3-1.2,4.9c1.3-1.1,1.6-2.3,2-3.5c5.7,2.4,9,12.2,15.6,13.5c-3-5.8-8.6-10.7-12.9-15.6   c-0.7,0-1.4,0-2.1,0c-0.4-1.2,1.4-1.9,0.3-3.2C339.7,303.6,339.8,304.6,339.8,305.6L339.8,305.6z M328.8,323.4   c0,0.7-0.4,1.5,0.8,2.2C333.7,322.6,330,317.9,328.8,323.4z M316.3,258.7c-1.5,0.1-2.9-1.1-4.5-0.6c2.1,2.8,6.6,1.6,9.6,3.2   c0.1-0.2,0.2-0.4,0.3-0.6C319.8,260.1,318.3,259,316.3,258.7z M353,274.5c-0.8-2.2-1.6-4.3-3.3-6.1c-0.5,4.2,3.7,8.3,5.5,12.3   C355.6,278.8,355.3,278.1,353,274.5z M324.6,282.8c2.3,5,4.2,10.5,8.1,14.5c-2.3-6.7-6-13.2-10-19.3   C322.6,280.2,323.5,281.5,324.6,282.8z M355.6,294.6c2.4,5.7,4.9,11.5,7.4,17.3c3.3-2.7-7.1-18.6-9-22.5   C353.9,291.2,355,292.8,355.6,294.6z M319.4,277.8c1.3-3.3-0.8-23.5-4.5-13.7c0.4,5.7-1.3,12.6,2.5,17.3   C318.3,279.9,319,278.6,319.4,277.8z M307.2,276c-2.1,3.8,0.4,9.7,1.4,14.1C309,285.3,309.2,280.2,307.2,276z M309.2,260   c-2.8,4.1-5,8.2-3.7,13.4c0.6-2.8,1.1-5.7,2.8-8.3C308.7,263.6,311.7,261.1,309.2,260z M305.9,253.8c-3.2,2.3-1.8,0.9-4.4-0.7   c-0.3,0.9-0.6,1.8-0.8,2.5c0.6,0.7,1.1,1.4,1.6,2c0.3-0.4,0.6-0.7,0.8-0.9c1.8-0.2,3.6,0.8,5.1-0.7c0-0.4,0-0.8,0-1.3   C307.3,254.4,306.5,254.1,305.9,253.8z" />
	<path fill="#FBDFD3" d="M348.1,384.9c4.2-0.2,8.4-0.3,12.8-0.5c-7.9,11.2-2,17-4.6,28.5c0.2,4.7-3.8,8.6-2.7,13.3   c-1.7,7.2,0.9,14.5-0.1,21.9c-1.6,27.3-14.4,52.2-16.2,79.6c-1.5,1.2-3.8,1.5-4.5,3.6c-1.6-1.3,0.4-3.7-1.3-4.8   c-1.5,1.9-0.4,5-1.5,7.4c-2,0.2-3.8,1.3-5.7,0.7c0.7-7,1.3-14-0.2-20.8c-0.6,0.9-0.9,1.4-1.5,2.3c-0.8-11.9,2.6-23.1-0.8-34.7   c0.8-1.3,1.6-2.7,2.2-3.7c6.9-0.6,10.2-9.3,9.6-15.5c-1.4,1.4-1.4,3-1.9,4.4c0.3,0.6,0.5,1.1,0.7,1.4c-1.9,3.5-6.5,4-7.7,8   c-0.9,0.5-1.7,1-2.6,1.5c-4.2-12.8-5.4-31.9-0.1-44.9c0.9,0.7,1.8,1.4,2.7,2c0,1.8,1.6,2.4,2.6,3.4c1,0,1.9-0.1,2.6-0.1   c6.7-7.3-4.4-17-7.3-24.1c1.5-6.5-1.3-13.8,0.5-20.3c0.6,1.1,1.1,2.1,1.5,3c-1.2,1.9,0.4,2.7,1.4,4.3c1.2,0,2,0.7,2.4,1.7   c-0.3,0.5-0.6,0.9-0.9,1.4c0.2,2.6,4.4,3.3,5.7,4.5c1.7-0.5,3.6,0.1,4.3-0.8c-1.4-0.7-2.7-1.4-4-2c0.2-0.4,0.4-0.8,0.6-1.2   c-1.6-5.2-4.6-9.6-6.2-14.8C334.5,387.5,342.1,387.6,348.1,384.9z M342.6,433.2c-0.6-0.8-1.4-1.3-2.9-1.3c1.9,1.4,2,3.2,4.2,3.6   C344.3,434.3,343.3,433.8,342.6,433.2z M350.8,420.8c0.3,0.8,0.6,1.6,1.8,1.9c-0.3-2-1.4-3.2-1.9-5.1c2.3-4.1,1.2-7.9-0.6-12   c3-4.4,4.1-9.1,2.9-14.6c-1.1,0.8-1.4,1.7-1.4,2.5c0.1,8.4-7.1,12.7-12.1,16.4c0-0.2,2.6-0.3,3.7-0.4c0.7,3.9,0.6,8.7,5.7,9   C349.7,419.4,350.3,420.1,350.8,420.8z M339.4,431.4c-2.6-3.6-4.2-5.1-7.4-6.9C333.6,427.9,335.5,430.1,339.4,431.4z M346.6,424.8   c1.6-4.1-3.2-6.6-2-1.2C345,424.4,345.5,424.9,346.6,424.8z M334.8,456.2c-2.1,3.2-2.1,3.5-1,5   C335.2,459.2,335.2,459.2,334.8,456.2z M327,417.2c1.2,3.1,1.2,3.1,3.2,4.1C329.7,419.3,328.7,417.9,327,417.2z M332.1,521.1   c-1.4,1.3-1.4,1.9-0.1,3.7C332.5,523.6,332.3,522.4,332.1,521.1z M333.5,509.8c-1.5,1.2-1.6,2.2-0.9,3.5   C334,512.5,333.6,511.4,333.5,509.8z M333.9,446.7c1.8-1.2,0.4-2.4,0.2-4.5C333.1,443.9,333.5,445.1,333.9,446.7z M331.6,516.4   c-0.2,1.5-0.2,2.1,0.1,3.8C332.5,517.9,332.5,517.9,331.6,516.4z M334.2,450.4c-0.3,1.5,0,2.6,0.2,3.8   C335.9,453.3,335.6,451.7,334.2,450.4z M354.9,387.3c-0.4-0.2-0.7-0.3-1.2-0.5c0,0.8,0,1.4,0,2.1c0.1,0,0.3,0.1,0.4,0.1   C354.4,388.5,354.6,387.9,354.9,387.3z M333.7,505.4c0.2,0,0.3,0,0.5,0c-0.1-0.5-0.1-0.9-0.2-1.4c-0.2,0-0.3,0-0.5,0   C333.6,504.5,333.7,505,333.7,505.4z" />
	<path fill="#FBDFD3" d="M282.5,537.4c-1.2,0.1-2.6,0.3-3.7-0.1c-2.5-26.1-11.6-50.9-13.5-77c-2.6-8.3,2.7-16,5-23.8   c2.4-5.6,3.2-12.1,6.4-17.2c0.3,1.1,0.4,1.8,0.7,3c0.3-1.1,0.5-1.8,0.7-2.8c1.2,3.9,2.6,6.8,3,10.5c-1.5-1-2.3-2.6-4-3.4   c-0.3,0.4-0.5,0.7-0.8,1.1c5,3,7.7,7.1,10.9,11.6c-0.5-5.3-5.7-8.4-3.5-13.9c0.1-1.8-1.6-4.6,0.3-6c-0.1-3.2-2.3-6.1-1.4-9.7   c0.1-0.6,0.2-1.3-0.7-1.9c-0.3,0.4-0.6,0.8-0.9,1.3c-0.3,0.1-0.6,0.3-0.9,0.4c-2.1-3.1-0.8-7.4-1.9-10.9c-0.5-4.2-2.9-8.3-2.5-12.5   c1.9-1.1,3.7-2.1,5.5-3.1c3.1,1.6,7.9,0.2,10.4,2.2c-0.1,0.3-0.2,0.6-0.4,1.1c3.9-0.7,6.8-2.8,10.9-2.3c0.2,0.4,0.6,1.1,1,1.7   c0,0.5,0,0.9,0,1.4c-0.9,1.2-0.9,2.3,0,3.4c0.5,1.6,0.5,3.4,1.5,4.8c1.4,2.5,0.6,8.6,4.3,8.3c-2.1,4.4,0.6,9.2-1.5,13.4   c-2.2,3.9-3.1,8.1-4.3,12.3c-0.5-0.2-0.9-0.4-1.5-0.8c-5.8,12.8-6.3,26.1-6.3,39.8c-5.5,21.1-4.9,42.8-6,64.1   c-2,1.3-3.5,2.9-4.6,4.9c-2.2-0.6,0.6-3.2-2-3.8C282.6,534.9,282.5,536.1,282.5,537.4z M268.8,469.2c2-6.2,3-14.1,2.3-16.1   c-4.5,5.7-2.7,14.1-3.6,20.7C269.6,473.1,268.4,470.7,268.8,469.2z M273.4,445.7c-0.2-3.1,4.5-8,1.8-10.1   c-1.4,3.2-1.8,6.6-2.3,10.1c-0.8,0.8-0.8,1.6-0.2,3C272.9,447.4,273.2,446.5,273.4,445.7z M286.6,402.2c0.2-2.2,3.5-5.9,1.3-7.3   c-1.9,1.7-3,7-2.7,10.1c-1.3,2.4,1.6,5.1,2.2,7.4c-0.1,3.2,1.6,6.2,3.4,8.4c-3.6,15.9,14.8,1,0.3-13c-1.2,0-2.1,0-3,0   c-0.7-0.9-1.5-1.8-2.2-2.7C286.2,404,286.4,403.1,286.6,402.2z M285.2,422.3c3.8,7.2,6.4,14.6,9.6,22.1c0.3-1.6,0.5-2.7-0.4-3.7   c-1.1-7.6-5.3-14.3-9.3-20.7C284.3,421,284.5,421.7,285.2,422.3z M305.3,417c-0.9-1.1-2.6-0.5-3.1-2.3c-0.4-1.2-3.7-1.5-3.9,0.1   c2.5,2.3,2.6,2.4,6.8,2.8C305.1,417.4,305.2,417.2,305.3,417z M280.6,385.2c-0.6,3,7.1,5.7,8.8,3.3   C286.2,387.8,283.3,387.4,280.6,385.2z M280.8,508.7c-0.5,2.5-0.9,5-0.1,7.8C281.9,513.9,282,512.2,280.8,508.7z M282.2,528.4   c0.9-1,0.2-1.9,0-2.8C281.9,526.5,281.2,527.4,282.2,528.4z" />
	<path fill="#4B65C5" d="M299.3,251.7c-0.8,0.2-1.9-0.2-2.3,0.9c-0.6-0.3-1.1-1.2-2-0.1c0.7,0.7,0.9,2.1,1.9,2.3   c0.1-0.4,0.2-0.7,0.3-1c0.8,0.7,0.6,1.6,0.4,2.4c-0.2,0-0.5,0-0.8,0c-0.3,0.5-0.7,1.2-1,1.8c-0.1-0.9,0.4-2-0.9-2.8   c-1.5,2.9-4.5,5.4-4.9,8.4c0.8-0.5,1.5-0.9,2.2-1.3c-3,13.7-2.1,27.5-3.4,41.3c-2.8,30.7-5.6,11.3,1.6,42.3   c-5.1,0.8-0.4,14.1-4.5,18.1c-4.1-5.8-0.8-12.1-3.8-18.2c-1.9-0.2-0.7,3.9-2.2,4.9c-2.2,7.2-0.6,13.3-0.3,20.4   c-8.4-1.4-15.9-6.6-24.5-2.7c8.7-47.8-6.7-72.4,22-117.7c0.6-0.2,0.5,0.8,0.6,1.2c0.2-0.1,0.4-0.2,0.6-0.2c4,1.5,8.4,3.4,12.7,1.9   c-0.1-2.5-1.2-4-1.2-0.5c-1.4,0-2.7,0.2-3.7-0.8c-0.1-1.1-0.3-2.1-0.4-3.2c-2.2-0.1-0.6,2.1-1.1,3.1c-0.3,0.1-0.5,0.1-0.7,0.1   c0-1.1-0.1-2.2-0.1-3.3c0.3-0.3,0.6-0.6,0.9-1C289.7,248.9,294.6,249.6,299.3,251.7z M285.2,268.3c0.1-2.3,0.7-4.6-0.8-6.7   c-2.5,1.4-0.4,4.5-0.5,6.7c0,0.9-0.3,1.9,0.6,2.8C285.6,270.2,285.2,269.2,285.2,268.3z M274.2,292.4c-4.5,17.5-3,36-4.8,53.8   c-1.5-0.4-1.8,0.6-0.6,1.5c2.9,4.7,3.8,11.2,8.1,14.8c-0.3-2.1-3.3-9.5-6.1-14.8c2.6-18.7-1.7-40,6.2-57.2c0.4-4.1,2.5-10,1.1-13.7   C276.7,282.1,275.5,287.2,274.2,292.4z M282.1,254.6c-3,1.5-3.9,11.3-4.4,14.8C279.8,264.8,283.4,259.6,282.1,254.6z M263.4,345.1   c-1.9,5.8-0.9,12.7,0.2,19c2.2-2.3,0.1-5.6,0.4-8.4C263.2,352.5,265.5,347.6,263.4,345.1z" />
	<path fill="#35A65F" d="M316.4,207c-1.7,1.3-3.4,2.6-5.7,4.3c0.6-2.7,2.2-4.2,2.6-6.5c-2.5,0.8-4.1,3.1-5.1,5.3   c-1.4,3.5-4.2,4.8-7.8,5.1c-5.2,0.8-9.7,4.2-15.2,3.3c-10.4,2.2-9.2-10.6-13.4-16.9c-0.8-5.7-7.8-8.4-6.8-14.3   c0.5-10.3,8-17.6,12-26.7c0.2,0.2,0.4,0.5,0.4,0.4c4.5-3.7,10.4-3,15.2-4.4c-0.8-0.7-1.7-1.4-2.5-2.1c2.2,0.1,4.2,1,6.2,1.8   c-0.2,9.1-6.9,17.6-7,26.3c5.3-7.5,10.2-14.9,14.4-23.1c0.4,0.5,0.7,0.9,1,1.2c0.2,2.1,1.1,3.7,3.3,4.2c5.5,4.6,5.5,11.8,7.4,18.3   c-0.8,0.8-1.6,1.7-2.4,2.6c1.5,0.7,1.8-0.7,3.3-1.1c0.6,3.5,1.7,6.4,1.5,9.7c-1,0.4-1.7,1.1-2,2.1C317.1,200,317.7,203.5,316.4,207   z M279.8,209.7c3.8-1.4,7.2-3.6,10.7-5.7c-4,0.2-9.4,3.1-11.1,6.2C279.6,210,279.7,209.9,279.8,209.7z M274.3,190.3   c0.3,0.4,0.5,0.8,0.8,1.3c0.7-1,0.5-1.6-0.2-2.1c-1.5-7.6,0.2-14.8,1-22.1C272.2,174.2,273.4,182.9,274.3,190.3z M298.3,190.4   c-9.8,0.1-19.9,2.9-29.4,3.9c5.7,2.5,12.6-1.2,18.7-1.6c3.6-0.6,7.1-1.6,10.8-1.7c1.4,0,2.8,0.2,3.7-1.4   C300.7,189.9,299.5,190.2,298.3,190.4z M309.3,176.2c-2.8,3-4,5.2-4.2,7.7C306.5,183,307.6,181,309.3,176.2z M277.9,181.5   c-1.3,1.4-2.7,2.8-2,5.4C277.3,185.3,277.6,183.4,277.9,181.5z" />
	<path fill="#FBDFD3" d="M260.4,119c4.4-5.6,11.3-6.1,17.7-6.9c-0.5-0.5-0.8-1-1.3-1.5c1.6-2.2,3.3-4.3,5.5-5.9c1,0.3,1.9,0.5,3,0.8   c3.8-2.3,7.2-5.2,11.6-6.3c2.3,3.8,4.3,7.7,6.2,11.7c-3.1-0.3-12.4-3-14,0.5c0.9,0.2,1.7,0.3,2.4-0.4c4.1,0.1,8.2,1.1,12.3,1.2   c3.1,5.5,4.1,11.6,4.7,17.8c-8.1,1.3-12.8,7.4-19.3,11.3c-13.2,8.4-17,25.5-25.3,37.9c-3.1-4-1.7-9.1-2.7-13.6c2-0.5,4-0.6,5.2-2.2   c1.6,0.6,3.2,0.8,4.6,0.3c1.5-5-3.6-7.5-6.3-10.7C258.2,143.6,254.3,129.8,260.4,119z M267.7,116.5c-2.9,1.6-5.7,5-4.1,8.3   c1.9-2.3,4-4.9,4.8-7.7C268.3,117,268.1,116.9,267.7,116.5z M280.7,110.9c2.5,0.1,4.3,0.4,5.9-1.1   C283.8,109.4,283.8,109.4,280.7,110.9z M294.6,134.5c0.1-2.7,0.4-4.4-1.9-5.3C293.9,130.7,292.8,132.7,294.6,134.5z M292.5,126.9   c0.7-1.6,0-1.6-0.8-1.6C291.6,126,291.9,126.1,292.5,126.9z M289.1,121.1c0.1-0.3,0.4-0.6,0-0.8   C288.7,120.5,288.8,120.7,289.1,121.1z" />
	<path fill="#CCD2E9" d="M355.1,227.1c-1,24.4,4,34.2-24.9,28.1c-0.2-5.4-1.3-10.8-2.3-16.2c-1.1,5.3,0.7,10.8,1.6,16.2   c-11.4-0.4-22.6-4.5-33.8-6.9c1.6-4.9,1.5-10.1,2.5-14.8c2.2-0.3,4.2-1.4,6.4-1c0,1.4,0.2,2.6,2,2.8c5,2,3.2,8.8,2.9,13   c0.2,0.9,1.1,0.6,1.6,1c0.9,0.9,1.6,2.1,3.1,2.3c0.6-0.3,1-0.6,1.6-1c-0.4-7.3-4.5-13.2-7.1-19.6c3.8-1.3,7-5.1,11.2-4.4   c11.5,3.4,24.1,2,35.1-2.7C354.9,225,355,226.1,355.1,227.1z M337.7,237.3c-0.3-2.4-0.5-4.8-0.8-7.6c-1.9,2.2-0.6,4.1-0.6,6.5   c0.1,0.9-0.1,1.9,0.6,2.6c0.5,4.4-0.4,8.1,0.1,12.5C339.7,247.1,338.7,241.9,337.7,237.3z M320.4,237.3c2.2,7.6,4.5,13.8,6.4,16.6   c-3-8.1-4.3-19-9.5-25.2C318.4,231.6,319,234.7,320.4,237.3z M349.8,252c-0.4,1-0.8,1.8-0.1,2.8C350.4,253.9,350.4,253,349.8,252z" />
	<path fill="#E4E4EB" d="M303.8,557.4c-2.2,0.3-4.3,0.8-6,2.6c2.3,0,4.6,0,7.7,0c-1.2,0.8-1.8,1.2-2.3,1.6c-0.8,0-1.4,0.2-1.3,1.2   c3.7,0,7.1-0.5,11-1.6c2.8,1.7,5.8,4.9,8.9,6.5c4.5,2.6,10.6,3.3,10.5,9.8c-2.1,0.8-4.4,1.9-6.7,1.1c0.4-0.9,0.6-1.6,0.9-2.2   c-3.2-2.9-7.7,3.2-12,1.8c-15.9-2-31.9-1.3-47.7-3.9c-0.1-7.5,3-14.4,4.1-21.8c0.7-0.4,1.4-0.7,2.3-1.2c0.2,0.4,0.4,0.7,0.7,1.2   c5.3,0.9,9-5,14.2-5.8c0.4-2.7-0.5-5.4-0.7-8c1.2-1.8,2.6-3.1,4-4.2c1.3-0.1,1.9,0.9,2.8,1.3c0.4-0.1,0.9-0.3,1.4-0.5   c3.8,2.2,3.2,7.5,4.4,11.3c-3.5,2.1-9.5,0.1-11.9,3.9c4.5,0,8.1-0.9,12.6-1.2c0.3,0.4,0.5,0.9,0.9,1.5c-3.7,0.7-7.4,0.7-11.1,2.8   c1.4,0.2,2.4,0.4,3.6,0.6c-0.2,0.5-0.4,1-0.7,1.6C297,556.2,300.5,555.7,303.8,557.4z M310.9,565.2c-0.2,0.3-0.5,0.6-0.8,1   c2.6-0.2,4.4,3.3,6.6,0.7c-0.1-1.2-1.5-1.4-2.5-1.8c0.1-1.6-1-1.4-2.1-1.4C311.7,564.2,311.3,564.7,310.9,565.2z" />
	<path fill="#E4E4EB" d="M333.6,572c-14.6-10.6-21-6.2-20.7-27.5c-0.2-1.1-0.1-2.3,0.8-3c0.9,1.3,1.7,2.6,2.7,4.1   c2.9,0.4,5.4-0.4,7-3.3c2-2.5,5.4-3.3,8-5c0.3,0.2,0.5,0.5,0.8,0.7c0,0.5,0,0.9,0,1.4c-1.1,1.4-3.2,2.8-0.8,4   c-0.2,0.3-0.4,0.5-0.8,0.9c2.4,1.1,4.8,0.4,7.1,0.5c0,0.2,0,0.5,0,0.7c-1.4,0.8-3.5,1-4.1,2.7c0.8,2.1,4.5-0.6,4.3,2.6   c0.7,0.2,1.5,0.5,2.4,0.7c-0.1,0.5-0.2,0.9-0.3,1.5c1.8,0.4,3.5,0.1,5.3,0.1c0.7,0.4,1.6-0.2,2.1,0.7c-1.1,0.9-4.1,0.9-4,2.4   c4.7,0.2,9.2,5.2,13.6,3.4c0-0.8,0-1.5,0-2.4c0.6,0,1.1,0.1,1.5,0.1c4.1,5.2,10.1,4.4,15.8,6.5c1.4,1.9,2,4.1,2.2,6.4   c-0.1,0.8-0.5,1.7,0.5,2.3c0,0.5,0.1,0.9,0.1,1.4C362.5,575.3,348,575.9,333.6,572z" />
	<path fill="#FBDFD3" d="M389.6,148.1c0.2-0.6,0.4-1.3,0.6-1.9c2.9,0.3,6.7,2.6,9,1.7c-2.8-2.3-6.5-2.4-9.6-4.5   c0.3-1.1,0.6-2,0.9-3.1c4.3,1.1,8.1,3.3,13.1,3.2c-3-3.1-7.1-2-10-4.8c1.5-2,4.5,0,6.5,0c19.4,1.5,8.2,10,12.7,24.2   c0.5,2.9,1.6,5.8-0.2,8.6c-5.9,9.5-10.2,20.1-14.9,30.4c-7.4,10.8-17.8,19.3-26,29.7c-3.7-1-8-6.2-7-9.7c1,2,2.8,2.8,5.1,3.3   c0.5-0.3,1.2-0.7,1.8-1.1c0.2-3.2-2.2-5.5-1.2-8.9c7-6.6,12.5-14.4,20.7-19.3c3.7-4.9,4.7-11.9,7.4-17.5c0.6,0.1,1.3,0.2,1.9,0.2   c0.3,1.3-0.3,2.6,1,3.1c1-1,0.4-2.2,0.5-3.4c0.5-1.9,2.3-3.4,0.7-5.3c-4.2-4.7-3.5-10.7-5.1-16.2l0,0c2.2-0.4-0.3-3.4-0.5-4.6   C396,148.9,390.9,151.1,389.6,148.1z M407.8,162.2c0.7-2.8,0.7-3.1-0.7-4.3C406.7,159.5,406.2,160.9,407.8,162.2z M405.7,148.8   c-1,0.8-1.6,2.5,0.2,2.9C406.3,150.8,406.6,149.9,405.7,148.8z M406.5,155.4c0.5-0.8,0.4-1.5-0.1-2.3   C405.1,153.4,405.5,154.9,406.5,155.4z M409.8,149.3c1-0.5,1-0.9,0-1.4C409.8,148.3,409.8,148.8,409.8,149.3z M409.6,146.5   c0.1,0,0.3,0,0.4,0c0-0.5-0.1-1-0.1-1.5c-0.2,0-0.3,0-0.5,0C409.5,145.5,409.6,146,409.6,146.5z" />
	<path fill="#EECABA" d="M283.3,433.2c-1-0.7-1.9-1.3-2.9-2c2-2.8-1.8-8-2.4-11.7c-0.3,1-0.4,1.7-0.7,2.8c-0.3-1.2-0.4-1.9-0.7-3   c-9,19.3-15.5,39.9-8.7,61.1c-0.3,0-0.7,0-1.2,0c-0.1,1-0.2,2.1-0.4,3.7c0.9-1,1.3-1.5,1.7-2c4.9,18.2,8.2,36.4,10.7,55.1   c0.3,0.1,0.7,0.2,1.2,0.3c-2.1,1-4.4,0.8-6.7,1.4c-1.9-14.2-3.9-28.4-6.5-42.1c-0.6-3.4,2.1-6.1-0.6-9.2c-0.5,2.5,1.1,6.2-0.8,7.8   c-9.7-27.5-4.6-41.4,4.3-66.9c1.1,0.4,0.1,1.8,1.1,2.3c0.2-1,0.3-1.9,0.4-2.4c-0.5-1-0.7-1.5-1-2.1c7.3-17.8,1.4-35.4,0.6-53.6   c9.5,0.6,18.9,3.5,28.4,4.7c0.1,0.3,0.2,0.6,0.4,1c-2.2,2.7-5.2,4.6-7.8,6.8c-2.5-2-7.3-0.6-10.4-2.2c-1.8,1-3.6,2-5.5,3.1   c-0.5,4.2,2,8.3,2.5,12.5c1.1,3.5-0.2,7.8,1.9,10.9c0.3-0.1,0.6-0.3,0.9-0.4c-1.1,3.9-0.3,7.7,3,10.3c-1.9,1.4-0.2,4.1-0.3,6   c-0.3,2.1-1,4.4,0.2,6.5C282.9,432,283.2,432.6,283.3,433.2z" />
	<path fill="#35A65F" d="M390.1,195.1c-9.9,6.5-21.5,7.6-31.7,13.3c-7.2,9.2-21.3,7.2-30.7,2.6c8.2-8.6,15-17.5,23.6-25.3   c0.5,2.2,0.5,4.2,1.5,6.4c1.4-1.6,0.7-3.2,0.9-5.1c0.4,0.9,0.8,1.8,1.3,3c13.4-1.5,26.4-7.3,40.1-7.1c-0.4,1.2-0.9,2.4-1.3,3.5   c0-1.9-8.8,1.4-9.5,2.3c2.7,0.6,5.2,1.6,7.9,1.7C391.5,191.9,390.8,193.5,390.1,195.1z M359.1,197.2c-4.3,1.4-8.8,3-12.4,5.5   C351,202.3,355.9,199.9,359.1,197.2c0.4-0.1,0.7-0.1,1.3-0.2C359.7,196.4,359.4,196.7,359.1,197.2z M368.7,195.8   c-5.6,1.1-12.4,5.2-15.1,9.3c5-3.7,9.7-6.9,15.8-8.5c0.4,0.7,0.8,0.6,1.4,0.3c3.3-2.2,7.3-1.6,10.5-3.4   C377.2,192.9,372.5,193.9,368.7,195.8z M353.3,210.8c3.1-1.4,4.3-4.9,7-6.8c1.1-1,2.6-1.7,3.2-3.2   C359.3,203.3,355.8,206.6,353.3,210.8z M344.6,193.2c-0.8,1.5-1,2.2,0.2,2.6C345.5,194.7,345.2,194.7,344.6,193.2z" />
	<path fill="#FBDFD3" d="M343.9,104.8c0.3,1.2,0.6,2.4,0.9,3.6c0.7,0.1,1.1,0.2,1.6,0.2c3.1,4.4,5.9,12.2,6.5,18   c-7.1-0.7-14.2,0-21.4,1.3c-1.7-1.4-3.1-3.8-5.2-4.6c-1.1,0-1.7-0.8-2.2-1.5c-3.8-5.6-6.8-11.8-11.8-16.4c0.3-2.6,1-4.9,0.6-7.6   l0,0c5.2-5.4,3.8-13.4,4.3-20.2c2.7,4.7,4.3,10,9,13.3c1,2,0.8,4.4,1.7,6.2c1.1-0.1,0.5-1.2,1.3-1.7c3.1,2.2,5.6,5.3,9.3,6.6   c0.5-0.2,0.9-0.4,1.3-0.6c0.3,0.2,0.6,0.5,0.9,0.7c1.4-1.6,1.2-3.1,1.2-4.9c0.6-0.2,0.8-0.7,0.7-1.3l0,0c0.2,0,0.3,0,0.5,0.1   C343.6,98.8,342.4,102.3,343.9,104.8z M333.6,122.7c0,0.2,0.1,0.4,0.3,0.4c-2.5-2.2-4-4.7-7.7-5.2   C329.2,119.6,330.5,122.7,333.6,122.7z M339,120.4c0.6,0.1,0.9,0.3,1,0.2c2.4-2.2,6.2-2.6,8.1-5.2   C344.4,114.7,340.7,117.1,339,120.4z M330.4,106.7c0.7-1.5-0.5-5.7-2.2-6.3C328.1,103.6,328.5,104.8,330.4,106.7z" />
	<path fill="#B7BDD5" d="M355.1,227.1c-0.1-1-0.1-2-0.2-3.3c-11,4.7-23.5,6.2-35.1,2.7c-4.2-0.7-7.4,3.1-11.2,4.4   c0.6,1.5,1.1,2.8,1.6,4.2l-0.2,0.2c-2-1.3-3.8-4.3-6.1-4.4c0.3,0.5,0.5,1,0.8,1.5l-0.1,0.1c-2.2-0.3-4.2,0.7-6.4,1   c-1.1,4.8-0.9,9.9-2.5,14.8c-5.8-1.5-12.2-1.5-17.6-4c-0.4-2.9,0.2-9.8,1.2-13.2c0.7,0,2.5,0.2,2.9,0.4c15.4-2.8,31-7.8,42.7-18.2   c1.9-0.9,3.5-0.3,4.7,0.7c8.7,4.4,21.4,3.6,29.2-2.2C357.2,217,355.8,221.9,355.1,227.1z M339.3,219.8c-1.5,2.3-1.8,4.9-1.8,8.3   C339.3,225.1,339,222.4,339.3,219.8z" />
	<path fill="#4ABA79" d="M395.1,182.8c-13.6-0.3-26.7,5.6-40.1,7.1c-0.9-2-1.2-2.9-2.2-4.6c9-9.7,27.4-1.8,37.4-8.1   c-10.2-3.6-21.9-0.6-32.2,1.3c-0.1-0.5-0.2-0.8-0.2-1.2c3.7-6.7,9.4-12.7,11.8-20c3.3,0,6.6,0,10.1,0c1.1,2.8,1.6,5.6,1.1,8.7   c0.3,0,0.6,0.1,1,0.1c1.1-3.1-0.3-5.7-0.2-8.9c1.2,0.1,2.2,0.1,3.2,0.1c-0.8,2.1-0.8,2.6,0.8,3.3c1.3,0.2,3.6,1.7,4.5,0.3   c-1.5-1.1-3.6-0.6-4.9-1.8c0.2-0.5,0.3-0.8,0.4-1.1c3.4-1,3.6-1,7.7,0.4c0.2,6.5,1.2,12.2,4.6,18.1   C396.6,178.5,396,180.7,395.1,182.8z M374.4,168c0.2-0.1,0.4-0.1,0.6-0.2c0.2-2-0.1-8.4-3.3-6.8C373.8,163,373.2,165.8,374.4,168z    M394.1,172.7c-1.1-0.5-2-0.7-2.5,0.8C392.8,174.1,393.5,173.9,394.1,172.7z" />
	<path fill="#4B65C5" d="M340.6,332.4c-2.1,4.3,1.3,10.3,1.3,15.2c-2.9-3.5-1.8-8.9-5-11.8c0.9,6.1,2.5,10.1,4.1,15.8   c-4.1,5.8,3.5,9.3,7.1,12.6c-2.5,3.7,3.5,12.3-2.7,17.3c2.3,0.3,4.6-0.8,6.1,0.7c-10.8,0.3-21.7-0.1-32.3-2.3c0-0.3-0.1-0.5-0.1-1   c0.9-0.1,1.7-0.2,2.7-0.3c3.4-9.9,3.5-20.9,7.7-30.8c4-4.8,6.7-12.4,6.8-18.8C337.7,328.4,339.2,331.6,340.6,332.4z M326.7,363.5   c-1.9,1.4,1,5.9,2,7.8C329.8,369.7,328,364.9,326.7,363.5z" />
	<path fill="#FBDFD3" d="M350.2,145.5c0.2,0.9,0.3,1.8-0.6,2.7c-0.8-0.3-1.6-0.6-2.2-0.9c-2.2-15.4,10.8-5.2,17.7-1.9   c-0.8,5.4,3.3,5.1,1.7,7c-4.6,4.3-10.6,9.3-12.6,15c0.7,0.3,1.4-1.1,2.1,0.1c-3.1,4.3-3.2,10.5-6.4,14.3   c-6.3,4.4-10.9,11.4-17.4,15.1c-0.1-0.4-0.2-0.8-0.2-1.1c4.9-7.1,6.1-16.2,10.8-23.3c1.2-1.2,0.6-2.8,0.8-4.3   c1.9-8.7-5.7-16.5-4.6-25.7c0-2.6-2.4-5.4-0.7-7.9c1.2-0.5,2.5-0.2,3.7-0.1c6.1,4.9-1.6,16.1,8.9,15.6c0.2-2.6,1.9-4.6,1.9-7.6   c-0.9,0.6-1.5,1-2.1,1.3c-0.2-0.8-0.3-1.7-1.5-2C349.1,143.4,349.2,144.5,350.2,145.5z M346.7,171c1.4-0.7,1.4-4.9-0.6-3.8   c-0.3,1.2-0.4,2.6,0.2,3.9c-0.8,0.4-2.6,1.9-0.5,2C346,172.3,346.3,171.7,346.7,171z M361.3,146.9c-4.4,2.3-9.4,8.8-8.8,13.7   c2.2-0.6,2.8-2.5,4-4c0.4,0.5,0.8,0.9,1.1,1.3c1,0.3,1.1-0.5,1.3-1.2c-0.4-0.6-0.7-1.2-1.1-1.7c0.6-0.5,1.6,0.7,1.9-0.6l0,0   c1-0.4,0.6-1.3,0.7-2.1c1.2-1.6,3.2-3.4,1.9-5.4C362,146.9,361.6,146.9,361.3,146.9z M345.8,174.8c-1.6-0.2-1.6-0.2-1.3,1.2   C345,175.5,345.3,175.3,345.8,174.8z" />
	<path fill="#EECABA" d="M260.4,119c-6,10.7-2.1,24.6,4.6,34c2.7,3.2,7.8,5.7,6.3,10.7c-1.5,0.6-3,0.4-4.6-0.3   c-1.3,1.6-3.2,1.7-5.2,2.2c1,4.6-0.4,9.7,2.7,13.6c-5.4,17.7,10.5,18.2,8.8,34.4c-13.3-15.5-19.7-35.9-19.3-56   c1.2,1,2.1,1.8,3.3,2.9c0.4-4.7-3.7-7.2-5.3-10.6C249.5,139.8,249.4,124.1,260.4,119z M260.2,161.7c0.5-1.4,0.5-1.4-1.2-2.3   C258.6,160.5,258.6,160.5,260.2,161.7z M264.2,161.5c-0.3,0.2-0.6,0.5-0.8,0.7c0.3,1,0.5,1.9,1.7,1.9   C265.7,163,265.2,162.3,264.2,161.5z" />
	<path fill="#4ABA79" d="M290.1,154.5c0.8,0.7,1.7,1.4,2.5,2.1c-4.8,1.4-10.7,0.7-15.2,4.4c0,0-0.3-0.3-0.4-0.4   c4-8.6,12.5-24,23.9-18.8c15.3,0.8,20.1,4.3,29.3,16.8c0,0.2,0,0.4,0,0.6c-5,4.6-10.1,10-15.8,13.2c-0.3-0.7,0.3-1.6-0.7-2.1   c-1.4-13.8-16.6-15.7-17-25.3c-1.5,0.8-0.9,2.1-1.1,3.2c-4.2-1.1-7.1-0.9-7.6,4.2c-0.7,0.2-1.8-0.3-1.9,1   C287.5,153.8,288.8,154.2,290.1,154.5z" />
	<path fill="#EDCABA" d="M332.2,195.9c0.1,0.3,0.1,0.6,0.2,1.1c6.5-3.7,11.1-10.7,17.4-15.1c3.2-3.9,3.3-10.1,6.4-14.3   c-0.7-1.3-1.4,0.2-2.1-0.1c2-5.7,8-10.8,12.6-15c-0.3,1.3,0.5,2.4,1,3.4c-1.4,9.2-11.2,15-12.8,23.9   c-15.4,11.5-25.2,29.5-41.9,39.2c-10.3,4.1-19.5,8.2-30.9,9.9c-3.7-1-4.1-6.5-5.9-9.5c7.6,1.5,13.9,2.5,20.7-0.5   c3.8-2.3,9.6-1.5,12.1-5.6C318.2,210,326.5,203.7,332.2,195.9z M365.8,155.9c-1.8,1-2.1,1.4-2.1,3   C365.6,157.7,365.6,157.7,365.8,155.9z M362.2,162.1c0.3-0.5,0.5-0.9,0.7-1.3C362,160.3,361.5,161.2,362.2,162.1z" />
	<path fill="#4AB979" d="M319.9,131c15.5-0.2,31.5-5.2,46.8-1.5c-0.1,0.3-0.2,0.7-0.3,1.1c-2.1,1.2-4.2,0.3-6.2,2   c2.1-0.1,3.9-0.2,5.7-0.2c0.3,0.2,0.5,0.4,0.8,0.6l0,0c1.7,3.3,4.4,6.5,6.8,9.1l0,0c1.7,4.5,7.5,5.4,7.6,10.9   c-0.8,0.1-1.5,0.2-2.2,0.3c-0.6-0.4-1.1-0.8-1.8-1.2c-0.1,0.5-0.1,0.8-0.1,1.1c-1.6,1.5-4,1.1-5.6,2.7c-0.7,0-1.3,0-2,0   c-0.8-1.7-0.7-3.6-0.8-5.4c-0.6-0.7-1.1-1.4-1.8-2.2c1.3-4.9-4.4-6.9-8.3-7.5c-4-1.8-7.6-5.4-12-2.1c-3.6-6.1-1.3-5.7-9.3-5.5   c-1.8,3.1-0.8,5.5,0.4,8.4c-0.5,4.1,0.9,8.1,0.2,12c-1.6-6.6-4.2-12.6-8.3-17.7c0.1-0.7,0.2-1.2,0.2-1.6   C327.4,131.5,321.8,134.3,319.9,131z M355.2,133.8c-3-1.1-3.5-0.9-4.3,0.9C352.7,134.4,353.6,134.7,355.2,133.8z" />
	<path fill="#4ABA79" d="M414.4,171.7c1.4-1.9,0-4,1-6c2.9,3.6,4.5,8,8.6,10.3c-1.7-2.6-3.5-5.3-5.1-7.7c0.4-0.7,0.7-1.2,1.1-1.8   c-5.9-0.4-6.2-6.6-6.7-11.2c5.5,1.1,10,5.9,11.9,12.5c-0.4,0.1-0.7,0.2-1.3,0.3c2.1,3.6,5.7,5.6,8.2,8.8c-2,4.7-0.1,9.2-0.6,14.1   c-0.9-0.2-1.6-0.3-2.5-0.5c-2,5.7-4.3,12.9-9.4,16.6c-2.3-3.1-4.4-6.1-6.6-9.2c0.5-0.2,0.9-0.3,1.4-0.5c0.4-0.5,0.8-1.1,1-1.3   c2.1-0.2,3.9,0.1,5.7-0.3c-0.3-6.4-8.6-7.8-13.5-9.7c-0.6-3,2.1-5.4,3.7-7.8c0.2,0,0.6,0,0.9,0c4.9,3.8,9,7.1,11.6,12.9   c0.5-2.2,0.2-4.1,0.1-6.1c7.2-0.7-4-10.6-7.6-11.1C415.5,173.3,414.3,173,414.4,171.7z" />
	<path fill="#EECABA" d="M327.5,403.8c0.3-0.4,0.6-0.9,0.9-1.4c-0.4-1-1.2-1.7-2.4-1.7c0.3-1.1,0.1-2.1-1.1-2.7   c-0.2,0.3-0.3,0.5-0.4,0.6c-1.1-0.7,0-1.4,0.1-2.3c-0.4-0.9-1-1.9-1.5-3c-1.8,6.5,1,13.9-0.5,20.3c2.9,7.1,14,16.8,7.3,24.1   c-0.8,0-1.7,0.1-2.6,0.1c-1-1.1-2.5-1.7-2.6-3.4c0.9-0.9,2.5,0.6,2.7-0.9c-0.2-0.2-0.4-0.4-0.7-0.6l0.1,0.1c-1.3-2.9-3.2-5.6-6.6-6   c-4.2-9.7,3.8-21.1-5.2-29.3c2.3-4.8,3.9-9.9,4.5-15.1c9.5,1.9,19,2.5,28.7,2c-6,2.7-13.5,2.6-20,4.6c1.6,5.2,4.5,9.6,6.2,14.8   c-0.2,0.4-0.4,0.8-0.6,1.2C331.4,405.3,329.7,402.5,327.5,403.8z M322.9,392.7c0.3-1.4,0-2.1-0.9-2.7   C321.7,391,321.3,391.9,322.9,392.7z" />
	<path fill="#35A65F" d="M413,197.7c2.2,3.2,4.3,6.2,6.6,9.2c0.8-0.5,1.6-1,2.3-1.5c-8.9,15.9-14.7,6.8-27.4,5.8   c6.6-7.6,8.8-17.7,13-26.5c0.1,0.3,0.1,0.7,0.2,1.1c4.8,1.9,13.2,3.4,13.5,9.7c-1.9,0.4-3.6,0.1-5.7,0.3c-0.2,0.2-0.6,0.8-1,1.3   c0.3-2.8-3.6-9.6-6.6-8C410.7,191.7,412,194.1,413,197.7z" />
	<path fill="#EDC9B9" d="M325.3,90.3c-4.3-3.4-5.6-8.3-8.2-12.7c-0.4,6.9,0.9,14.8-4.3,20.2c0.1-1.8,1.6-8.4-1.1-8.1   c0.1,2.5-0.9,6.1,1.1,8c0,0.7,0,1.4,0,2.1c-0.2,0-0.5,0-0.7,0c-0.3-0.6-0.6-1.1-1-1.8c-1.2,0.7-2.9,0.8-3.1,2.4   c-1.9-1.8-3.8-3.6-5.6-5.4c10.9-8.9,8.5-24.4,12.7-37.1c-1.1-0.1-2-0.3-2.8-0.4c-0.2-0.4-0.5-0.8-0.7-1.2c0-0.3,0-0.7,0-1.1   c0.9-0.4,2.3,0.2,3.1-1.3c-1-1.5,0.3-2.6,1.7-3.1c1.2,0.7,0.7,2.1,0.7,3.3c0.5,0,0.9-0.1,1.2-0.1c0,1.3-1.5,0.7-1.8,1.6   c0.1,1.6-1.5,3.7-0.2,4.9c-2,13.7,0.2,12.1,9.7,20c-0.3,0-0.6,0.1-0.9,0.1c0.6,2.1,1.2,4.1,1.1,6.3l0-0.1   C324.9,87.6,325.4,89,325.3,90.3L325.3,90.3z" />
	<path fill="#CECEDC" d="M270.8,552.6c-1.1,7.3-4.2,14.3-4.1,21.8c15.8,2.6,31.9,1.8,47.7,3.9c4.3,1.3,8.8-4.8,12-1.8   c-0.2,0.6-0.5,1.3-0.9,2.2c0.4,0.1,0.8,0.2,1.2,0.3c-21.3,5.8-43.3-0.3-64.9-1.6c0.8-2.3,0.8-4.6,2-6.6c3.1-4.7,1.2-10.9,3.4-15.9   c-0.9-3.8-1.1-7.7,1.3-10.8c0.4,2.8-0.6,5.3,0.5,7.7C269.6,552,270.2,552.3,270.8,552.6z" />
	<path fill="#EDCABA" d="M384,200.6c-4.1,5.3-8.9,10.1-13.7,14.8c-1,3.4,1.5,5.7,1.2,8.9c-0.6,0.4-1.3,0.8-1.8,1.1   c-2.2-0.5-4-1.3-5.1-3.3c0.2-0.1,0.4-0.2,0.6-0.2c-0.1-0.1-0.2-0.2-0.3-0.3c-2,3.5,3,9.2,6.7,10.3c-0.3,0.6-0.7,1.2-1.1,1.9   c-3.6-3.5-8.6-3.4-12.2-7c-0.4-3.9,1.2-7.5,2.3-11.2c0.4-0.1,0.8-0.1,1.2-0.2c0.3-2.3,0.7-4.7,1-7.1   C369.4,205,377.3,204.4,384,200.6z M363.6,218c-0.2,0.1-0.3,0.3,0,0.4C363.8,218.3,363.8,218.2,363.6,218z" />
	<path fill="#CBD1E8" d="M302.5,98.6c9.3,9.5,16.6,20.5,25.7,30.2c-5.6,0.3-10,1.3-15.3,1.7c-1.9-11-7.8-20.7-13.3-30.3   C300.4,99.2,301.4,98.9,302.5,98.6z" />
	<path fill="#35A55F" d="M339.8,173.1c-4.3,11.8-8.5,25.1-20,31.8c-2.1-4.3-1.4-10.3-1.3-15.2c0.3,0.6,0.6,1.1,1,1.8   c1.4-1.1,2.6-2.4,3.5-3.4c0.3-0.9-0.7-1.4,0.2-1.9c1.1-0.3,1.8-1.1,2.2-2.1l0,0c0.2-0.2,0.5-0.5,0.7-0.7l0,0   c4.9-1.5,6.6-7.9,10.4-11C337.3,173.3,338.6,173.1,339.8,173.1z" />
	<path fill="#EDC9BA" d="M321.7,481.4c3.4,11.5,0,22.7,0.8,34.7c0.6-0.9,0.9-1.4,1.5-2.3c1.6,6.8,1,13.8,0.2,20.8   c0.5,0.1,0.8,0.2,1.1,0.3c-0.8,0.6-1.5,0.9-2.3,0c-0.1-1.5,0.3-2.4-1.2-3.5c-0.1,1.9-0.1,3.4-0.2,4.8c-0.9,0.4-1.8,1.1-3.1,0.5   c0.3-17.8,0.8-36.1,0.4-53.5C319.8,482.2,320.7,481.8,321.7,481.4z" />
	<path fill="#EDC9B9" d="M320,482.2c-0.3,0.3-0.6,0.6-1,0.9c-10.4-16.7-3.6-36,1.8-53c1,1,2.1,2.1,3.2,3.2c0.8,0,1.7,0,2.6,0   l-0.1-0.1c0.2,0.2,0.4,0.4,0.7,0.6c-0.2,1.5-1.8-0.1-2.7,0.9c-0.9-0.7-1.8-1.4-2.7-2c-5.3,12.9-4.1,32,0.1,44.9   C321.1,478.9,319,480.3,320,482.2z" />
	<path fill="#49B878" d="M304.6,137.2c-1.6-0.4-3.2-0.9-4.6-1.8c8-7.4,18.8-2.3,27.9,0c1,1.5,1.9,3.1,2.9,4.6c-3.6,2-4.1-1.3-6,4   C318.9,140.1,311.5,138.2,304.6,137.2z" />
	<path fill="#F9DDD1" d="M308.9,403.6c-0.8-0.2-1.8,0.4-2.1-0.9c0.4,0,0.8,0.1,1.4,0.1c-0.3-6.6-4.9-12.3-3.4-19.1   c3.6-2.2,7.8-1.1,10.7-4.2c0.1-0.1,0.4,0.1,0.7,0.2C317.2,388.5,312.6,396.2,308.9,403.6z" />
	<path fill="#4AB978" d="M339.8,173.1c-1.2,0-2.4,0.3-3.4-0.6c0.7-1.3,0.9-2.5,1.2-4c-2.2,1-2.2,3.8-5,3.9   c-5.6,1.1-8.3,6.5-13.5,8.4c-0.2-0.2-0.3-0.3-0.4-0.4c3-4.1,7.2-7.5,9.4-12c2-1.8,5.6-2.6,6.1-5.4c-0.9,0.5-1.4,0.9-2,1.2   c-0.3-1.4,1.2-1.9,1.4-3c2.2,2.6,4.5-1,6.8,0.3C341.5,165.3,343.6,170,339.8,173.1z" />
	<path fill="#35A65F" d="M357.8,177.3c0.1,0.3,0.1,0.7,0.2,1.2c10.3-1.9,22-4.9,32.2-1.3c-2.6,3.2-7.8,1.8-11.5,2.1   c-7.4,0.9-15.1,0.8-22.5,2.7C357.2,180.5,356.7,178.7,357.8,177.3z" />
	<path fill="#35A55E" d="M330.1,158.6c-14.1-18.2-14.8-14.2-35.3-18c15.6-4.5,28.9,1,36.1,16.4C330.8,157.6,330.9,158.3,330.1,158.6   z" />
	<path fill="#CBCBD8" d="M333.6,572c14.4,3.9,28.9,3.4,43.5,2.1c0.5,0.8-0.6,1.1-1,1.6c-0.5-0.3-0.9-0.5-1.3-0.7   c-12.9,3.4-27.4,3.4-40.5,0.9C334.1,574.6,333.8,573.3,333.6,572z" />
	<path fill="#48B576" d="M367.5,129.6c0-0.3,0-0.7,0-1.2c7.5-2.9,13.8,5.8,15.8,12.1c-1.4,1.3-3.5,0.8-5.2,0.7   C375.1,136.7,370.1,134.5,367.5,129.6z" />
	<path fill="#060606" d="M317.7,132.3c-3.1,0.5-5.9-1.1-9-1.2c-0.3-10-4.4-18.6-9-27c0.1-0.6,0-1.3,0.8-1.5   c6,8.1,10.6,17.3,11.9,27.4c0.5,0.6,1.3,1.6,1.8,0.4c0.5,0,0.9-0.1,1.4-0.1C316.3,131,317,131.6,317.7,132.3z" />
	<path fill="#E7C4B5" d="M397.6,157c1.6,5.5,0.8,11.5,5.1,16.2c2.2,3.1-2.6,5.4-1.3,8.7c-1.4-0.5-0.8-1.8-1-3.1   c-0.7-0.1-1.3-0.2-1.9-0.2c1.7-9.4-4.8-11-3.2-22.1C396.1,156.7,396.9,156.9,397.6,157z M400.7,176.1c0.7-0.8,1-1.5,0-2.5   C400.7,174.6,400.7,175.4,400.7,176.1z" />
	<path fill="#040906" d="M330.9,157c-7.1-13.5-10.8-14.8-25-18.4c1.2-0.6-0.8-1-1.3-1.4c27.7,4,18.6,11.8,33.8,24.1   C334.9,163.9,332.3,159.9,330.9,157z" />
	<path fill="#4B65C5" d="M322.6,349.1c0.8-1.1,1.5-2.2,2.3-3.4c0.7,0.2,1.4,0.3,2,0.5c2.4-2.7,1.2-9.6,6-9.6   c-1.3,5.8-4,11.8-7.5,16.7c0.1-1.1,0.2-2.1,0.4-3.5c-3,2.6-6.1,6.3-10.1,5.9c0.4-0.8,0.7-1.5,1-2.1c-0.3-0.3-0.6-0.6-0.8-0.9   c0.1-0.9,0.7-0.8,1.3-0.8C318.4,353.2,322.5,350.9,322.6,349.1z" />
	<path fill="#F9F9F9" d="M271.6,548.9c0.3-2.4,0.6-4.5,0.9-6.6c2.1-1,4.3-0.9,6.4-1.6c2.3-0.7,4.2,1,6.4,0c0,1.5,0,2.5,0,3.6   c-1.2,0.6-2.4,1.2-3.8,1.9C278.2,544,275.1,548.1,271.6,548.9z" />
	<path fill="#34A15D" d="M380.4,141.4c1.1,0.1,2.1-0.1,3-0.9c1.8,4,4.3,7.1,4.3,11.7c0.9,1.2,2.1,2.7,3.2,4.2   c-1.5,0.1-3.1,0.2-4.8,0.3c-0.3-0.3-0.6-0.6-0.9-0.9c0.5-5-3.7-8.6-5.8-12.8c0.8-0.1,1.4-0.2,2.2-0.4   C381.2,142.1,380.8,141.8,380.4,141.4z" />
	<path fill="#0C1711" d="M338.4,161.3c-0.3-0.7-0.9-0.6-1.5-0.7c0.4-0.3,0.9-0.7,1.4-1.1c-2-8.6-5.1-16.9-10.4-24.1   c-3.1-1-6.6-1.4-9.5-2.9c0.2-1.4,0.2-1.4,1.5-1.5c1.9,3.2,7.5,0.4,10.1,3c-0.1,0.4-0.1,0.9-0.2,1.6c4.1,5.1,6.7,11.1,8.3,17.7   c0.1-0.4,0.2-0.7,0.3-1c1.1,2.4,1,6.3,2,9.1C339.8,160.8,339.1,161.1,338.4,161.3z" />
	<path fill="#F5D9CE" d="M369.4,126.5c-2.7,0.7-5.1,0.3-7.8,0c-0.7-1.8-1.4-3.5-2-5.3c-0.5-1.7-2.7-2.5-2.6-4.8   C362.6,118.1,367.4,120.5,369.4,126.5z" />
	<path fill="#E9C6B7" d="M316.4,382.4c-0.1-0.9-0.2-1.8-0.3-2.6c-0.3-0.1-0.7-0.2-0.7-0.2c-3,3.1-7.2,2-10.7,4.2   c0.1,2.9-0.5,6,0.5,9c-0.8,0.7-0.7,1.6-0.6,2.6c-0.9-1.3-1-2.8-1.3-4.3c1.4-2.8,0.8-7.5,0.3-10.6c-2.3,0.1-0.2,3.8-0.4,5.3   c-0.4-0.6-0.7-1.3-1-1.7c-1.7,0.1-3.2,0.1-4.7,0.2c1.6-1.7,3.7-3,3.2-5.8c0-0.1,0.3-0.3,0.5-0.4c5.3,2.3,10.4,1.6,16,0.7   C316.9,380.1,317.2,381.3,316.4,382.4z" />
	<path fill="#09150D" d="M380.4,141.4c0.4,0.4,0.8,0.7,1.2,1.1c-0.8,0.1-1.4,0.2-2.2,0.4c2.1,4.2,6.3,7.8,5.8,12.8   c-0.2,0-0.4,0-0.6,0.1l0,0c-3.6-9.2-9.3-17.9-17.9-22.9l0,0c-0.3-0.2-0.5-0.4-0.8-0.6c-1.8,0.1-3.5,0.2-5.7,0.2c2-1.8,4-0.8,6.2-2   c0.1-0.4,0.2-0.7,0.3-1.1c0.3,0,0.5,0,0.8,0c2.6,4.9,7.6,7.2,10.7,11.7C378.8,141.3,379.6,141.3,380.4,141.4z" />
	<path fill="#CBCBD9" d="M313.8,541.5c-1,0.7-1.1,1.9-0.8,3c1.2,4.3,0.4,8.7,0.6,13.1c-1.7-1.2-3.2-2.6-4.2-4.3   c2.8-4.4,1.1-9.2,1.7-14.2c0.6-0.2,1-0.3,1.6-0.4C313,539.7,313.4,540.6,313.8,541.5z" />
	<path fill="#EBC8B8" d="M296.9,99.2c-4.4,1.1-7.8,4-11.6,6.3c-1-0.3-2-0.6-3-0.8c2.9-4.4,8.2-5.8,12.6-8.3   C296.5,96.3,296.5,98.1,296.9,99.2z" />
	<path fill="#49B777" d="M431.6,197.9c1.2,2.5,2.9,7.1-1.3,7.6c-0.8-2.1-1.9-3.7-4.5-3.7c-0.1,0-0.3-0.3-0.4-0.5   c1.2-2.1,2.3-4.1,3.5-6.2C430.7,195,430.6,196.8,431.6,197.9z" />
	<path fill="#DDDDE4" d="M332.2,539.6c0-0.5,0-0.9,0-1.4c0.6,0,1.1,0.1,1.7,0.2c2.7-3.5-1.5-8.5,5.5-8c1.4,1.9,0.6,4.3,1.7,6.2   C338.9,538.9,335,537.7,332.2,539.6z" />
	<path fill="#263263" d="M344.7,264.2c-1,0.3-2,0.7-2.9,1.4c-1.7-0.2-1.6-0.9-3.9-0.5c0.2,11.3,6.4,21.2,5.9,32.4   c-0.1,0-0.2,0-0.2,0c-2.1-11.2-5.6-22.1-7.3-33.2C339.1,264.3,341.9,264.3,344.7,264.2z" />
	<path fill="#BDC2D7" d="M351.6,110.9c2.8,1.9,2.2,5.9,4.4,8.3c0.5,2.6,1.5,4.8,3.1,7.4c-1.4,0.2-2.4,0.2-3.6,0.1   c-1.4-5.1-3.2-9.7-4.7-14.9C351,111.5,351.3,111.2,351.6,110.9z" />
	<path fill="#0B1810" d="M369.5,155.7c3.2-0.2,5.9,0.6,9.1-0.3c-0.6-0.9-1.1-1.6-1.5-2.3c0-0.3,0.1-0.6,0.1-1.1   c0.7,0.5,1.2,0.8,1.8,1.2c0.4,2.7,3.2,2.9,5.6,2.7l0,0c0,0.5,0,1,0,1.6c-1,0-2-0.1-3.2-0.1c-0.1,3.2,1.3,5.8,0.2,8.9   c-0.4,0-0.7-0.1-1-0.1c0.5-3,0-5.8-1.1-8.7c-3.5,0-6.8,0-10.1,0C369.5,156.8,369.5,156.2,369.5,155.7z" />
	<path fill="#35A35E" d="M425.4,201.4c0.1,0.2,0.3,0.5,0.4,0.5c2.5,0,3.7,1.6,4.5,3.7c-2.8,1.6-5.4,3.5-8.3,4.9   C421.5,207.7,424.2,204.1,425.4,201.4z" />
	<path fill="#0C1911" d="M414.4,171.7c4.2,5.5,11.6,11,9.5,19.2c-1.6-1.6-1.9-3.7-2.8-5.4c0.3,0,0.6,0,0.8,0   c0.2,0.1,0.4,0.2,0.5,0.3c0.3-0.4-0.3-0.7-0.5-1.1l0,0c-1.2-4.4-4.7-8.2-8.3-11C413.7,173.1,413.3,172.1,414.4,171.7z" />
	<path fill="#359D5C" d="M413.7,173.8c3.6,2.8,7.1,6.6,8.3,11c-3.1-2.5-6.1-5.5-9.6-7.6C412.8,176.1,413.2,174.9,413.7,173.8z" />
	<path fill="#455CB5" d="M333.7,262.1c1.1,0,2.3,0,3.6,0c0.4-1,1.3-2,0.5-3.3c2.7,0.1,5.4-0.5,8.2,0c0,0.8,0,1.4,0,2.3   c-0.6,0.3-1.3,0.5-2.2,0.9c0-0.9,0-1.5,0-2.2c-1.5,0.9-1.4,3.4-3.8,3.7c-1.7-1.3-4.2-0.4-6.3-0.7   C333.6,262.5,333.6,262.3,333.7,262.1z" />
	<path fill="#181D18" d="M398.4,176.5c-1.2,6.5-4,14-7.4,19.6c-0.3-0.3-0.6-0.7-0.9-1c2.9-6,4.7-12.5,7.6-18.5   C398,176.5,398.2,176.5,398.4,176.5z" />
	<path fill="#191614" d="M301.2,378c-0.7,4.7-5,7.7-9.9,8.3c0.2-0.5,0.3-0.8,0.4-1.1c2.7-2.2,5.6-4.1,7.8-6.8   c-0.2-0.4-0.3-0.7-0.4-1C299.8,377.4,300.7,377.1,301.2,378z" />
	<path fill="#181819" d="M358.4,557.5c-0.4,0-0.9-0.1-1.5-0.1c0,0.9,0,1.6,0,2.4c-4.4,1.8-8.9-3.1-13.6-3.4   c-0.2-0.6,0.1-0.8,0.6-0.9c1.1,0.8,2.3,0.8,3.6,0.7c1.7,1.5,4.8,1.2,7.1,1.3c0.4-0.5,0.9-1.1,1.2-1.5c-0.2-0.4-0.3-0.8-0.4-1.1   c0.2,0.1,0.6,0.1,0.6,0.2C356.2,556.6,357.8,556.6,358.4,557.5z" />
	<path fill="#163221" d="M425.4,201.4c-1.1,2.7-3.9,6.4-3.4,9.1c-1.2,1.4-2.6,1.7-4.2,0.6c5.2-4.4,6.7-11.4,10.4-17.2   c0.8,0.1,0.7,0.8,0.7,1.4C427.7,197.2,426.5,199.3,425.4,201.4z" />
	<path fill="#47AD72" d="M390.1,138.6c-1.7,1.3-1.8,3-2.4,5c-2.3-2.4-2.9-5.3-4.7-8.4C385.8,135.3,387.3,137.3,390.1,138.6z" />
	<path fill="#13231A" d="M415.7,164.2c0.6,0.6,1.1,1.1,1.8,1.8c0.6,0.1,1.4,0.2,2.5,0.4c-0.4,0.7-0.7,1.1-1.1,1.8   c1.6,2.5,3.4,5.1,5.1,7.7c-4.1-2.3-5.7-6.7-8.6-10.3c-0.2,0.6-0.3,0.9-0.4,1.2C413.7,165.4,414.8,165.2,415.7,164.2z" />
	<path fill="#379D5E" d="M428.9,195.2c0-0.6,0.1-1.2-0.7-1.4c0.6-1.2-0.2-2.1,0.8-3.4c0.9,0.2,1.6,0.3,2.5,0.5   c0.1-1.5,0.2-2.8,0.2-4.1c2,3.6-0.7,7.4-0.1,11.2C430.6,196.8,430.7,195,428.9,195.2z" />
	<path fill="#DFBFB0" d="M340.4,152.4c1.7,2,0.8,5.2,2.7,7.4c1.5,2.6,2,5.7,0.8,8.5C342.4,163.1,340.4,157.9,340.4,152.4z" />
	<path fill="#E8C6B6" d="M391.1,149.6c4.1,0.1,6.5,2.3,7.4,6.2C395.2,155.3,392.7,152.3,391.1,149.6z" />
	<path fill="#0A0E1B" d="M333.7,262.7c2,0.3,4.6-0.7,6.3,0.7c-2.9-0.3-5.1,1-8,0.7c-0.2,1.8-0.3,3.3-0.5,4.8c-0.4,0-0.8,0-1.2,0   c-0.3-2.2-0.3-4.3-1.7-6.1C330,262.2,332,262.8,333.7,262.7z" />
	<path fill="#1D271F" d="M308.7,130.1c0,0.3,0.1,0.7,0.1,1c-2.8,1.6-6.6,1.8-8.8,4.3c0.6,0.4,1.3,0.7,1.9,1c-1.7,0.1-3.4,0.4-5-0.7   C300,132.4,304.5,131.6,308.7,130.1z" />
	<path fill="#D2D2D8" d="M337.8,550.1c-0.8-2-3.5,0.3-4.2-1.7c4.6,0.5,9-0.7,13.5-2.2c0.5,0.5,1.1,1.1,1.6,1.6   C345.3,549,341.4,548.4,337.8,550.1z" />
	<path fill="#AEB4CA" d="M302.5,98.6c-1.1,0.4-2.1,0.7-2.8,1.6c-1-1.5-2-3-2.4-4.9c0.9-0.3,1.9-0.5,2.8-0.8   C300.9,95.9,301.7,97.2,302.5,98.6z" />
	<path fill="#E9CFC4" d="M308.1,100.5c0.2-1.6,1.9-1.7,3.1-2.4c0.4,0.7,0.7,1.2,1,1.8c-0.2,1.2,0.1,2.5-1,3.5c-0.3,0-0.6-0.1-1-0.2   C309.5,102.3,308.8,101.4,308.1,100.5z" />
	<path fill="#C6C6CC" d="M355.4,554.8c0.1,0.3,0.2,0.6,0.4,1.1c-0.4,0.5-0.8,1-1.2,1.5c-2.3-0.1-5.4,0.2-7.1-1.3   c2.4-0.3,4.7-0.5,6.7-2C354.7,554.4,355.1,554.6,355.4,554.8z" />
	<path fill="#252323" d="M297.3,95.2c0.5,2.7,2.6,4.7,3.3,7.4c-0.8,0.2-0.7,0.9-0.8,1.5c-2-2.2-2.3-6.6-4.8-7.8   C295.7,96,296.5,95.6,297.3,95.2z" />
	<path fill="#0F1428" d="M290.8,251.8c0.1,0.6,0.2,1.1,0.3,1.9c-2.7,1-5.3,0.5-8-0.4c0.3-0.3,0.5-0.5,0.8-0.8c0.2,0,0.4-0.1,0.7-0.1   c0.5-1-1.1-3.2,1.1-3.1c0.1,1.1,0.3,2.1,0.4,3.2c1.1,1,2.3,0.7,3.7,0.8c0-0.5,0.1-0.9,0.1-1.4C290.3,251.8,290.5,251.8,290.8,251.8   z" />
	<path fill="#35A55F" d="M316.4,207c1.3-3.6,0.8-7-0.6-10.5c0.3-1,1-1.7,2-2.1c0,3.9,0,7.8,0,11.7   C317.3,206.5,316.8,206.7,316.4,207z" />
	<path fill="#193B26" d="M317.7,206.2c0-4.6,0-9.2,0.1-13.8c0.1,0,0.4,0,0.5,0c0.3,4-0.5,9.1,1.5,12.5   C319.1,205.3,318.4,205.8,317.7,206.2z" />
	<path fill="#61636E" d="M328.6,242.9c0.5,4.1,1.5,8.2,1.5,12.3c-0.2,0-0.5,0-0.7,0C328.9,251.3,326.9,246.5,328.6,242.9z" />
	<path fill="#A9A9AF" d="M337.7,545.7c0-0.2,0-0.5,0-0.7c2.3-0.9,4.6-1.7,6.8-2.5c0.9,0.2,1.4,0.5,1.3,1.6   C343.2,544.7,340.5,545.3,337.7,545.7z" />
	<path fill="#182F21" d="M412.3,177.2c3.6,2.1,6.5,5.1,9.6,7.6l0,0c0,0.2,0,0.5-0.1,0.7c-0.3,0-0.6,0-0.8,0c-2.9-2.5-5.9-5-8.8-7.5   C412.3,177.8,412.3,177.5,412.3,177.2z" />
	<path fill="#D3C3BF" d="M332.9,538.2c-0.2,0-0.5,0-0.7,0c-0.3-0.2-0.5-0.5-0.8-0.7c1.1-3.6-0.3-7.3,0.1-11c1.7,1.1-0.3,3.5,1.3,4.8   C332.9,533.5,332.9,535.8,332.9,538.2z" />
	<path fill="#EAEAEA" d="M321.9,539.6c-0.8,1.3-1.3,2.9-3.1,3.3c-0.7-1.8-0.7-1.8-0.4-3.9C319.5,538.9,321.4,538.2,321.9,539.6z" />
	<path fill="#3A322E" d="M265.2,495.5c1.8-1.7,0.3-5.4,0.8-7.8c2.7,3.1,0,5.8,0.6,9.2c-0.4,0.1-0.7,0.3-1.3,0.5   C265.2,496.5,265.2,496,265.2,495.5z" />
	<path fill="#2E5B40" d="M384.6,157.4c0-0.5,0-1,0-1.6c0.2,0,0.4,0,0.6-0.1c0.3,0.3,0.6,0.6,0.9,0.9c-0.5,0.9-0.9,1.5-1.2,2.5   c1.4,1.2,3.4,0.7,4.9,1.8c-0.9,1.4-3.1-0.1-4.5-0.3C383.8,160,383.8,159.5,384.6,157.4z" />
	<path fill="#939398" d="M303.8,557.4c-1.1-0.4-2.3-0.8-3.4-1.2c2.6,0.5,6.4-1.2,8.2,0.8C307,557.7,305.4,557.6,303.8,557.4z" />
	<path fill="#9C9CA0" d="M347.3,553.9c-0.5-0.9-1.5-0.3-2.1-0.7c2.2-0.9,4.3-0.9,6.8-1.4c0.2,0.2,0.5,0.6,1,1.4   C350.9,553.5,349.1,553.7,347.3,553.9z" />
	<path fill="#919195" d="M331.4,543.6c-0.2-0.2-0.4-0.4-0.6-0.6c2.5-0.7,4.7-2.2,7.4-2.2c0.3,0.2,0.6,0.4,0.9,0.7   C336.5,542.2,334,542.9,331.4,543.6z" />
	<path fill="#A78E82" d="M343.2,102c0-2.8-0.1-5.5-0.6-8.3l0,0c0.6-0.3,0.6-0.8,0.5-1.3l0.3-0.2l0.2,0l0.2-0.1   c0.1,0.1,0.2,0.2,0.3,0.3c-0.1,3.2-0.2,6.4-0.2,9.6C343.6,102,343.4,102,343.2,102z" />
	<path fill="#88888D" d="M341.2,549.1c2.3-1.4,5.4,0.2,7.6-1.3c0.7,0.5,1.3,1.1,1.4,2.1c-0.2,0.1-0.5,0.3-0.6,0.2   C347.3,548.1,343.9,549.4,341.2,549.1z" />
	<path fill="#344688" d="M278.4,251.1c0.1-2-0.1-3.1-1.2-5.1c2.6,0.8,2.5,0.2,2.5,4.2C279.3,250.5,278.8,250.8,278.4,251.1   L278.4,251.1z" />
	<path fill="#50443F" d="M391.1,149.6c0.4,0.7,0.8,1.4,1.2,2c-0.2,0.3-0.5,0.5-0.7,0.8c-1.1,0-0.6,0.9-0.7,1.4   c-1.2-1.4-1.8-3-0.8-4.7C390.4,149.2,390.7,149.4,391.1,149.6z" />
	<path fill="#A78E83" d="M341.9,88.1c2.6,0.9,3.1,1.6,2.1,4.3c-0.1-0.1-0.2-0.2-0.3-0.3c0-0.8,0-1.5,0-2.3c-0.1,0-0.2,0-0.4,0   c0,0.8,0,1.5,0,2.3l-0.3,0.2c-0.3-0.3-0.5-0.6-0.8-0.9c0.3-0.8,0.5-2.2-1.1-1.9C341.5,89.2,341.7,88.6,341.9,88.1z" />
	<path fill="#3F55A5" d="M284.7,248.2c-0.3,0.3-0.6,0.6-0.9,1c-0.4-0.3-0.9-0.6-1.6-1.1c-0.2,1.3-0.3,2.2-0.4,3.5   c-1.7-1.1-0.4-2.6-0.4-4.4C282.5,247.5,283.6,247.9,284.7,248.2z" />
	<path fill="#0C1711" d="M338.4,150.4c-1-2.9-0.3-6.1-0.5-9.1C339.2,144,338.1,147.5,338.4,150.4z" />
	<path fill="#5572E1" d="M346.9,261.5c0-1.1,0-1.8,0-2.6c0.5-0.2,0.9-0.4,1.7-0.8c0.1,1,0.2,1.8,0.3,2.8   C348.3,261.1,347.8,261.3,346.9,261.5z" />
	<path fill="#4B4B4D" d="M295.1,550c-2,0.9-4.6,0.3-7,0.7c0.3-1.3,1.1-1.5,2-1.5C291.2,550.6,293.5,549.6,295.1,550z" />
	<path fill="#848488" d="M339.1,541.5c-0.3-0.2-0.6-0.4-0.9-0.7c1.1-0.5,2.2-1.1,3.4-1.6c0.5,0.3,0.8,0.5,0.9,1.4   C341.5,541.2,340.2,541,339.1,541.5z" />
	<path fill="#25201D" d="M321.8,536.1c0.1-1.5,0.1-2.9,0.2-4.8c1.5,1.1,1.1,2,1.2,3.5C322.7,535.2,322.2,535.6,321.8,536.1z" />
	<path fill="#2B2624" d="M310.2,103.2c0.3,0.1,0.7,0.1,1,0.2c1.1-1,0.8-2.3,1-3.5c0.2,0,0.5,0,0.7,0c0.5,2-0.8,3.6-0.6,5.5   C311.6,104.7,310.9,104,310.2,103.2z" />
	<path fill="#1F2A53" d="M327.4,350.4c0.7-1.4,1.4-2.8,2.1-4.2c0.2,2-0.1,4-1.3,5.6C328,351.3,328.2,350.6,327.4,350.4z" />
	<path fill="#475FBB" d="M350.5,260.8c-0.5-1.3-0.8-2.5,0.6-3.5C351.9,259.6,351.9,259.6,350.5,260.8z" />
	<path fill="#BEA295" d="M272.8,213.8c0.8-0.2,0.7-1,0.8-1.6c0.8,1.4,1.3,2.9,1.3,5C273.9,215.9,273.2,215,272.8,213.8z" />
	<path fill="#474749" d="M304.2,552.5c0.8,0.4,1.4,0.7,2.7,1.4c-2,0-3.4,0-5.5,0C302.9,553.2,303.5,552.9,304.2,552.5z" />
	<path fill="#5E524D" d="M270.1,426.3c0.3,0.6,0.5,1.1,1,2.1c-0.1,0.5-0.3,1.4-0.4,2.4c-1.1-0.6,0-1.9-1.1-2.3   C269.5,427.7,269.2,426.9,270.1,426.3z" />
	<path fill="#ADADAD" d="M321.9,539.6c-0.2-0.9-1-0.7-1.6-0.9c1.4-0.5,2.8-0.9,4.3-1.4c0.2,0.2,0.4,0.5,0.6,0.7   C324.1,538.6,323,539.1,321.9,539.6z" />
	<path fill="#998881" d="M282.5,537.4c0.1-1.2,0.2-2.4,0.3-3.7c1.6,0.5,1.3,1.6,1.1,2.6C283.4,536.6,282.9,537,282.5,537.4z" />
	<path fill="#60514B" d="M391.6,152.4c0.2-0.3,0.5-0.5,0.7-0.8c0.9,0.9,1.9,1.8,2.8,2.8c-0.5,0-1,0-1.5,0.1   C392.9,153.8,392.2,153.1,391.6,152.4z" />
	<path fill="#474747" d="M325.2,538.1c-0.2-0.2-0.4-0.5-0.6-0.7c1.1-0.8,2.3-1.1,4.2-1.4C327.5,537.3,326.4,537.7,325.2,538.1z" />
	<path fill="#494B53" d="M349.4,109.6c-0.9-0.9-1.5-1.9-1.8-3.1c1.1,0.6,2.1,1.2,2.5,2.5C349.8,109.2,349.6,109.4,349.4,109.6z" />
	<path fill="#CAAB9E" d="M391.6,152.4c0.7,0.7,1.3,1.4,2,2.1c-0.5,1.6-2-0.2-2.7-0.7C390.9,153.2,390.5,152.4,391.6,152.4z" />
	<path fill="#47433E" d="M350.2,145.5c-1-0.9-1-2.1-0.8-3.4c1.2,0.3,1.3,1.1,1.5,2C350.2,144.3,350.3,144.9,350.2,145.5z" />
	<path fill="#433C39" d="M331.5,526.4c0,1.4,0,2.8,0,4.1c-0.2,0-0.5,0-0.7-0.1C331,529.2,330.2,527.3,331.5,526.4z" />
	<path fill="#3C3C3E" d="M304.7,562.4c-0.9,0.5-1.8,0.9-2.8,0.4C301.9,560.8,303.8,561.8,304.7,562.4z" />
	<path fill="#374991" d="M352.5,256.9c1.1,0.8,1.1,0.8,0.8,3.4C353,258.7,352.7,257.8,352.5,256.9z" />
	<path fill="#8F92A2" d="M349.4,109.6c0.2-0.2,0.5-0.4,0.7-0.7c0.5,0.7,1,1.3,1.5,2c-0.3,0.3-0.6,0.6-0.8,0.8   C350.3,111.1,349.8,110.4,349.4,109.6z" />
	<path fill="#655A55" d="M397.1,136.5c-0.8,0-1.4-0.1-2.1-0.1C395.8,135.2,395.8,135.2,397.1,136.5z" />
	<path fill="#253C2F" d="M302.2,137.7c-0.7,0-1.3,0.1-2,0.1c0-0.2,0-0.3,0-0.5c0.7,0,1.3-0.1,2-0.1   C302.2,137.4,302.2,137.6,302.2,137.7z" />
	<path fill="#C0A396" d="M343.2,102c0.2,0,0.4,0,0.6,0c0,0.9,0,1.8,0.1,2.8C342.8,104,343.5,102.9,343.2,102z" />
	<path fill="#1E284F" d="M306.7,253c-0.8,0.2-1.6,0.2-2.1-0.6C305.3,252.4,306.2,252.2,306.7,253z" />
	<path fill="#CBCBD8" d="M377,572.7c-1-0.6-0.6-1.5-0.5-2.3C377.1,571,377.2,571.8,377,572.7z" />
	<path fill="#A18A7E" d="M277.1,219.2c-1.3,0.3-1.6,0-1.7-1.7C276.3,218.4,276.7,218.8,277.1,219.2z" />
	<path fill="#1E284F" d="M310.8,253.8c-0.8,0.1-1.6,0.1-2.2-0.6C309.5,253.1,310.3,252.9,310.8,253.8z" />
	<path fill="#E7C4B5" d="M397.8,155.8c0.2,0,0.4,0,0.6,0c0,0.6,0.1,1.3-0.9,1.2C397.7,156.6,397.7,156.2,397.8,155.8z" />
	<path fill="#163221" d="M423.3,209.7c0.4-0.3,0.9-0.5,1.3-0.8C424.5,209.6,423.9,209.7,423.3,209.7z" />
	<path fill="#344688" d="M278.4,251.7c-0.2,0.1-0.4,0.2-0.6,0.2c0-0.3,0-0.6-0.1-0.9c0.2,0,0.5,0,0.7,0.1l0,0   C278.4,251.3,278.4,251.5,278.4,251.7z" />
	<path fill="#50443F" d="M389.6,148.1c0.1,0.3,0.3,0.6,0.4,0.9C389.6,148.9,389.4,148.6,389.6,148.1z" />
	<path fill="#163221" d="M422.5,210.3c0.3-0.2,0.5-0.4,0.8-0.6C423.1,209.9,422.8,210.1,422.5,210.3z" />
	<path fill="#FBDFD3" d="M316.4,60.6c-1.3-1.2,0.2-3.3,0.2-4.9c0.2-0.9,1.8-0.3,1.8-1.6c3.5-8.3,6.7-16,11.2-23.8c1.3,0,2.5,0,3.9,0   c-0.2-0.5-0.3-0.8-0.4-1.2c4.3-1.7,1.6-2.5,4-3.6c0,0,0,0,0,0c1.4,1.6,1.7-0.7,1.8-1.8c1.3-0.3,2.7-0.6,4.5-1   c5.2,0.8,11.3,2.2,16.5,0.1c1,4.3,0,9.8,3.2,13c-0.2,1.1-0.5,2.2-0.7,3.3c-5.2,1.4-12.2,6.1-8,11.8c0-1.6-0.2-2.7,0.6-4   c2.2,0.5,3.9,0.2,6.1-0.6c1.1,2.7-0.6,5.6,0.7,8.2c-3.6,10.8-2.6,22.9-8.9,32.9c-3.2-0.8-6.3-0.7-9.7-0.7c-0.6-1.3-1.8-0.3-2.8-0.7   c-0.3-0.6-0.8-0.7-1.4-0.6l0,0c-7.5-2.7-15.6-7.9-20.1-14.4l0,0c0.2-0.6,0.2-1.2-0.5-1.5c-0.2-0.9,0.6-2.1-0.8-2.7l0,0   c0-2.1,0-4.2,0.1-6.3C317,59.8,317,59.8,316.4,60.6L316.4,60.6z M346,70.4c-1.5,0.1-4.4-0.6-4,1.8c0,1.2,1.2,0.7,1.7,1.2   c0.9,1,2.1,1.7,2.3,3.1c0.5,2.4,7,2,8.4,0.4c-1.5-5.1,4.2-3.5,1.6-8.6c-2.6,0-5.1,0-7.6,0C347.6,69,346.8,69.7,346,70.4z    M335.7,39.9c-1.9,0.1-3.1,1.6-4.8,2.4c0.3,0.4,0.5,0.7,0.9,1c1.7-0.9,3.4-1.6,5.3-2c1.9,1.2,4.5,0.6,6,2.1   c-2.8-0.5-4.8,1.1-7.4,1.1c-1.1,0-1.9,0.4-2.6,1.3c1.8,0.9,4.4,1,10.7,0.7c0.5-0.8,0.9-1.5,1.3-2.2c1.1-0.2,2.1-0.4,3.2-0.5   c-0.3-1.3-0.6-2-1.1-3.1c-2.7-1.1-5.2-1.5-7.9-0.9C338,38.8,336.8,39.5,335.7,39.9z M355.9,61.6c-1-1.5-6.6-1.3-7,1.6   c0.2,0.3,0.5,0.6,0.9,1c0.7-0.4,1.4-0.8,2.1-1.2C355,63.5,355,63.5,355.9,61.6z" />
	<path fill="#343333" d="M336.9,25.5c-1.6,0.1-0.6,2.1-2,2.5c0.2-1.7-0.3-3.1-1.5-4.5c-0.9-0.1-2-0.2-2.9-0.6   c-0.4,0.3-0.9,0.5-1.4,0.8c-0.6-1.4,1.4-2.4,2.5-3.3C333.5,21.9,337.9,22.4,336.9,25.5z" />
	<path fill="#363636" d="M308.7,21.3c0.7-0.9,1.3-1.8,2.1-2.8c-0.3-0.3-0.6-0.6-0.9-1c1.3-2,3.3-0.9,4.2,1c1-0.2,2-0.3,3.2-0.5   c0.8,1.5-0.4,2.2-1.3,3c-2.1-1.6-4.1-1.7-6,0.2C309.6,21.2,309.2,21.3,308.7,21.3z" />
	<path fill="#1A1A1A" d="M343.3,17.8c2.8,1.1,5.9,1.9,9.2,3.9c-4.1,0-8.7-1.6-11.9-3.8c0.3-0.3,0.6-0.6,1-0.9   C342.2,17.3,342.8,17.6,343.3,17.8C343.3,17.8,343.3,17.8,343.3,17.8z" />
	<path fill="#181513" d="M314.3,53c0.1,0.4,0.3,0.8,0.4,1.1c-0.7,1.5-2.1,0.8-3.1,1.3c0,0.4,0,0.8,0,1.1c-0.9-1-2.1-1.9-2.1-3.5   c0.2-0.1,0.5-0.3,0.5-0.4c-0.3-1.6,0.8-2.6,1.5-3.7c0.5,0,0.9,0,1.4,0C312,51,310,55,314.3,53z" />
	<path fill="#D6B6A8" d="M316.4,50.9c-0.5,0.2-0.9,0.5-1.4,0.7c-0.1-1.5,0.9-4-1.4-4.2c0,0,0,0,0,0c-0.5-0.4-1-0.9-1.3-1.5l0,0   c-0.4-0.8-0.9-1.5-0.7-2.4c0.7-0.1,1.3-0.3,2-0.4C315.8,45.1,315.6,48.3,316.4,50.9z" />
	<path fill="#C7A99C" d="M311.5,48.9c-0.7,1.1-1.8,2.1-1.5,3.7c0,0.1-0.3,0.2-0.5,0.4c-1-1.7-2.4-3.2-2-5.3c0.7-0.7,1.4-1.3,2.5-0.8   l0,0C310.6,47.5,311,48.2,311.5,48.9z" />
	<path fill="#343434" d="M326.4,17.1c1,1.8-2.7,5.8-4.4,5.2C322.3,19.7,324.5,18.8,326.4,17.1z" />
	<path fill="#2D2D2D" d="M365,16.2c-2.7-2.2,0.1-4.5,2.6-4C366.8,14.4,366.8,14.4,365,16.2z" />
	<path fill="#2E2E2E" d="M339.9,12.9c0-1.2,0-2.1,0-2.9c1.8-1,1.8-1,3.8-1.1C342.8,10.7,341.5,11.7,339.9,12.9z" />
	<path fill="#2C2C2C" d="M311.5,32.1c0.9,0.4,1.3,0.6,1.5,0.7c0.1,1.6-0.4,3.6-0.9,5.4C310.8,36.8,311.9,34.6,311.5,32.1z" />
	<path fill="#272727" d="M326,10.1c-0.8,1.2-1.2,1.8-1.8,2.7c-1,0-2.1,0.1-3.9,0.2C322.4,11.7,323.6,10.4,326,10.1z" />
	<path fill="#323232" d="M325.2,32.6c0.7-2.3,0.8-2.4,1-4.5C329.8,28.4,327,31,325.2,32.6z" />
	<path fill="#352E2A" d="M314.3,53c-0.5,0.2-1.1,0.4-1.6,0.5c0-0.4,0.1-0.8,0.1-1.5c-0.8,0.6-0.4,0.8-0.4,1.5   c-2.1-0.5,0.3-3.4,0.4-4.7c0.2,0,0.5,0,0.7,0c0,1.2-0.9,2.6,0.7,3.5C314.3,52.5,314.3,52.8,314.3,53z" />
	<path fill="#181513" d="M310,46.9c-1.1-0.5-1.8,0.1-2.5,0.8c-0.1-1.5,1-2.6,1.9-3.7C310.8,45.3,310.8,45.3,310,46.9z" />
	<path fill="#181513" d="M314.3,52.3c-1.6-0.9-0.7-2.3-0.7-3.5c1-0.5-0.1-1,0-1.4c2.2,0.2,1.2,2.7,1.4,4.2   C314.7,51.8,314.5,52.1,314.3,52.3z" />
	<path fill="#202020" d="M320.3,44.3c0.5,1.8-0.6,3.5-2.4,3.8C318.6,46.1,318.8,45.7,320.3,44.3z" />
	<path fill="#2E2E2E" d="M357.7,8.8c0.4-1.3,0.7-2.2,1-3.1C360.8,5.5,360,8.9,357.7,8.8z" />
	<path fill="#363636" d="M319.3,38c0-2.5,0-2.5,1.5-3.6C321.6,36.2,320.6,36.4,319.3,38z" />
	<path fill="#363636" d="M317.1,33.7c0.4,0.3,0.8,0.6,1.4,1.1c-0.9,0.6-1.7,1-2.4,1.5C315.4,35.4,315.5,35.1,317.1,33.7z" />
	<path fill="#1C1C1C" d="M332.6,7.5c1.4-1.1,2.1-0.7,2.8,0.1c-0.1,0.3-0.3,0.5-0.5,1C334.2,8.3,333.6,8,332.6,7.5z" />
	<path fill="#1B1B1B" d="M335.8,14.8c-0.2-1.4-0.5-2.6,0.6-3.7C337,12.3,337,12.3,335.8,14.8z" />
	<path fill="#222222" d="M354.4,20.9c1.4-0.5,2.3-0.4,3.2,0.7C356.3,22.2,355.4,22.1,354.4,20.9z" />
	<path fill="#252525" d="M347.3,14.9c-0.5-1.2-0.5-1.2,1.2-1.8C348.8,14.3,348.2,14.7,347.3,14.9z" />
	<path fill="#222222" d="M343.3,17.8c-0.1-1.3,0.7-2,1.8-2.5C344.7,17.3,344.7,17.3,343.3,17.8L343.3,17.8z" />
	<path fill="#232323" d="M315.7,12.3c-0.5-0.4-1-0.9-1.6-1.4C315.6,10.3,315.6,10.3,315.7,12.3z" />
	<path fill="#1A1A1A" d="M352.4,20.2c-1.4-0.5-2-0.8-3.1-1.2C350.7,18.3,351.4,18.5,352.4,20.2z" />
	<path fill="#1A1A1A" d="M340.3,16.6c-0.3,0.7-0.6,1.2-0.9,1.9C337.9,17.8,338.8,16.4,340.3,16.6z" />
	<path fill="#1F1F1F" d="M347.6,10.7c0.1-1.8,1.2-1.1,2.3,0C348.7,10.7,348.1,10.7,347.6,10.7z" />
	<path fill="#1C1C1C" d="M321.2,18.5c0.2-0.9,0.2-1.5,1.2-1.8C322.8,17.9,322.4,18.5,321.2,18.5C321.2,18.5,321.2,18.5,321.2,18.5z" />
	<path fill="#181513" d="M313.6,43.2c-0.7,0.1-1.3,0.3-2,0.4C312.1,42.4,312.5,42.4,313.6,43.2z" />
	<path fill="#181513" d="M311.6,44.5c0.2,0.5,0.5,1,0.7,1.5C311.4,45.9,311.5,45.2,311.6,44.5z" />
	<path fill="#343333" d="M338.4,25.4c-0.5,0.9-0.7,0.9-1.5,0.1C337.4,25.5,337.9,25.4,338.4,25.4z" />
	<path fill="#181818" d="M308.7,21.3c0.5,0,0.9,0,1.4,0C309.7,22.1,309.2,22.1,308.7,21.3z" />
	<path fill="#181513" d="M310.7,47.7c-0.2-0.3-0.5-0.5-0.7-0.8C310.5,46.9,310.7,47.2,310.7,47.7z" />
	<path fill="#181513" d="M312.9,46.8c0.2,0.2,0.5,0.4,0.7,0.7C313.4,47.2,313.1,47,312.9,46.8z" />
	<path fill="#181513" d="M312.3,46c0.2,0.3,0.4,0.5,0.6,0.8C312.7,46.5,312.5,46.2,312.3,46z" />
	<path fill="#1C1C1C" d="M321.2,18.5c-0.1,0.2-0.2,0.3-0.3,0.5C321,18.8,321.1,18.6,321.2,18.5C321.2,18.5,321.2,18.5,321.2,18.5z" />
	<path fill="#B7A29A" d="M357.5,43.6c1.1-0.3,2.2-0.5,3.5-0.8c0.1,0.5,0.1,1,0.2,1.8c-1.4-0.2-2.6-0.3-3.8-0.5   C357.5,43.9,357.5,43.7,357.5,43.6z" />
	<path fill="#37312E" d="M354.3,48.2c0,0.9,0,1.7,0,2.8c-1.3-1.5-1.4-2.7-0.8-5.1C353.8,46.6,353.3,47.7,354.3,48.2z" />
	<path fill="#ECC8B8" d="M330.6,81.4c2.6,2.2,5.6,2.9,8.5,4.1c-0.9-0.1-1.7-0.1-2.7-0.2c0.2,2.7,3.8,1.5,5.5,2.8   c-0.2,0.5-0.4,1.1-0.7,1.6c0.9,3.3-1.4,5.8-2,8.5c0.3,0,0.6,0,1.1,0c0.3,1.8,0.1,3.2-1.9,3.7c-3.7-1.3-6.2-4.3-9.3-6.6   c-0.2,0.2-0.3,0.4-0.5,0.5c-0.2-0.3-0.4-0.5-0.7-0.8c0.2-2.8,0.2-6.1-1.9-8.1c0-0.8,0-1.6-0.1-2.4c0.7,0.6,0.4,2.1,1.9,2.1   c0.7-1,0.1-2.1,0-3.2C328.6,81.7,331.4,84,330.6,81.4z M334,87.6c-0.8,1.2-0.4,2.4,0.7,3.8C335.4,89.9,334,88.9,334,87.6z" />
	<path fill="#ECC8B8" d="M344.5,86.9c2.3,0.2,4.9-0.6,7,0.6C349.2,87.2,346.5,88.3,344.5,86.9z" />
	<path fill="#1E1A18" d="M338.2,86.9c-1,0-1.7-0.2-1.7-1.6c0.9,0.1,1.8,0.1,2.7,0.2l0,0c0.2,0.2,0.5,0.5,0.7,0.7   C339.3,86.4,338.7,86.7,338.2,86.9z" />
	<path fill="#ECC8B8" d="M341.1,86.2c0.8,0,1.7-0.4,2.1,0.6C342.4,87,341.7,86.8,341.1,86.2z" />
	<path fill="#ECC8B8" d="M339.8,86.2c-0.2-0.2-0.5-0.5-0.7-0.7c0.6-0.1,1.1,0,1.4,0.6C340.3,86.1,340,86.1,339.8,86.2z" />
	<path fill="#4B65C5" d="M337,319.2c0.1,0.3,0.1,0.7,0.3,1.2c9.2,3,17.6,16.8,19.5,25.7c-5.7-3.9-10.1-10.3-15-15.6   c-0.3,0.4-0.4,0.5-0.6,0.7c-1.7-1.6-2.9-3.8-5.4-4.4C335.8,324.2,335.8,321.6,337,319.2z" />
	<path fill="#4B65C5" d="M342.6,349.1c5.7,6.3,17.9,15.3,17.1,24.3c-5,0.2-8.5-4.7-10.8-8.6c2.7,0.7,3.7,4,6.3,4.4   c-2.5-7-17.3-10.7-12-17.6C342.9,350.6,342.8,349.8,342.6,349.1z" />
	<path fill="#0D1223" d="M337,319.2c-2.6,10.4,1,19.1-7.5,28.6c0.2-6.2,6-11.9,5.4-18.2c-1.3-4.3-0.8-10.1,2.3-13.4   c6.6,4.2,13.8,7,19.8,12.1c-0.2,0.2-0.5,0.5-0.7,0.7C351.3,326.9,341.6,318.1,337,319.2z" />
	<path fill="#4A63C1" d="M319.4,277.8c-0.4,0.8-1.2,2.1-1.9,3.5c-3.8-4.7-2.2-11.6-2.5-17.3C318.6,254.2,320.8,274.5,319.4,277.8z    M317.4,271c1.7-1.9,1.5-6.9-1-7.8C315.9,265.9,316.6,268.4,317.4,271z" />
	<path fill="#05060D" d="M350.7,365.8c-4.4-3.1-14.1-7.6-9.8-14.1c-0.9-3-1.8-5.9-2.6-8.7c0.2-0.7-0.3-1.7,0.7-2.1   c1,3.9,3.3,6.9,4.1,10.8c-4.8,6.5,5.7,8.7,8.5,13.3C351.3,365.1,351,365.4,350.7,365.8z" />
	<path fill="#4B65C5" d="M340.5,306.3c0.7,0,1.4,0,2.1,0c4.4,4.9,9.9,9.8,12.9,15.6c-6.6-1.3-9.9-11.1-15.6-13.5   C340.1,307.7,340.3,307,340.5,306.3z" />
	<path fill="#0C1020" d="M356.4,293.9c1.5,3.6,9.6,15.2,6.6,18c-2.5-5.8-4.9-11.5-7.4-17.3C355.8,294.4,356.1,294.1,356.4,293.9z" />
	<path fill="#4A63C1" d="M334.2,322.8c0.1,5.1,1.7,9.9-1.3,14.6C333.9,332.8,329.7,326.1,334.2,322.8z" />
	<path fill="#0C101F" d="M307.2,276c2,4.2,1.8,9.3,1.4,14.1C307.6,285.7,305.1,279.8,307.2,276z" />
	<path fill="#4C66C7" d="M344,293.9c-0.2-1.2-0.4-2.3-0.6-3.5c3.5,0.2,4.9,3.8,6.5,7.2C347.6,298.1,346.5,294.1,344,293.9z" />
	<path fill="#0C1020" d="M309.2,260c2.5,1.1-0.5,3.5-0.9,5.2c-1.7,2.5-2.2,5.5-2.8,8.3C304.3,268.3,306.5,264.1,309.2,260z" />
	<path fill="#1E284F" d="M305.9,253.8c0.7,0.3,1.4,0.6,2.2,0.9c0,0.5,0,0.9,0,1.3c-1.5,1.5-3.3,0.5-5.1,0.7   c-0.2,0.2-0.5,0.6-0.8,0.9c-0.5-0.6-1-1.2-1.6-2c0.2-0.8,0.5-1.6,0.8-2.5C304.1,254.7,302.6,256.1,305.9,253.8z" />
	<path fill="#080B15" d="M292.2,262.3c-0.7,0.4-1.4,0.9-2.2,1.3c0.4-3,3.4-5.5,4.9-8.4c1.3,0.8,0.8,1.9,0.9,2.8   C294.8,259.6,293.7,261.1,292.2,262.3z" />
	<path fill="#2E3E7A" d="M325.3,282.2c2,4.1,4.7,8.1,6.3,12.3c-0.2,0.2-0.4,0.4-0.6,0.7c-2.6-3.9-4.6-8-6.3-12.3   C324.8,282.6,325,282.4,325.3,282.2z" />
	<path fill="#4D68CB" d="M341.1,280.7c-0.7-0.3-0.6-0.8-0.5-1.4c3.9-1.3,4.8,3.3,7,5.9C344.8,284.6,343.4,282.3,341.1,280.7z" />
	<path fill="#2F3E7B" d="M352.3,275.2c-0.9-2.3-3.6-4.1-2.5-6.8c1.7,1.8,2.5,4,3.3,6.1C352.7,274.7,352.5,275,352.3,275.2z" />
	<path fill="#182140" d="M336.3,329c-0.9-0.6-0.5-1.4-0.5-2.2c2.4,0.6,3.6,2.8,5.4,4.4c0,0.5,0.2,1-0.5,1.2   C339.2,331.6,337.7,328.4,336.3,329z" />
	<path fill="#0F1428" d="M341.2,265.6c0.2,0,0.4,0,0.6,0c1.4,1.6,2.4,3.4,3,5.5c-0.3,0-0.7,0.1-1,0.1   C342.8,269.3,341,267.8,341.2,265.6z" />
	<path fill="#3F55A7" d="M352.3,275.2c0.2-0.2,0.5-0.5,0.7-0.7c2.3,3.6,2.6,4.3,2.3,6.2C353.9,278.9,353.2,277,352.3,275.2z" />
	<path fill="#334487" d="M316.3,258.7c1.9,0.3,3.5,1.4,5.3,2c-0.1,0.2-0.2,0.4-0.3,0.6c-2.3-1.1-5-0.9-7.2-1.8   C314.9,259.2,315.9,259.8,316.3,258.7z" />
	<path fill="#4B65C5" d="M331.5,321.5c0.1,1.7-0.6,3.1-1.9,4.1c-1.2-0.6-0.8-1.5-0.8-2.2C329.7,322.7,330.6,322.1,331.5,321.5z" />
	<path fill="#232F5D" d="M322.6,349.1c0,1.8-4.2,4.1-5.5,2.8C319,351.1,320.8,350.1,322.6,349.1z" />
	<path fill="#2C3C76" d="M340.5,306.3c-0.7,2.1-0.6,3.9-2.5,5.6c-0.2-1.9,0.7-3.1,1.2-4.9c0.6-0.3,0.7-0.8,0.7-1.4l0,0   c0.2,0,0.5,0,0.7,0C340.5,305.8,340.5,306,340.5,306.3z" />
	<path fill="#192244" d="M330.2,269c0.4,0,0.8,0,1.2,0c0,1.3,0.4,2.6-0.5,4.2C329.7,271.9,330.3,270.6,330.2,269z" />
	<path fill="#29376C" d="M356.3,329.1c0.2-0.2,0.5-0.5,0.7-0.7c1.6,0.8,2.6,2,3.3,3.8c-1.3,0.3-1.4-1-2-1.4   C357.6,330.4,357,329.7,356.3,329.1z" />
	<path fill="#465EB9" d="M325.3,282.2c-0.2,0.2-0.5,0.4-0.7,0.7c-1-1.3-2-2.7-2-4.9C324.2,279.3,324.6,280.8,325.3,282.2z" />
	<path fill="#304180" d="M356.4,293.9c-0.3,0.2-0.5,0.5-0.8,0.7c-0.6-1.8-1.6-3.4-1.7-5.3C355.1,290.6,355.6,292.3,356.4,293.9z" />
	<path fill="#1D274C" d="M316.3,258.7c-0.4,1.1-1.5,0.5-2.2,0.8c-1-0.1-2-0.1-2.4-1.4C313.4,257.5,314.8,258.8,316.3,258.7z" />
	<path fill="#212D59" d="M297.1,253.8c-0.1,0.3-0.2,0.6-0.3,1c-1-0.2-1.3-1.6-1.9-2.3c0.8-1.1,1.4-0.2,2,0.1   C297,253,297.1,253.4,297.1,253.8z" />
	<path fill="#232F5D" d="M343.9,271.1c0.3,0,0.7-0.1,1-0.1c0.7,0.9,1.3,1.8,1.9,2.6C345.2,275.1,344.7,271.9,343.9,271.1z" />
	<path fill="#1E2950" d="M333.7,262.7c-0.5,0-1.1,0-1.6,0c0.6-1.2,0.6-2.6,2.1-3C334.1,260.7,333.6,261.7,333.7,262.7z" />
	<path fill="#3D52A2" d="M330.9,295.2c0.2-0.2,0.4-0.4,0.6-0.7c0.8,0.7,1.2,1.5,1.1,2.8C331.4,296.8,331.2,295.9,330.9,295.2z" />
	<path fill="#151C37" d="M331.5,321.5c-0.9,0.6-1.8,1.3-2.7,1.9C328.5,321.9,330.6,320,331.5,321.5z" />
	<path fill="#4B65C5" d="M340.5,305.6c-0.2,0-0.5,0-0.7,0c-0.1-1-0.2-2,1-2.5C341.7,304.1,340.7,304.8,340.5,305.6z" />
	<path fill="#4B65C5" d="M339.8,305.6c0,0.6,0,1.1-0.7,1.4C339.1,306.4,339.1,305.8,339.8,305.6z" />
	<path fill="#0B0A0A" d="M339.9,409.8c5.6-4.6,11.8-7.8,11.8-16.3c-0.1-0.8,0.3-1.7,1.4-2.5c1.6,7.4-0.8,14.4-7.5,17.9   c0.1,1.3,0.3,2.8,0.4,4.2c3.1,1.2,4.7,4,5.6,6.9c-0.3,0.3-0.5,0.5-0.8,0.8c-0.5-0.7-1.1-1.4-1.8-2.4c-5.2-0.3-5-5.1-5.7-9   C342,409.6,340.9,409.7,339.9,409.8L339.9,409.8z" />
	<path fill="#ECC8B9" d="M350.7,417.6c-1.2-1.8-2.4-3.6-4.7-4.4c-0.1-1.5-0.3-2.9-0.4-4.2c1.6-1.2,3.1-2.2,4.6-3.3   C351.9,409.8,353.1,413.5,350.7,417.6z" />
	<path fill="#110F0E" d="M324.6,476c1-3,3.9-4.4,6.4-6.1c0.4,0,0.8,0,1.2,0c0,3.1-2.9,4.9-4.8,6.9   C326.4,476.6,325.2,477.3,324.6,476z" />
	<path fill="#161413" d="M327.5,403.8c3-1,7,2.7,10.1,3.7c-0.8,0.9-2.6,0.3-4.3,0.8C331.9,407.2,327.7,406.4,327.5,403.8z" />
	<path fill="#26211F" d="M324.6,476c0.6,1.3,1.8,0.6,2.8,0.8c-0.7,1.3-2.1,0.3-3.4,1c-0.6,1-1.4,2.4-2.2,3.7   c-0.6,0.3-1.2,0.5-1.8,0.8C318.9,479.4,322.5,477.1,324.6,476z" />
	<path fill="#2E2927" d="M339.4,431.4c-3.9-1.3-5.8-3.5-7.4-6.9C335.2,426.3,336.8,427.8,339.4,431.4z" />
	<path fill="#38322F" d="M332.2,469.8c-0.4,0-0.8,0-1.2,0c0.4-0.6,0.8-1.1,1.3-1.9c-0.2-0.3-0.4-0.8-0.7-1.4   c0.5-1.3,0.5-2.9,1.9-4.4C334.3,465.2,333,467.2,332.2,469.8z" />
	<path fill="#1F1B1A" d="M346.6,424.8c-1.1,0.2-1.7-0.4-2-1.2C343.5,418.2,348.2,420.7,346.6,424.8z" />
	<path fill="#413A37" d="M334.8,456.2c0.4,3,0.4,3-1,5C332.7,459.7,332.8,459.4,334.8,456.2z" />
	<path fill="#4F4643" d="M327,417.2c1.7,0.8,2.7,2.1,3.2,4.1C328.2,420.3,328.2,420.3,327,417.2z" />
	<path fill="#181514" d="M332.1,521.1c0.2,1.2,0.4,2.4-0.1,3.7C330.6,523,330.7,522.5,332.1,521.1z" />
	<path fill="#A9978F" d="M333.5,509.8c0,1.6,0.4,2.7-0.9,3.5C331.9,512,332,511,333.5,509.8z" />
	<path fill="#322D2A" d="M333.9,446.7c-0.4-1.5-0.8-2.7,0.2-4.5C334.2,444.3,335.7,445.5,333.9,446.7z" />
	<path fill="#524945" d="M342.6,433.2c0.7,0.6,1.7,1.1,1.3,2.3c-1.2,0-1.6-0.8-2.1-1.5C342.1,433.8,342.3,433.5,342.6,433.2z" />
	<path fill="#322C2B" d="M331.6,516.4c0.9,1.5,0.9,1.5,0.1,3.8C331.4,518.4,331.3,517.8,331.6,516.4z" />
	<path fill="#201D1B" d="M334.2,450.4c1.3,1.3,1.7,2.9,0.2,3.8C334.2,453,333.9,451.9,334.2,450.4z" />
	<path fill="#4B433F" d="M350.8,420.8c0.3-0.3,0.5-0.5,0.8-0.8c0.8,0.7,0.7,1.6,1,2.7C351.4,422.4,351.1,421.6,350.8,420.8z" />
	<path fill="#766964" d="M342.6,433.2c-0.3,0.3-0.5,0.6-0.8,0.8c-0.6-0.6-1.2-1.2-2.1-2.1C341.2,431.9,342,432.5,342.6,433.2z" />
	<path fill="#24211F" d="M354.9,387.3c-0.3,0.6-0.5,1.1-0.8,1.7c-0.1,0-0.3-0.1-0.4-0.1c0-0.6,0-1.3,0-2.1   C354.2,387,354.5,387.2,354.9,387.3z" />
	<path fill="#524944" d="M324.5,398.8c0.1-0.2,0.2-0.3,0.4-0.6c1.2,0.6,1.3,1.5,1.1,2.7C325.5,400.1,325,399.4,324.5,398.8z" />
	<path fill="#95867F" d="M333.7,505.4c-0.1-0.5-0.1-0.9-0.2-1.4c0.2,0,0.3,0,0.5,0c0.1,0.5,0.1,0.9,0.2,1.4   C334,505.4,333.9,505.4,333.7,505.4z" />
	<path fill="#0B0A0A" d="M339.8,409.8c-0.3,0.2-0.6,0.4-0.2,0.1C339.2,410,339.5,409.9,339.8,409.8L339.8,409.8z" />
	<path fill="#EDCABA" d="M290.7,420.2c-2.3-1.6-3.1-5.1-3.3-7.8c0.6,0.2,1.2,0.4,2.1,0.8c0.7-2.2-0.5-3.6-1.3-5.4c0.9,0,1.8,0,3,0   c14.3,13.8-3.8,29.2-0.3,13c0.4,0.2,0.7,0.4,1.1,0.6c0.4-0.8,0.5-1.4-0.4-1.9c0-1.1,0.2-2.2-1.7-2.8c0.4,1.2,0.7,2,0.9,2.8   C290.8,419.7,290.8,419.9,290.7,420.2z M293.5,419.2c1,0.6,1.5,0.1,1.9-0.8C294.3,417.8,293.7,418.1,293.5,419.2z" />
	<path fill="#25211F" d="M293.7,442.1c-2.3-6.8-5.3-13.4-8.5-19.9c0.2-0.4,0.4-0.9,0.6-1.3c3.4,6.4,7.6,12.4,8.6,19.8   C294.1,441.2,293.9,441.7,293.7,442.1z" />
	<path fill="#161413" d="M268.1,467c-0.4-4.8-0.1-10.2,3-14c0.6,3,0.2,5.7-1.8,14C268.9,467,268.5,467,268.1,467z" />
	<path fill="#191615" d="M288.2,407.7c0.8,1.9,2,3.2,1.3,5.4c-0.9-0.3-1.5-0.5-2.1-0.8c-0.6-2.4-3.5-5.1-2.2-7.4c0.3,0,0.5,0,0.8,0   C286.7,405.9,287.5,406.8,288.2,407.7z" />
	<path fill="#2A2422" d="M284,419.4c-3.6-2.7-4.8-7.9-2.1-11.5c0.9,0.5,0.8,1.3,0.7,1.9C281.7,413.2,283.9,416.2,284,419.4z" />
	<path fill="#1A1716" d="M304.6,395.3c-0.1-1-0.1-1.9,0.6-2.6c1.2,3.2,3.2,6.5,2.9,10.1c-0.5,0-1-0.1-1.4-0.1   C306,400.3,305.3,397.8,304.6,395.3z" />
	<path fill="#2D2826" d="M305.3,417c-0.1,0.2-0.1,0.4-0.2,0.6c-4.1-0.4-4.3-0.5-6.8-2.8c0.2-1.6,3.6-1.3,3.9-0.1   C302.7,416.6,304.4,415.9,305.3,417z" />
	<path fill="#24201F" d="M285.9,400c0.5-3.4,0.5-3.6,2-5.1c2.2,1.4-1.1,5.2-1.3,7.3C285.6,401.7,286.1,400.7,285.9,400z" />
	<path fill="#332D2B" d="M280.6,385.2c2.6,2.3,5.6,2.6,8.8,3.3C287.8,390.8,280,388.2,280.6,385.2z" />
	<path fill="#473F3C" d="M273.4,442c0-2.3,1.1-4.3,1.7-6.4c2.7,1.3-0.8,5.1-1,7.3C273.9,442.6,273.6,442.3,273.4,442z" />
	<path fill="#443C38" d="M303.1,385.7c0.2-1.5-1.9-5.2,0.4-5.3c0.5,3.1,1.1,7.9-0.3,10.6c0-0.2,0-0.4-0.2-0.5   C303.1,388.9,303.1,387.3,303.1,385.7z" />
	<path fill="#0E0D0C" d="M280.8,508.7c1.2,3.4,1.2,5.2-0.1,7.8C279.8,513.7,280.3,511.2,280.8,508.7z" />
	<path fill="#4D4440" d="M283.3,433.2c-0.1-0.6-0.4-1.3,0.6-1.4c1.6,2.2,3.1,4.4,3.3,7.4C285.1,437.6,284.9,435.2,283.3,433.2z" />
	<path fill="#615752" d="M279.7,430.1c-1.1-0.8-2.2-1.6-3.4-2.4c0.3-0.4,0.5-0.7,0.8-1.1c1.1,0.7,2.1,1.4,2.7,2.5   C279.8,429.4,279.8,429.7,279.7,430.1z" />
	<path fill="#4B423E" d="M268,482.2c-0.4,0.5-0.8,0.9-1.7,2c0.2-1.7,0.3-2.7,0.4-3.7c0.5,0,0.8,0,1.2,0   C267.9,481,268,481.6,268,482.2z" />
	<path fill="#352F2D" d="M285.9,400c0.2,0.7-0.3,1.7,0.7,2.2c-0.2,0.9-0.4,1.8-0.7,2.8c-0.3,0-0.5,0-0.8,0   C285,403.2,285,401.5,285.9,400z" />
	<path fill="#897A74" d="M268.7,471.9c0.1,0.8,0.1,1.6-1.1,1.8c-0.3-1.1-0.5-2.2,0.3-3.3C268.1,470.9,267.8,471.7,268.7,471.9z" />
	<path fill="#756862" d="M293.7,442.1c0.2-0.5,0.4-0.9,0.7-1.4c0.9,1,0.7,2.1,0.4,3.7C294.3,443.4,294,442.8,293.7,442.1z" />
	<path fill="#665A56" d="M273.4,442c0.2,0.3,0.5,0.6,0.7,0.9c-0.2,0.9-0.5,1.9-0.7,2.8c-0.2,0-0.4,0-0.6,0   C273,444.4,273.2,443.2,273.4,442z" />
	<path fill="#7E716B" d="M268.1,467c0.4,0,0.8,0,1.2,0c0.2,0.9,0.2,2.4-1.2,2.2C268.1,468.5,268.1,467.8,268.1,467z" />
	<path fill="#87736A" d="M291.6,419.5c0.8,0.5,0.8,1.1,0.4,1.9c-0.4-0.2-0.7-0.4-1.1-0.6c0-0.2,0-0.4-0.2-0.6   c0.1-0.3,0.1-0.5,0.2-0.8C291.1,419.4,291.3,419.4,291.6,419.5z" />
	<path fill="#E9C6B7" d="M303.1,387c0,1.1,0,2.3,0,3.4C302.2,389.3,302.2,388.2,303.1,387z" />
	<path fill="#746762" d="M282.2,528.4c-0.9-1-0.3-1.9,0-2.8C282.4,526.5,283.1,527.4,282.2,528.4z" />
	<path fill="#6A5F5A" d="M272.8,445.7c0.2,0,0.4,0,0.6,0c-0.2,0.8-0.5,1.7-0.8,3C272,447.3,272,446.4,272.8,445.7z" />
	<path fill="#282422" d="M268.1,469.2c0.2,0,0.4,0,0.7-0.1c0,0.9-0.1,1.8-0.1,2.7c-0.9-0.2-0.6-0.9-0.8-1.5   C268,470,268,469.6,268.1,469.2z" />
	<path fill="#857770" d="M279.7,430.1c0-0.3,0.1-0.7,0.1-1c0.4,0.3,0.8,0.6,1.3,0.9c0,0.5,0.1,1.1-0.6,1.2   C280.2,430.8,280,430.4,279.7,430.1z" />
	<path fill="#7A6D67" d="M285.8,421c-0.2,0.4-0.4,0.9-0.6,1.3c-0.7-0.6-0.9-1.2-0.2-2.2C285.3,420.4,285.6,420.7,285.8,421z" />
	<path fill="#18203C" d="M272.2,311.9c-1.1,11.9-0.1,23.9-1.5,35.8c-0.5-0.5-0.9-1-1.4-1.4c1.3-12.4,0.7-24.8,2.2-37.2   C272.2,309.9,272.3,310.8,272.2,311.9z" />
	<path fill="#080A14" d="M269.3,346.2c3.8,4.3,6.9,14.2,7.4,16.3c-4-4-6.6-10.9-8-16.3C268.9,346.2,269.1,346.2,269.3,346.2z" />
	<path fill="#090C17" d="M282.1,254.6c1.3,5-2.4,10.2-4.4,14.8C278.2,265.9,279.1,256.1,282.1,254.6z" />
	<path fill="#131A33" d="M263.4,345.1c2.2,2.4-0.1,7.4,0.5,10.6c-0.3,2.8,1.8,6.1-0.4,8.4C262.4,357.8,261.4,350.9,263.4,345.1z" />
	<path fill="#0D1224" d="M274.2,292.4c1.3-5.2,2.5-10.3,3.8-15.6c1.3,3.7-0.7,9.6-1.1,13.7c-1.5,1.4-1.5,1.4-2,3.3   C274.6,293.3,274.4,292.9,274.2,292.4z" />
	<path fill="#283668" d="M274.2,292.4c0.2,0.5,0.5,0.9,0.7,1.4c-1.4,5.9-1.4,12.2-2.6,18.1c0-1,0-2-0.7-2.8   C272.3,303.5,272.3,297.7,274.2,292.4z" />
	<path fill="#05060C" d="M283.9,268.3c0.1-2.2-2-5.3,0.5-6.7c1.5,2.1,0.9,4.4,0.8,6.7C284.8,268.3,284.4,268.3,283.9,268.3z" />
	<path fill="#1B2447" d="M283.9,268.3c0.4,0,0.8,0,1.3,0c0,0.9,0.4,1.9-0.6,2.9C283.6,270.2,283.9,269.2,283.9,268.3z" />
	<path fill="#18203C" d="M268.7,346.2c0,0.5,0,1,0,1.5C268,347.4,267.5,345.8,268.7,346.2z" />
	<path fill="#0A0D1A" d="M290.8,251.8c-0.3,0-0.5,0-0.8,0C289.7,250.8,290.9,250.9,290.8,251.8z" />
	<path fill="#060F09" d="M302.6,154.4c0.1,0.1,0.3,0.1,0.5,0.1c0.1,1,0.2,2,0.3,2.9c0.7,0.8,1.3,1.6,1.9,2.4   c-0.2,0.3-0.5,0.5-0.7,0.8c-0.3-0.3-0.6-0.7-1-1.2c-4.2,8.2-9.1,15.6-14.4,23.1c-0.9-1.3-0.2-2.3,0.2-3.3c1.1-0.6,2.1-1.3,2-2.7   c0.7-0.2,0.7-0.8,0.7-1.4l0,0c2.1-2.4,10.9-14.9,9-17.3c0.2-0.5,0.4-0.9,0.7-1.4c0-0.4-0.1-0.8-0.1-1.2   C302,155,302.3,154.7,302.6,154.4z" />
	<path fill="#0E2115" d="M291.5,176.5c0,1.4-1,2.1-2,2.7c2.4-7.6,6.1-15.1,6.8-23c-3.3-1.5-6.7-1.7-10.1-2.9c1.7-2.7,6.8,1,9.5,1.1   c1.7,1.1,4.2,0.9,6.2,2c-0.2,0.5-0.4,0.9-0.7,1.4c-1.1-0.4-2.1-0.7-3.3-1.1c-1.3,6.4-4,12.4-5.7,18.5l0,0   C291.4,175.3,291.5,176,291.5,176.5z" />
	<path fill="#0E1F14" d="M318.3,192.4c-0.1,0-0.4,0-0.5,0c-0.5-2.4-1-4.9-1.5-7.7c-1.5,0.4-1.8,1.8-3.3,1.1c0.8-0.9,1.7-1.8,2.4-2.6   c-1.9-6.5-2-13.7-7.4-18.3l0.1-0.1c8.3,1.1,4.9,15.3,9.8,18c-0.2,0.4-0.5,0.7-0.7,1.1C317.8,186.7,318.8,189.5,318.3,192.4z" />
	<path fill="#0C1F13" d="M298.4,191c-9.7,0-20.2,6-29.5,3.3c9.5-1.1,19.6-3.8,29.4-3.9C298.4,190.6,298.4,190.8,298.4,191z" />
	<path fill="#193B26" d="M274.3,190.3c-1-7.4-2.1-16.1,1.7-22.9c-0.8,7.3-2.6,14.5-1,22.1C274.8,189.8,274.5,190.1,274.3,190.3z" />
	<path fill="#1B432A" d="M279.7,209.6c2.6-3,6.7-5.4,10.8-5.7C287,206.1,283.6,208.3,279.7,209.6L279.7,209.6z" />
	<path fill="#0E2216" d="M309.3,176.2c-1.7,4.9-2.8,6.8-4.2,7.7C305.3,181.4,306.5,179.2,309.3,176.2z" />
	<path fill="#112A1B" d="M277.9,181.5c-0.3,1.9-0.6,3.7-2,5.4C275.2,184.4,276.6,183,277.9,181.5z" />
	<path fill="#0E1F14" d="M304.7,160.6c0.2-0.3,0.5-0.5,0.7-0.8c1,0.7,0.3,1.9,0.8,2.6c0.7,0.8,1.3,1.6,1.9,2.3l-0.1,0.1   C305.7,164.4,304.9,162.7,304.7,160.6z" />
	<path fill="#255939" d="M298.4,191c0-0.2,0-0.4,0-0.6c1.2-0.2,2.4-0.5,3.8-0.8C301.1,191.3,299.7,191.1,298.4,191z" />
	<path fill="#1B432A" d="M274.3,190.3c0.2-0.3,0.4-0.5,0.7-0.8c0.7,0.5,0.9,1.1,0.2,2.1C274.8,191.1,274.6,190.7,274.3,190.3z" />
	<path fill="#1B432A" d="M279.8,209.7c-0.1,0.2-0.2,0.3-0.3,0.5C279,209.7,279.5,209.7,279.8,209.7L279.8,209.7z" />
	<path fill="#3A3431" d="M303.2,111c0.7,0.2,0.8,0.7,0.8,1.4c-4.5-0.5-9.5-0.4-13.7-2C294.6,109,298.9,110.3,303.2,111z" />
	<path fill="#221E1D" d="M267.7,116.5c0.4,0.3,0.5,0.5,0.7,0.6c-0.8,2.8-2.9,5.3-4.8,7.7C262.1,121.5,264.9,118.1,267.7,116.5z" />
	<path fill="#221F1D" d="M280.7,110.9c3-1.5,3-1.5,5.9-1.1C285.1,111.4,283.3,111.1,280.7,110.9z" />
	<path fill="#544E49" d="M294.6,134.5c-1.8-1.7-0.7-3.8-1.9-5.3C295,130.1,294.8,131.7,294.6,134.5z" />
	<path fill="#8D7F79" d="M290.2,110.4c0.5,0.2,0.9,0.5,1.4,0.7c-0.7,0.7-1.6,0.6-2.4,0.4C289,110.6,289.5,110.4,290.2,110.4z" />
	<path fill="#BDABA0" d="M292.5,126.9c-0.5-0.7-0.9-0.9-0.8-1.6C292.4,125.2,293.2,125.3,292.5,126.9z" />
	<path fill="#94847D" d="M289.1,121.1c-0.3-0.3-0.4-0.6,0-0.8C289.5,120.5,289.2,120.7,289.1,121.1z" />
	<path fill="#B6BCD4" d="M310.2,235.1c3.3,4.1,4.8,10.2,5.5,15.4c-0.6,0.3-1,0.6-1.6,1c-1.4-0.1-2.1-1.3-3.1-2.3   c-0.5-0.4-1.4,0-1.6-1c0.4,0,0.8,0,1.5,0c1.3-4.5,0.5-8.7-0.9-12.9L310.2,235.1z" />
	<path fill="#25262B" d="M310,235.3c1.4,4.2,2.2,8.4,0.9,12.9c-0.6,0-1,0-1.5,0c0.4-4.2,1.5-8.7-1.4-12.3c-0.2-1.3-1.1-2-2-2.8   c0.2-0.2,0.4-0.4,0.6-0.6C307.8,233.4,308.9,234.3,310,235.3z" />
	<path fill="#757885" d="M321.1,236c1.5,6.2,4.4,11.6,5.7,17.9C326.5,253.1,319.3,240.4,321.1,236z" />
	<path fill="#34363C" d="M337.7,237.3c1,4.6,2,9.8-0.7,14c-0.5-4.4,0.4-8.1-0.1-12.5C337.1,238.2,336.9,237.5,337.7,237.3z" />
	<path fill="#9CA1B3" d="M321.1,236c-0.7,0.2-0.6,0.8-0.7,1.4c-1.4-2.6-2-5.7-3.1-8.6C318.9,228.6,320.6,234.3,321.1,236z" />
	<path fill="#717581" d="M337.7,237.3c-0.8,0.2-0.6,1-0.8,1.5c-1.2-1.6-0.3-3.9-1-5.6c-0.5-1.3,0.1-2.2,1-3.5   C337.2,232.4,337.4,234.9,337.7,237.3z" />
	<path fill="#ADB3C9" d="M306.1,233c0.9,0.8,1.8,1.6,2,2.8c-1.8-0.9-3.9-1-3.5-3.4l0.1-0.1C305.2,232.6,305.6,232.8,306.1,233z" />
	<path fill="#848897" d="M328.6,242.9c-0.9,0.5-0.4,1.4-0.6,2.1c-1.1-1.9-0.6-3.9-0.1-5.9C328.1,240.3,328.4,241.6,328.6,242.9z" />
	<path fill="#50535C" d="M349.8,252c0.6,1,0.6,1.9-0.1,2.8C349.1,253.9,349.4,253,349.8,252z" />
	<path fill="#262627" d="M314.2,565.1c0.9,0.5,2.3,0.6,2.5,1.8c-2.2,2.5-4-0.9-6.6-0.7c0.3-0.4,0.5-0.7,0.8-1   C312,566.4,313.1,565.6,314.2,565.1z" />
	<path fill="#202021" d="M314.2,565.1c-1.1,0.5-2.2,1.3-3.3,0.1c0.4-0.5,0.8-1,1.3-1.5C313.1,563.7,314.3,563.5,314.2,565.1z" />
	<path fill="#302E2B" d="M407.8,162.2c-1.6-1.3-1.1-2.7-0.7-4.3C408.5,159,408.5,159.4,407.8,162.2z" />
	<path fill="#050605" d="M405.7,148.8c0.8,1.1,0.6,2,0.2,2.9C404.1,151.3,404.7,149.6,405.7,148.8z" />
	<path fill="#5C5650" d="M406.5,155.4c-1-0.5-1.4-2-0.1-2.3C406.9,153.9,407,154.6,406.5,155.4z" />
	<path fill="#1E211D" d="M401.4,181.9c0-1.2-0.8-2.6,0.5-3.4C401.8,179.7,402.4,180.9,401.4,181.9z" />
	<path d="M409.8,149.3c0-0.5,0-0.9,0-1.4C410.7,148.4,410.8,148.8,409.8,149.3z" />
	<path d="M409.6,146.5c-0.1-0.5-0.1-1-0.2-1.5c0.2,0,0.3,0,0.5,0c0,0.5,0.1,1,0.1,1.5C409.9,146.5,409.8,146.5,409.6,146.5z" />
	<path fill="#48B777" d="M393.7,186.3c-0.5,1.3-1,2.7-1.6,4c-2.7-0.2-5.2-1.1-7.9-1.7C384.9,187.7,393.7,184.4,393.7,186.3z" />
	<path fill="#143220" d="M369.5,196.6c-6.1,1.6-10.8,4.8-15.8,8.5c2.7-4.1,9.5-8.2,15.1-9.3C369,196.1,369.2,196.3,369.5,196.6z" />
	<path fill="#1B4129" d="M369.5,196.6c-0.3-0.3-0.5-0.6-0.8-0.8c3.8-1.9,8.4-2.9,12.7-2.3c-3.2,1.7-7.2,1.2-10.5,3.4   C370.3,197.2,369.8,197.3,369.5,196.6z" />
	<path fill="#1A432A" d="M359.1,197.2c-3.3,2.7-8.1,5.1-12.4,5.5C350.3,200.2,354.9,198.6,359.1,197.2L359.1,197.2z" />
	<path fill="#163622" d="M353.3,210.8c2.5-4.3,5.9-7.5,10.2-10c-1.7,2.8-4.9,4.1-6.7,6.9C355.8,209,355,210.3,353.3,210.8z" />
	<path fill="#0F2617" d="M344.6,193.2c0.6,1.5,1,1.5,0.2,2.6C343.6,195.4,343.8,194.7,344.6,193.2z" />
	<path fill="#1A432A" d="M359.1,197.2c0.2-0.5,0.5-0.9,1.3-0.2C359.9,197.1,359.5,197.2,359.1,197.2L359.1,197.2z" />
	<path fill="#24201E" d="M339,120.4c1.6-3.4,5.4-5.8,9.1-5c-1.9,2.6-5.7,2.9-8.1,5.2C339.9,120.7,339.7,120.5,339,120.4z" />
	<path fill="#211C1A" d="M340.5,99.9c0-0.5-0.1-1.1-0.1-1.6c-0.5,0-0.8,0-1.1,0c0.6-2.7,2.9-5.2,2-8.5c0.2-0.1,0.4-0.1,0.6,0   c-0.3,1.2,0.4,2,1.2,2.8c0.1,0.5,0.1,1.1-0.5,1.3c-0.1-0.1,0-0.7-0.5-0.3c0.2,0.1,0.3,0.2,0.5,0.3c0,0.7,0.2,1.4,0,2.1   c-0.6,0.2-0.9,0.7-0.7,1.3c-0.1,0.2-0.1,0.4-0.1,0.6C341.5,98.5,341.2,99.3,340.5,99.9z" />
	<path fill="#3A322F" d="M326.2,87c2.1,2,2.1,5.3,1.9,8.1c-0.2,0-0.4,0-0.6,0c-1-2.7-1.7-5.3-1.3-8.2C326.1,86.9,326.2,87,326.2,87z   " />
	<path fill="#3E3835" d="M330.4,106.7c-1.9-1.9-2.4-3.2-2.2-6.3C329.9,101,331.1,105.3,330.4,106.7z" />
	<path fill="#70645F" d="M329.5,119.2c0.9,0.7,1.8,1.4,2.8,2.1c-0.3,0.3-0.5,0.5-0.8,0.8c-0.9-0.7-1.8-1.4-2.7-2.1   C329,119.7,329.3,119.4,329.5,119.2z" />
	<path fill="#C0A396" d="M340.5,99.9c0.6-0.5,0.9-1.3,1.3-2.1c0.4,1.5-0.1,2.8-1.1,4.3c-0.3-0.3-0.6-0.5-0.9-0.7   C340.5,101.1,340.4,100.4,340.5,99.9z" />
	<path fill="#AE9C93" d="M329.5,119.2c-0.2,0.2-0.5,0.5-0.7,0.7c-0.7-0.5-1.3-1-2.6-2C328,118,328.9,118.4,329.5,119.2z" />
	<path fill="#736660" d="M327.4,95.1c0.2,0,0.4,0,0.6,0c0.2,0.3,0.4,0.5,0.7,0.8c-0.1,0.6-0.1,1.1-0.8,1.2   C327.1,96.6,327.3,95.8,327.4,95.1z" />
	<path fill="#B4A198" d="M331.5,122.1c0.3-0.3,0.5-0.5,0.8-0.8c0.4,0.5,0.9,0.9,1.3,1.4l0,0C332.8,122.8,332,123,331.5,122.1z" />
	<path fill="#C0A396" d="M341.9,97.2c-0.1-0.7,0.2-1.1,0.7-1.3C342.7,96.5,342.5,96.9,341.9,97.2z" />
	<path fill="#EDC9B9" d="M326,90.3c0,0.2,0.1,0.4,0.1,0.7c-0.3-0.2-0.5-0.4-0.8-0.6l0,0C325.5,90.3,325.8,90.3,326,90.3z" />
	<path fill="#C0A396" d="M342.6,95.8c0-0.2,0-0.5,0.1-0.7c0.1,0.3,0.3,0.6,0.4,0.8C343,95.9,342.8,95.8,342.6,95.8z" />
	<path fill="#B4A198" d="M333.6,122.7c0.1,0.1,0.2,0.2,0.4,0.3C333.7,123.1,333.7,122.9,333.6,122.7L333.6,122.7z" />
	<path fill="#484B54" d="M339.3,219.8c-0.3,2.6,0,5.3-1.8,8.3C337.6,224.7,337.8,222.1,339.3,219.8z" />
	<path fill="#808494" d="M306.1,233c-0.5-0.2-0.9-0.4-1.4-0.7c-0.3-0.5-0.5-1-0.8-1.5c1.1-0.4,1.8,1,2.8,1.5   C306.5,232.6,306.3,232.8,306.1,233z" />
	<path fill="#122118" d="M374.4,168c-1.2-2.3-0.6-5.1-2.6-7c3.1-1.6,3.5,4.7,3.3,6.8C374.8,167.9,374.6,168,374.4,168z" />
	<path fill="#192F23" d="M394.1,172.7c-0.5,1.2-1.3,1.4-2.5,0.8C392.1,172,393,172.2,394.1,172.7z" />
	<path fill="#131A32" d="M326.7,363.5c1.3,1.3,3.1,6.2,2,7.8C327.7,369.4,324.8,365,326.7,363.5z" />
	<path fill="#141B34" d="M339.1,340.8c-1,0.4-0.5,1.4-0.7,2.1c-0.9-2-0.9-4.3-1.5-7.1C339,337,338.4,338.8,339.1,340.8z" />
	<path fill="#ECC9BA" d="M357.7,157.9c-0.4-0.4-0.7-0.8-1.1-1.3c-1.2,1.4-1.8,3.3-4,4c-0.7-4.9,4.4-11.4,8.8-13.7   c0.1,1.7-2.9,4.5-0.8,5.4c-0.1,0.7,0.4,1.7-0.7,2.1c0-0.4-0.1-0.8-0.2-1.8c-0.7,1.1-0.8,1.6,0.2,1.8c-0.3,1.3-1.3,0.1-1.9,0.6   c0.4,0.6,0.7,1.1,1.1,1.7C357.8,156.5,357.8,156.5,357.7,157.9z" />
	<path fill="#262321" d="M360.5,152.4c-2.1-0.9,0.9-3.7,0.8-5.4c0.3,0,0.7,0,1.1,0C363.7,149,361.7,150.8,360.5,152.4z" />
	<path fill="#1B1B18" d="M346.3,171c-0.6-1.3-0.5-2.6-0.2-3.9c2-1,2,3.1,0.6,3.8C346.5,170.8,346.4,170.8,346.3,171z" />
	<path fill="#726C64" d="M346.3,171c0.1-0.1,0.3-0.1,0.4,0c-0.3,0.7-0.6,1.4-0.9,2C343.7,172.9,345.4,171.4,346.3,171z" />
	<path fill="#161613" d="M357.7,157.9c0.1-1.4,0.1-1.4,1.3-1.2C358.8,157.4,358.7,158.2,357.7,157.9z" />
	<path fill="#1F1F1C" d="M345.8,174.8c-0.5,0.5-0.8,0.8-1.3,1.2C344.2,174.6,344.2,174.6,345.8,174.8z" />
	<path fill="#716059" d="M260.2,161.7c-1.6-1.2-1.6-1.2-1.2-2.3C260.6,160.3,260.6,160.3,260.2,161.7z" />
	<path fill="#231F1C" d="M264.2,161.5c1,0.7,1.5,1.5,0.9,2.6c-1.3,0-1.4-0.9-1.7-1.9C263.6,162,263.9,161.8,264.2,161.5z" />
	<path fill="#35A45E" d="M316.4,181.9c-0.7-3.2-1.8-6.3-2.1-9.6c3.1-0.6,4.4-4.5,7.7-5.4c-0.9,2.9-4.7,5.3-4.3,8.2   c4-1.1,6.9-4.7,10.4-6.8c-2.1,4.5-6.4,7.9-9.4,12c0.1,0.1,0.3,0.3,0.4,0.4C318.5,181.8,317.6,182.2,316.4,181.9z" />
	<path fill="#35A55F" d="M295.6,154.5c-2.5-0.7-5.1-1.4-7.6-2.1c0.5-5,3.3-5.3,7.6-4.2c1.2,1.7,3.1,3.4,3.5,5.5c0,0,0,0,0,0   C297.9,154,296.8,154.3,295.6,154.5z" />
	<path fill="#15301F" d="M328.1,168.3c-3.5,2.1-6.5,5.7-10.4,6.8c1.1-6.3,7.9-11.3,12.5-15.9c-2.1,5-8.3,7.8-10.3,13.2   c-0.2,0.1-0.3,0.1-0.3,0.3c0.1-0.1,0.2-0.2,0.3-0.4c6.5-1.8,8.4-8.4,12.3-13.1c0.3,0.2,0.6,0.4,0.9,0.6c-1.7,1.7-2.4,2.9-3,5.6   c1.8-0.6,2.5-1.6,4.3-2.6C333.7,165.8,330.1,166.5,328.1,168.3z" />
	<path fill="#35A35E" d="M308.1,164.7c-0.6-0.7-1.2-1.5-1.9-2.3c-0.5-0.7,0.2-1.9-0.8-2.6c-0.6-0.8-1.3-1.6-1.9-2.4   c-0.1-0.9-0.2-1.9-0.3-2.9c5.1,3.3,9.4,9.2,10.4,15.2C312.1,167.5,310.9,165.1,308.1,164.7z" />
	<path fill="#329357" d="M332.1,159.3c-3.9,4.7-5.8,11.3-12.3,13.1l0,0c1.9-5.6,9.1-8.4,10.3-13.8c0.8-0.2,0.7-1,0.8-1.5   C331.3,157.8,331.7,158.5,332.1,159.3z" />
	<path fill="#183925" d="M299.1,153.8c-0.1-1.9-2-3.2-2.8-4.8c0.2-0.2,0.5-0.5,0.7-0.7c1.2,2.6,4,3.8,5.6,6.1   c-0.3,0.3-0.6,0.6-0.9,0.9C300.9,154.7,300.4,153.5,299.1,153.8z" />
	<path fill="#36694C" d="M297,148.3c-0.2,0.2-0.5,0.5-0.7,0.7c-0.2-0.2-0.4-0.5-0.7-0.7c0.2-1.1-0.4-2.3,1.1-3.2   C297.3,146.1,296.9,147.2,297,148.3z" />
	<path fill="#35A45E" d="M314.2,171.8c-0.2-0.5-0.4-1-0.5-1.5C314.3,170.6,314.3,171.2,314.2,171.8z" />
	<path fill="#3C3430" d="M365.8,155.9c-0.3,1.8-0.3,1.8-2.1,3C363.8,157.3,364.1,156.9,365.8,155.9z" />
	<path fill="#49403A" d="M362.2,162.1c-0.8-0.9-0.3-1.8,0.7-1.3C362.7,161.2,362.5,161.6,362.2,162.1z" />
	<path fill="#35A35E" d="M384.7,155.8c-2.5,0.2-5.2,0-5.6-2.7c0.7-0.1,1.3-0.2,2.2-0.3c-0.1-5.5-5.9-6.3-7.6-10.9   c0.4-0.1,0.8-0.1,1.1-0.2c-0.5-0.5-0.9-0.5-1.1,0.2c-2.5-2.6-5.2-5.8-6.8-9.1C375.4,138,381,146.7,384.7,155.8z" />
	<path fill="#319255" d="M377.1,153c0.5,0.7,0.9,1.4,1.5,2.3c-2.6,0.9-4.6,0.3-7.1,0.4C373.1,154.1,375.6,154.5,377.1,153z" />
	<path fill="#254532" d="M355.2,133.8c-1.7,1-2.6,0.6-4.3,0.9C351.8,132.8,352.3,132.7,355.2,133.8z" />
	<path fill="#35A35E" d="M366,132.4c0.3,0.2,0.5,0.4,0.8,0.6C366.5,132.8,366.3,132.6,366,132.4z" />
	<path fill="#36A55F" d="M423.9,184.9c-1.7-4.2-4.7-7.6-7.6-11.1C419.9,174.3,431.2,184.2,423.9,184.9z" />
	<path fill="#0A160F" d="M413,197.7c-1-3.6-2.3-6-5.2-8.5c2.9-1.6,6.8,5.1,6.6,8C413.9,197.4,413.4,197.6,413,197.7z" />
	<path fill="#50443F" d="M322.9,392.7c-1.5-0.8-1.2-1.7-0.9-2.7C322.8,390.5,323.2,391.3,322.9,392.7z" />
	<path d="M327.3,433.8c-0.2-0.2-0.4-0.4-0.7-0.6C326.9,433.4,327.1,433.6,327.3,433.8z" />
	<path fill="#221D1C" d="M330.6,81.4c0.2,1.4,0.2,1.4-1.3,1.3c-1-0.9-1.9-2-3.4-2.1l0,0.1c-2.2-2-4.6-3.8-6.9-5.5   c0.3-0.3,0.6-0.5,0.9-0.8C323.9,75.7,327,79.2,330.6,81.4z" />
	<path fill="#2C2522" d="M320,74.3c-0.3,0.3-0.6,0.5-0.9,0.8c-0.7-0.5-1.4-0.9-2.1-1.4c-0.3-0.9,0.4-2-0.7-2.7   c-0.9-2-0.8-4.5,0.7-6.2c0.2,0.7,0.5,1.4,0.7,2.1c0,0,0,0,0,0c0,1-0.1,2,0.8,2.7c0,0.6-0.1,1.2,0.5,1.5l0,0   C319.1,72.2,318.9,73.4,320,74.3z" />
	<path fill="#0A0908" d="M312.9,97.8c-2.1-2-1-5.6-1.1-8C314.5,89.4,312.9,96,312.9,97.8L312.9,97.8z" />
	<path fill="#342C28" d="M328,83.5c0.1,1.1,0.7,2.1,0,3.2c-1.4,0-1.2-1.5-1.9-2.1c-0.3-1.3-0.7-2.5-1-3.8c0.3,0,0.6-0.1,0.9-0.1   l0-0.1C326.6,81.5,327.3,82.5,328,83.5z" />
	<path fill="#716059" d="M317,64.8c-0.7,0.8-0.9,1.8-1.2,2.8c0.1-2.3,0.2-4.6,0.6-6.9l0,0c0.2,0,0.4,0,0.6,0   C317,62,317,63.4,317,64.8z" />
	<path fill="#ECC8B8" d="M326,90.3c-0.2,0-0.4,0-0.7,0c0.1-1.2-0.4-2.6,0.8-3.4C326.1,88,326,89.1,326,90.3z" />
	<path fill="#D2B3A5" d="M316.3,71c1,0.7,0.3,1.8,0.7,2.7C315.8,73,316.5,71.9,316.3,71z" />
	<path fill="#7B6B62" d="M363.6,218c0.2,0.2,0.2,0.3,0,0.4C363.4,218.3,363.4,218.2,363.6,218z" />
	<path fill="#504741" d="M364.6,222.1c0.1-0.2,0.2-0.4,0.3-0.6c0.1,0.1,0.2,0.2,0.3,0.3C365,221.9,364.8,222,364.6,222.1   L364.6,222.1z" />
	<path fill="#49B878" d="M314.3,130.4c-0.4,0.8-0.9,0.7-1.4,0C313.4,130.5,313.8,130.5,314.3,130.4z" />
	<path fill="#4AB878" d="M318.5,189.7c-0.4-1.9-0.9-3.8-1.3-5.8c4.9-3.5,9.7-8.4,15.7-10.1c0,3.3-5,6.6-6.9,9.7l0,0   c-0.2,0.2-0.5,0.5-0.7,0.7l0,0c-1.4,0-2,0.8-2.2,2.1c-0.8,0.5,0.2,1-0.2,1.9c-0.9,1-2.1,2.3-3.5,3.4   C319.1,190.8,318.8,190.2,318.5,189.7z" />
	<path fill="#0F1C14" d="M332.9,173.7c-3,0.5-5.4,2.2-7.6,4.2c-0.2-0.2-0.4-0.4-0.7-0.6c2.7-4,7.8-3.9,11.1-6.8   c0.4,0.2,0.8,0.4,1.3,0.6c-0.4,1.2-1.2,2-2.2,2.7C334.2,173.6,333.5,172.5,332.9,173.7z" />
	<path fill="#244B34" d="M332.9,173.7c0.6-1.2,1.3-0.1,2-0.1c-2.4,3.4-4.9,8.3-8.9,9.7C327.9,180.3,332.9,177.1,332.9,173.7z" />
	<path fill="#36654A" d="M323.1,186.2c0.2-1.3,0.8-2.1,2.2-2.1C324.9,185.1,324.2,185.9,323.1,186.2z" />
	<path fill="#244B34" d="M325.3,184.1c0.2-0.2,0.5-0.5,0.7-0.7C325.8,183.6,325.5,183.9,325.3,184.1z" />
	<path fill="#35A55E" d="M330.8,140c4.2,5.7,5.6,12.9,7.5,19.5c-0.6,0.4-1,0.8-1.4,1.1c-5-4.3-7.9-11.3-12.1-16.6   C326.6,138.7,327.2,141.9,330.8,140z" />
	<path fill="#E9C6B7" d="M305.9,394.1c-0.2-0.3-0.3-0.6-0.5-0.9C305.5,393.5,305.7,393.8,305.9,394.1z" />
	<path fill="#359A5B" d="M332.2,164.1c-0.5,0.8-1.4,0.9-2.3,1.3c0.6-2.7,1.3-3.9,3-5.6c0.2,0.4,0.5,0.9,0.7,1.3   C333.4,162.3,331.9,162.8,332.2,164.1z" />
	<path fill="#234230" d="M324.7,177.3c0.2,0.2,0.4,0.4,0.7,0.6c-2.3,1.9-4.7,3.6-7.4,4.9c-0.6-0.1-1.4,0.1-1.5-0.9   c1.2,0.3,2.1-0.1,2.7-1.2C321.3,180.1,322.8,178.4,324.7,177.3z" />
	<path fill="#326045" d="M337,171c-0.4-0.2-0.8-0.4-1.3-0.6c0.2-1,0.7-1.5,1.8-2C337.4,169.4,337.2,170.2,337,171z" />
	<path fill="#23201D" d="M400.7,176.1c0-0.7,0-1.4,0-2.5C401.7,174.5,401.4,175.3,400.7,176.1z" />
	<path fill="#359D5C" d="M421.9,185.5c0-0.2,0-0.5,0.1-0.7c0.2,0.4,0.8,0.6,0.5,1.1C422.2,185.7,422,185.6,421.9,185.5z" />
	<path fill="#E6C4B4" d="M343.4,92.2c0-0.8,0-1.5,0-2.3c0.1,0,0.2,0,0.4,0c0,0.8,0,1.5,0,2.3l-0.2,0.1L343.4,92.2z" />
	<path fill="#0E0C0B" d="M342.4,91.6c-0.8-0.5-0.4-1.2-0.5-1.9C343.2,90,342.4,90.9,342.4,91.6z" />
	<path fill="#191615" d="M335.7,39.9c1.2-0.4,2.3-1,3.6-0.1c2.8-0.6,5.3-0.2,7.9,0.9c0.5,1.1,0.8,1.8,1.1,3.1   c-1.1,0.2-2,0.4-3.2,0.5c-0.4,0.7-0.9,1.4-1.3,2.2c-6.3,0.3-8.9,0.2-10.7-0.7c1.1-1.9,3.5-1,5.2-1.7c1.5-0.6,3-0.9,4.8-0.7   C341,41.6,337.3,42.6,335.7,39.9z" />
	<path fill="#DDBCAE" d="M346,76.5c-0.2-1.4-1.4-2.1-2.3-3.1c-0.5-0.5-1.7-0.1-1.7-1.2c4.7,0.9,9.6-0.4,14.4-0.4   c-1.1,1-2.1,2-2.2,3.6c-2-0.9-4.1-1.5-6.3-0.8C347.2,75.2,346.6,75.8,346,76.5z" />
	<path fill="#2F2926" d="M356.4,71.7c-4.8,0.1-9.7,1.4-14.4,0.4c-1.2-3.1,11.6-1.3,14.4-2.5C356.9,70.3,357.3,71,356.4,71.7z" />
	<path fill="#0F0D0C" d="M346,76.5c0.6-0.7,1.2-1.3,1.9-2c2.2-0.6,4.3-0.1,6.3,0.8c0.1,0.5,0.2,1.1,0.3,1.5   C353,78.4,346.6,78.9,346,76.5z" />
	<path fill="#EAC8B9" d="M356.3,69.6c-3.4,0.2-7,1.3-10.4,0.8c0.8-0.7,1.7-1.4,2.5-2.1c2.6,0,5,0,7.6,0   C356.2,68.8,356.3,69.2,356.3,69.6z" />
	<path fill="#342F2C" d="M355.9,61.6c-0.9,1.9-0.9,1.9-4.1,1.4c-0.7,0.4-1.3,0.8-2.1,1.2c-0.4-0.4-0.7-0.7-0.9-1   C349.3,60.3,354.9,60.1,355.9,61.6z" />
	<path fill="#504743" d="M335.7,39.9c0.5,0.5,0.9,0.9,1.4,1.4c-1.9,0.4-3.6,1.1-5.3,2c-0.3-0.4-0.5-0.6-0.9-1   C332.6,41.4,333.7,39.9,335.7,39.9z" />
	<path fill="#D2B3A5" d="M317,64.8c0-1.4,0-2.8,0-4.1c0.3,0,0.5,0,0.8,0c0,2.1,0,4.2-0.1,6.3C317.4,66.2,317.2,65.5,317,64.8z" />
	<path fill="#D2B3A5" d="M320,74.3c-1.1-0.8-0.9-2.1-1-3.3c1.2,0.5,1.4,2.4,2.1,3.5C320.8,74.4,320.4,74.3,320,74.3z" />
	<path fill="#D2B3A5" d="M318.4,69.5c-0.9-0.7-0.8-1.7-0.8-2.7C319,67.4,318.3,68.6,318.4,69.5z" />
	<path fill="#EDC9B9" d="M317.7,60.6c-0.5,0-0.9,0.1-1.4,0C317,59.8,317,59.8,317.7,60.6z" />
	<path fill="#D2B3A5" d="M319,71c-0.6-0.3-0.6-0.9-0.5-1.5C319.2,69.8,319.2,70.4,319,71z" />
	<path fill="#D0B0A2" d="M312.4,53.5c0-0.7-0.4-0.9,0.4-1.5c-0.1,0.7-0.1,1.1-0.1,1.5C312.7,53.5,312.4,53.5,312.4,53.5z" />
	<path fill="#977F75" d="M334,87.6c0,1.3,1.5,2.3,0.7,3.8C333.5,90,333.2,88.8,334,87.6z" />
	<path fill="#B09589" d="M328,83.5c-0.7-1-1.3-1.9-2-2.9c1.5,0.1,2.4,1.3,3.4,2.1C328.8,82.7,328.2,82.7,328,83.5z" />
	<path fill="#1E284E" d="M350.7,365.8c0.3-0.3,0.6-0.6,0.9-0.9c1.6,1,2.3,2.8,3.5,4.4C353.2,369,352.2,367.1,350.7,365.8z" />
	<path fill="#090C18" d="M317.4,271c-0.8-2.6-1.5-5.1-1-7.8C318.9,264.1,319.1,269.1,317.4,271z" />
	<path fill="#372F2B" d="M291.6,419.5c-0.2,0-0.5,0-0.7,0c-0.3-0.8-0.6-1.6-0.9-2.8C291.7,417.2,291.6,418.4,291.6,419.5z" />
	<path fill="#60514B" d="M293.5,419.2c0.3-1.1,0.8-1.4,1.9-0.8C294.9,419.3,294.5,419.7,293.5,419.2z" />
	<path fill="#339F5B" d="M293.5,171.6c1.8-4.9,3.1-9.9,4.4-14.9c9,1.2-1.8,11.4-3.6,15.7C294,172.1,293.7,171.9,293.5,171.6z" />
	<path fill="#329657" d="M299.1,153.8c1.3-0.3,1.8,0.9,2.7,1.5c0,0.4,0.1,0.8,0.1,1.2c-1.4-0.5-2.7-0.9-4.1-1.4   C298.2,154.7,298.7,154.2,299.1,153.8L299.1,153.8z" />
	<path fill="#287244" d="M293.5,171.6c0.3,0.3,0.5,0.5,0.8,0.8c-0.6,1-0.8,2.3-2.1,2.8C292.1,173.8,292.5,172.6,293.5,171.6z" />
	<path fill="#287244" d="M291.5,176.5c0.1-0.6-0.1-1.2,0.7-1.4C292.2,175.7,292.2,176.3,291.5,176.5z" />
	<path fill="#183925" d="M299.1,153.7c-0.5,0.5-0.9,0.9-1.4,1.4c-0.7-0.1-1.6,0.3-2.1-0.6C296.8,154.3,297.9,154,299.1,153.7z" />
	<path fill="#0E0C0B" d="M342.6,93.7c-0.2-0.1-0.3-0.2-0.5-0.3C342.6,93,342.5,93.6,342.6,93.7L342.6,93.7z" />
	<path fill="#30302C" d="M359.8,154.4c-0.9-0.2-0.9-0.6-0.2-1.8C359.7,153.6,359.8,154,359.8,154.4   C359.8,154.4,359.8,154.4,359.8,154.4z" />
	<path fill="#329357" d="M319.8,172.4c-0.1,0.1-0.2,0.2-0.3,0.4C319.5,172.5,319.6,172.5,319.8,172.4L319.8,172.4z" />
	<path fill="#173A25" d="M373.6,142c0.2-0.7,0.6-0.7,1.1-0.2C374.4,141.9,374,142,373.6,142L373.6,142z" />
</g>
</svg>