<?xml version='1.0' encoding='utf-8'?>
<svg xmlns="http://www.w3.org/2000/svg" version="1.2" baseProfile="tiny" id="Layer_1" x="0px" y="0px" viewBox="0 0 900 600" overflow="visible" xml:space="preserve">
<g id="a_00000096750865700459795970000013327932569950121876_">
	<path fill="#010000" d="M646.2,101.2c6.6,80.3,1.7,68.2-25.4,137.2c40.7,6.1,89.6,12,118.3,43.4c6.9,4.7,29.1,12.9,28.9,21.3   c-0.3,21.5,12.3,40.8,11.9,62.5c2.9,33.3,7,66.8,12.7,99.5c7.4-1.5,10.1,0.5,13.4,9.9c5.6,3.6,11.7,6.5,16.9,10.8   c5.5,5.6,14.8,1.9,19.3,8.3c5.5,6.2,7,15.4,1,21.9c-13,3.5-26.6,9.3-40.2,6.1c-20,2.6-35.3,9.6-55.7-1.3c1.5-5.5,4.5-10.7,4.5-16.8   c-2.8,1.7-5.1,3.6-6.6,6.1c-48.4-0.8-96.5-4.4-144.7-7.4c-25.1-0.7-53.4,2.1-76.6-5.7c5.1-5.9,6-12.7,8.5-19.7   c30.6-9.5,63.5-2.7,95.1-2c-1.8-23.2-3.2-46.8-3.8-70.1c-13-4.6-39.5,10.6-54.5,12.5c-25.5,5.5-48.4,15.5-74,21.9   c-7.3,24.4,0.8,48.7,1.8,73.2c-7.4,7.5-42.8,9.1-50.8,1.4c-1.5,12.5-1.4,27-0.7,39.9c39.3,5.4,81.1,0.2,120.1,9.5   c0.5,10.3,11.3,17.8,10.6,28.3c-8-5.1-11.5-17.3-14.7-26.5c-39.1-7-80.6,0-118.7-8.6c-1.7-23.1,1.2-47.2,4.1-70.5   c1.7-16.9,1.6-39.4,22.4-43.1c37-10.2,73.3-22.5,110.4-32.1c15.2-4.2,31.4-13.3,47.3-9.6c4.4,24.7,3.8,50.7,6.9,76   c1.8-0.4,3.3-0.8,4.9-1.1c0.6,0.5,1.2,1,2.3,1.9c-3.7,0.8-6.6,1.4-9.6,2c-0.7-5,1.5-11.3-1.1-15.6c-0.9-5,1.6-10.6-2.1-14.6   c-0.7,10.1,3,19.1,1.7,29.2c-15.5-4.1-34.5-2.1-51.6-3c-9.3-3.4-19.6,1.9-28.9-0.7c-4.8-0.8-9.4,3.6-14.2,3.1   c-1.5,5.4-2.9,10.4-4.3,15.4c32.4,7,66.8,2.6,99.9,5.6c35.3,3.1,71,6.8,106.5,6.3c-1.5-6.4-1.4-13.2-4.6-18.5   c-0.9,0.1-1.7,0.2-2.5,0.3c-0.5-3.4,3.4-0.5,4-3.1c0.9-0.1,1.7-0.2,2.6-0.3c1.4,6.8,1.9,15,4.7,21.1c3.5-1.9,6.7-3.6,10-5.4   c-5.4-4.2-7-11.2-10.7-17.2c-6.4-0.2-35.1-3.9-37.3,0.7c-19.9-0.8-40.5-0.8-60-3.8c-0.3-1.1-0.6-2.4-1-3.9c-1.3,0.2-2.2,0-1.8-1.6   c0.5-0.1,1-0.2,1.7-0.4c0-45-4.1-90.5-5.8-135.2c-41.5,3.6-81.2,22-121.9,31c-20.5,4.2-31.4,14.2-54.7,8.3c1.4,9.1,2.9,16,2.5,25.4   c-0.7-1.9-1-2.8-1.6-4.3c-0.4,17.4-8,31.6-13.1,47.6c-2-1.4-0.7-3.2-1.2-5.9c-4.9,6.1-11.8,9.4-14.9,16.5c-0.3,0-0.5,0-0.8,0   c-0.2-6.1,4.1-12.4,2.9-18.5c-2.1-16.4,3.6-33.6-5.7-49c-0.4,23.1-3.3,46.9-0.3,69.5c0.7-0.7,1.3-1.4,2-2.1c0.4,0,0.7,0,1.1,0   c0,0.3,0,0.7,0,1c-1.3,1.7-2.6,3.3-3.9,5.1c0.9,18-1.7,35.8-1.5,54c-1.2,6.5,2.8,46.8-2.9,44.8c-0.4-1.5,0.1-4.8-2.3-4.1   c-35.6,3.2-72.4-6.6-106.7,2.5c-2.3,8.5-6.3,17.4-7.2,25.7c87.8,1.7,183.5,7.7,267.9,8.9c-2.3,0.8-4.6,1.6-7.1,2.4   c-0.2,0.6-0.5,1.5-0.8,2.5c-88.3-0.7-177-7.9-264.9-7.5c-1.1-11.3,6.5-22.8,9.1-34.1c35.6-12.8,74.8-0.2,112-4.2   c1.1-47.8-0.6-95.9,1.9-143.6c-0.4-11.6,4.3-22.8-1.2-33.6c-16.1-1-34.3,1.5-49.2-4.4c-7.3-3.6-4.6-16.4-3.2-23.2   c3.7-14.8,21.7-22,35.6-25c0.2-1.6,0.2-2.4,0.2-3.8c0.4-0.4,0.8-0.7,1.2-1.1c3.9,5.4,9.3,15.8,12.5,4.3c0.2,0.3,0.4,0.5,0.6,0.8   c1-1.5,2.7-3.4,4.7-2.6c-2.8,5.3-6.1,10.3-5.2,16.7c-5.7,13.4,4.9,30.2,8.1,43.4c1-0.4,1.8-0.7,2.5-1.1c5.7,20.6,8.6,42.3,5.1,63.6   c-0.9,0.5-1.1,1.1,0,2c1.7-2.6,3.3-5.2,3.5-8.4c4.9-3.7,3.3-11.5,5.3-16.9c3.3,7.6-2.2,14.1-3.3,21.8c10.8-8.7,7.5-23.5,10.8-34.7   c-0.3,1.6-0.4,3.2,0.8,4.6c0.9-10.4-2-22.6,1.2-32.1c3,9.2,1.2,19.3,2.8,28.3c7.6-27.9-8.9-53.1-14.9-78.2c1.5,0.4,2.7,0.7,4.1,1.1   c1.4-1,3.1-2.3,4.8-3.2c2.4,3.5,6.9,1.1,9.4-1.2c2.1,1.3,4.4,0.7,4.6-1.9l0,0c2-0.5,3.5,2.5,5.3,0.2c6.7-3.6,12.5-8,13.9-15.9   c0.5,0.6,1,1.1,2,2.3c0.3-4.8,0.3-7.6,0.1-12c0.5-0.1,1-0.2,1.7-0.3c0.3-3.7,1.7-7.3,1.1-11c-2.5-2.6-7.2-5.7-4.2-9.6   c0.9,1.9,2.4,6.9,5.1,5.4c-1.4-1.7-3.2-3.2-2.3-5.7c1.3,0.3,2.5,0.7,3.8,1c1.5,1.9,0.6,4.8,3,6.4c0.6,0,1.3-0.1,1.8-0.1   c1.3-1.8,0-3.7,1.1-5.3c0.7,0.5,1.1,0.8,1.5,1.1c-0.1,2.2-0.1,4.5-0.2,7c-2.2,0.3-4,0.6-6.3,0.9c-1,9.1-2,17.6-5.4,26.3   c13.4-14.9,13.4-36.3,23.2-53.4c4.6-12.9,11.9-32.9-9.1-33.5c-2.3,2.5-4.5,4.8-6.6,7.1c-0.4-0.4-0.8-0.7-1.2-1.1   c0.8-2.2,1.6-4.4,2.7-7.3c-8.6,1.7-17.5-3.6-26.2,0.6c-2.1,0.4-6,3.1-7.2,0.1c8.3-9.3,48.6-5.7,54.6,5.2c6.2,16.5-7.4,33.1-11.1,49   c-4,13.3-7.6,25.8-17,36.7c3.8,0.7,7.1,0.5,9.7,0.4c7.8-7.5,11.1-16.8,13.9-26.2l0,0c10.1-17.5,15.9-63.6,44.8-46.8   c4.2-0.1,4.3-5.5,5.9-8.4c12.4-18.5,22.9-40.9,42.9-52.9c3.1-15.3-0.7-32.5,9.3-45.9c0.4,1.1,0.6,1.8,0.9,2.5   c-4,13-5.7,26.4-6.1,39.8c1.7,8-10.8,9.8-14.5,15.5c-11.2,14.6-23.6,29.3-31.2,46.1c-1.2,6.7-9.7,8-15,5.6c0.2-0.3,0.4-0.5,0.6-0.9   c-15.9-4.4-21.3,14.6-25.8,26c-6.1,16-11.6,32.2-20.8,46.6c61.3,6.5,76.5-6.7,103.1-59.9c12-22.2,13.8-52.4,31.8-70.1   c12.1-30,3.4-62.2,5.2-93.4C644.8,99.1,645.5,100.1,646.2,101.2z M599.5,278.1c-1.4,0.7-0.6,2.2-1.1,3.2c-0.6,1.2-1.2,2.3-2.4,4.5   c5.1-3.7,7.3-8.6,8.8-14.1c0.1-0.1,0.3-0.2,0.4-0.3C603.3,273.7,601.4,275.9,599.5,278.1z M467.1,332.1c3-1.3,5.9-2.7,8.9-4   c-1.8,4.4-7.9,5.3-11.5,8c0.4,1.5,1.9,1.2,2.9,1.6c-0.1,0.3-0.2,0.6-0.3,0.9c-6.8-1.6-12.2,0.7-19.5,2.3c5.5,10.5,8.3,21.7,11.8,33   c21.9,3.6,43.8-3.3,64.2-11c14.8-6.6,31.5-7,46-14.6c36-11.7,74.8-14.6,110.4-26.4c-21.8-3.4-44.2,2.2-65.2-7.8l-0.1,0   c-10.3-7.3-22.4-1-33.8-3.9c-23.7,20.3-56.9,16.1-85.3,15.5c-0.6-0.8-1.1-1.4-1.2-1.6c-4.4-0.4-8.1-0.7-11.5-1   c-1.4,0.5-0.4,2.8-2.4,2.5c0-0.8,0-1.6,0-2.9c-10,8.9-23.1,11-35.9,12c0.5,1.1,1,1.9,1.4,2.8C453.6,337.6,460,333.9,467.1,332.1z    M764,315.1L764,315.1c0.9-4.5-5.4-6.8-4.1-11.3l0.4,0c0.7,0.9,1.4,1.7,2.2,2.7c0.4-2.2,0.7-4,1.1-5.8   c-38.8-24.4-77.1-54.3-125.6-54.6c10.7,9.4,8.9,16,12.4,27.9c4.6,14.2-5.9,31.4-18.4,39c11.6,4.2,24,1.8,36,1.6   c4.8-0.1,9.7,0.4,13.8,3c13.2,5.8,28,6.2,41.5,10.9c11.2,11.5,5,28.5,7.3,42.6c1.4,9.9,3.9,19.7,5.9,29.5   c5.6,14,20.7,35.5,20.1,49.3c-0.3-0.2-0.4-0.4-0.3-0.7c-1.4-1.4,0-3.8-1.9-4.6c-58.9-87.8,9.6-114.2-71.2-121   c-12.9,8-29.7,8.5-43.8,14.4c2.7,46.5,5.3,93.1,7,139.5c32.9,3,65.9-3.6,98.2,4c3.7,5.5,6.2,12,9.9,19.1   c1.3-10.4,2.2-20.2,9.6-27.6c-2.3-4.8-7-15.6-4.3-19.9c4.2,10.2,6.7,21.4,17.3,27.6c1-0.8,1.9-1.5,2.7-2.1c1.8,0.5,3.5,1,4.9,1.3   c1.5,0.1,2.3-1.5,3.7-0.6c-0.4,1.6-0.9,3.2-1.3,4.8c-1,0.4-2,0.8-3.4,1.4c1.3,1.1,2.2,1.9,3,2.6c5.8-1.5,6.2-6.6,8.9-11.1   C773.9,426.5,782,366.8,764,315.1z M411.1,339.7c1.9-0.2,3.8-0.5,5-2c0-2.1,0-4,0-5.6c-2.7-1.8-5.1-3.5-7.2-4.9   c-11.7,5.9-24.4,10.1-34.6,18.1c0.9,6.9-5,17-1,23.5c16,3.9,32,2.2,48.8,4.3c-3.9-10.6-6.3-21.1-6.2-32.5c-1.9,0-3.5,0-5.1,0   C411,340.3,411.1,340,411.1,339.7z M460.8,514.4c11,0,21.8,0.6,32.5-2.7c0.2-11.7-5.7-22.9-2.6-35.1c-2.3-1.4-4.3-2.6-6.6-4   c-0.2-1.8-0.4-3.8-0.7-5.7c-3.8,0-7.3,0-11,0c-1.2,2.2-2.2,4.2-3.3,6.2c-11.2,3.5-10.2,15.9-17.6,22.8   C442.2,502.6,450,516.6,460.8,514.4z M474.6,445.7c-1.9-0.3-3.3,0.5-5,1.4c1.3,5.1,0.3,10.5,0.6,15.5c3.6-0.5,7.7,1.6,9.2-2.2   c1.9,1.7,4.2,1.9,6.4,2.4c2.4,2.8-0.1,4.7,3.4,6.7c-0.3-10.2,0.6-19.5,3.2-29C486.2,441.5,480.7,444,474.6,445.7z M600.6,285.6   c-8.9,5.1-11.9,13.9-17.1,22.5c10.8,0.8,20.6-5.6,30.3,0.3c4.8,2.5,9.6,3.5,14.7,2.4c18.8-5.4,19.9-31.9,14.5-47.6   c-1.7-8.7-10.2-12.5-14.5-19.2c-3-0.8-5.7-1.5-8.4-2.2C611.1,255.5,610.9,272.4,600.6,285.6z M842.7,510.4c4.5-5.5-0.8-12.7-5.1-17   c-8.6-0.1-15.3-4.7-22.7-8.5c-11.8-3.2-11.2-13.3-18.8-16.8c-0.6,4.4,1.9,8.8,2.7,12.9c-2,9.2-14.4,18.3-19.2,6.2   c-1.7-2.6-4.9-2.3-6.2-5.2c-1.4-1.7-2.6-3.9-5.3-3.6c-7.9-4.4-7.9,11.3-8.4,16.1c0.6,9.3-7.4,15.5-8,24.7c15.7,5.1,31.9,4.8,47.3-1   C813.1,518.5,831.6,520.3,842.7,510.4z M449.3,491.8c2-0.4,2-2.1,2.4-3.3c2.1-6.2,5.1-12,9.3-17c1.1,0.5,1.8,0.9,2.7,1.3   c0.8-0.6,1.6-1.2,2.2-1.7c0-7.8,0-15.3,0-22.8c-5.2,0-7.5,4.5-11.3,6.4C451.6,466.9,449.9,479.2,449.3,491.8z M483.1,320.3   c1.7,0.1,2.3-0.1,1.5-1.6C484.1,319.2,483.7,319.6,483.1,320.3z M606.5,268.5l0.2-0.4l-0.3,0L606.5,268.5z" />
	<path fill="#020101" d="M407.9,319.4c-0.4,0.4-0.8,0.7-1.2,1.1c-2.2-1.1-2.2-1.1-3.2,0.2c-18.6-8.1-21.1-38-21.3-55.9   c2.4-10.1-4.5-19.4-1.9-29.2c-0.4-11.8,1.2-24-0.3-35.7c-14.2-40.2,22.9-82.7,7.2-121.1c-37.5-0.5-76,3.9-113.1,1.3   c-1.2-4.6-1.4-9.2-0.4-13.9c2.4,0,4.9,0.4,7-1.2c2.8,0,5.6,0.1,8.4,0.1l0,0c32.3,1.4,66.5-2.8,99.5-1c0.4,0.4,0.8,0.8,1.2,1.2   c-1,10.2,1.2,18.3,6.3,27.4c0.9,31.9-17.4,61.4-15.3,93c7.5,31.4-3.2,114.4,24.4,132.3c-0.6-1.3-0.3-3.2-1.7-3.8l0,0   c0.2-2.7-2.4-1.9-0.1-5.3c0.2,0.2,0.3,0.5,0.2,0.8c0.7,1.2,1.1,2.5,1.9,3.6C405.2,315.8,407,317.3,407.9,319.4z M275.2,73.7   c-0.1,1.4-0.3,2.8,1.2,4c36.6-0.7,73.3-1.5,110-2.2c1.7-2.9,1-5.9,1.2-8.9c-1.7-0.2-3.1-0.6-4.3,0.6c-36-0.1-71.9,0.4-107.9,2.2   C275.3,71,275.2,72.3,275.2,73.7z" />
	<path fill="#030202" d="M616.6,142.7c-0.2-0.7-0.5-1.4-0.9-2.5c-1.1,1.4-1.8,2.4-2.5,3.4c4.6-17.8,10.2-35,7.8-54   c-6.3-6.7-15.8-6.2-20.1-15.1c-55.9-0.3-111.9,3.7-167.7,2c0.3-2.6-0.9-5.3,1-7c0.2,1.5,0.4,3,0.7,4.8c55.2-2,110.5-1.7,165.7-4.1   c-0.5-3.1-1.2-4.9-1.1-7.9c-56.7,1.3-113.7,0.8-170.1,3.9c-0.2-1.1-0.3-2.1-0.4-3c0.7-0.8,1.4-1.5,2.2-2.3   c56.9,1.8,115-2.6,172.4-2.1c2-1.8,4.1-3.7,6.4-5.7c0.6,0.3,1.4,0.7,2.2,1.2c3.4-1.2,7.5-3.2,10.9-0.7c-1.5,0.4-3,0.7-4.5,1.1   c-0.5,0.6-1,1.3-1.5,1.9c-12.5,1.9-4.4,4-9.5,10c-0.9-2,0.3-4.5-1.4-6.5c-7.6,2.9-2.4,9.9-1.4,15.4c4.3,6.6,15.3,5.9,19,13.5   C626.1,107.2,621.4,125.4,616.6,142.7z" />
	<path fill="#92A3C5" d="M441.7,548.3c1.3,2.4,0,4.8,0.9,7.3c-2.9,0.7-5.9,1.4-8.2,4.3c3.6,0.1,5.8-2.1,8.4-3.1   c38.1,8.6,79.7,1.6,118.7,8.6c3.3,9.2,6.8,21.5,14.7,26.5c-0.6,1.1-1.2,2.2-1.8,3.2c-1.5-6.2-12.5,0.3-16.9,0.7   c-0.8-1.7,0.5-3.8-1.2-5.1c-2.8-6.5-3.6-14-8.7-19.2c-1.1-3.6-6.7-0.8-9.1-3c-33.9-0.7-66.9-3.6-101.1-4.2   c-2.3,0.1-5.4,0.3-5.3-2.2c2.2-14.2,0.1-36.1,1.2-51.9c3.2,7.4-1,17.4,1.8,25.4c0.4,0.8,0.1,2.5-0.5,2.9c-2,1.3-1.3,3.1-1.3,4.7   c0.7,0.7,1.4,1.5,1.8,2c-1.3,4.9-0.8,6.4,2.9,10.2C438.9,552.4,441.6,551.2,441.7,548.3z" />
	<path fill="#030202" d="M828.5,53.7c19-0.2,38-1.2,56.9-1.1c2,2,2.3,4.5,2.3,7.2c-0.9-0.5-1.9-0.9-3.1-1.5c0.2,1.3,0.4,2.4,0.5,3.5   c0.8,0.1,1.3,0.2,1.8,0.3c-0.3,1.9-0.1,3.9-1.5,5.8c-27.9,1.7-56.2,1.1-84.2,2c-5.1-0.6-7.2-1.1-6.6,5c-0.3,0-0.7-0.1-1-0.1   c-0.3-1.6,0.5-3.5-1.1-5.3c-2.1,2.8-0.8,6.3-1.2,9.6c-0.3,0-0.6,0-0.9,0c-0.1-3-0.2-6.1-0.2-9.3c-3.4-0.2-6.1-0.4-9.3,0.4   c-3.5-4.2-1.7-9.5-2.3-14.4c2.2-2.2,5.2-0.3,7.6-2.1C794.5,58.8,780.9,7,774,7c1.9,0,2.8,0,3.6,0c11.1,13.3,10.9,31.4,13.6,47.3   c1.1-0.2,2.2-0.5,3.4-0.8C804.4,56,818,54.9,828.5,53.7z M780.8,64.1c0.1,0.6,0.2,1.3,0.4,2.2c33.3-1.3,66.9,0.3,100-2.5   c0-2.7,0-5.2,0-7.8c-33.2-0.1-66.7,1.4-100,2.1C780.3,60.3,780.3,62.2,780.8,64.1z" />
	<path fill="#040303" d="M622.9,53.5c-1.6-1.3-3.6-1.2-5.5-1.2c8.5-2.8,17.4-0.8,26.4-1.9c0.8,0.4,2.1,1,3.5,1.7   c0.6,1.8,1.3,3.6,2,5.5c31.3-0.8,62.7-2.2,94.1-2.4c1.9,1.6,1.9,1.9,0.2,3.6c-31.6,1-63.4,0.8-94.9,2.2c-0.8,2.7,1.7,3.3,2.7,5.2   c0,0,0,0,0,0c0.1,1,0.2,2,0.4,3.3c31.2-0.7,62.1-1.8,93-2.4c0.7,1.3,1.1,2.7,1,4.2c-30.7-2.4-62.7,2.2-94.1,1.3   c-0.2,4.3-1.8,7.9-3.8,11.4c-3,5-1,11.4-1.7,17c-0.7-1.1-1.4-2.1-2.1-3.2c0-2.1-0.1-4.2-0.1-6.3c1.5-1.2,1.6-1.8,0.1-3.2   c4.9-10.9,7.5-20.9-1.8-31c0.7-0.7,1.3-1.2,2-1.9c-0.4-0.8-0.8-1.6-1.3-2.5c-1.4,0.2-2.7,0.4-4,0.6c0.4,1.1,0.6,1.8,0.9,2.6   c-2.1,0.5-3.8,0-5.4-0.6c0.5-0.6,1.1-1.3,1.6-1.9c-1.5-1.6-3.4-1.2-5.8-1c1.8,1.2,3,2,4.3,2.9c-2.7,2.4-5.6-0.8-9,0   c0.4-1,0.6-1.8,0.9-2.8C625.2,53.1,624.1,53.3,622.9,53.5z" />
	<path fill="#151518" d="M790.5,107.8c-0.4,15.6-20.3,25.1-32.1,14.9c0.4-0.5,0.8-0.9,1.2-1.4c3.5,3.3,8.6,3.5,13.4,2.9   c-19.4-33.9-20.7-85-4.3-119.7c-15.5-5.1-18.6,13.8-20.9,24.6c-0.3,0-0.6,0-0.9,0c-2.5-35.6,43.6-37.8,41.7-1.8   c-14.5-53.6-30,0-29,24.8c-3.7,17.4,12,108.2,29.7,53.4C789.8,106.3,790.1,107.1,790.5,107.8z" />
	<path fill="#0A0707" d="M153.3,80.3c-1.7-4.1-2-8.1,1.6-11.8c27.7-1.2,55.5-1,83.3-2.2c1.5,1.8,1.5,2.3,0.1,4.2   c-24.3-1-49.2,1.1-73.7,1c-5.2-0.1-11.7-1-10.1,6.4C153.3,78.3,153.5,79.4,153.3,80.3z" />
	<path fill="#060505" d="M153.3,80.3c0.1-0.9,0-2,1.2-2.4c0.5,0.7,1,1.4,1.7,2.3c27.2-0.5,54.5-1,81.8-1.5c0.8,0.4,1.5,0.9,0.5,2.4   c-3.8,0.6-9.5-1.4-12.9,1C212.3,80.3,157.8,88.6,153.3,80.3z" />
	<path fill="#131417" d="M285,119.4c-3.1,22.1-31.6,26.1-38.4,4.1c0.4,0,0.7,0,1.1-0.1c5.5,8.6,8.6,13.3,20,11.7   c-18-26.4-15.4-61.9-13.6-92.2c0.3,0.4,0.7,0.8,1,1.1c-1.8,23.3-1.5,47,4.4,69.8c4.9,21,18.2,29.8,24.2,3.3c0.3,0,0.7,0,1,0   C284.9,117.9,284.9,118.6,285,119.4z" />
	<path fill="#202327" d="M225.5,82.1c3.4-2.3,9.1-0.3,12.9-1c1.1-1.5,0.3-1.9-0.5-2.4c0.1-2.8,0.2-5.5,0.4-8.3   c1.4-2,1.4-2.4-0.1-4.2c0.7-15.8,1.4-32.9,9.4-46.8c0.4,0.4,0.8,0.9,1.2,1.3c-1.8,4.1-4.5,8-4.2,12.7c-5.9,15.1-3.7,34.1-4.2,51   c-0.4,5.2,4,13.2-1.1,16.9l0,0c-1.2-3.9,2.8-7.3,0.2-10.6c-0.3-2.6-0.5-5.2-0.8-8C234.2,81.5,229.8,82.8,225.5,82.1z" />
	<path fill="#161316" d="M248.8,20.7c-0.4-0.4-0.8-0.9-1.2-1.3c3.5-8.4,13.7-6.3,21-6.3c9,1.1,12.2,11.4,14.3,18.9   c-0.4,0.5-0.8,0.9-1.2,1.4c-2.1-6.7-4.3-13.4-10.2-17.8c-1.6,0-3,0-4.2,0c-8.1,6.9-9.9,18.3-11.1,28.4c-0.3,0-0.7,0.1-1,0.1   c-0.3-0.4-0.7-0.8-1-1.1c0-0.4,0-0.7-0.1-1.1c2.3-8.6,3.9-18.6,9.3-26.8c-3.4,0.2-6.7,0.3-10.2,0.5   C251.8,17.2,250.3,18.9,248.8,20.7z" />
	<path fill="#3C3E47" d="M778.7,5.9c6,5.4,8,12.9,10.1,21.4c0.3-1.8,0.5-2.7,0.6-3.6c3.3,9.6,4.3,19.7,5.1,29.8   c-1.2,0.3-2.3,0.5-3.4,0.8c-2.7-15.9-2.5-34.1-13.6-47.3C777.9,6.6,778.3,6.2,778.7,5.9z" />
	<path fill="#171110" d="M389.9,65.3c-0.4-0.4-0.8-0.8-1.2-1.2c9.5-7.7,21.1-10.3,32.7-9c3.6-1.1,6.1,0.2,7.8,3.4   c-1,2.2-4.2-1.9-6-1.8c-3.7,1.9-6.3,5.3-10.3,5.4c-0.2-0.2-0.4-0.3-0.7-0.4c0.6-0.7,1.2-1.4,1.9-2.2c1.3-0.5,2.5-1.1,3.4-2.8   c-4.3,0.5-6.3,4-10.7,4.1c0,0,0.1,0.1,0.1,0.1c-0.1-0.7-0.2-1.3-0.3-2.2c-3.3,0.3-5.1,2.6-6.5,3.3   C395.4,62.4,393.6,63.6,389.9,65.3z" />
	<path fill="#232529" d="M759.6,121.3c-0.4,0.5-0.8,0.9-1.2,1.4c-11.8-13.8-12-33.8-14.3-51c-7.2-0.7-14.3-0.1-21.5-0.2   c7-1.8,16.1-1.7,23.3,0.1C748.1,88.4,748.9,107.1,759.6,121.3z" />
	<path fill="#101114" d="M247.7,123.5c-0.4,0-0.7,0-1.1,0.1c0,0,0,0,0,0c-0.1-0.3-0.3-0.5-0.4-0.8c-11.2,5.6-10.3-15.1-7.9-21.5   c0.3,0,0.6,0,0.9,0l0,0c0,4.2-0.7,20.5,5.7,18.8c-0.5-2.7-1.1-5.3-1.6-8c0.4-0.4,0.8-0.8,1.2-1.2c0.8,3.5,1.1,7.6,3.2,10.5   C247.7,122,247.7,122.8,247.7,123.5z" />
	<path fill="#232529" d="M747,29.1c0.3,0,0.6,0,0.9,0c-2.4,12.6-1.4,25.4-3.1,38.2c-0.4,0-0.8,0-1.1-0.1c0-2.8-0.1-5.5-0.1-8.3   c1.7-1.7,1.7-2-0.2-3.6c0.6-8.4,1.4-16.8,2.6-25.2C746.3,29.8,746.7,29.5,747,29.1z" />
	<path fill="#362E2B" d="M425.7,57.8c1,0.5,2.9,2.8,3.4,0.8c0.7,0.8,1.3,1.6,2,2.3c-1,1.1-2,2.2-3.2,3.1c-0.9-0.8-1.7-1.5-2.9-2.5   c-4.1,6,0.9,12.2,0.2,18.6c-4.2-3.3-2.7-7.4-3.8-11.8C420.2,64.2,422.7,60.4,425.7,57.8z M428.5,61.2l-0.2,0.3l0.3,0L428.5,61.2z" />
	<path fill="#2F2A2D" d="M281.7,33.4c0.4-0.5,0.8-0.9,1.2-1.4c4.5,10.5,4.6,22,6.2,33.1c-0.7,0-1.5,0-2.2,0   C287.3,54.3,284.1,43.8,281.7,33.4z" />
	<path fill="#252629" d="M284.8,117.1c-0.3,0-0.7,0-1,0c2.6-11.9,4.2-23.9,4.2-36c0.5,0.1,0.9,0.1,1.4,0.2   c0.1,12.1-0.6,24.1-3.7,35.8C285.4,117.1,285.1,117.1,284.8,117.1z" />
	<path fill="#3C3E47" d="M828.5,53.7c-10.5,1.3-24,2.2-33.9,0C805.9,53.7,817.2,53.2,828.5,53.7z" />
	<path fill="#242628" d="M793.6,74.6c0.3,0,0.7,0,1,0.1c0.5,6.4,0,12.8-1.2,19c-0.3-0.4-0.6-0.7-0.9-1.1   C791.9,86.6,793.9,80.7,793.6,74.6z" />
	<path fill="#242629" d="M792.5,92.7c0.3,0.4,0.6,0.7,0.9,1.1c-1.5,4.3-0.4,9.6-2.9,14.1c-0.4-0.8-0.7-1.6-1.1-2.4   c1.2-4.2,2.2-8.3,2-12.7C791.8,92.7,792.1,92.7,792.5,92.7z" />
	<path fill="#2F2A2D" d="M301.8,65.3c-2.3,1.2-10.7,1.7-12.7-0.2C293.4,65.2,297.6,65.2,301.8,65.3z" />
	<path fill="#25201D" d="M403.5,320.7c1.1-1.3,1.1-1.3,3.2-0.2c0,1.4,0,2.2-0.2,3.8c-1,0.1-2.1,0.3-3.2,0.4c0.7-0.5,1.4-0.9,2.4-1.5   C405,322.4,404.3,321.5,403.5,320.7z" />
	<path fill="#555F6E" d="M887,62c-0.5-0.1-1-0.1-1.8-0.3c-0.2-1.1-0.3-2.2-0.5-3.5c1.2,0.6,2.2,1.1,3.1,1.5   C888,60.7,888,61.5,887,62z" />
	<path fill="#4C505E" d="M239.4,90.6c1.3,1.8,1.5,3.6-0.1,5.3C239.4,94.1,239.4,92.4,239.4,90.6z" />
	<path fill="#242628" d="M794.8,70.8c0-2.3,2.9-1.2,4.4-1.3C797.7,70,796.2,70.4,794.8,70.8z" />
	<path fill="#25272C" d="M239.2,101.2c-0.3,0-0.6,0-0.9,0c0.3-1.2,0.6-2.5,0.8-3.7C239.2,98.8,239.2,100,239.2,101.2z" />
	<path fill="#40444F" d="M792.7,98.4c-0.2-1.2-0.7-2.6,0.7-3.5C793.1,96,792.9,97.2,792.7,98.4z" />
	<path fill="#373A46" d="M747,29.1c-0.3,0.4-0.7,0.7-1,1.1c0.3-1.1,0.5-2.3,0.8-3.4C746.8,27.6,746.9,28.3,747,29.1z" />
	<path fill="#4C505E" d="M284.8,117.1c0.3,0,0.6,0,0.9,0c-0.3,0.8-0.5,1.6-0.8,2.3C284.9,118.6,284.9,117.9,284.8,117.1z" />
	<path fill="#232529" d="M759.4,123.6c0.4,0.3,0.9,0.7,1.3,1C760.2,124.2,759.8,123.9,759.4,123.6z" />
	<path fill="#131417" d="M245.6,123.4c0.2-0.2,0.4-0.5,0.6-0.7c0.1,0.3,0.3,0.5,0.4,0.8C246.3,123.5,246,123.5,245.6,123.4z" />
	<path fill="#F6D9C7" d="M760.4,303.8c-4.9-0.2-3.9,3.6-3.9,6.5c2.3,2.5,4.2,4.9,7.6,4.8l0,0c-0.1,1.2-0.7,2.6,0.9,3.3   c17.1,51.2,9.3,109.1,30.5,158.4c-2.7,4.5-3.2,9.7-8.9,11.1c-0.8-0.7-1.7-1.4-3-2.6c1.4-0.6,2.4-1,3.4-1.4c0.4-1.6,0.9-3.2,1.3-4.8   c-1.4-0.9-2.2,0.7-3.7,0.6c-1.4-0.4-3.1-0.8-4.9-1.3c-0.8,0.7-1.6,1.3-2.7,2.1c-0.4-0.4-0.9-0.8-1.3-1.2   c-3.6-21.2-13.4-40.9-21.1-60.6c3,0.7,5.4-0.5,8.5-1.4c-1.5-11.1-11.9-17.5-15.8-27.4c-2.4-7.8-5.2-15.5-7.3-23.3   c-3.3-8.2-1.6-17.9-5.2-25.8c-1.8-3.5-4.1-8.5-1.2-11.9c2.8,1.2,4.7,1.1,7.8,0.1c-2.8,3.2-1.2,4.2,1.4,5.3c0.4,1.1,0.8,2.2,1.2,3.3   c-0.8,2.2,0.8,3.8,1.5,6.4c0.8-2.7,0.8-4.6-0.6-6.4c0.2-1.7-0.7-2.7-2.2-3.2c-0.7-3.8,3.6-5.3,1.9-9   c-21.4-19.2-68.7-20.9-97.5-28.1c2-7.3,7.6-15.8,3.4-23.2c-3.5-11.9-1.7-18.6-12.4-27.9c47.5,0.9,86.4,28.3,123.8,54.3   C761.6,301.6,762.1,303.1,760.4,303.8z M782.7,458.5c0.1-2.2,1.3-4.6-1.5-6.3C780.4,454.7,781,456.7,782.7,458.5z M786.3,469.6   c-0.2,4.5-0.2,4.5,1.3,7C788.8,474,788.2,472.1,786.3,469.6z M784.6,465.4c1.1-2.1-0.2-3.2-1.6-5.1   C782.8,462.7,782.6,464.3,784.6,465.4z M778.3,439.7c-2.2,2.4-1.4,1.7,0.7,4.1C778.6,442,778.5,441.2,778.3,439.7z M779,449.4   c1.5-0.9,1.2-1.6,0-2.5C779,447.8,779,448.5,779,449.4z" />
	<path fill="#92A3C5" d="M441.7,548.3c-0.2,2.9-2.8,4.1-3.7,7c-3.7-3.8-4.1-5.3-2.9-10.2c-0.4-0.5-1.1-1.2-1.8-2   c0-1.7-0.7-3.4,1.3-4.7c0.6-0.4,0.8-2.1,0.5-2.9c-2.8-8,1.3-17.9-1.8-25.4c-1.9-18.6,4.6-38.4,0.8-56.2c2.7-4.6,6.7-7.4,10.6-10.7   c0.5,0.5,0.9,0.9,1.4,1.4c-2.5,7.3-3.6,14.2-8.7,20.4c8.7-3.8,9.4-16.3,12.5-24.4c3.2-10.1,8.7-19.3,9.9-30.1   c58.4-18.8,117.7-36.2,176.7-52.8c4,38.4,6,77.2,6.1,116c-0.7,0.2-1.2,0.3-1.7,0.4c-0.7,0.7-1.4,1.4-2.2,2.2   c-1.5,0.3-3,0.7-4.9,1.1c-3.1-25.3-2.5-51.3-6.9-76c-15.9-3.7-32.1,5.4-47.3,9.6c-37.1,9.6-73.4,21.9-110.4,32.1   C438.6,445.5,446.1,524,441.7,548.3z" />
	<path fill="#F6D9C7" d="M622.9,53.5c1.1-0.2,2.3-0.5,3.6-0.8c-0.4,1-0.6,1.8-0.9,2.8c3.4-0.7,6.4,2.4,9,0l-0.1,0.1   c1.6,0.7,3.3,1.2,5.4,0.6c-0.3-0.8-0.6-1.6-0.9-2.6c1.3-0.2,2.6-0.4,4-0.6c0.5,1,0.9,1.7,1.3,2.5c-0.6,0.6-1.2,1.2-2,1.9   c14,15.1-0.2,24.6,1.7,40.5c-1.9,31.2,6.9,63.4-5.2,93.4c-17,16-19.3,45.4-30.1,66.2c-3.6,11.1-11.4,19.6-16.8,29.8   c-5.9,8.2-9.4,19.7-18.8,23.7c-7.4-4.6-15.8-4.6-23.8-7.4c-2.1,0.7-2.5-1.6-3.8-2.1c-2.4-1-4.3-3.3-7.3-2.8c-0.4-1.2-1-2.2-2.9-2.2   c-0.9,3.6,0.9,6.1-0.5,9.7c2.6,2.3,4.5,5.7,8.4,6.5c0.3,0.1,0.4,0.8,0.7,1.5c-11.4,0.2-22.1,0-33.1-1.4c-0.2-0.8-0.3-1.3-0.4-1.8   c8.5-15.2,17.7-69.8,39.9-62.2c-0.2,0.3-0.4,0.6-0.6,0.9c-5.7,1.9-12.3,4.6-15.3,10.1c4.6-1.6,7.9-5.5,12.1-8   c1.9,0,3.7,0.1,5.3-1.1c3.2,0.1,6.5-0.9,9.5,0.7c0,4.3,0,8.3,0,12.6c1.3,0.9,1.9,2.2,3.7,2.3c3-3.5,3.4-8.5,4.4-12.9   c3.1-9.8,10.4-17.2,14.8-26.3c8.6-13.4,24.2-23.6,27.1-39.9c5.3-0.1,4.6-5.3,7.2-7.5c-0.7-13.2,1.5-25.8,4.2-38.6   c1.9-12.8,0.6-27.2,6.2-38.9c0.5,1,1,1.9,1.6,3.1c1-1.9,0.2-3.1-0.3-4.3c-2.3-4.1,2.8-9.3-0.1-13.6c0.2-1.3-2.4-0.9-1.6-2.7   c2.3,0.7,4.4,1.4,6.6,2.1c0.3,1.2,0.6,2.4,0.8,3.3c4.8,1.2,1.7-7.4,2.8-10.3c2.2-1.8,0.1-2.1-0.1-4.1c1.1-4.2,6.6-9.4,0.4-12.6   c-9.4-1.8-18.6-5.2-28.6-2.7c-0.2-0.8-0.3-1.3-0.4-1.8c1.9-1.8,4.6-1.2,6.8-2.1c0.5-0.6,1-1.3,1.5-1.9   C619.9,54.3,621.4,53.9,622.9,53.5z M549.7,294.2c0.5,1.1,1,2.2,3,1.7c-1.5-1.7-1.6-4.5-3.7-5.4c-0.3,0.3-0.6,0.5-1.1,1   C548.5,292.3,549.1,293.2,549.7,294.2z M537.1,287.6c0.7-0.4,1.3-0.9,2.1-1.4c-1.5-1.1-2.5-0.8-3.3,0.2c-3.9,0-17.1-1-9.4,5.3   c3.8-0.4,9,1.5,11.6-1.8C537.7,289,537.3,288.4,537.1,287.6z M628.3,193.3c4.9,0.4,4.7-8.2,2.5-11.8   C628.9,185.4,628,189,628.3,193.3z M548.5,279.6c-3.8,1.6-4.2,2-7.2,5.9C545.8,285.9,547,282.6,548.5,279.6z M629.6,166.8   c-0.2,3.6-0.2,3.6,1.6,4.7C631.9,169.8,630.6,168.7,629.6,166.8z M635.2,175.7c-1.5,0.9-2.2,1.9-1.1,3.6   C635.6,178.3,636,177.2,635.2,175.7z M627.5,160c0,1.4,0.3,2.5,2,3.6c-0.2-1.8-0.3-2.9-0.4-4.1C628.4,159.7,627.9,159.8,627.5,160z    M630.8,174.7c-1,1.6-1,3.1,0.1,4.9C632.1,177.7,631.7,176.3,630.8,174.7z M549,278.4c2.7-0.5,3.3-1.1,2.2-2.6   C550.7,276.4,550.2,277,549,278.4z M554.5,271.7c-0.8,0.6-1.7,1-1,1.8C554.9,273.5,555,273.1,554.5,271.7z M557.5,268.1   c1.8,0.2,1.8,0.2,1.2-1.6C558.3,267.1,558,267.5,557.5,268.1z" />
	<path fill="#798BB3" d="M437.4,564.3c12.6,0.7,28.8,0,40.4,1.9c-9.3,0.3-18-0.6-27.4,0.6c29.8,1.6,60.5-1.7,89.9,2.7   c-12.8,1-25.8-1.2-38.4,1c15.4-0.5,30.4,1.5,45.7,1c0.7,0.8,1.4,1.7,2.1,2.5c-2.5,5.9,6.5,15.1,5.2,21.9   c-82.8-4.5-165.9-7.5-248.4-9.7c0.9-8.4,5-17.3,7.2-25.7c2.7-0.5,5.5-1,8.2-1.4l0-0.1c0.2,0.6,0.3,1.2,0.6,2.1   c25.7-1.8,51.6,1.3,77.7,2.3c3.6,1.1,9,2,11.9-0.2c1.4,0,2.9,0,4.3,0.1c1.6,3.8,9.8,2.3,12.9,0.9c4,2.6,7.4,2.5,12.4,2.1   C439.8,565.4,438.6,564.9,437.4,564.3z" />
	<path fill="#35A65F" d="M614.7,314c21.1,10,43.4,4.4,65.2,7.8c-35.6,11.9-74.4,14.7-110.4,26.4c-14.5,7.6-31.2,7.9-46,14.6   c-20.4,7.8-42.3,14.6-64.2,11c-1.8-8.1-5.6-15.6-7.2-23.6c0.4,0,0.8,0,1.1-0.1c0.1,0.6,0.3,1.3,0.4,2.1c8.6,0,18.5,0.5,26.2-2.8   c-3.9,0.2-7.9,0.4-11.8,0.6c4.6-2,10.8-2.2,16-2c0.5,0.5,0.9,1,1.4,1.5c-0.8,4.3-0.7,13.2,0.4,17c0.6-5.9,1.1-11.4,1.7-17.3   c5.2-1.3,9.1-0.9,14.5-3.2c-3.8-0.5-6,0.7-9.6,0.7c8.4-3.4,17.8-4.6,26.6-7.2c2.3,1.9,6.4-0.3,9.2-1.8c-0.9-0.2-1.4-0.3-1.9-0.4   c7.8-3.5,17.3-4,25.9-5.6c0-1.1-0.9-2.2,0.5-2.9c0.3,0.4,0.6,0.7,0.9,1.1c3.2-1.6,7.1-1.4,9.8-3.2l-0.1,0c2.5-0.3,5.4,0.7,7.4-1.1   c3,0,3,0,4.7-0.7c-0.6-0.2-1-0.3-1.5-0.5c8.5-2,17.3-2.5,25.5-6.2c0.5,2.6,1,5.3,1.5,7.9c2.1-2.2,2.3-5,0.6-8.1   c0.5-0.9,1.3-0.9,2.2-0.9c0.7,1.3,1.4,1.3,2.1,0C608.8,316,612.3,316.4,614.7,314z M582,339c2.1-5.2,2.3-7.2,0.3-10.7   C582.9,331.9,580.8,335.3,582,339z M513.4,342.2c-1.2,3.1-0.8,5.2-0.4,7.4C513.9,347.5,515.9,345.6,513.4,342.2z M469.8,353.1   c-0.7,5.4-0.7,5.4,1.7,7.4C470.9,358,470.4,356,469.8,353.1z M467.6,356.8c-2.2,1.4-2,2.9,0.6,4.4   C468.1,359.6,468.5,358.2,467.6,356.8z M613,317.8c0,2.3,0.1,2.8,1.5,5.8C614.3,321.1,615.2,319.1,613,317.8z" />
	<path fill="#798BB3" d="M637.7,370.3c-2.4-3.4-0.3-8.3-1.1-12.6c-59,16.7-118.3,34-176.7,52.8c0.4-3.7,0.8-7.3,1.3-11.6   c0.6,1.5,0.9,2.4,1.6,4.3c0.5-9.4-1.1-16.3-2.5-25.4c23.5,5.9,34-4.1,54.7-8.3c40.7-9,80.4-27.4,121.9-31   C638.5,348.7,637.1,359.9,637.7,370.3z" />
	<path fill="#798BB3" d="M734.4,491.9c2.1,4.2,1.9,9.2,3.1,14c-35.5,0.6-71.1-3.2-106.5-6.3c-33.1-3-67.5,1.4-99.9-5.6   c1.4-5,2.8-10,4.3-15.4c0.8,0,1.8-0.1,2.8-0.1c39.7,6.7,83.5,3.3,124.4,7.4c13.8-0.1,27.3,1.3,41.1,1.3c9.8,3.2,23.2-3.2,30.3,6.8   C734.1,493,734.2,492.4,734.4,491.9z" />
	<path fill="#E1C7B6" d="M733.4,328.8c-2.9,3.4-0.6,8.4,1.2,11.9c3.6,8,1.9,17.6,5.2,25.8c3.8,10.9,5.2,23.7,13.1,32.5   c4.4,5.5,8.8,11.2,10,18.2c-2.1,0.6-3.9,1.1-5.7,1.7c0-0.5,0.1-1,0.2-2c-3.9-2.3-6.6-5.5-10.6-8.2c14,20.2,23.5,45.9,28.7,70.5   c-12.3-7.7-13.5-22.9-19.1-34.8c-9.1-24.5-24.2-46.6-26-73.4c-2.2-14.1,3.9-31.1-7.3-42.6c-13.6-4.7-28.4-5.1-41.5-10.9   c-4.1-2.6-8.9-3.1-13.8-3c-12,0.2-24.4,2.5-36-1.6c7.3-3.6,10.7-9.9,15-15.7c24.2,3.1,47.5,10.3,71.2,15c5.3-0.9,8.8,2.7,13.5,4.5   c7.2,2.5,7.5,2.7,12.9,8.7c0.5,2,0.7,4-1.5,5.4c-0.3,0.2-0.2,1-0.3,1.5c-1.4-1.5-2.5-1.1-2,1c-1.3-1.7-1.3-1.7,0.6-4.3   c-1.7,0.4-2.9,0.7-4.2,1c2-6-5.8-5.8-9.5-7.2c-9-0.7-21.4-5.8-29.8-4C708.8,322.4,722.7,323.2,733.4,328.8z M737.7,392.2   c-0.5,3.5,1,5.4,2.6,7.9C741.3,396.6,739.4,394.8,737.7,392.2z" />
	<path fill="#FFF0A7" d="M546.6,243.2c-22.5,4.4-23.1,32-32.8,48.8c-1.2,0.3-1.2,1.2-1,2.2l0,0c-3.1-3.8,1.1-4.9-6.3-8.2   c0.1-17.8,28.1-49.3,0.9-58.7c-15.8-1.9-34.5-8.5-47.6,3.6c-10.7-17-10.4,3.5-18.5-1.7c9.3-9.3,19.4-19.2,33.5-18.9   c22.2,1.4,85.9-8.1,86.2,25C556.9,240,549.6,237.4,546.6,243.2z" />
	<path fill="#F7EFD0" d="M768.1,478.4c2.7-0.2,4,1.9,5.3,3.6c1.3,2.9,4.5,2.6,6.2,5.2c4.9,12.1,17.2,3,19.2-6.2   c-0.8-4.1-3.3-8.5-2.7-12.9c7.6,3.4,7.1,13.6,18.8,16.8c7.4,3.7,14.1,8.4,22.7,8.5c4.3,4.3,9.6,11.5,5.1,17   c-13.5,2-27.3,5.3-40.9,1.1c-2.4,1.4-5.6,1.9-6.6,4.7c-12.8-1.5-25.7,8.3-37.4-1.4C769.1,504.9,761.8,490.3,768.1,478.4z" />
	<path fill="#E1C7B6" d="M630.2,96.7c-0.5,1.5-1.2,3,0.1,4.4c-6.6,6.4-3.7,17.4-6.4,25.4c-0.2,18-6.8,35-5.3,53.2   c-2.6,2.2-1.9,7.4-7.2,7.5c-2.9,16.2-18.5,26.5-27.1,39.9c-4.4,9.1-11.7,16.5-14.8,26.3c-0.9,4.4-1.4,9.4-4.4,12.9   c-1.8-0.1-2.5-1.3-3.7-2.3c0-4.3,0-8.4,0-12.6c-0.9-0.3-1.6-0.6-2.4-1c3.1-1,4.9-3.4,5.7-6.3c10.7-20.2,23.8-41.9,42.9-55.1   c2.2-1.6,4.2-3.3,2.8-6.5c-0.6-28,12.6-53.4,14.1-80.9c-1.6-7.8,0.6-16.7-9.4-19.5c-8.9-1.2-19.3-17-9.3-22c1.7,2,0.5,4.5,1.4,6.5   c3.4-1.9,0.4-5.9,2.7-7.9c0.1,0.5,0.2,1,0.4,1.8c10-2.5,19.2,0.9,28.6,2.7c6.3,3.3,0.7,8.4-0.4,12.6c-1.5,0.7-1.6,2.1-1.8,3.7   c0.6,0.2,1.2,0.3,1.8,0.5c-0.1,2.2-0.1,4.4-0.2,6.6c-0.4-1-0.8-2-1.3-3c-0.5,2-1.7,3.8-0.4,5.7c0.7-0.1,1.2-0.2,1.6-0.2   c-0.1,1.5-1.1,1.5-2.5,1.1c-0.2-1-0.5-2.1-0.8-3.3c-2.1-0.7-4.3-1.4-6.6-2.1c-0.8,1.7,1.8,1.4,1.6,2.7c-0.6,0.1-1.2,0.2-2.1,0.4   C629,90.9,628.8,94.4,630.2,96.7z M627,80.7c0.6-2.2,0-3.6-1.7-5C624.6,77.8,624.7,79.4,627,80.7z M623.1,69.2   c-0.1,3.1,0.5,4.2,1.7,3.9C625.3,71.6,624.9,70.5,623.1,69.2z M622.2,64.4c1.6-1.6,1.6-1.6-0.3-3.2c-0.1,0.1-0.3,0.2-0.7,0.5   C621.6,62.5,621.9,63.4,622.2,64.4z M637.6,68.5c-1.7,1.3-1.7,1.3,0,2.6C637.6,70.1,637.6,69.4,637.6,68.5z M606.9,68.7   c-0.2,0-0.5,0-0.7,0.1c0.1,0.7,0.1,1.4,0.2,2c0.3,0,0.5,0,0.8-0.1C607.1,70.1,607,69.4,606.9,68.7z" />
	<path fill="#030202" d="M561.6,231.3c-13.9-30.8-59.2-18.6-86.6-21.1c-14.1-0.2-24.1,9.6-33.5,18.9c1.5,2,3,1.1,4.5,0.2   c1.2,1.1,2.2,2.9,4.3,2c2.2-0.1,5.5,2,6.9-0.3c-1-1.6-2-3.2-3-4.8c0.7,0,1.4,0,2.1,0c1.2,1.5,2.3,3,3.6,4.6   c0.9-0.6,1.9-1.2,2.9-1.8c0.3,1.2,1.3,1.3,2.3,1.4c-1.1,0.6-2.3,1.2-3.6,1.8c2.5,3.9,7,4.4,10.9,5.6c-9.3,3.9-18.6-4.5-28.2-4.6   c-21.6-2-35.3,18.2-41.6,36.4c-0.5-0.3-0.8-0.8-1.2-1.2c9.1-36.7,23.6-13.3,8.6-61.8c7.9-37-6.7-75.7,7-112.1   c-1.8,0.8-2.6,1.6-4.3,1.3c1.2-1.3,2.3-2.6,3.4-3.8c1-0.1,1.8-0.2,2.1-0.3c8-6.6,16.2-11.8,13.6-23.3c-0.7-2.6-3.9-0.3-5-2.2   c0.6-1.3,0.9-2.4,2.1-3.1c0.1,0.9,0.3,1.9,0.4,3c1.2-0.3,2.2-0.6,3.1-0.9c0.7,1,1.3,2,2,3.1c-1.5,2.5-1.3,4.9-1.2,8.1   c5.6,0.8,11,0.1,16.3,0.5c-5.1,0.8-9.7,0.8-15,0.9c-3.2,13-15.2,11.5-17.2,26.5c-8.5,33,4.2,68.5-4.9,101.2   c5.6,10,5.7,21.1,7.1,32.4c2.9-1.8,5.4-3.4,7.9-4.9c3.2,0.8,5.7-1.3,8.2-1.5c12.5-23.6,36.2-27.8,60.7-24.9   c22,0.7,47.5-3.6,64,14.7c4,0.6,7.2,1.5,10.7,3.4c1.1-0.9,2.1-1.8,3.2-2.7c-0.4,2.5-2.6,4.6-4.5,6.2c0.1-0.6,0.3-1.3,0.4-2   c-2.3-1.3-4.3-1.4-6.5-0.7c0.7,2.5,1.3,4.8,1.9,6.9c0.6,0,1,0.1,1.3,0.1c-0.3,2.5-1.5,4.5-3.2,6.3   C564.2,236.1,562.3,234,561.6,231.3z" />
	<path fill="#FF9A77" d="M600.6,285.6c10.3-13.2,10.5-30,19.5-43.8c21,4.2,31.9,34.3,22.8,53.4c-5.4-1.9-10.6-4.2-16.8-4.5   c1.2-4.1,3.5-7.7,2.8-12c-5.3,1.5-3.8,12.9-10.1,10.6c0.2-2.4,1.9-4.6,1.8-8.1c-7.5,9.1-7.1,10.4-18.3,6.4   C601.5,287.3,601.1,286.2,600.6,285.6z" />
	<path fill="#F6D9C7" d="M472.4,237.9c-4-1.2-8.4-1.7-10.9-5.6c11-7.4,23-3.3,34.7-3.9c-1,2.8-1.8,5-2.7,7.3   c-1.2,0.8-1.7,1.8-0.9,3.9c2.7-4,5.4-6.3,8.7-9.9c30.9,3.7,3.1,40-0.3,56.9c-0.9-2-1.3-4.1-3.4-5.3c-1.1,1.6,0.1,3.5-1.1,5.3   c-0.5,0-1.3,0.1-1.8,0.1c-2.5-1.7-1.6-4.6-3-6.4c0.1-0.3,0.1-0.6,0.1-0.8c1.6,0.3,3.2,0.5,5,0.8c0-3.1-2.7-1.7-3.5-2.5   C489,264.5,488.9,241.1,472.4,237.9z M489.1,239.9c-1.7,1-1.9,2.3-1.3,3.9C489,242.8,490.1,241.7,489.1,239.9z M486.5,230.7   c-0.5,1.6,0.2,2.2,1.3,2.6C488.8,232,488,231.4,486.5,230.7z" />
	<path fill="#4ABA79" d="M603.9,317.4c-0.9,0-1.7,0-2.2,0.9c-12.4,4.5-26.6,4.7-38.1,8.6l0.1,0c-3.5,0-12.6-0.1-11.2,5   c-33.7,5.1-65.9,20.2-100.2,18.4c-1-2.1-2.1-4.3-3.1-6.4c0.2-0.6,0.4-1.3,0.6-2.1c21.9,3,40.6-12.1,61.9-10.6   c27-3.4,54.1-6.2,78.6-18.1c1-1.3,3.3-0.2,4.1-2c7.1-2.4,14-0.3,20.3,3l0.1,0C611.7,316.3,607.5,317.1,603.9,317.4z" />
	<path fill="#F7EFD0" d="M469.2,473.1c1.1-2,2.1-4,3.3-6.2c3.7,0,7.2,0,11,0c0.2,1.9,0.5,3.9,0.7,5.7c2.3,1.4,4.3,2.6,6.6,4   c-1,7.7-1.5,18.3,1.8,25.3c-0.3,2.7,0.5,5.5-0.7,8.4c-9.8-3-20.1-0.8-29.9-3.4c0.2-3.2-1.8-5.8-0.3-8.8c-0.8-3.6,3.9-7.3,1.3-10.2   c2.5-3.6,2.4-7.8,2-11.9c0.6-0.5,1.3-1.1,1.9-1.6c0.4,1.2,0.3,2.8,2.4,2.7C469.2,475.8,469.2,474.4,469.2,473.1z" />
	<path fill="#EF8A6A" d="M600.6,285.6c0.4,0.7,0.9,1.7,1.7,1.9c11.2,4,10.8,2.7,18.3-6.4c0.2,3.5-1.6,5.7-1.8,8.1   c6.3,2.4,4.8-9.1,10.1-10.6c0.6,4.3-1.6,7.9-2.8,12c6.1,0.3,11.4,2.7,16.8,4.5c-10,30.8-27.5,6.6-45.8,11.8   c-4.3,1.4-8.6,0.7-13.6,1.2C588.7,299.5,591.7,290.6,600.6,285.6z" />
	<path fill="#35A55F" d="M411,340.6c1.6,0,3.1,0,5.1,0c-0.1,11.4,2.3,21.9,6.2,32.5c-8.8-0.6-17.4-1.2-25.9-1.8   c-0.8-4.5,1.8-12.2-1.2-15.3c-2.6,4.5,1.4,9.6-0.7,14.2c-7.3-0.3-13.9,1.7-21-1.4c-2.9-5.3-0.4-15,1.4-20.7c0.7,0,1.5,0,2.2,0   c4.1,3.5,12.3,3,16.9,1.1c7,1.4,13.8,1.1,21,0.8c0.4-2.9,0.6-5.4-0.2-8.1c-1.4-0.1-2.6-0.2-3.8-0.2C410.9,341.3,411,341,411,340.6z    M381,350.7c-1.3,5.8-1.3,8,0,11.5C380.9,358.2,383.5,354.2,381,350.7z M405.9,351.7c1.4,2.4,3.4,2.3,5.7-0.2   C409.6,351.2,407.8,351,405.9,351.7z" />
	<path fill="#90A2C4" d="M734.4,491.9c-0.1,0.5-0.2,1-0.4,2c-7.1-10-20.5-3.6-30.3-6.8c-13.7,0.1-27.3-1.3-41.1-1.3   c-40.9-4-84.7-0.7-124.4-7.4c12.5-7.9,25.6,3.9,38.2-0.4c-4-1.5-7.3,0.4-11-1.7c19.8-2.1,38.1,4.9,58.1,5.3c0-0.3,0.1-0.5,0.1-0.8   c-7.5-2.2-15.6-1.5-23.4-2.9c0-0.3,0-0.5,0.1-0.8c8.8,1.1,20.7-2.3,28,2.2c2.4,2.9,8.7-1.1,12.9-1.2c-1.1-0.9-1.7-1.4-2.3-1.9   c0.7-0.7,1.4-1.4,2.2-2.2c-0.4,1.6,0.5,1.8,1.8,1.6c0.4,1.4,0.7,2.7,1,3.9c19.5,3.1,40,3.1,60,3.8c-0.4-1.7,0.8-1.7,1.8-1.7   c8.1,2.3,19.2-0.2,26.3,4c-0.9,0.1-1.7,0.4-1.4,1.9c0.8-0.1,1.6-0.2,2.5-0.3C734.3,488.5,734.1,490.3,734.4,491.9z" />
	<path fill="#E1C7B6" d="M545.6,301.5c1.3,0.6,1.8,2.8,3.8,2.1c7.9,2.9,16.4,2.8,23.8,7.4c-20.4,14.4-45.7,12.2-69.2,10.3   c1.1-4.1,4.6-6.7,6.7-10.4c0.1,0.5,0.2,1,0.4,1.8c11,1.3,21.7,1.6,33.1,1.4c-0.3-0.7-0.5-1.5-0.7-1.5c-3.9-0.9-5.8-4.2-8.4-6.5   c1.4-3.6-0.4-6.1,0.5-9.7c1.9,0,2.5,1,2.9,2.2c-0.3,0.8-0.6,1.5-0.9,2.2c2.4,2.8,5.1,3.2,8.2,2.3   C545.6,302.5,545.6,302,545.6,301.5z" />
	<path fill="#EADCB7" d="M768.1,478.4c-6.3,11.9,1,26.5-10.3,36.4c11.7,9.6,24.6-0.1,37.4,1.4c1.1-2.8,4.2-3.3,6.6-4.7   c13.6,4.2,27.4,0.9,40.9-1.1c-11.1,9.9-29.5,8.1-43.7,8c-15.4,5.8-31.6,6.1-47.3,1c0.6-9.2,8.6-15.4,8-24.7   C760.2,489.7,760.2,474,768.1,478.4z" />
	<path fill="#D6C0A0" d="M437.6,411.7c-3.9-15.4-4.2-32.5-12.1-46.5c-0.7,0.8-1.2,1.4-1.7,2c-0.5-1.1,0.5-2.5-1.1-3.1   c-0.7-2.5-1.4-4.9-2-7.4c0.6,0.5,1.1,1,1.8,1.6c0.2-0.8,0.4-1.4,0.6-2.1c0.7,0.6,1.3,1.1,2.3,1.9c0.2-1.6,0.4-2.5,0.5-3.5   c1.1,1.1,1.5,4.1,3.3,3.1c0.5,0.6,1.1,1.2,1.6,1.8c0.9-0.6,1.8-1.1,2.6-1.6c13.9,23.1,24.8,56.6,11.6,81.6c-3.1-2.9,1-8.7,1.1-12.6   c5-21.8-3.2-43-14.8-61.9c8.3,17.8,9.4,36.4,8.3,55.8C438,417.6,439.3,414.4,437.6,411.7z" />
	<path fill="#D7C0A0" d="M420.5,338.6c-0.9-6.3,2.4-11.4,5.2-16.7c-0.4-0.7-0.9-1.4-1.5-2.4c1,0,1.8,0,2.6,0   c0.1,2.7,2.9,2.5,4.3,4.2c1.4-2.6-0.1-5-0.1-7.3c-0.6-5.4,1.3-12.4-1-16.9c-0.3,0.3-0.6,0.7-1,1c0,2.8,0,5.6,0.1,8.5   c0,0-0.1-0.1-0.1-0.1c-0.3,0-0.6,0-0.9,0c-0.1-3.5-0.1-7.1-0.2-10.6l0.2,0.1c2.1-3.7,0.2-8.6,1.1-12.7c0.5,0.6,1,1.1,1.5,1.7   c0.5-0.2,0.9-0.4,1.4-0.6c0.3,4.8,0,9.6,2.1,14.2c1.4-9.9-1.4-20.8,1.2-30.2c0.2,0.6,0.3,1.2,0.7,2.3c0.9-3.5,2.5-5.5,1.6-8.6   c0.3,0,0.6,0,1,0.1c1.9-1.4,3-3.3,4.1-5.3c0,1.4,0,2.9,0,4.3c-4.4,5.7-6.8,14.8-6.8,21.9c1.3,0,2.3,0,3.3,0c1.5-5,3.9-9.5,3.8-14.7   c1.2,0.8,0.8,2.1,1,3.2c-1,3.9,5.3,4,2.3,7.6c-0.1-0.8-0.5-2.6-1.3-1.1c-0.5,0.1-1,0.2-1.5,0.3c-0.9,3.3-3,7-0.9,10.2l0.4,0.1   c-3.5,10.7-5.9,24.9-7.9,35.1c-2.9-0.5-5.6-2.3-8.9-0.7c-2.5,4-3.5,8.6-3.3,13.5c0.6-0.3,1-0.5,1.7-0.7c0.1,3.4,0.6,6.7,0.2,10.1   c-1-0.6-2.1-1.2-3.1-1.8C421.3,343.4,422.4,340.7,420.5,338.6z" />
	<path fill="#7081A6" d="M429.3,564.1c-2.1,1.4-4.4,1.3-6.7,1.1c1.2-0.8,4.5-1.6,2.3-3.3c1-32.9,1.6-66,2.2-98.6   c1.7-2.4,3.8-4.4,5.1-6.9c-2.8,33.1-2.9,69.9-1.4,104.4C430,561.8,428.8,562.5,429.3,564.1z" />
	<path fill="#4ABA79" d="M377,348.1c-0.7,0-1.5,0-2.2,0c-0.1-0.9-0.3-1.7-0.4-2.8c6.3-5,14.2-8.9,21.7-12.1c3.5,3,8.3,3.9,12.4,6   c0.1,0.4,0.2,0.9,0.2,1.4c-1.1,0.3-2.5-0.3-4,1.2c4,0,6.3-0.1,10,0.2c0.7,2.6,0.6,5.2,0.2,8.1c-11.8,1-23.2-0.8-34.7-3   C379,346.9,377.7,346.7,377,348.1z" />
	<path fill="#D6BF9F" d="M456.6,392.5c-2.7-10.9-2.9-25.1-10.5-33.4c3.6,16.3,9.5,31.9,7.2,49.2c-0.3,0-0.6,0-0.8,0l-0.1,0.1   c-0.3-18.2-8.1-35.3-17-50.9c2.1,0.1,3.7,0.9,4.7,2.8c0.2,0.4,0.7,1.4,1.5,0.5c-0.7-3.7-3.2-7.2-2.9-11c1.4-0.6,0.4-2,1-3   c2.1,3.1,2.3,6.9,3.7,10.7c3-1.2,5.2-1.2,8.1-0.1c4.9,12.3,8.7,25.7,7.1,39.1C457.8,395.3,457.2,393.9,456.6,392.5z" />
	<path fill="#7688AF" d="M430,457.2c-0.7,0.7-1.3,1.4-2,2.1c-3-22.6-0.2-46.4,0.3-69.5C436.4,404.1,436,442.2,430,457.2z" />
	<path fill="#34A45E" d="M508.4,331.2c-14.4-3.2-27.8,11.8-41.2,7.4c0.1-0.3,0.2-0.6,0.3-0.9c-1.1-0.4-2.5-0.1-2.9-1.6   c4.4-3.1,11.3-4.1,12.2-10.2c1.1-1,2.3-2,3.8-3.3c0,1.3,0,2.1,0,2.9c2,0.4,1-2,2.4-2.5c3.4,0.3,7,0.6,11.5,1   c0.1,0.1,0.6,0.8,1.2,1.6c6-0.7,12,0.3,18.1,0.2c-1.1,1.4-2.2,2.8-3.3,4.2C509.5,330,508.8,330.2,508.4,331.2z" />
	<path fill="#FDFDFD" d="M449.3,491.8c0.6-12.5,2.3-24.9,5.4-37c3.7-1.9,6-6.4,11.3-6.4c0,7.5,0,15,0,22.8c-0.6,0.5-1.4,1.1-2.2,1.7   c-0.9-0.4-1.6-0.8-2.7-1.3c-4.2,5-7.2,10.8-9.3,17C451.3,489.7,451.3,491.4,449.3,491.8z" />
	<path fill="#E9D88E" d="M506.3,283.3c0.1,0.9,0.2,1.7,0.3,2.7c7.4,3.3,3.1,4.4,6.3,8.2c-2.9,9.5-6.1,18.7-13.9,26.2   c-2.6,0.1-5.8,0.3-9.7-0.4C498.6,309.2,502.2,296.6,506.3,283.3z" />
	<path fill="#EFD3C2" d="M474.6,445.7c6.1-1.7,11.7-4.2,17.9-5.3c-2.6,9.5-3.6,18.8-3.2,29c-3.4-2-1-3.9-3.4-6.7   c-2.2-0.5-4.5-0.7-6.4-2.4c-0.2,0.3-0.5,0.7-0.8,1.1c-1.7-0.2-3.5,0.6-5.1-0.9C472.9,455.4,474.5,450.7,474.6,445.7z M481.3,450.4   c1.4-0.4,1.9-2.5,0.4-2.6C480.8,448.7,480.7,449.1,481.3,450.4z M481.4,452.6c-0.8,1.4-1.8,2.1-0.1,3.3   C482.2,454.4,482,454.4,481.4,452.6z" />
	<path fill="#E8DAB6" d="M461.6,498.2c-1.5,3.6,1.1,7.3,0.1,11.2c-1.4-1.9-0.3-4.9-2.7-6.4c-1.3,2.7-1.1,6.8,0.6,11.4   c-10.4,1.6-17-12.4-8-18.5c7.1-4.6,4.8-16.7,13.3-19.8c2.7,8.6-6.3,13.6-4.8,21.8C460.6,498,461.1,498.1,461.6,498.2z" />
	<path fill="#D4BE9E" d="M426.8,319.5c-0.8,0-1.6,0-2.6,0c0.6,1,1.1,1.7,1.5,2.4c-2.3-1.1-3.1,2.1-5.2,1.8c0-1.3-0.3-2.4-1.9-2.3   l0,0c-1.4-0.9-2.9-1.2-4.4-2l0,0c-0.7-0.3-1.2-1.1-2-1.1c-2.6-2-5.6-3.7-7.5-6.5c-2.2-3.7-2.2-9.3-4.4-12.6l0.1,0.1   c0.2-10-1.1-20.2,1.9-29.9l0.2,0.1c1.7-0.5,0.5-2.1,1.3-3.1c0.4,0.4,0.7,0.9,1.1,1.3c-5.5,17.1,0.2,37.3,12.5,50.5l-0.1-0.1   c0.2,0.3,0.4,0.6,0.5,0.8c0.2-0.3,0.4-0.5,0.6-0.8c1.5,0.6,2.3,3.1,4.1,2.3c-0.3-0.8-0.6-1.6-1-2.4c1.4,0,2.8-0.3,4.1,0   C426.1,318.7,426.4,319.1,426.8,319.5z" />
	<path fill="#33A55F" d="M594.3,311c-0.8,1.8-3,0.7-4.1,2c-24.6,11.9-51.6,14.7-78.6,18.1c0-0.3,0.1-0.7,0.1-1   c1.4-1.1,2.8-2.1,4.2-3.2c22.3,0,47.3-1.6,65-16.7C585.2,311.7,589.8,310.6,594.3,311z" />
	<path fill="#8B9FC0" d="M416.3,563.2c-20.7-1.9-41.7-3-62.6-4.4c-0.3-0.6-0.7-1.2-1-1.8c22,1.6,45.3,1.4,67.8,1   c1.1,1.6,1.1,3.4,1.1,5.2C419.8,563.2,418.1,563.2,416.3,563.2z" />
	<path fill="#EADBB6" d="M461.7,509.4c0.1-0.8,0.1-1.6,0.2-2.5c9.8,2.6,20,0.4,29.9,3.4c1.3-2.9,0.5-5.7,0.7-8.4   c1.8,2.4,0.3,6.5,0.7,9.8c-10.7,3.3-21.5,2.7-32.5,2.7C461.1,512.8,461.4,511.1,461.7,509.4z" />
	<path fill="#8E9FC0" d="M734.2,482.7c2.3,0,4.5,0,6.8,0c3.8,6,5.3,13,10.7,17.2c-3.3,1.8-6.5,3.5-10,5.4   c-2.8-6.2-3.3-14.3-4.7-21.1c-0.9,0.1-1.7,0.2-2.6,0.3C734.3,483.9,734.2,483.3,734.2,482.7z" />
	<path fill="#34A45E" d="M408.8,340.5c-0.1-0.5-0.2-1-0.2-1.4c-4.2-2.1-9-3.1-12.4-6c4.4-2,8.3-3.8,12.8-6c2.1,1.4,4.5,3.1,7.2,4.9   c0,1.7,0,3.6,0,5.6C414.4,339.9,411.2,339.4,408.8,340.5z" />
	<path fill="#F7E1C1" d="M451.4,357.6c-2.9-1.1-5.1-1.1-8.1,0.1c-1.3-3.8-1.6-7.6-3.7-10.7c0-2.8,0.1-5.6,0.1-8.5   c1.3-0.7,0.8-2.1,1-3.2c0.4,0,0.7-0.1,1.1-0.1C446,342.3,448.8,350.4,451.4,357.6z" />
	<path fill="#D8BFAF" d="M499,282.4c5,9.9-4.1,21-8.5,29.7c-0.4-0.4-0.8-0.8-1.2-1.2c1.6-6.8,2.4-13.8,3.2-20.7   c2.2-0.3,4.1-0.6,6.3-0.9C498.9,286.9,499,284.6,499,282.4z" />
	<path fill="#231D1B" d="M491.6,279.4c0,0.3,0,0.6-0.1,0.8c-1.4-0.3-2.9-0.9-4.3-1.1c0.9-0.5,1.7-1.1,2.7-1.7   c-0.7-12.1-4.9-29.6-14.2-36.5c-2.3-2-5.1-1.3-6.6,1.2c-1.5-1-3-2-4.5-3c7.1-0.7,15-2.4,18.3,6.1   C488.1,256,492.8,267.2,491.6,279.4z" />
	<path fill="#E7D48B" d="M561.6,231.3c0.7,2.7,2.6,4.8,2,7.6c-1.6,2.9-1.7,8.4-5.9,8.4c-3.2-2.6-7.1-3.5-11-4.2   c3-5.8,10.3-3.2,14.5-8C561.3,234,561.4,232.7,561.6,231.3z" />
	<path fill="#181B22" d="M430.2,506c0.5-13.4-1.6-27.4,1.6-40.4c1.8-2.5,2.3-7.1,0.5-9.1c0-1.2,0.8-1.9,1.8-2.4   c3.9,6.7-0.3,15.7,0.1,23.2c-0.3,0.2-0.7,0.2-1,0.2c-0.1-1.2-0.2-2.4-0.3-4.5c-0.6,2.2-1,3.5,0.4,4.5c-1,2.4,0.2,4.4-0.1,7.4   c-0.6,0.2-1.2,0.4-2,0.6C430.4,492.2,432.6,500,430.2,506z" />
	<path fill="#CBB698" d="M460.5,327.8c-2.1,1.9-5.5,4-8.1,2.4c10.3-9,14.4-22.1,20-34.1c0.7,3.6-1.4,6.8-1.8,10.3   c0.8,0.1,1.3,0.2,1.8,0.3c-4,7-8.2,11.9-13.4,19.1c2.1-1,3.1-1.4,4.1-1.9C462.2,325.2,461.4,326.5,460.5,327.8z" />
	<path fill="#D0BA9B" d="M451.1,328.9c-0.7,0.4-1.4,0.8-2,1.2c-0.7-0.1-1.3-0.1-2.1-0.2c5.8-9.1,11.4-17.4,17.1-26.3   c1.1,0,2-0.7,3-1.1C463.7,312.5,458.1,321.1,451.1,328.9z" />
	<path fill="#E4D0B2" d="M483.9,281.5c0.1,3.6,3.1,5.2,5.2,7.6c0.6,3.7-0.7,7.3-1.1,11c-0.9,0.2-2.2,0.4-2.8,0.4   c-2,3.2-3.8,6.1-5.6,9c-0.3-0.3-0.7-0.6-1-1c0.7-2.8,6.1-8.5,3.4-10.3c0.7-2.1,1.4-4.2,2.1-6.4c1.2-0.4,1.5-1,0.1-2.3   c-0.1,1-0.1,1.6-0.1,2.2c-2-3.1-0.7-7.2-1-10.7C483.3,281.4,483.6,281.5,483.9,281.5z" />
	<path fill="#13100D" d="M457.8,313.2c-3.4,5.7-7.1,10.9-10.8,16.8c0.8,0.1,1.5,0.1,2.1,0.2c-1,0.7-1.9,1.4-2.7,2   c-1.4-0.4-2.6-0.7-4.1-1.1c-0.2,1.2-0.4,2.1-0.5,3.1c-0.2,0-0.5,0-0.7,0l-0.1,0c-0.5-1.7,0.2-3.7-1.2-5.1c0.1-0.2,0.1-0.5,0-0.8   c1.1-0.2,2.4,0,3.1-1.3c6.5-2.4,8.5-9.4,11.8-14.8C455.7,312.5,456.7,312.8,457.8,313.2z" />
	<path fill="#B29F84" d="M437.6,411.7c1.8,2.7,0.5,5.9,1.9,8.9c0.1-7.6,0.1-15.2,0.2-22.8c0.3,0.1,0.5,0.2,0.8,0.4   c-0.5,15.2,1.8,32-3,46.4c-0.4,0-0.8,0-1.2,0C438.1,433.7,437.6,422.6,437.6,411.7z" />
	<path fill="#26221C" d="M439.6,438.2c1.1-14.2-0.4-29.9,1.9-43.4c2.2,12.1,0.5,24.1,0.1,36.2C443.5,433.5,442.3,436.7,439.6,438.2z   " />
	<path fill="#BEAA8E" d="M442.6,432.6c-2-12.7,1.3-26.8-0.9-40c0.3,0,0.6,0.1,0.9,0.2C446.1,405.6,445.7,419.6,442.6,432.6z" />
	<path fill="#28221C" d="M451.1,328.9c8.5-8.8,13.1-19.7,18.3-30.6c0.4,0.4,0.7,0.8,1.1,1.2c-3.8,11.3-9.3,22.5-18.1,30.7   C452,329.8,451.5,329.4,451.1,328.9z" />
	<path fill="#ECD7B7" d="M420.5,338.6c1.9,2.1,0.8,4.9,1.1,7.7c1,0.6,2.1,1.2,3.1,1.8c0.7,2.1-1.1,4.8,1.2,6.3l0,0   c-0.1,1-0.3,1.9-0.5,3.5c-1.1-0.9-1.6-1.4-2.3-1.9c-0.2,0.7-0.4,1.3-0.6,2.1C418.5,354.1,417,343.1,420.5,338.6z" />
	<path fill="#DBC2B2" d="M474.6,445.7c0,5-1.7,9.8-0.9,14.9c1.6,1.4,3.4,0.7,5.1,0.9c-1.5,2.5-5.5,0.5-8.5,1.1   c-0.4-5,0.7-10.3-0.6-15.5C471.2,446.2,472.7,445.3,474.6,445.7z" />
	<path fill="#7D96B5" d="M352.7,557c0.3,0.6,0.7,1.2,1,1.8c-10.7,0.5-21.1-0.4-31.8,0.1l0,0.1C331.1,552.8,342.4,558.5,352.7,557z" />
	<path fill="#6B5F51" d="M483.9,281.5c-0.3-0.1-0.5-0.1-0.8-0.3c-0.2-0.8-0.4-1.7-0.7-3.2c-1,4.1-1.8,7.4-2.6,10.7   c-3-3.7,1.1-8.8-0.3-13.7c-1.8,3.7-3.2,6.8-4.7,9.8c0.2-4.5,1.2-8.8,2.7-13c0.2,0.6,0.5,1.3,0.8,2c0.8-0.2,1.4-0.3,2.1-0.4   c2.6,0.9,3.7,3.3,4.8,5.7C484.7,279.8,484.3,280.7,483.9,281.5z" />
	<path fill="#201C17" d="M444,398.9c-0.1-1-0.3-2-0.4-3c0.4-0.4,0.8-0.8,1.2-1.2c0.5,1.1-0.6,2.5,0.9,3.2c2.1,9.4,2.6,19.6,0.3,28.8   C443.9,417.8,446.1,407.5,444,398.9z" />
	<path fill="#34A45F" d="M467.2,338.6c1.1,1.8,2.9,0.6,4.3,1.1c-6.7,2.7-14.4,1.9-21.8,2c-0.2,0.9-0.4,1.5-0.6,2.1   c-0.4-0.8-0.8-1.7-1.5-2.9C454.5,339.2,460.3,337.9,467.2,338.6z" />
	<path fill="#554755" d="M578.4,476.1c-4.3,0.1-8.7,0.1-13,0.2c3.6,2.1,7,0.1,11,1.7c-6,2.8-13.4,0-19.2-1.5   C563.6,474.5,572,474.5,578.4,476.1z" />
	<path fill="#DAC3B2" d="M764.1,315.1c-3.4,0.1-5.3-2.3-7.6-4.8c0.2-2.8-1.3-6.4,3.5-6.6C758.7,308.3,764.9,310.5,764.1,315.1z" />
	<path fill="#2F2A23" d="M450.1,392.6c1.1,5.3,2.5,10.5,2.2,15.9c-3,3.9,0.7,10.5-2,14.8C451.3,413.2,447.8,402.2,450.1,392.6z" />
	<path fill="#2C231D" d="M460.5,327.8c0.9-1.3,1.7-2.6,2.6-3.8l-0.1-0.1c4.1-4,7.7-8.6,11.7-12.8c0.3,0.4,0.7,0.7,1,1.1   c-2.2,3.6-5.5,6.4-7.5,10.1c0.6,0.3,0.9,0.4,1.2,0.5c-0.7,0.7-1.5,1.3-2.2,2c-0.1-0.2-0.2-0.5-0.3-0.7c-0.2,0.3-0.5,0.5-0.7,0.8   l0,0c-0.4,0.4-0.7,0.7-1.1,1.1l0,0c-0.3,0.2-0.5,0.3-0.8,0.5c0.3,0.2,0.5,0.4,0.8,0.6C463,328.8,462.9,328.9,460.5,327.8z" />
	<path fill="#23252C" d="M554.9,595.9c1.3-6.8-7.7-16-5.2-21.9c4,6.7,5.6,14.7,7.9,21.8C556.7,595.8,555.8,595.9,554.9,595.9z" />
	<path fill="#230F11" d="M734.2,483.6c0.5,1.6-1.1,2.5-2.5,2.1c-7.1-4.2-18.2-1.7-26.3-4C715.2,481.6,724.5,481.9,734.2,483.6z" />
	<path fill="#B9A88D" d="M479.6,309.6c1.8-2.9,3.6-5.8,5.6-9c0.1,0,0.6,0,1.1-0.1c0.2,4.3,0.2,7.2-0.1,12c-1-1.2-1.5-1.7-2-2.3   c-0.1-1-0.3-1.9-0.5-3.1c-1,1.5-1.9,2.8-2.7,4C480.6,310.6,480,310.2,479.6,309.6z" />
	<path fill="#3D2D36" d="M604.8,479.7c-5.6-0.2-12.3-1.5-16-3.2c1.5,0,3.1,0,4.6,0.1c1.6,1.2,2.2,1.2,3.8,0   c5.3,0.5,11.3-1.3,16.1,0.7c-4.4,0-8.7,0-13.1,0c0,0.3,0,0.5-0.1,0.8c1.6,0.2,3.1,0.5,4.7,0.7C604.9,479,604.9,479.3,604.8,479.7z" />
	<path fill="#C8B396" d="M481.7,317.3c-2,3-4.9,4.9-8,6.6c-0.4-0.4-0.8-0.8-1.3-1.2c2.3-3,4.7-5.9,7.1-8.8   C479.8,315.3,480.2,316.7,481.7,317.3z" />
	<path fill="#121418" d="M441.5,459.1c1.5-4.8,3.1-9.6,4.6-14.4c0.3-0.1,0.6-0.2,0.8-0.3c0.1,0.9,0,1.8,1.1,2.2   c-0.7,5-3,9.4-5.4,13.7C442.3,460,441.9,459.5,441.5,459.1z" />
	<path fill="#211B17" d="M426.9,367.1c1.7,4.5,4,8.9,4.2,13.8c-0.8,0.3-1.5,0.6-2.5,1.1c-0.6-1.6-1.1-3-1.6-4.4   C430.6,375.3,423.3,369.3,426.9,367.1z" />
	<path fill="#122C1A" d="M387.6,370.5c2.3-0.1,4.5-0.1,6.7-0.2c2.1-4.6-1.8-9.8,0.7-14.2c3.1,3.1,0.4,10.8,1.2,15.3   C393.4,371,390.1,372.3,387.6,370.5z" />
	<path fill="#CAB6A7" d="M566.8,232.6c-0.3,0-0.7,0-1.3-0.1c-0.6-2.2-1.2-4.4-1.9-6.9c2.2-0.7,4.2-0.6,6.5,0.7   C569.8,228.8,568,230.5,566.8,232.6z" />
	<path fill="#E5D0B2" d="M457.5,335.1c-3.7,1.1-7.2,2.7-11.5,2.2c-0.4-0.8-0.9-1.7-1.4-2.8C449,334,453.8,333.3,457.5,335.1z" />
	<path fill="#23211C" d="M461.7,509.4c-0.3,1.7-0.6,3.4-0.9,5c-0.4,0-0.7,0-1.1,0c-1.7-4.6-2-8.7-0.6-11.4   C461.4,504.6,460.3,507.5,461.7,509.4z" />
	<path fill="#E6D1B3" d="M481.7,317.3c-1.5-0.6-1.9-2-2.1-3.4c1.2-2.5,2.5-4.4,4.2-6.8C484.9,310.8,482.8,313.8,481.7,317.3z" />
	<path fill="#A6957D" d="M407.9,319.4c-0.1-0.3-0.2-0.7-0.3-1c2.7-2.7,5.8,8,9,8.8c0.5,0.3,0.6,1.2,0.8,1.8   C412.4,328.3,410.8,322.9,407.9,319.4z" />
	<path fill="#231915" d="M475.7,318.6c-1,2.7-6.5,5.2-5.3,7.5c-1.5,1.8-2.8,0.3-4.2-0.2c0-0.4-0.1-0.7-0.1-1.1l0,0   c3.5-0.9,5.7-5.2,8.5-7.5C474.9,317.8,475.3,318.2,475.7,318.6z" />
	<path fill="#635749" d="M456.6,392.5c3.2,5.2,1.2,10.9,0.6,16.7C455.6,404.1,457.1,398,456.6,392.5z" />
	<path fill="#3F4752" d="M631.6,480.3c-1.2,0-2.6,1.1-3.3-0.8c0.5-0.1,1-0.1,1.8-0.3c0.9-4.9-0.2-9.7-0.6-14.6   C634,466.2,630.5,476,631.6,480.3z" />
	<path fill="#363129" d="M417.4,329c-1.1-3-4.5-4.2-5.3-7.5c2,0,3.9,0.4,5.2,2c-2.1,1.1,0.9,1.9,2,2   C419.8,327.4,419,328.4,417.4,329z" />
	<path fill="#907D69" d="M426.9,367.1c-3.6,2.1,3.8,8.1,0.1,10.5c-1.1-3.5-2.1-7-3.2-10.5c0.5-0.6,1-1.2,1.7-2   C426,365.9,426.4,366.5,426.9,367.1z" />
	<path fill="#373129" d="M453.2,386.4c0.1-2.3-4.7-12.8,0.1-10.7c0.4,1.7,0.8,3.5,1.2,5.2C452.6,381.9,453.7,384.6,453.2,386.4z" />
	<path fill="#A69F8A" d="M457.5,335.1c-0.8-1.4-2.2-0.4-3.3-1c3.6-1.9,7.8-2,11.6-3.2c0.4,0.4,0.8,0.7,1.3,1.1   C463.9,333.1,460.7,334.1,457.5,335.1z" />
	<path fill="#919179" d="M467.1,332.1c-0.4-0.4-0.8-0.7-1.3-1.1c3.6-1.7,7.2-3.4,10.9-5.1c-0.2,0.7-0.5,1.5-0.7,2.2   C473,329.4,470.1,330.8,467.1,332.1z" />
	<path fill="#728AA3" d="M734.2,483.6c-4.4-1.8-9.6,0.2-13.6-2c4.1-0.9,9.4-1.3,13.6,1C734.2,483,734.2,483.3,734.2,483.6z" />
	<path fill="#1A1B23" d="M416.3,563.2c1.7,0,3.5,0,5.2-0.1c0.4-0.4,0.8-0.7,1.2-1.1c0.7,0.2,1.5,1.5,2.1-0.1   C427.7,565.4,416.7,567.2,416.3,563.2z" />
	<path fill="#F6D9C7" d="M604.8,271.7c0,3.5-2.9,6.2-4.4,9.3c-0.3-1-0.6-1.9-0.9-2.9c1.8-2.1,3.6-4.2,5.4-6.3L604.8,271.7z" />
	<path fill="#1B181C" d="M442.8,556.7c-2.6,1-4.8,3.3-8.4,3.1c2.3-2.9,5.3-3.6,8.2-4.3C442.7,555.9,442.7,556.3,442.8,556.7z" />
	<path fill="#414854" d="M629.2,460.5c-1.8-3-0.4-6.7-0.8-10.5C632.3,453.3,628.6,456.6,629.2,460.5z" />
	<path fill="#5D4B44" d="M487.8,279.3c-0.9,2.5,0.8,4,2.3,5.7c-2.7,1.5-4.2-3.6-5.1-5.4c0.1-0.1,0.2-0.3,0.3-0.5   C486.1,279.2,487,279.1,487.8,279.3z" />
	<path fill="#252322" d="M757.5,447.7c0.7,1.8,1.4,3.6,2.1,5.3c-1.1,0.3-0.9,1.4-1.1,2.2c-0.7-1.8-1.4-3.6-2-5.4   C756.9,449.1,757.2,448.4,757.5,447.7z" />
	<path fill="#61564F" d="M599.5,278.1c1.8,3.6,0.4,5.4-3.5,7.8c1.2-2.2,1.8-3.4,2.4-4.5C598.9,280.3,598.1,278.8,599.5,278.1z" />
	<path fill="#78849C" d="M629.2,460.5c0.1-1.9-0.2-3.8,1.1-5.3c0.1,3.1,0.2,6.3,0.2,9.4c-0.4,0-0.7-0.1-1.1-0.1   C629.3,463.2,629.2,461.9,629.2,460.5z" />
	<path fill="#DAC3B2" d="M760.4,303.8c1.7-0.7,1.3-2.2,1.5-3.5c0.5,0.1,1,0.2,1.8,0.4c-0.3,1.8-0.7,3.6-1.1,5.8   C761.8,305.5,761.1,304.6,760.4,303.8z" />
	<path fill="#7D96B5" d="M363.5,557.8c-2.9-0.3-6.3,1-8.7-0.8C357.7,557,360.7,556.7,363.5,557.8z" />
	<path fill="#153A22" d="M515.9,326.9c-1.4,1.1-2.8,2.1-4.2,3.2c-0.4,0-0.8,0-1.2,0c1.1-1.4,2.2-2.8,3.3-4.2   C514.4,326.2,515.1,326.6,515.9,326.9z" />
	<path fill="#B49D8F" d="M489.3,311c0.4,0.4,0.8,0.8,1.2,1.2c-0.6,1.5-1.1,3.2-3.3,4.5C487.9,314.3,488,312.4,489.3,311z" />
	<path fill="#9E8770" d="M443.7,437c0.2,0.9,0,2,1.2,2.3c-0.9,1-1.7,2-3.3,3.8C442,440.1,442.5,438.4,443.7,437z" />
	<path fill="#306644" d="M408.8,340.5c0.8-0.3,1.6-0.5,2.3-0.8c-0.2,0.6-0.2,1.3-0.2,2c-1.9,0-3.7,0-6.2,0   C406.2,340.2,407.6,340.8,408.8,340.5z" />
	<path fill="#343B34" d="M469.2,473.1c0,1.3,0,2.6,0,4c-2.1,0-2-1.6-2.4-2.7C467.6,474,468.4,473.6,469.2,473.1z" />
	<path fill="#999179" d="M470.4,326.1c-1.5-1.6,1.2-2.3,2.1-3.4c0.4,0.4,0.8,0.8,1.3,1.2C472.6,324.6,471.5,325.4,470.4,326.1z" />
	<path fill="#3A2D29" d="M546.6,250.9c1.1-0.4,2.2-0.8,3.3-1.1c0.7,0.3,1.4,0.7,2.1,1c-1.6,1.2-3.5,1.1-5.3,1.1   C546.6,251.5,546.6,251.2,546.6,250.9z" />
	<path fill="#798BB3" d="M422.8,562.1c-0.4,0.4-0.8,0.7-1.2,1.1c0-1.8,0.1-3.6-1.1-5.2C422.9,557.3,422.4,560.6,422.8,562.1z" />
	<path fill="#6A5A4B" d="M452.4,408.4c0.3,0,0.6,0,0.8,0c0,1.5,0,3.1,0,4.6C452,411.6,452.1,410,452.4,408.4z" />
	<path fill="#615E56" d="M494.6,236.8c-0.6,0.8-1.1,1.5-2,2.8c-0.8-2.1-0.3-3.1,0.9-3.9C493.9,236,494.3,236.4,494.6,236.8z" />
	<path fill="#3A2C24" d="M418.6,321.4c1.6,0,1.9,1,1.9,2.3c-0.4,0.4-0.8,0.8-1.2,1.2c-0.3-0.4-0.6-0.8-0.9-1.2   C418.4,323,418.5,322.2,418.6,321.4z" />
	<path fill="#90A2C4" d="M597.3,476.5c-1.6,1.2-2.3,1.2-3.8,0C594.8,476.5,596,476.5,597.3,476.5z" />
	<path fill="#677B94" d="M446.9,444.4c-0.3,0.1-0.6,0.2-0.8,0.3c-0.5-0.5-0.9-0.9-1.4-1.4c0.5-0.6,1-1.3,2.1-2.6   C446.9,442.6,446.9,443.5,446.9,444.4z" />
	<path fill="#ABA78B" d="M418.4,323.7c0.3,0.4,0.6,0.8,0.9,1.2c-0.1,0.2-0.1,0.5,0,0.7C417.2,325.8,415.1,323.3,418.4,323.7z" />
	<path fill="#34A45E" d="M463.1,338.5c-1.6,0-3.1,0-4.7,0C460,337.1,461.5,337.2,463.1,338.5z" />
	<path fill="#DAC3B2" d="M764.9,318.4c-1.6-0.8-1.1-2.1-0.9-3.3C765.2,316,765,317.2,764.9,318.4z" />
	<path fill="#313837" d="M483.1,320.3c0.7-0.7,1.1-1.2,1.5-1.6C485.3,320.2,484.8,320.5,483.1,320.3z" />
	<path fill="#625446" d="M436.2,444.5c0.4,0,0.8,0,1.2,0c-0.4,0.7-0.8,1.3-1.3,2C435.2,445.6,435.3,445,436.2,444.5z" />
	<path fill="#E1C7B6" d="M573.2,311.1c0.3-1.1,1.1-1.2,2-1.1C574.5,310.3,573.8,310.7,573.2,311.1z" />
	<path fill="#181B22" d="M430,457.2c0.4-0.7,0.7-1.4,1.1-2.1c0,0.7,0,1.4,0,2.1c0,0,0,0,0,0C430.7,457.2,430.4,457.2,430,457.2z" />
	<path fill="#252322" d="M755.3,446.8c-0.3-0.8-0.7-1.5-1-2.3C755.5,444.9,755.5,445.8,755.3,446.8z" />
	<path fill="#252322" d="M756.5,444.5c0.3,0.7,0.6,1.5,0.8,2.2C756.4,446.2,756.3,445.4,756.5,444.5z" />
	<path fill="#E9D88E" d="M512.8,294.2c-0.2-1-0.2-1.9,1-2.2C513.5,292.7,513.1,293.4,512.8,294.2z" />
	<path fill="#D6BF9F" d="M451.1,356.6c-1.1-0.4-1-1.3-0.9-2.2C450.5,355.1,450.8,355.8,451.1,356.6z" />
	<path fill="#907D69" d="M422.6,364c1,0.5,1.2,1.3,0.9,2.3C422.6,365.8,422.5,364.9,422.6,364z" />
	<path fill="#181B22" d="M431.9,457.2c-0.3,0.4-0.6,0.7-0.8,1.1c0-0.3,0-0.7,0-1l0,0C431.4,457.2,431.7,457.2,431.9,457.2z" />
	<path fill="#F6D9C7" d="M604.9,271.8c0.1-0.1,0.2-0.2,0.3-0.3c-0.1,0.1-0.3,0.2-0.4,0.3C604.8,271.7,604.9,271.8,604.9,271.8z" />
	<path fill="#3A2C24" d="M420.5,323.8c0.4,0,0.7,0,1.1,0c-0.2,0.3-0.3,0.5-0.5,0.8C420.9,324.3,420.7,324,420.5,323.8z" />
	<polygon fill="#F6D9C7" points="606.5,268.5 606.4,268.1 606.7,268.1  " />
	<path fill="#34A45E" d="M395.1,333.5c-0.4,0.3-0.8,0.5-1.3,0.8C394.2,334,394.7,333.7,395.1,333.5z" />
	<path fill="#35A65F" d="M614.6,314.1c-0.4-0.2-0.8-0.5-1.2-0.7C613.8,313.6,614.2,313.8,614.6,314.1z" />
	<path fill="#252322" d="M755.6,442.1c0.2,0.5,0.4,0.9,0.7,1.4C756,443,755.8,442.5,755.6,442.1z" />
	<path fill="#ECD9B9" d="M441,334.1c0.2,0.1,0.5,0.1,0.7,0c0,0.4,0.1,0.8,0.1,1.2c-0.4,0-0.7,0.1-1.1,0.1   C440.8,335,440.9,334.5,441,334.1z" />
	<path fill="#615547" d="M466.1,324.8c0,0.4,0.1,0.7,0.1,1.1c-0.4,0-0.8,0-1.2,0C465.4,325.5,465.7,325.2,466.1,324.8z" />
	<path fill="#252322" d="M756.2,449.1c-0.2-0.5-0.4-1-0.7-1.4C755.8,448.2,756,448.7,756.2,449.1z" />
	<path fill="#615547" d="M465,326.9c-0.3-0.2-0.5-0.4-0.8-0.6c0.3-0.2,0.5-0.3,0.8-0.5C465.2,326.2,465.1,326.6,465,326.9z" />
	<path fill="#3A2C24" d="M421.5,323.7c0.4-0.3,0.7-0.6,1.1-0.9C422.3,323.1,421.9,323.4,421.5,323.7z" />
	<path fill="#F6D9C7" d="M414.2,96c0.8-0.4,1.5-0.7,2.8-1.3c-13.7,36.4,0.8,75.1-7,112.1c4,10.6,5.1,22.2,7.1,33.4   c-9.5,7.8-12.7,20-17.6,30.7c-15.1-5.7-5-62-14.8-68c0-0.8,0-1.6,0-2.5c1.3,0.2,2.3,0.4,3.4,0.6c1-1.1,1.9-2.1,3.1-3.3   c-11.4-36.2,10-69.4,5-104.8c3.4,0.6,4.9-3.3,8.4-1.9c3.9,2.8,7.8-1.4,11.5-2.8c3.8-8.5-0.5-17.4-0.9-26c2.6-1.7,5.2-3.3,8.1-5.2   c0.7,0.3,1.6,0.6,2.6,1c-3,2.6-5.6,6.4-4.2,10.5c1,4.4-0.4,8.5,3.8,11.8c0.7-6.4-4.3-12.6-0.2-18.6c1.1,1,2,1.8,2.9,2.5   c-0.4,0.7-0.7,1.5-1.1,2.3c1.1,1.9,4.4-0.4,5,2.2c2.6,11.5-5.6,16.7-13.6,23.3c-0.3,0-1.1,0.1-2.1,0.3c-1.1,1.2-2.3,2.5-3.4,3.8   c-1.1,0.1-1.9,0.5-1.4,2C412.8,98,413.6,97.2,414.2,96z M398.1,184.8c-2.5,3.9-5,7.7-5.1,13.1c4.5-2.4,6.1-9.2,6-13.9   C398.7,184.3,398.4,184.5,398.1,184.8z M410.4,104c1.9-1.9,1.9-1.9,0.9-3.4C410,101.5,409.6,102.5,410.4,104z M401.8,166.9   c0.5-1.7,1.8-2.7,0.9-4.1C401.3,163.5,401.3,163.5,401.8,166.9z M399.9,171.1c-1,2.2-1.3,3.7-0.1,5.1   C400.9,174.8,400.6,173.3,399.9,171.1z M402.3,192.6c-0.4,1.7-0.4,1.7,1.7,2.7C403.2,194,402.8,193.3,402.3,192.6z M408.9,107.3   c-0.3,0.8-1.4,1.4-0.7,2.1C409,108.6,410.2,108.7,408.9,107.3z M398.8,180.9c-0.5,0.6-0.6,1-0.2,1.7   C399.3,182,399.6,181.5,398.8,180.9z" />
	<path fill="#4C505E" d="M288,81.1c-10.3,136.8-57.1-29.4-20.7-65.5c1.2,0,2.6,0,4.2,0c12.6,12.2,14.1,32.9,15.4,49.6   c-2.1,0-4.1,0-6.2-0.1c-0.2-3.8-1.1-7.2-3.7-10.3c-2.4,0-4.8,0-7.4,0c-5.8,8.1-8.1,41.3,8.6,35.4c1.4-2.9,2.8-5.9,3.5-9.1   C283.8,81.1,285.9,81.1,288,81.1z" />
	<path fill="#E0C6B5" d="M384.6,202.8c9.8,6-0.3,62.3,14.8,68c-2.2,9.1-3.4,20.2,1,28.6c0,0-0.1-0.1-0.1-0.1c0,4.2-0.7,8.3,2,12   c0.1,1,0.9,1.9,1.2,3l0,0c-0.2,0.8,0.4,1.9-1,2.1C380.5,291.7,385.6,234.9,384.6,202.8z" />
	<path fill="#E1C7B6" d="M401.5,90.6c-1.8,0.8-3,2.9-5.4,2.2c-3.7-7.6-7.3-14-6.3-22.3c6.9-3.5,14.7-2.1,22-3.7   c0.1-1.8,0.2-3.4,0.3-4.9c0.3,0.1,0.5,0.2,0.7,0.4c0.5,2.1-0.8,5,0.8,6.6c0.6-1,1-1.8,1.5-2.7c2.8,6.9,3.3,15,0.9,21.9   c-3.7,1.4-7.6,5.6-11.5,2.8c1.2-0.2,2.4-0.4,3.6-0.6C405.9,89.7,403.3,88.6,401.5,90.6z" />
	<path fill="#E0C6B5" d="M384.6,202.8c-0.1,9.4-0.1,18.7-0.3,28.1c-2.4-9.5,0.2-19.3-0.9-28.9c-1.8-11.6-5.1-23.3-2.2-35.1   c6.2-23.9,13.7-47.4,14.7-72.2c5.2,35.1-16.6,64.9-4.9,102.9c-1.1,1.2-2.1,2.2-3.1,3.3c-1.1-0.2-2.1-0.4-3.4-0.6   C384.6,201.2,384.6,202,384.6,202.8z" />
	<path fill="#91A2C4" d="M275.2,73.7c0-1.3,0.1-2.7,0.1-4.3c37.1-1.4,74.1-3.1,111.2-1.7c-0.2,1.4-0.3,2.5-0.4,3.9   C349,71.7,312.3,73.6,275.2,73.7z" />
	<path fill="#798AB1" d="M275.2,73.7c37.1-0.1,73.8-2,110.9-2.1c0.1-1.4,0.3-2.5,0.4-3.9c-1.3-0.2-2.3-0.3-3.3-0.5   c1.2-1.1,2.6-0.8,4.3-0.6c-0.1,3,0.5,6-1.2,8.9c-36.7,0.7-73.4,1.5-110,2.2C274.9,76.5,275.1,75.1,275.2,73.7z" />
	<path fill="#EFD4C3" d="M412.1,61.8c-0.1,1.6-0.2,3.1-0.3,4.9c-7.3,1.6-15.2,0.2-22,3.7c0-1.7,0-3.4,0-5.1   c3.8-1.7,5.6-2.9,10.2-3.3c1.4-0.7,3.2-3,6.5-3.3c0.1,0.9,0.2,1.5,0.3,2.2c-2.7,0.8-2.3,2.8-1.9,5.1c2-1.5,2.4-3.1,1.8-5.1   c2.3-0.2,4.3-1.1,6.3-2.2c0.3,0.3,0.7,0.6,1,0.9C413.4,60.3,412.8,61.1,412.1,61.8z M396.6,65.6c1,0.2,1.9-1.7,0.7-1.5   C396.5,64.2,396.1,64.7,396.6,65.6z" />
	<path fill="#1C1D21" d="M266.7,61.9c-0.1-2.8,1.4-5,2.9-7.2c2.6,0,5,0,7.4,0c2.6,3.1,3.6,6.6,3.7,10.3c-2.3,1.7-5,1.1-7.6,1.2   c1.4-1.8,3.8-0.2,5.5-1.9c-0.4-2.8-1-5.6-3.6-7.8c-5.5,7.1-2.3,15.3-3.1,23.4c-0.3,0-0.6,0-0.9,0c-2.9-7.7-0.1-15.3,0.6-23.8   c-3.1,2.8-3.2,5.9-3.9,8.9C266.3,64.4,267,63,266.7,61.9z" />
	<path fill="#141417" d="M271,80c0.3,0,0.6,0,0.9,0c1.7,3.5,1.5,6.9,4.7,8.3c1.9-2,2.4-4.5,2.7-7.2c0.8-0.1,1.6-0.1,2.3-0.2   c-0.6,3.2-2,6.3-3.5,9.1c-4.7,1.9-9.8,1.1-10.4-4.8c0.3-0.7,0.7-1.4,1-2.1c0.8,2.2,1.3,4.7,3.9,5.9C272.1,86,271.6,83,271,80z" />
	<path fill="#8394B1" d="M279.3,81.2c-0.3,2.6-0.8,5.1-2.7,7.2c-2.6-1.8-2.6-1.8-3.6-6c0.4-0.8,0.7-1.5,1.1-2.3   C275.7,81.1,277.4,81.3,279.3,81.2z" />
	<path fill="#25201D" d="M418.4,323.7c-0.4,0-0.7-0.1-1.1-0.1c-1.4-1.6-3.2-2.1-5.2-2c-1.2-0.8-3.2-5.6-4.5-3.2   c-1.5-1.4-2.1-3.2-2-5.2c2.2,1.7,4.3,3.6,6.6,5.1c0.8,0,1.3,0.8,2,1.1l0,0c0.8,1.8,3.1,0.5,4.4,2l0,0   C418.5,322.2,418.4,323,418.4,323.7z" />
	<path fill="#6B768B" d="M274.1,80.1c-0.4,0.8-0.7,1.5-1.1,2.3c-2.3-4.4,0.1-9.6-1.7-14.4c-0.1-0.5,0.5-1.2,0.7-1.8   c0.6,0.1,1.1-0.1,1.7,0C272.7,70.9,272.9,75.5,274.1,80.1z" />
	<path fill="#25201D" d="M402.3,311.3c-1.9-3-2.7-6.3-1.9-9.8c0.3,0,0.5,0,0.8,0c0.7,2.5,1.5,5,2.2,7.4   C403.1,309.7,402.7,310.5,402.3,311.3z" />
	<path fill="#25201D" d="M402.5,316.3c1.4-0.2,0.8-1.3,1-2.1c1.4,0.6,1.2,2.5,1.7,3.8C403.5,318.5,402.9,317.5,402.5,316.3z" />
	<path fill="#25201D" d="M403.5,314.2c-0.3-0.7-0.6-1.4-0.9-2.2C403.6,312.5,403.6,313.3,403.5,314.2z" />
	<path fill="#25201D" d="M404.7,311.9c0.3,0.4,0.6,0.8,0.8,1.3C405.3,312.7,405,312.3,404.7,311.9z" />
	<path fill="#25201D" d="M403.7,309.7c0.2,0.4,0.4,0.9,0.7,1.3C404.1,310.6,403.9,310.1,403.7,309.7z" />
	<path fill="#91A2C4" d="M434.5,68.4c-0.7-1-1.3-2-2-3.1c55.7-0.8,111.4-2.6,167.1-3.1c0,0.9,0,1.4,0,1.9c-0.6,1-1.2,2-2,3.2   c-53.8,0.1-107.4,2.5-161.2,3.2C435.6,69.6,435.1,69,434.5,68.4z" />
	<path fill="#798AB2" d="M434.5,68.4c0.6,0.6,1.1,1.3,1.9,2.1c53.8-0.7,107.3-3.1,161.2-3.2c0.7-1.2,1.3-2.2,2-3.2   c0.4,1.9,0.7,3.7,1.1,6c-55.2,2.3-110.5,2.1-165.7,4.1C434.8,72.1,434,70.3,434.5,68.4z" />
	<path fill="#0D0F12" d="M430.2,506c2.4-6,0.2-13.7,0.9-20.6c0.8-0.2,1.4-0.4,2-0.6c0,25.5,0.9,52.5-1,77.3   c-0.4-0.4-0.8-0.9-1.2-1.3C430.6,542.6,429.3,524.3,430.2,506z" />
	<path fill="#210D0F" d="M525.1,570.7c-4.5-0.1-8.9-0.1-13.4-0.2c-0.1-0.3-0.1-0.5,0-0.8c11.6,0.9,24.5-1.9,35.5,0.9   C539.9,570.7,532.5,570.7,525.1,570.7z" />
	<path fill="#2A161A" d="M479.5,566.5c-8.7,1.9-20.1,1.2-29.2,0.3C460.3,565.9,469.8,566.1,479.5,566.5z" />
	<path fill="#081216" d="M525.1,570.7c7.4,0,14.8,0,22.2-0.1c0.3,0.2,0.4,0.5,0.3,0.9C540.2,571,532.2,572.7,525.1,570.7z" />
	<path fill="#27242C" d="M430.9,560.8c0.4,0.4,0.8,0.9,1.2,1.3c0.4,1.9,0.4,1.9,3.1,2.3c-0.7,1.5-2.1,0.7-3.2,1.1   c-0.9-0.5-1.9-0.9-2.8-1.4C428.8,562.5,430,561.8,430.9,560.8z" />
	<path fill="#47546B" d="M432,565.5c1.1-0.4,2.5,0.4,3.2-1.1c2.5-0.4,3.6,0.7,6.4,1.9C438,566.1,434.9,567.4,432,565.5z" />
	<path fill="#798BB3" d="M557.2,594c-1.2-0.8-0.9-2.1-0.8-3.2C557.7,591.6,557.2,592.8,557.2,594z" />
	<path fill="#4C505E" d="M791.5,92.8c-0.6,22.1-15,47.9-25.5,12.3c-6.7-23.2-8-47.9-4.4-71.8c1.2-7.6,5.5-35.7,17.2-27.4   c-0.4,0.4-0.8,0.7-1.1,1.1c-0.8,0-1.7,0-3.6,0c6.8-0.1,20.6,51.8,12.2,46.5c0.5-5.7-4.2-12.5-10.2-10.2c-7,6.4-5.8,22-2.5,30.4   c-1.6,9.9-9.8,21.9-4.2,31.8c3.2,5.8,9.2,2.5,10.8-2.5c10.7-0.8,0.6,9.3-0.3,14.1c-1.4,0-2.8,0-4.2,0c-0.2-0.3,0-1.1-0.7-0.4   c2.6,1.9,2.5,4,5,0.5c6.8-2.9,8.5-18.5,10.7-25.4C790.8,92.1,791.1,92.4,791.5,92.8z" />
	<path fill="#90A2C4" d="M780.8,64.1c-0.5-1.9-0.5-3.8,0.4-5.9c33-1,65.9-1.9,99-1.3c0,1.7,0,3.1,0,4.4c-32-0.7-64.4,2.7-96.4,0.8   C782.9,62.8,781.9,63.4,780.8,64.1z" />
	<path fill="#7989B0" d="M780.8,64.1c1-0.7,2-1.4,3-2c32,1.9,64.4-1.5,96.4-0.8c0-1.3,0-2.6,0-4.4c-7.2-0.1-14.2-0.2-21.2-0.3   c7.2-1.3,14.9-1,22.2-0.5c0,2.6,0,5.1,0,7.8c-33.1,2.7-66.7,1.2-100,2.5C781.1,65.4,780.9,64.8,780.8,64.1z" />
	<path fill="#030303" d="M784,103.3c-1.2-0.1-2.4-0.2-4-0.3c-1.6,5-7.7,8.3-10.8,2.5c-5.7-10,2.5-21.9,4.2-31.8   c0.4-0.4,0.7-0.7,1.1-1.1c1.1,0.3,1.8-0.2,2.1-1.2c0.6-0.1,1.1-0.3,2.1-0.5c-2,7-14.5,30.5-3.8,33.8c4.3-9.5,3.5-19.9,3.8-30   c0.7-1.1,1.1-2.6,2.8-2.7c0.4,2,1.4,5.7,2.8,1.7c1.8-1.2,0.4-3-0.4-4.3c0.8,0,1.6,0,2.5,0c0,3.2-0.8,6.2-1.9,8.9   c1,2.7,2,5.1,2.9,7.6c-2.9,5.9-0.3,12.4-0.2,18.4c-0.5-0.8-1-1.7-1.6-2.8C785,102.1,784.5,102.7,784,103.3z M780.6,99.7   c4.8,0.5,2.7-3.4,2.8-6.1c-1.4-4.1,2.4-8.7-1.4-11.9C781.6,87.6,781.1,93.5,780.6,99.7z" />
	<path fill="#71819F" d="M777.7,74.7c0.3-1.1,0.6-2.2,1-3.8c-0.9,0.2-1.5,0.4-2.1,0.5c-0.3-1.8-0.6-3.7-0.9-5.5   c2-2.8,0.5-7.3,0.5-11.9c-1.4,4-0.5,7.1-0.9,10.1c-2.4-2.1,0.7-5.7-1.9-7.4c0-3.3-0.1-6.7,2.2-9.5c0.3,1,1.1,1,1.9,0.9   c-0.7,1.2-0.9,2.1,0.1,3.2c0.4,1.4-0.7,3.2,1,4.3c0.6,4.9-1.2,10.2,2.3,14.4c0.9-0.2,1.9-0.3,2.9-0.5c0.4,0.7,0.8,1.3,1.2,2   c-1.4,0.7-0.5,2.1-1,3.2c-0.7-0.4-1.3-0.7-2-1.1c-0.2-0.5-0.4-0.9-0.6-1.5c-1.8,0.1-2.1,1.6-2.8,2.7   C778.3,74.7,778,74.7,777.7,74.7z" />
	<path fill="#202127" d="M775.6,47.2c-4.1,7.5-2.5,17.2-1.2,25.4c-0.4,0.4-0.7,0.7-1.1,1.1c-3.2-8.3-4.4-24,2.5-30.4   c6.1-2.3,10.8,4.5,10.2,10.2c-0.8,0.3-1.5,0.6-2.3,1C785.2,49.7,780.5,41.6,775.6,47.2z" />
	<path fill="#414551" d="M786.2,94.7c0.1-2.9-0.7-6,1.1-8.8c-1-2.5-1.9-4.9-2.9-7.6c1-2.7,1.9-5.7,1.9-8.9c1.2,0.1,2.3,0.1,3.9,0.2   c1.1,8.6-2.2,16.3-2.2,24.8C787.2,94.6,786.7,94.7,786.2,94.7z" />
	<path fill="#8A9CBC" d="M776.5,46c6-2.6,8,4.1,7.3,8.5c-1.8,0.3-3.8-0.6-5.3,1.1c-1.7-1.1-0.6-2.9-1-4.3c0.2-1.4,2.6-2,1.7-4.3   c-1.2,0.9-2.9,2.1-3.7,0.2C775.9,46.8,776.2,46.4,776.5,46z" />
	<path fill="#101114" d="M786.2,94.7c0.5-0.1,1-0.2,1.7-0.3c0.4-5.2,0.4-10.6,2.4-15.5c0.3,0,0.6,0,0.9,0   c-0.4,8.2-0.6,17.1-4.1,24.5C787.2,100.5,785.4,97.8,786.2,94.7z" />
	<path fill="#40444F" d="M790.5,91.7c1.1-7.2-0.3-15.6,2-22.4c3.4,7.5-1.1,15.5-0.1,23.3c-0.3,0-0.7,0.1-1,0.1   C791.1,92.4,790.8,92.1,790.5,91.7z" />
	<path fill="#4C505E" d="M744.8,67.3c2.3-9-0.5-18.8,2.1-27.6c4,0.5,7.6-2.3,11.7-1c-0.9,19.2,0.8,38.2,1.7,57.1   c-3.9,0-7.6,0-11.2,0C746.8,86.6,747.5,75.7,744.8,67.3L744.8,67.3z" />
	<path fill="#90A2C4" d="M743.6,59c0,2.1,0.1,4.1,0.1,6.2c-29.1-2.4-62.4,0.4-92.3,1.2l0,0c-1-1.9-3.6-2.5-2.7-5.2   C680.2,59.8,712,59.9,743.6,59z" />
	<path fill="#7A8BB2" d="M651.4,66.4c29.8-0.8,63.2-3.6,92.3-1.2c0,0.7,0,1.4,0,2.1c-30.5,0.8-61,1.6-91.9,2.4   C651.6,68.3,651.5,67.3,651.4,66.4z" />
	<path fill="#B69285" d="M634.7,55.6c-1.3-0.9-2.5-1.7-4.3-2.9c2.5-0.2,4.3-0.6,5.8,1c-0.6,0.7-1.1,1.3-1.6,1.9L634.7,55.6z" />
	<path fill="#010000" d="M644,91.7c0-1.1,0.1-2.1,0.1-3.2C645.5,89.9,645.5,90.4,644,91.7z" />
	<path fill="#232529" d="M744.8,67.3c1.1,0.4,1.1,1.3,0.9,2.2C745.4,68.8,745.1,68,744.8,67.3z" />
	<path fill="#7A8BB2" d="M650.6,65.2c0.3,0.4,0.5,0.8,0.8,1.2C651.2,66,650.9,65.6,650.6,65.2z" />
	<path fill="#373A46" d="M749.1,95.8c3.6,0,7.2,0,11.2,0c0.2-1.2,0.3-2.2,0.4-3.1c2.9,10.8,5,22.2,12.3,31.5   C755.9,128,752.6,108,749.1,95.8z" />
	<path fill="#373A46" d="M749.1,23.9c1.9-9.9,6.8-24,19.7-19.3c-4.5,6-5.9,13.6-8.1,20.4c-0.1-1-0.2-2-0.4-3   C756.3,22.7,752.5,22,749.1,23.9z" />
	<path fill="#373A46" d="M758.6,38.7c-4-1.2-7.7,1.5-11.7,1c-0.2-2.9,0-5.7,1.1-8.5c4.1-0.1,7.6-2,11.6,0   C759.4,33.8,760.3,36.6,758.6,38.7z" />
	<path fill="#4B4F5D" d="M759.6,31.3c-4-2-7.5-0.1-11.6,0c-0.3-2.5,0.6-4.9,1.1-7.4c3.4-1.8,7.3-1.2,11.3-1.9   C761.1,25.1,760.1,28.1,759.6,31.3z" />
	<path fill="#232529" d="M759.6,121.3c0.4,0.3,0.7,0.7,1.1,1C760.4,122,760,121.7,759.6,121.3z" />
	<path fill="#90A2C4" d="M238.3,70.5c-0.1,1.4-0.2,2.8-0.2,4.2c-27.4-1.6-55.5,4.1-82.3,0.5c-0.1-1-0.2-1.8-0.2-2.7   C182.3,70.2,211.2,70.3,238.3,70.5z" />
	<path fill="#798AB1" d="M155.5,72.5c0.1,0.9,0.1,1.7,0.2,2.7c26.8,3.6,54.9-2.1,82.3-0.5c0,1.4-0.1,2.7-0.1,4.1   c-27.3,0.5-54.5,1-81.8,1.5c-0.7-0.9-1.2-1.6-1.7-2.3C154.7,76.1,153.7,74,155.5,72.5z" />
	<path fill="#4C505E" d="M244.7,111.8c-4.3-20.4-6-41.7-3.3-62.5c3.7,0.6,8.8-1.4,11.7,1.1c-0.4,21-0.5,41.9,4.2,62.5   C253,112.8,248.7,113.5,244.7,111.8z" />
	<path fill="#373A46" d="M244.7,111.8c4,1.7,8.4,1,12.6,1.1c2.9,7.9,4.9,15.8,10.5,22.3c-11.4,1.7-14.6-3.1-20-11.7   c0-0.7,0-1.4,0-2.1C245.7,118.7,245.5,114.9,244.7,111.8z" />
	<path fill="#373A46" d="M253.1,50.4c-2.9-2.5-8-0.5-11.7-1.1c-0.4-3.3,1.3-6.2,1.1-9.6c3.7,1.6,7.8,0.6,11.6,2.2   C254.1,44.7,254.7,47.8,253.1,50.4z" />
	<path fill="#373A46" d="M256.2,43.9c0,1.2,0.5,2.5-0.9,3.3c0-1-0.1-2.1-0.1-3.1C255.5,44,255.9,44,256.2,43.9z" />
	<path fill="#373A46" d="M248.8,20.7c1.5-1.7,3-3.4,4.4-5.1c3.5-0.2,6.8-0.3,10.2-0.5c-4,6.4-6.1,13.5-8.2,20.5   c-0.3-0.7-0.6-1.5-1.1-2.9c-3.3,2.8-6.4,1.6-9.6,0.7C244.3,28.7,247,24.7,248.8,20.7z" />
	<path fill="#4B4F5D" d="M244.5,33.4c3.2,0.9,6.3,2.2,9.6-0.7c1.2,2.5,1.2,3.6,0.9,6c-1.4,0.8-0.8,2.1-0.9,3.2   c-3.8-1.5-7.8-0.5-11.6-2.2c0-0.3,0-0.7,0-1C244.7,37.6,242.3,34.6,244.5,33.4z" />
	<path fill="#25272C" d="M241.5,96.8c1.8,4.1,1.7,9.4,3,14c-0.4,0.4-0.8,0.8-1.2,1.2c-1.7-2.8-1.5-6.1-3-9.1   c-0.1,3.7-0.1,7.3-0.2,11c-1.8-3.9-0.6-8.5-0.9-12.7C241.4,100.5,241.5,98.7,241.5,96.8z" />
	<path fill="#373A46" d="M243.5,36.5c0.1,0.9,0,1.7-0.9,2.2C242.5,37.8,242.4,37,243.5,36.5z" />
	<path fill="#373A46" d="M254.1,41.9c0.1-1.1-0.4-2.4,0.9-3.2C255.1,39.8,255.6,41.2,254.1,41.9z" />
	<path fill="#48443F" d="M415.1,66.1c-0.5,0.8-1,1.7-1.5,2.7c-1.6-1.6-0.3-4.5-0.8-6.6c0.8-0.1,1.5-0.1,2.3-0.2   C415.1,63.4,415.1,64.7,415.1,66.1z" />
	<path fill="#8B8B80" d="M414,59.6c-0.3-0.3-0.7-0.6-1-0.9c1-1.3,2.4-1.6,4.4-1.9C416.5,58.5,415.3,59.2,414,59.6z" />
	<path fill="#6F80A4" d="M240.2,114c0.1-3.7,0.1-7.3,0.2-11c2,5.6,3.5,11.2,4.6,17C241.3,122,241.1,116.2,240.2,114z" />
	<path fill="#131417" d="M246.7,120.2c0.3,0.4,0.6,0.8,0.9,1.2C247.4,120.9,247.1,120.6,246.7,120.2z" />
	<polygon fill="#797269" points="428.5,61.2 428.6,61.6 428.3,61.5  " />
	<path fill="#171110" d="M733.4,328.8c-9.1-5.6-20.6-4.6-30.3-9.1c0.5-0.3,0.9-0.7,1.4-1c6,1.8,36,2.8,32.6,11.2   C735.9,329.5,734.7,329.2,733.4,328.8z" />
	<path fill="#241F1D" d="M751.3,412.6c2.1,1.5,4.2,3,6.1,4.4c-0.1,1-0.1,1.5-0.2,2c-1-0.1-1.9-0.2-2.9-0.3c-1.5-1.6-3-3.2-4.5-4.8   C750.4,413.4,750.9,413,751.3,412.6z" />
	<path fill="#6F5F58" d="M782.7,458.5c-1.7-1.8-2.3-3.8-1.5-6.3C784,454,782.8,456.4,782.7,458.5z" />
	<path fill="#4B413C" d="M786.3,469.6c1.9,2.5,2.5,4.4,1.3,7C786.1,474.1,786.1,474.1,786.3,469.6z" />
	<path fill="#635A53" d="M744.8,337.5c1.4,1.7,1.3,3.7,0.6,6.4c-0.7-2.6-2.3-4.1-1.5-6.4C744.2,337.5,744.5,337.5,744.8,337.5z" />
	<path fill="#81736A" d="M784.6,465.4c-2-1.1-1.8-2.7-1.6-5.1C784.5,462.2,785.7,463.3,784.6,465.4z" />
	<path fill="#BDA699" d="M778.3,439.7c0.2,1.5,0.4,2.2,0.7,4.1C776.9,441.5,776,442.1,778.3,439.7z" />
	<path fill="#9E8279" d="M744.8,337.5c-0.3,0-0.6,0-0.9,0c-0.4-1.1-0.8-2.2-1.2-3.3l-0.1,0.1C744.1,334.8,745,335.8,744.8,337.5z" />
	<path fill="#3F3733" d="M740.6,333.2c-0.4-2.1,0.6-2.5,2-1c0,0.7,0,1.4-0.1,2l0.1-0.1C742,333.9,741.3,333.6,740.6,333.2z" />
	<path fill="#5D433E" d="M779,449.4c0-0.9,0-1.6,0-2.5C780.2,447.7,780.5,448.4,779,449.4z" />
	<path fill="#7081A6" d="M433.4,486.9c-0.1-3.3-1-6.8-0.1-9.6l-0.1,0.1c0.4,0,0.7,0,1-0.2C433.9,480.5,435.2,484.1,433.4,486.9z" />
	<path fill="#373946" d="M441.5,459.1c0.4,0.4,0.8,0.8,1.2,1.3c-1.7,2.4-1.7,4.2-5.3,4.7C439.3,462.4,440,461.4,441.5,459.1z" />
	<path fill="#D7C4B3" d="M537.1,287.9c0.3,0.6,0.6,1.3,1,2.1c-2.6,3.3-7.9,1.4-11.6,1.8c-1.7-0.4-3.7-4.2-0.9-5   C526.7,291.9,533.9,289.2,537.1,287.9z" />
	<path fill="#2C2623" d="M628.3,193.3c-0.3-4.2,0.7-7.9,2.5-11.8C632.9,185,633.1,193.7,628.3,193.3z" />
	<path fill="#2B2421" d="M545.6,301.5c0,0.5,0,1,0,1.6c-3.2,0.9-5.9,0.5-8.2-2.3c0.3-0.7,0.6-1.4,0.9-2.2   C541.2,298.2,543.1,300.5,545.6,301.5z" />
	<path fill="#2A201D" d="M537.1,287.9c-3.3,1.4-10.5,4-11.5-1.1c3.4-0.2,6.8-0.3,10.2-0.3c0.4,0.4,0.8,0.8,1.2,1.2L537.1,287.9z" />
	<path fill="#2E211F" d="M548.5,279.6c-1.5,2.9-2.7,6.3-7.2,5.9C544.3,281.6,544.7,281.3,548.5,279.6z" />
	<path fill="#2B211E" d="M630.2,96.7c-1.4-2.3-1.2-5.8-2.1-8.8c0.9-0.2,1.5-0.3,2.1-0.4C632,90.4,630.6,93.6,630.2,96.7z" />
	<path fill="#3E322E" d="M546.6,250.9c0,0.3,0,0.7,0.1,1c-2.5,1.7-4.9,3.5-7.4,5.2c-0.4-0.4-0.8-0.8-1.2-1.2   C540.6,253.7,543.4,251.9,546.6,250.9z" />
	<path fill="#291F1D" d="M638.6,89.2c-0.5,0.1-1,0.1-1.6,0.2c-1.2-1.9,0-3.8,0.4-5.7C638.3,85.5,638.9,87.2,638.6,89.2z" />
	<path fill="#86756C" d="M538.1,255.9c0.4,0.4,0.8,0.8,1.2,1.2c-1.3,1.4-2.9,2.2-4.7,2.7C535.3,258.1,536.4,256.7,538.1,255.9z" />
	<path fill="#2C2926" d="M549.7,294.2c-0.6-0.9-1.2-1.9-1.8-2.8c0.5-0.4,0.7-0.7,1.1-1c1.3,0.3,1.5,1.5,2,2.5   C550.5,293.3,550.1,293.7,549.7,294.2z" />
	<path fill="#B4A093" d="M629.6,166.8c1.1,1.9,2.3,3,1.6,4.7C629.4,170.5,629.4,170.5,629.6,166.8z" />
	<path fill="#B4A093" d="M635.2,175.7c0.8,1.6,0.5,2.7-1.1,3.6C633,177.5,633.7,176.6,635.2,175.7z" />
	<path fill="#786C64" d="M627.5,160c0.4-0.1,0.9-0.3,1.6-0.5c0.1,1.2,0.2,2.3,0.4,4.1C627.8,162.4,627.5,161.3,627.5,160z" />
	<path fill="#6F6058" d="M629.1,102.3c0.4-0.4,0.9-0.8,1.3-1.2c0.5,1.2,1.3,2.4,0.3,4.3C630.1,104.2,629.6,103.3,629.1,102.3z" />
	<path fill="#4E423C" d="M638.8,80.1c-0.6-0.2-1.2-0.3-1.8-0.5c0.2-1.6,0.3-3,1.8-3.7C639,77.3,639,78.7,638.8,80.1z" />
	<path fill="#867970" d="M549.7,294.2c0.4-0.4,0.8-0.8,1.2-1.2c0.6,0.9,1.1,1.9,1.7,2.9C550.7,296.3,550.2,295.2,549.7,294.2z" />
	<path fill="#282421" d="M630.8,174.7c0.9,1.6,1.3,3,0.1,4.9C629.8,177.8,629.8,176.4,630.8,174.7z" />
	<path fill="#75655D" d="M549,278.4c1.2-1.5,1.7-2,2.2-2.6C552.3,277.3,551.7,277.9,549,278.4z" />
	<path fill="#8A6961" d="M537.1,287.6c-0.4-0.4-0.8-0.8-1.2-1.2c0.9-1,1.9-1.4,3.3-0.2C538.4,286.8,537.8,287.2,537.1,287.6z" />
	<path fill="#AC998D" d="M554.5,271.7c0.5,1.4,0.4,1.8-1,1.8C552.8,272.7,553.7,272.3,554.5,271.7z" />
	<path fill="#5D4E48" d="M557.5,268.1c0.4-0.5,0.8-1,1.2-1.6C559.3,268.3,559.3,268.3,557.5,268.1z" />
	<path fill="#E1C7B6" d="M638.9,80c0-1.1,0.1-2.1,0.1-3.2C640.2,78.5,640.2,78.5,638.9,80z" />
	<path fill="#271F25" d="M348.6,559.2c15.4,0.1,31.5,0.3,46.7,2.8c-1.1,0.4-2.6-0.4-3.3,1.1C377.6,561.2,362.5,563,348.6,559.2z" />
	<path fill="#2D2F3A" d="M404.5,562.3c2.6-0.1,5.2-0.4,7.5,0.9c-2.9,2.1-8.3,1.3-11.9,0.2C401.7,563.3,403.2,563.2,404.5,562.3z" />
	<path fill="#363847" d="M321.9,558.9c2.9,0.1,5.7,0.1,8.6,0.2c0.4,0.4,0.8,0.7,1.3,1.1c-2.9,2-6,0.5-9.2,0.8   C322.3,560.2,322.1,559.5,321.9,558.9z" />
	<path fill="#33272F" d="M331.7,560.2c-0.4-0.4-0.8-0.7-1.3-1.1c4.5-1.7,9.1-0.2,13.7,0C340.4,561.1,335.8,559.8,331.7,560.2z" />
	<path fill="#110405" d="M404.5,562.3c-3.8,2.1-8.4,0.6-12.6,0.8C395.3,560.7,400.5,562.7,404.5,562.3z" />
	<path fill="#3A3A47" d="M341.9,560.2c2.7-1.5,6.2-1.4,8.9,0C347.8,561.6,344.8,561.5,341.9,560.2z" />
	<path fill="#545368" d="M511.8,569.7c-0.1,0.3-0.1,0.5,0,0.8c-3.3,0-6.6,0-9.9,0C505.1,569.3,508.5,569.5,511.8,569.7z" />
	<path fill="#173C23" d="M484.2,348.2c6.2-0.8,11.6-2.2,17.9-2c-5.4,2.3-9.3,1.9-14.5,3.2c-0.6,5.9-1.1,11.4-1.7,17.3   c-1-3.8-1.2-12.7-0.4-17C485.1,349.1,484.7,348.6,484.2,348.2z" />
	<path fill="#204F2E" d="M456.5,350.4c7.8-0.1,15.7-0.4,23.5-0.9c-3.8,2.5-9.4,1.8-14,2.8C463.4,349.6,459.3,352.8,456.5,350.4z" />
	<path fill="#2B834B" d="M599.6,318.5c0.7-0.1,1.3-0.1,2-0.2c1.7,3.1,1.6,5.9-0.6,8.1C600.6,323.7,600.1,321.1,599.6,318.5z" />
	<path fill="#12361F" d="M582,339c-1.2-3.7,0.8-7.1,0.3-10.7C584.3,331.7,584.1,333.8,582,339z" />
	<path fill="#07100A" d="M456.5,350.4c2.8,2.5,6.9-0.7,9.5,1.9c-4,0.1-8,0.3-12.2,0.1c-0.2-0.8-0.3-1.5-0.4-2.1   C454.4,350.3,455.4,350.3,456.5,350.4z" />
	<path fill="#297442" d="M519.1,339.7c3.1-1,5.9-2.7,9.2-1.8C525.5,339.4,521.4,341.6,519.1,339.7z" />
	<path fill="#244E33" d="M552.8,329c3.4-1.7,7-2.5,10.8-2.1c-2.7,1.8-6.6,1.6-9.8,3.2C553.5,329.7,553.2,329.4,552.8,329z" />
	<path fill="#143D23" d="M513.4,342.2c2.4,3.4,0.4,5.3-0.4,7.4C512.6,347.4,512.3,345.3,513.4,342.2z" />
	<path fill="#1B492C" d="M469.8,353.1c0.6,2.9,1.1,4.9,1.7,7.4C469.1,358.5,469.1,358.5,469.8,353.1z" />
	<path fill="#246B3F" d="M467.6,356.8c0.9,1.4,0.5,2.8,0.6,4.4C465.5,359.7,465.4,358.2,467.6,356.8z" />
	<path fill="#244E33" d="M563.5,326.9c1.9-2.1,5-0.8,7.5-1c0,0,0,0,0,0C568.9,327.6,566,326.7,563.5,326.9z" />
	<path fill="#236C3E" d="M613,317.8c2.2,1.3,1.3,3.3,1.5,5.8C613.1,320.5,613,320.1,613,317.8z" />
	<path fill="#295437" d="M571,324.8c1.6-0.1,3.1-0.4,4.6,0.3c-1.6,0.8-1.6,0.8-4.7,0.7l0,0C571,325.5,571,325.2,571,324.8z" />
	<path fill="#2B834B" d="M603.9,317.4c0.7,0,1.4,0,2.1,0C605.2,318.7,604.6,318.7,603.9,317.4z" />
	<path fill="#827168" d="M737.7,392.2c1.7,2.6,3.6,4.4,2.6,7.9C738.7,397.5,737.2,395.6,737.7,392.2z" />
	<path fill="#63534C" d="M751.3,412.6c-0.4,0.4-0.9,0.9-1.3,1.3c-1.3-1.4-3.4-2.2-3.1-5.1C748.9,409.9,750.2,411.1,751.3,412.6z" />
	<path fill="#1E0605" d="M704.5,318.7c-0.5,0.3-0.9,0.7-1.4,1c-1.6-0.5-4.3,0.2-5.4-1C699.6,318,699.6,318,704.5,318.7z" />
	<path fill="#30201B" d="M456.3,226.3c-1.2,0-2.4,0-3.6-0.2c-4.3,3.6-4.3,3.6-4,4.2c0.6,0.4,1.1,0.7,1.7,1.1c-2.2,0.9-3.1-0.9-4.3-2   C449.2,226.5,451.9,220.9,456.3,226.3z" />
	<path fill="#514943" d="M627,80.7c-2.3-1.3-2.4-2.9-1.7-5C627,77.1,627.6,78.5,627,80.7z" />
	<path fill="#483F39" d="M623.1,69.2c1.8,1.2,2.2,2.4,1.7,3.9C623.6,73.5,623.1,72.3,623.1,69.2z" />
	<path fill="#231716" d="M622.2,64.4c-0.3-1-0.7-1.9-1-2.8c0.4-0.3,0.6-0.4,0.7-0.5C623.8,62.8,623.8,62.8,622.2,64.4z" />
	<path fill="#352522" d="M637.6,68.5c0,0.9,0,1.7,0,2.6C635.9,69.8,635.9,69.8,637.6,68.5z" />
	<path fill="#5A413D" d="M606.9,68.7c0.1,0.7,0.1,1.4,0.2,2c-0.3,0-0.5,0-0.8,0.1c-0.1-0.7-0.1-1.4-0.2-2   C606.4,68.8,606.7,68.7,606.9,68.7z" />
	<path fill="#F5D9C6" d="M487.2,279.2c-0.7,0-1.3-0.1-2-0.1c-1.1-2.4-2.2-4.7-4.8-5.7c-0.7,0.1-1.4,0.3-2.1,0.4   c-0.3-0.7-0.5-1.4-0.8-2c1.5-4.1-0.4-7.7-1.4-11.7c-1.3,0.9-1.3,0.9-1.6,2c-1.9-0.8,0.1-5.4-3-3c-0.8,2.2-1.5,6.8-4.8,5   c-0.9-2.7-0.9-5.8-3.9-8.6c1,6.1,3.3,11,2.1,17.2c-3.4-7.2-6-14.5-10.8-21.1c-4.8-0.5-6.3-5.8-11.2-6.8c-1.1,1.7-1.6,3.9-2.4,5.7   c-0.3,0.1-0.6,0.1-0.8,0.1c-0.4-0.7-0.8-1.5-1.2-2.2c0.8-2.3,1.4-3.7,1.1-6.4c-1.7,0.9-3,1.7-4.6,2.5c0.8,0.7,1.3,1,1.9,1.5   c-0.5,0.9-1,1.7-1.5,2.6c-1.1-2.1-3.6,1.8-5.5-0.1c-9.3,4.4-12.6,17-14.9,26.4c-1.7-2.9-0.4-5.9-1.2-9.2   c-4.7,2.8-1.2,12.4-8.1,12.4c1.2-10.3,10.8-18,16.7-26.6c0.4-0.6,1.6-1,0.5-2.3c-1.9,1.6-3.8,3.1-5.6,4.6c-0.7-0.3-1.5-0.6-2.2-1   c-1,0.7-2.1,1.3-3.1,2c-3.1-7.1,9.6-14.2,14.6-17.8c15.8-8.3,37.2-2,47.9,11.1c-0.3-1.8,0.9-4.1-1.2-4.7l0.2-0.2l-0.2,0.2   c0.1-0.8-0.2-1.1-1-1.2c0.7-1.6,2.3-0.9,3.5-1.3c2.1,0.2,1.5,3.9,4,4.4c6.1,9.6,10.1,20.9,10.2,32.2   C489,278.1,488.1,278.7,487.2,279.2z" />
	<path fill="#35302A" d="M400.4,299.4c-3.9-8.8-4.7-22.6,1-30.9c0.3,0.3,0.6,0.7,0.9,1C399.3,279.2,400.6,289.5,400.4,299.4z" />
	<path fill="#CEB4A5" d="M450.3,231.5c-0.6-0.4-1.1-0.7-1.7-1.1c-0.2-0.7-0.2-0.7,4-4.2c0.5,0.1,1,0.1,1.5,0.2c1,1.6,2,3.2,3,4.8   C455.8,233.4,452.5,231.3,450.3,231.5z" />
	<path fill="#B3A68E" d="M411,252.8c0.1,0.8-0.2,1.7,1,2c-2.6,4.3-5.4,8.4-7.1,13.1c-0.4-0.4-0.7-0.9-1.1-1.3   C405.7,261.8,407.8,257,411,252.8z" />
	<path fill="#67645E" d="M414.2,96c-0.6,1.3-1.4,2.1-2.9,1.9C410.5,95.6,412.8,95.9,414.2,96z" />
	<path fill="#B3A68E" d="M403.5,267.5c0.1,0.9,0.1,1.8-1,2.2C402.9,269,403.2,268.2,403.5,267.5z" />
	<path fill="#5C534C" d="M491.6,279.4c0-2.3,0-4.5,0.1-6.8c0.5,1.6,0.9,3.3,1.4,5.1c0.9,0.8,3.5-0.6,3.5,2.5   C494.9,279.9,493.3,279.7,491.6,279.4z" />
	<path fill="#1D1513" d="M489.1,239.9c1,1.8-0.1,2.9-1.3,3.9C487.1,242.2,487.4,240.9,489.1,239.9z" />
	<path fill="#87756C" d="M486.5,230.7c1.5,0.7,2.2,1.4,1.3,2.6C486.8,232.8,486,232.3,486.5,230.7z" />
	<path fill="#277548" d="M510.4,330.1c0.4,0,0.8,0,1.2,0c0,0.3,0,0.7-0.1,1c-1.1,0.4-2.1,0.9-3.2,0.1   C508.8,330.2,509.5,330,510.4,330.1z" />
	<path fill="#35A65F" d="M571,324.8c-0.1,0.3-0.1,0.7,0,1c-1.1-0.1-2.1-0.1-3.2-0.2C568.6,324.3,569.9,324.9,571,324.8z" />
	<path fill="#322A24" d="M461.6,498.2c-0.5-0.1-1-0.2-1.5-0.3c-0.6-3.7,0-7.4,2.8-9.9C465.5,490.9,460.8,494.6,461.6,498.2z" />
	<path fill="#0D150D" d="M377,348.1c4.5-3,11.5,1.5,16.9,1.1C389.3,351.1,381.1,351.5,377,348.1z" />
	<path fill="#0B1F12" d="M381,350.7c2.5,3.5-0.1,7.5,0,11.5C379.7,358.7,379.7,356.5,381,350.7z" />
	<path fill="#246E3F" d="M405.9,351.7c1.9-0.8,3.7-0.5,5.7-0.2C409.3,354,407.4,354.1,405.9,351.7z" />
	<path fill="#3A3039" d="M604.8,479.7c0-0.3,0.1-0.7,0.1-1c5.3,0.8,11.2-0.1,16.1,1.8C616.2,482,609.5,481,604.8,479.7z" />
	<path fill="#212931" d="M618.7,481.4c0.8-0.3,1.5-0.6,2.3-1c0.9,0.2,1.7,0.3,2.6,0.5c0,0.3-0.1,0.5-0.1,0.8   C622,481.6,620.4,481.5,618.7,481.4z" />
	<path fill="#F8E1C0" d="M433.3,357.7c-0.9,0.5-1.7,1.1-2.6,1.6c-3.9-3.1-1.4-8.6-3.7-12.3c-0.2-1.4-0.3-2.8,0-4.2   c0.5,0.1,1,0.2,1.6,0.3C430.8,347.8,431.1,353,433.3,357.7L433.3,357.7z" />
	<path fill="#4E4439" d="M441.7,392.6c-0.1,0.7-0.1,1.5-0.2,2.2c-1.5,0.7-0.6,2.3-1.1,3.3c-0.2-0.2-0.5-0.3-0.8-0.4   c1.3-5.9-4.1-13.2-1.1-18c1.6,2.2,3.1,4.4,3.4,7.3C440.3,389,440.2,390.4,441.7,392.6z" />
	<path fill="#423A30" d="M450.1,392.6c-0.4,0.8-0.8,1.6-1.1,2.4c-1.8-6.1-3.5-12.1-5.3-18.2c0.4-0.4,0.7-0.7,1.1-1.1   C446.7,381.3,449.1,386.8,450.1,392.6z" />
	<path fill="#998871" d="M438.6,379.8c-1.1,0.4-1,1.4-1.2,2.2c-1.8-5.6-4.4-11.4-6.2-17.2C434.5,368.9,437.9,376.2,438.6,379.8z" />
	<path fill="#91806B" d="M435.3,357.6c2.5,4.6,4.9,9.2,7.4,13.8c-0.4,0.4-0.7,0.8-1.1,1.1c-3.1-4.7-5.5-9.9-8.3-14.9   C434,357.7,434.7,357.7,435.3,357.6L435.3,357.6z" />
	<path fill="#A4947C" d="M426.7,344.8c-0.1,4.6,1.2,8.4,2.4,12.8c-1.8,0.9-2.2-2.1-3.3-3.1l0,0c-0.3-1.4,0.7-3.2-1-4.3   c-0.2-1.5-0.1-2.9,0.1-4.3C425.5,345.5,426.1,345.1,426.7,344.8z" />
	<path fill="#4E4439" d="M444.8,394.7c-0.4,0.4-0.8,0.8-1.2,1.2c-0.8-2.8-2.4-5.6-1.9-8.7l0.2-0.2   C443.6,389.4,444.5,392,444.8,394.7z" />
	<path fill="#6E6151" d="M441.6,372.6c0.4-0.4,0.7-0.8,1.1-1.1c0.7,1.4,1.3,2.9,2,4.3c-0.4,0.4-0.7,0.7-1.1,1.1   C443,375.4,442.3,374,441.6,372.6z" />
	<path fill="#4E4439" d="M445.7,397.9c-1-0.5-0.9-1.4-0.7-2.3C445.2,396.4,445.5,397.2,445.7,397.9z" />
	<path fill="#F9E2C1" d="M446.1,281.4c1.4-2.3,1.3-2.6-1.3-4.4c-0.3-4.3,3-8.3,2.7-12.4c-0.8,0.8-1.6,1.5-2.8,2.7   c0.3-7.1-0.6-13.2,0.9-19.9c4.9,8,4.2,18.5,6.8,27.5c-0.6,0.1-1.3,0.3-2,0.4c-0.1,1.8-0.9,3.5,0.7,5c0.1,1.1,0.2,2.1,0.2,3.2   l-0.2-0.1c-1.7,1.2-0.9,2.9-0.9,4.4c-0.4,3.6-2.1,7.2-6.3,6.2C444.6,290,445.7,285.8,446.1,281.4z" />
	<path fill="#1F1915" d="M426.7,344.8c-0.6,0.4-1.2,0.7-1.9,1.1c-0.1-2.6-0.3-5.1-0.4-7.8c-0.7,0.3-1.1,0.5-1.7,0.7   c-0.1-4.9,0.8-9.5,3.3-13.5c3.2-1.7,6,0.2,8.8,0.7c0.5,0.9,0.8,1.8,0.1,2.7c-1.5-0.5-2.9-1.1-4.4-1.8   C427.8,332.4,426.8,338.6,426.7,344.8z" />
	<path fill="#F9E2C1" d="M442.9,270.6c0.1,5.2-2.2,9.7-3.8,14.7c-1,0-2,0-3.3,0c-0.1-7.1,2.3-16.2,6.8-21.9   C442.7,265.8,442.8,268.2,442.9,270.6z" />
	<path fill="#342E27" d="M429.1,285.6c-0.2,4.3-1.7,8.4-1.1,12.7c0,0-0.2-0.1-0.2-0.1c-2.1,2.9,0.3,6.9-2,9.6   c-0.5-17.6,2-34.9,7.7-51.8c0.3,0.4,0.7,0.9,1,1.3c-1,7.4-4.2,14.2-4.5,21.8C428.5,281,429.4,283.4,429.1,285.6z" />
	<path fill="#827563" d="M435.2,270.6c-2.6,9.4,0.2,20.3-1.2,30.2c-3.7-13.3-2.5-28.9,2.2-41.8c0.4,0,0.8,0,1.1,0   c-0.9,1.7-0.8,3.5-1,5.4C434.7,265.7,435.9,268.6,435.2,270.6z" />
	<path fill="#29251F" d="M435.4,323.6c0.8-8.1,3.7-16.1,5.3-24.2c0.4,0.8,0.8,1.6,1.2,2.3c-0.9,6.3-2.3,12.5-3.4,18.7   C437.4,321.4,437.4,323.5,435.4,323.6z" />
	<path fill="#E5D2B3" d="M434.3,263.3c-1.2,7.7-2.2,15.5-2.3,23.3c-0.4,0.2-0.9,0.4-1.4,0.6c-0.5-0.6-1-1.1-1.5-1.7   c1-7.2,1.5-15,4.2-22.2C433.7,263.3,434,263.3,434.3,263.3z" />
	<path fill="#675B4E" d="M442.9,270.6c-1.8-8.7,2.6-17.3-0.3-25.5c1.4-0.3,4.1,1.3,5.6,2.2c-0.9,0-1.7,0.1-2.6,0.1   c-1.8,9.8-1.4,19.7-0.8,29.6C442.6,275.5,445,272.3,442.9,270.6z" />
	<path fill="#968875" d="M442.6,245.2c1.2,3.1,2.1,6.8,0.4,9.8c-0.2-1.2-0.3-2.4-0.6-4.3c-1.3,3.9-2.9,6.9-2.9,10.4   c-0.8,1-0.9,2.1-1,3.3c-0.3,0-0.6,0-1-0.1c-0.4-1,0.5-2.5-1-2.9c0.3-2.3,3.3-5.5,1.2-7.4c0.4-1.3,0.5-2.7,1.9-3.4l0,0   c0.1,0.6,0.2,1.1,0.3,1.7c0.1,0,0.3,0,0.4,0C440.3,249.7,441.8,247.5,442.6,245.2z" />
	<path fill="#635B4C" d="M425.8,307.8c2.3-2.7-0.1-6.7,2-9.6c0.2,6.4,0.3,12.3-0.1,18.8c-0.9-0.8-1.3-1.2-1.8-1.7   c-0.1-2.6-1.7-5-1-7.7C425.2,307.8,425.5,307.8,425.8,307.8z" />
	<path fill="#F0DCBC" d="M438.5,264.4c0.1-1.2,0.2-2.4,1-3.3c0-3.5,1.6-6.5,2.9-10.4C443.5,256,443.1,261.1,438.5,264.4z" />
	<path fill="#C1AD90" d="M426,315.4c0.5,0.4,0.9,0.9,1.8,1.7c0.1-3,0.2-5.6,0.3-8.2c0.3,0,0.6,0,0.9,0c-0.4,4.7,0.7,9.2,0.9,13.8   c-1.2-0.9-3.1-1.1-3.1-3.2c-0.4-0.4-0.7-0.7-1.1-1.1c-0.1-0.7,0.2-1.4,0-2.1C425.9,316,426,315.7,426,315.4z" />
	<path fill="#CDB89A" d="M435.4,323.6c2.1-0.1,2-2.2,3.1-3.2c0.4,0.4,0.8,0.8,1.2,1.2c-0.8,1.2-1.5,2.5-2.3,3.8   c2.3,1.4,2.9-1.1,4.4-1.6c-0.1,1.8-1.4,3.2,1.1,3.1c-0.7,1.3-2,1.1-3.1,1.3c-2-2.6-2.9-0.6-4.2,0.9c-0.2-0.1-0.3-0.2-0.4-0.4   c0.7-1,0.4-1.9-0.1-2.7C436.9,325.5,435.3,324.4,435.4,323.6z" />
	<path fill="#ECD5B6" d="M442.5,290.8c-2.1-3.2-0.1-6.9,0.9-10.2c0.5-0.1,1-0.2,1.5-0.3C445.1,284.1,443.6,287.4,442.5,290.8z" />
	<path fill="#A69781" d="M442.5,290.8c1.1-3.4,2.6-6.8,2.3-10.5c3-1.4-0.2,8.4,0,10.5C444,290.9,443.2,290.9,442.5,290.8z" />
	<path fill="#484035" d="M442.9,290.9c0.3-0.1,0.6-0.1,0.9,0c0.8,3.7-1.1,7.3-1.9,10.8c-0.4-0.8-0.8-1.6-1.2-2.3   c0.3-1.8,0.7-3.5,1-5.3C443.1,293.5,442.5,292.1,442.9,290.9z" />
	<path fill="#5A4E42" d="M429.8,319.7c-1.4-3.4-0.7-7.2-0.9-10.8l0.1,0.1c0.2,0,0.6,0,0.9,0c1.1,2.4,1.2,4.8,1.1,7.4   C429.5,317.1,430.4,318.6,429.8,319.7z" />
	<path fill="#F0DABA" d="M437.3,263.4c1.1,3.5-0.3,5.7-1.4,9.5c-1.3-3.5-0.1-6.3,0.7-9.5C436.8,263.4,437.1,263.4,437.3,263.4z" />
	<path fill="#C1AD90" d="M431,312.2c-2.3-3.7,0.4-8.3-2-11.7c0.3-0.3,0.6-0.7,1-1C432.2,302.6,430.4,308.2,431,312.2z" />
	<path fill="#191814" d="M429.8,319.7c0.5-1-0.4-2.6,1.2-3.3c0,2.3,1.5,4.7,0.1,7.3c-0.5-0.4-0.9-0.7-1.2-1   C429.8,321.7,429.8,320.7,429.8,319.7z" />
	<path fill="#91806B" d="M429,300.5c1.9,2.3,0.6,5.7,0.9,8.5c-0.2,0-0.6-0.1-0.9,0C429.1,306.1,429,303.3,429,300.5z" />
	<path fill="#C1AD90" d="M428,298.3c0-2.9-0.5-5.9,0.8-8.7C428.6,292.5,429.9,295.9,428,298.3z" />
	<path fill="#A69781" d="M442.7,291.9c0.2,0.9,0,1.7-1,2.1C441.6,293.2,441.7,292.3,442.7,291.9z" />
	<path fill="#E4CFB1" d="M438.6,350c-0.3,3.8,2.2,7.3,2.9,11c-0.9,0.9-1.3-0.1-1.5-0.5c-1-1.9-2.6-2.7-4.7-2.8l0,0   c-1.2-3.4-1.9-7-2.1-10.6c1.6-1.7,2.2-3.6,2.4-5.9c0.7,0.3,1.1,0.5,1.6,0.6C437.7,344.5,438.2,347.2,438.6,350z" />
	<path fill="#857562" d="M450,373.7c-2.4-4.9-4-9.2-4-14.5c3.9,2.2,4.2,8.4,6.1,12.3C451.5,372.2,450.7,372.9,450,373.7z" />
	<path fill="#312C25" d="M438.6,350c-0.7-4.3-1.6-8.8-1.7-13.1c0.9-0.5,1.6-0.9,2.5-1.5C439.4,340.2,440.8,345.9,438.6,350z" />
	<path fill="#5D5043" d="M450,373.7c0.7-0.7,1.4-1.4,2.1-2.2c0.4,1.4,0.8,2.8,1.1,4.2c-1.8-0.8-1.8-0.8-2.1,1.2   C450.8,375.8,450.4,374.7,450,373.7z" />
	<path fill="#7E766E" d="M481.3,450.4c-0.6-1.3-0.4-1.7,0.4-2.6C483.2,448,482.7,450,481.3,450.4z" />
	<path fill="#433531" d="M481.4,452.6c0.7,1.8,0.8,1.8-0.1,3.3C479.6,454.7,480.6,454,481.4,452.6z" />
	<path fill="#D7C0A0" d="M405.8,278.1c6.9,0,3.3-9.5,8.1-12.4c1.2,8.6,0.9,16.1-0.4,24.5c-0.2,1.4-0.5,2.8,0.6,3.9   c0,1.7,0.1,3.4,0.1,5.1c-2.5-2.4-1.8-4.5-4.1-7.7c0.7,5,2.1,8.6,4.2,11.9l0,0c-0.2,1-0.1,1.8,0.9,2.2c1.7,5.5,4.7,10.1,7.4,15   c-2.2,0.8-3-2.9-5.3-2.4l0.1,0.1C411.5,305.3,402,293.4,405.8,278.1z" />
	<path fill="#1A1814" d="M405.8,278.1c-0.3,3.2,0,6.6-1,9.7c-1.2-0.4-1.2-1.3-1.1-2.3c2.3-10-2.3-17.2,6.4-27.4   c0.7,0.5,1.5,2.6,2,0.8c3.4-3.5,7-6.7,10.9-9.8C421,258.8,405.4,266.7,405.8,278.1z" />
	<path fill="#181511" d="M421.6,318.4c-4-4-4.9-9.9-7.4-14.8l0,0c1.1-2,0.2-4.6,1.8-6.2c0.5,1.3-0.4,3.1,1.2,4.1   c2.1,4.7,2.1,14.8,8.5,14.8c0.4,0.9-0.5,1.4-1.1,1.9C423.6,318.2,422.6,318.3,421.6,318.4z" />
	<path fill="#665A4B" d="M406.9,298.1c3.4,6.8,8,13.2,10.5,20.4c-5.8-4.6-7.5-13-11.5-19.2C406.2,298.9,406.5,298.5,406.9,298.1z" />
	<path fill="#3E382F" d="M406.9,298.1c-0.4,0.4-0.7,0.8-1.1,1.2c-2.6-6.7-4.6-14.3-2.4-21.4c0.7,3.1-1.1,7.8,1.4,9.9   C405.5,291.2,406.2,294.7,406.9,298.1z" />
	<path fill="#090807" d="M403.6,285.5c0-3.1-0.6-6.3,0.1-9.4C405.2,278.9,405.1,283.2,403.6,285.5z" />
	<path fill="#B3A68E" d="M404.4,270.7c-0.2,0.8-0.4,1.6-0.6,2.4C403.5,272.3,403.4,271.3,404.4,270.7z" />
	<path fill="#35302A" d="M401.2,301.5c-0.3,0-0.5,0-0.8,0c0-0.7-0.1-1.5-0.1-2.2C401.6,299.6,401.3,300.6,401.2,301.5z" />
	<path fill="#3A2C24" d="M416.4,320.5c-0.9,0.1-1.9,0.1-2.2-1C414.9,319.8,415.6,320.1,416.4,320.5z" />
	<path fill="#3A2C24" d="M418.5,321.5c-0.4-0.2-0.8-0.5-1.2-0.7C417.7,321,418.1,321.2,418.5,321.5z" />
	<path fill="#665A4B" d="M417.3,318.4c0.4,0,0.7,0,1.1,0c-0.2,0.3-0.4,0.5-0.6,0.8C417.7,319,417.5,318.7,417.3,318.4z" />
	<path fill="#3A2C24" d="M414.2,319.5c-0.4-0.2-0.7-0.4-1.1-0.7C413.5,319,413.8,319.2,414.2,319.5z" />
	<path fill="#635B4C" d="M424.6,318.2c0.3-0.3,0.7-0.6,1-0.9c0,0.4,0,0.7,0,1.1C425.4,318.3,425,318.2,424.6,318.2z" />
	<path fill="#3A2C24" d="M412.2,318.4c-0.4-0.3-0.8-0.5-1.2-0.8C411.4,317.8,411.8,318.1,412.2,318.4z" />
	<path fill="#CDB89A" d="M439.7,338.6c-0.1-1-0.2-2-0.3-3.2c-0.9,0.5-1.6,1-2.5,1.5c0.1,1.6,0.2,3.2,0.3,4.9   c-0.5-0.2-0.9-0.4-1.6-0.6c-0.2,2.4-0.8,4.2-2.4,5.9c-0.4-0.1-0.9-0.1-1.3-0.2c0.2-6.2-0.8-12.9,1.5-18.7c2.8,0.7,4.3,3.4,4.6,6.1   c1.2-0.1,2.1-0.1,2.9-0.2C440.3,335.6,441.3,337.5,439.7,338.6z" />
	<path fill="#030202" d="M471.4,245.2c-0.7-1-1.4-2.1-2.2-3.1c0.3-0.3,0.6-0.7,0.9-1c1.2,0.6,2.4,1.1,3.1,2.3l0.2-0.2l-0.2,0.2   C473.2,244.6,472.9,245.5,471.4,245.2z" />
	<path fill="#D2C1B1" d="M479.8,245.3c-2-0.6-2.2-2.7-3.2-4.1C479.1,240.7,479.1,243.7,479.8,245.3z" />
	<path fill="#D2C1B1" d="M472.3,242.3c-0.7-0.4-1.4-0.8-2.1-1.1c1.3-2,4-1.5,5.6-0.2C474.6,241.3,473,240.6,472.3,242.3z" />
	<path fill="#7081A6" d="M433.2,477.4c-1.4-1-1-2.2-0.4-4.5C433,475,433.1,476.2,433.2,477.4L433.2,477.4z" />
	<path fill="#F3DDBD" d="M474.8,284.9c1.5-3.1,2.9-6.1,4.7-9.8c0.6,7.1-1.3,12.8-2.9,19.6c1.8-0.4,2.3,0.3,2.3,1.6   c-2.2,3.5-4,7.2-6.4,10.5c0,0,0,0,0,0c-0.5-0.1-1-0.2-1.8-0.3C472.6,299.3,472.9,292,474.8,284.9z" />
	<path fill="#BEAA8E" d="M474.7,311.1c-2.5,2.8-5,5.6-7.6,8.4c-1-1.3-1.8,0.6-2.5,1.2c-0.1,0.1,0.4,0.7,0.6,1   c-0.6,0.8-1.4,1.5-2.2,2.2c0,0,0.1,0.1,0.1,0.1c-1,0.5-2,0.9-4.1,1.9c3.8-5.2,7-9.5,10.2-13.8c0.2,0.2,0.4,0.5,0.8,0.9   c4-4.4,6.9-9.6,9.9-14.6c0,0.9,0,1.9,1.2,2.3C478.9,304.1,476.8,307.6,474.7,311.1z" />
	<path fill="#52473C" d="M479.9,298.3c-3,5-5.9,10.2-9.9,14.6c-0.4-0.4-0.6-0.7-0.8-0.9c3.2-5.3,6.6-10.5,9.6-15.9   c0.4,0.4,0.8,0.8,1.2,1.2C480,297.7,479.9,298,479.9,298.3z" />
	<path fill="#5A5145" d="M474.4,286.6c-1.1,4.4-1.3,9.1-3.9,12.9c-0.4-0.4-0.7-0.8-1.1-1.2c2-4.2,2.5-8.8,3.9-13   C473.7,285.8,474.1,286.2,474.4,286.6z" />
	<path fill="#E8D3B5" d="M473.3,285.3c-2.3,5.9-2.2,14.9-8.3,18.3c0.7-2.1,1.4-4.2,2.1-6.4c0.6-0.4,1.4-0.7,0.2-1.6   c-0.1,0.6-0.1,1.1-0.2,1.6c-1.1,1.1-2.1,2.1-3.2,3.2c-0.6-0.2-1.2-0.3-2-0.5c-1.6-6.7,5.1-11.2,3.1-17.5c0.4,0,0.7-0.1,1.1-0.1   c0,0,0,0,0,0c2.6,3.3-0.4,7.9,2.3,11.6c0-1.5,0-3,0-4.5c0.8-0.1,1.2-0.1,2.2-0.2c-1.5-1.5-0.7-3.7-2.5-4.6   c-0.8-4.1-0.3-8.1,2.3-11.6c1,1.6,1.2,3,1.1,4.9c0.8-0.4,1.2-0.7,1.8-1C473.3,279.8,473.3,282.6,473.3,285.3z" />
	<path fill="#3C342B" d="M457.8,313.2c-1.1-0.3-2.1-0.7-3.2-1c0.9-2.4,2.1-4.8,4.1-7.6c0,2.1,0,3.2,0,4.4c-0.4,0-0.6,0.1-0.6,0.5   c0.5-0.6,1.1-1,1.7-1.5c0.3,0.4,0.7,0.7,1,1.1C459.8,310.3,458.8,311.8,457.8,313.2z" />
	<path fill="#AA9881" d="M464,300.4c1.1-1.1,2.1-2.1,3.2-3.2l0,0c-0.7,2.1-1.4,4.3-2.1,6.4c-0.3,0-0.6,0-0.9,0.1   c-0.4-0.4-0.8-0.7-1.2-1.1C463.3,301.9,463.6,301.1,464,300.4z" />
	<path fill="#67584A" d="M462.9,302.6c0.4,0.4,0.8,0.7,1.2,1.1c-1.1,1.8-2.2,3.5-3.3,5.3c-0.3-0.4-0.7-0.7-1-1.1   C460.9,306.1,461.9,304.3,462.9,302.6z" />
	<path fill="#3C342B" d="M456.5,315.3c0.3-0.4,0.5-0.7,0.8-1.1C457.1,314.5,456.8,314.9,456.5,315.3z" />
	<path fill="#F1DCBC" d="M479.9,298.3c0.1-0.3,0.1-0.6,0.2-1c2.2-2,0.4-4.3-1.3-5.5c1.6-4.8,2.2-8.4,3.6-13.9   c1.9,4.9-0.8,9.6,1.7,14c-1,2.9-1.8,5.8-3,8.6C479.9,300.3,479.9,299.3,479.9,298.3z" />
	<path fill="#B9A88D" d="M474.6,317.4c-1.8,1.8-3.5,3.6-5.3,5.4c-0.3-0.1-0.6-0.3-1.2-0.5c3.1-4.8,6.9-9.1,10.5-13.5   c0.4,0.4,0.9,0.8,1.3,1.3C478.1,312.4,476.3,314.9,474.6,317.4z" />
	<path fill="#4A4036" d="M478.6,308.7c-1,1.2-2,2.3-2.9,3.5c-0.3-0.4-0.7-0.7-1-1.1c2.1-3.5,4.3-7,6.4-10.5c0.3,0.3,0.6,0.6,0.9,0.9   C481.3,304.1,479.7,306.3,478.6,308.7z" />
	<path fill="#BEAA8E" d="M482,301.5c-0.3-0.3-0.6-0.6-0.9-0.9c0.3-0.8,0.6-1.5,0.9-2.3C483.5,299.8,483.5,299.9,482,301.5z" />
	<path fill="#5B4F43" d="M484.1,291.9c0-0.6,0.1-1.3,0.1-2.2C485.5,291,485.3,291.6,484.1,291.9L484.1,291.9z" />
	<path fill="#BEAA8E" d="M481.1,303.6c0.2-0.4,0.4-0.9,0.7-1.3C481.6,302.8,481.4,303.2,481.1,303.6z" />
	<path fill="#B9A88D" d="M478.9,307.9c0.3-0.4,0.5-0.8,0.8-1.2C479.5,307,479.2,307.5,478.9,307.9z" />
	<path fill="#B9A88D" d="M480.1,305.8c0.2-0.4,0.5-0.8,0.7-1.2C480.6,304.9,480.3,305.3,480.1,305.8z" />
	<path fill="#D7C0A0" d="M462.9,302.6c-1.4,2.1-2.2,4.8-4.3,6.3l0.1,0.1c0-1.2,0-2.4,0-4.4c-5.8,7.7-6.6,18.2-15.9,22.4   c-2.5,0.1-1.2-1.3-1.1-3.1c5-9.7,8.3-19.9,9.6-30.7c0.3-0.1,0.5-0.3,0.8-0.4c0.3,3.1-1,6.4,3.9,6.3c2.9-4,2-9.5,4.7-13.5   c0.2,0.5,0.3,1.1,0.4,1.4c1-1.6,1.9-3.1,2.8-4.5l0,0c-0.1,0.9-0.1,3.8,1.2,2.1c1.4,5.1-5.1,9.6-3.2,15.4c0.7,0.2,1.3,0.4,2,0.5   C463.6,301.1,463.3,301.9,462.9,302.6z" />
	<path fill="#ECD9B9" d="M440.9,334.1c-0.8,0-1.7,0.1-2.8,0.2c-0.3-2.1-1-3.7-2.5-5.1c1.1-0.5,1-2.7,2.9-2.1c0.1,0.8,0.1,1.8,1.3,2   C441.1,330.4,440.5,332.4,440.9,334.1z" />
	<path fill="#D7C0A0" d="M439.7,329c-1.1-0.2-1.1-1.1-1.3-2C438.9,327.6,440.1,328.1,439.7,329z" />
	<path fill="#7F7461" d="M441.7,387.3c-0.4,1.9,0.3,3.7,0.8,5.5c-0.3-0.1-0.6-0.2-0.9-0.2C440.3,390.4,440.3,389.4,441.7,387.3z" />
	<path fill="#4E4439" d="M444,398.9c1.3,0.9,0.8,2.2,0.7,3.4C443.8,401.3,443.9,400.1,444,398.9z" />
	<path fill="#D6C0A0" d="M424.8,350.2c1.7,1.1,0.7,2.8,1,4.3C423.9,353.4,425,351.6,424.8,350.2z" />
	<path fill="#474138" d="M473.3,285.3c0-2.8,0-5.5,0-8.5c-0.6,0.3-1.1,0.6-1.8,1c1.3-5.6,0.3-13.2,4.6-17.7   c4.2,8.8-1.2,17.4-1.7,26.5C474.1,286.2,473.7,285.8,473.3,285.3z" />
	<path fill="#8F7F6D" d="M479.7,288.7c-0.3,1-0.6,1.9-1,3.2c1.7,1.2,3.5,3.5,1.3,5.5c-0.4-0.4-0.8-0.8-1.2-1.2c0-1.3-0.5-2-2.3-1.6   c0.7-2.9,1.4-5.5,2.1-8.2C478.9,287.3,478.6,288.3,479.7,288.7z" />
	<path fill="#CBB698" d="M465.2,321.7c-0.2-0.4-0.7-0.9-0.6-1c0.8-0.6,1.6-2.5,2.5-1.2C466.5,320.2,465.8,320.9,465.2,321.7z" />
	<path fill="#9B937A" d="M467.1,324.8c-0.3,0.1-0.8,0.1-1,0.1c0.2-0.3,0.5-0.5,0.7-0.8C466.9,324.3,467,324.5,467.1,324.8z" />
	<path fill="#CBB698" d="M463,323.9c0.4-0.4,0.9-0.8,1.3-1.1C463.9,323.1,463.4,323.5,463,323.9z" />
	<path fill="#3C342C" d="M474.6,317.4c1.8-2.5,3.5-4.9,5.3-7.4c0.4,0.4,0.8,0.7,1.2,1.1c-1.3,2.9-3.4,5.1-5.4,7.5   C475.3,318.2,474.9,317.8,474.6,317.4z" />
	<path fill="#3A2C24" d="M411.2,320.6c0.3,0.3,0.6,0.6,0.9,1C411.7,321.2,411.5,320.9,411.2,320.6z" />
	<path fill="#1C1817" d="M398.4,189.4c-1.7,3.1-1.5,7.1-5.4,8.5c0-5.4,2.5-9.3,5.1-13.2c0.4,0.1,0.8,0.1,1.1,0.2   c0,0.7-0.1,1.4-0.1,2.1C398.1,187.6,398.2,188.5,398.4,189.4z" />
	<path fill="#716963" d="M401.5,90.6c1.7-1.9,4.3-0.9,6.6-0.4C406,90.7,403.8,90.9,401.5,90.6z" />
	<path fill="#7E7068" d="M410.4,104c-0.8-1.5-0.4-2.6,0.9-3.4C412.2,102.2,412.2,102.2,410.4,104z" />
	<path fill="#524E49" d="M401.8,166.9c-0.5-3.4-0.5-3.4,0.9-4.1C403.7,164.2,402.3,165.1,401.8,166.9z" />
	<path fill="#493F3B" d="M399.9,171.1c0.8,2.2,1,3.6-0.1,5.1C398.5,174.8,398.9,173.4,399.9,171.1z" />
	<path fill="#705F58" d="M402.3,192.6c0.5,0.7,0.9,1.5,1.7,2.7C401.9,194.3,401.9,194.3,402.3,192.6z" />
	<path fill="#735D57" d="M408.9,107.3c1.3,1.4,0.1,1.3-0.7,2.1C407.5,108.7,408.5,108.1,408.9,107.3z" />
	<path fill="#4D403C" d="M398.4,189.4c-0.2-0.9-0.3-1.8,0.7-2.4C398.9,187.8,398.6,188.6,398.4,189.4z" />
	<path fill="#4D403C" d="M398.8,180.9c0.8,0.7,0.5,1.1-0.2,1.7C398.2,181.9,398.3,181.4,398.8,180.9z" />
	<path fill="#4D403C" d="M399.3,184.9c-0.4-0.1-0.8-0.1-1.1-0.2c0.3-0.3,0.6-0.5,0.9-0.8C399.1,184.3,399.2,184.6,399.3,184.9z" />
	<path fill="#4D403C" d="M398.1,184.8c-0.3,0.4-0.6,0.8-0.9,1.2C397.5,185.6,397.8,185.2,398.1,184.8z" />
	<path fill="#292C33" d="M268.8,83.2c-0.3,0.7-0.7,1.4-1,2.1c-2.9-7-3.1-16.4-1.1-23.5c0.3,1.1-0.4,2.5,1,3.2   C267.9,71.2,267.9,77.3,268.8,83.2z" />
	<path fill="#5B514B" d="M406.7,60.9c0.6,2,0.2,3.7-1.8,5.1c-0.4-2.3-0.9-4.2,1.9-5.1L406.7,60.9z" />
	<path fill="#171110" d="M396.6,65.6c-0.5-0.9-0.1-1.4,0.7-1.5C398.6,63.9,397.6,65.8,396.6,65.6z" />
	<path fill="#899BBB" d="M273.1,66.2c-0.4,0-0.7,0-1.1,0c0-3.4,0.5-6.6,3-9.6c2.6,2.2,3.3,5,3.6,7.8C277,66.1,274.5,64.5,273.1,66.2   z" />
	<path fill="#6E7D9B" d="M267.9,69.4c-0.1-4.8-0.3-9.1,3.7-13.1c-0.7,4.9-1.2,9.1-1.8,13.2C269.2,69.5,268.5,69.4,267.9,69.4z" />
	<path fill="#6C7A99" d="M268.8,83.2c-0.2-1.8-0.4-3.6-0.7-5.4c0.6,0,1.3,0.1,1.9,0.1c1.8,3.5,1.8,7.3,2.7,11.2   C270.1,87.9,269.6,85.5,268.8,83.2z" />
	<path fill="#8FA1C2" d="M270,77.9c-0.6,0-1.3-0.1-1.9-0.1c-0.1-2.8-0.2-5.6-0.3-8.4c0.7,0,1.3,0.1,2,0.1   C269.9,72.3,270,75.1,270,77.9z" />
	<path fill="#2C2E35" d="M779.7,117.1c1.2-3.7,3.6-7.1,5.2-10.6c0.4,0.4,0.8,0.7,1.1,1.1C784.1,110.5,784.1,116.9,779.7,117.1   L779.7,117.1z" />
	<path fill="#101114" d="M786.1,107.5c-0.4-0.4-0.8-0.7-1.1-1.1c0-1.1,0.6-2.5-0.9-3.1c0.5-0.6,1-1.2,1.5-1.7   c0.7,1.1,1.2,1.9,1.6,2.8C786.8,105.4,786.4,106.5,786.1,107.5z" />
	<path fill="#2C2E35" d="M775.5,117.1c1.4,0,2.8,0,4.2,0l0.1,0.1C777.6,119.8,777.6,119.8,775.5,117.1L775.5,117.1z" />
	<path fill="#2C2E35" d="M775.5,117.1c-0.2-0.1-0.5-0.3-0.7-0.4C775.5,116,775.4,116.8,775.5,117.1   C775.5,117.1,775.5,117.1,775.5,117.1z" />
	<path fill="#202127" d="M773.3,75.7c-0.3,0.4-0.6,0.8-0.9,1.2C772.8,76.5,773.1,76.1,773.3,75.7z" />
	<path fill="#7586AC" d="M777.6,92.7c0,4.1-0.6,8-2.8,12c-8.3-3-2.5-12.4-1.6-18.4C775.5,87.8,774.5,91.7,777.6,92.7z" />
	<path fill="#8596B5" d="M777.6,92.7c-3.1-1-2.1-4.9-4.4-6.4c0.5-4.3,1.4-8.3,4.4-11.6c0.3,0,0.6,0,1,0   C778.9,80.8,778.4,86.8,777.6,92.7z" />
	<path fill="#6F7FA0" d="M780.6,99.7c0.5-6.3,1-12.1,1.5-18c3.7,3.3,0,7.8,1.4,11.9C783.3,96.3,785.4,100.2,780.6,99.7z" />
	<path fill="#7F8DAA" d="M774.4,72.6c-1.3-5.2-1.5-10.6-1-15.9c2.6,1.7-0.4,5.4,1.9,7.4c0.6,2.4,0.8,4.9,1.2,7.3   C776.2,72.4,775.5,72.9,774.4,72.6z" />
	<path fill="#414551" d="M782,73.6c0.7,0.4,1.3,0.7,2,1.1C782.9,76.4,781.6,75.1,782,73.6z" />
	<path fill="#414551" d="M784.2,73.8c-0.2-0.9-0.2-1.8,0.8-2.3C785.2,72.4,785.1,73.2,784.2,73.8z" />
	<path fill="#22252C" d="M775.7,65.9c-0.5-3.9-0.7-7.1,0.5-11.9C776.2,58.5,777.7,63.1,775.7,65.9z" />
	<path fill="#464E5D" d="M777.5,48.1c0.5-0.3,1.1-0.7,1.8-1.2c0.9,2.3-1.4,2.9-1.7,4.3C776.5,50.3,776.7,49.3,777.5,48.1z" />
	<path fill="#71819F" d="M776.5,46c-0.3,0.4-0.6,0.8-0.9,1.2C775.9,46.8,776.2,46.4,776.5,46z" />
	<path fill="#F9E3C2" d="M433.4,256c-2.5,7.2-4.2,14.7-5.7,22.1c-1.5,1.2-0.8,2.8-0.9,4.3c-1.2-0.9-2.9-4.5-4.3-2.2   c-2.4-3.6-0.3-8-1.2-12.8c-3,4.5-2.2,9.3-3.4,14.3c-0.2,0-0.4,0-0.6,0c-1.9-12.5,4.4-24,12.4-33.1c1.9,2,4.4-2,5.5,0.1   C434.8,251.1,434.1,253.6,433.4,256z" />
	<path fill="#473F36" d="M468.2,277.1c-0.8,2.5-0.2,4.9,0,7.4c-0.3,0-0.6,0-0.9-0.1c0.1-0.9-0.7-1.4-1.1-2.1l0,0   c0-0.3,0-0.6-0.2-0.9c-3.4-9.1-7-20.5-13.7-28.5c2.7,6.4,5.1,12.1,7.5,17.8c-0.3,0.3-0.7,0.6-1,1c-1.3-3-2.7-5.7-3.6-8.8   c-0.6,0.5-1.1,0.9-1.6,1.3c-0.3-3.4-0.9-6-3.2-9.4c0,1.6,0,2.5,0,3.3c-0.4,0-0.7,0-1.1,0c-1-3.6-1-7.6-3.6-10.5   c0.9,0,1.7-0.1,2.6-0.1c1.1,2.6,3.2,4,5.9,4.2C460.1,259.7,461.9,269.5,468.2,277.1z" />
	<path fill="#605547" d="M417.2,272.8c-1.5,9.2-0.2,19.2,0,28.7c-1.7-2.8-1.5-6.6-2.3-9.8c-0.1,0-0.3,0-0.4,0   c-0.1,0.8-0.3,1.6-0.4,2.5c-1.5-7.1,0.9-15.5,2.1-22.8C416.4,271.9,416.8,272.4,417.2,272.8z" />
	<path fill="#473F36" d="M464.8,272.7c1.2-6.2-1.2-11.1-2.1-17.2c3,2.8,3,5.9,3.9,8.6c1.6,1,2.6,0,3.5-1.1c-0.4,3.2-1.2,6.3-2.6,9.8   c-0.3-1.6-0.5-2.7-0.8-4c-0.6,1.6-1,2.9-1.4,4.1C465.1,272.9,465,272.8,464.8,272.7z" />
	<path fill="#191714" d="M465.3,273c0.4-1.3,0.9-2.5,1.4-4.1c0.3,1.4,0.5,2.4,0.8,4c2.2-4.9,2.1-9.1,3.9-13.8   c1.9,1.3,0.9,3.4,0.9,5.2c-2.1,2.7-0.5,7.6-3.1,10.6c-1,0.4-1.2,1.2-1.1,2.1l0,0C467.2,275.7,466.2,274.4,465.3,273z" />
	<path fill="#5D5347" d="M417.2,272.8c-0.4-0.5-0.7-0.9-1.1-1.4c0.2-6.7,4.5-12,7.7-17.6c0.3,0.3,0.7,0.7,1,1   C421.4,260.5,418.3,266.2,417.2,272.8z" />
	<path fill="#4B4138" d="M433.4,256c1-3.4,1.5-7,3.5-9.9c-0.6-0.5-1.1-0.9-1.9-1.5c1.6-0.9,2.9-1.6,4.6-2.5   c0.4,5.7-3.2,10.1-5.1,15.3C434.1,256.9,433.8,256.4,433.4,256z" />
	<path fill="#D0BEA3" d="M434.5,257.3c1.3-3,2.6-6,3.9-8.9c0.4,0.7,0.8,1.5,1.2,2.2c-3.2,3.3-2.6,8.9-5.3,12.8c-0.3,0-0.6,0-0.9,0   C433.7,261.3,434.1,259.3,434.5,257.3z" />
	<path fill="#B5A88F" d="M470.4,272.9c0.4-2.1,0.8-4.1,1.2-6.2c1.4-1.6,1.6-6.2-0.2-7.6c3.2-2.4,1.2,2.2,3,3c-2.3,4-0.9,9.1-3,12.9   C471.1,274.4,470.8,273.7,470.4,272.9z" />
	<path fill="#867363" d="M424.8,254.9c-0.3-0.3-0.7-0.7-1-1c1.5-2.4,3-4.8,6.1-5.3C428.2,250.7,426.5,252.8,424.8,254.9z" />
	<path fill="#3A2C25" d="M412.1,258.9c-0.4,1.8-1.3-0.3-2-0.8c1.1-2.4,2.7-4.1,5.1-5.3C414.6,255.2,412.3,256.5,412.1,258.9z" />
	<path fill="#887362" d="M412.1,258.9c0.2-2.4,2.6-3.7,3.1-6.1c0.7,0.3,1.5,0.6,2.2,1C415.6,255.5,413.8,257.2,412.1,258.9z" />
	<path fill="#D2C1B1" d="M471.4,245.2c1.5,0.3,1.8-0.6,1.8-1.8c2.2,0.6,1,2.9,1.2,4.7C472.7,247.5,471.8,246.6,471.4,245.2z" />
	<path fill="#D7C0A0" d="M405.8,277.1c-0.2-1.3-0.3-2.5,0.8-3.5C406.7,274.9,407.2,276.2,405.8,277.1z" />
	<path fill="#D0BEA3" d="M440.4,250.5c0,0.6-0.1,1.2-0.1,1.8c-0.1,0-0.3,0-0.4,0c-0.1-0.6-0.2-1.1-0.3-1.7   C439.9,250.6,440.2,250.6,440.4,250.5z" />
	<path fill="#D2C1B1" d="M473.2,243.4c-0.3-0.4-0.6-0.8-0.9-1.2C473,242.3,473.4,242.7,473.2,243.4z" />
	<path fill="#D6C0A0" d="M431.9,346.9c0.4,0.1,0.9,0.1,1.3,0.2c0.2,3.6,0.9,7.2,2.1,10.6c-0.7,0-1.4,0-2,0   c-2.2-4.6-2.5-9.9-4.7-14.6c-0.6-0.1-1.1-0.2-1.6-0.3c-0.6-4.1,1-7.8,2.1-11.5C431.1,336.1,428.3,342.2,431.9,346.9z" />
	<path fill="#D6C0A0" d="M427.8,352.4c-1.7-1.6-0.8-3.6-0.9-5.4C428.6,348.6,427.7,350.6,427.8,352.4z" />
	<path fill="#D1BB9C" d="M441.9,301.7c0.8-2.5,1.4-5.1,2.1-7.7c3.6,0.7,4.9-1.2,6.1-4.3c-0.7,10.9-5.2,22.2-10.3,31.9   c-0.4-0.4-0.8-0.8-1.2-1.2C439.6,314.2,441,308,441.9,301.7z" />
	<path fill="#D3BEA0" d="M457.5,268.7c0.9,2,1.7,4.1,2.3,6.2c-2.3,2.9-1.4,8.1-3.9,11c-0.7-0.4-1.3-0.8-1.9-1.2   c-0.6,1.6-1.1,2.8-1.5,4.1c-0.4-4,0-8-0.5-12c-0.2,0-0.4,0-0.5,0c-0.1,1.2-0.2,2.4-0.3,3.6c-1.6-1.4-0.8-3.1-0.7-5   c0.7-0.2,1.4-0.3,2-0.4c1.4,1,0.6,2.7,1.2,4c-0.4,1.7,0.4,2.8,1.8,4.2c-0.2-2.4,0.7-4.4-0.8-6.2c-0.5-3.1-0.9-6.2-1.4-9.2   c0.2-0.2,0.5-0.4,0.7-0.7c0.6,1.8,1.3,3.5,2,5.3C457.1,271.2,455.8,269.3,457.5,268.7z" />
	<path fill="#534C41" d="M453.2,267.7c0.5,3.1,0.9,6.2,1.4,9.2c-0.3,0.7-0.7,1.3-1,2c-0.5-1.3,0.2-3-1.2-4c-1-5.7-2.4-11.3-3.2-17   c0.4,0,0.7,0,1.1,0C452,261.1,452.2,264.5,453.2,267.7z" />
	<path fill="#D7C0A0" d="M445,273.9c-0.4-4.6-2.2-9.5-0.2-13.9c0,2.2,0,4.5,0,7.4c1.2-1.2,1.9-1.9,2.8-2.7   C447.6,267.7,446.2,271,445,273.9z" />
	<path fill="#594E41" d="M452.2,283.5c0.2,3.1,0.4,6.2-0.1,9.2c-0.3,0.1-0.5,0.2-0.8,0.4c-2.7-3.3,0.3-6.3-0.2-9.7l0.2,0.1   C451.6,283.5,452,283.5,452.2,283.5z" />
	<path fill="#91826F" d="M452.2,283.5c-0.2,0-0.6,0-0.9,0c-0.3-2.3-0.2-4.5,0.1-6.7c0.2,0,0.4,0,0.5,0   C452.3,279,452.3,281.3,452.2,283.5z" />
	<path fill="#D3BEA0" d="M451.2,283.4c0.1,1.5,0.4,3.1-0.9,4.4C450.3,286.3,449.5,284.6,451.2,283.4z" />
	<path fill="#D1BB9C" d="M444,292c-0.1-0.4-0.2-0.7-0.2-1.1c0.3,0,0.7,0,1-0.1C444.5,291.2,444.3,291.6,444,292z" />
	<path fill="#3E392F" d="M431.9,346.9c-3.7-4.7-0.8-10.8-2.9-15.6c0.3-1.6,0.6-2.9,1.7-4.3c0.9,0.4,1.8,0.8,2.7,1.1   C431.1,334,432.1,340.7,431.9,346.9z" />
	<path fill="#C3AD91" d="M422.6,280.2c1.4-2.3,3.1,1.4,4.3,2.2c-0.4,6-0.8,12-1.2,18c-0.4,0.1-0.7-0.1-1.1,0.1c-0.3-1.8,1-4-0.8-5.4   l-0.3,0.1c-0.1-1.2-0.1-2.4-0.2-3.6c-0.2,0-0.4,0-0.6,0c-0.2,4.7,0.4,9.5-0.3,14.2C420.1,298,422.1,288.5,422.6,280.2z" />
	<path fill="#A08D76" d="M424.8,300.4c0.3,0,0.5,0,0.8,0c0,2.5,0.1,5,0.1,7.5c-0.3,0-0.6,0-0.8-0.1   C424.9,305.2,424.9,302.8,424.8,300.4z" />
	<path fill="#C3AD91" d="M426.9,282.4c0.1-1.5-0.6-3.1,0.9-4.3C427.8,279.6,428.3,281.2,426.9,282.4z" />
	<path fill="#D7C0A0" d="M429.9,279c-0.1,1.5,0.8,3.2-0.8,4.4C429.1,281.9,428.9,280.4,429.9,279z" />
	<path fill="#6E5F52" d="M436.3,259.1c0.5-1.7,1-3.4,1.4-5.1c1.9,1.3-0.1,3.4-0.3,5C437,259,436.6,259,436.3,259.1z" />
	<path fill="#D7C0A0" d="M436.4,264.4c-0.3,0.7-0.5,1.4-0.8,2.1C435.4,265.6,435.4,264.8,436.4,264.4z" />
	<path fill="#D7C0A0" d="M437.3,263.4c-0.2,0-0.6,0-0.8,0c0-0.7,0-1.3-0.1-2C437.7,261.7,437.4,262.6,437.3,263.4z" />
	<path fill="#D7C0A0" d="M439.4,261.1c-0.2,0.4-0.5,0.8-0.7,1.3C438.9,261.9,439.2,261.5,439.4,261.1z" />
	<path fill="#2C2922" d="M424.8,300.4c-0.4,5.4,0.6,10.8,0.9,16c-0.4,0-0.7-0.1-1.1-0.1c0.1-0.8,0-1.6-0.9-2.1   c0.1-6.5-1.2-12.5-1-19c0.4,0,0.7,0.1,1.1-0.1c0.3,1.8-1,4.2,0.8,5.4L424.8,300.4z" />
	<path fill="#211C17" d="M450.4,291c0.3,0.7,0.7,1.4,1,2.2c-1.3,10.8-4.6,21-9.6,30.7c-1.4,0.5-2,3-4.4,1.6   C444.3,315,447.7,303,450.4,291z" />
	<path fill="#90816C" d="M415.1,300.7c-0.3,1-0.6,1.9-0.8,2.9c-2.1-3.3-3.5-6.9-4.2-11.9C412.3,295.4,412.2,297.7,415.1,300.7z" />
	<path fill="#2A251E" d="M415.1,300.7c-0.3-0.4-0.6-0.9-1-1.3c0-2.5-0.3-5.1,0.3-7.5c0.1,0,0.3,0,0.4,0c0.2,1.9,0.6,3.8,1.2,5.7   C414.6,298.2,415.5,299.6,415.1,300.7z" />
	<path fill="#90816C" d="M414.2,303.5c0.3,0.7,0.6,1.5,0.9,2.2C414.2,305.3,414,304.5,414.2,303.5z" />
	<path fill="#D6BFA0" d="M423.6,310.3c0.1,1.3,0.2,2.6,0.2,3.9c-0.4,0.4-0.8,0.9-1.2,1.3c-7-11.8-6.9-27.6-5.3-40.6   c0.1,2.3,0.1,4.5,0.2,6.8c0.2,0,0.4,0,0.6,0c1.2-5,0.4-9.8,3.4-14.3c0.8,4.8-1.3,9.2,1.2,12.8C421.6,290.3,420.3,300.8,423.6,310.3   z" />
	<path fill="#635B4C" d="M422.6,315.5c0.4-0.4,0.8-0.9,1.2-1.3c0.9,0.4,1,1.2,0.9,2.1C423.8,316.3,423,316.5,422.6,315.5z" />
	<path fill="#CBB698" d="M473.2,305.7c-0.3,0.3-0.5,0.7-0.8,1C472.7,306.4,472.9,306,473.2,305.7z" />
	<path fill="#B5A48D" d="M467.2,284.4c2.8,0.1,1.7,3.1,3.4,4.8c-1,0.1-1.5,0.1-2.2,0.2c0,1.4,0,3,0,4.5   C466.6,290.8,467.2,287.5,467.2,284.4z" />
	<path fill="#D7C0A0" d="M466,281.4c0.2,0.3,0.2,0.6,0.2,0.9c-0.8,0.1-1.5,0.1-2.3,0.1c0,0,0,0,0,0c0-0.9,0.1-1.7,0.1-2.9   C464.9,280.3,465.5,280.8,466,281.4z" />
	<path fill="#9E8E78" d="M463.9,282.4c0.4,0,0.8,0,1.2,0c0,0.7,0,1.4,0.1,2.1C463.8,286.2,463.8,283.3,463.9,282.4z" />
	<path fill="#473F36" d="M468.2,277.1c-0.1-0.9,0-1.7,1.1-2.1C468.9,275.7,468.6,276.4,468.2,277.1z" />
	<path fill="#AA9881" d="M467.2,297.3c0.1-0.5,0.1-1,0.2-1.6C468.5,296.5,467.7,296.9,467.2,297.3L467.2,297.3z" />
	<path fill="#D7C0A0" d="M466.2,282.3c0.3,0.4,0.6,0.8,0.9,1.2C466.7,283.1,466.5,282.7,466.2,282.3z" />
	<path fill="#D7C0A0" d="M458.6,308.9c-0.2,0.2-0.3,0.4-0.5,0.5C458.1,309,458.4,309,458.6,308.9L458.6,308.9z" />
	<path fill="#F8E1C1" d="M452.1,292.8c0.1-3,0.6-5.2,1.9-8.1c0.6,0.4,1.3,0.8,1.9,1.2c2.5-3,1.6-8.2,3.9-11   c5.1,4.9-1.8,18.1-3.8,24.2C451.1,299.2,452.5,295.9,452.1,292.8z" />
	<path fill="#897E6C" d="M460.7,285.6c2.6-5.3,0-9.1-1.9-13.9c0.3-0.3,0.7-0.6,1-1c1.5,2,1.5,5.3,4,6.3c1.1,1.3,2.8,2.3,2.2,4.4   c-0.6-0.5-1.1-1.1-1.9-1.8c0.3,3.1-1.5,4.8-3,7.4C461,286.6,460.9,286.1,460.7,285.6z" />
	<path fill="#C8B89E" d="M463.8,277c-5.8-6.4-7.2-15.8-11.5-24.1C457.8,259.5,462,268.6,463.8,277z" />
	<path fill="#C6B59B" d="M453.2,267.7c-0.2-0.8-0.5-1.6-0.7-2.4c0.8-1.1,1.5-1.7,2.6-2.6c0.4,1.3,0.9,2.5,1.3,3.7   c-0.2,0.2-0.4,0.5-0.6,0.7c0.3,0.1,0.6,0.2,1,0.2c0.2,0.4,0.4,0.8,0.7,1.2c-1.7,0.7-0.4,2.5-1.6,3.7c-0.7-1.8-1.3-3.6-2-5.3   C453.7,267.3,453.5,267.5,453.2,267.7z" />
	<path fill="#C6B59B" d="M452.1,262.3c-1.1-2.8-2.1-4.3-1.7-7.7c1.9,2.7,2.5,5.2,3,7.6C452.9,262.3,452.5,262.3,452.1,262.3z" />
	<path fill="#D3BEA0" d="M452.1,262.3c0.4,0,0.9,0,1.3-0.1c0.1,0.6,0.1,1.2,0.2,1.8c-0.3,0.4-0.7,0.9-1,1.3   C452.4,264.4,452.2,263.4,452.1,262.3z" />
	<path fill="#D3BEA0" d="M456.8,267.5c-0.3-0.1-0.6-0.2-1-0.2c0.2-0.2,0.4-0.5,0.6-0.7C456.6,266.8,456.8,267.1,456.8,267.5z" />
	<path fill="#474138" d="M472.4,264.4c0.3,1,0.1,1.8-0.8,2.4C471.4,265.8,471.3,264.9,472.4,264.4z" />
	<path fill="#8B7F6B" d="M453.6,279c0.3-0.7,0.7-1.3,1-2c1.5,1.8,0.7,3.8,0.8,6.2C454,281.8,453.2,280.7,453.6,279z" />
	<path fill="#3A322A" d="M423.6,310.3c-0.5-2.2-1.4-4.4-0.7-6.6C424.3,305.5,423.5,308,423.6,310.3z" />
	<path fill="#3A322A" d="M423.6,295.2c-0.3,0-0.5,0-0.8,0c0-1.2,0-2.4,0-3.6c0.2,0,0.4,0,0.6,0C423.4,292.7,423.5,294,423.6,295.2z" />
	<path fill="#A08D76" d="M423.7,298.2c0-1,0.1-2.1,0.1-3.1c1.3,0.9,0.9,2.2,0.8,3.4C424.3,298.4,424,298.3,423.7,298.2z" />
	<path fill="#3A322A" d="M423.7,298.2c0.3,0.1,0.6,0.2,0.9,0.3c0,0.7,0,1.3,0,2C423.6,299.9,423.7,299.1,423.7,298.2z" />
</g>
</svg>