<?xml version='1.0' encoding='utf-8'?>
<svg xmlns="http://www.w3.org/2000/svg" version="1.2" baseProfile="tiny" id="Layer_1" x="0px" y="0px" viewBox="0 0 900 600" overflow="visible" xml:space="preserve">
<g id="a">
	<path fill="#020202" d="M373.1,535.6c-14.8,9.8-34.3-1.8-50.6,1.8c0,1.3,0,2.3,0,3.4c6,0.4,4.6,5.7,5,10   c-0.4,10.1,3.8,19.1,5.2,28.8c0,1.6,0.1,3,1,4.4c2.8,4,3,14.2-3.3,14.1c-14.4-0.7-28.1,5.8-42-1.6c-1.9-8.8,1.8-17.1,3-25.7   c1.1-5.7-0.4-12.3,2.1-17.6c0.4,0.4,0.8,0.9,1.2,1.3c2.7,14.1-5.5,26.7-4.3,40.6c2,0.1,3.2,1.9,5.2,1.4c11.2,3.7,21.9-2.1,33.3-0.9   c8.2-1.6,1.3-16.2,0.4-21.8c-3.9-9.4-3.8-19.1-5-28.9c-1.9,0.2-3.8,0.5-5.8,0.7c-2.7-2.7-3.6-6.2-4.1-9.7c-5-2.1-8,0.1-12.4,1.7   c-4-0.1-2.4,5.5-2.9,8.2l0,0c-1,0.7-1.8,1.5-1.8,2.8l0,0c-0.3,0.3-0.7,0.6-1,0.9c-0.3-0.3-0.5-0.6-0.8-0.9c0-0.3-0.1-0.6-0.1-0.9   c0.2-0.2,0.3-0.4,0.3-0.7c0.9-1.2,1.1-2.2,1.6-3.9c-8.7-1-18.4,0.4-25.8-4.6c0.3-1,1.1-1,1.9-1c7.7,2.5,15.6,2.6,23.7,2.6   c0.8-4.6-1.9-8.1-2.6-12.5c0-1.3,0.8-2.8-0.8-3.9c-3.2-12-13.1-19.9-16.7-31.3c0.3-0.3,0.6-0.5,0.9-0.8c1,3.1,2.5,5.9,4.9,9.4   c-1.2-7.7-2-14.6-4.7-21.6c0.3-0.3,0.6-0.6,0.9-0.9c0.6,0.3,1.2,0.6,1.6,0.8c1.4-14.2,2-28.2,7.7-41.3c0.3,0.6,0.6,1.3,0.9,1.9   c-5.1,21.3-10,45.3-0.7,65.9c7.2,5.1,8.6,21.8,11,30c5.8-2.9,11.7-6.1,17.3-1c0.4,2.8,0.7,5.8,3.4,8.4c-4.8-40.6,19.2-62,7.7-104.7   c4.6-4.1,1.6-9.6,1.3-14.8c-4.3-2.8-2.4-8.6-4.1-12.9c-0.9-4.8-5.4-5.6-9.2-7.2c-9.8-4.9-19.4,2.3-26.8,8.4c-0.3-0.3-0.6-0.7-0.9-1   c3.6-4.7,8-8.4,13.8-10.5c3-10.8-0.4-22.5,3-32.9c4.5-9.6,7-19.4,9.6-29.5c4-8.3,9.9-14.9,18.8-17.9c11-5.5,16.9-17.5,29.5-20.9   c0.4,0.4,0.7,0.7,1.1,1.1c-4.8,3.5-10.4,5.6-15,9.6c3.1,2.5,6.1,4.8,9.1,7.2c16.7-1.7,24.4,12,36,21c4.7-1.1,9,2.2,14.2,1.9   c-6.1-16.4-8.8-14.3-3-32.3c-2.5,0.3-4.7,0.7-6.4-0.9c1.9-2,6-0.9,8.5-0.3c-0.1,2.2-0.7,4.5-1,6.4c19.9,18.1,35,0.6,49.9,20.4   c-0.4,0.4-0.7,0.8-1.1,1.1c-16.9-18-27.5-3.6-43.3-15c-0.3-0.7-0.9-0.8-1,0c3.5,7.4,6.1,15.5,9.3,23.2c10.3,4.4,20.4,0.4,30.9,1.6   c15,1.4,27,13.2,41.3,15.7c-6.2-5.2-13.2-8.5-20.5-11.8c0.7-0.3,1.3-0.6,2-0.9c13.8,2.1,20.7,14.2,32.6,18.5   c15.5,6.7,35.9,1.8,45,19.3c-0.4,0.4-0.7,0.8-1.1,1.1c-11-17.6-33.7-11.5-50.4-20.2c-22-5.1-40.5-23.9-64.2-18.6   c-5.5,0.5-10.5,0.5-15.8-1.4c-59.5-9.1-18.9-26.3-76-27c-0.4-0.6,0.6-1.6-0.7-2c-26.5,12.9-23.3,15-32.4,41.2   c-16.8,26.8,14.7,39.5,34.3,23.3c0.4,0.3,0.8,0.7,1.1,1c-10.6,10.6-31.6,12.2-40.7-1.3c0.7,7.4-1.1,12.5-0.7,19.4   c13.6-0.5,23,1.3,24.7,16.2l0,0c4.3,9.8,3.2,19.7,2,29.8c3.2,12.5,4,24.8,1.9,37.2c10.5,1.7,26.8-1.1,33-10.8c0.3,0,0.6,0,1,0   c-0.1,3.2-3.5,5.9-4.7,9c-0.6-0.1-1.1-0.2-2.2-0.4c4.2,3.4-5,26.1-9.4,24.9c2.2-6.9,6.4-12.6,7.9-19.8c-9.8,4.7-19.5,7.4-30.1,7.9   c-6.4,12.7-6.2,26.4-6.6,40.1c16.2-1.5,34.5,7.3,49.6,0.1C372.5,534.9,372.8,535.2,373.1,535.6z M352.8,486.6   c2.4-0.5,4.6-1.2,6.4-3.5C356.5,483,352.4,483.7,352.8,486.6c-0.3,0-0.6,0-0.9,0c-0.1-0.5-0.2-1.1-0.3-1.6c-2,0.2-3.9,0.2-5.3,1.6   l0.1,0.1c-1.2-1.5-2.5-1-4-0.5c-0.4,0.9-0.7,1.7-0.9,2.4c-1-0.1-0.1-1.4-1.3-1.4c-0.1,0.5-0.2,0.9-0.2,1.3c-0.7,0.5-1.5,1-2.1,1.4   c-1.3-0.7,0.2-2.6-1.4-3c-1.3,0.3-0.8,1.5-1.2,2.2c-0.4,0.8-1,1.6-1.7,2.6C340.2,492.2,346.8,489.4,352.8,486.6z M406,315.3   c-0.9,3.2-1.6,5.6-2.3,8.1c4.4,5,5.7,11.2,7.9,17.3c1.6,0,3.1,1.4,5,0.6C413.7,331.6,409.5,321.1,406,315.3z M354.7,317.2   c-2.7-2.5-4.9-4.4-8.1-5.4c-0.7,1-2,1.6-1.8,2.9C347.4,317.2,350.5,318,354.7,317.2z M329.6,493.7c2.6-0.7,5.5-7.4,2.5-7.6   C331.3,488.1,330,490,329.6,493.7z" />
	<path fill="#FBDFD3" d="M407.4,306.4c-2.7-1.3-5.9,0.1-8.4-1.6c-0.5-1.1-1.3-0.9-2.2-0.8c-3.5-1.3-6.5-2.6-10-3.9   c-0.1-0.2-0.1-0.4,0-0.6c-10.7-9-12.7-7.9-14.6-22.4c-0.6,0-1.2,0-1.8,0c-0.3-0.7,0.5-1.3,0.8-1.9c-0.1-0.4-0.2-0.9-0.3-1.4   c-0.8,0-1.5,0-2.2,0c-0.4-0.8-0.8-1.6-1.2-2.5c1.1-0.3,2.1-0.5,2.9-0.7c0.4-1.6,0.7-3.1,1-4.5c0.2,0,0.5,0,0.7,0   c0.3,0.3,0.7,0.6,1,0.9c0,1.1,0,2.2,0,3.6c2.4-1,2.9-2.8,3.6-4.5c0.2-0.1,0.3-0.3,0.2-0.6c1-3.3,2.2-6.5,3.5-9.6   c3.4-2.4,4.6-6.6,6.6-10c1.2,0,2.3,0,3.4,0c2.2-1.4,2.9-2.9,3.3-5.4c2.1,1.3,2.5,1,3.8-0.9c7.1-2.4,14,2.5,21-0.4   c0.9,5.2-0.2,10,2.6,14.4c-0.3,0.9-0.5,1.8-0.7,2.6c-6.1,1.9-12.1,5-9,12.9c0.4-2.2,0.7-3.5,1-5.2c2.8,1.2,5.2-0.1,7.7-0.5   c0.8,1.1,1.2,2.3,0.9,3.7c-0.5-0.6-1-1.3-1.9-2.5C418.8,274.1,415.2,302,407.4,306.4z M398.2,289.8c0.7,2.6,5.9,1.9,4,5.7   c3.1,1.4,5.9,1,9-0.2c-0.5-1-0.8-1.7-1.2-2.5c1.3-1.3,2.8-2.5,3.7-4.1c-4-2.7-10.4,0.2-15.3-0.3   C398.4,288.9,398.3,289.3,398.2,289.8z M402.7,260.9c1.4-0.2,2.6,0.8,3.2-0.8c-0.9-5.8-14.8-5.7-17.4-1.2c2.1,0.8,3.3-1.5,5.1-1.3   c2.2,1.4,5.2,0.3,7,2.5c-3.6,0.3-8.1-0.7-10.7,2.4c4,0.6,7.6,1.2,11.3,0.6C401.7,262.4,402.1,261.7,402.7,260.9z M412.8,280.8   c0.5-1.5,0.2-1.5-0.6-2.6c-2.3,0.3-4.9-0.5-6.6,2.1c0.2,0.4,0.5,0.8,0.8,1.3C408.6,280.9,410.3,280.7,412.8,280.8z" />
	<path fill="#010101" d="M380.5,255.9c-0.6,1.5-1.2,3.1-1.9,4.6c-0.5-0.2-1.1-0.4-1.7-0.6c-0.9,1-1.7,2-2.6,3   c0.9,0.3,1.6,0.6,2.3,0.9c0,0.7,0.8,1.8,0.2,2.3c-0.7-0.3-1.4-0.6-2-0.8c-0.6,0.7-1.1,1.2-1.6,1.8c-0.3-0.3-0.7-0.6-1-0.9   c0.3-7.2-3.7-10.7-8.2-3.6c-1.9,2.8,3.1,6.2,0.8,8.1c-1.1-0.9-1.8,0.4-2.7,0.9c-0.6-1.2-1.2-2.4-1.7-3.6c2-11.7-7.3-14.6,4.3-31.5   c2.4,0.2,3.5-2.4,5.7-2.5c1.3,0.1,2.3,1.5,3.9,1c0.2-0.5,0.4-1,0.7-1.7c-1.5-0.7-3.4,0-4.3-1.5c-0.9-1.5-3.1,0-4-1.7c0,0,0,0,0,0   c0.3-0.3,0.6-0.6,0.9-0.9c0-1.1,0.2-2,0.8-2.9c2.1,0.4,2.5-2.4,3.7-3.6c0.6,0.4,1.3,0.9,2.2,1.5c4-0.2,7.7-2.8,10.9-5.2   c1.5,0.9,0.3,1.8,0.6,2.7c2.4,1,2.5-1.5,4-2.6c4.5,0.4,10.8-1.1,14.9,1.1c3.7-0.8,7.3-2.5,11.2-1.9c0.4,0.6,0.6,1.1,1.1,1.9   c1.5-1.3,3-2.5,4.7-3.9c1.1,2.7,0.2,5.2,0.3,8.1c1.8-1.3,5.1-3.5,6.5-0.9c-0.7,2.2-3.3,1.7-4.4,3.7c2,0,3.8,0,5.4,0   c1,1.1,0,1.7,0,2.4c0,0.7,0.1,1.5,0.1,2.5c-9.3,4.5-8.6,5.4-10.3,14.7c-0.2-2.4-0.5-4.8-0.8-7.5c-3.3,1-6.4,1.9-9.5,0.1   c0-0.3,0-0.6,0-0.9c0.8-0.3,0.9-0.6,0-0.9c1.1-0.9,1.5-1.1,1.7-2.7c-1.4,0.3-2.5,0.5-3.8,0.7c-1.3-0.7-2.9-1.5-4.7-1   c-0.1,0-0.4-0.4-0.5-0.6c1.1-0.5,1.9-1,1.5-2.5c-1.4,0.5-1.6,1.4-1.6,2.5c-0.8-0.1-1.7-1.5-2.8,0.3c3.2,1.6,6.7,3,10.2,3.4   c0,0.3,0,0.6,0,0.9c-1,0.1-2.1-0.5-2.8,0.7c-3,0.2-5.8-0.8-8.8,0.4c-0.8,0.6-1.3,2.6-2.3,1.6c0.2-3.1-3.9-3.8-5.9-5.7   c-1.1,1.2-2.1,2.2-3.4,3.6c5.6-2.6,10.1,3.6,4.4,6.8c-1.1,0-2.2,0-3.4,0c-1.4-0.9-1.3-3-3.5-2.5c-0.6,3.4-1.6,7.1-4.2,9.9   C379.8,254.2,380.2,255,380.5,255.9z M370.4,249.4c-0.1-0.5-0.2-1.1-0.3-1.6c-2.6-0.8-3.5,4.4-1.3,5.1   C370.1,252.1,368.8,250.1,370.4,249.4c0.2,0.5,0.4,1,0.6,1.4c1-0.5,1.2,0.6,1.7,0.9c1-0.4,1.9-0.7,2.9-1.1c0.2,1.1,0.4,2,0.5,2.9   c2.6-2,2.6-2,2-4.7c1.4-2.2,1.4-2.2,0.7-3.8c-1.3,1.5-1.8,3.2-3.7,4c-1-0.7-1.9-1.3-2.9-2C371.7,247.9,371,248.7,370.4,249.4z    M384.7,231.8c-4.4,3.8-4.4,3.8-4.6,5.3C382.8,236.2,384.3,234.6,384.7,231.8z M427.7,228.2c-1.9,0.6-3.3,1-4.6,1.4   c-0.2,1.7,0.2,1.9,1.2,3.3C425.4,231.3,426.4,230.1,427.7,228.2z M384.2,224.3c-4.6,2-4.6,2-5.2,3.4c1.3-0.2,2.6-0.5,3.9-0.7   C383.3,226.3,383.6,225.7,384.2,224.3z M399.8,224.5c-0.9,1-1.6,1.9-1.5,3.5c1.5-1,2.8-1.9,4.7-3.3   C401.4,224.6,400.6,224.6,399.8,224.5z M418.6,221c-1.1,1.9-2.3,2.7-1.6,4.3C419.2,224.1,419.2,224.1,418.6,221z M405.6,230.8   c1.8-0.2,2.4-0.8,2.3-2.3C406.3,228.5,405.6,229.1,405.6,230.8z M413.3,237c1.2,1.2,1.2,1.2,2.9,1   C414.9,236.7,414.9,236.7,413.3,237z M393.1,223.4c-0.1-1.3-0.1-1.3-1.4-1.2C392.2,222.7,392.6,223,393.1,223.4z" />
	<path fill="#050303" d="M387.3,475.4c15.1,2.5,30.8,2.2,44.6,9.8c7.5,3.9,16.2-0.6,23.1,5.7c21.8-1.3,45.8,5.4,66.7-3.8   c-0.6-0.8-1.2-1.6-1.7-2.5c0.3-0.3,0.7-0.6,1-0.9c15.7,7.1,17.7,14.7,6.4,28c10.5-3.6,19.8-2.6,30.5-3.5c0.9-2.5,1.4-5.4,2.9-7.8   c2.1,3,0.6,7.4-1.3,10.3c-7.7,2.6-15.5-1.7-23.1,1.5c-4.1,0.9-9.5,3.8-12.4-0.7c-46.5,9.4-27.8,17.7-82.4,11   c-0.3-0.8-0.6-0.7-0.9,0c-1.2,0-2.9,0.6-3.7-0.8l0.3-0.2c1,0,1.9,0.5,2.5-0.6c19.5-1.7,39.4,6.1,57.7-4.4c8.5-4.4,17.9-6.3,27.2-8   c1.3-0.3,2.8-0.6,3.5-2.3c-0.1-5.2,0.9-11.7-3-15.9c-19.7,7.1-40.3,2.1-60.6,3.7c-10.6,1.9-17.2-7-28.4-4.4   c0.5,1.1,0.8,1.7,1.1,2.4c-0.4,0.4-0.7,0.7-1.1,1.1c-2-1.5-3.8-3.3-4.6-5.8c-2.3-0.3-4.6-2.2-6.7-0.7c-11.8-7.7-28.3-5.3-41.4-10.1   C384.4,475.4,385.9,475.5,387.3,475.4z M532,494.9c-1.2-1.3-1.4-1.6-3.1-3.5c0.3,1.6,0,2.3,0.9,2.7c0.7,2.4-0.2,6.4,1.5,8   C532.4,499.6,534.2,497.3,532,494.9z" />
	<path fill="#040303" d="M507.8,396.3c-22.3-19.6-55.6-1.7-81-14.8c-9.7-0.7-18.5,0.4-27.2,4.7c-6.2,2.8-10.8-1.9-16.5-3.1   c-11-0.1-21.7-4-32.1-5.1c-0.6-4.1-7.9-1.6-11-2.3c0-0.7-0.1-1.1-0.1-1.6c10.1-2.9,18.7,4.2,28.6,4.4c19.2,3.9,38.1,0.4,57.3,0.1   c32,12.9,68.8-0.9,101.4,8.4c0,0.3,0,0.6,0,0.8c-8.6,0.1-17-1.4-25.6-1.1c-1.4-1.1-3-0.9-4.6-0.6c3.5,3,8.6,4.1,11.9,8.1   c1.1-0.9,2-1.7,3.2-2.7c1,2.9-1.6,3.6-2.4,5.5l0,0C509.1,396.9,508.5,396.6,507.8,396.3z M391.5,383.7c2.7,0.8,5.4,1,8.7-0.1   C396.9,382.9,394.2,383.3,391.5,383.7z" />
	<path fill="#040404" d="M279,478.4c-0.3,0.3-0.6,0.6-0.9,0.9c-0.4-0.5-0.9-1-1.4-1.5c-0.4,0.2-0.9,0.4-1.4,0.7   c-1.9-9.2-3.1-18.4-4.4-27.8c0.4-0.5,0.9-1,1.5-1.6c0-2.4,0.4-3.7-1.2-6c-6,12.9-5.7,26.9-10.5,40c-1.3,1.3-1.3,1.3-0.1,2.8   c0.1,1.8,0.1,3.7,0.2,5.5c-0.3,0-0.6,0-1,0c-0.2-1.4,0.2-3-0.6-4.2c-0.8,1.7-2.2,3-2.1,5.1c-8.1,9.7-2.3,23.3,4.6,32.3   c-0.3,0.4-0.7,0.7-1,1.1c-20.8-15-1.2-38.2,1-57c2-21.5,12.6-41.7,26.7-57.6c0.3,0.3,0.6,0.7,0.9,1c-2.1,7.7-9.7,12.7-12.8,20.2   C271.7,442.8,274.6,467.5,279,478.4z" />
	<path fill="#060506" d="M430.4,525.3c-16.9,1.8-33.5,7.6-50.4,6.8c-0.4-0.3-0.8-0.7-1.2-1c16.3-10,31.8-22,41.5-38.8   c1,0.3,0.8,1.2,0.9,1.9c-8,15.5-20.3,27.6-36,35.6C400.1,530.8,415.4,521.2,430.4,525.3z" />
	<path fill="#090708" d="M521,483.9c-0.3,0.3-0.7,0.6-1,0.9c-0.8-0.7-1.6-1.3-2.6-2.2c8.6-9.2,25.3-26.5,17.2-39.7   c1.8-5.2,7.4-10.9,13-7.7c-0.3,0.3-0.6,0.6-0.9,0.8c-2.1,0.4-4.1,0.9-6,1.3c-1.5,2.1-2.4,3.6-3.3,5.8c3.5,4.7,3.2,10.5,1.1,15.5   c0.7,1.1,1.3,1.9,2.2,3.1c-2,0.4-3.4-0.9-4.6,0.7c1.4,1.2,3.9,1.1,4.3,3.5c-2.2,1.6-4.1-1.7-6.4,0.3c2.1,0.9,4.9,1.6,4.1,4.6   c-2-0.3-6.3-3.5-6.6-0.4c1.4,1.5,6.7,2.7,4.4,5.1c-2.1-0.1-7.1-3.8-7.3,0.1c1.4,1.6,7.6,2.8,5.7,5.6c-2.9-0.6-5.6-2.1-8.2-3.5   c-2.1,1.7-4.6,2.7-6.2,4.8C520.3,482.9,520.6,483.4,521,483.9z" />
	<path fill="#181514" d="M566,406.4c4.9,6.8,3.8,15,4.9,22.7c-2,2.4-4,0.9-5.8,0.2c-1.2,1.8-1.6,2.1-3.3,3   c-2.4-2.6-2.4-2.6-3.3-16.6c-1.4,2-2.5,3.7-3.7,5.3c-0.3-0.3-0.6-0.7-0.9-1c5.9-7-2-16.6,1-20c1.5,5.3,2.6,10.8,5.6,15.5   c-0.2,11-0.2,11,1.4,13.9c2-2,2.2-16.8,0.3-19c-1.8-3.7-4.8-7.5-3.1-11.9c1.8,3.3,1.9,6.6,4.2,8.8c0.2,1.2,0.7,2.3,1.9,2.7   c0.3,6.1-0.8,12.3,1.5,18.3c0.6,0,1.3,0,1.6,0c-0.6-6.4,1.3-13.1-3.2-18.2c0-1.2-0.1-2.4-0.1-3.7   C565.3,406.4,565.7,406.4,566,406.4z" />
	<path fill="#141111" d="M538.6,423.3c-0.1,3.5-3.9,3.6-5.2,6.4c-1.8,3.2-6.5,0.1-9.1-0.5c-2.5-3.1-1.9-6.9-2.8-10.7   c-1.7,1.1-3.5,3.9-5.4,2c7.1-5.3,3.7-7,3-14c0.6,0.1,1.1,0.3,1.7,0.4c1.1-2.4-1.3-2.8-2.6-4.3c0.5-2.5,0.8-4.1,2.6-6.3   c2.6,9.2,2,23.9,5.1,31c1.8,0,1.8,0,2.5-1.6c1.4,1,0.6,2.9,2.8,3.5c2-2.6,0.4-6.6,2.8-9c0.3,0.3,0.6,0.7,0.9,1   c0.1,1.1,0.2,2.2,0.3,4c1.1-1.5,1.8-2.3,2.4-3.2C537.9,422.5,538.3,422.9,538.6,423.3z" />
	<path fill="#0C0B0B" d="M424.8,381.5c0.7,0,1.4,0,2,0c-1.2,11.2-7.3,21.2-15.2,29.1c-3.9,4.3-10.5,4.8-12.6,10.6   c-0.6,0-1.2,0-1.9,0c0.3-6.6,9.2-8.1,12.7-12.7C416.4,400.6,423.2,391.7,424.8,381.5z" />
	<path fill="#1B1A1A" d="M407.4,306.4c7.7-4.4,11.4-32.4,11.7-41.8c0.9,1.2,1.4,1.8,1.9,2.5c0.8,7.4-5.3,39.9-13.7,40.6   C407.4,307.3,407.4,306.9,407.4,306.4z" />
	<path fill="#1D171E" d="M387.3,475.4c-1.5,0.1-2.9,0-4.1,1.1c-2.9-1.8-4.2-5.3-6.8-7.1c-0.8,0.2-1.6,0.7-2.3,1.2   c1.2,3.1,1.1,3.1-0.8,4c-0.3-1.2-0.6-2.3-0.8-3.3c-2-0.8-2.9,0.6-4.1,1.6c-0.7,0-1.3-0.1-2-0.1c5.8-6.4,8.5-14.8,13.9-21.1   c0.3,0.3,0.6,0.6,0.9,0.8c-3.6,5-5,10.7-9.2,15.6c2.1-0.3,3.8-0.6,5.3-0.9c1.9,2.6,3.5,5,5,6.9C384.5,474.7,385.9,475,387.3,475.4z   " />
	<path fill="#1A1514" d="M419.4,246.7c1.4-2.3,0.8-5.1,1-7.6c1.9,4.6-0.5,10.4,2.8,14.6c-1,3.4-1.9,6.6-2.9,9.8   c-2.5,0.4-4.9,1.7-7.7,0.5c-0.3,1.6-0.6,3-1,5.2c-3.1-7.9,2.9-11,9-12.9c0.2-0.9,0.5-1.7,0.7-2.6   C420.1,251.4,418.9,249.3,419.4,246.7z M415.4,260.7c0,0.2-0.1,0.4-0.1,0.7c1.2,0,4.6,1.1,3.5-1.3   C417.7,260.3,416.6,260.5,415.4,260.7z" />
	<path fill="#1B1A1B" d="M381.4,452.5c-0.3-0.3-0.6-0.6-0.9-0.8c8.4-8.5,12.6-19.5,16.7-30.5c0.6,0,1.2,0,1.9,0   C395,432.4,391.7,445.4,381.4,452.5z" />
	<path fill="#141011" d="M294.9,554.4c-0.4-0.4-0.8-0.9-1.2-1.3c0.1-0.5,0.1-1.1,0.2-1.6c0.3-0.1,0.5-0.2,0.7-0.3   c0.3,0.1,0.5,0.3,0.8,0.4c0.2-0.6,0-0.9-0.5-1.2c-0.1-0.3-0.1-0.6-0.2-1c0.2-0.2,0.2-0.4,0.2-0.7c0.3,0,0.5-0.1,0.8-0.2   c0.8,0.7,1,1.5,1.3,2.6c6.6-2.9,16.3-6.1,22.5-1.2C311,549.7,302.3,551.5,294.9,554.4z" />
	<path fill="#221E1D" d="M548.6,418.4c-1.5,2.8-1.6,6.2-5.2,7.3c-0.5-0.4-1-1-1.6-1.6c6.5-3.7,6.4-11.3,7.4-18.4   c-0.4-0.7-1-1.9-1.6-3.1c0.9-0.3,0.9-1,0.9-1.8c2.5,3.5,3.6,7.6,4.9,11.7c-0.4,1.3-0.8,2.6-1.2,3.9c-0.3-0.3-0.6-0.6-0.9-1   c0-1.4,0.4-2.8-0.7-4.6C549.1,413.6,549.5,416.2,548.6,418.4z" />
	<path fill="#080706" d="M366.4,290.2c-1.2,0.1-2.3-0.2-3.1-1.5c0.6-1.3,3.5-2,1.4-3.3c0.7-3,1-8.5,5.4-5.5   c0.7,4.4-0.8,8.6-1.8,12.9C368,291.8,367.3,290.9,366.4,290.2z" />
	<path fill="#1E1918" d="M566,406.4c-0.6,0-1.2,0.1-1.7-0.1c-0.4-2.4-0.9-4.8-1.3-7.2c-2.9-2.8-5.1-6.2-8.9-7.3   c-1.3-2.1-2.4-3.8-3.8-5.7c0.4-0.4,0.7-0.8,1.1-1.1C558.2,392.7,566.7,395,566,406.4z" />
	<path fill="#2A2728" d="M546.7,435.9c0.3-0.3,0.6-0.6,0.9-0.8c6.6,4.3,18.9,19.6,14.9,27.8c-0.1-0.8,0-1.7-0.9-2   C561,451,553.3,442.5,546.7,435.9z" />
	<path fill="#311A19" d="M370.2,279.9c-4.4-2.9-4.7,2.5-5.4,5.5c-2.1-4.3-1.8-9.2-2.7-13.9c2.3-2.6,3.2-0.1,4.3,1.8   c-0.6,0.9-1,1.6-1.4,2.2c2.2,1.4,3.7-0.6,5.5-0.3c-0.1,0.3,0,0.6,0.1,0.9C370.1,277.3,370.5,278.7,370.2,279.9z" />
	<path fill="#242324" d="M561.5,460.8c2.4,2.8-1.8,12.2-2.4,17.3c0.6,1.8,1.9,5.7,2.5,8c-0.3,0.8-0.6,1.6-1,2.3   c-5-8.2-3.2-16.4-0.1-24.9C562.1,463,560.9,461.7,561.5,460.8z" />
	<path fill="#272423" d="M517.3,419.2c-0.4,0.4-0.8,0.9-1.2,1.3c-3.9-3.2-2.6-9.4-7.1-12.5c-0.4-3.9-0.8-7.9-1.2-11.8   c0.7,0.3,1.3,0.6,2,0.9c0.1,1.3-0.3,2.7,0.8,3.8c0.3,2.1,0.2,4.5,0.2,6.5C514.7,410.8,515.2,415.2,517.3,419.2z" />
	<path fill="#3A3432" d="M538.6,423.3c-0.3-0.4-0.7-0.8-1-1.2c0.6-2,1.2-3.9,1.8-5.9c-0.7-0.6-1.3-1-1.8-1.5l0,0   c0.3-0.3,0.6-0.6,0.9-1c0.4-0.1,0.9-0.2,1.6-0.4c0.7-3.2,1.3-6.5,2-9.8c0.4,0,0.9,0,1.4,0c0.6,3.1,2.4,6.2,2.2,9.2   c-0.3,0-0.5,0-0.8,0c-0.5-1.3-1-2.6-1.7-4.5C541,413.7,541.6,418.7,538.6,423.3z" />
	<path fill="#1F1818" d="M455.3,334.4c0.4-0.4,0.7-0.8,1.1-1.1c5.6,4.8,10.2,12.3,17.6,13.9C465.8,350.9,460.4,339.1,455.3,334.4z" />
	<path fill="#15191F" d="M260.4,525.5c0.3-0.4,0.7-0.7,1-1.1c3.5,4.9,6.4,10.1,11.9,13.1c-0.8,0-1.6,0-1.9,1   C265.5,537,263.8,530,260.4,525.5z" />
	<path fill="#3A3838" d="M366.7,230.1c0.9,1.7,3.1,0.1,4,1.7c0.9,1.5,2.8,0.8,4.3,1.5c-0.3,0.7-0.5,1.2-0.7,1.7   c-1.6,0.5-2.6-0.9-3.9-1c-2.2,0.1-3.4,2.7-5.7,2.5c-0.1-0.3-0.1-0.6,0.1-0.8c0.9-0.3,0.9-0.6,0.1-0.9c0.1-0.4,0.1-2.4-0.1-3   C365.4,231.2,366,230.6,366.7,230.1z" />
	<path fill="#343333" d="M551.3,415.5c0.3,0.3,0.6,0.6,0.9,1c-0.2,2.6-0.7,5.2-0.5,7.8c0.2,0,0.4,0,0.6,0.1c0.4-1.5,1-3,1.7-4.3   c0.3,0.3,0.6,0.7,0.9,1c0,2.3-2.2,7.8-5,5C549.5,422.4,549.6,418.9,551.3,415.5z" />
	<path fill="#2D2D2E" d="M560.7,488.5c0.3-0.8,0.6-1.6,1-2.3c1.7,5.3,1.2,11.7,0,17.3c-0.5-0.9,0.3-2.2-0.9-2.9   C560.4,496.5,560.4,492.5,560.7,488.5z" />
	<path fill="#D3D6D6" d="M540.3,420.2c0.9-3.8,1.4-7.7,3-11.9c0.7,1.9,1.2,3.2,1.7,4.5c-1.2,2.5-2.4,4.9-3.6,7.4   C540.9,420.2,540.6,420.2,540.3,420.2z" />
	<path fill="#291F1F" d="M430.4,525.3c-1.7-1.1-3.8-0.9-5.7-1c4.1-1.1,8.4-0.5,12.2-2.6c0.6,1.4,1.9,0.6,2.8,0.9   C436.8,524.4,433.6,524.9,430.4,525.3z" />
	<path fill="#2C2827" d="M366.4,290.2c4,2.9,1.2,8.3-2.5,10.1c-0.4-0.4-0.7-0.7-1.1-1.1c0.8-0.7,1.6-1.3,2.6-2.1   C365.5,294.9,367.1,292.7,366.4,290.2z" />
	<path fill="#322D2B" d="M541.3,420.2c1.2-2.5,2.4-4.9,3.6-7.4c0.3,0,0.5,0,0.8,0c0.4,3.3-2.4,6.2-3.4,9.3c-0.3,0-0.7,0-1,0   C541.3,421.5,541.3,420.8,541.3,420.2z" />
	<path fill="#2E2222" d="M372.2,222.7c-1.2,1.2-1.6,4.1-3.7,3.6c2.7-2.1-1.7-2.9-0.7-5.5C369.5,220.9,371.3,220.4,372.2,222.7z" />
	<path fill="#999A9A" d="M551.3,415.5c-0.6,1.6-1.2,3.2-1.7,4.7c-0.3-0.6-0.6-1.2-1-1.8c0.9-2.3,0.5-4.9,1.9-7.5   C551.7,412.7,551.3,414.2,551.3,415.5z" />
	<path fill="#191E27" d="M378.7,531c0.4,0.3,0.8,0.7,1.2,1c-2.3,1.2-4.5,2.3-6.8,3.5c-0.3-0.3-0.7-0.6-1-1   C374.3,533.4,376.5,532.2,378.7,531z" />
	<path fill="#2A2728" d="M561.6,467.6c0-1.1-0.6-2.2,0.7-3C562,465.5,561.8,466.6,561.6,467.6z" />
	<path fill="#311A19" d="M364.8,285.5c1.1,1,1.1,1-0.1,1.8C364.7,286.6,364.8,286.1,364.8,285.5z" />
	<path fill="#BBBCC8" d="M294.6,549.4c0.1,0.3,0.1,0.6,0.2,1c-0.2,0.2-0.3,0.5-0.2,0.8c-0.2,0.1-0.5,0.2-0.7,0.3   C293.6,550.6,293.7,549.9,294.6,549.4z" />
	<path fill="#221E1D" d="M541.3,422.1c0.3,0,0.7,0,1,0c0.1,0.4,0.2,0.7,0.3,1.1c-0.3,0.3-0.5,0.7-0.8,1   C540.9,423.7,540.9,422.9,541.3,422.1z" />
	<path fill="#BBBCC8" d="M295.6,548.5c-0.2,0.1-0.5,0.2-0.8,0.2c0.2-0.4,0.4-0.8,0.6-1.1C295.5,547.9,295.5,548.2,295.6,548.5z" />
	<path fill="#010101" d="M364.9,234.7c0.9,0.4,0.8,0.7-0.1,0.9C364.8,235.3,364.8,235,364.9,234.7z" />
	<path fill="#3A3838" d="M367.6,229.2c-0.3,0.3-0.6,0.6-0.9,0.9C367,229.8,367.3,229.5,367.6,229.2z" />
	<path fill="#291F1F" d="M440.5,522.6c0.3-0.7,0.6-0.8,0.9,0C441.1,522.6,440.8,522.6,440.5,522.6z" />
	<path fill="#BBBCC8" d="M296.5,545.8c-0.2,0.4-0.5,0.8-0.7,1.1C296,546.5,296.3,546.2,296.5,545.8z" />
	<path fill="#FBDFD3" d="M550.3,386.1c1.5,1.9,2.5,3.6,3.8,5.7c3.7,1.2,6,4.5,8.9,7.3c0.4,2.4,0.9,4.8,1.3,7.2   c-0.4,0.3-0.7,0.7-1.1,1c-2.3-2.2-2.4-5.5-4.2-8.8c-2.8,6.4,5.3,11,4.2,17c-2.3,2.9-0.5,7.8-1.1,11.5c-2.2-3.4,1-8.5-1.7-11.5   c-3-4.8-4.1-10.2-5.6-15.5c-1.1-2.6-1.6,0.6-2.5,0.3c-1.8-1.5-3.6-2.9-5.4-4.4c-0.3-0.9-0.7-1.9-0.9-2.6   c-8.4-3.1-10.4-10.9-18.5-13.3c-0.4,0.2-0.8,0.3-1.2,0.5c-17.1-3.3-34.5-3.1-51.8-3.6c-14.7,2.3-31.3,3.2-43.4-7.7   c-13.4,4.5-28.9,7.1-42.7,3.5c4.2-1.8,8.4-3.6,11.6-7.1c1.1,0,2.4,0.6,2.8-1.4c-8.4-4.4-16.7,0.5-25.6-0.3   c-4.1-0.2-7.1,1.2-8.3,5.7c-5.8-1.5-12.9-0.8-17.5-4.4c4.6-2.7,24.6-6.6,20.8-13.3c0,0,0,0,0,0c-6.9-4-15.2-2.5-22.7-0.8   c-6.1,1.3-13.5-0.6-17.8,5.2c0,1.3,0,2.7,0,3.9c-2.2,2.5-2.8,6-6,7.5c-0.3,0.2-0.5,1.5-0.2,2.1c1.9,4.1,7.7,2.1,10.8,4.3   c-0.2,0.5-0.4,1-0.6,1.6c1.7-0.1,1.7-0.1,1.6-1.6c1.2-1.2,1.7-1.2,2.8,0.1c0,0.5,0,0.9,0.1,1.6c3,0.1,6-0.3,9,0.3   c0.2,0.4,0.4,0.7,0.7,1.1c-6.8,6.9-15.9,12.5-25.9,10.5c-3-11.9-5.3-22.9-3.1-34.9c4.2-4.7,1.6-11.1,4-16.5c1.2-3.6,2.9-7,3.3-10.9   c5.1-2.9,10.7-5.3,15.4-8.4c1.3,0.5,0.3,1.4,0.7,2c57.1,0.7,16.5,17.9,76,27c5.3,1.9,10.3,2,15.8,1.4c23.7-5.3,42.2,13.4,64.2,18.6   C516.6,374.5,539.3,368.5,550.3,386.1z M335.1,324.2c-1.1,0.5-1.1,1.2-0.3,2c1.6,0.3,2.9-0.4,4.1-1.2c1.1-0.5,2.6-0.2,3.9-1.9   C339.9,323.5,337.2,322.5,335.1,324.2z M426.3,359.5c5.1,3.8,9.9,0,14.1-3.2C437,355.4,428.9,356.8,426.3,359.5z M431.2,363.5   c2.9,3.6,8.2,2.5,12.9,1.2c-2.9-1.5-6.5-0.9-9.6-2.5C433.1,361.6,432.5,362.6,431.2,363.5z M446,365.5c1.7,2.1,1.7,2.1,3.8,0.7   C448.7,364.7,448.7,364.7,446,365.5z M548.5,392.3c1.1,1,2.1,1.9,3.5,3.1C551.7,392.5,551.7,392.5,548.5,392.3z M446.6,356.2   c-1.7-1.6-3.7-2.6-3.6,0.3C443.9,356.5,444.8,356.4,446.6,356.2z M463.9,367.7c1.7-0.1,2.6-0.2,3.7-0.3   C465.9,365.7,465.9,365.7,463.9,367.7z M452.2,366.2c1.6,0.8,2.6,0.9,3.1-0.7C454.1,364.6,453.1,364.4,452.2,366.2z M404.9,364.3   c0.7,1,2.7-0.1,1.6-1.2C405.9,363.5,405,363.7,404.9,364.3z M461.9,367.1c0.3-1.7-1.9-1.6-2-0.3C460.3,368,461.1,367.7,461.9,367.1   z M344.9,324.2c0.8-0.1,1.4-0.1,2.2-0.2C345.8,322.3,345.8,322.3,344.9,324.2z M545.6,389.4c0.4,0.6,0.6,1.3,1.4,0.8   c-0.3-0.4-0.5-0.9-0.8-1.3C546.1,389,545.9,389.2,545.6,389.4z M541.9,384.7c0.4,2.2-0.1,2.3,2.2,2   C543.3,385.9,542.9,385.6,541.9,384.7z M332.6,374.9c-0.3,0.3-0.5,0.5-0.7,0.6c0.3,0.3,0.6,0.5,0.9,0.8   C333.6,375.7,333.1,375.4,332.6,374.9z M350.3,322.6c0,0.2,0,0.4,0,0.6C351.9,323.1,351.9,322.6,350.3,322.6z M450.5,355.8   c0.7,1.2,2,1.1,1.8,0.1C451.8,355.8,451.3,355.8,450.5,355.8z M355.4,322.7c-0.1-0.1-0.2-0.2-0.3-0.3c-0.2,0.3-0.5,0.6,0,0.9   C355.2,323,355.4,322.9,355.4,322.7z" />
	<path fill="#CCD2E9" d="M397.2,421.1c-3.7,14.7-13.5,25.5-21.3,37.7c-7.2,16.8-23.9,28.5-42.4,24.7c3.4-14.3-1.2-27.5-1.7-41.6   c0.6-8.4,5.8-19.6-2.2-25.4c0,0,0,0,0,0c0.1-1.1,0.1-2.1,0.2-3.4c19.4,9.8,1.6-15.7-6.6-14.6c0.7-2.4,1.3-4.6,1.8-6.2   c1.4-1.1,3-0.1,3.7-1.6c5.7-1.1,10.9-3.4,15.7-6.5c1.7,2.8,1.7,6.6,3.8,9.5c0,0.9-0.6,2.1,0.8,2.5c6.4,9.4,30.6,19.9,38.2,10   c-2.1,0.2-3.5,0.3-5.9-0.2c2.2-0.9,4.1-1.1,5.2-2.8c-3.2-4.2-7.2-3.6-11.2-5.3c-7.1-3.6-14.6-9.1-16.9-17.1   c9.4,0.2,19.7,1.1,28.8,3.7c3.8,2.5,7.9,3.2,12.2,1.7c8.1-3.9,16.2-5.6,25.2-4.8c-1.6,10.2-8.4,19.2-14.9,26.9   C406.4,413,397.5,414.5,397.2,421.1z M359.2,463.5c0.4-0.1,0.9-0.2,1.3-0.3c1.2-4.2,5.4-7,4.9-11.7   C362.4,454.9,360.8,459.4,359.2,463.5c-1.3,0.7-2.4,1.5-2.5,3.5C359.2,466.7,359.5,465.3,359.2,463.5z M376.9,435.9   c-3.1,3.8-8,8.2-9,12.8c7.3-2.8,14.5-20.3,15.9-26.5C380.7,426,379.4,431.5,376.9,435.9z M391.6,401.7c-1.1,0.5-1.7,1.2-1.7,2.5   c3.2,0.1,5.5,2.6,8.5,3c2.5-3.6,1.7-6-3-9.9C391.5,397.2,391.7,398.4,391.6,401.7z M376.9,413.8c-6.7-0.7-13.3,3-18.7,6.4   c6.7,0.5,11.4-5,18-5.5C376.3,414.6,376.4,414.4,376.9,413.8z M347.4,430.9c0.9-1.7,2.6-2.8,2.2-4.9   C347.6,427.2,346.8,428.6,347.4,430.9z M339.5,415.4c-1.2,2.4,0.8,3,2.2,1.6C340.8,416.3,340.2,415.9,339.5,415.4z M354.6,422.7   c0-0.2,0-0.3,0-0.5c-0.6,0-1.1,0-1.7,0c0,0.2,0,0.3,0,0.5C353.4,422.7,354,422.7,354.6,422.7z" />
	<path fill="#FBDFD3" d="M294.5,408c7.3-8.6,25.9-7.9,30.6,2.7c1.8,4.3-0.2,10.1,4.1,12.9c0.3,5.3,3.4,10.8-1.3,14.8   c11.5,42.2-12.5,64.4-7.7,104.7c-2.8-2.6-3-5.6-3.4-8.4c-3.4-3.1-7.3-2.6-11.4-2.9c-6.9-22.4-18.1-43.9-14.6-67.5l0.2,0.1   c0,0-0.2-0.1-0.2-0.1c2.4-2,0.6-6.1,1.1-9c1.8-7.1,4-17.5-0.7-24c-3.6-0.5-5,2.7-5.1,5.8c-1.4,0.4-2.6,0.9-4,1.3   C282.7,427.5,288.6,417.1,294.5,408z M295.6,411.9L295.6,411.9c-2,1-3.2,2.7-4.5,4.1c-1.4,6.1,3.9,10.6,7.5,14.1   c7.6,26.4,11-3.9-1.2-17.4c1-1.1,2.1-1.9,2-3.5C297.3,409.2,296.5,410.7,295.6,411.9z M321.5,409.9c-0.1-0.5-0.2-1.1-0.3-1.6   c-1.8,0-1.3,1-1,1.8c1,2.7-0.2,5.5,2,8.7C322.9,415.4,322.7,412.6,321.5,409.9z M319.3,455.5c0.6-3.8,3.5-8,2.8-11.6   C319.3,446.1,318.1,450.3,319.3,455.5z M314.9,526c-1.3,2.4-1.7,4.7,0.7,5.9C316.3,528.6,316.3,528.6,314.9,526z M314.4,515.4   c-1.3,2.1-0.8,3.7,0.1,5.9C316,519.1,316,517.4,314.4,515.4z M314.4,507.9c-0.9,1.6-0.7,2.7,0.2,3.9   C316.3,509.8,316.3,509.7,314.4,507.9z M320.2,419.2c-1.1,2.9-1.1,2.9,0,4.3C320.9,422.2,321.1,421,320.2,419.2z M317.2,478.4   c-0.8,1.2-0.8,2.3,0,3.6C318.6,479.6,318.6,479.6,317.2,478.4z M317.2,472.5c1.4-1.2,1.4-1.2,0.9-3.1   C316.8,470.5,316.8,470.5,317.2,472.5z M319.3,461.1c-2.1,1.6-2.1,1.6-0.7,4.1C318.8,463.7,319,462.4,319.3,461.1z M319.8,430.6   c-0.4,0.7-1.6,0.9-0.7,2.1C320.3,433.4,321.3,431.5,319.8,430.6z M319.1,427.5c0.7-0.9,0.9-1.5,0.2-2.2   C318.3,425.8,318.4,426.5,319.1,427.5z" />
	<path fill="#5876E8" d="M368.6,472.9c1.1-1,2.1-2.4,4.1-1.6c0.2,1,0.5,2.1,0.8,3.3c1.9-0.9,2-1,0.8-4c0.6-0.6,1.5-1,2.3-1.2   c10.2,14.4,31.5,8.8,46.5,15.5c-4.3,14.5-16.5,26.3-28.3,35.2c-8.2-1.4-16.6,2.9-24.3,1c14.8-8.6,32.3-16.5,42.7-30.2   c-10.8,6.8-21.1,21.9-35.3,18.2c7.8-6.1,16.4-9.8,23.5-16.9c-7.7,3.7-14.1,8.1-21.6,12.1c-0.5-0.1-1.1-0.2-1.7-0.4   c3.5-6,12.6-5.8,13.3-13.5c-2.5,0.1-4.5,1.6-6.6,1.7c-0.3-0.4-0.5-0.6-0.6-0.9c0.2-0.8,0.3-1.6,0.5-2.3   c-11.3,13.9-28.8,20-42.4,31.6c-4.3-2-7,0.9-10.8,2.2c0-1.1,0-2.2,0-3.8c-1.2,2-1.2,2-1.2,3.6c0.4,0.1,0.9,0.1,1.3,0.2   c-1,0.8-1.9,1.8-2.8,2.8c-1.7,0-3.2,1.8-5.2,0.4c-1.6-10.7,0.9-21.6,5.5-31.5c10.6-0.5,20.3-3.1,30.1-7.9   c-0.5,8.8-8.4,11.7-11.9,18.7l0,0c-2.8,1.6-7.1,7.2-2.6,9.1c0,0,0,0,0,0c6.3,4.1,14.7-15,20.2-18.3c3.8,4.1,12.2-17,11.7-16.4   c-2.6,2.4-3.7,5.4-5.5,7.9c-1.2-0.6-0.4-1.9-0.8-2.7c0.3-2.7,2-5.7,0.3-8.2c0.1-2.2-1.6-0.7-2.9-0.9c0,0,0.1,0.1,0.1,0.1   c-0.1-0.3-0.2-0.7-0.3-1C367.8,474,368.1,473.4,368.6,472.9z M334.2,511.5c2.3-9.7,2.3-9.7,1.5-12.6c-2.1,2.1-1.4,6.7-2.5,9.6   c-1.1,1.7-0.9,3.5-0.6,5.4C334.1,513.6,334.3,512.6,334.2,511.5z M379.3,480.2c0.4,4.9-1.3,9.5-2.9,13.7   C380.9,494.8,382.4,481.4,379.3,480.2z" />
	<path fill="#4B65C5" d="M273.4,537.4c-11.7-9.4-25.1-26.7-18.4-42.4c3,4.6,1.4,9.4,5.7,14.2c-0.2-7.4-6-15.2-2-21.5   c0.3,0,0.5,0.1,0.8,0.1c0.3,7.7,1,16,5.1,22.7c-6.8-22.7-1.4-45.4,6.5-67.5c1.6,2.3,1.3,3.6,1.2,6c-0.5,0.6-1,1.2-1.5,1.6   c4.2,17.3,1.5,37.6,11.4,52.2c2.2,1.1,2.8,2.9,3.7,4.9c2.3,6.4,8.8,11.6,7.6,18.9c-2,1.7-13.7,4.8-11.9,7.2   c4.3-1.9,8.9-3.7,12.9-6.3c0.6,4.4,3.4,8,2.6,12.5C289,540.1,281.1,540,273.4,537.4z M270.5,497.4c0-6.8,1.8-26.5-4-27.8   C269,478.9,266.8,488.6,270.5,497.4z M276.6,514c-1.8-5.1-3.7-8.5-5.8-10.2C270.4,505.9,274.3,514.6,276.6,514z M260.4,514.8   c-0.6-2.1-0.7-4.5-3.7-6.4C257.1,511.7,258.3,513.5,260.4,514.8z M294,534.6c-0.9,0.5-1.8,0.9-3.1,1.5   C292.7,536.9,293.6,536.3,294,534.6z M278.8,516.7c-0.1-0.1-0.2-0.2-0.2-0.3c0,0.2,0,0.4,0,0.5   C278.6,516.9,278.7,516.8,278.8,516.7z" />
	<path fill="#E4E4EB" d="M305,551.5c4.7-1.5,9.4-1.8,14.5-1.6c-6.7-6.4-17.2,1.7-22.1-1.4l0,0c1.4-0.5,2.1-1.3,1.8-2.8c0,0,0,0,0,0   c2-1.8,0.7-4.9,1-7.4l0,0c0.8,0.1,1.5,0.1,1.9-0.8c4.4-1.6,7.4-3.8,12.4-1.7c0.6,3.5,1.4,7.1,4.1,9.7c2-0.3,3.9-0.5,5.8-0.7   c0.4,13.6,4.4,26.4,7.4,39.5c2.2,3.6,1.4,7-0.4,10.4c-1.1-0.1-2.5,0.4-3.5,0c0-0.8,0.1-1.6-1-1.8c0,0,0.1,0,0.1,0   c0.3-3.9-25.3-3.7-26.7-1.9l0,0c-1.2-0.1-2.3-0.3-3.5-0.4c3.5-25.6-8.9-28.5,21.1-31.1c-4.4-3.6-8.9-1.9-13.9-1.7c0-0.3,0-0.7,0-1   c5-2.1,9.4-1.6,15-2c-3.5-3.8-8.4-2.4-13-2.4C305.6,552.1,305.3,551.8,305,551.5z M313.5,563.8c-4.4-1-14.4-1.5-14.1,3.7   C303.8,567.5,311.2,565.7,313.5,563.8z M301.2,572.2c3.3,1.3,11.4,1,12.3-2.6C309.2,569.6,304,568,301.2,572.2z" />
	<path fill="#EDCABA" d="M289.9,476.2c0.3,3.3,0.6,6.5,0.9,9.8c-0.5-0.7-0.9-1.3-1.7-2.4c-0.1,3.5-1.3,7.7,1.4,9.5   c1.2-2.3,0.2-4.4,0.4-6.5c1.1,0.5,1,1.5,0.9,2.4c-0.3,3.6,0.8,6.9,2.5,10c5.2,10.4,6,22.2,11,32.7c0.8,0.1,1.6,0.2,2.3,0.2   c-2.6,1.2-5.3,2.4-8.1,3.7c-2.5-8.2-3.8-24.9-11-30c-10.5-22-2.7-47.7,1.2-69.8c-1.6,0.1-1.5,1-1.4,1.9   c-5.8,13.1-6.3,27.1-7.7,41.3c-0.4-0.2-1-0.5-1.6-0.8c-4.4-10.8-7.3-35.6-2.8-46.3c2.6-7.2,10.6-11.7,12.2-19   c1.2-2.3,4.3-3.4,6.2-5.1c-5.9,9.1-11.8,19.5-12.5,30.4c1.4-0.5,2.6-0.9,4-1.3c0.3-2.4,0.6-4.8,3.2-5.7c0,1.1-0.4,2.4,1.7,2.4   c0.1-0.9,0.2-1.7,0.3-2.5c4.9,6.1,1.8,14.4,1.6,21.4c-1.8-0.7-3,2.1-0.9,2.6c-0.5,2.9,1.3,7-1.1,9c0.1-0.7,0.1-1.4,0.2-2.9   c-2.1,1.3-2.3,2.4-0.2,2.9c0.1,1.3,0.1,2.7,0.2,4c-1.8-0.1-2.6,1.8-0.9,2.7c0,0.9,0,1.8,0,2.7C288.2,473.8,288.5,475.5,289.9,476.2   z" />
	<path fill="#4B65C5" d="M331.5,522.6c3.7-1.3,6.5-4.1,10.8-2.2c10.4-7,20.3-16,31.8-20.9c-6.6,8.1-15.3,12.9-24,18.1   c4.2,0.6,7.9-4,12.1-4.3c0.3,0.5,0.7,0.9,1.1,1.4c-5.1,3.4-11.1,4.6-17.5,7.6c11.8-0.3,21.6-8.4,32-13.4c3.3,1.8,6.8,0.1,10.2-0.2   c-8.7,6.1-18.8,10-27.6,16.1c3.3,0.2,6.5-3.1,10-3.9c7.7,2,16.1-2.3,24.3-1c-32.3,25.9-35.6,15-72.2,14.4c0.2-3.6-0.6-6.9,0.7-10.1   c0.2,0.6,0.3,1.1,0.4,1.5c2,1.3,3.5-0.5,5.2-0.4c-0.6,1-1.2,2-1.8,3.1c1.6-0.1,1.6-0.1,2.8-2.3c-0.3-0.3-0.6-0.5-0.9-0.8   C329.7,524.4,330.5,523.4,331.5,522.6L331.5,522.6z M360.8,528.9c0-0.2-0.1-0.4-0.1-0.5c-8.6,1.7-17.3,1.3-25.8,3.1   C343.6,532.4,352.6,531.7,360.8,528.9z" />
	<path fill="#FADFD3" d="M455.3,334.4c3.8,3.8,6,8.6,10,12.2c-0.4,0.3-0.6,0.5-0.8,0.7c-14.7-6.2-29.5,0.1-44.2-4.7   c-2.9-7.4-5.7-14.6-8.5-21.9c0.1-0.4,0.2-0.9,0.2-1.3c2.7,1.7,5.4,3.4,8.2,4.9c0.8,1.5,0,2.2-1.2,3.3c3.1,0.4,3.1,0.4,3.8-2.6   C435.1,324.1,446.3,324.8,455.3,334.4z M419.7,330.2c-0.5-0.6-0.7-0.9-1-1.2C416.9,330.3,417.7,331.2,419.7,330.2z" />
	<path fill="#EDCABA" d="M364,300.3c5.8-3,4.4-10.4,6.5-15.8c0.3,0,0.5,0,0.8,0c0.1,0.3,0.1,0.6,0.2,0.9c-0.3,0.8,0,1.5,0.7,2   c0.1,0.9,0.2,1.8,0.3,2.9c4.8,2.8,8.9,9.3,14.5,9.8c2.2,0.2,3.3,2.3,5.6,1.9c0.3,0,0.7,0.5,1,0.7c-0.6,0.1-1.1,0.3-2.2,0.6   c4.6,2.5,8.7,5.1,14.1,4.3c-2.2,7.7-3.5,15-5.4,22.2c-4.3-3.5-9.8-5.5-13-10.2c0.5-0.2,1.1-0.3,2.1-0.6c-0.7-0.6-1-0.9-1.7-1.6   c-0.2,1-0.3,1.5-0.4,2.1c-6.9-4.5-10-12.1-14.2-18.3c-1.3,2.8-1.5,6-4.2,7.9c-2.7-0.4-2.4-3.2-3.5-4.6c-2.9,0.1-5.7,0.1-8.4,0.2   C359.2,303.5,361.6,301.9,364,300.3z M381.6,301.9c0.4,0.6,0.8,1.2,1.3,2c0.7-1.4,0.5-2.3-0.3-3c-0.1-0.6-0.2-1.1-0.4-1.7   C380.2,299.2,381.4,300.9,381.6,301.9z M398.9,313c-1,0.7-1.4,1.6-1.4,2.7c1.6,0.2,1.9-0.8,2.4-1.7c1.6-1.1,3.1-2.2,2.6-4.9   C399.9,309.3,399.8,311.1,398.9,313z M385.1,310.1c0.5-1.4,0.5-1.4-0.8-2.2C384,308.8,384.1,309.6,385.1,310.1z M386.5,315.6   c0.6-2,0.2-2.7-0.8-2.2C385.8,313.9,386,314.3,386.5,315.6z" />
	<path fill="#FADED2" d="M387,319.7c3.2,4.7,8.7,6.6,13,10.2c0,1,0,2,0,3.6c2.1-2,2-4.4,2.9-6.3c2.6,4,3.6,8.2,5.4,12.8   c-5.2,0.4-9.5-2.9-14.2-1.9c-11.6-9-19.3-22.7-36-21c-3-2.4-6-4.7-9.1-7.2c4.6-4.6,9.7-5.7,16-5.3c1.1,1.4,0.8,4.1,3.5,4.6   c2.7-1.9,2.9-5.1,4.2-7.9C376.9,307.5,380,315.1,387,319.7z M400.7,334.8c-0.3,0-0.5,0-0.7,0C400.3,335.2,400.4,335.2,400.7,334.8z   " />
	<path fill="#EDCABA" d="M327.9,325.3c-5.9,20.7-11.8,40.9-4.2,62.3c2,0.1,4.1,0.2,6.2,0.3c-20,4.1-30-13.5-19-29.9   C316.4,347.3,315.7,331.4,327.9,325.3z" />
	<path fill="#B7BDD5" d="M348.4,393.7c-2.1-2.9-2.1-6.7-3.8-9.5c5.3-6.7,9.1-7.9,16.7-3.8c-0.9,0.1-1.8,0.3-2.7,0.4   c2.3,8,9.8,13.4,16.9,17.1c4,1.7,8,1.1,11.2,5.3c-1.1,1.7-3,1.9-5.2,2.8c1.3,0.2,2.1,0.3,2.8,0.5c-3,2.5-6.2-1.9-9.3,0.7   c-6.1,0.8-14.9-6.9-19.4-4.5c-1.2-1.2-2.5-2.4-3.7-3.6c0.3-0.2,0.7-0.5,1.3-1c-1.1-1.7-2.2-3.2-3.3-4.8   C349.2,393.5,348.8,393.6,348.4,393.7z M348.1,387c-1.2,1.2-0.8,1.9,0.1,2.7C349.4,388.7,349.5,388,348.1,387z" />
	<path fill="#B6BCD4" d="M328.8,390.7c-0.7,1.5-2.3,0.5-3.7,1.6c-0.5,1.7-1.1,3.8-1.8,6.2c8.2-1.1,26,24.5,6.6,14.6   c-0.1,1.3-0.1,2.3-0.2,3.4c-1.7-14.9-11.1-16.7-24.7-16.2c-0.4-6.9,1.3-12,0.7-19.4C310.8,389,320,390.9,328.8,390.7z M330.9,404.4   c-0.8,4,0.8,7.6,4.6,7.2C333.1,409.7,333.2,406.8,330.9,404.4z M336.4,412.8c-0.3,0.2-0.5,0.4-0.8,0.7   C336.8,415,337.8,414.2,336.4,412.8z" />
	<path fill="#CBCCD9" d="M298.4,563.2c-2.3,8.3-0.5,18.5-1.7,27.4c1.2,0.1,2.4,0.3,3.5,0.4c-2.4,1.4-7.6,0.9-7.5,4.5   c-0.7-0.2-1.4-0.4-2.2-0.6c-1.1-13.9,7-26.5,4.3-40.6c1.2-1.7,3.4-0.9,5.2-1.4c0.3,0.3,0.7,0.6,1,1c-1.1,1-4.2,2.2-2.2,4   c1.6-0.3,3.3-0.7,5-1.1c0,0.3,0,0.7,0,1c-2,1.3-4.9,1.5-6.1,4.2C298,562.5,298.2,562.8,298.4,563.2z" />
	<path fill="#C6CCE3" d="M406,315.3c3.5,5.8,7.7,16.3,10.6,26c-1.9,0.8-3.4-0.5-5-0.6c-2.2-6.1-3.5-12.3-7.9-17.3   C404.4,320.9,405.1,318.4,406,315.3z" />
	<path fill="#4A64C3" d="M361.1,499.5c-3.3,3.5-11.6,18.8-16.5,14.7c3-0.7,5.6-3.1,5.2-6.4c-2.2,2.3-3.9,4.1-5.2,6.4   c-4.4-1.9-0.2-7.5,2.6-9.1c0.3,0.8,0.7,1.2,1.7,0.2c-0.7-0.1-1.2-0.2-1.7-0.2c1.7-4,5.1-6.6,8.3-9.2c-1.5,3.4-2.9,7-4.3,10.4   c3.3,0.9,4.1-4.8,6.2-6.7C358.7,499.5,359.9,499.5,361.1,499.5z" />
	<path fill="#C3C3D1" d="M318.5,595.5c-7.6,2-15,3.3-22.7,0.9c-0.2-0.4-0.5-0.7-0.7-1.1c9.4-5.6,20.4-2.6,30.5-0.9   C323.2,594.8,320.8,594.7,318.5,595.5z" />
	<path fill="#ECD6CA" d="M464.5,347.3c0.2-0.2,0.4-0.4,0.8-0.7c-1.8-1.8-3.6-3.2-4.5-5.6c3.6,2.7,6.1,7.8,11.1,7.1   c6.3,3.1,13,5.6,18.4,10.3c-0.3,0.3-0.6,0.6-1,0.9C480.7,356,472.3,352.4,464.5,347.3z" />
	<path fill="#445DB5" d="M276.2,488.5c0-0.3,0-0.7,0-1c0.6-0.4,1.1-0.8,1.5-1.1c-0.1-2.4-1.4-4.4,0.2-6.1c3.7,6.4,3.1,13.3,4.8,20.6   C279.1,496.4,279.2,492.2,276.2,488.5z" />
	<path fill="#4A68CC" d="M351.8,487.3c-3.1,0.9-13.2,6.7-11.7-0.1c1.2-0.1,0.4,1.3,1.3,1.4c0.2-0.6,0.6-1.5,0.9-2.4   c1.5-0.5,2.9-1,4,0.5c-0.3,0-0.5,0.1-0.5,0.4c1.3-1.8,3.5-1.9,5.7-2.1C351.8,485.8,352,486.5,351.8,487.3z" />
	<path fill="#AFB4C7" d="M354.7,317.2c-4.2,0.8-7.3,0-9.8-2.5c-0.2-1.3,1.1-1.9,1.8-2.9C349.8,312.7,352,314.7,354.7,317.2z" />
	<path fill="#3F56A9" d="M359.4,499.5c-0.6,0-1.3,0-1.9,0.1c1.4-5.2,5.1-10.2,4.5-15.7c0.8,0.8,1.3,1.7,1.8,2.7   C362.8,491.2,361.8,495.6,359.4,499.5z" />
	<path fill="#221616" d="M441.4,325c-6.2,0-12.5,0-18.7,0c-0.7,3-0.7,3-3.8,2.6c1.1-1.1,1.9-1.8,1.2-3.3   C427,325,435.2,322.7,441.4,325z" />
	<path fill="#ACAFC5" d="M329.7,416.6c4.9,3.6,5.2,9,3.7,14.9C332.4,426.4,331.3,421.5,329.7,416.6z" />
	<path fill="#1C203D" d="M294.5,527.5c-4,2.6-8.6,4.4-12.9,6.3c-1.8-2.4,9.9-5.5,11.9-7.2c0.1-1.2,0.2-2,0.2-2.9   C295.3,524.6,294.5,526.1,294.5,527.5z" />
	<path fill="#463135" d="M318.5,595.5c2.3-0.8,4.7-0.6,7.1-1c-3.1-1.5-6.5-0.7-9.8-1.5c2.5-0.2,5.1,0.2,7.4-0.9   c1.2,0.3,2.5,0.6,3.7,0.9l-0.1,0c0.1,0.8-0.2,1.7,1,1.8c0.2,0.2,0.5,0.2,0.8,0.1c0.1,0.2,0.2,0.4,0.4,0.6   C325.5,595.5,322,595.5,318.5,595.5z" />
	<path fill="#4B68CC" d="M363.7,486.6c-0.9-2.1-2.1-2.8-2.9-5.2c1.1,0.2,1.6,0.3,2.2,0.4c1.2-2.1,2.4-4.2,3.7-6.3   c0.3,0,0.7,0.1,1,0.1l-0.1-0.1C366.3,479.2,365,482.9,363.7,486.6z" />
	<path fill="#3C3538" d="M302.9,592c-2.6,1.1-5.2,2.2-7.9,3.3c0.2,0.4,0.5,0.7,0.7,1.1c-1.2,0.5-2-0.3-3-0.8   c-0.1-3.6,5.1-3.1,7.5-4.5l0,0c0.9-0.1,1.7-0.2,2.6-0.2l0.2,0.2C303,591.3,303,591.7,302.9,592z" />
	<path fill="#3F5BB3" d="M339.9,488.5c0.1,0.9,0.1,1.7,1.2,2.1c-2.3,1-4.6,2.1-7.6,1.1c0.7-1,1.2-1.7,1.7-2.6c0.4-0.7,0-1.9,1.2-2.2   c1.6,0.4,0.1,2.3,1.4,3C338.4,489.4,339.1,489,339.9,488.5z" />
	<path fill="#283464" d="M278,480.2c-1.6,1.8-0.3,3.8-0.2,6.1c-0.4,0.3-1,0.7-1.5,1.1c-0.5-3-0.9-6.1-0.9-9.2c0.5-0.2,1-0.5,1.4-0.7   c0.5,0.5,0.9,1,1.4,1.5C278.1,479.6,278,479.9,278,480.2z" />
	<path fill="#384D96" d="M329.6,493.7c0.4-3.6,1.7-5.6,2.5-7.6C335.2,486.2,332.2,493,329.6,493.7z" />
	<path fill="#302628" d="M351,378c-1.6,1.4-3.1,2.8-4.7,4.3c-0.4-0.3-0.8-0.7-1.1-1c1.5-1.4,2.9-2.8,4.4-4.2   c-0.2-0.4-0.4-0.7-0.7-1.1C350.7,376.1,350.7,376.1,351,378z" />
	<path fill="#2C1514" d="M398.9,306.7c-2.9-1-5.1-1.3-7.7-3.4c1.1-0.3,1.7-0.4,2.2-0.6c2.5,1,5,1.7,7.4,2.9   C400.1,305.9,399.2,305.8,398.9,306.7z" />
	<path fill="#4A4440" d="M402.9,327.2c-1,1.9-0.8,4.2-2.9,6.3c0-1.6,0-2.6,0-3.6c1.8-1.8-0.2-4.8,1.6-6.8   C401.9,324.5,401.2,326.6,402.9,327.2z" />
	<path fill="#3B55A6" d="M352.9,486.7c-0.5-3,3.7-3.7,6.4-3.6C357.4,485.5,355.2,486.2,352.9,486.7L352.9,486.7z" />
	<path fill="#BBBCC8" d="M300.2,538.4c-0.3,2.4,1,5.5-1,7.4C299.6,543.3,298.5,540.2,300.2,538.4z" />
	<path fill="#3B2E2B" d="M288.3,437.8c-0.1-0.9-0.2-1.8,1.4-1.9c0.8,1.4,0.6,2.6-0.4,3.8C288.9,439.1,288.6,438.5,288.3,437.8z" />
	<path fill="#BBBCC8" d="M297.4,548.5c0.6,1.3,1.9,0.7,2.8,1c-1,0.5-2.1,1-3.3,1.7c-0.2-0.7-0.4-1.2-0.5-1.7   C296.7,549.1,297.1,548.8,297.4,548.5z" />
	<path fill="#283464" d="M276.2,488.5c1.2,0.6,1.4,1.8,1.7,2.9c-0.3,0.3-0.6,0.5-0.9,0.8C275.5,491.3,276.4,489.8,276.2,488.5z" />
	<path fill="#96857E" d="M489.4,359.4c0.3-0.3,0.6-0.6,1-0.9c0.6,0.5,1.3,0.9,2.1,1.5C491,360.6,490.1,360.3,489.4,359.4z" />
	<path fill="#BBBCC8" d="M299.2,545.7c0.3,1.5-0.5,2.4-1.8,2.8C297.4,547.2,298.2,546.3,299.2,545.7z" />
	<path fill="#C3C3D1" d="M329,595.4c-0.1-0.2-0.3-0.4-0.4-0.6c0.9-0.1,1.8-0.1,2.8-0.2C330.9,595.9,329.8,595.1,329,595.4z" />
	<path fill="#ADA69D" d="M412,319.4c-0.1,0.4-0.2,0.9-0.2,1.3C410.7,320,410.9,317.8,412,319.4z" />
	<path fill="#BBBCC8" d="M302.1,537.5c-0.4,0.9-1.1,1-1.9,0.8C300.5,537.4,301.3,537.4,302.1,537.5z" />
	<path fill="#192140" d="M368.6,472.9c-0.3,0.4-0.6,0.7-0.9,1.1c0-0.4-0.1-0.7-0.1-1.1C368,472.8,368.3,472.9,368.6,472.9z" />
	<path fill="#192140" d="M367.6,475.6c-0.3,0-0.7-0.1-1-0.1c0.2-0.3,0.5-0.6,0.7-0.9C367.5,475,367.6,475.3,367.6,475.6z" />
	<path fill="#3B55A6" d="M351.8,487.3c0-0.2,0-0.5,0.1-0.7c0.3,0,0.6,0.1,0.9,0.1l-0.1-0.1C352.5,486.9,352.2,487.1,351.8,487.3z" />
	<path fill="#201918" d="M402.7,260.9c-0.5,0.8-1,1.6-1.5,2.3c-3.7,0.6-7.3,0-11.3-0.6c2.6-3.1,7-2.1,10.7-2.4   c-1.7-2.2-4.7-1.1-7-2.5c-1.9-0.2-3.1,2.1-5.1,1.3c2.6-4.6,16.5-4.7,17.4,1.2C405.3,261.6,404,260.6,402.7,260.9z" />
	<path fill="#201816" d="M370.5,275.4c-1.8-0.3-3.3,1.7-5.5,0.3c0.4-0.6,0.8-1.3,1.4-2.2c-0.5-0.8-1-1.8-1.6-2.7   c1.5-0.5,0.3-1.8,0-2.8c1.5-0.3,1.5-2.6,2.7-3.5c-0.9-1.6-1.8-2.5-3.5-1.9c0.6-2.3,2.7-2.9,4.4-3.9c0.2,5.9,5.2,3.5,2,12   c-0.8,0.2-1.8,0.4-2.9,0.7c0.4,0.9,0.8,1.7,1.2,2.5c0.7,0,1.4,0,2.2,0c0.1,0.5,0.2,0.9,0.3,1.4C371,275.3,370.8,275.3,370.5,275.4z    M369.2,266.8c-1.3,1.1-1.8,2.9,0.2,2.1C369.4,268.4,369.3,267.9,369.2,266.8z" />
	<path fill="#271E1C" d="M371.4,285.4c-0.1-0.3-0.1-0.6-0.2-0.9l0.3,0.1c0.5-0.9,1-1.8,1.5-2.8c0.7,2.8,1.4,5.6,2,8.3   c3.9,3.3,8.5,5.8,11.8,9.5c-0.1,0.2-0.1,0.4,0,0.6c-5.5-0.6-9.6-7.1-14.5-9.8C372.2,288.4,372.1,287,371.4,285.4z" />
	<path fill="#221E1C" d="M410.1,292.8c0.4,0.8,0.7,1.5,1.2,2.5c-3.1,1.2-6,1.7-9,0.2C402.6,291.2,407,291.8,410.1,292.8z" />
	<path fill="#29201E" d="M398.2,289.8c0.1-0.4,0.2-0.9,0.3-1.4c4.9,0.5,11.3-2.4,15.3,0.3c-0.3,0.4-0.6,0.9-0.9,1.4   C407.9,289.6,403,290.8,398.2,289.8z" />
	<path fill="#111312" d="M380.5,255.9c-0.3-0.8-0.7-1.6-1.1-2.7c2.3-2,2.6-5.2,3.8-7.5c0.1,0.5,0.2,0.9,0.3,1.3   c0.9-0.8,1.7-1.5,2.5-2.2c0.3,0.3,0.7,0.7,1,1C385.1,249.3,383.9,253.5,380.5,255.9z" />
	<path fill="#DAC3B4" d="M398.2,289.8c4.8,1.1,9.7-0.1,14.6,0.3c-0.9,0.9-1.8,1.8-2.8,2.7c-2.7-0.8-5.3-1.6-7.4,0.9   C402,291.3,398.6,292.1,398.2,289.8z" />
	<path fill="#373A3A" d="M393.3,242.1c-1.3-3.9-3.4-4.1-7.3-3c1.3-1.4,2.2-2.4,3.4-3.6c2,1.9,6.1,2.6,5.9,5.7   c-0.5-0.2-1-0.4-1.6-0.7C393.6,241,393.5,241.5,393.3,242.1z" />
	<path fill="#3E2F2D" d="M412.8,280.8c-2.4-0.1-4.2,0-6.3,0.8c-0.3-0.5-0.5-0.9-0.8-1.3c1.6-2.7,4.3-1.8,6.6-2.1   C413,279.3,413.2,279.3,412.8,280.8z" />
	<path fill="#BBACA3" d="M371.4,266.1c0-0.6,0-1.2,0-1.8c-1.2-1.8-3.7-2.9-3-5.6c4.1-0.4,3.1,4.8,3.7,7.4   C372,266.1,371.6,266.1,371.4,266.1z" />
	<path fill="#1E201F" d="M373.2,267c0.5-0.5,1-1.1,1.6-1.8c0.6,0.3,1.3,0.5,2,0.8c-0.7,1.7-1.2,3.6-3.6,4.5   C373.2,269.2,373.2,268.1,373.2,267z" />
	<path fill="#1E201F" d="M377,265.5c-0.1-0.6-0.3-1.1-0.4-1.7c-0.7-0.3-1.4-0.5-2.3-0.9c0.9-1.1,1.8-2,2.6-3   c0.7,0.2,1.2,0.4,1.7,0.6C378.1,262.2,377.5,263.8,377,265.5z" />
	<path fill="#C7AEA4" d="M371.2,284.5c-0.3,0-0.5,0-0.8,0c-0.1-2.5-0.3-5,0-7.4c0.6,0,1.2,0,1.8,0c0.2,2.6-1.4,4.9-0.7,7.5   L371.2,284.5z" />
	<path fill="#6A5B55" d="M371.5,284.6c-0.6-2.5,0.9-4.9,0.7-7.5C374.3,278.9,372.7,282.6,371.5,284.6z" />
	<path fill="#1E201F" d="M409.1,238.4c0,0.3,0,0.6,0,0.9c-0.9-0.1-1.9-0.1-2.8-0.2C407.1,237.9,408.2,238.5,409.1,238.4L409.1,238.4   z" />
	<path fill="#EDCABA" d="M399,304.8c-0.7-0.3-1.5-0.5-2.2-0.8C397.7,303.9,398.5,303.8,399,304.8z" />
	<path fill="#C7AEA4" d="M370.5,275.4c0.2,0,0.5-0.1,0.7-0.1c-0.2,0.3-0.4,0.7-0.6,1C370.5,276,370.5,275.7,370.5,275.4z" />
	<path fill="#EDCABA" d="M386.9,299.6c-0.3-0.4-0.6-0.8-0.9-1.2C386.3,298.8,386.6,299.2,386.9,299.6z" />
	<path fill="#1B1C1C" d="M370.4,249.4c0.7-0.8,1.3-1.5,2-2.3c1,0.7,1.9,1.4,2.9,2c1.8-0.8,2.4-2.5,3.7-4c0.6,1.7,0.6,1.7-0.7,3.8   c0.7,2.7,0.7,2.7-2,4.7c-0.2-0.9-0.3-1.8-0.5-2.9c-1,0.4-1.9,0.7-2.9,1.1c-0.6-0.3-0.7-1.4-1.7-0.9   C370.8,250.4,370.6,249.9,370.4,249.4L370.4,249.4z" />
	<path fill="#1E201F" d="M409.2,237.4c-3.5-0.4-7-1.9-10.2-3.4c1.1-1.8,2-0.4,2.8-0.3c0.2,0.2,0.4,0.7,0.5,0.7   c1.8-0.5,3.4,0.3,4.7,1c1.3-0.2,2.4-0.4,3.8-0.7C410.6,236.3,410.2,236.6,409.2,237.4L409.2,237.4z" />
	<path fill="#CCB1A3" d="M364,262.5c1.7-0.7,2.6,0.3,3.5,1.9c-1.1,0.8-1.2,3.2-2.7,3.5C364.1,266.2,363.1,264.5,364,262.5z" />
	<path fill="#2F3131" d="M384.7,231.8c-0.3,2.8-1.9,4.4-4.6,5.3C380.3,235.5,380.3,235.5,384.7,231.8z" />
	<path fill="#272727" d="M370.4,249.4c-1.6,0.7-0.3,2.6-1.7,3.5c-2.2-0.6-1.3-5.9,1.3-5.1C370.1,248.4,370.3,248.9,370.4,249.4   L370.4,249.4z" />
	<path fill="#2F2E2E" d="M427.7,228.2c-1.3,1.9-2.3,3.2-3.4,4.7c-1-1.4-1.4-1.6-1.2-3.3C424.4,229.2,425.8,228.8,427.7,228.2z" />
	<path fill="#252A2A" d="M384.2,224.3c-0.7,1.4-1,2-1.3,2.7c-1.3,0.2-2.5,0.5-3.9,0.7C379.7,226.3,379.7,226.3,384.2,224.3z" />
	<path fill="#333535" d="M399.8,224.5c0.8,0.1,1.6,0.1,3.2,0.2c-1.9,1.3-3.2,2.2-4.7,3.3C398.2,226.4,399,225.5,399.8,224.5z" />
	<path fill="#2A2D2D" d="M386,244.8c-0.8,0.7-1.5,1.4-2.5,2.2c-0.5-1.1-0.2-2.6,0-3.7C385.1,243,385.6,243.8,386,244.8z" />
	<path fill="#292828" d="M418.6,221c0.6,3.2,0.6,3.2-1.6,4.3C416.3,223.6,417.6,222.9,418.6,221z" />
	<path fill="#1F1F1F" d="M405.6,230.8c0-1.8,0.7-2.4,2.3-2.3C408.1,230,407.4,230.7,405.6,230.8z" />
	<path fill="#1F2323" d="M413.3,237c1.6-0.2,1.6-0.2,2.9,1C414.5,238.2,414.5,238.2,413.3,237z" />
	<path fill="#1E201F" d="M401.8,233.7c0-1.1,0.2-2,1.6-2.5C403.7,232.7,402.8,233.3,401.8,233.7L401.8,233.7z" />
	<path fill="#292C2C" d="M393.1,223.4c-0.5-0.5-0.9-0.8-1.4-1.2C393,222.1,393,222.1,393.1,223.4z" />
	<path fill="#1E201F" d="M409.1,237.4c0.9,0.3,0.8,0.6,0,0.9l0,0C409.2,238.1,409.2,237.8,409.1,237.4L409.1,237.4z" />
	<path fill="#FBDFD3" d="M402.7,518.1c9-9.1,17.7-19.3,22-31.5c2.1-1.5,4.4,0.4,6.7,0.7c1.5,3.5,4.4,6.5,7.3,8.6   c-0.5,3.9,4.5,5.9,7.7,5.4c10.3-3.6-0.9-10.9-7.7-7.3c-1.3-1.4-2-2.4-2.7-4.4c11.3-2.5,17.8,6.3,28.4,4.4c20.3-1.6,41,3.4,60.6-3.8   c2.2,2.1,2.8,5,2,7.8c-5.7-0.8-10.2,1.1-14.5,4.3c-0.4,2.3,2,1.4,3.4,2.2c-38.3,12.3-27,15.8-69.8,9.1c0.5-1.3,1.1-2.7,1.6-4   C443.8,497.1,424.9,525.4,402.7,518.1z M454.9,508.6c4,1,8.9-1.1,11.3-4.2C462,504.7,457,504.5,454.9,508.6z M472.6,503.6   c-1.6-1.6-2.1-1.6-3.1,0.4C471.1,504.2,471.1,504.2,472.6,503.6z M475.9,503.3c1.4,0.1,4.6,0.4,3-1.7   C477.6,501.3,476.4,501.1,475.9,503.3z M487.4,503.2c-0.9-2.8-2.8-2.2-3.6,0C485.2,503.2,486.1,503.2,487.4,503.2z" />
	<path fill="#E4E4EB" d="M560.4,495c0.1,1.9,0.2,3.7,0.2,5.6c-0.3,0.6-0.7,1.2-1,1.8c-8,2.7-17.1,0-24.8,4c-1.3,0.4-2.7,2.1-3.9,0.6   c10.4-13.5-2.5-17.7-11.2-24.7c1.6-2.1,4.1-3.1,6.2-4.8c2.7,1.4,5.3,3,8.2,3.5c1.9-2.7-4.3-3.9-5.7-5.6c0.2-3.9,5.2-0.2,7.3-0.1   c2.3-2.4-3-3.6-4.4-5.1c0.3-3.1,4.6,0.1,6.6,0.4c0.8-1.9-0.6-2.6-1.5-3.5c1.2-1,2.8-0.5,3.8-1.4c-0.3-2.3-2.9-2.2-4.3-3.5   c1.1-1.6,2.6-0.3,4.6-0.7c-0.9-1.2-1.4-2.1-2.2-3.1c2.2-5,2.5-10.8-1.1-15.5c0.9-2.2,1.8-3.7,3.3-5.8c1.9-0.4,3.9-0.9,6-1.3   c4.6,3.2,6.9,8.4,10.3,12.7c-2.7,5.5,0.5,12.2-2.4,17.9c-4.9,8.5-1.5,16.6,5,22.8C559.7,491.2,559.2,493.3,560.4,495z" />
	<path fill="#EECABA" d="M402.7,518.1c22.2,7.3,41.1-21,45.1-8.4c-0.5,1.3-1.1,2.7-1.6,4c42.9,6.7,31.6,3.2,69.8-9.1   c-0.7-0.2-1.3-0.4-1.8-0.6c0.3-0.4,0.5-0.9,1-1.6c-1.2,0-1.9,0-2.6,0c4.2-3.1,8.8-5.1,14.5-4.3c0.1-0.7,0.3-1.6,0.4-2.5   c5.8,20.1-13.7,10.4-30.1,20.9c-18.9,11.4-40.3,1.3-59.9,5.1c-13,4.3-27.6,2.9-41,7.1c-3.8,0.9-7.3,2.1-11.4,1   C391.7,526.3,397.4,522.4,402.7,518.1z M526.4,500.1c-1.7-0.4-2.5,0.1-3.4,1.2C525.2,501.4,525.2,501.4,526.4,500.1z M518.7,502.2   c0-0.2,0-0.4,0-0.6C517.1,501.7,517.1,502.2,518.7,502.2z" />
	<path fill="#CDCCD9" d="M531,507c1.2,1.5,2.6-0.2,3.9-0.6c7.6-4,16.8-1.3,24.8-4c-0.6,2-1.3,4-1.9,6c-10.7,1-20-0.1-30.5,3.5   C528.1,509.4,529.6,508.2,531,507z" />
	<path fill="#EEF0F0" d="M532,500.6c-0.2,0.5-0.4,1-0.6,1.5c-1.7-1.6-0.8-5.6-1.5-8c0.4,0,0.9-0.1,1.3-0.1c0.3,0.3,0.6,0.6,0.8,0.9   C532,496.8,532,498.7,532,500.6z" />
	<path fill="#272C39" d="M424.7,486.6c-0.7,2.7-1.7,5.3-3.5,7.5c-0.1-0.7,0.1-1.6-0.9-1.9c1.2-2.4,2.5-4.7,2.7-7.4   C423.5,485.4,424.1,486,424.7,486.6z" />
	<path fill="#54514D" d="M438.7,495.9c-1.6-0.3-2-1.7-2.7-2.8c0.4-0.4,0.7-0.7,1.1-1.1c0.6,0.7,1.1,1.3,1.7,2   C438.7,494.7,438.7,495.3,438.7,495.9z" />
	<path fill="#A5A6A6" d="M532,500.6c0-1.9,0-3.8,0-5.7C533.6,496.8,533.3,498.7,532,500.6z" />
	<path fill="#A3B3B3" d="M531.2,494c-0.4,0-0.9,0.1-1.3,0.1c-0.8-0.4-0.6-1.1-0.9-2.7C530.2,492.8,530.7,493.4,531.2,494z" />
	<path fill="#291F1F" d="M437.5,521.6c0.6-0.7,1.3-0.8,2.1-0.6C439.1,521.9,438.3,521.8,437.5,521.6z" />
	<path fill="#EECABA" d="M340,374.2c-1.1-1.3-1.6-1.4-2.8-0.1c-0.3,0-0.6,0-0.9,0c-3.1-2.2-8.9-0.2-10.8-4.3   c-0.3-0.5-0.1-1.9,0.2-2.1c3.2-1.5,3.8-5,6-7.5c0-1.3,0-2.6,0-3.9c4.3-5.8,11.7-3.9,17.8-5.2c7.5-1.6,15.9-3.1,22.7,0.9   c-0.3,0.1-1.1,0-0.4,0.7c0.1-0.2,0.3-0.5,0.4-0.7c4.2,6.3-16.5,10.8-20.8,13.3c4.6,3.6,11.7,2.8,17.5,4.4c1.2-4.5,4.2-5.9,8.3-5.7   c8,1.5,16.4-4.7,23.6,0c-0.4,1.1-0.9,2-1.9,2.7c-0.1-0.6,0.3-1.2-0.8-1.7c-0.6,0.3-1.3,0.8-2.8,1.7c1.8,0,2.7,0,3.5,0   c-2.8,3.2-6.8,4.4-10.4,6.1c13.8,3.6,29.3,1,42.7-3.5c12.1,11,28.7,10.1,43.4,7.7c17.3,0.4,34.7,0.3,51.8,3.6c0,0.6,0,1.2,0,1.8   c-1,1-2,1.9-3,2.9c-32.3-4.6-66.6,4.9-97.5-6.6c-19.2,0.3-38.1,3.8-57.3-0.1C358.6,378.4,350,371.3,340,374.2z M389.6,366.6   c-3,0.4-8.1-2.5-9.9,0.5c1.6,4.1,15.1,2.7,14.9-1.4C393,365.9,391.2,365.5,389.6,366.6z M341.9,355.8c0.5,5.3,12.6,3.8,14.9,0.1   C351,356.9,347.5,355.6,341.9,355.8z M427.9,376.2c0.9,2.6,5.8,1.9,5-1C431.1,374.9,429.3,374.1,427.9,376.2z M363.5,356.3   c-2.7-1.8-2.7-1.8-4.2,0C360.6,356.3,361.7,356.3,363.5,356.3z M367.4,354.8c0.6-0.6,1.2-1.1,0.5-1.7   C366.8,353.4,366.7,353.7,367.4,354.8z" />
	<path fill="#EBC7B8" d="M526.4,382.3c0-0.6,0-1.2,0-1.8c0.4-0.2,0.8-0.3,1.2-0.5c8.1,2.4,10.1,10.2,18.5,13.3   c0.3,0.8,0.6,1.8,0.9,2.6c1.8,1.5,3.6,2.9,5.4,4.4c0.8,0.3,1.3-2.9,2.5-0.3c-0.7,0.1-1.1,0.6-1,1.2c1.9,7.9,4.8,15.5-2.4,21.5   c0.3-3.5,0.5-6.9,1.8-10.2c-1.9-5.2-2.9-12.6-8.9-14.4c-8.2-2.6-13.3-9.9-21.1-12.9c0.7-0.7,1.4-1.3,2.1-2c0.1,0.4,0.2,0.8,0.4,1.2   c1.3,0,1.9-0.6,2-1.9C527.3,382.5,526.8,382.4,526.4,382.3z" />
	<path fill="#EBC8B8" d="M510.6,401c-1.1-1.1-0.7-2.5-0.8-3.8l0,0c0.8-2,3.4-2.7,2.4-5.5c-1.2,1-2.1,1.8-3.2,2.7   c-2.9-2.6-5.9-4.8-9.4-6.4c6.5-2,14.4-1,21.1,0.2c0.4,0.6,0.8,1.2,1.2,1.7c0,0.4,0,0.9,0,1.6c2.5-0.3,4.9-0.6,7.5-0.9   c1.8,1.8,3.6,3.6,5.4,5.5c-0.9,0.9-2.6,0.9-3.1,2.4c-0.5,0-1.1-0.1-1.6-0.1c-2.4-2.2-5.2-2.5-8.4-1.6c0,2.1,0,4,0,6   c-1.1-2-0.9-3.7-1.1-6.3c-0.8,1.1-1.2,1.8-1.7,2.5c0-0.7-0.1-1.4-0.1-2.2c-2.9,0.5-5.7,0.4-8,2.1   C510.8,399.5,510.7,400.2,510.6,401z M517.6,390.4c0-0.2-0.1-0.4-0.1-0.5c-0.7,0-1.4,0-2.4,0c0.3,0.7,0.4,1,0.6,1.6   C516.4,391,517,390.7,517.6,390.4z" />
	<path fill="#1D1412" d="M534.8,396c-1.8-1.8-3.6-3.7-5.4-5.5c-2.6,0.3-5,0.6-7.5,0.9c0-0.7,0-1.2,0-1.6c1.5-1.9,5.6,0.4,5.4-2.7   c6.5,5.7,14.4,9.1,21.2,13.8c0,3.9-3.3-0.5-5.4,0.5C541,398.7,537.2,398.5,534.8,396L534.8,396z" />
	<path fill="#A2B0A6" d="M391.5,383.7c2.7-0.5,5.4-0.8,8.7-0.1C396.9,384.7,394.2,384.6,391.5,383.7z" />
	<path fill="#819185" d="M527.3,387.9c-1.1,1.8-3.9,0.1-5.4,1.9c-0.4-0.6-0.8-1.2-1.2-1.7C522.9,388,525.1,388,527.3,387.9z" />
	<path fill="#A29C91" d="M501.7,386.8c-1.6,1-3.7,1.8-4.6-0.6C498.7,385.9,500.3,385.7,501.7,386.8z" />
	<path fill="#272423" d="M510.4,396.2c-0.2,0.3-0.4,0.7-0.6,1C510,396.8,510.2,396.5,510.4,396.2z" />
	<path fill="#10162A" d="M260.6,491.3c1.6,6,3.3,13,3.9,19.2c-3.4-5.7-4.5-12.6-4.9-19.2C260,491.3,260.3,491.3,260.6,491.3z" />
	<path fill="#11172E" d="M256.9,492.1c1.7,5.5,2.6,11.1,3.8,17.1c-4.3-4.8-2.7-9.6-5.7-14.2C254.7,493.4,256.3,493.3,256.9,492.1z" />
	<path fill="#10162A" d="M260.5,483c0,0.9-0.1,1.8-0.1,2.8C259.2,484.3,259.2,484.3,260.5,483z" />
	<path fill="#10162A" d="M259.5,487.8c-0.3-0.1-0.5-0.1-0.8-0.1c0.1-0.2,0.2-0.4,0.3-0.6C259.2,487.3,259.3,487.5,259.5,487.8z" />
	<path fill="#283464" d="M278.1,476.7c0.2,0.2,0.3,0.4,0.5,0.7C278.4,477.1,278.2,476.9,278.1,476.7z" />
	<path fill="#283464" d="M277.4,475.5c0.2,0.3,0.4,0.6,0.6,0.9C277.7,476.1,277.6,475.8,277.4,475.5z" />
	<path fill="#AAC2C8" d="M538.5,466.3c-0.6,0.3-1.3,0.6-1.9,0.9c-0.8-0.3-1.6-0.7-2.6-1.1C536.1,465.2,536.1,465.2,538.5,466.3z" />
	<path fill="#CBAFA2" d="M565.1,410.1c4.5,5.1,2.5,11.8,3.2,18.2c-0.4,0-1,0-1.6,0C564.4,422.4,565.5,416.2,565.1,410.1L565.1,410.1   z" />
	<path fill="#D5B4A5" d="M560.6,415.6c2.6,2.9-0.5,8.1,1.7,11.5c0.6-3.6-1.2-8.6,1.1-11.5c-0.7,4.4,1.3,10.1-1.4,13.9   C560.3,426.5,560.3,426.5,560.6,415.6z" />
	<path fill="#B0958D" d="M563.3,407.3c0.4-0.3,0.7-0.7,1.1-1c0.2,0.1,0.4,0.1,0.7,0.1c0,1.2,0.1,2.4,0.1,3.7c0,0,0.1-0.1,0.1-0.1   C563.9,409.6,563.5,408.5,563.3,407.3z" />
	<path fill="#F6DBCF" d="M521.8,402.7c0-1.9,0-3.9,0-6c3.3-0.9,6-0.6,8.4,1.6c-0.6,4.8,0.6,9.9-2.4,14.1c-1.3-0.7-2.7-1.5-4.1-2.3   C523,407.6,522.4,405.1,521.8,402.7z" />
	<path fill="#E7C4B5" d="M523.7,410.1c1.4,0.8,2.8,1.5,4.1,2.3c0.4-0.8,0.8-1.5,1.2-2.3c-0.4,3.9,1.8,17.2-3.2,17.3   C523.7,423.6,523,417.5,523.7,410.1z" />
	<path fill="#F5DACE" d="M510.6,401c0.1-0.8,0.2-1.5,0.2-2.2c2.3-1.7,5.1-1.6,8-2.1c0.3,2.1-0.3,4-0.8,6c-3,1.9,1.4,4.1,1.1,6.4   c-1.1,0.3-2.3,0.5-3.3,0.8C512.6,407.7,511,404.5,510.6,401z" />
	<path fill="#E5C1B1" d="M510.8,402.7c1,2.8,2.2,5.4,5,7.2c1.1-0.2,2.2-0.5,3.3-0.8c1.1,1.6,1.3,4,1.6,5.7c-0.8,2-1.9,3.4-3.5,4.4   c-2.1-4-2.6-8.4-6.4-11.7C510.8,406,510.8,404.3,510.8,402.7z" />
	<path fill="#2A2422" d="M528.4,425.8c0.8-9.2,1.1-18.3,1.8-27.5c0.5,0,1.1,0.1,1.6,0.1c-1.9,9.4,1.2,19.4-2.6,28.4   C528.9,426.4,528.6,426.1,528.4,425.8z" />
	<path fill="#DDBAAB" d="M529.2,426.7c1.9-4.1,1.9-8.6,2-13c2.3,2.2-0.8,5.7,1.9,7.6c-1.1,2.6-0.3,5.7-1.9,8   C529.5,428.9,529.5,427.7,529.2,426.7z" />
	<path fill="#D1B2A5" d="M537.5,414.7c0.6,0.4,1.1,0.9,1.8,1.5c-1.1,3.6-1.5,6.1-4.2,9.1c-0.1-1.8-0.2-2.9-0.3-4   c1.5-2,1.7-4.3,1.9-6.7C537,414.6,537.3,414.7,537.5,414.7z" />
	<path fill="#493D39" d="M536.8,414.6c-0.2,2.3-0.4,4.7-1.9,6.7c-0.3-0.3-0.6-0.7-0.9-1c0.2-3.4,1.8-6.8,1.8-10.4   c0.3,0.1,0.6,0.1,0.9,0.2C536.7,411.6,536.7,413.1,536.8,414.6z" />
	<path fill="#615B58" d="M518.9,407.4c-1.1-1.3-3.1-3.5-0.8-4.8c0.3,0.3,0.7,0.7,1,1C519,404.9,519.1,406.2,518.9,407.4z" />
	<path fill="#B7BCBB" d="M519,406.5c0-0.9,0-1.9,0.1-2.8c1.8,0.7,2.2,1.6,1.6,3.3C520.1,406.8,519.6,406.7,519,406.5z" />
	<path fill="#DDBAAB" d="M533.8,419.3c0,0.3,0.1,0.6,0.1,1c-0.3,0.4-0.6,0.7-0.9,1.1c-0.1-0.1-0.2-0.3-0.3-0.4   C533.1,420.4,533.4,419.8,533.8,419.3z" />
	<path fill="#C1BCB2" d="M415.4,260.7c1.2-0.2,2.3-0.4,3.5-0.6c1.1,2.4-2.4,1.2-3.5,1.3C415.4,261.1,415.4,260.9,415.4,260.7z" />
	<path fill="#A0A0A5" d="M301.1,554c-0.3-0.3-0.7-0.6-1-1c1.4-1.2,3.2-1,4.9-1.5c0.3,0.3,0.6,0.6,0.9,0.8   C304.3,552.9,302.7,553.4,301.1,554z" />
	<path fill="#BBBCC8" d="M301.1,549.3c0.7-1.2,1.8-0.9,2.8-0.7C303,548.8,302.1,549,301.1,549.3z" />
	<path fill="#020202" d="M294.6,551.2c-0.1-0.3,0-0.6,0.2-0.8c0.5,0.3,0.7,0.6,0.5,1.2C295.1,551.5,294.9,551.3,294.6,551.2z" />
	<path fill="#E9D0C5" d="M542.2,400.5c0.3,0.3,0.7,1,0.9,0.9c1.8-0.6,3,1,4.5,1.3c0.6,1.2,1.3,2.4,1.6,3.1c-0.6,3.8-0.5,6.6-1.6,9.8   c-2.3-3.2-2.7-8.1-4.2-12c-0.5,0-1,0-1.4,0C542.1,402.6,542.2,401.5,542.2,400.5z" />
	<path fill="#DEBDAF" d="M545.9,411.9c1,1.1,0.4,3,1.8,3.7c-1,3-1.3,6.8-5,7.6c-0.1-0.4-0.2-0.7-0.3-1.1   C543.7,418.7,546,415.6,545.9,411.9z" />
	<path fill="#CECEDC" d="M560.4,495c-1.3-1.7-0.7-3.7-0.8-5.7c-6.5-6.3-9.9-14.3-5-22.8c2.8-5.7-0.3-12.3,2.4-17.9   c3,3.5,4.5,7.6,4.5,12.2c-0.2,0.2-0.3,0.4-0.2,0.6C553.3,480.7,560.4,478.7,560.4,495z" />
	<path fill="#2A2728" d="M560.6,463.6c0.2-0.7,0.5-1.4,0.7-2.1C561.5,462.3,561.6,463.1,560.6,463.6z" />
	<path fill="#EFD6CA" d="M542.2,400.5c0,4.4-1.4,8.7-2.1,12.9c-0.7,0.2-1.2,0.3-1.6,0.4c-0.3,0.3-0.6,0.6-0.9,1l0,0   c-0.3-0.1-0.5-0.1-0.8-0.1c0-0.9,0-1.8-0.1-2.7c1.5-0.9,0.3-2-1-2c0,1.7-0.3,3.4-0.9,5c0.3-3.7-0.9-7.9,0.7-11.3   c0.1,1.1,0.2,2.2,0.4,3.9c1.5-3.4,2.1-6.4,1.6-9.5l-0.1,0.1C539.1,398.7,541,399,542.2,400.5z" />
	<path fill="#D1B2A5" d="M537.5,414.7c0.3-0.3,0.6-0.6,0.9-1C538.1,414.1,537.8,414.4,537.5,414.7z" />
	<path fill="#A37F76" d="M551.6,422.8c0.5-0.3,1-0.6,1.5-0.8c-0.3,0.8-0.5,1.6-0.8,2.4c-0.2,0-0.4,0-0.6-0.1   C551.6,423.8,551.6,423.3,551.6,422.8z" />
	<path fill="#171110" d="M426.3,359.5c2.6-2.7,10.8-4.1,14.1-3.2C436.2,359.5,431.4,363.3,426.3,359.5z" />
	<path fill="#2B201E" d="M431.2,363.5c1.3-0.9,1.9-1.9,3.3-1.2c3.1,1.6,6.7,0.9,9.6,2.5C439.4,366,434.1,367.1,431.2,363.5z" />
	<path fill="#4B4440" d="M446,365.5c2.6-0.8,2.6-0.8,3.8,0.7C447.7,367.6,447.7,367.6,446,365.5z" />
	<path fill="#492120" d="M335.1,324.2c2.1-1.6,4.8-0.6,7.7-1.1c-1.2,1.7-2.7,1.4-3.9,1.9C338,323.5,336.4,324.5,335.1,324.2z" />
	<path fill="#0E0F0E" d="M335.1,324.2c1.3,0.3,2.8-0.7,3.8,0.8c-1.2,0.8-2.5,1.5-4.1,1.2C334.1,325.4,334,324.7,335.1,324.2z" />
	<path fill="#2F2523" d="M548.5,392.3c3.1,0.2,3.2,0.2,3.5,3.1C550.7,394.2,549.6,393.2,548.5,392.3z" />
	<path fill="#553D3B" d="M446.6,356.2c-1.8,0.1-2.7,0.2-3.6,0.3C442.8,353.6,444.9,354.6,446.6,356.2z" />
	<path fill="#080B0A" d="M463.9,367.7c2-1.9,2-1.9,3.7-0.3C466.4,367.5,465.6,367.5,463.9,367.7z" />
	<path fill="#402B29" d="M452.2,366.2c0.9-1.8,1.9-1.5,3.1-0.7C454.7,367,453.8,367,452.2,366.2z" />
	<path fill="#511817" d="M400,365.6c0.3-0.6,0.5-1.1,0.8-1.7c0.7,0.1,1.3,0.2,2,0.3C402.4,366.1,401.1,365.6,400,365.6z" />
	<path fill="#4B2E2C" d="M404.9,364.3c0.2-0.7,1-0.8,1.6-1.2C407.6,364.3,405.6,365.4,404.9,364.3z" />
	<path fill="#3E2B2A" d="M461.9,367.1c-0.8,1.1-2.8,0.1-1.7-1C461.2,365.6,461.9,365.7,461.9,367.1z" />
	<path fill="#0D1514" d="M344.9,324.2c0.9-1.9,0.9-1.9,2.2-0.2C346.3,324,345.7,324.1,344.9,324.2z" />
	<path fill="#4A4A47" d="M545.6,389.4c0.3-0.2,0.5-0.4,0.7-0.5c0.3,0.4,0.5,0.9,0.8,1.3C546.2,390.7,546,390,545.6,389.4z" />
	<path fill="#503836" d="M541.9,384.7c1,0.9,1.4,1.2,2.2,2C541.8,387,542.3,386.9,541.9,384.7z" />
	<path fill="#7E514D" d="M332.6,374.9c0.5,0.5,1,0.8,0.2,1.4c-0.3-0.3-0.6-0.5-0.9-0.8C332.1,375.4,332.3,375.2,332.6,374.9z" />
	<path fill="#2F1717" d="M336.2,374.1c0.3,0,0.6,0,0.9,0c0.1,1.5,0.1,1.5-1.6,1.6C335.8,375.1,336,374.6,336.2,374.1z" />
	<path fill="#6E3B38" d="M350.3,322.6c1.7,0.1,1.6,0.6,0,0.6C350.2,323,350.2,322.8,350.3,322.6z" />
	<path fill="#20100F" d="M450.5,355.8c0.8,0,1.3,0,1.8,0.1C452.5,356.8,451.2,357,450.5,355.8z" />
	<path fill="#331F1E" d="M355.4,322.7c-0.1,0.2-0.2,0.3-0.3,0.5c-0.5-0.3-0.2-0.5,0-0.9C355.2,322.5,355.3,322.6,355.4,322.7z" />
	<path fill="#131012" d="M380.5,407.1c1.4,0.2,2.7,0.2,3.8-0.7c1-0.1,2.1-0.1,3-0.2c-5.6,8.3-24.3,1.5-31.8-3.5c0.3-1,1-1.1,1.7-0.9   C364.9,404.5,372.3,408,380.5,407.1z" />
	<path fill="#B7BED5" d="M391.6,401.7c0.1-3.4-0.1-4.5,3.9-4.5c4.8,3.9,5.6,6.3,3,9.9c-2.6-0.2-4.5-2.2-7-2.7   C391.9,403.6,393.4,402.7,391.6,401.7z" />
	<path fill="#1B181A" d="M377.9,435.9c-1.7,4.4-5.3,11.5-10,12.8c1-4.6,5.8-9,9-12.8C377.2,435.9,377.6,435.9,377.9,435.9z" />
	<path fill="#2D2327" d="M376.9,413.8c-0.5,0.7-0.6,0.9-0.7,0.9c-6.6,0.6-11.4,6-18,5.5C363.6,416.8,370.1,413.1,376.9,413.8z" />
	<path fill="#4E4D55" d="M377.9,435.9c-0.3,0-0.7,0-1,0c2.5-4.4,3.8-10,6.9-13.8C383.9,424.5,380.8,431.9,377.9,435.9z" />
	<path fill="#25262B" d="M348.4,393.7c0.4-0.1,0.9-0.2,1.6-0.4c1,1.5,2.1,3.1,3.3,4.8c-0.6,0.5-1,0.7-1.3,1c-1.4-1.5-3-2.9-3.6-4.9   C348.4,394,348.4,393.9,348.4,393.7z" />
	<path fill="#2A2A2E" d="M361.9,458c0.1-2.7,1.9-4.5,3.6-6.4c0.6,2.8-1.1,4.6-2.4,6.5C362.7,458.1,362.3,458,361.9,458z" />
	<path fill="#333236" d="M361.9,458c0.4,0,0.8,0.1,1.2,0.1c-0.8,1.7-1.7,3.4-2.5,5.2c-0.5,0.1-0.9,0.2-1.3,0.3l0.1,0.1   C359.3,461.3,361.2,459.9,361.9,458z" />
	<path fill="#3B3D43" d="M347.4,430.9c-0.6-2.3,0.1-3.7,2.2-4.9C350,428.1,348.4,429.2,347.4,430.9z" />
	<path fill="#524C53" d="M359.2,463.5c0.2,1.8-0.1,3.2-2.5,3.5C356.8,465,357.9,464.2,359.2,463.5L359.2,463.5z" />
	<path fill="#4B444B" d="M391.6,401.7c1.8,1,0.3,1.8-0.1,2.7c-0.5-0.1-1.1-0.2-1.6-0.3C389.9,402.9,390.5,402.3,391.6,401.7z" />
	<path fill="#49393F" d="M339.5,415.4c0.7,0.5,1.3,0.9,2.2,1.6C340.3,418.4,338.3,417.8,339.5,415.4z" />
	<path fill="#2F1C1E" d="M354.6,422.7c-0.6,0-1.1,0-1.7,0c0-0.2,0-0.3,0-0.5c0.6,0,1.1,0,1.7,0C354.6,422.4,354.6,422.6,354.6,422.7   z" />
	<path fill="#B7BDD5" d="M348.3,394.1c0.3,0.7,0.6,1.4,0.9,2C348.1,395.9,348.2,395,348.3,394.1z" />
	<path fill="#EDCABA" d="M297.4,412.7c12.2,13.5,8.9,43.8,1.2,17.4c-3.6-3.5-8.8-8-7.5-14.1c1.3-1.4,2.5-3.2,4.5-4.2   C295.9,412.8,296.6,412.8,297.4,412.7z M296.5,419.9c-0.7-0.2-1.1-0.3-1.8-0.6c0.1,0.9,0.1,1.6,0.3,3.3   C295.8,421.1,296.1,420.5,296.5,419.9z M295.5,417.6c0.9-0.8,1.2-1,0.3-1.9C294.8,416.3,294.8,416.5,295.5,417.6z" />
	<path fill="#2B2422" d="M319.3,455.5c-1.2-5.3,0-9.4,2.8-11.6C322.8,447.6,319.9,451.7,319.3,455.5z" />
	<path fill="#1A1615" d="M291,486.7c-0.3,2,0.8,4.2-0.4,6.5c-2.7-1.8-1.5-6-1.4-9.5c0.8,1.1,1.2,1.7,1.7,2.4   C290.7,486.3,290.7,486.5,291,486.7z" />
	<path fill="#070606" d="M321.5,409.9c1.2,2.7,1.4,5.4,0.6,9c-1.7-2.9-1.5-5.4-1.6-7.9C320.8,410.6,321.2,410.3,321.5,409.9z" />
	<path fill="#1F1C1A" d="M314.9,526c1.5,2.5,1.5,2.5,0.7,5.9C313.2,530.7,313.6,528.4,314.9,526z" />
	<path fill="#190E0E" d="M314.4,515.4c1.5,2,1.6,3.7,0.1,5.9C313.6,519.1,313.2,517.5,314.4,515.4z" />
	<path fill="#3E2B29" d="M297.4,412.7c-0.7,0-1.5,0.1-1.7-0.8l0,0c0.9-1.2,1.6-2.8,3.7-2.7C299.5,410.8,298.3,411.7,297.4,412.7z" />
	<path fill="#413330" d="M314.4,507.9c1.9,1.8,1.9,2,0.2,3.9C313.7,510.6,313.6,509.5,314.4,507.9z" />
	<path fill="#221413" d="M320.2,419.2c0.9,1.8,0.7,3,0,4.3C319.1,422.1,319.1,422.1,320.2,419.2z" />
	<path fill="#131110" d="M317.2,478.4c1.4,1.2,1.4,1.2,0,3.6C316.3,480.6,316.3,479.6,317.2,478.4z" />
	<path fill="#716762" d="M317.2,472.5c-0.5-2-0.5-2,0.9-3.1C318.6,471.3,318.6,471.3,317.2,472.5z" />
	<path fill="#211F1E" d="M319.3,461.1c-0.2,1.3-0.5,2.6-0.7,4.1C317.2,462.7,317.2,462.7,319.3,461.1z" />
	<path fill="#3B3A36" d="M291.1,431.2c-0.1,0.8-0.2,1.6-0.3,2.5c-2.1,0-1.7-1.3-1.7-2.4C289.8,431.3,290.5,431.3,291.1,431.2z" />
	<path fill="#060404" d="M321.5,409.9c-0.3,0.3-0.7,0.7-1,1c-0.4-1-1.5-2.5,0.7-2.6C321.3,408.9,321.4,409.4,321.5,409.9z" />
	<path fill="#453633" d="M291.9,455.2c-2-0.6-0.9-3.3,0.9-2.6C293,453.7,292.4,454.5,291.9,455.2z" />
	<path fill="#897D77" d="M319.8,430.6c1.5,1,0.5,2.9-0.7,2.1C318.2,431.5,319.5,431.3,319.8,430.6z" />
	<path fill="#AC968C" d="M290.1,471c-1.8-0.9-1-2.8,0.9-2.7C290.6,469.2,290.3,470.1,290.1,471z" />
	<path fill="#4E4641" d="M289.9,476.2c-1.4-0.7-1.7-2.4,0.2-2.5C290,474.5,289.9,475.4,289.9,476.2z" />
	<path fill="#2C2B29" d="M319.1,427.5c-0.7-1-0.9-1.7,0.2-2.2C320,426,319.8,426.7,319.1,427.5z" />
	<path fill="#EDCABA" d="M296.2,411c-0.2,0.3-0.4,0.6-0.6,1C295.8,411.6,296,411.3,296.2,411z" />
	<path fill="#131529" d="M377.8,509c-10.4,5-20.1,13.1-32,13.4c6.3-3,12.4-4.2,17.5-7.6c-0.4-0.5-0.7-0.9-1.1-1.4   c6.1-1.9,10.9-6.9,17.3-8.2c0.1-0.4,0.1-0.7,0.2-1c5.5-3.1,11-6.2,16.5-9.3c0.3,0.3,0.6,0.6,0.9,0.9   C390.7,500.2,384.2,504.6,377.8,509z" />
	<path fill="#4A65C5" d="M379.7,504.3c-0.1,0.3-0.1,0.6-0.2,1c-3.9,0.7-7,3.3-10.8,4.6c-0.4-0.3-0.7-0.7-1.1-1   c6.1-5.4,11.3-11.5,16.5-17.7c0.2,0.2,0.4,0.5,0.6,0.9c2.1-0.1,4-1.6,6.6-1.7c-0.7,7.8-9.8,7.6-13.3,13.5   C378.6,504,379.2,504.1,379.7,504.3z" />
	<path fill="#16182C" d="M365.8,521.8c15.4-8.6,30.9-17,44.3-28.6c0.3,0.3,0.6,0.6,0.9,0.9c-13.3,12.1-28.8,21.6-45.2,29   C365.8,522.6,365.8,522.2,365.8,521.8z" />
	<path fill="#121426" d="M384.1,491.2c-9.2,10.7-19.7,24.1-34.1,26.6c13.6-7.1,24.5-17.3,34.6-28.9   C384.5,489.6,384.3,490.4,384.1,491.2z" />
	<path fill="#090B16" d="M359.4,499.5c2-3.2,2.8-6.4,3.7-10c0.4,0.8,0.9,1.5,1.5,2.6c1.6-3.4,2.6-6.6,3.9-10.1   c2.2-1.3-0.4-4.4,1.9-5.6c2.2,7.8-4,17.6-9.4,23.1C360.5,499.5,360,499.5,359.4,499.5z" />
	<path fill="#192140" d="M365.6,490.1c-0.3,0.6-0.5,1.2-0.9,2c-0.6-1.1-1.1-1.8-1.5-2.6c0.8-4.8,3-9.3,4.5-14c1.3,0.2,3-1.3,2.9,0.9   c-2.3,1.2,0.3,4.3-1.9,5.6C366.2,483.7,364.2,487.8,365.6,490.1z" />
	<path fill="#161C36" d="M371,487.4c1.8-2.5,2.9-5.5,5.5-7.9c-0.7,3.6-4.1,9.6-8.9,16.4c-0.3-0.2-0.6-0.5-1-0.8   C368.1,492.5,369.6,489.9,371,487.4z" />
	<path fill="#1D274B" d="M379.3,480.2c3.1,1.2,1.5,14.6-2.9,13.7C378.1,489.7,379.7,485.1,379.3,480.2z" />
	<path fill="#161C33" d="M333.3,508.6c1-3,0.4-7.6,2.5-9.6c0.8,2.9,0.8,2.9-1.5,12.6C332.9,510.9,333.7,509.5,333.3,508.6z" />
	<path fill="#3C53A4" d="M371,487.4c-1.5,2.5-2.9,5.1-4.4,7.7c0.3,0.3,0.7,0.5,1,0.8c-0.9,1.9-1.8,0.3-2.8,0   c1.8-3.7,3.6-7.5,5.4-11.2C370.6,485.5,369.8,486.8,371,487.4z" />
	<path fill="#363F76" d="M397.1,495.9c-0.3-0.3-0.6-0.6-0.9-0.9c1.8-1.4,2.4-1.6,5.1-2.7C399.8,494.4,398.6,495.2,397.1,495.9z" />
	<path fill="#233059" d="M333.3,508.6c0.4,0.9-0.3,2.3,0.9,2.9c0.1,1.1-0.1,2-1.5,2.5C332.3,512.1,332.2,510.3,333.3,508.6z" />
	<path fill="#35427B" d="M410.9,494c-0.3-0.3-0.6-0.6-0.9-0.9c0.9-0.7,1.8-1.4,3-2.3C412.6,492.8,412.6,492.8,410.9,494z" />
	<path fill="#334178" d="M331.6,522.6c-0.4-0.1-0.9-0.1-1.3-0.2c0-1.6,0-1.6,1.2-3.6C331.5,520.5,331.5,521.6,331.6,522.6   L331.6,522.6z" />
	<path fill="#3C53A4" d="M364,496.8c0.3-0.3,0.6-0.6,0.9-0.9C364.5,496.2,364.2,496.5,364,496.8z" />
	<path fill="#080A13" d="M270.5,497.4c-3.6-8.8-1.5-18.5-4-27.8C272.2,471,270.5,490.5,270.5,497.4z" />
	<path fill="#14192F" d="M276.6,514c-2.3,0.6-6.1-8-5.8-10.2C272.9,505.4,274.8,508.8,276.6,514z" />
	<path fill="#19203E" d="M260.4,514.8c-2.1-1.3-3.3-3.2-3.7-6.4C259.7,510.3,259.8,512.7,260.4,514.8z" />
	<path fill="#1A1E37" d="M294,534.6c-0.4,1.7-1.3,2.3-3.1,1.5C292.2,535.5,293.1,535,294,534.6z" />
	<path fill="#22274A" d="M278.8,516.7c-0.1,0.1-0.2,0.2-0.3,0.2c0-0.2,0-0.4,0-0.5C278.6,516.5,278.7,516.6,278.8,516.7z" />
	<path fill="#0D0909" d="M301.1,554c5.6-1.9,13-3.7,17.8,0.8c-7.3-0.1-13.2,1.3-19.9,3.1C296.9,556.1,300,555,301.1,554z" />
	<path fill="#131212" d="M298.4,563.2c-0.2-0.4-0.4-0.8-0.6-1.2c4.4-5.6,14.2-6.5,20-2.5C310.5,560,304.4,561.4,298.4,563.2z" />
	<path fill="#0F1010" d="M313.5,563.8c-2.4,1.9-9.7,3.7-14.1,3.7C299.1,562.2,309.1,562.8,313.5,563.8z" />
	<path fill="#101112" d="M301.2,572.2c2.7-4.2,8-2.6,12.3-2.6C312.6,573.2,304.6,573.6,301.2,572.2z" />
	<path fill="#CBCCD9" d="M326.9,592.9c-5.5-2.3-12.8,0.6-17.6-2.8C314.9,590.7,323,588,326.9,592.9z" />
	<path fill="#3C3538" d="M309.3,590.2c0.1,0.3,0.3,0.5,0.5,0.7c-2.2,0.1-4.5,0.1-6.7,0.2l-0.2-0.2c0.2-0.2,0.3-0.4,0.3-0.6   C305.2,590.2,307.2,590.2,309.3,590.2z" />
	<path fill="#CBCCD9" d="M303.2,590.2c-0.1,0.2-0.2,0.4-0.3,0.6c-0.9,0.1-1.7,0.2-2.6,0.2C300.9,589.5,302.1,590.2,303.2,590.2z" />
	<path fill="#C3C3D1" d="M327.9,594.7c-1.2-0.1-1-1-1-1.8C328,593,327.9,593.9,327.9,594.7z" />
	<path fill="#181311" d="M290.8,464.3c-2.1-0.5-1.8-1.6,0.2-2.9C290.9,462.8,290.8,463.6,290.8,464.3c0,0,0.2,0.1,0.2,0.1   L290.8,464.3z" />
	<path fill="#212649" d="M360.8,528.9c-8.3,2.8-17.3,3.5-26,2.6c8.5-1.9,17.3-1.5,25.8-3.1C360.7,528.6,360.8,528.7,360.8,528.9z" />
	<path fill="#3953A1" d="M361.2,513.5c2.1-1.5,4.3-3.1,6.4-4.6c0.4,0.3,0.7,0.7,1.1,1C366.7,511.9,364.1,513.4,361.2,513.5z" />
	<path fill="#252B52" d="M365.8,521.8c0,0.4,0,0.8,0,1.2c-1.8,0.6-3.4,2.7-5.3,2C362,523.3,363.9,522.6,365.8,521.8z" />
	<path fill="#283564" d="M328.8,525.4c0.3,0.3,0.6,0.6,0.9,0.8c-1.1,2.3-1.1,2.3-2.8,2.3C327.6,527.4,328.2,526.4,328.8,525.4z" />
	<path fill="#5E413F" d="M419.7,330.2c-2,1-2.7,0.1-1-1.2C418.9,329.3,419.2,329.6,419.7,330.2z" />
	<path fill="#231D1B" d="M398.9,313c0.9-1.9,1-3.7,3.6-3.9c0.5,2.7-0.9,3.9-2.6,4.9C399.6,313.7,399.3,313.4,398.9,313z" />
	<path fill="#534C46" d="M398.9,313c0.4,0.4,0.7,0.7,1.1,1.1c-0.5,0.8-0.8,1.9-2.4,1.7C397.5,314.6,397.9,313.7,398.9,313z" />
	<path fill="#2B211E" d="M385.1,310.1c-1-0.5-1.1-1.3-0.8-2.2C385.6,308.7,385.6,308.7,385.1,310.1z" />
	<path fill="#A2857B" d="M386.9,319.6c0.1-0.6,0.2-1.1,0.4-2.1c0.7,0.6,1,0.9,1.7,1.6C388,319.4,387.5,319.5,386.9,319.6   L386.9,319.6z" />
	<path fill="#181412" d="M381.6,301.9c-0.3-1-1.4-2.8,0.6-2.7c0.1,0.5,0.2,1.1,0.4,1.7C382.3,301.3,381.9,301.6,381.6,301.9z" />
	<path fill="#5C534D" d="M381.6,301.9c0.3-0.3,0.6-0.7,1-1c0.9,0.8,1.1,1.6,0.3,3C382.4,303.2,382,302.6,381.6,301.9z" />
	<path fill="#92766D" d="M386.5,315.6c-0.5-1.2-0.7-1.7-0.8-2.2C386.7,312.9,387.1,313.6,386.5,315.6z" />
	<path fill="#6A5B55" d="M371.4,285.4c0.2,0.7,0.5,1.3,0.7,2C371.4,286.9,371.1,286.2,371.4,285.4z" />
	<path fill="#865F5B" d="M400.7,334.8c-0.3,0.4-0.4,0.4-0.7,0C400.2,334.8,400.4,334.8,400.7,334.8z" />
	<path fill="#777A89" d="M348.1,387c1.4,1,1.3,1.7,0.1,2.7C347.3,388.9,346.9,388.2,348.1,387z" />
	<path fill="#CCD2E9" d="M380.5,407.1c-1.8,0-3.6,0-5.5,0C376.9,405.9,378.7,405.9,380.5,407.1z" />
	<path fill="#272428" d="M330.9,404.4c2.3,2.4,2.2,5.3,4.6,7.2C331.6,412,330.1,408.5,330.9,404.4z" />
	<path fill="#2D2226" d="M336.4,412.8c1.4,1.5,0.4,2.2-0.8,0.7C335.8,413.2,336.1,413,336.4,412.8z" />
	<path fill="#151A31" d="M344.7,514.2c1.2-2.3,2.9-4.1,5.2-6.4C350.3,511.1,347.7,513.6,344.7,514.2L344.7,514.2z" />
	<path fill="#2A305D" d="M347.3,505.1c0.5,0.1,1,0.1,1.7,0.2C348,506.3,347.6,505.9,347.3,505.1L347.3,505.1z" />
	<path fill="#283C41" d="M303,591c3.5-0.1,6.9-0.5,10.2,0.7c-0.3,0.3-0.6,0.7-0.9,1c-3.1-0.8-6.2-1.1-9.4-0.8   C303,591.7,303,591.3,303,591z" />
	<path fill="#1C0202" d="M312.3,592.7c0.3-0.3,0.6-0.7,0.9-1c3.3,0.1,6.6,0.2,10,0.3C319.8,593.4,315.9,592.9,312.3,592.7z" />
	<path fill="#020202" d="M346.3,486.6c-0.1,0.2-0.3,0.3-0.4,0.5C345.9,486.8,346.1,486.7,346.3,486.6L346.3,486.6z" />
	<path fill="#888379" d="M369.2,266.8c0.1,1.1,0.2,1.6,0.2,2.1C367.4,269.7,367.9,268,369.2,266.8z" />
	<path fill="#EDC9B9" d="M438.7,495.9c0-0.6,0-1.3,0.1-1.9c16.5-5.7,13.4,14.9,0.9,4.6c0.5,0,1.1-0.1,1.7-0.1c0-1.4-0.4-1.9-1.7-1.5   c0,0.5,0,1.1,0,1.6C438.2,498.1,438.8,496.9,438.7,495.9z" />
	<path fill="#312423" d="M454.9,508.6c2-4,7-3.9,11.3-4.2C463.9,507.5,459,509.6,454.9,508.6z" />
	<path fill="#0F1110" d="M472.6,503.6c-1.5,0.6-1.5,0.6-3.1,0.4C470.5,502,470.9,502,472.6,503.6z" />
	<path fill="#483230" d="M475.9,503.3c0.5-2.1,1.7-2,3-1.7C480.5,503.6,477.3,503.4,475.9,503.3z" />
	<path fill="#5E4542" d="M487.4,503.2c-1.2,0-2.2,0-3.6,0C484.6,501,486.5,500.4,487.4,503.2z" />
	<path fill="#5D2926" d="M512.5,502.4c0.7,0,1.5,0,2.6,0c-0.5,0.8-0.7,1.2-1,1.6C513.1,504,512.3,503.7,512.5,502.4z" />
	<path fill="#7B5E57" d="M526.4,500.1c-1.2,1.3-1.2,1.3-3.4,1.2C523.8,500.1,524.7,499.7,526.4,500.1z" />
	<path fill="#5E2F2C" d="M518.7,502.2c-1.6,0-1.6-0.5,0-0.6C518.7,501.8,518.7,502,518.7,502.2z" />
	<path fill="#251E1C" d="M341.9,355.8c5.5-0.2,9,1.1,14.9,0.1C354.5,359.5,342.4,361.1,341.9,355.8z" />
	<path fill="#161211" d="M393.5,367.5c-3.9,2.1-10.8,3.6-13.8-0.4C379.9,364.5,391.8,366.5,393.5,367.5z" />
	<path fill="#1E1311" d="M427.9,376.2c1.4-2.1,3.2-1.3,5-1C433.7,378.2,428.8,378.8,427.9,376.2z" />
	<path fill="#1D221F" d="M363.5,356.3c-1.9,0-2.9,0-4.2,0C360.8,354.5,360.8,354.5,363.5,356.3z" />
	<path fill="#65403B" d="M393.5,367.5c-1.1-1-2.5-0.9-3.9-1c1.6-1,3.4-0.6,5-0.9C395.2,367.1,394.4,367.3,393.5,367.5z" />
	<path fill="#38201D" d="M526.4,382.3c0.4,0.1,0.9,0.2,1.4,0.2c0,1.3-0.6,1.9-2,1.9c-0.1-0.4-0.2-0.8-0.4-1.2   C525.7,383,526.1,382.7,526.4,382.3z" />
	<path fill="#472F2C" d="M398.9,366.6c-0.8,0-1.7,0-3.5,0c1.5-0.9,2.2-1.4,2.8-1.7C399.2,365.3,398.8,366,398.9,366.6L398.9,366.6z" />
	<path fill="#B2968A" d="M367.4,354.8c-0.6-1.2-0.6-1.5,0.5-1.7C368.6,353.7,368,354.2,367.4,354.8z" />
	<path fill="#85544E" d="M372.2,351.9c-0.1,0.2-0.3,0.5-0.4,0.7C371,351.9,371.9,352.1,372.2,351.9   C372.2,352,372.2,351.9,372.2,351.9z" />
	<path fill="#F1D6CA" d="M535.5,403.6c-2.3,5.4,1.4,12.4-2.8,17.3c-2.2-1.8,0.7-5.2-1.6-7.2c0.4-5.7-2.3-14.9,3.7-17.8l0,0.1   c0.1,1.2,0.9,1.8,2,2.1C536.4,400,535.9,401.8,535.5,403.6z" />
	<path fill="#150303" d="M517.6,390.4c-0.6,0.3-1.2,0.6-1.9,1c-0.2-0.5-0.4-0.9-0.6-1.6c0.9,0,1.7,0,2.4,0   C517.5,390,517.5,390.2,517.6,390.4z" />
	<path fill="#EFD6CA" d="M536.8,398.2c-1-0.3-1.8-0.9-2-2.1c0.9,0.7,1.8,1.4,2.7,2l0.1-0.1C537.3,398.1,537,398.2,536.8,398.2z" />
	<path fill="#D1B2A5" d="M536.6,410c1,0.6,1,1.2,0.1,1.9C536.7,411.3,536.7,410.7,536.6,410z" />
	<path fill="#DDBAAB" d="M533.8,419.3c0.3-0.6,0.5-1.2,0.8-1.8C534.3,418,534,418.7,533.8,419.3z" />
	<path fill="#3D3734" d="M536.8,398.2c0.3,0,0.5,0,0.7-0.2c0.5,3.1-0.1,6.1-1.6,9.5C535.2,403.8,535.9,401.5,536.8,398.2z" />
	<path fill="#4B423D" d="M296.5,419.9c-0.4,0.7-0.7,1.2-1.5,2.6c-0.1-1.7-0.2-2.3-0.3-3.3C295.4,419.5,295.8,419.6,296.5,419.9z" />
	<path fill="#78635C" d="M295.5,417.6c-0.7-1.1-0.7-1.3,0.3-1.9C296.7,416.5,296.4,416.8,295.5,417.6z" />
	<path fill="#3C519F" d="M365.6,490.1c-1.4-2.3,0.6-6.4,3-8.1C367.6,484.7,366.6,487.4,365.6,490.1z" />
	<path fill="#382C29" d="M439.6,498.6c0-0.6,0-1.1,0-1.6c1.3-0.4,1.7,0.1,1.7,1.5C440.7,498.6,440.2,498.6,439.6,498.6   C439.6,498.7,439.6,498.6,439.6,498.6z" />
</g>
</svg>