<?xml version='1.0' encoding='utf-8'?>
<svg xmlns="http://www.w3.org/2000/svg" version="1.2" baseProfile="tiny" id="Layer_1" x="0px" y="0px" viewBox="0 0 900 600" overflow="visible" xml:space="preserve">
<g id="b_00000016766246636090390180000000383125230918522267_">
	<path display="inline" d="M468.9,83.6c2.8-2.3,5.7,0.1,8.7,1.1c4.8-2.5,16.4-10.7,19.1-2.1c3.6,8.7,6.1,16.8,6.1,26.6   c26,3.2,20.8,19.8,26.7,38.3c-0.3,4.5-0.5,8.5-2.1,12.8c0.5,0.4,1.1,1.2,1.6,1.1c4.2-0.3,5.6,4.1,5.1,7.6   c48.8,48.6,100.4,95.7,147.3,145.6C628.1,271,576,212.4,525.5,164.8c-6.6,10-19.3-1.4-26.8-5.3c1.7,20.5-1.1,40.7-5.8,60.7   c1,30.9,21.1,58.4,25.3,89.1c11.1,33.1,4.3,68.6,3.4,102.4c-1.8,16.2,7.1,31,8.4,47c0.8,26.4-1.8,52.8-1.2,79.1   c5.3,2.8,2.7,9.6,7.9,12.8c5.3,3.1,7.2,9,9.5,14.3c3.6,5.8,9.5,10.6,11.5,17.3c0.7,15.6-43.3,16.9-39-2.2   c-22.8-4.1-10.8-20.9-9.8-37.1c0.5-0.6,1.1-1.2,1.5-1.8c-3.4-33.9-21.8-66.2-17.2-100.6c-12.7-17.5-11.8-40.3-17.6-60.3   c-8.8-18.1-13.8-37.7-19.7-56.7c-5.9,18.3-6.5,38.2-14.6,56.1c-9.1,22.4-7.1,47-15.8,69.6c-1,13.7,1.1,28.6-5.1,41.4   c-6.7,17.2-5.1,36.4-8.3,54.4c4.7,4.6,3.8,10.3,3.6,16c3.9,3.9,2.5,8.9,2.4,13.4c-2.5,4-5.2,7.4-9.1,9.5c1.4,5.1,1.2,6-1.8,9.7   c0.2,0.4,0.4,0.9,0.7,1.4c-9.5,6.1-23.3,6.5-33.5,1.3c1.2-2.4,3.4,0.7,5.3-0.1c10.1,1.9,30.6,1.8,26.9-13.1   c0.7-1.1,2.6-0.8,3.1-2.3c5.9-2.6,5.4-9.7,5.7-15c-2.9-4.2-2.9-4.2-2.7-8.6c-4.9-0.5-5.3-5.7-8.6-8.6c-3.2,0-6.3,0-9.8,0   c-2.1,2.4-1.3,6.1-3.6,9.2c4.5,0.5,12.5-0.7,14.4,4c-5.3,0.3-16.8-5.3-18.5,2.5c5.4-0.7,13.1-3.4,17.5,0.6   c-0.2,0.5-0.4,0.9-0.6,1.2c-5.9,0.1-11.9,0.3-17.7,0.2c-0.5,0.7-1.3,1.3-0.8,2.1c5.3-0.9,10.7-2.3,15.9-0.4c0.5,1.1,0.2,2-0.8,2.6   c-5.4,0-10.8,0-16.2,0c-3.7,3.7-5.8,8.4-8.4,12.5c0.1,3.7,1,6.8,0.3,10.3c-0.5-0.2-1-0.3-1.4-0.5c-1-3.3-1.6-7.3-0.9-10.5   c5.5-11.6,13.3-22.3,18.3-34.4c1.1-0.5,2.1-1,3.2-1.5c-0.3-29.8-7.7-59-7.5-88.8c1.2-11.4,8.8-21.5,7.5-33.2   c3.4-37.6-5.2-74.8-1.6-112.7c2.1-17,4.3-34.6,9.6-50.8c11.8-17.3,11.8-37.1,6.4-56.7c-3.9-15.3-10.2-29-12.1-44.8   c-7.8,4.1-21.1,13.6-25,0.1c-2.3,0.5-4.1,1.4-5.9,2.4c-0.7,6.8-3,6.9-7.5,6c-54,47.3-106.5,97-161.1,143.4c-0.5-0.4-1-0.8-1.4-1.2   c51.5-49.9,107.8-96.6,160.9-145.5c1.5-5.4,2.6-6.2,7.3-5.3c2.1,0.6,7.2-1.7,5.7-4c-1.1,0.2-2.2,0.4-3.3,0.7c0.8-1,1.6-2,2.5-3.2   c1.3-18.8,2-44.5,26.3-45.7c0.8-9,1.9-17.2,5.9-25.4c1.8-10.3,13.9-2.1,19.5,0.7c1.9-0.7,3.9-1.6,6.1-2.4   c-0.3-2.2-7.2-13.6-2.1-11.7c2.3,7.3,5.5,13.9,12.8,17.2c0.4,1.2,1.3,0.8,2.2,0.7l0.3,0.2c-0.5,0.5-1.4,1.1-1.5,1.8   c0.1,1,0.9,0.7,1.6,0.8c2.3,0.9,4,2.9,6,4.4c-0.9,0.8-1.7,1.6-2.6,2.5c-1.6-1.7-1.4-5.3-4.8-5.1c-2.2,3.9-4.3,7.5-6.4,11.2   c-0.3-0.4-0.7-0.7-1-1.1c2-4.7,4.8-8.8,3.6-14.3c-2-0.9-3.1,0.1-4.4,1.6c-0.6-1.2-1.2-2.6-1.8-3.8c-9.3-3.7-10.1,9.9-16.9,12.9   c1.7,10.5-3.3,18.7-11.8,24.6c-0.2,2.5-0.3,4.9-0.5,7.4c1,0.9,1.9,1.7,2.8,2.5c6.8-4.6,24.2-6.7,25.2-14c1.4-0.6,3.1-1.4,4.7-2.1   c0.8,0.2,1.4,0.1,1.8-0.7c1.3-0.2,2-1.8,3.4-1.8c0.3,0.3,0.6,0.7,0.9,1c0,0.2-0.1,0.5-0.1,0.7c-2.4,1.5-4.5,1.5-5.9,4.5   c1.8-0.3,4.1-2.2,5.1-0.1c-2.9,2.5-8.8,3.3-9.5,7.4c-1.3,0.3-1.6,0.4-2.6,1.3c0.8,3.9,2.2,7.6,4,11.4c6.8,1.8,15.1,6.7,21.8,5   c8-2.7,20.2-7.4,17.9-17.8c-3.9-1.8-7.4-4.2-11-6.5c0.4-0.3,0.7-0.7,1.1-1c2.3,0.5,4,2.5,6.9,2.4c-2.1-3.2-5.7-2.6-7.3-5.4   c0.3-0.4,0.6-0.8,0.9-1.2c3.6,2.2,7.9,3.1,11.2,5.8c-0.1,1-0.2,1.8-0.3,2.9c8.4,3.5,16.7,5.9,24.8,10.4c1.1-1.1,2.1-2,2.9-2.9   c-0.3-2.8-0.6-5.2-0.8-7.7c-18.7-13.4-6.9-16.7-13.4-25.7c-5.5-3.5-7-15.4-15.4-11.2C467.6,86,468.7,84.7,468.9,83.6z M545.5,568   L545.5,568c-4.8-4.5-4.9-11.5-10.3-15.3c-0.1-1.1-0.7-1.7-1.8-1.9c-4.1-1.8-2.9-7.7-6.6-9.4c-2.8,0.4-5.3,0.8-7.7,1.1   c-0.7,1.4-1.3,2.6-1.9,3.8c-1.5-1.2-0.6-3.4-0.7-5.1c2.2-2.9,6.1-2.6,9.3-3.2c-1.4-37.4,7-76.5-6.9-112.3   c-1.6-30.7,4.7-62.1,0-92.7c-12.1,9.8-39.2,7.8-54.2,6.1c7.3,23.7,20.2,45.3,19.9,70.7c0,8,7.1,13.9,6.6,21.9   c9.7,6.7,2.2,21.3,5.4,31.2c4.4,26.7,14.3,51.9,16.2,79.3c-0.4,0.5-0.9,1.1-1.5,1.7c2,9.6-8.1,20.1-1.1,27.9   c2,5.3,7.7,3.7,11.2,7.2c-2.6,16,24.7,13.9,32.1,6.6c5-4.8-4.8-11.5-7.1-16C546.6,569,545.9,568.5,545.5,568z M522.4,136.3   c0.2,0.3,0.5,0.7,0.7,1l-0.1,0c0.3,1.7,1,3.1,2.8,4.4c-3.4-13.6-4.6-28.4-22.5-28.5c-0.1,4.2,0.5,7.9,1.3,11.8   C511.2,127.7,518,130.5,522.4,136.3z M411.4,550.8c-0.9,0-1,0.8-1.2,1.5C411.3,553,411.7,551.6,411.4,550.8c0.9-0.4,1.2-0.9,0-1.7   C411.4,549.7,411.4,550.3,411.4,550.8z M373.5,139.7c0.3,0.3,0.6,0.6,0.9,0.9c-2.2,3-3.2,5.5-2,9.7c5.7-4.2,11.4-8.4,17.2-12.7   c-3.2-3.7-0.9-10.3,4.5-9.1c0-1.1,0-1.9,0-3.3c-5.9,3.2-11.2,5.8-16.2,10.3c-0.4-0.4-0.7-0.7-1.1-1.1c7.1-11.1,21.4-6.3,18.5-23.1   c-10.4-0.3-18.3,6.3-19.2,16.5C376.1,131.6,372.1,136.4,373.5,139.7z M401.1,134.6c-0.6,1.1-1.1,2.3-1.7,3.4c-1.3,0-2.5,0-3.6,0   c-3.6-2.9-2-3.9-2-7.7c-3.3,1.8-3.3,1.8-2.7,6c1.2,0.8,2.5,1.7,3.8,2.5c1.5-0.2,3.4,0.6,4.4-0.8c5.3-0.8,0.7-6.6-2.1-7.8   c-0.3,1.6-1.9,2.5-0.6,4.4C398,134.6,399.5,134.6,401.1,134.6z M384.8,144.9c-4,1.4-6.9,5.8-11.1,7.4c-0.3,1.3-0.1,1.8,0.5,3.1   C378.5,153.4,383,149.3,384.8,144.9c0.8,0.1,1.6,0.3,2.4,0.4c1-0.9,1.4-1.7,0.5-2.9C386.2,142.9,385.2,143.6,384.8,144.9z    M459.6,200.8c0-0.3,0-0.5,0-0.8c10.4-1.9,20.9-2.8,31.7-3.6c5.1-12.6,2.3-25.4,5.2-38.4c-8.7-8.3-16.4-17.1-21.4-27.7   c-1.3-0.4-2.3-0.9-3.5-0.7c0,1.8,0,3.3,0,4.7c-10,15.9-30.4,14.6-44.6,5.5c-1.2-3.2-2.4-6.4-3.7-9.8   c-26.9,38.6-27.4,19.7-11.4,66.9c5,2.3,10.2-0.2,14.8,2.3c-0.5,0.5-1.1,1-1.6,1.5c-4.1,0.8-8.1,0.5-12.1-0.5   c4.1,30.6,8.3,38.1-8.5,66.4c23.1,3.7,45.5,7.1,68.8,3.7c0.3-0.6,0.6-1.1,0.9-1.6c0.5,0.6,1,1.1,1.6,1.6c8.5-1.8,16.9-3.1,25.4-5.3   c-7.3-22-17-42-10.5-65.7C480,198.4,470.1,201.3,459.6,200.8z M499.2,98.4c0.3-6.3-3.2-11.6-5.9-17.4c-5.2,0.1-10,2.4-14.2,6   c2.6,3.7,4.5,7.4,8.3,9.4c2.4-0.8,4.7-1.6,7-2.4c-0.9-4.4-3.4-7.7-4.7-12c5,1.3,5.5,9,7.2,13.1c-2.4,2-5.2,2.5-8,3.5   c-0.5,3.3-0.1,6.3,0.1,9.3c2.8,0.2,5.4,1.7,8.1,0.4c1.1-2.9-0.9-8.6,1.2-10c1.5,11.1,0.6,21.8,3.2,32.8   C501.1,120,501.5,109.2,499.2,98.4z M401.9,95.9c0,2.3,0,4.5,0,6.8c-3.8,6.1,4.8,4.2,8.2,3c-0.4-3,1.1-6-0.1-9.1   c-2.3-0.8-4.7-1.7-7-2.5c-0.3-0.5-0.5-1-0.7-1.5c1.8-3.9,2.2-11,6.7-12.2c-0.9,4.2-3.6,7.4-4.3,11.6c2.4,0.7,4.7,1.5,6.8,2.1   c4.2-1.8,5.7-5.8,8.4-9.2c-3-2.8-7.1-4.8-10.9-5.5c-1.3-1.5-2.5-0.7-3.7-0.2c-8,15-8,33.5-7.7,49.5   C401.5,118.6,397.1,105.6,401.9,95.9z M402.9,279.8c-2.7,18.5-7.1,36.3-6.9,55.3c17.5,4.1,36.8,7.2,53.5-0.7   c0.9-4.1,1.8-8.1,2.6-12c1.4-0.6,2.7-1.2,3.9-1.7c6.2,2.3,4.9,10.6,8.1,15.4c17.8,2.5,39.9,5.2,54.7-7.1   c-3.7-20.8-9.5-40.7-16.5-60.2c-32.8,8.7-65.7,7-98.7,1.9C403.4,273.9,403.1,276.9,402.9,279.8z M489,133.6   c-3.1-2.1-6.7-2.8-10.8-3.5c1.5,9.9,39,48.2,45.5,32.3c-6.6-5.5-12.5-11.6-17.4-18.3c-6.2,1-12.1-1.2-11.2-8.3   C493,135.1,491,134.3,489,133.6z M415.6,129.2c-4.1,0.7-7.9,3.2-11.7,4.6c0.5,6.8-5.9,10.5-11.8,7.2c-3.7,8.3-10.6,13.2-17.5,18.2   c0.8,1.4,1.8,2.9,2.6,4.3c20-0.1,35.2-19.5,43.8-36C418.8,128.3,417.2,128.7,415.6,129.2z M437.9,378.5   c4.7-13.1,8.1-26.9,10.5-40.6c-16.8,7.9-35.2,4.7-52.6,1c-1.3,31.3,7.2,61.9,1.2,92.7c-11.1,37.8-0.7,75.3,1.7,114   c1.8,0,3.4,0,4.9,0c0.5,0.3,1.1,0.7,1.6,1c0.2,0.8,0.5,1.5,1.6,1.1c0.6-0.9-0.4-2.3,1-2.9c0.1,1.6,0.5,3,1.4,4.1   c1.1-14.3,3-28.6,4.1-42.9c0.9-14.1,8.6-26.7,7.4-41.1c0.1-15,6.2-29,8.6-43.7c1.3-13.9,2.9-27.6,7.9-40.7   C438.2,380,438,379.2,437.9,378.5z M510.2,139c4.5,4.6,7.8,8.6,12.6,12.5c0.4,2.5,0.5,2.5,3.4,4.8c4.9-13-10.3-25.9-21.5-28   c0.1,0.6,0.2,1.3,0.2,2C510.2,130.3,511.5,134.5,510.2,139z M401.2,116.7c3.7-1.4,5.9-3.5,7.3-6.7c-0.5-0.4-0.9-0.7-1.3-1.1   c-1.8,0.3-3.6,0.5-5.5,0.8C400.9,111.8,401.2,114.1,401.2,116.7z M507.1,142.8c4.9,4.3,9.2,10.4,14.1,13.5   c-3.2-5.3-8.4-11.5-13.3-15.2C507.7,141.6,507.4,142.1,507.1,142.8z M498,119.1c-0.2-2.9,0-5.3-1.2-7.7c-2.1,0.7-4.2-1.1-6.3,0.8   C491.9,115.4,494.3,117.4,498,119.1z M503,136.1c-0.8-2.2-0.8-2.2-2.4-3.2c-1.7,1.3-3.3,2.6-3.7,5c0.3,0.4,0.6,0.9,1.1,1.6   c0.2-1.2,0.4-2,0.5-2.8C500.2,137,501.8,137.7,503,136.1z M503.4,140.7c1.8-0.6,3-1,4.3-1.5c0-2.4,0.8-7.2-3.1-6.2   C506.1,136.1,505.5,138,503.4,140.7z M433.1,84c-0.2-0.3-0.3-0.5-0.4-0.7c-0.6,0.3-0.9,0.5-0.4,1.1C432.6,84.2,432.9,84.1,433.1,84   z" />
	<path display="inline" fill="#090807" d="M468.9,83.6c-0.2,1.1-1.3,2.5,0.3,2.9c0,1.1-0.1,2.2-0.1,3.3c-0.3,0.3-0.7,0.6-1,1   c-0.3-0.6-0.6-1.1-0.9-1.7c0.6-0.3,1.2-0.6,0.4-1.6c-0.1,0.6-0.2,1.1-0.4,1.6c-10.5-3.8,1.1,13.5,0.8,17.4   c-4.3-4.1-5.6-8.6-8.1-13.5c-1.9,0.1-2.9,1.1-3.8,2.3c-0.1,4.1,3.9,6.7,3.6,10.6c-5.5-3.1-8.4-14.3,0.3-15.4   c-0.4-2.7-0.8-4.8-1.5-7.4c-1.2,0.6-2.1,1.2-3.1,1.7c-0.3-0.3-0.6-0.5-0.9-0.8c0,0-0.1-0.3-0.1-0.3c0.3-0.2,0.6-0.4,0.9-0.7l0,0   c7-4.9,7.6-14.8,10.2-22.4c1.2-0.1,2.1,0.1,3.2,0.8c2.1-4.2,5.2-8.1,3.5-13.1c-0.9,1.2-1.6,2-2.3,2.8c0.6,1,1.2,1.8,1.7,2.6   c-0.4,0.3-0.7,0.5-1.1,0.8c-0.7-0.1-1.4-0.1-2.4-0.2c-0.4-2.2,0.9-5-0.8-6.6c-1.5-1.8-0.8-4-0.9-6c1.5-0.8,0.6-2.3,0.8-3.5   c0.7-0.9,1-1.6,0-2.5c-0.1-0.6,0.1-1.2,0-1.8c1.1-0.7-0.2-1.3-0.2-1.9c0.2-2,0.6-4.1-0.7-5.9c-0.2-2,0.7-4.6-1.9-5.2   c-0.6-3.8-4.4-6.1-7.5-7.9c-0.4-0.7-0.7-0.7-1,0.1l0,0c-0.2,0-0.4,0-0.6-0.1l-0.3,0.1c0-0.6,0-1.2,0.1-1.7c0,0,0,0,0,0   c15.8,1.4,14.8,20.9,14.7,32.8c0.9-0.1,1.7-0.2,2.5-0.3c6.4,5.2,0.8,13.7-2.8,18.8c-0.9,0.2-1.7,0.4-2.8,0.6   c-0.8,7.4-5.8,14.6-4.8,22.5c1.7,0.1,3.2,0.2,4.8,0.3C467.4,85.4,467.3,83.8,468.9,83.6z M472.3,46.6c-2.8,0.9-3.1,1.3-2.3,2.1   C470.8,48,471.5,47.3,472.3,46.6z" />
	<path display="inline" fill="#0A0807" d="M420,24.5c1.9-8.9,9.8-16.7,19.1-16.3c3.7-7.4,15.4-9,20.3-1.5c0,1,0.1,2.6,0.2,4.1   c-0.6,0-1.1,0-1.7,0c-0.2-1,0.5-2.2-0.9-2.5c-3.5-4.8-10.6-4.8-14.5-0.3c1.7,0.5,2.9,1.2,4.3,0.3c0.3,0,0.6,0,0.9,0   c0.4,1.4,1.7,0.4,2.5,0.9c1.6,0.8,3.4,0.9,5.1,1c0,0.5,0,1,0.1,1.5l0,0c-0.7,0-1.5-0.1-1.8,0.9c-0.3,0-0.5,0-0.8,0   c-1.3-2.5-3.7-1.3-4.3,1c-0.3,0-0.5-0.1-0.8-0.2l-0.1,0.1c0-0.6,0-1.2,0-1.8c-0.4-0.2-0.7-0.4-1.1-0.6c-1.9,0-3.9-0.1-5.8-0.1   c-0.5,0.5-1.1,1-1.6,1.5c-0.2-0.9-0.5-1.7-1.6-1c-1.2,5.5-0.7,7.4,3,11c0.5-1.8-1.2-6.6,1.1-6.5c-0.6,1.8,0.9,2.6,1.8,3.6   c0,1.4-0.4,2.9,0.7,4.2c-1.4,1.3-4-0.3-6-0.2c-2.7-3.5-3.1-7.7-3.8-12c-0.9,0.2-1.5,0.3-2.1,0.4c-0.1,0.6-0.1,1-0.1,1.5   c-0.3,0.3-0.6,0.6-0.9,0.9c-0.6-1-1.2-0.8-1.8,0c-1.6,0.6-3,1.3-2.7,3.4c-1.2,0-1.8,0.6-1.5,1.6c-2.5,1.5-1.4,3.8-3.6,5.4   c0.4,1,0.6,1.7,0.9,2.5l0.1-0.1c-0.3,0.1-0.5,0.1-0.8,0.1c-0.6,0.6-1.1,1.1-1.7,1.7C420.1,27.3,420,25.9,420,24.5z" />
	<path display="inline" fill="#11100F" d="M420.1,28.8c0.6-0.6,1.1-1.1,1.7-1.7c0.3,2.1-2.2,4.5-0.2,6.1c0.6,2.6-0.6,4.8,2.7,5.1   c0,1.1,0,2.2,0,3.4c-4.9,1.3-1.6,8.2-2.6,12c-0.6,5.4,3.5,9.5,3.6,14.7c-0.6,0.1-1.5-1.2-1.9,0.3c-0.5-0.4-1-0.7-1.6-1.1   c0.3-0.3,0.7-0.7,1-1c0.4-1.7,0.4-1.7-1-4.1c0.4,1.8,0.7,2.9,1,4.1c-0.3,0.3-0.7,0.7-1,1c-2.8-2.6-2.7-6.7-4.5-9.9   c-2.6-4.1-0.9-7.5,1.1-11.5c-0.7-5.3,0-10.9,0.9-16.4C419.5,29.4,419.8,29.1,420.1,28.8z M419.9,57.7c-0.2-1.9,1.3-5.1-1.4-5.3   C417.9,54.4,418.1,56.1,419.9,57.7z M421.1,37.9c-1.1,1.8-1.4,1.9,1.6,2.4C422.2,39.5,421.8,38.9,421.1,37.9z" />
	<path display="inline" fill="#2B2620" d="M374.5,592.9c0.5,0.2,0.9,0.3,1.4,0.5c0.1-0.9,0.2-1.7,0.4-2.4c0.3,0.6,0.7,1.1,1,1.6   c3.1-0.7,5.9-2.1,9-2.2c1.6,1.9,3.9,1.9,6.2,2.5c0.4,0.8,2.1,0.7,1.5,2.3c-5.3-0.5-10.2-2.8-15.5-0.2c0.5,0.5,0.9,0.9,1.2,1.2   c-1.9,0.8-4.1-2.2-5.3,0.1C372.9,595.8,374.4,594,374.5,592.9z" />
	<path display="inline" fill="#46464F" d="M367.1,156c1.1-0.2,2.2-0.4,3.3-0.7c1.6,2.3-3.6,4.5-5.7,4   C365.6,158.2,366.3,157.1,367.1,156z" />
	<path display="inline" fill="#988D76" d="M420.1,28.8c-0.3,0.3-0.6,0.6-0.9,0.9c0.1-1.8-0.6-3.6,0.7-5.2   C420,25.9,420.1,27.3,420.1,28.8z" />
	<path display="inline" fill="#362D27" d="M457.8,10.7c0.6,0,1.1,0,1.7,0c0,0.6,0.1,1.1,0.1,1.7c-0.7-0.3-1.3-0.7-2-1   C457.6,11.2,457.7,10.9,457.8,10.7z" />
	<path display="inline" fill="#FF9A77" d="M506,280.7c6.6,15.4,9.2,31.9,12.8,48.2c-11.7,10.7-28.2,8.8-42.9,8.6   c2.4-9.8-4.4-18.7,9.2-22.7c-2,0.2-3.4,0.4-4.7,0.5c-0.2-0.2-0.4-0.3-0.7-0.6c0.7-1,1.5-2,2.2-3c6.4,0.3,10.7-2.1,16.1-6.2   c-6.1,0.3-12.5,6.4-16.5,1.5c3.9-2.9,8.8-4.2,12.1-7.9c-12.2,3.9-24.9,8.6-33.3,17.6c0.6,0.2,1.1,0.3,1.7,0.5c-0.7,1-1,2.1-1.3,3.3   c-1.3,1.2-2.9,0.8-4.5,0.1c-1.2,0.5-2.4,1.1-3.9,1.7c-0.9,4-1.8,8-2.6,12c-10.3,4.9-21.7,6.1-32.9,4c-0.6-1.5-2.5-0.2-3.4-1.7   c2-14.1,3.1-28.7,6.3-42.8c3-0.4,5.8,1.7,8.8,0.2c-2.2-2.4-5.5-1.4-7.9-2.9c0.8-3.7,1-8.4,4.7-10.2c-0.3-0.3-0.6-0.6-1-0.9   c-0.2,0-0.5,0-0.7-0.1c-0.2-2.5,0.7-6.1,3.6-6.1c10,1.4,20.1,2.6,30.2,1.3c15.4,0.1,30-3.6,45-6.3c0.8,3.4,3,6.5,2.6,9.9   c-2.1,1.2-4.6,0.6-6.6,2C501,280.7,503.5,280.9,506,280.7z M438.2,316.7c-1-1.1-2.3-0.6-3.5-0.9c-2-0.9-7.5-2.5-8.8-0.2   c7.1,0.6,12,2.6,19.1,3.5C442.8,317.1,440.5,316.8,438.2,316.7z M490.6,286.1c1.1-0.3,2.5,0.1,3-1.9c-3,1.2-11.6,0.3-12.1,3   C484.6,286.5,488,287.6,490.6,286.1z M430,309.2c0,0.3-0.1,0.5-0.1,0.8c7.4,1.8,15.6,9.9,22.9,7.7C449.1,316,434.2,308.8,430,309.2   z M443.7,307.5c1.8-3.3-17.8-8.5-20.6-8.6C429.7,302.2,436.6,304.7,443.7,307.5z" />
	<path display="inline" fill="#F6D9C7" d="M477.6,341c13.6-2.1,30,1.6,41.2-7.8c4.7,30.6-1.6,61.9,0,92.7   c13.9,35.7,5.5,74.9,6.9,112.3c-3.2,0.5-7.1,0.3-9.3,3.2c-3.2-4-0.7-10.2-2.6-14.6c1.5-0.9,0.8-2.2,0.8-3.5c-0.5-0.6-1-1.1-1.6-1.7   c-0.7-26.1-17.5-52.1-10.2-78.1c4.6,1.8,4.1,6.2,7.3,8.9c2.3-12.1-5.1-15.8-9.3-24.6c-2-2.3-2.5-7.5-5.9-7.7   c-7.7-15-2.1-34.1-9.9-49.7c-2.1-6.8,4-14.3-0.4-20.8c-0.7,1.3-1.2,2.5-2,3.5c-0.8,0.9-0.3,2.6-2,3.3   C479.3,351.2,478.1,346.3,477.6,341z M514.5,413.2c0.1-1,0.5-2.1-0.7-3.5c0.5,3.8-1.3,6.5,0.3,10.2   C515.5,417.6,514.8,415.4,514.5,413.2z M515.6,426.9c0,1.3,0.5,2.3,1.4,3.2c0-2.4,1.4-8.6-2.6-8.1   C514.8,423.7,515.2,425.3,515.6,426.9z M510.8,413.8c0-3.5-2.1-7.3-5.5-10.1C496.6,403.6,506.1,415.4,510.8,413.8z M515.8,439.4   c0.7-2.3,2-4.5,1.1-7.5C515.1,434.4,515.2,436.9,515.8,439.4z M512.6,461.1c0.5-2.6,0.5-2.6-1.2-3.4   C511,459.1,511.8,460,512.6,461.1z M514.1,471.4c0.6-1,0.8-1.9,0.1-3C512.5,470.6,512.5,470.6,514.1,471.4z M513.2,466   c1.3,0.1,1.8-1.8,0.4-1.9C512.5,464.5,512.8,465.2,513.2,466z M514,402.5c1.2,0.5,2.2-0.6,0.8-1.1C514.6,401.7,514.3,402,514,402.5   z M514.5,404.9c-0.2,0-0.4,0-0.6,0C513.9,406.4,514.4,406.4,514.5,404.9z" />
	<path display="inline" fill="#F6D9C7" d="M409.7,341.7c13.6,0.7,25.7,2.7,38.7-3.9c-2.4,13.7-5.8,27.5-10.5,40.6   c-1-2.3-0.5-4.7-0.9-7.1c-0.1,0-0.3,0-0.4,0c-0.2,2.5-0.8,5-1.2,7.4c0.7,0.7,1.3,1.2,1.9,1.7c-4.9,13.1-6.5,26.8-7.9,40.7   c-2.4,14.7-8.5,28.7-8.6,43.7c1.2,14.4-6.5,27.1-7.4,41.1c-1.1,14.3-3,28.7-4.1,42.9c-1.3-1.7-1.4-4.3-1.5-6.4c-2,1-0.8,3.1-2.5,4   c-1.3-0.8-2.7-1.7-4-2.5c1.2-32.6-12.5-75.3,0.7-105.1c0.3,0.3,0.5,0.7,0.8,1c-0.8,3.3,1.6,14,5.9,8.7c-1.8-10.7-1.3-22.6-4.1-32.9   C401.3,391.4,408,366,409.7,341.7z M415.7,438.1c-1.4,0.8-2.5,2.1-2.4,3.6c-0.2,5.3-4.2,9.5-5.1,14.4   C412.4,451.1,415.3,444.7,415.7,438.1c2.7-0.3,5.3-10.8,1.1-9.2C416.3,432,415.5,435,415.7,438.1z M411.1,416.7   c2.2,4.2,3.2,8.8,8.5,10.2c0.4-4-2.2-11.2-6.1-12.7C412.9,414.9,412.1,415.7,411.1,416.7z M406.8,536.4c-0.4,1.3-0.9,2.8,0.8,3.9   C408,538,408,538,406.8,536.4z M409,459.5c-2.1,1.2-2.1,1.2-1.9,3.9C408.3,462.4,408.5,461.2,409,459.5z M437,361.6   c-2.5,0.2-1.3,1.7,0.2,3.2C437.1,363.1,437.1,362.4,437,361.6z M406.5,531.8c0,0.9,0,1.6,0,2.5C408.3,533.3,408.3,533,406.5,531.8z    M407.1,469.6c-1.8-0.3-1.9-0.2-1.4,2.1C406.3,470.9,406.7,470.3,407.1,469.6z M437.3,369.6c0.5-0.8,0.9-1.4,0.2-1.8   C436.3,368.2,436.5,368.6,437.3,369.6z M406.7,525.9c-0.1,0.1-0.2,0.2-0.3,0.3c0.2,0,0.4,0,0.6,0   C406.9,526.1,406.8,526,406.7,525.9z" />
	<path display="inline" fill="#F6D9C7" d="M474.3,268.8c-0.3,0.5-0.6,1-0.9,1.6c-10.3,0.9-21,1.9-31.2,0.4   c-10.9-21.1-11.2-33.3-9.2-56.2c1-0.9,1.8-1.7,2.1-2c-0.6-4.4-0.1-7.7,1.3-11.6c18.1,1.8,36-1.7,54.4-1.6   c-6.4,23.7,3.2,43.7,10.5,65.7c-8.5,2.2-16.8,3.5-25.4,5.3c-0.2-2.6,2.5-4.3,2.5-7.3C476.3,264.8,474.9,266.5,474.3,268.8z    M452.7,248.1c2,1,2.2,3.5,3.9,4.8c1.3-3.4,1.5-6.7,1.3-10.1c-1.5-1.9-0.4-4.4-1.2-6.5c-1.2-0.4-2.4-0.7-3.5-1   c-1.1,3.2-0.2,6.8-0.5,10.2c-0.3,0.4-0.7,0.8-1.1,1.3C452,247.3,452.3,247.7,452.7,248.1z M483.6,255.8c-1.7,1.5-2.5,2.8-2.3,5   C483.4,259.6,483.8,258.1,483.6,255.8z M486.5,254.3c0.9-1.6,1.8-2.8,1-4.6C486.1,251,485.8,252.3,486.5,254.3z" />
	<path display="inline" fill="#FFF0A7" d="M406.8,151.7c6.4-6.5,11.5-14,16.5-21.6c1.3,3.4,2.5,6.6,3.7,9.8   c14.3,9.1,34.7,10.4,44.6-5.5c0-1.4,0-2.9,0-4.7c1.2-0.2,2.2,0.3,3.5,0.7c5,10.6,12.6,19.4,21.4,27.7c-2.9,13-0.1,25.8-5.2,38.4   c-19.2,1.7-37.5,4.9-56.6,2.6c-2.4-19.9,15.1-19,11-23l0,0c0.7-2.2-0.6-3.5-2.7-4.6c-12.1,4.5-26.6,1.5-30.9-11.7   C409.3,157.5,410.3,152.9,406.8,151.7z M449.1,170.7c0,2.3,1.5,3.7,2.7,5.4c1.3,0.8,3,0.7,3.5,2.3c-0.4,0.5-0.8,1-1.2,1.6   c8.5,9.5,34.8,6.7,39-5.8c-1.4-3-3.6,1-4.7,2.3c-9.3-4.4-13.5,3-27.8-3.3c-3.9-3.6-6.7-9.7-12.2-5.1   C448.4,169,448.1,170,449.1,170.7z M492.8,171.5c1.1-0.2,1.5-0.6,0.7-1.6C492.5,170.1,492,170.5,492.8,171.5z" />
	<path display="inline" fill="#F6D9C7" d="M424.3,41.7c-0.1-2.5,0.9-5.4-1.6-6.8c0.5-0.1,1-0.3,1.5-0.4c-0.1-3.3,0.3-6.3,2-9   c1-0.2,2.1-0.3,3.1-0.5c1.1-1.6,3.5-3.9,1.3-5.7c-0.4-1.7-1.1-3.3-1-5.1c0.6-0.8,1.2-1,1.8,0c-1,3.8,1.8,9,5.3,9.1   c-0.4-0.8-0.8-1.5-1.3-2.1c0.3-0.3,0.6-0.6,0.9-0.8c0.6,1.1,1.3,2.2,1.9,3.1c2-0.1,4.6,1.5,6,0.2c0.3,0,0.6-0.1,0.9-0.1   c2,1,3.2,0.1,4.3-1.5c1.4-1.5,3.5,0.8,5.1-1.1c0.3,0.3,0.7,0.6,1,0.8c0.6-0.3,1.1-0.5,1.7-0.8c0.1,0.9,0.8,1,1.5,1   c0.5,0.7,1.1,1.4,1.6,2.1c0.7-0.5,1.2-0.8,1.9-1.3c-0.1,1.9,1.9,3.5,1.8,5.2c-0.9,1.3,0.7,1.6,0.8,2.4c-0.2,1-0.4,2-0.6,2.9   c0.7,0.5,1.1,0.8,1.6,1.1c-0.5,0.8-1,1.6-1.5,2.5c4.1,2.8,1.2,7.2,3.4,10.8c-0.4,11-3.4,23.4-9.4,32.7c-1.4,0-0.5,1.7-1.5,1.8   c-0.4,0.3-0.8,0.5-1.1,0.8c0,0,0,0,0,0c-0.3,0.2-0.6,0.4-0.9,0.7c0,0,0.1,0.3,0.1,0.3c-4.6,1.6-9.4,3.9-14.5,2.3   c-0.9-3.4-4.2-4.2-7-6.2c-4.9-11.1-5.8-23.6-10.5-35c0.7-0.9,1.3-1.8,2-2.6c1,0.2,2,0.3,2.7-0.7c4.3,0.1,7.6,1,11.9,2.1   C435.5,39.3,429,40.1,424.3,41.7z M443.1,64.8c-1.1-1.6-1.1-1.6-2.5-0.7c-0.2,0-0.5,0-0.7,0c-1.4-1.4,0.4-1.9-0.5-3.3   C435.5,63.1,440.5,68.1,443.1,64.8z M461.4,38.3c-0.1,1,0,1.9,1.6,2c-0.3-1.5,0.8-3.5-0.7-4.4c-0.2,0-0.4,0.1-0.8,0.1   C461.5,36.8,461.4,37.5,461.4,38.3z M460.3,46.1c-3.3-0.5-8.8-3-10.3,1.5c-0.7,0.7-2.4,1-1.3,2.9c0.9-0.7,1.7-1.3,2.5-1.8   c0.6,0.7,1.3,1.5,2.3,1.6c-0.1,0.5-0.2,1-0.4,1.7c0.9-0.1,1.5-0.2,2.2-0.3c0.1-0.9,0.1-1.6,0.1-2.2c0.4-0.4,0.8-0.7,1.1-1   c1.1,0.3,2,0.7,3,0.9C460.3,48.9,462.2,46.4,460.3,46.1z M444.9,63.2c0-0.8,1.5-1.1,0.6-2.2c-2.3,0.9-0.1,2,0.1,3.7   c1.5,0,2.8,0,4.1,0c0.9-1.4,0.9-2.6-0.1-4.2c-0.3,1.2-0.5,2.1-0.6,2.7C447.6,63.3,446.2,63.3,444.9,63.2z M438.9,76.1   c-0.1-0.2-0.2-0.4-0.3-0.6c-0.4,0.5-0.8,0.9-1.2,1.3c2.8,2.5,10.2,3.3,13.4,0c2.7-0.8-1.7-3.1-2.3-0.7l0,0c-0.6-0.3-1.9,0-1.1-1.7   c1.7,0.1,6.3,0.3,6.1-2.2c-6.3-1.3-11.8-2.2-17.8,0.4c1.7,3.5,6.1,0.1,7.8,3.1C441.6,75.9,440.3,76,438.9,76.1   C438.9,76.1,438.9,76.1,438.9,76.1z M431.1,50.4c0.1,0.7,0.1,1.4,0.2,2.2c1.1,0,2.2,0,3.3,0c0-1,0-1.7,0-2.4   c0.8-1.2,1.8,0.8,2.7-0.2c-0.1-4.8-8.7-5.5-11.5-2.6c0.5,0.2,1,0.4,1.4,0.6c-0.4,0.6-0.7,1.2-1.1,1.7c1.9,1.7,2.6-0.9,3.9-0.7   C430.4,49.5,430.7,50,431.1,50.4z M461.8,42c-2.8-2.4-14.7-2.6-15.9,1.2C451.5,42.4,455.9,41.5,461.8,42z M444.7,53.5   c1.3-1.2,1.5-2.5,0.8-3.9c-0.5,0.1-0.8,0.2-1.4,0.4C444.3,51.2,444.5,52.4,444.7,53.5z M447.3,44.3c-1.5,1.2-2,2.3-1.1,4.1   C446.8,47,448,46.1,447.3,44.3z M439.5,49.8c-0.2-0.5-0.5-0.9-1-1.1C438.1,49.8,438.1,49.8,439.5,49.8z" />
	<path display="inline" fill="#E1C7B6" d="M436.4,201c-1.4,3.9-1.9,7.2-1.3,11.6c-0.4,0.4-1.2,1.1-2.1,2c-2,22.9-1.7,35.1,9.2,56.2   c3.7,1.2,7.8,0,11.7,0.7c-7.3,1.1-15.5,0.6-22.7-0.9c0.6-3.3-3.8-7.4-5.9-10.4c1.1-0.6,1.2-2.2-0.4-1.5c0.1,0.5,0.2,1,0.4,1.4   c-0.2,0.3-0.8,0.7-0.7,0.9c1.6,2.8-1.7,5.7,0.7,8.4c-6.9-0.9-13.4-1.8-20.6-2.8c16.8-28.3,12.6-35.8,8.5-66.4   C420.7,202.1,428.6,200.2,436.4,201z M419.7,249.1c0.4-3.9,0.4-3.9-0.8-5.2C417.9,245.8,419.3,247,419.7,249.1z M431.4,265.5   c-0.1,1.3,0.1,1.4,1,1.9C433.4,266.9,432.4,265.7,431.4,265.5z M429.4,263c-0.1-0.1-0.2-0.2-0.3-0.3c-0.2,0.3-0.4,0.6,0,0.9   C429.2,263.4,429.3,263.2,429.4,263z" />
	<path display="inline" fill="#E1C7B6" d="M513.8,526.7c0.3,0.6,0.5,1.2,0.8,1.8c-0.4,0-0.8,0-1.3,0c-0.5,1.6-0.4,3-0.1,4.7   c0.7-0.3,1-0.5,1.4-0.7c0.2,2.9,0.1,6.6,1.9,8.8c-0.1,1.2,0,2.5-0.9,3.4c-0.3,0-0.5-0.1-0.8-0.1c-0.1-1.8-0.2-3.6-0.2-5.4   c-0.5,0-0.8,0-1.1,0.1c-4-11.9-4.9-25.2-7-37.5c-3.6-12.8-9.1-25.3-9.9-38.8c-3.2-9.9,4.3-24.5-5.4-31.2c0.5-7.9-6.6-13.9-6.6-21.9   c0.3-25.5-12.6-47.1-19.9-70.7c4.4,0.3,8.6,1.3,13,1.7c0.5,5.3,1.6,10.2,3.1,15.4c1.7-0.7,1.2-2.4,2-3.3c0.8-0.9,1.2-2.1,2-3.5   c4.3,6.5-1.7,14,0.4,20.8c7.8,15.6,2.3,34.7,9.9,49.7c-0.5,3.9,2.9,6.5,5,9.3c-2,4.8-0.4,7.5,5.2,9c-2.9-3.9-4.8-5.5-4.4-10.6   c4.2,8.8,11.6,12.5,9.3,24.6c-1.8-0.9-2.1-2.4-2.3-4c2.2-0.6-1.5-6.9-3.4-7c0.7,1.9,1.2,3.2,1.7,4.4c-1-0.7-2-1.5-3.3-2.4   c-6.7,24.4,7.3,49.5,10.1,73.7c-1,0.8-1,0.8-0.1,1.6c0,0.9,0.1,1.9,0.1,2.7c0.6,0.6,1.1,1.2,1.6,1.7c-0.4,0-0.8,0-1.3,0   C512.8,524.6,512.6,525.7,513.8,526.7z M480.2,370.6c0.3,0.1,0.6,0.3,0.8,0.4c1.8-1.5,2-3.4,1.3-6.6   C481.5,367.1,480.9,368.9,480.2,370.6z M483.6,359.9c-0.1-0.2-0.3-0.4-0.4-0.5c-0.5,0.3-0.2,0.6,0,1   C483.3,360.2,483.4,360.1,483.6,359.9z" />
	<path display="inline" fill="#E1C7B6" d="M402,438.9c-13.3,30.4,0.5,72.2-0.7,105.1c0.8,0.5,1.6,1,2.4,1.5c-1.6,0-3.1,0-4.9,0   c-2.4-38.7-12.8-76.2-1.7-114c6-30.9-2.5-61.5-1.2-92.7c4.8,0.6,8.9,2.5,13.8,2.9c-1.6,24.3-8.4,49.6-5.1,73.9   c-3.5,0.5-1,6.6-1.7,9.2C403.5,429.8,399.5,434.2,402,438.9z" />
	<path display="inline" fill="#EF8A6A" d="M423.5,281.8c-1.9,2.8-2.5,5.9-3,9.3c2.3,1.5,5.6,0.5,7.9,2.9c-3,1.6-5.8-0.6-8.8-0.2   c-3.3,14-4.4,28.7-6.3,42.8c0.9,1.5,2.8,0.2,3.4,1.7c-7-0.3-13.8-1-20.6-3.2c0-18.3,3.6-35.7,6.9-53.5   C409.7,281.5,416.6,281.4,423.5,281.8z" />
	<path display="inline" fill="#EBDA8F" d="M439.8,181.8c-4.5,4.8-5.6,10.8-5.1,17.2c-7.7,0.1-14.9-0.4-22.7-2   c-1.9-14.3-19.6-33.6-5.1-45.3c3.5,1.3,2.4,5.8,5.1,8c4.3,13.2,18.8,16.3,30.9,11.7c2.2,1.1,3.4,2.4,2.7,4.6   c-12,6-25.6,10.8-36.4,0.6C412.6,189.5,430.7,186.9,439.8,181.8z M407.2,174.8c-0.7-1-0.7-2.2-2.1-2   C405.2,173.9,405.3,174.8,407.2,174.8z M404.2,170.2c0.1-0.3,0.5-0.8,0-1C403.6,169.5,403.8,169.8,404.2,170.2z" />
	<path display="inline" fill="#F6D9C7" d="M458.7,119.9c3.6,2.3,7.1,4.7,11,6.5c2.2,9.1-8.3,15.3-16.1,16.9c0-3.2,0.3-6.1-2-8.8   c0.1-0.5,0.3-1.1,0.4-1.6c1.4-1.1,2.5-1.6,3.1-3.5c-1.5,0.1-2.2,0.7-2.5,1.7c-4.8,0.7-4.1,8.8-4.3,12.7c-6.2,0.3-12.6-2.7-18.4-4.6   c-1.8-3.8-3.2-7.5-4-11.4c0.9-0.9,1.3-1,2.6-1.3c2.8-6.9,14.3-6.6,17.1-14.2c0.3-0.8,1.4-1.3,2.1-2   C451,114.1,453.5,118.4,458.7,119.9z M445.2,132.4c0.8,0.8,0.8,0.8,2.1,1C446.7,132.5,446.4,131.6,445.2,132.4z" />
	<path display="inline" fill="#F6EFD0" d="M389,592.1c-0.7,0-1.4,0-1.7-0.9c-0.4-0.3-0.7-0.5-1.1-0.8c-1.5,0.1-3.1-0.2-4.5-0.3   c-1.4-4.3,2.1-8.1,3.1-12.1c1.9,0.7,7.4,3.6,6.8-0.6c0.6-1.6,2.8-0.1,3.4-1.7c2.1-1,2.1-2.3,0-3.5c1.2-2,3.9,0.4,5.1-1.6   c1-0.6,1.4-1.5,0.8-2.6c1.4-0.8,2.6-1.5,3.2-3.1c-4-4.5-11.6,0.2-16.3-3.1c5.2-2.2,11.7,0,17.3,0c-1.9-4.7-10-3.5-14.4-4   c2.3-3,1.5-6.8,3.6-9.2c3.4,0,6.5,0,9.8,0c3.3,2.9,3.7,8,8.6,8.6c-0.2,4.4-0.2,4.4,2.7,8.6c-0.3,5.3,0.2,12.4-5.7,15   c-1.2-1.5-0.3-2.4,0-4.4c-6.4,5.2,1.7,13.8-7.4,17.5c-3.2-0.7-6.5-1.3-9.8-1C391.6,591.4,390.2,592.1,389,592.1z" />
	<path display="inline" fill="#F7EFD0" d="M546.4,569.7c2.3,4.5,12.1,11.2,7.1,16c-1.7-5.1-11.1-2.4-14.6,0.3   c-4.9-0.2-10.6,0.8-14.3-2.7c-1-9.4-4.1-11-12.4-14.4c0.6-5-1.3-11.2,1-15.7c3.1,0.2,4.5-4.2,4.1-6.8c0.6-1.2,1.2-2.5,1.9-3.8   c2.5-0.4,5-0.7,7.7-1.1c3.7,1.7,2.5,7.6,6.6,9.4c-0.3,1.2-1.3,0.8-2.1,0.8c-4.6-0.6-13,1.6-9,7.6c-0.2,1-1,2,0.2,2.9   c0.8-0.4,1.5-0.8,2.3-1.3c0.3,0.3,0.6,0.6,0.9,0.9c-2.6,2-1.8,3.8,1.3,3.8c0.4,0.9,0.7,1.7,1.1,2.4c2.3,0.2,4.4-0.6,6.3,0.7   c-0.6,0.6-1.9,0.6-1.7,2.2C537.3,571.8,542.1,571.7,546.4,569.7z M544.8,572.6c-2.6-0.7-4.7-0.8-6.7,0.9   C542.2,575.3,542.3,575.2,544.8,572.6z" />
	<path display="inline" fill="#F5D9C7" d="M431.1,88.1c1.3-1.4,2.4-2.5,4.4-1.6c1.7,6.9-3.7,11.5-4.9,17.6c4.3-2.9,5.4-9,8.6-13.4   c2,0,3,1.4,3.8,3.2c-1.3,3.6-4.3,6.5-4,10.5c2.6-2.8,4.9-5,4.9-8.6c0.6-0.6,1.1-1.1,1.7-1.7c0.9,0.9,1.8,1.7,2.6,2.6   c-0.6,6.8-5.7,11.8-10.4,16.3c-1.8,0.4-3,2.5-5.2,1.7l0.1,0.1c0.9-0.8,1.8-1.5,3.1-2.6c-3.1-2.4-5.9,1.9-8.4-1.7   c-2.7,1.1-5.3-3.2-6-1.9c-2.8,0.4-2.6-3.1-2.8-4.8c-2.1-2-4.2-0.5-6.5-1.3c0-1.7,0-3.4,0-5.4c6.9-3,7.7-16.6,16.9-12.9   c0.3,0.6,0.6,1.2,0.9,1.9c-1.8,3.4-3.9,6.6-4.2,10.6c-0.9,0.3-1.4,0.8-0.2,2c0-0.9,0.1-1.5,0.1-2.1   C429.8,96.1,429.6,90.9,431.1,88.1z" />
	<path display="inline" fill="#F5D8C6" d="M467.2,89.1c2.3,2.5,1.8,8.6,5.3,9.2c0.1,1-0.2,2.2,1.6,2.5c-1.6-3.8-2.3-7.7-5-11   c0-1.1,0.1-2.2,0.1-3.3c6.8-3.6,9.1,4.1,12.6,8.2c2.4,3.2,6.9,5.1,4.4,9.7c-0.9,0.1-2.1-0.5-2.4,1.1c-0.2,0.3-0.5,0.5-0.7,0.8   c-5.6,1.2-12.8,1.5-16.6,6.7c-3-1.4-5.7-1.3-8.6-0.8c-2.8-1.6-3.7-4.6-5.4-7.1c0.4-1,0.7-2.1,1.1-3.1c-1-1.1-1.9-2.1-2.9-3.2   c1.3-1,2-2.5,3.8-2c0.7,3.6,2.1,7.5,5.3,9.1c0.3-3.9-3.7-6.5-3.6-10.6C457,94,458,93,459.9,93c2.5,4.8,3.8,9.4,8.1,13.5   C468.3,102.6,456.7,85.3,467.2,89.1L467.2,89.1z" />
	<path display="inline" fill="#E0C6B5" d="M415.6,129.2c1.6-0.5,3.2-1,5.3-1.6c-8.6,16.4-23.8,35.8-43.8,36   c-0.8-1.3-1.7-2.9-2.6-4.3c0.8-1.7,2.1-1.8,3.3-2.3c0.9,1.4,2.3,0.5,3.3,0.7C394.1,150.5,407.3,140.7,415.6,129.2z" />
	<path display="inline" fill="#E0C6B5" d="M523.2,163.8c-9.7,11.3-42.3-23.1-45-33.7c4.1,0.7,7.7,1.4,10.8,3.5   C490.9,148.6,510.2,157.9,523.2,163.8z" />
	<path display="inline" fill="#F5D8C6" d="M487.2,112.2c3.4,4,6.1,8.7,10.9,11.3c0.3,2.5,0.5,4.9,0.8,7.7c-0.8,0.8-1.8,1.8-2.9,2.9   c-9.2-3.6-16-8-21.5-16.4c0.7-0.8,1.6-1.7,2.4-2.5C480.4,116,484.1,113.9,487.2,112.2z" />
	<path display="inline" fill="#F5D8C6" d="M427,120.9c-6.9,4.8-16.3,6.4-24,10.8c-0.9-0.8-1.8-1.7-2.8-2.5c0.2-2.5,0.3-4.9,0.5-7.4   c4-2.9,7.1-6.5,10.1-10.4C414.8,116.7,421.6,118.1,427,120.9z" />
	<path display="inline" fill="#EADCB7" d="M513,553.2c-2.3,4.5-0.3,10.7-1,15.7c8.4,3.4,11.4,5,12.4,14.4c3.7,3.5,9.5,2.5,14.3,2.7   c-0.2,1.3-2,2.3-0.3,3.5c4-2.8,9.2-6,14-2.7c-8.5,5.4-33.4,8.3-31.1-7.8c-3.4-3.5-9.2-1.9-11.2-7.2c-5.8-5.7-0.5-13.3,0.9-20.3   c0.3,0,0.6,0,0.9,0C512.3,552.2,512.7,552.7,513,553.2z" />
	<path display="inline" fill="#EE896A" d="M478.5,317.8c-4.8,6.4-0.3,13.2-2.6,19.7c-4.1,0.5-7.9-0.5-11.8-1.5   c-2.8-4.8-2.3-10.6-6.4-14.8c0.6,0,1.1,0,1.7-0.1C462.7,324.1,473.6,318,478.5,317.8z" />
	<path display="inline" fill="#F4D8C6" d="M521.1,134.7c-4.6-4.6-10.5-7.2-16.4-9.7c-0.9-3.9-1.4-7.6-1.3-11.8   c15.1,0.4,19.5,10.8,20.8,24c-0.4,0.1-0.8,0.1-1.2,0.2l0.1,0c-0.2-0.4-0.5-0.7-0.7-1.1C522.3,135.4,522.3,134.6,521.1,134.7z    M506.8,121.7c-0.1,0.2-0.3,0.3-0.4,0.5c0.5,0.3,0.8,0.4,1.1-0.2C507.3,121.9,507.1,121.8,506.8,121.7z" />
	<path display="inline" fill="#F4D8C6" d="M523.2,163.8c-12.9-5.9-32.2-15.2-34.2-30.2c2,0.7,4,1.5,6.1,2.3c-0.9,7.1,5,9.2,11.2,8.3   c4.9,6.7,10.8,12.8,17.4,18.3C523.5,163,523.3,163.4,523.2,163.8z" />
	<path display="inline" fill="#E0C6B5" d="M487.2,112.2c-3.1,1.7-6.8,3.8-10.3,3c-0.8,0.8-1.6,1.7-2.4,2.5c2.9,3.5,5.6,6.7,8.3,10   c-4-0.9-7.8-2.3-11.6-4.1c0.1-1.1,0.2-1.9,0.3-2.9c-1.1-0.8-2.2-1.6-3.3-2.4c0.6-0.6,1.1-1.2,1.7-1.8c-0.7-1.4-2-2.1-3.4-2.7   c0-0.2,0-0.5,0-0.7c3.8-5.2,11-5.5,16.6-6.7c-0.2,0.5-0.4,1-0.7,1.6c1.8,0.6,3.8-1.1,2.6-2.5c-0.4,0.1-0.8,0.1-1.2,0.2   c0.3-1.5,1.5-0.9,2.4-1.1C486.5,107,486.9,109.6,487.2,112.2z M476.6,110.4c-0.2,0.5-0.3,0.8-0.4,1.2   C477.4,112.3,477.8,111.2,476.6,110.4z M472,112.2c-0.5,0.4-0.8,0.7-1.8,1.4C472.2,113.8,472.6,113.7,472,112.2z" />
	<path display="inline" fill="#F0D4C2" d="M510.2,139c1.3-4.5,0-8.7-5.4-8.7c-0.1-0.7-0.2-1.4-0.2-2c11.2,2.1,26.4,15,21.5,28   c-2.9-2.3-2.9-2.3-3.4-4.8C518,147.6,514.7,143.6,510.2,139z" />
	<path display="inline" fill="#F3D8C6" d="M415.6,129.2c-8.4,11.5-21.5,21.3-34.5,28.5c-1-0.1-2.3,0.7-3.3-0.7   c6.2-4,10.9-9.4,14.3-15.9c5.9,3.3,12.3-0.5,11.8-7.2C407.7,132.4,411.5,129.9,415.6,129.2z" />
	<path display="inline" fill="#EC8869" d="M427.1,273.7c-3,0.1-3.9,3.7-3.6,6.1c-6.7,1.6-13.7-0.5-20.6-0.1c0.2-2.9,0.5-5.9,0.8-9.2   C411.6,271.4,419.4,271.1,427.1,273.7z" />
	<path display="inline" fill="#E0C6B5" d="M427,120.9c-5.3-2.8-12.2-4.2-16.2-9.5c0.6-1.7,1.8-3.2,1.6-5.1c0.4-0.5,0.7-1.1,1.1-1.6   c1,0.5,1.7,2,3.3,0.9c-0.8-1-1.4-1.8-2.1-2.7c1.4-0.1,2.8-0.5,4.2,1c0.2,1.7,0,5.2,2.8,4.8c0.2,0.2,0.3,0.5,0.5,0.8   c0.2-0.3,0.3-0.5,0.5-0.8c1.3,0.9,2.4,2.3,4.2,1.8c0.1,0.2,0.2,0.4,0.4,0.7c0.1-0.2,0.3-0.4,0.4-0.6c1.1,0.6,1.3,1.9,2.7,1.7   c-0.5,0.5-1,0.9-1.6,1.5c1.1,1.4,2.6,1,4.2,1.1l-0.1-0.1c0.1,0.3,0.1,0.6,0,0.8c-1.6,0.7-3.3,1.4-4.7,2.1   C427.7,118.9,427.3,119.9,427,120.9z" />
	<path display="inline" fill="#0A0807" d="M454.4,96.8c-1.8-0.5-2.5,1-3.8,2c1,1.1,1.9,2.1,2.9,3.2c-0.3,1-0.7,2.1-1.1,3.1   c1.8,4,4.7,6.8,7.9,9.7c-0.3,0.4-0.6,0.8-0.9,1.2c-1.5-1.5-2.9-2.9-4.6-4.5c-2.6,4.4,3.5,4.8,5,7.5c-0.4,0.3-0.7,0.7-1.1,1   c-5.2-1.5-7.7-5.9-10.9-9.6c-3.3,3.1-5,7.4-9.7,8.9c-0.3-0.9-1-0.9-1.7-0.9c2.2-2.4,5.3-3.3,5.9-6.9c-1.4,1.2-2.4,1.9-3.3,2.7   c-0.3-0.3-0.6-0.7-0.9-1c2-2,4.1-4.1,6.1-6.1c0.6,0.3,1.2,0.7,1.7,1c4.1-3.7,4.1-3.7,3.9-6c-1.3,1.1-2.5,2.2-3.8,3.3   c-0.2-0.7-0.2-1.1-0.3-1.5c1.9-1.9,2.5-4.3,2.7-7c-0.9-0.8-1.8-1.7-2.6-2.6c0.3-0.3,0.6-0.5,0.9-0.8c1.5,0.8,2.9,1.6,4.5,2.4   c1-0.5,2.1-1.1,3.2-1.7C454.4,95,454.4,95.9,454.4,96.8z M449.7,107c1.2,1.8,1.9,2.9,2.7,4.2c0.5-0.6,0.9-1.1,1.3-1.6   C452,107.8,452,107.8,449.7,107z" />
	<path display="inline" fill="#F3D7C5" d="M377.9,135.5c3.8-2.9,7.3-6.3,12-7.8c0.6,0.3,1.1,0.5,1.7,0.8c-3.9,1.1-4.3,6.3-2,9.1   c-5.8,4.3-11.5,8.5-17.2,12.7C370.4,143.9,375,140.3,377.9,135.5z" />
	<path display="inline" fill="#F4D7C5" d="M386.5,113.1c2.9-1.3,5.9-1.9,8.9-1.9c1.7,13.6-4.6,12.5-14.2,18.1   C378.6,124.9,385.3,117.5,386.5,113.1z M392.4,120.1c-0.1-0.2-0.2-0.5-0.3-0.7c-0.5,0.1-0.3,0.5-0.3,0.9   C392,120.3,392.2,120.2,392.4,120.1z" />
	<path display="inline" fill="#E5D9B5" d="M384.9,578c-1,4-4.5,7.8-3.1,12.1c1,0.1,2.1,0.2,3.2,0.3c-2.5,0.7-5.1,1.4-7.7,2.2   c-1.9-2.7-1-6.2-1.6-9.5c2.6-4.1,4.7-8.8,8.4-12.5c5.4,0,10.8,0,16.2,0c-1.2,2-3.9-0.4-5.1,1.6c-3.6,0.3-9.6-1.9-11.3,2.4   c3.3,2,7.5,0.7,11.2,1.1c-0.6,1.6-2.8,0.1-3.4,1.7c-2-1.3-4.1-0.9-6.2-0.6C385.2,577.2,385,577.6,384.9,578z" />
	<path display="inline" fill="#D9BFAF" d="M424.4,42.5c-0.6,0.9-1.3,1.8-2,2.6c4.7,11.4,5.6,23.9,10.5,35c2.6,1.9,5.7,2.5,6.8,5.5   c-11.7,0.9-24.3-39.6-15.4-44C424.3,41.9,424.4,42.2,424.4,42.5z" />
	<path display="inline" fill="#E5CABA" d="M454.4,94.1c-1.1,0.6-2.2,1.2-3.2,1.7c-3.4-1.6-6.1-3.6-8.8-6c5.8-1,10.8-3.6,16.1-6.8   c0.7,2.6,1.1,4.6,1.5,7.4C457.6,91.2,455.6,92.1,454.4,94.1z" />
	<path display="inline" fill="#49B878" d="M408.9,79.5c3.8,0.7,7.8,2.7,10.9,5.5c-1.3,1.9-2.7,3.8-4,5.7c-3.4,0.3-6.4-1.7-9.6-2.6   C406.9,85.2,408.5,82.5,408.9,79.5z" />
	<path display="inline" fill="#F7F8F8" d="M402.8,94.1c2.4,0.8,4.8,1.7,7,2.5c1.3,3.2-0.2,6.1,0.1,9.1c-2.4,0.7-4.7,1.3-7.1,1.2   C401.1,103.5,401.3,97.7,402.8,94.1z" />
	<path display="inline" fill="#3F424B" d="M402.8,94.1c-6.3,10.1-1.2,23.8-5.3,34.7c-0.3-16.1-0.4-34.5,7.7-49.5   c1.2-0.5,2.4-1.3,3.7,0.2c0,0.3,0,0.6,0,1c-4.5,1.2-5,8.3-6.7,12.2C402.3,93.1,402.6,93.6,402.8,94.1z" />
	<path display="inline" fill="#49B878" d="M489.7,82.1c0.9,2.2,1.8,4.5,2.7,6.7c-2.7,1.8-6.3,3.1-9.5,3.6c-1.2-1.7-2.4-3.5-3.7-5.4   C482.3,84.5,485.8,82,489.7,82.1z" />
	<path display="inline" fill="#FAFBFB" d="M497.3,107.2c-0.1,0.4-0.1,0.8-0.2,1.3c-2.7,1.3-5.2-0.2-8.1-0.4c-0.2-2.9-0.6-6-0.1-9.3   c2.6-0.7,4.9-2.4,7.6-1.9C496.7,100.4,496,103.8,497.3,107.2z" />
	<path display="inline" fill="#DDC5B4" d="M386.5,113.1c-1.2,4.4-7.8,11.7-5.3,16.2c-1.8,2-3.4,4.1-5.3,6c-1.2-1-0.2-2.4-0.7-3.5   C376.9,124.9,378,114.9,386.5,113.1z" />
	<path display="inline" fill="#E3D4B1" d="M392.5,592.9c3.3-0.4,6.6,0.2,9.8,1c-5.6,5-15.5,3-22.6,2.4c-0.4-0.4-0.8-0.8-1.2-1.2   c5.3-2.6,10.2-0.3,15.5,0.2C394.6,593.6,392.9,593.7,392.5,592.9z" />
	<path display="inline" fill="#484E58" d="M497.3,107.2c-1.3-3.3-0.6-6.8-0.8-10.3c-0.6-0.1-1.2-0.1-1.7-0.2   c0.7-0.5,1.3-0.9,2.1-1.5c-1.8-4.5-2.4-13.8-8.9-13.2c1.6-1.6,3.5-0.3,5.3-1c2.6,5.8,6.2,11,5.9,17.4   C495.7,98.1,498.2,104.6,497.3,107.2z" />
	<path display="inline" fill="#0F0E0D" d="M513,553.2c-2.5-2.5,0.2-6.6-1.8-9.2c0.5-0.6,1-1.2,1.5-1.7c-0.2-1.9-0.4-3.7-0.6-5.5   c0.4,0.8,0.8,1.7,1.2,2.5c0.3,0,0.6,0,1.1-0.1c1.1,1.9-2,11.2,1,9.2c0-1.2,0-2.4,0-3.7c0.2-0.4,0.5-0.7,0.7-1.1   c0.3,0.9-0.4,2.1,0.9,2.8C517.5,549,516.1,553.5,513,553.2z" />
	<path display="inline" fill="#359C5B" d="M482.9,92.4c3.2-0.4,6.8-1.8,9.5-3.6c1.3,1.4,1.6,3.2,2.1,5.2c-2.3,0.8-4.6,1.6-7,2.4   C486.2,94.9,483.5,94.9,482.9,92.4z" />
	<path display="inline" fill="#3E3028" d="M426.8,199.2c11.1-1.1,21.8,1.3,32.8,0.8c0,0.3,0,0.5,0,0.8c-6.3-1-12.9,2.4-18.7-0.5   c-5.1,1.1-10.5,0.5-15.7,0.4C425.7,200.2,426.3,199.7,426.8,199.2z" />
	<path display="inline" fill="#150F0D" d="M521.6,557.5c-1.8-5.2,6.1-6.1,9.7-5.9c0.8,0,1.8,0.4,2.1-0.8c1.1,0.2,1.7,0.8,1.8,1.9   c-0.5,0.6-1,1.1-1.5,1.7C529.4,554.3,525.5,556,521.6,557.5z" />
	<path display="inline" fill="#F3D6C4" d="M425.2,269.4c-2.4-2.7,0.9-5.7-0.7-8.4c-0.1-0.2,0.4-0.6,0.7-0.9c2,3,6.5,7.1,5.9,10.4   C429.1,270.2,427.1,269.8,425.2,269.4z" />
	<path display="inline" fill="#171210" d="M552.5,586.9c-4.7-3.3-9.9-0.1-14,2.7C534,583.3,557.8,580,552.5,586.9z" />
	<path display="inline" fill="#484B55" d="M498.3,98.4c0.3,0,0.6,0,0.9,0c2.3,10.8,1.9,21.6,2.3,32.8   C498.9,120.3,499.8,109.5,498.3,98.4z" />
	<path display="inline" fill="#35A15D" d="M406,88.1c3.2,1,6.2,2.9,9.6,2.6c-1,1.8-2.4,2.3-4.3,3.5c-2.1-0.7-4.5-1.4-6.8-2.1   C404.5,90.4,405.1,89.2,406,88.1z" />
	<path display="inline" fill="#E1C8B8" d="M401.2,116.7c0-2.6-0.3-4.8,0.5-7c1.9-0.3,3.7-0.5,5.5-0.8c0.4,0.3,0.8,0.7,1.3,1.1   C407.1,113.1,404.9,115.3,401.2,116.7z" />
	<path display="inline" fill="#393D45" d="M507.1,142.8c0.4-0.7,0.6-1.2,0.8-1.7c4.9,3.8,10.1,9.9,13.3,15.2   C516.3,153.2,512,147.1,507.1,142.8z" />
	<path display="inline" fill="#E2C9B9" d="M498,119.1c-3.7-1.7-6.1-3.7-7.5-6.9c2.1-1.9,4.2-0.1,6.3-0.8   C497.9,113.8,497.7,116.1,498,119.1z" />
	<path display="inline" fill="#C9CFB4" d="M546.4,569.7c-0.6,0.3-1.2,0.5-1.8,0.8c0.2-4.6-7.4-1.8-10.2-1.7c-1.9-1.3-4-0.5-6.3-0.7   c-0.3-0.7-0.6-1.4-1.1-2.4c-0.6-0.1-1.5-0.3-2.3-0.4c0.9-1.2,2.3-0.6,3.5-0.9c0.3,0.3,0.6,0.6,0.9,0.9c-0.3,0.5-0.6,1.1-1,1.7   c8.3,0.5,10.4,0.3,13.1-1.6c-0.1-0.9-0.2-1.8,0-2.7c1.4,1.8,2.8,3.6,4.2,5.4l0,0C545.9,568.5,546.6,569,546.4,569.7z" />
	<path display="inline" fill="#434853" d="M384.7,144.9c-1.7,4.4-6.2,8.6-10.6,10.5c-0.5-1.3-0.8-1.8-0.5-3.1   C377.9,150.7,380.8,146.3,384.7,144.9L384.7,144.9z" />
	<path display="inline" fill="#D5BCAC" d="M449.3,135.5c0-1-0.4-2.1,0.8-2.7c0.1,1.6,0.1,1.6,1.5,1.7c2.3,2.7,2,5.6,2,8.8   c-0.6,0.3-1.2,0.6-1.7,0.9c-0.5-0.1-1-0.3-1.3-0.4C450,140.8,451,137.8,449.3,135.5z" />
	<path display="inline" fill="#2A1D1B" d="M455.4,84.8c-4.1,2.8-8.4,4-13,5.1c-0.6-0.3-1.1-0.6-1.7-0.8c-0.3-0.5-0.7-1.1-1-1.6   c0.3-0.3,0.6-0.6,0.9-0.9C445.9,88.7,451.2,83.3,455.4,84.8z" />
	<path display="inline" fill="#CFD2B6" d="M541.3,562.7c0,0.4-0.1,0.8-0.1,1.1c-1.1,0-1.7-1.3-2.6-1.9c0.2-0.5,0.4-1,0.6-1.6   c-1.9-1.2-3.7-0.9-5.7-0.9c0-0.2,0-0.5,0-0.7c3.7-0.8,3.3-3,0.1-4.3c0.5-0.6,1-1.1,1.5-1.7C538.5,555.2,540.4,558.6,541.3,562.7z" />
	<path display="inline" fill="#DDBEAE" d="M460.3,114.8c-0.8-0.9-1.7-1.7-2.5-2.6c2.9-0.5,5.6-0.6,8.6,0.8c0,0.2,0,0.5,0,0.7   c-1,0.2-2.2-0.6-3,0.9c1.8,2,3.9,2.4,6.4,1.8c-0.6,0.6-1.1,1.2-1.7,1.8C465.2,117.9,463,115.9,460.3,114.8z" />
	<path display="inline" fill="#3F444D" d="M399.3,138c-1,1.4-2.8,0.6-4.4,0.8c-1.3-0.8-2.6-1.7-3.8-2.5c-0.6-4.2-0.6-4.2,2.7-6   c0,3.8-1.6,4.8,2,7.7C396.8,138,398.1,138,399.3,138L399.3,138z" />
	<path display="inline" fill="#41444E" d="M503,136.1c-1.2,1.6-2.8,0.9-4.4,0.7c-0.1,0.8-0.3,1.6-0.5,2.8c-0.5-0.7-0.8-1.2-1.1-1.6   c0.4-2.4,2-3.7,3.7-5C502.2,133.9,502.2,133.9,503,136.1z" />
	<path display="inline" fill="#20201C" d="M431.1,88.1c-1.5,2.8-1.4,8-5.2,8.6l0.1,0.1c0.3-4,2.4-7.1,4.2-10.6   C430.5,86.8,430.8,87.5,431.1,88.1z" />
	<path display="inline" fill="#444955" d="M503.4,140.7c2.1-2.7,2.7-4.7,1.3-7.7c3.9-1.1,3,3.7,3.1,6.2   C506.4,139.7,505.2,140.1,503.4,140.7z" />
	<path display="inline" fill="#21201D" d="M444.1,95.9c0,3.6-2.3,5.8-4.9,8.6c-0.4-4,2.6-6.9,4-10.5   C443.3,94.6,443.1,95.5,444.1,95.9z" />
	<path display="inline" fill="#2B2422" d="M449.3,135.5c1.7,2.3,0.7,5.3,1.2,8.3c0.3,0.1,0.8,0.2,1.3,0.4c-1.7,1.2-3.5,1.2-5.2,0   c0.5-0.1,1-0.2,1.7-0.3C448.2,140.9,448.5,138.3,449.3,135.5z" />
	<path display="inline" fill="#CAB8A9" d="M459.5,118.3c-2.3-1.7-6.9-3-4.7-6.8c2,2.1,4,3.7,5.6,6   C460.1,117.7,459.8,118,459.5,118.3z" />
	<path display="inline" fill="#3F444D" d="M401.1,134.6c-1.6,0-3.1,0-4.5,0c-1.2-1.9,0.3-2.9,0.6-4.4   C399.2,131.3,400.9,132.2,401.1,134.6L401.1,134.6z" />
	<path display="inline" fill="#302C22" d="M402.9,279.8c4.2,1.2,8.7,0.3,12.8,1.7c-4.3,0-8.6,0.1-12.8,0.1   C402.8,281,402.8,280.4,402.9,279.8z" />
	<path display="inline" fill="#1A2220" d="M447.6,201.5c4.9-1.5,10.5-0.4,15.6-0.6C458.1,202.3,452.8,201.3,447.6,201.5z" />
	<path display="inline" fill="#62362A" d="M506,280.7c-2.5,0.2-5.1,0-7.6,0c2-1.4,4.5-0.9,6.6-2c0.1-0.5,0.2-1,0.2-1.4   C506.6,278.2,505.7,279.6,506,280.7z" />
	<path display="inline" fill="#8F9981" d="M393.4,567c-2.7,0.5-5.5,0.9-8.3,1.4c-0.5-0.8,0.2-1.4,0.8-2.1c2.4,0,5,0,7.5,0   C393.4,566.5,393.4,566.8,393.4,567z" />
	<path display="inline" fill="#A39488" d="M459.5,118.3c0.3-0.3,0.6-0.6,0.9-0.9c2.1,1,4.5,1.6,6.3,4c-2.9,0.1-4.6-2-6.9-2.4   C459.8,118.7,459.7,118.5,459.5,118.3z" />
	<path display="inline" fill="#463D38" d="M474.3,268.8c0.6-2.3,2-3.9,4.1-5.6c-0.1,3-2.7,4.7-2.5,7.3   C475.4,269.9,474.8,269.4,474.3,268.8z" />
	<path display="inline" fill="#ABA496" d="M440.3,114.8c-2.3,2.1-4.1,3.9-7.3,4.5C434.6,116.4,437.4,115.1,440.3,114.8z" />
	<path display="inline" fill="#3C322E" d="M414.7,102.9c0.7,0.9,1.3,1.7,2.1,2.7c-1.6,1.1-2.3-0.3-3.3-0.9c-0.3,0.5-0.7,1.1-1.1,1.6   c0-1.3,0-2.5,0-3.8C413.1,102.7,413.9,102.8,414.7,102.9z" />
	<path display="inline" fill="#D5DEC1" d="M393.4,567c0-0.2,0-0.5,0-0.7c3.4-0.1,6.8-0.1,10.2-0.2c-0.7,0.8-1.6,1.4-2.6,1.9   C398.6,566.9,396,567.2,393.4,567z" />
	<path display="inline" fill="#3E3934" d="M437.3,380.5c-0.6-0.5-1.2-1.1-1.9-1.7c0.3-1.9,0.7-3.9,1.1-6c0.2,0,0.5,0,0.7,0   C436.5,375.3,439,378.6,437.3,380.5z" />
	<path display="inline" fill="#B19C8F" d="M375.2,131.9c0.4,1.1-0.5,2.5,0.7,3.5c-0.8,1.4-1.6,2.9-2.4,4.3   C371.9,137.7,374.9,134.3,375.2,131.9z" />
	<path display="inline" fill="#3C3632" d="M373.5,139.7c1.1-1.8,1.8-3.9,3.3-5.3c0.4,0.4,0.7,0.7,1.1,1.1c-1.2,1.7-2.3,3.4-3.5,5.1   C374.1,140.3,373.8,140,373.5,139.7z" />
	<path display="inline" fill="#B8B0A2" d="M391.6,128.4c-0.6-0.3-1.1-0.5-1.7-0.8c1.3-0.8,2.6-1.5,4.2-2.5c0,1.3,0,2.2,0,3.3   C393.2,128.4,392.4,128.4,391.6,128.4z" />
	<path display="inline" fill="#54473E" d="M407.1,582.5c0.1-3.5,0.1-3.5,2.6-6.2c-0.4,2-1.2,3,0,4.4   C409.2,581.9,408.1,582.2,407.1,582.5z" />
	<path display="inline" fill="#B6B597" d="M399.5,561c-3.5,0-7,0-10.4,0C392.6,559.9,395.9,559.9,399.5,561z" />
	<path display="inline" fill="#434853" d="M384.8,144.9c0.5-1.3,1.4-2,2.9-2.5c0.9,1.2,0.5,2-0.5,2.9   C386.4,145.2,385.5,145,384.8,144.9L384.8,144.9z" />
	<path display="inline" fill="#AA8C81" d="M405.3,546.5c1.6-0.9,0.4-3,2.5-4c0.1,0.8,0.1,1.5,0.2,2.3c-1.4,0.5-0.5,1.9-1,2.9   C405.8,548.1,405.5,547.4,405.3,546.5z" />
	<path display="inline" fill="#B6B597" d="M387.9,561.8c1.6,1.3,3.6,1,5.6,1.2c-2.3,0.4-4.5,0.9-6.8,1.3   C386.3,562.8,386.9,562.2,387.9,561.8z" />
	<path display="inline" fill="#F0D4C2" d="M523,137.3c0.4-0.1,0.8-0.1,1.2-0.2c0.7,1.3,1.8,2.5,1.6,4.6   C524.1,140.4,523.4,139,523,137.3z" />
	<path display="inline" fill="#646760" d="M440.3,114.8c-0.5,0-0.9,0-1.4,0c0-0.2,0.1-0.5,0.1-0.7c1-0.8,1.9-1.6,3.3-2.7   C442.1,113.1,441.3,114,440.3,114.8z" />
	<path display="inline" fill="#3F444D" d="M401.1,134.5c1.4,2,0.9,2.8-1.8,3.4l0,0C400,136.9,400.5,135.6,401.1,134.5z" />
	<path display="inline" fill="#352E2A" d="M432.9,101.9c-0.2,1.2-1,1.8-2.3,2.2c-0.3-1.5,0.3-2.4,1.2-3.3   C432.3,101.2,432.6,101.5,432.9,101.9z" />
	<path display="inline" fill="#3F424B" d="M401.8,102.7c0.2,1.5-0.2,3.2,1.1,4.2C400.7,107.6,400.4,103.8,401.8,102.7z" />
	<path display="inline" fill="#84796F" d="M511.2,544c1.2,1.2,0.7,2.7,0.6,4.2c-0.2,0-0.5,0-0.7-0.1   C511.2,546.8,511.2,545.4,511.2,544z" />
	<path display="inline" fill="#BDAE9C" d="M511.2,548.2c0.2,0,0.5,0.1,0.7,0.1c0,1.1,0.1,2.3,0.1,3.4c-0.3,0-0.6,0-0.9,0   C511.1,550.4,511.2,549.3,511.2,548.2z" />
	<path display="inline" fill="#838775" d="M411.4,550.7c0.3,0.9-0.1,2.3-1.1,1.6C410.5,551.6,410.5,550.7,411.4,550.7L411.4,550.7z" />
	<path display="inline" fill="#6B7070" d="M439.7,87.4c0.3,0.5,0.7,1.1,1,1.6C439.5,89.2,438.4,88.4,439.7,87.4z" />
	<path display="inline" fill="#A8B3B3" d="M433.1,84c-0.3,0.1-0.5,0.3-0.8,0.4c-0.5-0.6-0.1-0.8,0.4-1.1   C432.9,83.4,433,83.6,433.1,84z" />
	<path display="inline" fill="#F0D4C2" d="M521.1,134.7c1.2-0.1,1.2,0.7,1.3,1.6C521.9,135.7,521.5,135.2,521.1,134.7z" />
	<path display="inline" fill="#837E6E" d="M411.4,550.8c0-0.5,0-1,0-1.7C412.7,549.9,412.3,550.4,411.4,550.8L411.4,550.8z" />
	<path display="inline" fill="#564640" d="M432.9,115.6c0.1-0.3,0.1-0.6,0-0.8c0.6,0,1.2,0.1,1.8,0.1   C434.3,115.7,433.6,115.8,432.9,115.6z" />
	<path display="inline" fill="#2A1D1B" d="M438.1,85.6c0.5,0,1.1,0.1,1.6,0.1c0.1,0.2,0.2,0.4,0.2,0.6   C439.1,86.5,438.4,86.5,438.1,85.6z" />
	<path display="inline" fill="#564640" d="M435.4,114.7c0.3-0.3,0.6-0.5,1-0.8C436,114.1,435.7,114.4,435.4,114.7z" />
	<path display="inline" fill="#B6B597" d="M389,561c-0.3,0.2-0.7,0.5-1,0.7C388.3,561.5,388.7,561.2,389,561z" />
	<path display="inline" fill="#292621" d="M545.5,568c-0.2-0.3-0.5-0.6-0.7-1C545,567.4,545.2,567.7,545.5,568z" />
	<path display="inline" fill="#292621" d="M546.3,569c-0.3-0.3-0.6-0.6-0.9-1C545.8,568.3,546,568.7,546.3,569z" />
	<path display="inline" fill="#564640" d="M436.3,113.9c0.3-0.2,0.6-0.4,0.9-0.7C437,113.4,436.6,113.7,436.3,113.9z" />
	<path display="inline" fill="#F0D4C2" d="M522.4,136.3c0.2,0.3,0.5,0.7,0.7,1C522.8,137,522.6,136.6,522.4,136.3z" />
	<path display="inline" fill="#1F1C1A" d="M465.6,60.6c1.1-4.3,2.4-8.3,1.8-12.9c1.7,1.6,0.4,4.4,0.8,6.6c1,0.1,1.7,0.2,2.4,0.2   c-0.5,2.4-2.9,3.5-3.3,6.1C466.7,60.6,466.1,60.6,465.6,60.6z" />
	<path display="inline" fill="#5C4A3F" d="M462.3,24.5c-0.1-0.5-0.2-1-0.3-1.7c-0.7,0.5-1.2,0.8-1.9,1.3c-0.5-0.7-1.1-1.4-1.6-2.1   c1.3-0.6,2.6-1.5,3.6-2.5c1.7,1.4,4.9,1.5,4.3,4.2c-0.5,0.3-1,0.6-1.5,0.9c-0.1-0.6-0.6-1.1-0.9-1.7   C463.4,23.5,462.9,24,462.3,24.5z" />
	<path display="inline" fill="#322C26" d="M462.3,24.5c0.6-0.5,1.1-1,1.7-1.5c1.4,1.7,0.8,3.4,0.9,5.7c0.6-1,1.1-1.7,1.6-2.5   c1.2,1.7,1,3.5,0.8,5.3c-0.3,0.2-0.5,0.5-0.8,0.7c0,0,0.1-0.1,0.1-0.1c-0.3,0-0.5,0.1-0.8,0.1l-0.2-0.3c0.2-0.8-0.1-1.3-0.9-1.5   c-0.1-0.8-1.7-1.1-0.8-2.4C464,27,462.8,25.5,462.3,24.5z" />
	<path display="inline" d="M469.1,89.8c1.8,2.3,3.1,4.8,3.4,7.7c-0.2,0.3-0.2,0.5-0.1,0.8c-3-0.2-2.9-5.3-4.3-7.5   C468.5,90.5,468.8,90.1,469.1,89.8z" />
	<path display="inline" fill="#524B40" d="M460.4,21.1c-0.6,0.3-1.3,0.7-1.9,1c-0.7-0.1-1.4-0.1-1.5-1l-0.1,0.1   c1-0.2,0.8-1.1,0.9-1.8l0,0c1.4-0.6,0.7-1.2-0.1-1.9c0-0.2,0-0.5,0-0.7c0.5-0.7,1.2-1.4,0.8-2.4c0,0,0.3-0.2,0.3-0.2   c0.8,0.6,1.6,1.2,2.4,1.8c-0.5,0-1,0.1-1.4,0.1C460.1,17.9,460.3,19.5,460.4,21.1z" />
	<path display="inline" fill="#DFD1B2" d="M460.4,21.1c-0.2-1.6-0.3-3.2-0.5-5.1c0.3,0,0.8-0.1,1.4-0.1c1.5,1.5,3.1,2.8,3.3,5.1   c-0.8-0.4-1.5-0.9-2.5-1.4C461.6,20,461,20.6,460.4,21.1z" />
	<path display="inline" fill="#5B574B" d="M457.1,13.2c0.6,0.3,1.2,0.6,1.8,0.9l-0.3,0.2c-2.1-0.3-1.6,2.9-2.4,4.2l0,0   c-0.3,0-0.6,0-0.9,0c-0.1-0.5-0.1-1-0.2-1.5c-0.6,0.3-1.1,0.5-1.5,0.7c0.4-1.5,0.9-3,1.6-4.3l0.3-0.1c0.1,0.2,0.1,0.4,0.2,0.7   c0.1-0.2,0.3-0.4,0.4-0.6C456.4,13.2,456.7,13.2,457.1,13.2z" />
	<path display="inline" fill="#AB9D86" d="M457.8,10.7c-0.1,0.2-0.2,0.4-0.2,0.7l-0.4,0c-1.4-2.5-5-0.9-7.1-2.4c0,0,0.3-0.2,0.3-0.2   c1.2,0.5,2.2-0.2,3.2-0.5c0.1,0.6,0.5,0.8,1.1,0.5c-0.1-0.3-0.3-0.5-0.4-0.8c0.3-0.5,0.6-1.1,0.9-1.6C456.5,7.7,457.7,9,457.8,10.7   z" />
	<path display="inline" fill="#4D3E35" d="M465.5,34.4c-0.4-0.3-0.9-0.6-1.6-1.1c0.2-0.9,0.4-1.9,0.6-2.9l0.3,0.2   c0,0.6-0.4,1.3,0.6,1.4c0.3,0.8,0.8,1.3,1,0.2l-0.1,0.1c0.2-0.1,0.5-0.2,0.8-0.2c0.5,0.9,1.1,1.7-0.5,2.3c0.2,0.1,0.4,0.3,0.6,0.4   c0,0.3,0,0.7,0,1c-0.2,0.3-0.5,0.5-0.7,0.8C465.5,36.2,465.6,35.3,465.5,34.4z" />
	<path display="inline" fill="#CDB7A8" d="M471.7,53.7c-0.5-0.8-1.1-1.6-1.7-2.6c0.6-0.8,1.3-1.6,2.3-2.8c0.8,2.1,0.7,3.7,0.2,5.4   C472.1,53.7,471.9,53.7,471.7,53.7z" />
	<path display="inline" fill="#3B352F" d="M465.5,34.4c0.1,0.9,0,1.8,1.1,2.2c-0.1,0.7-0.3,1.4,0.7,1.7c-0.3,1.2,0.7,2.6-0.8,3.5   c0.2-2.1-1.2-3.3-2.5-4.8C464.5,36,465,35.2,465.5,34.4z" />
	<path display="inline" fill="#82756C" d="M471.7,53.7c0.2-0.1,0.5-0.1,0.7-0.1c-0.8,1.8-1.5,3.6-2.3,5.4c-0.2-1.1-1-1.1-1.9-1   c0.9-1.1,2.2-1.9,2.3-3.5C470.9,54.3,471.3,54,471.7,53.7z" />
	<path display="inline" fill="#F6D9C7" d="M466.4,26.2c-0.5,0.8-0.9,1.5-1.6,2.5c0-1.6,0-2.8,0-4c0.5-0.3,1-0.6,1.5-0.9   C466.4,24.6,466.4,25.4,466.4,26.2z" />
	<path display="inline" fill="#C3AA9C" d="M468.2,58.1c0.9-0.1,1.6-0.1,1.9,1c-0.4,0.7-0.9,1.5-1.4,2.3c-0.6-0.3-1-0.5-1.5-0.8   C467.6,59.8,467.9,58.9,468.2,58.1z" />
	<path display="inline" fill="#706E65" d="M472.3,46.6c-0.8,0.7-1.5,1.4-2.3,2.1C469.2,47.9,469.4,47.5,472.3,46.6z" />
	<path display="inline" fill="#D6C7AA" d="M455.2,13.3c-0.3,0.6-0.6,1.1-0.8,1.7c-0.3,0-0.7,0-1,0c0.1-0.9,0.1-1.8,0.2-2.6   c0.6,0.1,1.1,0.1,1.7,0.2C455.2,12.8,455.2,13.1,455.2,13.3z" />
	<path display="inline" fill="#89826F" d="M467.3,38.2c-1-0.2-0.8-1-0.7-1.7c0.2-0.3,0.5-0.5,0.7-0.8   C468.3,36.6,468,37.3,467.3,38.2z" />
	<path display="inline" fill="#362D27" d="M455.2,10.1c1,0,1.6,0.6,2,1.4c-0.7,0.1-1.3,0.1-2,0.2C455.2,11.1,455.2,10.6,455.2,10.1z   " />
	<path display="inline" fill="#E5CABA" d="M457,81.9c0-0.7,0.2-1.3,1-1.4C457.6,80.9,457.3,81.4,457,81.9z" />
	<path display="inline" fill="#362D27" d="M455.2,12.6c-0.6-0.1-1.1-0.1-1.7-0.2c0.2-1,1-0.8,1.7-0.8   C455.3,11.9,455.2,12.2,455.2,12.6z" />
	<path display="inline" d="M467.2,89.1c0.1-0.5,0.2-1,0.4-1.6C468.4,88.5,467.8,88.8,467.2,89.1L467.2,89.1z" />
	<path display="inline" fill="#E5CABA" d="M454.4,83.7c0.3-0.2,0.6-0.4,0.9-0.7C455,83.2,454.7,83.5,454.4,83.7z" />
	<path display="inline" fill="#E5CABA" d="M455.3,83c0.4-0.3,0.8-0.5,1.1-0.8C456.1,82.5,455.7,82.8,455.3,83z" />
	<path display="inline" fill="#362D27" d="M456.1,13.3c-0.1,0.2-0.3,0.4-0.4,0.6c-0.1-0.2-0.1-0.4-0.2-0.7   C455.7,13.3,455.9,13.3,456.1,13.3z" />
	<path display="inline" fill="#362D27" d="M457.1,13.2c-0.3,0-0.6,0.1-1,0.1C456.4,12.5,456.7,12.5,457.1,13.2z" />
	<path display="inline" fill="#9F9580" d="M467.3,34.7c-0.2-0.1-0.4-0.3-0.6-0.4c0.2-0.1,0.4-0.2,0.7-0.4   C467.4,34.2,467.4,34.5,467.3,34.7z" />
	<path display="inline" fill="#F6D9C7" d="M467.2,32.1c-0.3,0-0.5,0.1-0.8,0.2c0.3-0.2,0.5-0.5,0.8-0.7   C467.2,31.7,467.1,31.9,467.2,32.1z" />
	<path display="inline" fill="#988D76" d="M430.4,19.2c2.2,1.8-0.2,4.1-1.3,5.7c-1,0.1-2,0.3-3.1,0.5c-0.1-0.4-0.2-0.9-0.4-1.7   c-0.5,1.1-0.2,1.5,0.4,1.7c-1.6,2.7-2.1,5.7-2,9c-0.7,0.2-1.5,0.5-2.3,0.3c0-0.3,0-0.6,0-0.9c1-0.2,0.7-1.8-0.2-0.7   c-2-1.6,0.6-4,0.2-6.1c0.3,0,0.5,0,0.8-0.1c0.1,0.3,0,1,0.6,0.4c-0.2-0.1-0.5-0.2-0.7-0.3c-0.3-0.8-0.6-1.5-0.9-2.5   c2.1-1,1-3.5,2.7-4.4c0.7,1.4,1.8,2.4,3.4,3c-0.4-0.7-0.7-1.4-1.1-2.1c0.4,0,0.7,0,1.1,0c0.4,0.5,0.9,1,1.3,1.4   C430.8,21.8,430.2,20.4,430.4,19.2z" />
	<path display="inline" fill="#CDBA9D" d="M440.4,16.9c0,1.8,0,3.6,0,5.5c-3.7-3.7-4.1-5.5-3-11C440.4,10.3,438.2,15.7,440.4,16.9z" />
	<path display="inline" fill="#B3AA91" d="M449.1,12.1c0.8-1.7,3-1.2,3.7,0.3c-0.3,1.4-0.6,2.9-1,4.3c0,0,0-0.1,0-0.1   c-0.3,0.3-0.6,0.6-0.9,0.8c-1.5-0.6-0.6-2.2-0.8-3.4c0.5-0.3,1.2-0.6,0.2-1.3c-0.4,2.1-1.7,3.8-2.2,6c-0.3-0.2-0.5-0.3-0.7-0.5   c0-1.4,0-2.7,0-4.1C448.2,13.7,448.8,13,449.1,12.1z" />
	<path display="inline" fill="#443C32" d="M435.3,21.1c0.4,0.7,0.8,1.4,1.3,2.1c-3.5,0.1-7.7-6.9-4.4-10   C433.4,15.8,433.8,18.6,435.3,21.1z" />
	<path display="inline" fill="#AB9A83" d="M445.1,23.5c-0.3,0-0.6,0.1-0.9,0.1c-2.1-3.4,0.8-7.4,0.1-11.2c1.1,0.3,2.2,0.6,3.4,0.9   l0.1-0.1c0,0.3,0,0.6-0.1,1c-0.6,0.7-0.9,1.5-1.3,2.2c-0.3-0.3-0.7-0.5-1.2-1C445.1,18.4,445.1,21,445.1,23.5z" />
	<path display="inline" fill="#8D816B" d="M435.3,21.1c-1.5-2.5-1.9-5.3-3.2-7.9c0-0.4,0.1-0.8,0.1-1.5c0.6-0.1,1.2-0.2,2.1-0.4   c0.6,3.1,0.8,6.1,1.9,8.9C436,20.6,435.6,20.8,435.3,21.1z" />
	<path display="inline" fill="#BDB497" d="M446.7,8.2c-1.4,1-2.6,0.2-4.3-0.3c2.3-2.2,4.5-3.9,7.7-3.2c0,0.3,0,0.5,0,0.8   C448.5,5.8,447.3,6.6,446.7,8.2z" />
	<path display="inline" fill="#463D33" d="M430.4,19.2c-0.3,1.1,0.4,2.6-1.4,3.2c-0.9-1-2-2.1-3.1-3.1l0,0c0-0.6,0-1.1,0-1.7   c0.3,0,0.5-0.1,0.8-0.1c0.4,0.5,0.8,1,1.7,2c0.3-1.9-0.3-2.8,1.1-3.8C429.8,17,430.1,18.1,430.4,19.2z" />
	<path display="inline" fill="#353029" d="M444.2,12.4c-0.2,2.4,0.2,4.8-0.8,7.1c-1-1-2.4-1.8-1.8-3.6c0.2,0,0.5,0,0.7,0.1   c0.2,0.2,0.4,0.3,0.5,0.5c0.8-1.9-0.7-3.7-0.5-5.6c0.6,0,1.3,0,1.9,0C444.2,11.4,444.2,11.9,444.2,12.4z" />
	<path display="inline" fill="#6A6153" d="M442.3,11.5c0.3,1.2,0.6,2.4,0.9,3.6c-0.3,0.3-0.6,0.6-0.9,0.8c-1.1-0.2-1.8-0.4-1.9,0.9   c-1.2-1.3-1.5-2.9-1.3-4.6c0.5-0.5,1.1-1,1.6-1.5c0,0.7,0,1.4,0,2.4C441.4,12.4,441.8,12,442.3,11.5z" />
	<path display="inline" fill="#9C927D" d="M450.1,5.6c0-0.3,0-0.5,0-0.8c1.2-0.1,2.5-0.2,3.5,0.7c-1.4,0.8-2.5,1.9-3.2,3.3L450.1,9   c-0.8-0.4-2,0.6-2.5-0.9C448.5,7.3,449.3,6.4,450.1,5.6z" />
	<path display="inline" fill="#E4D7B7" d="M450.4,8.8c0.7-1.4,1.8-2.6,3.2-3.3c0.5,0.3,1.1,0.7,1.6,1C455,7,454.7,7.5,454.3,8   C453,8.4,451.9,9.3,450.4,8.8z" />
	<path display="inline" fill="#9B8D76" d="M429.5,15.8c-1.4,0.9-0.8,1.8-1.1,3.8c-0.8-1-1.3-1.5-1.7-2c-0.3-2.1,1.1-2.8,2.7-3.4   C429.5,14.7,429.5,15.3,429.5,15.8z" />
	<path display="inline" fill="#ECD4B5" d="M444.2,12.4c0-0.5,0-1.1,0-1.6c0.8,0,1.5,0,2.3,0c0.4,0.2,0.7,0.4,1.1,0.6   c0,0.6,0,1.2,0,1.8C446.4,13,445.3,12.7,444.2,12.4z" />
	<path display="inline" fill="#2B221C" d="M426.7,21.1c0.4,0.7,0.7,1.4,1.1,2.1c-1.6-0.6-2.8-1.5-3.4-3c0.3-0.3,0.6-0.7,0.9-1   c0.2,0.1,0.5,0.1,0.8,0.2l0,0C426.2,19.9,426.5,20.5,426.7,21.1z" />
	<path display="inline" fill="#362C26" d="M451.8,16.8c0.3-1.4,0.6-2.9,1-4.3c0.3,0,0.5,0,0.8,0c-0.1,0.9-0.1,1.7-0.2,2.6   C452.8,15.6,452.3,16.2,451.8,16.8z" />
	<path display="inline" fill="#4C352D" d="M450.1,5.6c-0.8,0.9-1.7,1.7-2.5,2.6c-0.3,0-0.6,0-0.9,0C447.3,6.6,448.5,5.8,450.1,5.6z" />
	<path display="inline" fill="#C0B99E" d="M442.3,11.5c-0.4,0.5-0.9,0.9-1.6,1.7c0-1,0-1.7,0-2.4c0.5,0,1.1,0,1.6,0   C442.3,11,442.3,11.3,442.3,11.5z" />
	<path display="inline" fill="#76715E" d="M426,19.4c-0.3,0-0.5-0.1-0.8-0.2c0-0.6-0.3-1.4,0.7-1.5C426,18.2,426,18.8,426,19.4z" />
	<path display="inline" fill="#362D27" d="M457.8,10c-0.3-0.6-0.6-1.2-0.9-1.8C457.9,8.5,457.9,9.2,457.8,10z" />
	<path display="inline" fill="#A59781" d="M447.6,14.2c0-0.3,0-0.6,0.1-1c0.3,0.1,0.5,0.2,0.8,0.2C448.1,13.7,447.9,13.9,447.6,14.2   z" />
	<path display="inline" fill="#A59781" d="M449.1,12.1c-0.2,0.4-0.4,0.8-0.6,1.2C448.7,12.9,448.9,12.5,449.1,12.1z" />
	<path display="inline" fill="#353029" d="M447.6,11.5c-0.4-0.2-0.7-0.4-1.1-0.6C446.9,11.1,447.2,11.3,447.6,11.5z" />
	<path display="inline" fill="#AF9B8D" d="M419.9,57.7c-1.8-1.6-2-3.3-1.4-5.3C421.1,52.6,419.7,55.8,419.9,57.7z" />
	<path display="inline" fill="#776252" d="M421.8,34.8c0.3,0,0.5,0.1,0.8,0.1c0.9,1,2.4,1.7,1.7,3.5   C421.8,37.6,421.8,37.6,421.8,34.8z" />
	<path display="inline" fill="#D9BFAF" d="M422.7,66.5c-0.3-1.2-0.6-2.4-1-4.1C423.1,64.8,423.1,64.8,422.7,66.5   C422.7,66.5,422.7,66.5,422.7,66.5z" />
	<path display="inline" fill="#9E967D" d="M421.1,37.9c0.7,1,1.1,1.6,1.6,2.4C419.7,39.8,420,39.6,421.1,37.9z" />
	<path display="inline" fill="#F6D9C7" d="M421.6,33.2c0.9-1.1,1.3,0.4,0.2,0.7C421.7,33.7,421.6,33.4,421.6,33.2z" />
	<path display="inline" d="M422.7,66.5c-0.3,0.3-0.7,0.7-1,1l0,0C422.1,67.1,422.4,66.8,422.7,66.5L422.7,66.5z" />
	<path display="inline" fill="#E3D4B1" d="M389,592.1c1.2,0.1,2.6-0.7,3.5,0.9C391.3,592.6,390.1,592.3,389,592.1z" />
	<path display="inline" fill="#E5D9B5" d="M386.3,590.4c0.4,0.3,0.7,0.5,1.1,0.8C387,590.9,386.6,590.7,386.3,590.4z" />
	<path display="inline" fill="#EF8A6A" d="M460.5,320.4c0.2-0.6,0.4-1.3,0.6-1.9c0.3,0.2,0.5,0.5,0.9,0.8c0.5-5.3,15-4.1,13.9-7.7   c0.5-0.7,0.9-1.5,1.5-2.4c-2,0.5-6.4,1.6-5.7,3.3c-1,2-3.1-0.3-4.2-0.9c-1.5,0.5-1.9,1.4-1.8,2.6c-0.6,1.1-1.7,0.6-2.6,0.7   c6.5-9.7,20.2-11.6,30.4-16c-3.2,3.7-8.1,5-12.1,7.9c4.1,5,10.4-1.2,16.5-1.5c-5.4,4.1-9.7,6.5-16.1,6.2c-0.7,1-1.5,2-2.2,3   c0.3,0.3,0.5,0.4,0.7,0.6C474.1,318.2,467.2,319.1,460.5,320.4z" />
	<path display="inline" fill="#F08B6B" d="M430,309.2c4.2-0.4,19.2,6.8,22.8,8.5c-7.3,2.2-15.5-5.9-22.9-7.7   C429.9,309.7,429.9,309.5,430,309.2z" />
	<path display="inline" fill="#F28C6C" d="M443.7,307.5c-7.1-2.8-14-5.3-20.6-8.6C425.8,299,445.6,304.2,443.7,307.5z" />
	<path display="inline" fill="#5E4636" d="M415.6,281.5c-3.1-1.7-7.1,0.3-10.2-1.5c6.1-1,12.2,1.7,18.1-0.1c0.2,0.1,0.5,0.1,0.7,0.1   c0.3,0.3,0.6,0.6,1,0.9c-0.6,0.3-1.1,0.6-1.7,1C420.9,281.7,418.3,281.6,415.6,281.5z" />
	<path display="inline" fill="#44231B" d="M460.5,320.4c3.6-0.7,7.3-1.5,10.9-2.1c0.3,0.3,0.6,0.6,0.9,0.9   c-3.8,0.2-10.1,4.7-12.9,1.8C459.8,320.9,460.1,320.7,460.5,320.4z" />
	<path display="inline" fill="#704233" d="M472.4,319.3c-0.3-0.3-0.6-0.6-0.9-0.9c4.9-1.3,8.3-3.4,13.6-3.6   C480.7,317.6,477,318,472.4,319.3z" />
	<path display="inline" fill="#7F4A39" d="M468.1,315.1c-1.4,0.4-2.8,0.9-4.2,1.3c-0.6,1-1.2,1.9-1.9,2.9c-0.4-0.3-0.6-0.5-0.9-0.8   c0.2-0.4,0.5-0.9,0.8-1.4c-0.7-0.2-1.2-0.3-1.7-0.5c1-2.1,4.1-0.8,5.5-2.3c0.9-0.1,1.7-0.1,2.6-0.2   C468.2,314.5,468.2,314.8,468.1,315.1z" />
	<path display="inline" fill="#C07158" d="M433,316.8c-2.2-0.3-4.4-0.7-7.1-1.1c1.3-2.4,6.8-0.7,8.8,0.2   C434.1,316.2,433.6,316.5,433,316.8z" />
	<path display="inline" fill="#CB7E61" d="M490.6,286.1c-2.6,1.6-6,0.5-9.1,1.1c-0.4-2.1,4.3-1.3,5.8-2   C488.1,286.5,489.5,285.6,490.6,286.1z" />
	<path display="inline" fill="#553025" d="M438.2,316.7c2.3,0.1,4.6,0.3,6.8,2.4c-3.1,0.3-5.3-1.4-7.7-1.5   C437.6,317.3,437.9,317,438.2,316.7z" />
	<path display="inline" fill="#734233" d="M490.6,286.1c-1.1-0.4-2.5,0.5-3.3-0.9c2-0.3,4-0.7,6.3-1   C493.1,286.2,491.7,285.8,490.6,286.1z" />
	<path display="inline" fill="#894B3A" d="M438.2,316.7c-0.3,0.3-0.6,0.6-0.9,0.9c-1.4-0.3-2.8-0.6-4.3-0.9c0.6-0.3,1.2-0.6,1.7-0.9   C435.9,316.1,437.2,315.6,438.2,316.7z" />
	<path display="inline" fill="#EC8869" d="M425.1,280.8c-0.3-0.3-0.6-0.6-1-0.9C424.5,280.2,424.8,280.5,425.1,280.8z" />
	<path display="inline" fill="#E2C8B7" d="M510.8,413.8c-4.7,1.5-14.2-10.3-5.5-10.1C508.7,406.6,510.9,410.4,510.8,413.8z" />
	<path display="inline" fill="#26201D" d="M500.8,427.8c-0.5,5.1,1.5,6.7,4.4,10.6c-5.7-1.5-7.3-4.2-5.2-9c-2-2.8-5.5-5.4-5-9.3   C498.4,420.3,498.9,425.5,500.8,427.8z" />
	<path display="inline" fill="#4D3F3A" d="M506.1,445.8c-0.5-1.3-1-2.5-1.7-4.4c1.9,0.1,5.6,6.3,3.4,7   C507.2,447.5,506.6,446.7,506.1,445.8z" />
	<path display="inline" fill="#3B322E" d="M515.8,439.4c-0.6-2.6-0.7-5,1.1-7.5C517.8,434.9,516.5,437.2,515.8,439.4z" />
	<path display="inline" fill="#524842" d="M514.5,532.5c-0.4,0.2-0.7,0.4-1.4,0.7c-0.3-1.7-0.4-3.1,0.1-4.7c0.5,0,0.9,0,1.3,0   C514.5,529.8,514.5,531.2,514.5,532.5z" />
	<path display="inline" fill="#292320" d="M515.6,426.9c-0.4-1.6-0.8-3.2-1.2-4.9C517.5,421,516.7,425.6,515.6,426.9z" />
	<path display="inline" fill="#524842" d="M515.6,426.9c1-1,0.9-2.3,0.9-3.6c1.4,2.2,0.4,4.5,0.5,6.8   C516,429.2,515.5,428.1,515.6,426.9z" />
	<path display="inline" fill="#695E56" d="M513.8,526.7c-1.2-1-1-2.2-0.4-3.5c0.4,0,0.8,0,1.3,0   C514.6,524.5,515.3,525.9,513.8,526.7z" />
	<path display="inline" fill="#191A17" d="M514.5,413.2c0.2,2.2,0.9,4.4-0.4,6.7c-1.3-2.4-0.4-4.6-0.4-6.7   C514,413.2,514.4,413.2,514.5,413.2z" />
	<path display="inline" fill="#3E3732" d="M512.6,461.1c-0.8-1-1.7-2-1.2-3.4C513.1,458.5,513.1,458.5,512.6,461.1z" />
	<path display="inline" fill="#7D6C63" d="M514.1,471.4c-1.6-0.8-1.6-0.9,0.1-3C514.9,469.5,514.8,470.5,514.1,471.4z" />
	<path display="inline" fill="#AF9A8D" d="M513.2,466c-0.9-0.9,0-2.5,1.1-1.6C514.7,465.4,514.2,465.9,513.2,466z" />
	<path display="inline" fill="#6D5650" d="M514.5,413.2c-0.2,0-0.5,0-0.7,0c0-1,0-2,0-3.5C515,411.1,514.7,412.2,514.5,413.2z" />
	<path display="inline" fill="#604943" d="M514,402.5c0.3-0.5,0.6-0.8,0.8-1.1C516.2,401.9,515.2,403,514,402.5z" />
	<path display="inline" fill="#9B8D81" d="M512.8,518.8c-1-0.8-1-0.8,0.1-1.6C512.9,517.7,512.9,518.3,512.8,518.8z" />
	<path display="inline" fill="#553B36" d="M514.5,404.9c-0.1,1.6-0.6,1.6-0.6,0C514.1,404.8,514.3,404.9,514.5,404.9z" />
	<path display="inline" fill="#DBC2B1" d="M402.9,416.8c0.1-1.1,1-1,1.7-1.1c2.7,10.3,2.3,22.2,4.1,32.9c-4.3,5.3-6.7-5.4-5.9-8.7   c0.5,0.2,1,0.4,1.6,0.7c-2.2-5.4,2.1-10.7,0.3-15.8c0-2.7,0-5.4,0-8.3C403.9,416.7,403.4,416.7,402.9,416.8z" />
	<path display="inline" fill="#E2C8B7" d="M411.1,416.7c1-1.1,1.8-1.9,2.4-2.6c3.9,1.5,6.5,8.7,6.1,12.7   C414.3,425.5,413.3,420.9,411.1,416.7z" />
	<path display="inline" fill="#181412" d="M404.7,424.9c1.9,5-2.4,10.4-0.3,15.8c-5.2-1.9-2.9-8.2-1.6-12.1c1-0.6,1.4-1.4,1.1-2.6   C404.2,425.7,404.4,425.3,404.7,424.9z" />
	<path display="inline" fill="#3E3631" d="M415.7,438.1c-0.2,5.4-2.1,10.1-5.3,14.6c-0.3,0-0.6,0-0.9,0.1c0.9-3.9,3.7-6.9,3.7-11   C413.2,440.2,414.3,438.9,415.7,438.1L415.7,438.1z" />
	<path display="inline" fill="#27221F" d="M415.7,438.1c-0.2-3.1,0.6-6.1,1.1-9.2C421,427.3,418.4,437.7,415.7,438.1L415.7,438.1z" />
	<path display="inline" fill="#383530" d="M406.8,536.4c1.2,1.6,1.2,1.6,0.8,3.9C405.9,539.2,406.5,537.7,406.8,536.4z" />
	<path display="inline" fill="#4C3F3A" d="M409,459.5c-0.5,1.7-0.7,2.9-1.9,3.9C406.9,460.6,406.9,460.6,409,459.5z" />
	<path display="inline" fill="#6C5E56" d="M437,361.6c0.1,0.7,0.1,1.5,0.2,3.2C435.7,363.3,434.5,361.8,437,361.6z" />
	<path display="inline" fill="#7C6C64" d="M409.6,452.7c0.3,0,0.6,0,0.9-0.1c-0.6,1.2-0.5,2.7-2.3,3.5   C408,454.6,408.9,453.9,409.6,452.7z" />
	<path display="inline" fill="#7D7168" d="M406.5,531.8c1.8,1.2,1.8,1.5,0,2.5C406.5,533.4,406.5,532.7,406.5,531.8z" />
	<path display="inline" fill="#7D6B62" d="M407.1,469.6c-0.5,0.7-0.9,1.3-1.4,2.1C405.3,469.4,405.3,469.3,407.1,469.6z" />
	<path display="inline" fill="#90796F" d="M437.3,369.6c-0.8-1-1-1.3,0.2-1.8C438.3,368.2,437.8,368.8,437.3,369.6z" />
	<path display="inline" fill="#76615A" d="M437.2,372.8c-0.2,0-0.5,0-0.7,0c0-0.5,0.1-1,0.1-1.4c0.1,0,0.3,0,0.4,0   C437.1,371.8,437.1,372.3,437.2,372.8z" />
	<path display="inline" fill="#7C675F" d="M406.7,525.9c0.1,0.1,0.2,0.2,0.3,0.3c-0.2,0-0.4,0-0.6,0   C406.5,526.1,406.6,526,406.7,525.9z" />
	<path display="inline" fill="#E0C5B4" d="M452.7,245.5c0.3-3.4-0.6-7,0.5-10.2c1.1,0.3,2.3,0.7,3.5,1c0.7,2.2-0.4,4.6,1.2,6.5   C455.2,242,455.2,245.7,452.7,245.5z" />
	<path display="inline" fill="#D5C2B1" d="M457.1,242.9c0.3,0,0.5,0,0.8,0c0.2,3.4,0,6.7-1.3,10.1c-1.7-1.4-1.9-3.9-3.9-4.8   c0.7,0,1.4,0.1,2,0.1C456.7,246.9,457.5,245.2,457.1,242.9z" />
	<path display="inline" fill="#130E0D" d="M457.1,242.9c0.4,2.3-0.4,4-2.4,5.4c-0.7,0-1.3-0.1-2-0.1c-0.3-0.4-0.7-0.8-1.1-1.3   c0.4-0.5,0.8-0.9,1.1-1.3C455,245.9,455,242.5,457.1,242.9z" />
	<path display="inline" fill="#594640" d="M483.6,255.8c0.2,2.3-0.2,3.8-2.3,5C481.1,258.6,481.9,257.2,483.6,255.8z" />
	<path display="inline" fill="#514741" d="M486.5,254.3c-0.7-2-0.5-3.3,1-4.6C488.4,251.5,487.5,252.7,486.5,254.3z" />
	<path display="inline" fill="#EBD98F" d="M455.3,178.4c-0.5-1.6-2.2-1.6-3.5-2.3c0.3-0.3,0.6-0.5,0.9-0.8c-0.9-1.6-1.7-3.1-2.6-4.6   c0-1.3-0.3-2.2-1.7-2.6c5.5-4.6,8.3,1.5,12.2,5.1c14.3,6.3,18.4-1.1,27.8,3.3c1.1-1.3,3.3-5.3,4.7-2.3c-2,0-2.4,0.6-1.5,2.3   c-1.6,1.5,0.1,3.3-2.7,3.6c0.3-0.7,0.5-1.4,0.9-2.3C478.8,182.5,466.2,186,455.3,178.4z" />
	<path display="inline" fill="#0C0906" d="M439.8,181.8c-9.1,5.1-27.2,7.7-30.5-5.2c10.8,10.2,24.5,5.4,36.4-0.6   c0.3,0.3,0.6,0.6,1,0.9C445.4,179.6,442,180.1,439.8,181.8z" />
	<path display="inline" fill="#100C08" d="M455.3,178.4c10.9,7.6,23.6,4.1,34.4-0.6c-5.6,10.3-27.7,10.3-35.6,2.2   C454.5,179.4,454.9,178.9,455.3,178.4z" />
	<path display="inline" fill="#675F40" d="M450.1,170.7c0.9,1.5,1.7,3,2.6,4.6c-0.3,0.3-0.6,0.5-0.9,0.8c-1.2-1.7-2.8-3.1-2.7-5.4   C449.4,170.7,449.8,170.7,450.1,170.7z" />
	<path display="inline" fill="#988A5B" d="M450.1,170.7c-0.3,0-0.7,0-1,0c-1-0.6-0.7-1.7-0.7-2.6   C449.8,168.4,450.2,169.4,450.1,170.7z" />
	<path display="inline" fill="#190E0D" d="M491.5,176.5c-0.9-1.8-0.5-2.3,1.5-2.3C492.6,175,492,175.8,491.5,176.5z" />
	<path display="inline" fill="#8A7C5A" d="M492.8,171.5c-0.8-1-0.3-1.4,0.7-1.6C494.3,170.9,493.9,171.3,492.8,171.5z" />
	<path display="inline" fill="#EBDA8F" d="M446.6,176.9c-0.3-0.3-0.6-0.6-1-0.9C446.3,175.9,446.6,176.3,446.6,176.9z" />
	<path display="inline" fill="#2D2624" d="M431.1,50.4c-0.4-0.4-0.7-0.8-1.1-1.3c-1.3-0.2-2,2.3-3.9,0.7c0.3-0.5,0.7-1.1,1.1-1.7   c-0.4-0.2-0.9-0.4-1.4-0.6c2.8-3,11.5-2.3,11.5,2.6c-0.9,1-1.9-0.9-2.7,0.2C433.4,51.3,432.2,50.2,431.1,50.4z" />
	<path display="inline" fill="#251917" d="M436.3,73.7c-0.2-0.3-0.5-0.6-0.8-1c6.1-2.7,11.5-1.7,17.8-0.4c0.4,0.4,0,0.9-0.7,1.3   C447.2,73.6,441.8,73.7,436.3,73.7z" />
	<path display="inline" fill="#281C1B" d="M451.8,49.4c-0.6-0.6-1.2-1.2-1.8-1.8c0.8-2.9,3.5-2.7,6.1-2.4c-0.8,2.5,2.6,2.4,4.2,3.5   c-1,1.5-2.3,0.1-3.8-0.1C455.3,49.7,453.2,51.1,451.8,49.4z" />
	<path display="inline" fill="#BC9F91" d="M436.3,73.7c5.5,0,10.9-0.1,16.4-0.1c-1.6,1.1-3.6,0.8-5.4,0.8c-0.9,1.7,0.5,1.4,1.1,1.7   c-2.4,1.4-7.2,1.4-9.5,0c1.3-0.1,2.7-0.2,4.4-0.4C441.8,73.1,438.5,75.6,436.3,73.7z" />
	<path display="inline" fill="#645A4D" d="M450.1,15.1c0.2,0.8-0.5,2,0.8,2.4c0.3,0.3,0.5,0.6,0.8,0.9c0.6,0,1.2,0.1,1.7,0   c0,0.3,0.1,0.6,0.1,0.9c-0.2,0.1-0.9,0-0.3,0.6c0.1-0.2,0.2-0.4,0.3-0.7c0.3,0,0.6,0,0.9,0c0,0.5,0,1.1,0,1.6   c-1.6,1.8-3.6-0.4-5.1,1.1c-0.4-0.5-0.7-1.1-1.1-1.6c-0.5,0.4-0.9,0.7-1.3,1.1c-0.2-1.2-0.5-2.2,0.5-3.1c0.2,0.1,0.4,0.3,0.7,0.5   c0.4-1.3,0.8-2.5,1.3-3.7l0.3-0.1L450.1,15.1z M451.4,19.5c-0.2,0.2-0.3,0.3,0,0.5C451.6,19.8,451.6,19.7,451.4,19.5z" />
	<path display="inline" fill="#392E2B" d="M461.8,42c-5.9-0.4-10.4,0.4-15.9,1.2C447.1,39.3,459,39.6,461.8,42z" />
	<path display="inline" fill="#37332C" d="M447.4,18.4c-1.1,0.8-0.7,1.9-0.5,3.1c0.4-0.4,0.8-0.7,1.3-1.1c0.4,0.5,0.8,1.1,1.1,1.6   c-1,1.6-2.3,2.5-4.3,1.5c0-2.6,0-5.1,0-8.1c0.5,0.4,0.9,0.7,1.2,1c0.4-0.7,0.8-1.4,1.2-2.1C447.4,15.7,447.4,17.1,447.4,18.4z" />
	<path display="inline" fill="#1B1B19" d="M438.9,76.1c2.3,1.4,7.1,1.4,9.5,0c0.8,0.2,1.9-0.7,2.3,0.7c-3.4,3.4-9.9,2.4-13.4,0   c0.2-0.2,0.5-0.5,0.7-0.7C438.3,76.1,438.6,76.1,438.9,76.1z" />
	<path display="inline" fill="#45312D" d="M426.1,41c4.4-0.7,9.8-1.4,12.8,2.9c-4.3-1-7.6-1.9-11.9-2.1   C426.7,41.5,426.4,41.3,426.1,41z" />
	<path display="inline" fill="#503F3A" d="M444.9,63.2c1.3,0,2.6,0.1,4,0.1c0.1-0.6,0.3-1.5,0.6-2.7c0.9,1.6,1,2.8,0.1,4.2   c-1.2,0-2.6,0-4.1,0C445.4,64.2,445.2,63.7,444.9,63.2C445,63.2,444.9,63.2,444.9,63.2z" />
	<path display="inline" fill="#6E6D65" d="M431.1,50.4c1.1-0.2,2.3,1,3.4-0.1c0,0.7,0,1.4,0,2.4c-1.1,0-2.1,0-3.3,0   C431.2,51.8,431.1,51.1,431.1,50.4z" />
	<path display="inline" fill="#AEA497" d="M460.3,48.7c-1.2-0.9-4.7-1-4.3-2.8c1.3,0.2,3.4,1.9,4.2,0.2   C461.9,46.4,460.8,47.8,460.3,48.7z" />
	<path display="inline" fill="#BEA89A" d="M444.7,53.5c-0.2-1.2-0.4-2.3-0.5-3.6c0.5-0.1,0.9-0.2,1.4-0.4   C446.1,51,445.9,52.3,444.7,53.5z" />
	<path display="inline" fill="#76675E" d="M439.6,65.6c-2.1-0.5-2.1-4-0.2-4.8c0.9,1.4-0.9,1.9,0.5,3.3   C439.8,64.6,439.7,65.1,439.6,65.6z" />
	<path display="inline" fill="#836F66" d="M447.3,44.3c0.7,1.8-0.5,2.7-1.1,4.1C445.3,46.6,445.8,45.5,447.3,44.3z" />
	<path display="inline" fill="#413B32" d="M457,21c-0.6,0.3-1.1,0.5-1.7,0.8c0.3-1.1,0.5-2.2,0.8-3.3c0,0,0,0,0,0   c0.5-0.4,1.1-0.7,1.6-1.1c0,0,0.2,0.2,0.2,0.2c0,0.6-0.1,1.1-0.1,1.7l0,0C457,19.6,457,20.3,457,21L457,21z" />
	<path display="inline" fill="#5F4943" d="M460.3,46.1c-0.8,1.7-2.9,0-4.2-0.2c0-0.2,0-0.5,0-0.7C457.5,45.5,458.9,45.8,460.3,46.1z   " />
	<path display="inline" fill="#403632" d="M450.1,47.6c0.4,0.4,0.8,0.8,1.2,1.1c-0.8,0.6-1.5,1.1-2.5,1.8   C447.7,48.6,449.3,48.3,450.1,47.6z" />
	<path display="inline" fill="#B6998C" d="M461.4,38.3c0.1-0.8,0.1-1.6,0.2-2.3c0.4-0.1,0.5-0.1,0.8-0.1c1.1,0.5,0.7,1.5,0.7,2.4   C462.4,38.3,461.9,38.3,461.4,38.3z" />
	<path display="inline" fill="#767B71" d="M453.5,50.3c0.6-0.3,1.3-0.5,1.9-0.8c0,0.7-0.1,1.3-0.1,2.2c-0.7,0.1-1.3,0.2-2.2,0.3   C453.3,51.3,453.4,50.8,453.5,50.3z" />
	<path display="inline" fill="#706159" d="M461.4,38.3c0.5,0,1.1,0,1.6,0c0,0.6,0,1.3,0,2C461.4,40.2,461.3,39.3,461.4,38.3z" />
	<path display="inline" fill="#AB9F88" d="M456.2,18.5c-0.3,1.1-0.5,2.2-0.8,3.3c-0.3-0.3-0.7-0.6-1-0.8c0-0.5,0-1.1,0-1.6   c0,0,0,0,0,0c0.3-0.3,0.6-0.6,0.9-0.9c0,0,0,0,0,0C455.6,18.5,455.9,18.5,456.2,18.5z" />
	<path display="inline" fill="#B1B6A7" d="M439.6,65.6c0.1-0.5,0.2-1,0.2-1.5c0.2,0,0.5,0,0.7,0c0.5,1.4,1.6,0.8,2.5,0.7   C442.3,66.1,440.9,65.7,439.6,65.6z" />
	<path display="inline" fill="#352824" d="M443.1,64.8c-0.9,0-2,0.7-2.5-0.7C442,63.2,442,63.2,443.1,64.8z" />
	<path display="inline" fill="#BC9F91" d="M450.7,76.8c-0.4-1.4-1.5-0.5-2.3-0.7C449,73.7,453.5,76,450.7,76.8z" />
	<path display="inline" fill="#81625A" d="M445,63.2c-0.9-1.3-0.9-1.3,0.5-2.1C446.5,62.1,444.9,62.5,445,63.2L445,63.2z" />
	<path display="inline" fill="#645A52" d="M426.1,41c0.3,0.3,0.6,0.5,1,0.8c-0.7,1-1.7,0.9-2.7,0.7c0-0.3-0.1-0.6-0.1-0.8   C424.9,41.4,425.5,41.2,426.1,41z" />
	<path display="inline" fill="#4A3A36" d="M439.5,49.8c-1.4,0.1-1.4,0.1-1-1.1C439,48.9,439.3,49.2,439.5,49.8z" />
	<path display="inline" fill="#E5CABA" d="M453.8,83.9c-0.4,0.2-0.7,0.4-1.1,0.7C453.1,84.4,453.4,84.1,453.8,83.9z" />
	<path display="inline" fill="#BC9F91" d="M439.8,77.9c0.4,0.2,0.7,0.4,1.1,0.5C440.5,78.3,440.1,78.1,439.8,77.9z" />
	<path display="inline" fill="#BC9F91" d="M437.3,76.8c0.3,0.3,0.6,0.6,0.9,0.9C437.6,77.7,437.3,77.4,437.3,76.8z" />
	<path display="inline" fill="#BC9F91" d="M438.9,76.1c-0.3,0-0.6-0.1-0.8-0.1c0.2-0.2,0.3-0.4,0.5-0.6   C438.7,75.7,438.8,75.9,438.9,76.1z" />
	<path display="inline" fill="#767B71" d="M451.8,49.4c0.3,0.2,0.6,0.5,1,0.7C452.5,49.9,452.2,49.7,451.8,49.4z" />
	<path display="inline" fill="#2A2825" d="M419.7,249.1c-0.5-2.1-1.9-3.4-0.8-5.2C420.2,245.3,420.2,245.3,419.7,249.1z" />
	<path display="inline" fill="#8B776D" d="M431.4,265.5c1.1,0.2,2.1,1.5,1,1.9C431.4,266.9,431.2,266.7,431.4,265.5z" />
	<path display="inline" fill="#63524B" d="M425.2,260.1c-0.1-0.5-0.2-1-0.4-1.4C426.4,257.9,426.2,259.6,425.2,260.1z" />
	<path display="inline" fill="#241918" d="M429.4,263c-0.1,0.2-0.2,0.4-0.3,0.6c-0.4-0.3-0.2-0.5,0-0.9   C429.1,262.8,429.2,262.9,429.4,263z" />
	<path display="inline" fill="#584C45" d="M480.2,370.6c0.6-1.7,1.2-3.5,2.2-6.2c0.6,3.2,0.5,5.1-1.3,6.6   C480.8,370.9,480.5,370.8,480.2,370.6z" />
	<path display="inline" fill="#685D55" d="M515.5,544.8c0,1.3,0,2.5,0,3.7c-2.7,1.5-0.9-2.7-0.8-3.8   C515,544.7,515.2,544.8,515.5,544.8z" />
	<path display="inline" fill="#917A70" d="M483.6,359.9c-0.1,0.2-0.3,0.3-0.4,0.4c-0.1-0.4-0.4-0.7,0-1   C483.3,359.6,483.4,359.8,483.6,359.9z" />
	<path display="inline" fill="#12100E" d="M404.7,424.9c-0.3,0.4-0.5,0.8-0.8,1.1c-0.3-0.4-0.7-0.8-1-1.2c0-2.7,0-5.4,0-8.1   c0.5,0,1-0.1,1.8-0.2C404.7,419.5,404.7,422.2,404.7,424.9z" />
	<path display="inline" fill="#DBC2B1" d="M402.9,424.9c1.3,1.1,1.5,2.9-0.1,3.7C402.8,427.4,402.9,426.1,402.9,424.9z" />
	<path display="inline" fill="#625E41" d="M407.2,174.8c-1.9,0-2-0.9-2.1-2C406.5,172.6,406.5,173.9,407.2,174.8z" />
	<path display="inline" fill="#4C2E20" d="M404.2,170.2c-0.4-0.4-0.6-0.7,0-1C404.7,169.3,404.3,169.8,404.2,170.2z" />
	<path display="inline" fill="#5D4F49" d="M451.6,134.5c-1.5,0-1.5,0-1.5-1.7c0.3-0.3,0.6-0.7,0.9-1c0.4,0.3,0.7,0.7,1.1,1   C451.9,133.4,451.8,133.9,451.6,134.5z" />
	<path display="inline" fill="#D5BCAC" d="M452.1,132.9c-0.4-0.3-0.7-0.7-1.1-1c0.7-1.3,2.3-0.6,3.4-0.8   C453.6,131.7,452.8,132.3,452.1,132.9z" />
	<path display="inline" fill="#7C625B" d="M454.4,131.1c-0.6,0-1.1,0-1.7,0c0.3-1.1,1-1.6,2.5-1.7   C454.8,130.2,454.6,130.6,454.4,131.1z" />
	<path display="inline" fill="#9C8A80" d="M445.2,132.4c1.2-0.8,1.5,0.1,2.1,1C446,133.2,446,133.2,445.2,132.4z" />
	<path display="inline" fill="#110F0D" d="M395.1,575.7c-3.7-0.4-7.9,0.9-11.2-1.1c1.7-4.2,7.7-2.1,11.3-2.4   C397.1,573.4,397.1,574.6,395.1,575.7z" />
	<path display="inline" fill="#232E28" d="M384.9,578c0.2-0.4,0.3-0.8,0.5-1.2c2.1-0.2,4.2-0.6,6.2,0.6   C392.3,581.6,386.8,578.7,384.9,578z" />
	<path display="inline" fill="#15110F" d="M533.5,559.4c2.1,0,3.8-0.3,5.7,0.9c-0.2,0.6-0.4,1.1-0.6,1.6c-1.5,0.4-3.1,0.9-5.3,1.5   c1.7,0.2,2.6,0.3,3.6,0.4c-1.3,1.3-3,0.5-4.5,0.6c-1.4-1.4-2.8-0.9-4.2-0.1c-1.2,0.2-2.6-0.3-3.5,0.9   C522,560.7,531.3,560.8,533.5,559.4z" />
	<path display="inline" fill="#090706" d="M536.1,555.9c1,4.1-5.3,1.4-6.8,3.2c-2.5,0.6-4.6,1.6-6.7,3c-1.2-0.9-0.4-1.9-0.2-2.9   C526.3,556.1,531.2,555.6,536.1,555.9z" />
	<path display="inline" fill="#292621" d="M534.4,568.7c2.8,0,10.4-2.9,10.2,1.7c-3.9,1.2-7.9,1.2-11.9,0.5   C532.5,569.4,533.8,569.3,534.4,568.7z" />
	<path display="inline" fill="#414038" d="M544.8,572.6c-2.4,2.7-2.6,2.7-6.7,0.9C540,571.7,542.1,571.9,544.8,572.6z" />
	<path display="inline" fill="#999F8A" d="M526.6,556.7c-1.4,0.9-2.9,1.7-4.3,2.6c-0.3-0.6-0.5-1.2-0.8-1.8c1.7-0.6,3.3-1.2,5-1.9   C526.6,556,526.6,556.3,526.6,556.7z" />
	<path display="inline" fill="#8C9380" d="M524.8,560.9c0.9-1.2,2.4-1,3.6-1.4c0.3,0.3,0.6,0.5,0.9,0.8c-1.2,0.5-2.4,1-3.6,1.5   C525.4,561.5,525.1,561.2,524.8,560.9z" />
	<path display="inline" fill="#564640" d="M432.9,114.8c-1.6,0-3.1,0.4-4.2-1.1c2-2,4.6-3.3,7.3-1.5   C434.8,113.3,433.9,114,432.9,114.8z" />
	<path display="inline" fill="#3F8158" d="M445.7,103.7c0.1,0.4,0.2,0.8,0.3,1.5c1.3-1.1,2.5-2.2,3.8-3.3c0.2,2.4,0.2,2.4-3.9,6   c-0.6-0.3-1.2-0.6-1.7-1C444.7,105.9,445.2,104.8,445.7,103.7z" />
	<path display="inline" fill="#382421" d="M425.9,96.7c0,0.6,0,1.2-0.1,2.1C424.6,97.5,425.1,97.1,425.9,96.7   C426,96.7,425.9,96.7,425.9,96.7z" />
	<path display="inline" fill="#9F736A" d="M427.7,110.5c-0.1,0.2-0.3,0.4-0.4,0.6c-0.1-0.2-0.2-0.4-0.4-0.7   C427.2,110.5,427.4,110.5,427.7,110.5z" />
	<path display="inline" fill="#E0C6B5" d="M421.6,108.7c0.4-0.7,0.7-0.7,1,0l-0.1,0.1c-0.3-0.1-0.5-0.1-0.8,0L421.6,108.7z" />
	<path display="inline" fill="#372724" d="M483.8,105.5c0.4-0.1,0.8-0.1,1.2-0.2c1.2,1.4-0.8,3.2-2.6,2.5   C482.8,106.9,483,106.2,483.8,105.5z" />
	<path display="inline" fill="#4D4640" d="M472.5,98.3c-0.1-0.3-0.1-0.6,0.1-0.8c0.5,1,1.7,1.8,1.6,3.3   C472.3,100.5,472.6,99.3,472.5,98.3z" />
	<path display="inline" fill="#775651" d="M506.8,121.7c0.2,0.1,0.4,0.2,0.7,0.3c-0.3,0.6-0.6,0.5-1.1,0.2   C506.5,122,506.7,121.9,506.8,121.7z" />
	<path display="inline" fill="#140C0B" d="M469.9,116.5c-2.5,0.6-4.6,0.1-6.4-1.8c0.8-1.5,2-0.7,3-0.9   C467.9,114.3,469.2,115,469.9,116.5z" />
	<path display="inline" fill="#B19D90" d="M476.6,110.4c1.3,0.8,0.8,1.9-0.4,1.2C476.2,111.3,476.4,110.9,476.6,110.4z" />
	<path display="inline" fill="#B7A093" d="M472,112.2c0.7,1.5,0.2,1.7-1.8,1.4C471.1,112.9,471.5,112.6,472,112.2z" />
	<path display="inline" fill="#7E675F" d="M421.8,108.8c0.3,0,0.5,0,0.8,0c-0.1,0.2-0.3,0.4-0.4,0.6   C422,109.2,421.9,109,421.8,108.8z" />
	<path display="inline" fill="#998A7F" d="M449.7,107c2.3,0.9,2.3,0.9,4.1,2.6c-0.4,0.5-0.8,1-1.3,1.6   C451.6,109.9,450.9,108.8,449.7,107z" />
	<path display="inline" fill="#8F7C72" d="M392.4,120.1c-0.2,0.1-0.4,0.1-0.6,0.2c0-0.4-0.2-0.8,0.3-0.9   C392.2,119.6,392.3,119.9,392.4,120.1z" />
	<path display="inline" fill="#9A9986" d="M526.6,556.7c0-0.3,0-0.7-0.1-1c2.3-1,4.7-1.1,7.1-1.3c0.9,0.4,1.7,0.9,2.4,1.6   C532.9,555.8,529.8,555.9,526.6,556.7z" />
	<path display="inline" fill="#0B0807" d="M532.5,564.4c1.5-0.1,3.1,0.7,4.5-0.6c1.2-0.1,2.3-0.1,3.5-0.2c0.2,0.2,0.5,0.2,0.8,0.2   c0,0.6,0.1,1.1,0.1,1.6c-2.7,1.9-4.8,2.2-13.1,1.6c0.4-0.7,0.7-1.2,1-1.7C530.3,565,531.4,564.7,532.5,564.4z" />
	<path display="inline" fill="#778271" d="M532.5,564.4c-1.1,0.3-2.2,0.6-3.3,0.9c-0.3-0.3-0.6-0.6-0.9-0.9   C529.7,563.5,531.1,563.1,532.5,564.4z" />
	<path display="inline" fill="#AC9E8A" d="M540.4,563.6c-2.7,0.2-4.1,0.2-7.1-0.2c2.2-0.6,3.7-1,5.3-1.5   C539.3,562.5,539.9,563,540.4,563.6z" />
	<path display="inline" fill="#B4C1A8" d="M529.4,560.3c-0.3-0.3-0.6-0.5-0.9-0.8c0.3-0.1,0.5-0.2,0.8-0.4c1,0.1,1.9,0.1,2.7-0.6   c0.5,0,1.1,0.1,1.6,0.1c0,0.2,0,0.5,0,0.7C532.3,560.5,530.8,560.1,529.4,560.3z" />
	<path display="inline" fill="#211E1A" d="M465.5,32c-1-0.1-0.6-0.8-0.6-1.4C465.7,30.8,465.6,31.4,465.5,32z" />
	<path display="inline" fill="#F6D9C7" d="M466.5,32.2c-0.2,0.6-0.4,1-0.8,0.1C465.9,32.3,466.2,32.2,466.5,32.2z" />
	<path display="inline" fill="#D2C6A9" d="M456.7,16.8c0.3-1.1,0.3-2.8,1.8-2.4c0.4,1-0.3,1.7-0.8,2.4   C457.4,16.7,457.1,16.7,456.7,16.8z" />
	<path display="inline" fill="#AB9F88" d="M456.7,16.8c0.3,0,0.7,0,1,0c0,0.2,0,0.5,0,0.7c-0.5,0.4-1.1,0.7-1.6,1.1   C456.3,17.9,456.5,17.3,456.7,16.8z" />
	<path display="inline" fill="#878772" d="M457.8,19.3c0-0.6,0.1-1.1,0.1-1.7C458.9,18.3,458.9,18.9,457.8,19.3z" />
	<path display="inline" fill="#B2A78F" d="M457,21.1c0-0.7,0-1.5,0.9-1.8C457.8,20,458,20.8,457,21.1z" />
	<path display="inline" fill="#9C907B" d="M452.7,18.5c-0.3,0-0.7,0-1,0c0-0.6,0.1-1.2,0.1-1.7c0,0,0,0.1,0,0.1   c0.5-0.6,1-1.2,1.5-1.7c0.3,0,0.7,0,1,0c-0.3,0.9-0.5,1.8-0.8,2.6c0,0,0,0,0,0C453.3,17.9,453,18.2,452.7,18.5z" />
	<path display="inline" fill="#AB9F88" d="M453.6,19.4c-0.1-0.6-0.1-1.2,0-1.8c0,0,0,0,0,0c0.5-0.2,0.9-0.4,1.5-0.7   c0.1,0.5,0.1,1,0.2,1.5l0,0c-0.3,0.3-0.6,0.6-0.9,0.9c0,0,0,0,0,0C454.1,19.3,453.8,19.3,453.6,19.4L453.6,19.4z" />
	<path display="inline" fill="#685E51" d="M453.7,8.3c0.2-0.1,0.4-0.2,0.7-0.2c0.1,0.3,0.3,0.5,0.4,0.8   C454.2,9.1,453.8,8.9,453.7,8.3z" />
	<path display="inline" fill="#76715E" d="M426.7,21.1c-0.2-0.6-0.5-1.2-0.7-1.7c0.6,0.6,1.2,1.1,1.8,1.7   C427.4,21,427,21.1,426.7,21.1z" />
	<path display="inline" fill="#6A584A" d="M426.1,25.4c-0.6-0.2-0.9-0.6-0.4-1.7C425.9,24.5,426,25,426.1,25.4L426.1,25.4z" />
	<path display="inline" fill="#352A23" d="M422.5,27.1c0.2,0.1,0.5,0.2,0.7,0.3C422.6,28,422.7,27.3,422.5,27.1L422.5,27.1z" />
	<path display="inline" fill="#362C26" d="M451.8,16.7c0,0.6-0.1,1.2-0.1,1.7c-0.3-0.3-0.5-0.6-0.8-0.9   C451.2,17.3,451.5,17,451.8,16.7z" />
	<path display="inline" fill="#A59781" d="M450.1,14.2c0.1-0.4,0.1-0.8,0.2-1.3C451.3,13.6,450.7,13.9,450.1,14.2L450.1,14.2z" />
	<path display="inline" fill="#A59781" d="M450.1,15.1l-0.4-0.1c0,0-0.3,0.1-0.3,0.1c0.3-0.3,0.5-0.7,0.8-1c0,0,0,0,0,0   C450.1,14.5,450.1,14.8,450.1,15.1z" />
	<path display="inline" fill="#A99882" d="M442.3,16c0.3-0.3,0.6-0.6,0.9-0.8c-0.1,0.4-0.2,0.9-0.3,1.3   C442.6,16.3,442.5,16.1,442.3,16z" />
	<path display="inline" fill="#B86A52" d="M468.1,315.1c0-0.3,0-0.6,0-0.9c0.6-0.3,1.1-0.6,1.7-0.9c0.7,0.1,1.5,0.1,1.8-0.8   c1.4-0.3,2.8-0.6,4.3-0.9C477.8,314,469.6,314.1,468.1,315.1z" />
	<path display="inline" fill="#FF9A77" d="M475.9,311.7c-1.4,0.3-2.8,0.6-4.3,0.9c-0.7-1.8,3.7-2.8,5.7-3.3   C476.8,310.2,476.4,310.9,475.9,311.7z" />
	<path display="inline" fill="#FF9A77" d="M469.8,313.3c-1.3,0.9-2.7,1-4.2,1c-0.1-1.2,0.3-2.1,1.8-2.6   C468.2,312.2,469,312.8,469.8,313.3z" />
	<path display="inline" fill="#ABA991" d="M453.5,19.3c-0.1,0.2-0.2,0.4-0.3,0.7C452.7,19.4,453.3,19.5,453.5,19.3L453.5,19.3z" />
	<path display="inline" fill="#9C907B" d="M451.4,19.5c0.2,0.2,0.2,0.3,0,0.5C451.2,19.8,451.2,19.7,451.4,19.5z" />
	<path display="inline" fill="#4C483D" d="M453.6,17.6c0,0.3-0.1,0.6-0.1,0.9c-0.2,0-0.5,0-0.7,0C453,18.2,453.3,17.9,453.6,17.6z" />
	<path display="inline" fill="#4A3830" d="M454.4,19.4c0.3-0.3,0.6-0.6,0.9-0.9C455,18.8,454.7,19.1,454.4,19.4z" />
	<path display="inline" fill="#15110F" d="M531.9,558.5c-0.8,0.8-1.7,0.8-2.7,0.6C529.9,558.1,531,558.5,531.9,558.5z" />
</g>
</svg>