<?xml version='1.0' encoding='utf-8'?>
<svg xmlns="http://www.w3.org/2000/svg" version="1.2" baseProfile="tiny" id="Layer_1" x="0px" y="0px" viewBox="0 0 900 600" overflow="visible" xml:space="preserve">
<g id="a_00000173120817224678803100000018115360045138470807_">
	<path d="M535,74.3c-0.4,5.3,1.5,10.2,2.7,15.3c2.9,2.3,5.8,4.7,9,7.2c36.4,4,31.4,41.7,33.8,68.8c-2.4,14.7,7.4,22.4,10.9,35.3   c2.8,26.3,8.7,54.6,6,80.9c-0.2-0.3-0.5-0.6-0.8-0.9c-1.5-23.3-5.3-46.4-6.1-69.7c0.1-14-12.9-22.8-12.8-36.6   c-0.7-1.8,0.3-5.7-1.4-6.4c-2.6,2.9-4.8,6.6-7.8,9.3c-2,0.8-1.1,3.6-3.1,4.4c-2.8,1.8-2.1,5.7-3.1,8.5c5.4,22.2,8.8,45.8,20,66.4   l0,0c2,8.9,5.6,18.7,0.8,27.3c-1.6,1-0.3,2,0,3c-1.6,0.8-2,2.6-3.1,3.8c-2.3-2.6,1.2-4.8,0.5-7.7c-2.2,1.1-4.1,1.2-6,0.2   c-1.3,0.7-2.5,1.4-3.6,1.9c0.1,5,0.6,9.7,1.1,14.5c0.5,0.2,1,0.3,1.6,0.5c-0.5,0.8-0.9,1.5-1.3,2.2c0.9,1.4,0.8,4.1,2.3,4.7   c0.5-1.9-0.9-4,0.1-5.6c0.2,0,0.5,0,0.7,0c0,2.8,0,5.6,0,8.3c-0.2,0.3-0.5,0.5-0.7,0.8c-0.2-0.1-0.4-0.2-0.9-0.4   c0.6,5.2,1.2,10.3,1.9,15.3c0.5,0.2,0.8,0.3,1.2,0.4c-2.9,2.2-0.3,7-0.6,10.4c0.4,0.3,0.8,0.6,1.4,1c2.7,32.5-5.3,64.9-1.4,97.2   c9.7,32.8-0.2,67,3.8,100.3c11.2-0.8,3.9,6.6,11.1,13.5c5.9,14,20.1,19.1,22.1,30c5.4,14-21.2,12.7-28.8,9.9   c-4.4-2.5-14.2-1.2-14-8.1c-7.3-2-14.9-1.7-20.6-6.8c13.7-40.4,2.3-59.4-10.3-97.2c-5.8-15,5-28.8,0.5-43.4   c-5.2-16.7-1.9-34.6-7.7-51.2c-5-17.8-13.5-35.8-14.5-54.1c16.9-4.6,34.7-8.9,52.3-11.7c-2.2-18.5-2.9-37.4-5.3-55.5   c-30.7,11-62.6,5.7-93.8-0.3c-2.2,8-5,16.5-5.3,24.7c-5.7-0.7-10.1,2.8-15.5,2.2c-2.6-21.3,5-42,10.5-62.3   c4.8-12.6,3-27.2,10.5-38.8c5.8-16.5-1.1-38.2,11.9-51.7c0.3,0.3,0.6,0.5,0.8,0.8c-1.2,3.4-4.1,6.2-4.5,9.8   c10.6-9.8,19.7-25.8,16.9-41.3c0.3-2.6-0.4-5.9,1.1-8c7.7,21-4.7,41.2-18.8,55.8c1.8,13.4-5.3,26.4,1.4,39c26-5.5,53.8-11,79.8-2.6   c1-4.1,3-7.8,5.6-10.8l0,0c21-19.6,8.5-37.1-4.1-57c0.3-0.3,0.6-0.6,0.8-0.9c6.2,5,8.8,13.2,12.8,19.5c0.9-12.7-4.4-30.2-18-35.2   c-2.7-0.5-6.6-5.6-7.6-1.2c-2-2.2-4.2-3.6-6.4-4.1c3.9,10.7,18.3,27.1,6.5,36.7c-13.4,4.2-27.8,0.8-39.7-6.1   c-10.9-6.4-7.7-29.8-12.4-41.4c-0.5-0.1-0.9-0.1-1.2-0.1c-14.4,14-37.2,13.9-43.7,36.9c-0.6,0-1.2,0-1.7,0c-5,9-3.7,18.9-3.9,28.7   c-0.1,10.1-2.3,20.1-1.7,30.3c0.1,19.6-10.2,37.8-8.4,57.9c-0.5,17.3-1.3,34.7,0,51.8c0.5,7.5-5.4,19.5,3.8,23.9   c0,0.6,0.1,1.1,0,1.7c-5.3,1.2-4.9-5.1-8.2-7.2c-0.1-8,3.4-16.1-0.2-23.3c2.7-3.9,1.4-9.5,2.2-13.8c-1.6-2.4-1.7-2.4-1.5-5.4   c1.6-24.8-0.9-51,9.7-74.3c-3.3-15.7,2.9-31,1.8-46.6c-3.5-17.7,5.8-34.6,19.4-45.4c10.2-8,30.1-11.2,35.3-23.6l0,0   c2.1-1.1-0.6-2.8-0.7-4.5c1-0.8,0.9-1.8,0.8-3c0.5-0.2,1-0.4,1.6-0.7c0.8-3.7-2.1-7.5-1.3-11.1c0.5-0.1,0.8-0.1,1.2-0.1   c0.1-1.6,0.2-3,0.2-4.5c0.6-0.1,0.9-0.2,1.3-0.3c0.1,0.5-1.1,1,0.1,1.5c1.9,9.6,2,20.4-3.4,28.9c6.3,12.5,4.9,26.9,8.5,40.1   c8,4.3,17,9,26.1,9.6c-0.1-1.7-0.3-3.1-0.4-4.8c2.2,1.3,1.6,3.6,3,5.2c19.4,1.4,18.2-10.8,10.8-24.3c-3.9-7.3-5.6-15.5-11.8-21.2   c-1-5.5-5.1-11-1.4-16.6C534.1,73.4,534.5,73.8,535,74.3z M596.6,584.7c-0.3-0.3-0.5-0.5-0.8-0.8c4-2.8,8.7-2.7,13.4-3.5   c1.9-6.8-4-9.8-8.8-13.1c-2.5,1.1-5.2,2.1-8.5,0.9c0.3-0.9,0.6-1.6,0.9-2.5c-2.6-0.3-6.7,2.1-8.5-0.8c3-3.7,7.9-1.6,12.3-2.5   c-5.5-3.3-12.8,0.8-18.8-0.8c-1.2-5.5,10.1-3,13.4-3.5c0.5,0.7,1.2,0.9,2.1,0.3c-4.9-6.3-14.4,0.4-21.2-0.7   c1.7-6,12.8-5.3,18.2-5.3c-3.8-5.2-17.4,3.1-19.1-1.3c4.6-3.1,10-3.1,15.3-3.3c-1.1-3-2.2-5.9-3.4-9.1c-1.9-0.9-4.1-0.5-6.5-0.4   c-2.9,3.9-8.6,5-10.1,9.8c-1,3.8-3,7-7.2,4.7c-0.6-0.2-1.1-0.6-1.9,0.2c0.8,7-5.1,13.2-4.2,20.6c6.6,0.9,12,3.7,18.4,4.3   c0.6,6.7,15.3,6.3,20.3,7.5c0.1,0.4,0.2,0.7,0.4,1.2c4.3,0,16.9,0.8,18.6-3.5C606.4,582,601.2,583.7,596.6,584.7z M490.2,190.8   c-0.7-0.2-1.4-0.1-1.6,0.8c-2.6,0.1-5.2,0.5-7.8,1.9c10.1,21.8-6.4,42.3-8.9,64c5.7,0.4,11.5,3,17,1.9c2,2,4.3,3.1,7.2,2.6   c-0.6-1.2-1-2.2-1.4-3.1c0.1-0.1,0.3-0.2,0.4-0.3c1.5,1.2,3.1,2.4,4.7,3.7c18.4,1.6,38.4,5.3,55.8-3l-0.1-0.1   c2.3,2.1,6.4-0.8,9.2-0.9c-1.6-22.9-10.9-44.8-5.2-67.9C536.9,183.5,513,187.4,490.2,190.8z M565.5,544.4c1.2-2.9,4.6-3.9,6.5-5.5   c0.3-0.9,0.4-1.5,0.6-2.3c1.3-0.7,2.8-1.4,4-2c-2.9-28.4,2.8-56.7-0.1-85c-3.7-14.3-4.5-28.8-3.9-43.5c-1.7-13.5,0.6-27.5,3-40.6   c-1-15.3-2.8-30.5-4.9-45.7c-17.1-0.3-33.6,6.2-50.2,10c3.6,20.3,12.4,39.1,16.7,59.2c3.4,16.8,1.3,35.2,7.5,51.3   c-1.2,13.4-4.4,26.5-0.9,39.7c6.8,21.3,18.6,44.3,14.7,66.9c0.6,1.5,1.2,3.2,3.6,3.3C563.6,548.5,564.5,546.4,565.5,544.4z    M475.8,185c-0.2,0-0.5-0.1-0.7-0.1c-5,11-6.9,22.3-8.5,34.1c-0.5,0.3-0.9,0.5-1.3,0.7c-4.9,21.7-15.5,42.7-12,65.4   c2.7-0.5,5.1-0.9,7.5-1.3c6.6-20.2,8.7-41.5,18-60.7C486.3,210.7,479.5,197.6,475.8,185z M561.2,201.7c-0.3,0-0.5,0-0.8,0   c-1.4,27.5,8.3,53.9,10,81.4c3.6-0.9,7-1.6,10.4-0.7c6.9-14-6.8-27.8-8.1-40.3C566.6,229.3,564.2,215.3,561.2,201.7z M596.8,565.4   c0.7,0.4,1.4,0.8,2.3-0.2C598.1,564.7,597.4,564.7,596.8,565.4z" />
	<path fill="#010101" d="M521.3,326.8c-0.8,1.2-2.1,0.7-3.4,0.9c-0.2,0.6-0.3,1.1-0.5,1.7c-0.3,0-0.5-0.1-0.7-0.3   c-0.1-0.7-0.1-1.4-0.2-2.1c-0.2,0-0.3,0-0.5,0c-5.5,26.5-14.3,52.6-18.4,79.7c-2.3,8.8-6.6,17.2-8.5,26.3c-2,9,1.7,18.4-0.4,27.6   c-8.7,44.9-27.6,76.9-4.9,122.2c3,5.6,9.3,16-1.6,16.5c-10.6-0.4-36.2,4.8-39.3-8.4c-1.9-0.2-4-0.4-5.8-1.7   c-1.9-8.3,0.7-17.5,3.1-25.4c4.7-5.6,1.9-16.5,9.3-19.5c-1-31.4-7.1-63.1-2.4-94.7c16.8-35.8,9.7-78,10.9-116.7   c-1.2-0.5-2.5-1-3.7-1.4c0.3-0.6,0.5-1.1,0.8-1.7c2.5,0.6,4.8,2,7.5,1.8c-0.5,0.5-0.9,1.1-1.4,1.6c0,20.8-0.2,41.4,0.8,62.1   c1.6,23.1-10.4,44.4-13.3,67c-3.7,31.3,6.8,62.3,3.1,93.2c5.9-9.4,3.2-12.9,17.2-11.9c2.4-38.4,18.6-74,16.1-112.5   c12.1-31.4,18.7-65.7,26.7-98.9c-10.7-2.6-21.8-1.1-32.3-4.6c-0.8-1.3-2.2,0.1-3-1.4c0.7-0.8,1.5-1.5,2.2-2.3   c1-0.3,1.4,0.8,2.2,0.8c10.3,3.7,21.1,2.7,31.9,4.3c1.5-3,2-6.4,4.6-8.9c0.4,0.1,0.8,0.2,1.5,0.3c1.6-1.9,3.4-4,5.5-5.6   c0.8,0.2,0.6,0.9,0.7,1.4c-1.9,3.3-4.4,6-7.8,7.9c0.2,1,0.3,1.8,0.5,2.8C519.1,326.8,520.2,326.8,521.3,326.8z M474.3,563.2   c-4.9-2.1-11.3-1.3-16.2,0.1c-0.6-0.3-1.3-0.6-1.9-1c3.8-5,10.6-3.1,16.1-3.7c-2.5-3.9-0.9-8.5-4-12c-3.8-1-7.2,0.3-10.5,2.1   c-1.5,3.3-1.8,7.2-4.2,10.1c-2.2-0.2-4.8,0.7-6.5-1.2c-0.4-0.3-0.3-1.3-1.5-0.9c-2.4,7.8-5.8,15.4-6.3,23.7   c0.3,0.2,0.5,0.5,0.8,0.7c-0.1,2-0.6,4-0.3,5.7c1.8,1,3.3,1.8,4.8,2.7c7.1,16.7,28.4-1.7,40.7,4.2c0,0.4-0.1,0.7-0.1,1.2   c-7-0.2-12.8,0.1-19.8,2.1c2.6,0.5,4.2,0.7,5.8-0.3c5.2-0.5,11.2,1.5,15.7-2c0.2-1.2,0.6-2.5-1.3-2.8c-2.5-4.5-4.7-8.7-6.7-13.5   c-2.3,2.2-20.9,2.9-19.1-2.1c5.7-1.7,12,0.1,18-0.2C477.7,571.7,478.5,566.1,474.3,563.2z M448.5,546.9c-0.5,2.3-3.1,8.1,0.8,8.4   C450.1,552.5,449,549.7,448.5,546.9z" />
	<path fill="#F6D9C7" d="M535,74.3c-0.4-0.5-0.9-1-1.3-1.4c-3.6-0.3-7.1-1.4-10.7-1.7c-1.1-1-2.6-0.4-4-0.9   c-1.5-0.9-2.7-2.7-5.3-2.7c0.7,0.7,1.1,1.1,1.6,1.5c-5.2,1-4.5-12.6-9.3-13.6c0.8-2.7-2.4-1.2-3.7-0.9c-1.2-1-2.5-2-3.7-3.1   c0.3-0.4,0.7-0.9,1.1-1.4c0.8,1.3,1,1.5,2.1,2c2.5-2,1.2-3.4-0.7-4.6c-0.7-1.2,0.6-2.7-0.8-3.6c1.5-1.6,3.8,0.6,5.7-0.8   c-1.1-1-2.1-1.9-3-2.7c0.5-0.4,0.8-0.7,1.2-1c2,0.3,2-1.7,1.9-3.2c0.2-0.3,0.5-0.5,0.7-0.8c0-0.7,0.2-1.5,0.1-2.2   c0.6-0.9,3.8-2.4,1.5-3.1c0.6-0.6,1.1-1.3,1.8-2c-0.4-0.4-0.7-0.7-1.1-1c0.2-0.2,0.3-0.4,0.2-0.7c0.7-0.9,1.3-1.9,2.2-3.1   c-1.4,0-2,0.6-2.3,1.4c-0.2,0.1-0.5,0.1-0.7,0.1c0.5-1.4-1-1.4-1.4-2.1c0.7-1.1,1.9-1.6,3-2.3c0.5-1.2-0.8-1.3-1.5-1.8   c0-0.2,0-0.3,0.1-0.5c0.2-0.3,0.5-0.5,0.7-0.8c1.8,0.1,2.7-0.6,3-2.4c1.6-1,3.9-2,3.4-4.4c0.8-0.5,2.1,0.4,2.7-0.7   c2.3-0.4,3.9,1.5,6,1.9c2-0.5,2-0.5,3.9,0.3c0.3,0.1,0.7,0.4,0.8,0.4c0.9-0.9,2-0.7,3-0.5c0.4,0.6,0.6,0.6,0.8-0.1l0,0   c1-0.1,2.1,0,3.1,0c0.4-0.4,0.7-0.8,1.1-1.3c4.5,4.2,6.4,10.6,8.3,16.3c-14.4,0.1-7.7,11.8-2.7,19.1c-0.6,1.9-2.4,1.8-2.3,3.8   c7.3-1.5,0.1-9.1-1.6-12.8c0.3-0.5,0.5-1,0.8-1.5c1.6,0.3,1.3,2.5,3,2.7c1.7-0.2,2-1.7,2.7-3c2.7,6.9,3.8,14.3,1,21.5   c-5.5-3.5-10.9,0.1-16.8,0.1c0.8,1.6,1.4,2.5,3.1,2.2c1.8-0.1,2.3,1.5,3,2.7c3.3,1.8,8.8,0,9.1-4.3l0,0c0.3,0.4,0.7,0.8,1,1.1   c-2.2,4.3-0.3,13-7.2,13.6c-1.3,0.1-2.8,0.2-3.6,1.6C535,73.9,535.1,74.1,535,74.3z M522.1,36.4c0.5-0.2,0.9-0.1,1.4-0.1   c-0.3,3.3,3.7,3.9,5.2,1.4c-0.1-0.6-0.2-1.1-0.4-1.9c0.8,0.6,1.3,0.9,2.2,1.5c-0.4-1.6-0.8-2.8-1.1-4c-0.8-0.2-1.6-0.3-2.5-0.5   c0.4,0.7,0.6,1.1,0.9,1.5c-1.2,0.2-2.3,0.3-3.4,0.5c-1.4-0.6,0.9-0.9,0-1.5c-0.9-0.3-6.2,2.4-3.8,3c0.1,0.4,0.1,0.8,0.2,1.5   C521.4,37.1,521.8,36.8,522.1,36.4C522.2,36.4,522.1,36.4,522.1,36.4z M535.1,49.4c-0.9-0.1-1.4-1.2-2.4-0.3   c1.8,3.4,4.2,0.5,7.2-0.2C537.8,47.2,537,48.7,535.1,49.4z M522.4,29.6c3.7-0.4,8.2,1.8,11.3-0.4c-5.6-1.6-14.1-3.3-16.7,3.4   C519.2,31.8,520.4,29.9,522.4,29.6z M539.4,51.7c-1,0.9-1,0.9,0.2,2.1C539.5,53,539.5,52.4,539.4,51.7z" />
	<path fill="#121113" d="M582.9,287.2c-0.3-1-1.6-2,0-3c0.1,0.4,0.1,0.9,0.2,1.4c4-3.4,8.5-3.7,13.4-4.7c0.3,0.3,0.6,0.6,0.8,0.9   c2.1-4.4,0.3-10.9,0.9-16c1.6,5,0.5,9.9,0.5,15.1c2.1,0.7,4.2,1.3,6.3,2c0,0.2,0,0.4,0,0.6c-28.8-8.9-37.1,39.3-9.9,45   c0.9,1.3,2.5,0.4,3.7,0.6c0.3,0.2,0.5,0.5,0.8,0.7c-5.3,0.6-10.3,0.1-14.5-2.7c-3.6,0.2-6.3,0.4-9.7,0.8c-0.2-1.1,1.2-0.9,1.4-1.7   c1.6-0.4,4.4,0.8,5.2-1c-3.9-4.1-6-8.9-7.4-14.3c0.2-0.3,0.5-0.5,0.7-0.8c1.5,1.3,0.6,4.1,2.2,5.4c0.6,3.3,2.7,5.6,5.3,7.6   c-0.1,1.1,0.4,1.6,1.5,1.5c0.1,0.2,0,0.8,0.5,0.3c-7.6-6.8-9.3-18.8-6.6-28.4C579.2,293.2,583.2,290.3,582.9,287.2z" />
	<path fill="#171311" d="M489.3,35.3c0.4-13-7.3-42.1,16-33.9c-0.8,1-1.9,0.5-2.8,0.6c-1.3-1-2.8-1-4.2-0.5   c-0.5,0.5-0.9,0.9-1.3,1.4c-4.8-0.9-8,5.8-7,9.6c-1.3,1.8-0.3,4.4-0.4,6.5c0.1,0,0.3,0,0.4,0c0.1-0.6,0.1-1.2,0.2-1.8l0,0   c1.6-4.9,5.2-7.5,9.3-10.4c-0.5-0.6-0.8-1.1-1.1-1.5c0.8-0.1,1.6-0.2,2.4-0.3c-0.3-0.7-0.5-1.1-0.7-1.5c1.9,0.5,4.9,2,5.9-0.7   c0.4-0.1,0.8-0.1,1.1-0.2l0,0c1,2.3,5-0.2,6.7,1.6c-3.4,0.1-6.6,0-9.6,1.7c0.5,0.6,0.9,1,1.2,1.5V7.3c-6.6-0.7-11.4,6.1-13.6,11.6   c-1.5,3.5,2.4,4.2,3.7,6.7c-1.5-0.4-2.7-1.6-4.2-1.8c-0.4,1.8,0.4,2.8,1.8,3.4c0,0.2,0.1,0.5,0.1,0.7c-3.2-0.3-0.9,4-1.5,6   c0.2,0.3,0.5,0.5,0.7,0.8c0,0.5,0.1,0.9,0.1,1.4c-0.2,0.3-0.5,0.6-0.7,0.8c-0.2-0.2-0.2-0.3-0.2-0.6c-0.2-0.3-0.4-0.6-0.6-0.9   c-1.2,0-0.7,1.5-0.9,2.3C489,37.2,489.6,36.1,489.3,35.3z" />
	<path fill="#171211" d="M513.7,4.2c-1.5-1.1-3.5-0.5-5.3-0.6c0-0.2,0.1-0.4,0.1-0.6c10.9-2.1,25.7-1.3,32.5,8.7   c1.5,3.8,6.6,9.5,3.9,13.3c-2.3-4.9-3.6-10.6-7.8-14.3c-0.4,0.5-0.8,0.9-1.1,1.3c-1.4-2.6-1.4-2.6-3.7-4.1C532,8.4,532,9,531.9,9.6   c-0.2,0-0.5-0.1-0.7-0.1c-2.6-5.1-7.9-6.3-13.2-5.6c0.2,0.4,0.3,0.8,0.3,1.3c-0.5-0.1-1-0.1-1.5-0.2C516,3.9,514.7,4.6,513.7,4.2z" />
	<path fill="#191A1D" d="M432.3,288c0.4,1.2,0.6,2.2,1.5,3.1c-10.5,6.6-9.2,27.1,0.8,34.2c-0.6,0.6-0.4,1.8-1.5,2.1   c-10-4-9.5-16-9.1-24.9c0.2,0,0.5,0,0.6,0c0.1,7.4-0.7,18.2,6.8,21.9c-0.9-1.2-1.7-2.3-2.9-2.8c-2.7-6.6-4.4-13.8-2.3-20.9   c0.2-0.7,0.3-1.5-0.7-1.9c0.4-1.5,1.9-3,0.9-4.6C427.8,291.6,429.5,289.3,432.3,288z" />
	<path fill="#222021" d="M599.6,329.8c-0.3-0.2-0.5-0.5-0.8-0.7c23-3,25.1-35.3,6.1-45.6c0-0.2,0-0.4,0-0.6   C626.3,290.8,623.2,328.1,599.6,329.8z" />
	<path fill="#0F0E0F" d="M433.1,327.4c1.1-0.3,0.9-1.5,1.5-2.1c3.7,2.4,8.5,5.6,12.9,2.8c-2.7-3.1-4.3-6.6-6.8-9.6   c0-0.3,0-0.5,0-0.8c0.5-0.5,1-0.9,1.4-1.4c0.1,0.8-0.1,1.7,0.8,2.2c1.5,4.3,4.1,8,8.4,9.9c-1.5-1.8-2.7-3.2-3.9-4.6   c0-0.3,0-0.6,0-0.8c2.3,2.1,4.7,3.9,6.8,6.2c-0.2,0.1-0.4,0.1-0.4,0.4c0.1-0.1,0.3-0.3,0.4-0.4c0.3,0.2,0.5,0.4,0.8,0.6   c-0.3,0.6-0.5,1.1-0.8,1.7C447.2,328.1,439.5,332.2,433.1,327.4z" />
	<path fill="#333130" d="M546.3,56.8c2.4-6.1,1.9-12.2,0.1-18.2c0.3-0.3,0.6-0.7,0.9-1c4.4,8.5,1.2,39.1-12.4,36.2   c0.9-1.3,2.4-1.5,3.6-1.6C545.8,71.3,543.8,61.8,546.3,56.8z" />
	<path fill="#25211F" d="M547.3,37.5c-0.3,0.3-0.6,0.7-0.9,1c-0.4-1-0.7-2.1-1.2-3.2c-0.7,1.3-1,2.8-2.7,3c-1.7-0.1-1.5-2.4-3-2.7   c-0.3-2.5,3.8-2.7,5.7-2.2c0.3-1.5,0.6-2.9,0.9-4.5c-2.8-1.4-4.8,1.6-7.4,0.1c0-0.4,0.1-0.8,0.1-1.1c2.1-0.3,4.2-0.7,6.4-1.1   c-0.2-0.7-0.3-1.3-0.5-2c0.9-0.3,0.8-1.1,1-1.8C548,27.6,547.2,32.6,547.3,37.5z" />
	<path fill="#2B2621" d="M499.2,78.8c0,1.3-0.3,2.4-1.5,3.1c-2.6-4.8-2.8-10.2-3.7-15.5c0.6,0,0.9,0,1.4-0.1c0-0.7,0-1.3,0-1.9   c0.2,0,0.5,0,0.7,0c0.6,2.8,1.2,5.5,1.7,8.3C496.2,74.5,497.9,77.2,499.2,78.8z" />
	<path fill="#AA9881" d="M495.4,64.4c0,0.6,0,1.2,0,1.9c-0.5,0-0.8,0-1.4,0.1c0.5,3.4,1.1,6.8,1.5,10.2c-1.3-0.6-1.8-1.8-2.1-3.1   c1.1-1.5-0.2-4.3-0.8-6.1c-0.2-1,0.1-2.2-0.8-3.1c0-1.2,0-2.4,0-3.7C492.9,62.2,493.1,65,495.4,64.4z" />
	<path fill="#171311" d="M488.5,42.9c0-0.9-0.5-1.9,0.1-2.8c1.2,3.3,1.6,8.4,1.5,12.1c-0.2,0-0.5,0.1-0.7,0.1l0,0   C488.7,49.2,488.5,46.1,488.5,42.9z" />
	<path fill="#2F2D29" d="M490,46.9c-1.6-2.1,0.2-5-1.5-6.9c0.2-1.6,0.5-3.2,0.7-4.7c0.3,0.8-0.3,1.9,0.7,2.4   C490,40.8,490,43.9,490,46.9z" />
	<path fill="#1C181A" d="M424.6,302.5c-0.2,0-0.5,0-0.6,0c-0.5-3,0.4-6,2.3-8.3C427.3,296.8,424.6,299.6,424.6,302.5z" />
	<path fill="#35373F" d="M423.8,300.8c0.4,4.2-0.1,8.4,0,12.6C422.8,309.6,422.8,304.1,423.8,300.8z" />
	<path fill="#2F2D29" d="M491.7,60.6c0,1.2,0,2.4,0,3.7c-0.3,0.3-0.5,0.6-0.8,0.9c-0.5-1.3,0.6-2.8-0.7-3.8c0-2-0.9-4.4,0.5-6.1   c0.5,1.8-0.6,4,0.8,5.3H491.7z" />
	<path fill="#3B3934" d="M490.7,55.3c-1.2,0.9-0.4,2.3-0.8,3.3c-0.8-1.6-0.7-3.2-0.6-4.9c1.2-0.8,0.4-2.6,0.8-3.9   C491.1,51.6,490.7,53.5,490.7,55.3z" />
	<path fill="#2F2D29" d="M488.5,42.9c0.1,3.2,0.2,6.3,0.8,9.4C487.4,49.6,487.6,46,488.5,42.9z" />
	<path fill="#51524F" d="M492.5,67.4c0.6,1.8,1.8,4.6,0.8,6.1c-0.5-1.8-1.1-3.5-1.6-5.3C491.9,67.9,492.2,67.6,492.5,67.4z" />
	<path fill="#503C36" d="M507,2.7c-0.7,0.1-1.5,0.3-2.2,0.4c0.2,0.2,0.4,0.4,0.6,0.7c-0.4,0.7-1.1,0.6-1.7,0.6   c-0.4-0.7-0.9-1.5-1.3-2.2c1-0.1,2.1,0.4,2.8-0.6C506,1.5,506.7,1.8,507,2.7z" />
	<path fill="#3B3934" d="M492.5,67.4c-0.3,0.3-0.6,0.6-0.8,0.9c-0.2-1-0.5-2-0.7-3c0.3-0.3,0.5-0.6,0.8-0.9   C492.6,65.1,492.3,66.3,492.5,67.4z" />
	<path fill="#3B3934" d="M490.2,61.4c1,0.7,0.5,1.6,0.5,2.5C490.6,63,490.4,62.2,490.2,61.4z" />
	<path fill="#949E9E" d="M516,329.1c0-0.7,0-1.4,0-2.1c0.2,0,0.3,0,0.5,0c0.1,0.7,0.1,1.4,0.2,2.1   C516.6,329.1,516.2,329.2,516,329.1z" />
	<path fill="#503C36" d="M508.4,2.9c0,0.2,0,0.4-0.1,0.6c-0.6-0.1-1.4,0.1-1.4-0.9C507.4,2.7,507.9,2.8,508.4,2.9z" />
	<path fill="#2F2D29" d="M490,52.2c0.1,0.6,0.1,1.2-0.6,1.6c-0.1-0.5-0.1-1-0.2-1.4C489.5,52.3,489.8,52.2,490,52.2z" />
	<path fill="#F6D9C7" d="M529.6,327.6c13.6-2.9,27.1-8.4,41.1-7.7c2.1,15.2,4,30.3,4.9,45.7c-2.4,13-4.7,27.1-3,40.6   c-0.7,14.7,0.2,29.1,3.9,43.5c2.9,28.3-2.8,56.6,0.1,85c-1.2,0.6-2.6,1.3-4,2c-0.2,0.7-0.4,1.3-0.6,2.3c-2,1.6-5.3,2.6-6.5,5.5   c-2.9-1.4-1.6-6.1-1-8.6c-0.1-0.1,0-0.3,0.1-0.4c0-1.4,0-2.8,0-4.1c-0.1-0.1-0.1-0.3,0-0.4c0.1-1.5,0.2-2.5-0.2-4.1   c-0.5,0.4-0.9,0.6-1.2,0.9c-1-1.1-0.7-2.4-0.7-3.8l0,0c0.3,0,0.5,0,0.8,0c1.5-1.4,0.4-4,0.6-5.9c-1.4-1.8,0.3-4.7-1.5-6   c-1.3,0.3-0.3,1.9-1.1,2.3c-0.7-5-2.8-9.5-5-14c-4.2-8.1-3.4-17.8-8-26c-2.4-9,0.8-19,0.4-28.4c2.7,1,3.8,4,6.5,4.7   c1.7,0.3,2.5,1.5,3.4,2.6l0.1-0.1c0,1.4-0.2,2.9,0.3,4.9c2.9-4.9,0-10-1.2-14.9c-17.4-17-9.5-27.6-13.9-47.7c-2-7.9-3.5-16-5.7-24   c-0.4-10.2,2.4-21.2-0.8-31.3c-3.1,3.3-2.1,7.1-4.3,10.7c-2-7.7-3.8-14.7-5.6-21.8C528.2,328.5,528.9,328,529.6,327.6z    M555.6,424.9c-0.7,3.9,2.2,6.6,5.6,7.6c3.9-3.6-3.5-17.5-5.8-21.5c0.2-2.6-3.1-1.4-2.9,0.6c0.1,1.7,0,3.6-0.6,5.1   C553,419.5,553.8,422.4,555.6,424.9z M560.8,465.4c-0.9-2.4-0.1-4.9-1.9-6.9C557.3,460.9,557.9,463.4,560.8,465.4z M567.2,414.4   c0.7,1.8-0.4,3.9,1.2,5.3C568.5,418,570.5,413.8,567.2,414.4z M559.4,473.9c1-1,1.1-2-0.2-3.5C559.3,472,559.4,473,559.4,473.9z    M558.7,489.5c-0.5,0.6-0.9,1-0.4,1.4C559.2,490.7,559.2,490.4,558.7,489.5z M559.1,483.6c0.5-0.5,1-0.9,0.4-1.4   C558.5,482.4,558.6,482.7,559.1,483.6z" />
	<path fill="#F6D9C7" d="M555.5,259.2c-16,7.1-34.8,6-51.7,3c-2.4-5.6-2.4-12.3-5.4-17.6c1.9-13.6,8.9-28.8,2.2-41.7   c12.1,0.8,0.4-8.1-4.9-7.2c-0.5,0.1-1.4-0.7-0.6-1.7c1.5-0.8,4,0.7,4.8-1.8c-0.4-0.7-0.8-1.3-1.1-1.8c0.5-0.5,0.8-0.8,1.2-1.1   c19.8-2.1,40.1-5.2,59.5,1.1c-5.7,23.1,3.6,45.1,5.2,67.9C561.8,258.3,557.7,261.2,555.5,259.2c0.1-0.1,0.3-0.1,0.5-0.2   c-0.1-0.1-0.2-0.2-0.2-0.4C555.7,258.8,555.6,259,555.5,259.2z M513,245.4c0.2,1.5-0.8,3.2,0,4.5C514.1,248.2,514.1,248,513,245.4   c-0.1-1.2,1.9-4.4-0.4-4.3C511.9,242.4,511.6,244.5,513,245.4z M514.4,227.9c0.5-5.6,0.4-7-0.9-9.3c0,5.9-0.6,11.5,0.3,17.3   c0.2,0,0.3,0,0.5,0C514.3,233.3,514.3,230.6,514.4,227.9z M526.6,237.1c1,2.2-0.4,8.3,2.8,8c0.4-2.7,0.3-5.6,1.8-8.1   c-0.3-6.1,0.9-12.1-1.2-18.1c-2.7,5.5-2.5,11-4,16.7C526.2,236.2,526.4,236.7,526.6,237.1z M545.2,253.8c2.4-2.4,2.4-5.1,2.3-7.9   C546.6,248.6,545,251,545.2,253.8z M547.6,235.7c0.5-1.9,0.5-3.8,0.1-6.2C546.4,231.9,546.6,233.7,547.6,235.7z M547.7,215.2   c-0.9,0.5-0.4,2.3,0.6,1.7C549,216.3,548.6,215.2,547.7,215.2z M548.8,221.8c-0.6-0.4-1.1-0.8-1.4-0.1   C547.7,222.6,548,222.5,548.8,221.8z M512.1,212.7c1.2,0.5,1.5,0.6,1.8,0.7C514.6,211.9,513.5,212.1,512.1,212.7z M547.9,227.6   c-0.1-0.7-0.1-1.2-0.1-1.9C546.5,226.9,546.5,226.9,547.9,227.6z M559.1,255.2c-0.3-1-1.7-0.2-0.8,0.7   C558.5,255.7,558.8,255.5,559.1,255.2z M560.8,253.1c-0.1-0.2-0.2-0.3-0.4-0.5c-0.4,0.2-0.1,0.5,0,0.8   C560.5,253.3,560.7,253.2,560.8,253.1z" />
	<path fill="#FF9A77" d="M480.9,324.6c-0.3,0.1-0.5,0-0.6-0.2c0-0.2,0-0.3,0-0.5c0.2-0.3,0.4-0.6,0.7-0.9l0,0   c0.9-0.1,0.9-0.8,0.8-1.5l0,0c0.8-0.2,0.8-0.9,0.7-1.5l0,0c4.7-10.1,4.8-23.4,8-34.9c2.6-1.8,6.3,0.1,9.3-2.3   c-2.8-0.3-5.3,0.1-8-0.4c0-0.7,0.1-1.3,0.1-1.9c4.7,0.9,8.5,2.5,13.3,1.9c-3.9-2.6-8.4-2.7-12.5-3.9c-0.5-1.6-0.3-2.8,1.4-3.4   c2.1,0.5,4.1,1,6.3,1.6c-1.4-2.7-4.6-2.2-6.2-4.2c0-1,0-2.1,0-3.7c1.9,1.1,3.6,1.2,5.5,0.7c-1.5-1.8-3.2-0.8-4.7-1.8   c-0.3-0.8-0.1-1.6,0.2-2.4c23.6,1.8,47,3.7,69.8-4.8c2.4,18.2,3.1,37,5.3,55.5c-14.2,1.9-27.8,6-41.9,8.6c-0.3-0.2-0.5-0.5-0.9-0.8   c0.6-0.9,1.1-1.7,1.5-2.4c-1-12.2,10-14.7,13.7-24.8c-11,4.3-16.9,15-23.7,23.7c-0.7-0.1-1.2-0.2-1.5-0.3c-2.5,2.5-3,5.9-4.6,8.9   c-10.2-1.5-19.6-0.7-29.6-3.7C482.7,324.2,481.8,324.5,480.9,324.6z M544.1,280.4c-1.8,0.1-2.6,1.4-3.3,2.9   c1.4-0.5,2.6-1.4,3.4-2.8c0.7-0.1,1.5-0.1,1.1-1.5C544.8,279.6,544.4,280,544.1,280.4z M507.6,281.9c-0.1-0.4-0.2-0.7-0.3-1.4   C506.7,281.5,507.1,281.8,507.6,281.9c1.1,4.2,4.5,7.2,6,11.3c0.2,0.4,0.5,0.9,1.3,0.4C513.2,289.5,511.3,284.7,507.6,281.9z    M544.7,289.3c-0.2-0.2-0.3-0.3-0.5-0.5c-3.4,2.5-16.6,8.8-12.9,13.5C536.1,298.5,540.1,293.7,544.7,289.3z M550.4,297.1   c-2.5,0-12.2,4.8-9.3,7.7C544,302.5,547.4,300.8,550.4,297.1z M517.2,315c0.1-0.3,0.4-0.6,0-0.8C516.7,314.5,516.8,314.7,517.2,315   z" />
	<path fill="#F6D9C7" d="M478,140.6c-4.3,14.4-3,29.6-6.3,44c-1.7,4.5-4.8,8.7-5.5,13.6c-3.3,30-19.4,58.3-16,88.9   c-5.1,2.9-7.5,7.8-9.7,13c-2.4-23.2-0.8-47.3,1.6-70.5c-0.2-3.4,1.3-6.4,0.7-9.7c-0.3-6.9,4.5-12.8,3.9-19.8   c-0.5-3,3.8-3.7,3.7-6.6c-1.2-12.4-1.8-25.4,3-37.2c1.7,0.7,3.2,1.2,4.5,1.7c2.6-1.1,1.7-3.3,0.7-5c-6.7-15.4-2.4-33.3,6.2-46.8   c8.5-7.3,20.8-9.3,29.5-16.5c2.9,9.4,3.8,19.8,1.1,29.3c-2.2,4-2.7,17.7-9.3,12.4c0.2-0.7,0.3-1.4,0.6-2.6   c-1.8,1.4-3.4,2.1-5.1,3.1C480.5,135,478.3,137.4,478,140.6z M457.3,206.6c-1.1,1.2-0.8,2.5-0.6,3.9c-1.7,1.7-1.7,1.7-1.1,4   c1.2-1.1,1.2-2.5,1.1-4C458.3,210.5,459.2,204.6,457.3,206.6z M457.5,199.6c-1-1.9-0.7-5-2.9-5.9c-0.3,3.5,2.1,6.5,3.5,10   C458.2,201.8,458.4,200.6,457.5,199.6z M475.4,144.1c-2.1,0.7-2.6,1.1-4.1,3.8C473.9,147,474.5,146.4,475.4,144.1z M445.4,283.2   c0.1-2.4,0.1-4-0.5-6.2C443.4,279.4,443.6,280.9,445.4,283.2z M444,272.2c-0.4,1.5-0.6,2.5,0.1,3.5   C445.4,274.4,445.4,274.4,444,272.2z M450.8,179.7c-0.2,2.7-0.2,2.7,1.5,4C452.2,182.1,452,180.7,450.8,179.7z M442.3,264.2   c1.5-1.9,1.5-1.9-0.2-3.4C442.3,262.1,442.3,263.1,442.3,264.2z M444.4,267.3c-1.4,0.9-0.9,1.9,0,3.5   C444.4,269.1,444.4,268.2,444.4,267.3z M453.1,189.9c0.5-0.2,0.8-0.3,1.4-0.6c-0.5-0.6-0.9-1-1.8-2   C452.9,188.7,453,189.2,453.1,189.9z M466,151.5c1.2,0.7,1.4-0.2,1.9-0.9C466.8,150.1,466.4,150.8,466,151.5z M489.9,123.3   c-1.5,0-1.7,0.6-1,1.8C489.3,124.4,489.6,123.9,489.9,123.3z M464.1,154.1c0.2-0.1,0.4-0.2,0.6-0.3c-0.2-0.4-0.5-0.2-0.9-0.2   C464,153.8,464,154,464.1,154.1z" />
	<path fill="#FFF0A7" d="M564.7,177.9c-1.8,3.2-4,6.1-4.7,10.1c-18.7-7.8-38.6-1.9-57.7-3.1c2.1-12.4,8-6.1,12.9-11.8   c4-1.6,9.4-2.4,11.5-6.7c-1-0.8-1.9-1.5-2.9-2.3c-15.5,3.4-35.1,0-41.3-16.8c9.4-10.2,16.6-22.4,17.6-36.5c0.5-0.3,1-0.5,1.4-0.8   c2.5,6.6,0.8,15.8,8.4,18.8c8.1,4.1,16.9,8.4,26.3,7.7c29.7,3,14.7-23.4,7-38.3c9.1,3.1,11.2,15.7,18.3,21.9   c7.1,13.1,22,29.3,13.1,44.7c-10.1,2.2-19.6-0.6-29.4-2.3c-2.2-1.3-2.2-1.3-3.7-1.1c0,5.7,8.1,11.5,13.1,13.3   c3.4,2,8.1,0.5,11.1,2.4l0,0C565.3,177.3,565,177.6,564.7,177.9z" />
	<path fill="#F6D9C7" d="M535.1,89.5c6.2,5.7,7.9,13.9,11.8,21.2c7.4,13.6,8.6,25.8-10.8,24.3c-1.3-1.6-0.8-3.9-3-5.2   c0.1,1.7,0.3,3.1,0.4,4.8c-9.1-0.6-18.2-5.3-26.1-9.6c-2.8-11.4-3-23.2-6-34.5c2.5-4.9,5.8-9.3,8.8-14c2.4,4.2,4.7,7.4,5.9,11.9   c0.2,0,0.3,0,0.5-0.1c0.1-1,0.2-2,0.4-3.3c3.9,2.2,7.8,3.7,12,4.5c0,0.9,0,1.9,0,2.8c0.1,0,0.3,0.1,0.4,0.1c0.4-1,0.8-1.9,1.2-2.9   C532.1,89.7,533.7,88.8,535.1,89.5z M538,105.5c-2,1.4-9.3,3.3-8.7,5.7c4.3-1.8,8.7-4.2,11.7-7.9   C539.2,103.4,538.6,104.4,538,105.5z M518.9,109.3c1.8,1.6,7.4,6.3,8.5,2.1c-2.1-1-4.4-0.7-6.2-2.5c-1.3-0.3-2.2-2-3.6-0.7   C518.1,108.7,518.5,109,518.9,109.3z M520.9,101.2c0.9-3.1-0.6-5.8-2.4-8.7C518.4,95.9,520.8,98.2,520.9,101.2z M511.5,105.5   c1.2,1.4,1.2,1.4,3.1,1.6C513.8,106,512.8,105.7,511.5,105.5z M527.6,96.9c0.9-0.3,1.7-1.7,0.5-1.9C527.3,95.5,527.4,96,527.6,96.9   z M530.5,123.6c0.7,1.7,0.7,1.7,1.8,1.2C531.9,124.5,531.5,124.2,530.5,123.6z M509.1,104.3c-0.4-0.3-0.7-0.5-1-0.7   C507.3,104.1,508.5,105.1,509.1,104.3z" />
	<path fill="#E1C7B6" d="M500.8,203.6c6.6,12.5-0.7,27.7-2.4,41c2.9,5.3,3,12,5.4,17.6c-1.4,0-2.8,0-4,0c-1.7-1.3-3.2-2.5-4.7-3.7   c-0.1,0.1-0.3,0.2-0.4,0.3c0.4,1,0.9,1.9,1.4,3.1c-2.9,0.5-5.2-0.6-7.2-2.6c-5.5,1.1-11.3-1.5-17-1.9c2.5-21.7,19-42.2,8.9-64   c2.6-1.4,5.2-1.7,7.8-1.9c0.5,2.6,3.4,4.7,5.9,5.1c-1.2-2.3-3.5-2.9-5-4.8c0.3-0.5,0.5-0.8,0.7-1.1c3.2-0.7,6.5-1.5,9.8-1.6   c-0.3,0.3-0.7,0.7-1.2,1.1c0.3,0.5,0.7,1.1,1.1,1.8c-0.8,2.6-3.3,1.1-4.8,1.8c-0.8,0.9,0.1,1.8,0.6,1.7c7.2-0.7,17.1,9.8,3.3,6.7   c0.6,1,0.5,2.4,1.6,2.3C500.7,204.3,500.8,203.9,500.8,203.6z M491.6,255.1c0.4,0.6,0.7,1.1,1.3,2   C493.4,255.7,492.8,255.2,491.6,255.1z M486.7,249.2c0.3-1.9,0.3-1.9-0.9-1.8C486.1,248,486.3,248.5,486.7,249.2z M496.6,198.4   c-0.2,1.3-0.2,1.3,1.1,1C497.3,199,497,198.8,496.6,198.4z M489,252.1c0.1-0.1,0.2-0.1,0.2-0.2c-0.1-0.1-0.1-0.1-0.2-0.2   c-0.1,0.1-0.2,0.2-0.2,0.3C488.9,252,489,252.1,489,252.1z" />
	<path fill="#E1C7B6" d="M564.5,535.7c-0.6,2.6-1.9,7.2,1,8.6c-1,2-1.9,4.1-3.3,5.8c-2.4,0-3-1.8-3.6-3.3c3.9-22.6-8-45.6-14.7-66.9   c-3.5-13.1-0.3-26.2,0.9-39.7c-6.2-16.1-4.1-34.5-7.5-51.3c-4.3-20.1-13.1-38.9-16.7-59.2c3-1,5.9-2.1,9.1-2.3   c-0.7,0.5-1.4,0.9-2.1,1.4c1.8,7.1,3.6,14.2,5.6,21.8c2.2-3.5,1.2-7.4,4.3-10.7c3.2,10.1,0.5,21.1,0.8,31.3c2.2,8,3.6,16.1,5.7,24   c4.3,20.2-3.6,30.6,13.9,47.7c-0.5,0-0.9,0.1-1.6,0.2c1,3.5,1.7,6.5,2.4,9.9c-1-1.1-1.7-2.2-3.4-2.6c-2.6-0.7-3.8-3.7-6.5-4.7   c0.4,9.4-2.8,19.6-0.4,28.4c4.6,8.2,3.8,17.9,8,26c2.2,4.5,4.3,9,5,14c0.8-0.4-0.2-2,1.1-2.3c1.7,1.3,0,4.2,1.5,6   c-1.3,1.6-0.5,3.9-0.6,5.9c-0.3,0-0.5,0-0.8,0c-0.2-2.1,0.3-4.2-0.5-6.3c0.1,2-1,4.7,0.5,6.3c0,1.4-0.3,2.8,0.7,3.8   c0,1.2,0.1,2.4,0.1,3.7c0.6,0,1,0,1.3-0.1c0,1.4,0,2.8,0,4.1c-0.3-0.5-0.7-1-1.3-1.8c0,1.1,0,1.8,0,2.5   C563.8,535.9,564.2,535.8,564.5,535.7z" />
	<path fill="#F6D9C7" d="M596.5,280.9c-3,0.6-6,1.2-8.9,1.8c-0.8-2,1.4-4.9,0.8-7.5c1.2-6.2-0.4-14.5-4.2-19.7   c-0.8,0.5-1.4,0.9-2,1.4l0,0c-2.9-18-11.1-35.3-12.3-53.7c-1.3-1-1.6-2.6-1.3-4.3c9.4,1.2-1.9-16-0.2-21.4c3-2.7,5.2-6.4,7.8-9.3   c2.1,2.7,1,8.9,2.2,12.8c3.2,10.4,12.2,18.4,12.1,30.2C591.2,234.5,594.9,257.6,596.5,280.9z M576.7,189.9   c-0.8,0.8-1.2,1.7-1.3,2.8c0.4,0.1,0.6,0.1,1,0.2c0.2-1.4,1.9-3.1,1-4.4C576.7,188.7,576.8,189.3,576.7,189.9z M573.7,200.5   c0.3-0.1,0.5-0.1,0.8-0.2c-0.2-1.9,1.4-3.5,0.5-5.8C573.4,196.3,572.2,198.7,573.7,200.5z" />
	<path fill="#4C505E" d="M454.3,329.1c-0.5-0.5-1-1-1.5-1.6c0.7-1.7,1.8,0.7,2.8-0.5c-21.3-13.3-1.7-53,20.1-34.6   c-1.3-1.4-2-2.9-3.9-2.9c-11.9-10-26.5,5.6-26.7,18.2c-0.5,0-0.9,0-1.4,0c-0.6-8.2,4.2-15.7,10.6-20.5   C492.1,272.4,492.5,344.6,454.3,329.1z M471.8,311.6c2.3-1.8-1.7-4.4-0.2-6.9c0.1-0.3-0.7-1.3-1.1-1.3c-8.4-2.6-13.2,6.3-5.7,11.1   c1.1,0,2.3,0,3.1,0c1.4-0.5,2-2.2,3.6-2C471.7,312.6,471.8,312,471.8,311.6L471.8,311.6z" />
	<path fill="#F7EFD0" d="M591.2,558.2c-3.3,0.5-14.6-2-13.4,3.5c3.8,1.1,8.3-1.2,12,0.9c-1.9,0.5-4.3,0.4-5.4,2.3   c1.8,2.9,5.8,0.5,8.5,0.8c-0.3,0.9-0.6,1.6-0.9,2.5c3.2,1.2,6,0.2,8.5-0.9c4.8,3.3,10.7,6.3,8.8,13.1c-12.3,2.3-24.8,2.9-36.3-2.5   c-1.2-3.1-2.7-7.2-6-9.2c-3,1.4-3,1.4-2.8,4.8c-2.9-0.8-5-2.9-7.8-3.6c1.8-5.6,1.8-11.1,1.1-16.7c0.7-0.8,1.3-0.4,1.9-0.2   c4.3,2.3,6.2-0.9,7.2-4.7c1.5-4.8,7.1-5.9,10.1-9.8c2.3-0.1,4.6-0.5,6.5,0.4c1.2,3.2,2.3,6.1,3.4,9.1c-5.3,0.2-10.7,0.1-15.3,3.3   c1.7,4.4,15.4-3.9,19.1,1.3c-5.4,0-16.5-0.7-18.2,5.3c6.5,0.9,14.6-4.3,20.1-0.7C591.9,557.5,591.5,557.8,591.2,558.2z" />
	<path fill="#E1C7B6" d="M464.9,106.1c-8.6,13.5-13,31.4-6.2,46.8c1,1.7,1.8,4-0.8,5c-1.3-0.5-2.7-1.1-4.5-1.7   c-4.9,11.8-4.2,24.8-3,37.2c0.1,2.9-4.2,3.6-3.7,6.6c0.7,7-4.2,12.9-3.9,19.8c0.6,3.3-0.9,6.4-0.7,9.7c-3.4,28.9-3.2,58.3-1.6,87.1   c-9.2-4.4-3.3-16.4-3.8-23.9c-1.3-17.1-0.5-34.5,0-51.8c-1.8-20.1,8.5-38.2,8.4-57.9c-0.6-10.2,1.5-20.1,1.7-30.3   c0.2-9.8-1.1-19.7,3.9-28.7c0.5,0,1.1,0,1.7,0C455,117.3,459.5,110.9,464.9,106.1z M449.1,148c0.1,2-0.4,3.5,1.2,4.6   C450.9,151,450.5,149.7,449.1,148z" />
	<path fill="#EBDA8F" d="M515.1,173c-4.9,5.6-10.8-0.7-12.9,11.8c0.6,0.2,1.1,0.4,1.7,0.6c-7.9,2-15.7,3.1-23.7,5.1   c-6.7-12.6,0.4-25.7-1.4-39c1.1-1.5,1.9-3.3,3.7-4.2c6.1,16.7,25.8,20.2,41.3,16.8c0.9,0.7,1.9,1.5,2.9,2.3   c-13.4,7.3-28.4,8.8-42.5,2.2c-0.8-0.8-1.7-1.3-3-1.5C489.3,176.6,503.7,175.5,515.1,173z" />
	<path fill="#EF8A6A" d="M501.7,265.1c-2.1,0.1-4.3,0.1-6.6,0.2c-0.3,0.8-0.5,1.6-0.2,2.4c1.5,0.9,3.3,0,4.7,1.8   c-1.9,0.5-3.6,0.4-5.5-0.7c0,1.6,0,2.7,0,3.7c1.7,2,4.8,1.5,6.2,4.2c-2.2-0.6-4.2-1.1-6.3-1.6c-1.7,0.6-1.9,1.8-1.4,3.4   c4.1,1.1,8.6,1.3,12.5,3.9c-4.8,0.6-8.5-0.9-13.3-1.9c0,0.7-0.1,1.3-0.1,1.9c2.7,0.5,5.2,0,8,0.4c-2.9,2.4-6.6,0.5-9.3,2.3   c-2.6,9.2-3.1,19.2-5.8,28c1.4-12.4-5.5-27.2-19-28.8c0.5-8,3.1-16.3,5.3-24.1C481.4,262.2,491.4,263.9,501.7,265.1z M489.6,267.3   c-4.7-2-4.7-2-6.2-1.4C485.5,266.9,487.4,267.5,489.6,267.3z" />
	<path fill="#E1C7B6" d="M528.9,89.5c-4.1-0.8-8.1-2.2-12-4.5c-0.1,1.3-0.2,2.3-0.4,3.3c-0.2,0-0.3,0-0.5,0.1   c-0.3-0.9-0.6-1.8-0.9-2.7c1.2-1.3-0.1-2.2-0.4-4.3c-0.3,1.2-0.4,1.6-0.5,2.1c-1.3-2.2-2.6-4.4-4.1-7c-3,4.8-6.3,9.2-8.8,14   c-0.8-2-1.5-3.6-2.5-5.6c5.4-8.5,5.4-19.3,3.4-28.9c0.7,0,1.4,0,1.9,0c1.7,2.7,1.7,4.7,4.3,6c-0.4-2.6-2.1-4.3-2.7-6.5   c4.8,1.1,4,14.6,9.3,13.6c2.1,2,13.1,6.4,14.3,3c1.3,0.7,2.7,0.6,4.1,0.8c-3.7,5.6,0.4,11.1,1.4,16.6c-1.4-0.7-2.9,0.2-4.5,0.1   c-0.1-0.7-0.1-1.4-0.3-2.7C529.6,88.1,529.3,88.8,528.9,89.5z M513,77.7c-1.2-2.3-0.6-7.6-3.1-6.7C510.6,73,510.7,75.3,513,77.7z" />
	<path fill="#E0C6B5" d="M568.5,198.9c-0.2,1.7,0.1,3.3,1.3,4.3c1.1,18.4,9.4,35.7,12.3,53.7c-11.2-20.6-14.6-44.3-20-66.4   c1-2.9,0.3-6.8,3.1-8.5c2.1-0.8,1.1-3.7,3.1-4.4c-1.7,5.3,9,21.9,0.8,21.4c0.1-0.4,0.1-0.7,0.2-1.2c-0.5-0.1-0.9-0.2-1.6-0.3   C568.1,198.1,568.3,198.5,568.5,198.9z" />
	<path fill="#4C505E" d="M440.7,318.5c2.5,2.9,4.1,6.5,6.8,9.6c-18.9,6.1-28.7-27.8-13.7-36.9c0.6,6.9-1.1,13.2-1.3,20.1   C435.7,313.4,435.3,319.6,440.7,318.5z" />
	<path fill="#EBDA8F" d="M565.6,177.1c-3-1.9-7.7-0.4-11.1-2.4c-5-1.8-13.1-7.5-13.1-13.3c1.5-0.3,1.5-0.3,3.7,1.1   c9.8,1.7,19.3,4.4,29.4,2.3C572.5,169.6,568.5,173,565.6,177.1z" />
	<path fill="#F5D8C6" d="M551.7,100.8c8.4,4.1,18.6,9.1,20.6,19.1c0.5,6.1,4.4,13.1,2.8,18.8C570.7,125.8,550.8,109.5,551.7,100.8z" />
	<path fill="#EE8A6A" d="M522,316.8c4.1-7.8,12.2-16.6,20.6-20.1c-3.7,10.1-14.8,12.6-13.7,24.8c-0.4,0.7-0.9,1.5-1.5,2.4   c0.3,0.3,0.6,0.5,0.9,0.8c-3.5,1.1-6.7,2.6-10.5,2.2c-0.2-0.9-0.3-1.7-0.5-2.8c5.6-3.5,9.5-8.8,11.6-15.1   C526.2,312.3,525,314.5,522,316.8z" />
	<path fill="#E8DAB6" d="M557.7,556.3c0.4,4.5,0,9-1.4,13.5c2.8,0.7,4.9,2.8,7.8,3.6c-0.2-3.4-0.2-3.4,2.8-4.8   c2.2,1.2,3.2,3.6,4.5,5.6c-1.9-1.2-2.8-2.1-5.4-1.5c1.8,1.6,3.1,2.8,4.8,4.3c-6.4,0.2-11.3-2.4-17.6-3.4   C553,567.5,555.5,561.9,557.7,556.3z" />
	<path fill="#4A4E5C" d="M574.6,301.7c-0.8,0.7-0.4,1.5-0.1,2.3c-1.1,0.5-0.6,1.6-0.9,2.4c-0.5-1.3-0.9-2.5-1.4-3.8   c0.4-0.7,0.8-1.3,1.3-2.2c-0.6-0.2-1.1-0.4-1.6-0.5c-0.6-4.8-1-9.5-1.1-14.5c1.1-0.6,2.3-1.2,3.6-1.9c1.9,1,3.8,0.9,6-0.2   c0.4,2.5-1.1,3.9-2,5.9c-0.2,1.9-1.1,3.5-2.3,4.9c-0.3-1.3-0.3-1.3-1.5-1.8c0.1,1,0.7,1.4,1.5,1.8   C575.7,296.7,575.1,299.2,574.6,301.7z" />
	<path fill="#DEC4B3" d="M582.1,256.9c0.6-0.4,1.2-0.8,2-1.4c3.8,5.2,5.4,13.5,4.2,19.7c0.6,2.5-1.5,5.4-0.8,7.5   c-1.4,0.9-2.8,1.8-4.4,2.9c-0.1-0.6-0.1-1-0.2-1.4C587.7,275.6,584.1,265.8,582.1,256.9z" />
	<path fill="#E8D8B4" d="M572.9,577.9c8.5,3.6,17.8,5.2,27,3.8c-8,6.2-17.8,2.6-26.6-0.2C573.1,580.3,573,579.1,572.9,577.9z" />
	<path fill="#211615" d="M465.7,284.3c15.8,2,23.3,22.3,16.7,35.7l0,0c-0.5,1-1,2-1.6,3l0,0c-0.2,0.3-0.4,0.6-0.7,0.9   c-0.5,0-1,0-1.6-0.1c9.3-13.5,4-34.9-12.9-38.8C465.7,284.8,465.7,284.5,465.7,284.3z" />
	<path fill="#131113" d="M454.4,287.3c-12.6,8.4-12.5,24.1-6.9,36.5c-7.3-10.4-6.7-26.1,3.1-34.9c-5.3,1.5-6.2,7.1-9,11.2   C441.4,294.2,448.1,285.6,454.4,287.3z" />
	<path fill="#D9BFAE" d="M478,140.6c0.3-3.2,2.5-5.6,3.7-8.8c1.1-0.6,2.4-1.3,3.7-2.1c0.3,0.5,0.5,1,0.8,1.5   c1.2,0.3,1.7,1.9,3.2,1.6c-3.4,3.7-5.9,9.6-9.8,12c0-4.2,5.6-8.2,4.9-12.1C482.3,135.5,479.9,137.8,478,140.6z" />
	<path fill="#332B25" d="M499.2,52.2c1,0.8,2,1.6,3,2.4c-0.4,0.1-0.7,0.2-1.3,0.3c-0.1,1.5-0.2,2.9-0.2,4.5c-0.4,0-0.7,0.1-1.2,0.1   c-0.1,0.4-0.2,0.8-0.4,1.3c-0.2-0.1-0.4-0.1-0.6-0.1c-0.8-3.4,0.6-6.9-2.4-9.5c0.9,3.8,0.4,7,2.4,9.4c-0.3,2.7,0.6,5.3,1.4,7.9   c0.1-1.1,0.2-2.2,0.3-3.3c1.2,1.8,0.3,3.7,0.6,5.5c-0.6,0.3-1.1,0.5-1.6,0.7c-3-7.3-2.2-16.3-5.2-23.6c0.2-0.3,0.5-0.6,0.7-0.9   C496,48.8,497.3,50.7,499.2,52.2z M499.9,54.6c-0.4-1.7-2.2,0-0.8,0.8c0.1,0.6,0.3,1.1,0.4,1.7c0.1,0,0.3,0,0.4-0.1   C499.9,56.2,499.9,55.4,499.9,54.6z" />
	<path fill="#494D5A" d="M574.6,310.8c1.3,5.5,3.5,10.2,7.4,14.3c-1.1,1.8-4.5,0.9-6.4,0.6c-0.6-5-1.2-10.1-1.9-15.3   C574.2,310.7,574.4,310.7,574.6,310.8z" />
	<path fill="#D4C8A7" d="M591.9,585.5c0.6-0.2,1.2-0.5,1.8-0.7c0.1,0.4,0.1,0.8,0.2,1.4c5-2.7,11.5-4,16.9-3   c-1.6,4.3-14.2,3.5-18.6,3.5C592.2,586.2,592,585.8,591.9,585.5z" />
	<path fill="#35353B" d="M441.4,298.6c0.1,0.4,0.1,0.7,0.3,1.5c0.6-0.8,1-1.4,1.3-2.1c0.3,0.3,0.5,0.5,0.8,0.8   c-0.8,4.4-1.2,8.4-0.9,12.9c-0.4-0.2-0.9-0.3-1.3-0.5c-0.2,1.9-0.2,3.5,0.6,5.1c-0.5,0.5-1,0.9-1.4,1.4   C440.2,311.4,438.5,304.5,441.4,298.6z" />
	<path fill="#424551" d="M578.4,296.4c-2,6.1-1.2,12,0,18.2c-0.3,0.3-0.6,0.5-0.8,0.8l0,0c-1.6-1.3-0.8-4.1-2.2-5.4   c0-2.8,0-5.6,0-8.3c1.4-1.6,0.5-4.5,2.3-6.1C577.9,295.9,578.1,296.2,578.4,296.4z" />
	<path fill="#50493C" d="M551.7,100.8c-1.9,4.7,8,13.9,10.5,18.4c-0.3,0.3-0.6,0.6-0.8,0.9c-4.5-5.5-8.9-11.3-11.8-17.8   C550,101.5,550.7,99.1,551.7,100.8z" />
	<path fill="#CFC488" d="M501.5,110.1c-0.5,0.3-1,0.5-1.4,0.8c0.3-6-2-11.6-2.4-17.4c0.3-0.3,0.5-0.6,0.8-0.9   C500.2,98.3,501.1,104.1,501.5,110.1z" />
	<path fill="#2A211C" d="M572.9,577.9c0.1,1.2,0.2,2.4,0.3,3.7c-1.2-0.9-1.2-2.1-1.6-3.5c-1.8-0.2-3.4,0.3-4.7-0.9   c1.1,0,2.2,0,3.9,0c-1.7-1.5-3-2.7-4.8-4.3C570.2,571.9,571.9,574.7,572.9,577.9z" />
	<path fill="#121214" d="M576.9,296.4c-0.8,1.7-0.4,3.9-1.6,5.3c-0.2,0-0.5,0-0.7,0c0.5-2.5,1.1-5.1,1.5-7.6l0,0   c1.9-1.7,1.8-4.2,3-6.1c-0.1,1.1-0.1,2.2,0.8,3.1c-0.7,1.5-2.3,2.7-2.2,4.6l0,0C577.4,295.9,577.1,296.2,576.9,296.4z" />
	<path fill="#26231C" d="M497.6,93.5c0,0.7,0,1.5,0,2.2c-1.1,0.5-0.4,1.7-0.8,2.4c-0.8-2.8-1.6-5.6-2.4-8.4c1.1-0.4,0.9-1.7,1.8-2.4   C496,89.5,496.9,91.4,497.6,93.5z" />
	<path fill="#D7C0A7" d="M589.7,562.5c-0.9-0.6-2-0.8-3.1-0.8c3.3-0.4,7.2-1.6,10,0.7C594,562.8,591.8,562.6,589.7,562.5z" />
	<path fill="#2D313B" d="M577.6,295.6c0.8-3.2,3-6.2,5.3-8.4c0.3,3.1-3.7,5.9-4.5,9.2C578.1,296.2,577.9,295.9,577.6,295.6z" />
	<path fill="#B9B37C" d="M497.6,93.5c-0.7-2-1.7-3.9-1.4-6.2c0.4,0,0.7,0.1,1.2,0.1c0.3,1.7,0.6,3.4,0.9,5.2   C498.1,92.9,497.9,93.2,497.6,93.5z" />
	<path fill="#8D7D68" d="M497.8,66.6c0.8,1.5,0.2,3.4,1.4,4.7c0.1,1.1,0.2,2.2-0.8,3v0.1c0-0.7,0-1.3-0.8-1.6l0,0   c-0.2-1.3-0.5-2.6-0.7-3.9C498.1,68.4,497.5,67.4,497.8,66.6z" />
	<path fill="#502D2A" d="M505.2,57.7c-0.3-0.5-0.6-1-1-1.7c-1.4-0.1-3.1,0.4-2-1.5c1-0.3,2-0.5,3-0.8c0.2,0.6-0.2,1.4,0.7,1.6l0,0   c0,0.2,0,0.4,0,0.6C505.7,56.6,505.5,57.2,505.2,57.7z" />
	<path fill="#958670" d="M500.2,65.1c-0.1,1.1-0.2,2.2-0.3,3.3c-0.8-2.6-1.7-5.1-1.4-7.9l0,0c0.2,0,0.4,0.1,0.6,0.1   C499.4,62.2,499.8,63.7,500.2,65.1z" />
	<path fill="#8D836D" d="M499.2,78.8c-1.2-1.5-3-4.3-1.4-6l0,0c0,0.6-0.1,1.4,0.8,1.6v-0.1C499.1,75.7,499.4,77.2,499.2,78.8   L499.2,78.8z" />
	<path fill="#443733" d="M491.6,195.4c-1.6-0.7-5-4.8-1.4-4.6c-0.2,0.3-0.4,0.6-0.7,1.1c0.9,0.9,1.9,1.8,2.9,2.7   C492.1,194.8,491.8,195.1,491.6,195.4z" />
	<path fill="#3E3930" d="M596.6,584.7c-0.8,0.4-1.6,0.9-2.6,1.5c-0.1-0.6-0.2-1-0.2-1.4c0.7-0.3,1.4-0.6,2.1-0.9   C596.1,584.1,596.3,584.4,596.6,584.7z" />
	<path fill="#7D6F67" d="M573.6,306.4c0.3-0.8-0.2-1.9,0.9-2.4c0,1.1,0,2.2,0,3.3C573.7,307.4,573.8,306.9,573.6,306.4z" />
	<path fill="#888A78" d="M591.2,558.2c0.3-0.3,0.7-0.7,1-1c0.4,0.4,0.7,0.9,1.1,1.3C592.4,559,591.7,558.8,591.2,558.2z" />
	<path fill="#43332F" d="M483.2,134.3c0.4-0.5,0.8-1,1.3-1.5c0.7,1.1,0.3,1.8-0.4,2.3C483.8,134.9,483.5,134.6,483.2,134.3z" />
	<path fill="#2B2621" d="M499.2,78.8c0-0.7,0.1-1.5,0.1-2.2C500.3,77.8,500.3,77.9,499.2,78.8z" />
	<path fill="#8CB09A" d="M596.8,565.4c0.7-0.6,1.3-0.6,2.3-0.2C598.2,566.1,597.5,565.8,596.8,565.4z" />
	<path fill="#EBDA8F" d="M564.7,177.9c0.3-0.3,0.6-0.5,0.9-0.8C565.3,177.3,565,177.6,564.7,177.9z" />
	<path fill="#F6D9C7" d="M479.5,327.5c10.5,3.5,21.6,2,32.3,4.6c-8,33.2-14.5,67.5-26.7,98.9c2.5,38.5-13.7,74.1-16.1,112.5   c-3.3-0.1-6.5-0.7-9.4,0.8c-0.4-0.1-0.9-0.3-1.6-0.5c1.1-16.5,2.6-33.5,0.6-50.3c-3,4.1-1.9,10.4-3,15.4   c-2.8-29.2-5.2-62.3,8.3-89.2c0.6,7.3,3.7,13.4,7,19.6c2.8-12.3-1.3-26.2-1.9-39c0.6-0.5,1.2-1,2-1.7c-7.2-22.6,0.3-45.6,3-68.7   c1.1-1,2.2-2,3.2-2.9c0.1,0.1,0.2,0.1,0.4,0C478.3,327.1,478.9,327.3,479.5,327.5z M476.2,441.6c-1,0.9-0.5,2.1-0.7,3.2   c-0.2,0.9-1.2,1.7-0.7,3.5c1-2.2,5.6-8.4,3-9.5C476.8,439.4,476.5,440.5,476.2,441.6z M478.6,419.5c-0.5,0.4-1,0.9-1.5,1.4   c0.9,0.6,1.3,0.2,1.6-0.4c4.5,0,7.1-7.6,4.4-10.7c-1.9,1.3-0.8,3.2-1.3,4.7C480.1,415.7,479.5,417.8,478.6,419.5z M482,405.2   c-0.1-2.2-0.3-4.3-0.4-6.4c-4.5-6-8.2,4.1-0.3,7C481.5,405.6,481.8,405.3,482,405.2z M474.7,450.2c-1.8,1.7-1.9,2.5-0.7,5.1   C474.9,453.6,475.1,452,474.7,450.2z M473.2,461.1c1.8-1.9,1.8-1.9,0.5-2.5C473.5,459.1,473.4,459.7,473.2,461.1z M473.2,466.2   c-0.2,0-0.3,0-0.5,0c0,0.5,0.1,1,0.1,1.6c0.2,0,0.3,0,0.5,0C473.3,467.2,473.3,466.7,473.2,466.2z" />
	<path fill="#E1C7B6" d="M458.9,526.8c0.3,5.8-0.8,11.2-0.8,17c0.7,0.2,1.1,0.3,1.6,0.5c-5.7,1.6-3.9,7.4-7.8,11.1   c3.7-31-6.8-62-3.1-93.2c3-22.6,14.9-43.9,13.3-67c-1-20.7-0.8-41.3-0.8-62.1c4.5-0.2,8.8-1.3,12.9-3.2c-2.7,23.1-10.1,46.1-3,68.7   c-0.8,0.7-1.5,1.2-2,1.7c0.7,12.8,4.7,26.7,1.9,39c-3.3-6.1-6.4-12.2-7-19.6c-13.6,26.9-11.1,60-8.3,89.2c1.1-5,0-11.3,3-15.4   c1.1,10.1,1.1,20.1,0.9,30.3c-1.8-0.1-1.7,1.4-2.3,2.6C458,526.6,458.4,526.7,458.9,526.8z M467.6,416.8c0.9-1.7,1.7-3.4,1.1-5.8   C466.9,412.9,467.5,414.9,467.6,416.8z M456.7,533.1c1.7-0.7,1.8-1.7,1-3.4C457.3,531.1,457,532.1,456.7,533.1z M456.7,538.8   c0.2,0,0.5-0.1,0.7-0.1c-0.1-0.8-0.1-1.5-0.2-2.8C456.5,537.3,456.5,537.5,456.7,538.8z" />
	<path fill="#F7EFD0" d="M480.8,583.2c1.6,3,3.2,6,4.8,9c-0.1,0.6,1.1,1.3-0.2,1.7c-9.5-3.8-29.6,4.9-36.4-4.5   c-1.2-4.6-3.2-8.5-6.8-11.7c0.9-6.9,1.9-14,3.6-20.8c1.1-0.4,1.1,0.5,1.5,0.9c1.7,1.8,4.2,1,6.5,1.2c2.4-3,2.7-6.8,4.2-10.1   c3.3-1.8,6.6-3.1,10.5-2.1c3,3.5,1.4,8,4,12c-5.5,0.6-12.3-1.3-16.1,3.7c1,0.5,2,0.9,2.8,1.7c-2.1,0.7-4.5,1.2-2.2,3.8   c0.2,0.7,0.8,0.8,1.4,0.9c0.8,0,1.8-0.3,2.4,0.6c-14.9,6.4,14.1,4.2,17.4,3.5c0,1.1,0,2.2,0,3.5c-5.9,0.3-12.3-1.5-18,0.2   c-1.2,3.8,5.1,2.9,7.4,3.6C467.2,587.1,476.7,583.4,480.8,583.2z" />
	<path fill="#E9DBB6" d="M444.4,580.1c9.3,14.6,0.9,12.6,24.7,13.8c-7.2,3.3-21.4,6-24.4-4.2c-1.5-0.8-3-1.7-4.8-2.7   c-0.3-1.7,0.2-3.7,0.3-5.7c-0.3-0.2-0.5-0.5-0.8-0.7c1.2-6.3,1.5-13.3,5.1-18.8c-0.5,5.3-1.9,10.5-2.3,15.8   c0.6,0.6,1.1,1.2,1.6,1.7c-1.7-0.2-0.1,8.2,1.4,7.6C445.6,584.5,444.7,582.4,444.4,580.1z" />
	<path fill="#090706" d="M477.8,572.8c-33.8,5.1-23-8.8-0.8-2c0.1-1,0.1-1.6,0.2-2.2C478.3,569.8,477.8,571.4,477.8,572.8z" />
	<path fill="#0B0A09" d="M456.7,567.8c-4.5-6.2,16.3-4.9,18.8-2.3c0.1-0.7,0.1-1,0.1-1.4c1.1,1.1,1.5,2.5,1.5,4   c-0.3-0.2-0.6-0.5-1-0.8C469.9,569.1,463,567.5,456.7,567.8z" />
	<path fill="#C8C8A6" d="M485.4,593.9c1.3-0.4,0.1-1.2,0.2-1.7c1.8,0.4,1.5,1.6,1.3,2.8c-4.5,3.4-10.5,1.5-15.7,2   c-0.3-0.3-0.5-0.5-0.8-0.8c4.8-1.5,9.9-0.8,14.8-1C485.3,594.6,485.3,594.3,485.4,593.9z" />
	<path fill="#20201E" d="M474.1,329.9c-4.1,1.9-8.3,3-12.9,3.2c0.5-0.5,0.9-1.1,1.4-1.6c5.4,0.2,9.7-2.2,13.8-5.4   c0.3,0.3,0.6,0.6,0.9,0.9C476.3,327.9,475.2,328.9,474.1,329.9z" />
	<path fill="#C0CDB3" d="M480.8,583.2c-0.5,0-1-0.1-1.5-0.1c-1.8-2-8.6-2.3-11.2-1.8c0,0.6,0,1.2,0,1.8c-1.3-0.4-0.7-1.9-0.9-2.9   c4-0.6,8.1,1,11.7-1.5C479.7,580.2,480.4,581.7,480.8,583.2z" />
	<path fill="#C7CFB5" d="M473.2,564.2c-4.2-0.8-8.5-1-12.8-0.4c0-0.4,0-0.7,0-1.1c4.5-0.6,9.6-1.6,13.8,0.5   C473.9,563.5,473.6,563.9,473.2,564.2z" />
	<path fill="#C8BEA6" d="M469.5,568.1c2.2-0.3,4.5,0.5,6.5-0.7c0.4,0.3,0.7,0.6,1,0.8c-0.1,0.2,0,0.4,0.1,0.5   c-0.1,0.6-0.1,1.2-0.2,2.2c-3-1.8-6.1-1.2-9.2-2.1C468.4,568.6,469,568.3,469.5,568.1z" />
	<path fill="#CEC6AD" d="M448.5,546.9c0.4,2.9,1.6,5.6,0.8,8.4C445.4,555,448,549.2,448.5,546.9z" />
	<path fill="#AD624B" d="M524.4,314.7c1.3-1.7,2.7-3.5,4.5-5.8c-0.4,3.6-2.4,4.5-3.8,7.2C524.9,315.6,525.2,314.9,524.4,314.7z" />
	<path fill="#8C997F" d="M470.4,596.1c0.3,0.3,0.5,0.5,0.8,0.8c-1.6,1-3.2,0.8-5.8,0.3C467.6,596.8,469,596.5,470.4,596.1z" />
	<path fill="#B0BAA2" d="M460.4,562.7c0,0.4,0,0.7,0,1.1c-0.5,0.1-1.1,0.1-1.6,0.2c-0.3-0.2-0.6-0.5-0.9-0.7   C458.7,562.5,459.6,562.6,460.4,562.7z" />
	<path fill="#A7A791" d="M473.2,564.2c0.3-0.3,0.7-0.7,1-1c0.4,0.3,0.9,0.6,1.3,1c0,0.4-0.1,0.7-0.1,1.4   C474.6,565,473.9,564.6,473.2,564.2z" />
	<path fill="#D47B5E" d="M480.9,324.6c0.9-0.1,1.8-0.4,2.4,0.7C482.4,325.3,481.5,325.4,480.9,324.6z" />
	<path fill="#20201E" d="M479.5,327.5c-0.6-0.2-1.2-0.3-1.7-0.5C478.4,326.8,479,326.7,479.5,327.5z" />
	<path fill="#D47B5E" d="M479.7,323.8c0.2,0,0.4,0,0.6,0c0,0.2,0,0.3,0,0.5C480.1,324.2,479.9,324,479.7,323.8z" />
	<path fill="#2D2923" d="M518.2,5.1c0-0.2,0-0.5,0-0.7c1.8,0.5,3.5,1,5.3,1.5c0.1,0.2,0.1,0.5,0,0.7c-0.5,0.1-0.9,0.1-1.4,0.2   c0,0.1,0,0.3,0,0.4c1.7,0,2.9,1.1,4.3,1.9c0.2,1.4,1.2,1.2,2.3,1.5c-0.2,0.5-0.5,1.1-0.7,1.6c-1.9-0.8-1.9-0.8-3.9-0.3   c-5.7-3-13.2-2-18.9-4.4v0.1c2.2-0.3,5.3-1.1,6.9-2.3c1,0,2,0,3-0.1C516.7,6.2,517.1,6.2,518.2,5.1z" />
	<path fill="#CFB9AA" d="M538.9,28c0,0.4-0.1,0.7-0.1,1.1c2.6,1.5,4.6-1.5,7.4-0.1c-0.3,1.5-0.6,3-0.9,4.5c-1.9-0.6-6.1-0.3-5.7,2.2   c-0.3,0.5-0.5,1-0.8,1.5c-0.5-1.1-1.1-2.1-1.6-3.1c0.5-1.3,0.9-2.4,1.3-3.6c-0.6-0.1-0.9-0.2-1.3-0.2   C537.8,29.4,537.7,28.2,538.9,28z" />
	<path fill="#C2B295" d="M492.5,17.1c0.9-1.9,1.7-4,3.7-5.2l0,0c0.3,0.3,0.5,0.5,0.8,0.8h-0.1c-0.1,3,4,2.4,6,3.2   c-1.9,1.3-4.1,0.3-6.2,0.8c3,0.6,8.4,3.1,10.3,0c0.1,0,0.3,0,0.4,0c0.3,0.5,0.6,1,1,1.4c0,0.2,0,0.3-0.1,0.5   c-3.7,0.6-8.1-0.6-11.5,0.9C495.1,19.5,493.9,18.2,492.5,17.1z" />
	<path fill="#D9B5A6" d="M544.7,57.4c-0.2,0.8-0.4,1.7-0.7,2.5c-3,0.3-5.9,0.6-8.9,0.9c-0.6-2.6-3.4-0.8-4.7-2.4   C535.2,58.8,539.9,56.3,544.7,57.4z" />
	<path fill="#201915" d="M494.7,46.8c-0.2,0.3-0.5,0.6-0.7,0.9c-2.6-2.9-1.8-6-0.1-9.1c0.5-0.3,1-0.5,1.5-0.8   c3.5,0.8,7.1,1.2,10.6,0.1c0,3.6-6.1-0.6-6,2.9c-0.5,0-1,0-1.5,0c-0.7-1-2.4-2.8-3.1-0.8C493,41.7,493.8,44.9,494.7,46.8z" />
	<path fill="#231A17" d="M544.7,57.4c-4.9-1.1-9.5,1.4-14.3,1c-0.2-0.4-0.5-0.8-0.9-1.5c5.5,0,10-3.2,15.4-0.9   C544.8,56.5,544.8,57,544.7,57.4L544.7,57.4z" />
	<path fill="#231F1D" d="M524.3,34.8c1.1-0.2,2.2-0.3,3.4-0.5c-0.3-0.5-0.5-0.9-0.9-1.5c0.9,0.2,1.7,0.3,2.5,0.5   c0.3,1.2,0.6,2.4,1.1,4c-0.9-0.6-1.4-0.9-2.2-1.5c0.2,0.8,0.3,1.3,0.4,1.9C526.6,41.2,521.5,38.1,524.3,34.8z" />
	<path fill="#B8AA8E" d="M495.4,37.8c-0.5,0.3-1,0.5-1.5,0.8c-0.3-0.7-0.6-1.4-0.8-2.2c0.4-0.3,0.7-0.7,1.1-1   c4.4-0.1,8.5-1.3,12.7-2.2c0,0.2,0.1,0.5,0,0.7C503.4,36.6,499.2,36.5,495.4,37.8z" />
	<path fill="#CFB9A9" d="M494.7,46.8c0-0.2,0-0.4-0.1-0.6c0.3-0.5,0.5-1.1,0.8-1.6c0.3,0,0.6,0.1,0.9,0.1c0.2,0.6,0,1.3,1.1,1.5   c0.6-0.4,1.2-1,1.9-1.5c0.9,0.5-0.2,1.1,0.1,1.6c-0.3,0.9-0.5,1.8,0.6,2.3c0.6,1.2,1.2,2.4,1.8,3.6c-1.1-0.5-1.3-0.7-2.1-2   c-0.4,0.5-0.7,0.9-1.1,1.4C496.9,50.2,495.9,48.5,494.7,46.8z" />
	<path fill="#584B46" d="M537.2,30.1c0.3,0.1,0.7,0.1,1.3,0.2c-0.5,1.2-0.9,2.4-1.3,3.6c1.2,4.8,8.7,10.4,5.4,15.2   c0-0.7,0-1.4-0.9-1.6c0.2-0.4,0.5-0.8,0.9-1.5C540.2,41.3,534.4,35.6,537.2,30.1z" />
	<path fill="#3C2E2A" d="M520.5,28.8c4.2-1.7,8.7-1,13.1,0.4C530.1,31.1,524.4,29.8,520.5,28.8z" />
	<path fill="#292421" d="M500,40.8c-0.1-2.3,2.7-1.3,4.1-1.4c-0.4,0.3-0.8,0.6-1.2,1c0.9,0.8,1.8,1.7,3,2.7   c-1.9,1.4-4.2-0.8-5.7,0.8c-0.3,0-0.6,0-0.9,0.1c0-0.5,0-1.1,0-1.6c0.8,0,1.7,0,2.9,0C501.2,41.7,500.6,41.3,500,40.8z" />
	<path fill="#C0AA91" d="M512.1,9.1c2.1,0.3,4.1,0.5,6.2,0.8c-0.6,1.2-1.9,0.2-2.7,0.7c0.1,1.2-0.1,2.2-1.1,2.8   c0.3-1.8-1.8-1.5-3-1.6c0.8-0.4,1.6-0.7,2.4-1.1c0-0.1-0.1-0.3-0.1-0.4c-2.1,0-4.2,0-6.3,0C508.7,8.8,510.9,10.5,512.1,9.1z" />
	<path fill="#312721" d="M509.1,27.2c0.3,0.3,0.7,0.6,1.1,1c-0.7,0.8-1.3,1.4-1.8,2c-1.2,0.3-2.5,0.5-3.7,0.8c0.7-0.6,1.4-1.2,2-1.8   c-0.1-0.8-0.2-1.4-0.3-2c-0.4,0-0.7,0-0.9-0.1c0-0.2,0-0.5,0-0.7c0.5,0,0.9-0.1,1.4-0.1c0.6-0.5,1.1-0.9,1.7-1.4   c0.3,0,0.5,0,0.7-0.1c0,0.6,0.1,1.1,0.1,1.7c-0.3,0.2-0.6,0.5-0.8,0.7c0.1,0.2,0.3,0.5,0.4,0.7C508.9,27.6,509,27.4,509.1,27.2   C509.2,27.1,509.1,27.2,509.1,27.2z" />
	<path fill="#514136" d="M495.4,37.8c3.8-1.3,8-1.2,11.5-3.8c0,0.5-0.1,1-0.1,1.5c-2,2.4-5.8,1.8-8.1,3   C497.5,38.2,496.5,38,495.4,37.8z" />
	<path fill="#2C1E1C" d="M535.1,60.8c3-0.3,5.9-0.6,8.9-0.9C541.7,62.4,536.8,63.9,535.1,60.8z" />
	<path fill="#7D7663" d="M504.6,31c2.1-0.8,7-1.1,3,1.5c-0.6-2.1-5.6,2-8.4,1.4c0-0.2,0-0.3,0-0.5c0.3-0.3,0.6-0.6,0.8-0.9   c0.8,0,1.8,0.4,2.3-0.7l0,0C503.1,31.6,504.1,32,504.6,31L504.6,31z" />
	<path fill="#726758" d="M528.1,12.1c0.2-0.5,0.5-1.1,0.7-1.6c1.6-0.7-1.3-1.8-0.7-3.2c0.5,0,1,0,1.4,0c0.5,0.7,1.1,1.4,1.6,2.1   c-0.1,1.1,0.3,1.8,1.5,1.7l0,0c0,0.3,0,0.5,0,0.8l0,0c-1.3,0.3-2.7-0.6-3.8,0.6C528.8,12.6,528.4,12.3,528.1,12.1z" />
	<path fill="#B3A58D" d="M513.6,12c0.9,0.1,0.8,0.8,0.9,1.5c-0.5,0.3-0.9,0.6-1.4,0.9c-0.2-0.2-0.4-0.5-0.6-0.7   c-0.1,0.2-0.2,0.4-0.3,0.6l0,0c-1,0.4-2,0.9-3.3,1.5c-1-0.4-2.5,0.5-3.7-0.6c0.8-0.2,1.5-0.9,2.3-0.7c0.3,0.6,0.7,0.6,0.9,0   c1-0.2,1.7-0.8,2.2-1.6C511.7,12.8,512.7,12.8,513.6,12z" />
	<path fill="#5E5248" d="M505.2,15.1c1.2,1.1,2.7,0.2,3.7,0.6c1.3-0.6,2.3-1,3.3-1.5c0.1,2.4-1.6,3.5-3.8,3.1   c-1.1-1.3-4,0.1-3.8-2.2C504.7,15.1,505,15.1,505.2,15.1z" />
	<path fill="#514943" d="M529.5,72.1c-0.6,2.7-6.9,0.4-8.9-0.2C523,70.1,526.7,72.2,529.5,72.1z" />
	<path fill="#644F42" d="M507.6,21.8c-0.2,0.3-0.4,0.6-0.7,0.9c-1.3,0.3-2.3,0.6-3.6,1.1c0.6,0.4,1,0.7,1.3,1   c-0.8,0.4-2-0.3-2.4,0.9c-0.3-0.2-0.5-0.4-0.8-0.6c0.1-0.7,0.1-1.4-0.8-1.7c0.1-0.2,0.1-0.4,0.1-0.7   C503.1,23.3,505.8,20.8,507.6,21.8z" />
	<path fill="#391F1B" d="M501.6,18.9c2.3-0.1,4.6-0.2,6.8-0.3c0.8,0.5,2,0.6,1.5,1.8c-3,0.5-5.4-1.1-8.4-0.9   C501.5,19.3,501.5,19.1,501.6,18.9z" />
	<path fill="#8C766C" d="M522.9,71.2c-0.8,0.2-1.8-0.3-2.3,0.7c-3-0.5-4.8-2.3-7-4.3c2.6,0,3.8,1.8,5.3,2.7   C520.3,70.7,521.8,70.1,522.9,71.2z" />
	<path fill="#ADA48A" d="M506.2,20.4c1.3,0,2.5,0,3.8,0c-0.8,0.5-1.5,1-2.3,1.4c-1.8-1-4.6,1.6-6.9,0.8c0-0.2,0-0.5,0-0.7   C502.7,21.8,504.5,21.5,506.2,20.4z" />
	<path fill="#A89980" d="M498.6,38.5c2.1-0.9,5.1-0.9,7.4-2.2c0,0.5,0,1.1,0,1.6C503.6,38.8,501.1,38.5,498.6,38.5z" />
	<path fill="#483F3A" d="M501.7,52.1c-0.6-1.2-1.2-2.4-1.8-3.6c0.4-0.4,0.7-0.7,1.1-1.1C502.9,48.7,504.2,50.1,501.7,52.1z" />
	<path fill="#ADA58B" d="M504.7,24.7c-0.4-0.3-0.7-0.6-1.3-1c1.3-0.5,2.3-0.8,3.6-1.1c0.8,0.8,2.4,1.7,0.7,2.8   c-0.1-0.5-0.1-0.9-0.2-1.7c-0.6,0.4-1,0.7-1.3,0.9C505.6,24.7,505.1,24.7,504.7,24.7z" />
	<path fill="#443E3A" d="M520.5,28.8c0.6,0.3,1.2,0.5,1.8,0.8c-2,0.3-3.1,2.3-5.4,3C517.8,30.5,518.5,29,520.5,28.8z" />
	<path fill="#593631" d="M524.3,34.8c-0.3,0.5-0.6,1-0.9,1.5c-0.2,0-0.5,0-0.6-0.1c0-0.2-0.1-0.5,0-0.7c-0.4-0.6-0.4-0.6-0.8,0   c0,0.3,0,0.6,0.1,0.9h0.1c-0.4-0.1-0.7-0.2-1.1-0.2c0.2-0.5,0.2-1,0.2-1.5c0.8-1.1,1.9-1.3,3.1-1.4   C525.3,33.9,522.9,34.2,524.3,34.8z" />
	<path fill="#C4BFA5" d="M532,8.9c0-0.3,0.1-0.7,0.1-1.1c2.3,1.6,2.3,1.6,3.7,4.1c-0.6,0-1.1,0-1.7,0C534.3,10.2,533,9.7,532,8.9z" />
	<path fill="#201716" d="M535.1,49.4c1.9-0.7,2.7-2.1,4.8-0.5c-1.4,0.5-2.3,0.8-3.3,1.2C536.1,49.8,535.6,49.6,535.1,49.4z" />
	<path fill="#5F544E" d="M535.1,49.4c0.5,0.2,1,0.5,1.5,0.7c-1.4,1.4-3.1,0.5-3.9-1C533.6,48.2,534.1,49.3,535.1,49.4z" />
	<path fill="#2E1F1A" d="M503.8,33.2c1-0.7,2.9-2.7,3.8-0.7c-0.2,0.3-0.5,0.5-0.7,0.8C505.8,33.4,504.8,33.3,503.8,33.2L503.8,33.2z   " />
	<path fill="#564841" d="M509.2,26.5c-0.3-1.6-0.1-3.1,2.2-3.1C510.6,24.6,509.9,25.5,509.2,26.5z" />
	<path fill="#231816" d="M541.7,47.6c0.9,0.2,0.9,0.9,0.9,1.6c-0.7,0.2-1.3,0.4-2.2,0.7C540.1,48.6,540.9,48.1,541.7,47.6z" />
	<path fill="#796B5C" d="M532,8.9c1,0.8,2.3,1.4,2.1,3c-0.2,0-0.4,0-0.5,0c-0.3-0.2-0.6-0.5-0.9-0.7l0,0c-0.3-0.5-0.5-1.1-0.8-1.6   C532,9.4,532,9.1,532,8.9z" />
	<path fill="#15100F" d="M501,47.4c-0.4,0.4-0.7,0.7-1.1,1.1c-1.1-0.6-0.8-1.4-0.6-2.3c0.4,0,0.9,0,1.3,0   C500.8,46.6,500.9,47,501,47.4z" />
	<path fill="#4D453F" d="M500.7,46.2c-0.4,0-0.9,0-1.3,0c-0.3-0.5,0.8-1.1-0.1-1.6c0-0.2,0-0.5,0-0.7c0.3,0,0.6,0,0.9-0.1   C501.2,44.4,500.8,45.3,500.7,46.2z" />
	<path fill="#D9B5A6" d="M544.7,57.4c0-0.5,0.1-0.9,0.1-1.4c0.5,0.2,1,0.5,1.4,0.7c-0.2,0.6-0.4,1.2-0.5,1.8   C545.4,58.2,545.1,57.8,544.7,57.4z" />
	<path fill="#524F49" d="M539.4,51.7c0.1,0.7,0.1,1.3,0.2,2.1C538.4,52.6,538.4,52.6,539.4,51.7z" />
	<path fill="#402F2C" d="M521.1,36.2c0.4,0.1,0.7,0.2,1.1,0.2c-0.4,0.4-0.7,0.7-1.4,1.4c-0.1-0.7-0.2-1.1-0.2-1.5h-0.1l0.3-0.2   C520.8,36.1,521.1,36.2,521.1,36.2z" />
	<path fill="#3E2925" d="M521.3,34.7c0,0.3,0,0.6,0,1c-0.3,0.2-0.5,0.5-0.8,0.7h0.1C519,35.9,520.4,34.8,521.3,34.7z" />
	<path fill="#E1C7B6" d="M505.9,55.4c-0.9-0.3-0.5-1.1-0.7-1.6C506.2,54,506.1,54.7,505.9,55.4z" />
	<path fill="#D9B5A6" d="M545.5,59.8c-0.2,0.6-0.4,1.1-0.5,1.7C544.8,60.9,544.8,60.2,545.5,59.8z" />
	<path fill="#C4BFA5" d="M531.9,12c0.3,0,0.5-0.1,0.8-0.1C532.5,12.6,532.3,12.7,531.9,12z" />
	<path fill="#231F1D" d="M522.8,35.5c0,0.3,0,0.5,0,0.7c-0.2,0.1-0.5,0.1-0.7,0.2c0-0.3,0-0.6-0.1-0.9   C522.3,35.5,522.5,35.5,522.8,35.5z" />
	<path fill="#C4BFA5" d="M532.7,11.2c0.3,0.2,0.6,0.5,0.9,0.7c-0.3,0-0.6,0.1-0.9,0.1C532.7,11.7,532.7,11.4,532.7,11.2z" />
	<path fill="#A89980" d="M506,36.2c0.2-0.3,0.5-0.5,0.7-0.8C506.5,35.7,506.3,36,506,36.2z" />
	<path fill="#564841" d="M508.4,27.2c0.3-0.2,0.6-0.5,0.8-0.7c0.1,0.3,0,0.5-0.2,0.7h0.1C508.9,27.2,508.6,27.2,508.4,27.2z" />
	<path fill="#C2B295" d="M508.4,17.3c0.3,0,0.5,0,0.8,0c-0.2,0.3-0.5,0.5-0.7,0.8l-0.2-0.2C508.3,17.7,508.4,17.5,508.4,17.3z" />
	<path fill="#CFB9A9" d="M499.2,52.2c-0.2-0.2-0.5-0.4-0.7-0.7C498.7,51.7,499,51.9,499.2,52.2z" />
	<path fill="#B3A58D" d="M512.1,15c0.1-0.2,0.1-0.5,0-0.7l0,0c0.2,0,0.5,0,0.7-0.1l0.2,0.2C512.8,14.6,512.4,14.8,512.1,15z" />
	<path fill="#4C505E" d="M605,283.5c19.5,10.4,16.4,44.4-7.5,45.6C568.4,325.2,574,275,605,283.5z M608.8,288.8   c-0.7-1.2-1.5-2.2-3.1-2.3c-15.5-11.8-32.9,15.9-23.6,28.9c0,0.6-0.1,1.3,0.7,1.5c0.2,2.5,2.6,5,4.4,5.6c-0.2-0.1-0.4-0.2-0.5-0.3   c-0.6-1.7-1.9-3.5-3.8-5.3c0-0.6,0-1.3-0.8-1.5c-5.3-14.6,6.5-36.2,23.6-28.9C606.4,287.7,607.2,288.7,608.8,288.8   c0.5,1.3,1.6,2,2.8,3C610.9,289.6,610.9,289.6,608.8,288.8z M605,300.9L605,300.9c-7.4-4.1-13,7.4-5.7,11c-0.4,0.4-0.6,0.7-1,1.2   c2-0.2,3.7-0.3,5.7-0.1c-0.5-0.5-0.8-0.8-1.2-1.2c1.1-0.3,2.1-0.6,3.2-0.8c0.4-0.9,0.8-1.8,1.2-2.5c-0.2-2.2-1.7-4-1-6.3   C606.2,301.9,605.4,301.4,605,300.9z" />
	<path fill="#30333D" d="M577.6,315.4c0.3-0.3,0.6-0.5,0.8-0.8c1.1,2.6,2.8,4.9,3.8,7.6l0,0C579.5,320.7,578.3,318.2,577.6,315.4z" />
	<path fill="#30333D" d="M582.9,323c0.5,0.5,1,1,1.5,1.5l0,0C583.4,324.6,582.9,324.1,582.9,323L582.9,323z" />
	<path fill="#222021" d="M595.1,328.4c0.8,0,1.8-0.3,2.4,0.6C596.6,329,595.6,329.4,595.1,328.4z" />
	<path fill="#30333D" d="M584.4,324.5c0.2,0.1,0.4,0.2,0.5,0.3C584.4,325.3,584.6,324.7,584.4,324.5L584.4,324.5z" />
	<path fill="#30333D" d="M582.9,323c-0.3-0.3-0.5-0.5-0.8-0.8l0,0C582.4,322.5,582.7,322.8,582.9,323L582.9,323z" />
	<path fill="#30333D" d="M576.8,314.6c0.2,0.3,0.5,0.5,0.7,0.8C577.3,315.2,577.1,314.9,576.8,314.6z" />
	<path fill="#CCB698" d="M493.3,40.1c-1.6,2.7-1.2,5.2,0.7,7.6c2.4,5.9,2.3,12.7,3.8,18.9c-0.3,0.8,0.3,1.8-0.8,2.3   c-1.3-6.2-2.8-12.3-4.2-18.5c-1.4,4.8,1.2,9.3,1.9,14c-1.6,0.4-2-2.7-3-3.8h-0.2c-0.6-7.8-3.2-18.2-0.6-25.1   C491.9,36.9,492.5,38.5,493.3,40.1z" />
	<path fill="#C9B396" d="M497.7,8.1c-0.7,0.7-1.4,1.6-2.3,1.9c-2.8,0.8-3.2,3.5-4.6,5.7c-0.7,0.3-0.8,0.9-0.7,1.5l0,0   c-0.2,0-0.5,0-0.7,0c0-0.8,0-1.5,0-2.3c1.3-0.9,0.4-2.4,0.1-3.5c0.4-2,0.7-4.1,2-5.7C492.4,8.4,495.9,6.3,497.7,8.1z" />
	<path fill="#E4D5B6" d="M497.7,8.1c-1.8-1.8-5.2,0.3-6.1-2.4c1.2-2.1,2.9-3.3,5.4-2.9c0.6,1.2,2,0.5,3.1,0.7L500,3.4   c0.2,0.4,0.4,0.8,0.7,1.5c-0.8,0.1-1.6,0.2-2.4,0.3c0.3,0.5,0.7,0.9,1.1,1.5C498.8,7.3,498.2,7.7,497.7,8.1z" />
	<path fill="#E7D9BA" d="M512.1,9.1c-1.2,1.5-3.3-0.3-4.6,1.3c-1.2,0-2.5,0.1-3.7,0.1c-0.9-0.9-2.6-0.9-3.1-2.3   c1.3-1.3,3.1-0.6,4.7-0.8C507.1,8.6,509.9,8.1,512.1,9.1z" />
	<path fill="#B6A78B" d="M491.7,30.1c-0.3-1.7-0.4-2.2,1.5-2.2l-0.1-0.1c0.5,0.6,1,1.1,1.7,1.4c0.9-0.4,2.4-1.2,2.9,0.2   c-0.2,0.4-0.3,0.8-0.6,1.5c1.7,0.1,3-0.4,4.3,0.7C498,32.5,494.7,31.6,491.7,30.1z" />
	<path fill="#C8BFA4" d="M512.2,5.1c-1.6,1.2-4.8,2-6.9,2.3c-0.4-0.4-0.7-0.9-1.2-1.5c2.6-1.2,5.2-2.1,8.1-1.6   C512.2,4.6,512.2,4.9,512.2,5.1z" />
	<path fill="#AD9F87" d="M496.2,12c0.8-0.8,1.5-1.7,2.3-2.5c0.2,1.8,1.3,2.4,3,1.7c0.9,0.8,2.5,0.5,3.1,1.6c-1.1-0.1-2.6,0-2.3,1.5   l0,0c-2.2,0.5-3.4-1.1-5.4-1.5h0.1C496.7,12.5,496.4,12.2,496.2,12C496.1,11.9,496.2,12,496.2,12z" />
	<path fill="#CBB89A" d="M493.2,23.3c-2-1-1.9-2.6-1.5-4.4c1.5,0.4,3,0.9,4.4,1.4c0.3,0.7,0.9,0.7,1.6,0.7c-0.5,0.3-1,0.5-1.5,0.8   C494.8,21.5,494.3,23,493.2,23.3z" />
	<path fill="#867663" d="M494.8,29.3c-0.7-0.3-1.2-0.8-1.7-1.4l0.1,0.1c0-0.2-0.1-0.5-0.1-0.7c1.1,0,2-0.5,2.4-1.6   c-0.3-0.5-0.5-0.9-0.8-1.4c0.3-0.9,0.9-1,1.7-0.8c0.6,0.7,1.4,0.9,2.2,1.3c-0.6,0.1-1.3,0.2-2,0.4c1.1,1.2,2.3,1.3,3.6,1.4   C497.8,28.1,497.3,25.9,494.8,29.3z" />
	<path fill="#5C4C40" d="M491.7,30.1c2.6,1.3,5.4,2.1,8.4,1.7c0,0.2,0,0.3-0.1,0.5c-0.3,0.3-0.6,0.6-0.8,0.9c-2.2-0.3-4.3-0.7-6.7-1   c-0.1,0.6-0.2,1.2-0.2,1.8c-0.2,0-0.4,0-0.6-0.1C491.7,32.7,491.7,31.4,491.7,30.1z" />
	<path fill="#AFA085" d="M492.2,34c0.1-0.6,0.2-1.2,0.2-1.8c2.3,0.4,4.5,0.7,6.7,1c0,0.2,0,0.3,0,0.5c-1.6,0.4-4.5-0.6-5,1.6   c-0.4,0.3-0.7,0.7-1.1,1c-0.2-0.1-0.4-0.2-0.6-0.3C492.3,35.5,492.6,34.7,492.2,34z" />
	<path fill="#CCC2A6" d="M498.5,3.5c-0.6,0.1-1.3,0.1-1.6-0.7c1.8-3,5.8-1.7,6.7,1.4c-1.3,0.6-2.4-0.6-3.7-0.7l0.1,0.1   C499.4,2.7,499,2.6,498.5,3.5z" />
	<path fill="#CCBB9C" d="M495.4,25.7c-1.1,2.9-5.1,1.2-4.2-1.8C492.7,24.1,493.9,25.3,495.4,25.7z" />
	<path fill="#ADA48A" d="M496.3,23.4c-0.8-0.1-1.5-0.1-1.7,0.8c-0.5-0.3-0.9-0.6-1.4-1c1.1-0.4,1.6-1.8,3-1.4c1.2,1.1,3,0.6,4.5,0.7   l0,0c0,0.2,0,0.4-0.1,0.7C499.2,23.3,497.8,23.4,496.3,23.4z" />
	<path fill="#4E473D" d="M500.6,8.1c0.5,1.5,2.2,1.4,3.1,2.3c-1.2,2-3.5-1.6-5.3-0.7V9.4C499.2,9,499.9,8.6,500.6,8.1z" />
	<path fill="#4F4439" d="M496.2,20.4c-1.5-0.5-2.9-1.1-4.4-1.4c0.3-0.6,0.5-1.2,0.8-1.8c1.3,1,2.6,2.3,4.4,2.4   C496.7,19.8,496.4,20.1,496.2,20.4z" />
	<path fill="#3E392F" d="M492.5,36.1c0.2,0.1,0.4,0.2,0.6,0.3c0.3,0.7,0.6,1.4,0.8,2.2c-0.2,0.5-0.4,1-0.6,1.5c-0.5-1-1-2.1-1.5-3.1   C492,36.7,492.3,36.4,492.5,36.1z" />
	<path fill="#95A48C" d="M512.2,5.1c0-0.3,0-0.5-0.1-0.8c1-0.2,2-0.2,3,0c0.2,0.2,0.2,0.5,0.1,0.7l0,0   C514.2,5.1,513.2,5.1,512.2,5.1z" />
	<path fill="#AA967D" d="M490,12.5c0.1,0.9,0.5,1.8-0.5,2.5C489.3,14.1,489.3,13.2,490,12.5z" />
	<path fill="#AA967D" d="M489.4,17.2c0.2,0,0.5,0,0.7,0c-0.1,0.6-0.1,1.2-0.2,1.8c-0.1,0-0.3,0-0.4,0   C489.5,18.4,489.5,17.8,489.4,17.2z" />
	<path fill="#B6B69C" d="M505.4,3.7c-0.2-0.2-0.4-0.4-0.6-0.7c0.3-0.1,0.7-0.1,1-0.2C505.7,3.1,505.5,3.4,505.4,3.7z" />
	<path fill="#AA967D" d="M490.1,17.3c-0.1-0.7,0-1.2,0.7-1.5C490.6,16.3,490.3,16.8,490.1,17.3z" />
	<path fill="#3E392F" d="M491.5,36.4c-0.2-0.3-0.4-0.6-0.6-0.9C491.1,35.8,491.3,36.1,491.5,36.4z" />
	<path fill="#3E392F" d="M492.2,34c0.2,0.2,0.2,0.5,0.1,0.7c-0.2-0.3-0.5-0.5-0.7-0.8C491.9,34,492,34,492.2,34z" />
	<path fill="#B0AC93" d="M529.6,7.4c-0.5,0-1,0-1.4,0l0,0c-1-1.2-3.4-3.6-4.6-1.5c-1.8-0.5-3.5-1-5.3-1.5c-0.1-0.2-0.2-0.4-0.3-0.6   C522,3.6,527.1,3.4,529.6,7.4z" />
	<path fill="#9FAE95" d="M518.2,5.1c-1.1,1-1.5,1-3-0.1l0,0C516.2,4.9,517.2,4.9,518.2,5.1z" />
	<path fill="#C0B89D" d="M531.9,9.6c0.3,0.5,0.5,1.1,0.8,1.6c-1.2,0.1-1.6-0.6-1.5-1.7C531.4,9.5,531.7,9.6,531.9,9.6z" />
	<path fill="#2D2923" d="M516.7,4.9c-0.5,0.1-1,0.1-1.5,0.2c0.1-0.3,0.1-0.5-0.1-0.7C515.7,4.3,516.3,4.3,516.7,4.9z" />
	<path fill="#35373F" d="M424.6,302.5c0.3-1.3,0.5-2.5,0.8-3.8c1,0.4,0.9,1.3,0.7,1.9c-2.1,7.1-0.4,14.3,2.3,20.9l0,0   C423.6,316.7,424.9,308.8,424.6,302.5z" />
	<path fill="#35373F" d="M428.5,321.5c1.3,0.6,2,1.6,2.9,2.8C429.2,323.7,429.2,323.7,428.5,321.5L428.5,321.5z" />
	<path fill="#434752" d="M447.5,322.9c-2-4.9-4.4-9.7-3.8-15.1c0.5,0,0.9,0,1.4,0c0.2,2.8-0.4,6.1,1.6,8.4c0.1,2.1,1.6,6.7,3.9,6.1   c1.7,1.6,3.4,3.2,5,4.8c-1,1.2-2.1-1.2-2.8,0.5C451.1,326,449.3,324.5,447.5,322.9z" />
	<path fill="#2C303A" d="M443.7,316.9c1.9,4.6,4.2,7.7,7.6,11.5c-4.4-1.9-7-5.6-8.4-9.9C443.7,318.2,443.7,317.5,443.7,316.9z" />
	<path fill="#464955" d="M443.7,316.9c0,0.6,0,1.3-0.8,1.6c-1.4-2-1.6-4.7-1.4-7.3c0.5,0.2,0.9,0.3,1.3,0.5   C443.1,313.4,443.4,315.1,443.7,316.9z" />
	<path fill="#010101" d="M454.3,329.1c-0.1,0.1-0.3,0.3-0.4,0.4C453.9,329.2,454.1,329.2,454.3,329.1L454.3,329.1z" />
	<path fill="#484035" d="M494.7,64.4c-0.7-4.7-3.3-9.2-1.9-14c1.1,4.7,2.2,9.4,3.3,14C495.6,64.4,495.1,64.5,494.7,64.4z" />
	<path fill="#3B3934" d="M491,58.1c0.2,0.8,0.4,1.7,0.5,2.5C490.5,60,490.9,59,491,58.1z" />
	<path fill="#E0C6B5" d="M555.4,411c2.3,4,9.7,17.9,5.8,21.5c-2.6-0.9-4.9-2.3-5.6-5.3C561,423.8,551.2,415.8,555.4,411z" />
	<path fill="#151211" d="M554.1,415c1.9,3.4,3.1,7.3,2.9,9.9c-0.5,0-1,0-1.4,0c-1.5-2.9-4.4-6.6-3.1-9.8   C553,415,553.6,415,554.1,415z" />
	<path fill="#221F1D" d="M558.6,453.1c-0.6-3.4-1.4-6.4-2.4-9.9c0.7-0.1,1.2-0.1,1.6-0.2C558.5,446.1,560.9,450.4,558.6,453.1z" />
	<path fill="#211D1B" d="M560.8,465.4c-2.8-2-3.4-4.4-1.9-6.9C560.7,460.5,559.9,462.9,560.8,465.4z" />
	<path fill="#2A2623" d="M554.1,415c-0.5,0-1.1,0-1.6,0c-0.8-2.5,1.3-8.8,2.9-4.1C554.5,412.2,554,413.5,554.1,415z" />
	<path fill="#8B7F76" d="M558.7,453c1.4-0.9,0.4-3.1,0.7-4.5c1.3,2.9,1.2,6.5-0.4,9.4C558.4,455.9,558.7,454.4,558.7,453z" />
	<path fill="#1C1817" d="M567.2,414.4c3.3-0.6,1.3,3.6,1.2,5.3C566.8,418.4,568,416.2,567.2,414.4z" />
	<path fill="#3C3936" d="M564.5,531.2c-0.4,0-0.7,0-1.3,0.1c0-1.3-0.1-2.5-0.1-3.7c0.3-0.3,0.7-0.5,1.2-0.9c0.1,0.7,0.2,1.2,0.3,1.6   c-0.8,0.8-0.7,1.6-0.1,2.5C564.5,531,564.4,531.1,564.5,531.2z" />
	<path fill="#463F3C" d="M563.2,523.8c0.2-2-0.7-4.3,0.6-5.9C563.5,519.8,564.6,522.3,563.2,523.8z" />
	<path fill="#1D1D1B" d="M559.4,473.9c0-0.9-0.1-1.8-0.2-3.5C560.5,471.9,560.4,472.9,559.4,473.9z" />
	<path fill="#7A756C" d="M555.6,424.9c0.5,0,1,0,1.4,0c0.1,1.2-0.3,2-1.5,2.3C555.5,426.4,555.6,425.7,555.6,424.9z" />
	<path fill="#C7B3A6" d="M558.7,489.5c0.6,0.9,0.6,1.2-0.4,1.4C557.7,490.4,558.2,490.1,558.7,489.5z" />
	<path fill="#322825" d="M564.5,535.7c-0.4,0.1-0.7,0.2-1.3,0.3c0-0.7,0-1.4,0-2.5c0.6,0.9,1,1.3,1.3,1.8   C564.5,535.5,564.5,535.6,564.5,535.7z" />
	<path fill="#B8A196" d="M559.1,483.6c-0.5-0.9-0.6-1.3,0.4-1.4C560.1,482.7,559.6,483.1,559.1,483.6z" />
	<path fill="#E1C7B6" d="M564.6,530.8c-0.6-0.9-0.7-1.7,0.1-2.5C564.6,529.2,564.6,530,564.6,530.8z" />
	<path fill="#E0C5B4" d="M526,235.7c1.5-5.7,1.4-11.2,4-16.7c1.9,5.3,0.9,10.4,1.2,15.7c-0.9-0.3-1.8-0.7-2.5-0.9   C527.7,234.5,526.8,235.1,526,235.7z" />
	<path fill="#DAC4B4" d="M531.2,237.1c-1.5,2.5-1.4,5.4-1.8,8.1c-3.2,0.3-1.8-5.8-2.8-8C528.1,237.8,529.7,237.2,531.2,237.1z" />
	<path fill="#130D0C" d="M531.2,237.1c-1.5,0.1-3.1,0.7-4.6,0c-0.2-0.5-0.4-0.9-0.6-1.4c0.8-0.6,1.7-1.2,2.7-1.9   c0.8,0.3,1.6,0.6,2.5,0.9C531.2,235.5,531.2,236.3,531.2,237.1z" />
	<path fill="#796F67" d="M545.2,253.8c-0.2-2.9,1.4-5.3,2.3-7.9C547.6,248.7,547.6,251.4,545.2,253.8z" />
	<path fill="#5D5650" d="M513.8,233.2c-0.8-2.5-1.3-5.1-0.2-7.7c0.4,0.8-0.2,1.9,0.8,2.4c0,1.8,0,3.5,0,5.3   C514.1,233.2,514,233.2,513.8,233.2z" />
	<path fill="#332D2A" d="M514.4,227.9c-1-0.5-0.4-1.6-0.8-2.4c0.2-2.3-0.3-4.6-0.1-6.9C514.7,220.9,514.8,222.3,514.4,227.9z" />
	<path fill="#3B3431" d="M547.6,235.7c-1-1.9-1.3-3.8,0.1-6.2C548.1,231.9,548.1,233.8,547.6,235.7z" />
	<path fill="#7D6F66" d="M513,245.4c-1.4-0.9-1-3-0.4-4.3C514.8,241,512.9,244.2,513,245.4L513,245.4z" />
	<path fill="#695E57" d="M512.9,245.4c1.2,2.5,1.2,2.7,0.1,4.4C512.2,248.6,513.2,246.9,512.9,245.4L512.9,245.4z" />
	<path fill="#BFA89C" d="M547.7,215.2c1-0.1,1.3,1.1,0.6,1.7C547.3,217.6,546.8,215.8,547.7,215.2z" />
	<path fill="#A78C81" d="M500.8,203.6c-0.1,0.3-0.1,0.7-0.2,1c-1.1,0.1-1-1.3-1.6-2.3c0.8,0.3,1.2,0.4,1.6,0.6   C500.7,203.1,500.7,203.3,500.8,203.6z" />
	<path fill="#C3B1A3" d="M548.8,221.8c-0.8,0.7-1.1,0.8-1.4-0.1C547.7,221,548.2,221.4,548.8,221.8z" />
	<path fill="#C8AB9D" d="M512.1,212.7c1.4-0.6,2.5-0.7,1.8,0.7C513.6,213.3,513.3,213.2,512.1,212.7z" />
	<path fill="#9C8E84" d="M513.8,233.2c0.2,0,0.4,0,0.5,0c0,0.9,0,1.9,0,2.8c-0.2,0-0.3,0-0.5,0C513.8,235.1,513.8,234.1,513.8,233.2   z" />
	<path fill="#BEAB9F" d="M547.9,227.6c-1.4-0.8-1.4-0.8-0.1-1.9C547.8,226.5,547.9,227,547.9,227.6z" />
	<path fill="#796059" d="M559.1,255.2c-0.3,0.2-0.5,0.4-0.8,0.7C557.3,255,558.7,254.2,559.1,255.2z" />
	<path fill="#AD998D" d="M560.8,253.1c-0.1,0.1-0.3,0.2-0.4,0.4c-0.1-0.3-0.4-0.6,0-0.8C560.5,252.7,560.7,252.9,560.8,253.1z" />
	<path d="M555.5,259.2c0.1-0.2,0.2-0.4,0.2-0.6c0.1,0.1,0.2,0.2,0.2,0.4C555.8,259,555.7,259,555.5,259.2   C555.5,259.1,555.5,259.2,555.5,259.2z" />
	<path fill="#F08B6B" d="M544.7,289.3c-4.6,4.4-8.6,9.2-13.5,13c-3.6-4.7,9.6-11,12.9-13.5C544.4,289,544.5,289.2,544.7,289.3z" />
	<path fill="#F08B6B" d="M550.4,297.1c-3,3.7-6.4,5.4-9.3,7.7C538.2,302,547.9,297.1,550.4,297.1z" />
	<path fill="#9D604C" d="M511.4,286.5c1.5,2.2,2.7,4.6,3.6,7.1c-2.1,0.6-3-4.8-4.4-6.3C510.9,287,511.1,286.8,511.4,286.5z" />
	<path fill="#C4765C" d="M511.4,286.5c-0.3,0.3-0.5,0.5-0.8,0.8c-1.2-1.6-2.8-3.1-3-5.3l0,0C509.6,282.9,510.2,284.9,511.4,286.5z" />
	<path fill="#BD745A" d="M544.2,280.5c-0.8,1.4-1.9,2.3-3.4,2.8c0.7-1.5,1.5-2.8,3.3-2.9L544.2,280.5z" />
	<path fill="#BD745A" d="M544.1,280.4c0.4-0.4,0.7-0.8,1.2-1.3c0.4,1.4-0.4,1.3-1.1,1.5C544.2,280.5,544.1,280.4,544.1,280.4z" />
	<path fill="#D47B5E" d="M483.3,317.7c0.2-0.5,0.4-1.1,0.6-1.6C484.1,316.8,484.1,317.4,483.3,317.7z" />
	<path fill="#D47B5E" d="M482.5,320c0.2-0.5,0.5-1.1,0.7-1.6C483.3,319,483.3,319.7,482.5,320z" />
	<path fill="#D47B5E" d="M481.7,321.5c0.2-0.5,0.5-1,0.7-1.5C482.5,320.6,482.5,321.3,481.7,321.5z" />
	<path fill="#D47B5E" d="M480.9,323c0.3-0.5,0.6-1,0.8-1.5C481.8,322.2,481.8,322.8,480.9,323z" />
	<path fill="#C4765C" d="M507.6,282c-0.5-0.2-0.8-0.5-0.3-1.4C507.4,281.2,507.5,281.5,507.6,282L507.6,282z" />
	<path fill="#A56650" d="M517.2,315c-0.3-0.3-0.4-0.6,0-0.8C517.6,314.4,517.3,314.7,517.2,315z" />
	<path fill="#D47B5E" d="M480.3,323.8c0.2-0.3,0.4-0.6,0.6-0.9C480.7,323.2,480.5,323.5,480.3,323.8z" />
	<path fill="#463C38" d="M456.8,201.2c-0.6-2.5-2.8-5-2.2-7.5c2.2,0.8,1.9,4,2.9,5.9C457.3,200.1,457.1,200.7,456.8,201.2z" />
	<path fill="#322C29" d="M475.4,144.1c-0.9,2.3-1.5,2.9-4.1,3.8C472.8,145.2,473.3,144.8,475.4,144.1z" />
	<path fill="#241F1E" d="M445.4,283.2c-1.7-2.2-1.9-3.8-0.5-6.2C445.4,279.2,445.5,280.7,445.4,283.2z" />
	<path fill="#51443F" d="M444,272.2c1.4,2.1,1.5,2.1,0.1,3.5C443.4,274.7,443.6,273.7,444,272.2z" />
	<path fill="#95857B" d="M456.6,210.4c0.2,1.5,0.2,3-1.1,4C454.9,212.1,454.9,212.1,456.6,210.4L456.6,210.4z" />
	<path fill="#B29D92" d="M450.8,179.7c1.2,1,1.4,2.4,1.5,4C450.7,182.4,450.6,182.4,450.8,179.7z" />
	<path fill="#A39085" d="M442.3,264.2c0-1-0.1-2.1-0.2-3.4C443.9,262.3,443.9,262.3,442.3,264.2z" />
	<path fill="#746D65" d="M458.1,208.1c0,1.1-0.4,1.9-1.5,2.3l0.1,0.1c-0.1-1.4-0.4-2.7,0.6-3.9C457.5,207.1,457.2,207.9,458.1,208.1   z" />
	<path fill="#636059" d="M456.8,201.2c0.2-0.5,0.5-1.1,0.7-1.6c0.9,1,0.6,2.2,0.5,4.2C457.5,202.5,457.1,201.9,456.8,201.2z" />
	<path fill="#55534D" d="M444.4,267.3c0,0.9,0,1.9,0,3.5C443.4,269.1,443,268.2,444.4,267.3z" />
	<path fill="#B09C90" d="M453.1,189.9c-0.1-0.7-0.2-1.2-0.4-2.6c0.9,1.1,1.3,1.5,1.8,2C453.9,189.6,453.6,189.7,453.1,189.9z" />
	<path fill="#8C7970" d="M466,151.5c0.4-0.8,0.8-1.4,1.9-0.9C467.4,151.3,467.2,152.2,466,151.5z" />
	<path fill="#776B63" d="M489.9,123.3c-0.3,0.5-0.6,1.1-1,1.8C488.2,124,488.5,123.4,489.9,123.3z" />
	<path fill="#917E74" d="M486.2,131.3c-0.3-0.5-0.5-1-0.8-1.5c0.3-0.2,0.7-0.5,1.4-1.1C486.6,130,486.4,130.6,486.2,131.3z" />
	<path fill="#291A19" d="M458.1,208.1c-0.9-0.2-0.6-1-0.8-1.6C458.4,205.1,458.5,207.4,458.1,208.1z" />
	<path fill="#B38980" d="M464.1,154.1c-0.1-0.1-0.2-0.3-0.3-0.4c0.3-0.1,0.7-0.2,0.9,0.2C464.5,153.9,464.3,154,464.1,154.1z" />
	<path fill="#2B2016" d="M515.1,173c-3.5,0.5-7,1-10.5,1.5c0.2-0.4,0.5-0.9,0.7-1.3c7.6-0.4,14.4-4.2,21.3-6.9   C524.5,170.6,519.2,171.4,515.1,173z" />
	<path fill="#2E2522" d="M519.9,108.4c2.5,1.4,4.8,2.3,7.5,3.1c-1.1,4.2-6.7-0.5-8.5-2.1C519.3,109,519.6,108.7,519.9,108.4z" />
	<path fill="#3D2F2C" d="M535.7,107.7c-2,1.4-4,2.9-6.4,3.5c-0.8-2.2,4.2-3,5.5-4.3C535.1,107.2,535.4,107.4,535.7,107.7z" />
	<path fill="#DCC3B4" d="M520.9,101.2c0-2.9-2.4-5.2-2.4-8.7C520.3,95.3,521.7,98,520.9,101.2z" />
	<path fill="#615751" d="M528.9,89.5c0.4-0.7,0.7-1.5,1.4-2.7c0.5,2.5,0,3.6-0.9,5.6c-0.1,0-0.3-0.1-0.4-0.1   C528.9,91.4,528.9,90.5,528.9,89.5z" />
	<path fill="#AF9C90" d="M538,105.5c0.5-1.1,1.1-2.1,3-2.2c-1,1.4-1.7,2.4-3.1,2.9C538,105.9,538,105.7,538,105.5z" />
	<path fill="#815F58" d="M511.5,105.5c1.3,0.2,2.3,0.5,3.1,1.6C512.7,107,512.7,107,511.5,105.5z" />
	<path fill="#7B625B" d="M538,105.5c0,0.2-0.1,0.5-0.1,0.7c-0.7,0.5-1.5,1-2.2,1.6c-0.3-0.3-0.6-0.6-0.9-0.8   C535.9,106.4,537,105.9,538,105.5z" />
	<path fill="#60554F" d="M514.3,83.5c0.1-0.4,0.2-0.9,0.5-2.1c0.4,2.1,1.7,3.1,0.4,4.3C514.9,85,514.6,84.2,514.3,83.5z" />
	<path fill="#C1AB9E" d="M527.6,96.9c-0.4-0.8,0.1-2.4,1-1.6C528.8,96.1,528.4,96.5,527.6,96.9z" />
	<path fill="#86665F" d="M519.9,108.4c-0.3,0.3-0.6,0.6-1,0.9c-0.4-0.3-0.8-0.7-1.3-1C518.6,107.4,519.3,107.7,519.9,108.4z" />
	<path fill="#100A09" d="M530.5,123.6c1,0.6,1.4,0.9,1.8,1.2C531.2,125.3,531.2,125.3,530.5,123.6z" />
	<path fill="#988077" d="M509.1,104.3c-0.6,0.8-1.7-0.1-1-0.7C508.4,103.7,508.6,103.9,509.1,104.3z" />
	<path fill="#95887C" d="M491.6,195.4c0.3-0.3,0.5-0.5,0.8-0.8c1,0.3,1.7,0.9,2.2,2.1C493.2,196.6,492.3,196.1,491.6,195.4z" />
	<path fill="#60504A" d="M491.6,255.1c1.2,0,1.8,0.6,1.3,2C492.3,256.3,492,255.7,491.6,255.1z" />
	<path fill="#B09C8F" d="M486.7,249.2c-0.4-0.8-0.6-1.3-0.9-1.8C487.1,247.3,487.1,247.3,486.7,249.2z" />
	<path fill="#79665E" d="M496.6,198.4c0.4,0.3,0.7,0.6,1.1,1C496.4,199.7,496.4,199.7,496.6,198.4z" />
	<path fill="#5D4B45" d="M489,252.1c-0.1,0-0.2-0.1-0.2-0.1c0.1-0.1,0.2-0.2,0.2-0.3c0.1,0.1,0.1,0.1,0.2,0.2   C489.2,252,489.1,252,489,252.1z" />
	<path fill="#F6D9C7" d="M562.4,523.8c-1.5-1.5-0.4-4.3-0.5-6.3C562.7,519.6,562.1,521.7,562.4,523.8L562.4,523.8z" />
	<path fill="#564B45" d="M573.7,200.5c-1.4-1.8-0.2-4.2,1.3-6c0.8,2.3-0.8,4-0.5,5.8C574.2,200.4,574,200.5,573.7,200.5z" />
	<path fill="#928075" d="M577.5,189.9c-0.4,1-0.7,2-1.1,3c-0.4-0.1-0.6-0.1-1-0.2c0.1-1.1,0.5-2,1.3-2.8   C577,189.9,577.3,189.9,577.5,189.9z" />
	<path fill="#54342F" d="M568.5,198.9c-0.2-0.4-0.4-0.8-0.8-1.4c0.6,0.1,1.1,0.2,1.6,0.3c-0.1,0.5-0.1,0.9-0.2,1.2   C568.9,198.9,568.7,198.9,568.5,198.9z" />
	<path fill="#493834" d="M577.5,189.9c-0.3,0-0.5,0-0.8,0c0.1-0.6,0-1.2,0.7-1.4C577.8,189,577.9,189.4,577.5,189.9z" />
	<path fill="#131214" d="M446.7,316.2c-7.5-13.8,10.5-38.6,25.1-26.6l0,0C455.3,281.1,443.4,301.6,446.7,316.2z" />
	<path fill="#090708" d="M471.9,311.6c-0.1,0.4-0.2,1-0.2,1c-1.6-0.2-2.1,1.5-3.6,2c-0.9,0-2,0-3.1,0c-7.6-4.9-2.7-13.7,5.7-11.1   c0.3,0,1.2,1,1.1,1.3C470.2,307.2,474.1,309.8,471.9,311.6c-0.2-0.1-0.4-0.2-0.5-0.3C471.5,311.4,471.7,311.5,471.9,311.6z    M464.2,305.5c-2.3,3.2-2.2,4.4,0.6,7.5c1.2,0,2.4,0,3.5,0c3.4-2.7,2.4-8.4-2.2-8.9C465.6,304.5,464.9,305,464.2,305.5L464.2,305.5   z" />
	<path fill="#232327" d="M446.7,316.2c0-0.3,0-0.5,0-0.8c1.5,2.1,1.9,4.9,3.8,6.9C448.3,322.9,446.9,318.3,446.7,316.2z" />
	<path fill="#252125" d="M471.8,289.6c1.9,0,2.6,1.5,3.9,2.9C473.5,291.7,473.5,291.7,471.8,289.6L471.8,289.6z" />
	<path fill="#2A2522" d="M449.1,148c1.4,1.6,1.8,2.9,1.2,4.6C448.6,151.6,449.1,150.1,449.1,148z" />
	<path fill="#1B170F" d="M505.3,173.2c-0.2,0.4-0.5,0.9-0.7,1.3c-7.4,2.6-14.8-2.1-21.4-5.1c0.3-0.3,0.6-0.6,0.9-0.8   C490.4,171.6,498.4,172.4,505.3,173.2z" />
	<path fill="#4A3E29" d="M484.1,168.6c-0.3,0.3-0.6,0.6-0.9,0.8c-1.6-0.7-1.6-0.7-2.1-2.3C482.4,167.3,483.3,167.8,484.1,168.6z" />
	<path fill="#4A3E29" d="M487.9,170.1c-0.7,0.1-1.3,0.1-1.6-0.6C486.8,169.7,487.4,169.9,487.9,170.1z" />
	<path fill="#4A3E29" d="M484.7,170.2c0.3,0.2,0.5,0.3,0.8,0.5C485.3,170.5,485,170.4,484.7,170.2z" />
	<path fill="#4A3E29" d="M483.2,169.4c0.3,0.2,0.5,0.3,0.8,0.5C483.8,169.7,483.5,169.6,483.2,169.4z" />
	<path fill="#4A3E29" d="M485.7,169.3c-0.3-0.2-0.6-0.3-0.9-0.5C485.1,168.9,485.4,169.1,485.7,169.3z" />
	<path fill="#8E4F3D" d="M489.6,267.3c-2.2,0.3-4.1-0.4-6.2-1.4C484.9,265.3,484.9,265.3,489.6,267.3z" />
	<path fill="#36302C" d="M505.2,57.7c0.2-0.5,0.5-1.1,0.7-1.6c1.1,1.8,2.1,3.6,2.6,5.9C506.4,60.6,506.4,60.6,505.2,57.7z" />
	<path fill="#5F524C" d="M513,77.7c-2.4-2.4-2.4-4.7-3.1-6.7C512.4,70.1,511.9,75.3,513,77.7z" />
	<path fill="#121214" d="M576.1,294.1c-0.8-0.5-1.4-0.8-1.5-1.8C575.7,292.8,575.7,292.8,576.1,294.1L576.1,294.1z" />
	<path fill="#2F333D" d="M443.7,298.7c-0.3-0.3-0.5-0.5-0.8-0.8c1.6-3.7,3.5-7.8,7.7-9C447.5,292,445.3,295.1,443.7,298.7z" />
	<path fill="#8F826D" d="M498.5,60.6c-2.1-2.4-1.6-5.6-2.4-9.4C499.1,53.7,497.6,57.2,498.5,60.6L498.5,60.6z" />
	<path fill="#D0B99D" d="M499.9,54.6c0,0.8,0,1.6,0,2.4c-0.1,0-0.3,0-0.4,0.1c-0.1-0.6-0.3-1.1-0.4-1.7   C499.4,55.1,499.6,54.9,499.9,54.6z" />
	<path fill="#8F826D" d="M499.9,54.6c-0.3,0.3-0.6,0.5-0.8,0.8C497.7,54.6,499.5,52.9,499.9,54.6z" />
	<path fill="#2D313B" d="M576.9,296.4c0.2-0.3,0.5-0.5,0.7-0.8C577.4,295.9,577.1,296.2,576.9,296.4z" />
	<path fill="#342A23" d="M498.5,74.3c-0.9-0.2-0.8-0.9-0.8-1.6C498.5,73,498.5,73.7,498.5,74.3z" />
	<path fill="#E2C8B7" d="M482,405.2c-0.2,0.2-0.5,0.4-0.7,0.6c-7.9-2.9-4.1-13,0.3-7C481.7,400.9,481.9,403,482,405.2z" />
	<path fill="#1C1716" d="M478.6,419.5c0.9-1.7,1.5-3.8,3.2-5c0.5-1.5-0.5-3.4,1.3-4.7c2.7,3,0.1,10.6-4.4,10.7   C478.7,420.1,478.6,419.8,478.6,419.5z" />
	<path fill="#2B2321" d="M476.2,441.6c0.3-1.1,0.6-2.2,1.6-2.8c2.3,0.7-0.5,3.7-0.7,5.1C475.8,443.6,476.6,442.3,476.2,441.6z" />
	<path fill="#3E3531" d="M474.7,450.2c0.4,1.8,0.2,3.4-0.7,5.1C472.8,452.7,472.9,451.9,474.7,450.2z" />
	<path fill="#97887E" d="M476.2,441.6c0.4,0.8-0.4,2,0.9,2.3c-0.5,1.4-1.3,2.6-2.3,4.3c-0.5-1.8,0.5-2.6,0.7-3.5   C475.7,443.7,475.2,442.5,476.2,441.6z" />
	<path fill="#BEAA9C" d="M458.9,526.8c-0.4-0.1-0.9-0.2-1.6-0.4c0.6-1.2,0.6-2.7,2.3-2.6c0,0.2,0,0.4,0,0.7   C458.7,525,459,526,458.9,526.8z" />
	<path fill="#B7A196" d="M473.2,461.1c0.3-1.4,0.4-1.9,0.5-2.5C474.9,459.2,474.9,459.2,473.2,461.1z" />
	<path fill="#614F4A" d="M478.6,419.5c0,0.3,0.1,0.7,0.1,1c-0.3,0.6-0.7,1-1.6,0.4C477.6,420.4,478.1,419.9,478.6,419.5z" />
	<path fill="#7B6F6B" d="M473.2,466.2c0,0.5,0.1,1,0.1,1.6c-0.2,0-0.3,0-0.5,0c0-0.5-0.1-1-0.1-1.6   C472.9,466.2,473.1,466.2,473.2,466.2z" />
	<path fill="#E1C7B6" d="M458.9,526.1c0-0.6,0-1.3,0.7-1.6C459.7,525.2,459.7,525.8,458.9,526.1z" />
	<path fill="#191513" d="M467.6,416.8c0-1.9-0.7-3.9,1.1-5.8C469.3,413.4,468.5,415.1,467.6,416.8z" />
	<path fill="#7D6F67" d="M456.7,533.1c0.3-1,0.6-2,1-3.4C458.5,531.4,458.4,532.5,456.7,533.1z" />
	<path fill="#3E3733" d="M456.7,538.8c-0.2-1.3-0.2-1.4,0.5-2.9c0.1,1.3,0.2,2.1,0.2,2.8C457.2,538.7,456.9,538.7,456.7,538.8z" />
	<path fill="#1C1714" d="M468.1,583.1c0-0.6,0-1.2,0-1.8c2.7-0.5,9.4-0.3,11.2,1.8C475.6,584.6,471.8,585.1,468.1,583.1z" />
	<path fill="#D1E8CA" d="M469.5,568.1c-2.8,1.3-6.1,0.8-9.1,1.2c-0.9-1.5-3.2,0.3-3.8-1.5C460.9,567.9,465.2,568,469.5,568.1z" />
	<path fill="#26231E" d="M444.4,580.1c0.4,2.3,1.2,4.4,0.7,6.8c-1.5,0.6-3.1-7.8-1.4-7.6C443.9,579.6,444.2,579.9,444.4,580.1z" />
	<path fill="#B1A38B" d="M523.5,5.9c1.2-2.1,3.6,0.3,4.6,1.5l0,0c-0.6,1.3,2.3,2.4,0.7,3.2c-0.2-0.1-0.4-0.1-0.7-0.2   c-0.4-0.7-0.8-1.3-1.7-1.3c-0.5-0.3-0.9-0.6-1.4-0.9c0.2-0.2,0.8,0,0.3-0.5c-0.1,0.2-0.2,0.4-0.3,0.5c-0.5-0.3-1-0.6-1.5-0.8   C523.5,6.9,523.7,6.4,523.5,5.9z" />
	<path fill="#726758" d="M526.5,9.1c0.9-0.1,1.3,0.6,1.7,1.3C527.1,10.6,526.7,10,526.5,9.1z" />
	<path fill="#B0AC93" d="M523.6,6.6c0,0.2,0,0.5,0,0.7c-0.5-0.1-0.9-0.1-1.4-0.2c0-0.1,0-0.3,0-0.4C522.6,6.7,523.1,6.7,523.6,6.6z" />
	<path fill="#4E4036" d="M496.9,12.7c2,0.5,3.3,2,5.4,1.5c0.4,1,1.5,0.5,2.2,0.9c0,0.2,0,0.4,0,0.7   C502.2,15.6,497.1,15.9,496.9,12.7z" />
	<path fill="#595648" d="M505.9,17.9c-3.2,0.7-6.2-0.3-9.3-1.2c1.6-0.3,3.2-0.2,4.8-0.1C502.6,18.2,504.8,16.3,505.9,17.9z" />
	<path fill="#897965" d="M505.9,17.9c-1.1-1.6-3.3,0.3-4.4-1.3c0.9-0.6,2-0.8,3.1-0.8c0.5,1.1,1.6,0.6,2.4,0.9   C506.8,17.2,506.7,17.9,505.9,17.9z" />
	<path fill="#703C32" d="M501.6,18.9c0,0.2,0,0.4,0,0.5c-1.5,0-3.1,0.1-4.6,0.1C498.2,18.4,500,19,501.6,18.9z" />
	<path fill="#897965" d="M508.4,17.3c0,0.2-0.1,0.4-0.1,0.6c-0.3-0.4-0.6-0.8-0.9-1.2C507.7,16.9,508.1,17.1,508.4,17.3z" />
	<path fill="#412E27" d="M496.1,11.9c0.3,0.3,0.5,0.5,0.8,0.8C496.7,12.5,496.4,12.2,496.1,11.9z" />
	<path fill="#8F8275" d="M494,44.6c-0.2-1.7-0.2-3.4,1.5-4.5l0,0c0.2,1.6-0.7,3-0.5,4.6C494.6,44.6,494.3,44.6,494,44.6z" />
	<path fill="#4D453F" d="M500,40.8c0.6,0.4,1.2,0.8,2.2,1.5c-1.2,0-2,0-2.9,0c-0.5-0.5-1.1-0.9-1.6-1.4   C498.5,40.8,499.2,40.8,500,40.8z" />
	<path fill="#B2AB99" d="M498.5,40.8c-1.1,0.3-2.1-0.5-3.1-0.8l0,0C496.1,38,497.8,39.9,498.5,40.8z" />
	<path fill="#4F4942" d="M494,44.6c0.5,0,0.9,0,1.4,0c-0.2,0.5-0.5,1.1-0.7,1.6C493.9,45.8,493.9,45.2,494,44.6z" />
	<path fill="#2E1F1A" d="M494.1,35.4c1.6-2.8,6.8-1,9.6-2.2l0,0c0,0.2,0,0.5,0,0.7C500.6,34.9,497.4,35.1,494.1,35.4z" />
	<path fill="#514136" d="M503.8,33.9c0-0.2,0-0.5,0-0.7c0.6,0,1.1,0.1,1.7,0.1C504.9,33.5,504.3,33.7,503.8,33.9z" />
	<path fill="#201A18" d="M495.3,44.6c-0.1,0-0.3,0-0.4,0c-0.2-1.6,0.7-3,0.5-4.6c1.5,0.5,2.8,1.1,3.9,2.3c0,0.8,0,1.5-0.1,2.3   c-0.7,0.5-1.3,1-1.9,1.5c-1-0.2-0.9-0.9-1.1-1.5h-0.1c1-0.3,1.5-0.9,1.4-2c-0.3-0.1-0.6-0.2-1.1-0.3   C496.2,43.2,495.9,44,495.3,44.6z" />
	<path fill="#4F4942" d="M495.4,44.5c0.2-0.2,0.4-0.5,0.6-0.7c0.1,0.3,0.2,0.6,0.3,0.9h0.1C496,44.6,495.7,44.6,495.4,44.5z" />
	<path fill="#92816F" d="M501.4,10.5c0.8,0.2,2,1.1,2.3-0.1c3.3-0.2,6.7-0.1,10-0.1c0,0.1,0.1,0.3,0.1,0.4c-3,2.5-5.3-0.6-8.7,0.9   c1.1,0.2,1.9,0.4,2.7,0.5c0,0.1-0.1,0.3-0.1,0.4c-1.1,0.1-2.2,0.1-3.3,0.1c-0.6-1.1-2.2-0.7-3.1-1.6   C501.5,11,501.5,10.7,501.4,10.5z" />
	<path fill="#545549" d="M510.6,12c1-0.2,2,0,3,0c-0.8,0.8-1.9,0.8-3,0.7C510.7,12.5,510.7,12.2,510.6,12z" />
	<path fill="#574D41" d="M501.4,31.6c-1.2-1.1-2.6-0.6-4.3-0.7c0.2-0.6,0.4-1,0.6-1.5c0.2,0,0.5,0,0.6,0c0.6,0.7,1.1,0.7,1.7-0.1   c0.9-0.2,1.9-0.3,2.2-1.5c1.1-0.5,2.4,0.5,3.1-0.8c0.2,0,0.5,0,0.9,0.1c0.1,0.6,0.2,1.2,0.3,2c-0.6,0.5-1.3,1.2-2,1.8l0,0   c-0.8,0.1-1.8-0.3-2.3,0.8l0,0C502,31.7,501.7,31.7,501.4,31.6z" />
	<path fill="#644F42" d="M506.1,24.7c0.4-0.3,0.7-0.5,1.3-0.9c0.1,0.8,0.2,1.2,0.2,1.7c-0.3,0.3-0.6,0.5-0.9,0.8   c-0.2-0.2-0.4-0.5-0.7-0.7C506,25.3,506,25,506.1,24.7z" />
	<path fill="#574D41" d="M505.3,26.4c0,0.2,0,0.5,0,0.7l0,0c-0.6,0-1.2-0.1-1.5-0.8l0,0c0.5-0.2,1.1-0.5,1.6-0.7   C505.3,25.9,505.3,26.2,505.3,26.4z" />
	<path fill="#9F9F85" d="M505.3,26.4c0-0.2,0-0.5,0.1-0.7c0.2-0.1,0.4-0.1,0.6-0.2c0.2,0.2,0.4,0.5,0.7,0.7   C506.2,26.3,505.8,26.4,505.3,26.4z" />
	<path fill="#F6D9C7" d="M508.4,27.2c0.3,0,0.5,0,0.8-0.1c-0.1,0.3-0.2,0.5-0.4,0.8C508.7,27.7,508.5,27.4,508.4,27.2z" />
	<path fill="#331B17" d="M501.4,31.6c0.3,0,0.6,0.1,0.9,0.1c-0.5,1.1-1.5,0.7-2.3,0.7c0-0.2,0-0.3,0.1-0.5   C500.5,31.8,501,31.7,501.4,31.6z" />
	<path fill="#312721" d="M502.3,31.7c0.5-1,1.5-0.7,2.3-0.8C504.1,32,503.1,31.6,502.3,31.7z" />
	<path fill="#28211C" d="M510.6,12c0.1,2.6-3.4,2.7-5.3,2.1c0.2-0.5,0.5-0.9,0.7-1.4c0.6,0,1.2-0.1,1.8-0.1c0-0.1,0-0.3,0.1-0.4   c-0.8-0.2-1.6-0.3-2.7-0.5C507.4,10.4,508.9,11.7,510.6,12z" />
	<path fill="#C6CAAC" d="M505.4,14.1c0.5,0.1,1,0.2,1.4,0.3c-0.7,0.3-1.4,0.7-2.3,0.8c-0.7-0.4-1.8,0.1-2.2-0.9l0,0   C503.3,14.2,504.3,14.2,505.4,14.1z" />
	<path fill="#5E5248" d="M507.5,14.4c0.3,0,0.6,0,0.9,0C508.1,14.9,507.8,15,507.5,14.4z" />
	<path fill="#502D26" d="M512.8,14.2c-0.2,0.1-0.5,0.1-0.7,0.1c0.1-0.2,0.2-0.4,0.3-0.6C512.6,13.8,512.7,14,512.8,14.2z" />
	<path fill="#C3B597" d="M500.1,26.5c-1.2-0.1-2.5-0.2-3.6-1.4c1.8-0.5,3.2-0.3,5-0.1c0.3,0.2,0.6,0.4,0.8,0.6c0,0.2,0,0.5-0.1,0.7   C501.5,26.5,500.8,26.7,500.1,26.5z" />
	<path fill="#422A23" d="M501.5,25c-1.8-0.2-3.8-0.1-5.2-1.6C498,23.7,501.9,22.1,501.5,25z" />
	<path fill="#190E0C" d="M506,25.5c-0.8,0.2-1.5,0.6-2.2,0.9c0-0.5,0.1-1,0.1-1.5c0.7-0.2,1.4-0.2,2.2-0.2C506,25,506,25.3,506,25.5   z" />
	<path fill="#574D41" d="M503.9,24.9c0,0.5-0.1,1-0.1,1.5l0,0c-0.3,0-0.5,0-0.8,0c-0.2-0.3-0.5-0.5-0.7-0.8   C502.6,24.8,503.2,24.9,503.9,24.9z" />
	<path fill="#808770" d="M496.9,19.5c2.5-0.1,5.1-0.1,7.6,0c-0.5,0.9-1.5,1.1-2.4,1.3c-1.5-1-3-1-4.4,0.2l0,0c-0.6,0-1.2,0-1.6-0.7   C496.4,20.1,496.7,19.8,496.9,19.5z" />
	<path fill="#574237" d="M502.1,20.9c1-0.2,1.9-0.4,2.4-1.3c0.5,0.3,1.1,0.6,1.6,0.8c-2,1.2-4.8,2.2-6.9,0.8   C500.2,21.1,501.2,21,502.1,20.9z" />
	<path fill="#808770" d="M499.3,21.2c0.5,0.2,1,0.5,1.5,0.7c0,0.2-0.1,0.4,0,0.7c-1.5-0.1-3.3,0.4-4.5-0.7c0.5-0.3,1-0.5,1.5-0.8   l0,0C498.2,21.1,498.7,21.2,499.3,21.2z" />
	<path fill="#F6D9C7" d="M520.5,36.3c0.3-0.2,0.5-0.5,0.8-0.7c-0.1,0.2-0.1,0.4-0.2,0.5h-0.3L520.5,36.3z" />
	<path fill="#F6D9C7" d="M522.8,35.5c-0.3,0-0.5,0-0.8,0C522.4,34.9,522.4,34.9,522.8,35.5z" />
	<path fill="#0A0808" d="M605,300.9c0.4,0.4,1.3,1,1.2,1.2c-0.6,2.2,0.8,4,1,6.3c-0.4,0.7-0.8,1.6-1.2,2.5c-1.1,0.3-2.1,0.5-3.2,0.8   c0.4,0.4,0.7,0.7,1.2,1.2c-2-0.2-3.7,0-5.7,0.1c0.4-0.5,0.6-0.7,1-1.2C591.9,308.3,597.5,296.8,605,300.9c-0.2,0.1-0.4,0.1-0.4,0.4   C604.7,301.2,604.8,301.1,605,300.9z M599.7,302.5c-2.6,0.3-2.5,3.7-2.1,5.7C604.4,317.7,608.5,298.9,599.7,302.5L599.7,302.5z    M606.3,308.2l-0.2-0.1v0.2L606.3,308.2z" />
	<path fill="#151416" d="M605.7,286.5c-17.1-7.2-28.8,14.3-23.6,28.9l0,0C572.8,302.4,590.2,274.7,605.7,286.5L605.7,286.5z" />
	<path fill="#27272C" d="M586.7,322.2c-2-1.3-3.5-2.8-3.8-5.3l0,0C584.8,318.8,586.1,320.6,586.7,322.2L586.7,322.2z" />
	<path fill="#2A292E" d="M608.8,288.8c2.1,0.8,2.1,0.8,2.8,3C610.4,290.8,609.3,290.1,608.8,288.8L608.8,288.8z" />
	<path fill="#151416" d="M605.7,286.5c1.6,0,2.4,1,3.1,2.3l-0.1,0.1C607.2,288.7,606.4,287.7,605.7,286.5L605.7,286.5z" />
	<path fill="#1D1B1E" d="M582.1,315.4c0.8,0.2,0.8,0.9,0.8,1.5l0,0C582.1,316.7,582.1,316.1,582.1,315.4L582.1,315.4z" />
	<path fill="#27272C" d="M586.7,322.3c0.2,0.1,0.4,0.2,0.5,0.3C586.7,323,586.8,322.4,586.7,322.3L586.7,322.3z" />
	<path fill="#171311" d="M498.5,3.5c0.5-0.9,0.9-0.9,1.5,0.1C499.5,3.6,499,3.6,498.5,3.5z" />
	<path fill="#C9BB9C" d="M502.2,28c-0.6,1.9-2.9,1.5-4.5,1.5c-0.4-1.3-1.5-0.5-2.3-0.8c0.3-0.3,0.6-0.6,0.8-0.9   C498.2,27.9,500.2,27.9,502.2,28z" />
	<path fill="#171311" d="M495.4,28.7c0.2,0.1,0.4,0.1,0.6,0.1c-0.4,0.2-0.8,0.4-1.2,0.5C495,29.1,495.2,28.9,495.4,28.7z" />
	<path fill="#171311" d="M493.1,27.9c0.3,0.3,0.5,0.6,0.8,0.9C493.6,28.5,493.4,28.2,493.1,27.9z" />
	<path fill="#D0C6AA" d="M501.4,10.5c0.1,0.2,0.1,0.4,0.1,0.6c-1.7,0.6-2.4,0.3-3-1.4C499.6,9.3,500.5,10.1,501.4,10.5z" />
	<path fill="#4E4036" d="M505.4,14.1c-1,0.1-2.1,0.1-3.1,0.2c0-0.3,0-0.5,0-0.8c0.8-0.1,1.8,0.3,2.3-0.8c0.5,0,1,0,1.5,0   C505.8,13.2,505.6,13.6,505.4,14.1z" />
	<path fill="#92816F" d="M504.6,12.7c-0.5,1.1-1.5,0.6-2.3,0.8C502.8,12.4,503.7,12.8,504.6,12.7z" />
	<path fill="#3C4438" d="M502.2,28c-2,0-4-0.1-5.9-0.1c0.8-1.6,2.8,0.1,3.8-1.3c1.1,0,2.1,0.8,3.1,1.3   C502.8,27.8,502.5,27.9,502.2,28z" />
	<path fill="#2D2923" d="M528.2,7.4c-0.2-0.2-0.5-0.4-0.7-0.6C527.7,7,527.9,7.2,528.2,7.4z" />
	<path fill="#464A56" d="M464.2,305.5c0.7-0.5,1.4-1,1.9-1.4c4.6,0.5,5.7,6.2,2.2,8.9c-1.1,0-2.3,0-3.5,0   C462,309.9,461.9,308.7,464.2,305.5c0,0.6,0,1.2,0,2.2c1.1-0.8,1.9-1.3,3.2-2.2C465.9,305.5,465.1,305.5,464.2,305.5z" />
	<path fill="#4C505E" d="M471.9,311.6c-0.2-0.1-0.3-0.2-0.5-0.3C471.5,311.4,471.7,311.5,471.9,311.6   C471.8,311.6,471.9,311.6,471.9,311.6z" />
	<path fill="#B0AC93" d="M525.1,8.2c0.1-0.2,0.2-0.4,0.3-0.5C525.9,8.2,525.2,8,525.1,8.2L525.1,8.2z" />
	<path fill="#4F4942" d="M495.3,42.3c-0.2,0.3-0.3,0.6-0.5,0.9C495,42.9,495.1,42.6,495.3,42.3z" />
	<path fill="#B6A597" d="M496.2,44.7c-0.1-0.3-0.2-0.6-0.3-0.9c0.2-0.5,0.4-0.9,0.6-1.4c0.4,0.1,0.8,0.2,1.1,0.3   C497.7,43.8,497.2,44.4,496.2,44.7z" />
	<path fill="#1D1915" d="M503.1,27.8c-0.8-0.4-1.5-0.8-2.3-1.2c1-0.3,2-0.3,3-0.2c0.2,0.7,0.8,0.8,1.5,0.8   C504.8,28.2,503.9,27.8,503.1,27.8z" />
	<path fill="#B6A78B" d="M498.3,29.5c0.6,0,1.1,0,1.7-0.1C499.5,30.2,498.9,30.2,498.3,29.5z" />
	<path fill="#644F42" d="M503,26.4c-0.3,0-0.6,0-0.9-0.1c0.1-0.2,0.1-0.4,0.1-0.7C502.5,25.9,502.8,26.1,503,26.4z" />
	<path fill="#D2BB9C" d="M499.3,21.2c-0.5,0-1.1-0.1-1.6-0.1c1.4-1.2,2.9-1.1,4.4-0.2C501.2,21,500.2,21.1,499.3,21.2z" />
	<path fill="#484D5A" d="M599.6,302.5c8.9-3.6,4.8,15.2-2.1,5.7C597.2,306.1,597.1,302.7,599.6,302.5c-0.2,0.6-0.4,1.2-0.7,1.8   c1.4-0.1,2.6-0.2,3.7-0.3c0.1,0.4,0.1,0.7,0.3,1.4c0.5-0.9,0.2-1.2-0.3-1.4C602.2,302.5,600.9,302.4,599.6,302.5z" />
	<polygon fill="#4C505E" points="606.3,308.2 606.1,308.3 606.1,308.1  " />
	<path fill="#4C505E" d="M605,300.9c-0.1,0.1-0.3,0.3-0.4,0.4C604.6,301.1,604.8,301,605,300.9C605,301,605,300.9,605,300.9z" />
	<path fill="#171619" d="M464.2,305.5c0.9,0,1.7,0,3.2,0c-1.3,0.9-2,1.4-3.2,2.2C464.2,306.7,464.2,306.1,464.2,305.5L464.2,305.5z" />
	<path fill="#1E1C1F" d="M602.7,304c-1.2,0.1-2.3,0.2-3.7,0.3c0.2-0.6,0.5-1.2,0.7-1.8l0,0C600.9,302.4,602.2,302.5,602.7,304   L602.7,304z" />
	<path fill="#1E1C1F" d="M602.7,304c0.5,0.2,0.8,0.5,0.3,1.4C602.8,304.7,602.8,304.4,602.7,304L602.7,304z" />
</g>
</svg>