<?xml version='1.0' encoding='utf-8'?>
<svg xmlns="http://www.w3.org/2000/svg" version="1.2" baseProfile="tiny" id="Layer_1" x="0px" y="0px" viewBox="0 0 900 600" overflow="visible" xml:space="preserve">
<g id="b_00000172408170877071479190000003734850052421450154_">
	<path display="inline" fill="#030202" d="M466.5,398c-17.8-2.9-35.7-3.1-53.7-5c0.7,25.4,2.2,53.5,12,77.1   c3.6,13,16.7,26.9,13.1,40.3c-21.6-47.1-32.6-83.7-27.4-136.4c0.5-0.2,1-0.4,1.5-0.5c0.7,0.9,1.3,1.8,2,2.8   c50.8,4,95.7-29.7,146.2-23.9c-10.4,5.1-22.4,2.2-33.4,3.3c1.2,21.9,37.8,27.7,53.2,16.5c16-1.8,27.5-20.6,36.7-32.8   c0.4,0.4,0.9,0.9,1.3,1.3c-14.3,36.3-77.9,61.7-96.3,15.9c-9.3,4.1-19,5.7-28.5,8.2c-2.8,13.9,6.4,33.2,19.8,37.1   c-0.3-1.6-1.5-4.1,0.5-5c22.2,31.8,63.7,33.9,95.6,17c32.1,8.8,60-6.3,67.5-39c-1.2-2-2.7-2.3-4.6-2.2c-4.9,20-44.9,39.1-63.3,34.5   c6-5.1,13.2-9.2,19-14.4c2.7,3-4.4,6.6-6.6,10.1c19.9-2.5,40.2-11.5,48.2-31c-0.5-3-4.2,0.1-5.5-2.4c5.3-4.2,20.8,6.7,23.9,1   c0.2,3.8,0.8,8-1,11.4c-0.5-3.9-1.2-9.2-6.7-7.7c-8.6,36.3-37.5,52.8-72.9,42.7c-28.5,16.7-68.9,16.6-90.9-10.7   c-14.3-2.6-29.2,2.8-41.9-6c0.5-0.5,1-0.9,1.4-1.4c8.8,2,19.7,6.9,28.1,3.7c-9.6-10.5-15.6-22.4-14.3-36.5   c-24.6,9.6-51,15.1-77.3,13.4c0.2,3.3-1.1,6.2-0.3,9.5c18.6,5.3,39.1,2.2,57.7,8.2C468.8,397.4,467.7,397.7,466.5,398z" />
	<path display="inline" fill="#030202" d="M475.8,272.6c0.8,0.5,1.5,1.1,2.5,1.7c26.8-4.6,51-22.7,77.4-29c0.5,0.4,1,0.8,1.5,1.2   c-19.4,10.3-47.5,14.5-53.4,39.2c4.6-0.9,8.8-1.8,13.1-2.7c0.1-1.9,0.2-3.4,0.3-4.9c26.8-18.7,61.3-37.5,94.8-31.5   c17.9,3,40.2,17.8,36,37.9c-0.5,0-1-0.1-1.5-0.1c-11-60.1-95.9-32.6-125.5-2.8c0.4,0.9,0.6,1.6,1,2.4c-27.5,7.2-56.1,5.9-82.4,18.2   c-31.9,14-66.7,22.9-94.5,44.2c-0.5-0.5-0.9-1-1.4-1.5c4.9-7,13.7-8.2,20-13.6c-12-50.2,59.3-79.3,98.2-59.3   C466.6,275.4,471.1,278.8,475.8,272.6z M506.6,269.3c-14.8,7.1-31.5,12.8-47.4,6.9c-0.7,0.7-2.6,1.2-3.6,1.2   c-27.3-27.9-103.3,13.4-88,51.5c18.1-11,38.7-14.8,57.8-23.6c23.3-12.3,48.5-19,74.8-19.6c2.3-6.1,4.2-11.8,8.5-16.6   C507.7,268.4,507,268.3,506.6,269.3z" />
	<path display="inline" fill="#050303" d="M168.3,451.9c-3.3-11.7,6.6-22,7.3-33.5c-3-8.3-6.2-16.4-7.2-25.6   c-21.2,4.9-49.5-3-62.9,17.3c1.7,2.1,5.2,1,6.4,4.3c-9.3,6.8-12,17.2-16.8,27.1c24.5,32.5-19.2,32.7-40.7,25.6   c-24-12.8-1.1-45.2,3.9-63.5c-3.1-13.5-2.5-33.9,12.3-39.1c0.1,0.5,0.1,1,0.2,1.5c-10.3,8.1-14.5,23.7-9,36   c-3.3,19.5-33.1,56.1,0.1,63.8c6.6,2.8,40.7,4.1,36.5-7c1.6-6.7-2.5-12.4-8-15.4c3.1-7,6.8-11.9,9.1-19.6c-1.5,0.2-2.5,0.3-3.3,0.4   c-0.1,1.2-0.2,2.1-0.3,3.2c-7.2,1.8-15.2,3-21.5-1.6c3.1-0.8,4.8-1.8,7.5-1.6c0-0.2,0-0.4,0.1-0.6c-0.7-0.1-1.4-0.3-2-0.4   c-0.4-0.7-1.8-0.8-1.3-1.9c7.5,0,14.9,0,22.5,0c1.2-1.4,2.5-3.6,4.1-4.9c1.4,0,2.3-0.5,2.8-2c-1.3-0.7-2.2-0.2-2.9,0.8   c-14.1-9.1-20.9,1.9-24.6-3c0.4-0.8,0.7-1.5,0.8-1.9c-1.3-2.4-2.5-4.5-3.7-6.6c0.1-0.9,0-1.9,1.1-2.3c2.1,2.9,4.1,5.7,6.3,8.8   c5.7-3.5,11-1.4,16.9,0.2c6.3-13.8,19.6-18.2,34.1-17.5c16.1-1.5,33.2-4.4,48.6-5.6c-2.7,3.1-7.7,2.3-11.4,5.1   c14.1,28.7-0.1,32.4-2.7,57.2C169.7,450.4,169,451.1,168.3,451.9z" />
	<path display="inline" fill="#020202" d="M802.8,477.3c-65.9,104.6-201.9-8-113.9-91.9c2.6,7.9,4.8,16.6,10.2,23.1l0,0   c4.9,9.2,15.8,8,24.4,6.8c0.4,0.3,0.7,0.6,1.1,1c-18.4,10-31.8-6.9-36.2-23.3c-84.9,80.5,66.7,185,109.7,77.3   c0.7,0.2,1.3,0.4,2,0.6c6.8-14.2,5.8-38-0.7-50.6c-1.5,4.3-1.2,8.7-1.5,13.1c-3-5.2,2.2-31.7-9-26c0-0.4,0.1-0.9,0.1-1.3   c1.5-0.8,2.9-1.7,4.4-2.5c1.5,0.8,1.7,2.8,3.7,2.3c6.8,10.5,10.8,22.1,10.3,34.7c0.6,0.6,1.3,1.3,2,1.9c0.5,11.1-4.4,22.2-7.7,32.5   C802.2,476,802.5,476.7,802.8,477.3z" />
	<path display="inline" fill="#020202" d="M379.2,478.3c-17.2-23.6-21.6-53.5-30.8-80.5c-32.7,11.8-70,6-103.8,0.9   c-9.6-0.5-21.5-9.5-29.6-1.7c-0.3,0.1-0.6,0-0.9-0.2c-0.1-0.4-0.1-0.9-0.2-1.3c-7.6-0.9-15-1.1-21.6-5.6c7.2-3.6,14.2,3.9,22.6,1   c0-0.2,0-0.5,0-0.7c-1.6-0.3-4.3,1-4.8-1.3c41.8,5.7,85.9,14.7,127.5,6.9c-19.8-5.2-43.9-51.5-38.5-71   c4.7,27.9,17.7,58.7,45.3,71.3c1.2-0.9,2.4-1.7,3.5-2.5c0.1-3.2-2.2-7.1,0.6-9.2c9.6,32.1,16.3,64.3,32.5,93.9   C380.3,478.2,379.7,478.3,379.2,478.3z" />
	<path display="inline" fill="#030202" d="M301.2,336.1c-2.7-3.3,0.8-8.7-2.2-11.5c0.1-5.3,0.2-10.6,0.4-16.3   c-12.1,5.9-25.4,7.2-37.6,12.9c-15,4.2-28,17-44.2,14.7c0-0.4,0-0.7,0-1.1c17.1-1.7,29.5-13.9,45.3-19c10-3.8,21.3-4.9,30.5-10.6   c0.9,0.4,1.6,0.6,2.2,0.9c25.9-27.6,60.3-60,101.7-48.5c14.3,5.6,28.6-1,42.9,1.7c12.1,3.5,25,6.3,35.6,13.4   c-0.4,0.5-0.8,1-1.3,1.5c-18.2-7.3-37.7-14.7-57.4-10.8c-23.3-3-46.6-6.7-69,3.5c-14.6,10.7-41.5,24.6-44.9,42.5   C301.7,318.1,300.6,327.1,301.2,336.1z" />
	<path display="inline" fill="#080605" d="M753.3,236.1c18.7-38.9,56.3-22.2,58.6,16.1c37.2,20.2,56.1,85.8,23.7,115.9   c12.6-22.7,18-61.1,2.3-85.6c-0.8,0.3-1.3,0.5-1.8,0.7c-4.3-6.8-6.4-15.1-12.8-20.5l0,0c-0.8-2.1-3.3-1.9-4.8-3.4   c-1.8,0.3-3.3-1.7-5.4-0.9c2.9,6.2,4.7,12.4,7,18.7c-0.4,0.9-0.8,1.7-1.2,2.6c-5.5-12.3-7.7-30.7-25.3-29.8   c0.2-0.7,0.3-1.3,0.5-2.2c-10.8-4.4-22-6.3-33.6-5.6c-1.2-0.4-2.9,0.4-3.7-1.3c2.2-0.5,4.4-1,6.9-1.6c-0.3-4.2,0.4-8.3,2.4-12   c2.8,3.6-1.3,8.4,0.7,12.2c1.5,0.3,2.9,0.3,4.4-0.2c0.2-1.1,0.3-2,0.5-2.9c0.4,0.4,0.8,0.8,1.3,1.1c-0.4,4.1,13.1,4,16.8,5.8   c1.3,0.3,1.2-1.7,2.6-1.2c0,1.7,0.1,3.9,2.3,3.4c2.7,2.3,5.6,1.8,8.9,3.5c-2-6.6-5-18-13.4-14c7.7-10,16,7.7,15.4,14.9   c0.8,0.3,1.6,0.6,2.8,1.1c-0.3-14.1-13.4-37-29.9-32c-0.1-0.5-0.2-1-0.3-1.6c-12.9,1.3-17.7,13.9-24.7,23   C753.4,238.7,753.4,237.4,753.3,236.1z" />
	<path display="inline" fill="#080505" d="M217.5,334.8c0,0.4,0,0.7,0,1.1c-64.1-18.3-79.4,30.3-135.1,41.6c-0.5-0.5-1-1-1.6-1.5   c5-9.2,15.7-3.9,23.2-8.9c-2.9-1.8-5.5-0.6-8.6-0.6c-8.4,1.3-16.4-2.4-24.8-0.5c-0.1-0.8-0.4-1.6,0.1-2.4c10.9-2.7,21.6,1.4,33,0.1   c0.7,1,1.5,2.2,2.3,3.2C138.6,347.4,177.8,314.5,217.5,334.8z" />
	<path display="inline" fill="#0D0A0A" d="M379.2,478.3c0.6-0.1,1.1-0.1,1.7-0.2c7.3,14.5,16.6,28,22,43.1c7.2,8,3.8,20.9,14.4,25.9   c0.7,1.6,2.2,0.8,3.4,1.2c1.9,2.2,4.8,0.4,7.2,1.1c0.5-1.2,0.4-2.6,2.1-2.4c0,0-0.1-0.1-0.1-0.1c0,0.4,0,0.9,0,1.3   c0.8,0.8,1.6,1.5,2.4,2.2l-0.1-0.1c0.3,0.3,0.5,0.6,0.8,0.9c0.3-0.8,0.9-1.3,1.4-1.9c2.4,5.9,7.8,12.8,14.7,8.7   c-1.5-3.4-3-6.7-4.4-9.9c9,0.6,17.1,5.9,25.4,9.1c0,0.5-0.1,0.9-0.1,1.4c-7.2-1-13.3-4.8-20.2-6.7c-0.8,2.2,2.4,4.2,3.3,6.7   c-9.1,7.8-18.1-2.9-26.7-6.7c-10.9-0.5-21.1-7.8-20.6-20C396.2,514.9,386.1,496.9,379.2,478.3z" />
	<path display="inline" fill="#0A0706" d="M557.2,246.5c-0.5-0.4-1-0.8-1.5-1.2c37.7-14.5,75.1,4.2,113.7-2.8   c0.9-3.3,0.8-7.1,1.3-10.8c0.4,0,0.9,0,1.3,0c2.7,4.1-1.9,9,1.1,12.8c-9.7,3.4-21.5,1.3-31.8,3.6c1,0.5,1.5,0.7,1.9,1   c-0.8,0.4-1.7,0.8-2.5,1.2c-3.6-1.1-6-1.2-10.1-1C607.6,237.1,581.4,244.1,557.2,246.5z" />
	<path display="inline" fill="#0F0D0B" d="M753.3,236.1c0.1,1.3,0.1,2.6,0.2,4.4c0.9-1.3,1.6-2.2,2.2-3.1c0.2,1.2-0.7,2.8,1.1,3.5   c0.8,1.7,2.5,0.8,3.7,1.3c-5.9,1.3-12.6,2.7-17.5,5.6c-4.4,14.4-8,29.5-7.2,44.9c-0.2,0-0.4,0-0.6,0c-0.1-2-0.3-4.1-0.4-6.1   c-3,0.2-2.2,3.2-2,5c-0.7,3.8-1.6,7.3-1.3,11.2c-0.4,0-0.7,0-1.1,0c0-3.1,0-6.1,0-9.2c2.3-2.2,0.2-5.3,1.2-8   c1.7-11.4,6-25,7.6-36.5c-8.6,1.1-13.9,9.2-21.6,12.4c0,0,0.1,0.1,0.1,0.1c-0.1-0.4-0.2-0.8-0.2-1.2c0,0,0.1-0.2,0.1-0.2   c0.4-0.7,1.3-1,1.4-1.7c2.6-2.7,5.8-5,8.5-7.3c-1.5-9.5-3.1-17.1,0-26.7c3.7,5-2.2,10.8,2.8,15.9c1.1-5.7-0.3-11.7,2.3-16.6   c0.7,1.8-1.2,4.2,1,5.7c-1.6,6.1-0.8,12.5-1.9,19.3c6.9-2,13.5-5.2,20.1-7.7C752.4,239.2,752.9,237.7,753.3,236.1z" />
	<path display="inline" fill="#130C0B" d="M469.9,558.8c0-0.5,0.1-0.9,0.1-1.4c5.6-0.5,17,5.7,19.7-0.5c-12.4-5.5-24.2-12-36.1-17.7   c17.2,1.6,30.6,17.1,48.5,17.1c3.7,0.8,4.5,1.6,8.2,0c-3.4-1.1-5.4-2.7-8.2-4.7c-7.3-8.4-18.6-8.6-27.6-13.8   c0.4-0.4,0.9-0.8,1.3-1.1c16,3.9,29.3,13.8,45.7,17.4c-0.8,0.4-1.6,0.8-2.4,1.2c-1.7-0.3-3.3-0.5-5-0.8c-2.1,9.6-13.6,4.2-20.5,3.3   C487.8,564.1,477.2,561.3,469.9,558.8z" />
	<path display="inline" fill="#0F0C0C" d="M215,397c0.5-0.5,1-1,1.5-1.5c5.8,11.3-8.5,25.9-2.1,39.1c1,9.3,8.6,14,6.2,24   c-11.6,5.8-25.4,4.6-37.8,7.1c-5.7-2.7-13.9-6.7-14.5-13.8c0.7-0.8,1.4-1.5,2.2-2.3c4.5,20.2,33.9,11.4,47.9,7   c1.3-5.1-3.4-9.1-4.4-13.8c0.3-0.9,0.2-1.8-0.8-2.3C206.2,425.9,214.4,411.3,215,397z" />
	<path display="inline" fill="#110D0C" d="M672,231.7c-0.4,0-0.9,0-1.3,0c-3-10.4-2.8-20.6,4.7-29.1c0-0.9,0-2,0-3.1   c6.9-10.7,17.8-8.7,28.7-7.1c11.9,1.9,17.3,15,25.4,22.9c-0.5,0.5-1,1-1.5,1.5c-10.8-5.9-13.6-22.6-27.2-22.2   c-6.1,1.4-14.7-3.9-18.7,2.5c-3.3,5.9-9.1,11.1-9.9,18.1c0.5,0.2,1.1,0.5,2.6,1.1c-1.8,0.8-2.7,1.2-3.9,1.8   C671.2,222.6,671.9,227.2,672,231.7z" />
	<path display="inline" fill="#120F0E" d="M835.6,368.1c0.5,0,1.1,0.1,1.6,0.1c-4.2,7.8-9.3,15.6-16.3,21.4   c-1,22.4-3.4,44.8-2.1,66.9c-0.4,0-0.8,0-1.1,0c-0.3-0.3-0.3-0.6-0.1-0.9c0-2.1,0-4.3,0-6.6c-0.8-0.2-1.5-0.4-2.1-0.5   c1.3-7,1.1-14.5,1-21.9c0,0,0,0,0,0c3-11,0.3-23.5,1.6-35.7c-4.9,2.2-8.2,5-12.9,7.2c-1.1-0.8-1-2.1-1.2-3.3   C817.4,388.7,826.8,379.6,835.6,368.1z" />
	<path display="inline" fill="#170E0D" d="M437.9,510.4c1.6-1.7,1.1-3.9,1.2-6c1.3,11.1,10.7,11.2,19.9,14.9   c15.5,0.8,28.9,9.3,44.1,12.1c-1.2,1.7-3.1,0.4-4.6,1c-3-0.8-6-1.6-9-2.6c-1-1.5-2.5-0.9-3.7-0.8c-0.3,0.8-0.6,1.5-0.9,2.2   C470.3,522.5,449.2,524,437.9,510.4z" />
	<path display="inline" fill="#1F1715" d="M484.9,531c0.3-0.7,0.6-1.4,0.9-2.2c1.2-0.1,2.7-0.6,3.7,0.8c-0.7,0.2-1.4,0.4-3,0.8   c9.7,4.4,19.2,5.3,29.1,9c0.5-0.9,1.8-1.7,0.4-2.9c0.5-0.4,1-0.8,1.4-1.2c3.2,0.5,2,3.5,0.6,5.4c5.6,5.3,13.7,6.1,19.3,11.2   c-3.4,6.3-12.3,5-18.1,3.2c4.6-2.8,10.3,1.2,14.9-2.8c-9-4.5-17.5-9.9-26.9-13.2C500.1,536.2,489.8,537.3,484.9,531z" />
	<path display="inline" fill="#1E1D1B" d="M802.8,477.3c-0.3-0.7-0.7-1.3-1.2-2.3c1.2-2.5,1.2-5.7,3.2-8.3c0.2,0.6,0.3,1.3,0.6,2.3   c3.4-5.4,3.4-10.6,5.5-16c2.1-1.3,2.1-1.3,3.3,0.2c-3,7.9-5.2,16.2-8.7,23.9C804.7,477.2,803.8,477.3,802.8,477.3z" />
	<path display="inline" fill="#433936" d="M517.3,535.4c-0.5,0.4-1,0.8-1.4,1.2c-5.9-0.6-11.1-3.7-17.1-3.5c0-0.3-0.1-0.5-0.3-0.8   c1.5-0.6,3.4,0.7,4.6-1C507.9,532.6,512.8,533.4,517.3,535.4z" />
	<path display="inline" fill="#332F2A" d="M814.3,453.3c-1.2-1.5-1.2-1.5-3.3-0.2c0.4-1.9,0.7-3.7,1.1-5.6c0.5,0.9,1,1.8,1.5,2.6   c0.5-0.5,1.2-1.1,1.8-1.7c0.7,0.2,1.3,0.3,2.1,0.5c0,2.3,0,4.5,0,6.6c-0.4-1.4-0.7-2.9-1.2-4.7   C815.5,451.8,814.9,452.5,814.3,453.3z" />
	<path display="inline" fill="#272423" d="M727.9,216.9c0.5-0.5,1-1,1.5-1.5c4.5,3.9,2.7,8.5,1.9,13.3   C730.1,224.7,730.2,220.4,727.9,216.9z" />
	<path display="inline" fill="#3C3836" d="M689,385.4c-0.5,1.2-1.1,2.3-1.9,3.4c-0.8-5.3,1.1-9.9,1-15.1   C689.6,377.5,688.9,381.5,689,385.4z" />
	<path display="inline" fill="#2F2B2B" d="M476,398.9c-0.5,0.5-1,0.9-1.4,1.4c-2.7-0.7-5.4-1.5-8-2.2c1.1-0.3,2.3-0.7,3.4-1   C471.9,397.7,474,398.3,476,398.9z" />
	<path display="inline" fill="#323232" d="M818.7,459.9c-0.2,4.8,0.9,9.3-0.4,14.1c-1.9-5-0.5-9.1-0.6-14.1   C818,459.9,818.5,459.9,818.7,459.9z" />
	<path display="inline" fill="#2E2C28" d="M818.7,447.3c-1.6-3.2-1.7-9.4,0-12.6C818.7,438.9,818.7,443.1,818.7,447.3z" />
	<path display="inline" fill="#272423" d="M732.9,237.7c0.1-2.4-0.9-5.2,0.9-7.2C733.8,233,734.1,235.5,732.9,237.7z" />
	<path display="inline" fill="#272423" d="M733.7,229.4c-1.8-1.3-0.9-3.1-0.9-4.8C733.1,226.2,733.4,227.8,733.7,229.4z" />
	<path display="inline" fill="#2E2C28" d="M818.7,459.9c-1.8,0.4-0.8-2.3-1.1-3.4c0.4,0,0.8,0,1.1,0   C818.7,457.6,818.7,458.8,818.7,459.9z" />
	<path display="inline" fill="#97A7A7" d="M450.2,554.1c-0.6-0.7-1.3-1.2-0.5-2.1c0.3,0.2,0.5,0.4,0.8,0.6   C450.4,553.1,450.3,553.6,450.2,554.1z" />
	<path display="inline" fill="#F7EFD0" d="M70.8,363.7c-0.2,0.3-0.3,0.5-0.3,0.8c-0.7,0.1-1.4,0.2-2.2,0.3   C68.8,363.5,69.8,363.5,70.8,363.7z" />
	<path display="inline" fill="#F7EFD0" d="M68.4,364.8c-0.4,0.3-0.8,0.5-1.2,0.8C67.6,365.3,68,365,68.4,364.8z" />
	<path display="inline" fill="#C5B59C" d="M836.2,370.5c0.2-0.4,0.5-0.8,0.7-1.2C836.7,369.6,836.4,370,836.2,370.5z" />
	<path display="inline" fill="#F6D9C7" d="M484.9,531c4.9,6.2,15.2,5.2,22.3,8.2c9.5,3.3,18,8.7,26.9,13.2   c-21.7,7.3-42.3-14.2-63-17.6c8,9,23,6.9,31.1,16.9c1,1.9,2,3.8,4.7,3.3l0.1,0c-0.9,1.9-2.9,1.1-4.4,1.5   c-6.6-4.3-14.6-6.6-21.9-9.4c-1.1,0.5-1.9,0.9-2.8,1.3c-7.7-3.5-15.7-9-24.3-9.2c4.2,4.5,12,3.6,16.4,7.9   c-5.7,1.4-12.2-3.8-18.7-2.3c-1.4-1.2-2.6-2.2-4-3.4c-1.9-0.3-3.3,0.3-4.9,1.1c-1.3-0.7-2.7-3.6-4.1-1.4c5,4.9,8.1,10.5,10.6,17.1   c-13.4,6.4-15-18.4-29.1-21.5c-1.2-5.6-4.6-11.5-1.5-17c0.7-0.9,2.7-1,2.1-3c-1.3,0.3-2.3,0.5-3.3,0.7   c-26.8-41.2-50.5-88.7-58.2-137.8c5.1,5,10.4,8.1,16.9,9.2c-3.5-11.8-14.2-19.9-19.6-31c0.6-2,4-3.2,1.8-6.4   c-0.9,0.3-1.8,0.7-2.6,1c-0.8-0.7-2.4-1.6-2.3-2.2c0.4-3-2.7-4.5-2.7-7.3c51.5-32.3,111.7-49.9,171.4-58.7c-0.4-0.9-0.6-1.6-1-2.4   c29.5-29.8,114.5-57.3,125.5,2.8c-9.3,27.5-37.3,80.3-66.4,87.8c-15.4,11.1-52,5.4-53.2-16.5c20.4-0.6,42.1,1.1,61.3-4.5   c14.3-20.2-18.7-12.5-28.4-10.6c-18.7-5.7-37.6-12.3-56.6-15.3c-0.3,0.5-0.7,1.1-1,1.7c4.4,6.3,8.8,10.5,15.1,15   c-21.3,9.9-45.3,17.1-68.9,18.2c-8.9,3-49.7-8.6-46.8,3.9c2.2,3.9,3.9,9.3,9.1,10c-5.2,52.8,5.8,89.3,27.4,136.4   C449.2,524,470.3,522.5,484.9,531z M370.2,345.2c4-2,4-2,5-4.5c-2.3,1.2-12,3.8-8.5,6.9C367.8,346.9,369,346.1,370.2,345.2z    M573.3,328.2c3.6-0.8,18.8-6.1,16.5-10.2c-6.8,4.5-13.6,7.9-21.4,10.8C571.5,329.1,571.5,329.1,573.3,328.2z M445.7,322.2   c-0.5,1-0.9,2-1.4,3c-0.4,0.9-2,1.3-0.8,2.8c5.3-3.1,5.4-11.6,8.9-16.7c-0.8-1.1-1.4-2-2.1-2.9c3.2-0.6,5.6-2.4,7.9-5.1   C449.6,302.7,447.7,315.7,445.7,322.2z M610,315.3c6.9,4,6.2-10.7,0.5-12.7C612.2,307.7,610.9,311.6,610,315.3z M435.2,514.7   c-1.1-3.3-7-2.9-8.3,0C429.8,514.7,432.2,514.7,435.2,514.7z M564.5,330.9c-2.9-1-4.8-0.4-6.8,1.3C561,332.6,561,332.6,564.5,330.9   z M566.8,308.3c-4.6-1.1-4.6-1.1-6.8,1.4C562.5,309.2,564.6,308.7,566.8,308.3z M439.9,334c-2.8,0.9-2.8,0.9-3.7,2.4   C437.5,336,439.2,336.6,439.9,334z M596.4,345.9c1.9,1.1,3.1,0.4,4-1.4C598.6,343.8,597.4,344.4,596.4,345.9z M547.1,331.7   c1.7,1.2,2.9,1.5,4.6,0C549.9,331.7,548.8,331.7,547.1,331.7z M540.8,330.3c0-0.3,0-0.6,0-0.9c-0.9,0-1.9,0-2.8,0   c0,0.2,0,0.5,0,0.7C538.9,330.2,539.9,330.2,540.8,330.3z M432.2,342.4c1,0.8,2.3,0,1.8-1.3C433.2,341.3,432.5,341.5,432.2,342.4z" />
	<path display="inline" fill="#FFF0A7" d="M557.2,246.5c24.2-2.4,50.4-9.4,73.3,2.8c9.9-0.9,17.6,4.5,26.6,7.6   c0.9,2.8,1.3,3,4.6,2.1c-1.8-0.8-3.3-1.4-4.8-2c-2.2-6.2-10.5-6.3-15.7-8.8c26.2-6.7,50.8,3.9,73,17.4c-2.7,4.5-5.3,8.8-8.1,13.3   c-9.4-5.7-18.9-9.7-29.8-9.4c-10.2,9.9-15.9,22.4-19.1,36c-6.6,14.3-15.1,27.8-23.6,41.1c-0.3,0.1-0.5,0.3-0.6,0.6   c-16.4,15.2-32.6,34.1-41.4,54.4c0.4,0.4,0.8,0.8,1.1,1.2c0.1,0.4,0.1,0.8,0.2,1.2l0,0c-15.3,10.7-64.6,3.2-65.7-18.8   c-1.2-1.5-2.3-2.8-3.5-4.2c0.5-4.3,1-9.5,3.6-12.8c52.7,46.7,109.4-38.6,121.2-84.4c1.4-20.6-18.3-33.8-36.7-37.1   c-33.5-6-68,12.7-94.8,31.4c-0.1,1.5-0.2,3-0.3,4.9c-4.2,0.9-8.5,1.7-13.1,2.7C509.7,260.9,537.7,256.8,557.2,246.5z M669.2,262.1   c-0.2-1.4-2.9-2.3-2.7-0.3C667.4,262.3,668.4,263.1,669.2,262.1z M672.6,264.4c1.2,0.2,1.9,1,2.4,0.2   C674.6,263.3,673.9,264.2,672.6,264.4z" />
	<path display="inline" fill="#F6D9C7" d="M669.5,371.9c-8,19.4-28.3,28.4-48.2,31c2.1-3.5,9.3-7,6.6-10.1   c-5.6,4.6-11.6,9.2-18,13.2c-4.5-0.1-7.9-2.7-12.5-4.3c0-2.2,0-4.6,0-7.1c16.7-26.4,41.3-46.5,55.6-74.5c9.8-16,9.1-37,25.7-48.2   c9,0.3,17.7,3,25.2,9.1c0.9,2.4-1,4.4-1.3,6.6c-1.5,1.3-1.1,3.1-1.1,4.8l0,0c-1.2,0.4-1.2,1.4-1.1,2.4c-2.7,6-6.1,8.8,1,13   c0.8,12.9-15.2,7.4-12.7,30.4c-9.4,5.8-18.9,12.7-26.4,20.4c-6.8,1.8-14,0.2-19,5.4c-3.4,3-11.8,3.8-10.3,10.3   C642.7,380.7,660,367.9,669.5,371.9z M669.6,336c0.6-1.8,2-3.4,1.2-6.3c-1.3,2-2.3,3.3-2.6,5c-1.1,1-1.2,2.1-0.3,3.4   C669.6,338.3,669.5,337.1,669.6,336z M691.6,288.2c1.6-0.5,3.5,0.4,5.5-1.1c-4.3-2.9-10.1,0.4-13,4   C686.5,289.9,689.3,289.7,691.6,288.2z M676.8,296.1c-3.8,1.6-4.3,11.8-0.8,14.2C676.3,305.4,676.6,300.9,676.8,296.1z" />
	<path display="inline" fill="#EBDA8F" d="M527.4,368.1c-2.6,3.3-3.1,8.5-3.6,12.8c1.2,1.4,2.2,2.7,3.5,4.2   c1,22,50.3,29.5,65.7,18.8c0.5,1.6,0.9,3.2,1.4,4.9c23.9,2.4,49.9-5.7,68.4-21c0.1,0.5,0.2,1.1,0.4,1.9c2.2,0.5,4.5,1,6.8,1.5   c-10.1,21.3-34.1,29-56.2,23.3c-3.4-0.6-7.6-1.6-10.4,1.1c-27.3,16.7-61.4,9.6-84.4-11.3c-4.1-1.7-6.7-16-9.8-13.6   c0.7,4,3.1,7.3,4,11.3c-13.5-4-22.6-23.2-19.8-37.1c9.6-2.5,19.3-4,28.5-8.2C523.4,360.6,524.4,364.9,527.4,368.1z M507.5,381.3   c-0.2,0-0.5-0.1-0.7-0.1c-0.4,1.1-0.7,2.3-1.1,3.5c0.7,0.3,1.2,0.4,1.9,0.7C507.9,383.9,507.9,382.8,507.5,381.3z M509.2,370.1   c-2.5,2.7-2.5,2.7-0.6,3.7C508.8,372.9,508.9,372.1,509.2,370.1z" />
	<path display="inline" fill="#E1C7B6" d="M410.5,374c-5.2-0.7-6.9-6.1-9.1-10c-3.1-12.4,38.1-0.9,46.8-3.9   c23.6-1,47.6-8.3,68.9-18.1c-6.3-4.5-10.7-8.7-15.1-15c0.3-0.6,0.7-1.2,1-1.7c19,3,37.9,9.6,56.6,15.3c9.2-1.5,40.5-10.1,29.5,9.3   c-2-0.3-4-0.2-5.7,1.1c-6.3,0.5-13.2-1.1-18.3-0.6c0.1,2.2,1.8,2.8,3.5,3.8c-6.3,2.4-13.3,0.8-20,1.1c3.9-1.1,7.9-0.6,11.5-3   c-50.5-5.9-95.4,27.9-146.2,23.9c-0.7-1-1.3-1.8-2-2.8C411.5,373.6,411,373.8,410.5,374z" />
	<path display="inline" fill="#E1C7B6" d="M476,398.9c-20.4-7.9-43-4.5-63.8-10c-0.9-3.3,0.5-6.2,0.3-9.5   c26.3,1.7,52.7-3.7,77.3-13.4c-1.3,14.1,4.7,26,14.3,36.5C495.7,405.8,484.7,400.9,476,398.9z" />
	<path display="inline" fill="#E1C7B6" d="M650.1,374c-4.9,1.1-12.6,4-17,0.2c-1.5-6.5,6.8-7.3,10.3-10.3c5-5.2,12.2-3.6,19-5.4   c7.5-7.7,17.1-14.5,26.4-20.4c0.1-1.7,0.3-3.2,0.4-4.6c3.8,5.5-3.1,12.4,0.7,17.1c1.5-2.4,1.5-2.4,1.6-5.1c2.9,0.1,2.7,4,5.5,4.1   c-2.7,11.9-2.6,25.7,1.2,36.9c-1.1,7.5,5.2,15,0.9,22c-11.7-15.1-11.3-34.3-11.3-52.7c-4.8,3.4-1.2,10.6-2.4,15.6   c-7,1.8-14.9-5.1-21.5-1.8C661.6,370,642.2,369.8,650.1,374z M683.6,355.8c1.2-0.7,2.5-1.4,2-3.6c-2.5,1.8-4.3,3.1-6.6,4.9   C680.9,357.6,682.4,357,683.6,355.8z M668.9,361.7c-1.6,0.6-3.8,0.3-4.7,3C666.4,364.2,668.1,363.8,668.9,361.7z M675.2,358.5   c-1.4,1-2.2,1.5-3,2.1C673.6,361,675.1,362,675.2,358.5z" />
	<path display="inline" fill="#0F0B09" d="M612.6,408.5c-5.5,1.8-12.3,1-18.2,0.4c-0.5-1.7-1-3.3-1.4-4.9l0,0   c1.4-1.1-0.8-1.4-1.3-2.4c8.8-20.3,25-39.2,41.4-54.4c0.2,0.1,0.6,0.1,0.8,0.1c0.1,0.5,0.1,1,0.2,1.5c-10,14.1-42.5,41.2-37.1,58.5   c4.1,0,8,0,11.9,0C609.6,408.9,611.3,408,612.6,408.5z" />
	<path display="inline" fill="#15110E" d="M647.9,284.5c-4.8,20.7-14.2,41.4-29.9,56.3c-0.4-0.4-0.9-0.9-1.3-1.3   c14.2-15.8,22.8-35.2,29.7-55C647,284.4,647.4,284.5,647.9,284.5z" />
	<path display="inline" fill="#F9EBA4" d="M669.9,391.2c-2.3-0.5-4.5-1-6.8-1.5c-0.2-0.8-0.3-1.3-0.4-1.9c3.5-4.8,7.4-9.1,9.3-15.2   c1.8-0.1,3.4,0.2,4.6,2.2C674.9,380.4,674,386.4,669.9,391.2z" />
	<path display="inline" fill="#DCBDAD" d="M608.8,407.2c-3.9,0-7.8,0-11.9,0c-0.7-4-1.5-9.6,0.4-12.5c0,2.4,0,4.8,0,7.1   c4.5,1.6,8,4.1,12.5,4.3C609.5,406.4,609.1,406.8,608.8,407.2z" />
	<path display="inline" fill="#322825" d="M650.1,374c-7.9-4.2,11.4-4,13.8-4.5c0.4,0.4,0.8,0.7,1.2,1.1   C660.5,372.8,655.1,372.9,650.1,374z" />
	<path display="inline" fill="#221B19" d="M683.4,371.8c0.6-0.1,1.1-0.3,2.1-0.5c1.2-5-2.4-12.3,2.4-15.6c0,5.3,0,10.1,0,14.8   C686.2,371.9,685.9,373.9,683.4,371.8z" />
	<path display="inline" fill="#50482F" d="M512.4,399.2c-1.9-2.6-2.4-5.6-3.3-8.5c3.2-1.9,3.1,4.4,4.5,6.2   C512.3,397.3,512.6,398.4,512.4,399.2z" />
	<path display="inline" fill="#322825" d="M669.5,371.9c-0.8-0.4-1.6-0.8-2.4-1.3C668.2,370.4,669.3,370.3,669.5,371.9z" />
	<path display="inline" fill="#FF9A77" d="M301.2,336.1c-0.6-8.9,0.5-18,2-26.7c3.4-17.9,30.3-31.9,44.9-42.6   c22.4-10.2,45.7-6.6,69-3.5c9.7-1.6,19.4-2.2,28.6,1.7c-36.8-3.1-93.6,20.6-82.2,66.3c-10.9,6.6-23.7,12.5-26,26.1   c-7.7,3.8-15.5,6.6-23.7,8.4C307.6,356.8,304,346.7,301.2,336.1z M330,346.4c0.1,0.9,0.2,1.9,0.4,2.8   C331.1,348,331.4,347,330,346.4c-0.3-1.9,0.8-4.1-1-5.8c0-2.8-0.7-5,0.4-7.9c0.8,2.5,1.5,4.3,2.1,6.3c0.6-0.5,1.1-0.8,1.9-1.5   c1.1,3.1,0.2,7.9,3.9,8.8c0.6-0.7,1.2-1.4,1.8-2.1c-0.3-2.6-2.2-5-0.7-7.5c0.7-0.2,1.2-0.3,1.6-0.4c1.1-6.6-1.6-13-0.4-19   c0.6,0.9,1.2,1.7,1.8,2.6c2.3-1.8,0.3-3.2,0-4.7c-1.8-6.3-0.7-12.9-1-19.4l-0.1,0.1c1.5-1.6,1.5-1.6,0.2-3.4   c-1.4-0.4-2.5-1.9-4.4-0.7c-0.7,2.3-1.4,4.7-2.1,7.2c-2.5,0.3-4.9,0.5-7.3,0.8c-2.5,6-1.4,13.9,0,20.6c-1.1,0.6-1.9,1.1-2.9,1.6   c-2.4-4.1,2.4-12.4-3.4-13.4c-5,4.8,2.1,14.1-5.8,18c2,0,3,0,4,0c0,5.6,0.8,9.8,4.5,14.4c0-6,0-10.9,0-15.9c1.5-0.6,2.7-1.1,4-1.6   C328.2,331.1,324.1,339.9,330,346.4z M354.3,314.5c-1.9,0.8-4.3,0.4-6,3.3c3.9-1.7,8.2-0.8,11.1-3.2   C357.7,313.7,356,314.1,354.3,314.5z M345.4,322c-0.6,2.5-0.8,5,0,8.2C346.4,327.1,346.2,324.6,345.4,322z M311.2,328.9   c0.5-0.6,0.8-1,1.2-1.4C311.5,326.5,310,328,311.2,328.9z" />
	<path display="inline" fill="#F6D9C7" d="M507,270.9c-2.9,4.8-4.9,9.2-6.8,14.7c-26.3,0.7-51.5,7.4-74.8,19.7   c-19.1,8.8-39.7,12.6-57.8,23.6c-15.3-38.1,60.7-79.3,88-51.5c1.1,0.1,2.9-0.4,3.6-1.2c15.9,5.9,32.6,0.2,47.4-6.9   C506.7,269.8,506.9,270.4,507,270.9z M435.6,274c-2.8-2.5-2.9-2.4-5.5-2.9C431.1,273.3,432.5,274.3,435.6,274z M449.8,274.8   c-2.1-0.6-3.3-1.3-5,0C447.2,275.6,447.1,275.3,449.8,274.8z" />
	<path display="inline" fill="#E1C7B6" d="M350.5,342.8c0,2.7,3.1,4.3,2.7,7.3c-0.1,0.6,1.5,1.5,2.3,2.2c-1.3,2.9-3.7,5.4-4.3,9.3   c2.7-0.8,3.2-3.3,5.1-3.9c5.4,11.1,16.1,19.1,19.6,31c-6.5-1.1-11.8-4.1-16.9-9.2c7.7,49.1,31.4,96.6,58.2,137.8   c-0.7,0.9-1.5,1.8-2.7,3.2c1.9-0.4,2.9-0.6,3.9-0.9c-3.1,5.5,0.3,11.4,1.5,17c3.5,2.5,8.3,3.9,10.9,7.4c-3.1-0.4-1.3,1.5-0.8,3.1   c-1.6-0.2-1.6,1.2-2.1,2.4c-0.8-0.1-1.7-0.1-2.5-0.2c-0.6-2-3.6-6-5.6-7.5c-0.8,1.8-0.3,3.3,0.7,4.8c0.4,0.6,1,1.2,0.1,1.8   c-13.7-2.8-10.3-18.4-17.8-27.1c-5.4-16.2-16.8-30.2-22.9-46.3c-15.7-26-21.2-55-29.2-83.7C347.8,376.2,331.6,352.2,350.5,342.8z    M353.1,366.5c-3.6,2.5-0.8,3.8-0.4,5.4C352.8,370.4,352.9,369,353.1,366.5z" />
	<path display="inline" fill="#E58C6C" d="M443.5,266.1c10.3-2.9,21.2,5,31.1,8c-5.7,4.4-8,0.6-12.7-2.1   C456,269.2,449.4,268.5,443.5,266.1z" />
	<path display="inline" fill="#120C0B" d="M345,346.5c-0.9,1.1-1.8,2.2-2.6,3.3c-0.3,0-0.7,0-1,0c0.7-1.6,1.5-3.2,2.2-4.8   C344.1,345.5,344.5,346,345,346.5z" />
	<path display="inline" fill="#8B8C83" d="M507,270.9c-0.1-0.5-0.2-1.1-0.3-1.6c0.4-1,1-0.9,2.1-0.3   C508.1,269.7,507.5,270.3,507,270.9z" />
	<path display="inline" fill="#F6D9C7" d="M82.5,377.5c2.5-2.1,5.2-3.9,8.8-5c31,1.6,50.6-33,80.2-38.2c18.4-7.5,36.4,2.8,54.6,1.2   c13-1.6,23.2-11,35.8-14.4c12.2-5.7,25.5-7,37.6-12.9c-2,30.5-2.5,34.5,12.3,60.9c-5,10.4-46.1,7.3-57.3,10.3   c-19.9-1.2-39.8-5.1-59.7-5.5c-6.1-12.5-19.5,6.4-29.5,6.6c-26.9,7.2-56.8-3-70.6,28c-3.6-0.9-6.3-0.1-9.8,1.6   c-6.7-7.1-9.1-17.1-8.1-26.3C79,381.4,80.8,379.5,82.5,377.5z M163.5,352l-0.1,0c9.2-1.2,18.7-0.4,25.9-6.9   c-3.7,0.3-6.1,0.7-9.5,1.3c-7.9-5.8-24.8-1-30.5,6.4c2.7,1.5,1.3,3.8,5,2.7c3.6-3,4.5-2.2,8.1-2.2   C162.7,352.8,163.1,352.4,163.5,352z M205.9,340.4c-3.5,0.4-3.5,0.4-5,2.8c4-0.8,6.5-1.6,10.5-1.9   C209.4,339.7,207.7,339.4,205.9,340.4z M213.9,365.7c-1.9,0.4-4.3-0.4-5.5,2.2c5.1,1.2,9.2-0.8,13.8-3.1   C219,364.9,216.3,364,213.9,365.7z M100.3,378.3c2.1-1.7,4.6-1,6.2-3.5c-8.9,2-19.4,3.1-25.6,10.4c-0.1,1.5-0.8,3.4,2,3.8   c0.8-1.9,1.3-4.1,3.5-4.8c2.7,1.9,5.7,1.2,8.5,1.2c2.3-1.7,4.3-3.3,6.4-4.8C100.9,379.6,100.6,379,100.3,378.3L100.3,378.3z    M225.8,363c2.3,1.5,3.8,0.8,6.2,0.1C229.5,361.9,228,362,225.8,363z M215.5,339.5c1.2,2,1.2,2,3.1,0.6   C217.4,339.9,216.4,339.7,215.5,339.5z M114,372.8c-2.3-0.3-3.5,0.3-4.2,1.9C111.5,375.5,112.5,374.4,114,372.8z M146.2,359.1   c0.8-0.8,1.6-1.4,0.7-2.2C145.4,357.2,145.3,357.6,146.2,359.1z M245.4,359.2c0.1,0.3,0.2,0.5,0.2,0.8c0.9-0.3,2,0,1.4-1.4   C246.5,358.7,245.9,358.9,245.4,359.2z M116.9,371.1c2.2,0.7,2.2,0.9,3.7,0c-0.1-0.3-0.2-0.5-0.3-0.8   C119.4,370.5,118.6,370.7,116.9,371.1z M241.1,360.9c-0.4-0.7-0.8-0.6-1.5-0.3C240,361.4,240.5,361.2,241.1,360.9z M224.1,340.6   c0.3-0.1,0.6-0.2,1-0.4c-0.4-0.8-0.8-0.7-1.5-0.3C223.8,340.1,223.9,340.3,224.1,340.6z" />
	<path display="inline" fill="#E1C7B6" d="M94.7,408.6c13.7-31,43.7-20.9,70.6-28c10.1-0.2,23.4-19.1,29.5-6.6   c19.8,0.4,39.8,4.3,59.7,5.5c11.1-3,52.4,0.1,57.3-10.3c4.6,12.2,13.6,21.8,25.8,26.4c-41.6,7.9-85.6-1.2-127.5-6.9   c0.1,1.4,1.1,1.1,1.7,1.3c0.1,0.4,0.2,0.8,0.3,1.1c-21.4-3.9-29.5-5-51.8-1.2c-20.4,4.5-48.2-2.6-58.4,20.4   C99.4,409.8,97,409.2,94.7,408.6z M202.7,380.5c-1.8-1.2-3.7-1.8-5.8-2c0.3-6.1-10.5-2.6-6.9,0.1c-0.4,0.8-0.8,1.6-1.1,2.2   c1.8,2.3,5.3,2.8,8,4.5c2.7-2.6,6.4,2.3,9.1-1.1c2.6,0.6,4.7,3,8.3,2.4C210.8,383.3,207.1,381.4,202.7,380.5z" />
	<path display="inline" fill="#F7EFD0" d="M70.7,366c8.4-2,16.4,1.8,24.8,0.5c3.1,0.1,5.7-1.2,8.6,0.6c-7.5,5-18.3-0.3-23.2,8.9   c-12.5,7.9-6.1,24.1,0.4,34.3c-0.2,0.4-0.5,1.1-0.8,1.9c3.5,4.9,10.6-6.1,24.6,3c0,0.4,0.1,0.8,0.1,1.2c-1.6,1.3-2.9,3.5-4.1,4.9   c-7.7,0-15.1,0-22.5,0c-0.5,1.1,1,1.2,1.3,1.9c-0.1,0.3-0.1,0.7-0.1,1c-1.6,0.5-3.2,0.9-5.5,1.6c1.4,1,2.3,1.6,3.1,2.2   c-0.4,0.7-0.8,1.3-1.2,2c-0.9,0.2-1.9,0.3-1.9,2c4.8,1.7,14.2,5.5,17.6,0.2c-0.4-1.3-1.6-1.8-2.9-2.2c0-0.3,0-0.7,0-1   c2.2-0.5,4.4-1,6.8-1.6c0.1-1.1,0.2-2,0.3-3.2c0.9-0.1,1.8-0.2,3.3-0.4c-2.3,7.6-6,12.6-9.1,19.6c5.4,3.1,9.6,8.7,8,15.4   c-42.6,11.7-52.5-6.5-39.4-46C72.7,400.9,60.4,380.2,70.7,366z M76.2,443.3c1.6,3,7.3,2.2,8.9-0.3c1.1-3.3,6.5-1.3,5-5.7   c-2.1-1.3-14.8-1.3-14.6,2c1.4,0.6,2.8,1.2,4.6,1.9C78.5,442.1,77.4,442.7,76.2,443.3z" />
	<path display="inline" fill="#EADCB7" d="M217.6,451.7c1.2,1.5,1.1,3.1,0.7,4.8c-16,6.6-54.9,12.5-46.7-16   c7.7-18.7,11.3-28.9,1.5-48.1c2.2-1.6,4.5-2,6.6-2.6c8.5,19.3-0.9,40.5-2.2,60.3c2.3,2.5,4.4,4.9,6.7,7.4   C195.2,457.8,208,457.2,217.6,451.7z" />
	<path display="inline" fill="#EADBB7" d="M58,415c-10.5,40.7-2.7,54.4,40.4,43.7c4.3,11.1-30,9.8-36.5,7   c-20.2-2.3-17.5-26.4-8.6-39.2C53.3,422,55,418.6,58,415z" />
	<path display="inline" fill="#E7DAB6" d="M69.4,367.9c-7.7,14.6,2.7,33.4-10.5,44.9c0.9-3.3,1.7-6.5,2.9-10.8   C57.1,391.3,59.1,374.7,69.4,367.9z" />
	<path display="inline" fill="#191613" d="M77.5,403.7c-4.5-9.1-6.5-21.8,3.4-27.7c0.5,0.5,1,1,1.6,1.5c-1.7,1.9-3.4,3.9-5.6,6.4   c-0.6,5.5,0.5,11.5,1.8,17.5C77.5,401.8,77.6,402.8,77.5,403.7z" />
	<path display="inline" fill="#201916" d="M184.5,387.3c4.9,0.5,10.1-0.4,14.8,1.5c-3.8-0.5-6.9,1.1-10.5,1.8   c-0.4,2.6,1.5,3.6,2.5,5c-0.5,0.4-0.9,0.9-1.4,1.3c-2-1.9-4.1-3.6-4.6-6.5c-1.9-0.1-3.8-0.1-5.7-0.2c0,0,0.1-0.5,0.1-0.5   C181.2,388.6,183.7,389.3,184.5,387.3z" />
	<path display="inline" fill="#8E7868" d="M76.3,430c0.4-0.7,0.8-1.3,1.2-2c2.7,0.3,5.4,0.7,8.1,1c0.1,0.3,0.1,0.6,0.1,0.9   C82.5,429.9,79.4,430,76.3,430z" />
	<path display="inline" fill="#A8A892" d="M105.2,416.4c0-0.4-0.1-0.8-0.1-1.2c0.7-1,1.6-1.4,2.9-0.8   C107.5,415.9,106.5,416.4,105.2,416.4z" />
	<path display="inline" fill="#BFB8A0" d="M85.7,429.9c0-0.3,0-0.6-0.1-0.9c1.1,0,2.3,0,3.4,0c0,0.3,0,0.7,0,1   C87.9,429.9,86.8,429.9,85.7,429.9z" />
	<path display="inline" fill="#8F9884" d="M79.8,424.2c0-0.4,0-0.7,0.1-1c0.7,0.1,1.4,0.3,2,0.4c0,0.2,0,0.4-0.1,0.6   C81.2,424.2,80.5,424.2,79.8,424.2z" />
	<path display="inline" fill="#A8A892" d="M104,417.5c0.4-0.4,0.8-0.7,1.2-1.1C104.8,416.8,104.4,417.1,104,417.5z" />
	<path display="inline" fill="#40A6CA" d="M798.1,470.2c-0.7,1.9-1.4,3.9-2.1,5.8c-12.7,5.9-14.9,6.7-18.2,6.2   c0.6-10.9,9.6-22.9,3.9-33.8c-2.4,1.8-1.9,4-1.8,6c-0.2,10-3,20.7-7.2,29.6c-6.4,0.4-0.7-6.8-4.8-9.5c-2.1,3.9-1.7,7.3-4.1,10.7   c-42.8,9-82.6-30.9-65.3-72.4c10.3,11.4,23.9,2.1,36.2,3.7c7.1,5.5,15.3,20.4,24.1,8.6c11.6-20,19.3-23.8,32.4-3   c1.2,5.9-0.1,24.1,4.5,26.4c0.2,3.1,0.3,4.4,0.7,8c0.7-6.5,1.4-11.8,2-17.2c1.8,2.7,1.5,6.5,3.4,9.3   C800.9,455.9,799.4,463,798.1,470.2z M788.8,461c1.4-6.7,5.7-24.9-0.4-29.2c-1.3,13.3,0.2,26.3-4.1,39.9   C788.5,469.6,787.3,464.7,788.8,461z" />
	<path display="inline" fill="#2D8FB9" d="M777.5,480.5c0.1,0.6,0.2,1.1,0.3,1.7c3.3,0.5,5.5-0.2,18.2-6.2   c-49.7,99.2-189.7-6.6-107.5-83.1c3.5,6.4,4.7,14.7,10,19.9c-17.3,41.5,22.4,81.4,65.3,72.4c-0.5,4.4-4.2,7.4-3.7,11.8   c4-4.8,6.7-10.1,9.3-15.4c0.5,2.3,0.5,2.3,3.3,2.4c-0.9,2.1-1.9,4.3-3.3,7.4C774.3,489.3,774.1,484.2,777.5,480.5z M741.9,498.9   c1.3-0.6,2.8-1,3.2-2.7C742.9,495.7,742.9,495.7,741.9,498.9c-0.3,0.2-1.2,0-0.5,0.8C741.6,499.4,741.8,499.2,741.9,498.9z    M755.7,488.6c-2.1,5.3-5.7,7.7-7.1,12.5C754.2,497.7,756.6,493.9,755.7,488.6z M717.2,500.1c2-0.8,2.8-1.2,3.8-1.6   C719.4,497.2,718.6,497.6,717.2,500.1z M730.3,499.4c-0.2-0.5-0.4-0.8-0.5-1.1c-0.7,0.3-1.2,0.6-0.9,1.5   C729.3,499.7,729.8,499.5,730.3,499.4z" />
	<path display="inline" fill="#F6D9C7" d="M699.2,408.5c4.3-6.9-2-14.5-0.9-22l0,0c10.6-1.9,1.4-30.6,9.4-37.6   c3.9,4.9-2.5,10.4-0.8,15.6c1.1-2.1,2.1-3.9,3-5.6c-0.5,2.7,0.6,5.1,1.9,8.3c0.7-4.4-0.4-7,1.2-10.6c3.2,0,6.3,0.1,9.5,0.1l0,0.1   c4.5,7.8,3,7.8,12.5,9.2c2.3,1.6,3.9,5.7,7.1,4.5c2,2.2,6.5-1.8,4-3.8c-3.4-0.8-1.4-5.8,1.5-5.3c1.9,6.8,6.9,4.1,11.8,2.2   c2.3,1.3,2.3,1.3,3.4-1.1c0.3,0,0.6,0.1,0.9,0c0.6,0.8,1.3,1.6,2.5,3.1c-0.4-3.6-0.4-6,3.3-5.4c1.2,1.6,2.8,3.7,3.7,1.1   c3.5-1.1,6.3,0.4,10.1,0c1.1,1.1,1,3.7,3.2,2.9c0-1.6,0.4-3.2,1.7-4.2c2.2,3,7.8,4.6,11.3,5.8c1,3.9,4.9,3.7,8.1,3.7   c1.3,1.2,0.5,3.4,3,3.1c5.8,0,9.8,5.6,15.1,7c-4.9,7.4-14,10.4-21.6,15.2c-4.9,3.5-8.9,8.8-15,11.3c-28.7-3.3-21.2,8.7-38.6,21.4   c-5.2-2.5-7.8-8.4-12.2-12c0.1-0.8,0.1-1.9,0.2-2.9c1.1-0.9,3.2-0.2,2.9-2.3c-1.6-1.4-3.1-0.8-4.8,0c-0.7,1.3-1.3,2.6-1.9,3.7   c-2.4,0.4-4.4,0.7-6.5,1c-2.7-1.2-5.7-4.6-8.2-3c0.7,0.6,1.3,1.2,1.9,1.8c-0.3,0.4-0.6,0.9-0.9,1.3c-6.6,2.6-16.3,1.4-20.4-4.7   C700.6,409.4,700.5,408.5,699.2,408.5z M745.5,389.8c-0.8-0.9-1.4-2.3-3.4-1.2c2,2.6-0.3,6.4,2.7,8.4c2.9,4.5,10.7,8.2,15.4,5   c0-0.5,0-1.1,0-1.7c2.8,1.5,5.6,3,8.5,4.6c0.3-0.7,0.5-1.2,0.8-1.9C763.2,394.8,751.7,397.1,745.5,389.8z" />
	<path display="inline" fill="#D5BE9F" d="M805.2,398.1c2.2-1.2,4.4-2.4,6.7-3.6c-2.6,12.8,0,28.1-2.6,42.1   c-0.9-0.4-1.4-0.7-1.8-0.9c-0.4-11.6-5.5-21.3-10.9-31.2C799.4,402.3,802.3,400.2,805.2,398.1z" />
	<path display="inline" fill="#28231E" d="M807.4,435.6c0.5,0.2,0.9,0.5,1.8,0.9c3-13-0.9-28.2,2.7-39.9c1.8,15.9,2.6,33.1-2.2,48.6   c-0.1-0.9-0.2-1.8-0.3-2.7c-0.7-0.7-1.3-1.3-2-1.9C807.4,438.9,807.4,437.3,807.4,435.6z" />
	<path display="inline" fill="#2B87AE" d="M801.7,448.6c-1.9-2.9-1.6-6.7-3.4-9.3c-0.3-6.4-0.7-12.8,1.2-19   C803.5,425.9,805.5,439.7,801.7,448.6z" />
	<path display="inline" fill="#2984AA" d="M791.2,422.1c-5.7-3.9-6.2-14.4-14.9-13.8c4.7-2,10-0.4,15-1   C790.1,412.1,791.7,417.1,791.2,422.1z" />
	<path display="inline" fill="#297FA4" d="M795.6,448.5c-3.1,0-1.9-3.7-2.1-5.8c2.9-4.2,0.5-11.3,0.4-16.4c-1-5.9,0.1-12.1-1.4-18.1   c-0.1-0.3,0.7-0.8,1-1.1C801.3,419.4,793.1,435.4,795.6,448.5z" />
	<path display="inline" fill="#11232A" d="M793.6,407.1c-0.4,0.4-1.1,0.9-1,1.1c1.5,6,0.4,12.1,1.4,18.1c0.1,5.2,2.5,12.2-0.4,16.4   C792.3,439.7,787.9,401.9,793.6,407.1z" />
	<path display="inline" fill="#09191F" d="M801.7,448.6c0.7-2.4,1.4-4.8,2.1-7.2c3.4,8.3-4.6,18.3-2.2,26.5c-0.5,1-0.9,2-1.4,3   c-0.7-0.2-1.4-0.4-2-0.6C799.4,463,800.9,455.9,801.7,448.6z" />
	<path display="inline" fill="#193540" d="M795.6,448.5c-0.5-1.6-1.3-3-0.4-4.8c1.8-6.2-0.7-13.3,1.7-19.4   c1.1,11.3,1.5,20.3-0.6,32.2C795.9,452.9,795.8,451.6,795.6,448.5z" />
	<path display="inline" fill="#382B26" d="M805.2,398.1c-2.9,2.1-5.7,4.2-8.6,6.3c0.2,0.5,0.3,1,0.5,1.5c-2,0.5-2.2-1.6-3.7-2.3   c4.6-2,6.6-6.7,10.6-8.8C804.2,396,804.1,397.3,805.2,398.1z" />
	<path display="inline" fill="#D0BC9F" d="M809.7,445.2c0.7-2.1,1.4-4.2,2-6.3c0.5,1.2-0.4,2.9,1.2,3.8c-0.8,4.7-1.7,10-3.4,14.9   c-1.7-0.8-0.7-2.4-1.1-3.6C808.8,451.1,809.3,448.1,809.7,445.2z" />
	<path display="inline" fill="#184456" d="M801.5,467.9c-1.6-5.7,2-14.6,3.5-20.5C805.4,454.5,803.3,461.1,801.5,467.9z" />
	<path display="inline" fill="#AE9C84" d="M808.3,454c0.5,1.2-0.5,2.8,1.1,3.6c-0.5,3.9-1.7,7.6-4,11.5   C804.3,464,806.9,458.8,808.3,454z" />
	<path display="inline" fill="#462F2C" d="M721,415.1c0.3-0.4,0.6-0.9,0.9-1.3c-0.7-0.6-1.3-1.2-1.9-1.8c2.1-0.8,2.1-0.8,4.8,0.9   c-1.3,0.4-1.2,1.4-1.2,2.4C722.7,415.2,721.9,415.1,721,415.1z" />
	<path display="inline" fill="#232226" d="M723.6,415.2c0-1-0.1-2,1.2-2.4c1.2,0.7,2.3,1.4,3.5,2c0,0.4,0,0.8,0,1.2   c-1.2,0-2.3,0.1-3.5,0.1C724.3,415.9,723.9,415.6,723.6,415.2z" />
	<path display="inline" fill="#491111" d="M788.9,407.4c-1.5,0-3-0.1-4.4-0.1c-0.1-0.4-0.1-0.8-0.2-1.2c1.6,0,3.1,0,4.7,0   C789,406.5,788.9,407,788.9,407.4z" />
	<path display="inline" fill="#E1C7B6" d="M699.2,408.5c1.3,0,1.4,0.9,1.4,1.9C700.2,409.7,699.7,409.1,699.2,408.5z" />
	<path display="inline" fill="#EF8A6A" d="M314,365.9c8.1-1.8,15.9-4.6,23.7-8.4c0.2-1.9-0.1-4.1,1.9-5.2c-2,14.3,7.2,27.1,8.2,41.1   c-1.1,0.8-2.3,1.6-3.5,2.5C332,388.5,318.2,380.5,314,365.9z" />
	<path display="inline" fill="#110E0D" d="M189.9,396.9c0.5-0.4,0.9-0.9,1.4-1.3c7.6,1.7,15,2.8,22.6-0.2c0.1,0.4,0.1,0.9,0.2,1.3   c-2.3,0.7-0.1,3.2-2.2,4.7C204.7,401.6,195.6,402.6,189.9,396.9z" />
	<path display="inline" fill="#D4BEAE" d="M213.9,395.4c-7.6,2.9-15,1.9-22.6,0.2c-1-1.5-2.9-2.5-2.5-5c1.1-0.2,2.3-0.5,3.5-0.7   C198.9,394.3,206.3,394.6,213.9,395.4z" />
	<path display="inline" fill="#2E201B" d="M347,386.8c-2.6-11.4-12-26-5.6-37c0.3,0,0.7-0.1,1,0c-3.1,11.3,3.5,23.4,5.9,34.4   C347,384.7,347.3,385.9,347,386.8z" />
	<path display="inline" fill="#C0C3AA" d="M199.1,401.6c4.5,0,8.9-0.1,12.8-0.1c2.1-1.5-0.2-4,2.2-4.7c0.3,0.2,0.6,0.3,0.9,0.2   c-0.3,3.5,1.2,7.6-2,10.2c-0.5-0.1-1-0.1-1.4-0.2c0.1-0.3,0.2-0.6,0.3-0.9c2.3-1.9-0.9-2.2-2.3-2.6   C206.4,400.9,202,404.5,199.1,401.6z" />
	<path display="inline" fill="#62867A" d="M212,391.2c-0.1-0.4-0.2-0.8-0.3-1.1c1,0,2.1,0,3.1,0c0,0.2,0,0.5,0,0.7   C213.9,390.9,212.9,391.1,212,391.2z" />
	<path display="inline" fill="#D8C1A1" d="M759.2,363.5c-2.3,0.8-4.6,1.6-6.9,2.4c-4-7.8-6.1-16.5-8.6-24.9   c-1.6,7.2,2.5,13.4,3.7,20.3c-1.7-0.1-2.7,0.8-3.3,2.3c-5.7-11.6-5.1-26.5-10.5-37.2c0.5,3.2-0.5,5.5,1.3,7.4   c-1.5,4.8,3.7,11.1,0,14.9c-2.4-2.4-2.6-5.8-4.3-8.2c0-1.5-1-1.7-2.2-1.8c-1.6-7.6-2-15.4-2.6-23.1c-0.2-0.8-0.5-1.4-1.5-1   c-1.7,4.7-0.4,10.8,0.3,15.6c-2.8,2.5,0.8,6.7-2.1,9.2c0.1-7.1-2.6-13.7-2.8-20.9c-0.2,0-0.4,0-0.7,0.1c-1.4,9.9,2.8,20.5,0.2,29.9   c-5.9-12.1,0.6-33.3-18.6-34.4c1.4-1.7,1.3-3.7,1-6.3c-0.9-0.8-2.2-1.8-3.4-2.9c5.9-12.8,10-26,17.9-38.1c2.3-1.3,2.1-3.3,1.7-5.4   c2.3-0.3,3.9-2.2,5.7-3.5c-4.2,15.2-15.8,38.7-9.7,58.4c1-20,1.8-40.7,13.4-58.3c-0.4-0.8-0.8-1.5-1.1-2.1c1.9-1.2,3.7-2.4,5.6-3.6   c0.8,0.3,1.3,0.8,0.9,1.6c-6.9,13.3-11.4,27.6-9.9,42.8c5.3-12.1,3.7-30.9,12.5-43.3c1.1,0.4,2.3,0.8,3.4,1.1   c-4.1,19-10.9,38.3-7,57.8c0-4.3,0-5.9,0.1-9.6c0.2-0.3,0.2-0.6,0.1-0.9c1.8-3.2,0.4-6.8,1.2-10.3c1.5-1.4,1.3-3.1,1.2-4.9   c0.3,0,0.6-0.1,0.9-0.1c0.1,2,0.3,4.1,0.4,6.1c0.2,0,0.4,0,0.6,0c-0.6-11.3,1.3-22.3,3.9-33.3c1.9,1.2-0.2,3.7,1.6,4.9   c1.9-4.3,2-9.2,3.9-13.2c0.2,0.7,0.4,1.3,0.6,2c1.5-0.5,2.7-1,3.8-1.4c1.5-2.5,2.3-4.7,2.6-7.5c3.3-1,6.6-2.1,10.1-2.1   c2.1,2.1-0.5,5.5-0.6,8.2c0-1.7-0.3-2.7-1.7-3.8c-2.3,7-3.7,13.1-6.5,19.6c-0.9-7.1,3.1-13.8,1.8-20.6c-4.7,8.5-2.8,18.2-4.1,27.5   c-0.4,0.4-0.8,0.8-1.2,1.2c-4.4,0.5-4.4,8.7-2.3,11.5C750.3,311.6,746.7,339.5,759.2,363.5z M708.8,297.2   c-0.3,4.7-0.4,9.4,0.1,14.7c2.7-11.7,2.2-22.6,2.8-34.7C709.7,284.5,709.6,290,708.8,297.2z M727.7,305.4c-0.2,0-0.3,0-0.5,0.1   c0.1,0.8,0.1,1.6,0.2,3C728.2,306.8,728.2,306.8,727.7,305.4z" />
	<path display="inline" fill="#FAE3C2" d="M793.7,250c16.2-0.7,20.4,15.8,24.2,28.4c-0.8,0.8-1.5,1.6-2.4,2.5   c-1.1,9.1-1.4,17.4-0.3,26.4c-0.7-0.4-1.4-0.7-2.2-1.1c0.9-14.2-1.7-32.2-8.7-43.8c1.2,3.9,0.8,7.8,2.8,10.6c0,1.5,0,3,0,4.5   c-3.7,12.1,1.6,27.9-1.9,40.1c-1.6-4.3,1.6-10.3-1.4-13.7c-3.8,7.7,1.5,22.4-2.1,30c-2.4-22.9,3.9-45.9-0.9-68.5   c-6.4,10.8-4.4,25.5-7.9,37.7c-0.2,0-0.3,0-0.5,0c-0.9-17.9,0.4-36.6-7-53.2C787.9,246.9,790.8,251,793.7,250z" />
	<path display="inline" fill="#F5DEBE" d="M814.9,373.9c-1.2-1.4-2.9-1-4.5-1.3c8.2-27.8,13.3-57.4,10.4-85.8c0.2,0.3,0.3,0.6,0.3,1   c1.9,1.5,2.3,10.6,5.7,8.1c-5.2-12.3-8.1-25.3-13.6-37.5c2.1-0.8,3.6,1.2,5.4,0.9c0.5,0.3,0.9,0.7,1.4,1c-0.6,0.6-1.2,1.3-1.8,1.9   c14.9,19.9,14.3,45.8,9.7,69.1c-3.8-10,1.2-21.5-3-31.1c1.1,24.7-5.2,49.2-9.4,73.6C815.3,373.7,815.1,373.7,814.9,373.9z" />
	<path display="inline" fill="#F6E0C0" d="M825.5,379.6c-2.6,0.1-3.6-2.4-5.6-3.2c12.1-16.4,22.5-38.8,22.3-59.1   c-0.8,2.1-1.1,4.2-2.1,6.2c-2.2-10.8-0.4-22.4-0.9-33.4c0-1,0-1.9,1.3-2.1c9,17.6,8.2,38.3,4.4,57.2c-0.7,0.4-1.4,0.9-2.1,1.3   c0,0,0,0,0,0c0.3-2,1.7-4,0.8-6.1c-2-2.1,1.5-6.3-1.4-7c-3.2,14.7-8.6,31.1-17.8,41.9c0.9,1.9,2.6,0.7,3.9,1   C827.4,377.4,826.4,378.5,825.5,379.6z" />
	<path display="inline" fill="#F9E2C1" d="M782,217.9c15.3,1.1,25.9,19.1,26.4,33.2c-1.2-0.5-2-0.8-2.8-1.1   c0.6-7.2-7.7-24.9-15.4-14.9c1.4,2.2,0.8,4.7,1.2,7c-3.8,2.9-11.3-2.1-16.2-2.2c0.8-2,1.1-4.5,2.3-6.2   C782,229.3,779.7,223,782,217.9z" />
	<path display="inline" fill="#D6BFA0" d="M820.8,286.8c1.2,17,1.7,35.9-3,52.7c-0.9-16.3,1.7-34.7-2.3-49.9   c-0.1,1.9-0.2,3.5-0.3,5.2c-0.3,0-0.6,0-0.9,0c-0.5-4.7,1.8-9.1,1.3-13.8c0.9-0.9,1.6-1.7,2.4-2.5   C819.8,280.7,819.8,284,820.8,286.8z" />
	<path display="inline" fill="#D5BF9F" d="M782,217.9c-2.4,5.1,0,11.4-4.7,15.7c-1.1,1.7-1.5,4.2-2.3,6.2c-2-0.2-2-0.2-2.1-2.4   c1.4-0.8,1-2.2,1-3.5c0.4-0.4,0.7-0.8,1.1-1.2c0.2-0.2,1.2,0,0.5-0.8c-2,2.7-4.6,3-4.4,7.2c-1.5,0.5-2.9,0.5-4.4,0.2   c-1.2-3.9-0.1-9.2,2-12.8c2.2,0.1,3.9-2.2,4-4.2l-0.1,0.1c1.8,0,2.9-0.8,3.6-2.4l-0.1,0.1c1,0,2-0.1,2.4-1.2l-0.1,0.1   C779.7,218.7,780.9,218.3,782,217.9z" />
	<path display="inline" fill="#F3DDBD" d="M824.5,263.8c11.4,12.2,14.2,28.5,12.5,44.7c-0.5-0.1-1.1-0.2-2-0.4   c-0.4-15.6-7.4-31.7-11.7-45.3C823.7,263.1,824.1,263.4,824.5,263.8z" />
	<path display="inline" fill="#221F1A" d="M761.6,250.4c0.1-2.7,2.8-6,0.6-8.2c4.6,0.4,9.9-1.4,14.1,0.9c-3.5,0.7-6.9-1.1-10.3,0.3   c-5,16.1-2.5,34.3-5.7,50.1C757.3,279.4,759.2,264.5,761.6,250.4z" />
	<path display="inline" fill="#CBB89A" d="M756.8,240.9c-1.8-0.7-0.9-2.3-1.1-3.5c5.8-8.4,11-18.9,22.5-19.9c0.1,0.5,0.2,1,0.3,1.6   l0.1-0.1c-1,0.1-2,0.1-2.4,1.2l0.1-0.1c-1.5,0.3-2.9,0.9-3.6,2.4l0.1-0.1c-7.5,1.3-9.8,10.1-9.2,16.8   C761.2,239.9,759,240.4,756.8,240.9z" />
	<path display="inline" fill="#2F2B25" d="M823.3,262.8c1.7,10.5,12.2,23.7,7.9,35.7c-2.5-12.6-5-25.8-13.1-36.2   c0.6-0.6,1.2-1.3,1.8-1.9C821.2,260.9,822.7,261.2,823.3,262.8z" />
	<path display="inline" fill="#443F36" d="M837,308.5c0.5-8.4,0.4-16.9-0.8-25.2c0.5-0.2,1-0.4,1.8-0.7c1.6,1.3,2.4,3.2,2.6,5.4   c-3.9,7.7,1,19.8-2.5,28.6c-0.3,0-0.7,0.1-1,0.1C837,313.9,837,311.2,837,308.5z" />
	<path display="inline" fill="#CCC2A6" d="M774,243.3c7-0.4,13.7,1.9,20.2,4.5c-0.2,0.9-0.4,1.6-0.5,2.2c-2.9,1-5.8-3.1-8.1-0.1   c-1.4-1.3-2.2-4.2-4.8-2.9c0.3,1.6-0.5,3.1-1.2,4.5c-1.3-3.1-1-8.3-5.6-7.3C774,243.9,774,243.6,774,243.3z" />
	<path display="inline" fill="#C5B59C" d="M835.6,368.1c-1,1.3-2,2.5-3.1,3.8c-0.4-0.3-0.9-0.6-1.3-0.9c4.2-8.3,8.1-16.5,9.4-25.7   c0.5,0.4,0.9,0.9,1.4,1.3C841.3,353.9,839.6,361.7,835.6,368.1z" />
	<path display="inline" fill="#D8C6A9" d="M796,234.9c4.6,3.3,5.9,8.4,7.6,14.1c-1.7-0.6-2.9-1-4-1.4c0.1-4.2-0.9-7.8-4.9-10   c-0.3-0.7-0.6-1.4-0.9-2.2C794.6,235.2,795.3,235,796,234.9z" />
	<path display="inline" fill="#372D27" d="M794.7,237.6c4,2.2,4.9,5.9,4.9,10c-1.6-0.8-3.7-0.4-4.9-2.1c0.7,0,1.4,0,2.5,0   c-0.2-1.1-0.3-1.9-0.5-3.3c-0.9,1.5-1.4,2.4-2,3.3c-1,0-2,0-2.1-1.4C795.7,243.1,794.1,240,794.7,237.6z" />
	<path display="inline" fill="#332E27" d="M820.8,286.8c-0.6-2.3-1.3-4.7-1.9-7c0.4-0.9,0.8-1.7,1.2-2.6c1.1,3.5,2.3,7,3.4,10.5   c-0.4,0.8-0.7,1.5-1.1,2.3c-0.5-0.7-0.9-1.5-1.3-2.2C821.2,287.4,821.1,287.1,820.8,286.8z" />
	<path display="inline" fill="#797766" d="M794.7,237.6c-0.1,0.7-0.2,1.5-0.2,2.2c-0.5-0.7-1-1.4-2.1-3.1c0,2.8,0,4.1,0,5.4   c-0.3-0.1-0.8,0-1,0c-0.4-2.3,0.2-4.8-1.2-7c2-0.3,4.3-2.3,5.8-0.2c-0.7,0.1-1.4,0.3-2.2,0.4C794.1,236.2,794.4,236.9,794.7,237.6z   " />
	<path display="inline" fill="#7C6D5B" d="M766.1,227.3c1.1-2.6,3.6-3.4,5.8-4.6c0.3,0.3,0.6,0.6,0.8,0.8c-0.7,1.8-1.8,3.2-3.8,3.2   c-0.5,0.9-1.1,1.9-1.6,2.8C766.9,228.7,766.5,228,766.1,227.3z" />
	<path display="inline" fill="#AEA089" d="M792.4,242.1c0-1.3,0-2.6,0-5.4c2.2,2.9,3.8,5.7,0.2,7.4   C792.5,243.4,792.4,242.7,792.4,242.1z" />
	<path display="inline" fill="#786B5C" d="M842.9,346.4c0.7-0.4,1.4-0.9,2.1-1.3c-0.3,1.2-0.7,2.4-1,3.5   C842.8,348.3,842.7,347.4,842.9,346.4z" />
	<path display="inline" fill="#251F1B" d="M842.9,346.4c-0.2,1-0.1,2,1.1,2.3c-0.3,1.2-1.3,1.1-2.2,1.2c0.1-1.1,0.1-2.2,0.2-3.3   C842.3,346.6,842.6,346.5,842.9,346.4L842.9,346.4z" />
	<path display="inline" fill="#97816C" d="M771.8,236.3c0.1-1.4,1-2.1,2.3-2.3l0,0c0,1.2,0.4,2.6-1,3.5   C772.6,237.1,772.2,236.7,771.8,236.3z" />
	<path display="inline" fill="#2F2B25" d="M824.5,263.8c-0.4-0.3-0.8-0.7-1.2-1C823.7,263.1,824.1,263.4,824.5,263.8z" />
	<path display="inline" fill="#2F2B25" d="M819.9,260.4c-0.5-0.3-0.9-0.7-1.4-1C819,259.7,819.5,260,819.9,260.4z" />
	<path display="inline" fill="#E0C6B5" d="M442.4,542.5c1.6-0.9,3.1-1.4,4.9-1.1c1.4,1.2,2.5,2.2,4,3.4c6.5-1.5,13,3.7,18.7,2.3   c6.4,3.6,12.8,7.3,19.7,9.8C485,565.4,446.9,550.1,442.4,542.5z" />
	<path display="inline" fill="#5C4C46" d="M420.6,548.4c0.9-0.7,0.3-1.2-0.1-1.8c-1-1.5-1.5-3-0.7-4.8c2,1.6,4.9,5.5,5.6,7.5   C423.7,549.1,421.8,550.2,420.6,548.4z" />
	<path display="inline" fill="#55403B" d="M442.4,542.5c1.9,1.9,3.7,3.9,5.6,5.8c-1.2,0-2.3-0.1-3.5-0.1c-2.1-2.4-4.2-4.8-6.2-7.2   C439.7,538.9,441.1,541.8,442.4,542.5z" />
	<path display="inline" fill="#332421" d="M429.9,547.1c-0.5-1.6-2.3-3.4,0.8-3.1c1.2,1.8,2.3,3.6,3.5,5.4c-0.3,0.4-0.7,0.8-1,1.2   c-0.4,0-0.8-0.1-1.2-0.1l0.1,0.1c-0.8-0.7-1.6-1.5-2.4-2.2c1.4-0.5,0.8-0.9,0-1.3L429.9,547.1z" />
	<path display="inline" fill="#5C4C46" d="M417.2,547.1c0.8,0.3,1.6,0.7,2.4,1C418.5,548.3,417.7,548.2,417.2,547.1z" />
	<path display="inline" fill="#E1C7B6" d="M429.7,547c0.8,0.4,1.4,0.9,0,1.3C429.8,547.9,429.7,547.5,429.7,547z" />
	<path display="inline" fill="#E1C7B6" d="M430.8,549.3c0.5,0.4,0.9,0.8,1.4,1.2C431.7,550.2,431.2,549.7,430.8,549.3z" />
	<path display="inline" fill="#E1C7B6" d="M432,550.5c0.4,0,0.8,0.1,1.2,0.1c-0.1,0.3-0.3,0.5-0.4,0.8   C432.5,551.1,432.3,550.8,432,550.5z" />
	<path display="inline" fill="#E0C7B6" d="M672,231.7c-0.1-4.5-0.8-9.1-1.2-13.5c1.2-0.6,2.1-0.9,3.9-1.8c-1.4-0.6-2.1-0.9-2.6-1.1   c0.8-7,6.6-12.2,9.9-18.1c2.6-4.7,8.6-3,13-2.3c-2.2,0.2-4.5,0.3-6.6,0.5c-1.1,11,11.3,24.1,4.5,34.6c-1.6-0.3-3-0.5-4.6-0.8   c-1.7-1.7-2.8-2.5-5-4.2c0.9,8.3-1.3,14.8-1.1,22.7C666.5,243.6,674.6,243.2,672,231.7z" />
	<path display="inline" fill="#150F0C" d="M673,244.5c15.3,4,30.4,14.4,44.9,17.1l-0.1-0.1c0.4,2.1,0.6,4.1-1.7,5.4   c-2.6,6.2-6.9,11.6-9.8,17.6c-5.8-9.1-17.9-11.8-27.5-12.4c-3.6,3.3-6.8,6.2-10,9.1c-0.5,0-1-0.1-1.5-0.1c2.2-4.5,5.8-7.9,9.1-11.6   c10.9-0.3,20.5,3.7,29.8,9.4c2.7-4.5,5.3-8.8,8.1-13.3c-14.1-8.2-29-15-44.8-19.9C670.6,245.2,672.2,246,673,244.5z" />
	<path display="inline" fill="#33281C" d="M657.1,256.8c-5.5-2.2-11-4.4-16.4-6.5c0.8-0.4,1.7-0.8,2.5-1.2c4.9,1,12,2.8,13.8,7.9   L657.1,256.8z" />
	<path display="inline" fill="#F6D9C7" d="M716.6,261.4c-10.7-2.3-23.2-9.7-34.4-13.9c-0.3-7.9,1.9-14.3,1.1-22.7   c2.2,1.6,3.3,2.5,5,4.2c1.6,0.3,3,0.5,4.6,0.8c6.9-10.5-5.6-23.5-4.5-34.6c11.8-1.9,23.9-1,28.7,11.8c11.9,8.9,16.2,17.9,13.2,33.1   c-5-5.1,0.9-10.9-2.8-15.9c-3.1,9.6-1.5,17.3,0,26.7c-2.3,1.9-4.8,4-7.2,6c-1.6,0.1-1.3,2.3-2.7,3.1c0,0-0.1,0.2-0.1,0.2   C717.3,260.7,717,261.1,716.6,261.4z M714.1,217c0.9-1,1.6-1.2,0.8-2.2C713.4,215.2,713.3,215.4,714.1,217z M717.1,210.9   c-0.5-0.5-0.7-0.7-1-0.9C714.5,211.9,715.1,212.6,717.1,210.9z M713.5,222.4c0.2,0,0.3,0,0.5,0c0-0.6,0-1.2,0-1.8   c-0.2,0-0.3,0-0.5,0C713.5,221.1,713.5,221.8,713.5,222.4z" />
	<path display="inline" fill="#746957" d="M726,256c0.4,0.7,0.7,1.3,1.1,2.1c-5.3,9-8.8,18.9-11.5,28.9c-0.4-0.5-0.8-0.9-1.1-1.4   c1.9-8.9,4.8-17.4,9.1-25.5c0.4-0.8,1.3-1.6-0.1-2.2C724.3,257.3,725.2,256.6,726,256z" />
	<path display="inline" fill="#F4DFBF" d="M752.2,244.3c-0.3,2.8-1.1,5-2.6,7.5c-1,0.4-2.2,0.8-3.8,1.4c-1-2.2,0.1-4.3,0.6-6.5   c0.7-0.4,1.5-0.8,2.2-1.2c1,0.2,1.9,0.2,2.4-0.9C751.4,244.4,751.8,244.3,752.2,244.3z" />
	<path display="inline" fill="#655F50" d="M746.5,246.6c-1.8,5.9-3.1,11.7-5.1,17.8c-1.8-1.2,0.3-3.7-1.6-4.9c-0.3-1-0.3-2,0.7-2.7   c0.3,0.2,0.5,0.4,1,0.7c0.9-2.9,1.7-5.8,2.6-8.7c-0.3-0.4-0.7-0.7-1-1.1C743.7,246,745.2,246.7,746.5,246.6z" />
	<path display="inline" fill="#584E41" d="M735,253.5c-1.5,2.8-2.9,5.5-4.4,8.3c-0.4-0.4-0.9-0.9-1.3-1.3c0.4-2.3,4.9-6.4,2.2-8.1   c1.1-1.6,2.7-2.2,4.6-2.3C735.9,251.3,734.9,252.2,735,253.5z" />
	<path display="inline" fill="#DCCCAF" d="M736,250.9c0.1-0.3,0.1-0.5,0.2-0.8c1-0.3,2.1-0.7,3.2-1c0.4,2.2,0.4,2.2-0.9,5.5   c-1.1-0.4-2.3-0.8-3.4-1.1C735,252.5,735.5,251.7,736,250.9z" />
	<path display="inline" fill="#BAAA91" d="M744.1,248.9c-0.8,2.9-1.7,5.7-2.6,8.7c-0.5-0.4-0.8-0.5-1-0.7c0.8-2.7,1.5-5.3,2.3-8   C743.2,248.8,743.7,248.9,744.1,248.9z" />
	<path display="inline" fill="#2B2720" d="M732.6,294.8c0.1,2.4,0.5,4.9-0.9,7.1C731.8,299.5,730.8,296.8,732.6,294.8z" />
	<path display="inline" fill="#2B2720" d="M730.6,293.6c-0.3-1.7-0.3-3.5,0.8-5C731.4,290.4,732.4,292.2,730.6,293.6z" />
	<path display="inline" fill="#2B2720" d="M734,286.8c0.1,1.7,0.3,3.5-1.2,4.9C732.9,289.9,731.7,287.9,734,286.8z" />
	<path display="inline" fill="#2B2720" d="M731.6,302.8c0,1.5-0.1,3-0.1,4.5c-0.3,0-0.7,0-1,0c0-1.5,0-3,0.1-4.6   C730.9,302.8,731.3,302.8,731.6,302.8z" />
	<path display="inline" fill="#2B2720" d="M731.7,285.6c0.3-1.3,0.5-2.5,0.8-3.8C732.7,283.1,733.3,284.6,731.7,285.6z" />
	<path display="inline" fill="#D8C1A1" d="M751.1,244.5c-0.5,1.1-1.4,1.1-2.4,0.9C749.5,245.1,750.3,244.8,751.1,244.5z" />
	<path display="inline" fill="#D8C1A1" d="M716.6,261.4c0.3-0.4,0.7-0.8,1-1.1c0.1,0.4,0.2,0.8,0.2,1.2   C717.5,261.5,717,261.5,716.6,261.4z" />
	<path display="inline" fill="#D8C1A1" d="M717.7,260.2c0.3-0.3,0.5-0.6,0.8-0.9C718.3,259.5,718,259.8,717.7,260.2z" />
	<path display="inline" fill="#D8C1A1" d="M719.1,258.4c0-0.9,0.4-1.3,1.3-1.3C720,257.5,719.5,258,719.1,258.4z" />
	<path display="inline" fill="#DBC2A7" d="M744.1,248.9c-0.4,0-0.9,0-1.3,0c-0.1-0.4,0-0.7,0.3-1   C743.4,248.1,743.8,248.5,744.1,248.9z" />
	<path display="inline" fill="#DBBFAF" d="M477.9,548.3c0.8-0.4,1.7-0.8,2.8-1.3c7.1,2.8,15,4.9,21.4,9.2   C494,555,484.5,553.7,477.9,548.3z" />
	<path display="inline" fill="#DBBFAF" d="M503.1,556.3c1.4-0.3,3.1,0.3,3.9-1.5c1,0.4,1.9,0.8,3.3,1.3   C506.7,557.5,506.7,557.5,503.1,556.3z" />
	<path display="inline" fill="#DBBFAF" d="M506.9,554.8c-2.7,0.6-3.7-1.4-4.7-3.3C503.7,552.7,505.3,553.7,506.9,554.8z" />
	<path display="inline" fill="#3C2723" d="M474.6,537.8c-1.6-0.3-2.6-1.3-3.5-3c2.2-0.6,3.5,0.7,4.8,1.9   C475.5,537,475,537.4,474.6,537.8z" />
	<path display="inline" fill="#F6EFD0" d="M199.1,401.6c2.9,3,7.3-0.6,10.3,1.9l0.1,0.3c-6.8,0.1-13.6-0.3-20.2,0.9   c-1.4-1.3-2.2-0.7-3.4,0.6c0.2,0.1,0.5,0.3,0.7,0.4c0.1,0.4,0.3,0.5,0.7,0.5c0.7,0.3,1.4,0.6,2,1l0.5,0c0.2,0.3,0.2,0.6,0,1   c-1.1,0.1-1.8,0.6-1.7,1.8c5.3,3.2,23.8,6.5,21.5-2.8c1.1-0.2,2.3-0.3,3.4,0c-1.7,11.2-4.7,22.5,0.2,33.3   c-3.3,2.5-8.3,0.7-12.3,1.2c0,0.3,0,0.5,0,0.8c1.7,0,3.4,0.2,5.1,0.3c1.7,1.3,6.2,2.2,6.8-0.1c0.4,0,0.8,0.1,1.2,0.1   c0.4,3.4,3.4,5.5,3.7,9c-9.6,5.4-22.4,6.1-33.4,5.8c-2.3-2.5-4.4-4.9-6.7-7.4c1-19.7,11-40.8,2.1-59.9c1.9,0.1,3.8,0.1,5.7,0.2   C185.4,395.3,194.5,400.6,199.1,401.6z M191.1,443.6c1.8,0.1,3.3-0.4,5.2-2.5c-3.9,0.3-5.7,0.7-8.6,2.2c0.1,0.2,0.2,0.5,0.2,0.7   C189,443.9,190.1,443.8,191.1,443.6z M188.9,418c5.4,3.9,18.3,6,19.5-2.2C202.2,415.4,192.4,414.3,188.9,418z M190.4,426.7   c3.8,4.3,14,3.6,16.8-1.4C206.2,421.7,192.4,424.2,190.4,426.7z M204.5,434.5c1.1-6.7-9.2-5.1-11.8-0.7   C196.7,435,200.5,435.4,204.5,434.5z" />
	<path display="inline" fill="#6C302A" d="M205,441.7c2.7-0.3,6,0.9,8.1-1.2c1,0.5,1.1,1.3,0.8,2.3c-3-0.4-6,0.2-9-0.1   C204.9,442.3,204.9,442,205,441.7z" />
	<path display="inline" fill="#E9D4B5" d="M812.9,442.7c-1.7-0.8-0.7-2.5-1.2-3.8c2.5-14.1,1.7-29.8,0.2-44.5   c1.6-1.6,3.7-2.3,6.2-3.6c-0.1,12.5-0.7,23.6-1.6,35.7l0,0c-2,3.1-0.6,7.1-2.4,10.4C812.1,438.4,813.7,440.7,812.9,442.7z" />
	<path display="inline" fill="#251F1B" d="M840.6,345.3c-1.2,9.3-5.2,17.4-9.4,25.7c0.4,0.3,0.9,0.6,1.3,0.9   c-0.6,0.7-1.3,1.4-1.9,2.1c-1.4-2.5-3.5,2.9-6.2,1.3c7.4-8.2,10.9-19.4,15.2-30.9C840,344.6,840.3,344.9,840.6,345.3z" />
	<path display="inline" fill="#4B4339" d="M812.9,442.7c0.1-0.7,0.2-1.3,0.3-2c1.7-2,0.6-4.9,2-7.2c0.4,0,0.9,0.1,1.3,0.1   c0.3,4.4-2.5,8.1-2.4,12.5c-0.4-0.4-0.8-0.8-1.2-1.2C812.9,444.2,812.9,443.4,812.9,442.7z" />
	<path display="inline" fill="#CEBBA0" d="M814.1,446.1c0.2-3.1,0.8-6.1,2.2-8.8c-0.2,3.4,0.6,6.9-1.1,9.9   C814.8,446.8,814.4,446.4,814.1,446.1z" />
	<path display="inline" fill="#2E2C28" d="M816.4,426.6c0.2-4.3,0.4-8.6,1.1-12.9C816.9,417.9,819.1,423.2,816.4,426.6z" />
	<path display="inline" fill="#847463" d="M814.1,446.1c0.4,0.4,0.7,0.7,1.1,1.1c0.1,0.4,0.1,0.8,0.2,1.3c-0.6,0.6-1.3,1.2-1.8,1.7   c-0.8-1.5-2.7-3.8-0.7-5.2C813.3,445.3,813.7,445.7,814.1,446.1z" />
	<path display="inline" fill="#BAB79C" d="M824.5,375.2c2.6,1.7,4.7-3.8,6.2-1.3c-0.8,0.8-1.5,1.5-2.3,2.3   C827,376,825.3,377.1,824.5,375.2z" />
	<path display="inline" fill="#2E2C28" d="M816.4,433.6c-0.4,0-0.9-0.1-1.3-0.1c0.2-2.4-0.3-4.9,1.2-6.9   C816.4,428.9,816.4,431.2,816.4,433.6z" />
	<path display="inline" fill="#2E2C28" d="M815.6,446.2c0.2-0.5,0.4-1,0.6-1.5C816,445.1,815.8,445.6,815.6,446.2z" />
	<path display="inline" fill="#F6D9C7" d="M825.6,379.5c0.3-0.3,0.5-0.6,0.8-0.9C826.1,378.9,825.9,379.2,825.6,379.5z" />
	<path display="inline" fill="#C7BCAC" d="M498.5,532.3c0.4,0.6,0.2,1.3,0.2,2c-4.7-0.5-7.5-1.5-12.2-3.8c1.6-0.5,2.3-0.6,3-0.8   C492.4,530.7,495.5,531.5,498.5,532.3z" />
	<path display="inline" fill="#D8C2B1" d="M498.6,534.3c0-0.4,0.1-0.8,0.1-1.2c2.3,0,22,2.8,16.8,6.4   C509.9,537.7,504.3,536,498.6,534.3z" />
	<path display="inline" fill="#312925" d="M568.8,354.3c-1.7-1-3.4-1.6-3.5-3.8c5.1-0.6,12,1.1,18.3,0.6c0,0.3,0,0.5,0,0.8   C578.7,353.3,573.9,354.5,568.8,354.3z" />
	<path display="inline" fill="#241F1C" d="M610,315.3c0.9-3.7,2.2-7.5,0.5-12.7C616.2,304.6,616.9,319.3,610,315.3z" />
	<path display="inline" fill="#1D1A18" d="M450.4,308.4c0.6,0.9,1.3,1.8,2.1,2.9c-1.8,3.9-3.7,8-5.5,12.1c-0.4-0.4-0.8-0.8-1.3-1.2   c1.2-4.7,2.2-9.4,4.8-13.7L450.4,308.4z" />
	<path display="inline" fill="#4A3531" d="M572.3,327.2c6.4-2,11.9-5.7,17.5-9.1c2.3,4.1-12.8,9.3-16.5,10.2   C573,327.9,572.6,327.5,572.3,327.2z" />
	<path display="inline" fill="#2B2320" d="M356.3,357.6c-1.9,0.6-2.4,3.2-5.1,3.9c0.5-3.9,3-6.4,4.3-9.3c0.8-0.3,1.7-0.6,2.6-1   C360.3,354.5,356.9,355.6,356.3,357.6z" />
	<path display="inline" fill="#6C413C" d="M435.2,514.7c-3,0-5.5,0-8.3,0C428.2,511.8,434.1,511.4,435.2,514.7z" />
	<path display="inline" fill="#44302C" d="M450.5,308.6c1.4-2.8,4.5-6.3,7.8-5.2c-2.3,2.6-4.7,4.4-7.9,5.1L450.5,308.6z" />
	<path display="inline" fill="#715952" d="M368.7,343.8c1.9-1.3,4-2.3,6.5-3.1c-1,2.5-1,2.5-5,4.5   C369.7,344.8,369.2,344.3,368.7,343.8z" />
	<path display="inline" fill="#632320" d="M564.5,330.9c-3.5,1.7-3.5,1.7-6.8,1.3C559.6,330.5,561.5,329.9,564.5,330.9z" />
	<path display="inline" fill="#4A2B28" d="M566.8,308.3c-2.1,0.4-4.3,0.9-6.8,1.4C562.2,307.2,562.2,307.2,566.8,308.3z" />
	<path display="inline" fill="#302C29" d="M418.3,519.6c-1,0.2-2,0.4-3.9,0.9c1.2-1.5,2-2.4,2.7-3.2c1-0.2,2-0.4,3.3-0.7   C421.1,518.6,419,518.7,418.3,519.6z" />
	<path display="inline" fill="#958479" d="M445.7,322.2c0.4,0.4,0.8,0.8,1.3,1.2c0.2,2.5-1.3,3.8-3.4,4.6c-1.2-1.5,0.5-1.9,0.8-2.8   C444.8,324.2,445.2,323.2,445.7,322.2z" />
	<path display="inline" fill="#322623" d="M368.7,343.8c0.5,0.5,1,0.9,1.4,1.4c-1.2,0.8-2.4,1.6-3.5,2.4   C364,345.8,367.3,344.6,368.7,343.8z" />
	<path display="inline" fill="#32312D" d="M439.9,334c-0.8,2.6-2.5,2-3.7,2.4C437.1,334.9,437.1,334.9,439.9,334z" />
	<path display="inline" fill="#6D5851" d="M596.4,345.9c1-1.5,2.2-2.1,4-1.4C599.5,346.4,598.3,347,596.4,345.9z" />
	<path display="inline" fill="#785049" d="M583.5,351.9c0-0.3,0-0.5,0-0.8c1.7-1.3,3.7-1.4,5.7-1.1   C588,351.8,585.6,352.1,583.5,351.9z" />
	<path display="inline" fill="#94877D" d="M572.3,327.2c0.3,0.4,0.7,0.7,1,1.1c-1.8,0.9-1.8,0.9-4.9,0.6   C570.2,328.1,571.2,327.6,572.3,327.2z" />
	<path display="inline" fill="#492B27" d="M547.1,331.7c1.7,0,2.8,0,4.6,0C549.9,333.2,548.8,332.8,547.1,331.7z" />
	<path display="inline" fill="#5C3530" d="M540.8,330.3c-0.9-0.1-1.9-0.1-2.8-0.2c0-0.2,0-0.5,0-0.7c0.9,0,1.9,0,2.8,0   C540.8,329.7,540.8,330,540.8,330.3z" />
	<path display="inline" fill="#63514B" d="M432.2,342.4c0.3-0.9,1-1.1,1.8-1.3C434.5,342.4,433.2,343.2,432.2,342.4z" />
	<path display="inline" fill="#E1C7B6" d="M585.6,352c0.8-0.3,1.7-0.5,2.5-0.8C587.6,352.3,586.6,352.1,585.6,352z" />
	<path display="inline" fill="#171310" d="M667.2,281c0.5,0,1,0.1,1.5,0.1c-9,23.7-17.4,48.3-34.7,67.5c-0.1-0.7-0.1-1.5-0.5-2.1   C648.9,326.6,656.2,302.7,667.2,281z" />
	<path display="inline" fill="#27120D" d="M657,256.9c1.5,0.6,2.9,1.2,4.8,2c-3.3,0.9-3.7,0.7-4.6-2.1L657,256.9z" />
	<path display="inline" fill="#AC9A6D" d="M669.2,262.1c-0.8,1-1.8,0.2-2.7-0.3C666.3,259.8,668.9,260.8,669.2,262.1z" />
	<path display="inline" fill="#4E2B20" d="M672.6,264.4c1.3-0.2,2-1.1,2.4,0.2C674.5,265.4,673.7,264.6,672.6,264.4z" />
	<path display="inline" fill="#F6D9C7" d="M633.6,346.5c0.1,0.2,0.2,0.4,0.3,0.6c-0.2,0-0.6,0-0.8-0.1   C633.1,346.7,633.3,346.6,633.6,346.5z" />
	<path display="inline" fill="#EBDA8F" d="M591.6,401.4c0.4,0.4,0.7,0.7,1.1,1.1C592.3,402.2,592,401.8,591.6,401.4z" />
	<path display="inline" fill="#EBDA8F" d="M592.7,402.6c0.9,0.5,0.9,0.5,0.2,1.2C592.8,403.5,592.8,403.1,592.7,402.6z" />
	<path display="inline" fill="#0F0C0B" d="M700.6,314.1c19,1.5,16.6,26.4,16,40.1c-1.3-1-2.7-2.1-4.1-3.2c-1,2.2-0.4,3.8,0.5,5.5   c-0.3,1.1-0.7,2.3-1,3.4c-0.7-0.3-1.5-0.6-2.2-0.9l0.1-0.1c-0.5-1.9,0.4-4-1.1-5.7c0-2.1,0.2-4.8-2.9-4.5c2.1-3.2,6.5-3.1,8.2-5.2   c-0.7-0.4-1.4-0.8-2.3-1.4c0.7-6,1.5-12.1-0.1-18.5c-2.1-1.9-4.6-4-6.6-5.8c-1.6-0.2-2.7-0.4-4.1-0.6c-15.8,12-5.4,19.5-10.9,33.4   c-3.7-4.1,2-9.9,0.1-15C686.1,326.7,693.2,318.4,700.6,314.1z" />
	<path display="inline" fill="#312A27" d="M676.8,296.1c-0.3,4.7-0.5,9.2-0.8,14.2C672.6,308,673.1,297.8,676.8,296.1z" />
	<path display="inline" fill="#37332B" d="M701.9,297.3c-1,2.7-1.8,5.5-3.8,7.6c-3.2-2.6,1.7-7.1,2.4-10.1c1.2-0.4,1.3-1.3,1.1-2.4   l0,0c0.4,0.1,0.7,0.1,1.1,0.1C702.6,294.2,702.8,295.9,701.9,297.3z" />
	<path display="inline" fill="#352E26" d="M704,281.1c0.9,1,1.7,2.1,2.3,3.3c-0.8,1.9-1.7,3.7-2.5,5.6c-0.4-0.8-0.7-1.6-1.1-2.4   C703,285.4,704.9,283.5,704,281.1z" />
	<path display="inline" fill="#22201D" d="M690.3,286.8c2.6-0.7,4.3-1.8,6.9,0.3c-2,1.5-3.9,0.6-5.5,1.1   C691.2,287.7,690.7,287.2,690.3,286.8z" />
	<path display="inline" fill="#74675E" d="M690.3,286.8c0.4,0.5,0.9,0.9,1.3,1.4c-2.3,1.5-5.1,1.7-7.5,2.9   C685.7,288.8,687.8,287.5,690.3,286.8z" />
	<path display="inline" fill="#534843" d="M668.2,334.7c0.3-1.7,1.3-3,2.6-5c0.8,3-0.6,4.6-1.2,6.3   C669.1,335.6,668.6,335.1,668.2,334.7z" />
	<path display="inline" fill="#8A7D73" d="M668.2,334.7c0.5,0.4,0.9,0.9,1.4,1.3c-0.1,1.1,0,2.3-1.7,2   C667,336.8,667.1,335.7,668.2,334.7z" />
	<path display="inline" fill="#625849" d="M702.7,287.6c0.4,0.8,0.7,1.6,1.1,2.4c-0.3,0.8-0.7,1.7-1,2.5c-0.4,0-0.7,0-1.1-0.1   C701.6,290.7,701.2,289,702.7,287.6z" />
	<path display="inline" fill="#625849" d="M701.7,292.4c0.2,1,0.1,2-1.1,2.4C700.5,293.8,700.5,292.8,701.7,292.4z" />
	<path display="inline" fill="#564B32" d="M507.5,381.3c0.4,1.4,0.4,2.6,0.1,4.1c-0.7-0.3-1.2-0.4-1.9-0.7c0.4-1.2,0.7-2.4,1.1-3.5   C507.1,381.3,507.3,381.3,507.5,381.3z" />
	<path display="inline" fill="#9F9361" d="M509.2,370.1c-0.3,2-0.4,2.8-0.6,3.7C506.7,372.8,506.7,372.8,509.2,370.1z" />
	<path display="inline" fill="#F4D7C5" d="M698.3,320.1c0.9-1,1.8-2,2.5-2.8c1.3,0.2,2.4,0.3,4.1,0.6c2.1,1.8,4.5,3.9,6.6,5.8   c1.6,6.4,0.8,12.5,0.1,18.5c0.9,0.5,1.6,0.9,2.3,1.4c-19.8,5.8-7.1,29.5-15.7,43.1l0,0c-2.7-4.9-6.5-39.2,2.2-38.1   c6-6.5,11.8-14.5,4.6-22.6l0,0C705.7,321.5,700.3,322.6,698.3,320.1z" />
	<path display="inline" fill="#251F1C" d="M706.1,327.2c6.3,8.8-1.4,19-9.1,22.4c-1.1-0.2-2.1-0.5-2.4-1.7c1.7-2.8,6-1.8,6.6-5.7   c-0.4-1.1-1.1-1.9-2.1-2.6c-0.3,0-0.5,0-0.8,0c-0.5-0.5-0.9-1-1.4-1.4c0-1-0.1-1.9-0.1-2.9c0.5-0.5,0.8-1.3,1.5-1.6   c0,0.7,0,1.3-0.1,2c1.4,1.8,2.8,2.8,4.6,4.5c1-1.1,2.1-2.3,3.2-3.4c-1.1-3.6-0.8-6.5-3.2-9c0-0.3,0-0.6-0.2-0.9   c0-0.8,0-1.5,0.1-2.3c0,0,0,0,0,0c0.7,0.4,1.5,0.8,2.2,1.2l0,0C705.4,326.3,705.8,326.7,706.1,327.2z" />
	<path display="inline" fill="#2B221F" d="M697.1,338.2c0.5,0.5,0.9,1,1.4,1.4c-1.2,1.6-2.4,3.1-3.5,4.6c0.5,0.8,0.9,1.4,1.2,2.1   c-0.5,0.5-1,1.1-1.5,1.6c-0.7-1.3-1.6-2.1-3.1-2.4c0-2.8,0-5.6-0.1-8.5c0.6,1.5,1.1,3,1.7,4.5C695.6,341.8,695.8,339.4,697.1,338.2   z" />
	<path display="inline" fill="#A28C81" d="M668.9,361.7c-0.8,2-2.5,2.5-4.7,3C665.1,362,667.2,362.3,668.9,361.7z" />
	<path display="inline" fill="#84746A" d="M683.6,355.8c-1.2,1.2-2.6,1.8-4.6,1.2c1.1-0.8,2.2-1.7,3.4-2.5   C682.7,354.9,683.1,355.4,683.6,355.8z" />
	<path display="inline" fill="#766158" d="M675.2,358.5c-0.2,3.5-1.7,2.5-3,2.1C673,360.1,673.8,359.5,675.2,358.5z" />
	<path display="inline" fill="#3F2623" d="M683.6,355.8c-0.4-0.4-0.8-0.8-1.2-1.3c1-0.7,1.9-1.4,3.2-2.4   C686.1,354.4,684.7,355,683.6,355.8z" />
	<path display="inline" fill="#EF8A6A" d="M326.6,330.5c0.9-2.1,1.7-4.2,0.5-6.9c-1.3,0.5-2.6,1-4,1.6c0,5.1,0,9.9,0,15.9   c-3.7-4.9-6.1-10.9-3.5-16.5c-0.9-0.1-1.6-0.2-2.3-0.3c3.4-4.4-1.5-12,3-15.6c5.8,1,1,9.2,3.4,13.4c1-0.5,1.9-1,2.9-1.6   c-1.4-6.7-2.5-14.6,0-20.6c2.4-0.3,4.8-0.5,7.3-0.8c0.7-2.5,1.5-5,2.1-7.2c1.9-1.3,3.1,0.2,4.4,0.7c-0.1,1.1-0.1,2.2-0.2,3.4   l0.1-0.1c-1.3,2.3-2.7,18.8,1,19.4c0.4,1.5,2.4,2.8,0,4.7c-0.6-0.9-1.2-1.7-1.8-2.6c-1.1,6,1.5,12.5,0.4,19   c-0.4,0.1-0.9,0.2-1.6,0.4c-1.5,2.4,0.4,4.8,0.7,7.5c-0.6,0.7-1.2,1.4-1.8,2.1c-3.7-0.9-2.9-5.7-3.9-8.8c-0.8,0.6-1.2,1-1.9,1.5   c-0.7-1.9-1.3-3.8-2.1-6.3c-0.3,1.1-0.5,1.7-0.6,2.3C327.7,333.6,328.2,331.3,326.6,330.5z M332.6,303.5c-0.4,1.7,0.3,4.1-0.9,5.4   c-0.5-0.7-0.8-1.3-1.6-2.5c0.9,4.3-2.3,10.8,2.2,11.9C332.2,313.2,334.1,308.5,332.6,303.5z M333.3,320.4c-2.3-1.1-3.6,0.2-5.8,1.7   C330.2,322.4,332,322.5,333.3,320.4z" />
	<path display="inline" fill="#895746" d="M341.4,315.3c-3.7-0.5-2.4-17.1-1-19.4C340.7,302.3,339.6,309,341.4,315.3z" />
	<path display="inline" fill="#855241" d="M326.6,330.5c2.5,2.4,2.2,6.7,2.4,10.1c-0.4,0.7-0.8,1.5-1.2,2.2   C327.5,338.7,325.7,334.7,326.6,330.5z" />
	<path display="inline" fill="#9C604B" d="M356.5,315.6c-2.6,1.8-5,0.6-8.2,2.2c1.7-2.9,4.1-2.5,6-3.3   C355,314.9,355.8,315.2,356.5,315.6z" />
	<path display="inline" fill="#75493B" d="M345.4,322c0.8,2.6,0.9,5.1,0,8.2C344.6,327.1,344.8,324.5,345.4,322z" />
	<path display="inline" fill="#653A2D" d="M317.3,324.4c0.7,0.1,1.4,0.2,2.3,0.3c-0.4,0.8-0.8,1.5-1.1,2.1c-1,0-2,0-4,0   C316,325.6,316.6,325,317.3,324.4z" />
	<path display="inline" fill="#C1775D" d="M327.8,342.7c0.4-0.7,0.8-1.5,1.2-2.2c1.8,1.7,0.7,3.9,1,5.8l0,0   C328.5,345.6,328.3,344.1,327.8,342.7z" />
	<path display="inline" fill="#401915" d="M356.5,315.6c-0.7-0.4-1.5-0.7-2.2-1.1c1.7-0.4,3.4-0.8,5.1,0.1   C358.7,316.1,357.4,315.3,356.5,315.6z" />
	<path display="inline" fill="#C1775D" d="M330,346.4c1.4,0.6,1.1,1.6,0.4,2.8C330.2,348.2,330.1,347.3,330,346.4L330,346.4z" />
	<path display="inline" fill="#895746" d="M340.3,296c0.1-1.1,0.1-2.2,0.2-3.4C341.8,294.4,341.8,294.4,340.3,296z" />
	<path display="inline" fill="#8A5342" d="M311.2,328.9c-1.2-0.9,0.3-2.5,1.2-1.4C312.1,327.9,311.7,328.3,311.2,328.9z" />
	<path display="inline" fill="#81675F" d="M435.6,274c-3.1,0.3-4.5-0.7-5.5-2.9C432.7,271.5,432.7,271.5,435.6,274z" />
	<path display="inline" fill="#7C5A52" d="M449.8,274.8c-2.7,0.5-2.6,0.8-5,0C446.5,273.5,447.7,274.2,449.8,274.8z" />
	<path display="inline" fill="#332320" d="M353.1,366.5c-0.2,2.5-0.3,3.9-0.4,5.4C352.3,370.3,349.4,369,353.1,366.5z" />
	<path display="inline" fill="#E0C6B5" d="M184.3,347.8c-6,4.6-13.8,2.5-20.9,4.1c-1.9-0.9-2.3-0.8-4.1,1.2c-2.1,0.2-2.1,0.2-5,2.3   c0.1-3.1-1.6-1.6-3.3-1.2c-0.3-0.8-1-1-1.7-1.5c5.7-7.6,17.1-9.1,26.1-8.6C179,344.2,180.4,348.5,184.3,347.8z M169,349.5   c-0.4-0.9-0.8-0.7-1.5-0.3C167.9,350,168.3,349.9,169,349.5z" />
	<path display="inline" fill="#1D1614" d="M86.5,384.1c-2.2,0.7-2.7,2.9-3.5,4.8c-2.8-0.4-2.1-2.2-2-3.8c3-4.3,7.5-6,12.4-6.9   c1.1,0.6,2.8-0.6,3.6,1.1C93.4,380.7,89.7,381.8,86.5,384.1z" />
	<path display="inline" fill="#DBC6B5" d="M86.5,384.1c4.1-3,9.1-4,13.7-5.8c0.3,0.7,0.7,1.3,1.1,2.1c-2.1,1.6-4.1,3.1-6.4,4.8   C92.2,385.3,89.2,386,86.5,384.1z" />
	<path display="inline" fill="#5F443E" d="M100.3,378.3c-1.1,0.4-2.2,0.8-3.3,1.2c-0.8-1.7-2.5-0.6-3.6-1.1c3.1-1.1,6.3-2.1,9.4-3.2   c0.8,0.4,1.6,0.8,2.4,1.2C103.6,376.9,101.8,377.2,100.3,378.3L100.3,378.3z" />
	<path display="inline" fill="#2D1F1C" d="M217.4,366.8c-2.9,0.7-5.6,2.5-8.9,1.1c1.2-2.6,3.6-1.8,5.5-2.2   C215,366.2,216.6,365.3,217.4,366.8z" />
	<path display="inline" fill="#251614" d="M208.2,341.6c-2.3,0.5-4.6,1-7.3,1.6c1.5-2.4,1.5-2.4,5-2.8   C206.7,340.8,207.4,341.2,208.2,341.6z" />
	<path display="inline" fill="#6E6159" d="M184.3,347.8c-1.7-0.1-3.4,0-4.6-1.4c1.9-0.3,3.9-0.6,5.8-1c0.8,0.4,1.6,0.8,2.4,1.1   C186.7,346.9,185.5,347.4,184.3,347.8z" />
	<path display="inline" fill="#8D6D65" d="M217.4,366.8c-0.8-1.5-2.3-0.6-3.4-1.1c2.4-1.7,5.1-0.8,8.3-1   C220.5,366.3,218.9,366.4,217.4,366.8z" />
	<path display="inline" fill="#1C0807" d="M225.8,363c2.2-1,3.7-1.2,6.2,0.1C229.5,363.8,228,364.6,225.8,363z" />
	<path display="inline" fill="#5E201E" d="M215.5,339.5c0.9,0.2,1.8,0.4,3.1,0.6C216.7,341.5,216.7,341.5,215.5,339.5z" />
	<path display="inline" fill="#374C45" d="M208.2,341.6c-0.8-0.4-1.6-0.8-2.3-1.2c1.8-1,3.5-0.7,5.5,0.9   C210.1,341.4,209.1,341.5,208.2,341.6z" />
	<path display="inline" fill="#52554E" d="M159.2,353.2c1.8-2.1,2.3-2.1,4.2-1.2c-0.4,0.4-0.7,0.8-1.1,1.3   C161.3,353.2,160.3,353.2,159.2,353.2z" />
	<path display="inline" fill="#746058" d="M150.9,354.3c1.8-0.4,3.5-1.9,3.3,1.2C153,355.4,151.4,356.5,150.9,354.3z" />
	<path display="inline" fill="#4A322D" d="M114,372.8c-1.5,1.6-2.5,2.7-4.2,1.9C110.5,373.1,111.7,372.5,114,372.8z" />
	<path display="inline" fill="#9D8B80" d="M146.2,359.1c-0.9-1.5-0.8-1.9,0.7-2.2C147.8,357.7,146.9,358.3,146.2,359.1z" />
	<path display="inline" fill="#B8A093" d="M245.4,359.2c0.5-0.2,1.1-0.4,1.6-0.6c0.6,1.4-0.5,1.1-1.4,1.4   C245.5,359.7,245.4,359.4,245.4,359.2z" />
	<path display="inline" fill="#2F1513" d="M116.9,371.1c1.7-0.4,2.6-0.6,3.4-0.8c0.1,0.3,0.2,0.5,0.3,0.8   C119.1,372,119.1,371.8,116.9,371.1z" />
	<path display="inline" fill="#2D1312" d="M105.2,376.3c-0.8-0.4-1.6-0.8-2.4-1.2c1-0.1,2.1-0.2,3.7-0.3   C105.8,375.6,105.5,376,105.2,376.3z" />
	<path display="inline" fill="#290909" d="M187.9,346.5c-0.8-0.4-1.6-0.8-2.4-1.1c1-0.1,2.1-0.2,3.7-0.3   C188.5,345.8,188.2,346.2,187.9,346.5z" />
	<path display="inline" fill="#99635B" d="M241.1,360.9c-0.7,0.3-1.1,0.5-1.5-0.3C240.3,360.3,240.7,360.1,241.1,360.9z" />
	<path display="inline" fill="#6F6159" d="M224.1,340.6c-0.2-0.2-0.4-0.4-0.5-0.7c0.7-0.4,1.1-0.5,1.5,0.3   C224.8,340.3,224.4,340.4,224.1,340.6z" />
	<path display="inline" fill="#E0C6B5" d="M162.4,353.2c0.4-0.4,0.7-0.8,1.1-1.3C163.1,352.4,162.7,352.8,162.4,353.2z" />
	<path display="inline" fill="#DBC6B5" d="M100.3,378.3c0.4-0.3,0.9-0.6,1.3-0.8C101.2,377.8,100.8,378.1,100.3,378.3z" />
	<path display="inline" fill="#F2D7C5" d="M206,384.4c-2.7,3.3-6.4-1.6-9.1,1.1c-2.8-1.7-6.2-2.2-8-4.5c0.3-0.6,0.7-1.4,1.1-2.2   c1.3-0.7,2.7-1.2,3.3-2.7c-0.1-0.3-0.2-0.5-0.3-0.8c2.9,0.2,3.2,0.4,3.8,3.4C198.9,381.9,203.3,381.9,206,384.4z" />
	<path display="inline" fill="#332A27" d="M206,384.4c-1.5-0.9-2.9-1.8-4.4-2.7c0.4-0.4,0.7-0.8,1.1-1.2c4.3,0.9,8.1,2.8,11.6,6.3   C210.7,387.3,208.7,385,206,384.4z" />
	<path display="inline" fill="#91786F" d="M202.7,380.5c-0.4,0.4-0.7,0.8-1.1,1.2c-1.8-0.7-3.9-1-4.7-3.1   C199,378.7,201,379.4,202.7,380.5z" />
	<path display="inline" fill="#3B3933" d="M193.1,375.2c0.1,0.3,0.2,0.5,0.3,0.8c-0.6,1.5-2,2-3.3,2.7   C187.5,377.6,191.5,374.9,193.1,375.2z" />
	<path display="inline" fill="#140F0D" d="M76.2,443.3c1.2-0.6,2.3-1.2,4-2c-1.9-0.8-3.3-1.4-4.6-1.9c-0.2-3.2,12.5-3.3,14.6-2   c1.4,4.4-3.9,2.4-5,5.7C83.5,445.5,77.9,446.3,76.2,443.3z" />
	<path display="inline" fill="#0E0D0C" d="M85.7,429.9c2.2,0.1,5.4-0.3,6.2,2.3c-3.3,5.3-12.8,1.5-17.6-0.2   C75.7,427.9,82.3,430.8,85.7,429.9z" />
	<path display="inline" fill="#EADCB7" d="M186.3,393.4c-1.3-0.7-0.9-1.9-0.9-3C185.7,391.4,186,392.4,186.3,393.4z" />
	<path display="inline" fill="#0F0A0B" d="M784.3,406.1c0.1,0.4,0.1,0.8,0.2,1.2c-30.5-3.5-19.2,44-49.8,9.2   c-1.9-0.1-4.2-0.2-6.5-0.4c0-0.4,0-0.8,0-1.2c2-0.3,4.1-0.6,6.5-1c0.5-1.1,1.2-2.4,1.9-3.7c1.6-0.8,3.2-1.4,4.8,0   c0.4,2.2-1.8,1.5-2.9,2.3c-0.1,1-0.1,2.1-0.2,2.9c4.4,3.6,6.9,9.5,12.2,12C763.6,419.1,763.6,401.8,784.3,406.1z" />
	<path display="inline" fill="#080E11" d="M777.5,480.5c-0.8,1.2-1.5,2.3-2.3,3.5c-0.4-0.5-0.9-0.9-1.3-1.4c2.2-9.4,6.4-18.4,6-28.2   c0-2-0.6-4.2,1.8-6C786.5,458.6,780.2,470.3,777.5,480.5z" />
	<path display="inline" fill="#0A1316" d="M790.2,452.1c0.2,3.1-0.3,6-1.4,8.9c-2.6-8.8-0.9-20.2-0.4-29.2   C792.5,433.2,789.2,447.6,790.2,452.1z" />
	<path display="inline" fill="#091215" d="M769.4,481.6c-2.6,5.3-5.3,10.5-9.3,15.4c1-7.8,5.6-14.5,7.8-22.5   C770.4,476.7,769.2,478.8,769.4,481.6z" />
	<path display="inline" fill="#16282F" d="M787.7,456.2c0,1.7-0.1,3.5,1.2,4.8c-1.6,3.7-0.3,8.6-4.4,10.7   C785.6,466,786.6,461.1,787.7,456.2z" />
	<path display="inline" fill="#11232A" d="M790.2,452.1c0-6.3,0-12.5,0-18.8C792.2,438.8,791.5,446.6,790.2,452.1z" />
	<path display="inline" fill="#11252F" d="M773.9,482.6c0.4,0.5,0.9,0.9,1.3,1.4c-2,3.1-1.7,5.9-5.8,7.4   C771.3,487.6,771.5,485.1,773.9,482.6z" />
	<path display="inline" fill="#0F232C" d="M755.7,488.6c1,5.3-1.5,9.1-7.1,12.5C749.9,496.3,753.6,493.9,755.7,488.6z" />
	<path display="inline" fill="#204D61" d="M741.9,498.9c1-3.2,1-3.2,3.3-2.7C744.7,498,743.2,498.3,741.9,498.9L741.9,498.9z" />
	<path display="inline" fill="#1E4150" d="M717.2,500.1c1.3-2.5,2.1-2.9,3.8-1.6C720,498.9,719.2,499.3,717.2,500.1z" />
	<path display="inline" fill="#1D4555" d="M730.3,499.4c-0.5,0.1-1,0.3-1.4,0.4c-0.3-0.9,0.2-1.2,0.9-1.5   C729.9,498.6,730,498.9,730.3,499.4z" />
	<path display="inline" fill="#204D61" d="M741.9,498.9c-0.2,0.3-0.3,0.5-0.5,0.8C740.7,499,741.6,499.1,741.9,498.9   C741.9,498.9,741.9,498.9,741.9,498.9z" />
	<path display="inline" fill="#D8C1A1" d="M792.3,292.3c0.1,3.6,0.1,7.2,0.2,10.8c0.2,0,0.3,0,0.5,0c3.5-12.1,1.6-26.9,7.9-37.7   c4.8,22.5-1.6,45.6,0.9,68.5c2.6-6,0.1-16.8,1-24.3c3.9,19.2-1.4,40.2,2.2,59.7c-2.8,0.2-4.7-0.9-5.6-3.6c0.6,0,1.1-0.1,2-0.1   c-4.5-18.3-4.7-37.6-8.7-55.4c0.2,3.9-1,8.8,0.9,12.1c2.3,14.1-2.9,31.5,5.9,43.4c-3-0.9-8.1-2.7-10.3-4.6   c2.6-5.6-3.8-13.1-4.8-19.2c-1.8-4.9-1.8-10.5-4.4-15c-0.6,0.6-1.2,1.1-1.6,1.6c-3.9-1.8-0.2-6.1-3-8.5c-0.7-2,0.9-4.2-1-5.7   c-0.1-0.4-0.3-0.8-0.4-1.2l0.5,0c1.8-6.7,0.6-14.1,0.7-21.1c-1.5,5.5-0.6,11.1-1.1,16.6c-2.1-7.2-1.4-15.1-2.5-22.5   c-0.2,0-0.4,0-0.7,0c-0.1,1.7-0.2,3.5-0.3,5.2c-0.3,0-0.7,0-1,0c-1.2-5.6,2.6-10.1,2.2-15.6c0.1-6.1-0.4-13.6,2.3-18.8   c4.3,17.1,2.4,36.1,6.9,52.7c2.8-1.9,2.3-5.3,2.5-8.3c0.3,0.2,0.6,0.3,0.9,0.5c-0.1,1.3-0.4,2.7,1.4,4.5   c-2.1-14.5,0.5-27.4,1.2-41.7C790.6,273.2,787.3,285.3,792.3,292.3z" />
	<path display="inline" fill="#D7C1A1" d="M769.5,291.3c0.3,0,0.7,0,1,0c0.8,23.6,4.5,47.5,12.7,70c-3.2,0.5-6.3-1.1-9.3-0.1   c-3-6.4-1.4-13.8-4.2-19.6c-0.5-2.8,0.3-5.2-2.4-7.5c0,2.1-0.9,3.9,0.9,5.4c0.1,1.1,0.1,2.3,0.2,3.4c-1.3,0.6-2.2-0.6-3.3-1.3   c-0.8-3.5-1-7.2-3.4-10.3c-0.6,0.6-1,0.9-1.4,1.3c-4.9,0.5,3.4,24.5,3.3,29.8c-17-14-9.6-61-15.4-81.7c-0.2,2.2-0.3,3.5-0.4,4.8   c-2.1-2.8-2.1-10.9,2.3-11.5c0.3,3-0.8,5,0.9,8.1c2-2.8,1.1-4.4,0.5-7.3c1.7-1.1,0.9-3.9,1.9-5.7c0.2,1.4,0.3,2.8,0.7,5.4   c1.4-3.8,1.5-5.3,4.1-7.4c0.6,11-4.3,22.1-4.1,32.7c1.7-0.4,3.3-0.8,5.2-1.3c0-3.5,0-6.5,0.1-9.9c2.8,7.8,0.9,17.5,5.6,24.3   c0.1,1.6-0.4,3.4,2.4,4C766.5,308.3,769.9,300.2,769.5,291.3z" />
	<path display="inline" fill="#D5BFA0" d="M805,369.3c3.7-15.7-0.3-35,0.2-51.7c3.5-12.2-1.8-28,1.9-40.1c7.8,30.4,0.5,63.8,2.7,95   c-2,0-1.1-2.1-2.4-3.1C806.9,369.4,805.9,369.4,805,369.3z" />
	<path display="inline" fill="#0F0E0C" d="M809.9,372.5c-1.9-13.7,1.8-27.1,1-41c2.8,6.7,0.4,15.9,1.1,23.3   c4.7-13.9,2.5-29.8,5.4-43.9c1.1,21,0.2,41.8-7,61.7L809.9,372.5z" />
	<path display="inline" fill="#0D0C0A" d="M737.2,339.6c3.2,8.6,3.5,20.1,8.7,27.1c2.6,2-2,6-4,3.8c-0.8-3.1-1.9-6-4.2-8.5   c0,2.6,2.7,5.2,0.6,7.4c-2.2-1.9-4.2-3.9-5-6.9c0.8,0.2,1.6,0.3,3.5,0.8c-2-2-1.1-4.3-3.1-5.4c-0.2-4.3-1.8-8.3-2.2-12.6   c0.2,0,0.7,0,1,0c2.9,2.9,2.8,7.7,5.8,10.3c0.1,0.6,0.2,1.3,0.4,2.1c1-1.2,0.6-1.7-0.3-2.1C739.6,350.1,733.4,344.7,737.2,339.6z" />
	<path display="inline" fill="#12100D" d="M840.8,330.6c-3.9,16.1-10.4,32.9-20.8,45.8c-0.4,0-0.7-0.1-1.1-0.2   c0.4-1.5,0.7-3,1.1-4.6c0,0-0.1,0.1-0.1,0.1c9.4-12.5,13.6-29.1,19.7-43.5C840,328.9,840.4,329.8,840.8,330.6z" />
	<path display="inline" fill="#39332A" d="M716.6,354.2c-0.4-2.9,0.5-5.5,1.4-8.1c1.6,2.7,1.8,6.5,3.9,7.4   c-1.2-9.6-3.4-19.1-2.9-28.9c0.3-0.1,0.8-0.1,1.1-0.1c2.5,10.1,1.5,20.2,4.1,30.2c0.4,1.3,1.2,2.8-0.5,3.9c-0.1-0.8-0.8-1.4-1.3-2   l0-0.1c-1.9-0.7-3-2.3-3.9-4C717.8,353.2,717.2,353.7,716.6,354.2z" />
	<path display="inline" fill="#D8C1A1" d="M788.1,360c-1.3,1.1-1.7,2.7-1.7,4.2c-1.2,0.4-1.7,0-1.9-0.8c4.3-4-12.4-26.4-3.7-28.5   C781.9,343.6,785.7,351.5,788.1,360z" />
	<path display="inline" fill="#AE9B81" d="M723.7,358.8c1.7-1.1,0.9-2.6,0.5-3.9c-1.4-5.1-2.1-10.2-1.7-15.4   c2.8-2.4-0.8-6.6,2.1-9.2c1.4,9.2,0.2,19.1,3.5,28.8c-0.8,1.1-1.6,2.3-2.4,3.4C725,361.3,724.4,360,723.7,358.8z" />
	<path display="inline" fill="#CBB799" d="M758.1,333.9c0.1-1.3,1.1-1.3,2.1-1.3c2.4,2.2,1.4,5.7,3.4,8c0.3,1.2-0.4,2.8,1.2,3.5   l0-0.1c0.2,5.6,3,10.7,4.6,16.1c-1.3,0-2.8-0.4-3.5,1.3c-2.4-9.1-4.4-18.2-6-27.5C759.2,333.9,758.6,333.9,758.1,333.9z" />
	<path display="inline" fill="#CBB799" d="M728.1,359.1c-0.8-7.5-5-15.7-2.5-23c1.3,10.5,4.6,20.4,9.2,29.8   c-1.8-0.4-3.7-0.8-5.5-1.2C728.9,362.9,728.5,361,728.1,359.1z" />
	<path display="inline" fill="#756860" d="M701.9,370.6c0-7.1-1.3-16.4,3.9-21.9c0.6,0.1,1.2,0.1,1.8,0.2   c-6.9,8.2-1.3,19.5-4.6,28.6C702.9,375.2,703.4,372.6,701.9,370.6z" />
	<path display="inline" fill="#261816" d="M748.8,393.2c7.4,2.3,15.1,3.6,20.7,9.7c-0.3,0.7-0.5,1.2-0.8,1.9   c-2.9-1.6-5.7-3.1-8.5-4.6l0.1,0.1c-3-3.4-8.4-2.3-11.5-5.8C748.8,394.1,748.8,393.7,748.8,393.2z" />
	<path display="inline" fill="#453D33" d="M753.6,341.4c3.2,6.7,2.5,16.7,9,21c-1.1,2.4-1.1,2.4-3.4,1.1c-3.1-6.6-6.3-13.2-6.9-20.6   C752.8,342.4,753.2,341.9,753.6,341.4z" />
	<path display="inline" fill="#746656" d="M771.8,354.4c0.8,2.2,1.5,4.5,2.1,6.8c-0.2,0.1-0.6,0.2-0.9,0.1   c-5.1-4.6-3.7-12.4-8.3-17.2l0,0.1c0.1-0.8,0.1-1.7,0.2-2.5c1.6,1.5,3.3,2,4.6-0.1c2.7,2.4-2.1,4.6,1,7.1c-0.2,1.5-0.4,2.9-0.6,4.6   C770.5,353.6,771.1,354,771.8,354.4z" />
	<path display="inline" fill="#2D2723" d="M760.2,400.3c0,0.6,0,1.1,0,1.7c-4.7,3.2-12.5-0.4-15.4-5c0.7-0.1,1.3-0.2,2-0.3   c3.2,1.4,6.5,2.8,9.9,4.3c1.2-0.2,2.4-0.4,3.7-0.7C760.3,400.3,760.2,400.3,760.2,400.3z" />
	<path display="inline" fill="#D1BEAF" d="M760.3,400.3c-1.3,0.2-2.6,0.5-3.7,0.7c-3.4-1.5-6.6-2.9-9.9-4.3   c-1.2-1.3-1.6-3.9-3.7-3.4c0-0.8,0.1-1.6,0.1-2.3c4.6,1.7,7.8,6.6,13,7.1C757.8,398.3,759.4,398.8,760.3,400.3z" />
	<path display="inline" fill="#50473C" d="M778.8,341.6c0.6,5.7,8.5,17.7,5.7,21.8c-3.1-6-5.3-12.8-6.8-19.4   C778,343.2,778.4,342.4,778.8,341.6z" />
	<path display="inline" fill="#322E26" d="M788.1,360c-1.7-5.3-3.4-10.6-5-15.9c0.3-0.8-0.1-2,1.2-2.2c1,6.1,7.3,13.5,4.8,19.2   C788.7,360.7,788.4,360.4,788.1,360z" />
	<path display="inline" fill="#3C352D" d="M746.3,349.9c2,5.4,3.2,11,6.1,16c-5.8,0.2-5.5-9.4-7.2-13.5   C745.5,351.6,745.9,350.7,746.3,349.9z" />
	<path display="inline" fill="#2C2821" d="M764.8,344.1c4.6,4.8,3.1,12.6,8.3,17.2C769.2,366.4,764.9,347,764.8,344.1z" />
	<path display="inline" fill="#463E36" d="M762.4,347.6c1.3,6.3,3.5,11.3,3.6,18c-4.4-4.4-3.3-9.9-4.8-15.5   C761.6,349.3,762,348.4,762.4,347.6z" />
	<path display="inline" fill="#C8BC9E" d="M716.6,354.2c0.6-0.5,1.2-1.1,1.9-1.6c0.6,0.9,1.1,1.9,1.7,2.8c0,0.4,0,0.8-0.1,1.2   c-2.4,0-4.8,0-7.2-0.1c-0.9-1.7-1.5-3.4-0.5-5.5C713.9,352.2,715.3,353.2,716.6,354.2z" />
	<path display="inline" fill="#45443C" d="M738.4,369.4c2-2.3-0.6-4.8-0.6-7.4c2.3,2.4,3.3,5.4,4.2,8.5   C740.6,370.6,739.2,371,738.4,369.4z" />
	<path display="inline" fill="#8A7D72" d="M708.7,353.2c1.5,1.7,0.7,3.8,1.1,5.7c-0.9,1.7-1.9,3.5-3,5.6   C705.2,360.4,709.3,357.4,708.7,353.2z" />
	<path display="inline" fill="#80766F" d="M699.3,385.4c0.8-2.3,1.5-4.7,2.2-7c0.4,0.8,0.8,1.6,1.2,2.4c-0.9,2.1-0.4,5.5-3.3,5.8   C699.4,386.1,699.4,385.7,699.3,385.4z" />
	<path display="inline" fill="#574C42" d="M728.1,359.1c0.4,1.9,0.8,3.8,1.3,5.6c-2.1,0.7-2.8-0.9-3.7-2.2   C726.5,361.4,727.3,360.2,728.1,359.1z" />
	<path display="inline" fill="#B2A194" d="M709.8,359c0.7,0.3,1.5,0.6,2.2,0.9c0.1,2.2,0.3,4.3-0.2,7.3   C710.3,364.1,709.5,361.7,709.8,359z" />
	<path display="inline" fill="#322F2C" d="M702.8,380.7c-0.4-0.8-0.8-1.6-1.2-2.4c0.1-2.6,0.2-5.2,0.4-7.7   C703.7,373.5,702.9,377.4,702.8,380.7z" />
	<path display="inline" fill="#988F7B" d="M820,371.6c-0.4,1.5-0.7,3-1.1,4.6c-1.3-0.8-2.6-1.5-3.9-2.3   C817.2,374.4,818.2,372.6,820,371.6z" />
	<path display="inline" fill="#6B5D55" d="M748.8,394.5c-1.5-1.1-3.1-2.3-4.6-3.4c0.4-0.5,0.9-0.9,1.3-1.4c1.1,1.1,2.2,2.3,3.3,3.4   C748.8,393.7,748.8,394.1,748.8,394.5z" />
	<path display="inline" fill="#29211E" d="M745.5,389.8c-0.4,0.5-0.9,0.9-1.3,1.4c-0.3-0.1-0.7-0.2-1-0.2c-0.4-0.8-0.7-1.6-1.1-2.4   C744.1,387.5,744.7,388.9,745.5,389.8z" />
	<path display="inline" fill="#53403B" d="M743,393.3c2.1-0.5,2.5,2.1,3.7,3.4c-0.7,0.1-1.3,0.2-2,0.3   C743.5,396.1,742.9,394.8,743,393.3z" />
	<path display="inline" fill="#AE9B81" d="M720.2,356.6c0-0.4,0-0.8,0.1-1.2c0.7,0.4,1.5,0.8,2.2,1.2   C721.7,356.6,720.9,356.6,720.2,356.6z" />
	<path display="inline" fill="#CBB799" d="M769.4,360.3c0.3,0.4,0.5,0.7,0.8,1.1C769.9,361,769.6,360.6,769.4,360.3z" />
	<path display="inline" fill="#C8BC9E" d="M722.4,356.7c0.3,0.4,0.7,0.8,1,1.2C723,357.5,722.7,357.1,722.4,356.7z" />
	<path display="inline" fill="#E1C7B6" d="M699.3,385.4c0.1,0.4,0.1,0.8,0.2,1.1c-0.4,0-0.8,0-1.2,0   C698.6,386.1,699,385.7,699.3,385.4z" />
	<path display="inline" fill="#D0BC9F" d="M812.9,431c0,1.7,0.9,3.5-0.8,4.8C812.4,434.2,812.6,432.6,812.9,431z" />
	<path display="inline" fill="#0C0A09" d="M189.8,407.3l-0.5,0c-0.6-0.4-1.3-0.7-2-1c-0.9,0.1-0.6-0.8-0.7-1.4l0,0   c7.5-1,16,1.6,23-1l-0.1-0.3c0.4,0.1,0.8,0.3,1.2,0.4c0.4,0.7,0.8,1.4,1.2,2.1l-0.1,0c-1.2,0-2.5-0.5-3.5,0.8   C202.2,407.4,196,407.3,189.8,407.3z" />
	<path display="inline" fill="#1E1311" d="M211.9,406c-0.4-0.7-0.8-1.4-1.2-2.1C212.1,403.5,213.4,405,211.9,406z" />
	<path display="inline" fill="#1E1311" d="M208.3,406.9c0.9-1.3,2.3-0.8,3.5-0.8c-0.1,0.3-0.2,0.6-0.3,0.9   C210.4,407.1,209.4,407.3,208.3,406.9z" />
	<path display="inline" fill="#1F1B17" d="M729.4,260.4c0.4,0.4,0.9,0.9,1.3,1.3c-2.9,11.4-5.8,22.9-6.7,34.6   c-0.4,0.4-0.6,0.3-1.4,0.4C721.4,284,724.2,272,729.4,260.4z" />
	<path display="inline" fill="#F4DEBE" d="M758,267.2c-2.7,2.2-2.7,3.6-4.1,7.4c-2.1-10.5,3.9-18,6.1-28.1   C764.6,252.4,758,260.6,758,267.2L758,267.2z" />
	<path display="inline" fill="#302C24" d="M732.6,360.3c-4-8.8-8.9-20.6-5.7-29.9c0.5,2.8,1,5.6,1.5,8.3c1.2,0.1,2.2,0.3,2.2,1.8   c-3.9,7.9,2.9,15.7,6.4,22.7c-1.9-0.4-2.7-0.6-3.5-0.8c-0.2-0.4-0.4-0.8-0.6-1.3c0.2-0.5,0.5-1,0.7-1.5   C733.2,359.9,732.9,360.1,732.6,360.3z" />
	<path display="inline" fill="#5B5043" d="M747.6,285.6c0.1-1.3,0.2-2.6,0.4-4.8c3.1,14.1,3.2,27.9,1.7,41.7   C747.4,310.4,749.8,297.8,747.6,285.6z" />
	<path display="inline" fill="#574D40" d="M714.5,297.3c-0.5,6.3,0.9,13.1-0.7,19.1c-2.8-7.6-1.5-15.1-0.4-22.7   C714.9,294.5,714.1,296.1,714.5,297.3z" />
	<path display="inline" fill="#7E705D" d="M708.8,297.2c0.8-7.2,0.9-12.6,2.9-19.9c-0.4,9.7-0.2,18.7-1.7,28   C709.6,302.6,710.4,299.5,708.8,297.2z" />
	<path display="inline" fill="#2E2A23" d="M753.6,341.4c-0.4,0.5-0.8,1-1.3,1.5c-0.8-6.4-4.3-13.6-1.1-19.8   C753.1,328.9,752.7,335.4,753.6,341.4z" />
	<path display="inline" fill="#221F1A" d="M753.5,266.1c-0.5,2.8-0.3,6.8-2.2,8.8c-0.2-6.7,0.8-13.5,1.1-20.2   C754.4,258.1,753.2,262.4,753.5,266.1z" />
	<path display="inline" fill="#7E715E" d="M733.9,357.8c-2.7-4.7-6.4-12.1-3.3-17.3c1,0.5,1.1,1.4,1,2.4c-1.4,0.8-1.4,1.6,0,2.3   C732,349.6,733.7,353.6,733.9,357.8z" />
	<path display="inline" fill="#665A4B" d="M726.9,330.4c-0.4,0.8-0.8,1.6-1.2,2.3c-1.8-4.9-2-12.6,0.1-17.1   C726.1,320.5,726.5,325.5,726.9,330.4z" />
	<path display="inline" fill="#4C4237" d="M753.5,259.4c0-1.7-0.1-3.3-1.1-4.7c0.6-3,0.6-6.3,2.9-9.3   C756.4,250.1,754.5,254.9,753.5,259.4z" />
	<path display="inline" fill="#AE9B81" d="M725.7,315.6c-2.4,3.1-0.5,8.6-1.3,12.5C723,327,722.7,310.5,725.7,315.6z" />
	<path display="inline" fill="#6F6252" d="M714.5,297.3c-0.4-1.2,0.4-2.8-1.1-3.6c0.4-2.7,0.8-5.4,1.2-8.1c0.4,0.5,0.8,0.9,1.1,1.4   C715.4,290.5,716.1,294.1,714.5,297.3z" />
	<path display="inline" fill="#64574A" d="M746.3,349.9c-0.4,0.8-0.8,1.6-1.2,2.4c-1.4-3.6-2.3-7.3-1.3-11.3   C744.6,344,745.5,347,746.3,349.9z" />
	<path display="inline" fill="#524A3D" d="M708.8,297.2c1.9,4.6,1.7,9.6,0.1,14.7C708.3,306.5,708.5,301.9,708.8,297.2z" />
	<path display="inline" fill="#F1DBBA" d="M751.2,273c-0.1,3.5,2.2,5.9-0.3,9.3c-1.7-3-0.6-5.1-0.9-8.1   C750.3,273.7,750.7,273.4,751.2,273z" />
	<path display="inline" fill="#A48F77" d="M720.2,344c1.2,3,1.2,6.4,1.7,9.5c-1.7-1.3-1.8-1.3-2.7-5   C720.1,347.1,720.2,345.6,720.2,344z" />
	<path display="inline" fill="#494035" d="M737.2,339.6c-0.4,0.8-0.9,1.7-1.3,2.5c-1.7-2.6-0.9-5.5-1-8.2c0.4-0.3,0.7-0.7,1.1-1   C736.4,335,736.8,337.3,737.2,339.6z" />
	<path display="inline" fill="#917F6A" d="M736,332.8c-0.4,0.3-0.7,0.7-1.1,1c-1.8-1.9-0.8-4.1-1.3-7.4   C736.6,328.9,736,329.8,736,332.8z" />
	<path display="inline" fill="#24211B" d="M751.2,323.1c-0.4,0.9-0.8,1.7-1.2,2.6c-0.2-3-0.8-6.4,0.9-9.1   C751.1,318.8,751.2,321,751.2,323.1z" />
	<path display="inline" fill="#B29C82" d="M736.2,352.1c-0.4-1.1-0.9-2.2-1.3-3.3c1.3-0.4,1.1-1.6,1.4-2.6c0.4,1.2,0.8,2.4,1.2,3.6   C737.2,350.6,737.6,351.8,736.2,352.1z" />
	<path display="inline" fill="#9D8871" d="M720.1,324.6c-0.3,0-0.8,0-1.1,0.1c0-2,0-4,0-6.1c0.2,0,0.4,0,0.7-0.1   C720.1,320.5,720.2,322.5,720.1,324.6z" />
	<path display="inline" fill="#AE9B81" d="M722.3,337.3c-1.5-1.8-0.9-3.9-0.8-5.9C723.1,333.2,722.3,335.3,722.3,337.3z" />
	<path display="inline" fill="#625C4D" d="M730.5,307.4c0.3,0,0.7,0,1,0c0,1.3,0,2.5,0,5C730.2,310,730.3,308.7,730.5,307.4z" />
	<path display="inline" fill="#736958" d="M727.7,305.4c0.5,1.4,0.5,1.4-0.3,3.1c-0.1-1.5-0.2-2.3-0.2-3   C727.3,305.4,727.5,305.4,727.7,305.4z" />
	<path display="inline" fill="#302C24" d="M731.6,345.2c-1.4-0.8-1.5-1.5,0-2.3c0.3,0.8,0.7,1.6,1,2.4   C732.4,345.3,731.9,345.3,731.6,345.2z" />
	<path display="inline" fill="#625849" d="M701.9,297.3c0.2-0.5,0.5-0.9,0.7-1.4C702.3,296.3,702.1,296.8,701.9,297.3z" />
	<path display="inline" fill="#191613" d="M789.2,275.1c-2.7-8.8-2-18.9-8.4-26.1c0-0.7,0-1.4,0-2   C788.9,247.1,792,268.8,789.2,275.1z" />
	<path display="inline" fill="#564C40" d="M817.5,311c-2.5,5.3,0.4,11.7-1.9,17.2c-1-12.7-0.4-25.7-0.1-38.5   C817.7,295.4,817.5,304.1,817.5,311z" />
	<path display="inline" fill="#E6CFAF" d="M815.2,307.3c0,6.5,0,12.9,0,19.4c-3.6-6.3-1.8-13.6-2.1-20.5   C813.7,306.6,814.4,307,815.2,307.3z" />
	<path display="inline" fill="#635A4B" d="M789.2,275.1c1.2-2.1,1.1-4.5,1.1-6.9c1.9,7.6,1.1,16.2,2,24.1   C787.9,288.5,790.6,280.6,789.2,275.1z" />
	<path display="inline" fill="#E6CFAF" d="M810.7,281c3.3,6.5,2.3,15.7,2.2,23.1c-0.3-0.2-0.6-0.4-0.8-0.6   C812.3,295.9,810.7,288.6,810.7,281z" />
	<path display="inline" fill="#38322A" d="M812.1,303.5c0.2,0.2,0.5,0.4,0.8,0.6c0.2,5.7,0,11.3,0,17   C810.6,315.9,812.6,309.3,812.1,303.5z" />
	<path display="inline" fill="#D1BDA1" d="M807.2,273c-2-2.8-1.6-6.7-2.8-10.6c2.3,2.6,2.6,3.3,4,9.5   C808,272.3,807.6,272.7,807.2,273z" />
	<path display="inline" fill="#4F463A" d="M810.7,281c0,2.1-0.1,4.1-1.3,5.9c-1.6-2.5-0.8-5.4-1.2-8c0.4-0.8,0.8-1.6,1.2-2.4   C809.8,278,810.3,279.5,810.7,281z" />
	<path display="inline" fill="#A79781" d="M804,315.5c0.4-3.4-1.7-6-1.1-9.3c0.3,0,0.8,0,1,0c0.4,0.4,0.7,0.8,1.1,1.2   c0,2.7-0.1,5.4-0.1,8.1C804.5,315.5,804.3,315.5,804,315.5z" />
	<path display="inline" fill="#827362" d="M809.4,276.6c-0.4,0.8-0.8,1.6-1.2,2.4c-0.3-0.5-0.7-0.9-1-1.4c0-1.5,0-3,0-4.5   c0.4-0.4,0.8-0.7,1.2-1.1C808.7,273.5,809,275,809.4,276.6z" />
	<path display="inline" fill="#E6CFAF" d="M815.1,294.8c0,2.3,0.1,4.6,0.1,6.8c-1.6-2-0.9-4.5-1-6.9   C814.5,294.8,814.8,294.8,815.1,294.8z" />
	<path display="inline" fill="#D8C1A1" d="M804.9,307.5c-0.4-0.4-0.7-0.8-1.1-1.2c0-0.8,0-1.5,0-2.3   C805.6,304.7,804.9,306.2,804.9,307.5z" />
	<path display="inline" fill="#66574A" d="M804,315.5c0.3-0.1,0.6-0.1,0.9,0c0.2,1.2,0.5,2.3,0,3.4c-0.2-0.1-0.5-0.1-0.8,0   C804,317.8,804,316.7,804,315.5z" />
	<path display="inline" fill="#A0917C" d="M803.9,304c0,0.8,0,1.5,0,2.3c-0.3,0-0.8,0-1,0C802.7,305.3,802.5,304.2,803.9,304z" />
	<path display="inline" fill="#060605" d="M820,371.6c-1.7,0.7-2.4,2.8-4.5,2.3c3.6-19.4,7.6-38.6,9.2-58.4c3,9.5,0,19.9-0.3,29.5   c-1.4,1.8-0.9,4-1.1,6c-1.4,1.2-1.6,2.5-0.1,4.2c6.1-19.6,5.8-40.4,9.2-60.4C835.3,321,831.7,348.2,820,371.6L820,371.6z" />
	<path display="inline" fill="#382F28" d="M825.8,322.5c-1.8-7.7,0-14.4-1-22.2c2.2,2.4,1.8,4.6,1.4,6.5c-0.6,5.1,0.7,10.1,0.4,15.3   C826.4,322.2,826.1,322.4,825.8,322.5z" />
	<path display="inline" fill="#B8A68D" d="M825.8,322.5c0.3-0.1,0.5-0.3,0.8-0.4c0.3,3.1-0.6,6.5,1.2,9.3c-0.4,3.1-0.9,6.1-1.3,9.2   C824,335.3,826.4,328.4,825.8,322.5z" />
	<path display="inline" fill="#776E5E" d="M822.4,290c0.4-0.8,0.7-1.5,1.1-2.3c1.1,2.8,2.2,5.5,3.2,8.2   C824.5,298.5,822.7,291.6,822.4,290z" />
	<path display="inline" fill="#D6BFA0" d="M822.4,291.1c0.3,0.5,0.5,0.9,0.8,1.4C823,292,822.7,291.6,822.4,291.1z" />
	<path display="inline" fill="#D6BFA0" d="M821.1,287.8c0.2,0.4,0.5,0.8,0.7,1.2C821.6,288.6,821.4,288.2,821.1,287.8z" />
	<path display="inline" fill="#D3BC9D" d="M832.5,330.3c0.7-12.3,0.8-24.6,0.1-36.7c2.2,4.4,1.5,9.7,2.3,14.4c0.9,0.2,1.4,0.3,2,0.4   c0,2.7,0.1,5.4,0.1,8.1c-1.8,2.3-0.9,4.9-0.9,8.5c2.9-5.2,1.5-8.5,3.1-13.4c0.3,3.9-0.5,8,1,11.7l0.5,0.1   c-1.2,5.6-3.6,10.8-5.5,16.2C831.6,338,835.7,332.2,832.5,330.3z" />
	<path display="inline" fill="#786B5C" d="M840.6,345.3c-0.3-0.3-0.6-0.7-0.9-1c0.8-3.6,1.7-7.3,2.5-10.9c2.9,0.6-0.5,4.8,1.4,7   c1,2.1-0.5,4.1-0.8,6.1c-0.3,0.1-0.6,0.2-0.9,0.2C841.5,346.1,841.1,345.7,840.6,345.3z" />
	<path display="inline" fill="#91806E" d="M840.2,323.4c1-2,1.3-4.1,2.1-6.2c0.8,2.6,1.1,5.1-0.3,7.5c-0.4-0.4-0.9-0.9-1.3-1.3   L840.2,323.4z" />
	<path display="inline" fill="#3B3029" d="M840.7,323.5c0.4,0.4,0.9,0.9,1.3,1.3c-0.4,2,0.2,4.1-1.2,5.9c-0.4-0.8-0.8-1.7-1.2-2.5   C839.9,326.6,840.3,325,840.7,323.5z" />
	<path display="inline" fill="#F6D9C7" d="M821.5,375c0.3-0.3,0.5-0.6,0.8-0.9C822,374.4,821.7,374.7,821.5,375z" />
	<path display="inline" fill="#080605" d="M772.8,222.6c0.7-1.5,2-2.1,3.6-2.4C775.7,221.8,774.6,222.6,772.8,222.6z" />
	<path display="inline" fill="#080605" d="M776.3,220.3c0.4-1.1,1.4-1.2,2.4-1.2C778.3,220.2,777.3,220.3,776.3,220.3z" />
	<path display="inline" fill="#97816C" d="M774,234c0.4-0.4,0.8-0.7,1.2-1.1c0,0,0,0,0,0C774.8,233.2,774.4,233.6,774,234L774,234z" />
	<path display="inline" fill="#97816C" d="M775.2,232.9c0.1-0.3,0.3-0.6,0.4-0.8C776.4,232.8,775.4,232.6,775.2,232.9L775.2,232.9z" />
	<path display="inline" fill="#080605" d="M772.7,223.5c-0.3-0.3-0.6-0.6-0.8-0.8c0.3-0.2,0.7-0.2,1.1-0.2   C773.1,222.9,773,223.2,772.7,223.5z" />
	<path display="inline" fill="#F7E0C0" d="M769.5,291.3c0.5,8.9-3,17-2.2,25.8c-4.8-0.6-1.7-14.9-4.5-17.8   c-1.6-18.6-1.2-37.5,3.3-55.9c1.9-1,3.8-0.5,5.6-0.3c0.4,1.5-0.6,3.4,1.1,4.6c0.8,2.3-1.1,4.9,1.1,6.8c0,0.8,0.1,1.5,0.1,2.3   c-4.3,7.5-0.2,18-3.7,26C768.8,285.6,769.7,288.5,769.5,291.3z M770.6,260.1c-3.3,3.2-2.1,6-1.5,8.8   C769.5,266.3,770,263.7,770.6,260.1z" />
	<path display="inline" fill="#F7E0C0" d="M759.2,288.8c-0.1,3.4-0.2,6.4-0.1,9.9c-1.8,0.4-3.5,0.8-5.2,1.3   c-0.2-10.6,4.6-21.7,4.1-32.7l0,0c0.4,0,0.8,0,1.2,0C759.4,274.8,757.3,281.6,759.2,288.8z" />
	<path display="inline" fill="#716455" d="M772.8,247.9c-1.7-1.2-0.7-3.1-1.1-4.6c0.4,0,0.8,0,1.2,0c0.4,0.3,0.7,0.7,1.1,1   c0.4,0.1,0.8,0.1,1.2,0.2c2.7,7.8,3.5,16,4.4,24.2c-0.4,0.8-0.8,1.6-1.1,2.3c-2.4-7.6,0.4-18.1-5.4-24.7   C773,246.8,772.9,247.3,772.8,247.9z" />
	<path display="inline" fill="#796E5C" d="M761.6,286.6c1.4,4.8,1.2,10.1,0.9,15.1c-0.3,0-0.7,0-1,0c-0.4-2.7-0.8-5.4-1.1-8.1   C762.3,292,761,288.8,761.6,286.6z" />
	<path display="inline" fill="#D7C1A1" d="M759.1,267.3c-0.4,0-0.8,0-1.2,0c0.3-2.8,0.8-5.6,2.2-8   C759.8,261.9,759.5,264.6,759.1,267.3z" />
	<path display="inline" fill="#D7C1A1" d="M759,285.6c-1.4-2.9-1.4-5.1,0-8C759,280.3,759,282.9,759,285.6z" />
	<path display="inline" fill="#F7E0C0" d="M774,244.2c-0.4-0.3-0.7-0.7-1.1-1c0.4,0,0.7,0.1,1.1,0.1C774,243.6,774,243.9,774,244.2z   " />
	<path display="inline" fill="#6C6453" d="M838.1,316.5c0.4,2.7-0.3,5.1-2,8.6c0-3.7-0.9-6.2,0.9-8.5   C837.4,316.6,837.8,316.5,838.1,316.5z" />
	<path display="inline" fill="#F2DCBC" d="M780.8,249c8.8,10.5,6.1,25.6,3.7,37.7c-3.1-11.3-2.7-23.6-4.9-35.2   C780,250.7,780.4,249.8,780.8,249z" />
	<path display="inline" fill="#1A1613" d="M779.6,251.5c1.5,10.9,2.7,21.7,3.9,32.6c-0.6,1.2,0.4,2.8-1.2,3.7   c-3.3-14.3-2.2-29.5-7-43.5C778.7,243.4,778.3,249.4,779.6,251.5z" />
	<path display="inline" fill="#BDBA9F" d="M794.6,245.5c0.6-0.9,1.1-1.8,2-3.3c0.2,1.4,0.3,2.2,0.5,3.3   C796.1,245.5,795.4,245.5,794.6,245.5z" />
	<path display="inline" fill="#AF968B" d="M714.1,217c-0.8-1.6-0.6-1.8,0.8-2.2C715.7,215.8,714.9,216,714.1,217z" />
	<path display="inline" fill="#3D3833" d="M717.1,210.9c-2,1.6-2.6,1-1-0.9C716.4,210.3,716.6,210.5,717.1,210.9z" />
	<path display="inline" fill="#634B46" d="M713.5,222.4c0-0.6,0-1.2,0-1.8c0.2,0,0.3,0,0.5,0c0,0.6,0,1.2,0,1.8   C713.9,222.4,713.7,222.4,713.5,222.4z" />
	<path display="inline" fill="#D8C1A1" d="M736,250.9c-0.3,0.5-0.6,1-0.8,1.4C735.4,251.8,735.7,251.4,736,250.9z" />
	<path display="inline" fill="#110D0B" d="M188.9,418c3.5-3.7,13.3-2.5,19.5-2.2C207.2,423.9,194.3,421.9,188.9,418z" />
	<path display="inline" fill="#0C0A09" d="M209.5,408.3c1.8,8-16.8,4.8-21.4,1.7C192.3,405.6,203.1,409.4,209.5,408.3z" />
	<path display="inline" fill="#130F0D" d="M190.4,426.7c2-2.5,15.8-5,16.8-1.4C204.4,430.3,194.1,431,190.4,426.7z" />
	<path display="inline" fill="#1F1815" d="M204.5,434.5c-4,1-7.8,0.5-11.8-0.7C195.4,429.4,205.6,427.8,204.5,434.5z" />
	<path display="inline" fill="#1E1311" d="M209.5,403.8c-5.6,2.4-12.7,0.3-18.8,0.9C196.7,403,203.3,404.2,209.5,403.8z" />
	<path display="inline" fill="#1E1311" d="M200.5,408.2c-3.6,0-7.1,0-10.7,0c0.2-0.3,0.2-0.7,0-1c3.6,0,7.2,0,10.7,0.1   C200.4,407.6,200.4,407.9,200.5,408.2z" />
	<path display="inline" fill="#748A78" d="M200.5,408.2c-0.1-0.3-0.1-0.6,0-0.9c3,0,6.1-0.9,9-0.1c-0.1,0.4-0.1,0.7-0.1,1.1   C206.5,408.2,203.5,408.2,200.5,408.2z" />
	<path display="inline" fill="#3C1311" d="M189.7,442.5c1.8-1.3,3.8-0.9,6.7-1.4c-1.9,2.1-3.4,2.6-5.2,2.5   C190.7,443.3,190.2,442.9,189.7,442.5z" />
	<path display="inline" fill="#395C50" d="M205.9,442.7c2.3,0,4.6-0.1,6.8-0.1C212.1,445,207.6,444,205.9,442.7z" />
	<path display="inline" fill="#A28978" d="M205,441.7c-0.1,0.3-0.1,0.6-0.1,1c-1.4-0.1-2.8-0.1-4.1-0.2c0-0.3,0-0.5,0-0.8   C202.2,441.7,203.6,441.7,205,441.7z" />
	<path display="inline" fill="#160E0D" d="M189.7,442.5c0.5,0.4,1,0.7,1.5,1.1c-1,0.2-2.1,0.3-3.1,0.5c-0.1-0.2-0.2-0.5-0.2-0.7   C188.4,443.1,189,442.8,189.7,442.5z" />
	<path display="inline" fill="#1E1311" d="M189.3,404.7c-0.9,0-1.8,0.1-2.8,0.2C187.4,403.2,188.3,404.1,189.3,404.7z" />
	<path display="inline" fill="#1E1311" d="M187.2,406.2c0.5,0.2,1,0.5,1.6,0.7C188.3,406.7,187.8,406.5,187.2,406.2z" />
	<path display="inline" fill="#1E1311" d="M186.5,404.9c0.1,0.3,0.1,0.6,0,0.9c-0.2-0.1-0.5-0.3-0.7-0.4   C186.1,405.2,186.3,405,186.5,404.9z" />
	<path display="inline" fill="#D0BC9F" d="M814,437c0.2,1.3,0.3,2.7-0.8,3.7C813.1,439.4,812.5,437.9,814,437z" />
	<path display="inline" fill="#CBB3A4" d="M697.1,338.2c-1.2,1.2-1.4,3.6-3.9,3.4c-2.1-4.6-2.3-9.9-0.6-14.7c0.5,0,1,0,1.5,0.1   C693.3,331,697.8,333.9,697.1,338.2z" />
	<path display="inline" fill="#B09C8E" d="M694.1,326.9c-0.5,0-1,0-1.5-0.1c0.6-3.3,3.4-4.8,5.8-6.8c1,1.2,2.4,1.5,3.7,2l-0.4,0.3   C698.2,321.4,696.4,325.1,694.1,326.9z" />
	<path display="inline" fill="#C4B0A1" d="M705.1,325.8c-0.7-0.4-1.5-0.8-2.2-1.2c-0.4-0.7-0.8-1.5-1.2-2.2l0.4-0.3   C704,322.6,705.4,323.5,705.1,325.8z" />
	<path display="inline" fill="#C4B0A1" d="M706.1,327.2c-0.4-0.5-0.7-0.9-1.1-1.4C705.4,326.3,705.8,326.7,706.1,327.2z" />
	<path display="inline" fill="#F1D3C1" d="M705,331.5c0.4,1.6,0.8,3.3,1.3,5.3c-1.1,1.1-2.2,2.3-3.2,3.4c-1.4-1.6-3.3-2.2-3.7-3.9   c0.2-1,0.2-1.9-0.8-2.5l-0.3,0.1c0.1-0.8,0.1-1.6,0.2-2.4c1.2-0.7,3.4-2.5,1.1-3.5c0,0,0,0,0,0c0-1.1,0.1-2.1,0.1-3.2   C702.9,323.4,703.4,329.5,705,331.5z" />
	<path display="inline" fill="#2B221F" d="M701.7,324.8c-0.2-0.3-0.6-0.4-0.9-0.4c-0.5-0.9-0.9-0.9-1,0.2c-1.9,1.6-2.3,1.9-0.2,3.3   c-1.3,1.7-1.2,3.7-1.3,5.8c-0.4,0.5-0.8,1-1.2,1.4c-1.1-2.8-3.5-5.2-2.9-8.3c2.3-1.8,4.2-5.5,7.6-4.6c0.4,0.7,0.8,1.5,1.2,2.2l0,0   C702.5,324.7,702.1,324.8,701.7,324.8z" />
	<path display="inline" fill="#D6C2B1" d="M696.2,346.3c-0.4-0.6-0.7-1.2-1.2-2.1c1.2-1.5,2.4-3.1,3.5-4.6c0.3,0,0.5,0,0.8,0   c0.9,0.7,1.6,1.5,2.1,2.6C700.8,345.1,698.3,345.4,696.2,346.3z" />
	<path display="inline" fill="#C4B0A1" d="M705,331.5c-0.3-0.7-0.7-1.5-1-2.2C705,329.7,705.1,330.5,705,331.5z" />
	<path display="inline" fill="#C4B0A1" d="M698.5,333.7c1.1,0.6,1.1,1.5,0.8,2.5c-0.4-0.1-0.7-0.3-0.9-0.5   C698.4,335,698.5,334.4,698.5,333.7z" />
	<path display="inline" fill="#C4B0A1" d="M701.7,324.8c0.4-0.1,0.8-0.2,1.2-0.3c0,0.8,0,1.5-0.1,2.3   C702.5,326.2,702.1,325.5,701.7,324.8z" />
	<path display="inline" fill="#2B221F" d="M698.4,335.7c0.3,0.3,0.6,0.4,0.9,0.5c0,0.3,0.1,0.6,0.3,0.9   C699.2,336.7,698.8,336.2,698.4,335.7z" />
	<path display="inline" fill="#2B221F" d="M700.5,340.8c-0.4-0.4-0.9-0.8-1.3-1.2C699.7,340,700.1,340.4,700.5,340.8z" />
	<path display="inline" fill="#C4B0A1" d="M703.9,329.2c-0.3-0.5-0.6-1-0.9-1.4C703.3,328.3,703.6,328.7,703.9,329.2z" />
	<path display="inline" fill="#644439" d="M332.6,303.5c1.4,5-0.4,9.8-0.4,14.8c-4.5-1.1-1.3-7.7-2.2-11.9c0.8,1.2,1.2,1.8,1.6,2.5   C332.9,307.6,332.2,305.2,332.6,303.5z" />
	<path display="inline" fill="#562B22" d="M333.3,320.4c-1.3,2-3.1,2-5.8,1.7C329.6,320.6,331,319.3,333.3,320.4z" />
	<path display="inline" fill="#75443E" d="M169,349.5c-0.7,0.4-1.1,0.5-1.5-0.3C168.2,348.8,168.7,348.6,169,349.5z" />
	<path display="inline" fill="#E1C7B6" d="M192.5,377.4c0.3-0.5,0.6-0.9,0.9-1.4C193,376.4,192.8,376.9,192.5,377.4z" />
	<path display="inline" fill="#24201B" d="M794.6,322.4c0.9,14.7,4.6,28.8,6.8,43.3c-0.8,0.1-1.4,0.1-2,0.1   c-8.8-12-3.6-29.4-5.9-43.4C793.9,322.3,794.2,322.3,794.6,322.4z" />
	<path display="inline" fill="#221F1A" d="M804,318.9c0.3,0,0.5,0,0.8,0c0.6,15.9,3.7,34.4,0.3,49.1   C802.2,352,804.6,335.3,804,318.9z" />
	<path display="inline" fill="#29251F" d="M772.8,247.9c0.1-0.5,0.2-1.1,0.2-1.7c6.5,10.4,4.3,24.6,5.8,36.5c0.6,4.1,2.5,9.6,0,13.1   C776.3,279.8,776.4,263.4,772.8,247.9z" />
	<path display="inline" fill="#342E26" d="M778.5,336.3c0,1.1,0,2.2,0,3.2c-0.4,0.5-0.8,0.9-1.2,1.4c-1.5-4.6-2.5-9.3-3.1-14.1   c0.4-0.8,0.7-1.6,1.1-2.4c0.3,0.2,0.6,0.4,0.9,0.5C776.6,328.8,777.7,332.5,778.5,336.3z" />
	<path display="inline" fill="#433F36" d="M782.2,287.8c1.5-0.9,0.6-2.5,1.2-3.7c2.2,5.1,1.2,11,1.9,16.4c-0.4,0.4-0.7,0.9-1.1,1.3   c-0.3-0.2-0.6-0.3-0.9-0.5c-0.8-3.3,0.7-7.4-1.2-10.2C782,290,781.8,288.9,782.2,287.8z" />
	<path display="inline" fill="#635749" d="M794.6,322.4c-0.4,0-0.7,0-1.1-0.1c-1.8-3.3-0.6-8.2-0.9-12.1   C795.6,313.9,794.6,318.2,794.6,322.4z" />
	<path display="inline" fill="#9F8D76" d="M784.3,341.9c-1.3,0.2-0.9,1.4-1.2,2.2c-2-5-3.1-11.6-3.2-17.2   C782.5,331.4,782.5,337,784.3,341.9z" />
	<path display="inline" fill="#F0D9B9" d="M773.9,308.7c0.4-5.5-0.4-11.1,1.1-16.6c-0.1,7,1.1,14.3-0.7,21.1   C774.2,311.7,774.1,310.2,773.9,308.7z" />
	<path display="inline" fill="#F0D9B8" d="M783,294.8c0,4.5,1.4,9.6-0.8,13.7c-0.7-3.8,0.9-8-1.1-11.5c0.2-2.6-1.3-5.9,0.8-7.9   C782.7,291.1,781.1,293.3,783,294.8z" />
	<path display="inline" fill="#D7C1A1" d="M779.9,326.9c-0.5,2.8,0.4,5.4,0.9,8c-1.1,0-2,0.2-2.3,1.4c-0.7-3.1-1.4-6.3-2.1-9.4   c0.6,0.5,1.2,1.1,1.8,1.6C778.7,328.1,779.3,327.5,779.9,326.9z" />
	<path display="inline" fill="#5E5447" d="M773.9,308.7c0.1,1.5,0.2,3,0.4,4.5l-0.5,0c-0.4,0.8-0.7,1.6-1.1,2.5   c-1.2-4.4-2.3-11,0-14.9C772.9,303.4,772.7,306.2,773.9,308.7z" />
	<path display="inline" fill="#92816C" d="M772.7,300.7c-1.6,0.7-0.7,2.3-1.2,3.4c-1.8-4.7-0.8-10-0.9-15c0.3-0.1,0.8-0.1,1.1,0   C772,293,772.4,296.8,772.7,300.7z" />
	<path display="inline" fill="#62594A" d="M780.8,292.6c0.4,4.1,0.2,8.3,0.1,12.5c-0.3,0-0.7,0-1-0.1c-0.4-3.1-0.7-6.1-1.1-9.2   c1.5-0.8,0.6-2.3,1.1-3.5C780.2,292.5,780.5,292.6,780.8,292.6z" />
	<path display="inline" fill="#2C2822" d="M772.7,315.6c0.4-0.8,0.7-1.6,1.1-2.5c0.9,1.6-0.4,3.6,1.2,5c0.2,1.4,0.2,2.8,0,4.2   c-0.4,0-0.8,0-1.2,0.1C773.4,320.1,773.1,317.9,772.7,315.6z" />
	<path display="inline" fill="#8F826D" d="M779.9,305c0.7,0.1,1.4,0,2.1,0.1c0.1,1.1,0.1,2.2,0.2,3.3c-0.4,0.4-0.8,0.7-1.3,1.2   C779.1,308.3,780,306.6,779.9,305z" />
	<path display="inline" fill="#433E34" d="M784.2,301.9c0.4-0.4,0.7-0.9,1.1-1.3c0.1,1.6,0.2,3.3,0.4,5.8   C783.8,304.6,784.2,303.2,784.2,301.9z" />
	<path display="inline" fill="#D7C1A1" d="M775,322.3c0.1-0.8,0.1-1.5,0.2-2.3c2,1.3,0.8,3.2,1,4.9c-0.3-0.2-0.6-0.3-0.9-0.5   C775.2,323.7,775.1,323,775,322.3z" />
	<path display="inline" fill="#D7C1A1" d="M775,318.1c-1.1-1.1-1-2.4-0.8-3.8C775.8,315.3,775,316.8,775,318.1z" />
	<path display="inline" fill="#D7C1A1" d="M771.7,289.1c-0.3-0.1-0.8,0-1.1,0c0.1-1,0.1-2,0.2-3c0.2,0,0.4,0,0.7,0   C771.6,287.1,771.6,288.1,771.7,289.1z" />
	<path display="inline" fill="#675B4C" d="M762.4,347.6c-0.4,0.8-0.8,1.7-1.2,2.5c-2.1-5.2-1.2-11.1-3.1-16.2c0.5,0,1.1,0,1.7,0   C760.7,338.6,761.6,343.1,762.4,347.6z" />
	<path display="inline" fill="#776958" d="M763.6,340.7c-2.1-2.4-1-5.9-3.4-8c0.4-0.4,0.8-0.7,1.4-1.3c2.3,2.8,2.6,6.2,3.2,9.3   C764.4,340.7,764,340.7,763.6,340.7z" />
	<path display="inline" fill="#7B6F5F" d="M761.5,301.7c0.3,0,0.7,0,1,0c1.9,3.5,2,7.6,2.4,11.5   C761.9,310.1,762.4,305.6,761.5,301.7z" />
	<path display="inline" fill="#857561" d="M768.1,339.5c-1.8-1.5-0.8-3.3-0.9-5.4c1.9,1.7,2.4,3.4,2.1,5.4   C769,339.5,768.5,339.5,768.1,339.5z" />
	<path display="inline" fill="#302A23" d="M771.8,354.4c-0.6-0.4-1.2-0.8-1.7-1.2c0.2-1.7,0.4-3.1,0.6-4.6l0,0c0.3,0,0.8,0,1,0.1   C771.6,350.7,771.7,352.5,771.8,354.4z" />
	<path display="inline" fill="#382F27" d="M770.6,348.7c-1.5-1.9-1.5-2.5-0.2-4.5C770.8,345.7,770.7,347.2,770.6,348.7   C770.6,348.7,770.6,348.7,770.6,348.7z" />
	<path display="inline" fill="#1F1B16" d="M775,322.3c0.1,0.7,0.2,1.4,0.2,2.1c-0.4,0.8-0.7,1.6-1.1,2.4c-0.1-1.5-0.2-3-0.4-4.5   C774.2,322.3,774.6,322.3,775,322.3z" />
	<path display="inline" fill="#1E1B17" d="M777.3,340.9c0.4-0.5,0.8-0.9,1.2-1.4c0.1,0.7,0.2,1.4,0.3,2.1c-0.4,0.8-0.7,1.6-1.1,2.4   C777.5,343,777.4,341.9,777.3,340.9z" />
	<path display="inline" fill="#4A4237" d="M768.1,339.5c0.4,0,0.8,0,1.2,0c0.1,0.7,0.2,1.4,0.3,2c-0.4,0.4-0.9,0.9-1.3,1.3   C768.3,341.8,768.2,340.7,768.1,339.5z" />
	<path display="inline" fill="#2C2821" d="M763.6,340.7c0.4,0,0.8,0,1.2,0c0.4,1.1,0.1,2.3,0,3.5   C763.2,343.4,763.9,341.9,763.6,340.7z" />
	<path display="inline" fill="#746656" d="M770.6,348.7c0.1-0.8,0.1-1.7,0.2-2.5c0.9,0.6,1.1,1.5,0.8,2.5   C771.3,348.7,770.8,348.7,770.6,348.7z" />
	<path display="inline" fill="#2B2620" d="M812.1,303.5c-1,10.4,1.6,19.9,0.7,30.2c-0.3,0-0.6,0-0.9,0c-0.1-0.9,0-1.8-1-2.2   c0.7-12.1-2-25,0.8-36.7C811.9,297.7,812,300.6,812.1,303.5z" />
	<path display="inline" fill="#38322A" d="M811.7,294.8c-1.4,2.2-1,4.7-1.1,7.2c-1.2-4.3-1.7-9.4,0.4-13.4   C812.2,290.6,811.8,292.7,811.7,294.8z" />
	<path display="inline" fill="#2B2620" d="M810.6,338.1c-0.5,5.3,1.4,11.5-0.9,16.3C809.6,348.9,809.2,343.5,810.6,338.1z" />
	<path display="inline" fill="#24201B" d="M811,288.7c-0.4,0.9-0.8,1.7-1.2,2.6c-0.2-2.4-0.6-4.7,0.9-6.8   C810.7,285.9,810.8,287.3,811,288.7z" />
	<path display="inline" fill="#BCA88C" d="M812.8,333.7c0.1-3.8,0.3-7.6,0.4-11.5c4.4,7.7,0.7,16.7,0.7,25.1   C811.8,343.3,813.2,338.2,812.8,333.7z" />
	<path display="inline" fill="#8A7A66" d="M812.8,340.4c0,5.2,2.5,9.6-0.8,14.4c0-4.7,0-9.4,0-14.1   C812.3,340.7,812.5,340.6,812.8,340.4z" />
	<path display="inline" fill="#38322A" d="M812.8,340.4c-0.2,0.1-0.5,0.3-0.8,0.4c0-2.3-0.1-4.7-0.1-7c0.3,0,0.6,0,0.9,0   C812.8,336,812.8,338.2,812.8,340.4z" />
	<path display="inline" fill="#5E5345" d="M736.2,352.1c1.4-0.3,1-1.5,1.3-2.3c1.6,1.7,1,3.8,1,5.8l0,0   C736.9,354.9,736.8,353.3,736.2,352.1z" />
	<path display="inline" fill="#5E5345" d="M738.5,355.5c0.9,0.4,1.3,1,0.3,2.1C738.7,356.8,738.5,356.2,738.5,355.5L738.5,355.5z" />
	<path display="inline" fill="#302C24" d="M733.7,354.6c-0.2-0.5-0.5-0.9-0.7-1.4C733.2,353.7,733.5,354.1,733.7,354.6z" />
	<path display="inline" fill="#E8D3B4" d="M832.5,330.3c3.2,1.9-0.9,7.7,2.7,9.3c-1.3,4.3-3.5,8.2-5,12.4c-1.3-0.4-0.9-1.7-1.3-2.6   C830.1,343.1,831.3,336.7,832.5,330.3z" />
	<path display="inline" fill="#988F7B" d="M819.9,371.6c1.1-4.3,4-8.5,5.7-12.8c0.3,0.4,0.7,0.8,1,1.2   C824.3,363.9,823.5,369,819.9,371.6z" />
	<path display="inline" fill="#BFAC93" d="M826.6,360.1c-0.3-0.4-0.7-0.8-1-1.2c1.1-3.1,2.2-6.2,3.3-9.3c0.3,0.9,0,2.1,1.3,2.6   C829,354.7,827.8,357.4,826.6,360.1z" />
	<path display="inline" fill="#D3BC9D" d="M833.8,343.2c0.2-0.5,0.5-0.9,0.7-1.4C834.3,342.3,834.1,342.7,833.8,343.2z" />
	<path display="inline" fill="#0D0C0A" d="M732.6,360.3c0.3-0.2,0.6-0.4,1-0.6c-0.2,0.5-0.5,1-0.7,1.5   C732.6,361,732.6,360.7,732.6,360.3z" />
	<path display="inline" fill="#B3A189" d="M825.5,336.6c0.4,1.3-0.5,2.9,1,4c-0.4,1.9-0.7,3.8-1.1,5.7c-0.4-0.4-0.7-0.9-1.1-1.3   C824.4,342.2,824.2,339.3,825.5,336.6z" />
	<path display="inline" fill="#9C8F7A" d="M824.4,345c0.4,0.4,0.7,0.9,1.1,1.3c-0.3,1.5-0.7,3.1-1,4.6c-0.4,0-0.8,0.1-1.2,0.1   C823.5,349,823,346.8,824.4,345z" />
	<path display="inline" fill="#574B41" d="M823.2,351c0.4,0,0.8-0.1,1.2-0.1c-0.4,1.4-0.8,2.7-1.3,4.3   C821.7,353.5,821.9,352.2,823.2,351z" />
	<path display="inline" fill="#988A76" d="M770.6,260.1c-0.6,3.6-1,6.2-1.5,8.8C768.5,266.1,767.2,263.3,770.6,260.1z" />
	<path display="inline" fill="#D7C1A1" d="M763.6,304.1c-0.4-0.8-0.7-1.6-1.1-2.4c0.1-0.8,0.2-1.5,0.3-2.3   C764.4,300.7,763.5,302.5,763.6,304.1z" />
	<path display="inline" fill="#D8C1A1" d="M773,249.8c1.2,1.5,1,3.1,0.8,4.8C772.2,253.3,773,251.5,773,249.8z" />
	<path display="inline" fill="#9D8E76" d="M779.6,285.8c-1.1-5.4-2.2-12.1,0-17.3c0.4,3.8,0.8,7.6,1.1,11.4   C779.5,281.7,779.7,283.8,779.6,285.8z" />
	<path display="inline" fill="#CAB699" d="M779.6,285.8c0.1-2-0.1-4.1,1.1-5.8c0.3,3,1.9,6.2,1.2,9.1c-1.5,0.8-0.7,2.4-1.1,3.5   c-0.3,0-0.6-0.1-0.9-0.3C779.8,290.2,779.7,288,779.6,285.8z" />
	<path display="inline" fill="#C4B0A1" d="M698.3,331.5c-0.6-1.5,0.8-2.3,1.1-3.5C701.8,329,699.6,330.8,698.3,331.5z" />
	<path display="inline" fill="#C4B0A1" d="M699.5,328c-1.9-1.3-1.9-1.7,0.1-3.2C699.5,325.9,699.5,327,699.5,328z" />
	<path display="inline" fill="#C4B0A1" d="M699.7,324.7c0.1-1.1,0.5-1.1,1-0.2C700.4,324.7,700.1,324.7,699.7,324.7z" />
	<path display="inline" fill="#CAB699" d="M783,294.8c-1.4-1-0.9-2.4-0.8-3.7C783.4,292.2,783.2,293.5,783,294.8z" />
	<path display="inline" fill="#CAB699" d="M782,305.2c-0.3-0.1-0.7-0.1-1.1-0.1c0.1-2.7,0.1-5.4,0.2-8   C782.7,299.4,781.8,302.4,782,305.2z" />
</g>
</svg>